500 0 10 0           
7 Unknown 11 ACIS 5.0 NT 24 Thu Mar 25 21:12:25 1999 
-1 9.9999999999999995e-007 1e-010 
body $-1 $10 $-1 $11 #
body $-1 $12 $-1 $13 #
body $-1 $14 $-1 $15 #
body $-1 $16 $-1 $17 #
body $-1 $18 $-1 $19 #
body $-1 $20 $-1 $21 #
body $-1 $22 $-1 $23 #
body $-1 $24 $-1 $25 #
body $-1 $26 $-1 $27 #
body $-1 $28 $-1 $29 #
lump $-1 $-1 $30 $0 #
transform $-1 1 0 0 0 1 0 0 0 1 78.083437604907374 41.805272456752554 15.289601889758679 1 rotate no_reflect no_shear #
lump $-1 $-1 $31 $1 #
transform $-1 1 0 0 0 1 0 0 0 1 78.083437604907374 41.805272456752554 15.289601889758679 1 rotate no_reflect no_shear #
lump $-1 $-1 $32 $2 #
transform $-1 1 0 0 0 1 0 0 0 1 78.083437604907374 41.805272456752554 15.289601889758679 1 rotate no_reflect no_shear #
lump $-1 $-1 $33 $3 #
transform $-1 1 0 0 0 1 0 0 0 1 78.083437604907374 41.805272456752554 15.289601889758679 1 rotate no_reflect no_shear #
lump $-1 $-1 $34 $4 #
transform $-1 1 0 0 0 1 0 0 0 1 78.083437604907374 41.805272456752554 15.289601889758679 1 rotate no_reflect no_shear #
lump $-1 $-1 $35 $5 #
transform $-1 1 0 0 0 1 0 0 0 1 78.083437604907374 41.805272456752554 15.289601889758679 1 rotate no_reflect no_shear #
lump $-1 $-1 $36 $6 #
transform $-1 1 0 0 0 1 0 0 0 1 78.083437604907374 41.805272456752554 15.289601889758679 1 rotate no_reflect no_shear #
lump $-1 $-1 $37 $7 #
transform $-1 1 0 0 0 1 0 0 0 1 78.083437604907374 41.805272456752554 15.289601889758679 1 rotate no_reflect no_shear #
lump $-1 $-1 $38 $8 #
transform $-1 1 0 0 0 1 0 0 0 1 78.083437604907374 41.805272456752554 15.289601889758679 1 rotate no_reflect no_shear #
lump $-1 $-1 $39 $9 #
transform $-1 1 0 0 0 1 0 0 0 1 78.083437604907374 41.805272456752554 15.289601889758679 1 rotate no_reflect no_shear #
shell $-1 $-1 $-1 $40 $-1 $10 #
shell $-1 $-1 $-1 $41 $-1 $12 #
shell $-1 $-1 $-1 $42 $-1 $14 #
shell $-1 $-1 $-1 $43 $-1 $16 #
shell $-1 $-1 $-1 $44 $-1 $18 #
shell $-1 $-1 $-1 $45 $-1 $20 #
shell $-1 $-1 $-1 $46 $-1 $22 #
shell $-1 $-1 $-1 $47 $-1 $24 #
shell $-1 $-1 $-1 $48 $-1 $26 #
shell $-1 $-1 $-1 $49 $-1 $28 #
face $-1 $50 $51 $30 $-1 $52 forward single #
face $-1 $53 $54 $31 $-1 $55 reversed single #
face $-1 $56 $57 $32 $-1 $58 reversed single #
face $-1 $59 $60 $33 $-1 $61 forward single #
face $-1 $62 $63 $34 $-1 $64 forward single #
face $-1 $65 $66 $35 $-1 $67 forward single #
face $-1 $68 $69 $36 $-1 $70 reversed single #
face $-1 $71 $72 $37 $-1 $73 forward single #
face $-1 $74 $75 $38 $-1 $76 forward single #
face $-1 $77 $78 $39 $-1 $79 forward single #
face $-1 $80 $81 $30 $-1 $82 reversed single #
loop $-1 $-1 $83 $40 #
plane-surface $-1 0 0 15.289601889758679 0 0 1 1 0 0 forward_v I I I I #
face $-1 $84 $85 $31 $-1 $86 reversed single #
loop $-1 $-1 $87 $41 #
plane-surface $-1 -70.555967218064467 0 10.705847649094125 0 0 1 1 0 0 forward_v I I I I #
face $-1 $88 $89 $32 $-1 $90 reversed single #
loop $-1 $-1 $91 $42 #
plane-surface $-1 68.039973207946446 -41.805272456752562 5.0944444858727422 0 -0.68199836817093118 0.7313536940579346 1 0 0 forward_v I I I I #
face $-1 $92 $93 $33 $-1 $94 forward single #
loop $-1 $95 $96 $43 #
cone-surface $-1 62.013894569769917 -35.963197337898094 9.7892507922310568 0 0.68199836817093118 -0.7313536940579346 1 0 0 1 I I 0 1 1 forward I I I I #
face $-1 $97 $98 $34 $-1 $99 forward single #
loop $-1 $100 $101 $44 #
cone-surface $-1 68.039973207946474 -35.963197337898094 9.7892507922310568 0 0.68199836817093118 -0.7313536940579346 1 0 0 1 I I 0 1 1 forward I I I I #
face $-1 $102 $103 $35 $-1 $104 forward single #
loop $-1 $105 $106 $45 #
cone-surface $-1 74.066051846123031 -35.963197337898094 9.7892507922310568 0 0.68199836817093118 -0.7313536940579346 1 0 0 1 I I 0 1 1 forward I I I I #
face $-1 $107 $108 $36 $-1 $109 reversed single #
loop $-1 $-1 $110 $46 #
plane-surface $-1 -44.153424427885597 135.24448348945998 162.09665874244166 -1 0 0 0 0.86602541151947299 0.49999998660252726 forward_v I I I I #
face $-1 $111 $112 $37 $-1 $113 forward single #
loop $-1 $114 $115 $47 #
cone-surface $-1 -59.253482350554364 39.931052654744853 12.979108835298257 0 -0.86602541151947299 -0.49999998660252726 0.5 0 0 1 I I 0 1 0.5 forward I I I I #
face $-1 $116 $117 $38 $-1 $118 forward single #
loop $-1 $119 $120 $48 #
cone-surface $-1 -53.590960629553578 39.931052654744853 12.979108835298257 0 -0.86602541151947299 -0.49999998660252726 0.5 0 0 1 I I 0 1 0.5 forward I I I I #
face $-1 $121 $122 $39 $-1 $123 forward single #
loop $-1 $124 $125 $49 #
cone-surface $-1 -47.928438908552792 39.931052654744853 12.979108835298257 0 -0.86602541151947299 -0.49999998660252726 0.5 0 0 1 I I 0 1 0.5 forward I I I I #
face $-1 $126 $127 $30 $-1 $128 reversed single #
loop $-1 $-1 $129 $50 #
plane-surface $-1 0 0 -15.289601889758679 0 0 1 1 0 0 forward_v I I I I #
coedge $-1 $130 $131 $132 $133 forward $51 $-1 #
face $-1 $134 $135 $31 $-1 $136 reversed single #
loop $-1 $-1 $137 $53 #
plane-surface $-1 -63.02849683122156 0 12.997724769426402 -1 0 0 0 0 1 forward_v I I I I #
coedge $-1 $138 $139 $140 $141 forward $54 $-1 #
face $-1 $142 $143 $32 $-1 $144 reversed single #
loop $-1 $-1 $145 $56 #
plane-surface $-1 57.996508810985532 -148.31082651219967 119.30766556005526 1 0 0 0 0.68199836817093118 -0.7313536940579346 forward_v I I I I #
coedge $-1 $146 $147 $148 $149 reversed $57 $-1 #
face $-1 $-1 $150 $33 $-1 $151 forward single #
loop $-1 $152 $153 $59 #
cone-surface $-1 62.013894569769917 -35.246606810301515 9.0208015496174312 0 0.68199836817093118 -0.7313536940579346 0.5 0 0 1 I I -0.70710678118654746 0.70710678118654746 0.5 forward I I I I #
loop $-1 $-1 $154 $43 #
coedge $-1 $96 $96 $155 $156 reversed $60 $-1 #
face $-1 $-1 $157 $34 $-1 $158 forward single #
loop $-1 $159 $160 $62 #
cone-surface $-1 68.039973207946474 -35.246606810301515 9.0208015496174312 0 0.68199836817093118 -0.7313536940579346 0.5 0 0 1 I I -0.70710678118654746 0.70710678118654746 0.5 forward I I I I #
loop $-1 $-1 $161 $44 #
coedge $-1 $101 $101 $162 $163 reversed $63 $-1 #
face $-1 $-1 $164 $35 $-1 $165 forward single #
loop $-1 $166 $167 $65 #
cone-surface $-1 74.066051846123031 -35.246606810301515 9.0208015496174312 0 0.68199836817093118 -0.7313536940579346 0.5 0 0 1 I I -0.70710678118654746 0.70710678118654746 0.5 forward I I I I #
loop $-1 $-1 $168 $45 #
coedge $-1 $106 $106 $169 $170 reversed $66 $-1 #
face $-1 $171 $172 $36 $-1 $173 forward single #
loop $-1 $-1 $174 $68 #
plane-surface $-1 -53.590960629553578 1.120169969226481e-006 84.013223229775747 0 0.86602541151947299 0.49999998660252726 1 0 0 forward_v I I I I #
coedge $-1 $175 $176 $177 $178 reversed $69 $-1 #
face $-1 $-1 $179 $37 $-1 $180 forward single #
loop $-1 $181 $182 $71 #
cone-surface $-1 -59.253482350554364 38.904162236748952 12.386233397221496 0 -0.86602541151947299 -0.49999998660252726 0.25 0 0 1 I I -0.70710678118654746 0.70710678118654746 0.25 forward I I I I #
loop $-1 $-1 $183 $47 #
coedge $-1 $115 $115 $184 $185 reversed $72 $-1 #
face $-1 $-1 $186 $38 $-1 $187 forward single #
loop $-1 $188 $189 $74 #
cone-surface $-1 -53.590960629553578 38.904162236748952 12.386233397221496 0 -0.86602541151947299 -0.49999998660252726 0.25 0 0 1 I I -0.70710678118654746 0.70710678118654746 0.25 forward I I I I #
loop $-1 $-1 $190 $48 #
coedge $-1 $120 $120 $191 $192 reversed $75 $-1 #
face $-1 $-1 $193 $39 $-1 $194 forward single #
loop $-1 $195 $196 $77 #
cone-surface $-1 -47.928438908552792 38.904162236748952 12.386233397221496 0 -0.86602541151947299 -0.49999998660252726 0.25 0 0 1 I I -0.70710678118654746 0.70710678118654746 0.25 forward I I I I #
loop $-1 $-1 $197 $49 #
coedge $-1 $125 $125 $198 $199 reversed $78 $-1 #
face $-1 $200 $201 $30 $-1 $202 reversed single #
loop $-1 $-1 $203 $80 #
plane-surface $-1 0 -41.805272456752554 0 0 1 0 0 0 1 forward_v I I I I #
coedge $-1 $204 $205 $206 $207 forward $81 $-1 #
coedge $-1 $208 $83 $209 $210 forward $51 $-1 #
coedge $-1 $83 $208 $211 $212 forward $51 $-1 #
coedge $-1 $213 $214 $83 $133 reversed $215 $-1 #
edge $-1 $216 -41.805272456752554 $217 41.805272456752554 $132 $218 forward 7 unknown #
face $-1 $219 $220 $31 $-1 $221 reversed single #
loop $-1 $-1 $222 $84 #
plane-surface $-1 0 41.805272456752554 0 0 -1 0 0 0 -1 forward_v I I I I #
coedge $-1 $223 $224 $225 $226 reversed $85 $-1 #
coedge $-1 $227 $87 $228 $229 reversed $54 $-1 #
coedge $-1 $87 $227 $230 $231 reversed $54 $-1 #
coedge $-1 $224 $223 $87 $141 reversed $85 $-1 #
edge $-1 $232 -41.805272456752554 $233 41.805272456752554 $140 $234 forward 7 unknown #
face $-1 $235 $236 $32 $-1 $237 forward single #
loop $-1 $-1 $238 $88 #
plane-surface $-1 78.083437604907374 0 0 -1 0 0 0 0 1 forward_v I I I I #
coedge $-1 $239 $240 $241 $242 reversed $89 $-1 #
coedge $-1 $243 $91 $238 $244 reversed $57 $-1 #
coedge $-1 $91 $243 $239 $245 forward $57 $-1 #
coedge $-1 $241 $246 $91 $149 forward $236 $-1 #
edge $-1 $247 -44.063451000934137 $248 -23.976522207012309 $148 $249 forward 7 unknown #
loop $-1 $-1 $155 $92 #
plane-surface $-1 68.039973207946446 -41.805272456752562 5.0944444858727422 0 -0.68199836817093118 0.7313536940579346 1 0 0 forward_v I I I I #
loop $-1 $-1 $250 $59 #
coedge $-1 $153 $153 $154 $251 reversed $93 $-1 #
coedge $-1 $154 $154 $153 $251 forward $95 $-1 #
coedge $-1 $155 $155 $96 $156 forward $150 $-1 #
edge $-1 $252 6.4080530116020455e-015 $252 6.2831853071796067 $155 $253 forward 7 unknown #
loop $-1 $-1 $162 $97 #
plane-surface $-1 68.039973207946446 -41.805272456752562 5.0944444858727422 0 -0.68199836817093118 0.7313536940579346 1 0 0 forward_v I I I I #
loop $-1 $-1 $254 $62 #
coedge $-1 $160 $160 $161 $255 reversed $98 $-1 #
coedge $-1 $161 $161 $160 $255 forward $100 $-1 #
coedge $-1 $162 $162 $101 $163 forward $157 $-1 #
edge $-1 $256 6.4080530116020455e-015 $256 6.2831853071796067 $162 $257 forward 7 unknown #
loop $-1 $-1 $169 $102 #
plane-surface $-1 68.039973207946446 -41.805272456752562 5.0944444858727422 0 -0.68199836817093118 0.7313536940579346 1 0 0 forward_v I I I I #
loop $-1 $-1 $258 $65 #
coedge $-1 $167 $167 $168 $259 reversed $103 $-1 #
coedge $-1 $168 $168 $167 $259 forward $105 $-1 #
coedge $-1 $169 $169 $106 $170 forward $164 $-1 #
edge $-1 $260 6.4080530116020455e-015 $260 6.2831853071796067 $169 $261 forward 7 unknown #
face $-1 $262 $263 $36 $-1 $264 forward single #
loop $-1 $-1 $265 $107 #
plane-surface $-1 -63.02849683122156 0 12.997724769426402 -1 0 0 0 0 1 forward_v I I I I #
coedge $-1 $266 $267 $268 $269 reversed $108 $-1 #
coedge $-1 $176 $110 $270 $271 reversed $69 $-1 #
coedge $-1 $110 $175 $266 $272 reversed $69 $-1 #
coedge $-1 $268 $273 $110 $178 forward $274 $-1 #
edge $-1 $275 65.758727481462159 $276 69.443962707530773 $177 $277 forward 7 unknown #
loop $-1 $-1 $184 $111 #
plane-surface $-1 -53.590960629553578 1.120169969226481e-006 84.013223229775747 0 0.86602541151947299 0.49999998660252726 1 0 0 forward_v I I I I #
loop $-1 $-1 $278 $71 #
coedge $-1 $182 $182 $183 $279 reversed $112 $-1 #
coedge $-1 $183 $183 $182 $279 forward $114 $-1 #
coedge $-1 $184 $184 $115 $185 forward $179 $-1 #
edge $-1 $280 3.8077860632933375e-015 $280 6.283185307179604 $184 $281 forward 7 unknown #
loop $-1 $-1 $191 $116 #
plane-surface $-1 -53.590960629553578 1.120169969226481e-006 84.013223229775747 0 0.86602541151947299 0.49999998660252726 1 0 0 forward_v I I I I #
loop $-1 $-1 $282 $74 #
coedge $-1 $189 $189 $190 $283 reversed $117 $-1 #
coedge $-1 $190 $190 $189 $283 forward $119 $-1 #
coedge $-1 $191 $191 $120 $192 forward $186 $-1 #
edge $-1 $284 3.8077860632933375e-015 $284 6.283185307179604 $191 $285 forward 7 unknown #
loop $-1 $-1 $198 $121 #
plane-surface $-1 -53.590960629553578 1.120169969226481e-006 84.013223229775747 0 0.86602541151947299 0.49999998660252726 1 0 0 forward_v I I I I #
loop $-1 $-1 $286 $77 #
coedge $-1 $196 $196 $197 $287 reversed $122 $-1 #
coedge $-1 $197 $197 $196 $287 forward $124 $-1 #
coedge $-1 $198 $198 $125 $199 forward $193 $-1 #
edge $-1 $288 3.8077860632933375e-015 $288 6.283185307179604 $198 $289 forward 7 unknown #
face $-1 $290 $291 $30 $-1 $292 reversed single #
loop $-1 $-1 $293 $126 #
plane-surface $-1 -78.083437604907374 0 0 1 0 0 0 0 -1 forward_v I I I I #
coedge $-1 $294 $211 $295 $296 forward $127 $-1 #
coedge $-1 $297 $129 $294 $298 forward $81 $-1 #
coedge $-1 $129 $297 $299 $300 forward $81 $-1 #
coedge $-1 $214 $213 $129 $207 reversed $215 $-1 #
edge $-1 $301 -41.805272456752554 $302 41.805272456752554 $206 $303 forward 7 unknown #
coedge $-1 $131 $130 $304 $305 forward $51 $-1 #
coedge $-1 $306 $307 $130 $210 reversed $291 $-1 #
edge $-1 $217 -78.083437604907374 $308 78.083437604907374 $209 $309 forward 7 unknown #
coedge $-1 $203 $310 $131 $212 reversed $127 $-1 #
edge $-1 $311 -78.083437604907374 $216 78.083437604907374 $211 $312 forward 7 unknown #
coedge $-1 $206 $132 $310 $313 forward $215 $-1 #
coedge $-1 $132 $206 $306 $314 reversed $215 $-1 #
loop $-1 $-1 $213 $290 #
vertex $-1 $133 $315 #
vertex $-1 $133 $316 #
straight-curve $-1 78.083437604907374 0 15.289601889758679 0 1 0 I I #
face $-1 $317 $318 $31 $-1 $319 forward single #
loop $-1 $-1 $320 $134 #
plane-surface $-1 -78.083437604907374 0 0 1 0 0 0 0 -1 forward_v I I I I #
coedge $-1 $230 $321 $224 $322 forward $135 $-1 #
coedge $-1 $140 $137 $323 $324 reversed $85 $-1 #
coedge $-1 $137 $140 $222 $322 reversed $85 $-1 #
coedge $-1 $325 $326 $137 $226 forward $318 $-1 #
edge $-1 $327 -41.805272456752554 $328 41.805272456752554 $225 $329 forward 7 unknown #
coedge $-1 $139 $138 $320 $330 reversed $54 $-1 #
coedge $-1 $323 $331 $138 $229 forward $332 $-1 #
edge $-1 $333 -42.805453995875141 $233 -27.750513222189326 $228 $334 forward 7 unknown #
coedge $-1 $335 $222 $139 $231 forward $135 $-1 #
edge $-1 $232 27.750513222189326 $336 42.805453995875141 $230 $337 forward 7 unknown #
vertex $-1 $231 $338 #
vertex $-1 $229 $339 #
straight-curve $-1 -63.02849683122156 0 10.705847649094125 0 -1 0 I I #
face $-1 $-1 $340 $32 $-1 $341 reversed single #
loop $-1 $-1 $148 $142 #
plane-surface $-1 0 0 15.289601889758679 0 0 1 1 0 0 forward_v I I I I #
coedge $-1 $342 $343 $146 $244 forward $143 $-1 #
coedge $-1 $240 $145 $147 $245 reversed $89 $-1 #
coedge $-1 $145 $239 $344 $345 reversed $89 $-1 #
coedge $-1 $346 $148 $145 $242 forward $236 $-1 #
edge $-1 $248 -43.283108350033984 $347 -32.35014079934728 $241 $348 forward 7 unknown #
coedge $-1 $147 $146 $349 $350 reversed $57 $-1 #
edge $-1 $351 -13.550018808120893 $247 1.3989281097853492 $238 $352 forward 7 unknown #
edge $-1 $353 9.4367341760026555e-015 $248 14.948946917906252 $239 $354 forward 7 unknown #
coedge $-1 $148 $346 $342 $355 forward $236 $-1 #
vertex $-1 $149 $356 #
vertex $-1 $149 $357 #
straight-curve $-1 34.019986603973223 -30.87230490606585 15.289601889758679 -1 0 0 I I #
coedge $-1 $250 $250 $-1 $358 reversed $152 $-1 #
edge $-1 $359 0 $359 6.2831853071796004 $153 $360 forward 7 unknown #
vertex $-1 $156 $361 #
ellipse-curve $-1 62.013894569769917 -36.338788681409206 10.192023187815712 0 -0.68199836817093118 0.7313536940579346 1 0 0 1 I I #
coedge $-1 $254 $254 $-1 $362 reversed $159 $-1 #
edge $-1 $363 0 $363 6.2831853071796004 $160 $364 forward 7 unknown #
vertex $-1 $163 $365 #
ellipse-curve $-1 68.039973207946474 -36.338788681409206 10.192023187815712 0 -0.68199836817093118 0.7313536940579346 1 0 0 1 I I #
coedge $-1 $258 $258 $-1 $366 reversed $166 $-1 #
edge $-1 $367 0 $367 6.2831853071796004 $167 $368 forward 7 unknown #
vertex $-1 $170 $369 #
ellipse-curve $-1 74.066051846123031 -36.338788681409206 10.192023187815712 0 -0.68199836817093118 0.7313536940579346 1 0 0 1 I I #
face $-1 $-1 $274 $36 $-1 $370 reversed single #
loop $-1 $-1 $371 $171 #
plane-surface $-1 0 0 15.289601889758679 0 0 1 1 0 0 forward_v I I I I #
coedge $-1 $372 $373 $267 $374 forward $172 $-1 #
coedge $-1 $375 $174 $176 $272 forward $108 $-1 #
coedge $-1 $174 $375 $265 $374 reversed $108 $-1 #
coedge $-1 $376 $177 $174 $269 forward $274 $-1 #
edge $-1 $276 17.357944113108807 $377 36.233016516444771 $268 $378 forward 7 unknown #
coedge $-1 $379 $371 $175 $271 forward $263 $-1 #
edge $-1 $380 -27.944640761760787 $275 -25.816969287977436 $270 $381 forward 7 unknown #
edge $-1 $276 -83.610544913505166 $380 -79.355201851916775 $176 $382 forward 7 unknown #
coedge $-1 $177 $376 $379 $383 reversed $274 $-1 #
loop $-1 $-1 $268 $262 #
vertex $-1 $383 $384 #
vertex $-1 $178 $385 #
straight-curve $-1 -44.153424427885597 41.805272456752554 81.048329371220831 0 0 -1 I I #
coedge $-1 $278 $278 $-1 $386 reversed $181 $-1 #
edge $-1 $387 0 $387 6.2831853071796004 $182 $388 forward 7 unknown #
vertex $-1 $185 $389 #
ellipse-curve $-1 -59.253482350554364 40.741436719860864 13.446984276724375 0 0.86602541151947299 0.49999998660252726 0.5 0 0 1 I I #
coedge $-1 $282 $282 $-1 $390 reversed $188 $-1 #
edge $-1 $391 0 $391 6.2831853071796004 $189 $392 forward 7 unknown #
vertex $-1 $192 $393 #
ellipse-curve $-1 -53.590960629553578 40.741436719860864 13.446984276724375 0 0.86602541151947299 0.49999998660252726 0.5 0 0 1 I I #
coedge $-1 $286 $286 $-1 $394 reversed $195 $-1 #
edge $-1 $395 0 $395 6.2831853071796004 $196 $396 forward 7 unknown #
vertex $-1 $199 $397 #
ellipse-curve $-1 -47.928438908552792 40.741436719860864 13.446984276724375 0 0.86602541151947299 0.49999998660252726 0.5 0 0 1 I I #
face $-1 $-1 $215 $30 $-1 $398 reversed single #
loop $-1 $-1 $306 $200 #
plane-surface $-1 0 41.805272456752554 0 0 -1 0 0 0 -1 forward_v I I I I #
coedge $-1 $399 $304 $307 $400 forward $201 $-1 #
coedge $-1 $310 $203 $204 $298 reversed $127 $-1 #
coedge $-1 $304 $399 $203 $296 reversed $201 $-1 #
edge $-1 $311 -15.289601889758679 $401 15.289601889758679 $295 $402 forward 7 unknown #
coedge $-1 $205 $204 $399 $403 forward $81 $-1 #
edge $-1 $302 -78.083437604907374 $401 78.083437604907374 $294 $404 forward 7 unknown #
coedge $-1 $307 $306 $205 $300 reversed $291 $-1 #
edge $-1 $405 -78.083437604907374 $301 78.083437604907374 $299 $406 forward 7 unknown #
vertex $-1 $207 $407 #
vertex $-1 $313 $408 #
straight-curve $-1 78.083437604907374 0 -15.289601889758679 0 -1 0 I I #
coedge $-1 $293 $295 $208 $305 reversed $201 $-1 #
edge $-1 $308 -41.805272456752554 $311 41.805272456752554 $304 $409 forward 7 unknown #
coedge $-1 $299 $209 $214 $314 forward $291 $-1 #
coedge $-1 $209 $299 $293 $400 reversed $291 $-1 #
vertex $-1 $210 $410 #
straight-curve $-1 0 41.805272456752554 15.289601889758679 -1 0 0 I I #
coedge $-1 $211 $294 $213 $313 reversed $127 $-1 #
vertex $-1 $305 $411 #
straight-curve $-1 0 -41.805272456752554 15.289601889758679 1 0 0 I I #
edge $-1 $216 -15.289601889758679 $302 15.289601889758679 $213 $412 forward 7 unknown #
edge $-1 $217 -15.289601889758679 $301 15.289601889758679 $214 $413 forward 7 unknown #
point $-1 78.083437604907374 -41.805272456752554 15.289601889758679 #
point $-1 78.083437604907374 41.805272456752554 15.289601889758679 #
face $-1 $-1 $332 $31 $-1 $414 reversed single #
loop $-1 $-1 $225 $219 #
plane-surface $-1 0 0 15.289601889758679 0 0 1 1 0 0 forward_v I I I I #
coedge $-1 $415 $416 $227 $330 forward $220 $-1 #
coedge $-1 $222 $335 $325 $417 reversed $135 $-1 #
edge $-1 $328 -8.7907395050454777 $232 -4.2069852643809238 $222 $418 forward 7 unknown #
coedge $-1 $419 $228 $223 $324 forward $332 $-1 #
edge $-1 $233 4.2069852643809238 $327 8.7907395050454777 $323 $420 forward 7 unknown #
coedge $-1 $421 $225 $321 $417 forward $318 $-1 #
coedge $-1 $225 $421 $419 $422 forward $318 $-1 #
vertex $-1 $324 $423 #
vertex $-1 $417 $424 #
straight-curve $-1 -63.02849683122156 0 15.289601889758679 0 1 0 I I #
edge $-1 $336 -41.805272456752554 $333 41.805272456752554 $320 $425 forward 7 unknown #
coedge $-1 $228 $419 $415 $426 forward $332 $-1 #
loop $-1 $-1 $323 $317 #
vertex $-1 $330 $427 #
straight-curve $-1 -35.277983609032233 -41.805272456752554 10.705847649094125 1 0 0 I I #
coedge $-1 $321 $230 $416 $428 reversed $135 $-1 #
vertex $-1 $330 $429 #
straight-curve $-1 -35.277983609032233 41.805272456752554 10.705847649094125 -1 0 0 I I #
point $-1 -63.02849683122156 41.805272456752554 10.705847649094125 #
point $-1 -63.02849683122156 -41.805272456752554 10.705847649094125 #
loop $-1 $-1 $349 $235 #
plane-surface $-1 0 -41.805272456752554 0 0 1 0 0 0 1 forward_v I I I I #
coedge $-1 $343 $238 $246 $355 reversed $143 $-1 #
coedge $-1 $238 $342 $430 $431 forward $143 $-1 #
coedge $-1 $349 $432 $240 $345 forward $340 $-1 #
edge $-1 $347 44.364230890268949 $353 54.559388294154878 $344 $433 forward 7 unknown #
coedge $-1 $246 $241 $432 $434 forward $236 $-1 #
vertex $-1 $434 $435 #
straight-curve $-1 57.996508810985532 -74.155413256099834 15.289601889758679 0 -1 0 I I #
coedge $-1 $430 $344 $243 $350 forward $340 $-1 #
edge $-1 $353 23.976522207012309 $351 44.063451000934137 $349 $436 forward 7 unknown #
vertex $-1 $350 $437 #
straight-curve $-1 78.083437604907374 -31.895416146878848 14.335535201696624 0 0.7313536940579346 0.68199836817093118 I I #
vertex $-1 $350 $438 #
straight-curve $-1 57.996508810985532 -41.805272456752562 5.0944444858727422 0 0.7313536940579346 0.68199836817093118 I I #
edge $-1 $439 -41.805272456752554 $247 -30.87230490606585 $342 $440 forward 7 unknown #
point $-1 78.08343760490736 -30.87230490606585 15.289601889758679 #
point $-1 57.996508810985532 -30.87230490606585 15.289601889758679 #
edge $-1 $441 1 $441 0 $250 $-1 forward 7 unknown #
vertex $-1 $251 $442 #
ellipse-curve $-1 62.013894569769917 -35.587605994386983 9.3864783966463978 0 -0.68199836817093118 0.7313536940579346 1 0 0 1 I I #
point $-1 63.013894569769917 -36.338788681409198 10.192023187815714 #
edge $-1 $443 1 $443 0 $254 $-1 forward 7 unknown #
vertex $-1 $255 $444 #
ellipse-curve $-1 68.039973207946474 -35.587605994386983 9.3864783966463978 0 -0.68199836817093118 0.7313536940579346 1 0 0 1 I I #
point $-1 69.039973207946474 -36.338788681409198 10.192023187815714 #
edge $-1 $445 1 $445 0 $258 $-1 forward 7 unknown #
vertex $-1 $259 $446 #
ellipse-curve $-1 74.066051846123031 -35.587605994386983 9.3864783966463978 0 -0.68199836817093118 0.7313536940579346 1 0 0 1 I I #
point $-1 75.066051846123031 -36.338788681409198 10.192023187815714 #
plane-surface $-1 0 41.805272456752554 0 0 -1 0 0 0 -1 forward_v I I I I #
coedge $-1 $270 $447 $375 $448 forward $263 $-1 #
coedge $-1 $373 $265 $447 $449 reversed $172 $-1 #
coedge $-1 $265 $372 $376 $450 reversed $172 $-1 #
edge $-1 $377 -52.859932054355369 $451 -48.604588992766992 $265 $452 forward 7 unknown #
coedge $-1 $267 $266 $371 $448 reversed $108 $-1 #
coedge $-1 $273 $268 $373 $450 forward $274 $-1 #
vertex $-1 $450 $453 #
straight-curve $-1 -26.795480314776789 41.805272456752554 11.604366663690051 -1 0 0 I I #
coedge $-1 $447 $270 $273 $383 forward $263 $-1 #
vertex $-1 $271 $454 #
straight-curve $-1 -44.153424427885597 67.62224174472999 15.289601889758671 0 1 0 I I #
straight-curve $-1 -44.153424427885597 1.120169969226481e-006 84.013223229775747 0 -0.49999998660252726 0.86602541151947299 I I #
edge $-1 $275 44.153424427885597 $455 63.02849683122156 $273 $456 forward 7 unknown #
point $-1 -44.153424427885597 41.805272456752554 15.289601889758679 #
point $-1 -44.153424427885597 41.805272456752554 11.604366663690058 #
edge $-1 $457 1 $457 0 $278 $-1 forward 7 unknown #
vertex $-1 $279 $458 #
ellipse-curve $-1 -59.253482350554364 39.120668589628821 12.511233393872127 0 0.86602541151947299 0.49999998660252726 0.5 0 0 1 I I #
point $-1 -58.753482350554364 40.741436719860893 13.44698427672439 #
edge $-1 $459 1 $459 0 $282 $-1 forward 7 unknown #
vertex $-1 $283 $460 #
ellipse-curve $-1 -53.590960629553578 39.120668589628821 12.511233393872127 0 0.86602541151947299 0.49999998660252726 0.5 0 0 1 I I #
point $-1 -53.090960629553578 40.741436719860893 13.44698427672439 #
edge $-1 $461 1 $461 0 $286 $-1 forward 7 unknown #
vertex $-1 $287 $462 #
ellipse-curve $-1 -47.928438908552792 39.120668589628821 12.511233393872127 0 0.86602541151947299 0.49999998660252726 0.5 0 0 1 I I #
point $-1 -47.428438908552792 40.741436719860893 13.44698427672439 #
plane-surface $-1 78.083437604907374 0 0 -1 0 0 0 0 1 forward_v I I I I #
coedge $-1 $295 $293 $297 $403 reversed $201 $-1 #
edge $-1 $308 -15.289601889758679 $405 15.289601889758679 $307 $463 forward 7 unknown #
vertex $-1 $403 $464 #
straight-curve $-1 -78.083437604907374 -41.805272456752554 0 0 0 -1 I I #
edge $-1 $401 -41.805272456752554 $405 41.805272456752554 $399 $465 forward 7 unknown #
straight-curve $-1 0 -41.805272456752554 -15.289601889758679 -1 0 0 I I #
vertex $-1 $300 $466 #
straight-curve $-1 0 41.805272456752554 -15.289601889758679 1 0 0 I I #
point $-1 78.083437604907374 41.805272456752554 -15.289601889758679 #
point $-1 78.083437604907374 -41.805272456752554 -15.289601889758679 #
straight-curve $-1 -78.083437604907374 0 15.289601889758679 0 -1 0 I I #
point $-1 -78.083437604907374 41.805272456752554 15.289601889758679 #
point $-1 -78.083437604907374 -41.805272456752554 15.289601889758679 #
straight-curve $-1 78.083437604907374 -41.805272456752554 0 0 0 -1 I I #
straight-curve $-1 78.083437604907374 41.805272456752554 0 0 0 -1 I I #
plane-surface $-1 0 -41.805272456752554 0 0 1 0 0 0 1 forward_v I I I I #
coedge $-1 $467 $320 $331 $426 reversed $220 $-1 #
coedge $-1 $320 $467 $335 $428 forward $220 $-1 #
edge $-1 $328 63.02849683122156 $468 78.083437604907374 $321 $469 forward 7 unknown #
straight-curve $-1 -63.02849683122156 41.805272456752554 6.4988623847132008 0 0 -1 I I #
coedge $-1 $331 $323 $326 $422 reversed $332 $-1 #
straight-curve $-1 -63.02849683122156 -41.805272456752554 6.4988623847132008 0 0 1 I I #
coedge $-1 $326 $325 $467 $470 forward $318 $-1 #
edge $-1 $471 -78.083437604907374 $327 -63.02849683122156 $419 $472 forward 7 unknown #
point $-1 -63.02849683122156 -41.805272456752554 15.289601889758679 #
point $-1 -63.02849683122156 41.805272456752554 15.289601889758679 #
straight-curve $-1 -78.083437604907374 0 10.705847649094125 0 -1 0 I I #
edge $-1 $471 -15.289601889758679 $333 -10.705847649094125 $415 $473 forward 7 unknown #
point $-1 -78.083437604907374 -41.805272456752554 10.705847649094125 #
edge $-1 $468 -15.289601889758679 $336 -10.705847649094125 $335 $474 forward 7 unknown #
point $-1 -78.083437604907374 41.805272456752554 10.705847649094125 #
coedge $-1 $432 $349 $343 $431 reversed $340 $-1 #
edge $-1 $439 -15.289601889758679 $351 -5.0944444858727485 $343 $475 forward 7 unknown #
coedge $-1 $344 $430 $346 $434 reversed $340 $-1 #
straight-curve $-1 57.996508810985532 -41.805272456752554 59.653832780027628 0 0 -1 I I #
edge $-1 $347 57.996508810985532 $439 78.083437604907374 $432 $476 forward 7 unknown #
point $-1 57.996508810985532 -41.805272456752554 15.289601889758679 #
straight-curve $-1 34.019986603973223 -41.805272456752554 5.0944444858727502 1 0 0 I I #
point $-1 78.08343760490736 -41.805272456752554 5.0944444858727485 #
point $-1 57.996508810985532 -41.805272456752554 5.0944444858727485 #
vertex $-1 $355 $477 #
straight-curve $-1 78.083437604907374 0 15.289601889758679 0 1 0 I I #
vertex $-1 $358 $478 #
point $-1 63.013894569769917 -35.587605994386983 9.3864783966463978 #
vertex $-1 $362 $479 #
point $-1 69.039973207946474 -35.587605994386983 9.3864783966463978 #
vertex $-1 $366 $480 #
point $-1 75.066051846123031 -35.587605994386983 9.3864783966463978 #
coedge $-1 $371 $379 $372 $449 forward $263 $-1 #
edge $-1 $451 -36.233016516444771 $380 -17.357944113108807 $371 $481 forward 7 unknown #
edge $-1 $455 -41.805272456752554 $451 -39.677600982969203 $447 $482 forward 7 unknown #
edge $-1 $377 5.1055042789768574 $455 8.7907395050454777 $376 $483 forward 7 unknown #
vertex $-1 $448 $484 #
straight-curve $-1 -63.02849683122156 15.375307137764365 57.38241107395455 0 -0.49999998660252726 0.86602541151947299 I I #
point $-1 -63.02849683122156 41.805272456752554 11.604366663690058 #
point $-1 -44.153424427885597 39.677600982969203 15.289601889758671 #
vertex $-1 $449 $485 #
straight-curve $-1 0 41.805272456752554 15.289601889758679 -1 0 0 I I #
vertex $-1 $386 $486 #
point $-1 -58.753482350554364 39.120668589628821 12.511233393872127 #
vertex $-1 $390 $487 #
point $-1 -53.090960629553578 39.120668589628821 12.511233393872127 #
vertex $-1 $394 $488 #
point $-1 -47.428438908552792 39.120668589628821 12.511233393872127 #
straight-curve $-1 -78.083437604907374 41.805272456752554 0 0 0 -1 I I #
point $-1 -78.083437604907374 -41.805272456752554 -15.289601889758679 #
straight-curve $-1 -78.083437604907374 0 -15.289601889758679 0 1 0 I I #
point $-1 -78.083437604907374 41.805272456752554 -15.289601889758679 #
coedge $-1 $416 $415 $421 $470 reversed $220 $-1 #
vertex $-1 $417 $489 #
straight-curve $-1 0 41.805272456752554 15.289601889758679 -1 0 0 I I #
edge $-1 $468 -41.805272456752554 $471 41.805272456752554 $467 $490 forward 7 unknown #
vertex $-1 $470 $491 #
straight-curve $-1 0 -41.805272456752554 15.289601889758679 1 0 0 I I #
straight-curve $-1 -78.083437604907374 -41.805272456752554 0 0 0 -1 I I #
straight-curve $-1 -78.083437604907374 41.805272456752554 0 0 0 -1 I I #
straight-curve $-1 78.083437604907374 -41.805272456752554 0 0 0 -1 I I #
straight-curve $-1 0 -41.805272456752554 15.289601889758679 1 0 0 I I #
point $-1 78.083437604907374 -41.805272456752554 15.289601889758679 #
point $-1 62.013894569769917 -34.905607626216046 8.6551247025884646 #
point $-1 68.039973207946474 -34.905607626216046 8.6551247025884646 #
point $-1 74.066051846123031 -34.905607626216046 8.6551247025884646 #
straight-curve $-1 -26.795480314776789 39.677600982969196 15.289601889758679 1 0 0 I I #
straight-curve $-1 -63.02849683122156 0 15.289601889758679 0 -1 0 I I #
straight-curve $-1 -63.02849683122156 41.805272456752554 6.4988623847132008 0 0 1 I I #
point $-1 -63.02849683122156 39.677600982969203 15.289601889758671 #
point $-1 -63.02849683122156 41.805272456752554 15.289601889758679 #
point $-1 -59.253482350554364 38.687655883869084 12.261233400570864 #
point $-1 -53.590960629553578 38.687655883869084 12.261233400570864 #
point $-1 -47.928438908552792 38.687655883869084 12.261233400570864 #
point $-1 -78.083437604907374 41.805272456752554 15.289601889758679 #
straight-curve $-1 -78.083437604907374 0 15.289601889758679 0 -1 0 I I #
point $-1 -78.083437604907374 -41.805272456752554 15.289601889758679 #
End-of-ACIS-data 