500 0 14 0           
7 Unknown 11 ACIS 5.0 NT 24 Fri Mar 26 02:21:22 1999 
-1 9.9999999999999995e-007 1e-010 
body $-1 $14 $-1 $15 #
body $-1 $16 $-1 $17 #
body $-1 $18 $-1 $19 #
body $-1 $20 $-1 $21 #
body $-1 $22 $-1 $23 #
body $-1 $24 $-1 $25 #
body $-1 $26 $-1 $27 #
body $-1 $28 $-1 $29 #
body $-1 $30 $-1 $31 #
body $-1 $32 $-1 $33 #
body $-1 $34 $-1 $35 #
body $-1 $36 $-1 $37 #
body $-1 $38 $-1 $39 #
body $-1 $40 $-1 $41 #
lump $-1 $-1 $42 $0 #
transform $-1 1 0 0 0 1 0 0 0 1 78.293404950102229 43.213696846387187 20.061062294660299 1 rotate no_reflect no_shear #
lump $-1 $-1 $43 $1 #
transform $-1 1 0 0 0 1 0 0 0 1 78.293404950102229 43.213696846387187 20.061062294660299 1 rotate no_reflect no_shear #
lump $-1 $-1 $44 $2 #
transform $-1 1 0 0 0 1 0 0 0 1 78.293404950102229 43.213696846387187 20.061062294660299 1 rotate no_reflect no_shear #
lump $-1 $-1 $45 $3 #
transform $-1 1 0 0 0 1 0 0 0 1 78.293404950102229 43.213696846387187 20.061062294660299 1 rotate no_reflect no_shear #
lump $-1 $-1 $46 $4 #
transform $-1 1 0 0 0 1 0 0 0 1 78.293404950102229 43.213696846387187 20.061062294660299 1 rotate no_reflect no_shear #
lump $-1 $-1 $47 $5 #
transform $-1 1 0 0 0 1 0 0 0 1 78.293404950102229 43.213696846387187 20.061062294660299 1 rotate no_reflect no_shear #
lump $-1 $-1 $48 $6 #
transform $-1 1 0 0 0 1 0 0 0 1 78.293404950102229 43.213696846387187 20.061062294660299 1 rotate no_reflect no_shear #
lump $-1 $-1 $49 $7 #
transform $-1 1 0 0 0 1 0 0 0 1 78.293404950102229 43.213696846387187 20.061062294660299 1 rotate no_reflect no_shear #
lump $-1 $-1 $50 $8 #
transform $-1 1 0 0 0 1 0 0 0 1 78.293404950102229 43.213696846387187 20.061062294660299 1 rotate no_reflect no_shear #
lump $-1 $-1 $51 $9 #
transform $-1 1 0 0 0 1 0 0 0 1 78.293404950102229 43.213696846387187 20.061062294660299 1 rotate no_reflect no_shear #
lump $-1 $-1 $52 $10 #
transform $-1 1 0 0 0 1 0 0 0 1 78.293404950102229 43.213696846387187 20.061062294660299 1 rotate no_reflect no_shear #
lump $-1 $-1 $53 $11 #
transform $-1 1 0 0 0 1 0 0 0 1 78.293404950102229 43.213696846387187 20.061062294660299 1 rotate no_reflect no_shear #
lump $-1 $-1 $54 $12 #
transform $-1 1 0 0 0 1 0 0 0 1 78.293404950102229 43.213696846387187 20.061062294660299 1 rotate no_reflect no_shear #
lump $-1 $-1 $55 $13 #
transform $-1 1 0 0 0 1 0 0 0 1 78.293404950102229 43.213696846387187 20.061062294660299 1 rotate no_reflect no_shear #
shell $-1 $-1 $-1 $56 $-1 $14 #
shell $-1 $-1 $-1 $57 $-1 $16 #
shell $-1 $-1 $-1 $58 $-1 $18 #
shell $-1 $-1 $-1 $59 $-1 $20 #
shell $-1 $-1 $-1 $60 $-1 $22 #
shell $-1 $-1 $-1 $61 $-1 $24 #
shell $-1 $-1 $-1 $62 $-1 $26 #
shell $-1 $-1 $-1 $63 $-1 $28 #
shell $-1 $-1 $-1 $64 $-1 $30 #
shell $-1 $-1 $-1 $65 $-1 $32 #
shell $-1 $-1 $-1 $66 $-1 $34 #
shell $-1 $-1 $-1 $67 $-1 $36 #
shell $-1 $-1 $-1 $68 $-1 $38 #
shell $-1 $-1 $-1 $69 $-1 $40 #
face $-1 $70 $71 $42 $-1 $72 forward single #
face $-1 $73 $74 $43 $-1 $75 reversed single #
face $-1 $76 $77 $44 $-1 $78 reversed single #
face $-1 $79 $80 $45 $-1 $81 forward single #
face $-1 $82 $83 $46 $-1 $84 forward single #
face $-1 $85 $86 $47 $-1 $87 reversed single #
face $-1 $88 $89 $48 $-1 $90 forward single #
face $-1 $91 $92 $49 $-1 $93 forward single #
face $-1 $94 $95 $50 $-1 $96 reversed single #
face $-1 $97 $98 $51 $-1 $99 forward single #
face $-1 $100 $101 $52 $-1 $102 forward single #
face $-1 $103 $104 $53 $-1 $105 reversed single #
face $-1 $106 $107 $54 $-1 $108 forward single #
face $-1 $109 $110 $55 $-1 $111 forward single #
face $-1 $112 $113 $42 $-1 $114 reversed single #
loop $-1 $-1 $115 $56 #
plane-surface $-1 0 0 20.061062294660299 0 0 1 1 0 0 forward_v I I I I #
face $-1 $116 $117 $43 $-1 $118 reversed single #
loop $-1 $-1 $119 $57 #
plane-surface $-1 -65.623656683724818 0 9.0382839577505152 0 0 1 1 0 0 forward_v I I I I #
face $-1 $120 $121 $44 $-1 $122 reversed single #
loop $-1 $-1 $123 $58 #
plane-surface $-1 -30.791028936189409 -173.030046884478 102.07873897266138 -1 0 0 0 -0.82903758062907751 0.55919289150049634 forward_v I I I I #
face $-1 $124 $125 $45 $-1 $126 forward single #
loop $-1 $127 $128 $59 #
cone-surface $-1 -46.621657137016555 -40.170597010339272 16.497468401268591 0 0.82903758062907751 -0.55919289150049634 1.5 0 0 1 I I 0 1 1.5 forward I I I I #
face $-1 $129 $130 $46 $-1 $131 forward single #
loop $-1 $132 $133 $60 #
cone-surface $-1 -37.123280216520271 -40.170597010339272 16.497468401268591 0 0.82903758062907751 -0.55919289150049634 1.5 0 0 1 I I 0 1 1.5 forward I I I I #
face $-1 $134 $135 $47 $-1 $136 reversed single #
loop $-1 $-1 $137 $61 #
plane-surface $-1 12.669748266377415 -173.030046884478 102.07873897266138 1 0 0 0 0.82903758062907751 -0.55919289150049634 forward_v I I I I #
face $-1 $138 $139 $48 $-1 $140 forward single #
loop $-1 $141 $142 $62 #
cone-surface $-1 19.001999546708262 -40.170597010339272 16.497468401268591 0 0.82903758062907751 -0.55919289150049634 1.5 0 0 1 I I 0 1 1.5 forward I I I I #
face $-1 $143 $144 $49 $-1 $145 forward single #
loop $-1 $146 $147 $63 #
cone-surface $-1 28.500376467204546 -40.170597010339272 16.497468401268591 0 0.82903758062907751 -0.55919289150049634 1.5 0 0 1 I I 0 1 1.5 forward I I I I #
face $-1 $148 $149 $50 $-1 $150 reversed single #
loop $-1 $-1 $151 $64 #
plane-surface $-1 -30.791028936189409 124.70046270056375 173.73029633979584 -1 0 0 0 0.82903758062907751 0.55919289150049634 forward_v I I I I #
face $-1 $152 $153 $51 $-1 $154 forward single #
loop $-1 $155 $156 $65 #
cone-surface $-1 -46.621657137016555 40.170597010339272 16.497468401268591 0 -0.82903758062907751 -0.55919289150049634 1.5 0 0 1 I I 0 1 1.5 forward I I I I #
face $-1 $157 $158 $52 $-1 $159 forward single #
loop $-1 $160 $161 $66 #
cone-surface $-1 -37.123280216520271 40.170597010339272 16.497468401268591 0 -0.82903758062907751 -0.55919289150049634 1.5 0 0 1 I I 0 1 1.5 forward I I I I #
face $-1 $162 $163 $53 $-1 $164 reversed single #
loop $-1 $-1 $165 $67 #
plane-surface $-1 12.669748266377415 124.70046270056375 173.73029633979584 1 0 0 0 -0.82903758062907751 -0.55919289150049634 forward_v I I I I #
face $-1 $166 $167 $54 $-1 $168 forward single #
loop $-1 $169 $170 $68 #
cone-surface $-1 19.001999546708262 40.170597010339272 16.497468401268591 0 -0.82903758062907751 -0.55919289150049634 1.5 0 0 1 I I 0 1 1.5 forward I I I I #
face $-1 $171 $172 $55 $-1 $173 forward single #
loop $-1 $174 $175 $69 #
cone-surface $-1 28.500376467204546 40.170597010339272 16.497468401268591 0 -0.82903758062907751 -0.55919289150049634 1.5 0 0 1 I I 0 1 1.5 forward I I I I #
face $-1 $176 $177 $42 $-1 $178 reversed single #
loop $-1 $-1 $179 $70 #
plane-surface $-1 0 0 -20.061062294660299 0 0 1 1 0 0 forward_v I I I I #
coedge $-1 $180 $181 $182 $183 forward $71 $-1 #
face $-1 $184 $185 $43 $-1 $186 reversed single #
loop $-1 $-1 $187 $73 #
plane-surface $-1 -52.953908417347407 0 14.549673126205409 -1 0 0 0 0 1 forward_v I I I I #
coedge $-1 $188 $189 $190 $191 forward $74 $-1 #
face $-1 $192 $193 $44 $-1 $194 forward single #
loop $-1 $-1 $195 $76 #
plane-surface $-1 -41.872468676768406 -43.213696846387222 14.516507973727514 0 -0.82903758062907751 0.55919289150049634 1 0 0 forward_v I I I I #
coedge $-1 $196 $197 $198 $199 reversed $77 $-1 #
face $-1 $-1 $200 $45 $-1 $201 forward single #
loop $-1 $202 $203 $79 #
cone-surface $-1 -46.621657137016555 -38.375643486362428 15.286756999717912 0 0.82903758062907751 -0.55919289150049634 0.75 0 0 1 I I -0.70710678118654835 0.70710678118654668 0.75 forward I I I I #
loop $-1 $-1 $204 $59 #
coedge $-1 $128 $128 $205 $206 reversed $80 $-1 #
face $-1 $-1 $207 $46 $-1 $208 forward single #
loop $-1 $209 $210 $82 #
cone-surface $-1 -37.123280216520271 -38.375643486362428 15.286756999717912 0 0.82903758062907751 -0.55919289150049634 0.75 0 0 1 I I -0.70710678118654835 0.70710678118654668 0.75 forward I I I I #
loop $-1 $-1 $211 $60 #
coedge $-1 $133 $133 $212 $213 reversed $83 $-1 #
face $-1 $214 $215 $47 $-1 $216 reversed single #
loop $-1 $-1 $217 $85 #
plane-surface $-1 23.751188006956411 -43.213696846387222 14.516507973727514 0 -0.82903758062907751 0.55919289150049634 1 0 0 forward_v I I I I #
coedge $-1 $218 $219 $220 $221 reversed $86 $-1 #
face $-1 $-1 $222 $48 $-1 $223 forward single #
loop $-1 $224 $225 $88 #
cone-surface $-1 19.001999546708262 -38.375643486362428 15.286756999717912 0 0.82903758062907751 -0.55919289150049634 0.75 0 0 1 I I -0.70710678118654835 0.70710678118654668 0.75 forward I I I I #
loop $-1 $-1 $226 $62 #
coedge $-1 $142 $142 $227 $228 reversed $89 $-1 #
face $-1 $-1 $229 $49 $-1 $230 forward single #
loop $-1 $231 $232 $91 #
cone-surface $-1 28.500376467204546 -38.375643486362428 15.286756999717912 0 0.82903758062907751 -0.55919289150049634 0.75 0 0 1 I I -0.70710678118654835 0.70710678118654668 0.75 forward I I I I #
loop $-1 $-1 $233 $63 #
coedge $-1 $147 $147 $234 $235 reversed $92 $-1 #
face $-1 $236 $237 $50 $-1 $238 forward single #
loop $-1 $-1 $239 $94 #
plane-surface $-1 -41.872468676768406 -5.1158873375270275 86.168065340861972 0 0.82903758062907751 0.55919289150049634 1 0 0 forward_v I I I I #
coedge $-1 $240 $241 $242 $243 reversed $95 $-1 #
face $-1 $-1 $244 $51 $-1 $245 forward single #
loop $-1 $246 $247 $97 #
cone-surface $-1 -46.621657137016555 38.375643486362428 15.286756999717912 0 -0.82903758062907751 -0.55919289150049634 0.75 0 0 1 I I -0.70710678118654835 0.70710678118654668 0.75 forward I I I I #
loop $-1 $-1 $248 $65 #
coedge $-1 $156 $156 $249 $250 reversed $98 $-1 #
face $-1 $-1 $251 $52 $-1 $252 forward single #
loop $-1 $253 $254 $100 #
cone-surface $-1 -37.123280216520271 38.375643486362428 15.286756999717912 0 -0.82903758062907751 -0.55919289150049634 0.75 0 0 1 I I -0.70710678118654835 0.70710678118654668 0.75 forward I I I I #
loop $-1 $-1 $255 $66 #
coedge $-1 $161 $161 $256 $257 reversed $101 $-1 #
face $-1 $258 $259 $53 $-1 $260 reversed single #
loop $-1 $-1 $261 $103 #
plane-surface $-1 23.751188006956411 -5.1158873375270275 86.168065340861972 0 0.82903758062907751 0.55919289150049634 1 0 0 forward_v I I I I #
coedge $-1 $262 $263 $264 $265 reversed $104 $-1 #
face $-1 $-1 $266 $54 $-1 $267 forward single #
loop $-1 $268 $269 $106 #
cone-surface $-1 19.001999546708262 38.375643486362428 15.286756999717912 0 -0.82903758062907751 -0.55919289150049634 0.75 0 0 1 I I -0.70710678118654835 0.70710678118654668 0.75 forward I I I I #
loop $-1 $-1 $270 $68 #
coedge $-1 $170 $170 $271 $272 reversed $107 $-1 #
face $-1 $-1 $273 $55 $-1 $274 forward single #
loop $-1 $275 $276 $109 #
cone-surface $-1 28.500376467204546 38.375643486362428 15.286756999717912 0 -0.82903758062907751 -0.55919289150049634 0.75 0 0 1 I I -0.70710678118654835 0.70710678118654668 0.75 forward I I I I #
loop $-1 $-1 $277 $69 #
coedge $-1 $175 $175 $278 $279 reversed $110 $-1 #
face $-1 $280 $281 $42 $-1 $282 reversed single #
loop $-1 $-1 $283 $112 #
plane-surface $-1 0 -43.213696846387187 0 0 1 0 0 0 1 forward_v I I I I #
coedge $-1 $284 $285 $286 $287 forward $113 $-1 #
coedge $-1 $288 $115 $289 $290 forward $71 $-1 #
coedge $-1 $115 $288 $291 $292 forward $71 $-1 #
coedge $-1 $293 $294 $115 $183 reversed $295 $-1 #
edge $-1 $296 -43.213696846387187 $297 43.213696846387187 $182 $298 forward 7 unknown #
face $-1 $299 $300 $43 $-1 $301 reversed single #
loop $-1 $-1 $302 $116 #
plane-surface $-1 0 43.213696846387187 0 0 -1 0 0 0 -1 forward_v I I I I #
coedge $-1 $303 $304 $305 $306 reversed $117 $-1 #
coedge $-1 $307 $119 $308 $309 reversed $74 $-1 #
coedge $-1 $119 $307 $310 $311 reversed $74 $-1 #
coedge $-1 $304 $303 $119 $191 reversed $117 $-1 #
edge $-1 $312 -43.213696846387187 $313 43.213696846387187 $190 $314 forward 7 unknown #
face $-1 $315 $316 $44 $-1 $317 reversed single #
loop $-1 $-1 $318 $120 #
plane-surface $-1 -52.953908417347407 0 14.549673126205409 -1 0 0 0 0 1 forward_v I I I I #
coedge $-1 $319 $320 $321 $322 reversed $121 $-1 #
coedge $-1 $197 $123 $323 $324 reversed $77 $-1 #
coedge $-1 $123 $196 $319 $325 reversed $77 $-1 #
coedge $-1 $321 $326 $123 $199 forward $327 $-1 #
edge $-1 $328 43.301326595851812 $329 47.041175590937527 $198 $330 forward 7 unknown #
loop $-1 $-1 $205 $124 #
plane-surface $-1 -41.872468676768406 -43.213696846387222 14.516507973727514 0 -0.82903758062907751 0.55919289150049634 1 0 0 forward_v I I I I #
loop $-1 $-1 $331 $79 #
coedge $-1 $203 $203 $204 $332 reversed $125 $-1 #
coedge $-1 $204 $204 $203 $332 forward $127 $-1 #
coedge $-1 $205 $205 $128 $206 forward $200 $-1 #
edge $-1 $333 1.4630156197163965e-015 $333 6.2831853071796022 $205 $334 forward 7 unknown #
loop $-1 $-1 $212 $129 #
plane-surface $-1 -41.872468676768406 -43.213696846387222 14.516507973727514 0 -0.82903758062907751 0.55919289150049634 1 0 0 forward_v I I I I #
loop $-1 $-1 $335 $82 #
coedge $-1 $210 $210 $211 $336 reversed $130 $-1 #
coedge $-1 $211 $211 $210 $336 forward $132 $-1 #
coedge $-1 $212 $212 $133 $213 forward $207 $-1 #
edge $-1 $337 1.4630156197163965e-015 $337 6.2831853071796022 $212 $338 forward 7 unknown #
face $-1 $339 $340 $47 $-1 $341 reversed single #
loop $-1 $-1 $342 $134 #
plane-surface $-1 34.832627747535412 -173.030046884478 102.07873897266138 -1 0 0 0 -0.82903758062907751 0.55919289150049634 forward_v I I I I #
coedge $-1 $343 $344 $345 $346 reversed $135 $-1 #
coedge $-1 $219 $137 $347 $348 reversed $86 $-1 #
coedge $-1 $137 $218 $343 $349 reversed $86 $-1 #
coedge $-1 $345 $350 $137 $221 forward $340 $-1 #
edge $-1 $351 30.978307191670392 $352 36.522861512603129 $220 $353 forward 7 unknown #
loop $-1 $-1 $227 $138 #
plane-surface $-1 23.751188006956411 -43.213696846387222 14.516507973727514 0 -0.82903758062907751 0.55919289150049634 1 0 0 forward_v I I I I #
loop $-1 $-1 $354 $88 #
coedge $-1 $225 $225 $226 $355 reversed $139 $-1 #
coedge $-1 $226 $226 $225 $355 forward $141 $-1 #
coedge $-1 $227 $227 $142 $228 forward $222 $-1 #
edge $-1 $356 1.4630156197163965e-015 $356 6.2831853071796022 $227 $357 forward 7 unknown #
loop $-1 $-1 $234 $143 #
plane-surface $-1 23.751188006956411 -43.213696846387222 14.516507973727514 0 -0.82903758062907751 0.55919289150049634 1 0 0 forward_v I I I I #
loop $-1 $-1 $358 $91 #
coedge $-1 $232 $232 $233 $359 reversed $144 $-1 #
coedge $-1 $233 $233 $232 $359 forward $146 $-1 #
coedge $-1 $234 $234 $147 $235 forward $229 $-1 #
edge $-1 $360 1.4630156197163965e-015 $360 6.2831853071796022 $234 $361 forward 7 unknown #
face $-1 $362 $363 $50 $-1 $364 forward single #
loop $-1 $-1 $365 $148 #
plane-surface $-1 0 0 20.061062294660299 0 0 1 1 0 0 forward_v I I I I #
coedge $-1 $366 $367 $368 $369 reversed $149 $-1 #
coedge $-1 $241 $151 $370 $371 reversed $95 $-1 #
coedge $-1 $151 $240 $366 $372 reversed $95 $-1 #
coedge $-1 $368 $373 $151 $243 forward $374 $-1 #
edge $-1 $375 66.804085875237618 $376 72.348640196170336 $242 $377 forward 7 unknown #
loop $-1 $-1 $249 $152 #
plane-surface $-1 -41.872468676768406 -5.1158873375270275 86.168065340861972 0 0.82903758062907751 0.55919289150049634 1 0 0 forward_v I I I I #
loop $-1 $-1 $378 $97 #
coedge $-1 $247 $247 $248 $379 reversed $153 $-1 #
coedge $-1 $248 $248 $247 $379 forward $155 $-1 #
coedge $-1 $249 $249 $156 $250 forward $244 $-1 #
edge $-1 $380 -2.1483298307184247e-015 $380 6.2831853071795987 $249 $381 forward 7 unknown #
loop $-1 $-1 $256 $157 #
plane-surface $-1 -41.872468676768406 -5.1158873375270275 86.168065340861972 0 0.82903758062907751 0.55919289150049634 1 0 0 forward_v I I I I #
loop $-1 $-1 $382 $100 #
coedge $-1 $254 $254 $255 $383 reversed $158 $-1 #
coedge $-1 $255 $255 $254 $383 forward $160 $-1 #
coedge $-1 $256 $256 $161 $257 forward $251 $-1 #
edge $-1 $384 -2.1483298307184247e-015 $384 6.2831853071795987 $256 $385 forward 7 unknown #
face $-1 $386 $387 $53 $-1 $388 forward single #
loop $-1 $-1 $389 $162 #
plane-surface $-1 34.832627747535412 124.70046270056375 173.73029633979584 -1 0 0 0 0.82903758062907751 0.55919289150049634 forward_v I I I I #
coedge $-1 $390 $391 $392 $393 reversed $163 $-1 #
coedge $-1 $263 $165 $394 $395 reversed $104 $-1 #
coedge $-1 $165 $262 $390 $396 reversed $104 $-1 #
coedge $-1 $392 $397 $165 $265 forward $387 $-1 #
edge $-1 $398 19.136534503894687 $399 22.876383498980395 $264 $400 forward 7 unknown #
loop $-1 $-1 $271 $166 #
plane-surface $-1 23.751188006956411 -5.1158873375270275 86.168065340861972 0 0.82903758062907751 0.55919289150049634 1 0 0 forward_v I I I I #
loop $-1 $-1 $401 $106 #
coedge $-1 $269 $269 $270 $402 reversed $167 $-1 #
coedge $-1 $270 $270 $269 $402 forward $169 $-1 #
coedge $-1 $271 $271 $170 $272 forward $266 $-1 #
edge $-1 $403 -2.1483298307184247e-015 $403 6.2831853071795987 $271 $404 forward 7 unknown #
loop $-1 $-1 $278 $171 #
plane-surface $-1 23.751188006956411 -5.1158873375270275 86.168065340861972 0 0.82903758062907751 0.55919289150049634 1 0 0 forward_v I I I I #
loop $-1 $-1 $405 $109 #
coedge $-1 $276 $276 $277 $406 reversed $172 $-1 #
coedge $-1 $277 $277 $276 $406 forward $174 $-1 #
coedge $-1 $278 $278 $175 $279 forward $273 $-1 #
edge $-1 $407 -2.1483298307184247e-015 $407 6.2831853071795987 $278 $408 forward 7 unknown #
face $-1 $409 $410 $42 $-1 $411 reversed single #
loop $-1 $-1 $412 $176 #
plane-surface $-1 -78.293404950102229 0 0 1 0 0 0 0 -1 forward_v I I I I #
coedge $-1 $413 $291 $414 $415 forward $177 $-1 #
coedge $-1 $416 $179 $413 $417 forward $113 $-1 #
coedge $-1 $179 $416 $418 $419 forward $113 $-1 #
coedge $-1 $294 $293 $179 $287 reversed $295 $-1 #
edge $-1 $420 -43.213696846387187 $421 43.213696846387187 $286 $422 forward 7 unknown #
coedge $-1 $181 $180 $423 $424 forward $71 $-1 #
coedge $-1 $425 $426 $180 $290 reversed $410 $-1 #
edge $-1 $297 -78.293404950102229 $427 78.293404950102229 $289 $428 forward 7 unknown #
coedge $-1 $283 $429 $181 $292 reversed $177 $-1 #
edge $-1 $430 -78.293404950102229 $296 78.293404950102229 $291 $431 forward 7 unknown #
coedge $-1 $286 $182 $429 $432 forward $295 $-1 #
coedge $-1 $182 $286 $425 $433 reversed $295 $-1 #
loop $-1 $-1 $293 $409 #
vertex $-1 $183 $434 #
vertex $-1 $183 $435 #
straight-curve $-1 78.293404950102229 0 20.061062294660299 0 1 0 I I #
face $-1 $436 $437 $43 $-1 $438 forward single #
loop $-1 $-1 $439 $184 #
plane-surface $-1 -78.293404950102229 0 0 1 0 0 0 0 -1 forward_v I I I I #
coedge $-1 $310 $440 $304 $441 forward $185 $-1 #
coedge $-1 $190 $187 $442 $443 reversed $117 $-1 #
coedge $-1 $187 $190 $302 $441 reversed $117 $-1 #
coedge $-1 $444 $445 $187 $306 forward $437 $-1 #
edge $-1 $446 -43.213696846387187 $447 43.213696846387187 $305 $448 forward 7 unknown #
coedge $-1 $189 $188 $439 $449 reversed $74 $-1 #
coedge $-1 $442 $450 $188 $309 forward $451 $-1 #
edge $-1 $452 -45.48157660823982 $313 -20.142080075484998 $308 $453 forward 7 unknown #
coedge $-1 $454 $302 $189 $311 forward $185 $-1 #
edge $-1 $312 20.142080075484998 $455 45.48157660823982 $310 $456 forward 7 unknown #
vertex $-1 $311 $457 #
vertex $-1 $309 $458 #
straight-curve $-1 -52.953908417347407 0 9.0382839577505152 0 -1 0 I I #
face $-1 $-1 $327 $44 $-1 $459 forward single #
loop $-1 $-1 $460 $192 #
plane-surface $-1 0 -43.213696846387187 0 0 1 0 0 0 1 forward_v I I I I #
coedge $-1 $461 $462 $320 $463 forward $193 $-1 #
coedge $-1 $464 $195 $197 $325 forward $121 $-1 #
coedge $-1 $195 $464 $318 $463 reversed $121 $-1 #
coedge $-1 $465 $198 $195 $322 forward $327 $-1 #
edge $-1 $329 9.8547945978052063 $466 32.017674078963203 $321 $467 forward 7 unknown #
coedge $-1 $468 $460 $196 $324 forward $316 $-1 #
edge $-1 $469 -36.522861512603129 $328 -30.978307191670392 $323 $470 forward 7 unknown #
edge $-1 $329 -6.6879408732298415 $469 -6.4046519641327133e-014 $197 $471 forward 7 unknown #
coedge $-1 $198 $465 $468 $472 forward $327 $-1 #
loop $-1 $-1 $321 $315 #
vertex $-1 $324 $473 #
vertex $-1 $199 $474 #
straight-curve $-1 -30.791028936189409 -86.515023442238999 20.061062294660296 0 1 0 I I #
coedge $-1 $331 $331 $-1 $475 reversed $202 $-1 #
edge $-1 $476 0 $476 6.2831853071796004 $203 $477 forward 7 unknown #
vertex $-1 $206 $478 #
ellipse-curve $-1 -46.621657137016555 -41.34377234884434 17.288785134193922 0 -0.82903758062907751 0.55919289150049634 1.5 0 0 1 I I #
coedge $-1 $335 $335 $-1 $479 reversed $209 $-1 #
edge $-1 $480 0 $480 6.2831853071796004 $210 $481 forward 7 unknown #
vertex $-1 $213 $482 #
ellipse-curve $-1 -37.123280216520271 -41.34377234884434 17.288785134193922 0 -0.82903758062907751 0.55919289150049634 1.5 0 0 1 I I #
face $-1 $-1 $483 $47 $-1 $484 forward single #
loop $-1 $-1 $220 $214 #
plane-surface $-1 0 -43.213696846387187 0 0 1 0 0 0 1 forward_v I I I I #
coedge $-1 $485 $486 $487 $488 reversed $215 $-1 #
coedge $-1 $489 $217 $219 $349 forward $135 $-1 #
coedge $-1 $217 $489 $485 $490 forward $135 $-1 #
coedge $-1 $487 $220 $217 $346 forward $340 $-1 #
edge $-1 $352 0.79415426289920887 $491 22.957033744057206 $345 $492 forward 7 unknown #
coedge $-1 $493 $494 $218 $348 forward $483 $-1 #
edge $-1 $495 -47.041175590937527 $351 -43.301326595851812 $347 $496 forward 7 unknown #
edge $-1 $352 6.4046519641327133e-014 $495 6.6879408732298415 $219 $497 forward 7 unknown #
coedge $-1 $220 $487 $493 $498 reversed $340 $-1 #
vertex $-1 $498 $499 #
vertex $-1 $221 $500 #
straight-curve $-1 12.669748266377415 -43.21369684638718 51.039369486330692 0 0 -1 I I #
coedge $-1 $354 $354 $-1 $501 reversed $224 $-1 #
edge $-1 $502 0 $502 6.2831853071796004 $225 $503 forward 7 unknown #
vertex $-1 $228 $504 #
ellipse-curve $-1 19.001999546708262 -41.34377234884434 17.288785134193922 0 -0.82903758062907751 0.55919289150049634 1.5 0 0 1 I I #
coedge $-1 $358 $358 $-1 $505 reversed $231 $-1 #
edge $-1 $506 0 $506 6.2831853071796004 $232 $507 forward 7 unknown #
vertex $-1 $235 $508 #
ellipse-curve $-1 28.500376467204546 -41.34377234884434 17.288785134193922 0 -0.82903758062907751 0.55919289150049634 1.5 0 0 1 I I #
face $-1 $-1 $374 $50 $-1 $509 reversed single #
loop $-1 $-1 $510 $236 #
plane-surface $-1 -52.953908417347407 0 14.549673126205409 -1 0 0 0 0 1 forward_v I I I I #
coedge $-1 $370 $511 $512 $513 forward $237 $-1 #
coedge $-1 $512 $239 $241 $372 forward $149 $-1 #
coedge $-1 $239 $512 $510 $514 reversed $149 $-1 #
coedge $-1 $515 $242 $239 $369 forward $374 $-1 #
edge $-1 $376 9.8547945978052063 $516 32.017674078963203 $368 $517 forward 7 unknown #
coedge $-1 $518 $365 $240 $371 forward $237 $-1 #
edge $-1 $519 -22.876383498980395 $375 -19.136534503894687 $370 $520 forward 7 unknown #
edge $-1 $376 -86.427393692774302 $519 -79.739452819544525 $241 $521 forward 7 unknown #
coedge $-1 $242 $515 $518 $522 reversed $374 $-1 #
loop $-1 $-1 $368 $362 #
vertex $-1 $522 $523 #
vertex $-1 $243 $524 #
straight-curve $-1 -30.791028936189409 43.213696846387187 86.865148169897921 0 0 -1 I I #
coedge $-1 $378 $378 $-1 $525 reversed $246 $-1 #
edge $-1 $526 0 $526 6.2831853071796004 $247 $527 forward 7 unknown #
vertex $-1 $250 $528 #
ellipse-curve $-1 -46.621657137016555 41.343772348844347 17.288785134193926 0 0.82903758062907751 0.55919289150049634 1.5 0 0 1 I I #
coedge $-1 $382 $382 $-1 $529 reversed $253 $-1 #
edge $-1 $530 0 $530 6.2831853071796004 $254 $531 forward 7 unknown #
vertex $-1 $257 $532 #
ellipse-curve $-1 -37.123280216520271 41.343772348844347 17.288785134193926 0 0.82903758062907751 0.55919289150049634 1.5 0 0 1 I I #
face $-1 $-1 $533 $53 $-1 $534 reversed single #
loop $-1 $-1 $264 $258 #
plane-surface $-1 0 0 20.061062294660299 0 0 1 1 0 0 forward_v I I I I #
coedge $-1 $535 $536 $537 $538 reversed $259 $-1 #
coedge $-1 $539 $261 $263 $396 forward $163 $-1 #
coedge $-1 $261 $539 $535 $540 forward $163 $-1 #
coedge $-1 $537 $264 $261 $393 forward $387 $-1 #
edge $-1 $399 0.79415426289920887 $541 22.957033744057206 $392 $542 forward 7 unknown #
coedge $-1 $543 $544 $262 $395 forward $533 $-1 #
edge $-1 $545 -72.348640196170336 $398 -66.804085875237618 $394 $546 forward 7 unknown #
edge $-1 $399 79.739452819544525 $545 86.427393692774302 $263 $547 forward 7 unknown #
coedge $-1 $264 $537 $543 $548 forward $387 $-1 #
vertex $-1 $265 $549 #
vertex $-1 $265 $550 #
straight-curve $-1 12.669748266377415 62.350231350281874 20.061062294660303 0 -1 0 I I #
coedge $-1 $401 $401 $-1 $551 reversed $268 $-1 #
edge $-1 $552 0 $552 6.2831853071796004 $269 $553 forward 7 unknown #
vertex $-1 $272 $554 #
ellipse-curve $-1 19.001999546708262 41.343772348844347 17.288785134193926 0 0.82903758062907751 0.55919289150049634 1.5 0 0 1 I I #
coedge $-1 $405 $405 $-1 $555 reversed $275 $-1 #
edge $-1 $556 0 $556 6.2831853071796004 $276 $557 forward 7 unknown #
vertex $-1 $279 $558 #
ellipse-curve $-1 28.500376467204546 41.343772348844347 17.288785134193926 0 0.82903758062907751 0.55919289150049634 1.5 0 0 1 I I #
face $-1 $-1 $295 $42 $-1 $559 reversed single #
loop $-1 $-1 $425 $280 #
plane-surface $-1 0 43.213696846387187 0 0 -1 0 0 0 -1 forward_v I I I I #
coedge $-1 $560 $423 $426 $561 forward $281 $-1 #
coedge $-1 $429 $283 $284 $417 reversed $177 $-1 #
coedge $-1 $423 $560 $283 $415 reversed $281 $-1 #
edge $-1 $430 -20.061062294660299 $562 20.061062294660299 $414 $563 forward 7 unknown #
coedge $-1 $285 $284 $560 $564 forward $113 $-1 #
edge $-1 $421 -78.293404950102229 $562 78.293404950102229 $413 $565 forward 7 unknown #
coedge $-1 $426 $425 $285 $419 reversed $410 $-1 #
edge $-1 $566 -78.293404950102229 $420 78.293404950102229 $418 $567 forward 7 unknown #
vertex $-1 $287 $568 #
vertex $-1 $432 $569 #
straight-curve $-1 78.293404950102229 0 -20.061062294660299 0 -1 0 I I #
coedge $-1 $412 $414 $288 $424 reversed $281 $-1 #
edge $-1 $427 -43.213696846387187 $430 43.213696846387187 $423 $570 forward 7 unknown #
coedge $-1 $418 $289 $294 $433 forward $410 $-1 #
coedge $-1 $289 $418 $412 $561 reversed $410 $-1 #
vertex $-1 $290 $571 #
straight-curve $-1 0 43.213696846387187 20.061062294660299 -1 0 0 I I #
coedge $-1 $291 $413 $293 $432 reversed $177 $-1 #
vertex $-1 $424 $572 #
straight-curve $-1 0 -43.213696846387187 20.061062294660299 1 0 0 I I #
edge $-1 $296 -20.061062294660299 $421 20.061062294660299 $293 $573 forward 7 unknown #
edge $-1 $297 -20.061062294660299 $420 20.061062294660299 $294 $574 forward 7 unknown #
point $-1 78.293404950102229 -43.213696846387187 20.061062294660299 #
point $-1 78.293404950102229 43.213696846387187 20.061062294660299 #
face $-1 $-1 $451 $43 $-1 $575 reversed single #
loop $-1 $-1 $305 $299 #
plane-surface $-1 0 0 20.061062294660299 0 0 1 1 0 0 forward_v I I I I #
coedge $-1 $576 $577 $307 $449 forward $300 $-1 #
coedge $-1 $302 $454 $444 $578 reversed $185 $-1 #
edge $-1 $447 -12.786225731557598 $312 -1.7634473946478106 $302 $579 forward 7 unknown #
coedge $-1 $580 $308 $303 $443 forward $451 $-1 #
edge $-1 $313 1.7634473946478106 $446 12.786225731557598 $442 $581 forward 7 unknown #
coedge $-1 $582 $305 $440 $578 forward $437 $-1 #
coedge $-1 $305 $582 $580 $583 forward $437 $-1 #
vertex $-1 $443 $584 #
vertex $-1 $578 $585 #
straight-curve $-1 -52.953908417347407 0 20.061062294660299 0 1 0 I I #
edge $-1 $455 -43.213696846387187 $452 43.213696846387187 $439 $586 forward 7 unknown #
coedge $-1 $308 $580 $576 $587 forward $451 $-1 #
loop $-1 $-1 $442 $436 #
vertex $-1 $449 $588 #
straight-curve $-1 -32.811828341862409 -43.213696846387187 9.0382839577505152 1 0 0 I I #
coedge $-1 $440 $310 $577 $589 reversed $185 $-1 #
vertex $-1 $449 $590 #
straight-curve $-1 -32.811828341862409 43.213696846387187 9.0382839577505152 -1 0 0 I I #
point $-1 -52.953908417347407 43.213696846387187 9.0382839577505152 #
point $-1 -52.953908417347407 -43.213696846387187 9.0382839577505152 #
plane-surface $-1 0 0 20.061062294660299 0 0 1 1 0 0 forward_v I I I I #
coedge $-1 $323 $591 $464 $592 forward $316 $-1 #
coedge $-1 $462 $318 $591 $593 reversed $193 $-1 #
coedge $-1 $318 $461 $465 $594 reversed $193 $-1 #
edge $-1 $466 5.408202751634466 $595 12.096143624864244 $318 $596 forward 7 unknown #
coedge $-1 $320 $319 $460 $592 reversed $121 $-1 #
coedge $-1 $326 $321 $462 $594 forward $327 $-1 #
vertex $-1 $594 $597 #
straight-curve $-1 -20.936234338384203 -39.473847851301471 20.061062294660299 -1 0 0 I I #
coedge $-1 $591 $323 $326 $472 reversed $316 $-1 #
vertex $-1 $324 $598 #
straight-curve $-1 -30.791028936189409 -43.21369684638718 51.039369486330692 0 0 1 I I #
straight-curve $-1 -30.791028936189409 -43.213696846387222 14.516507973727514 0 -0.55919289150049634 -0.82903758062907751 I I #
edge $-1 $599 -52.953908417347407 $328 -30.791028936189409 $468 $600 forward 7 unknown #
point $-1 -30.791028936189409 -43.213696846387187 20.061062294660299 #
point $-1 -30.791028936189409 -39.473847851301471 20.061062294660299 #
edge $-1 $601 1 $601 0 $331 $-1 forward 7 unknown #
vertex $-1 $332 $602 #
ellipse-curve $-1 -46.621657137016555 -38.997421671834232 15.706151668343283 0 -0.82903758062907751 0.55919289150049634 1.5 0 0 1 I I #
point $-1 -45.121657137016555 -41.343772348844304 17.288785134193901 #
edge $-1 $603 1 $603 0 $335 $-1 forward 7 unknown #
vertex $-1 $336 $604 #
ellipse-curve $-1 -37.123280216520271 -38.997421671834232 15.706151668343283 0 -0.82903758062907751 0.55919289150049634 1.5 0 0 1 I I #
point $-1 -35.623280216520271 -41.343772348844304 17.288785134193901 #
loop $-1 $-1 $347 $339 #
plane-surface $-1 0 0 20.061062294660299 0 0 1 1 0 0 forward_v I I I I #
coedge $-1 $486 $342 $344 $490 reversed $215 $-1 #
coedge $-1 $342 $485 $605 $606 reversed $215 $-1 #
coedge $-1 $350 $345 $342 $488 forward $340 $-1 #
edge $-1 $491 -36.522861512603129 $607 -30.978307191670392 $487 $608 forward 7 unknown #
coedge $-1 $344 $343 $494 $609 reversed $135 $-1 #
edge $-1 $610 -6.6879408732298415 $491 -6.4046519641327133e-014 $485 $611 forward 7 unknown #
vertex $-1 $346 $612 #
straight-curve $-1 11.875594003478206 -43.213696846387187 14.516507973727578 1 0 0 I I #
coedge $-1 $605 $347 $350 $498 forward $483 $-1 #
coedge $-1 $347 $605 $489 $609 forward $483 $-1 #
vertex $-1 $348 $613 #
straight-curve $-1 12.669748266377415 -86.515023442238999 20.061062294660296 0 -1 0 I I #
straight-curve $-1 12.669748266377415 -43.213696846387222 14.516507973727514 0 0.55919289150049634 0.82903758062907751 I I #
edge $-1 $351 12.669748266377415 $607 34.832627747535412 $350 $614 forward 7 unknown #
point $-1 12.669748266377415 -43.213696846387187 20.061062294660299 #
point $-1 12.669748266377415 -43.213696846387187 14.516507973727567 #
edge $-1 $615 1 $615 0 $354 $-1 forward 7 unknown #
vertex $-1 $355 $616 #
ellipse-curve $-1 19.001999546708262 -38.997421671834232 15.706151668343283 0 -0.82903758062907751 0.55919289150049634 1.5 0 0 1 I I #
point $-1 20.501999546708262 -41.343772348844304 17.288785134193901 #
edge $-1 $617 1 $617 0 $358 $-1 forward 7 unknown #
vertex $-1 $359 $618 #
ellipse-curve $-1 28.500376467204546 -38.997421671834232 15.706151668343283 0 -0.82903758062907751 0.55919289150049634 1.5 0 0 1 I I #
point $-1 30.000376467204546 -41.343772348844304 17.288785134193901 #
plane-surface $-1 0 43.213696846387187 0 0 -1 0 0 0 -1 forward_v I I I I #
coedge $-1 $619 $620 $367 $514 forward $363 $-1 #
coedge $-1 $365 $518 $619 $621 forward $237 $-1 #
coedge $-1 $367 $366 $365 $513 reversed $149 $-1 #
edge $-1 $622 -32.017674078963203 $519 -9.8547945978052063 $365 $623 forward 7 unknown #
edge $-1 $516 -55.30984047125142 $622 -48.621899598021656 $510 $624 forward 7 unknown #
coedge $-1 $373 $368 $620 $625 forward $374 $-1 #
vertex $-1 $625 $626 #
straight-curve $-1 -20.936234338384203 43.213696846387194 14.516507973727585 -1 0 0 I I #
coedge $-1 $511 $370 $373 $522 forward $237 $-1 #
vertex $-1 $371 $627 #
straight-curve $-1 -30.791028936189409 62.350231350281874 20.061062294660303 0 1 0 I I #
straight-curve $-1 -30.791028936189409 -5.1158873375270275 86.168065340861972 0 -0.55919289150049634 0.82903758062907751 I I #
edge $-1 $375 30.791028936189409 $628 52.953908417347407 $373 $629 forward 7 unknown #
point $-1 -30.791028936189409 43.213696846387187 20.061062294660299 #
point $-1 -30.791028936189409 43.213696846387187 14.516507973727585 #
edge $-1 $630 1 $630 0 $378 $-1 forward 7 unknown #
vertex $-1 $379 $631 #
ellipse-curve $-1 -46.621657137016555 38.997421671834232 15.706151668343283 0 0.82903758062907751 0.55919289150049634 1.5 0 0 1 I I #
point $-1 -45.121657137016555 41.343772348844304 17.288785134193901 #
edge $-1 $632 1 $632 0 $382 $-1 forward 7 unknown #
vertex $-1 $383 $633 #
ellipse-curve $-1 -37.123280216520271 38.997421671834232 15.706151668343283 0 0.82903758062907751 0.55919289150049634 1.5 0 0 1 I I #
point $-1 -35.623280216520271 41.343772348844304 17.288785134193901 #
loop $-1 $-1 $394 $386 #
plane-surface $-1 0 43.213696846387187 0 0 -1 0 0 0 -1 forward_v I I I I #
coedge $-1 $536 $389 $391 $540 reversed $259 $-1 #
coedge $-1 $389 $535 $634 $635 reversed $259 $-1 #
coedge $-1 $397 $392 $389 $538 forward $387 $-1 #
edge $-1 $541 -22.876383498980395 $636 -19.136534503894687 $537 $637 forward 7 unknown #
coedge $-1 $391 $390 $544 $638 reversed $163 $-1 #
edge $-1 $639 -86.427393692774302 $541 -79.739452819544525 $535 $640 forward 7 unknown #
vertex $-1 $393 $641 #
straight-curve $-1 11.875594003478206 39.473847851301485 20.061062294660296 1 0 0 I I #
coedge $-1 $634 $394 $397 $548 reversed $533 $-1 #
coedge $-1 $394 $634 $539 $638 forward $533 $-1 #
vertex $-1 $395 $642 #
straight-curve $-1 12.669748266377415 43.213696846387187 86.865148169897921 0 0 1 I I #
straight-curve $-1 12.669748266377415 -5.1158873375270275 86.168065340861972 0 0.55919289150049634 -0.82903758062907751 I I #
edge $-1 $636 -34.832627747535412 $398 -12.669748266377415 $543 $643 forward 7 unknown #
point $-1 12.669748266377415 43.213696846387187 20.061062294660299 #
point $-1 12.669748266377415 39.473847851301478 20.061062294660303 #
edge $-1 $644 1 $644 0 $401 $-1 forward 7 unknown #
vertex $-1 $402 $645 #
ellipse-curve $-1 19.001999546708262 38.997421671834232 15.706151668343283 0 0.82903758062907751 0.55919289150049634 1.5 0 0 1 I I #
point $-1 20.501999546708262 41.343772348844304 17.288785134193901 #
edge $-1 $646 1 $646 0 $405 $-1 forward 7 unknown #
vertex $-1 $406 $647 #
ellipse-curve $-1 28.500376467204546 38.997421671834232 15.706151668343283 0 0.82903758062907751 0.55919289150049634 1.5 0 0 1 I I #
point $-1 30.000376467204546 41.343772348844304 17.288785134193901 #
plane-surface $-1 78.293404950102229 0 0 -1 0 0 0 0 1 forward_v I I I I #
coedge $-1 $414 $412 $416 $564 reversed $281 $-1 #
edge $-1 $427 -20.061062294660299 $566 20.061062294660299 $426 $648 forward 7 unknown #
vertex $-1 $564 $649 #
straight-curve $-1 -78.293404950102229 -43.213696846387187 0 0 0 -1 I I #
edge $-1 $562 -43.213696846387187 $566 43.213696846387187 $560 $650 forward 7 unknown #
straight-curve $-1 0 -43.213696846387187 -20.061062294660299 -1 0 0 I I #
vertex $-1 $419 $651 #
straight-curve $-1 0 43.213696846387187 -20.061062294660299 1 0 0 I I #
point $-1 78.293404950102229 43.213696846387187 -20.061062294660299 #
point $-1 78.293404950102229 -43.213696846387187 -20.061062294660299 #
straight-curve $-1 -78.293404950102229 0 20.061062294660299 0 -1 0 I I #
point $-1 -78.293404950102229 43.213696846387187 20.061062294660299 #
point $-1 -78.293404950102229 -43.213696846387187 20.061062294660299 #
straight-curve $-1 78.293404950102229 -43.213696846387187 0 0 0 -1 I I #
straight-curve $-1 78.293404950102229 43.213696846387187 0 0 0 -1 I I #
plane-surface $-1 0 -43.213696846387187 0 0 1 0 0 0 1 forward_v I I I I #
coedge $-1 $652 $439 $450 $587 reversed $300 $-1 #
coedge $-1 $439 $652 $454 $589 forward $300 $-1 #
edge $-1 $447 52.953908417347407 $653 78.293404950102229 $440 $654 forward 7 unknown #
straight-curve $-1 -52.953908417347407 43.213696846387187 7.2748365631027045 0 0 -1 I I #
coedge $-1 $450 $442 $445 $583 reversed $451 $-1 #
straight-curve $-1 -52.953908417347407 -43.213696846387187 7.2748365631027045 0 0 1 I I #
coedge $-1 $445 $444 $652 $655 forward $437 $-1 #
edge $-1 $656 -78.293404950102229 $446 -52.953908417347407 $580 $657 forward 7 unknown #
point $-1 -52.953908417347407 -43.213696846387187 20.061062294660303 #
point $-1 -52.953908417347407 43.213696846387187 20.061062294660303 #
straight-curve $-1 -78.293404950102229 0 9.0382839577505152 0 -1 0 I I #
edge $-1 $656 -20.061062294660299 $452 -9.0382839577505152 $576 $658 forward 7 unknown #
point $-1 -78.293404950102229 -43.213696846387187 9.0382839577505152 #
edge $-1 $653 -20.061062294660299 $455 -9.0382839577505152 $454 $659 forward 7 unknown #
point $-1 -78.293404950102229 43.213696846387187 9.0382839577505152 #
coedge $-1 $460 $468 $461 $593 forward $316 $-1 #
edge $-1 $595 -32.017674078963203 $469 -9.8547945978052063 $460 $660 forward 7 unknown #
edge $-1 $599 -12.786225731557598 $595 -7.2416714106248623 $591 $661 forward 7 unknown #
edge $-1 $466 39.473847851301471 $599 43.213696846387187 $465 $662 forward 7 unknown #
vertex $-1 $463 $663 #
straight-curve $-1 -52.953908417347407 -36.449619316794056 24.544665619426858 0 -0.55919289150049634 -0.82903758062907751 I I #
point $-1 -52.953908417347407 -39.473847851301471 20.061062294660299 #
point $-1 -30.791028936189409 -43.213696846387187 14.516507973727567 #
vertex $-1 $472 $664 #
straight-curve $-1 0 -43.213696846387187 20.061062294660299 1 0 0 I I #
vertex $-1 $475 $665 #
point $-1 -45.121657137016555 -38.997421671834232 15.706151668343283 #
vertex $-1 $479 $666 #
point $-1 -35.623280216520271 -38.997421671834232 15.706151668343283 #
coedge $-1 $494 $493 $486 $606 forward $483 $-1 #
edge $-1 $607 43.301326595851812 $610 47.041175590937527 $605 $667 forward 7 unknown #
vertex $-1 $606 $668 #
straight-curve $-1 34.832627747535412 -43.21369684638718 51.039369486330692 0 0 1 I I #
edge $-1 $610 -22.957033744057206 $495 -0.79415426289920887 $494 $669 forward 7 unknown #
vertex $-1 $609 $670 #
straight-curve $-1 34.832627747535412 -43.213696846387222 14.516507973727514 0 -0.55919289150049634 -0.82903758062907751 I I #
point $-1 34.832627747535412 -43.213696846387187 14.516507973727567 #
point $-1 12.669748266377415 -39.473847851301471 20.061062294660299 #
straight-curve $-1 0 -43.213696846387187 20.061062294660299 1 0 0 I I #
vertex $-1 $501 $671 #
point $-1 20.501999546708262 -38.997421671834232 15.706151668343283 #
vertex $-1 $505 $672 #
point $-1 30.000376467204546 -38.997421671834232 15.706151668343283 #
coedge $-1 $620 $510 $511 $621 reversed $363 $-1 #
coedge $-1 $510 $619 $515 $625 reversed $363 $-1 #
edge $-1 $628 -43.213696846387187 $622 -39.473847851301478 $511 $673 forward 7 unknown #
vertex $-1 $514 $674 #
straight-curve $-1 -20.936234338384203 39.473847851301485 20.061062294660296 1 0 0 I I #
straight-curve $-1 -52.953908417347407 12.284827224836933 60.370444302994088 0 -0.55919289150049634 0.82903758062907751 I I #
edge $-1 $516 7.241671410624873 $628 12.786225731557598 $515 $675 forward 7 unknown #
point $-1 -52.953908417347407 43.213696846387187 14.516507973727578 #
point $-1 -30.791028936189409 39.473847851301478 20.061062294660303 #
vertex $-1 $621 $676 #
straight-curve $-1 0 43.213696846387187 20.061062294660299 -1 0 0 I I #
vertex $-1 $525 $677 #
point $-1 -45.121657137016555 38.997421671834232 15.706151668343283 #
vertex $-1 $529 $678 #
point $-1 -35.623280216520271 38.997421671834232 15.706151668343283 #
coedge $-1 $544 $543 $536 $635 forward $533 $-1 #
edge $-1 $636 66.804085875237618 $639 72.348640196170336 $634 $679 forward 7 unknown #
vertex $-1 $548 $680 #
straight-curve $-1 34.832627747535412 62.350231350281874 20.061062294660303 0 1 0 I I #
edge $-1 $639 -22.957033744057206 $545 -0.79415426289920887 $544 $681 forward 7 unknown #
vertex $-1 $638 $682 #
straight-curve $-1 34.832627747535412 -5.1158873375270275 86.168065340861972 0 -0.55919289150049634 0.82903758062907751 I I #
point $-1 34.832627747535412 39.473847851301478 20.061062294660303 #
point $-1 12.669748266377415 43.213696846387187 14.516507973727585 #
straight-curve $-1 0 43.213696846387187 20.061062294660299 -1 0 0 I I #
vertex $-1 $551 $683 #
point $-1 20.501999546708262 38.997421671834232 15.706151668343283 #
vertex $-1 $555 $684 #
point $-1 30.000376467204546 38.997421671834232 15.706151668343283 #
straight-curve $-1 -78.293404950102229 43.213696846387187 0 0 0 -1 I I #
point $-1 -78.293404950102229 -43.213696846387187 -20.061062294660299 #
straight-curve $-1 -78.293404950102229 0 -20.061062294660299 0 1 0 I I #
point $-1 -78.293404950102229 43.213696846387187 -20.061062294660299 #
coedge $-1 $577 $576 $582 $655 reversed $300 $-1 #
vertex $-1 $578 $685 #
straight-curve $-1 0 43.213696846387187 20.061062294660299 -1 0 0 I I #
edge $-1 $653 -43.213696846387187 $656 43.213696846387187 $652 $686 forward 7 unknown #
vertex $-1 $655 $687 #
straight-curve $-1 0 -43.213696846387187 20.061062294660299 1 0 0 I I #
straight-curve $-1 -78.293404950102229 -43.213696846387187 0 0 0 -1 I I #
straight-curve $-1 -78.293404950102229 43.213696846387187 0 0 0 -1 I I #
straight-curve $-1 -20.936234338384203 -43.213696846387187 14.516507973727578 1 0 0 I I #
straight-curve $-1 -52.953908417347407 -43.213696846387187 7.2748365631027045 0 0 -1 I I #
straight-curve $-1 -52.953908417347407 0 20.061062294660299 0 -1 0 I I #
point $-1 -52.953908417347407 -43.213696846387187 14.516507973727567 #
point $-1 -52.953908417347407 -43.213696846387187 20.061062294660303 #
point $-1 -46.621657137016555 -37.753865300890624 14.867362331092542 #
point $-1 -37.123280216520271 -37.753865300890624 14.867362331092542 #
straight-curve $-1 34.832627747535412 -86.515023442238999 20.061062294660296 0 1 0 I I #
point $-1 34.832627747535412 -43.213696846387187 20.061062294660299 #
straight-curve $-1 11.875594003478206 -39.473847851301471 20.061062294660299 -1 0 0 I I #
point $-1 34.832627747535412 -39.473847851301471 20.061062294660299 #
point $-1 19.001999546708262 -37.753865300890624 14.867362331092542 #
point $-1 28.500376467204546 -37.753865300890624 14.867362331092542 #
straight-curve $-1 -52.953908417347407 0 20.061062294660299 0 -1 0 I I #
point $-1 -52.953908417347407 39.473847851301478 20.061062294660299 #
straight-curve $-1 -52.953908417347407 43.213696846387187 7.2748365631027045 0 0 1 I I #
point $-1 -52.953908417347407 43.213696846387187 20.061062294660303 #
point $-1 -46.621657137016555 37.753865300890624 14.867362331092542 #
point $-1 -37.123280216520271 37.753865300890624 14.867362331092542 #
straight-curve $-1 34.832627747535412 43.213696846387187 86.865148169897921 0 0 -1 I I #
point $-1 34.832627747535412 43.213696846387187 20.061062294660299 #
straight-curve $-1 11.875594003478206 43.213696846387194 14.516507973727585 -1 0 0 I I #
point $-1 34.832627747535412 43.213696846387187 14.516507973727585 #
point $-1 19.001999546708262 37.753865300890624 14.867362331092542 #
point $-1 28.500376467204546 37.753865300890624 14.867362331092542 #
point $-1 -78.293404950102229 43.213696846387187 20.061062294660299 #
straight-curve $-1 -78.293404950102229 0 20.061062294660299 0 -1 0 I I #
point $-1 -78.293404950102229 -43.213696846387187 20.061062294660299 #
End-of-ACIS-data 