500 0 5 0           
7 Unknown 11 ACIS 5.0 NT 24 Thu Mar 25 18:18:27 1999 
-1 9.9999999999999995e-007 1e-010 
body $-1 $5 $-1 $6 #
body $-1 $7 $-1 $8 #
body $-1 $9 $-1 $10 #
body $-1 $11 $-1 $12 #
body $-1 $13 $-1 $14 #
lump $-1 $-1 $15 $0 #
transform $-1 1 0 0 0 1 0 0 0 1 67.139500106814779 30.965064469259225 15.242122297773031 1 rotate no_reflect no_shear #
lump $-1 $-1 $16 $1 #
transform $-1 1 0 0 0 1 0 0 0 1 67.139500106814779 30.965064469259225 15.242122297773031 1 rotate no_reflect no_shear #
lump $-1 $-1 $17 $2 #
transform $-1 1 0 0 0 1 0 0 0 1 67.139500106814779 30.965064469259225 15.242122297773031 1 rotate no_reflect no_shear #
lump $-1 $-1 $18 $3 #
transform $-1 1 0 0 0 1 0 0 0 1 67.139500106814779 30.965064469259225 15.242122297773031 1 rotate no_reflect no_shear #
lump $-1 $-1 $19 $4 #
transform $-1 1 0 0 0 1 0 0 0 1 67.139500106814779 30.965064469259225 15.242122297773031 1 rotate no_reflect no_shear #
shell $-1 $-1 $-1 $20 $-1 $5 #
shell $-1 $-1 $-1 $21 $-1 $7 #
shell $-1 $-1 $-1 $22 $-1 $9 #
shell $-1 $-1 $-1 $23 $-1 $11 #
shell $-1 $-1 $-1 $24 $-1 $13 #
face $-1 $25 $26 $15 $-1 $27 forward single #
face $-1 $28 $29 $16 $-1 $30 reversed single #
face $-1 $31 $32 $17 $-1 $33 forward single #
face $-1 $34 $35 $18 $-1 $36 reversed single #
face $-1 $37 $38 $19 $-1 $39 reversed single #
face $-1 $40 $41 $15 $-1 $42 reversed single #
loop $-1 $-1 $43 $20 #
plane-surface $-1 0 0 15.242122297773031 0 0 1 1 0 0 forward_v I I I I #
face $-1 $44 $45 $16 $-1 $46 reversed single #
loop $-1 $-1 $47 $21 #
plane-surface $-1 -75.126828984698264 -17.833440279497466 0 0 1 0 0 0 1 forward_v I I I I #
face $-1 $48 $49 $17 $-1 $50 forward single #
loop $-1 $-1 $51 $22 #
plane-surface $-1 100.11514986960526 4.9539280135037433 194.65603353049474 0 -1 0 -0.81915205242281985 0 -0.57357642473473569 forward_v I I I I #
face $-1 $52 $53 $18 $-1 $54 reversed single #
loop $-1 $55 $56 $23 #
cone-surface $-1 62.54010663111395 -4.4849430305222491 10.084626163209812 -0.81915205242281985 0 -0.57357642473473569 0.86036463710210354 0 -1.2287280786342298 1 I I 0 1 1.5 forward I I I I #
face $-1 $57 $58 $19 $-1 $59 reversed single #
loop $-1 $60 $61 $24 #
cone-surface $-1 62.54010663111395 1.1783795958933467 10.084626163209812 -0.81915205242281985 0 -0.57357642473473569 0.86036463710210354 0 -1.2287280786342298 1 I I 0 1 1.5 forward I I I I #
face $-1 $62 $63 $15 $-1 $64 reversed single #
loop $-1 $-1 $65 $25 #
plane-surface $-1 0 0 -15.242122297773031 0 0 1 1 0 0 forward_v I I I I #
coedge $-1 $66 $67 $68 $69 forward $26 $-1 #
face $-1 $70 $71 $16 $-1 $72 reversed single #
loop $-1 $-1 $73 $28 #
plane-surface $-1 -83.114157862581749 -14.085172288432513 0 1 0 0 0 0 -1 forward_v I I I I #
coedge $-1 $74 $75 $76 $77 forward $29 $-1 #
face $-1 $78 $79 $17 $-1 $80 forward single #
loop $-1 $-1 $81 $31 #
plane-surface $-1 -9.8797687526736553 -1.6532817173144494 117.63676467100629 0.81915205242281985 0 0.57357642473473569 0.57357642473473569 0 -0.81915205242281985 forward_v I I I I #
coedge $-1 $82 $83 $84 $85 reversed $32 $-1 #
face $-1 $86 $87 $18 $-1 $88 forward single #
loop $-1 $89 $90 $34 #
cone-surface $-1 59.987234396814188 -4.4849430305222491 8.2970858346183771 -0.81915205242281985 0 -0.57357642473473569 0.43018231855105177 0 -0.61436403931711492 1 I I -0.70710678118654757 0.70710678118654757 0.75 forward I I I I #
loop $-1 $-1 $91 $23 #
coedge $-1 $56 $56 $92 $93 reversed $35 $-1 #
face $-1 $94 $95 $19 $-1 $96 reversed single #
loop $-1 $97 $98 $37 #
cone-surface $-1 59.987234396814188 1.1783795958933467 8.2970858346183771 -0.81915205242281985 0 -0.57357642473473569 0.43018231855105177 0 -0.61436403931711492 1 I I -0.70710678118654757 0.70710678118654757 0.75 forward I I I I #
loop $-1 $-1 $99 $24 #
coedge $-1 $61 $61 $100 $101 reversed $38 $-1 #
face $-1 $102 $103 $15 $-1 $104 reversed single #
loop $-1 $-1 $105 $40 #
plane-surface $-1 0 -30.965064469259225 0 0 1 0 0 0 1 forward_v I I I I #
coedge $-1 $106 $107 $108 $109 forward $41 $-1 #
coedge $-1 $110 $43 $111 $112 forward $26 $-1 #
coedge $-1 $43 $110 $113 $114 forward $26 $-1 #
coedge $-1 $115 $116 $43 $69 reversed $117 $-1 #
edge $-1 $118 -30.965064469259225 $119 30.965064469259225 $68 $120 forward 7 unknown #
face $-1 $121 $122 $16 $-1 $123 reversed single #
loop $-1 $-1 $124 $44 #
plane-surface $-1 -75.126828984698264 -10.33690429736756 0 0 -1 0 0 0 -1 forward_v I I I I #
coedge $-1 $125 $126 $127 $128 forward $45 $-1 #
coedge $-1 $129 $47 $130 $131 reversed $29 $-1 #
coedge $-1 $47 $129 $132 $133 reversed $29 $-1 #
coedge $-1 $126 $125 $47 $77 reversed $45 $-1 #
edge $-1 $134 -15.242122297773031 $135 15.242122297773031 $76 $136 forward 7 unknown #
face $-1 $137 $138 $17 $-1 $139 forward single #
loop $-1 $-1 $140 $48 #
plane-surface $-1 100.11514986960526 -8.2604914481326421 194.65603353049474 0 1 0 0.81915205242281985 0 0.57357642473473569 forward_v I I I I #
coedge $-1 $141 $142 $143 $144 reversed $49 $-1 #
coedge $-1 $83 $51 $142 $145 forward $32 $-1 #
coedge $-1 $51 $82 $146 $147 reversed $32 $-1 #
coedge $-1 $148 $143 $51 $85 forward $138 $-1 #
edge $-1 $149 11.76015461057581 $150 17.081925172012149 $84 $151 forward 7 unknown #
face $-1 $152 $153 $18 $-1 $154 forward single #
loop $-1 $-1 $155 $52 #
plane-surface $-1 100.11514986960526 4.9539280135037433 194.65603353049474 0 -1 0 -0.81915205242281985 0 -0.57357642473473569 forward_v I I I I #
loop $-1 $-1 $156 $34 #
coedge $-1 $90 $90 $91 $157 forward $53 $-1 #
coedge $-1 $91 $91 $90 $157 reversed $55 $-1 #
coedge $-1 $92 $92 $56 $93 forward $153 $-1 #
edge $-1 $158 0 $158 6.2831853071796004 $92 $159 forward 7 unknown #
face $-1 $160 $161 $19 $-1 $162 reversed single #
loop $-1 $163 $164 $57 #
cone-surface $-1 62.54010663111395 -4.4849430305222491 10.084626163209812 -0.81915205242281985 0 -0.57357642473473569 0.86036463710210354 0 -1.2287280786342298 1 I I 0 1 1.5 forward I I I I #
loop $-1 $-1 $165 $37 #
coedge $-1 $98 $98 $99 $166 forward $58 $-1 #
coedge $-1 $99 $99 $98 $166 reversed $60 $-1 #
coedge $-1 $100 $100 $61 $101 forward $167 $-1 #
edge $-1 $168 0 $168 6.2831853071796004 $100 $169 forward 7 unknown #
face $-1 $170 $171 $15 $-1 $172 reversed single #
loop $-1 $-1 $173 $62 #
plane-surface $-1 -67.139500106814779 0 0 1 0 0 0 0 -1 forward_v I I I I #
coedge $-1 $174 $113 $175 $176 forward $63 $-1 #
coedge $-1 $177 $65 $174 $178 forward $41 $-1 #
coedge $-1 $65 $177 $179 $180 forward $41 $-1 #
coedge $-1 $116 $115 $65 $109 reversed $117 $-1 #
edge $-1 $181 -30.965064469259225 $182 30.965064469259225 $108 $183 forward 7 unknown #
coedge $-1 $67 $66 $184 $185 forward $26 $-1 #
coedge $-1 $186 $187 $66 $112 reversed $171 $-1 #
edge $-1 $119 -67.139500106814779 $188 67.139500106814779 $111 $189 forward 7 unknown #
coedge $-1 $105 $190 $67 $114 reversed $63 $-1 #
edge $-1 $191 -67.139500106814779 $118 67.139500106814779 $113 $192 forward 7 unknown #
coedge $-1 $108 $68 $190 $193 forward $117 $-1 #
coedge $-1 $68 $108 $186 $194 reversed $117 $-1 #
loop $-1 $-1 $115 $170 #
vertex $-1 $69 $195 #
vertex $-1 $69 $196 #
straight-curve $-1 67.139500106814779 0 15.242122297773031 0 1 0 I I #
face $-1 $197 $198 $16 $-1 $123 reversed single #
loop $-1 $-1 $199 $70 #
plane-surface $-1 -67.139500106814779 0 0 1 0 0 0 0 -1 forward_v I I I I #
coedge $-1 $200 $201 $199 $202 reversed $71 $-1 #
coedge $-1 $76 $73 $203 $204 reversed $45 $-1 #
coedge $-1 $73 $76 $205 $206 reversed $45 $-1 #
coedge $-1 $201 $200 $73 $128 reversed $71 $-1 #
edge $-1 $207 -15.242122297773031 $208 15.242122297773031 $127 $209 forward 7 unknown #
coedge $-1 $75 $74 $210 $211 reversed $29 $-1 #
coedge $-1 $203 $212 $74 $131 forward $213 $-1 #
edge $-1 $214 -7.9873288778834848 $135 7.9873288778834848 $74 $215 forward 7 unknown #
coedge $-1 $216 $205 $75 $133 forward $217 $-1 #
edge $-1 $134 -7.9873288778834848 $218 7.9873288778834848 $75 $219 forward 7 unknown #
vertex $-1 $206 $220 #
vertex $-1 $204 $221 #
straight-curve $-1 -83.114157862581749 -17.833440279497466 0 0 0 -1 I I #
face $-1 $222 $223 $17 $-1 $224 reversed single #
loop $-1 $-1 $225 $78 #
plane-surface $-1 0 0 15.242122297773031 0 0 1 1 0 0 forward_v I I I I #
coedge $-1 $226 $227 $225 $228 reversed $79 $-1 #
coedge $-1 $229 $81 $227 $230 reversed $49 $-1 #
coedge $-1 $81 $229 $82 $145 reversed $49 $-1 #
coedge $-1 $84 $225 $81 $144 forward $138 $-1 #
edge $-1 $231 -7.4338505894754174 $149 5.780568872160968 $143 $232 forward 7 unknown #
edge $-1 $149 125.00077619335617 $233 134.27900021362956 $82 $234 forward 7 unknown #
coedge $-1 $235 $236 $83 $147 forward $237 $-1 #
edge $-1 $150 82.085894467474333 $233 89.686170716519968 $146 $238 forward 7 unknown #
coedge $-1 $239 $84 $236 $240 forward $138 $-1 #
vertex $-1 $144 $241 #
vertex $-1 $240 $242 #
straight-curve $-1 50.057574934802631 4.9539280135037433 15.242122297773037 1 0 0 I I #
face $-1 $243 $244 $18 $-1 $245 forward single #
loop $-1 $246 $92 $86 #
plane-surface $-1 -9.8797687526736553 -1.6532817173144494 117.63676467100629 0.81915205242281985 0 0.57357642473473569 0.57357642473473569 0 -0.81915205242281985 forward_v I I I I #
coedge $-1 $247 $248 $249 $250 reversed $87 $-1 #
coedge $-1 $156 $156 $-1 $251 forward $89 $-1 #
edge $-1 $252 0 $252 6.2831853071796004 $90 $253 forward 7 unknown #
vertex $-1 $93 $254 #
ellipse-curve $-1 64.478614826096617 -4.4849430305222491 11.44198417325021 -0.81915205242281985 0 -0.57357642473473569 0.86036463710210354 0 -1.2287280786342298 1 I I #
face $-1 $255 $256 $19 $-1 $257 forward single #
loop $-1 $258 $259 $94 #
cone-surface $-1 59.987234396814188 -4.4849430305222491 8.2970858346183771 -0.81915205242281985 0 -0.57357642473473569 0.43018231855105177 0 -0.61436403931711492 1 I I -0.70710678118654757 0.70710678118654757 0.75 forward I I I I #
loop $-1 $-1 $260 $57 #
coedge $-1 $164 $164 $261 $262 reversed $95 $-1 #
coedge $-1 $165 $165 $-1 $263 forward $97 $-1 #
edge $-1 $264 0 $264 6.2831853071796004 $98 $265 forward 7 unknown #
loop $-1 $266 $100 $255 #
vertex $-1 $101 $267 #
ellipse-curve $-1 64.478614826096617 1.1783795958933467 11.44198417325021 -0.81915205242281985 0 -0.57357642473473569 0.86036463710210354 0 -1.2287280786342298 1 I I #
face $-1 $-1 $117 $15 $-1 $268 reversed single #
loop $-1 $-1 $186 $102 #
plane-surface $-1 0 30.965064469259225 0 0 -1 0 0 0 -1 forward_v I I I I #
coedge $-1 $269 $184 $187 $270 forward $103 $-1 #
coedge $-1 $190 $105 $106 $178 reversed $63 $-1 #
coedge $-1 $184 $269 $105 $176 reversed $103 $-1 #
edge $-1 $191 -15.242122297773031 $271 15.242122297773031 $175 $272 forward 7 unknown #
coedge $-1 $107 $106 $269 $273 forward $41 $-1 #
edge $-1 $182 -67.139500106814779 $271 67.139500106814779 $174 $274 forward 7 unknown #
coedge $-1 $187 $186 $107 $180 reversed $171 $-1 #
edge $-1 $275 -67.139500106814779 $181 67.139500106814779 $179 $276 forward 7 unknown #
vertex $-1 $109 $277 #
vertex $-1 $193 $278 #
straight-curve $-1 67.139500106814779 0 -15.242122297773031 0 -1 0 I I #
coedge $-1 $173 $175 $110 $185 reversed $103 $-1 #
edge $-1 $188 -30.965064469259225 $191 30.965064469259225 $184 $279 forward 7 unknown #
coedge $-1 $179 $111 $116 $194 forward $171 $-1 #
coedge $-1 $111 $179 $173 $270 reversed $171 $-1 #
vertex $-1 $112 $280 #
straight-curve $-1 0 30.965064469259225 15.242122297773031 -1 0 0 I I #
coedge $-1 $113 $174 $115 $193 reversed $63 $-1 #
vertex $-1 $185 $281 #
straight-curve $-1 0 -30.965064469259225 15.242122297773031 1 0 0 I I #
edge $-1 $118 -15.242122297773031 $182 15.242122297773031 $115 $282 forward 7 unknown #
edge $-1 $119 -15.242122297773031 $181 15.242122297773031 $116 $283 forward 7 unknown #
point $-1 67.139500106814779 -30.965064469259225 15.242122297773031 #
point $-1 67.139500106814779 30.965064469259225 15.242122297773031 #
face $-1 $284 $217 $16 $-1 $285 forward single #
loop $-1 $-1 $210 $121 #
coedge $-1 $286 $287 $124 $202 forward $122 $-1 #
coedge $-1 $127 $124 $288 $289 reversed $71 $-1 #
coedge $-1 $124 $127 $290 $291 reversed $71 $-1 #
edge $-1 $292 -15.242122297773031 $293 15.242122297773031 $199 $294 forward 7 unknown #
coedge $-1 $288 $130 $125 $204 forward $213 $-1 #
edge $-1 $135 -3.748267991064953 $208 3.748267991064953 $125 $295 forward 7 unknown #
coedge $-1 $132 $290 $126 $206 forward $217 $-1 #
edge $-1 $207 -3.748267991064953 $134 3.748267991064953 $126 $296 forward 7 unknown #
vertex $-1 $291 $297 #
vertex $-1 $289 $298 #
straight-curve $-1 -83.114157862581749 -10.33690429736756 0 0 0 -1 I I #
coedge $-1 $299 $300 $129 $211 forward $198 $-1 #
edge $-1 $218 -15.242122297773031 $214 15.242122297773031 $210 $301 forward 7 unknown #
coedge $-1 $130 $302 $299 $303 forward $213 $-1 #
loop $-1 $-1 $304 $284 #
vertex $-1 $131 $305 #
straight-curve $-1 -75.126828984698264 -17.833440279497466 -15.242122297773031 -1 0 0 I I #
coedge $-1 $306 $132 $300 $307 forward $217 $-1 #
loop $-1 $-1 $308 $197 #
vertex $-1 $307 $309 #
straight-curve $-1 -75.126828984698264 -17.833440279497466 15.242122297773031 1 0 0 I I #
point $-1 -83.114157862581749 -17.833440279497466 15.242122297773031 #
point $-1 -83.114157862581749 -17.833440279497466 -15.242122297773031 #
face $-1 $310 $311 $17 $-1 $312 reversed single #
loop $-1 $-1 $313 $137 #
plane-surface $-1 -75.126828984698264 -17.833440279497466 0 0 1 0 0 0 1 forward_v I I I I #
coedge $-1 $143 $314 $140 $228 forward $138 $-1 #
coedge $-1 $227 $140 $315 $316 reversed $79 $-1 #
coedge $-1 $140 $226 $141 $230 forward $79 $-1 #
edge $-1 $317 -17.081925172012149 $231 -11.76015461057581 $225 $318 forward 7 unknown #
coedge $-1 $142 $141 $235 $319 reversed $49 $-1 #
edge $-1 $320 -134.27900021362956 $231 -125.00077619335617 $227 $321 forward 7 unknown #
vertex $-1 $144 $322 #
straight-curve $-1 61.817729545378427 -0.8266408586572247 15.242122297773037 0 1 0 I I #
vertex $-1 $319 $323 #
straight-curve $-1 -9.8797687526736553 4.9539280135037433 117.63676467100629 0.57357642473473569 0 -0.81915205242281985 I I #
coedge $-1 $315 $146 $229 $319 forward $237 $-1 #
coedge $-1 $146 $324 $148 $240 reversed $237 $-1 #
loop $-1 $-1 $315 $325 #
straight-curve $-1 67.139500106814779 4.9539280135037433 97.328016765247369 0 0 -1 I I #
coedge $-1 $326 $148 $327 $328 forward $138 $-1 #
edge $-1 $150 4.9539280135037433 $329 30.965064469259225 $236 $330 forward 7 unknown #
point $-1 61.817729545378441 4.9539280135037433 15.242122297773037 #
point $-1 67.139500106814779 4.9539280135037433 15.242122297773031 #
face $-1 $331 $332 $18 $-1 $333 forward single #
loop $-1 $-1 $334 $152 #
plane-surface $-1 100.11514986960526 -8.2604914481326421 194.65603353049474 0 1 0 0.81915205242281985 0 0.57357642473473569 forward_v I I I I #
loop $-1 $-1 $335 $86 #
coedge $-1 $248 $155 $336 $337 forward $87 $-1 #
coedge $-1 $155 $247 $338 $339 reversed $87 $-1 #
coedge $-1 $340 $341 $155 $250 forward $332 $-1 #
edge $-1 $342 11.76015461057581 $343 17.081925172012149 $249 $344 forward 7 unknown #
edge $-1 $345 1 $345 0 $156 $-1 forward 7 unknown #
vertex $-1 $157 $346 #
ellipse-curve $-1 60.601598436131304 -4.4849430305222491 8.7272681531694296 0.81915205242281985 0 0.57357642473473569 0.86036463710210354 0 -1.2287280786342298 1 I I #
point $-1 65.338979463198712 -4.4849430305222491 10.213256094615966 #
face $-1 $347 $167 $19 $-1 $348 forward single #
loop $-1 $-1 $349 $160 #
plane-surface $-1 100.11514986960526 4.9539280135037433 194.65603353049474 0 -1 0 -0.81915205242281985 0 -0.57357642473473569 forward_v I I I I #
loop $-1 $-1 $350 $94 #
coedge $-1 $259 $259 $260 $351 forward $161 $-1 #
coedge $-1 $260 $260 $259 $351 reversed $163 $-1 #
coedge $-1 $261 $261 $164 $262 forward $266 $-1 #
edge $-1 $352 0 $352 6.2831853071796004 $261 $353 forward 7 unknown #
edge $-1 $354 1 $354 0 $165 $-1 forward 7 unknown #
vertex $-1 $166 $355 #
ellipse-curve $-1 60.601598436131304 1.1783795958933467 8.7272681531694296 0.81915205242281985 0 0.57357642473473569 0.86036463710210354 0 -1.2287280786342298 1 I I #
loop $-1 $356 $261 $255 #
point $-1 65.338979463198712 1.1783795958933467 10.213256094615966 #
plane-surface $-1 67.139500106814779 0 0 -1 0 0 0 0 1 forward_v I I I I #
coedge $-1 $175 $173 $177 $273 reversed $103 $-1 #
edge $-1 $188 -15.242122297773031 $275 15.242122297773031 $187 $357 forward 7 unknown #
vertex $-1 $273 $358 #
straight-curve $-1 -67.139500106814779 -30.965064469259225 0 0 0 -1 I I #
edge $-1 $271 -30.965064469259225 $275 30.965064469259225 $269 $359 forward 7 unknown #
straight-curve $-1 0 -30.965064469259225 -15.242122297773031 -1 0 0 I I #
vertex $-1 $180 $360 #
straight-curve $-1 0 30.965064469259225 -15.242122297773031 1 0 0 I I #
point $-1 67.139500106814779 30.965064469259225 -15.242122297773031 #
point $-1 67.139500106814779 -30.965064469259225 -15.242122297773031 #
straight-curve $-1 -67.139500106814779 0 15.242122297773031 0 -1 0 I I #
point $-1 -67.139500106814779 30.965064469259225 15.242122297773031 #
point $-1 -67.139500106814779 -30.965064469259225 15.242122297773031 #
straight-curve $-1 67.139500106814779 -30.965064469259225 0 0 0 -1 I I #
straight-curve $-1 67.139500106814779 30.965064469259225 0 0 0 -1 I I #
face $-1 $361 $213 $16 $-1 $362 reversed single #
plane-surface $-1 0 0 15.242122297773031 0 0 1 1 0 0 forward_v I I I I #
coedge $-1 $363 $199 $364 $365 reversed $122 $-1 #
coedge $-1 $199 $363 $366 $367 reversed $122 $-1 #
coedge $-1 $366 $203 $200 $289 forward $213 $-1 #
edge $-1 $208 -7.9873288778834848 $292 7.9873288778834848 $200 $368 forward 7 unknown #
coedge $-1 $205 $364 $201 $291 forward $217 $-1 #
edge $-1 $293 -7.9873288778834848 $207 7.9873288778834848 $201 $369 forward 7 unknown #
vertex $-1 $367 $370 #
vertex $-1 $291 $371 #
straight-curve $-1 -67.139500106814779 -10.33690429736756 0 0 0 1 I I #
straight-curve $-1 -83.114157862581749 -14.085172288432513 -15.242122297773031 0 1 0 I I #
straight-curve $-1 -83.114157862581749 -14.085172288432513 15.242122297773031 0 -1 0 I I #
point $-1 -83.114157862581749 -10.33690429736756 15.242122297773031 #
point $-1 -83.114157862581749 -10.33690429736756 -15.242122297773031 #
coedge $-1 $372 $210 $212 $303 reversed $198 $-1 #
coedge $-1 $210 $372 $216 $307 reversed $198 $-1 #
straight-curve $-1 -67.139500106814779 -17.833440279497466 0 0 0 -1 I I #
coedge $-1 $212 $304 $373 $374 forward $213 $-1 #
edge $-1 $375 -30.965064469259225 $214 -17.833440279497466 $299 $376 forward 7 unknown #
coedge $-1 $302 $377 $378 $379 forward $213 $-1 #
point $-1 -67.139500106814779 -17.833440279497466 -15.242122297773031 #
coedge $-1 $308 $216 $380 $381 forward $217 $-1 #
edge $-1 $218 17.833440279497466 $382 30.965064469259225 $300 $383 forward 7 unknown #
coedge $-1 $384 $306 $385 $386 forward $217 $-1 #
point $-1 -67.139500106814779 -17.833440279497466 15.242122297773031 #
face $-1 $387 $388 $17 $-1 $389 reversed single #
loop $-1 $-1 $390 $222 #
plane-surface $-1 -83.114157862581749 -14.085172288432513 0 1 0 0 0 0 -1 forward_v I I I I #
coedge $-1 $391 $392 $393 $394 forward $223 $-1 #
coedge $-1 $225 $395 $396 $397 forward $138 $-1 #
coedge $-1 $396 $235 $226 $316 forward $237 $-1 #
edge $-1 $320 -89.686170716519968 $317 -82.085894467474333 $315 $398 forward 7 unknown #
vertex $-1 $316 $399 #
straight-curve $-1 50.057574934802631 -8.2604914481326421 15.242122297773037 -1 0 0 I I #
edge $-1 $233 -5.780568872160968 $320 7.4338505894754174 $235 $400 forward 7 unknown #
vertex $-1 $319 $401 #
straight-curve $-1 -9.8797687526736553 -8.2604914481326421 117.63676467100629 -0.57357642473473569 0 0.81915205242281985 I I #
point $-1 61.817729545378441 -8.2604914481326421 15.242122297773037 #
point $-1 67.139500106814779 4.9539280135037433 7.6418460487274018 #
coedge $-1 $236 $402 $403 $404 reversed $237 $-1 #
face $-1 $-1 $237 $17 $-1 $405 reversed single #
coedge $-1 $406 $239 $407 $408 forward $138 $-1 #
coedge $-1 $403 $409 $239 $328 reversed $410 $-1 #
edge $-1 $329 -67.139500106814779 $411 67.139500106814779 $327 $412 forward 7 unknown #
vertex $-1 $240 $413 #
straight-curve $-1 67.139500106814779 0 15.242122297773031 0 1 0 I I #
face $-1 $414 $415 $18 $-1 $416 reversed single #
loop $-1 $-1 $417 $243 #
plane-surface $-1 0 0 15.242122297773031 0 0 1 1 0 0 forward_v I I I I #
coedge $-1 $418 $419 $417 $420 reversed $244 $-1 #
coedge $-1 $421 $336 $341 $422 reversed $246 $-1 #
coedge $-1 $335 $423 $247 $337 reversed $246 $-1 #
edge $-1 $342 125.00077619335617 $424 134.27900021362956 $247 $425 forward 7 unknown #
coedge $-1 $426 $427 $248 $339 forward $428 $-1 #
edge $-1 $343 82.085894467474333 $424 89.686170716519968 $338 $429 forward 7 unknown #
coedge $-1 $430 $249 $427 $431 forward $332 $-1 #
coedge $-1 $249 $417 $335 $422 forward $332 $-1 #
vertex $-1 $422 $432 #
vertex $-1 $431 $433 #
straight-curve $-1 50.057574934802631 4.9539280135037433 15.242122297773037 1 0 0 I I #
vertex $-1 $251 $434 #
point $-1 61.461963073233406 -4.4849430305222491 7.4985400745351996 #
face $-1 $435 $436 $19 $-1 $437 forward single #
plane-surface $-1 -9.8797687526736553 -1.6532817173144494 117.63676467100629 0.81915205242281985 0 0.57357642473473569 0.57357642473473569 0 -0.81915205242281985 forward_v I I I I #
coedge $-1 $438 $439 $440 $441 reversed $256 $-1 #
coedge $-1 $350 $350 $-1 $442 forward $258 $-1 #
edge $-1 $443 0 $443 6.2831853071796004 $259 $444 forward 7 unknown #
vertex $-1 $262 $445 #
ellipse-curve $-1 64.478614826096617 -4.4849430305222491 11.44198417325021 -0.81915205242281985 0 -0.57357642473473569 0.86036463710210354 0 -1.2287280786342298 1 I I #
vertex $-1 $263 $446 #
point $-1 61.461963073233406 1.1783795958933467 7.4985400745351996 #
loop $-1 $-1 $447 $255 #
straight-curve $-1 -67.139500106814779 30.965064469259225 0 0 0 -1 I I #
point $-1 -67.139500106814779 -30.965064469259225 -15.242122297773031 #
straight-curve $-1 -67.139500106814779 0 -15.242122297773031 0 1 0 I I #
point $-1 -67.139500106814779 30.965064469259225 -15.242122297773031 #
face $-1 $448 $449 $16 $-1 $450 reversed single #
plane-surface $-1 0 0 -15.242122297773031 0 0 1 1 0 0 forward_v I I I I #
coedge $-1 $287 $286 $451 $452 forward $122 $-1 #
coedge $-1 $290 $384 $286 $365 forward $217 $-1 #
edge $-1 $453 -30.965064469259225 $293 10.33690429736756 $286 $383 forward 7 unknown #
coedge $-1 $377 $288 $287 $367 forward $213 $-1 #
edge $-1 $292 -10.33690429736756 $454 30.965064469259225 $287 $376 forward 7 unknown #
straight-curve $-1 -75.126828984698264 -10.33690429736756 -15.242122297773031 1 0 0 I I #
straight-curve $-1 -75.126828984698264 -10.33690429736756 15.242122297773031 -1 0 0 I I #
point $-1 -67.139500106814779 -10.33690429736756 -15.242122297773031 #
point $-1 -67.139500106814779 -10.33690429736756 15.242122297773031 #
coedge $-1 $300 $299 $455 $456 reversed $198 $-1 #
coedge $-1 $457 $455 $302 $374 reversed $449 $-1 #
edge $-1 $458 -67.139500106814779 $375 67.139500106814779 $373 $459 forward 7 unknown #
vertex $-1 $303 $460 #
straight-curve $-1 -67.139500106814779 0 -15.242122297773031 0 1 0 I I #
coedge $-1 $304 $366 $461 $462 forward $213 $-1 #
coedge $-1 $463 $464 $304 $379 reversed $465 $-1 #
edge $-1 $466 -30.965064469259225 $458 30.965064469259225 $378 $467 forward 7 unknown #
coedge $-1 $455 $457 $306 $381 reversed $449 $-1 #
edge $-1 $382 -67.139500106814779 $468 67.139500106814779 $380 $469 forward 7 unknown #
vertex $-1 $307 $470 #
straight-curve $-1 -67.139500106814779 0 15.242122297773031 0 -1 0 I I #
coedge $-1 $364 $308 $471 $472 forward $217 $-1 #
coedge $-1 $464 $463 $308 $386 reversed $465 $-1 #
edge $-1 $468 -30.965064469259225 $473 30.965064469259225 $385 $474 forward 7 unknown #
face $-1 $475 $476 $17 $-1 $477 reversed single #
loop $-1 $-1 $478 $310 #
plane-surface $-1 -75.126828984698264 -10.33690429736756 0 0 -1 0 0 0 -1 forward_v I I I I #
coedge $-1 $479 $480 $481 $482 forward $311 $-1 #
coedge $-1 $483 $313 $484 $485 reversed $223 $-1 #
coedge $-1 $313 $483 $486 $487 reversed $223 $-1 #
coedge $-1 $480 $479 $313 $394 reversed $311 $-1 #
edge $-1 $488 -15.242122297773031 $489 15.242122297773031 $393 $490 forward 7 unknown #
coedge $-1 $314 $491 $492 $493 forward $138 $-1 #
coedge $-1 $494 $315 $314 $397 reversed $237 $-1 #
edge $-1 $495 -30.965064469259225 $317 -8.2604914481326421 $396 $330 forward 7 unknown #
straight-curve $-1 67.139500106814779 -8.2604914481326421 97.328016765247369 0 0 1 I I #
point $-1 67.139500106814779 -8.2604914481326421 15.242122297773031 #
straight-curve $-1 67.139500106814779 -0.8266408586572247 7.6418460487273947 0 -1 0 I I #
point $-1 67.139500106814779 -8.2604914481326421 7.6418460487274018 #
coedge $-1 $324 $494 $496 $497 reversed $237 $-1 #
coedge $-1 $498 $327 $324 $404 forward $410 $-1 #
edge $-1 $329 -15.242122297773031 $499 15.242122297773031 $324 $500 forward 7 unknown #
plane-surface $-1 67.139500106814779 0 0 -1 0 0 0 0 1 forward_v I I I I #
coedge $-1 $501 $326 $502 $503 forward $138 $-1 #
coedge $-1 $504 $505 $326 $408 reversed $476 $-1 #
edge $-1 $411 -30.965064469259225 $506 10.33690429736756 $407 $507 forward 7 unknown #
coedge $-1 $327 $498 $504 $508 reversed $410 $-1 #
loop $-1 $-1 $403 $509 #
vertex $-1 $328 $510 #
straight-curve $-1 0 30.965064469259225 15.242122297773031 -1 0 0 I I #
point $-1 67.139500106814779 30.965064469259225 15.242122297773031 #
face $-1 $511 $512 $18 $-1 $513 reversed single #
loop $-1 $-1 $514 $331 #
plane-surface $-1 -75.126828984698264 -17.833440279497466 0 0 1 0 0 0 1 forward_v I I I I #
coedge $-1 $341 $515 $334 $420 forward $332 $-1 #
coedge $-1 $419 $334 $516 $517 reversed $244 $-1 #
coedge $-1 $334 $418 $421 $518 forward $244 $-1 #
edge $-1 $519 -17.081925172012149 $520 -11.76015461057581 $417 $521 forward 7 unknown #
coedge $-1 $423 $335 $419 $518 reversed $246 $-1 #
edge $-1 $520 -7.4338505894754174 $342 5.780568872160968 $341 $522 forward 7 unknown #
coedge $-1 $336 $421 $426 $523 reversed $246 $-1 #
vertex $-1 $523 $524 #
straight-curve $-1 -9.8797687526736553 4.9539280135037433 117.63676467100629 0.57357642473473569 0 -0.81915205242281985 I I #
coedge $-1 $516 $338 $423 $523 forward $428 $-1 #
coedge $-1 $338 $525 $340 $431 reversed $428 $-1 #
loop $-1 $-1 $516 $526 #
straight-curve $-1 67.139500106814779 4.9539280135037433 97.328016765247369 0 0 -1 I I #
coedge $-1 $527 $340 $528 $529 forward $332 $-1 #
edge $-1 $343 4.9539280135037433 $530 30.965064469259225 $427 $531 forward 7 unknown #
point $-1 61.817729545378441 4.9539280135037433 15.242122297773037 #
point $-1 67.139500106814779 4.9539280135037433 15.242122297773031 #
point $-1 59.372870357497071 -4.4849430305222491 7.8669035160673255 #
face $-1 $532 $533 $19 $-1 $534 forward single #
loop $-1 $-1 $535 $347 #
plane-surface $-1 100.11514986960526 -8.2604914481326421 194.65603353049474 0 1 0 0.81915205242281985 0 0.57357642473473569 forward_v I I I I #
coedge $-1 $439 $349 $536 $537 forward $256 $-1 #
coedge $-1 $349 $438 $538 $539 reversed $256 $-1 #
coedge $-1 $540 $541 $349 $441 forward $533 $-1 #
edge $-1 $542 11.76015461057581 $543 17.081925172012149 $440 $544 forward 7 unknown #
edge $-1 $545 1 $545 0 $350 $-1 forward 7 unknown #
vertex $-1 $351 $546 #
ellipse-curve $-1 60.601598436131304 -4.4849430305222491 8.7272681531694296 0.81915205242281985 0 0.57357642473473569 0.86036463710210354 0 -1.2287280786342298 1 I I #
point $-1 65.338979463198712 -4.4849430305222491 10.213256094615966 #
point $-1 59.372870357497071 1.1783795958933467 7.8669035160673255 #
coedge $-1 $547 $536 $541 $548 reversed $356 $-1 #
face $-1 $549 $550 $16 $-1 $551 reversed single #
loop $-1 $-1 $455 $361 #
plane-surface $-1 0 -30.965064469259225 0 0 1 0 0 0 1 forward_v I I I I #
coedge $-1 $471 $461 $363 $452 reversed $550 $-1 #
edge $-1 $453 -15.242122297773031 $454 15.242122297773031 $451 $552 forward 7 unknown #
vertex $-1 $472 $553 #
vertex $-1 $462 $554 #
coedge $-1 $373 $380 $372 $456 forward $449 $-1 #
edge $-1 $382 -15.242122297773031 $375 15.242122297773031 $372 $555 forward 7 unknown #
coedge $-1 $380 $373 $464 $556 reversed $449 $-1 #
vertex $-1 $556 $557 #
straight-curve $-1 0 -30.965064469259225 -15.242122297773031 -1 0 0 I I #
point $-1 -67.139500106814779 -30.965064469259225 -15.242122297773031 #
coedge $-1 $451 $558 $377 $462 reversed $550 $-1 #
edge $-1 $454 -67.139500106814779 $466 67.139500106814779 $461 $559 forward 7 unknown #
coedge $-1 $385 $378 $558 $560 reversed $465 $-1 #
coedge $-1 $378 $385 $457 $556 forward $465 $-1 #
loop $-1 $-1 $464 $549 #
vertex $-1 $379 $561 #
straight-curve $-1 67.139500106814779 0 -15.242122297773031 0 -1 0 I I #
vertex $-1 $386 $562 #
straight-curve $-1 0 -30.965064469259225 15.242122297773031 1 0 0 I I #
point $-1 -67.139500106814779 -30.965064469259225 15.242122297773031 #
coedge $-1 $558 $451 $384 $472 reversed $550 $-1 #
edge $-1 $473 -67.139500106814779 $453 67.139500106814779 $471 $563 forward 7 unknown #
vertex $-1 $386 $564 #
straight-curve $-1 67.139500106814779 0 15.242122297773031 0 1 0 I I #
face $-1 $565 $566 $17 $-1 $477 reversed single #
loop $-1 $-1 $505 $387 #
plane-surface $-1 -67.139500106814779 0 0 1 0 0 0 0 -1 forward_v I I I I #
coedge $-1 $567 $502 $505 $568 reversed $388 $-1 #
coedge $-1 $393 $390 $569 $570 reversed $311 $-1 #
coedge $-1 $390 $393 $501 $571 reversed $311 $-1 #
coedge $-1 $502 $567 $390 $482 reversed $388 $-1 #
edge $-1 $572 -15.242122297773031 $573 15.242122297773031 $481 $574 forward 7 unknown #
coedge $-1 $392 $391 $575 $576 reversed $223 $-1 #
coedge $-1 $569 $577 $391 $485 forward $578 $-1 #
edge $-1 $579 -7.9873288778834848 $489 7.9873288778834848 $391 $580 forward 7 unknown #
coedge $-1 $491 $501 $392 $487 forward $138 $-1 #
edge $-1 $488 -7.9873288778834848 $581 7.9873288778834848 $392 $582 forward 7 unknown #
vertex $-1 $571 $583 #
vertex $-1 $570 $584 #
straight-curve $-1 -83.114157862581749 -17.833440279497466 0 0 0 -1 I I #
coedge $-1 $395 $486 $585 $586 forward $138 $-1 #
coedge $-1 $587 $588 $395 $493 reversed $589 $-1 #
edge $-1 $590 -67.139500106814779 $495 67.139500106814779 $492 $591 forward 7 unknown #
coedge $-1 $402 $396 $588 $592 forward $237 $-1 #
vertex $-1 $397 $593 #
coedge $-1 $594 $595 $402 $497 forward $578 $-1 #
edge $-1 $499 -30.965064469259225 $596 30.965064469259225 $402 $597 forward 7 unknown #
coedge $-1 $409 $403 $595 $598 reversed $410 $-1 #
vertex $-1 $497 $599 #
straight-curve $-1 67.139500106814779 30.965064469259225 0 0 0 -1 I I #
coedge $-1 $486 $406 $480 $571 forward $138 $-1 #
coedge $-1 $478 $481 $406 $503 reversed $388 $-1 #
edge $-1 $506 -7.9873288778834848 $572 7.9873288778834848 $502 $600 forward 7 unknown #
coedge $-1 $601 $407 $409 $508 forward $476 $-1 #
coedge $-1 $407 $601 $478 $568 forward $476 $-1 #
vertex $-1 $503 $602 #
straight-curve $-1 -67.139500106814779 0 15.242122297773031 0 -1 0 I I #
edge $-1 $411 -15.242122297773031 $603 15.242122297773031 $409 $604 forward 7 unknown #
face $-1 $325 $410 $17 $-1 $605 reversed single #
point $-1 -67.139500106814779 30.965064469259225 15.242122297773031 #
face $-1 $606 $607 $18 $-1 $608 reversed single #
loop $-1 $-1 $609 $414 #
plane-surface $-1 -83.114157862581749 -14.085172288432513 0 1 0 0 0 0 -1 forward_v I I I I #
coedge $-1 $610 $611 $612 $613 forward $415 $-1 #
coedge $-1 $417 $614 $615 $616 forward $332 $-1 #
coedge $-1 $615 $426 $418 $517 forward $428 $-1 #
edge $-1 $617 -89.686170716519968 $519 -82.085894467474333 $516 $618 forward 7 unknown #
edge $-1 $617 -134.27900021362956 $520 -125.00077619335617 $419 $619 forward 7 unknown #
vertex $-1 $517 $620 #
vertex $-1 $422 $621 #
straight-curve $-1 50.057574934802631 -8.2604914481326421 15.242122297773037 -1 0 0 I I #
straight-curve $-1 61.817729545378427 -0.8266408586572247 15.242122297773037 0 1 0 I I #
edge $-1 $424 -5.780568872160968 $617 7.4338505894754174 $426 $622 forward 7 unknown #
point $-1 67.139500106814779 4.9539280135037433 7.6418460487274018 #
coedge $-1 $427 $623 $624 $625 reversed $428 $-1 #
face $-1 $-1 $428 $18 $-1 $626 reversed single #
coedge $-1 $627 $430 $628 $629 forward $332 $-1 #
coedge $-1 $624 $630 $430 $529 reversed $631 $-1 #
edge $-1 $530 -67.139500106814779 $632 67.139500106814779 $528 $633 forward 7 unknown #
vertex $-1 $431 $634 #
straight-curve $-1 67.139500106814779 0 15.242122297773031 0 1 0 I I #
face $-1 $635 $636 $19 $-1 $637 reversed single #
loop $-1 $-1 $638 $435 #
plane-surface $-1 0 0 15.242122297773031 0 0 1 1 0 0 forward_v I I I I #
coedge $-1 $639 $640 $638 $641 reversed $436 $-1 #
coedge $-1 $447 $642 $438 $537 reversed $356 $-1 #
edge $-1 $542 125.00077619335617 $643 134.27900021362956 $438 $644 forward 7 unknown #
coedge $-1 $645 $646 $439 $539 forward $647 $-1 #
edge $-1 $543 82.085894467474333 $643 89.686170716519968 $538 $648 forward 7 unknown #
coedge $-1 $649 $440 $646 $650 forward $533 $-1 #
coedge $-1 $440 $638 $447 $548 forward $533 $-1 #
vertex $-1 $548 $651 #
vertex $-1 $650 $652 #
straight-curve $-1 50.057574934802631 4.9539280135037433 15.242122297773037 1 0 0 I I #
vertex $-1 $442 $653 #
point $-1 61.461963073233406 -4.4849430305222491 7.4985400745351996 #
coedge $-1 $642 $447 $640 $654 reversed $356 $-1 #
edge $-1 $655 -7.4338505894754174 $542 5.780568872160968 $541 $656 forward 7 unknown #
face $-1 $-1 $465 $16 $-1 $657 reversed single #
loop $-1 $-1 $558 $448 #
plane-surface $-1 0 30.965064469259225 0 0 -1 0 0 0 -1 forward_v I I I I #
straight-curve $-1 -67.139500106814779 30.965064469259225 0 0 0 -1 I I #
point $-1 -67.139500106814779 30.965064469259225 15.242122297773031 #
point $-1 -67.139500106814779 30.965064469259225 -15.242122297773031 #
straight-curve $-1 -67.139500106814779 -30.965064469259225 0 0 0 -1 I I #
edge $-1 $468 -15.242122297773031 $458 15.242122297773031 $464 $658 forward 7 unknown #
point $-1 67.139500106814779 -30.965064469259225 -15.242122297773031 #
coedge $-1 $461 $471 $463 $560 forward $550 $-1 #
straight-curve $-1 0 30.965064469259225 -15.242122297773031 1 0 0 I I #
edge $-1 $473 -15.242122297773031 $466 15.242122297773031 $463 $659 forward 7 unknown #
point $-1 67.139500106814779 30.965064469259225 -15.242122297773031 #
point $-1 67.139500106814779 -30.965064469259225 15.242122297773031 #
straight-curve $-1 0 30.965064469259225 15.242122297773031 -1 0 0 I I #
point $-1 67.139500106814779 30.965064469259225 15.242122297773031 #
face $-1 $660 $578 $17 $-1 $661 reversed single #
loop $-1 $-1 $575 $475 #
coedge $-1 $481 $478 $662 $663 reversed $388 $-1 #
edge $-1 $664 -15.242122297773031 $506 15.242122297773031 $505 $665 forward 7 unknown #
coedge $-1 $662 $484 $479 $570 forward $578 $-1 #
edge $-1 $489 -3.748267991064953 $573 3.748267991064953 $479 $666 forward 7 unknown #
edge $-1 $572 -3.748267991064953 $488 3.748267991064953 $480 $667 forward 7 unknown #
vertex $-1 $503 $668 #
vertex $-1 $663 $669 #
straight-curve $-1 -83.114157862581749 -10.33690429736756 0 0 0 -1 I I #
coedge $-1 $670 $585 $483 $576 forward $566 $-1 #
edge $-1 $581 -15.242122297773031 $579 15.242122297773031 $575 $671 forward 7 unknown #
coedge $-1 $484 $594 $670 $672 forward $578 $-1 #
loop $-1 $-1 $496 $565 #
vertex $-1 $485 $673 #
straight-curve $-1 -75.126828984698264 -17.833440279497466 -15.242122297773031 -1 0 0 I I #
vertex $-1 $586 $674 #
straight-curve $-1 -75.126828984698264 -17.833440279497466 15.242122297773031 1 0 0 I I #
point $-1 -83.114157862581749 -17.833440279497466 15.242122297773031 #
point $-1 -83.114157862581749 -17.833440279497466 -15.242122297773031 #
coedge $-1 $575 $675 $491 $586 reversed $566 $-1 #
edge $-1 $581 17.833440279497466 $590 30.965064469259225 $585 $507 forward 7 unknown #
coedge $-1 $676 $492 $675 $677 forward $589 $-1 #
coedge $-1 $492 $676 $494 $592 reversed $589 $-1 #
loop $-1 $-1 $587 $660 #
vertex $-1 $586 $678 #
straight-curve $-1 0 -30.965064469259225 15.242122297773031 1 0 0 I I #
edge $-1 $495 -15.242122297773031 $596 15.242122297773031 $494 $679 forward 7 unknown #
point $-1 67.139500106814779 -30.965064469259225 15.242122297773031 #
coedge $-1 $577 $496 $676 $680 forward $578 $-1 #
coedge $-1 $496 $681 $498 $598 forward $578 $-1 #
vertex $-1 $592 $682 #
straight-curve $-1 67.139500106814779 0 -15.242122297773031 0 -1 0 I I #
edge $-1 $603 -67.139500106814779 $499 67.139500106814779 $498 $683 forward 7 unknown #
point $-1 67.139500106814779 30.965064469259225 -15.242122297773031 #
straight-curve $-1 -75.126828984698264 -10.33690429736756 15.242122297773031 -1 0 0 I I #
coedge $-1 $505 $504 $681 $684 reversed $476 $-1 #
point $-1 -67.139500106814779 -10.33690429736756 15.242122297773031 #
vertex $-1 $598 $685 #
straight-curve $-1 -67.139500106814779 30.965064469259225 0 0 0 -1 I I #
plane-surface $-1 0 30.965064469259225 0 0 -1 0 0 0 -1 forward_v I I I I #
face $-1 $686 $687 $18 $-1 $688 reversed single #
loop $-1 $-1 $689 $511 #
plane-surface $-1 -75.126828984698264 -10.33690429736756 0 0 -1 0 0 0 -1 forward_v I I I I #
coedge $-1 $690 $691 $692 $693 forward $512 $-1 #
coedge $-1 $694 $514 $695 $696 reversed $415 $-1 #
coedge $-1 $514 $694 $697 $698 reversed $415 $-1 #
coedge $-1 $691 $690 $514 $613 reversed $512 $-1 #
edge $-1 $699 -15.242122297773031 $700 15.242122297773031 $612 $701 forward 7 unknown #
coedge $-1 $515 $702 $703 $704 forward $332 $-1 #
coedge $-1 $705 $516 $515 $616 reversed $428 $-1 #
edge $-1 $706 -30.965064469259225 $519 -8.2604914481326421 $615 $531 forward 7 unknown #
vertex $-1 $523 $707 #
straight-curve $-1 67.139500106814779 -8.2604914481326421 97.328016765247369 0 0 1 I I #
straight-curve $-1 -9.8797687526736553 -8.2604914481326421 117.63676467100629 -0.57357642473473569 0 0.81915205242281985 I I #
point $-1 67.139500106814779 -8.2604914481326421 15.242122297773031 #
point $-1 61.817729545378441 -8.2604914481326421 15.242122297773037 #
straight-curve $-1 67.139500106814779 -0.8266408586572247 7.6418460487273947 0 -1 0 I I #
coedge $-1 $525 $705 $708 $709 reversed $428 $-1 #
coedge $-1 $710 $528 $525 $625 forward $631 $-1 #
edge $-1 $530 -15.242122297773031 $711 15.242122297773031 $525 $712 forward 7 unknown #
plane-surface $-1 67.139500106814779 0 0 -1 0 0 0 0 1 forward_v I I I I #
coedge $-1 $713 $527 $714 $715 forward $332 $-1 #
coedge $-1 $716 $717 $527 $629 reversed $687 $-1 #
edge $-1 $632 -30.965064469259225 $718 10.33690429736756 $628 $719 forward 7 unknown #
coedge $-1 $528 $710 $716 $720 reversed $631 $-1 #
loop $-1 $-1 $624 $721 #
vertex $-1 $529 $722 #
straight-curve $-1 0 30.965064469259225 15.242122297773031 -1 0 0 I I #
point $-1 67.139500106814779 30.965064469259225 15.242122297773031 #
face $-1 $723 $724 $19 $-1 $725 reversed single #
loop $-1 $-1 $726 $532 #
plane-surface $-1 -75.126828984698264 -17.833440279497466 0 0 1 0 0 0 1 forward_v I I I I #
coedge $-1 $541 $727 $535 $641 forward $533 $-1 #
coedge $-1 $640 $535 $728 $729 reversed $436 $-1 #
coedge $-1 $535 $639 $547 $654 forward $436 $-1 #
edge $-1 $730 -17.081925172012149 $655 -11.76015461057581 $638 $731 forward 7 unknown #
coedge $-1 $536 $547 $645 $732 reversed $356 $-1 #
vertex $-1 $732 $733 #
straight-curve $-1 -9.8797687526736553 4.9539280135037433 117.63676467100629 0.57357642473473569 0 -0.81915205242281985 I I #
coedge $-1 $728 $538 $642 $732 forward $647 $-1 #
coedge $-1 $538 $734 $540 $650 reversed $647 $-1 #
loop $-1 $-1 $728 $735 #
straight-curve $-1 67.139500106814779 4.9539280135037433 97.328016765247369 0 0 -1 I I #
coedge $-1 $736 $540 $737 $738 forward $533 $-1 #
edge $-1 $543 4.9539280135037433 $739 30.965064469259225 $646 $740 forward 7 unknown #
point $-1 61.817729545378441 4.9539280135037433 15.242122297773037 #
point $-1 67.139500106814779 4.9539280135037433 15.242122297773031 #
point $-1 59.372870357497071 -4.4849430305222491 7.8669035160673255 #
edge $-1 $741 -134.27900021362956 $655 -125.00077619335617 $640 $742 forward 7 unknown #
vertex $-1 $548 $743 #
straight-curve $-1 61.817729545378427 -0.8266408586572247 15.242122297773037 0 1 0 I I #
plane-surface $-1 67.139500106814779 0 0 -1 0 0 0 0 1 forward_v I I I I #
straight-curve $-1 67.139500106814779 -30.965064469259225 0 0 0 -1 I I #
straight-curve $-1 67.139500106814779 30.965064469259225 0 0 0 -1 I I #
face $-1 $509 $589 $17 $-1 $744 reversed single #
plane-surface $-1 0 0 -15.242122297773031 0 0 1 1 0 0 forward_v I I I I #
coedge $-1 $681 $569 $567 $663 forward $578 $-1 #
edge $-1 $573 -7.9873288778834848 $664 7.9873288778834848 $567 $745 forward 7 unknown #
vertex $-1 $684 $746 #
straight-curve $-1 -67.139500106814779 -10.33690429736756 0 0 0 1 I I #
straight-curve $-1 -83.114157862581749 -14.085172288432513 -15.242122297773031 0 1 0 I I #
straight-curve $-1 -83.114157862581749 -14.085172288432513 15.242122297773031 0 -1 0 I I #
point $-1 -83.114157862581749 -10.33690429736756 15.242122297773031 #
point $-1 -83.114157862581749 -10.33690429736756 -15.242122297773031 #
coedge $-1 $675 $575 $577 $672 reversed $566 $-1 #
straight-curve $-1 -67.139500106814779 -17.833440279497466 0 0 0 -1 I I #
edge $-1 $747 -30.965064469259225 $579 -17.833440279497466 $670 $748 forward 7 unknown #
point $-1 -67.139500106814779 -17.833440279497466 -15.242122297773031 #
point $-1 -67.139500106814779 -17.833440279497466 15.242122297773031 #
coedge $-1 $585 $670 $587 $677 reversed $566 $-1 #
coedge $-1 $588 $587 $594 $680 reversed $589 $-1 #
edge $-1 $590 -15.242122297773031 $747 15.242122297773031 $675 $749 forward 7 unknown #
point $-1 -67.139500106814779 -30.965064469259225 15.242122297773031 #
straight-curve $-1 67.139500106814779 -30.965064469259225 0 0 0 -1 I I #
edge $-1 $596 -67.139500106814779 $747 67.139500106814779 $676 $750 forward 7 unknown #
coedge $-1 $595 $662 $601 $684 forward $578 $-1 #
point $-1 67.139500106814779 -30.965064469259225 -15.242122297773031 #
straight-curve $-1 0 30.965064469259225 -15.242122297773031 1 0 0 I I #
edge $-1 $664 -10.33690429736756 $603 30.965064469259225 $601 $748 forward 7 unknown #
point $-1 -67.139500106814779 30.965064469259225 -15.242122297773031 #
face $-1 $751 $752 $18 $-1 $688 reversed single #
loop $-1 $-1 $717 $606 #
plane-surface $-1 -67.139500106814779 0 0 1 0 0 0 0 -1 forward_v I I I I #
coedge $-1 $753 $714 $717 $754 reversed $607 $-1 #
coedge $-1 $612 $609 $755 $756 reversed $512 $-1 #
coedge $-1 $609 $612 $713 $757 reversed $512 $-1 #
coedge $-1 $714 $753 $609 $693 reversed $607 $-1 #
edge $-1 $758 -15.242122297773031 $759 15.242122297773031 $692 $760 forward 7 unknown #
coedge $-1 $611 $610 $761 $762 reversed $415 $-1 #
coedge $-1 $755 $763 $610 $696 forward $764 $-1 #
edge $-1 $765 -7.9873288778834848 $700 7.9873288778834848 $610 $766 forward 7 unknown #
coedge $-1 $702 $713 $611 $698 forward $332 $-1 #
edge $-1 $699 -7.9873288778834848 $767 7.9873288778834848 $611 $768 forward 7 unknown #
vertex $-1 $757 $769 #
vertex $-1 $756 $770 #
straight-curve $-1 -83.114157862581749 -17.833440279497466 0 0 0 -1 I I #
coedge $-1 $614 $697 $771 $772 forward $332 $-1 #
coedge $-1 $773 $774 $614 $704 reversed $775 $-1 #
edge $-1 $776 -67.139500106814779 $706 67.139500106814779 $703 $777 forward 7 unknown #
coedge $-1 $623 $615 $774 $778 forward $428 $-1 #
vertex $-1 $616 $779 #
point $-1 67.139500106814779 -8.2604914481326421 7.6418460487274018 #
coedge $-1 $780 $781 $623 $709 forward $764 $-1 #
edge $-1 $711 -30.965064469259225 $782 30.965064469259225 $623 $783 forward 7 unknown #
coedge $-1 $630 $624 $781 $784 reversed $631 $-1 #
vertex $-1 $709 $785 #
straight-curve $-1 67.139500106814779 30.965064469259225 0 0 0 -1 I I #
coedge $-1 $697 $627 $691 $757 forward $332 $-1 #
coedge $-1 $689 $692 $627 $715 reversed $607 $-1 #
edge $-1 $718 -7.9873288778834848 $758 7.9873288778834848 $714 $786 forward 7 unknown #
coedge $-1 $787 $628 $630 $720 forward $687 $-1 #
coedge $-1 $628 $787 $689 $754 forward $687 $-1 #
vertex $-1 $715 $788 #
straight-curve $-1 -67.139500106814779 0 15.242122297773031 0 -1 0 I I #
edge $-1 $632 -15.242122297773031 $789 15.242122297773031 $630 $790 forward 7 unknown #
face $-1 $526 $631 $18 $-1 $791 reversed single #
point $-1 -67.139500106814779 30.965064469259225 15.242122297773031 #
face $-1 $792 $793 $19 $-1 $794 reversed single #
loop $-1 $-1 $795 $635 #
plane-surface $-1 -83.114157862581749 -14.085172288432513 0 1 0 0 0 0 -1 forward_v I I I I #
coedge $-1 $796 $797 $798 $799 forward $636 $-1 #
coedge $-1 $638 $800 $801 $802 forward $533 $-1 #
coedge $-1 $801 $645 $639 $729 forward $647 $-1 #
edge $-1 $741 -89.686170716519968 $730 -82.085894467474333 $728 $803 forward 7 unknown #
vertex $-1 $729 $804 #
straight-curve $-1 50.057574934802631 -8.2604914481326421 15.242122297773037 -1 0 0 I I #
edge $-1 $643 -5.780568872160968 $741 7.4338505894754174 $645 $805 forward 7 unknown #
point $-1 67.139500106814779 4.9539280135037433 7.6418460487274018 #
coedge $-1 $646 $806 $807 $808 reversed $647 $-1 #
face $-1 $-1 $647 $19 $-1 $809 reversed single #
coedge $-1 $810 $649 $811 $812 forward $533 $-1 #
coedge $-1 $807 $813 $649 $738 reversed $814 $-1 #
edge $-1 $739 -67.139500106814779 $815 67.139500106814779 $737 $816 forward 7 unknown #
vertex $-1 $650 $817 #
straight-curve $-1 67.139500106814779 0 15.242122297773031 0 1 0 I I #
vertex $-1 $732 $818 #
straight-curve $-1 -9.8797687526736553 -8.2604914481326421 117.63676467100629 -0.57357642473473569 0 0.81915205242281985 I I #
point $-1 61.817729545378441 -8.2604914481326421 15.242122297773037 #
plane-surface $-1 0 -30.965064469259225 0 0 1 0 0 0 1 forward_v I I I I #
straight-curve $-1 -75.126828984698264 -10.33690429736756 -15.242122297773031 1 0 0 I I #
point $-1 -67.139500106814779 -10.33690429736756 -15.242122297773031 #
vertex $-1 $672 $819 #
straight-curve $-1 -67.139500106814779 0 -15.242122297773031 0 1 0 I I #
straight-curve $-1 -67.139500106814779 -30.965064469259225 0 0 0 -1 I I #
straight-curve $-1 0 -30.965064469259225 -15.242122297773031 -1 0 0 I I #
face $-1 $820 $764 $18 $-1 $821 reversed single #
loop $-1 $-1 $761 $686 #
coedge $-1 $692 $689 $822 $823 reversed $607 $-1 #
edge $-1 $824 -15.242122297773031 $718 15.242122297773031 $717 $825 forward 7 unknown #
coedge $-1 $822 $695 $690 $756 forward $764 $-1 #
edge $-1 $700 -3.748267991064953 $759 3.748267991064953 $690 $826 forward 7 unknown #
edge $-1 $758 -3.748267991064953 $699 3.748267991064953 $691 $827 forward 7 unknown #
vertex $-1 $715 $828 #
vertex $-1 $823 $829 #
straight-curve $-1 -83.114157862581749 -10.33690429736756 0 0 0 -1 I I #
coedge $-1 $830 $771 $694 $762 forward $752 $-1 #
edge $-1 $767 -15.242122297773031 $765 15.242122297773031 $761 $831 forward 7 unknown #
coedge $-1 $695 $780 $830 $832 forward $764 $-1 #
loop $-1 $-1 $708 $751 #
vertex $-1 $696 $833 #
straight-curve $-1 -75.126828984698264 -17.833440279497466 -15.242122297773031 -1 0 0 I I #
vertex $-1 $772 $834 #
straight-curve $-1 -75.126828984698264 -17.833440279497466 15.242122297773031 1 0 0 I I #
point $-1 -83.114157862581749 -17.833440279497466 15.242122297773031 #
point $-1 -83.114157862581749 -17.833440279497466 -15.242122297773031 #
coedge $-1 $761 $835 $702 $772 reversed $752 $-1 #
edge $-1 $767 17.833440279497466 $776 30.965064469259225 $771 $719 forward 7 unknown #
coedge $-1 $836 $703 $835 $837 forward $775 $-1 #
coedge $-1 $703 $836 $705 $778 reversed $775 $-1 #
loop $-1 $-1 $773 $820 #
vertex $-1 $772 $838 #
straight-curve $-1 0 -30.965064469259225 15.242122297773031 1 0 0 I I #
edge $-1 $706 -15.242122297773031 $782 15.242122297773031 $705 $839 forward 7 unknown #
point $-1 67.139500106814779 -30.965064469259225 15.242122297773031 #
coedge $-1 $763 $708 $836 $840 forward $764 $-1 #
coedge $-1 $708 $841 $710 $784 forward $764 $-1 #
vertex $-1 $778 $842 #
straight-curve $-1 67.139500106814779 0 -15.242122297773031 0 -1 0 I I #
edge $-1 $789 -67.139500106814779 $711 67.139500106814779 $710 $843 forward 7 unknown #
point $-1 67.139500106814779 30.965064469259225 -15.242122297773031 #
straight-curve $-1 -75.126828984698264 -10.33690429736756 15.242122297773031 -1 0 0 I I #
coedge $-1 $717 $716 $841 $844 reversed $687 $-1 #
point $-1 -67.139500106814779 -10.33690429736756 15.242122297773031 #
vertex $-1 $784 $845 #
straight-curve $-1 -67.139500106814779 30.965064469259225 0 0 0 -1 I I #
plane-surface $-1 0 30.965064469259225 0 0 -1 0 0 0 -1 forward_v I I I I #
face $-1 $846 $847 $19 $-1 $848 reversed single #
loop $-1 $-1 $849 $723 #
plane-surface $-1 -75.126828984698264 -10.33690429736756 0 0 -1 0 0 0 -1 forward_v I I I I #
coedge $-1 $850 $851 $852 $853 forward $724 $-1 #
coedge $-1 $854 $726 $855 $856 reversed $636 $-1 #
coedge $-1 $726 $854 $857 $858 reversed $636 $-1 #
coedge $-1 $851 $850 $726 $799 reversed $724 $-1 #
edge $-1 $859 -15.242122297773031 $860 15.242122297773031 $798 $861 forward 7 unknown #
coedge $-1 $727 $862 $863 $864 forward $533 $-1 #
coedge $-1 $865 $728 $727 $802 reversed $647 $-1 #
edge $-1 $866 -30.965064469259225 $730 -8.2604914481326421 $801 $740 forward 7 unknown #
straight-curve $-1 67.139500106814779 -8.2604914481326421 97.328016765247369 0 0 1 I I #
point $-1 67.139500106814779 -8.2604914481326421 15.242122297773031 #
straight-curve $-1 67.139500106814779 -0.8266408586572247 7.6418460487273947 0 -1 0 I I #
coedge $-1 $734 $865 $867 $868 reversed $647 $-1 #
coedge $-1 $869 $737 $734 $808 forward $814 $-1 #
edge $-1 $739 -15.242122297773031 $870 15.242122297773031 $734 $871 forward 7 unknown #
plane-surface $-1 67.139500106814779 0 0 -1 0 0 0 0 1 forward_v I I I I #
coedge $-1 $872 $736 $873 $874 forward $533 $-1 #
coedge $-1 $875 $876 $736 $812 reversed $847 $-1 #
edge $-1 $815 -30.965064469259225 $877 10.33690429736756 $811 $878 forward 7 unknown #
coedge $-1 $737 $869 $875 $879 reversed $814 $-1 #
loop $-1 $-1 $807 $880 #
vertex $-1 $738 $881 #
straight-curve $-1 0 30.965064469259225 15.242122297773031 -1 0 0 I I #
point $-1 67.139500106814779 30.965064469259225 15.242122297773031 #
point $-1 67.139500106814779 -8.2604914481326421 7.6418460487274018 #
point $-1 -67.139500106814779 -30.965064469259225 -15.242122297773031 #
face $-1 $721 $775 $18 $-1 $882 reversed single #
plane-surface $-1 0 0 -15.242122297773031 0 0 1 1 0 0 forward_v I I I I #
coedge $-1 $841 $755 $753 $823 forward $764 $-1 #
edge $-1 $759 -7.9873288778834848 $824 7.9873288778834848 $753 $883 forward 7 unknown #
vertex $-1 $844 $884 #
straight-curve $-1 -67.139500106814779 -10.33690429736756 0 0 0 1 I I #
straight-curve $-1 -83.114157862581749 -14.085172288432513 -15.242122297773031 0 1 0 I I #
straight-curve $-1 -83.114157862581749 -14.085172288432513 15.242122297773031 0 -1 0 I I #
point $-1 -83.114157862581749 -10.33690429736756 15.242122297773031 #
point $-1 -83.114157862581749 -10.33690429736756 -15.242122297773031 #
coedge $-1 $835 $761 $763 $832 reversed $752 $-1 #
straight-curve $-1 -67.139500106814779 -17.833440279497466 0 0 0 -1 I I #
edge $-1 $885 -30.965064469259225 $765 -17.833440279497466 $830 $886 forward 7 unknown #
point $-1 -67.139500106814779 -17.833440279497466 -15.242122297773031 #
point $-1 -67.139500106814779 -17.833440279497466 15.242122297773031 #
coedge $-1 $771 $830 $773 $837 reversed $752 $-1 #
coedge $-1 $774 $773 $780 $840 reversed $775 $-1 #
edge $-1 $776 -15.242122297773031 $885 15.242122297773031 $835 $887 forward 7 unknown #
point $-1 -67.139500106814779 -30.965064469259225 15.242122297773031 #
straight-curve $-1 67.139500106814779 -30.965064469259225 0 0 0 -1 I I #
edge $-1 $782 -67.139500106814779 $885 67.139500106814779 $836 $888 forward 7 unknown #
coedge $-1 $781 $822 $787 $844 forward $764 $-1 #
point $-1 67.139500106814779 -30.965064469259225 -15.242122297773031 #
straight-curve $-1 0 30.965064469259225 -15.242122297773031 1 0 0 I I #
edge $-1 $824 -10.33690429736756 $789 30.965064469259225 $787 $886 forward 7 unknown #
point $-1 -67.139500106814779 30.965064469259225 -15.242122297773031 #
face $-1 $889 $890 $19 $-1 $848 reversed single #
loop $-1 $-1 $876 $792 #
plane-surface $-1 -67.139500106814779 0 0 1 0 0 0 0 -1 forward_v I I I I #
coedge $-1 $891 $873 $876 $892 reversed $793 $-1 #
coedge $-1 $798 $795 $893 $894 reversed $724 $-1 #
coedge $-1 $795 $798 $872 $895 reversed $724 $-1 #
coedge $-1 $873 $891 $795 $853 reversed $793 $-1 #
edge $-1 $896 -15.242122297773031 $897 15.242122297773031 $852 $898 forward 7 unknown #
coedge $-1 $797 $796 $899 $900 reversed $636 $-1 #
coedge $-1 $893 $901 $796 $856 forward $902 $-1 #
edge $-1 $903 -7.9873288778834848 $860 7.9873288778834848 $796 $904 forward 7 unknown #
coedge $-1 $862 $872 $797 $858 forward $533 $-1 #
edge $-1 $859 -7.9873288778834848 $905 7.9873288778834848 $797 $906 forward 7 unknown #
vertex $-1 $895 $907 #
vertex $-1 $894 $908 #
straight-curve $-1 -83.114157862581749 -17.833440279497466 0 0 0 -1 I I #
coedge $-1 $800 $857 $909 $910 forward $533 $-1 #
coedge $-1 $911 $912 $800 $864 reversed $913 $-1 #
edge $-1 $914 -67.139500106814779 $866 67.139500106814779 $863 $915 forward 7 unknown #
coedge $-1 $806 $801 $912 $916 forward $647 $-1 #
vertex $-1 $802 $917 #
coedge $-1 $918 $919 $806 $868 forward $902 $-1 #
edge $-1 $870 -30.965064469259225 $920 30.965064469259225 $806 $921 forward 7 unknown #
coedge $-1 $813 $807 $919 $922 reversed $814 $-1 #
vertex $-1 $868 $923 #
straight-curve $-1 67.139500106814779 30.965064469259225 0 0 0 -1 I I #
coedge $-1 $857 $810 $851 $895 forward $533 $-1 #
coedge $-1 $849 $852 $810 $874 reversed $793 $-1 #
edge $-1 $877 -7.9873288778834848 $896 7.9873288778834848 $873 $924 forward 7 unknown #
coedge $-1 $925 $811 $813 $879 forward $847 $-1 #
coedge $-1 $811 $925 $849 $892 forward $847 $-1 #
vertex $-1 $874 $926 #
straight-curve $-1 -67.139500106814779 0 15.242122297773031 0 -1 0 I I #
edge $-1 $815 -15.242122297773031 $927 15.242122297773031 $813 $928 forward 7 unknown #
face $-1 $735 $814 $19 $-1 $929 reversed single #
point $-1 -67.139500106814779 30.965064469259225 15.242122297773031 #
plane-surface $-1 0 -30.965064469259225 0 0 1 0 0 0 1 forward_v I I I I #
straight-curve $-1 -75.126828984698264 -10.33690429736756 -15.242122297773031 1 0 0 I I #
point $-1 -67.139500106814779 -10.33690429736756 -15.242122297773031 #
vertex $-1 $832 $930 #
straight-curve $-1 -67.139500106814779 0 -15.242122297773031 0 1 0 I I #
straight-curve $-1 -67.139500106814779 -30.965064469259225 0 0 0 -1 I I #
straight-curve $-1 0 -30.965064469259225 -15.242122297773031 -1 0 0 I I #
face $-1 $931 $902 $19 $-1 $932 reversed single #
loop $-1 $-1 $899 $846 #
coedge $-1 $852 $849 $933 $934 reversed $793 $-1 #
edge $-1 $935 -15.242122297773031 $877 15.242122297773031 $876 $936 forward 7 unknown #
coedge $-1 $933 $855 $850 $894 forward $902 $-1 #
edge $-1 $860 -3.748267991064953 $897 3.748267991064953 $850 $937 forward 7 unknown #
edge $-1 $896 -3.748267991064953 $859 3.748267991064953 $851 $938 forward 7 unknown #
vertex $-1 $874 $939 #
vertex $-1 $934 $940 #
straight-curve $-1 -83.114157862581749 -10.33690429736756 0 0 0 -1 I I #
coedge $-1 $941 $909 $854 $900 forward $890 $-1 #
edge $-1 $905 -15.242122297773031 $903 15.242122297773031 $899 $942 forward 7 unknown #
coedge $-1 $855 $918 $941 $943 forward $902 $-1 #
loop $-1 $-1 $867 $889 #
vertex $-1 $856 $944 #
straight-curve $-1 -75.126828984698264 -17.833440279497466 -15.242122297773031 -1 0 0 I I #
vertex $-1 $910 $945 #
straight-curve $-1 -75.126828984698264 -17.833440279497466 15.242122297773031 1 0 0 I I #
point $-1 -83.114157862581749 -17.833440279497466 15.242122297773031 #
point $-1 -83.114157862581749 -17.833440279497466 -15.242122297773031 #
coedge $-1 $899 $946 $862 $910 reversed $890 $-1 #
edge $-1 $905 17.833440279497466 $914 30.965064469259225 $909 $878 forward 7 unknown #
coedge $-1 $947 $863 $946 $948 forward $913 $-1 #
coedge $-1 $863 $947 $865 $916 reversed $913 $-1 #
loop $-1 $-1 $911 $931 #
vertex $-1 $910 $949 #
straight-curve $-1 0 -30.965064469259225 15.242122297773031 1 0 0 I I #
edge $-1 $866 -15.242122297773031 $920 15.242122297773031 $865 $950 forward 7 unknown #
point $-1 67.139500106814779 -30.965064469259225 15.242122297773031 #
coedge $-1 $901 $867 $947 $951 forward $902 $-1 #
coedge $-1 $867 $952 $869 $922 forward $902 $-1 #
vertex $-1 $916 $953 #
straight-curve $-1 67.139500106814779 0 -15.242122297773031 0 -1 0 I I #
edge $-1 $927 -67.139500106814779 $870 67.139500106814779 $869 $954 forward 7 unknown #
point $-1 67.139500106814779 30.965064469259225 -15.242122297773031 #
straight-curve $-1 -75.126828984698264 -10.33690429736756 15.242122297773031 -1 0 0 I I #
coedge $-1 $876 $875 $952 $955 reversed $847 $-1 #
point $-1 -67.139500106814779 -10.33690429736756 15.242122297773031 #
vertex $-1 $922 $956 #
straight-curve $-1 -67.139500106814779 30.965064469259225 0 0 0 -1 I I #
plane-surface $-1 0 30.965064469259225 0 0 -1 0 0 0 -1 forward_v I I I I #
point $-1 -67.139500106814779 -30.965064469259225 -15.242122297773031 #
face $-1 $880 $913 $19 $-1 $957 reversed single #
plane-surface $-1 0 0 -15.242122297773031 0 0 1 1 0 0 forward_v I I I I #
coedge $-1 $952 $893 $891 $934 forward $902 $-1 #
edge $-1 $897 -7.9873288778834848 $935 7.9873288778834848 $891 $958 forward 7 unknown #
vertex $-1 $955 $959 #
straight-curve $-1 -67.139500106814779 -10.33690429736756 0 0 0 1 I I #
straight-curve $-1 -83.114157862581749 -14.085172288432513 -15.242122297773031 0 1 0 I I #
straight-curve $-1 -83.114157862581749 -14.085172288432513 15.242122297773031 0 -1 0 I I #
point $-1 -83.114157862581749 -10.33690429736756 15.242122297773031 #
point $-1 -83.114157862581749 -10.33690429736756 -15.242122297773031 #
coedge $-1 $946 $899 $901 $943 reversed $890 $-1 #
straight-curve $-1 -67.139500106814779 -17.833440279497466 0 0 0 -1 I I #
edge $-1 $960 -30.965064469259225 $903 -17.833440279497466 $941 $961 forward 7 unknown #
point $-1 -67.139500106814779 -17.833440279497466 -15.242122297773031 #
point $-1 -67.139500106814779 -17.833440279497466 15.242122297773031 #
coedge $-1 $909 $941 $911 $948 reversed $890 $-1 #
coedge $-1 $912 $911 $918 $951 reversed $913 $-1 #
edge $-1 $914 -15.242122297773031 $960 15.242122297773031 $946 $962 forward 7 unknown #
point $-1 -67.139500106814779 -30.965064469259225 15.242122297773031 #
straight-curve $-1 67.139500106814779 -30.965064469259225 0 0 0 -1 I I #
edge $-1 $920 -67.139500106814779 $960 67.139500106814779 $947 $963 forward 7 unknown #
coedge $-1 $919 $933 $925 $955 forward $902 $-1 #
point $-1 67.139500106814779 -30.965064469259225 -15.242122297773031 #
straight-curve $-1 0 30.965064469259225 -15.242122297773031 1 0 0 I I #
edge $-1 $935 -10.33690429736756 $927 30.965064469259225 $925 $961 forward 7 unknown #
point $-1 -67.139500106814779 30.965064469259225 -15.242122297773031 #
plane-surface $-1 0 -30.965064469259225 0 0 1 0 0 0 1 forward_v I I I I #
straight-curve $-1 -75.126828984698264 -10.33690429736756 -15.242122297773031 1 0 0 I I #
point $-1 -67.139500106814779 -10.33690429736756 -15.242122297773031 #
vertex $-1 $943 $964 #
straight-curve $-1 -67.139500106814779 0 -15.242122297773031 0 1 0 I I #
straight-curve $-1 -67.139500106814779 -30.965064469259225 0 0 0 -1 I I #
straight-curve $-1 0 -30.965064469259225 -15.242122297773031 -1 0 0 I I #
point $-1 -67.139500106814779 -30.965064469259225 -15.242122297773031 #
End-of-ACIS-data 