500 0 9 0           
7 Unknown 11 ACIS 5.0 NT 24 Fri Mar 26 19:11:47 1999 
-1 9.9999999999999995e-007 1e-010 
body $-1 $9 $-1 $10 #
body $-1 $11 $-1 $12 #
body $-1 $13 $-1 $14 #
body $-1 $15 $-1 $16 #
body $-1 $17 $-1 $18 #
body $-1 $19 $-1 $20 #
body $-1 $21 $-1 $22 #
body $-1 $23 $-1 $24 #
body $-1 $25 $-1 $26 #
lump $-1 $-1 $27 $0 #
transform $-1 1 0 0 0 1 0 0 0 1 48.573259681997129 24.311385645212848 11.581425648638874 1 rotate no_reflect no_shear #
lump $-1 $-1 $28 $1 #
transform $-1 1 0 0 0 1 0 0 0 1 48.573259681997129 24.311385645212848 11.581425648638874 1 rotate no_reflect no_shear #
lump $-1 $-1 $29 $2 #
transform $-1 1 0 0 0 1 0 0 0 1 48.573259681997129 24.311385645212848 11.581425648638874 1 rotate no_reflect no_shear #
lump $-1 $-1 $30 $3 #
transform $-1 1 0 0 0 1 0 0 0 1 48.573259681997129 24.311385645212848 11.581425648638874 1 rotate no_reflect no_shear #
lump $-1 $-1 $31 $4 #
transform $-1 1 0 0 0 1 0 0 0 1 48.573259681997129 24.311385645212848 11.581425648638874 1 rotate no_reflect no_shear #
lump $-1 $-1 $32 $5 #
transform $-1 1 0 0 0 1 0 0 0 1 48.573259681997129 24.311385645212848 11.581425648638874 1 rotate no_reflect no_shear #
lump $-1 $-1 $33 $6 #
transform $-1 1 0 0 0 1 0 0 0 1 48.573259681997129 24.311385645212848 11.581425648638874 1 rotate no_reflect no_shear #
lump $-1 $-1 $34 $7 #
transform $-1 1 0 0 0 1 0 0 0 1 48.573259681997129 24.311385645212848 11.581425648638874 1 rotate no_reflect no_shear #
lump $-1 $-1 $35 $8 #
transform $-1 1 0 0 0 1 0 0 0 1 48.573259681997129 24.311385645212848 11.581425648638874 1 rotate no_reflect no_shear #
shell $-1 $-1 $-1 $36 $-1 $9 #
shell $-1 $-1 $-1 $37 $-1 $11 #
shell $-1 $-1 $-1 $38 $-1 $13 #
shell $-1 $-1 $-1 $39 $-1 $15 #
shell $-1 $-1 $-1 $40 $-1 $17 #
shell $-1 $-1 $-1 $41 $-1 $19 #
shell $-1 $-1 $-1 $42 $-1 $21 #
shell $-1 $-1 $-1 $43 $-1 $23 #
shell $-1 $-1 $-1 $44 $-1 $25 #
face $-1 $45 $46 $27 $-1 $47 reversed single #
face $-1 $48 $49 $28 $-1 $50 forward single #
face $-1 $51 $52 $29 $-1 $53 reversed single #
face $-1 $54 $55 $30 $-1 $56 forward single #
face $-1 $57 $58 $31 $-1 $59 forward single #
face $-1 $60 $61 $32 $-1 $62 reversed single #
face $-1 $63 $64 $33 $-1 $65 forward single #
face $-1 $66 $67 $34 $-1 $68 forward single #
face $-1 $69 $70 $35 $-1 $71 forward single #
face $-1 $72 $73 $27 $-1 $74 forward single #
loop $-1 $-1 $75 $36 #
plane-surface $-1 0 -24.311385645212848 0 0 1 0 0 0 1 forward_v I I I I #
face $-1 $76 $77 $28 $-1 $78 forward single #
loop $-1 $-1 $79 $37 #
plane-surface $-1 0 -24.311385645212848 0 0 1 0 0 0 1 forward_v I I I I #
face $-1 $80 $81 $29 $-1 $82 reversed single #
loop $-1 $-1 $83 $38 #
plane-surface $-1 -122.99181181415341 12.988547197834041 63.991575946061118 0 1 0 -0.7660444514056185 0 0.64278759981090561 forward_v I I I I #
face $-1 $84 $85 $30 $-1 $86 forward single #
loop $-1 $87 $88 $39 #
cone-surface $-1 -43.617156487527964 14.991063453096881 5.9381083815535485 0.7660444514056185 0 -0.64278759981090561 0.3213937999054528 0 0.38302222570280925 1 I I 0 1 0.5 forward I I I I #
face $-1 $89 $90 $31 $-1 $91 forward single #
loop $-1 $92 $93 $40 #
cone-surface $-1 -43.617156487527964 17.994837835991145 5.9381083815535485 0.7660444514056185 0 -0.64278759981090561 0.3213937999054528 0 0.38302222570280925 1 I I 0 1 0.5 forward I I I I #
face $-1 $94 $95 $32 $-1 $96 reversed single #
loop $-1 $-1 $97 $41 #
plane-surface $-1 50.970976316933957 14.521348959624536 138.35285848255614 0 -1 0 -0.71933980857756763 0 -0.69465836192734942 forward_v I I I I #
face $-1 $98 $99 $33 $-1 $100 forward single #
loop $-1 $101 $102 $42 #
cone-surface $-1 42.911526005869149 9.5211775710670459 5.7567102887024086 -0.71933980857756763 0 -0.69465836192734942 0.34732918096367471 0 -0.35966990428878381 1 I I 0 1 0.5 forward I I I I #
face $-1 $103 $104 $34 $-1 $105 forward single #
loop $-1 $106 $107 $43 #
cone-surface $-1 42.911526005869149 11.396241841776106 5.7567102887024086 -0.71933980857756763 0 -0.69465836192734942 0.34732918096367471 0 -0.35966990428878381 1 I I 0 1 0.5 forward I I I I #
face $-1 $108 $109 $35 $-1 $110 forward single #
loop $-1 $111 $112 $44 #
cone-surface $-1 42.911526005869149 13.271306112485167 5.7567102887024086 -0.71933980857756763 0 -0.69465836192734942 0.34732918096367471 0 -0.35966990428878381 1 I I 0 1 0.5 forward I I I I #
face $-1 $113 $114 $27 $-1 $115 reversed single #
loop $-1 $-1 $116 $45 #
plane-surface $-1 0 0 11.581425648638874 0 0 1 1 0 0 forward_v I I I I #
coedge $-1 $117 $118 $119 $120 reversed $46 $-1 #
face $-1 $121 $122 $28 $-1 $123 reversed single #
loop $-1 $-1 $124 $48 #
plane-surface $-1 0 0 11.581425648638874 0 0 1 1 0 0 forward_v I I I I #
coedge $-1 $125 $126 $127 $128 forward $49 $-1 #
face $-1 $129 $130 $29 $-1 $131 reversed single #
loop $-1 $-1 $132 $51 #
plane-surface $-1 -48.573259681997129 16.492950644544013 1.5469979340955859 -0.7660444514056185 0 0.64278759981090561 0.64278759981090561 0 0.7660444514056185 forward_v I I I I #
coedge $-1 $133 $134 $135 $136 reversed $52 $-1 #
face $-1 $-1 $137 $30 $-1 $138 forward single #
loop $-1 $139 $140 $54 #
cone-surface $-1 -42.679484367160235 14.991063453096881 5.1513080717871453 0.7660444514056185 0 -0.64278759981090561 0.1606968999527264 0 0.19151111285140462 1 I I -0.70710678118654746 0.70710678118654746 0.25 forward I I I I #
loop $-1 $-1 $141 $39 #
coedge $-1 $88 $88 $142 $143 reversed $55 $-1 #
face $-1 $-1 $144 $31 $-1 $145 forward single #
loop $-1 $146 $147 $57 #
cone-surface $-1 -42.679484367160235 17.994837835991145 5.1513080717871453 0.7660444514056185 0 -0.64278759981090561 0.1606968999527264 0 0.19151111285140462 1 I I -0.70710678118654746 0.70710678118654746 0.25 forward I I I I #
loop $-1 $-1 $148 $40 #
coedge $-1 $93 $93 $149 $150 reversed $58 $-1 #
face $-1 $151 $152 $32 $-1 $153 reversed single #
loop $-1 $-1 $154 $60 #
plane-surface $-1 -18.910382326338635 11.396241841776106 70.869216474220366 0.71933980857756763 0 0.69465836192734942 0.69465836192734942 0 -0.71933980857756763 forward_v I I I I #
coedge $-1 $155 $156 $157 $158 reversed $61 $-1 #
face $-1 $-1 $159 $33 $-1 $160 forward single #
loop $-1 $161 $162 $63 #
cone-surface $-1 42.185002019540889 9.5211775710670459 5.0551142471296622 -0.71933980857756763 0 -0.69465836192734942 0.17366459048183736 0 -0.17983495214439191 1 I I -0.70710678118654746 0.70710678118654746 0.25 forward I I I I #
loop $-1 $-1 $163 $42 #
coedge $-1 $102 $102 $164 $165 reversed $64 $-1 #
face $-1 $-1 $166 $34 $-1 $167 forward single #
loop $-1 $168 $169 $66 #
cone-surface $-1 42.185002019540889 11.396241841776106 5.0551142471296622 -0.71933980857756763 0 -0.69465836192734942 0.17366459048183736 0 -0.17983495214439191 1 I I -0.70710678118654746 0.70710678118654746 0.25 forward I I I I #
loop $-1 $-1 $170 $43 #
coedge $-1 $107 $107 $171 $172 reversed $67 $-1 #
face $-1 $-1 $173 $35 $-1 $174 forward single #
loop $-1 $175 $176 $69 #
cone-surface $-1 42.185002019540889 13.271306112485167 5.0551142471296622 -0.71933980857756763 0 -0.69465836192734942 0.17366459048183736 0 -0.17983495214439191 1 I I -0.70710678118654746 0.70710678118654746 0.25 forward I I I I #
loop $-1 $-1 $177 $44 #
coedge $-1 $112 $112 $178 $179 reversed $70 $-1 #
face $-1 $180 $181 $27 $-1 $182 reversed single #
loop $-1 $-1 $183 $72 #
plane-surface $-1 0 0 -11.581425648638874 0 0 1 1 0 0 forward_v I I I I #
coedge $-1 $184 $185 $186 $187 forward $73 $-1 #
coedge $-1 $188 $75 $189 $190 reversed $46 $-1 #
coedge $-1 $75 $188 $191 $192 forward $46 $-1 #
coedge $-1 $193 $183 $75 $120 forward $114 $-1 #
edge $-1 $194 -48.573259681997129 $195 48.573259681997129 $75 $196 forward 7 unknown #
face $-1 $197 $198 $28 $-1 $199 reversed single #
loop $-1 $-1 $200 $76 #
plane-surface $-1 -48.573259681997129 0 0 1 0 0 0 0 -1 forward_v I I I I #
coedge $-1 $201 $202 $126 $203 forward $77 $-1 #
coedge $-1 $204 $79 $205 $206 reversed $49 $-1 #
coedge $-1 $79 $204 $124 $203 reversed $49 $-1 #
coedge $-1 $207 $208 $79 $128 reversed $209 $-1 #
edge $-1 $210 -11.581425648638874 $211 11.581425648638874 $127 $212 forward 7 unknown #
face $-1 $213 $214 $29 $-1 $215 reversed single #
loop $-1 $-1 $216 $80 #
plane-surface $-1 -122.99181181415341 19.997354091253985 63.991575946061118 0 -1 0 0.7660444514056185 0 -0.64278759981090561 forward_v I I I I #
coedge $-1 $217 $218 $219 $220 reversed $81 $-1 #
coedge $-1 $134 $83 $221 $222 reversed $52 $-1 #
coedge $-1 $83 $133 $217 $223 reversed $52 $-1 #
coedge $-1 $219 $224 $83 $136 forward $225 $-1 #
edge $-1 $226 12.922646225079575 $227 21.342530598985249 $135 $228 forward 7 unknown #
loop $-1 $-1 $142 $84 #
plane-surface $-1 -48.573259681997129 16.492950644544013 1.5469979340955859 -0.7660444514056185 0 0.64278759981090561 0.64278759981090561 0 0.7660444514056185 forward_v I I I I #
loop $-1 $-1 $229 $54 #
coedge $-1 $140 $140 $141 $230 reversed $85 $-1 #
coedge $-1 $141 $141 $140 $230 forward $87 $-1 #
coedge $-1 $142 $142 $88 $143 forward $137 $-1 #
edge $-1 $231 0 $231 6.2831853071796004 $142 $232 forward 7 unknown #
loop $-1 $-1 $149 $89 #
plane-surface $-1 -48.573259681997129 16.492950644544013 1.5469979340955859 -0.7660444514056185 0 0.64278759981090561 0.64278759981090561 0 0.7660444514056185 forward_v I I I I #
loop $-1 $-1 $233 $57 #
coedge $-1 $147 $147 $148 $234 reversed $90 $-1 #
coedge $-1 $148 $148 $147 $234 forward $92 $-1 #
coedge $-1 $149 $149 $93 $150 forward $144 $-1 #
edge $-1 $235 0 $235 6.2831853071796004 $149 $236 forward 7 unknown #
face $-1 $237 $238 $32 $-1 $239 forward single #
loop $-1 $-1 $240 $94 #
plane-surface $-1 50.970976316933957 8.2711347239276769 138.35285848255614 0 1 0 0.71933980857756763 0 0.69465836192734942 forward_v I I I I #
coedge $-1 $241 $242 $243 $244 reversed $95 $-1 #
coedge $-1 $156 $97 $245 $246 reversed $61 $-1 #
coedge $-1 $97 $155 $241 $247 reversed $61 $-1 #
coedge $-1 $243 $248 $97 $158 forward $238 $-1 #
edge $-1 $249 -23.087771523530151 $250 -12.857682239641932 $157 $251 forward 7 unknown #
loop $-1 $-1 $164 $98 #
plane-surface $-1 -18.910382326338635 11.396241841776106 70.869216474220366 0.71933980857756763 0 0.69465836192734942 0.69465836192734942 0 -0.71933980857756763 forward_v I I I I #
loop $-1 $-1 $252 $63 #
coedge $-1 $162 $162 $163 $253 reversed $99 $-1 #
coedge $-1 $163 $163 $162 $253 forward $101 $-1 #
coedge $-1 $164 $164 $102 $165 forward $159 $-1 #
edge $-1 $254 0 $254 6.2831853071796004 $164 $255 forward 7 unknown #
loop $-1 $-1 $171 $103 #
plane-surface $-1 -18.910382326338635 11.396241841776106 70.869216474220366 0.71933980857756763 0 0.69465836192734942 0.69465836192734942 0 -0.71933980857756763 forward_v I I I I #
loop $-1 $-1 $256 $66 #
coedge $-1 $169 $169 $170 $257 reversed $104 $-1 #
coedge $-1 $170 $170 $169 $257 forward $106 $-1 #
coedge $-1 $171 $171 $107 $172 forward $166 $-1 #
edge $-1 $258 0 $258 6.2831853071796004 $171 $259 forward 7 unknown #
loop $-1 $-1 $178 $108 #
plane-surface $-1 -18.910382326338635 11.396241841776106 70.869216474220366 0.71933980857756763 0 0.69465836192734942 0.69465836192734942 0 -0.71933980857756763 forward_v I I I I #
loop $-1 $-1 $260 $69 #
coedge $-1 $176 $176 $177 $261 reversed $109 $-1 #
coedge $-1 $177 $177 $176 $261 forward $111 $-1 #
coedge $-1 $178 $178 $112 $179 forward $173 $-1 #
edge $-1 $262 0 $262 6.2831853071796004 $178 $263 forward 7 unknown #
face $-1 $264 $265 $27 $-1 $266 reversed single #
loop $-1 $-1 $267 $113 #
plane-surface $-1 -48.573259681997129 0 0 1 0 0 0 0 -1 forward_v I I I I #
coedge $-1 $119 $268 $269 $270 forward $114 $-1 #
coedge $-1 $271 $116 $272 $273 forward $73 $-1 #
coedge $-1 $116 $271 $188 $274 forward $73 $-1 #
coedge $-1 $189 $275 $116 $187 reversed $276 $-1 #
edge $-1 $277 -24.311385645212848 $278 24.311385645212848 $186 $279 forward 7 unknown #
coedge $-1 $118 $117 $185 $274 reversed $46 $-1 #
coedge $-1 $269 $186 $117 $190 forward $276 $-1 #
edge $-1 $277 -11.581425648638874 $194 11.581425648638874 $189 $280 forward 7 unknown #
coedge $-1 $281 $282 $118 $192 reversed $181 $-1 #
edge $-1 $283 -11.581425648638874 $195 11.581425648638874 $191 $284 forward 7 unknown #
coedge $-1 $268 $119 $282 $285 forward $114 $-1 #
vertex $-1 $190 $286 #
vertex $-1 $285 $287 #
straight-curve $-1 0 -24.311385645212848 -11.581425648638874 -1 0 0 I I #
face $-1 $288 $209 $28 $-1 $289 reversed single #
loop $-1 $-1 $290 $121 #
plane-surface $-1 -45.82778282995293 -37.700470831812865 0 0 1 0 0 0 1 forward_v I I I I #
coedge $-1 $291 $292 $204 $293 forward $122 $-1 #
coedge $-1 $294 $124 $292 $295 forward $77 $-1 #
coedge $-1 $124 $294 $207 $296 forward $77 $-1 #
edge $-1 $210 43.082305977908732 $297 48.573259681997129 $124 $298 forward 7 unknown #
coedge $-1 $126 $125 $200 $293 reversed $49 $-1 #
coedge $-1 $299 $300 $125 $206 forward $301 $-1 #
edge $-1 $302 -48.573259681997129 $211 -43.082305977908732 $205 $303 forward 7 unknown #
coedge $-1 $304 $127 $202 $296 reversed $209 $-1 #
coedge $-1 $127 $304 $299 $305 reversed $209 $-1 #
loop $-1 $-1 $304 $197 #
vertex $-1 $203 $306 #
vertex $-1 $305 $307 #
straight-curve $-1 -43.082305977908732 -24.311385645212848 0 0 0 -1 I I #
face $-1 $-1 $225 $29 $-1 $308 forward single #
loop $-1 $-1 $309 $129 #
plane-surface $-1 -48.573259681997129 0 0 1 0 0 0 0 -1 forward_v I I I I #
coedge $-1 $310 $311 $312 $313 reversed $130 $-1 #
coedge $-1 $314 $132 $134 $223 forward $81 $-1 #
coedge $-1 $132 $314 $310 $315 forward $81 $-1 #
coedge $-1 $312 $135 $132 $220 forward $225 $-1 #
edge $-1 $227 4.7420718755620346 $316 11.750878768981979 $219 $317 forward 7 unknown #
coedge $-1 $318 $319 $133 $222 forward $214 $-1 #
edge $-1 $320 -30.448790038934973 $226 -20.414362324391686 $221 $321 forward 7 unknown #
edge $-1 $227 -13.099014941144828 $320 0 $134 $322 forward 7 unknown #
coedge $-1 $135 $312 $318 $323 forward $225 $-1 #
loop $-1 $-1 $312 $213 #
vertex $-1 $222 $324 #
vertex $-1 $136 $325 #
straight-curve $-1 -61.495905907076704 12.988547197834041 11.581425648638874 1 0 0 I I #
coedge $-1 $229 $229 $-1 $326 reversed $139 $-1 #
edge $-1 $327 0 $327 6.2831853071796004 $140 $328 forward 7 unknown #
vertex $-1 $143 $329 #
ellipse-curve $-1 -44.363317495044292 14.991063453096881 6.5642117913672289 -0.7660444514056185 0 0.64278759981090561 0.3213937999054528 0 0.38302222570280925 1 I I #
coedge $-1 $233 $233 $-1 $330 reversed $146 $-1 #
edge $-1 $331 0 $331 6.2831853071796004 $147 $332 forward 7 unknown #
vertex $-1 $150 $333 #
ellipse-curve $-1 -44.363317495044292 17.994837835991145 6.5642117913672289 -0.7660444514056185 0 0.64278759981090561 0.3213937999054528 0 0.38302222570280925 1 I I #
face $-1 $-1 $334 $32 $-1 $335 reversed single #
loop $-1 $-1 $157 $151 #
plane-surface $-1 0 0 11.581425648638874 0 0 1 1 0 0 forward_v I I I I #
coedge $-1 $336 $337 $338 $339 reversed $152 $-1 #
coedge $-1 $340 $154 $156 $247 forward $95 $-1 #
coedge $-1 $154 $340 $336 $341 forward $95 $-1 #
coedge $-1 $338 $157 $154 $244 forward $238 $-1 #
edge $-1 $250 -8.8232280387364828 $342 -2.5730138030396237 $243 $343 forward 7 unknown #
coedge $-1 $344 $345 $155 $246 forward $334 $-1 #
edge $-1 $346 -68.188571410330283 $249 -57.595003592639202 $245 $347 forward 7 unknown #
edge $-1 $250 82.419727253546526 $346 97.14651936399423 $156 $348 forward 7 unknown #
coedge $-1 $157 $338 $344 $349 forward $238 $-1 #
vertex $-1 $158 $350 #
vertex $-1 $158 $351 #
straight-curve $-1 25.485488158466978 14.521348959624536 11.58142564863887 -1 0 0 I I #
coedge $-1 $252 $252 $-1 $352 reversed $161 $-1 #
edge $-1 $353 0 $353 6.2831853071796004 $162 $354 forward 7 unknown #
vertex $-1 $165 $355 #
ellipse-curve $-1 43.458215040053027 9.5211775710670459 6.2846417397933223 0.71933980857756763 0 0.69465836192734942 0.34732918096367471 0 -0.35966990428878381 1 I I #
coedge $-1 $256 $256 $-1 $356 reversed $168 $-1 #
edge $-1 $357 0 $357 6.2831853071796004 $169 $358 forward 7 unknown #
vertex $-1 $172 $359 #
ellipse-curve $-1 43.458215040053027 11.396241841776106 6.2846417397933223 0.71933980857756763 0 0.69465836192734942 0.34732918096367471 0 -0.35966990428878381 1 I I #
coedge $-1 $260 $260 $-1 $360 reversed $175 $-1 #
edge $-1 $361 0 $361 6.2831853071796004 $176 $362 forward 7 unknown #
vertex $-1 $179 $363 #
ellipse-curve $-1 43.458215040053027 13.271306112485167 6.2846417397933223 0.71933980857756763 0 0.69465836192734942 0.34732918096367471 0 -0.35966990428878381 1 I I #
face $-1 $-1 $276 $27 $-1 $364 reversed single #
loop $-1 $-1 $365 $180 #
plane-surface $-1 0 24.311385645212848 0 0 -1 0 0 0 -1 forward_v I I I I #
coedge $-1 $282 $281 $366 $367 forward $181 $-1 #
coedge $-1 $183 $193 $368 $369 forward $114 $-1 #
coedge $-1 $275 $189 $183 $270 reversed $276 $-1 #
edge $-1 $370 -24.311385645212848 $194 24.311385645212848 $269 $371 forward 7 unknown #
coedge $-1 $185 $184 $281 $372 forward $73 $-1 #
coedge $-1 $365 $366 $184 $273 reversed $265 $-1 #
edge $-1 $278 -48.573259681997129 $373 48.573259681997129 $272 $374 forward 7 unknown #
edge $-1 $283 -48.573259681997129 $277 48.573259681997129 $188 $375 forward 7 unknown #
coedge $-1 $186 $269 $365 $376 reversed $276 $-1 #
loop $-1 $-1 $189 $264 #
vertex $-1 $187 $377 #
vertex $-1 $187 $378 #
straight-curve $-1 48.573259681997129 0 11.581425648638874 0 1 0 I I #
straight-curve $-1 48.573259681997129 -24.311385645212848 0 0 0 -1 I I #
coedge $-1 $267 $191 $271 $372 reversed $181 $-1 #
coedge $-1 $191 $267 $193 $285 reversed $181 $-1 #
vertex $-1 $372 $379 #
straight-curve $-1 -48.573259681997129 -24.311385645212848 0 0 0 -1 I I #
edge $-1 $195 -24.311385645212848 $380 24.311385645212848 $282 $381 forward 7 unknown #
point $-1 48.573259681997129 -24.311385645212848 -11.581425648638874 #
point $-1 -48.573259681997129 -24.311385645212848 -11.581425648638874 #
face $-1 $-1 $301 $28 $-1 $382 reversed single #
plane-surface $-1 -43.082305977908732 -31.005928238512858 0 -1 0 0 0 0 1 forward_v I I I I #
coedge $-1 $383 $384 $385 $386 forward $198 $-1 #
coedge $-1 $385 $200 $300 $387 reversed $122 $-1 #
coedge $-1 $200 $385 $201 $295 reversed $122 $-1 #
edge $-1 $297 -11.581425648638874 $302 11.581425648638874 $200 $388 forward 7 unknown #
coedge $-1 $202 $201 $384 $389 forward $77 $-1 #
edge $-1 $297 24.311385645212848 $390 37.700470831812865 $292 $391 forward 7 unknown #
edge $-1 $392 -6.6945425933000067 $210 6.6945425933000067 $207 $393 forward 7 unknown #
vertex $-1 $295 $394 #
straight-curve $-1 0 -24.311385645212848 11.581425648638874 -1 0 0 I I #
coedge $-1 $395 $205 $208 $305 forward $301 $-1 #
coedge $-1 $205 $395 $291 $387 forward $301 $-1 #
loop $-1 $-1 $205 $288 #
vertex $-1 $293 $396 #
straight-curve $-1 0 -24.311385645212848 -11.581425648638874 1 0 0 I I #
coedge $-1 $208 $207 $397 $398 forward $209 $-1 #
edge $-1 $211 -6.6945425933000067 $399 6.6945425933000067 $208 $400 forward 7 unknown #
point $-1 -43.082305977908732 -24.311385645212852 11.581425648638874 #
point $-1 -43.082305977908732 -24.311385645212852 -11.581425648638874 #
plane-surface $-1 0 0 11.581425648638874 0 0 1 1 0 0 forward_v I I I I #
coedge $-1 $319 $318 $311 $401 forward $214 $-1 #
coedge $-1 $311 $216 $218 $315 reversed $130 $-1 #
coedge $-1 $216 $310 $309 $401 reversed $130 $-1 #
coedge $-1 $224 $219 $216 $313 forward $225 $-1 #
edge $-1 $316 -21.342530598985249 $402 -12.922646225079575 $312 $403 forward 7 unknown #
coedge $-1 $218 $217 $319 $404 reversed $81 $-1 #
edge $-1 $405 0 $316 13.099014941144828 $310 $406 forward 7 unknown #
vertex $-1 $220 $407 #
straight-curve $-1 -40.153375308091455 8.2464753222720066 11.581425648638874 0 1 0 I I #
coedge $-1 $309 $221 $224 $323 reversed $214 $-1 #
coedge $-1 $221 $309 $314 $404 forward $214 $-1 #
vertex $-1 $222 $408 #
straight-curve $-1 -48.573259681997129 12.988547197834041 31.995787973030559 0 0 1 I I #
straight-curve $-1 -48.573259681997129 12.988547197834041 1.5469979340955859 -0.64278759981090561 0 -0.7660444514056185 I I #
edge $-1 $402 -19.997354091253985 $226 -12.988547197834041 $318 $409 forward 7 unknown #
point $-1 -48.573259681997129 12.988547197834041 11.581425648638874 #
point $-1 -40.153375308091455 12.988547197834041 11.581425648638874 #
edge $-1 $410 1 $410 0 $229 $-1 forward 7 unknown #
vertex $-1 $230 $411 #
ellipse-curve $-1 -42.870995480011636 14.991063453096881 5.3120049717398716 -0.7660444514056185 0 0.64278759981090561 0.3213937999054528 0 0.38302222570280925 1 I I #
point $-1 -44.041923695138834 14.991063453096881 6.9472340170700351 #
edge $-1 $412 1 $412 0 $233 $-1 forward 7 unknown #
vertex $-1 $234 $413 #
ellipse-curve $-1 -42.870995480011636 17.994837835991145 5.3120049717398716 -0.7660444514056185 0 0.64278759981090561 0.3213937999054528 0 0.38302222570280925 1 I I #
point $-1 -44.041923695138834 17.994837835991145 6.9472340170700351 #
loop $-1 $-1 $245 $237 #
plane-surface $-1 48.573259681997129 0 0 -1 0 0 0 0 1 forward_v I I I I #
coedge $-1 $337 $240 $242 $341 reversed $152 $-1 #
coedge $-1 $240 $336 $414 $415 reversed $152 $-1 #
coedge $-1 $248 $243 $240 $339 forward $238 $-1 #
edge $-1 $342 12.857682239641932 $416 23.087771523530151 $338 $417 forward 7 unknown #
coedge $-1 $242 $241 $345 $418 reversed $95 $-1 #
edge $-1 $419 -97.14651936399423 $342 -82.419727253546526 $336 $420 forward 7 unknown #
vertex $-1 $244 $421 #
straight-curve $-1 38.34317039810891 5.6981209208880532 11.581425648638877 0 -1 0 I I #
coedge $-1 $414 $245 $248 $349 reversed $334 $-1 #
coedge $-1 $245 $414 $340 $418 forward $334 $-1 #
vertex $-1 $246 $422 #
straight-curve $-1 48.573259681997129 14.521348959624536 69.176429241278072 0 0 1 I I #
straight-curve $-1 -18.910382326338635 14.521348959624536 70.869216474220366 0.69465836192734942 0 -0.71933980857756763 I I #
edge $-1 $416 8.2711347239276769 $249 14.521348959624536 $344 $423 forward 7 unknown #
point $-1 48.573259681997129 14.521348959624536 11.581425648638874 #
point $-1 38.34317039810891 14.521348959624536 11.581425648638877 #
edge $-1 $424 1 $424 0 $252 $-1 forward 7 unknown #
vertex $-1 $253 $425 #
ellipse-curve $-1 42.364836971685278 9.5211775710670459 5.2287788376114994 0.71933980857756763 0 0.69465836192734942 0.34732918096367471 0 -0.35966990428878381 1 I I #
point $-1 43.805544221016696 9.5211775710670459 5.9249718355045333 #
edge $-1 $426 1 $426 0 $256 $-1 forward 7 unknown #
vertex $-1 $257 $427 #
ellipse-curve $-1 42.364836971685278 11.396241841776106 5.2287788376114994 0.71933980857756763 0 0.69465836192734942 0.34732918096367471 0 -0.35966990428878381 1 I I #
point $-1 43.805544221016696 11.396241841776106 5.9249718355045333 #
edge $-1 $428 1 $428 0 $260 $-1 forward 7 unknown #
vertex $-1 $261 $429 #
ellipse-curve $-1 42.364836971685278 13.271306112485167 5.2287788376114994 0.71933980857756763 0 0.69465836192734942 0.34732918096367471 0 -0.35966990428878381 1 I I #
point $-1 43.805544221016696 13.271306112485167 5.9249718355045333 #
plane-surface $-1 48.573259681997129 0 0 -1 0 0 0 0 1 forward_v I I I I #
coedge $-1 $368 $272 $275 $376 forward $265 $-1 #
coedge $-1 $272 $368 $267 $367 reversed $265 $-1 #
edge $-1 $373 -11.581425648638874 $380 11.581425648638874 $366 $430 forward 7 unknown #
coedge $-1 $366 $365 $268 $369 reversed $265 $-1 #
edge $-1 $380 -48.573259681997129 $370 48.573259681997129 $368 $431 forward 7 unknown #
vertex $-1 $270 $432 #
straight-curve $-1 48.573259681997129 0 -11.581425648638874 0 -1 0 I I #
edge $-1 $373 -24.311385645212848 $283 24.311385645212848 $281 $433 forward 7 unknown #
vertex $-1 $273 $434 #
straight-curve $-1 0 24.311385645212848 11.581425648638874 -1 0 0 I I #
straight-curve $-1 0 -24.311385645212848 11.581425648638874 1 0 0 I I #
edge $-1 $278 -11.581425648638874 $370 11.581425648638874 $275 $435 forward 7 unknown #
point $-1 48.573259681997129 -24.311385645212848 11.581425648638874 #
point $-1 48.573259681997129 24.311385645212848 11.581425648638874 #
point $-1 -48.573259681997129 -24.311385645212848 11.581425648638874 #
vertex $-1 $369 $436 #
straight-curve $-1 -48.573259681997129 0 -11.581425648638874 0 1 0 I I #
plane-surface $-1 0 0 -11.581425648638874 0 0 1 1 0 0 forward_v I I I I #
coedge $-1 $397 $290 $395 $437 reversed $198 $-1 #
coedge $-1 $290 $397 $294 $389 reversed $198 $-1 #
coedge $-1 $292 $291 $290 $386 reversed $122 $-1 #
edge $-1 $390 -11.581425648638874 $438 11.581425648638874 $385 $439 forward 7 unknown #
edge $-1 $438 -37.700470831812865 $302 -24.311385645212848 $291 $440 forward 7 unknown #
straight-curve $-1 -48.573259681997129 -24.311385645212848 0 0 0 -1 I I #
edge $-1 $390 -2.7454768520441988 $392 2.7454768520441988 $384 $441 forward 7 unknown #
vertex $-1 $295 $442 #
straight-curve $-1 -48.573259681997129 0 11.581425648638874 0 -1 0 I I #
vertex $-1 $296 $443 #
straight-curve $-1 -43.082305977908732 -31.005928238512858 11.581425648638874 0 1 0 I I #
point $-1 -48.573259681997129 -24.311385645212848 11.581425648638874 #
coedge $-1 $300 $299 $383 $437 forward $301 $-1 #
point $-1 -48.573259681997129 -24.311385645212848 -11.581425648638874 #
coedge $-1 $384 $383 $304 $398 reversed $198 $-1 #
edge $-1 $392 -11.581425648638874 $399 11.581425648638874 $304 $444 forward 7 unknown #
vertex $-1 $398 $445 #
straight-curve $-1 -43.082305977908732 -31.005928238512858 -11.581425648638874 0 -1 0 I I #
edge $-1 $402 20.414362324391686 $405 30.448790038934973 $309 $446 forward 7 unknown #
vertex $-1 $323 $447 #
straight-curve $-1 -61.495905907076704 19.997354091253985 11.581425648638874 -1 0 0 I I #
edge $-1 $405 -11.750878768981979 $320 -4.7420718755620346 $319 $448 forward 7 unknown #
vertex $-1 $404 $449 #
straight-curve $-1 -48.573259681997129 19.997354091253985 1.5469979340955859 0.64278759981090561 0 0.7660444514056185 I I #
point $-1 -40.153375308091455 19.997354091253985 11.581425648638874 #
point $-1 -48.573259681997129 12.988547197834041 1.5469979340955859 #
straight-curve $-1 -48.573259681997129 0 11.581425648638874 0 -1 0 I I #
vertex $-1 $326 $450 #
point $-1 -42.549601680106186 14.991063453096881 5.6950271974426805 #
vertex $-1 $330 $451 #
point $-1 -42.549601680106186 17.994837835991145 5.6950271974426805 #
coedge $-1 $345 $344 $337 $415 forward $334 $-1 #
edge $-1 $416 57.595003592639202 $419 68.188571410330283 $414 $452 forward 7 unknown #
vertex $-1 $349 $453 #
straight-curve $-1 25.485488158466978 8.2711347239276769 11.58142564863887 1 0 0 I I #
edge $-1 $419 2.5730138030396237 $346 8.8232280387364828 $345 $454 forward 7 unknown #
vertex $-1 $418 $455 #
straight-curve $-1 -18.910382326338635 8.2711347239276769 70.869216474220366 -0.69465836192734942 0 0.71933980857756763 I I #
point $-1 38.34317039810891 8.2711347239276769 11.581425648638877 #
point $-1 48.573259681997129 14.521348959624536 0.98785783094778878 #
straight-curve $-1 48.573259681997129 0 11.581425648638874 0 1 0 I I #
vertex $-1 $352 $456 #
point $-1 42.712166152648955 9.5211775710670459 4.8691089333227158 #
vertex $-1 $356 $457 #
point $-1 42.712166152648955 11.396241841776106 4.8691089333227158 #
vertex $-1 $360 $458 #
point $-1 42.712166152648955 13.271306112485167 4.8691089333227158 #
straight-curve $-1 -48.573259681997129 24.311385645212848 0 0 0 -1 I I #
straight-curve $-1 0 24.311385645212848 -11.581425648638874 1 0 0 I I #
point $-1 48.573259681997129 24.311385645212848 -11.581425648638874 #
straight-curve $-1 -48.573259681997129 0 11.581425648638874 0 -1 0 I I #
point $-1 -48.573259681997129 24.311385645212848 11.581425648638874 #
straight-curve $-1 48.573259681997129 24.311385645212848 0 0 0 -1 I I #
point $-1 -48.573259681997129 24.311385645212848 -11.581425648638874 #
edge $-1 $399 -2.7454768520441988 $438 2.7454768520441988 $383 $459 forward 7 unknown #
vertex $-1 $387 $460 #
straight-curve $-1 -48.573259681997129 -37.700470831812865 0 0 0 -1 I I #
straight-curve $-1 -48.573259681997129 0 -11.581425648638874 0 1 0 I I #
straight-curve $-1 -45.82778282995293 -37.700470831812865 11.581425648638874 1 0 0 I I #
point $-1 -48.573259681997129 -37.700470831812865 11.581425648638874 #
point $-1 -43.082305977908732 -37.700470831812865 11.581425648638874 #
straight-curve $-1 -43.082305977908732 -37.700470831812865 0 0 0 -1 I I #
point $-1 -43.082305977908732 -37.700470831812865 -11.581425648638874 #
straight-curve $-1 -48.573259681997129 19.997354091253985 31.995787973030559 0 0 -1 I I #
point $-1 -48.573259681997129 19.997354091253985 11.581425648638874 #
straight-curve $-1 -48.573259681997129 8.2464753222720066 1.5469979340955864 0 -1 0 I I #
point $-1 -48.573259681997129 19.997354091253985 1.5469979340955859 #
point $-1 -42.487973254308834 14.991063453096881 4.990611171834419 #
point $-1 -42.487973254308834 17.994837835991145 4.990611171834419 #
straight-curve $-1 48.573259681997129 8.2711347239276769 69.176429241278072 0 0 -1 I I #
point $-1 48.573259681997129 8.2711347239276769 11.581425648638874 #
straight-curve $-1 48.573259681997122 5.6981209208880532 0.98785783094778878 0 1 0 I I #
point $-1 48.573259681997129 8.2711347239276769 0.98785783094778878 #
point $-1 42.005167067396499 9.5211775710670459 4.8814496566478249 #
point $-1 42.005167067396499 11.396241841776106 4.8814496566478249 #
point $-1 42.005167067396499 13.271306112485167 4.8814496566478249 #
straight-curve $-1 -45.82778282995293 -37.700470831812865 -11.581425648638874 -1 0 0 I I #
point $-1 -48.573259681997129 -37.700470831812865 -11.581425648638874 #
End-of-ACIS-data 