500 0 11 0           
7 Unknown 11 ACIS 5.0 NT 24 Thu Mar 25 15:20:45 1999 
-1 9.9999999999999995e-007 1e-010 
body $-1 $11 $-1 $12 #
body $-1 $13 $-1 $14 #
body $-1 $15 $-1 $16 #
body $-1 $17 $-1 $18 #
body $-1 $19 $-1 $20 #
body $-1 $21 $-1 $22 #
body $-1 $23 $-1 $24 #
body $-1 $25 $-1 $26 #
body $-1 $27 $-1 $28 #
body $-1 $29 $-1 $30 #
body $-1 $31 $-1 $32 #
lump $-1 $-1 $33 $0 #
transform $-1 1 0 0 0 1 0 0 0 1 71.664784691915656 45.741059817704517 18.727074183552091 1 rotate no_reflect no_shear #
lump $-1 $-1 $34 $1 #
transform $-1 1 0 0 0 1 0 0 0 1 71.664784691915656 45.741059817704517 18.727074183552091 1 rotate no_reflect no_shear #
lump $-1 $-1 $35 $2 #
transform $-1 1 0 0 0 1 0 0 0 1 71.664784691915656 45.741059817704517 18.727074183552091 1 rotate no_reflect no_shear #
lump $-1 $-1 $36 $3 #
transform $-1 1 0 0 0 1 0 0 0 1 71.664784691915656 45.741059817704517 18.727074183552091 1 rotate no_reflect no_shear #
lump $-1 $-1 $37 $4 #
transform $-1 1 0 0 0 1 0 0 0 1 71.664784691915656 45.741059817704517 18.727074183552091 1 rotate no_reflect no_shear #
lump $-1 $-1 $38 $5 #
transform $-1 1 0 0 0 1 0 0 0 1 71.664784691915656 45.741059817704517 18.727074183552091 1 rotate no_reflect no_shear #
lump $-1 $-1 $39 $6 #
transform $-1 1 0 0 0 1 0 0 0 1 71.664784691915656 45.741059817704517 18.727074183552091 1 rotate no_reflect no_shear #
lump $-1 $-1 $40 $7 #
transform $-1 1 0 0 0 1 0 0 0 1 71.664784691915656 45.741059817704517 18.727074183552091 1 rotate no_reflect no_shear #
lump $-1 $-1 $41 $8 #
transform $-1 1 0 0 0 1 0 0 0 1 71.664784691915656 45.741059817704517 18.727074183552091 1 rotate no_reflect no_shear #
lump $-1 $-1 $42 $9 #
transform $-1 1 0 0 0 1 0 0 0 1 71.664784691915656 45.741059817704517 18.727074183552091 1 rotate no_reflect no_shear #
lump $-1 $-1 $43 $10 #
transform $-1 1 0 0 0 1 0 0 0 1 71.664784691915656 45.741059817704517 18.727074183552091 1 rotate no_reflect no_shear #
shell $-1 $-1 $-1 $44 $-1 $11 #
shell $-1 $-1 $-1 $45 $-1 $13 #
shell $-1 $-1 $-1 $46 $-1 $15 #
shell $-1 $-1 $-1 $47 $-1 $17 #
shell $-1 $-1 $-1 $48 $-1 $19 #
shell $-1 $-1 $-1 $49 $-1 $21 #
shell $-1 $-1 $-1 $50 $-1 $23 #
shell $-1 $-1 $-1 $51 $-1 $25 #
shell $-1 $-1 $-1 $52 $-1 $27 #
shell $-1 $-1 $-1 $53 $-1 $29 #
shell $-1 $-1 $-1 $54 $-1 $31 #
face $-1 $55 $56 $33 $-1 $57 forward single #
face $-1 $58 $59 $34 $-1 $60 forward single #
face $-1 $61 $62 $35 $-1 $63 reversed single #
face $-1 $64 $65 $36 $-1 $66 forward single #
face $-1 $67 $68 $37 $-1 $69 forward single #
face $-1 $70 $71 $38 $-1 $72 reversed single #
face $-1 $73 $74 $39 $-1 $75 forward single #
face $-1 $76 $77 $40 $-1 $78 forward single #
face $-1 $79 $80 $41 $-1 $81 reversed single #
face $-1 $82 $83 $42 $-1 $84 forward single #
face $-1 $85 $86 $43 $-1 $87 forward single #
face $-1 $88 $89 $33 $-1 $90 reversed single #
loop $-1 $-1 $91 $44 #
plane-surface $-1 0 0 18.727074183552091 0 0 1 1 0 0 forward_v I I I I #
face $-1 $92 $93 $34 $-1 $94 reversed single #
loop $-1 $-1 $95 $45 #
plane-surface $-1 -61.922716890179885 0 -3.4098158247945385 0 0 1 1 0 0 forward_v I I I I #
face $-1 $96 $97 $35 $-1 $98 reversed single #
loop $-1 $-1 $99 $46 #
plane-surface $-1 23.67448708442538 -137.87153225171468 119.26992517611477 1 0 0 0 0.64278761758704617 -0.76604443648966558 forward_v I I I I #
face $-1 $100 $101 $36 $-1 $102 forward single #
loop $-1 $103 $104 $47 #
cone-surface $-1 28.118082997236641 -38.269556805356999 11.767496805195872 0 0.64278761758704617 -0.76604443648966558 2 0 0 1 I I 0 1 2 forward I I I I #
face $-1 $105 $106 $37 $-1 $107 forward single #
loop $-1 $108 $109 $48 #
cone-surface $-1 34.783476866453526 -38.269556805356999 11.767496805195872 0 0.64278761758704617 -0.76604443648966558 2 0 0 1 I I 0 1 2 forward I I I I #
face $-1 $110 $111 $38 $-1 $112 reversed single #
loop $-1 $-1 $113 $49 #
plane-surface $-1 -5.8093840196903201 88.175017367002596 175.78338935468503 1 0 0 0 -0.73135370988377701 -0.68199835119979291 forward_v I I I I #
face $-1 $114 $115 $39 $-1 $116 forward single #
loop $-1 $117 $118 $50 #
cone-surface $-1 -1.3661120707114378 41.521936145715593 14.297098153322864 0 -0.73135370988377701 -0.68199835119979291 1 0 0 1 I I 0 1 1 forward I I I I #
face $-1 $119 $120 $40 $-1 $121 forward single #
loop $-1 $122 $123 $51 #
cone-surface $-1 5.2987958527568821 41.521936145715593 14.297098153322864 0 -0.73135370988377701 -0.68199835119979291 1 0 0 1 I I 0 1 1 forward I I I I #
face $-1 $124 $125 $41 $-1 $126 reversed single #
loop $-1 $-1 $127 $52 #
plane-surface $-1 56.113332870489565 88.175017367002596 175.78338935468503 1 0 0 0 -0.73135370988377701 -0.68199835119979291 forward_v I I I I #
face $-1 $128 $129 $42 $-1 $130 forward single #
loop $-1 $131 $132 $53 #
cone-surface $-1 60.556604819468447 41.521936145715593 14.297098153322864 0 -0.73135370988377701 -0.68199835119979291 1 0 0 1 I I 0 1 1 forward I I I I #
face $-1 $133 $134 $43 $-1 $135 forward single #
loop $-1 $136 $137 $54 #
cone-surface $-1 67.221512742936767 41.521936145715593 14.297098153322864 0 -0.73135370988377701 -0.68199835119979291 1 0 0 1 I I 0 1 1 forward I I I I #
face $-1 $138 $139 $33 $-1 $140 reversed single #
loop $-1 $-1 $141 $55 #
plane-surface $-1 0 0 -18.727074183552091 0 0 1 1 0 0 forward_v I I I I #
coedge $-1 $142 $143 $144 $145 forward $56 $-1 #
face $-1 $146 $147 $34 $-1 $148 reversed single #
loop $-1 $-1 $149 $58 #
plane-surface $-1 -61.922716890179885 0 -14.541814650820445 0 0 1 1 0 0 forward_v I I I I #
coedge $-1 $150 $151 $152 $153 forward $59 $-1 #
face $-1 $154 $155 $35 $-1 $156 reversed single #
loop $-1 $-1 $157 $61 #
plane-surface $-1 31.450779931845076 -45.741059817704524 9.4731059651712854 0 -0.64278761758704617 0.76604443648966558 1 0 0 forward_v I I I I #
coedge $-1 $158 $159 $160 $161 reversed $62 $-1 #
face $-1 $-1 $162 $36 $-1 $163 forward single #
loop $-1 $164 $165 $64 #
cone-surface $-1 28.118082997236641 -35.669490994931195 8.6688590995403878 0 0.64278761758704617 -0.76604443648966558 1 0 0 1 I I -0.70710678118654746 0.70710678118654746 1 forward I I I I #
loop $-1 $-1 $166 $47 #
coedge $-1 $104 $104 $167 $168 reversed $65 $-1 #
face $-1 $-1 $169 $37 $-1 $170 forward single #
loop $-1 $171 $172 $67 #
cone-surface $-1 34.783476866453526 -35.669490994931195 8.6688590995403878 0 0.64278761758704617 -0.76604443648966558 1 0 0 1 I I -0.70710678118654746 0.70710678118654746 1 forward I I I I #
loop $-1 $-1 $173 $48 #
coedge $-1 $109 $109 $174 $175 reversed $68 $-1 #
face $-1 $176 $177 $38 $-1 $178 reversed single #
loop $-1 $-1 $179 $70 #
plane-surface $-1 1.9663418910227222 -16.649594937906656 78.032859356735756 0 0.73135370988377701 0.68199835119979291 1 0 0 forward_v I I I I #
coedge $-1 $180 $181 $182 $183 reversed $71 $-1 #
face $-1 $-1 $184 $39 $-1 $185 forward single #
loop $-1 $186 $187 $73 #
cone-surface $-1 -1.3661120707114378 40.48069398379085 13.326124152595867 0 -0.73135370988377701 -0.68199835119979291 0.5 0 0 1 I I -0.70710678118654746 0.70710678118654746 0.5 forward I I I I #
loop $-1 $-1 $188 $50 #
coedge $-1 $118 $118 $189 $190 reversed $74 $-1 #
face $-1 $-1 $191 $40 $-1 $192 forward single #
loop $-1 $193 $194 $76 #
cone-surface $-1 5.2987958527568821 40.48069398379085 13.326124152595867 0 -0.73135370988377701 -0.68199835119979291 0.5 0 0 1 I I -0.70710678118654746 0.70710678118654746 0.5 forward I I I I #
loop $-1 $-1 $195 $51 #
coedge $-1 $123 $123 $196 $197 reversed $77 $-1 #
face $-1 $198 $199 $41 $-1 $200 forward single #
loop $-1 $-1 $201 $79 #
plane-surface $-1 63.889058781202607 -16.649594937906656 78.032859356735756 0 0.73135370988377701 0.68199835119979291 1 0 0 forward_v I I I I #
coedge $-1 $202 $203 $204 $205 reversed $80 $-1 #
face $-1 $-1 $206 $42 $-1 $207 forward single #
loop $-1 $208 $209 $82 #
cone-surface $-1 60.556604819468447 40.48069398379085 13.326124152595867 0 -0.73135370988377701 -0.68199835119979291 0.5 0 0 1 I I -0.70710678118654746 0.70710678118654746 0.5 forward I I I I #
loop $-1 $-1 $210 $53 #
coedge $-1 $132 $132 $211 $212 reversed $83 $-1 #
face $-1 $-1 $213 $43 $-1 $214 forward single #
loop $-1 $215 $216 $85 #
cone-surface $-1 67.221512742936767 40.48069398379085 13.326124152595867 0 -0.73135370988377701 -0.68199835119979291 0.5 0 0 1 I I -0.70710678118654746 0.70710678118654746 0.5 forward I I I I #
loop $-1 $-1 $217 $54 #
coedge $-1 $137 $137 $218 $219 reversed $86 $-1 #
face $-1 $220 $221 $33 $-1 $222 reversed single #
loop $-1 $-1 $223 $88 #
plane-surface $-1 0 -45.741059817704517 0 0 1 0 0 0 1 forward_v I I I I #
coedge $-1 $224 $225 $226 $227 forward $89 $-1 #
coedge $-1 $228 $91 $229 $230 forward $56 $-1 #
coedge $-1 $91 $228 $231 $232 forward $56 $-1 #
coedge $-1 $233 $234 $91 $145 reversed $235 $-1 #
edge $-1 $236 -45.741059817704517 $237 45.741059817704517 $144 $238 forward 7 unknown #
face $-1 $239 $240 $34 $-1 $241 reversed single #
loop $-1 $-1 $242 $92 #
plane-surface $-1 -52.180649088444113 0 -8.9758152378074918 -1 0 0 0 0 1 forward_v I I I I #
coedge $-1 $243 $244 $245 $246 forward $93 $-1 #
coedge $-1 $247 $95 $248 $249 reversed $59 $-1 #
coedge $-1 $95 $247 $250 $251 reversed $59 $-1 #
coedge $-1 $242 $252 $95 $153 reversed $147 $-1 #
edge $-1 $253 -45.741059817704517 $254 45.741059817704517 $152 $255 forward 7 unknown #
face $-1 $256 $257 $35 $-1 $258 forward single #
loop $-1 $-1 $259 $96 #
plane-surface $-1 39.227072779264773 -137.87153225171468 119.26992517611477 -1 0 0 0 -0.64278761758704617 0.76604443648966558 forward_v I I I I #
coedge $-1 $260 $261 $262 $263 reversed $97 $-1 #
coedge $-1 $159 $99 $264 $265 reversed $62 $-1 #
coedge $-1 $99 $158 $260 $266 reversed $62 $-1 #
coedge $-1 $262 $267 $99 $161 forward $268 $-1 #
edge $-1 $269 40.907888404505293 $270 50.161856622886091 $160 $271 forward 7 unknown #
loop $-1 $-1 $167 $100 #
plane-surface $-1 31.450779931845076 -45.741059817704524 9.4731059651712854 0 -0.64278761758704617 0.76604443648966558 1 0 0 forward_v I I I I #
loop $-1 $-1 $272 $64 #
coedge $-1 $165 $165 $166 $273 reversed $101 $-1 #
coedge $-1 $166 $166 $165 $273 forward $103 $-1 #
coedge $-1 $167 $167 $104 $168 forward $162 $-1 #
edge $-1 $274 -5.7091009039127109e-016 $274 6.2831853071795996 $167 $275 forward 7 unknown #
loop $-1 $-1 $174 $105 #
plane-surface $-1 31.450779931845076 -45.741059817704524 9.4731059651712854 0 -0.64278761758704617 0.76604443648966558 1 0 0 forward_v I I I I #
loop $-1 $-1 $276 $67 #
coedge $-1 $172 $172 $173 $277 reversed $106 $-1 #
coedge $-1 $173 $173 $172 $277 forward $108 $-1 #
coedge $-1 $174 $174 $109 $175 forward $169 $-1 #
edge $-1 $278 -5.7091009039127109e-016 $278 6.2831853071795996 $174 $279 forward 7 unknown #
face $-1 $280 $281 $38 $-1 $282 reversed single #
loop $-1 $-1 $283 $110 #
plane-surface $-1 9.7420678017357645 88.175017367002596 175.78338935468503 -1 0 0 0 0.73135370988377701 0.68199835119979291 forward_v I I I I #
coedge $-1 $284 $285 $286 $287 reversed $111 $-1 #
coedge $-1 $181 $113 $288 $289 reversed $71 $-1 #
coedge $-1 $113 $180 $284 $290 reversed $71 $-1 #
coedge $-1 $286 $291 $113 $183 forward $292 $-1 #
edge $-1 $293 -1.6535511342032194 $294 5.433565595808922 $182 $295 forward 7 unknown #
loop $-1 $-1 $189 $114 #
plane-surface $-1 1.9663418910227222 -16.649594937906656 78.032859356735756 0 0.73135370988377701 0.68199835119979291 1 0 0 forward_v I I I I #
loop $-1 $-1 $296 $73 #
coedge $-1 $187 $187 $188 $297 reversed $115 $-1 #
coedge $-1 $188 $188 $187 $297 forward $117 $-1 #
coedge $-1 $189 $189 $118 $190 forward $184 $-1 #
edge $-1 $298 -2.5982903291455877e-015 $298 6.2831853071795978 $189 $299 forward 7 unknown #
loop $-1 $-1 $196 $119 #
plane-surface $-1 1.9663418910227222 -16.649594937906656 78.032859356735756 0 0.73135370988377701 0.68199835119979291 1 0 0 forward_v I I I I #
loop $-1 $-1 $300 $76 #
coedge $-1 $194 $194 $195 $301 reversed $120 $-1 #
coedge $-1 $195 $195 $194 $301 forward $122 $-1 #
coedge $-1 $196 $196 $123 $197 forward $191 $-1 #
edge $-1 $302 -2.5982903291455877e-015 $302 6.2831853071795978 $196 $303 forward 7 unknown #
face $-1 $304 $305 $41 $-1 $306 reversed single #
loop $-1 $-1 $204 $124 #
plane-surface $-1 0 0 18.727074183552091 0 0 1 1 0 0 forward_v I I I I #
coedge $-1 $307 $308 $309 $310 reversed $125 $-1 #
coedge $-1 $203 $127 $311 $312 reversed $80 $-1 #
coedge $-1 $127 $202 $307 $313 reversed $80 $-1 #
coedge $-1 $309 $314 $127 $205 forward $199 $-1 #
edge $-1 $315 -1.6535511342032194 $316 5.433565595808922 $204 $317 forward 7 unknown #
loop $-1 $-1 $211 $128 #
plane-surface $-1 63.889058781202607 -16.649594937906656 78.032859356735756 0 0.73135370988377701 0.68199835119979291 1 0 0 forward_v I I I I #
loop $-1 $-1 $318 $82 #
coedge $-1 $209 $209 $210 $319 reversed $129 $-1 #
coedge $-1 $210 $210 $209 $319 forward $131 $-1 #
coedge $-1 $211 $211 $132 $212 forward $206 $-1 #
edge $-1 $320 -2.5982903291455877e-015 $320 6.2831853071795978 $211 $321 forward 7 unknown #
loop $-1 $-1 $218 $133 #
plane-surface $-1 63.889058781202607 -16.649594937906656 78.032859356735756 0 0.73135370988377701 0.68199835119979291 1 0 0 forward_v I I I I #
loop $-1 $-1 $322 $85 #
coedge $-1 $216 $216 $217 $323 reversed $134 $-1 #
coedge $-1 $217 $217 $216 $323 forward $136 $-1 #
coedge $-1 $218 $218 $137 $219 forward $213 $-1 #
edge $-1 $324 -2.5982903291455877e-015 $324 6.2831853071795978 $218 $325 forward 7 unknown #
face $-1 $326 $327 $33 $-1 $328 reversed single #
loop $-1 $-1 $329 $138 #
plane-surface $-1 -71.664784691915656 0 0 1 0 0 0 0 -1 forward_v I I I I #
coedge $-1 $330 $231 $331 $332 forward $139 $-1 #
coedge $-1 $333 $141 $330 $334 forward $89 $-1 #
coedge $-1 $141 $333 $335 $336 forward $89 $-1 #
coedge $-1 $234 $233 $141 $227 reversed $235 $-1 #
edge $-1 $337 -45.741059817704517 $338 45.741059817704517 $226 $339 forward 7 unknown #
coedge $-1 $143 $142 $340 $341 forward $56 $-1 #
coedge $-1 $342 $343 $142 $230 reversed $327 $-1 #
edge $-1 $237 -71.664784691915656 $344 71.664784691915656 $229 $345 forward 7 unknown #
coedge $-1 $223 $346 $143 $232 reversed $139 $-1 #
edge $-1 $347 -71.664784691915656 $236 71.664784691915656 $231 $348 forward 7 unknown #
coedge $-1 $226 $144 $346 $349 forward $235 $-1 #
coedge $-1 $144 $226 $342 $350 reversed $235 $-1 #
loop $-1 $-1 $233 $326 #
vertex $-1 $145 $351 #
vertex $-1 $145 $352 #
straight-curve $-1 71.664784691915656 0 18.727074183552091 0 1 0 I I #
face $-1 $353 $354 $34 $-1 $355 reversed single #
loop $-1 $-1 $356 $146 #
plane-surface $-1 0 -45.741059817704517 0 0 1 0 0 0 1 forward_v I I I I #
coedge $-1 $245 $152 $357 $358 reversed $147 $-1 #
coedge $-1 $359 $149 $356 $360 reversed $93 $-1 #
coedge $-1 $149 $359 $361 $362 reversed $93 $-1 #
coedge $-1 $252 $242 $149 $246 reversed $147 $-1 #
edge $-1 $363 -45.741059817704517 $364 45.741059817704517 $245 $365 forward 7 unknown #
coedge $-1 $151 $150 $366 $367 reversed $59 $-1 #
coedge $-1 $368 $369 $150 $249 forward $370 $-1 #
edge $-1 $371 -40.703426246825714 $254 -21.219290643354171 $248 $372 forward 7 unknown #
coedge $-1 $373 $357 $151 $251 forward $240 $-1 #
edge $-1 $253 21.219290643354171 $374 40.703426246825714 $250 $375 forward 7 unknown #
coedge $-1 $152 $245 $368 $376 reversed $147 $-1 #
vertex $-1 $251 $377 #
vertex $-1 $249 $378 #
straight-curve $-1 -52.180649088444113 0 -3.4098158247945385 0 1 0 I I #
face $-1 $-1 $268 $35 $-1 $379 reversed single #
loop $-1 $-1 $380 $154 #
plane-surface $-1 0 0 18.727074183552091 0 0 1 1 0 0 forward_v I I I I #
coedge $-1 $381 $382 $383 $384 reversed $155 $-1 #
coedge $-1 $385 $157 $159 $266 forward $97 $-1 #
coedge $-1 $157 $385 $381 $386 forward $97 $-1 #
coedge $-1 $383 $160 $157 $263 forward $268 $-1 #
edge $-1 $270 7.9490971185028414 $387 23.501682813342235 $262 $388 forward 7 unknown #
coedge $-1 $389 $390 $158 $265 forward $257 $-1 #
edge $-1 $391 -34.223155947170348 $269 -23.194706308152824 $264 $392 forward 7 unknown #
edge $-1 $270 8.8685336385193395e-015 $391 14.39661867339508 $159 $393 forward 7 unknown #
coedge $-1 $160 $383 $389 $394 reversed $268 $-1 #
loop $-1 $-1 $383 $256 #
vertex $-1 $394 $395 #
vertex $-1 $161 $396 #
straight-curve $-1 23.67448708442538 -45.741059817704517 59.634962588057384 0 0 -1 I I #
coedge $-1 $272 $272 $-1 $397 reversed $164 $-1 #
edge $-1 $398 0 $398 6.2831853071796004 $165 $399 forward 7 unknown #
vertex $-1 $168 $400 #
ellipse-curve $-1 28.118082997236641 -40.226834998195756 14.100090074361692 0 -0.64278761758704617 0.76604443648966558 2 0 0 1 I I #
coedge $-1 $276 $276 $-1 $401 reversed $171 $-1 #
edge $-1 $402 0 $402 6.2831853071796004 $172 $403 forward 7 unknown #
vertex $-1 $175 $404 #
ellipse-curve $-1 34.783476866453526 -40.226834998195756 14.100090074361692 0 -0.64278761758704617 0.76604443648966558 2 0 0 1 I I #
face $-1 $-1 $292 $38 $-1 $405 forward single #
loop $-1 $-1 $406 $176 #
plane-surface $-1 0 45.741059817704517 0 0 -1 0 0 0 -1 forward_v I I I I #
coedge $-1 $407 $408 $409 $410 reversed $177 $-1 #
coedge $-1 $411 $179 $181 $290 forward $111 $-1 #
coedge $-1 $179 $411 $407 $412 forward $111 $-1 #
coedge $-1 $409 $182 $179 $287 forward $292 $-1 #
edge $-1 $294 -6.7925549652016812 $413 8.7588968562244034 $286 $414 forward 7 unknown #
coedge $-1 $415 $416 $180 $289 forward $281 $-1 #
edge $-1 $417 -76.764622903994692 $293 -69.164620493790423 $288 $418 forward 7 unknown #
edge $-1 $294 81.090427752951769 $417 91.482119635409049 $181 $419 forward 7 unknown #
coedge $-1 $182 $409 $415 $420 forward $292 $-1 #
loop $-1 $-1 $409 $280 #
vertex $-1 $289 $421 #
vertex $-1 $183 $422 #
straight-curve $-1 -5.8093840196903201 44.087508683501298 18.727074183552091 0 -1 0 I I #
coedge $-1 $296 $296 $-1 $423 reversed $186 $-1 #
edge $-1 $424 0 $424 6.2831853071796004 $187 $425 forward 7 unknown #
vertex $-1 $190 $426 #
ellipse-curve $-1 -1.3661120707114378 42.197501452698447 14.927072978449962 0 0.73135370988377701 0.68199835119979291 1 0 0 1 I I #
coedge $-1 $300 $300 $-1 $427 reversed $193 $-1 #
edge $-1 $428 0 $428 6.2831853071796004 $194 $429 forward 7 unknown #
vertex $-1 $197 $430 #
ellipse-curve $-1 5.2987958527568821 42.197501452698447 14.927072978449962 0 0.73135370988377701 0.68199835119979291 1 0 0 1 I I #
face $-1 $-1 $431 $41 $-1 $432 reversed single #
loop $-1 $-1 $433 $198 #
plane-surface $-1 71.664784691915656 0 0 -1 0 0 0 0 1 forward_v I I I I #
coedge $-1 $434 $201 $203 $313 forward $125 $-1 #
coedge $-1 $201 $434 $433 $435 reversed $125 $-1 #
coedge $-1 $436 $204 $201 $310 forward $199 $-1 #
edge $-1 $316 24.168803479888261 $437 39.720255301314353 $309 $438 forward 7 unknown #
coedge $-1 $439 $440 $202 $312 forward $431 $-1 #
edge $-1 $441 -76.764622903994692 $315 -69.164620493790423 $311 $442 forward 7 unknown #
edge $-1 $316 81.090427752951769 $441 91.482119635409049 $203 $443 forward 7 unknown #
coedge $-1 $204 $436 $439 $444 forward $199 $-1 #
vertex $-1 $312 $445 #
vertex $-1 $205 $446 #
straight-curve $-1 56.113332870489565 44.087508683501298 18.727074183552091 0 -1 0 I I #
coedge $-1 $318 $318 $-1 $447 reversed $208 $-1 #
edge $-1 $448 0 $448 6.2831853071796004 $209 $449 forward 7 unknown #
vertex $-1 $212 $450 #
ellipse-curve $-1 60.556604819468447 42.197501452698447 14.927072978449962 0 0.73135370988377701 0.68199835119979291 1 0 0 1 I I #
coedge $-1 $322 $322 $-1 $451 reversed $215 $-1 #
edge $-1 $452 0 $452 6.2831853071796004 $216 $453 forward 7 unknown #
vertex $-1 $219 $454 #
ellipse-curve $-1 67.221512742936767 42.197501452698447 14.927072978449962 0 0.73135370988377701 0.68199835119979291 1 0 0 1 I I #
face $-1 $-1 $235 $33 $-1 $455 reversed single #
loop $-1 $-1 $342 $220 #
plane-surface $-1 0 45.741059817704517 0 0 -1 0 0 0 -1 forward_v I I I I #
coedge $-1 $456 $340 $343 $457 forward $221 $-1 #
coedge $-1 $346 $223 $224 $334 reversed $139 $-1 #
coedge $-1 $340 $456 $223 $332 reversed $221 $-1 #
edge $-1 $347 -18.727074183552091 $458 18.727074183552091 $331 $459 forward 7 unknown #
coedge $-1 $225 $224 $456 $460 forward $89 $-1 #
edge $-1 $338 -71.664784691915656 $458 71.664784691915656 $330 $461 forward 7 unknown #
coedge $-1 $343 $342 $225 $336 reversed $327 $-1 #
edge $-1 $462 -71.664784691915656 $337 71.664784691915656 $335 $463 forward 7 unknown #
vertex $-1 $227 $464 #
vertex $-1 $349 $465 #
straight-curve $-1 71.664784691915656 0 -18.727074183552091 0 -1 0 I I #
coedge $-1 $329 $331 $228 $341 reversed $221 $-1 #
edge $-1 $344 -45.741059817704517 $347 45.741059817704517 $340 $466 forward 7 unknown #
coedge $-1 $335 $229 $234 $350 forward $327 $-1 #
coedge $-1 $229 $335 $329 $457 reversed $327 $-1 #
vertex $-1 $230 $467 #
straight-curve $-1 0 45.741059817704517 18.727074183552091 -1 0 0 I I #
coedge $-1 $231 $330 $233 $349 reversed $139 $-1 #
vertex $-1 $341 $468 #
straight-curve $-1 0 -45.741059817704517 18.727074183552091 1 0 0 I I #
edge $-1 $236 -18.727074183552091 $338 18.727074183552091 $233 $469 forward 7 unknown #
edge $-1 $237 -18.727074183552091 $337 18.727074183552091 $234 $470 forward 7 unknown #
point $-1 71.664784691915656 -45.741059817704517 18.727074183552091 #
point $-1 71.664784691915656 45.741059817704517 18.727074183552091 #
face $-1 $-1 $370 $34 $-1 $471 reversed single #
loop $-1 $-1 $472 $239 #
plane-surface $-1 -71.664784691915656 0 0 1 0 0 0 0 -1 forward_v I I I I #
coedge $-1 $357 $373 $243 $360 forward $240 $-1 #
coedge $-1 $250 $356 $242 $358 forward $240 $-1 #
edge $-1 $364 -10.053907031916699 $253 1.0780917941092074 $357 $473 forward 7 unknown #
coedge $-1 $244 $243 $472 $474 reversed $93 $-1 #
edge $-1 $475 -40.703426246825714 $364 -21.219290643354171 $356 $476 forward 7 unknown #
coedge $-1 $369 $368 $244 $362 forward $370 $-1 #
edge $-1 $363 21.219290643354171 $477 40.703426246825714 $361 $478 forward 7 unknown #
vertex $-1 $362 $479 #
vertex $-1 $360 $480 #
straight-curve $-1 -52.180649088444113 0 -14.541814650820445 0 -1 0 I I #
coedge $-1 $481 $482 $247 $367 forward $354 $-1 #
edge $-1 $374 -45.741059817704517 $371 45.741059817704517 $366 $483 forward 7 unknown #
coedge $-1 $361 $248 $252 $376 forward $370 $-1 #
coedge $-1 $248 $361 $481 $484 reversed $370 $-1 #
loop $-1 $-1 $361 $353 #
vertex $-1 $484 $485 #
straight-curve $-1 -30.961358445089942 45.741059817704517 -3.4098158247945385 1 0 0 I I #
coedge $-1 $356 $250 $482 $486 forward $240 $-1 #
vertex $-1 $486 $487 #
straight-curve $-1 -30.961358445089942 -45.741059817704517 -3.4098158247945385 -1 0 0 I I #
edge $-1 $254 -1.0780917941092074 $363 10.053907031916699 $368 $488 forward 7 unknown #
point $-1 -52.180649088444113 -45.741059817704517 -3.4098158247945385 #
point $-1 -52.180649088444113 45.741059817704517 -3.4098158247945385 #
plane-surface $-1 0 -45.741059817704517 0 0 1 0 0 0 1 forward_v I I I I #
coedge $-1 $390 $389 $382 $489 forward $257 $-1 #
coedge $-1 $382 $259 $261 $386 reversed $155 $-1 #
coedge $-1 $259 $381 $380 $489 reversed $155 $-1 #
coedge $-1 $267 $262 $259 $384 forward $268 $-1 #
edge $-1 $387 -50.161856622886091 $490 -40.907888404505293 $383 $491 forward 7 unknown #
coedge $-1 $261 $260 $390 $492 reversed $97 $-1 #
edge $-1 $493 -14.39661867339508 $387 -8.8685336385193395e-015 $381 $494 forward 7 unknown #
vertex $-1 $263 $495 #
straight-curve $-1 15.725389965922538 -45.741059817704517 9.4731059651712961 1 0 0 I I #
coedge $-1 $380 $264 $267 $394 forward $257 $-1 #
coedge $-1 $264 $380 $385 $492 forward $257 $-1 #
vertex $-1 $265 $496 #
straight-curve $-1 23.67448708442538 -68.935766125857342 18.727074183552091 0 -1 0 I I #
straight-curve $-1 23.67448708442538 -45.741059817704524 9.4731059651712854 0 0.76604443648966558 0.64278761758704617 I I #
edge $-1 $269 23.67448708442538 $490 39.227072779264773 $267 $497 forward 7 unknown #
point $-1 23.67448708442538 -45.741059817704517 18.727074183552091 #
point $-1 23.67448708442538 -45.741059817704517 9.4731059651712908 #
edge $-1 $498 1 $498 0 $272 $-1 forward 7 unknown #
vertex $-1 $273 $499 #
ellipse-curve $-1 28.118082997236641 -36.312278612518242 9.4349035360300526 0 -0.64278761758704617 0.76604443648966558 2 0 0 1 I I #
point $-1 30.118082997236641 -40.226834998195756 14.10009007436169 #
edge $-1 $500 1 $500 0 $276 $-1 forward 7 unknown #
vertex $-1 $277 $501 #
ellipse-curve $-1 34.783476866453526 -36.312278612518242 9.4349035360300526 0 -0.64278761758704617 0.76604443648966558 2 0 0 1 I I #
point $-1 36.783476866453526 -40.226834998195756 14.10009007436169 #
plane-surface $-1 0 0 18.727074183552091 0 0 1 1 0 0 forward_v I I I I #
coedge $-1 $416 $415 $408 $502 forward $281 $-1 #
coedge $-1 $408 $283 $285 $412 reversed $177 $-1 #
coedge $-1 $283 $407 $406 $502 reversed $177 $-1 #
coedge $-1 $291 $286 $283 $410 forward $292 $-1 #
edge $-1 $413 -5.433565595808922 $503 1.6535511342032194 $409 $504 forward 7 unknown #
coedge $-1 $285 $284 $416 $505 reversed $111 $-1 #
edge $-1 $506 -91.482119635409049 $413 -81.090427752951769 $407 $507 forward 7 unknown #
vertex $-1 $287 $508 #
straight-curve $-1 0.98317094551136108 38.653943087692376 18.727074183552091 1 0 0 I I #
coedge $-1 $406 $288 $291 $420 reversed $281 $-1 #
coedge $-1 $288 $406 $411 $505 forward $281 $-1 #
vertex $-1 $289 $509 #
straight-curve $-1 -5.8093840196903201 45.741059817704517 87.891694677342514 0 0 1 I I #
straight-curve $-1 -5.8093840196903201 -16.649594937906656 78.032859356735756 0 0.68199835119979291 -0.73135370988377701 I I #
edge $-1 $503 -9.7420678017357645 $293 5.8093840196903201 $415 $510 forward 7 unknown #
point $-1 -5.8093840196903201 45.741059817704517 18.727074183552091 #
point $-1 -5.8093840196903201 38.653943087692376 18.727074183552091 #
edge $-1 $511 1 $511 0 $296 $-1 forward 7 unknown #
vertex $-1 $297 $512 #
ellipse-curve $-1 -1.3661120707114378 40.846370838732739 13.667123328195764 0 0.73135370988377701 0.68199835119979291 1 0 0 1 I I #
point $-1 -0.36611207071143781 42.197501452698447 14.927072978449965 #
edge $-1 $513 1 $513 0 $300 $-1 forward 7 unknown #
vertex $-1 $301 $514 #
ellipse-curve $-1 5.2987958527568821 40.846370838732739 13.667123328195764 0 0.73135370988377701 0.68199835119979291 1 0 0 1 I I #
point $-1 6.2987958527568821 42.197501452698447 14.927072978449965 #
loop $-1 $-1 $311 $304 #
plane-surface $-1 0 45.741059817704517 0 0 -1 0 0 0 -1 forward_v I I I I #
coedge $-1 $515 $516 $308 $435 forward $305 $-1 #
coedge $-1 $308 $307 $440 $517 reversed $125 $-1 #
edge $-1 $437 46.878119013359537 $518 57.269810895816818 $433 $519 forward 7 unknown #
coedge $-1 $314 $309 $516 $520 forward $199 $-1 #
vertex $-1 $520 $521 #
straight-curve $-1 31.944529390601303 38.653943087692376 18.727074183552091 1 0 0 I I #
coedge $-1 $522 $311 $314 $444 reversed $431 $-1 #
coedge $-1 $311 $522 $434 $517 forward $431 $-1 #
vertex $-1 $312 $523 #
straight-curve $-1 56.113332870489565 45.741059817704517 87.891694677342514 0 0 1 I I #
straight-curve $-1 56.113332870489565 -16.649594937906656 78.032859356735756 0 0.68199835119979291 -0.73135370988377701 I I #
edge $-1 $524 -71.664784691915656 $315 -56.113332870489565 $439 $525 forward 7 unknown #
point $-1 56.113332870489565 45.741059817704517 18.727074183552091 #
point $-1 56.113332870489565 38.653943087692376 18.727074183552091 #
edge $-1 $526 1 $526 0 $318 $-1 forward 7 unknown #
vertex $-1 $319 $527 #
ellipse-curve $-1 60.556604819468447 40.846370838732739 13.667123328195764 0 0.73135370988377701 0.68199835119979291 1 0 0 1 I I #
point $-1 61.556604819468447 42.197501452698447 14.927072978449965 #
edge $-1 $528 1 $528 0 $322 $-1 forward 7 unknown #
vertex $-1 $323 $529 #
ellipse-curve $-1 67.221512742936767 40.846370838732739 13.667123328195764 0 0.73135370988377701 0.68199835119979291 1 0 0 1 I I #
point $-1 68.221512742936767 42.197501452698447 14.927072978449965 #
plane-surface $-1 71.664784691915656 0 0 -1 0 0 0 0 1 forward_v I I I I #
coedge $-1 $331 $329 $333 $460 reversed $221 $-1 #
edge $-1 $344 -18.727074183552091 $462 18.727074183552091 $343 $530 forward 7 unknown #
vertex $-1 $460 $531 #
straight-curve $-1 -71.664784691915656 -45.741059817704517 0 0 0 -1 I I #
edge $-1 $458 -45.741059817704517 $462 45.741059817704517 $456 $532 forward 7 unknown #
straight-curve $-1 0 -45.741059817704517 -18.727074183552091 -1 0 0 I I #
vertex $-1 $336 $533 #
straight-curve $-1 0 45.741059817704517 -18.727074183552091 1 0 0 I I #
point $-1 71.664784691915656 45.741059817704517 -18.727074183552091 #
point $-1 71.664784691915656 -45.741059817704517 -18.727074183552091 #
straight-curve $-1 -71.664784691915656 0 18.727074183552091 0 -1 0 I I #
point $-1 -71.664784691915656 45.741059817704517 18.727074183552091 #
point $-1 -71.664784691915656 -45.741059817704517 18.727074183552091 #
straight-curve $-1 71.664784691915656 -45.741059817704517 0 0 0 -1 I I #
straight-curve $-1 71.664784691915656 45.741059817704517 0 0 0 -1 I I #
plane-surface $-1 0 45.741059817704517 0 0 -1 0 0 0 -1 forward_v I I I I #
coedge $-1 $482 $481 $359 $474 forward $354 $-1 #
straight-curve $-1 -52.180649088444113 -45.741059817704517 -4.4879076189037459 0 0 1 I I #
edge $-1 $477 -45.741059817704517 $475 45.741059817704517 $472 $534 forward 7 unknown #
vertex $-1 $360 $535 #
straight-curve $-1 -30.961358445089942 -45.741059817704517 -14.541814650820445 1 0 0 I I #
vertex $-1 $362 $536 #
straight-curve $-1 -30.961358445089942 45.741059817704517 -14.541814650820445 -1 0 0 I I #
point $-1 -52.180649088444113 45.741059817704517 -14.541814650820445 #
point $-1 -52.180649088444113 -45.741059817704517 -14.541814650820445 #
coedge $-1 $472 $366 $369 $484 forward $354 $-1 #
coedge $-1 $366 $472 $373 $486 reversed $354 $-1 #
straight-curve $-1 -71.664784691915656 0 -3.4098158247945385 0 1 0 I I #
edge $-1 $371 3.4098158247945385 $477 14.541814650820445 $369 $537 forward 7 unknown #
point $-1 -71.664784691915656 45.741059817704517 -3.4098158247945385 #
edge $-1 $374 3.4098158247945385 $475 14.541814650820445 $482 $538 forward 7 unknown #
point $-1 -71.664784691915656 -45.741059817704517 -3.4098158247945385 #
straight-curve $-1 -52.180649088444113 45.741059817704517 -4.4879076189037459 0 0 -1 I I #
edge $-1 $490 23.194706308152824 $493 34.223155947170348 $380 $539 forward 7 unknown #
vertex $-1 $489 $540 #
straight-curve $-1 39.227072779264773 -45.741059817704517 59.634962588057384 0 0 1 I I #
edge $-1 $493 -23.501682813342235 $391 -7.9490971185028414 $390 $541 forward 7 unknown #
vertex $-1 $492 $542 #
straight-curve $-1 39.227072779264773 -45.741059817704524 9.4731059651712854 0 -0.76604443648966558 -0.64278761758704617 I I #
point $-1 39.227072779264773 -45.741059817704517 9.4731059651712908 #
point $-1 23.67448708442538 -34.712610178686994 18.727074183552091 #
straight-curve $-1 0 -45.741059817704517 18.727074183552091 1 0 0 I I #
vertex $-1 $397 $543 #
point $-1 30.118082997236641 -36.312278612518242 9.4349035360300526 #
vertex $-1 $401 $544 #
point $-1 36.783476866453526 -36.312278612518242 9.4349035360300526 #
edge $-1 $503 69.164620493790423 $506 76.764622903994692 $406 $545 forward 7 unknown #
vertex $-1 $420 $546 #
straight-curve $-1 9.7420678017357645 44.087508683501298 18.727074183552091 0 1 0 I I #
edge $-1 $506 -8.7588968562244034 $417 6.7925549652016812 $416 $547 forward 7 unknown #
vertex $-1 $505 $548 #
straight-curve $-1 9.7420678017357645 -16.649594937906656 78.032859356735756 0 -0.68199835119979291 0.73135370988377701 I I #
point $-1 9.7420678017357645 38.653943087692376 18.727074183552091 #
point $-1 -5.8093840196903201 45.741059817704517 11.127071773347822 #
straight-curve $-1 0 45.741059817704517 18.727074183552091 -1 0 0 I I #
vertex $-1 $423 $549 #
point $-1 -0.36611207071143781 40.846370838732739 13.667123328195764 #
vertex $-1 $427 $550 #
point $-1 6.2987958527568821 40.846370838732739 13.667123328195764 #
coedge $-1 $516 $433 $522 $551 reversed $305 $-1 #
coedge $-1 $433 $515 $436 $520 reversed $305 $-1 #
edge $-1 $518 -39.720255301314353 $441 -24.168803479888261 $440 $552 forward 7 unknown #
vertex $-1 $435 $553 #
straight-curve $-1 71.664784691915656 6.6831432132335102 53.01156043634581 0 0.68199835119979291 -0.73135370988377701 I I #
edge $-1 $437 38.653943087692376 $524 45.741059817704517 $516 $554 forward 7 unknown #
point $-1 71.664784691915656 38.653943087692376 18.727074183552091 #
coedge $-1 $440 $439 $515 $551 forward $431 $-1 #
point $-1 56.113332870489565 45.741059817704517 11.127071773347822 #
vertex $-1 $520 $555 #
straight-curve $-1 0 45.741059817704517 18.727074183552091 -1 0 0 I I #
vertex $-1 $447 $556 #
point $-1 61.556604819468447 40.846370838732739 13.667123328195764 #
vertex $-1 $451 $557 #
point $-1 68.221512742936767 40.846370838732739 13.667123328195764 #
straight-curve $-1 -71.664784691915656 45.741059817704517 0 0 0 -1 I I #
point $-1 -71.664784691915656 -45.741059817704517 -18.727074183552091 #
straight-curve $-1 -71.664784691915656 0 -18.727074183552091 0 1 0 I I #
point $-1 -71.664784691915656 45.741059817704517 -18.727074183552091 #
straight-curve $-1 -71.664784691915656 0 -14.541814650820445 0 -1 0 I I #
point $-1 -71.664784691915656 -45.741059817704517 -14.541814650820445 #
point $-1 -71.664784691915656 45.741059817704517 -14.541814650820445 #
straight-curve $-1 -71.664784691915656 45.741059817704517 0 0 0 -1 I I #
straight-curve $-1 -71.664784691915656 -45.741059817704517 0 0 0 -1 I I #
straight-curve $-1 39.227072779264773 -68.935766125857342 18.727074183552091 0 1 0 I I #
point $-1 39.227072779264773 -45.741059817704517 18.727074183552091 #
straight-curve $-1 15.725389965922538 -34.712610178686987 18.727074183552091 -1 0 0 I I #
point $-1 39.227072779264773 -34.712610178686994 18.727074183552091 #
point $-1 28.118082997236641 -35.026703377344148 7.9028146630507221 #
point $-1 34.783476866453526 -35.026703377344148 7.9028146630507221 #
straight-curve $-1 9.7420678017357645 45.741059817704517 87.891694677342514 0 0 -1 I I #
point $-1 9.7420678017357645 45.741059817704517 18.727074183552091 #
straight-curve $-1 0.98317094551136108 45.741059817704517 11.127071773347826 -1 0 0 I I #
point $-1 9.7420678017357645 45.741059817704517 11.127071773347822 #
point $-1 -1.3661120707114378 40.115017128848962 12.985124976995969 #
point $-1 5.2987958527568821 40.115017128848962 12.985124976995969 #
edge $-1 $524 -18.727074183552091 $518 -11.127071773347822 $515 $558 forward 7 unknown #
straight-curve $-1 31.944529390601303 45.741059817704517 11.127071773347826 -1 0 0 I I #
point $-1 71.664784691915656 45.741059817704517 11.127071773347822 #
straight-curve $-1 71.664784691915656 0 18.727074183552091 0 1 0 I I #
point $-1 71.664784691915656 45.741059817704517 18.727074183552091 #
point $-1 60.556604819468447 40.115017128848962 12.985124976995969 #
point $-1 67.221512742936767 40.115017128848962 12.985124976995969 #
straight-curve $-1 71.664784691915656 45.741059817704517 0 0 0 -1 I I #
End-of-ACIS-data 