500 0 4 0           
7 Unknown 11 ACIS 5.0 NT 24 Fri Mar 26 17:10:15 1999 
-1 9.9999999999999995e-007 1e-010 
body $-1 $4 $-1 $5 #
body $-1 $6 $-1 $7 #
body $-1 $8 $-1 $9 #
body $-1 $10 $-1 $11 #
lump $-1 $-1 $12 $0 #
transform $-1 1 0 0 0 1 0 0 0 1 70.627155369731739 30.748796360911346 13.719328990669016 1 rotate no_reflect no_shear #
lump $-1 $-1 $13 $1 #
transform $-1 1 0 0 0 1 0 0 0 1 70.627155369731739 30.748796360911346 13.719328990669016 1 rotate no_reflect no_shear #
lump $-1 $-1 $14 $2 #
transform $-1 1 0 0 0 1 0 0 0 1 70.627155369731739 30.748796360911346 13.719328990669016 1 rotate no_reflect no_shear #
lump $-1 $-1 $15 $3 #
transform $-1 1 0 0 0 1 0 0 0 1 70.627155369731739 30.748796360911346 13.719328990669016 1 rotate no_reflect no_shear #
shell $-1 $-1 $-1 $16 $-1 $4 #
shell $-1 $-1 $-1 $17 $-1 $6 #
shell $-1 $-1 $-1 $18 $-1 $8 #
shell $-1 $-1 $-1 $19 $-1 $10 #
face $-1 $20 $21 $12 $-1 $22 forward single #
face $-1 $23 $24 $13 $-1 $25 forward single #
face $-1 $26 $27 $14 $-1 $28 forward single #
face $-1 $29 $30 $15 $-1 $31 reversed single #
face $-1 $32 $33 $12 $-1 $34 reversed single #
loop $-1 $-1 $35 $16 #
plane-surface $-1 0 0 13.719328990669016 0 0 1 1 0 0 forward_v I I I I #
face $-1 $36 $37 $13 $-1 $38 reversed single #
loop $-1 $-1 $39 $17 #
plane-surface $-1 -79.215730818194999 0 -5.7849643497577752 0 0 1 1 0 0 forward_v I I I I #
face $-1 $40 $41 $14 $-1 $42 forward single #
loop $-1 $-1 $43 $18 #
plane-surface $-1 50.856677167459019 97.008728714587903 139.98917818446003 1 0 0 0 -0.75470958851134928 -0.65605901945558964 forward_v I I I I #
face $-1 $44 $45 $15 $-1 $46 reversed single #
loop $-1 $47 $48 $19 #
cone-surface $-1 60.741916268595375 24.146002090694811 6.4141004864105096 0 -0.75470958851134928 -0.65605901945558964 2.5 0 0 1 I I 0 1 2.5 forward I I I I #
face $-1 $49 $50 $12 $-1 $51 reversed single #
loop $-1 $-1 $52 $20 #
plane-surface $-1 0 0 -13.719328990669016 0 0 1 1 0 0 forward_v I I I I #
coedge $-1 $53 $54 $55 $56 forward $21 $-1 #
face $-1 $57 $58 $13 $-1 $59 reversed single #
loop $-1 $-1 $60 $23 #
plane-surface $-1 -79.215730818194999 0 -10.085532476066494 0 0 1 1 0 0 forward_v I I I I #
coedge $-1 $61 $62 $63 $64 reversed $24 $-1 #
face $-1 $65 $66 $14 $-1 $67 forward single #
loop $-1 $-1 $68 $26 #
plane-surface $-1 60.741916268595375 -9.5972540190468436 47.318013586852459 0 0.75470958851134928 0.65605901945558964 1 0 0 forward_v I I I I #
coedge $-1 $69 $70 $71 $72 reversed $27 $-1 #
face $-1 $73 $74 $15 $-1 $75 forward single #
loop $-1 $76 $77 $29 #
cone-surface $-1 60.741916268595375 22.169400933674861 4.6958673585034667 0 -0.75470958851134928 -0.65605901945558964 1.25 0 0 1 I I -0.70710678118654746 0.70710678118654746 1.25 forward I I I I #
loop $-1 $-1 $78 $19 #
coedge $-1 $48 $48 $79 $80 reversed $30 $-1 #
face $-1 $81 $82 $12 $-1 $83 reversed single #
loop $-1 $-1 $84 $32 #
plane-surface $-1 0 -30.748796360911346 0 0 1 0 0 0 1 forward_v I I I I #
coedge $-1 $85 $86 $87 $88 forward $33 $-1 #
coedge $-1 $89 $35 $90 $91 forward $21 $-1 #
coedge $-1 $35 $89 $92 $93 forward $21 $-1 #
coedge $-1 $94 $95 $35 $56 reversed $96 $-1 #
edge $-1 $97 -30.748796360911346 $98 30.748796360911346 $55 $99 forward 7 unknown #
face $-1 $100 $101 $13 $-1 $102 reversed single #
loop $-1 $-1 $103 $36 #
plane-surface $-1 -87.804306266658244 0 -7.9352484129121343 1 0 0 0 0 -1 forward_v I I I I #
coedge $-1 $104 $105 $106 $107 reversed $37 $-1 #
coedge $-1 $108 $39 $109 $110 forward $24 $-1 #
coedge $-1 $39 $108 $111 $112 forward $24 $-1 #
coedge $-1 $113 $114 $39 $64 forward $115 $-1 #
edge $-1 $116 -30.748796360911346 $117 30.748796360911346 $63 $118 forward 7 unknown #
face $-1 $119 $120 $14 $-1 $121 reversed single #
loop $-1 $-1 $122 $40 #
plane-surface $-1 0 0 13.719328990669016 0 0 1 1 0 0 forward_v I I I I #
coedge $-1 $123 $124 $122 $125 reversed $41 $-1 #
coedge $-1 $70 $43 $124 $126 forward $27 $-1 #
coedge $-1 $43 $69 $127 $128 reversed $27 $-1 #
coedge $-1 $129 $122 $43 $72 forward $66 $-1 #
edge $-1 $130 -28.894728194054132 $131 -17.755567996382606 $71 $132 forward 7 unknown #
face $-1 $133 $134 $15 $-1 $135 forward single #
loop $-1 $-1 $136 $44 #
plane-surface $-1 50.856677167459019 97.008728714587903 139.98917818446003 1 0 0 0 -0.75470958851134928 -0.65605901945558964 forward_v I I I I #
loop $-1 $-1 $137 $29 #
coedge $-1 $77 $77 $78 $138 forward $45 $-1 #
coedge $-1 $78 $78 $77 $138 reversed $47 $-1 #
coedge $-1 $79 $79 $48 $80 forward $134 $-1 #
edge $-1 $139 -6.7644430616757411e-016 $139 6.2831853071795996 $79 $140 forward 7 unknown #
face $-1 $141 $142 $12 $-1 $143 reversed single #
loop $-1 $-1 $144 $49 #
plane-surface $-1 -70.627155369731739 0 0 1 0 0 0 0 -1 forward_v I I I I #
coedge $-1 $145 $92 $146 $147 forward $50 $-1 #
coedge $-1 $148 $52 $145 $149 forward $33 $-1 #
coedge $-1 $52 $148 $150 $151 forward $33 $-1 #
coedge $-1 $95 $94 $52 $88 reversed $96 $-1 #
edge $-1 $152 -30.748796360911346 $153 30.748796360911346 $87 $154 forward 7 unknown #
coedge $-1 $54 $53 $155 $156 forward $21 $-1 #
coedge $-1 $157 $158 $53 $91 reversed $142 $-1 #
edge $-1 $98 -70.627155369731739 $159 70.627155369731739 $90 $160 forward 7 unknown #
coedge $-1 $84 $161 $54 $93 reversed $50 $-1 #
edge $-1 $162 -70.627155369731739 $97 70.627155369731739 $92 $163 forward 7 unknown #
coedge $-1 $87 $55 $161 $164 forward $96 $-1 #
coedge $-1 $55 $87 $157 $165 reversed $96 $-1 #
loop $-1 $-1 $94 $141 #
vertex $-1 $56 $166 #
vertex $-1 $56 $167 #
straight-curve $-1 70.627155369731739 0 13.719328990669016 0 1 0 I I #
face $-1 $168 $115 $13 $-1 $102 reversed single #
loop $-1 $-1 $106 $57 #
plane-surface $-1 -70.627155369731739 0 0 1 0 0 0 0 -1 forward_v I I I I #
coedge $-1 $169 $170 $171 $172 forward $58 $-1 #
coedge $-1 $173 $60 $174 $175 forward $37 $-1 #
coedge $-1 $60 $173 $176 $177 forward $37 $-1 #
coedge $-1 $178 $179 $60 $107 forward $101 $-1 #
edge $-1 $180 -30.748796360911346 $181 30.748796360911346 $106 $182 forward 7 unknown #
coedge $-1 $62 $61 $170 $183 forward $24 $-1 #
coedge $-1 $184 $171 $61 $110 reversed $185 $-1 #
edge $-1 $116 -8.5885754484632457 $186 8.5885754484632457 $109 $187 forward 7 unknown #
coedge $-1 $188 $189 $62 $112 reversed $190 $-1 #
edge $-1 $191 -8.5885754484632457 $117 8.5885754484632457 $111 $192 forward 7 unknown #
coedge $-1 $193 $63 $189 $194 reversed $115 $-1 #
coedge $-1 $63 $193 $184 $195 forward $115 $-1 #
loop $-1 $-1 $63 $100 #
vertex $-1 $195 $196 #
vertex $-1 $112 $197 #
straight-curve $-1 -70.627155369731739 0 -5.7849643497577752 0 -1 0 I I #
face $-1 $198 $199 $14 $-1 $200 forward single #
loop $-1 $-1 $127 $65 #
plane-surface $-1 0 30.748796360911346 0 0 -1 0 0 0 -1 forward_v I I I I #
coedge $-1 $71 $201 $68 $125 forward $66 $-1 #
coedge $-1 $202 $68 $203 $204 reversed $41 $-1 #
coedge $-1 $68 $202 $69 $126 reversed $41 $-1 #
edge $-1 $205 -40.256197235434037 $130 -20.485719033161331 $122 $206 forward 7 unknown #
edge $-1 $130 44.518693160446311 $207 61.497592721822677 $69 $208 forward 7 unknown #
coedge $-1 $209 $210 $70 $128 forward $120 $-1 #
edge $-1 $131 56.275260101561003 $207 69.089398402902887 $127 $211 forward 7 unknown #
coedge $-1 $212 $71 $210 $213 forward $66 $-1 #
vertex $-1 $125 $214 #
vertex $-1 $213 $215 #
straight-curve $-1 50.856677167459019 48.504364357293952 13.719328990669013 0 1 0 I I #
face $-1 $216 $217 $15 $-1 $218 forward single #
loop $-1 $219 $79 $73 #
plane-surface $-1 60.741916268595375 -9.5972540190468436 47.318013586852459 0 0.75470958851134928 0.65605901945558964 1 0 0 forward_v I I I I #
coedge $-1 $220 $221 $222 $223 reversed $74 $-1 #
coedge $-1 $137 $137 $-1 $224 forward $76 $-1 #
edge $-1 $225 0 $225 6.2831853071796004 $77 $226 forward 7 unknown #
vertex $-1 $80 $227 #
ellipse-curve $-1 60.741916268595375 25.179216262075581 7.3122598399980703 0 -0.75470958851134928 -0.65605901945558964 2.5 0 0 1 I I #
face $-1 $-1 $96 $12 $-1 $228 reversed single #
loop $-1 $-1 $157 $81 #
plane-surface $-1 0 30.748796360911346 0 0 -1 0 0 0 -1 forward_v I I I I #
coedge $-1 $229 $155 $158 $230 forward $82 $-1 #
coedge $-1 $161 $84 $85 $149 reversed $50 $-1 #
coedge $-1 $155 $229 $84 $147 reversed $82 $-1 #
edge $-1 $162 -13.719328990669016 $231 13.719328990669016 $146 $232 forward 7 unknown #
coedge $-1 $86 $85 $229 $233 forward $33 $-1 #
edge $-1 $153 -70.627155369731739 $231 70.627155369731739 $145 $234 forward 7 unknown #
coedge $-1 $158 $157 $86 $151 reversed $142 $-1 #
edge $-1 $235 -70.627155369731739 $152 70.627155369731739 $150 $236 forward 7 unknown #
vertex $-1 $88 $237 #
vertex $-1 $164 $238 #
straight-curve $-1 70.627155369731739 0 -13.719328990669016 0 -1 0 I I #
coedge $-1 $144 $146 $89 $156 reversed $82 $-1 #
edge $-1 $159 -30.748796360911346 $162 30.748796360911346 $155 $239 forward 7 unknown #
coedge $-1 $150 $90 $95 $165 forward $142 $-1 #
coedge $-1 $90 $150 $144 $230 reversed $142 $-1 #
vertex $-1 $91 $240 #
straight-curve $-1 0 30.748796360911346 13.719328990669016 -1 0 0 I I #
coedge $-1 $92 $145 $94 $164 reversed $50 $-1 #
vertex $-1 $156 $241 #
straight-curve $-1 0 -30.748796360911346 13.719328990669016 1 0 0 I I #
edge $-1 $97 -13.719328990669016 $153 13.719328990669016 $94 $242 forward 7 unknown #
edge $-1 $98 -13.719328990669016 $152 13.719328990669016 $95 $243 forward 7 unknown #
point $-1 70.627155369731739 -30.748796360911346 13.719328990669016 #
point $-1 70.627155369731739 30.748796360911346 13.719328990669016 #
face $-1 $244 $245 $13 $-1 $246 forward single #
coedge $-1 $247 $103 $173 $248 reversed $58 $-1 #
coedge $-1 $103 $247 $108 $183 reversed $58 $-1 #
coedge $-1 $109 $176 $103 $172 reversed $185 $-1 #
edge $-1 $186 -2.1502840631543592 $249 2.1502840631543592 $171 $250 forward 7 unknown #
coedge $-1 $105 $104 $169 $248 forward $37 $-1 #
coedge $-1 $251 $188 $104 $175 reversed $190 $-1 #
edge $-1 $180 -8.5885754484632457 $252 8.5885754484632457 $174 $253 forward 7 unknown #
coedge $-1 $171 $254 $105 $177 reversed $185 $-1 #
edge $-1 $249 -8.5885754484632457 $181 8.5885754484632457 $176 $255 forward 7 unknown #
coedge $-1 $256 $106 $254 $257 forward $101 $-1 #
coedge $-1 $106 $256 $251 $258 reversed $101 $-1 #
vertex $-1 $258 $259 #
vertex $-1 $257 $260 #
straight-curve $-1 -70.627155369731739 0 -10.085532476066494 0 1 0 I I #
edge $-1 $186 -30.748796360911346 $191 30.748796360911346 $170 $261 forward 7 unknown #
coedge $-1 $262 $109 $114 $195 reversed $185 $-1 #
loop $-1 $-1 $263 $264 #
vertex $-1 $110 $265 #
straight-curve $-1 -79.215730818194999 30.748796360911346 -5.7849643497577752 -1 0 0 I I #
coedge $-1 $174 $111 $247 $266 forward $190 $-1 #
coedge $-1 $111 $267 $113 $194 forward $190 $-1 #
loop $-1 $-1 $189 $268 #
vertex $-1 $183 $269 #
straight-curve $-1 -79.215730818194999 -30.748796360911346 -5.7849643497577752 1 0 0 I I #
coedge $-1 $114 $113 $270 $271 reversed $115 $-1 #
edge $-1 $272 -13.719328990669016 $117 5.7849643497577752 $113 $273 forward 7 unknown #
edge $-1 $274 -13.719328990669016 $116 5.7849643497577752 $184 $275 forward 7 unknown #
point $-1 -70.627155369731753 30.748796360911346 -5.7849643497577752 #
point $-1 -70.627155369731753 -30.748796360911346 -5.7849643497577752 #
face $-1 $276 $277 $14 $-1 $278 reversed single #
loop $-1 $-1 $279 $119 #
plane-surface $-1 -79.215730818194999 0 -5.7849643497577752 0 0 1 1 0 0 forward_v I I I I #
coedge $-1 $122 $280 $281 $282 forward $66 $-1 #
coedge $-1 $124 $123 $209 $283 reversed $41 $-1 #
coedge $-1 $281 $284 $123 $204 forward $285 $-1 #
edge $-1 $286 -40.493730909567702 $205 -23.514831348191329 $203 $287 forward 7 unknown #
vertex $-1 $204 $288 #
straight-curve $-1 30.370958134297688 19.60963616323982 13.719328990669013 -1 0 0 I I #
vertex $-1 $283 $289 #
straight-curve $-1 50.856677167459019 -9.5972540190468436 47.318013586852459 0 0.65605901945558964 -0.75470958851134928 I I #
coedge $-1 $290 $127 $202 $283 forward $120 $-1 #
coedge $-1 $127 $291 $129 $213 reversed $120 $-1 #
straight-curve $-1 50.856677167459019 30.748796360911342 69.994589092230015 0 0 -1 I I #
coedge $-1 $280 $129 $292 $293 forward $66 $-1 #
edge $-1 $131 -50.856677167459019 $294 70.627155369731739 $210 $295 forward 7 unknown #
point $-1 50.856677167459019 19.60963616323982 13.719328990669013 #
point $-1 50.856677167459019 30.748796360911346 13.719328990669016 #
face $-1 $296 $297 $15 $-1 $298 reversed single #
loop $-1 $-1 $299 $133 #
plane-surface $-1 0 0 13.719328990669016 0 0 1 1 0 0 forward_v I I I I #
loop $-1 $-1 $300 $73 #
coedge $-1 $221 $136 $301 $302 forward $74 $-1 #
coedge $-1 $136 $220 $303 $304 reversed $74 $-1 #
coedge $-1 $305 $299 $136 $223 forward $217 $-1 #
edge $-1 $306 -28.894728194054132 $307 -17.755567996382606 $222 $308 forward 7 unknown #
edge $-1 $309 1 $309 0 $137 $-1 forward 7 unknown #
vertex $-1 $138 $310 #
ellipse-curve $-1 60.741916268595375 23.112787919314048 5.5159411328229542 0 0.75470958851134928 0.65605901945558964 2.5 0 0 1 I I #
point $-1 63.241916268595375 25.179216262075578 7.3122598399980649 #
plane-surface $-1 70.627155369731739 0 0 -1 0 0 0 0 1 forward_v I I I I #
coedge $-1 $146 $144 $148 $233 reversed $82 $-1 #
edge $-1 $159 -13.719328990669016 $235 13.719328990669016 $158 $311 forward 7 unknown #
vertex $-1 $233 $312 #
straight-curve $-1 -70.627155369731739 -30.748796360911346 0 0 0 -1 I I #
edge $-1 $231 -30.748796360911346 $235 30.748796360911346 $229 $313 forward 7 unknown #
straight-curve $-1 0 -30.748796360911346 -13.719328990669016 -1 0 0 I I #
vertex $-1 $151 $314 #
straight-curve $-1 0 30.748796360911346 -13.719328990669016 1 0 0 I I #
point $-1 70.627155369731739 30.748796360911346 -13.719328990669016 #
point $-1 70.627155369731739 -30.748796360911346 -13.719328990669016 #
straight-curve $-1 -70.627155369731739 0 13.719328990669016 0 -1 0 I I #
point $-1 -70.627155369731739 30.748796360911346 13.719328990669016 #
point $-1 -70.627155369731739 -30.748796360911346 13.719328990669016 #
straight-curve $-1 70.627155369731739 -30.748796360911346 0 0 0 -1 I I #
straight-curve $-1 70.627155369731739 30.748796360911346 0 0 0 -1 I I #
face $-1 $268 $315 $13 $-1 $316 reversed single #
loop $-1 $-1 $317 $168 #
plane-surface $-1 0 0 13.719328990669016 0 0 1 1 0 0 forward_v I I I I #
coedge $-1 $170 $169 $188 $266 reversed $58 $-1 #
edge $-1 $252 -30.748796360911346 $249 30.748796360911346 $169 $318 forward 7 unknown #
vertex $-1 $177 $319 #
straight-curve $-1 -87.804306266658244 30.748796360911346 -7.9352484129121343 0 0 -1 I I #
coedge $-1 $320 $174 $179 $258 forward $190 $-1 #
vertex $-1 $248 $321 #
straight-curve $-1 -79.215730818194999 -30.748796360911346 -10.085532476066494 -1 0 0 I I #
coedge $-1 $176 $322 $178 $257 reversed $185 $-1 #
straight-curve $-1 -79.215730818194999 30.748796360911346 -10.085532476066494 1 0 0 I I #
coedge $-1 $179 $178 $323 $324 reversed $101 $-1 #
edge $-1 $181 10.085532476066494 $325 13.719328990669016 $254 $275 forward 7 unknown #
edge $-1 $180 10.085532476066494 $326 13.719328990669016 $179 $273 forward 7 unknown #
point $-1 -70.627155369731753 -30.748796360911346 -10.085532476066494 #
point $-1 -70.627155369731753 30.748796360911346 -10.085532476066494 #
straight-curve $-1 -87.804306266658244 0 -5.7849643497577752 0 -1 0 I I #
coedge $-1 $263 $184 $327 $328 reversed $185 $-1 #
coedge $-1 $322 $262 $329 $330 forward $185 $-1 #
face $-1 $331 $185 $13 $-1 $332 reversed single #
point $-1 -87.804306266658244 30.748796360911346 -5.7849643497577752 #
edge $-1 $191 -2.1502840631543592 $252 2.1502840631543592 $247 $333 forward 7 unknown #
coedge $-1 $189 $334 $335 $336 reversed $190 $-1 #
face $-1 $264 $190 $13 $-1 $337 reversed single #
point $-1 -87.804306266658244 -30.748796360911346 -5.7849643497577752 #
coedge $-1 $335 $327 $193 $271 forward $245 $-1 #
edge $-1 $274 -30.748796360911346 $272 30.748796360911346 $193 $338 forward 7 unknown #
vertex $-1 $271 $339 #
straight-curve $-1 -70.627155369731739 -30.748796360911346 0 0 0 -1 I I #
vertex $-1 $328 $340 #
straight-curve $-1 -70.627155369731739 30.748796360911346 0 0 0 -1 I I #
face $-1 $341 $342 $14 $-1 $343 reversed single #
loop $-1 $-1 $344 $198 #
plane-surface $-1 -79.215730818194999 0 -10.085532476066494 0 0 1 1 0 0 forward_v I I I I #
coedge $-1 $345 $346 $347 $348 reversed $199 $-1 #
coedge $-1 $201 $212 $349 $350 forward $66 $-1 #
coedge $-1 $351 $203 $201 $282 reversed $285 $-1 #
edge $-1 $352 -30.748796360911346 $205 19.60963616323982 $281 $353 forward 7 unknown #
edge $-1 $207 20.485719033161331 $286 40.256197235434037 $209 $354 forward 7 unknown #
coedge $-1 $203 $355 $290 $356 reversed $285 $-1 #
loop $-1 $-1 $203 $357 #
vertex $-1 $356 $358 #
straight-curve $-1 70.627155369731739 4.1825189662818563 31.466197681376265 0 -0.65605901945558975 0.75470958851134939 I I #
point $-1 70.627155369731724 19.60963616323982 13.719328990669013 #
point $-1 50.856677167459019 30.748796360911342 0.90519068932712798 #
coedge $-1 $359 $209 $284 $356 forward $120 $-1 #
coedge $-1 $210 $360 $361 $362 reversed $120 $-1 #
coedge $-1 $361 $363 $212 $293 reversed $364 $-1 #
edge $-1 $294 -30.748796360911346 $365 30.748796360911346 $292 $366 forward 7 unknown #
vertex $-1 $213 $367 #
straight-curve $-1 0 30.748796360911346 13.719328990669016 -1 0 0 I I #
face $-1 $368 $369 $15 $-1 $370 forward single #
loop $-1 $-1 $303 $216 #
plane-surface $-1 0 30.748796360911346 0 0 -1 0 0 0 -1 forward_v I I I I #
coedge $-1 $222 $371 $300 $372 forward $217 $-1 #
coedge $-1 $373 $301 $299 $372 reversed $219 $-1 #
coedge $-1 $300 $374 $220 $302 reversed $219 $-1 #
edge $-1 $306 44.518693160446311 $375 61.497592721822677 $220 $376 forward 7 unknown #
coedge $-1 $377 $378 $221 $304 forward $297 $-1 #
edge $-1 $307 56.275260101561003 $375 69.089398402902887 $303 $379 forward 7 unknown #
coedge $-1 $380 $222 $378 $381 forward $217 $-1 #
vertex $-1 $372 $382 #
vertex $-1 $381 $383 #
straight-curve $-1 50.856677167459019 48.504364357293952 13.719328990669013 0 1 0 I I #
vertex $-1 $224 $384 #
point $-1 63.241916268595375 23.112787919314048 5.5159411328229542 #
straight-curve $-1 -70.627155369731739 30.748796360911346 0 0 0 -1 I I #
point $-1 -70.627155369731739 -30.748796360911346 -13.719328990669016 #
straight-curve $-1 -70.627155369731739 0 -13.719328990669016 0 1 0 I I #
point $-1 -70.627155369731739 30.748796360911346 -13.719328990669016 #
loop $-1 $-1 $385 $244 #
plane-surface $-1 0 0 -13.719328990669016 0 0 1 1 0 0 forward_v I I I I #
coedge $-1 $327 $335 $386 $387 forward $245 $-1 #
straight-curve $-1 -87.804306266658244 0 -10.085532476066494 0 1 0 I I #
point $-1 -87.804306266658244 30.748796360911346 -10.085532476066494 #
coedge $-1 $334 $251 $388 $389 reversed $190 $-1 #
point $-1 -87.804306266658244 -30.748796360911346 -10.085532476066494 #
coedge $-1 $254 $263 $390 $391 reversed $185 $-1 #
coedge $-1 $390 $388 $256 $324 forward $315 $-1 #
edge $-1 $326 -30.748796360911346 $325 30.748796360911346 $256 $392 forward 7 unknown #
vertex $-1 $391 $393 #
vertex $-1 $324 $394 #
coedge $-1 $270 $317 $262 $328 forward $245 $-1 #
edge $-1 $395 -70.627155369731739 $274 70.627155369731739 $262 $396 forward 7 unknown #
coedge $-1 $386 $397 $263 $330 reversed $398 $-1 #
edge $-1 $395 -13.719328990669016 $399 13.719328990669016 $329 $400 forward 7 unknown #
face $-1 $-1 $398 $13 $-1 $401 reversed single #
plane-surface $-1 0 30.748796360911346 0 0 -1 0 0 0 -1 forward_v I I I I #
straight-curve $-1 -87.804306266658244 -30.748796360911346 -7.9352484129121343 0 0 -1 I I #
coedge $-1 $267 $320 $402 $403 reversed $190 $-1 #
coedge $-1 $317 $270 $267 $336 forward $245 $-1 #
edge $-1 $272 -70.627155369731739 $404 70.627155369731739 $267 $405 forward 7 unknown #
plane-surface $-1 0 -30.748796360911346 0 0 1 0 0 0 1 forward_v I I I I #
straight-curve $-1 -70.627155369731739 0 13.719328990669016 0 -1 0 I I #
point $-1 -70.627155369731739 -30.748796360911346 13.719328990669016 #
point $-1 -70.627155369731739 30.748796360911346 13.719328990669016 #
face $-1 $406 $407 $14 $-1 $408 reversed single #
loop $-1 $-1 $409 $276 #
plane-surface $-1 -87.804306266658244 0 -7.9352484129121343 1 0 0 0 0 -1 forward_v I I I I #
coedge $-1 $410 $411 $412 $413 reversed $277 $-1 #
coedge $-1 $414 $279 $360 $415 forward $199 $-1 #
coedge $-1 $279 $414 $416 $417 forward $199 $-1 #
coedge $-1 $363 $361 $279 $348 forward $364 $-1 #
edge $-1 $418 -30.748796360911346 $419 30.748796360911346 $347 $420 forward 7 unknown #
coedge $-1 $421 $422 $280 $350 reversed $423 $-1 #
edge $-1 $365 -70.627155369731739 $352 70.627155369731739 $349 $424 forward 7 unknown #
coedge $-1 $355 $281 $422 $425 forward $285 $-1 #
vertex $-1 $282 $426 #
straight-curve $-1 70.627155369731739 0 13.719328990669016 0 1 0 I I #
straight-curve $-1 30.370958134297688 30.748796360911342 0.90519068932712443 1 0 0 I I #
coedge $-1 $284 $351 $427 $428 reversed $285 $-1 #
edge $-1 $286 -0.90519068932712798 $429 13.719328990669016 $284 $430 forward 7 unknown #
face $-1 $-1 $285 $14 $-1 $431 reversed single #
point $-1 70.627155369731724 30.748796360911342 0.90519068932712798 #
coedge $-1 $432 $290 $433 $434 reversed $120 $-1 #
coedge $-1 $291 $435 $345 $415 reversed $120 $-1 #
coedge $-1 $347 $292 $291 $362 forward $364 $-1 #
edge $-1 $294 -13.719328990669016 $418 5.7849643497577752 $291 $436 forward 7 unknown #
coedge $-1 $292 $347 $421 $437 reversed $364 $-1 #
loop $-1 $-1 $347 $406 #
vertex $-1 $293 $438 #
straight-curve $-1 -70.627155369731739 0 13.719328990669016 0 -1 0 I I #
point $-1 -70.627155369731739 30.748796360911346 13.719328990669016 #
face $-1 $439 $440 $15 $-1 $441 reversed single #
loop $-1 $-1 $442 $296 #
plane-surface $-1 -79.215730818194999 0 -5.7849643497577752 0 0 1 1 0 0 forward_v I I I I #
coedge $-1 $299 $443 $444 $445 forward $217 $-1 #
edge $-1 $446 -40.256197235434037 $306 -20.485719033161331 $299 $447 forward 7 unknown #
coedge $-1 $374 $300 $448 $449 reversed $219 $-1 #
coedge $-1 $301 $373 $377 $450 reversed $219 $-1 #
vertex $-1 $450 $451 #
straight-curve $-1 50.856677167459019 -9.5972540190468436 47.318013586852459 0 0.65605901945558964 -0.75470958851134928 I I #
coedge $-1 $452 $303 $374 $450 forward $297 $-1 #
coedge $-1 $303 $453 $305 $381 reversed $297 $-1 #
straight-curve $-1 50.856677167459019 30.748796360911342 69.994589092230015 0 0 -1 I I #
coedge $-1 $443 $305 $454 $455 forward $217 $-1 #
edge $-1 $307 -50.856677167459019 $456 70.627155369731739 $378 $457 forward 7 unknown #
point $-1 50.856677167459019 19.60963616323982 13.719328990669013 #
point $-1 50.856677167459019 30.748796360911346 13.719328990669016 #
point $-1 60.741916268595375 21.226013948035675 3.8757935841839797 #
coedge $-1 $388 $390 $397 $458 forward $315 $-1 #
coedge $-1 $402 $329 $317 $387 reversed $398 $-1 #
edge $-1 $404 -30.748796360911346 $395 30.748796360911346 $386 $459 forward 7 unknown #
coedge $-1 $323 $385 $320 $389 forward $315 $-1 #
edge $-1 $460 -70.627155369731739 $326 70.627155369731739 $320 $461 forward 7 unknown #
coedge $-1 $385 $323 $322 $391 forward $315 $-1 #
edge $-1 $325 -70.627155369731739 $399 70.627155369731739 $322 $462 forward 7 unknown #
straight-curve $-1 -70.627155369731739 0 -13.719328990669016 0 1 0 I I #
point $-1 -70.627155369731739 30.748796360911346 -13.719328990669016 #
point $-1 -70.627155369731739 -30.748796360911346 -13.719328990669016 #
vertex $-1 $387 $463 #
straight-curve $-1 0 30.748796360911346 13.719328990669016 -1 0 0 I I #
coedge $-1 $329 $402 $385 $458 reversed $398 $-1 #
loop $-1 $-1 $402 $331 #
vertex $-1 $458 $464 #
straight-curve $-1 70.627155369731739 30.748796360911346 0 0 0 -1 I I #
plane-surface $-1 70.627155369731739 0 0 -1 0 0 0 0 1 forward_v I I I I #
coedge $-1 $397 $386 $334 $403 forward $398 $-1 #
edge $-1 $404 -13.719328990669016 $460 13.719328990669016 $402 $465 forward 7 unknown #
vertex $-1 $387 $466 #
straight-curve $-1 0 -30.748796360911346 13.719328990669016 1 0 0 I I #
face $-1 $467 $364 $14 $-1 $408 reversed single #
loop $-1 $-1 $412 $341 #
plane-surface $-1 -70.627155369731739 0 0 1 0 0 0 0 -1 forward_v I I I I #
coedge $-1 $468 $469 $435 $470 forward $342 $-1 #
coedge $-1 $471 $344 $472 $473 forward $277 $-1 #
coedge $-1 $344 $471 $474 $475 forward $277 $-1 #
coedge $-1 $476 $477 $344 $413 forward $407 $-1 #
edge $-1 $478 -30.748796360911346 $479 30.748796360911346 $412 $480 forward 7 unknown #
coedge $-1 $346 $345 $469 $481 forward $199 $-1 #
edge $-1 $418 -8.5885754484632457 $482 8.5885754484632457 $360 $483 forward 7 unknown #
coedge $-1 $484 $421 $346 $417 reversed $423 $-1 #
edge $-1 $485 -8.5885754484632457 $419 8.5885754484632457 $416 $486 forward 7 unknown #
vertex $-1 $362 $487 #
vertex $-1 $417 $488 #
straight-curve $-1 -70.627155369731739 0 -5.7849643497577752 0 -1 0 I I #
coedge $-1 $416 $349 $363 $437 forward $423 $-1 #
coedge $-1 $349 $489 $351 $425 reversed $423 $-1 #
loop $-1 $-1 $421 $490 #
straight-curve $-1 0 -30.748796360911346 13.719328990669016 1 0 0 I I #
edge $-1 $352 -13.719328990669016 $491 13.719328990669016 $351 $492 forward 7 unknown #
point $-1 70.627155369731739 -30.748796360911346 13.719328990669016 #
coedge $-1 $493 $433 $355 $428 forward $494 $-1 #
edge $-1 $429 -30.748796360911346 $491 30.748796360911346 $355 $495 forward 7 unknown #
vertex $-1 $428 $496 #
straight-curve $-1 70.627155369731739 30.748796360911346 0 0 0 -1 I I #
plane-surface $-1 70.627155369731739 0 0 -1 0 0 0 0 1 forward_v I I I I #
coedge $-1 $474 $359 $476 $497 reversed $120 $-1 #
coedge $-1 $427 $498 $359 $434 forward $494 $-1 #
edge $-1 $499 -70.627155369731739 $429 70.627155369731739 $359 $500 forward 7 unknown #
coedge $-1 $360 $474 $409 $470 reversed $120 $-1 #
straight-curve $-1 -70.627155369731739 30.748796360911346 0 0 0 -1 I I #
edge $-1 $365 -13.719328990669016 $419 5.7849643497577752 $363 $501 forward 7 unknown #
point $-1 -70.627155369731739 -30.748796360911346 13.719328990669016 #
face $-1 $502 $503 $15 $-1 $504 reversed single #
loop $-1 $-1 $505 $368 #
plane-surface $-1 -79.215730818194999 0 -10.085532476066494 0 0 1 1 0 0 forward_v I I I I #
coedge $-1 $506 $507 $508 $509 reversed $369 $-1 #
coedge $-1 $371 $380 $510 $511 forward $217 $-1 #
coedge $-1 $512 $448 $371 $445 reversed $513 $-1 #
edge $-1 $514 -30.748796360911346 $446 19.60963616323982 $444 $515 forward 7 unknown #
vertex $-1 $449 $516 #
straight-curve $-1 30.370958134297688 19.60963616323982 13.719328990669013 -1 0 0 I I #
coedge $-1 $444 $517 $373 $449 forward $513 $-1 #
edge $-1 $518 -40.493730909567702 $446 -23.514831348191329 $448 $519 forward 7 unknown #
edge $-1 $375 20.485719033161331 $518 40.256197235434037 $377 $520 forward 7 unknown #
point $-1 50.856677167459019 30.748796360911342 0.90519068932712798 #
coedge $-1 $521 $377 $517 $522 forward $297 $-1 #
coedge $-1 $378 $523 $524 $525 reversed $297 $-1 #
coedge $-1 $524 $526 $380 $455 reversed $527 $-1 #
edge $-1 $456 -30.748796360911346 $528 30.748796360911346 $454 $529 forward 7 unknown #
vertex $-1 $381 $530 #
straight-curve $-1 0 30.748796360911346 13.719328990669016 -1 0 0 I I #
edge $-1 $399 -30.748796360911346 $460 30.748796360911346 $397 $531 forward 7 unknown #
straight-curve $-1 70.627155369731739 0 13.719328990669016 0 1 0 I I #
vertex $-1 $403 $532 #
straight-curve $-1 0 -30.748796360911346 -13.719328990669016 -1 0 0 I I #
straight-curve $-1 0 30.748796360911346 -13.719328990669016 1 0 0 I I #
point $-1 70.627155369731739 30.748796360911346 13.719328990669016 #
point $-1 70.627155369731739 30.748796360911346 -13.719328990669016 #
straight-curve $-1 70.627155369731739 -30.748796360911346 0 0 0 -1 I I #
point $-1 70.627155369731739 -30.748796360911346 13.719328990669016 #
face $-1 $490 $494 $14 $-1 $533 reversed single #
coedge $-1 $534 $409 $471 $535 reversed $342 $-1 #
coedge $-1 $409 $534 $414 $481 reversed $342 $-1 #
edge $-1 $482 -2.1502840631543592 $536 2.1502840631543592 $435 $537 forward 7 unknown #
coedge $-1 $411 $410 $468 $535 forward $277 $-1 #
coedge $-1 $538 $484 $410 $473 reversed $423 $-1 #
edge $-1 $478 -8.5885754484632457 $539 8.5885754484632457 $472 $540 forward 7 unknown #
coedge $-1 $435 $432 $411 $475 reversed $120 $-1 #
edge $-1 $536 -8.5885754484632457 $479 8.5885754484632457 $474 $541 forward 7 unknown #
coedge $-1 $542 $412 $432 $497 forward $407 $-1 #
coedge $-1 $412 $542 $538 $543 reversed $407 $-1 #
vertex $-1 $543 $544 #
vertex $-1 $497 $545 #
straight-curve $-1 -70.627155369731739 0 -10.085532476066494 0 1 0 I I #
edge $-1 $482 -30.748796360911346 $485 30.748796360911346 $469 $546 forward 7 unknown #
vertex $-1 $415 $547 #
straight-curve $-1 -79.215730818194999 30.748796360911346 -5.7849643497577752 -1 0 0 I I #
coedge $-1 $472 $416 $534 $548 forward $423 $-1 #
vertex $-1 $481 $549 #
straight-curve $-1 -79.215730818194999 -30.748796360911346 -5.7849643497577752 1 0 0 I I #
point $-1 -70.627155369731753 30.748796360911346 -5.7849643497577752 #
point $-1 -70.627155369731753 -30.748796360911346 -5.7849643497577752 #
coedge $-1 $422 $538 $493 $550 reversed $423 $-1 #
face $-1 $357 $423 $14 $-1 $551 reversed single #
vertex $-1 $425 $552 #
straight-curve $-1 70.627155369731739 -30.748796360911346 0 0 0 -1 I I #
coedge $-1 $498 $427 $489 $550 forward $494 $-1 #
loop $-1 $-1 $427 $467 #
straight-curve $-1 70.627155369731739 0 -13.719328990669016 0 -1 0 I I #
point $-1 70.627155369731739 30.748796360911346 -13.719328990669016 #
edge $-1 $479 10.085532476066494 $499 13.719328990669016 $432 $436 forward 7 unknown #
coedge $-1 $433 $493 $542 $553 forward $494 $-1 #
vertex $-1 $434 $554 #
straight-curve $-1 0 30.748796360911346 -13.719328990669016 1 0 0 I I #
straight-curve $-1 -70.627155369731739 -30.748796360911346 0 0 0 -1 I I #
face $-1 $555 $556 $15 $-1 $557 reversed single #
loop $-1 $-1 $558 $439 #
plane-surface $-1 -87.804306266658244 0 -7.9352484129121343 1 0 0 0 0 -1 forward_v I I I I #
coedge $-1 $559 $560 $561 $562 reversed $440 $-1 #
coedge $-1 $563 $442 $523 $564 forward $369 $-1 #
coedge $-1 $442 $563 $565 $566 forward $369 $-1 #
coedge $-1 $526 $524 $442 $509 forward $527 $-1 #
edge $-1 $567 -30.748796360911346 $568 30.748796360911346 $508 $569 forward 7 unknown #
coedge $-1 $570 $571 $443 $511 reversed $572 $-1 #
edge $-1 $528 -70.627155369731739 $514 70.627155369731739 $510 $573 forward 7 unknown #
coedge $-1 $574 $444 $571 $575 forward $513 $-1 #
loop $-1 $-1 $448 $576 #
vertex $-1 $445 $577 #
straight-curve $-1 70.627155369731739 0 13.719328990669016 0 1 0 I I #
point $-1 70.627155369731724 19.60963616323982 13.719328990669013 #
coedge $-1 $448 $574 $452 $522 reversed $513 $-1 #
vertex $-1 $522 $578 #
straight-curve $-1 70.627155369731739 4.1825189662818563 31.466197681376265 0 -0.65605901945558975 0.75470958851134939 I I #
straight-curve $-1 30.370958134297688 30.748796360911342 0.90519068932712443 1 0 0 I I #
coedge $-1 $579 $452 $580 $581 reversed $297 $-1 #
edge $-1 $518 -0.90519068932712798 $582 13.719328990669016 $517 $583 forward 7 unknown #
coedge $-1 $453 $584 $506 $564 reversed $297 $-1 #
coedge $-1 $508 $454 $453 $525 forward $527 $-1 #
edge $-1 $456 -13.719328990669016 $567 5.7849643497577752 $453 $585 forward 7 unknown #
coedge $-1 $454 $508 $570 $586 reversed $527 $-1 #
loop $-1 $-1 $508 $555 #
vertex $-1 $455 $587 #
straight-curve $-1 -70.627155369731739 0 13.719328990669016 0 -1 0 I I #
point $-1 -70.627155369731739 30.748796360911346 13.719328990669016 #
straight-curve $-1 70.627155369731739 0 -13.719328990669016 0 -1 0 I I #
point $-1 70.627155369731739 -30.748796360911346 -13.719328990669016 #
plane-surface $-1 0 0 -13.719328990669016 0 0 1 1 0 0 forward_v I I I I #
coedge $-1 $469 $468 $484 $548 reversed $342 $-1 #
edge $-1 $539 -30.748796360911346 $536 30.748796360911346 $468 $588 forward 7 unknown #
vertex $-1 $475 $589 #
straight-curve $-1 -87.804306266658244 30.748796360911346 -7.9352484129121343 0 0 -1 I I #
coedge $-1 $489 $472 $477 $543 forward $423 $-1 #
vertex $-1 $535 $590 #
straight-curve $-1 -79.215730818194999 -30.748796360911346 -10.085532476066494 -1 0 0 I I #
straight-curve $-1 -79.215730818194999 30.748796360911346 -10.085532476066494 1 0 0 I I #
coedge $-1 $477 $476 $498 $553 reversed $407 $-1 #
edge $-1 $478 10.085532476066494 $591 13.719328990669016 $477 $501 forward 7 unknown #
point $-1 -70.627155369731753 -30.748796360911346 -10.085532476066494 #
point $-1 -70.627155369731753 30.748796360911346 -10.085532476066494 #
straight-curve $-1 -87.804306266658244 0 -5.7849643497577752 0 -1 0 I I #
point $-1 -87.804306266658244 30.748796360911346 -5.7849643497577752 #
edge $-1 $485 -2.1502840631543592 $539 2.1502840631543592 $534 $592 forward 7 unknown #
point $-1 -87.804306266658244 -30.748796360911346 -5.7849643497577752 #
edge $-1 $491 -70.627155369731739 $591 70.627155369731739 $489 $593 forward 7 unknown #
plane-surface $-1 0 -30.748796360911346 0 0 1 0 0 0 1 forward_v I I I I #
point $-1 70.627155369731739 -30.748796360911346 -13.719328990669016 #
edge $-1 $591 -30.748796360911346 $499 30.748796360911346 $542 $594 forward 7 unknown #
point $-1 -70.627155369731739 30.748796360911346 -13.719328990669016 #
face $-1 $595 $527 $15 $-1 $557 reversed single #
loop $-1 $-1 $561 $502 #
plane-surface $-1 -70.627155369731739 0 0 1 0 0 0 0 -1 forward_v I I I I #
coedge $-1 $596 $597 $584 $598 forward $503 $-1 #
coedge $-1 $599 $505 $600 $601 forward $440 $-1 #
coedge $-1 $505 $599 $602 $603 forward $440 $-1 #
coedge $-1 $604 $605 $505 $562 forward $556 $-1 #
edge $-1 $606 -30.748796360911346 $607 30.748796360911346 $561 $608 forward 7 unknown #
coedge $-1 $507 $506 $597 $609 forward $369 $-1 #
edge $-1 $567 -8.5885754484632457 $610 8.5885754484632457 $523 $611 forward 7 unknown #
coedge $-1 $612 $570 $507 $566 reversed $572 $-1 #
edge $-1 $613 -8.5885754484632457 $568 8.5885754484632457 $565 $614 forward 7 unknown #
vertex $-1 $525 $615 #
vertex $-1 $566 $616 #
straight-curve $-1 -70.627155369731739 0 -5.7849643497577752 0 -1 0 I I #
coedge $-1 $565 $510 $526 $586 forward $572 $-1 #
coedge $-1 $510 $617 $512 $575 reversed $572 $-1 #
loop $-1 $-1 $570 $618 #
straight-curve $-1 0 -30.748796360911346 13.719328990669016 1 0 0 I I #
coedge $-1 $517 $512 $619 $620 reversed $513 $-1 #
edge $-1 $514 -13.719328990669016 $621 13.719328990669016 $512 $622 forward 7 unknown #
face $-1 $-1 $513 $15 $-1 $623 reversed single #
point $-1 70.627155369731739 -30.748796360911346 13.719328990669016 #
point $-1 70.627155369731724 30.748796360911342 0.90519068932712798 #
coedge $-1 $602 $521 $604 $624 reversed $297 $-1 #
coedge $-1 $619 $625 $521 $581 forward $626 $-1 #
edge $-1 $627 -70.627155369731739 $582 70.627155369731739 $521 $628 forward 7 unknown #
vertex $-1 $620 $629 #
straight-curve $-1 70.627155369731739 30.748796360911346 0 0 0 -1 I I #
coedge $-1 $523 $602 $558 $598 reversed $297 $-1 #
straight-curve $-1 -70.627155369731739 30.748796360911346 0 0 0 -1 I I #
edge $-1 $528 -13.719328990669016 $568 5.7849643497577752 $526 $630 forward 7 unknown #
point $-1 -70.627155369731739 -30.748796360911346 13.719328990669016 #
straight-curve $-1 -87.804306266658244 0 -10.085532476066494 0 1 0 I I #
point $-1 -87.804306266658244 30.748796360911346 -10.085532476066494 #
point $-1 -87.804306266658244 -30.748796360911346 -10.085532476066494 #
vertex $-1 $553 $631 #
straight-curve $-1 -87.804306266658244 -30.748796360911346 -7.9352484129121343 0 0 -1 I I #
straight-curve $-1 0 -30.748796360911346 -13.719328990669016 -1 0 0 I I #
straight-curve $-1 -70.627155369731739 0 -13.719328990669016 0 1 0 I I #
face $-1 $618 $626 $15 $-1 $632 reversed single #
coedge $-1 $633 $558 $599 $634 reversed $503 $-1 #
coedge $-1 $558 $633 $563 $609 reversed $503 $-1 #
edge $-1 $610 -2.1502840631543592 $635 2.1502840631543592 $584 $636 forward 7 unknown #
coedge $-1 $560 $559 $596 $634 forward $440 $-1 #
coedge $-1 $637 $612 $559 $601 reversed $572 $-1 #
edge $-1 $606 -8.5885754484632457 $638 8.5885754484632457 $600 $639 forward 7 unknown #
coedge $-1 $584 $579 $560 $603 reversed $297 $-1 #
edge $-1 $635 -8.5885754484632457 $607 8.5885754484632457 $602 $640 forward 7 unknown #
coedge $-1 $641 $561 $579 $624 forward $556 $-1 #
coedge $-1 $561 $641 $637 $642 reversed $556 $-1 #
vertex $-1 $642 $643 #
vertex $-1 $624 $644 #
straight-curve $-1 -70.627155369731739 0 -10.085532476066494 0 1 0 I I #
edge $-1 $610 -30.748796360911346 $613 30.748796360911346 $597 $645 forward 7 unknown #
vertex $-1 $564 $646 #
straight-curve $-1 -79.215730818194999 30.748796360911346 -5.7849643497577752 -1 0 0 I I #
coedge $-1 $600 $565 $633 $647 forward $572 $-1 #
vertex $-1 $609 $648 #
straight-curve $-1 -79.215730818194999 -30.748796360911346 -5.7849643497577752 1 0 0 I I #
point $-1 -70.627155369731753 30.748796360911346 -5.7849643497577752 #
point $-1 -70.627155369731753 -30.748796360911346 -5.7849643497577752 #
coedge $-1 $571 $637 $649 $650 reversed $572 $-1 #
face $-1 $576 $572 $15 $-1 $651 reversed single #
coedge $-1 $649 $580 $574 $620 forward $626 $-1 #
edge $-1 $582 -30.748796360911346 $621 30.748796360911346 $574 $652 forward 7 unknown #
vertex $-1 $575 $653 #
straight-curve $-1 70.627155369731739 -30.748796360911346 0 0 0 -1 I I #
plane-surface $-1 70.627155369731739 0 0 -1 0 0 0 0 1 forward_v I I I I #
edge $-1 $607 10.085532476066494 $627 13.719328990669016 $579 $585 forward 7 unknown #
coedge $-1 $580 $649 $641 $654 forward $626 $-1 #
loop $-1 $-1 $619 $595 #
vertex $-1 $581 $655 #
straight-curve $-1 0 30.748796360911346 -13.719328990669016 1 0 0 I I #
point $-1 70.627155369731739 30.748796360911346 -13.719328990669016 #
straight-curve $-1 -70.627155369731739 -30.748796360911346 0 0 0 -1 I I #
point $-1 -70.627155369731739 -30.748796360911346 -13.719328990669016 #
plane-surface $-1 0 0 -13.719328990669016 0 0 1 1 0 0 forward_v I I I I #
coedge $-1 $597 $596 $612 $647 reversed $503 $-1 #
edge $-1 $638 -30.748796360911346 $635 30.748796360911346 $596 $656 forward 7 unknown #
vertex $-1 $603 $657 #
straight-curve $-1 -87.804306266658244 30.748796360911346 -7.9352484129121343 0 0 -1 I I #
coedge $-1 $617 $600 $605 $642 forward $572 $-1 #
vertex $-1 $634 $658 #
straight-curve $-1 -79.215730818194999 -30.748796360911346 -10.085532476066494 -1 0 0 I I #
straight-curve $-1 -79.215730818194999 30.748796360911346 -10.085532476066494 1 0 0 I I #
coedge $-1 $605 $604 $625 $654 reversed $556 $-1 #
edge $-1 $606 10.085532476066494 $659 13.719328990669016 $605 $630 forward 7 unknown #
point $-1 -70.627155369731753 -30.748796360911346 -10.085532476066494 #
point $-1 -70.627155369731753 30.748796360911346 -10.085532476066494 #
straight-curve $-1 -87.804306266658244 0 -5.7849643497577752 0 -1 0 I I #
point $-1 -87.804306266658244 30.748796360911346 -5.7849643497577752 #
edge $-1 $613 -2.1502840631543592 $638 2.1502840631543592 $633 $660 forward 7 unknown #
point $-1 -87.804306266658244 -30.748796360911346 -5.7849643497577752 #
coedge $-1 $625 $619 $617 $650 forward $626 $-1 #
edge $-1 $621 -70.627155369731739 $659 70.627155369731739 $617 $661 forward 7 unknown #
plane-surface $-1 0 -30.748796360911346 0 0 1 0 0 0 1 forward_v I I I I #
straight-curve $-1 70.627155369731739 0 -13.719328990669016 0 -1 0 I I #
point $-1 70.627155369731739 -30.748796360911346 -13.719328990669016 #
edge $-1 $659 -30.748796360911346 $627 30.748796360911346 $641 $662 forward 7 unknown #
point $-1 -70.627155369731739 30.748796360911346 -13.719328990669016 #
straight-curve $-1 -87.804306266658244 0 -10.085532476066494 0 1 0 I I #
point $-1 -87.804306266658244 30.748796360911346 -10.085532476066494 #
point $-1 -87.804306266658244 -30.748796360911346 -10.085532476066494 #
vertex $-1 $654 $663 #
straight-curve $-1 -87.804306266658244 -30.748796360911346 -7.9352484129121343 0 0 -1 I I #
straight-curve $-1 0 -30.748796360911346 -13.719328990669016 -1 0 0 I I #
straight-curve $-1 -70.627155369731739 0 -13.719328990669016 0 1 0 I I #
point $-1 -70.627155369731739 -30.748796360911346 -13.719328990669016 #
End-of-ACIS-data 