500 0 8 0           
7 Unknown 11 ACIS 5.0 NT 24 Fri Mar 26 01:21:17 1999 
-1 9.9999999999999995e-007 1e-010 
body $-1 $8 $-1 $9 #
body $-1 $10 $-1 $11 #
body $-1 $12 $-1 $13 #
body $-1 $14 $-1 $15 #
body $-1 $16 $-1 $17 #
body $-1 $18 $-1 $19 #
body $-1 $20 $-1 $21 #
body $-1 $22 $-1 $23 #
lump $-1 $-1 $24 $0 #
transform $-1 1 0 0 0 1 0 0 0 1 53.574633014923549 34.226157653370699 12.242220390783428 1 rotate no_reflect no_shear #
lump $-1 $-1 $25 $1 #
transform $-1 1 0 0 0 1 0 0 0 1 53.574633014923549 34.226157653370699 12.242220390783428 1 rotate no_reflect no_shear #
lump $-1 $-1 $26 $2 #
transform $-1 1 0 0 0 1 0 0 0 1 53.574633014923549 34.226157653370699 12.242220390783428 1 rotate no_reflect no_shear #
lump $-1 $-1 $27 $3 #
transform $-1 1 0 0 0 1 0 0 0 1 53.574633014923549 34.226157653370699 12.242220390783428 1 rotate no_reflect no_shear #
lump $-1 $-1 $28 $4 #
transform $-1 1 0 0 0 1 0 0 0 1 53.574633014923549 34.226157653370699 12.242220390783428 1 rotate no_reflect no_shear #
lump $-1 $-1 $29 $5 #
transform $-1 1 0 0 0 1 0 0 0 1 53.574633014923549 34.226157653370699 12.242220390783428 1 rotate no_reflect no_shear #
lump $-1 $-1 $30 $6 #
transform $-1 1 0 0 0 1 0 0 0 1 53.574633014923549 34.226157653370699 12.242220390783428 1 rotate no_reflect no_shear #
lump $-1 $-1 $31 $7 #
transform $-1 1 0 0 0 1 0 0 0 1 53.574633014923549 34.226157653370699 12.242220390783428 1 rotate no_reflect no_shear #
shell $-1 $-1 $-1 $32 $-1 $8 #
shell $-1 $-1 $-1 $33 $-1 $10 #
shell $-1 $-1 $-1 $34 $-1 $12 #
shell $-1 $-1 $-1 $35 $-1 $14 #
shell $-1 $-1 $-1 $36 $-1 $16 #
shell $-1 $-1 $-1 $37 $-1 $18 #
shell $-1 $-1 $-1 $38 $-1 $20 #
shell $-1 $-1 $-1 $39 $-1 $22 #
face $-1 $40 $41 $24 $-1 $42 forward single #
face $-1 $43 $44 $25 $-1 $45 forward single #
face $-1 $46 $47 $26 $-1 $48 forward single #
face $-1 $49 $50 $27 $-1 $51 reversed single #
face $-1 $52 $53 $28 $-1 $54 forward single #
face $-1 $55 $56 $29 $-1 $57 reversed single #
face $-1 $58 $59 $30 $-1 $60 forward single #
face $-1 $61 $62 $31 $-1 $63 forward single #
face $-1 $64 $65 $24 $-1 $66 reversed single #
loop $-1 $-1 $67 $32 #
plane-surface $-1 0 0 12.242220390783428 0 0 1 1 0 0 forward_v I I I I #
face $-1 $68 $69 $25 $-1 $70 reversed single #
loop $-1 $-1 $71 $33 #
plane-surface $-1 -53.574633014923549 0 0 1 0 0 0 0 -1 forward_v I I I I #
face $-1 $72 $73 $26 $-1 $74 reversed single #
loop $-1 $-1 $75 $34 #
plane-surface $-1 53.574633014923549 0 0 -1 0 0 0 0 1 forward_v I I I I #
face $-1 $76 $77 $27 $-1 $78 reversed single #
loop $-1 $-1 $79 $35 #
plane-surface $-1 -2.335747808808275 -91.006618620757934 95.822375307938614 -1 0 0 0 -0.52991927123019833 0.84804809178421925 forward_v I I I I #
face $-1 $80 $81 $28 $-1 $82 forward single #
loop $-1 $83 $84 $36 #
cone-surface $-1 -9.1728690778543012 -26.582799208865548 5.6984999199320363 0 0.52991927123019833 -0.84804809178421925 2 0 0 1 I I 0 1 2 forward I I I I #
face $-1 $85 $86 $29 $-1 $87 reversed single #
loop $-1 $-1 $88 $37 #
plane-surface $-1 9.7988470417942324 88.819689869366584 117.02150158345025 1 0 0 0 -0.84804810408105047 -0.52991925155115449 forward_v I I I I #
face $-1 $89 $90 $30 $-1 $91 forward single #
loop $-1 $92 $93 $38 #
cone-surface $-1 16.209521566088583 26.89578155887278 4.5981432661598127 0 -0.84804810408105047 -0.52991925155115449 2.5 0 0 1 I I 0 1 2.5 forward I I I I #
face $-1 $94 $95 $31 $-1 $96 forward single #
loop $-1 $97 $98 $39 #
cone-surface $-1 25.825533352530101 26.89578155887278 4.5981432661598127 0 -0.84804810408105047 -0.52991925155115449 2.5 0 0 1 I I 0 1 2.5 forward I I I I #
face $-1 $99 $100 $24 $-1 $101 reversed single #
loop $-1 $-1 $102 $40 #
plane-surface $-1 0 0 -12.242220390783428 0 0 1 1 0 0 forward_v I I I I #
coedge $-1 $103 $104 $105 $106 forward $41 $-1 #
face $-1 $107 $108 $25 $-1 $109 forward single #
loop $-1 $-1 $110 $43 #
plane-surface $-1 0 34.226157653370699 0 0 -1 0 0 0 -1 forward_v I I I I #
coedge $-1 $111 $112 $113 $114 forward $44 $-1 #
face $-1 $115 $116 $26 $-1 $117 forward single #
loop $-1 $-1 $118 $46 #
plane-surface $-1 0 -34.226157653370699 0 0 1 0 0 0 1 forward_v I I I I #
coedge $-1 $119 $120 $121 $122 forward $47 $-1 #
face $-1 $123 $124 $27 $-1 $125 reversed single #
loop $-1 $-1 $126 $49 #
plane-surface $-1 -9.1728690778543012 -34.226157653370713 4.9546447152471131 0 -0.52991927123019833 0.84804809178421925 1 0 0 forward_v I I I I #
coedge $-1 $127 $128 $129 $130 reversed $50 $-1 #
face $-1 $-1 $131 $28 $-1 $132 forward single #
loop $-1 $133 $134 $52 #
cone-surface $-1 -9.1728690778543012 -24.240800879351063 1.9505191950645866 0 0.52991927123019833 -0.84804809178421925 1 0 0 1 I I -0.70710678118654746 0.70710678118654746 1 forward I I I I #
loop $-1 $-1 $135 $36 #
coedge $-1 $84 $84 $136 $137 reversed $53 $-1 #
face $-1 $138 $139 $29 $-1 $140 reversed single #
loop $-1 $-1 $141 $55 #
plane-surface $-1 21.017527459309335 -2.0480420409213593 60.241042724658129 0 0.84804810408105047 0.52991925155115449 1 0 0 forward_v I I I I #
coedge $-1 $142 $143 $144 $145 reversed $56 $-1 #
face $-1 $-1 $146 $30 $-1 $147 forward single #
loop $-1 $148 $149 $58 #
cone-surface $-1 16.209521566088583 21.645949178362187 1.3176840180800529 0 -0.84804810408105047 -0.52991925155115449 1.25 0 0 1 I I -0.70710678118654746 0.70710678118654746 1.25 forward I I I I #
loop $-1 $-1 $150 $38 #
coedge $-1 $93 $93 $151 $152 reversed $59 $-1 #
face $-1 $-1 $153 $31 $-1 $154 forward single #
loop $-1 $155 $156 $61 #
cone-surface $-1 25.825533352530101 21.645949178362187 1.3176840180800529 0 -0.84804810408105047 -0.52991925155115449 1.25 0 0 1 I I -0.70710678118654746 0.70710678118654746 1.25 forward I I I I #
loop $-1 $-1 $157 $39 #
coedge $-1 $98 $98 $158 $159 reversed $62 $-1 #
face $-1 $160 $161 $24 $-1 $162 reversed single #
loop $-1 $-1 $163 $64 #
plane-surface $-1 0 -34.226157653370699 0 0 1 0 0 0 1 forward_v I I I I #
coedge $-1 $164 $165 $166 $167 forward $65 $-1 #
coedge $-1 $168 $67 $169 $170 forward $41 $-1 #
coedge $-1 $67 $168 $171 $172 forward $41 $-1 #
coedge $-1 $173 $174 $67 $106 reversed $175 $-1 #
edge $-1 $176 -34.226157653370699 $177 34.226157653370699 $105 $178 forward 7 unknown #
face $-1 $179 $180 $25 $-1 $181 reversed single #
loop $-1 $-1 $113 $68 #
plane-surface $-1 -58.318937083355948 0 7.4958027505428664 0 0 1 1 0 0 forward_v I I I I #
coedge $-1 $182 $183 $112 $184 forward $69 $-1 #
coedge $-1 $185 $71 $186 $187 reversed $44 $-1 #
coedge $-1 $71 $185 $110 $184 reversed $44 $-1 #
coedge $-1 $188 $189 $71 $114 reversed $108 $-1 #
edge $-1 $190 -34.226157653370699 $191 34.226157653370699 $113 $192 forward 7 unknown #
face $-1 $193 $194 $26 $-1 $195 reversed single #
loop $-1 $-1 $196 $72 #
plane-surface $-1 58.318937083355948 0 7.4958027505428664 0 0 1 1 0 0 forward_v I I I I #
coedge $-1 $197 $198 $120 $199 forward $73 $-1 #
coedge $-1 $200 $75 $201 $202 reversed $47 $-1 #
coedge $-1 $75 $200 $118 $199 reversed $47 $-1 #
coedge $-1 $203 $204 $75 $122 reversed $116 $-1 #
edge $-1 $205 -34.226157653370699 $206 34.226157653370699 $121 $207 forward 7 unknown #
face $-1 $208 $209 $27 $-1 $210 forward single #
loop $-1 $-1 $211 $76 #
plane-surface $-1 -16.009990346900327 -91.006618620757934 95.822375307938614 1 0 0 0 0.52991927123019833 -0.84804809178421925 forward_v I I I I #
coedge $-1 $212 $213 $214 $215 reversed $77 $-1 #
coedge $-1 $128 $79 $216 $217 reversed $50 $-1 #
coedge $-1 $79 $127 $212 $218 reversed $50 $-1 #
coedge $-1 $214 $219 $79 $130 forward $209 $-1 #
edge $-1 $220 11.277151657008268 $221 22.93971042944996 $129 $222 forward 7 unknown #
loop $-1 $-1 $136 $80 #
plane-surface $-1 -9.1728690778543012 -34.226157653370713 4.9546447152471131 0 -0.52991927123019833 0.84804809178421925 1 0 0 forward_v I I I I #
loop $-1 $-1 $223 $52 #
coedge $-1 $134 $134 $135 $224 reversed $81 $-1 #
coedge $-1 $135 $135 $134 $224 forward $83 $-1 #
coedge $-1 $136 $136 $84 $137 forward $131 $-1 #
edge $-1 $225 -7.5243083115657809e-016 $225 6.2831853071795996 $136 $226 forward 7 unknown #
face $-1 $227 $228 $29 $-1 $229 reversed single #
loop $-1 $-1 $230 $85 #
plane-surface $-1 32.236207876824437 88.819689869366584 117.02150158345025 -1 0 0 0 0.84804810408105047 0.52991925155115449 forward_v I I I I #
coedge $-1 $231 $232 $233 $234 reversed $86 $-1 #
coedge $-1 $143 $88 $235 $236 reversed $56 $-1 #
coedge $-1 $88 $142 $231 $237 reversed $56 $-1 #
coedge $-1 $233 $238 $88 $145 forward $239 $-1 #
edge $-1 $240 10.183687281312594 $241 16.464894969489897 $144 $242 forward 7 unknown #
loop $-1 $-1 $151 $89 #
plane-surface $-1 21.017527459309335 -2.0480420409213593 60.241042724658129 0 0.84804810408105047 0.52991925155115449 1 0 0 forward_v I I I I #
loop $-1 $-1 $243 $58 #
coedge $-1 $149 $149 $150 $244 reversed $90 $-1 #
coedge $-1 $150 $150 $149 $244 forward $92 $-1 #
coedge $-1 $151 $151 $93 $152 forward $146 $-1 #
edge $-1 $245 1.4985622771152588e-016 $245 6.2831853071796004 $151 $246 forward 7 unknown #
loop $-1 $-1 $158 $94 #
plane-surface $-1 21.017527459309335 -2.0480420409213593 60.241042724658129 0 0.84804810408105047 0.52991925155115449 1 0 0 forward_v I I I I #
loop $-1 $-1 $247 $61 #
coedge $-1 $156 $156 $157 $248 reversed $95 $-1 #
coedge $-1 $157 $157 $156 $248 forward $97 $-1 #
coedge $-1 $158 $158 $98 $159 forward $153 $-1 #
edge $-1 $249 1.4985622771152588e-016 $249 6.2831853071796004 $158 $250 forward 7 unknown #
face $-1 $251 $252 $24 $-1 $253 reversed single #
loop $-1 $-1 $254 $99 #
plane-surface $-1 -53.574633014923549 0 0 1 0 0 0 0 -1 forward_v I I I I #
coedge $-1 $255 $171 $256 $257 forward $100 $-1 #
coedge $-1 $258 $102 $255 $259 forward $65 $-1 #
coedge $-1 $102 $258 $260 $261 forward $65 $-1 #
coedge $-1 $174 $173 $102 $167 reversed $175 $-1 #
edge $-1 $262 -34.226157653370699 $263 34.226157653370699 $166 $264 forward 7 unknown #
coedge $-1 $104 $103 $265 $266 forward $41 $-1 #
coedge $-1 $267 $268 $103 $170 reversed $252 $-1 #
edge $-1 $177 -53.574633014923549 $269 53.574633014923549 $169 $270 forward 7 unknown #
coedge $-1 $163 $271 $104 $172 reversed $100 $-1 #
edge $-1 $272 -53.574633014923549 $176 53.574633014923549 $171 $273 forward 7 unknown #
coedge $-1 $166 $105 $271 $274 forward $175 $-1 #
coedge $-1 $105 $166 $267 $275 reversed $175 $-1 #
loop $-1 $-1 $173 $251 #
vertex $-1 $106 $276 #
vertex $-1 $106 $277 #
straight-curve $-1 53.574633014923549 0 12.242220390783428 0 1 0 I I #
face $-1 $278 $279 $25 $-1 $280 reversed single #
loop $-1 $-1 $281 $107 #
plane-surface $-1 -58.318937083355948 0 4.4958027505428664 0 0 1 1 0 0 forward_v I I I I #
coedge $-1 $282 $110 $283 $284 reversed $69 $-1 #
coedge $-1 $110 $282 $188 $285 reversed $69 $-1 #
edge $-1 $190 -7.4958027505428664 $286 -4.4958027505428664 $110 $287 forward 7 unknown #
coedge $-1 $112 $111 $281 $288 forward $44 $-1 #
coedge $-1 $289 $290 $111 $187 forward $291 $-1 #
edge $-1 $292 4.4958027505428664 $191 7.4958027505428664 $186 $293 forward 7 unknown #
coedge $-1 $294 $113 $183 $285 forward $108 $-1 #
coedge $-1 $113 $294 $289 $295 forward $108 $-1 #
vertex $-1 $184 $296 #
vertex $-1 $295 $297 #
straight-curve $-1 -53.574633014923549 0 7.4958027505428664 0 -1 0 I I #
face $-1 $298 $299 $26 $-1 $300 reversed single #
loop $-1 $-1 $301 $115 #
plane-surface $-1 58.318937083355948 0 4.4958027505428664 0 0 1 1 0 0 forward_v I I I I #
coedge $-1 $204 $203 $302 $303 forward $116 $-1 #
coedge $-1 $304 $118 $305 $306 reversed $73 $-1 #
coedge $-1 $118 $304 $203 $307 reversed $73 $-1 #
edge $-1 $205 -7.4958027505428664 $308 -4.4958027505428664 $118 $309 forward 7 unknown #
coedge $-1 $120 $119 $310 $311 forward $47 $-1 #
coedge $-1 $312 $313 $119 $202 forward $314 $-1 #
edge $-1 $315 4.4958027505428664 $206 7.4958027505428664 $201 $316 forward 7 unknown #
coedge $-1 $196 $121 $198 $307 forward $116 $-1 #
coedge $-1 $121 $196 $312 $317 forward $116 $-1 #
vertex $-1 $199 $318 #
vertex $-1 $317 $319 #
straight-curve $-1 53.574633014923549 0 7.4958027505428664 0 1 0 I I #
face $-1 $-1 $320 $27 $-1 $321 reversed single #
loop $-1 $-1 $129 $123 #
plane-surface $-1 0 0 12.242220390783428 0 0 1 1 0 0 forward_v I I I I #
coedge $-1 $322 $323 $324 $325 reversed $124 $-1 #
coedge $-1 $326 $126 $128 $218 forward $77 $-1 #
coedge $-1 $126 $326 $322 $327 forward $77 $-1 #
coedge $-1 $324 $129 $126 $215 forward $209 $-1 #
edge $-1 $221 -2.2506867301188755 $328 11.423555807973177 $214 $329 forward 7 unknown #
coedge $-1 $330 $331 $127 $217 forward $320 $-1 #
edge $-1 $332 -42.956542938722187 $220 -35.668967263185877 $216 $333 forward 7 unknown #
edge $-1 $221 -13.75223750330562 $332 -1.675811683274863e-014 $128 $334 forward 7 unknown #
coedge $-1 $129 $324 $330 $335 forward $209 $-1 #
vertex $-1 $217 $336 #
vertex $-1 $130 $337 #
straight-curve $-1 -2.335747808808275 -45.503309310378967 12.24222039078343 0 1 0 I I #
coedge $-1 $223 $223 $-1 $338 reversed $133 $-1 #
edge $-1 $339 0 $339 6.2831853071796004 $134 $340 forward 7 unknown #
vertex $-1 $137 $341 #
ellipse-curve $-1 -9.1728690778543012 -28.394878267149846 8.5984325530152805 0 -0.52991927123019833 0.84804809178421925 2 0 0 1 I I #
face $-1 $-1 $239 $29 $-1 $342 forward single #
loop $-1 $-1 $343 $138 #
plane-surface $-1 0 34.226157653370699 0 0 -1 0 0 0 -1 forward_v I I I I #
coedge $-1 $344 $345 $346 $347 reversed $139 $-1 #
coedge $-1 $348 $141 $143 $237 forward $86 $-1 #
coedge $-1 $141 $348 $344 $349 forward $86 $-1 #
coedge $-1 $346 $144 $141 $234 forward $239 $-1 #
edge $-1 $241 -0.70991668786043505 $350 21.72744414716977 $233 $351 forward 7 unknown #
coedge $-1 $352 $353 $142 $236 forward $228 $-1 #
edge $-1 $354 -56.320564282907341 $240 -46.268530400941692 $235 $355 forward 7 unknown #
edge $-1 $241 56.599174154025711 $354 68.45231530674144 $143 $356 forward 7 unknown #
coedge $-1 $144 $346 $352 $357 forward $239 $-1 #
loop $-1 $-1 $346 $227 #
vertex $-1 $236 $358 #
vertex $-1 $145 $359 #
straight-curve $-1 9.7988470417942324 44.409844934683292 12.24222039078343 0 -1 0 I I #
coedge $-1 $243 $243 $-1 $360 reversed $148 $-1 #
edge $-1 $361 0 $361 6.2831853071796004 $149 $362 forward 7 unknown #
vertex $-1 $152 $363 #
ellipse-curve $-1 16.209521566088583 31.085553809282043 7.2162034498006191 0 0.84804810408105047 0.52991925155115449 2.5 0 0 1 I I #
coedge $-1 $247 $247 $-1 $364 reversed $155 $-1 #
edge $-1 $365 0 $365 6.2831853071796004 $156 $366 forward 7 unknown #
vertex $-1 $159 $367 #
ellipse-curve $-1 25.825533352530101 31.085553809282043 7.2162034498006191 0 0.84804810408105047 0.52991925155115449 2.5 0 0 1 I I #
face $-1 $-1 $175 $24 $-1 $368 reversed single #
loop $-1 $-1 $267 $160 #
plane-surface $-1 0 34.226157653370699 0 0 -1 0 0 0 -1 forward_v I I I I #
coedge $-1 $369 $265 $268 $370 forward $161 $-1 #
coedge $-1 $271 $163 $164 $259 reversed $100 $-1 #
coedge $-1 $265 $369 $163 $257 reversed $161 $-1 #
edge $-1 $272 -12.242220390783428 $371 12.242220390783428 $256 $372 forward 7 unknown #
coedge $-1 $165 $164 $369 $373 forward $65 $-1 #
edge $-1 $263 -53.574633014923549 $371 53.574633014923549 $255 $374 forward 7 unknown #
coedge $-1 $268 $267 $165 $261 reversed $252 $-1 #
edge $-1 $375 -53.574633014923549 $262 53.574633014923549 $260 $376 forward 7 unknown #
vertex $-1 $167 $377 #
vertex $-1 $274 $378 #
straight-curve $-1 53.574633014923549 0 -12.242220390783428 0 -1 0 I I #
coedge $-1 $254 $256 $168 $266 reversed $161 $-1 #
edge $-1 $269 -34.226157653370699 $272 34.226157653370699 $265 $379 forward 7 unknown #
coedge $-1 $260 $169 $174 $275 forward $252 $-1 #
coedge $-1 $169 $260 $254 $370 reversed $252 $-1 #
vertex $-1 $170 $380 #
straight-curve $-1 0 34.226157653370699 12.242220390783428 -1 0 0 I I #
coedge $-1 $171 $255 $173 $274 reversed $100 $-1 #
vertex $-1 $266 $381 #
straight-curve $-1 0 -34.226157653370699 12.242220390783428 1 0 0 I I #
edge $-1 $176 -12.242220390783428 $263 12.242220390783428 $173 $382 forward 7 unknown #
edge $-1 $177 -12.242220390783428 $262 12.242220390783428 $174 $383 forward 7 unknown #
point $-1 53.574633014923549 -34.226157653370699 12.242220390783428 #
point $-1 53.574633014923549 34.226157653370699 12.242220390783428 #
face $-1 $-1 $291 $25 $-1 $384 reversed single #
loop $-1 $-1 $385 $179 #
plane-surface $-1 -63.063241151788347 0 5.9958027505428664 1 0 0 0 0 -1 forward_v I I I I #
coedge $-1 $386 $283 $185 $288 reversed $180 $-1 #
coedge $-1 $183 $182 $385 $387 reversed $69 $-1 #
coedge $-1 $281 $388 $182 $284 forward $180 $-1 #
edge $-1 $389 -4.7443040684323989 $286 4.7443040684323989 $182 $390 forward 7 unknown #
edge $-1 $190 -4.7443040684323989 $391 4.7443040684323989 $183 $392 forward 7 unknown #
vertex $-1 $184 $393 #
straight-curve $-1 -53.574633014923549 34.226157653370699 0 0 0 -1 I I #
edge $-1 $292 -34.226157653370699 $286 34.226157653370699 $281 $394 forward 7 unknown #
coedge $-1 $395 $186 $189 $295 reversed $291 $-1 #
coedge $-1 $186 $395 $386 $396 reversed $291 $-1 #
loop $-1 $-1 $186 $278 #
vertex $-1 $187 $397 #
straight-curve $-1 -53.574633014923549 -34.226157653370699 0 0 0 1 I I #
coedge $-1 $189 $188 $398 $399 forward $108 $-1 #
edge $-1 $400 -4.7443040684323989 $191 4.7443040684323989 $289 $401 forward 7 unknown #
point $-1 -53.574633014923549 34.226157653370699 7.4958027505428664 #
point $-1 -53.574633014923549 -34.226157653370699 7.4958027505428664 #
face $-1 $-1 $314 $26 $-1 $402 reversed single #
loop $-1 $-1 $403 $193 #
plane-surface $-1 63.063241151788347 0 5.9958027505428664 -1 0 0 0 0 1 forward_v I I I I #
coedge $-1 $305 $404 $405 $406 forward $194 $-1 #
coedge $-1 $403 $407 $196 $303 reversed $299 $-1 #
edge $-1 $408 -34.226157653370699 $409 34.226157653370699 $302 $410 forward 7 unknown #
coedge $-1 $198 $197 $403 $411 reversed $73 $-1 #
coedge $-1 $310 $301 $197 $306 forward $194 $-1 #
edge $-1 $412 -4.7443040684323989 $308 4.7443040684323989 $197 $413 forward 7 unknown #
edge $-1 $205 -4.7443040684323989 $408 4.7443040684323989 $198 $414 forward 7 unknown #
vertex $-1 $199 $415 #
straight-curve $-1 53.574633014923549 -34.226157653370699 0 0 0 -1 I I #
coedge $-1 $404 $305 $200 $311 reversed $194 $-1 #
edge $-1 $315 -34.226157653370699 $308 34.226157653370699 $310 $416 forward 7 unknown #
coedge $-1 $417 $201 $204 $317 reversed $314 $-1 #
coedge $-1 $201 $417 $404 $418 reversed $314 $-1 #
loop $-1 $-1 $201 $298 #
vertex $-1 $202 $419 #
straight-curve $-1 53.574633014923549 34.226157653370699 0 0 0 1 I I #
edge $-1 $409 -4.7443040684323989 $206 4.7443040684323989 $312 $420 forward 7 unknown #
point $-1 53.574633014923549 -34.226157653370699 7.4958027505428664 #
point $-1 53.574633014923549 34.226157653370699 7.4958027505428664 #
loop $-1 $-1 $216 $208 #
plane-surface $-1 0 -34.226157653370699 0 0 1 0 0 0 1 forward_v I I I I #
coedge $-1 $323 $211 $213 $327 reversed $124 $-1 #
coedge $-1 $211 $322 $421 $422 reversed $124 $-1 #
coedge $-1 $219 $214 $211 $325 forward $209 $-1 #
edge $-1 $328 -22.93971042944996 $423 -11.277151657008268 $324 $424 forward 7 unknown #
coedge $-1 $213 $212 $331 $425 reversed $77 $-1 #
edge $-1 $426 1.675811683274863e-014 $328 13.75223750330562 $322 $427 forward 7 unknown #
vertex $-1 $215 $428 #
straight-curve $-1 -4.5864345389271506 -22.56359888092901 12.242220390783428 -1 0 0 I I #
coedge $-1 $421 $216 $219 $335 reversed $320 $-1 #
coedge $-1 $216 $421 $326 $425 forward $320 $-1 #
vertex $-1 $217 $429 #
straight-curve $-1 -2.335747808808275 -34.226157653370699 47.911187653969307 0 0 1 I I #
straight-curve $-1 -2.335747808808275 -34.226157653370713 4.9546447152471131 0 -0.84804809178421925 -0.52991927123019833 I I #
edge $-1 $423 -16.009990346900327 $220 -2.335747808808275 $330 $430 forward 7 unknown #
point $-1 -2.335747808808275 -34.226157653370699 12.242220390783428 #
point $-1 -2.335747808808275 -22.563598880929007 12.242220390783428 #
edge $-1 $431 1 $431 0 $223 $-1 forward 7 unknown #
vertex $-1 $224 $432 #
ellipse-curve $-1 -9.1728690778543012 -24.770720150581262 2.7985672868488058 0 -0.52991927123019833 0.84804809178421925 2 0 0 1 I I #
point $-1 -7.1728690778543012 -28.394878267149839 8.5984325530152663 #
plane-surface $-1 0 0 12.242220390783428 0 0 1 1 0 0 forward_v I I I I #
coedge $-1 $353 $352 $345 $433 forward $228 $-1 #
coedge $-1 $345 $230 $232 $349 reversed $139 $-1 #
coedge $-1 $230 $344 $343 $433 reversed $139 $-1 #
coedge $-1 $238 $233 $230 $347 forward $239 $-1 #
edge $-1 $350 -16.464894969489897 $434 -10.183687281312594 $346 $435 forward 7 unknown #
coedge $-1 $232 $231 $353 $436 reversed $86 $-1 #
edge $-1 $437 -68.45231530674144 $350 -56.599174154025711 $344 $438 forward 7 unknown #
vertex $-1 $234 $439 #
straight-curve $-1 10.508763729654667 27.944949965193395 12.24222039078343 1 0 0 I I #
coedge $-1 $343 $235 $238 $357 reversed $228 $-1 #
coedge $-1 $235 $343 $348 $436 forward $228 $-1 #
vertex $-1 $236 $440 #
straight-curve $-1 9.7988470417942324 34.226157653370699 58.510750791725123 0 0 1 I I #
straight-curve $-1 9.7988470417942324 -2.0480420409213593 60.241042724658129 0 0.52991925155115449 -0.84804810408105047 I I #
edge $-1 $434 -32.236207876824437 $240 -9.7988470417942324 $352 $441 forward 7 unknown #
point $-1 9.7988470417942324 34.226157653370699 12.242220390783428 #
point $-1 9.7988470417942324 27.944949965193395 12.24222039078343 #
edge $-1 $442 1 $442 0 $243 $-1 forward 7 unknown #
vertex $-1 $244 $443 #
ellipse-curve $-1 16.209521566088583 22.7060093084635 1.9800830825189961 0 0.84804810408105047 0.52991925155115449 2.5 0 0 1 I I #
point $-1 18.709521566088583 31.085553809282061 7.2162034498006298 #
edge $-1 $444 1 $444 0 $247 $-1 forward 7 unknown #
vertex $-1 $248 $445 #
ellipse-curve $-1 25.825533352530101 22.7060093084635 1.9800830825189961 0 0.84804810408105047 0.52991925155115449 2.5 0 0 1 I I #
point $-1 28.325533352530101 31.085553809282061 7.2162034498006298 #
plane-surface $-1 53.574633014923549 0 0 -1 0 0 0 0 1 forward_v I I I I #
coedge $-1 $256 $254 $258 $373 reversed $161 $-1 #
edge $-1 $269 -12.242220390783428 $375 12.242220390783428 $268 $446 forward 7 unknown #
vertex $-1 $373 $447 #
straight-curve $-1 -53.574633014923549 -34.226157653370699 0 0 0 -1 I I #
edge $-1 $371 -34.226157653370699 $375 34.226157653370699 $369 $448 forward 7 unknown #
straight-curve $-1 0 -34.226157653370699 -12.242220390783428 -1 0 0 I I #
vertex $-1 $261 $449 #
straight-curve $-1 0 34.226157653370699 -12.242220390783428 1 0 0 I I #
point $-1 53.574633014923549 34.226157653370699 -12.242220390783428 #
point $-1 53.574633014923549 -34.226157653370699 -12.242220390783428 #
straight-curve $-1 -53.574633014923549 0 12.242220390783428 0 -1 0 I I #
point $-1 -53.574633014923549 34.226157653370699 12.242220390783428 #
point $-1 -53.574633014923549 -34.226157653370699 12.242220390783428 #
straight-curve $-1 53.574633014923549 -34.226157653370699 0 0 0 -1 I I #
straight-curve $-1 53.574633014923549 34.226157653370699 0 0 0 -1 I I #
plane-surface $-1 0 -34.226157653370699 0 0 1 0 0 0 1 forward_v I I I I #
coedge $-1 $450 $398 $282 $387 forward $279 $-1 #
coedge $-1 $388 $281 $290 $396 forward $180 $-1 #
edge $-1 $391 -1.5 $389 1.5 $282 $451 forward 7 unknown #
coedge $-1 $283 $386 $450 $452 forward $180 $-1 #
vertex $-1 $284 $453 #
straight-curve $-1 -58.318937083355948 34.226157653370699 4.4958027505428664 1 0 0 I I #
vertex $-1 $285 $454 #
straight-curve $-1 -58.318937083355948 34.226157653370699 7.4958027505428664 -1 0 0 I I #
point $-1 -53.574633014923549 34.226157653370699 4.4958027505428664 #
straight-curve $-1 -53.574633014923549 0 4.4958027505428664 0 1 0 I I #
coedge $-1 $290 $289 $455 $456 forward $291 $-1 #
edge $-1 $292 -4.7443040684323989 $457 4.7443040684323989 $290 $458 forward 7 unknown #
point $-1 -53.574633014923549 -34.226157653370699 4.4958027505428664 #
coedge $-1 $385 $455 $294 $399 reversed $279 $-1 #
edge $-1 $391 -34.226157653370699 $400 34.226157653370699 $398 $459 forward 7 unknown #
vertex $-1 $399 $460 #
straight-curve $-1 -58.318937083355948 -34.226157653370699 7.4958027505428664 1 0 0 I I #
plane-surface $-1 0 34.226157653370699 0 0 -1 0 0 0 -1 forward_v I I I I #
coedge $-1 $405 $302 $304 $411 forward $299 $-1 #
coedge $-1 $301 $310 $313 $418 forward $194 $-1 #
coedge $-1 $407 $403 $301 $406 reversed $299 $-1 #
edge $-1 $461 -34.226157653370699 $412 34.226157653370699 $405 $462 forward 7 unknown #
coedge $-1 $302 $405 $417 $463 reversed $299 $-1 #
vertex $-1 $303 $464 #
vertex $-1 $303 $465 #
straight-curve $-1 63.063241151788347 0 7.4958027505428664 0 1 0 I I #
edge $-1 $408 -1.5 $412 1.5 $403 $466 forward 7 unknown #
vertex $-1 $411 $467 #
straight-curve $-1 58.318937083355948 -34.226157653370699 4.4958027505428664 -1 0 0 I I #
straight-curve $-1 58.318937083355948 -34.226157653370699 7.4958027505428664 1 0 0 I I #
point $-1 53.574633014923549 -34.226157653370699 4.4958027505428664 #
straight-curve $-1 53.574633014923549 0 4.4958027505428664 0 -1 0 I I #
coedge $-1 $313 $312 $407 $463 forward $314 $-1 #
edge $-1 $315 -4.7443040684323989 $461 4.7443040684323989 $313 $468 forward 7 unknown #
point $-1 53.574633014923549 34.226157653370699 4.4958027505428664 #
straight-curve $-1 58.318937083355948 34.226157653370699 7.4958027505428664 -1 0 0 I I #
coedge $-1 $331 $330 $323 $422 forward $320 $-1 #
edge $-1 $423 35.668967263185877 $426 42.956542938722187 $421 $469 forward 7 unknown #
vertex $-1 $335 $470 #
straight-curve $-1 -16.009990346900327 -45.503309310378967 12.24222039078343 0 -1 0 I I #
edge $-1 $426 -11.423555807973177 $332 2.2506867301188755 $331 $471 forward 7 unknown #
vertex $-1 $425 $472 #
straight-curve $-1 -16.009990346900327 -34.226157653370713 4.9546447152471131 0 0.84804809178421925 0.52991927123019833 I I #
point $-1 -16.009990346900327 -22.563598880929007 12.242220390783428 #
point $-1 -2.335747808808275 -34.226157653370699 4.954644715247122 #
straight-curve $-1 0 -34.226157653370699 12.242220390783428 1 0 0 I I #
vertex $-1 $338 $473 #
point $-1 -7.1728690778543012 -24.770720150581262 2.7985672868488058 #
edge $-1 $434 46.268530400941692 $437 56.320564282907341 $343 $474 forward 7 unknown #
vertex $-1 $357 $475 #
straight-curve $-1 32.236207876824437 44.409844934683292 12.24222039078343 0 1 0 I I #
edge $-1 $437 -21.72744414716977 $354 0.70991668786043505 $353 $476 forward 7 unknown #
vertex $-1 $436 $477 #
straight-curve $-1 32.236207876824437 -2.0480420409213593 60.241042724658129 0 -0.52991925155115449 0.84804810408105047 I I #
point $-1 32.236207876824437 27.944949965193395 12.24222039078343 #
point $-1 9.7988470417942324 34.226157653370699 2.1901865088177814 #
straight-curve $-1 0 34.226157653370699 12.242220390783428 -1 0 0 I I #
vertex $-1 $360 $478 #
point $-1 18.709521566088583 22.7060093084635 1.9800830825189961 #
vertex $-1 $364 $479 #
point $-1 28.325533352530101 22.7060093084635 1.9800830825189961 #
straight-curve $-1 -53.574633014923549 34.226157653370699 0 0 0 -1 I I #
point $-1 -53.574633014923549 -34.226157653370699 -12.242220390783428 #
straight-curve $-1 -53.574633014923549 0 -12.242220390783428 0 1 0 I I #
point $-1 -53.574633014923549 34.226157653370699 -12.242220390783428 #
coedge $-1 $455 $385 $388 $452 reversed $279 $-1 #
straight-curve $-1 -63.063241151788347 34.226157653370699 5.9958027505428664 0 0 -1 I I #
edge $-1 $457 -34.226157653370699 $389 34.226157653370699 $450 $480 forward 7 unknown #
point $-1 -63.063241151788347 34.226157653370699 4.4958027505428664 #
point $-1 -63.063241151788347 34.226157653370699 7.4958027505428664 #
coedge $-1 $398 $450 $395 $456 reversed $279 $-1 #
edge $-1 $400 -1.5 $457 1.5 $455 $481 forward 7 unknown #
vertex $-1 $452 $482 #
straight-curve $-1 -58.318937083355948 -34.226157653370699 4.4958027505428664 -1 0 0 I I #
straight-curve $-1 -63.063241151788347 0 7.4958027505428664 0 -1 0 I I #
point $-1 -63.063241151788347 -34.226157653370699 7.4958027505428664 #
vertex $-1 $406 $483 #
straight-curve $-1 63.063241151788347 0 4.4958027505428664 0 -1 0 I I #
edge $-1 $409 -1.5 $461 1.5 $407 $484 forward 7 unknown #
point $-1 63.063241151788347 -34.226157653370699 7.4958027505428664 #
point $-1 63.063241151788347 34.226157653370699 7.4958027505428664 #
straight-curve $-1 63.063241151788347 -34.226157653370699 5.9958027505428664 0 0 -1 I I #
point $-1 63.063241151788347 -34.226157653370699 4.4958027505428664 #
straight-curve $-1 58.318937083355948 34.226157653370699 4.4958027505428664 1 0 0 I I #
straight-curve $-1 -16.009990346900327 -34.226157653370699 47.911187653969307 0 0 -1 I I #
point $-1 -16.009990346900327 -34.226157653370699 12.242220390783428 #
straight-curve $-1 -4.5864345389271506 -34.226157653370699 4.9546447152471202 1 0 0 I I #
point $-1 -16.009990346900327 -34.226157653370699 4.954644715247122 #
point $-1 -9.1728690778543012 -23.710881608120864 1.1024711032803673 #
straight-curve $-1 32.236207876824437 34.226157653370699 58.510750791725123 0 0 -1 I I #
point $-1 32.236207876824437 34.226157653370699 12.242220390783428 #
straight-curve $-1 10.508763729654667 34.226157653370691 2.1901865088177885 -1 0 0 I I #
point $-1 32.236207876824437 34.226157653370699 2.1901865088177814 #
point $-1 16.209521566088583 20.585889048260874 0.65528495364110972 #
point $-1 25.825533352530101 20.585889048260874 0.65528495364110972 #
straight-curve $-1 -63.063241151788347 0 4.4958027505428664 0 1 0 I I #
straight-curve $-1 -63.063241151788347 -34.226157653370699 5.9958027505428664 0 0 -1 I I #
point $-1 -63.063241151788347 -34.226157653370699 4.4958027505428664 #
point $-1 63.063241151788347 34.226157653370699 4.4958027505428664 #
straight-curve $-1 63.063241151788347 34.226157653370699 5.9958027505428664 0 0 -1 I I #
End-of-ACIS-data 