500 0 6 0           
7 Unknown 11 ACIS 5.0 NT 24 Thu Mar 25 16:05:13 1999 
-1 9.9999999999999995e-007 1e-010 
body $-1 $6 $-1 $7 #
body $-1 $8 $-1 $9 #
body $-1 $10 $-1 $11 #
body $-1 $12 $-1 $13 #
body $-1 $14 $-1 $15 #
body $-1 $16 $-1 $17 #
lump $-1 $-1 $18 $0 #
transform $-1 1 0 0 0 1 0 0 0 1 42.214423047578357 17.528512700535199 5.5876514087618734 1 rotate no_reflect no_shear #
lump $-1 $-1 $19 $1 #
transform $-1 1 0 0 0 1 0 0 0 1 42.214423047578357 17.528512700535199 5.5876514087618734 1 rotate no_reflect no_shear #
lump $-1 $-1 $20 $2 #
transform $-1 1 0 0 0 1 0 0 0 1 42.214423047578357 17.528512700535199 5.5876514087618734 1 rotate no_reflect no_shear #
lump $-1 $-1 $21 $3 #
transform $-1 1 0 0 0 1 0 0 0 1 42.214423047578357 17.528512700535199 5.5876514087618734 1 rotate no_reflect no_shear #
lump $-1 $-1 $22 $4 #
transform $-1 1 0 0 0 1 0 0 0 1 42.214423047578357 17.528512700535199 5.5876514087618734 1 rotate no_reflect no_shear #
lump $-1 $-1 $23 $5 #
transform $-1 1 0 0 0 1 0 0 0 1 42.214423047578357 17.528512700535199 5.5876514087618734 1 rotate no_reflect no_shear #
shell $-1 $-1 $-1 $24 $-1 $6 #
shell $-1 $-1 $-1 $25 $-1 $8 #
shell $-1 $-1 $-1 $26 $-1 $10 #
shell $-1 $-1 $-1 $27 $-1 $12 #
shell $-1 $-1 $-1 $28 $-1 $14 #
shell $-1 $-1 $-1 $29 $-1 $16 #
face $-1 $30 $31 $18 $-1 $32 reversed single #
face $-1 $33 $34 $19 $-1 $35 forward single #
face $-1 $36 $37 $20 $-1 $38 forward single #
face $-1 $39 $40 $21 $-1 $41 reversed single #
face $-1 $42 $43 $22 $-1 $44 forward single #
face $-1 $45 $46 $23 $-1 $47 forward single #
face $-1 $48 $49 $18 $-1 $50 reversed single #
loop $-1 $-1 $51 $24 #
plane-surface $-1 42.214423047578357 0 0 -1 0 0 0 0 1 forward_v I I I I #
face $-1 $52 $53 $19 $-1 $54 reversed single #
loop $-1 $-1 $55 $25 #
plane-surface $-1 -42.214423047578357 0 0 1 0 0 0 0 -1 forward_v I I I I #
face $-1 $56 $57 $20 $-1 $58 reversed single #
loop $-1 $-1 $59 $26 #
plane-surface $-1 42.214423047578357 0 0 -1 0 0 0 0 1 forward_v I I I I #
face $-1 $60 $61 $21 $-1 $62 reversed single #
loop $-1 $-1 $63 $27 #
plane-surface $-1 5.4230382025759489 71.842457053288072 73.81912854414368 1 0 0 0 -0.85716730853699208 -0.51503806187062418 forward_v I I I I #
face $-1 $64 $65 $22 $-1 $66 forward single #
loop $-1 $67 $68 $28 #
cone-surface $-1 11.248359489880258 15.462020101968452 2.651972263785471 0 -0.85716730853699208 -0.51503806187062418 1 0 0 1 I I 0 1 1 forward I I I I #
face $-1 $69 $70 $23 $-1 $71 forward single #
loop $-1 $72 $73 $29 #
cone-surface $-1 19.986341420836716 15.462020101968452 2.651972263785471 0 -0.85716730853699208 -0.51503806187062418 1 0 0 1 I I 0 1 1 forward I I I I #
face $-1 $74 $75 $18 $-1 $76 forward single #
loop $-1 $-1 $77 $30 #
plane-surface $-1 -42.214423047578357 0 0 1 0 0 0 0 -1 forward_v I I I I #
coedge $-1 $78 $79 $80 $81 reversed $31 $-1 #
face $-1 $82 $83 $19 $-1 $84 reversed single #
loop $-1 $-1 $85 $33 #
plane-surface $-1 0 0 -5.5876514087618734 0 0 1 1 0 0 forward_v I I I I #
coedge $-1 $86 $87 $88 $89 forward $34 $-1 #
face $-1 $90 $91 $20 $-1 $92 reversed single #
loop $-1 $-1 $93 $36 #
plane-surface $-1 0 0 -5.5876514087618734 0 0 1 1 0 0 forward_v I I I I #
coedge $-1 $94 $95 $96 $97 forward $37 $-1 #
face $-1 $98 $99 $21 $-1 $100 reversed single #
loop $-1 $-1 $101 $39 #
plane-surface $-1 15.617350455358483 -0.52718971698133998 30.335059285320952 0 0.85716730853699208 0.51503806187062418 1 0 0 forward_v I I I I #
coedge $-1 $102 $103 $104 $105 reversed $40 $-1 #
face $-1 $-1 $106 $22 $-1 $107 forward single #
loop $-1 $108 $109 $42 #
cone-surface $-1 11.248359489880258 14.559923906062696 2.109938203768456 0 -0.85716730853699208 -0.51503806187062418 0.5 0 0 1 I I -0.70710678118654746 0.70710678118654746 0.5 forward I I I I #
loop $-1 $-1 $110 $28 #
coedge $-1 $68 $68 $111 $112 reversed $43 $-1 #
face $-1 $-1 $113 $23 $-1 $114 forward single #
loop $-1 $115 $116 $45 #
cone-surface $-1 19.986341420836716 14.559923906062696 2.109938203768456 0 -0.85716730853699208 -0.51503806187062418 0.5 0 0 1 I I -0.70710678118654746 0.70710678118654746 0.5 forward I I I I #
loop $-1 $-1 $117 $29 #
coedge $-1 $73 $73 $118 $119 reversed $46 $-1 #
face $-1 $120 $121 $18 $-1 $122 reversed single #
loop $-1 $-1 $123 $48 #
plane-surface $-1 0 0 5.5876514087618734 0 0 1 1 0 0 forward_v I I I I #
coedge $-1 $124 $125 $126 $127 reversed $49 $-1 #
coedge $-1 $128 $51 $129 $130 reversed $31 $-1 #
coedge $-1 $51 $128 $131 $132 forward $31 $-1 #
coedge $-1 $133 $134 $51 $81 forward $121 $-1 #
edge $-1 $135 -17.528512700535199 $136 17.528512700535199 $51 $137 forward 7 unknown #
face $-1 $138 $139 $19 $-1 $140 reversed single #
loop $-1 $-1 $141 $52 #
plane-surface $-1 -45.883364966612469 -9.3873248906574531 0 0 1 0 0 0 1 forward_v I I I I #
coedge $-1 $142 $143 $87 $144 forward $53 $-1 #
coedge $-1 $145 $55 $146 $147 reversed $34 $-1 #
coedge $-1 $55 $145 $85 $144 reversed $34 $-1 #
coedge $-1 $148 $149 $55 $89 reversed $150 $-1 #
edge $-1 $151 -5.5876514087618734 $152 5.5876514087618734 $88 $153 forward 7 unknown #
face $-1 $154 $155 $20 $-1 $156 reversed single #
loop $-1 $-1 $96 $56 #
plane-surface $-1 45.883364966612469 -9.3873248906574531 0 0 1 0 0 0 1 forward_v I I I I #
coedge $-1 $157 $158 $95 $159 forward $57 $-1 #
coedge $-1 $160 $59 $161 $162 reversed $37 $-1 #
coedge $-1 $59 $160 $93 $159 reversed $37 $-1 #
coedge $-1 $163 $164 $59 $97 reversed $91 $-1 #
edge $-1 $165 -5.5876514087618734 $166 5.5876514087618734 $96 $167 forward 7 unknown #
face $-1 $168 $169 $21 $-1 $170 reversed single #
loop $-1 $-1 $171 $60 #
plane-surface $-1 25.811662708141018 71.842457053288072 73.81912854414368 -1 0 0 0 0.85716730853699208 0.51503806187062418 forward_v I I I I #
coedge $-1 $172 $173 $174 $175 reversed $61 $-1 #
coedge $-1 $103 $63 $176 $177 reversed $40 $-1 #
coedge $-1 $63 $102 $172 $178 reversed $40 $-1 #
coedge $-1 $174 $179 $63 $105 forward $180 $-1 #
edge $-1 $181 18.392715826108837 $182 21.578675939967809 $104 $183 forward 7 unknown #
loop $-1 $-1 $111 $64 #
plane-surface $-1 15.617350455358483 -0.52718971698133998 30.335059285320952 0 0.85716730853699208 0.51503806187062418 1 0 0 forward_v I I I I #
loop $-1 $-1 $184 $42 #
coedge $-1 $109 $109 $110 $185 reversed $65 $-1 #
coedge $-1 $110 $110 $109 $185 forward $67 $-1 #
coedge $-1 $111 $111 $68 $112 forward $106 $-1 #
edge $-1 $186 -5.3423263099783492e-016 $186 6.2831853071795996 $111 $187 forward 7 unknown #
loop $-1 $-1 $118 $69 #
plane-surface $-1 15.617350455358483 -0.52718971698133998 30.335059285320952 0 0.85716730853699208 0.51503806187062418 1 0 0 forward_v I I I I #
loop $-1 $-1 $188 $45 #
coedge $-1 $116 $116 $117 $189 reversed $70 $-1 #
coedge $-1 $117 $117 $116 $189 forward $72 $-1 #
coedge $-1 $118 $118 $73 $119 forward $113 $-1 #
edge $-1 $190 -5.3423263099783492e-016 $190 6.2831853071795996 $118 $191 forward 7 unknown #
face $-1 $192 $193 $18 $-1 $194 reversed single #
loop $-1 $-1 $80 $74 #
plane-surface $-1 0 0 -5.5876514087618734 0 0 1 1 0 0 forward_v I I I I #
coedge $-1 $195 $196 $128 $197 forward $75 $-1 #
coedge $-1 $198 $77 $199 $200 reversed $49 $-1 #
coedge $-1 $77 $198 $201 $202 forward $49 $-1 #
coedge $-1 $134 $133 $77 $127 forward $121 $-1 #
edge $-1 $203 -17.528512700535199 $204 17.528512700535199 $77 $205 forward 7 unknown #
coedge $-1 $79 $78 $123 $197 reversed $31 $-1 #
coedge $-1 $206 $207 $78 $130 forward $208 $-1 #
edge $-1 $209 -5.5876514087618734 $135 5.5876514087618734 $78 $210 forward 7 unknown #
coedge $-1 $211 $212 $79 $132 reversed $193 $-1 #
edge $-1 $213 -5.5876514087618734 $136 5.5876514087618734 $79 $214 forward 7 unknown #
coedge $-1 $126 $80 $212 $215 forward $121 $-1 #
coedge $-1 $80 $126 $206 $216 forward $121 $-1 #
vertex $-1 $81 $217 #
vertex $-1 $132 $218 #
straight-curve $-1 42.214423047578357 0 -5.5876514087618734 0 -1 0 I I #
face $-1 $219 $150 $19 $-1 $220 reversed single #
loop $-1 $-1 $221 $82 #
plane-surface $-1 -49.55230688564658 -7.8702673868344526 0 1 0 0 0 0 -1 forward_v I I I I #
coedge $-1 $222 $223 $224 $225 forward $83 $-1 #
coedge $-1 $226 $85 $222 $227 forward $53 $-1 #
coedge $-1 $85 $226 $148 $228 forward $53 $-1 #
edge $-1 $151 6.3532098830114521 $229 9.3873248906574531 $85 $230 forward 7 unknown #
coedge $-1 $87 $86 $231 $232 forward $34 $-1 #
coedge $-1 $233 $234 $86 $147 forward $235 $-1 #
edge $-1 $236 -9.3873248906574531 $152 -6.3532098830114521 $146 $237 forward 7 unknown #
coedge $-1 $238 $88 $143 $228 reversed $150 $-1 #
coedge $-1 $88 $238 $233 $239 reversed $150 $-1 #
loop $-1 $-1 $88 $138 #
vertex $-1 $144 $240 #
vertex $-1 $239 $241 #
straight-curve $-1 -42.214423047578357 -6.3532098830114521 0 0 0 1 I I #
face $-1 $242 $243 $20 $-1 $244 reversed single #
loop $-1 $-1 $245 $90 #
plane-surface $-1 45.883364966612469 -6.3532098830114521 0 0 -1 0 0 0 -1 forward_v I I I I #
coedge $-1 $246 $93 $247 $248 forward $57 $-1 #
coedge $-1 $93 $246 $163 $249 forward $57 $-1 #
edge $-1 $165 -9.3873248906574531 $250 -6.3532098830114521 $93 $251 forward 7 unknown #
coedge $-1 $95 $94 $252 $253 forward $37 $-1 #
coedge $-1 $254 $255 $94 $162 forward $256 $-1 #
edge $-1 $257 6.3532098830114521 $166 9.3873248906574531 $161 $258 forward 7 unknown #
coedge $-1 $259 $96 $158 $249 reversed $91 $-1 #
coedge $-1 $96 $259 $254 $260 reversed $91 $-1 #
vertex $-1 $159 $261 #
vertex $-1 $260 $262 #
straight-curve $-1 42.214423047578357 -9.3873248906574531 0 0 0 1 I I #
face $-1 $-1 $180 $21 $-1 $263 forward single #
loop $-1 $-1 $264 $98 #
plane-surface $-1 0 17.528512700535199 0 0 -1 0 0 0 -1 forward_v I I I I #
coedge $-1 $265 $266 $267 $268 reversed $99 $-1 #
coedge $-1 $269 $101 $103 $178 forward $61 $-1 #
coedge $-1 $101 $269 $265 $270 forward $61 $-1 #
coedge $-1 $267 $104 $101 $175 forward $180 $-1 #
edge $-1 $182 -2.3856370251032928 $271 18.002987480461776 $174 $272 forward 7 unknown #
coedge $-1 $273 $274 $102 $177 forward $169 $-1 #
edge $-1 $275 -36.624241095099364 $181 -31.321912863309969 $176 $276 forward 7 unknown #
edge $-1 $182 28.871152259408735 $275 35.057025401070405 $103 $277 forward 7 unknown #
coedge $-1 $104 $267 $273 $278 forward $180 $-1 #
loop $-1 $-1 $267 $168 #
vertex $-1 $177 $279 #
vertex $-1 $105 $280 #
straight-curve $-1 5.4230382025759489 35.921228526644036 5.5876514087618716 0 -1 0 I I #
coedge $-1 $184 $184 $-1 $281 reversed $108 $-1 #
edge $-1 $282 0 $282 6.2831853071796004 $109 $283 forward 7 unknown #
vertex $-1 $112 $284 #
ellipse-curve $-1 11.248359489880258 15.935532643605713 2.9364872928671746 0 0.85716730853699208 0.51503806187062418 1 0 0 1 I I #
coedge $-1 $188 $188 $-1 $285 reversed $115 $-1 #
edge $-1 $286 0 $286 6.2831853071796004 $116 $287 forward 7 unknown #
vertex $-1 $119 $288 #
ellipse-curve $-1 19.986341420836716 15.935532643605713 2.9364872928671746 0 0.85716730853699208 0.51503806187062418 1 0 0 1 I I #
face $-1 $-1 $208 $18 $-1 $289 reversed single #
loop $-1 $-1 $199 $120 #
plane-surface $-1 0 -17.528512700535199 0 0 1 0 0 0 1 forward_v I I I I #
coedge $-1 $290 $123 $207 $291 forward $75 $-1 #
coedge $-1 $123 $290 $211 $292 forward $75 $-1 #
edge $-1 $213 -17.528512700535199 $209 17.528512700535199 $128 $293 forward 7 unknown #
coedge $-1 $125 $124 $290 $294 reversed $49 $-1 #
coedge $-1 $212 $211 $124 $200 forward $193 $-1 #
edge $-1 $295 -5.5876514087618734 $203 5.5876514087618734 $124 $296 forward 7 unknown #
coedge $-1 $207 $206 $125 $202 reversed $208 $-1 #
edge $-1 $297 -5.5876514087618734 $204 5.5876514087618734 $201 $298 forward 7 unknown #
vertex $-1 $127 $299 #
vertex $-1 $216 $300 #
straight-curve $-1 -42.214423047578357 0 -5.5876514087618734 0 1 0 I I #
coedge $-1 $201 $129 $134 $216 reversed $208 $-1 #
coedge $-1 $129 $201 $195 $291 reversed $208 $-1 #
loop $-1 $-1 $129 $192 #
vertex $-1 $197 $301 #
straight-curve $-1 42.214423047578357 17.528512700535199 0 0 0 -1 I I #
coedge $-1 $199 $131 $196 $292 reversed $193 $-1 #
coedge $-1 $131 $199 $133 $215 reversed $193 $-1 #
vertex $-1 $197 $302 #
straight-curve $-1 42.214423047578357 -17.528512700535199 0 0 0 -1 I I #
edge $-1 $136 -42.214423047578357 $203 42.214423047578357 $212 $303 forward 7 unknown #
edge $-1 $204 -42.214423047578357 $135 42.214423047578357 $206 $304 forward 7 unknown #
point $-1 42.214423047578357 17.528512700535199 -5.5876514087618734 #
point $-1 42.214423047578357 -17.528512700535199 -5.5876514087618734 #
face $-1 $-1 $235 $19 $-1 $305 forward single #
plane-surface $-1 -45.883364966612469 -6.3532098830114521 0 0 -1 0 0 0 -1 forward_v I I I I #
coedge $-1 $306 $307 $238 $308 forward $139 $-1 #
coedge $-1 $231 $141 $142 $227 reversed $83 $-1 #
coedge $-1 $141 $231 $234 $309 reversed $83 $-1 #
coedge $-1 $307 $306 $141 $225 reversed $139 $-1 #
edge $-1 $310 -5.5876514087618734 $311 5.5876514087618734 $224 $312 forward 7 unknown #
coedge $-1 $143 $142 $306 $313 forward $53 $-1 #
edge $-1 $229 -3.6689419190341113 $311 3.6689419190341113 $222 $314 forward 7 unknown #
edge $-1 $315 -3.6689419190341113 $151 3.6689419190341113 $148 $316 forward 7 unknown #
vertex $-1 $227 $317 #
straight-curve $-1 -42.214423047578357 0 -5.5876514087618734 0 -1 0 I I #
coedge $-1 $223 $222 $145 $232 reversed $83 $-1 #
edge $-1 $236 -5.5876514087618734 $229 5.5876514087618734 $231 $318 forward 7 unknown #
coedge $-1 $319 $146 $149 $239 forward $235 $-1 #
coedge $-1 $146 $319 $223 $309 forward $235 $-1 #
loop $-1 $-1 $146 $219 #
vertex $-1 $147 $320 #
straight-curve $-1 -42.214423047578357 0 5.5876514087618734 0 1 0 I I #
coedge $-1 $149 $148 $221 $308 reversed $150 $-1 #
edge $-1 $152 -3.6689419190341113 $321 3.6689419190341113 $149 $322 forward 7 unknown #
point $-1 -42.214423047578357 -6.3532098830114521 -5.5876514087618734 #
point $-1 -42.214423047578357 -6.3532098830114521 5.5876514087618734 #
face $-1 $-1 $256 $20 $-1 $323 forward single #
loop $-1 $-1 $324 $154 #
plane-surface $-1 49.55230688564658 -7.8702673868344526 0 -1 0 0 0 0 1 forward_v I I I I #
coedge $-1 $247 $325 $326 $327 forward $155 $-1 #
coedge $-1 $158 $157 $328 $329 forward $57 $-1 #
coedge $-1 $252 $245 $157 $248 reversed $155 $-1 #
edge $-1 $250 -3.6689419190341113 $330 3.6689419190341113 $247 $331 forward 7 unknown #
edge $-1 $332 -3.6689419190341113 $165 3.6689419190341113 $163 $333 forward 7 unknown #
vertex $-1 $248 $334 #
straight-curve $-1 42.214423047578357 0 -5.5876514087618734 0 1 0 I I #
coedge $-1 $325 $247 $160 $253 reversed $155 $-1 #
edge $-1 $257 -5.5876514087618734 $250 5.5876514087618734 $252 $335 forward 7 unknown #
coedge $-1 $336 $161 $164 $260 forward $256 $-1 #
coedge $-1 $161 $336 $325 $337 forward $256 $-1 #
loop $-1 $-1 $161 $242 #
vertex $-1 $162 $338 #
straight-curve $-1 42.214423047578357 0 5.5876514087618734 0 -1 0 I I #
coedge $-1 $164 $163 $324 $339 reversed $91 $-1 #
edge $-1 $166 -3.6689419190341113 $340 3.6689419190341113 $164 $341 forward 7 unknown #
point $-1 42.214423047578357 -9.3873248906574531 -5.5876514087618734 #
point $-1 42.214423047578357 -9.3873248906574531 5.5876514087618734 #
plane-surface $-1 0 0 5.5876514087618734 0 0 1 1 0 0 forward_v I I I I #
coedge $-1 $274 $273 $266 $342 forward $169 $-1 #
coedge $-1 $266 $171 $173 $270 reversed $99 $-1 #
coedge $-1 $171 $265 $264 $342 reversed $99 $-1 #
coedge $-1 $179 $174 $171 $268 forward $180 $-1 #
edge $-1 $271 -21.578675939967809 $343 -18.392715826108837 $267 $344 forward 7 unknown #
coedge $-1 $173 $172 $274 $345 reversed $61 $-1 #
edge $-1 $346 -35.057025401070405 $271 -28.871152259408735 $265 $347 forward 7 unknown #
vertex $-1 $175 $348 #
straight-curve $-1 7.8086752276792417 14.342552586676224 5.5876514087618734 1 0 0 I I #
coedge $-1 $264 $176 $179 $278 reversed $169 $-1 #
coedge $-1 $176 $264 $269 $345 forward $169 $-1 #
vertex $-1 $177 $349 #
straight-curve $-1 5.4230382025759489 17.528512700535199 36.90956427207184 0 0 1 I I #
straight-curve $-1 5.4230382025759489 -0.52718971698133998 30.335059285320952 0 0.51503806187062418 -0.85716730853699208 I I #
edge $-1 $343 -25.811662708141018 $181 -5.4230382025759489 $273 $350 forward 7 unknown #
point $-1 5.4230382025759489 17.528512700535199 5.5876514087618734 #
point $-1 5.4230382025759489 14.342552586676227 5.5876514087618716 #
edge $-1 $351 1 $351 0 $184 $-1 forward 7 unknown #
vertex $-1 $185 $352 #
ellipse-curve $-1 11.248359489880258 14.988507560331193 2.3674572347037679 0 0.85716730853699208 0.51503806187062418 1 0 0 1 I I #
point $-1 12.248359489880258 15.935532643605711 2.9364872928671741 #
edge $-1 $353 1 $353 0 $188 $-1 forward 7 unknown #
vertex $-1 $189 $354 #
ellipse-curve $-1 19.986341420836716 14.988507560331193 2.3674572347037679 0 0.85716730853699208 0.51503806187062418 1 0 0 1 I I #
point $-1 20.986341420836716 15.935532643605711 2.9364872928671741 #
plane-surface $-1 0 17.528512700535199 0 0 -1 0 0 0 -1 forward_v I I I I #
coedge $-1 $196 $195 $198 $294 forward $75 $-1 #
edge $-1 $209 -42.214423047578357 $297 42.214423047578357 $207 $355 forward 7 unknown #
edge $-1 $295 -42.214423047578357 $213 42.214423047578357 $211 $356 forward 7 unknown #
straight-curve $-1 42.214423047578357 0 5.5876514087618734 0 1 0 I I #
edge $-1 $297 -17.528512700535199 $295 17.528512700535199 $198 $357 forward 7 unknown #
vertex $-1 $294 $358 #
straight-curve $-1 -42.214423047578357 -17.528512700535199 0 0 0 -1 I I #
vertex $-1 $291 $359 #
straight-curve $-1 -42.214423047578357 17.528512700535199 0 0 0 -1 I I #
point $-1 -42.214423047578357 -17.528512700535199 -5.5876514087618734 #
point $-1 -42.214423047578357 17.528512700535199 -5.5876514087618734 #
point $-1 42.214423047578357 17.528512700535199 5.5876514087618734 #
point $-1 42.214423047578357 -17.528512700535199 5.5876514087618734 #
straight-curve $-1 0 -17.528512700535199 -5.5876514087618734 -1 0 0 I I #
straight-curve $-1 0 17.528512700535199 -5.5876514087618734 1 0 0 I I #
plane-surface $-1 0 0 5.5876514087618734 0 0 1 1 0 0 forward_v I I I I #
coedge $-1 $224 $221 $226 $313 reversed $139 $-1 #
coedge $-1 $221 $224 $319 $360 reversed $139 $-1 #
edge $-1 $321 -5.5876514087618734 $315 5.5876514087618734 $238 $361 forward 7 unknown #
edge $-1 $310 -3.6689419190341113 $236 3.6689419190341113 $223 $362 forward 7 unknown #
vertex $-1 $360 $363 #
vertex $-1 $313 $364 #
straight-curve $-1 -49.55230688564658 -9.3873248906574531 0 0 0 -1 I I #
edge $-1 $311 -1.5170575038230005 $315 1.5170575038230005 $306 $365 forward 7 unknown #
straight-curve $-1 -45.883364966612469 -9.3873248906574531 -5.5876514087618734 -1 0 0 I I #
vertex $-1 $228 $366 #
straight-curve $-1 -45.883364966612469 -6.3532098830114521 -5.5876514087618734 1 0 0 I I #
point $-1 -42.214423047578357 -9.3873248906574531 -5.5876514087618734 #
straight-curve $-1 -42.214423047578357 -9.3873248906574531 0 0 0 -1 I I #
coedge $-1 $234 $233 $307 $360 forward $235 $-1 #
point $-1 -42.214423047578357 -9.3873248906574531 5.5876514087618734 #
vertex $-1 $239 $367 #
straight-curve $-1 -45.883364966612469 -6.3532098830114521 5.5876514087618734 -1 0 0 I I #
plane-surface $-1 0 0 5.5876514087618734 0 0 1 1 0 0 forward_v I I I I #
coedge $-1 $328 $368 $259 $339 forward $243 $-1 #
coedge $-1 $245 $252 $255 $337 reversed $155 $-1 #
coedge $-1 $368 $328 $245 $327 reversed $243 $-1 #
edge $-1 $369 -5.5876514087618734 $330 5.5876514087618734 $326 $370 forward 7 unknown #
coedge $-1 $326 $324 $246 $329 reversed $243 $-1 #
edge $-1 $330 -1.5170575038230005 $332 1.5170575038230005 $328 $371 forward 7 unknown #
vertex $-1 $329 $372 #
straight-curve $-1 45.883364966612469 -6.3532098830114521 -5.5876514087618734 1 0 0 I I #
vertex $-1 $339 $373 #
straight-curve $-1 45.883364966612469 -9.3873248906574531 -5.5876514087618734 -1 0 0 I I #
point $-1 42.214423047578357 -6.3532098830114521 -5.5876514087618734 #
straight-curve $-1 42.214423047578357 -6.3532098830114521 0 0 0 -1 I I #
coedge $-1 $255 $254 $368 $374 forward $256 $-1 #
edge $-1 $369 -3.6689419190341113 $257 3.6689419190341113 $325 $375 forward 7 unknown #
point $-1 42.214423047578357 -6.3532098830114521 5.5876514087618734 #
edge $-1 $340 -5.5876514087618734 $332 5.5876514087618734 $324 $376 forward 7 unknown #
vertex $-1 $374 $377 #
straight-curve $-1 45.883364966612469 -9.3873248906574531 5.5876514087618734 1 0 0 I I #
edge $-1 $343 31.321912863309969 $346 36.624241095099364 $264 $378 forward 7 unknown #
vertex $-1 $278 $379 #
straight-curve $-1 25.811662708141018 35.921228526644036 5.5876514087618716 0 1 0 I I #
edge $-1 $346 -18.002987480461776 $275 2.3856370251032928 $274 $380 forward 7 unknown #
vertex $-1 $345 $381 #
straight-curve $-1 25.811662708141018 -0.52718971698133998 30.335059285320952 0 -0.51503806187062418 0.85716730853699208 I I #
point $-1 25.811662708141018 14.342552586676227 5.5876514087618716 #
point $-1 5.4230382025759489 17.528512700535199 0.28532317697247578 #
straight-curve $-1 0 17.528512700535199 5.5876514087618734 -1 0 0 I I #
vertex $-1 $281 $382 #
point $-1 12.248359489880258 14.988507560331193 2.3674572347037679 #
vertex $-1 $285 $383 #
point $-1 20.986341420836716 14.988507560331193 2.3674572347037679 #
straight-curve $-1 0 17.528512700535199 5.5876514087618734 -1 0 0 I I #
straight-curve $-1 0 -17.528512700535199 5.5876514087618734 1 0 0 I I #
straight-curve $-1 -42.214423047578357 0 5.5876514087618734 0 -1 0 I I #
point $-1 -42.214423047578357 -17.528512700535199 5.5876514087618734 #
point $-1 -42.214423047578357 17.528512700535199 5.5876514087618734 #
edge $-1 $321 -1.5170575038230005 $310 1.5170575038230005 $307 $384 forward 7 unknown #
straight-curve $-1 -49.55230688564658 -6.3532098830114521 0 0 0 -1 I I #
straight-curve $-1 -45.883364966612469 -9.3873248906574531 5.5876514087618734 1 0 0 I I #
point $-1 -49.55230688564658 -9.3873248906574531 5.5876514087618734 #
point $-1 -49.55230688564658 -9.3873248906574531 -5.5876514087618734 #
straight-curve $-1 -49.55230688564658 -7.8702673868344526 -5.5876514087618734 0 1 0 I I #
point $-1 -49.55230688564658 -6.3532098830114521 -5.5876514087618734 #
point $-1 -49.55230688564658 -6.3532098830114521 5.5876514087618734 #
coedge $-1 $324 $326 $336 $374 reversed $243 $-1 #
vertex $-1 $374 $385 #
straight-curve $-1 49.55230688564658 -6.3532098830114521 0 0 0 -1 I I #
straight-curve $-1 49.55230688564658 -7.8702673868344526 -5.5876514087618734 0 -1 0 I I #
point $-1 49.55230688564658 -6.3532098830114521 -5.5876514087618734 #
point $-1 49.55230688564658 -9.3873248906574531 -5.5876514087618734 #
edge $-1 $340 -1.5170575038230005 $369 1.5170575038230005 $368 $386 forward 7 unknown #
straight-curve $-1 45.883364966612469 -6.3532098830114521 5.5876514087618734 -1 0 0 I I #
straight-curve $-1 49.55230688564658 -9.3873248906574531 0 0 0 -1 I I #
point $-1 49.55230688564658 -9.3873248906574531 5.5876514087618734 #
straight-curve $-1 25.811662708141018 17.528512700535199 36.90956427207184 0 0 -1 I I #
point $-1 25.811662708141018 17.528512700535199 5.5876514087618734 #
straight-curve $-1 7.8086752276792417 17.528512700535199 0.28532317697247223 -1 0 0 I I #
point $-1 25.811662708141018 17.528512700535199 0.28532317697247578 #
point $-1 11.248359489880258 14.1313402517942 1.8524191728331438 #
point $-1 19.986341420836716 14.1313402517942 1.8524191728331438 #
straight-curve $-1 -49.55230688564658 -7.8702673868344526 5.5876514087618734 0 -1 0 I I #
point $-1 49.55230688564658 -6.3532098830114521 5.5876514087618734 #
straight-curve $-1 49.55230688564658 -7.8702673868344526 5.5876514087618734 0 1 0 I I #
End-of-ACIS-data 