500 0 14 0           
7 Unknown 11 ACIS 5.0 NT 24 Fri Mar 26 15:32:48 1999 
-1 9.9999999999999995e-007 1e-010 
body $-1 $14 $-1 $15 #
body $-1 $16 $-1 $17 #
body $-1 $18 $-1 $19 #
body $-1 $20 $-1 $21 #
body $-1 $22 $-1 $23 #
body $-1 $24 $-1 $25 #
body $-1 $26 $-1 $27 #
body $-1 $28 $-1 $29 #
body $-1 $30 $-1 $31 #
body $-1 $32 $-1 $33 #
body $-1 $34 $-1 $35 #
body $-1 $36 $-1 $37 #
body $-1 $38 $-1 $39 #
body $-1 $40 $-1 $41 #
lump $-1 $-1 $42 $0 #
transform $-1 1 0 0 0 1 0 0 0 1 57.678762169255648 25.256703859276527 5.3131034181338883 1 rotate no_reflect no_shear #
lump $-1 $-1 $43 $1 #
transform $-1 1 0 0 0 1 0 0 0 1 57.678762169255648 25.256703859276527 5.3131034181338883 1 rotate no_reflect no_shear #
lump $-1 $-1 $44 $2 #
transform $-1 1 0 0 0 1 0 0 0 1 57.678762169255648 25.256703859276527 5.3131034181338883 1 rotate no_reflect no_shear #
lump $-1 $-1 $45 $3 #
transform $-1 1 0 0 0 1 0 0 0 1 57.678762169255648 25.256703859276527 5.3131034181338883 1 rotate no_reflect no_shear #
lump $-1 $-1 $46 $4 #
transform $-1 1 0 0 0 1 0 0 0 1 57.678762169255648 25.256703859276527 5.3131034181338883 1 rotate no_reflect no_shear #
lump $-1 $-1 $47 $5 #
transform $-1 1 0 0 0 1 0 0 0 1 57.678762169255648 25.256703859276527 5.3131034181338883 1 rotate no_reflect no_shear #
lump $-1 $-1 $48 $6 #
transform $-1 1 0 0 0 1 0 0 0 1 57.678762169255648 25.256703859276527 5.3131034181338883 1 rotate no_reflect no_shear #
lump $-1 $-1 $49 $7 #
transform $-1 1 0 0 0 1 0 0 0 1 57.678762169255648 25.256703859276527 5.3131034181338883 1 rotate no_reflect no_shear #
lump $-1 $-1 $50 $8 #
transform $-1 1 0 0 0 1 0 0 0 1 57.678762169255648 25.256703859276527 5.3131034181338883 1 rotate no_reflect no_shear #
lump $-1 $-1 $51 $9 #
transform $-1 1 0 0 0 1 0 0 0 1 57.678762169255648 25.256703859276527 5.3131034181338883 1 rotate no_reflect no_shear #
lump $-1 $-1 $52 $10 #
transform $-1 1 0 0 0 1 0 0 0 1 57.678762169255648 25.256703859276527 5.3131034181338883 1 rotate no_reflect no_shear #
lump $-1 $-1 $53 $11 #
transform $-1 1 0 0 0 1 0 0 0 1 57.678762169255648 25.256703859276527 5.3131034181338883 1 rotate no_reflect no_shear #
lump $-1 $-1 $54 $12 #
transform $-1 1 0 0 0 1 0 0 0 1 57.678762169255648 25.256703859276527 5.3131034181338883 1 rotate no_reflect no_shear #
lump $-1 $-1 $55 $13 #
transform $-1 1 0 0 0 1 0 0 0 1 57.678762169255648 25.256703859276527 5.3131034181338883 1 rotate no_reflect no_shear #
shell $-1 $-1 $-1 $56 $-1 $14 #
shell $-1 $-1 $-1 $57 $-1 $16 #
shell $-1 $-1 $-1 $58 $-1 $18 #
shell $-1 $-1 $-1 $59 $-1 $20 #
shell $-1 $-1 $-1 $60 $-1 $22 #
shell $-1 $-1 $-1 $61 $-1 $24 #
shell $-1 $-1 $-1 $62 $-1 $26 #
shell $-1 $-1 $-1 $63 $-1 $28 #
shell $-1 $-1 $-1 $64 $-1 $30 #
shell $-1 $-1 $-1 $65 $-1 $32 #
shell $-1 $-1 $-1 $66 $-1 $34 #
shell $-1 $-1 $-1 $67 $-1 $36 #
shell $-1 $-1 $-1 $68 $-1 $38 #
shell $-1 $-1 $-1 $69 $-1 $40 #
face $-1 $70 $71 $42 $-1 $72 forward single #
face $-1 $73 $74 $43 $-1 $75 forward single #
face $-1 $76 $77 $44 $-1 $78 reversed single #
face $-1 $79 $80 $45 $-1 $81 forward single #
face $-1 $82 $83 $46 $-1 $84 forward single #
face $-1 $85 $86 $47 $-1 $87 reversed single #
face $-1 $88 $89 $48 $-1 $90 forward single #
face $-1 $91 $92 $49 $-1 $93 forward single #
face $-1 $94 $95 $50 $-1 $96 reversed single #
face $-1 $97 $98 $51 $-1 $99 forward single #
face $-1 $100 $101 $52 $-1 $102 forward single #
face $-1 $103 $104 $53 $-1 $105 reversed single #
face $-1 $106 $107 $54 $-1 $108 forward single #
face $-1 $109 $110 $55 $-1 $111 forward single #
face $-1 $112 $113 $42 $-1 $114 reversed single #
loop $-1 $-1 $115 $56 #
plane-surface $-1 0 0 5.3131034181338883 0 0 1 1 0 0 forward_v I I I I #
face $-1 $116 $117 $43 $-1 $118 reversed single #
loop $-1 $-1 $119 $57 #
plane-surface $-1 -57.678762169255648 0 0 1 0 0 0 0 -1 forward_v I I I I #
face $-1 $120 $121 $44 $-1 $122 reversed single #
loop $-1 $-1 $123 $58 #
plane-surface $-1 74.731556138820409 -12.628351929638262 163.72404722632317 0 -1 0 -0.77714596973225614 0 -0.62932038083071107 forward_v I I I I #
face $-1 $124 $125 $45 $-1 $126 forward single #
loop $-1 $127 $128 $59 #
cone-surface $-1 55.3519661260259 -18.015797034578647 2.7687104384962891 -0.77714596973225614 0 -0.62932038083071107 0.31466019041535553 0 -0.38857298486612807 1 I I 0 1 0.5 forward I I I I #
face $-1 $129 $130 $46 $-1 $131 forward single #
loop $-1 $132 $133 $60 #
cone-surface $-1 55.3519661260259 -14.783329971614418 2.7687104384962891 -0.77714596973225614 0 -0.62932038083071107 0.31466019041535553 0 -0.38857298486612807 1 I I 0 1 0.5 forward I I I I #
face $-1 $134 $135 $47 $-1 $136 reversed single #
loop $-1 $-1 $137 $61 #
plane-surface $-1 74.731556138820409 1.7763568394002505e-015 163.72404722632317 0 -1 0 -0.77714596973225614 0 -0.62932038083071107 forward_v I I I I #
face $-1 $138 $139 $48 $-1 $140 forward single #
loop $-1 $141 $142 $62 #
cone-surface $-1 55.3519661260259 -5.3874451049403831 2.7687104384962891 -0.77714596973225614 0 -0.62932038083071107 0.31466019041535553 0 -0.38857298486612807 1 I I 0 1 0.5 forward I I I I #
face $-1 $143 $144 $49 $-1 $145 forward single #
loop $-1 $146 $147 $63 #
cone-surface $-1 55.3519661260259 -2.1549780419761539 2.7687104384962891 -0.77714596973225614 0 -0.62932038083071107 0.31466019041535553 0 -0.38857298486612807 1 I I 0 1 0.5 forward I I I I #
face $-1 $148 $149 $50 $-1 $150 reversed single #
loop $-1 $-1 $151 $64 #
plane-surface $-1 74.731556138820409 12.628351929638265 163.72404722632317 0 -1 0 -0.77714596973225614 0 -0.62932038083071107 forward_v I I I I #
face $-1 $152 $153 $51 $-1 $154 forward single #
loop $-1 $155 $156 $65 #
cone-surface $-1 55.3519661260259 7.2409068246978805 2.7687104384962891 -0.77714596973225614 0 -0.62932038083071107 0.31466019041535553 0 -0.38857298486612807 1 I I 0 1 0.5 forward I I I I #
face $-1 $157 $158 $52 $-1 $159 forward single #
loop $-1 $160 $161 $66 #
cone-surface $-1 55.3519661260259 10.473373887662106 2.7687104384962891 -0.77714596973225614 0 -0.62932038083071107 0.31466019041535553 0 -0.38857298486612807 1 I I 0 1 0.5 forward I I I I #
face $-1 $162 $163 $53 $-1 $164 reversed single #
loop $-1 $-1 $165 $67 #
plane-surface $-1 74.731556138820409 17.714280712359994 163.72404722632317 0 1 0 0.77714596973225614 0 0.62932038083071107 forward_v I I I I #
face $-1 $166 $167 $54 $-1 $168 forward single #
loop $-1 $169 $170 $68 #
cone-surface $-1 55.3519661260259 19.869258754336144 2.7687104384962891 -0.77714596973225614 0 -0.62932038083071107 0.31466019041535553 0 -0.38857298486612807 1 I I 0 1 0.5 forward I I I I #
face $-1 $171 $172 $55 $-1 $173 forward single #
loop $-1 $174 $175 $69 #
cone-surface $-1 55.3519661260259 23.10172581730037 2.7687104384962891 -0.77714596973225614 0 -0.62932038083071107 0.31466019041535553 0 -0.38857298486612807 1 I I 0 1 0.5 forward I I I I #
face $-1 $176 $177 $42 $-1 $178 reversed single #
loop $-1 $-1 $179 $70 #
plane-surface $-1 0 0 -5.3131034181338883 0 0 1 1 0 0 forward_v I I I I #
coedge $-1 $180 $181 $182 $183 forward $71 $-1 #
face $-1 $184 $185 $43 $-1 $186 forward single #
loop $-1 $-1 $187 $73 #
plane-surface $-1 0 25.256703859276527 0 0 -1 0 0 0 -1 forward_v I I I I #
coedge $-1 $188 $189 $190 $191 forward $74 $-1 #
face $-1 $192 $193 $44 $-1 $194 reversed single #
loop $-1 $-1 $195 $76 #
plane-surface $-1 -14.918078979144298 -16.39956350309653 91.127206077923219 0.77714596973225614 0 0.62932038083071107 0.62932038083071107 0 -0.77714596973225614 forward_v I I I I #
coedge $-1 $196 $197 $198 $199 reversed $77 $-1 #
face $-1 $-1 $200 $45 $-1 $201 forward single #
loop $-1 $202 $203 $79 #
cone-surface $-1 54.383860020324548 -18.015797034578647 1.9847535927387163 -0.77714596973225614 0 -0.62932038083071107 0.15733009520767777 0 -0.19428649243306403 1 I I -0.70710678118654746 0.70710678118654746 0.25 forward I I I I #
loop $-1 $-1 $204 $59 #
coedge $-1 $128 $128 $205 $206 reversed $80 $-1 #
face $-1 $-1 $207 $46 $-1 $208 forward single #
loop $-1 $209 $210 $82 #
cone-surface $-1 54.383860020324548 -14.783329971614418 1.9847535927387163 -0.77714596973225614 0 -0.62932038083071107 0.15733009520767777 0 -0.19428649243306403 1 I I -0.70710678118654746 0.70710678118654746 0.25 forward I I I I #
loop $-1 $-1 $211 $60 #
coedge $-1 $133 $133 $212 $213 reversed $83 $-1 #
face $-1 $214 $215 $47 $-1 $216 reversed single #
loop $-1 $-1 $217 $85 #
plane-surface $-1 -14.918078979144298 -3.7712115734582667 91.127206077923219 0.77714596973225614 0 0.62932038083071107 0.62932038083071107 0 -0.77714596973225614 forward_v I I I I #
coedge $-1 $218 $219 $220 $221 reversed $86 $-1 #
face $-1 $-1 $222 $48 $-1 $223 forward single #
loop $-1 $224 $225 $88 #
cone-surface $-1 54.383860020324548 -5.3874451049403831 1.9847535927387163 -0.77714596973225614 0 -0.62932038083071107 0.15733009520767777 0 -0.19428649243306403 1 I I -0.70710678118654746 0.70710678118654746 0.25 forward I I I I #
loop $-1 $-1 $226 $62 #
coedge $-1 $142 $142 $227 $228 reversed $89 $-1 #
face $-1 $-1 $229 $49 $-1 $230 forward single #
loop $-1 $231 $232 $91 #
cone-surface $-1 54.383860020324548 -2.1549780419761539 1.9847535927387163 -0.77714596973225614 0 -0.62932038083071107 0.15733009520767777 0 -0.19428649243306403 1 I I -0.70710678118654746 0.70710678118654746 0.25 forward I I I I #
loop $-1 $-1 $233 $63 #
coedge $-1 $147 $147 $234 $235 reversed $92 $-1 #
face $-1 $236 $237 $50 $-1 $238 reversed single #
loop $-1 $-1 $239 $94 #
plane-surface $-1 -14.918078979144298 8.8571403561799968 91.127206077923219 0.77714596973225614 0 0.62932038083071107 0.62932038083071107 0 -0.77714596973225614 forward_v I I I I #
coedge $-1 $240 $241 $242 $243 reversed $95 $-1 #
face $-1 $-1 $244 $51 $-1 $245 forward single #
loop $-1 $246 $247 $97 #
cone-surface $-1 54.383860020324548 7.2409068246978805 1.9847535927387163 -0.77714596973225614 0 -0.62932038083071107 0.15733009520767777 0 -0.19428649243306403 1 I I -0.70710678118654746 0.70710678118654746 0.25 forward I I I I #
loop $-1 $-1 $248 $65 #
coedge $-1 $156 $156 $249 $250 reversed $98 $-1 #
face $-1 $-1 $251 $52 $-1 $252 forward single #
loop $-1 $253 $254 $100 #
cone-surface $-1 54.383860020324548 10.473373887662106 1.9847535927387163 -0.77714596973225614 0 -0.62932038083071107 0.15733009520767777 0 -0.19428649243306403 1 I I -0.70710678118654746 0.70710678118654746 0.25 forward I I I I #
loop $-1 $-1 $255 $66 #
coedge $-1 $161 $161 $256 $257 reversed $101 $-1 #
face $-1 $258 $259 $53 $-1 $260 reversed single #
loop $-1 $-1 $261 $103 #
plane-surface $-1 -14.918078979144298 21.48549228581826 91.127206077923219 0.77714596973225614 0 0.62932038083071107 0.62932038083071107 0 -0.77714596973225614 forward_v I I I I #
coedge $-1 $262 $263 $264 $265 reversed $104 $-1 #
face $-1 $-1 $266 $54 $-1 $267 forward single #
loop $-1 $268 $269 $106 #
cone-surface $-1 54.383860020324548 19.869258754336144 1.9847535927387163 -0.77714596973225614 0 -0.62932038083071107 0.15733009520767777 0 -0.19428649243306403 1 I I -0.70710678118654746 0.70710678118654746 0.25 forward I I I I #
loop $-1 $-1 $270 $68 #
coedge $-1 $170 $170 $271 $272 reversed $107 $-1 #
face $-1 $-1 $273 $55 $-1 $274 forward single #
loop $-1 $275 $276 $109 #
cone-surface $-1 54.383860020324548 23.10172581730037 1.9847535927387163 -0.77714596973225614 0 -0.62932038083071107 0.15733009520767777 0 -0.19428649243306403 1 I I -0.70710678118654746 0.70710678118654746 0.25 forward I I I I #
loop $-1 $-1 $277 $69 #
coedge $-1 $175 $175 $278 $279 reversed $110 $-1 #
face $-1 $280 $281 $42 $-1 $282 reversed single #
loop $-1 $-1 $283 $112 #
plane-surface $-1 0 -25.256703859276527 0 0 1 0 0 0 1 forward_v I I I I #
coedge $-1 $284 $285 $286 $287 forward $113 $-1 #
coedge $-1 $288 $115 $289 $290 forward $71 $-1 #
coedge $-1 $115 $288 $291 $292 forward $71 $-1 #
coedge $-1 $293 $294 $115 $183 reversed $295 $-1 #
edge $-1 $296 -25.256703859276527 $297 25.256703859276527 $182 $298 forward 7 unknown #
face $-1 $299 $300 $43 $-1 $301 reversed single #
loop $-1 $-1 $190 $116 #
plane-surface $-1 -59.722692801926925 0 -2.2989991608529774 0 0 1 1 0 0 forward_v I I I I #
coedge $-1 $302 $303 $189 $304 forward $117 $-1 #
coedge $-1 $305 $119 $306 $307 reversed $74 $-1 #
coedge $-1 $119 $305 $187 $304 reversed $74 $-1 #
coedge $-1 $308 $309 $119 $191 reversed $185 $-1 #
edge $-1 $310 -25.256703859276527 $311 25.256703859276527 $190 $312 forward 7 unknown #
face $-1 $313 $314 $44 $-1 $315 forward single #
loop $-1 $-1 $316 $120 #
plane-surface $-1 74.731556138820409 -20.170775076554797 163.72404722632317 0 1 0 0.77714596973225614 0 0.62932038083071107 forward_v I I I I #
coedge $-1 $317 $318 $319 $320 reversed $121 $-1 #
coedge $-1 $197 $123 $321 $322 reversed $77 $-1 #
coedge $-1 $123 $196 $317 $323 reversed $77 $-1 #
coedge $-1 $319 $324 $123 $199 forward $314 $-1 #
edge $-1 $325 -20.312984099845444 $326 -17.207031239922522 $198 $327 forward 7 unknown #
loop $-1 $-1 $205 $124 #
plane-surface $-1 -14.918078979144298 -16.39956350309653 91.127206077923219 0.77714596973225614 0 0.62932038083071107 0.62932038083071107 0 -0.77714596973225614 forward_v I I I I #
loop $-1 $-1 $328 $79 #
coedge $-1 $203 $203 $204 $329 reversed $125 $-1 #
coedge $-1 $204 $204 $203 $329 forward $127 $-1 #
coedge $-1 $205 $205 $128 $206 forward $200 $-1 #
edge $-1 $330 0 $330 6.2831853071796004 $205 $331 forward 7 unknown #
loop $-1 $-1 $212 $129 #
plane-surface $-1 -14.918078979144298 -16.39956350309653 91.127206077923219 0.77714596973225614 0 0.62932038083071107 0.62932038083071107 0 -0.77714596973225614 forward_v I I I I #
loop $-1 $-1 $332 $82 #
coedge $-1 $210 $210 $211 $333 reversed $130 $-1 #
coedge $-1 $211 $211 $210 $333 forward $132 $-1 #
coedge $-1 $212 $212 $133 $213 forward $207 $-1 #
edge $-1 $334 0 $334 6.2831853071796004 $212 $335 forward 7 unknown #
face $-1 $336 $337 $47 $-1 $338 reversed single #
loop $-1 $-1 $339 $134 #
plane-surface $-1 74.731556138820409 -7.5424231469165353 163.72404722632317 0 1 0 0.77714596973225614 0 0.62932038083071107 forward_v I I I I #
coedge $-1 $340 $341 $342 $343 reversed $135 $-1 #
coedge $-1 $219 $137 $344 $345 reversed $86 $-1 #
coedge $-1 $137 $218 $340 $346 reversed $86 $-1 #
coedge $-1 $342 $347 $137 $221 forward $348 $-1 #
edge $-1 $349 -20.312984099845444 $350 -17.207031239922522 $220 $351 forward 7 unknown #
loop $-1 $-1 $227 $138 #
plane-surface $-1 -14.918078979144298 -3.7712115734582667 91.127206077923219 0.77714596973225614 0 0.62932038083071107 0.62932038083071107 0 -0.77714596973225614 forward_v I I I I #
loop $-1 $-1 $352 $88 #
coedge $-1 $225 $225 $226 $353 reversed $139 $-1 #
coedge $-1 $226 $226 $225 $353 forward $141 $-1 #
coedge $-1 $227 $227 $142 $228 forward $222 $-1 #
edge $-1 $354 0 $354 6.2831853071796004 $227 $355 forward 7 unknown #
loop $-1 $-1 $234 $143 #
plane-surface $-1 -14.918078979144298 -3.7712115734582667 91.127206077923219 0.77714596973225614 0 0.62932038083071107 0.62932038083071107 0 -0.77714596973225614 forward_v I I I I #
loop $-1 $-1 $356 $91 #
coedge $-1 $232 $232 $233 $357 reversed $144 $-1 #
coedge $-1 $233 $233 $232 $357 forward $146 $-1 #
coedge $-1 $234 $234 $147 $235 forward $229 $-1 #
edge $-1 $358 0 $358 6.2831853071796004 $234 $359 forward 7 unknown #
face $-1 $360 $361 $50 $-1 $362 reversed single #
loop $-1 $-1 $363 $148 #
plane-surface $-1 74.731556138820409 5.0859287827217283 163.72404722632317 0 1 0 0.77714596973225614 0 0.62932038083071107 forward_v I I I I #
coedge $-1 $364 $365 $366 $367 reversed $149 $-1 #
coedge $-1 $241 $151 $368 $369 reversed $95 $-1 #
coedge $-1 $151 $240 $364 $370 reversed $95 $-1 #
coedge $-1 $366 $371 $151 $243 forward $372 $-1 #
edge $-1 $373 -20.312984099845444 $374 -17.207031239922522 $242 $375 forward 7 unknown #
loop $-1 $-1 $249 $152 #
plane-surface $-1 -14.918078979144298 8.8571403561799968 91.127206077923219 0.77714596973225614 0 0.62932038083071107 0.62932038083071107 0 -0.77714596973225614 forward_v I I I I #
loop $-1 $-1 $376 $97 #
coedge $-1 $247 $247 $248 $377 reversed $153 $-1 #
coedge $-1 $248 $248 $247 $377 forward $155 $-1 #
coedge $-1 $249 $249 $156 $250 forward $244 $-1 #
edge $-1 $378 0 $378 6.2831853071796004 $249 $379 forward 7 unknown #
loop $-1 $-1 $256 $157 #
plane-surface $-1 -14.918078979144298 8.8571403561799968 91.127206077923219 0.77714596973225614 0 0.62932038083071107 0.62932038083071107 0 -0.77714596973225614 forward_v I I I I #
loop $-1 $-1 $380 $100 #
coedge $-1 $254 $254 $255 $381 reversed $158 $-1 #
coedge $-1 $255 $255 $254 $381 forward $160 $-1 #
coedge $-1 $256 $256 $161 $257 forward $251 $-1 #
edge $-1 $382 0 $382 6.2831853071796004 $256 $383 forward 7 unknown #
face $-1 $384 $385 $53 $-1 $386 forward single #
loop $-1 $-1 $264 $162 #
plane-surface $-1 57.678762169255648 0 0 -1 0 0 0 0 1 forward_v I I I I #
coedge $-1 $387 $388 $389 $390 reversed $163 $-1 #
coedge $-1 $263 $165 $391 $392 reversed $104 $-1 #
coedge $-1 $165 $262 $387 $393 reversed $104 $-1 #
coedge $-1 $389 $394 $165 $265 forward $259 $-1 #
edge $-1 $395 76.548920195027691 $396 80.38445265320307 $264 $397 forward 7 unknown #
loop $-1 $-1 $271 $166 #
plane-surface $-1 -14.918078979144298 21.48549228581826 91.127206077923219 0.77714596973225614 0 0.62932038083071107 0.62932038083071107 0 -0.77714596973225614 forward_v I I I I #
loop $-1 $-1 $398 $106 #
coedge $-1 $269 $269 $270 $399 reversed $167 $-1 #
coedge $-1 $270 $270 $269 $399 forward $169 $-1 #
coedge $-1 $271 $271 $170 $272 forward $266 $-1 #
edge $-1 $400 0 $400 6.2831853071796004 $271 $401 forward 7 unknown #
loop $-1 $-1 $278 $171 #
plane-surface $-1 -14.918078979144298 21.48549228581826 91.127206077923219 0.77714596973225614 0 0.62932038083071107 0.62932038083071107 0 -0.77714596973225614 forward_v I I I I #
loop $-1 $-1 $402 $109 #
coedge $-1 $276 $276 $277 $403 reversed $172 $-1 #
coedge $-1 $277 $277 $276 $403 forward $174 $-1 #
coedge $-1 $278 $278 $175 $279 forward $273 $-1 #
edge $-1 $404 0 $404 6.2831853071796004 $278 $405 forward 7 unknown #
face $-1 $406 $407 $42 $-1 $408 reversed single #
loop $-1 $-1 $409 $176 #
plane-surface $-1 -57.678762169255648 0 0 1 0 0 0 0 -1 forward_v I I I I #
coedge $-1 $410 $291 $411 $412 forward $177 $-1 #
coedge $-1 $413 $179 $410 $414 forward $113 $-1 #
coedge $-1 $179 $413 $415 $416 forward $113 $-1 #
coedge $-1 $294 $293 $179 $287 reversed $295 $-1 #
edge $-1 $417 -25.256703859276527 $418 25.256703859276527 $286 $419 forward 7 unknown #
coedge $-1 $181 $180 $420 $421 forward $71 $-1 #
coedge $-1 $422 $423 $180 $290 reversed $407 $-1 #
edge $-1 $297 -57.678762169255648 $424 57.678762169255648 $289 $425 forward 7 unknown #
coedge $-1 $283 $426 $181 $292 reversed $177 $-1 #
edge $-1 $427 -57.678762169255648 $296 57.678762169255648 $291 $428 forward 7 unknown #
coedge $-1 $286 $182 $426 $429 forward $295 $-1 #
coedge $-1 $182 $286 $422 $430 reversed $295 $-1 #
loop $-1 $-1 $293 $406 #
vertex $-1 $183 $431 #
vertex $-1 $183 $432 #
straight-curve $-1 57.678762169255648 0 5.3131034181338883 0 1 0 I I #
face $-1 $433 $434 $43 $-1 $435 reversed single #
loop $-1 $-1 $436 $184 #
plane-surface $-1 -61.766623434598202 0 -3.8060512894934329 1 0 0 0 0 -1 forward_v I I I I #
coedge $-1 $437 $187 $438 $439 reversed $117 $-1 #
coedge $-1 $187 $437 $308 $440 reversed $117 $-1 #
edge $-1 $310 2.2989991608529774 $441 5.3131034181338883 $187 $442 forward 7 unknown #
coedge $-1 $189 $188 $443 $444 reversed $74 $-1 #
coedge $-1 $445 $446 $188 $307 forward $447 $-1 #
edge $-1 $448 -5.3131034181338883 $311 -2.2989991608529774 $306 $449 forward 7 unknown #
coedge $-1 $450 $190 $303 $440 forward $185 $-1 #
coedge $-1 $190 $450 $445 $451 forward $185 $-1 #
vertex $-1 $304 $452 #
vertex $-1 $451 $453 #
straight-curve $-1 -57.678762169255648 0 -2.2989991608529774 0 -1 0 I I #
face $-1 $-1 $454 $44 $-1 $455 reversed single #
loop $-1 $-1 $198 $192 #
plane-surface $-1 0 0 5.3131034181338883 0 0 1 1 0 0 forward_v I I I I #
coedge $-1 $456 $457 $458 $459 reversed $193 $-1 #
coedge $-1 $460 $195 $197 $323 forward $121 $-1 #
coedge $-1 $195 $460 $456 $461 forward $121 $-1 #
coedge $-1 $458 $198 $195 $320 forward $314 $-1 #
edge $-1 $326 4.4285701780899966 $462 11.970993325006532 $319 $463 forward 7 unknown #
coedge $-1 $464 $465 $196 $322 forward $454 $-1 #
edge $-1 $466 -80.38445265320307 $325 -76.548920195027691 $321 $467 forward 7 unknown #
edge $-1 $326 110.42211631021411 $466 115.3575243385113 $197 $468 forward 7 unknown #
coedge $-1 $198 $458 $464 $469 forward $314 $-1 #
vertex $-1 $322 $470 #
vertex $-1 $199 $471 #
straight-curve $-1 37.365778069410204 -12.628351929638262 5.3131034181338919 -1 0 0 I I #
coedge $-1 $328 $328 $-1 $472 reversed $202 $-1 #
edge $-1 $473 0 $473 6.2831853071796004 $203 $474 forward 7 unknown #
vertex $-1 $206 $475 #
ellipse-curve $-1 56.125785739294194 -18.015797034578647 3.395337189046193 0.77714596973225614 0 0.62932038083071107 0.31466019041535553 0 -0.38857298486612807 1 I I #
coedge $-1 $332 $332 $-1 $476 reversed $209 $-1 #
edge $-1 $477 0 $477 6.2831853071796004 $210 $478 forward 7 unknown #
vertex $-1 $213 $479 #
ellipse-curve $-1 56.125785739294194 -14.783329971614418 3.395337189046193 0.77714596973225614 0 0.62932038083071107 0.31466019041535553 0 -0.38857298486612807 1 I I #
face $-1 $-1 $348 $47 $-1 $480 forward single #
loop $-1 $-1 $481 $214 #
plane-surface $-1 57.678762169255648 0 0 -1 0 0 0 0 1 forward_v I I I I #
coedge $-1 $482 $483 $484 $485 reversed $215 $-1 #
coedge $-1 $486 $217 $219 $346 forward $135 $-1 #
coedge $-1 $217 $486 $482 $487 forward $135 $-1 #
coedge $-1 $484 $220 $217 $343 forward $348 $-1 #
edge $-1 $350 -1.8856057867291351 $488 5.6568173601874019 $342 $489 forward 7 unknown #
coedge $-1 $490 $491 $218 $345 forward $337 $-1 #
edge $-1 $492 -80.38445265320307 $349 -76.548920195027691 $344 $493 forward 7 unknown #
edge $-1 $350 110.42211631021411 $492 115.3575243385113 $219 $494 forward 7 unknown #
coedge $-1 $220 $484 $490 $495 forward $348 $-1 #
loop $-1 $-1 $484 $336 #
vertex $-1 $345 $496 #
vertex $-1 $221 $497 #
straight-curve $-1 37.365778069410204 1.7763568394002505e-015 5.3131034181338919 -1 0 0 I I #
coedge $-1 $352 $352 $-1 $498 reversed $224 $-1 #
edge $-1 $499 0 $499 6.2831853071796004 $225 $500 forward 7 unknown #
vertex $-1 $228 $501 #
ellipse-curve $-1 56.125785739294194 -5.3874451049403831 3.395337189046193 0.77714596973225614 0 0.62932038083071107 0.31466019041535553 0 -0.38857298486612807 1 I I #
coedge $-1 $356 $356 $-1 $502 reversed $231 $-1 #
edge $-1 $503 0 $503 6.2831853071796004 $232 $504 forward 7 unknown #
vertex $-1 $235 $505 #
ellipse-curve $-1 56.125785739294194 -2.1549780419761539 3.395337189046193 0.77714596973225614 0 0.62932038083071107 0.31466019041535553 0 -0.38857298486612807 1 I I #
face $-1 $-1 $372 $50 $-1 $506 forward single #
loop $-1 $-1 $507 $236 #
plane-surface $-1 57.678762169255648 0 0 -1 0 0 0 0 1 forward_v I I I I #
coedge $-1 $508 $509 $510 $511 reversed $237 $-1 #
coedge $-1 $512 $239 $241 $370 forward $149 $-1 #
coedge $-1 $239 $512 $508 $513 forward $149 $-1 #
coedge $-1 $510 $242 $239 $367 forward $372 $-1 #
edge $-1 $374 -8.1997817515482669 $514 -0.6573586046317299 $366 $515 forward 7 unknown #
coedge $-1 $516 $517 $240 $369 forward $361 $-1 #
edge $-1 $518 -80.38445265320307 $373 -76.548920195027691 $368 $519 forward 7 unknown #
edge $-1 $374 110.42211631021411 $518 115.3575243385113 $241 $520 forward 7 unknown #
coedge $-1 $242 $510 $516 $521 forward $372 $-1 #
loop $-1 $-1 $510 $360 #
vertex $-1 $369 $522 #
vertex $-1 $243 $523 #
straight-curve $-1 37.365778069410204 12.628351929638265 5.3131034181338919 -1 0 0 I I #
coedge $-1 $376 $376 $-1 $524 reversed $246 $-1 #
edge $-1 $525 0 $525 6.2831853071796004 $247 $526 forward 7 unknown #
vertex $-1 $250 $527 #
ellipse-curve $-1 56.125785739294194 7.2409068246978805 3.395337189046193 0.77714596973225614 0 0.62932038083071107 0.31466019041535553 0 -0.38857298486612807 1 I I #
coedge $-1 $380 $380 $-1 $528 reversed $253 $-1 #
edge $-1 $529 0 $529 6.2831853071796004 $254 $530 forward 7 unknown #
vertex $-1 $257 $531 #
ellipse-curve $-1 56.125785739294194 10.473373887662106 3.395337189046193 0.77714596973225614 0 0.62932038083071107 0.31466019041535553 0 -0.38857298486612807 1 I I #
face $-1 $-1 $532 $53 $-1 $533 reversed single #
loop $-1 $-1 $391 $258 #
plane-surface $-1 0 0 5.3131034181338883 0 0 1 1 0 0 forward_v I I I I #
coedge $-1 $534 $261 $263 $393 forward $163 $-1 #
coedge $-1 $261 $534 $535 $536 reversed $163 $-1 #
coedge $-1 $537 $264 $261 $390 forward $259 $-1 #
edge $-1 $396 6.9715345694508635 $538 14.513957716367397 $389 $539 forward 7 unknown #
coedge $-1 $540 $541 $262 $392 forward $385 $-1 #
edge $-1 $542 17.207031239922522 $395 20.312984099845444 $391 $543 forward 7 unknown #
edge $-1 $396 -115.3575243385113 $542 -110.42211631021411 $263 $544 forward 7 unknown #
coedge $-1 $264 $537 $540 $545 reversed $259 $-1 #
vertex $-1 $545 $546 #
vertex $-1 $265 $547 #
straight-curve $-1 57.678762169255648 17.714280712359994 81.862023613161583 0 0 -1 I I #
coedge $-1 $398 $398 $-1 $548 reversed $268 $-1 #
edge $-1 $549 0 $549 6.2831853071796004 $269 $550 forward 7 unknown #
vertex $-1 $272 $551 #
ellipse-curve $-1 56.125785739294194 19.869258754336144 3.395337189046193 0.77714596973225614 0 0.62932038083071107 0.31466019041535553 0 -0.38857298486612807 1 I I #
coedge $-1 $402 $402 $-1 $552 reversed $275 $-1 #
edge $-1 $553 0 $553 6.2831853071796004 $276 $554 forward 7 unknown #
vertex $-1 $279 $555 #
ellipse-curve $-1 56.125785739294194 23.10172581730037 3.395337189046193 0.77714596973225614 0 0.62932038083071107 0.31466019041535553 0 -0.38857298486612807 1 I I #
face $-1 $-1 $295 $42 $-1 $556 reversed single #
loop $-1 $-1 $422 $280 #
plane-surface $-1 0 25.256703859276527 0 0 -1 0 0 0 -1 forward_v I I I I #
coedge $-1 $557 $420 $423 $558 forward $281 $-1 #
coedge $-1 $426 $283 $284 $414 reversed $177 $-1 #
coedge $-1 $420 $557 $283 $412 reversed $281 $-1 #
edge $-1 $427 -5.3131034181338883 $559 5.3131034181338883 $411 $560 forward 7 unknown #
coedge $-1 $285 $284 $557 $561 forward $113 $-1 #
edge $-1 $418 -57.678762169255648 $559 57.678762169255648 $410 $562 forward 7 unknown #
coedge $-1 $423 $422 $285 $416 reversed $407 $-1 #
edge $-1 $563 -57.678762169255648 $417 57.678762169255648 $415 $564 forward 7 unknown #
vertex $-1 $287 $565 #
vertex $-1 $429 $566 #
straight-curve $-1 57.678762169255648 0 -5.3131034181338883 0 -1 0 I I #
coedge $-1 $409 $411 $288 $421 reversed $281 $-1 #
edge $-1 $424 -25.256703859276527 $427 25.256703859276527 $420 $567 forward 7 unknown #
coedge $-1 $415 $289 $294 $430 forward $407 $-1 #
coedge $-1 $289 $415 $409 $558 reversed $407 $-1 #
vertex $-1 $290 $568 #
straight-curve $-1 0 25.256703859276527 5.3131034181338883 -1 0 0 I I #
coedge $-1 $291 $410 $293 $429 reversed $177 $-1 #
vertex $-1 $421 $569 #
straight-curve $-1 0 -25.256703859276527 5.3131034181338883 1 0 0 I I #
edge $-1 $296 -5.3131034181338883 $418 5.3131034181338883 $293 $570 forward 7 unknown #
edge $-1 $297 -5.3131034181338883 $417 5.3131034181338883 $294 $571 forward 7 unknown #
point $-1 57.678762169255648 -25.256703859276527 5.3131034181338883 #
point $-1 57.678762169255648 25.256703859276527 5.3131034181338883 #
face $-1 $-1 $447 $43 $-1 $572 reversed single #
loop $-1 $-1 $443 $299 #
plane-surface $-1 0 0 -5.3131034181338883 0 0 1 1 0 0 forward_v I I I I #
coedge $-1 $573 $574 $437 $575 forward $300 $-1 #
coedge $-1 $303 $302 $436 $575 reversed $117 $-1 #
coedge $-1 $443 $576 $302 $439 forward $434 $-1 #
edge $-1 $577 -61.766623434598202 $441 -57.678762169255648 $302 $578 forward 7 unknown #
edge $-1 $310 -2.0439306326712767 $579 2.0439306326712767 $303 $580 forward 7 unknown #
vertex $-1 $304 $581 #
straight-curve $-1 -57.678762169255648 25.256703859276527 0 0 0 -1 I I #
coedge $-1 $582 $438 $305 $444 forward $434 $-1 #
edge $-1 $441 -25.256703859276527 $448 25.256703859276527 $443 $583 forward 7 unknown #
coedge $-1 $584 $306 $309 $451 reversed $447 $-1 #
coedge $-1 $306 $584 $582 $585 reversed $447 $-1 #
loop $-1 $-1 $306 $433 #
vertex $-1 $585 $586 #
straight-curve $-1 -57.678762169255648 -25.256703859276527 0 0 0 1 I I #
coedge $-1 $309 $308 $574 $587 forward $185 $-1 #
edge $-1 $588 -2.0439306326712767 $311 2.0439306326712767 $445 $589 forward 7 unknown #
point $-1 -57.678762169255648 25.256703859276527 -2.2989991608529774 #
point $-1 -57.678762169255648 -25.256703859276527 -2.2989991608529774 #
loop $-1 $-1 $321 $313 #
plane-surface $-1 57.678762169255648 0 0 -1 0 0 0 0 1 forward_v I I I I #
coedge $-1 $457 $316 $318 $461 reversed $193 $-1 #
coedge $-1 $316 $456 $590 $591 reversed $193 $-1 #
coedge $-1 $324 $319 $316 $459 forward $314 $-1 #
edge $-1 $462 17.207031239922522 $592 20.312984099845444 $458 $593 forward 7 unknown #
coedge $-1 $318 $317 $465 $594 reversed $121 $-1 #
edge $-1 $595 -115.3575243385113 $462 -110.42211631021411 $456 $596 forward 7 unknown #
vertex $-1 $320 $597 #
straight-curve $-1 54.572809309332726 -8.1997817515482652 5.313103418133899 0 -1 0 I I #
coedge $-1 $590 $321 $324 $469 reversed $454 $-1 #
coedge $-1 $321 $590 $460 $594 forward $454 $-1 #
vertex $-1 $322 $598 #
straight-curve $-1 57.678762169255648 -12.628351929638262 81.862023613161583 0 0 1 I I #
straight-curve $-1 -14.918078979144298 -12.628351929638262 91.127206077923219 0.62932038083071107 0 -0.77714596973225614 I I #
edge $-1 $592 -20.170775076554797 $325 -12.628351929638262 $464 $599 forward 7 unknown #
point $-1 57.678762169255648 -12.628351929638262 5.3131034181338883 #
point $-1 54.572809309332726 -12.628351929638262 5.3131034181338919 #
edge $-1 $600 1 $600 0 $328 $-1 forward 7 unknown #
vertex $-1 $329 $601 #
ellipse-curve $-1 54.578146512757613 -18.015797034578647 2.142083687946394 0.77714596973225614 0 0.62932038083071107 0.31466019041535553 0 -0.38857298486612807 1 I I #
point $-1 56.44044592970954 -18.015797034578647 3.0067642041800555 #
edge $-1 $602 1 $602 0 $332 $-1 forward 7 unknown #
vertex $-1 $333 $603 #
ellipse-curve $-1 54.578146512757613 -14.783329971614418 2.142083687946394 0.77714596973225614 0 0.62932038083071107 0.31466019041535553 0 -0.38857298486612807 1 I I #
point $-1 56.44044592970954 -14.783329971614418 3.0067642041800555 #
plane-surface $-1 0 0 5.3131034181338883 0 0 1 1 0 0 forward_v I I I I #
coedge $-1 $491 $490 $483 $604 forward $337 $-1 #
coedge $-1 $483 $339 $341 $487 reversed $215 $-1 #
coedge $-1 $339 $482 $481 $604 reversed $215 $-1 #
coedge $-1 $347 $342 $339 $485 forward $348 $-1 #
edge $-1 $488 17.207031239922522 $605 20.312984099845444 $484 $606 forward 7 unknown #
coedge $-1 $341 $340 $491 $607 reversed $135 $-1 #
edge $-1 $608 -115.3575243385113 $488 -110.42211631021411 $482 $609 forward 7 unknown #
vertex $-1 $343 $610 #
straight-curve $-1 54.572809309332726 -1.8856057867291334 5.313103418133899 0 -1 0 I I #
coedge $-1 $481 $344 $347 $495 reversed $337 $-1 #
coedge $-1 $344 $481 $486 $607 forward $337 $-1 #
vertex $-1 $345 $611 #
straight-curve $-1 57.678762169255648 1.7763568394002505e-015 81.862023613161583 0 0 1 I I #
straight-curve $-1 -14.918078979144298 1.7763568394002505e-015 91.127206077923219 0.62932038083071107 0 -0.77714596973225614 I I #
edge $-1 $605 -7.5424231469165353 $349 1.7763568394002505e-015 $490 $612 forward 7 unknown #
point $-1 57.678762169255648 1.7763568394002505e-015 5.3131034181338883 #
point $-1 54.572809309332726 1.7763568394002505e-015 5.3131034181338919 #
edge $-1 $613 1 $613 0 $352 $-1 forward 7 unknown #
vertex $-1 $353 $614 #
ellipse-curve $-1 54.578146512757613 -5.3874451049403831 2.142083687946394 0.77714596973225614 0 0.62932038083071107 0.31466019041535553 0 -0.38857298486612807 1 I I #
point $-1 56.44044592970954 -5.3874451049403831 3.0067642041800555 #
edge $-1 $615 1 $615 0 $356 $-1 forward 7 unknown #
vertex $-1 $357 $616 #
ellipse-curve $-1 54.578146512757613 -2.1549780419761539 2.142083687946394 0.77714596973225614 0 0.62932038083071107 0.31466019041535553 0 -0.38857298486612807 1 I I #
point $-1 56.44044592970954 -2.1549780419761539 3.0067642041800555 #
plane-surface $-1 0 0 5.3131034181338883 0 0 1 1 0 0 forward_v I I I I #
coedge $-1 $517 $516 $509 $617 forward $361 $-1 #
coedge $-1 $509 $363 $365 $513 reversed $237 $-1 #
coedge $-1 $363 $508 $507 $617 reversed $237 $-1 #
coedge $-1 $371 $366 $363 $511 forward $372 $-1 #
edge $-1 $514 17.207031239922522 $618 20.312984099845444 $510 $619 forward 7 unknown #
coedge $-1 $365 $364 $517 $620 reversed $149 $-1 #
edge $-1 $621 -115.3575243385113 $514 -110.42211631021411 $508 $622 forward 7 unknown #
vertex $-1 $367 $623 #
straight-curve $-1 54.572809309332726 4.4285701780899984 5.313103418133899 0 -1 0 I I #
coedge $-1 $507 $368 $371 $521 reversed $361 $-1 #
coedge $-1 $368 $507 $512 $620 forward $361 $-1 #
vertex $-1 $369 $624 #
straight-curve $-1 57.678762169255648 12.628351929638265 81.862023613161583 0 0 1 I I #
straight-curve $-1 -14.918078979144298 12.628351929638265 91.127206077923219 0.62932038083071107 0 -0.77714596973225614 I I #
edge $-1 $618 5.0859287827217283 $373 12.628351929638265 $516 $625 forward 7 unknown #
point $-1 57.678762169255648 12.628351929638265 5.3131034181338883 #
point $-1 54.572809309332726 12.628351929638265 5.3131034181338919 #
edge $-1 $626 1 $626 0 $376 $-1 forward 7 unknown #
vertex $-1 $377 $627 #
ellipse-curve $-1 54.578146512757613 7.2409068246978805 2.142083687946394 0.77714596973225614 0 0.62932038083071107 0.31466019041535553 0 -0.38857298486612807 1 I I #
point $-1 56.44044592970954 7.2409068246978805 3.0067642041800555 #
edge $-1 $628 1 $628 0 $380 $-1 forward 7 unknown #
vertex $-1 $381 $629 #
ellipse-curve $-1 54.578146512757613 10.473373887662106 2.142083687946394 0.77714596973225614 0 0.62932038083071107 0.31466019041535553 0 -0.38857298486612807 1 I I #
point $-1 56.44044592970954 10.473373887662106 3.0067642041800555 #
loop $-1 $-1 $535 $384 #
plane-surface $-1 0 25.256703859276527 0 0 -1 0 0 0 -1 forward_v I I I I #
coedge $-1 $388 $387 $541 $630 reversed $163 $-1 #
coedge $-1 $631 $632 $388 $536 forward $532 $-1 #
edge $-1 $538 -75.253828298093026 $633 -70.318420269795865 $535 $634 forward 7 unknown #
coedge $-1 $394 $389 $632 $635 reversed $259 $-1 #
vertex $-1 $390 $636 #
straight-curve $-1 57.678762169255641 10.74274614290913 1.4775709599585269 0 1 0 I I #
coedge $-1 $637 $391 $394 $545 forward $385 $-1 #
coedge $-1 $391 $637 $534 $630 forward $385 $-1 #
vertex $-1 $392 $638 #
straight-curve $-1 37.365778069410204 17.714280712359994 5.3131034181338919 1 0 0 I I #
straight-curve $-1 -14.918078979144298 17.714280712359994 91.127206077923219 -0.62932038083071107 0 0.77714596973225614 I I #
edge $-1 $395 17.714280712359994 $639 25.256703859276527 $394 $640 forward 7 unknown #
point $-1 57.678762169255648 17.714280712359994 5.3131034181338883 #
point $-1 57.678762169255648 17.714280712359994 1.4775709599585127 #
edge $-1 $641 1 $641 0 $398 $-1 forward 7 unknown #
vertex $-1 $399 $642 #
ellipse-curve $-1 54.578146512757613 19.869258754336144 2.142083687946394 0.77714596973225614 0 0.62932038083071107 0.31466019041535553 0 -0.38857298486612807 1 I I #
point $-1 56.44044592970954 19.869258754336144 3.0067642041800555 #
edge $-1 $643 1 $643 0 $402 $-1 forward 7 unknown #
vertex $-1 $403 $644 #
ellipse-curve $-1 54.578146512757613 23.10172581730037 2.142083687946394 0.77714596973225614 0 0.62932038083071107 0.31466019041535553 0 -0.38857298486612807 1 I I #
point $-1 56.44044592970954 23.10172581730037 3.0067642041800555 #
plane-surface $-1 57.678762169255648 0 0 -1 0 0 0 0 1 forward_v I I I I #
coedge $-1 $411 $409 $413 $561 reversed $281 $-1 #
edge $-1 $424 -5.3131034181338883 $563 5.3131034181338883 $423 $645 forward 7 unknown #
vertex $-1 $561 $646 #
straight-curve $-1 -57.678762169255648 -25.256703859276527 0 0 0 -1 I I #
edge $-1 $559 -25.256703859276527 $563 25.256703859276527 $557 $647 forward 7 unknown #
straight-curve $-1 0 -25.256703859276527 -5.3131034181338883 -1 0 0 I I #
vertex $-1 $416 $648 #
straight-curve $-1 0 25.256703859276527 -5.3131034181338883 1 0 0 I I #
point $-1 57.678762169255648 25.256703859276527 -5.3131034181338883 #
point $-1 57.678762169255648 -25.256703859276527 -5.3131034181338883 #
straight-curve $-1 -57.678762169255648 0 5.3131034181338883 0 -1 0 I I #
point $-1 -57.678762169255648 25.256703859276527 5.3131034181338883 #
point $-1 -57.678762169255648 -25.256703859276527 5.3131034181338883 #
straight-curve $-1 57.678762169255648 -25.256703859276527 0 0 0 -1 I I #
straight-curve $-1 57.678762169255648 25.256703859276527 0 0 0 -1 I I #
plane-surface $-1 0 -25.256703859276527 0 0 1 0 0 0 1 forward_v I I I I #
coedge $-1 $649 $436 $576 $650 reversed $300 $-1 #
coedge $-1 $436 $649 $450 $587 reversed $300 $-1 #
edge $-1 $579 -1.5070521286404555 $577 1.5070521286404555 $437 $651 forward 7 unknown #
coedge $-1 $438 $582 $573 $650 forward $434 $-1 #
vertex $-1 $439 $652 #
straight-curve $-1 0 25.256703859276527 -5.3131034181338883 1 0 0 I I #
vertex $-1 $440 $653 #
straight-curve $-1 -59.722692801926925 25.256703859276527 -2.2989991608529774 -1 0 0 I I #
point $-1 -57.678762169255648 25.256703859276527 -5.3131034181338883 #
coedge $-1 $576 $443 $446 $585 forward $434 $-1 #
straight-curve $-1 -57.678762169255648 0 -5.3131034181338883 0 -1 0 I I #
coedge $-1 $446 $445 $649 $654 forward $447 $-1 #
edge $-1 $448 -2.0439306326712767 $655 2.0439306326712767 $446 $656 forward 7 unknown #
point $-1 -57.678762169255648 -25.256703859276527 -5.3131034181338883 #
edge $-1 $579 -25.256703859276527 $588 25.256703859276527 $574 $657 forward 7 unknown #
vertex $-1 $587 $658 #
straight-curve $-1 -59.722692801926925 -25.256703859276527 -2.2989991608529774 1 0 0 I I #
coedge $-1 $465 $464 $457 $591 forward $454 $-1 #
edge $-1 $592 76.548920195027691 $595 80.38445265320307 $590 $659 forward 7 unknown #
vertex $-1 $469 $660 #
straight-curve $-1 37.365778069410204 -20.170775076554797 5.3131034181338919 1 0 0 I I #
edge $-1 $595 -11.970993325006532 $466 -4.4285701780899966 $465 $661 forward 7 unknown #
vertex $-1 $594 $662 #
straight-curve $-1 -14.918078979144298 -20.170775076554797 91.127206077923219 -0.62932038083071107 0 0.77714596973225614 I I #
point $-1 54.572809309332726 -20.170775076554797 5.3131034181338919 #
point $-1 57.678762169255648 -12.628351929638262 1.4775709599585127 #
straight-curve $-1 57.678762169255648 0 5.3131034181338883 0 1 0 I I #
vertex $-1 $472 $663 #
point $-1 54.892806703172965 -18.015797034578647 1.7535107030802659 #
vertex $-1 $476 $664 #
point $-1 54.892806703172965 -14.783329971614418 1.7535107030802659 #
edge $-1 $605 76.548920195027691 $608 80.38445265320307 $481 $665 forward 7 unknown #
vertex $-1 $495 $666 #
straight-curve $-1 37.365778069410204 -7.5424231469165353 5.3131034181338919 1 0 0 I I #
edge $-1 $608 -5.6568173601874019 $492 1.8856057867291351 $491 $667 forward 7 unknown #
vertex $-1 $607 $668 #
straight-curve $-1 -14.918078979144298 -7.5424231469165353 91.127206077923219 -0.62932038083071107 0 0.77714596973225614 I I #
point $-1 54.572809309332726 -7.5424231469165353 5.3131034181338919 #
point $-1 57.678762169255648 1.7763568394002505e-015 1.4775709599585127 #
straight-curve $-1 57.678762169255648 0 5.3131034181338883 0 1 0 I I #
vertex $-1 $498 $669 #
point $-1 54.892806703172965 -5.3874451049403831 1.7535107030802659 #
vertex $-1 $502 $670 #
point $-1 54.892806703172965 -2.1549780419761539 1.7535107030802659 #
edge $-1 $618 76.548920195027691 $621 80.38445265320307 $507 $671 forward 7 unknown #
vertex $-1 $521 $672 #
straight-curve $-1 37.365778069410204 5.0859287827217283 5.3131034181338919 1 0 0 I I #
edge $-1 $621 0.6573586046317299 $518 8.1997817515482669 $517 $673 forward 7 unknown #
vertex $-1 $620 $674 #
straight-curve $-1 -14.918078979144298 5.0859287827217283 91.127206077923219 -0.62932038083071107 0 0.77714596973225614 I I #
point $-1 54.572809309332726 5.0859287827217283 5.3131034181338919 #
point $-1 57.678762169255648 12.628351929638265 1.4775709599585127 #
straight-curve $-1 57.678762169255648 0 5.3131034181338883 0 1 0 I I #
vertex $-1 $524 $675 #
point $-1 54.892806703172965 7.2409068246978805 1.7535107030802659 #
vertex $-1 $528 $676 #
point $-1 54.892806703172965 10.473373887662106 1.7535107030802659 #
edge $-1 $633 -14.513957716367397 $542 -6.9715345694508635 $541 $677 forward 7 unknown #
coedge $-1 $632 $535 $637 $678 reversed $532 $-1 #
coedge $-1 $535 $631 $537 $635 forward $532 $-1 #
vertex $-1 $536 $679 #
straight-curve $-1 10.319994285730797 25.256703859276527 59.960780328744733 -0.62932038083071107 0 0.77714596973225614 I I #
edge $-1 $639 -5.3131034181338883 $538 -1.4775709599585183 $537 $680 forward 7 unknown #
point $-1 57.678762169255648 25.256703859276527 1.4775709599585183 #
coedge $-1 $541 $540 $631 $678 forward $385 $-1 #
point $-1 54.572809309332726 17.714280712359994 5.3131034181338919 #
vertex $-1 $545 $681 #
straight-curve $-1 57.678762169255648 0 5.3131034181338883 0 1 0 I I #
vertex $-1 $548 $682 #
point $-1 54.892806703172965 19.869258754336144 1.7535107030802659 #
vertex $-1 $552 $683 #
point $-1 54.892806703172965 23.10172581730037 1.7535107030802659 #
straight-curve $-1 -57.678762169255648 25.256703859276527 0 0 0 -1 I I #
point $-1 -57.678762169255648 -25.256703859276527 -5.3131034181338883 #
straight-curve $-1 -57.678762169255648 0 -5.3131034181338883 0 1 0 I I #
point $-1 -57.678762169255648 25.256703859276527 -5.3131034181338883 #
coedge $-1 $574 $573 $584 $654 reversed $300 $-1 #
edge $-1 $655 -25.256703859276527 $577 25.256703859276527 $573 $684 forward 7 unknown #
straight-curve $-1 -61.766623434598202 25.256703859276527 -3.8060512894934329 0 0 -1 I I #
point $-1 -61.766623434598202 25.256703859276527 -5.3131034181338883 #
point $-1 -61.766623434598202 25.256703859276527 -2.2989991608529774 #
edge $-1 $588 -1.5070521286404555 $655 1.5070521286404555 $649 $685 forward 7 unknown #
vertex $-1 $650 $686 #
straight-curve $-1 -59.722692801926925 -25.256703859276527 -5.3131034181338883 -1 0 0 I I #
straight-curve $-1 -61.766623434598202 0 -2.2989991608529774 0 -1 0 I I #
point $-1 -61.766623434598202 -25.256703859276527 -2.2989991608529774 #
straight-curve $-1 57.678762169255648 -20.170775076554797 81.862023613161583 0 0 -1 I I #
point $-1 57.678762169255648 -20.170775076554797 5.3131034181338883 #
straight-curve $-1 57.678762169255641 -8.1997817515482652 1.4775709599585269 0 1 0 I I #
point $-1 57.678762169255648 -20.170775076554797 1.4775709599585127 #
point $-1 54.189573527891483 -18.015797034578647 1.8274234975310386 #
point $-1 54.189573527891483 -14.783329971614418 1.8274234975310386 #
straight-curve $-1 57.678762169255648 -7.5424231469165353 81.862023613161583 0 0 -1 I I #
point $-1 57.678762169255648 -7.5424231469165353 5.3131034181338883 #
straight-curve $-1 57.678762169255641 -1.8856057867291334 1.4775709599585269 0 1 0 I I #
point $-1 57.678762169255648 -7.5424231469165353 1.4775709599585127 #
point $-1 54.189573527891483 -5.3874451049403831 1.8274234975310386 #
point $-1 54.189573527891483 -2.1549780419761539 1.8274234975310386 #
straight-curve $-1 57.678762169255648 5.0859287827217283 81.862023613161583 0 0 -1 I I #
point $-1 57.678762169255648 5.0859287827217283 5.3131034181338883 #
straight-curve $-1 57.678762169255641 4.4285701780899984 1.4775709599585269 0 1 0 I I #
point $-1 57.678762169255648 5.0859287827217283 1.4775709599585127 #
point $-1 54.189573527891483 7.2409068246978805 1.8274234975310386 #
point $-1 54.189573527891483 10.473373887662106 1.8274234975310386 #
straight-curve $-1 54.572809309332726 10.74274614290913 5.313103418133899 0 -1 0 I I #
edge $-1 $639 -57.678762169255648 $633 -54.572809309332726 $631 $687 forward 7 unknown #
point $-1 54.572809309332726 25.256703859276527 5.3131034181338919 #
straight-curve $-1 57.678762169255648 25.256703859276527 0 0 0 -1 I I #
point $-1 57.678762169255648 25.256703859276527 5.3131034181338883 #
point $-1 54.189573527891483 19.869258754336144 1.8274234975310386 #
point $-1 54.189573527891483 23.10172581730037 1.8274234975310386 #
straight-curve $-1 -61.766623434598202 0 -5.3131034181338883 0 1 0 I I #
straight-curve $-1 -61.766623434598202 -25.256703859276527 -3.8060512894934329 0 0 -1 I I #
point $-1 -61.766623434598202 -25.256703859276527 -5.3131034181338883 #
straight-curve $-1 0 25.256703859276527 5.3131034181338883 -1 0 0 I I #
End-of-ACIS-data 