500 0 7 0           
7 Unknown 11 ACIS 5.0 NT 24 Fri Mar 26 02:54:54 1999 
-1 9.9999999999999995e-007 1e-010 
body $-1 $7 $-1 $8 #
body $-1 $9 $-1 $10 #
body $-1 $11 $-1 $12 #
body $-1 $13 $-1 $14 #
body $-1 $15 $-1 $16 #
body $-1 $17 $-1 $18 #
body $-1 $19 $-1 $20 #
lump $-1 $-1 $21 $0 #
transform $-1 1 0 0 0 1 0 0 0 1 51.509140293588061 26.112353292361849 8.4057280584888314 1 rotate no_reflect no_shear #
lump $-1 $-1 $22 $1 #
transform $-1 1 0 0 0 1 0 0 0 1 51.509140293588061 26.112353292361849 8.4057280584888314 1 rotate no_reflect no_shear #
lump $-1 $-1 $23 $2 #
transform $-1 1 0 0 0 1 0 0 0 1 51.509140293588061 26.112353292361849 8.4057280584888314 1 rotate no_reflect no_shear #
lump $-1 $-1 $24 $3 #
transform $-1 1 0 0 0 1 0 0 0 1 51.509140293588061 26.112353292361849 8.4057280584888314 1 rotate no_reflect no_shear #
lump $-1 $-1 $25 $4 #
transform $-1 1 0 0 0 1 0 0 0 1 51.509140293588061 26.112353292361849 8.4057280584888314 1 rotate no_reflect no_shear #
lump $-1 $-1 $26 $5 #
transform $-1 1 0 0 0 1 0 0 0 1 51.509140293588061 26.112353292361849 8.4057280584888314 1 rotate no_reflect no_shear #
lump $-1 $-1 $27 $6 #
transform $-1 1 0 0 0 1 0 0 0 1 51.509140293588061 26.112353292361849 8.4057280584888314 1 rotate no_reflect no_shear #
shell $-1 $-1 $-1 $28 $-1 $7 #
shell $-1 $-1 $-1 $29 $-1 $9 #
shell $-1 $-1 $-1 $30 $-1 $11 #
shell $-1 $-1 $-1 $31 $-1 $13 #
shell $-1 $-1 $-1 $32 $-1 $15 #
shell $-1 $-1 $-1 $33 $-1 $17 #
shell $-1 $-1 $-1 $34 $-1 $19 #
face $-1 $35 $36 $21 $-1 $37 forward single #
face $-1 $38 $39 $22 $-1 $40 reversed single #
face $-1 $41 $42 $23 $-1 $43 reversed single #
face $-1 $44 $45 $24 $-1 $46 forward single #
face $-1 $47 $48 $25 $-1 $49 forward single #
face $-1 $50 $51 $26 $-1 $52 reversed single #
face $-1 $53 $54 $27 $-1 $55 forward single #
face $-1 $56 $57 $21 $-1 $58 reversed single #
loop $-1 $-1 $59 $28 #
plane-surface $-1 0 0 8.4057280584888314 0 0 1 1 0 0 forward_v I I I I #
face $-1 $60 $61 $22 $-1 $62 reversed single #
loop $-1 $-1 $63 $29 #
plane-surface $-1 -48.680478251768726 0 4.2554270859534338 0 0 1 1 0 0 forward_v I I I I #
face $-1 $64 $65 $23 $-1 $66 reversed single #
loop $-1 $-1 $67 $30 #
plane-surface $-1 -27.494945461281198 52.324782512373858 116.31701937118176 1 0 0 0 -0.64278761758704617 -0.76604443648966558 forward_v I I I I #
face $-1 $68 $69 $24 $-1 $70 forward single #
loop $-1 $71 $72 $31 #
cone-surface $-1 -23.765100866778088 22.509960484668632 5.0738798425208387 0 -0.64278761758704617 -0.76604443648966558 1 0 0 1 I I 0 1 1 forward I I I I #
face $-1 $73 $74 $25 $-1 $75 forward single #
loop $-1 $76 $77 $32 #
cone-surface $-1 -18.170333975023425 22.509960484668632 5.0738798425208387 0 -0.64278761758704617 -0.76604443648966558 1 0 0 1 I I 0 1 1 forward I I I I #
face $-1 $78 $79 $26 $-1 $80 reversed single #
loop $-1 $-1 $81 $33 #
plane-surface $-1 44.962598729928928 -26.112353292361846 3.193911411247413 0 -0.73135370988377701 0.68199835119979291 1 0 0 forward_v I I I I #
face $-1 $82 $83 $27 $-1 $84 forward single #
loop $-1 $85 $86 $34 #
cone-surface $-1 44.962598729928928 -22.347489704734336 4.5550848065819656 0 0.73135370988377701 -0.68199835119979291 1 0 0 1 I I 0 1 1 forward I I I I #
face $-1 $87 $88 $21 $-1 $89 reversed single #
loop $-1 $-1 $90 $35 #
plane-surface $-1 0 0 -8.4057280584888314 0 0 1 1 0 0 forward_v I I I I #
coedge $-1 $91 $92 $93 $94 forward $36 $-1 #
face $-1 $95 $96 $22 $-1 $97 reversed single #
loop $-1 $-1 $98 $38 #
plane-surface $-1 -45.851816209949391 0 6.3305775722211326 -1 0 0 0 0 1 forward_v I I I I #
coedge $-1 $99 $100 $101 $102 forward $39 $-1 #
face $-1 $103 $104 $23 $-1 $105 reversed single #
loop $-1 $-1 $106 $41 #
plane-surface $-1 -20.967717420900758 -13.894092634170931 37.400438670644164 0 0.64278761758704617 0.76604443648966558 1 0 0 forward_v I I I I #
coedge $-1 $107 $108 $109 $110 reversed $42 $-1 #
face $-1 $-1 $111 $24 $-1 $112 forward single #
loop $-1 $113 $114 $44 #
cone-surface $-1 -23.765100866778088 21.312121924187313 3.6463514646188724 0 -0.64278761758704617 -0.76604443648966558 0.5 0 0 1 I I -0.70710678118654746 0.70710678118654746 0.5 forward I I I I #
loop $-1 $-1 $115 $31 #
coedge $-1 $72 $72 $116 $117 reversed $45 $-1 #
face $-1 $-1 $118 $25 $-1 $119 forward single #
loop $-1 $120 $121 $47 #
cone-surface $-1 -18.170333975023425 21.312121924187313 3.6463514646188724 0 -0.64278761758704617 -0.76604443648966558 0.5 0 0 1 I I -0.70710678118654746 0.70710678118654746 0.5 forward I I I I #
loop $-1 $-1 $122 $32 #
coedge $-1 $77 $77 $123 $124 reversed $48 $-1 #
face $-1 $125 $126 $26 $-1 $127 reversed single #
loop $-1 $-1 $128 $50 #
plane-surface $-1 38.416057166269795 -101.45515498564099 73.452208915139167 1 0 0 0 0.73135370988377701 -0.68199835119979291 forward_v I I I I #
coedge $-1 $129 $130 $131 $132 reversed $51 $-1 #
face $-1 $-1 $133 $27 $-1 $134 forward single #
loop $-1 $135 $136 $53 #
cone-surface $-1 44.962598729928928 -20.646998027993398 2.9693507026959143 0 0.73135370988377701 -0.68199835119979291 0.5 0 0 1 I I -0.70710678118654746 0.70710678118654746 0.5 forward I I I I #
loop $-1 $-1 $137 $34 #
coedge $-1 $86 $86 $138 $139 reversed $54 $-1 #
face $-1 $140 $141 $21 $-1 $142 reversed single #
loop $-1 $-1 $143 $56 #
plane-surface $-1 0 -26.112353292361849 0 0 1 0 0 0 1 forward_v I I I I #
coedge $-1 $144 $145 $146 $147 forward $57 $-1 #
coedge $-1 $148 $59 $149 $150 forward $36 $-1 #
coedge $-1 $59 $148 $151 $152 forward $36 $-1 #
coedge $-1 $153 $154 $59 $94 reversed $155 $-1 #
edge $-1 $156 -26.112353292361849 $157 26.112353292361849 $93 $158 forward 7 unknown #
face $-1 $159 $160 $22 $-1 $161 reversed single #
loop $-1 $-1 $162 $60 #
plane-surface $-1 0 26.112353292361849 0 0 -1 0 0 0 -1 forward_v I I I I #
coedge $-1 $101 $163 $164 $165 reversed $61 $-1 #
coedge $-1 $166 $63 $167 $168 reversed $39 $-1 #
coedge $-1 $63 $166 $169 $170 reversed $39 $-1 #
coedge $-1 $171 $98 $63 $102 reversed $61 $-1 #
edge $-1 $172 -26.112353292361849 $173 26.112353292361849 $101 $174 forward 7 unknown #
face $-1 $175 $176 $23 $-1 $177 forward single #
loop $-1 $-1 $178 $64 #
plane-surface $-1 -14.440489380520319 52.324782512373858 116.31701937118176 -1 0 0 0 0.64278761758704617 0.76604443648966558 forward_v I I I I #
coedge $-1 $179 $180 $181 $182 reversed $65 $-1 #
coedge $-1 $108 $67 $183 $184 reversed $42 $-1 #
coedge $-1 $67 $107 $179 $185 reversed $42 $-1 #
coedge $-1 $181 $186 $67 $110 forward $176 $-1 #
edge $-1 $187 0.050037963825079856 $188 5.5019340758359334 $109 $189 forward 7 unknown #
loop $-1 $-1 $116 $68 #
plane-surface $-1 -20.967717420900758 -13.894092634170931 37.400438670644164 0 0.64278761758704617 0.76604443648966558 1 0 0 forward_v I I I I #
loop $-1 $-1 $190 $44 #
coedge $-1 $114 $114 $115 $191 reversed $69 $-1 #
coedge $-1 $115 $115 $114 $191 forward $71 $-1 #
coedge $-1 $116 $116 $72 $117 forward $111 $-1 #
edge $-1 $192 2.5885226442153572e-015 $192 6.2831853071796031 $116 $193 forward 7 unknown #
loop $-1 $-1 $123 $73 #
plane-surface $-1 -20.967717420900758 -13.894092634170931 37.400438670644164 0 0.64278761758704617 0.76604443648966558 1 0 0 forward_v I I I I #
loop $-1 $-1 $194 $47 #
coedge $-1 $121 $121 $122 $195 reversed $74 $-1 #
coedge $-1 $122 $122 $121 $195 forward $76 $-1 #
coedge $-1 $123 $123 $77 $124 forward $118 $-1 #
edge $-1 $196 2.5885226442153572e-015 $196 6.2831853071796031 $123 $197 forward 7 unknown #
face $-1 $198 $199 $26 $-1 $200 forward single #
loop $-1 $-1 $201 $78 #
plane-surface $-1 51.509140293588061 0 0 -1 0 0 0 0 1 forward_v I I I I #
coedge $-1 $202 $203 $204 $205 reversed $79 $-1 #
coedge $-1 $206 $81 $201 $207 reversed $51 $-1 #
coedge $-1 $81 $206 $202 $208 forward $51 $-1 #
coedge $-1 $204 $209 $81 $132 forward $199 $-1 #
edge $-1 $210 -29.027840928623597 $211 -15.934757801305331 $131 $212 forward 7 unknown #
loop $-1 $-1 $138 $82 #
plane-surface $-1 44.962598729928928 -26.112353292361846 3.193911411247413 0 -0.73135370988377701 0.68199835119979291 1 0 0 forward_v I I I I #
loop $-1 $-1 $213 $53 #
coedge $-1 $136 $136 $137 $214 reversed $83 $-1 #
coedge $-1 $137 $137 $136 $214 forward $85 $-1 #
coedge $-1 $138 $138 $86 $139 forward $133 $-1 #
edge $-1 $215 1.7733722889404954e-015 $215 6.2831853071796022 $138 $216 forward 7 unknown #
face $-1 $217 $218 $21 $-1 $219 reversed single #
loop $-1 $-1 $220 $87 #
plane-surface $-1 -51.509140293588061 0 0 1 0 0 0 0 -1 forward_v I I I I #
coedge $-1 $221 $151 $222 $223 forward $88 $-1 #
coedge $-1 $224 $90 $221 $225 forward $57 $-1 #
coedge $-1 $90 $224 $226 $227 forward $57 $-1 #
coedge $-1 $154 $153 $90 $147 reversed $155 $-1 #
edge $-1 $228 -26.112353292361849 $229 26.112353292361849 $146 $230 forward 7 unknown #
coedge $-1 $92 $91 $231 $232 forward $36 $-1 #
coedge $-1 $233 $234 $91 $150 reversed $218 $-1 #
edge $-1 $157 -51.509140293588061 $235 51.509140293588061 $149 $236 forward 7 unknown #
coedge $-1 $143 $237 $92 $152 reversed $88 $-1 #
edge $-1 $238 -51.509140293588061 $156 51.509140293588061 $151 $239 forward 7 unknown #
coedge $-1 $146 $93 $237 $240 forward $155 $-1 #
coedge $-1 $93 $146 $233 $241 reversed $155 $-1 #
loop $-1 $-1 $153 $217 #
vertex $-1 $94 $242 #
vertex $-1 $94 $243 #
straight-curve $-1 51.509140293588061 0 8.4057280584888314 0 1 0 I I #
face $-1 $244 $245 $22 $-1 $246 forward single #
loop $-1 $-1 $247 $95 #
plane-surface $-1 -51.509140293588061 0 0 1 0 0 0 0 -1 forward_v I I I I #
coedge $-1 $169 $248 $171 $249 forward $96 $-1 #
coedge $-1 $98 $171 $250 $251 reversed $61 $-1 #
coedge $-1 $252 $167 $98 $165 forward $253 $-1 #
edge $-1 $173 1.0901382998428675 $254 5.2404392723782651 $164 $255 forward 7 unknown #
coedge $-1 $100 $99 $247 $256 reversed $39 $-1 #
coedge $-1 $164 $257 $99 $168 forward $253 $-1 #
edge $-1 $258 -27.168901167703698 $173 -21.511577084065028 $167 $259 forward 7 unknown #
coedge $-1 $260 $162 $100 $170 forward $96 $-1 #
edge $-1 $172 21.511577084065028 $261 27.168901167703698 $169 $262 forward 7 unknown #
coedge $-1 $163 $101 $162 $249 reversed $61 $-1 #
vertex $-1 $170 $263 #
vertex $-1 $168 $264 #
straight-curve $-1 -45.851816209949391 0 4.2554270859534338 0 -1 0 I I #
face $-1 $-1 $265 $23 $-1 $266 reversed single #
loop $-1 $-1 $109 $103 #
plane-surface $-1 0 0 8.4057280584888314 0 0 1 1 0 0 forward_v I I I I #
coedge $-1 $267 $268 $269 $270 reversed $104 $-1 #
coedge $-1 $271 $106 $108 $185 forward $65 $-1 #
coedge $-1 $106 $271 $267 $272 forward $65 $-1 #
coedge $-1 $269 $109 $106 $182 forward $176 $-1 #
edge $-1 $188 -17.01108675083082 $273 -3.9566306700699396 $181 $274 forward 7 unknown #
coedge $-1 $275 $276 $107 $184 forward $265 $-1 #
edge $-1 $277 -54.32746573972377 $187 -49.752781627102046 $183 $278 forward 7 unknown #
edge $-1 $188 45.107761597832692 $277 52.224706584723677 $108 $279 forward 7 unknown #
coedge $-1 $109 $269 $275 $280 forward $176 $-1 #
vertex $-1 $184 $281 #
vertex $-1 $110 $282 #
straight-curve $-1 -27.494945461281198 26.162391256186929 8.4057280584888332 0 -1 0 I I #
coedge $-1 $190 $190 $-1 $283 reversed $113 $-1 #
edge $-1 $284 0 $284 6.2831853071796004 $114 $285 forward 7 unknown #
vertex $-1 $117 $286 #
ellipse-curve $-1 -23.765100866778088 23.386405236356424 6.1183860021779664 0 0.64278761758704617 0.76604443648966558 1 0 0 1 I I #
coedge $-1 $194 $194 $-1 $287 reversed $120 $-1 #
edge $-1 $288 0 $288 6.2831853071796004 $121 $289 forward 7 unknown #
vertex $-1 $124 $290 #
ellipse-curve $-1 -18.170333975023425 23.386405236356424 6.1183860021779664 0 0.64278761758704617 0.76604443648966558 1 0 0 1 I I #
face $-1 $-1 $291 $26 $-1 $292 reversed single #
loop $-1 $-1 $131 $125 #
plane-surface $-1 0 0 8.4057280584888314 0 0 1 1 0 0 forward_v I I I I #
coedge $-1 $293 $294 $129 $207 forward $126 $-1 #
coedge $-1 $203 $128 $130 $208 reversed $79 $-1 #
coedge $-1 $128 $202 $295 $296 reversed $79 $-1 #
coedge $-1 $297 $131 $128 $205 forward $199 $-1 #
edge $-1 $211 -29.475321732115574 $298 -24.615224200458645 $204 $299 forward 7 unknown #
coedge $-1 $130 $129 $300 $301 reversed $51 $-1 #
edge $-1 $302 -7.7363514658406736 $210 -0.61009152238642217 $201 $303 forward 7 unknown #
edge $-1 $304 -5.3460214915156785e-015 $211 7.1262599434542473 $202 $305 forward 7 unknown #
coedge $-1 $131 $297 $293 $306 forward $199 $-1 #
vertex $-1 $132 $307 #
vertex $-1 $132 $308 #
straight-curve $-1 22.481299364964464 -21.252255760704919 8.4057280584888314 -1 0 0 I I #
coedge $-1 $213 $213 $-1 $309 reversed $135 $-1 #
edge $-1 $310 0 $310 6.2831853071796004 $136 $311 forward 7 unknown #
vertex $-1 $139 $312 #
ellipse-curve $-1 44.962598729928928 -23.682304526533386 5.7998197348681204 0 -0.73135370988377701 0.68199835119979291 1 0 0 1 I I #
face $-1 $-1 $155 $21 $-1 $313 reversed single #
loop $-1 $-1 $233 $140 #
plane-surface $-1 0 26.112353292361849 0 0 -1 0 0 0 -1 forward_v I I I I #
coedge $-1 $314 $231 $234 $315 forward $141 $-1 #
coedge $-1 $237 $143 $144 $225 reversed $88 $-1 #
coedge $-1 $231 $314 $143 $223 reversed $141 $-1 #
edge $-1 $238 -8.4057280584888314 $316 8.4057280584888314 $222 $317 forward 7 unknown #
coedge $-1 $145 $144 $314 $318 forward $57 $-1 #
edge $-1 $229 -51.509140293588061 $316 51.509140293588061 $221 $319 forward 7 unknown #
coedge $-1 $234 $233 $145 $227 reversed $218 $-1 #
edge $-1 $320 -51.509140293588061 $228 51.509140293588061 $226 $321 forward 7 unknown #
vertex $-1 $147 $322 #
vertex $-1 $240 $323 #
straight-curve $-1 51.509140293588061 0 -8.4057280584888314 0 -1 0 I I #
coedge $-1 $220 $222 $148 $232 reversed $141 $-1 #
edge $-1 $235 -26.112353292361849 $238 26.112353292361849 $231 $324 forward 7 unknown #
coedge $-1 $226 $149 $154 $241 forward $218 $-1 #
coedge $-1 $149 $226 $220 $315 reversed $218 $-1 #
vertex $-1 $150 $325 #
straight-curve $-1 0 26.112353292361849 8.4057280584888314 -1 0 0 I I #
coedge $-1 $151 $221 $153 $240 reversed $88 $-1 #
vertex $-1 $232 $326 #
straight-curve $-1 0 -26.112353292361849 8.4057280584888314 1 0 0 I I #
edge $-1 $156 -8.4057280584888314 $229 8.4057280584888314 $153 $327 forward 7 unknown #
edge $-1 $157 -8.4057280584888314 $228 8.4057280584888314 $154 $328 forward 7 unknown #
point $-1 51.509140293588061 -26.112353292361849 8.4057280584888314 #
point $-1 51.509140293588061 26.112353292361849 8.4057280584888314 #
face $-1 $-1 $253 $22 $-1 $329 reversed single #
loop $-1 $-1 $250 $159 #
plane-surface $-1 0 0 8.4057280584888314 0 0 1 1 0 0 forward_v I I I I #
coedge $-1 $330 $331 $166 $256 forward $160 $-1 #
coedge $-1 $162 $260 $332 $333 reversed $96 $-1 #
edge $-1 $334 -5.2404392723782651 $172 -1.0901382998428675 $162 $335 forward 7 unknown #
coedge $-1 $332 $336 $163 $251 forward $245 $-1 #
edge $-1 $254 -26.112353292361849 $334 26.112353292361849 $250 $337 forward 7 unknown #
coedge $-1 $257 $164 $336 $338 reversed $253 $-1 #
loop $-1 $-1 $164 $244 #
vertex $-1 $165 $339 #
straight-curve $-1 -45.851816209949391 -26.112353292361849 3.1652887861105663 0 0 1 I I #
edge $-1 $261 -26.112353292361849 $258 26.112353292361849 $247 $340 forward 7 unknown #
coedge $-1 $167 $252 $330 $341 forward $253 $-1 #
vertex $-1 $256 $342 #
straight-curve $-1 -24.340239125884363 -26.112353292361849 4.2554270859534338 1 0 0 I I #
coedge $-1 $248 $169 $331 $343 reversed $96 $-1 #
vertex $-1 $256 $344 #
straight-curve $-1 -24.340239125884363 26.112353292361849 4.2554270859534338 -1 0 0 I I #
point $-1 -45.851816209949391 26.112353292361849 4.2554270859534338 #
point $-1 -45.851816209949391 -26.112353292361849 4.2554270859534338 #
loop $-1 $-1 $183 $175 #
plane-surface $-1 0 26.112353292361849 0 0 -1 0 0 0 -1 forward_v I I I I #
coedge $-1 $268 $178 $180 $272 reversed $104 $-1 #
coedge $-1 $178 $267 $345 $346 reversed $104 $-1 #
coedge $-1 $186 $181 $178 $270 forward $176 $-1 #
edge $-1 $273 -5.5019340758359334 $347 -0.050037963825079856 $269 $348 forward 7 unknown #
coedge $-1 $180 $179 $276 $349 reversed $65 $-1 #
edge $-1 $350 -52.224706584723677 $273 -45.107761597832692 $267 $351 forward 7 unknown #
vertex $-1 $182 $352 #
straight-curve $-1 -10.483858710450379 20.660457180350988 8.4057280584888368 1 0 0 I I #
coedge $-1 $345 $183 $186 $280 reversed $265 $-1 #
coedge $-1 $183 $345 $271 $349 forward $265 $-1 #
vertex $-1 $184 $353 #
straight-curve $-1 -27.494945461281198 26.112353292361849 58.158509685590879 0 0 1 I I #
straight-curve $-1 -27.494945461281198 -13.894092634170931 37.400438670644164 0 0.76604443648966558 -0.64278761758704617 I I #
edge $-1 $347 14.440489380520319 $187 27.494945461281198 $275 $354 forward 7 unknown #
point $-1 -27.494945461281198 26.112353292361849 8.4057280584888314 #
point $-1 -27.494945461281198 20.660457180350996 8.4057280584888332 #
edge $-1 $355 1 $355 0 $190 $-1 forward 7 unknown #
vertex $-1 $191 $356 #
ellipse-curve $-1 -23.765100866778088 21.633515732980836 4.0293736828637048 0 0.64278761758704617 0.76604443648966558 1 0 0 1 I I #
point $-1 -22.765100866778088 23.386405236356431 6.1183860021779708 #
edge $-1 $357 1 $357 0 $194 $-1 forward 7 unknown #
vertex $-1 $195 $358 #
ellipse-curve $-1 -18.170333975023425 21.633515732980836 4.0293736828637048 0 0.64278761758704617 0.76604443648966558 1 0 0 1 I I #
point $-1 -17.170333975023425 23.386405236356431 6.1183860021779708 #
loop $-1 $-1 $300 $198 #
plane-surface $-1 0 -26.112353292361849 0 0 1 0 0 0 1 forward_v I I I I #
coedge $-1 $294 $201 $209 $306 reversed $126 $-1 #
coedge $-1 $201 $293 $359 $360 forward $126 $-1 #
coedge $-1 $300 $361 $203 $296 forward $291 $-1 #
edge $-1 $298 28.32037639908075 $304 33.532193046322178 $295 $362 forward 7 unknown #
coedge $-1 $209 $204 $361 $363 forward $199 $-1 #
vertex $-1 $363 $364 #
straight-curve $-1 38.416057166269795 -50.727577492820494 8.4057280584888332 0 -1 0 I I #
coedge $-1 $359 $295 $206 $301 forward $291 $-1 #
edge $-1 $304 15.934757801305331 $302 29.027840928623597 $300 $365 forward 7 unknown #
vertex $-1 $301 $366 #
straight-curve $-1 51.509140293588061 -20.836174348356408 8.8519207567547831 0 0.68199835119979291 0.73135370988377701 I I #
vertex $-1 $301 $367 #
straight-curve $-1 38.416057166269795 -26.112353292361846 3.193911411247413 0 0.68199835119979291 0.73135370988377701 I I #
edge $-1 $368 -26.112353292361849 $210 -21.252255760704919 $293 $369 forward 7 unknown #
point $-1 51.509140293588061 -21.252255760704919 8.4057280584888314 #
point $-1 38.416057166269795 -21.252255760704919 8.4057280584888314 #
edge $-1 $370 1 $370 0 $213 $-1 forward 7 unknown #
vertex $-1 $214 $371 #
ellipse-curve $-1 44.962598729928928 -21.012674882935286 3.3103498782958107 0 -0.73135370988377701 0.68199835119979291 1 0 0 1 I I #
point $-1 45.962598729928928 -23.682304526533382 5.7998197348681195 #
plane-surface $-1 51.509140293588061 0 0 -1 0 0 0 0 1 forward_v I I I I #
coedge $-1 $222 $220 $224 $318 reversed $141 $-1 #
edge $-1 $235 -8.4057280584888314 $320 8.4057280584888314 $234 $372 forward 7 unknown #
vertex $-1 $318 $373 #
straight-curve $-1 -51.509140293588061 -26.112353292361849 0 0 0 -1 I I #
edge $-1 $316 -26.112353292361849 $320 26.112353292361849 $314 $374 forward 7 unknown #
straight-curve $-1 0 -26.112353292361849 -8.4057280584888314 -1 0 0 I I #
vertex $-1 $227 $375 #
straight-curve $-1 0 26.112353292361849 -8.4057280584888314 1 0 0 I I #
point $-1 51.509140293588061 26.112353292361849 -8.4057280584888314 #
point $-1 51.509140293588061 -26.112353292361849 -8.4057280584888314 #
straight-curve $-1 -51.509140293588061 0 8.4057280584888314 0 -1 0 I I #
point $-1 -51.509140293588061 26.112353292361849 8.4057280584888314 #
point $-1 -51.509140293588061 -26.112353292361849 8.4057280584888314 #
straight-curve $-1 51.509140293588061 -26.112353292361849 0 0 0 -1 I I #
straight-curve $-1 51.509140293588061 26.112353292361849 0 0 0 -1 I I #
plane-surface $-1 0 -26.112353292361849 0 0 1 0 0 0 1 forward_v I I I I #
coedge $-1 $376 $247 $257 $341 reversed $160 $-1 #
coedge $-1 $247 $376 $260 $343 forward $160 $-1 #
coedge $-1 $377 $250 $248 $333 forward $245 $-1 #
edge $-1 $334 45.851816209949391 $378 51.509140293588061 $248 $379 forward 7 unknown #
vertex $-1 $333 $380 #
straight-curve $-1 -45.851816209949391 26.112353292361849 3.1652887861105663 0 0 -1 I I #
coedge $-1 $250 $377 $252 $338 forward $245 $-1 #
straight-curve $-1 -45.851816209949391 0 8.4057280584888314 0 1 0 I I #
edge $-1 $381 -51.509140293588061 $254 -45.851816209949391 $252 $382 forward 7 unknown #
point $-1 -45.851816209949391 -26.112353292361849 8.4057280584888314 #
straight-curve $-1 -51.509140293588061 0 4.2554270859534338 0 -1 0 I I #
edge $-1 $381 -8.4057280584888314 $258 -4.2554270859534338 $330 $383 forward 7 unknown #
point $-1 -51.509140293588061 -26.112353292361849 4.2554270859534338 #
edge $-1 $378 -8.4057280584888314 $261 -4.2554270859534338 $260 $384 forward 7 unknown #
point $-1 -51.509140293588061 26.112353292361849 4.2554270859534338 #
coedge $-1 $276 $275 $268 $346 forward $265 $-1 #
edge $-1 $347 49.752781627102046 $350 54.32746573972377 $345 $385 forward 7 unknown #
vertex $-1 $280 $386 #
straight-curve $-1 -14.440489380520319 26.162391256186929 8.4057280584888332 0 1 0 I I #
edge $-1 $350 3.9566306700699396 $277 17.01108675083082 $276 $387 forward 7 unknown #
vertex $-1 $349 $388 #
straight-curve $-1 -14.440489380520319 -13.894092634170931 37.400438670644164 0 -0.76604443648966558 0.64278761758704617 I I #
point $-1 -14.440489380520319 20.660457180350996 8.4057280584888332 #
point $-1 -27.494945461281198 26.112353292361846 3.8310439458671084 #
straight-curve $-1 0 26.112353292361849 8.4057280584888314 -1 0 0 I I #
vertex $-1 $283 $389 #
point $-1 -22.765100866778088 21.633515732980836 4.0293736828637048 #
vertex $-1 $287 $390 #
point $-1 -17.170333975023425 21.633515732980836 4.0293736828637048 #
coedge $-1 $361 $300 $294 $360 reversed $291 $-1 #
edge $-1 $368 -8.4057280584888314 $302 -3.193911411247409 $294 $391 forward 7 unknown #
coedge $-1 $295 $359 $297 $363 reversed $291 $-1 #
straight-curve $-1 38.416057166269795 -26.112353292361846 36.726104457569583 0 0 -1 I I #
edge $-1 $298 38.416057166269795 $368 51.509140293588061 $361 $392 forward 7 unknown #
point $-1 38.416057166269795 -26.112353292361849 8.4057280584888314 #
straight-curve $-1 22.481299364964464 -26.112353292361849 3.1939114112474054 1 0 0 I I #
point $-1 51.509140293588061 -26.112353292361849 3.193911411247409 #
point $-1 38.416057166269795 -26.112353292361849 3.193911411247409 #
vertex $-1 $306 $393 #
straight-curve $-1 51.509140293588061 0 8.4057280584888314 0 1 0 I I #
vertex $-1 $309 $394 #
point $-1 45.962598729928928 -21.012674882935286 3.3103498782958107 #
straight-curve $-1 -51.509140293588061 26.112353292361849 0 0 0 -1 I I #
point $-1 -51.509140293588061 -26.112353292361849 -8.4057280584888314 #
straight-curve $-1 -51.509140293588061 0 -8.4057280584888314 0 1 0 I I #
point $-1 -51.509140293588061 26.112353292361849 -8.4057280584888314 #
coedge $-1 $331 $330 $377 $395 reversed $160 $-1 #
coedge $-1 $336 $332 $376 $395 forward $245 $-1 #
vertex $-1 $333 $396 #
straight-curve $-1 0 26.112353292361849 8.4057280584888314 -1 0 0 I I #
point $-1 -45.851816209949391 26.112353292361849 8.4057280584888314 #
vertex $-1 $395 $397 #
straight-curve $-1 0 -26.112353292361849 8.4057280584888314 1 0 0 I I #
straight-curve $-1 -51.509140293588061 -26.112353292361849 0 0 0 -1 I I #
straight-curve $-1 -51.509140293588061 26.112353292361849 0 0 0 -1 I I #
straight-curve $-1 -14.440489380520319 26.112353292361849 58.158509685590879 0 0 -1 I I #
point $-1 -14.440489380520319 26.112353292361849 8.4057280584888314 #
straight-curve $-1 -10.483858710450379 26.112353292361846 3.8310439458671048 -1 0 0 I I #
point $-1 -14.440489380520319 26.112353292361846 3.8310439458671084 #
point $-1 -23.765100866778088 20.990728115393789 3.2633292463740395 #
point $-1 -18.170333975023425 20.990728115393789 3.2633292463740395 #
straight-curve $-1 51.509140293588061 -26.112353292361849 0 0 0 -1 I I #
straight-curve $-1 0 -26.112353292361849 8.4057280584888314 1 0 0 I I #
point $-1 51.509140293588061 -26.112353292361849 8.4057280584888314 #
point $-1 44.962598729928928 -20.281321173051509 2.6283515270960178 #
edge $-1 $378 -26.112353292361849 $381 26.112353292361849 $376 $398 forward 7 unknown #
point $-1 -51.509140293588061 26.112353292361849 8.4057280584888314 #
point $-1 -51.509140293588061 -26.112353292361849 8.4057280584888314 #
straight-curve $-1 -51.509140293588061 0 8.4057280584888314 0 -1 0 I I #
End-of-ACIS-data 