500 0 6 0           
7 Unknown 11 ACIS 5.0 NT 24 Fri Mar 26 17:16:38 1999 
-1 9.9999999999999995e-007 1e-010 
body $-1 $6 $-1 $7 #
body $-1 $8 $-1 $9 #
body $-1 $10 $-1 $11 #
body $-1 $12 $-1 $13 #
body $-1 $14 $-1 $15 #
body $-1 $16 $-1 $17 #
lump $-1 $-1 $18 $0 #
transform $-1 1 0 0 0 1 0 0 0 1 79.849848933378098 53.349310214673089 21.511330192520031 1 rotate no_reflect no_shear #
lump $-1 $-1 $19 $1 #
transform $-1 1 0 0 0 1 0 0 0 1 79.849848933378098 53.349310214673089 21.511330192520031 1 rotate no_reflect no_shear #
lump $-1 $-1 $20 $2 #
transform $-1 1 0 0 0 1 0 0 0 1 79.849848933378098 53.349310214673089 21.511330192520031 1 rotate no_reflect no_shear #
lump $-1 $-1 $21 $3 #
transform $-1 1 0 0 0 1 0 0 0 1 79.849848933378098 53.349310214673089 21.511330192520031 1 rotate no_reflect no_shear #
lump $-1 $-1 $22 $4 #
transform $-1 1 0 0 0 1 0 0 0 1 79.849848933378098 53.349310214673089 21.511330192520031 1 rotate no_reflect no_shear #
lump $-1 $-1 $23 $5 #
transform $-1 1 0 0 0 1 0 0 0 1 79.849848933378098 53.349310214673089 21.511330192520031 1 rotate no_reflect no_shear #
shell $-1 $-1 $-1 $24 $-1 $6 #
shell $-1 $-1 $-1 $25 $-1 $8 #
shell $-1 $-1 $-1 $26 $-1 $10 #
shell $-1 $-1 $-1 $27 $-1 $12 #
shell $-1 $-1 $-1 $28 $-1 $14 #
shell $-1 $-1 $-1 $29 $-1 $16 #
face $-1 $30 $31 $18 $-1 $32 forward single #
face $-1 $33 $34 $19 $-1 $35 forward single #
face $-1 $36 $37 $20 $-1 $38 reversed single #
face $-1 $39 $40 $21 $-1 $41 forward single #
face $-1 $42 $43 $22 $-1 $44 reversed single #
face $-1 $45 $46 $23 $-1 $47 forward single #
face $-1 $48 $49 $18 $-1 $50 reversed single #
loop $-1 $-1 $51 $24 #
plane-surface $-1 0 0 21.511330192520031 0 0 1 1 0 0 forward_v I I I I #
face $-1 $52 $53 $19 $-1 $54 reversed single #
loop $-1 $-1 $55 $25 #
plane-surface $-1 -79.849848933378098 0 0 1 0 0 0 0 -1 forward_v I I I I #
face $-1 $56 $57 $20 $-1 $58 reversed single #
loop $-1 $-1 $59 $26 #
plane-surface $-1 95.604315005966498 -3.5527136788005009e-015 227.33140317882413 0 -1 0 -0.75470958851134928 0 -0.65605901945558964 forward_v I I I I #
face $-1 $60 $61 $21 $-1 $62 forward single #
loop $-1 $63 $64 $27 #
cone-surface $-1 68.69138691124715 -10.939807891916608 9.4316418244430942 -0.75470958851134928 0 -0.65605901945558964 3.2802950972779481 0 -3.7735479425567462 1 I I 0 1 5 forward I I I I #
face $-1 $65 $66 $22 $-1 $67 reversed single #
loop $-1 $-1 $68 $28 #
plane-surface $-1 95.604315005966498 21.879615783833199 227.33140317882413 0 -1 0 -0.75470958851134928 0 -0.65605901945558964 forward_v I I I I #
face $-1 $69 $70 $23 $-1 $71 forward single #
loop $-1 $72 $73 $29 #
cone-surface $-1 68.69138691124715 10.939807891916594 9.4316418244430942 -0.75470958851134928 0 -0.65605901945558964 3.2802950972779481 0 -3.7735479425567462 1 I I 0 1 5 forward I I I I #
face $-1 $74 $75 $18 $-1 $76 reversed single #
loop $-1 $-1 $77 $30 #
plane-surface $-1 0 0 -21.511330192520031 0 0 1 1 0 0 forward_v I I I I #
coedge $-1 $78 $79 $80 $81 forward $31 $-1 #
face $-1 $82 $83 $19 $-1 $84 forward single #
loop $-1 $-1 $85 $33 #
plane-surface $-1 0 53.349310214673089 0 0 -1 0 0 0 -1 forward_v I I I I #
coedge $-1 $86 $87 $88 $89 forward $34 $-1 #
face $-1 $90 $91 $20 $-1 $92 reversed single #
loop $-1 $-1 $93 $36 #
plane-surface $-1 -24.922578256439877 -10.939807891916608 122.55897598900614 0.75470958851134928 0 0.65605901945558964 0.65605901945558964 0 -0.75470958851134928 forward_v I I I I #
coedge $-1 $94 $95 $96 $97 reversed $37 $-1 #
face $-1 $-1 $98 $21 $-1 $99 forward single #
loop $-1 $100 $101 $39 #
cone-surface $-1 64.112676444187542 -10.939807891916608 5.4514296406873264 -0.75470958851134928 0 -0.65605901945558964 1.6401475486389741 0 -1.8867739712783731 1 I I -0.70710678118654746 0.70710678118654746 2.5 forward I I I I #
loop $-1 $-1 $102 $27 #
coedge $-1 $64 $64 $103 $104 reversed $40 $-1 #
face $-1 $105 $106 $22 $-1 $107 reversed single #
loop $-1 $-1 $108 $42 #
plane-surface $-1 -24.922578256439877 -10.939807891916608 122.55897598900614 0.75470958851134928 0 0.65605901945558964 0.65605901945558964 0 -0.75470958851134928 forward_v I I I I #
coedge $-1 $109 $110 $111 $112 reversed $43 $-1 #
face $-1 $-1 $113 $23 $-1 $114 forward single #
loop $-1 $115 $116 $45 #
cone-surface $-1 64.112676444187542 10.939807891916594 5.4514296406873264 -0.75470958851134928 0 -0.65605901945558964 1.6401475486389741 0 -1.8867739712783731 1 I I -0.70710678118654746 0.70710678118654746 2.5 forward I I I I #
loop $-1 $-1 $117 $29 #
coedge $-1 $73 $73 $118 $119 reversed $46 $-1 #
face $-1 $120 $121 $18 $-1 $122 reversed single #
loop $-1 $-1 $123 $48 #
plane-surface $-1 0 -53.349310214673089 0 0 1 0 0 0 1 forward_v I I I I #
coedge $-1 $124 $125 $126 $127 forward $49 $-1 #
coedge $-1 $128 $51 $129 $130 forward $31 $-1 #
coedge $-1 $51 $128 $131 $132 forward $31 $-1 #
coedge $-1 $133 $134 $51 $81 reversed $135 $-1 #
edge $-1 $136 -53.349310214673089 $137 53.349310214673089 $80 $138 forward 7 unknown #
face $-1 $139 $140 $19 $-1 $141 reversed single #
loop $-1 $-1 $88 $52 #
plane-surface $-1 -90.25542561593636 0 -16.397375300900642 0 0 1 1 0 0 forward_v I I I I #
coedge $-1 $142 $143 $87 $144 forward $53 $-1 #
coedge $-1 $145 $55 $146 $147 reversed $34 $-1 #
coedge $-1 $55 $145 $85 $144 reversed $34 $-1 #
coedge $-1 $148 $149 $55 $89 reversed $83 $-1 #
edge $-1 $150 -53.349310214673089 $151 53.349310214673089 $88 $152 forward 7 unknown #
face $-1 $153 $154 $20 $-1 $155 forward single #
loop $-1 $-1 $156 $56 #
plane-surface $-1 95.604315005966498 -21.879615783833213 227.33140317882413 0 1 0 0.75470958851134928 0 0.65605901945558964 forward_v I I I I #
coedge $-1 $157 $158 $159 $160 reversed $57 $-1 #
coedge $-1 $95 $59 $161 $162 reversed $37 $-1 #
coedge $-1 $59 $94 $157 $163 reversed $37 $-1 #
coedge $-1 $159 $164 $59 $97 forward $154 $-1 #
edge $-1 $165 -32.047691430394849 $166 -15.11464037769548 $96 $167 forward 7 unknown #
loop $-1 $-1 $103 $60 #
plane-surface $-1 -24.922578256439877 -10.939807891916608 122.55897598900614 0.75470958851134928 0 0.65605901945558964 0.65605901945558964 0 -0.75470958851134928 forward_v I I I I #
loop $-1 $-1 $168 $39 #
coedge $-1 $101 $101 $102 $169 reversed $61 $-1 #
coedge $-1 $102 $102 $101 $169 forward $63 $-1 #
coedge $-1 $103 $103 $64 $104 forward $98 $-1 #
edge $-1 $170 0 $170 6.2831853071796004 $103 $171 forward 7 unknown #
face $-1 $172 $173 $22 $-1 $174 forward single #
loop $-1 $-1 $175 $65 #
plane-surface $-1 79.849848933378098 0 0 -1 0 0 0 0 1 forward_v I I I I #
coedge $-1 $176 $177 $178 $179 reversed $66 $-1 #
coedge $-1 $110 $68 $180 $181 reversed $43 $-1 #
coedge $-1 $68 $109 $182 $183 reversed $43 $-1 #
coedge $-1 $184 $175 $68 $112 forward $106 $-1 #
edge $-1 $185 -111.63361886281227 $186 -92.154371396892031 $111 $187 forward 7 unknown #
loop $-1 $-1 $118 $69 #
plane-surface $-1 -24.922578256439877 -10.939807891916608 122.55897598900614 0.75470958851134928 0 0.65605901945558964 0.65605901945558964 0 -0.75470958851134928 forward_v I I I I #
loop $-1 $-1 $188 $45 #
coedge $-1 $116 $116 $117 $189 reversed $70 $-1 #
coedge $-1 $117 $117 $116 $189 forward $72 $-1 #
coedge $-1 $118 $118 $73 $119 forward $113 $-1 #
edge $-1 $190 0 $190 6.2831853071796004 $118 $191 forward 7 unknown #
face $-1 $192 $193 $18 $-1 $194 reversed single #
loop $-1 $-1 $195 $74 #
plane-surface $-1 -79.849848933378098 0 0 1 0 0 0 0 -1 forward_v I I I I #
coedge $-1 $196 $131 $197 $198 forward $75 $-1 #
coedge $-1 $199 $77 $196 $200 forward $49 $-1 #
coedge $-1 $77 $199 $201 $202 forward $49 $-1 #
coedge $-1 $134 $133 $77 $127 reversed $135 $-1 #
edge $-1 $203 -53.349310214673089 $204 53.349310214673089 $126 $205 forward 7 unknown #
coedge $-1 $79 $78 $206 $207 forward $31 $-1 #
coedge $-1 $208 $209 $78 $130 reversed $193 $-1 #
edge $-1 $137 -79.849848933378098 $210 79.849848933378098 $129 $211 forward 7 unknown #
coedge $-1 $123 $212 $79 $132 reversed $75 $-1 #
edge $-1 $213 -79.849848933378098 $136 79.849848933378098 $131 $214 forward 7 unknown #
coedge $-1 $126 $80 $212 $215 forward $135 $-1 #
coedge $-1 $80 $126 $208 $216 reversed $135 $-1 #
loop $-1 $-1 $133 $192 #
vertex $-1 $81 $217 #
vertex $-1 $81 $218 #
straight-curve $-1 79.849848933378098 0 21.511330192520031 0 1 0 I I #
face $-1 $219 $220 $19 $-1 $221 reversed single #
loop $-1 $-1 $222 $82 #
plane-surface $-1 -100.66100229849462 0 -18.954352746710335 1 0 0 0 0 -1 forward_v I I I I #
coedge $-1 $223 $85 $224 $225 reversed $53 $-1 #
coedge $-1 $85 $223 $148 $226 reversed $53 $-1 #
edge $-1 $150 16.397375300900642 $227 21.511330192520031 $85 $228 forward 7 unknown #
coedge $-1 $87 $86 $229 $230 reversed $34 $-1 #
coedge $-1 $231 $232 $86 $147 forward $233 $-1 #
edge $-1 $234 -21.511330192520031 $151 -16.397375300900642 $146 $235 forward 7 unknown #
coedge $-1 $236 $88 $143 $226 forward $83 $-1 #
coedge $-1 $88 $236 $231 $237 forward $83 $-1 #
vertex $-1 $144 $238 #
vertex $-1 $237 $239 #
straight-curve $-1 -79.849848933378098 0 -16.397375300900642 0 -1 0 I I #
face $-1 $-1 $240 $20 $-1 $241 reversed single #
loop $-1 $-1 $96 $90 #
plane-surface $-1 0 0 21.511330192520031 0 0 1 1 0 0 forward_v I I I I #
coedge $-1 $242 $243 $244 $245 reversed $91 $-1 #
coedge $-1 $246 $93 $95 $163 forward $57 $-1 #
coedge $-1 $93 $246 $242 $247 forward $57 $-1 #
coedge $-1 $244 $96 $93 $160 forward $154 $-1 #
edge $-1 $166 -5.4699039459583005 $248 16.409711837874909 $159 $249 forward 7 unknown #
coedge $-1 $250 $251 $94 $162 forward $240 $-1 #
edge $-1 $252 -111.63361886281227 $165 -92.154371396892031 $161 $253 forward 7 unknown #
edge $-1 $166 133.8894421572154 $252 159.69969786675622 $95 $254 forward 7 unknown #
coedge $-1 $96 $244 $250 $255 forward $154 $-1 #
vertex $-1 $162 $256 #
vertex $-1 $97 $257 #
straight-curve $-1 47.802157502983249 -3.5527136788005009e-015 21.511330192520035 -1 0 0 I I #
coedge $-1 $168 $168 $-1 $258 reversed $100 $-1 #
edge $-1 $259 0 $259 6.2831853071796004 $101 $260 forward 7 unknown #
vertex $-1 $104 $261 #
ellipse-curve $-1 71.383323407028413 -10.939807891916608 11.771706459559907 0.75470958851134928 0 0.65605901945558964 3.2802950972779481 0 -3.7735479425567462 1 I I #
face $-1 $-1 $262 $22 $-1 $263 forward single #
loop $-1 $-1 $264 $105 #
plane-surface $-1 95.604315005966498 -3.5527136788005009e-015 227.33140317882413 0 -1 0 -0.75470958851134928 0 -0.65605901945558964 forward_v I I I I #
coedge $-1 $111 $265 $177 $266 forward $106 $-1 #
coedge $-1 $180 $108 $267 $268 reversed $66 $-1 #
coedge $-1 $108 $180 $175 $266 reversed $66 $-1 #
coedge $-1 $269 $264 $108 $179 forward $173 $-1 #
edge $-1 $270 133.8894421572154 $271 159.69969786675622 $178 $272 forward 7 unknown #
coedge $-1 $177 $176 $109 $181 forward $66 $-1 #
edge $-1 $273 133.8894421572154 $185 159.69969786675622 $109 $274 forward 7 unknown #
coedge $-1 $267 $275 $110 $183 forward $262 $-1 #
edge $-1 $186 -32.047691430394849 $273 -15.11464037769548 $182 $276 forward 7 unknown #
coedge $-1 $265 $111 $275 $277 reversed $106 $-1 #
vertex $-1 $112 $278 #
vertex $-1 $112 $279 #
straight-curve $-1 79.849848933378098 21.879615783833199 113.66570158941207 0 0 1 I I #
coedge $-1 $188 $188 $-1 $280 reversed $115 $-1 #
edge $-1 $281 0 $281 6.2831853071796004 $116 $282 forward 7 unknown #
vertex $-1 $119 $283 #
ellipse-curve $-1 71.383323407028413 10.939807891916594 11.771706459559907 0.75470958851134928 0 0.65605901945558964 3.2802950972779481 0 -3.7735479425567462 1 I I #
face $-1 $-1 $135 $18 $-1 $284 reversed single #
loop $-1 $-1 $208 $120 #
plane-surface $-1 0 53.349310214673089 0 0 -1 0 0 0 -1 forward_v I I I I #
coedge $-1 $285 $206 $209 $286 forward $121 $-1 #
coedge $-1 $212 $123 $124 $200 reversed $75 $-1 #
coedge $-1 $206 $285 $123 $198 reversed $121 $-1 #
edge $-1 $213 -21.511330192520031 $287 21.511330192520031 $197 $288 forward 7 unknown #
coedge $-1 $125 $124 $285 $289 forward $49 $-1 #
edge $-1 $204 -79.849848933378098 $287 79.849848933378098 $196 $290 forward 7 unknown #
coedge $-1 $209 $208 $125 $202 reversed $193 $-1 #
edge $-1 $291 -79.849848933378098 $203 79.849848933378098 $201 $292 forward 7 unknown #
vertex $-1 $127 $293 #
vertex $-1 $215 $294 #
straight-curve $-1 79.849848933378098 0 -21.511330192520031 0 -1 0 I I #
coedge $-1 $195 $197 $128 $207 reversed $121 $-1 #
edge $-1 $210 -53.349310214673089 $213 53.349310214673089 $206 $295 forward 7 unknown #
coedge $-1 $201 $129 $134 $216 forward $193 $-1 #
coedge $-1 $129 $201 $195 $286 reversed $193 $-1 #
vertex $-1 $130 $296 #
straight-curve $-1 0 53.349310214673089 21.511330192520031 -1 0 0 I I #
coedge $-1 $131 $196 $133 $215 reversed $75 $-1 #
vertex $-1 $207 $297 #
straight-curve $-1 0 -53.349310214673089 21.511330192520031 1 0 0 I I #
edge $-1 $136 -21.511330192520031 $204 21.511330192520031 $133 $298 forward 7 unknown #
edge $-1 $137 -21.511330192520031 $203 21.511330192520031 $134 $299 forward 7 unknown #
point $-1 79.849848933378098 -53.349310214673089 21.511330192520031 #
point $-1 79.849848933378098 53.349310214673089 21.511330192520031 #
face $-1 $-1 $233 $19 $-1 $300 reversed single #
loop $-1 $-1 $229 $139 #
plane-surface $-1 0 0 -21.511330192520031 0 0 1 1 0 0 forward_v I I I I #
coedge $-1 $301 $302 $223 $303 forward $140 $-1 #
coedge $-1 $143 $142 $222 $303 reversed $53 $-1 #
coedge $-1 $229 $304 $142 $225 forward $220 $-1 #
edge $-1 $305 -100.66100229849462 $227 -79.849848933378098 $142 $306 forward 7 unknown #
edge $-1 $150 -10.405576682558262 $307 10.405576682558262 $143 $308 forward 7 unknown #
vertex $-1 $144 $309 #
straight-curve $-1 -79.849848933378098 53.349310214673089 0 0 0 -1 I I #
coedge $-1 $310 $224 $145 $230 forward $220 $-1 #
edge $-1 $227 -53.349310214673089 $234 53.349310214673089 $229 $311 forward 7 unknown #
coedge $-1 $312 $146 $149 $237 reversed $233 $-1 #
coedge $-1 $146 $312 $310 $313 reversed $233 $-1 #
loop $-1 $-1 $146 $219 #
vertex $-1 $313 $314 #
straight-curve $-1 -79.849848933378098 -53.349310214673089 0 0 0 1 I I #
coedge $-1 $149 $148 $302 $315 forward $83 $-1 #
edge $-1 $316 -10.405576682558262 $151 10.405576682558262 $231 $317 forward 7 unknown #
point $-1 -79.849848933378098 53.349310214673089 -16.397375300900642 #
point $-1 -79.849848933378098 -53.349310214673089 -16.397375300900642 #
loop $-1 $-1 $161 $153 #
plane-surface $-1 79.849848933378098 0 0 -1 0 0 0 0 1 forward_v I I I I #
coedge $-1 $243 $156 $158 $247 reversed $91 $-1 #
coedge $-1 $156 $242 $318 $319 reversed $91 $-1 #
coedge $-1 $164 $159 $156 $245 forward $154 $-1 #
edge $-1 $248 15.11464037769548 $320 32.047691430394849 $244 $321 forward 7 unknown #
coedge $-1 $158 $157 $251 $322 reversed $57 $-1 #
edge $-1 $323 -159.69969786675622 $248 -133.8894421572154 $242 $324 forward 7 unknown #
vertex $-1 $160 $325 #
straight-curve $-1 62.916797880678743 -5.4699039459583041 21.51133019252002 0 -1 0 I I #
coedge $-1 $318 $161 $164 $255 reversed $240 $-1 #
coedge $-1 $161 $318 $246 $322 forward $240 $-1 #
vertex $-1 $162 $326 #
straight-curve $-1 79.849848933378098 -3.5527136788005009e-015 113.66570158941207 0 0 1 I I #
straight-curve $-1 -24.922578256439877 -3.5527136788005009e-015 122.55897598900614 0.65605901945558964 0 -0.75470958851134928 I I #
edge $-1 $320 -21.879615783833213 $165 -3.5527136788005009e-015 $250 $327 forward 7 unknown #
point $-1 79.849848933378098 -3.5527136788005009e-015 21.511330192520031 #
point $-1 62.916797880678729 -3.5527136788005009e-015 21.511330192520035 #
edge $-1 $328 1 $328 0 $168 $-1 forward 7 unknown #
vertex $-1 $169 $329 #
ellipse-curve $-1 65.999450415465915 -10.939807891916608 7.0915771893263004 0.75470958851134928 0 0.65605901945558964 3.2802950972779481 0 -3.7735479425567462 1 I I #
point $-1 74.663618504306342 -10.939807891916608 7.9981585170031444 #
loop $-1 $-1 $267 $172 #
plane-surface $-1 0 0 21.511330192520031 0 0 1 1 0 0 forward_v I I I I #
coedge $-1 $178 $269 $330 $331 reversed $173 $-1 #
coedge $-1 $175 $184 $269 $332 forward $106 $-1 #
edge $-1 $271 5.4699039459583005 $185 27.349519729791503 $175 $333 forward 7 unknown #
coedge $-1 $330 $182 $176 $268 forward $262 $-1 #
edge $-1 $273 -27.349519729791503 $270 -5.4699039459583005 $267 $334 forward 7 unknown #
coedge $-1 $264 $178 $265 $332 reversed $173 $-1 #
vertex $-1 $268 $335 #
vertex $-1 $266 $336 #
straight-curve $-1 -24.922578256439877 -3.5527136788005009e-015 122.55897598900614 0.65605901945558964 0 -0.75470958851134928 I I #
vertex $-1 $183 $337 #
straight-curve $-1 -24.922578256439877 21.879615783833199 122.55897598900614 0.65605901945558964 0 -0.75470958851134928 I I #
coedge $-1 $182 $330 $184 $277 forward $262 $-1 #
straight-curve $-1 47.802157502983249 21.879615783833199 21.511330192520035 -1 0 0 I I #
edge $-1 $338 -3.5527136788005009e-015 $186 21.879615783833199 $184 $339 forward 7 unknown #
point $-1 79.849848933378098 21.879615783833199 2.0320827265997963 #
point $-1 79.849848933378098 21.879615783833199 21.511330192520031 #
edge $-1 $340 1 $340 0 $188 $-1 forward 7 unknown #
vertex $-1 $189 $341 #
ellipse-curve $-1 65.999450415465915 10.939807891916594 7.0915771893263004 0.75470958851134928 0 0.65605901945558964 3.2802950972779481 0 -3.7735479425567462 1 I I #
point $-1 74.663618504306342 10.939807891916594 7.9981585170031444 #
plane-surface $-1 79.849848933378098 0 0 -1 0 0 0 0 1 forward_v I I I I #
coedge $-1 $197 $195 $199 $289 reversed $121 $-1 #
edge $-1 $210 -21.511330192520031 $291 21.511330192520031 $209 $342 forward 7 unknown #
vertex $-1 $289 $343 #
straight-curve $-1 -79.849848933378098 -53.349310214673089 0 0 0 -1 I I #
edge $-1 $287 -53.349310214673089 $291 53.349310214673089 $285 $344 forward 7 unknown #
straight-curve $-1 0 -53.349310214673089 -21.511330192520031 -1 0 0 I I #
vertex $-1 $202 $345 #
straight-curve $-1 0 53.349310214673089 -21.511330192520031 1 0 0 I I #
point $-1 79.849848933378098 53.349310214673089 -21.511330192520031 #
point $-1 79.849848933378098 -53.349310214673089 -21.511330192520031 #
straight-curve $-1 -79.849848933378098 0 21.511330192520031 0 -1 0 I I #
point $-1 -79.849848933378098 53.349310214673089 21.511330192520031 #
point $-1 -79.849848933378098 -53.349310214673089 21.511330192520031 #
straight-curve $-1 79.849848933378098 -53.349310214673089 0 0 0 -1 I I #
straight-curve $-1 79.849848933378098 53.349310214673089 0 0 0 -1 I I #
plane-surface $-1 0 -53.349310214673089 0 0 1 0 0 0 1 forward_v I I I I #
coedge $-1 $346 $222 $304 $347 reversed $140 $-1 #
coedge $-1 $222 $346 $236 $315 reversed $140 $-1 #
edge $-1 $307 -2.556977445809693 $305 2.556977445809693 $223 $348 forward 7 unknown #
coedge $-1 $224 $310 $301 $347 forward $220 $-1 #
vertex $-1 $225 $349 #
straight-curve $-1 0 53.349310214673089 -21.511330192520031 1 0 0 I I #
vertex $-1 $226 $350 #
straight-curve $-1 -90.25542561593636 53.349310214673089 -16.397375300900642 -1 0 0 I I #
point $-1 -79.849848933378098 53.349310214673089 -21.511330192520031 #
coedge $-1 $304 $229 $232 $313 forward $220 $-1 #
straight-curve $-1 -79.849848933378098 0 -21.511330192520031 0 -1 0 I I #
coedge $-1 $232 $231 $346 $351 forward $233 $-1 #
edge $-1 $234 -10.405576682558262 $352 10.405576682558262 $232 $353 forward 7 unknown #
point $-1 -79.849848933378098 -53.349310214673089 -21.511330192520031 #
edge $-1 $307 -53.349310214673089 $316 53.349310214673089 $302 $354 forward 7 unknown #
vertex $-1 $315 $355 #
straight-curve $-1 -90.25542561593636 -53.349310214673089 -16.397375300900642 1 0 0 I I #
coedge $-1 $251 $250 $243 $319 forward $240 $-1 #
edge $-1 $320 92.154371396892031 $323 111.63361886281227 $318 $356 forward 7 unknown #
vertex $-1 $255 $357 #
straight-curve $-1 47.802157502983249 -21.879615783833213 21.511330192520035 1 0 0 I I #
edge $-1 $323 -16.409711837874909 $252 5.4699039459583005 $251 $358 forward 7 unknown #
vertex $-1 $322 $359 #
straight-curve $-1 -24.922578256439877 -21.879615783833213 122.55897598900614 -0.65605901945558964 0 0.75470958851134928 I I #
point $-1 62.916797880678729 -21.879615783833213 21.511330192520035 #
point $-1 79.849848933378098 -3.5527136788005009e-015 2.0320827265997963 #
straight-curve $-1 79.849848933378098 0 21.511330192520031 0 1 0 I I #
vertex $-1 $258 $360 #
point $-1 69.279745512743858 -10.939807891916608 3.3180292467695542 #
coedge $-1 $275 $267 $264 $331 forward $262 $-1 #
edge $-1 $270 15.11464037769548 $338 32.047691430394849 $330 $361 forward 7 unknown #
edge $-1 $338 92.154371396892031 $271 111.63361886281227 $265 $362 forward 7 unknown #
straight-curve $-1 79.849848933378098 -5.4699039459583041 2.0320827265997821 0 1 0 I I #
straight-curve $-1 62.916797880678743 -5.4699039459583041 21.51133019252002 0 -1 0 I I #
point $-1 62.916797880678729 -3.5527136788005009e-015 21.511330192520035 #
point $-1 79.849848933378098 -3.5527136788005009e-015 2.0320827265997963 #
point $-1 62.916797880678729 21.879615783833199 21.511330192520035 #
vertex $-1 $277 $363 #
straight-curve $-1 79.849848933378098 0 21.511330192520031 0 1 0 I I #
vertex $-1 $280 $364 #
point $-1 69.279745512743858 10.939807891916594 3.3180292467695542 #
straight-curve $-1 -79.849848933378098 53.349310214673089 0 0 0 -1 I I #
point $-1 -79.849848933378098 -53.349310214673089 -21.511330192520031 #
straight-curve $-1 -79.849848933378098 0 -21.511330192520031 0 1 0 I I #
point $-1 -79.849848933378098 53.349310214673089 -21.511330192520031 #
coedge $-1 $302 $301 $312 $351 reversed $140 $-1 #
edge $-1 $352 -53.349310214673089 $305 53.349310214673089 $301 $365 forward 7 unknown #
straight-curve $-1 -100.66100229849462 53.349310214673089 -18.954352746710335 0 0 -1 I I #
point $-1 -100.66100229849462 53.349310214673089 -21.511330192520028 #
point $-1 -100.66100229849462 53.349310214673089 -16.397375300900642 #
edge $-1 $316 -2.556977445809693 $352 2.556977445809693 $346 $366 forward 7 unknown #
vertex $-1 $347 $367 #
straight-curve $-1 -90.25542561593636 -53.349310214673089 -21.511330192520028 -1 0 0 I I #
straight-curve $-1 -100.66100229849462 0 -16.397375300900642 0 -1 0 I I #
point $-1 -100.66100229849462 -53.349310214673089 -16.397375300900642 #
straight-curve $-1 79.849848933378098 -21.879615783833213 113.66570158941207 0 0 -1 I I #
point $-1 79.849848933378098 -21.879615783833213 21.511330192520031 #
straight-curve $-1 79.849848933378098 -5.4699039459583041 2.0320827265997821 0 1 0 I I #
point $-1 79.849848933378098 -21.879615783833213 2.0320827265997963 #
point $-1 62.225902472909169 -10.939807891916608 3.8112820920483523 #
straight-curve $-1 47.802157502983249 -3.5527136788005009e-015 21.511330192520035 1 0 0 I I #
straight-curve $-1 79.849848933378098 -3.5527136788005009e-015 113.66570158941207 0 0 -1 I I #
point $-1 79.849848933378098 -3.5527136788005009e-015 21.511330192520031 #
point $-1 62.225902472909169 10.939807891916594 3.8112820920483523 #
straight-curve $-1 -100.66100229849462 0 -21.511330192520028 0 1 0 I I #
straight-curve $-1 -100.66100229849462 -53.349310214673089 -18.954352746710335 0 0 -1 I I #
point $-1 -100.66100229849462 -53.349310214673089 -21.511330192520028 #
End-of-ACIS-data 