500 0 14 0           
7 Unknown 11 ACIS 5.0 NT 24 Thu Mar 25 15:16:00 1999 
-1 9.9999999999999995e-007 1e-010 
body $-1 $14 $-1 $15 #
body $-1 $16 $-1 $17 #
body $-1 $18 $-1 $19 #
body $-1 $20 $-1 $21 #
body $-1 $22 $-1 $23 #
body $-1 $24 $-1 $25 #
body $-1 $26 $-1 $27 #
body $-1 $28 $-1 $29 #
body $-1 $30 $-1 $31 #
body $-1 $32 $-1 $33 #
body $-1 $34 $-1 $35 #
body $-1 $36 $-1 $37 #
body $-1 $38 $-1 $39 #
body $-1 $40 $-1 $41 #
lump $-1 $-1 $42 $0 #
transform $-1 1 0 0 0 1 0 0 0 1 66.187322611163665 39.227204355259815 18.161931045051762 1 rotate no_reflect no_shear #
lump $-1 $-1 $43 $1 #
transform $-1 1 0 0 0 1 0 0 0 1 66.187322611163665 39.227204355259815 18.161931045051762 1 rotate no_reflect no_shear #
lump $-1 $-1 $44 $2 #
transform $-1 1 0 0 0 1 0 0 0 1 66.187322611163665 39.227204355259815 18.161931045051762 1 rotate no_reflect no_shear #
lump $-1 $-1 $45 $3 #
transform $-1 1 0 0 0 1 0 0 0 1 66.187322611163665 39.227204355259815 18.161931045051762 1 rotate no_reflect no_shear #
lump $-1 $-1 $46 $4 #
transform $-1 1 0 0 0 1 0 0 0 1 66.187322611163665 39.227204355259815 18.161931045051762 1 rotate no_reflect no_shear #
lump $-1 $-1 $47 $5 #
transform $-1 1 0 0 0 1 0 0 0 1 66.187322611163665 39.227204355259815 18.161931045051762 1 rotate no_reflect no_shear #
lump $-1 $-1 $48 $6 #
transform $-1 1 0 0 0 1 0 0 0 1 66.187322611163665 39.227204355259815 18.161931045051762 1 rotate no_reflect no_shear #
lump $-1 $-1 $49 $7 #
transform $-1 1 0 0 0 1 0 0 0 1 66.187322611163665 39.227204355259815 18.161931045051762 1 rotate no_reflect no_shear #
lump $-1 $-1 $50 $8 #
transform $-1 1 0 0 0 1 0 0 0 1 66.187322611163665 39.227204355259815 18.161931045051762 1 rotate no_reflect no_shear #
lump $-1 $-1 $51 $9 #
transform $-1 1 0 0 0 1 0 0 0 1 66.187322611163665 39.227204355259815 18.161931045051762 1 rotate no_reflect no_shear #
lump $-1 $-1 $52 $10 #
transform $-1 1 0 0 0 1 0 0 0 1 66.187322611163665 39.227204355259815 18.161931045051762 1 rotate no_reflect no_shear #
lump $-1 $-1 $53 $11 #
transform $-1 1 0 0 0 1 0 0 0 1 66.187322611163665 39.227204355259815 18.161931045051762 1 rotate no_reflect no_shear #
lump $-1 $-1 $54 $12 #
transform $-1 1 0 0 0 1 0 0 0 1 66.187322611163665 39.227204355259815 18.161931045051762 1 rotate no_reflect no_shear #
lump $-1 $-1 $55 $13 #
transform $-1 1 0 0 0 1 0 0 0 1 66.187322611163665 39.227204355259815 18.161931045051762 1 rotate no_reflect no_shear #
shell $-1 $-1 $-1 $56 $-1 $14 #
shell $-1 $-1 $-1 $57 $-1 $16 #
shell $-1 $-1 $-1 $58 $-1 $18 #
shell $-1 $-1 $-1 $59 $-1 $20 #
shell $-1 $-1 $-1 $60 $-1 $22 #
shell $-1 $-1 $-1 $61 $-1 $24 #
shell $-1 $-1 $-1 $62 $-1 $26 #
shell $-1 $-1 $-1 $63 $-1 $28 #
shell $-1 $-1 $-1 $64 $-1 $30 #
shell $-1 $-1 $-1 $65 $-1 $32 #
shell $-1 $-1 $-1 $66 $-1 $34 #
shell $-1 $-1 $-1 $67 $-1 $36 #
shell $-1 $-1 $-1 $68 $-1 $38 #
shell $-1 $-1 $-1 $69 $-1 $40 #
face $-1 $70 $71 $42 $-1 $72 forward single #
face $-1 $73 $74 $43 $-1 $75 reversed single #
face $-1 $76 $77 $44 $-1 $78 reversed single #
face $-1 $79 $80 $45 $-1 $81 forward single #
face $-1 $82 $83 $46 $-1 $84 forward single #
face $-1 $85 $86 $47 $-1 $87 forward single #
face $-1 $88 $89 $48 $-1 $90 reversed single #
face $-1 $91 $92 $49 $-1 $93 forward single #
face $-1 $94 $95 $50 $-1 $96 forward single #
face $-1 $97 $98 $51 $-1 $99 forward single #
face $-1 $100 $101 $52 $-1 $102 reversed single #
face $-1 $103 $104 $53 $-1 $105 forward single #
face $-1 $106 $107 $54 $-1 $108 forward single #
face $-1 $109 $110 $55 $-1 $111 forward single #
face $-1 $112 $113 $42 $-1 $114 reversed single #
loop $-1 $-1 $115 $56 #
plane-surface $-1 0 0 18.161931045051762 0 0 1 1 0 0 forward_v I I I I #
face $-1 $116 $117 $43 $-1 $118 reversed single #
loop $-1 $-1 $119 $57 #
plane-surface $-1 0 -29.640485007197022 12.948530641488791 0 0 1 1 0 0 forward_v I I I I #
face $-1 $120 $121 $44 $-1 $122 reversed single #
loop $-1 $-1 $123 $58 #
plane-surface $-1 114.63980837689593 -5.3796326981322817 183.0222689211665 0 -1 0 -0.86602541151947299 0 -0.49999998660252726 forward_v I I I I #
face $-1 $124 $125 $45 $-1 $126 forward single #
loop $-1 $127 $128 $59 #
cone-surface $-1 60.174315000801172 -17.118939066933841 9.3680562281277417 -0.86602541151947299 0 -0.49999998660252726 0.49999998660252726 0 -0.86602541151947299 1 I I 0 1 1 forward I I I I #
face $-1 $129 $130 $46 $-1 $131 forward single #
loop $-1 $132 $133 $60 #
cone-surface $-1 60.174315000801172 -12.716699178633256 9.3680562281277417 -0.86602541151947299 0 -0.49999998660252726 0.49999998660252726 0 -0.86602541151947299 1 I I 0 1 1 forward I I I I #
face $-1 $134 $135 $47 $-1 $136 forward single #
loop $-1 $137 $138 $61 #
cone-surface $-1 60.174315000801172 -8.3144592903326711 9.3680562281277417 -0.86602541151947299 0 -0.49999998660252726 0.49999998660252726 0 -0.86602541151947299 1 I I 0 1 1 forward I I I I #
face $-1 $139 $140 $48 $-1 $141 reversed single #
loop $-1 $-1 $142 $62 #
plane-surface $-1 -163.00001048906154 -2.9452579669628278 95.063809787345818 0 1 0 -0.73135370988377701 0 0.68199835119979291 forward_v I I I I #
face $-1 $143 $144 $49 $-1 $145 forward single #
loop $-1 $146 $147 $63 #
cone-surface $-1 -59.220022917936724 -1.4566424692865567 10.792507208604949 0.73135370988377701 0 -0.68199835119979291 0.34099917559989645 0 0.36567685494188851 1 I I 0 1 0.5 forward I I I I #
face $-1 $148 $149 $50 $-1 $150 forward single #
loop $-1 $151 $152 $64 #
cone-surface $-1 -59.220022917936724 0.77628077722784639 10.792507208604949 0.73135370988377701 0 -0.68199835119979291 0.34099917559989645 0 0.36567685494188851 1 I I 0 1 0.5 forward I I I I #
face $-1 $153 $154 $51 $-1 $155 forward single #
loop $-1 $156 $157 $65 #
cone-surface $-1 -59.220022917936724 3.0092040237422495 10.792507208604949 0.73135370988377701 0 -0.68199835119979291 0.34099917559989645 0 0.36567685494188851 1 I I 0 1 0.5 forward I I I I #
face $-1 $158 $159 $52 $-1 $160 reversed single #
loop $-1 $-1 $161 $66 #
plane-surface $-1 -163.00001048906154 14.675619174707059 95.063809787345818 0 1 0 -0.73135370988377701 0 0.68199835119979291 forward_v I I I I #
face $-1 $162 $163 $53 $-1 $164 forward single #
loop $-1 $165 $166 $67 #
cone-surface $-1 -59.220022917936724 16.16423467238333 10.792507208604949 0.73135370988377701 0 -0.68199835119979291 0.34099917559989645 0 0.36567685494188851 1 I I 0 1 0.5 forward I I I I #
face $-1 $167 $168 $54 $-1 $169 forward single #
loop $-1 $170 $171 $68 #
cone-surface $-1 -59.220022917936724 18.397157918897733 10.792507208604949 0.73135370988377701 0 -0.68199835119979291 0.34099917559989645 0 0.36567685494188851 1 I I 0 1 0.5 forward I I I I #
face $-1 $172 $173 $55 $-1 $174 forward single #
loop $-1 $175 $176 $69 #
cone-surface $-1 -59.220022917936724 20.630081165412136 10.792507208604949 0.73135370988377701 0 -0.68199835119979291 0.34099917559989645 0 0.36567685494188851 1 I I 0 1 0.5 forward I I I I #
face $-1 $177 $178 $42 $-1 $179 reversed single #
loop $-1 $-1 $180 $70 #
plane-surface $-1 0 0 -18.161931045051762 0 0 1 1 0 0 forward_v I I I I #
coedge $-1 $181 $182 $183 $184 forward $71 $-1 #
face $-1 $185 $186 $43 $-1 $187 reversed single #
loop $-1 $-1 $188 $73 #
plane-surface $-1 0 -20.053765659134228 15.555230843270277 0 -1 0 0 0 -1 forward_v I I I I #
coedge $-1 $189 $190 $191 $192 reversed $74 $-1 #
face $-1 $193 $194 $44 $-1 $195 forward single #
loop $-1 $-1 $196 $76 #
plane-surface $-1 1.7734856641027363e-006 -12.716699178633256 116.83494808348854 0.86602541151947299 0 0.49999998660252726 0.49999998660252726 0 -0.86602541151947299 forward_v I I I I #
coedge $-1 $197 $198 $199 $200 reversed $77 $-1 #
face $-1 $-1 $201 $45 $-1 $202 forward single #
loop $-1 $203 $204 $79 #
cone-surface $-1 58.337509646723149 -17.118939066933841 8.3075762003891889 -0.86602541151947299 0 -0.49999998660252726 0.24999999330126363 0 -0.43301270575973649 1 I I -0.70710678118654746 0.70710678118654746 0.5 forward I I I I #
loop $-1 $-1 $205 $59 #
coedge $-1 $128 $128 $206 $207 reversed $80 $-1 #
face $-1 $-1 $208 $46 $-1 $209 forward single #
loop $-1 $210 $211 $82 #
cone-surface $-1 58.337509646723149 -12.716699178633256 8.3075762003891889 -0.86602541151947299 0 -0.49999998660252726 0.24999999330126363 0 -0.43301270575973649 1 I I -0.70710678118654746 0.70710678118654746 0.5 forward I I I I #
loop $-1 $-1 $212 $60 #
coedge $-1 $133 $133 $213 $214 reversed $83 $-1 #
face $-1 $-1 $215 $47 $-1 $216 forward single #
loop $-1 $217 $218 $85 #
cone-surface $-1 58.337509646723149 -8.3144592903326711 8.3075762003891889 -0.86602541151947299 0 -0.49999998660252726 0.24999999330126363 0 -0.43301270575973649 1 I I -0.70710678118654746 0.70710678118654746 0.5 forward I I I I #
loop $-1 $-1 $219 $61 #
coedge $-1 $138 $138 $220 $221 reversed $86 $-1 #
face $-1 $222 $223 $48 $-1 $224 reversed single #
loop $-1 $-1 $225 $88 #
plane-surface $-1 -66.187322611163651 0.77628077722784639 4.7845200050610401 -0.73135370988377701 0 0.68199835119979291 0.68199835119979291 0 0.73135370988377701 forward_v I I I I #
coedge $-1 $226 $227 $228 $229 reversed $89 $-1 #
face $-1 $-1 $230 $49 $-1 $231 forward single #
loop $-1 $232 $233 $91 #
cone-surface $-1 -58.307203449827213 -1.4566424692865567 9.9412893043535462 0.73135370988377701 0 -0.68199835119979291 0.17049958779994823 0 0.18283842747094425 1 I I -0.70710678118654746 0.70710678118654746 0.25 forward I I I I #
loop $-1 $-1 $234 $63 #
coedge $-1 $147 $147 $235 $236 reversed $92 $-1 #
face $-1 $-1 $237 $50 $-1 $238 forward single #
loop $-1 $239 $240 $94 #
cone-surface $-1 -58.307203449827213 0.77628077722784639 9.9412893043535462 0.73135370988377701 0 -0.68199835119979291 0.17049958779994823 0 0.18283842747094425 1 I I -0.70710678118654746 0.70710678118654746 0.25 forward I I I I #
loop $-1 $-1 $241 $64 #
coedge $-1 $152 $152 $242 $243 reversed $95 $-1 #
face $-1 $-1 $244 $51 $-1 $245 forward single #
loop $-1 $246 $247 $97 #
cone-surface $-1 -58.307203449827213 3.0092040237422495 9.9412893043535462 0.73135370988377701 0 -0.68199835119979291 0.17049958779994823 0 0.18283842747094425 1 I I -0.70710678118654746 0.70710678118654746 0.25 forward I I I I #
loop $-1 $-1 $248 $65 #
coedge $-1 $157 $157 $249 $250 reversed $98 $-1 #
face $-1 $251 $252 $52 $-1 $253 reversed single #
loop $-1 $-1 $254 $100 #
plane-surface $-1 -66.187322611163651 18.397157918897733 4.7845200050610401 -0.73135370988377701 0 0.68199835119979291 0.68199835119979291 0 0.73135370988377701 forward_v I I I I #
coedge $-1 $255 $256 $257 $258 reversed $101 $-1 #
face $-1 $-1 $259 $53 $-1 $260 forward single #
loop $-1 $261 $262 $103 #
cone-surface $-1 -58.307203449827213 16.16423467238333 9.9412893043535462 0.73135370988377701 0 -0.68199835119979291 0.17049958779994823 0 0.18283842747094425 1 I I -0.70710678118654746 0.70710678118654746 0.25 forward I I I I #
loop $-1 $-1 $263 $67 #
coedge $-1 $166 $166 $264 $265 reversed $104 $-1 #
face $-1 $-1 $266 $54 $-1 $267 forward single #
loop $-1 $268 $269 $106 #
cone-surface $-1 -58.307203449827213 18.397157918897733 9.9412893043535462 0.73135370988377701 0 -0.68199835119979291 0.17049958779994823 0 0.18283842747094425 1 I I -0.70710678118654746 0.70710678118654746 0.25 forward I I I I #
loop $-1 $-1 $270 $68 #
coedge $-1 $171 $171 $271 $272 reversed $107 $-1 #
face $-1 $-1 $273 $55 $-1 $274 forward single #
loop $-1 $275 $276 $109 #
cone-surface $-1 -58.307203449827213 20.630081165412136 9.9412893043535462 0.73135370988377701 0 -0.68199835119979291 0.17049958779994823 0 0.18283842747094425 1 I I -0.70710678118654746 0.70710678118654746 0.25 forward I I I I #
loop $-1 $-1 $277 $69 #
coedge $-1 $176 $176 $278 $279 reversed $110 $-1 #
face $-1 $280 $281 $42 $-1 $282 reversed single #
loop $-1 $-1 $283 $112 #
plane-surface $-1 0 -39.227204355259815 0 0 1 0 0 0 1 forward_v I I I I #
coedge $-1 $284 $285 $286 $287 forward $113 $-1 #
coedge $-1 $288 $115 $289 $290 forward $71 $-1 #
coedge $-1 $115 $288 $291 $292 forward $71 $-1 #
coedge $-1 $293 $294 $115 $184 reversed $295 $-1 #
edge $-1 $296 -39.227204355259815 $297 39.227204355259815 $183 $298 forward 7 unknown #
face $-1 $299 $300 $43 $-1 $301 reversed single #
loop $-1 $-1 $302 $116 #
plane-surface $-1 -66.187322611163665 0 0 1 0 0 0 0 -1 forward_v I I I I #
coedge $-1 $303 $304 $305 $306 reversed $117 $-1 #
coedge $-1 $307 $119 $308 $309 reversed $74 $-1 #
coedge $-1 $119 $307 $303 $310 forward $74 $-1 #
coedge $-1 $305 $311 $119 $192 forward $312 $-1 #
edge $-1 $313 -24.406961851661304 $314 -5.2335231555357176 $191 $315 forward 7 unknown #
face $-1 $316 $317 $44 $-1 $318 forward single #
loop $-1 $-1 $319 $120 #
plane-surface $-1 0 -20.053765659134228 15.555230843270277 0 -1 0 0 0 -1 forward_v I I I I #
coedge $-1 $320 $321 $322 $323 reversed $121 $-1 #
coedge $-1 $198 $123 $324 $325 reversed $77 $-1 #
coedge $-1 $123 $197 $320 $326 reversed $77 $-1 #
coedge $-1 $322 $327 $123 $200 forward $317 $-1 #
edge $-1 $328 -8.8674184227157014 $329 0.35101150137276704 $199 $330 forward 7 unknown #
loop $-1 $-1 $206 $124 #
plane-surface $-1 1.7734856641027363e-006 -12.716699178633256 116.83494808348854 0.86602541151947299 0 0.49999998660252726 0.49999998660252726 0 -0.86602541151947299 forward_v I I I I #
loop $-1 $-1 $331 $79 #
coedge $-1 $204 $204 $205 $332 reversed $125 $-1 #
coedge $-1 $205 $205 $204 $332 forward $127 $-1 #
coedge $-1 $206 $206 $128 $207 forward $201 $-1 #
edge $-1 $333 0 $333 6.2831853071796004 $206 $334 forward 7 unknown #
loop $-1 $-1 $213 $129 #
plane-surface $-1 1.7734856641027363e-006 -12.716699178633256 116.83494808348854 0.86602541151947299 0 0.49999998660252726 0.49999998660252726 0 -0.86602541151947299 forward_v I I I I #
loop $-1 $-1 $335 $82 #
coedge $-1 $211 $211 $212 $336 reversed $130 $-1 #
coedge $-1 $212 $212 $211 $336 forward $132 $-1 #
coedge $-1 $213 $213 $133 $214 forward $208 $-1 #
edge $-1 $337 0 $337 6.2831853071796004 $213 $338 forward 7 unknown #
loop $-1 $-1 $220 $134 #
plane-surface $-1 1.7734856641027363e-006 -12.716699178633256 116.83494808348854 0.86602541151947299 0 0.49999998660252726 0.49999998660252726 0 -0.86602541151947299 forward_v I I I I #
loop $-1 $-1 $339 $85 #
coedge $-1 $218 $218 $219 $340 reversed $135 $-1 #
coedge $-1 $219 $219 $218 $340 forward $137 $-1 #
coedge $-1 $220 $220 $138 $221 forward $215 $-1 #
edge $-1 $341 0 $341 6.2831853071796004 $220 $342 forward 7 unknown #
face $-1 $343 $344 $48 $-1 $345 forward single #
loop $-1 $-1 $346 $139 #
plane-surface $-1 -163.00001048906154 4.4978195214185206 95.063809787345818 0 -1 0 0.73135370988377701 0 -0.68199835119979291 forward_v I I I I #
coedge $-1 $347 $348 $349 $350 reversed $140 $-1 #
coedge $-1 $227 $142 $351 $352 reversed $89 $-1 #
coedge $-1 $142 $226 $347 $353 reversed $89 $-1 #
coedge $-1 $349 $354 $142 $229 forward $344 $-1 #
edge $-1 $355 15.312682633367103 $356 27.787319938543867 $228 $357 forward 7 unknown #
loop $-1 $-1 $235 $143 #
plane-surface $-1 -66.187322611163651 0.77628077722784639 4.7845200050610401 -0.73135370988377701 0 0.68199835119979291 0.68199835119979291 0 0.73135370988377701 forward_v I I I I #
loop $-1 $-1 $358 $91 #
coedge $-1 $233 $233 $234 $359 reversed $144 $-1 #
coedge $-1 $234 $234 $233 $359 forward $146 $-1 #
coedge $-1 $235 $235 $147 $236 forward $230 $-1 #
edge $-1 $360 0 $360 6.2831853071796004 $235 $361 forward 7 unknown #
loop $-1 $-1 $242 $148 #
plane-surface $-1 -66.187322611163651 0.77628077722784639 4.7845200050610401 -0.73135370988377701 0 0.68199835119979291 0.68199835119979291 0 0.73135370988377701 forward_v I I I I #
loop $-1 $-1 $362 $94 #
coedge $-1 $240 $240 $241 $363 reversed $149 $-1 #
coedge $-1 $241 $241 $240 $363 forward $151 $-1 #
coedge $-1 $242 $242 $152 $243 forward $237 $-1 #
edge $-1 $364 0 $364 6.2831853071796004 $242 $365 forward 7 unknown #
loop $-1 $-1 $249 $153 #
plane-surface $-1 -66.187322611163651 0.77628077722784639 4.7845200050610401 -0.73135370988377701 0 0.68199835119979291 0.68199835119979291 0 0.73135370988377701 forward_v I I I I #
loop $-1 $-1 $366 $97 #
coedge $-1 $247 $247 $248 $367 reversed $154 $-1 #
coedge $-1 $248 $248 $247 $367 forward $156 $-1 #
coedge $-1 $249 $249 $157 $250 forward $244 $-1 #
edge $-1 $368 0 $368 6.2831853071796004 $249 $369 forward 7 unknown #
face $-1 $370 $371 $52 $-1 $372 forward single #
loop $-1 $-1 $373 $158 #
plane-surface $-1 -163.00001048906154 22.118696663088407 95.063809787345818 0 -1 0 0.73135370988377701 0 -0.68199835119979291 forward_v I I I I #
coedge $-1 $374 $375 $376 $377 reversed $159 $-1 #
coedge $-1 $256 $161 $378 $379 reversed $101 $-1 #
coedge $-1 $161 $255 $374 $380 reversed $101 $-1 #
coedge $-1 $376 $381 $161 $258 forward $371 $-1 #
edge $-1 $382 15.312682633367103 $383 27.787319938543867 $257 $384 forward 7 unknown #
loop $-1 $-1 $264 $162 #
plane-surface $-1 -66.187322611163651 18.397157918897733 4.7845200050610401 -0.73135370988377701 0 0.68199835119979291 0.68199835119979291 0 0.73135370988377701 forward_v I I I I #
loop $-1 $-1 $385 $103 #
coedge $-1 $262 $262 $263 $386 reversed $163 $-1 #
coedge $-1 $263 $263 $262 $386 forward $165 $-1 #
coedge $-1 $264 $264 $166 $265 forward $259 $-1 #
edge $-1 $387 0 $387 6.2831853071796004 $264 $388 forward 7 unknown #
loop $-1 $-1 $271 $167 #
plane-surface $-1 -66.187322611163651 18.397157918897733 4.7845200050610401 -0.73135370988377701 0 0.68199835119979291 0.68199835119979291 0 0.73135370988377701 forward_v I I I I #
loop $-1 $-1 $389 $106 #
coedge $-1 $269 $269 $270 $390 reversed $168 $-1 #
coedge $-1 $270 $270 $269 $390 forward $170 $-1 #
coedge $-1 $271 $271 $171 $272 forward $266 $-1 #
edge $-1 $391 0 $391 6.2831853071796004 $271 $392 forward 7 unknown #
loop $-1 $-1 $278 $172 #
plane-surface $-1 -66.187322611163651 18.397157918897733 4.7845200050610401 -0.73135370988377701 0 0.68199835119979291 0.68199835119979291 0 0.73135370988377701 forward_v I I I I #
loop $-1 $-1 $393 $109 #
coedge $-1 $276 $276 $277 $394 reversed $173 $-1 #
coedge $-1 $277 $277 $276 $394 forward $175 $-1 #
coedge $-1 $278 $278 $176 $279 forward $273 $-1 #
edge $-1 $395 0 $395 6.2831853071796004 $278 $396 forward 7 unknown #
face $-1 $397 $398 $42 $-1 $399 reversed single #
loop $-1 $-1 $400 $177 #
plane-surface $-1 -66.187322611163665 0 0 1 0 0 0 0 -1 forward_v I I I I #
coedge $-1 $401 $291 $402 $403 forward $178 $-1 #
coedge $-1 $404 $180 $401 $405 forward $113 $-1 #
coedge $-1 $180 $404 $406 $407 forward $113 $-1 #
coedge $-1 $294 $293 $180 $287 reversed $295 $-1 #
edge $-1 $408 -39.227204355259815 $409 39.227204355259815 $286 $410 forward 7 unknown #
coedge $-1 $182 $181 $411 $412 forward $71 $-1 #
coedge $-1 $413 $414 $181 $290 reversed $398 $-1 #
edge $-1 $297 -66.187322611163665 $415 66.187322611163665 $289 $416 forward 7 unknown #
coedge $-1 $283 $417 $182 $292 reversed $178 $-1 #
edge $-1 $418 -66.187322611163665 $296 66.187322611163665 $291 $419 forward 7 unknown #
coedge $-1 $286 $183 $417 $420 forward $295 $-1 #
coedge $-1 $183 $286 $413 $421 reversed $295 $-1 #
loop $-1 $-1 $293 $397 #
vertex $-1 $184 $422 #
vertex $-1 $184 $423 #
straight-curve $-1 66.187322611163665 0 18.161931045051762 0 1 0 I I #
face $-1 $424 $425 $43 $-1 $426 forward single #
loop $-1 $-1 $308 $185 #
plane-surface $-1 0 -39.227204355259815 0 0 1 0 0 0 1 forward_v I I I I #
coedge $-1 $427 $428 $429 $430 forward $186 $-1 #
coedge $-1 $429 $188 $190 $310 reversed $117 $-1 #
coedge $-1 $188 $429 $431 $432 reversed $117 $-1 #
coedge $-1 $433 $191 $188 $306 forward $312 $-1 #
edge $-1 $314 5.1709152198536525 $434 10.384315623416624 $305 $435 forward 7 unknown #
coedge $-1 $190 $189 $427 $436 reversed $74 $-1 #
coedge $-1 $437 $438 $189 $309 forward $300 $-1 #
edge $-1 $439 -66.187322611163665 $313 66.187322611163665 $308 $440 forward 7 unknown #
edge $-1 $441 -66.187322611163665 $314 66.187322611163665 $303 $442 forward 7 unknown #
coedge $-1 $191 $433 $437 $443 forward $312 $-1 #
loop $-1 $-1 $305 $424 #
vertex $-1 $309 $444 #
vertex $-1 $192 $445 #
straight-curve $-1 66.187322611163665 -14.820242503598511 12.948530641488791 0 1 0 I I #
face $-1 $-1 $446 $44 $-1 $447 reversed single #
loop $-1 $-1 $322 $193 #
plane-surface $-1 0 0 18.161931045051762 0 0 1 1 0 0 forward_v I I I I #
coedge $-1 $448 $449 $321 $450 reversed $194 $-1 #
coedge $-1 $451 $196 $198 $326 forward $121 $-1 #
coedge $-1 $196 $451 $319 $450 forward $121 $-1 #
coedge $-1 $452 $199 $196 $323 forward $317 $-1 #
edge $-1 $329 -0.97871689118434624 $453 13.6954160698176 $322 $454 forward 7 unknown #
coedge $-1 $455 $456 $197 $325 forward $446 $-1 #
edge $-1 $457 -89.315992980505044 $328 -73.349203415531491 $324 $458 forward 7 unknown #
edge $-1 $329 113.93778488013578 $457 132.37464522232742 $198 $459 forward 7 unknown #
coedge $-1 $199 $452 $455 $460 forward $317 $-1 #
vertex $-1 $325 $461 #
vertex $-1 $200 $462 #
straight-curve $-1 57.319904188447964 -5.3796326981322817 18.161931045051759 -1 0 0 I I #
coedge $-1 $331 $331 $-1 $463 reversed $203 $-1 #
edge $-1 $464 0 $464 6.2831853071796004 $204 $465 forward 7 unknown #
vertex $-1 $207 $466 #
ellipse-curve $-1 61.578107649119417 -17.118939066933841 10.178536262565007 0.86602541151947299 0 0.49999998660252726 0.49999998660252726 0 -0.86602541151947299 1 I I #
coedge $-1 $335 $335 $-1 $467 reversed $210 $-1 #
edge $-1 $468 0 $468 6.2831853071796004 $211 $469 forward 7 unknown #
vertex $-1 $214 $470 #
ellipse-curve $-1 61.578107649119417 -12.716699178633256 10.178536262565007 0.86602541151947299 0 0.49999998660252726 0.49999998660252726 0 -0.86602541151947299 1 I I #
coedge $-1 $339 $339 $-1 $471 reversed $217 $-1 #
edge $-1 $472 0 $472 6.2831853071796004 $218 $473 forward 7 unknown #
vertex $-1 $221 $474 #
ellipse-curve $-1 61.578107649119417 -8.3144592903326711 10.178536262565007 0.86602541151947299 0 0.49999998660252726 0.49999998660252726 0 -0.86602541151947299 1 I I #
face $-1 $-1 $475 $48 $-1 $476 reversed single #
loop $-1 $-1 $228 $222 #
plane-surface $-1 0 0 18.161931045051762 0 0 1 1 0 0 forward_v I I I I #
coedge $-1 $477 $478 $479 $480 reversed $223 $-1 #
coedge $-1 $481 $225 $227 $353 forward $140 $-1 #
coedge $-1 $225 $481 $477 $482 forward $140 $-1 #
coedge $-1 $479 $228 $225 $350 forward $344 $-1 #
edge $-1 $356 -3.333398355576751 $483 4.1096791328045974 $349 $484 forward 7 unknown #
coedge $-1 $485 $486 $226 $352 forward $475 $-1 #
edge $-1 $487 -42.747384888611883 $355 -29.369973848621147 $351 $488 forward 7 unknown #
edge $-1 $356 -18.29130126668338 $487 2.0734513383776317e-014 $227 $489 forward 7 unknown #
coedge $-1 $228 $479 $485 $490 forward $344 $-1 #
vertex $-1 $352 $491 #
vertex $-1 $229 $492 #
straight-curve $-1 -81.500005244530769 -2.9452579669628278 18.161931045051759 1 0 0 I I #
coedge $-1 $358 $358 $-1 $493 reversed $232 $-1 #
edge $-1 $494 0 $494 6.2831853071796004 $233 $495 forward 7 unknown #
vertex $-1 $236 $496 #
ellipse-curve $-1 -59.95000395857528 -1.4566424692865567 11.473225525056396 -0.73135370988377701 0 0.68199835119979291 0.34099917559989645 0 0.36567685494188851 1 I I #
coedge $-1 $362 $362 $-1 $497 reversed $239 $-1 #
edge $-1 $498 0 $498 6.2831853071796004 $240 $499 forward 7 unknown #
vertex $-1 $243 $500 #
ellipse-curve $-1 -59.95000395857528 0.77628077722784639 11.473225525056396 -0.73135370988377701 0 0.68199835119979291 0.34099917559989645 0 0.36567685494188851 1 I I #
coedge $-1 $366 $366 $-1 $501 reversed $246 $-1 #
edge $-1 $502 0 $502 6.2831853071796004 $247 $503 forward 7 unknown #
vertex $-1 $250 $504 #
ellipse-curve $-1 -59.95000395857528 3.0092040237422495 11.473225525056396 -0.73135370988377701 0 0.68199835119979291 0.34099917559989645 0 0.36567685494188851 1 I I #
face $-1 $-1 $505 $52 $-1 $506 reversed single #
loop $-1 $-1 $257 $251 #
plane-surface $-1 0 0 18.161931045051762 0 0 1 1 0 0 forward_v I I I I #
coedge $-1 $507 $508 $509 $510 reversed $252 $-1 #
coedge $-1 $511 $254 $256 $380 forward $159 $-1 #
coedge $-1 $254 $511 $507 $512 forward $159 $-1 #
coedge $-1 $509 $257 $254 $377 forward $371 $-1 #
edge $-1 $383 5.4770402152581923 $513 12.920117703639541 $376 $514 forward 7 unknown #
coedge $-1 $515 $516 $255 $379 forward $505 $-1 #
edge $-1 $517 -42.747384888611883 $382 -29.369973848621147 $378 $518 forward 7 unknown #
edge $-1 $383 -18.29130126668338 $517 2.0734513383776317e-014 $256 $519 forward 7 unknown #
coedge $-1 $257 $509 $515 $520 forward $371 $-1 #
vertex $-1 $258 $521 #
vertex $-1 $258 $522 #
straight-curve $-1 -81.500005244530769 14.675619174707059 18.161931045051759 1 0 0 I I #
coedge $-1 $385 $385 $-1 $523 reversed $261 $-1 #
edge $-1 $524 0 $524 6.2831853071796004 $262 $525 forward 7 unknown #
vertex $-1 $265 $526 #
ellipse-curve $-1 -59.95000395857528 16.16423467238333 11.473225525056396 -0.73135370988377701 0 0.68199835119979291 0.34099917559989645 0 0.36567685494188851 1 I I #
coedge $-1 $389 $389 $-1 $527 reversed $268 $-1 #
edge $-1 $528 0 $528 6.2831853071796004 $269 $529 forward 7 unknown #
vertex $-1 $272 $530 #
ellipse-curve $-1 -59.95000395857528 18.397157918897733 11.473225525056396 -0.73135370988377701 0 0.68199835119979291 0.34099917559989645 0 0.36567685494188851 1 I I #
coedge $-1 $393 $393 $-1 $531 reversed $275 $-1 #
edge $-1 $532 0 $532 6.2831853071796004 $276 $533 forward 7 unknown #
vertex $-1 $279 $534 #
ellipse-curve $-1 -59.95000395857528 20.630081165412136 11.473225525056396 -0.73135370988377701 0 0.68199835119979291 0.34099917559989645 0 0.36567685494188851 1 I I #
face $-1 $-1 $295 $42 $-1 $535 reversed single #
loop $-1 $-1 $413 $280 #
plane-surface $-1 0 39.227204355259815 0 0 -1 0 0 0 -1 forward_v I I I I #
coedge $-1 $536 $411 $414 $537 forward $281 $-1 #
coedge $-1 $417 $283 $284 $405 reversed $178 $-1 #
coedge $-1 $411 $536 $283 $403 reversed $281 $-1 #
edge $-1 $418 -18.161931045051762 $538 18.161931045051762 $402 $539 forward 7 unknown #
coedge $-1 $285 $284 $536 $540 forward $113 $-1 #
edge $-1 $409 -66.187322611163665 $538 66.187322611163665 $401 $541 forward 7 unknown #
coedge $-1 $414 $413 $285 $407 reversed $398 $-1 #
edge $-1 $542 -66.187322611163665 $408 66.187322611163665 $406 $543 forward 7 unknown #
vertex $-1 $287 $544 #
vertex $-1 $420 $545 #
straight-curve $-1 66.187322611163665 0 -18.161931045051762 0 -1 0 I I #
coedge $-1 $400 $402 $288 $412 reversed $281 $-1 #
edge $-1 $415 -39.227204355259815 $418 39.227204355259815 $411 $546 forward 7 unknown #
coedge $-1 $406 $289 $294 $421 forward $398 $-1 #
coedge $-1 $289 $406 $400 $537 reversed $398 $-1 #
vertex $-1 $290 $547 #
straight-curve $-1 0 39.227204355259815 18.161931045051762 -1 0 0 I I #
coedge $-1 $291 $401 $293 $420 reversed $178 $-1 #
vertex $-1 $412 $548 #
straight-curve $-1 0 -39.227204355259815 18.161931045051762 1 0 0 I I #
edge $-1 $296 -18.161931045051762 $409 18.161931045051762 $293 $549 forward 7 unknown #
edge $-1 $297 -18.161931045051762 $408 18.161931045051762 $294 $550 forward 7 unknown #
point $-1 66.187322611163665 -39.227204355259815 18.161931045051762 #
point $-1 66.187322611163665 39.227204355259815 18.161931045051762 #
face $-1 $-1 $312 $43 $-1 $551 reversed single #
loop $-1 $-1 $431 $299 #
plane-surface $-1 0 0 18.161931045051762 0 0 1 1 0 0 forward_v I I I I #
coedge $-1 $552 $302 $307 $436 forward $186 $-1 #
coedge $-1 $302 $552 $553 $554 reversed $186 $-1 #
coedge $-1 $304 $303 $302 $430 reversed $117 $-1 #
edge $-1 $555 -10.384315623416624 $441 -5.1709152198536525 $302 $556 forward 7 unknown #
coedge $-1 $553 $557 $304 $432 forward $425 $-1 #
edge $-1 $434 -66.187322611163665 $555 66.187322611163665 $431 $558 forward 7 unknown #
coedge $-1 $311 $305 $557 $559 reversed $312 $-1 #
vertex $-1 $306 $560 #
straight-curve $-1 66.187322611163665 -20.053765659134228 7.7776154216351383 0 0 1 I I #
edge $-1 $441 5.2335231555357176 $439 24.406961851661304 $427 $561 forward 7 unknown #
coedge $-1 $562 $308 $311 $443 reversed $300 $-1 #
coedge $-1 $308 $562 $552 $563 forward $300 $-1 #
vertex $-1 $309 $564 #
straight-curve $-1 0 -39.227204355259815 12.948530641488791 1 0 0 I I #
vertex $-1 $436 $565 #
straight-curve $-1 0 -20.053765659134228 12.948530641488791 1 0 0 I I #
edge $-1 $566 -18.161931045051762 $313 -12.948530641488791 $311 $567 forward 7 unknown #
point $-1 66.187322611163665 -39.227204355259815 12.948530641488791 #
point $-1 66.187322611163665 -20.053765659134228 12.948530641488791 #
loop $-1 $-1 $324 $316 #
plane-surface $-1 66.187322611163665 0 0 -1 0 0 0 0 1 forward_v I I I I #
coedge $-1 $449 $319 $568 $569 reversed $194 $-1 #
coedge $-1 $319 $448 $452 $570 reversed $194 $-1 #
edge $-1 $571 -132.37464522232742 $453 -113.93778488013578 $319 $572 forward 7 unknown #
coedge $-1 $321 $320 $456 $573 reversed $121 $-1 #
coedge $-1 $327 $322 $449 $570 forward $317 $-1 #
vertex $-1 $570 $574 #
straight-curve $-1 56.968892687075197 -6.358349589316628 18.161931045051759 0 -1 0 I I #
coedge $-1 $568 $324 $327 $460 reversed $446 $-1 #
coedge $-1 $324 $568 $451 $573 forward $446 $-1 #
vertex $-1 $325 $575 #
straight-curve $-1 66.187322611163665 -5.3796326981322817 91.51113446058325 0 0 1 I I #
straight-curve $-1 1.7734856641027363e-006 -5.3796326981322817 116.83494808348854 0.49999998660252726 0 -0.86602541151947299 I I #
edge $-1 $576 -20.053765659134228 $328 -5.3796326981322817 $455 $577 forward 7 unknown #
point $-1 66.187322611163665 -5.3796326981322817 18.161931045051762 #
point $-1 56.968892687075197 -5.3796326981322817 18.161931045051759 #
edge $-1 $578 1 $578 0 $331 $-1 forward 7 unknown #
vertex $-1 $332 $579 #
ellipse-curve $-1 58.770522352482885 -17.118939066933841 8.5575761936904531 0.86602541151947299 0 0.49999998660252726 0.49999998660252726 0 -0.86602541151947299 1 I I #
point $-1 62.078107635721985 -17.118939066933841 9.3125108510455572 #
edge $-1 $580 1 $580 0 $335 $-1 forward 7 unknown #
vertex $-1 $336 $581 #
ellipse-curve $-1 58.770522352482885 -12.716699178633256 8.5575761936904531 0.86602541151947299 0 0.49999998660252726 0.49999998660252726 0 -0.86602541151947299 1 I I #
point $-1 62.078107635721985 -12.716699178633256 9.3125108510455572 #
edge $-1 $582 1 $582 0 $339 $-1 forward 7 unknown #
vertex $-1 $340 $583 #
ellipse-curve $-1 58.770522352482885 -8.3144592903326711 8.5575761936904531 0.86602541151947299 0 0.49999998660252726 0.49999998660252726 0 -0.86602541151947299 1 I I #
point $-1 62.078107635721985 -8.3144592903326711 9.3125108510455572 #
loop $-1 $-1 $351 $343 #
plane-surface $-1 -66.187322611163665 0 0 1 0 0 0 0 -1 forward_v I I I I #
coedge $-1 $478 $346 $348 $482 reversed $223 $-1 #
coedge $-1 $346 $477 $584 $585 reversed $223 $-1 #
coedge $-1 $354 $349 $346 $480 forward $344 $-1 #
edge $-1 $483 -27.787319938543867 $586 -15.312682633367103 $479 $587 forward 7 unknown #
coedge $-1 $348 $347 $486 $588 reversed $140 $-1 #
edge $-1 $589 -2.0734513383776317e-014 $483 18.29130126668338 $477 $590 forward 7 unknown #
vertex $-1 $350 $591 #
straight-curve $-1 -53.712685305986895 0.38814038861392319 18.161931045051762 0 1 0 I I #
coedge $-1 $584 $351 $354 $490 reversed $475 $-1 #
coedge $-1 $351 $584 $481 $588 forward $475 $-1 #
vertex $-1 $352 $592 #
straight-curve $-1 -66.187322611163665 -2.9452579669628278 47.531904893672909 0 0 1 I I #
straight-curve $-1 -66.187322611163651 -2.9452579669628278 4.7845200050610401 -0.68199835119979291 0 -0.73135370988377701 I I #
edge $-1 $586 -4.4978195214185206 $355 2.9452579669628278 $485 $593 forward 7 unknown #
point $-1 -66.187322611163665 -2.9452579669628278 18.161931045051762 #
point $-1 -53.712685305986902 -2.9452579669628278 18.161931045051762 #
edge $-1 $594 1 $594 0 $358 $-1 forward 7 unknown #
vertex $-1 $359 $595 #
ellipse-curve $-1 -58.490041877298154 -1.4566424692865567 10.111788892153495 -0.73135370988377701 0 0.68199835119979291 0.34099917559989645 0 0.36567685494188851 1 I I #
point $-1 -59.60900478297539 -1.4566424692865567 11.838902379998293 #
edge $-1 $596 1 $596 0 $362 $-1 forward 7 unknown #
vertex $-1 $363 $597 #
ellipse-curve $-1 -58.490041877298154 0.77628077722784639 10.111788892153495 -0.73135370988377701 0 0.68199835119979291 0.34099917559989645 0 0.36567685494188851 1 I I #
point $-1 -59.60900478297539 0.77628077722784639 11.838902379998293 #
edge $-1 $598 1 $598 0 $366 $-1 forward 7 unknown #
vertex $-1 $367 $599 #
ellipse-curve $-1 -58.490041877298154 3.0092040237422495 10.111788892153495 -0.73135370988377701 0 0.68199835119979291 0.34099917559989645 0 0.36567685494188851 1 I I #
point $-1 -59.60900478297539 3.0092040237422495 11.838902379998293 #
loop $-1 $-1 $378 $370 #
plane-surface $-1 -66.187322611163665 0 0 1 0 0 0 0 -1 forward_v I I I I #
coedge $-1 $508 $373 $375 $512 reversed $252 $-1 #
coedge $-1 $373 $507 $600 $601 reversed $252 $-1 #
coedge $-1 $381 $376 $373 $510 forward $371 $-1 #
edge $-1 $513 -27.787319938543867 $602 -15.312682633367103 $509 $603 forward 7 unknown #
coedge $-1 $375 $374 $516 $604 reversed $159 $-1 #
edge $-1 $605 -2.0734513383776317e-014 $513 18.29130126668338 $507 $606 forward 7 unknown #
vertex $-1 $377 $607 #
straight-curve $-1 -53.712685305986895 9.1985789594488665 18.161931045051762 0 1 0 I I #
coedge $-1 $600 $378 $381 $520 reversed $505 $-1 #
coedge $-1 $378 $600 $511 $604 forward $505 $-1 #
vertex $-1 $379 $608 #
straight-curve $-1 -66.187322611163665 14.675619174707059 47.531904893672909 0 0 1 I I #
straight-curve $-1 -66.187322611163651 14.675619174707059 4.7845200050610401 -0.68199835119979291 0 -0.73135370988377701 I I #
edge $-1 $602 -22.118696663088407 $382 -14.675619174707059 $515 $609 forward 7 unknown #
point $-1 -66.187322611163665 14.675619174707059 18.161931045051762 #
point $-1 -53.712685305986902 14.675619174707059 18.161931045051762 #
edge $-1 $610 1 $610 0 $385 $-1 forward 7 unknown #
vertex $-1 $386 $611 #
ellipse-curve $-1 -58.490041877298154 16.16423467238333 10.111788892153495 -0.73135370988377701 0 0.68199835119979291 0.34099917559989645 0 0.36567685494188851 1 I I #
point $-1 -59.60900478297539 16.16423467238333 11.838902379998293 #
edge $-1 $612 1 $612 0 $389 $-1 forward 7 unknown #
vertex $-1 $390 $613 #
ellipse-curve $-1 -58.490041877298154 18.397157918897733 10.111788892153495 -0.73135370988377701 0 0.68199835119979291 0.34099917559989645 0 0.36567685494188851 1 I I #
point $-1 -59.60900478297539 18.397157918897733 11.838902379998293 #
edge $-1 $614 1 $614 0 $393 $-1 forward 7 unknown #
vertex $-1 $394 $615 #
ellipse-curve $-1 -58.490041877298154 20.630081165412136 10.111788892153495 -0.73135370988377701 0 0.68199835119979291 0.34099917559989645 0 0.36567685494188851 1 I I #
point $-1 -59.60900478297539 20.630081165412136 11.838902379998293 #
plane-surface $-1 66.187322611163665 0 0 -1 0 0 0 0 1 forward_v I I I I #
coedge $-1 $402 $400 $404 $540 reversed $281 $-1 #
edge $-1 $415 -18.161931045051762 $542 18.161931045051762 $414 $616 forward 7 unknown #
vertex $-1 $540 $617 #
straight-curve $-1 -66.187322611163665 -39.227204355259815 0 0 0 -1 I I #
edge $-1 $538 -39.227204355259815 $542 39.227204355259815 $536 $618 forward 7 unknown #
straight-curve $-1 0 -39.227204355259815 -18.161931045051762 -1 0 0 I I #
vertex $-1 $407 $619 #
straight-curve $-1 0 39.227204355259815 -18.161931045051762 1 0 0 I I #
point $-1 66.187322611163665 39.227204355259815 -18.161931045051762 #
point $-1 66.187322611163665 -39.227204355259815 -18.161931045051762 #
straight-curve $-1 -66.187322611163665 0 18.161931045051762 0 -1 0 I I #
point $-1 -66.187322611163665 39.227204355259815 18.161931045051762 #
point $-1 -66.187322611163665 -39.227204355259815 18.161931045051762 #
straight-curve $-1 66.187322611163665 -39.227204355259815 0 0 0 -1 I I #
straight-curve $-1 66.187322611163665 39.227204355259815 0 0 0 -1 I I #
plane-surface $-1 66.187322611163665 0 0 -1 0 0 0 0 1 forward_v I I I I #
coedge $-1 $428 $427 $438 $563 reversed $186 $-1 #
coedge $-1 $620 $431 $428 $554 forward $425 $-1 #
edge $-1 $555 20.053765659134228 $621 39.227204355259815 $428 $622 forward 7 unknown #
vertex $-1 $554 $623 #
straight-curve $-1 -66.187322611163665 -20.053765659134228 7.7776154216351383 0 0 -1 I I #
coedge $-1 $431 $620 $433 $559 forward $425 $-1 #
straight-curve $-1 0 -20.053765659134228 18.161931045051762 -1 0 0 I I #
edge $-1 $566 -39.227204355259815 $434 -20.053765659134228 $433 $624 forward 7 unknown #
point $-1 66.187322611163665 -20.053765659134228 18.161931045051762 #
straight-curve $-1 -66.187322611163665 -14.820242503598511 12.948530641488791 0 -1 0 I I #
coedge $-1 $438 $437 $620 $625 reversed $300 $-1 #
edge $-1 $621 -18.161931045051762 $439 -12.948530641488791 $552 $626 forward 7 unknown #
point $-1 -66.187322611163665 -39.227204355259815 12.948530641488791 #
point $-1 -66.187322611163665 -20.053765659134228 12.948530641488791 #
vertex $-1 $559 $627 #
straight-curve $-1 66.187322611163665 -39.227204355259815 0 0 0 -1 I I #
coedge $-1 $456 $455 $448 $569 forward $446 $-1 #
edge $-1 $576 73.349203415531491 $571 89.315992980505044 $568 $628 forward 7 unknown #
edge $-1 $453 56.96889268707519 $576 66.187322611163665 $452 $629 forward 7 unknown #
vertex $-1 $569 $630 #
straight-curve $-1 1.7734856641027363e-006 -20.053765659134228 116.83494808348854 -0.49999998660252726 0 0.86602541151947299 I I #
edge $-1 $571 -13.6954160698176 $457 0.97871689118434624 $456 $631 forward 7 unknown #
point $-1 56.96889268707519 -20.053765659134228 18.161931045051762 #
point $-1 66.187322611163665 -5.3796326981322817 2.1951414800782061 #
vertex $-1 $460 $632 #
straight-curve $-1 66.187322611163665 0 18.161931045051762 0 1 0 I I #
vertex $-1 $463 $633 #
point $-1 59.27052233908541 -17.118939066933841 7.6915507821709799 #
vertex $-1 $467 $634 #
point $-1 59.27052233908541 -12.716699178633256 7.6915507821709799 #
vertex $-1 $471 $635 #
point $-1 59.27052233908541 -8.3144592903326711 7.6915507821709799 #
coedge $-1 $486 $485 $478 $585 forward $475 $-1 #
edge $-1 $586 29.369973848621147 $589 42.747384888611883 $584 $636 forward 7 unknown #
vertex $-1 $490 $637 #
straight-curve $-1 -81.500005244530769 4.4978195214185206 18.161931045051759 -1 0 0 I I #
edge $-1 $589 -4.1096791328045974 $487 3.333398355576751 $486 $638 forward 7 unknown #
vertex $-1 $588 $639 #
straight-curve $-1 -66.187322611163651 4.4978195214185206 4.7845200050610401 0.68199835119979291 0 0.73135370988377701 I I #
point $-1 -53.712685305986902 4.4978195214185206 18.161931045051762 #
point $-1 -66.187322611163665 -2.9452579669628278 4.784520005061025 #
straight-curve $-1 -66.187322611163665 0 18.161931045051762 0 -1 0 I I #
vertex $-1 $493 $640 #
point $-1 -58.149042701698264 -1.4566424692865567 10.477465747095383 #
vertex $-1 $497 $641 #
point $-1 -58.149042701698264 0.77628077722784639 10.477465747095383 #
vertex $-1 $501 $642 #
point $-1 -58.149042701698264 3.0092040237422495 10.477465747095383 #
coedge $-1 $516 $515 $508 $601 forward $505 $-1 #
edge $-1 $602 29.369973848621147 $605 42.747384888611883 $600 $643 forward 7 unknown #
vertex $-1 $520 $644 #
straight-curve $-1 -81.500005244530769 22.118696663088407 18.161931045051759 -1 0 0 I I #
edge $-1 $605 -12.920117703639541 $517 -5.4770402152581923 $516 $645 forward 7 unknown #
vertex $-1 $604 $646 #
straight-curve $-1 -66.187322611163651 22.118696663088407 4.7845200050610401 0.68199835119979291 0 0.73135370988377701 I I #
point $-1 -53.712685305986902 22.118696663088407 18.161931045051762 #
point $-1 -66.187322611163665 14.675619174707059 4.784520005061025 #
straight-curve $-1 -66.187322611163665 0 18.161931045051762 0 -1 0 I I #
vertex $-1 $523 $647 #
point $-1 -58.149042701698264 16.16423467238333 10.477465747095383 #
vertex $-1 $527 $648 #
point $-1 -58.149042701698264 18.397157918897733 10.477465747095383 #
vertex $-1 $531 $649 #
point $-1 -58.149042701698264 20.630081165412136 10.477465747095383 #
straight-curve $-1 -66.187322611163665 39.227204355259815 0 0 0 -1 I I #
point $-1 -66.187322611163665 -39.227204355259815 -18.161931045051762 #
straight-curve $-1 -66.187322611163665 0 -18.161931045051762 0 1 0 I I #
point $-1 -66.187322611163665 39.227204355259815 -18.161931045051762 #
coedge $-1 $557 $553 $562 $625 forward $425 $-1 #
vertex $-1 $554 $650 #
straight-curve $-1 -66.187322611163665 0 18.161931045051762 0 -1 0 I I #
point $-1 -66.187322611163665 -20.053765659134228 18.161931045051762 #
straight-curve $-1 66.187322611163665 0 18.161931045051762 0 1 0 I I #
edge $-1 $621 -66.187322611163665 $566 66.187322611163665 $562 $651 forward 7 unknown #
straight-curve $-1 -66.187322611163665 -39.227204355259815 0 0 0 -1 I I #
point $-1 66.187322611163665 -39.227204355259815 18.161931045051762 #
straight-curve $-1 66.187322611163665 -20.053765659134228 91.51113446058325 0 0 -1 I I #
straight-curve $-1 0 -20.053765659134228 18.161931045051762 1 0 0 I I #
point $-1 66.187322611163665 -20.053765659134228 2.1951414800782061 #
straight-curve $-1 66.187322611163665 -6.358349589316628 2.1951414800782203 0 1 0 I I #
point $-1 66.187322611163665 -20.053765659134228 18.161931045051762 #
point $-1 57.904496940963412 -17.118939066933841 8.0575762070879247 #
point $-1 57.904496940963412 -12.716699178633256 8.0575762070879247 #
point $-1 57.904496940963412 -8.3144592903326711 8.0575762070879247 #
straight-curve $-1 -66.187322611163665 4.4978195214185206 47.531904893672909 0 0 -1 I I #
point $-1 -66.187322611163665 4.4978195214185206 18.161931045051762 #
straight-curve $-1 -66.187322611163665 0.38814038861392319 4.7845200050610384 0 -1 0 I I #
point $-1 -66.187322611163665 4.4978195214185206 4.784520005061025 #
point $-1 -58.124365022356272 -1.4566424692865567 9.7707897165535975 #
point $-1 -58.124365022356272 0.77628077722784639 9.7707897165535975 #
point $-1 -58.124365022356272 3.0092040237422495 9.7707897165535975 #
straight-curve $-1 -66.187322611163665 22.118696663088407 47.531904893672909 0 0 -1 I I #
point $-1 -66.187322611163665 22.118696663088407 18.161931045051762 #
straight-curve $-1 -66.187322611163665 9.1985789594488665 4.7845200050610384 0 -1 0 I I #
point $-1 -66.187322611163665 22.118696663088407 4.784520005061025 #
point $-1 -58.124365022356272 16.16423467238333 9.7707897165535975 #
point $-1 -58.124365022356272 18.397157918897733 9.7707897165535975 #
point $-1 -58.124365022356272 20.630081165412136 9.7707897165535975 #
point $-1 -66.187322611163665 -39.227204355259815 18.161931045051762 #
straight-curve $-1 0 -39.227204355259815 18.161931045051762 1 0 0 I I #
End-of-ACIS-data 