500 0 5 0           
7 Unknown 11 ACIS 5.0 NT 24 Fri Mar 26 02:32:37 1999 
-1 9.9999999999999995e-007 1e-010 
body $-1 $5 $-1 $6 #
body $-1 $7 $-1 $8 #
body $-1 $9 $-1 $10 #
body $-1 $11 $-1 $12 #
body $-1 $13 $-1 $14 #
lump $-1 $-1 $15 $0 #
transform $-1 1 0 0 0 1 0 0 0 1 75.739616077150799 35.838496822760703 15.186654629160882 1 rotate no_reflect no_shear #
lump $-1 $-1 $16 $1 #
transform $-1 1 0 0 0 1 0 0 0 1 75.739616077150799 35.838496822760703 15.186654629160882 1 rotate no_reflect no_shear #
lump $-1 $-1 $17 $2 #
transform $-1 1 0 0 0 1 0 0 0 1 75.739616077150799 35.838496822760703 15.186654629160882 1 rotate no_reflect no_shear #
lump $-1 $-1 $18 $3 #
transform $-1 1 0 0 0 1 0 0 0 1 75.739616077150799 35.838496822760703 15.186654629160882 1 rotate no_reflect no_shear #
lump $-1 $-1 $19 $4 #
transform $-1 1 0 0 0 1 0 0 0 1 75.739616077150799 35.838496822760703 15.186654629160882 1 rotate no_reflect no_shear #
shell $-1 $-1 $-1 $20 $-1 $5 #
shell $-1 $-1 $-1 $21 $-1 $7 #
shell $-1 $-1 $-1 $22 $-1 $9 #
shell $-1 $-1 $-1 $23 $-1 $11 #
shell $-1 $-1 $-1 $24 $-1 $13 #
face $-1 $25 $26 $15 $-1 $27 forward single #
face $-1 $28 $29 $16 $-1 $30 forward single #
face $-1 $31 $32 $17 $-1 $33 forward single #
face $-1 $34 $35 $18 $-1 $36 reversed single #
face $-1 $37 $38 $19 $-1 $39 reversed single #
face $-1 $40 $41 $15 $-1 $42 reversed single #
loop $-1 $-1 $43 $20 #
plane-surface $-1 0 0 15.186654629160882 0 0 1 1 0 0 forward_v I I I I #
face $-1 $44 $45 $16 $-1 $46 forward single #
loop $-1 $-1 $47 $21 #
plane-surface $-1 -72.787888810793277 -19.155710839636939 0 0 -1 0 0 0 -1 forward_v I I I I #
face $-1 $48 $49 $17 $-1 $50 forward single #
loop $-1 $-1 $51 $22 #
plane-surface $-1 -14.361561521123555 123.84158392961956 154.56053791992596 1 0 0 0 -0.83867057594974714 -0.54463902268945019 forward_v I I I I #
face $-1 $52 $53 $18 $-1 $54 reversed single #
loop $-1 $55 $56 $23 #
cone-surface $-1 -7.6682332253039505 34.352462334880215 13.284525432689222 0 -0.83867057594974714 -0.54463902268945019 0.5 0 0 1 I I 0 1 0.5 forward I I I I #
face $-1 $57 $58 $19 $-1 $59 reversed single #
loop $-1 $60 $61 $24 #
cone-surface $-1 2.3717592184254528 34.352462334880215 13.284525432689222 0 -0.83867057594974714 -0.54463902268945019 0.5 0 0 1 I I 0 1 0.5 forward I I I I #
face $-1 $62 $63 $15 $-1 $64 reversed single #
loop $-1 $-1 $65 $25 #
plane-surface $-1 0 0 -15.186654629160882 0 0 1 1 0 0 forward_v I I I I #
coedge $-1 $66 $67 $68 $69 forward $26 $-1 #
face $-1 $70 $71 $16 $-1 $72 forward single #
loop $-1 $-1 $73 $28 #
plane-surface $-1 -69.836161544435754 -27.497103831198821 0 -1 0 0 0 0 1 forward_v I I I I #
coedge $-1 $74 $75 $76 $77 reversed $29 $-1 #
face $-1 $78 $79 $17 $-1 $80 forward single #
loop $-1 $-1 $81 $31 #
plane-surface $-1 -2.6482370034392488 -3.1995909456540232 72.059036961658805 0 0.83867057594974714 0.54463902268945019 1 0 0 forward_v I I I I #
coedge $-1 $82 $83 $84 $85 reversed $32 $-1 #
face $-1 $86 $87 $18 $-1 $88 forward single #
loop $-1 $89 $90 $34 #
cone-surface $-1 -7.6682332253039505 33.709126216403064 12.866738085814164 0 -0.83867057594974714 -0.54463902268945019 0.25 0 0 1 I I -0.70710678118654746 0.70710678118654746 0.25 forward I I I I #
loop $-1 $-1 $91 $23 #
coedge $-1 $56 $56 $92 $93 reversed $35 $-1 #
face $-1 $94 $95 $19 $-1 $96 reversed single #
loop $-1 $97 $98 $37 #
cone-surface $-1 2.3717592184254528 33.709126216403064 12.866738085814164 0 -0.83867057594974714 -0.54463902268945019 0.25 0 0 1 I I -0.70710678118654746 0.70710678118654746 0.25 forward I I I I #
loop $-1 $-1 $99 $24 #
coedge $-1 $61 $61 $100 $101 reversed $38 $-1 #
face $-1 $102 $103 $15 $-1 $104 reversed single #
loop $-1 $-1 $105 $40 #
plane-surface $-1 0 -35.838496822760703 0 0 1 0 0 0 1 forward_v I I I I #
coedge $-1 $106 $107 $108 $109 forward $41 $-1 #
coedge $-1 $110 $43 $111 $112 forward $26 $-1 #
coedge $-1 $43 $110 $113 $114 forward $26 $-1 #
coedge $-1 $115 $116 $43 $69 reversed $117 $-1 #
edge $-1 $118 -35.838496822760703 $119 35.838496822760703 $68 $120 forward 7 unknown #
face $-1 $121 $122 $16 $-1 $123 reversed single #
loop $-1 $-1 $124 $44 #
plane-surface $-1 0 0 15.186654629160882 0 0 1 1 0 0 forward_v I I I I #
coedge $-1 $125 $126 $127 $128 reversed $45 $-1 #
coedge $-1 $129 $47 $124 $130 reversed $29 $-1 #
coedge $-1 $47 $129 $131 $132 reversed $29 $-1 #
coedge $-1 $126 $125 $47 $77 forward $45 $-1 #
edge $-1 $133 -15.186654629160882 $134 15.186654629160882 $76 $135 forward 7 unknown #
face $-1 $136 $137 $17 $-1 $138 forward single #
loop $-1 $-1 $139 $48 #
plane-surface $-1 9.0650875142450573 123.84158392961956 154.56053791992596 -1 0 0 0 0.83867057594974714 0.54463902268945019 forward_v I I I I #
coedge $-1 $140 $141 $142 $143 reversed $49 $-1 #
coedge $-1 $83 $51 $141 $144 forward $32 $-1 #
coedge $-1 $51 $82 $145 $146 reversed $32 $-1 #
coedge $-1 $147 $142 $51 $85 forward $137 $-1 #
edge $-1 $148 -28.187027168830596 $149 -26.082295142049077 $84 $150 forward 7 unknown #
face $-1 $151 $152 $18 $-1 $153 forward single #
loop $-1 $-1 $154 $52 #
plane-surface $-1 -14.361561521123555 123.84158392961956 154.56053791992596 1 0 0 0 -0.83867057594974714 -0.54463902268945019 forward_v I I I I #
loop $-1 $-1 $155 $34 #
coedge $-1 $90 $90 $91 $156 forward $53 $-1 #
coedge $-1 $91 $91 $90 $156 reversed $55 $-1 #
coedge $-1 $92 $92 $56 $93 forward $152 $-1 #
edge $-1 $157 -1.0137552539435583e-014 $157 6.2831853071795907 $92 $158 forward 7 unknown #
face $-1 $159 $160 $19 $-1 $161 reversed single #
loop $-1 $162 $163 $57 #
cone-surface $-1 -7.6682332253039505 34.352462334880215 13.284525432689222 0 -0.83867057594974714 -0.54463902268945019 0.5 0 0 1 I I 0 1 0.5 forward I I I I #
loop $-1 $-1 $164 $37 #
coedge $-1 $98 $98 $99 $165 forward $58 $-1 #
coedge $-1 $99 $99 $98 $165 reversed $60 $-1 #
coedge $-1 $100 $100 $61 $101 forward $166 $-1 #
edge $-1 $167 -1.0137552539435583e-014 $167 6.2831853071795907 $100 $168 forward 7 unknown #
face $-1 $169 $170 $15 $-1 $171 reversed single #
loop $-1 $-1 $172 $62 #
plane-surface $-1 -75.739616077150799 0 0 1 0 0 0 0 -1 forward_v I I I I #
coedge $-1 $173 $113 $174 $175 forward $63 $-1 #
coedge $-1 $176 $65 $173 $177 forward $41 $-1 #
coedge $-1 $65 $176 $178 $179 forward $41 $-1 #
coedge $-1 $116 $115 $65 $109 reversed $117 $-1 #
edge $-1 $180 -35.838496822760703 $181 35.838496822760703 $108 $182 forward 7 unknown #
coedge $-1 $67 $66 $183 $184 forward $26 $-1 #
coedge $-1 $185 $186 $66 $112 reversed $170 $-1 #
edge $-1 $119 -75.739616077150799 $187 75.739616077150799 $111 $188 forward 7 unknown #
coedge $-1 $105 $189 $67 $114 reversed $63 $-1 #
edge $-1 $190 -75.739616077150799 $118 75.739616077150799 $113 $191 forward 7 unknown #
coedge $-1 $108 $68 $189 $192 forward $117 $-1 #
coedge $-1 $68 $108 $185 $193 reversed $117 $-1 #
loop $-1 $-1 $115 $169 #
vertex $-1 $69 $194 #
vertex $-1 $69 $195 #
straight-curve $-1 75.739616077150799 0 15.186654629160882 0 1 0 I I #
face $-1 $196 $197 $16 $-1 $198 reversed single #
loop $-1 $-1 $127 $70 #
plane-surface $-1 0 -35.838496822760703 0 0 1 0 0 0 1 forward_v I I I I #
coedge $-1 $199 $200 $74 $130 forward $71 $-1 #
coedge $-1 $76 $73 $199 $201 reversed $45 $-1 #
coedge $-1 $73 $76 $202 $203 reversed $45 $-1 #
coedge $-1 $204 $205 $73 $128 forward $122 $-1 #
edge $-1 $206 -15.186654629160882 $207 15.186654629160882 $127 $208 forward 7 unknown #
coedge $-1 $75 $74 $209 $210 reversed $29 $-1 #
edge $-1 $211 -39.345671671754161 $133 -33.442217139039116 $124 $212 forward 7 unknown #
coedge $-1 $213 $202 $75 $132 forward $197 $-1 #
edge $-1 $134 33.442217139039116 $214 39.345671671754161 $131 $215 forward 7 unknown #
vertex $-1 $130 $216 #
vertex $-1 $132 $217 #
straight-curve $-1 -69.836161544435754 -19.155710839636939 0 0 0 -1 I I #
face $-1 $218 $219 $17 $-1 $220 forward single #
loop $-1 $-1 $221 $78 #
plane-surface $-1 0 0 15.186654629160882 0 0 1 1 0 0 forward_v I I I I #
coedge $-1 $222 $223 $221 $224 reversed $79 $-1 #
coedge $-1 $225 $81 $223 $226 reversed $49 $-1 #
coedge $-1 $81 $225 $82 $144 reversed $49 $-1 #
coedge $-1 $84 $221 $81 $143 forward $137 $-1 #
edge $-1 $227 -10.389206015964682 $148 13.037443019403931 $142 $228 forward 7 unknown #
edge $-1 $148 67.812540422195156 $229 71.676993645521435 $82 $230 forward 7 unknown #
coedge $-1 $231 $232 $83 $146 forward $233 $-1 #
edge $-1 $149 62.093614330802097 $229 65.334617541340009 $145 $234 forward 7 unknown #
coedge $-1 $235 $84 $232 $236 forward $137 $-1 #
vertex $-1 $143 $237 #
vertex $-1 $236 $238 #
straight-curve $-1 -14.361561521123555 61.92079196480978 15.186654629160884 0 1 0 I I #
face $-1 $239 $240 $18 $-1 $241 forward single #
loop $-1 $242 $92 $86 #
plane-surface $-1 -2.6482370034392488 -3.1995909456540232 72.059036961658805 0 0.83867057594974714 0.54463902268945019 1 0 0 forward_v I I I I #
coedge $-1 $243 $244 $245 $246 reversed $87 $-1 #
coedge $-1 $155 $155 $-1 $247 forward $89 $-1 #
edge $-1 $248 0 $248 6.2831853071796004 $90 $249 forward 7 unknown #
vertex $-1 $93 $250 #
ellipse-curve $-1 -7.6682332253039505 34.786130809369944 13.566153023891927 0 -0.83867057594974714 -0.54463902268945019 0.5 0 0 1 I I #
face $-1 $251 $252 $19 $-1 $253 forward single #
loop $-1 $254 $255 $94 #
cone-surface $-1 -7.6682332253039505 33.709126216403064 12.866738085814164 0 -0.83867057594974714 -0.54463902268945019 0.25 0 0 1 I I -0.70710678118654746 0.70710678118654746 0.25 forward I I I I #
loop $-1 $-1 $256 $57 #
coedge $-1 $163 $163 $257 $258 reversed $95 $-1 #
coedge $-1 $164 $164 $-1 $259 forward $97 $-1 #
edge $-1 $260 0 $260 6.2831853071796004 $98 $261 forward 7 unknown #
loop $-1 $262 $100 $251 #
vertex $-1 $101 $263 #
ellipse-curve $-1 2.3717592184254528 34.786130809369944 13.566153023891927 0 -0.83867057594974714 -0.54463902268945019 0.5 0 0 1 I I #
face $-1 $-1 $117 $15 $-1 $264 reversed single #
loop $-1 $-1 $185 $102 #
plane-surface $-1 0 35.838496822760703 0 0 -1 0 0 0 -1 forward_v I I I I #
coedge $-1 $265 $183 $186 $266 forward $103 $-1 #
coedge $-1 $189 $105 $106 $177 reversed $63 $-1 #
coedge $-1 $183 $265 $105 $175 reversed $103 $-1 #
edge $-1 $190 -15.186654629160882 $267 15.186654629160882 $174 $268 forward 7 unknown #
coedge $-1 $107 $106 $265 $269 forward $41 $-1 #
edge $-1 $181 -75.739616077150799 $267 75.739616077150799 $173 $270 forward 7 unknown #
coedge $-1 $186 $185 $107 $179 reversed $170 $-1 #
edge $-1 $271 -75.739616077150799 $180 75.739616077150799 $178 $272 forward 7 unknown #
vertex $-1 $109 $273 #
vertex $-1 $192 $274 #
straight-curve $-1 75.739616077150799 0 -15.186654629160882 0 -1 0 I I #
coedge $-1 $172 $174 $110 $184 reversed $103 $-1 #
edge $-1 $187 -35.838496822760703 $190 35.838496822760703 $183 $275 forward 7 unknown #
coedge $-1 $178 $111 $116 $193 forward $170 $-1 #
coedge $-1 $111 $178 $172 $266 reversed $170 $-1 #
vertex $-1 $112 $276 #
straight-curve $-1 0 35.838496822760703 15.186654629160882 -1 0 0 I I #
coedge $-1 $113 $173 $115 $192 reversed $63 $-1 #
vertex $-1 $184 $277 #
straight-curve $-1 0 -35.838496822760703 15.186654629160882 1 0 0 I I #
edge $-1 $118 -15.186654629160882 $181 15.186654629160882 $115 $278 forward 7 unknown #
edge $-1 $119 -15.186654629160882 $180 15.186654629160882 $116 $279 forward 7 unknown #
point $-1 75.739616077150799 -35.838496822760703 15.186654629160882 #
point $-1 75.739616077150799 35.838496822760703 15.186654629160882 #
face $-1 $280 $281 $16 $-1 $282 reversed single #
loop $-1 $-1 $131 $121 #
plane-surface $-1 0 0 -15.186654629160882 0 0 1 1 0 0 forward_v I I I I #
coedge $-1 $283 $124 $125 $201 forward $71 $-1 #
coedge $-1 $124 $284 $285 $286 forward $71 $-1 #
edge $-1 $133 5.4071589240375282 $206 22.089944907161293 $199 $287 forward 7 unknown #
coedge $-1 $131 $288 $126 $203 forward $197 $-1 #
edge $-1 $207 -22.089944907161293 $134 -5.4071589240375282 $202 $289 forward 7 unknown #
coedge $-1 $290 $127 $288 $291 reversed $122 $-1 #
coedge $-1 $127 $290 $283 $292 reversed $122 $-1 #
vertex $-1 $292 $293 #
vertex $-1 $128 $294 #
straight-curve $-1 -69.836161544435754 -35.838496822760703 0 0 0 -1 I I #
coedge $-1 $285 $295 $129 $210 forward $281 $-1 #
edge $-1 $214 -15.186654629160882 $211 15.186654629160882 $209 $296 forward 7 unknown #
vertex $-1 $210 $297 #
straight-curve $-1 -36.393944405396638 -19.155710839636939 15.186654629160882 1 0 0 I I #
coedge $-1 $298 $131 $295 $299 forward $197 $-1 #
vertex $-1 $299 $300 #
straight-curve $-1 -36.393944405396638 -19.155710839636939 -15.186654629160882 -1 0 0 I I #
point $-1 -69.836161544435754 -19.155710839636939 15.186654629160882 #
point $-1 -69.836161544435754 -19.155710839636939 -15.186654629160882 #
face $-1 $301 $302 $17 $-1 $303 forward single #
loop $-1 $-1 $304 $136 #
plane-surface $-1 -72.787888810793277 -19.155710839636939 0 0 -1 0 0 0 -1 forward_v I I I I #
coedge $-1 $142 $305 $139 $224 forward $137 $-1 #
coedge $-1 $223 $139 $306 $307 reversed $79 $-1 #
coedge $-1 $139 $222 $140 $226 forward $79 $-1 #
edge $-1 $308 26.082295142049077 $227 28.187027168830596 $221 $309 forward 7 unknown #
coedge $-1 $141 $140 $231 $310 reversed $49 $-1 #
edge $-1 $311 -71.676993645521435 $227 -67.812540422195156 $223 $312 forward 7 unknown #
vertex $-1 $143 $313 #
straight-curve $-1 -1.3241185017196244 33.733764795979184 15.186654629160884 -1 0 0 I I #
vertex $-1 $310 $314 #
straight-curve $-1 -14.361561521123555 -3.1995909456540232 72.059036961658805 0 0.54463902268945019 -0.83867057594974714 I I #
coedge $-1 $306 $145 $225 $310 forward $233 $-1 #
coedge $-1 $145 $315 $147 $236 reversed $233 $-1 #
loop $-1 $-1 $306 $316 #
straight-curve $-1 -14.361561521123555 35.838496822760703 77.280268959962982 0 0 -1 I I #
coedge $-1 $317 $147 $318 $319 forward $137 $-1 #
edge $-1 $149 14.361561521123555 $320 75.739616077150799 $232 $321 forward 7 unknown #
point $-1 -14.361561521123555 33.733764795979184 15.186654629160884 #
point $-1 -14.361561521123555 35.838496822760703 15.186654629160882 #
face $-1 $322 $323 $18 $-1 $324 forward single #
loop $-1 $-1 $325 $151 #
plane-surface $-1 9.0650875142450573 123.84158392961956 154.56053791992596 -1 0 0 0 0.83867057594974714 0.54463902268945019 forward_v I I I I #
loop $-1 $-1 $326 $86 #
coedge $-1 $244 $154 $327 $328 forward $87 $-1 #
coedge $-1 $154 $243 $329 $330 reversed $87 $-1 #
coedge $-1 $331 $332 $154 $246 forward $323 $-1 #
edge $-1 $333 -28.187027168830596 $334 -26.082295142049077 $245 $335 forward 7 unknown #
edge $-1 $336 1 $336 0 $155 $-1 forward 7 unknown #
vertex $-1 $156 $337 #
ellipse-curve $-1 -7.6682332253039505 33.918793860390501 13.002897841486527 0 0.83867057594974714 0.54463902268945019 0.5 0 0 1 I I #
point $-1 -7.1682332253039505 34.786130809369936 13.566153023891916 #
face $-1 $338 $166 $19 $-1 $339 forward single #
loop $-1 $-1 $340 $159 #
plane-surface $-1 -14.361561521123555 123.84158392961956 154.56053791992596 1 0 0 0 -0.83867057594974714 -0.54463902268945019 forward_v I I I I #
loop $-1 $-1 $341 $94 #
coedge $-1 $255 $255 $256 $342 forward $160 $-1 #
coedge $-1 $256 $256 $255 $342 reversed $162 $-1 #
coedge $-1 $257 $257 $163 $258 forward $262 $-1 #
edge $-1 $343 -1.0137552539435583e-014 $343 6.2831853071795907 $257 $344 forward 7 unknown #
edge $-1 $345 1 $345 0 $164 $-1 forward 7 unknown #
vertex $-1 $165 $346 #
ellipse-curve $-1 2.3717592184254528 33.918793860390501 13.002897841486527 0 0.83867057594974714 0.54463902268945019 0.5 0 0 1 I I #
loop $-1 $347 $257 $251 #
point $-1 2.8717592184254528 34.786130809369936 13.566153023891916 #
plane-surface $-1 75.739616077150799 0 0 -1 0 0 0 0 1 forward_v I I I I #
coedge $-1 $174 $172 $176 $269 reversed $103 $-1 #
edge $-1 $187 -15.186654629160882 $271 15.186654629160882 $186 $348 forward 7 unknown #
vertex $-1 $269 $349 #
straight-curve $-1 -75.739616077150799 -35.838496822760703 0 0 0 -1 I I #
edge $-1 $267 -35.838496822760703 $271 35.838496822760703 $265 $350 forward 7 unknown #
straight-curve $-1 0 -35.838496822760703 -15.186654629160882 -1 0 0 I I #
vertex $-1 $179 $351 #
straight-curve $-1 0 35.838496822760703 -15.186654629160882 1 0 0 I I #
point $-1 75.739616077150799 35.838496822760703 -15.186654629160882 #
point $-1 75.739616077150799 -35.838496822760703 -15.186654629160882 #
straight-curve $-1 -75.739616077150799 0 15.186654629160882 0 -1 0 I I #
point $-1 -75.739616077150799 35.838496822760703 15.186654629160882 #
point $-1 -75.739616077150799 -35.838496822760703 15.186654629160882 #
straight-curve $-1 75.739616077150799 -35.838496822760703 0 0 0 -1 I I #
straight-curve $-1 75.739616077150799 35.838496822760703 0 0 0 -1 I I #
face $-1 $352 $353 $16 $-1 $354 reversed single #
loop $-1 $-1 $209 $196 #
plane-surface $-1 -75.739616077150799 0 0 1 0 0 0 0 -1 forward_v I I I I #
coedge $-1 $355 $199 $205 $292 forward $71 $-1 #
coedge $-1 $200 $355 $356 $357 forward $71 $-1 #
coedge $-1 $358 $209 $200 $286 reversed $281 $-1 #
edge $-1 $359 -35.838496822760703 $211 19.155710839636939 $285 $360 forward 7 unknown #
straight-curve $-1 -69.836161544435754 -13.74855191559941 15.186654629160882 0 -1 0 I I #
coedge $-1 $202 $361 $204 $291 forward $197 $-1 #
straight-curve $-1 -69.836161544435754 -13.74855191559941 -15.186654629160882 0 1 0 I I #
coedge $-1 $205 $204 $362 $363 reversed $122 $-1 #
edge $-1 $364 -75.739616077150799 $207 69.836161544435754 $204 $365 forward 7 unknown #
edge $-1 $206 -69.836161544435754 $366 75.739616077150799 $205 $367 forward 7 unknown #
point $-1 -69.836161544435754 -35.838496822760703 15.186654629160882 #
point $-1 -69.836161544435754 -35.838496822760703 -15.186654629160882 #
coedge $-1 $209 $358 $213 $299 reversed $281 $-1 #
straight-curve $-1 -75.739616077150799 -19.155710839636939 0 0 0 1 I I #
point $-1 -75.739616077150799 -19.155710839636939 15.186654629160882 #
coedge $-1 $361 $213 $368 $369 forward $197 $-1 #
edge $-1 $214 -19.155710839636939 $370 35.838496822760703 $295 $371 forward 7 unknown #
point $-1 -75.739616077150799 -19.155710839636939 -15.186654629160882 #
face $-1 $372 $373 $17 $-1 $374 reversed single #
loop $-1 $-1 $375 $218 #
plane-surface $-1 -69.836161544435754 -27.497103831198821 0 -1 0 0 0 0 1 forward_v I I I I #
coedge $-1 $376 $377 $378 $379 reversed $219 $-1 #
coedge $-1 $221 $380 $381 $382 forward $137 $-1 #
coedge $-1 $381 $231 $222 $307 forward $233 $-1 #
edge $-1 $311 -65.334617541340009 $308 -62.093614330802097 $306 $383 forward 7 unknown #
vertex $-1 $307 $384 #
straight-curve $-1 9.0650875142450573 61.92079196480978 15.186654629160884 0 -1 0 I I #
edge $-1 $229 -13.037443019403931 $311 10.389206015964682 $231 $385 forward 7 unknown #
vertex $-1 $310 $386 #
straight-curve $-1 9.0650875142450573 -3.1995909456540232 72.059036961658805 0 -0.54463902268945019 0.83867057594974714 I I #
point $-1 9.0650875142450573 33.733764795979184 15.186654629160884 #
point $-1 -14.361561521123555 35.838496822760703 11.94565141862298 #
coedge $-1 $232 $387 $388 $389 reversed $233 $-1 #
face $-1 $390 $233 $17 $-1 $391 reversed single #
coedge $-1 $392 $235 $376 $393 forward $137 $-1 #
coedge $-1 $388 $394 $235 $319 reversed $395 $-1 #
edge $-1 $320 -35.838496822760703 $396 19.155710839636939 $318 $397 forward 7 unknown #
vertex $-1 $236 $398 #
straight-curve $-1 0 35.838496822760703 15.186654629160882 -1 0 0 I I #
face $-1 $399 $400 $18 $-1 $401 forward single #
loop $-1 $-1 $402 $239 #
plane-surface $-1 0 0 15.186654629160882 0 0 1 1 0 0 forward_v I I I I #
coedge $-1 $403 $404 $402 $405 reversed $240 $-1 #
coedge $-1 $406 $327 $332 $407 reversed $242 $-1 #
coedge $-1 $326 $408 $243 $328 reversed $242 $-1 #
edge $-1 $333 67.812540422195156 $409 71.676993645521435 $243 $410 forward 7 unknown #
coedge $-1 $411 $412 $244 $330 forward $413 $-1 #
edge $-1 $334 62.093614330802097 $409 65.334617541340009 $329 $414 forward 7 unknown #
coedge $-1 $415 $245 $412 $416 forward $323 $-1 #
coedge $-1 $245 $402 $326 $407 forward $323 $-1 #
vertex $-1 $407 $417 #
vertex $-1 $416 $418 #
straight-curve $-1 -14.361561521123555 61.92079196480978 15.186654629160884 0 1 0 I I #
vertex $-1 $247 $419 #
point $-1 -7.1682332253039505 33.918793860390501 13.002897841486527 #
face $-1 $420 $421 $19 $-1 $422 forward single #
plane-surface $-1 -2.6482370034392488 -3.1995909456540232 72.059036961658805 0 0.83867057594974714 0.54463902268945019 1 0 0 forward_v I I I I #
coedge $-1 $423 $424 $425 $426 reversed $252 $-1 #
coedge $-1 $341 $341 $-1 $427 forward $254 $-1 #
edge $-1 $428 0 $428 6.2831853071796004 $255 $429 forward 7 unknown #
vertex $-1 $258 $430 #
ellipse-curve $-1 -7.6682332253039505 34.786130809369944 13.566153023891927 0 -0.83867057594974714 -0.54463902268945019 0.5 0 0 1 I I #
vertex $-1 $259 $431 #
point $-1 2.8717592184254528 33.918793860390501 13.002897841486527 #
loop $-1 $-1 $432 $251 #
straight-curve $-1 -75.739616077150799 35.838496822760703 0 0 0 -1 I I #
point $-1 -75.739616077150799 -35.838496822760703 -15.186654629160882 #
straight-curve $-1 -75.739616077150799 0 -15.186654629160882 0 1 0 I I #
point $-1 -75.739616077150799 35.838496822760703 -15.186654629160882 #
face $-1 $-1 $433 $16 $-1 $434 reversed single #
loop $-1 $-1 $435 $280 #
plane-surface $-1 0 35.838496822760703 0 0 -1 0 0 0 -1 forward_v I I I I #
coedge $-1 $284 $283 $436 $437 forward $71 $-1 #
coedge $-1 $435 $438 $284 $357 reversed $353 $-1 #
edge $-1 $439 -75.739616077150799 $359 75.739616077150799 $356 $440 forward 7 unknown #
coedge $-1 $295 $285 $438 $441 forward $281 $-1 #
vertex $-1 $357 $442 #
straight-curve $-1 -75.739616077150799 0 15.186654629160882 0 -1 0 I I #
coedge $-1 $288 $298 $443 $444 forward $197 $-1 #
coedge $-1 $443 $436 $290 $363 forward $433 $-1 #
edge $-1 $366 -15.186654629160882 $364 15.186654629160882 $362 $445 forward 7 unknown #
vertex $-1 $363 $446 #
straight-curve $-1 0 -35.838496822760703 -15.186654629160882 -1 0 0 I I #
vertex $-1 $437 $447 #
straight-curve $-1 0 -35.838496822760703 15.186654629160882 1 0 0 I I #
coedge $-1 $438 $435 $298 $369 reversed $353 $-1 #
edge $-1 $370 -75.739616077150799 $448 75.739616077150799 $368 $449 forward 7 unknown #
vertex $-1 $369 $450 #
straight-curve $-1 -75.739616077150799 0 -15.186654629160882 0 1 0 I I #
face $-1 $451 $452 $17 $-1 $453 reversed single #
loop $-1 $-1 $454 $301 #
plane-surface $-1 0 -35.838496822760703 0 0 1 0 0 0 1 forward_v I I I I #
coedge $-1 $455 $456 $454 $457 reversed $302 $-1 #
coedge $-1 $458 $304 $317 $393 reversed $219 $-1 #
coedge $-1 $304 $458 $459 $460 reversed $219 $-1 #
coedge $-1 $456 $455 $304 $379 forward $302 $-1 #
edge $-1 $461 -15.186654629160882 $462 15.186654629160882 $378 $463 forward 7 unknown #
coedge $-1 $305 $464 $465 $466 forward $137 $-1 #
coedge $-1 $467 $306 $305 $382 reversed $233 $-1 #
edge $-1 $468 -75.739616077150799 $308 -9.0650875142450573 $381 $321 forward 7 unknown #
straight-curve $-1 9.0650875142450573 35.838496822760703 77.280268959962982 0 0 1 I I #
point $-1 9.0650875142450573 35.838496822760703 15.186654629160882 #
straight-curve $-1 -1.3241185017196244 35.838496822760703 11.945651418622976 1 0 0 I I #
point $-1 9.0650875142450573 35.838496822760703 11.94565141862298 #
coedge $-1 $315 $467 $469 $470 reversed $233 $-1 #
coedge $-1 $471 $318 $315 $389 forward $395 $-1 #
edge $-1 $320 -15.186654629160882 $472 15.186654629160882 $315 $473 forward 7 unknown #
face $-1 $-1 $474 $17 $-1 $475 reversed single #
plane-surface $-1 0 35.838496822760703 0 0 -1 0 0 0 -1 forward_v I I I I #
coedge $-1 $464 $317 $455 $476 forward $137 $-1 #
edge $-1 $396 -39.345671671754161 $461 -33.442217139039116 $317 $477 forward 7 unknown #
coedge $-1 $318 $471 $458 $478 forward $395 $-1 #
loop $-1 $-1 $394 $451 #
vertex $-1 $478 $479 #
straight-curve $-1 -75.739616077150799 0 15.186654629160882 0 -1 0 I I #
point $-1 -75.739616077150799 35.838496822760703 15.186654629160882 #
face $-1 $480 $481 $18 $-1 $482 forward single #
loop $-1 $-1 $483 $322 #
plane-surface $-1 -72.787888810793277 -19.155710839636939 0 0 -1 0 0 0 -1 forward_v I I I I #
coedge $-1 $332 $484 $325 $405 forward $323 $-1 #
coedge $-1 $404 $325 $485 $486 reversed $240 $-1 #
coedge $-1 $325 $403 $406 $487 forward $240 $-1 #
edge $-1 $488 26.082295142049077 $489 28.187027168830596 $402 $490 forward 7 unknown #
coedge $-1 $408 $326 $404 $487 reversed $242 $-1 #
edge $-1 $489 -10.389206015964682 $333 13.037443019403931 $332 $491 forward 7 unknown #
coedge $-1 $327 $406 $411 $492 reversed $242 $-1 #
vertex $-1 $492 $493 #
straight-curve $-1 -14.361561521123555 -3.1995909456540232 72.059036961658805 0 0.54463902268945019 -0.83867057594974714 I I #
coedge $-1 $485 $329 $408 $492 forward $413 $-1 #
coedge $-1 $329 $494 $331 $416 reversed $413 $-1 #
loop $-1 $-1 $485 $495 #
straight-curve $-1 -14.361561521123555 35.838496822760703 77.280268959962982 0 0 -1 I I #
coedge $-1 $496 $331 $497 $498 forward $323 $-1 #
edge $-1 $334 14.361561521123555 $499 75.739616077150799 $412 $500 forward 7 unknown #
point $-1 -14.361561521123555 33.733764795979184 15.186654629160884 #
point $-1 -14.361561521123555 35.838496822760703 15.186654629160882 #
point $-1 -7.6682332253039505 33.499458572415627 12.730578330141801 #
face $-1 $501 $502 $19 $-1 $503 forward single #
loop $-1 $-1 $504 $338 #
plane-surface $-1 9.0650875142450573 123.84158392961956 154.56053791992596 -1 0 0 0 0.83867057594974714 0.54463902268945019 forward_v I I I I #
coedge $-1 $424 $340 $505 $506 forward $252 $-1 #
coedge $-1 $340 $423 $507 $508 reversed $252 $-1 #
coedge $-1 $509 $510 $340 $426 forward $502 $-1 #
edge $-1 $511 -28.187027168830596 $512 -26.082295142049077 $425 $513 forward 7 unknown #
edge $-1 $514 1 $514 0 $341 $-1 forward 7 unknown #
vertex $-1 $342 $515 #
ellipse-curve $-1 -7.6682332253039505 33.918793860390501 13.002897841486527 0 0.83867057594974714 0.54463902268945019 0.5 0 0 1 I I #
point $-1 -7.1682332253039505 34.786130809369936 13.566153023891916 #
point $-1 2.3717592184254528 33.499458572415627 12.730578330141801 #
coedge $-1 $516 $505 $510 $517 reversed $347 $-1 #
loop $-1 $-1 $362 $352 #
plane-surface $-1 75.739616077150799 0 0 -1 0 0 0 0 1 forward_v I I I I #
coedge $-1 $368 $356 $518 $519 forward $353 $-1 #
coedge $-1 $362 $518 $355 $437 reversed $433 $-1 #
edge $-1 $366 -35.838496822760703 $439 35.838496822760703 $436 $520 forward 7 unknown #
coedge $-1 $356 $368 $358 $441 reversed $353 $-1 #
vertex $-1 $437 $521 #
straight-curve $-1 0 35.838496822760703 15.186654629160882 -1 0 0 I I #
edge $-1 $359 -15.186654629160882 $370 15.186654629160882 $438 $522 forward 7 unknown #
point $-1 -75.739616077150799 35.838496822760703 15.186654629160882 #
coedge $-1 $518 $362 $361 $444 reversed $433 $-1 #
edge $-1 $448 -35.838496822760703 $364 35.838496822760703 $443 $523 forward 7 unknown #
straight-curve $-1 75.739616077150799 -35.838496822760703 0 0 0 -1 I I #
point $-1 75.739616077150799 -35.838496822760703 -15.186654629160882 #
point $-1 75.739616077150799 -35.838496822760703 15.186654629160882 #
vertex $-1 $444 $524 #
straight-curve $-1 0 35.838496822760703 -15.186654629160882 1 0 0 I I #
point $-1 -75.739616077150799 35.838496822760703 -15.186654629160882 #
face $-1 $316 $395 $17 $-1 $525 reversed single #
loop $-1 $-1 $459 $372 #
plane-surface $-1 0 0 -15.186654629160882 0 0 1 1 0 0 forward_v I I I I #
coedge $-1 $526 $527 $375 $457 forward $373 $-1 #
coedge $-1 $378 $375 $392 $476 reversed $302 $-1 #
coedge $-1 $375 $378 $528 $529 reversed $302 $-1 #
edge $-1 $530 -15.186654629160882 $531 15.186654629160882 $454 $532 forward 7 unknown #
coedge $-1 $377 $376 $394 $478 reversed $219 $-1 #
coedge $-1 $533 $528 $377 $460 forward $452 $-1 #
edge $-1 $462 33.442217139039116 $534 39.345671671754161 $459 $535 forward 7 unknown #
vertex $-1 $393 $536 #
vertex $-1 $460 $537 #
straight-curve $-1 -69.836161544435754 -19.155710839636939 0 0 0 -1 I I #
coedge $-1 $380 $392 $527 $538 forward $137 $-1 #
coedge $-1 $539 $540 $380 $466 reversed $474 $-1 #
edge $-1 $541 -35.838496822760703 $468 35.838496822760703 $465 $542 forward 7 unknown #
coedge $-1 $387 $381 $540 $543 forward $233 $-1 #
vertex $-1 $466 $544 #
coedge $-1 $545 $533 $387 $470 forward $452 $-1 #
edge $-1 $472 -75.739616077150799 $546 75.739616077150799 $387 $547 forward 7 unknown #
coedge $-1 $394 $388 $533 $548 reversed $395 $-1 #
vertex $-1 $470 $549 #
straight-curve $-1 -75.739616077150799 35.838496822760703 0 0 0 -1 I I #
loop $-1 $-1 $539 $390 #
plane-surface $-1 75.739616077150799 0 0 -1 0 0 0 0 1 forward_v I I I I #
edge $-1 $461 5.4071589240375282 $530 22.089944907161293 $392 $550 forward 7 unknown #
straight-curve $-1 -36.393944405396638 -19.155710839636939 15.186654629160882 1 0 0 I I #
edge $-1 $534 -15.186654629160882 $396 15.186654629160882 $394 $551 forward 7 unknown #
point $-1 -75.739616077150799 -19.155710839636939 15.186654629160882 #
face $-1 $552 $553 $18 $-1 $554 reversed single #
loop $-1 $-1 $555 $399 #
plane-surface $-1 -69.836161544435754 -27.497103831198821 0 -1 0 0 0 0 1 forward_v I I I I #
coedge $-1 $556 $557 $558 $559 reversed $400 $-1 #
coedge $-1 $402 $560 $561 $562 forward $323 $-1 #
coedge $-1 $561 $411 $403 $486 forward $413 $-1 #
edge $-1 $563 -65.334617541340009 $488 -62.093614330802097 $485 $564 forward 7 unknown #
edge $-1 $563 -71.676993645521435 $489 -67.812540422195156 $404 $565 forward 7 unknown #
vertex $-1 $486 $566 #
vertex $-1 $407 $567 #
straight-curve $-1 9.0650875142450573 61.92079196480978 15.186654629160884 0 -1 0 I I #
straight-curve $-1 -1.3241185017196244 33.733764795979184 15.186654629160884 -1 0 0 I I #
edge $-1 $409 -13.037443019403931 $563 10.389206015964682 $411 $568 forward 7 unknown #
point $-1 -14.361561521123555 35.838496822760703 11.94565141862298 #
coedge $-1 $412 $569 $570 $571 reversed $413 $-1 #
face $-1 $572 $413 $18 $-1 $573 reversed single #
coedge $-1 $574 $415 $556 $575 forward $323 $-1 #
coedge $-1 $570 $576 $415 $498 reversed $577 $-1 #
edge $-1 $499 -35.838496822760703 $578 19.155710839636939 $497 $579 forward 7 unknown #
vertex $-1 $416 $580 #
straight-curve $-1 0 35.838496822760703 15.186654629160882 -1 0 0 I I #
face $-1 $581 $582 $19 $-1 $583 forward single #
loop $-1 $-1 $584 $420 #
plane-surface $-1 0 0 15.186654629160882 0 0 1 1 0 0 forward_v I I I I #
coedge $-1 $585 $586 $584 $587 reversed $421 $-1 #
coedge $-1 $432 $588 $423 $506 reversed $347 $-1 #
edge $-1 $511 67.812540422195156 $589 71.676993645521435 $423 $590 forward 7 unknown #
coedge $-1 $591 $592 $424 $508 forward $593 $-1 #
edge $-1 $512 62.093614330802097 $589 65.334617541340009 $507 $594 forward 7 unknown #
coedge $-1 $595 $425 $592 $596 forward $502 $-1 #
coedge $-1 $425 $584 $432 $517 forward $502 $-1 #
vertex $-1 $517 $597 #
vertex $-1 $596 $598 #
straight-curve $-1 -14.361561521123555 61.92079196480978 15.186654629160884 0 1 0 I I #
vertex $-1 $427 $599 #
point $-1 -7.1682332253039505 33.918793860390501 13.002897841486527 #
coedge $-1 $588 $432 $586 $600 reversed $347 $-1 #
edge $-1 $601 -10.389206015964682 $511 13.037443019403931 $510 $602 forward 7 unknown #
coedge $-1 $436 $443 $435 $519 reversed $433 $-1 #
edge $-1 $439 -15.186654629160882 $448 15.186654629160882 $518 $603 forward 7 unknown #
straight-curve $-1 75.739616077150799 0 15.186654629160882 0 1 0 I I #
point $-1 75.739616077150799 35.838496822760703 15.186654629160882 #
straight-curve $-1 -75.739616077150799 35.838496822760703 0 0 0 -1 I I #
straight-curve $-1 75.739616077150799 0 -15.186654629160882 0 -1 0 I I #
point $-1 75.739616077150799 35.838496822760703 -15.186654629160882 #
plane-surface $-1 -75.739616077150799 0 0 1 0 0 0 0 -1 forward_v I I I I #
coedge $-1 $604 $454 $605 $606 reversed $373 $-1 #
coedge $-1 $454 $604 $464 $538 reversed $373 $-1 #
coedge $-1 $459 $605 $456 $529 forward $452 $-1 #
edge $-1 $531 -22.089944907161293 $462 -5.4071589240375282 $528 $607 forward 7 unknown #
vertex $-1 $538 $608 #
vertex $-1 $457 $609 #
straight-curve $-1 -69.836161544435754 -35.838496822760703 0 0 0 -1 I I #
coedge $-1 $469 $459 $471 $548 forward $452 $-1 #
vertex $-1 $548 $610 #
straight-curve $-1 -36.393944405396638 -19.155710839636939 -15.186654629160882 -1 0 0 I I #
point $-1 -69.836161544435754 -19.155710839636939 15.186654629160882 #
point $-1 -69.836161544435754 -19.155710839636939 -15.186654629160882 #
edge $-1 $530 -69.836161544435754 $541 75.739616077150799 $527 $611 forward 7 unknown #
coedge $-1 $612 $465 $604 $613 forward $474 $-1 #
coedge $-1 $465 $612 $467 $543 reversed $474 $-1 #
vertex $-1 $466 $614 #
straight-curve $-1 75.739616077150799 0 15.186654629160882 0 1 0 I I #
edge $-1 $468 -15.186654629160882 $546 15.186654629160882 $540 $615 forward 7 unknown #
point $-1 75.739616077150799 35.838496822760703 15.186654629160882 #
coedge $-1 $605 $469 $612 $616 forward $452 $-1 #
vertex $-1 $616 $617 #
straight-curve $-1 0 35.838496822760703 -15.186654629160882 1 0 0 I I #
edge $-1 $534 -19.155710839636939 $472 35.838496822760703 $471 $618 forward 7 unknown #
point $-1 -75.739616077150799 35.838496822760703 -15.186654629160882 #
straight-curve $-1 -69.836161544435754 -13.74855191559941 15.186654629160882 0 -1 0 I I #
straight-curve $-1 -75.739616077150799 -19.155710839636939 0 0 0 1 I I #
face $-1 $619 $620 $18 $-1 $621 reversed single #
loop $-1 $-1 $622 $480 #
plane-surface $-1 0 -35.838496822760703 0 0 1 0 0 0 1 forward_v I I I I #
coedge $-1 $623 $624 $622 $625 reversed $481 $-1 #
coedge $-1 $626 $483 $496 $575 reversed $400 $-1 #
coedge $-1 $483 $626 $627 $628 reversed $400 $-1 #
coedge $-1 $624 $623 $483 $559 forward $481 $-1 #
edge $-1 $629 -15.186654629160882 $630 15.186654629160882 $558 $631 forward 7 unknown #
coedge $-1 $484 $632 $633 $634 forward $323 $-1 #
coedge $-1 $635 $485 $484 $562 reversed $413 $-1 #
edge $-1 $636 -75.739616077150799 $488 -9.0650875142450573 $561 $500 forward 7 unknown #
vertex $-1 $492 $637 #
straight-curve $-1 9.0650875142450573 35.838496822760703 77.280268959962982 0 0 1 I I #
straight-curve $-1 9.0650875142450573 -3.1995909456540232 72.059036961658805 0 -0.54463902268945019 0.83867057594974714 I I #
point $-1 9.0650875142450573 35.838496822760703 15.186654629160882 #
point $-1 9.0650875142450573 33.733764795979184 15.186654629160884 #
straight-curve $-1 -1.3241185017196244 35.838496822760703 11.945651418622976 1 0 0 I I #
coedge $-1 $494 $635 $638 $639 reversed $413 $-1 #
coedge $-1 $640 $497 $494 $571 forward $577 $-1 #
edge $-1 $499 -15.186654629160882 $641 15.186654629160882 $494 $642 forward 7 unknown #
face $-1 $-1 $643 $18 $-1 $644 reversed single #
plane-surface $-1 0 35.838496822760703 0 0 -1 0 0 0 -1 forward_v I I I I #
coedge $-1 $632 $496 $623 $645 forward $323 $-1 #
edge $-1 $578 -39.345671671754161 $629 -33.442217139039116 $496 $646 forward 7 unknown #
coedge $-1 $497 $640 $626 $647 forward $577 $-1 #
loop $-1 $-1 $576 $619 #
vertex $-1 $647 $648 #
straight-curve $-1 -75.739616077150799 0 15.186654629160882 0 -1 0 I I #
point $-1 -75.739616077150799 35.838496822760703 15.186654629160882 #
face $-1 $649 $650 $19 $-1 $651 forward single #
loop $-1 $-1 $652 $501 #
plane-surface $-1 -72.787888810793277 -19.155710839636939 0 0 -1 0 0 0 -1 forward_v I I I I #
coedge $-1 $510 $653 $504 $587 forward $502 $-1 #
coedge $-1 $586 $504 $654 $655 reversed $421 $-1 #
coedge $-1 $504 $585 $516 $600 forward $421 $-1 #
edge $-1 $656 26.082295142049077 $601 28.187027168830596 $584 $657 forward 7 unknown #
coedge $-1 $505 $516 $591 $658 reversed $347 $-1 #
vertex $-1 $658 $659 #
straight-curve $-1 -14.361561521123555 -3.1995909456540232 72.059036961658805 0 0.54463902268945019 -0.83867057594974714 I I #
coedge $-1 $654 $507 $588 $658 forward $593 $-1 #
coedge $-1 $507 $660 $509 $596 reversed $593 $-1 #
loop $-1 $-1 $654 $661 #
straight-curve $-1 -14.361561521123555 35.838496822760703 77.280268959962982 0 0 -1 I I #
coedge $-1 $662 $509 $663 $664 forward $502 $-1 #
edge $-1 $512 14.361561521123555 $665 75.739616077150799 $592 $666 forward 7 unknown #
point $-1 -14.361561521123555 33.733764795979184 15.186654629160884 #
point $-1 -14.361561521123555 35.838496822760703 15.186654629160882 #
point $-1 -7.6682332253039505 33.499458572415627 12.730578330141801 #
edge $-1 $667 -71.676993645521435 $601 -67.812540422195156 $586 $668 forward 7 unknown #
vertex $-1 $517 $669 #
straight-curve $-1 -1.3241185017196244 33.733764795979184 15.186654629160884 -1 0 0 I I #
straight-curve $-1 75.739616077150799 35.838496822760703 0 0 0 -1 I I #
coedge $-1 $527 $526 $539 $613 reversed $373 $-1 #
coedge $-1 $528 $545 $526 $606 forward $452 $-1 #
edge $-1 $670 -75.739616077150799 $531 69.836161544435754 $526 $671 forward 7 unknown #
straight-curve $-1 -69.836161544435754 -13.74855191559941 -15.186654629160882 0 1 0 I I #
point $-1 -69.836161544435754 -35.838496822760703 15.186654629160882 #
point $-1 -69.836161544435754 -35.838496822760703 -15.186654629160882 #
point $-1 -75.739616077150799 -19.155710839636939 -15.186654629160882 #
straight-curve $-1 0 -35.838496822760703 15.186654629160882 1 0 0 I I #
coedge $-1 $540 $539 $545 $616 reversed $474 $-1 #
edge $-1 $541 -15.186654629160882 $670 15.186654629160882 $539 $672 forward 7 unknown #
point $-1 75.739616077150799 -35.838496822760703 15.186654629160882 #
straight-curve $-1 75.739616077150799 35.838496822760703 0 0 0 -1 I I #
edge $-1 $546 -35.838496822760703 $670 35.838496822760703 $612 $673 forward 7 unknown #
point $-1 75.739616077150799 35.838496822760703 -15.186654629160882 #
straight-curve $-1 -75.739616077150799 0 -15.186654629160882 0 1 0 I I #
face $-1 $495 $577 $18 $-1 $674 reversed single #
loop $-1 $-1 $627 $552 #
plane-surface $-1 0 0 -15.186654629160882 0 0 1 1 0 0 forward_v I I I I #
coedge $-1 $675 $676 $555 $625 forward $553 $-1 #
coedge $-1 $558 $555 $574 $645 reversed $481 $-1 #
coedge $-1 $555 $558 $677 $678 reversed $481 $-1 #
edge $-1 $679 -15.186654629160882 $680 15.186654629160882 $622 $681 forward 7 unknown #
coedge $-1 $557 $556 $576 $647 reversed $400 $-1 #
coedge $-1 $682 $677 $557 $628 forward $620 $-1 #
edge $-1 $630 33.442217139039116 $683 39.345671671754161 $627 $684 forward 7 unknown #
vertex $-1 $575 $685 #
vertex $-1 $628 $686 #
straight-curve $-1 -69.836161544435754 -19.155710839636939 0 0 0 -1 I I #
coedge $-1 $560 $574 $676 $687 forward $323 $-1 #
coedge $-1 $688 $689 $560 $634 reversed $643 $-1 #
edge $-1 $690 -35.838496822760703 $636 35.838496822760703 $633 $691 forward 7 unknown #
coedge $-1 $569 $561 $689 $692 forward $413 $-1 #
vertex $-1 $634 $693 #
point $-1 9.0650875142450573 35.838496822760703 11.94565141862298 #
coedge $-1 $694 $682 $569 $639 forward $620 $-1 #
edge $-1 $641 -75.739616077150799 $695 75.739616077150799 $569 $696 forward 7 unknown #
coedge $-1 $576 $570 $682 $697 reversed $577 $-1 #
vertex $-1 $639 $698 #
straight-curve $-1 -75.739616077150799 35.838496822760703 0 0 0 -1 I I #
loop $-1 $-1 $688 $572 #
plane-surface $-1 75.739616077150799 0 0 -1 0 0 0 0 1 forward_v I I I I #
edge $-1 $629 5.4071589240375282 $679 22.089944907161293 $574 $699 forward 7 unknown #
straight-curve $-1 -36.393944405396638 -19.155710839636939 15.186654629160882 1 0 0 I I #
edge $-1 $683 -15.186654629160882 $578 15.186654629160882 $576 $700 forward 7 unknown #
point $-1 -75.739616077150799 -19.155710839636939 15.186654629160882 #
face $-1 $701 $702 $19 $-1 $703 reversed single #
loop $-1 $-1 $704 $581 #
plane-surface $-1 -69.836161544435754 -27.497103831198821 0 -1 0 0 0 0 1 forward_v I I I I #
coedge $-1 $705 $706 $707 $708 reversed $582 $-1 #
coedge $-1 $584 $709 $710 $711 forward $502 $-1 #
coedge $-1 $710 $591 $585 $655 forward $593 $-1 #
edge $-1 $667 -65.334617541340009 $656 -62.093614330802097 $654 $712 forward 7 unknown #
vertex $-1 $655 $713 #
straight-curve $-1 9.0650875142450573 61.92079196480978 15.186654629160884 0 -1 0 I I #
edge $-1 $589 -13.037443019403931 $667 10.389206015964682 $591 $714 forward 7 unknown #
point $-1 -14.361561521123555 35.838496822760703 11.94565141862298 #
coedge $-1 $592 $715 $716 $717 reversed $593 $-1 #
face $-1 $718 $593 $19 $-1 $719 reversed single #
coedge $-1 $720 $595 $705 $721 forward $502 $-1 #
coedge $-1 $716 $722 $595 $664 reversed $723 $-1 #
edge $-1 $665 -35.838496822760703 $724 19.155710839636939 $663 $725 forward 7 unknown #
vertex $-1 $596 $726 #
straight-curve $-1 0 35.838496822760703 15.186654629160882 -1 0 0 I I #
vertex $-1 $658 $727 #
straight-curve $-1 9.0650875142450573 -3.1995909456540232 72.059036961658805 0 -0.54463902268945019 0.83867057594974714 I I #
point $-1 9.0650875142450573 33.733764795979184 15.186654629160884 #
vertex $-1 $613 $728 #
straight-curve $-1 0 -35.838496822760703 -15.186654629160882 -1 0 0 I I #
straight-curve $-1 75.739616077150799 -35.838496822760703 0 0 0 -1 I I #
straight-curve $-1 75.739616077150799 0 -15.186654629160882 0 -1 0 I I #
plane-surface $-1 -75.739616077150799 0 0 1 0 0 0 0 -1 forward_v I I I I #
coedge $-1 $729 $622 $730 $731 reversed $553 $-1 #
coedge $-1 $622 $729 $632 $687 reversed $553 $-1 #
coedge $-1 $627 $730 $624 $678 forward $620 $-1 #
edge $-1 $680 -22.089944907161293 $630 -5.4071589240375282 $677 $732 forward 7 unknown #
vertex $-1 $687 $733 #
vertex $-1 $625 $734 #
straight-curve $-1 -69.836161544435754 -35.838496822760703 0 0 0 -1 I I #
coedge $-1 $638 $627 $640 $697 forward $620 $-1 #
vertex $-1 $697 $735 #
straight-curve $-1 -36.393944405396638 -19.155710839636939 -15.186654629160882 -1 0 0 I I #
point $-1 -69.836161544435754 -19.155710839636939 15.186654629160882 #
point $-1 -69.836161544435754 -19.155710839636939 -15.186654629160882 #
edge $-1 $679 -69.836161544435754 $690 75.739616077150799 $676 $736 forward 7 unknown #
coedge $-1 $737 $633 $729 $738 forward $643 $-1 #
coedge $-1 $633 $737 $635 $692 reversed $643 $-1 #
vertex $-1 $634 $739 #
straight-curve $-1 75.739616077150799 0 15.186654629160882 0 1 0 I I #
edge $-1 $636 -15.186654629160882 $695 15.186654629160882 $689 $740 forward 7 unknown #
point $-1 75.739616077150799 35.838496822760703 15.186654629160882 #
coedge $-1 $730 $638 $737 $741 forward $620 $-1 #
vertex $-1 $741 $742 #
straight-curve $-1 0 35.838496822760703 -15.186654629160882 1 0 0 I I #
edge $-1 $683 -19.155710839636939 $641 35.838496822760703 $640 $743 forward 7 unknown #
point $-1 -75.739616077150799 35.838496822760703 -15.186654629160882 #
straight-curve $-1 -69.836161544435754 -13.74855191559941 15.186654629160882 0 -1 0 I I #
straight-curve $-1 -75.739616077150799 -19.155710839636939 0 0 0 1 I I #
face $-1 $744 $745 $19 $-1 $746 reversed single #
loop $-1 $-1 $747 $649 #
plane-surface $-1 0 -35.838496822760703 0 0 1 0 0 0 1 forward_v I I I I #
coedge $-1 $748 $749 $747 $750 reversed $650 $-1 #
coedge $-1 $751 $652 $662 $721 reversed $582 $-1 #
coedge $-1 $652 $751 $752 $753 reversed $582 $-1 #
coedge $-1 $749 $748 $652 $708 forward $650 $-1 #
edge $-1 $754 -15.186654629160882 $755 15.186654629160882 $707 $756 forward 7 unknown #
coedge $-1 $653 $757 $758 $759 forward $502 $-1 #
coedge $-1 $760 $654 $653 $711 reversed $593 $-1 #
edge $-1 $761 -75.739616077150799 $656 -9.0650875142450573 $710 $666 forward 7 unknown #
straight-curve $-1 9.0650875142450573 35.838496822760703 77.280268959962982 0 0 1 I I #
point $-1 9.0650875142450573 35.838496822760703 15.186654629160882 #
straight-curve $-1 -1.3241185017196244 35.838496822760703 11.945651418622976 1 0 0 I I #
coedge $-1 $660 $760 $762 $763 reversed $593 $-1 #
coedge $-1 $764 $663 $660 $717 forward $723 $-1 #
edge $-1 $665 -15.186654629160882 $765 15.186654629160882 $660 $766 forward 7 unknown #
face $-1 $-1 $767 $19 $-1 $768 reversed single #
plane-surface $-1 0 35.838496822760703 0 0 -1 0 0 0 -1 forward_v I I I I #
coedge $-1 $757 $662 $748 $769 forward $502 $-1 #
edge $-1 $724 -39.345671671754161 $754 -33.442217139039116 $662 $770 forward 7 unknown #
coedge $-1 $663 $764 $751 $771 forward $723 $-1 #
loop $-1 $-1 $722 $744 #
vertex $-1 $771 $772 #
straight-curve $-1 -75.739616077150799 0 15.186654629160882 0 -1 0 I I #
point $-1 -75.739616077150799 35.838496822760703 15.186654629160882 #
point $-1 9.0650875142450573 35.838496822760703 11.94565141862298 #
point $-1 75.739616077150799 -35.838496822760703 -15.186654629160882 #
coedge $-1 $676 $675 $688 $738 reversed $553 $-1 #
coedge $-1 $677 $694 $675 $731 forward $620 $-1 #
edge $-1 $773 -75.739616077150799 $680 69.836161544435754 $675 $774 forward 7 unknown #
straight-curve $-1 -69.836161544435754 -13.74855191559941 -15.186654629160882 0 1 0 I I #
point $-1 -69.836161544435754 -35.838496822760703 15.186654629160882 #
point $-1 -69.836161544435754 -35.838496822760703 -15.186654629160882 #
point $-1 -75.739616077150799 -19.155710839636939 -15.186654629160882 #
straight-curve $-1 0 -35.838496822760703 15.186654629160882 1 0 0 I I #
coedge $-1 $689 $688 $694 $741 reversed $643 $-1 #
edge $-1 $690 -15.186654629160882 $773 15.186654629160882 $688 $775 forward 7 unknown #
point $-1 75.739616077150799 -35.838496822760703 15.186654629160882 #
straight-curve $-1 75.739616077150799 35.838496822760703 0 0 0 -1 I I #
edge $-1 $695 -35.838496822760703 $773 35.838496822760703 $737 $776 forward 7 unknown #
point $-1 75.739616077150799 35.838496822760703 -15.186654629160882 #
straight-curve $-1 -75.739616077150799 0 -15.186654629160882 0 1 0 I I #
face $-1 $661 $723 $19 $-1 $777 reversed single #
loop $-1 $-1 $752 $701 #
plane-surface $-1 0 0 -15.186654629160882 0 0 1 1 0 0 forward_v I I I I #
coedge $-1 $778 $779 $704 $750 forward $702 $-1 #
coedge $-1 $707 $704 $720 $769 reversed $650 $-1 #
coedge $-1 $704 $707 $780 $781 reversed $650 $-1 #
edge $-1 $782 -15.186654629160882 $783 15.186654629160882 $747 $784 forward 7 unknown #
coedge $-1 $706 $705 $722 $771 reversed $582 $-1 #
coedge $-1 $785 $780 $706 $753 forward $745 $-1 #
edge $-1 $755 33.442217139039116 $786 39.345671671754161 $752 $787 forward 7 unknown #
vertex $-1 $721 $788 #
vertex $-1 $753 $789 #
straight-curve $-1 -69.836161544435754 -19.155710839636939 0 0 0 -1 I I #
coedge $-1 $709 $720 $779 $790 forward $502 $-1 #
coedge $-1 $791 $792 $709 $759 reversed $767 $-1 #
edge $-1 $793 -35.838496822760703 $761 35.838496822760703 $758 $794 forward 7 unknown #
coedge $-1 $715 $710 $792 $795 forward $593 $-1 #
vertex $-1 $759 $796 #
coedge $-1 $797 $785 $715 $763 forward $745 $-1 #
edge $-1 $765 -75.739616077150799 $798 75.739616077150799 $715 $799 forward 7 unknown #
coedge $-1 $722 $716 $785 $800 reversed $723 $-1 #
vertex $-1 $763 $801 #
straight-curve $-1 -75.739616077150799 35.838496822760703 0 0 0 -1 I I #
loop $-1 $-1 $791 $718 #
plane-surface $-1 75.739616077150799 0 0 -1 0 0 0 0 1 forward_v I I I I #
edge $-1 $754 5.4071589240375282 $782 22.089944907161293 $720 $802 forward 7 unknown #
straight-curve $-1 -36.393944405396638 -19.155710839636939 15.186654629160882 1 0 0 I I #
edge $-1 $786 -15.186654629160882 $724 15.186654629160882 $722 $803 forward 7 unknown #
point $-1 -75.739616077150799 -19.155710839636939 15.186654629160882 #
vertex $-1 $738 $804 #
straight-curve $-1 0 -35.838496822760703 -15.186654629160882 -1 0 0 I I #
straight-curve $-1 75.739616077150799 -35.838496822760703 0 0 0 -1 I I #
straight-curve $-1 75.739616077150799 0 -15.186654629160882 0 -1 0 I I #
plane-surface $-1 -75.739616077150799 0 0 1 0 0 0 0 -1 forward_v I I I I #
coedge $-1 $805 $747 $806 $807 reversed $702 $-1 #
coedge $-1 $747 $805 $757 $790 reversed $702 $-1 #
coedge $-1 $752 $806 $749 $781 forward $745 $-1 #
edge $-1 $783 -22.089944907161293 $755 -5.4071589240375282 $780 $808 forward 7 unknown #
vertex $-1 $790 $809 #
vertex $-1 $750 $810 #
straight-curve $-1 -69.836161544435754 -35.838496822760703 0 0 0 -1 I I #
coedge $-1 $762 $752 $764 $800 forward $745 $-1 #
vertex $-1 $800 $811 #
straight-curve $-1 -36.393944405396638 -19.155710839636939 -15.186654629160882 -1 0 0 I I #
point $-1 -69.836161544435754 -19.155710839636939 15.186654629160882 #
point $-1 -69.836161544435754 -19.155710839636939 -15.186654629160882 #
edge $-1 $782 -69.836161544435754 $793 75.739616077150799 $779 $812 forward 7 unknown #
coedge $-1 $813 $758 $805 $814 forward $767 $-1 #
coedge $-1 $758 $813 $760 $795 reversed $767 $-1 #
vertex $-1 $759 $815 #
straight-curve $-1 75.739616077150799 0 15.186654629160882 0 1 0 I I #
edge $-1 $761 -15.186654629160882 $798 15.186654629160882 $792 $816 forward 7 unknown #
point $-1 75.739616077150799 35.838496822760703 15.186654629160882 #
coedge $-1 $806 $762 $813 $817 forward $745 $-1 #
vertex $-1 $817 $818 #
straight-curve $-1 0 35.838496822760703 -15.186654629160882 1 0 0 I I #
edge $-1 $786 -19.155710839636939 $765 35.838496822760703 $764 $819 forward 7 unknown #
point $-1 -75.739616077150799 35.838496822760703 -15.186654629160882 #
straight-curve $-1 -69.836161544435754 -13.74855191559941 15.186654629160882 0 -1 0 I I #
straight-curve $-1 -75.739616077150799 -19.155710839636939 0 0 0 1 I I #
point $-1 75.739616077150799 -35.838496822760703 -15.186654629160882 #
coedge $-1 $779 $778 $791 $814 reversed $702 $-1 #
coedge $-1 $780 $797 $778 $807 forward $745 $-1 #
edge $-1 $820 -75.739616077150799 $783 69.836161544435754 $778 $821 forward 7 unknown #
straight-curve $-1 -69.836161544435754 -13.74855191559941 -15.186654629160882 0 1 0 I I #
point $-1 -69.836161544435754 -35.838496822760703 15.186654629160882 #
point $-1 -69.836161544435754 -35.838496822760703 -15.186654629160882 #
point $-1 -75.739616077150799 -19.155710839636939 -15.186654629160882 #
straight-curve $-1 0 -35.838496822760703 15.186654629160882 1 0 0 I I #
coedge $-1 $792 $791 $797 $817 reversed $767 $-1 #
edge $-1 $793 -15.186654629160882 $820 15.186654629160882 $791 $822 forward 7 unknown #
point $-1 75.739616077150799 -35.838496822760703 15.186654629160882 #
straight-curve $-1 75.739616077150799 35.838496822760703 0 0 0 -1 I I #
edge $-1 $798 -35.838496822760703 $820 35.838496822760703 $813 $823 forward 7 unknown #
point $-1 75.739616077150799 35.838496822760703 -15.186654629160882 #
straight-curve $-1 -75.739616077150799 0 -15.186654629160882 0 1 0 I I #
vertex $-1 $814 $824 #
straight-curve $-1 0 -35.838496822760703 -15.186654629160882 -1 0 0 I I #
straight-curve $-1 75.739616077150799 -35.838496822760703 0 0 0 -1 I I #
straight-curve $-1 75.739616077150799 0 -15.186654629160882 0 -1 0 I I #
point $-1 75.739616077150799 -35.838496822760703 -15.186654629160882 #
End-of-ACIS-data 