500 0 10 0           
7 Unknown 11 ACIS 5.0 NT 24 Fri Mar 26 15:37:04 1999 
-1 9.9999999999999995e-007 1e-010 
body $-1 $10 $-1 $11 #
body $-1 $12 $-1 $13 #
body $-1 $14 $-1 $15 #
body $-1 $16 $-1 $17 #
body $-1 $18 $-1 $19 #
body $-1 $20 $-1 $21 #
body $-1 $22 $-1 $23 #
body $-1 $24 $-1 $25 #
body $-1 $26 $-1 $27 #
body $-1 $28 $-1 $29 #
lump $-1 $-1 $30 $0 #
transform $-1 1 0 0 0 1 0 0 0 1 60.601214636677142 31.007840341717742 8.9488095398252465 1 rotate no_reflect no_shear #
lump $-1 $-1 $31 $1 #
transform $-1 1 0 0 0 1 0 0 0 1 60.601214636677142 31.007840341717742 8.9488095398252465 1 rotate no_reflect no_shear #
lump $-1 $-1 $32 $2 #
transform $-1 1 0 0 0 1 0 0 0 1 60.601214636677142 31.007840341717742 8.9488095398252465 1 rotate no_reflect no_shear #
lump $-1 $-1 $33 $3 #
transform $-1 1 0 0 0 1 0 0 0 1 60.601214636677142 31.007840341717742 8.9488095398252465 1 rotate no_reflect no_shear #
lump $-1 $-1 $34 $4 #
transform $-1 1 0 0 0 1 0 0 0 1 60.601214636677142 31.007840341717742 8.9488095398252465 1 rotate no_reflect no_shear #
lump $-1 $-1 $35 $5 #
transform $-1 1 0 0 0 1 0 0 0 1 60.601214636677142 31.007840341717742 8.9488095398252465 1 rotate no_reflect no_shear #
lump $-1 $-1 $36 $6 #
transform $-1 1 0 0 0 1 0 0 0 1 60.601214636677142 31.007840341717742 8.9488095398252465 1 rotate no_reflect no_shear #
lump $-1 $-1 $37 $7 #
transform $-1 1 0 0 0 1 0 0 0 1 60.601214636677142 31.007840341717742 8.9488095398252465 1 rotate no_reflect no_shear #
lump $-1 $-1 $38 $8 #
transform $-1 1 0 0 0 1 0 0 0 1 60.601214636677142 31.007840341717742 8.9488095398252465 1 rotate no_reflect no_shear #
lump $-1 $-1 $39 $9 #
transform $-1 1 0 0 0 1 0 0 0 1 60.601214636677142 31.007840341717742 8.9488095398252465 1 rotate no_reflect no_shear #
shell $-1 $-1 $-1 $40 $-1 $10 #
shell $-1 $-1 $-1 $41 $-1 $12 #
shell $-1 $-1 $-1 $42 $-1 $14 #
shell $-1 $-1 $-1 $43 $-1 $16 #
shell $-1 $-1 $-1 $44 $-1 $18 #
shell $-1 $-1 $-1 $45 $-1 $20 #
shell $-1 $-1 $-1 $46 $-1 $22 #
shell $-1 $-1 $-1 $47 $-1 $24 #
shell $-1 $-1 $-1 $48 $-1 $26 #
shell $-1 $-1 $-1 $49 $-1 $28 #
face $-1 $50 $51 $30 $-1 $52 forward single #
face $-1 $53 $54 $31 $-1 $55 reversed single #
face $-1 $56 $57 $32 $-1 $58 reversed single #
face $-1 $59 $60 $33 $-1 $61 forward single #
face $-1 $62 $63 $34 $-1 $64 forward single #
face $-1 $65 $66 $35 $-1 $67 forward single #
face $-1 $68 $69 $36 $-1 $70 reversed single #
face $-1 $71 $72 $37 $-1 $73 forward single #
face $-1 $74 $75 $38 $-1 $76 forward single #
face $-1 $77 $78 $39 $-1 $79 forward single #
face $-1 $80 $81 $30 $-1 $82 reversed single #
loop $-1 $-1 $83 $40 #
plane-surface $-1 0 0 8.9488095398252465 0 0 1 1 0 0 forward_v I I I I #
face $-1 $84 $85 $31 $-1 $86 reversed single #
loop $-1 $-1 $87 $41 #
plane-surface $-1 -55.579571605965064 0 5.9274563509740616 0 0 1 1 0 0 forward_v I I I I #
face $-1 $88 $89 $32 $-1 $90 reversed single #
loop $-1 $-1 $91 $42 #
plane-surface $-1 -38.090986427766722 -14.347556815630085 44.755305466542183 0 0.68199836817093118 0.7313536940579346 1 0 0 forward_v I I I I #
face $-1 $92 $93 $33 $-1 $94 forward single #
loop $-1 $95 $96 $43 #
cone-surface $-1 -45.571151716258484 26.733357762680949 4.851513153241136 0 -0.68199836817093118 -0.7313536940579346 1.5 0 0 1 I I 0 1 1.5 forward I I I I #
face $-1 $97 $98 $34 $-1 $99 forward single #
loop $-1 $100 $101 $44 #
cone-surface $-1 -38.090986427766722 26.733357762680949 4.851513153241136 0 -0.68199836817093118 -0.7313536940579346 1.5 0 0 1 I I 0 1 1.5 forward I I I I #
face $-1 $102 $103 $35 $-1 $104 forward single #
loop $-1 $105 $106 $45 #
cone-surface $-1 -30.610821139274961 26.733357762680949 4.851513153241136 0 -0.68199836817093118 -0.7313536940579346 1.5 0 0 1 I I 0 1 1.5 forward I I I I #
face $-1 $107 $108 $36 $-1 $109 reversed single #
loop $-1 $-1 $110 $46 #
plane-surface $-1 -25.624044280280451 -113.66769932449806 91.10255681729285 -1 0 0 0 -0.68199836817093118 0.7313536940579346 forward_v I I I I #
face $-1 $111 $112 $37 $-1 $113 forward single #
loop $-1 $114 $115 $47 #
cone-surface $-1 -45.571151716258484 -26.733357762680946 4.8515131532411377 0 0.68199836817093118 -0.7313536940579346 1.5 0 0 1 I I 0 1 1.5 forward I I I I #
face $-1 $116 $117 $38 $-1 $118 forward single #
loop $-1 $119 $120 $48 #
cone-surface $-1 -38.090986427766722 -26.733357762680946 4.8515131532411377 0 0.68199836817093118 -0.7313536940579346 1.5 0 0 1 I I 0 1 1.5 forward I I I I #
face $-1 $121 $122 $39 $-1 $123 forward single #
loop $-1 $124 $125 $49 #
cone-surface $-1 -30.610821139274961 -26.733357762680946 4.8515131532411377 0 0.68199836817093118 -0.7313536940579346 1.5 0 0 1 I I 0 1 1.5 forward I I I I #
face $-1 $126 $127 $30 $-1 $128 reversed single #
loop $-1 $-1 $129 $50 #
plane-surface $-1 0 0 -8.9488095398252465 0 0 1 1 0 0 forward_v I I I I #
coedge $-1 $130 $131 $132 $133 forward $51 $-1 #
face $-1 $134 $135 $31 $-1 $136 reversed single #
loop $-1 $-1 $137 $53 #
plane-surface $-1 -50.557928575252987 0 7.4381329453996532 -1 0 0 0 0 1 forward_v I I I I #
coedge $-1 $138 $139 $140 $141 forward $54 $-1 #
face $-1 $142 $143 $32 $-1 $144 forward single #
loop $-1 $-1 $145 $56 #
plane-surface $-1 -25.624044280280451 68.312302167150236 133.39714984440539 -1 0 0 0 0.68199836817093118 0.7313536940579346 forward_v I I I I #
coedge $-1 $146 $147 $148 $149 reversed $57 $-1 #
face $-1 $-1 $150 $33 $-1 $151 forward single #
loop $-1 $152 $153 $59 #
cone-surface $-1 -45.571151716258484 25.426192489222192 3.4497500463113742 0 -0.68199836817093118 -0.7313536940579346 0.75 0 0 1 I I -0.70710678118654757 0.70710678118654757 0.75 forward I I I I #
loop $-1 $-1 $154 $43 #
coedge $-1 $96 $96 $155 $156 reversed $60 $-1 #
face $-1 $-1 $157 $34 $-1 $158 forward single #
loop $-1 $159 $160 $62 #
cone-surface $-1 -38.090986427766722 25.426192489222192 3.4497500463113742 0 -0.68199836817093118 -0.7313536940579346 0.75 0 0 1 I I -0.70710678118654757 0.70710678118654757 0.75 forward I I I I #
loop $-1 $-1 $161 $44 #
coedge $-1 $101 $101 $162 $163 reversed $63 $-1 #
face $-1 $-1 $164 $35 $-1 $165 forward single #
loop $-1 $166 $167 $65 #
cone-surface $-1 -30.610821139274961 25.426192489222192 3.4497500463113742 0 -0.68199836817093118 -0.7313536940579346 0.75 0 0 1 I I -0.70710678118654757 0.70710678118654757 0.75 forward I I I I #
loop $-1 $-1 $168 $45 #
coedge $-1 $106 $106 $169 $170 reversed $66 $-1 #
face $-1 $171 $172 $36 $-1 $173 forward single #
loop $-1 $-1 $174 $68 #
plane-surface $-1 -38.090986427766722 -31.007840341717738 2.460712439429642 0 -0.68199836817093118 0.7313536940579346 1 0 0 forward_v I I I I #
coedge $-1 $175 $176 $177 $178 reversed $69 $-1 #
face $-1 $-1 $179 $37 $-1 $180 forward single #
loop $-1 $181 $182 $71 #
cone-surface $-1 -45.571151716258484 -25.426192489222188 3.4497500463113759 0 0.68199836817093118 -0.7313536940579346 0.75 0 0 1 I I -0.70710678118654757 0.70710678118654757 0.75 forward I I I I #
loop $-1 $-1 $183 $47 #
coedge $-1 $115 $115 $184 $185 reversed $72 $-1 #
face $-1 $-1 $186 $38 $-1 $187 forward single #
loop $-1 $188 $189 $74 #
cone-surface $-1 -38.090986427766722 -25.426192489222188 3.4497500463113759 0 0.68199836817093118 -0.7313536940579346 0.75 0 0 1 I I -0.70710678118654757 0.70710678118654757 0.75 forward I I I I #
loop $-1 $-1 $190 $48 #
coedge $-1 $120 $120 $191 $192 reversed $75 $-1 #
face $-1 $-1 $193 $39 $-1 $194 forward single #
loop $-1 $195 $196 $77 #
cone-surface $-1 -30.610821139274961 -25.426192489222188 3.4497500463113759 0 0.68199836817093118 -0.7313536940579346 0.75 0 0 1 I I -0.70710678118654757 0.70710678118654757 0.75 forward I I I I #
loop $-1 $-1 $197 $49 #
coedge $-1 $125 $125 $198 $199 reversed $78 $-1 #
face $-1 $200 $201 $30 $-1 $202 reversed single #
loop $-1 $-1 $203 $80 #
plane-surface $-1 0 -31.007840341717742 0 0 1 0 0 0 1 forward_v I I I I #
coedge $-1 $204 $205 $206 $207 forward $81 $-1 #
coedge $-1 $208 $83 $209 $210 forward $51 $-1 #
coedge $-1 $83 $208 $211 $212 forward $51 $-1 #
coedge $-1 $213 $214 $83 $133 reversed $215 $-1 #
edge $-1 $216 -31.007840341717742 $217 31.007840341717742 $132 $218 forward 7 unknown #
face $-1 $219 $220 $31 $-1 $221 reversed single #
loop $-1 $-1 $222 $84 #
plane-surface $-1 0 31.007840341717742 0 0 -1 0 0 0 -1 forward_v I I I I #
coedge $-1 $140 $223 $224 $225 reversed $85 $-1 #
coedge $-1 $226 $87 $227 $228 reversed $54 $-1 #
coedge $-1 $87 $226 $229 $230 reversed $54 $-1 #
coedge $-1 $231 $137 $87 $141 reversed $85 $-1 #
edge $-1 $232 -31.007840341717742 $233 31.007840341717742 $140 $234 forward 7 unknown #
face $-1 $235 $236 $32 $-1 $237 reversed single #
loop $-1 $-1 $148 $88 #
plane-surface $-1 0 0 8.9488095398252465 0 0 1 1 0 0 forward_v I I I I #
coedge $-1 $238 $239 $240 $241 reversed $89 $-1 #
coedge $-1 $242 $91 $243 $244 reversed $57 $-1 #
coedge $-1 $91 $242 $238 $245 forward $57 $-1 #
coedge $-1 $240 $246 $91 $149 forward $143 $-1 #
edge $-1 $247 -31.512435361369626 $248 -6.5785510663970896 $148 $249 forward 7 unknown #
loop $-1 $-1 $155 $92 #
plane-surface $-1 -38.090986427766722 -14.347556815630085 44.755305466542183 0 0.68199836817093118 0.7313536940579346 1 0 0 forward_v I I I I #
loop $-1 $-1 $250 $59 #
coedge $-1 $153 $153 $154 $251 reversed $93 $-1 #
coedge $-1 $154 $154 $153 $251 forward $95 $-1 #
coedge $-1 $155 $155 $96 $156 forward $150 $-1 #
edge $-1 $252 -4.0382415525341458e-016 $252 6.2831853071796004 $155 $253 forward 7 unknown #
loop $-1 $-1 $162 $97 #
plane-surface $-1 -38.090986427766722 -14.347556815630085 44.755305466542183 0 0.68199836817093118 0.7313536940579346 1 0 0 forward_v I I I I #
loop $-1 $-1 $254 $62 #
coedge $-1 $160 $160 $161 $255 reversed $98 $-1 #
coedge $-1 $161 $161 $160 $255 forward $100 $-1 #
coedge $-1 $162 $162 $101 $163 forward $157 $-1 #
edge $-1 $256 -4.0382415525341458e-016 $256 6.2831853071796004 $162 $257 forward 7 unknown #
loop $-1 $-1 $169 $102 #
plane-surface $-1 -38.090986427766722 -14.347556815630085 44.755305466542183 0 0.68199836817093118 0.7313536940579346 1 0 0 forward_v I I I I #
loop $-1 $-1 $258 $65 #
coedge $-1 $167 $167 $168 $259 reversed $103 $-1 #
coedge $-1 $168 $168 $167 $259 forward $105 $-1 #
coedge $-1 $169 $169 $106 $170 forward $164 $-1 #
edge $-1 $260 -4.0382415525341458e-016 $260 6.2831853071796004 $169 $261 forward 7 unknown #
face $-1 $262 $263 $36 $-1 $264 forward single #
loop $-1 $-1 $265 $107 #
plane-surface $-1 -50.557928575252987 0 7.4381329453996532 -1 0 0 0 0 1 forward_v I I I I #
coedge $-1 $266 $267 $268 $269 reversed $108 $-1 #
coedge $-1 $176 $110 $270 $271 reversed $69 $-1 #
coedge $-1 $110 $175 $266 $272 reversed $69 $-1 #
coedge $-1 $268 $273 $110 $178 forward $263 $-1 #
edge $-1 $274 25.826009320531288 $275 32.783641483943775 $177 $276 forward 7 unknown #
loop $-1 $-1 $184 $111 #
plane-surface $-1 -38.090986427766722 -31.007840341717738 2.460712439429642 0 -0.68199836817093118 0.7313536940579346 1 0 0 forward_v I I I I #
loop $-1 $-1 $277 $71 #
coedge $-1 $182 $182 $183 $278 reversed $112 $-1 #
coedge $-1 $183 $183 $182 $278 forward $114 $-1 #
coedge $-1 $184 $184 $115 $185 forward $179 $-1 #
edge $-1 $279 -6.3761794378729929e-016 $279 6.2831853071795996 $184 $280 forward 7 unknown #
loop $-1 $-1 $191 $116 #
plane-surface $-1 -38.090986427766722 -31.007840341717738 2.460712439429642 0 -0.68199836817093118 0.7313536940579346 1 0 0 forward_v I I I I #
loop $-1 $-1 $281 $74 #
coedge $-1 $189 $189 $190 $282 reversed $117 $-1 #
coedge $-1 $190 $190 $189 $282 forward $119 $-1 #
coedge $-1 $191 $191 $120 $192 forward $186 $-1 #
edge $-1 $283 -6.3761794378729929e-016 $283 6.2831853071795996 $191 $284 forward 7 unknown #
loop $-1 $-1 $198 $121 #
plane-surface $-1 -38.090986427766722 -31.007840341717738 2.460712439429642 0 -0.68199836817093118 0.7313536940579346 1 0 0 forward_v I I I I #
loop $-1 $-1 $285 $77 #
coedge $-1 $196 $196 $197 $286 reversed $122 $-1 #
coedge $-1 $197 $197 $196 $286 forward $124 $-1 #
coedge $-1 $198 $198 $125 $199 forward $193 $-1 #
edge $-1 $287 -6.3761794378729929e-016 $287 6.2831853071795996 $198 $288 forward 7 unknown #
face $-1 $289 $290 $30 $-1 $291 reversed single #
loop $-1 $-1 $292 $126 #
plane-surface $-1 -60.601214636677142 0 0 1 0 0 0 0 -1 forward_v I I I I #
coedge $-1 $293 $211 $294 $295 forward $127 $-1 #
coedge $-1 $296 $129 $293 $297 forward $81 $-1 #
coedge $-1 $129 $296 $298 $299 forward $81 $-1 #
coedge $-1 $214 $213 $129 $207 reversed $215 $-1 #
edge $-1 $300 -31.007840341717742 $301 31.007840341717742 $206 $302 forward 7 unknown #
coedge $-1 $131 $130 $303 $304 forward $51 $-1 #
coedge $-1 $305 $306 $130 $210 reversed $290 $-1 #
edge $-1 $217 -60.601214636677142 $307 60.601214636677142 $209 $308 forward 7 unknown #
coedge $-1 $203 $309 $131 $212 reversed $127 $-1 #
edge $-1 $310 -60.601214636677142 $216 60.601214636677142 $211 $311 forward 7 unknown #
coedge $-1 $206 $132 $309 $312 forward $215 $-1 #
coedge $-1 $132 $206 $305 $313 reversed $215 $-1 #
loop $-1 $-1 $213 $289 #
vertex $-1 $133 $314 #
vertex $-1 $133 $315 #
straight-curve $-1 60.601214636677142 0 8.9488095398252465 0 1 0 I I #
face $-1 $316 $317 $31 $-1 $318 forward single #
loop $-1 $-1 $319 $134 #
plane-surface $-1 -60.601214636677142 0 0 1 0 0 0 0 -1 forward_v I I I I #
coedge $-1 $229 $320 $231 $321 forward $135 $-1 #
coedge $-1 $137 $231 $322 $323 reversed $85 $-1 #
coedge $-1 $324 $227 $137 $225 forward $325 $-1 #
edge $-1 $233 2.2083898782742351 $326 5.2297430671254181 $224 $327 forward 7 unknown #
coedge $-1 $139 $138 $319 $328 reversed $54 $-1 #
coedge $-1 $224 $329 $138 $228 forward $325 $-1 #
edge $-1 $330 -32.811428833694606 $233 -22.768142772270455 $227 $331 forward 7 unknown #
coedge $-1 $332 $222 $139 $230 forward $135 $-1 #
edge $-1 $232 22.768142772270455 $333 32.811428833694606 $229 $334 forward 7 unknown #
coedge $-1 $223 $140 $222 $321 reversed $85 $-1 #
vertex $-1 $230 $335 #
vertex $-1 $228 $336 #
straight-curve $-1 -50.557928575252987 0 5.9274563509740616 0 -1 0 I I #
face $-1 $-1 $337 $32 $-1 $338 forward single #
loop $-1 $-1 $339 $142 #
plane-surface $-1 0 31.007840341717742 0 0 -1 0 0 0 -1 forward_v I I I I #
coedge $-1 $239 $145 $147 $245 reversed $89 $-1 #
coedge $-1 $145 $238 $339 $340 reversed $89 $-1 #
coedge $-1 $341 $148 $145 $241 forward $143 $-1 #
edge $-1 $248 -10.105942905269842 $342 -3.1483107418573759 $240 $343 forward 7 unknown #
coedge $-1 $147 $146 $344 $345 reversed $57 $-1 #
coedge $-1 $346 $347 $146 $244 forward $337 $-1 #
edge $-1 $348 -44.043985962440722 $247 -34.530624342828375 $243 $349 forward 7 unknown #
edge $-1 $350 -62.015680683435463 $248 -52.502319063823116 $238 $351 forward 7 unknown #
coedge $-1 $148 $341 $346 $352 forward $143 $-1 #
vertex $-1 $244 $353 #
vertex $-1 $149 $354 #
straight-curve $-1 -19.045493213883361 24.050208178305269 8.9488095398252447 1 0 0 I I #
coedge $-1 $250 $250 $-1 $355 reversed $152 $-1 #
edge $-1 $356 0 $356 6.2831853071796004 $153 $357 forward 7 unknown #
vertex $-1 $156 $358 #
ellipse-curve $-1 -45.571151716258484 27.529024260011507 5.704760989627446 0 0.68199836817093118 0.7313536940579346 1.5 0 0 1 I I #
coedge $-1 $254 $254 $-1 $359 reversed $159 $-1 #
edge $-1 $360 0 $360 6.2831853071796004 $160 $361 forward 7 unknown #
vertex $-1 $163 $362 #
ellipse-curve $-1 -38.090986427766722 27.529024260011507 5.704760989627446 0 0.68199836817093118 0.7313536940579346 1.5 0 0 1 I I #
coedge $-1 $258 $258 $-1 $363 reversed $166 $-1 #
edge $-1 $364 0 $364 6.2831853071796004 $167 $365 forward 7 unknown #
vertex $-1 $170 $366 #
ellipse-curve $-1 -30.610821139274961 27.529024260011507 5.704760989627446 0 0.68199836817093118 0.7313536940579346 1.5 0 0 1 I I #
face $-1 $-1 $367 $36 $-1 $368 reversed single #
loop $-1 $-1 $268 $171 #
plane-surface $-1 0 0 8.9488095398252465 0 0 1 1 0 0 forward_v I I I I #
coedge $-1 $369 $370 $267 $371 reversed $172 $-1 #
coedge $-1 $372 $174 $176 $272 forward $108 $-1 #
coedge $-1 $174 $372 $265 $371 forward $108 $-1 #
coedge $-1 $373 $177 $174 $269 forward $263 $-1 #
edge $-1 $275 6.5785510663970896 $374 31.512435361369626 $268 $375 forward 7 unknown #
coedge $-1 $376 $377 $175 $271 forward $367 $-1 #
edge $-1 $378 -43.090565969216783 $274 -36.602468868821177 $270 $379 forward 7 unknown #
edge $-1 $275 -9.5133616196123718 $378 4.7183670880013277e-015 $176 $380 forward 7 unknown #
coedge $-1 $177 $373 $376 $381 forward $263 $-1 #
vertex $-1 $271 $382 #
vertex $-1 $178 $383 #
straight-curve $-1 -25.624044280280451 -56.83384966224903 8.9488095398252483 0 1 0 I I #
coedge $-1 $277 $277 $-1 $384 reversed $181 $-1 #
edge $-1 $385 0 $385 6.2831853071796004 $182 $386 forward 7 unknown #
vertex $-1 $185 $387 #
ellipse-curve $-1 -45.571151716258484 -27.529024260011496 5.7047609896274425 0 -0.68199836817093118 0.7313536940579346 1.5 0 0 1 I I #
coedge $-1 $281 $281 $-1 $388 reversed $188 $-1 #
edge $-1 $389 0 $389 6.2831853071796004 $189 $390 forward 7 unknown #
vertex $-1 $192 $391 #
ellipse-curve $-1 -38.090986427766722 -27.529024260011496 5.7047609896274425 0 -0.68199836817093118 0.7313536940579346 1.5 0 0 1 I I #
coedge $-1 $285 $285 $-1 $392 reversed $195 $-1 #
edge $-1 $393 0 $393 6.2831853071796004 $196 $394 forward 7 unknown #
vertex $-1 $199 $395 #
ellipse-curve $-1 -30.610821139274961 -27.529024260011496 5.7047609896274425 0 -0.68199836817093118 0.7313536940579346 1.5 0 0 1 I I #
face $-1 $-1 $215 $30 $-1 $396 reversed single #
loop $-1 $-1 $305 $200 #
plane-surface $-1 0 31.007840341717742 0 0 -1 0 0 0 -1 forward_v I I I I #
coedge $-1 $397 $303 $306 $398 forward $201 $-1 #
coedge $-1 $309 $203 $204 $297 reversed $127 $-1 #
coedge $-1 $303 $397 $203 $295 reversed $201 $-1 #
edge $-1 $310 -8.9488095398252465 $399 8.9488095398252465 $294 $400 forward 7 unknown #
coedge $-1 $205 $204 $397 $401 forward $81 $-1 #
edge $-1 $301 -60.601214636677142 $399 60.601214636677142 $293 $402 forward 7 unknown #
coedge $-1 $306 $305 $205 $299 reversed $290 $-1 #
edge $-1 $403 -60.601214636677142 $300 60.601214636677142 $298 $404 forward 7 unknown #
vertex $-1 $207 $405 #
vertex $-1 $312 $406 #
straight-curve $-1 60.601214636677142 0 -8.9488095398252465 0 -1 0 I I #
coedge $-1 $292 $294 $208 $304 reversed $201 $-1 #
edge $-1 $307 -31.007840341717742 $310 31.007840341717742 $303 $407 forward 7 unknown #
coedge $-1 $298 $209 $214 $313 forward $290 $-1 #
coedge $-1 $209 $298 $292 $398 reversed $290 $-1 #
vertex $-1 $210 $408 #
straight-curve $-1 0 31.007840341717742 8.9488095398252465 -1 0 0 I I #
coedge $-1 $211 $293 $213 $312 reversed $127 $-1 #
vertex $-1 $304 $409 #
straight-curve $-1 0 -31.007840341717742 8.9488095398252465 1 0 0 I I #
edge $-1 $216 -8.9488095398252465 $301 8.9488095398252465 $213 $410 forward 7 unknown #
edge $-1 $217 -8.9488095398252465 $300 8.9488095398252465 $214 $411 forward 7 unknown #
point $-1 60.601214636677142 -31.007840341717742 8.9488095398252465 #
point $-1 60.601214636677142 31.007840341717742 8.9488095398252465 #
face $-1 $-1 $325 $31 $-1 $412 reversed single #
loop $-1 $-1 $322 $219 #
plane-surface $-1 0 0 8.9488095398252465 0 0 1 1 0 0 forward_v I I I I #
coedge $-1 $413 $414 $226 $328 forward $220 $-1 #
coedge $-1 $222 $332 $415 $416 reversed $135 $-1 #
edge $-1 $417 -5.2297430671254181 $232 -2.2083898782742351 $222 $418 forward 7 unknown #
coedge $-1 $415 $419 $223 $323 forward $317 $-1 #
edge $-1 $326 -31.007840341717742 $417 31.007840341717742 $322 $420 forward 7 unknown #
coedge $-1 $329 $224 $419 $421 reversed $325 $-1 #
loop $-1 $-1 $224 $316 #
vertex $-1 $225 $422 #
straight-curve $-1 -50.557928575252987 -31.007840341717742 3.7190664726998266 0 0 1 I I #
edge $-1 $333 -31.007840341717742 $330 31.007840341717742 $319 $423 forward 7 unknown #
coedge $-1 $227 $324 $413 $424 forward $325 $-1 #
vertex $-1 $328 $425 #
straight-curve $-1 -27.789785802982532 -31.007840341717742 5.9274563509740616 1 0 0 I I #
coedge $-1 $320 $229 $414 $426 reversed $135 $-1 #
vertex $-1 $328 $427 #
straight-curve $-1 -27.789785802982532 31.007840341717742 5.9274563509740616 -1 0 0 I I #
point $-1 -50.557928575252987 31.007840341717742 5.9274563509740616 #
point $-1 -50.557928575252987 -31.007840341717742 5.9274563509740616 #
loop $-1 $-1 $243 $235 #
plane-surface $-1 -50.557928575252987 0 7.4381329453996532 -1 0 0 0 0 1 forward_v I I I I #
coedge $-1 $344 $428 $239 $340 forward $236 $-1 #
edge $-1 $342 57.749765382377447 $350 64.237862482773039 $339 $429 forward 7 unknown #
coedge $-1 $246 $240 $428 $430 forward $143 $-1 #
vertex $-1 $430 $431 #
straight-curve $-1 -25.624044280280451 34.156151083575118 8.9488095398252483 0 1 0 I I #
coedge $-1 $432 $339 $242 $345 forward $236 $-1 #
edge $-1 $350 6.5785510663970896 $348 31.512435361369633 $344 $433 forward 7 unknown #
coedge $-1 $347 $243 $246 $352 reversed $337 $-1 #
coedge $-1 $243 $346 $432 $434 reversed $337 $-1 #
vertex $-1 $434 $435 #
straight-curve $-1 -50.557928575252987 -1.2038914929490998 32.498638993557634 0 -0.7313536940579346 0.68199836817093118 I I #
vertex $-1 $345 $436 #
straight-curve $-1 -25.624044280280451 -14.347556815630085 44.755305466542183 0 -0.7313536940579346 0.68199836817093118 I I #
edge $-1 $437 -31.007840341717742 $247 -24.050208178305272 $246 $438 forward 7 unknown #
point $-1 -50.557928575252987 24.050208178305272 8.9488095398252465 #
point $-1 -25.624044280280451 24.050208178305276 8.9488095398252483 #
edge $-1 $439 1 $439 0 $250 $-1 forward 7 unknown #
vertex $-1 $251 $440 #
ellipse-curve $-1 -45.571151716258484 25.937691265350391 3.998265316854825 0 0.68199836817093118 0.7313536940579346 1.5 0 0 1 I I #
point $-1 -44.071151716258484 27.529024260011507 5.7047609896274469 #
edge $-1 $441 1 $441 0 $254 $-1 forward 7 unknown #
vertex $-1 $255 $442 #
ellipse-curve $-1 -38.090986427766722 25.937691265350391 3.998265316854825 0 0.68199836817093118 0.7313536940579346 1.5 0 0 1 I I #
point $-1 -36.590986427766722 27.529024260011507 5.7047609896274469 #
edge $-1 $443 1 $443 0 $258 $-1 forward 7 unknown #
vertex $-1 $259 $444 #
ellipse-curve $-1 -30.610821139274961 25.937691265350391 3.998265316854825 0 0.68199836817093118 0.7313536940579346 1.5 0 0 1 I I #
point $-1 -29.110821139274961 27.529024260011507 5.7047609896274469 #
loop $-1 $-1 $270 $262 #
plane-surface $-1 0 -31.007840341717742 0 0 1 0 0 0 1 forward_v I I I I #
coedge $-1 $370 $265 $445 $446 reversed $172 $-1 #
coedge $-1 $265 $369 $373 $447 reversed $172 $-1 #
edge $-1 $448 -4.7183670880013277e-015 $374 9.5133616196123718 $265 $449 forward 7 unknown #
coedge $-1 $267 $266 $377 $450 reversed $108 $-1 #
coedge $-1 $273 $268 $370 $447 forward $263 $-1 #
vertex $-1 $447 $451 #
straight-curve $-1 -19.045493213883361 -24.050208178305255 8.9488095398252465 -1 0 0 I I #
coedge $-1 $445 $270 $273 $381 reversed $367 $-1 #
coedge $-1 $270 $445 $372 $450 forward $367 $-1 #
vertex $-1 $271 $452 #
straight-curve $-1 -25.624044280280451 -31.007840341717738 45.551278408646425 0 0 1 I I #
straight-curve $-1 -25.624044280280451 -31.007840341717738 2.460712439429642 0 -0.7313536940579346 -0.68199836817093118 I I #
edge $-1 $453 -50.557928575252987 $274 -25.624044280280451 $376 $454 forward 7 unknown #
point $-1 -25.624044280280451 -31.007840341717742 8.9488095398252465 #
point $-1 -25.624044280280451 -24.050208178305255 8.9488095398252465 #
edge $-1 $455 1 $455 0 $277 $-1 forward 7 unknown #
vertex $-1 $278 $456 #
ellipse-curve $-1 -45.571151716258484 -25.937691265350388 3.9982653168548268 0 -0.68199836817093118 0.7313536940579346 1.5 0 0 1 I I #
point $-1 -44.071151716258484 -27.529024260011504 5.7047609896274487 #
edge $-1 $457 1 $457 0 $281 $-1 forward 7 unknown #
vertex $-1 $282 $458 #
ellipse-curve $-1 -38.090986427766722 -25.937691265350388 3.9982653168548268 0 -0.68199836817093118 0.7313536940579346 1.5 0 0 1 I I #
point $-1 -36.590986427766722 -27.529024260011504 5.7047609896274487 #
edge $-1 $459 1 $459 0 $285 $-1 forward 7 unknown #
vertex $-1 $286 $460 #
ellipse-curve $-1 -30.610821139274961 -25.937691265350388 3.9982653168548268 0 -0.68199836817093118 0.7313536940579346 1.5 0 0 1 I I #
point $-1 -29.110821139274961 -27.529024260011504 5.7047609896274487 #
plane-surface $-1 60.601214636677142 0 0 -1 0 0 0 0 1 forward_v I I I I #
coedge $-1 $294 $292 $296 $401 reversed $201 $-1 #
edge $-1 $307 -8.9488095398252465 $403 8.9488095398252465 $306 $461 forward 7 unknown #
vertex $-1 $401 $462 #
straight-curve $-1 -60.601214636677142 -31.007840341717742 0 0 0 -1 I I #
edge $-1 $399 -31.007840341717742 $403 31.007840341717742 $397 $463 forward 7 unknown #
straight-curve $-1 0 -31.007840341717742 -8.9488095398252465 -1 0 0 I I #
vertex $-1 $299 $464 #
straight-curve $-1 0 31.007840341717742 -8.9488095398252465 1 0 0 I I #
point $-1 60.601214636677142 31.007840341717742 -8.9488095398252465 #
point $-1 60.601214636677142 -31.007840341717742 -8.9488095398252465 #
straight-curve $-1 -60.601214636677142 0 8.9488095398252465 0 -1 0 I I #
point $-1 -60.601214636677142 31.007840341717742 8.9488095398252465 #
point $-1 -60.601214636677142 -31.007840341717742 8.9488095398252465 #
straight-curve $-1 60.601214636677142 -31.007840341717742 0 0 0 -1 I I #
straight-curve $-1 60.601214636677142 31.007840341717742 0 0 0 -1 I I #
plane-surface $-1 0 -31.007840341717742 0 0 1 0 0 0 1 forward_v I I I I #
coedge $-1 $465 $319 $329 $424 reversed $220 $-1 #
coedge $-1 $319 $465 $332 $426 forward $220 $-1 #
coedge $-1 $466 $322 $320 $416 forward $317 $-1 #
edge $-1 $417 50.557928575252987 $467 60.601214636677142 $320 $468 forward 7 unknown #
vertex $-1 $416 $469 #
straight-curve $-1 -50.557928575252987 31.007840341717742 3.7190664726998266 0 0 -1 I I #
coedge $-1 $322 $466 $324 $421 forward $317 $-1 #
straight-curve $-1 -50.557928575252987 0 8.9488095398252465 0 1 0 I I #
edge $-1 $470 -60.601214636677142 $326 -50.557928575252987 $324 $471 forward 7 unknown #
point $-1 -50.557928575252987 -31.007840341717742 8.9488095398252447 #
straight-curve $-1 -60.601214636677142 0 5.9274563509740616 0 -1 0 I I #
edge $-1 $470 -8.9488095398252465 $330 -5.9274563509740616 $413 $472 forward 7 unknown #
point $-1 -60.601214636677142 -31.007840341717742 5.9274563509740616 #
edge $-1 $467 -8.9488095398252465 $333 -5.9274563509740616 $332 $473 forward 7 unknown #
point $-1 -60.601214636677142 31.007840341717742 5.9274563509740616 #
coedge $-1 $339 $432 $341 $430 reversed $236 $-1 #
straight-curve $-1 -25.624044280280451 31.007840341717742 66.698574922202695 0 0 -1 I I #
edge $-1 $342 25.624044280280451 $437 50.557928575252987 $428 $474 forward 7 unknown #
point $-1 -25.624044280280451 31.007840341717742 8.9488095398252465 #
coedge $-1 $428 $344 $347 $434 forward $236 $-1 #
straight-curve $-1 -19.045493213883361 31.007840341717738 2.4607124394296598 -1 0 0 I I #
edge $-1 $348 -64.237862482773039 $437 -57.749765382377447 $432 $475 forward 7 unknown #
point $-1 -50.557928575252994 31.007840341717738 2.4607124394296562 #
point $-1 -25.624044280280451 31.007840341717738 2.4607124394296562 #
vertex $-1 $352 $476 #
straight-curve $-1 -50.557928575252987 0 8.9488095398252465 0 -1 0 I I #
vertex $-1 $355 $477 #
point $-1 -44.071151716258484 25.937691265350391 3.998265316854825 #
vertex $-1 $359 $478 #
point $-1 -36.590986427766722 25.937691265350391 3.998265316854825 #
vertex $-1 $363 $479 #
point $-1 -29.110821139274961 25.937691265350391 3.998265316854825 #
coedge $-1 $377 $376 $369 $446 forward $367 $-1 #
edge $-1 $453 36.602468868821177 $448 43.090565969216783 $445 $480 forward 7 unknown #
edge $-1 $374 24.050208178305255 $453 31.007840341717742 $373 $481 forward 7 unknown #
vertex $-1 $446 $482 #
straight-curve $-1 -50.557928575252994 -31.007840341717738 2.460712439429642 0 0.7313536940579346 0.68199836817093118 I I #
edge $-1 $448 -31.512435361369633 $378 -6.5785510663970896 $377 $483 forward 7 unknown #
point $-1 -50.557928575252987 -24.050208178305255 8.9488095398252465 #
point $-1 -25.624044280280451 -31.007840341717742 2.4607124394296389 #
vertex $-1 $381 $484 #
straight-curve $-1 0 -31.007840341717742 8.9488095398252465 1 0 0 I I #
vertex $-1 $384 $485 #
point $-1 -44.071151716258484 -25.937691265350388 3.9982653168548268 #
vertex $-1 $388 $486 #
point $-1 -36.590986427766722 -25.937691265350388 3.9982653168548268 #
vertex $-1 $392 $487 #
point $-1 -29.110821139274961 -25.937691265350388 3.9982653168548268 #
straight-curve $-1 -60.601214636677142 31.007840341717742 0 0 0 -1 I I #
point $-1 -60.601214636677142 -31.007840341717742 -8.9488095398252465 #
straight-curve $-1 -60.601214636677142 0 -8.9488095398252465 0 1 0 I I #
point $-1 -60.601214636677142 31.007840341717742 -8.9488095398252465 #
coedge $-1 $414 $413 $466 $488 reversed $220 $-1 #
coedge $-1 $419 $415 $465 $488 forward $317 $-1 #
vertex $-1 $416 $489 #
straight-curve $-1 0 31.007840341717742 8.9488095398252465 -1 0 0 I I #
point $-1 -50.557928575252987 31.007840341717742 8.9488095398252447 #
vertex $-1 $488 $490 #
straight-curve $-1 0 -31.007840341717742 8.9488095398252465 1 0 0 I I #
straight-curve $-1 -60.601214636677142 -31.007840341717742 0 0 0 -1 I I #
straight-curve $-1 -60.601214636677142 31.007840341717742 0 0 0 -1 I I #
straight-curve $-1 0 31.007840341717742 8.9488095398252465 -1 0 0 I I #
straight-curve $-1 -50.557928575252994 31.007840341717742 66.698574922202695 0 0 1 I I #
point $-1 -50.557928575252987 31.007840341717742 8.9488095398252447 #
point $-1 -45.571151716258484 24.914693713093992 2.9012347757679233 #
point $-1 -38.090986427766722 24.914693713093992 2.9012347757679233 #
point $-1 -30.610821139274961 24.914693713093992 2.9012347757679233 #
straight-curve $-1 -50.557928575252994 -31.007840341717738 45.551278408646425 0 0 -1 I I #
straight-curve $-1 -50.557928575252987 0 8.9488095398252465 0 -1 0 I I #
point $-1 -50.557928575252994 -31.007840341717742 2.4607124394296389 #
straight-curve $-1 -19.045493213883361 -31.007840341717742 2.4607124394296354 1 0 0 I I #
point $-1 -50.557928575252987 -31.007840341717742 8.9488095398252447 #
point $-1 -45.571151716258484 -24.914693713093989 2.9012347757679251 #
point $-1 -38.090986427766722 -24.914693713093989 2.9012347757679251 #
point $-1 -30.610821139274961 -24.914693713093989 2.9012347757679251 #
edge $-1 $467 -31.007840341717742 $470 31.007840341717742 $465 $491 forward 7 unknown #
point $-1 -60.601214636677142 31.007840341717742 8.9488095398252465 #
point $-1 -60.601214636677142 -31.007840341717742 8.9488095398252465 #
straight-curve $-1 -60.601214636677142 0 8.9488095398252465 0 -1 0 I I #
End-of-ACIS-data 