500 0 11 0           
7 Unknown 11 ACIS 5.0 NT 24 Thu Mar 25 16:36:26 1999 
-1 9.9999999999999995e-007 1e-010 
body $-1 $11 $-1 $12 #
body $-1 $13 $-1 $14 #
body $-1 $15 $-1 $16 #
body $-1 $17 $-1 $18 #
body $-1 $19 $-1 $20 #
body $-1 $21 $-1 $22 #
body $-1 $23 $-1 $24 #
body $-1 $25 $-1 $26 #
body $-1 $27 $-1 $28 #
body $-1 $29 $-1 $30 #
body $-1 $31 $-1 $32 #
lump $-1 $-1 $33 $0 #
transform $-1 1 0 0 0 1 0 0 0 1 59.574571977904597 37.914132489517982 11.178692751685604 1 rotate no_reflect no_shear #
lump $-1 $-1 $34 $1 #
transform $-1 1 0 0 0 1 0 0 0 1 59.574571977904597 37.914132489517982 11.178692751685604 1 rotate no_reflect no_shear #
lump $-1 $-1 $35 $2 #
transform $-1 1 0 0 0 1 0 0 0 1 59.574571977904597 37.914132489517982 11.178692751685604 1 rotate no_reflect no_shear #
lump $-1 $-1 $36 $3 #
transform $-1 1 0 0 0 1 0 0 0 1 59.574571977904597 37.914132489517982 11.178692751685604 1 rotate no_reflect no_shear #
lump $-1 $-1 $37 $4 #
transform $-1 1 0 0 0 1 0 0 0 1 59.574571977904597 37.914132489517982 11.178692751685604 1 rotate no_reflect no_shear #
lump $-1 $-1 $38 $5 #
transform $-1 1 0 0 0 1 0 0 0 1 59.574571977904597 37.914132489517982 11.178692751685604 1 rotate no_reflect no_shear #
lump $-1 $-1 $39 $6 #
transform $-1 1 0 0 0 1 0 0 0 1 59.574571977904597 37.914132489517982 11.178692751685604 1 rotate no_reflect no_shear #
lump $-1 $-1 $40 $7 #
transform $-1 1 0 0 0 1 0 0 0 1 59.574571977904597 37.914132489517982 11.178692751685604 1 rotate no_reflect no_shear #
lump $-1 $-1 $41 $8 #
transform $-1 1 0 0 0 1 0 0 0 1 59.574571977904597 37.914132489517982 11.178692751685604 1 rotate no_reflect no_shear #
lump $-1 $-1 $42 $9 #
transform $-1 1 0 0 0 1 0 0 0 1 59.574571977904597 37.914132489517982 11.178692751685604 1 rotate no_reflect no_shear #
lump $-1 $-1 $43 $10 #
transform $-1 1 0 0 0 1 0 0 0 1 59.574571977904597 37.914132489517982 11.178692751685604 1 rotate no_reflect no_shear #
shell $-1 $-1 $-1 $44 $-1 $11 #
shell $-1 $-1 $-1 $45 $-1 $13 #
shell $-1 $-1 $-1 $46 $-1 $15 #
shell $-1 $-1 $-1 $47 $-1 $17 #
shell $-1 $-1 $-1 $48 $-1 $19 #
shell $-1 $-1 $-1 $49 $-1 $21 #
shell $-1 $-1 $-1 $50 $-1 $23 #
shell $-1 $-1 $-1 $51 $-1 $25 #
shell $-1 $-1 $-1 $52 $-1 $27 #
shell $-1 $-1 $-1 $53 $-1 $29 #
shell $-1 $-1 $-1 $54 $-1 $31 #
face $-1 $55 $56 $33 $-1 $57 forward single #
face $-1 $58 $59 $34 $-1 $60 reversed single #
face $-1 $61 $62 $35 $-1 $63 reversed single #
face $-1 $64 $65 $36 $-1 $66 forward single #
face $-1 $67 $68 $37 $-1 $69 forward single #
face $-1 $70 $71 $38 $-1 $72 reversed single #
face $-1 $73 $74 $39 $-1 $75 forward single #
face $-1 $76 $77 $40 $-1 $78 forward single #
face $-1 $79 $80 $41 $-1 $81 reversed single #
face $-1 $82 $83 $42 $-1 $84 forward single #
face $-1 $85 $86 $43 $-1 $87 forward single #
face $-1 $88 $89 $33 $-1 $90 reversed single #
loop $-1 $-1 $91 $44 #
plane-surface $-1 0 0 11.178692751685604 0 0 1 1 0 0 forward_v I I I I #
face $-1 $92 $93 $34 $-1 $94 reversed single #
loop $-1 $-1 $95 $45 #
plane-surface $-1 -50.441632877327962 -31.856442316670829 0 1 0 0 0 0 -1 forward_v I I I I #
face $-1 $96 $97 $35 $-1 $98 reversed single #
loop $-1 $-1 $99 $46 #
plane-surface $-1 -152.17084900021013 -20.75309869588731 78.443210414155899 0 1 0 -0.77714596973225614 0 0.62932038083071107 forward_v I I I I #
face $-1 $100 $101 $36 $-1 $102 forward single #
loop $-1 $103 $104 $47 #
cone-surface $-1 -55.646606411691614 -16.916336888502563 6.6693484687222142 0.77714596973225614 0 -0.62932038083071107 0.62932038083071107 0 0.77714596973225614 1 I I 0 1 1 forward I I I I #
face $-1 $105 $106 $37 $-1 $107 forward single #
loop $-1 $108 $109 $48 #
cone-surface $-1 -55.646606411691614 -11.161194177425443 6.6693484687222142 0.77714596973225614 0 -0.62932038083071107 0.62932038083071107 0 0.77714596973225614 1 I I 0 1 1 forward I I I I #
face $-1 $110 $111 $38 $-1 $112 reversed single #
loop $-1 $-1 $113 $49 #
plane-surface $-1 -152.17084900021013 19.439812715734995 78.443210414155899 0 1 0 -0.77714596973225614 0 0.62932038083071107 forward_v I I I I #
face $-1 $114 $115 $39 $-1 $116 forward single #
loop $-1 $117 $118 $50 #
cone-surface $-1 -55.646606411691614 23.276574523119741 6.6693484687222142 0.77714596973225614 0 -0.62932038083071107 0.62932038083071107 0 0.77714596973225614 1 I I 0 1 1 forward I I I I #
face $-1 $119 $120 $40 $-1 $121 forward single #
loop $-1 $122 $123 $51 #
cone-surface $-1 -55.646606411691614 29.031717234196861 6.6693484687222142 0.77714596973225614 0 -0.62932038083071107 0.62932038083071107 0 0.77714596973225614 1 I I 0 1 1 forward I I I I #
face $-1 $124 $125 $41 $-1 $126 reversed single #
loop $-1 $-1 $127 $52 #
plane-surface $-1 91.726335688596507 24.065762615952423 169.35641629886231 0 1 0 0.82903758062907751 0 0.55919289150049634 forward_v I I I I #
face $-1 $128 $129 $42 $-1 $130 forward single #
loop $-1 $131 $132 $53 #
cone-surface $-1 54.871719969200697 28.022439722685434 6.0366066726431367 -0.82903758062907751 0 -0.55919289150049634 0.83878933725074445 0 -1.2435563709436162 1 I I 0 1 1.5 forward I I I I #
face $-1 $133 $134 $43 $-1 $135 forward single #
loop $-1 $136 $137 $54 #
cone-surface $-1 54.871719969200697 33.957455382784957 6.0366066726431367 -0.82903758062907751 0 -0.55919289150049634 0.83878933725074445 0 -1.2435563709436162 1 I I 0 1 1.5 forward I I I I #
face $-1 $138 $139 $33 $-1 $140 reversed single #
loop $-1 $-1 $141 $55 #
plane-surface $-1 0 0 -11.178692751685604 0 0 1 1 0 0 forward_v I I I I #
coedge $-1 $142 $143 $144 $145 forward $56 $-1 #
face $-1 $146 $147 $34 $-1 $148 reversed single #
loop $-1 $-1 $149 $58 #
plane-surface $-1 -47.788352224912899 -25.798752143823677 0 0 -1 0 0 0 -1 forward_v I I I I #
coedge $-1 $150 $151 $152 $153 forward $59 $-1 #
face $-1 $154 $155 $35 $-1 $156 reversed single #
loop $-1 $-1 $157 $61 #
plane-surface $-1 -59.574571977904611 -14.038765532964007 3.4602257642328453 -0.77714596973225614 0 0.62932038083071107 0.62932038083071107 0 0.77714596973225614 forward_v I I I I #
coedge $-1 $158 $159 $160 $161 reversed $62 $-1 #
face $-1 $-1 $162 $36 $-1 $163 forward single #
loop $-1 $164 $165 $64 #
cone-surface $-1 -54.455213440178795 -16.916336888502563 5.7045774890698464 0.77714596973225614 0 -0.62932038083071107 0.31466019041535553 0 0.38857298486612807 1 I I -0.70710678118654746 0.70710678118654746 0.5 forward I I I I #
loop $-1 $-1 $166 $47 #
coedge $-1 $104 $104 $167 $168 reversed $65 $-1 #
face $-1 $-1 $169 $37 $-1 $170 forward single #
loop $-1 $171 $172 $67 #
cone-surface $-1 -54.455213440178795 -11.161194177425443 5.7045774890698464 0.77714596973225614 0 -0.62932038083071107 0.31466019041535553 0 0.38857298486612807 1 I I -0.70710678118654746 0.70710678118654746 0.5 forward I I I I #
loop $-1 $-1 $173 $48 #
coedge $-1 $109 $109 $174 $175 reversed $68 $-1 #
face $-1 $176 $177 $38 $-1 $178 reversed single #
loop $-1 $-1 $179 $70 #
plane-surface $-1 -59.574571977904611 26.154145878658298 3.4602257642328453 -0.77714596973225614 0 0.62932038083071107 0.62932038083071107 0 0.77714596973225614 forward_v I I I I #
coedge $-1 $180 $181 $182 $183 reversed $71 $-1 #
face $-1 $-1 $184 $39 $-1 $185 forward single #
loop $-1 $186 $187 $73 #
cone-surface $-1 -54.455213440178795 23.276574523119741 5.7045774890698464 0.77714596973225614 0 -0.62932038083071107 0.31466019041535553 0 0.38857298486612807 1 I I -0.70710678118654746 0.70710678118654746 0.5 forward I I I I #
loop $-1 $-1 $188 $50 #
coedge $-1 $118 $118 $189 $190 reversed $74 $-1 #
face $-1 $-1 $191 $40 $-1 $192 forward single #
loop $-1 $193 $194 $76 #
cone-surface $-1 -54.455213440178795 29.031717234196861 5.7045774890698464 0.77714596973225614 0 -0.62932038083071107 0.31466019041535553 0 0.38857298486612807 1 I I -0.70710678118654746 0.70710678118654746 0.5 forward I I I I #
loop $-1 $-1 $195 $51 #
coedge $-1 $123 $123 $196 $197 reversed $77 $-1 #
face $-1 $198 $199 $41 $-1 $200 forward single #
loop $-1 $-1 $201 $79 #
plane-surface $-1 -7.0527823505532155 30.989947552735202 102.72906197040449 0.82903758062907751 0 0.55919289150049634 0.55919289150049634 0 -0.82903758062907751 forward_v I I I I #
coedge $-1 $202 $203 $204 $205 reversed $80 $-1 #
face $-1 $-1 $206 $42 $-1 $207 forward single #
loop $-1 $208 $209 $82 #
cone-surface $-1 51.985016021842554 28.022439722685434 4.0895003351907189 -0.82903758062907751 0 -0.55919289150049634 0.41939466862537222 0 -0.62177818547180808 1 I I -0.70710678118654757 0.70710678118654757 0.75 forward I I I I #
loop $-1 $-1 $210 $53 #
coedge $-1 $132 $132 $211 $212 reversed $83 $-1 #
face $-1 $-1 $213 $43 $-1 $214 forward single #
loop $-1 $215 $216 $85 #
cone-surface $-1 51.985016021842554 33.957455382784957 4.0895003351907189 -0.82903758062907751 0 -0.55919289150049634 0.41939466862537222 0 -0.62177818547180808 1 I I -0.70710678118654757 0.70710678118654757 0.75 forward I I I I #
loop $-1 $-1 $217 $54 #
coedge $-1 $137 $137 $218 $219 reversed $86 $-1 #
face $-1 $220 $221 $33 $-1 $222 reversed single #
loop $-1 $-1 $223 $88 #
plane-surface $-1 0 -37.914132489517982 0 0 1 0 0 0 1 forward_v I I I I #
coedge $-1 $224 $225 $226 $227 forward $89 $-1 #
coedge $-1 $228 $91 $229 $230 forward $56 $-1 #
coedge $-1 $91 $228 $231 $232 forward $56 $-1 #
coedge $-1 $233 $234 $91 $145 reversed $235 $-1 #
edge $-1 $236 -37.914132489517982 $237 37.914132489517982 $144 $238 forward 7 unknown #
face $-1 $239 $240 $34 $-1 $241 forward single #
loop $-1 $-1 $242 $92 #
plane-surface $-1 -45.135071572497836 -31.856442316670829 0 -1 0 0 0 0 1 forward_v I I I I #
coedge $-1 $243 $244 $245 $246 forward $93 $-1 #
coedge $-1 $247 $95 $248 $249 reversed $59 $-1 #
coedge $-1 $95 $247 $250 $251 reversed $59 $-1 #
coedge $-1 $244 $243 $95 $153 reversed $93 $-1 #
edge $-1 $252 -11.178692751685604 $253 11.178692751685604 $152 $254 forward 7 unknown #
face $-1 $255 $256 $35 $-1 $257 reversed single #
loop $-1 $-1 $258 $96 #
plane-surface $-1 -152.17084900021013 -7.3244323700407019 78.443210414155899 0 -1 0 0.77714596973225614 0 -0.62932038083071107 forward_v I I I I #
coedge $-1 $259 $260 $261 $262 reversed $97 $-1 #
coedge $-1 $159 $99 $263 $264 reversed $62 $-1 #
coedge $-1 $99 $158 $259 $265 reversed $62 $-1 #
coedge $-1 $261 $266 $99 $161 forward $267 $-1 #
edge $-1 $268 16.510852522200466 $269 22.761143681333039 $160 $270 forward 7 unknown #
loop $-1 $-1 $167 $100 #
plane-surface $-1 -59.574571977904611 -14.038765532964007 3.4602257642328453 -0.77714596973225614 0 0.62932038083071107 0.62932038083071107 0 0.77714596973225614 forward_v I I I I #
loop $-1 $-1 $271 $64 #
coedge $-1 $165 $165 $166 $272 reversed $101 $-1 #
coedge $-1 $166 $166 $165 $272 forward $103 $-1 #
coedge $-1 $167 $167 $104 $168 forward $162 $-1 #
edge $-1 $273 0 $273 6.2831853071796004 $167 $274 forward 7 unknown #
loop $-1 $-1 $174 $105 #
plane-surface $-1 -59.574571977904611 -14.038765532964007 3.4602257642328453 -0.77714596973225614 0 0.62932038083071107 0.62932038083071107 0 0.77714596973225614 forward_v I I I I #
loop $-1 $-1 $275 $67 #
coedge $-1 $172 $172 $173 $276 reversed $106 $-1 #
coedge $-1 $173 $173 $172 $276 forward $108 $-1 #
coedge $-1 $174 $174 $109 $175 forward $169 $-1 #
edge $-1 $277 0 $277 6.2831853071796004 $174 $278 forward 7 unknown #
face $-1 $279 $280 $38 $-1 $281 forward single #
loop $-1 $-1 $282 $110 #
plane-surface $-1 -152.17084900021013 32.868479041581601 78.443210414155899 0 -1 0 0.77714596973225614 0 -0.62932038083071107 forward_v I I I I #
coedge $-1 $283 $284 $285 $286 reversed $111 $-1 #
coedge $-1 $181 $113 $287 $288 reversed $71 $-1 #
coedge $-1 $113 $180 $283 $289 reversed $71 $-1 #
coedge $-1 $285 $290 $113 $183 forward $280 $-1 #
edge $-1 $291 16.510852522200466 $292 22.761143681333039 $182 $293 forward 7 unknown #
loop $-1 $-1 $189 $114 #
plane-surface $-1 -59.574571977904611 26.154145878658298 3.4602257642328453 -0.77714596973225614 0 0.62932038083071107 0.62932038083071107 0 0.77714596973225614 forward_v I I I I #
loop $-1 $-1 $294 $73 #
coedge $-1 $187 $187 $188 $295 reversed $115 $-1 #
coedge $-1 $188 $188 $187 $295 forward $117 $-1 #
coedge $-1 $189 $189 $118 $190 forward $184 $-1 #
edge $-1 $296 0 $296 6.2831853071796004 $189 $297 forward 7 unknown #
loop $-1 $-1 $196 $119 #
plane-surface $-1 -59.574571977904611 26.154145878658298 3.4602257642328453 -0.77714596973225614 0 0.62932038083071107 0.62932038083071107 0 0.77714596973225614 forward_v I I I I #
loop $-1 $-1 $298 $76 #
coedge $-1 $194 $194 $195 $299 reversed $120 $-1 #
coedge $-1 $195 $195 $194 $299 forward $122 $-1 #
coedge $-1 $196 $196 $123 $197 forward $191 $-1 #
edge $-1 $300 0 $300 6.2831853071796004 $196 $301 forward 7 unknown #
face $-1 $302 $303 $41 $-1 $304 reversed single #
loop $-1 $-1 $305 $124 #
plane-surface $-1 0 0 11.178692751685604 0 0 1 1 0 0 forward_v I I I I #
coedge $-1 $306 $307 $308 $309 reversed $125 $-1 #
coedge $-1 $203 $127 $310 $311 reversed $80 $-1 #
coedge $-1 $127 $202 $306 $312 reversed $80 $-1 #
coedge $-1 $308 $313 $127 $205 forward $314 $-1 #
edge $-1 $315 73.499515397745554 $316 80.728264218176378 $204 $317 forward 7 unknown #
loop $-1 $-1 $211 $128 #
plane-surface $-1 -7.0527823505532155 30.989947552735202 102.72906197040449 0.82903758062907751 0 0.55919289150049634 0.55919289150049634 0 -0.82903758062907751 forward_v I I I I #
loop $-1 $-1 $318 $82 #
coedge $-1 $209 $209 $210 $319 reversed $129 $-1 #
coedge $-1 $210 $210 $209 $319 forward $131 $-1 #
coedge $-1 $211 $211 $132 $212 forward $206 $-1 #
edge $-1 $320 0 $320 6.2831853071796004 $211 $321 forward 7 unknown #
loop $-1 $-1 $218 $133 #
plane-surface $-1 -7.0527823505532155 30.989947552735202 102.72906197040449 0.82903758062907751 0 0.55919289150049634 0.55919289150049634 0 -0.82903758062907751 forward_v I I I I #
loop $-1 $-1 $322 $85 #
coedge $-1 $216 $216 $217 $323 reversed $134 $-1 #
coedge $-1 $217 $217 $216 $323 forward $136 $-1 #
coedge $-1 $218 $218 $137 $219 forward $213 $-1 #
edge $-1 $324 0 $324 6.2831853071796004 $218 $325 forward 7 unknown #
face $-1 $326 $327 $33 $-1 $328 reversed single #
loop $-1 $-1 $329 $138 #
plane-surface $-1 -59.574571977904597 0 0 1 0 0 0 0 -1 forward_v I I I I #
coedge $-1 $330 $231 $331 $332 forward $139 $-1 #
coedge $-1 $333 $141 $330 $334 forward $89 $-1 #
coedge $-1 $141 $333 $335 $336 forward $89 $-1 #
coedge $-1 $234 $233 $141 $227 reversed $235 $-1 #
edge $-1 $337 -37.914132489517982 $338 37.914132489517982 $226 $339 forward 7 unknown #
coedge $-1 $143 $142 $340 $341 forward $56 $-1 #
coedge $-1 $342 $343 $142 $230 reversed $327 $-1 #
edge $-1 $237 -59.574571977904597 $344 59.574571977904597 $229 $345 forward 7 unknown #
coedge $-1 $223 $346 $143 $232 reversed $139 $-1 #
edge $-1 $347 -59.574571977904597 $236 59.574571977904597 $231 $348 forward 7 unknown #
coedge $-1 $226 $144 $346 $349 forward $235 $-1 #
coedge $-1 $144 $226 $342 $350 reversed $235 $-1 #
loop $-1 $-1 $233 $326 #
vertex $-1 $145 $351 #
vertex $-1 $145 $352 #
straight-curve $-1 59.574571977904597 0 11.178692751685604 0 1 0 I I #
face $-1 $353 $354 $34 $-1 $355 reversed single #
loop $-1 $-1 $356 $146 #
plane-surface $-1 0 0 11.178692751685604 0 0 1 1 0 0 forward_v I I I I #
coedge $-1 $357 $358 $359 $360 reversed $147 $-1 #
coedge $-1 $152 $149 $361 $362 reversed $93 $-1 #
coedge $-1 $149 $152 $363 $364 reversed $93 $-1 #
coedge $-1 $358 $357 $149 $246 reversed $147 $-1 #
edge $-1 $365 -11.178692751685604 $366 11.178692751685604 $245 $367 forward 7 unknown #
coedge $-1 $151 $150 $368 $369 reversed $59 $-1 #
coedge $-1 $361 $370 $150 $249 forward $354 $-1 #
edge $-1 $371 -21.985911331182567 $253 -9.8705309854882621 $248 $372 forward 7 unknown #
coedge $-1 $373 $363 $151 $251 forward $240 $-1 #
edge $-1 $252 9.8705309854882621 $374 21.985911331182567 $250 $375 forward 7 unknown #
vertex $-1 $251 $376 #
vertex $-1 $249 $377 #
straight-curve $-1 -50.441632877327962 -25.798752143823677 0 0 0 -1 I I #
face $-1 $-1 $267 $35 $-1 $378 forward single #
loop $-1 $-1 $379 $154 #
plane-surface $-1 -59.574571977904597 0 0 1 0 0 0 0 -1 forward_v I I I I #
coedge $-1 $380 $381 $382 $383 reversed $155 $-1 #
coedge $-1 $384 $157 $159 $265 forward $97 $-1 #
coedge $-1 $157 $384 $380 $385 forward $97 $-1 #
coedge $-1 $382 $160 $157 $262 forward $267 $-1 #
edge $-1 $269 -13.733715929405307 $386 -0.30504960355869848 $261 $387 forward 7 unknown #
coedge $-1 $388 $389 $158 $264 forward $256 $-1 #
edge $-1 $390 -35.761379442845083 $268 -28.042912455392347 $263 $391 forward 7 unknown #
edge $-1 $269 -9.9318111243785268 $390 -2.2748066086763162e-014 $159 $392 forward 7 unknown #
coedge $-1 $160 $382 $388 $393 forward $267 $-1 #
loop $-1 $-1 $382 $255 #
vertex $-1 $264 $394 #
vertex $-1 $161 $395 #
straight-curve $-1 -76.085424500105063 -20.75309869588731 11.178692751685603 1 0 0 I I #
coedge $-1 $271 $271 $-1 $396 reversed $164 $-1 #
edge $-1 $397 0 $397 6.2831853071796004 $165 $398 forward 7 unknown #
vertex $-1 $168 $399 #
ellipse-curve $-1 -56.449426398338311 -16.916336888502563 7.3194592579592328 -0.77714596973225614 0 0.62932038083071107 0.62932038083071107 0 0.77714596973225614 1 I I #
coedge $-1 $275 $275 $-1 $400 reversed $171 $-1 #
edge $-1 $401 0 $401 6.2831853071796004 $172 $402 forward 7 unknown #
vertex $-1 $175 $403 #
ellipse-curve $-1 -56.449426398338311 -11.161194177425443 7.3194592579592328 -0.77714596973225614 0 0.62932038083071107 0.62932038083071107 0 0.77714596973225614 1 I I #
face $-1 $-1 $404 $38 $-1 $405 reversed single #
loop $-1 $-1 $182 $176 #
plane-surface $-1 0 0 11.178692751685604 0 0 1 1 0 0 forward_v I I I I #
coedge $-1 $406 $407 $408 $409 reversed $177 $-1 #
coedge $-1 $410 $179 $181 $289 forward $111 $-1 #
coedge $-1 $179 $410 $406 $411 forward $111 $-1 #
coedge $-1 $408 $182 $179 $286 forward $280 $-1 #
edge $-1 $292 6.3627397764058458 $412 19.791406102252452 $285 $413 forward 7 unknown #
coedge $-1 $414 $415 $180 $288 forward $404 $-1 #
edge $-1 $416 -35.761379442845083 $291 -28.042912455392347 $287 $417 forward 7 unknown #
edge $-1 $292 -9.9318111243785268 $416 -2.2748066086763162e-014 $181 $418 forward 7 unknown #
coedge $-1 $182 $408 $414 $419 forward $280 $-1 #
vertex $-1 $288 $420 #
vertex $-1 $183 $421 #
straight-curve $-1 -76.085424500105063 19.439812715734995 11.178692751685603 1 0 0 I I #
coedge $-1 $294 $294 $-1 $422 reversed $186 $-1 #
edge $-1 $423 0 $423 6.2831853071796004 $187 $424 forward 7 unknown #
vertex $-1 $190 $425 #
ellipse-curve $-1 -56.449426398338311 23.276574523119741 7.3194592579592328 -0.77714596973225614 0 0.62932038083071107 0.62932038083071107 0 0.77714596973225614 1 I I #
coedge $-1 $298 $298 $-1 $426 reversed $193 $-1 #
edge $-1 $427 0 $427 6.2831853071796004 $194 $428 forward 7 unknown #
vertex $-1 $197 $429 #
ellipse-curve $-1 -56.449426398338311 29.031717234196861 7.3194592579592328 -0.77714596973225614 0 0.62932038083071107 0.62932038083071107 0 0.77714596973225614 1 I I #
face $-1 $-1 $314 $41 $-1 $430 reversed single #
loop $-1 $-1 $431 $198 #
plane-surface $-1 0 37.914132489517982 0 0 -1 0 0 0 -1 forward_v I I I I #
coedge $-1 $310 $432 $433 $434 forward $199 $-1 #
coedge $-1 $433 $201 $203 $312 forward $125 $-1 #
coedge $-1 $201 $433 $431 $435 reversed $125 $-1 #
coedge $-1 $436 $204 $201 $309 forward $314 $-1 #
edge $-1 $316 8.5707888395848215 $437 22.419158713150381 $308 $438 forward 7 unknown #
coedge $-1 $439 $305 $202 $311 forward $199 $-1 #
edge $-1 $440 8.8355516399712286 $315 13.711404133606344 $310 $441 forward 7 unknown #
edge $-1 $316 -119.14914395580917 $440 -110.42969746829819 $203 $442 forward 7 unknown #
coedge $-1 $204 $436 $439 $443 reversed $314 $-1 #
loop $-1 $-1 $308 $302 #
vertex $-1 $443 $444 #
vertex $-1 $205 $445 #
straight-curve $-1 59.574571977904597 24.065762615952423 84.678208149431157 0 0 -1 I I #
coedge $-1 $318 $318 $-1 $446 reversed $208 $-1 #
edge $-1 $447 0 $447 6.2831853071796004 $209 $448 forward 7 unknown #
vertex $-1 $212 $449 #
ellipse-curve $-1 57.136645731087043 28.022439722685434 7.5643183414701909 0.82903758062907751 0 0.55919289150049634 0.83878933725074445 0 -1.2435563709436162 1 I I #
coedge $-1 $322 $322 $-1 $450 reversed $215 $-1 #
edge $-1 $451 0 $451 6.2831853071796004 $216 $452 forward 7 unknown #
vertex $-1 $219 $453 #
ellipse-curve $-1 57.136645731087043 33.957455382784957 7.5643183414701909 0.82903758062907751 0 0.55919289150049634 0.83878933725074445 0 -1.2435563709436162 1 I I #
face $-1 $-1 $235 $33 $-1 $454 reversed single #
loop $-1 $-1 $342 $220 #
plane-surface $-1 0 37.914132489517982 0 0 -1 0 0 0 -1 forward_v I I I I #
coedge $-1 $455 $340 $343 $456 forward $221 $-1 #
coedge $-1 $346 $223 $224 $334 reversed $139 $-1 #
coedge $-1 $340 $455 $223 $332 reversed $221 $-1 #
edge $-1 $347 -11.178692751685604 $457 11.178692751685604 $331 $458 forward 7 unknown #
coedge $-1 $225 $224 $455 $459 forward $89 $-1 #
edge $-1 $338 -59.574571977904597 $457 59.574571977904597 $330 $460 forward 7 unknown #
coedge $-1 $343 $342 $225 $336 reversed $327 $-1 #
edge $-1 $461 -59.574571977904597 $337 59.574571977904597 $335 $462 forward 7 unknown #
vertex $-1 $227 $463 #
vertex $-1 $349 $464 #
straight-curve $-1 59.574571977904597 0 -11.178692751685604 0 -1 0 I I #
coedge $-1 $329 $331 $228 $341 reversed $221 $-1 #
edge $-1 $344 -37.914132489517982 $347 37.914132489517982 $340 $465 forward 7 unknown #
coedge $-1 $335 $229 $234 $350 forward $327 $-1 #
coedge $-1 $229 $335 $329 $456 reversed $327 $-1 #
vertex $-1 $230 $466 #
straight-curve $-1 0 37.914132489517982 11.178692751685604 -1 0 0 I I #
coedge $-1 $231 $330 $233 $349 reversed $139 $-1 #
vertex $-1 $341 $467 #
straight-curve $-1 0 -37.914132489517982 11.178692751685604 1 0 0 I I #
edge $-1 $236 -11.178692751685604 $338 11.178692751685604 $233 $468 forward 7 unknown #
edge $-1 $237 -11.178692751685604 $337 11.178692751685604 $234 $469 forward 7 unknown #
point $-1 59.574571977904597 -37.914132489517982 11.178692751685604 #
point $-1 59.574571977904597 37.914132489517982 11.178692751685604 #
face $-1 $-1 $470 $34 $-1 $471 reversed single #
loop $-1 $-1 $472 $239 #
plane-surface $-1 0 0 -11.178692751685604 0 0 1 1 0 0 forward_v I I I I #
coedge $-1 $363 $373 $358 $473 forward $240 $-1 #
coedge $-1 $245 $242 $472 $474 reversed $147 $-1 #
coedge $-1 $242 $245 $356 $473 reversed $147 $-1 #
coedge $-1 $475 $476 $242 $360 forward $470 $-1 #
edge $-1 $477 -11.178692751685604 $478 11.178692751685604 $359 $479 forward 7 unknown #
coedge $-1 $472 $248 $243 $362 forward $354 $-1 #
edge $-1 $253 -26.547456764871512 $366 -21.240895460041386 $361 $480 forward 7 unknown #
coedge $-1 $250 $356 $244 $364 forward $240 $-1 #
edge $-1 $365 21.240895460041386 $252 26.547456764871512 $363 $481 forward 7 unknown #
vertex $-1 $364 $482 #
vertex $-1 $362 $483 #
straight-curve $-1 -45.135071572497836 -25.798752143823677 0 0 0 -1 I I #
coedge $-1 $476 $475 $247 $369 forward $470 $-1 #
edge $-1 $374 -11.178692751685604 $371 11.178692751685604 $368 $484 forward 7 unknown #
coedge $-1 $248 $472 $476 $485 forward $354 $-1 #
vertex $-1 $249 $486 #
straight-curve $-1 -50.441632877327962 -15.928221158335415 -11.178692751685604 0 1 0 I I #
coedge $-1 $356 $250 $475 $487 forward $240 $-1 #
vertex $-1 $487 $488 #
straight-curve $-1 -50.441632877327962 -15.928221158335415 11.178692751685604 0 -1 0 I I #
point $-1 -50.441632877327962 -25.798752143823677 11.178692751685604 #
point $-1 -50.441632877327962 -25.798752143823677 -11.178692751685604 #
plane-surface $-1 0 0 11.178692751685604 0 0 1 1 0 0 forward_v I I I I #
coedge $-1 $389 $388 $381 $489 forward $256 $-1 #
coedge $-1 $381 $258 $260 $385 reversed $155 $-1 #
coedge $-1 $258 $380 $379 $489 reversed $155 $-1 #
coedge $-1 $266 $261 $258 $383 forward $267 $-1 #
edge $-1 $386 -22.761143681333039 $490 -16.510852522200466 $382 $491 forward 7 unknown #
coedge $-1 $260 $259 $389 $492 reversed $97 $-1 #
edge $-1 $493 2.2748066086763162e-014 $386 9.9318111243785268 $380 $494 forward 7 unknown #
vertex $-1 $262 $495 #
straight-curve $-1 -53.324280818772024 -7.0193827664820034 11.178692751685604 0 1 0 I I #
coedge $-1 $379 $263 $266 $393 reversed $256 $-1 #
coedge $-1 $263 $379 $384 $492 forward $256 $-1 #
vertex $-1 $264 $496 #
straight-curve $-1 -59.574571977904597 -20.75309869588731 39.22160520707795 0 0 1 I I #
straight-curve $-1 -59.574571977904611 -20.75309869588731 3.4602257642328453 -0.62932038083071107 0 -0.77714596973225614 I I #
edge $-1 $490 7.3244323700407019 $268 20.75309869588731 $388 $497 forward 7 unknown #
point $-1 -59.574571977904597 -20.75309869588731 11.178692751685604 #
point $-1 -53.324280818772024 -20.75309869588731 11.178692751685604 #
edge $-1 $498 1 $498 0 $271 $-1 forward 7 unknown #
vertex $-1 $272 $499 #
ellipse-curve $-1 -54.843786425044925 -16.916336888502563 6.0192376794852018 -0.77714596973225614 0 0.62932038083071107 0.62932038083071107 0 0.77714596973225614 1 I I #
point $-1 -55.820106017507591 -16.916336888502563 8.0966052276914819 #
edge $-1 $500 1 $500 0 $275 $-1 forward 7 unknown #
vertex $-1 $276 $501 #
ellipse-curve $-1 -54.843786425044925 -11.161194177425443 6.0192376794852018 -0.77714596973225614 0 0.62932038083071107 0.62932038083071107 0 0.77714596973225614 1 I I #
point $-1 -55.820106017507591 -11.161194177425443 8.0966052276914819 #
loop $-1 $-1 $287 $279 #
plane-surface $-1 -59.574571977904597 0 0 1 0 0 0 0 -1 forward_v I I I I #
coedge $-1 $407 $282 $284 $411 reversed $177 $-1 #
coedge $-1 $282 $406 $502 $503 reversed $177 $-1 #
coedge $-1 $290 $285 $282 $409 forward $280 $-1 #
edge $-1 $412 -22.761143681333039 $504 -16.510852522200466 $408 $505 forward 7 unknown #
coedge $-1 $284 $283 $415 $506 reversed $111 $-1 #
edge $-1 $507 2.2748066086763162e-014 $412 9.9318111243785268 $406 $508 forward 7 unknown #
vertex $-1 $286 $509 #
straight-curve $-1 -53.324280818772024 13.077072939329149 11.178692751685604 0 1 0 I I #
coedge $-1 $502 $287 $290 $419 reversed $404 $-1 #
coedge $-1 $287 $502 $410 $506 forward $404 $-1 #
vertex $-1 $288 $510 #
straight-curve $-1 -59.574571977904597 19.439812715734995 39.22160520707795 0 0 1 I I #
straight-curve $-1 -59.574571977904611 19.439812715734995 3.4602257642328453 -0.62932038083071107 0 -0.77714596973225614 I I #
edge $-1 $504 -32.868479041581601 $291 -19.439812715734995 $414 $511 forward 7 unknown #
point $-1 -59.574571977904597 19.439812715734995 11.178692751685604 #
point $-1 -53.324280818772024 19.439812715734995 11.178692751685604 #
edge $-1 $512 1 $512 0 $294 $-1 forward 7 unknown #
vertex $-1 $295 $513 #
ellipse-curve $-1 -54.843786425044925 23.276574523119741 6.0192376794852018 -0.77714596973225614 0 0.62932038083071107 0.62932038083071107 0 0.77714596973225614 1 I I #
point $-1 -55.820106017507591 23.276574523119741 8.0966052276914819 #
edge $-1 $514 1 $514 0 $298 $-1 forward 7 unknown #
vertex $-1 $299 $515 #
ellipse-curve $-1 -54.843786425044925 29.031717234196861 6.0192376794852018 -0.77714596973225614 0 0.62932038083071107 0.62932038083071107 0 0.77714596973225614 1 I I #
point $-1 -55.820106017507591 29.031717234196861 8.0966052276914819 #
plane-surface $-1 59.574571977904597 0 0 -1 0 0 0 0 1 forward_v I I I I #
coedge $-1 $516 $517 $307 $435 forward $303 $-1 #
coedge $-1 $305 $439 $516 $518 forward $199 $-1 #
coedge $-1 $307 $306 $305 $434 reversed $125 $-1 #
edge $-1 $519 -22.419158713150381 $440 -8.5707888395848215 $305 $520 forward 7 unknown #
edge $-1 $437 -74.594084579825051 $519 -65.874638092314058 $431 $521 forward 7 unknown #
coedge $-1 $313 $308 $517 $522 reversed $314 $-1 #
vertex $-1 $309 $523 #
straight-curve $-1 59.574571977904597 15.494973776367601 3.9499439312547935 0 1 0 I I #
coedge $-1 $432 $310 $313 $443 forward $199 $-1 #
vertex $-1 $311 $524 #
straight-curve $-1 45.863167844298253 24.065762615952423 11.178692751685603 1 0 0 I I #
straight-curve $-1 -7.0527823505532155 24.065762615952423 102.72906197040449 -0.55919289150049634 0 0.82903758062907751 I I #
edge $-1 $315 24.065762615952423 $525 37.914132489517982 $313 $526 forward 7 unknown #
point $-1 59.574571977904597 24.065762615952423 11.178692751685604 #
point $-1 59.574571977904597 24.065762615952423 3.9499439312547793 #
edge $-1 $527 1 $527 0 $318 $-1 forward 7 unknown #
vertex $-1 $319 $528 #
ellipse-curve $-1 52.606794207314366 28.022439722685434 4.5088950038160913 0.82903758062907751 0 0.55919289150049634 0.83878933725074445 0 -1.2435563709436162 1 I I #
point $-1 57.975435068337781 28.022439722685434 6.3207619705265667 #
edge $-1 $529 1 $529 0 $322 $-1 forward 7 unknown #
vertex $-1 $323 $530 #
ellipse-curve $-1 52.606794207314366 33.957455382784957 4.5088950038160913 0.82903758062907751 0 0.55919289150049634 0.83878933725074445 0 -1.2435563709436162 1 I I #
point $-1 57.975435068337781 33.957455382784957 6.3207619705265667 #
plane-surface $-1 59.574571977904597 0 0 -1 0 0 0 0 1 forward_v I I I I #
coedge $-1 $331 $329 $333 $459 reversed $221 $-1 #
edge $-1 $344 -11.178692751685604 $461 11.178692751685604 $343 $531 forward 7 unknown #
vertex $-1 $459 $532 #
straight-curve $-1 -59.574571977904597 -37.914132489517982 0 0 0 -1 I I #
edge $-1 $457 -37.914132489517982 $461 37.914132489517982 $455 $533 forward 7 unknown #
straight-curve $-1 0 -37.914132489517982 -11.178692751685604 -1 0 0 I I #
vertex $-1 $336 $534 #
straight-curve $-1 0 37.914132489517982 -11.178692751685604 1 0 0 I I #
point $-1 59.574571977904597 37.914132489517982 -11.178692751685604 #
point $-1 59.574571977904597 -37.914132489517982 -11.178692751685604 #
straight-curve $-1 -59.574571977904597 0 11.178692751685604 0 -1 0 I I #
point $-1 -59.574571977904597 37.914132489517982 11.178692751685604 #
point $-1 -59.574571977904597 -37.914132489517982 11.178692751685604 #
straight-curve $-1 59.574571977904597 -37.914132489517982 0 0 0 -1 I I #
straight-curve $-1 59.574571977904597 37.914132489517982 0 0 0 -1 I I #
loop $-1 $-1 $359 $353 #
plane-surface $-1 0 -37.914132489517982 0 0 1 0 0 0 1 forward_v I I I I #
coedge $-1 $370 $361 $357 $474 forward $354 $-1 #
edge $-1 $478 -21.985911331182567 $365 -9.8705309854882621 $356 $535 forward 7 unknown #
edge $-1 $366 9.8705309854882621 $477 21.985911331182567 $472 $536 forward 7 unknown #
coedge $-1 $368 $359 $373 $487 reversed $470 $-1 #
coedge $-1 $359 $368 $370 $485 reversed $470 $-1 #
vertex $-1 $485 $537 #
vertex $-1 $360 $538 #
straight-curve $-1 -45.135071572497836 -37.914132489517982 0 0 0 1 I I #
straight-curve $-1 -23.894176112456449 -25.798752143823677 -11.178692751685604 1 0 0 I I #
straight-curve $-1 -23.894176112456449 -25.798752143823677 11.178692751685604 -1 0 0 I I #
point $-1 -45.135071572497836 -25.798752143823677 11.178692751685604 #
point $-1 -45.135071572497836 -25.798752143823677 -11.178692751685604 #
straight-curve $-1 -50.441632877327962 -37.914132489517982 0 0 0 -1 I I #
edge $-1 $477 45.135071572497836 $371 50.441632877327962 $476 $539 forward 7 unknown #
point $-1 -50.441632877327962 -37.914132489517982 -11.178692751685604 #
edge $-1 $374 -50.441632877327962 $478 -45.135071572497836 $475 $540 forward 7 unknown #
point $-1 -50.441632877327962 -37.914132489517982 11.178692751685604 #
edge $-1 $490 28.042912455392347 $493 35.761379442845083 $379 $541 forward 7 unknown #
vertex $-1 $393 $542 #
straight-curve $-1 -76.085424500105063 -7.3244323700407019 11.178692751685603 -1 0 0 I I #
edge $-1 $493 0.30504960355869848 $390 13.733715929405307 $389 $543 forward 7 unknown #
vertex $-1 $492 $544 #
straight-curve $-1 -59.574571977904611 -7.3244323700407019 3.4602257642328453 0.62932038083071107 0 0.77714596973225614 I I #
point $-1 -53.324280818772024 -7.3244323700407019 11.178692751685604 #
point $-1 -59.574571977904597 -20.75309869588731 3.4602257642328631 #
straight-curve $-1 -59.574571977904597 0 11.178692751685604 0 -1 0 I I #
vertex $-1 $396 $545 #
point $-1 -54.214466044214213 -16.916336888502563 6.7963836492174581 #
vertex $-1 $400 $546 #
point $-1 -54.214466044214213 -11.161194177425443 6.7963836492174581 #
coedge $-1 $415 $414 $407 $503 forward $404 $-1 #
edge $-1 $504 28.042912455392347 $507 35.761379442845083 $502 $547 forward 7 unknown #
vertex $-1 $419 $548 #
straight-curve $-1 -76.085424500105063 32.868479041581601 11.178692751685603 -1 0 0 I I #
edge $-1 $507 -19.791406102252452 $416 -6.3627397764058458 $415 $549 forward 7 unknown #
vertex $-1 $506 $550 #
straight-curve $-1 -59.574571977904611 32.868479041581601 3.4602257642328453 0.62932038083071107 0 0.77714596973225614 I I #
point $-1 -53.324280818772024 32.868479041581601 11.178692751685604 #
point $-1 -59.574571977904597 19.439812715734995 3.4602257642328631 #
straight-curve $-1 -59.574571977904597 0 11.178692751685604 0 -1 0 I I #
vertex $-1 $422 $551 #
point $-1 -54.214466044214213 23.276574523119741 6.7963836492174581 #
vertex $-1 $426 $552 #
point $-1 -54.214466044214213 29.031717234196861 6.7963836492174581 #
coedge $-1 $517 $431 $432 $518 reversed $303 $-1 #
coedge $-1 $431 $516 $436 $522 forward $303 $-1 #
edge $-1 $525 -59.574571977904597 $519 -54.698719484269482 $516 $553 forward 7 unknown #
vertex $-1 $435 $554 #
straight-curve $-1 54.698719484269489 15.494973776367601 11.178692751685595 0 -1 0 I I #
straight-curve $-1 17.86209013287964 37.914132489517982 65.79124334055372 -0.55919289150049634 0 0.82903758062907751 I I #
edge $-1 $525 -11.178692751685604 $437 -3.949943931254785 $436 $555 forward 7 unknown #
point $-1 59.574571977904597 37.914132489517982 3.949943931254785 #
point $-1 54.698719484269482 24.065762615952423 11.178692751685603 #
vertex $-1 $443 $556 #
straight-curve $-1 59.574571977904597 0 11.178692751685604 0 1 0 I I #
vertex $-1 $446 $557 #
point $-1 53.44558354456511 28.022439722685434 3.2653386328724752 #
vertex $-1 $450 $558 #
point $-1 53.44558354456511 33.957455382784957 3.2653386328724752 #
straight-curve $-1 -59.574571977904597 37.914132489517982 0 0 0 -1 I I #
point $-1 -59.574571977904597 -37.914132489517982 -11.178692751685604 #
straight-curve $-1 -59.574571977904597 0 -11.178692751685604 0 1 0 I I #
point $-1 -59.574571977904597 37.914132489517982 -11.178692751685604 #
straight-curve $-1 -45.135071572497836 -15.928221158335415 11.178692751685604 0 1 0 I I #
straight-curve $-1 -45.135071572497836 -15.928221158335415 -11.178692751685604 0 -1 0 I I #
point $-1 -45.135071572497836 -37.914132489517982 -11.178692751685604 #
point $-1 -45.135071572497836 -37.914132489517982 11.178692751685604 #
straight-curve $-1 0 -37.914132489517982 -11.178692751685604 -1 0 0 I I #
straight-curve $-1 0 -37.914132489517982 11.178692751685604 1 0 0 I I #
straight-curve $-1 -59.574571977904597 -7.3244323700407019 39.22160520707795 0 0 -1 I I #
point $-1 -59.574571977904597 -7.3244323700407019 11.178692751685604 #
straight-curve $-1 -59.574571977904597 -7.0193827664820034 3.4602257642328667 0 -1 0 I I #
point $-1 -59.574571977904597 -7.3244323700407019 3.4602257642328631 #
point $-1 -54.066640455312665 -16.916336888502563 5.389917298654491 #
point $-1 -54.066640455312665 -11.161194177425443 5.389917298654491 #
straight-curve $-1 -59.574571977904597 32.868479041581601 39.22160520707795 0 0 -1 I I #
point $-1 -59.574571977904597 32.868479041581601 11.178692751685604 #
straight-curve $-1 -59.574571977904597 13.077072939329149 3.4602257642328667 0 -1 0 I I #
point $-1 -59.574571977904597 32.868479041581601 3.4602257642328631 #
point $-1 -54.066640455312665 23.276574523119741 5.389917298654491 #
point $-1 -54.066640455312665 29.031717234196861 5.389917298654491 #
straight-curve $-1 0 37.914132489517982 11.178692751685604 -1 0 0 I I #
point $-1 54.698719484269482 37.914132489517982 11.178692751685603 #
straight-curve $-1 59.574571977904597 37.914132489517982 0 0 0 -1 I I #
point $-1 59.574571977904597 37.914132489517982 11.178692751685604 #
point $-1 51.363237836370743 28.022439722685434 3.6701056665653464 #
point $-1 51.363237836370743 33.957455382784957 3.6701056665653464 #
End-of-ACIS-data 