500 0 6 0           
7 Unknown 11 ACIS 5.0 NT 24 Thu Mar 25 23:59:56 1999 
-1 9.9999999999999995e-007 1e-010 
body $-1 $6 $-1 $7 #
body $-1 $8 $-1 $9 #
body $-1 $10 $-1 $11 #
body $-1 $12 $-1 $13 #
body $-1 $14 $-1 $15 #
body $-1 $16 $-1 $17 #
lump $-1 $-1 $18 $0 #
transform $-1 1 0 0 0 1 0 0 0 1 51.422467726676231 34.151128618245941 10.326216529160293 1 rotate no_reflect no_shear #
lump $-1 $-1 $19 $1 #
transform $-1 1 0 0 0 1 0 0 0 1 51.422467726676231 34.151128618245941 10.326216529160293 1 rotate no_reflect no_shear #
lump $-1 $-1 $20 $2 #
transform $-1 1 0 0 0 1 0 0 0 1 51.422467726676231 34.151128618245941 10.326216529160293 1 rotate no_reflect no_shear #
lump $-1 $-1 $21 $3 #
transform $-1 1 0 0 0 1 0 0 0 1 51.422467726676231 34.151128618245941 10.326216529160293 1 rotate no_reflect no_shear #
lump $-1 $-1 $22 $4 #
transform $-1 1 0 0 0 1 0 0 0 1 51.422467726676231 34.151128618245941 10.326216529160293 1 rotate no_reflect no_shear #
lump $-1 $-1 $23 $5 #
transform $-1 1 0 0 0 1 0 0 0 1 51.422467726676231 34.151128618245941 10.326216529160293 1 rotate no_reflect no_shear #
shell $-1 $-1 $-1 $24 $-1 $6 #
shell $-1 $-1 $-1 $25 $-1 $8 #
shell $-1 $-1 $-1 $26 $-1 $10 #
shell $-1 $-1 $-1 $27 $-1 $12 #
shell $-1 $-1 $-1 $28 $-1 $14 #
shell $-1 $-1 $-1 $29 $-1 $16 #
face $-1 $30 $31 $18 $-1 $32 forward single #
face $-1 $33 $34 $19 $-1 $35 forward single #
face $-1 $36 $37 $20 $-1 $38 reversed single #
face $-1 $39 $40 $21 $-1 $41 forward single #
face $-1 $42 $43 $22 $-1 $44 reversed single #
face $-1 $45 $46 $23 $-1 $47 forward single #
face $-1 $48 $49 $18 $-1 $50 reversed single #
loop $-1 $-1 $51 $24 #
plane-surface $-1 0 0 10.326216529160293 0 0 1 1 0 0 forward_v I I I I #
face $-1 $52 $53 $19 $-1 $54 forward single #
loop $-1 $-1 $55 $25 #
plane-surface $-1 0 -34.151128618245941 0 0 1 0 0 0 1 forward_v I I I I #
face $-1 $56 $57 $20 $-1 $58 reversed single #
loop $-1 $-1 $59 $26 #
plane-surface $-1 56.498416404807642 20.313888294935463 150.0833635597638 0 -1 0 -0.73135370988377701 0 -0.68199835119979291 forward_v I I I I #
face $-1 $60 $61 $21 $-1 $62 forward single #
loop $-1 $63 $64 $27 #
cone-surface $-1 48.122754957292166 15.727626185798819 6.8840890057892166 -0.73135370988377701 0 -0.68199835119979291 0.68199835119979291 0 -0.73135370988377701 1 I I 0 1 1 forward I I I I #
face $-1 $65 $66 $22 $-1 $67 reversed single #
loop $-1 $-1 $68 $28 #
plane-surface $-1 -126.63849281324316 11.141364076662175 74.867338473196895 0 1 0 -0.73135370988377701 0 0.68199835119979291 forward_v I I I I #
face $-1 $69 $70 $23 $-1 $71 forward single #
loop $-1 $72 $73 $29 #
cone-surface $-1 -48.122754957292166 15.727626185798819 6.8840890057892166 0.73135370988377701 0 -0.68199835119979291 0.68199835119979291 0 0.73135370988377701 1 I I 0 1 1 forward I I I I #
face $-1 $74 $75 $18 $-1 $76 reversed single #
loop $-1 $-1 $77 $30 #
plane-surface $-1 0 0 -10.326216529160293 0 0 1 1 0 0 forward_v I I I I #
coedge $-1 $78 $79 $80 $81 forward $31 $-1 #
face $-1 $82 $83 $19 $-1 $84 reversed single #
loop $-1 $-1 $85 $33 #
plane-surface $-1 0 0 10.326216529160293 0 0 1 1 0 0 forward_v I I I I #
coedge $-1 $86 $87 $88 $89 forward $34 $-1 #
face $-1 $90 $91 $20 $-1 $92 reversed single #
loop $-1 $-1 $93 $36 #
plane-surface $-1 -18.717608681759273 15.727626185798819 79.943287151328292 0.73135370988377701 0 0.68199835119979291 0.68199835119979291 0 -0.73135370988377701 forward_v I I I I #
coedge $-1 $94 $95 $96 $97 reversed $37 $-1 #
face $-1 $-1 $98 $21 $-1 $99 forward single #
loop $-1 $100 $101 $39 #
cone-surface $-1 47.067920021866058 15.727626185798819 5.900439539017702 -0.73135370988377701 0 -0.68199835119979291 0.34099917559989645 0 -0.36567685494188851 1 I I -0.70710678118654746 0.70710678118654746 0.5 forward I I I I #
loop $-1 $-1 $102 $27 #
coedge $-1 $64 $64 $103 $104 reversed $40 $-1 #
face $-1 $105 $106 $22 $-1 $107 reversed single #
loop $-1 $-1 $108 $42 #
plane-surface $-1 -51.422467726676246 15.727626185798819 4.7272620647613905 -0.73135370988377701 0 0.68199835119979291 0.68199835119979291 0 0.73135370988377701 forward_v I I I I #
coedge $-1 $109 $110 $111 $112 reversed $43 $-1 #
face $-1 $-1 $113 $23 $-1 $114 forward single #
loop $-1 $115 $116 $45 #
cone-surface $-1 -47.067920021866058 15.727626185798819 5.900439539017702 0.73135370988377701 0 -0.68199835119979291 0.34099917559989645 0 0.36567685494188851 1 I I -0.70710678118654746 0.70710678118654746 0.5 forward I I I I #
loop $-1 $-1 $117 $29 #
coedge $-1 $73 $73 $118 $119 reversed $46 $-1 #
face $-1 $120 $121 $18 $-1 $122 reversed single #
loop $-1 $-1 $123 $48 #
plane-surface $-1 0 -34.151128618245941 0 0 1 0 0 0 1 forward_v I I I I #
coedge $-1 $124 $125 $126 $127 forward $49 $-1 #
coedge $-1 $128 $51 $129 $130 forward $31 $-1 #
coedge $-1 $51 $128 $131 $132 forward $31 $-1 #
coedge $-1 $133 $134 $51 $81 reversed $135 $-1 #
edge $-1 $136 -34.151128618245941 $137 34.151128618245941 $80 $138 forward 7 unknown #
face $-1 $139 $140 $19 $-1 $141 reversed single #
loop $-1 $-1 $142 $52 #
plane-surface $-1 -51.422467726676231 0 0 1 0 0 0 0 -1 forward_v I I I I #
coedge $-1 $143 $144 $145 $146 forward $53 $-1 #
coedge $-1 $145 $55 $142 $147 reversed $34 $-1 #
coedge $-1 $55 $145 $148 $149 reversed $34 $-1 #
coedge $-1 $150 $151 $55 $89 reversed $140 $-1 #
edge $-1 $152 -51.422467726676231 $153 51.422467726676231 $88 $154 forward 7 unknown #
face $-1 $155 $156 $20 $-1 $157 reversed single #
loop $-1 $-1 $158 $56 #
plane-surface $-1 56.498416404807642 11.141364076662175 150.0833635597638 0 1 0 0.73135370988377701 0 0.68199835119979291 forward_v I I I I #
coedge $-1 $159 $160 $161 $162 reversed $57 $-1 #
coedge $-1 $95 $59 $163 $164 reversed $37 $-1 #
coedge $-1 $59 $94 $159 $165 reversed $37 $-1 #
coedge $-1 $161 $166 $59 $97 forward $167 $-1 #
edge $-1 $168 -23.17325952427241 $169 -17.952150146472732 $96 $170 forward 7 unknown #
loop $-1 $-1 $103 $60 #
plane-surface $-1 -18.717608681759273 15.727626185798819 79.943287151328292 0.73135370988377701 0 0.68199835119979291 0.68199835119979291 0 -0.73135370988377701 forward_v I I I I #
loop $-1 $-1 $171 $39 #
coedge $-1 $101 $101 $102 $172 reversed $61 $-1 #
coedge $-1 $102 $102 $101 $172 forward $63 $-1 #
coedge $-1 $103 $103 $64 $104 forward $98 $-1 #
edge $-1 $173 0 $173 6.2831853071796004 $103 $174 forward 7 unknown #
face $-1 $175 $176 $22 $-1 $177 forward single #
loop $-1 $-1 $178 $65 #
plane-surface $-1 -126.63849281324316 20.313888294935463 74.867338473196895 0 -1 0 0.73135370988377701 0 -0.68199835119979291 forward_v I I I I #
coedge $-1 $179 $180 $181 $182 reversed $66 $-1 #
coedge $-1 $110 $68 $183 $184 reversed $43 $-1 #
coedge $-1 $68 $109 $179 $185 reversed $43 $-1 #
coedge $-1 $181 $186 $68 $112 forward $176 $-1 #
edge $-1 $187 11.896778679945349 $188 17.117888057745013 $111 $189 forward 7 unknown #
loop $-1 $-1 $118 $69 #
plane-surface $-1 -51.422467726676246 15.727626185798819 4.7272620647613905 -0.73135370988377701 0 0.68199835119979291 0.68199835119979291 0 0.73135370988377701 forward_v I I I I #
loop $-1 $-1 $190 $45 #
coedge $-1 $116 $116 $117 $191 reversed $70 $-1 #
coedge $-1 $117 $117 $116 $191 forward $72 $-1 #
coedge $-1 $118 $118 $73 $119 forward $113 $-1 #
edge $-1 $192 0 $192 6.2831853071796004 $118 $193 forward 7 unknown #
face $-1 $194 $195 $18 $-1 $196 reversed single #
loop $-1 $-1 $197 $74 #
plane-surface $-1 -51.422467726676231 0 0 1 0 0 0 0 -1 forward_v I I I I #
coedge $-1 $198 $131 $199 $200 forward $75 $-1 #
coedge $-1 $201 $77 $198 $202 forward $49 $-1 #
coedge $-1 $77 $201 $203 $204 forward $49 $-1 #
coedge $-1 $134 $133 $77 $127 reversed $135 $-1 #
edge $-1 $205 -34.151128618245941 $206 34.151128618245941 $126 $207 forward 7 unknown #
coedge $-1 $79 $78 $208 $209 forward $31 $-1 #
coedge $-1 $210 $211 $78 $130 reversed $195 $-1 #
edge $-1 $137 -51.422467726676231 $212 51.422467726676231 $129 $213 forward 7 unknown #
coedge $-1 $123 $214 $79 $132 reversed $75 $-1 #
edge $-1 $215 -51.422467726676231 $136 51.422467726676231 $131 $216 forward 7 unknown #
coedge $-1 $126 $80 $214 $217 forward $135 $-1 #
coedge $-1 $80 $126 $210 $218 reversed $135 $-1 #
loop $-1 $-1 $133 $194 #
vertex $-1 $81 $219 #
vertex $-1 $81 $220 #
straight-curve $-1 51.422467726676231 0 10.326216529160293 0 1 0 I I #
face $-1 $221 $222 $19 $-1 $223 reversed single #
loop $-1 $-1 $150 $82 #
plane-surface $-1 0 -38.948276550581674 4.7632892115528414 0 0 1 1 0 0 forward_v I I I I #
coedge $-1 $224 $225 $86 $147 forward $83 $-1 #
coedge $-1 $226 $85 $225 $227 forward $53 $-1 #
coedge $-1 $85 $226 $228 $229 forward $53 $-1 #
coedge $-1 $87 $86 $85 $146 reversed $34 $-1 #
edge $-1 $230 -51.422467726676231 $231 51.422467726676231 $85 $232 forward 7 unknown #
edge $-1 $231 -10.326216529160293 $153 -4.7632892115528414 $142 $233 forward 7 unknown #
coedge $-1 $228 $234 $87 $149 forward $235 $-1 #
edge $-1 $152 4.7632892115528414 $230 10.326216529160293 $148 $236 forward 7 unknown #
coedge $-1 $237 $88 $234 $238 forward $140 $-1 #
coedge $-1 $88 $237 $224 $239 forward $140 $-1 #
vertex $-1 $149 $240 #
vertex $-1 $147 $241 #
straight-curve $-1 0 -34.151128618245941 4.7632892115528414 -1 0 0 I I #
face $-1 $-1 $167 $20 $-1 $242 forward single #
loop $-1 $-1 $243 $90 #
plane-surface $-1 51.422467726676231 0 0 -1 0 0 0 0 1 forward_v I I I I #
coedge $-1 $244 $245 $246 $247 reversed $91 $-1 #
coedge $-1 $248 $93 $95 $165 forward $57 $-1 #
coedge $-1 $93 $248 $244 $249 forward $57 $-1 #
coedge $-1 $246 $96 $93 $162 forward $167 $-1 #
edge $-1 $169 -12.450075202036054 $250 -3.2775509837627652 $161 $251 forward 7 unknown #
coedge $-1 $252 $253 $94 $164 forward $156 $-1 #
edge $-1 $254 -70.314419715120522 $168 -64.715465250721607 $163 $255 forward 7 unknown #
edge $-1 $169 95.189331347250828 $254 102.84493545335246 $95 $256 forward 7 unknown #
coedge $-1 $96 $246 $252 $257 forward $167 $-1 #
loop $-1 $-1 $246 $155 #
vertex $-1 $164 $258 #
vertex $-1 $97 $259 #
straight-curve $-1 28.249208202403821 20.313888294935463 10.326216529160291 -1 0 0 I I #
coedge $-1 $171 $171 $-1 $260 reversed $100 $-1 #
edge $-1 $261 0 $261 6.2831853071796004 $101 $262 forward 7 unknown #
vertex $-1 $104 $263 #
ellipse-curve $-1 48.811913037776385 15.727626185798819 7.5267392969608355 0.73135370988377701 0 0.68199835119979291 0.68199835119979291 0 -0.73135370988377701 1 I I #
face $-1 $-1 $264 $22 $-1 $265 reversed single #
loop $-1 $-1 $111 $105 #
plane-surface $-1 0 0 10.326216529160293 0 0 1 1 0 0 forward_v I I I I #
coedge $-1 $266 $267 $268 $269 reversed $106 $-1 #
coedge $-1 $270 $108 $110 $185 forward $66 $-1 #
coedge $-1 $108 $270 $266 $271 forward $66 $-1 #
coedge $-1 $268 $111 $108 $182 forward $176 $-1 #
edge $-1 $188 3.2775509837627652 $272 12.450075202036054 $181 $273 forward 7 unknown #
coedge $-1 $274 $275 $109 $184 forward $264 $-1 #
edge $-1 $276 -32.706407171837043 $187 -27.107452707438156 $183 $277 forward 7 unknown #
edge $-1 $188 -7.65560410610163 $276 -2.0734513383776317e-014 $110 $278 forward 7 unknown #
coedge $-1 $111 $268 $274 $279 forward $176 $-1 #
vertex $-1 $184 $280 #
vertex $-1 $112 $281 #
straight-curve $-1 -63.319246406621581 11.141364076662175 10.326216529160291 1 0 0 I I #
coedge $-1 $190 $190 $-1 $282 reversed $115 $-1 #
edge $-1 $283 0 $283 6.2831853071796004 $116 $284 forward 7 unknown #
vertex $-1 $119 $285 #
ellipse-curve $-1 -48.811913037776399 15.727626185798819 7.5267392969608489 -0.73135370988377701 0 0.68199835119979291 0.68199835119979291 0 0.73135370988377701 1 I I #
face $-1 $-1 $135 $18 $-1 $286 reversed single #
loop $-1 $-1 $210 $120 #
plane-surface $-1 0 34.151128618245941 0 0 -1 0 0 0 -1 forward_v I I I I #
coedge $-1 $287 $208 $211 $288 forward $121 $-1 #
coedge $-1 $214 $123 $124 $202 reversed $75 $-1 #
coedge $-1 $208 $287 $123 $200 reversed $121 $-1 #
edge $-1 $215 -10.326216529160293 $289 10.326216529160293 $199 $290 forward 7 unknown #
coedge $-1 $125 $124 $287 $291 forward $49 $-1 #
edge $-1 $206 -51.422467726676231 $289 51.422467726676231 $198 $292 forward 7 unknown #
coedge $-1 $211 $210 $125 $204 reversed $195 $-1 #
edge $-1 $293 -51.422467726676231 $205 51.422467726676231 $203 $294 forward 7 unknown #
vertex $-1 $127 $295 #
vertex $-1 $217 $296 #
straight-curve $-1 51.422467726676231 0 -10.326216529160293 0 -1 0 I I #
coedge $-1 $197 $199 $128 $209 reversed $121 $-1 #
edge $-1 $212 -34.151128618245941 $215 34.151128618245941 $208 $297 forward 7 unknown #
coedge $-1 $203 $129 $134 $218 forward $195 $-1 #
coedge $-1 $129 $203 $197 $288 reversed $195 $-1 #
vertex $-1 $130 $298 #
straight-curve $-1 0 34.151128618245941 10.326216529160293 -1 0 0 I I #
coedge $-1 $131 $198 $133 $217 reversed $75 $-1 #
vertex $-1 $209 $299 #
straight-curve $-1 0 -34.151128618245941 10.326216529160293 1 0 0 I I #
edge $-1 $136 -10.326216529160293 $206 10.326216529160293 $133 $300 forward 7 unknown #
edge $-1 $137 -10.326216529160293 $205 10.326216529160293 $134 $301 forward 7 unknown #
point $-1 51.422467726676231 -34.151128618245941 10.326216529160293 #
point $-1 51.422467726676231 34.151128618245941 10.326216529160293 #
face $-1 $-1 $235 $19 $-1 $302 reversed single #
loop $-1 $-1 $303 $139 #
plane-surface $-1 0 -43.745424482917407 7.5447528703565663 0 1 0 0 0 1 forward_v I I I I #
coedge $-1 $304 $142 $151 $239 reversed $83 $-1 #
coedge $-1 $142 $304 $143 $227 reversed $83 $-1 #
coedge $-1 $144 $143 $305 $306 forward $53 $-1 #
edge $-1 $231 34.151128618245941 $307 43.745424482917407 $225 $308 forward 7 unknown #
coedge $-1 $309 $148 $144 $229 reversed $235 $-1 #
edge $-1 $310 -43.745424482917407 $230 -34.151128618245941 $228 $311 forward 7 unknown #
vertex $-1 $149 $312 #
vertex $-1 $227 $313 #
straight-curve $-1 0 -34.151128618245941 10.326216529160293 -1 0 0 I I #
straight-curve $-1 -51.422467726676231 -34.151128618245941 0 0 0 -1 I I #
coedge $-1 $148 $309 $150 $238 reversed $235 $-1 #
loop $-1 $-1 $148 $221 #
straight-curve $-1 51.422467726676231 -34.151128618245941 0 0 0 1 I I #
coedge $-1 $151 $150 $314 $315 forward $140 $-1 #
edge $-1 $152 -4.7971479323357329 $316 4.7971479323357329 $234 $317 forward 7 unknown #
edge $-1 $318 -4.7971479323357329 $153 4.7971479323357329 $224 $319 forward 7 unknown #
point $-1 51.422467726676231 -34.151128618245941 4.7632892115528414 #
point $-1 -51.422467726676231 -34.151128618245941 4.7632892115528414 #
plane-surface $-1 0 0 10.326216529160293 0 0 1 1 0 0 forward_v I I I I #
coedge $-1 $253 $252 $245 $320 forward $156 $-1 #
coedge $-1 $245 $158 $160 $249 reversed $91 $-1 #
coedge $-1 $158 $244 $243 $320 reversed $91 $-1 #
coedge $-1 $166 $161 $158 $247 forward $167 $-1 #
edge $-1 $250 17.952150146472732 $321 23.17325952427241 $246 $322 forward 7 unknown #
coedge $-1 $160 $159 $253 $323 reversed $57 $-1 #
edge $-1 $324 -102.84493545335246 $250 -95.189331347250828 $244 $325 forward 7 unknown #
vertex $-1 $162 $326 #
straight-curve $-1 46.201358348876553 7.8638130928994094 10.326216529160291 0 -1 0 I I #
coedge $-1 $243 $163 $166 $257 reversed $156 $-1 #
coedge $-1 $163 $243 $248 $323 forward $156 $-1 #
vertex $-1 $164 $327 #
straight-curve $-1 51.422467726676231 20.313888294935463 75.041681779881898 0 0 1 I I #
straight-curve $-1 -18.717608681759273 20.313888294935463 79.943287151328292 0.68199835119979291 0 -0.73135370988377701 I I #
edge $-1 $321 11.141364076662175 $168 20.313888294935463 $252 $328 forward 7 unknown #
point $-1 51.422467726676231 20.313888294935463 10.326216529160293 #
point $-1 46.201358348876553 20.313888294935463 10.326216529160291 #
edge $-1 $329 1 $329 0 $171 $-1 forward 7 unknown #
vertex $-1 $172 $330 #
ellipse-curve $-1 47.433596876807947 15.727626185798819 6.2414387146175985 0.73135370988377701 0 0.68199835119979291 0.68199835119979291 0 -0.73135370988377701 1 I I #
point $-1 49.49391138897618 15.727626185798819 6.7953855870770568 #
loop $-1 $-1 $183 $175 #
plane-surface $-1 -51.422467726676231 0 0 1 0 0 0 0 -1 forward_v I I I I #
coedge $-1 $267 $178 $180 $271 reversed $106 $-1 #
coedge $-1 $178 $266 $331 $332 reversed $106 $-1 #
coedge $-1 $186 $181 $178 $269 forward $176 $-1 #
edge $-1 $272 -17.117888057745013 $333 -11.896778679945349 $268 $334 forward 7 unknown #
coedge $-1 $180 $179 $275 $335 reversed $66 $-1 #
edge $-1 $336 2.0734513383776317e-014 $272 7.65560410610163 $266 $337 forward 7 unknown #
vertex $-1 $182 $338 #
straight-curve $-1 -46.201358348876568 7.8638130928994094 10.326216529160293 0 1 0 I I #
coedge $-1 $331 $183 $186 $279 reversed $264 $-1 #
coedge $-1 $183 $331 $270 $335 forward $264 $-1 #
vertex $-1 $184 $339 #
straight-curve $-1 -51.422467726676231 11.141364076662175 37.433669236598448 0 0 1 I I #
straight-curve $-1 -51.422467726676246 11.141364076662175 4.7272620647613905 -0.68199835119979291 0 -0.73135370988377701 I I #
edge $-1 $333 -20.313888294935463 $187 -11.141364076662175 $274 $340 forward 7 unknown #
point $-1 -51.422467726676231 11.141364076662175 10.326216529160293 #
point $-1 -46.201358348876568 11.141364076662175 10.326216529160293 #
edge $-1 $341 1 $341 0 $190 $-1 forward 7 unknown #
vertex $-1 $191 $342 #
ellipse-curve $-1 -47.433596876807947 15.727626185798819 6.2414387146175985 -0.73135370988377701 0 0.68199835119979291 0.68199835119979291 0 0.73135370988377701 1 I I #
point $-1 -48.129914686576591 15.727626185798819 8.2580930068446108 #
plane-surface $-1 51.422467726676231 0 0 -1 0 0 0 0 1 forward_v I I I I #
coedge $-1 $199 $197 $201 $291 reversed $121 $-1 #
edge $-1 $212 -10.326216529160293 $293 10.326216529160293 $211 $343 forward 7 unknown #
vertex $-1 $291 $344 #
straight-curve $-1 -51.422467726676231 -34.151128618245941 0 0 0 -1 I I #
edge $-1 $289 -34.151128618245941 $293 34.151128618245941 $287 $345 forward 7 unknown #
straight-curve $-1 0 -34.151128618245941 -10.326216529160293 -1 0 0 I I #
vertex $-1 $204 $346 #
straight-curve $-1 0 34.151128618245941 -10.326216529160293 1 0 0 I I #
point $-1 51.422467726676231 34.151128618245941 -10.326216529160293 #
point $-1 51.422467726676231 -34.151128618245941 -10.326216529160293 #
straight-curve $-1 -51.422467726676231 0 10.326216529160293 0 -1 0 I I #
point $-1 -51.422467726676231 34.151128618245941 10.326216529160293 #
point $-1 -51.422467726676231 -34.151128618245941 10.326216529160293 #
straight-curve $-1 51.422467726676231 -34.151128618245941 0 0 0 -1 I I #
straight-curve $-1 51.422467726676231 34.151128618245941 0 0 0 -1 I I #
plane-surface $-1 51.422467726676231 0 0 -1 0 0 0 0 1 forward_v I I I I #
coedge $-1 $314 $305 $304 $347 forward $222 $-1 #
coedge $-1 $225 $224 $303 $347 reversed $83 $-1 #
coedge $-1 $303 $348 $226 $306 reversed $222 $-1 #
edge $-1 $307 -51.422467726676231 $310 51.422467726676231 $305 $349 forward 7 unknown #
vertex $-1 $227 $350 #
straight-curve $-1 -51.422467726676231 0 10.326216529160293 0 -1 0 I I #
coedge $-1 $234 $228 $348 $351 forward $235 $-1 #
vertex $-1 $229 $352 #
straight-curve $-1 51.422467726676231 0 10.326216529160293 0 1 0 I I #
point $-1 51.422467726676231 -34.151128618245941 10.326216529160293 #
point $-1 -51.422467726676231 -34.151128618245941 10.326216529160293 #
coedge $-1 $348 $303 $237 $315 reversed $222 $-1 #
edge $-1 $316 -51.422467726676231 $318 51.422467726676231 $314 $353 forward 7 unknown #
vertex $-1 $351 $354 #
straight-curve $-1 51.422467726676231 -38.948276550581674 4.7632892115528414 0 -1 0 I I #
vertex $-1 $239 $355 #
straight-curve $-1 -51.422467726676231 -38.948276550581674 4.7632892115528414 0 1 0 I I #
edge $-1 $321 64.715465250721607 $324 70.314419715120522 $243 $356 forward 7 unknown #
vertex $-1 $257 $357 #
straight-curve $-1 28.249208202403821 11.141364076662175 10.326216529160291 1 0 0 I I #
edge $-1 $324 3.2775509837627652 $254 12.450075202036054 $253 $358 forward 7 unknown #
vertex $-1 $323 $359 #
straight-curve $-1 -18.717608681759273 11.141364076662175 79.943287151328292 -0.68199835119979291 0 0.73135370988377701 I I #
point $-1 46.201358348876553 11.141364076662175 10.326216529160291 #
point $-1 51.422467726676231 20.313888294935463 4.7272620647613763 #
straight-curve $-1 51.422467726676231 0 10.326216529160293 0 1 0 I I #
vertex $-1 $260 $360 #
point $-1 48.115595228007741 15.727626185798819 5.5100850047338215 #
coedge $-1 $275 $274 $267 $332 forward $264 $-1 #
edge $-1 $333 27.107452707438156 $336 32.706407171837043 $331 $361 forward 7 unknown #
vertex $-1 $279 $362 #
straight-curve $-1 -63.319246406621581 20.313888294935463 10.326216529160291 -1 0 0 I I #
edge $-1 $336 -12.450075202036054 $276 -3.2775509837627652 $275 $363 forward 7 unknown #
vertex $-1 $335 $364 #
straight-curve $-1 -51.422467726676246 20.313888294935463 4.7272620647613905 0.68199835119979291 0 0.73135370988377701 I I #
point $-1 -46.201358348876568 20.313888294935463 10.326216529160293 #
point $-1 -51.422467726676231 11.141364076662175 4.7272620647614056 #
straight-curve $-1 -51.422467726676231 0 10.326216529160293 0 -1 0 I I #
vertex $-1 $282 $365 #
point $-1 -46.751598525608152 15.727626185798819 6.9727924245013755 #
straight-curve $-1 -51.422467726676231 34.151128618245941 0 0 0 -1 I I #
point $-1 -51.422467726676231 -34.151128618245941 -10.326216529160293 #
straight-curve $-1 -51.422467726676231 0 -10.326216529160293 0 1 0 I I #
point $-1 -51.422467726676231 34.151128618245941 -10.326216529160293 #
edge $-1 $307 -2.7814636588037249 $318 2.7814636588037249 $304 $366 forward 7 unknown #
coedge $-1 $305 $314 $309 $351 reversed $222 $-1 #
straight-curve $-1 0 -43.745424482917407 10.326216529160291 1 0 0 I I #
point $-1 -51.422467726676231 -43.745424482917407 10.326216529160291 #
edge $-1 $310 -2.7814636588037249 $316 2.7814636588037249 $309 $367 forward 7 unknown #
point $-1 51.422467726676231 -43.745424482917407 10.326216529160291 #
straight-curve $-1 0 -43.745424482917407 4.7632892115528414 -1 0 0 I I #
point $-1 51.422467726676231 -43.745424482917407 4.7632892115528414 #
point $-1 -51.422467726676231 -43.745424482917407 4.7632892115528414 #
straight-curve $-1 51.422467726676231 11.141364076662175 75.041681779881898 0 0 -1 I I #
point $-1 51.422467726676231 11.141364076662175 10.326216529160293 #
straight-curve $-1 51.422467726676231 7.8638130928994094 4.7272620647613834 0 1 0 I I #
point $-1 51.422467726676231 11.141364076662175 4.7272620647613763 #
point $-1 46.70224316692417 15.727626185798819 5.5594403634178056 #
straight-curve $-1 -51.422467726676231 20.313888294935463 37.433669236598448 0 0 -1 I I #
point $-1 -51.422467726676231 20.313888294935463 10.326216529160293 #
straight-curve $-1 -51.422467726676231 7.8638130928994094 4.7272620647614083 0 -1 0 I I #
point $-1 -51.422467726676231 20.313888294935463 4.7272620647614056 #
point $-1 -46.70224316692417 15.727626185798819 5.5594403634178056 #
straight-curve $-1 -51.422467726676231 -43.745424482917407 7.5447528703565663 0 0 -1 I I #
straight-curve $-1 51.422467726676231 -43.745424482917407 7.5447528703565663 0 0 -1 I I #
End-of-ACIS-data 