500 0 3 0           
7 Unknown 11 ACIS 5.0 NT 24 Thu Mar 25 23:28:05 1999 
-1 9.9999999999999995e-007 1e-010 
body $-1 $3 $-1 $4 #
body $-1 $5 $-1 $6 #
body $-1 $7 $-1 $8 #
lump $-1 $-1 $9 $0 #
transform $-1 1 0 0 0 1 0 0 0 1 76.009399700918607 33.371807822422724 10.400084010115419 1 rotate no_reflect no_shear #
lump $-1 $-1 $10 $1 #
transform $-1 1 0 0 0 1 0 0 0 1 76.009399700918607 33.371807822422724 10.400084010115419 1 rotate no_reflect no_shear #
lump $-1 $-1 $11 $2 #
transform $-1 1 0 0 0 1 0 0 0 1 76.009399700918607 33.371807822422724 10.400084010115419 1 rotate no_reflect no_shear #
shell $-1 $-1 $-1 $12 $-1 $3 #
shell $-1 $-1 $-1 $13 $-1 $5 #
shell $-1 $-1 $-1 $14 $-1 $7 #
face $-1 $15 $16 $9 $-1 $17 forward single #
face $-1 $18 $19 $10 $-1 $20 forward single #
face $-1 $21 $22 $11 $-1 $23 forward single #
face $-1 $24 $25 $9 $-1 $26 reversed single #
loop $-1 $-1 $27 $12 #
plane-surface $-1 0 0 10.400084010115419 0 0 1 1 0 0 forward_v I I I I #
face $-1 $28 $29 $10 $-1 $30 reversed single #
loop $-1 $-1 $31 $13 #
plane-surface $-1 0 -33.371807822422724 0 0 1 0 0 0 1 forward_v I I I I #
face $-1 $32 $33 $11 $-1 $34 reversed single #
loop $-1 $-1 $35 $14 #
plane-surface $-1 0 28.567890725010649 1.6523409571465972 0 0 1 1 0 0 forward_v I I I I #
face $-1 $36 $37 $9 $-1 $38 reversed single #
loop $-1 $-1 $39 $15 #
plane-surface $-1 0 0 -10.400084010115419 0 0 1 1 0 0 forward_v I I I I #
coedge $-1 $40 $41 $42 $43 forward $16 $-1 #
face $-1 $44 $45 $10 $-1 $46 forward single #
loop $-1 $-1 $47 $18 #
plane-surface $-1 -76.009399700918607 0 0 1 0 0 0 0 -1 forward_v I I I I #
coedge $-1 $48 $49 $50 $51 forward $19 $-1 #
face $-1 $52 $53 $11 $-1 $54 reversed single #
loop $-1 $-1 $55 $21 #
plane-surface $-1 0 28.567890725010649 -2.1739834782776217 0 0 1 1 0 0 forward_v I I I I #
coedge $-1 $56 $57 $58 $59 reversed $22 $-1 #
face $-1 $60 $61 $9 $-1 $62 reversed single #
loop $-1 $-1 $63 $24 #
plane-surface $-1 0 -33.371807822422724 0 0 1 0 0 0 1 forward_v I I I I #
coedge $-1 $64 $65 $66 $67 forward $25 $-1 #
coedge $-1 $68 $27 $69 $70 forward $16 $-1 #
coedge $-1 $27 $68 $71 $72 forward $16 $-1 #
coedge $-1 $73 $74 $27 $43 reversed $75 $-1 #
edge $-1 $76 -33.371807822422724 $77 33.371807822422724 $42 $78 forward 7 unknown #
face $-1 $79 $80 $10 $-1 $81 reversed single #
loop $-1 $-1 $82 $28 #
plane-surface $-1 0 -39.072721453623899 3.7030868284543135 0 0 1 1 0 0 forward_v I I I I #
coedge $-1 $83 $84 $49 $85 forward $29 $-1 #
coedge $-1 $86 $31 $87 $88 reversed $19 $-1 #
coedge $-1 $31 $86 $47 $85 reversed $19 $-1 #
coedge $-1 $89 $82 $31 $51 reversed $45 $-1 #
edge $-1 $90 -76.009399700918607 $91 76.009399700918607 $50 $92 forward 7 unknown #
face $-1 $93 $94 $11 $-1 $95 reversed single #
loop $-1 $-1 $96 $32 #
plane-surface $-1 0 23.763973627598574 -0.26082126056551225 0 1 0 0 0 1 forward_v I I I I #
coedge $-1 $97 $98 $99 $100 reversed $33 $-1 #
coedge $-1 $101 $35 $102 $103 reversed $22 $-1 #
coedge $-1 $35 $101 $104 $105 forward $22 $-1 #
coedge $-1 $106 $107 $35 $59 forward $94 $-1 #
edge $-1 $108 -19.0878624599174 $109 -9.4800282650932495 $58 $110 forward 7 unknown #
face $-1 $111 $112 $9 $-1 $113 reversed single #
loop $-1 $-1 $114 $36 #
plane-surface $-1 -76.009399700918607 0 0 1 0 0 0 0 -1 forward_v I I I I #
coedge $-1 $115 $71 $116 $117 forward $37 $-1 #
coedge $-1 $118 $39 $115 $119 forward $25 $-1 #
coedge $-1 $39 $118 $120 $121 forward $25 $-1 #
coedge $-1 $74 $73 $39 $67 reversed $75 $-1 #
edge $-1 $122 -33.371807822422724 $123 33.371807822422724 $66 $124 forward 7 unknown #
coedge $-1 $41 $40 $125 $126 forward $16 $-1 #
coedge $-1 $127 $128 $40 $70 reversed $112 $-1 #
edge $-1 $77 -76.009399700918607 $129 76.009399700918607 $69 $130 forward 7 unknown #
coedge $-1 $63 $131 $41 $72 reversed $37 $-1 #
edge $-1 $132 -76.009399700918607 $76 76.009399700918607 $71 $133 forward 7 unknown #
coedge $-1 $66 $42 $131 $134 forward $75 $-1 #
coedge $-1 $42 $66 $127 $135 reversed $75 $-1 #
loop $-1 $-1 $73 $111 #
vertex $-1 $43 $136 #
vertex $-1 $43 $137 #
straight-curve $-1 76.009399700918607 0 10.400084010115419 0 1 0 I I #
face $-1 $138 $139 $10 $-1 $140 reversed single #
loop $-1 $-1 $141 $44 #
plane-surface $-1 0 -39.072721453623899 -2.4472042539642938 0 0 1 1 0 0 forward_v I I I I #
coedge $-1 $50 $142 $143 $144 forward $45 $-1 #
coedge $-1 $145 $47 $146 $147 reversed $29 $-1 #
coedge $-1 $47 $145 $89 $148 reversed $29 $-1 #
edge $-1 $90 -3.7030868284543135 $149 2.4472042539642938 $47 $150 forward 7 unknown #
coedge $-1 $49 $48 $151 $152 forward $19 $-1 #
coedge $-1 $143 $153 $48 $88 forward $154 $-1 #
edge $-1 $155 -2.4472042539642938 $91 3.7030868284543135 $87 $156 forward 7 unknown #
coedge $-1 $142 $50 $84 $148 forward $45 $-1 #
vertex $-1 $85 $157 #
vertex $-1 $144 $158 #
straight-curve $-1 0 -33.371807822422724 3.7030868284543135 1 0 0 I I #
face $-1 $159 $160 $11 $-1 $161 reversed single #
loop $-1 $-1 $58 $52 #
plane-surface $-1 76.009399700918607 0 0 -1 0 0 0 0 1 forward_v I I I I #
coedge $-1 $162 $104 $163 $164 reversed $53 $-1 #
coedge $-1 $165 $55 $162 $166 forward $33 $-1 #
coedge $-1 $55 $165 $167 $168 reversed $33 $-1 #
coedge $-1 $107 $106 $55 $100 forward $94 $-1 #
edge $-1 $169 9.4800282650932495 $170 19.0878624599174 $99 $171 forward 7 unknown #
coedge $-1 $57 $56 $172 $173 reversed $22 $-1 #
coedge $-1 $174 $175 $56 $103 forward $176 $-1 #
edge $-1 $177 -76.009399700918607 $108 76.009399700918607 $102 $178 forward 7 unknown #
coedge $-1 $96 $179 $57 $105 reversed $53 $-1 #
edge $-1 $180 -76.009399700918607 $109 76.009399700918607 $104 $181 forward 7 unknown #
coedge $-1 $99 $58 $179 $182 forward $94 $-1 #
coedge $-1 $58 $99 $174 $183 reversed $94 $-1 #
vertex $-1 $183 $184 #
vertex $-1 $59 $185 #
straight-curve $-1 76.009399700918607 14.283945362505325 1.6523409571465972 0 -1 0 I I #
face $-1 $-1 $75 $9 $-1 $186 reversed single #
loop $-1 $-1 $127 $60 #
plane-surface $-1 0 33.371807822422724 0 0 -1 0 0 0 -1 forward_v I I I I #
coedge $-1 $187 $125 $128 $188 forward $61 $-1 #
coedge $-1 $131 $63 $64 $119 reversed $37 $-1 #
coedge $-1 $125 $187 $63 $117 reversed $61 $-1 #
edge $-1 $132 -10.400084010115419 $189 10.400084010115419 $116 $190 forward 7 unknown #
coedge $-1 $65 $64 $187 $191 forward $25 $-1 #
edge $-1 $123 -76.009399700918607 $189 76.009399700918607 $115 $192 forward 7 unknown #
coedge $-1 $128 $127 $65 $121 reversed $112 $-1 #
edge $-1 $193 -76.009399700918607 $122 76.009399700918607 $120 $194 forward 7 unknown #
vertex $-1 $67 $195 #
vertex $-1 $134 $196 #
straight-curve $-1 76.009399700918607 0 -10.400084010115419 0 -1 0 I I #
coedge $-1 $114 $116 $68 $126 reversed $61 $-1 #
edge $-1 $129 -33.371807822422724 $132 33.371807822422724 $125 $197 forward 7 unknown #
coedge $-1 $120 $69 $74 $135 forward $112 $-1 #
coedge $-1 $69 $120 $114 $188 reversed $112 $-1 #
vertex $-1 $70 $198 #
straight-curve $-1 0 33.371807822422724 10.400084010115419 -1 0 0 I I #
coedge $-1 $71 $115 $73 $134 reversed $37 $-1 #
vertex $-1 $126 $199 #
straight-curve $-1 0 -33.371807822422724 10.400084010115419 1 0 0 I I #
edge $-1 $76 -10.400084010115419 $123 10.400084010115419 $73 $200 forward 7 unknown #
edge $-1 $77 -10.400084010115419 $122 10.400084010115419 $74 $201 forward 7 unknown #
point $-1 76.009399700918607 -33.371807822422724 10.400084010115419 #
point $-1 76.009399700918607 33.371807822422724 10.400084010115419 #
face $-1 $-1 $154 $10 $-1 $202 reversed single #
loop $-1 $-1 $203 $79 #
plane-surface $-1 0 -44.773635084825074 0.62794128724500986 0 1 0 0 0 1 forward_v I I I I #
coedge $-1 $204 $151 $153 $205 forward $80 $-1 #
coedge $-1 $82 $89 $206 $207 forward $45 $-1 #
coedge $-1 $208 $87 $82 $144 reversed $154 $-1 #
edge $-1 $209 -5.7009136312011748 $91 5.7009136312011748 $143 $210 forward 7 unknown #
coedge $-1 $84 $83 $203 $211 reversed $29 $-1 #
coedge $-1 $151 $204 $83 $147 forward $80 $-1 #
edge $-1 $212 -5.7009136312011748 $149 5.7009136312011748 $83 $213 forward 7 unknown #
edge $-1 $90 -5.7009136312011748 $214 5.7009136312011748 $84 $215 forward 7 unknown #
vertex $-1 $85 $216 #
straight-curve $-1 -76.009399700918607 -33.371807822422724 0 0 0 -1 I I #
coedge $-1 $141 $146 $86 $152 reversed $80 $-1 #
edge $-1 $155 -76.009399700918607 $149 76.009399700918607 $151 $217 forward 7 unknown #
coedge $-1 $87 $208 $141 $205 reversed $154 $-1 #
loop $-1 $-1 $87 $138 #
vertex $-1 $88 $218 #
straight-curve $-1 76.009399700918607 -33.371807822422724 0 0 0 1 I I #
point $-1 -76.009399700918607 -33.371807822422724 3.7030868284543135 #
point $-1 76.009399700918607 -33.371807822422724 3.7030868284543135 #
face $-1 $-1 $176 $11 $-1 $219 reversed single #
loop $-1 $-1 $172 $93 #
plane-surface $-1 -76.009399700918607 0 0 1 0 0 0 0 -1 forward_v I I I I #
coedge $-1 $179 $96 $97 $166 reversed $53 $-1 #
coedge $-1 $172 $220 $96 $164 forward $160 $-1 #
edge $-1 $221 -2.0435728479948656 $180 1.7827515874293534 $163 $222 forward 7 unknown #
coedge $-1 $98 $97 $220 $223 reversed $33 $-1 #
edge $-1 $169 -76.009399700918607 $221 76.009399700918607 $162 $224 forward 7 unknown #
coedge $-1 $175 $174 $98 $168 forward $176 $-1 #
edge $-1 $170 -76.009399700918607 $225 76.009399700918607 $167 $226 forward 7 unknown #
vertex $-1 $100 $227 #
vertex $-1 $168 $228 #
straight-curve $-1 76.009399700918607 14.283945362505325 -2.1739834782776217 0 1 0 I I #
coedge $-1 $229 $163 $101 $173 forward $160 $-1 #
edge $-1 $180 9.4800282650932495 $177 19.0878624599174 $172 $230 forward 7 unknown #
coedge $-1 $167 $102 $107 $183 forward $176 $-1 #
coedge $-1 $102 $167 $229 $231 reversed $176 $-1 #
loop $-1 $-1 $102 $159 #
vertex $-1 $231 $232 #
straight-curve $-1 0 33.371807822422724 1.6523409571465972 1 0 0 I I #
coedge $-1 $104 $162 $106 $182 reversed $53 $-1 #
vertex $-1 $173 $233 #
straight-curve $-1 0 23.763973627598574 1.6523409571465972 1 0 0 I I #
edge $-1 $109 -1.7827515874293534 $169 2.0435728479948656 $106 $234 forward 7 unknown #
edge $-1 $108 -1.6523409571465972 $170 2.1739834782776217 $107 $235 forward 7 unknown #
point $-1 76.009399700918607 33.371807822422724 1.6523409571465972 #
point $-1 76.009399700918607 23.763973627598574 1.6523409571465972 #
plane-surface $-1 76.009399700918607 0 0 -1 0 0 0 0 1 forward_v I I I I #
coedge $-1 $116 $114 $118 $191 reversed $61 $-1 #
edge $-1 $129 -10.400084010115419 $193 10.400084010115419 $128 $236 forward 7 unknown #
vertex $-1 $191 $237 #
straight-curve $-1 -76.009399700918607 -33.371807822422724 0 0 0 -1 I I #
edge $-1 $189 -33.371807822422724 $193 33.371807822422724 $187 $238 forward 7 unknown #
straight-curve $-1 0 -33.371807822422724 -10.400084010115419 -1 0 0 I I #
vertex $-1 $121 $239 #
straight-curve $-1 0 33.371807822422724 -10.400084010115419 1 0 0 I I #
point $-1 76.009399700918607 33.371807822422724 -10.400084010115419 #
point $-1 76.009399700918607 -33.371807822422724 -10.400084010115419 #
straight-curve $-1 -76.009399700918607 0 10.400084010115419 0 -1 0 I I #
point $-1 -76.009399700918607 33.371807822422724 10.400084010115419 #
point $-1 -76.009399700918607 -33.371807822422724 10.400084010115419 #
straight-curve $-1 76.009399700918607 -33.371807822422724 0 0 0 -1 I I #
straight-curve $-1 76.009399700918607 33.371807822422724 0 0 0 -1 I I #
plane-surface $-1 76.009399700918607 0 0 -1 0 0 0 0 1 forward_v I I I I #
coedge $-1 $240 $206 $145 $211 forward $139 $-1 #
coedge $-1 $146 $141 $240 $241 forward $80 $-1 #
edge $-1 $155 -5.7009136312011748 $242 5.7009136312011748 $153 $243 forward 7 unknown #
coedge $-1 $203 $244 $142 $207 reversed $139 $-1 #
edge $-1 $214 -76.009399700918607 $209 76.009399700918607 $206 $245 forward 7 unknown #
coedge $-1 $153 $143 $244 $246 forward $154 $-1 #
vertex $-1 $144 $247 #
straight-curve $-1 76.009399700918607 -39.072721453623899 3.7030868284543135 0 1 0 I I #
edge $-1 $214 -3.0751455412093036 $212 3.0751455412093036 $145 $248 forward 7 unknown #
vertex $-1 $147 $249 #
straight-curve $-1 -76.009399700918607 -39.072721453623899 -2.4472042539642938 0 1 0 I I #
vertex $-1 $148 $250 #
straight-curve $-1 -76.009399700918607 -39.072721453623899 3.7030868284543135 0 -1 0 I I #
point $-1 -76.009399700918607 -33.371807822422724 -2.4472042539642938 #
straight-curve $-1 0 -33.371807822422724 -2.4472042539642938 -1 0 0 I I #
point $-1 76.009399700918607 -33.371807822422724 -2.4472042539642938 #
plane-surface $-1 0 33.371807822422724 0 0 -1 0 0 0 -1 forward_v I I I I #
coedge $-1 $163 $229 $165 $223 forward $160 $-1 #
vertex $-1 $223 $251 #
straight-curve $-1 -76.009399700918607 23.763973627598574 -0.13041063028275612 0 0 1 I I #
edge $-1 $225 -19.0878624599174 $221 -9.4800282650932495 $220 $252 forward 7 unknown #
straight-curve $-1 0 23.763973627598574 -2.1739834782776217 -1 0 0 I I #
vertex $-1 $168 $253 #
straight-curve $-1 0 33.371807822422724 -2.1739834782776217 -1 0 0 I I #
point $-1 76.009399700918607 23.763973627598574 -2.1739834782776217 #
point $-1 76.009399700918607 33.371807822422724 -2.1739834782776217 #
coedge $-1 $220 $172 $175 $231 forward $160 $-1 #
straight-curve $-1 -76.009399700918607 14.283945362505325 1.6523409571465972 0 1 0 I I #
edge $-1 $177 -1.6523409571465972 $225 2.1739834782776217 $175 $254 forward 7 unknown #
point $-1 -76.009399700918607 33.371807822422724 1.6523409571465972 #
point $-1 -76.009399700918607 23.763973627598574 1.6523409571465972 #
straight-curve $-1 76.009399700918607 23.763973627598574 -0.13041063028275612 0 0 -1 I I #
straight-curve $-1 76.009399700918607 33.371807822422724 0 0 0 -1 I I #
straight-curve $-1 -76.009399700918607 33.371807822422724 0 0 0 -1 I I #
point $-1 -76.009399700918607 -33.371807822422724 -10.400084010115419 #
straight-curve $-1 -76.009399700918607 0 -10.400084010115419 0 1 0 I I #
point $-1 -76.009399700918607 33.371807822422724 -10.400084010115419 #
coedge $-1 $244 $203 $204 $241 reversed $139 $-1 #
edge $-1 $242 -76.009399700918607 $212 76.009399700918607 $240 $255 forward 7 unknown #
vertex $-1 $246 $256 #
straight-curve $-1 76.009399700918607 -39.072721453623899 -2.4472042539642938 0 -1 0 I I #
coedge $-1 $206 $240 $208 $246 reversed $139 $-1 #
straight-curve $-1 0 -44.773635084825074 3.7030868284543135 1 0 0 I I #
edge $-1 $209 -3.0751455412093036 $242 3.0751455412093036 $208 $257 forward 7 unknown #
point $-1 76.009399700918607 -44.773635084825074 3.7030868284543135 #
straight-curve $-1 -76.009399700918607 -44.773635084825074 0.62794128724500986 0 0 -1 I I #
point $-1 -76.009399700918607 -44.773635084825074 -2.4472042539642938 #
point $-1 -76.009399700918607 -44.773635084825074 3.7030868284543135 #
point $-1 -76.009399700918607 23.763973627598574 -2.1739834782776217 #
straight-curve $-1 -76.009399700918607 14.283945362505325 -2.1739834782776217 0 -1 0 I I #
point $-1 -76.009399700918607 33.371807822422724 -2.1739834782776217 #
straight-curve $-1 -76.009399700918607 33.371807822422724 0 0 0 -1 I I #
straight-curve $-1 0 -44.773635084825074 -2.4472042539642938 -1 0 0 I I #
point $-1 76.009399700918607 -44.773635084825074 -2.4472042539642938 #
straight-curve $-1 76.009399700918607 -44.773635084825074 0.62794128724500986 0 0 -1 I I #
End-of-ACIS-data 