500 0 11 0           
7 Unknown 11 ACIS 5.0 NT 24 Fri Mar 26 19:47:51 1999 
-1 9.9999999999999995e-007 1e-010 
body $-1 $11 $-1 $12 #
body $-1 $13 $-1 $14 #
body $-1 $15 $-1 $16 #
body $-1 $17 $-1 $18 #
body $-1 $19 $-1 $20 #
body $-1 $21 $-1 $22 #
body $-1 $23 $-1 $24 #
body $-1 $25 $-1 $26 #
body $-1 $27 $-1 $28 #
body $-1 $29 $-1 $30 #
body $-1 $31 $-1 $32 #
lump $-1 $-1 $33 $0 #
transform $-1 1 0 0 0 1 0 0 0 1 68.890041810357985 38.153482001687387 17.019967093931843 1 rotate no_reflect no_shear #
lump $-1 $-1 $34 $1 #
transform $-1 1 0 0 0 1 0 0 0 1 68.890041810357985 38.153482001687387 17.019967093931843 1 rotate no_reflect no_shear #
lump $-1 $-1 $35 $2 #
transform $-1 1 0 0 0 1 0 0 0 1 68.890041810357985 38.153482001687387 17.019967093931843 1 rotate no_reflect no_shear #
lump $-1 $-1 $36 $3 #
transform $-1 1 0 0 0 1 0 0 0 1 68.890041810357985 38.153482001687387 17.019967093931843 1 rotate no_reflect no_shear #
lump $-1 $-1 $37 $4 #
transform $-1 1 0 0 0 1 0 0 0 1 68.890041810357985 38.153482001687387 17.019967093931843 1 rotate no_reflect no_shear #
lump $-1 $-1 $38 $5 #
transform $-1 1 0 0 0 1 0 0 0 1 68.890041810357985 38.153482001687387 17.019967093931843 1 rotate no_reflect no_shear #
lump $-1 $-1 $39 $6 #
transform $-1 1 0 0 0 1 0 0 0 1 68.890041810357985 38.153482001687387 17.019967093931843 1 rotate no_reflect no_shear #
lump $-1 $-1 $40 $7 #
transform $-1 1 0 0 0 1 0 0 0 1 68.890041810357985 38.153482001687387 17.019967093931843 1 rotate no_reflect no_shear #
lump $-1 $-1 $41 $8 #
transform $-1 1 0 0 0 1 0 0 0 1 68.890041810357985 38.153482001687387 17.019967093931843 1 rotate no_reflect no_shear #
lump $-1 $-1 $42 $9 #
transform $-1 1 0 0 0 1 0 0 0 1 68.890041810357985 38.153482001687387 17.019967093931843 1 rotate no_reflect no_shear #
lump $-1 $-1 $43 $10 #
transform $-1 1 0 0 0 1 0 0 0 1 68.890041810357985 38.153482001687387 17.019967093931843 1 rotate no_reflect no_shear #
shell $-1 $-1 $-1 $44 $-1 $11 #
shell $-1 $-1 $-1 $45 $-1 $13 #
shell $-1 $-1 $-1 $46 $-1 $15 #
shell $-1 $-1 $-1 $47 $-1 $17 #
shell $-1 $-1 $-1 $48 $-1 $19 #
shell $-1 $-1 $-1 $49 $-1 $21 #
shell $-1 $-1 $-1 $50 $-1 $23 #
shell $-1 $-1 $-1 $51 $-1 $25 #
shell $-1 $-1 $-1 $52 $-1 $27 #
shell $-1 $-1 $-1 $53 $-1 $29 #
shell $-1 $-1 $-1 $54 $-1 $31 #
face $-1 $55 $56 $33 $-1 $57 forward single #
face $-1 $58 $59 $34 $-1 $60 reversed single #
face $-1 $61 $62 $35 $-1 $63 reversed single #
face $-1 $64 $65 $36 $-1 $66 forward single #
face $-1 $67 $68 $37 $-1 $69 forward single #
face $-1 $70 $71 $38 $-1 $72 reversed single #
face $-1 $73 $74 $39 $-1 $75 forward single #
face $-1 $76 $77 $40 $-1 $78 forward single #
face $-1 $79 $80 $41 $-1 $81 reversed single #
face $-1 $82 $83 $42 $-1 $84 forward single #
face $-1 $85 $86 $43 $-1 $87 forward single #
face $-1 $88 $89 $33 $-1 $90 reversed single #
loop $-1 $-1 $91 $44 #
plane-surface $-1 0 0 17.019967093931843 0 0 1 1 0 0 forward_v I I I I #
face $-1 $92 $93 $34 $-1 $94 reversed single #
loop $-1 $-1 $95 $45 #
plane-surface $-1 -59.768291032828046 0 7.8038265822086892 0 0 1 1 0 0 forward_v I I I I #
face $-1 $96 $97 $35 $-1 $98 reversed single #
loop $-1 $-1 $99 $46 #
plane-surface $-1 -24.416246965646494 104.76780503593335 153.13176660294801 1 0 0 0 -0.80901700255871778 -0.5877852410284794 forward_v I I I I #
face $-1 $100 $101 $36 $-1 $102 forward single #
loop $-1 $103 $104 $47 #
cone-surface $-1 -18.028149148033883 34.736355886299521 12.977594674828856 0 -0.80901700255871778 -0.5877852410284794 1.5 0 0 1 I I 0 1 1.5 forward I I I I #
face $-1 $105 $106 $37 $-1 $107 forward single #
loop $-1 $108 $109 $48 #
cone-surface $-1 -8.4460024216149705 34.736355886299521 12.977594674828856 0 -0.80901700255871778 -0.5877852410284794 1.5 0 0 1 I I 0 1 1.5 forward I I I I #
face $-1 $110 $111 $38 $-1 $112 reversed single #
loop $-1 $-1 $113 $49 #
plane-surface $-1 20.301406159062218 104.76780503593335 153.13176660294801 1 0 0 0 -0.80901700255871778 -0.5877852410284794 forward_v I I I I #
face $-1 $114 $115 $39 $-1 $116 forward single #
loop $-1 $117 $118 $50 #
cone-surface $-1 26.689503976674828 34.736355886299521 12.977594674828856 0 -0.80901700255871778 -0.5877852410284794 1.5 0 0 1 I I 0 1 1.5 forward I I I I #
face $-1 $119 $120 $40 $-1 $121 forward single #
loop $-1 $122 $123 $51 #
cone-surface $-1 36.271650703093741 34.736355886299521 12.977594674828856 0 -0.80901700255871778 -0.5877852410284794 1.5 0 0 1 I I 0 1 1.5 forward I I I I #
face $-1 $124 $125 $41 $-1 $126 reversed single #
loop $-1 $-1 $127 $52 #
plane-surface $-1 58.483390553603016 -158.6586594382579 71.799318739615742 -1 0 0 0 -0.87461971476443456 0.48480960649040278 forward_v I I I I #
face $-1 $128 $129 $42 $-1 $130 forward single #
loop $-1 $131 $132 $53 #
cone-surface $-1 34.394347725104879 -33.322130610044532 10.17930607236956 0 0.87461971476443456 -0.48480960649040278 2 0 0 1 I I 0 1 2 forward I I I I #
face $-1 $133 $134 $43 $-1 $135 forward single #
loop $-1 $136 $137 $54 #
cone-surface $-1 48.847773422203758 -33.322130610044532 10.17930607236956 0 0.87461971476443456 -0.48480960649040278 2 0 0 1 I I 0 1 2 forward I I I I #
face $-1 $138 $139 $33 $-1 $140 reversed single #
loop $-1 $-1 $141 $55 #
plane-surface $-1 0 0 -17.019967093931843 0 0 1 1 0 0 forward_v I I I I #
coedge $-1 $142 $143 $144 $145 forward $56 $-1 #
face $-1 $146 $147 $34 $-1 $148 reversed single #
loop $-1 $-1 $149 $58 #
plane-surface $-1 -50.646540255298106 0 12.411896838070266 -1 0 0 0 0 1 forward_v I I I I #
coedge $-1 $150 $151 $152 $153 forward $59 $-1 #
face $-1 $154 $155 $35 $-1 $156 reversed single #
loop $-1 $-1 $157 $61 #
plane-surface $-1 -13.237075784824434 -6.698625227187776 72.146666943021415 0 0.80901700255871778 0.5877852410284794 1 0 0 forward_v I I I I #
coedge $-1 $158 $159 $160 $161 reversed $62 $-1 #
face $-1 $-1 $162 $36 $-1 $163 forward single #
loop $-1 $164 $165 $64 #
cone-surface $-1 -18.028149148033883 33.112575285297645 11.797849046592834 0 -0.80901700255871778 -0.5877852410284794 0.75 0 0 1 I I -0.70710678118654757 0.70710678118654757 0.75 forward I I I I #
loop $-1 $-1 $166 $47 #
coedge $-1 $104 $104 $167 $168 reversed $65 $-1 #
face $-1 $-1 $169 $37 $-1 $170 forward single #
loop $-1 $171 $172 $67 #
cone-surface $-1 -8.4460024216149705 33.112575285297645 11.797849046592834 0 -0.80901700255871778 -0.5877852410284794 0.75 0 0 1 I I -0.70710678118654757 0.70710678118654757 0.75 forward I I I I #
loop $-1 $-1 $173 $48 #
coedge $-1 $109 $109 $174 $175 reversed $68 $-1 #
face $-1 $176 $177 $38 $-1 $178 reversed single #
loop $-1 $-1 $179 $70 #
plane-surface $-1 31.480577339884277 -6.698625227187776 72.146666943021415 0 0.80901700255871778 0.5877852410284794 1 0 0 forward_v I I I I #
coedge $-1 $180 $181 $182 $183 reversed $71 $-1 #
face $-1 $-1 $184 $39 $-1 $185 forward single #
loop $-1 $186 $187 $73 #
cone-surface $-1 26.689503976674828 33.112575285297645 11.797849046592834 0 -0.80901700255871778 -0.5877852410284794 0.75 0 0 1 I I -0.70710678118654757 0.70710678118654757 0.75 forward I I I I #
loop $-1 $-1 $188 $50 #
coedge $-1 $118 $118 $189 $190 reversed $74 $-1 #
face $-1 $-1 $191 $40 $-1 $192 forward single #
loop $-1 $193 $194 $76 #
cone-surface $-1 36.271650703093741 33.112575285297645 11.797849046592834 0 -0.80901700255871778 -0.5877852410284794 0.75 0 0 1 I I -0.70710678118654757 0.70710678118654757 0.75 forward I I I I #
loop $-1 $-1 $195 $51 #
coedge $-1 $123 $123 $196 $197 reversed $77 $-1 #
face $-1 $198 $199 $41 $-1 $200 reversed single #
loop $-1 $-1 $201 $79 #
plane-surface $-1 41.621060573654319 -38.153482001687351 5.0022106172416443 0 -0.87461971476443456 0.48480960649040278 1 0 0 forward_v I I I I #
coedge $-1 $202 $203 $204 $205 reversed $80 $-1 #
face $-1 $-1 $206 $42 $-1 $207 forward single #
loop $-1 $208 $209 $82 #
cone-surface $-1 34.394347725104879 -30.946934976684346 8.8627136826619726 0 0.87461971476443456 -0.48480960649040278 1 0 0 1 I I -0.70710678118654746 0.70710678118654746 1 forward I I I I #
loop $-1 $-1 $210 $53 #
coedge $-1 $132 $132 $211 $212 reversed $83 $-1 #
face $-1 $-1 $213 $43 $-1 $214 forward single #
loop $-1 $215 $216 $85 #
cone-surface $-1 48.847773422203758 -30.946934976684346 8.8627136826619726 0 0.87461971476443456 -0.48480960649040278 1 0 0 1 I I -0.70710678118654746 0.70710678118654746 1 forward I I I I #
loop $-1 $-1 $217 $54 #
coedge $-1 $137 $137 $218 $219 reversed $86 $-1 #
face $-1 $220 $221 $33 $-1 $222 reversed single #
loop $-1 $-1 $223 $88 #
plane-surface $-1 0 -38.153482001687387 0 0 1 0 0 0 1 forward_v I I I I #
coedge $-1 $224 $225 $226 $227 forward $89 $-1 #
coedge $-1 $228 $91 $229 $230 forward $56 $-1 #
coedge $-1 $91 $228 $231 $232 forward $56 $-1 #
coedge $-1 $233 $234 $91 $145 reversed $235 $-1 #
edge $-1 $236 -38.153482001687387 $237 38.153482001687387 $144 $238 forward 7 unknown #
face $-1 $239 $240 $34 $-1 $241 reversed single #
loop $-1 $-1 $242 $92 #
plane-surface $-1 0 38.153482001687387 0 0 -1 0 0 0 -1 forward_v I I I I #
coedge $-1 $152 $243 $244 $245 reversed $93 $-1 #
coedge $-1 $246 $95 $247 $248 reversed $59 $-1 #
coedge $-1 $95 $246 $249 $250 reversed $59 $-1 #
coedge $-1 $251 $149 $95 $153 reversed $93 $-1 #
edge $-1 $252 -38.153482001687387 $253 38.153482001687387 $152 $254 forward 7 unknown #
face $-1 $255 $256 $35 $-1 $257 forward single #
loop $-1 $-1 $258 $96 #
plane-surface $-1 -2.0579046040023741 104.76780503593335 153.13176660294801 -1 0 0 0 0.80901700255871778 0.5877852410284794 forward_v I I I I #
coedge $-1 $259 $260 $261 $262 reversed $97 $-1 #
coedge $-1 $159 $99 $263 $264 reversed $62 $-1 #
coedge $-1 $99 $158 $259 $265 reversed $62 $-1 #
coedge $-1 $261 $266 $99 $161 forward $256 $-1 #
edge $-1 $267 14.230420516279288 $268 19.030637048889389 $160 $269 forward 7 unknown #
loop $-1 $-1 $167 $100 #
plane-surface $-1 -13.237075784824434 -6.698625227187776 72.146666943021415 0 0.80901700255871778 0.5877852410284794 1 0 0 forward_v I I I I #
loop $-1 $-1 $270 $64 #
coedge $-1 $165 $165 $166 $271 reversed $101 $-1 #
coedge $-1 $166 $166 $165 $271 forward $103 $-1 #
coedge $-1 $167 $167 $104 $168 forward $162 $-1 #
edge $-1 $272 -1.2277552405794084e-015 $272 6.2831853071795996 $167 $273 forward 7 unknown #
loop $-1 $-1 $174 $105 #
plane-surface $-1 -13.237075784824434 -6.698625227187776 72.146666943021415 0 0.80901700255871778 0.5877852410284794 1 0 0 forward_v I I I I #
loop $-1 $-1 $274 $67 #
coedge $-1 $172 $172 $173 $275 reversed $106 $-1 #
coedge $-1 $173 $173 $172 $275 forward $108 $-1 #
coedge $-1 $174 $174 $109 $175 forward $169 $-1 #
edge $-1 $276 -1.2277552405794084e-015 $276 6.2831853071795996 $174 $277 forward 7 unknown #
face $-1 $278 $279 $38 $-1 $280 forward single #
loop $-1 $-1 $281 $110 #
plane-surface $-1 42.659748520706337 104.76780503593335 153.13176660294801 -1 0 0 0 0.80901700255871778 0.5877852410284794 forward_v I I I I #
coedge $-1 $282 $283 $284 $285 reversed $111 $-1 #
coedge $-1 $181 $113 $286 $287 reversed $71 $-1 #
coedge $-1 $113 $180 $282 $288 reversed $71 $-1 #
coedge $-1 $284 $289 $113 $183 forward $279 $-1 #
edge $-1 $290 14.230420516279288 $291 19.030637048889389 $182 $292 forward 7 unknown #
loop $-1 $-1 $189 $114 #
plane-surface $-1 31.480577339884277 -6.698625227187776 72.146666943021415 0 0.80901700255871778 0.5877852410284794 1 0 0 forward_v I I I I #
loop $-1 $-1 $293 $73 #
coedge $-1 $187 $187 $188 $294 reversed $115 $-1 #
coedge $-1 $188 $188 $187 $294 forward $117 $-1 #
coedge $-1 $189 $189 $118 $190 forward $184 $-1 #
edge $-1 $295 -1.2277552405794084e-015 $295 6.2831853071795996 $189 $296 forward 7 unknown #
loop $-1 $-1 $196 $119 #
plane-surface $-1 31.480577339884277 -6.698625227187776 72.146666943021415 0 0.80901700255871778 0.5877852410284794 1 0 0 forward_v I I I I #
loop $-1 $-1 $297 $76 #
coedge $-1 $194 $194 $195 $298 reversed $120 $-1 #
coedge $-1 $195 $195 $194 $298 forward $122 $-1 #
coedge $-1 $196 $196 $123 $197 forward $191 $-1 #
edge $-1 $299 -1.2277552405794084e-015 $299 6.2831853071795996 $196 $300 forward 7 unknown #
face $-1 $301 $302 $41 $-1 $303 reversed single #
loop $-1 $-1 $304 $124 #
plane-surface $-1 24.758730593705621 -158.6586594382579 71.799318739615742 1 0 0 0 0.87461971476443456 -0.48480960649040278 forward_v I I I I #
coedge $-1 $305 $306 $307 $308 reversed $125 $-1 #
coedge $-1 $203 $127 $309 $310 reversed $80 $-1 #
coedge $-1 $127 $202 $305 $311 reversed $80 $-1 #
coedge $-1 $307 $312 $127 $205 forward $313 $-1 #
edge $-1 $314 41.175847717441563 $315 47.837398663535808 $204 $316 forward 7 unknown #
loop $-1 $-1 $211 $128 #
plane-surface $-1 41.621060573654319 -38.153482001687351 5.0022106172416443 0 -0.87461971476443456 0.48480960649040278 1 0 0 forward_v I I I I #
loop $-1 $-1 $317 $82 #
coedge $-1 $209 $209 $210 $318 reversed $129 $-1 #
coedge $-1 $210 $210 $209 $318 forward $131 $-1 #
coedge $-1 $211 $211 $132 $212 forward $206 $-1 #
edge $-1 $319 1.018063225130798e-016 $319 6.2831853071796004 $211 $320 forward 7 unknown #
loop $-1 $-1 $218 $133 #
plane-surface $-1 41.621060573654319 -38.153482001687351 5.0022106172416443 0 -0.87461971476443456 0.48480960649040278 1 0 0 forward_v I I I I #
loop $-1 $-1 $321 $85 #
coedge $-1 $216 $216 $217 $322 reversed $134 $-1 #
coedge $-1 $217 $217 $216 $322 forward $136 $-1 #
coedge $-1 $218 $218 $137 $219 forward $213 $-1 #
edge $-1 $323 1.018063225130798e-016 $323 6.2831853071796004 $218 $324 forward 7 unknown #
face $-1 $325 $326 $33 $-1 $327 reversed single #
loop $-1 $-1 $328 $138 #
plane-surface $-1 -68.890041810357985 0 0 1 0 0 0 0 -1 forward_v I I I I #
coedge $-1 $329 $231 $330 $331 forward $139 $-1 #
coedge $-1 $332 $141 $329 $333 forward $89 $-1 #
coedge $-1 $141 $332 $334 $335 forward $89 $-1 #
coedge $-1 $234 $233 $141 $227 reversed $235 $-1 #
edge $-1 $336 -38.153482001687387 $337 38.153482001687387 $226 $338 forward 7 unknown #
coedge $-1 $143 $142 $339 $340 forward $56 $-1 #
coedge $-1 $341 $342 $142 $230 reversed $326 $-1 #
edge $-1 $237 -68.890041810357985 $343 68.890041810357985 $229 $344 forward 7 unknown #
coedge $-1 $223 $345 $143 $232 reversed $139 $-1 #
edge $-1 $346 -68.890041810357985 $236 68.890041810357985 $231 $347 forward 7 unknown #
coedge $-1 $226 $144 $345 $348 forward $235 $-1 #
coedge $-1 $144 $226 $341 $349 reversed $235 $-1 #
loop $-1 $-1 $233 $325 #
vertex $-1 $145 $350 #
vertex $-1 $145 $351 #
straight-curve $-1 68.890041810357985 0 17.019967093931843 0 1 0 I I #
face $-1 $352 $353 $34 $-1 $354 forward single #
loop $-1 $-1 $355 $146 #
plane-surface $-1 -68.890041810357985 0 0 1 0 0 0 0 -1 forward_v I I I I #
coedge $-1 $249 $356 $251 $357 forward $147 $-1 #
coedge $-1 $149 $251 $358 $359 reversed $93 $-1 #
coedge $-1 $360 $247 $149 $245 forward $361 $-1 #
edge $-1 $253 1.5978781631735561 $362 10.81401867489671 $244 $363 forward 7 unknown #
coedge $-1 $151 $150 $355 $364 reversed $59 $-1 #
coedge $-1 $244 $365 $150 $248 forward $361 $-1 #
edge $-1 $366 -39.005896293943962 $253 -20.762394738884083 $247 $367 forward 7 unknown #
coedge $-1 $368 $242 $151 $250 forward $147 $-1 #
edge $-1 $252 20.762394738884083 $369 39.005896293943962 $249 $370 forward 7 unknown #
coedge $-1 $243 $152 $242 $357 reversed $93 $-1 #
vertex $-1 $250 $371 #
vertex $-1 $248 $372 #
straight-curve $-1 -50.646540255298106 0 7.8038265822086892 0 -1 0 I I #
face $-1 $-1 $373 $35 $-1 $374 reversed single #
loop $-1 $-1 $160 $154 #
plane-surface $-1 0 0 17.019967093931843 0 0 1 1 0 0 forward_v I I I I #
coedge $-1 $375 $376 $377 $378 reversed $155 $-1 #
coedge $-1 $379 $157 $159 $265 forward $97 $-1 #
coedge $-1 $157 $379 $375 $380 forward $97 $-1 #
coedge $-1 $377 $160 $157 $262 forward $256 $-1 #
edge $-1 $268 -17.797709073234277 $381 4.5606332884098428 $261 $382 forward 7 unknown #
coedge $-1 $383 $384 $158 $264 forward $373 $-1 #
edge $-1 $385 -66.152847650818842 $267 -59.545916207542163 $263 $386 forward 7 unknown #
edge $-1 $268 68.140347699415045 $385 76.306964003374802 $159 $387 forward 7 unknown #
coedge $-1 $160 $377 $383 $388 forward $256 $-1 #
vertex $-1 $264 $389 #
vertex $-1 $161 $390 #
straight-curve $-1 -24.416246965646494 52.383902517966675 17.019967093931839 0 -1 0 I I #
coedge $-1 $270 $270 $-1 $391 reversed $164 $-1 #
edge $-1 $392 0 $392 6.2831853071796004 $165 $393 forward 7 unknown #
vertex $-1 $168 $394 #
ellipse-curve $-1 -18.028149148033883 35.75337373538234 13.716501372293502 0 0.80901700255871778 0.5877852410284794 1.5 0 0 1 I I #
coedge $-1 $274 $274 $-1 $395 reversed $171 $-1 #
edge $-1 $396 0 $396 6.2831853071796004 $172 $397 forward 7 unknown #
vertex $-1 $175 $398 #
ellipse-curve $-1 -8.4460024216149705 35.75337373538234 13.716501372293502 0 0.80901700255871778 0.5877852410284794 1.5 0 0 1 I I #
face $-1 $-1 $399 $38 $-1 $400 reversed single #
loop $-1 $-1 $182 $176 #
plane-surface $-1 0 0 17.019967093931843 0 0 1 1 0 0 forward_v I I I I #
coedge $-1 $401 $402 $403 $404 reversed $177 $-1 #
coedge $-1 $405 $179 $181 $288 forward $111 $-1 #
coedge $-1 $179 $405 $401 $406 forward $111 $-1 #
coedge $-1 $403 $182 $179 $285 forward $279 $-1 #
edge $-1 $291 4.561117489120079 $407 26.919459850764198 $284 $408 forward 7 unknown #
coedge $-1 $409 $410 $180 $287 forward $399 $-1 #
edge $-1 $411 -66.152847650818842 $290 -59.545916207542163 $286 $412 forward 7 unknown #
edge $-1 $291 68.140347699415045 $411 76.306964003374802 $181 $413 forward 7 unknown #
coedge $-1 $182 $403 $409 $414 forward $279 $-1 #
vertex $-1 $183 $415 #
vertex $-1 $183 $416 #
straight-curve $-1 20.301406159062218 52.383902517966675 17.019967093931839 0 -1 0 I I #
coedge $-1 $293 $293 $-1 $417 reversed $186 $-1 #
edge $-1 $418 0 $418 6.2831853071796004 $187 $419 forward 7 unknown #
vertex $-1 $190 $420 #
ellipse-curve $-1 26.689503976674828 35.75337373538234 13.716501372293502 0 0.80901700255871778 0.5877852410284794 1.5 0 0 1 I I #
coedge $-1 $297 $297 $-1 $421 reversed $193 $-1 #
edge $-1 $422 0 $422 6.2831853071796004 $194 $423 forward 7 unknown #
vertex $-1 $197 $424 #
ellipse-curve $-1 36.271650703093741 35.75337373538234 13.716501372293502 0 0.80901700255871778 0.5877852410284794 1.5 0 0 1 I I #
face $-1 $-1 $313 $41 $-1 $425 forward single #
loop $-1 $-1 $426 $198 #
plane-surface $-1 0 -38.153482001687387 0 0 1 0 0 0 1 forward_v I I I I #
coedge $-1 $427 $428 $429 $430 reversed $199 $-1 #
coedge $-1 $431 $201 $203 $311 forward $125 $-1 #
coedge $-1 $201 $431 $427 $432 forward $125 $-1 #
coedge $-1 $429 $204 $201 $308 forward $313 $-1 #
edge $-1 $315 -37.672860266775857 $433 -3.9482003068784621 $307 $434 forward 7 unknown #
coedge $-1 $435 $436 $202 $310 forward $302 $-1 #
edge $-1 $437 -30.897448752566291 $314 -18.879692275876028 $309 $438 forward 7 unknown #
edge $-1 $315 -13.740550634542922 $437 7.3154818844983007e-014 $203 $439 forward 7 unknown #
coedge $-1 $204 $429 $435 $440 forward $313 $-1 #
loop $-1 $-1 $429 $301 #
vertex $-1 $310 $441 #
vertex $-1 $205 $442 #
straight-curve $-1 58.483390553603016 -79.32932971912895 17.019967093931843 0 1 0 I I #
coedge $-1 $317 $317 $-1 $443 reversed $208 $-1 #
edge $-1 $444 0 $444 6.2831853071796004 $209 $445 forward 7 unknown #
vertex $-1 $212 $446 #
ellipse-curve $-1 34.394347725104879 -34.822706528640254 11.011088855586728 0 -0.87461971476443456 0.48480960649040278 2 0 0 1 I I #
coedge $-1 $321 $321 $-1 $447 reversed $215 $-1 #
edge $-1 $448 0 $448 6.2831853071796004 $216 $449 forward 7 unknown #
vertex $-1 $219 $450 #
ellipse-curve $-1 48.847773422203758 -34.822706528640254 11.011088855586728 0 -0.87461971476443456 0.48480960649040278 2 0 0 1 I I #
face $-1 $-1 $235 $33 $-1 $451 reversed single #
loop $-1 $-1 $341 $220 #
plane-surface $-1 0 38.153482001687387 0 0 -1 0 0 0 -1 forward_v I I I I #
coedge $-1 $452 $339 $342 $453 forward $221 $-1 #
coedge $-1 $345 $223 $224 $333 reversed $139 $-1 #
coedge $-1 $339 $452 $223 $331 reversed $221 $-1 #
edge $-1 $346 -17.019967093931843 $454 17.019967093931843 $330 $455 forward 7 unknown #
coedge $-1 $225 $224 $452 $456 forward $89 $-1 #
edge $-1 $337 -68.890041810357985 $454 68.890041810357985 $329 $457 forward 7 unknown #
coedge $-1 $342 $341 $225 $335 reversed $326 $-1 #
edge $-1 $458 -68.890041810357985 $336 68.890041810357985 $334 $459 forward 7 unknown #
vertex $-1 $227 $460 #
vertex $-1 $348 $461 #
straight-curve $-1 68.890041810357985 0 -17.019967093931843 0 -1 0 I I #
coedge $-1 $328 $330 $228 $340 reversed $221 $-1 #
edge $-1 $343 -38.153482001687387 $346 38.153482001687387 $339 $462 forward 7 unknown #
coedge $-1 $334 $229 $234 $349 forward $326 $-1 #
coedge $-1 $229 $334 $328 $453 reversed $326 $-1 #
vertex $-1 $230 $463 #
straight-curve $-1 0 38.153482001687387 17.019967093931843 -1 0 0 I I #
coedge $-1 $231 $329 $233 $348 reversed $139 $-1 #
vertex $-1 $340 $464 #
straight-curve $-1 0 -38.153482001687387 17.019967093931843 1 0 0 I I #
edge $-1 $236 -17.019967093931843 $337 17.019967093931843 $233 $465 forward 7 unknown #
edge $-1 $237 -17.019967093931843 $336 17.019967093931843 $234 $466 forward 7 unknown #
point $-1 68.890041810357985 -38.153482001687387 17.019967093931843 #
point $-1 68.890041810357985 38.153482001687387 17.019967093931843 #
face $-1 $-1 $361 $34 $-1 $467 reversed single #
loop $-1 $-1 $358 $239 #
plane-surface $-1 0 0 17.019967093931843 0 0 1 1 0 0 forward_v I I I I #
coedge $-1 $468 $469 $246 $364 forward $240 $-1 #
coedge $-1 $242 $368 $470 $471 reversed $147 $-1 #
edge $-1 $472 -10.81401867489671 $252 -1.5978781631735561 $242 $473 forward 7 unknown #
coedge $-1 $470 $474 $243 $359 forward $353 $-1 #
edge $-1 $362 -38.153482001687387 $472 38.153482001687387 $358 $475 forward 7 unknown #
coedge $-1 $365 $244 $474 $476 reversed $361 $-1 #
loop $-1 $-1 $244 $352 #
vertex $-1 $245 $477 #
straight-curve $-1 -50.646540255298106 -38.153482001687387 6.2059484190351331 0 0 1 I I #
edge $-1 $369 -38.153482001687387 $366 38.153482001687387 $355 $478 forward 7 unknown #
coedge $-1 $247 $360 $468 $479 forward $361 $-1 #
vertex $-1 $364 $480 #
straight-curve $-1 -29.884145516414023 -38.153482001687387 7.8038265822086892 1 0 0 I I #
coedge $-1 $356 $249 $469 $481 reversed $147 $-1 #
vertex $-1 $364 $482 #
straight-curve $-1 -29.884145516414023 38.153482001687387 7.8038265822086892 -1 0 0 I I #
point $-1 -50.646540255298106 38.153482001687387 7.8038265822086892 #
point $-1 -50.646540255298106 -38.153482001687387 7.8038265822086892 #
loop $-1 $-1 $263 $255 #
plane-surface $-1 0 38.153482001687387 0 0 -1 0 0 0 -1 forward_v I I I I #
coedge $-1 $376 $258 $260 $380 reversed $155 $-1 #
coedge $-1 $258 $375 $483 $484 reversed $155 $-1 #
coedge $-1 $266 $261 $258 $378 forward $256 $-1 #
edge $-1 $381 -19.030637048889389 $485 -14.230420516279288 $377 $486 forward 7 unknown #
coedge $-1 $260 $259 $384 $487 reversed $97 $-1 #
edge $-1 $488 -76.306964003374802 $381 -68.140347699415045 $375 $489 forward 7 unknown #
vertex $-1 $262 $490 #
straight-curve $-1 -6.6185378924122169 33.353265469077286 17.019967093931839 1 0 0 I I #
coedge $-1 $483 $263 $266 $388 reversed $373 $-1 #
coedge $-1 $263 $483 $379 $487 forward $373 $-1 #
vertex $-1 $264 $491 #
straight-curve $-1 -24.416246965646494 38.153482001687387 76.565883301474003 0 0 1 I I #
straight-curve $-1 -24.416246965646494 -6.698625227187776 72.146666943021415 0 0.5877852410284794 -0.80901700255871778 I I #
edge $-1 $485 2.0579046040023741 $267 24.416246965646494 $383 $492 forward 7 unknown #
point $-1 -24.416246965646494 38.153482001687387 17.019967093931843 #
point $-1 -24.416246965646494 33.353265469077286 17.019967093931832 #
edge $-1 $493 1 $493 0 $270 $-1 forward 7 unknown #
vertex $-1 $271 $494 #
ellipse-curve $-1 -18.028149148033883 33.71933803721668 12.238687977364194 0 0.80901700255871778 0.5877852410284794 1.5 0 0 1 I I #
point $-1 -16.528149148033883 35.753373735382361 13.71650137229352 #
edge $-1 $495 1 $495 0 $274 $-1 forward 7 unknown #
vertex $-1 $275 $496 #
ellipse-curve $-1 -8.4460024216149705 33.71933803721668 12.238687977364194 0 0.80901700255871778 0.5877852410284794 1.5 0 0 1 I I #
point $-1 -6.9460024216149705 35.753373735382361 13.71650137229352 #
loop $-1 $-1 $286 $278 #
plane-surface $-1 0 38.153482001687387 0 0 -1 0 0 0 -1 forward_v I I I I #
coedge $-1 $402 $281 $283 $406 reversed $177 $-1 #
coedge $-1 $281 $401 $497 $498 reversed $177 $-1 #
coedge $-1 $289 $284 $281 $404 forward $279 $-1 #
edge $-1 $407 -19.030637048889389 $499 -14.230420516279288 $403 $500 forward 7 unknown #
coedge $-1 $283 $282 $410 $501 reversed $111 $-1 #
edge $-1 $502 -76.306964003374802 $407 -68.140347699415045 $401 $503 forward 7 unknown #
vertex $-1 $285 $504 #
straight-curve $-1 15.740288669942139 33.353265469077286 17.019967093931839 1 0 0 I I #
coedge $-1 $497 $286 $289 $414 reversed $399 $-1 #
coedge $-1 $286 $497 $405 $501 forward $399 $-1 #
vertex $-1 $287 $505 #
straight-curve $-1 20.301406159062218 38.153482001687387 76.565883301474003 0 0 1 I I #
straight-curve $-1 20.301406159062218 -6.698625227187776 72.146666943021415 0 0.5877852410284794 -0.80901700255871778 I I #
edge $-1 $499 -42.659748520706337 $290 -20.301406159062218 $409 $506 forward 7 unknown #
point $-1 20.301406159062218 38.153482001687387 17.019967093931843 #
point $-1 20.301406159062218 33.353265469077286 17.019967093931832 #
edge $-1 $507 1 $507 0 $293 $-1 forward 7 unknown #
vertex $-1 $294 $508 #
ellipse-curve $-1 26.689503976674828 33.71933803721668 12.238687977364194 0 0.80901700255871778 0.5877852410284794 1.5 0 0 1 I I #
point $-1 28.189503976674828 35.753373735382361 13.71650137229352 #
edge $-1 $509 1 $509 0 $297 $-1 forward 7 unknown #
vertex $-1 $298 $510 #
ellipse-curve $-1 36.271650703093741 33.71933803721668 12.238687977364194 0 0.80901700255871778 0.5877852410284794 1.5 0 0 1 I I #
point $-1 37.771650703093741 35.753373735382361 13.71650137229352 #
plane-surface $-1 0 0 17.019967093931843 0 0 1 1 0 0 forward_v I I I I #
coedge $-1 $436 $435 $428 $511 forward $302 $-1 #
coedge $-1 $428 $304 $306 $432 reversed $199 $-1 #
coedge $-1 $304 $427 $426 $511 reversed $199 $-1 #
coedge $-1 $312 $307 $304 $430 forward $313 $-1 #
edge $-1 $433 -47.837398663535808 $512 -41.175847717441563 $429 $513 forward 7 unknown #
coedge $-1 $306 $305 $436 $514 reversed $125 $-1 #
edge $-1 $515 -7.3154818844983007e-014 $433 13.740550634542922 $427 $516 forward 7 unknown #
vertex $-1 $308 $517 #
straight-curve $-1 20.810530286827159 -31.491931055593145 17.019967093931843 -1 0 0 I I #
coedge $-1 $426 $309 $312 $440 reversed $302 $-1 #
coedge $-1 $309 $426 $431 $514 forward $302 $-1 #
vertex $-1 $310 $518 #
straight-curve $-1 58.483390553603016 -38.153482001687387 35.899659369807871 0 0 1 I I #
straight-curve $-1 58.483390553603016 -38.153482001687351 5.0022106172416443 0 -0.48480960649040278 -0.87461971476443456 I I #
edge $-1 $512 24.758730593705621 $314 58.483390553603016 $435 $519 forward 7 unknown #
point $-1 58.483390553603016 -38.153482001687387 17.019967093931843 #
point $-1 58.483390553603016 -31.491931055593142 17.019967093931843 #
edge $-1 $520 1 $520 0 $317 $-1 forward 7 unknown #
vertex $-1 $318 $521 #
ellipse-curve $-1 34.394347725104879 -31.821554691448782 9.3475232891523756 0 -0.87461971476443456 0.48480960649040278 2 0 0 1 I I #
point $-1 36.394347725104879 -34.822706528640282 11.011088855586744 #
edge $-1 $522 1 $522 0 $321 $-1 forward 7 unknown #
vertex $-1 $322 $523 #
ellipse-curve $-1 48.847773422203758 -31.821554691448782 9.3475232891523756 0 -0.87461971476443456 0.48480960649040278 2 0 0 1 I I #
point $-1 50.847773422203758 -34.822706528640282 11.011088855586744 #
plane-surface $-1 68.890041810357985 0 0 -1 0 0 0 0 1 forward_v I I I I #
coedge $-1 $330 $328 $332 $456 reversed $221 $-1 #
edge $-1 $343 -17.019967093931843 $458 17.019967093931843 $342 $524 forward 7 unknown #
vertex $-1 $456 $525 #
straight-curve $-1 -68.890041810357985 -38.153482001687387 0 0 0 -1 I I #
edge $-1 $454 -38.153482001687387 $458 38.153482001687387 $452 $526 forward 7 unknown #
straight-curve $-1 0 -38.153482001687387 -17.019967093931843 -1 0 0 I I #
vertex $-1 $335 $527 #
straight-curve $-1 0 38.153482001687387 -17.019967093931843 1 0 0 I I #
point $-1 68.890041810357985 38.153482001687387 -17.019967093931843 #
point $-1 68.890041810357985 -38.153482001687387 -17.019967093931843 #
straight-curve $-1 -68.890041810357985 0 17.019967093931843 0 -1 0 I I #
point $-1 -68.890041810357985 38.153482001687387 17.019967093931843 #
point $-1 -68.890041810357985 -38.153482001687387 17.019967093931843 #
straight-curve $-1 68.890041810357985 -38.153482001687387 0 0 0 -1 I I #
straight-curve $-1 68.890041810357985 38.153482001687387 0 0 0 -1 I I #
plane-surface $-1 0 -38.153482001687387 0 0 1 0 0 0 1 forward_v I I I I #
coedge $-1 $528 $355 $365 $479 reversed $240 $-1 #
coedge $-1 $355 $528 $368 $481 forward $240 $-1 #
coedge $-1 $529 $358 $356 $471 forward $353 $-1 #
edge $-1 $472 50.646540255298106 $530 68.890041810357985 $356 $531 forward 7 unknown #
vertex $-1 $471 $532 #
straight-curve $-1 -50.646540255298106 38.153482001687387 6.2059484190351331 0 0 -1 I I #
coedge $-1 $358 $529 $360 $476 forward $353 $-1 #
straight-curve $-1 -50.646540255298106 0 17.019967093931843 0 1 0 I I #
edge $-1 $533 -68.890041810357985 $362 -50.646540255298106 $360 $534 forward 7 unknown #
point $-1 -50.646540255298106 -38.153482001687387 17.019967093931843 #
straight-curve $-1 -68.890041810357985 0 7.8038265822086892 0 -1 0 I I #
edge $-1 $533 -17.019967093931843 $366 -7.8038265822086892 $468 $535 forward 7 unknown #
point $-1 -68.890041810357985 -38.153482001687387 7.8038265822086892 #
edge $-1 $530 -17.019967093931843 $369 -7.8038265822086892 $368 $536 forward 7 unknown #
point $-1 -68.890041810357985 38.153482001687387 7.8038265822086892 #
coedge $-1 $384 $383 $376 $484 forward $373 $-1 #
edge $-1 $485 59.545916207542163 $488 66.152847650818842 $483 $537 forward 7 unknown #
vertex $-1 $388 $538 #
straight-curve $-1 -2.0579046040023741 52.383902517966675 17.019967093931839 0 1 0 I I #
edge $-1 $488 -4.5606332884098428 $385 17.797709073234277 $384 $539 forward 7 unknown #
vertex $-1 $487 $540 #
straight-curve $-1 -2.0579046040023741 -6.698625227187776 72.146666943021415 0 -0.5877852410284794 0.80901700255871778 I I #
point $-1 -2.0579046040023741 33.353265469077286 17.019967093931832 #
point $-1 -24.416246965646494 38.153482001687387 10.413035650655161 #
straight-curve $-1 0 38.153482001687387 17.019967093931843 -1 0 0 I I #
vertex $-1 $391 $541 #
point $-1 -16.528149148033883 33.71933803721668 12.238687977364194 #
vertex $-1 $395 $542 #
point $-1 -6.9460024216149705 33.71933803721668 12.238687977364194 #
coedge $-1 $410 $409 $402 $498 forward $399 $-1 #
edge $-1 $499 59.545916207542163 $502 66.152847650818842 $497 $543 forward 7 unknown #
vertex $-1 $414 $544 #
straight-curve $-1 42.659748520706337 52.383902517966675 17.019967093931839 0 1 0 I I #
edge $-1 $502 -26.919459850764198 $411 -4.561117489120079 $410 $545 forward 7 unknown #
vertex $-1 $501 $546 #
straight-curve $-1 42.659748520706337 -6.698625227187776 72.146666943021415 0 -0.5877852410284794 0.80901700255871778 I I #
point $-1 42.659748520706337 33.353265469077286 17.019967093931832 #
point $-1 20.301406159062218 38.153482001687387 10.413035650655161 #
straight-curve $-1 0 38.153482001687387 17.019967093931843 -1 0 0 I I #
vertex $-1 $417 $547 #
point $-1 28.189503976674828 33.71933803721668 12.238687977364194 #
vertex $-1 $421 $548 #
point $-1 37.771650703093741 33.71933803721668 12.238687977364194 #
edge $-1 $512 18.879692275876028 $515 30.897448752566291 $426 $549 forward 7 unknown #
vertex $-1 $440 $550 #
straight-curve $-1 24.758730593705621 -79.32932971912895 17.019967093931843 0 -1 0 I I #
edge $-1 $515 3.9482003068784621 $437 37.672860266775857 $436 $551 forward 7 unknown #
vertex $-1 $514 $552 #
straight-curve $-1 24.758730593705621 -38.153482001687351 5.0022106172416443 0 0.48480960649040278 0.87461971476443456 I I #
point $-1 24.758730593705621 -31.491931055593142 17.019967093931843 #
point $-1 58.483390553603016 -38.153482001687387 5.0022106172415803 #
straight-curve $-1 0 -38.153482001687387 17.019967093931843 1 0 0 I I #
vertex $-1 $443 $553 #
point $-1 36.394347725104879 -31.821554691448782 9.3475232891523756 #
vertex $-1 $447 $554 #
point $-1 50.847773422203758 -31.821554691448782 9.3475232891523756 #
straight-curve $-1 -68.890041810357985 38.153482001687387 0 0 0 -1 I I #
point $-1 -68.890041810357985 -38.153482001687387 -17.019967093931843 #
straight-curve $-1 -68.890041810357985 0 -17.019967093931843 0 1 0 I I #
point $-1 -68.890041810357985 38.153482001687387 -17.019967093931843 #
coedge $-1 $469 $468 $529 $555 reversed $240 $-1 #
coedge $-1 $474 $470 $528 $555 forward $353 $-1 #
vertex $-1 $471 $556 #
straight-curve $-1 0 38.153482001687387 17.019967093931843 -1 0 0 I I #
point $-1 -50.646540255298106 38.153482001687387 17.019967093931843 #
vertex $-1 $555 $557 #
straight-curve $-1 0 -38.153482001687387 17.019967093931843 1 0 0 I I #
straight-curve $-1 -68.890041810357985 -38.153482001687387 0 0 0 -1 I I #
straight-curve $-1 -68.890041810357985 38.153482001687387 0 0 0 -1 I I #
straight-curve $-1 -2.0579046040023741 38.153482001687387 76.565883301474003 0 0 -1 I I #
point $-1 -2.0579046040023741 38.153482001687387 17.019967093931843 #
straight-curve $-1 -6.6185378924122169 38.153482001687387 10.413035650655154 -1 0 0 I I #
point $-1 -2.0579046040023741 38.153482001687387 10.413035650655161 #
point $-1 -18.028149148033883 32.505812533378609 11.357010115821474 #
point $-1 -8.4460024216149705 32.505812533378609 11.357010115821474 #
straight-curve $-1 42.659748520706337 38.153482001687387 76.565883301474003 0 0 -1 I I #
point $-1 42.659748520706337 38.153482001687387 17.019967093931843 #
straight-curve $-1 15.740288669942139 38.153482001687387 10.413035650655154 -1 0 0 I I #
point $-1 42.659748520706337 38.153482001687387 10.413035650655161 #
point $-1 26.689503976674828 32.505812533378609 11.357010115821474 #
point $-1 36.271650703093741 32.505812533378609 11.357010115821474 #
straight-curve $-1 24.758730593705621 -38.153482001687387 35.899659369807871 0 0 -1 I I #
point $-1 24.758730593705621 -38.153482001687387 17.019967093931843 #
straight-curve $-1 20.810530286827159 -38.153482001687387 5.0022106172415768 1 0 0 I I #
point $-1 24.758730593705621 -38.153482001687387 5.0022106172415803 #
point $-1 34.394347725104879 -30.072315261919911 8.3779040761715695 #
point $-1 48.847773422203758 -30.072315261919911 8.3779040761715695 #
edge $-1 $530 -38.153482001687387 $533 38.153482001687387 $528 $558 forward 7 unknown #
point $-1 -68.890041810357985 38.153482001687387 17.019967093931843 #
point $-1 -68.890041810357985 -38.153482001687387 17.019967093931843 #
straight-curve $-1 -68.890041810357985 0 17.019967093931843 0 -1 0 I I #
End-of-ACIS-data 