500 0 10 0           
7 Unknown 11 ACIS 5.0 NT 24 Thu Mar 25 21:56:20 1999 
-1 9.9999999999999995e-007 1e-010 
body $-1 $10 $-1 $11 #
body $-1 $12 $-1 $13 #
body $-1 $14 $-1 $15 #
body $-1 $16 $-1 $17 #
body $-1 $18 $-1 $19 #
body $-1 $20 $-1 $21 #
body $-1 $22 $-1 $23 #
body $-1 $24 $-1 $25 #
body $-1 $26 $-1 $27 #
body $-1 $28 $-1 $29 #
lump $-1 $-1 $30 $0 #
transform $-1 1 0 0 0 1 0 0 0 1 72.060304574724569 38.806828228279883 13.595002957708903 1 rotate no_reflect no_shear #
lump $-1 $-1 $31 $1 #
transform $-1 1 0 0 0 1 0 0 0 1 72.060304574724569 38.806828228279883 13.595002957708903 1 rotate no_reflect no_shear #
lump $-1 $-1 $32 $2 #
transform $-1 1 0 0 0 1 0 0 0 1 72.060304574724569 38.806828228279883 13.595002957708903 1 rotate no_reflect no_shear #
lump $-1 $-1 $33 $3 #
transform $-1 1 0 0 0 1 0 0 0 1 72.060304574724569 38.806828228279883 13.595002957708903 1 rotate no_reflect no_shear #
lump $-1 $-1 $34 $4 #
transform $-1 1 0 0 0 1 0 0 0 1 72.060304574724569 38.806828228279883 13.595002957708903 1 rotate no_reflect no_shear #
lump $-1 $-1 $35 $5 #
transform $-1 1 0 0 0 1 0 0 0 1 72.060304574724569 38.806828228279883 13.595002957708903 1 rotate no_reflect no_shear #
lump $-1 $-1 $36 $6 #
transform $-1 1 0 0 0 1 0 0 0 1 72.060304574724569 38.806828228279883 13.595002957708903 1 rotate no_reflect no_shear #
lump $-1 $-1 $37 $7 #
transform $-1 1 0 0 0 1 0 0 0 1 72.060304574724569 38.806828228279883 13.595002957708903 1 rotate no_reflect no_shear #
lump $-1 $-1 $38 $8 #
transform $-1 1 0 0 0 1 0 0 0 1 72.060304574724569 38.806828228279883 13.595002957708903 1 rotate no_reflect no_shear #
lump $-1 $-1 $39 $9 #
transform $-1 1 0 0 0 1 0 0 0 1 72.060304574724569 38.806828228279883 13.595002957708903 1 rotate no_reflect no_shear #
shell $-1 $-1 $-1 $40 $-1 $10 #
shell $-1 $-1 $-1 $41 $-1 $12 #
shell $-1 $-1 $-1 $42 $-1 $14 #
shell $-1 $-1 $-1 $43 $-1 $16 #
shell $-1 $-1 $-1 $44 $-1 $18 #
shell $-1 $-1 $-1 $45 $-1 $20 #
shell $-1 $-1 $-1 $46 $-1 $22 #
shell $-1 $-1 $-1 $47 $-1 $24 #
shell $-1 $-1 $-1 $48 $-1 $26 #
shell $-1 $-1 $-1 $49 $-1 $28 #
face $-1 $50 $51 $30 $-1 $52 forward single #
face $-1 $53 $54 $31 $-1 $55 forward single #
face $-1 $56 $57 $32 $-1 $58 reversed single #
face $-1 $59 $60 $33 $-1 $61 forward single #
face $-1 $62 $63 $34 $-1 $64 reversed single #
face $-1 $65 $66 $35 $-1 $67 forward single #
face $-1 $68 $69 $36 $-1 $70 forward single #
face $-1 $71 $72 $37 $-1 $73 reversed single #
face $-1 $74 $75 $38 $-1 $76 forward single #
face $-1 $77 $78 $39 $-1 $79 forward single #
face $-1 $80 $81 $30 $-1 $82 reversed single #
loop $-1 $-1 $83 $40 #
plane-surface $-1 0 0 13.595002957708903 0 0 1 1 0 0 forward_v I I I I #
face $-1 $84 $85 $31 $-1 $86 reversed single #
loop $-1 $-1 $87 $41 #
plane-surface $-1 -66.551870098934913 0 12.222421558009417 0 0 1 1 0 0 forward_v I I I I #
face $-1 $88 $89 $32 $-1 $90 reversed single #
loop $-1 $-1 $91 $42 #
plane-surface $-1 -13.263291725869035 -115.17911639800822 128.28454860392327 1 0 0 0 0.52991927123019833 -0.84804809178421925 forward_v I I I I #
face $-1 $92 $93 $33 $-1 $94 forward single #
loop $-1 $95 $96 $43 #
cone-surface $-1 -6.1109002785775743 -31.717311554695591 8.1281325069913208 0 0.52991927123019833 -0.84804809178421925 2 0 0 1 I I 0 1 2 forward I I I I #
face $-1 $97 $98 $34 $-1 $99 reversed single #
loop $-1 $-1 $100 $44 #
plane-surface $-1 -20.063269070663178 91.277584666478432 157.0474373312538 1 0 0 0 -0.73135370988377701 -0.68199835119979291 forward_v I I I I #
face $-1 $101 $102 $35 $-1 $103 forward single #
loop $-1 $104 $105 $45 #
cone-surface $-1 -12.757068057390931 31.452210318661823 5.980259798400243 0 -0.73135370988377701 -0.68199835119979291 3 0 0 1 I I 0 1 3 forward I I I I #
face $-1 $106 $107 $36 $-1 $108 forward single #
loop $-1 $109 $110 $46 #
cone-surface $-1 -1.7977665374825733 31.452210318661823 5.980259798400243 0 -0.73135370988377701 -0.68199835119979291 3 0 0 1 I I 0 1 3 forward I I I I #
face $-1 $111 $112 $37 $-1 $113 reversed single #
loop $-1 $-1 $114 $47 #
plane-surface $-1 46.488601028271745 91.277584666478432 157.0474373312538 1 0 0 0 -0.73135370988377701 -0.68199835119979291 forward_v I I I I #
face $-1 $115 $116 $38 $-1 $117 forward single #
loop $-1 $118 $119 $48 #
cone-surface $-1 53.794802041543988 31.452210318661823 5.980259798400243 0 -0.73135370988377701 -0.68199835119979291 3 0 0 1 I I 0 1 3 forward I I I I #
face $-1 $120 $121 $39 $-1 $122 forward single #
loop $-1 $123 $124 $49 #
cone-surface $-1 64.754103561452325 31.452210318661823 5.980259798400243 0 -0.73135370988377701 -0.68199835119979291 3 0 0 1 I I 0 1 3 forward I I I I #
face $-1 $125 $126 $30 $-1 $127 reversed single #
loop $-1 $-1 $128 $50 #
plane-surface $-1 0 0 -13.595002957708903 0 0 1 1 0 0 forward_v I I I I #
coedge $-1 $129 $130 $131 $132 forward $51 $-1 #
face $-1 $133 $134 $31 $-1 $135 reversed single #
loop $-1 $-1 $136 $53 #
plane-surface $-1 -66.551870098934913 0 4.5699372429187886 0 0 1 1 0 0 forward_v I I I I #
coedge $-1 $137 $138 $139 $140 forward $54 $-1 #
face $-1 $141 $142 $32 $-1 $143 reversed single #
loop $-1 $-1 $144 $56 #
plane-surface $-1 -6.1109002785775743 -38.806828228279883 6.0633410279536406 0 -0.52991927123019833 0.84804809178421925 1 0 0 forward_v I I I I #
coedge $-1 $145 $146 $147 $148 reversed $57 $-1 #
face $-1 $-1 $149 $33 $-1 $150 forward single #
loop $-1 $151 $152 $59 #
cone-surface $-1 -6.1109002785775743 -30.12446482286159 5.5790449293671465 0 0.52991927123019833 -0.84804809178421925 1 0 0 1 I I -0.70710678118654746 0.70710678118654746 1 forward I I I I #
loop $-1 $-1 $153 $43 #
coedge $-1 $96 $96 $154 $155 reversed $60 $-1 #
face $-1 $156 $157 $34 $-1 $158 reversed single #
loop $-1 $-1 $159 $62 #
plane-surface $-1 -7.2774172974367559 -14.125557505681016 58.757419517419706 0 0.73135370988377701 0.68199835119979291 1 0 0 forward_v I I I I #
coedge $-1 $160 $161 $162 $163 reversed $63 $-1 #
face $-1 $-1 $164 $35 $-1 $165 forward single #
loop $-1 $166 $167 $65 #
cone-surface $-1 -12.757068057390931 28.409437838617393 3.1428286260114682 0 -0.73135370988377701 -0.68199835119979291 1.5 0 0 1 I I -0.70710678118654757 0.70710678118654757 1.5 forward I I I I #
loop $-1 $-1 $168 $45 #
coedge $-1 $105 $105 $169 $170 reversed $66 $-1 #
face $-1 $-1 $171 $36 $-1 $172 forward single #
loop $-1 $173 $174 $68 #
cone-surface $-1 -1.7977665374825733 28.409437838617393 3.1428286260114682 0 -0.73135370988377701 -0.68199835119979291 1.5 0 0 1 I I -0.70710678118654757 0.70710678118654757 1.5 forward I I I I #
loop $-1 $-1 $175 $46 #
coedge $-1 $110 $110 $176 $177 reversed $69 $-1 #
face $-1 $178 $179 $37 $-1 $180 forward single #
loop $-1 $-1 $181 $71 #
plane-surface $-1 59.274452801498171 -14.125557505681016 58.757419517419706 0 0.73135370988377701 0.68199835119979291 1 0 0 forward_v I I I I #
coedge $-1 $182 $183 $184 $185 reversed $72 $-1 #
face $-1 $-1 $186 $38 $-1 $187 forward single #
loop $-1 $188 $189 $74 #
cone-surface $-1 53.794802041543988 28.409437838617393 3.1428286260114682 0 -0.73135370988377701 -0.68199835119979291 1.5 0 0 1 I I -0.70710678118654757 0.70710678118654757 1.5 forward I I I I #
loop $-1 $-1 $190 $48 #
coedge $-1 $119 $119 $191 $192 reversed $75 $-1 #
face $-1 $-1 $193 $39 $-1 $194 forward single #
loop $-1 $195 $196 $77 #
cone-surface $-1 64.754103561452325 28.409437838617393 3.1428286260114682 0 -0.73135370988377701 -0.68199835119979291 1.5 0 0 1 I I -0.70710678118654757 0.70710678118654757 1.5 forward I I I I #
loop $-1 $-1 $197 $49 #
coedge $-1 $124 $124 $198 $199 reversed $78 $-1 #
face $-1 $200 $201 $30 $-1 $202 reversed single #
loop $-1 $-1 $203 $80 #
plane-surface $-1 0 -38.806828228279883 0 0 1 0 0 0 1 forward_v I I I I #
coedge $-1 $204 $205 $206 $207 forward $81 $-1 #
coedge $-1 $208 $83 $209 $210 forward $51 $-1 #
coedge $-1 $83 $208 $211 $212 forward $51 $-1 #
coedge $-1 $213 $214 $83 $132 reversed $215 $-1 #
edge $-1 $216 -38.806828228279883 $217 38.806828228279883 $131 $218 forward 7 unknown #
face $-1 $219 $220 $31 $-1 $221 reversed single #
loop $-1 $-1 $222 $84 #
plane-surface $-1 -61.043435623145257 0 8.3961794004641028 -1 0 0 0 0 1 forward_v I I I I #
coedge $-1 $223 $224 $225 $226 forward $85 $-1 #
coedge $-1 $227 $87 $228 $229 reversed $54 $-1 #
coedge $-1 $87 $227 $230 $231 reversed $54 $-1 #
coedge $-1 $222 $232 $87 $140 reversed $134 $-1 #
edge $-1 $233 -38.806828228279883 $234 38.806828228279883 $139 $235 forward 7 unknown #
face $-1 $236 $237 $32 $-1 $238 forward single #
loop $-1 $-1 $239 $88 #
plane-surface $-1 1.0414911687138861 -115.17911639800822 128.28454860392327 -1 0 0 0 -0.52991927123019833 0.84804809178421925 forward_v I I I I #
coedge $-1 $240 $241 $242 $243 reversed $89 $-1 #
coedge $-1 $146 $91 $244 $245 reversed $57 $-1 #
coedge $-1 $91 $145 $240 $246 reversed $57 $-1 #
coedge $-1 $242 $247 $91 $148 forward $248 $-1 #
edge $-1 $249 50.547271344252735 $250 58.078933274007994 $147 $251 forward 7 unknown #
loop $-1 $-1 $154 $92 #
plane-surface $-1 -6.1109002785775743 -38.806828228279883 6.0633410279536406 0 -0.52991927123019833 0.84804809178421925 1 0 0 forward_v I I I I #
loop $-1 $-1 $252 $59 #
coedge $-1 $152 $152 $153 $253 reversed $93 $-1 #
coedge $-1 $153 $153 $152 $253 forward $95 $-1 #
coedge $-1 $154 $154 $96 $155 forward $149 $-1 #
edge $-1 $254 -1.1302206124029399e-015 $254 6.2831853071795996 $154 $255 forward 7 unknown #
face $-1 $256 $257 $34 $-1 $258 reversed single #
loop $-1 $-1 $259 $97 #
plane-surface $-1 5.5084344757896666 91.277584666478432 157.0474373312538 -1 0 0 0 0.73135370988377701 0.68199835119979291 forward_v I I I I #
coedge $-1 $260 $261 $262 $263 reversed $98 $-1 #
coedge $-1 $161 $100 $264 $265 reversed $63 $-1 #
coedge $-1 $100 $160 $260 $266 reversed $63 $-1 #
coedge $-1 $262 $267 $100 $163 forward $268 $-1 #
edge $-1 $269 6.8319641049593329 $270 17.649716093757881 $162 $271 forward 7 unknown #
loop $-1 $-1 $169 $101 #
plane-surface $-1 -7.2774172974367559 -14.125557505681016 58.757419517419706 0 0.73135370988377701 0.68199835119979291 1 0 0 forward_v I I I I #
loop $-1 $-1 $272 $65 #
coedge $-1 $167 $167 $168 $273 reversed $102 $-1 #
coedge $-1 $168 $168 $167 $273 forward $104 $-1 #
coedge $-1 $169 $169 $105 $170 forward $164 $-1 #
edge $-1 $274 8.8336652617799044e-016 $274 6.2831853071796013 $169 $275 forward 7 unknown #
loop $-1 $-1 $176 $106 #
plane-surface $-1 -7.2774172974367559 -14.125557505681016 58.757419517419706 0 0.73135370988377701 0.68199835119979291 1 0 0 forward_v I I I I #
loop $-1 $-1 $276 $68 #
coedge $-1 $174 $174 $175 $277 reversed $107 $-1 #
coedge $-1 $175 $175 $174 $277 forward $109 $-1 #
coedge $-1 $176 $176 $110 $177 forward $171 $-1 #
edge $-1 $278 8.8336652617799044e-016 $278 6.2831853071796013 $176 $279 forward 7 unknown #
face $-1 $280 $281 $37 $-1 $282 reversed single #
loop $-1 $-1 $184 $111 #
plane-surface $-1 0 0 13.595002957708903 0 0 1 1 0 0 forward_v I I I I #
coedge $-1 $283 $284 $285 $286 reversed $112 $-1 #
coedge $-1 $183 $114 $287 $288 reversed $72 $-1 #
coedge $-1 $114 $182 $283 $289 reversed $72 $-1 #
coedge $-1 $285 $290 $114 $185 forward $179 $-1 #
edge $-1 $291 6.8319641049593329 $292 17.649716093757881 $184 $293 forward 7 unknown #
loop $-1 $-1 $191 $115 #
plane-surface $-1 59.274452801498171 -14.125557505681016 58.757419517419706 0 0.73135370988377701 0.68199835119979291 1 0 0 forward_v I I I I #
loop $-1 $-1 $294 $74 #
coedge $-1 $189 $189 $190 $295 reversed $116 $-1 #
coedge $-1 $190 $190 $189 $295 forward $118 $-1 #
coedge $-1 $191 $191 $119 $192 forward $186 $-1 #
edge $-1 $296 8.8336652617799044e-016 $296 6.2831853071796013 $191 $297 forward 7 unknown #
loop $-1 $-1 $198 $120 #
plane-surface $-1 59.274452801498171 -14.125557505681016 58.757419517419706 0 0.73135370988377701 0.68199835119979291 1 0 0 forward_v I I I I #
loop $-1 $-1 $298 $77 #
coedge $-1 $196 $196 $197 $299 reversed $121 $-1 #
coedge $-1 $197 $197 $196 $299 forward $123 $-1 #
coedge $-1 $198 $198 $124 $199 forward $193 $-1 #
edge $-1 $300 8.8336652617799044e-016 $300 6.2831853071796013 $198 $301 forward 7 unknown #
face $-1 $302 $303 $30 $-1 $304 reversed single #
loop $-1 $-1 $305 $125 #
plane-surface $-1 -72.060304574724569 0 0 1 0 0 0 0 -1 forward_v I I I I #
coedge $-1 $306 $211 $307 $308 forward $126 $-1 #
coedge $-1 $309 $128 $306 $310 forward $81 $-1 #
coedge $-1 $128 $309 $311 $312 forward $81 $-1 #
coedge $-1 $214 $213 $128 $207 reversed $215 $-1 #
edge $-1 $313 -38.806828228279883 $314 38.806828228279883 $206 $315 forward 7 unknown #
coedge $-1 $130 $129 $316 $317 forward $51 $-1 #
coedge $-1 $318 $319 $129 $210 reversed $303 $-1 #
edge $-1 $217 -72.060304574724569 $320 72.060304574724569 $209 $321 forward 7 unknown #
coedge $-1 $203 $322 $130 $212 reversed $126 $-1 #
edge $-1 $323 -72.060304574724569 $216 72.060304574724569 $211 $324 forward 7 unknown #
coedge $-1 $206 $131 $322 $325 forward $215 $-1 #
coedge $-1 $131 $206 $318 $326 reversed $215 $-1 #
loop $-1 $-1 $213 $302 #
vertex $-1 $132 $327 #
vertex $-1 $132 $328 #
straight-curve $-1 72.060304574724569 0 13.595002957708903 0 1 0 I I #
face $-1 $329 $330 $31 $-1 $331 reversed single #
loop $-1 $-1 $332 $133 #
plane-surface $-1 0 -38.806828228279883 0 0 1 0 0 0 1 forward_v I I I I #
coedge $-1 $225 $139 $333 $334 reversed $134 $-1 #
coedge $-1 $335 $136 $332 $336 reversed $85 $-1 #
coedge $-1 $136 $335 $337 $338 reversed $85 $-1 #
coedge $-1 $232 $222 $136 $226 reversed $134 $-1 #
edge $-1 $339 -38.806828228279883 $340 38.806828228279883 $225 $341 forward 7 unknown #
coedge $-1 $138 $137 $342 $343 reversed $54 $-1 #
coedge $-1 $344 $345 $137 $229 forward $346 $-1 #
edge $-1 $347 -38.784369525257112 $234 -27.7675005736778 $228 $348 forward 7 unknown #
coedge $-1 $349 $333 $138 $231 forward $220 $-1 #
edge $-1 $233 27.7675005736778 $350 38.784369525257112 $230 $351 forward 7 unknown #
coedge $-1 $139 $225 $344 $352 reversed $134 $-1 #
vertex $-1 $231 $353 #
vertex $-1 $229 $354 #
straight-curve $-1 -61.043435623145257 0 12.222421558009417 0 1 0 I I #
face $-1 $-1 $248 $32 $-1 $355 reversed single #
loop $-1 $-1 $356 $141 #
plane-surface $-1 0 0 13.595002957708903 0 0 1 1 0 0 forward_v I I I I #
coedge $-1 $357 $358 $359 $360 reversed $142 $-1 #
coedge $-1 $361 $144 $146 $246 forward $89 $-1 #
coedge $-1 $144 $361 $357 $362 forward $89 $-1 #
coedge $-1 $359 $147 $144 $243 forward $248 $-1 #
edge $-1 $250 -10.207841586580248 $363 4.0969413080026733 $242 $364 forward 7 unknown #
coedge $-1 $365 $366 $145 $245 forward $237 $-1 #
edge $-1 $367 -30.835908396685223 $249 -18.782729970724226 $244 $368 forward 7 unknown #
edge $-1 $250 0 $367 14.212847765039081 $146 $369 forward 7 unknown #
coedge $-1 $147 $359 $365 $370 reversed $248 $-1 #
loop $-1 $-1 $359 $236 #
vertex $-1 $370 $371 #
vertex $-1 $148 $372 #
straight-curve $-1 -13.263291725869035 -38.806828228279883 64.142274301961635 0 0 -1 I I #
coedge $-1 $252 $252 $-1 $373 reversed $151 $-1 #
edge $-1 $374 0 $374 6.2831853071796004 $152 $375 forward 7 unknown #
vertex $-1 $155 $376 #
ellipse-curve $-1 -6.1109002785775743 -32.780239015299387 9.8291719928312684 0 -0.52991927123019833 0.84804809178421925 2 0 0 1 I I #
face $-1 $-1 $268 $34 $-1 $377 forward single #
loop $-1 $-1 $378 $156 #
plane-surface $-1 0 38.806828228279883 0 0 -1 0 0 0 -1 forward_v I I I I #
coedge $-1 $379 $380 $381 $382 reversed $157 $-1 #
coedge $-1 $383 $159 $161 $266 forward $98 $-1 #
coedge $-1 $159 $383 $379 $384 forward $98 $-1 #
coedge $-1 $381 $162 $159 $263 forward $268 $-1 #
edge $-1 $270 -16.4245604219448 $385 9.1471431245080446 $262 $386 forward 7 unknown #
coedge $-1 $387 $388 $160 $265 forward $257 $-1 #
edge $-1 $389 -76.529334735357125 $269 -64.928715707918002 $264 $390 forward 7 unknown #
edge $-1 $270 61.751811673844912 $389 77.613656456559738 $161 $391 forward 7 unknown #
coedge $-1 $162 $381 $387 $392 forward $268 $-1 #
loop $-1 $-1 $381 $256 #
vertex $-1 $265 $393 #
vertex $-1 $163 $394 #
straight-curve $-1 -20.063269070663178 45.638792333239216 13.5950029577089 0 -1 0 I I #
coedge $-1 $272 $272 $-1 $395 reversed $166 $-1 #
edge $-1 $396 0 $396 6.2831853071796004 $167 $397 forward 7 unknown #
vertex $-1 $170 $398 #
ellipse-curve $-1 -12.757068057390931 33.397952233880602 7.7946934439893445 0 0.73135370988377701 0.68199835119979291 3 0 0 1 I I #
coedge $-1 $276 $276 $-1 $399 reversed $173 $-1 #
edge $-1 $400 0 $400 6.2831853071796004 $174 $401 forward 7 unknown #
vertex $-1 $177 $402 #
ellipse-curve $-1 -1.7977665374825733 33.397952233880602 7.7946934439893445 0 0.73135370988377701 0.68199835119979291 3 0 0 1 I I #
face $-1 $-1 $403 $37 $-1 $404 reversed single #
loop $-1 $-1 $405 $178 #
plane-surface $-1 72.060304574724569 0 0 -1 0 0 0 0 1 forward_v I I I I #
coedge $-1 $406 $181 $183 $289 forward $112 $-1 #
coedge $-1 $181 $406 $405 $407 reversed $112 $-1 #
coedge $-1 $408 $184 $181 $286 forward $179 $-1 #
edge $-1 $292 16.851374627522659 $409 42.423078173975512 $285 $410 forward 7 unknown #
coedge $-1 $411 $412 $182 $288 forward $403 $-1 #
edge $-1 $413 -76.529334735357125 $291 -64.928715707918002 $287 $414 forward 7 unknown #
edge $-1 $292 61.751811673844912 $413 77.613656456559738 $183 $415 forward 7 unknown #
coedge $-1 $184 $408 $411 $416 forward $179 $-1 #
vertex $-1 $288 $417 #
vertex $-1 $185 $418 #
straight-curve $-1 46.488601028271745 45.638792333239216 13.5950029577089 0 -1 0 I I #
coedge $-1 $294 $294 $-1 $419 reversed $188 $-1 #
edge $-1 $420 0 $420 6.2831853071796004 $189 $421 forward 7 unknown #
vertex $-1 $192 $422 #
ellipse-curve $-1 53.794802041543988 33.397952233880602 7.7946934439893445 0 0.73135370988377701 0.68199835119979291 3 0 0 1 I I #
coedge $-1 $298 $298 $-1 $423 reversed $195 $-1 #
edge $-1 $424 0 $424 6.2831853071796004 $196 $425 forward 7 unknown #
vertex $-1 $199 $426 #
ellipse-curve $-1 64.754103561452325 33.397952233880602 7.7946934439893445 0 0.73135370988377701 0.68199835119979291 3 0 0 1 I I #
face $-1 $-1 $215 $30 $-1 $427 reversed single #
loop $-1 $-1 $318 $200 #
plane-surface $-1 0 38.806828228279883 0 0 -1 0 0 0 -1 forward_v I I I I #
coedge $-1 $428 $316 $319 $429 forward $201 $-1 #
coedge $-1 $322 $203 $204 $310 reversed $126 $-1 #
coedge $-1 $316 $428 $203 $308 reversed $201 $-1 #
edge $-1 $323 -13.595002957708903 $430 13.595002957708903 $307 $431 forward 7 unknown #
coedge $-1 $205 $204 $428 $432 forward $81 $-1 #
edge $-1 $314 -72.060304574724569 $430 72.060304574724569 $306 $433 forward 7 unknown #
coedge $-1 $319 $318 $205 $312 reversed $303 $-1 #
edge $-1 $434 -72.060304574724569 $313 72.060304574724569 $311 $435 forward 7 unknown #
vertex $-1 $207 $436 #
vertex $-1 $325 $437 #
straight-curve $-1 72.060304574724569 0 -13.595002957708903 0 -1 0 I I #
coedge $-1 $305 $307 $208 $317 reversed $201 $-1 #
edge $-1 $320 -38.806828228279883 $323 38.806828228279883 $316 $438 forward 7 unknown #
coedge $-1 $311 $209 $214 $326 forward $303 $-1 #
coedge $-1 $209 $311 $305 $429 reversed $303 $-1 #
vertex $-1 $210 $439 #
straight-curve $-1 0 38.806828228279883 13.595002957708903 -1 0 0 I I #
coedge $-1 $211 $306 $213 $325 reversed $126 $-1 #
vertex $-1 $317 $440 #
straight-curve $-1 0 -38.806828228279883 13.595002957708903 1 0 0 I I #
edge $-1 $216 -13.595002957708903 $314 13.595002957708903 $213 $441 forward 7 unknown #
edge $-1 $217 -13.595002957708903 $313 13.595002957708903 $214 $442 forward 7 unknown #
point $-1 72.060304574724569 -38.806828228279883 13.595002957708903 #
point $-1 72.060304574724569 38.806828228279883 13.595002957708903 #
face $-1 $-1 $346 $31 $-1 $443 reversed single #
loop $-1 $-1 $444 $219 #
plane-surface $-1 -72.060304574724569 0 0 1 0 0 0 0 -1 forward_v I I I I #
coedge $-1 $333 $349 $223 $336 forward $220 $-1 #
coedge $-1 $230 $332 $222 $334 forward $220 $-1 #
edge $-1 $340 0.37184754268673714 $233 8.0243318577773657 $333 $445 forward 7 unknown #
coedge $-1 $224 $223 $444 $446 reversed $85 $-1 #
edge $-1 $447 -38.784369525257112 $340 -27.7675005736778 $332 $448 forward 7 unknown #
coedge $-1 $345 $344 $224 $338 forward $346 $-1 #
edge $-1 $339 27.7675005736778 $449 38.784369525257112 $337 $450 forward 7 unknown #
vertex $-1 $338 $451 #
vertex $-1 $336 $452 #
straight-curve $-1 -61.043435623145257 0 4.5699372429187886 0 -1 0 I I #
coedge $-1 $453 $454 $227 $343 forward $330 $-1 #
edge $-1 $350 -38.806828228279883 $347 38.806828228279883 $342 $455 forward 7 unknown #
coedge $-1 $337 $228 $232 $352 forward $346 $-1 #
coedge $-1 $228 $337 $453 $456 reversed $346 $-1 #
loop $-1 $-1 $337 $329 #
vertex $-1 $456 $457 #
straight-curve $-1 -33.275935049467456 38.806828228279883 12.222421558009417 1 0 0 I I #
coedge $-1 $332 $230 $454 $458 forward $220 $-1 #
vertex $-1 $458 $459 #
straight-curve $-1 -33.275935049467456 -38.806828228279883 12.222421558009417 -1 0 0 I I #
edge $-1 $234 -8.0243318577773657 $339 -0.37184754268673714 $344 $460 forward 7 unknown #
point $-1 -61.043435623145257 -38.806828228279883 12.222421558009417 #
point $-1 -61.043435623145257 38.806828228279883 12.222421558009417 #
plane-surface $-1 0 -38.806828228279883 0 0 1 0 0 0 1 forward_v I I I I #
coedge $-1 $366 $365 $358 $461 forward $237 $-1 #
coedge $-1 $358 $239 $241 $362 reversed $142 $-1 #
coedge $-1 $239 $357 $356 $461 reversed $142 $-1 #
coedge $-1 $247 $242 $239 $360 forward $248 $-1 #
edge $-1 $363 -58.078933274007994 $462 -50.547271344252735 $359 $463 forward 7 unknown #
coedge $-1 $241 $240 $366 $464 reversed $89 $-1 #
edge $-1 $465 -14.212847765039081 $363 0 $357 $466 forward 7 unknown #
vertex $-1 $243 $467 #
straight-curve $-1 -3.0554501392887872 -38.806828228279883 6.0633410279536424 1 0 0 I I #
coedge $-1 $356 $244 $247 $370 forward $237 $-1 #
coedge $-1 $244 $356 $361 $464 forward $237 $-1 #
vertex $-1 $245 $468 #
straight-curve $-1 -13.263291725869035 -57.589558199004109 13.5950029577089 0 -1 0 I I #
straight-curve $-1 -13.263291725869035 -38.806828228279883 6.0633410279536406 0 0.84804809178421925 0.52991927123019833 I I #
edge $-1 $249 -13.263291725869035 $462 1.0414911687138861 $247 $469 forward 7 unknown #
point $-1 -13.263291725869035 -38.806828228279883 13.595002957708903 #
point $-1 -13.263291725869035 -38.806828228279883 6.0633410279536406 #
edge $-1 $470 1 $470 0 $252 $-1 forward 7 unknown #
vertex $-1 $253 $471 #
ellipse-curve $-1 -6.1109002785775743 -30.654384094091789 6.4270930211513662 0 -0.52991927123019833 0.84804809178421925 2 0 0 1 I I #
point $-1 -4.1109002785775743 -32.780239015299394 9.8291719928312755 #
plane-surface $-1 0 0 13.595002957708903 0 0 1 1 0 0 forward_v I I I I #
coedge $-1 $388 $387 $380 $472 forward $257 $-1 #
coedge $-1 $380 $259 $261 $384 reversed $157 $-1 #
coedge $-1 $259 $379 $378 $472 reversed $157 $-1 #
coedge $-1 $267 $262 $259 $382 forward $268 $-1 #
edge $-1 $385 -17.649716093757881 $473 -6.8319641049593329 $381 $474 forward 7 unknown #
coedge $-1 $261 $260 $388 $475 reversed $98 $-1 #
edge $-1 $476 -77.613656456559738 $385 -61.751811673844912 $379 $477 forward 7 unknown #
vertex $-1 $263 $478 #
straight-curve $-1 -3.638708648718378 27.989076239481339 13.595002957708903 1 0 0 I I #
coedge $-1 $378 $264 $267 $392 reversed $257 $-1 #
coedge $-1 $264 $378 $383 $475 forward $257 $-1 #
vertex $-1 $265 $479 #
straight-curve $-1 -20.063269070663178 38.806828228279883 78.523718665626902 0 0 1 I I #
straight-curve $-1 -20.063269070663178 -14.125557505681016 58.757419517419706 0 0.68199835119979291 -0.73135370988377701 I I #
edge $-1 $473 -5.5084344757896666 $269 20.063269070663178 $387 $480 forward 7 unknown #
point $-1 -20.063269070663178 38.806828228279883 13.595002957708903 #
point $-1 -20.063269070663178 27.989076239481335 13.5950029577089 #
edge $-1 $481 1 $481 0 $272 $-1 forward 7 unknown #
vertex $-1 $273 $482 #
ellipse-curve $-1 -12.757068057390931 29.506468403443058 4.1658261528111575 0 0.73135370988377701 0.68199835119979291 3 0 0 1 I I #
point $-1 -9.7570680573909314 33.397952233880588 7.7946934439893276 #
edge $-1 $483 1 $483 0 $276 $-1 forward 7 unknown #
vertex $-1 $277 $484 #
ellipse-curve $-1 -1.7977665374825733 29.506468403443058 4.1658261528111575 0 0.73135370988377701 0.68199835119979291 3 0 0 1 I I #
point $-1 1.2022334625174267 33.397952233880588 7.7946934439893276 #
loop $-1 $-1 $287 $280 #
plane-surface $-1 0 38.806828228279883 0 0 -1 0 0 0 -1 forward_v I I I I #
coedge $-1 $485 $486 $284 $407 forward $281 $-1 #
coedge $-1 $284 $283 $412 $487 reversed $112 $-1 #
edge $-1 $409 35.448779835887578 $488 51.310624618602404 $405 $489 forward 7 unknown #
coedge $-1 $290 $285 $486 $490 forward $179 $-1 #
vertex $-1 $490 $491 #
straight-curve $-1 29.637226400749086 27.989076239481339 13.595002957708903 1 0 0 I I #
coedge $-1 $492 $287 $290 $416 reversed $403 $-1 #
coedge $-1 $287 $492 $406 $487 forward $403 $-1 #
vertex $-1 $288 $493 #
straight-curve $-1 46.488601028271745 38.806828228279883 78.523718665626902 0 0 1 I I #
straight-curve $-1 46.488601028271745 -14.125557505681016 58.757419517419706 0 0.68199835119979291 -0.73135370988377701 I I #
edge $-1 $494 -72.060304574724569 $291 -46.488601028271745 $411 $495 forward 7 unknown #
point $-1 46.488601028271745 38.806828228279883 13.595002957708903 #
point $-1 46.488601028271745 27.989076239481335 13.5950029577089 #
edge $-1 $496 1 $496 0 $294 $-1 forward 7 unknown #
vertex $-1 $295 $497 #
ellipse-curve $-1 53.794802041543988 29.506468403443058 4.1658261528111575 0 0.73135370988377701 0.68199835119979291 3 0 0 1 I I #
point $-1 56.794802041543988 33.397952233880588 7.7946934439893276 #
edge $-1 $498 1 $498 0 $298 $-1 forward 7 unknown #
vertex $-1 $299 $499 #
ellipse-curve $-1 64.754103561452325 29.506468403443058 4.1658261528111575 0 0.73135370988377701 0.68199835119979291 3 0 0 1 I I #
point $-1 67.754103561452325 33.397952233880588 7.7946934439893276 #
plane-surface $-1 72.060304574724569 0 0 -1 0 0 0 0 1 forward_v I I I I #
coedge $-1 $307 $305 $309 $432 reversed $201 $-1 #
edge $-1 $320 -13.595002957708903 $434 13.595002957708903 $319 $500 forward 7 unknown #
vertex $-1 $432 $501 #
straight-curve $-1 -72.060304574724569 -38.806828228279883 0 0 0 -1 I I #
edge $-1 $430 -38.806828228279883 $434 38.806828228279883 $428 $502 forward 7 unknown #
straight-curve $-1 0 -38.806828228279883 -13.595002957708903 -1 0 0 I I #
vertex $-1 $312 $503 #
straight-curve $-1 0 38.806828228279883 -13.595002957708903 1 0 0 I I #
point $-1 72.060304574724569 38.806828228279883 -13.595002957708903 #
point $-1 72.060304574724569 -38.806828228279883 -13.595002957708903 #
straight-curve $-1 -72.060304574724569 0 13.595002957708903 0 -1 0 I I #
point $-1 -72.060304574724569 38.806828228279883 13.595002957708903 #
point $-1 -72.060304574724569 -38.806828228279883 13.595002957708903 #
straight-curve $-1 72.060304574724569 -38.806828228279883 0 0 0 -1 I I #
straight-curve $-1 72.060304574724569 38.806828228279883 0 0 0 -1 I I #
plane-surface $-1 0 38.806828228279883 0 0 -1 0 0 0 -1 forward_v I I I I #
coedge $-1 $454 $453 $335 $446 forward $330 $-1 #
straight-curve $-1 -61.043435623145257 -38.806828228279883 4.1980897002320514 0 0 1 I I #
edge $-1 $449 -38.806828228279883 $447 38.806828228279883 $444 $504 forward 7 unknown #
vertex $-1 $336 $505 #
straight-curve $-1 -33.275935049467456 -38.806828228279883 4.5699372429187886 1 0 0 I I #
vertex $-1 $338 $506 #
straight-curve $-1 -33.275935049467456 38.806828228279883 4.5699372429187886 -1 0 0 I I #
point $-1 -61.043435623145257 38.806828228279883 4.5699372429187886 #
point $-1 -61.043435623145257 -38.806828228279883 4.5699372429187886 #
coedge $-1 $444 $342 $345 $456 forward $330 $-1 #
coedge $-1 $342 $444 $349 $458 reversed $330 $-1 #
straight-curve $-1 -72.060304574724569 0 12.222421558009417 0 1 0 I I #
edge $-1 $347 -12.222421558009417 $449 -4.5699372429187886 $345 $507 forward 7 unknown #
point $-1 -72.060304574724569 38.806828228279883 12.222421558009417 #
edge $-1 $350 -12.222421558009417 $447 -4.5699372429187886 $454 $508 forward 7 unknown #
point $-1 -72.060304574724569 -38.806828228279883 12.222421558009417 #
straight-curve $-1 -61.043435623145257 38.806828228279883 4.1980897002320514 0 0 -1 I I #
edge $-1 $462 18.782729970724226 $465 30.835908396685223 $356 $509 forward 7 unknown #
vertex $-1 $461 $510 #
straight-curve $-1 1.0414911687138861 -38.806828228279883 64.142274301961635 0 0 1 I I #
edge $-1 $465 -4.0969413080026733 $367 10.207841586580248 $366 $511 forward 7 unknown #
vertex $-1 $464 $512 #
straight-curve $-1 1.0414911687138861 -38.806828228279883 6.0633410279536406 0 -0.84804809178421925 -0.52991927123019833 I I #
point $-1 1.0414911687138861 -38.806828228279883 6.0633410279536406 #
point $-1 -13.263291725869035 -26.753649802318886 13.595002957708903 #
straight-curve $-1 0 -38.806828228279883 13.595002957708903 1 0 0 I I #
vertex $-1 $373 $513 #
point $-1 -4.1109002785775743 -30.654384094091789 6.4270930211513662 #
edge $-1 $473 64.928715707918002 $476 76.529334735357125 $378 $514 forward 7 unknown #
vertex $-1 $392 $515 #
straight-curve $-1 5.5084344757896666 45.638792333239216 13.5950029577089 0 1 0 I I #
edge $-1 $476 -9.1471431245080446 $389 16.4245604219448 $388 $516 forward 7 unknown #
vertex $-1 $475 $517 #
straight-curve $-1 5.5084344757896666 -14.125557505681016 58.757419517419706 0 -0.68199835119979291 0.73135370988377701 I I #
point $-1 5.5084344757896666 27.989076239481335 13.5950029577089 #
point $-1 -20.063269070663178 38.806828228279883 1.9943839302697768 #
straight-curve $-1 0 38.806828228279883 13.595002957708903 -1 0 0 I I #
vertex $-1 $395 $518 #
point $-1 -9.7570680573909314 29.506468403443058 4.1658261528111575 #
vertex $-1 $399 $519 #
point $-1 1.2022334625174267 29.506468403443058 4.1658261528111575 #
coedge $-1 $486 $405 $492 $520 reversed $281 $-1 #
coedge $-1 $405 $485 $408 $490 reversed $281 $-1 #
edge $-1 $488 -42.423078173975512 $413 -16.851374627522659 $412 $521 forward 7 unknown #
vertex $-1 $407 $522 #
straight-curve $-1 72.060304574724569 3.813066839361543 39.520599601538507 0 0.68199835119979291 -0.73135370988377701 I I #
edge $-1 $409 27.989076239481335 $494 38.806828228279883 $486 $523 forward 7 unknown #
point $-1 72.060304574724597 27.989076239481335 13.5950029577089 #
coedge $-1 $412 $411 $485 $520 forward $403 $-1 #
point $-1 46.488601028271745 38.806828228279883 1.9943839302697768 #
vertex $-1 $490 $524 #
straight-curve $-1 0 38.806828228279883 13.595002957708903 -1 0 0 I I #
vertex $-1 $419 $525 #
point $-1 56.794802041543988 29.506468403443058 4.1658261528111575 #
vertex $-1 $423 $526 #
point $-1 67.754103561452325 29.506468403443058 4.1658261528111575 #
straight-curve $-1 -72.060304574724569 38.806828228279883 0 0 0 -1 I I #
point $-1 -72.060304574724569 -38.806828228279883 -13.595002957708903 #
straight-curve $-1 -72.060304574724569 0 -13.595002957708903 0 1 0 I I #
point $-1 -72.060304574724569 38.806828228279883 -13.595002957708903 #
straight-curve $-1 -72.060304574724569 0 4.5699372429187886 0 -1 0 I I #
point $-1 -72.060304574724569 -38.806828228279883 4.5699372429187886 #
point $-1 -72.060304574724569 38.806828228279883 4.5699372429187886 #
straight-curve $-1 -72.060304574724569 38.806828228279883 0 0 0 -1 I I #
straight-curve $-1 -72.060304574724569 -38.806828228279883 0 0 0 -1 I I #
straight-curve $-1 1.0414911687138861 -57.589558199004109 13.5950029577089 0 1 0 I I #
point $-1 1.0414911687138861 -38.806828228279883 13.595002957708903 #
straight-curve $-1 -3.0554501392887872 -26.753649802318886 13.595002957708903 -1 0 0 I I #
point $-1 1.0414911687138861 -26.753649802318886 13.595002957708903 #
point $-1 -6.1109002785775743 -29.594545551631391 4.7309968375829268 #
straight-curve $-1 5.5084344757896666 38.806828228279883 78.523718665626902 0 0 -1 I I #
point $-1 5.5084344757896666 38.806828228279883 13.595002957708903 #
straight-curve $-1 -3.638708648718378 38.806828228279876 1.9943839302697839 -1 0 0 I I #
point $-1 5.5084344757896666 38.806828228279883 1.9943839302697768 #
point $-1 -12.757068057390931 27.312407273791727 2.1198310992117788 #
point $-1 -1.7977665374825733 27.312407273791727 2.1198310992117788 #
edge $-1 $494 -13.595002957708903 $488 -1.9943839302697768 $485 $527 forward 7 unknown #
straight-curve $-1 29.637226400749086 38.806828228279876 1.9943839302697839 -1 0 0 I I #
point $-1 72.060304574724597 38.806828228279883 1.9943839302697768 #
straight-curve $-1 72.060304574724569 0 13.595002957708903 0 1 0 I I #
point $-1 72.060304574724569 38.806828228279883 13.595002957708903 #
point $-1 53.794802041543988 27.312407273791727 2.1198310992117788 #
point $-1 64.754103561452325 27.312407273791727 2.1198310992117788 #
straight-curve $-1 72.060304574724569 38.806828228279883 0 0 0 -1 I I #
End-of-ACIS-data 