500 0 13 0           
7 Unknown 11 ACIS 5.0 NT 24 Thu Mar 25 15:08:08 1999 
-1 9.9999999999999995e-007 1e-010 
body $-1 $13 $-1 $14 #
body $-1 $15 $-1 $16 #
body $-1 $17 $-1 $18 #
body $-1 $19 $-1 $20 #
body $-1 $21 $-1 $22 #
body $-1 $23 $-1 $24 #
body $-1 $25 $-1 $26 #
body $-1 $27 $-1 $28 #
body $-1 $29 $-1 $30 #
body $-1 $31 $-1 $32 #
body $-1 $33 $-1 $34 #
body $-1 $35 $-1 $36 #
body $-1 $37 $-1 $38 #
lump $-1 $-1 $39 $0 #
transform $-1 1 0 0 0 1 0 0 0 1 62.149113437299725 39.831992143397336 13.750649907787336 1 rotate no_reflect no_shear #
lump $-1 $-1 $40 $1 #
transform $-1 1 0 0 0 1 0 0 0 1 62.149113437299725 39.831992143397336 13.750649907787336 1 rotate no_reflect no_shear #
lump $-1 $-1 $41 $2 #
transform $-1 1 0 0 0 1 0 0 0 1 62.149113437299725 39.831992143397336 13.750649907787336 1 rotate no_reflect no_shear #
lump $-1 $-1 $42 $3 #
transform $-1 1 0 0 0 1 0 0 0 1 62.149113437299725 39.831992143397336 13.750649907787336 1 rotate no_reflect no_shear #
lump $-1 $-1 $43 $4 #
transform $-1 1 0 0 0 1 0 0 0 1 62.149113437299725 39.831992143397336 13.750649907787336 1 rotate no_reflect no_shear #
lump $-1 $-1 $44 $5 #
transform $-1 1 0 0 0 1 0 0 0 1 62.149113437299725 39.831992143397336 13.750649907787336 1 rotate no_reflect no_shear #
lump $-1 $-1 $45 $6 #
transform $-1 1 0 0 0 1 0 0 0 1 62.149113437299725 39.831992143397336 13.750649907787336 1 rotate no_reflect no_shear #
lump $-1 $-1 $46 $7 #
transform $-1 1 0 0 0 1 0 0 0 1 62.149113437299725 39.831992143397336 13.750649907787336 1 rotate no_reflect no_shear #
lump $-1 $-1 $47 $8 #
transform $-1 1 0 0 0 1 0 0 0 1 62.149113437299725 39.831992143397336 13.750649907787336 1 rotate no_reflect no_shear #
lump $-1 $-1 $48 $9 #
transform $-1 1 0 0 0 1 0 0 0 1 62.149113437299725 39.831992143397336 13.750649907787336 1 rotate no_reflect no_shear #
lump $-1 $-1 $49 $10 #
transform $-1 1 0 0 0 1 0 0 0 1 62.149113437299725 39.831992143397336 13.750649907787336 1 rotate no_reflect no_shear #
lump $-1 $-1 $50 $11 #
transform $-1 1 0 0 0 1 0 0 0 1 62.149113437299725 39.831992143397336 13.750649907787336 1 rotate no_reflect no_shear #
lump $-1 $-1 $51 $12 #
transform $-1 1 0 0 0 1 0 0 0 1 62.149113437299725 39.831992143397336 13.750649907787336 1 rotate no_reflect no_shear #
shell $-1 $-1 $-1 $52 $-1 $13 #
shell $-1 $-1 $-1 $53 $-1 $15 #
shell $-1 $-1 $-1 $54 $-1 $17 #
shell $-1 $-1 $-1 $55 $-1 $19 #
shell $-1 $-1 $-1 $56 $-1 $21 #
shell $-1 $-1 $-1 $57 $-1 $23 #
shell $-1 $-1 $-1 $58 $-1 $25 #
shell $-1 $-1 $-1 $59 $-1 $27 #
shell $-1 $-1 $-1 $60 $-1 $29 #
shell $-1 $-1 $-1 $61 $-1 $31 #
shell $-1 $-1 $-1 $62 $-1 $33 #
shell $-1 $-1 $-1 $63 $-1 $35 #
shell $-1 $-1 $-1 $64 $-1 $37 #
face $-1 $65 $66 $39 $-1 $67 forward single #
face $-1 $68 $69 $40 $-1 $70 forward single #
face $-1 $71 $72 $41 $-1 $73 reversed single #
face $-1 $74 $75 $42 $-1 $76 forward single #
face $-1 $77 $78 $43 $-1 $79 forward single #
face $-1 $80 $81 $44 $-1 $82 reversed single #
face $-1 $83 $84 $45 $-1 $85 forward single #
face $-1 $86 $87 $46 $-1 $88 reversed single #
face $-1 $89 $90 $47 $-1 $91 forward single #
face $-1 $92 $93 $48 $-1 $94 reversed single #
face $-1 $95 $96 $49 $-1 $97 forward single #
face $-1 $98 $99 $50 $-1 $100 reversed single #
face $-1 $101 $102 $51 $-1 $103 forward single #
face $-1 $104 $105 $39 $-1 $106 reversed single #
loop $-1 $-1 $107 $52 #
plane-surface $-1 0 0 13.750649907787336 0 0 1 1 0 0 forward_v I I I I #
face $-1 $108 $109 $40 $-1 $110 reversed single #
loop $-1 $-1 $111 $53 #
plane-surface $-1 0 -32.292769344915612 6.8568749305086198 0 0 1 1 0 0 forward_v I I I I #
face $-1 $112 $113 $41 $-1 $114 reversed single #
loop $-1 $-1 $115 $54 #
plane-surface $-1 107.64542474549791 20.999947332940039 170.59934897082232 0 1 0 0.86602541151947299 0 0.49999998660252726 forward_v I I I I #
face $-1 $116 $117 $42 $-1 $118 forward single #
loop $-1 $119 $120 $55 #
cone-surface $-1 54.10652445449314 26.380531564499258 4.7919804089053013 -0.86602541151947299 0 -0.49999998660252726 1.2499999665063182 0 -2.1650635287986826 1 I I 0 1 2.5 forward I I I I #
face $-1 $121 $122 $43 $-1 $123 forward single #
loop $-1 $124 $125 $56 #
cone-surface $-1 54.10652445449314 34.451407911838096 4.7919804089053013 -0.86602541151947299 0 -0.49999998660252726 1.2499999665063182 0 -2.1650635287986826 1 I I 0 1 2.5 forward I I I I #
face $-1 $126 $127 $44 $-1 $128 reversed single #
loop $-1 $-1 $129 $57 #
plane-surface $-1 -155.95817709451902 -21.911082977999527 89.338216575228373 0 1 0 -0.75470958851134928 0 0.65605901945558964 forward_v I I I I #
face $-1 $130 $131 $45 $-1 $132 forward single #
loop $-1 $133 $134 $58 #
cone-surface $-1 -59.143227582507222 -16.310627630962813 10.409610807221648 0.75470958851134928 0 -0.65605901945558964 0.65605901945558964 0 0.75470958851134928 1 I I 0 1 1 forward I I I I #
face $-1 $135 $136 $46 $-1 $137 reversed single #
loop $-1 $-1 $138 $59 #
plane-surface $-1 -155.95817709451902 -6.0111826917031674 89.338216575228373 0 1 0 -0.75470958851134928 0 0.65605901945558964 forward_v I I I I #
face $-1 $139 $140 $47 $-1 $141 forward single #
loop $-1 $142 $143 $60 #
cone-surface $-1 -59.143227582507222 -0.410727344666455 10.409610807221648 0.75470958851134928 0 -0.65605901945558964 0.65605901945558964 0 0.75470958851134928 1 I I 0 1 1 forward I I I I #
face $-1 $144 $145 $48 $-1 $146 reversed single #
loop $-1 $-1 $147 $61 #
plane-surface $-1 -155.95817709451902 9.8887175945931904 89.338216575228373 0 1 0 -0.75470958851134928 0 0.65605901945558964 forward_v I I I I #
face $-1 $148 $149 $49 $-1 $150 forward single #
loop $-1 $151 $152 $62 #
cone-surface $-1 -59.143227582507222 15.489172941629903 10.409610807221648 0.75470958851134928 0 -0.65605901945558964 0.65605901945558964 0 0.75470958851134928 1 I I 0 1 1 forward I I I I #
face $-1 $153 $154 $50 $-1 $155 reversed single #
loop $-1 $-1 $156 $63 #
plane-surface $-1 -155.95817709451902 25.788617880889539 89.338216575228373 0 1 0 -0.75470958851134928 0 0.65605901945558964 forward_v I I I I #
face $-1 $157 $158 $51 $-1 $159 forward single #
loop $-1 $160 $161 $64 #
cone-surface $-1 -59.143227582507222 31.389073227926254 10.409610807221648 0.75470958851134928 0 -0.65605901945558964 0.65605901945558964 0 0.75470958851134928 1 I I 0 1 1 forward I I I I #
face $-1 $162 $163 $39 $-1 $164 reversed single #
loop $-1 $-1 $165 $65 #
plane-surface $-1 0 0 -13.750649907787336 0 0 1 1 0 0 forward_v I I I I #
coedge $-1 $166 $167 $168 $169 forward $66 $-1 #
face $-1 $170 $171 $40 $-1 $172 reversed single #
loop $-1 $-1 $173 $68 #
plane-surface $-1 0 -32.292769344915612 1.5253979317453821 0 0 1 1 0 0 forward_v I I I I #
coedge $-1 $174 $175 $176 $177 reversed $69 $-1 #
face $-1 $178 $179 $41 $-1 $180 forward single #
loop $-1 $-1 $181 $71 #
plane-surface $-1 1.665282084672981e-006 30.415969738168691 108.4502371988047 0.86602541151947299 0 0.49999998660252726 0.49999998660252726 0 -0.86602541151947299 forward_v I I I I #
coedge $-1 $182 $183 $184 $185 reversed $72 $-1 #
face $-1 $-1 $186 $42 $-1 $187 forward single #
loop $-1 $188 $189 $74 #
cone-surface $-1 48.718544462661121 26.380531564499258 1.6812288213693289 -0.86602541151947299 0 -0.49999998660252726 0.62499998325315909 0 -1.0825317643993413 1 I I -0.70710678118654746 0.70710678118654746 1.25 forward I I I I #
loop $-1 $-1 $190 $55 #
coedge $-1 $120 $120 $191 $192 reversed $75 $-1 #
face $-1 $-1 $193 $43 $-1 $194 forward single #
loop $-1 $195 $196 $77 #
cone-surface $-1 48.718544462661121 34.451407911838096 1.6812288213693289 -0.86602541151947299 0 -0.49999998660252726 0.62499998325315909 0 -1.0825317643993413 1 I I -0.70710678118654746 0.70710678118654746 1.25 forward I I I I #
loop $-1 $-1 $197 $56 #
coedge $-1 $125 $125 $198 $199 reversed $78 $-1 #
face $-1 $200 $201 $44 $-1 $202 reversed single #
loop $-1 $-1 $203 $80 #
plane-surface $-1 -62.149113437299718 -16.310627630962813 7.7912437318102263 -0.75470958851134928 0 0.65605901945558964 0.65605901945558964 0 0.75470958851134928 forward_v I I I I #
coedge $-1 $204 $205 $206 $207 reversed $81 $-1 #
face $-1 $-1 $208 $45 $-1 $209 forward single #
loop $-1 $210 $211 $83 #
cone-surface $-1 -58.350203244385327 -16.310627630962813 9.7202452849167162 0.75470958851134928 0 -0.65605901945558964 0.32802950972779482 0 0.37735479425567464 1 I I -0.70710678118654746 0.70710678118654746 0.5 forward I I I I #
loop $-1 $-1 $212 $58 #
coedge $-1 $134 $134 $213 $214 reversed $84 $-1 #
face $-1 $215 $216 $46 $-1 $217 reversed single #
loop $-1 $-1 $218 $86 #
plane-surface $-1 -62.149113437299718 -0.410727344666455 7.7912437318102263 -0.75470958851134928 0 0.65605901945558964 0.65605901945558964 0 0.75470958851134928 forward_v I I I I #
coedge $-1 $219 $220 $221 $222 reversed $87 $-1 #
face $-1 $-1 $223 $47 $-1 $224 forward single #
loop $-1 $225 $226 $89 #
cone-surface $-1 -58.350203244385327 -0.410727344666455 9.7202452849167162 0.75470958851134928 0 -0.65605901945558964 0.32802950972779482 0 0.37735479425567464 1 I I -0.70710678118654746 0.70710678118654746 0.5 forward I I I I #
loop $-1 $-1 $227 $60 #
coedge $-1 $143 $143 $228 $229 reversed $90 $-1 #
face $-1 $230 $231 $48 $-1 $232 reversed single #
loop $-1 $-1 $233 $92 #
plane-surface $-1 -62.149113437299718 15.489172941629903 7.7912437318102263 -0.75470958851134928 0 0.65605901945558964 0.65605901945558964 0 0.75470958851134928 forward_v I I I I #
coedge $-1 $234 $235 $236 $237 reversed $93 $-1 #
face $-1 $-1 $238 $49 $-1 $239 forward single #
loop $-1 $240 $241 $95 #
cone-surface $-1 -58.350203244385327 15.489172941629903 9.7202452849167162 0.75470958851134928 0 -0.65605901945558964 0.32802950972779482 0 0.37735479425567464 1 I I -0.70710678118654746 0.70710678118654746 0.5 forward I I I I #
loop $-1 $-1 $242 $62 #
coedge $-1 $152 $152 $243 $244 reversed $96 $-1 #
face $-1 $245 $246 $50 $-1 $247 reversed single #
loop $-1 $-1 $248 $98 #
plane-surface $-1 -62.149113437299718 31.389073227926254 7.7912437318102263 -0.75470958851134928 0 0.65605901945558964 0.65605901945558964 0 0.75470958851134928 forward_v I I I I #
coedge $-1 $249 $250 $251 $252 reversed $99 $-1 #
face $-1 $-1 $253 $51 $-1 $254 forward single #
loop $-1 $255 $256 $101 #
cone-surface $-1 -58.350203244385327 31.389073227926254 9.7202452849167162 0.75470958851134928 0 -0.65605901945558964 0.32802950972779482 0 0.37735479425567464 1 I I -0.70710678118654746 0.70710678118654746 0.5 forward I I I I #
loop $-1 $-1 $257 $64 #
coedge $-1 $161 $161 $258 $259 reversed $102 $-1 #
face $-1 $260 $261 $39 $-1 $262 reversed single #
loop $-1 $-1 $263 $104 #
plane-surface $-1 0 -39.831992143397336 0 0 1 0 0 0 1 forward_v I I I I #
coedge $-1 $264 $265 $266 $267 forward $105 $-1 #
coedge $-1 $268 $107 $269 $270 forward $66 $-1 #
coedge $-1 $107 $268 $271 $272 forward $66 $-1 #
coedge $-1 $273 $274 $107 $169 reversed $275 $-1 #
edge $-1 $276 -39.831992143397336 $277 39.831992143397336 $168 $278 forward 7 unknown #
face $-1 $279 $280 $40 $-1 $281 reversed single #
loop $-1 $-1 $282 $108 #
plane-surface $-1 0 -24.753546546433888 4.191136431127001 0 -1 0 0 0 -1 forward_v I I I I #
coedge $-1 $283 $284 $285 $286 reversed $109 $-1 #
coedge $-1 $287 $111 $288 $289 forward $69 $-1 #
coedge $-1 $111 $287 $290 $291 reversed $69 $-1 #
coedge $-1 $292 $293 $111 $177 forward $294 $-1 #
edge $-1 $295 8.6071618739760822 $296 23.68560747093953 $176 $297 forward 7 unknown #
face $-1 $298 $299 $41 $-1 $300 reversed single #
loop $-1 $-1 $301 $112 #
plane-surface $-1 0 0 13.750649907787336 0 0 1 1 0 0 forward_v I I I I #
coedge $-1 $302 $303 $304 $305 reversed $113 $-1 #
coedge $-1 $183 $115 $306 $307 reversed $72 $-1 #
coedge $-1 $115 $182 $302 $308 reversed $72 $-1 #
coedge $-1 $304 $309 $115 $185 forward $299 $-1 #
edge $-1 $310 71.549024577623825 $311 84.494860366822309 $184 $312 forward 7 unknown #
loop $-1 $-1 $191 $116 #
plane-surface $-1 1.665282084672981e-006 30.415969738168691 108.4502371988047 0.86602541151947299 0 0.49999998660252726 0.49999998660252726 0 -0.86602541151947299 forward_v I I I I #
loop $-1 $-1 $313 $74 #
coedge $-1 $189 $189 $190 $314 reversed $117 $-1 #
coedge $-1 $190 $190 $189 $314 forward $119 $-1 #
coedge $-1 $191 $191 $120 $192 forward $186 $-1 #
edge $-1 $315 0 $315 6.2831853071796004 $191 $316 forward 7 unknown #
loop $-1 $-1 $198 $121 #
plane-surface $-1 1.665282084672981e-006 30.415969738168691 108.4502371988047 0.86602541151947299 0 0.49999998660252726 0.49999998660252726 0 -0.86602541151947299 forward_v I I I I #
loop $-1 $-1 $317 $77 #
coedge $-1 $196 $196 $197 $318 reversed $122 $-1 #
coedge $-1 $197 $197 $196 $318 forward $124 $-1 #
coedge $-1 $198 $198 $125 $199 forward $193 $-1 #
edge $-1 $319 0 $319 6.2831853071796004 $198 $320 forward 7 unknown #
face $-1 $321 $322 $44 $-1 $323 reversed single #
loop $-1 $-1 $324 $126 #
plane-surface $-1 -155.95817709451902 -10.7101722839261 89.338216575228373 0 -1 0 0.75470958851134928 0 -0.65605901945558964 forward_v I I I I #
coedge $-1 $325 $326 $327 $328 reversed $127 $-1 #
coedge $-1 $205 $129 $329 $330 reversed $81 $-1 #
coedge $-1 $129 $204 $325 $331 reversed $81 $-1 #
coedge $-1 $327 $332 $129 $207 forward $333 $-1 #
edge $-1 $334 15.829975109959783 $335 21.010407731812364 $206 $336 forward 7 unknown #
loop $-1 $-1 $213 $130 #
plane-surface $-1 -62.149113437299718 -16.310627630962813 7.7912437318102263 -0.75470958851134928 0 0.65605901945558964 0.65605901945558964 0 0.75470958851134928 forward_v I I I I #
loop $-1 $-1 $337 $83 #
coedge $-1 $211 $211 $212 $338 reversed $131 $-1 #
coedge $-1 $212 $212 $211 $338 forward $133 $-1 #
coedge $-1 $213 $213 $134 $214 forward $208 $-1 #
edge $-1 $339 0 $339 6.2831853071796004 $213 $340 forward 7 unknown #
face $-1 $341 $342 $46 $-1 $343 forward single #
loop $-1 $-1 $344 $135 #
plane-surface $-1 -155.95817709451902 5.1897280023702574 89.338216575228373 0 -1 0 0.75470958851134928 0 -0.65605901945558964 forward_v I I I I #
coedge $-1 $345 $346 $347 $348 reversed $136 $-1 #
coedge $-1 $220 $138 $349 $350 reversed $87 $-1 #
coedge $-1 $138 $219 $345 $351 reversed $87 $-1 #
coedge $-1 $347 $352 $138 $222 forward $342 $-1 #
edge $-1 $353 15.829975109959783 $354 21.010407731812364 $221 $355 forward 7 unknown #
loop $-1 $-1 $228 $139 #
plane-surface $-1 -62.149113437299718 -0.410727344666455 7.7912437318102263 -0.75470958851134928 0 0.65605901945558964 0.65605901945558964 0 0.75470958851134928 forward_v I I I I #
loop $-1 $-1 $356 $89 #
coedge $-1 $226 $226 $227 $357 reversed $140 $-1 #
coedge $-1 $227 $227 $226 $357 forward $142 $-1 #
coedge $-1 $228 $228 $143 $229 forward $223 $-1 #
edge $-1 $358 0 $358 6.2831853071796004 $228 $359 forward 7 unknown #
face $-1 $360 $361 $48 $-1 $362 forward single #
loop $-1 $-1 $363 $144 #
plane-surface $-1 -155.95817709451902 21.089628288666617 89.338216575228373 0 -1 0 0.75470958851134928 0 -0.65605901945558964 forward_v I I I I #
coedge $-1 $364 $365 $366 $367 reversed $145 $-1 #
coedge $-1 $235 $147 $368 $369 reversed $93 $-1 #
coedge $-1 $147 $234 $364 $370 reversed $93 $-1 #
coedge $-1 $366 $371 $147 $237 forward $361 $-1 #
edge $-1 $372 15.829975109959783 $373 21.010407731812364 $236 $374 forward 7 unknown #
loop $-1 $-1 $243 $148 #
plane-surface $-1 -62.149113437299718 15.489172941629903 7.7912437318102263 -0.75470958851134928 0 0.65605901945558964 0.65605901945558964 0 0.75470958851134928 forward_v I I I I #
loop $-1 $-1 $375 $95 #
coedge $-1 $241 $241 $242 $376 reversed $149 $-1 #
coedge $-1 $242 $242 $241 $376 forward $151 $-1 #
coedge $-1 $243 $243 $152 $244 forward $238 $-1 #
edge $-1 $377 0 $377 6.2831853071796004 $243 $378 forward 7 unknown #
face $-1 $379 $380 $50 $-1 $381 forward single #
loop $-1 $-1 $382 $153 #
plane-surface $-1 -155.95817709451902 36.989528574962968 89.338216575228373 0 -1 0 0.75470958851134928 0 -0.65605901945558964 forward_v I I I I #
coedge $-1 $383 $384 $385 $386 reversed $154 $-1 #
coedge $-1 $250 $156 $387 $388 reversed $99 $-1 #
coedge $-1 $156 $249 $383 $389 reversed $99 $-1 #
coedge $-1 $385 $390 $156 $252 forward $380 $-1 #
edge $-1 $391 15.829975109959783 $392 21.010407731812364 $251 $393 forward 7 unknown #
loop $-1 $-1 $258 $157 #
plane-surface $-1 -62.149113437299718 31.389073227926254 7.7912437318102263 -0.75470958851134928 0 0.65605901945558964 0.65605901945558964 0 0.75470958851134928 forward_v I I I I #
loop $-1 $-1 $394 $101 #
coedge $-1 $256 $256 $257 $395 reversed $158 $-1 #
coedge $-1 $257 $257 $256 $395 forward $160 $-1 #
coedge $-1 $258 $258 $161 $259 forward $253 $-1 #
edge $-1 $396 0 $396 6.2831853071796004 $258 $397 forward 7 unknown #
face $-1 $398 $399 $39 $-1 $400 reversed single #
loop $-1 $-1 $401 $162 #
plane-surface $-1 -62.149113437299725 0 0 1 0 0 0 0 -1 forward_v I I I I #
coedge $-1 $402 $271 $403 $404 forward $163 $-1 #
coedge $-1 $405 $165 $402 $406 forward $105 $-1 #
coedge $-1 $165 $405 $407 $408 forward $105 $-1 #
coedge $-1 $274 $273 $165 $267 reversed $275 $-1 #
edge $-1 $409 -39.831992143397336 $410 39.831992143397336 $266 $411 forward 7 unknown #
coedge $-1 $167 $166 $412 $413 forward $66 $-1 #
coedge $-1 $414 $415 $166 $270 reversed $399 $-1 #
edge $-1 $277 -62.149113437299725 $416 62.149113437299725 $269 $417 forward 7 unknown #
coedge $-1 $263 $418 $167 $272 reversed $163 $-1 #
edge $-1 $419 -62.149113437299725 $276 62.149113437299725 $271 $420 forward 7 unknown #
coedge $-1 $266 $168 $418 $421 forward $275 $-1 #
coedge $-1 $168 $266 $414 $422 reversed $275 $-1 #
loop $-1 $-1 $273 $398 #
vertex $-1 $169 $423 #
vertex $-1 $169 $424 #
straight-curve $-1 62.149113437299725 0 13.750649907787336 0 1 0 I I #
face $-1 $425 $426 $40 $-1 $427 reversed single #
loop $-1 $-1 $428 $170 #
plane-surface $-1 -62.149113437299725 0 0 1 0 0 0 0 -1 forward_v I I I I #
coedge $-1 $429 $288 $293 $430 reversed $171 $-1 #
coedge $-1 $431 $173 $432 $433 reversed $109 $-1 #
coedge $-1 $173 $431 $429 $434 forward $109 $-1 #
coedge $-1 $293 $292 $173 $286 forward $294 $-1 #
edge $-1 $435 -23.68560747093953 $436 -8.6071618739760822 $285 $437 forward 7 unknown #
coedge $-1 $175 $174 $428 $438 reversed $69 $-1 #
coedge $-1 $282 $439 $174 $289 reversed $171 $-1 #
edge $-1 $295 -62.149113437299725 $440 62.149113437299725 $288 $441 forward 7 unknown #
coedge $-1 $442 $443 $175 $291 forward $426 $-1 #
edge $-1 $296 -62.149113437299725 $444 62.149113437299725 $290 $445 forward 7 unknown #
coedge $-1 $285 $176 $443 $446 forward $294 $-1 #
coedge $-1 $176 $285 $282 $430 forward $294 $-1 #
loop $-1 $-1 $176 $425 #
vertex $-1 $177 $447 #
vertex $-1 $446 $448 #
straight-curve $-1 62.149113437299725 -16.146384672457806 6.8568749305086198 0 -1 0 I I #
face $-1 $-1 $449 $41 $-1 $450 reversed single #
loop $-1 $-1 $184 $178 #
plane-surface $-1 62.149113437299725 0 0 -1 0 0 0 0 1 forward_v I I I I #
coedge $-1 $306 $451 $452 $453 forward $179 $-1 #
coedge $-1 $452 $181 $183 $308 forward $113 $-1 #
coedge $-1 $181 $452 $454 $455 reversed $113 $-1 #
coedge $-1 $456 $184 $181 $305 forward $299 $-1 #
edge $-1 $311 5.7919624638556932 $457 24.624007274312998 $304 $458 forward 7 unknown #
coedge $-1 $459 $301 $182 $307 forward $179 $-1 #
edge $-1 $460 0.85211955380296445 $310 8.3264010645507724 $306 $461 forward 7 unknown #
edge $-1 $311 -124.29822687459949 $460 -109.34966345255793 $183 $462 forward 7 unknown #
coedge $-1 $184 $456 $459 $463 reversed $299 $-1 #
vertex $-1 $463 $464 #
vertex $-1 $185 $465 #
straight-curve $-1 62.149113437299725 20.999947332940039 85.29967448541116 0 0 -1 I I #
coedge $-1 $313 $313 $-1 $466 reversed $188 $-1 #
edge $-1 $467 0 $467 6.2831853071796004 $189 $468 forward 7 unknown #
vertex $-1 $192 $469 #
ellipse-curve $-1 58.41197268192581 26.380531564499258 7.2777320131881114 0.86602541151947299 0 0.49999998660252726 1.2499999665063182 0 -2.1650635287986826 1 I I #
coedge $-1 $317 $317 $-1 $470 reversed $195 $-1 #
edge $-1 $471 0 $471 6.2831853071796004 $196 $472 forward 7 unknown #
vertex $-1 $199 $473 #
ellipse-curve $-1 58.41197268192581 34.451407911838096 7.2777320131881114 0.86602541151947299 0 0.49999998660252726 1.2499999665063182 0 -2.1650635287986826 1 I I #
face $-1 $-1 $333 $44 $-1 $474 forward single #
loop $-1 $-1 $475 $200 #
plane-surface $-1 -62.149113437299725 0 0 1 0 0 0 0 -1 forward_v I I I I #
coedge $-1 $476 $477 $478 $479 reversed $201 $-1 #
coedge $-1 $480 $203 $205 $331 forward $127 $-1 #
coedge $-1 $203 $480 $476 $481 forward $127 $-1 #
coedge $-1 $478 $206 $203 $328 forward $333 $-1 #
edge $-1 $335 -13.755769162518121 $482 -2.554858468444694 $327 $483 forward 7 unknown #
coedge $-1 $484 $485 $204 $330 forward $322 $-1 #
edge $-1 $486 -36.877864555803967 $334 -30.918458379826852 $329 $487 forward 7 unknown #
edge $-1 $335 -7.8962905290920302 $486 1.0694430631949516e-014 $205 $488 forward 7 unknown #
coedge $-1 $206 $478 $484 $489 forward $333 $-1 #
loop $-1 $-1 $478 $321 #
vertex $-1 $330 $490 #
vertex $-1 $207 $491 #
straight-curve $-1 -77.979088547259508 -21.911082977999527 13.750649907787334 1 0 0 I I #
coedge $-1 $337 $337 $-1 $492 reversed $210 $-1 #
edge $-1 $493 0 $493 6.2831853071796004 $211 $494 forward 7 unknown #
vertex $-1 $214 $495 #
ellipse-curve $-1 -59.558897126373431 -16.310627630962813 10.770946819798779 -0.75470958851134928 0 0.65605901945558964 0.65605901945558964 0 0.75470958851134928 1 I I #
face $-1 $-1 $496 $46 $-1 $497 reversed single #
loop $-1 $-1 $221 $215 #
plane-surface $-1 0 0 13.750649907787336 0 0 1 1 0 0 forward_v I I I I #
coedge $-1 $498 $499 $500 $501 reversed $216 $-1 #
coedge $-1 $502 $218 $220 $351 forward $136 $-1 #
coedge $-1 $218 $502 $498 $503 forward $136 $-1 #
coedge $-1 $500 $221 $218 $348 forward $342 $-1 #
edge $-1 $354 -5.8058190193699399 $504 5.3950916747034849 $347 $505 forward 7 unknown #
coedge $-1 $506 $507 $219 $350 forward $496 $-1 #
edge $-1 $508 -36.877864555803967 $353 -30.918458379826852 $349 $509 forward 7 unknown #
edge $-1 $354 -7.8962905290920302 $508 1.0694430631949516e-014 $220 $510 forward 7 unknown #
coedge $-1 $221 $500 $506 $511 forward $342 $-1 #
vertex $-1 $222 $512 #
vertex $-1 $222 $513 #
straight-curve $-1 -77.979088547259508 -6.0111826917031674 13.750649907787334 1 0 0 I I #
coedge $-1 $356 $356 $-1 $514 reversed $225 $-1 #
edge $-1 $515 0 $515 6.2831853071796004 $226 $516 forward 7 unknown #
vertex $-1 $229 $517 #
ellipse-curve $-1 -59.558897126373431 -0.410727344666455 10.770946819798779 -0.75470958851134928 0 0.65605901945558964 0.65605901945558964 0 0.75470958851134928 1 I I #
face $-1 $-1 $518 $48 $-1 $519 reversed single #
loop $-1 $-1 $236 $230 #
plane-surface $-1 0 0 13.750649907787336 0 0 1 1 0 0 forward_v I I I I #
coedge $-1 $520 $521 $522 $523 reversed $231 $-1 #
coedge $-1 $524 $233 $235 $370 forward $145 $-1 #
coedge $-1 $233 $524 $520 $525 forward $145 $-1 #
coedge $-1 $522 $236 $233 $367 forward $361 $-1 #
edge $-1 $373 2.144131123778239 $526 13.345041817851666 $366 $527 forward 7 unknown #
coedge $-1 $528 $529 $234 $369 forward $518 $-1 #
edge $-1 $530 -36.877864555803967 $372 -30.918458379826852 $368 $531 forward 7 unknown #
edge $-1 $373 -7.8962905290920302 $530 1.0694430631949516e-014 $235 $532 forward 7 unknown #
coedge $-1 $236 $522 $528 $533 forward $361 $-1 #
vertex $-1 $237 $534 #
vertex $-1 $237 $535 #
straight-curve $-1 -77.979088547259508 9.8887175945931904 13.750649907787334 1 0 0 I I #
coedge $-1 $375 $375 $-1 $536 reversed $240 $-1 #
edge $-1 $537 0 $537 6.2831853071796004 $241 $538 forward 7 unknown #
vertex $-1 $244 $539 #
ellipse-curve $-1 -59.558897126373431 15.489172941629903 10.770946819798779 -0.75470958851134928 0 0.65605901945558964 0.65605901945558964 0 0.75470958851134928 1 I I #
face $-1 $-1 $540 $50 $-1 $541 reversed single #
loop $-1 $-1 $251 $245 #
plane-surface $-1 0 0 13.750649907787336 0 0 1 1 0 0 forward_v I I I I #
coedge $-1 $542 $543 $544 $545 reversed $246 $-1 #
coedge $-1 $546 $248 $250 $389 forward $154 $-1 #
coedge $-1 $248 $546 $542 $547 forward $154 $-1 #
coedge $-1 $544 $251 $248 $386 forward $380 $-1 #
edge $-1 $392 10.094081266926413 $548 21.294991960999841 $385 $549 forward 7 unknown #
coedge $-1 $550 $551 $249 $388 forward $540 $-1 #
edge $-1 $552 -36.877864555803967 $391 -30.918458379826852 $387 $553 forward 7 unknown #
edge $-1 $392 -7.8962905290920302 $552 1.0694430631949516e-014 $250 $554 forward 7 unknown #
coedge $-1 $251 $544 $550 $555 forward $380 $-1 #
vertex $-1 $252 $556 #
vertex $-1 $252 $557 #
straight-curve $-1 -77.979088547259508 25.788617880889539 13.750649907787334 1 0 0 I I #
coedge $-1 $394 $394 $-1 $558 reversed $255 $-1 #
edge $-1 $559 0 $559 6.2831853071796004 $256 $560 forward 7 unknown #
vertex $-1 $259 $561 #
ellipse-curve $-1 -59.558897126373431 31.389073227926254 10.770946819798779 -0.75470958851134928 0 0.65605901945558964 0.65605901945558964 0 0.75470958851134928 1 I I #
face $-1 $-1 $275 $39 $-1 $562 reversed single #
loop $-1 $-1 $414 $260 #
plane-surface $-1 0 39.831992143397336 0 0 -1 0 0 0 -1 forward_v I I I I #
coedge $-1 $563 $412 $415 $564 forward $261 $-1 #
coedge $-1 $418 $263 $264 $406 reversed $163 $-1 #
coedge $-1 $412 $563 $263 $404 reversed $261 $-1 #
edge $-1 $419 -13.750649907787336 $565 13.750649907787336 $403 $566 forward 7 unknown #
coedge $-1 $265 $264 $563 $567 forward $105 $-1 #
edge $-1 $410 -62.149113437299725 $565 62.149113437299725 $402 $568 forward 7 unknown #
coedge $-1 $415 $414 $265 $408 reversed $399 $-1 #
edge $-1 $569 -62.149113437299725 $409 62.149113437299725 $407 $570 forward 7 unknown #
vertex $-1 $267 $571 #
vertex $-1 $421 $572 #
straight-curve $-1 62.149113437299725 0 -13.750649907787336 0 -1 0 I I #
coedge $-1 $401 $403 $268 $413 reversed $261 $-1 #
edge $-1 $416 -39.831992143397336 $419 39.831992143397336 $412 $573 forward 7 unknown #
coedge $-1 $407 $269 $274 $422 forward $399 $-1 #
coedge $-1 $269 $407 $401 $564 reversed $399 $-1 #
vertex $-1 $270 $574 #
straight-curve $-1 0 39.831992143397336 13.750649907787336 -1 0 0 I I #
coedge $-1 $271 $402 $273 $421 reversed $163 $-1 #
vertex $-1 $413 $575 #
straight-curve $-1 0 -39.831992143397336 13.750649907787336 1 0 0 I I #
edge $-1 $276 -13.750649907787336 $410 13.750649907787336 $273 $576 forward 7 unknown #
edge $-1 $277 -13.750649907787336 $409 13.750649907787336 $274 $577 forward 7 unknown #
point $-1 62.149113437299725 -39.831992143397336 13.750649907787336 #
point $-1 62.149113437299725 39.831992143397336 13.750649907787336 #
face $-1 $-1 $294 $40 $-1 $578 reversed single #
loop $-1 $-1 $290 $279 #
plane-surface $-1 0 -39.831992143397336 0 0 1 0 0 0 1 forward_v I I I I #
coedge $-1 $579 $580 $287 $438 forward $280 $-1 #
coedge $-1 $439 $282 $284 $434 reversed $171 $-1 #
edge $-1 $436 -0.57017028381811841 $295 4.7613067149451194 $293 $581 forward 7 unknown #
coedge $-1 $284 $283 $582 $583 reversed $109 $-1 #
coedge $-1 $443 $442 $283 $433 forward $426 $-1 #
edge $-1 $584 -62.149113437299725 $435 62.149113437299725 $432 $585 forward 7 unknown #
edge $-1 $586 -62.149113437299725 $436 62.149113437299725 $429 $587 forward 7 unknown #
vertex $-1 $433 $588 #
vertex $-1 $286 $589 #
straight-curve $-1 62.149113437299725 -16.146384672457806 1.5253979317453821 0 1 0 I I #
edge $-1 $444 -23.68560747093953 $440 -8.6071618739760822 $428 $590 forward 7 unknown #
coedge $-1 $288 $429 $579 $591 reversed $171 $-1 #
vertex $-1 $438 $592 #
straight-curve $-1 0 -24.753546546433888 6.8568749305086198 -1 0 0 I I #
coedge $-1 $432 $290 $580 $593 forward $426 $-1 #
coedge $-1 $290 $432 $292 $446 reversed $426 $-1 #
vertex $-1 $593 $594 #
straight-curve $-1 0 -39.831992143397336 6.8568749305086198 -1 0 0 I I #
edge $-1 $296 -6.8568749305086198 $435 -1.5253979317453821 $292 $595 forward 7 unknown #
point $-1 62.149113437299725 -24.753546546433888 6.8568749305086198 #
point $-1 62.149113437299725 -39.831992143397336 6.8568749305086198 #
loop $-1 $-1 $454 $298 #
plane-surface $-1 0 39.831992143397336 0 0 -1 0 0 0 -1 forward_v I I I I #
coedge $-1 $301 $459 $596 $597 forward $179 $-1 #
coedge $-1 $303 $302 $301 $453 reversed $113 $-1 #
edge $-1 $598 -24.624007274312998 $460 -5.7919624638556932 $301 $599 forward 7 unknown #
coedge $-1 $596 $600 $303 $455 forward $449 $-1 #
edge $-1 $457 -77.33789664118035 $598 -62.389333219138791 $454 $601 forward 7 unknown #
coedge $-1 $309 $304 $600 $602 reversed $299 $-1 #
vertex $-1 $455 $603 #
straight-curve $-1 62.149113437299725 15.207984869084346 0.80481411858885821 0 1 0 I I #
coedge $-1 $451 $306 $309 $463 forward $179 $-1 #
vertex $-1 $307 $604 #
straight-curve $-1 53.822712372748953 20.999947332940039 13.750649907787334 1 0 0 I I #
straight-curve $-1 1.665282084672981e-006 20.999947332940039 108.4502371988047 -0.49999998660252726 0 0.86602541151947299 I I #
edge $-1 $310 20.999947332940039 $605 39.831992143397336 $309 $606 forward 7 unknown #
point $-1 62.149113437299725 20.999947332940039 13.750649907787336 #
point $-1 62.149113437299725 20.999947332940039 0.8048141185888511 #
edge $-1 $607 1 $607 0 $313 $-1 forward 7 unknown #
vertex $-1 $314 $608 #
ellipse-curve $-1 49.801076227060463 26.380531564499258 2.3062288046224881 0.86602541151947299 0 0.49999998660252726 1.2499999665063182 0 -2.1650635287986826 1 I I #
point $-1 59.661972648432133 26.380531564499258 5.112668484389431 #
edge $-1 $609 1 $609 0 $317 $-1 forward 7 unknown #
vertex $-1 $318 $610 #
ellipse-curve $-1 49.801076227060463 34.451407911838096 2.3062288046224881 0.86602541151947299 0 0.49999998660252726 1.2499999665063182 0 -2.1650635287986826 1 I I #
point $-1 59.661972648432133 34.451407911838096 5.112668484389431 #
plane-surface $-1 0 0 13.750649907787336 0 0 1 1 0 0 forward_v I I I I #
coedge $-1 $485 $484 $477 $611 forward $322 $-1 #
coedge $-1 $477 $324 $326 $481 reversed $201 $-1 #
coedge $-1 $324 $476 $475 $611 reversed $201 $-1 #
coedge $-1 $332 $327 $324 $479 forward $333 $-1 #
edge $-1 $482 -21.010407731812364 $612 -15.829975109959783 $478 $613 forward 7 unknown #
coedge $-1 $326 $325 $485 $614 reversed $127 $-1 #
edge $-1 $615 -1.0694430631949516e-014 $482 7.8962905290920302 $476 $616 forward 7 unknown #
vertex $-1 $328 $617 #
straight-curve $-1 -56.968680815447144 -8.1553138154814064 13.750649907787336 0 1 0 I I #
coedge $-1 $475 $329 $332 $489 reversed $322 $-1 #
coedge $-1 $329 $475 $480 $614 forward $322 $-1 #
vertex $-1 $330 $618 #
straight-curve $-1 -62.149113437299725 -21.911082977999527 44.669108287614186 0 0 1 I I #
straight-curve $-1 -62.149113437299718 -21.911082977999527 7.7912437318102263 -0.65605901945558964 0 -0.75470958851134928 I I #
edge $-1 $612 10.7101722839261 $334 21.911082977999527 $484 $619 forward 7 unknown #
point $-1 -62.149113437299725 -21.911082977999527 13.750649907787336 #
point $-1 -56.968680815447144 -21.911082977999527 13.750649907787336 #
edge $-1 $620 1 $620 0 $337 $-1 forward 7 unknown #
vertex $-1 $338 $621 #
ellipse-curve $-1 -58.727558038641 -16.310627630962813 10.048274794644511 -0.75470958851134928 0 0.65605901945558964 0.65605901945558964 0 0.75470958851134928 1 I I #
point $-1 -58.902838106917848 -16.310627630962813 11.525656408310134 #
loop $-1 $-1 $349 $341 #
plane-surface $-1 -62.149113437299725 0 0 1 0 0 0 0 -1 forward_v I I I I #
coedge $-1 $499 $344 $346 $503 reversed $216 $-1 #
coedge $-1 $344 $498 $622 $623 reversed $216 $-1 #
coedge $-1 $352 $347 $344 $501 forward $342 $-1 #
edge $-1 $504 -21.010407731812364 $624 -15.829975109959783 $500 $625 forward 7 unknown #
coedge $-1 $346 $345 $507 $626 reversed $136 $-1 #
edge $-1 $627 -1.0694430631949516e-014 $504 7.8962905290920302 $498 $628 forward 7 unknown #
vertex $-1 $348 $629 #
straight-curve $-1 -56.968680815447144 -0.2053636723332275 13.750649907787336 0 1 0 I I #
coedge $-1 $622 $349 $352 $511 reversed $496 $-1 #
coedge $-1 $349 $622 $502 $626 forward $496 $-1 #
vertex $-1 $350 $630 #
straight-curve $-1 -62.149113437299725 -6.0111826917031674 44.669108287614186 0 0 1 I I #
straight-curve $-1 -62.149113437299718 -6.0111826917031674 7.7912437318102263 -0.65605901945558964 0 -0.75470958851134928 I I #
edge $-1 $624 -5.1897280023702574 $353 6.0111826917031674 $506 $631 forward 7 unknown #
point $-1 -62.149113437299725 -6.0111826917031674 13.750649907787336 #
point $-1 -56.968680815447144 -6.0111826917031674 13.750649907787336 #
edge $-1 $632 1 $632 0 $356 $-1 forward 7 unknown #
vertex $-1 $357 $633 #
ellipse-curve $-1 -58.727558038641 -0.410727344666455 10.048274794644511 -0.75470958851134928 0 0.65605901945558964 0.65605901945558964 0 0.75470958851134928 1 I I #
point $-1 -58.902838106917848 -0.410727344666455 11.525656408310134 #
loop $-1 $-1 $368 $360 #
plane-surface $-1 -62.149113437299725 0 0 1 0 0 0 0 -1 forward_v I I I I #
coedge $-1 $521 $363 $365 $525 reversed $231 $-1 #
coedge $-1 $363 $520 $634 $635 reversed $231 $-1 #
coedge $-1 $371 $366 $363 $523 forward $361 $-1 #
edge $-1 $526 -21.010407731812364 $636 -15.829975109959783 $522 $637 forward 7 unknown #
coedge $-1 $365 $364 $529 $638 reversed $145 $-1 #
edge $-1 $639 -1.0694430631949516e-014 $526 7.8962905290920302 $520 $640 forward 7 unknown #
vertex $-1 $367 $641 #
straight-curve $-1 -56.968680815447144 7.7445864708149514 13.750649907787336 0 1 0 I I #
coedge $-1 $634 $368 $371 $533 reversed $518 $-1 #
coedge $-1 $368 $634 $524 $638 forward $518 $-1 #
vertex $-1 $369 $642 #
straight-curve $-1 -62.149113437299725 9.8887175945931904 44.669108287614186 0 0 1 I I #
straight-curve $-1 -62.149113437299718 9.8887175945931904 7.7912437318102263 -0.65605901945558964 0 -0.75470958851134928 I I #
edge $-1 $636 -21.089628288666617 $372 -9.8887175945931904 $528 $643 forward 7 unknown #
point $-1 -62.149113437299725 9.8887175945931904 13.750649907787336 #
point $-1 -56.968680815447144 9.8887175945931904 13.750649907787336 #
edge $-1 $644 1 $644 0 $375 $-1 forward 7 unknown #
vertex $-1 $376 $645 #
ellipse-curve $-1 -58.727558038641 15.489172941629903 10.048274794644511 -0.75470958851134928 0 0.65605901945558964 0.65605901945558964 0 0.75470958851134928 1 I I #
point $-1 -58.902838106917848 15.489172941629903 11.525656408310134 #
loop $-1 $-1 $387 $379 #
plane-surface $-1 -62.149113437299725 0 0 1 0 0 0 0 -1 forward_v I I I I #
coedge $-1 $543 $382 $384 $547 reversed $246 $-1 #
coedge $-1 $382 $542 $646 $647 reversed $246 $-1 #
coedge $-1 $390 $385 $382 $545 forward $380 $-1 #
edge $-1 $548 -21.010407731812364 $648 -15.829975109959783 $544 $649 forward 7 unknown #
coedge $-1 $384 $383 $551 $650 reversed $154 $-1 #
edge $-1 $651 -1.0694430631949516e-014 $548 7.8962905290920302 $542 $652 forward 7 unknown #
vertex $-1 $386 $653 #
straight-curve $-1 -56.968680815447144 15.694536613963127 13.750649907787336 0 1 0 I I #
coedge $-1 $646 $387 $390 $555 reversed $540 $-1 #
coedge $-1 $387 $646 $546 $650 forward $540 $-1 #
vertex $-1 $388 $654 #
straight-curve $-1 -62.149113437299725 25.788617880889539 44.669108287614186 0 0 1 I I #
straight-curve $-1 -62.149113437299718 25.788617880889539 7.7912437318102263 -0.65605901945558964 0 -0.75470958851134928 I I #
edge $-1 $648 -36.989528574962968 $391 -25.788617880889539 $550 $655 forward 7 unknown #
point $-1 -62.149113437299725 25.788617880889539 13.750649907787336 #
point $-1 -56.968680815447144 25.788617880889539 13.750649907787336 #
edge $-1 $656 1 $656 0 $394 $-1 forward 7 unknown #
vertex $-1 $395 $657 #
ellipse-curve $-1 -58.727558038641 31.389073227926254 10.048274794644511 -0.75470958851134928 0 0.65605901945558964 0.65605901945558964 0 0.75470958851134928 1 I I #
point $-1 -58.902838106917848 31.389073227926254 11.525656408310134 #
plane-surface $-1 62.149113437299725 0 0 -1 0 0 0 0 1 forward_v I I I I #
coedge $-1 $403 $401 $405 $567 reversed $261 $-1 #
edge $-1 $416 -13.750649907787336 $569 13.750649907787336 $415 $658 forward 7 unknown #
vertex $-1 $567 $659 #
straight-curve $-1 -62.149113437299725 -39.831992143397336 0 0 0 -1 I I #
edge $-1 $565 -39.831992143397336 $569 39.831992143397336 $563 $660 forward 7 unknown #
straight-curve $-1 0 -39.831992143397336 -13.750649907787336 -1 0 0 I I #
vertex $-1 $408 $661 #
straight-curve $-1 0 39.831992143397336 -13.750649907787336 1 0 0 I I #
point $-1 62.149113437299725 39.831992143397336 -13.750649907787336 #
point $-1 62.149113437299725 -39.831992143397336 -13.750649907787336 #
straight-curve $-1 -62.149113437299725 0 13.750649907787336 0 -1 0 I I #
point $-1 -62.149113437299725 39.831992143397336 13.750649907787336 #
point $-1 -62.149113437299725 -39.831992143397336 13.750649907787336 #
straight-curve $-1 62.149113437299725 -39.831992143397336 0 0 0 -1 I I #
straight-curve $-1 62.149113437299725 39.831992143397336 0 0 0 -1 I I #
plane-surface $-1 62.149113437299725 0 0 -1 0 0 0 0 1 forward_v I I I I #
coedge $-1 $582 $428 $439 $591 forward $280 $-1 #
coedge $-1 $428 $582 $442 $593 reversed $280 $-1 #
straight-curve $-1 62.149113437299725 -24.753546546433888 2.0955682155635005 0 0 1 I I #
coedge $-1 $580 $579 $431 $583 forward $280 $-1 #
edge $-1 $586 8.6071618739760822 $584 23.68560747093953 $582 $662 forward 7 unknown #
vertex $-1 $433 $663 #
straight-curve $-1 0 -39.831992143397336 1.5253979317453821 1 0 0 I I #
vertex $-1 $583 $664 #
straight-curve $-1 0 -24.753546546433888 1.5253979317453821 1 0 0 I I #
point $-1 62.149113437299725 -39.831992143397336 1.5253979317453821 #
point $-1 62.149113437299725 -24.753546546433888 1.5253979317453821 #
straight-curve $-1 -62.149113437299725 -16.146384672457806 6.8568749305086198 0 1 0 I I #
edge $-1 $440 -4.7613067149451194 $586 0.57017028381811841 $579 $665 forward 7 unknown #
point $-1 -62.149113437299725 -24.753546546433888 6.8568749305086198 #
edge $-1 $444 -6.8568749305086198 $584 -1.5253979317453821 $580 $666 forward 7 unknown #
point $-1 -62.149113437299725 -39.831992143397336 6.8568749305086198 #
straight-curve $-1 62.149113437299725 -39.831992143397336 0 0 0 -1 I I #
coedge $-1 $600 $454 $451 $597 reversed $449 $-1 #
edge $-1 $605 -62.149113437299725 $598 -54.674831926551917 $596 $667 forward 7 unknown #
vertex $-1 $455 $668 #
straight-curve $-1 54.674831926551917 15.207984869084346 13.750649907787334 0 -1 0 I I #
coedge $-1 $454 $596 $456 $602 forward $449 $-1 #
straight-curve $-1 23.48016615284191 39.831992143397336 67.781397883317538 -0.49999998660252726 0 0.86602541151947299 I I #
edge $-1 $605 -13.750649907787336 $457 -0.8048141185888511 $456 $669 forward 7 unknown #
point $-1 62.149113437299725 39.831992143397343 0.8048141185888511 #
point $-1 54.674831926551917 20.999947332940039 13.750649907787334 #
vertex $-1 $463 $670 #
straight-curve $-1 62.149113437299725 0 13.750649907787336 0 1 0 I I #
vertex $-1 $466 $671 #
point $-1 51.051076193566779 26.380531564499258 0.14116527582380556 #
vertex $-1 $470 $672 #
point $-1 51.051076193566779 34.451407911838096 0.14116527582380556 #
edge $-1 $612 30.918458379826852 $615 36.877864555803967 $475 $673 forward 7 unknown #
vertex $-1 $489 $674 #
straight-curve $-1 -77.979088547259508 -10.7101722839261 13.750649907787334 -1 0 0 I I #
edge $-1 $615 2.554858468444694 $486 13.755769162518121 $485 $675 forward 7 unknown #
vertex $-1 $614 $676 #
straight-curve $-1 -62.149113437299718 -10.7101722839261 7.7912437318102263 0.65605901945558964 0 0.75470958851134928 I I #
point $-1 -56.968680815447144 -10.7101722839261 13.750649907787336 #
point $-1 -62.149113437299725 -21.911082977999527 7.7912437318102183 #
straight-curve $-1 -62.149113437299725 0 13.750649907787336 0 -1 0 I I #
vertex $-1 $492 $677 #
point $-1 -58.07149901918541 -16.310627630962813 10.802984383155859 #
coedge $-1 $507 $506 $499 $623 forward $496 $-1 #
edge $-1 $624 30.918458379826852 $627 36.877864555803967 $622 $678 forward 7 unknown #
vertex $-1 $511 $679 #
straight-curve $-1 -77.979088547259508 5.1897280023702574 13.750649907787334 -1 0 0 I I #
edge $-1 $627 -5.3950916747034849 $508 5.8058190193699399 $507 $680 forward 7 unknown #
vertex $-1 $626 $681 #
straight-curve $-1 -62.149113437299718 5.1897280023702574 7.7912437318102263 0.65605901945558964 0 0.75470958851134928 I I #
point $-1 -56.968680815447144 5.1897280023702574 13.750649907787336 #
point $-1 -62.149113437299725 -6.0111826917031674 7.7912437318102183 #
straight-curve $-1 -62.149113437299725 0 13.750649907787336 0 -1 0 I I #
vertex $-1 $514 $682 #
point $-1 -58.07149901918541 -0.410727344666455 10.802984383155859 #
coedge $-1 $529 $528 $521 $635 forward $518 $-1 #
edge $-1 $636 30.918458379826852 $639 36.877864555803967 $634 $683 forward 7 unknown #
vertex $-1 $533 $684 #
straight-curve $-1 -77.979088547259508 21.089628288666617 13.750649907787334 -1 0 0 I I #
edge $-1 $639 -13.345041817851666 $530 -2.144131123778239 $529 $685 forward 7 unknown #
vertex $-1 $638 $686 #
straight-curve $-1 -62.149113437299718 21.089628288666617 7.7912437318102263 0.65605901945558964 0 0.75470958851134928 I I #
point $-1 -56.968680815447144 21.089628288666617 13.750649907787336 #
point $-1 -62.149113437299725 9.8887175945931904 7.7912437318102183 #
straight-curve $-1 -62.149113437299725 0 13.750649907787336 0 -1 0 I I #
vertex $-1 $536 $687 #
point $-1 -58.07149901918541 15.489172941629903 10.802984383155859 #
coedge $-1 $551 $550 $543 $647 forward $540 $-1 #
edge $-1 $648 30.918458379826852 $651 36.877864555803967 $646 $688 forward 7 unknown #
vertex $-1 $555 $689 #
straight-curve $-1 -77.979088547259508 36.989528574962968 13.750649907787334 -1 0 0 I I #
edge $-1 $651 -21.294991960999841 $552 -10.094081266926413 $551 $690 forward 7 unknown #
vertex $-1 $650 $691 #
straight-curve $-1 -62.149113437299718 36.989528574962968 7.7912437318102263 0.65605901945558964 0 0.75470958851134928 I I #
point $-1 -56.968680815447144 36.989528574962968 13.750649907787336 #
point $-1 -62.149113437299725 25.788617880889539 7.7912437318102183 #
straight-curve $-1 -62.149113437299725 0 13.750649907787336 0 -1 0 I I #
vertex $-1 $558 $692 #
point $-1 -58.07149901918541 31.389073227926254 10.802984383155859 #
straight-curve $-1 -62.149113437299725 39.831992143397336 0 0 0 -1 I I #
point $-1 -62.149113437299725 -39.831992143397336 -13.750649907787336 #
straight-curve $-1 -62.149113437299725 0 -13.750649907787336 0 1 0 I I #
point $-1 -62.149113437299725 39.831992143397336 -13.750649907787336 #
straight-curve $-1 -62.149113437299725 -16.146384672457806 1.5253979317453821 0 -1 0 I I #
point $-1 -62.149113437299725 -39.831992143397336 1.5253979317453821 #
point $-1 -62.149113437299725 -24.753546546433888 1.5253979317453821 #
straight-curve $-1 -62.149113437299725 -24.753546546433888 2.0955682155635005 0 0 -1 I I #
straight-curve $-1 -62.149113437299725 -39.831992143397336 0 0 0 -1 I I #
straight-curve $-1 0 39.831992143397336 13.750649907787336 -1 0 0 I I #
point $-1 54.674831926551917 39.831992143397343 13.750649907787334 #
straight-curve $-1 62.149113437299725 39.831992143397336 0 0 0 -1 I I #
point $-1 62.149113437299725 39.831992143397336 13.750649907787336 #
point $-1 47.63601269826178 26.380531564499258 1.0562288381161697 #
point $-1 47.63601269826178 34.451407911838096 1.0562288381161697 #
straight-curve $-1 -62.149113437299725 -10.7101722839261 44.669108287614186 0 0 -1 I I #
point $-1 -62.149113437299725 -10.7101722839261 13.750649907787336 #
straight-curve $-1 -62.149113437299725 -8.1553138154814064 7.7912437318102068 0 -1 0 I I #
point $-1 -62.149113437299725 -10.7101722839261 7.7912437318102183 #
point $-1 -57.972848450129653 -16.310627630962813 9.3922157751889213 #
straight-curve $-1 -62.149113437299725 5.1897280023702574 44.669108287614186 0 0 -1 I I #
point $-1 -62.149113437299725 5.1897280023702574 13.750649907787336 #
straight-curve $-1 -62.149113437299725 -0.2053636723332275 7.7912437318102068 0 -1 0 I I #
point $-1 -62.149113437299725 5.1897280023702574 7.7912437318102183 #
point $-1 -57.972848450129653 -0.410727344666455 9.3922157751889213 #
straight-curve $-1 -62.149113437299725 21.089628288666617 44.669108287614186 0 0 -1 I I #
point $-1 -62.149113437299725 21.089628288666617 13.750649907787336 #
straight-curve $-1 -62.149113437299725 7.7445864708149514 7.7912437318102068 0 -1 0 I I #
point $-1 -62.149113437299725 21.089628288666617 7.7912437318102183 #
point $-1 -57.972848450129653 15.489172941629903 9.3922157751889213 #
straight-curve $-1 -62.149113437299725 36.989528574962968 44.669108287614186 0 0 -1 I I #
point $-1 -62.149113437299725 36.989528574962968 13.750649907787336 #
straight-curve $-1 -62.149113437299725 15.694536613963127 7.7912437318102068 0 -1 0 I I #
point $-1 -62.149113437299725 36.989528574962968 7.7912437318102183 #
point $-1 -57.972848450129653 31.389073227926254 9.3922157751889213 #
End-of-ACIS-data 