500 0 5 0           
7 Unknown 11 ACIS 5.0 NT 24 Fri Mar 26 17:40:09 1999 
-1 9.9999999999999995e-007 1e-010 
body $-1 $5 $-1 $6 #
body $-1 $7 $-1 $8 #
body $-1 $9 $-1 $10 #
body $-1 $11 $-1 $12 #
body $-1 $13 $-1 $14 #
lump $-1 $-1 $15 $0 #
transform $-1 1 0 0 0 1 0 0 0 1 50.282296212652973 34.866606912653907 9.3205685576955286 1 rotate no_reflect no_shear #
lump $-1 $-1 $16 $1 #
transform $-1 1 0 0 0 1 0 0 0 1 50.282296212652973 34.866606912653907 9.3205685576955286 1 rotate no_reflect no_shear #
lump $-1 $-1 $17 $2 #
transform $-1 1 0 0 0 1 0 0 0 1 50.282296212652973 34.866606912653907 9.3205685576955286 1 rotate no_reflect no_shear #
lump $-1 $-1 $18 $3 #
transform $-1 1 0 0 0 1 0 0 0 1 50.282296212652973 34.866606912653907 9.3205685576955286 1 rotate no_reflect no_shear #
lump $-1 $-1 $19 $4 #
transform $-1 1 0 0 0 1 0 0 0 1 50.282296212652973 34.866606912653907 9.3205685576955286 1 rotate no_reflect no_shear #
shell $-1 $-1 $-1 $20 $-1 $5 #
shell $-1 $-1 $-1 $21 $-1 $7 #
shell $-1 $-1 $-1 $22 $-1 $9 #
shell $-1 $-1 $-1 $23 $-1 $11 #
shell $-1 $-1 $-1 $24 $-1 $13 #
face $-1 $25 $26 $15 $-1 $27 forward single #
face $-1 $28 $29 $16 $-1 $30 forward single #
face $-1 $31 $32 $17 $-1 $33 reversed single #
face $-1 $34 $35 $18 $-1 $36 forward single #
face $-1 $37 $38 $19 $-1 $39 reversed single #
face $-1 $40 $41 $15 $-1 $42 reversed single #
loop $-1 $-1 $43 $20 #
plane-surface $-1 0 0 9.3205685576955286 0 0 1 1 0 0 forward_v I I I I #
face $-1 $44 $45 $16 $-1 $46 forward single #
loop $-1 $-1 $47 $21 #
plane-surface $-1 -117.57314372972809 -9.9171964606443836 79.732140779881661 0 1 0 -0.66913061440640931 0 0.74314481823134659 forward_v I I I I #
face $-1 $48 $49 $17 $-1 $50 reversed single #
loop $-1 $51 $52 $22 #
cone-surface $-1 -46.090552956104844 -4.9585982303221918 5.1697298681620527 0.66913061440640931 0 -0.74314481823134659 1.1147172273470198 0 1.003695921609614 1 I I 0 1 1.5 forward I I I I #
face $-1 $53 $54 $18 $-1 $55 forward single #
loop $-1 $-1 $56 $23 #
plane-surface $-1 -117.57314372972809 9.9171964606443872 79.732140779881661 0 -1 0 0.66913061440640931 0 -0.74314481823134659 forward_v I I I I #
face $-1 $57 $58 $19 $-1 $59 reversed single #
loop $-1 $60 $61 $24 #
cone-surface $-1 -46.090552956104844 4.9585982303221954 5.1697298681620527 0.66913061440640931 0 -0.74314481823134659 1.1147172273470198 0 1.003695921609614 1 I I 0 1 1.5 forward I I I I #
face $-1 $62 $63 $15 $-1 $64 reversed single #
loop $-1 $-1 $65 $25 #
plane-surface $-1 0 0 -9.3205685576955286 0 0 1 1 0 0 forward_v I I I I #
coedge $-1 $66 $67 $68 $69 forward $26 $-1 #
face $-1 $70 $71 $16 $-1 $72 forward single #
loop $-1 $-1 $73 $28 #
plane-surface $-1 -50.28229621265298 -4.9585982303221918 4.9980850214682135 -0.66913061440640931 0 0.74314481823134659 0.74314481823134659 0 0.66913061440640931 forward_v I I I I #
coedge $-1 $74 $75 $76 $77 reversed $29 $-1 #
face $-1 $78 $79 $17 $-1 $80 forward single #
loop $-1 $81 $82 $31 #
cone-surface $-1 -43.797263841718184 -4.9585982303221918 2.6227743330687279 0.66913061440640931 0 -0.74314481823134659 0.55735861367350992 0 0.50184796080480698 1 I I -0.70710678118654724 0.70710678118654768 0.75 forward I I I I #
loop $-1 $-1 $83 $22 #
coedge $-1 $52 $52 $84 $85 reversed $32 $-1 #
face $-1 $86 $87 $18 $-1 $88 reversed single #
loop $-1 $-1 $89 $34 #
plane-surface $-1 0 0 9.3205685576955286 0 0 1 1 0 0 forward_v I I I I #
coedge $-1 $90 $91 $89 $92 reversed $35 $-1 #
face $-1 $93 $94 $19 $-1 $95 forward single #
loop $-1 $96 $97 $37 #
cone-surface $-1 -43.797263841718184 4.9585982303221954 2.6227743330687279 0.66913061440640931 0 -0.74314481823134659 0.55735861367350992 0 0.50184796080480698 1 I I -0.70710678118654724 0.70710678118654768 0.75 forward I I I I #
loop $-1 $-1 $98 $24 #
coedge $-1 $61 $61 $99 $100 reversed $38 $-1 #
face $-1 $101 $102 $15 $-1 $103 reversed single #
loop $-1 $-1 $104 $40 #
plane-surface $-1 0 -34.866606912653907 0 0 1 0 0 0 1 forward_v I I I I #
coedge $-1 $105 $106 $107 $108 forward $41 $-1 #
coedge $-1 $109 $43 $110 $111 forward $26 $-1 #
coedge $-1 $43 $109 $112 $113 forward $26 $-1 #
coedge $-1 $114 $115 $43 $69 reversed $116 $-1 #
edge $-1 $117 -34.866606912653907 $118 34.866606912653907 $68 $119 forward 7 unknown #
face $-1 $120 $121 $16 $-1 $122 forward single #
loop $-1 $-1 $123 $44 #
plane-surface $-1 -117.57314372972809 0 79.732140779881661 0 -1 0 0.66913061440640931 0 -0.74314481823134659 forward_v I I I I #
coedge $-1 $124 $125 $126 $127 reversed $45 $-1 #
coedge $-1 $75 $47 $125 $128 forward $29 $-1 #
coedge $-1 $47 $74 $129 $130 reversed $29 $-1 #
coedge $-1 $131 $126 $47 $77 forward $121 $-1 #
edge $-1 $132 -13.304879858143607 $133 -8.5042756522110707 $76 $134 forward 7 unknown #
face $-1 $135 $136 $17 $-1 $137 forward single #
loop $-1 $-1 $138 $48 #
plane-surface $-1 -117.57314372972809 -9.9171964606443836 79.732140779881661 0 1 0 -0.66913061440640931 0 0.74314481823134659 forward_v I I I I #
loop $-1 $-1 $139 $31 #
coedge $-1 $82 $82 $83 $140 forward $49 $-1 #
coedge $-1 $83 $83 $82 $140 reversed $51 $-1 #
coedge $-1 $84 $84 $52 $85 forward $136 $-1 #
edge $-1 $141 0 $141 6.2831853071796004 $84 $142 forward 7 unknown #
face $-1 $143 $144 $18 $-1 $145 reversed single #
loop $-1 $146 $147 $53 #
cone-surface $-1 -46.090552956104844 -4.9585982303221918 5.1697298681620527 0.66913061440640931 0 -0.74314481823134659 1.1147172273470198 0 1.003695921609614 1 I I 0 1 1.5 forward I I I I #
coedge $-1 $148 $149 $56 $92 forward $54 $-1 #
coedge $-1 $91 $56 $150 $151 reversed $35 $-1 #
coedge $-1 $56 $90 $152 $153 forward $35 $-1 #
edge $-1 $154 8.5042756522110707 $155 13.304879858143607 $89 $156 forward 7 unknown #
face $-1 $157 $158 $19 $-1 $159 forward single #
loop $-1 $-1 $160 $57 #
plane-surface $-1 -117.57314372972809 9.9171964606443872 79.732140779881661 0 -1 0 0.66913061440640931 0 -0.74314481823134659 forward_v I I I I #
loop $-1 $-1 $161 $37 #
coedge $-1 $97 $97 $98 $162 forward $58 $-1 #
coedge $-1 $98 $98 $97 $162 reversed $60 $-1 #
coedge $-1 $99 $99 $61 $100 forward $163 $-1 #
edge $-1 $164 0 $164 6.2831853071796004 $99 $165 forward 7 unknown #
face $-1 $166 $167 $15 $-1 $168 reversed single #
loop $-1 $-1 $169 $62 #
plane-surface $-1 -50.282296212652973 0 0 1 0 0 0 0 -1 forward_v I I I I #
coedge $-1 $170 $112 $171 $172 forward $63 $-1 #
coedge $-1 $173 $65 $170 $174 forward $41 $-1 #
coedge $-1 $65 $173 $175 $176 forward $41 $-1 #
coedge $-1 $115 $114 $65 $108 reversed $116 $-1 #
edge $-1 $177 -34.866606912653907 $178 34.866606912653907 $107 $179 forward 7 unknown #
coedge $-1 $67 $66 $180 $181 forward $26 $-1 #
coedge $-1 $182 $183 $66 $111 reversed $167 $-1 #
edge $-1 $118 -50.282296212652973 $184 50.282296212652973 $110 $185 forward 7 unknown #
coedge $-1 $104 $186 $67 $113 reversed $63 $-1 #
edge $-1 $187 -50.282296212652973 $117 50.282296212652973 $112 $188 forward 7 unknown #
coedge $-1 $107 $68 $186 $189 forward $116 $-1 #
coedge $-1 $68 $107 $182 $190 reversed $116 $-1 #
loop $-1 $-1 $114 $166 #
vertex $-1 $69 $191 #
vertex $-1 $69 $192 #
straight-curve $-1 50.282296212652973 0 9.3205685576955286 0 1 0 I I #
face $-1 $193 $194 $16 $-1 $195 reversed single #
loop $-1 $-1 $196 $70 #
plane-surface $-1 0 0 9.3205685576955286 0 0 1 1 0 0 forward_v I I I I #
coedge $-1 $197 $198 $196 $199 reversed $71 $-1 #
coedge $-1 $200 $73 $198 $201 reversed $45 $-1 #
coedge $-1 $73 $200 $74 $128 reversed $45 $-1 #
coedge $-1 $76 $196 $73 $127 forward $121 $-1 #
edge $-1 $202 -2.4792991151610959 $132 7.4378973454832877 $126 $203 forward 7 unknown #
edge $-1 $132 -6.4598502043757495 $204 -9.4405131238556439e-015 $74 $205 forward 7 unknown #
coedge $-1 $206 $207 $75 $130 forward $208 $-1 #
edge $-1 $133 30.5455018322453 $204 34.86798536847261 $129 $209 forward 7 unknown #
coedge $-1 $210 $76 $207 $211 forward $121 $-1 #
vertex $-1 $127 $212 #
vertex $-1 $211 $213 #
straight-curve $-1 -58.786571864864044 -9.9171964606443836 9.3205685576955304 -1 0 0 I I #
face $-1 $214 $215 $17 $-1 $216 forward single #
loop $-1 $217 $84 $78 #
plane-surface $-1 -50.28229621265298 -4.9585982303221918 4.9980850214682135 -0.66913061440640931 0 0.74314481823134659 0.74314481823134659 0 0.66913061440640931 forward_v I I I I #
coedge $-1 $218 $219 $220 $221 reversed $79 $-1 #
coedge $-1 $139 $139 $-1 $222 forward $81 $-1 #
edge $-1 $223 0 $223 6.2831853071796004 $82 $224 forward 7 unknown #
vertex $-1 $85 $225 #
ellipse-curve $-1 -47.881994109686701 -4.9585982303221918 7.1593267895818737 0.66913061440640931 0 -0.74314481823134659 1.1147172273470198 0 1.003695921609614 1 I I #
face $-1 $226 $227 $18 $-1 $228 forward single #
loop $-1 $229 $230 $86 #
cone-surface $-1 -43.797263841718184 -4.9585982303221918 2.6227743330687279 0.66913061440640931 0 -0.74314481823134659 0.55735861367350992 0 0.50184796080480698 1 I I -0.70710678118654724 0.70710678118654768 0.75 forward I I I I #
loop $-1 $-1 $231 $53 #
coedge $-1 $147 $147 $232 $233 reversed $87 $-1 #
coedge $-1 $234 $89 $235 $236 forward $54 $-1 #
coedge $-1 $89 $237 $238 $239 forward $54 $-1 #
coedge $-1 $238 $240 $90 $151 forward $241 $-1 #
edge $-1 $242 -34.86798536847261 $154 -30.5455018322453 $150 $243 forward 7 unknown #
coedge $-1 $244 $235 $91 $153 reversed $245 $-1 #
edge $-1 $242 9.4405131238556439e-015 $155 6.4598502043757495 $91 $246 forward 7 unknown #
vertex $-1 $151 $247 #
vertex $-1 $236 $248 #
straight-curve $-1 -58.786571864864044 9.9171964606443872 9.3205685576955304 1 0 0 I I #
face $-1 $249 $250 $19 $-1 $251 reversed single #
loop $-1 $-1 $252 $93 #
plane-surface $-1 0 0 9.3205685576955286 0 0 1 1 0 0 forward_v I I I I #
coedge $-1 $253 $254 $252 $255 reversed $94 $-1 #
coedge $-1 $161 $161 $-1 $256 forward $96 $-1 #
edge $-1 $257 0 $257 6.2831853071796004 $97 $258 forward 7 unknown #
loop $-1 $259 $99 $260 #
vertex $-1 $100 $261 #
ellipse-curve $-1 -47.881994109686701 4.9585982303221954 7.1593267895818737 0.66913061440640931 0 -0.74314481823134659 1.1147172273470198 0 1.003695921609614 1 I I #
face $-1 $-1 $116 $15 $-1 $262 reversed single #
loop $-1 $-1 $182 $101 #
plane-surface $-1 0 34.866606912653907 0 0 -1 0 0 0 -1 forward_v I I I I #
coedge $-1 $263 $180 $183 $264 forward $102 $-1 #
coedge $-1 $186 $104 $105 $174 reversed $63 $-1 #
coedge $-1 $180 $263 $104 $172 reversed $102 $-1 #
edge $-1 $187 -9.3205685576955286 $265 9.3205685576955286 $171 $266 forward 7 unknown #
coedge $-1 $106 $105 $263 $267 forward $41 $-1 #
edge $-1 $178 -50.282296212652973 $265 50.282296212652973 $170 $268 forward 7 unknown #
coedge $-1 $183 $182 $106 $176 reversed $167 $-1 #
edge $-1 $269 -50.282296212652973 $177 50.282296212652973 $175 $270 forward 7 unknown #
vertex $-1 $108 $271 #
vertex $-1 $189 $272 #
straight-curve $-1 50.282296212652973 0 -9.3205685576955286 0 -1 0 I I #
coedge $-1 $169 $171 $109 $181 reversed $102 $-1 #
edge $-1 $184 -34.866606912653907 $187 34.866606912653907 $180 $273 forward 7 unknown #
coedge $-1 $175 $110 $115 $190 forward $167 $-1 #
coedge $-1 $110 $175 $169 $264 reversed $167 $-1 #
vertex $-1 $111 $274 #
straight-curve $-1 0 34.866606912653907 9.3205685576955286 -1 0 0 I I #
coedge $-1 $112 $170 $114 $189 reversed $63 $-1 #
vertex $-1 $181 $275 #
straight-curve $-1 0 -34.866606912653907 9.3205685576955286 1 0 0 I I #
edge $-1 $117 -9.3205685576955286 $178 9.3205685576955286 $114 $276 forward 7 unknown #
edge $-1 $118 -9.3205685576955286 $177 9.3205685576955286 $115 $277 forward 7 unknown #
point $-1 50.282296212652973 -34.866606912653907 9.3205685576955286 #
point $-1 50.282296212652973 34.866606912653907 9.3205685576955286 #
face $-1 $278 $279 $16 $-1 $280 reversed single #
loop $-1 $-1 $281 $120 #
plane-surface $-1 0 0 -9.3205685576955286 0 0 1 1 0 0 forward_v I I I I #
coedge $-1 $126 $282 $123 $199 forward $121 $-1 #
coedge $-1 $198 $123 $283 $284 reversed $71 $-1 #
coedge $-1 $123 $197 $124 $201 forward $71 $-1 #
edge $-1 $285 8.5042756522110707 $202 13.304879858143607 $196 $286 forward 7 unknown #
coedge $-1 $125 $124 $206 $287 reversed $45 $-1 #
edge $-1 $288 9.4405131238556439e-015 $202 6.4598502043757495 $198 $289 forward 7 unknown #
vertex $-1 $127 $290 #
straight-curve $-1 -45.481692006720436 -2.4792991151610959 9.3205685576955268 0 -1 0 I I #
vertex $-1 $287 $291 #
straight-curve $-1 -50.28229621265298 -9.9171964606443836 4.9980850214682135 -0.74314481823134659 0 -0.66913061440640931 I I #
coedge $-1 $283 $129 $200 $287 forward $208 $-1 #
coedge $-1 $129 $292 $131 $211 reversed $208 $-1 #
loop $-1 $-1 $283 $278 #
straight-curve $-1 -50.282296212652973 -9.9171964606443836 39.86607038994083 0 0 -1 I I #
coedge $-1 $293 $131 $294 $295 forward $121 $-1 #
edge $-1 $133 9.9171964606443836 $296 34.866606912653907 $207 $297 forward 7 unknown #
point $-1 -45.481692006720436 -9.9171964606443836 9.3205685576955286 #
point $-1 -50.282296212652973 -9.9171964606443836 9.3205685576955286 #
face $-1 $298 $299 $17 $-1 $300 forward single #
loop $-1 $-1 $301 $135 #
plane-surface $-1 -117.57314372972809 0 79.732140779881661 0 -1 0 0.66913061440640931 0 -0.74314481823134659 forward_v I I I I #
loop $-1 $-1 $302 $78 #
coedge $-1 $219 $138 $303 $304 forward $79 $-1 #
coedge $-1 $138 $218 $305 $306 reversed $79 $-1 #
coedge $-1 $307 $308 $138 $221 forward $299 $-1 #
edge $-1 $309 -13.304879858143607 $310 -8.5042756522110707 $220 $311 forward 7 unknown #
edge $-1 $312 1 $312 0 $139 $-1 forward 7 unknown #
vertex $-1 $140 $313 #
ellipse-curve $-1 -44.299111802522994 -4.9585982303221918 3.1801329467422379 -0.66913061440640931 0 0.74314481823134659 1.1147172273470198 0 1.003695921609614 1 I I #
point $-1 -46.767276882339679 -4.9585982303221918 8.1630227111914824 #
face $-1 $314 $315 $18 $-1 $316 forward single #
loop $-1 $-1 $317 $143 #
plane-surface $-1 -117.57314372972809 -9.9171964606443836 79.732140779881661 0 1 0 -0.66913061440640931 0 0.74314481823134659 forward_v I I I I #
loop $-1 $-1 $318 $86 #
coedge $-1 $230 $230 $231 $319 forward $144 $-1 #
coedge $-1 $231 $231 $230 $319 reversed $146 $-1 #
coedge $-1 $232 $232 $147 $233 forward $315 $-1 #
edge $-1 $320 0 $320 6.2831853071796004 $232 $321 forward 7 unknown #
coedge $-1 $322 $148 $317 $323 forward $54 $-1 #
coedge $-1 $152 $324 $148 $236 reversed $245 $-1 #
edge $-1 $155 -12.396495575805483 $325 7.4378973454832877 $148 $326 forward 7 unknown #
coedge $-1 $149 $327 $328 $329 forward $54 $-1 #
coedge $-1 $330 $150 $149 $239 reversed $241 $-1 #
edge $-1 $331 -34.866606912653907 $154 -9.9171964606443872 $238 $332 forward 7 unknown #
coedge $-1 $150 $333 $244 $334 forward $241 $-1 #
loop $-1 $-1 $150 $335 #
vertex $-1 $334 $336 #
straight-curve $-1 -50.282296212652973 9.9171964606443872 39.86607038994083 0 0 1 I I #
coedge $-1 $324 $152 $240 $334 reversed $245 $-1 #
loop $-1 $-1 $235 $226 #
straight-curve $-1 -50.28229621265298 9.9171964606443872 4.9980850214682135 0.74314481823134659 0 0.66913061440640931 I I #
point $-1 -50.282296212652973 9.9171964606443872 9.3205685576955286 #
point $-1 -45.481692006720436 9.9171964606443872 9.3205685576955286 #
face $-1 $337 $338 $19 $-1 $339 reversed single #
loop $-1 $340 $341 $157 #
cone-surface $-1 -46.090552956104844 -4.9585982303221918 5.1697298681620527 0.66913061440640931 0 -0.74314481823134659 1.1147172273470198 0 1.003695921609614 1 I I 0 1 1.5 forward I I I I #
coedge $-1 $342 $343 $160 $255 forward $158 $-1 #
coedge $-1 $254 $160 $344 $345 reversed $94 $-1 #
coedge $-1 $160 $253 $346 $347 forward $94 $-1 #
edge $-1 $348 8.5042756522110707 $349 13.304879858143607 $252 $350 forward 7 unknown #
edge $-1 $351 1 $351 0 $161 $-1 forward 7 unknown #
vertex $-1 $162 $352 #
ellipse-curve $-1 -44.299111802522994 4.9585982303221954 3.1801329467422379 -0.66913061440640931 0 0.74314481823134659 1.1147172273470198 0 1.003695921609614 1 I I #
loop $-1 $353 $354 $260 #
face $-1 $355 $163 $19 $-1 $356 forward single #
point $-1 -46.767276882339679 4.9585982303221954 8.1630227111914824 #
plane-surface $-1 50.282296212652973 0 0 -1 0 0 0 0 1 forward_v I I I I #
coedge $-1 $171 $169 $173 $267 reversed $102 $-1 #
edge $-1 $184 -9.3205685576955286 $269 9.3205685576955286 $183 $357 forward 7 unknown #
vertex $-1 $267 $358 #
straight-curve $-1 -50.282296212652973 -34.866606912653907 0 0 0 -1 I I #
edge $-1 $265 -34.866606912653907 $269 34.866606912653907 $263 $359 forward 7 unknown #
straight-curve $-1 0 -34.866606912653907 -9.3205685576955286 -1 0 0 I I #
vertex $-1 $176 $360 #
straight-curve $-1 0 34.866606912653907 -9.3205685576955286 1 0 0 I I #
point $-1 50.282296212652973 34.866606912653907 -9.3205685576955286 #
point $-1 50.282296212652973 -34.866606912653907 -9.3205685576955286 #
straight-curve $-1 -50.282296212652973 0 9.3205685576955286 0 -1 0 I I #
point $-1 -50.282296212652973 34.866606912653907 9.3205685576955286 #
point $-1 -50.282296212652973 -34.866606912653907 9.3205685576955286 #
straight-curve $-1 50.282296212652973 -34.866606912653907 0 0 0 -1 I I #
straight-curve $-1 50.282296212652973 34.866606912653907 0 0 0 -1 I I #
face $-1 $361 $208 $16 $-1 $362 reversed single #
loop $-1 $-1 $363 $193 #
plane-surface $-1 0 -34.866606912653907 0 0 1 0 0 0 1 forward_v I I I I #
coedge $-1 $364 $365 $366 $367 forward $194 $-1 #
coedge $-1 $196 $368 $369 $370 forward $121 $-1 #
coedge $-1 $369 $206 $197 $284 forward $208 $-1 #
edge $-1 $288 -34.86798536847261 $285 -30.5455018322453 $283 $371 forward 7 unknown #
vertex $-1 $284 $372 #
straight-curve $-1 -58.786571864864044 0 9.3205685576955304 1 0 0 I I #
edge $-1 $204 -7.4378973454832877 $288 2.4792991151610959 $206 $373 forward 7 unknown #
vertex $-1 $287 $374 #
straight-curve $-1 -50.28229621265298 0 4.9980850214682135 0.74314481823134659 0 0.66913061440640931 I I #
point $-1 -45.481692006720436 0 9.3205685576955286 #
point $-1 -50.282296212652973 -9.9171964606443836 4.9980850214682198 #
coedge $-1 $207 $375 $363 $376 reversed $208 $-1 #
coedge $-1 $368 $210 $377 $378 forward $121 $-1 #
coedge $-1 $363 $379 $210 $295 reversed $279 $-1 #
edge $-1 $296 -50.282296212652973 $380 50.282296212652973 $294 $381 forward 7 unknown #
vertex $-1 $211 $382 #
straight-curve $-1 -50.282296212652973 0 9.3205685576955286 0 -1 0 I I #
face $-1 $383 $384 $17 $-1 $385 reversed single #
loop $-1 $-1 $386 $214 #
plane-surface $-1 0 0 9.3205685576955286 0 0 1 1 0 0 forward_v I I I I #
coedge $-1 $387 $388 $386 $389 reversed $215 $-1 #
coedge $-1 $390 $303 $308 $391 reversed $217 $-1 #
coedge $-1 $302 $392 $218 $304 reversed $217 $-1 #
edge $-1 $309 -6.4598502043757495 $393 -9.4405131238556439e-015 $218 $394 forward 7 unknown #
coedge $-1 $395 $396 $219 $306 forward $397 $-1 #
edge $-1 $310 30.5455018322453 $393 34.86798536847261 $305 $398 forward 7 unknown #
coedge $-1 $399 $220 $396 $400 forward $299 $-1 #
coedge $-1 $220 $386 $302 $391 forward $299 $-1 #
vertex $-1 $391 $401 #
vertex $-1 $400 $402 #
straight-curve $-1 -58.786571864864044 -9.9171964606443836 9.3205685576955304 -1 0 0 I I #
vertex $-1 $222 $403 #
point $-1 -43.184394575175972 -4.9585982303221918 4.1838288683518519 #
face $-1 $404 $405 $18 $-1 $406 reversed single #
loop $-1 $245 $232 $226 #
plane-surface $-1 -50.28229621265298 -4.9585982303221918 4.9980850214682135 -0.66913061440640931 0 0.74314481823134659 0.74314481823134659 0 0.66913061440640931 forward_v I I I I #
coedge $-1 $407 $408 $234 $323 reversed $227 $-1 #
coedge $-1 $318 $318 $-1 $409 forward $229 $-1 #
edge $-1 $410 0 $410 6.2831853071796004 $230 $411 forward 7 unknown #
vertex $-1 $233 $412 #
ellipse-curve $-1 -47.881994109686701 -4.9585982303221918 7.1593267895818737 0.66913061440640931 0 -0.74314481823134659 1.1147172273470198 0 1.003695921609614 1 I I #
coedge $-1 $413 $234 $414 $415 forward $54 $-1 #
edge $-1 $325 -13.304879858143607 $416 -8.5042756522110707 $234 $417 forward 7 unknown #
coedge $-1 $235 $244 $407 $418 reversed $245 $-1 #
vertex $-1 $236 $419 #
straight-curve $-1 -45.481692006720436 -2.4792991151610959 9.3205685576955268 0 -1 0 I I #
coedge $-1 $237 $413 $420 $421 forward $54 $-1 #
coedge $-1 $422 $423 $237 $329 reversed $424 $-1 #
edge $-1 $425 -50.282296212652973 $331 50.282296212652973 $328 $426 forward 7 unknown #
coedge $-1 $427 $238 $423 $428 forward $241 $-1 #
vertex $-1 $329 $429 #
straight-curve $-1 -50.282296212652973 0 9.3205685576955286 0 -1 0 I I #
coedge $-1 $240 $414 $408 $430 forward $241 $-1 #
edge $-1 $431 -7.4378973454832877 $242 12.396495575805483 $240 $432 forward 7 unknown #
face $-1 $433 $241 $18 $-1 $434 reversed single #
point $-1 -50.282296212652973 9.9171964606443872 4.9980850214682198 #
face $-1 $260 $435 $19 $-1 $436 forward single #
loop $-1 $437 $438 $249 #
cone-surface $-1 -43.797263841718184 -4.9585982303221918 2.6227743330687279 0.66913061440640931 0 -0.74314481823134659 0.55735861367350992 0 0.50184796080480698 1 I I -0.70710678118654724 0.70710678118654768 0.75 forward I I I I #
loop $-1 $-1 $439 $157 #
coedge $-1 $341 $341 $354 $440 reversed $250 $-1 #
coedge $-1 $441 $252 $442 $443 forward $158 $-1 #
coedge $-1 $252 $444 $445 $446 forward $158 $-1 #
coedge $-1 $445 $447 $253 $345 forward $448 $-1 #
edge $-1 $449 -34.86798536847261 $348 -30.5455018322453 $344 $450 forward 7 unknown #
coedge $-1 $451 $442 $254 $347 reversed $353 $-1 #
edge $-1 $449 9.4405131238556439e-015 $349 6.4598502043757495 $254 $452 forward 7 unknown #
vertex $-1 $345 $453 #
vertex $-1 $443 $454 #
straight-curve $-1 -58.786571864864044 9.9171964606443872 9.3205685576955304 1 0 0 I I #
vertex $-1 $256 $455 #
point $-1 -43.184394575175972 4.9585982303221954 4.1838288683518519 #
loop $-1 $-1 $442 $260 #
coedge $-1 $354 $354 $341 $440 forward $259 $-1 #
face $-1 $456 $457 $19 $-1 $458 reversed single #
plane-surface $-1 -50.28229621265298 -4.9585982303221918 4.9980850214682135 -0.66913061440640931 0 0.74314481823134659 0.74314481823134659 0 0.66913061440640931 forward_v I I I I #
straight-curve $-1 -50.282296212652973 34.866606912653907 0 0 0 -1 I I #
point $-1 -50.282296212652973 -34.866606912653907 -9.3205685576955286 #
straight-curve $-1 -50.282296212652973 0 -9.3205685576955286 0 1 0 I I #
point $-1 -50.282296212652973 34.866606912653907 -9.3205685576955286 #
face $-1 $459 $460 $16 $-1 $461 reversed single #
plane-surface $-1 -50.282296212652973 0 0 1 0 0 0 0 -1 forward_v I I I I #
coedge $-1 $462 $294 $292 $376 forward $279 $-1 #
coedge $-1 $463 $281 $462 $464 forward $194 $-1 #
coedge $-1 $281 $463 $465 $466 forward $194 $-1 #
coedge $-1 $467 $468 $281 $367 reversed $469 $-1 #
edge $-1 $470 -34.866606912653907 $471 34.866606912653907 $366 $472 forward 7 unknown #
coedge $-1 $282 $293 $473 $474 forward $121 $-1 #
coedge $-1 $475 $283 $282 $370 reversed $208 $-1 #
edge $-1 $476 -34.866606912653907 $285 0 $369 $297 forward 7 unknown #
straight-curve $-1 -50.282296212652973 0 39.86607038994083 0 0 1 I I #
point $-1 -50.282296212652973 0 9.3205685576955286 #
straight-curve $-1 -50.282296212652973 -2.4792991151610959 4.9980850214682242 0 1 0 I I #
point $-1 -50.282296212652973 0 4.9980850214682198 #
coedge $-1 $292 $475 $463 $477 reversed $208 $-1 #
edge $-1 $296 -9.3205685576955286 $478 9.3205685576955286 $292 $479 forward 7 unknown #
coedge $-1 $468 $467 $293 $378 reversed $469 $-1 #
edge $-1 $380 -34.866606912653907 $480 34.866606912653907 $377 $481 forward 7 unknown #
coedge $-1 $294 $462 $468 $482 reversed $279 $-1 #
vertex $-1 $378 $483 #
straight-curve $-1 0 -34.866606912653907 9.3205685576955286 1 0 0 I I #
point $-1 -50.282296212652973 -34.866606912653907 9.3205685576955286 #
face $-1 $484 $485 $17 $-1 $486 reversed single #
loop $-1 $-1 $487 $298 #
plane-surface $-1 0 0 -9.3205685576955286 0 0 1 1 0 0 forward_v I I I I #
coedge $-1 $308 $488 $301 $389 forward $299 $-1 #
coedge $-1 $388 $301 $489 $490 reversed $215 $-1 #
coedge $-1 $301 $387 $390 $491 forward $215 $-1 #
edge $-1 $492 8.5042756522110707 $493 13.304879858143607 $386 $494 forward 7 unknown #
coedge $-1 $392 $302 $388 $491 reversed $217 $-1 #
edge $-1 $493 -2.4792991151610959 $309 7.4378973454832877 $308 $495 forward 7 unknown #
coedge $-1 $303 $390 $395 $496 reversed $217 $-1 #
vertex $-1 $496 $497 #
straight-curve $-1 -50.28229621265298 -9.9171964606443836 4.9980850214682135 -0.74314481823134659 0 -0.66913061440640931 I I #
coedge $-1 $489 $305 $392 $496 forward $397 $-1 #
coedge $-1 $305 $498 $307 $400 reversed $397 $-1 #
loop $-1 $-1 $489 $484 #
straight-curve $-1 -50.282296212652973 -9.9171964606443836 39.86607038994083 0 0 -1 I I #
coedge $-1 $499 $307 $500 $501 forward $299 $-1 #
edge $-1 $310 9.9171964606443836 $502 34.866606912653907 $396 $503 forward 7 unknown #
point $-1 -45.481692006720436 -9.9171964606443836 9.3205685576955286 #
point $-1 -50.282296212652973 -9.9171964606443836 9.3205685576955286 #
point $-1 -43.295415880913374 -4.9585982303221918 2.0654157193952178 #
face $-1 $335 $504 $18 $-1 $505 reversed single #
loop $-1 $-1 $506 $314 #
plane-surface $-1 0 0 -9.3205685576955286 0 0 1 1 0 0 forward_v I I I I #
coedge $-1 $408 $317 $324 $418 forward $227 $-1 #
coedge $-1 $317 $407 $333 $430 reversed $227 $-1 #
edge $-1 $507 1 $507 0 $318 $-1 forward 7 unknown #
vertex $-1 $319 $508 #
ellipse-curve $-1 -44.299111802522994 -4.9585982303221918 3.1801329467422379 -0.66913061440640931 0 0.74314481823134659 1.1147172273470198 0 1.003695921609614 1 I I #
point $-1 -46.767276882339679 -4.9585982303221918 8.1630227111914824 #
coedge $-1 $327 $322 $509 $510 forward $54 $-1 #
coedge $-1 $333 $511 $322 $415 reversed $241 $-1 #
edge $-1 $416 9.9171964606443836 $512 34.866606912653907 $414 $332 forward 7 unknown #
vertex $-1 $415 $513 #
straight-curve $-1 -58.786571864864044 -9.9171964606443836 9.3205685576955304 -1 0 0 I I #
edge $-1 $325 -6.4598502043757495 $431 -9.4405131238556439e-015 $407 $514 forward 7 unknown #
point $-1 -45.481692006720436 -9.9171964606443836 9.3205685576955286 #
coedge $-1 $515 $516 $327 $421 reversed $517 $-1 #
edge $-1 $518 -34.866606912653907 $425 34.866606912653907 $420 $519 forward 7 unknown #
coedge $-1 $520 $328 $516 $521 forward $424 $-1 #
coedge $-1 $328 $520 $330 $428 reversed $424 $-1 #
loop $-1 $-1 $422 $433 #
vertex $-1 $421 $522 #
straight-curve $-1 0 34.866606912653907 9.3205685576955286 -1 0 0 I I #
coedge $-1 $511 $330 $523 $524 reversed $241 $-1 #
edge $-1 $331 -9.3205685576955286 $525 9.3205685576955286 $423 $526 forward 7 unknown #
point $-1 -50.282296212652973 34.866606912653907 9.3205685576955286 #
edge $-1 $416 30.5455018322453 $431 34.86798536847261 $333 $527 forward 7 unknown #
vertex $-1 $334 $528 #
straight-curve $-1 -50.282296212652973 -2.4792991151610959 4.9980850214682242 0 1 0 I I #
face $-1 $529 $424 $18 $-1 $530 reversed single #
plane-surface $-1 -50.282296212652973 0 0 1 0 0 0 0 -1 forward_v I I I I #
loop $-1 $-1 $531 $337 #
plane-surface $-1 -117.57314372972809 -9.9171964606443836 79.732140779881661 0 1 0 -0.66913061440640931 0 0.74314481823134659 forward_v I I I I #
loop $-1 $-1 $532 $249 #
coedge $-1 $438 $438 $439 $533 forward $338 $-1 #
coedge $-1 $439 $439 $438 $533 reversed $340 $-1 #
edge $-1 $534 0 $534 6.2831853071796004 $354 $535 forward 7 unknown #
coedge $-1 $536 $342 $531 $537 forward $158 $-1 #
coedge $-1 $346 $538 $342 $443 reversed $353 $-1 #
edge $-1 $349 -12.396495575805483 $539 7.4378973454832877 $342 $540 forward 7 unknown #
coedge $-1 $343 $541 $542 $543 forward $158 $-1 #
coedge $-1 $544 $344 $343 $446 reversed $448 $-1 #
edge $-1 $545 -34.866606912653907 $348 -9.9171964606443872 $445 $546 forward 7 unknown #
coedge $-1 $344 $547 $451 $548 forward $448 $-1 #
loop $-1 $-1 $344 $549 #
vertex $-1 $548 $550 #
straight-curve $-1 -50.282296212652973 9.9171964606443872 39.86607038994083 0 0 1 I I #
coedge $-1 $538 $346 $447 $548 reversed $353 $-1 #
straight-curve $-1 -50.28229621265298 9.9171964606443872 4.9980850214682135 0.74314481823134659 0 0.66913061440640931 I I #
point $-1 -50.282296212652973 9.9171964606443872 9.3205685576955286 #
point $-1 -45.481692006720436 9.9171964606443872 9.3205685576955286 #
point $-1 -43.295415880913374 4.9585982303221954 2.0654157193952178 #
face $-1 $549 $551 $19 $-1 $552 reversed single #
loop $-1 $-1 $553 $355 #
plane-surface $-1 0 0 -9.3205685576955286 0 0 1 1 0 0 forward_v I I I I #
face $-1 $-1 $469 $16 $-1 $554 reversed single #
loop $-1 $-1 $555 $361 #
plane-surface $-1 0 34.866606912653907 0 0 -1 0 0 0 -1 forward_v I I I I #
coedge $-1 $379 $363 $364 $464 reversed $279 $-1 #
coedge $-1 $365 $364 $375 $477 forward $194 $-1 #
edge $-1 $471 -50.282296212652973 $478 50.282296212652973 $462 $556 forward 7 unknown #
coedge $-1 $557 $555 $365 $466 reversed $460 $-1 #
edge $-1 $558 -50.282296212652973 $470 50.282296212652973 $465 $559 forward 7 unknown #
coedge $-1 $377 $366 $555 $560 reversed $469 $-1 #
coedge $-1 $366 $377 $379 $482 forward $469 $-1 #
loop $-1 $-1 $468 $459 #
vertex $-1 $367 $561 #
vertex $-1 $482 $562 #
straight-curve $-1 50.282296212652973 0 -9.3205685576955286 0 -1 0 I I #
coedge $-1 $555 $557 $368 $474 reversed $460 $-1 #
edge $-1 $480 -50.282296212652973 $476 50.282296212652973 $473 $563 forward 7 unknown #
coedge $-1 $375 $369 $557 $564 forward $208 $-1 #
vertex $-1 $474 $565 #
edge $-1 $478 -34.866606912653907 $558 34.866606912653907 $375 $566 forward 7 unknown #
vertex $-1 $477 $567 #
straight-curve $-1 -50.282296212652973 -34.866606912653907 0 0 0 -1 I I #
vertex $-1 $378 $568 #
straight-curve $-1 50.282296212652973 0 9.3205685576955286 0 1 0 I I #
edge $-1 $380 -9.3205685576955286 $471 9.3205685576955286 $468 $569 forward 7 unknown #
point $-1 50.282296212652973 -34.866606912653907 9.3205685576955286 #
face $-1 $570 $397 $17 $-1 $571 reversed single #
loop $-1 $-1 $572 $383 #
plane-surface $-1 0 -34.866606912653907 0 0 1 0 0 0 1 forward_v I I I I #
coedge $-1 $573 $574 $575 $576 forward $384 $-1 #
coedge $-1 $386 $577 $578 $579 forward $299 $-1 #
coedge $-1 $578 $395 $387 $490 forward $397 $-1 #
edge $-1 $580 -34.86798536847261 $492 -30.5455018322453 $489 $581 forward 7 unknown #
edge $-1 $580 9.4405131238556439e-015 $493 6.4598502043757495 $388 $582 forward 7 unknown #
vertex $-1 $490 $583 #
vertex $-1 $391 $584 #
straight-curve $-1 -58.786571864864044 0 9.3205685576955304 1 0 0 I I #
straight-curve $-1 -45.481692006720436 -2.4792991151610959 9.3205685576955268 0 -1 0 I I #
edge $-1 $393 -7.4378973454832877 $580 2.4792991151610959 $395 $585 forward 7 unknown #
point $-1 -50.282296212652973 -9.9171964606443836 4.9980850214682198 #
coedge $-1 $396 $586 $572 $587 reversed $397 $-1 #
coedge $-1 $577 $399 $588 $589 forward $299 $-1 #
coedge $-1 $572 $590 $399 $501 reversed $485 $-1 #
edge $-1 $502 -50.282296212652973 $591 50.282296212652973 $500 $592 forward 7 unknown #
vertex $-1 $400 $593 #
straight-curve $-1 -50.282296212652973 0 9.3205685576955286 0 -1 0 I I #
loop $-1 $-1 $594 $404 #
plane-surface $-1 0 -34.866606912653907 0 0 1 0 0 0 1 forward_v I I I I #
coedge $-1 $595 $596 $597 $598 forward $405 $-1 #
vertex $-1 $409 $599 #
point $-1 -43.184394575175972 -4.9585982303221918 4.1838288683518519 #
coedge $-1 $594 $600 $413 $510 reversed $504 $-1 #
edge $-1 $512 -50.282296212652973 $518 50.282296212652973 $509 $601 forward 7 unknown #
coedge $-1 $414 $427 $594 $602 reversed $241 $-1 #
vertex $-1 $415 $603 #
point $-1 -50.282296212652973 -9.9171964606443836 9.3205685576955286 #
straight-curve $-1 -50.28229621265298 -9.9171964606443836 4.9980850214682135 -0.74314481823134659 0 -0.66913061440640931 I I #
coedge $-1 $597 $420 $600 $604 forward $517 $-1 #
coedge $-1 $420 $597 $422 $521 reversed $517 $-1 #
loop $-1 $-1 $515 $529 #
vertex $-1 $421 $605 #
straight-curve $-1 50.282296212652973 0 9.3205685576955286 0 1 0 I I #
coedge $-1 $423 $422 $596 $606 reversed $424 $-1 #
edge $-1 $425 -9.3205685576955286 $607 9.3205685576955286 $516 $608 forward 7 unknown #
point $-1 50.282296212652973 34.866606912653907 9.3205685576955286 #
coedge $-1 $596 $595 $427 $524 forward $405 $-1 #
edge $-1 $609 -34.866606912653907 $525 34.866606912653907 $427 $610 forward 7 unknown #
vertex $-1 $606 $611 #
straight-curve $-1 -50.282296212652973 34.866606912653907 0 0 0 -1 I I #
straight-curve $-1 -50.282296212652973 -9.9171964606443836 39.86607038994083 0 0 -1 I I #
point $-1 -50.282296212652973 -9.9171964606443836 4.9980850214682198 #
face $-1 $-1 $517 $18 $-1 $612 reversed single #
plane-surface $-1 0 34.866606912653907 0 0 -1 0 0 0 -1 forward_v I I I I #
coedge $-1 $613 $614 $441 $537 reversed $435 $-1 #
coedge $-1 $532 $532 $-1 $615 forward $437 $-1 #
edge $-1 $616 0 $616 6.2831853071796004 $438 $617 forward 7 unknown #
vertex $-1 $440 $618 #
ellipse-curve $-1 -47.881994109686701 -4.9585982303221918 7.1593267895818737 0.66913061440640931 0 -0.74314481823134659 1.1147172273470198 0 1.003695921609614 1 I I #
coedge $-1 $619 $441 $620 $621 forward $158 $-1 #
edge $-1 $539 -13.304879858143607 $622 -8.5042756522110707 $441 $623 forward 7 unknown #
coedge $-1 $442 $451 $613 $624 reversed $353 $-1 #
vertex $-1 $443 $625 #
straight-curve $-1 -45.481692006720436 -2.4792991151610959 9.3205685576955268 0 -1 0 I I #
coedge $-1 $444 $619 $626 $627 forward $158 $-1 #
coedge $-1 $628 $629 $444 $543 reversed $630 $-1 #
edge $-1 $631 -50.282296212652973 $545 50.282296212652973 $542 $632 forward 7 unknown #
coedge $-1 $633 $445 $629 $634 forward $448 $-1 #
vertex $-1 $543 $635 #
straight-curve $-1 -50.282296212652973 0 9.3205685576955286 0 -1 0 I I #
coedge $-1 $447 $620 $614 $636 forward $448 $-1 #
edge $-1 $637 -7.4378973454832877 $449 12.396495575805483 $447 $638 forward 7 unknown #
face $-1 $639 $448 $19 $-1 $640 reversed single #
point $-1 -50.282296212652973 9.9171964606443872 4.9980850214682198 #
loop $-1 $-1 $641 $456 #
plane-surface $-1 0 -34.866606912653907 0 0 1 0 0 0 1 forward_v I I I I #
coedge $-1 $642 $643 $644 $645 forward $457 $-1 #
plane-surface $-1 50.282296212652973 0 0 -1 0 0 0 0 1 forward_v I I I I #
coedge $-1 $465 $473 $467 $560 forward $460 $-1 #
straight-curve $-1 0 -34.866606912653907 -9.3205685576955286 -1 0 0 I I #
coedge $-1 $473 $465 $475 $564 reversed $460 $-1 #
vertex $-1 $466 $646 #
straight-curve $-1 0 34.866606912653907 -9.3205685576955286 1 0 0 I I #
edge $-1 $480 -9.3205685576955286 $470 9.3205685576955286 $467 $647 forward 7 unknown #
point $-1 50.282296212652973 34.866606912653907 -9.3205685576955286 #
point $-1 50.282296212652973 -34.866606912653907 -9.3205685576955286 #
straight-curve $-1 0 34.866606912653907 9.3205685576955286 -1 0 0 I I #
edge $-1 $476 -9.3205685576955286 $558 9.3205685576955286 $557 $648 forward 7 unknown #
point $-1 -50.282296212652973 34.866606912653907 9.3205685576955286 #
straight-curve $-1 -50.282296212652973 0 -9.3205685576955286 0 1 0 I I #
point $-1 -50.282296212652973 -34.866606912653907 -9.3205685576955286 #
point $-1 50.282296212652973 34.866606912653907 9.3205685576955286 #
straight-curve $-1 50.282296212652973 -34.866606912653907 0 0 0 -1 I I #
face $-1 $649 $650 $17 $-1 $651 reversed single #
plane-surface $-1 -50.282296212652973 0 0 1 0 0 0 0 -1 forward_v I I I I #
coedge $-1 $652 $500 $498 $587 forward $485 $-1 #
coedge $-1 $653 $487 $652 $654 forward $384 $-1 #
coedge $-1 $487 $653 $655 $656 forward $384 $-1 #
coedge $-1 $657 $658 $487 $576 reversed $659 $-1 #
edge $-1 $660 -34.866606912653907 $661 34.866606912653907 $575 $662 forward 7 unknown #
coedge $-1 $488 $499 $663 $664 forward $299 $-1 #
coedge $-1 $665 $489 $488 $579 reversed $397 $-1 #
edge $-1 $666 -34.866606912653907 $492 0 $578 $503 forward 7 unknown #
vertex $-1 $496 $667 #
straight-curve $-1 -50.282296212652973 0 39.86607038994083 0 0 1 I I #
straight-curve $-1 -50.28229621265298 0 4.9980850214682135 0.74314481823134659 0 0.66913061440640931 I I #
point $-1 -50.282296212652973 0 9.3205685576955286 #
point $-1 -45.481692006720436 0 9.3205685576955286 #
straight-curve $-1 -50.282296212652973 -2.4792991151610959 4.9980850214682242 0 1 0 I I #
coedge $-1 $498 $665 $653 $668 reversed $397 $-1 #
edge $-1 $502 -9.3205685576955286 $669 9.3205685576955286 $498 $670 forward 7 unknown #
coedge $-1 $658 $657 $499 $589 reversed $659 $-1 #
edge $-1 $591 -34.866606912653907 $671 34.866606912653907 $588 $672 forward 7 unknown #
coedge $-1 $500 $652 $658 $673 reversed $485 $-1 #
vertex $-1 $589 $674 #
straight-curve $-1 0 -34.866606912653907 9.3205685576955286 1 0 0 I I #
point $-1 -50.282296212652973 -34.866606912653907 9.3205685576955286 #
coedge $-1 $675 $509 $511 $602 forward $504 $-1 #
coedge $-1 $523 $506 $675 $676 forward $405 $-1 #
coedge $-1 $506 $523 $520 $606 forward $405 $-1 #
coedge $-1 $516 $515 $506 $598 reversed $517 $-1 #
edge $-1 $607 -34.866606912653907 $677 34.866606912653907 $597 $678 forward 7 unknown #
point $-1 -43.295415880913374 -4.9585982303221918 2.0654157193952178 #
coedge $-1 $509 $675 $515 $604 reversed $504 $-1 #
straight-curve $-1 0 -34.866606912653907 9.3205685576955286 1 0 0 I I #
edge $-1 $512 -9.3205685576955286 $609 9.3205685576955286 $511 $679 forward 7 unknown #
point $-1 -50.282296212652973 -34.866606912653907 9.3205685576955286 #
edge $-1 $518 -9.3205685576955286 $677 9.3205685576955286 $515 $680 forward 7 unknown #
point $-1 50.282296212652973 -34.866606912653907 9.3205685576955286 #
edge $-1 $525 -50.282296212652973 $607 50.282296212652973 $520 $681 forward 7 unknown #
vertex $-1 $598 $682 #
straight-curve $-1 50.282296212652973 34.866606912653907 0 0 0 -1 I I #
vertex $-1 $524 $683 #
straight-curve $-1 -50.282296212652973 0 -9.3205685576955286 0 1 0 I I #
point $-1 -50.282296212652973 34.866606912653907 -9.3205685576955286 #
plane-surface $-1 50.282296212652973 0 0 -1 0 0 0 0 1 forward_v I I I I #
coedge $-1 $614 $531 $538 $624 forward $435 $-1 #
coedge $-1 $531 $613 $547 $636 reversed $435 $-1 #
edge $-1 $684 1 $684 0 $532 $-1 forward 7 unknown #
vertex $-1 $533 $685 #
ellipse-curve $-1 -44.299111802522994 -4.9585982303221918 3.1801329467422379 -0.66913061440640931 0 0.74314481823134659 1.1147172273470198 0 1.003695921609614 1 I I #
point $-1 -46.767276882339679 -4.9585982303221918 8.1630227111914824 #
coedge $-1 $541 $536 $686 $687 forward $158 $-1 #
coedge $-1 $547 $688 $536 $621 reversed $448 $-1 #
edge $-1 $622 9.9171964606443836 $689 34.866606912653907 $620 $546 forward 7 unknown #
vertex $-1 $621 $690 #
straight-curve $-1 -58.786571864864044 -9.9171964606443836 9.3205685576955304 -1 0 0 I I #
edge $-1 $539 -6.4598502043757495 $637 -9.4405131238556439e-015 $613 $691 forward 7 unknown #
point $-1 -45.481692006720436 -9.9171964606443836 9.3205685576955286 #
coedge $-1 $692 $693 $541 $627 reversed $694 $-1 #
edge $-1 $695 -34.866606912653907 $631 34.866606912653907 $626 $696 forward 7 unknown #
coedge $-1 $697 $542 $693 $698 forward $630 $-1 #
coedge $-1 $542 $697 $544 $634 reversed $630 $-1 #
loop $-1 $-1 $628 $639 #
vertex $-1 $627 $699 #
straight-curve $-1 0 34.866606912653907 9.3205685576955286 -1 0 0 I I #
coedge $-1 $688 $544 $700 $701 reversed $448 $-1 #
edge $-1 $545 -9.3205685576955286 $702 9.3205685576955286 $629 $703 forward 7 unknown #
point $-1 -50.282296212652973 34.866606912653907 9.3205685576955286 #
edge $-1 $622 30.5455018322453 $637 34.86798536847261 $547 $704 forward 7 unknown #
vertex $-1 $548 $705 #
straight-curve $-1 -50.282296212652973 -2.4792991151610959 4.9980850214682242 0 1 0 I I #
face $-1 $706 $630 $19 $-1 $707 reversed single #
plane-surface $-1 -50.282296212652973 0 0 1 0 0 0 0 -1 forward_v I I I I #
coedge $-1 $708 $686 $688 $709 forward $551 $-1 #
coedge $-1 $700 $553 $708 $710 forward $457 $-1 #
coedge $-1 $553 $700 $697 $711 forward $457 $-1 #
coedge $-1 $693 $692 $553 $645 reversed $694 $-1 #
edge $-1 $712 -34.866606912653907 $713 34.866606912653907 $644 $714 forward 7 unknown #
point $-1 -50.282296212652973 34.866606912653907 -9.3205685576955286 #
straight-curve $-1 50.282296212652973 34.866606912653907 0 0 0 -1 I I #
straight-curve $-1 -50.282296212652973 34.866606912653907 0 0 0 -1 I I #
face $-1 $-1 $659 $17 $-1 $715 reversed single #
loop $-1 $-1 $716 $570 #
plane-surface $-1 0 34.866606912653907 0 0 -1 0 0 0 -1 forward_v I I I I #
coedge $-1 $590 $572 $573 $654 reversed $485 $-1 #
coedge $-1 $574 $573 $586 $668 forward $384 $-1 #
edge $-1 $661 -50.282296212652973 $669 50.282296212652973 $652 $717 forward 7 unknown #
coedge $-1 $718 $716 $574 $656 reversed $650 $-1 #
edge $-1 $719 -50.282296212652973 $660 50.282296212652973 $655 $720 forward 7 unknown #
coedge $-1 $588 $575 $716 $721 reversed $659 $-1 #
coedge $-1 $575 $588 $590 $673 forward $659 $-1 #
loop $-1 $-1 $658 $649 #
vertex $-1 $576 $722 #
vertex $-1 $673 $723 #
straight-curve $-1 50.282296212652973 0 -9.3205685576955286 0 -1 0 I I #
coedge $-1 $716 $718 $577 $664 reversed $650 $-1 #
edge $-1 $671 -50.282296212652973 $666 50.282296212652973 $663 $724 forward 7 unknown #
coedge $-1 $586 $578 $718 $725 forward $397 $-1 #
vertex $-1 $664 $726 #
point $-1 -50.282296212652973 0 4.9980850214682198 #
edge $-1 $669 -34.866606912653907 $719 34.866606912653907 $586 $727 forward 7 unknown #
vertex $-1 $668 $728 #
straight-curve $-1 -50.282296212652973 -34.866606912653907 0 0 0 -1 I I #
vertex $-1 $589 $729 #
straight-curve $-1 50.282296212652973 0 9.3205685576955286 0 1 0 I I #
edge $-1 $591 -9.3205685576955286 $661 9.3205685576955286 $658 $730 forward 7 unknown #
point $-1 50.282296212652973 -34.866606912653907 9.3205685576955286 #
coedge $-1 $600 $594 $595 $676 reversed $504 $-1 #
edge $-1 $677 -50.282296212652973 $609 50.282296212652973 $675 $731 forward 7 unknown #
vertex $-1 $604 $732 #
straight-curve $-1 50.282296212652973 0 -9.3205685576955286 0 -1 0 I I #
straight-curve $-1 -50.282296212652973 -34.866606912653907 0 0 0 -1 I I #
straight-curve $-1 50.282296212652973 -34.866606912653907 0 0 0 -1 I I #
straight-curve $-1 0 34.866606912653907 -9.3205685576955286 1 0 0 I I #
point $-1 50.282296212652973 34.866606912653907 -9.3205685576955286 #
point $-1 -50.282296212652973 -34.866606912653907 -9.3205685576955286 #
vertex $-1 $615 $733 #
point $-1 -43.184394575175972 -4.9585982303221918 4.1838288683518519 #
coedge $-1 $641 $734 $619 $687 reversed $551 $-1 #
edge $-1 $689 -50.282296212652973 $695 50.282296212652973 $686 $735 forward 7 unknown #
coedge $-1 $620 $633 $641 $709 reversed $448 $-1 #
vertex $-1 $621 $736 #
point $-1 -50.282296212652973 -9.9171964606443836 9.3205685576955286 #
straight-curve $-1 -50.28229621265298 -9.9171964606443836 4.9980850214682135 -0.74314481823134659 0 -0.66913061440640931 I I #
coedge $-1 $644 $626 $734 $737 forward $694 $-1 #
coedge $-1 $626 $644 $628 $698 reversed $694 $-1 #
loop $-1 $-1 $692 $706 #
vertex $-1 $627 $738 #
straight-curve $-1 50.282296212652973 0 9.3205685576955286 0 1 0 I I #
coedge $-1 $629 $628 $643 $711 reversed $630 $-1 #
edge $-1 $631 -9.3205685576955286 $712 9.3205685576955286 $693 $739 forward 7 unknown #
point $-1 50.282296212652973 34.866606912653907 9.3205685576955286 #
coedge $-1 $643 $642 $633 $701 forward $457 $-1 #
edge $-1 $740 -34.866606912653907 $702 34.866606912653907 $633 $741 forward 7 unknown #
vertex $-1 $711 $742 #
straight-curve $-1 -50.282296212652973 34.866606912653907 0 0 0 -1 I I #
straight-curve $-1 -50.282296212652973 -9.9171964606443836 39.86607038994083 0 0 -1 I I #
point $-1 -50.282296212652973 -9.9171964606443836 4.9980850214682198 #
face $-1 $-1 $694 $19 $-1 $743 reversed single #
plane-surface $-1 0 34.866606912653907 0 0 -1 0 0 0 -1 forward_v I I I I #
coedge $-1 $734 $641 $642 $710 reversed $551 $-1 #
edge $-1 $689 -9.3205685576955286 $740 9.3205685576955286 $688 $744 forward 7 unknown #
edge $-1 $713 -50.282296212652973 $740 50.282296212652973 $708 $745 forward 7 unknown #
edge $-1 $702 -50.282296212652973 $712 50.282296212652973 $697 $746 forward 7 unknown #
vertex $-1 $645 $747 #
vertex $-1 $737 $748 #
straight-curve $-1 50.282296212652973 0 -9.3205685576955286 0 -1 0 I I #
plane-surface $-1 50.282296212652973 0 0 -1 0 0 0 0 1 forward_v I I I I #
coedge $-1 $655 $663 $657 $721 forward $650 $-1 #
straight-curve $-1 0 -34.866606912653907 -9.3205685576955286 -1 0 0 I I #
coedge $-1 $663 $655 $665 $725 reversed $650 $-1 #
vertex $-1 $656 $749 #
straight-curve $-1 0 34.866606912653907 -9.3205685576955286 1 0 0 I I #
edge $-1 $671 -9.3205685576955286 $660 9.3205685576955286 $657 $750 forward 7 unknown #
point $-1 50.282296212652973 34.866606912653907 -9.3205685576955286 #
point $-1 50.282296212652973 -34.866606912653907 -9.3205685576955286 #
straight-curve $-1 0 34.866606912653907 9.3205685576955286 -1 0 0 I I #
edge $-1 $666 -9.3205685576955286 $719 9.3205685576955286 $718 $751 forward 7 unknown #
point $-1 -50.282296212652973 34.866606912653907 9.3205685576955286 #
straight-curve $-1 -50.282296212652973 0 -9.3205685576955286 0 1 0 I I #
point $-1 -50.282296212652973 -34.866606912653907 -9.3205685576955286 #
point $-1 50.282296212652973 34.866606912653907 9.3205685576955286 #
straight-curve $-1 50.282296212652973 -34.866606912653907 0 0 0 -1 I I #
straight-curve $-1 0 -34.866606912653907 -9.3205685576955286 -1 0 0 I I #
point $-1 50.282296212652973 -34.866606912653907 -9.3205685576955286 #
point $-1 -43.295415880913374 -4.9585982303221918 2.0654157193952178 #
coedge $-1 $686 $708 $692 $737 reversed $551 $-1 #
straight-curve $-1 0 -34.866606912653907 9.3205685576955286 1 0 0 I I #
point $-1 -50.282296212652973 -34.866606912653907 9.3205685576955286 #
edge $-1 $695 -9.3205685576955286 $713 9.3205685576955286 $692 $752 forward 7 unknown #
point $-1 50.282296212652973 -34.866606912653907 9.3205685576955286 #
straight-curve $-1 50.282296212652973 34.866606912653907 0 0 0 -1 I I #
vertex $-1 $701 $753 #
straight-curve $-1 -50.282296212652973 0 -9.3205685576955286 0 1 0 I I #
point $-1 -50.282296212652973 34.866606912653907 -9.3205685576955286 #
plane-surface $-1 50.282296212652973 0 0 -1 0 0 0 0 1 forward_v I I I I #
straight-curve $-1 -50.282296212652973 -34.866606912653907 0 0 0 -1 I I #
straight-curve $-1 0 -34.866606912653907 -9.3205685576955286 -1 0 0 I I #
straight-curve $-1 0 34.866606912653907 -9.3205685576955286 1 0 0 I I #
point $-1 50.282296212652973 34.866606912653907 -9.3205685576955286 #
point $-1 50.282296212652973 -34.866606912653907 -9.3205685576955286 #
point $-1 -50.282296212652973 34.866606912653907 -9.3205685576955286 #
straight-curve $-1 50.282296212652973 34.866606912653907 0 0 0 -1 I I #
straight-curve $-1 -50.282296212652973 34.866606912653907 0 0 0 -1 I I #
straight-curve $-1 50.282296212652973 -34.866606912653907 0 0 0 -1 I I #
point $-1 -50.282296212652973 -34.866606912653907 -9.3205685576955286 #
End-of-ACIS-data 