500 0 6 0           
7 Unknown 11 ACIS 5.0 NT 24 Thu Mar 25 20:35:10 1999 
-1 9.9999999999999995e-007 1e-010 
body $-1 $6 $-1 $7 #
body $-1 $8 $-1 $9 #
body $-1 $10 $-1 $11 #
body $-1 $12 $-1 $13 #
body $-1 $14 $-1 $15 #
body $-1 $16 $-1 $17 #
lump $-1 $-1 $18 $0 #
transform $-1 1 0 0 0 1 0 0 0 1 72.228766747032068 42.450023541499661 11.687067854017052 1 rotate no_reflect no_shear #
lump $-1 $-1 $19 $1 #
transform $-1 1 0 0 0 1 0 0 0 1 72.228766747032068 42.450023541499661 11.687067854017052 1 rotate no_reflect no_shear #
lump $-1 $-1 $20 $2 #
transform $-1 1 0 0 0 1 0 0 0 1 72.228766747032068 42.450023541499661 11.687067854017052 1 rotate no_reflect no_shear #
lump $-1 $-1 $21 $3 #
transform $-1 1 0 0 0 1 0 0 0 1 72.228766747032068 42.450023541499661 11.687067854017052 1 rotate no_reflect no_shear #
lump $-1 $-1 $22 $4 #
transform $-1 1 0 0 0 1 0 0 0 1 72.228766747032068 42.450023541499661 11.687067854017052 1 rotate no_reflect no_shear #
lump $-1 $-1 $23 $5 #
transform $-1 1 0 0 0 1 0 0 0 1 72.228766747032068 42.450023541499661 11.687067854017052 1 rotate no_reflect no_shear #
shell $-1 $-1 $-1 $24 $-1 $6 #
shell $-1 $-1 $-1 $25 $-1 $8 #
shell $-1 $-1 $-1 $26 $-1 $10 #
shell $-1 $-1 $-1 $27 $-1 $12 #
shell $-1 $-1 $-1 $28 $-1 $14 #
shell $-1 $-1 $-1 $29 $-1 $16 #
face $-1 $30 $31 $18 $-1 $32 forward single #
face $-1 $33 $34 $19 $-1 $35 reversed single #
face $-1 $36 $37 $20 $-1 $38 forward single #
face $-1 $39 $40 $21 $-1 $41 reversed single #
face $-1 $42 $43 $22 $-1 $44 forward single #
face $-1 $45 $46 $23 $-1 $47 forward single #
face $-1 $48 $49 $18 $-1 $50 reversed single #
loop $-1 $-1 $51 $24 #
plane-surface $-1 0 0 11.687067854017052 0 0 1 1 0 0 forward_v I I I I #
face $-1 $52 $53 $19 $-1 $54 reversed single #
loop $-1 $-1 $55 $25 #
plane-surface $-1 0 -38.029852996664317 5.1934280711927077 0 0 1 1 0 0 forward_v I I I I #
face $-1 $56 $57 $20 $-1 $58 reversed single #
loop $-1 $-1 $59 $26 #
plane-surface $-1 0 42.450023541499661 0 0 -1 0 0 0 -1 forward_v I I I I #
face $-1 $60 $61 $21 $-1 $62 reversed single #
loop $-1 $-1 $63 $27 #
plane-surface $-1 -176.14282123823975 -29.932630710708366 108.28144538741086 0 1 0 -0.71933980857756763 0 0.69465836192734942 forward_v I I I I #
face $-1 $64 $65 $22 $-1 $66 forward single #
loop $-1 $67 $68 $28 #
cone-surface $-1 -69.244722497067372 -25.574144194902033 8.6788065468435569 0.71933980857756763 0 -0.69465836192734942 0.69465836192734942 0 0.71933980857756763 1 I I 0 1 1 forward I I I I #
face $-1 $69 $70 $23 $-1 $71 forward single #
loop $-1 $72 $73 $29 #
cone-surface $-1 -69.244722497067372 -19.036414421192532 8.6788065468435569 0.71933980857756763 0 -0.69465836192734942 0.69465836192734942 0 0.71933980857756763 1 I I 0 1 1 forward I I I I #
face $-1 $74 $75 $18 $-1 $76 reversed single #
loop $-1 $-1 $77 $30 #
plane-surface $-1 0 0 -11.687067854017052 0 0 1 1 0 0 forward_v I I I I #
coedge $-1 $78 $79 $80 $81 forward $31 $-1 #
face $-1 $82 $83 $19 $-1 $84 reversed single #
loop $-1 $-1 $85 $33 #
plane-surface $-1 0 -33.609682451828974 8.4402479626048788 0 -1 0 0 0 -1 forward_v I I I I #
coedge $-1 $86 $87 $88 $89 reversed $34 $-1 #
face $-1 $90 $91 $20 $-1 $92 forward single #
loop $-1 $-1 $93 $36 #
plane-surface $-1 72.228766747032068 0 0 -1 0 0 0 0 1 forward_v I I I I #
coedge $-1 $94 $95 $96 $97 forward $37 $-1 #
face $-1 $98 $99 $21 $-1 $100 reversed single #
loop $-1 $-1 $101 $39 #
plane-surface $-1 -72.228766747032083 -22.305279308047282 7.9328118023590548 -0.71933980857756763 0 0.69465836192734942 0.69465836192734942 0 0.71933980857756763 forward_v I I I I #
coedge $-1 $102 $103 $104 $105 reversed $40 $-1 #
face $-1 $-1 $106 $22 $-1 $107 forward single #
loop $-1 $108 $109 $42 #
cone-surface $-1 -67.713729763207354 -25.574144194902033 7.2003440845353985 0.71933980857756763 0 -0.69465836192734942 0.34732918096367471 0 0.35966990428878381 1 I I -0.70710678118654746 0.70710678118654746 0.5 forward I I I I #
loop $-1 $-1 $110 $28 #
coedge $-1 $68 $68 $111 $112 reversed $43 $-1 #
face $-1 $-1 $113 $23 $-1 $114 forward single #
loop $-1 $115 $116 $45 #
cone-surface $-1 -67.713729763207354 -19.036414421192532 7.2003440845353985 0.71933980857756763 0 -0.69465836192734942 0.34732918096367471 0 0.35966990428878381 1 I I -0.70710678118654746 0.70710678118654746 0.5 forward I I I I #
loop $-1 $-1 $117 $29 #
coedge $-1 $73 $73 $118 $119 reversed $46 $-1 #
face $-1 $120 $121 $18 $-1 $122 reversed single #
loop $-1 $-1 $123 $48 #
plane-surface $-1 0 -42.450023541499661 0 0 1 0 0 0 1 forward_v I I I I #
coedge $-1 $124 $125 $126 $127 forward $49 $-1 #
coedge $-1 $128 $51 $129 $130 forward $31 $-1 #
coedge $-1 $51 $128 $131 $132 forward $31 $-1 #
coedge $-1 $133 $134 $51 $81 reversed $135 $-1 #
edge $-1 $136 -42.450023541499661 $137 42.450023541499661 $80 $138 forward 7 unknown #
face $-1 $139 $140 $19 $-1 $141 reversed single #
loop $-1 $-1 $142 $52 #
plane-surface $-1 -72.228766747032068 0 0 1 0 0 0 0 -1 forward_v I I I I #
coedge $-1 $143 $144 $145 $146 reversed $53 $-1 #
coedge $-1 $147 $55 $148 $149 reversed $34 $-1 #
coedge $-1 $55 $147 $143 $150 forward $34 $-1 #
coedge $-1 $145 $151 $55 $89 forward $152 $-1 #
edge $-1 $153 -23.435097043167502 $154 -14.594755953496815 $88 $155 forward 7 unknown #
face $-1 $156 $157 $20 $-1 $158 reversed single #
loop $-1 $-1 $159 $56 #
plane-surface $-1 0 47.488598944474347 -7.0688088743306716 0 0 1 1 0 0 forward_v I I I I #
coedge $-1 $160 $161 $95 $162 forward $57 $-1 #
coedge $-1 $163 $59 $164 $165 reversed $37 $-1 #
coedge $-1 $59 $163 $93 $162 reversed $37 $-1 #
coedge $-1 $159 $166 $59 $97 reversed $91 $-1 #
edge $-1 $167 -72.228766747032068 $168 72.228766747032068 $96 $169 forward 7 unknown #
face $-1 $170 $171 $21 $-1 $172 reversed single #
loop $-1 $-1 $173 $60 #
plane-surface $-1 -176.14282123823975 -14.677927905386197 108.28144538741086 0 -1 0 0.71933980857756763 0 -0.69465836192734942 forward_v I I I I #
coedge $-1 $174 $175 $176 $177 reversed $61 $-1 #
coedge $-1 $103 $63 $178 $179 reversed $40 $-1 #
coedge $-1 $63 $102 $174 $180 reversed $40 $-1 #
coedge $-1 $176 $181 $63 $105 forward $182 $-1 #
edge $-1 $183 15.842643872087805 $184 19.468086712874722 $104 $185 forward 7 unknown #
loop $-1 $-1 $111 $64 #
plane-surface $-1 -72.228766747032083 -22.305279308047282 7.9328118023590548 -0.71933980857756763 0 0.69465836192734942 0.69465836192734942 0 0.71933980857756763 forward_v I I I I #
loop $-1 $-1 $186 $42 #
coedge $-1 $109 $109 $110 $187 reversed $65 $-1 #
coedge $-1 $110 $110 $109 $187 forward $67 $-1 #
coedge $-1 $111 $111 $68 $112 forward $106 $-1 #
edge $-1 $188 0 $188 6.2831853071796004 $111 $189 forward 7 unknown #
loop $-1 $-1 $118 $69 #
plane-surface $-1 -72.228766747032083 -22.305279308047282 7.9328118023590548 -0.71933980857756763 0 0.69465836192734942 0.69465836192734942 0 0.71933980857756763 forward_v I I I I #
loop $-1 $-1 $190 $45 #
coedge $-1 $116 $116 $117 $191 reversed $70 $-1 #
coedge $-1 $117 $117 $116 $191 forward $72 $-1 #
coedge $-1 $118 $118 $73 $119 forward $113 $-1 #
edge $-1 $192 0 $192 6.2831853071796004 $118 $193 forward 7 unknown #
face $-1 $194 $195 $18 $-1 $196 reversed single #
loop $-1 $-1 $197 $74 #
plane-surface $-1 -72.228766747032068 0 0 1 0 0 0 0 -1 forward_v I I I I #
coedge $-1 $198 $131 $199 $200 forward $75 $-1 #
coedge $-1 $201 $77 $198 $202 forward $49 $-1 #
coedge $-1 $77 $201 $203 $204 forward $49 $-1 #
coedge $-1 $134 $133 $77 $127 reversed $135 $-1 #
edge $-1 $205 -42.450023541499661 $206 42.450023541499661 $126 $207 forward 7 unknown #
coedge $-1 $79 $78 $208 $209 forward $31 $-1 #
coedge $-1 $210 $211 $78 $130 reversed $195 $-1 #
edge $-1 $137 -72.228766747032068 $212 72.228766747032068 $129 $213 forward 7 unknown #
coedge $-1 $123 $214 $79 $132 reversed $75 $-1 #
edge $-1 $215 -72.228766747032068 $136 72.228766747032068 $131 $216 forward 7 unknown #
coedge $-1 $126 $80 $214 $217 forward $135 $-1 #
coedge $-1 $80 $126 $210 $218 reversed $135 $-1 #
loop $-1 $-1 $133 $194 #
vertex $-1 $81 $219 #
vertex $-1 $81 $220 #
straight-curve $-1 72.228766747032068 0 11.687067854017052 0 1 0 I I #
face $-1 $221 $222 $19 $-1 $223 forward single #
loop $-1 $-1 $148 $82 #
plane-surface $-1 0 -42.450023541499661 0 0 1 0 0 0 1 forward_v I I I I #
coedge $-1 $224 $225 $226 $227 forward $83 $-1 #
coedge $-1 $226 $85 $87 $150 reversed $53 $-1 #
coedge $-1 $85 $226 $228 $229 reversed $53 $-1 #
coedge $-1 $230 $88 $85 $146 forward $152 $-1 #
edge $-1 $154 0.97330408989026829 $231 7.4669438727146105 $145 $232 forward 7 unknown #
coedge $-1 $87 $86 $224 $233 reversed $34 $-1 #
coedge $-1 $234 $235 $86 $149 forward $140 $-1 #
edge $-1 $236 -72.228766747032068 $153 72.228766747032068 $148 $237 forward 7 unknown #
edge $-1 $238 -72.228766747032068 $154 72.228766747032068 $143 $239 forward 7 unknown #
coedge $-1 $88 $230 $234 $240 forward $152 $-1 #
loop $-1 $-1 $145 $221 #
vertex $-1 $149 $241 #
vertex $-1 $89 $242 #
straight-curve $-1 72.228766747032068 -19.014926498332159 5.1934280711927077 0 1 0 I I #
face $-1 $243 $244 $20 $-1 $245 reversed single #
loop $-1 $-1 $246 $90 #
plane-surface $-1 0 52.527174347449034 -9.3779383641738612 0 -1 0 0 0 -1 forward_v I I I I #
coedge $-1 $247 $96 $161 $248 forward $91 $-1 #
coedge $-1 $249 $93 $250 $251 reversed $57 $-1 #
coedge $-1 $93 $249 $159 $248 reversed $57 $-1 #
edge $-1 $167 7.0688088743306716 $252 11.687067854017052 $93 $253 forward 7 unknown #
coedge $-1 $95 $94 $254 $255 reversed $37 $-1 #
coedge $-1 $256 $257 $94 $165 forward $258 $-1 #
edge $-1 $259 -11.687067854017052 $168 -7.0688088743306716 $164 $260 forward 7 unknown #
coedge $-1 $96 $247 $256 $261 forward $91 $-1 #
vertex $-1 $162 $262 #
vertex $-1 $261 $263 #
straight-curve $-1 0 42.450023541499661 -7.0688088743306716 -1 0 0 I I #
face $-1 $-1 $182 $21 $-1 $264 forward single #
loop $-1 $-1 $265 $98 #
plane-surface $-1 -72.228766747032068 0 0 1 0 0 0 0 -1 forward_v I I I I #
coedge $-1 $266 $267 $268 $269 reversed $99 $-1 #
coedge $-1 $270 $101 $103 $180 forward $61 $-1 #
coedge $-1 $101 $270 $266 $271 forward $61 $-1 #
coedge $-1 $268 $104 $101 $177 forward $182 $-1 #
edge $-1 $184 -18.779991056684725 $272 -3.5252882513625554 $176 $273 forward 7 unknown #
coedge $-1 $274 $275 $102 $179 forward $171 $-1 #
edge $-1 $276 -46.207910891346359 $183 -42.453654839688376 $178 $277 forward 7 unknown #
edge $-1 $184 -5.219030014593125 $276 -2.0733024663016622e-014 $103 $278 forward 7 unknown #
coedge $-1 $104 $268 $274 $279 forward $182 $-1 #
loop $-1 $-1 $268 $170 #
vertex $-1 $179 $280 #
vertex $-1 $105 $281 #
straight-curve $-1 -88.071410619119874 -29.932630710708366 11.687067854017052 1 0 0 I I #
coedge $-1 $186 $186 $-1 $282 reversed $108 $-1 #
edge $-1 $283 0 $283 6.2831853071796004 $109 $284 forward 7 unknown #
vertex $-1 $112 $285 #
ellipse-curve $-1 -70.41604532663861 -25.574144194902033 9.8099398281880568 -0.71933980857756763 0 0.69465836192734942 0.69465836192734942 0 0.71933980857756763 1 I I #
coedge $-1 $190 $190 $-1 $286 reversed $115 $-1 #
edge $-1 $287 0 $287 6.2831853071796004 $116 $288 forward 7 unknown #
vertex $-1 $119 $289 #
ellipse-curve $-1 -70.41604532663861 -19.036414421192532 9.8099398281880568 -0.71933980857756763 0 0.69465836192734942 0.69465836192734942 0 0.71933980857756763 1 I I #
face $-1 $-1 $135 $18 $-1 $290 reversed single #
loop $-1 $-1 $211 $120 #
plane-surface $-1 0 42.450023541499661 0 0 -1 0 0 0 -1 forward_v I I I I #
coedge $-1 $291 $208 $211 $292 forward $121 $-1 #
coedge $-1 $214 $123 $124 $202 reversed $75 $-1 #
coedge $-1 $208 $291 $123 $200 reversed $121 $-1 #
edge $-1 $215 -11.687067854017052 $293 11.687067854017052 $199 $294 forward 7 unknown #
coedge $-1 $125 $124 $291 $295 forward $49 $-1 #
edge $-1 $206 -72.228766747032068 $293 72.228766747032068 $198 $296 forward 7 unknown #
coedge $-1 $211 $210 $125 $204 reversed $195 $-1 #
edge $-1 $297 -72.228766747032068 $205 72.228766747032068 $203 $298 forward 7 unknown #
vertex $-1 $127 $299 #
vertex $-1 $217 $300 #
straight-curve $-1 72.228766747032068 0 -11.687067854017052 0 -1 0 I I #
coedge $-1 $197 $199 $128 $209 reversed $121 $-1 #
edge $-1 $212 -42.450023541499661 $215 42.450023541499661 $208 $301 forward 7 unknown #
coedge $-1 $203 $129 $134 $218 forward $195 $-1 #
coedge $-1 $129 $203 $197 $292 reversed $195 $-1 #
vertex $-1 $130 $302 #
straight-curve $-1 0 42.450023541499661 11.687067854017052 -1 0 0 I I #
coedge $-1 $131 $198 $133 $217 reversed $75 $-1 #
vertex $-1 $209 $303 #
straight-curve $-1 0 -42.450023541499661 11.687067854017052 1 0 0 I I #
edge $-1 $136 -11.687067854017052 $206 11.687067854017052 $133 $304 forward 7 unknown #
edge $-1 $137 -11.687067854017052 $205 11.687067854017052 $134 $305 forward 7 unknown #
point $-1 72.228766747032068 -42.450023541499661 11.687067854017052 #
point $-1 72.228766747032068 42.450023541499661 11.687067854017052 #
face $-1 $-1 $152 $19 $-1 $306 reversed single #
loop $-1 $-1 $228 $139 #
plane-surface $-1 0 0 11.687067854017052 0 0 1 1 0 0 forward_v I I I I #
coedge $-1 $307 $142 $147 $233 forward $83 $-1 #
coedge $-1 $142 $307 $308 $309 reversed $83 $-1 #
coedge $-1 $144 $143 $142 $227 reversed $53 $-1 #
edge $-1 $310 -7.4669438727146105 $238 -0.97330408989026829 $142 $311 forward 7 unknown #
coedge $-1 $308 $312 $144 $229 forward $222 $-1 #
edge $-1 $231 -72.228766747032068 $310 72.228766747032068 $228 $313 forward 7 unknown #
coedge $-1 $151 $145 $312 $314 reversed $152 $-1 #
vertex $-1 $146 $315 #
straight-curve $-1 72.228766747032068 -33.609682451828974 4.2201239813024394 0 0 1 I I #
edge $-1 $238 14.594755953496815 $236 23.435097043167502 $224 $316 forward 7 unknown #
coedge $-1 $317 $148 $151 $240 reversed $140 $-1 #
coedge $-1 $148 $317 $307 $318 forward $140 $-1 #
vertex $-1 $149 $319 #
straight-curve $-1 0 -42.450023541499661 5.1934280711927077 1 0 0 I I #
vertex $-1 $233 $320 #
straight-curve $-1 0 -33.609682451828974 5.1934280711927077 1 0 0 I I #
edge $-1 $321 -11.687067854017052 $153 -5.1934280711927077 $151 $322 forward 7 unknown #
point $-1 72.228766747032068 -42.450023541499661 5.1934280711927077 #
point $-1 72.228766747032068 -33.609682451828974 5.1934280711927077 #
face $-1 $-1 $258 $20 $-1 $323 reversed single #
loop $-1 $-1 $254 $156 #
plane-surface $-1 0 0 -11.687067854017052 0 0 1 1 0 0 forward_v I I I I #
coedge $-1 $324 $325 $249 $326 forward $157 $-1 #
coedge $-1 $166 $159 $325 $327 forward $91 $-1 #
edge $-1 $167 -5.0385754029746863 $328 5.0385754029746863 $161 $329 forward 7 unknown #
coedge $-1 $161 $160 $246 $326 reversed $57 $-1 #
coedge $-1 $254 $330 $160 $251 forward $244 $-1 #
edge $-1 $331 -52.527174347449034 $252 -42.450023541499661 $160 $332 forward 7 unknown #
vertex $-1 $255 $333 #
straight-curve $-1 72.228766747032068 42.450023541499661 0 0 0 -1 I I #
coedge $-1 $334 $250 $163 $255 forward $244 $-1 #
edge $-1 $252 -72.228766747032068 $259 72.228766747032068 $254 $335 forward 7 unknown #
coedge $-1 $336 $164 $166 $261 reversed $258 $-1 #
coedge $-1 $164 $336 $334 $337 reversed $258 $-1 #
loop $-1 $-1 $164 $243 #
vertex $-1 $337 $338 #
straight-curve $-1 -72.228766747032068 42.450023541499661 0 0 0 1 I I #
edge $-1 $339 -5.0385754029746863 $168 5.0385754029746863 $256 $340 forward 7 unknown #
point $-1 72.228766747032068 42.450023541499661 -7.0688088743306716 #
point $-1 -72.228766747032068 42.450023541499661 -7.0688088743306716 #
plane-surface $-1 0 0 11.687067854017052 0 0 1 1 0 0 forward_v I I I I #
coedge $-1 $275 $274 $267 $341 forward $171 $-1 #
coedge $-1 $267 $173 $175 $271 reversed $99 $-1 #
coedge $-1 $173 $266 $265 $341 reversed $99 $-1 #
coedge $-1 $181 $176 $173 $269 forward $182 $-1 #
edge $-1 $272 -19.468086712874722 $342 -15.842643872087805 $268 $343 forward 7 unknown #
coedge $-1 $175 $174 $275 $344 reversed $61 $-1 #
edge $-1 $345 2.0733024663016622e-014 $272 5.219030014593125 $266 $346 forward 7 unknown #
vertex $-1 $177 $347 #
straight-curve $-1 -68.603323906245151 -11.152639654023641 11.687067854017053 0 1 0 I I #
coedge $-1 $265 $178 $181 $279 reversed $171 $-1 #
coedge $-1 $178 $265 $270 $344 forward $171 $-1 #
vertex $-1 $179 $348 #
straight-curve $-1 -72.228766747032068 -29.932630710708366 54.140722693705428 0 0 1 I I #
straight-curve $-1 -72.228766747032083 -29.932630710708366 7.9328118023590548 -0.69465836192734942 0 -0.71933980857756763 I I #
edge $-1 $342 14.677927905386197 $183 29.932630710708366 $274 $349 forward 7 unknown #
point $-1 -72.228766747032068 -29.932630710708366 11.687067854017052 #
point $-1 -68.603323906245151 -29.932630710708366 11.687067854017052 #
edge $-1 $350 1 $350 0 $186 $-1 forward 7 unknown #
vertex $-1 $187 $351 #
ellipse-curve $-1 -68.073399667496133 -25.574144194902033 7.547673265499073 -0.71933980857756763 0 0.69465836192734942 0.69465836192734942 0 0.71933980857756763 1 I I #
point $-1 -69.721386964711243 -25.574144194902033 10.529279636765608 #
edge $-1 $352 1 $352 0 $190 $-1 forward 7 unknown #
vertex $-1 $191 $353 #
ellipse-curve $-1 -68.073399667496133 -19.036414421192532 7.547673265499073 -0.71933980857756763 0 0.69465836192734942 0.69465836192734942 0 0.71933980857756763 1 I I #
point $-1 -69.721386964711243 -19.036414421192532 10.529279636765608 #
plane-surface $-1 72.228766747032068 0 0 -1 0 0 0 0 1 forward_v I I I I #
coedge $-1 $199 $197 $201 $295 reversed $121 $-1 #
edge $-1 $212 -11.687067854017052 $297 11.687067854017052 $211 $354 forward 7 unknown #
vertex $-1 $295 $355 #
straight-curve $-1 -72.228766747032068 -42.450023541499661 0 0 0 -1 I I #
edge $-1 $293 -42.450023541499661 $297 42.450023541499661 $291 $356 forward 7 unknown #
straight-curve $-1 0 -42.450023541499661 -11.687067854017052 -1 0 0 I I #
vertex $-1 $204 $357 #
straight-curve $-1 0 42.450023541499661 -11.687067854017052 1 0 0 I I #
point $-1 72.228766747032068 42.450023541499661 -11.687067854017052 #
point $-1 72.228766747032068 -42.450023541499661 -11.687067854017052 #
straight-curve $-1 -72.228766747032068 0 11.687067854017052 0 -1 0 I I #
point $-1 -72.228766747032068 42.450023541499661 11.687067854017052 #
point $-1 -72.228766747032068 -42.450023541499661 11.687067854017052 #
straight-curve $-1 72.228766747032068 -42.450023541499661 0 0 0 -1 I I #
straight-curve $-1 72.228766747032068 42.450023541499661 0 0 0 -1 I I #
plane-surface $-1 72.228766747032068 0 0 -1 0 0 0 0 1 forward_v I I I I #
coedge $-1 $225 $224 $235 $318 reversed $83 $-1 #
coedge $-1 $358 $228 $225 $309 forward $222 $-1 #
edge $-1 $310 33.609682451828974 $359 42.450023541499661 $225 $360 forward 7 unknown #
vertex $-1 $309 $361 #
straight-curve $-1 -72.228766747032068 -33.609682451828974 4.2201239813024394 0 0 -1 I I #
coedge $-1 $228 $358 $230 $314 forward $222 $-1 #
straight-curve $-1 0 -33.609682451828974 11.687067854017052 -1 0 0 I I #
edge $-1 $321 -42.450023541499661 $231 -33.609682451828974 $230 $362 forward 7 unknown #
point $-1 72.228766747032068 -33.609682451828974 11.68706785401705 #
straight-curve $-1 -72.228766747032068 -19.014926498332159 5.1934280711927077 0 -1 0 I I #
coedge $-1 $235 $234 $358 $363 reversed $140 $-1 #
edge $-1 $359 -11.687067854017052 $236 -5.1934280711927077 $307 $364 forward 7 unknown #
point $-1 -72.228766747032068 -42.450023541499661 5.1934280711927077 #
point $-1 -72.228766747032068 -33.609682451828974 5.1934280711927077 #
vertex $-1 $314 $365 #
straight-curve $-1 72.228766747032068 -42.450023541499661 0 0 0 -1 I I #
plane-surface $-1 -72.228766747032068 0 0 1 0 0 0 0 -1 forward_v I I I I #
coedge $-1 $366 $246 $330 $367 reversed $157 $-1 #
coedge $-1 $246 $366 $247 $327 reversed $157 $-1 #
edge $-1 $328 -2.3091294898431896 $331 2.3091294898431904 $249 $368 forward 7 unknown #
edge $-1 $328 -72.228766747032068 $339 72.228766747032068 $325 $369 forward 7 unknown #
vertex $-1 $248 $370 #
straight-curve $-1 72.228766747032068 47.488598944474347 -7.0688088743306716 0 1 0 I I #
coedge $-1 $250 $334 $324 $367 forward $244 $-1 #
vertex $-1 $251 $371 #
straight-curve $-1 72.228766747032068 0 -11.687067854017052 0 -1 0 I I #
point $-1 72.228766747032068 42.450023541499661 -11.687067854017052 #
coedge $-1 $330 $254 $257 $337 forward $244 $-1 #
straight-curve $-1 0 42.450023541499661 -11.687067854017052 -1 0 0 I I #
coedge $-1 $257 $256 $366 $372 forward $258 $-1 #
edge $-1 $259 -5.0385754029746863 $373 5.0385754029746863 $257 $374 forward 7 unknown #
point $-1 -72.228766747032068 42.450023541499661 -11.687067854017052 #
vertex $-1 $327 $375 #
straight-curve $-1 -72.228766747032068 47.488598944474347 -7.0688088743306716 0 -1 0 I I #
edge $-1 $342 42.453654839688376 $345 46.207910891346359 $265 $376 forward 7 unknown #
vertex $-1 $279 $377 #
straight-curve $-1 -88.071410619119874 -14.677927905386197 11.687067854017052 -1 0 0 I I #
edge $-1 $345 3.5252882513625554 $276 18.779991056684725 $275 $378 forward 7 unknown #
vertex $-1 $344 $379 #
straight-curve $-1 -72.228766747032083 -14.677927905386197 7.9328118023590548 0.69465836192734942 0 0.71933980857756763 I I #
point $-1 -68.603323906245151 -14.677927905386197 11.687067854017052 #
point $-1 -72.228766747032068 -29.932630710708366 7.9328118023590699 #
straight-curve $-1 -72.228766747032068 0 11.687067854017052 0 -1 0 I I #
vertex $-1 $282 $380 #
point $-1 -67.378741305568795 -25.574144194902033 8.2670130740766403 #
vertex $-1 $286 $381 #
point $-1 -67.378741305568795 -19.036414421192532 8.2670130740766403 #
straight-curve $-1 -72.228766747032068 42.450023541499661 0 0 0 -1 I I #
point $-1 -72.228766747032068 -42.450023541499661 -11.687067854017052 #
straight-curve $-1 -72.228766747032068 0 -11.687067854017052 0 1 0 I I #
point $-1 -72.228766747032068 42.450023541499661 -11.687067854017052 #
coedge $-1 $312 $308 $317 $363 forward $222 $-1 #
vertex $-1 $309 $382 #
straight-curve $-1 -72.228766747032068 0 11.687067854017052 0 -1 0 I I #
point $-1 -72.228766747032068 -33.609682451828974 11.68706785401705 #
straight-curve $-1 72.228766747032068 0 11.687067854017052 0 1 0 I I #
edge $-1 $359 -72.228766747032068 $321 72.228766747032068 $317 $383 forward 7 unknown #
straight-curve $-1 -72.228766747032068 -42.450023541499661 0 0 0 -1 I I #
point $-1 72.228766747032068 -42.450023541499661 11.687067854017052 #
coedge $-1 $325 $324 $336 $372 reversed $157 $-1 #
edge $-1 $373 -72.228766747032068 $331 72.228766747032068 $324 $384 forward 7 unknown #
straight-curve $-1 72.228766747032068 52.527174347449034 -9.3779383641738612 0 0 -1 I I #
straight-curve $-1 0 52.527174347449034 -7.0688088743306716 -1 0 0 I I #
point $-1 72.228766747032068 52.527174347449034 -7.0688088743306716 #
point $-1 72.228766747032068 52.527174347449034 -11.687067854017052 #
edge $-1 $339 -2.3091294898431896 $373 2.3091294898431904 $366 $385 forward 7 unknown #
vertex $-1 $367 $386 #
straight-curve $-1 -72.228766747032068 47.488598944474347 -11.687067854017052 0 1 0 I I #
point $-1 -72.228766747032068 52.527174347449034 -7.0688088743306716 #
straight-curve $-1 -72.228766747032068 -14.677927905386197 54.140722693705428 0 0 -1 I I #
point $-1 -72.228766747032068 -14.677927905386197 11.687067854017052 #
straight-curve $-1 -72.228766747032068 -11.152639654023641 7.9328118023590672 0 -1 0 I I #
point $-1 -72.228766747032068 -14.677927905386197 7.9328118023590699 #
point $-1 -67.354059858918575 -25.574144194902033 6.853014903571724 #
point $-1 -67.354059858918575 -19.036414421192532 6.853014903571724 #
point $-1 -72.228766747032068 -42.450023541499661 11.687067854017052 #
straight-curve $-1 0 -42.450023541499661 11.687067854017052 1 0 0 I I #
straight-curve $-1 0 52.527174347449034 -11.687067854017052 1 0 0 I I #
straight-curve $-1 -72.228766747032068 52.527174347449034 -9.3779383641738612 0 0 -1 I I #
point $-1 -72.228766747032068 52.527174347449034 -11.687067854017052 #
End-of-ACIS-data 