500 0 13 0           
7 Unknown 11 ACIS 5.0 NT 24 Fri Mar 26 20:00:41 1999 
-1 9.9999999999999995e-007 1e-010 
body $-1 $13 $-1 $14 #
body $-1 $15 $-1 $16 #
body $-1 $17 $-1 $18 #
body $-1 $19 $-1 $20 #
body $-1 $21 $-1 $22 #
body $-1 $23 $-1 $24 #
body $-1 $25 $-1 $26 #
body $-1 $27 $-1 $28 #
body $-1 $29 $-1 $30 #
body $-1 $31 $-1 $32 #
body $-1 $33 $-1 $34 #
body $-1 $35 $-1 $36 #
body $-1 $37 $-1 $38 #
lump $-1 $-1 $39 $0 #
transform $-1 1 0 0 0 1 0 0 0 1 59.165623950926232 34.078691582244666 9.2172736029433082 1 rotate no_reflect no_shear #
lump $-1 $-1 $40 $1 #
transform $-1 1 0 0 0 0.52991925155115449 -0.84804810408105047 0 0.84804810408105047 0.52991925155115449 22.310931200977652 132.39006412698865 130.64939085823539 1 rotate no_reflect no_shear #
lump $-1 $-1 $41 $2 #
transform $-1 1 0 0 0 -0.52991925155115449 0.84804810408105047 0 -0.84804810408105047 -0.52991925155115449 19.194410869055311 62.999695139730989 12.684550062464268 1 rotate no_reflect no_shear #
lump $-1 $-1 $42 $3 #
transform $-1 1 0 0 0 -0.52991925155115449 0.84804810408105047 0 -0.84804810408105047 -0.52991925155115449 25.427451532899994 62.999695139730989 12.684550062464268 1 rotate no_reflect no_shear #
lump $-1 $-1 $43 $4 #
transform $-1 1 0 0 0 0.52991925155115449 -0.84804810408105047 0 0.84804810408105047 0.52991925155115449 51.893743176440765 132.39006412698865 130.64939085823539 1 rotate no_reflect no_shear #
lump $-1 $-1 $44 $5 #
transform $-1 1 0 0 0 -0.52991925155115449 0.84804810408105047 0 -0.84804810408105047 -0.52991925155115449 48.777222844518427 62.999695139730989 12.684550062464268 1 rotate no_reflect no_shear #
lump $-1 $-1 $45 $6 #
transform $-1 1 0 0 0 -0.52991925155115449 0.84804810408105047 0 -0.84804810408105047 -0.52991925155115449 55.01026350836311 62.999695139730989 12.684550062464268 1 rotate no_reflect no_shear #
lump $-1 $-1 $46 $7 #
transform $-1 1 0 0 0 0.52991925155115449 -0.84804810408105047 0 0.84804810408105047 0.52991925155115449 81.476555151903881 132.39006412698865 130.64939085823539 1 rotate no_reflect no_shear #
lump $-1 $-1 $47 $8 #
transform $-1 1 0 0 0 -0.52991925155115449 0.84804810408105047 0 -0.84804810408105047 -0.52991925155115449 78.360034819981536 62.999695139730989 12.684550062464268 1 rotate no_reflect no_shear #
lump $-1 $-1 $48 $9 #
transform $-1 1 0 0 0 -0.52991925155115449 0.84804810408105047 0 -0.84804810408105047 -0.52991925155115449 84.593075483826226 62.999695139730989 12.684550062464268 1 rotate no_reflect no_shear #
lump $-1 $-1 $49 $10 #
transform $-1 1 0 0 0 0.52991925155115449 -0.84804810408105047 0 0.84804810408105047 0.52991925155115449 111.059367127367 132.39006412698865 130.64939085823539 1 rotate no_reflect no_shear #
lump $-1 $-1 $50 $11 #
transform $-1 1 0 0 0 -0.52991925155115449 0.84804810408105047 0 -0.84804810408105047 -0.52991925155115449 107.94284679544465 62.999695139730989 12.684550062464268 1 rotate no_reflect no_shear #
lump $-1 $-1 $51 $12 #
transform $-1 1 0 0 0 -0.52991925155115449 0.84804810408105047 0 -0.84804810408105047 -0.52991925155115449 114.17588745928934 62.999695139730989 12.684550062464268 1 rotate no_reflect no_shear #
shell $-1 $-1 $-1 $52 $-1 $13 #
shell $-1 $-1 $-1 $53 $-1 $15 #
shell $-1 $-1 $-1 $54 $-1 $17 #
shell $-1 $-1 $-1 $55 $-1 $19 #
shell $-1 $-1 $-1 $56 $-1 $21 #
shell $-1 $-1 $-1 $57 $-1 $23 #
shell $-1 $-1 $-1 $58 $-1 $25 #
shell $-1 $-1 $-1 $59 $-1 $27 #
shell $-1 $-1 $-1 $60 $-1 $29 #
shell $-1 $-1 $-1 $61 $-1 $31 #
shell $-1 $-1 $-1 $62 $-1 $33 #
shell $-1 $-1 $-1 $63 $-1 $35 #
shell $-1 $-1 $-1 $64 $-1 $37 #
face $-1 $65 $66 $39 $-1 $67 forward single #
face $-1 $68 $69 $40 $-1 $70 forward single #
face $-1 $71 $72 $41 $-1 $73 forward single #
face $-1 $74 $75 $42 $-1 $76 forward single #
face $-1 $77 $78 $43 $-1 $79 forward single #
face $-1 $80 $81 $44 $-1 $82 forward single #
face $-1 $83 $84 $45 $-1 $85 forward single #
face $-1 $86 $87 $46 $-1 $88 forward single #
face $-1 $89 $90 $47 $-1 $91 forward single #
face $-1 $92 $93 $48 $-1 $94 forward single #
face $-1 $95 $96 $49 $-1 $97 forward single #
face $-1 $98 $99 $50 $-1 $100 forward single #
face $-1 $101 $102 $51 $-1 $103 forward single #
face $-1 $104 $105 $39 $-1 $106 reversed single #
loop $-1 $-1 $107 $52 #
plane-surface $-1 0 0 9.2172736029433082 0 0 1 1 0 0 forward_v I I I I #
face $-1 $108 $109 $40 $-1 $110 reversed single #
loop $-1 $-1 $111 $53 #
plane-surface $-1 0 0 118.33124790185246 0 0 1 1 0 0 forward_v I I I I #
face $-1 $112 $113 $41 $-1 $114 forward single #
loop $-1 $115 $116 $54 #
cone-surface $-1 0 0 -1.7634815515610223 0 0 1 1 0 0 1 I I 0 1 1 forward I I I I #
face $-1 $117 $118 $42 $-1 $119 forward single #
loop $-1 $120 $121 $55 #
cone-surface $-1 0 0 -1.7634815515610223 0 0 1 1 0 0 1 I I 0 1 1 forward I I I I #
face $-1 $122 $123 $43 $-1 $124 reversed single #
loop $-1 $-1 $125 $56 #
plane-surface $-1 0 0 118.33124790185246 0 0 1 1 0 0 forward_v I I I I #
face $-1 $126 $127 $44 $-1 $128 forward single #
loop $-1 $129 $130 $57 #
cone-surface $-1 0 0 -1.7634815515610223 0 0 1 1 0 0 1 I I 0 1 1 forward I I I I #
face $-1 $131 $132 $45 $-1 $133 forward single #
loop $-1 $134 $135 $58 #
cone-surface $-1 0 0 -1.7634815515610223 0 0 1 1 0 0 1 I I 0 1 1 forward I I I I #
face $-1 $136 $137 $46 $-1 $138 reversed single #
loop $-1 $-1 $139 $59 #
plane-surface $-1 0 0 118.33124790185246 0 0 1 1 0 0 forward_v I I I I #
face $-1 $140 $141 $47 $-1 $142 forward single #
loop $-1 $143 $144 $60 #
cone-surface $-1 0 0 -1.7634815515610223 0 0 1 1 0 0 1 I I 0 1 1 forward I I I I #
face $-1 $145 $146 $48 $-1 $147 forward single #
loop $-1 $148 $149 $61 #
cone-surface $-1 0 0 -1.7634815515610223 0 0 1 1 0 0 1 I I 0 1 1 forward I I I I #
face $-1 $150 $151 $49 $-1 $152 reversed single #
loop $-1 $-1 $153 $62 #
plane-surface $-1 0 0 118.33124790185246 0 0 1 1 0 0 forward_v I I I I #
face $-1 $154 $155 $50 $-1 $156 forward single #
loop $-1 $157 $158 $63 #
cone-surface $-1 0 0 -1.7634815515610223 0 0 1 1 0 0 1 I I 0 1 1 forward I I I I #
face $-1 $159 $160 $51 $-1 $161 forward single #
loop $-1 $162 $163 $64 #
cone-surface $-1 0 0 -1.7634815515610223 0 0 1 1 0 0 1 I I 0 1 1 forward I I I I #
face $-1 $164 $165 $39 $-1 $166 reversed single #
loop $-1 $-1 $167 $65 #
plane-surface $-1 0 0 -9.2172736029433082 0 0 1 1 0 0 forward_v I I I I #
coedge $-1 $168 $169 $170 $171 forward $66 $-1 #
face $-1 $172 $173 $40 $-1 $174 reversed single #
loop $-1 $-1 $175 $68 #
plane-surface $-1 0 0 -118.33124790185246 0 0 1 1 0 0 forward_v I I I I #
coedge $-1 $176 $177 $178 $179 forward $69 $-1 #
face $-1 $-1 $180 $41 $-1 $181 forward single #
loop $-1 $-1 $182 $71 #
plane-surface $-1 0 0 -3.0269631031220441 0 0 -1 -1 0 0 forward_v I I I I #
loop $-1 $-1 $183 $54 #
coedge $-1 $116 $116 $182 $184 reversed $72 $-1 #
face $-1 $-1 $185 $42 $-1 $186 forward single #
loop $-1 $-1 $187 $74 #
plane-surface $-1 0 0 -3.0269631031220441 0 0 -1 -1 0 0 forward_v I I I I #
loop $-1 $-1 $188 $55 #
coedge $-1 $121 $121 $187 $189 reversed $75 $-1 #
face $-1 $190 $191 $43 $-1 $192 reversed single #
loop $-1 $-1 $193 $77 #
plane-surface $-1 0 0 -118.33124790185246 0 0 1 1 0 0 forward_v I I I I #
coedge $-1 $194 $195 $196 $197 forward $78 $-1 #
face $-1 $-1 $198 $44 $-1 $199 forward single #
loop $-1 $-1 $200 $80 #
plane-surface $-1 0 0 -3.0269631031220441 0 0 -1 -1 0 0 forward_v I I I I #
loop $-1 $-1 $201 $57 #
coedge $-1 $130 $130 $200 $202 reversed $81 $-1 #
face $-1 $-1 $203 $45 $-1 $204 forward single #
loop $-1 $-1 $205 $83 #
plane-surface $-1 0 0 -3.0269631031220441 0 0 -1 -1 0 0 forward_v I I I I #
loop $-1 $-1 $206 $58 #
coedge $-1 $135 $135 $205 $207 reversed $84 $-1 #
face $-1 $208 $209 $46 $-1 $210 reversed single #
loop $-1 $-1 $211 $86 #
plane-surface $-1 0 0 -118.33124790185246 0 0 1 1 0 0 forward_v I I I I #
coedge $-1 $212 $213 $214 $215 forward $87 $-1 #
face $-1 $-1 $216 $47 $-1 $217 forward single #
loop $-1 $-1 $218 $89 #
plane-surface $-1 0 0 -3.0269631031220441 0 0 -1 -1 0 0 forward_v I I I I #
loop $-1 $-1 $219 $60 #
coedge $-1 $144 $144 $218 $220 reversed $90 $-1 #
face $-1 $-1 $221 $48 $-1 $222 forward single #
loop $-1 $-1 $223 $92 #
plane-surface $-1 0 0 -3.0269631031220441 0 0 -1 -1 0 0 forward_v I I I I #
loop $-1 $-1 $224 $61 #
coedge $-1 $149 $149 $223 $225 reversed $93 $-1 #
face $-1 $226 $227 $49 $-1 $228 reversed single #
loop $-1 $-1 $229 $95 #
plane-surface $-1 0 0 -118.33124790185246 0 0 1 1 0 0 forward_v I I I I #
coedge $-1 $230 $231 $232 $233 forward $96 $-1 #
face $-1 $-1 $234 $50 $-1 $235 forward single #
loop $-1 $-1 $236 $98 #
plane-surface $-1 0 0 -3.0269631031220441 0 0 -1 -1 0 0 forward_v I I I I #
loop $-1 $-1 $237 $63 #
coedge $-1 $158 $158 $236 $238 reversed $99 $-1 #
face $-1 $-1 $239 $51 $-1 $240 forward single #
loop $-1 $-1 $241 $101 #
plane-surface $-1 0 0 -3.0269631031220441 0 0 -1 -1 0 0 forward_v I I I I #
loop $-1 $-1 $242 $64 #
coedge $-1 $163 $163 $241 $243 reversed $102 $-1 #
face $-1 $244 $245 $39 $-1 $246 reversed single #
loop $-1 $-1 $247 $104 #
plane-surface $-1 0 -34.078691582244666 0 0 1 0 0 0 1 forward_v I I I I #
coedge $-1 $248 $249 $250 $251 forward $105 $-1 #
coedge $-1 $252 $107 $253 $254 forward $66 $-1 #
coedge $-1 $107 $252 $255 $256 forward $66 $-1 #
coedge $-1 $257 $258 $107 $171 reversed $259 $-1 #
edge $-1 $260 -34.078691582244666 $261 34.078691582244666 $170 $262 forward 7 unknown #
face $-1 $263 $264 $40 $-1 $265 reversed single #
loop $-1 $-1 $266 $108 #
plane-surface $-1 0 -236.66249580370493 0 0 1 0 0 0 1 forward_v I I I I #
coedge $-1 $267 $268 $269 $270 forward $109 $-1 #
coedge $-1 $271 $111 $272 $273 forward $69 $-1 #
coedge $-1 $111 $271 $274 $275 forward $69 $-1 #
coedge $-1 $276 $277 $111 $179 reversed $278 $-1 #
edge $-1 $279 -236.66249580370493 $280 236.66249580370493 $178 $281 forward 7 unknown #
loop $-1 $282 $283 $112 #
cone-surface $-1 0 0 0 0 0 1 0.5 0 0 1 I I -0.70710678118654746 0.70710678118654746 0.5 forward I I I I #
coedge $-1 $182 $182 $116 $184 forward $113 $-1 #
coedge $-1 $183 $183 $283 $284 forward $115 $-1 #
edge $-1 $285 0 $285 6.2831853071796004 $182 $286 forward 7 unknown #
loop $-1 $287 $288 $117 #
cone-surface $-1 0 0 0 0 0 1 0.5 0 0 1 I I -0.70710678118654746 0.70710678118654746 0.5 forward I I I I #
coedge $-1 $187 $187 $121 $189 forward $118 $-1 #
coedge $-1 $188 $188 $288 $289 forward $120 $-1 #
edge $-1 $290 0 $290 6.2831853071796004 $187 $291 forward 7 unknown #
face $-1 $292 $293 $43 $-1 $294 reversed single #
loop $-1 $-1 $295 $122 #
plane-surface $-1 0 -236.66249580370493 0 0 1 0 0 0 1 forward_v I I I I #
coedge $-1 $296 $297 $298 $299 forward $123 $-1 #
coedge $-1 $300 $125 $301 $302 forward $78 $-1 #
coedge $-1 $125 $300 $303 $304 forward $78 $-1 #
coedge $-1 $305 $306 $125 $197 reversed $307 $-1 #
edge $-1 $308 -236.66249580370493 $309 236.66249580370493 $196 $310 forward 7 unknown #
loop $-1 $311 $312 $126 #
cone-surface $-1 0 0 0 0 0 1 0.5 0 0 1 I I -0.70710678118654746 0.70710678118654746 0.5 forward I I I I #
coedge $-1 $200 $200 $130 $202 forward $127 $-1 #
coedge $-1 $201 $201 $312 $313 forward $129 $-1 #
edge $-1 $314 0 $314 6.2831853071796004 $200 $315 forward 7 unknown #
loop $-1 $316 $317 $131 #
cone-surface $-1 0 0 0 0 0 1 0.5 0 0 1 I I -0.70710678118654746 0.70710678118654746 0.5 forward I I I I #
coedge $-1 $205 $205 $135 $207 forward $132 $-1 #
coedge $-1 $206 $206 $317 $318 forward $134 $-1 #
edge $-1 $319 0 $319 6.2831853071796004 $205 $320 forward 7 unknown #
face $-1 $321 $322 $46 $-1 $323 reversed single #
loop $-1 $-1 $324 $136 #
plane-surface $-1 0 -236.66249580370493 0 0 1 0 0 0 1 forward_v I I I I #
coedge $-1 $325 $326 $327 $328 forward $137 $-1 #
coedge $-1 $329 $139 $330 $331 forward $87 $-1 #
coedge $-1 $139 $329 $332 $333 forward $87 $-1 #
coedge $-1 $334 $335 $139 $215 reversed $336 $-1 #
edge $-1 $337 -236.66249580370493 $338 236.66249580370493 $214 $339 forward 7 unknown #
loop $-1 $340 $341 $140 #
cone-surface $-1 0 0 0 0 0 1 0.5 0 0 1 I I -0.70710678118654746 0.70710678118654746 0.5 forward I I I I #
coedge $-1 $218 $218 $144 $220 forward $141 $-1 #
coedge $-1 $219 $219 $341 $342 forward $143 $-1 #
edge $-1 $343 0 $343 6.2831853071796004 $218 $344 forward 7 unknown #
loop $-1 $345 $346 $145 #
cone-surface $-1 0 0 0 0 0 1 0.5 0 0 1 I I -0.70710678118654746 0.70710678118654746 0.5 forward I I I I #
coedge $-1 $223 $223 $149 $225 forward $146 $-1 #
coedge $-1 $224 $224 $346 $347 forward $148 $-1 #
edge $-1 $348 0 $348 6.2831853071796004 $223 $349 forward 7 unknown #
face $-1 $350 $351 $49 $-1 $352 reversed single #
loop $-1 $-1 $353 $150 #
plane-surface $-1 0 -236.66249580370493 0 0 1 0 0 0 1 forward_v I I I I #
coedge $-1 $354 $355 $356 $357 forward $151 $-1 #
coedge $-1 $358 $153 $359 $360 forward $96 $-1 #
coedge $-1 $153 $358 $361 $362 forward $96 $-1 #
coedge $-1 $363 $364 $153 $233 reversed $365 $-1 #
edge $-1 $366 -236.66249580370493 $367 236.66249580370493 $232 $368 forward 7 unknown #
loop $-1 $369 $370 $154 #
cone-surface $-1 0 0 0 0 0 1 0.5 0 0 1 I I -0.70710678118654746 0.70710678118654746 0.5 forward I I I I #
coedge $-1 $236 $236 $158 $238 forward $155 $-1 #
coedge $-1 $237 $237 $370 $371 forward $157 $-1 #
edge $-1 $372 0 $372 6.2831853071796004 $236 $373 forward 7 unknown #
loop $-1 $374 $375 $159 #
cone-surface $-1 0 0 0 0 0 1 0.5 0 0 1 I I -0.70710678118654746 0.70710678118654746 0.5 forward I I I I #
coedge $-1 $241 $241 $163 $243 forward $160 $-1 #
coedge $-1 $242 $242 $375 $376 forward $162 $-1 #
edge $-1 $377 0 $377 6.2831853071796004 $241 $378 forward 7 unknown #
face $-1 $379 $380 $39 $-1 $381 reversed single #
loop $-1 $-1 $382 $164 #
plane-surface $-1 -59.165623950926232 0 0 1 0 0 0 0 -1 forward_v I I I I #
coedge $-1 $383 $255 $384 $385 forward $165 $-1 #
coedge $-1 $386 $167 $383 $387 forward $105 $-1 #
coedge $-1 $167 $386 $388 $389 forward $105 $-1 #
coedge $-1 $258 $257 $167 $251 reversed $259 $-1 #
edge $-1 $390 -34.078691582244666 $391 34.078691582244666 $250 $392 forward 7 unknown #
coedge $-1 $169 $168 $393 $394 forward $66 $-1 #
coedge $-1 $395 $396 $168 $254 reversed $380 $-1 #
edge $-1 $261 -59.165623950926232 $397 59.165623950926232 $253 $398 forward 7 unknown #
coedge $-1 $247 $399 $169 $256 reversed $165 $-1 #
edge $-1 $400 -59.165623950926232 $260 59.165623950926232 $255 $401 forward 7 unknown #
coedge $-1 $250 $170 $399 $402 forward $259 $-1 #
coedge $-1 $170 $250 $395 $403 reversed $259 $-1 #
loop $-1 $-1 $257 $379 #
vertex $-1 $171 $404 #
vertex $-1 $171 $405 #
straight-curve $-1 59.165623950926232 0 9.2172736029433082 0 1 0 I I #
face $-1 $406 $407 $40 $-1 $408 reversed single #
loop $-1 $-1 $409 $172 #
plane-surface $-1 -7.2718807744854645 0 0 1 0 0 0 0 -1 forward_v I I I I #
coedge $-1 $410 $274 $411 $412 forward $173 $-1 #
coedge $-1 $413 $175 $410 $414 forward $109 $-1 #
coedge $-1 $175 $413 $415 $416 forward $109 $-1 #
coedge $-1 $277 $276 $175 $270 reversed $278 $-1 #
edge $-1 $417 -236.66249580370493 $418 236.66249580370493 $269 $419 forward 7 unknown #
coedge $-1 $177 $176 $420 $421 forward $69 $-1 #
coedge $-1 $422 $423 $176 $273 reversed $407 $-1 #
edge $-1 $280 -7.2718807744854645 $424 7.2718807744854645 $272 $425 forward 7 unknown #
coedge $-1 $266 $426 $177 $275 reversed $173 $-1 #
edge $-1 $427 -7.2718807744854645 $279 7.2718807744854645 $274 $428 forward 7 unknown #
coedge $-1 $269 $178 $426 $429 forward $278 $-1 #
coedge $-1 $178 $269 $422 $430 reversed $278 $-1 #
loop $-1 $-1 $276 $406 #
vertex $-1 $179 $431 #
vertex $-1 $179 $432 #
straight-curve $-1 7.2718807744854645 0 118.33124790185246 0 1 0 I I #
loop $-1 $-1 $433 $112 #
coedge $-1 $283 $283 $183 $284 reversed $180 $-1 #
edge $-1 $434 0 $434 6.2831853071796004 $283 $435 forward 7 unknown #
vertex $-1 $184 $436 #
ellipse-curve $-1 0 0 -3.0269631031220441 0 0 -1 1 0 0 1 I I #
loop $-1 $-1 $437 $117 #
coedge $-1 $288 $288 $188 $289 reversed $185 $-1 #
edge $-1 $438 0 $438 6.2831853071796004 $288 $439 forward 7 unknown #
vertex $-1 $189 $440 #
ellipse-curve $-1 0 0 -3.0269631031220441 0 0 -1 1 0 0 1 I I #
face $-1 $441 $442 $43 $-1 $443 reversed single #
loop $-1 $-1 $444 $190 #
plane-surface $-1 -7.2718807744854645 0 0 1 0 0 0 0 -1 forward_v I I I I #
coedge $-1 $445 $303 $446 $447 forward $191 $-1 #
coedge $-1 $448 $193 $445 $449 forward $123 $-1 #
coedge $-1 $193 $448 $450 $451 forward $123 $-1 #
coedge $-1 $306 $305 $193 $299 reversed $307 $-1 #
edge $-1 $452 -236.66249580370493 $453 236.66249580370493 $298 $454 forward 7 unknown #
coedge $-1 $195 $194 $455 $456 forward $78 $-1 #
coedge $-1 $457 $458 $194 $302 reversed $442 $-1 #
edge $-1 $309 -7.2718807744854645 $459 7.2718807744854645 $301 $460 forward 7 unknown #
coedge $-1 $295 $461 $195 $304 reversed $191 $-1 #
edge $-1 $462 -7.2718807744854645 $308 7.2718807744854645 $303 $463 forward 7 unknown #
coedge $-1 $298 $196 $461 $464 forward $307 $-1 #
coedge $-1 $196 $298 $457 $465 reversed $307 $-1 #
loop $-1 $-1 $305 $441 #
vertex $-1 $197 $466 #
vertex $-1 $197 $467 #
straight-curve $-1 7.2718807744854645 0 118.33124790185246 0 1 0 I I #
loop $-1 $-1 $468 $126 #
coedge $-1 $312 $312 $201 $313 reversed $198 $-1 #
edge $-1 $469 0 $469 6.2831853071796004 $312 $470 forward 7 unknown #
vertex $-1 $202 $471 #
ellipse-curve $-1 0 0 -3.0269631031220441 0 0 -1 1 0 0 1 I I #
loop $-1 $-1 $472 $131 #
coedge $-1 $317 $317 $206 $318 reversed $203 $-1 #
edge $-1 $473 0 $473 6.2831853071796004 $317 $474 forward 7 unknown #
vertex $-1 $207 $475 #
ellipse-curve $-1 0 0 -3.0269631031220441 0 0 -1 1 0 0 1 I I #
face $-1 $476 $477 $46 $-1 $478 reversed single #
loop $-1 $-1 $479 $208 #
plane-surface $-1 -7.2718807744854645 0 0 1 0 0 0 0 -1 forward_v I I I I #
coedge $-1 $480 $332 $481 $482 forward $209 $-1 #
coedge $-1 $483 $211 $480 $484 forward $137 $-1 #
coedge $-1 $211 $483 $485 $486 forward $137 $-1 #
coedge $-1 $335 $334 $211 $328 reversed $336 $-1 #
edge $-1 $487 -236.66249580370493 $488 236.66249580370493 $327 $489 forward 7 unknown #
coedge $-1 $213 $212 $490 $491 forward $87 $-1 #
coedge $-1 $492 $493 $212 $331 reversed $477 $-1 #
edge $-1 $338 -7.2718807744854645 $494 7.2718807744854645 $330 $495 forward 7 unknown #
coedge $-1 $324 $496 $213 $333 reversed $209 $-1 #
edge $-1 $497 -7.2718807744854645 $337 7.2718807744854645 $332 $498 forward 7 unknown #
coedge $-1 $327 $214 $496 $499 forward $336 $-1 #
coedge $-1 $214 $327 $492 $500 reversed $336 $-1 #
loop $-1 $-1 $334 $476 #
vertex $-1 $215 $501 #
vertex $-1 $215 $502 #
straight-curve $-1 7.2718807744854645 0 118.33124790185246 0 1 0 I I #
loop $-1 $-1 $503 $140 #
coedge $-1 $341 $341 $219 $342 reversed $216 $-1 #
edge $-1 $504 0 $504 6.2831853071796004 $341 $505 forward 7 unknown #
vertex $-1 $220 $506 #
ellipse-curve $-1 0 0 -3.0269631031220441 0 0 -1 1 0 0 1 I I #
loop $-1 $-1 $507 $145 #
coedge $-1 $346 $346 $224 $347 reversed $221 $-1 #
edge $-1 $508 0 $508 6.2831853071796004 $346 $509 forward 7 unknown #
vertex $-1 $225 $510 #
ellipse-curve $-1 0 0 -3.0269631031220441 0 0 -1 1 0 0 1 I I #
face $-1 $511 $512 $49 $-1 $513 reversed single #
loop $-1 $-1 $514 $226 #
plane-surface $-1 -7.2718807744854645 0 0 1 0 0 0 0 -1 forward_v I I I I #
coedge $-1 $515 $361 $516 $517 forward $227 $-1 #
coedge $-1 $518 $229 $515 $519 forward $151 $-1 #
coedge $-1 $229 $518 $520 $521 forward $151 $-1 #
coedge $-1 $364 $363 $229 $357 reversed $365 $-1 #
edge $-1 $522 -236.66249580370493 $523 236.66249580370493 $356 $524 forward 7 unknown #
coedge $-1 $231 $230 $525 $526 forward $96 $-1 #
coedge $-1 $527 $528 $230 $360 reversed $512 $-1 #
edge $-1 $367 -7.2718807744854645 $529 7.2718807744854645 $359 $530 forward 7 unknown #
coedge $-1 $353 $531 $231 $362 reversed $227 $-1 #
edge $-1 $532 -7.2718807744854645 $366 7.2718807744854645 $361 $533 forward 7 unknown #
coedge $-1 $356 $232 $531 $534 forward $365 $-1 #
coedge $-1 $232 $356 $527 $535 reversed $365 $-1 #
loop $-1 $-1 $363 $511 #
vertex $-1 $233 $536 #
vertex $-1 $233 $537 #
straight-curve $-1 7.2718807744854645 0 118.33124790185246 0 1 0 I I #
loop $-1 $-1 $538 $154 #
coedge $-1 $370 $370 $237 $371 reversed $234 $-1 #
edge $-1 $539 0 $539 6.2831853071796004 $370 $540 forward 7 unknown #
vertex $-1 $238 $541 #
ellipse-curve $-1 0 0 -3.0269631031220441 0 0 -1 1 0 0 1 I I #
loop $-1 $-1 $542 $159 #
coedge $-1 $375 $375 $242 $376 reversed $239 $-1 #
edge $-1 $543 0 $543 6.2831853071796004 $375 $544 forward 7 unknown #
vertex $-1 $243 $545 #
ellipse-curve $-1 0 0 -3.0269631031220441 0 0 -1 1 0 0 1 I I #
face $-1 $-1 $259 $39 $-1 $546 reversed single #
loop $-1 $-1 $395 $244 #
plane-surface $-1 0 34.078691582244666 0 0 -1 0 0 0 -1 forward_v I I I I #
coedge $-1 $547 $393 $396 $548 forward $245 $-1 #
coedge $-1 $399 $247 $248 $387 reversed $165 $-1 #
coedge $-1 $393 $547 $247 $385 reversed $245 $-1 #
edge $-1 $400 -9.2172736029433082 $549 9.2172736029433082 $384 $550 forward 7 unknown #
coedge $-1 $249 $248 $547 $551 forward $105 $-1 #
edge $-1 $391 -59.165623950926232 $549 59.165623950926232 $383 $552 forward 7 unknown #
coedge $-1 $396 $395 $249 $389 reversed $380 $-1 #
edge $-1 $553 -59.165623950926232 $390 59.165623950926232 $388 $554 forward 7 unknown #
vertex $-1 $251 $555 #
vertex $-1 $402 $556 #
straight-curve $-1 59.165623950926232 0 -9.2172736029433082 0 -1 0 I I #
coedge $-1 $382 $384 $252 $394 reversed $245 $-1 #
edge $-1 $397 -34.078691582244666 $400 34.078691582244666 $393 $557 forward 7 unknown #
coedge $-1 $388 $253 $258 $403 forward $380 $-1 #
coedge $-1 $253 $388 $382 $548 reversed $380 $-1 #
vertex $-1 $254 $558 #
straight-curve $-1 0 34.078691582244666 9.2172736029433082 -1 0 0 I I #
coedge $-1 $255 $383 $257 $402 reversed $165 $-1 #
vertex $-1 $394 $559 #
straight-curve $-1 0 -34.078691582244666 9.2172736029433082 1 0 0 I I #
edge $-1 $260 -9.2172736029433082 $391 9.2172736029433082 $257 $560 forward 7 unknown #
edge $-1 $261 -9.2172736029433082 $390 9.2172736029433082 $258 $561 forward 7 unknown #
point $-1 59.165623950926232 -34.078691582244666 9.2172736029433082 #
point $-1 59.165623950926232 34.078691582244666 9.2172736029433082 #
face $-1 $-1 $278 $40 $-1 $562 reversed single #
loop $-1 $-1 $422 $263 #
plane-surface $-1 0 236.66249580370493 0 0 -1 0 0 0 -1 forward_v I I I I #
coedge $-1 $563 $420 $423 $564 forward $264 $-1 #
coedge $-1 $426 $266 $267 $414 reversed $173 $-1 #
coedge $-1 $420 $563 $266 $412 reversed $264 $-1 #
edge $-1 $427 -118.33124790185246 $565 118.33124790185246 $411 $566 forward 7 unknown #
coedge $-1 $268 $267 $563 $567 forward $109 $-1 #
edge $-1 $418 -7.2718807744854645 $565 7.2718807744854645 $410 $568 forward 7 unknown #
coedge $-1 $423 $422 $268 $416 reversed $407 $-1 #
edge $-1 $569 -7.2718807744854645 $417 7.2718807744854645 $415 $570 forward 7 unknown #
vertex $-1 $270 $571 #
vertex $-1 $429 $572 #
straight-curve $-1 7.2718807744854645 0 -118.33124790185246 0 -1 0 I I #
coedge $-1 $409 $411 $271 $421 reversed $264 $-1 #
edge $-1 $424 -236.66249580370493 $427 236.66249580370493 $420 $573 forward 7 unknown #
coedge $-1 $415 $272 $277 $430 forward $407 $-1 #
coedge $-1 $272 $415 $409 $564 reversed $407 $-1 #
vertex $-1 $273 $574 #
straight-curve $-1 0 236.66249580370493 118.33124790185246 -1 0 0 I I #
coedge $-1 $274 $410 $276 $429 reversed $173 $-1 #
vertex $-1 $421 $575 #
straight-curve $-1 0 -236.66249580370493 118.33124790185246 1 0 0 I I #
edge $-1 $279 -118.33124790185246 $418 118.33124790185246 $276 $576 forward 7 unknown #
edge $-1 $280 -118.33124790185246 $417 118.33124790185246 $277 $577 forward 7 unknown #
point $-1 7.2718807744854645 -236.66249580370493 118.33124790185246 #
point $-1 7.2718807744854645 236.66249580370493 118.33124790185246 #
coedge $-1 $433 $433 $-1 $578 reversed $282 $-1 #
vertex $-1 $284 $579 #
ellipse-curve $-1 0 0 -0.5 0 0 -1 1 0 0 1 I I #
point $-1 1 0 -3.0269631031220441 #
coedge $-1 $437 $437 $-1 $580 reversed $287 $-1 #
vertex $-1 $289 $581 #
ellipse-curve $-1 0 0 -0.5 0 0 -1 1 0 0 1 I I #
point $-1 1 0 -3.0269631031220441 #
face $-1 $-1 $307 $43 $-1 $582 reversed single #
loop $-1 $-1 $457 $292 #
plane-surface $-1 0 236.66249580370493 0 0 -1 0 0 0 -1 forward_v I I I I #
coedge $-1 $583 $455 $458 $584 forward $293 $-1 #
coedge $-1 $461 $295 $296 $449 reversed $191 $-1 #
coedge $-1 $455 $583 $295 $447 reversed $293 $-1 #
edge $-1 $462 -118.33124790185246 $585 118.33124790185246 $446 $586 forward 7 unknown #
coedge $-1 $297 $296 $583 $587 forward $123 $-1 #
edge $-1 $453 -7.2718807744854645 $585 7.2718807744854645 $445 $588 forward 7 unknown #
coedge $-1 $458 $457 $297 $451 reversed $442 $-1 #
edge $-1 $589 -7.2718807744854645 $452 7.2718807744854645 $450 $590 forward 7 unknown #
vertex $-1 $299 $591 #
vertex $-1 $464 $592 #
straight-curve $-1 7.2718807744854645 0 -118.33124790185246 0 -1 0 I I #
coedge $-1 $444 $446 $300 $456 reversed $293 $-1 #
edge $-1 $459 -236.66249580370493 $462 236.66249580370493 $455 $593 forward 7 unknown #
coedge $-1 $450 $301 $306 $465 forward $442 $-1 #
coedge $-1 $301 $450 $444 $584 reversed $442 $-1 #
vertex $-1 $302 $594 #
straight-curve $-1 0 236.66249580370493 118.33124790185246 -1 0 0 I I #
coedge $-1 $303 $445 $305 $464 reversed $191 $-1 #
vertex $-1 $456 $595 #
straight-curve $-1 0 -236.66249580370493 118.33124790185246 1 0 0 I I #
edge $-1 $308 -118.33124790185246 $453 118.33124790185246 $305 $596 forward 7 unknown #
edge $-1 $309 -118.33124790185246 $452 118.33124790185246 $306 $597 forward 7 unknown #
point $-1 7.2718807744854645 -236.66249580370493 118.33124790185246 #
point $-1 7.2718807744854645 236.66249580370493 118.33124790185246 #
coedge $-1 $468 $468 $-1 $598 reversed $311 $-1 #
vertex $-1 $313 $599 #
ellipse-curve $-1 0 0 -0.5 0 0 -1 1 0 0 1 I I #
point $-1 1 0 -3.0269631031220441 #
coedge $-1 $472 $472 $-1 $600 reversed $316 $-1 #
vertex $-1 $318 $601 #
ellipse-curve $-1 0 0 -0.5 0 0 -1 1 0 0 1 I I #
point $-1 1 0 -3.0269631031220441 #
face $-1 $-1 $336 $46 $-1 $602 reversed single #
loop $-1 $-1 $492 $321 #
plane-surface $-1 0 236.66249580370493 0 0 -1 0 0 0 -1 forward_v I I I I #
coedge $-1 $603 $490 $493 $604 forward $322 $-1 #
coedge $-1 $496 $324 $325 $484 reversed $209 $-1 #
coedge $-1 $490 $603 $324 $482 reversed $322 $-1 #
edge $-1 $497 -118.33124790185246 $605 118.33124790185246 $481 $606 forward 7 unknown #
coedge $-1 $326 $325 $603 $607 forward $137 $-1 #
edge $-1 $488 -7.2718807744854645 $605 7.2718807744854645 $480 $608 forward 7 unknown #
coedge $-1 $493 $492 $326 $486 reversed $477 $-1 #
edge $-1 $609 -7.2718807744854645 $487 7.2718807744854645 $485 $610 forward 7 unknown #
vertex $-1 $328 $611 #
vertex $-1 $499 $612 #
straight-curve $-1 7.2718807744854645 0 -118.33124790185246 0 -1 0 I I #
coedge $-1 $479 $481 $329 $491 reversed $322 $-1 #
edge $-1 $494 -236.66249580370493 $497 236.66249580370493 $490 $613 forward 7 unknown #
coedge $-1 $485 $330 $335 $500 forward $477 $-1 #
coedge $-1 $330 $485 $479 $604 reversed $477 $-1 #
vertex $-1 $331 $614 #
straight-curve $-1 0 236.66249580370493 118.33124790185246 -1 0 0 I I #
coedge $-1 $332 $480 $334 $499 reversed $209 $-1 #
vertex $-1 $491 $615 #
straight-curve $-1 0 -236.66249580370493 118.33124790185246 1 0 0 I I #
edge $-1 $337 -118.33124790185246 $488 118.33124790185246 $334 $616 forward 7 unknown #
edge $-1 $338 -118.33124790185246 $487 118.33124790185246 $335 $617 forward 7 unknown #
point $-1 7.2718807744854645 -236.66249580370493 118.33124790185246 #
point $-1 7.2718807744854645 236.66249580370493 118.33124790185246 #
coedge $-1 $503 $503 $-1 $618 reversed $340 $-1 #
vertex $-1 $342 $619 #
ellipse-curve $-1 0 0 -0.5 0 0 -1 1 0 0 1 I I #
point $-1 1 0 -3.0269631031220441 #
coedge $-1 $507 $507 $-1 $620 reversed $345 $-1 #
vertex $-1 $347 $621 #
ellipse-curve $-1 0 0 -0.5 0 0 -1 1 0 0 1 I I #
point $-1 1 0 -3.0269631031220441 #
face $-1 $-1 $365 $49 $-1 $622 reversed single #
loop $-1 $-1 $527 $350 #
plane-surface $-1 0 236.66249580370493 0 0 -1 0 0 0 -1 forward_v I I I I #
coedge $-1 $623 $525 $528 $624 forward $351 $-1 #
coedge $-1 $531 $353 $354 $519 reversed $227 $-1 #
coedge $-1 $525 $623 $353 $517 reversed $351 $-1 #
edge $-1 $532 -118.33124790185246 $625 118.33124790185246 $516 $626 forward 7 unknown #
coedge $-1 $355 $354 $623 $627 forward $151 $-1 #
edge $-1 $523 -7.2718807744854645 $625 7.2718807744854645 $515 $628 forward 7 unknown #
coedge $-1 $528 $527 $355 $521 reversed $512 $-1 #
edge $-1 $629 -7.2718807744854645 $522 7.2718807744854645 $520 $630 forward 7 unknown #
vertex $-1 $357 $631 #
vertex $-1 $534 $632 #
straight-curve $-1 7.2718807744854645 0 -118.33124790185246 0 -1 0 I I #
coedge $-1 $514 $516 $358 $526 reversed $351 $-1 #
edge $-1 $529 -236.66249580370493 $532 236.66249580370493 $525 $633 forward 7 unknown #
coedge $-1 $520 $359 $364 $535 forward $512 $-1 #
coedge $-1 $359 $520 $514 $624 reversed $512 $-1 #
vertex $-1 $360 $634 #
straight-curve $-1 0 236.66249580370493 118.33124790185246 -1 0 0 I I #
coedge $-1 $361 $515 $363 $534 reversed $227 $-1 #
vertex $-1 $526 $635 #
straight-curve $-1 0 -236.66249580370493 118.33124790185246 1 0 0 I I #
edge $-1 $366 -118.33124790185246 $523 118.33124790185246 $363 $636 forward 7 unknown #
edge $-1 $367 -118.33124790185246 $522 118.33124790185246 $364 $637 forward 7 unknown #
point $-1 7.2718807744854645 -236.66249580370493 118.33124790185246 #
point $-1 7.2718807744854645 236.66249580370493 118.33124790185246 #
coedge $-1 $538 $538 $-1 $638 reversed $369 $-1 #
vertex $-1 $371 $639 #
ellipse-curve $-1 0 0 -0.5 0 0 -1 1 0 0 1 I I #
point $-1 1 0 -3.0269631031220441 #
coedge $-1 $542 $542 $-1 $640 reversed $374 $-1 #
vertex $-1 $376 $641 #
ellipse-curve $-1 0 0 -0.5 0 0 -1 1 0 0 1 I I #
point $-1 1 0 -3.0269631031220441 #
plane-surface $-1 59.165623950926232 0 0 -1 0 0 0 0 1 forward_v I I I I #
coedge $-1 $384 $382 $386 $551 reversed $245 $-1 #
edge $-1 $397 -9.2172736029433082 $553 9.2172736029433082 $396 $642 forward 7 unknown #
vertex $-1 $551 $643 #
straight-curve $-1 -59.165623950926232 -34.078691582244666 0 0 0 -1 I I #
edge $-1 $549 -34.078691582244666 $553 34.078691582244666 $547 $644 forward 7 unknown #
straight-curve $-1 0 -34.078691582244666 -9.2172736029433082 -1 0 0 I I #
vertex $-1 $389 $645 #
straight-curve $-1 0 34.078691582244666 -9.2172736029433082 1 0 0 I I #
point $-1 59.165623950926232 34.078691582244666 -9.2172736029433082 #
point $-1 59.165623950926232 -34.078691582244666 -9.2172736029433082 #
straight-curve $-1 -59.165623950926232 0 9.2172736029433082 0 -1 0 I I #
point $-1 -59.165623950926232 34.078691582244666 9.2172736029433082 #
point $-1 -59.165623950926232 -34.078691582244666 9.2172736029433082 #
straight-curve $-1 59.165623950926232 -34.078691582244666 0 0 0 -1 I I #
straight-curve $-1 59.165623950926232 34.078691582244666 0 0 0 -1 I I #
plane-surface $-1 7.2718807744854645 0 0 -1 0 0 0 0 1 forward_v I I I I #
coedge $-1 $411 $409 $413 $567 reversed $264 $-1 #
edge $-1 $424 -118.33124790185246 $569 118.33124790185246 $423 $646 forward 7 unknown #
vertex $-1 $567 $647 #
straight-curve $-1 -7.2718807744854645 -236.66249580370493 0 0 0 -1 I I #
edge $-1 $565 -236.66249580370493 $569 236.66249580370493 $563 $648 forward 7 unknown #
straight-curve $-1 0 -236.66249580370493 -118.33124790185246 -1 0 0 I I #
vertex $-1 $416 $649 #
straight-curve $-1 0 236.66249580370493 -118.33124790185246 1 0 0 I I #
point $-1 7.2718807744854645 236.66249580370493 -118.33124790185246 #
point $-1 7.2718807744854645 -236.66249580370493 -118.33124790185246 #
straight-curve $-1 -7.2718807744854645 0 118.33124790185246 0 -1 0 I I #
point $-1 -7.2718807744854645 236.66249580370493 118.33124790185246 #
point $-1 -7.2718807744854645 -236.66249580370493 118.33124790185246 #
straight-curve $-1 7.2718807744854645 -236.66249580370493 0 0 0 -1 I I #
straight-curve $-1 7.2718807744854645 236.66249580370493 0 0 0 -1 I I #
edge $-1 $650 1 $650 0 $433 $-1 forward 7 unknown #
point $-1 1 0 -0.5 #
edge $-1 $651 1 $651 0 $437 $-1 forward 7 unknown #
point $-1 1 0 -0.5 #
plane-surface $-1 7.2718807744854645 0 0 -1 0 0 0 0 1 forward_v I I I I #
coedge $-1 $446 $444 $448 $587 reversed $293 $-1 #
edge $-1 $459 -118.33124790185246 $589 118.33124790185246 $458 $652 forward 7 unknown #
vertex $-1 $587 $653 #
straight-curve $-1 -7.2718807744854645 -236.66249580370493 0 0 0 -1 I I #
edge $-1 $585 -236.66249580370493 $589 236.66249580370493 $583 $654 forward 7 unknown #
straight-curve $-1 0 -236.66249580370493 -118.33124790185246 -1 0 0 I I #
vertex $-1 $451 $655 #
straight-curve $-1 0 236.66249580370493 -118.33124790185246 1 0 0 I I #
point $-1 7.2718807744854645 236.66249580370493 -118.33124790185246 #
point $-1 7.2718807744854645 -236.66249580370493 -118.33124790185246 #
straight-curve $-1 -7.2718807744854645 0 118.33124790185246 0 -1 0 I I #
point $-1 -7.2718807744854645 236.66249580370493 118.33124790185246 #
point $-1 -7.2718807744854645 -236.66249580370493 118.33124790185246 #
straight-curve $-1 7.2718807744854645 -236.66249580370493 0 0 0 -1 I I #
straight-curve $-1 7.2718807744854645 236.66249580370493 0 0 0 -1 I I #
edge $-1 $656 1 $656 0 $468 $-1 forward 7 unknown #
point $-1 1 0 -0.5 #
edge $-1 $657 1 $657 0 $472 $-1 forward 7 unknown #
point $-1 1 0 -0.5 #
plane-surface $-1 7.2718807744854645 0 0 -1 0 0 0 0 1 forward_v I I I I #
coedge $-1 $481 $479 $483 $607 reversed $322 $-1 #
edge $-1 $494 -118.33124790185246 $609 118.33124790185246 $493 $658 forward 7 unknown #
vertex $-1 $607 $659 #
straight-curve $-1 -7.2718807744854645 -236.66249580370493 0 0 0 -1 I I #
edge $-1 $605 -236.66249580370493 $609 236.66249580370493 $603 $660 forward 7 unknown #
straight-curve $-1 0 -236.66249580370493 -118.33124790185246 -1 0 0 I I #
vertex $-1 $486 $661 #
straight-curve $-1 0 236.66249580370493 -118.33124790185246 1 0 0 I I #
point $-1 7.2718807744854645 236.66249580370493 -118.33124790185246 #
point $-1 7.2718807744854645 -236.66249580370493 -118.33124790185246 #
straight-curve $-1 -7.2718807744854645 0 118.33124790185246 0 -1 0 I I #
point $-1 -7.2718807744854645 236.66249580370493 118.33124790185246 #
point $-1 -7.2718807744854645 -236.66249580370493 118.33124790185246 #
straight-curve $-1 7.2718807744854645 -236.66249580370493 0 0 0 -1 I I #
straight-curve $-1 7.2718807744854645 236.66249580370493 0 0 0 -1 I I #
edge $-1 $662 1 $662 0 $503 $-1 forward 7 unknown #
point $-1 1 0 -0.5 #
edge $-1 $663 1 $663 0 $507 $-1 forward 7 unknown #
point $-1 1 0 -0.5 #
plane-surface $-1 7.2718807744854645 0 0 -1 0 0 0 0 1 forward_v I I I I #
coedge $-1 $516 $514 $518 $627 reversed $351 $-1 #
edge $-1 $529 -118.33124790185246 $629 118.33124790185246 $528 $664 forward 7 unknown #
vertex $-1 $627 $665 #
straight-curve $-1 -7.2718807744854645 -236.66249580370493 0 0 0 -1 I I #
edge $-1 $625 -236.66249580370493 $629 236.66249580370493 $623 $666 forward 7 unknown #
straight-curve $-1 0 -236.66249580370493 -118.33124790185246 -1 0 0 I I #
vertex $-1 $521 $667 #
straight-curve $-1 0 236.66249580370493 -118.33124790185246 1 0 0 I I #
point $-1 7.2718807744854645 236.66249580370493 -118.33124790185246 #
point $-1 7.2718807744854645 -236.66249580370493 -118.33124790185246 #
straight-curve $-1 -7.2718807744854645 0 118.33124790185246 0 -1 0 I I #
point $-1 -7.2718807744854645 236.66249580370493 118.33124790185246 #
point $-1 -7.2718807744854645 -236.66249580370493 118.33124790185246 #
straight-curve $-1 7.2718807744854645 -236.66249580370493 0 0 0 -1 I I #
straight-curve $-1 7.2718807744854645 236.66249580370493 0 0 0 -1 I I #
edge $-1 $668 1 $668 0 $538 $-1 forward 7 unknown #
point $-1 1 0 -0.5 #
edge $-1 $669 1 $669 0 $542 $-1 forward 7 unknown #
point $-1 1 0 -0.5 #
straight-curve $-1 -59.165623950926232 34.078691582244666 0 0 0 -1 I I #
point $-1 -59.165623950926232 -34.078691582244666 -9.2172736029433082 #
straight-curve $-1 -59.165623950926232 0 -9.2172736029433082 0 1 0 I I #
point $-1 -59.165623950926232 34.078691582244666 -9.2172736029433082 #
straight-curve $-1 -7.2718807744854645 236.66249580370493 0 0 0 -1 I I #
point $-1 -7.2718807744854645 -236.66249580370493 -118.33124790185246 #
straight-curve $-1 -7.2718807744854645 0 -118.33124790185246 0 1 0 I I #
point $-1 -7.2718807744854645 236.66249580370493 -118.33124790185246 #
vertex $-1 $578 $670 #
vertex $-1 $580 $671 #
straight-curve $-1 -7.2718807744854645 236.66249580370493 0 0 0 -1 I I #
point $-1 -7.2718807744854645 -236.66249580370493 -118.33124790185246 #
straight-curve $-1 -7.2718807744854645 0 -118.33124790185246 0 1 0 I I #
point $-1 -7.2718807744854645 236.66249580370493 -118.33124790185246 #
vertex $-1 $598 $672 #
vertex $-1 $600 $673 #
straight-curve $-1 -7.2718807744854645 236.66249580370493 0 0 0 -1 I I #
point $-1 -7.2718807744854645 -236.66249580370493 -118.33124790185246 #
straight-curve $-1 -7.2718807744854645 0 -118.33124790185246 0 1 0 I I #
point $-1 -7.2718807744854645 236.66249580370493 -118.33124790185246 #
vertex $-1 $618 $674 #
vertex $-1 $620 $675 #
straight-curve $-1 -7.2718807744854645 236.66249580370493 0 0 0 -1 I I #
point $-1 -7.2718807744854645 -236.66249580370493 -118.33124790185246 #
straight-curve $-1 -7.2718807744854645 0 -118.33124790185246 0 1 0 I I #
point $-1 -7.2718807744854645 236.66249580370493 -118.33124790185246 #
vertex $-1 $638 $676 #
vertex $-1 $640 $677 #
point $-1 0 0 0.5 #
point $-1 0 0 0.5 #
point $-1 0 0 0.5 #
point $-1 0 0 0.5 #
point $-1 0 0 0.5 #
point $-1 0 0 0.5 #
point $-1 0 0 0.5 #
point $-1 0 0 0.5 #
End-of-ACIS-data 