500 0 14 0           
7 Unknown 11 ACIS 5.0 NT 24 Thu Mar 25 17:40:37 1999 
-1 9.9999999999999995e-007 1e-010 
body $-1 $14 $-1 $15 #
body $-1 $16 $-1 $17 #
body $-1 $18 $-1 $19 #
body $-1 $20 $-1 $21 #
body $-1 $22 $-1 $23 #
body $-1 $24 $-1 $25 #
body $-1 $26 $-1 $27 #
body $-1 $28 $-1 $29 #
body $-1 $30 $-1 $31 #
body $-1 $32 $-1 $33 #
body $-1 $34 $-1 $35 #
body $-1 $36 $-1 $37 #
body $-1 $38 $-1 $39 #
body $-1 $40 $-1 $41 #
lump $-1 $-1 $42 $0 #
transform $-1 1 0 0 0 1 0 0 0 1 47.595446638386179 22.898599765948635 6.2095339237743206 1 rotate no_reflect no_shear #
lump $-1 $-1 $43 $1 #
transform $-1 1 0 0 0 1 0 0 0 1 47.595446638386179 2.1553963668186253 1.5 1 rotate no_reflect no_shear #
lump $-1 $-1 $44 $2 #
transform $-1 0.8660253999169214 0 -0.50000000669873634 0 1 0 0.50000000669873634 0 0.8660253999169214 60.348609134351477 9.5514882379368018 138.83192797950358 1 rotate no_reflect no_shear #
lump $-1 $-1 $45 $3 #
transform $-1 0.8660253999169214 0 -0.50000000669873634 0 -1 0 -0.50000000669873634 0 -0.8660253999169214 89.830153784057671 9.5514882379368018 6.7543132144310221 1 rotate no_reflect no_shear #
lump $-1 $-1 $46 $4 #
transform $-1 0.8660253999169214 0 -0.50000000669873634 0 1 0 0.50000000669873634 0 0.8660253999169214 60.348609134351477 19.886493501157105 138.83192797950358 1 rotate no_reflect no_shear #
lump $-1 $-1 $47 $5 #
transform $-1 0.8660253999169214 0 -0.50000000669873634 0 -1 0 -0.50000000669873634 0 -0.8660253999169214 89.830153784057671 19.886493501157105 6.7543132144310221 1 rotate no_reflect no_shear #
lump $-1 $-1 $48 $6 #
transform $-1 0.8660253999169214 0 -0.50000000669873634 0 1 0 0.50000000669873634 0 0.8660253999169214 60.348609134351477 30.221498764377408 138.83192797950358 1 rotate no_reflect no_shear #
lump $-1 $-1 $49 $7 #
transform $-1 0.8660253999169214 0 -0.50000000669873634 0 -1 0 -0.50000000669873634 0 -0.8660253999169214 89.830153784057671 30.221498764377408 6.7543132144310221 1 rotate no_reflect no_shear #
lump $-1 $-1 $50 $8 #
transform $-1 0.8660253999169214 0 -0.50000000669873634 0 1 0 0.50000000669873634 0 0.8660253999169214 60.348609134351477 40.556504027597711 138.83192797950358 1 rotate no_reflect no_shear #
lump $-1 $-1 $51 $9 #
transform $-1 0.8660253999169214 0 -0.50000000669873634 0 -1 0 -0.50000000669873634 0 -0.8660253999169214 89.830153784057671 40.556504027597711 6.7543132144310221 1 rotate no_reflect no_shear #
lump $-1 $-1 $52 $10 #
transform $-1 0.48480960649040278 0 0.87461971476443456 0 1 0 -0.87461971476443456 0 0.48480960649040278 -83.25583192590237 15.047061506230696 53.063059411015594 1 rotate no_reflect no_shear #
lump $-1 $-1 $53 $11 #
transform $-1 0.48480960649040278 0 0.87461971476443456 0 -1 0 0.87461971476443456 0 -0.48480960649040278 2.6191399447534591 13.109790337092608 9.0603218656781479 1 rotate no_reflect no_shear #
lump $-1 $-1 $54 $12 #
transform $-1 0.48480960649040278 0 0.87461971476443456 0 -1 0 0.87461971476443456 0 -0.48480960649040278 2.6191399447534591 15.047061506230698 9.0603218656781479 1 rotate no_reflect no_shear #
lump $-1 $-1 $55 $13 #
transform $-1 0.48480960649040278 0 0.87461971476443456 0 -1 0 0.87461971476443456 0 -0.48480960649040278 2.6191399447534591 16.984332675368787 9.0603218656781479 1 rotate no_reflect no_shear #
shell $-1 $-1 $-1 $56 $-1 $14 #
shell $-1 $-1 $-1 $57 $-1 $16 #
shell $-1 $-1 $-1 $58 $-1 $18 #
shell $-1 $-1 $-1 $59 $-1 $20 #
shell $-1 $-1 $-1 $60 $-1 $22 #
shell $-1 $-1 $-1 $61 $-1 $24 #
shell $-1 $-1 $-1 $62 $-1 $26 #
shell $-1 $-1 $-1 $63 $-1 $28 #
shell $-1 $-1 $-1 $64 $-1 $30 #
shell $-1 $-1 $-1 $65 $-1 $32 #
shell $-1 $-1 $-1 $66 $-1 $34 #
shell $-1 $-1 $-1 $67 $-1 $36 #
shell $-1 $-1 $-1 $68 $-1 $38 #
shell $-1 $-1 $-1 $69 $-1 $40 #
face $-1 $70 $71 $42 $-1 $72 forward single #
face $-1 $73 $74 $43 $-1 $75 forward single #
face $-1 $76 $77 $44 $-1 $78 forward single #
face $-1 $79 $80 $45 $-1 $81 forward single #
face $-1 $82 $83 $46 $-1 $84 forward single #
face $-1 $85 $86 $47 $-1 $87 forward single #
face $-1 $88 $89 $48 $-1 $90 forward single #
face $-1 $91 $92 $49 $-1 $93 forward single #
face $-1 $94 $95 $50 $-1 $96 forward single #
face $-1 $97 $98 $51 $-1 $99 forward single #
face $-1 $100 $101 $52 $-1 $102 forward single #
face $-1 $103 $104 $53 $-1 $105 forward single #
face $-1 $106 $107 $54 $-1 $108 forward single #
face $-1 $109 $110 $55 $-1 $111 forward single #
face $-1 $112 $113 $42 $-1 $114 reversed single #
loop $-1 $-1 $115 $56 #
plane-surface $-1 0 0 6.2095339237743206 0 0 1 1 0 0 forward_v I I I I #
face $-1 $116 $117 $43 $-1 $118 reversed single #
loop $-1 $-1 $119 $57 #
plane-surface $-1 0 0 1.5 0 0 1 1 0 0 forward_v I I I I #
face $-1 $120 $121 $44 $-1 $122 reversed single #
loop $-1 $-1 $123 $58 #
plane-surface $-1 0 0 95.190893276772357 0 0 1 1 0 0 forward_v I I I I #
face $-1 $124 $125 $45 $-1 $126 forward single #
loop $-1 $127 $128 $59 #
cone-surface $-1 0 0 -2.6004516739402446 0 0 1 1.5 0 0 1 I I 0 1 1.5 forward I I I I #
face $-1 $129 $130 $46 $-1 $131 reversed single #
loop $-1 $-1 $132 $60 #
plane-surface $-1 0 0 95.190893276772357 0 0 1 1 0 0 forward_v I I I I #
face $-1 $133 $134 $47 $-1 $135 forward single #
loop $-1 $136 $137 $61 #
cone-surface $-1 0 0 -2.6004516739402446 0 0 1 1.5 0 0 1 I I 0 1 1.5 forward I I I I #
face $-1 $138 $139 $48 $-1 $140 reversed single #
loop $-1 $-1 $141 $62 #
plane-surface $-1 0 0 95.190893276772357 0 0 1 1 0 0 forward_v I I I I #
face $-1 $142 $143 $49 $-1 $144 forward single #
loop $-1 $145 $146 $63 #
cone-surface $-1 0 0 -2.6004516739402446 0 0 1 1.5 0 0 1 I I 0 1 1.5 forward I I I I #
face $-1 $147 $148 $50 $-1 $149 reversed single #
loop $-1 $-1 $150 $64 #
plane-surface $-1 0 0 95.190893276772357 0 0 1 1 0 0 forward_v I I I I #
face $-1 $151 $152 $51 $-1 $153 forward single #
loop $-1 $154 $155 $65 #
cone-surface $-1 0 0 -2.6004516739402446 0 0 1 1.5 0 0 1 I I 0 1 1.5 forward I I I I #
face $-1 $156 $157 $52 $-1 $158 reversed single #
loop $-1 $-1 $159 $66 #
plane-surface $-1 0 0 95.190893276772357 0 0 1 1 0 0 forward_v I I I I #
face $-1 $160 $161 $53 $-1 $162 forward single #
loop $-1 $163 $164 $67 #
cone-surface $-1 0 0 -0.75 0 0 1 0.5 0 0 1 I I 0 1 0.5 forward I I I I #
face $-1 $165 $166 $54 $-1 $167 forward single #
loop $-1 $168 $169 $68 #
cone-surface $-1 0 0 -0.75 0 0 1 0.5 0 0 1 I I 0 1 0.5 forward I I I I #
face $-1 $170 $171 $55 $-1 $172 forward single #
loop $-1 $173 $174 $69 #
cone-surface $-1 0 0 -0.75 0 0 1 0.5 0 0 1 I I 0 1 0.5 forward I I I I #
face $-1 $175 $176 $42 $-1 $177 reversed single #
loop $-1 $-1 $178 $70 #
plane-surface $-1 0 0 -6.2095339237743206 0 0 1 1 0 0 forward_v I I I I #
coedge $-1 $179 $180 $181 $182 forward $71 $-1 #
face $-1 $183 $184 $43 $-1 $185 reversed single #
loop $-1 $-1 $186 $73 #
plane-surface $-1 0 0 -1.5 0 0 1 1 0 0 forward_v I I I I #
coedge $-1 $187 $188 $189 $190 forward $74 $-1 #
face $-1 $191 $192 $44 $-1 $193 reversed single #
loop $-1 $-1 $194 $76 #
plane-surface $-1 0 0 -95.190893276772357 0 0 1 1 0 0 forward_v I I I I #
coedge $-1 $195 $196 $197 $198 forward $77 $-1 #
face $-1 $-1 $199 $45 $-1 $200 forward single #
loop $-1 $-1 $201 $79 #
plane-surface $-1 0 0 -4.4509033478804891 0 0 -1 -1 0 0 forward_v I I I I #
loop $-1 $-1 $202 $59 #
coedge $-1 $128 $128 $201 $203 reversed $80 $-1 #
face $-1 $204 $205 $46 $-1 $206 reversed single #
loop $-1 $-1 $207 $82 #
plane-surface $-1 0 0 -95.190893276772357 0 0 1 1 0 0 forward_v I I I I #
coedge $-1 $208 $209 $210 $211 forward $83 $-1 #
face $-1 $-1 $212 $47 $-1 $213 forward single #
loop $-1 $-1 $214 $85 #
plane-surface $-1 0 0 -4.4509033478804891 0 0 -1 -1 0 0 forward_v I I I I #
loop $-1 $-1 $215 $61 #
coedge $-1 $137 $137 $214 $216 reversed $86 $-1 #
face $-1 $217 $218 $48 $-1 $219 reversed single #
loop $-1 $-1 $220 $88 #
plane-surface $-1 0 0 -95.190893276772357 0 0 1 1 0 0 forward_v I I I I #
coedge $-1 $221 $222 $223 $224 forward $89 $-1 #
face $-1 $-1 $225 $49 $-1 $226 forward single #
loop $-1 $-1 $227 $91 #
plane-surface $-1 0 0 -4.4509033478804891 0 0 -1 -1 0 0 forward_v I I I I #
loop $-1 $-1 $228 $63 #
coedge $-1 $146 $146 $227 $229 reversed $92 $-1 #
face $-1 $230 $231 $50 $-1 $232 reversed single #
loop $-1 $-1 $233 $94 #
plane-surface $-1 0 0 -95.190893276772357 0 0 1 1 0 0 forward_v I I I I #
coedge $-1 $234 $235 $236 $237 forward $95 $-1 #
face $-1 $-1 $238 $51 $-1 $239 forward single #
loop $-1 $-1 $240 $97 #
plane-surface $-1 0 0 -4.4509033478804891 0 0 -1 -1 0 0 forward_v I I I I #
loop $-1 $-1 $241 $65 #
coedge $-1 $155 $155 $240 $242 reversed $98 $-1 #
face $-1 $243 $244 $52 $-1 $245 reversed single #
loop $-1 $-1 $246 $100 #
plane-surface $-1 0 0 -95.190893276772357 0 0 1 1 0 0 forward_v I I I I #
coedge $-1 $247 $248 $249 $250 forward $101 $-1 #
face $-1 $-1 $251 $53 $-1 $252 forward single #
loop $-1 $-1 $253 $103 #
plane-surface $-1 0 0 -1.25 0 0 -1 -1 0 0 forward_v I I I I #
loop $-1 $-1 $254 $67 #
coedge $-1 $164 $164 $253 $255 reversed $104 $-1 #
face $-1 $-1 $256 $54 $-1 $257 forward single #
loop $-1 $-1 $258 $106 #
plane-surface $-1 0 0 -1.25 0 0 -1 -1 0 0 forward_v I I I I #
loop $-1 $-1 $259 $68 #
coedge $-1 $169 $169 $258 $260 reversed $107 $-1 #
face $-1 $-1 $261 $55 $-1 $262 forward single #
loop $-1 $-1 $263 $109 #
plane-surface $-1 0 0 -1.25 0 0 -1 -1 0 0 forward_v I I I I #
loop $-1 $-1 $264 $69 #
coedge $-1 $174 $174 $263 $265 reversed $110 $-1 #
face $-1 $266 $267 $42 $-1 $268 reversed single #
loop $-1 $-1 $269 $112 #
plane-surface $-1 0 -22.898599765948635 0 0 1 0 0 0 1 forward_v I I I I #
coedge $-1 $270 $271 $272 $273 forward $113 $-1 #
coedge $-1 $274 $115 $275 $276 forward $71 $-1 #
coedge $-1 $115 $274 $277 $278 forward $71 $-1 #
coedge $-1 $279 $280 $115 $182 reversed $281 $-1 #
edge $-1 $282 -22.898599765948635 $283 22.898599765948635 $181 $284 forward 7 unknown #
face $-1 $285 $286 $43 $-1 $287 reversed single #
loop $-1 $-1 $288 $116 #
plane-surface $-1 0 -2.1553963668186253 0 0 1 0 0 0 1 forward_v I I I I #
coedge $-1 $289 $290 $291 $292 forward $117 $-1 #
coedge $-1 $293 $119 $294 $295 forward $74 $-1 #
coedge $-1 $119 $293 $296 $297 forward $74 $-1 #
coedge $-1 $298 $299 $119 $190 reversed $300 $-1 #
edge $-1 $301 -2.1553963668186253 $302 2.1553963668186253 $189 $303 forward 7 unknown #
face $-1 $304 $305 $44 $-1 $306 reversed single #
loop $-1 $-1 $307 $120 #
plane-surface $-1 0 -3.0771226342933993 0 0 1 0 0 0 1 forward_v I I I I #
coedge $-1 $308 $309 $310 $311 forward $121 $-1 #
coedge $-1 $312 $123 $313 $314 forward $77 $-1 #
coedge $-1 $123 $312 $315 $316 forward $77 $-1 #
coedge $-1 $317 $318 $123 $198 reversed $319 $-1 #
edge $-1 $320 -3.0771226342933993 $321 3.0771226342933993 $197 $322 forward 7 unknown #
loop $-1 $323 $324 $124 #
cone-surface $-1 0 0 0 0 0 1 0.75 0 0 1 I I -0.70710678118654757 0.70710678118654757 0.75 forward I I I I #
coedge $-1 $201 $201 $128 $203 forward $125 $-1 #
coedge $-1 $202 $202 $324 $325 forward $127 $-1 #
edge $-1 $326 0 $326 6.2831853071796004 $201 $327 forward 7 unknown #
face $-1 $328 $329 $46 $-1 $330 reversed single #
loop $-1 $-1 $331 $129 #
plane-surface $-1 0 -3.0771226342933993 0 0 1 0 0 0 1 forward_v I I I I #
coedge $-1 $332 $333 $334 $335 forward $130 $-1 #
coedge $-1 $336 $132 $337 $338 forward $83 $-1 #
coedge $-1 $132 $336 $339 $340 forward $83 $-1 #
coedge $-1 $341 $342 $132 $211 reversed $343 $-1 #
edge $-1 $344 -3.0771226342933993 $345 3.0771226342933993 $210 $346 forward 7 unknown #
loop $-1 $347 $348 $133 #
cone-surface $-1 0 0 0 0 0 1 0.75 0 0 1 I I -0.70710678118654757 0.70710678118654757 0.75 forward I I I I #
coedge $-1 $214 $214 $137 $216 forward $134 $-1 #
coedge $-1 $215 $215 $348 $349 forward $136 $-1 #
edge $-1 $350 0 $350 6.2831853071796004 $214 $351 forward 7 unknown #
face $-1 $352 $353 $48 $-1 $354 reversed single #
loop $-1 $-1 $355 $138 #
plane-surface $-1 0 -3.0771226342933993 0 0 1 0 0 0 1 forward_v I I I I #
coedge $-1 $356 $357 $358 $359 forward $139 $-1 #
coedge $-1 $360 $141 $361 $362 forward $89 $-1 #
coedge $-1 $141 $360 $363 $364 forward $89 $-1 #
coedge $-1 $365 $366 $141 $224 reversed $367 $-1 #
edge $-1 $368 -3.0771226342933993 $369 3.0771226342933993 $223 $370 forward 7 unknown #
loop $-1 $371 $372 $142 #
cone-surface $-1 0 0 0 0 0 1 0.75 0 0 1 I I -0.70710678118654757 0.70710678118654757 0.75 forward I I I I #
coedge $-1 $227 $227 $146 $229 forward $143 $-1 #
coedge $-1 $228 $228 $372 $373 forward $145 $-1 #
edge $-1 $374 0 $374 6.2831853071796004 $227 $375 forward 7 unknown #
face $-1 $376 $377 $50 $-1 $378 reversed single #
loop $-1 $-1 $379 $147 #
plane-surface $-1 0 -3.0771226342933993 0 0 1 0 0 0 1 forward_v I I I I #
coedge $-1 $380 $381 $382 $383 forward $148 $-1 #
coedge $-1 $384 $150 $385 $386 forward $95 $-1 #
coedge $-1 $150 $384 $387 $388 forward $95 $-1 #
coedge $-1 $389 $390 $150 $237 reversed $391 $-1 #
edge $-1 $392 -3.0771226342933993 $393 3.0771226342933993 $236 $394 forward 7 unknown #
loop $-1 $395 $396 $151 #
cone-surface $-1 0 0 0 0 0 1 0.75 0 0 1 I I -0.70710678118654757 0.70710678118654757 0.75 forward I I I I #
coedge $-1 $240 $240 $155 $242 forward $152 $-1 #
coedge $-1 $241 $241 $396 $397 forward $154 $-1 #
edge $-1 $398 0 $398 6.2831853071796004 $240 $399 forward 7 unknown #
face $-1 $400 $401 $52 $-1 $402 reversed single #
loop $-1 $-1 $403 $156 #
plane-surface $-1 0 -3.2287852818968137 0 0 1 0 0 0 1 forward_v I I I I #
coedge $-1 $404 $405 $406 $407 forward $157 $-1 #
coedge $-1 $408 $159 $409 $410 forward $101 $-1 #
coedge $-1 $159 $408 $411 $412 forward $101 $-1 #
coedge $-1 $413 $414 $159 $250 reversed $415 $-1 #
edge $-1 $416 -3.2287852818968137 $417 3.2287852818968137 $249 $418 forward 7 unknown #
loop $-1 $419 $420 $160 #
cone-surface $-1 0 0 0 0 0 1 0.25 0 0 1 I I -0.70710678118654746 0.70710678118654746 0.25 forward I I I I #
coedge $-1 $253 $253 $164 $255 forward $161 $-1 #
coedge $-1 $254 $254 $420 $421 forward $163 $-1 #
edge $-1 $422 0 $422 6.2831853071796004 $253 $423 forward 7 unknown #
loop $-1 $424 $425 $165 #
cone-surface $-1 0 0 0 0 0 1 0.25 0 0 1 I I -0.70710678118654746 0.70710678118654746 0.25 forward I I I I #
coedge $-1 $258 $258 $169 $260 forward $166 $-1 #
coedge $-1 $259 $259 $425 $426 forward $168 $-1 #
edge $-1 $427 0 $427 6.2831853071796004 $258 $428 forward 7 unknown #
loop $-1 $429 $430 $170 #
cone-surface $-1 0 0 0 0 0 1 0.25 0 0 1 I I -0.70710678118654746 0.70710678118654746 0.25 forward I I I I #
coedge $-1 $263 $263 $174 $265 forward $171 $-1 #
coedge $-1 $264 $264 $430 $431 forward $173 $-1 #
edge $-1 $432 0 $432 6.2831853071796004 $263 $433 forward 7 unknown #
face $-1 $434 $435 $42 $-1 $436 reversed single #
loop $-1 $-1 $437 $175 #
plane-surface $-1 -47.595446638386179 0 0 1 0 0 0 0 -1 forward_v I I I I #
coedge $-1 $438 $277 $439 $440 forward $176 $-1 #
coedge $-1 $441 $178 $438 $442 forward $113 $-1 #
coedge $-1 $178 $441 $443 $444 forward $113 $-1 #
coedge $-1 $280 $279 $178 $273 reversed $281 $-1 #
edge $-1 $445 -22.898599765948635 $446 22.898599765948635 $272 $447 forward 7 unknown #
coedge $-1 $180 $179 $448 $449 forward $71 $-1 #
coedge $-1 $450 $451 $179 $276 reversed $435 $-1 #
edge $-1 $283 -47.595446638386179 $452 47.595446638386179 $275 $453 forward 7 unknown #
coedge $-1 $269 $454 $180 $278 reversed $176 $-1 #
edge $-1 $455 -47.595446638386179 $282 47.595446638386179 $277 $456 forward 7 unknown #
coedge $-1 $272 $181 $454 $457 forward $281 $-1 #
coedge $-1 $181 $272 $450 $458 reversed $281 $-1 #
loop $-1 $-1 $279 $434 #
vertex $-1 $182 $459 #
vertex $-1 $182 $460 #
straight-curve $-1 47.595446638386179 0 6.2095339237743206 0 1 0 I I #
face $-1 $461 $462 $43 $-1 $463 reversed single #
loop $-1 $-1 $464 $183 #
plane-surface $-1 -47.595446638386179 0 0 1 0 0 0 0 -1 forward_v I I I I #
coedge $-1 $465 $296 $466 $467 forward $184 $-1 #
coedge $-1 $468 $186 $465 $469 forward $117 $-1 #
coedge $-1 $186 $468 $470 $471 forward $117 $-1 #
coedge $-1 $299 $298 $186 $292 reversed $300 $-1 #
edge $-1 $472 -2.1553963668186253 $473 2.1553963668186253 $291 $474 forward 7 unknown #
coedge $-1 $188 $187 $475 $476 forward $74 $-1 #
coedge $-1 $477 $478 $187 $295 reversed $462 $-1 #
edge $-1 $302 -47.595446638386179 $479 47.595446638386179 $294 $480 forward 7 unknown #
coedge $-1 $288 $481 $188 $297 reversed $184 $-1 #
edge $-1 $482 -47.595446638386179 $301 47.595446638386179 $296 $483 forward 7 unknown #
coedge $-1 $291 $189 $481 $484 forward $300 $-1 #
coedge $-1 $189 $291 $477 $485 reversed $300 $-1 #
loop $-1 $-1 $298 $461 #
vertex $-1 $190 $486 #
vertex $-1 $190 $487 #
straight-curve $-1 47.595446638386179 0 1.5 0 1 0 I I #
face $-1 $488 $489 $44 $-1 $490 reversed single #
loop $-1 $-1 $491 $191 #
plane-surface $-1 -190.38178655354471 0 0 1 0 0 0 0 -1 forward_v I I I I #
coedge $-1 $492 $315 $493 $494 forward $192 $-1 #
coedge $-1 $495 $194 $492 $496 forward $121 $-1 #
coedge $-1 $194 $495 $497 $498 forward $121 $-1 #
coedge $-1 $318 $317 $194 $311 reversed $319 $-1 #
edge $-1 $499 -3.0771226342933993 $500 3.0771226342933993 $310 $501 forward 7 unknown #
coedge $-1 $196 $195 $502 $503 forward $77 $-1 #
coedge $-1 $504 $505 $195 $314 reversed $489 $-1 #
edge $-1 $321 -190.38178655354471 $506 190.38178655354471 $313 $507 forward 7 unknown #
coedge $-1 $307 $508 $196 $316 reversed $192 $-1 #
edge $-1 $509 -190.38178655354471 $320 190.38178655354471 $315 $510 forward 7 unknown #
coedge $-1 $310 $197 $508 $511 forward $319 $-1 #
coedge $-1 $197 $310 $504 $512 reversed $319 $-1 #
loop $-1 $-1 $317 $488 #
vertex $-1 $198 $513 #
vertex $-1 $198 $514 #
straight-curve $-1 190.38178655354471 0 95.190893276772357 0 1 0 I I #
loop $-1 $-1 $515 $124 #
coedge $-1 $324 $324 $202 $325 reversed $199 $-1 #
edge $-1 $516 0 $516 6.2831853071796004 $324 $517 forward 7 unknown #
vertex $-1 $203 $518 #
ellipse-curve $-1 0 0 -4.4509033478804891 0 0 -1 1.5 0 0 1 I I #
face $-1 $519 $520 $46 $-1 $521 reversed single #
loop $-1 $-1 $522 $204 #
plane-surface $-1 -190.38178655354471 0 0 1 0 0 0 0 -1 forward_v I I I I #
coedge $-1 $523 $339 $524 $525 forward $205 $-1 #
coedge $-1 $526 $207 $523 $527 forward $130 $-1 #
coedge $-1 $207 $526 $528 $529 forward $130 $-1 #
coedge $-1 $342 $341 $207 $335 reversed $343 $-1 #
edge $-1 $530 -3.0771226342933993 $531 3.0771226342933993 $334 $532 forward 7 unknown #
coedge $-1 $209 $208 $533 $534 forward $83 $-1 #
coedge $-1 $535 $536 $208 $338 reversed $520 $-1 #
edge $-1 $345 -190.38178655354471 $537 190.38178655354471 $337 $538 forward 7 unknown #
coedge $-1 $331 $539 $209 $340 reversed $205 $-1 #
edge $-1 $540 -190.38178655354471 $344 190.38178655354471 $339 $541 forward 7 unknown #
coedge $-1 $334 $210 $539 $542 forward $343 $-1 #
coedge $-1 $210 $334 $535 $543 reversed $343 $-1 #
loop $-1 $-1 $341 $519 #
vertex $-1 $211 $544 #
vertex $-1 $211 $545 #
straight-curve $-1 190.38178655354471 0 95.190893276772357 0 1 0 I I #
loop $-1 $-1 $546 $133 #
coedge $-1 $348 $348 $215 $349 reversed $212 $-1 #
edge $-1 $547 0 $547 6.2831853071796004 $348 $548 forward 7 unknown #
vertex $-1 $216 $549 #
ellipse-curve $-1 0 0 -4.4509033478804891 0 0 -1 1.5 0 0 1 I I #
face $-1 $550 $551 $48 $-1 $552 reversed single #
loop $-1 $-1 $553 $217 #
plane-surface $-1 -190.38178655354471 0 0 1 0 0 0 0 -1 forward_v I I I I #
coedge $-1 $554 $363 $555 $556 forward $218 $-1 #
coedge $-1 $557 $220 $554 $558 forward $139 $-1 #
coedge $-1 $220 $557 $559 $560 forward $139 $-1 #
coedge $-1 $366 $365 $220 $359 reversed $367 $-1 #
edge $-1 $561 -3.0771226342933993 $562 3.0771226342933993 $358 $563 forward 7 unknown #
coedge $-1 $222 $221 $564 $565 forward $89 $-1 #
coedge $-1 $566 $567 $221 $362 reversed $551 $-1 #
edge $-1 $369 -190.38178655354471 $568 190.38178655354471 $361 $569 forward 7 unknown #
coedge $-1 $355 $570 $222 $364 reversed $218 $-1 #
edge $-1 $571 -190.38178655354471 $368 190.38178655354471 $363 $572 forward 7 unknown #
coedge $-1 $358 $223 $570 $573 forward $367 $-1 #
coedge $-1 $223 $358 $566 $574 reversed $367 $-1 #
loop $-1 $-1 $365 $550 #
vertex $-1 $224 $575 #
vertex $-1 $224 $576 #
straight-curve $-1 190.38178655354471 0 95.190893276772357 0 1 0 I I #
loop $-1 $-1 $577 $142 #
coedge $-1 $372 $372 $228 $373 reversed $225 $-1 #
edge $-1 $578 0 $578 6.2831853071796004 $372 $579 forward 7 unknown #
vertex $-1 $229 $580 #
ellipse-curve $-1 0 0 -4.4509033478804891 0 0 -1 1.5 0 0 1 I I #
face $-1 $581 $582 $50 $-1 $583 reversed single #
loop $-1 $-1 $584 $230 #
plane-surface $-1 -190.38178655354471 0 0 1 0 0 0 0 -1 forward_v I I I I #
coedge $-1 $585 $387 $586 $587 forward $231 $-1 #
coedge $-1 $588 $233 $585 $589 forward $148 $-1 #
coedge $-1 $233 $588 $590 $591 forward $148 $-1 #
coedge $-1 $390 $389 $233 $383 reversed $391 $-1 #
edge $-1 $592 -3.0771226342933993 $593 3.0771226342933993 $382 $594 forward 7 unknown #
coedge $-1 $235 $234 $595 $596 forward $95 $-1 #
coedge $-1 $597 $598 $234 $386 reversed $582 $-1 #
edge $-1 $393 -190.38178655354471 $599 190.38178655354471 $385 $600 forward 7 unknown #
coedge $-1 $379 $601 $235 $388 reversed $231 $-1 #
edge $-1 $602 -190.38178655354471 $392 190.38178655354471 $387 $603 forward 7 unknown #
coedge $-1 $382 $236 $601 $604 forward $391 $-1 #
coedge $-1 $236 $382 $597 $605 reversed $391 $-1 #
loop $-1 $-1 $389 $581 #
vertex $-1 $237 $606 #
vertex $-1 $237 $607 #
straight-curve $-1 190.38178655354471 0 95.190893276772357 0 1 0 I I #
loop $-1 $-1 $608 $151 #
coedge $-1 $396 $396 $241 $397 reversed $238 $-1 #
edge $-1 $609 0 $609 6.2831853071796004 $396 $610 forward 7 unknown #
vertex $-1 $242 $611 #
ellipse-curve $-1 0 0 -4.4509033478804891 0 0 -1 1.5 0 0 1 I I #
face $-1 $612 $613 $52 $-1 $614 reversed single #
loop $-1 $-1 $615 $243 #
plane-surface $-1 -190.38178655354471 0 0 1 0 0 0 0 -1 forward_v I I I I #
coedge $-1 $616 $411 $617 $618 forward $244 $-1 #
coedge $-1 $619 $246 $616 $620 forward $157 $-1 #
coedge $-1 $246 $619 $621 $622 forward $157 $-1 #
coedge $-1 $414 $413 $246 $407 reversed $415 $-1 #
edge $-1 $623 -3.2287852818968137 $624 3.2287852818968137 $406 $625 forward 7 unknown #
coedge $-1 $248 $247 $626 $627 forward $101 $-1 #
coedge $-1 $628 $629 $247 $410 reversed $613 $-1 #
edge $-1 $417 -190.38178655354471 $630 190.38178655354471 $409 $631 forward 7 unknown #
coedge $-1 $403 $632 $248 $412 reversed $244 $-1 #
edge $-1 $633 -190.38178655354471 $416 190.38178655354471 $411 $634 forward 7 unknown #
coedge $-1 $406 $249 $632 $635 forward $415 $-1 #
coedge $-1 $249 $406 $628 $636 reversed $415 $-1 #
loop $-1 $-1 $413 $612 #
vertex $-1 $250 $637 #
vertex $-1 $250 $638 #
straight-curve $-1 190.38178655354471 0 95.190893276772357 0 1 0 I I #
loop $-1 $-1 $639 $160 #
coedge $-1 $420 $420 $254 $421 reversed $251 $-1 #
edge $-1 $640 0 $640 6.2831853071796004 $420 $641 forward 7 unknown #
vertex $-1 $255 $642 #
ellipse-curve $-1 0 0 -1.25 0 0 -1 0.5 0 0 1 I I #
loop $-1 $-1 $643 $165 #
coedge $-1 $425 $425 $259 $426 reversed $256 $-1 #
edge $-1 $644 0 $644 6.2831853071796004 $425 $645 forward 7 unknown #
vertex $-1 $260 $646 #
ellipse-curve $-1 0 0 -1.25 0 0 -1 0.5 0 0 1 I I #
loop $-1 $-1 $647 $170 #
coedge $-1 $430 $430 $264 $431 reversed $261 $-1 #
edge $-1 $648 0 $648 6.2831853071796004 $430 $649 forward 7 unknown #
vertex $-1 $265 $650 #
ellipse-curve $-1 0 0 -1.25 0 0 -1 0.5 0 0 1 I I #
face $-1 $-1 $281 $42 $-1 $651 reversed single #
loop $-1 $-1 $450 $266 #
plane-surface $-1 0 22.898599765948635 0 0 -1 0 0 0 -1 forward_v I I I I #
coedge $-1 $652 $448 $451 $653 forward $267 $-1 #
coedge $-1 $454 $269 $270 $442 reversed $176 $-1 #
coedge $-1 $448 $652 $269 $440 reversed $267 $-1 #
edge $-1 $455 -6.2095339237743206 $654 6.2095339237743206 $439 $655 forward 7 unknown #
coedge $-1 $271 $270 $652 $656 forward $113 $-1 #
edge $-1 $446 -47.595446638386179 $654 47.595446638386179 $438 $657 forward 7 unknown #
coedge $-1 $451 $450 $271 $444 reversed $435 $-1 #
edge $-1 $658 -47.595446638386179 $445 47.595446638386179 $443 $659 forward 7 unknown #
vertex $-1 $273 $660 #
vertex $-1 $457 $661 #
straight-curve $-1 47.595446638386179 0 -6.2095339237743206 0 -1 0 I I #
coedge $-1 $437 $439 $274 $449 reversed $267 $-1 #
edge $-1 $452 -22.898599765948635 $455 22.898599765948635 $448 $662 forward 7 unknown #
coedge $-1 $443 $275 $280 $458 forward $435 $-1 #
coedge $-1 $275 $443 $437 $653 reversed $435 $-1 #
vertex $-1 $276 $663 #
straight-curve $-1 0 22.898599765948635 6.2095339237743206 -1 0 0 I I #
coedge $-1 $277 $438 $279 $457 reversed $176 $-1 #
vertex $-1 $449 $664 #
straight-curve $-1 0 -22.898599765948635 6.2095339237743206 1 0 0 I I #
edge $-1 $282 -6.2095339237743206 $446 6.2095339237743206 $279 $665 forward 7 unknown #
edge $-1 $283 -6.2095339237743206 $445 6.2095339237743206 $280 $666 forward 7 unknown #
point $-1 47.595446638386179 -22.898599765948635 6.2095339237743206 #
point $-1 47.595446638386179 22.898599765948635 6.2095339237743206 #
face $-1 $-1 $300 $43 $-1 $667 reversed single #
loop $-1 $-1 $477 $285 #
plane-surface $-1 0 2.1553963668186253 0 0 -1 0 0 0 -1 forward_v I I I I #
coedge $-1 $668 $475 $478 $669 forward $286 $-1 #
coedge $-1 $481 $288 $289 $469 reversed $184 $-1 #
coedge $-1 $475 $668 $288 $467 reversed $286 $-1 #
edge $-1 $482 -1.5 $670 1.5 $466 $671 forward 7 unknown #
coedge $-1 $290 $289 $668 $672 forward $117 $-1 #
edge $-1 $473 -47.595446638386179 $670 47.595446638386179 $465 $673 forward 7 unknown #
coedge $-1 $478 $477 $290 $471 reversed $462 $-1 #
edge $-1 $674 -47.595446638386179 $472 47.595446638386179 $470 $675 forward 7 unknown #
vertex $-1 $292 $676 #
vertex $-1 $484 $677 #
straight-curve $-1 47.595446638386179 0 -1.5 0 -1 0 I I #
coedge $-1 $464 $466 $293 $476 reversed $286 $-1 #
edge $-1 $479 -2.1553963668186253 $482 2.1553963668186253 $475 $678 forward 7 unknown #
coedge $-1 $470 $294 $299 $485 forward $462 $-1 #
coedge $-1 $294 $470 $464 $669 reversed $462 $-1 #
vertex $-1 $295 $679 #
straight-curve $-1 0 2.1553963668186253 1.5 -1 0 0 I I #
coedge $-1 $296 $465 $298 $484 reversed $184 $-1 #
vertex $-1 $476 $680 #
straight-curve $-1 0 -2.1553963668186253 1.5 1 0 0 I I #
edge $-1 $301 -1.5 $473 1.5 $298 $681 forward 7 unknown #
edge $-1 $302 -1.5 $472 1.5 $299 $682 forward 7 unknown #
point $-1 47.595446638386179 -2.1553963668186253 1.5 #
point $-1 47.595446638386179 2.1553963668186253 1.5 #
face $-1 $-1 $319 $44 $-1 $683 reversed single #
loop $-1 $-1 $504 $304 #
plane-surface $-1 0 3.0771226342933993 0 0 -1 0 0 0 -1 forward_v I I I I #
coedge $-1 $684 $502 $505 $685 forward $305 $-1 #
coedge $-1 $508 $307 $308 $496 reversed $192 $-1 #
coedge $-1 $502 $684 $307 $494 reversed $305 $-1 #
edge $-1 $509 -95.190893276772357 $686 95.190893276772357 $493 $687 forward 7 unknown #
coedge $-1 $309 $308 $684 $688 forward $121 $-1 #
edge $-1 $500 -190.38178655354471 $686 190.38178655354471 $492 $689 forward 7 unknown #
coedge $-1 $505 $504 $309 $498 reversed $489 $-1 #
edge $-1 $690 -190.38178655354471 $499 190.38178655354471 $497 $691 forward 7 unknown #
vertex $-1 $311 $692 #
vertex $-1 $511 $693 #
straight-curve $-1 190.38178655354471 0 -95.190893276772357 0 -1 0 I I #
coedge $-1 $491 $493 $312 $503 reversed $305 $-1 #
edge $-1 $506 -3.0771226342933993 $509 3.0771226342933993 $502 $694 forward 7 unknown #
coedge $-1 $497 $313 $318 $512 forward $489 $-1 #
coedge $-1 $313 $497 $491 $685 reversed $489 $-1 #
vertex $-1 $314 $695 #
straight-curve $-1 0 3.0771226342933993 95.190893276772357 -1 0 0 I I #
coedge $-1 $315 $492 $317 $511 reversed $192 $-1 #
vertex $-1 $503 $696 #
straight-curve $-1 0 -3.0771226342933993 95.190893276772357 1 0 0 I I #
edge $-1 $320 -95.190893276772357 $500 95.190893276772357 $317 $697 forward 7 unknown #
edge $-1 $321 -95.190893276772357 $499 95.190893276772357 $318 $698 forward 7 unknown #
point $-1 190.38178655354471 -3.0771226342933993 95.190893276772357 #
point $-1 190.38178655354471 3.0771226342933993 95.190893276772357 #
coedge $-1 $515 $515 $-1 $699 reversed $323 $-1 #
vertex $-1 $325 $700 #
ellipse-curve $-1 0 0 -0.75 0 0 -1 1.5 0 0 1 I I #
point $-1 1.5 0 -4.4509033478804891 #
face $-1 $-1 $343 $46 $-1 $701 reversed single #
loop $-1 $-1 $535 $328 #
plane-surface $-1 0 3.0771226342933993 0 0 -1 0 0 0 -1 forward_v I I I I #
coedge $-1 $702 $533 $536 $703 forward $329 $-1 #
coedge $-1 $539 $331 $332 $527 reversed $205 $-1 #
coedge $-1 $533 $702 $331 $525 reversed $329 $-1 #
edge $-1 $540 -95.190893276772357 $704 95.190893276772357 $524 $705 forward 7 unknown #
coedge $-1 $333 $332 $702 $706 forward $130 $-1 #
edge $-1 $531 -190.38178655354471 $704 190.38178655354471 $523 $707 forward 7 unknown #
coedge $-1 $536 $535 $333 $529 reversed $520 $-1 #
edge $-1 $708 -190.38178655354471 $530 190.38178655354471 $528 $709 forward 7 unknown #
vertex $-1 $335 $710 #
vertex $-1 $542 $711 #
straight-curve $-1 190.38178655354471 0 -95.190893276772357 0 -1 0 I I #
coedge $-1 $522 $524 $336 $534 reversed $329 $-1 #
edge $-1 $537 -3.0771226342933993 $540 3.0771226342933993 $533 $712 forward 7 unknown #
coedge $-1 $528 $337 $342 $543 forward $520 $-1 #
coedge $-1 $337 $528 $522 $703 reversed $520 $-1 #
vertex $-1 $338 $713 #
straight-curve $-1 0 3.0771226342933993 95.190893276772357 -1 0 0 I I #
coedge $-1 $339 $523 $341 $542 reversed $205 $-1 #
vertex $-1 $534 $714 #
straight-curve $-1 0 -3.0771226342933993 95.190893276772357 1 0 0 I I #
edge $-1 $344 -95.190893276772357 $531 95.190893276772357 $341 $715 forward 7 unknown #
edge $-1 $345 -95.190893276772357 $530 95.190893276772357 $342 $716 forward 7 unknown #
point $-1 190.38178655354471 -3.0771226342933993 95.190893276772357 #
point $-1 190.38178655354471 3.0771226342933993 95.190893276772357 #
coedge $-1 $546 $546 $-1 $717 reversed $347 $-1 #
vertex $-1 $349 $718 #
ellipse-curve $-1 0 0 -0.75 0 0 -1 1.5 0 0 1 I I #
point $-1 1.5 0 -4.4509033478804891 #
face $-1 $-1 $367 $48 $-1 $719 reversed single #
loop $-1 $-1 $566 $352 #
plane-surface $-1 0 3.0771226342933993 0 0 -1 0 0 0 -1 forward_v I I I I #
coedge $-1 $720 $564 $567 $721 forward $353 $-1 #
coedge $-1 $570 $355 $356 $558 reversed $218 $-1 #
coedge $-1 $564 $720 $355 $556 reversed $353 $-1 #
edge $-1 $571 -95.190893276772357 $722 95.190893276772357 $555 $723 forward 7 unknown #
coedge $-1 $357 $356 $720 $724 forward $139 $-1 #
edge $-1 $562 -190.38178655354471 $722 190.38178655354471 $554 $725 forward 7 unknown #
coedge $-1 $567 $566 $357 $560 reversed $551 $-1 #
edge $-1 $726 -190.38178655354471 $561 190.38178655354471 $559 $727 forward 7 unknown #
vertex $-1 $359 $728 #
vertex $-1 $573 $729 #
straight-curve $-1 190.38178655354471 0 -95.190893276772357 0 -1 0 I I #
coedge $-1 $553 $555 $360 $565 reversed $353 $-1 #
edge $-1 $568 -3.0771226342933993 $571 3.0771226342933993 $564 $730 forward 7 unknown #
coedge $-1 $559 $361 $366 $574 forward $551 $-1 #
coedge $-1 $361 $559 $553 $721 reversed $551 $-1 #
vertex $-1 $362 $731 #
straight-curve $-1 0 3.0771226342933993 95.190893276772357 -1 0 0 I I #
coedge $-1 $363 $554 $365 $573 reversed $218 $-1 #
vertex $-1 $565 $732 #
straight-curve $-1 0 -3.0771226342933993 95.190893276772357 1 0 0 I I #
edge $-1 $368 -95.190893276772357 $562 95.190893276772357 $365 $733 forward 7 unknown #
edge $-1 $369 -95.190893276772357 $561 95.190893276772357 $366 $734 forward 7 unknown #
point $-1 190.38178655354471 -3.0771226342933993 95.190893276772357 #
point $-1 190.38178655354471 3.0771226342933993 95.190893276772357 #
coedge $-1 $577 $577 $-1 $735 reversed $371 $-1 #
vertex $-1 $373 $736 #
ellipse-curve $-1 0 0 -0.75 0 0 -1 1.5 0 0 1 I I #
point $-1 1.5 0 -4.4509033478804891 #
face $-1 $-1 $391 $50 $-1 $737 reversed single #
loop $-1 $-1 $597 $376 #
plane-surface $-1 0 3.0771226342933993 0 0 -1 0 0 0 -1 forward_v I I I I #
coedge $-1 $738 $595 $598 $739 forward $377 $-1 #
coedge $-1 $601 $379 $380 $589 reversed $231 $-1 #
coedge $-1 $595 $738 $379 $587 reversed $377 $-1 #
edge $-1 $602 -95.190893276772357 $740 95.190893276772357 $586 $741 forward 7 unknown #
coedge $-1 $381 $380 $738 $742 forward $148 $-1 #
edge $-1 $593 -190.38178655354471 $740 190.38178655354471 $585 $743 forward 7 unknown #
coedge $-1 $598 $597 $381 $591 reversed $582 $-1 #
edge $-1 $744 -190.38178655354471 $592 190.38178655354471 $590 $745 forward 7 unknown #
vertex $-1 $383 $746 #
vertex $-1 $604 $747 #
straight-curve $-1 190.38178655354471 0 -95.190893276772357 0 -1 0 I I #
coedge $-1 $584 $586 $384 $596 reversed $377 $-1 #
edge $-1 $599 -3.0771226342933993 $602 3.0771226342933993 $595 $748 forward 7 unknown #
coedge $-1 $590 $385 $390 $605 forward $582 $-1 #
coedge $-1 $385 $590 $584 $739 reversed $582 $-1 #
vertex $-1 $386 $749 #
straight-curve $-1 0 3.0771226342933993 95.190893276772357 -1 0 0 I I #
coedge $-1 $387 $585 $389 $604 reversed $231 $-1 #
vertex $-1 $596 $750 #
straight-curve $-1 0 -3.0771226342933993 95.190893276772357 1 0 0 I I #
edge $-1 $392 -95.190893276772357 $593 95.190893276772357 $389 $751 forward 7 unknown #
edge $-1 $393 -95.190893276772357 $592 95.190893276772357 $390 $752 forward 7 unknown #
point $-1 190.38178655354471 -3.0771226342933993 95.190893276772357 #
point $-1 190.38178655354471 3.0771226342933993 95.190893276772357 #
coedge $-1 $608 $608 $-1 $753 reversed $395 $-1 #
vertex $-1 $397 $754 #
ellipse-curve $-1 0 0 -0.75 0 0 -1 1.5 0 0 1 I I #
point $-1 1.5 0 -4.4509033478804891 #
face $-1 $-1 $415 $52 $-1 $755 reversed single #
loop $-1 $-1 $628 $400 #
plane-surface $-1 0 3.2287852818968137 0 0 -1 0 0 0 -1 forward_v I I I I #
coedge $-1 $756 $626 $629 $757 forward $401 $-1 #
coedge $-1 $632 $403 $404 $620 reversed $244 $-1 #
coedge $-1 $626 $756 $403 $618 reversed $401 $-1 #
edge $-1 $633 -95.190893276772357 $758 95.190893276772357 $617 $759 forward 7 unknown #
coedge $-1 $405 $404 $756 $760 forward $157 $-1 #
edge $-1 $624 -190.38178655354471 $758 190.38178655354471 $616 $761 forward 7 unknown #
coedge $-1 $629 $628 $405 $622 reversed $613 $-1 #
edge $-1 $762 -190.38178655354471 $623 190.38178655354471 $621 $763 forward 7 unknown #
vertex $-1 $407 $764 #
vertex $-1 $635 $765 #
straight-curve $-1 190.38178655354471 0 -95.190893276772357 0 -1 0 I I #
coedge $-1 $615 $617 $408 $627 reversed $401 $-1 #
edge $-1 $630 -3.2287852818968137 $633 3.2287852818968137 $626 $766 forward 7 unknown #
coedge $-1 $621 $409 $414 $636 forward $613 $-1 #
coedge $-1 $409 $621 $615 $757 reversed $613 $-1 #
vertex $-1 $410 $767 #
straight-curve $-1 0 3.2287852818968137 95.190893276772357 -1 0 0 I I #
coedge $-1 $411 $616 $413 $635 reversed $244 $-1 #
vertex $-1 $627 $768 #
straight-curve $-1 0 -3.2287852818968137 95.190893276772357 1 0 0 I I #
edge $-1 $416 -95.190893276772357 $624 95.190893276772357 $413 $769 forward 7 unknown #
edge $-1 $417 -95.190893276772357 $623 95.190893276772357 $414 $770 forward 7 unknown #
point $-1 190.38178655354471 -3.2287852818968137 95.190893276772357 #
point $-1 190.38178655354471 3.2287852818968137 95.190893276772357 #
coedge $-1 $639 $639 $-1 $771 reversed $419 $-1 #
vertex $-1 $421 $772 #
ellipse-curve $-1 0 0 -0.25 0 0 -1 0.5 0 0 1 I I #
point $-1 0.5 0 -1.25 #
coedge $-1 $643 $643 $-1 $773 reversed $424 $-1 #
vertex $-1 $426 $774 #
ellipse-curve $-1 0 0 -0.25 0 0 -1 0.5 0 0 1 I I #
point $-1 0.5 0 -1.25 #
coedge $-1 $647 $647 $-1 $775 reversed $429 $-1 #
vertex $-1 $431 $776 #
ellipse-curve $-1 0 0 -0.25 0 0 -1 0.5 0 0 1 I I #
point $-1 0.5 0 -1.25 #
plane-surface $-1 47.595446638386179 0 0 -1 0 0 0 0 1 forward_v I I I I #
coedge $-1 $439 $437 $441 $656 reversed $267 $-1 #
edge $-1 $452 -6.2095339237743206 $658 6.2095339237743206 $451 $777 forward 7 unknown #
vertex $-1 $656 $778 #
straight-curve $-1 -47.595446638386179 -22.898599765948635 0 0 0 -1 I I #
edge $-1 $654 -22.898599765948635 $658 22.898599765948635 $652 $779 forward 7 unknown #
straight-curve $-1 0 -22.898599765948635 -6.2095339237743206 -1 0 0 I I #
vertex $-1 $444 $780 #
straight-curve $-1 0 22.898599765948635 -6.2095339237743206 1 0 0 I I #
point $-1 47.595446638386179 22.898599765948635 -6.2095339237743206 #
point $-1 47.595446638386179 -22.898599765948635 -6.2095339237743206 #
straight-curve $-1 -47.595446638386179 0 6.2095339237743206 0 -1 0 I I #
point $-1 -47.595446638386179 22.898599765948635 6.2095339237743206 #
point $-1 -47.595446638386179 -22.898599765948635 6.2095339237743206 #
straight-curve $-1 47.595446638386179 -22.898599765948635 0 0 0 -1 I I #
straight-curve $-1 47.595446638386179 22.898599765948635 0 0 0 -1 I I #
plane-surface $-1 47.595446638386179 0 0 -1 0 0 0 0 1 forward_v I I I I #
coedge $-1 $466 $464 $468 $672 reversed $286 $-1 #
edge $-1 $479 -1.5 $674 1.5 $478 $781 forward 7 unknown #
vertex $-1 $672 $782 #
straight-curve $-1 -47.595446638386179 -2.1553963668186253 0 0 0 -1 I I #
edge $-1 $670 -2.1553963668186253 $674 2.1553963668186253 $668 $783 forward 7 unknown #
straight-curve $-1 0 -2.1553963668186253 -1.5 -1 0 0 I I #
vertex $-1 $471 $784 #
straight-curve $-1 0 2.1553963668186253 -1.5 1 0 0 I I #
point $-1 47.595446638386179 2.1553963668186253 -1.5 #
point $-1 47.595446638386179 -2.1553963668186253 -1.5 #
straight-curve $-1 -47.595446638386179 0 1.5 0 -1 0 I I #
point $-1 -47.595446638386179 2.1553963668186253 1.5 #
point $-1 -47.595446638386179 -2.1553963668186253 1.5 #
straight-curve $-1 47.595446638386179 -2.1553963668186253 0 0 0 -1 I I #
straight-curve $-1 47.595446638386179 2.1553963668186253 0 0 0 -1 I I #
plane-surface $-1 190.38178655354471 0 0 -1 0 0 0 0 1 forward_v I I I I #
coedge $-1 $493 $491 $495 $688 reversed $305 $-1 #
edge $-1 $506 -95.190893276772357 $690 95.190893276772357 $505 $785 forward 7 unknown #
vertex $-1 $688 $786 #
straight-curve $-1 -190.38178655354471 -3.0771226342933993 0 0 0 -1 I I #
edge $-1 $686 -3.0771226342933993 $690 3.0771226342933993 $684 $787 forward 7 unknown #
straight-curve $-1 0 -3.0771226342933993 -95.190893276772357 -1 0 0 I I #
vertex $-1 $498 $788 #
straight-curve $-1 0 3.0771226342933993 -95.190893276772357 1 0 0 I I #
point $-1 190.38178655354471 3.0771226342933993 -95.190893276772357 #
point $-1 190.38178655354471 -3.0771226342933993 -95.190893276772357 #
straight-curve $-1 -190.38178655354471 0 95.190893276772357 0 -1 0 I I #
point $-1 -190.38178655354471 3.0771226342933993 95.190893276772357 #
point $-1 -190.38178655354471 -3.0771226342933993 95.190893276772357 #
straight-curve $-1 190.38178655354471 -3.0771226342933993 0 0 0 -1 I I #
straight-curve $-1 190.38178655354471 3.0771226342933993 0 0 0 -1 I I #
edge $-1 $789 1 $789 0 $515 $-1 forward 7 unknown #
point $-1 1.5 0 -0.75 #
plane-surface $-1 190.38178655354471 0 0 -1 0 0 0 0 1 forward_v I I I I #
coedge $-1 $524 $522 $526 $706 reversed $329 $-1 #
edge $-1 $537 -95.190893276772357 $708 95.190893276772357 $536 $790 forward 7 unknown #
vertex $-1 $706 $791 #
straight-curve $-1 -190.38178655354471 -3.0771226342933993 0 0 0 -1 I I #
edge $-1 $704 -3.0771226342933993 $708 3.0771226342933993 $702 $792 forward 7 unknown #
straight-curve $-1 0 -3.0771226342933993 -95.190893276772357 -1 0 0 I I #
vertex $-1 $529 $793 #
straight-curve $-1 0 3.0771226342933993 -95.190893276772357 1 0 0 I I #
point $-1 190.38178655354471 3.0771226342933993 -95.190893276772357 #
point $-1 190.38178655354471 -3.0771226342933993 -95.190893276772357 #
straight-curve $-1 -190.38178655354471 0 95.190893276772357 0 -1 0 I I #
point $-1 -190.38178655354471 3.0771226342933993 95.190893276772357 #
point $-1 -190.38178655354471 -3.0771226342933993 95.190893276772357 #
straight-curve $-1 190.38178655354471 -3.0771226342933993 0 0 0 -1 I I #
straight-curve $-1 190.38178655354471 3.0771226342933993 0 0 0 -1 I I #
edge $-1 $794 1 $794 0 $546 $-1 forward 7 unknown #
point $-1 1.5 0 -0.75 #
plane-surface $-1 190.38178655354471 0 0 -1 0 0 0 0 1 forward_v I I I I #
coedge $-1 $555 $553 $557 $724 reversed $353 $-1 #
edge $-1 $568 -95.190893276772357 $726 95.190893276772357 $567 $795 forward 7 unknown #
vertex $-1 $724 $796 #
straight-curve $-1 -190.38178655354471 -3.0771226342933993 0 0 0 -1 I I #
edge $-1 $722 -3.0771226342933993 $726 3.0771226342933993 $720 $797 forward 7 unknown #
straight-curve $-1 0 -3.0771226342933993 -95.190893276772357 -1 0 0 I I #
vertex $-1 $560 $798 #
straight-curve $-1 0 3.0771226342933993 -95.190893276772357 1 0 0 I I #
point $-1 190.38178655354471 3.0771226342933993 -95.190893276772357 #
point $-1 190.38178655354471 -3.0771226342933993 -95.190893276772357 #
straight-curve $-1 -190.38178655354471 0 95.190893276772357 0 -1 0 I I #
point $-1 -190.38178655354471 3.0771226342933993 95.190893276772357 #
point $-1 -190.38178655354471 -3.0771226342933993 95.190893276772357 #
straight-curve $-1 190.38178655354471 -3.0771226342933993 0 0 0 -1 I I #
straight-curve $-1 190.38178655354471 3.0771226342933993 0 0 0 -1 I I #
edge $-1 $799 1 $799 0 $577 $-1 forward 7 unknown #
point $-1 1.5 0 -0.75 #
plane-surface $-1 190.38178655354471 0 0 -1 0 0 0 0 1 forward_v I I I I #
coedge $-1 $586 $584 $588 $742 reversed $377 $-1 #
edge $-1 $599 -95.190893276772357 $744 95.190893276772357 $598 $800 forward 7 unknown #
vertex $-1 $742 $801 #
straight-curve $-1 -190.38178655354471 -3.0771226342933993 0 0 0 -1 I I #
edge $-1 $740 -3.0771226342933993 $744 3.0771226342933993 $738 $802 forward 7 unknown #
straight-curve $-1 0 -3.0771226342933993 -95.190893276772357 -1 0 0 I I #
vertex $-1 $591 $803 #
straight-curve $-1 0 3.0771226342933993 -95.190893276772357 1 0 0 I I #
point $-1 190.38178655354471 3.0771226342933993 -95.190893276772357 #
point $-1 190.38178655354471 -3.0771226342933993 -95.190893276772357 #
straight-curve $-1 -190.38178655354471 0 95.190893276772357 0 -1 0 I I #
point $-1 -190.38178655354471 3.0771226342933993 95.190893276772357 #
point $-1 -190.38178655354471 -3.0771226342933993 95.190893276772357 #
straight-curve $-1 190.38178655354471 -3.0771226342933993 0 0 0 -1 I I #
straight-curve $-1 190.38178655354471 3.0771226342933993 0 0 0 -1 I I #
edge $-1 $804 1 $804 0 $608 $-1 forward 7 unknown #
point $-1 1.5 0 -0.75 #
plane-surface $-1 190.38178655354471 0 0 -1 0 0 0 0 1 forward_v I I I I #
coedge $-1 $617 $615 $619 $760 reversed $401 $-1 #
edge $-1 $630 -95.190893276772357 $762 95.190893276772357 $629 $805 forward 7 unknown #
vertex $-1 $760 $806 #
straight-curve $-1 -190.38178655354471 -3.2287852818968137 0 0 0 -1 I I #
edge $-1 $758 -3.2287852818968137 $762 3.2287852818968137 $756 $807 forward 7 unknown #
straight-curve $-1 0 -3.2287852818968137 -95.190893276772357 -1 0 0 I I #
vertex $-1 $622 $808 #
straight-curve $-1 0 3.2287852818968137 -95.190893276772357 1 0 0 I I #
point $-1 190.38178655354471 3.2287852818968137 -95.190893276772357 #
point $-1 190.38178655354471 -3.2287852818968137 -95.190893276772357 #
straight-curve $-1 -190.38178655354471 0 95.190893276772357 0 -1 0 I I #
point $-1 -190.38178655354471 3.2287852818968137 95.190893276772357 #
point $-1 -190.38178655354471 -3.2287852818968137 95.190893276772357 #
straight-curve $-1 190.38178655354471 -3.2287852818968137 0 0 0 -1 I I #
straight-curve $-1 190.38178655354471 3.2287852818968137 0 0 0 -1 I I #
edge $-1 $809 1 $809 0 $639 $-1 forward 7 unknown #
point $-1 0.5 0 -0.25 #
edge $-1 $810 1 $810 0 $643 $-1 forward 7 unknown #
point $-1 0.5 0 -0.25 #
edge $-1 $811 1 $811 0 $647 $-1 forward 7 unknown #
point $-1 0.5 0 -0.25 #
straight-curve $-1 -47.595446638386179 22.898599765948635 0 0 0 -1 I I #
point $-1 -47.595446638386179 -22.898599765948635 -6.2095339237743206 #
straight-curve $-1 -47.595446638386179 0 -6.2095339237743206 0 1 0 I I #
point $-1 -47.595446638386179 22.898599765948635 -6.2095339237743206 #
straight-curve $-1 -47.595446638386179 2.1553963668186253 0 0 0 -1 I I #
point $-1 -47.595446638386179 -2.1553963668186253 -1.5 #
straight-curve $-1 -47.595446638386179 0 -1.5 0 1 0 I I #
point $-1 -47.595446638386179 2.1553963668186253 -1.5 #
straight-curve $-1 -190.38178655354471 3.0771226342933993 0 0 0 -1 I I #
point $-1 -190.38178655354471 -3.0771226342933993 -95.190893276772357 #
straight-curve $-1 -190.38178655354471 0 -95.190893276772357 0 1 0 I I #
point $-1 -190.38178655354471 3.0771226342933993 -95.190893276772357 #
vertex $-1 $699 $812 #
straight-curve $-1 -190.38178655354471 3.0771226342933993 0 0 0 -1 I I #
point $-1 -190.38178655354471 -3.0771226342933993 -95.190893276772357 #
straight-curve $-1 -190.38178655354471 0 -95.190893276772357 0 1 0 I I #
point $-1 -190.38178655354471 3.0771226342933993 -95.190893276772357 #
vertex $-1 $717 $813 #
straight-curve $-1 -190.38178655354471 3.0771226342933993 0 0 0 -1 I I #
point $-1 -190.38178655354471 -3.0771226342933993 -95.190893276772357 #
straight-curve $-1 -190.38178655354471 0 -95.190893276772357 0 1 0 I I #
point $-1 -190.38178655354471 3.0771226342933993 -95.190893276772357 #
vertex $-1 $735 $814 #
straight-curve $-1 -190.38178655354471 3.0771226342933993 0 0 0 -1 I I #
point $-1 -190.38178655354471 -3.0771226342933993 -95.190893276772357 #
straight-curve $-1 -190.38178655354471 0 -95.190893276772357 0 1 0 I I #
point $-1 -190.38178655354471 3.0771226342933993 -95.190893276772357 #
vertex $-1 $753 $815 #
straight-curve $-1 -190.38178655354471 3.2287852818968137 0 0 0 -1 I I #
point $-1 -190.38178655354471 -3.2287852818968137 -95.190893276772357 #
straight-curve $-1 -190.38178655354471 0 -95.190893276772357 0 1 0 I I #
point $-1 -190.38178655354471 3.2287852818968137 -95.190893276772357 #
vertex $-1 $771 $816 #
vertex $-1 $773 $817 #
vertex $-1 $775 $818 #
point $-1 0 0 0.75 #
point $-1 0 0 0.75 #
point $-1 0 0 0.75 #
point $-1 0 0 0.75 #
point $-1 0 0 0.25 #
point $-1 0 0 0.25 #
point $-1 0 0 0.25 #
End-of-ACIS-data 