500 0 6 0           
7 Unknown 11 ACIS 5.0 NT 24 Thu Mar 25 23:55:42 1999 
-1 9.9999999999999995e-007 1e-010 
body $-1 $6 $-1 $7 #
body $-1 $8 $-1 $9 #
body $-1 $10 $-1 $11 #
body $-1 $12 $-1 $13 #
body $-1 $14 $-1 $15 #
body $-1 $16 $-1 $17 #
lump $-1 $-1 $18 $0 #
transform $-1 1 0 0 0 1 0 0 0 1 49.936826685384688 34.828220087479274 12.52580827115389 1 rotate no_reflect no_shear #
lump $-1 $-1 $19 $1 #
transform $-1 1 0 0 0 1 0 0 0 1 49.936826685384688 34.828220087479274 12.52580827115389 1 rotate no_reflect no_shear #
lump $-1 $-1 $20 $2 #
transform $-1 1 0 0 0 1 0 0 0 1 49.936826685384688 34.828220087479274 12.52580827115389 1 rotate no_reflect no_shear #
lump $-1 $-1 $21 $3 #
transform $-1 1 0 0 0 1 0 0 0 1 49.936826685384688 34.828220087479274 12.52580827115389 1 rotate no_reflect no_shear #
lump $-1 $-1 $22 $4 #
transform $-1 1 0 0 0 1 0 0 0 1 49.936826685384688 34.828220087479274 12.52580827115389 1 rotate no_reflect no_shear #
lump $-1 $-1 $23 $5 #
transform $-1 1 0 0 0 1 0 0 0 1 49.936826685384688 34.828220087479274 12.52580827115389 1 rotate no_reflect no_shear #
shell $-1 $-1 $-1 $24 $-1 $6 #
shell $-1 $-1 $-1 $25 $-1 $8 #
shell $-1 $-1 $-1 $26 $-1 $10 #
shell $-1 $-1 $-1 $27 $-1 $12 #
shell $-1 $-1 $-1 $28 $-1 $14 #
shell $-1 $-1 $-1 $29 $-1 $16 #
face $-1 $30 $31 $18 $-1 $32 forward single #
face $-1 $33 $34 $19 $-1 $35 forward single #
face $-1 $36 $37 $20 $-1 $38 reversed single #
face $-1 $39 $40 $21 $-1 $41 forward single #
face $-1 $42 $43 $22 $-1 $44 reversed single #
face $-1 $45 $46 $23 $-1 $47 forward single #
face $-1 $48 $49 $18 $-1 $50 reversed single #
loop $-1 $-1 $51 $24 #
plane-surface $-1 0 0 12.52580827115389 0 0 1 1 0 0 forward_v I I I I #
face $-1 $52 $53 $19 $-1 $54 reversed single #
loop $-1 $-1 $55 $25 #
plane-surface $-1 0 -28.023503164304969 -9.5258082711538901 0 0 1 1 0 0 forward_v I I I I #
face $-1 $56 $57 $20 $-1 $58 reversed single #
loop $-1 $-1 $59 $26 #
plane-surface $-1 27.841605656907717 20.357993175429581 143.30191510167862 0 1 0 0.5877852598018023 0 0.80901698891910034 forward_v I I I I #
face $-1 $60 $61 $21 $-1 $62 forward single #
loop $-1 $63 $64 $27 #
cone-surface $-1 42.821230764788858 27.593106631454425 6.635148388272067 -0.5877852598018023 0 -0.80901698891910034 2.4270509667573013 0 -1.7633557794054069 1 I I 0 1 3 forward I I I I #
face $-1 $65 $66 $22 $-1 $67 reversed single #
loop $-1 $-1 $68 $28 #
plane-surface $-1 -121.77992138305628 -16.170722552672764 71.173224127425215 0 1 0 -0.71933980857756763 0 0.69465836192734942 forward_v I I I I #
face $-1 $69 $70 $23 $-1 $71 forward single #
loop $-1 $72 $73 $29 #
cone-surface $-1 -43.536311881605862 -11.120739522702117 5.9830374286993768 0.71933980857756763 0 -0.69465836192734942 1.3893167238546988 0 1.4386796171551353 1 I I 0 1 2 forward I I I I #
face $-1 $74 $75 $18 $-1 $76 reversed single #
loop $-1 $-1 $77 $30 #
plane-surface $-1 0 0 -12.52580827115389 0 0 1 1 0 0 forward_v I I I I #
coedge $-1 $78 $79 $80 $81 forward $31 $-1 #
face $-1 $82 $83 $19 $-1 $84 reversed single #
loop $-1 $-1 $85 $33 #
plane-surface $-1 0 -21.218786241130665 -11.02580827115389 0 -1 0 0 0 -1 forward_v I I I I #
coedge $-1 $86 $87 $88 $89 reversed $34 $-1 #
face $-1 $90 $91 $20 $-1 $92 forward single #
loop $-1 $-1 $93 $36 #
plane-surface $-1 -30.86265563698511 27.593106631454425 62.502432779308819 0.5877852598018023 0 0.80901698891910034 0.80901698891910034 0 -0.5877852598018023 forward_v I I I I #
coedge $-1 $94 $95 $96 $97 reversed $37 $-1 #
face $-1 $-1 $98 $21 $-1 $99 forward single #
loop $-1 $100 $101 $39 #
cone-surface $-1 40.830237577415531 27.593106631454425 3.8947814148805495 -0.5877852598018023 0 -0.80901698891910034 1.2135254833786506 0 -0.88167788970270344 1 I I -0.70710678118654757 0.70710678118654757 1.5 forward I I I I #
loop $-1 $-1 $102 $27 #
coedge $-1 $64 $64 $103 $104 reversed $40 $-1 #
face $-1 $105 $106 $22 $-1 $107 reversed single #
loop $-1 $-1 $108 $42 #
plane-surface $-1 -49.936826685384688 -11.120739522702117 1.7951556771866564 -0.71933980857756763 0 0.69465836192734942 0.69465836192734942 0 0.71933980857756763 forward_v I I I I #
coedge $-1 $109 $110 $111 $112 reversed $43 $-1 #
face $-1 $-1 $113 $23 $-1 $114 forward single #
loop $-1 $115 $116 $45 #
cone-surface $-1 -41.597692524445939 -11.120739522702117 4.110934521301127 0.71933980857756763 0 -0.69465836192734942 0.69465836192734942 0 0.71933980857756763 1 I I -0.70710678118654746 0.70710678118654746 1 forward I I I I #
loop $-1 $-1 $117 $29 #
coedge $-1 $73 $73 $118 $119 reversed $46 $-1 #
face $-1 $120 $121 $18 $-1 $122 reversed single #
loop $-1 $-1 $123 $48 #
plane-surface $-1 0 -34.828220087479274 0 0 1 0 0 0 1 forward_v I I I I #
coedge $-1 $124 $125 $126 $127 forward $49 $-1 #
coedge $-1 $128 $51 $129 $130 forward $31 $-1 #
coedge $-1 $51 $128 $131 $132 forward $31 $-1 #
coedge $-1 $133 $134 $51 $81 reversed $135 $-1 #
edge $-1 $136 -34.828220087479274 $137 34.828220087479274 $80 $138 forward 7 unknown #
face $-1 $139 $140 $19 $-1 $141 reversed single #
loop $-1 $-1 $142 $52 #
plane-surface $-1 0 0 -12.52580827115389 0 0 1 1 0 0 forward_v I I I I #
coedge $-1 $143 $144 $145 $146 reversed $53 $-1 #
coedge $-1 $147 $55 $144 $148 forward $34 $-1 #
coedge $-1 $55 $147 $149 $150 reversed $34 $-1 #
coedge $-1 $151 $145 $55 $89 forward $140 $-1 #
edge $-1 $152 7.2070346589781806 $153 20.816468505326789 $88 $154 forward 7 unknown #
face $-1 $155 $156 $20 $-1 $157 reversed single #
loop $-1 $-1 $158 $56 #
plane-surface $-1 0 0 12.52580827115389 0 0 1 1 0 0 forward_v I I I I #
coedge $-1 $159 $160 $161 $162 reversed $57 $-1 #
coedge $-1 $95 $59 $163 $164 reversed $37 $-1 #
coedge $-1 $59 $94 $159 $165 reversed $37 $-1 #
coedge $-1 $161 $166 $59 $97 forward $167 $-1 #
edge $-1 $168 59.125149279685417 $169 67.852786065423317 $96 $170 forward 7 unknown #
loop $-1 $-1 $103 $60 #
plane-surface $-1 -30.86265563698511 27.593106631454425 62.502432779308819 0.5877852598018023 0 0.80901698891910034 0.80901698891910034 0 -0.5877852598018023 forward_v I I I I #
loop $-1 $-1 $171 $39 #
coedge $-1 $101 $101 $102 $172 reversed $61 $-1 #
coedge $-1 $102 $102 $101 $172 forward $63 $-1 #
coedge $-1 $103 $103 $64 $104 forward $98 $-1 #
edge $-1 $173 0 $173 6.2831853071796004 $103 $174 forward 7 unknown #
face $-1 $175 $176 $22 $-1 $177 reversed single #
loop $-1 $-1 $178 $65 #
plane-surface $-1 -121.77992138305628 -6.0707564927314692 71.173224127425215 0 -1 0 0.71933980857756763 0 -0.69465836192734942 forward_v I I I I #
coedge $-1 $179 $180 $181 $182 reversed $66 $-1 #
coedge $-1 $110 $68 $183 $184 reversed $43 $-1 #
coedge $-1 $68 $109 $179 $185 reversed $43 $-1 #
coedge $-1 $181 $186 $68 $112 forward $187 $-1 #
edge $-1 $188 10.953134006143451 $189 21.315604516536382 $111 $190 forward 7 unknown #
loop $-1 $-1 $118 $69 #
plane-surface $-1 -49.936826685384688 -11.120739522702117 1.7951556771866564 -0.71933980857756763 0 0.69465836192734942 0.69465836192734942 0 0.71933980857756763 forward_v I I I I #
loop $-1 $-1 $191 $45 #
coedge $-1 $116 $116 $117 $192 reversed $70 $-1 #
coedge $-1 $117 $117 $116 $192 forward $72 $-1 #
coedge $-1 $118 $118 $73 $119 forward $113 $-1 #
edge $-1 $193 0 $193 6.2831853071796004 $118 $194 forward 7 unknown #
face $-1 $195 $196 $18 $-1 $197 reversed single #
loop $-1 $-1 $198 $74 #
plane-surface $-1 -49.936826685384688 0 0 1 0 0 0 0 -1 forward_v I I I I #
coedge $-1 $199 $131 $200 $201 forward $75 $-1 #
coedge $-1 $202 $77 $199 $203 forward $49 $-1 #
coedge $-1 $77 $202 $204 $205 forward $49 $-1 #
coedge $-1 $134 $133 $77 $127 reversed $135 $-1 #
edge $-1 $206 -34.828220087479274 $207 34.828220087479274 $126 $208 forward 7 unknown #
coedge $-1 $79 $78 $209 $210 forward $31 $-1 #
coedge $-1 $211 $212 $78 $130 reversed $196 $-1 #
edge $-1 $137 -49.936826685384688 $213 49.936826685384688 $129 $214 forward 7 unknown #
coedge $-1 $123 $215 $79 $132 reversed $75 $-1 #
edge $-1 $216 -49.936826685384688 $136 49.936826685384688 $131 $217 forward 7 unknown #
coedge $-1 $126 $80 $215 $218 forward $135 $-1 #
coedge $-1 $80 $126 $211 $219 reversed $135 $-1 #
loop $-1 $-1 $133 $195 #
vertex $-1 $81 $220 #
vertex $-1 $81 $221 #
straight-curve $-1 49.936826685384688 0 12.52580827115389 0 1 0 I I #
face $-1 $222 $223 $19 $-1 $224 reversed single #
loop $-1 $-1 $145 $82 #
plane-surface $-1 49.936826685384688 0 0 -1 0 0 0 0 1 forward_v I I I I #
coedge $-1 $225 $226 $143 $227 forward $83 $-1 #
coedge $-1 $228 $85 $142 $227 reversed $53 $-1 #
coedge $-1 $85 $228 $86 $148 reversed $53 $-1 #
coedge $-1 $88 $229 $85 $146 forward $140 $-1 #
edge $-1 $230 -7.012904135576945 $152 -4.012904135576945 $145 $231 forward 7 unknown #
coedge $-1 $87 $86 $232 $233 reversed $34 $-1 #
edge $-1 $152 -49.936826685384688 $234 49.936826685384688 $144 $235 forward 7 unknown #
coedge $-1 $236 $237 $87 $150 forward $223 $-1 #
edge $-1 $153 -49.936826685384688 $238 49.936826685384688 $149 $239 forward 7 unknown #
coedge $-1 $229 $88 $237 $240 forward $140 $-1 #
vertex $-1 $89 $241 #
vertex $-1 $240 $242 #
straight-curve $-1 49.936826685384688 -14.011751582152485 -9.5258082711538901 0 -1 0 I I #
face $-1 $-1 $167 $20 $-1 $243 reversed single #
loop $-1 $-1 $244 $90 #
plane-surface $-1 0 34.828220087479274 0 0 -1 0 0 0 -1 forward_v I I I I #
coedge $-1 $163 $245 $246 $247 forward $91 $-1 #
coedge $-1 $246 $93 $95 $165 forward $57 $-1 #
coedge $-1 $93 $246 $244 $248 reversed $57 $-1 #
coedge $-1 $249 $96 $93 $162 forward $167 $-1 #
edge $-1 $169 6.561439859702368 $250 21.031666771752061 $161 $251 forward 7 unknown #
coedge $-1 $252 $158 $94 $164 forward $91 $-1 #
edge $-1 $253 24.003462611080408 $168 36.016023856930829 $163 $254 forward 7 unknown #
edge $-1 $169 -99.873653370769375 $253 -85.025310986884463 $95 $255 forward 7 unknown #
coedge $-1 $96 $249 $252 $256 reversed $167 $-1 #
loop $-1 $-1 $161 $155 #
vertex $-1 $256 $257 #
vertex $-1 $97 $258 #
straight-curve $-1 49.936826685384688 20.357993175429581 71.650957550839308 0 0 -1 I I #
coedge $-1 $171 $171 $-1 $259 reversed $100 $-1 #
edge $-1 $260 0 $260 6.2831853071796004 $101 $261 forward 7 unknown #
vertex $-1 $104 $262 #
ellipse-curve $-1 43.930546062459484 27.593106631454425 8.1619898782849365 0.5877852598018023 0 0.80901698891910034 2.4270509667573013 0 -1.7633557794054069 1 I I #
face $-1 $-1 $187 $22 $-1 $263 forward single #
loop $-1 $-1 $264 $105 #
plane-surface $-1 -49.936826685384688 0 0 1 0 0 0 0 -1 forward_v I I I I #
coedge $-1 $265 $266 $267 $268 reversed $106 $-1 #
coedge $-1 $269 $108 $110 $185 forward $66 $-1 #
coedge $-1 $108 $269 $265 $270 forward $66 $-1 #
coedge $-1 $267 $111 $108 $182 forward $187 $-1 #
edge $-1 $189 -10.610352791321706 $271 -0.51038673138041091 $181 $272 forward 7 unknown #
coedge $-1 $273 $274 $109 $184 forward $176 $-1 #
edge $-1 $275 -33.791456386525951 $188 -23.060803792558715 $183 $276 forward 7 unknown #
edge $-1 $189 -14.917362373126787 $275 0 $110 $277 forward 7 unknown #
coedge $-1 $111 $267 $273 $278 forward $187 $-1 #
loop $-1 $-1 $267 $175 #
vertex $-1 $184 $279 #
vertex $-1 $112 $280 #
straight-curve $-1 -60.889960691528138 -16.170722552672764 12.525808271153892 1 0 0 I I #
coedge $-1 $191 $191 $-1 $281 reversed $115 $-1 #
edge $-1 $282 0 $282 6.2831853071796004 $116 $283 forward 7 unknown #
vertex $-1 $119 $284 #
ellipse-curve $-1 -44.755591430188218 -11.120739522702117 7.1604819741702768 -0.71933980857756763 0 0.69465836192734942 1.3893167238546988 0 1.4386796171551353 1 I I #
face $-1 $-1 $135 $18 $-1 $285 reversed single #
loop $-1 $-1 $211 $120 #
plane-surface $-1 0 34.828220087479274 0 0 -1 0 0 0 -1 forward_v I I I I #
coedge $-1 $286 $209 $212 $287 forward $121 $-1 #
coedge $-1 $215 $123 $124 $203 reversed $75 $-1 #
coedge $-1 $209 $286 $123 $201 reversed $121 $-1 #
edge $-1 $216 -12.52580827115389 $288 12.52580827115389 $200 $289 forward 7 unknown #
coedge $-1 $125 $124 $286 $290 forward $49 $-1 #
edge $-1 $207 -49.936826685384688 $288 49.936826685384688 $199 $291 forward 7 unknown #
coedge $-1 $212 $211 $125 $205 reversed $196 $-1 #
edge $-1 $292 -49.936826685384688 $206 49.936826685384688 $204 $293 forward 7 unknown #
vertex $-1 $127 $294 #
vertex $-1 $218 $295 #
straight-curve $-1 49.936826685384688 0 -12.52580827115389 0 -1 0 I I #
coedge $-1 $198 $200 $128 $210 reversed $121 $-1 #
edge $-1 $213 -34.828220087479274 $216 34.828220087479274 $209 $296 forward 7 unknown #
coedge $-1 $204 $129 $134 $219 forward $196 $-1 #
coedge $-1 $129 $204 $198 $287 reversed $196 $-1 #
vertex $-1 $130 $297 #
straight-curve $-1 0 34.828220087479274 12.52580827115389 -1 0 0 I I #
coedge $-1 $131 $199 $133 $218 reversed $75 $-1 #
vertex $-1 $210 $298 #
straight-curve $-1 0 -34.828220087479274 12.52580827115389 1 0 0 I I #
edge $-1 $136 -12.52580827115389 $207 12.52580827115389 $133 $299 forward 7 unknown #
edge $-1 $137 -12.52580827115389 $206 12.52580827115389 $134 $300 forward 7 unknown #
point $-1 49.936826685384688 -34.828220087479274 12.52580827115389 #
point $-1 49.936826685384688 34.828220087479274 12.52580827115389 #
face $-1 $-1 $301 $19 $-1 $302 reversed single #
loop $-1 $-1 $149 $139 #
plane-surface $-1 0 -34.828220087479274 0 0 1 0 0 0 1 forward_v I I I I #
coedge $-1 $303 $142 $229 $304 forward $83 $-1 #
coedge $-1 $142 $303 $305 $306 forward $83 $-1 #
edge $-1 $307 -49.936826685384688 $230 49.936826685384688 $142 $308 forward 7 unknown #
coedge $-1 $144 $143 $309 $310 reversed $53 $-1 #
coedge $-1 $145 $151 $225 $304 reversed $140 $-1 #
vertex $-1 $304 $311 #
straight-curve $-1 49.936826685384688 -21.218786241130665 -5.512904135576945 0 0 1 I I #
coedge $-1 $309 $312 $147 $233 forward $301 $-1 #
edge $-1 $238 -20.816468505326789 $234 -7.2070346589781806 $232 $313 forward 7 unknown #
vertex $-1 $233 $314 #
straight-curve $-1 0 -21.218786241130665 -9.5258082711538901 -1 0 0 I I #
coedge $-1 $315 $149 $312 $316 forward $223 $-1 #
coedge $-1 $149 $315 $151 $240 reversed $223 $-1 #
vertex $-1 $316 $317 #
straight-curve $-1 0 -34.828220087479274 -9.5258082711538901 -1 0 0 I I #
edge $-1 $153 9.5258082711538901 $318 12.52580827115389 $151 $319 forward 7 unknown #
point $-1 49.936826685384688 -21.218786241130665 -9.5258082711538901 #
point $-1 49.936826685384688 -34.828220087479274 -9.5258082711538901 #
plane-surface $-1 49.936826685384688 0 0 -1 0 0 0 0 1 forward_v I I I I #
coedge $-1 $320 $321 $160 $248 forward $156 $-1 #
coedge $-1 $158 $252 $320 $322 forward $91 $-1 #
coedge $-1 $160 $159 $158 $247 reversed $57 $-1 #
edge $-1 $323 -21.031666771752054 $253 -6.561439859702368 $158 $324 forward 7 unknown #
edge $-1 $250 -69.020442659313616 $323 -54.172100275428718 $244 $325 forward 7 unknown #
coedge $-1 $166 $161 $321 $326 reversed $167 $-1 #
vertex $-1 $162 $327 #
straight-curve $-1 49.936826685384688 13.796553315727213 3.7981714854159954 0 1 0 I I #
coedge $-1 $245 $163 $166 $256 forward $91 $-1 #
vertex $-1 $164 $328 #
straight-curve $-1 13.920802828453859 20.357993175429581 12.525808271153892 1 0 0 I I #
straight-curve $-1 -30.86265563698511 20.357993175429581 62.502432779308819 -0.80901698891910034 0 0.5877852598018023 I I #
edge $-1 $168 20.357993175429581 $329 34.828220087479274 $166 $330 forward 7 unknown #
point $-1 49.936826685384688 20.357993175429581 12.52580827115389 #
point $-1 49.936826685384688 20.357993175429581 3.7981714854159918 #
edge $-1 $331 1 $331 0 $171 $-1 forward 7 unknown #
vertex $-1 $172 $332 #
ellipse-curve $-1 41.711915467118232 27.593106631454425 5.1083068982592001 0.5877852598018023 0 0.80901698891910034 2.4270509667573013 0 -1.7633557794054069 1 I I #
point $-1 46.357597029216784 27.593106631454425 6.3986340988795272 #
plane-surface $-1 0 0 12.52580827115389 0 0 1 1 0 0 forward_v I I I I #
coedge $-1 $274 $273 $266 $333 forward $176 $-1 #
coedge $-1 $266 $178 $180 $270 reversed $106 $-1 #
coedge $-1 $178 $265 $264 $333 reversed $106 $-1 #
coedge $-1 $186 $181 $178 $268 forward $187 $-1 #
edge $-1 $271 -21.315604516536382 $334 -10.953134006143451 $267 $335 forward 7 unknown #
coedge $-1 $180 $179 $274 $336 reversed $66 $-1 #
edge $-1 $337 0 $271 14.917362373126787 $265 $338 forward 7 unknown #
vertex $-1 $182 $339 #
straight-curve $-1 -39.574356174991756 -5.5603697613510583 12.52580827115389 0 1 0 I I #
coedge $-1 $264 $183 $186 $278 reversed $176 $-1 #
coedge $-1 $183 $264 $269 $336 forward $176 $-1 #
vertex $-1 $184 $340 #
straight-curve $-1 -49.936826685384688 -16.170722552672764 35.586612063712607 0 0 1 I I #
straight-curve $-1 -49.936826685384688 -16.170722552672764 1.7951556771866564 -0.69465836192734942 0 -0.71933980857756763 I I #
edge $-1 $334 6.0707564927314692 $188 16.170722552672764 $273 $341 forward 7 unknown #
point $-1 -49.936826685384688 -16.170722552672764 12.52580827115389 #
point $-1 -39.574356174991756 -16.170722552672764 12.52580827115389 #
edge $-1 $342 1 $342 0 $191 $-1 forward 7 unknown #
vertex $-1 $192 $343 #
ellipse-curve $-1 -42.317032333023505 -11.120739522702117 4.805592883228476 -0.71933980857756763 0 0.69465836192734942 1.3893167238546988 0 1.4386796171551353 1 I I #
point $-1 -43.36627470633352 -11.120739522702117 8.5991615913254122 #
plane-surface $-1 49.936826685384688 0 0 -1 0 0 0 0 1 forward_v I I I I #
coedge $-1 $200 $198 $202 $290 reversed $121 $-1 #
edge $-1 $213 -12.52580827115389 $292 12.52580827115389 $212 $344 forward 7 unknown #
vertex $-1 $290 $345 #
straight-curve $-1 -49.936826685384688 -34.828220087479274 0 0 0 -1 I I #
edge $-1 $288 -34.828220087479274 $292 34.828220087479274 $286 $346 forward 7 unknown #
straight-curve $-1 0 -34.828220087479274 -12.52580827115389 -1 0 0 I I #
vertex $-1 $205 $347 #
straight-curve $-1 0 34.828220087479274 -12.52580827115389 1 0 0 I I #
point $-1 49.936826685384688 34.828220087479274 -12.52580827115389 #
point $-1 49.936826685384688 -34.828220087479274 -12.52580827115389 #
straight-curve $-1 -49.936826685384688 0 12.52580827115389 0 -1 0 I I #
point $-1 -49.936826685384688 34.828220087479274 12.52580827115389 #
point $-1 -49.936826685384688 -34.828220087479274 12.52580827115389 #
straight-curve $-1 49.936826685384688 -34.828220087479274 0 0 0 -1 I I #
straight-curve $-1 49.936826685384688 34.828220087479274 0 0 0 -1 I I #
loop $-1 $-1 $309 $222 #
plane-surface $-1 -49.936826685384688 0 0 1 0 0 0 0 -1 forward_v I I I I #
coedge $-1 $226 $225 $315 $348 forward $83 $-1 #
edge $-1 $230 21.218786241130665 $318 34.828220087479274 $229 $349 forward 7 unknown #
coedge $-1 $312 $309 $226 $306 reversed $301 $-1 #
edge $-1 $350 -34.828220087479274 $307 -21.218786241130665 $305 $351 forward 7 unknown #
vertex $-1 $310 $352 #
straight-curve $-1 0 -21.218786241130665 -12.52580827115389 1 0 0 I I #
coedge $-1 $305 $232 $228 $310 forward $301 $-1 #
edge $-1 $234 4.012904135576945 $307 7.012904135576945 $309 $353 forward 7 unknown #
point $-1 49.936826685384688 -21.218786241130665 -12.52580827115389 #
coedge $-1 $232 $305 $236 $316 reversed $301 $-1 #
straight-curve $-1 -49.936826685384688 -14.011751582152485 -9.5258082711538901 0 1 0 I I #
point $-1 -49.936826685384688 -21.218786241130665 -9.5258082711538901 #
coedge $-1 $237 $236 $303 $348 reversed $223 $-1 #
edge $-1 $238 9.5258082711538901 $350 12.52580827115389 $312 $354 forward 7 unknown #
point $-1 -49.936826685384688 -34.828220087479274 -9.5258082711538901 #
vertex $-1 $240 $355 #
straight-curve $-1 49.936826685384688 -34.828220087479274 0 0 0 -1 I I #
coedge $-1 $321 $244 $245 $322 reversed $156 $-1 #
coedge $-1 $244 $320 $249 $326 forward $156 $-1 #
edge $-1 $329 -49.936826685384688 $323 -37.924265439534267 $320 $356 forward 7 unknown #
vertex $-1 $247 $357 #
straight-curve $-1 37.924265439534274 13.796553315727213 12.525808271153892 0 -1 0 I I #
straight-curve $-1 -5.9018840087166424 34.828220087479274 44.367370305556044 -0.80901698891910034 0 0.5877852598018023 I I #
edge $-1 $329 -12.52580827115389 $250 -3.798171485415986 $249 $358 forward 7 unknown #
point $-1 49.936826685384688 34.828220087479274 3.798171485415986 #
point $-1 37.924265439534267 20.357993175429581 12.525808271153892 #
vertex $-1 $256 $359 #
straight-curve $-1 49.936826685384688 0 12.52580827115389 0 1 0 I I #
vertex $-1 $259 $360 #
point $-1 44.138966433875538 27.593106631454425 3.3449511188537935 #
edge $-1 $334 23.060803792558715 $337 33.791456386525951 $264 $361 forward 7 unknown #
vertex $-1 $278 $362 #
straight-curve $-1 -60.889960691528138 -6.0707564927314692 12.525808271153892 -1 0 0 I I #
edge $-1 $337 0.51038673138041091 $275 10.610352791321706 $274 $363 forward 7 unknown #
vertex $-1 $336 $364 #
straight-curve $-1 -49.936826685384688 -6.0707564927314692 1.7951556771866564 0.69465836192734942 0 0.71933980857756763 I I #
point $-1 -39.574356174991756 -6.0707564927314692 12.52580827115389 #
point $-1 -49.936826685384688 -16.170722552672764 1.7951556771866564 #
straight-curve $-1 -49.936826685384688 0 12.52580827115389 0 -1 0 I I #
vertex $-1 $281 $365 #
point $-1 -40.927715609168807 -11.120739522702117 6.2442725003836115 #
straight-curve $-1 -49.936826685384688 34.828220087479274 0 0 0 -1 I I #
point $-1 -49.936826685384688 -34.828220087479274 -12.52580827115389 #
straight-curve $-1 -49.936826685384688 0 -12.52580827115389 0 1 0 I I #
point $-1 -49.936826685384688 34.828220087479274 -12.52580827115389 #
edge $-1 $318 -49.936826685384688 $350 49.936826685384688 $315 $366 forward 7 unknown #
straight-curve $-1 49.936826685384688 0 -12.52580827115389 0 -1 0 I I #
vertex $-1 $306 $367 #
straight-curve $-1 -49.936826685384688 0 -12.52580827115389 0 1 0 I I #
point $-1 -49.936826685384688 -21.218786241130665 -12.52580827115389 #
straight-curve $-1 -49.936826685384688 -21.218786241130665 -5.512904135576945 0 0 -1 I I #
straight-curve $-1 -49.936826685384688 -34.828220087479274 0 0 0 -1 I I #
point $-1 49.936826685384688 -34.828220087479274 -12.52580827115389 #
straight-curve $-1 0 34.828220087479274 12.52580827115389 -1 0 0 I I #
point $-1 37.924265439534267 34.828220087479266 12.525808271153892 #
straight-curve $-1 49.936826685384688 34.828220087479274 0 0 0 -1 I I #
point $-1 49.936826685384688 34.828220087479274 12.52580827115389 #
point $-1 39.94855968771283 27.593106631454425 2.6812559315018989 #
straight-curve $-1 -49.936826685384688 -6.0707564927314692 35.586612063712607 0 0 -1 I I #
point $-1 -49.936826685384688 -6.0707564927314692 12.52580827115389 #
straight-curve $-1 -49.936826685384688 -5.5603697613510583 1.795155677186653 0 -1 0 I I #
point $-1 -49.936826685384688 -6.0707564927314692 1.7951556771866564 #
point $-1 -40.878352715868374 -11.120739522702117 3.4162761593737776 #
straight-curve $-1 0 -34.828220087479274 -12.52580827115389 -1 0 0 I I #
point $-1 -49.936826685384688 -34.828220087479274 -12.52580827115389 #
End-of-ACIS-data 