500 0 13 0           
7 Unknown 11 ACIS 5.0 NT 24 Thu Mar 25 17:22:38 1999 
-1 9.9999999999999995e-007 1e-010 
body $-1 $13 $-1 $14 #
body $-1 $15 $-1 $16 #
body $-1 $17 $-1 $18 #
body $-1 $19 $-1 $20 #
body $-1 $21 $-1 $22 #
body $-1 $23 $-1 $24 #
body $-1 $25 $-1 $26 #
body $-1 $27 $-1 $28 #
body $-1 $29 $-1 $30 #
body $-1 $31 $-1 $32 #
body $-1 $33 $-1 $34 #
body $-1 $35 $-1 $36 #
body $-1 $37 $-1 $38 #
lump $-1 $-1 $39 $0 #
transform $-1 1 0 0 0 1 0 0 0 1 45.116122928556166 23.611234547808849 10.699671572925482 1 rotate no_reflect no_shear #
lump $-1 $-1 $40 $1 #
transform $-1 1 0 0 0 1 0 0 0 1 45.116122928556166 23.611234547808849 10.699671572925482 1 rotate no_reflect no_shear #
lump $-1 $-1 $41 $2 #
transform $-1 1 0 0 0 1 0 0 0 1 45.116122928556166 23.611234547808849 10.699671572925482 1 rotate no_reflect no_shear #
lump $-1 $-1 $42 $3 #
transform $-1 1 0 0 0 1 0 0 0 1 45.116122928556166 23.611234547808849 10.699671572925482 1 rotate no_reflect no_shear #
lump $-1 $-1 $43 $4 #
transform $-1 1 0 0 0 1 0 0 0 1 45.116122928556166 23.611234547808849 10.699671572925482 1 rotate no_reflect no_shear #
lump $-1 $-1 $44 $5 #
transform $-1 1 0 0 0 1 0 0 0 1 45.116122928556166 23.611234547808849 10.699671572925482 1 rotate no_reflect no_shear #
lump $-1 $-1 $45 $6 #
transform $-1 1 0 0 0 1 0 0 0 1 45.116122928556166 23.611234547808849 10.699671572925482 1 rotate no_reflect no_shear #
lump $-1 $-1 $46 $7 #
transform $-1 1 0 0 0 1 0 0 0 1 45.116122928556166 23.611234547808849 10.699671572925482 1 rotate no_reflect no_shear #
lump $-1 $-1 $47 $8 #
transform $-1 1 0 0 0 1 0 0 0 1 45.116122928556166 23.611234547808849 10.699671572925482 1 rotate no_reflect no_shear #
lump $-1 $-1 $48 $9 #
transform $-1 1 0 0 0 1 0 0 0 1 45.116122928556166 23.611234547808849 10.699671572925482 1 rotate no_reflect no_shear #
lump $-1 $-1 $49 $10 #
transform $-1 1 0 0 0 1 0 0 0 1 45.116122928556166 23.611234547808849 10.699671572925482 1 rotate no_reflect no_shear #
lump $-1 $-1 $50 $11 #
transform $-1 1 0 0 0 1 0 0 0 1 45.116122928556166 23.611234547808849 10.699671572925482 1 rotate no_reflect no_shear #
lump $-1 $-1 $51 $12 #
transform $-1 1 0 0 0 1 0 0 0 1 45.116122928556166 23.611234547808849 10.699671572925482 1 rotate no_reflect no_shear #
shell $-1 $-1 $-1 $52 $-1 $13 #
shell $-1 $-1 $-1 $53 $-1 $15 #
shell $-1 $-1 $-1 $54 $-1 $17 #
shell $-1 $-1 $-1 $55 $-1 $19 #
shell $-1 $-1 $-1 $56 $-1 $21 #
shell $-1 $-1 $-1 $57 $-1 $23 #
shell $-1 $-1 $-1 $58 $-1 $25 #
shell $-1 $-1 $-1 $59 $-1 $27 #
shell $-1 $-1 $-1 $60 $-1 $29 #
shell $-1 $-1 $-1 $61 $-1 $31 #
shell $-1 $-1 $-1 $62 $-1 $33 #
shell $-1 $-1 $-1 $63 $-1 $35 #
shell $-1 $-1 $-1 $64 $-1 $37 #
face $-1 $65 $66 $39 $-1 $67 forward single #
face $-1 $68 $69 $40 $-1 $70 reversed single #
face $-1 $71 $72 $41 $-1 $73 reversed single #
face $-1 $74 $75 $42 $-1 $76 reversed single #
face $-1 $77 $78 $43 $-1 $79 forward single #
face $-1 $80 $81 $44 $-1 $82 forward single #
face $-1 $83 $84 $45 $-1 $85 forward single #
face $-1 $86 $87 $46 $-1 $88 reversed single #
face $-1 $89 $90 $47 $-1 $91 forward single #
face $-1 $92 $93 $48 $-1 $94 forward single #
face $-1 $95 $96 $49 $-1 $97 reversed single #
face $-1 $98 $99 $50 $-1 $100 forward single #
face $-1 $101 $102 $51 $-1 $103 forward single #
face $-1 $104 $105 $39 $-1 $106 reversed single #
loop $-1 $-1 $107 $52 #
plane-surface $-1 0 0 10.699671572925482 0 0 1 1 0 0 forward_v I I I I #
face $-1 $108 $109 $40 $-1 $110 reversed single #
loop $-1 $-1 $111 $53 #
plane-surface $-1 -29.384369724495372 -18.443074724144914 0 1 0 0 0 0 -1 forward_v I I I I #
face $-1 $112 $113 $41 $-1 $114 reversed single #
loop $-1 $-1 $115 $54 #
plane-surface $-1 -26.550574753600287 13.274914900480979 0 0 1 0 0 0 1 forward_v I I I I #
face $-1 $116 $117 $42 $-1 $118 reversed single #
loop $-1 $-1 $119 $55 #
plane-surface $-1 22.957285430652831 -1.4396049558323973 127.95445867092251 0 -1 0 -0.57357644374324357 0 -0.81915203911291934 forward_v I I I I #
face $-1 $120 $121 $43 $-1 $122 forward single #
loop $-1 $123 $124 $56 #
cone-surface $-1 38.776121118240965 -7.0496434178648784 6.0189564583021502 -0.57357644374324357 0 -0.81915203911291934 0.40957601955645967 0 -0.28678822187162178 1 I I 0 1 0.5 forward I I I I #
face $-1 $125 $126 $44 $-1 $127 forward single #
loop $-1 $128 $129 $57 #
cone-surface $-1 38.776121118240965 -4.9458789946026975 6.0189564583021502 -0.57357644374324357 0 -0.81915203911291934 0.40957601955645967 0 -0.28678822187162178 1 I I 0 1 0.5 forward I I I I #
face $-1 $130 $131 $45 $-1 $132 forward single #
loop $-1 $133 $134 $58 #
cone-surface $-1 38.776121118240965 -2.8421145713405167 6.0189564583021502 -0.57357644374324357 0 -0.81915203911291934 0.40957601955645967 0 -0.28678822187162178 1 I I 0 1 0.5 forward I I I I #
face $-1 $135 $136 $46 $-1 $137 reversed single #
loop $-1 $-1 $138 $59 #
plane-surface $-1 -45.11612292855618 -10.097005772930421 0.058275659965374871 -0.55919291073839883 0 0.82903756765294845 0.82903756765294845 0 0.55919291073839883 forward_v I I I I #
face $-1 $139 $140 $47 $-1 $141 forward single #
loop $-1 $142 $143 $60 #
cone-surface $-1 -36.94826750682855 -11.458966827594947 4.9644548326189541 0.55919291073839883 0 -0.82903756765294845 0.20725939191323711 0 0.13979822768459971 1 I I 0 1 0.25 forward I I I I #
face $-1 $144 $145 $48 $-1 $146 forward single #
loop $-1 $147 $148 $61 #
cone-surface $-1 -36.94826750682855 -8.7350447182658932 4.9644548326189541 0.55919291073839883 0 -0.82903756765294845 0.20725939191323711 0 0.13979822768459971 1 I I 0 1 0.25 forward I I I I #
face $-1 $149 $150 $49 $-1 $151 reversed single #
loop $-1 $-1 $152 $62 #
plane-surface $-1 -95.573355131857653 -1.7763568394002505e-015 74.864197289208619 0 1 0 -0.55919291073839883 0 0.82903756765294845 forward_v I I I I #
face $-1 $153 $154 $50 $-1 $155 forward single #
loop $-1 $156 $157 $63 #
cone-surface $-1 -36.94826750682855 1.8159480728860338 4.9644548326189541 0.55919291073839883 0 -0.82903756765294845 0.20725939191323711 0 0.13979822768459971 1 I I 0 1 0.25 forward I I I I #
face $-1 $158 $159 $51 $-1 $160 forward single #
loop $-1 $161 $162 $64 #
cone-surface $-1 -36.94826750682855 4.5398701822150898 4.9644548326189541 0.55919291073839883 0 -0.82903756765294845 0.20725939191323711 0 0.13979822768459971 1 I I 0 1 0.25 forward I I I I #
face $-1 $163 $164 $39 $-1 $165 reversed single #
loop $-1 $-1 $166 $65 #
plane-surface $-1 0 0 -10.699671572925482 0 0 1 1 0 0 forward_v I I I I #
coedge $-1 $167 $168 $169 $170 forward $66 $-1 #
face $-1 $171 $172 $40 $-1 $173 reversed single #
loop $-1 $-1 $174 $68 #
plane-surface $-1 -26.550574753600287 -13.274914900480981 0 0 -1 0 0 0 -1 forward_v I I I I #
coedge $-1 $175 $176 $177 $178 forward $69 $-1 #
face $-1 $179 $180 $41 $-1 $181 reversed single #
loop $-1 $-1 $182 $71 #
plane-surface $-1 -29.384369724495372 18.443074724144914 0 1 0 0 0 0 -1 forward_v I I I I #
coedge $-1 $183 $184 $185 $186 forward $72 $-1 #
face $-1 $187 $188 $42 $-1 $189 reversed single #
loop $-1 $-1 $190 $74 #
plane-surface $-1 -28.797805259035684 -4.9458789946026975 54.04053048333067 0.57357644374324357 0 0.81915203911291934 0.81915203911291934 0 -0.57357644374324357 forward_v I I I I #
coedge $-1 $191 $192 $193 $194 reversed $75 $-1 #
face $-1 $-1 $195 $43 $-1 $196 forward single #
loop $-1 $197 $198 $77 #
cone-surface $-1 38.301109253513417 -7.0496434178648784 5.3405692235422393 -0.57357644374324357 0 -0.81915203911291934 0.20478800977822983 0 -0.14339411093581089 1 I I -0.70710678118654746 0.70710678118654746 0.25 forward I I I I #
loop $-1 $-1 $199 $56 #
coedge $-1 $124 $124 $200 $201 reversed $78 $-1 #
face $-1 $-1 $202 $44 $-1 $203 forward single #
loop $-1 $204 $205 $80 #
cone-surface $-1 38.301109253513417 -4.9458789946026975 5.3405692235422393 -0.57357644374324357 0 -0.81915203911291934 0.20478800977822983 0 -0.14339411093581089 1 I I -0.70710678118654746 0.70710678118654746 0.25 forward I I I I #
loop $-1 $-1 $206 $57 #
coedge $-1 $129 $129 $207 $208 reversed $81 $-1 #
face $-1 $-1 $209 $45 $-1 $210 forward single #
loop $-1 $211 $212 $83 #
cone-surface $-1 38.301109253513417 -2.8421145713405167 5.3405692235422393 -0.57357644374324357 0 -0.81915203911291934 0.20478800977822983 0 -0.14339411093581089 1 I I -0.70710678118654746 0.70710678118654746 0.25 forward I I I I #
loop $-1 $-1 $213 $58 #
coedge $-1 $134 $134 $214 $215 reversed $84 $-1 #
face $-1 $216 $217 $46 $-1 $218 forward single #
loop $-1 $-1 $219 $86 #
plane-surface $-1 -95.573355131857653 -6.9190966453798595 74.864197289208619 0 -1 0 0.55919291073839883 0 -0.82903756765294845 forward_v I I I I #
coedge $-1 $220 $221 $222 $223 reversed $87 $-1 #
face $-1 $-1 $224 $47 $-1 $225 forward single #
loop $-1 $226 $227 $89 #
cone-surface $-1 -36.598771937617052 -11.458966827594947 4.4463063528358617 0.55919291073839883 0 -0.82903756765294845 0.10362969595661856 0 0.069899113842299854 1 I I -0.70710678118654746 0.70710678118654746 0.125 forward I I I I #
loop $-1 $-1 $228 $60 #
coedge $-1 $143 $143 $229 $230 reversed $90 $-1 #
face $-1 $-1 $231 $48 $-1 $232 forward single #
loop $-1 $233 $234 $92 #
cone-surface $-1 -36.598771937617052 -8.7350447182658932 4.4463063528358617 0.55919291073839883 0 -0.82903756765294845 0.10362969595661856 0 0.069899113842299854 1 I I -0.70710678118654746 0.70710678118654746 0.125 forward I I I I #
loop $-1 $-1 $235 $61 #
coedge $-1 $148 $148 $236 $237 reversed $93 $-1 #
face $-1 $238 $239 $49 $-1 $240 reversed single #
loop $-1 $-1 $241 $95 #
plane-surface $-1 -45.11612292855618 3.17790912755056 0.058275659965374871 -0.55919291073839883 0 0.82903756765294845 0.82903756765294845 0 0.55919291073839883 forward_v I I I I #
coedge $-1 $242 $243 $244 $245 reversed $96 $-1 #
face $-1 $-1 $246 $50 $-1 $247 forward single #
loop $-1 $248 $249 $98 #
cone-surface $-1 -36.598771937617052 1.8159480728860338 4.4463063528358617 0.55919291073839883 0 -0.82903756765294845 0.10362969595661856 0 0.069899113842299854 1 I I -0.70710678118654746 0.70710678118654746 0.125 forward I I I I #
loop $-1 $-1 $250 $63 #
coedge $-1 $157 $157 $251 $252 reversed $99 $-1 #
face $-1 $-1 $253 $51 $-1 $254 forward single #
loop $-1 $255 $256 $101 #
cone-surface $-1 -36.598771937617052 4.5398701822150898 4.4463063528358617 0.55919291073839883 0 -0.82903756765294845 0.10362969595661856 0 0.069899113842299854 1 I I -0.70710678118654746 0.70710678118654746 0.125 forward I I I I #
loop $-1 $-1 $257 $64 #
coedge $-1 $162 $162 $258 $259 reversed $102 $-1 #
face $-1 $260 $261 $39 $-1 $262 reversed single #
loop $-1 $-1 $263 $104 #
plane-surface $-1 0 -23.611234547808849 0 0 1 0 0 0 1 forward_v I I I I #
coedge $-1 $264 $265 $266 $267 forward $105 $-1 #
coedge $-1 $268 $107 $269 $270 forward $66 $-1 #
coedge $-1 $107 $268 $271 $272 forward $66 $-1 #
coedge $-1 $273 $274 $107 $170 reversed $275 $-1 #
edge $-1 $276 -23.611234547808849 $277 23.611234547808849 $169 $278 forward 7 unknown #
face $-1 $279 $280 $40 $-1 $281 forward single #
loop $-1 $-1 $282 $108 #
plane-surface $-1 -23.716779782705203 -18.443074724144914 0 -1 0 0 0 0 1 forward_v I I I I #
coedge $-1 $283 $284 $285 $286 forward $109 $-1 #
coedge $-1 $287 $111 $288 $289 reversed $69 $-1 #
coedge $-1 $111 $287 $290 $291 reversed $69 $-1 #
coedge $-1 $284 $283 $111 $178 reversed $109 $-1 #
edge $-1 $292 -10.699671572925482 $293 10.699671572925482 $177 $294 forward 7 unknown #
face $-1 $295 $296 $41 $-1 $297 reversed single #
loop $-1 $-1 $298 $112 #
plane-surface $-1 -23.716779782705203 18.443074724144914 0 -1 0 0 0 0 1 forward_v I I I I #
coedge $-1 $299 $300 $301 $302 reversed $113 $-1 #
coedge $-1 $303 $115 $304 $305 reversed $72 $-1 #
coedge $-1 $115 $303 $306 $307 reversed $72 $-1 #
coedge $-1 $300 $299 $115 $186 reversed $113 $-1 #
edge $-1 $308 -10.699671572925482 $309 10.699671572925482 $185 $310 forward 7 unknown #
face $-1 $311 $312 $42 $-1 $313 forward single #
loop $-1 $-1 $314 $116 #
plane-surface $-1 22.957285430652831 -8.4521530333729977 127.95445867092251 0 1 0 0.57357644374324357 0 0.81915203911291934 forward_v I I I I #
coedge $-1 $315 $316 $317 $318 reversed $117 $-1 #
coedge $-1 $192 $119 $319 $320 reversed $75 $-1 #
coedge $-1 $119 $191 $315 $321 reversed $75 $-1 #
coedge $-1 $317 $322 $119 $194 forward $312 $-1 #
edge $-1 $323 -33.63748021322975 $324 -21.620712100182807 $193 $325 forward 7 unknown #
loop $-1 $-1 $200 $120 #
plane-surface $-1 -28.797805259035684 -4.9458789946026975 54.04053048333067 0.57357644374324357 0 0.81915203911291934 0.81915203911291934 0 -0.57357644374324357 forward_v I I I I #
loop $-1 $-1 $326 $77 #
coedge $-1 $198 $198 $199 $327 reversed $121 $-1 #
coedge $-1 $199 $199 $198 $327 forward $123 $-1 #
coedge $-1 $200 $200 $124 $201 forward $195 $-1 #
edge $-1 $328 0 $328 6.2831853071796004 $200 $329 forward 7 unknown #
loop $-1 $-1 $207 $125 #
plane-surface $-1 -28.797805259035684 -4.9458789946026975 54.04053048333067 0.57357644374324357 0 0.81915203911291934 0.81915203911291934 0 -0.57357644374324357 forward_v I I I I #
loop $-1 $-1 $330 $80 #
coedge $-1 $205 $205 $206 $331 reversed $126 $-1 #
coedge $-1 $206 $206 $205 $331 forward $128 $-1 #
coedge $-1 $207 $207 $129 $208 forward $202 $-1 #
edge $-1 $332 0 $332 6.2831853071796004 $207 $333 forward 7 unknown #
loop $-1 $-1 $214 $130 #
plane-surface $-1 -28.797805259035684 -4.9458789946026975 54.04053048333067 0.57357644374324357 0 0.81915203911291934 0.81915203911291934 0 -0.57357644374324357 forward_v I I I I #
loop $-1 $-1 $334 $83 #
coedge $-1 $212 $212 $213 $335 reversed $131 $-1 #
coedge $-1 $213 $213 $212 $335 forward $133 $-1 #
coedge $-1 $214 $214 $134 $215 forward $209 $-1 #
edge $-1 $336 0 $336 6.2831853071796004 $214 $337 forward 7 unknown #
face $-1 $338 $339 $46 $-1 $340 forward single #
loop $-1 $-1 $341 $135 #
plane-surface $-1 -26.550574753600287 -13.274914900480981 0 0 -1 0 0 0 -1 forward_v I I I I #
coedge $-1 $342 $343 $344 $345 reversed $136 $-1 #
coedge $-1 $346 $138 $341 $347 reversed $87 $-1 #
coedge $-1 $138 $346 $342 $348 forward $87 $-1 #
coedge $-1 $344 $349 $138 $223 forward $339 $-1 #
edge $-1 $350 -8.2264120140157715 $351 -1.8705937589146489 $222 $352 forward 7 unknown #
loop $-1 $-1 $229 $139 #
plane-surface $-1 -45.11612292855618 -10.097005772930421 0.058275659965374871 -0.55919291073839883 0 0.82903756765294845 0.82903756765294845 0 0.55919291073839883 forward_v I I I I #
loop $-1 $-1 $353 $89 #
coedge $-1 $227 $227 $228 $354 reversed $140 $-1 #
coedge $-1 $228 $228 $227 $354 forward $142 $-1 #
coedge $-1 $229 $229 $143 $230 forward $224 $-1 #
edge $-1 $355 0 $355 6.2831853071796004 $229 $356 forward 7 unknown #
loop $-1 $-1 $236 $144 #
plane-surface $-1 -45.11612292855618 -10.097005772930421 0.058275659965374871 -0.55919291073839883 0 0.82903756765294845 0.82903756765294845 0 0.55919291073839883 forward_v I I I I #
loop $-1 $-1 $357 $92 #
coedge $-1 $234 $234 $235 $358 reversed $145 $-1 #
coedge $-1 $235 $235 $234 $358 forward $147 $-1 #
coedge $-1 $236 $236 $148 $237 forward $231 $-1 #
edge $-1 $359 0 $359 6.2831853071796004 $236 $360 forward 7 unknown #
face $-1 $361 $362 $49 $-1 $363 reversed single #
loop $-1 $-1 $364 $149 #
plane-surface $-1 -95.573355131857653 6.3558182551011217 74.864197289208619 0 -1 0 0.55919291073839883 0 -0.82903756765294845 forward_v I I I I #
coedge $-1 $365 $366 $367 $368 reversed $150 $-1 #
coedge $-1 $243 $152 $369 $370 reversed $96 $-1 #
coedge $-1 $152 $242 $365 $371 reversed $96 $-1 #
coedge $-1 $367 $372 $152 $245 forward $373 $-1 #
edge $-1 $374 2.6705546373726605 $375 18.447072570089482 $244 $376 forward 7 unknown #
loop $-1 $-1 $251 $153 #
plane-surface $-1 -45.11612292855618 3.17790912755056 0.058275659965374871 -0.55919291073839883 0 0.82903756765294845 0.82903756765294845 0 0.55919291073839883 forward_v I I I I #
loop $-1 $-1 $377 $98 #
coedge $-1 $249 $249 $250 $378 reversed $154 $-1 #
coedge $-1 $250 $250 $249 $378 forward $156 $-1 #
coedge $-1 $251 $251 $157 $252 forward $246 $-1 #
edge $-1 $379 0 $379 6.2831853071796004 $251 $380 forward 7 unknown #
loop $-1 $-1 $258 $158 #
plane-surface $-1 -45.11612292855618 3.17790912755056 0.058275659965374871 -0.55919291073839883 0 0.82903756765294845 0.82903756765294845 0 0.55919291073839883 forward_v I I I I #
loop $-1 $-1 $381 $101 #
coedge $-1 $256 $256 $257 $382 reversed $159 $-1 #
coedge $-1 $257 $257 $256 $382 forward $161 $-1 #
coedge $-1 $258 $258 $162 $259 forward $253 $-1 #
edge $-1 $383 0 $383 6.2831853071796004 $258 $384 forward 7 unknown #
face $-1 $385 $386 $39 $-1 $387 reversed single #
loop $-1 $-1 $388 $163 #
plane-surface $-1 -45.116122928556166 0 0 1 0 0 0 0 -1 forward_v I I I I #
coedge $-1 $389 $271 $390 $391 forward $164 $-1 #
coedge $-1 $392 $166 $389 $393 forward $105 $-1 #
coedge $-1 $166 $392 $394 $395 forward $105 $-1 #
coedge $-1 $274 $273 $166 $267 reversed $275 $-1 #
edge $-1 $396 -23.611234547808849 $397 23.611234547808849 $266 $398 forward 7 unknown #
coedge $-1 $168 $167 $399 $400 forward $66 $-1 #
coedge $-1 $401 $402 $167 $270 reversed $386 $-1 #
edge $-1 $277 -45.116122928556166 $403 45.116122928556166 $269 $404 forward 7 unknown #
coedge $-1 $263 $405 $168 $272 reversed $164 $-1 #
edge $-1 $406 -45.116122928556166 $276 45.116122928556166 $271 $407 forward 7 unknown #
coedge $-1 $266 $169 $405 $408 forward $275 $-1 #
coedge $-1 $169 $266 $401 $409 reversed $275 $-1 #
loop $-1 $-1 $273 $385 #
vertex $-1 $170 $410 #
vertex $-1 $170 $411 #
straight-curve $-1 45.116122928556166 0 10.699671572925482 0 1 0 I I #
face $-1 $412 $413 $40 $-1 $414 reversed single #
loop $-1 $-1 $415 $171 #
plane-surface $-1 0 0 10.699671572925482 0 0 1 1 0 0 forward_v I I I I #
coedge $-1 $416 $417 $418 $419 reversed $172 $-1 #
coedge $-1 $177 $174 $420 $421 reversed $109 $-1 #
coedge $-1 $174 $177 $422 $423 reversed $109 $-1 #
coedge $-1 $417 $416 $174 $286 reversed $172 $-1 #
edge $-1 $424 -10.699671572925482 $425 10.699671572925482 $285 $426 forward 7 unknown #
coedge $-1 $176 $175 $427 $428 reversed $69 $-1 #
coedge $-1 $420 $429 $175 $289 forward $413 $-1 #
edge $-1 $430 -14.389697185736392 $293 -4.0533775384085242 $288 $431 forward 7 unknown #
coedge $-1 $432 $422 $176 $291 forward $280 $-1 #
edge $-1 $292 4.0533775384085242 $433 14.389697185736392 $290 $434 forward 7 unknown #
vertex $-1 $291 $435 #
vertex $-1 $289 $436 #
straight-curve $-1 -29.384369724495372 -13.274914900480981 0 0 0 -1 I I #
face $-1 $437 $438 $41 $-1 $439 forward single #
loop $-1 $-1 $440 $179 #
plane-surface $-1 0 0 -10.699671572925482 0 0 1 1 0 0 forward_v I I I I #
coedge $-1 $441 $442 $303 $443 forward $180 $-1 #
coedge $-1 $185 $182 $444 $445 reversed $113 $-1 #
coedge $-1 $182 $185 $446 $447 reversed $113 $-1 #
coedge $-1 $448 $449 $182 $302 forward $450 $-1 #
edge $-1 $451 -10.699671572925482 $452 10.699671572925482 $301 $453 forward 7 unknown #
coedge $-1 $184 $183 $298 $443 reversed $72 $-1 #
coedge $-1 $444 $440 $183 $305 forward $296 $-1 #
edge $-1 $454 10.441492405905059 $309 16.109082347695228 $304 $455 forward 7 unknown #
coedge $-1 $456 $446 $184 $307 forward $438 $-1 #
edge $-1 $308 -16.109082347695228 $457 -10.441492405905059 $306 $458 forward 7 unknown #
vertex $-1 $307 $459 #
vertex $-1 $305 $460 #
straight-curve $-1 -29.384369724495372 13.274914900480979 0 0 0 -1 I I #
face $-1 $-1 $461 $42 $-1 $462 reversed single #
loop $-1 $-1 $193 $187 #
plane-surface $-1 0 0 10.699671572925482 0 0 1 1 0 0 forward_v I I I I #
coedge $-1 $463 $464 $465 $466 reversed $188 $-1 #
coedge $-1 $467 $190 $192 $321 forward $117 $-1 #
coedge $-1 $190 $467 $463 $468 forward $117 $-1 #
coedge $-1 $465 $193 $190 $318 forward $312 $-1 #
edge $-1 $324 -1.0333345414689514 $469 5.979213536071649 $317 $470 forward 7 unknown #
coedge $-1 $471 $472 $191 $320 forward $461 $-1 #
edge $-1 $473 -61.691789541819105 $323 -53.277557762535771 $319 $474 forward 7 unknown #
edge $-1 $324 75.56248061297012 $473 90.232245857112346 $192 $475 forward 7 unknown #
coedge $-1 $193 $465 $471 $476 forward $312 $-1 #
vertex $-1 $194 $477 #
vertex $-1 $194 $478 #
straight-curve $-1 11.478642715326416 -1.4396049558323973 10.699671572925482 -1 0 0 I I #
coedge $-1 $326 $326 $-1 $479 reversed $197 $-1 #
edge $-1 $480 0 $480 6.2831853071796004 $198 $481 forward 7 unknown #
vertex $-1 $201 $482 #
ellipse-curve $-1 39.107738872032691 -7.0496434178648784 6.4925556832838165 0.57357644374324357 0 0.81915203911291934 0.40957601955645967 0 -0.28678822187162178 1 I I #
coedge $-1 $330 $330 $-1 $483 reversed $204 $-1 #
edge $-1 $484 0 $484 6.2831853071796004 $205 $485 forward 7 unknown #
vertex $-1 $208 $486 #
ellipse-curve $-1 39.107738872032691 -4.9458789946026975 6.4925556832838165 0.57357644374324357 0 0.81915203911291934 0.40957601955645967 0 -0.28678822187162178 1 I I #
coedge $-1 $334 $334 $-1 $487 reversed $211 $-1 #
edge $-1 $488 0 $488 6.2831853071796004 $212 $489 forward 7 unknown #
vertex $-1 $215 $490 #
ellipse-curve $-1 39.107738872032691 -2.8421145713405167 6.4925556832838165 0.57357644374324357 0 0.81915203911291934 0.40957601955645967 0 -0.28678822187162178 1 I I #
face $-1 $-1 $491 $46 $-1 $492 reversed single #
loop $-1 $-1 $349 $216 #
plane-surface $-1 0 0 10.699671572925482 0 0 1 1 0 0 forward_v I I I I #
coedge $-1 $493 $494 $220 $347 forward $217 $-1 #
coedge $-1 $343 $219 $221 $348 reversed $136 $-1 #
coedge $-1 $219 $342 $495 $496 reversed $136 $-1 #
coedge $-1 $497 $222 $219 $345 forward $339 $-1 #
edge $-1 $351 -18.447072570089482 $498 -2.6705546373726605 $344 $499 forward 7 unknown #
coedge $-1 $221 $220 $500 $501 reversed $87 $-1 #
edge $-1 $502 -7.6794747825938963 $350 11.350444425266637 $341 $503 forward 7 unknown #
edge $-1 $504 1.7139861393254456e-014 $351 19.029919207860551 $342 $505 forward 7 unknown #
coedge $-1 $222 $497 $493 $506 forward $339 $-1 #
vertex $-1 $223 $507 #
vertex $-1 $223 $508 #
straight-curve $-1 -29.339604995839341 -5.0485028864652106 10.699671572925482 0 1 0 I I #
coedge $-1 $353 $353 $-1 $509 reversed $226 $-1 #
edge $-1 $510 0 $510 6.2831853071796004 $227 $511 forward 7 unknown #
vertex $-1 $230 $512 #
ellipse-curve $-1 -37.227863962197752 -11.458966827594947 5.3789736164454345 -0.55919291073839883 0 0.82903756765294845 0.20725939191323711 0 0.13979822768459971 1 I I #
coedge $-1 $357 $357 $-1 $513 reversed $233 $-1 #
edge $-1 $514 0 $514 6.2831853071796004 $234 $515 forward 7 unknown #
vertex $-1 $237 $516 #
ellipse-curve $-1 -37.227863962197752 -8.7350447182658932 5.3789736164454345 -0.55919291073839883 0 0.82903756765294845 0.20725939191323711 0 0.13979822768459971 1 I I #
face $-1 $-1 $373 $49 $-1 $517 forward single #
loop $-1 $-1 $518 $238 #
plane-surface $-1 -45.116122928556166 0 0 1 0 0 0 0 -1 forward_v I I I I #
coedge $-1 $519 $520 $521 $522 reversed $239 $-1 #
coedge $-1 $523 $241 $243 $371 forward $150 $-1 #
coedge $-1 $241 $523 $519 $524 forward $150 $-1 #
coedge $-1 $521 $244 $241 $368 forward $373 $-1 #
edge $-1 $375 -1.5889545637752818 $525 4.7668636913258418 $367 $526 forward 7 unknown #
coedge $-1 $527 $528 $242 $370 forward $362 $-1 #
edge $-1 $529 -37.373822984638927 $374 -26.732427071678828 $369 $530 forward 7 unknown #
edge $-1 $375 -19.029919207860551 $529 -1.7139861393254456e-014 $243 $531 forward 7 unknown #
coedge $-1 $244 $521 $527 $532 forward $373 $-1 #
loop $-1 $-1 $521 $361 #
vertex $-1 $370 $533 #
vertex $-1 $245 $534 #
straight-curve $-1 -47.786677565928827 -1.7763568394002505e-015 10.699671572925482 1 0 0 I I #
coedge $-1 $377 $377 $-1 $535 reversed $248 $-1 #
edge $-1 $536 0 $536 6.2831853071796004 $249 $537 forward 7 unknown #
vertex $-1 $252 $538 #
ellipse-curve $-1 -37.227863962197752 1.8159480728860338 5.3789736164454345 -0.55919291073839883 0 0.82903756765294845 0.20725939191323711 0 0.13979822768459971 1 I I #
coedge $-1 $381 $381 $-1 $539 reversed $255 $-1 #
edge $-1 $540 0 $540 6.2831853071796004 $256 $541 forward 7 unknown #
vertex $-1 $259 $542 #
ellipse-curve $-1 -37.227863962197752 4.5398701822150898 5.3789736164454345 -0.55919291073839883 0 0.82903756765294845 0.20725939191323711 0 0.13979822768459971 1 I I #
face $-1 $-1 $275 $39 $-1 $543 reversed single #
loop $-1 $-1 $401 $260 #
plane-surface $-1 0 23.611234547808849 0 0 -1 0 0 0 -1 forward_v I I I I #
coedge $-1 $544 $399 $402 $545 forward $261 $-1 #
coedge $-1 $405 $263 $264 $393 reversed $164 $-1 #
coedge $-1 $399 $544 $263 $391 reversed $261 $-1 #
edge $-1 $406 -10.699671572925482 $546 10.699671572925482 $390 $547 forward 7 unknown #
coedge $-1 $265 $264 $544 $548 forward $105 $-1 #
edge $-1 $397 -45.116122928556166 $546 45.116122928556166 $389 $549 forward 7 unknown #
coedge $-1 $402 $401 $265 $395 reversed $386 $-1 #
edge $-1 $550 -45.116122928556166 $396 45.116122928556166 $394 $551 forward 7 unknown #
vertex $-1 $267 $552 #
vertex $-1 $408 $553 #
straight-curve $-1 45.116122928556166 0 -10.699671572925482 0 -1 0 I I #
coedge $-1 $388 $390 $268 $400 reversed $261 $-1 #
edge $-1 $403 -23.611234547808849 $406 23.611234547808849 $399 $554 forward 7 unknown #
coedge $-1 $394 $269 $274 $409 forward $386 $-1 #
coedge $-1 $269 $394 $388 $545 reversed $386 $-1 #
vertex $-1 $270 $555 #
straight-curve $-1 0 23.611234547808849 10.699671572925482 -1 0 0 I I #
coedge $-1 $271 $389 $273 $408 reversed $164 $-1 #
vertex $-1 $400 $556 #
straight-curve $-1 0 -23.611234547808849 10.699671572925482 1 0 0 I I #
edge $-1 $276 -10.699671572925482 $397 10.699671572925482 $273 $557 forward 7 unknown #
edge $-1 $277 -10.699671572925482 $396 10.699671572925482 $274 $558 forward 7 unknown #
point $-1 45.116122928556166 -23.611234547808849 10.699671572925482 #
point $-1 45.116122928556166 23.611234547808849 10.699671572925482 #
face $-1 $-1 $559 $40 $-1 $560 reversed single #
loop $-1 $-1 $561 $279 #
plane-surface $-1 0 0 -10.699671572925482 0 0 1 1 0 0 forward_v I I I I #
coedge $-1 $422 $432 $417 $562 forward $280 $-1 #
coedge $-1 $285 $282 $561 $563 reversed $172 $-1 #
coedge $-1 $282 $285 $415 $562 reversed $172 $-1 #
coedge $-1 $564 $565 $282 $419 forward $559 $-1 #
edge $-1 $566 -10.699671572925482 $567 10.699671572925482 $418 $568 forward 7 unknown #
coedge $-1 $561 $288 $283 $421 forward $413 $-1 #
edge $-1 $293 -16.109082347695228 $425 -10.441492405905059 $420 $569 forward 7 unknown #
coedge $-1 $290 $415 $284 $423 forward $280 $-1 #
edge $-1 $424 10.441492405905059 $292 16.109082347695228 $422 $570 forward 7 unknown #
vertex $-1 $423 $571 #
vertex $-1 $421 $572 #
straight-curve $-1 -23.716779782705203 -13.274914900480981 0 0 0 -1 I I #
coedge $-1 $565 $564 $287 $428 forward $559 $-1 #
edge $-1 $433 -10.699671572925482 $430 10.699671572925482 $427 $573 forward 7 unknown #
coedge $-1 $288 $561 $565 $574 forward $413 $-1 #
vertex $-1 $289 $575 #
straight-curve $-1 -29.384369724495372 -9.221537362072457 -10.699671572925482 0 1 0 I I #
coedge $-1 $415 $290 $564 $576 forward $280 $-1 #
vertex $-1 $576 $577 #
straight-curve $-1 -29.384369724495372 -9.221537362072457 10.699671572925482 0 -1 0 I I #
point $-1 -29.384369724495372 -13.274914900480981 10.699671572925482 #
point $-1 -29.384369724495372 -13.274914900480981 -10.699671572925482 #
face $-1 $-1 $450 $41 $-1 $578 reversed single #
loop $-1 $-1 $456 $295 #
plane-surface $-1 0 0 10.699671572925482 0 0 1 1 0 0 forward_v I I I I #
coedge $-1 $304 $579 $441 $580 forward $296 $-1 #
coedge $-1 $581 $298 $440 $580 reversed $180 $-1 #
coedge $-1 $298 $581 $456 $582 reversed $180 $-1 #
edge $-1 $457 -10.699671572925482 $454 10.699671572925482 $298 $583 forward 7 unknown #
coedge $-1 $579 $304 $299 $445 forward $296 $-1 #
edge $-1 $309 4.0533775384085224 $451 14.389697185736392 $444 $584 forward 7 unknown #
coedge $-1 $306 $585 $300 $447 forward $438 $-1 #
edge $-1 $452 -14.389697185736392 $308 -4.0533775384085224 $446 $586 forward 7 unknown #
coedge $-1 $587 $301 $585 $588 reversed $450 $-1 #
coedge $-1 $301 $587 $579 $589 reversed $450 $-1 #
loop $-1 $-1 $587 $437 #
vertex $-1 $589 $590 #
vertex $-1 $302 $591 #
straight-curve $-1 -29.384369724495372 23.611234547808849 0 0 0 1 I I #
vertex $-1 $305 $592 #
straight-curve $-1 -13.275287376800144 13.274914900480979 -10.699671572925482 -1 0 0 I I #
coedge $-1 $585 $306 $442 $582 forward $438 $-1 #
vertex $-1 $307 $593 #
straight-curve $-1 -13.275287376800144 13.274914900480979 10.699671572925482 1 0 0 I I #
point $-1 -29.384369724495372 13.274914900480979 10.699671572925482 #
point $-1 -29.384369724495372 13.274914900480979 -10.699671572925482 #
loop $-1 $-1 $319 $311 #
plane-surface $-1 45.116122928556166 0 0 -1 0 0 0 0 1 forward_v I I I I #
coedge $-1 $464 $314 $316 $468 reversed $188 $-1 #
coedge $-1 $314 $463 $594 $595 reversed $188 $-1 #
coedge $-1 $322 $317 $314 $466 forward $312 $-1 #
edge $-1 $469 21.620712100182807 $596 33.63748021322975 $465 $597 forward 7 unknown #
coedge $-1 $316 $315 $472 $598 reversed $117 $-1 #
edge $-1 $599 -90.232245857112346 $469 -75.56248061297012 $463 $600 forward 7 unknown #
vertex $-1 $318 $601 #
straight-curve $-1 33.099354815509209 -2.4729394973013488 10.699671572925485 0 -1 0 I I #
coedge $-1 $594 $319 $322 $476 reversed $461 $-1 #
coedge $-1 $319 $594 $467 $598 forward $461 $-1 #
vertex $-1 $320 $602 #
straight-curve $-1 45.116122928556166 -1.4396049558323973 63.977229335461253 0 0 1 I I #
straight-curve $-1 -28.797805259035684 -1.4396049558323973 54.04053048333067 0.81915203911291934 0 -0.57357644374324357 I I #
edge $-1 $596 -8.4521530333729977 $323 -1.4396049558323973 $471 $603 forward 7 unknown #
point $-1 45.116122928556166 -1.4396049558323973 10.699671572925482 #
point $-1 33.099354815509223 -1.4396049558323973 10.699671572925482 #
edge $-1 $604 1 $604 0 $326 $-1 forward 7 unknown #
vertex $-1 $327 $605 #
ellipse-curve $-1 38.444503364449226 -7.0496434178648784 5.5453572333204688 0.57357644374324357 0 0.81915203911291934 0.40957601955645967 0 -0.28678822187162178 1 I I #
point $-1 39.517314891589166 -7.0496434178648784 6.2057674614122078 #
edge $-1 $606 1 $606 0 $330 $-1 forward 7 unknown #
vertex $-1 $331 $607 #
ellipse-curve $-1 38.444503364449226 -4.9458789946026975 5.5453572333204688 0.57357644374324357 0 0.81915203911291934 0.40957601955645967 0 -0.28678822187162178 1 I I #
point $-1 39.517314891589166 -4.9458789946026975 6.2057674614122078 #
edge $-1 $608 1 $608 0 $334 $-1 forward 7 unknown #
vertex $-1 $335 $609 #
ellipse-curve $-1 38.444503364449226 -2.8421145713405167 5.5453572333204688 0.57357644374324357 0 0.81915203911291934 0.40957601955645967 0 -0.28678822187162178 1 I I #
point $-1 39.517314891589166 -2.8421145713405167 6.2057674614122078 #
loop $-1 $-1 $610 $338 #
plane-surface $-1 -45.116122928556166 0 0 1 0 0 0 0 -1 forward_v I I I I #
coedge $-1 $494 $341 $349 $506 reversed $217 $-1 #
coedge $-1 $341 $493 $610 $611 reversed $217 $-1 #
coedge $-1 $500 $612 $343 $496 forward $491 $-1 #
edge $-1 $498 26.732427071678828 $504 37.373822984638927 $495 $613 forward 7 unknown #
coedge $-1 $349 $344 $612 $614 forward $339 $-1 #
vertex $-1 $614 $615 #
straight-curve $-1 -47.786677565928827 -6.9190966453798595 10.699671572925482 -1 0 0 I I #
coedge $-1 $610 $495 $346 $501 forward $491 $-1 #
edge $-1 $504 1.8705937589146489 $502 8.2264120140157715 $500 $616 forward 7 unknown #
vertex $-1 $611 $617 #
straight-curve $-1 -38.749549833942368 -13.274914900480981 4.3525835165861988 0.82903756765294845 0 0.55919291073839883 I I #
vertex $-1 $501 $618 #
straight-curve $-1 -45.11612292855618 -6.9190966453798595 0.058275659965374871 0.82903756765294845 0 0.55919291073839883 I I #
edge $-1 $619 2.6705546373726605 $350 18.447072570089482 $349 $620 forward 7 unknown #
point $-1 -29.339604995839345 -13.274914900480983 10.699671572925482 #
point $-1 -29.339604995839345 -6.9190966453798595 10.699671572925482 #
edge $-1 $621 1 $621 0 $353 $-1 forward 7 unknown #
vertex $-1 $354 $622 #
ellipse-curve $-1 -36.668671051459349 -11.458966827594947 4.54993604879248 -0.55919291073839883 0 0.82903756765294845 0.20725939191323711 0 0.13979822768459971 1 I I #
point $-1 -37.020604570284512 -11.458966827594947 5.5187718441300282 #
edge $-1 $623 1 $623 0 $357 $-1 forward 7 unknown #
vertex $-1 $358 $624 #
ellipse-curve $-1 -36.668671051459349 -8.7350447182658932 4.54993604879248 -0.55919291073839883 0 0.82903756765294845 0.20725939191323711 0 0.13979822768459971 1 I I #
point $-1 -37.020604570284512 -8.7350447182658932 5.5187718441300282 #
plane-surface $-1 0 0 10.699671572925482 0 0 1 1 0 0 forward_v I I I I #
coedge $-1 $528 $527 $520 $625 forward $362 $-1 #
coedge $-1 $520 $364 $366 $524 reversed $239 $-1 #
coedge $-1 $364 $519 $518 $625 reversed $239 $-1 #
coedge $-1 $372 $367 $364 $522 forward $373 $-1 #
edge $-1 $525 -18.447072570089482 $626 -2.6705546373726605 $521 $627 forward 7 unknown #
coedge $-1 $366 $365 $528 $628 reversed $150 $-1 #
edge $-1 $629 1.7139861393254456e-014 $525 19.029919207860551 $519 $630 forward 7 unknown #
vertex $-1 $368 $631 #
straight-curve $-1 -29.339604995839341 1.58895456377528 10.699671572925482 0 1 0 I I #
coedge $-1 $518 $369 $372 $532 reversed $362 $-1 #
coedge $-1 $369 $518 $523 $628 forward $362 $-1 #
vertex $-1 $370 $632 #
straight-curve $-1 -45.116122928556166 -1.7763568394002505e-015 37.432098644604309 0 0 1 I I #
straight-curve $-1 -45.11612292855618 -1.7763568394002505e-015 0.058275659965374871 -0.82903756765294845 0 -0.55919291073839883 I I #
edge $-1 $626 -6.3558182551011217 $374 1.7763568394002505e-015 $527 $633 forward 7 unknown #
point $-1 -45.116122928556166 -1.7763568394002505e-015 10.699671572925482 #
point $-1 -29.339604995839345 -1.7763568394002505e-015 10.699671572925482 #
edge $-1 $634 1 $634 0 $377 $-1 forward 7 unknown #
vertex $-1 $378 $635 #
ellipse-curve $-1 -36.668671051459349 1.8159480728860338 4.54993604879248 -0.55919291073839883 0 0.82903756765294845 0.20725939191323711 0 0.13979822768459971 1 I I #
point $-1 -37.020604570284512 1.8159480728860338 5.5187718441300282 #
edge $-1 $636 1 $636 0 $381 $-1 forward 7 unknown #
vertex $-1 $382 $637 #
ellipse-curve $-1 -36.668671051459349 4.5398701822150898 4.54993604879248 -0.55919291073839883 0 0.82903756765294845 0.20725939191323711 0 0.13979822768459971 1 I I #
point $-1 -37.020604570284512 4.5398701822150898 5.5187718441300282 #
plane-surface $-1 45.116122928556166 0 0 -1 0 0 0 0 1 forward_v I I I I #
coedge $-1 $390 $388 $392 $548 reversed $261 $-1 #
edge $-1 $403 -10.699671572925482 $550 10.699671572925482 $402 $638 forward 7 unknown #
vertex $-1 $548 $639 #
straight-curve $-1 -45.116122928556166 -23.611234547808849 0 0 0 -1 I I #
edge $-1 $546 -23.611234547808849 $550 23.611234547808849 $544 $640 forward 7 unknown #
straight-curve $-1 0 -23.611234547808849 -10.699671572925482 -1 0 0 I I #
vertex $-1 $395 $641 #
straight-curve $-1 0 23.611234547808849 -10.699671572925482 1 0 0 I I #
point $-1 45.116122928556166 23.611234547808849 -10.699671572925482 #
point $-1 45.116122928556166 -23.611234547808849 -10.699671572925482 #
straight-curve $-1 -45.116122928556166 0 10.699671572925482 0 -1 0 I I #
point $-1 -45.116122928556166 23.611234547808849 10.699671572925482 #
point $-1 -45.116122928556166 -23.611234547808849 10.699671572925482 #
straight-curve $-1 45.116122928556166 -23.611234547808849 0 0 0 -1 I I #
straight-curve $-1 45.116122928556166 23.611234547808849 0 0 0 -1 I I #
loop $-1 $-1 $418 $412 #
plane-surface $-1 0 -23.611234547808849 0 0 1 0 0 0 1 forward_v I I I I #
coedge $-1 $429 $420 $416 $563 forward $413 $-1 #
edge $-1 $567 -14.389697185736392 $424 -4.0533775384085242 $415 $642 forward 7 unknown #
edge $-1 $425 4.0533775384085242 $566 14.389697185736392 $561 $643 forward 7 unknown #
coedge $-1 $427 $418 $432 $576 reversed $559 $-1 #
coedge $-1 $418 $427 $429 $574 reversed $559 $-1 #
vertex $-1 $574 $644 #
vertex $-1 $419 $645 #
straight-curve $-1 -23.716779782705203 -23.611234547808849 0 0 0 1 I I #
straight-curve $-1 -13.275287376800144 -13.274914900480981 -10.699671572925482 1 0 0 I I #
straight-curve $-1 -13.275287376800144 -13.274914900480981 10.699671572925482 -1 0 0 I I #
point $-1 -23.716779782705203 -13.274914900480981 10.699671572925482 #
point $-1 -23.716779782705203 -13.274914900480981 -10.699671572925482 #
straight-curve $-1 -29.384369724495372 -23.611234547808849 0 0 0 -1 I I #
edge $-1 $566 23.716779782705203 $430 29.384369724495372 $565 $646 forward 7 unknown #
point $-1 -29.384369724495372 -23.611234547808849 -10.699671572925482 #
edge $-1 $433 -29.384369724495372 $567 -23.716779782705203 $564 $647 forward 7 unknown #
point $-1 -29.384369724495372 -23.611234547808849 10.699671572925482 #
plane-surface $-1 0 23.611234547808849 0 0 -1 0 0 0 -1 forward_v I I I I #
coedge $-1 $440 $444 $449 $589 forward $296 $-1 #
edge $-1 $648 -14.389697185736392 $454 -4.0533775384085224 $440 $649 forward 7 unknown #
coedge $-1 $442 $441 $587 $650 reversed $180 $-1 #
edge $-1 $457 4.0533775384085224 $651 14.389697185736392 $456 $652 forward 7 unknown #
straight-curve $-1 -23.716779782705203 13.274914900480979 0 0 0 -1 I I #
straight-curve $-1 -29.384369724495372 9.221537362072457 -10.699671572925482 0 1 0 I I #
coedge $-1 $446 $456 $448 $588 forward $438 $-1 #
straight-curve $-1 -29.384369724495372 9.221537362072457 10.699671572925482 0 -1 0 I I #
coedge $-1 $449 $448 $581 $650 forward $450 $-1 #
edge $-1 $651 23.716779782705203 $452 29.384369724495372 $448 $653 forward 7 unknown #
edge $-1 $451 -29.384369724495372 $648 -23.716779782705203 $449 $654 forward 7 unknown #
point $-1 -29.384369724495372 23.611234547808849 -10.699671572925482 #
point $-1 -29.384369724495372 23.611234547808849 10.699671572925482 #
point $-1 -23.716779782705203 13.274914900480979 -10.699671572925482 #
point $-1 -23.716779782705203 13.274914900480979 10.699671572925482 #
coedge $-1 $472 $471 $464 $595 forward $461 $-1 #
edge $-1 $596 53.277557762535771 $599 61.691789541819105 $594 $655 forward 7 unknown #
vertex $-1 $476 $656 #
straight-curve $-1 11.478642715326416 -8.4521530333729977 10.699671572925482 1 0 0 I I #
edge $-1 $599 -5.979213536071649 $473 1.0333345414689514 $472 $657 forward 7 unknown #
vertex $-1 $598 $658 #
straight-curve $-1 -28.797805259035684 -8.4521530333729977 54.04053048333067 -0.81915203911291934 0 0.57357644374324357 I I #
point $-1 33.099354815509223 -8.4521530333729977 10.699671572925482 #
point $-1 45.116122928556166 -1.4396049558323973 2.2854397936421478 #
straight-curve $-1 45.116122928556166 0 10.699671572925482 0 1 0 I I #
vertex $-1 $479 $659 #
point $-1 38.854079384005686 -7.0496434178648784 5.2585690114488477 #
vertex $-1 $483 $660 #
point $-1 38.854079384005686 -4.9458789946026975 5.2585690114488477 #
vertex $-1 $487 $661 #
point $-1 38.854079384005686 -2.8421145713405167 5.2585690114488477 #
coedge $-1 $612 $500 $494 $611 forward $491 $-1 #
edge $-1 $502 -37.373822984638927 $619 -26.732427071678828 $610 $662 forward 7 unknown #
coedge $-1 $495 $610 $497 $614 reversed $491 $-1 #
straight-curve $-1 -45.116122928556166 -6.9190966453798595 37.432098644604309 0 0 -1 I I #
edge $-1 $498 6.9190966453798595 $619 13.274914900480983 $612 $663 forward 7 unknown #
point $-1 -45.116122928556166 -6.9190966453798595 10.699671572925482 #
straight-curve $-1 -45.116122928556166 -5.0485028864652106 0.058275659965385931 0 -1 0 I I #
point $-1 -45.116122928556166 -13.274914900480983 0.058275659965384453 #
point $-1 -45.116122928556166 -6.9190966453798595 0.058275659965384453 #
vertex $-1 $611 $664 #
straight-curve $-1 -47.786677565928827 -13.274914900480983 10.699671572925482 1 0 0 I I #
vertex $-1 $509 $665 #
point $-1 -36.461411659546116 -11.458966827594947 4.68973427647708 #
vertex $-1 $513 $666 #
point $-1 -36.461411659546116 -8.7350447182658932 4.68973427647708 #
edge $-1 $626 26.732427071678828 $629 37.373822984638927 $518 $667 forward 7 unknown #
vertex $-1 $532 $668 #
straight-curve $-1 -47.786677565928827 6.3558182551011217 10.699671572925482 -1 0 0 I I #
edge $-1 $629 -4.7668636913258418 $529 1.5889545637752818 $528 $669 forward 7 unknown #
vertex $-1 $628 $670 #
straight-curve $-1 -45.11612292855618 6.3558182551011217 0.058275659965374871 0.82903756765294845 0 0.55919291073839883 I I #
point $-1 -29.339604995839345 6.3558182551011217 10.699671572925482 #
point $-1 -45.116122928556166 -1.7763568394002505e-015 0.058275659965384453 #
straight-curve $-1 -45.116122928556166 0 10.699671572925482 0 -1 0 I I #
vertex $-1 $535 $671 #
point $-1 -36.461411659546116 1.8159480728860338 4.68973427647708 #
vertex $-1 $539 $672 #
point $-1 -36.461411659546116 4.5398701822150898 4.68973427647708 #
straight-curve $-1 -45.116122928556166 23.611234547808849 0 0 0 -1 I I #
point $-1 -45.116122928556166 -23.611234547808849 -10.699671572925482 #
straight-curve $-1 -45.116122928556166 0 -10.699671572925482 0 1 0 I I #
point $-1 -45.116122928556166 23.611234547808849 -10.699671572925482 #
straight-curve $-1 -23.716779782705203 -9.221537362072457 10.699671572925482 0 1 0 I I #
straight-curve $-1 -23.716779782705203 -9.221537362072457 -10.699671572925482 0 -1 0 I I #
point $-1 -23.716779782705203 -23.611234547808849 -10.699671572925482 #
point $-1 -23.716779782705203 -23.611234547808849 10.699671572925482 #
straight-curve $-1 0 -23.611234547808849 -10.699671572925482 -1 0 0 I I #
straight-curve $-1 0 -23.611234547808849 10.699671572925482 1 0 0 I I #
vertex $-1 $650 $673 #
straight-curve $-1 -23.716779782705203 9.221537362072457 -10.699671572925482 0 -1 0 I I #
edge $-1 $651 -10.699671572925482 $648 10.699671572925482 $587 $674 forward 7 unknown #
vertex $-1 $588 $675 #
straight-curve $-1 -23.716779782705203 9.221537362072457 10.699671572925482 0 1 0 I I #
straight-curve $-1 0 23.611234547808849 10.699671572925482 -1 0 0 I I #
straight-curve $-1 0 23.611234547808849 -10.699671572925482 1 0 0 I I #
straight-curve $-1 45.116122928556166 -8.4521530333729977 63.977229335461253 0 0 -1 I I #
point $-1 45.116122928556166 -8.4521530333729977 10.699671572925482 #
straight-curve $-1 45.116122928556166 -2.4729394973013488 2.2854397936421478 0 1 0 I I #
point $-1 45.116122928556166 -8.4521530333729977 2.2854397936421478 #
point $-1 38.157715142577608 -7.0496434178648784 5.1357812137640098 #
point $-1 38.157715142577608 -4.9458789946026975 5.1357812137640098 #
point $-1 38.157715142577608 -2.8421145713405167 5.1357812137640098 #
straight-curve $-1 -45.116122928556166 -13.274914900480983 37.432098644604309 0 0 1 I I #
straight-curve $-1 -45.116122928556166 0 10.699671572925482 0 -1 0 I I #
point $-1 -45.116122928556166 -13.274914900480983 10.699671572925482 #
point $-1 -36.528872823774755 -11.458966827594947 4.3426766568792434 #
point $-1 -36.528872823774755 -8.7350447182658932 4.3426766568792434 #
straight-curve $-1 -45.116122928556166 6.3558182551011217 37.432098644604309 0 0 -1 I I #
point $-1 -45.116122928556166 6.3558182551011217 10.699671572925482 #
straight-curve $-1 -45.116122928556166 1.58895456377528 0.058275659965385931 0 -1 0 I I #
point $-1 -45.116122928556166 6.3558182551011217 0.058275659965384453 #
point $-1 -36.528872823774755 1.8159480728860338 4.3426766568792434 #
point $-1 -36.528872823774755 4.5398701822150898 4.3426766568792434 #
point $-1 -23.716779782705203 23.611234547808849 -10.699671572925482 #
straight-curve $-1 -23.716779782705203 23.611234547808849 0 0 0 -1 I I #
point $-1 -23.716779782705203 23.611234547808849 10.699671572925482 #
End-of-ACIS-data 