500 0 16 0           
7 Unknown 11 ACIS 5.0 NT 24 Fri Mar 26 17:28:02 1999 
-1 9.9999999999999995e-007 1e-010 
body $-1 $16 $-1 $17 #
body $-1 $18 $-1 $19 #
body $-1 $20 $-1 $21 #
body $-1 $22 $-1 $23 #
body $-1 $24 $-1 $25 #
body $-1 $26 $-1 $27 #
body $-1 $28 $-1 $29 #
body $-1 $30 $-1 $31 #
body $-1 $32 $-1 $33 #
body $-1 $34 $-1 $35 #
body $-1 $36 $-1 $37 #
body $-1 $38 $-1 $39 #
body $-1 $40 $-1 $41 #
body $-1 $42 $-1 $43 #
body $-1 $44 $-1 $45 #
body $-1 $46 $-1 $47 #
lump $-1 $-1 $48 $0 #
transform $-1 1 0 0 0 1 0 0 0 1 76.290169988097773 48.622032408503706 20.47728461666037 1 rotate no_reflect no_shear #
lump $-1 $-1 $49 $1 #
transform $-1 1 0 0 0 1 0 0 0 1 76.290169988097773 12.671737680572829 37.716462289101685 1 rotate no_reflect no_shear #
lump $-1 $-1 $50 $2 #
transform $-1 0.60181501223851219 0 0.79863551827123203 0 1 0 -0.79863551827123203 0 0.60181501223851219 -121.85607889488971 81.269345024189917 118.03093224905265 1 rotate no_reflect no_shear #
lump $-1 $-1 $51 $3 #
transform $-1 0.60181501223851219 0 0.79863551827123203 0 -1 0 0.79863551827123203 0 -0.60181501223851219 7.6957999684581715 81.269345024189917 31.96847970625705 1 rotate no_reflect no_shear #
lump $-1 $-1 $52 $4 #
transform $-1 0.80901698891910034 0 -0.5877852598018023 0 1 0 0.5877852598018023 0 0.80901698891910034 118.82472753395662 36.21472979143801 250.95538690579485 1 rotate no_reflect no_shear #
lump $-1 $-1 $53 $5 #
transform $-1 0.80901698891910034 0 -0.5877852598018023 0 -1 0 -0.5877852598018023 0 -0.80901698891910034 148.68622142178791 34.288973962538151 36.991755775345133 1 rotate no_reflect no_shear #
lump $-1 $-1 $54 $6 #
transform $-1 0.80901698891910034 0 -0.5877852598018023 0 -1 0 -0.5877852598018023 0 -0.80901698891910034 148.68622142178791 38.14048562033787 36.991755775345133 1 rotate no_reflect no_shear #
lump $-1 $-1 $55 $7 #
transform $-1 0.80901698891910034 0 -0.5877852598018023 0 1 0 0.5877852598018023 0 0.80901698891910034 118.82472753395662 54.189877155403451 250.95538690579485 1 rotate no_reflect no_shear #
lump $-1 $-1 $56 $8 #
transform $-1 0.80901698891910034 0 -0.5877852598018023 0 -1 0 -0.5877852598018023 0 -0.80901698891910034 148.68622142178791 52.264121326503592 36.991755775345133 1 rotate no_reflect no_shear #
lump $-1 $-1 $57 $9 #
transform $-1 0.80901698891910034 0 -0.5877852598018023 0 -1 0 -0.5877852598018023 0 -0.80901698891910034 148.68622142178791 56.115632984303311 36.991755775345133 1 rotate no_reflect no_shear #
lump $-1 $-1 $58 $10 #
transform $-1 0.80901698891910034 0 -0.5877852598018023 0 1 0 0.5877852598018023 0 0.80901698891910034 118.82472753395662 72.165024519368899 250.95538690579485 1 rotate no_reflect no_shear #
lump $-1 $-1 $59 $11 #
transform $-1 0.80901698891910034 0 -0.5877852598018023 0 -1 0 -0.5877852598018023 0 -0.80901698891910034 148.68622142178791 70.239268690469032 36.991755775345133 1 rotate no_reflect no_shear #
lump $-1 $-1 $60 $12 #
transform $-1 0.80901698891910034 0 -0.5877852598018023 0 -1 0 -0.5877852598018023 0 -0.80901698891910034 148.68622142178791 74.090780348268751 36.991755775345133 1 rotate no_reflect no_shear #
lump $-1 $-1 $61 $13 #
transform $-1 0.80901698891910034 0 -0.5877852598018023 0 1 0 0.5877852598018023 0 0.80901698891910034 118.82472753395662 90.140171883334347 250.95538690579485 1 rotate no_reflect no_shear #
lump $-1 $-1 $62 $14 #
transform $-1 0.80901698891910034 0 -0.5877852598018023 0 -1 0 -0.5877852598018023 0 -0.80901698891910034 148.68622142178791 88.21441605443448 36.991755775345133 1 rotate no_reflect no_shear #
lump $-1 $-1 $63 $15 #
transform $-1 0.80901698891910034 0 -0.5877852598018023 0 -1 0 -0.5877852598018023 0 -0.80901698891910034 148.68622142178791 92.065927712234185 36.991755775345133 1 rotate no_reflect no_shear #
shell $-1 $-1 $-1 $64 $-1 $16 #
shell $-1 $-1 $-1 $65 $-1 $18 #
shell $-1 $-1 $-1 $66 $-1 $20 #
shell $-1 $-1 $-1 $67 $-1 $22 #
shell $-1 $-1 $-1 $68 $-1 $24 #
shell $-1 $-1 $-1 $69 $-1 $26 #
shell $-1 $-1 $-1 $70 $-1 $28 #
shell $-1 $-1 $-1 $71 $-1 $30 #
shell $-1 $-1 $-1 $72 $-1 $32 #
shell $-1 $-1 $-1 $73 $-1 $34 #
shell $-1 $-1 $-1 $74 $-1 $36 #
shell $-1 $-1 $-1 $75 $-1 $38 #
shell $-1 $-1 $-1 $76 $-1 $40 #
shell $-1 $-1 $-1 $77 $-1 $42 #
shell $-1 $-1 $-1 $78 $-1 $44 #
shell $-1 $-1 $-1 $79 $-1 $46 #
face $-1 $80 $81 $48 $-1 $82 forward single #
face $-1 $83 $84 $49 $-1 $85 forward single #
face $-1 $86 $87 $50 $-1 $88 forward single #
face $-1 $89 $90 $51 $-1 $91 forward single #
face $-1 $92 $93 $52 $-1 $94 forward single #
face $-1 $95 $96 $53 $-1 $97 forward single #
face $-1 $98 $99 $54 $-1 $100 forward single #
face $-1 $101 $102 $55 $-1 $103 forward single #
face $-1 $104 $105 $56 $-1 $106 forward single #
face $-1 $107 $108 $57 $-1 $109 forward single #
face $-1 $110 $111 $58 $-1 $112 forward single #
face $-1 $113 $114 $59 $-1 $115 forward single #
face $-1 $116 $117 $60 $-1 $118 forward single #
face $-1 $119 $120 $61 $-1 $121 forward single #
face $-1 $122 $123 $62 $-1 $124 forward single #
face $-1 $125 $126 $63 $-1 $127 forward single #
face $-1 $128 $129 $48 $-1 $130 reversed single #
loop $-1 $-1 $131 $64 #
plane-surface $-1 0 0 20.47728461666037 0 0 1 1 0 0 forward_v I I I I #
face $-1 $132 $133 $49 $-1 $134 reversed single #
loop $-1 $-1 $135 $65 #
plane-surface $-1 0 0 3.2381069442190515 0 0 1 1 0 0 forward_v I I I I #
face $-1 $136 $137 $50 $-1 $138 reversed single #
loop $-1 $-1 $139 $66 #
plane-surface $-1 0 0 152.58033997619555 0 0 1 1 0 0 forward_v I I I I #
face $-1 $140 $141 $51 $-1 $142 forward single #
loop $-1 $143 $144 $67 #
cone-surface $-1 0 0 -1.7140339365825348 0 0 1 1.5 0 0 1 I I 0 1 1.5 forward I I I I #
face $-1 $145 $146 $52 $-1 $147 reversed single #
loop $-1 $-1 $148 $68 #
plane-surface $-1 0 0 152.58033997619555 0 0 1 1 0 0 forward_v I I I I #
face $-1 $149 $150 $53 $-1 $151 forward single #
loop $-1 $152 $153 $69 #
cone-surface $-1 0 0 -1.7338633381145669 0 0 1 1 0 0 1 I I 0 1 1 forward I I I I #
face $-1 $154 $155 $54 $-1 $156 forward single #
loop $-1 $157 $158 $70 #
cone-surface $-1 0 0 -1.7338633381145669 0 0 1 1 0 0 1 I I 0 1 1 forward I I I I #
face $-1 $159 $160 $55 $-1 $161 reversed single #
loop $-1 $-1 $162 $71 #
plane-surface $-1 0 0 152.58033997619555 0 0 1 1 0 0 forward_v I I I I #
face $-1 $163 $164 $56 $-1 $165 forward single #
loop $-1 $166 $167 $72 #
cone-surface $-1 0 0 -1.7338633381145669 0 0 1 1 0 0 1 I I 0 1 1 forward I I I I #
face $-1 $168 $169 $57 $-1 $170 forward single #
loop $-1 $171 $172 $73 #
cone-surface $-1 0 0 -1.7338633381145669 0 0 1 1 0 0 1 I I 0 1 1 forward I I I I #
face $-1 $173 $174 $58 $-1 $175 reversed single #
loop $-1 $-1 $176 $74 #
plane-surface $-1 0 0 152.58033997619555 0 0 1 1 0 0 forward_v I I I I #
face $-1 $177 $178 $59 $-1 $179 forward single #
loop $-1 $180 $181 $75 #
cone-surface $-1 0 0 -1.7338633381145669 0 0 1 1 0 0 1 I I 0 1 1 forward I I I I #
face $-1 $182 $183 $60 $-1 $184 forward single #
loop $-1 $185 $186 $76 #
cone-surface $-1 0 0 -1.7338633381145669 0 0 1 1 0 0 1 I I 0 1 1 forward I I I I #
face $-1 $187 $188 $61 $-1 $189 reversed single #
loop $-1 $-1 $190 $77 #
plane-surface $-1 0 0 152.58033997619555 0 0 1 1 0 0 forward_v I I I I #
face $-1 $191 $192 $62 $-1 $193 forward single #
loop $-1 $194 $195 $78 #
cone-surface $-1 0 0 -1.7338633381145669 0 0 1 1 0 0 1 I I 0 1 1 forward I I I I #
face $-1 $196 $197 $63 $-1 $198 forward single #
loop $-1 $199 $200 $79 #
cone-surface $-1 0 0 -1.7338633381145669 0 0 1 1 0 0 1 I I 0 1 1 forward I I I I #
face $-1 $201 $202 $48 $-1 $203 reversed single #
loop $-1 $-1 $204 $80 #
plane-surface $-1 0 0 -20.47728461666037 0 0 1 1 0 0 forward_v I I I I #
coedge $-1 $205 $206 $207 $208 forward $81 $-1 #
face $-1 $209 $210 $49 $-1 $211 reversed single #
loop $-1 $-1 $212 $83 #
plane-surface $-1 0 0 -3.2381069442190515 0 0 1 1 0 0 forward_v I I I I #
coedge $-1 $213 $214 $215 $216 forward $84 $-1 #
face $-1 $217 $218 $50 $-1 $219 reversed single #
loop $-1 $-1 $220 $86 #
plane-surface $-1 0 0 -152.58033997619555 0 0 1 1 0 0 forward_v I I I I #
coedge $-1 $221 $222 $223 $224 forward $87 $-1 #
face $-1 $-1 $225 $51 $-1 $226 forward single #
loop $-1 $-1 $227 $89 #
plane-surface $-1 0 0 -2.6780678731650713 0 0 -1 -1 0 0 forward_v I I I I #
loop $-1 $-1 $228 $67 #
coedge $-1 $144 $144 $227 $229 reversed $90 $-1 #
face $-1 $230 $231 $52 $-1 $232 reversed single #
loop $-1 $-1 $233 $92 #
plane-surface $-1 0 0 -152.58033997619555 0 0 1 1 0 0 forward_v I I I I #
coedge $-1 $234 $235 $236 $237 forward $93 $-1 #
face $-1 $-1 $238 $53 $-1 $239 forward single #
loop $-1 $-1 $240 $95 #
plane-surface $-1 0 0 -2.9677266762291339 0 0 -1 -1 0 0 forward_v I I I I #
loop $-1 $-1 $241 $69 #
coedge $-1 $153 $153 $240 $242 reversed $96 $-1 #
face $-1 $-1 $243 $54 $-1 $244 forward single #
loop $-1 $-1 $245 $98 #
plane-surface $-1 0 0 -2.9677266762291339 0 0 -1 -1 0 0 forward_v I I I I #
loop $-1 $-1 $246 $70 #
coedge $-1 $158 $158 $245 $247 reversed $99 $-1 #
face $-1 $248 $249 $55 $-1 $250 reversed single #
loop $-1 $-1 $251 $101 #
plane-surface $-1 0 0 -152.58033997619555 0 0 1 1 0 0 forward_v I I I I #
coedge $-1 $252 $253 $254 $255 forward $102 $-1 #
face $-1 $-1 $256 $56 $-1 $257 forward single #
loop $-1 $-1 $258 $104 #
plane-surface $-1 0 0 -2.9677266762291339 0 0 -1 -1 0 0 forward_v I I I I #
loop $-1 $-1 $259 $72 #
coedge $-1 $167 $167 $258 $260 reversed $105 $-1 #
face $-1 $-1 $261 $57 $-1 $262 forward single #
loop $-1 $-1 $263 $107 #
plane-surface $-1 0 0 -2.9677266762291339 0 0 -1 -1 0 0 forward_v I I I I #
loop $-1 $-1 $264 $73 #
coedge $-1 $172 $172 $263 $265 reversed $108 $-1 #
face $-1 $266 $267 $58 $-1 $268 reversed single #
loop $-1 $-1 $269 $110 #
plane-surface $-1 0 0 -152.58033997619555 0 0 1 1 0 0 forward_v I I I I #
coedge $-1 $270 $271 $272 $273 forward $111 $-1 #
face $-1 $-1 $274 $59 $-1 $275 forward single #
loop $-1 $-1 $276 $113 #
plane-surface $-1 0 0 -2.9677266762291339 0 0 -1 -1 0 0 forward_v I I I I #
loop $-1 $-1 $277 $75 #
coedge $-1 $181 $181 $276 $278 reversed $114 $-1 #
face $-1 $-1 $279 $60 $-1 $280 forward single #
loop $-1 $-1 $281 $116 #
plane-surface $-1 0 0 -2.9677266762291339 0 0 -1 -1 0 0 forward_v I I I I #
loop $-1 $-1 $282 $76 #
coedge $-1 $186 $186 $281 $283 reversed $117 $-1 #
face $-1 $284 $285 $61 $-1 $286 reversed single #
loop $-1 $-1 $287 $119 #
plane-surface $-1 0 0 -152.58033997619555 0 0 1 1 0 0 forward_v I I I I #
coedge $-1 $288 $289 $290 $291 forward $120 $-1 #
face $-1 $-1 $292 $62 $-1 $293 forward single #
loop $-1 $-1 $294 $122 #
plane-surface $-1 0 0 -2.9677266762291339 0 0 -1 -1 0 0 forward_v I I I I #
loop $-1 $-1 $295 $78 #
coedge $-1 $195 $195 $294 $296 reversed $123 $-1 #
face $-1 $-1 $297 $63 $-1 $298 forward single #
loop $-1 $-1 $299 $125 #
plane-surface $-1 0 0 -2.9677266762291339 0 0 -1 -1 0 0 forward_v I I I I #
loop $-1 $-1 $300 $79 #
coedge $-1 $200 $200 $299 $301 reversed $126 $-1 #
face $-1 $302 $303 $48 $-1 $304 reversed single #
loop $-1 $-1 $305 $128 #
plane-surface $-1 0 -48.622032408503706 0 0 1 0 0 0 1 forward_v I I I I #
coedge $-1 $306 $307 $308 $309 forward $129 $-1 #
coedge $-1 $310 $131 $311 $312 forward $81 $-1 #
coedge $-1 $131 $310 $313 $314 forward $81 $-1 #
coedge $-1 $315 $316 $131 $208 reversed $317 $-1 #
edge $-1 $318 -48.622032408503706 $319 48.622032408503706 $207 $320 forward 7 unknown #
face $-1 $321 $322 $49 $-1 $323 reversed single #
loop $-1 $-1 $324 $132 #
plane-surface $-1 0 -12.671737680572829 0 0 1 0 0 0 1 forward_v I I I I #
coedge $-1 $325 $326 $327 $328 forward $133 $-1 #
coedge $-1 $329 $135 $330 $331 forward $84 $-1 #
coedge $-1 $135 $329 $332 $333 forward $84 $-1 #
coedge $-1 $334 $335 $135 $216 reversed $336 $-1 #
edge $-1 $337 -12.671737680572829 $338 12.671737680572829 $215 $339 forward 7 unknown #
face $-1 $340 $341 $50 $-1 $342 reversed single #
loop $-1 $-1 $343 $136 #
plane-surface $-1 0 -9.6730177760796749 0 0 1 0 0 0 1 forward_v I I I I #
coedge $-1 $344 $345 $346 $347 forward $137 $-1 #
coedge $-1 $348 $139 $349 $350 forward $87 $-1 #
coedge $-1 $139 $348 $351 $352 forward $87 $-1 #
coedge $-1 $353 $354 $139 $224 reversed $355 $-1 #
edge $-1 $356 -9.6730177760796749 $357 9.6730177760796749 $223 $358 forward 7 unknown #
loop $-1 $359 $360 $140 #
cone-surface $-1 0 0 0 0 0 1 0.75 0 0 1 I I -0.70710678118654757 0.70710678118654757 0.75 forward I I I I #
coedge $-1 $227 $227 $144 $229 forward $141 $-1 #
coedge $-1 $228 $228 $360 $361 forward $143 $-1 #
edge $-1 $362 0 $362 6.2831853071796004 $227 $363 forward 7 unknown #
face $-1 $364 $365 $52 $-1 $366 reversed single #
loop $-1 $-1 $367 $145 #
plane-surface $-1 0 -4.4934302674330056 0 0 1 0 0 0 1 forward_v I I I I #
coedge $-1 $368 $369 $370 $371 forward $146 $-1 #
coedge $-1 $372 $148 $373 $374 forward $93 $-1 #
coedge $-1 $148 $372 $375 $376 forward $93 $-1 #
coedge $-1 $377 $378 $148 $237 reversed $379 $-1 #
edge $-1 $380 -4.4934302674330056 $381 4.4934302674330056 $236 $382 forward 7 unknown #
loop $-1 $383 $384 $149 #
cone-surface $-1 0 0 0 0 0 1 0.5 0 0 1 I I -0.70710678118654746 0.70710678118654746 0.5 forward I I I I #
coedge $-1 $240 $240 $153 $242 forward $150 $-1 #
coedge $-1 $241 $241 $384 $385 forward $152 $-1 #
edge $-1 $386 0 $386 6.2831853071796004 $240 $387 forward 7 unknown #
loop $-1 $388 $389 $154 #
cone-surface $-1 0 0 0 0 0 1 0.5 0 0 1 I I -0.70710678118654746 0.70710678118654746 0.5 forward I I I I #
coedge $-1 $245 $245 $158 $247 forward $155 $-1 #
coedge $-1 $246 $246 $389 $390 forward $157 $-1 #
edge $-1 $391 0 $391 6.2831853071796004 $245 $392 forward 7 unknown #
face $-1 $393 $394 $55 $-1 $395 reversed single #
loop $-1 $-1 $396 $159 #
plane-surface $-1 0 -4.4934302674330056 0 0 1 0 0 0 1 forward_v I I I I #
coedge $-1 $397 $398 $399 $400 forward $160 $-1 #
coedge $-1 $401 $162 $402 $403 forward $102 $-1 #
coedge $-1 $162 $401 $404 $405 forward $102 $-1 #
coedge $-1 $406 $407 $162 $255 reversed $408 $-1 #
edge $-1 $409 -4.4934302674330056 $410 4.4934302674330056 $254 $411 forward 7 unknown #
loop $-1 $412 $413 $163 #
cone-surface $-1 0 0 0 0 0 1 0.5 0 0 1 I I -0.70710678118654746 0.70710678118654746 0.5 forward I I I I #
coedge $-1 $258 $258 $167 $260 forward $164 $-1 #
coedge $-1 $259 $259 $413 $414 forward $166 $-1 #
edge $-1 $415 0 $415 6.2831853071796004 $258 $416 forward 7 unknown #
loop $-1 $417 $418 $168 #
cone-surface $-1 0 0 0 0 0 1 0.5 0 0 1 I I -0.70710678118654746 0.70710678118654746 0.5 forward I I I I #
coedge $-1 $263 $263 $172 $265 forward $169 $-1 #
coedge $-1 $264 $264 $418 $419 forward $171 $-1 #
edge $-1 $420 0 $420 6.2831853071796004 $263 $421 forward 7 unknown #
face $-1 $422 $423 $58 $-1 $424 reversed single #
loop $-1 $-1 $425 $173 #
plane-surface $-1 0 -4.4934302674330056 0 0 1 0 0 0 1 forward_v I I I I #
coedge $-1 $426 $427 $428 $429 forward $174 $-1 #
coedge $-1 $430 $176 $431 $432 forward $111 $-1 #
coedge $-1 $176 $430 $433 $434 forward $111 $-1 #
coedge $-1 $435 $436 $176 $273 reversed $437 $-1 #
edge $-1 $438 -4.4934302674330056 $439 4.4934302674330056 $272 $440 forward 7 unknown #
loop $-1 $441 $442 $177 #
cone-surface $-1 0 0 0 0 0 1 0.5 0 0 1 I I -0.70710678118654746 0.70710678118654746 0.5 forward I I I I #
coedge $-1 $276 $276 $181 $278 forward $178 $-1 #
coedge $-1 $277 $277 $442 $443 forward $180 $-1 #
edge $-1 $444 0 $444 6.2831853071796004 $276 $445 forward 7 unknown #
loop $-1 $446 $447 $182 #
cone-surface $-1 0 0 0 0 0 1 0.5 0 0 1 I I -0.70710678118654746 0.70710678118654746 0.5 forward I I I I #
coedge $-1 $281 $281 $186 $283 forward $183 $-1 #
coedge $-1 $282 $282 $447 $448 forward $185 $-1 #
edge $-1 $449 0 $449 6.2831853071796004 $281 $450 forward 7 unknown #
face $-1 $451 $452 $61 $-1 $453 reversed single #
loop $-1 $-1 $454 $187 #
plane-surface $-1 0 -4.4934302674330056 0 0 1 0 0 0 1 forward_v I I I I #
coedge $-1 $455 $456 $457 $458 forward $188 $-1 #
coedge $-1 $459 $190 $460 $461 forward $120 $-1 #
coedge $-1 $190 $459 $462 $463 forward $120 $-1 #
coedge $-1 $464 $465 $190 $291 reversed $466 $-1 #
edge $-1 $467 -4.4934302674330056 $468 4.4934302674330056 $290 $469 forward 7 unknown #
loop $-1 $470 $471 $191 #
cone-surface $-1 0 0 0 0 0 1 0.5 0 0 1 I I -0.70710678118654746 0.70710678118654746 0.5 forward I I I I #
coedge $-1 $294 $294 $195 $296 forward $192 $-1 #
coedge $-1 $295 $295 $471 $472 forward $194 $-1 #
edge $-1 $473 0 $473 6.2831853071796004 $294 $474 forward 7 unknown #
loop $-1 $475 $476 $196 #
cone-surface $-1 0 0 0 0 0 1 0.5 0 0 1 I I -0.70710678118654746 0.70710678118654746 0.5 forward I I I I #
coedge $-1 $299 $299 $200 $301 forward $197 $-1 #
coedge $-1 $300 $300 $476 $477 forward $199 $-1 #
edge $-1 $478 0 $478 6.2831853071796004 $299 $479 forward 7 unknown #
face $-1 $480 $481 $48 $-1 $482 reversed single #
loop $-1 $-1 $483 $201 #
plane-surface $-1 -76.290169988097773 0 0 1 0 0 0 0 -1 forward_v I I I I #
coedge $-1 $484 $313 $485 $486 forward $202 $-1 #
coedge $-1 $487 $204 $484 $488 forward $129 $-1 #
coedge $-1 $204 $487 $489 $490 forward $129 $-1 #
coedge $-1 $316 $315 $204 $309 reversed $317 $-1 #
edge $-1 $491 -48.622032408503706 $492 48.622032408503706 $308 $493 forward 7 unknown #
coedge $-1 $206 $205 $494 $495 forward $81 $-1 #
coedge $-1 $496 $497 $205 $312 reversed $481 $-1 #
edge $-1 $319 -76.290169988097773 $498 76.290169988097773 $311 $499 forward 7 unknown #
coedge $-1 $305 $500 $206 $314 reversed $202 $-1 #
edge $-1 $501 -76.290169988097773 $318 76.290169988097773 $313 $502 forward 7 unknown #
coedge $-1 $308 $207 $500 $503 forward $317 $-1 #
coedge $-1 $207 $308 $496 $504 reversed $317 $-1 #
loop $-1 $-1 $315 $480 #
vertex $-1 $208 $505 #
vertex $-1 $208 $506 #
straight-curve $-1 76.290169988097773 0 20.47728461666037 0 1 0 I I #
face $-1 $507 $508 $49 $-1 $509 reversed single #
loop $-1 $-1 $510 $209 #
plane-surface $-1 -76.290169988097773 0 0 1 0 0 0 0 -1 forward_v I I I I #
coedge $-1 $511 $332 $512 $513 forward $210 $-1 #
coedge $-1 $514 $212 $511 $515 forward $133 $-1 #
coedge $-1 $212 $514 $516 $517 forward $133 $-1 #
coedge $-1 $335 $334 $212 $328 reversed $336 $-1 #
edge $-1 $518 -12.671737680572829 $519 12.671737680572829 $327 $520 forward 7 unknown #
coedge $-1 $214 $213 $521 $522 forward $84 $-1 #
coedge $-1 $523 $524 $213 $331 reversed $508 $-1 #
edge $-1 $338 -76.290169988097773 $525 76.290169988097773 $330 $526 forward 7 unknown #
coedge $-1 $324 $527 $214 $333 reversed $210 $-1 #
edge $-1 $528 -76.290169988097773 $337 76.290169988097773 $332 $529 forward 7 unknown #
coedge $-1 $327 $215 $527 $530 forward $336 $-1 #
coedge $-1 $215 $327 $523 $531 reversed $336 $-1 #
loop $-1 $-1 $334 $507 #
vertex $-1 $216 $532 #
vertex $-1 $216 $533 #
straight-curve $-1 76.290169988097773 0 3.2381069442190515 0 1 0 I I #
face $-1 $534 $535 $50 $-1 $536 reversed single #
loop $-1 $-1 $537 $217 #
plane-surface $-1 -305.16067995239109 0 0 1 0 0 0 0 -1 forward_v I I I I #
coedge $-1 $538 $351 $539 $540 forward $218 $-1 #
coedge $-1 $541 $220 $538 $542 forward $137 $-1 #
coedge $-1 $220 $541 $543 $544 forward $137 $-1 #
coedge $-1 $354 $353 $220 $347 reversed $355 $-1 #
edge $-1 $545 -9.6730177760796749 $546 9.6730177760796749 $346 $547 forward 7 unknown #
coedge $-1 $222 $221 $548 $549 forward $87 $-1 #
coedge $-1 $550 $551 $221 $350 reversed $535 $-1 #
edge $-1 $357 -305.16067995239109 $552 305.16067995239109 $349 $553 forward 7 unknown #
coedge $-1 $343 $554 $222 $352 reversed $218 $-1 #
edge $-1 $555 -305.16067995239109 $356 305.16067995239109 $351 $556 forward 7 unknown #
coedge $-1 $346 $223 $554 $557 forward $355 $-1 #
coedge $-1 $223 $346 $550 $558 reversed $355 $-1 #
loop $-1 $-1 $353 $534 #
vertex $-1 $224 $559 #
vertex $-1 $224 $560 #
straight-curve $-1 305.16067995239109 0 152.58033997619555 0 1 0 I I #
loop $-1 $-1 $561 $140 #
coedge $-1 $360 $360 $228 $361 reversed $225 $-1 #
edge $-1 $562 0 $562 6.2831853071796004 $360 $563 forward 7 unknown #
vertex $-1 $229 $564 #
ellipse-curve $-1 0 0 -2.6780678731650713 0 0 -1 1.5 0 0 1 I I #
face $-1 $565 $566 $52 $-1 $567 reversed single #
loop $-1 $-1 $568 $230 #
plane-surface $-1 -305.16067995239109 0 0 1 0 0 0 0 -1 forward_v I I I I #
coedge $-1 $569 $375 $570 $571 forward $231 $-1 #
coedge $-1 $572 $233 $569 $573 forward $146 $-1 #
coedge $-1 $233 $572 $574 $575 forward $146 $-1 #
coedge $-1 $378 $377 $233 $371 reversed $379 $-1 #
edge $-1 $576 -4.4934302674330056 $577 4.4934302674330056 $370 $578 forward 7 unknown #
coedge $-1 $235 $234 $579 $580 forward $93 $-1 #
coedge $-1 $581 $582 $234 $374 reversed $566 $-1 #
edge $-1 $381 -305.16067995239109 $583 305.16067995239109 $373 $584 forward 7 unknown #
coedge $-1 $367 $585 $235 $376 reversed $231 $-1 #
edge $-1 $586 -305.16067995239109 $380 305.16067995239109 $375 $587 forward 7 unknown #
coedge $-1 $370 $236 $585 $588 forward $379 $-1 #
coedge $-1 $236 $370 $581 $589 reversed $379 $-1 #
loop $-1 $-1 $377 $565 #
vertex $-1 $237 $590 #
vertex $-1 $237 $591 #
straight-curve $-1 305.16067995239109 0 152.58033997619555 0 1 0 I I #
loop $-1 $-1 $592 $149 #
coedge $-1 $384 $384 $241 $385 reversed $238 $-1 #
edge $-1 $593 0 $593 6.2831853071796004 $384 $594 forward 7 unknown #
vertex $-1 $242 $595 #
ellipse-curve $-1 0 0 -2.9677266762291339 0 0 -1 1 0 0 1 I I #
loop $-1 $-1 $596 $154 #
coedge $-1 $389 $389 $246 $390 reversed $243 $-1 #
edge $-1 $597 0 $597 6.2831853071796004 $389 $598 forward 7 unknown #
vertex $-1 $247 $599 #
ellipse-curve $-1 0 0 -2.9677266762291339 0 0 -1 1 0 0 1 I I #
face $-1 $600 $601 $55 $-1 $602 reversed single #
loop $-1 $-1 $603 $248 #
plane-surface $-1 -305.16067995239109 0 0 1 0 0 0 0 -1 forward_v I I I I #
coedge $-1 $604 $404 $605 $606 forward $249 $-1 #
coedge $-1 $607 $251 $604 $608 forward $160 $-1 #
coedge $-1 $251 $607 $609 $610 forward $160 $-1 #
coedge $-1 $407 $406 $251 $400 reversed $408 $-1 #
edge $-1 $611 -4.4934302674330056 $612 4.4934302674330056 $399 $613 forward 7 unknown #
coedge $-1 $253 $252 $614 $615 forward $102 $-1 #
coedge $-1 $616 $617 $252 $403 reversed $601 $-1 #
edge $-1 $410 -305.16067995239109 $618 305.16067995239109 $402 $619 forward 7 unknown #
coedge $-1 $396 $620 $253 $405 reversed $249 $-1 #
edge $-1 $621 -305.16067995239109 $409 305.16067995239109 $404 $622 forward 7 unknown #
coedge $-1 $399 $254 $620 $623 forward $408 $-1 #
coedge $-1 $254 $399 $616 $624 reversed $408 $-1 #
loop $-1 $-1 $406 $600 #
vertex $-1 $255 $625 #
vertex $-1 $255 $626 #
straight-curve $-1 305.16067995239109 0 152.58033997619555 0 1 0 I I #
loop $-1 $-1 $627 $163 #
coedge $-1 $413 $413 $259 $414 reversed $256 $-1 #
edge $-1 $628 0 $628 6.2831853071796004 $413 $629 forward 7 unknown #
vertex $-1 $260 $630 #
ellipse-curve $-1 0 0 -2.9677266762291339 0 0 -1 1 0 0 1 I I #
loop $-1 $-1 $631 $168 #
coedge $-1 $418 $418 $264 $419 reversed $261 $-1 #
edge $-1 $632 0 $632 6.2831853071796004 $418 $633 forward 7 unknown #
vertex $-1 $265 $634 #
ellipse-curve $-1 0 0 -2.9677266762291339 0 0 -1 1 0 0 1 I I #
face $-1 $635 $636 $58 $-1 $637 reversed single #
loop $-1 $-1 $638 $266 #
plane-surface $-1 -305.16067995239109 0 0 1 0 0 0 0 -1 forward_v I I I I #
coedge $-1 $639 $433 $640 $641 forward $267 $-1 #
coedge $-1 $642 $269 $639 $643 forward $174 $-1 #
coedge $-1 $269 $642 $644 $645 forward $174 $-1 #
coedge $-1 $436 $435 $269 $429 reversed $437 $-1 #
edge $-1 $646 -4.4934302674330056 $647 4.4934302674330056 $428 $648 forward 7 unknown #
coedge $-1 $271 $270 $649 $650 forward $111 $-1 #
coedge $-1 $651 $652 $270 $432 reversed $636 $-1 #
edge $-1 $439 -305.16067995239109 $653 305.16067995239109 $431 $654 forward 7 unknown #
coedge $-1 $425 $655 $271 $434 reversed $267 $-1 #
edge $-1 $656 -305.16067995239109 $438 305.16067995239109 $433 $657 forward 7 unknown #
coedge $-1 $428 $272 $655 $658 forward $437 $-1 #
coedge $-1 $272 $428 $651 $659 reversed $437 $-1 #
loop $-1 $-1 $435 $635 #
vertex $-1 $273 $660 #
vertex $-1 $273 $661 #
straight-curve $-1 305.16067995239109 0 152.58033997619555 0 1 0 I I #
loop $-1 $-1 $662 $177 #
coedge $-1 $442 $442 $277 $443 reversed $274 $-1 #
edge $-1 $663 0 $663 6.2831853071796004 $442 $664 forward 7 unknown #
vertex $-1 $278 $665 #
ellipse-curve $-1 0 0 -2.9677266762291339 0 0 -1 1 0 0 1 I I #
loop $-1 $-1 $666 $182 #
coedge $-1 $447 $447 $282 $448 reversed $279 $-1 #
edge $-1 $667 0 $667 6.2831853071796004 $447 $668 forward 7 unknown #
vertex $-1 $283 $669 #
ellipse-curve $-1 0 0 -2.9677266762291339 0 0 -1 1 0 0 1 I I #
face $-1 $670 $671 $61 $-1 $672 reversed single #
loop $-1 $-1 $673 $284 #
plane-surface $-1 -305.16067995239109 0 0 1 0 0 0 0 -1 forward_v I I I I #
coedge $-1 $674 $462 $675 $676 forward $285 $-1 #
coedge $-1 $677 $287 $674 $678 forward $188 $-1 #
coedge $-1 $287 $677 $679 $680 forward $188 $-1 #
coedge $-1 $465 $464 $287 $458 reversed $466 $-1 #
edge $-1 $681 -4.4934302674330056 $682 4.4934302674330056 $457 $683 forward 7 unknown #
coedge $-1 $289 $288 $684 $685 forward $120 $-1 #
coedge $-1 $686 $687 $288 $461 reversed $671 $-1 #
edge $-1 $468 -305.16067995239109 $688 305.16067995239109 $460 $689 forward 7 unknown #
coedge $-1 $454 $690 $289 $463 reversed $285 $-1 #
edge $-1 $691 -305.16067995239109 $467 305.16067995239109 $462 $692 forward 7 unknown #
coedge $-1 $457 $290 $690 $693 forward $466 $-1 #
coedge $-1 $290 $457 $686 $694 reversed $466 $-1 #
loop $-1 $-1 $464 $670 #
vertex $-1 $291 $695 #
vertex $-1 $291 $696 #
straight-curve $-1 305.16067995239109 0 152.58033997619555 0 1 0 I I #
loop $-1 $-1 $697 $191 #
coedge $-1 $471 $471 $295 $472 reversed $292 $-1 #
edge $-1 $698 0 $698 6.2831853071796004 $471 $699 forward 7 unknown #
vertex $-1 $296 $700 #
ellipse-curve $-1 0 0 -2.9677266762291339 0 0 -1 1 0 0 1 I I #
loop $-1 $-1 $701 $196 #
coedge $-1 $476 $476 $300 $477 reversed $297 $-1 #
edge $-1 $702 0 $702 6.2831853071796004 $476 $703 forward 7 unknown #
vertex $-1 $301 $704 #
ellipse-curve $-1 0 0 -2.9677266762291339 0 0 -1 1 0 0 1 I I #
face $-1 $-1 $317 $48 $-1 $705 reversed single #
loop $-1 $-1 $496 $302 #
plane-surface $-1 0 48.622032408503706 0 0 -1 0 0 0 -1 forward_v I I I I #
coedge $-1 $706 $494 $497 $707 forward $303 $-1 #
coedge $-1 $500 $305 $306 $488 reversed $202 $-1 #
coedge $-1 $494 $706 $305 $486 reversed $303 $-1 #
edge $-1 $501 -20.47728461666037 $708 20.47728461666037 $485 $709 forward 7 unknown #
coedge $-1 $307 $306 $706 $710 forward $129 $-1 #
edge $-1 $492 -76.290169988097773 $708 76.290169988097773 $484 $711 forward 7 unknown #
coedge $-1 $497 $496 $307 $490 reversed $481 $-1 #
edge $-1 $712 -76.290169988097773 $491 76.290169988097773 $489 $713 forward 7 unknown #
vertex $-1 $309 $714 #
vertex $-1 $503 $715 #
straight-curve $-1 76.290169988097773 0 -20.47728461666037 0 -1 0 I I #
coedge $-1 $483 $485 $310 $495 reversed $303 $-1 #
edge $-1 $498 -48.622032408503706 $501 48.622032408503706 $494 $716 forward 7 unknown #
coedge $-1 $489 $311 $316 $504 forward $481 $-1 #
coedge $-1 $311 $489 $483 $707 reversed $481 $-1 #
vertex $-1 $312 $717 #
straight-curve $-1 0 48.622032408503706 20.47728461666037 -1 0 0 I I #
coedge $-1 $313 $484 $315 $503 reversed $202 $-1 #
vertex $-1 $495 $718 #
straight-curve $-1 0 -48.622032408503706 20.47728461666037 1 0 0 I I #
edge $-1 $318 -20.47728461666037 $492 20.47728461666037 $315 $719 forward 7 unknown #
edge $-1 $319 -20.47728461666037 $491 20.47728461666037 $316 $720 forward 7 unknown #
point $-1 76.290169988097773 -48.622032408503706 20.47728461666037 #
point $-1 76.290169988097773 48.622032408503706 20.47728461666037 #
face $-1 $-1 $336 $49 $-1 $721 reversed single #
loop $-1 $-1 $523 $321 #
plane-surface $-1 0 12.671737680572829 0 0 -1 0 0 0 -1 forward_v I I I I #
coedge $-1 $722 $521 $524 $723 forward $322 $-1 #
coedge $-1 $527 $324 $325 $515 reversed $210 $-1 #
coedge $-1 $521 $722 $324 $513 reversed $322 $-1 #
edge $-1 $528 -3.2381069442190515 $724 3.2381069442190515 $512 $725 forward 7 unknown #
coedge $-1 $326 $325 $722 $726 forward $133 $-1 #
edge $-1 $519 -76.290169988097773 $724 76.290169988097773 $511 $727 forward 7 unknown #
coedge $-1 $524 $523 $326 $517 reversed $508 $-1 #
edge $-1 $728 -76.290169988097773 $518 76.290169988097773 $516 $729 forward 7 unknown #
vertex $-1 $328 $730 #
vertex $-1 $530 $731 #
straight-curve $-1 76.290169988097773 0 -3.2381069442190515 0 -1 0 I I #
coedge $-1 $510 $512 $329 $522 reversed $322 $-1 #
edge $-1 $525 -12.671737680572829 $528 12.671737680572829 $521 $732 forward 7 unknown #
coedge $-1 $516 $330 $335 $531 forward $508 $-1 #
coedge $-1 $330 $516 $510 $723 reversed $508 $-1 #
vertex $-1 $331 $733 #
straight-curve $-1 0 12.671737680572829 3.2381069442190515 -1 0 0 I I #
coedge $-1 $332 $511 $334 $530 reversed $210 $-1 #
vertex $-1 $522 $734 #
straight-curve $-1 0 -12.671737680572829 3.2381069442190515 1 0 0 I I #
edge $-1 $337 -3.2381069442190515 $519 3.2381069442190515 $334 $735 forward 7 unknown #
edge $-1 $338 -3.2381069442190515 $518 3.2381069442190515 $335 $736 forward 7 unknown #
point $-1 76.290169988097773 -12.671737680572829 3.2381069442190515 #
point $-1 76.290169988097773 12.671737680572829 3.2381069442190515 #
face $-1 $-1 $355 $50 $-1 $737 reversed single #
loop $-1 $-1 $550 $340 #
plane-surface $-1 0 9.6730177760796749 0 0 -1 0 0 0 -1 forward_v I I I I #
coedge $-1 $738 $548 $551 $739 forward $341 $-1 #
coedge $-1 $554 $343 $344 $542 reversed $218 $-1 #
coedge $-1 $548 $738 $343 $540 reversed $341 $-1 #
edge $-1 $555 -152.58033997619555 $740 152.58033997619555 $539 $741 forward 7 unknown #
coedge $-1 $345 $344 $738 $742 forward $137 $-1 #
edge $-1 $546 -305.16067995239109 $740 305.16067995239109 $538 $743 forward 7 unknown #
coedge $-1 $551 $550 $345 $544 reversed $535 $-1 #
edge $-1 $744 -305.16067995239109 $545 305.16067995239109 $543 $745 forward 7 unknown #
vertex $-1 $347 $746 #
vertex $-1 $557 $747 #
straight-curve $-1 305.16067995239109 0 -152.58033997619555 0 -1 0 I I #
coedge $-1 $537 $539 $348 $549 reversed $341 $-1 #
edge $-1 $552 -9.6730177760796749 $555 9.6730177760796749 $548 $748 forward 7 unknown #
coedge $-1 $543 $349 $354 $558 forward $535 $-1 #
coedge $-1 $349 $543 $537 $739 reversed $535 $-1 #
vertex $-1 $350 $749 #
straight-curve $-1 0 9.6730177760796749 152.58033997619555 -1 0 0 I I #
coedge $-1 $351 $538 $353 $557 reversed $218 $-1 #
vertex $-1 $549 $750 #
straight-curve $-1 0 -9.6730177760796749 152.58033997619555 1 0 0 I I #
edge $-1 $356 -152.58033997619555 $546 152.58033997619555 $353 $751 forward 7 unknown #
edge $-1 $357 -152.58033997619555 $545 152.58033997619555 $354 $752 forward 7 unknown #
point $-1 305.16067995239109 -9.6730177760796749 152.58033997619555 #
point $-1 305.16067995239109 9.6730177760796749 152.58033997619555 #
coedge $-1 $561 $561 $-1 $753 reversed $359 $-1 #
vertex $-1 $361 $754 #
ellipse-curve $-1 0 0 -0.75 0 0 -1 1.5 0 0 1 I I #
point $-1 1.5 0 -2.6780678731650713 #
face $-1 $-1 $379 $52 $-1 $755 reversed single #
loop $-1 $-1 $581 $364 #
plane-surface $-1 0 4.4934302674330056 0 0 -1 0 0 0 -1 forward_v I I I I #
coedge $-1 $756 $579 $582 $757 forward $365 $-1 #
coedge $-1 $585 $367 $368 $573 reversed $231 $-1 #
coedge $-1 $579 $756 $367 $571 reversed $365 $-1 #
edge $-1 $586 -152.58033997619555 $758 152.58033997619555 $570 $759 forward 7 unknown #
coedge $-1 $369 $368 $756 $760 forward $146 $-1 #
edge $-1 $577 -305.16067995239109 $758 305.16067995239109 $569 $761 forward 7 unknown #
coedge $-1 $582 $581 $369 $575 reversed $566 $-1 #
edge $-1 $762 -305.16067995239109 $576 305.16067995239109 $574 $763 forward 7 unknown #
vertex $-1 $371 $764 #
vertex $-1 $588 $765 #
straight-curve $-1 305.16067995239109 0 -152.58033997619555 0 -1 0 I I #
coedge $-1 $568 $570 $372 $580 reversed $365 $-1 #
edge $-1 $583 -4.4934302674330056 $586 4.4934302674330056 $579 $766 forward 7 unknown #
coedge $-1 $574 $373 $378 $589 forward $566 $-1 #
coedge $-1 $373 $574 $568 $757 reversed $566 $-1 #
vertex $-1 $374 $767 #
straight-curve $-1 0 4.4934302674330056 152.58033997619555 -1 0 0 I I #
coedge $-1 $375 $569 $377 $588 reversed $231 $-1 #
vertex $-1 $580 $768 #
straight-curve $-1 0 -4.4934302674330056 152.58033997619555 1 0 0 I I #
edge $-1 $380 -152.58033997619555 $577 152.58033997619555 $377 $769 forward 7 unknown #
edge $-1 $381 -152.58033997619555 $576 152.58033997619555 $378 $770 forward 7 unknown #
point $-1 305.16067995239109 -4.4934302674330056 152.58033997619555 #
point $-1 305.16067995239109 4.4934302674330056 152.58033997619555 #
coedge $-1 $592 $592 $-1 $771 reversed $383 $-1 #
vertex $-1 $385 $772 #
ellipse-curve $-1 0 0 -0.5 0 0 -1 1 0 0 1 I I #
point $-1 1 0 -2.9677266762291339 #
coedge $-1 $596 $596 $-1 $773 reversed $388 $-1 #
vertex $-1 $390 $774 #
ellipse-curve $-1 0 0 -0.5 0 0 -1 1 0 0 1 I I #
point $-1 1 0 -2.9677266762291339 #
face $-1 $-1 $408 $55 $-1 $775 reversed single #
loop $-1 $-1 $616 $393 #
plane-surface $-1 0 4.4934302674330056 0 0 -1 0 0 0 -1 forward_v I I I I #
coedge $-1 $776 $614 $617 $777 forward $394 $-1 #
coedge $-1 $620 $396 $397 $608 reversed $249 $-1 #
coedge $-1 $614 $776 $396 $606 reversed $394 $-1 #
edge $-1 $621 -152.58033997619555 $778 152.58033997619555 $605 $779 forward 7 unknown #
coedge $-1 $398 $397 $776 $780 forward $160 $-1 #
edge $-1 $612 -305.16067995239109 $778 305.16067995239109 $604 $781 forward 7 unknown #
coedge $-1 $617 $616 $398 $610 reversed $601 $-1 #
edge $-1 $782 -305.16067995239109 $611 305.16067995239109 $609 $783 forward 7 unknown #
vertex $-1 $400 $784 #
vertex $-1 $623 $785 #
straight-curve $-1 305.16067995239109 0 -152.58033997619555 0 -1 0 I I #
coedge $-1 $603 $605 $401 $615 reversed $394 $-1 #
edge $-1 $618 -4.4934302674330056 $621 4.4934302674330056 $614 $786 forward 7 unknown #
coedge $-1 $609 $402 $407 $624 forward $601 $-1 #
coedge $-1 $402 $609 $603 $777 reversed $601 $-1 #
vertex $-1 $403 $787 #
straight-curve $-1 0 4.4934302674330056 152.58033997619555 -1 0 0 I I #
coedge $-1 $404 $604 $406 $623 reversed $249 $-1 #
vertex $-1 $615 $788 #
straight-curve $-1 0 -4.4934302674330056 152.58033997619555 1 0 0 I I #
edge $-1 $409 -152.58033997619555 $612 152.58033997619555 $406 $789 forward 7 unknown #
edge $-1 $410 -152.58033997619555 $611 152.58033997619555 $407 $790 forward 7 unknown #
point $-1 305.16067995239109 -4.4934302674330056 152.58033997619555 #
point $-1 305.16067995239109 4.4934302674330056 152.58033997619555 #
coedge $-1 $627 $627 $-1 $791 reversed $412 $-1 #
vertex $-1 $414 $792 #
ellipse-curve $-1 0 0 -0.5 0 0 -1 1 0 0 1 I I #
point $-1 1 0 -2.9677266762291339 #
coedge $-1 $631 $631 $-1 $793 reversed $417 $-1 #
vertex $-1 $419 $794 #
ellipse-curve $-1 0 0 -0.5 0 0 -1 1 0 0 1 I I #
point $-1 1 0 -2.9677266762291339 #
face $-1 $-1 $437 $58 $-1 $795 reversed single #
loop $-1 $-1 $651 $422 #
plane-surface $-1 0 4.4934302674330056 0 0 -1 0 0 0 -1 forward_v I I I I #
coedge $-1 $796 $649 $652 $797 forward $423 $-1 #
coedge $-1 $655 $425 $426 $643 reversed $267 $-1 #
coedge $-1 $649 $796 $425 $641 reversed $423 $-1 #
edge $-1 $656 -152.58033997619555 $798 152.58033997619555 $640 $799 forward 7 unknown #
coedge $-1 $427 $426 $796 $800 forward $174 $-1 #
edge $-1 $647 -305.16067995239109 $798 305.16067995239109 $639 $801 forward 7 unknown #
coedge $-1 $652 $651 $427 $645 reversed $636 $-1 #
edge $-1 $802 -305.16067995239109 $646 305.16067995239109 $644 $803 forward 7 unknown #
vertex $-1 $429 $804 #
vertex $-1 $658 $805 #
straight-curve $-1 305.16067995239109 0 -152.58033997619555 0 -1 0 I I #
coedge $-1 $638 $640 $430 $650 reversed $423 $-1 #
edge $-1 $653 -4.4934302674330056 $656 4.4934302674330056 $649 $806 forward 7 unknown #
coedge $-1 $644 $431 $436 $659 forward $636 $-1 #
coedge $-1 $431 $644 $638 $797 reversed $636 $-1 #
vertex $-1 $432 $807 #
straight-curve $-1 0 4.4934302674330056 152.58033997619555 -1 0 0 I I #
coedge $-1 $433 $639 $435 $658 reversed $267 $-1 #
vertex $-1 $650 $808 #
straight-curve $-1 0 -4.4934302674330056 152.58033997619555 1 0 0 I I #
edge $-1 $438 -152.58033997619555 $647 152.58033997619555 $435 $809 forward 7 unknown #
edge $-1 $439 -152.58033997619555 $646 152.58033997619555 $436 $810 forward 7 unknown #
point $-1 305.16067995239109 -4.4934302674330056 152.58033997619555 #
point $-1 305.16067995239109 4.4934302674330056 152.58033997619555 #
coedge $-1 $662 $662 $-1 $811 reversed $441 $-1 #
vertex $-1 $443 $812 #
ellipse-curve $-1 0 0 -0.5 0 0 -1 1 0 0 1 I I #
point $-1 1 0 -2.9677266762291339 #
coedge $-1 $666 $666 $-1 $813 reversed $446 $-1 #
vertex $-1 $448 $814 #
ellipse-curve $-1 0 0 -0.5 0 0 -1 1 0 0 1 I I #
point $-1 1 0 -2.9677266762291339 #
face $-1 $-1 $466 $61 $-1 $815 reversed single #
loop $-1 $-1 $686 $451 #
plane-surface $-1 0 4.4934302674330056 0 0 -1 0 0 0 -1 forward_v I I I I #
coedge $-1 $816 $684 $687 $817 forward $452 $-1 #
coedge $-1 $690 $454 $455 $678 reversed $285 $-1 #
coedge $-1 $684 $816 $454 $676 reversed $452 $-1 #
edge $-1 $691 -152.58033997619555 $818 152.58033997619555 $675 $819 forward 7 unknown #
coedge $-1 $456 $455 $816 $820 forward $188 $-1 #
edge $-1 $682 -305.16067995239109 $818 305.16067995239109 $674 $821 forward 7 unknown #
coedge $-1 $687 $686 $456 $680 reversed $671 $-1 #
edge $-1 $822 -305.16067995239109 $681 305.16067995239109 $679 $823 forward 7 unknown #
vertex $-1 $458 $824 #
vertex $-1 $693 $825 #
straight-curve $-1 305.16067995239109 0 -152.58033997619555 0 -1 0 I I #
coedge $-1 $673 $675 $459 $685 reversed $452 $-1 #
edge $-1 $688 -4.4934302674330056 $691 4.4934302674330056 $684 $826 forward 7 unknown #
coedge $-1 $679 $460 $465 $694 forward $671 $-1 #
coedge $-1 $460 $679 $673 $817 reversed $671 $-1 #
vertex $-1 $461 $827 #
straight-curve $-1 0 4.4934302674330056 152.58033997619555 -1 0 0 I I #
coedge $-1 $462 $674 $464 $693 reversed $285 $-1 #
vertex $-1 $685 $828 #
straight-curve $-1 0 -4.4934302674330056 152.58033997619555 1 0 0 I I #
edge $-1 $467 -152.58033997619555 $682 152.58033997619555 $464 $829 forward 7 unknown #
edge $-1 $468 -152.58033997619555 $681 152.58033997619555 $465 $830 forward 7 unknown #
point $-1 305.16067995239109 -4.4934302674330056 152.58033997619555 #
point $-1 305.16067995239109 4.4934302674330056 152.58033997619555 #
coedge $-1 $697 $697 $-1 $831 reversed $470 $-1 #
vertex $-1 $472 $832 #
ellipse-curve $-1 0 0 -0.5 0 0 -1 1 0 0 1 I I #
point $-1 1 0 -2.9677266762291339 #
coedge $-1 $701 $701 $-1 $833 reversed $475 $-1 #
vertex $-1 $477 $834 #
ellipse-curve $-1 0 0 -0.5 0 0 -1 1 0 0 1 I I #
point $-1 1 0 -2.9677266762291339 #
plane-surface $-1 76.290169988097773 0 0 -1 0 0 0 0 1 forward_v I I I I #
coedge $-1 $485 $483 $487 $710 reversed $303 $-1 #
edge $-1 $498 -20.47728461666037 $712 20.47728461666037 $497 $835 forward 7 unknown #
vertex $-1 $710 $836 #
straight-curve $-1 -76.290169988097773 -48.622032408503706 0 0 0 -1 I I #
edge $-1 $708 -48.622032408503706 $712 48.622032408503706 $706 $837 forward 7 unknown #
straight-curve $-1 0 -48.622032408503706 -20.47728461666037 -1 0 0 I I #
vertex $-1 $490 $838 #
straight-curve $-1 0 48.622032408503706 -20.47728461666037 1 0 0 I I #
point $-1 76.290169988097773 48.622032408503706 -20.47728461666037 #
point $-1 76.290169988097773 -48.622032408503706 -20.47728461666037 #
straight-curve $-1 -76.290169988097773 0 20.47728461666037 0 -1 0 I I #
point $-1 -76.290169988097773 48.622032408503706 20.47728461666037 #
point $-1 -76.290169988097773 -48.622032408503706 20.47728461666037 #
straight-curve $-1 76.290169988097773 -48.622032408503706 0 0 0 -1 I I #
straight-curve $-1 76.290169988097773 48.622032408503706 0 0 0 -1 I I #
plane-surface $-1 76.290169988097773 0 0 -1 0 0 0 0 1 forward_v I I I I #
coedge $-1 $512 $510 $514 $726 reversed $322 $-1 #
edge $-1 $525 -3.2381069442190515 $728 3.2381069442190515 $524 $839 forward 7 unknown #
vertex $-1 $726 $840 #
straight-curve $-1 -76.290169988097773 -12.671737680572829 0 0 0 -1 I I #
edge $-1 $724 -12.671737680572829 $728 12.671737680572829 $722 $841 forward 7 unknown #
straight-curve $-1 0 -12.671737680572829 -3.2381069442190515 -1 0 0 I I #
vertex $-1 $517 $842 #
straight-curve $-1 0 12.671737680572829 -3.2381069442190515 1 0 0 I I #
point $-1 76.290169988097773 12.671737680572829 -3.2381069442190515 #
point $-1 76.290169988097773 -12.671737680572829 -3.2381069442190515 #
straight-curve $-1 -76.290169988097773 0 3.2381069442190515 0 -1 0 I I #
point $-1 -76.290169988097773 12.671737680572829 3.2381069442190515 #
point $-1 -76.290169988097773 -12.671737680572829 3.2381069442190515 #
straight-curve $-1 76.290169988097773 -12.671737680572829 0 0 0 -1 I I #
straight-curve $-1 76.290169988097773 12.671737680572829 0 0 0 -1 I I #
plane-surface $-1 305.16067995239109 0 0 -1 0 0 0 0 1 forward_v I I I I #
coedge $-1 $539 $537 $541 $742 reversed $341 $-1 #
edge $-1 $552 -152.58033997619555 $744 152.58033997619555 $551 $843 forward 7 unknown #
vertex $-1 $742 $844 #
straight-curve $-1 -305.16067995239109 -9.6730177760796749 0 0 0 -1 I I #
edge $-1 $740 -9.6730177760796749 $744 9.6730177760796749 $738 $845 forward 7 unknown #
straight-curve $-1 0 -9.6730177760796749 -152.58033997619555 -1 0 0 I I #
vertex $-1 $544 $846 #
straight-curve $-1 0 9.6730177760796749 -152.58033997619555 1 0 0 I I #
point $-1 305.16067995239109 9.6730177760796749 -152.58033997619555 #
point $-1 305.16067995239109 -9.6730177760796749 -152.58033997619555 #
straight-curve $-1 -305.16067995239109 0 152.58033997619555 0 -1 0 I I #
point $-1 -305.16067995239109 9.6730177760796749 152.58033997619555 #
point $-1 -305.16067995239109 -9.6730177760796749 152.58033997619555 #
straight-curve $-1 305.16067995239109 -9.6730177760796749 0 0 0 -1 I I #
straight-curve $-1 305.16067995239109 9.6730177760796749 0 0 0 -1 I I #
edge $-1 $847 1 $847 0 $561 $-1 forward 7 unknown #
point $-1 1.5 0 -0.75 #
plane-surface $-1 305.16067995239109 0 0 -1 0 0 0 0 1 forward_v I I I I #
coedge $-1 $570 $568 $572 $760 reversed $365 $-1 #
edge $-1 $583 -152.58033997619555 $762 152.58033997619555 $582 $848 forward 7 unknown #
vertex $-1 $760 $849 #
straight-curve $-1 -305.16067995239109 -4.4934302674330056 0 0 0 -1 I I #
edge $-1 $758 -4.4934302674330056 $762 4.4934302674330056 $756 $850 forward 7 unknown #
straight-curve $-1 0 -4.4934302674330056 -152.58033997619555 -1 0 0 I I #
vertex $-1 $575 $851 #
straight-curve $-1 0 4.4934302674330056 -152.58033997619555 1 0 0 I I #
point $-1 305.16067995239109 4.4934302674330056 -152.58033997619555 #
point $-1 305.16067995239109 -4.4934302674330056 -152.58033997619555 #
straight-curve $-1 -305.16067995239109 0 152.58033997619555 0 -1 0 I I #
point $-1 -305.16067995239109 4.4934302674330056 152.58033997619555 #
point $-1 -305.16067995239109 -4.4934302674330056 152.58033997619555 #
straight-curve $-1 305.16067995239109 -4.4934302674330056 0 0 0 -1 I I #
straight-curve $-1 305.16067995239109 4.4934302674330056 0 0 0 -1 I I #
edge $-1 $852 1 $852 0 $592 $-1 forward 7 unknown #
point $-1 1 0 -0.5 #
edge $-1 $853 1 $853 0 $596 $-1 forward 7 unknown #
point $-1 1 0 -0.5 #
plane-surface $-1 305.16067995239109 0 0 -1 0 0 0 0 1 forward_v I I I I #
coedge $-1 $605 $603 $607 $780 reversed $394 $-1 #
edge $-1 $618 -152.58033997619555 $782 152.58033997619555 $617 $854 forward 7 unknown #
vertex $-1 $780 $855 #
straight-curve $-1 -305.16067995239109 -4.4934302674330056 0 0 0 -1 I I #
edge $-1 $778 -4.4934302674330056 $782 4.4934302674330056 $776 $856 forward 7 unknown #
straight-curve $-1 0 -4.4934302674330056 -152.58033997619555 -1 0 0 I I #
vertex $-1 $610 $857 #
straight-curve $-1 0 4.4934302674330056 -152.58033997619555 1 0 0 I I #
point $-1 305.16067995239109 4.4934302674330056 -152.58033997619555 #
point $-1 305.16067995239109 -4.4934302674330056 -152.58033997619555 #
straight-curve $-1 -305.16067995239109 0 152.58033997619555 0 -1 0 I I #
point $-1 -305.16067995239109 4.4934302674330056 152.58033997619555 #
point $-1 -305.16067995239109 -4.4934302674330056 152.58033997619555 #
straight-curve $-1 305.16067995239109 -4.4934302674330056 0 0 0 -1 I I #
straight-curve $-1 305.16067995239109 4.4934302674330056 0 0 0 -1 I I #
edge $-1 $858 1 $858 0 $627 $-1 forward 7 unknown #
point $-1 1 0 -0.5 #
edge $-1 $859 1 $859 0 $631 $-1 forward 7 unknown #
point $-1 1 0 -0.5 #
plane-surface $-1 305.16067995239109 0 0 -1 0 0 0 0 1 forward_v I I I I #
coedge $-1 $640 $638 $642 $800 reversed $423 $-1 #
edge $-1 $653 -152.58033997619555 $802 152.58033997619555 $652 $860 forward 7 unknown #
vertex $-1 $800 $861 #
straight-curve $-1 -305.16067995239109 -4.4934302674330056 0 0 0 -1 I I #
edge $-1 $798 -4.4934302674330056 $802 4.4934302674330056 $796 $862 forward 7 unknown #
straight-curve $-1 0 -4.4934302674330056 -152.58033997619555 -1 0 0 I I #
vertex $-1 $645 $863 #
straight-curve $-1 0 4.4934302674330056 -152.58033997619555 1 0 0 I I #
point $-1 305.16067995239109 4.4934302674330056 -152.58033997619555 #
point $-1 305.16067995239109 -4.4934302674330056 -152.58033997619555 #
straight-curve $-1 -305.16067995239109 0 152.58033997619555 0 -1 0 I I #
point $-1 -305.16067995239109 4.4934302674330056 152.58033997619555 #
point $-1 -305.16067995239109 -4.4934302674330056 152.58033997619555 #
straight-curve $-1 305.16067995239109 -4.4934302674330056 0 0 0 -1 I I #
straight-curve $-1 305.16067995239109 4.4934302674330056 0 0 0 -1 I I #
edge $-1 $864 1 $864 0 $662 $-1 forward 7 unknown #
point $-1 1 0 -0.5 #
edge $-1 $865 1 $865 0 $666 $-1 forward 7 unknown #
point $-1 1 0 -0.5 #
plane-surface $-1 305.16067995239109 0 0 -1 0 0 0 0 1 forward_v I I I I #
coedge $-1 $675 $673 $677 $820 reversed $452 $-1 #
edge $-1 $688 -152.58033997619555 $822 152.58033997619555 $687 $866 forward 7 unknown #
vertex $-1 $820 $867 #
straight-curve $-1 -305.16067995239109 -4.4934302674330056 0 0 0 -1 I I #
edge $-1 $818 -4.4934302674330056 $822 4.4934302674330056 $816 $868 forward 7 unknown #
straight-curve $-1 0 -4.4934302674330056 -152.58033997619555 -1 0 0 I I #
vertex $-1 $680 $869 #
straight-curve $-1 0 4.4934302674330056 -152.58033997619555 1 0 0 I I #
point $-1 305.16067995239109 4.4934302674330056 -152.58033997619555 #
point $-1 305.16067995239109 -4.4934302674330056 -152.58033997619555 #
straight-curve $-1 -305.16067995239109 0 152.58033997619555 0 -1 0 I I #
point $-1 -305.16067995239109 4.4934302674330056 152.58033997619555 #
point $-1 -305.16067995239109 -4.4934302674330056 152.58033997619555 #
straight-curve $-1 305.16067995239109 -4.4934302674330056 0 0 0 -1 I I #
straight-curve $-1 305.16067995239109 4.4934302674330056 0 0 0 -1 I I #
edge $-1 $870 1 $870 0 $697 $-1 forward 7 unknown #
point $-1 1 0 -0.5 #
edge $-1 $871 1 $871 0 $701 $-1 forward 7 unknown #
point $-1 1 0 -0.5 #
straight-curve $-1 -76.290169988097773 48.622032408503706 0 0 0 -1 I I #
point $-1 -76.290169988097773 -48.622032408503706 -20.47728461666037 #
straight-curve $-1 -76.290169988097773 0 -20.47728461666037 0 1 0 I I #
point $-1 -76.290169988097773 48.622032408503706 -20.47728461666037 #
straight-curve $-1 -76.290169988097773 12.671737680572829 0 0 0 -1 I I #
point $-1 -76.290169988097773 -12.671737680572829 -3.2381069442190515 #
straight-curve $-1 -76.290169988097773 0 -3.2381069442190515 0 1 0 I I #
point $-1 -76.290169988097773 12.671737680572829 -3.2381069442190515 #
straight-curve $-1 -305.16067995239109 9.6730177760796749 0 0 0 -1 I I #
point $-1 -305.16067995239109 -9.6730177760796749 -152.58033997619555 #
straight-curve $-1 -305.16067995239109 0 -152.58033997619555 0 1 0 I I #
point $-1 -305.16067995239109 9.6730177760796749 -152.58033997619555 #
vertex $-1 $753 $872 #
straight-curve $-1 -305.16067995239109 4.4934302674330056 0 0 0 -1 I I #
point $-1 -305.16067995239109 -4.4934302674330056 -152.58033997619555 #
straight-curve $-1 -305.16067995239109 0 -152.58033997619555 0 1 0 I I #
point $-1 -305.16067995239109 4.4934302674330056 -152.58033997619555 #
vertex $-1 $771 $873 #
vertex $-1 $773 $874 #
straight-curve $-1 -305.16067995239109 4.4934302674330056 0 0 0 -1 I I #
point $-1 -305.16067995239109 -4.4934302674330056 -152.58033997619555 #
straight-curve $-1 -305.16067995239109 0 -152.58033997619555 0 1 0 I I #
point $-1 -305.16067995239109 4.4934302674330056 -152.58033997619555 #
vertex $-1 $791 $875 #
vertex $-1 $793 $876 #
straight-curve $-1 -305.16067995239109 4.4934302674330056 0 0 0 -1 I I #
point $-1 -305.16067995239109 -4.4934302674330056 -152.58033997619555 #
straight-curve $-1 -305.16067995239109 0 -152.58033997619555 0 1 0 I I #
point $-1 -305.16067995239109 4.4934302674330056 -152.58033997619555 #
vertex $-1 $811 $877 #
vertex $-1 $813 $878 #
straight-curve $-1 -305.16067995239109 4.4934302674330056 0 0 0 -1 I I #
point $-1 -305.16067995239109 -4.4934302674330056 -152.58033997619555 #
straight-curve $-1 -305.16067995239109 0 -152.58033997619555 0 1 0 I I #
point $-1 -305.16067995239109 4.4934302674330056 -152.58033997619555 #
vertex $-1 $831 $879 #
vertex $-1 $833 $880 #
point $-1 0 0 0.75 #
point $-1 0 0 0.5 #
point $-1 0 0 0.5 #
point $-1 0 0 0.5 #
point $-1 0 0 0.5 #
point $-1 0 0 0.5 #
point $-1 0 0 0.5 #
point $-1 0 0 0.5 #
point $-1 0 0 0.5 #
End-of-ACIS-data 