500 0 3 0           
7 Unknown 11 ACIS 5.0 NT 24 Fri Mar 26 15:04:10 1999 
-1 9.9999999999999995e-007 1e-010 
body $-1 $3 $-1 $4 #
body $-1 $5 $-1 $6 #
body $-1 $7 $-1 $8 #
lump $-1 $-1 $9 $0 #
transform $-1 1 0 0 0 1 0 0 0 1 58.192693868831448 24.366625497864565 11.568253819238267 1 rotate no_reflect no_shear #
lump $-1 $-1 $10 $1 #
transform $-1 1 0 0 0 1 0 0 0 1 58.192693868831448 24.366625497864565 11.568253819238267 1 rotate no_reflect no_shear #
lump $-1 $-1 $11 $2 #
transform $-1 1 0 0 0 1 0 0 0 1 58.192693868831448 24.366625497864565 11.568253819238267 1 rotate no_reflect no_shear #
shell $-1 $-1 $-1 $12 $-1 $3 #
shell $-1 $-1 $-1 $13 $-1 $5 #
shell $-1 $-1 $-1 $14 $-1 $7 #
face $-1 $15 $16 $9 $-1 $17 forward single #
face $-1 $18 $19 $10 $-1 $20 forward single #
face $-1 $21 $22 $11 $-1 $23 forward single #
face $-1 $24 $25 $9 $-1 $26 reversed single #
loop $-1 $-1 $27 $12 #
plane-surface $-1 0 0 11.568253819238267 0 0 1 1 0 0 forward_v I I I I #
face $-1 $28 $29 $10 $-1 $30 forward single #
loop $-1 $-1 $31 $13 #
plane-surface $-1 0 -24.366625497864565 0 0 1 0 0 0 1 forward_v I I I I #
face $-1 $32 $33 $11 $-1 $34 reversed single #
loop $-1 $-1 $35 $14 #
plane-surface $-1 0 17.091345834217289 -5.8573133171855281 0 0 1 1 0 0 forward_v I I I I #
face $-1 $36 $37 $9 $-1 $38 reversed single #
loop $-1 $-1 $39 $15 #
plane-surface $-1 0 0 -11.568253819238267 0 0 1 1 0 0 forward_v I I I I #
coedge $-1 $40 $41 $42 $43 forward $16 $-1 #
face $-1 $44 $45 $10 $-1 $46 reversed single #
loop $-1 $-1 $47 $18 #
plane-surface $-1 0 0 11.568253819238267 0 0 1 1 0 0 forward_v I I I I #
coedge $-1 $48 $49 $50 $51 forward $19 $-1 #
face $-1 $52 $53 $11 $-1 $54 reversed single #
loop $-1 $-1 $55 $21 #
plane-surface $-1 0 9.8160661705700107 -8.712783568211897 0 1 0 0 0 1 forward_v I I I I #
coedge $-1 $56 $57 $58 $59 reversed $22 $-1 #
face $-1 $60 $61 $9 $-1 $62 reversed single #
loop $-1 $-1 $63 $24 #
plane-surface $-1 0 -24.366625497864565 0 0 1 0 0 0 1 forward_v I I I I #
coedge $-1 $64 $65 $66 $67 forward $25 $-1 #
coedge $-1 $68 $27 $69 $70 forward $16 $-1 #
coedge $-1 $27 $68 $71 $72 forward $16 $-1 #
coedge $-1 $73 $74 $27 $43 reversed $75 $-1 #
edge $-1 $76 -24.366625497864565 $77 24.366625497864565 $42 $78 forward 7 unknown #
face $-1 $79 $80 $10 $-1 $81 reversed single #
loop $-1 $-1 $82 $28 #
plane-surface $-1 -58.192693868831448 0 0 1 0 0 0 0 -1 forward_v I I I I #
coedge $-1 $83 $84 $49 $85 forward $29 $-1 #
coedge $-1 $86 $31 $87 $88 reversed $19 $-1 #
coedge $-1 $31 $86 $47 $85 reversed $19 $-1 #
coedge $-1 $89 $90 $31 $51 reversed $91 $-1 #
edge $-1 $92 -11.568253819238267 $93 11.568253819238267 $50 $94 forward 7 unknown #
face $-1 $95 $96 $11 $-1 $97 reversed single #
loop $-1 $-1 $98 $32 #
plane-surface $-1 0 24.366625497864565 0 0 -1 0 0 0 -1 forward_v I I I I #
coedge $-1 $99 $100 $101 $102 reversed $33 $-1 #
coedge $-1 $103 $35 $98 $104 reversed $22 $-1 #
coedge $-1 $35 $103 $100 $105 forward $22 $-1 #
coedge $-1 $106 $107 $35 $59 forward $96 $-1 #
edge $-1 $108 -15.820952580755923 $109 -1.270393253461366 $58 $110 forward 7 unknown #
face $-1 $111 $112 $9 $-1 $113 reversed single #
loop $-1 $-1 $114 $36 #
plane-surface $-1 -58.192693868831448 0 0 1 0 0 0 0 -1 forward_v I I I I #
coedge $-1 $115 $71 $116 $117 forward $37 $-1 #
coedge $-1 $118 $39 $115 $119 forward $25 $-1 #
coedge $-1 $39 $118 $120 $121 forward $25 $-1 #
coedge $-1 $74 $73 $39 $67 reversed $75 $-1 #
edge $-1 $122 -24.366625497864565 $123 24.366625497864565 $66 $124 forward 7 unknown #
coedge $-1 $41 $40 $125 $126 forward $16 $-1 #
coedge $-1 $127 $128 $40 $70 reversed $112 $-1 #
edge $-1 $77 -58.192693868831448 $129 58.192693868831448 $69 $130 forward 7 unknown #
coedge $-1 $63 $131 $41 $72 reversed $37 $-1 #
edge $-1 $132 -58.192693868831448 $76 58.192693868831448 $71 $133 forward 7 unknown #
coedge $-1 $66 $42 $131 $134 forward $75 $-1 #
coedge $-1 $42 $66 $127 $135 reversed $75 $-1 #
loop $-1 $-1 $73 $111 #
vertex $-1 $43 $136 #
vertex $-1 $43 $137 #
straight-curve $-1 58.192693868831448 0 11.568253819238267 0 1 0 I I #
face $-1 $138 $91 $10 $-1 $139 reversed single #
loop $-1 $-1 $140 $44 #
plane-surface $-1 -56.07798444923688 -34.386766143408686 0 0 1 0 0 0 1 forward_v I I I I #
coedge $-1 $141 $142 $86 $143 forward $45 $-1 #
coedge $-1 $144 $47 $142 $145 forward $29 $-1 #
coedge $-1 $47 $144 $89 $146 forward $29 $-1 #
edge $-1 $92 53.963275029642311 $147 58.192693868831448 $47 $148 forward 7 unknown #
coedge $-1 $49 $48 $82 $143 reversed $19 $-1 #
coedge $-1 $149 $150 $48 $88 forward $151 $-1 #
edge $-1 $152 -58.192693868831448 $93 -53.963275029642311 $87 $153 forward 7 unknown #
coedge $-1 $154 $50 $84 $146 reversed $91 $-1 #
coedge $-1 $50 $154 $149 $155 reversed $91 $-1 #
loop $-1 $-1 $154 $79 #
vertex $-1 $85 $156 #
vertex $-1 $155 $157 #
straight-curve $-1 -53.963275029642311 -24.366625497864565 0 0 0 -1 I I #
face $-1 $158 $159 $11 $-1 $160 reversed single #
loop $-1 $-1 $58 $52 #
plane-surface $-1 58.192693868831448 0 0 -1 0 0 0 0 1 forward_v I I I I #
coedge $-1 $161 $162 $56 $104 forward $53 $-1 #
coedge $-1 $163 $55 $164 $165 reversed $33 $-1 #
coedge $-1 $55 $163 $57 $105 reversed $33 $-1 #
coedge $-1 $166 $167 $55 $102 forward $168 $-1 #
edge $-1 $169 -7.2118620351323166 $170 -1.5009215330795795 $101 $171 forward 7 unknown #
coedge $-1 $57 $56 $166 $172 reversed $22 $-1 #
edge $-1 $173 -58.192693868831448 $108 58.192693868831448 $98 $174 forward 7 unknown #
edge $-1 $170 -58.192693868831448 $109 58.192693868831448 $100 $175 forward 7 unknown #
coedge $-1 $176 $58 $163 $177 forward $96 $-1 #
coedge $-1 $58 $176 $161 $178 reversed $96 $-1 #
vertex $-1 $178 $179 #
vertex $-1 $59 $180 #
straight-curve $-1 58.192693868831448 8.5456729171086447 -5.8573133171855281 0 -1 0 I I #
face $-1 $-1 $75 $9 $-1 $181 reversed single #
loop $-1 $-1 $127 $60 #
plane-surface $-1 0 24.366625497864565 0 0 -1 0 0 0 -1 forward_v I I I I #
coedge $-1 $182 $125 $128 $183 forward $61 $-1 #
coedge $-1 $131 $63 $64 $119 reversed $37 $-1 #
coedge $-1 $125 $182 $63 $117 reversed $61 $-1 #
edge $-1 $132 -11.568253819238267 $184 11.568253819238267 $116 $185 forward 7 unknown #
coedge $-1 $65 $64 $182 $186 forward $25 $-1 #
edge $-1 $123 -58.192693868831448 $184 58.192693868831448 $115 $187 forward 7 unknown #
coedge $-1 $128 $127 $65 $121 reversed $112 $-1 #
edge $-1 $188 -58.192693868831448 $122 58.192693868831448 $120 $189 forward 7 unknown #
vertex $-1 $67 $190 #
vertex $-1 $134 $191 #
straight-curve $-1 58.192693868831448 0 -11.568253819238267 0 -1 0 I I #
coedge $-1 $114 $116 $68 $126 reversed $61 $-1 #
edge $-1 $129 -24.366625497864565 $132 24.366625497864565 $125 $192 forward 7 unknown #
coedge $-1 $120 $69 $74 $135 forward $112 $-1 #
coedge $-1 $69 $120 $114 $183 reversed $112 $-1 #
vertex $-1 $70 $193 #
straight-curve $-1 0 24.366625497864565 11.568253819238267 -1 0 0 I I #
coedge $-1 $71 $115 $73 $134 reversed $37 $-1 #
vertex $-1 $126 $194 #
straight-curve $-1 0 -24.366625497864565 11.568253819238267 1 0 0 I I #
edge $-1 $76 -11.568253819238267 $123 11.568253819238267 $73 $195 forward 7 unknown #
edge $-1 $77 -11.568253819238267 $122 11.568253819238267 $74 $196 forward 7 unknown #
point $-1 58.192693868831448 -24.366625497864565 11.568253819238267 #
point $-1 58.192693868831448 24.366625497864565 11.568253819238267 #
face $-1 $-1 $151 $10 $-1 $197 reversed single #
plane-surface $-1 -53.963275029642311 -29.376695820636623 0 -1 0 0 0 0 1 forward_v I I I I #
coedge $-1 $198 $199 $200 $201 forward $80 $-1 #
coedge $-1 $200 $82 $150 $202 reversed $45 $-1 #
coedge $-1 $82 $200 $83 $145 reversed $45 $-1 #
edge $-1 $147 -11.568253819238267 $152 11.568253819238267 $82 $203 forward 7 unknown #
coedge $-1 $84 $83 $199 $204 forward $29 $-1 #
edge $-1 $147 24.366625497864565 $205 34.386766143408686 $142 $206 forward 7 unknown #
edge $-1 $207 -5.0100703227720622 $92 5.0100703227720587 $89 $208 forward 7 unknown #
vertex $-1 $145 $209 #
straight-curve $-1 0 -24.366625497864565 11.568253819238267 -1 0 0 I I #
coedge $-1 $210 $87 $90 $155 forward $151 $-1 #
coedge $-1 $87 $210 $141 $202 forward $151 $-1 #
loop $-1 $-1 $87 $138 #
vertex $-1 $143 $211 #
straight-curve $-1 0 -24.366625497864565 -11.568253819238267 1 0 0 I I #
coedge $-1 $90 $89 $212 $213 forward $91 $-1 #
edge $-1 $93 -5.0100703227720587 $214 5.0100703227720622 $90 $215 forward 7 unknown #
point $-1 -53.963275029642311 -24.366625497864565 11.568253819238267 #
point $-1 -53.963275029642311 -24.366625497864565 -11.568253819238267 #
face $-1 $-1 $168 $11 $-1 $216 reversed single #
loop $-1 $-1 $164 $95 #
plane-surface $-1 0 0 -11.568253819238267 0 0 1 1 0 0 forward_v I I I I #
coedge $-1 $217 $98 $107 $178 forward $53 $-1 #
coedge $-1 $98 $217 $218 $219 reversed $53 $-1 #
coedge $-1 $100 $99 $106 $177 reversed $33 $-1 #
coedge $-1 $220 $221 $99 $165 forward $159 $-1 #
edge $-1 $222 -58.192693868831448 $169 58.192693868831448 $164 $223 forward 7 unknown #
coedge $-1 $218 $101 $103 $172 forward $168 $-1 #
coedge $-1 $101 $218 $220 $224 reversed $168 $-1 #
loop $-1 $-1 $166 $158 #
vertex $-1 $224 $225 #
vertex $-1 $172 $226 #
straight-curve $-1 -58.192693868831448 9.8160661705700107 -4.3563917841059485 0 0 1 I I #
edge $-1 $170 1.270393253461366 $173 15.820952580755923 $166 $227 forward 7 unknown #
vertex $-1 $219 $228 #
straight-curve $-1 0 24.366625497864565 -5.8573133171855281 1 0 0 I I #
straight-curve $-1 0 9.8160661705700107 -5.8573133171855281 1 0 0 I I #
coedge $-1 $107 $106 $221 $229 reversed $96 $-1 #
edge $-1 $109 1.5009215330795795 $222 7.2118620351323166 $106 $230 forward 7 unknown #
edge $-1 $108 5.8573133171855281 $231 11.568253819238267 $107 $232 forward 7 unknown #
point $-1 58.192693868831448 24.366625497864568 -5.8573133171855281 #
point $-1 58.192693868831448 9.8160661705700107 -5.8573133171855281 #
plane-surface $-1 58.192693868831448 0 0 -1 0 0 0 0 1 forward_v I I I I #
coedge $-1 $116 $114 $118 $186 reversed $61 $-1 #
edge $-1 $129 -11.568253819238267 $188 11.568253819238267 $128 $233 forward 7 unknown #
vertex $-1 $186 $234 #
straight-curve $-1 -58.192693868831448 -24.366625497864565 0 0 0 -1 I I #
edge $-1 $184 -24.366625497864565 $188 24.366625497864565 $182 $235 forward 7 unknown #
straight-curve $-1 0 -24.366625497864565 -11.568253819238267 -1 0 0 I I #
vertex $-1 $121 $236 #
straight-curve $-1 0 24.366625497864565 -11.568253819238267 1 0 0 I I #
point $-1 58.192693868831448 24.366625497864565 -11.568253819238267 #
point $-1 58.192693868831448 -24.366625497864565 -11.568253819238267 #
straight-curve $-1 -58.192693868831448 0 11.568253819238267 0 -1 0 I I #
point $-1 -58.192693868831448 24.366625497864565 11.568253819238267 #
point $-1 -58.192693868831448 -24.366625497864565 11.568253819238267 #
straight-curve $-1 58.192693868831448 -24.366625497864565 0 0 0 -1 I I #
straight-curve $-1 58.192693868831448 24.366625497864565 0 0 0 -1 I I #
plane-surface $-1 0 0 -11.568253819238267 0 0 1 1 0 0 forward_v I I I I #
coedge $-1 $212 $140 $210 $237 reversed $80 $-1 #
coedge $-1 $140 $212 $144 $204 reversed $80 $-1 #
coedge $-1 $142 $141 $140 $201 reversed $45 $-1 #
edge $-1 $205 -11.568253819238267 $238 11.568253819238267 $200 $239 forward 7 unknown #
edge $-1 $238 -34.386766143408686 $152 -24.366625497864565 $141 $240 forward 7 unknown #
straight-curve $-1 -58.192693868831448 -24.366625497864565 0 0 0 -1 I I #
edge $-1 $205 -2.1147094195945684 $207 2.1147094195945684 $199 $241 forward 7 unknown #
vertex $-1 $145 $242 #
straight-curve $-1 -58.192693868831448 0 11.568253819238267 0 -1 0 I I #
vertex $-1 $146 $243 #
straight-curve $-1 -53.963275029642311 -29.376695820636623 11.568253819238267 0 1 0 I I #
point $-1 -58.192693868831448 -24.366625497864565 11.568253819238267 #
coedge $-1 $150 $149 $198 $237 forward $151 $-1 #
point $-1 -58.192693868831448 -24.366625497864565 -11.568253819238267 #
coedge $-1 $199 $198 $154 $213 reversed $80 $-1 #
edge $-1 $207 -11.568253819238267 $214 11.568253819238267 $154 $244 forward 7 unknown #
vertex $-1 $213 $245 #
straight-curve $-1 -53.963275029642311 -29.376695820636623 -11.568253819238267 0 -1 0 I I #
plane-surface $-1 -58.192693868831448 0 0 1 0 0 0 0 -1 forward_v I I I I #
coedge $-1 $162 $161 $246 $247 reversed $53 $-1 #
coedge $-1 $167 $166 $162 $219 forward $168 $-1 #
edge $-1 $173 5.8573133171855281 $248 11.568253819238267 $162 $249 forward 7 unknown #
coedge $-1 $246 $164 $167 $224 forward $159 $-1 #
coedge $-1 $164 $246 $176 $229 forward $159 $-1 #
vertex $-1 $177 $250 #
straight-curve $-1 0 9.8160661705700107 -11.568253819238267 -1 0 0 I I #
edge $-1 $169 9.8160661705700107 $248 24.366625497864565 $167 $251 forward 7 unknown #
point $-1 -58.192693868831448 9.8160661705700107 -11.568253819238265 #
point $-1 -58.192693868831448 9.8160661705700107 -5.8573133171855281 #
straight-curve $-1 -58.192693868831448 8.5456729171086447 -5.8573133171855281 0 1 0 I I #
point $-1 -58.192693868831448 24.366625497864568 -5.8573133171855281 #
edge $-1 $231 -24.366625497864565 $222 -9.8160661705700107 $176 $252 forward 7 unknown #
straight-curve $-1 58.192693868831448 9.8160661705700107 -4.3563917841059485 0 0 -1 I I #
vertex $-1 $229 $253 #
straight-curve $-1 58.192693868831448 24.366625497864565 0 0 0 -1 I I #
straight-curve $-1 -58.192693868831448 24.366625497864565 0 0 0 -1 I I #
point $-1 -58.192693868831448 -24.366625497864565 -11.568253819238267 #
straight-curve $-1 -58.192693868831448 0 -11.568253819238267 0 1 0 I I #
point $-1 -58.192693868831448 24.366625497864565 -11.568253819238267 #
edge $-1 $214 -2.1147094195945684 $238 2.1147094195945684 $198 $254 forward 7 unknown #
vertex $-1 $202 $255 #
straight-curve $-1 -58.192693868831448 -34.386766143408686 0 0 0 -1 I I #
straight-curve $-1 -58.192693868831448 0 -11.568253819238267 0 1 0 I I #
straight-curve $-1 -56.07798444923688 -34.386766143408686 11.568253819238267 1 0 0 I I #
point $-1 -58.192693868831448 -34.386766143408686 11.568253819238267 #
point $-1 -53.963275029642311 -34.386766143408686 11.568253819238267 #
straight-curve $-1 -53.963275029642311 -34.386766143408686 0 0 0 -1 I I #
point $-1 -53.963275029642311 -34.386766143408686 -11.568253819238267 #
coedge $-1 $221 $220 $217 $247 forward $159 $-1 #
edge $-1 $248 -58.192693868831448 $231 58.192693868831448 $217 $256 forward 7 unknown #
vertex $-1 $247 $257 #
straight-curve $-1 -58.192693868831448 24.366625497864565 0 0 0 -1 I I #
point $-1 58.192693868831448 9.8160661705700107 -11.568253819238265 #
straight-curve $-1 -58.192693868831448 0 -11.568253819238267 0 1 0 I I #
straight-curve $-1 58.192693868831448 0 -11.568253819238267 0 -1 0 I I #
point $-1 58.192693868831448 24.366625497864565 -11.568253819238267 #
straight-curve $-1 -56.07798444923688 -34.386766143408686 -11.568253819238267 -1 0 0 I I #
point $-1 -58.192693868831448 -34.386766143408686 -11.568253819238267 #
straight-curve $-1 0 24.366625497864565 -11.568253819238267 1 0 0 I I #
point $-1 -58.192693868831448 24.366625497864565 -11.568253819238267 #
End-of-ACIS-data 