500 0 12 0           
7 Unknown 11 ACIS 5.0 NT 24 Fri Mar 26 02:10:02 1999 
-1 9.9999999999999995e-007 1e-010 
body $-1 $12 $-1 $13 #
body $-1 $14 $-1 $15 #
body $-1 $16 $-1 $17 #
body $-1 $18 $-1 $19 #
body $-1 $20 $-1 $21 #
body $-1 $22 $-1 $23 #
body $-1 $24 $-1 $25 #
body $-1 $26 $-1 $27 #
body $-1 $28 $-1 $29 #
body $-1 $30 $-1 $31 #
body $-1 $32 $-1 $33 #
body $-1 $34 $-1 $35 #
lump $-1 $-1 $36 $0 #
transform $-1 1 0 0 0 1 0 0 0 1 43.011566515091403 25.382560519598098 8.8768082449485917 1 rotate no_reflect no_shear #
lump $-1 $-1 $37 $1 #
transform $-1 1 0 0 0 1 0 0 0 1 43.011566515091403 25.382560519598098 8.8768082449485917 1 rotate no_reflect no_shear #
lump $-1 $-1 $38 $2 #
transform $-1 1 0 0 0 1 0 0 0 1 43.011566515091403 25.382560519598098 8.8768082449485917 1 rotate no_reflect no_shear #
lump $-1 $-1 $39 $3 #
transform $-1 1 0 0 0 1 0 0 0 1 43.011566515091403 25.382560519598098 8.8768082449485917 1 rotate no_reflect no_shear #
lump $-1 $-1 $40 $4 #
transform $-1 1 0 0 0 1 0 0 0 1 43.011566515091403 25.382560519598098 8.8768082449485917 1 rotate no_reflect no_shear #
lump $-1 $-1 $41 $5 #
transform $-1 1 0 0 0 1 0 0 0 1 43.011566515091403 25.382560519598098 8.8768082449485917 1 rotate no_reflect no_shear #
lump $-1 $-1 $42 $6 #
transform $-1 1 0 0 0 1 0 0 0 1 43.011566515091403 25.382560519598098 8.8768082449485917 1 rotate no_reflect no_shear #
lump $-1 $-1 $43 $7 #
transform $-1 1 0 0 0 1 0 0 0 1 43.011566515091403 25.382560519598098 8.8768082449485917 1 rotate no_reflect no_shear #
lump $-1 $-1 $44 $8 #
transform $-1 1 0 0 0 1 0 0 0 1 43.011566515091403 25.382560519598098 8.8768082449485917 1 rotate no_reflect no_shear #
lump $-1 $-1 $45 $9 #
transform $-1 1 0 0 0 1 0 0 0 1 43.011566515091403 25.382560519598098 8.8768082449485917 1 rotate no_reflect no_shear #
lump $-1 $-1 $46 $10 #
transform $-1 1 0 0 0 1 0 0 0 1 43.011566515091403 25.382560519598098 8.8768082449485917 1 rotate no_reflect no_shear #
lump $-1 $-1 $47 $11 #
transform $-1 1 0 0 0 1 0 0 0 1 43.011566515091403 25.382560519598098 8.8768082449485917 1 rotate no_reflect no_shear #
shell $-1 $-1 $-1 $48 $-1 $12 #
shell $-1 $-1 $-1 $49 $-1 $14 #
shell $-1 $-1 $-1 $50 $-1 $16 #
shell $-1 $-1 $-1 $51 $-1 $18 #
shell $-1 $-1 $-1 $52 $-1 $20 #
shell $-1 $-1 $-1 $53 $-1 $22 #
shell $-1 $-1 $-1 $54 $-1 $24 #
shell $-1 $-1 $-1 $55 $-1 $26 #
shell $-1 $-1 $-1 $56 $-1 $28 #
shell $-1 $-1 $-1 $57 $-1 $30 #
shell $-1 $-1 $-1 $58 $-1 $32 #
shell $-1 $-1 $-1 $59 $-1 $34 #
face $-1 $60 $61 $36 $-1 $62 forward single #
face $-1 $63 $64 $37 $-1 $65 reversed single #
face $-1 $66 $67 $38 $-1 $68 reversed single #
face $-1 $69 $70 $39 $-1 $71 forward single #
face $-1 $72 $73 $40 $-1 $74 forward single #
face $-1 $75 $76 $41 $-1 $77 forward single #
face $-1 $78 $79 $42 $-1 $80 reversed single #
face $-1 $81 $82 $43 $-1 $83 forward single #
face $-1 $84 $85 $44 $-1 $86 forward single #
face $-1 $87 $88 $45 $-1 $89 reversed single #
face $-1 $90 $91 $46 $-1 $92 forward single #
face $-1 $93 $94 $47 $-1 $95 forward single #
face $-1 $96 $97 $36 $-1 $98 reversed single #
loop $-1 $-1 $99 $48 #
plane-surface $-1 0 0 8.8768082449485917 0 0 1 1 0 0 forward_v I I I I #
face $-1 $100 $101 $37 $-1 $102 reversed single #
loop $-1 $-1 $103 $49 #
plane-surface $-1 -29.636199833630606 -22.361937117898016 0 1 0 0 0 0 -1 forward_v I I I I #
face $-1 $104 $105 $38 $-1 $106 reversed single #
loop $-1 $-1 $107 $50 #
plane-surface $-1 -115.96332138844993 10.496883661491765 48.020906665201949 0 1 0 -0.84804810408105047 0 0.52991925155115449 forward_v I I I I #
face $-1 $108 $109 $39 $-1 $110 forward single #
loop $-1 $111 $112 $51 #
cone-surface $-1 -39.939027853865291 13.05817186193028 4.9937891256571145 0.84804810408105047 0 -0.52991925155115449 0.52991925155115449 0 0.84804810408105047 1 I I 0 1 1 forward I I I I #
face $-1 $113 $114 $40 $-1 $115 forward single #
loop $-1 $116 $117 $52 #
cone-surface $-1 -39.939027853865291 16.900104162588061 4.9937891256571145 0.84804810408105047 0 -0.52991925155115449 0.52991925155115449 0 0.84804810408105047 1 I I 0 1 1 forward I I I I #
face $-1 $118 $119 $41 $-1 $120 forward single #
loop $-1 $121 $122 $53 #
cone-surface $-1 -39.939027853865291 20.742036463245842 4.9937891256571145 0.84804810408105047 0 -0.52991925155115449 0.52991925155115449 0 0.84804810408105047 1 I I 0 1 1 forward I I I I #
face $-1 $123 $124 $42 $-1 $125 reversed single #
loop $-1 $-1 $126 $54 #
plane-surface $-1 17.718053855238594 3.0206234017000835 120.79964611941782 0 -1 0 -0.54463904215088732 0 -0.83867056331134215 forward_v I I I I #
face $-1 $127 $128 $43 $-1 $129 forward single #
loop $-1 $130 $131 $55 #
cone-surface $-1 36.886909171771734 -3.3921952843308461 4.2953959218388968 -0.54463904215088732 0 -0.83867056331134215 0.83867056331134215 0 -0.54463904215088732 1 I I 0 1 1 forward I I I I #
face $-1 $132 $133 $44 $-1 $134 forward single #
loop $-1 $135 $136 $56 #
cone-surface $-1 36.886909171771734 0.4554959272877106 4.2953959218388968 -0.54463904215088732 0 -0.83867056331134215 0.83867056331134215 0 -0.54463904215088732 1 I I 0 1 1 forward I I I I #
face $-1 $137 $138 $45 $-1 $139 reversed single #
loop $-1 $-1 $140 $57 #
plane-surface $-1 17.718053855238594 11.998569562143386 120.79964611941782 0 -1 0 -0.54463904215088732 0 -0.83867056331134215 forward_v I I I I #
face $-1 $141 $142 $46 $-1 $143 forward single #
loop $-1 $144 $145 $58 #
cone-surface $-1 36.886909171771734 5.5857508761124528 4.2953959218388968 -0.54463904215088732 0 -0.83867056331134215 0.83867056331134215 0 -0.54463904215088732 1 I I 0 1 1 forward I I I I #
face $-1 $146 $147 $47 $-1 $148 forward single #
loop $-1 $149 $150 $59 #
cone-surface $-1 36.886909171771734 9.433442087731013 4.2953959218388968 -0.54463904215088732 0 -0.83867056331134215 0.83867056331134215 0 -0.54463904215088732 1 I I 0 1 1 forward I I I I #
face $-1 $151 $152 $36 $-1 $153 reversed single #
loop $-1 $-1 $154 $60 #
plane-surface $-1 0 0 -8.8768082449485917 0 0 1 1 0 0 forward_v I I I I #
coedge $-1 $155 $156 $157 $158 forward $61 $-1 #
face $-1 $159 $160 $37 $-1 $161 reversed single #
loop $-1 $-1 $162 $63 #
plane-surface $-1 -27.697074929412413 -19.341313716197934 0 0 -1 0 0 0 -1 forward_v I I I I #
coedge $-1 $163 $164 $165 $166 forward $64 $-1 #
face $-1 $167 $168 $38 $-1 $169 reversed single #
loop $-1 $-1 $170 $66 #
plane-surface $-1 -43.011566515091403 16.900104162588068 2.4355923937620787 -0.84804810408105047 0 0.52991925155115449 0.52991925155115449 0 0.84804810408105047 forward_v I I I I #
coedge $-1 $171 $172 $173 $174 reversed $67 $-1 #
face $-1 $-1 $175 $39 $-1 $176 forward single #
loop $-1 $177 $178 $69 #
cone-surface $-1 -38.454924260850376 13.05817186193028 4.0664183061833192 0.84804810408105047 0 -0.52991925155115449 0.26495962577557725 0 0.42402405204052523 1 I I -0.70710678118654746 0.70710678118654746 0.5 forward I I I I #
loop $-1 $-1 $179 $51 #
coedge $-1 $112 $112 $180 $181 reversed $70 $-1 #
face $-1 $-1 $182 $40 $-1 $183 forward single #
loop $-1 $184 $185 $72 #
cone-surface $-1 -38.454924260850376 16.900104162588061 4.0664183061833192 0.84804810408105047 0 -0.52991925155115449 0.26495962577557725 0 0.42402405204052523 1 I I -0.70710678118654746 0.70710678118654746 0.5 forward I I I I #
loop $-1 $-1 $186 $52 #
coedge $-1 $117 $117 $187 $188 reversed $73 $-1 #
face $-1 $-1 $189 $41 $-1 $190 forward single #
loop $-1 $191 $192 $75 #
cone-surface $-1 -38.454924260850376 20.742036463245842 4.0664183061833192 0.84804810408105047 0 -0.52991925155115449 0.26495962577557725 0 0.42402405204052523 1 I I -0.70710678118654746 0.70710678118654746 0.5 forward I I I I #
loop $-1 $-1 $193 $53 #
coedge $-1 $122 $122 $194 $195 reversed $76 $-1 #
face $-1 $196 $197 $42 $-1 $198 reversed single #
loop $-1 $-1 $199 $78 #
plane-surface $-1 -29.133502921138529 -1.4683496785215659 48.654576683187884 0.54463904215088732 0 0.83867056331134215 0.83867056331134215 0 -0.54463904215088732 forward_v I I I I #
coedge $-1 $200 $201 $202 $203 reversed $79 $-1 #
face $-1 $-1 $204 $43 $-1 $205 forward single #
loop $-1 $206 $207 $81 #
cone-surface $-1 35.936271617594187 -3.3921952843308461 2.8315424861424461 -0.54463904215088732 0 -0.83867056331134215 0.41933528165567108 0 -0.27231952107544366 1 I I -0.70710678118654746 0.70710678118654746 0.5 forward I I I I #
loop $-1 $-1 $208 $55 #
coedge $-1 $131 $131 $209 $210 reversed $82 $-1 #
face $-1 $-1 $211 $44 $-1 $212 forward single #
loop $-1 $213 $214 $84 #
cone-surface $-1 35.936271617594187 0.4554959272877106 2.8315424861424461 -0.54463904215088732 0 -0.83867056331134215 0.41933528165567108 0 -0.27231952107544366 1 I I -0.70710678118654746 0.70710678118654746 0.5 forward I I I I #
loop $-1 $-1 $215 $56 #
coedge $-1 $136 $136 $216 $217 reversed $85 $-1 #
face $-1 $218 $219 $45 $-1 $220 reversed single #
loop $-1 $-1 $221 $87 #
plane-surface $-1 -29.133502921138529 -1.4683496785215659 48.654576683187884 0.54463904215088732 0 0.83867056331134215 0.83867056331134215 0 -0.54463904215088732 forward_v I I I I #
coedge $-1 $222 $223 $224 $225 reversed $88 $-1 #
face $-1 $-1 $226 $46 $-1 $227 forward single #
loop $-1 $228 $229 $90 #
cone-surface $-1 35.936271617594187 5.5857508761124528 2.8315424861424461 -0.54463904215088732 0 -0.83867056331134215 0.41933528165567108 0 -0.27231952107544366 1 I I -0.70710678118654746 0.70710678118654746 0.5 forward I I I I #
loop $-1 $-1 $230 $58 #
coedge $-1 $145 $145 $231 $232 reversed $91 $-1 #
face $-1 $-1 $233 $47 $-1 $234 forward single #
loop $-1 $235 $236 $93 #
cone-surface $-1 35.936271617594187 9.433442087731013 2.8315424861424461 -0.54463904215088732 0 -0.83867056331134215 0.41933528165567108 0 -0.27231952107544366 1 I I -0.70710678118654746 0.70710678118654746 0.5 forward I I I I #
loop $-1 $-1 $237 $59 #
coedge $-1 $150 $150 $238 $239 reversed $94 $-1 #
face $-1 $240 $241 $36 $-1 $242 reversed single #
loop $-1 $-1 $243 $96 #
plane-surface $-1 0 -25.382560519598098 0 0 1 0 0 0 1 forward_v I I I I #
coedge $-1 $244 $245 $246 $247 forward $97 $-1 #
coedge $-1 $248 $99 $249 $250 forward $61 $-1 #
coedge $-1 $99 $248 $251 $252 forward $61 $-1 #
coedge $-1 $253 $254 $99 $158 reversed $255 $-1 #
edge $-1 $256 -25.382560519598098 $257 25.382560519598098 $157 $258 forward 7 unknown #
face $-1 $259 $260 $37 $-1 $261 forward single #
loop $-1 $-1 $262 $100 #
plane-surface $-1 -25.757950025194219 -22.361937117898016 0 -1 0 0 0 0 1 forward_v I I I I #
coedge $-1 $263 $264 $265 $266 forward $101 $-1 #
coedge $-1 $267 $103 $268 $269 reversed $64 $-1 #
coedge $-1 $103 $267 $270 $271 reversed $64 $-1 #
coedge $-1 $264 $263 $103 $166 reversed $101 $-1 #
edge $-1 $272 -8.8768082449485917 $273 8.8768082449485917 $165 $274 forward 7 unknown #
face $-1 $275 $276 $38 $-1 $277 reversed single #
loop $-1 $-1 $278 $104 #
plane-surface $-1 -115.96332138844993 23.303324663684371 48.020906665201949 0 -1 0 0.84804810408105047 0 -0.52991925155115449 forward_v I I I I #
coedge $-1 $279 $280 $281 $282 reversed $105 $-1 #
coedge $-1 $172 $107 $283 $284 reversed $67 $-1 #
coedge $-1 $107 $171 $279 $285 reversed $67 $-1 #
coedge $-1 $281 $286 $107 $174 forward $287 $-1 #
edge $-1 $288 14.970094179133561 $289 18.995012419637014 $173 $290 forward 7 unknown #
loop $-1 $-1 $180 $108 #
plane-surface $-1 -43.011566515091403 16.900104162588068 2.4355923937620787 -0.84804810408105047 0 0.52991925155115449 0.52991925155115449 0 0.84804810408105047 forward_v I I I I #
loop $-1 $-1 $291 $69 #
coedge $-1 $178 $178 $179 $292 reversed $109 $-1 #
coedge $-1 $179 $179 $178 $292 forward $111 $-1 #
coedge $-1 $180 $180 $112 $181 forward $175 $-1 #
edge $-1 $293 0 $293 6.2831853071796004 $180 $294 forward 7 unknown #
loop $-1 $-1 $187 $113 #
plane-surface $-1 -43.011566515091403 16.900104162588068 2.4355923937620787 -0.84804810408105047 0 0.52991925155115449 0.52991925155115449 0 0.84804810408105047 forward_v I I I I #
loop $-1 $-1 $295 $72 #
coedge $-1 $185 $185 $186 $296 reversed $114 $-1 #
coedge $-1 $186 $186 $185 $296 forward $116 $-1 #
coedge $-1 $187 $187 $117 $188 forward $182 $-1 #
edge $-1 $297 0 $297 6.2831853071796004 $187 $298 forward 7 unknown #
loop $-1 $-1 $194 $118 #
plane-surface $-1 -43.011566515091403 16.900104162588068 2.4355923937620787 -0.84804810408105047 0 0.52991925155115449 0.52991925155115449 0 0.84804810408105047 forward_v I I I I #
loop $-1 $-1 $299 $75 #
coedge $-1 $192 $192 $193 $300 reversed $119 $-1 #
coedge $-1 $193 $193 $192 $300 forward $121 $-1 #
coedge $-1 $194 $194 $122 $195 forward $189 $-1 #
edge $-1 $301 0 $301 6.2831853071796004 $194 $302 forward 7 unknown #
face $-1 $303 $304 $42 $-1 $305 forward single #
loop $-1 $-1 $306 $123 #
plane-surface $-1 17.718053855238594 -5.9573227587432154 120.79964611941782 0 1 0 0.54463904215088732 0 0.83867056331134215 forward_v I I I I #
coedge $-1 $307 $308 $309 $310 reversed $124 $-1 #
coedge $-1 $201 $126 $311 $312 reversed $79 $-1 #
coedge $-1 $126 $200 $307 $313 reversed $79 $-1 #
coedge $-1 $309 $314 $126 $203 forward $304 $-1 #
edge $-1 $315 -34.152539587472106 $316 -23.259860967036943 $202 $317 forward 7 unknown #
loop $-1 $-1 $209 $127 #
plane-surface $-1 -29.133502921138529 -1.4683496785215659 48.654576683187884 0.54463904215088732 0 0.83867056331134215 0.83867056331134215 0 -0.54463904215088732 forward_v I I I I #
loop $-1 $-1 $318 $81 #
coedge $-1 $207 $207 $208 $319 reversed $128 $-1 #
coedge $-1 $208 $208 $207 $319 forward $130 $-1 #
coedge $-1 $209 $209 $131 $210 forward $204 $-1 #
edge $-1 $320 0 $320 6.2831853071796004 $209 $321 forward 7 unknown #
loop $-1 $-1 $216 $132 #
plane-surface $-1 -29.133502921138529 -1.4683496785215659 48.654576683187884 0.54463904215088732 0 0.83867056331134215 0.83867056331134215 0 -0.54463904215088732 forward_v I I I I #
loop $-1 $-1 $322 $84 #
coedge $-1 $214 $214 $215 $323 reversed $133 $-1 #
coedge $-1 $215 $215 $214 $323 forward $135 $-1 #
coedge $-1 $216 $216 $136 $217 forward $211 $-1 #
edge $-1 $324 0 $324 6.2831853071796004 $216 $325 forward 7 unknown #
face $-1 $326 $327 $45 $-1 $328 forward single #
loop $-1 $-1 $329 $137 #
plane-surface $-1 43.011566515091403 0 0 -1 0 0 0 0 1 forward_v I I I I #
coedge $-1 $330 $331 $332 $333 reversed $138 $-1 #
coedge $-1 $223 $140 $334 $335 reversed $88 $-1 #
coedge $-1 $140 $222 $336 $337 reversed $88 $-1 #
coedge $-1 $338 $329 $140 $225 forward $219 $-1 #
edge $-1 $339 -58.596803152898147 $340 -51.523014814760316 $224 $341 forward 7 unknown #
loop $-1 $-1 $231 $141 #
plane-surface $-1 -29.133502921138529 -1.4683496785215659 48.654576683187884 0.54463904215088732 0 0.83867056331134215 0.83867056331134215 0 -0.54463904215088732 forward_v I I I I #
loop $-1 $-1 $342 $90 #
coedge $-1 $229 $229 $230 $343 reversed $142 $-1 #
coedge $-1 $230 $230 $229 $343 forward $144 $-1 #
coedge $-1 $231 $231 $145 $232 forward $226 $-1 #
edge $-1 $344 0 $344 6.2831853071796004 $231 $345 forward 7 unknown #
loop $-1 $-1 $238 $146 #
plane-surface $-1 -29.133502921138529 -1.4683496785215659 48.654576683187884 0.54463904215088732 0 0.83867056331134215 0.83867056331134215 0 -0.54463904215088732 forward_v I I I I #
loop $-1 $-1 $346 $93 #
coedge $-1 $236 $236 $237 $347 reversed $147 $-1 #
coedge $-1 $237 $237 $236 $347 forward $149 $-1 #
coedge $-1 $238 $238 $150 $239 forward $233 $-1 #
edge $-1 $348 0 $348 6.2831853071796004 $238 $349 forward 7 unknown #
face $-1 $350 $351 $36 $-1 $352 reversed single #
loop $-1 $-1 $353 $151 #
plane-surface $-1 -43.011566515091403 0 0 1 0 0 0 0 -1 forward_v I I I I #
coedge $-1 $354 $251 $355 $356 forward $152 $-1 #
coedge $-1 $357 $154 $354 $358 forward $97 $-1 #
coedge $-1 $154 $357 $359 $360 forward $97 $-1 #
coedge $-1 $254 $253 $154 $247 reversed $255 $-1 #
edge $-1 $361 -25.382560519598098 $362 25.382560519598098 $246 $363 forward 7 unknown #
coedge $-1 $156 $155 $364 $365 forward $61 $-1 #
coedge $-1 $366 $367 $155 $250 reversed $351 $-1 #
edge $-1 $257 -43.011566515091403 $368 43.011566515091403 $249 $369 forward 7 unknown #
coedge $-1 $243 $370 $156 $252 reversed $152 $-1 #
edge $-1 $371 -43.011566515091403 $256 43.011566515091403 $251 $372 forward 7 unknown #
coedge $-1 $246 $157 $370 $373 forward $255 $-1 #
coedge $-1 $157 $246 $366 $374 reversed $255 $-1 #
loop $-1 $-1 $253 $350 #
vertex $-1 $158 $375 #
vertex $-1 $158 $376 #
straight-curve $-1 43.011566515091403 0 8.8768082449485917 0 1 0 I I #
face $-1 $377 $378 $37 $-1 $379 reversed single #
loop $-1 $-1 $380 $159 #
plane-surface $-1 0 0 8.8768082449485917 0 0 1 1 0 0 forward_v I I I I #
coedge $-1 $381 $382 $383 $384 reversed $160 $-1 #
coedge $-1 $165 $162 $385 $386 reversed $101 $-1 #
coedge $-1 $162 $165 $387 $388 reversed $101 $-1 #
coedge $-1 $382 $381 $162 $266 reversed $160 $-1 #
edge $-1 $389 -8.8768082449485917 $390 8.8768082449485917 $265 $391 forward 7 unknown #
coedge $-1 $164 $163 $392 $393 reversed $64 $-1 #
coedge $-1 $385 $394 $163 $269 forward $378 $-1 #
edge $-1 $395 -14.20159196064909 $273 -8.1603451572489263 $268 $396 forward 7 unknown #
coedge $-1 $397 $387 $164 $271 forward $260 $-1 #
edge $-1 $272 8.1603451572489263 $398 14.20159196064909 $270 $399 forward 7 unknown #
vertex $-1 $271 $400 #
vertex $-1 $269 $401 #
straight-curve $-1 -29.636199833630606 -19.341313716197934 0 0 0 -1 I I #
face $-1 $-1 $287 $38 $-1 $402 forward single #
loop $-1 $-1 $403 $167 #
plane-surface $-1 -43.011566515091403 0 0 1 0 0 0 0 -1 forward_v I I I I #
coedge $-1 $404 $405 $406 $407 reversed $168 $-1 #
coedge $-1 $408 $170 $172 $285 forward $105 $-1 #
coedge $-1 $170 $408 $404 $409 forward $105 $-1 #
coedge $-1 $406 $173 $170 $282 forward $287 $-1 #
edge $-1 $289 2.0468315801977308 $410 14.853272582390337 $281 $411 forward 7 unknown #
coedge $-1 $412 $413 $171 $284 forward $276 $-1 #
edge $-1 $414 -21.574860938838896 $288 -15.133645087652383 $283 $415 forward 7 unknown #
edge $-1 $289 -7.5953425521377111 $414 0 $172 $416 forward 7 unknown #
coedge $-1 $173 $406 $412 $417 forward $287 $-1 #
loop $-1 $-1 $406 $275 #
vertex $-1 $284 $418 #
vertex $-1 $174 $419 #
straight-curve $-1 -57.981660694224963 10.496883661491765 8.8768082449485917 1 0 0 I I #
coedge $-1 $291 $291 $-1 $420 reversed $177 $-1 #
edge $-1 $421 0 $421 6.2831853071796004 $178 $422 forward 7 unknown #
vertex $-1 $181 $423 #
ellipse-curve $-1 -40.999107394839676 13.05817186193028 5.6562003193553325 -0.84804810408105047 0 0.52991925155115449 0.52991925155115449 0 0.84804810408105047 1 I I #
coedge $-1 $295 $295 $-1 $424 reversed $184 $-1 #
edge $-1 $425 0 $425 6.2831853071796004 $185 $426 forward 7 unknown #
vertex $-1 $188 $427 #
ellipse-curve $-1 -40.999107394839676 16.900104162588061 5.6562003193553325 -0.84804810408105047 0 0.52991925155115449 0.52991925155115449 0 0.84804810408105047 1 I I #
coedge $-1 $299 $299 $-1 $428 reversed $191 $-1 #
edge $-1 $429 0 $429 6.2831853071796004 $192 $430 forward 7 unknown #
vertex $-1 $195 $431 #
ellipse-curve $-1 -40.999107394839676 20.742036463245842 5.6562003193553325 -0.84804810408105047 0 0.52991925155115449 0.52991925155115449 0 0.84804810408105047 1 I I #
face $-1 $-1 $432 $42 $-1 $433 reversed single #
loop $-1 $-1 $202 $196 #
plane-surface $-1 0 0 8.8768082449485917 0 0 1 1 0 0 forward_v I I I I #
coedge $-1 $434 $435 $436 $437 reversed $197 $-1 #
coedge $-1 $438 $199 $201 $313 forward $124 $-1 #
coedge $-1 $199 $438 $434 $439 forward $124 $-1 #
coedge $-1 $436 $202 $199 $310 forward $304 $-1 #
edge $-1 $316 -3.7547982409608665 $440 5.2231479194824324 $309 $441 forward 7 unknown #
coedge $-1 $442 $443 $200 $312 forward $432 $-1 #
edge $-1 $444 -58.596803152898147 $315 -51.523014814760316 $311 $445 forward 7 unknown #
edge $-1 $316 73.035102810751525 $444 86.023133030182805 $201 $446 forward 7 unknown #
coedge $-1 $202 $436 $442 $447 forward $304 $-1 #
vertex $-1 $312 $448 #
vertex $-1 $203 $449 #
straight-curve $-1 8.859026927619297 3.0206234017000835 8.8768082449485917 -1 0 0 I I #
coedge $-1 $318 $318 $-1 $450 reversed $206 $-1 #
edge $-1 $451 0 $451 6.2831853071796004 $207 $452 forward 7 unknown #
vertex $-1 $210 $453 #
ellipse-curve $-1 37.565227204873835 -3.3921952843308461 5.3399140758796761 0.54463904215088732 0 0.83867056331134215 0.83867056331134215 0 -0.54463904215088732 1 I I #
coedge $-1 $322 $322 $-1 $454 reversed $213 $-1 #
edge $-1 $455 0 $455 6.2831853071796004 $214 $456 forward 7 unknown #
vertex $-1 $217 $457 #
ellipse-curve $-1 37.565227204873835 0.4554959272877106 5.3399140758796761 0.54463904215088732 0 0.83867056331134215 0.83867056331134215 0 -0.54463904215088732 1 I I #
face $-1 $-1 $458 $45 $-1 $459 forward single #
loop $-1 $-1 $460 $218 #
plane-surface $-1 17.718053855238594 3.0206234017000835 120.79964611941782 0 -1 0 -0.54463904215088732 0 -0.83867056331134215 forward_v I I I I #
coedge $-1 $224 $461 $331 $462 forward $219 $-1 #
coedge $-1 $334 $221 $463 $464 reversed $138 $-1 #
coedge $-1 $221 $334 $329 $462 reversed $138 $-1 #
coedge $-1 $465 $460 $221 $333 forward $327 $-1 #
edge $-1 $466 73.035102810751525 $467 86.023133030182805 $332 $468 forward 7 unknown #
coedge $-1 $331 $330 $222 $335 forward $138 $-1 #
edge $-1 $469 73.035102810751525 $339 86.023133030182805 $222 $470 forward 7 unknown #
coedge $-1 $463 $471 $223 $337 forward $458 $-1 #
edge $-1 $340 -34.152539587472106 $469 -23.259860967036943 $336 $472 forward 7 unknown #
coedge $-1 $461 $224 $471 $473 reversed $219 $-1 #
vertex $-1 $225 $474 #
vertex $-1 $225 $475 #
straight-curve $-1 43.011566515091403 11.998569562143386 60.399823059708908 0 0 1 I I #
coedge $-1 $342 $342 $-1 $476 reversed $228 $-1 #
edge $-1 $477 0 $477 6.2831853071796004 $229 $478 forward 7 unknown #
vertex $-1 $232 $479 #
ellipse-curve $-1 37.565227204873835 5.5857508761124528 5.3399140758796761 0.54463904215088732 0 0.83867056331134215 0.83867056331134215 0 -0.54463904215088732 1 I I #
coedge $-1 $346 $346 $-1 $480 reversed $235 $-1 #
edge $-1 $481 0 $481 6.2831853071796004 $236 $482 forward 7 unknown #
vertex $-1 $239 $483 #
ellipse-curve $-1 37.565227204873835 9.433442087731013 5.3399140758796761 0.54463904215088732 0 0.83867056331134215 0.83867056331134215 0 -0.54463904215088732 1 I I #
face $-1 $-1 $255 $36 $-1 $484 reversed single #
loop $-1 $-1 $366 $240 #
plane-surface $-1 0 25.382560519598098 0 0 -1 0 0 0 -1 forward_v I I I I #
coedge $-1 $485 $364 $367 $486 forward $241 $-1 #
coedge $-1 $370 $243 $244 $358 reversed $152 $-1 #
coedge $-1 $364 $485 $243 $356 reversed $241 $-1 #
edge $-1 $371 -8.8768082449485917 $487 8.8768082449485917 $355 $488 forward 7 unknown #
coedge $-1 $245 $244 $485 $489 forward $97 $-1 #
edge $-1 $362 -43.011566515091403 $487 43.011566515091403 $354 $490 forward 7 unknown #
coedge $-1 $367 $366 $245 $360 reversed $351 $-1 #
edge $-1 $491 -43.011566515091403 $361 43.011566515091403 $359 $492 forward 7 unknown #
vertex $-1 $247 $493 #
vertex $-1 $373 $494 #
straight-curve $-1 43.011566515091403 0 -8.8768082449485917 0 -1 0 I I #
coedge $-1 $353 $355 $248 $365 reversed $241 $-1 #
edge $-1 $368 -25.382560519598098 $371 25.382560519598098 $364 $495 forward 7 unknown #
coedge $-1 $359 $249 $254 $374 forward $351 $-1 #
coedge $-1 $249 $359 $353 $486 reversed $351 $-1 #
vertex $-1 $250 $496 #
straight-curve $-1 0 25.382560519598098 8.8768082449485917 -1 0 0 I I #
coedge $-1 $251 $354 $253 $373 reversed $152 $-1 #
vertex $-1 $365 $497 #
straight-curve $-1 0 -25.382560519598098 8.8768082449485917 1 0 0 I I #
edge $-1 $256 -8.8768082449485917 $362 8.8768082449485917 $253 $498 forward 7 unknown #
edge $-1 $257 -8.8768082449485917 $361 8.8768082449485917 $254 $499 forward 7 unknown #
point $-1 43.011566515091403 -25.382560519598098 8.8768082449485917 #
point $-1 43.011566515091403 25.382560519598098 8.8768082449485917 #
face $-1 $-1 $500 $37 $-1 $501 reversed single #
loop $-1 $-1 $502 $259 #
plane-surface $-1 0 0 -8.8768082449485917 0 0 1 1 0 0 forward_v I I I I #
coedge $-1 $387 $397 $382 $503 forward $260 $-1 #
coedge $-1 $265 $262 $502 $504 reversed $160 $-1 #
coedge $-1 $262 $265 $380 $503 reversed $160 $-1 #
coedge $-1 $505 $506 $262 $384 forward $500 $-1 #
edge $-1 $507 -8.8768082449485917 $508 8.8768082449485917 $383 $509 forward 7 unknown #
coedge $-1 $502 $268 $263 $386 forward $378 $-1 #
edge $-1 $273 -15.7876623689244 $390 -11.909412560488013 $385 $510 forward 7 unknown #
coedge $-1 $270 $380 $264 $388 forward $260 $-1 #
edge $-1 $389 11.909412560488013 $272 15.7876623689244 $387 $511 forward 7 unknown #
vertex $-1 $388 $512 #
vertex $-1 $386 $513 #
straight-curve $-1 -25.757950025194219 -19.341313716197934 0 0 0 -1 I I #
coedge $-1 $506 $505 $267 $393 forward $500 $-1 #
edge $-1 $398 -8.8768082449485917 $395 8.8768082449485917 $392 $514 forward 7 unknown #
coedge $-1 $268 $502 $506 $515 forward $378 $-1 #
vertex $-1 $269 $516 #
straight-curve $-1 -29.636199833630606 -11.180968558949008 -8.8768082449485917 0 1 0 I I #
coedge $-1 $380 $270 $505 $517 forward $260 $-1 #
vertex $-1 $517 $518 #
straight-curve $-1 -29.636199833630606 -11.180968558949008 8.8768082449485917 0 -1 0 I I #
point $-1 -29.636199833630606 -19.341313716197934 8.8768082449485917 #
point $-1 -29.636199833630606 -19.341313716197934 -8.8768082449485917 #
plane-surface $-1 0 0 8.8768082449485917 0 0 1 1 0 0 forward_v I I I I #
coedge $-1 $413 $412 $405 $519 forward $276 $-1 #
coedge $-1 $405 $278 $280 $409 reversed $168 $-1 #
coedge $-1 $278 $404 $403 $519 reversed $168 $-1 #
coedge $-1 $286 $281 $278 $407 forward $287 $-1 #
edge $-1 $410 -18.995012419637014 $520 -14.970094179133561 $406 $521 forward 7 unknown #
coedge $-1 $280 $279 $413 $522 reversed $105 $-1 #
edge $-1 $523 0 $410 7.5953425521377111 $404 $524 forward 7 unknown #
vertex $-1 $282 $525 #
straight-curve $-1 -38.986648274587957 8.4500520812940341 8.8768082449485917 0 1 0 I I #
coedge $-1 $403 $283 $286 $417 reversed $276 $-1 #
coedge $-1 $283 $403 $408 $522 forward $276 $-1 #
vertex $-1 $284 $526 #
straight-curve $-1 -43.011566515091403 10.496883661491765 24.010453332600974 0 0 1 I I #
straight-curve $-1 -43.011566515091403 10.496883661491765 2.4355923937620787 -0.52991925155115449 0 -0.84804810408105047 I I #
edge $-1 $520 -23.303324663684371 $288 -10.496883661491765 $412 $527 forward 7 unknown #
point $-1 -43.011566515091403 10.496883661491765 8.8768082449485917 #
point $-1 -38.986648274587949 10.496883661491765 8.8768082449485917 #
edge $-1 $528 1 $528 0 $291 $-1 forward 7 unknown #
vertex $-1 $292 $529 #
ellipse-curve $-1 -38.878948312890898 13.05817186193028 4.3313779319588965 -0.84804810408105047 0 0.52991925155115449 0.52991925155115449 0 0.84804810408105047 1 I I #
point $-1 -40.469188143288527 13.05817186193028 6.5042484234363833 #
edge $-1 $530 1 $530 0 $295 $-1 forward 7 unknown #
vertex $-1 $296 $531 #
ellipse-curve $-1 -38.878948312890898 16.900104162588061 4.3313779319588965 -0.84804810408105047 0 0.52991925155115449 0.52991925155115449 0 0.84804810408105047 1 I I #
point $-1 -40.469188143288527 16.900104162588061 6.5042484234363833 #
edge $-1 $532 1 $532 0 $299 $-1 forward 7 unknown #
vertex $-1 $300 $533 #
ellipse-curve $-1 -38.878948312890898 20.742036463245842 4.3313779319588965 -0.84804810408105047 0 0.52991925155115449 0.52991925155115449 0 0.84804810408105047 1 I I #
point $-1 -40.469188143288527 20.742036463245842 6.5042484234363833 #
loop $-1 $-1 $311 $303 #
plane-surface $-1 43.011566515091403 0 0 -1 0 0 0 0 1 forward_v I I I I #
coedge $-1 $435 $306 $308 $439 reversed $197 $-1 #
coedge $-1 $306 $434 $534 $535 reversed $197 $-1 #
coedge $-1 $314 $309 $306 $437 forward $304 $-1 #
edge $-1 $440 23.259860967036943 $536 34.152539587472106 $436 $537 forward 7 unknown #
coedge $-1 $308 $307 $443 $538 reversed $124 $-1 #
edge $-1 $539 -86.023133030182805 $440 -73.035102810751525 $434 $540 forward 7 unknown #
vertex $-1 $310 $541 #
straight-curve $-1 32.118887894656247 -0.73417483926078297 8.8768082449485917 0 -1 0 I I #
coedge $-1 $534 $311 $314 $447 reversed $432 $-1 #
coedge $-1 $311 $534 $438 $538 forward $432 $-1 #
vertex $-1 $312 $542 #
straight-curve $-1 43.011566515091403 3.0206234017000835 60.399823059708908 0 0 1 I I #
straight-curve $-1 -29.133502921138529 3.0206234017000835 48.654576683187884 0.83867056331134215 0 -0.54463904215088732 I I #
edge $-1 $536 -5.9573227587432154 $315 3.0206234017000835 $442 $543 forward 7 unknown #
point $-1 43.011566515091403 3.0206234017000835 8.8768082449485917 #
point $-1 32.11888789465624 3.0206234017000835 8.8768082449485917 #
edge $-1 $544 1 $544 0 $318 $-1 forward 7 unknown #
vertex $-1 $319 $545 #
ellipse-curve $-1 36.208591138669632 -3.3921952843308461 3.2508777677981171 0.54463904215088732 0 0.83867056331134215 0.83867056331134215 0 -0.54463904215088732 1 I I #
point $-1 38.403897768185182 -3.3921952843308461 4.7952750337287888 #
edge $-1 $546 1 $546 0 $322 $-1 forward 7 unknown #
vertex $-1 $323 $547 #
ellipse-curve $-1 36.208591138669632 0.4554959272877106 3.2508777677981171 0.54463904215088732 0 0.83867056331134215 0.83867056331134215 0 -0.54463904215088732 1 I I #
point $-1 38.403897768185182 0.4554959272877106 4.7952750337287888 #
loop $-1 $-1 $463 $326 #
plane-surface $-1 0 0 8.8768082449485917 0 0 1 1 0 0 forward_v I I I I #
coedge $-1 $332 $465 $548 $549 reversed $327 $-1 #
coedge $-1 $329 $338 $465 $550 forward $219 $-1 #
edge $-1 $467 3.7547982409608665 $339 12.732744401404169 $329 $551 forward 7 unknown #
coedge $-1 $548 $336 $330 $464 forward $458 $-1 #
edge $-1 $469 -12.732744401404169 $466 -3.7547982409608665 $463 $552 forward 7 unknown #
coedge $-1 $460 $332 $461 $550 reversed $327 $-1 #
vertex $-1 $464 $553 #
vertex $-1 $462 $554 #
straight-curve $-1 -29.133502921138529 3.0206234017000835 48.654576683187884 0.83867056331134215 0 -0.54463904215088732 I I #
vertex $-1 $337 $555 #
straight-curve $-1 -29.133502921138529 11.998569562143386 48.654576683187884 0.83867056331134215 0 -0.54463904215088732 I I #
coedge $-1 $336 $548 $338 $473 forward $458 $-1 #
straight-curve $-1 8.859026927619297 11.998569562143386 8.8768082449485917 -1 0 0 I I #
edge $-1 $556 3.0206234017000835 $340 11.998569562143386 $338 $557 forward 7 unknown #
point $-1 43.011566515091403 11.998569562143386 1.8030199068107606 #
point $-1 43.011566515091403 11.998569562143386 8.8768082449485917 #
edge $-1 $558 1 $558 0 $342 $-1 forward 7 unknown #
vertex $-1 $343 $559 #
ellipse-curve $-1 36.208591138669632 5.5857508761124528 3.2508777677981171 0.54463904215088732 0 0.83867056331134215 0.83867056331134215 0 -0.54463904215088732 1 I I #
point $-1 38.403897768185182 5.5857508761124528 4.7952750337287888 #
edge $-1 $560 1 $560 0 $346 $-1 forward 7 unknown #
vertex $-1 $347 $561 #
ellipse-curve $-1 36.208591138669632 9.433442087731013 3.2508777677981171 0.54463904215088732 0 0.83867056331134215 0.83867056331134215 0 -0.54463904215088732 1 I I #
point $-1 38.403897768185182 9.433442087731013 4.7952750337287888 #
plane-surface $-1 43.011566515091403 0 0 -1 0 0 0 0 1 forward_v I I I I #
coedge $-1 $355 $353 $357 $489 reversed $241 $-1 #
edge $-1 $368 -8.8768082449485917 $491 8.8768082449485917 $367 $562 forward 7 unknown #
vertex $-1 $489 $563 #
straight-curve $-1 -43.011566515091403 -25.382560519598098 0 0 0 -1 I I #
edge $-1 $487 -25.382560519598098 $491 25.382560519598098 $485 $564 forward 7 unknown #
straight-curve $-1 0 -25.382560519598098 -8.8768082449485917 -1 0 0 I I #
vertex $-1 $360 $565 #
straight-curve $-1 0 25.382560519598098 -8.8768082449485917 1 0 0 I I #
point $-1 43.011566515091403 25.382560519598098 -8.8768082449485917 #
point $-1 43.011566515091403 -25.382560519598098 -8.8768082449485917 #
straight-curve $-1 -43.011566515091403 0 8.8768082449485917 0 -1 0 I I #
point $-1 -43.011566515091403 25.382560519598098 8.8768082449485917 #
point $-1 -43.011566515091403 -25.382560519598098 8.8768082449485917 #
straight-curve $-1 43.011566515091403 -25.382560519598098 0 0 0 -1 I I #
straight-curve $-1 43.011566515091403 25.382560519598098 0 0 0 -1 I I #
loop $-1 $-1 $383 $377 #
plane-surface $-1 0 -25.382560519598098 0 0 1 0 0 0 1 forward_v I I I I #
coedge $-1 $394 $385 $381 $504 forward $378 $-1 #
edge $-1 $508 -14.20159196064909 $389 -8.1603451572489263 $380 $566 forward 7 unknown #
edge $-1 $390 8.1603451572489263 $507 14.20159196064909 $502 $567 forward 7 unknown #
coedge $-1 $392 $383 $397 $517 reversed $500 $-1 #
coedge $-1 $383 $392 $394 $515 reversed $500 $-1 #
vertex $-1 $515 $568 #
vertex $-1 $384 $569 #
straight-curve $-1 -25.757950025194219 -25.382560519598098 0 0 0 1 I I #
straight-curve $-1 -13.848537464706206 -19.341313716197934 -8.8768082449485917 1 0 0 I I #
straight-curve $-1 -13.848537464706206 -19.341313716197934 8.8768082449485917 -1 0 0 I I #
point $-1 -25.757950025194219 -19.341313716197934 8.8768082449485917 #
point $-1 -25.757950025194219 -19.341313716197934 -8.8768082449485917 #
straight-curve $-1 -29.636199833630606 -25.382560519598098 0 0 0 -1 I I #
edge $-1 $507 25.757950025194219 $395 29.636199833630606 $506 $570 forward 7 unknown #
point $-1 -29.636199833630606 -25.382560519598098 -8.8768082449485917 #
edge $-1 $398 -29.636199833630606 $508 -25.757950025194219 $505 $571 forward 7 unknown #
point $-1 -29.636199833630606 -25.382560519598098 8.8768082449485917 #
edge $-1 $520 15.133645087652383 $523 21.574860938838896 $403 $572 forward 7 unknown #
vertex $-1 $417 $573 #
straight-curve $-1 -57.981660694224963 23.303324663684371 8.8768082449485917 -1 0 0 I I #
edge $-1 $523 -14.853272582390337 $414 -2.0468315801977308 $413 $574 forward 7 unknown #
vertex $-1 $522 $575 #
straight-curve $-1 -43.011566515091403 23.303324663684371 2.4355923937620787 0.52991925155115449 0 0.84804810408105047 I I #
point $-1 -38.986648274587949 23.303324663684371 8.8768082449485917 #
point $-1 -43.011566515091403 10.496883661491765 2.4355923937620787 #
straight-curve $-1 -43.011566515091403 0 8.8768082449485917 0 -1 0 I I #
vertex $-1 $420 $576 #
point $-1 -38.349029061339749 13.05817186193028 5.1794260360399473 #
vertex $-1 $424 $577 #
point $-1 -38.349029061339749 16.900104162588061 5.1794260360399473 #
vertex $-1 $428 $578 #
point $-1 -38.349029061339749 20.742036463245842 5.1794260360399473 #
coedge $-1 $443 $442 $435 $535 forward $432 $-1 #
edge $-1 $536 51.523014814760316 $539 58.596803152898147 $534 $579 forward 7 unknown #
vertex $-1 $447 $580 #
straight-curve $-1 8.859026927619297 -5.9573227587432154 8.8768082449485917 1 0 0 I I #
edge $-1 $539 -5.2231479194824324 $444 3.7547982409608665 $443 $581 forward 7 unknown #
vertex $-1 $538 $582 #
straight-curve $-1 -29.133502921138529 -5.9573227587432154 48.654576683187884 -0.83867056331134215 0 0.54463904215088732 I I #
point $-1 32.11888789465624 -5.9573227587432154 8.8768082449485917 #
point $-1 43.011566515091403 3.0206234017000835 1.8030199068107606 #
straight-curve $-1 43.011566515091403 0 8.8768082449485917 0 1 0 I I #
vertex $-1 $450 $583 #
point $-1 37.047261701980972 -3.3921952843308461 2.7062387256472298 #
vertex $-1 $454 $584 #
point $-1 37.047261701980972 0.4554959272877106 2.7062387256472298 #
coedge $-1 $471 $463 $460 $549 forward $458 $-1 #
edge $-1 $466 23.259860967036943 $556 34.152539587472106 $548 $585 forward 7 unknown #
edge $-1 $556 51.523014814760316 $467 58.596803152898147 $461 $586 forward 7 unknown #
straight-curve $-1 43.011566515091403 -0.73417483926078297 1.8030199068107677 0 1 0 I I #
straight-curve $-1 32.118887894656247 -0.73417483926078297 8.8768082449485917 0 -1 0 I I #
point $-1 32.11888789465624 3.0206234017000835 8.8768082449485917 #
point $-1 43.011566515091403 3.0206234017000835 1.8030199068107606 #
point $-1 32.11888789465624 11.998569562143386 8.8768082449485917 #
vertex $-1 $473 $587 #
straight-curve $-1 43.011566515091403 0 8.8768082449485917 0 1 0 I I #
vertex $-1 $476 $588 #
point $-1 37.047261701980972 5.5857508761124528 2.7062387256472298 #
vertex $-1 $480 $589 #
point $-1 37.047261701980972 9.433442087731013 2.7062387256472298 #
straight-curve $-1 -43.011566515091403 25.382560519598098 0 0 0 -1 I I #
point $-1 -43.011566515091403 -25.382560519598098 -8.8768082449485917 #
straight-curve $-1 -43.011566515091403 0 -8.8768082449485917 0 1 0 I I #
point $-1 -43.011566515091403 25.382560519598098 -8.8768082449485917 #
straight-curve $-1 -25.757950025194219 -11.180968558949008 8.8768082449485917 0 1 0 I I #
straight-curve $-1 -25.757950025194219 -11.180968558949008 -8.8768082449485917 0 -1 0 I I #
point $-1 -25.757950025194219 -25.382560519598098 -8.8768082449485917 #
point $-1 -25.757950025194219 -25.382560519598098 8.8768082449485917 #
straight-curve $-1 0 -25.382560519598098 -8.8768082449485917 -1 0 0 I I #
straight-curve $-1 0 -25.382560519598098 8.8768082449485917 1 0 0 I I #
straight-curve $-1 -43.011566515091403 23.303324663684371 24.010453332600974 0 0 -1 I I #
point $-1 -43.011566515091403 23.303324663684371 8.8768082449485917 #
straight-curve $-1 -43.011566515091403 8.4500520812940341 2.4355923937620738 0 -1 0 I I #
point $-1 -43.011566515091403 23.303324663684371 2.4355923937620787 #
point $-1 -38.030900208809854 13.05817186193028 3.8014586804077419 #
point $-1 -38.030900208809854 16.900104162588061 3.8014586804077419 #
point $-1 -38.030900208809854 20.742036463245842 3.8014586804077419 #
straight-curve $-1 43.011566515091403 -5.9573227587432154 60.399823059708908 0 0 -1 I I #
point $-1 43.011566515091403 -5.9573227587432154 8.8768082449485917 #
straight-curve $-1 43.011566515091403 -0.73417483926078297 1.8030199068107677 0 1 0 I I #
point $-1 43.011566515091403 -5.9573227587432154 1.8030199068107606 #
point $-1 35.663952096518742 -3.3921952843308461 2.4122072044867751 #
point $-1 35.663952096518742 0.4554959272877106 2.4122072044867751 #
straight-curve $-1 8.859026927619297 3.0206234017000835 8.8768082449485917 1 0 0 I I #
straight-curve $-1 43.011566515091403 3.0206234017000835 60.399823059708908 0 0 -1 I I #
point $-1 43.011566515091403 3.0206234017000835 8.8768082449485917 #
point $-1 35.663952096518742 5.5857508761124528 2.4122072044867751 #
point $-1 35.663952096518742 9.433442087731013 2.4122072044867751 #
End-of-ACIS-data 