500 0 9 0           
7 Unknown 11 ACIS 5.0 NT 24 Fri Mar 26 15:29:04 1999 
-1 9.9999999999999995e-007 1e-010 
body $-1 $9 $-1 $10 #
body $-1 $11 $-1 $12 #
body $-1 $13 $-1 $14 #
body $-1 $15 $-1 $16 #
body $-1 $17 $-1 $18 #
body $-1 $19 $-1 $20 #
body $-1 $21 $-1 $22 #
body $-1 $23 $-1 $24 #
body $-1 $25 $-1 $26 #
lump $-1 $-1 $27 $0 #
transform $-1 1 0 0 0 1 0 0 0 1 70.1669362468337 34.247469346880585 15.081554115047092 1 rotate no_reflect no_shear #
lump $-1 $-1 $28 $1 #
transform $-1 1 0 0 0 1 0 0 0 1 70.1669362468337 34.247469346880585 15.081554115047092 1 rotate no_reflect no_shear #
lump $-1 $-1 $29 $2 #
transform $-1 1 0 0 0 1 0 0 0 1 70.1669362468337 34.247469346880585 15.081554115047092 1 rotate no_reflect no_shear #
lump $-1 $-1 $30 $3 #
transform $-1 1 0 0 0 1 0 0 0 1 70.1669362468337 34.247469346880585 15.081554115047092 1 rotate no_reflect no_shear #
lump $-1 $-1 $31 $4 #
transform $-1 1 0 0 0 1 0 0 0 1 70.1669362468337 34.247469346880585 15.081554115047092 1 rotate no_reflect no_shear #
lump $-1 $-1 $32 $5 #
transform $-1 1 0 0 0 1 0 0 0 1 70.1669362468337 34.247469346880585 15.081554115047092 1 rotate no_reflect no_shear #
lump $-1 $-1 $33 $6 #
transform $-1 1 0 0 0 1 0 0 0 1 70.1669362468337 34.247469346880585 15.081554115047092 1 rotate no_reflect no_shear #
lump $-1 $-1 $34 $7 #
transform $-1 1 0 0 0 1 0 0 0 1 70.1669362468337 34.247469346880585 15.081554115047092 1 rotate no_reflect no_shear #
lump $-1 $-1 $35 $8 #
transform $-1 1 0 0 0 1 0 0 0 1 70.1669362468337 34.247469346880585 15.081554115047092 1 rotate no_reflect no_shear #
shell $-1 $-1 $-1 $36 $-1 $9 #
shell $-1 $-1 $-1 $37 $-1 $11 #
shell $-1 $-1 $-1 $38 $-1 $13 #
shell $-1 $-1 $-1 $39 $-1 $15 #
shell $-1 $-1 $-1 $40 $-1 $17 #
shell $-1 $-1 $-1 $41 $-1 $19 #
shell $-1 $-1 $-1 $42 $-1 $21 #
shell $-1 $-1 $-1 $43 $-1 $23 #
shell $-1 $-1 $-1 $44 $-1 $25 #
face $-1 $45 $46 $27 $-1 $47 forward single #
face $-1 $48 $49 $28 $-1 $50 reversed single #
face $-1 $51 $52 $29 $-1 $53 reversed single #
face $-1 $54 $55 $30 $-1 $56 forward single #
face $-1 $57 $58 $31 $-1 $59 forward single #
face $-1 $60 $61 $32 $-1 $62 forward single #
face $-1 $63 $64 $33 $-1 $65 reversed single #
face $-1 $66 $67 $34 $-1 $68 forward single #
face $-1 $69 $70 $35 $-1 $71 forward single #
face $-1 $72 $73 $27 $-1 $74 reversed single #
loop $-1 $-1 $75 $36 #
plane-surface $-1 0 0 15.081554115047092 0 0 1 1 0 0 forward_v I I I I #
face $-1 $76 $77 $28 $-1 $78 reversed single #
loop $-1 $-1 $79 $37 #
plane-surface $-1 0 -25.675216535275641 11.861989582598154 0 0 1 1 0 0 forward_v I I I I #
face $-1 $80 $81 $29 $-1 $82 reversed single #
loop $-1 $-1 $83 $38 #
plane-surface $-1 -190.45654402880402 2.6407469778619266 73.032037169543429 0 1 0 -0.85716730853699208 0 0.51503806187062418 forward_v I I I I #
face $-1 $84 $85 $30 $-1 $86 forward single #
loop $-1 $87 $88 $39 #
cone-surface $-1 -65.434146986564315 4.1989036939369413 7.6606337593910787 0.85716730853699208 0 -0.51503806187062418 0.25751903093531209 0 0.42858365426849604 1 I I 0 1 0.5 forward I I I I #
face $-1 $89 $90 $31 $-1 $91 forward single #
loop $-1 $92 $93 $40 #
cone-surface $-1 -65.434146986564315 6.5361387680494687 7.6606337593910787 0.85716730853699208 0 -0.51503806187062418 0.25751903093531209 0 0.42858365426849604 1 I I 0 1 0.5 forward I I I I #
face $-1 $94 $95 $32 $-1 $96 forward single #
loop $-1 $97 $98 $41 #
cone-surface $-1 -65.434146986564315 8.8733738421619961 7.6606337593910787 0.85716730853699208 0 -0.51503806187062418 0.25751903093531209 0 0.42858365426849604 1 I I 0 1 0.5 forward I I I I #
face $-1 $99 $100 $33 $-1 $101 reversed single #
loop $-1 $-1 $102 $42 #
plane-surface $-1 -4.198684432285674 29.724915812323808 123.48086438053643 0.84804810408105047 0 0.52991925155115449 0.52991925155115449 0 -0.84804810408105047 forward_v I I I I #
face $-1 $103 $104 $34 $-1 $105 forward single #
loop $-1 $106 $107 $43 #
cone-surface $-1 65.384741429160755 27.786678583228053 8.8595344923124273 -0.84804810408105047 0 -0.52991925155115449 0.52991925155115449 0 -0.84804810408105047 1 I I 0 1 1 forward I I I I #
face $-1 $108 $109 $35 $-1 $110 forward single #
loop $-1 $111 $112 $44 #
cone-surface $-1 65.384741429160755 31.663153041419569 8.8595344923124273 -0.84804810408105047 0 -0.52991925155115449 0.52991925155115449 0 -0.84804810408105047 1 I I 0 1 1 forward I I I I #
face $-1 $113 $114 $27 $-1 $115 reversed single #
loop $-1 $-1 $116 $45 #
plane-surface $-1 0 0 -15.081554115047092 0 0 1 1 0 0 forward_v I I I I #
coedge $-1 $117 $118 $119 $120 forward $46 $-1 #
face $-1 $121 $122 $28 $-1 $123 reversed single #
loop $-1 $-1 $124 $48 #
plane-surface $-1 0 -17.102963723670698 13.471771848822625 0 -1 0 0 0 -1 forward_v I I I I #
coedge $-1 $125 $126 $127 $128 reversed $49 $-1 #
face $-1 $129 $130 $29 $-1 $131 reversed single #
loop $-1 $-1 $132 $51 #
plane-surface $-1 -70.166936246833714 6.5361387680494758 0.75475146560567907 -0.85716730853699208 0 0.51503806187062418 0.51503806187062418 0 0.85716730853699208 forward_v I I I I #
coedge $-1 $133 $134 $135 $136 reversed $52 $-1 #
face $-1 $-1 $137 $30 $-1 $138 forward single #
loop $-1 $139 $140 $54 #
cone-surface $-1 -64.791271505161575 4.1989036939369413 7.2743552129881106 0.85716730853699208 0 -0.51503806187062418 0.12875951546765604 0 0.21429182713424802 1 I I -0.70710678118654746 0.70710678118654746 0.25 forward I I I I #
loop $-1 $-1 $141 $39 #
coedge $-1 $88 $88 $142 $143 reversed $55 $-1 #
face $-1 $-1 $144 $31 $-1 $145 forward single #
loop $-1 $146 $147 $57 #
cone-surface $-1 -64.791271505161575 6.5361387680494687 7.2743552129881106 0.85716730853699208 0 -0.51503806187062418 0.12875951546765604 0 0.21429182713424802 1 I I -0.70710678118654746 0.70710678118654746 0.25 forward I I I I #
loop $-1 $-1 $148 $40 #
coedge $-1 $93 $93 $149 $150 reversed $58 $-1 #
face $-1 $-1 $151 $32 $-1 $152 forward single #
loop $-1 $153 $154 $60 #
cone-surface $-1 -64.791271505161575 8.8733738421619961 7.2743552129881106 0.85716730853699208 0 -0.51503806187062418 0.12875951546765604 0 0.21429182713424802 1 I I -0.70710678118654746 0.70710678118654746 0.25 forward I I I I #
loop $-1 $-1 $155 $41 #
coedge $-1 $98 $98 $156 $157 reversed $61 $-1 #
face $-1 $158 $159 $33 $-1 $160 reversed single #
loop $-1 $-1 $161 $63 #
plane-surface $-1 114.81119007432085 25.202362277767033 197.84648505965581 0 1 0 0.84804810408105047 0 0.52991925155115449 forward_v I I I I #
coedge $-1 $162 $163 $164 $165 reversed $64 $-1 #
face $-1 $-1 $166 $34 $-1 $167 forward single #
loop $-1 $168 $169 $66 #
cone-surface $-1 63.493630649501398 27.786678583228053 7.6778373643607889 -0.84804810408105047 0 -0.52991925155115449 0.26495962577557725 0 -0.42402405204052523 1 I I -0.70710678118654746 0.70710678118654746 0.5 forward I I I I #
loop $-1 $-1 $170 $43 #
coedge $-1 $107 $107 $171 $172 reversed $67 $-1 #
face $-1 $-1 $173 $35 $-1 $174 forward single #
loop $-1 $175 $176 $69 #
cone-surface $-1 63.493630649501398 31.663153041419569 7.6778373643607889 -0.84804810408105047 0 -0.52991925155115449 0.26495962577557725 0 -0.42402405204052523 1 I I -0.70710678118654746 0.70710678118654746 0.5 forward I I I I #
loop $-1 $-1 $177 $44 #
coedge $-1 $112 $112 $178 $179 reversed $70 $-1 #
face $-1 $180 $181 $27 $-1 $182 reversed single #
loop $-1 $-1 $183 $72 #
plane-surface $-1 0 -34.247469346880585 0 0 1 0 0 0 1 forward_v I I I I #
coedge $-1 $184 $185 $186 $187 forward $73 $-1 #
coedge $-1 $188 $75 $189 $190 forward $46 $-1 #
coedge $-1 $75 $188 $191 $192 forward $46 $-1 #
coedge $-1 $193 $194 $75 $120 reversed $195 $-1 #
edge $-1 $196 -34.247469346880585 $197 34.247469346880585 $119 $198 forward 7 unknown #
face $-1 $199 $200 $28 $-1 $201 reversed single #
loop $-1 $-1 $202 $76 #
plane-surface $-1 -70.1669362468337 0 0 1 0 0 0 0 -1 forward_v I I I I #
coedge $-1 $203 $204 $205 $206 reversed $77 $-1 #
coedge $-1 $207 $79 $208 $209 reversed $49 $-1 #
coedge $-1 $79 $207 $203 $210 forward $49 $-1 #
coedge $-1 $205 $211 $79 $128 forward $212 $-1 #
edge $-1 $213 -21.409861079242766 $214 -4.2653554560328768 $127 $215 forward 7 unknown #
face $-1 $216 $217 $29 $-1 $218 forward single #
loop $-1 $-1 $219 $80 #
plane-surface $-1 -190.45654402880402 10.431530558237025 73.032037169543429 0 -1 0 0.85716730853699208 0 -0.51503806187062418 forward_v I I I I #
coedge $-1 $220 $221 $222 $223 reversed $81 $-1 #
coedge $-1 $134 $83 $224 $225 reversed $52 $-1 #
coedge $-1 $83 $133 $220 $226 reversed $52 $-1 #
coedge $-1 $222 $227 $83 $136 forward $217 $-1 #
edge $-1 $228 25.061335767568309 $229 33.669746979570071 $135 $230 forward 7 unknown #
loop $-1 $-1 $142 $84 #
plane-surface $-1 -70.166936246833714 6.5361387680494758 0.75475146560567907 -0.85716730853699208 0 0.51503806187062418 0.51503806187062418 0 0.85716730853699208 forward_v I I I I #
loop $-1 $-1 $231 $54 #
coedge $-1 $140 $140 $141 $232 reversed $85 $-1 #
coedge $-1 $141 $141 $140 $232 forward $87 $-1 #
coedge $-1 $142 $142 $88 $143 forward $137 $-1 #
edge $-1 $233 0 $233 6.2831853071796004 $142 $234 forward 7 unknown #
loop $-1 $-1 $149 $89 #
plane-surface $-1 -70.166936246833714 6.5361387680494758 0.75475146560567907 -0.85716730853699208 0 0.51503806187062418 0.51503806187062418 0 0.85716730853699208 forward_v I I I I #
loop $-1 $-1 $235 $57 #
coedge $-1 $147 $147 $148 $236 reversed $90 $-1 #
coedge $-1 $148 $148 $147 $236 forward $92 $-1 #
coedge $-1 $149 $149 $93 $150 forward $144 $-1 #
edge $-1 $237 0 $237 6.2831853071796004 $149 $238 forward 7 unknown #
loop $-1 $-1 $156 $94 #
plane-surface $-1 -70.166936246833714 6.5361387680494758 0.75475146560567907 -0.85716730853699208 0 0.51503806187062418 0.51503806187062418 0 0.85716730853699208 forward_v I I I I #
loop $-1 $-1 $239 $60 #
coedge $-1 $154 $154 $155 $240 reversed $95 $-1 #
coedge $-1 $155 $155 $154 $240 forward $97 $-1 #
coedge $-1 $156 $156 $98 $157 forward $151 $-1 #
edge $-1 $241 0 $241 6.2831853071796004 $156 $242 forward 7 unknown #
face $-1 $243 $244 $33 $-1 $245 forward single #
loop $-1 $-1 $246 $99 #
plane-surface $-1 0 34.247469346880585 0 0 -1 0 0 0 -1 forward_v I I I I #
coedge $-1 $247 $248 $249 $250 reversed $100 $-1 #
coedge $-1 $251 $102 $246 $252 reversed $64 $-1 #
coedge $-1 $102 $251 $247 $253 forward $64 $-1 #
coedge $-1 $249 $254 $102 $165 forward $244 $-1 #
edge $-1 $255 -19.385011440718674 $256 -10.33990437160513 $164 $257 forward 7 unknown #
loop $-1 $-1 $171 $103 #
plane-surface $-1 -4.198684432285674 29.724915812323808 123.48086438053643 0.84804810408105047 0 0.52991925155115449 0.52991925155115449 0 -0.84804810408105047 forward_v I I I I #
loop $-1 $-1 $258 $66 #
coedge $-1 $169 $169 $170 $259 reversed $104 $-1 #
coedge $-1 $170 $170 $169 $259 forward $106 $-1 #
coedge $-1 $171 $171 $107 $172 forward $166 $-1 #
edge $-1 $260 0 $260 6.2831853071796004 $171 $261 forward 7 unknown #
loop $-1 $-1 $178 $108 #
plane-surface $-1 -4.198684432285674 29.724915812323808 123.48086438053643 0.84804810408105047 0 0.52991925155115449 0.52991925155115449 0 -0.84804810408105047 forward_v I I I I #
loop $-1 $-1 $262 $69 #
coedge $-1 $176 $176 $177 $263 reversed $109 $-1 #
coedge $-1 $177 $177 $176 $263 forward $111 $-1 #
coedge $-1 $178 $178 $112 $179 forward $173 $-1 #
edge $-1 $264 0 $264 6.2831853071796004 $178 $265 forward 7 unknown #
face $-1 $266 $267 $27 $-1 $268 reversed single #
loop $-1 $-1 $269 $113 #
plane-surface $-1 -70.1669362468337 0 0 1 0 0 0 0 -1 forward_v I I I I #
coedge $-1 $270 $191 $271 $272 forward $114 $-1 #
coedge $-1 $273 $116 $270 $274 forward $73 $-1 #
coedge $-1 $116 $273 $275 $276 forward $73 $-1 #
coedge $-1 $194 $193 $116 $187 reversed $195 $-1 #
edge $-1 $277 -34.247469346880585 $278 34.247469346880585 $186 $279 forward 7 unknown #
coedge $-1 $118 $117 $280 $281 forward $46 $-1 #
coedge $-1 $282 $283 $117 $190 reversed $267 $-1 #
edge $-1 $197 -70.1669362468337 $284 70.1669362468337 $189 $285 forward 7 unknown #
coedge $-1 $183 $286 $118 $192 reversed $114 $-1 #
edge $-1 $287 -70.1669362468337 $196 70.1669362468337 $191 $288 forward 7 unknown #
coedge $-1 $186 $119 $286 $289 forward $195 $-1 #
coedge $-1 $119 $186 $282 $290 reversed $195 $-1 #
loop $-1 $-1 $193 $266 #
vertex $-1 $120 $291 #
vertex $-1 $120 $292 #
straight-curve $-1 70.1669362468337 0 15.081554115047092 0 1 0 I I #
face $-1 $293 $294 $28 $-1 $295 forward single #
loop $-1 $-1 $208 $121 #
plane-surface $-1 0 -34.247469346880585 0 0 1 0 0 0 1 forward_v I I I I #
coedge $-1 $296 $297 $298 $299 forward $122 $-1 #
coedge $-1 $298 $124 $126 $210 reversed $77 $-1 #
coedge $-1 $124 $298 $300 $301 reversed $77 $-1 #
coedge $-1 $302 $127 $124 $206 forward $212 $-1 #
edge $-1 $214 5.1261036581868415 $303 8.3456681906357844 $205 $304 forward 7 unknown #
coedge $-1 $126 $125 $296 $305 reversed $49 $-1 #
coedge $-1 $306 $307 $125 $209 forward $200 $-1 #
edge $-1 $308 -70.1669362468337 $213 70.1669362468337 $208 $309 forward 7 unknown #
edge $-1 $310 -70.1669362468337 $214 70.1669362468337 $203 $311 forward 7 unknown #
coedge $-1 $127 $302 $306 $312 forward $212 $-1 #
loop $-1 $-1 $205 $293 #
vertex $-1 $209 $313 #
vertex $-1 $128 $314 #
straight-curve $-1 70.1669362468337 -12.837608267637821 11.861989582598154 0 1 0 I I #
face $-1 $-1 $315 $29 $-1 $316 reversed single #
loop $-1 $-1 $135 $129 #
plane-surface $-1 0 0 15.081554115047092 0 0 1 1 0 0 forward_v I I I I #
coedge $-1 $317 $318 $319 $320 reversed $130 $-1 #
coedge $-1 $321 $132 $134 $226 forward $81 $-1 #
coedge $-1 $132 $321 $317 $322 forward $81 $-1 #
coedge $-1 $319 $135 $132 $223 forward $217 $-1 #
edge $-1 $229 -0.62732240616281132 $323 7.1634611742122871 $222 $324 forward 7 unknown #
coedge $-1 $325 $326 $133 $225 forward $315 $-1 #
edge $-1 $327 -35.761267119166014 $228 -21.434464469724624 $224 $328 forward 7 unknown #
edge $-1 $229 -16.714126293377095 $327 -2.7589209654379419e-014 $134 $329 forward 7 unknown #
coedge $-1 $135 $319 $325 $330 forward $217 $-1 #
vertex $-1 $225 $331 #
vertex $-1 $136 $332 #
straight-curve $-1 -95.228272014402009 2.6407469778619266 15.081554115047091 1 0 0 I I #
coedge $-1 $231 $231 $-1 $333 reversed $139 $-1 #
edge $-1 $334 0 $334 6.2831853071796004 $140 $335 forward 7 unknown #
vertex $-1 $143 $336 #
ellipse-curve $-1 -65.862730640832822 4.1989036939369413 7.9181527903263955 -0.85716730853699208 0 0.51503806187062418 0.25751903093531209 0 0.42858365426849604 1 I I #
coedge $-1 $235 $235 $-1 $337 reversed $146 $-1 #
edge $-1 $338 0 $338 6.2831853071796004 $147 $339 forward 7 unknown #
vertex $-1 $150 $340 #
ellipse-curve $-1 -65.862730640832822 6.5361387680494687 7.9181527903263955 -0.85716730853699208 0 0.51503806187062418 0.25751903093531209 0 0.42858365426849604 1 I I #
coedge $-1 $239 $239 $-1 $341 reversed $153 $-1 #
edge $-1 $342 0 $342 6.2831853071796004 $154 $343 forward 7 unknown #
vertex $-1 $157 $344 #
ellipse-curve $-1 -65.862730640832822 8.8733738421619961 7.9181527903263955 -0.85716730853699208 0 0.51503806187062418 0.25751903093531209 0 0.42858365426849604 1 I I #
face $-1 $-1 $345 $33 $-1 $346 reversed single #
loop $-1 $-1 $164 $158 #
plane-surface $-1 0 0 15.081554115047092 0 0 1 1 0 0 forward_v I I I I #
coedge $-1 $347 $348 $162 $252 forward $159 $-1 #
coedge $-1 $248 $161 $163 $253 reversed $100 $-1 #
coedge $-1 $161 $247 $349 $350 reversed $100 $-1 #
coedge $-1 $351 $164 $161 $250 forward $244 $-1 #
edge $-1 $256 6.1311250295650837 $352 12.761341209673276 $249 $353 forward 7 unknown #
coedge $-1 $163 $162 $354 $355 reversed $64 $-1 #
edge $-1 $356 -86.862534173637627 $255 -74.350786089942716 $246 $357 forward 7 unknown #
edge $-1 $358 -140.3338724936674 $256 -127.8221244099725 $247 $359 forward 7 unknown #
coedge $-1 $164 $351 $347 $360 forward $244 $-1 #
vertex $-1 $165 $361 #
vertex $-1 $165 $362 #
straight-curve $-1 63.536720066725501 14.862457906161904 15.081554115047098 0 -1 0 I I #
coedge $-1 $258 $258 $-1 $363 reversed $168 $-1 #
edge $-1 $364 0 $364 6.2831853071796004 $169 $365 forward 7 unknown #
vertex $-1 $172 $366 #
ellipse-curve $-1 66.851828156779604 27.786678583228053 9.7762719944884999 0.84804810408105047 0 0.52991925155115449 0.52991925155115449 0 -0.84804810408105047 1 I I #
coedge $-1 $262 $262 $-1 $367 reversed $175 $-1 #
edge $-1 $368 0 $368 6.2831853071796004 $176 $369 forward 7 unknown #
vertex $-1 $179 $370 #
ellipse-curve $-1 66.851828156779604 31.663153041419569 9.7762719944884999 0.84804810408105047 0 0.52991925155115449 0.52991925155115449 0 -0.84804810408105047 1 I I #
face $-1 $-1 $195 $27 $-1 $371 reversed single #
loop $-1 $-1 $282 $180 #
plane-surface $-1 0 34.247469346880585 0 0 -1 0 0 0 -1 forward_v I I I I #
coedge $-1 $372 $280 $283 $373 forward $181 $-1 #
coedge $-1 $286 $183 $184 $274 reversed $114 $-1 #
coedge $-1 $280 $372 $183 $272 reversed $181 $-1 #
edge $-1 $287 -15.081554115047092 $374 15.081554115047092 $271 $375 forward 7 unknown #
coedge $-1 $185 $184 $372 $376 forward $73 $-1 #
edge $-1 $278 -70.1669362468337 $374 70.1669362468337 $270 $377 forward 7 unknown #
coedge $-1 $283 $282 $185 $276 reversed $267 $-1 #
edge $-1 $378 -70.1669362468337 $277 70.1669362468337 $275 $379 forward 7 unknown #
vertex $-1 $187 $380 #
vertex $-1 $289 $381 #
straight-curve $-1 70.1669362468337 0 -15.081554115047092 0 -1 0 I I #
coedge $-1 $269 $271 $188 $281 reversed $181 $-1 #
edge $-1 $284 -34.247469346880585 $287 34.247469346880585 $280 $382 forward 7 unknown #
coedge $-1 $275 $189 $194 $290 forward $267 $-1 #
coedge $-1 $189 $275 $269 $373 reversed $267 $-1 #
vertex $-1 $190 $383 #
straight-curve $-1 0 34.247469346880585 15.081554115047092 -1 0 0 I I #
coedge $-1 $191 $270 $193 $289 reversed $114 $-1 #
vertex $-1 $281 $384 #
straight-curve $-1 0 -34.247469346880585 15.081554115047092 1 0 0 I I #
edge $-1 $196 -15.081554115047092 $278 15.081554115047092 $193 $385 forward 7 unknown #
edge $-1 $197 -15.081554115047092 $277 15.081554115047092 $194 $386 forward 7 unknown #
point $-1 70.1669362468337 -34.247469346880585 15.081554115047092 #
point $-1 70.1669362468337 34.247469346880585 15.081554115047092 #
face $-1 $-1 $212 $28 $-1 $387 reversed single #
loop $-1 $-1 $300 $199 #
plane-surface $-1 0 0 15.081554115047092 0 0 1 1 0 0 forward_v I I I I #
coedge $-1 $388 $202 $207 $305 forward $122 $-1 #
coedge $-1 $202 $388 $389 $390 reversed $122 $-1 #
coedge $-1 $204 $203 $202 $299 reversed $77 $-1 #
edge $-1 $391 -8.3456681906357844 $310 -5.1261036581868415 $202 $392 forward 7 unknown #
coedge $-1 $389 $393 $204 $301 forward $294 $-1 #
edge $-1 $303 -70.1669362468337 $391 70.1669362468337 $300 $394 forward 7 unknown #
coedge $-1 $211 $205 $393 $395 reversed $212 $-1 #
vertex $-1 $206 $396 #
straight-curve $-1 70.1669362468337 -17.102963723670698 6.7358859244113125 0 0 1 I I #
edge $-1 $310 4.2653554560328768 $308 21.409861079242766 $296 $397 forward 7 unknown #
coedge $-1 $398 $208 $211 $312 reversed $200 $-1 #
coedge $-1 $208 $398 $388 $399 forward $200 $-1 #
vertex $-1 $209 $400 #
straight-curve $-1 0 -34.247469346880585 11.861989582598154 1 0 0 I I #
vertex $-1 $305 $401 #
straight-curve $-1 0 -17.102963723670698 11.861989582598154 1 0 0 I I #
edge $-1 $402 -15.081554115047092 $213 -11.861989582598154 $211 $403 forward 7 unknown #
point $-1 70.1669362468337 -34.247469346880585 11.861989582598154 #
point $-1 70.1669362468337 -17.102963723670698 11.861989582598154 #
loop $-1 $-1 $224 $216 #
plane-surface $-1 -70.1669362468337 0 0 1 0 0 0 0 -1 forward_v I I I I #
coedge $-1 $318 $219 $221 $322 reversed $130 $-1 #
coedge $-1 $219 $317 $404 $405 reversed $130 $-1 #
coedge $-1 $227 $222 $219 $320 forward $217 $-1 #
edge $-1 $323 -33.669746979570071 $406 -25.061335767568309 $319 $407 forward 7 unknown #
coedge $-1 $221 $220 $326 $408 reversed $81 $-1 #
edge $-1 $409 2.7589209654379419e-014 $323 16.714126293377095 $317 $410 forward 7 unknown #
vertex $-1 $223 $411 #
straight-curve $-1 -61.558525034831931 3.2680693840247379 15.081554115047094 0 1 0 I I #
coedge $-1 $404 $224 $227 $330 reversed $315 $-1 #
coedge $-1 $224 $404 $321 $408 forward $315 $-1 #
vertex $-1 $225 $412 #
straight-curve $-1 -70.1669362468337 2.6407469778619266 36.516018584771714 0 0 1 I I #
straight-curve $-1 -70.166936246833714 2.6407469778619266 0.75475146560567907 -0.51503806187062418 0 -0.85716730853699208 I I #
edge $-1 $406 -10.431530558237025 $228 -2.6407469778619266 $325 $413 forward 7 unknown #
point $-1 -70.1669362468337 2.6407469778619266 15.081554115047092 #
point $-1 -61.558525034831938 2.6407469778619266 15.081554115047091 #
edge $-1 $414 1 $414 0 $231 $-1 forward 7 unknown #
vertex $-1 $232 $415 #
ellipse-curve $-1 -65.005563332295822 4.1989036939369413 7.4031147284557663 -0.85716730853699208 0 0.51503806187062418 0.25751903093531209 0 0.42858365426849604 1 I I #
point $-1 -65.605211609897509 4.1989036939369413 8.3467364445948871 #
edge $-1 $416 1 $416 0 $235 $-1 forward 7 unknown #
vertex $-1 $236 $417 #
ellipse-curve $-1 -65.005563332295822 6.5361387680494687 7.4031147284557663 -0.85716730853699208 0 0.51503806187062418 0.25751903093531209 0 0.42858365426849604 1 I I #
point $-1 -65.605211609897509 6.5361387680494687 8.3467364445948871 #
edge $-1 $418 1 $418 0 $239 $-1 forward 7 unknown #
vertex $-1 $240 $419 #
ellipse-curve $-1 -65.005563332295822 8.8733738421619961 7.4031147284557663 -0.85716730853699208 0 0.51503806187062418 0.25751903093531209 0 0.42858365426849604 1 I I #
point $-1 -65.605211609897509 8.8733738421619961 8.3467364445948871 #
loop $-1 $-1 $354 $243 #
plane-surface $-1 70.1669362468337 0 0 -1 0 0 0 0 1 forward_v I I I I #
coedge $-1 $348 $246 $254 $360 reversed $159 $-1 #
coedge $-1 $246 $347 $420 $421 forward $159 $-1 #
coedge $-1 $354 $422 $248 $350 forward $345 $-1 #
edge $-1 $352 83.841688414780805 $358 94.452252655897993 $349 $423 forward 7 unknown #
coedge $-1 $254 $249 $422 $424 forward $244 $-1 #
vertex $-1 $424 $425 #
straight-curve $-1 57.405595037160424 25.202362277767033 15.081554115047098 1 0 0 I I #
coedge $-1 $420 $349 $251 $355 forward $345 $-1 #
edge $-1 $358 10.33990437160513 $356 19.385011440718674 $354 $426 forward 7 unknown #
vertex $-1 $355 $427 #
straight-curve $-1 24.136807149703071 34.247469346880585 78.134597295558763 -0.52991925155115449 0 0.84804810408105047 I I #
vertex $-1 $355 $428 #
straight-curve $-1 -4.198684432285674 25.202362277767033 123.48086438053643 -0.52991925155115449 0 0.84804810408105047 I I #
edge $-1 $429 -70.1669362468337 $255 -63.536720066725508 $347 $430 forward 7 unknown #
point $-1 63.536720066725508 34.247469346880578 15.081554115047098 #
point $-1 63.536720066725508 25.202362277767033 15.081554115047098 #
edge $-1 $431 1 $431 0 $258 $-1 forward 7 unknown #
vertex $-1 $259 $432 #
ellipse-curve $-1 63.91765470154192 27.786678583228053 7.9427969901363662 0.84804810408105047 0 0.52991925155115449 0.52991925155115449 0 -0.84804810408105047 1 I I #
point $-1 67.381747408330753 27.786678583228053 8.9282238904074376 #
edge $-1 $433 1 $433 0 $262 $-1 forward 7 unknown #
vertex $-1 $263 $434 #
ellipse-curve $-1 63.91765470154192 31.663153041419569 7.9427969901363662 0.84804810408105047 0 0.52991925155115449 0.52991925155115449 0 -0.84804810408105047 1 I I #
point $-1 67.381747408330753 31.663153041419569 8.9282238904074376 #
plane-surface $-1 70.1669362468337 0 0 -1 0 0 0 0 1 forward_v I I I I #
coedge $-1 $271 $269 $273 $376 reversed $181 $-1 #
edge $-1 $284 -15.081554115047092 $378 15.081554115047092 $283 $435 forward 7 unknown #
vertex $-1 $376 $436 #
straight-curve $-1 -70.1669362468337 -34.247469346880585 0 0 0 -1 I I #
edge $-1 $374 -34.247469346880585 $378 34.247469346880585 $372 $437 forward 7 unknown #
straight-curve $-1 0 -34.247469346880585 -15.081554115047092 -1 0 0 I I #
vertex $-1 $276 $438 #
straight-curve $-1 0 34.247469346880585 -15.081554115047092 1 0 0 I I #
point $-1 70.1669362468337 34.247469346880585 -15.081554115047092 #
point $-1 70.1669362468337 -34.247469346880585 -15.081554115047092 #
straight-curve $-1 -70.1669362468337 0 15.081554115047092 0 -1 0 I I #
point $-1 -70.1669362468337 34.247469346880585 15.081554115047092 #
point $-1 -70.1669362468337 -34.247469346880585 15.081554115047092 #
straight-curve $-1 70.1669362468337 -34.247469346880585 0 0 0 -1 I I #
straight-curve $-1 70.1669362468337 34.247469346880585 0 0 0 -1 I I #
plane-surface $-1 70.1669362468337 0 0 -1 0 0 0 0 1 forward_v I I I I #
coedge $-1 $297 $296 $307 $399 reversed $122 $-1 #
coedge $-1 $439 $300 $297 $390 forward $294 $-1 #
edge $-1 $391 17.102963723670698 $440 34.247469346880585 $297 $441 forward 7 unknown #
vertex $-1 $390 $442 #
straight-curve $-1 -70.1669362468337 -17.102963723670698 6.7358859244113125 0 0 -1 I I #
coedge $-1 $300 $439 $302 $395 forward $294 $-1 #
straight-curve $-1 0 -17.102963723670698 15.081554115047092 -1 0 0 I I #
edge $-1 $402 -34.247469346880585 $303 -17.102963723670698 $302 $443 forward 7 unknown #
point $-1 70.1669362468337 -17.102963723670698 15.081554115047096 #
straight-curve $-1 -70.1669362468337 -12.837608267637821 11.861989582598154 0 -1 0 I I #
coedge $-1 $307 $306 $439 $444 reversed $200 $-1 #
edge $-1 $440 -15.081554115047092 $308 -11.861989582598154 $388 $445 forward 7 unknown #
point $-1 -70.1669362468337 -34.247469346880585 11.861989582598154 #
point $-1 -70.1669362468337 -17.102963723670698 11.861989582598154 #
vertex $-1 $395 $446 #
straight-curve $-1 70.1669362468337 -34.247469346880585 0 0 0 -1 I I #
coedge $-1 $326 $325 $318 $405 forward $315 $-1 #
edge $-1 $406 21.434464469724624 $409 35.761267119166014 $404 $447 forward 7 unknown #
vertex $-1 $330 $448 #
straight-curve $-1 -95.228272014402009 10.431530558237025 15.081554115047091 -1 0 0 I I #
edge $-1 $409 -7.1634611742122871 $327 0.62732240616281132 $326 $449 forward 7 unknown #
vertex $-1 $408 $450 #
straight-curve $-1 -70.166936246833714 10.431530558237025 0.75475146560567907 0.51503806187062418 0 0.85716730853699208 I I #
point $-1 -61.558525034831938 10.431530558237025 15.081554115047091 #
point $-1 -70.1669362468337 2.6407469778619266 0.75475146560570272 #
straight-curve $-1 -70.1669362468337 0 15.081554115047092 0 -1 0 I I #
vertex $-1 $333 $451 #
point $-1 -64.748044301360508 4.1989036939369413 7.8316983827242623 #
vertex $-1 $337 $452 #
point $-1 -64.748044301360508 6.5361387680494687 7.8316983827242623 #
vertex $-1 $341 $453 #
point $-1 -64.748044301360508 8.8733738421619961 7.8316983827242623 #
coedge $-1 $422 $354 $348 $421 reversed $345 $-1 #
edge $-1 $429 -15.081554115047092 $356 -4.4709898739299092 $420 $454 forward 7 unknown #
coedge $-1 $349 $420 $351 $424 reversed $345 $-1 #
straight-curve $-1 70.1669362468337 25.202362277767033 98.923242529827903 0 0 -1 I I #
edge $-1 $352 25.202362277767033 $429 34.247469346880585 $422 $455 forward 7 unknown #
point $-1 70.1669362468337 25.202362277767033 15.081554115047092 #
straight-curve $-1 70.1669362468337 14.862457906161904 4.4709898739299163 0 1 0 I I #
point $-1 70.1669362468337 34.247469346880578 4.4709898739299092 #
point $-1 70.1669362468337 25.202362277767033 4.4709898739299092 #
vertex $-1 $424 $456 #
straight-curve $-1 0 34.247469346880585 15.081554115047092 -1 0 0 I I #
vertex $-1 $363 $457 #
point $-1 64.447573953093084 27.786678583228053 7.0947488860553154 #
vertex $-1 $367 $458 #
point $-1 64.447573953093084 31.663153041419569 7.0947488860553154 #
straight-curve $-1 -70.1669362468337 34.247469346880585 0 0 0 -1 I I #
point $-1 -70.1669362468337 -34.247469346880585 -15.081554115047092 #
straight-curve $-1 -70.1669362468337 0 -15.081554115047092 0 1 0 I I #
point $-1 -70.1669362468337 34.247469346880585 -15.081554115047092 #
coedge $-1 $393 $389 $398 $444 forward $294 $-1 #
vertex $-1 $390 $459 #
straight-curve $-1 -70.1669362468337 0 15.081554115047092 0 -1 0 I I #
point $-1 -70.1669362468337 -17.102963723670698 15.081554115047096 #
straight-curve $-1 70.1669362468337 0 15.081554115047092 0 1 0 I I #
edge $-1 $440 -70.1669362468337 $402 70.1669362468337 $398 $460 forward 7 unknown #
straight-curve $-1 -70.1669362468337 -34.247469346880585 0 0 0 -1 I I #
point $-1 70.1669362468337 -34.247469346880585 15.081554115047092 #
straight-curve $-1 -70.1669362468337 10.431530558237025 36.516018584771714 0 0 -1 I I #
point $-1 -70.1669362468337 10.431530558237025 15.081554115047092 #
straight-curve $-1 -70.1669362468337 3.2680693840247379 0.75475146560569595 0 -1 0 I I #
point $-1 -70.1669362468337 10.431530558237025 0.75475146560570272 #
point $-1 -64.576979678027328 4.1989036939369413 7.1455956975204549 #
point $-1 -64.576979678027328 6.5361387680494687 7.1455956975204549 #
point $-1 -64.576979678027328 8.8733738421619961 7.1455956975204549 #
straight-curve $-1 70.1669362468337 34.247469346880585 0 0 0 -1 I I #
straight-curve $-1 70.1669362468337 0 15.081554115047092 0 1 0 I I #
point $-1 70.1669362468337 34.247469346880585 15.081554115047092 #
point $-1 63.069606597460876 27.786678583228053 7.4128777385852116 #
point $-1 63.069606597460876 31.663153041419569 7.4128777385852116 #
point $-1 -70.1669362468337 -34.247469346880585 15.081554115047092 #
straight-curve $-1 0 -34.247469346880585 15.081554115047092 1 0 0 I I #
End-of-ACIS-data 