500 0 7 0           
7 Unknown 11 ACIS 5.0 NT 24 Fri Mar 26 18:10:24 1999 
-1 9.9999999999999995e-007 1e-010 
body $-1 $7 $-1 $8 #
body $-1 $9 $-1 $10 #
body $-1 $11 $-1 $12 #
body $-1 $13 $-1 $14 #
body $-1 $15 $-1 $16 #
body $-1 $17 $-1 $18 #
body $-1 $19 $-1 $20 #
lump $-1 $-1 $21 $0 #
transform $-1 1 0 0 0 1 0 0 0 1 64.894558549760433 42.416843723369212 13.235991811966477 1 rotate no_reflect no_shear #
lump $-1 $-1 $22 $1 #
transform $-1 1 0 0 0 1 0 0 0 1 64.894558549760433 42.416843723369212 13.235991811966477 1 rotate no_reflect no_shear #
lump $-1 $-1 $23 $2 #
transform $-1 1 0 0 0 1 0 0 0 1 64.894558549760433 42.416843723369212 13.235991811966477 1 rotate no_reflect no_shear #
lump $-1 $-1 $24 $3 #
transform $-1 1 0 0 0 1 0 0 0 1 64.894558549760433 42.416843723369212 13.235991811966477 1 rotate no_reflect no_shear #
lump $-1 $-1 $25 $4 #
transform $-1 1 0 0 0 1 0 0 0 1 64.894558549760433 42.416843723369212 13.235991811966477 1 rotate no_reflect no_shear #
lump $-1 $-1 $26 $5 #
transform $-1 1 0 0 0 1 0 0 0 1 64.894558549760433 42.416843723369212 13.235991811966477 1 rotate no_reflect no_shear #
lump $-1 $-1 $27 $6 #
transform $-1 1 0 0 0 1 0 0 0 1 64.894558549760433 42.416843723369212 13.235991811966477 1 rotate no_reflect no_shear #
shell $-1 $-1 $-1 $28 $-1 $7 #
shell $-1 $-1 $-1 $29 $-1 $9 #
shell $-1 $-1 $-1 $30 $-1 $11 #
shell $-1 $-1 $-1 $31 $-1 $13 #
shell $-1 $-1 $-1 $32 $-1 $15 #
shell $-1 $-1 $-1 $33 $-1 $17 #
shell $-1 $-1 $-1 $34 $-1 $19 #
face $-1 $35 $36 $21 $-1 $37 forward single #
face $-1 $38 $39 $22 $-1 $40 reversed single #
face $-1 $41 $42 $23 $-1 $43 reversed single #
face $-1 $44 $45 $24 $-1 $46 forward single #
face $-1 $47 $48 $25 $-1 $49 reversed single #
face $-1 $50 $51 $26 $-1 $52 forward single #
face $-1 $53 $54 $27 $-1 $55 forward single #
face $-1 $56 $57 $21 $-1 $58 reversed single #
loop $-1 $-1 $59 $28 #
plane-surface $-1 0 0 13.235991811966477 0 0 1 1 0 0 forward_v I I I I #
face $-1 $60 $61 $22 $-1 $62 reversed single #
loop $-1 $-1 $63 $29 #
plane-surface $-1 0 -34.286809347261979 6.6202983796100039 0 0 1 1 0 0 forward_v I I I I #
face $-1 $64 $65 $23 $-1 $66 reversed single #
loop $-1 $-1 $67 $30 #
plane-surface $-1 -139.33853877227904 15.886285202955005 109.70423447848678 0 1 0 -0.57357644374324357 0 0.81915203911291934 forward_v I I I I #
face $-1 $68 $69 $24 $-1 $70 forward single #
loop $-1 $71 $72 $31 #
cone-surface $-1 -56.429130859579701 25.186217312567123 6.26553553327226 0.57357644374324357 0 -0.81915203911291934 2.0478800977822984 0 1.4339411093581089 1 I I 0 1 2.5 forward I I I I #
face $-1 $73 $74 $25 $-1 $75 reversed single #
loop $-1 $-1 $76 $32 #
plane-surface $-1 17.38844592796724 -17.801830731091634 181.10416874960714 0 -1 0 -0.50000000669873634 0 -0.8660253999169214 forward_v I I I I #
face $-1 $77 $78 $26 $-1 $79 forward single #
loop $-1 $80 $81 $33 #
cone-surface $-1 56.256407834055686 -23.769648045422429 7.7013301735186932 -0.50000000669873634 0 -0.8660253999169214 0.8660253999169214 0 -0.50000000669873634 1 I I 0 1 1 forward I I I I #
face $-1 $82 $83 $27 $-1 $84 forward single #
loop $-1 $85 $86 $34 #
cone-surface $-1 56.256407834055686 -20.188957656823952 7.7013301735186932 -0.50000000669873634 0 -0.8660253999169214 0.8660253999169214 0 -0.50000000669873634 1 I I 0 1 1 forward I I I I #
face $-1 $87 $88 $21 $-1 $89 reversed single #
loop $-1 $-1 $90 $35 #
plane-surface $-1 0 0 -13.235991811966477 0 0 1 1 0 0 forward_v I I I I #
coedge $-1 $91 $92 $93 $94 forward $36 $-1 #
face $-1 $95 $96 $22 $-1 $97 reversed single #
loop $-1 $-1 $98 $38 #
plane-surface $-1 0 -26.156774971154746 9.9281450957882402 0 -1 0 0 0 -1 forward_v I I I I #
coedge $-1 $99 $100 $101 $102 reversed $39 $-1 #
face $-1 $103 $104 $23 $-1 $105 reversed single #
loop $-1 $-1 $106 $41 #
plane-surface $-1 -64.894558549760461 25.186217312567123 3.3872145517487979 -0.57357644374324357 0 0.81915203911291934 0.81915203911291934 0 0.57357644374324357 forward_v I I I I #
coedge $-1 $107 $108 $109 $110 reversed $42 $-1 #
face $-1 $-1 $111 $24 $-1 $112 forward single #
loop $-1 $113 $114 $44 #
cone-surface $-1 -54.279488286157225 25.186217312567123 3.1955278357957386 0.57357644374324357 0 -0.81915203911291934 1.0239400488911492 0 0.71697055467905446 1 I I -0.70710678118654746 0.70710678118654746 1.25 forward I I I I #
loop $-1 $-1 $115 $31 #
coedge $-1 $72 $72 $116 $117 reversed $45 $-1 #
face $-1 $118 $119 $25 $-1 $120 forward single #
loop $-1 $-1 $121 $47 #
plane-surface $-1 -47.506113491216269 -21.97930285112319 68.703496708630439 0.50000000669873634 0 0.8660253999169214 0.8660253999169214 0 -0.50000000669873634 forward_v I I I I #
coedge $-1 $122 $123 $124 $125 reversed $48 $-1 #
face $-1 $-1 $126 $26 $-1 $127 forward single #
loop $-1 $128 $129 $50 #
cone-surface $-1 55.532325668527307 -23.769648045422429 6.4471830963722443 -0.50000000669873634 0 -0.8660253999169214 0.4330126999584607 0 -0.25000000334936817 1 I I -0.70710678118654746 0.70710678118654746 0.5 forward I I I I #
loop $-1 $-1 $130 $33 #
coedge $-1 $81 $81 $131 $132 reversed $51 $-1 #
face $-1 $-1 $133 $27 $-1 $134 forward single #
loop $-1 $135 $136 $53 #
cone-surface $-1 55.532325668527307 -20.188957656823952 6.4471830963722443 -0.50000000669873634 0 -0.8660253999169214 0.4330126999584607 0 -0.25000000334936817 1 I I -0.70710678118654746 0.70710678118654746 0.5 forward I I I I #
loop $-1 $-1 $137 $34 #
coedge $-1 $86 $86 $138 $139 reversed $54 $-1 #
face $-1 $140 $141 $21 $-1 $142 reversed single #
loop $-1 $-1 $143 $56 #
plane-surface $-1 0 -42.416843723369212 0 0 1 0 0 0 1 forward_v I I I I #
coedge $-1 $144 $145 $146 $147 forward $57 $-1 #
coedge $-1 $148 $59 $149 $150 forward $36 $-1 #
coedge $-1 $59 $148 $151 $152 forward $36 $-1 #
coedge $-1 $153 $154 $59 $94 reversed $155 $-1 #
edge $-1 $156 -42.416843723369212 $157 42.416843723369212 $93 $158 forward 7 unknown #
face $-1 $159 $160 $22 $-1 $161 reversed single #
loop $-1 $-1 $162 $60 #
plane-surface $-1 -64.894558549760433 0 0 1 0 0 0 0 -1 forward_v I I I I #
coedge $-1 $163 $164 $165 $166 reversed $61 $-1 #
coedge $-1 $167 $63 $168 $169 reversed $39 $-1 #
coedge $-1 $63 $167 $163 $170 forward $39 $-1 #
coedge $-1 $165 $171 $63 $102 forward $172 $-1 #
edge $-1 $173 -25.273439049738222 $174 -9.0133702975237568 $101 $175 forward 7 unknown #
face $-1 $176 $177 $23 $-1 $178 forward single #
loop $-1 $-1 $179 $64 #
plane-surface $-1 -139.33853877227904 34.486149422179238 109.70423447848678 0 -1 0 0.57357644374324357 0 -0.81915203911291934 forward_v I I I I #
coedge $-1 $180 $181 $182 $183 reversed $65 $-1 #
coedge $-1 $108 $67 $184 $185 reversed $42 $-1 #
coedge $-1 $67 $107 $180 $186 reversed $42 $-1 #
coedge $-1 $182 $187 $67 $110 forward $177 $-1 #
edge $-1 $188 4.7747108363790858 $189 18.840222179253651 $109 $190 forward 7 unknown #
loop $-1 $-1 $116 $68 #
plane-surface $-1 -64.894558549760461 25.186217312567123 3.3872145517487979 -0.57357644374324357 0 0.81915203911291934 0.81915203911291934 0 0.57357644374324357 forward_v I I I I #
loop $-1 $-1 $191 $44 #
coedge $-1 $114 $114 $115 $192 reversed $69 $-1 #
coedge $-1 $115 $115 $114 $192 forward $71 $-1 #
coedge $-1 $116 $116 $72 $117 forward $111 $-1 #
edge $-1 $193 0 $193 6.2831853071796004 $116 $194 forward 7 unknown #
face $-1 $195 $196 $25 $-1 $197 forward single #
loop $-1 $-1 $198 $73 #
plane-surface $-1 0 -26.156774971154746 9.9281450957882402 0 -1 0 0 0 -1 forward_v I I I I #
coedge $-1 $199 $200 $201 $202 reversed $74 $-1 #
coedge $-1 $123 $76 $203 $204 reversed $48 $-1 #
coedge $-1 $76 $122 $199 $205 reversed $48 $-1 #
coedge $-1 $201 $206 $76 $125 forward $196 $-1 #
edge $-1 $207 -56.200335585776813 $208 -39.872198478725352 $124 $209 forward 7 unknown #
loop $-1 $-1 $131 $77 #
plane-surface $-1 -47.506113491216269 -21.97930285112319 68.703496708630439 0.50000000669873634 0 0.8660253999169214 0.8660253999169214 0 -0.50000000669873634 forward_v I I I I #
loop $-1 $-1 $210 $50 #
coedge $-1 $129 $129 $130 $211 reversed $78 $-1 #
coedge $-1 $130 $130 $129 $211 forward $80 $-1 #
coedge $-1 $131 $131 $81 $132 forward $126 $-1 #
edge $-1 $212 0 $212 6.2831853071796004 $131 $213 forward 7 unknown #
loop $-1 $-1 $138 $82 #
plane-surface $-1 -47.506113491216269 -21.97930285112319 68.703496708630439 0.50000000669873634 0 0.8660253999169214 0.8660253999169214 0 -0.50000000669873634 forward_v I I I I #
loop $-1 $-1 $214 $53 #
coedge $-1 $136 $136 $137 $215 reversed $83 $-1 #
coedge $-1 $137 $137 $136 $215 forward $85 $-1 #
coedge $-1 $138 $138 $86 $139 forward $133 $-1 #
edge $-1 $216 0 $216 6.2831853071796004 $138 $217 forward 7 unknown #
face $-1 $218 $219 $21 $-1 $220 reversed single #
loop $-1 $-1 $221 $87 #
plane-surface $-1 -64.894558549760433 0 0 1 0 0 0 0 -1 forward_v I I I I #
coedge $-1 $222 $151 $223 $224 forward $88 $-1 #
coedge $-1 $225 $90 $222 $226 forward $57 $-1 #
coedge $-1 $90 $225 $227 $228 forward $57 $-1 #
coedge $-1 $154 $153 $90 $147 reversed $155 $-1 #
edge $-1 $229 -42.416843723369212 $230 42.416843723369212 $146 $231 forward 7 unknown #
coedge $-1 $92 $91 $232 $233 forward $36 $-1 #
coedge $-1 $234 $235 $91 $150 reversed $219 $-1 #
edge $-1 $157 -64.894558549760433 $236 64.894558549760433 $149 $237 forward 7 unknown #
coedge $-1 $143 $238 $92 $152 reversed $88 $-1 #
edge $-1 $239 -64.894558549760433 $156 64.894558549760433 $151 $240 forward 7 unknown #
coedge $-1 $146 $93 $238 $241 forward $155 $-1 #
coedge $-1 $93 $146 $234 $242 reversed $155 $-1 #
loop $-1 $-1 $153 $218 #
vertex $-1 $94 $243 #
vertex $-1 $94 $244 #
straight-curve $-1 64.894558549760433 0 13.235991811966477 0 1 0 I I #
face $-1 $245 $246 $22 $-1 $247 forward single #
loop $-1 $-1 $168 $95 #
plane-surface $-1 0 -42.416843723369212 0 0 1 0 0 0 1 forward_v I I I I #
coedge $-1 $248 $249 $250 $251 forward $96 $-1 #
coedge $-1 $250 $98 $100 $170 reversed $61 $-1 #
coedge $-1 $98 $250 $252 $253 reversed $61 $-1 #
coedge $-1 $254 $101 $98 $166 forward $172 $-1 #
edge $-1 $174 1.6562258317158838 $255 8.2719192640723556 $165 $256 forward 7 unknown #
coedge $-1 $100 $99 $248 $257 reversed $39 $-1 #
coedge $-1 $258 $259 $99 $169 forward $160 $-1 #
edge $-1 $260 -64.894558549760433 $173 64.894558549760433 $168 $261 forward 7 unknown #
edge $-1 $262 -64.894558549760433 $174 64.894558549760433 $163 $263 forward 7 unknown #
coedge $-1 $101 $254 $258 $264 forward $172 $-1 #
loop $-1 $-1 $165 $245 #
vertex $-1 $169 $265 #
vertex $-1 $102 $266 #
straight-curve $-1 64.894558549760433 -17.14340467363099 6.6202983796100039 0 1 0 I I #
face $-1 $-1 $267 $23 $-1 $268 reversed single #
loop $-1 $-1 $109 $103 #
plane-surface $-1 0 0 13.235991811966477 0 0 1 1 0 0 forward_v I I I I #
coedge $-1 $269 $270 $271 $272 reversed $104 $-1 #
coedge $-1 $273 $106 $108 $186 forward $65 $-1 #
coedge $-1 $106 $273 $269 $274 forward $65 $-1 #
coedge $-1 $271 $109 $106 $183 forward $177 $-1 #
edge $-1 $189 3.2931765466714431 $275 21.893040765895677 $182 $276 forward 7 unknown #
coedge $-1 $277 $278 $107 $185 forward $267 $-1 #
edge $-1 $279 -51.464902687494572 $188 -41.616125427276913 $184 $280 forward 7 unknown #
edge $-1 $189 -17.170818933816602 $279 -3.4744061171064897e-014 $108 $281 forward 7 unknown #
coedge $-1 $109 $271 $277 $282 forward $177 $-1 #
vertex $-1 $185 $283 #
vertex $-1 $110 $284 #
straight-curve $-1 -69.669269386139518 15.886285202955005 13.235991811966478 1 0 0 I I #
coedge $-1 $191 $191 $-1 $285 reversed $113 $-1 #
edge $-1 $286 0 $286 6.2831853071796004 $114 $287 forward 7 unknown #
vertex $-1 $117 $288 #
ellipse-curve $-1 -57.86180287832314 25.186217312567123 8.3116031818576559 -0.57357644374324357 0 0.81915203911291934 2.0478800977822984 0 1.4339411093581089 1 I I #
face $-1 $-1 $289 $25 $-1 $290 reversed single #
loop $-1 $-1 $201 $118 #
plane-surface $-1 0 0 13.235991811966477 0 0 1 1 0 0 forward_v I I I I #
coedge $-1 $291 $292 $200 $293 reversed $119 $-1 #
coedge $-1 $294 $121 $123 $205 forward $74 $-1 #
coedge $-1 $121 $294 $198 $293 forward $74 $-1 #
coedge $-1 $295 $124 $121 $202 forward $196 $-1 #
edge $-1 $208 6.812179305530039 $296 15.167123545593151 $201 $297 forward 7 unknown #
coedge $-1 $298 $299 $122 $204 forward $289 $-1 #
edge $-1 $300 -86.74314708535664 $207 -77.316092562837099 $203 $301 forward 7 unknown #
edge $-1 $208 110.93500830707919 $300 129.78911709952087 $123 $302 forward 7 unknown #
coedge $-1 $124 $295 $298 $303 forward $196 $-1 #
vertex $-1 $204 $304 #
vertex $-1 $125 $305 #
straight-curve $-1 8.6942229639836199 -17.801830731091634 13.235991811966471 -1 0 0 I I #
coedge $-1 $210 $210 $-1 $306 reversed $128 $-1 #
edge $-1 $307 0 $307 6.2831853071796004 $129 $308 forward 7 unknown #
vertex $-1 $132 $309 #
ellipse-curve $-1 56.730489996234709 -23.769648045422429 8.5224645507066974 0.50000000669873634 0 0.8660253999169214 0.8660253999169214 0 -0.50000000669873634 1 I I #
coedge $-1 $214 $214 $-1 $310 reversed $135 $-1 #
edge $-1 $311 0 $311 6.2831853071796004 $136 $312 forward 7 unknown #
vertex $-1 $139 $313 #
ellipse-curve $-1 56.730489996234709 -20.188957656823952 8.5224645507066974 0.50000000669873634 0 0.8660253999169214 0.8660253999169214 0 -0.50000000669873634 1 I I #
face $-1 $-1 $155 $21 $-1 $314 reversed single #
loop $-1 $-1 $234 $140 #
plane-surface $-1 0 42.416843723369212 0 0 -1 0 0 0 -1 forward_v I I I I #
coedge $-1 $315 $232 $235 $316 forward $141 $-1 #
coedge $-1 $238 $143 $144 $226 reversed $88 $-1 #
coedge $-1 $232 $315 $143 $224 reversed $141 $-1 #
edge $-1 $239 -13.235991811966477 $317 13.235991811966477 $223 $318 forward 7 unknown #
coedge $-1 $145 $144 $315 $319 forward $57 $-1 #
edge $-1 $230 -64.894558549760433 $317 64.894558549760433 $222 $320 forward 7 unknown #
coedge $-1 $235 $234 $145 $228 reversed $219 $-1 #
edge $-1 $321 -64.894558549760433 $229 64.894558549760433 $227 $322 forward 7 unknown #
vertex $-1 $147 $323 #
vertex $-1 $241 $324 #
straight-curve $-1 64.894558549760433 0 -13.235991811966477 0 -1 0 I I #
coedge $-1 $221 $223 $148 $233 reversed $141 $-1 #
edge $-1 $236 -42.416843723369212 $239 42.416843723369212 $232 $325 forward 7 unknown #
coedge $-1 $227 $149 $154 $242 forward $219 $-1 #
coedge $-1 $149 $227 $221 $316 reversed $219 $-1 #
vertex $-1 $150 $326 #
straight-curve $-1 0 42.416843723369212 13.235991811966477 -1 0 0 I I #
coedge $-1 $151 $222 $153 $241 reversed $88 $-1 #
vertex $-1 $233 $327 #
straight-curve $-1 0 -42.416843723369212 13.235991811966477 1 0 0 I I #
edge $-1 $156 -13.235991811966477 $230 13.235991811966477 $153 $328 forward 7 unknown #
edge $-1 $157 -13.235991811966477 $229 13.235991811966477 $154 $329 forward 7 unknown #
point $-1 64.894558549760433 -42.416843723369212 13.235991811966477 #
point $-1 64.894558549760433 42.416843723369212 13.235991811966477 #
face $-1 $-1 $172 $22 $-1 $330 reversed single #
loop $-1 $-1 $252 $159 #
plane-surface $-1 0 0 13.235991811966477 0 0 1 1 0 0 forward_v I I I I #
coedge $-1 $331 $162 $167 $257 forward $96 $-1 #
coedge $-1 $162 $331 $332 $333 reversed $96 $-1 #
coedge $-1 $164 $163 $162 $251 reversed $61 $-1 #
edge $-1 $334 -8.2719192640723556 $262 -1.6562258317158838 $162 $335 forward 7 unknown #
coedge $-1 $332 $336 $164 $253 forward $246 $-1 #
edge $-1 $255 -64.894558549760433 $334 64.894558549760433 $252 $337 forward 7 unknown #
coedge $-1 $171 $165 $336 $338 reversed $172 $-1 #
vertex $-1 $166 $339 #
straight-curve $-1 64.894558549760433 -26.156774971154746 4.9640725478941201 0 0 1 I I #
edge $-1 $262 9.0133702975237568 $260 25.273439049738222 $248 $340 forward 7 unknown #
coedge $-1 $341 $168 $171 $264 reversed $160 $-1 #
coedge $-1 $168 $341 $331 $342 forward $160 $-1 #
vertex $-1 $169 $343 #
straight-curve $-1 0 -42.416843723369212 6.6202983796100039 1 0 0 I I #
vertex $-1 $257 $344 #
straight-curve $-1 0 -26.156774971154746 6.6202983796100039 1 0 0 I I #
edge $-1 $345 -13.235991811966477 $173 -6.6202983796100039 $171 $346 forward 7 unknown #
point $-1 64.894558549760433 -42.416843723369212 6.6202983796100039 #
point $-1 64.894558549760433 -26.156774971154746 6.6202983796100039 #
loop $-1 $-1 $184 $176 #
plane-surface $-1 -64.894558549760433 0 0 1 0 0 0 0 -1 forward_v I I I I #
coedge $-1 $270 $179 $181 $274 reversed $104 $-1 #
coedge $-1 $179 $269 $347 $348 reversed $104 $-1 #
coedge $-1 $187 $182 $179 $272 forward $177 $-1 #
edge $-1 $275 -18.840222179253651 $349 -4.7747108363790858 $271 $350 forward 7 unknown #
coedge $-1 $181 $180 $278 $351 reversed $65 $-1 #
edge $-1 $352 3.4744061171064897e-014 $275 17.170818933816602 $269 $353 forward 7 unknown #
vertex $-1 $183 $354 #
straight-curve $-1 -50.829047206885875 12.593108656283562 13.235991811966478 0 1 0 I I #
coedge $-1 $347 $184 $187 $282 reversed $267 $-1 #
coedge $-1 $184 $347 $273 $351 forward $267 $-1 #
vertex $-1 $185 $355 #
straight-curve $-1 -64.894558549760433 15.886285202955005 54.852117239243391 0 0 1 I I #
straight-curve $-1 -64.894558549760461 15.886285202955005 3.3872145517487979 -0.81915203911291934 0 -0.57357644374324357 I I #
edge $-1 $349 -34.486149422179238 $188 -15.886285202955005 $277 $356 forward 7 unknown #
point $-1 -64.894558549760433 15.886285202955005 13.235991811966477 #
point $-1 -50.829047206885868 15.886285202955005 13.235991811966477 #
edge $-1 $357 1 $357 0 $191 $-1 forward 7 unknown #
vertex $-1 $192 $358 #
ellipse-curve $-1 -54.996458840836276 25.186217312567123 4.219467884686888 -0.57357644374324357 0 0.81915203911291934 2.0478800977822984 0 1.4339411093581089 1 I I #
point $-1 -55.813922780540828 25.186217312567123 9.7455442912157402 #
loop $-1 $-1 $203 $195 #
plane-surface $-1 64.894558549760433 0 0 -1 0 0 0 0 1 forward_v I I I I #
coedge $-1 $292 $198 $359 $360 reversed $119 $-1 #
coedge $-1 $198 $291 $295 $361 reversed $119 $-1 #
edge $-1 $362 -129.78911709952087 $296 -110.93500830707919 $198 $363 forward 7 unknown #
coedge $-1 $200 $199 $299 $364 reversed $74 $-1 #
coedge $-1 $206 $201 $292 $361 forward $196 $-1 #
vertex $-1 $361 $365 #
straight-curve $-1 48.566421442708958 -10.989651425561595 13.235991811966478 0 -1 0 I I #
coedge $-1 $359 $203 $206 $303 reversed $289 $-1 #
coedge $-1 $203 $359 $294 $364 forward $289 $-1 #
vertex $-1 $204 $366 #
straight-curve $-1 64.894558549760433 -17.801830731091634 90.55208437480357 0 0 1 I I #
straight-curve $-1 -47.506113491216269 -17.801830731091634 68.703496708630439 0.8660253999169214 0 -0.50000000669873634 I I #
edge $-1 $367 -26.156774971154746 $207 -17.801830731091634 $298 $368 forward 7 unknown #
point $-1 64.894558549760433 -17.801830731091634 13.235991811966477 #
point $-1 48.566421442708972 -17.801830731091634 13.235991811966478 #
edge $-1 $369 1 $369 0 $210 $-1 forward 7 unknown #
vertex $-1 $211 $370 #
ellipse-curve $-1 55.782325671876677 -23.769648045422429 6.880195796330705 0.50000000669873634 0 0.8660253999169214 0.8660253999169214 0 -0.50000000669873634 1 I I #
point $-1 57.596515396151617 -23.769648045422429 8.0224645440079474 #
edge $-1 $371 1 $371 0 $214 $-1 forward 7 unknown #
vertex $-1 $215 $372 #
ellipse-curve $-1 55.782325671876677 -20.188957656823952 6.880195796330705 0.50000000669873634 0 0.8660253999169214 0.8660253999169214 0 -0.50000000669873634 1 I I #
point $-1 57.596515396151617 -20.188957656823952 8.0224645440079474 #
plane-surface $-1 64.894558549760433 0 0 -1 0 0 0 0 1 forward_v I I I I #
coedge $-1 $223 $221 $225 $319 reversed $141 $-1 #
edge $-1 $236 -13.235991811966477 $321 13.235991811966477 $235 $373 forward 7 unknown #
vertex $-1 $319 $374 #
straight-curve $-1 -64.894558549760433 -42.416843723369212 0 0 0 -1 I I #
edge $-1 $317 -42.416843723369212 $321 42.416843723369212 $315 $375 forward 7 unknown #
straight-curve $-1 0 -42.416843723369212 -13.235991811966477 -1 0 0 I I #
vertex $-1 $228 $376 #
straight-curve $-1 0 42.416843723369212 -13.235991811966477 1 0 0 I I #
point $-1 64.894558549760433 42.416843723369212 -13.235991811966477 #
point $-1 64.894558549760433 -42.416843723369212 -13.235991811966477 #
straight-curve $-1 -64.894558549760433 0 13.235991811966477 0 -1 0 I I #
point $-1 -64.894558549760433 42.416843723369212 13.235991811966477 #
point $-1 -64.894558549760433 -42.416843723369212 13.235991811966477 #
straight-curve $-1 64.894558549760433 -42.416843723369212 0 0 0 -1 I I #
straight-curve $-1 64.894558549760433 42.416843723369212 0 0 0 -1 I I #
plane-surface $-1 64.894558549760433 0 0 -1 0 0 0 0 1 forward_v I I I I #
coedge $-1 $249 $248 $259 $342 reversed $96 $-1 #
coedge $-1 $377 $252 $249 $333 forward $246 $-1 #
edge $-1 $334 26.156774971154746 $378 42.416843723369212 $249 $379 forward 7 unknown #
vertex $-1 $333 $380 #
straight-curve $-1 -64.894558549760433 -26.156774971154746 4.9640725478941201 0 0 -1 I I #
coedge $-1 $252 $377 $254 $338 forward $246 $-1 #
straight-curve $-1 0 -26.156774971154746 13.235991811966477 -1 0 0 I I #
edge $-1 $345 -42.416843723369212 $255 -26.156774971154746 $254 $381 forward 7 unknown #
point $-1 64.894558549760433 -26.156774971154746 13.235991811966477 #
straight-curve $-1 -64.894558549760433 -17.14340467363099 6.6202983796100039 0 -1 0 I I #
coedge $-1 $259 $258 $377 $382 reversed $160 $-1 #
edge $-1 $378 -13.235991811966477 $260 -6.6202983796100039 $331 $383 forward 7 unknown #
point $-1 -64.894558549760433 -42.416843723369212 6.6202983796100039 #
point $-1 -64.894558549760433 -26.156774971154746 6.6202983796100039 #
vertex $-1 $338 $384 #
straight-curve $-1 64.894558549760433 -42.416843723369212 0 0 0 -1 I I #
coedge $-1 $278 $277 $270 $348 forward $267 $-1 #
edge $-1 $349 41.616125427276913 $352 51.464902687494572 $347 $385 forward 7 unknown #
vertex $-1 $282 $386 #
straight-curve $-1 -69.669269386139518 34.486149422179238 13.235991811966478 -1 0 0 I I #
edge $-1 $352 -21.893040765895677 $279 -3.2931765466714431 $278 $387 forward 7 unknown #
vertex $-1 $351 $388 #
straight-curve $-1 -64.894558549760461 34.486149422179238 3.3872145517487979 0.81915203911291934 0 0.57357644374324357 I I #
point $-1 -50.829047206885868 34.486149422179238 13.235991811966477 #
point $-1 -64.894558549760433 15.886285202955005 3.3872145517488179 #
straight-curve $-1 -64.894558549760433 0 13.235991811966477 0 -1 0 I I #
vertex $-1 $285 $389 #
point $-1 -52.948578743053979 25.186217312567123 5.6534089940449963 #
coedge $-1 $299 $298 $291 $360 forward $289 $-1 #
edge $-1 $367 77.316092562837099 $362 86.74314708535664 $359 $390 forward 7 unknown #
edge $-1 $296 48.566421442708972 $367 64.894558549760433 $295 $391 forward 7 unknown #
vertex $-1 $360 $392 #
straight-curve $-1 -47.506113491216269 -26.156774971154746 68.703496708630439 -0.8660253999169214 0 0.50000000669873634 I I #
edge $-1 $362 -15.167123545593151 $300 -6.812179305530039 $299 $393 forward 7 unknown #
point $-1 48.566421442708972 -26.156774971154746 13.235991811966478 #
point $-1 64.894558549760433 -17.801830731091634 3.8089372894469307 #
vertex $-1 $303 $394 #
straight-curve $-1 64.894558549760433 0 13.235991811966477 0 1 0 I I #
vertex $-1 $306 $395 #
point $-1 56.648351071793599 -23.769648045422429 6.3801957896319683 #
vertex $-1 $310 $396 #
point $-1 56.648351071793599 -20.188957656823952 6.3801957896319683 #
straight-curve $-1 -64.894558549760433 42.416843723369212 0 0 0 -1 I I #
point $-1 -64.894558549760433 -42.416843723369212 -13.235991811966477 #
straight-curve $-1 -64.894558549760433 0 -13.235991811966477 0 1 0 I I #
point $-1 -64.894558549760433 42.416843723369212 -13.235991811966477 #
coedge $-1 $336 $332 $341 $382 forward $246 $-1 #
vertex $-1 $333 $397 #
straight-curve $-1 -64.894558549760433 0 13.235991811966477 0 -1 0 I I #
point $-1 -64.894558549760433 -26.156774971154746 13.235991811966477 #
straight-curve $-1 64.894558549760433 0 13.235991811966477 0 1 0 I I #
edge $-1 $378 -64.894558549760433 $345 64.894558549760433 $341 $398 forward 7 unknown #
straight-curve $-1 -64.894558549760433 -42.416843723369212 0 0 0 -1 I I #
point $-1 64.894558549760433 -42.416843723369212 13.235991811966477 #
straight-curve $-1 -64.894558549760433 34.486149422179238 54.852117239243391 0 0 -1 I I #
point $-1 -64.894558549760433 34.486149422179238 13.235991811966477 #
straight-curve $-1 -64.894558549760433 12.593108656283562 3.3872145517488152 0 -1 0 I I #
point $-1 -64.894558549760433 34.486149422179238 3.3872145517488179 #
point $-1 -53.562517731478174 25.186217312567123 2.1715877869045892 #
straight-curve $-1 64.894558549760433 -26.156774971154746 90.55208437480357 0 0 -1 I I #
straight-curve $-1 0 -26.156774971154746 13.235991811966477 1 0 0 I I #
point $-1 64.894558549760433 -26.156774971154746 3.8089372894469307 #
straight-curve $-1 64.894558549760447 -10.989651425561595 3.80893728944692 0 1 0 I I #
point $-1 64.894558549760433 -26.156774971154746 13.235991811966477 #
point $-1 55.282325665177936 -23.769648045422429 6.0141703964137836 #
point $-1 55.282325665177936 -20.188957656823952 6.0141703964137836 #
point $-1 -64.894558549760433 -42.416843723369212 13.235991811966477 #
straight-curve $-1 0 -42.416843723369212 13.235991811966477 1 0 0 I I #
End-of-ACIS-data 