500 0 9 0           
7 Unknown 11 ACIS 5.0 NT 24 Thu Mar 25 22:16:05 1999 
-1 9.9999999999999995e-007 1e-010 
body $-1 $9 $-1 $10 #
body $-1 $11 $-1 $12 #
body $-1 $13 $-1 $14 #
body $-1 $15 $-1 $16 #
body $-1 $17 $-1 $18 #
body $-1 $19 $-1 $20 #
body $-1 $21 $-1 $22 #
body $-1 $23 $-1 $24 #
body $-1 $25 $-1 $26 #
lump $-1 $-1 $27 $0 #
transform $-1 1 0 0 0 1 0 0 0 1 75.417340617084264 36.572588295279012 8.6371446047604934 1 rotate no_reflect no_shear #
lump $-1 $-1 $28 $1 #
transform $-1 1 0 0 0 1 0 0 0 1 75.417340617084264 36.572588295279012 8.6371446047604934 1 rotate no_reflect no_shear #
lump $-1 $-1 $29 $2 #
transform $-1 1 0 0 0 1 0 0 0 1 75.417340617084264 36.572588295279012 8.6371446047604934 1 rotate no_reflect no_shear #
lump $-1 $-1 $30 $3 #
transform $-1 1 0 0 0 1 0 0 0 1 75.417340617084264 36.572588295279012 8.6371446047604934 1 rotate no_reflect no_shear #
lump $-1 $-1 $31 $4 #
transform $-1 1 0 0 0 1 0 0 0 1 75.417340617084264 36.572588295279012 8.6371446047604934 1 rotate no_reflect no_shear #
lump $-1 $-1 $32 $5 #
transform $-1 1 0 0 0 1 0 0 0 1 75.417340617084264 36.572588295279012 8.6371446047604934 1 rotate no_reflect no_shear #
lump $-1 $-1 $33 $6 #
transform $-1 1 0 0 0 1 0 0 0 1 75.417340617084264 36.572588295279012 8.6371446047604934 1 rotate no_reflect no_shear #
lump $-1 $-1 $34 $7 #
transform $-1 1 0 0 0 1 0 0 0 1 75.417340617084264 36.572588295279012 8.6371446047604934 1 rotate no_reflect no_shear #
lump $-1 $-1 $35 $8 #
transform $-1 1 0 0 0 1 0 0 0 1 75.417340617084264 36.572588295279012 8.6371446047604934 1 rotate no_reflect no_shear #
shell $-1 $-1 $-1 $36 $-1 $9 #
shell $-1 $-1 $-1 $37 $-1 $11 #
shell $-1 $-1 $-1 $38 $-1 $13 #
shell $-1 $-1 $-1 $39 $-1 $15 #
shell $-1 $-1 $-1 $40 $-1 $17 #
shell $-1 $-1 $-1 $41 $-1 $19 #
shell $-1 $-1 $-1 $42 $-1 $21 #
shell $-1 $-1 $-1 $43 $-1 $23 #
shell $-1 $-1 $-1 $44 $-1 $25 #
face $-1 $45 $46 $27 $-1 $47 forward single #
face $-1 $48 $49 $28 $-1 $50 reversed single #
face $-1 $51 $52 $29 $-1 $53 reversed single #
face $-1 $54 $55 $30 $-1 $56 forward single #
face $-1 $57 $58 $31 $-1 $59 forward single #
face $-1 $60 $61 $32 $-1 $62 forward single #
face $-1 $63 $64 $33 $-1 $65 reversed single #
face $-1 $66 $67 $34 $-1 $68 forward single #
face $-1 $69 $70 $35 $-1 $71 forward single #
face $-1 $72 $73 $27 $-1 $74 reversed single #
loop $-1 $-1 $75 $36 #
plane-surface $-1 0 0 8.6371446047604934 0 0 1 1 0 0 forward_v I I I I #
face $-1 $76 $77 $28 $-1 $78 reversed single #
loop $-1 $-1 $79 $37 #
plane-surface $-1 -70.342251765781171 0 5.6371446047604934 0 0 1 1 0 0 forward_v I I I I #
face $-1 $80 $81 $29 $-1 $82 reversed single #
loop $-1 $-1 $83 $38 #
plane-surface $-1 -44.732486534039182 125.72661651213966 143.36069682955971 1 0 0 0 -0.84804810408105047 -0.52991925155115449 forward_v I I I I #
face $-1 $84 $85 $30 $-1 $86 forward single #
loop $-1 $87 $88 $39 #
cone-surface $-1 -37.673573839674681 33.150357019471102 4.292998257781476 0 -0.84804810408105047 -0.52991925155115449 1 0 0 1 I I 0 1 1 forward I I I I #
face $-1 $89 $90 $31 $-1 $91 forward single #
loop $-1 $92 $93 $40 #
cone-surface $-1 -27.085204798127933 33.150357019471102 4.292998257781476 0 -0.84804810408105047 -0.52991925155115449 1 0 0 1 I I 0 1 1 forward I I I I #
face $-1 $94 $95 $32 $-1 $96 forward single #
loop $-1 $97 $98 $41 #
cone-surface $-1 -16.496835756581177 33.150357019471102 4.292998257781476 0 -0.84804810408105047 -0.52991925155115449 1 0 0 1 I I 0 1 1 forward I I I I #
face $-1 $99 $100 $33 $-1 $101 reversed single #
loop $-1 $-1 $102 $42 #
plane-surface $-1 -24.690237583734934 -120.91827273491225 126.22762075295219 -1 0 0 0 -0.55919291073839883 0.82903756765294845 forward_v I I I I #
face $-1 $103 $104 $34 $-1 $105 forward single #
loop $-1 $106 $107 $43 #
cone-surface $-1 -41.67126301665337 -30.480254880055526 4.0716678790031251 0 0.55919291073839883 -0.82903756765294845 1.5 0 0 1 I I 0 1 1.5 forward I I I I #
face $-1 $108 $109 $35 $-1 $110 forward single #
loop $-1 $111 $112 $44 #
cone-surface $-1 -31.48264775690231 -30.480254880055526 4.0716678790031251 0 0.55919291073839883 -0.82903756765294845 1.5 0 0 1 I I 0 1 1.5 forward I I I I #
face $-1 $113 $114 $27 $-1 $115 reversed single #
loop $-1 $-1 $116 $45 #
plane-surface $-1 0 0 -8.6371446047604934 0 0 1 1 0 0 forward_v I I I I #
coedge $-1 $117 $118 $119 $120 forward $46 $-1 #
face $-1 $121 $122 $28 $-1 $123 reversed single #
loop $-1 $-1 $124 $48 #
plane-surface $-1 -65.267162914478078 0 7.1371446047604934 -1 0 0 0 0 1 forward_v I I I I #
coedge $-1 $125 $126 $127 $128 forward $49 $-1 #
face $-1 $129 $130 $29 $-1 $131 reversed single #
loop $-1 $-1 $132 $51 #
plane-surface $-1 -27.085204798127933 -2.1884489381665588 63.430495441992164 0 0.84804810408105047 0.52991925155115449 1 0 0 forward_v I I I I #
coedge $-1 $133 $134 $135 $136 reversed $52 $-1 #
face $-1 $-1 $137 $30 $-1 $138 forward single #
loop $-1 $139 $140 $54 #
cone-surface $-1 -37.673573839674681 31.565278064718093 3.3025310315592193 0 -0.84804810408105047 -0.52991925155115449 0.5 0 0 1 I I -0.70710678118654746 0.70710678118654746 0.5 forward I I I I #
loop $-1 $-1 $141 $39 #
coedge $-1 $88 $88 $142 $143 reversed $55 $-1 #
face $-1 $-1 $144 $31 $-1 $145 forward single #
loop $-1 $146 $147 $57 #
cone-surface $-1 -27.085204798127933 31.565278064718093 3.3025310315592193 0 -0.84804810408105047 -0.52991925155115449 0.5 0 0 1 I I -0.70710678118654746 0.70710678118654746 0.5 forward I I I I #
loop $-1 $-1 $148 $40 #
coedge $-1 $93 $93 $149 $150 reversed $58 $-1 #
face $-1 $-1 $151 $32 $-1 $152 forward single #
loop $-1 $153 $154 $60 #
cone-surface $-1 -16.496835756581177 31.565278064718093 3.3025310315592193 0 -0.84804810408105047 -0.52991925155115449 0.5 0 0 1 I I -0.70710678118654746 0.70710678118654746 0.5 forward I I I I #
loop $-1 $-1 $155 $41 #
coedge $-1 $98 $98 $156 $157 reversed $61 $-1 #
face $-1 $158 $159 $33 $-1 $160 reversed single #
loop $-1 $-1 $161 $63 #
plane-surface $-1 -36.57695538677784 -36.572588295279004 1.1800035048692905 0 -0.55919291073839883 0.82903756765294845 1 0 0 forward_v I I I I #
coedge $-1 $162 $163 $164 $165 reversed $64 $-1 #
face $-1 $-1 $166 $34 $-1 $167 forward single #
loop $-1 $168 $169 $66 #
cone-surface $-1 -41.67126301665337 -29.496359842944145 2.6129835274516449 0 0.55919291073839883 -0.82903756765294845 0.75 0 0 1 I I -0.70710678118654757 0.70710678118654757 0.75 forward I I I I #
loop $-1 $-1 $170 $43 #
coedge $-1 $107 $107 $171 $172 reversed $67 $-1 #
face $-1 $-1 $173 $35 $-1 $174 forward single #
loop $-1 $175 $176 $69 #
cone-surface $-1 -31.48264775690231 -29.496359842944145 2.6129835274516449 0 0.55919291073839883 -0.82903756765294845 0.75 0 0 1 I I -0.70710678118654757 0.70710678118654757 0.75 forward I I I I #
loop $-1 $-1 $177 $44 #
coedge $-1 $112 $112 $178 $179 reversed $70 $-1 #
face $-1 $180 $181 $27 $-1 $182 reversed single #
loop $-1 $-1 $183 $72 #
plane-surface $-1 0 -36.572588295279012 0 0 1 0 0 0 1 forward_v I I I I #
coedge $-1 $184 $185 $186 $187 forward $73 $-1 #
coedge $-1 $188 $75 $189 $190 forward $46 $-1 #
coedge $-1 $75 $188 $191 $192 forward $46 $-1 #
coedge $-1 $193 $194 $75 $120 reversed $195 $-1 #
edge $-1 $196 -36.572588295279012 $197 36.572588295279012 $119 $198 forward 7 unknown #
face $-1 $199 $200 $28 $-1 $201 reversed single #
loop $-1 $-1 $202 $76 #
plane-surface $-1 0 36.572588295279012 0 0 -1 0 0 0 -1 forward_v I I I I #
coedge $-1 $127 $203 $204 $205 reversed $77 $-1 #
coedge $-1 $206 $79 $207 $208 reversed $49 $-1 #
coedge $-1 $79 $206 $209 $210 reversed $49 $-1 #
coedge $-1 $211 $124 $79 $128 reversed $77 $-1 #
edge $-1 $212 -36.572588295279012 $213 36.572588295279012 $127 $214 forward 7 unknown #
face $-1 $215 $216 $29 $-1 $217 forward single #
loop $-1 $-1 $218 $80 #
plane-surface $-1 -9.437923062216683 125.72661651213966 143.36069682955971 -1 0 0 0 0.84804810408105047 0.52991925155115449 forward_v I I I I #
coedge $-1 $219 $220 $221 $222 reversed $81 $-1 #
coedge $-1 $134 $83 $223 $224 reversed $52 $-1 #
coedge $-1 $83 $133 $219 $225 reversed $52 $-1 #
coedge $-1 $221 $226 $83 $136 forward $216 $-1 #
edge $-1 $227 26.290719960790817 $228 30.813072706981679 $135 $229 forward 7 unknown #
loop $-1 $-1 $142 $84 #
plane-surface $-1 -27.085204798127933 -2.1884489381665588 63.430495441992164 0 0.84804810408105047 0.52991925155115449 1 0 0 forward_v I I I I #
loop $-1 $-1 $230 $54 #
coedge $-1 $140 $140 $141 $231 reversed $85 $-1 #
coedge $-1 $141 $141 $140 $231 forward $87 $-1 #
coedge $-1 $142 $142 $88 $143 forward $137 $-1 #
edge $-1 $232 -2.362131812860923e-018 $232 6.2831853071796004 $142 $233 forward 7 unknown #
loop $-1 $-1 $149 $89 #
plane-surface $-1 -27.085204798127933 -2.1884489381665588 63.430495441992164 0 0.84804810408105047 0.52991925155115449 1 0 0 forward_v I I I I #
loop $-1 $-1 $234 $57 #
coedge $-1 $147 $147 $148 $235 reversed $90 $-1 #
coedge $-1 $148 $148 $147 $235 forward $92 $-1 #
coedge $-1 $149 $149 $93 $150 forward $144 $-1 #
edge $-1 $236 -2.362131812860923e-018 $236 6.2831853071796004 $149 $237 forward 7 unknown #
loop $-1 $-1 $156 $94 #
plane-surface $-1 -27.085204798127933 -2.1884489381665588 63.430495441992164 0 0.84804810408105047 0.52991925155115449 1 0 0 forward_v I I I I #
loop $-1 $-1 $238 $60 #
coedge $-1 $154 $154 $155 $239 reversed $95 $-1 #
coedge $-1 $155 $155 $154 $239 forward $97 $-1 #
coedge $-1 $156 $156 $98 $157 forward $151 $-1 #
edge $-1 $240 -2.362131812860923e-018 $240 6.2831853071796004 $156 $241 forward 7 unknown #
face $-1 $242 $243 $33 $-1 $244 reversed single #
loop $-1 $-1 $245 $99 #
plane-surface $-1 -48.463673189820746 -120.91827273491225 126.22762075295219 1 0 0 0 0.55919291073839883 -0.82903756765294845 forward_v I I I I #
coedge $-1 $246 $247 $248 $249 reversed $100 $-1 #
coedge $-1 $163 $102 $250 $251 reversed $64 $-1 #
coedge $-1 $102 $162 $246 $252 reversed $64 $-1 #
coedge $-1 $248 $253 $102 $165 forward $254 $-1 #
edge $-1 $255 23.886548072177114 $256 34.942214194508935 $164 $257 forward 7 unknown #
loop $-1 $-1 $171 $103 #
plane-surface $-1 -36.57695538677784 -36.572588295279004 1.1800035048692905 0 -0.55919291073839883 0.82903756765294845 1 0 0 forward_v I I I I #
loop $-1 $-1 $258 $66 #
coedge $-1 $169 $169 $170 $259 reversed $104 $-1 #
coedge $-1 $170 $170 $169 $259 forward $106 $-1 #
coedge $-1 $171 $171 $107 $172 forward $166 $-1 #
edge $-1 $260 3.5420561568658957e-016 $260 6.2831853071796004 $171 $261 forward 7 unknown #
loop $-1 $-1 $178 $108 #
plane-surface $-1 -36.57695538677784 -36.572588295279004 1.1800035048692905 0 -0.55919291073839883 0.82903756765294845 1 0 0 forward_v I I I I #
loop $-1 $-1 $262 $69 #
coedge $-1 $176 $176 $177 $263 reversed $109 $-1 #
coedge $-1 $177 $177 $176 $263 forward $111 $-1 #
coedge $-1 $178 $178 $112 $179 forward $173 $-1 #
edge $-1 $264 3.5420561568658957e-016 $264 6.2831853071796004 $178 $265 forward 7 unknown #
face $-1 $266 $267 $27 $-1 $268 reversed single #
loop $-1 $-1 $269 $113 #
plane-surface $-1 -75.417340617084264 0 0 1 0 0 0 0 -1 forward_v I I I I #
coedge $-1 $270 $191 $271 $272 forward $114 $-1 #
coedge $-1 $273 $116 $270 $274 forward $73 $-1 #
coedge $-1 $116 $273 $275 $276 forward $73 $-1 #
coedge $-1 $194 $193 $116 $187 reversed $195 $-1 #
edge $-1 $277 -36.572588295279012 $278 36.572588295279012 $186 $279 forward 7 unknown #
coedge $-1 $118 $117 $280 $281 forward $46 $-1 #
coedge $-1 $282 $283 $117 $190 reversed $267 $-1 #
edge $-1 $197 -75.417340617084264 $284 75.417340617084264 $189 $285 forward 7 unknown #
coedge $-1 $183 $286 $118 $192 reversed $114 $-1 #
edge $-1 $287 -75.417340617084264 $196 75.417340617084264 $191 $288 forward 7 unknown #
coedge $-1 $186 $119 $286 $289 forward $195 $-1 #
coedge $-1 $119 $186 $282 $290 reversed $195 $-1 #
loop $-1 $-1 $193 $266 #
vertex $-1 $120 $291 #
vertex $-1 $120 $292 #
straight-curve $-1 75.417340617084264 0 8.6371446047604934 0 1 0 I I #
face $-1 $293 $294 $28 $-1 $295 forward single #
loop $-1 $-1 $296 $121 #
plane-surface $-1 -75.417340617084264 0 0 1 0 0 0 0 -1 forward_v I I I I #
coedge $-1 $209 $297 $211 $298 forward $122 $-1 #
coedge $-1 $124 $211 $299 $300 reversed $77 $-1 #
coedge $-1 $301 $207 $124 $205 forward $302 $-1 #
edge $-1 $213 2.0685723023802467 $303 5.0685723023802467 $204 $304 forward 7 unknown #
coedge $-1 $126 $125 $296 $305 reversed $49 $-1 #
coedge $-1 $204 $306 $125 $208 forward $302 $-1 #
edge $-1 $307 -40.246214734193678 $213 -30.096037031587493 $207 $308 forward 7 unknown #
coedge $-1 $309 $202 $126 $210 forward $122 $-1 #
edge $-1 $212 30.096037031587493 $310 40.246214734193678 $209 $311 forward 7 unknown #
coedge $-1 $203 $127 $202 $298 reversed $77 $-1 #
vertex $-1 $210 $312 #
vertex $-1 $208 $313 #
straight-curve $-1 -65.267162914478078 0 5.6371446047604934 0 -1 0 I I #
face $-1 $-1 $314 $29 $-1 $315 reversed single #
loop $-1 $-1 $135 $129 #
plane-surface $-1 0 0 8.6371446047604934 0 0 1 1 0 0 forward_v I I I I #
coedge $-1 $316 $317 $318 $319 reversed $130 $-1 #
coedge $-1 $320 $132 $134 $225 forward $81 $-1 #
coedge $-1 $132 $320 $316 $321 forward $81 $-1 #
coedge $-1 $318 $135 $132 $222 forward $216 $-1 #
edge $-1 $228 -31.189884134975216 $322 4.1046793368472834 $221 $323 forward 7 unknown #
coedge $-1 $324 $325 $133 $224 forward $314 $-1 #
edge $-1 $326 -70.280481303084116 $227 -63.043203810019364 $223 $327 forward 7 unknown #
edge $-1 $228 64.611135351344302 $326 73.145176590558094 $134 $328 forward 7 unknown #
coedge $-1 $135 $318 $324 $329 forward $216 $-1 #
vertex $-1 $224 $330 #
vertex $-1 $136 $331 #
straight-curve $-1 -44.732486534039182 62.863308256069828 8.6371446047604934 0 -1 0 I I #
coedge $-1 $230 $230 $-1 $332 reversed $139 $-1 #
edge $-1 $333 0 $333 6.2831853071796004 $140 $334 forward 7 unknown #
vertex $-1 $143 $335 #
ellipse-curve $-1 -37.673573839674681 34.311411922183567 5.0185058582281421 0 0.84804810408105047 0.52991925155115449 1 0 0 1 I I #
coedge $-1 $234 $234 $-1 $336 reversed $146 $-1 #
edge $-1 $337 0 $337 6.2831853071796004 $147 $338 forward 7 unknown #
vertex $-1 $150 $339 #
ellipse-curve $-1 -27.085204798127933 34.311411922183567 5.0185058582281421 0 0.84804810408105047 0.52991925155115449 1 0 0 1 I I #
coedge $-1 $238 $238 $-1 $340 reversed $153 $-1 #
edge $-1 $341 0 $341 6.2831853071796004 $154 $342 forward 7 unknown #
vertex $-1 $157 $343 #
ellipse-curve $-1 -16.496835756581177 34.311411922183567 5.0185058582281421 0 0.84804810408105047 0.52991925155115449 1 0 0 1 I I #
face $-1 $-1 $254 $33 $-1 $344 forward single #
loop $-1 $-1 $345 $158 #
plane-surface $-1 0 -36.572588295279012 0 0 1 0 0 0 1 forward_v I I I I #
coedge $-1 $346 $347 $348 $349 reversed $159 $-1 #
coedge $-1 $350 $161 $163 $252 forward $100 $-1 #
coedge $-1 $161 $350 $346 $351 forward $100 $-1 #
coedge $-1 $348 $164 $161 $249 forward $254 $-1 #
edge $-1 $256 6.401759890346014 $352 30.175195496431826 $248 $353 forward 7 unknown #
coedge $-1 $354 $355 $162 $251 forward $243 $-1 #
edge $-1 $356 -61.933806871606812 $255 -54.476665771715602 $250 $357 forward 7 unknown #
edge $-1 $256 -13.335542988276178 $356 8.6223131303995443e-015 $163 $358 forward 7 unknown #
coedge $-1 $164 $348 $354 $359 forward $254 $-1 #
loop $-1 $-1 $348 $242 #
vertex $-1 $251 $360 #
vertex $-1 $165 $361 #
straight-curve $-1 -24.690237583734934 -60.459136367456125 8.6371446047604934 0 1 0 I I #
coedge $-1 $258 $258 $-1 $362 reversed $168 $-1 #
edge $-1 $363 0 $363 6.2831853071796004 $169 $364 forward 7 unknown #
vertex $-1 $172 $365 #
ellipse-curve $-1 -41.67126301665337 -31.044755234113101 4.9085740548148875 0 -0.55919291073839883 0.82903756765294845 1.5 0 0 1 I I #
coedge $-1 $262 $262 $-1 $366 reversed $175 $-1 #
edge $-1 $367 0 $367 6.2831853071796004 $176 $368 forward 7 unknown #
vertex $-1 $179 $369 #
ellipse-curve $-1 -31.48264775690231 -31.044755234113101 4.9085740548148875 0 -0.55919291073839883 0.82903756765294845 1.5 0 0 1 I I #
face $-1 $-1 $195 $27 $-1 $370 reversed single #
loop $-1 $-1 $282 $180 #
plane-surface $-1 0 36.572588295279012 0 0 -1 0 0 0 -1 forward_v I I I I #
coedge $-1 $371 $280 $283 $372 forward $181 $-1 #
coedge $-1 $286 $183 $184 $274 reversed $114 $-1 #
coedge $-1 $280 $371 $183 $272 reversed $181 $-1 #
edge $-1 $287 -8.6371446047604934 $373 8.6371446047604934 $271 $374 forward 7 unknown #
coedge $-1 $185 $184 $371 $375 forward $73 $-1 #
edge $-1 $278 -75.417340617084264 $373 75.417340617084264 $270 $376 forward 7 unknown #
coedge $-1 $283 $282 $185 $276 reversed $267 $-1 #
edge $-1 $377 -75.417340617084264 $277 75.417340617084264 $275 $378 forward 7 unknown #
vertex $-1 $187 $379 #
vertex $-1 $289 $380 #
straight-curve $-1 75.417340617084264 0 -8.6371446047604934 0 -1 0 I I #
coedge $-1 $269 $271 $188 $281 reversed $181 $-1 #
edge $-1 $284 -36.572588295279012 $287 36.572588295279012 $280 $381 forward 7 unknown #
coedge $-1 $275 $189 $194 $290 forward $267 $-1 #
coedge $-1 $189 $275 $269 $372 reversed $267 $-1 #
vertex $-1 $190 $382 #
straight-curve $-1 0 36.572588295279012 8.6371446047604934 -1 0 0 I I #
coedge $-1 $191 $270 $193 $289 reversed $114 $-1 #
vertex $-1 $281 $383 #
straight-curve $-1 0 -36.572588295279012 8.6371446047604934 1 0 0 I I #
edge $-1 $196 -8.6371446047604934 $278 8.6371446047604934 $193 $384 forward 7 unknown #
edge $-1 $197 -8.6371446047604934 $277 8.6371446047604934 $194 $385 forward 7 unknown #
point $-1 75.417340617084264 -36.572588295279012 8.6371446047604934 #
point $-1 75.417340617084264 36.572588295279012 8.6371446047604934 #
face $-1 $-1 $302 $28 $-1 $386 reversed single #
loop $-1 $-1 $299 $199 #
plane-surface $-1 0 0 8.6371446047604934 0 0 1 1 0 0 forward_v I I I I #
coedge $-1 $387 $388 $206 $305 forward $200 $-1 #
coedge $-1 $202 $309 $389 $390 reversed $122 $-1 #
edge $-1 $391 -5.0685723023802467 $212 -2.0685723023802467 $202 $392 forward 7 unknown #
coedge $-1 $389 $393 $203 $300 forward $294 $-1 #
edge $-1 $303 -36.572588295279012 $391 36.572588295279012 $299 $394 forward 7 unknown #
coedge $-1 $306 $204 $393 $395 reversed $302 $-1 #
loop $-1 $-1 $204 $293 #
vertex $-1 $205 $396 #
straight-curve $-1 -65.267162914478078 -36.572588295279012 3.5685723023802467 0 0 1 I I #
edge $-1 $310 -36.572588295279012 $307 36.572588295279012 $296 $397 forward 7 unknown #
coedge $-1 $207 $301 $387 $398 forward $302 $-1 #
vertex $-1 $305 $399 #
straight-curve $-1 -35.171125882890586 -36.572588295279012 5.6371446047604934 1 0 0 I I #
coedge $-1 $297 $209 $388 $400 reversed $122 $-1 #
vertex $-1 $305 $401 #
straight-curve $-1 -35.171125882890586 36.572588295279012 5.6371446047604934 -1 0 0 I I #
point $-1 -65.267162914478078 36.572588295279012 5.6371446047604934 #
point $-1 -65.267162914478078 -36.572588295279012 5.6371446047604934 #
loop $-1 $-1 $223 $215 #
plane-surface $-1 0 36.572588295279012 0 0 -1 0 0 0 -1 forward_v I I I I #
coedge $-1 $317 $218 $220 $321 reversed $130 $-1 #
coedge $-1 $218 $316 $402 $403 reversed $130 $-1 #
coedge $-1 $226 $221 $218 $319 forward $216 $-1 #
edge $-1 $322 -30.813072706981679 $404 -26.290719960790817 $318 $405 forward 7 unknown #
coedge $-1 $220 $219 $325 $406 reversed $81 $-1 #
edge $-1 $407 -73.145176590558094 $322 -64.611135351344302 $316 $408 forward 7 unknown #
vertex $-1 $222 $409 #
straight-curve $-1 -13.542602399063966 32.050235549088157 8.6371446047604934 1 0 0 I I #
coedge $-1 $402 $223 $226 $329 reversed $314 $-1 #
coedge $-1 $223 $402 $320 $406 forward $314 $-1 #
vertex $-1 $224 $410 #
straight-curve $-1 -44.732486534039182 36.572588295279012 71.680348414779857 0 0 1 I I #
straight-curve $-1 -44.732486534039182 -2.1884489381665588 63.430495441992164 0 0.52991925155115449 -0.84804810408105047 I I #
edge $-1 $404 9.437923062216683 $227 44.732486534039182 $324 $411 forward 7 unknown #
point $-1 -44.732486534039182 36.572588295279012 8.6371446047604934 #
point $-1 -44.732486534039182 32.05023554908815 8.6371446047604934 #
edge $-1 $412 1 $412 0 $230 $-1 forward 7 unknown #
vertex $-1 $231 $413 #
ellipse-curve $-1 -37.673573839674681 31.989302116758619 3.5674906573347966 0 0.84804810408105047 0.52991925155115449 1 0 0 1 I I #
point $-1 -36.673573839674681 34.311411922183588 5.0185058582281554 #
edge $-1 $414 1 $414 0 $234 $-1 forward 7 unknown #
vertex $-1 $235 $415 #
ellipse-curve $-1 -27.085204798127933 31.989302116758619 3.5674906573347966 0 0.84804810408105047 0.52991925155115449 1 0 0 1 I I #
point $-1 -26.085204798127933 34.311411922183588 5.0185058582281554 #
edge $-1 $416 1 $416 0 $238 $-1 forward 7 unknown #
vertex $-1 $239 $417 #
ellipse-curve $-1 -16.496835756581177 31.989302116758619 3.5674906573347966 0 0.84804810408105047 0.52991925155115449 1 0 0 1 I I #
point $-1 -15.496835756581177 34.311411922183588 5.0185058582281554 #
plane-surface $-1 0 0 8.6371446047604934 0 0 1 1 0 0 forward_v I I I I #
coedge $-1 $355 $354 $347 $418 forward $243 $-1 #
coedge $-1 $347 $245 $247 $351 reversed $159 $-1 #
coedge $-1 $245 $346 $345 $418 reversed $159 $-1 #
coedge $-1 $253 $248 $245 $349 forward $254 $-1 #
edge $-1 $352 -34.942214194508935 $419 -23.886548072177114 $348 $420 forward 7 unknown #
coedge $-1 $247 $246 $355 $421 reversed $100 $-1 #
edge $-1 $422 -8.6223131303995443e-015 $352 13.335542988276178 $346 $423 forward 7 unknown #
vertex $-1 $249 $424 #
straight-curve $-1 -18.28847769338892 -25.516922172947186 8.6371446047604934 -1 0 0 I I #
coedge $-1 $345 $250 $253 $359 reversed $243 $-1 #
coedge $-1 $250 $345 $350 $421 forward $243 $-1 #
vertex $-1 $251 $425 #
straight-curve $-1 -24.690237583734934 -36.572588295279012 63.113810376476096 0 0 1 I I #
straight-curve $-1 -24.690237583734934 -36.572588295279004 1.1800035048692905 0 -0.82903756765294845 -0.55919291073839883 I I #
edge $-1 $419 -48.463673189820746 $255 -24.690237583734934 $354 $426 forward 7 unknown #
point $-1 -24.690237583734934 -36.572588295279012 8.6371446047604934 #
point $-1 -24.690237583734934 -25.51692217294719 8.6371446047604934 #
edge $-1 $427 1 $427 0 $258 $-1 forward 7 unknown #
vertex $-1 $259 $428 #
ellipse-curve $-1 -41.67126301665337 -29.915754525997944 3.2347617031913565 0 -0.55919291073839883 0.82903756765294845 1.5 0 0 1 I I #
point $-1 -40.17126301665337 -31.044755234113104 4.9085740548148937 #
edge $-1 $429 1 $429 0 $262 $-1 forward 7 unknown #
vertex $-1 $263 $430 #
ellipse-curve $-1 -31.48264775690231 -29.915754525997944 3.2347617031913565 0 -0.55919291073839883 0.82903756765294845 1.5 0 0 1 I I #
point $-1 -29.98264775690231 -31.044755234113104 4.9085740548148937 #
plane-surface $-1 75.417340617084264 0 0 -1 0 0 0 0 1 forward_v I I I I #
coedge $-1 $271 $269 $273 $375 reversed $181 $-1 #
edge $-1 $284 -8.6371446047604934 $377 8.6371446047604934 $283 $431 forward 7 unknown #
vertex $-1 $375 $432 #
straight-curve $-1 -75.417340617084264 -36.572588295279012 0 0 0 -1 I I #
edge $-1 $373 -36.572588295279012 $377 36.572588295279012 $371 $433 forward 7 unknown #
straight-curve $-1 0 -36.572588295279012 -8.6371446047604934 -1 0 0 I I #
vertex $-1 $276 $434 #
straight-curve $-1 0 36.572588295279012 -8.6371446047604934 1 0 0 I I #
point $-1 75.417340617084264 36.572588295279012 -8.6371446047604934 #
point $-1 75.417340617084264 -36.572588295279012 -8.6371446047604934 #
straight-curve $-1 -75.417340617084264 0 8.6371446047604934 0 -1 0 I I #
point $-1 -75.417340617084264 36.572588295279012 8.6371446047604934 #
point $-1 -75.417340617084264 -36.572588295279012 8.6371446047604934 #
straight-curve $-1 75.417340617084264 -36.572588295279012 0 0 0 -1 I I #
straight-curve $-1 75.417340617084264 36.572588295279012 0 0 0 -1 I I #
plane-surface $-1 0 -36.572588295279012 0 0 1 0 0 0 1 forward_v I I I I #
coedge $-1 $435 $296 $306 $398 reversed $200 $-1 #
coedge $-1 $296 $435 $309 $400 forward $200 $-1 #
coedge $-1 $436 $299 $297 $390 forward $294 $-1 #
edge $-1 $391 65.267162914478078 $437 75.417340617084264 $297 $438 forward 7 unknown #
vertex $-1 $390 $439 #
straight-curve $-1 -65.267162914478078 36.572588295279012 3.5685723023802467 0 0 -1 I I #
coedge $-1 $299 $436 $301 $395 forward $294 $-1 #
straight-curve $-1 -65.267162914478078 0 8.6371446047604934 0 1 0 I I #
edge $-1 $440 -75.417340617084264 $303 -65.267162914478078 $301 $441 forward 7 unknown #
point $-1 -65.267162914478078 -36.572588295279012 8.6371446047604934 #
straight-curve $-1 -75.417340617084264 0 5.6371446047604934 0 -1 0 I I #
edge $-1 $440 -8.6371446047604934 $307 -5.6371446047604934 $387 $442 forward 7 unknown #
point $-1 -75.417340617084264 -36.572588295279012 5.6371446047604934 #
edge $-1 $437 -8.6371446047604934 $310 -5.6371446047604934 $309 $443 forward 7 unknown #
point $-1 -75.417340617084264 36.572588295279012 5.6371446047604934 #
coedge $-1 $325 $324 $317 $403 forward $314 $-1 #
edge $-1 $404 63.043203810019364 $407 70.280481303084116 $402 $444 forward 7 unknown #
vertex $-1 $329 $445 #
straight-curve $-1 -9.437923062216683 62.863308256069828 8.6371446047604934 0 1 0 I I #
edge $-1 $407 -4.1046793368472834 $326 31.189884134975216 $325 $446 forward 7 unknown #
vertex $-1 $406 $447 #
straight-curve $-1 -9.437923062216683 -2.1884489381665588 63.430495441992164 0 -0.52991925155115449 0.84804810408105047 I I #
point $-1 -9.437923062216683 32.05023554908815 8.6371446047604934 #
point $-1 -44.732486534039182 36.572588295279012 1.399867111695734 #
straight-curve $-1 0 36.572588295279012 8.6371446047604934 -1 0 0 I I #
vertex $-1 $332 $448 #
point $-1 -36.673573839674681 31.989302116758619 3.5674906573347966 #
vertex $-1 $336 $449 #
point $-1 -26.085204798127933 31.989302116758619 3.5674906573347966 #
vertex $-1 $340 $450 #
point $-1 -15.496835756581177 31.989302116758619 3.5674906573347966 #
edge $-1 $419 54.476665771715602 $422 61.933806871606812 $345 $451 forward 7 unknown #
vertex $-1 $359 $452 #
straight-curve $-1 -48.463673189820746 -60.459136367456125 8.6371446047604934 0 -1 0 I I #
edge $-1 $422 -30.175195496431826 $356 -6.401759890346014 $355 $453 forward 7 unknown #
vertex $-1 $421 $454 #
straight-curve $-1 -48.463673189820746 -36.572588295279004 1.1800035048692905 0 0.82903756765294845 0.55919291073839883 I I #
point $-1 -48.463673189820746 -25.51692217294719 8.6371446047604934 #
point $-1 -24.690237583734934 -36.572588295279012 1.1800035048692856 #
straight-curve $-1 0 -36.572588295279012 8.6371446047604934 1 0 0 I I #
vertex $-1 $362 $455 #
point $-1 -40.17126301665337 -29.915754525997944 3.2347617031913565 #
vertex $-1 $366 $456 #
point $-1 -29.98264775690231 -29.915754525997944 3.2347617031913565 #
straight-curve $-1 -75.417340617084264 36.572588295279012 0 0 0 -1 I I #
point $-1 -75.417340617084264 -36.572588295279012 -8.6371446047604934 #
straight-curve $-1 -75.417340617084264 0 -8.6371446047604934 0 1 0 I I #
point $-1 -75.417340617084264 36.572588295279012 -8.6371446047604934 #
coedge $-1 $388 $387 $436 $457 reversed $200 $-1 #
coedge $-1 $393 $389 $435 $457 forward $294 $-1 #
vertex $-1 $390 $458 #
straight-curve $-1 0 36.572588295279012 8.6371446047604934 -1 0 0 I I #
point $-1 -65.267162914478078 36.572588295279012 8.6371446047604934 #
vertex $-1 $457 $459 #
straight-curve $-1 0 -36.572588295279012 8.6371446047604934 1 0 0 I I #
straight-curve $-1 -75.417340617084264 -36.572588295279012 0 0 0 -1 I I #
straight-curve $-1 -75.417340617084264 36.572588295279012 0 0 0 -1 I I #
straight-curve $-1 -9.437923062216683 36.572588295279012 71.680348414779857 0 0 -1 I I #
point $-1 -9.437923062216683 36.572588295279012 8.6371446047604934 #
straight-curve $-1 -13.542602399063966 36.572588295279004 1.3998671116957446 -1 0 0 I I #
point $-1 -9.437923062216683 36.572588295279012 1.399867111695734 #
point $-1 -37.673573839674681 31.141254012677567 3.037571405783642 #
point $-1 -27.085204798127933 31.141254012677567 3.037571405783642 #
point $-1 -16.496835756581177 31.141254012677567 3.037571405783642 #
straight-curve $-1 -48.463673189820746 -36.572588295279012 63.113810376476096 0 0 -1 I I #
point $-1 -48.463673189820746 -36.572588295279012 8.6371446047604934 #
straight-curve $-1 -18.28847769338892 -36.572588295279012 1.1800035048692847 1 0 0 I I #
point $-1 -48.463673189820746 -36.572588295279012 1.1800035048692856 #
point $-1 -41.67126301665337 -29.076965159890346 1.9912053517119335 #
point $-1 -31.48264775690231 -29.076965159890346 1.9912053517119335 #
edge $-1 $437 -36.572588295279012 $440 36.572588295279012 $435 $460 forward 7 unknown #
point $-1 -75.417340617084264 36.572588295279012 8.6371446047604934 #
point $-1 -75.417340617084264 -36.572588295279012 8.6371446047604934 #
straight-curve $-1 -75.417340617084264 0 8.6371446047604934 0 -1 0 I I #
End-of-ACIS-data 