500 0 9 0           
7 Unknown 11 ACIS 5.0 NT 24 Fri Mar 26 02:10:36 1999 
-1 9.9999999999999995e-007 1e-010 
body $-1 $9 $-1 $10 #
body $-1 $11 $-1 $12 #
body $-1 $13 $-1 $14 #
body $-1 $15 $-1 $16 #
body $-1 $17 $-1 $18 #
body $-1 $19 $-1 $20 #
body $-1 $21 $-1 $22 #
body $-1 $23 $-1 $24 #
body $-1 $25 $-1 $26 #
lump $-1 $-1 $27 $0 #
transform $-1 1 0 0 0 1 0 0 0 1 77.333903012176876 42.884477818621171 19.942780727701216 1 rotate no_reflect no_shear #
lump $-1 $-1 $28 $1 #
transform $-1 1 0 0 0 1 0 0 0 1 77.333903012176876 42.884477818621171 19.942780727701216 1 rotate no_reflect no_shear #
lump $-1 $-1 $29 $2 #
transform $-1 1 0 0 0 1 0 0 0 1 77.333903012176876 42.884477818621171 19.942780727701216 1 rotate no_reflect no_shear #
lump $-1 $-1 $30 $3 #
transform $-1 1 0 0 0 1 0 0 0 1 77.333903012176876 42.884477818621171 19.942780727701216 1 rotate no_reflect no_shear #
lump $-1 $-1 $31 $4 #
transform $-1 1 0 0 0 1 0 0 0 1 77.333903012176876 42.884477818621171 19.942780727701216 1 rotate no_reflect no_shear #
lump $-1 $-1 $32 $5 #
transform $-1 1 0 0 0 1 0 0 0 1 77.333903012176876 42.884477818621171 19.942780727701216 1 rotate no_reflect no_shear #
lump $-1 $-1 $33 $6 #
transform $-1 1 0 0 0 1 0 0 0 1 77.333903012176876 42.884477818621171 19.942780727701216 1 rotate no_reflect no_shear #
lump $-1 $-1 $34 $7 #
transform $-1 1 0 0 0 1 0 0 0 1 77.333903012176876 42.884477818621171 19.942780727701216 1 rotate no_reflect no_shear #
lump $-1 $-1 $35 $8 #
transform $-1 1 0 0 0 1 0 0 0 1 77.333903012176876 42.884477818621171 19.942780727701216 1 rotate no_reflect no_shear #
shell $-1 $-1 $-1 $36 $-1 $9 #
shell $-1 $-1 $-1 $37 $-1 $11 #
shell $-1 $-1 $-1 $38 $-1 $13 #
shell $-1 $-1 $-1 $39 $-1 $15 #
shell $-1 $-1 $-1 $40 $-1 $17 #
shell $-1 $-1 $-1 $41 $-1 $19 #
shell $-1 $-1 $-1 $42 $-1 $21 #
shell $-1 $-1 $-1 $43 $-1 $23 #
shell $-1 $-1 $-1 $44 $-1 $25 #
face $-1 $45 $46 $27 $-1 $47 forward single #
face $-1 $48 $49 $28 $-1 $50 forward single #
face $-1 $51 $52 $29 $-1 $53 forward single #
face $-1 $54 $55 $30 $-1 $56 reversed single #
face $-1 $57 $58 $31 $-1 $59 forward single #
face $-1 $60 $61 $32 $-1 $62 forward single #
face $-1 $63 $64 $33 $-1 $65 reversed single #
face $-1 $66 $67 $34 $-1 $68 forward single #
face $-1 $69 $70 $35 $-1 $71 forward single #
face $-1 $72 $73 $27 $-1 $74 reversed single #
loop $-1 $-1 $75 $36 #
plane-surface $-1 0 0 19.942780727701216 0 0 1 1 0 0 forward_v I I I I #
face $-1 $76 $77 $28 $-1 $78 reversed single #
loop $-1 $-1 $79 $37 #
plane-surface $-1 -77.333903012176876 0 0 1 0 0 0 0 -1 forward_v I I I I #
face $-1 $80 $81 $29 $-1 $82 reversed single #
loop $-1 $-1 $83 $38 #
plane-surface $-1 77.333903012176876 0 0 -1 0 0 0 0 1 forward_v I I I I #
face $-1 $84 $85 $30 $-1 $86 reversed single #
loop $-1 $-1 $87 $39 #
plane-surface $-1 -42.646060266700047 58.267932105268578 176.25248134303231 1 0 0 0 -0.55919291073839883 -0.82903756765294845 forward_v I I I I #
face $-1 $88 $89 $31 $-1 $90 forward single #
loop $-1 $91 $92 $40 #
cone-surface $-1 -33.941885729176867 27.613530630181771 9.2089318370639557 0 -0.55919291073839883 -0.82903756765294845 1.5 0 0 1 I I 0 1 1.5 forward I I I I #
face $-1 $93 $94 $32 $-1 $95 forward single #
loop $-1 $96 $97 $41 #
cone-surface $-1 -20.885623922892101 27.613530630181771 9.2089318370639557 0 -0.55919291073839883 -0.82903756765294845 1.5 0 0 1 I I 0 1 1.5 forward I I I I #
face $-1 $98 $99 $33 $-1 $100 reversed single #
loop $-1 $-1 $101 $42 #
plane-surface $-1 19.525182290603489 58.267932105268578 176.25248134303231 1 0 0 0 -0.55919291073839883 -0.82903756765294845 forward_v I I I I #
face $-1 $102 $103 $34 $-1 $104 forward single #
loop $-1 $105 $106 $43 #
cone-surface $-1 28.229356828126669 27.613530630181771 9.2089318370639557 0 -0.55919291073839883 -0.82903756765294845 1.5 0 0 1 I I 0 1 1.5 forward I I I I #
face $-1 $107 $108 $35 $-1 $109 forward single #
loop $-1 $110 $111 $44 #
cone-surface $-1 41.285618634411435 27.613530630181771 9.2089318370639557 0 -0.55919291073839883 -0.82903756765294845 1.5 0 0 1 I I 0 1 1.5 forward I I I I #
face $-1 $112 $113 $27 $-1 $114 reversed single #
loop $-1 $-1 $115 $45 #
plane-surface $-1 0 0 -19.942780727701216 0 0 1 1 0 0 forward_v I I I I #
coedge $-1 $116 $117 $118 $119 forward $46 $-1 #
face $-1 $120 $121 $28 $-1 $122 forward single #
loop $-1 $-1 $123 $48 #
plane-surface $-1 0 42.884477818621171 0 0 -1 0 0 0 -1 forward_v I I I I #
coedge $-1 $124 $125 $126 $127 forward $49 $-1 #
face $-1 $128 $129 $29 $-1 $130 forward single #
loop $-1 $-1 $131 $51 #
plane-surface $-1 0 42.884477818621171 0 0 -1 0 0 0 -1 forward_v I I I I #
coedge $-1 $132 $133 $134 $135 forward $52 $-1 #
face $-1 $136 $137 $30 $-1 $138 reversed single #
loop $-1 $-1 $139 $54 #
plane-surface $-1 -27.413754826034484 -28.221208543011848 48.027059642384046 0 0.55919291073839883 0.82903756765294845 1 0 0 forward_v I I I I #
coedge $-1 $140 $141 $142 $143 reversed $55 $-1 #
face $-1 $-1 $144 $31 $-1 $145 forward single #
loop $-1 $146 $147 $57 #
cone-surface $-1 -33.941885729176867 26.65770445930584 7.7918612902366569 0 -0.55919291073839883 -0.82903756765294845 0.75 0 0 1 I I -0.70710678118654757 0.70710678118654757 0.75 forward I I I I #
loop $-1 $-1 $148 $40 #
coedge $-1 $92 $92 $149 $150 reversed $58 $-1 #
face $-1 $-1 $151 $32 $-1 $152 forward single #
loop $-1 $153 $154 $60 #
cone-surface $-1 -20.885623922892101 26.65770445930584 7.7918612902366569 0 -0.55919291073839883 -0.82903756765294845 0.75 0 0 1 I I -0.70710678118654757 0.70710678118654757 0.75 forward I I I I #
loop $-1 $-1 $155 $41 #
coedge $-1 $97 $97 $156 $157 reversed $61 $-1 #
face $-1 $158 $159 $33 $-1 $160 reversed single #
loop $-1 $-1 $161 $63 #
plane-surface $-1 34.757487731269052 -28.221208543011848 48.027059642384046 0 0.55919291073839883 0.82903756765294845 1 0 0 forward_v I I I I #
coedge $-1 $162 $163 $164 $165 reversed $64 $-1 #
face $-1 $-1 $166 $34 $-1 $167 forward single #
loop $-1 $168 $169 $66 #
cone-surface $-1 28.229356828126669 26.65770445930584 7.7918612902366569 0 -0.55919291073839883 -0.82903756765294845 0.75 0 0 1 I I -0.70710678118654757 0.70710678118654757 0.75 forward I I I I #
loop $-1 $-1 $170 $43 #
coedge $-1 $106 $106 $171 $172 reversed $67 $-1 #
face $-1 $-1 $173 $35 $-1 $174 forward single #
loop $-1 $175 $176 $69 #
cone-surface $-1 41.285618634411435 26.65770445930584 7.7918612902366569 0 -0.55919291073839883 -0.82903756765294845 0.75 0 0 1 I I -0.70710678118654757 0.70710678118654757 0.75 forward I I I I #
loop $-1 $-1 $177 $44 #
coedge $-1 $111 $111 $178 $179 reversed $70 $-1 #
face $-1 $180 $181 $27 $-1 $182 reversed single #
loop $-1 $-1 $183 $72 #
plane-surface $-1 0 -42.884477818621171 0 0 1 0 0 0 1 forward_v I I I I #
coedge $-1 $184 $185 $186 $187 forward $73 $-1 #
coedge $-1 $188 $75 $189 $190 forward $46 $-1 #
coedge $-1 $75 $188 $191 $192 forward $46 $-1 #
coedge $-1 $193 $194 $75 $119 reversed $195 $-1 #
edge $-1 $196 -42.884477818621171 $197 42.884477818621171 $118 $198 forward 7 unknown #
face $-1 $199 $200 $28 $-1 $201 reversed single #
loop $-1 $-1 $126 $76 #
plane-surface $-1 -84.915233239613542 0 -11.504696662483308 0 0 1 1 0 0 forward_v I I I I #
coedge $-1 $202 $203 $125 $204 forward $77 $-1 #
coedge $-1 $205 $79 $206 $207 reversed $49 $-1 #
coedge $-1 $79 $205 $123 $204 reversed $49 $-1 #
coedge $-1 $208 $209 $79 $127 reversed $121 $-1 #
edge $-1 $210 -42.884477818621171 $211 42.884477818621171 $126 $212 forward 7 unknown #
face $-1 $213 $214 $29 $-1 $215 reversed single #
loop $-1 $-1 $216 $80 #
plane-surface $-1 84.915233239613542 0 -11.504696662483308 0 0 1 1 0 0 forward_v I I I I #
coedge $-1 $217 $218 $132 $219 forward $81 $-1 #
coedge $-1 $220 $83 $131 $219 reversed $52 $-1 #
coedge $-1 $83 $220 $221 $222 reversed $52 $-1 #
coedge $-1 $223 $224 $83 $135 reversed $129 $-1 #
edge $-1 $225 -42.884477818621171 $226 42.884477818621171 $134 $227 forward 7 unknown #
face $-1 $228 $229 $30 $-1 $230 reversed single #
loop $-1 $-1 $231 $84 #
plane-surface $-1 -12.181449385368921 58.267932105268578 176.25248134303231 -1 0 0 0 0.55919291073839883 0.82903756765294845 forward_v I I I I #
coedge $-1 $232 $233 $234 $235 reversed $85 $-1 #
coedge $-1 $141 $87 $236 $237 reversed $55 $-1 #
coedge $-1 $87 $140 $232 $238 reversed $55 $-1 #
coedge $-1 $234 $239 $87 $143 forward $240 $-1 #
edge $-1 $241 -13.750511765986882 $242 15.71851963524762 $142 $243 forward 7 unknown #
loop $-1 $-1 $149 $88 #
plane-surface $-1 -27.413754826034484 -28.221208543011848 48.027059642384046 0 0.55919291073839883 0.82903756765294845 1 0 0 forward_v I I I I #
loop $-1 $-1 $244 $57 #
coedge $-1 $147 $147 $148 $245 reversed $89 $-1 #
coedge $-1 $148 $148 $147 $245 forward $91 $-1 #
coedge $-1 $149 $149 $92 $150 forward $144 $-1 #
edge $-1 $246 -5.6982984032221986e-016 $246 6.2831853071795996 $149 $247 forward 7 unknown #
loop $-1 $-1 $156 $93 #
plane-surface $-1 -27.413754826034484 -28.221208543011848 48.027059642384046 0 0.55919291073839883 0.82903756765294845 1 0 0 forward_v I I I I #
loop $-1 $-1 $248 $60 #
coedge $-1 $154 $154 $155 $249 reversed $94 $-1 #
coedge $-1 $155 $155 $154 $249 forward $96 $-1 #
coedge $-1 $156 $156 $97 $157 forward $151 $-1 #
edge $-1 $250 -5.6982984032221986e-016 $250 6.2831853071795996 $156 $251 forward 7 unknown #
face $-1 $252 $253 $33 $-1 $254 forward single #
loop $-1 $-1 $255 $98 #
plane-surface $-1 49.989793171934615 58.267932105268578 176.25248134303231 -1 0 0 0 0.55919291073839883 0.82903756765294845 forward_v I I I I #
coedge $-1 $256 $257 $258 $259 reversed $99 $-1 #
coedge $-1 $163 $101 $260 $261 reversed $64 $-1 #
coedge $-1 $101 $162 $256 $262 reversed $64 $-1 #
coedge $-1 $258 $263 $101 $165 forward $253 $-1 #
edge $-1 $264 -13.750511765986882 $265 15.71851963524762 $164 $266 forward 7 unknown #
loop $-1 $-1 $171 $102 #
plane-surface $-1 34.757487731269052 -28.221208543011848 48.027059642384046 0 0.55919291073839883 0.82903756765294845 1 0 0 forward_v I I I I #
loop $-1 $-1 $267 $66 #
coedge $-1 $169 $169 $170 $268 reversed $103 $-1 #
coedge $-1 $170 $170 $169 $268 forward $105 $-1 #
coedge $-1 $171 $171 $106 $172 forward $166 $-1 #
edge $-1 $269 -5.6982984032221986e-016 $269 6.2831853071795996 $171 $270 forward 7 unknown #
loop $-1 $-1 $178 $107 #
plane-surface $-1 34.757487731269052 -28.221208543011848 48.027059642384046 0 0.55919291073839883 0.82903756765294845 1 0 0 forward_v I I I I #
loop $-1 $-1 $271 $69 #
coedge $-1 $176 $176 $177 $272 reversed $108 $-1 #
coedge $-1 $177 $177 $176 $272 forward $110 $-1 #
coedge $-1 $178 $178 $111 $179 forward $173 $-1 #
edge $-1 $273 -5.6982984032221986e-016 $273 6.2831853071795996 $178 $274 forward 7 unknown #
face $-1 $275 $276 $27 $-1 $277 reversed single #
loop $-1 $-1 $278 $112 #
plane-surface $-1 -77.333903012176876 0 0 1 0 0 0 0 -1 forward_v I I I I #
coedge $-1 $279 $191 $280 $281 forward $113 $-1 #
coedge $-1 $282 $115 $279 $283 forward $73 $-1 #
coedge $-1 $115 $282 $284 $285 forward $73 $-1 #
coedge $-1 $194 $193 $115 $187 reversed $195 $-1 #
edge $-1 $286 -42.884477818621171 $287 42.884477818621171 $186 $288 forward 7 unknown #
coedge $-1 $117 $116 $289 $290 forward $46 $-1 #
coedge $-1 $291 $292 $116 $190 reversed $276 $-1 #
edge $-1 $197 -77.333903012176876 $293 77.333903012176876 $189 $294 forward 7 unknown #
coedge $-1 $183 $295 $117 $192 reversed $113 $-1 #
edge $-1 $296 -77.333903012176876 $196 77.333903012176876 $191 $297 forward 7 unknown #
coedge $-1 $186 $118 $295 $298 forward $195 $-1 #
coedge $-1 $118 $186 $291 $299 reversed $195 $-1 #
loop $-1 $-1 $193 $275 #
vertex $-1 $119 $300 #
vertex $-1 $119 $301 #
straight-curve $-1 77.333903012176876 0 19.942780727701216 0 1 0 I I #
face $-1 $302 $303 $28 $-1 $304 reversed single #
loop $-1 $-1 $305 $120 #
plane-surface $-1 -92.496563467050208 0 -15.723738695092262 1 0 0 0 0 -1 forward_v I I I I #
coedge $-1 $306 $123 $307 $308 reversed $77 $-1 #
coedge $-1 $123 $306 $208 $309 reversed $77 $-1 #
edge $-1 $210 11.504696662483308 $310 19.942780727701216 $123 $311 forward 7 unknown #
coedge $-1 $125 $124 $312 $313 reversed $49 $-1 #
coedge $-1 $314 $315 $124 $207 forward $316 $-1 #
edge $-1 $317 -19.942780727701216 $211 -11.504696662483308 $206 $318 forward 7 unknown #
coedge $-1 $319 $126 $203 $309 forward $121 $-1 #
coedge $-1 $126 $319 $314 $320 forward $121 $-1 #
vertex $-1 $204 $321 #
vertex $-1 $320 $322 #
straight-curve $-1 -77.333903012176876 0 -11.504696662483308 0 -1 0 I I #
face $-1 $323 $324 $29 $-1 $325 reversed single #
loop $-1 $-1 $326 $128 #
plane-surface $-1 92.496563467050208 0 -15.723738695092262 -1 0 0 0 0 1 forward_v I I I I #
coedge $-1 $224 $223 $327 $328 forward $129 $-1 #
coedge $-1 $329 $131 $224 $330 reversed $81 $-1 #
coedge $-1 $131 $329 $331 $332 reversed $81 $-1 #
edge $-1 $333 -19.942780727701216 $226 -11.504696662483308 $131 $334 forward 7 unknown #
coedge $-1 $133 $132 $335 $336 reversed $52 $-1 #
coedge $-1 $337 $338 $133 $222 forward $339 $-1 #
edge $-1 $225 11.504696662483308 $340 19.942780727701216 $221 $341 forward 7 unknown #
coedge $-1 $216 $134 $338 $342 forward $129 $-1 #
coedge $-1 $134 $216 $217 $330 forward $129 $-1 #
vertex $-1 $222 $343 #
vertex $-1 $330 $344 #
straight-curve $-1 77.333903012176876 0 -11.504696662483308 0 1 0 I I #
face $-1 $-1 $240 $30 $-1 $345 forward single #
loop $-1 $-1 $346 $136 #
plane-surface $-1 0 42.884477818621171 0 0 -1 0 0 0 -1 forward_v I I I I #
coedge $-1 $347 $348 $349 $350 reversed $137 $-1 #
coedge $-1 $351 $139 $141 $238 forward $85 $-1 #
coedge $-1 $139 $351 $347 $352 forward $85 $-1 #
coedge $-1 $349 $142 $139 $235 forward $240 $-1 #
edge $-1 $242 -28.939182853682805 $353 1.5254280276483208 $234 $354 forward 7 unknown #
coedge $-1 $355 $356 $140 $237 forward $229 $-1 #
edge $-1 $357 -88.060572982914252 $241 -68.183459943814938 $236 $358 forward 7 unknown #
edge $-1 $242 50.222880825864387 $357 85.768955637242328 $141 $359 forward 7 unknown #
coedge $-1 $142 $349 $355 $360 forward $240 $-1 #
loop $-1 $-1 $349 $228 #
vertex $-1 $237 $361 #
vertex $-1 $143 $362 #
straight-curve $-1 -42.646060266700047 29.133966052634289 19.942780727701219 0 -1 0 I I #
coedge $-1 $244 $244 $-1 $363 reversed $146 $-1 #
edge $-1 $364 0 $364 6.2831853071796004 $147 $365 forward 7 unknown #
vertex $-1 $150 $366 #
ellipse-curve $-1 -33.941885729176867 28.149962118003913 10.004224208151564 0 0.55919291073839883 0.82903756765294845 1.5 0 0 1 I I #
coedge $-1 $248 $248 $-1 $367 reversed $153 $-1 #
edge $-1 $368 0 $368 6.2831853071796004 $154 $369 forward 7 unknown #
vertex $-1 $157 $370 #
ellipse-curve $-1 -20.885623922892101 28.149962118003913 10.004224208151564 0 0.55919291073839883 0.82903756765294845 1.5 0 0 1 I I #
face $-1 $-1 $371 $33 $-1 $372 reversed single #
loop $-1 $-1 $164 $158 #
plane-surface $-1 0 0 19.942780727701216 0 0 1 1 0 0 forward_v I I I I #
coedge $-1 $373 $374 $375 $376 reversed $159 $-1 #
coedge $-1 $377 $161 $163 $262 forward $99 $-1 #
coedge $-1 $161 $377 $373 $378 forward $99 $-1 #
coedge $-1 $375 $164 $161 $259 forward $253 $-1 #
edge $-1 $265 2.146438424968963 $379 32.611049306300089 $258 $380 forward 7 unknown #
coedge $-1 $381 $382 $162 $261 forward $371 $-1 #
edge $-1 $383 -88.060572982914252 $264 -68.183459943814938 $260 $384 forward 7 unknown #
edge $-1 $265 50.222880825864387 $383 85.768955637242328 $163 $385 forward 7 unknown #
coedge $-1 $164 $375 $381 $386 forward $253 $-1 #
vertex $-1 $165 $387 #
vertex $-1 $165 $388 #
straight-curve $-1 19.525182290603489 29.133966052634289 19.942780727701219 0 -1 0 I I #
coedge $-1 $267 $267 $-1 $389 reversed $168 $-1 #
edge $-1 $390 0 $390 6.2831853071796004 $169 $391 forward 7 unknown #
vertex $-1 $172 $392 #
ellipse-curve $-1 28.229356828126669 28.149962118003913 10.004224208151564 0 0.55919291073839883 0.82903756765294845 1.5 0 0 1 I I #
coedge $-1 $271 $271 $-1 $393 reversed $175 $-1 #
edge $-1 $394 0 $394 6.2831853071796004 $176 $395 forward 7 unknown #
vertex $-1 $179 $396 #
ellipse-curve $-1 41.285618634411435 28.149962118003913 10.004224208151564 0 0.55919291073839883 0.82903756765294845 1.5 0 0 1 I I #
face $-1 $-1 $195 $27 $-1 $397 reversed single #
loop $-1 $-1 $291 $180 #
plane-surface $-1 0 42.884477818621171 0 0 -1 0 0 0 -1 forward_v I I I I #
coedge $-1 $398 $289 $292 $399 forward $181 $-1 #
coedge $-1 $295 $183 $184 $283 reversed $113 $-1 #
coedge $-1 $289 $398 $183 $281 reversed $181 $-1 #
edge $-1 $296 -19.942780727701216 $400 19.942780727701216 $280 $401 forward 7 unknown #
coedge $-1 $185 $184 $398 $402 forward $73 $-1 #
edge $-1 $287 -77.333903012176876 $400 77.333903012176876 $279 $403 forward 7 unknown #
coedge $-1 $292 $291 $185 $285 reversed $276 $-1 #
edge $-1 $404 -77.333903012176876 $286 77.333903012176876 $284 $405 forward 7 unknown #
vertex $-1 $187 $406 #
vertex $-1 $298 $407 #
straight-curve $-1 77.333903012176876 0 -19.942780727701216 0 -1 0 I I #
coedge $-1 $278 $280 $188 $290 reversed $181 $-1 #
edge $-1 $293 -42.884477818621171 $296 42.884477818621171 $289 $408 forward 7 unknown #
coedge $-1 $284 $189 $194 $299 forward $276 $-1 #
coedge $-1 $189 $284 $278 $399 reversed $276 $-1 #
vertex $-1 $190 $409 #
straight-curve $-1 0 42.884477818621171 19.942780727701216 -1 0 0 I I #
coedge $-1 $191 $279 $193 $298 reversed $113 $-1 #
vertex $-1 $290 $410 #
straight-curve $-1 0 -42.884477818621171 19.942780727701216 1 0 0 I I #
edge $-1 $196 -19.942780727701216 $287 19.942780727701216 $193 $411 forward 7 unknown #
edge $-1 $197 -19.942780727701216 $286 19.942780727701216 $194 $412 forward 7 unknown #
point $-1 77.333903012176876 -42.884477818621171 19.942780727701216 #
point $-1 77.333903012176876 42.884477818621171 19.942780727701216 #
face $-1 $-1 $316 $28 $-1 $413 reversed single #
loop $-1 $-1 $312 $199 #
plane-surface $-1 0 0 -19.942780727701216 0 0 1 1 0 0 forward_v I I I I #
coedge $-1 $414 $415 $306 $416 forward $200 $-1 #
coedge $-1 $203 $202 $305 $416 reversed $77 $-1 #
coedge $-1 $312 $417 $202 $308 forward $303 $-1 #
edge $-1 $418 -92.496563467050208 $310 -77.333903012176876 $202 $419 forward 7 unknown #
edge $-1 $210 -7.5813302274366663 $420 7.5813302274366663 $203 $421 forward 7 unknown #
vertex $-1 $204 $422 #
straight-curve $-1 -77.333903012176876 42.884477818621171 0 0 0 -1 I I #
coedge $-1 $423 $307 $205 $313 forward $303 $-1 #
edge $-1 $310 -42.884477818621171 $317 42.884477818621171 $312 $424 forward 7 unknown #
coedge $-1 $425 $206 $209 $320 reversed $316 $-1 #
coedge $-1 $206 $425 $423 $426 reversed $316 $-1 #
loop $-1 $-1 $206 $302 #
vertex $-1 $426 $427 #
straight-curve $-1 -77.333903012176876 -42.884477818621171 0 0 0 1 I I #
coedge $-1 $209 $208 $415 $428 forward $121 $-1 #
edge $-1 $429 -7.5813302274366663 $211 7.5813302274366663 $314 $430 forward 7 unknown #
point $-1 -77.333903012176876 42.884477818621171 -11.504696662483308 #
point $-1 -77.333903012176876 -42.884477818621171 -11.504696662483308 #
face $-1 $-1 $339 $29 $-1 $431 reversed single #
loop $-1 $-1 $335 $213 #
plane-surface $-1 0 0 -19.942780727701216 0 0 1 1 0 0 forward_v I I I I #
coedge $-1 $432 $327 $433 $434 forward $214 $-1 #
coedge $-1 $326 $435 $216 $328 reversed $214 $-1 #
edge $-1 $436 -42.884477818621171 $437 42.884477818621171 $327 $438 forward 7 unknown #
coedge $-1 $218 $217 $435 $439 forward $81 $-1 #
edge $-1 $437 -7.5813302274366663 $226 7.5813302274366663 $217 $440 forward 7 unknown #
coedge $-1 $441 $335 $218 $332 forward $324 $-1 #
edge $-1 $333 -7.5813302274366663 $442 7.5813302274366663 $218 $443 forward 7 unknown #
vertex $-1 $332 $444 #
straight-curve $-1 77.333903012176876 42.884477818621171 0 0 0 1 I I #
coedge $-1 $331 $445 $220 $336 forward $324 $-1 #
edge $-1 $340 -42.884477818621171 $333 42.884477818621171 $335 $446 forward 7 unknown #
coedge $-1 $433 $221 $445 $447 reversed $339 $-1 #
coedge $-1 $221 $433 $223 $342 reversed $339 $-1 #
loop $-1 $-1 $221 $323 #
vertex $-1 $222 $448 #
straight-curve $-1 77.333903012176876 -42.884477818621171 0 0 0 -1 I I #
edge $-1 $225 -7.5813302274366663 $436 7.5813302274366663 $338 $449 forward 7 unknown #
point $-1 77.333903012176876 -42.884477818621171 -11.504696662483308 #
point $-1 77.333903012176876 42.884477818621171 -11.504696662483308 #
plane-surface $-1 0 0 19.942780727701216 0 0 1 1 0 0 forward_v I I I I #
coedge $-1 $356 $355 $348 $450 forward $229 $-1 #
coedge $-1 $348 $231 $233 $352 reversed $137 $-1 #
coedge $-1 $231 $347 $346 $450 reversed $137 $-1 #
coedge $-1 $239 $234 $231 $350 forward $240 $-1 #
edge $-1 $353 -15.71851963524762 $451 13.750511765986882 $349 $452 forward 7 unknown #
coedge $-1 $233 $232 $356 $453 reversed $85 $-1 #
edge $-1 $454 -85.768955637242328 $353 -50.222880825864387 $347 $455 forward 7 unknown #
vertex $-1 $235 $456 #
straight-curve $-1 -13.706877413017242 13.415446417386674 19.942780727701216 1 0 0 I I #
coedge $-1 $346 $236 $239 $360 reversed $229 $-1 #
coedge $-1 $236 $346 $351 $453 forward $229 $-1 #
vertex $-1 $237 $457 #
straight-curve $-1 -42.646060266700047 42.884477818621171 88.126240671516157 0 0 1 I I #
straight-curve $-1 -42.646060266700047 -28.221208543011848 48.027059642384046 0 0.82903756765294845 -0.55919291073839883 I I #
edge $-1 $451 12.181449385368921 $241 42.646060266700047 $355 $458 forward 7 unknown #
point $-1 -42.646060266700047 42.884477818621171 19.942780727701216 #
point $-1 -42.646060266700047 13.415446417386669 19.942780727701216 #
edge $-1 $459 1 $459 0 $244 $-1 forward 7 unknown #
vertex $-1 $245 $460 #
ellipse-curve $-1 -33.941885729176867 27.077099142359639 8.4136394659763685 0 0.55919291073839883 0.82903756765294845 1.5 0 0 1 I I #
point $-1 -32.441885729176867 28.149962118003899 10.004224208151545 #
edge $-1 $461 1 $461 0 $248 $-1 forward 7 unknown #
vertex $-1 $249 $462 #
ellipse-curve $-1 -20.885623922892101 27.077099142359639 8.4136394659763685 0 0.55919291073839883 0.82903756765294845 1.5 0 0 1 I I #
point $-1 -19.385623922892101 28.149962118003899 10.004224208151545 #
loop $-1 $-1 $260 $252 #
plane-surface $-1 0 42.884477818621171 0 0 -1 0 0 0 -1 forward_v I I I I #
coedge $-1 $374 $255 $257 $378 reversed $159 $-1 #
coedge $-1 $255 $373 $463 $464 reversed $159 $-1 #
coedge $-1 $263 $258 $255 $376 forward $253 $-1 #
edge $-1 $379 -15.71851963524762 $465 13.750511765986882 $375 $466 forward 7 unknown #
coedge $-1 $257 $256 $382 $467 reversed $99 $-1 #
edge $-1 $468 -85.768955637242328 $379 -50.222880825864387 $373 $469 forward 7 unknown #
vertex $-1 $259 $470 #
straight-curve $-1 17.378743865634526 13.415446417386674 19.942780727701216 1 0 0 I I #
coedge $-1 $463 $260 $263 $386 reversed $371 $-1 #
coedge $-1 $260 $463 $377 $467 forward $371 $-1 #
vertex $-1 $261 $471 #
straight-curve $-1 19.525182290603489 42.884477818621171 88.126240671516157 0 0 1 I I #
straight-curve $-1 19.525182290603489 -28.221208543011848 48.027059642384046 0 0.82903756765294845 -0.55919291073839883 I I #
edge $-1 $465 -49.989793171934615 $264 -19.525182290603489 $381 $472 forward 7 unknown #
point $-1 19.525182290603489 42.884477818621171 19.942780727701216 #
point $-1 19.525182290603489 13.415446417386669 19.942780727701216 #
edge $-1 $473 1 $473 0 $267 $-1 forward 7 unknown #
vertex $-1 $268 $474 #
ellipse-curve $-1 28.229356828126669 27.077099142359639 8.4136394659763685 0 0.55919291073839883 0.82903756765294845 1.5 0 0 1 I I #
point $-1 29.729356828126669 28.149962118003899 10.004224208151545 #
edge $-1 $475 1 $475 0 $271 $-1 forward 7 unknown #
vertex $-1 $272 $476 #
ellipse-curve $-1 41.285618634411435 27.077099142359639 8.4136394659763685 0 0.55919291073839883 0.82903756765294845 1.5 0 0 1 I I #
point $-1 42.785618634411435 28.149962118003899 10.004224208151545 #
plane-surface $-1 77.333903012176876 0 0 -1 0 0 0 0 1 forward_v I I I I #
coedge $-1 $280 $278 $282 $402 reversed $181 $-1 #
edge $-1 $293 -19.942780727701216 $404 19.942780727701216 $292 $477 forward 7 unknown #
vertex $-1 $402 $478 #
straight-curve $-1 -77.333903012176876 -42.884477818621171 0 0 0 -1 I I #
edge $-1 $400 -42.884477818621171 $404 42.884477818621171 $398 $479 forward 7 unknown #
straight-curve $-1 0 -42.884477818621171 -19.942780727701216 -1 0 0 I I #
vertex $-1 $285 $480 #
straight-curve $-1 0 42.884477818621171 -19.942780727701216 1 0 0 I I #
point $-1 77.333903012176876 42.884477818621171 -19.942780727701216 #
point $-1 77.333903012176876 -42.884477818621171 -19.942780727701216 #
straight-curve $-1 -77.333903012176876 0 19.942780727701216 0 -1 0 I I #
point $-1 -77.333903012176876 42.884477818621171 19.942780727701216 #
point $-1 -77.333903012176876 -42.884477818621171 19.942780727701216 #
straight-curve $-1 77.333903012176876 -42.884477818621171 0 0 0 -1 I I #
straight-curve $-1 77.333903012176876 42.884477818621171 0 0 0 -1 I I #
plane-surface $-1 0 -42.884477818621171 0 0 1 0 0 0 1 forward_v I I I I #
coedge $-1 $481 $305 $417 $482 reversed $200 $-1 #
coedge $-1 $305 $481 $319 $428 reversed $200 $-1 #
edge $-1 $420 -4.2190420326089537 $418 4.2190420326089537 $306 $483 forward 7 unknown #
coedge $-1 $307 $423 $414 $482 forward $303 $-1 #
vertex $-1 $308 $484 #
straight-curve $-1 0 42.884477818621171 -19.942780727701216 1 0 0 I I #
vertex $-1 $309 $485 #
straight-curve $-1 -84.915233239613542 42.884477818621171 -11.504696662483308 -1 0 0 I I #
point $-1 -77.333903012176876 42.884477818621171 -19.942780727701216 #
coedge $-1 $417 $312 $315 $426 forward $303 $-1 #
straight-curve $-1 -77.333903012176876 0 -19.942780727701216 0 -1 0 I I #
coedge $-1 $315 $314 $481 $486 forward $316 $-1 #
edge $-1 $317 -7.5813302274366663 $487 7.5813302274366663 $315 $488 forward 7 unknown #
point $-1 -77.333903012176876 -42.884477818621171 -19.942780727701216 #
edge $-1 $420 -42.884477818621171 $429 42.884477818621171 $415 $489 forward 7 unknown #
vertex $-1 $428 $490 #
straight-curve $-1 -84.915233239613542 -42.884477818621171 -11.504696662483308 1 0 0 I I #
plane-surface $-1 0 -42.884477818621171 0 0 1 0 0 0 1 forward_v I I I I #
coedge $-1 $435 $326 $441 $491 reversed $214 $-1 #
coedge $-1 $338 $337 $326 $434 reversed $339 $-1 #
edge $-1 $436 -4.2190420326089537 $492 4.2190420326089537 $326 $493 forward 7 unknown #
coedge $-1 $327 $432 $329 $439 reversed $214 $-1 #
vertex $-1 $328 $494 #
vertex $-1 $328 $495 #
straight-curve $-1 92.496563467050208 0 -11.504696662483308 0 1 0 I I #
edge $-1 $437 -4.2190420326089537 $442 4.2190420326089537 $435 $496 forward 7 unknown #
straight-curve $-1 84.915233239613542 42.884477818621171 -11.504696662483308 -1 0 0 I I #
coedge $-1 $445 $331 $432 $491 forward $324 $-1 #
vertex $-1 $491 $497 #
straight-curve $-1 84.915233239613542 42.884477818621171 -19.942780727701216 1 0 0 I I #
point $-1 77.333903012176876 42.884477818621171 -19.942780727701216 #
coedge $-1 $335 $441 $337 $447 forward $324 $-1 #
straight-curve $-1 77.333903012176876 0 -19.942780727701216 0 1 0 I I #
edge $-1 $492 -7.5813302274366663 $340 7.5813302274366663 $337 $498 forward 7 unknown #
point $-1 77.333903012176876 -42.884477818621171 -19.942780727701216 #
straight-curve $-1 84.915233239613542 -42.884477818621171 -11.504696662483308 1 0 0 I I #
edge $-1 $451 68.183459943814938 $454 88.060572982914252 $346 $499 forward 7 unknown #
vertex $-1 $360 $500 #
straight-curve $-1 -12.181449385368921 29.133966052634289 19.942780727701219 0 1 0 I I #
edge $-1 $454 -1.5254280276483208 $357 28.939182853682805 $356 $501 forward 7 unknown #
vertex $-1 $453 $502 #
straight-curve $-1 -12.181449385368921 -28.221208543011848 48.027059642384046 0 -0.82903756765294845 0.55919291073839883 I I #
point $-1 -12.181449385368921 13.415446417386669 19.942780727701216 #
point $-1 -42.646060266700047 42.884477818621171 0.065667688601905638 #
straight-curve $-1 0 42.884477818621171 19.942780727701216 -1 0 0 I I #
vertex $-1 $363 $503 #
point $-1 -32.441885729176867 27.077099142359639 8.4136394659763685 #
vertex $-1 $367 $504 #
point $-1 -19.385623922892101 27.077099142359639 8.4136394659763685 #
coedge $-1 $382 $381 $374 $464 forward $371 $-1 #
edge $-1 $465 68.183459943814938 $468 88.060572982914252 $463 $505 forward 7 unknown #
vertex $-1 $386 $506 #
straight-curve $-1 49.989793171934615 29.133966052634289 19.942780727701219 0 1 0 I I #
edge $-1 $468 -32.611049306300089 $383 -2.146438424968963 $382 $507 forward 7 unknown #
vertex $-1 $467 $508 #
straight-curve $-1 49.989793171934615 -28.221208543011848 48.027059642384046 0 -0.82903756765294845 0.55919291073839883 I I #
point $-1 49.989793171934615 13.415446417386669 19.942780727701216 #
point $-1 19.525182290603489 42.884477818621171 0.065667688601905638 #
straight-curve $-1 0 42.884477818621171 19.942780727701216 -1 0 0 I I #
vertex $-1 $389 $509 #
point $-1 29.729356828126669 27.077099142359639 8.4136394659763685 #
vertex $-1 $393 $510 #
point $-1 42.785618634411435 27.077099142359639 8.4136394659763685 #
straight-curve $-1 -77.333903012176876 42.884477818621171 0 0 0 -1 I I #
point $-1 -77.333903012176876 -42.884477818621171 -19.942780727701216 #
straight-curve $-1 -77.333903012176876 0 -19.942780727701216 0 1 0 I I #
point $-1 -77.333903012176876 42.884477818621171 -19.942780727701216 #
coedge $-1 $415 $414 $425 $486 reversed $200 $-1 #
edge $-1 $487 -42.884477818621171 $418 42.884477818621171 $414 $511 forward 7 unknown #
straight-curve $-1 -92.496563467050208 42.884477818621171 -15.723738695092262 0 0 -1 I I #
point $-1 -92.496563467050208 42.884477818621171 -19.942780727701216 #
point $-1 -92.496563467050208 42.884477818621171 -11.504696662483308 #
edge $-1 $429 -4.2190420326089537 $487 4.2190420326089537 $481 $512 forward 7 unknown #
vertex $-1 $482 $513 #
straight-curve $-1 -84.915233239613542 -42.884477818621171 -19.942780727701216 -1 0 0 I I #
straight-curve $-1 -92.496563467050208 0 -11.504696662483308 0 -1 0 I I #
point $-1 -92.496563467050208 -42.884477818621171 -11.504696662483308 #
edge $-1 $442 -42.884477818621171 $492 42.884477818621171 $432 $514 forward 7 unknown #
vertex $-1 $434 $515 #
straight-curve $-1 92.496563467050208 -42.884477818621171 -15.723738695092262 0 0 -1 I I #
point $-1 92.496563467050208 -42.884477818621171 -11.504696662483308 #
point $-1 92.496563467050208 42.884477818621171 -11.504696662483308 #
straight-curve $-1 92.496563467050208 42.884477818621171 -15.723738695092262 0 0 -1 I I #
point $-1 92.496563467050208 42.884477818621171 -19.942780727701216 #
straight-curve $-1 84.915233239613542 -42.884477818621171 -19.942780727701216 -1 0 0 I I #
straight-curve $-1 -12.181449385368921 42.884477818621171 88.126240671516157 0 0 -1 I I #
point $-1 -12.181449385368921 42.884477818621171 19.942780727701216 #
straight-curve $-1 -13.706877413017242 42.884477818621171 0.065667688601909191 -1 0 0 I I #
point $-1 -12.181449385368921 42.884477818621171 0.065667688601905638 #
point $-1 -33.941885729176867 26.238309776252041 7.1700831144969452 #
point $-1 -20.885623922892101 26.238309776252041 7.1700831144969452 #
straight-curve $-1 49.989793171934615 42.884477818621171 88.126240671516157 0 0 -1 I I #
point $-1 49.989793171934615 42.884477818621171 19.942780727701216 #
straight-curve $-1 17.378743865634526 42.884477818621171 0.065667688601909191 -1 0 0 I I #
point $-1 49.989793171934615 42.884477818621171 0.065667688601905638 #
point $-1 28.229356828126669 26.238309776252041 7.1700831144969452 #
point $-1 41.285618634411435 26.238309776252041 7.1700831144969452 #
straight-curve $-1 -92.496563467050208 0 -19.942780727701216 0 1 0 I I #
straight-curve $-1 -92.496563467050208 -42.884477818621171 -15.723738695092262 0 0 -1 I I #
point $-1 -92.496563467050208 -42.884477818621171 -19.942780727701216 #
straight-curve $-1 92.496563467050208 0 -19.942780727701216 0 -1 0 I I #
point $-1 92.496563467050208 -42.884477818621171 -19.942780727701216 #
End-of-ACIS-data 