500 0 15 0           
7 Unknown 11 ACIS 5.0 NT 24 Fri Mar 26 15:42:10 1999 
-1 9.9999999999999995e-007 1e-010 
body $-1 $15 $-1 $16 #
body $-1 $17 $-1 $18 #
body $-1 $19 $-1 $20 #
body $-1 $21 $-1 $22 #
body $-1 $23 $-1 $24 #
body $-1 $25 $-1 $26 #
body $-1 $27 $-1 $28 #
body $-1 $29 $-1 $30 #
body $-1 $31 $-1 $32 #
body $-1 $33 $-1 $34 #
body $-1 $35 $-1 $36 #
body $-1 $37 $-1 $38 #
body $-1 $39 $-1 $40 #
body $-1 $41 $-1 $42 #
body $-1 $43 $-1 $44 #
lump $-1 $-1 $45 $0 #
transform $-1 1 0 0 0 1 0 0 0 1 56.056398205511641 28.519186568345646 11.548760480261286 1 rotate no_reflect no_shear #
lump $-1 $-1 $46 $1 #
transform $-1 1 0 0 0 1 0 0 0 1 56.056398205511641 28.519186568345646 11.548760480261286 1 rotate no_reflect no_shear #
lump $-1 $-1 $47 $2 #
transform $-1 1 0 0 0 1 0 0 0 1 56.056398205511641 28.519186568345646 11.548760480261286 1 rotate no_reflect no_shear #
lump $-1 $-1 $48 $3 #
transform $-1 1 0 0 0 1 0 0 0 1 56.056398205511641 28.519186568345646 11.548760480261286 1 rotate no_reflect no_shear #
lump $-1 $-1 $49 $4 #
transform $-1 1 0 0 0 1 0 0 0 1 56.056398205511641 28.519186568345646 11.548760480261286 1 rotate no_reflect no_shear #
lump $-1 $-1 $50 $5 #
transform $-1 1 0 0 0 1 0 0 0 1 56.056398205511641 28.519186568345646 11.548760480261286 1 rotate no_reflect no_shear #
lump $-1 $-1 $51 $6 #
transform $-1 1 0 0 0 1 0 0 0 1 56.056398205511641 28.519186568345646 11.548760480261286 1 rotate no_reflect no_shear #
lump $-1 $-1 $52 $7 #
transform $-1 1 0 0 0 1 0 0 0 1 56.056398205511641 28.519186568345646 11.548760480261286 1 rotate no_reflect no_shear #
lump $-1 $-1 $53 $8 #
transform $-1 1 0 0 0 1 0 0 0 1 56.056398205511641 28.519186568345646 11.548760480261286 1 rotate no_reflect no_shear #
lump $-1 $-1 $54 $9 #
transform $-1 1 0 0 0 1 0 0 0 1 56.056398205511641 28.519186568345646 11.548760480261286 1 rotate no_reflect no_shear #
lump $-1 $-1 $55 $10 #
transform $-1 1 0 0 0 1 0 0 0 1 56.056398205511641 28.519186568345646 11.548760480261286 1 rotate no_reflect no_shear #
lump $-1 $-1 $56 $11 #
transform $-1 1 0 0 0 1 0 0 0 1 56.056398205511641 28.519186568345646 11.548760480261286 1 rotate no_reflect no_shear #
lump $-1 $-1 $57 $12 #
transform $-1 1 0 0 0 1 0 0 0 1 56.056398205511641 28.519186568345646 11.548760480261286 1 rotate no_reflect no_shear #
lump $-1 $-1 $58 $13 #
transform $-1 1 0 0 0 1 0 0 0 1 56.056398205511641 28.519186568345646 11.548760480261286 1 rotate no_reflect no_shear #
lump $-1 $-1 $59 $14 #
transform $-1 1 0 0 0 1 0 0 0 1 56.056398205511641 28.519186568345646 11.548760480261286 1 rotate no_reflect no_shear #
shell $-1 $-1 $-1 $60 $-1 $15 #
shell $-1 $-1 $-1 $61 $-1 $17 #
shell $-1 $-1 $-1 $62 $-1 $19 #
shell $-1 $-1 $-1 $63 $-1 $21 #
shell $-1 $-1 $-1 $64 $-1 $23 #
shell $-1 $-1 $-1 $65 $-1 $25 #
shell $-1 $-1 $-1 $66 $-1 $27 #
shell $-1 $-1 $-1 $67 $-1 $29 #
shell $-1 $-1 $-1 $68 $-1 $31 #
shell $-1 $-1 $-1 $69 $-1 $33 #
shell $-1 $-1 $-1 $70 $-1 $35 #
shell $-1 $-1 $-1 $71 $-1 $37 #
shell $-1 $-1 $-1 $72 $-1 $39 #
shell $-1 $-1 $-1 $73 $-1 $41 #
shell $-1 $-1 $-1 $74 $-1 $43 #
face $-1 $75 $76 $45 $-1 $77 reversed single #
face $-1 $78 $79 $46 $-1 $80 forward single #
face $-1 $81 $82 $47 $-1 $83 forward single #
face $-1 $84 $85 $48 $-1 $86 reversed single #
face $-1 $87 $88 $49 $-1 $89 forward single #
face $-1 $90 $91 $50 $-1 $92 forward single #
face $-1 $93 $94 $51 $-1 $95 reversed single #
face $-1 $96 $97 $52 $-1 $98 forward single #
face $-1 $99 $100 $53 $-1 $101 forward single #
face $-1 $102 $103 $54 $-1 $104 reversed single #
face $-1 $105 $106 $55 $-1 $107 forward single #
face $-1 $108 $109 $56 $-1 $110 forward single #
face $-1 $111 $112 $57 $-1 $113 reversed single #
face $-1 $114 $115 $58 $-1 $116 forward single #
face $-1 $117 $118 $59 $-1 $119 forward single #
face $-1 $120 $121 $45 $-1 $122 forward single #
loop $-1 $-1 $123 $60 #
plane-surface $-1 56.056398205511641 0 0 -1 0 0 0 0 1 forward_v I I I I #
face $-1 $124 $125 $46 $-1 $126 forward single #
loop $-1 $-1 $127 $61 #
plane-surface $-1 -56.056398205511641 0 0 1 0 0 0 0 -1 forward_v I I I I #
face $-1 $128 $129 $47 $-1 $130 reversed single #
loop $-1 $-1 $131 $62 #
plane-surface $-1 56.056398205511641 0 0 -1 0 0 0 0 1 forward_v I I I I #
face $-1 $132 $133 $48 $-1 $134 reversed single #
loop $-1 $-1 $135 $63 #
plane-surface $-1 -26.758496383210861 -109.16638407774693 79.097168676312435 -1 0 0 0 -0.71933980857756763 0.69465836192734942 forward_v I I I I #
face $-1 $136 $137 $49 $-1 $138 forward single #
loop $-1 $139 $140 $64 #
cone-surface $-1 -33.505770930569113 -22.674999175543508 5.5566830494093047 0 0.71933980857756763 -0.69465836192734942 1 0 0 1 I I 0 1 1 forward I I I I #
face $-1 $141 $142 $50 $-1 $143 forward single #
loop $-1 $144 $145 $65 #
cone-surface $-1 -29.457406202154164 -22.674999175543508 5.5566830494093047 0 0.71933980857756763 -0.69465836192734942 1 0 0 1 I I 0 1 1 forward I I I I #
face $-1 $146 $147 $51 $-1 $148 reversed single #
loop $-1 $-1 $149 $66 #
plane-surface $-1 -5.7707706723031045 -109.16638407774693 79.097168676312435 -1 0 0 0 -0.71933980857756763 0.69465836192734942 forward_v I I I I #
face $-1 $150 $151 $52 $-1 $152 forward single #
loop $-1 $153 $154 $67 #
cone-surface $-1 -12.51804521966136 -22.674999175543508 5.5566830494093047 0 0.71933980857756763 -0.69465836192734942 1 0 0 1 I I 0 1 1 forward I I I I #
face $-1 $155 $156 $53 $-1 $157 forward single #
loop $-1 $158 $159 $68 #
cone-surface $-1 -8.4696804912464074 -22.674999175543508 5.5566830494093047 0 0.71933980857756763 -0.69465836192734942 1 0 0 1 I I 0 1 1 forward I I I I #
face $-1 $160 $161 $54 $-1 $162 reversed single #
loop $-1 $-1 $163 $69 #
plane-surface $-1 15.216955038604649 -109.16638407774693 79.097168676312435 -1 0 0 0 -0.71933980857756763 0.69465836192734942 forward_v I I I I #
face $-1 $164 $165 $55 $-1 $166 forward single #
loop $-1 $167 $168 $70 #
cone-surface $-1 8.4696804912464074 -22.674999175543508 5.5566830494093047 0 0.71933980857756763 -0.69465836192734942 1 0 0 1 I I 0 1 1 forward I I I I #
face $-1 $169 $170 $56 $-1 $171 forward single #
loop $-1 $172 $173 $71 #
cone-surface $-1 12.51804521966136 -22.674999175543508 5.5566830494093047 0 0.71933980857756763 -0.69465836192734942 1 0 0 1 I I 0 1 1 forward I I I I #
face $-1 $174 $175 $57 $-1 $176 reversed single #
loop $-1 $-1 $177 $72 #
plane-surface $-1 36.20468074951242 -109.16638407774693 79.097168676312435 -1 0 0 0 -0.71933980857756763 0.69465836192734942 forward_v I I I I #
face $-1 $178 $179 $58 $-1 $180 forward single #
loop $-1 $181 $182 $73 #
cone-surface $-1 29.457406202154175 -22.674999175543508 5.5566830494093047 0 0.71933980857756763 -0.69465836192734942 1 0 0 1 I I 0 1 1 forward I I I I #
face $-1 $183 $184 $59 $-1 $185 forward single #
loop $-1 $186 $187 $74 #
cone-surface $-1 33.505770930569128 -22.674999175543508 5.5566830494093047 0 0.71933980857756763 -0.69465836192734942 1 0 0 1 I I 0 1 1 forward I I I I #
face $-1 $188 $189 $45 $-1 $190 reversed single #
loop $-1 $-1 $191 $75 #
plane-surface $-1 0 0 11.548760480261286 0 0 1 1 0 0 forward_v I I I I #
coedge $-1 $192 $193 $194 $195 reversed $76 $-1 #
face $-1 $196 $197 $46 $-1 $198 reversed single #
loop $-1 $-1 $199 $78 #
plane-surface $-1 0 0 11.548760480261286 0 0 1 1 0 0 forward_v I I I I #
coedge $-1 $200 $201 $202 $203 forward $79 $-1 #
face $-1 $204 $205 $47 $-1 $206 reversed single #
loop $-1 $-1 $207 $81 #
plane-surface $-1 0 -28.519186568345646 0 0 1 0 0 0 1 forward_v I I I I #
coedge $-1 $208 $209 $210 $211 forward $82 $-1 #
face $-1 $212 $213 $48 $-1 $214 reversed single #
loop $-1 $-1 $215 $84 #
plane-surface $-1 -31.481588566361641 -28.519186568345631 1.2170771703365801 0 -0.71933980857756763 0.69465836192734942 1 0 0 forward_v I I I I #
coedge $-1 $216 $217 $218 $219 reversed $85 $-1 #
face $-1 $-1 $220 $49 $-1 $221 forward single #
loop $-1 $222 $223 $87 #
cone-surface $-1 -33.505770930569113 -21.45973705867506 4.383118092555998 0 0.71933980857756763 -0.69465836192734942 0.5 0 0 1 I I -0.70710678118654746 0.70710678118654746 0.5 forward I I I I #
loop $-1 $-1 $224 $64 #
coedge $-1 $140 $140 $225 $226 reversed $88 $-1 #
face $-1 $-1 $227 $50 $-1 $228 forward single #
loop $-1 $229 $230 $90 #
cone-surface $-1 -29.457406202154164 -21.45973705867506 4.383118092555998 0 0.71933980857756763 -0.69465836192734942 0.5 0 0 1 I I -0.70710678118654746 0.70710678118654746 0.5 forward I I I I #
loop $-1 $-1 $231 $65 #
coedge $-1 $145 $145 $232 $233 reversed $91 $-1 #
face $-1 $234 $235 $51 $-1 $236 reversed single #
loop $-1 $-1 $237 $93 #
plane-surface $-1 -10.493862855453884 -28.519186568345631 1.2170771703365801 0 -0.71933980857756763 0.69465836192734942 1 0 0 forward_v I I I I #
coedge $-1 $238 $239 $240 $241 reversed $94 $-1 #
face $-1 $-1 $242 $52 $-1 $243 forward single #
loop $-1 $244 $245 $96 #
cone-surface $-1 -12.51804521966136 -21.45973705867506 4.383118092555998 0 0.71933980857756763 -0.69465836192734942 0.5 0 0 1 I I -0.70710678118654746 0.70710678118654746 0.5 forward I I I I #
loop $-1 $-1 $246 $67 #
coedge $-1 $154 $154 $247 $248 reversed $97 $-1 #
face $-1 $-1 $249 $53 $-1 $250 forward single #
loop $-1 $251 $252 $99 #
cone-surface $-1 -8.4696804912464074 -21.45973705867506 4.383118092555998 0 0.71933980857756763 -0.69465836192734942 0.5 0 0 1 I I -0.70710678118654746 0.70710678118654746 0.5 forward I I I I #
loop $-1 $-1 $253 $68 #
coedge $-1 $159 $159 $254 $255 reversed $100 $-1 #
face $-1 $256 $257 $54 $-1 $258 reversed single #
loop $-1 $-1 $259 $102 #
plane-surface $-1 10.49386285545387 -28.519186568345631 1.2170771703365801 0 -0.71933980857756763 0.69465836192734942 1 0 0 forward_v I I I I #
coedge $-1 $260 $261 $262 $263 reversed $103 $-1 #
face $-1 $-1 $264 $55 $-1 $265 forward single #
loop $-1 $266 $267 $105 #
cone-surface $-1 8.4696804912464074 -21.45973705867506 4.383118092555998 0 0.71933980857756763 -0.69465836192734942 0.5 0 0 1 I I -0.70710678118654746 0.70710678118654746 0.5 forward I I I I #
loop $-1 $-1 $268 $70 #
coedge $-1 $168 $168 $269 $270 reversed $106 $-1 #
face $-1 $-1 $271 $56 $-1 $272 forward single #
loop $-1 $273 $274 $108 #
cone-surface $-1 12.51804521966136 -21.45973705867506 4.383118092555998 0 0.71933980857756763 -0.69465836192734942 0.5 0 0 1 I I -0.70710678118654746 0.70710678118654746 0.5 forward I I I I #
loop $-1 $-1 $275 $71 #
coedge $-1 $173 $173 $276 $277 reversed $109 $-1 #
face $-1 $278 $279 $57 $-1 $280 reversed single #
loop $-1 $-1 $281 $111 #
plane-surface $-1 31.481588566361637 -28.519186568345631 1.2170771703365801 0 -0.71933980857756763 0.69465836192734942 1 0 0 forward_v I I I I #
coedge $-1 $282 $283 $284 $285 reversed $112 $-1 #
face $-1 $-1 $286 $58 $-1 $287 forward single #
loop $-1 $288 $289 $114 #
cone-surface $-1 29.457406202154175 -21.45973705867506 4.383118092555998 0 0.71933980857756763 -0.69465836192734942 0.5 0 0 1 I I -0.70710678118654746 0.70710678118654746 0.5 forward I I I I #
loop $-1 $-1 $290 $73 #
coedge $-1 $182 $182 $291 $292 reversed $115 $-1 #
face $-1 $-1 $293 $59 $-1 $294 forward single #
loop $-1 $295 $296 $117 #
cone-surface $-1 33.505770930569128 -21.45973705867506 4.383118092555998 0 0.71933980857756763 -0.69465836192734942 0.5 0 0 1 I I -0.70710678118654746 0.70710678118654746 0.5 forward I I I I #
loop $-1 $-1 $297 $74 #
coedge $-1 $187 $187 $298 $299 reversed $118 $-1 #
face $-1 $300 $301 $45 $-1 $302 reversed single #
loop $-1 $-1 $194 $120 #
plane-surface $-1 0 0 -11.548760480261286 0 0 1 1 0 0 forward_v I I I I #
coedge $-1 $303 $304 $305 $306 forward $121 $-1 #
coedge $-1 $305 $123 $307 $308 reversed $76 $-1 #
coedge $-1 $123 $305 $309 $310 forward $76 $-1 #
coedge $-1 $311 $312 $123 $195 forward $189 $-1 #
edge $-1 $313 -28.519186568345646 $314 28.519186568345646 $123 $315 forward 7 unknown #
face $-1 $316 $317 $46 $-1 $318 reversed single #
loop $-1 $-1 $319 $124 #
plane-surface $-1 -68.271615247781526 -27.019186568345646 0 1 0 0 0 0 -1 forward_v I I I I #
coedge $-1 $320 $321 $200 $322 forward $125 $-1 #
coedge $-1 $323 $127 $199 $322 reversed $79 $-1 #
coedge $-1 $127 $323 $324 $325 reversed $79 $-1 #
coedge $-1 $326 $327 $127 $203 reversed $317 $-1 #
edge $-1 $328 -11.548760480261286 $329 11.548760480261286 $202 $330 forward 7 unknown #
face $-1 $331 $332 $47 $-1 $333 reversed single #
loop $-1 $-1 $334 $128 #
plane-surface $-1 0 0 -11.548760480261286 0 0 1 1 0 0 forward_v I I I I #
coedge $-1 $335 $336 $337 $338 forward $129 $-1 #
coedge $-1 $337 $131 $334 $339 reversed $82 $-1 #
coedge $-1 $131 $337 $340 $341 reversed $82 $-1 #
coedge $-1 $342 $343 $131 $211 reversed $332 $-1 #
edge $-1 $344 -11.548760480261286 $345 11.548760480261286 $210 $346 forward 7 unknown #
face $-1 $347 $348 $48 $-1 $349 forward single #
loop $-1 $-1 $350 $132 #
plane-surface $-1 -36.20468074951242 -109.16638407774693 79.097168676312435 1 0 0 0 0.71933980857756763 -0.69465836192734942 forward_v I I I I #
coedge $-1 $351 $352 $353 $354 reversed $133 $-1 #
coedge $-1 $217 $135 $355 $356 reversed $85 $-1 #
coedge $-1 $135 $216 $351 $357 reversed $85 $-1 #
coedge $-1 $353 $358 $135 $219 forward $348 $-1 #
edge $-1 $359 26.064005470527817 $360 36.041195830972796 $218 $361 forward 7 unknown #
loop $-1 $-1 $225 $136 #
plane-surface $-1 -31.481588566361641 -28.519186568345631 1.2170771703365801 0 -0.71933980857756763 0.69465836192734942 1 0 0 forward_v I I I I #
loop $-1 $-1 $362 $87 #
coedge $-1 $223 $223 $224 $363 reversed $137 $-1 #
coedge $-1 $224 $224 $223 $363 forward $139 $-1 #
coedge $-1 $225 $225 $140 $226 forward $220 $-1 #
edge $-1 $364 2.630583393804449e-016 $364 6.2831853071796004 $225 $365 forward 7 unknown #
loop $-1 $-1 $232 $141 #
plane-surface $-1 -31.481588566361641 -28.519186568345631 1.2170771703365801 0 -0.71933980857756763 0.69465836192734942 1 0 0 forward_v I I I I #
loop $-1 $-1 $366 $90 #
coedge $-1 $230 $230 $231 $367 reversed $142 $-1 #
coedge $-1 $231 $231 $230 $367 forward $144 $-1 #
coedge $-1 $232 $232 $145 $233 forward $227 $-1 #
edge $-1 $368 2.630583393804449e-016 $368 6.2831853071796004 $232 $369 forward 7 unknown #
face $-1 $370 $371 $51 $-1 $372 reversed single #
loop $-1 $-1 $373 $146 #
plane-surface $-1 -15.216955038604663 -109.16638407774693 79.097168676312435 1 0 0 0 0.71933980857756763 -0.69465836192734942 forward_v I I I I #
coedge $-1 $374 $375 $376 $377 reversed $147 $-1 #
coedge $-1 $239 $149 $378 $379 reversed $94 $-1 #
coedge $-1 $149 $238 $374 $380 reversed $94 $-1 #
coedge $-1 $376 $381 $149 $241 forward $382 $-1 #
edge $-1 $383 26.064005470527817 $384 36.041195830972796 $240 $385 forward 7 unknown #
loop $-1 $-1 $247 $150 #
plane-surface $-1 -10.493862855453884 -28.519186568345631 1.2170771703365801 0 -0.71933980857756763 0.69465836192734942 1 0 0 forward_v I I I I #
loop $-1 $-1 $386 $96 #
coedge $-1 $245 $245 $246 $387 reversed $151 $-1 #
coedge $-1 $246 $246 $245 $387 forward $153 $-1 #
coedge $-1 $247 $247 $154 $248 forward $242 $-1 #
edge $-1 $388 2.630583393804449e-016 $388 6.2831853071796004 $247 $389 forward 7 unknown #
loop $-1 $-1 $254 $155 #
plane-surface $-1 -10.493862855453884 -28.519186568345631 1.2170771703365801 0 -0.71933980857756763 0.69465836192734942 1 0 0 forward_v I I I I #
loop $-1 $-1 $390 $99 #
coedge $-1 $252 $252 $253 $391 reversed $156 $-1 #
coedge $-1 $253 $253 $252 $391 forward $158 $-1 #
coedge $-1 $254 $254 $159 $255 forward $249 $-1 #
edge $-1 $392 2.630583393804449e-016 $392 6.2831853071796004 $254 $393 forward 7 unknown #
face $-1 $394 $395 $54 $-1 $396 reversed single #
loop $-1 $-1 $397 $160 #
plane-surface $-1 5.7707706723030903 -109.16638407774693 79.097168676312435 1 0 0 0 0.71933980857756763 -0.69465836192734942 forward_v I I I I #
coedge $-1 $398 $399 $400 $401 reversed $161 $-1 #
coedge $-1 $261 $163 $402 $403 reversed $103 $-1 #
coedge $-1 $163 $260 $398 $404 reversed $103 $-1 #
coedge $-1 $400 $405 $163 $263 forward $406 $-1 #
edge $-1 $407 26.064005470527817 $408 36.041195830972796 $262 $409 forward 7 unknown #
loop $-1 $-1 $269 $164 #
plane-surface $-1 10.49386285545387 -28.519186568345631 1.2170771703365801 0 -0.71933980857756763 0.69465836192734942 1 0 0 forward_v I I I I #
loop $-1 $-1 $410 $105 #
coedge $-1 $267 $267 $268 $411 reversed $165 $-1 #
coedge $-1 $268 $268 $267 $411 forward $167 $-1 #
coedge $-1 $269 $269 $168 $270 forward $264 $-1 #
edge $-1 $412 2.630583393804449e-016 $412 6.2831853071796004 $269 $413 forward 7 unknown #
loop $-1 $-1 $276 $169 #
plane-surface $-1 10.49386285545387 -28.519186568345631 1.2170771703365801 0 -0.71933980857756763 0.69465836192734942 1 0 0 forward_v I I I I #
loop $-1 $-1 $414 $108 #
coedge $-1 $274 $274 $275 $415 reversed $170 $-1 #
coedge $-1 $275 $275 $274 $415 forward $172 $-1 #
coedge $-1 $276 $276 $173 $277 forward $271 $-1 #
edge $-1 $416 2.630583393804449e-016 $416 6.2831853071796004 $276 $417 forward 7 unknown #
face $-1 $418 $419 $57 $-1 $420 reversed single #
loop $-1 $-1 $421 $174 #
plane-surface $-1 26.758496383210858 -109.16638407774693 79.097168676312435 1 0 0 0 0.71933980857756763 -0.69465836192734942 forward_v I I I I #
coedge $-1 $422 $423 $424 $425 reversed $175 $-1 #
coedge $-1 $283 $177 $426 $427 reversed $112 $-1 #
coedge $-1 $177 $282 $422 $428 reversed $112 $-1 #
coedge $-1 $424 $429 $177 $285 forward $430 $-1 #
edge $-1 $431 26.064005470527817 $432 36.041195830972796 $284 $433 forward 7 unknown #
loop $-1 $-1 $291 $178 #
plane-surface $-1 31.481588566361637 -28.519186568345631 1.2170771703365801 0 -0.71933980857756763 0.69465836192734942 1 0 0 forward_v I I I I #
loop $-1 $-1 $434 $114 #
coedge $-1 $289 $289 $290 $435 reversed $179 $-1 #
coedge $-1 $290 $290 $289 $435 forward $181 $-1 #
coedge $-1 $291 $291 $182 $292 forward $286 $-1 #
edge $-1 $436 2.630583393804449e-016 $436 6.2831853071796004 $291 $437 forward 7 unknown #
loop $-1 $-1 $298 $183 #
plane-surface $-1 31.481588566361637 -28.519186568345631 1.2170771703365801 0 -0.71933980857756763 0.69465836192734942 1 0 0 forward_v I I I I #
loop $-1 $-1 $438 $117 #
coedge $-1 $296 $296 $297 $439 reversed $184 $-1 #
coedge $-1 $297 $297 $296 $439 forward $186 $-1 #
coedge $-1 $298 $298 $187 $299 forward $293 $-1 #
edge $-1 $440 2.630583393804449e-016 $440 6.2831853071796004 $298 $441 forward 7 unknown #
face $-1 $442 $443 $45 $-1 $444 reversed single #
loop $-1 $-1 $445 $188 #
plane-surface $-1 0 -28.519186568345646 0 0 1 0 0 0 1 forward_v I I I I #
coedge $-1 $446 $191 $447 $448 forward $121 $-1 #
coedge $-1 $191 $446 $449 $450 forward $121 $-1 #
coedge $-1 $193 $192 $191 $306 reversed $76 $-1 #
edge $-1 $451 -28.519186568345646 $452 28.519186568345646 $305 $453 forward 7 unknown #
coedge $-1 $454 $447 $192 $308 forward $455 $-1 #
edge $-1 $452 -11.548760480261286 $313 11.548760480261286 $192 $456 forward 7 unknown #
coedge $-1 $449 $457 $193 $310 reversed $301 $-1 #
edge $-1 $451 -11.548760480261286 $314 11.548760480261286 $193 $458 forward 7 unknown #
coedge $-1 $459 $194 $457 $460 forward $189 $-1 #
coedge $-1 $194 $459 $454 $461 forward $189 $-1 #
vertex $-1 $195 $462 #
vertex $-1 $310 $463 #
straight-curve $-1 56.056398205511641 0 -11.548760480261286 0 -1 0 I I #
face $-1 $464 $465 $46 $-1 $466 reversed single #
loop $-1 $-1 $202 $196 #
plane-surface $-1 -62.164006726646583 -25.519186568345646 0 0 -1 0 0 0 -1 forward_v I I I I #
coedge $-1 $467 $468 $469 $470 forward $197 $-1 #
coedge $-1 $471 $199 $327 $472 forward $125 $-1 #
coedge $-1 $199 $471 $473 $474 forward $125 $-1 #
edge $-1 $475 -28.519186568345646 $329 -25.519186568345646 $199 $476 forward 7 unknown #
coedge $-1 $201 $200 $477 $478 reversed $79 $-1 #
coedge $-1 $479 $480 $201 $325 forward $465 $-1 #
edge $-1 $328 25.519186568345646 $481 28.519186568345646 $324 $482 forward 7 unknown #
coedge $-1 $469 $202 $480 $483 reversed $317 $-1 #
coedge $-1 $202 $469 $320 $472 reversed $317 $-1 #
vertex $-1 $325 $484 #
vertex $-1 $472 $485 #
straight-curve $-1 -56.056398205511641 -25.519186568345646 0 0 0 1 I I #
face $-1 $486 $487 $47 $-1 $488 reversed single #
loop $-1 $-1 $489 $204 #
plane-surface $-1 62.164006726646591 -25.519186568345646 0 0 -1 0 0 0 -1 forward_v I I I I #
coedge $-1 $490 $491 $208 $339 forward $205 $-1 #
coedge $-1 $492 $207 $491 $493 reversed $129 $-1 #
coedge $-1 $207 $492 $494 $495 reversed $129 $-1 #
coedge $-1 $209 $208 $207 $338 reversed $82 $-1 #
edge $-1 $496 -11.548760480261286 $497 11.548760480261286 $207 $498 forward 7 unknown #
edge $-1 $497 -28.519186568345646 $345 -25.519186568345646 $334 $499 forward 7 unknown #
coedge $-1 $494 $500 $209 $341 forward $501 $-1 #
edge $-1 $344 25.519186568345646 $496 28.519186568345646 $340 $502 forward 7 unknown #
coedge $-1 $489 $210 $500 $503 reversed $332 $-1 #
coedge $-1 $210 $489 $490 $504 reversed $332 $-1 #
vertex $-1 $341 $505 #
vertex $-1 $504 $506 #
straight-curve $-1 56.056398205511641 -25.519186568345646 0 0 0 -1 I I #
face $-1 $-1 $507 $48 $-1 $508 reversed single #
loop $-1 $-1 $218 $212 #
plane-surface $-1 0 0 11.548760480261286 0 0 1 1 0 0 forward_v I I I I #
coedge $-1 $509 $510 $511 $512 reversed $213 $-1 #
coedge $-1 $513 $215 $217 $357 forward $133 $-1 #
coedge $-1 $215 $513 $509 $514 forward $133 $-1 #
coedge $-1 $511 $218 $215 $354 forward $348 $-1 #
edge $-1 $360 11.017702100030041 $515 20.463886466331601 $353 $516 forward 7 unknown #
coedge $-1 $517 $518 $216 $356 forward $507 $-1 #
edge $-1 $519 -38.331507167819652 $359 -27.999823857894931 $355 $520 forward 7 unknown #
edge $-1 $360 -14.362729806869329 $519 2.0413573615811715e-014 $217 $521 forward 7 unknown #
coedge $-1 $218 $511 $517 $522 forward $348 $-1 #
vertex $-1 $219 $523 #
vertex $-1 $219 $524 #
straight-curve $-1 -26.758496383210861 -54.583192038873463 11.548760480261286 0 1 0 I I #
coedge $-1 $362 $362 $-1 $525 reversed $222 $-1 #
edge $-1 $526 0 $526 6.2831853071796004 $223 $527 forward 7 unknown #
vertex $-1 $226 $528 #
ellipse-curve $-1 -33.505770930569113 -23.53059138812316 6.3829188252989244 0 -0.71933980857756763 0.69465836192734942 1 0 0 1 I I #
coedge $-1 $366 $366 $-1 $529 reversed $229 $-1 #
edge $-1 $530 0 $530 6.2831853071796004 $230 $531 forward 7 unknown #
vertex $-1 $233 $532 #
ellipse-curve $-1 -29.457406202154164 -23.53059138812316 6.3829188252989244 0 -0.71933980857756763 0.69465836192734942 1 0 0 1 I I #
face $-1 $-1 $382 $51 $-1 $533 forward single #
loop $-1 $-1 $534 $234 #
plane-surface $-1 0 -28.519186568345646 0 0 1 0 0 0 1 forward_v I I I I #
coedge $-1 $535 $536 $537 $538 reversed $235 $-1 #
coedge $-1 $539 $237 $239 $380 forward $147 $-1 #
coedge $-1 $237 $539 $535 $540 forward $147 $-1 #
coedge $-1 $537 $240 $237 $377 forward $382 $-1 #
edge $-1 $384 0.5238392445761626 $541 9.9700236108777212 $376 $542 forward 7 unknown #
coedge $-1 $543 $544 $238 $379 forward $371 $-1 #
edge $-1 $545 -38.331507167819652 $383 -27.999823857894931 $378 $546 forward 7 unknown #
edge $-1 $384 -14.362729806869329 $545 2.0413573615811715e-014 $239 $547 forward 7 unknown #
coedge $-1 $240 $537 $543 $548 forward $382 $-1 #
loop $-1 $-1 $537 $370 #
vertex $-1 $379 $549 #
vertex $-1 $241 $550 #
straight-curve $-1 -5.7707706723031045 -54.583192038873463 11.548760480261286 0 1 0 I I #
coedge $-1 $386 $386 $-1 $551 reversed $244 $-1 #
edge $-1 $552 0 $552 6.2831853071796004 $245 $553 forward 7 unknown #
vertex $-1 $248 $554 #
ellipse-curve $-1 -12.51804521966136 -23.53059138812316 6.3829188252989244 0 -0.71933980857756763 0.69465836192734942 1 0 0 1 I I #
coedge $-1 $390 $390 $-1 $555 reversed $251 $-1 #
edge $-1 $556 0 $556 6.2831853071796004 $252 $557 forward 7 unknown #
vertex $-1 $255 $558 #
ellipse-curve $-1 -8.4696804912464074 -23.53059138812316 6.3829188252989244 0 -0.71933980857756763 0.69465836192734942 1 0 0 1 I I #
face $-1 $-1 $406 $54 $-1 $559 forward single #
loop $-1 $-1 $560 $256 #
plane-surface $-1 0 -28.519186568345646 0 0 1 0 0 0 1 forward_v I I I I #
coedge $-1 $561 $562 $563 $564 reversed $257 $-1 #
coedge $-1 $565 $259 $261 $404 forward $161 $-1 #
coedge $-1 $259 $565 $561 $566 forward $161 $-1 #
coedge $-1 $563 $262 $259 $401 forward $406 $-1 #
edge $-1 $408 -9.970023610877714 $567 -0.52383924457615549 $400 $568 forward 7 unknown #
coedge $-1 $569 $570 $260 $403 forward $395 $-1 #
edge $-1 $571 -38.331507167819652 $407 -27.999823857894931 $402 $572 forward 7 unknown #
edge $-1 $408 -14.362729806869329 $571 2.0413573615811715e-014 $261 $573 forward 7 unknown #
coedge $-1 $262 $563 $569 $574 forward $406 $-1 #
loop $-1 $-1 $563 $394 #
vertex $-1 $403 $575 #
vertex $-1 $263 $576 #
straight-curve $-1 15.216955038604649 -54.583192038873463 11.548760480261286 0 1 0 I I #
coedge $-1 $410 $410 $-1 $577 reversed $266 $-1 #
edge $-1 $578 0 $578 6.2831853071796004 $267 $579 forward 7 unknown #
vertex $-1 $270 $580 #
ellipse-curve $-1 8.4696804912464074 -23.53059138812316 6.3829188252989244 0 -0.71933980857756763 0.69465836192734942 1 0 0 1 I I #
coedge $-1 $414 $414 $-1 $581 reversed $273 $-1 #
edge $-1 $582 0 $582 6.2831853071796004 $274 $583 forward 7 unknown #
vertex $-1 $277 $584 #
ellipse-curve $-1 12.51804521966136 -23.53059138812316 6.3829188252989244 0 -0.71933980857756763 0.69465836192734942 1 0 0 1 I I #
face $-1 $-1 $430 $57 $-1 $585 forward single #
loop $-1 $-1 $586 $278 #
plane-surface $-1 0 -28.519186568345646 0 0 1 0 0 0 1 forward_v I I I I #
coedge $-1 $587 $588 $589 $590 reversed $279 $-1 #
coedge $-1 $591 $281 $283 $428 forward $175 $-1 #
coedge $-1 $281 $591 $587 $592 forward $175 $-1 #
coedge $-1 $589 $284 $281 $425 forward $430 $-1 #
edge $-1 $432 -20.463886466331601 $593 -11.017702100030039 $424 $594 forward 7 unknown #
coedge $-1 $595 $596 $282 $427 forward $419 $-1 #
edge $-1 $597 -38.331507167819652 $431 -27.999823857894931 $426 $598 forward 7 unknown #
edge $-1 $432 -14.362729806869329 $597 2.0413573615811715e-014 $283 $599 forward 7 unknown #
coedge $-1 $284 $589 $595 $600 forward $430 $-1 #
loop $-1 $-1 $589 $418 #
vertex $-1 $427 $601 #
vertex $-1 $285 $602 #
straight-curve $-1 36.20468074951242 -54.583192038873463 11.548760480261286 0 1 0 I I #
coedge $-1 $434 $434 $-1 $603 reversed $288 $-1 #
edge $-1 $604 0 $604 6.2831853071796004 $289 $605 forward 7 unknown #
vertex $-1 $292 $606 #
ellipse-curve $-1 29.457406202154175 -23.53059138812316 6.3829188252989244 0 -0.71933980857756763 0.69465836192734942 1 0 0 1 I I #
coedge $-1 $438 $438 $-1 $607 reversed $295 $-1 #
edge $-1 $608 0 $608 6.2831853071796004 $296 $609 forward 7 unknown #
vertex $-1 $299 $610 #
ellipse-curve $-1 33.505770930569128 -23.53059138812316 6.3829188252989244 0 -0.71933980857756763 0.69465836192734942 1 0 0 1 I I #
face $-1 $-1 $455 $45 $-1 $611 reversed single #
loop $-1 $-1 $612 $300 #
plane-surface $-1 -56.056398205511641 0 0 1 0 0 0 0 -1 forward_v I I I I #
coedge $-1 $457 $449 $613 $614 forward $301 $-1 #
coedge $-1 $304 $303 $612 $615 forward $121 $-1 #
coedge $-1 $307 $616 $303 $448 reversed $455 $-1 #
edge $-1 $452 -56.056398205511641 $617 56.056398205511641 $447 $618 forward 7 unknown #
coedge $-1 $445 $309 $304 $450 reversed $301 $-1 #
edge $-1 $619 -56.056398205511641 $451 56.056398205511641 $449 $620 forward 7 unknown #
vertex $-1 $306 $621 #
vertex $-1 $306 $622 #
straight-curve $-1 56.056398205511641 0 11.548760480261286 0 1 0 I I #
coedge $-1 $616 $307 $312 $461 reversed $455 $-1 #
loop $-1 $-1 $307 $442 #
straight-curve $-1 56.056398205511641 28.519186568345646 0 0 0 -1 I I #
coedge $-1 $309 $445 $311 $460 reversed $301 $-1 #
straight-curve $-1 56.056398205511641 -28.519186568345646 0 0 0 -1 I I #
coedge $-1 $312 $311 $623 $624 forward $189 $-1 #
edge $-1 $314 -56.056398205511641 $625 56.056398205511641 $457 $626 forward 7 unknown #
edge $-1 $627 -56.056398205511641 $313 56.056398205511641 $454 $628 forward 7 unknown #
point $-1 56.056398205511641 28.519186568345646 -11.548760480261286 #
point $-1 56.056398205511641 -28.519186568345646 -11.548760480261286 #
face $-1 $-1 $629 $46 $-1 $630 reversed single #
loop $-1 $-1 $324 $316 #
plane-surface $-1 0 0 -11.548760480261286 0 0 1 1 0 0 forward_v I I I I #
coedge $-1 $631 $319 $632 $633 reversed $197 $-1 #
coedge $-1 $319 $631 $471 $634 reversed $197 $-1 #
coedge $-1 $327 $326 $319 $470 reversed $317 $-1 #
edge $-1 $635 -11.548760480261286 $636 11.548760480261286 $469 $637 forward 7 unknown #
coedge $-1 $321 $320 $468 $634 forward $125 $-1 #
edge $-1 $329 -6.1076085211349422 $635 6.1076085211349422 $327 $638 forward 7 unknown #
coedge $-1 $639 $477 $321 $474 reversed $629 $-1 #
edge $-1 $640 -68.271615247781526 $475 -56.056398205511641 $473 $641 forward 7 unknown #
vertex $-1 $478 $642 #
straight-curve $-1 -56.056398205511641 0 11.548760480261286 0 1 0 I I #
coedge $-1 $473 $643 $323 $478 forward $629 $-1 #
edge $-1 $481 -11.548760480261286 $475 11.548760480261286 $477 $644 forward 7 unknown #
coedge $-1 $632 $324 $643 $645 forward $465 $-1 #
coedge $-1 $324 $632 $326 $483 forward $465 $-1 #
vertex $-1 $645 $646 #
straight-curve $-1 -56.056398205511641 0 -11.548760480261286 0 -1 0 I I #
edge $-1 $636 -6.1076085211349422 $328 6.1076085211349422 $326 $647 forward 7 unknown #
point $-1 -56.056398205511641 -25.519186568345646 -11.548760480261286 #
point $-1 -56.056398205511641 -25.519186568345646 11.548760480261286 #
face $-1 $-1 $501 $47 $-1 $648 forward single #
loop $-1 $-1 $649 $331 #
plane-surface $-1 68.27161524778154 -27.019186568345646 0 -1 0 0 0 0 1 forward_v I I I I #
coedge $-1 $343 $342 $650 $651 forward $332 $-1 #
coedge $-1 $652 $334 $343 $504 forward $205 $-1 #
coedge $-1 $334 $652 $335 $493 forward $205 $-1 #
coedge $-1 $336 $335 $649 $653 reversed $129 $-1 #
edge $-1 $654 -6.1076085211349493 $497 6.1076085211349493 $335 $655 forward 7 unknown #
coedge $-1 $656 $340 $336 $495 forward $501 $-1 #
edge $-1 $496 -6.1076085211349493 $657 6.1076085211349493 $336 $658 forward 7 unknown #
vertex $-1 $495 $659 #
vertex $-1 $339 $660 #
straight-curve $-1 56.056398205511641 -28.519186568345646 0 0 0 -1 I I #
straight-curve $-1 56.056398205511641 0 -11.548760480261286 0 1 0 I I #
coedge $-1 $340 $656 $342 $503 forward $501 $-1 #
loop $-1 $-1 $340 $486 #
straight-curve $-1 56.056398205511641 0 11.548760480261286 0 -1 0 I I #
edge $-1 $661 -6.1076085211349493 $344 6.1076085211349422 $342 $662 forward 7 unknown #
edge $-1 $345 -6.1076085211349422 $663 6.1076085211349493 $343 $664 forward 7 unknown #
point $-1 56.056398205511648 -25.519186568345646 11.548760480261286 #
point $-1 56.056398205511648 -25.519186568345646 -11.548760480261286 #
loop $-1 $-1 $355 $347 #
plane-surface $-1 0 -28.519186568345646 0 0 1 0 0 0 1 forward_v I I I I #
coedge $-1 $510 $350 $352 $514 reversed $213 $-1 #
coedge $-1 $350 $509 $665 $666 reversed $213 $-1 #
coedge $-1 $358 $353 $350 $512 forward $348 $-1 #
edge $-1 $515 -36.041195830972796 $667 -26.064005470527817 $511 $668 forward 7 unknown #
coedge $-1 $352 $351 $518 $669 reversed $133 $-1 #
edge $-1 $670 -2.0413573615811715e-014 $515 14.362729806869329 $509 $671 forward 7 unknown #
vertex $-1 $354 $672 #
straight-curve $-1 -15.74079428318082 -18.54199620790067 11.548760480261286 -1 0 0 I I #
coedge $-1 $665 $355 $358 $522 reversed $507 $-1 #
coedge $-1 $355 $665 $513 $669 forward $507 $-1 #
vertex $-1 $356 $673 #
straight-curve $-1 -26.758496383210861 -28.519186568345646 39.548584338156218 0 0 1 I I #
straight-curve $-1 -26.758496383210861 -28.519186568345631 1.2170771703365801 0 -0.69465836192734942 -0.71933980857756763 I I #
edge $-1 $667 -98.36868747615901 $359 -88.922503109857445 $517 $674 forward 7 unknown #
point $-1 -26.758496383210854 -28.519186568345646 11.548760480261286 #
point $-1 -26.758496383210861 -18.541996207900667 11.548760480261286 #
edge $-1 $675 1 $675 0 $362 $-1 forward 7 unknown #
vertex $-1 $363 $676 #
ellipse-curve $-1 -33.505770930569113 -21.819406962963843 4.7304472735196725 0 -0.71933980857756763 0.69465836192734942 1 0 0 1 I I #
point $-1 -32.505770930569113 -23.53059138812317 6.3829188252989351 #
edge $-1 $677 1 $677 0 $366 $-1 forward 7 unknown #
vertex $-1 $367 $678 #
ellipse-curve $-1 -29.457406202154164 -21.819406962963843 4.7304472735196725 0 -0.71933980857756763 0.69465836192734942 1 0 0 1 I I #
point $-1 -28.457406202154164 -23.53059138812317 6.3829188252989351 #
plane-surface $-1 0 0 11.548760480261286 0 0 1 1 0 0 forward_v I I I I #
coedge $-1 $544 $543 $536 $679 forward $371 $-1 #
coedge $-1 $536 $373 $375 $540 reversed $235 $-1 #
coedge $-1 $373 $535 $534 $679 reversed $235 $-1 #
coedge $-1 $381 $376 $373 $538 forward $382 $-1 #
edge $-1 $541 -36.041195830972796 $680 -26.064005470527817 $537 $681 forward 7 unknown #
coedge $-1 $375 $374 $544 $682 reversed $147 $-1 #
edge $-1 $683 -2.0413573615811715e-014 $541 14.362729806869329 $535 $684 forward 7 unknown #
vertex $-1 $377 $685 #
straight-curve $-1 -5.2469314277269419 -18.54199620790067 11.548760480261286 -1 0 0 I I #
coedge $-1 $534 $378 $381 $548 reversed $371 $-1 #
coedge $-1 $378 $534 $539 $682 forward $371 $-1 #
vertex $-1 $379 $686 #
straight-curve $-1 -5.7707706723031045 -28.519186568345646 39.548584338156218 0 0 1 I I #
straight-curve $-1 -5.7707706723031045 -28.519186568345631 1.2170771703365801 0 -0.69465836192734942 -0.71933980857756763 I I #
edge $-1 $680 -77.380961765251257 $383 -67.934777398949691 $543 $687 forward 7 unknown #
point $-1 -5.7707706723031009 -28.519186568345646 11.548760480261286 #
point $-1 -5.7707706723031045 -18.541996207900667 11.548760480261286 #
edge $-1 $688 1 $688 0 $386 $-1 forward 7 unknown #
vertex $-1 $387 $689 #
ellipse-curve $-1 -12.51804521966136 -21.819406962963843 4.7304472735196725 0 -0.71933980857756763 0.69465836192734942 1 0 0 1 I I #
point $-1 -11.51804521966136 -23.53059138812317 6.3829188252989351 #
edge $-1 $690 1 $690 0 $390 $-1 forward 7 unknown #
vertex $-1 $391 $691 #
ellipse-curve $-1 -8.4696804912464074 -21.819406962963843 4.7304472735196725 0 -0.71933980857756763 0.69465836192734942 1 0 0 1 I I #
point $-1 -7.4696804912464074 -23.53059138812317 6.3829188252989351 #
plane-surface $-1 0 0 11.548760480261286 0 0 1 1 0 0 forward_v I I I I #
coedge $-1 $570 $569 $562 $692 forward $395 $-1 #
coedge $-1 $562 $397 $399 $566 reversed $257 $-1 #
coedge $-1 $397 $561 $560 $692 reversed $257 $-1 #
coedge $-1 $405 $400 $397 $564 forward $406 $-1 #
edge $-1 $567 -36.041195830972796 $693 -26.064005470527817 $563 $694 forward 7 unknown #
coedge $-1 $399 $398 $570 $695 reversed $161 $-1 #
edge $-1 $696 -2.0413573615811715e-014 $567 14.362729806869329 $561 $697 forward 7 unknown #
vertex $-1 $401 $698 #
straight-curve $-1 5.2469314277269348 -18.54199620790067 11.548760480261286 -1 0 0 I I #
coedge $-1 $560 $402 $405 $574 reversed $395 $-1 #
coedge $-1 $402 $560 $565 $695 forward $395 $-1 #
vertex $-1 $403 $699 #
straight-curve $-1 15.216955038604649 -28.519186568345646 39.548584338156218 0 0 1 I I #
straight-curve $-1 15.216955038604649 -28.519186568345631 1.2170771703365801 0 -0.69465836192734942 -0.71933980857756763 I I #
edge $-1 $693 -56.393236054343504 $407 -46.947051688041938 $569 $700 forward 7 unknown #
point $-1 15.216955038604652 -28.519186568345646 11.548760480261286 #
point $-1 15.216955038604649 -18.541996207900667 11.548760480261286 #
edge $-1 $701 1 $701 0 $410 $-1 forward 7 unknown #
vertex $-1 $411 $702 #
ellipse-curve $-1 8.4696804912464074 -21.819406962963843 4.7304472735196725 0 -0.71933980857756763 0.69465836192734942 1 0 0 1 I I #
point $-1 9.4696804912464074 -23.53059138812317 6.3829188252989351 #
edge $-1 $703 1 $703 0 $414 $-1 forward 7 unknown #
vertex $-1 $415 $704 #
ellipse-curve $-1 12.51804521966136 -21.819406962963843 4.7304472735196725 0 -0.71933980857756763 0.69465836192734942 1 0 0 1 I I #
point $-1 13.51804521966136 -23.53059138812317 6.3829188252989351 #
plane-surface $-1 0 0 11.548760480261286 0 0 1 1 0 0 forward_v I I I I #
coedge $-1 $596 $595 $588 $705 forward $419 $-1 #
coedge $-1 $588 $421 $423 $592 reversed $279 $-1 #
coedge $-1 $421 $587 $586 $705 reversed $279 $-1 #
coedge $-1 $429 $424 $421 $590 forward $430 $-1 #
edge $-1 $593 -36.041195830972796 $706 -26.064005470527817 $589 $707 forward 7 unknown #
coedge $-1 $423 $422 $596 $708 reversed $175 $-1 #
edge $-1 $709 -2.0413573615811715e-014 $593 14.362729806869329 $587 $710 forward 7 unknown #
vertex $-1 $425 $711 #
straight-curve $-1 15.740794283180819 -18.54199620790067 11.548760480261286 -1 0 0 I I #
coedge $-1 $586 $426 $429 $600 reversed $419 $-1 #
coedge $-1 $426 $586 $591 $708 forward $419 $-1 #
vertex $-1 $427 $712 #
straight-curve $-1 36.20468074951242 -28.519186568345646 39.548584338156218 0 0 1 I I #
straight-curve $-1 36.20468074951242 -28.519186568345631 1.2170771703365801 0 -0.69465836192734942 -0.71933980857756763 I I #
edge $-1 $706 -35.405510343435736 $431 -25.959325977134171 $595 $713 forward 7 unknown #
point $-1 36.20468074951242 -28.519186568345646 11.548760480261286 #
point $-1 36.20468074951242 -18.541996207900667 11.548760480261286 #
edge $-1 $714 1 $714 0 $434 $-1 forward 7 unknown #
vertex $-1 $435 $715 #
ellipse-curve $-1 29.457406202154175 -21.819406962963843 4.7304472735196725 0 -0.71933980857756763 0.69465836192734942 1 0 0 1 I I #
point $-1 30.457406202154175 -23.53059138812317 6.3829188252989351 #
edge $-1 $716 1 $716 0 $438 $-1 forward 7 unknown #
vertex $-1 $439 $717 #
ellipse-curve $-1 33.505770930569128 -21.819406962963843 4.7304472735196725 0 -0.71933980857756763 0.69465836192734942 1 0 0 1 I I #
point $-1 34.505770930569128 -23.53059138812317 6.3829188252989351 #
plane-surface $-1 0 28.519186568345646 0 0 -1 0 0 0 -1 forward_v I I I I #
coedge $-1 $718 $613 $446 $615 reversed $443 $-1 #
coedge $-1 $612 $623 $445 $614 reversed $443 $-1 #
edge $-1 $619 -11.548760480261286 $625 11.548760480261286 $613 $719 forward 7 unknown #
edge $-1 $617 -28.519186568345646 $619 28.519186568345646 $612 $720 forward 7 unknown #
coedge $-1 $447 $454 $718 $721 reversed $455 $-1 #
vertex $-1 $448 $722 #
straight-curve $-1 0 28.519186568345646 11.548760480261286 -1 0 0 I I #
vertex $-1 $615 $723 #
straight-curve $-1 0 -28.519186568345646 11.548760480261286 1 0 0 I I #
point $-1 56.056398205511641 -28.519186568345646 11.548760480261286 #
point $-1 56.056398205511641 28.519186568345646 11.548760480261286 #
coedge $-1 $613 $718 $459 $624 reversed $443 $-1 #
edge $-1 $625 -28.519186568345646 $627 28.519186568345646 $623 $724 forward 7 unknown #
vertex $-1 $624 $725 #
straight-curve $-1 0 -28.519186568345646 -11.548760480261286 -1 0 0 I I #
vertex $-1 $461 $726 #
straight-curve $-1 0 28.519186568345646 -11.548760480261286 1 0 0 I I #
loop $-1 $-1 $477 $464 #
plane-surface $-1 0 -28.519186568345646 0 0 1 0 0 0 1 forward_v I I I I #
coedge $-1 $468 $467 $639 $727 reversed $197 $-1 #
coedge $-1 $480 $479 $467 $633 forward $465 $-1 #
edge $-1 $728 -1.5 $636 1.5 $467 $729 forward 7 unknown #
edge $-1 $635 -1.5 $640 1.5 $468 $730 forward 7 unknown #
vertex $-1 $472 $731 #
vertex $-1 $483 $732 #
straight-curve $-1 -68.271615247781526 -25.519186568345646 0 0 0 -1 I I #
straight-curve $-1 -62.164006726646583 -25.519186568345646 11.548760480261286 -1 0 0 I I #
coedge $-1 $643 $473 $631 $727 forward $629 $-1 #
vertex $-1 $634 $733 #
straight-curve $-1 0 -28.519186568345646 11.548760480261286 1 0 0 I I #
point $-1 -56.056398205511641 -28.519186568345646 11.548760480261286 #
coedge $-1 $477 $639 $479 $645 reversed $629 $-1 #
straight-curve $-1 -56.056398205511641 -28.519186568345646 0 0 0 1 I I #
edge $-1 $481 -6.1076085211349422 $728 6.1076085211349422 $643 $734 forward 7 unknown #
point $-1 -56.056398205511641 -28.519186568345646 -11.548760480261286 #
straight-curve $-1 -62.164006726646583 -25.519186568345646 -11.548760480261286 1 0 0 I I #
plane-surface $-1 0 0 11.548760480261286 0 0 1 1 0 0 forward_v I I I I #
coedge $-1 $735 $736 $492 $653 forward $487 $-1 #
coedge $-1 $736 $735 $489 $651 reversed $487 $-1 #
edge $-1 $661 -11.548760480261286 $663 11.548760480261286 $650 $737 forward 7 unknown #
coedge $-1 $491 $490 $735 $738 forward $205 $-1 #
edge $-1 $657 -11.548760480261286 $654 11.548760480261286 $649 $739 forward 7 unknown #
vertex $-1 $653 $740 #
straight-curve $-1 62.164006726646591 -28.519186568345646 -11.548760480261286 -1 0 0 I I #
coedge $-1 $500 $494 $736 $741 forward $501 $-1 #
vertex $-1 $741 $742 #
straight-curve $-1 62.164006726646591 -28.519186568345646 11.548760480261286 1 0 0 I I #
point $-1 56.056398205511641 -28.519186568345646 11.548760480261286 #
point $-1 56.056398205511641 -28.519186568345646 -11.548760480261286 #
vertex $-1 $741 $743 #
straight-curve $-1 62.164006726646591 -25.519186568345646 11.548760480261286 -1 0 0 I I #
vertex $-1 $738 $744 #
straight-curve $-1 62.164006726646591 -25.519186568345646 -11.548760480261286 1 0 0 I I #
coedge $-1 $518 $517 $510 $666 forward $507 $-1 #
edge $-1 $667 27.999823857894931 $670 38.331507167819652 $665 $745 forward 7 unknown #
vertex $-1 $522 $746 #
straight-curve $-1 -36.20468074951242 -54.583192038873463 11.548760480261286 0 -1 0 I I #
edge $-1 $670 -20.463886466331601 $519 -11.017702100030041 $518 $747 forward 7 unknown #
vertex $-1 $669 $748 #
straight-curve $-1 -36.20468074951242 -28.519186568345631 1.2170771703365801 0 0.69465836192734942 0.71933980857756763 I I #
point $-1 -36.20468074951242 -18.541996207900667 11.548760480261286 #
point $-1 -26.758496383210861 -28.519186568345646 1.2170771703365655 #
straight-curve $-1 62.164006726646591 -28.519186568345646 11.548760480261286 1 0 0 I I #
vertex $-1 $525 $749 #
point $-1 -32.505770930569113 -21.819406962963843 4.7304472735196725 #
vertex $-1 $529 $750 #
point $-1 -28.457406202154164 -21.819406962963843 4.7304472735196725 #
edge $-1 $680 27.999823857894931 $683 38.331507167819652 $534 $751 forward 7 unknown #
vertex $-1 $548 $752 #
straight-curve $-1 -15.216955038604663 -54.583192038873463 11.548760480261286 0 -1 0 I I #
edge $-1 $683 -9.9700236108777212 $545 -0.5238392445761626 $544 $753 forward 7 unknown #
vertex $-1 $682 $754 #
straight-curve $-1 -15.216955038604663 -28.519186568345631 1.2170771703365801 0 0.69465836192734942 0.71933980857756763 I I #
point $-1 -15.216955038604663 -18.541996207900667 11.548760480261286 #
point $-1 -5.7707706723031045 -28.519186568345646 1.2170771703365655 #
straight-curve $-1 62.164006726646591 -28.519186568345646 11.548760480261286 1 0 0 I I #
vertex $-1 $551 $755 #
point $-1 -11.51804521966136 -21.819406962963843 4.7304472735196725 #
vertex $-1 $555 $756 #
point $-1 -7.4696804912464074 -21.819406962963843 4.7304472735196725 #
edge $-1 $693 27.999823857894931 $696 38.331507167819652 $560 $757 forward 7 unknown #
vertex $-1 $574 $758 #
straight-curve $-1 5.7707706723030903 -54.583192038873463 11.548760480261286 0 -1 0 I I #
edge $-1 $696 0.52383924457615549 $571 9.970023610877714 $570 $759 forward 7 unknown #
vertex $-1 $695 $760 #
straight-curve $-1 5.7707706723030903 -28.519186568345631 1.2170771703365801 0 0.69465836192734942 0.71933980857756763 I I #
point $-1 5.7707706723030903 -18.541996207900667 11.548760480261286 #
point $-1 15.216955038604649 -28.519186568345646 1.2170771703365655 #
straight-curve $-1 62.164006726646591 -28.519186568345646 11.548760480261286 1 0 0 I I #
vertex $-1 $577 $761 #
point $-1 9.4696804912464074 -21.819406962963843 4.7304472735196725 #
vertex $-1 $581 $762 #
point $-1 13.51804521966136 -21.819406962963843 4.7304472735196725 #
edge $-1 $706 27.999823857894931 $709 38.331507167819652 $586 $763 forward 7 unknown #
vertex $-1 $600 $764 #
straight-curve $-1 26.758496383210858 -54.583192038873463 11.548760480261286 0 -1 0 I I #
edge $-1 $709 11.017702100030039 $597 20.463886466331601 $596 $765 forward 7 unknown #
vertex $-1 $708 $766 #
straight-curve $-1 26.758496383210858 -28.519186568345631 1.2170771703365801 0 0.69465836192734942 0.71933980857756763 I I #
point $-1 26.758496383210858 -18.541996207900667 11.548760480261286 #
point $-1 36.20468074951242 -28.519186568345646 1.2170771703365655 #
straight-curve $-1 62.164006726646591 -28.519186568345646 11.548760480261286 1 0 0 I I #
vertex $-1 $603 $767 #
point $-1 30.457406202154175 -21.819406962963843 4.7304472735196725 #
vertex $-1 $607 $768 #
point $-1 34.505770930569128 -21.819406962963843 4.7304472735196725 #
coedge $-1 $623 $612 $616 $721 forward $443 $-1 #
straight-curve $-1 -56.056398205511641 -28.519186568345646 0 0 0 -1 I I #
straight-curve $-1 -56.056398205511641 0 11.548760480261286 0 -1 0 I I #
edge $-1 $617 -11.548760480261286 $627 11.548760480261286 $616 $769 forward 7 unknown #
point $-1 -56.056398205511641 28.519186568345646 11.548760480261286 #
point $-1 -56.056398205511641 -28.519186568345646 11.548760480261286 #
straight-curve $-1 -56.056398205511641 0 -11.548760480261286 0 1 0 I I #
point $-1 -56.056398205511641 -28.519186568345646 -11.548760480261286 #
point $-1 -56.056398205511641 28.519186568345646 -11.548760480261286 #
edge $-1 $640 -11.548760480261286 $728 11.548760480261286 $631 $770 forward 7 unknown #
vertex $-1 $633 $771 #
straight-curve $-1 -68.271615247781526 -27.019186568345646 -11.548760480261286 0 1 0 I I #
straight-curve $-1 -68.271615247781526 -27.019186568345646 11.548760480261286 0 -1 0 I I #
point $-1 -68.271615247781526 -25.519186568345646 11.548760480261286 #
point $-1 -68.271615247781526 -25.519186568345646 -11.548760480261286 #
point $-1 -68.271615247781526 -28.519186568345646 11.548760480261286 #
straight-curve $-1 -62.164006726646583 -28.519186568345646 -11.548760480261286 -1 0 0 I I #
coedge $-1 $650 $649 $652 $738 reversed $487 $-1 #
coedge $-1 $649 $650 $656 $741 reversed $487 $-1 #
straight-curve $-1 68.27161524778154 -25.519186568345646 0 0 0 -1 I I #
edge $-1 $663 -1.5 $654 1.5 $735 $772 forward 7 unknown #
straight-curve $-1 68.27161524778154 -28.519186568345646 0 0 0 -1 I I #
point $-1 68.27161524778154 -28.519186568345646 -11.548760480261286 #
edge $-1 $657 -1.5 $661 1.5 $736 $773 forward 7 unknown #
point $-1 68.27161524778154 -28.519186568345646 11.548760480261286 #
point $-1 68.27161524778154 -25.519186568345646 11.548760480261286 #
point $-1 68.27161524778154 -25.519186568345646 -11.548760480261286 #
straight-curve $-1 -36.20468074951242 -28.519186568345646 39.548584338156218 0 0 -1 I I #
point $-1 -36.20468074951242 -28.519186568345646 11.548760480261286 #
straight-curve $-1 -15.74079428318082 -28.519186568345646 1.2170771703365637 1 0 0 I I #
point $-1 -36.20468074951242 -28.519186568345646 1.2170771703365655 #
point $-1 -33.505770930569113 -21.100067154386277 4.0357889115923236 #
point $-1 -29.457406202154164 -21.100067154386277 4.0357889115923236 #
straight-curve $-1 -15.216955038604663 -28.519186568345646 39.548584338156218 0 0 -1 I I #
point $-1 -15.216955038604667 -28.519186568345646 11.548760480261286 #
straight-curve $-1 -5.2469314277269419 -28.519186568345646 1.2170771703365637 1 0 0 I I #
point $-1 -15.216955038604663 -28.519186568345646 1.2170771703365655 #
point $-1 -12.51804521966136 -21.100067154386277 4.0357889115923236 #
point $-1 -8.4696804912464074 -21.100067154386277 4.0357889115923236 #
straight-curve $-1 5.7707706723030903 -28.519186568345646 39.548584338156218 0 0 -1 I I #
point $-1 5.7707706723030867 -28.519186568345646 11.548760480261286 #
straight-curve $-1 5.2469314277269348 -28.519186568345646 1.2170771703365637 1 0 0 I I #
point $-1 5.7707706723030903 -28.519186568345646 1.2170771703365655 #
point $-1 8.4696804912464074 -21.100067154386277 4.0357889115923236 #
point $-1 12.51804521966136 -21.100067154386277 4.0357889115923236 #
straight-curve $-1 26.758496383210858 -28.519186568345646 39.548584338156218 0 0 -1 I I #
point $-1 26.758496383210854 -28.519186568345646 11.548760480261286 #
straight-curve $-1 15.740794283180819 -28.519186568345646 1.2170771703365637 1 0 0 I I #
point $-1 26.758496383210858 -28.519186568345646 1.2170771703365655 #
point $-1 29.457406202154175 -21.100067154386277 4.0357889115923236 #
point $-1 33.505770930569128 -21.100067154386277 4.0357889115923236 #
straight-curve $-1 -56.056398205511641 28.519186568345646 0 0 0 -1 I I #
straight-curve $-1 -68.271615247781526 -28.519186568345646 0 0 0 -1 I I #
point $-1 -68.271615247781526 -28.519186568345646 -11.548760480261286 #
straight-curve $-1 68.27161524778154 -27.019186568345646 -11.548760480261286 0 -1 0 I I #
straight-curve $-1 68.27161524778154 -27.019186568345646 11.548760480261286 0 1 0 I I #
End-of-ACIS-data 