500 0 9 0           
7 Unknown 11 ACIS 5.0 NT 24 Thu Mar 25 19:08:06 1999 
-1 9.9999999999999995e-007 1e-010 
body $-1 $9 $-1 $10 #
body $-1 $11 $-1 $12 #
body $-1 $13 $-1 $14 #
body $-1 $15 $-1 $16 #
body $-1 $17 $-1 $18 #
body $-1 $19 $-1 $20 #
body $-1 $21 $-1 $22 #
body $-1 $23 $-1 $24 #
body $-1 $25 $-1 $26 #
lump $-1 $-1 $27 $0 #
transform $-1 1 0 0 0 1 0 0 0 1 46.273384807885982 23.373799899571029 11.56128191449652 1 rotate no_reflect no_shear #
lump $-1 $-1 $28 $1 #
transform $-1 1 0 0 0 1 0 0 0 1 46.273384807885982 23.373799899571029 11.56128191449652 1 rotate no_reflect no_shear #
lump $-1 $-1 $29 $2 #
transform $-1 1 0 0 0 1 0 0 0 1 46.273384807885982 23.373799899571029 11.56128191449652 1 rotate no_reflect no_shear #
lump $-1 $-1 $30 $3 #
transform $-1 1 0 0 0 1 0 0 0 1 46.273384807885982 23.373799899571029 11.56128191449652 1 rotate no_reflect no_shear #
lump $-1 $-1 $31 $4 #
transform $-1 1 0 0 0 1 0 0 0 1 46.273384807885982 23.373799899571029 11.56128191449652 1 rotate no_reflect no_shear #
lump $-1 $-1 $32 $5 #
transform $-1 1 0 0 0 1 0 0 0 1 46.273384807885982 23.373799899571029 11.56128191449652 1 rotate no_reflect no_shear #
lump $-1 $-1 $33 $6 #
transform $-1 1 0 0 0 1 0 0 0 1 46.273384807885982 23.373799899571029 11.56128191449652 1 rotate no_reflect no_shear #
lump $-1 $-1 $34 $7 #
transform $-1 1 0 0 0 1 0 0 0 1 46.273384807885982 23.373799899571029 11.56128191449652 1 rotate no_reflect no_shear #
lump $-1 $-1 $35 $8 #
transform $-1 1 0 0 0 1 0 0 0 1 46.273384807885982 23.373799899571029 11.56128191449652 1 rotate no_reflect no_shear #
shell $-1 $-1 $-1 $36 $-1 $9 #
shell $-1 $-1 $-1 $37 $-1 $11 #
shell $-1 $-1 $-1 $38 $-1 $13 #
shell $-1 $-1 $-1 $39 $-1 $15 #
shell $-1 $-1 $-1 $40 $-1 $17 #
shell $-1 $-1 $-1 $41 $-1 $19 #
shell $-1 $-1 $-1 $42 $-1 $21 #
shell $-1 $-1 $-1 $43 $-1 $23 #
shell $-1 $-1 $-1 $44 $-1 $25 #
face $-1 $45 $46 $27 $-1 $47 forward single #
face $-1 $48 $49 $28 $-1 $50 forward single #
face $-1 $51 $52 $29 $-1 $53 reversed single #
face $-1 $54 $55 $30 $-1 $56 forward single #
face $-1 $57 $58 $31 $-1 $59 forward single #
face $-1 $60 $61 $32 $-1 $62 forward single #
face $-1 $63 $64 $33 $-1 $65 reversed single #
face $-1 $66 $67 $34 $-1 $68 forward single #
face $-1 $69 $70 $35 $-1 $71 forward single #
face $-1 $72 $73 $27 $-1 $74 reversed single #
loop $-1 $-1 $75 $36 #
plane-surface $-1 0 0 11.56128191449652 0 0 1 1 0 0 forward_v I I I I #
face $-1 $76 $77 $28 $-1 $78 reversed single #
loop $-1 $-1 $79 $37 #
plane-surface $-1 -39.74674178827442 0 -6.7902022824214203 0 0 1 1 0 0 forward_v I I I I #
face $-1 $80 $81 $29 $-1 $82 reversed single #
loop $-1 $-1 $83 $38 #
plane-surface $-1 -33.220098768662858 55.758704592429126 101.91925145213729 1 0 0 0 -0.70710678939079041 -0.70710677298230451 forward_v I I I I #
face $-1 $84 $85 $30 $-1 $86 forward single #
loop $-1 $87 $88 $39 #
cone-surface $-1 -28.885233009690449 18.098518163564275 6.2860001120595648 0 -0.70710678939079041 -0.70710677298230451 1 0 0 1 I I 0 1 1 forward I I I I #
face $-1 $89 $90 $31 $-1 $91 forward single #
loop $-1 $92 $93 $40 #
cone-surface $-1 -22.382934371231833 18.098518163564275 6.2860001120595648 0 -0.70710678939079041 -0.70710677298230451 1 0 0 1 I I 0 1 1 forward I I I I #
face $-1 $94 $95 $32 $-1 $96 forward single #
loop $-1 $97 $98 $41 #
cone-surface $-1 -15.880635732773218 18.098518163564275 6.2860001120595648 0 -0.70710678939079041 -0.70710677298230451 1 0 0 1 I I 0 1 1 forward I I I I #
face $-1 $99 $100 $33 $-1 $101 reversed single #
loop $-1 $-1 $102 $42 #
plane-surface $-1 36.141222587259215 -23.373799899571033 6.1920169710884068 0 -0.54463904215088732 0.83867056331134215 1 0 0 forward_v I I I I #
face $-1 $103 $104 $34 $-1 $105 forward single #
loop $-1 $106 $107 $43 #
cone-surface $-1 31.798867349847747 -18.129939659385393 7.1675705465080339 0 0.54463904215088732 -0.83867056331134215 1.5 0 0 1 I I 0 1 1.5 forward I I I I #
face $-1 $108 $109 $35 $-1 $110 forward single #
loop $-1 $111 $112 $44 #
cone-surface $-1 40.483577824670697 -18.129939659385393 7.1675705465080339 0 0.54463904215088732 -0.83867056331134215 1.5 0 0 1 I I 0 1 1.5 forward I I I I #
face $-1 $113 $114 $27 $-1 $115 reversed single #
loop $-1 $-1 $116 $45 #
plane-surface $-1 0 0 -11.56128191449652 0 0 1 1 0 0 forward_v I I I I #
coedge $-1 $117 $118 $119 $120 forward $46 $-1 #
face $-1 $121 $122 $28 $-1 $123 reversed single #
loop $-1 $-1 $124 $48 #
plane-surface $-1 -33.220098768662858 0 -9.1757420984589704 -1 0 0 0 0 1 forward_v I I I I #
coedge $-1 $125 $126 $127 $128 forward $49 $-1 #
face $-1 $129 $130 $29 $-1 $131 reversed single #
loop $-1 $-1 $132 $51 #
plane-surface $-1 -22.38293437123183 -9.6817445390685464 36.478803839191983 0 0.70710678939079041 0.70710677298230451 1 0 0 forward_v I I I I #
coedge $-1 $133 $134 $135 $136 reversed $52 $-1 #
face $-1 $-1 $137 $30 $-1 $138 forward single #
loop $-1 $139 $140 $54 #
cone-surface $-1 -28.885233009690449 16.538694578941016 4.7261765636321709 0 -0.70710678939079041 -0.70710677298230451 0.5 0 0 1 I I -0.70710678118654746 0.70710678118654746 0.5 forward I I I I #
loop $-1 $-1 $141 $39 #
coedge $-1 $88 $88 $142 $143 reversed $55 $-1 #
face $-1 $-1 $144 $31 $-1 $145 forward single #
loop $-1 $146 $147 $57 #
cone-surface $-1 -22.382934371231833 16.538694578941016 4.7261765636321709 0 -0.70710678939079041 -0.70710677298230451 0.5 0 0 1 I I -0.70710678118654746 0.70710678118654746 0.5 forward I I I I #
loop $-1 $-1 $148 $40 #
coedge $-1 $93 $93 $149 $150 reversed $58 $-1 #
face $-1 $-1 $151 $32 $-1 $152 forward single #
loop $-1 $153 $154 $60 #
cone-surface $-1 -15.880635732773218 16.538694578941016 4.7261765636321709 0 -0.70710678939079041 -0.70710677298230451 0.5 0 0 1 I I -0.70710678118654746 0.70710678118654746 0.5 forward I I I I #
loop $-1 $-1 $155 $41 #
coedge $-1 $98 $98 $156 $157 reversed $61 $-1 #
face $-1 $158 $159 $33 $-1 $160 reversed single #
loop $-1 $-1 $161 $63 #
plane-surface $-1 26.009060366632447 -73.778383857263918 83.808268377392878 1 0 0 0 0.54463904215088732 -0.83867056331134215 forward_v I I I I #
coedge $-1 $162 $163 $164 $165 reversed $64 $-1 #
face $-1 $-1 $166 $34 $-1 $167 forward single #
loop $-1 $168 $169 $66 #
cone-surface $-1 31.798867349847747 -16.611571544477041 4.8294887277401077 0 0.54463904215088732 -0.83867056331134215 0.75 0 0 1 I I -0.70710678118654757 0.70710678118654757 0.75 forward I I I I #
loop $-1 $-1 $170 $43 #
coedge $-1 $107 $107 $171 $172 reversed $67 $-1 #
face $-1 $-1 $173 $35 $-1 $174 forward single #
loop $-1 $175 $176 $69 #
cone-surface $-1 40.483577824670697 -16.611571544477041 4.8294887277401077 0 0.54463904215088732 -0.83867056331134215 0.75 0 0 1 I I -0.70710678118654757 0.70710678118654757 0.75 forward I I I I #
loop $-1 $-1 $177 $44 #
coedge $-1 $112 $112 $178 $179 reversed $70 $-1 #
face $-1 $180 $181 $27 $-1 $182 reversed single #
loop $-1 $-1 $183 $72 #
plane-surface $-1 0 -23.373799899571029 0 0 1 0 0 0 1 forward_v I I I I #
coedge $-1 $184 $185 $186 $187 forward $73 $-1 #
coedge $-1 $188 $75 $189 $190 forward $46 $-1 #
coedge $-1 $75 $188 $191 $192 forward $46 $-1 #
coedge $-1 $193 $194 $75 $120 reversed $195 $-1 #
edge $-1 $196 -23.373799899571029 $197 23.373799899571029 $119 $198 forward 7 unknown #
face $-1 $199 $200 $28 $-1 $201 reversed single #
loop $-1 $-1 $202 $76 #
plane-surface $-1 0 0 -11.56128191449652 0 0 1 1 0 0 forward_v I I I I #
coedge $-1 $203 $127 $204 $205 reversed $77 $-1 #
coedge $-1 $206 $79 $207 $208 reversed $49 $-1 #
coedge $-1 $79 $206 $209 $210 reversed $49 $-1 #
coedge $-1 $124 $211 $79 $128 reversed $77 $-1 #
edge $-1 $212 -23.373799899571029 $213 23.373799899571029 $127 $214 forward 7 unknown #
face $-1 $215 $216 $29 $-1 $217 reversed single #
loop $-1 $-1 $218 $80 #
plane-surface $-1 -11.545769973800802 55.758704592429126 101.91925145213729 -1 0 0 0 0.70710678939079041 0.70710677298230451 forward_v I I I I #
coedge $-1 $219 $220 $221 $222 reversed $81 $-1 #
coedge $-1 $134 $83 $223 $224 reversed $52 $-1 #
coedge $-1 $83 $133 $219 $225 reversed $52 $-1 #
coedge $-1 $221 $226 $83 $136 forward $227 $-1 #
edge $-1 $228 4.5055523966435338 $229 12.643575488801311 $135 $230 forward 7 unknown #
loop $-1 $-1 $142 $84 #
plane-surface $-1 -22.38293437123183 -9.6817445390685464 36.478803839191983 0 0.70710678939079041 0.70710677298230451 1 0 0 forward_v I I I I #
loop $-1 $-1 $231 $54 #
coedge $-1 $140 $140 $141 $232 reversed $85 $-1 #
coedge $-1 $141 $141 $140 $232 forward $87 $-1 #
coedge $-1 $142 $142 $88 $143 forward $137 $-1 #
edge $-1 $233 6.2803687417103658e-016 $233 6.2831853071796013 $142 $234 forward 7 unknown #
loop $-1 $-1 $149 $89 #
plane-surface $-1 -22.38293437123183 -9.6817445390685464 36.478803839191983 0 0.70710678939079041 0.70710677298230451 1 0 0 forward_v I I I I #
loop $-1 $-1 $235 $57 #
coedge $-1 $147 $147 $148 $236 reversed $90 $-1 #
coedge $-1 $148 $148 $147 $236 forward $92 $-1 #
coedge $-1 $149 $149 $93 $150 forward $144 $-1 #
edge $-1 $237 6.2803687417103658e-016 $237 6.2831853071796013 $149 $238 forward 7 unknown #
loop $-1 $-1 $156 $94 #
plane-surface $-1 -22.38293437123183 -9.6817445390685464 36.478803839191983 0 0.70710678939079041 0.70710677298230451 1 0 0 forward_v I I I I #
loop $-1 $-1 $239 $60 #
coedge $-1 $154 $154 $155 $240 reversed $95 $-1 #
coedge $-1 $155 $155 $154 $240 forward $97 $-1 #
coedge $-1 $156 $156 $98 $157 forward $151 $-1 #
edge $-1 $241 6.2803687417103658e-016 $241 6.2831853071796013 $156 $242 forward 7 unknown #
face $-1 $243 $244 $33 $-1 $245 forward single #
loop $-1 $-1 $246 $99 #
plane-surface $-1 46.273384807885982 0 0 -1 0 0 0 0 1 forward_v I I I I #
coedge $-1 $247 $248 $249 $250 reversed $100 $-1 #
coedge $-1 $251 $102 $246 $252 reversed $64 $-1 #
coedge $-1 $102 $251 $247 $253 forward $64 $-1 #
coedge $-1 $249 $254 $102 $165 forward $244 $-1 #
edge $-1 $255 -28.202773514256375 $256 -7.9384490730028396 $164 $257 forward 7 unknown #
loop $-1 $-1 $171 $103 #
plane-surface $-1 36.141222587259215 -23.373799899571033 6.1920169710884068 0 -0.54463904215088732 0.83867056331134215 1 0 0 forward_v I I I I #
loop $-1 $-1 $258 $66 #
coedge $-1 $169 $169 $170 $259 reversed $104 $-1 #
coedge $-1 $170 $170 $169 $259 forward $106 $-1 #
coedge $-1 $171 $171 $107 $172 forward $166 $-1 #
edge $-1 $260 -4.9070915229381286e-016 $260 6.2831853071795996 $171 $261 forward 7 unknown #
loop $-1 $-1 $178 $108 #
plane-surface $-1 36.141222587259215 -23.373799899571033 6.1920169710884068 0 -0.54463904215088732 0.83867056331134215 1 0 0 forward_v I I I I #
loop $-1 $-1 $262 $69 #
coedge $-1 $176 $176 $177 $263 reversed $109 $-1 #
coedge $-1 $177 $177 $176 $263 forward $111 $-1 #
coedge $-1 $178 $178 $112 $179 forward $173 $-1 #
edge $-1 $264 -4.9070915229381286e-016 $264 6.2831853071795996 $178 $265 forward 7 unknown #
face $-1 $266 $267 $27 $-1 $268 reversed single #
loop $-1 $-1 $269 $113 #
plane-surface $-1 -46.273384807885982 0 0 1 0 0 0 0 -1 forward_v I I I I #
coedge $-1 $270 $191 $271 $272 forward $114 $-1 #
coedge $-1 $273 $116 $270 $274 forward $73 $-1 #
coedge $-1 $116 $273 $275 $276 forward $73 $-1 #
coedge $-1 $194 $193 $116 $187 reversed $195 $-1 #
edge $-1 $277 -23.373799899571029 $278 23.373799899571029 $186 $279 forward 7 unknown #
coedge $-1 $118 $117 $280 $281 forward $46 $-1 #
coedge $-1 $282 $283 $117 $190 reversed $267 $-1 #
edge $-1 $197 -46.273384807885982 $284 46.273384807885982 $189 $285 forward 7 unknown #
coedge $-1 $183 $286 $118 $192 reversed $114 $-1 #
edge $-1 $287 -46.273384807885982 $196 46.273384807885982 $191 $288 forward 7 unknown #
coedge $-1 $186 $119 $286 $289 forward $195 $-1 #
coedge $-1 $119 $186 $282 $290 reversed $195 $-1 #
loop $-1 $-1 $193 $266 #
vertex $-1 $120 $291 #
vertex $-1 $120 $292 #
straight-curve $-1 46.273384807885982 0 11.56128191449652 0 1 0 I I #
face $-1 $293 $294 $28 $-1 $295 reversed single #
loop $-1 $-1 $204 $121 #
plane-surface $-1 0 -23.373799899571029 0 0 1 0 0 0 1 forward_v I I I I #
coedge $-1 $296 $297 $203 $298 forward $122 $-1 #
coedge $-1 $211 $124 $202 $298 reversed $77 $-1 #
coedge $-1 $209 $299 $124 $205 forward $200 $-1 #
edge $-1 $300 -6.9734108652670352 $212 -2.2023312331919351 $204 $301 forward 7 unknown #
coedge $-1 $126 $125 $302 $303 reversed $49 $-1 #
coedge $-1 $304 $305 $125 $208 forward $306 $-1 #
edge $-1 $307 -26.400013913748772 $213 -13.346727874525648 $207 $308 forward 7 unknown #
coedge $-1 $309 $204 $126 $210 forward $200 $-1 #
edge $-1 $212 13.346727874525648 $310 26.400013913748772 $209 $311 forward 7 unknown #
coedge $-1 $127 $203 $304 $312 reversed $77 $-1 #
vertex $-1 $210 $313 #
vertex $-1 $208 $314 #
straight-curve $-1 -33.220098768662858 0 -6.7902022824214203 0 1 0 I I #
face $-1 $-1 $227 $29 $-1 $315 forward single #
loop $-1 $-1 $316 $129 #
plane-surface $-1 0 23.373799899571029 0 0 -1 0 0 0 -1 forward_v I I I I #
coedge $-1 $317 $318 $319 $320 reversed $130 $-1 #
coedge $-1 $321 $132 $134 $225 forward $81 $-1 #
coedge $-1 $132 $321 $317 $322 forward $81 $-1 #
coedge $-1 $319 $135 $132 $222 forward $227 $-1 #
edge $-1 $229 -22.028631583046945 $323 -0.35430278818488681 $221 $324 forward 7 unknown #
coedge $-1 $325 $326 $133 $224 forward $216 $-1 #
edge $-1 $327 -47.536367092573563 $228 -39.398343811572126 $223 $328 forward 7 unknown #
edge $-1 $229 35.238697037774479 $327 46.747599799142073 $134 $329 forward 7 unknown #
coedge $-1 $135 $319 $325 $330 forward $227 $-1 #
loop $-1 $-1 $319 $215 #
vertex $-1 $224 $331 #
vertex $-1 $136 $332 #
straight-curve $-1 -33.220098768662858 27.879352296214563 11.561281914496519 0 -1 0 I I #
coedge $-1 $231 $231 $-1 $333 reversed $139 $-1 #
edge $-1 $334 0 $334 6.2831853071796004 $140 $335 forward 7 unknown #
vertex $-1 $143 $336 #
ellipse-curve $-1 -28.885233009690449 19.304788353492135 7.4922702739958007 0 0.70710678939079041 0.70710677298230451 1 0 0 1 I I #
coedge $-1 $235 $235 $-1 $337 reversed $146 $-1 #
edge $-1 $338 0 $338 6.2831853071796004 $147 $339 forward 7 unknown #
vertex $-1 $150 $340 #
ellipse-curve $-1 -22.382934371231833 19.304788353492135 7.4922702739958007 0 0.70710678939079041 0.70710677298230451 1 0 0 1 I I #
coedge $-1 $239 $239 $-1 $341 reversed $153 $-1 #
edge $-1 $342 0 $342 6.2831853071796004 $154 $343 forward 7 unknown #
vertex $-1 $157 $344 #
ellipse-curve $-1 -15.880635732773218 19.304788353492135 7.4922702739958007 0 0.70710678939079041 0.70710677298230451 1 0 0 1 I I #
face $-1 $-1 $345 $33 $-1 $346 reversed single #
loop $-1 $-1 $164 $158 #
plane-surface $-1 0 0 11.56128191449652 0 0 1 1 0 0 forward_v I I I I #
coedge $-1 $347 $348 $162 $252 forward $159 $-1 #
coedge $-1 $248 $161 $163 $253 reversed $100 $-1 #
coedge $-1 $161 $247 $349 $350 reversed $100 $-1 #
coedge $-1 $351 $164 $161 $250 forward $244 $-1 #
edge $-1 $256 -21.783334842841796 $352 -13.51539202906093 $249 $353 forward 7 unknown #
coedge $-1 $163 $162 $354 $355 reversed $64 $-1 #
edge $-1 $356 -8.1152518681920949 $255 1.7431397046995978 $246 $357 forward 7 unknown #
edge $-1 $358 4.4307663135772214e-015 $256 9.8583915728916978 $247 $359 forward 7 unknown #
coedge $-1 $164 $351 $347 $360 forward $244 $-1 #
vertex $-1 $165 $361 #
vertex $-1 $165 $362 #
straight-curve $-1 18.070611293629607 -15.105857085790163 11.56128191449652 -1 0 0 I I #
coedge $-1 $258 $258 $-1 $363 reversed $168 $-1 #
edge $-1 $364 0 $364 6.2831853071796004 $169 $365 forward 7 unknown #
vertex $-1 $172 $366 #
ellipse-curve $-1 31.798867349847747 -19.239828492680591 8.8766494427924698 0 -0.54463904215088732 0.83867056331134215 1.5 0 0 1 I I #
coedge $-1 $262 $262 $-1 $367 reversed $175 $-1 #
edge $-1 $368 0 $368 6.2831853071796004 $176 $369 forward 7 unknown #
vertex $-1 $179 $370 #
ellipse-curve $-1 40.483577824670697 -19.239828492680591 8.8766494427924698 0 -0.54463904215088732 0.83867056331134215 1.5 0 0 1 I I #
face $-1 $-1 $195 $27 $-1 $371 reversed single #
loop $-1 $-1 $282 $180 #
plane-surface $-1 0 23.373799899571029 0 0 -1 0 0 0 -1 forward_v I I I I #
coedge $-1 $372 $280 $283 $373 forward $181 $-1 #
coedge $-1 $286 $183 $184 $274 reversed $114 $-1 #
coedge $-1 $280 $372 $183 $272 reversed $181 $-1 #
edge $-1 $287 -11.56128191449652 $374 11.56128191449652 $271 $375 forward 7 unknown #
coedge $-1 $185 $184 $372 $376 forward $73 $-1 #
edge $-1 $278 -46.273384807885982 $374 46.273384807885982 $270 $377 forward 7 unknown #
coedge $-1 $283 $282 $185 $276 reversed $267 $-1 #
edge $-1 $378 -46.273384807885982 $277 46.273384807885982 $275 $379 forward 7 unknown #
vertex $-1 $187 $380 #
vertex $-1 $289 $381 #
straight-curve $-1 46.273384807885982 0 -11.56128191449652 0 -1 0 I I #
coedge $-1 $269 $271 $188 $281 reversed $181 $-1 #
edge $-1 $284 -23.373799899571029 $287 23.373799899571029 $280 $382 forward 7 unknown #
coedge $-1 $275 $189 $194 $290 forward $267 $-1 #
coedge $-1 $189 $275 $269 $373 reversed $267 $-1 #
vertex $-1 $190 $383 #
straight-curve $-1 0 23.373799899571029 11.56128191449652 -1 0 0 I I #
coedge $-1 $191 $270 $193 $289 reversed $114 $-1 #
vertex $-1 $281 $384 #
straight-curve $-1 0 -23.373799899571029 11.56128191449652 1 0 0 I I #
edge $-1 $196 -11.56128191449652 $278 11.56128191449652 $193 $385 forward 7 unknown #
edge $-1 $197 -11.56128191449652 $277 11.56128191449652 $194 $386 forward 7 unknown #
point $-1 46.273384807885982 -23.373799899571029 11.56128191449652 #
point $-1 46.273384807885982 23.373799899571029 11.56128191449652 #
face $-1 $-1 $306 $28 $-1 $387 reversed single #
loop $-1 $-1 $302 $199 #
plane-surface $-1 -46.273384807885982 0 0 1 0 0 0 0 -1 forward_v I I I I #
coedge $-1 $388 $202 $299 $389 forward $122 $-1 #
coedge $-1 $202 $388 $390 $391 forward $122 $-1 #
edge $-1 $392 -23.373799899571029 $300 23.373799899571029 $202 $393 forward 7 unknown #
coedge $-1 $204 $309 $296 $389 reversed $200 $-1 #
vertex $-1 $389 $394 #
straight-curve $-1 -33.220098768662858 -23.373799899571029 -4.5878710492294852 0 0 1 I I #
coedge $-1 $395 $396 $206 $303 forward $294 $-1 #
edge $-1 $310 -23.373799899571029 $307 23.373799899571029 $302 $397 forward 7 unknown #
coedge $-1 $390 $207 $211 $312 forward $306 $-1 #
coedge $-1 $207 $390 $395 $398 reversed $306 $-1 #
loop $-1 $-1 $304 $293 #
vertex $-1 $398 $399 #
straight-curve $-1 -19.87337089413721 23.373799899571029 -6.7902022824214203 1 0 0 I I #
coedge $-1 $299 $209 $396 $400 forward $200 $-1 #
vertex $-1 $400 $401 #
straight-curve $-1 -19.87337089413721 -23.373799899571029 -6.7902022824214203 -1 0 0 I I #
edge $-1 $213 2.2023312331919351 $392 6.9734108652670352 $304 $402 forward 7 unknown #
point $-1 -33.220098768662858 -23.373799899571029 -6.7902022824214203 #
point $-1 -33.220098768662858 23.373799899571029 -6.7902022824214203 #
plane-surface $-1 0 0 11.56128191449652 0 0 1 1 0 0 forward_v I I I I #
coedge $-1 $326 $325 $318 $403 forward $216 $-1 #
coedge $-1 $318 $218 $220 $322 reversed $130 $-1 #
coedge $-1 $218 $317 $316 $403 reversed $130 $-1 #
coedge $-1 $226 $221 $218 $320 forward $227 $-1 #
edge $-1 $323 -12.643575488801311 $404 -4.5055523966435338 $319 $405 forward 7 unknown #
coedge $-1 $220 $219 $326 $406 reversed $81 $-1 #
edge $-1 $407 -46.747599799142073 $323 -35.238697037774479 $317 $408 forward 7 unknown #
vertex $-1 $222 $409 #
straight-curve $-1 -11.191467185615915 15.23577680741325 11.561281914496522 1 0 0 I I #
coedge $-1 $316 $223 $226 $330 reversed $216 $-1 #
coedge $-1 $223 $316 $321 $406 forward $216 $-1 #
vertex $-1 $224 $410 #
straight-curve $-1 -33.220098768662858 23.373799899571029 50.959625726068644 0 0 1 I I #
straight-curve $-1 -33.220098768662858 -9.6817445390685464 36.478803839191983 0 0.70710677298230451 -0.70710678939079041 I I #
edge $-1 $404 11.545769973800802 $228 33.220098768662858 $325 $411 forward 7 unknown #
point $-1 -33.220098768662858 23.373799899571029 11.56128191449652 #
point $-1 -33.220098768662858 15.235776807413252 11.561281914496519 #
edge $-1 $412 1 $412 0 $231 $-1 forward 7 unknown #
vertex $-1 $232 $413 #
ellipse-curve $-1 -28.885233009690449 16.892247973636412 5.0797299501233235 0 0.70710678939079041 0.70710677298230451 1 0 0 1 I I #
point $-1 -27.885233009690449 19.304788353492143 7.4922702739958069 #
edge $-1 $414 1 $414 0 $235 $-1 forward 7 unknown #
vertex $-1 $236 $415 #
ellipse-curve $-1 -22.382934371231833 16.892247973636412 5.0797299501233235 0 0.70710678939079041 0.70710677298230451 1 0 0 1 I I #
point $-1 -21.382934371231833 19.304788353492143 7.4922702739958069 #
edge $-1 $416 1 $416 0 $239 $-1 forward 7 unknown #
vertex $-1 $240 $417 #
ellipse-curve $-1 -15.880635732773218 16.892247973636412 5.0797299501233235 0 0.70710678939079041 0.70710677298230451 1 0 0 1 I I #
point $-1 -14.880635732773218 19.304788353492143 7.4922702739958069 #
loop $-1 $-1 $354 $243 #
plane-surface $-1 0 -23.373799899571029 0 0 1 0 0 0 1 forward_v I I I I #
coedge $-1 $348 $246 $254 $360 reversed $159 $-1 #
coedge $-1 $246 $347 $418 $419 forward $159 $-1 #
coedge $-1 $354 $420 $248 $350 forward $345 $-1 #
edge $-1 $352 30.34285227419992 $358 35.712117217608032 $349 $421 forward 7 unknown #
coedge $-1 $254 $249 $420 $422 forward $244 $-1 #
vertex $-1 $422 $423 #
straight-curve $-1 26.009060366632447 -36.889191928631959 11.561281914496519 0 -1 0 I I #
coedge $-1 $418 $349 $251 $355 forward $345 $-1 #
edge $-1 $358 7.9384490730028396 $356 28.202773514256375 $354 $424 forward 7 unknown #
vertex $-1 $355 $425 #
straight-curve $-1 46.273384807885982 -16.567777043860943 10.611899975393751 0 0.83867056331134215 0.54463904215088732 I I #
vertex $-1 $355 $426 #
straight-curve $-1 26.009060366632447 -23.373799899571033 6.1920169710884068 0 0.83867056331134215 0.54463904215088732 I I #
edge $-1 $427 -23.373799899571029 $255 -15.105857085790165 $347 $428 forward 7 unknown #
point $-1 46.273384807885982 -15.105857085790165 11.56128191449652 #
point $-1 26.009060366632447 -15.105857085790165 11.56128191449652 #
edge $-1 $429 1 $429 0 $258 $-1 forward 7 unknown #
vertex $-1 $259 $430 #
ellipse-curve $-1 31.798867349847747 -17.020050826090205 5.458491650223614 0 -0.54463904215088732 0.83867056331134215 1.5 0 0 1 I I #
point $-1 33.298867349847747 -19.23982849268058 8.876649442792452 #
edge $-1 $431 1 $431 0 $262 $-1 forward 7 unknown #
vertex $-1 $263 $432 #
ellipse-curve $-1 40.483577824670697 -17.020050826090205 5.458491650223614 0 -0.54463904215088732 0.83867056331134215 1.5 0 0 1 I I #
point $-1 41.983577824670697 -19.23982849268058 8.876649442792452 #
plane-surface $-1 46.273384807885982 0 0 -1 0 0 0 0 1 forward_v I I I I #
coedge $-1 $271 $269 $273 $376 reversed $181 $-1 #
edge $-1 $284 -11.56128191449652 $378 11.56128191449652 $283 $433 forward 7 unknown #
vertex $-1 $376 $434 #
straight-curve $-1 -46.273384807885982 -23.373799899571029 0 0 0 -1 I I #
edge $-1 $374 -23.373799899571029 $378 23.373799899571029 $372 $435 forward 7 unknown #
straight-curve $-1 0 -23.373799899571029 -11.56128191449652 -1 0 0 I I #
vertex $-1 $276 $436 #
straight-curve $-1 0 23.373799899571029 -11.56128191449652 1 0 0 I I #
point $-1 46.273384807885982 23.373799899571029 -11.56128191449652 #
point $-1 46.273384807885982 -23.373799899571029 -11.56128191449652 #
straight-curve $-1 -46.273384807885982 0 11.56128191449652 0 -1 0 I I #
point $-1 -46.273384807885982 23.373799899571029 11.56128191449652 #
point $-1 -46.273384807885982 -23.373799899571029 11.56128191449652 #
straight-curve $-1 46.273384807885982 -23.373799899571029 0 0 0 -1 I I #
straight-curve $-1 46.273384807885982 23.373799899571029 0 0 0 -1 I I #
plane-surface $-1 0 23.373799899571029 0 0 -1 0 0 0 -1 forward_v I I I I #
coedge $-1 $297 $296 $437 $438 forward $122 $-1 #
edge $-1 $300 33.220098768662858 $439 46.273384807885982 $299 $440 forward 7 unknown #
coedge $-1 $305 $304 $297 $391 reversed $306 $-1 #
edge $-1 $441 -46.273384807885982 $392 -33.220098768662858 $390 $442 forward 7 unknown #
vertex $-1 $312 $443 #
straight-curve $-1 -33.220098768662858 0 -11.56128191449652 0 -1 0 I I #
point $-1 -33.220098768662858 -23.373799899571029 -11.56128191449652 #
coedge $-1 $437 $302 $305 $398 forward $294 $-1 #
coedge $-1 $302 $437 $309 $400 reversed $294 $-1 #
straight-curve $-1 -46.273384807885982 0 -6.7902022824214203 0 1 0 I I #
edge $-1 $307 6.7902022824214203 $441 11.56128191449652 $305 $444 forward 7 unknown #
point $-1 -46.273384807885982 23.373799899571029 -6.7902022824214203 #
edge $-1 $310 6.7902022824214203 $439 11.56128191449652 $396 $445 forward 7 unknown #
point $-1 -46.273384807885982 -23.373799899571029 -6.7902022824214203 #
straight-curve $-1 -33.220098768662858 23.373799899571029 -4.5878710492294852 0 0 -1 I I #
edge $-1 $404 39.398343811572126 $407 47.536367092573563 $316 $446 forward 7 unknown #
vertex $-1 $330 $447 #
straight-curve $-1 -11.545769973800802 27.879352296214563 11.561281914496519 0 1 0 I I #
edge $-1 $407 0.35430278818488681 $327 22.028631583046945 $326 $448 forward 7 unknown #
vertex $-1 $406 $449 #
straight-curve $-1 -11.545769973800802 -9.6817445390685464 36.478803839191983 0 -0.70710677298230451 0.70710678939079041 I I #
point $-1 -11.545769973800802 15.235776807413252 11.561281914496519 #
point $-1 -33.220098768662858 23.373799899571026 3.423258633495081 #
straight-curve $-1 0 23.373799899571029 11.56128191449652 -1 0 0 I I #
vertex $-1 $333 $450 #
point $-1 -27.885233009690449 16.892247973636412 5.0797299501233235 #
vertex $-1 $337 $451 #
point $-1 -21.382934371231833 16.892247973636412 5.0797299501233235 #
vertex $-1 $341 $452 #
point $-1 -14.880635732773218 16.892247973636412 5.0797299501233235 #
coedge $-1 $420 $354 $348 $419 reversed $345 $-1 #
edge $-1 $427 -11.56128191449652 $356 -6.1920169710884094 $348 $453 forward 7 unknown #
coedge $-1 $349 $418 $351 $422 reversed $345 $-1 #
straight-curve $-1 26.009060366632447 -23.373799899571029 41.904134188696439 0 0 -1 I I #
edge $-1 $352 26.009060366632447 $427 46.273384807885982 $420 $454 forward 7 unknown #
point $-1 26.009060366632447 -23.373799899571029 11.56128191449652 #
straight-curve $-1 18.070611293629607 -23.373799899571029 6.1920169710884103 1 0 0 I I #
point $-1 46.273384807885982 -23.373799899571029 6.1920169710884094 #
point $-1 26.009060366632447 -23.373799899571029 6.1920169710884094 #
vertex $-1 $360 $455 #
straight-curve $-1 46.273384807885982 0 11.56128191449652 0 1 0 I I #
vertex $-1 $363 $456 #
point $-1 33.298867349847747 -17.020050826090205 5.458491650223614 #
vertex $-1 $367 $457 #
point $-1 41.983577824670697 -17.020050826090205 5.458491650223614 #
straight-curve $-1 -46.273384807885982 23.373799899571029 0 0 0 -1 I I #
point $-1 -46.273384807885982 -23.373799899571029 -11.56128191449652 #
straight-curve $-1 -46.273384807885982 0 -11.56128191449652 0 1 0 I I #
point $-1 -46.273384807885982 23.373799899571029 -11.56128191449652 #
coedge $-1 $396 $395 $388 $438 reversed $294 $-1 #
edge $-1 $439 -23.373799899571029 $441 23.373799899571029 $437 $458 forward 7 unknown #
vertex $-1 $438 $459 #
straight-curve $-1 0 -23.373799899571029 -11.56128191449652 -1 0 0 I I #
vertex $-1 $391 $460 #
straight-curve $-1 0 23.373799899571029 -11.56128191449652 1 0 0 I I #
point $-1 -33.220098768662858 23.373799899571029 -11.56128191449652 #
straight-curve $-1 -46.273384807885982 23.373799899571029 0 0 0 -1 I I #
straight-curve $-1 -46.273384807885982 -23.373799899571029 0 0 0 -1 I I #
straight-curve $-1 -11.545769973800802 23.373799899571029 50.959625726068644 0 0 -1 I I #
point $-1 -11.545769973800802 23.373799899571029 11.56128191449652 #
straight-curve $-1 -11.191467185615915 23.373799899571026 3.4232586334950774 -1 0 0 I I #
point $-1 -11.545769973800802 23.373799899571026 3.423258633495081 #
point $-1 -28.885233009690449 16.185141184245619 4.3726231771410182 #
point $-1 -22.382934371231833 16.185141184245619 4.3726231771410182 #
point $-1 -15.880635732773218 16.185141184245619 4.3726231771410182 #
straight-curve $-1 46.273384807885982 -23.373799899571029 0 0 0 -1 I I #
straight-curve $-1 0 -23.373799899571029 11.56128191449652 1 0 0 I I #
point $-1 46.273384807885982 -23.373799899571029 11.56128191449652 #
point $-1 31.798867349847747 -16.203092262863876 4.2004858052566014 #
point $-1 40.483577824670697 -16.203092262863876 4.2004858052566014 #
straight-curve $-1 -46.273384807885982 0 -11.56128191449652 0 1 0 I I #
point $-1 -46.273384807885982 -23.373799899571029 -11.56128191449652 #
point $-1 -46.273384807885982 23.373799899571029 -11.56128191449652 #
End-of-ACIS-data 