500 0 13 0           
7 Unknown 11 ACIS 5.0 NT 24 Thu Mar 25 20:19:48 1999 
-1 9.9999999999999995e-007 1e-010 
body $-1 $13 $-1 $14 #
body $-1 $15 $-1 $16 #
body $-1 $17 $-1 $18 #
body $-1 $19 $-1 $20 #
body $-1 $21 $-1 $22 #
body $-1 $23 $-1 $24 #
body $-1 $25 $-1 $26 #
body $-1 $27 $-1 $28 #
body $-1 $29 $-1 $30 #
body $-1 $31 $-1 $32 #
body $-1 $33 $-1 $34 #
body $-1 $35 $-1 $36 #
body $-1 $37 $-1 $38 #
lump $-1 $-1 $39 $0 #
transform $-1 1 0 0 0 1 0 0 0 1 53.726004821924498 29.380829889966957 9.6278774664607756 1 rotate no_reflect no_shear #
lump $-1 $-1 $40 $1 #
transform $-1 1 0 0 0 1 0 0 0 1 53.726004821924498 29.380829889966957 9.6278774664607756 1 rotate no_reflect no_shear #
lump $-1 $-1 $41 $2 #
transform $-1 1 0 0 0 1 0 0 0 1 53.726004821924498 29.380829889966957 9.6278774664607756 1 rotate no_reflect no_shear #
lump $-1 $-1 $42 $3 #
transform $-1 1 0 0 0 1 0 0 0 1 53.726004821924498 29.380829889966957 9.6278774664607756 1 rotate no_reflect no_shear #
lump $-1 $-1 $43 $4 #
transform $-1 1 0 0 0 1 0 0 0 1 53.726004821924498 29.380829889966957 9.6278774664607756 1 rotate no_reflect no_shear #
lump $-1 $-1 $44 $5 #
transform $-1 1 0 0 0 1 0 0 0 1 53.726004821924498 29.380829889966957 9.6278774664607756 1 rotate no_reflect no_shear #
lump $-1 $-1 $45 $6 #
transform $-1 1 0 0 0 1 0 0 0 1 53.726004821924498 29.380829889966957 9.6278774664607756 1 rotate no_reflect no_shear #
lump $-1 $-1 $46 $7 #
transform $-1 1 0 0 0 1 0 0 0 1 53.726004821924498 29.380829889966957 9.6278774664607756 1 rotate no_reflect no_shear #
lump $-1 $-1 $47 $8 #
transform $-1 1 0 0 0 1 0 0 0 1 53.726004821924498 29.380829889966957 9.6278774664607756 1 rotate no_reflect no_shear #
lump $-1 $-1 $48 $9 #
transform $-1 1 0 0 0 1 0 0 0 1 53.726004821924498 29.380829889966957 9.6278774664607756 1 rotate no_reflect no_shear #
lump $-1 $-1 $49 $10 #
transform $-1 1 0 0 0 1 0 0 0 1 53.726004821924498 29.380829889966957 9.6278774664607756 1 rotate no_reflect no_shear #
lump $-1 $-1 $50 $11 #
transform $-1 1 0 0 0 1 0 0 0 1 53.726004821924498 29.380829889966957 9.6278774664607756 1 rotate no_reflect no_shear #
lump $-1 $-1 $51 $12 #
transform $-1 1 0 0 0 1 0 0 0 1 53.726004821924498 29.380829889966957 9.6278774664607756 1 rotate no_reflect no_shear #
shell $-1 $-1 $-1 $52 $-1 $13 #
shell $-1 $-1 $-1 $53 $-1 $15 #
shell $-1 $-1 $-1 $54 $-1 $17 #
shell $-1 $-1 $-1 $55 $-1 $19 #
shell $-1 $-1 $-1 $56 $-1 $21 #
shell $-1 $-1 $-1 $57 $-1 $23 #
shell $-1 $-1 $-1 $58 $-1 $25 #
shell $-1 $-1 $-1 $59 $-1 $27 #
shell $-1 $-1 $-1 $60 $-1 $29 #
shell $-1 $-1 $-1 $61 $-1 $31 #
shell $-1 $-1 $-1 $62 $-1 $33 #
shell $-1 $-1 $-1 $63 $-1 $35 #
shell $-1 $-1 $-1 $64 $-1 $37 #
face $-1 $65 $66 $39 $-1 $67 forward single #
face $-1 $68 $69 $40 $-1 $70 reversed single #
face $-1 $71 $72 $41 $-1 $73 forward single #
face $-1 $74 $75 $42 $-1 $76 forward single #
face $-1 $77 $78 $43 $-1 $79 forward single #
face $-1 $80 $81 $44 $-1 $82 reversed single #
face $-1 $83 $84 $45 $-1 $85 forward single #
face $-1 $86 $87 $46 $-1 $88 forward single #
face $-1 $89 $90 $47 $-1 $91 forward single #
face $-1 $92 $93 $48 $-1 $94 reversed single #
face $-1 $95 $96 $49 $-1 $97 forward single #
face $-1 $98 $99 $50 $-1 $100 forward single #
face $-1 $101 $102 $51 $-1 $103 forward single #
face $-1 $104 $105 $39 $-1 $106 reversed single #
loop $-1 $-1 $107 $52 #
plane-surface $-1 0 0 9.6278774664607756 0 0 1 1 0 0 forward_v I I I I #
face $-1 $108 $109 $40 $-1 $110 reversed single #
loop $-1 $-1 $111 $53 #
plane-surface $-1 -36.770676495771994 91.22068842791775 106.86482022560865 -1 0 0 0 0.85716730853699208 0.51503806187062418 forward_v I I I I #
face $-1 $112 $113 $41 $-1 $114 forward single #
loop $-1 $115 $116 $54 #
cone-surface $-1 -50.334939156693999 25.447574935493691 4.5573961969374386 0 -0.85716730853699208 -0.51503806187062418 1.5 0 0 1 I I 0 1 1.5 forward I I I I #
face $-1 $117 $118 $42 $-1 $119 forward single #
loop $-1 $120 $121 $55 #
cone-surface $-1 -45.24834065884825 25.447574935493691 4.5573961969374386 0 -0.85716730853699208 -0.51503806187062418 1.5 0 0 1 I I 0 1 1.5 forward I I I I #
face $-1 $122 $123 $43 $-1 $124 forward single #
loop $-1 $125 $126 $56 #
cone-surface $-1 -40.161742161002493 25.447574935493691 4.5573961969374386 0 -0.85716730853699208 -0.51503806187062418 1.5 0 0 1 I I 0 1 1.5 forward I I I I #
face $-1 $127 $128 $44 $-1 $129 reversed single #
loop $-1 $-1 $130 $57 #
plane-surface $-1 45.248340658848257 -0.88366147539120732 51.52294543453705 0 0.85716730853699208 0.51503806187062418 1 0 0 forward_v I I I I #
face $-1 $131 $132 $45 $-1 $133 forward single #
loop $-1 $134 $135 $58 #
cone-surface $-1 40.1617421610025 25.447574935493691 4.5573961969374386 0 -0.85716730853699208 -0.51503806187062418 1.5 0 0 1 I I 0 1 1.5 forward I I I I #
face $-1 $136 $137 $46 $-1 $138 forward single #
loop $-1 $139 $140 $59 #
cone-surface $-1 45.248340658848257 25.447574935493691 4.5573961969374386 0 -0.85716730853699208 -0.51503806187062418 1.5 0 0 1 I I 0 1 1.5 forward I I I I #
face $-1 $141 $142 $47 $-1 $143 forward single #
loop $-1 $144 $145 $60 #
cone-surface $-1 50.334939156693999 25.447574935493691 4.5573961969374386 0 -0.85716730853699208 -0.51503806187062418 1.5 0 0 1 I I 0 1 1.5 forward I I I I #
face $-1 $146 $147 $48 $-1 $148 reversed single #
loop $-1 $-1 $149 $61 #
plane-surface $-1 49.116538379466746 -118.46258399883584 62.039142945264445 -1 0 0 0 -0.82903758062907751 0.55919289150049634 forward_v I I I I #
face $-1 $150 $151 $49 $-1 $152 forward single #
loop $-1 $153 $154 $62 #
cone-surface $-1 37.682886384940865 -25.750729019684346 5.0877225029980355 0 0.82903758062907751 -0.55919289150049634 1 0 0 1 I I 0 1 1 forward I I I I #
face $-1 $155 $156 $50 $-1 $157 forward single #
loop $-1 $158 $159 $63 #
cone-surface $-1 41.970505882888069 -25.750729019684346 5.0877225029980355 0 0.82903758062907751 -0.55919289150049634 1 0 0 1 I I 0 1 1 forward I I I I #
face $-1 $160 $161 $51 $-1 $162 forward single #
loop $-1 $163 $164 $64 #
cone-surface $-1 46.258125380835274 -25.750729019684346 5.0877225029980355 0 0.82903758062907751 -0.55919289150049634 1 0 0 1 I I 0 1 1 forward I I I I #
face $-1 $165 $166 $39 $-1 $167 reversed single #
loop $-1 $-1 $168 $65 #
plane-surface $-1 0 0 -9.6278774664607756 0 0 1 1 0 0 forward_v I I I I #
coedge $-1 $169 $170 $171 $172 forward $66 $-1 #
face $-1 $173 $174 $40 $-1 $175 reversed single #
loop $-1 $-1 $176 $68 #
plane-surface $-1 -45.24834065884825 -0.88366147539120732 51.52294543453705 0 0.85716730853699208 0.51503806187062418 1 0 0 forward_v I I I I #
coedge $-1 $177 $178 $179 $180 reversed $69 $-1 #
face $-1 $-1 $181 $41 $-1 $182 forward single #
loop $-1 $183 $184 $71 #
cone-surface $-1 -50.334939156693999 23.417142379252045 3.337389276339179 0 -0.85716730853699208 -0.51503806187062418 0.75 0 0 1 I I -0.70710678118654757 0.70710678118654757 0.75 forward I I I I #
loop $-1 $-1 $185 $54 #
coedge $-1 $116 $116 $186 $187 reversed $72 $-1 #
face $-1 $-1 $188 $42 $-1 $189 forward single #
loop $-1 $190 $191 $74 #
cone-surface $-1 -45.24834065884825 23.417142379252045 3.337389276339179 0 -0.85716730853699208 -0.51503806187062418 0.75 0 0 1 I I -0.70710678118654757 0.70710678118654757 0.75 forward I I I I #
loop $-1 $-1 $192 $55 #
coedge $-1 $121 $121 $193 $194 reversed $75 $-1 #
face $-1 $-1 $195 $43 $-1 $196 forward single #
loop $-1 $197 $198 $77 #
cone-surface $-1 -40.161742161002493 23.417142379252045 3.337389276339179 0 -0.85716730853699208 -0.51503806187062418 0.75 0 0 1 I I -0.70710678118654757 0.70710678118654757 0.75 forward I I I I #
loop $-1 $-1 $199 $56 #
coedge $-1 $126 $126 $200 $201 reversed $78 $-1 #
face $-1 $202 $203 $44 $-1 $204 forward single #
loop $-1 $-1 $205 $80 #
plane-surface $-1 36.770676495772008 91.22068842791775 106.86482022560865 1 0 0 0 -0.85716730853699208 -0.51503806187062418 forward_v I I I I #
coedge $-1 $206 $207 $208 $209 reversed $81 $-1 #
face $-1 $-1 $210 $45 $-1 $211 forward single #
loop $-1 $212 $213 $83 #
cone-surface $-1 40.1617421610025 23.417142379252045 3.337389276339179 0 -0.85716730853699208 -0.51503806187062418 0.75 0 0 1 I I -0.70710678118654757 0.70710678118654757 0.75 forward I I I I #
loop $-1 $-1 $214 $58 #
coedge $-1 $135 $135 $215 $216 reversed $84 $-1 #
face $-1 $-1 $217 $46 $-1 $218 forward single #
loop $-1 $219 $220 $86 #
cone-surface $-1 45.248340658848257 23.417142379252045 3.337389276339179 0 -0.85716730853699208 -0.51503806187062418 0.75 0 0 1 I I -0.70710678118654757 0.70710678118654757 0.75 forward I I I I #
loop $-1 $-1 $221 $59 #
coedge $-1 $140 $140 $222 $223 reversed $87 $-1 #
face $-1 $-1 $224 $47 $-1 $225 forward single #
loop $-1 $226 $227 $89 #
cone-surface $-1 50.334939156693999 23.417142379252045 3.337389276339179 0 -0.85716730853699208 -0.51503806187062418 0.75 0 0 1 I I -0.70710678118654757 0.70710678118654757 0.75 forward I I I I #
loop $-1 $-1 $228 $60 #
coedge $-1 $145 $145 $229 $230 reversed $90 $-1 #
face $-1 $231 $232 $48 $-1 $233 reversed single #
loop $-1 $-1 $234 $92 #
plane-surface $-1 41.970505882888069 -29.380829889966961 1.9527429749813052 0 -0.82903758062907751 0.55919289150049634 1 0 0 forward_v I I I I #
coedge $-1 $235 $236 $237 $238 reversed $93 $-1 #
face $-1 $-1 $239 $49 $-1 $240 forward single #
loop $-1 $241 $242 $95 #
cone-surface $-1 37.682886384940865 -24.294581069675335 4.1055383395247826 0 0.82903758062907751 -0.55919289150049634 0.5 0 0 1 I I -0.70710678118654746 0.70710678118654746 0.5 forward I I I I #
loop $-1 $-1 $243 $62 #
coedge $-1 $154 $154 $244 $245 reversed $96 $-1 #
face $-1 $-1 $246 $50 $-1 $247 forward single #
loop $-1 $248 $249 $98 #
cone-surface $-1 41.970505882888069 -24.294581069675335 4.1055383395247826 0 0.82903758062907751 -0.55919289150049634 0.5 0 0 1 I I -0.70710678118654746 0.70710678118654746 0.5 forward I I I I #
loop $-1 $-1 $250 $63 #
coedge $-1 $159 $159 $251 $252 reversed $99 $-1 #
face $-1 $-1 $253 $51 $-1 $254 forward single #
loop $-1 $255 $256 $101 #
cone-surface $-1 46.258125380835274 -24.294581069675335 4.1055383395247826 0 0.82903758062907751 -0.55919289150049634 0.5 0 0 1 I I -0.70710678118654746 0.70710678118654746 0.5 forward I I I I #
loop $-1 $-1 $257 $64 #
coedge $-1 $164 $164 $258 $259 reversed $102 $-1 #
face $-1 $260 $261 $39 $-1 $262 reversed single #
loop $-1 $-1 $263 $104 #
plane-surface $-1 0 -29.380829889966957 0 0 1 0 0 0 1 forward_v I I I I #
coedge $-1 $264 $265 $266 $267 forward $105 $-1 #
coedge $-1 $268 $107 $269 $270 forward $66 $-1 #
coedge $-1 $107 $268 $271 $272 forward $66 $-1 #
coedge $-1 $273 $274 $107 $172 reversed $275 $-1 #
edge $-1 $276 -29.380829889966957 $277 29.380829889966957 $171 $278 forward 7 unknown #
face $-1 $279 $280 $40 $-1 $281 forward single #
loop $-1 $-1 $179 $108 #
plane-surface $-1 0 29.380829889966957 0 0 -1 0 0 0 -1 forward_v I I I I #
coedge $-1 $282 $283 $284 $285 reversed $109 $-1 #
coedge $-1 $178 $111 $286 $287 reversed $69 $-1 #
coedge $-1 $111 $177 $282 $288 reversed $69 $-1 #
coedge $-1 $284 $289 $111 $180 forward $174 $-1 #
edge $-1 $290 43.804532646343553 $291 52.27803843699963 $179 $292 forward 7 unknown #
loop $-1 $-1 $186 $112 #
plane-surface $-1 -45.24834065884825 -0.88366147539120732 51.52294543453705 0 0.85716730853699208 0.51503806187062418 1 0 0 forward_v I I I I #
loop $-1 $-1 $293 $71 #
coedge $-1 $184 $184 $185 $294 reversed $113 $-1 #
coedge $-1 $185 $185 $184 $294 forward $115 $-1 #
coedge $-1 $186 $186 $116 $187 forward $181 $-1 #
edge $-1 $295 8.1032483636621079e-016 $295 6.2831853071796013 $186 $296 forward 7 unknown #
loop $-1 $-1 $193 $117 #
plane-surface $-1 -45.24834065884825 -0.88366147539120732 51.52294543453705 0 0.85716730853699208 0.51503806187062418 1 0 0 forward_v I I I I #
loop $-1 $-1 $297 $74 #
coedge $-1 $191 $191 $192 $298 reversed $118 $-1 #
coedge $-1 $192 $192 $191 $298 forward $120 $-1 #
coedge $-1 $193 $193 $121 $194 forward $188 $-1 #
edge $-1 $299 8.1032483636621079e-016 $299 6.2831853071796013 $193 $300 forward 7 unknown #
loop $-1 $-1 $200 $122 #
plane-surface $-1 -45.24834065884825 -0.88366147539120732 51.52294543453705 0 0.85716730853699208 0.51503806187062418 1 0 0 forward_v I I I I #
loop $-1 $-1 $301 $77 #
coedge $-1 $198 $198 $199 $302 reversed $123 $-1 #
coedge $-1 $199 $199 $198 $302 forward $125 $-1 #
coedge $-1 $200 $200 $126 $201 forward $195 $-1 #
edge $-1 $303 8.1032483636621079e-016 $303 6.2831853071796013 $200 $304 forward 7 unknown #
face $-1 $305 $306 $44 $-1 $307 reversed single #
loop $-1 $-1 $308 $127 #
plane-surface $-1 0 0 9.6278774664607756 0 0 1 1 0 0 forward_v I I I I #
coedge $-1 $309 $310 $311 $312 reversed $128 $-1 #
coedge $-1 $313 $130 $314 $315 reversed $81 $-1 #
coedge $-1 $130 $313 $309 $316 forward $81 $-1 #
coedge $-1 $311 $317 $130 $209 forward $318 $-1 #
edge $-1 $319 -31.101834492500377 $320 -14.14650616634788 $208 $321 forward 7 unknown #
loop $-1 $-1 $215 $131 #
plane-surface $-1 45.248340658848257 -0.88366147539120732 51.52294543453705 0 0.85716730853699208 0.51503806187062418 1 0 0 forward_v I I I I #
loop $-1 $-1 $322 $83 #
coedge $-1 $213 $213 $214 $323 reversed $132 $-1 #
coedge $-1 $214 $214 $213 $323 forward $134 $-1 #
coedge $-1 $215 $215 $135 $216 forward $210 $-1 #
edge $-1 $324 8.1032483636621079e-016 $324 6.2831853071796013 $215 $325 forward 7 unknown #
loop $-1 $-1 $222 $136 #
plane-surface $-1 45.248340658848257 -0.88366147539120732 51.52294543453705 0 0.85716730853699208 0.51503806187062418 1 0 0 forward_v I I I I #
loop $-1 $-1 $326 $86 #
coedge $-1 $220 $220 $221 $327 reversed $137 $-1 #
coedge $-1 $221 $221 $220 $327 forward $139 $-1 #
coedge $-1 $222 $222 $140 $223 forward $217 $-1 #
edge $-1 $328 8.1032483636621079e-016 $328 6.2831853071796013 $222 $329 forward 7 unknown #
loop $-1 $-1 $229 $141 #
plane-surface $-1 45.248340658848257 -0.88366147539120732 51.52294543453705 0 0.85716730853699208 0.51503806187062418 1 0 0 forward_v I I I I #
loop $-1 $-1 $330 $89 #
coedge $-1 $227 $227 $228 $331 reversed $142 $-1 #
coedge $-1 $228 $228 $227 $331 forward $144 $-1 #
coedge $-1 $229 $229 $145 $230 forward $224 $-1 #
edge $-1 $332 8.1032483636621079e-016 $332 6.2831853071796013 $229 $333 forward 7 unknown #
face $-1 $334 $335 $48 $-1 $336 reversed single #
loop $-1 $-1 $337 $146 #
plane-surface $-1 34.824473386309393 -118.46258399883584 62.039142945264445 1 0 0 0 0.82903758062907751 -0.55919289150049634 forward_v I I I I #
coedge $-1 $338 $339 $340 $341 reversed $147 $-1 #
coedge $-1 $236 $149 $342 $343 reversed $93 $-1 #
coedge $-1 $149 $235 $338 $344 reversed $93 $-1 #
coedge $-1 $340 $345 $149 $238 forward $346 $-1 #
edge $-1 $347 29.850462109450962 $348 35.027405530627234 $237 $349 forward 7 unknown #
loop $-1 $-1 $244 $150 #
plane-surface $-1 41.970505882888069 -29.380829889966961 1.9527429749813052 0 -0.82903758062907751 0.55919289150049634 1 0 0 forward_v I I I I #
loop $-1 $-1 $350 $95 #
coedge $-1 $242 $242 $243 $351 reversed $151 $-1 #
coedge $-1 $243 $243 $242 $351 forward $153 $-1 #
coedge $-1 $244 $244 $154 $245 forward $239 $-1 #
edge $-1 $352 -2.2234762998362979e-016 $352 6.2831853071796004 $244 $353 forward 7 unknown #
loop $-1 $-1 $251 $155 #
plane-surface $-1 41.970505882888069 -29.380829889966961 1.9527429749813052 0 -0.82903758062907751 0.55919289150049634 1 0 0 forward_v I I I I #
loop $-1 $-1 $354 $98 #
coedge $-1 $249 $249 $250 $355 reversed $156 $-1 #
coedge $-1 $250 $250 $249 $355 forward $158 $-1 #
coedge $-1 $251 $251 $159 $252 forward $246 $-1 #
edge $-1 $356 -2.2234762998362979e-016 $356 6.2831853071796004 $251 $357 forward 7 unknown #
loop $-1 $-1 $258 $160 #
plane-surface $-1 41.970505882888069 -29.380829889966961 1.9527429749813052 0 -0.82903758062907751 0.55919289150049634 1 0 0 forward_v I I I I #
loop $-1 $-1 $358 $101 #
coedge $-1 $256 $256 $257 $359 reversed $161 $-1 #
coedge $-1 $257 $257 $256 $359 forward $163 $-1 #
coedge $-1 $258 $258 $164 $259 forward $253 $-1 #
edge $-1 $360 -2.2234762998362979e-016 $360 6.2831853071796004 $258 $361 forward 7 unknown #
face $-1 $362 $363 $39 $-1 $364 reversed single #
loop $-1 $-1 $365 $165 #
plane-surface $-1 -53.726004821924498 0 0 1 0 0 0 0 -1 forward_v I I I I #
coedge $-1 $366 $271 $367 $368 forward $166 $-1 #
coedge $-1 $369 $168 $366 $370 forward $105 $-1 #
coedge $-1 $168 $369 $371 $372 forward $105 $-1 #
coedge $-1 $274 $273 $168 $267 reversed $275 $-1 #
edge $-1 $373 -29.380829889966957 $374 29.380829889966957 $266 $375 forward 7 unknown #
coedge $-1 $170 $169 $376 $377 forward $66 $-1 #
coedge $-1 $378 $379 $169 $270 reversed $363 $-1 #
edge $-1 $277 -53.726004821924498 $380 53.726004821924498 $269 $381 forward 7 unknown #
coedge $-1 $263 $382 $170 $272 reversed $166 $-1 #
edge $-1 $383 -53.726004821924498 $276 53.726004821924498 $271 $384 forward 7 unknown #
coedge $-1 $266 $171 $382 $385 forward $275 $-1 #
coedge $-1 $171 $266 $378 $386 reversed $275 $-1 #
loop $-1 $-1 $273 $362 #
vertex $-1 $172 $387 #
vertex $-1 $172 $388 #
straight-curve $-1 53.726004821924498 0 9.6278774664607756 0 1 0 I I #
face $-1 $-1 $389 $40 $-1 $390 reversed single #
loop $-1 $-1 $286 $173 #
plane-surface $-1 0 0 9.6278774664607756 0 0 1 1 0 0 forward_v I I I I #
coedge $-1 $391 $176 $178 $288 forward $109 $-1 #
coedge $-1 $176 $391 $392 $393 reversed $109 $-1 #
coedge $-1 $394 $179 $176 $285 forward $174 $-1 #
edge $-1 $291 14.146506166347869 $395 31.101834492500373 $284 $396 forward 7 unknown #
coedge $-1 $397 $398 $177 $287 forward $280 $-1 #
edge $-1 $399 -21.320910083260632 $290 -16.229514323991918 $286 $400 forward 7 unknown #
edge $-1 $291 -58.7616597799339 $399 -48.876185023414543 $178 $401 forward 7 unknown #
coedge $-1 $179 $394 $397 $402 reversed $174 $-1 #
vertex $-1 $402 $403 #
vertex $-1 $180 $404 #
straight-curve $-1 -36.770676495771994 29.380829889966957 53.432410112804327 0 0 -1 I I #
coedge $-1 $293 $293 $-1 $405 reversed $183 $-1 #
edge $-1 $406 0 $406 6.2831853071796004 $184 $407 forward 7 unknown #
vertex $-1 $187 $408 #
ellipse-curve $-1 -50.334939156693999 26.835132010332597 5.3911245711327336 0 0.85716730853699208 0.51503806187062418 1.5 0 0 1 I I #
coedge $-1 $297 $297 $-1 $409 reversed $190 $-1 #
edge $-1 $410 0 $410 6.2831853071796004 $191 $411 forward 7 unknown #
vertex $-1 $194 $412 #
ellipse-curve $-1 -45.24834065884825 26.835132010332597 5.3911245711327336 0 0.85716730853699208 0.51503806187062418 1.5 0 0 1 I I #
coedge $-1 $301 $301 $-1 $413 reversed $197 $-1 #
edge $-1 $414 0 $414 6.2831853071796004 $198 $415 forward 7 unknown #
vertex $-1 $201 $416 #
ellipse-curve $-1 -40.161742161002493 26.835132010332597 5.3911245711327336 0 0.85716730853699208 0.51503806187062418 1.5 0 0 1 I I #
face $-1 $-1 $318 $44 $-1 $417 reversed single #
loop $-1 $-1 $314 $202 #
plane-surface $-1 53.726004821924498 0 0 -1 0 0 0 0 1 forward_v I I I I #
coedge $-1 $418 $419 $310 $420 forward $203 $-1 #
coedge $-1 $310 $205 $207 $316 reversed $128 $-1 #
coedge $-1 $205 $309 $308 $420 reversed $128 $-1 #
coedge $-1 $421 $208 $205 $312 forward $318 $-1 #
edge $-1 $320 -52.27803843699963 $422 -43.804532646343553 $311 $423 forward 7 unknown #
coedge $-1 $207 $206 $418 $424 reversed $81 $-1 #
coedge $-1 $425 $426 $206 $315 forward $306 $-1 #
edge $-1 $427 26.566733143586706 $319 36.452207900106067 $314 $428 forward 7 unknown #
edge $-1 $429 48.876185023414543 $320 58.7616597799339 $309 $430 forward 7 unknown #
coedge $-1 $208 $421 $425 $431 forward $318 $-1 #
loop $-1 $-1 $311 $305 #
vertex $-1 $315 $432 #
vertex $-1 $209 $433 #
straight-curve $-1 22.624170329424128 29.380829889966957 1.1543716758046862 -1 0 0 I I #
coedge $-1 $322 $322 $-1 $434 reversed $212 $-1 #
edge $-1 $435 0 $435 6.2831853071796004 $213 $436 forward 7 unknown #
vertex $-1 $216 $437 #
ellipse-curve $-1 40.1617421610025 26.835132010332597 5.3911245711327336 0 0.85716730853699208 0.51503806187062418 1.5 0 0 1 I I #
coedge $-1 $326 $326 $-1 $438 reversed $219 $-1 #
edge $-1 $439 0 $439 6.2831853071796004 $220 $440 forward 7 unknown #
vertex $-1 $223 $441 #
ellipse-curve $-1 45.248340658848257 26.835132010332597 5.3911245711327336 0 0.85716730853699208 0.51503806187062418 1.5 0 0 1 I I #
coedge $-1 $330 $330 $-1 $442 reversed $226 $-1 #
edge $-1 $443 0 $443 6.2831853071796004 $227 $444 forward 7 unknown #
vertex $-1 $230 $445 #
ellipse-curve $-1 50.334939156693999 26.835132010332597 5.3911245711327336 0 0.85716730853699208 0.51503806187062418 1.5 0 0 1 I I #
face $-1 $-1 $346 $48 $-1 $446 forward single #
loop $-1 $-1 $447 $231 #
plane-surface $-1 0 -29.380829889966957 0 0 1 0 0 0 1 forward_v I I I I #
coedge $-1 $448 $449 $450 $451 reversed $232 $-1 #
coedge $-1 $452 $234 $236 $344 forward $147 $-1 #
coedge $-1 $234 $452 $448 $453 forward $147 $-1 #
coedge $-1 $450 $237 $234 $341 forward $346 $-1 #
edge $-1 $348 -28.131285438022712 $454 -13.839220444865358 $340 $455 forward 7 unknown #
coedge $-1 $456 $457 $235 $343 forward $335 $-1 #
edge $-1 $458 -29.06682849765091 $347 -21.391694006171448 $342 $459 forward 7 unknown #
edge $-1 $348 -9.257884890640959 $458 -6.404651964132713e-015 $236 $460 forward 7 unknown #
coedge $-1 $237 $450 $456 $461 forward $346 $-1 #
loop $-1 $-1 $450 $334 #
vertex $-1 $343 $462 #
vertex $-1 $238 $463 #
straight-curve $-1 49.116538379466746 -59.23129199941792 9.6278774664607738 0 1 0 I I #
coedge $-1 $350 $350 $-1 $464 reversed $241 $-1 #
edge $-1 $465 0 $465 6.2831853071796004 $242 $466 forward 7 unknown #
vertex $-1 $245 $467 #
ellipse-curve $-1 37.682886384940865 -26.792358179378823 5.7903102207210422 0 -0.82903758062907751 0.55919289150049634 1 0 0 1 I I #
coedge $-1 $354 $354 $-1 $468 reversed $248 $-1 #
edge $-1 $469 0 $469 6.2831853071796004 $249 $470 forward 7 unknown #
vertex $-1 $252 $471 #
ellipse-curve $-1 41.970505882888069 -26.792358179378823 5.7903102207210422 0 -0.82903758062907751 0.55919289150049634 1 0 0 1 I I #
coedge $-1 $358 $358 $-1 $472 reversed $255 $-1 #
edge $-1 $473 0 $473 6.2831853071796004 $256 $474 forward 7 unknown #
vertex $-1 $259 $475 #
ellipse-curve $-1 46.258125380835274 -26.792358179378823 5.7903102207210422 0 -0.82903758062907751 0.55919289150049634 1 0 0 1 I I #
face $-1 $-1 $275 $39 $-1 $476 reversed single #
loop $-1 $-1 $378 $260 #
plane-surface $-1 0 29.380829889966957 0 0 -1 0 0 0 -1 forward_v I I I I #
coedge $-1 $477 $376 $379 $478 forward $261 $-1 #
coedge $-1 $382 $263 $264 $370 reversed $166 $-1 #
coedge $-1 $376 $477 $263 $368 reversed $261 $-1 #
edge $-1 $383 -9.6278774664607756 $479 9.6278774664607756 $367 $480 forward 7 unknown #
coedge $-1 $265 $264 $477 $481 forward $105 $-1 #
edge $-1 $374 -53.726004821924498 $479 53.726004821924498 $366 $482 forward 7 unknown #
coedge $-1 $379 $378 $265 $372 reversed $363 $-1 #
edge $-1 $483 -53.726004821924498 $373 53.726004821924498 $371 $484 forward 7 unknown #
vertex $-1 $267 $485 #
vertex $-1 $385 $486 #
straight-curve $-1 53.726004821924498 0 -9.6278774664607756 0 -1 0 I I #
coedge $-1 $365 $367 $268 $377 reversed $261 $-1 #
edge $-1 $380 -29.380829889966957 $383 29.380829889966957 $376 $487 forward 7 unknown #
coedge $-1 $371 $269 $274 $386 forward $363 $-1 #
coedge $-1 $269 $371 $365 $478 reversed $363 $-1 #
vertex $-1 $270 $488 #
straight-curve $-1 0 29.380829889966957 9.6278774664607756 -1 0 0 I I #
coedge $-1 $271 $366 $273 $385 reversed $166 $-1 #
vertex $-1 $377 $489 #
straight-curve $-1 0 -29.380829889966957 9.6278774664607756 1 0 0 I I #
edge $-1 $276 -9.6278774664607756 $374 9.6278774664607756 $273 $490 forward 7 unknown #
edge $-1 $277 -9.6278774664607756 $373 9.6278774664607756 $274 $491 forward 7 unknown #
point $-1 53.726004821924498 -29.380829889966957 9.6278774664607756 #
point $-1 53.726004821924498 29.380829889966957 9.6278774664607756 #
loop $-1 $-1 $392 $279 #
plane-surface $-1 -53.726004821924498 0 0 1 0 0 0 0 -1 forward_v I I I I #
coedge $-1 $283 $282 $398 $492 reversed $109 $-1 #
coedge $-1 $493 $494 $283 $393 forward $389 $-1 #
edge $-1 $395 -36.452207900106075 $495 -26.566733143586706 $392 $496 forward 7 unknown #
coedge $-1 $289 $284 $494 $497 reversed $174 $-1 #
vertex $-1 $285 $498 #
straight-curve $-1 -22.624170329424125 29.380829889966957 1.1543716758046862 -1 0 0 I I #
coedge $-1 $499 $286 $289 $402 forward $280 $-1 #
coedge $-1 $286 $499 $391 $492 forward $280 $-1 #
vertex $-1 $287 $500 #
straight-curve $-1 -36.770676495771994 45.610344213958875 9.6278774664607738 0 1 0 I I #
straight-curve $-1 -36.770676495771994 -0.88366147539120732 51.52294543453705 0 -0.51503806187062418 0.85716730853699208 I I #
edge $-1 $290 36.770676495771994 $501 53.726004821924498 $289 $502 forward 7 unknown #
point $-1 -36.770676495771994 29.380829889966957 9.6278774664607756 #
point $-1 -36.770676495771994 29.380829889966957 1.1543716758046969 #
edge $-1 $503 1 $503 0 $293 $-1 forward 7 unknown #
vertex $-1 $294 $504 #
ellipse-curve $-1 -50.334939156693999 24.060017860654789 3.7236678227421471 0 0.85716730853699208 0.51503806187062418 1.5 0 0 1 I I #
point $-1 -48.834939156693999 26.835132010332593 5.39112457113273 #
edge $-1 $505 1 $505 0 $297 $-1 forward 7 unknown #
vertex $-1 $298 $506 #
ellipse-curve $-1 -45.24834065884825 24.060017860654789 3.7236678227421471 0 0.85716730853699208 0.51503806187062418 1.5 0 0 1 I I #
point $-1 -43.74834065884825 26.835132010332593 5.39112457113273 #
edge $-1 $507 1 $507 0 $301 $-1 forward 7 unknown #
vertex $-1 $302 $508 #
ellipse-curve $-1 -40.161742161002493 24.060017860654789 3.7236678227421471 0 0.85716730853699208 0.51503806187062418 1.5 0 0 1 I I #
point $-1 -38.661742161002493 26.835132010332593 5.39112457113273 #
plane-surface $-1 0 29.380829889966957 0 0 -1 0 0 0 -1 forward_v I I I I #
coedge $-1 $509 $308 $313 $424 forward $203 $-1 #
coedge $-1 $308 $509 $421 $510 forward $203 $-1 #
edge $-1 $422 16.229514323991918 $429 21.320910083260632 $308 $511 forward 7 unknown #
coedge $-1 $317 $311 $419 $510 reversed $318 $-1 #
vertex $-1 $312 $512 #
straight-curve $-1 36.770676495772008 29.380829889966957 53.432410112804327 0 0 1 I I #
edge $-1 $429 14.14650616634788 $427 31.101834492500377 $418 $513 forward 7 unknown #
coedge $-1 $426 $314 $317 $431 reversed $306 $-1 #
coedge $-1 $314 $425 $509 $514 reversed $306 $-1 #
vertex $-1 $514 $515 #
straight-curve $-1 53.726004821924498 10.606555382191267 32.40001261176949 0 0.51503806187062429 -0.85716730853699219 I I #
vertex $-1 $424 $516 #
straight-curve $-1 36.770676495772008 -0.88366147539120732 51.52294543453705 0 0.51503806187062418 -0.85716730853699208 I I #
edge $-1 $517 -9.6278774664607756 $319 -1.1543716758046969 $425 $518 forward 7 unknown #
point $-1 53.726004821924505 29.380829889966957 1.1543716758046969 #
point $-1 36.770676495772008 29.380829889966957 1.1543716758046969 #
edge $-1 $519 1 $519 0 $322 $-1 forward 7 unknown #
vertex $-1 $323 $520 #
ellipse-curve $-1 40.1617421610025 24.060017860654789 3.7236678227421471 0 0.85716730853699208 0.51503806187062418 1.5 0 0 1 I I #
point $-1 41.6617421610025 26.835132010332593 5.39112457113273 #
edge $-1 $521 1 $521 0 $326 $-1 forward 7 unknown #
vertex $-1 $327 $522 #
ellipse-curve $-1 45.248340658848257 24.060017860654789 3.7236678227421471 0 0.85716730853699208 0.51503806187062418 1.5 0 0 1 I I #
point $-1 46.748340658848257 26.835132010332593 5.39112457113273 #
edge $-1 $523 1 $523 0 $330 $-1 forward 7 unknown #
vertex $-1 $331 $524 #
ellipse-curve $-1 50.334939156693999 24.060017860654789 3.7236678227421471 0 0.85716730853699208 0.51503806187062418 1.5 0 0 1 I I #
point $-1 51.834939156693999 26.835132010332593 5.39112457113273 #
plane-surface $-1 0 0 9.6278774664607756 0 0 1 1 0 0 forward_v I I I I #
coedge $-1 $457 $456 $449 $525 forward $335 $-1 #
coedge $-1 $449 $337 $339 $453 reversed $232 $-1 #
coedge $-1 $337 $448 $447 $525 reversed $232 $-1 #
coedge $-1 $345 $340 $337 $451 forward $346 $-1 #
edge $-1 $454 -35.027405530627234 $526 -29.850462109450962 $450 $527 forward 7 unknown #
coedge $-1 $339 $338 $457 $528 reversed $147 $-1 #
edge $-1 $529 6.404651964132713e-015 $454 9.257884890640959 $448 $530 forward 7 unknown #
vertex $-1 $341 $531 #
straight-curve $-1 20.985252941444035 -24.203886468790689 9.6278774664607756 -1 0 0 I I #
coedge $-1 $447 $342 $345 $461 reversed $335 $-1 #
coedge $-1 $342 $447 $452 $528 forward $335 $-1 #
vertex $-1 $343 $532 #
straight-curve $-1 49.116538379466746 -29.380829889966961 31.019571472632222 0 0 1 I I #
straight-curve $-1 49.116538379466746 -29.380829889966961 1.9527429749813052 0 -0.55919289150049634 -0.82903758062907751 I I #
edge $-1 $526 34.824473386309393 $347 49.116538379466746 $456 $533 forward 7 unknown #
point $-1 49.116538379466746 -29.380829889966957 9.6278774664607756 #
point $-1 49.116538379466746 -24.203886468790689 9.6278774664607774 #
edge $-1 $534 1 $534 0 $350 $-1 forward 7 unknown #
vertex $-1 $351 $535 #
ellipse-curve $-1 37.682886384940865 -24.709099859989873 4.3851347852750306 0 -0.82903758062907751 0.55919289150049634 1 0 0 1 I I #
point $-1 38.682886384940865 -26.792358179378819 5.7903102207210395 #
edge $-1 $536 1 $536 0 $354 $-1 forward 7 unknown #
vertex $-1 $355 $537 #
ellipse-curve $-1 41.970505882888069 -24.709099859989873 4.3851347852750306 0 -0.82903758062907751 0.55919289150049634 1 0 0 1 I I #
point $-1 42.970505882888069 -26.792358179378819 5.7903102207210395 #
edge $-1 $538 1 $538 0 $358 $-1 forward 7 unknown #
vertex $-1 $359 $539 #
ellipse-curve $-1 46.258125380835274 -24.709099859989873 4.3851347852750306 0 -0.82903758062907751 0.55919289150049634 1 0 0 1 I I #
point $-1 47.258125380835274 -26.792358179378819 5.7903102207210395 #
plane-surface $-1 53.726004821924498 0 0 -1 0 0 0 0 1 forward_v I I I I #
coedge $-1 $367 $365 $369 $481 reversed $261 $-1 #
edge $-1 $380 -9.6278774664607756 $483 9.6278774664607756 $379 $540 forward 7 unknown #
vertex $-1 $481 $541 #
straight-curve $-1 -53.726004821924498 -29.380829889966957 0 0 0 -1 I I #
edge $-1 $479 -29.380829889966957 $483 29.380829889966957 $477 $542 forward 7 unknown #
straight-curve $-1 0 -29.380829889966957 -9.6278774664607756 -1 0 0 I I #
vertex $-1 $372 $543 #
straight-curve $-1 0 29.380829889966957 -9.6278774664607756 1 0 0 I I #
point $-1 53.726004821924498 29.380829889966957 -9.6278774664607756 #
point $-1 53.726004821924498 -29.380829889966957 -9.6278774664607756 #
straight-curve $-1 -53.726004821924498 0 9.6278774664607756 0 -1 0 I I #
point $-1 -53.726004821924498 29.380829889966957 9.6278774664607756 #
point $-1 -53.726004821924498 -29.380829889966957 9.6278774664607756 #
straight-curve $-1 53.726004821924498 -29.380829889966957 0 0 0 -1 I I #
straight-curve $-1 53.726004821924498 29.380829889966957 0 0 0 -1 I I #
edge $-1 $495 -31.10183449250038 $399 -14.146506166347869 $398 $544 forward 7 unknown #
coedge $-1 $494 $392 $499 $545 reversed $389 $-1 #
coedge $-1 $392 $493 $394 $497 forward $389 $-1 #
vertex $-1 $393 $546 #
straight-curve $-1 -53.726004821924498 10.606555382191267 32.40001261176949 0 -0.51503806187062429 0.85716730853699219 I I #
edge $-1 $501 -9.6278774664607756 $395 -1.1543716758046889 $394 $547 forward 7 unknown #
point $-1 -53.726004821924498 29.380829889966957 1.1543716758046889 #
coedge $-1 $398 $397 $493 $545 forward $280 $-1 #
point $-1 -36.770676495771994 24.289434130698243 9.6278774664607738 #
vertex $-1 $402 $548 #
straight-curve $-1 0 29.380829889966957 9.6278774664607756 -1 0 0 I I #
vertex $-1 $405 $549 #
point $-1 -48.834939156693999 24.060017860654789 3.7236678227421471 #
vertex $-1 $409 $550 #
point $-1 -43.74834065884825 24.060017860654789 3.7236678227421471 #
vertex $-1 $413 $551 #
point $-1 -38.661742161002493 24.060017860654789 3.7236678227421471 #
coedge $-1 $419 $418 $426 $514 forward $203 $-1 #
edge $-1 $517 -53.726004821924498 $422 -36.770676495772008 $421 $552 forward 7 unknown #
straight-curve $-1 36.770676495772008 45.610344213958875 9.6278774664607738 0 -1 0 I I #
point $-1 36.770676495772008 29.380829889966957 9.6278774664607756 #
straight-curve $-1 22.624170329424128 24.28943413069824 9.6278774664607738 1 0 0 I I #
edge $-1 $427 24.289434130698243 $517 29.380829889966957 $426 $553 forward 7 unknown #
point $-1 53.726004821924505 24.289434130698243 9.6278774664607738 #
point $-1 36.770676495772008 24.289434130698243 9.6278774664607738 #
vertex $-1 $514 $554 #
straight-curve $-1 53.726004821924498 29.380829889966957 0 0 0 -1 I I #
vertex $-1 $434 $555 #
point $-1 41.6617421610025 24.060017860654789 3.7236678227421471 #
vertex $-1 $438 $556 #
point $-1 46.748340658848257 24.060017860654789 3.7236678227421471 #
vertex $-1 $442 $557 #
point $-1 51.834939156693999 24.060017860654789 3.7236678227421471 #
edge $-1 $526 21.391694006171448 $529 29.06682849765091 $447 $558 forward 7 unknown #
vertex $-1 $461 $559 #
straight-curve $-1 34.824473386309393 -59.23129199941792 9.6278774664607738 0 -1 0 I I #
edge $-1 $529 13.839220444865358 $458 28.131285438022712 $457 $560 forward 7 unknown #
vertex $-1 $528 $561 #
straight-curve $-1 34.824473386309393 -29.380829889966961 1.9527429749813052 0 0.55919289150049634 0.82903758062907751 I I #
point $-1 34.824473386309393 -24.203886468790689 9.6278774664607774 #
point $-1 49.116538379466746 -29.380829889966957 1.9527429749813106 #
straight-curve $-1 0 -29.380829889966957 9.6278774664607756 1 0 0 I I #
vertex $-1 $464 $562 #
point $-1 38.682886384940865 -24.709099859989873 4.3851347852750306 #
vertex $-1 $468 $563 #
point $-1 42.970505882888069 -24.709099859989873 4.3851347852750306 #
vertex $-1 $472 $564 #
point $-1 47.258125380835274 -24.709099859989873 4.3851347852750306 #
straight-curve $-1 -53.726004821924498 29.380829889966957 0 0 0 -1 I I #
point $-1 -53.726004821924498 -29.380829889966957 -9.6278774664607756 #
straight-curve $-1 -53.726004821924498 0 -9.6278774664607756 0 1 0 I I #
point $-1 -53.726004821924498 29.380829889966957 -9.6278774664607756 #
straight-curve $-1 -22.624170329424125 24.28943413069824 9.6278774664607738 1 0 0 I I #
edge $-1 $501 -29.380829889966957 $495 -24.289434130698243 $493 $565 forward 7 unknown #
point $-1 -53.726004821924505 24.289434130698243 9.6278774664607738 #
straight-curve $-1 -53.726004821924498 29.380829889966957 0 0 0 -1 I I #
point $-1 -53.726004821924498 29.380829889966957 9.6278774664607756 #
point $-1 -50.334939156693999 22.774266897849301 2.9511107299362109 #
point $-1 -45.24834065884825 22.774266897849301 2.9511107299362109 #
point $-1 -40.161742161002493 22.774266897849301 2.9511107299362109 #
straight-curve $-1 0 29.380829889966957 9.6278774664607756 -1 0 0 I I #
straight-curve $-1 53.726004821924498 0 9.6278774664607756 0 1 0 I I #
point $-1 53.726004821924498 29.380829889966957 9.6278774664607756 #
point $-1 40.1617421610025 22.774266897849301 2.9511107299362109 #
point $-1 45.248340658848257 22.774266897849301 2.9511107299362109 #
point $-1 50.334939156693999 22.774266897849301 2.9511107299362109 #
straight-curve $-1 34.824473386309393 -29.380829889966961 31.019571472632222 0 0 -1 I I #
point $-1 34.824473386309393 -29.380829889966957 9.6278774664607756 #
straight-curve $-1 20.985252941444035 -29.380829889966957 1.9527429749813114 1 0 0 I I #
point $-1 34.824473386309393 -29.380829889966957 1.9527429749813106 #
point $-1 37.682886384940865 -23.880062279360796 3.8259418937745346 #
point $-1 41.970505882888069 -23.880062279360796 3.8259418937745346 #
point $-1 46.258125380835274 -23.880062279360796 3.8259418937745346 #
straight-curve $-1 -53.726004821924498 0 9.6278774664607756 0 -1 0 I I #
End-of-ACIS-data 