500 0 4 0           
7 Unknown 11 ACIS 5.0 NT 24 Fri Mar 26 19:35:46 1999 
-1 9.9999999999999995e-007 1e-010 
body $-1 $4 $-1 $5 #
body $-1 $6 $-1 $7 #
body $-1 $8 $-1 $9 #
body $-1 $10 $-1 $11 #
lump $-1 $-1 $12 $0 #
transform $-1 1 0 0 0 1 0 0 0 1 43.287453840754416 20.456614703167762 7.4224916388104543 1 rotate no_reflect no_shear #
lump $-1 $-1 $13 $1 #
transform $-1 1 0 0 0 1 0 0 0 1 43.287453840754416 20.456614703167762 7.4224916388104543 1 rotate no_reflect no_shear #
lump $-1 $-1 $14 $2 #
transform $-1 1 0 0 0 1 0 0 0 1 43.287453840754416 20.456614703167762 7.4224916388104543 1 rotate no_reflect no_shear #
lump $-1 $-1 $15 $3 #
transform $-1 1 0 0 0 1 0 0 0 1 43.287453840754416 20.456614703167762 7.4224916388104543 1 rotate no_reflect no_shear #
shell $-1 $-1 $-1 $16 $-1 $4 #
shell $-1 $-1 $-1 $17 $-1 $6 #
shell $-1 $-1 $-1 $18 $-1 $8 #
shell $-1 $-1 $-1 $19 $-1 $10 #
face $-1 $20 $21 $12 $-1 $22 forward single #
face $-1 $23 $24 $13 $-1 $25 forward single #
face $-1 $26 $27 $14 $-1 $28 reversed single #
face $-1 $29 $30 $15 $-1 $31 forward single #
face $-1 $32 $33 $12 $-1 $34 reversed single #
loop $-1 $-1 $35 $16 #
plane-surface $-1 0 0 7.4224916388104543 0 0 1 1 0 0 forward_v I I I I #
face $-1 $36 $37 $13 $-1 $38 reversed single #
loop $-1 $-1 $39 $17 #
plane-surface $-1 -38.390702435183783 0 -3.898329348928856 0 0 1 1 0 0 forward_v I I I I #
face $-1 $40 $41 $14 $-1 $42 reversed single #
loop $-1 $-1 $43 $18 #
plane-surface $-1 17.831702040834429 -2.2106419729162461 120.36023839792112 0 -1 0 -0.54463904215088732 0 -0.83867056331134215 forward_v I I I I #
face $-1 $44 $45 $15 $-1 $46 forward single #
loop $-1 $47 $48 $19 #
cone-surface $-1 37.157697752566435 -6.3585176736912459 2.6607098768412976 -0.54463904215088732 0 -0.83867056331134215 1.2580058449670133 0 -0.81695856322633098 1 I I 0 1 1.5 forward I I I I #
face $-1 $49 $50 $12 $-1 $51 reversed single #
loop $-1 $-1 $52 $20 #
plane-surface $-1 0 0 -7.4224916388104543 0 0 1 1 0 0 forward_v I I I I #
coedge $-1 $53 $54 $55 $56 forward $21 $-1 #
face $-1 $57 $58 $13 $-1 $59 reversed single #
loop $-1 $-1 $60 $23 #
plane-surface $-1 -38.390702435183783 0 -6.898329348928856 0 0 1 1 0 0 forward_v I I I I #
coedge $-1 $61 $62 $63 $64 forward $24 $-1 #
face $-1 $65 $66 $14 $-1 $67 reversed single #
loop $-1 $-1 $68 $26 #
plane-surface $-1 -29.32037275312404 -6.3585176736912459 47.752411804042666 0.54463904215088732 0 0.83867056331134215 0.83867056331134215 0 -0.54463904215088732 forward_v I I I I #
coedge $-1 $69 $70 $71 $72 reversed $27 $-1 #
face $-1 $-1 $73 $15 $-1 $74 forward single #
loop $-1 $75 $76 $29 #
cone-surface $-1 35.872060730172997 -6.3585176736912459 0.68100250675175467 -0.54463904215088732 0 -0.83867056331134215 0.62900292248350664 0 -0.40847928161316549 1 I I -0.70710678118654757 0.70710678118654757 0.75 forward I I I I #
loop $-1 $-1 $77 $19 #
coedge $-1 $48 $48 $78 $79 reversed $30 $-1 #
face $-1 $80 $81 $12 $-1 $82 reversed single #
loop $-1 $-1 $83 $32 #
plane-surface $-1 0 -20.456614703167762 0 0 1 0 0 0 1 forward_v I I I I #
coedge $-1 $84 $85 $86 $87 forward $33 $-1 #
coedge $-1 $88 $35 $89 $90 forward $21 $-1 #
coedge $-1 $35 $88 $91 $92 forward $21 $-1 #
coedge $-1 $93 $94 $35 $56 reversed $95 $-1 #
edge $-1 $96 -20.456614703167762 $97 20.456614703167762 $55 $98 forward 7 unknown #
face $-1 $99 $100 $13 $-1 $101 reversed single #
loop $-1 $-1 $102 $36 #
plane-surface $-1 -33.493951029613157 0 -5.398329348928856 -1 0 0 0 0 1 forward_v I I I I #
coedge $-1 $103 $104 $105 $106 forward $37 $-1 #
coedge $-1 $107 $39 $108 $109 reversed $24 $-1 #
coedge $-1 $39 $107 $110 $111 reversed $24 $-1 #
coedge $-1 $102 $112 $39 $64 reversed $58 $-1 #
edge $-1 $113 -20.456614703167762 $114 20.456614703167762 $63 $115 forward 7 unknown #
face $-1 $116 $117 $14 $-1 $118 reversed single #
loop $-1 $-1 $119 $40 #
plane-surface $-1 17.831702040834429 -10.506393374466246 120.36023839792112 0 1 0 0.54463904215088732 0 0.83867056331134215 forward_v I I I I #
coedge $-1 $120 $121 $122 $123 reversed $41 $-1 #
coedge $-1 $70 $43 $124 $125 reversed $27 $-1 #
coedge $-1 $43 $69 $120 $126 reversed $27 $-1 #
coedge $-1 $122 $127 $43 $72 forward $128 $-1 #
edge $-1 $129 -34.371602820337202 $130 -23.866406125521792 $71 $131 forward 7 unknown #
loop $-1 $-1 $78 $44 #
plane-surface $-1 -29.32037275312404 -6.3585176736912459 47.752411804042666 0.54463904215088732 0 0.83867056331134215 0.83867056331134215 0 -0.54463904215088732 forward_v I I I I #
loop $-1 $-1 $132 $29 #
coedge $-1 $76 $76 $77 $133 reversed $45 $-1 #
coedge $-1 $77 $77 $76 $133 forward $47 $-1 #
coedge $-1 $78 $78 $48 $79 forward $73 $-1 #
edge $-1 $134 0 $134 6.2831853071796004 $78 $135 forward 7 unknown #
face $-1 $136 $137 $12 $-1 $138 reversed single #
loop $-1 $-1 $139 $49 #
plane-surface $-1 -43.287453840754416 0 0 1 0 0 0 0 -1 forward_v I I I I #
coedge $-1 $140 $91 $141 $142 forward $50 $-1 #
coedge $-1 $143 $52 $140 $144 forward $33 $-1 #
coedge $-1 $52 $143 $145 $146 forward $33 $-1 #
coedge $-1 $94 $93 $52 $87 reversed $95 $-1 #
edge $-1 $147 -20.456614703167762 $148 20.456614703167762 $86 $149 forward 7 unknown #
coedge $-1 $54 $53 $150 $151 forward $21 $-1 #
coedge $-1 $152 $153 $53 $90 reversed $137 $-1 #
edge $-1 $97 -43.287453840754416 $154 43.287453840754416 $89 $155 forward 7 unknown #
coedge $-1 $83 $156 $54 $92 reversed $50 $-1 #
edge $-1 $157 -43.287453840754416 $96 43.287453840754416 $91 $158 forward 7 unknown #
coedge $-1 $86 $55 $156 $159 forward $95 $-1 #
coedge $-1 $55 $86 $152 $160 reversed $95 $-1 #
loop $-1 $-1 $93 $136 #
vertex $-1 $56 $161 #
vertex $-1 $56 $162 #
straight-curve $-1 43.287453840754416 0 7.4224916388104543 0 1 0 I I #
face $-1 $163 $164 $13 $-1 $165 reversed single #
loop $-1 $-1 $166 $57 #
plane-surface $-1 0 -20.456614703167762 0 0 1 0 0 0 1 forward_v I I I I #
coedge $-1 $105 $63 $167 $168 reversed $58 $-1 #
coedge $-1 $169 $60 $166 $170 reversed $37 $-1 #
coedge $-1 $60 $169 $171 $172 reversed $37 $-1 #
coedge $-1 $112 $102 $60 $106 reversed $58 $-1 #
edge $-1 $173 -20.456614703167762 $174 20.456614703167762 $105 $175 forward 7 unknown #
coedge $-1 $62 $61 $176 $177 reversed $24 $-1 #
coedge $-1 $178 $179 $61 $109 forward $180 $-1 #
edge $-1 $181 -24.092102623162518 $114 -14.298599812021266 $108 $182 forward 7 unknown #
coedge $-1 $183 $167 $62 $111 forward $100 $-1 #
edge $-1 $113 14.298599812021266 $184 24.092102623162518 $110 $185 forward 7 unknown #
coedge $-1 $63 $105 $178 $186 reversed $58 $-1 #
vertex $-1 $111 $187 #
vertex $-1 $109 $188 #
straight-curve $-1 -33.493951029613157 0 -3.898329348928856 0 1 0 I I #
face $-1 $-1 $128 $14 $-1 $189 forward single #
loop $-1 $-1 $190 $65 #
plane-surface $-1 43.287453840754416 0 0 -1 0 0 0 0 1 forward_v I I I I #
coedge $-1 $191 $192 $193 $194 reversed $66 $-1 #
coedge $-1 $195 $68 $70 $126 forward $41 $-1 #
coedge $-1 $68 $195 $191 $196 forward $41 $-1 #
coedge $-1 $193 $71 $68 $123 forward $128 $-1 #
edge $-1 $130 -0.96861686392937685 $197 7.3271345376206227 $122 $198 forward 7 unknown #
coedge $-1 $199 $200 $69 $125 forward $117 $-1 #
edge $-1 $201 -59.579782188876365 $129 -52.757627560150105 $124 $202 forward 7 unknown #
edge $-1 $130 74.048896689376832 $201 86.574907681508833 $70 $203 forward 7 unknown #
coedge $-1 $71 $193 $199 $204 forward $128 $-1 #
loop $-1 $-1 $193 $116 #
vertex $-1 $125 $205 #
vertex $-1 $72 $206 #
straight-curve $-1 8.9158510204172146 -2.2106419729162461 7.422491638810456 -1 0 0 I I #
coedge $-1 $132 $132 $-1 $207 reversed $75 $-1 #
edge $-1 $208 0 $208 6.2831853071796004 $76 $209 forward 7 unknown #
vertex $-1 $79 $210 #
ellipse-curve $-1 38.034855493346704 -6.3585176736912459 4.0114143244473306 0.54463904215088732 0 0.83867056331134215 1.2580058449670133 0 -0.81695856322633098 1 I I #
face $-1 $-1 $95 $12 $-1 $211 reversed single #
loop $-1 $-1 $152 $80 #
plane-surface $-1 0 20.456614703167762 0 0 -1 0 0 0 -1 forward_v I I I I #
coedge $-1 $212 $150 $153 $213 forward $81 $-1 #
coedge $-1 $156 $83 $84 $144 reversed $50 $-1 #
coedge $-1 $150 $212 $83 $142 reversed $81 $-1 #
edge $-1 $157 -7.4224916388104543 $214 7.4224916388104543 $141 $215 forward 7 unknown #
coedge $-1 $85 $84 $212 $216 forward $33 $-1 #
edge $-1 $148 -43.287453840754416 $214 43.287453840754416 $140 $217 forward 7 unknown #
coedge $-1 $153 $152 $85 $146 reversed $137 $-1 #
edge $-1 $218 -43.287453840754416 $147 43.287453840754416 $145 $219 forward 7 unknown #
vertex $-1 $87 $220 #
vertex $-1 $159 $221 #
straight-curve $-1 43.287453840754416 0 -7.4224916388104543 0 -1 0 I I #
coedge $-1 $139 $141 $88 $151 reversed $81 $-1 #
edge $-1 $154 -20.456614703167762 $157 20.456614703167762 $150 $222 forward 7 unknown #
coedge $-1 $145 $89 $94 $160 forward $137 $-1 #
coedge $-1 $89 $145 $139 $213 reversed $137 $-1 #
vertex $-1 $90 $223 #
straight-curve $-1 0 20.456614703167762 7.4224916388104543 -1 0 0 I I #
coedge $-1 $91 $140 $93 $159 reversed $50 $-1 #
vertex $-1 $151 $224 #
straight-curve $-1 0 -20.456614703167762 7.4224916388104543 1 0 0 I I #
edge $-1 $96 -7.4224916388104543 $148 7.4224916388104543 $93 $225 forward 7 unknown #
edge $-1 $97 -7.4224916388104543 $147 7.4224916388104543 $94 $226 forward 7 unknown #
point $-1 43.287453840754416 -20.456614703167762 7.4224916388104543 #
point $-1 43.287453840754416 20.456614703167762 7.4224916388104543 #
face $-1 $-1 $180 $13 $-1 $227 reversed single #
loop $-1 $-1 $228 $99 #
plane-surface $-1 -43.287453840754416 0 0 1 0 0 0 0 -1 forward_v I I I I #
coedge $-1 $167 $183 $103 $170 forward $100 $-1 #
coedge $-1 $110 $166 $102 $168 forward $100 $-1 #
edge $-1 $174 -4.199164674464428 $113 -1.199164674464428 $167 $229 forward 7 unknown #
coedge $-1 $104 $103 $228 $230 reversed $37 $-1 #
edge $-1 $231 -24.092102623162518 $174 -14.298599812021266 $166 $232 forward 7 unknown #
coedge $-1 $179 $178 $104 $172 forward $180 $-1 #
edge $-1 $173 14.298599812021266 $233 24.092102623162518 $171 $234 forward 7 unknown #
vertex $-1 $172 $235 #
vertex $-1 $170 $236 #
straight-curve $-1 -33.493951029613157 0 -6.898329348928856 0 -1 0 I I #
coedge $-1 $237 $238 $107 $177 forward $164 $-1 #
edge $-1 $184 -20.456614703167762 $181 20.456614703167762 $176 $239 forward 7 unknown #
coedge $-1 $171 $108 $112 $186 forward $180 $-1 #
coedge $-1 $108 $171 $237 $240 reversed $180 $-1 #
loop $-1 $-1 $171 $163 #
vertex $-1 $240 $241 #
straight-curve $-1 -19.195351217591892 20.456614703167762 -3.898329348928856 1 0 0 I I #
coedge $-1 $166 $110 $238 $242 forward $100 $-1 #
vertex $-1 $242 $243 #
straight-curve $-1 -19.195351217591892 -20.456614703167762 -3.898329348928856 -1 0 0 I I #
edge $-1 $114 1.199164674464428 $173 4.199164674464428 $178 $244 forward 7 unknown #
point $-1 -33.493951029613157 -20.456614703167762 -3.898329348928856 #
point $-1 -33.493951029613157 20.456614703167762 -3.898329348928856 #
plane-surface $-1 0 0 7.4224916388104543 0 0 1 1 0 0 forward_v I I I I #
coedge $-1 $200 $199 $192 $245 forward $117 $-1 #
coedge $-1 $192 $119 $121 $196 reversed $66 $-1 #
coedge $-1 $119 $191 $190 $245 reversed $66 $-1 #
coedge $-1 $127 $122 $119 $194 forward $128 $-1 #
edge $-1 $197 23.866406125521792 $246 34.371602820337202 $193 $247 forward 7 unknown #
coedge $-1 $121 $120 $200 $248 reversed $41 $-1 #
edge $-1 $249 -86.574907681508833 $197 -74.048896689376832 $191 $250 forward 7 unknown #
vertex $-1 $123 $251 #
straight-curve $-1 32.782257145938999 -3.1792588368456229 7.4224916388104525 0 -1 0 I I #
coedge $-1 $190 $124 $127 $204 reversed $117 $-1 #
coedge $-1 $124 $190 $195 $248 forward $117 $-1 #
vertex $-1 $125 $252 #
straight-curve $-1 43.287453840754416 -2.2106419729162461 60.180119198960561 0 0 1 I I #
straight-curve $-1 -29.32037275312404 -2.2106419729162461 47.752411804042666 0.83867056331134215 0 -0.54463904215088732 I I #
edge $-1 $246 -10.506393374466246 $129 -2.2106419729162461 $199 $253 forward 7 unknown #
point $-1 43.287453840754416 -2.2106419729162461 7.4224916388104543 #
point $-1 32.782257145939006 -2.2106419729162461 7.422491638810456 #
edge $-1 $254 1 $254 0 $132 $-1 forward 7 unknown #
vertex $-1 $133 $255 #
ellipse-curve $-1 36.280540011786165 -6.3585176736912459 1.3100054292352614 0.54463904215088732 0 0.83867056331134215 1.2580058449670133 0 -0.81695856322633098 1 I I #
point $-1 39.29286133831372 -6.3585176736912459 3.1944557612210027 #
plane-surface $-1 43.287453840754416 0 0 -1 0 0 0 0 1 forward_v I I I I #
coedge $-1 $141 $139 $143 $216 reversed $81 $-1 #
edge $-1 $154 -7.4224916388104543 $218 7.4224916388104543 $153 $256 forward 7 unknown #
vertex $-1 $216 $257 #
straight-curve $-1 -43.287453840754416 -20.456614703167762 0 0 0 -1 I I #
edge $-1 $214 -20.456614703167762 $218 20.456614703167762 $212 $258 forward 7 unknown #
straight-curve $-1 0 -20.456614703167762 -7.4224916388104543 -1 0 0 I I #
vertex $-1 $146 $259 #
straight-curve $-1 0 20.456614703167762 -7.4224916388104543 1 0 0 I I #
point $-1 43.287453840754416 20.456614703167762 -7.4224916388104543 #
point $-1 43.287453840754416 -20.456614703167762 -7.4224916388104543 #
straight-curve $-1 -43.287453840754416 0 7.4224916388104543 0 -1 0 I I #
point $-1 -43.287453840754416 20.456614703167762 7.4224916388104543 #
point $-1 -43.287453840754416 -20.456614703167762 7.4224916388104543 #
straight-curve $-1 43.287453840754416 -20.456614703167762 0 0 0 -1 I I #
straight-curve $-1 43.287453840754416 20.456614703167762 0 0 0 -1 I I #
plane-surface $-1 0 20.456614703167762 0 0 -1 0 0 0 -1 forward_v I I I I #
coedge $-1 $238 $237 $169 $230 forward $164 $-1 #
straight-curve $-1 -33.493951029613157 -20.456614703167762 -2.699164674464428 0 0 1 I I #
edge $-1 $233 -20.456614703167762 $231 20.456614703167762 $228 $260 forward 7 unknown #
vertex $-1 $170 $261 #
straight-curve $-1 -19.195351217591892 -20.456614703167762 -6.898329348928856 1 0 0 I I #
vertex $-1 $172 $262 #
straight-curve $-1 -19.195351217591892 20.456614703167762 -6.898329348928856 -1 0 0 I I #
point $-1 -33.493951029613157 20.456614703167762 -6.898329348928856 #
point $-1 -33.493951029613157 -20.456614703167762 -6.898329348928856 #
coedge $-1 $228 $176 $179 $240 forward $164 $-1 #
coedge $-1 $176 $228 $183 $242 reversed $164 $-1 #
straight-curve $-1 -43.287453840754416 0 -3.898329348928856 0 1 0 I I #
edge $-1 $181 3.898329348928856 $233 6.898329348928856 $179 $263 forward 7 unknown #
point $-1 -43.287453840754409 20.456614703167762 -3.898329348928856 #
edge $-1 $184 3.898329348928856 $231 6.898329348928856 $238 $264 forward 7 unknown #
point $-1 -43.287453840754409 -20.456614703167762 -3.898329348928856 #
straight-curve $-1 -33.493951029613157 20.456614703167762 -2.699164674464428 0 0 -1 I I #
edge $-1 $246 52.757627560150105 $249 59.579782188876365 $190 $265 forward 7 unknown #
vertex $-1 $204 $266 #
straight-curve $-1 8.9158510204172146 -10.506393374466246 7.422491638810456 1 0 0 I I #
edge $-1 $249 -7.3271345376206227 $201 0.96861686392937685 $200 $267 forward 7 unknown #
vertex $-1 $248 $268 #
straight-curve $-1 -29.32037275312404 -10.506393374466246 47.752411804042666 -0.83867056331134215 0 0.54463904215088732 I I #
point $-1 32.782257145939006 -10.506393374466246 7.422491638810456 #
point $-1 43.287453840754416 -2.2106419729162461 0.60033701008419627 #
straight-curve $-1 43.287453840754416 0 7.4224916388104543 0 1 0 I I #
vertex $-1 $207 $269 #
point $-1 37.538545856753174 -6.3585176736912459 0.49304686600893033 #
straight-curve $-1 -43.287453840754416 20.456614703167762 0 0 0 -1 I I #
point $-1 -43.287453840754416 -20.456614703167762 -7.4224916388104543 #
straight-curve $-1 -43.287453840754416 0 -7.4224916388104543 0 1 0 I I #
point $-1 -43.287453840754416 20.456614703167762 -7.4224916388104543 #
straight-curve $-1 -43.287453840754416 0 -6.898329348928856 0 -1 0 I I #
point $-1 -43.287453840754409 -20.456614703167762 -6.898329348928856 #
point $-1 -43.287453840754409 20.456614703167762 -6.898329348928856 #
straight-curve $-1 -43.287453840754416 20.456614703167762 0 0 0 -1 I I #
straight-curve $-1 -43.287453840754416 -20.456614703167762 0 0 0 -1 I I #
straight-curve $-1 43.287453840754416 -10.506393374466246 60.180119198960561 0 0 -1 I I #
point $-1 43.287453840754416 -10.506393374466246 7.4224916388104543 #
straight-curve $-1 43.287453840754416 -3.1792588368456229 0.60033701008419627 0 1 0 I I #
point $-1 43.287453840754416 -10.506393374466246 0.60033701008419627 #
point $-1 35.463581448559829 -6.3585176736912459 0.051999584268248022 #
End-of-ACIS-data 