500 0 9 0           
7 Unknown 11 ACIS 5.0 NT 24 Fri Mar 26 14:51:20 1999 
-1 9.9999999999999995e-007 1e-010 
body $-1 $9 $-1 $10 #
body $-1 $11 $-1 $12 #
body $-1 $13 $-1 $14 #
body $-1 $15 $-1 $16 #
body $-1 $17 $-1 $18 #
body $-1 $19 $-1 $20 #
body $-1 $21 $-1 $22 #
body $-1 $23 $-1 $24 #
body $-1 $25 $-1 $26 #
lump $-1 $-1 $27 $0 #
transform $-1 1 0 0 0 1 0 0 0 1 65.462202826013979 34.877747030138615 16.073120250676144 1 rotate no_reflect no_shear #
lump $-1 $-1 $28 $1 #
transform $-1 1 0 0 0 1 0 0 0 1 65.462202826013979 34.877747030138615 16.073120250676144 1 rotate no_reflect no_shear #
lump $-1 $-1 $29 $2 #
transform $-1 1 0 0 0 1 0 0 0 1 65.462202826013979 34.877747030138615 16.073120250676144 1 rotate no_reflect no_shear #
lump $-1 $-1 $30 $3 #
transform $-1 1 0 0 0 1 0 0 0 1 65.462202826013979 34.877747030138615 16.073120250676144 1 rotate no_reflect no_shear #
lump $-1 $-1 $31 $4 #
transform $-1 1 0 0 0 1 0 0 0 1 65.462202826013979 34.877747030138615 16.073120250676144 1 rotate no_reflect no_shear #
lump $-1 $-1 $32 $5 #
transform $-1 1 0 0 0 1 0 0 0 1 65.462202826013979 34.877747030138615 16.073120250676144 1 rotate no_reflect no_shear #
lump $-1 $-1 $33 $6 #
transform $-1 1 0 0 0 1 0 0 0 1 65.462202826013979 34.877747030138615 16.073120250676144 1 rotate no_reflect no_shear #
lump $-1 $-1 $34 $7 #
transform $-1 1 0 0 0 1 0 0 0 1 65.462202826013979 34.877747030138615 16.073120250676144 1 rotate no_reflect no_shear #
lump $-1 $-1 $35 $8 #
transform $-1 1 0 0 0 1 0 0 0 1 65.462202826013979 34.877747030138615 16.073120250676144 1 rotate no_reflect no_shear #
shell $-1 $-1 $-1 $36 $-1 $9 #
shell $-1 $-1 $-1 $37 $-1 $11 #
shell $-1 $-1 $-1 $38 $-1 $13 #
shell $-1 $-1 $-1 $39 $-1 $15 #
shell $-1 $-1 $-1 $40 $-1 $17 #
shell $-1 $-1 $-1 $41 $-1 $19 #
shell $-1 $-1 $-1 $42 $-1 $21 #
shell $-1 $-1 $-1 $43 $-1 $23 #
shell $-1 $-1 $-1 $44 $-1 $25 #
face $-1 $45 $46 $27 $-1 $47 forward single #
face $-1 $48 $49 $28 $-1 $50 forward single #
face $-1 $51 $52 $29 $-1 $53 reversed single #
face $-1 $54 $55 $30 $-1 $56 forward single #
face $-1 $57 $58 $31 $-1 $59 forward single #
face $-1 $60 $61 $32 $-1 $62 reversed single #
face $-1 $63 $64 $33 $-1 $65 forward single #
face $-1 $66 $67 $34 $-1 $68 reversed single #
face $-1 $69 $70 $35 $-1 $71 forward single #
face $-1 $72 $73 $27 $-1 $74 reversed single #
loop $-1 $-1 $75 $36 #
plane-surface $-1 0 0 16.073120250676144 0 0 1 1 0 0 forward_v I I I I #
face $-1 $76 $77 $28 $-1 $78 reversed single #
loop $-1 $-1 $79 $37 #
plane-surface $-1 0 -28.533737923549605 -12.820431253141017 0 0 1 1 0 0 forward_v I I I I #
face $-1 $80 $81 $29 $-1 $82 reversed single #
loop $-1 $-1 $83 $38 #
plane-surface $-1 88.026932113461228 22.569910784557731 190.95126395933977 0 -1 0 -0.78801076186113728 0 -0.61566146476048833 forward_v I I I I #
face $-1 $84 $85 $30 $-1 $86 forward single #
loop $-1 $87 $88 $39 #
cone-surface $-1 61.418891759035851 10.631087665683104 11.18107327527237 -0.78801076186113728 0 -0.61566146476048833 0.30783073238024417 0 -0.39400538093056864 1 I I 0 1 0.5 forward I I I I #
face $-1 $89 $90 $31 $-1 $91 forward single #
loop $-1 $92 $93 $40 #
cone-surface $-1 61.418891759035851 17.79438153700788 11.18107327527237 -0.78801076186113728 0 -0.61566146476048833 0.30783073238024417 0 -0.39400538093056864 1 I I 0 1 0.5 forward I I I I #
face $-1 $94 $95 $32 $-1 $96 reversed single #
loop $-1 $-1 $97 $41 #
plane-surface $-1 -144.25447804215514 -7.3763346471520386 111.17104921982988 0 1 0 -0.6018150307709319 0 0.79863550430605224 forward_v I I I I #
face $-1 $98 $99 $33 $-1 $100 forward single #
loop $-1 $101 $102 $42 #
cone-surface $-1 -57.733633086263097 -1.6423667677528613 9.4178409721456582 0.6018150307709319 0 -0.79863550430605224 1.9965887607651305 0 1.5045375769273297 1 I I 0 1 2.5 forward I I I I #
face $-1 $103 $104 $34 $-1 $105 reversed single #
loop $-1 $-1 $106 $43 #
plane-surface $-1 -144.25447804215514 8.5964171015317099 111.17104921982988 0 1 0 -0.6018150307709319 0 0.79863550430605224 forward_v I I I I #
face $-1 $107 $108 $35 $-1 $109 forward single #
loop $-1 $110 $111 $44 #
cone-surface $-1 -57.733633086263097 14.330384980930887 9.4178409721456582 0.6018150307709319 0 -0.79863550430605224 1.9965887607651305 0 1.5045375769273297 1 I I 0 1 2.5 forward I I I I #
face $-1 $112 $113 $27 $-1 $114 reversed single #
loop $-1 $-1 $115 $45 #
plane-surface $-1 0 0 -16.073120250676144 0 0 1 1 0 0 forward_v I I I I #
coedge $-1 $116 $117 $118 $119 forward $46 $-1 #
face $-1 $120 $121 $28 $-1 $122 reversed single #
loop $-1 $-1 $123 $48 #
plane-surface $-1 0 -22.189728816960596 -14.44677575190858 0 -1 0 0 0 -1 forward_v I I I I #
coedge $-1 $124 $125 $126 $127 reversed $49 $-1 #
face $-1 $128 $129 $29 $-1 $130 reversed single #
loop $-1 $-1 $131 $51 #
plane-surface $-1 -15.14290853060993 14.212734601345495 110.34615260271586 0.78801076186113728 0 0.61566146476048833 0.61566146476048833 0 -0.78801076186113728 forward_v I I I I #
coedge $-1 $132 $133 $134 $135 reversed $52 $-1 #
face $-1 $-1 $136 $30 $-1 $137 forward single #
loop $-1 $138 $139 $54 #
cone-surface $-1 60.654052125720298 10.631087665683104 10.583515079694191 -0.78801076186113728 0 -0.61566146476048833 0.15391536619012208 0 -0.19700269046528432 1 I I -0.70710678118654746 0.70710678118654746 0.25 forward I I I I #
loop $-1 $-1 $140 $39 #
coedge $-1 $88 $88 $141 $142 reversed $55 $-1 #
face $-1 $-1 $143 $31 $-1 $144 forward single #
loop $-1 $145 $146 $57 #
cone-surface $-1 60.654052125720298 17.79438153700788 10.583515079694191 -0.78801076186113728 0 -0.61566146476048833 0.15391536619012208 0 -0.19700269046528432 1 I I -0.70710678118654746 0.70710678118654746 0.25 forward I I I I #
loop $-1 $-1 $147 $40 #
coedge $-1 $93 $93 $148 $149 reversed $58 $-1 #
face $-1 $150 $151 $32 $-1 $152 reversed single #
loop $-1 $-1 $153 $60 #
plane-surface $-1 -65.462202826013964 -1.6423667677528684 6.6101704859523807 -0.6018150307709319 0 0.79863550430605224 0.79863550430605224 0 0.6018150307709319 forward_v I I I I #
coedge $-1 $154 $155 $156 $157 reversed $61 $-1 #
face $-1 $-1 $158 $33 $-1 $159 forward single #
loop $-1 $160 $161 $63 #
cone-surface $-1 -55.531673674686601 -1.6423667677528613 6.4957421955944739 0.6018150307709319 0 -0.79863550430605224 0.99829438038256524 0 0.75226878846366485 1 I I -0.70710678118654779 0.70710678118654724 1.25 forward I I I I #
loop $-1 $-1 $162 $42 #
coedge $-1 $102 $102 $163 $164 reversed $64 $-1 #
face $-1 $165 $166 $34 $-1 $167 reversed single #
loop $-1 $-1 $168 $66 #
plane-surface $-1 -65.462202826013964 14.33038498093088 6.6101704859523807 -0.6018150307709319 0 0.79863550430605224 0.79863550430605224 0 0.6018150307709319 forward_v I I I I #
coedge $-1 $169 $170 $171 $172 reversed $67 $-1 #
face $-1 $-1 $173 $35 $-1 $174 forward single #
loop $-1 $175 $176 $69 #
cone-surface $-1 -55.531673674686601 14.330384980930887 6.4957421955944739 0.6018150307709319 0 -0.79863550430605224 0.99829438038256524 0 0.75226878846366485 1 I I -0.70710678118654779 0.70710678118654724 1.25 forward I I I I #
loop $-1 $-1 $177 $44 #
coedge $-1 $111 $111 $178 $179 reversed $70 $-1 #
face $-1 $180 $181 $27 $-1 $182 reversed single #
loop $-1 $-1 $183 $72 #
plane-surface $-1 0 -34.877747030138615 0 0 1 0 0 0 1 forward_v I I I I #
coedge $-1 $184 $185 $186 $187 forward $73 $-1 #
coedge $-1 $188 $75 $189 $190 forward $46 $-1 #
coedge $-1 $75 $188 $191 $192 forward $46 $-1 #
coedge $-1 $193 $194 $75 $119 reversed $195 $-1 #
edge $-1 $196 -34.877747030138615 $197 34.877747030138615 $118 $198 forward 7 unknown #
face $-1 $199 $200 $28 $-1 $201 reversed single #
loop $-1 $-1 $202 $76 #
plane-surface $-1 0 0 -16.073120250676144 0 0 1 1 0 0 forward_v I I I I #
coedge $-1 $203 $204 $205 $206 reversed $77 $-1 #
coedge $-1 $207 $79 $204 $208 forward $49 $-1 #
coedge $-1 $79 $207 $209 $210 reversed $49 $-1 #
coedge $-1 $211 $205 $79 $127 forward $200 $-1 #
edge $-1 $212 7.9228598551857932 $213 20.61087806836381 $126 $214 forward 7 unknown #
face $-1 $215 $216 $29 $-1 $217 reversed single #
loop $-1 $-1 $218 $80 #
plane-surface $-1 88.026932113461228 5.8555584181332598 190.95126395933977 0 1 0 0.78801076186113728 0 0.61566146476048833 forward_v I I I I #
coedge $-1 $219 $220 $221 $222 reversed $81 $-1 #
coedge $-1 $133 $83 $223 $224 reversed $52 $-1 #
coedge $-1 $83 $132 $219 $225 reversed $52 $-1 #
coedge $-1 $221 $226 $83 $135 forward $227 $-1 #
edge $-1 $228 -21.448736769283364 $229 -14.497788521027637 $134 $230 forward 7 unknown #
loop $-1 $-1 $141 $84 #
plane-surface $-1 -15.14290853060993 14.212734601345495 110.34615260271586 0.78801076186113728 0 0.61566146476048833 0.61566146476048833 0 -0.78801076186113728 forward_v I I I I #
loop $-1 $-1 $231 $54 #
coedge $-1 $139 $139 $140 $232 reversed $85 $-1 #
coedge $-1 $140 $140 $139 $232 forward $87 $-1 #
coedge $-1 $141 $141 $88 $142 forward $136 $-1 #
edge $-1 $233 0 $233 6.2831853071796004 $141 $234 forward 7 unknown #
loop $-1 $-1 $148 $89 #
plane-surface $-1 -15.14290853060993 14.212734601345495 110.34615260271586 0.78801076186113728 0 0.61566146476048833 0.61566146476048833 0 -0.78801076186113728 forward_v I I I I #
loop $-1 $-1 $235 $57 #
coedge $-1 $146 $146 $147 $236 reversed $90 $-1 #
coedge $-1 $147 $147 $146 $236 forward $92 $-1 #
coedge $-1 $148 $148 $93 $149 forward $143 $-1 #
edge $-1 $237 0 $237 6.2831853071796004 $148 $238 forward 7 unknown #
face $-1 $239 $240 $32 $-1 $241 forward single #
loop $-1 $-1 $242 $94 #
plane-surface $-1 -144.25447804215514 4.0916011116463018 111.17104921982988 0 -1 0 0.6018150307709319 0 -0.79863550430605224 forward_v I I I I #
coedge $-1 $243 $244 $245 $246 reversed $95 $-1 #
coedge $-1 $155 $97 $247 $248 reversed $61 $-1 #
coedge $-1 $97 $154 $243 $249 reversed $61 $-1 #
coedge $-1 $245 $250 $97 $157 forward $240 $-1 #
edge $-1 $251 6.6650361950635926 $252 19.222794428339739 $156 $253 forward 7 unknown #
loop $-1 $-1 $163 $98 #
plane-surface $-1 -65.462202826013964 -1.6423667677528684 6.6101704859523807 -0.6018150307709319 0 0.79863550430605224 0.79863550430605224 0 0.6018150307709319 forward_v I I I I #
loop $-1 $-1 $254 $63 #
coedge $-1 $161 $161 $162 $255 reversed $99 $-1 #
coedge $-1 $162 $162 $161 $255 forward $101 $-1 #
coedge $-1 $163 $163 $102 $164 forward $158 $-1 #
edge $-1 $256 0 $256 6.2831853071796004 $163 $257 forward 7 unknown #
face $-1 $258 $259 $34 $-1 $260 forward single #
loop $-1 $-1 $261 $103 #
plane-surface $-1 -144.25447804215514 20.06435286033005 111.17104921982988 0 -1 0 0.6018150307709319 0 -0.79863550430605224 forward_v I I I I #
coedge $-1 $262 $263 $264 $265 reversed $104 $-1 #
coedge $-1 $170 $106 $266 $267 reversed $67 $-1 #
coedge $-1 $106 $169 $262 $268 reversed $67 $-1 #
coedge $-1 $264 $269 $106 $172 forward $259 $-1 #
edge $-1 $270 6.6650361950635926 $271 19.222794428339739 $171 $272 forward 7 unknown #
loop $-1 $-1 $178 $107 #
plane-surface $-1 -65.462202826013964 14.33038498093088 6.6101704859523807 -0.6018150307709319 0 0.79863550430605224 0.79863550430605224 0 0.6018150307709319 forward_v I I I I #
loop $-1 $-1 $273 $69 #
coedge $-1 $176 $176 $177 $274 reversed $108 $-1 #
coedge $-1 $177 $177 $176 $274 forward $110 $-1 #
coedge $-1 $178 $178 $111 $179 forward $173 $-1 #
edge $-1 $275 0 $275 6.2831853071796004 $178 $276 forward 7 unknown #
face $-1 $277 $278 $27 $-1 $279 reversed single #
loop $-1 $-1 $280 $112 #
plane-surface $-1 -65.462202826013979 0 0 1 0 0 0 0 -1 forward_v I I I I #
coedge $-1 $281 $191 $282 $283 forward $113 $-1 #
coedge $-1 $284 $115 $281 $285 forward $73 $-1 #
coedge $-1 $115 $284 $286 $287 forward $73 $-1 #
coedge $-1 $194 $193 $115 $187 reversed $195 $-1 #
edge $-1 $288 -34.877747030138615 $289 34.877747030138615 $186 $290 forward 7 unknown #
coedge $-1 $117 $116 $291 $292 forward $46 $-1 #
coedge $-1 $293 $294 $116 $190 reversed $278 $-1 #
edge $-1 $197 -65.462202826013979 $295 65.462202826013979 $189 $296 forward 7 unknown #
coedge $-1 $183 $297 $117 $192 reversed $113 $-1 #
edge $-1 $298 -65.462202826013979 $196 65.462202826013979 $191 $299 forward 7 unknown #
coedge $-1 $186 $118 $297 $300 forward $195 $-1 #
coedge $-1 $118 $186 $293 $301 reversed $195 $-1 #
loop $-1 $-1 $193 $277 #
vertex $-1 $119 $302 #
vertex $-1 $119 $303 #
straight-curve $-1 65.462202826013979 0 16.073120250676144 0 1 0 I I #
face $-1 $304 $305 $28 $-1 $306 reversed single #
loop $-1 $-1 $205 $120 #
plane-surface $-1 65.462202826013979 0 0 -1 0 0 0 0 1 forward_v I I I I #
coedge $-1 $307 $308 $203 $309 forward $121 $-1 #
coedge $-1 $310 $123 $202 $309 reversed $77 $-1 #
coedge $-1 $123 $310 $124 $208 reversed $77 $-1 #
coedge $-1 $126 $311 $123 $206 forward $200 $-1 #
edge $-1 $312 -8.849732374721853 $212 -5.5970433771867265 $205 $313 forward 7 unknown #
coedge $-1 $125 $124 $314 $315 reversed $49 $-1 #
edge $-1 $212 -65.462202826013979 $316 65.462202826013979 $204 $317 forward 7 unknown #
coedge $-1 $318 $319 $125 $210 forward $305 $-1 #
edge $-1 $213 -65.462202826013979 $320 65.462202826013979 $209 $321 forward 7 unknown #
coedge $-1 $311 $126 $319 $322 forward $200 $-1 #
vertex $-1 $127 $323 #
vertex $-1 $322 $324 #
straight-curve $-1 65.462202826013979 -14.266868961774803 -12.820431253141017 0 -1 0 I I #
face $-1 $-1 $227 $29 $-1 $325 forward single #
loop $-1 $-1 $326 $128 #
plane-surface $-1 65.462202826013979 0 0 -1 0 0 0 0 1 forward_v I I I I #
coedge $-1 $327 $328 $329 $330 reversed $129 $-1 #
coedge $-1 $331 $131 $133 $225 forward $81 $-1 #
coedge $-1 $131 $331 $327 $332 forward $81 $-1 #
coedge $-1 $329 $134 $131 $222 forward $227 $-1 #
edge $-1 $229 -15.463543483884983 $333 1.2508088825394879 $221 $334 forward 7 unknown #
coedge $-1 $335 $336 $132 $224 forward $216 $-1 #
edge $-1 $337 -88.299320021025181 $228 -79.402511728993744 $223 $338 forward 7 unknown #
edge $-1 $229 119.63419399169635 $337 130.92440565202799 $133 $339 forward 7 unknown #
coedge $-1 $134 $329 $335 $340 forward $227 $-1 #
loop $-1 $-1 $329 $215 #
vertex $-1 $224 $341 #
vertex $-1 $135 $342 #
straight-curve $-1 44.013466056730614 22.569910784557731 16.073120250676141 -1 0 0 I I #
coedge $-1 $231 $231 $-1 $343 reversed $138 $-1 #
edge $-1 $344 0 $344 6.2831853071796004 $139 $345 forward 7 unknown #
vertex $-1 $142 $346 #
ellipse-curve $-1 61.986728701886108 10.631087665683104 11.624716104660418 0.78801076186113728 0 0.61566146476048833 0.30783073238024417 0 -0.39400538093056864 1 I I #
coedge $-1 $235 $235 $-1 $347 reversed $145 $-1 #
edge $-1 $348 0 $348 6.2831853071796004 $146 $349 forward 7 unknown #
vertex $-1 $149 $350 #
ellipse-curve $-1 61.986728701886108 17.79438153700788 11.624716104660418 0.78801076186113728 0 0.61566146476048833 0.30783073238024417 0 -0.39400538093056864 1 I I #
face $-1 $-1 $351 $32 $-1 $352 reversed single #
loop $-1 $-1 $156 $150 #
plane-surface $-1 0 0 16.073120250676144 0 0 1 1 0 0 forward_v I I I I #
coedge $-1 $353 $354 $355 $356 reversed $151 $-1 #
coedge $-1 $357 $153 $155 $249 forward $95 $-1 #
coedge $-1 $153 $357 $353 $358 forward $95 $-1 #
coedge $-1 $355 $156 $153 $246 forward $240 $-1 #
edge $-1 $252 -6.5551512632756044 $359 4.912784495522736 $245 $360 forward 7 unknown #
coedge $-1 $361 $362 $154 $248 forward $351 $-1 #
edge $-1 $363 -48.975354123962575 $251 -39.512404359238801 $247 $364 forward 7 unknown #
edge $-1 $252 -15.724016983426978 $363 1.7763522597878294e-014 $155 $365 forward 7 unknown #
coedge $-1 $156 $355 $361 $366 forward $240 $-1 #
vertex $-1 $248 $367 #
vertex $-1 $157 $368 #
straight-curve $-1 -72.127239021077571 -7.3763346471520386 16.073120250676141 1 0 0 I I #
coedge $-1 $254 $254 $-1 $369 reversed $160 $-1 #
edge $-1 $370 0 $370 6.2831853071796004 $161 $371 forward 7 unknown #
vertex $-1 $164 $372 #
ellipse-curve $-1 -59.183323709375912 -1.6423667677528613 11.341645368314252 -0.6018150307709319 0 0.79863550430605224 1.9965887607651305 0 1.5045375769273297 1 I I #
face $-1 $-1 $373 $34 $-1 $374 reversed single #
loop $-1 $-1 $171 $165 #
plane-surface $-1 0 0 16.073120250676144 0 0 1 1 0 0 forward_v I I I I #
coedge $-1 $375 $376 $377 $378 reversed $166 $-1 #
coedge $-1 $379 $168 $170 $268 forward $104 $-1 #
coedge $-1 $168 $379 $375 $380 forward $104 $-1 #
coedge $-1 $377 $171 $168 $265 forward $259 $-1 #
edge $-1 $271 1.4312246110662699 $381 12.89916036986461 $264 $382 forward 7 unknown #
coedge $-1 $383 $384 $169 $267 forward $373 $-1 #
edge $-1 $385 -48.975354123962575 $270 -39.512404359238801 $266 $386 forward 7 unknown #
edge $-1 $271 -15.724016983426978 $385 1.7763522597878294e-014 $170 $387 forward 7 unknown #
coedge $-1 $171 $377 $383 $388 forward $259 $-1 #
vertex $-1 $172 $389 #
vertex $-1 $172 $390 #
straight-curve $-1 -72.127239021077571 8.5964171015317099 16.073120250676141 1 0 0 I I #
coedge $-1 $273 $273 $-1 $391 reversed $175 $-1 #
edge $-1 $392 0 $392 6.2831853071796004 $176 $393 forward 7 unknown #
vertex $-1 $179 $394 #
ellipse-curve $-1 -59.183323709375912 14.330384980930887 11.341645368314252 -0.6018150307709319 0 0.79863550430605224 1.9965887607651305 0 1.5045375769273297 1 I I #
face $-1 $-1 $195 $27 $-1 $395 reversed single #
loop $-1 $-1 $293 $180 #
plane-surface $-1 0 34.877747030138615 0 0 -1 0 0 0 -1 forward_v I I I I #
coedge $-1 $396 $291 $294 $397 forward $181 $-1 #
coedge $-1 $297 $183 $184 $285 reversed $113 $-1 #
coedge $-1 $291 $396 $183 $283 reversed $181 $-1 #
edge $-1 $298 -16.073120250676144 $398 16.073120250676144 $282 $399 forward 7 unknown #
coedge $-1 $185 $184 $396 $400 forward $73 $-1 #
edge $-1 $289 -65.462202826013979 $398 65.462202826013979 $281 $401 forward 7 unknown #
coedge $-1 $294 $293 $185 $287 reversed $278 $-1 #
edge $-1 $402 -65.462202826013979 $288 65.462202826013979 $286 $403 forward 7 unknown #
vertex $-1 $187 $404 #
vertex $-1 $300 $405 #
straight-curve $-1 65.462202826013979 0 -16.073120250676144 0 -1 0 I I #
coedge $-1 $280 $282 $188 $292 reversed $181 $-1 #
edge $-1 $295 -34.877747030138615 $298 34.877747030138615 $291 $406 forward 7 unknown #
coedge $-1 $286 $189 $194 $301 forward $278 $-1 #
coedge $-1 $189 $286 $280 $397 reversed $278 $-1 #
vertex $-1 $190 $407 #
straight-curve $-1 0 34.877747030138615 16.073120250676144 -1 0 0 I I #
coedge $-1 $191 $281 $193 $300 reversed $113 $-1 #
vertex $-1 $292 $408 #
straight-curve $-1 0 -34.877747030138615 16.073120250676144 1 0 0 I I #
edge $-1 $196 -16.073120250676144 $289 16.073120250676144 $193 $409 forward 7 unknown #
edge $-1 $197 -16.073120250676144 $288 16.073120250676144 $194 $410 forward 7 unknown #
point $-1 65.462202826013979 -34.877747030138615 16.073120250676144 #
point $-1 65.462202826013979 34.877747030138615 16.073120250676144 #
face $-1 $-1 $411 $28 $-1 $412 reversed single #
loop $-1 $-1 $209 $199 #
plane-surface $-1 0 -34.877747030138615 0 0 1 0 0 0 1 forward_v I I I I #
coedge $-1 $413 $202 $311 $414 forward $121 $-1 #
coedge $-1 $202 $413 $415 $416 forward $121 $-1 #
edge $-1 $417 -65.462202826013979 $312 65.462202826013979 $202 $418 forward 7 unknown #
coedge $-1 $204 $203 $419 $420 reversed $77 $-1 #
coedge $-1 $205 $211 $307 $414 reversed $200 $-1 #
vertex $-1 $414 $421 #
straight-curve $-1 65.462202826013979 -22.189728816960596 -7.2233878759542902 0 0 1 I I #
coedge $-1 $419 $422 $207 $315 forward $411 $-1 #
edge $-1 $320 -20.61087806836381 $316 -7.9228598551857932 $314 $423 forward 7 unknown #
vertex $-1 $315 $424 #
straight-curve $-1 0 -22.189728816960596 -12.820431253141017 -1 0 0 I I #
coedge $-1 $425 $209 $422 $426 forward $305 $-1 #
coedge $-1 $209 $425 $211 $322 reversed $305 $-1 #
vertex $-1 $426 $427 #
straight-curve $-1 0 -34.877747030138615 -12.820431253141017 -1 0 0 I I #
edge $-1 $213 12.820431253141017 $428 16.073120250676144 $211 $429 forward 7 unknown #
point $-1 65.462202826013979 -22.189728816960596 -12.820431253141017 #
point $-1 65.462202826013979 -34.877747030138615 -12.820431253141017 #
plane-surface $-1 0 0 16.073120250676144 0 0 1 1 0 0 forward_v I I I I #
coedge $-1 $336 $335 $328 $430 forward $216 $-1 #
coedge $-1 $328 $218 $220 $332 reversed $129 $-1 #
coedge $-1 $218 $327 $326 $430 reversed $129 $-1 #
coedge $-1 $226 $221 $218 $330 forward $227 $-1 #
edge $-1 $333 14.497788521027637 $431 21.448736769283364 $329 $432 forward 7 unknown #
coedge $-1 $220 $219 $336 $433 reversed $81 $-1 #
edge $-1 $434 -130.92440565202799 $333 -119.63419399169635 $327 $435 forward 7 unknown #
vertex $-1 $222 $436 #
straight-curve $-1 58.511254577758237 7.1063673006727477 16.073120250676148 0 -1 0 I I #
coedge $-1 $326 $223 $226 $340 reversed $216 $-1 #
coedge $-1 $223 $326 $331 $433 forward $216 $-1 #
vertex $-1 $224 $437 #
straight-curve $-1 65.462202826013979 22.569910784557731 95.475631979669885 0 0 1 I I #
straight-curve $-1 -15.14290853060993 22.569910784557731 110.34615260271586 0.61566146476048833 0 -0.78801076186113728 I I #
edge $-1 $431 5.8555584181332598 $228 22.569910784557731 $335 $438 forward 7 unknown #
point $-1 65.462202826013979 22.569910784557731 16.073120250676144 #
point $-1 58.511254577758251 22.569910784557731 16.073120250676141 #
edge $-1 $439 1 $439 0 $231 $-1 forward 7 unknown #
vertex $-1 $232 $440 #
ellipse-curve $-1 60.851054816185581 10.631087665683104 10.737430445884312 0.78801076186113728 0 0.61566146476048833 0.30783073238024417 0 -0.39400538093056864 1 I I #
point $-1 62.294559434266361 10.631087665683104 11.23071072372986 #
edge $-1 $441 1 $441 0 $235 $-1 forward 7 unknown #
vertex $-1 $236 $442 #
ellipse-curve $-1 60.851054816185581 17.79438153700788 10.737430445884312 0.78801076186113728 0 0.61566146476048833 0.30783073238024417 0 -0.39400538093056864 1 I I #
point $-1 62.294559434266361 17.79438153700788 11.23071072372986 #
loop $-1 $-1 $247 $239 #
plane-surface $-1 -65.462202826013979 0 0 1 0 0 0 0 -1 forward_v I I I I #
coedge $-1 $354 $242 $244 $358 reversed $151 $-1 #
coedge $-1 $242 $353 $443 $444 reversed $151 $-1 #
coedge $-1 $250 $245 $242 $356 forward $240 $-1 #
edge $-1 $359 -19.222794428339739 $445 -6.6650361950635926 $355 $446 forward 7 unknown #
coedge $-1 $244 $243 $362 $447 reversed $95 $-1 #
edge $-1 $448 -1.7763522597878294e-014 $359 15.724016983426978 $353 $449 forward 7 unknown #
vertex $-1 $246 $450 #
straight-curve $-1 -52.904444592737832 -0.82118338387643419 16.073120250676144 0 1 0 I I #
coedge $-1 $443 $247 $250 $366 reversed $351 $-1 #
coedge $-1 $247 $443 $357 $447 forward $351 $-1 #
vertex $-1 $248 $451 #
straight-curve $-1 -65.462202826013979 -7.3763346471520386 55.585524609914941 0 0 1 I I #
straight-curve $-1 -65.462202826013964 -7.3763346471520386 6.6101704859523807 -0.79863550430605224 0 -0.6018150307709319 I I #
edge $-1 $445 -4.0916011116463018 $251 7.3763346471520386 $361 $452 forward 7 unknown #
point $-1 -65.462202826013979 -7.3763346471520386 16.073120250676144 #
point $-1 -52.904444592737832 -7.3763346471520386 16.073120250676144 #
edge $-1 $453 1 $453 0 $254 $-1 forward 7 unknown #
vertex $-1 $255 $454 #
ellipse-curve $-1 -56.283942463150268 -1.6423667677528613 7.494036575977038 -0.6018150307709319 0 0.79863550430605224 1.9965887607651305 0 1.5045375769273297 1 I I #
point $-1 -57.186734948610798 -1.6423667677528613 12.846182945241607 #
loop $-1 $-1 $266 $258 #
plane-surface $-1 -65.462202826013979 0 0 1 0 0 0 0 -1 forward_v I I I I #
coedge $-1 $376 $261 $263 $380 reversed $166 $-1 #
coedge $-1 $261 $375 $455 $456 reversed $166 $-1 #
coedge $-1 $269 $264 $261 $378 forward $259 $-1 #
edge $-1 $381 -19.222794428339739 $457 -6.6650361950635926 $377 $458 forward 7 unknown #
coedge $-1 $263 $262 $384 $459 reversed $104 $-1 #
edge $-1 $460 -1.7763522597878294e-014 $381 15.724016983426978 $375 $461 forward 7 unknown #
vertex $-1 $265 $462 #
straight-curve $-1 -52.904444592737832 7.16519249046544 16.073120250676144 0 1 0 I I #
coedge $-1 $455 $266 $269 $388 reversed $373 $-1 #
coedge $-1 $266 $455 $379 $459 forward $373 $-1 #
vertex $-1 $267 $463 #
straight-curve $-1 -65.462202826013979 8.5964171015317099 55.585524609914941 0 0 1 I I #
straight-curve $-1 -65.462202826013964 8.5964171015317099 6.6101704859523807 -0.79863550430605224 0 -0.6018150307709319 I I #
edge $-1 $457 -20.06435286033005 $270 -8.5964171015317099 $383 $464 forward 7 unknown #
point $-1 -65.462202826013979 8.5964171015317099 16.073120250676144 #
point $-1 -52.904444592737832 8.5964171015317099 16.073120250676144 #
edge $-1 $465 1 $465 0 $273 $-1 forward 7 unknown #
vertex $-1 $274 $466 #
ellipse-curve $-1 -56.283942463150268 14.330384980930887 7.494036575977038 -0.6018150307709319 0 0.79863550430605224 1.9965887607651305 0 1.5045375769273297 1 I I #
point $-1 -57.186734948610798 14.330384980930887 12.846182945241607 #
plane-surface $-1 65.462202826013979 0 0 -1 0 0 0 0 1 forward_v I I I I #
coedge $-1 $282 $280 $284 $400 reversed $181 $-1 #
edge $-1 $295 -16.073120250676144 $402 16.073120250676144 $294 $467 forward 7 unknown #
vertex $-1 $400 $468 #
straight-curve $-1 -65.462202826013979 -34.877747030138615 0 0 0 -1 I I #
edge $-1 $398 -34.877747030138615 $402 34.877747030138615 $396 $469 forward 7 unknown #
straight-curve $-1 0 -34.877747030138615 -16.073120250676144 -1 0 0 I I #
vertex $-1 $287 $470 #
straight-curve $-1 0 34.877747030138615 -16.073120250676144 1 0 0 I I #
point $-1 65.462202826013979 34.877747030138615 -16.073120250676144 #
point $-1 65.462202826013979 -34.877747030138615 -16.073120250676144 #
straight-curve $-1 -65.462202826013979 0 16.073120250676144 0 -1 0 I I #
point $-1 -65.462202826013979 34.877747030138615 16.073120250676144 #
point $-1 -65.462202826013979 -34.877747030138615 16.073120250676144 #
straight-curve $-1 65.462202826013979 -34.877747030138615 0 0 0 -1 I I #
straight-curve $-1 65.462202826013979 34.877747030138615 0 0 0 -1 I I #
loop $-1 $-1 $419 $304 #
plane-surface $-1 -65.462202826013979 0 0 1 0 0 0 0 -1 forward_v I I I I #
coedge $-1 $308 $307 $425 $471 forward $121 $-1 #
edge $-1 $312 22.189728816960596 $428 34.877747030138615 $311 $472 forward 7 unknown #
coedge $-1 $422 $419 $308 $416 reversed $411 $-1 #
edge $-1 $473 -34.877747030138615 $417 -22.189728816960596 $415 $474 forward 7 unknown #
vertex $-1 $420 $475 #
straight-curve $-1 0 -22.189728816960596 -16.073120250676144 1 0 0 I I #
coedge $-1 $415 $314 $310 $420 forward $411 $-1 #
edge $-1 $316 5.5970433771867265 $417 8.849732374721853 $419 $476 forward 7 unknown #
point $-1 65.462202826013979 -22.189728816960596 -16.073120250676144 #
coedge $-1 $314 $415 $318 $426 reversed $411 $-1 #
straight-curve $-1 -65.462202826013979 -14.266868961774803 -12.820431253141017 0 1 0 I I #
point $-1 -65.462202826013979 -22.189728816960596 -12.820431253141017 #
coedge $-1 $319 $318 $413 $471 reversed $305 $-1 #
edge $-1 $320 12.820431253141017 $473 16.073120250676144 $422 $477 forward 7 unknown #
point $-1 -65.462202826013979 -34.877747030138615 -12.820431253141017 #
vertex $-1 $322 $478 #
straight-curve $-1 65.462202826013979 -34.877747030138615 0 0 0 -1 I I #
edge $-1 $431 79.402511728993744 $434 88.299320021025181 $326 $479 forward 7 unknown #
vertex $-1 $340 $480 #
straight-curve $-1 44.013466056730614 5.8555584181332598 16.073120250676141 1 0 0 I I #
edge $-1 $434 -1.2508088825394879 $337 15.463543483884983 $336 $481 forward 7 unknown #
vertex $-1 $433 $482 #
straight-curve $-1 -15.14290853060993 5.8555584181332598 110.34615260271586 -0.61566146476048833 0 0.78801076186113728 I I #
point $-1 58.511254577758251 5.8555584181332598 16.073120250676141 #
point $-1 65.462202826013979 22.569910784557731 7.1763119586447033 #
straight-curve $-1 65.462202826013979 0 16.073120250676144 0 1 0 I I #
vertex $-1 $343 $483 #
point $-1 61.158885548565827 10.631087665683104 10.343425064953745 #
vertex $-1 $347 $484 #
point $-1 61.158885548565827 17.79438153700788 10.343425064953745 #
coedge $-1 $362 $361 $354 $444 forward $351 $-1 #
edge $-1 $445 39.512404359238801 $448 48.975354123962575 $443 $485 forward 7 unknown #
vertex $-1 $366 $486 #
straight-curve $-1 -72.127239021077571 4.0916011116463018 16.073120250676141 -1 0 0 I I #
edge $-1 $448 -4.912784495522736 $363 6.5551512632756044 $362 $487 forward 7 unknown #
vertex $-1 $447 $488 #
straight-curve $-1 -65.462202826013964 4.0916011116463018 6.6101704859523807 0.79863550430605224 0 0.6018150307709319 I I #
point $-1 -52.904444592737832 4.0916011116463018 16.073120250676144 #
point $-1 -65.462202826013979 -7.3763346471520386 6.61017048595237 #
straight-curve $-1 -65.462202826013979 0 16.073120250676144 0 -1 0 I I #
vertex $-1 $369 $489 #
point $-1 -54.287353702385133 -1.6423667677528613 8.9985741529043679 #
coedge $-1 $384 $383 $376 $456 forward $373 $-1 #
edge $-1 $457 39.512404359238801 $460 48.975354123962575 $455 $490 forward 7 unknown #
vertex $-1 $388 $491 #
straight-curve $-1 -72.127239021077571 20.06435286033005 16.073120250676141 -1 0 0 I I #
edge $-1 $460 -12.89916036986461 $385 -1.4312246110662699 $384 $492 forward 7 unknown #
vertex $-1 $459 $493 #
straight-curve $-1 -65.462202826013964 20.06435286033005 6.6101704859523807 0.79863550430605224 0 0.6018150307709319 I I #
point $-1 -52.904444592737832 20.06435286033005 16.073120250676144 #
point $-1 -65.462202826013979 8.5964171015317099 6.61017048595237 #
straight-curve $-1 -65.462202826013979 0 16.073120250676144 0 -1 0 I I #
vertex $-1 $391 $494 #
point $-1 -54.287353702385133 14.330384980930887 8.9985741529043679 #
straight-curve $-1 -65.462202826013979 34.877747030138615 0 0 0 -1 I I #
point $-1 -65.462202826013979 -34.877747030138615 -16.073120250676144 #
straight-curve $-1 -65.462202826013979 0 -16.073120250676144 0 1 0 I I #
point $-1 -65.462202826013979 34.877747030138615 -16.073120250676144 #
edge $-1 $428 -65.462202826013979 $473 65.462202826013979 $425 $495 forward 7 unknown #
straight-curve $-1 65.462202826013979 0 -16.073120250676144 0 -1 0 I I #
vertex $-1 $416 $496 #
straight-curve $-1 -65.462202826013979 0 -16.073120250676144 0 1 0 I I #
point $-1 -65.462202826013979 -22.189728816960596 -16.073120250676144 #
straight-curve $-1 -65.462202826013979 -22.189728816960596 -7.2233878759542902 0 0 -1 I I #
straight-curve $-1 -65.462202826013979 -34.877747030138615 0 0 0 -1 I I #
point $-1 65.462202826013979 -34.877747030138615 -16.073120250676144 #
straight-curve $-1 65.462202826013979 5.8555584181332598 95.475631979669885 0 0 -1 I I #
point $-1 65.462202826013979 5.8555584181332598 16.073120250676144 #
straight-curve $-1 65.462202826013979 7.1063673006727477 7.1763119586446962 0 1 0 I I #
point $-1 65.462202826013979 5.8555584181332598 7.1763119586447033 #
point $-1 60.457049435255016 10.631087665683104 10.42959971350407 #
point $-1 60.457049435255016 17.79438153700788 10.42959971350407 #
straight-curve $-1 -65.462202826013979 4.0916011116463018 55.585524609914941 0 0 -1 I I #
point $-1 -65.462202826013979 4.0916011116463018 16.073120250676144 #
straight-curve $-1 -65.462202826013979 -0.82118338387643419 6.6101704859523638 0 -1 0 I I #
point $-1 -65.462202826013979 4.0916011116463018 6.61017048595237 #
point $-1 -54.779404886222935 -1.6423667677528613 5.4974478152119097 #
straight-curve $-1 -65.462202826013979 20.06435286033005 55.585524609914941 0 0 -1 I I #
point $-1 -65.462202826013979 20.06435286033005 16.073120250676144 #
straight-curve $-1 -65.462202826013979 7.16519249046544 6.6101704859523638 0 -1 0 I I #
point $-1 -65.462202826013979 20.06435286033005 6.61017048595237 #
point $-1 -54.779404886222935 14.330384980930887 5.4974478152119097 #
straight-curve $-1 0 -34.877747030138615 -16.073120250676144 -1 0 0 I I #
point $-1 -65.462202826013979 -34.877747030138615 -16.073120250676144 #
End-of-ACIS-data 