500 0 4 0           
7 Unknown 11 ACIS 5.0 NT 24 Fri Mar 26 02:56:01 1999 
-1 9.9999999999999995e-007 1e-010 
body $-1 $4 $-1 $5 #
body $-1 $6 $-1 $7 #
body $-1 $8 $-1 $9 #
body $-1 $10 $-1 $11 #
lump $-1 $-1 $12 $0 #
transform $-1 1 0 0 0 1 0 0 0 1 77.86736655781732 49.506744202674668 21.150848804213474 1 rotate no_reflect no_shear #
lump $-1 $-1 $13 $1 #
transform $-1 1 0 0 0 1 0 0 0 1 77.86736655781732 49.506744202674668 21.150848804213474 1 rotate no_reflect no_shear #
lump $-1 $-1 $14 $2 #
transform $-1 1 0 0 0 1 0 0 0 1 77.86736655781732 49.506744202674668 21.150848804213474 1 rotate no_reflect no_shear #
lump $-1 $-1 $15 $3 #
transform $-1 1 0 0 0 1 0 0 0 1 77.86736655781732 49.506744202674668 21.150848804213474 1 rotate no_reflect no_shear #
shell $-1 $-1 $-1 $16 $-1 $4 #
shell $-1 $-1 $-1 $17 $-1 $6 #
shell $-1 $-1 $-1 $18 $-1 $8 #
shell $-1 $-1 $-1 $19 $-1 $10 #
face $-1 $20 $21 $12 $-1 $22 forward single #
face $-1 $23 $24 $13 $-1 $25 forward single #
face $-1 $26 $27 $14 $-1 $28 reversed single #
face $-1 $29 $30 $15 $-1 $31 forward single #
face $-1 $32 $33 $12 $-1 $34 reversed single #
loop $-1 $-1 $35 $16 #
plane-surface $-1 0 0 21.150848804213474 0 0 1 1 0 0 forward_v I I I I #
face $-1 $36 $37 $13 $-1 $38 reversed single #
loop $-1 $-1 $39 $17 #
plane-surface $-1 -64.649728833290126 0 -9.1401720959399029 0 0 1 1 0 0 forward_v I I I I #
face $-1 $40 $41 $14 $-1 $42 reversed single #
loop $-1 $-1 $43 $18 #
plane-surface $-1 35.843180930549977 -7.6603461881633006 229.77878858424722 0 -1 0 -0.55919291073839883 0 -0.82903756765294845 forward_v I I I I #
face $-1 $44 $45 $15 $-1 $46 forward single #
loop $-1 $47 $48 $19 #
cone-surface $-1 71.147490761015817 -14.549167264004708 15.721264215823993 -0.55919291073839883 0 -0.82903756765294845 0.82903756765294845 0 -0.55919291073839883 1 I I 0 1 1 forward I I I I #
face $-1 $49 $50 $12 $-1 $51 reversed single #
loop $-1 $-1 $52 $20 #
plane-surface $-1 0 0 -21.150848804213474 0 0 1 1 0 0 forward_v I I I I #
coedge $-1 $53 $54 $55 $56 forward $21 $-1 #
face $-1 $57 $58 $13 $-1 $59 reversed single #
loop $-1 $-1 $60 $23 #
plane-surface $-1 -51.432091108762933 0 -15.145510450076689 -1 0 0 0 0 1 forward_v I I I I #
coedge $-1 $61 $62 $63 $64 forward $24 $-1 #
face $-1 $65 $66 $14 $-1 $67 reversed single #
loop $-1 $-1 $68 $26 #
plane-surface $-1 -51.242577783449462 -14.549167264004701 100.66884424298041 0.55919291073839883 0 0.82903756765294845 0.82903756765294845 0 -0.55919291073839883 forward_v I I I I #
coedge $-1 $69 $70 $71 $72 reversed $27 $-1 #
face $-1 $-1 $73 $15 $-1 $74 forward single #
loop $-1 $75 $76 $29 #
cone-surface $-1 69.757853628166856 -14.549167264004708 13.6610424812243 -0.55919291073839883 0 -0.82903756765294845 0.41451878382647422 0 -0.27959645536919941 1 I I -0.70710678118654746 0.70710678118654746 0.5 forward I I I I #
loop $-1 $-1 $77 $19 #
coedge $-1 $48 $48 $78 $79 reversed $30 $-1 #
face $-1 $80 $81 $12 $-1 $82 reversed single #
loop $-1 $-1 $83 $32 #
plane-surface $-1 0 -49.506744202674668 0 0 1 0 0 0 1 forward_v I I I I #
coedge $-1 $84 $85 $86 $87 forward $33 $-1 #
coedge $-1 $88 $35 $89 $90 forward $21 $-1 #
coedge $-1 $35 $88 $91 $92 forward $21 $-1 #
coedge $-1 $93 $94 $35 $56 reversed $95 $-1 #
edge $-1 $96 -49.506744202674668 $97 49.506744202674668 $55 $98 forward 7 unknown #
face $-1 $99 $100 $13 $-1 $101 reversed single #
loop $-1 $-1 $102 $36 #
plane-surface $-1 0 0 -21.150848804213474 0 0 1 1 0 0 forward_v I I I I #
coedge $-1 $103 $63 $104 $105 reversed $37 $-1 #
coedge $-1 $106 $39 $107 $108 reversed $24 $-1 #
coedge $-1 $39 $106 $109 $110 reversed $24 $-1 #
coedge $-1 $60 $111 $39 $64 reversed $37 $-1 #
edge $-1 $112 -49.506744202674668 $113 49.506744202674668 $63 $114 forward 7 unknown #
face $-1 $115 $116 $14 $-1 $117 forward single #
loop $-1 $-1 $118 $40 #
plane-surface $-1 35.843180930549977 -21.4379883398461 229.77878858424722 0 1 0 0.55919291073839883 0 0.82903756765294845 forward_v I I I I #
coedge $-1 $119 $120 $121 $122 reversed $41 $-1 #
coedge $-1 $70 $43 $123 $124 reversed $27 $-1 #
coedge $-1 $43 $69 $119 $125 reversed $27 $-1 #
coedge $-1 $121 $126 $43 $72 forward $116 $-1 #
edge $-1 $127 -59.945776092542332 $128 -48.726105853898844 $71 $129 forward 7 unknown #
loop $-1 $-1 $78 $44 #
plane-surface $-1 -51.242577783449462 -14.549167264004701 100.66884424298041 0.55919291073839883 0 0.82903756765294845 0.82903756765294845 0 -0.55919291073839883 forward_v I I I I #
loop $-1 $-1 $130 $29 #
coedge $-1 $76 $76 $77 $131 reversed $45 $-1 #
coedge $-1 $77 $77 $76 $131 forward $47 $-1 #
coedge $-1 $78 $78 $48 $79 forward $73 $-1 #
edge $-1 $132 0 $132 6.2831853071796004 $78 $133 forward 7 unknown #
face $-1 $134 $135 $12 $-1 $136 reversed single #
loop $-1 $-1 $137 $49 #
plane-surface $-1 -77.86736655781732 0 0 1 0 0 0 0 -1 forward_v I I I I #
coedge $-1 $138 $91 $139 $140 forward $50 $-1 #
coedge $-1 $141 $52 $138 $142 forward $33 $-1 #
coedge $-1 $52 $141 $143 $144 forward $33 $-1 #
coedge $-1 $94 $93 $52 $87 reversed $95 $-1 #
edge $-1 $145 -49.506744202674668 $146 49.506744202674668 $86 $147 forward 7 unknown #
coedge $-1 $54 $53 $148 $149 forward $21 $-1 #
coedge $-1 $150 $151 $53 $90 reversed $135 $-1 #
edge $-1 $97 -77.86736655781732 $152 77.86736655781732 $89 $153 forward 7 unknown #
coedge $-1 $83 $154 $54 $92 reversed $50 $-1 #
edge $-1 $155 -77.86736655781732 $96 77.86736655781732 $91 $156 forward 7 unknown #
coedge $-1 $86 $55 $154 $157 forward $95 $-1 #
coedge $-1 $55 $86 $150 $158 reversed $95 $-1 #
loop $-1 $-1 $93 $134 #
vertex $-1 $56 $159 #
vertex $-1 $56 $160 #
straight-curve $-1 77.86736655781732 0 21.150848804213474 0 1 0 I I #
face $-1 $161 $162 $13 $-1 $163 reversed single #
loop $-1 $-1 $104 $57 #
plane-surface $-1 0 -49.506744202674668 0 0 1 0 0 0 1 forward_v I I I I #
coedge $-1 $164 $165 $103 $166 forward $58 $-1 #
coedge $-1 $111 $60 $102 $166 reversed $37 $-1 #
coedge $-1 $109 $167 $60 $105 forward $100 $-1 #
edge $-1 $168 -13.57809357917513 $112 -1.5674168709015586 $104 $169 forward 7 unknown #
coedge $-1 $62 $61 $170 $171 reversed $24 $-1 #
coedge $-1 $172 $173 $61 $108 forward $174 $-1 #
edge $-1 $175 -45.542502141172257 $113 -19.10722669211787 $107 $176 forward 7 unknown #
coedge $-1 $177 $104 $62 $110 forward $100 $-1 #
edge $-1 $112 19.10722669211787 $178 45.542502141172257 $109 $179 forward 7 unknown #
coedge $-1 $63 $103 $172 $180 reversed $37 $-1 #
vertex $-1 $110 $181 #
vertex $-1 $108 $182 #
straight-curve $-1 -51.432091108762933 0 -9.1401720959399029 0 1 0 I I #
face $-1 $-1 $183 $14 $-1 $184 reversed single #
loop $-1 $-1 $71 $65 #
plane-surface $-1 0 0 21.150848804213474 0 0 1 1 0 0 forward_v I I I I #
coedge $-1 $185 $186 $187 $188 reversed $66 $-1 #
coedge $-1 $189 $68 $70 $125 forward $41 $-1 #
coedge $-1 $68 $189 $185 $190 forward $41 $-1 #
coedge $-1 $187 $71 $68 $122 forward $116 $-1 #
edge $-1 $128 0.3857625561609499 $191 14.16340470784375 $121 $192 forward 7 unknown #
coedge $-1 $193 $194 $69 $124 forward $183 $-1 #
edge $-1 $195 -101.30630876314261 $127 -93.73854548791013 $123 $196 forward 7 unknown #
edge $-1 $128 142.20136541746501 $195 155.73473311563458 $70 $197 forward 7 unknown #
coedge $-1 $71 $187 $193 $198 forward $116 $-1 #
vertex $-1 $124 $199 #
vertex $-1 $72 $200 #
straight-curve $-1 17.921590465274988 -7.6603461881633006 21.150848804213481 -1 0 0 I I #
coedge $-1 $130 $130 $-1 $201 reversed $75 $-1 #
edge $-1 $202 0 $202 6.2831853071796004 $76 $203 forward 7 unknown #
vertex $-1 $79 $204 #
ellipse-curve $-1 72.257531438495576 -14.549167264004708 17.366967166597224 0.55919291073839883 0 0.82903756765294845 0.82903756765294845 0 -0.55919291073839883 1 I I #
face $-1 $-1 $95 $12 $-1 $205 reversed single #
loop $-1 $-1 $150 $80 #
plane-surface $-1 0 49.506744202674668 0 0 -1 0 0 0 -1 forward_v I I I I #
coedge $-1 $206 $148 $151 $207 forward $81 $-1 #
coedge $-1 $154 $83 $84 $142 reversed $50 $-1 #
coedge $-1 $148 $206 $83 $140 reversed $81 $-1 #
edge $-1 $155 -21.150848804213474 $208 21.150848804213474 $139 $209 forward 7 unknown #
coedge $-1 $85 $84 $206 $210 forward $33 $-1 #
edge $-1 $146 -77.86736655781732 $208 77.86736655781732 $138 $211 forward 7 unknown #
coedge $-1 $151 $150 $85 $144 reversed $135 $-1 #
edge $-1 $212 -77.86736655781732 $145 77.86736655781732 $143 $213 forward 7 unknown #
vertex $-1 $87 $214 #
vertex $-1 $157 $215 #
straight-curve $-1 77.86736655781732 0 -21.150848804213474 0 -1 0 I I #
coedge $-1 $137 $139 $88 $149 reversed $81 $-1 #
edge $-1 $152 -49.506744202674668 $155 49.506744202674668 $148 $216 forward 7 unknown #
coedge $-1 $143 $89 $94 $158 forward $135 $-1 #
coedge $-1 $89 $143 $137 $207 reversed $135 $-1 #
vertex $-1 $90 $217 #
straight-curve $-1 0 49.506744202674668 21.150848804213474 -1 0 0 I I #
coedge $-1 $91 $138 $93 $157 reversed $50 $-1 #
vertex $-1 $149 $218 #
straight-curve $-1 0 -49.506744202674668 21.150848804213474 1 0 0 I I #
edge $-1 $96 -21.150848804213474 $146 21.150848804213474 $93 $219 forward 7 unknown #
edge $-1 $97 -21.150848804213474 $145 21.150848804213474 $94 $220 forward 7 unknown #
point $-1 77.86736655781732 -49.506744202674668 21.150848804213474 #
point $-1 77.86736655781732 49.506744202674668 21.150848804213474 #
face $-1 $-1 $174 $13 $-1 $221 reversed single #
loop $-1 $-1 $170 $99 #
plane-surface $-1 -77.86736655781732 0 0 1 0 0 0 0 -1 forward_v I I I I #
coedge $-1 $222 $102 $167 $223 forward $58 $-1 #
coedge $-1 $102 $222 $224 $225 forward $58 $-1 #
edge $-1 $226 -49.506744202674668 $168 49.506744202674668 $102 $227 forward 7 unknown #
coedge $-1 $104 $177 $164 $223 reversed $100 $-1 #
vertex $-1 $223 $228 #
straight-curve $-1 -51.432091108762933 -49.506744202674668 -7.5727552250383443 0 0 1 I I #
coedge $-1 $229 $230 $106 $171 forward $162 $-1 #
edge $-1 $178 -49.506744202674668 $175 49.506744202674668 $170 $231 forward 7 unknown #
coedge $-1 $224 $107 $111 $180 forward $174 $-1 #
coedge $-1 $107 $224 $229 $232 reversed $174 $-1 #
loop $-1 $-1 $172 $161 #
vertex $-1 $232 $233 #
straight-curve $-1 -32.324864416645063 49.506744202674668 -9.1401720959399029 1 0 0 I I #
coedge $-1 $167 $109 $230 $234 forward $100 $-1 #
vertex $-1 $234 $235 #
straight-curve $-1 -32.324864416645063 -49.506744202674668 -9.1401720959399029 -1 0 0 I I #
edge $-1 $113 1.5674168709015586 $226 13.57809357917513 $172 $236 forward 7 unknown #
point $-1 -51.432091108762933 -49.506744202674668 -9.1401720959399029 #
point $-1 -51.432091108762933 49.506744202674668 -9.1401720959399029 #
loop $-1 $-1 $123 $115 #
plane-surface $-1 77.86736655781732 0 0 -1 0 0 0 0 1 forward_v I I I I #
coedge $-1 $186 $118 $120 $190 reversed $66 $-1 #
coedge $-1 $118 $185 $237 $238 reversed $66 $-1 #
coedge $-1 $126 $121 $118 $188 forward $116 $-1 #
edge $-1 $191 48.726105853898844 $239 59.945776092542332 $187 $240 forward 7 unknown #
coedge $-1 $120 $119 $194 $241 reversed $41 $-1 #
edge $-1 $242 -155.73473311563458 $191 -142.20136541746501 $185 $243 forward 7 unknown #
vertex $-1 $122 $244 #
straight-curve $-1 66.647696319173818 -7.2745836320023507 21.150848804213474 0 -1 0 I I #
coedge $-1 $237 $123 $126 $198 reversed $183 $-1 #
coedge $-1 $123 $237 $189 $241 forward $183 $-1 #
vertex $-1 $124 $245 #
straight-curve $-1 77.86736655781732 -7.6603461881633006 114.88939429212361 0 0 1 I I #
straight-curve $-1 -51.242577783449462 -7.6603461881633006 100.66884424298041 0.82903756765294845 0 -0.55919291073839883 I I #
edge $-1 $239 -21.4379883398461 $127 -7.6603461881633006 $193 $246 forward 7 unknown #
point $-1 77.86736655781732 -7.6603461881633006 21.150848804213474 #
point $-1 66.647696319173832 -7.6603461881633006 21.150848804213467 #
edge $-1 $247 1 $247 0 $130 $-1 forward 7 unknown #
vertex $-1 $131 $248 #
ellipse-curve $-1 70.037450083536058 -14.549167264004708 14.075561265050775 0.55919291073839883 0 0.82903756765294845 0.82903756765294845 0 -0.55919291073839883 1 I I #
point $-1 73.086569006148522 -14.549167264004708 16.80777425585881 #
plane-surface $-1 77.86736655781732 0 0 -1 0 0 0 0 1 forward_v I I I I #
coedge $-1 $139 $137 $141 $210 reversed $81 $-1 #
edge $-1 $152 -21.150848804213474 $212 21.150848804213474 $151 $249 forward 7 unknown #
vertex $-1 $210 $250 #
straight-curve $-1 -77.86736655781732 -49.506744202674668 0 0 0 -1 I I #
edge $-1 $208 -49.506744202674668 $212 49.506744202674668 $206 $251 forward 7 unknown #
straight-curve $-1 0 -49.506744202674668 -21.150848804213474 -1 0 0 I I #
vertex $-1 $144 $252 #
straight-curve $-1 0 49.506744202674668 -21.150848804213474 1 0 0 I I #
point $-1 77.86736655781732 49.506744202674668 -21.150848804213474 #
point $-1 77.86736655781732 -49.506744202674668 -21.150848804213474 #
straight-curve $-1 -77.86736655781732 0 21.150848804213474 0 -1 0 I I #
point $-1 -77.86736655781732 49.506744202674668 21.150848804213474 #
point $-1 -77.86736655781732 -49.506744202674668 21.150848804213474 #
straight-curve $-1 77.86736655781732 -49.506744202674668 0 0 0 -1 I I #
straight-curve $-1 77.86736655781732 49.506744202674668 0 0 0 -1 I I #
plane-surface $-1 0 49.506744202674668 0 0 -1 0 0 0 -1 forward_v I I I I #
coedge $-1 $165 $164 $253 $254 forward $58 $-1 #
edge $-1 $168 51.432091108762933 $255 77.86736655781732 $167 $256 forward 7 unknown #
coedge $-1 $173 $172 $165 $225 reversed $174 $-1 #
edge $-1 $257 -77.86736655781732 $226 -51.432091108762933 $224 $258 forward 7 unknown #
vertex $-1 $180 $259 #
straight-curve $-1 -51.432091108762933 0 -21.150848804213474 0 -1 0 I I #
point $-1 -51.432091108762933 -49.506744202674668 -21.150848804213474 #
coedge $-1 $253 $170 $173 $232 forward $162 $-1 #
coedge $-1 $170 $253 $177 $234 reversed $162 $-1 #
straight-curve $-1 -77.86736655781732 0 -9.1401720959399029 0 1 0 I I #
edge $-1 $175 9.1401720959399029 $257 21.150848804213474 $173 $260 forward 7 unknown #
point $-1 -77.86736655781732 49.506744202674668 -9.1401720959399029 #
edge $-1 $178 9.1401720959399029 $255 21.150848804213474 $230 $261 forward 7 unknown #
point $-1 -77.86736655781732 -49.506744202674668 -9.1401720959399029 #
straight-curve $-1 -51.432091108762933 49.506744202674668 -7.5727552250383443 0 0 -1 I I #
coedge $-1 $194 $193 $186 $238 forward $183 $-1 #
edge $-1 $239 93.73854548791013 $242 101.30630876314261 $237 $262 forward 7 unknown #
vertex $-1 $198 $263 #
straight-curve $-1 17.921590465274988 -21.4379883398461 21.150848804213481 1 0 0 I I #
edge $-1 $242 -14.16340470784375 $195 -0.3857625561609499 $194 $264 forward 7 unknown #
vertex $-1 $241 $265 #
straight-curve $-1 -51.242577783449462 -21.4379883398461 100.66884424298041 -0.82903756765294845 0 0.55919291073839883 I I #
point $-1 66.647696319173832 -21.4379883398461 21.150848804213467 #
point $-1 77.86736655781732 -7.6603461881633006 13.583085528981002 #
straight-curve $-1 77.86736655781732 0 21.150848804213474 0 1 0 I I #
vertex $-1 $201 $266 #
point $-1 70.866487651189004 -14.549167264004708 13.516368354312375 #
straight-curve $-1 -77.86736655781732 49.506744202674668 0 0 0 -1 I I #
point $-1 -77.86736655781732 -49.506744202674668 -21.150848804213474 #
straight-curve $-1 -77.86736655781732 0 -21.150848804213474 0 1 0 I I #
point $-1 -77.86736655781732 49.506744202674668 -21.150848804213474 #
coedge $-1 $230 $229 $222 $254 reversed $162 $-1 #
edge $-1 $255 -49.506744202674668 $257 49.506744202674668 $253 $267 forward 7 unknown #
vertex $-1 $254 $268 #
straight-curve $-1 0 -49.506744202674668 -21.150848804213474 -1 0 0 I I #
vertex $-1 $225 $269 #
straight-curve $-1 0 49.506744202674668 -21.150848804213474 1 0 0 I I #
point $-1 -51.432091108762933 49.506744202674668 -21.150848804213474 #
straight-curve $-1 -77.86736655781732 49.506744202674668 0 0 0 -1 I I #
straight-curve $-1 -77.86736655781732 -49.506744202674668 0 0 0 -1 I I #
straight-curve $-1 77.86736655781732 -21.4379883398461 114.88939429212361 0 0 -1 I I #
point $-1 77.86736655781732 -21.4379883398461 21.150848804213474 #
straight-curve $-1 77.86736655781732 -7.2745836320023507 13.583085528980988 0 1 0 I I #
point $-1 77.86736655781732 -21.4379883398461 13.583085528981002 #
point $-1 69.478257172797655 -14.549167264004708 13.246523697397825 #
straight-curve $-1 -77.86736655781732 0 -21.150848804213474 0 1 0 I I #
point $-1 -77.86736655781732 -49.506744202674668 -21.150848804213474 #
point $-1 -77.86736655781732 49.506744202674668 -21.150848804213474 #
End-of-ACIS-data 