500 0 18 0           
7 Unknown 11 ACIS 5.0 NT 24 Thu Mar 25 22:45:23 1999 
-1 9.9999999999999995e-007 1e-010 
body $-1 $18 $-1 $19 #
body $-1 $20 $-1 $21 #
body $-1 $22 $-1 $23 #
body $-1 $24 $-1 $25 #
body $-1 $26 $-1 $27 #
body $-1 $28 $-1 $29 #
body $-1 $30 $-1 $31 #
body $-1 $32 $-1 $33 #
body $-1 $34 $-1 $35 #
body $-1 $36 $-1 $37 #
body $-1 $38 $-1 $39 #
body $-1 $40 $-1 $41 #
body $-1 $42 $-1 $43 #
body $-1 $44 $-1 $45 #
body $-1 $46 $-1 $47 #
body $-1 $48 $-1 $49 #
body $-1 $50 $-1 $51 #
body $-1 $52 $-1 $53 #
lump $-1 $-1 $54 $0 #
transform $-1 1 0 0 0 1 0 0 0 1 60.123905148472545 32.893924839202626 14.889352208702945 1 rotate no_reflect no_shear #
lump $-1 $-1 $55 $1 #
transform $-1 1 0 0 0 1 0 0 0 1 5.812899980535966 32.893924839202626 26.961828192027603 1 rotate no_reflect no_shear #
lump $-1 $-1 $56 $2 #
transform $-1 1 0 0 0 1 0 0 0 1 114.43491031640912 32.893924839202626 26.961828192027603 1 rotate no_reflect no_shear #
lump $-1 $-1 $57 $3 #
transform $-1 1 0 0 0 0.62932038083071107 -0.77714596973225614 0 0.77714596973225614 0.62932038083071107 26.657872402108421 117.83631620615745 146.07005508186 1 rotate no_reflect no_shear #
lump $-1 $-1 $58 $4 #
transform $-1 1 0 0 0 -0.62932038083071107 0.77714596973225614 0 -0.77714596973225614 -0.62932038083071107 23.770856651173734 59.884097704918858 23.188940291900074 1 rotate no_reflect no_shear #
lump $-1 $-1 $59 $5 #
transform $-1 1 0 0 0 -0.62932038083071107 0.77714596973225614 0 -0.77714596973225614 -0.62932038083071107 29.544888153043107 59.884097704918858 23.188940291900074 1 rotate no_reflect no_shear #
lump $-1 $-1 $60 $6 #
transform $-1 1 0 0 0 0.62932038083071107 -0.77714596973225614 0 0.77714596973225614 0.62932038083071107 50.906924995808723 117.83631620615745 146.07005508186 1 rotate no_reflect no_shear #
lump $-1 $-1 $61 $7 #
transform $-1 1 0 0 0 -0.62932038083071107 0.77714596973225614 0 -0.77714596973225614 -0.62932038083071107 48.019909244874043 59.884097704918858 23.188940291900074 1 rotate no_reflect no_shear #
lump $-1 $-1 $62 $8 #
transform $-1 1 0 0 0 -0.62932038083071107 0.77714596973225614 0 -0.77714596973225614 -0.62932038083071107 53.793940746743417 59.884097704918858 23.188940291900074 1 rotate no_reflect no_shear #
lump $-1 $-1 $63 $9 #
transform $-1 1 0 0 0 0.62932038083071107 -0.77714596973225614 0 0.77714596973225614 0.62932038083071107 75.155977589509035 117.83631620615745 146.07005508186 1 rotate no_reflect no_shear #
lump $-1 $-1 $64 $10 #
transform $-1 1 0 0 0 -0.62932038083071107 0.77714596973225614 0 -0.77714596973225614 -0.62932038083071107 72.268961838574342 59.884097704918858 23.188940291900074 1 rotate no_reflect no_shear #
lump $-1 $-1 $65 $11 #
transform $-1 1 0 0 0 -0.62932038083071107 0.77714596973225614 0 -0.77714596973225614 -0.62932038083071107 78.042993340443729 59.884097704918858 23.188940291900074 1 rotate no_reflect no_shear #
lump $-1 $-1 $66 $12 #
transform $-1 1 0 0 0 0.62932038083071107 -0.77714596973225614 0 0.77714596973225614 0.62932038083071107 99.405030183209334 117.83631620615745 146.07005508186 1 rotate no_reflect no_shear #
lump $-1 $-1 $67 $13 #
transform $-1 1 0 0 0 -0.62932038083071107 0.77714596973225614 0 -0.77714596973225614 -0.62932038083071107 96.51801443227464 59.884097704918858 23.188940291900074 1 rotate no_reflect no_shear #
lump $-1 $-1 $68 $14 #
transform $-1 1 0 0 0 -0.62932038083071107 0.77714596973225614 0 -0.77714596973225614 -0.62932038083071107 102.29204593414403 59.884097704918858 23.188940291900074 1 rotate no_reflect no_shear #
lump $-1 $-1 $69 $15 #
transform $-1 1 0 0 0 0.68199835119979291 0.73135370988377701 0 -0.73135370988377701 0.68199835119979291 23.703185395157149 -87.94368216607144 103.60426754988841 1 rotate no_reflect no_shear #
lump $-1 $-1 $70 $16 #
transform $-1 1 0 0 0 -0.68199835119979291 -0.73135370988377701 0 0.73135370988377701 -0.68199835119979291 18.527163066263483 8.5692039754216669 21.254180979583332 1 rotate no_reflect no_shear #
lump $-1 $-1 $71 $17 #
transform $-1 1 0 0 0 -0.68199835119979291 -0.73135370988377701 0 0.73135370988377701 -0.68199835119979291 28.879207724050811 8.5692039754216669 21.254180979583332 1 rotate no_reflect no_shear #
shell $-1 $-1 $-1 $72 $-1 $18 #
shell $-1 $-1 $-1 $73 $-1 $20 #
shell $-1 $-1 $-1 $74 $-1 $22 #
shell $-1 $-1 $-1 $75 $-1 $24 #
shell $-1 $-1 $-1 $76 $-1 $26 #
shell $-1 $-1 $-1 $77 $-1 $28 #
shell $-1 $-1 $-1 $78 $-1 $30 #
shell $-1 $-1 $-1 $79 $-1 $32 #
shell $-1 $-1 $-1 $80 $-1 $34 #
shell $-1 $-1 $-1 $81 $-1 $36 #
shell $-1 $-1 $-1 $82 $-1 $38 #
shell $-1 $-1 $-1 $83 $-1 $40 #
shell $-1 $-1 $-1 $84 $-1 $42 #
shell $-1 $-1 $-1 $85 $-1 $44 #
shell $-1 $-1 $-1 $86 $-1 $46 #
shell $-1 $-1 $-1 $87 $-1 $48 #
shell $-1 $-1 $-1 $88 $-1 $50 #
shell $-1 $-1 $-1 $89 $-1 $52 #
face $-1 $90 $91 $54 $-1 $92 forward single #
face $-1 $93 $94 $55 $-1 $95 forward single #
face $-1 $96 $97 $56 $-1 $98 forward single #
face $-1 $99 $100 $57 $-1 $101 forward single #
face $-1 $102 $103 $58 $-1 $104 forward single #
face $-1 $105 $106 $59 $-1 $107 forward single #
face $-1 $108 $109 $60 $-1 $110 forward single #
face $-1 $111 $112 $61 $-1 $113 forward single #
face $-1 $114 $115 $62 $-1 $116 forward single #
face $-1 $117 $118 $63 $-1 $119 forward single #
face $-1 $120 $121 $64 $-1 $122 forward single #
face $-1 $123 $124 $65 $-1 $125 forward single #
face $-1 $126 $127 $66 $-1 $128 forward single #
face $-1 $129 $130 $67 $-1 $131 forward single #
face $-1 $132 $133 $68 $-1 $134 forward single #
face $-1 $135 $136 $69 $-1 $137 forward single #
face $-1 $138 $139 $70 $-1 $140 forward single #
face $-1 $141 $142 $71 $-1 $143 forward single #
face $-1 $144 $145 $54 $-1 $146 reversed single #
loop $-1 $-1 $147 $72 #
plane-surface $-1 0 0 14.889352208702945 0 0 1 1 0 0 forward_v I I I I #
face $-1 $148 $149 $55 $-1 $150 reversed single #
loop $-1 $-1 $151 $73 #
plane-surface $-1 0 0 2.8168762253782891 0 0 1 1 0 0 forward_v I I I I #
face $-1 $152 $153 $56 $-1 $154 reversed single #
loop $-1 $-1 $155 $74 #
plane-surface $-1 0 0 2.8168762253782891 0 0 1 1 0 0 forward_v I I I I #
face $-1 $156 $157 $57 $-1 $158 reversed single #
loop $-1 $-1 $159 $75 #
plane-surface $-1 0 0 120.24781029694509 0 0 1 1 0 0 forward_v I I I I #
face $-1 $160 $161 $58 $-1 $162 forward single #
loop $-1 $163 $164 $76 #
cone-surface $-1 0 0 -1.3105563524277493 0 0 1 1 0 0 1 I I 0 1 1 forward I I I I #
face $-1 $165 $166 $59 $-1 $167 forward single #
loop $-1 $168 $169 $77 #
cone-surface $-1 0 0 -1.3105563524277493 0 0 1 1 0 0 1 I I 0 1 1 forward I I I I #
face $-1 $170 $171 $60 $-1 $172 reversed single #
loop $-1 $-1 $173 $78 #
plane-surface $-1 0 0 120.24781029694509 0 0 1 1 0 0 forward_v I I I I #
face $-1 $174 $175 $61 $-1 $176 forward single #
loop $-1 $177 $178 $79 #
cone-surface $-1 0 0 -1.3105563524277493 0 0 1 1 0 0 1 I I 0 1 1 forward I I I I #
face $-1 $179 $180 $62 $-1 $181 forward single #
loop $-1 $182 $183 $80 #
cone-surface $-1 0 0 -1.3105563524277493 0 0 1 1 0 0 1 I I 0 1 1 forward I I I I #
face $-1 $184 $185 $63 $-1 $186 reversed single #
loop $-1 $-1 $187 $81 #
plane-surface $-1 0 0 120.24781029694509 0 0 1 1 0 0 forward_v I I I I #
face $-1 $188 $189 $64 $-1 $190 forward single #
loop $-1 $191 $192 $82 #
cone-surface $-1 0 0 -1.3105563524277493 0 0 1 1 0 0 1 I I 0 1 1 forward I I I I #
face $-1 $193 $194 $65 $-1 $195 forward single #
loop $-1 $196 $197 $83 #
cone-surface $-1 0 0 -1.3105563524277493 0 0 1 1 0 0 1 I I 0 1 1 forward I I I I #
face $-1 $198 $199 $66 $-1 $200 reversed single #
loop $-1 $-1 $201 $84 #
plane-surface $-1 0 0 120.24781029694509 0 0 1 1 0 0 forward_v I I I I #
face $-1 $202 $203 $67 $-1 $204 forward single #
loop $-1 $205 $206 $85 #
cone-surface $-1 0 0 -1.3105563524277493 0 0 1 1 0 0 1 I I 0 1 1 forward I I I I #
face $-1 $207 $208 $68 $-1 $209 forward single #
loop $-1 $210 $211 $86 #
cone-surface $-1 0 0 -1.3105563524277493 0 0 1 1 0 0 1 I I 0 1 1 forward I I I I #
face $-1 $212 $213 $69 $-1 $214 reversed single #
loop $-1 $-1 $215 $87 #
plane-surface $-1 0 0 120.24781029694509 0 0 1 1 0 0 forward_v I I I I #
face $-1 $216 $217 $70 $-1 $218 forward single #
loop $-1 $219 $220 $88 #
cone-surface $-1 0 0 -3.8749351481673635 0 0 1 2.5 0 0 1 I I 0 1 2.5 forward I I I I #
face $-1 $221 $222 $71 $-1 $223 forward single #
loop $-1 $224 $225 $89 #
cone-surface $-1 0 0 -3.8749351481673635 0 0 1 2.5 0 0 1 I I 0 1 2.5 forward I I I I #
face $-1 $226 $227 $54 $-1 $228 reversed single #
loop $-1 $-1 $229 $90 #
plane-surface $-1 0 0 -14.889352208702945 0 0 1 1 0 0 forward_v I I I I #
coedge $-1 $230 $231 $232 $233 forward $91 $-1 #
face $-1 $234 $235 $55 $-1 $236 reversed single #
loop $-1 $-1 $237 $93 #
plane-surface $-1 0 0 -2.8168762253782891 0 0 1 1 0 0 forward_v I I I I #
coedge $-1 $238 $239 $240 $241 forward $94 $-1 #
face $-1 $242 $243 $56 $-1 $244 reversed single #
loop $-1 $-1 $245 $96 #
plane-surface $-1 0 0 -2.8168762253782891 0 0 1 1 0 0 forward_v I I I I #
coedge $-1 $246 $247 $248 $249 forward $97 $-1 #
face $-1 $250 $251 $57 $-1 $252 reversed single #
loop $-1 $-1 $253 $99 #
plane-surface $-1 0 0 -120.24781029694509 0 0 1 1 0 0 forward_v I I I I #
coedge $-1 $254 $255 $256 $257 forward $100 $-1 #
face $-1 $-1 $258 $58 $-1 $259 forward single #
loop $-1 $-1 $260 $102 #
plane-surface $-1 0 0 -2.1211127048554967 0 0 -1 -1 0 0 forward_v I I I I #
loop $-1 $-1 $261 $76 #
coedge $-1 $164 $164 $260 $262 reversed $103 $-1 #
face $-1 $-1 $263 $59 $-1 $264 forward single #
loop $-1 $-1 $265 $105 #
plane-surface $-1 0 0 -2.1211127048554967 0 0 -1 -1 0 0 forward_v I I I I #
loop $-1 $-1 $266 $77 #
coedge $-1 $169 $169 $265 $267 reversed $106 $-1 #
face $-1 $268 $269 $60 $-1 $270 reversed single #
loop $-1 $-1 $271 $108 #
plane-surface $-1 0 0 -120.24781029694509 0 0 1 1 0 0 forward_v I I I I #
coedge $-1 $272 $273 $274 $275 forward $109 $-1 #
face $-1 $-1 $276 $61 $-1 $277 forward single #
loop $-1 $-1 $278 $111 #
plane-surface $-1 0 0 -2.1211127048554967 0 0 -1 -1 0 0 forward_v I I I I #
loop $-1 $-1 $279 $79 #
coedge $-1 $178 $178 $278 $280 reversed $112 $-1 #
face $-1 $-1 $281 $62 $-1 $282 forward single #
loop $-1 $-1 $283 $114 #
plane-surface $-1 0 0 -2.1211127048554967 0 0 -1 -1 0 0 forward_v I I I I #
loop $-1 $-1 $284 $80 #
coedge $-1 $183 $183 $283 $285 reversed $115 $-1 #
face $-1 $286 $287 $63 $-1 $288 reversed single #
loop $-1 $-1 $289 $117 #
plane-surface $-1 0 0 -120.24781029694509 0 0 1 1 0 0 forward_v I I I I #
coedge $-1 $290 $291 $292 $293 forward $118 $-1 #
face $-1 $-1 $294 $64 $-1 $295 forward single #
loop $-1 $-1 $296 $120 #
plane-surface $-1 0 0 -2.1211127048554967 0 0 -1 -1 0 0 forward_v I I I I #
loop $-1 $-1 $297 $82 #
coedge $-1 $192 $192 $296 $298 reversed $121 $-1 #
face $-1 $-1 $299 $65 $-1 $300 forward single #
loop $-1 $-1 $301 $123 #
plane-surface $-1 0 0 -2.1211127048554967 0 0 -1 -1 0 0 forward_v I I I I #
loop $-1 $-1 $302 $83 #
coedge $-1 $197 $197 $301 $303 reversed $124 $-1 #
face $-1 $304 $305 $66 $-1 $306 reversed single #
loop $-1 $-1 $307 $126 #
plane-surface $-1 0 0 -120.24781029694509 0 0 1 1 0 0 forward_v I I I I #
coedge $-1 $308 $309 $310 $311 forward $127 $-1 #
face $-1 $-1 $312 $67 $-1 $313 forward single #
loop $-1 $-1 $314 $129 #
plane-surface $-1 0 0 -2.1211127048554967 0 0 -1 -1 0 0 forward_v I I I I #
loop $-1 $-1 $315 $85 #
coedge $-1 $206 $206 $314 $316 reversed $130 $-1 #
face $-1 $-1 $317 $68 $-1 $318 forward single #
loop $-1 $-1 $319 $132 #
plane-surface $-1 0 0 -2.1211127048554967 0 0 -1 -1 0 0 forward_v I I I I #
loop $-1 $-1 $320 $86 #
coedge $-1 $211 $211 $319 $321 reversed $133 $-1 #
face $-1 $322 $323 $69 $-1 $324 reversed single #
loop $-1 $-1 $325 $135 #
plane-surface $-1 0 0 -120.24781029694509 0 0 1 1 0 0 forward_v I I I I #
coedge $-1 $326 $327 $328 $329 forward $136 $-1 #
face $-1 $-1 $330 $70 $-1 $331 forward single #
loop $-1 $-1 $332 $138 #
plane-surface $-1 0 0 -6.499870296334727 0 0 -1 -1 0 0 forward_v I I I I #
loop $-1 $-1 $333 $88 #
coedge $-1 $220 $220 $332 $334 reversed $139 $-1 #
face $-1 $-1 $335 $71 $-1 $336 forward single #
loop $-1 $-1 $337 $141 #
plane-surface $-1 0 0 -6.499870296334727 0 0 -1 -1 0 0 forward_v I I I I #
loop $-1 $-1 $338 $89 #
coedge $-1 $225 $225 $337 $339 reversed $142 $-1 #
face $-1 $340 $341 $54 $-1 $342 reversed single #
loop $-1 $-1 $343 $144 #
plane-surface $-1 0 -32.893924839202626 0 0 1 0 0 0 1 forward_v I I I I #
coedge $-1 $344 $345 $346 $347 forward $145 $-1 #
coedge $-1 $348 $147 $349 $350 forward $91 $-1 #
coedge $-1 $147 $348 $351 $352 forward $91 $-1 #
coedge $-1 $353 $354 $147 $233 reversed $355 $-1 #
edge $-1 $356 -32.893924839202626 $357 32.893924839202626 $232 $358 forward 7 unknown #
face $-1 $359 $360 $55 $-1 $361 reversed single #
loop $-1 $-1 $362 $148 #
plane-surface $-1 0 -32.893924839202626 0 0 1 0 0 0 1 forward_v I I I I #
coedge $-1 $363 $364 $365 $366 forward $149 $-1 #
coedge $-1 $367 $151 $368 $369 forward $94 $-1 #
coedge $-1 $151 $367 $370 $371 forward $94 $-1 #
coedge $-1 $372 $373 $151 $241 reversed $374 $-1 #
edge $-1 $375 -32.893924839202626 $376 32.893924839202626 $240 $377 forward 7 unknown #
face $-1 $378 $379 $56 $-1 $380 reversed single #
loop $-1 $-1 $381 $152 #
plane-surface $-1 0 -32.893924839202626 0 0 1 0 0 0 1 forward_v I I I I #
coedge $-1 $382 $383 $384 $385 forward $153 $-1 #
coedge $-1 $386 $155 $387 $388 forward $97 $-1 #
coedge $-1 $155 $386 $389 $390 forward $97 $-1 #
coedge $-1 $391 $392 $155 $249 reversed $393 $-1 #
edge $-1 $394 -32.893924839202626 $395 32.893924839202626 $248 $396 forward 7 unknown #
face $-1 $397 $398 $57 $-1 $399 reversed single #
loop $-1 $-1 $400 $156 #
plane-surface $-1 0 -240.49562059389018 0 0 1 0 0 0 1 forward_v I I I I #
coedge $-1 $401 $402 $403 $404 forward $157 $-1 #
coedge $-1 $405 $159 $406 $407 forward $100 $-1 #
coedge $-1 $159 $405 $408 $409 forward $100 $-1 #
coedge $-1 $410 $411 $159 $257 reversed $412 $-1 #
edge $-1 $413 -240.49562059389018 $414 240.49562059389018 $256 $415 forward 7 unknown #
loop $-1 $416 $417 $160 #
cone-surface $-1 0 0 0 0 0 1 0.5 0 0 1 I I -0.70710678118654746 0.70710678118654746 0.5 forward I I I I #
coedge $-1 $260 $260 $164 $262 forward $161 $-1 #
coedge $-1 $261 $261 $417 $418 forward $163 $-1 #
edge $-1 $419 0 $419 6.2831853071796004 $260 $420 forward 7 unknown #
loop $-1 $421 $422 $165 #
cone-surface $-1 0 0 0 0 0 1 0.5 0 0 1 I I -0.70710678118654746 0.70710678118654746 0.5 forward I I I I #
coedge $-1 $265 $265 $169 $267 forward $166 $-1 #
coedge $-1 $266 $266 $422 $423 forward $168 $-1 #
edge $-1 $424 0 $424 6.2831853071796004 $265 $425 forward 7 unknown #
face $-1 $426 $427 $60 $-1 $428 reversed single #
loop $-1 $-1 $429 $170 #
plane-surface $-1 0 -240.49562059389018 0 0 1 0 0 0 1 forward_v I I I I #
coedge $-1 $430 $431 $432 $433 forward $171 $-1 #
coedge $-1 $434 $173 $435 $436 forward $109 $-1 #
coedge $-1 $173 $434 $437 $438 forward $109 $-1 #
coedge $-1 $439 $440 $173 $275 reversed $441 $-1 #
edge $-1 $442 -240.49562059389018 $443 240.49562059389018 $274 $444 forward 7 unknown #
loop $-1 $445 $446 $174 #
cone-surface $-1 0 0 0 0 0 1 0.5 0 0 1 I I -0.70710678118654746 0.70710678118654746 0.5 forward I I I I #
coedge $-1 $278 $278 $178 $280 forward $175 $-1 #
coedge $-1 $279 $279 $446 $447 forward $177 $-1 #
edge $-1 $448 0 $448 6.2831853071796004 $278 $449 forward 7 unknown #
loop $-1 $450 $451 $179 #
cone-surface $-1 0 0 0 0 0 1 0.5 0 0 1 I I -0.70710678118654746 0.70710678118654746 0.5 forward I I I I #
coedge $-1 $283 $283 $183 $285 forward $180 $-1 #
coedge $-1 $284 $284 $451 $452 forward $182 $-1 #
edge $-1 $453 0 $453 6.2831853071796004 $283 $454 forward 7 unknown #
face $-1 $455 $456 $63 $-1 $457 reversed single #
loop $-1 $-1 $458 $184 #
plane-surface $-1 0 -240.49562059389018 0 0 1 0 0 0 1 forward_v I I I I #
coedge $-1 $459 $460 $461 $462 forward $185 $-1 #
coedge $-1 $463 $187 $464 $465 forward $118 $-1 #
coedge $-1 $187 $463 $466 $467 forward $118 $-1 #
coedge $-1 $468 $469 $187 $293 reversed $470 $-1 #
edge $-1 $471 -240.49562059389018 $472 240.49562059389018 $292 $473 forward 7 unknown #
loop $-1 $474 $475 $188 #
cone-surface $-1 0 0 0 0 0 1 0.5 0 0 1 I I -0.70710678118654746 0.70710678118654746 0.5 forward I I I I #
coedge $-1 $296 $296 $192 $298 forward $189 $-1 #
coedge $-1 $297 $297 $475 $476 forward $191 $-1 #
edge $-1 $477 0 $477 6.2831853071796004 $296 $478 forward 7 unknown #
loop $-1 $479 $480 $193 #
cone-surface $-1 0 0 0 0 0 1 0.5 0 0 1 I I -0.70710678118654746 0.70710678118654746 0.5 forward I I I I #
coedge $-1 $301 $301 $197 $303 forward $194 $-1 #
coedge $-1 $302 $302 $480 $481 forward $196 $-1 #
edge $-1 $482 0 $482 6.2831853071796004 $301 $483 forward 7 unknown #
face $-1 $484 $485 $66 $-1 $486 reversed single #
loop $-1 $-1 $487 $198 #
plane-surface $-1 0 -240.49562059389018 0 0 1 0 0 0 1 forward_v I I I I #
coedge $-1 $488 $489 $490 $491 forward $199 $-1 #
coedge $-1 $492 $201 $493 $494 forward $127 $-1 #
coedge $-1 $201 $492 $495 $496 forward $127 $-1 #
coedge $-1 $497 $498 $201 $311 reversed $499 $-1 #
edge $-1 $500 -240.49562059389018 $501 240.49562059389018 $310 $502 forward 7 unknown #
loop $-1 $503 $504 $202 #
cone-surface $-1 0 0 0 0 0 1 0.5 0 0 1 I I -0.70710678118654746 0.70710678118654746 0.5 forward I I I I #
coedge $-1 $314 $314 $206 $316 forward $203 $-1 #
coedge $-1 $315 $315 $504 $505 forward $205 $-1 #
edge $-1 $506 0 $506 6.2831853071796004 $314 $507 forward 7 unknown #
loop $-1 $508 $509 $207 #
cone-surface $-1 0 0 0 0 0 1 0.5 0 0 1 I I -0.70710678118654746 0.70710678118654746 0.5 forward I I I I #
coedge $-1 $319 $319 $211 $321 forward $208 $-1 #
coedge $-1 $320 $320 $509 $510 forward $210 $-1 #
edge $-1 $511 0 $511 6.2831853071796004 $319 $512 forward 7 unknown #
face $-1 $513 $514 $69 $-1 $515 reversed single #
loop $-1 $-1 $516 $212 #
plane-surface $-1 0 -240.49562059389018 0 0 1 0 0 0 1 forward_v I I I I #
coedge $-1 $517 $518 $519 $520 forward $213 $-1 #
coedge $-1 $521 $215 $522 $523 forward $136 $-1 #
coedge $-1 $215 $521 $524 $525 forward $136 $-1 #
coedge $-1 $526 $527 $215 $329 reversed $528 $-1 #
edge $-1 $529 -240.49562059389018 $530 240.49562059389018 $328 $531 forward 7 unknown #
loop $-1 $532 $533 $216 #
cone-surface $-1 0 0 0 0 0 1 1.25 0 0 1 I I -0.70710678118654746 0.70710678118654746 1.25 forward I I I I #
coedge $-1 $332 $332 $220 $334 forward $217 $-1 #
coedge $-1 $333 $333 $533 $534 forward $219 $-1 #
edge $-1 $535 0 $535 6.2831853071796004 $332 $536 forward 7 unknown #
loop $-1 $537 $538 $221 #
cone-surface $-1 0 0 0 0 0 1 1.25 0 0 1 I I -0.70710678118654746 0.70710678118654746 1.25 forward I I I I #
coedge $-1 $337 $337 $225 $339 forward $222 $-1 #
coedge $-1 $338 $338 $538 $539 forward $224 $-1 #
edge $-1 $540 0 $540 6.2831853071796004 $337 $541 forward 7 unknown #
face $-1 $542 $543 $54 $-1 $544 reversed single #
loop $-1 $-1 $545 $226 #
plane-surface $-1 -60.123905148472545 0 0 1 0 0 0 0 -1 forward_v I I I I #
coedge $-1 $546 $351 $547 $548 forward $227 $-1 #
coedge $-1 $549 $229 $546 $550 forward $145 $-1 #
coedge $-1 $229 $549 $551 $552 forward $145 $-1 #
coedge $-1 $354 $353 $229 $347 reversed $355 $-1 #
edge $-1 $553 -32.893924839202626 $554 32.893924839202626 $346 $555 forward 7 unknown #
coedge $-1 $231 $230 $556 $557 forward $91 $-1 #
coedge $-1 $558 $559 $230 $350 reversed $543 $-1 #
edge $-1 $357 -60.123905148472545 $560 60.123905148472545 $349 $561 forward 7 unknown #
coedge $-1 $343 $562 $231 $352 reversed $227 $-1 #
edge $-1 $563 -60.123905148472545 $356 60.123905148472545 $351 $564 forward 7 unknown #
coedge $-1 $346 $232 $562 $565 forward $355 $-1 #
coedge $-1 $232 $346 $558 $566 reversed $355 $-1 #
loop $-1 $-1 $353 $542 #
vertex $-1 $233 $567 #
vertex $-1 $233 $568 #
straight-curve $-1 60.123905148472545 0 14.889352208702945 0 1 0 I I #
face $-1 $569 $570 $55 $-1 $571 reversed single #
loop $-1 $-1 $572 $234 #
plane-surface $-1 -5.812899980535966 0 0 1 0 0 0 0 -1 forward_v I I I I #
coedge $-1 $573 $370 $574 $575 forward $235 $-1 #
coedge $-1 $576 $237 $573 $577 forward $149 $-1 #
coedge $-1 $237 $576 $578 $579 forward $149 $-1 #
coedge $-1 $373 $372 $237 $366 reversed $374 $-1 #
edge $-1 $580 -32.893924839202626 $581 32.893924839202626 $365 $582 forward 7 unknown #
coedge $-1 $239 $238 $583 $584 forward $94 $-1 #
coedge $-1 $585 $586 $238 $369 reversed $570 $-1 #
edge $-1 $376 -5.812899980535966 $587 5.812899980535966 $368 $588 forward 7 unknown #
coedge $-1 $362 $589 $239 $371 reversed $235 $-1 #
edge $-1 $590 -5.812899980535966 $375 5.812899980535966 $370 $591 forward 7 unknown #
coedge $-1 $365 $240 $589 $592 forward $374 $-1 #
coedge $-1 $240 $365 $585 $593 reversed $374 $-1 #
loop $-1 $-1 $372 $569 #
vertex $-1 $241 $594 #
vertex $-1 $241 $595 #
straight-curve $-1 5.812899980535966 0 2.8168762253782891 0 1 0 I I #
face $-1 $596 $597 $56 $-1 $598 reversed single #
loop $-1 $-1 $599 $242 #
plane-surface $-1 -5.8128999805359669 0 0 1 0 0 0 0 -1 forward_v I I I I #
coedge $-1 $600 $389 $601 $602 forward $243 $-1 #
coedge $-1 $603 $245 $600 $604 forward $153 $-1 #
coedge $-1 $245 $603 $605 $606 forward $153 $-1 #
coedge $-1 $392 $391 $245 $385 reversed $393 $-1 #
edge $-1 $607 -32.893924839202626 $608 32.893924839202626 $384 $609 forward 7 unknown #
coedge $-1 $247 $246 $610 $611 forward $97 $-1 #
coedge $-1 $612 $613 $246 $388 reversed $597 $-1 #
edge $-1 $395 -5.8128999805359669 $614 5.8128999805359669 $387 $615 forward 7 unknown #
coedge $-1 $381 $616 $247 $390 reversed $243 $-1 #
edge $-1 $617 -5.8128999805359669 $394 5.8128999805359669 $389 $618 forward 7 unknown #
coedge $-1 $384 $248 $616 $619 forward $393 $-1 #
coedge $-1 $248 $384 $612 $620 reversed $393 $-1 #
loop $-1 $-1 $391 $596 #
vertex $-1 $249 $621 #
vertex $-1 $249 $622 #
straight-curve $-1 5.8128999805359669 0 2.8168762253782891 0 1 0 I I #
face $-1 $623 $624 $57 $-1 $625 reversed single #
loop $-1 $-1 $626 $250 #
plane-surface $-1 -6.7363700855142703 0 0 1 0 0 0 0 -1 forward_v I I I I #
coedge $-1 $627 $408 $628 $629 forward $251 $-1 #
coedge $-1 $630 $253 $627 $631 forward $157 $-1 #
coedge $-1 $253 $630 $632 $633 forward $157 $-1 #
coedge $-1 $411 $410 $253 $404 reversed $412 $-1 #
edge $-1 $634 -240.49562059389018 $635 240.49562059389018 $403 $636 forward 7 unknown #
coedge $-1 $255 $254 $637 $638 forward $100 $-1 #
coedge $-1 $639 $640 $254 $407 reversed $624 $-1 #
edge $-1 $414 -6.7363700855142703 $641 6.7363700855142703 $406 $642 forward 7 unknown #
coedge $-1 $400 $643 $255 $409 reversed $251 $-1 #
edge $-1 $644 -6.7363700855142703 $413 6.7363700855142703 $408 $645 forward 7 unknown #
coedge $-1 $403 $256 $643 $646 forward $412 $-1 #
coedge $-1 $256 $403 $639 $647 reversed $412 $-1 #
loop $-1 $-1 $410 $623 #
vertex $-1 $257 $648 #
vertex $-1 $257 $649 #
straight-curve $-1 6.7363700855142703 0 120.24781029694509 0 1 0 I I #
loop $-1 $-1 $650 $160 #
coedge $-1 $417 $417 $261 $418 reversed $258 $-1 #
edge $-1 $651 0 $651 6.2831853071796004 $417 $652 forward 7 unknown #
vertex $-1 $262 $653 #
ellipse-curve $-1 0 0 -2.1211127048554967 0 0 -1 1 0 0 1 I I #
loop $-1 $-1 $654 $165 #
coedge $-1 $422 $422 $266 $423 reversed $263 $-1 #
edge $-1 $655 0 $655 6.2831853071796004 $422 $656 forward 7 unknown #
vertex $-1 $267 $657 #
ellipse-curve $-1 0 0 -2.1211127048554967 0 0 -1 1 0 0 1 I I #
face $-1 $658 $659 $60 $-1 $660 reversed single #
loop $-1 $-1 $661 $268 #
plane-surface $-1 -6.7363700855142703 0 0 1 0 0 0 0 -1 forward_v I I I I #
coedge $-1 $662 $437 $663 $664 forward $269 $-1 #
coedge $-1 $665 $271 $662 $666 forward $171 $-1 #
coedge $-1 $271 $665 $667 $668 forward $171 $-1 #
coedge $-1 $440 $439 $271 $433 reversed $441 $-1 #
edge $-1 $669 -240.49562059389018 $670 240.49562059389018 $432 $671 forward 7 unknown #
coedge $-1 $273 $272 $672 $673 forward $109 $-1 #
coedge $-1 $674 $675 $272 $436 reversed $659 $-1 #
edge $-1 $443 -6.7363700855142703 $676 6.7363700855142703 $435 $677 forward 7 unknown #
coedge $-1 $429 $678 $273 $438 reversed $269 $-1 #
edge $-1 $679 -6.7363700855142703 $442 6.7363700855142703 $437 $680 forward 7 unknown #
coedge $-1 $432 $274 $678 $681 forward $441 $-1 #
coedge $-1 $274 $432 $674 $682 reversed $441 $-1 #
loop $-1 $-1 $439 $658 #
vertex $-1 $275 $683 #
vertex $-1 $275 $684 #
straight-curve $-1 6.7363700855142703 0 120.24781029694509 0 1 0 I I #
loop $-1 $-1 $685 $174 #
coedge $-1 $446 $446 $279 $447 reversed $276 $-1 #
edge $-1 $686 0 $686 6.2831853071796004 $446 $687 forward 7 unknown #
vertex $-1 $280 $688 #
ellipse-curve $-1 0 0 -2.1211127048554967 0 0 -1 1 0 0 1 I I #
loop $-1 $-1 $689 $179 #
coedge $-1 $451 $451 $284 $452 reversed $281 $-1 #
edge $-1 $690 0 $690 6.2831853071796004 $451 $691 forward 7 unknown #
vertex $-1 $285 $692 #
ellipse-curve $-1 0 0 -2.1211127048554967 0 0 -1 1 0 0 1 I I #
face $-1 $693 $694 $63 $-1 $695 reversed single #
loop $-1 $-1 $696 $286 #
plane-surface $-1 -6.7363700855142703 0 0 1 0 0 0 0 -1 forward_v I I I I #
coedge $-1 $697 $466 $698 $699 forward $287 $-1 #
coedge $-1 $700 $289 $697 $701 forward $185 $-1 #
coedge $-1 $289 $700 $702 $703 forward $185 $-1 #
coedge $-1 $469 $468 $289 $462 reversed $470 $-1 #
edge $-1 $704 -240.49562059389018 $705 240.49562059389018 $461 $706 forward 7 unknown #
coedge $-1 $291 $290 $707 $708 forward $118 $-1 #
coedge $-1 $709 $710 $290 $465 reversed $694 $-1 #
edge $-1 $472 -6.7363700855142703 $711 6.7363700855142703 $464 $712 forward 7 unknown #
coedge $-1 $458 $713 $291 $467 reversed $287 $-1 #
edge $-1 $714 -6.7363700855142703 $471 6.7363700855142703 $466 $715 forward 7 unknown #
coedge $-1 $461 $292 $713 $716 forward $470 $-1 #
coedge $-1 $292 $461 $709 $717 reversed $470 $-1 #
loop $-1 $-1 $468 $693 #
vertex $-1 $293 $718 #
vertex $-1 $293 $719 #
straight-curve $-1 6.7363700855142703 0 120.24781029694509 0 1 0 I I #
loop $-1 $-1 $720 $188 #
coedge $-1 $475 $475 $297 $476 reversed $294 $-1 #
edge $-1 $721 0 $721 6.2831853071796004 $475 $722 forward 7 unknown #
vertex $-1 $298 $723 #
ellipse-curve $-1 0 0 -2.1211127048554967 0 0 -1 1 0 0 1 I I #
loop $-1 $-1 $724 $193 #
coedge $-1 $480 $480 $302 $481 reversed $299 $-1 #
edge $-1 $725 0 $725 6.2831853071796004 $480 $726 forward 7 unknown #
vertex $-1 $303 $727 #
ellipse-curve $-1 0 0 -2.1211127048554967 0 0 -1 1 0 0 1 I I #
face $-1 $728 $729 $66 $-1 $730 reversed single #
loop $-1 $-1 $731 $304 #
plane-surface $-1 -6.7363700855142703 0 0 1 0 0 0 0 -1 forward_v I I I I #
coedge $-1 $732 $495 $733 $734 forward $305 $-1 #
coedge $-1 $735 $307 $732 $736 forward $199 $-1 #
coedge $-1 $307 $735 $737 $738 forward $199 $-1 #
coedge $-1 $498 $497 $307 $491 reversed $499 $-1 #
edge $-1 $739 -240.49562059389018 $740 240.49562059389018 $490 $741 forward 7 unknown #
coedge $-1 $309 $308 $742 $743 forward $127 $-1 #
coedge $-1 $744 $745 $308 $494 reversed $729 $-1 #
edge $-1 $501 -6.7363700855142703 $746 6.7363700855142703 $493 $747 forward 7 unknown #
coedge $-1 $487 $748 $309 $496 reversed $305 $-1 #
edge $-1 $749 -6.7363700855142703 $500 6.7363700855142703 $495 $750 forward 7 unknown #
coedge $-1 $490 $310 $748 $751 forward $499 $-1 #
coedge $-1 $310 $490 $744 $752 reversed $499 $-1 #
loop $-1 $-1 $497 $728 #
vertex $-1 $311 $753 #
vertex $-1 $311 $754 #
straight-curve $-1 6.7363700855142703 0 120.24781029694509 0 1 0 I I #
loop $-1 $-1 $755 $202 #
coedge $-1 $504 $504 $315 $505 reversed $312 $-1 #
edge $-1 $756 0 $756 6.2831853071796004 $504 $757 forward 7 unknown #
vertex $-1 $316 $758 #
ellipse-curve $-1 0 0 -2.1211127048554967 0 0 -1 1 0 0 1 I I #
loop $-1 $-1 $759 $207 #
coedge $-1 $509 $509 $320 $510 reversed $317 $-1 #
edge $-1 $760 0 $760 6.2831853071796004 $509 $761 forward 7 unknown #
vertex $-1 $321 $762 #
ellipse-curve $-1 0 0 -2.1211127048554967 0 0 -1 1 0 0 1 I I #
face $-1 $763 $764 $69 $-1 $765 reversed single #
loop $-1 $-1 $766 $322 #
plane-surface $-1 -12.077385434085215 0 0 1 0 0 0 0 -1 forward_v I I I I #
coedge $-1 $767 $524 $768 $769 forward $323 $-1 #
coedge $-1 $770 $325 $767 $771 forward $213 $-1 #
coedge $-1 $325 $770 $772 $773 forward $213 $-1 #
coedge $-1 $527 $526 $325 $520 reversed $528 $-1 #
edge $-1 $774 -240.49562059389018 $775 240.49562059389018 $519 $776 forward 7 unknown #
coedge $-1 $327 $326 $777 $778 forward $136 $-1 #
coedge $-1 $779 $780 $326 $523 reversed $764 $-1 #
edge $-1 $530 -12.077385434085215 $781 12.077385434085215 $522 $782 forward 7 unknown #
coedge $-1 $516 $783 $327 $525 reversed $323 $-1 #
edge $-1 $784 -12.077385434085215 $529 12.077385434085215 $524 $785 forward 7 unknown #
coedge $-1 $519 $328 $783 $786 forward $528 $-1 #
coedge $-1 $328 $519 $779 $787 reversed $528 $-1 #
loop $-1 $-1 $526 $763 #
vertex $-1 $329 $788 #
vertex $-1 $329 $789 #
straight-curve $-1 12.077385434085215 0 120.24781029694509 0 1 0 I I #
loop $-1 $-1 $790 $216 #
coedge $-1 $533 $533 $333 $534 reversed $330 $-1 #
edge $-1 $791 0 $791 6.2831853071796004 $533 $792 forward 7 unknown #
vertex $-1 $334 $793 #
ellipse-curve $-1 0 0 -6.499870296334727 0 0 -1 2.5 0 0 1 I I #
loop $-1 $-1 $794 $221 #
coedge $-1 $538 $538 $338 $539 reversed $335 $-1 #
edge $-1 $795 0 $795 6.2831853071796004 $538 $796 forward 7 unknown #
vertex $-1 $339 $797 #
ellipse-curve $-1 0 0 -6.499870296334727 0 0 -1 2.5 0 0 1 I I #
face $-1 $-1 $355 $54 $-1 $798 reversed single #
loop $-1 $-1 $558 $340 #
plane-surface $-1 0 32.893924839202626 0 0 -1 0 0 0 -1 forward_v I I I I #
coedge $-1 $799 $556 $559 $800 forward $341 $-1 #
coedge $-1 $562 $343 $344 $550 reversed $227 $-1 #
coedge $-1 $556 $799 $343 $548 reversed $341 $-1 #
edge $-1 $563 -14.889352208702945 $801 14.889352208702945 $547 $802 forward 7 unknown #
coedge $-1 $345 $344 $799 $803 forward $145 $-1 #
edge $-1 $554 -60.123905148472545 $801 60.123905148472545 $546 $804 forward 7 unknown #
coedge $-1 $559 $558 $345 $552 reversed $543 $-1 #
edge $-1 $805 -60.123905148472545 $553 60.123905148472545 $551 $806 forward 7 unknown #
vertex $-1 $347 $807 #
vertex $-1 $565 $808 #
straight-curve $-1 60.123905148472545 0 -14.889352208702945 0 -1 0 I I #
coedge $-1 $545 $547 $348 $557 reversed $341 $-1 #
edge $-1 $560 -32.893924839202626 $563 32.893924839202626 $556 $809 forward 7 unknown #
coedge $-1 $551 $349 $354 $566 forward $543 $-1 #
coedge $-1 $349 $551 $545 $800 reversed $543 $-1 #
vertex $-1 $350 $810 #
straight-curve $-1 0 32.893924839202626 14.889352208702945 -1 0 0 I I #
coedge $-1 $351 $546 $353 $565 reversed $227 $-1 #
vertex $-1 $557 $811 #
straight-curve $-1 0 -32.893924839202626 14.889352208702945 1 0 0 I I #
edge $-1 $356 -14.889352208702945 $554 14.889352208702945 $353 $812 forward 7 unknown #
edge $-1 $357 -14.889352208702945 $553 14.889352208702945 $354 $813 forward 7 unknown #
point $-1 60.123905148472545 -32.893924839202626 14.889352208702945 #
point $-1 60.123905148472545 32.893924839202626 14.889352208702945 #
face $-1 $-1 $374 $55 $-1 $814 reversed single #
loop $-1 $-1 $585 $359 #
plane-surface $-1 0 32.893924839202626 0 0 -1 0 0 0 -1 forward_v I I I I #
coedge $-1 $815 $583 $586 $816 forward $360 $-1 #
coedge $-1 $589 $362 $363 $577 reversed $235 $-1 #
coedge $-1 $583 $815 $362 $575 reversed $360 $-1 #
edge $-1 $590 -2.8168762253782891 $817 2.8168762253782891 $574 $818 forward 7 unknown #
coedge $-1 $364 $363 $815 $819 forward $149 $-1 #
edge $-1 $581 -5.812899980535966 $817 5.812899980535966 $573 $820 forward 7 unknown #
coedge $-1 $586 $585 $364 $579 reversed $570 $-1 #
edge $-1 $821 -5.812899980535966 $580 5.812899980535966 $578 $822 forward 7 unknown #
vertex $-1 $366 $823 #
vertex $-1 $592 $824 #
straight-curve $-1 5.812899980535966 0 -2.8168762253782891 0 -1 0 I I #
coedge $-1 $572 $574 $367 $584 reversed $360 $-1 #
edge $-1 $587 -32.893924839202626 $590 32.893924839202626 $583 $825 forward 7 unknown #
coedge $-1 $578 $368 $373 $593 forward $570 $-1 #
coedge $-1 $368 $578 $572 $816 reversed $570 $-1 #
vertex $-1 $369 $826 #
straight-curve $-1 0 32.893924839202626 2.8168762253782891 -1 0 0 I I #
coedge $-1 $370 $573 $372 $592 reversed $235 $-1 #
vertex $-1 $584 $827 #
straight-curve $-1 0 -32.893924839202626 2.8168762253782891 1 0 0 I I #
edge $-1 $375 -2.8168762253782891 $581 2.8168762253782891 $372 $828 forward 7 unknown #
edge $-1 $376 -2.8168762253782891 $580 2.8168762253782891 $373 $829 forward 7 unknown #
point $-1 5.812899980535966 -32.893924839202626 2.8168762253782891 #
point $-1 5.812899980535966 32.893924839202626 2.8168762253782891 #
face $-1 $-1 $393 $56 $-1 $830 reversed single #
loop $-1 $-1 $612 $378 #
plane-surface $-1 0 32.893924839202626 0 0 -1 0 0 0 -1 forward_v I I I I #
coedge $-1 $831 $610 $613 $832 forward $379 $-1 #
coedge $-1 $616 $381 $382 $604 reversed $243 $-1 #
coedge $-1 $610 $831 $381 $602 reversed $379 $-1 #
edge $-1 $617 -2.8168762253782891 $833 2.8168762253782891 $601 $834 forward 7 unknown #
coedge $-1 $383 $382 $831 $835 forward $153 $-1 #
edge $-1 $608 -5.8128999805359669 $833 5.8128999805359669 $600 $836 forward 7 unknown #
coedge $-1 $613 $612 $383 $606 reversed $597 $-1 #
edge $-1 $837 -5.8128999805359669 $607 5.8128999805359669 $605 $838 forward 7 unknown #
vertex $-1 $385 $839 #
vertex $-1 $619 $840 #
straight-curve $-1 5.8128999805359669 0 -2.8168762253782891 0 -1 0 I I #
coedge $-1 $599 $601 $386 $611 reversed $379 $-1 #
edge $-1 $614 -32.893924839202626 $617 32.893924839202626 $610 $841 forward 7 unknown #
coedge $-1 $605 $387 $392 $620 forward $597 $-1 #
coedge $-1 $387 $605 $599 $832 reversed $597 $-1 #
vertex $-1 $388 $842 #
straight-curve $-1 0 32.893924839202626 2.8168762253782891 -1 0 0 I I #
coedge $-1 $389 $600 $391 $619 reversed $243 $-1 #
vertex $-1 $611 $843 #
straight-curve $-1 0 -32.893924839202626 2.8168762253782891 1 0 0 I I #
edge $-1 $394 -2.8168762253782891 $608 2.8168762253782891 $391 $844 forward 7 unknown #
edge $-1 $395 -2.8168762253782891 $607 2.8168762253782891 $392 $845 forward 7 unknown #
point $-1 5.8128999805359669 -32.893924839202626 2.8168762253782891 #
point $-1 5.8128999805359669 32.893924839202626 2.8168762253782891 #
face $-1 $-1 $412 $57 $-1 $846 reversed single #
loop $-1 $-1 $639 $397 #
plane-surface $-1 0 240.49562059389018 0 0 -1 0 0 0 -1 forward_v I I I I #
coedge $-1 $847 $637 $640 $848 forward $398 $-1 #
coedge $-1 $643 $400 $401 $631 reversed $251 $-1 #
coedge $-1 $637 $847 $400 $629 reversed $398 $-1 #
edge $-1 $644 -120.24781029694509 $849 120.24781029694509 $628 $850 forward 7 unknown #
coedge $-1 $402 $401 $847 $851 forward $157 $-1 #
edge $-1 $635 -6.7363700855142703 $849 6.7363700855142703 $627 $852 forward 7 unknown #
coedge $-1 $640 $639 $402 $633 reversed $624 $-1 #
edge $-1 $853 -6.7363700855142703 $634 6.7363700855142703 $632 $854 forward 7 unknown #
vertex $-1 $404 $855 #
vertex $-1 $646 $856 #
straight-curve $-1 6.7363700855142703 0 -120.24781029694509 0 -1 0 I I #
coedge $-1 $626 $628 $405 $638 reversed $398 $-1 #
edge $-1 $641 -240.49562059389018 $644 240.49562059389018 $637 $857 forward 7 unknown #
coedge $-1 $632 $406 $411 $647 forward $624 $-1 #
coedge $-1 $406 $632 $626 $848 reversed $624 $-1 #
vertex $-1 $407 $858 #
straight-curve $-1 0 240.49562059389018 120.24781029694509 -1 0 0 I I #
coedge $-1 $408 $627 $410 $646 reversed $251 $-1 #
vertex $-1 $638 $859 #
straight-curve $-1 0 -240.49562059389018 120.24781029694509 1 0 0 I I #
edge $-1 $413 -120.24781029694509 $635 120.24781029694509 $410 $860 forward 7 unknown #
edge $-1 $414 -120.24781029694509 $634 120.24781029694509 $411 $861 forward 7 unknown #
point $-1 6.7363700855142703 -240.49562059389018 120.24781029694509 #
point $-1 6.7363700855142703 240.49562059389018 120.24781029694509 #
coedge $-1 $650 $650 $-1 $862 reversed $416 $-1 #
vertex $-1 $418 $863 #
ellipse-curve $-1 0 0 -0.5 0 0 -1 1 0 0 1 I I #
point $-1 1 0 -2.1211127048554967 #
coedge $-1 $654 $654 $-1 $864 reversed $421 $-1 #
vertex $-1 $423 $865 #
ellipse-curve $-1 0 0 -0.5 0 0 -1 1 0 0 1 I I #
point $-1 1 0 -2.1211127048554967 #
face $-1 $-1 $441 $60 $-1 $866 reversed single #
loop $-1 $-1 $674 $426 #
plane-surface $-1 0 240.49562059389018 0 0 -1 0 0 0 -1 forward_v I I I I #
coedge $-1 $867 $672 $675 $868 forward $427 $-1 #
coedge $-1 $678 $429 $430 $666 reversed $269 $-1 #
coedge $-1 $672 $867 $429 $664 reversed $427 $-1 #
edge $-1 $679 -120.24781029694509 $869 120.24781029694509 $663 $870 forward 7 unknown #
coedge $-1 $431 $430 $867 $871 forward $171 $-1 #
edge $-1 $670 -6.7363700855142703 $869 6.7363700855142703 $662 $872 forward 7 unknown #
coedge $-1 $675 $674 $431 $668 reversed $659 $-1 #
edge $-1 $873 -6.7363700855142703 $669 6.7363700855142703 $667 $874 forward 7 unknown #
vertex $-1 $433 $875 #
vertex $-1 $681 $876 #
straight-curve $-1 6.7363700855142703 0 -120.24781029694509 0 -1 0 I I #
coedge $-1 $661 $663 $434 $673 reversed $427 $-1 #
edge $-1 $676 -240.49562059389018 $679 240.49562059389018 $672 $877 forward 7 unknown #
coedge $-1 $667 $435 $440 $682 forward $659 $-1 #
coedge $-1 $435 $667 $661 $868 reversed $659 $-1 #
vertex $-1 $436 $878 #
straight-curve $-1 0 240.49562059389018 120.24781029694509 -1 0 0 I I #
coedge $-1 $437 $662 $439 $681 reversed $269 $-1 #
vertex $-1 $673 $879 #
straight-curve $-1 0 -240.49562059389018 120.24781029694509 1 0 0 I I #
edge $-1 $442 -120.24781029694509 $670 120.24781029694509 $439 $880 forward 7 unknown #
edge $-1 $443 -120.24781029694509 $669 120.24781029694509 $440 $881 forward 7 unknown #
point $-1 6.7363700855142703 -240.49562059389018 120.24781029694509 #
point $-1 6.7363700855142703 240.49562059389018 120.24781029694509 #
coedge $-1 $685 $685 $-1 $882 reversed $445 $-1 #
vertex $-1 $447 $883 #
ellipse-curve $-1 0 0 -0.5 0 0 -1 1 0 0 1 I I #
point $-1 1 0 -2.1211127048554967 #
coedge $-1 $689 $689 $-1 $884 reversed $450 $-1 #
vertex $-1 $452 $885 #
ellipse-curve $-1 0 0 -0.5 0 0 -1 1 0 0 1 I I #
point $-1 1 0 -2.1211127048554967 #
face $-1 $-1 $470 $63 $-1 $886 reversed single #
loop $-1 $-1 $709 $455 #
plane-surface $-1 0 240.49562059389018 0 0 -1 0 0 0 -1 forward_v I I I I #
coedge $-1 $887 $707 $710 $888 forward $456 $-1 #
coedge $-1 $713 $458 $459 $701 reversed $287 $-1 #
coedge $-1 $707 $887 $458 $699 reversed $456 $-1 #
edge $-1 $714 -120.24781029694509 $889 120.24781029694509 $698 $890 forward 7 unknown #
coedge $-1 $460 $459 $887 $891 forward $185 $-1 #
edge $-1 $705 -6.7363700855142703 $889 6.7363700855142703 $697 $892 forward 7 unknown #
coedge $-1 $710 $709 $460 $703 reversed $694 $-1 #
edge $-1 $893 -6.7363700855142703 $704 6.7363700855142703 $702 $894 forward 7 unknown #
vertex $-1 $462 $895 #
vertex $-1 $716 $896 #
straight-curve $-1 6.7363700855142703 0 -120.24781029694509 0 -1 0 I I #
coedge $-1 $696 $698 $463 $708 reversed $456 $-1 #
edge $-1 $711 -240.49562059389018 $714 240.49562059389018 $707 $897 forward 7 unknown #
coedge $-1 $702 $464 $469 $717 forward $694 $-1 #
coedge $-1 $464 $702 $696 $888 reversed $694 $-1 #
vertex $-1 $465 $898 #
straight-curve $-1 0 240.49562059389018 120.24781029694509 -1 0 0 I I #
coedge $-1 $466 $697 $468 $716 reversed $287 $-1 #
vertex $-1 $708 $899 #
straight-curve $-1 0 -240.49562059389018 120.24781029694509 1 0 0 I I #
edge $-1 $471 -120.24781029694509 $705 120.24781029694509 $468 $900 forward 7 unknown #
edge $-1 $472 -120.24781029694509 $704 120.24781029694509 $469 $901 forward 7 unknown #
point $-1 6.7363700855142703 -240.49562059389018 120.24781029694509 #
point $-1 6.7363700855142703 240.49562059389018 120.24781029694509 #
coedge $-1 $720 $720 $-1 $902 reversed $474 $-1 #
vertex $-1 $476 $903 #
ellipse-curve $-1 0 0 -0.5 0 0 -1 1 0 0 1 I I #
point $-1 1 0 -2.1211127048554967 #
coedge $-1 $724 $724 $-1 $904 reversed $479 $-1 #
vertex $-1 $481 $905 #
ellipse-curve $-1 0 0 -0.5 0 0 -1 1 0 0 1 I I #
point $-1 1 0 -2.1211127048554967 #
face $-1 $-1 $499 $66 $-1 $906 reversed single #
loop $-1 $-1 $744 $484 #
plane-surface $-1 0 240.49562059389018 0 0 -1 0 0 0 -1 forward_v I I I I #
coedge $-1 $907 $742 $745 $908 forward $485 $-1 #
coedge $-1 $748 $487 $488 $736 reversed $305 $-1 #
coedge $-1 $742 $907 $487 $734 reversed $485 $-1 #
edge $-1 $749 -120.24781029694509 $909 120.24781029694509 $733 $910 forward 7 unknown #
coedge $-1 $489 $488 $907 $911 forward $199 $-1 #
edge $-1 $740 -6.7363700855142703 $909 6.7363700855142703 $732 $912 forward 7 unknown #
coedge $-1 $745 $744 $489 $738 reversed $729 $-1 #
edge $-1 $913 -6.7363700855142703 $739 6.7363700855142703 $737 $914 forward 7 unknown #
vertex $-1 $491 $915 #
vertex $-1 $751 $916 #
straight-curve $-1 6.7363700855142703 0 -120.24781029694509 0 -1 0 I I #
coedge $-1 $731 $733 $492 $743 reversed $485 $-1 #
edge $-1 $746 -240.49562059389018 $749 240.49562059389018 $742 $917 forward 7 unknown #
coedge $-1 $737 $493 $498 $752 forward $729 $-1 #
coedge $-1 $493 $737 $731 $908 reversed $729 $-1 #
vertex $-1 $494 $918 #
straight-curve $-1 0 240.49562059389018 120.24781029694509 -1 0 0 I I #
coedge $-1 $495 $732 $497 $751 reversed $305 $-1 #
vertex $-1 $743 $919 #
straight-curve $-1 0 -240.49562059389018 120.24781029694509 1 0 0 I I #
edge $-1 $500 -120.24781029694509 $740 120.24781029694509 $497 $920 forward 7 unknown #
edge $-1 $501 -120.24781029694509 $739 120.24781029694509 $498 $921 forward 7 unknown #
point $-1 6.7363700855142703 -240.49562059389018 120.24781029694509 #
point $-1 6.7363700855142703 240.49562059389018 120.24781029694509 #
coedge $-1 $755 $755 $-1 $922 reversed $503 $-1 #
vertex $-1 $505 $923 #
ellipse-curve $-1 0 0 -0.5 0 0 -1 1 0 0 1 I I #
point $-1 1 0 -2.1211127048554967 #
coedge $-1 $759 $759 $-1 $924 reversed $508 $-1 #
vertex $-1 $510 $925 #
ellipse-curve $-1 0 0 -0.5 0 0 -1 1 0 0 1 I I #
point $-1 1 0 -2.1211127048554967 #
face $-1 $-1 $528 $69 $-1 $926 reversed single #
loop $-1 $-1 $779 $513 #
plane-surface $-1 0 240.49562059389018 0 0 -1 0 0 0 -1 forward_v I I I I #
coedge $-1 $927 $777 $780 $928 forward $514 $-1 #
coedge $-1 $783 $516 $517 $771 reversed $323 $-1 #
coedge $-1 $777 $927 $516 $769 reversed $514 $-1 #
edge $-1 $784 -120.24781029694509 $929 120.24781029694509 $768 $930 forward 7 unknown #
coedge $-1 $518 $517 $927 $931 forward $213 $-1 #
edge $-1 $775 -12.077385434085215 $929 12.077385434085215 $767 $932 forward 7 unknown #
coedge $-1 $780 $779 $518 $773 reversed $764 $-1 #
edge $-1 $933 -12.077385434085215 $774 12.077385434085215 $772 $934 forward 7 unknown #
vertex $-1 $520 $935 #
vertex $-1 $786 $936 #
straight-curve $-1 12.077385434085215 0 -120.24781029694509 0 -1 0 I I #
coedge $-1 $766 $768 $521 $778 reversed $514 $-1 #
edge $-1 $781 -240.49562059389018 $784 240.49562059389018 $777 $937 forward 7 unknown #
coedge $-1 $772 $522 $527 $787 forward $764 $-1 #
coedge $-1 $522 $772 $766 $928 reversed $764 $-1 #
vertex $-1 $523 $938 #
straight-curve $-1 0 240.49562059389018 120.24781029694509 -1 0 0 I I #
coedge $-1 $524 $767 $526 $786 reversed $323 $-1 #
vertex $-1 $778 $939 #
straight-curve $-1 0 -240.49562059389018 120.24781029694509 1 0 0 I I #
edge $-1 $529 -120.24781029694509 $775 120.24781029694509 $526 $940 forward 7 unknown #
edge $-1 $530 -120.24781029694509 $774 120.24781029694509 $527 $941 forward 7 unknown #
point $-1 12.077385434085215 -240.49562059389018 120.24781029694509 #
point $-1 12.077385434085215 240.49562059389018 120.24781029694509 #
coedge $-1 $790 $790 $-1 $942 reversed $532 $-1 #
vertex $-1 $534 $943 #
ellipse-curve $-1 0 0 -1.25 0 0 -1 2.5 0 0 1 I I #
point $-1 2.5 0 -6.499870296334727 #
coedge $-1 $794 $794 $-1 $944 reversed $537 $-1 #
vertex $-1 $539 $945 #
ellipse-curve $-1 0 0 -1.25 0 0 -1 2.5 0 0 1 I I #
point $-1 2.5 0 -6.499870296334727 #
plane-surface $-1 60.123905148472545 0 0 -1 0 0 0 0 1 forward_v I I I I #
coedge $-1 $547 $545 $549 $803 reversed $341 $-1 #
edge $-1 $560 -14.889352208702945 $805 14.889352208702945 $559 $946 forward 7 unknown #
vertex $-1 $803 $947 #
straight-curve $-1 -60.123905148472545 -32.893924839202626 0 0 0 -1 I I #
edge $-1 $801 -32.893924839202626 $805 32.893924839202626 $799 $948 forward 7 unknown #
straight-curve $-1 0 -32.893924839202626 -14.889352208702945 -1 0 0 I I #
vertex $-1 $552 $949 #
straight-curve $-1 0 32.893924839202626 -14.889352208702945 1 0 0 I I #
point $-1 60.123905148472545 32.893924839202626 -14.889352208702945 #
point $-1 60.123905148472545 -32.893924839202626 -14.889352208702945 #
straight-curve $-1 -60.123905148472545 0 14.889352208702945 0 -1 0 I I #
point $-1 -60.123905148472545 32.893924839202626 14.889352208702945 #
point $-1 -60.123905148472545 -32.893924839202626 14.889352208702945 #
straight-curve $-1 60.123905148472545 -32.893924839202626 0 0 0 -1 I I #
straight-curve $-1 60.123905148472545 32.893924839202626 0 0 0 -1 I I #
plane-surface $-1 5.812899980535966 0 0 -1 0 0 0 0 1 forward_v I I I I #
coedge $-1 $574 $572 $576 $819 reversed $360 $-1 #
edge $-1 $587 -2.8168762253782891 $821 2.8168762253782891 $586 $950 forward 7 unknown #
vertex $-1 $819 $951 #
straight-curve $-1 -5.812899980535966 -32.893924839202626 0 0 0 -1 I I #
edge $-1 $817 -32.893924839202626 $821 32.893924839202626 $815 $952 forward 7 unknown #
straight-curve $-1 0 -32.893924839202626 -2.8168762253782891 -1 0 0 I I #
vertex $-1 $579 $953 #
straight-curve $-1 0 32.893924839202626 -2.8168762253782891 1 0 0 I I #
point $-1 5.812899980535966 32.893924839202626 -2.8168762253782891 #
point $-1 5.812899980535966 -32.893924839202626 -2.8168762253782891 #
straight-curve $-1 -5.812899980535966 0 2.8168762253782891 0 -1 0 I I #
point $-1 -5.812899980535966 32.893924839202626 2.8168762253782891 #
point $-1 -5.812899980535966 -32.893924839202626 2.8168762253782891 #
straight-curve $-1 5.812899980535966 -32.893924839202626 0 0 0 -1 I I #
straight-curve $-1 5.812899980535966 32.893924839202626 0 0 0 -1 I I #
plane-surface $-1 5.8128999805359669 0 0 -1 0 0 0 0 1 forward_v I I I I #
coedge $-1 $601 $599 $603 $835 reversed $379 $-1 #
edge $-1 $614 -2.8168762253782891 $837 2.8168762253782891 $613 $954 forward 7 unknown #
vertex $-1 $835 $955 #
straight-curve $-1 -5.8128999805359669 -32.893924839202626 0 0 0 -1 I I #
edge $-1 $833 -32.893924839202626 $837 32.893924839202626 $831 $956 forward 7 unknown #
straight-curve $-1 0 -32.893924839202626 -2.8168762253782891 -1 0 0 I I #
vertex $-1 $606 $957 #
straight-curve $-1 0 32.893924839202626 -2.8168762253782891 1 0 0 I I #
point $-1 5.8128999805359669 32.893924839202626 -2.8168762253782891 #
point $-1 5.8128999805359669 -32.893924839202626 -2.8168762253782891 #
straight-curve $-1 -5.8128999805359669 0 2.8168762253782891 0 -1 0 I I #
point $-1 -5.8128999805359669 32.893924839202626 2.8168762253782891 #
point $-1 -5.8128999805359669 -32.893924839202626 2.8168762253782891 #
straight-curve $-1 5.8128999805359669 -32.893924839202626 0 0 0 -1 I I #
straight-curve $-1 5.8128999805359669 32.893924839202626 0 0 0 -1 I I #
plane-surface $-1 6.7363700855142703 0 0 -1 0 0 0 0 1 forward_v I I I I #
coedge $-1 $628 $626 $630 $851 reversed $398 $-1 #
edge $-1 $641 -120.24781029694509 $853 120.24781029694509 $640 $958 forward 7 unknown #
vertex $-1 $851 $959 #
straight-curve $-1 -6.7363700855142703 -240.49562059389018 0 0 0 -1 I I #
edge $-1 $849 -240.49562059389018 $853 240.49562059389018 $847 $960 forward 7 unknown #
straight-curve $-1 0 -240.49562059389018 -120.24781029694509 -1 0 0 I I #
vertex $-1 $633 $961 #
straight-curve $-1 0 240.49562059389018 -120.24781029694509 1 0 0 I I #
point $-1 6.7363700855142703 240.49562059389018 -120.24781029694509 #
point $-1 6.7363700855142703 -240.49562059389018 -120.24781029694509 #
straight-curve $-1 -6.7363700855142703 0 120.24781029694509 0 -1 0 I I #
point $-1 -6.7363700855142703 240.49562059389018 120.24781029694509 #
point $-1 -6.7363700855142703 -240.49562059389018 120.24781029694509 #
straight-curve $-1 6.7363700855142703 -240.49562059389018 0 0 0 -1 I I #
straight-curve $-1 6.7363700855142703 240.49562059389018 0 0 0 -1 I I #
edge $-1 $962 1 $962 0 $650 $-1 forward 7 unknown #
point $-1 1 0 -0.5 #
edge $-1 $963 1 $963 0 $654 $-1 forward 7 unknown #
point $-1 1 0 -0.5 #
plane-surface $-1 6.7363700855142703 0 0 -1 0 0 0 0 1 forward_v I I I I #
coedge $-1 $663 $661 $665 $871 reversed $427 $-1 #
edge $-1 $676 -120.24781029694509 $873 120.24781029694509 $675 $964 forward 7 unknown #
vertex $-1 $871 $965 #
straight-curve $-1 -6.7363700855142703 -240.49562059389018 0 0 0 -1 I I #
edge $-1 $869 -240.49562059389018 $873 240.49562059389018 $867 $966 forward 7 unknown #
straight-curve $-1 0 -240.49562059389018 -120.24781029694509 -1 0 0 I I #
vertex $-1 $668 $967 #
straight-curve $-1 0 240.49562059389018 -120.24781029694509 1 0 0 I I #
point $-1 6.7363700855142703 240.49562059389018 -120.24781029694509 #
point $-1 6.7363700855142703 -240.49562059389018 -120.24781029694509 #
straight-curve $-1 -6.7363700855142703 0 120.24781029694509 0 -1 0 I I #
point $-1 -6.7363700855142703 240.49562059389018 120.24781029694509 #
point $-1 -6.7363700855142703 -240.49562059389018 120.24781029694509 #
straight-curve $-1 6.7363700855142703 -240.49562059389018 0 0 0 -1 I I #
straight-curve $-1 6.7363700855142703 240.49562059389018 0 0 0 -1 I I #
edge $-1 $968 1 $968 0 $685 $-1 forward 7 unknown #
point $-1 1 0 -0.5 #
edge $-1 $969 1 $969 0 $689 $-1 forward 7 unknown #
point $-1 1 0 -0.5 #
plane-surface $-1 6.7363700855142703 0 0 -1 0 0 0 0 1 forward_v I I I I #
coedge $-1 $698 $696 $700 $891 reversed $456 $-1 #
edge $-1 $711 -120.24781029694509 $893 120.24781029694509 $710 $970 forward 7 unknown #
vertex $-1 $891 $971 #
straight-curve $-1 -6.7363700855142703 -240.49562059389018 0 0 0 -1 I I #
edge $-1 $889 -240.49562059389018 $893 240.49562059389018 $887 $972 forward 7 unknown #
straight-curve $-1 0 -240.49562059389018 -120.24781029694509 -1 0 0 I I #
vertex $-1 $703 $973 #
straight-curve $-1 0 240.49562059389018 -120.24781029694509 1 0 0 I I #
point $-1 6.7363700855142703 240.49562059389018 -120.24781029694509 #
point $-1 6.7363700855142703 -240.49562059389018 -120.24781029694509 #
straight-curve $-1 -6.7363700855142703 0 120.24781029694509 0 -1 0 I I #
point $-1 -6.7363700855142703 240.49562059389018 120.24781029694509 #
point $-1 -6.7363700855142703 -240.49562059389018 120.24781029694509 #
straight-curve $-1 6.7363700855142703 -240.49562059389018 0 0 0 -1 I I #
straight-curve $-1 6.7363700855142703 240.49562059389018 0 0 0 -1 I I #
edge $-1 $974 1 $974 0 $720 $-1 forward 7 unknown #
point $-1 1 0 -0.5 #
edge $-1 $975 1 $975 0 $724 $-1 forward 7 unknown #
point $-1 1 0 -0.5 #
plane-surface $-1 6.7363700855142703 0 0 -1 0 0 0 0 1 forward_v I I I I #
coedge $-1 $733 $731 $735 $911 reversed $485 $-1 #
edge $-1 $746 -120.24781029694509 $913 120.24781029694509 $745 $976 forward 7 unknown #
vertex $-1 $911 $977 #
straight-curve $-1 -6.7363700855142703 -240.49562059389018 0 0 0 -1 I I #
edge $-1 $909 -240.49562059389018 $913 240.49562059389018 $907 $978 forward 7 unknown #
straight-curve $-1 0 -240.49562059389018 -120.24781029694509 -1 0 0 I I #
vertex $-1 $738 $979 #
straight-curve $-1 0 240.49562059389018 -120.24781029694509 1 0 0 I I #
point $-1 6.7363700855142703 240.49562059389018 -120.24781029694509 #
point $-1 6.7363700855142703 -240.49562059389018 -120.24781029694509 #
straight-curve $-1 -6.7363700855142703 0 120.24781029694509 0 -1 0 I I #
point $-1 -6.7363700855142703 240.49562059389018 120.24781029694509 #
point $-1 -6.7363700855142703 -240.49562059389018 120.24781029694509 #
straight-curve $-1 6.7363700855142703 -240.49562059389018 0 0 0 -1 I I #
straight-curve $-1 6.7363700855142703 240.49562059389018 0 0 0 -1 I I #
edge $-1 $980 1 $980 0 $755 $-1 forward 7 unknown #
point $-1 1 0 -0.5 #
edge $-1 $981 1 $981 0 $759 $-1 forward 7 unknown #
point $-1 1 0 -0.5 #
plane-surface $-1 12.077385434085215 0 0 -1 0 0 0 0 1 forward_v I I I I #
coedge $-1 $768 $766 $770 $931 reversed $514 $-1 #
edge $-1 $781 -120.24781029694509 $933 120.24781029694509 $780 $982 forward 7 unknown #
vertex $-1 $931 $983 #
straight-curve $-1 -12.077385434085215 -240.49562059389018 0 0 0 -1 I I #
edge $-1 $929 -240.49562059389018 $933 240.49562059389018 $927 $984 forward 7 unknown #
straight-curve $-1 0 -240.49562059389018 -120.24781029694509 -1 0 0 I I #
vertex $-1 $773 $985 #
straight-curve $-1 0 240.49562059389018 -120.24781029694509 1 0 0 I I #
point $-1 12.077385434085215 240.49562059389018 -120.24781029694509 #
point $-1 12.077385434085215 -240.49562059389018 -120.24781029694509 #
straight-curve $-1 -12.077385434085215 0 120.24781029694509 0 -1 0 I I #
point $-1 -12.077385434085215 240.49562059389018 120.24781029694509 #
point $-1 -12.077385434085215 -240.49562059389018 120.24781029694509 #
straight-curve $-1 12.077385434085215 -240.49562059389018 0 0 0 -1 I I #
straight-curve $-1 12.077385434085215 240.49562059389018 0 0 0 -1 I I #
edge $-1 $986 1 $986 0 $790 $-1 forward 7 unknown #
point $-1 2.5 0 -1.25 #
edge $-1 $987 1 $987 0 $794 $-1 forward 7 unknown #
point $-1 2.5 0 -1.25 #
straight-curve $-1 -60.123905148472545 32.893924839202626 0 0 0 -1 I I #
point $-1 -60.123905148472545 -32.893924839202626 -14.889352208702945 #
straight-curve $-1 -60.123905148472545 0 -14.889352208702945 0 1 0 I I #
point $-1 -60.123905148472545 32.893924839202626 -14.889352208702945 #
straight-curve $-1 -5.812899980535966 32.893924839202626 0 0 0 -1 I I #
point $-1 -5.812899980535966 -32.893924839202626 -2.8168762253782891 #
straight-curve $-1 -5.812899980535966 0 -2.8168762253782891 0 1 0 I I #
point $-1 -5.812899980535966 32.893924839202626 -2.8168762253782891 #
straight-curve $-1 -5.8128999805359669 32.893924839202626 0 0 0 -1 I I #
point $-1 -5.8128999805359669 -32.893924839202626 -2.8168762253782891 #
straight-curve $-1 -5.8128999805359669 0 -2.8168762253782891 0 1 0 I I #
point $-1 -5.8128999805359669 32.893924839202626 -2.8168762253782891 #
straight-curve $-1 -6.7363700855142703 240.49562059389018 0 0 0 -1 I I #
point $-1 -6.7363700855142703 -240.49562059389018 -120.24781029694509 #
straight-curve $-1 -6.7363700855142703 0 -120.24781029694509 0 1 0 I I #
point $-1 -6.7363700855142703 240.49562059389018 -120.24781029694509 #
vertex $-1 $862 $988 #
vertex $-1 $864 $989 #
straight-curve $-1 -6.7363700855142703 240.49562059389018 0 0 0 -1 I I #
point $-1 -6.7363700855142703 -240.49562059389018 -120.24781029694509 #
straight-curve $-1 -6.7363700855142703 0 -120.24781029694509 0 1 0 I I #
point $-1 -6.7363700855142703 240.49562059389018 -120.24781029694509 #
vertex $-1 $882 $990 #
vertex $-1 $884 $991 #
straight-curve $-1 -6.7363700855142703 240.49562059389018 0 0 0 -1 I I #
point $-1 -6.7363700855142703 -240.49562059389018 -120.24781029694509 #
straight-curve $-1 -6.7363700855142703 0 -120.24781029694509 0 1 0 I I #
point $-1 -6.7363700855142703 240.49562059389018 -120.24781029694509 #
vertex $-1 $902 $992 #
vertex $-1 $904 $993 #
straight-curve $-1 -6.7363700855142703 240.49562059389018 0 0 0 -1 I I #
point $-1 -6.7363700855142703 -240.49562059389018 -120.24781029694509 #
straight-curve $-1 -6.7363700855142703 0 -120.24781029694509 0 1 0 I I #
point $-1 -6.7363700855142703 240.49562059389018 -120.24781029694509 #
vertex $-1 $922 $994 #
vertex $-1 $924 $995 #
straight-curve $-1 -12.077385434085215 240.49562059389018 0 0 0 -1 I I #
point $-1 -12.077385434085215 -240.49562059389018 -120.24781029694509 #
straight-curve $-1 -12.077385434085215 0 -120.24781029694509 0 1 0 I I #
point $-1 -12.077385434085215 240.49562059389018 -120.24781029694509 #
vertex $-1 $942 $996 #
vertex $-1 $944 $997 #
point $-1 0 0 0.5 #
point $-1 0 0 0.5 #
point $-1 0 0 0.5 #
point $-1 0 0 0.5 #
point $-1 0 0 0.5 #
point $-1 0 0 0.5 #
point $-1 0 0 0.5 #
point $-1 0 0 0.5 #
point $-1 0 0 1.25 #
point $-1 0 0 1.25 #
End-of-ACIS-data 