500 0 16 0           
7 Unknown 11 ACIS 5.0 NT 24 Fri Mar 26 16:52:26 1999 
-1 9.9999999999999995e-007 1e-010 
body $-1 $16 $-1 $17 #
body $-1 $18 $-1 $19 #
body $-1 $20 $-1 $21 #
body $-1 $22 $-1 $23 #
body $-1 $24 $-1 $25 #
body $-1 $26 $-1 $27 #
body $-1 $28 $-1 $29 #
body $-1 $30 $-1 $31 #
body $-1 $32 $-1 $33 #
body $-1 $34 $-1 $35 #
body $-1 $36 $-1 $37 #
body $-1 $38 $-1 $39 #
body $-1 $40 $-1 $41 #
body $-1 $42 $-1 $43 #
body $-1 $44 $-1 $45 #
body $-1 $46 $-1 $47 #
lump $-1 $-1 $48 $0 #
transform $-1 1 0 0 0 1 0 0 0 1 49.790337839899898 21.105924696451968 8.4586661490608499 1 rotate no_reflect no_shear #
lump $-1 $-1 $49 $1 #
transform $-1 1 0 0 0 1 0 0 0 1 49.790337839899898 21.105924696451968 8.4586661490608499 1 rotate no_reflect no_shear #
lump $-1 $-1 $50 $2 #
transform $-1 1 0 0 0 1 0 0 0 1 49.790337839899898 21.105924696451968 8.4586661490608499 1 rotate no_reflect no_shear #
lump $-1 $-1 $51 $3 #
transform $-1 1 0 0 0 1 0 0 0 1 49.790337839899898 21.105924696451968 8.4586661490608499 1 rotate no_reflect no_shear #
lump $-1 $-1 $52 $4 #
transform $-1 1 0 0 0 1 0 0 0 1 49.790337839899898 21.105924696451968 8.4586661490608499 1 rotate no_reflect no_shear #
lump $-1 $-1 $53 $5 #
transform $-1 1 0 0 0 1 0 0 0 1 49.790337839899898 21.105924696451968 8.4586661490608499 1 rotate no_reflect no_shear #
lump $-1 $-1 $54 $6 #
transform $-1 1 0 0 0 1 0 0 0 1 49.790337839899898 21.105924696451968 8.4586661490608499 1 rotate no_reflect no_shear #
lump $-1 $-1 $55 $7 #
transform $-1 1 0 0 0 1 0 0 0 1 49.790337839899898 21.105924696451968 8.4586661490608499 1 rotate no_reflect no_shear #
lump $-1 $-1 $56 $8 #
transform $-1 1 0 0 0 1 0 0 0 1 49.790337839899898 21.105924696451968 8.4586661490608499 1 rotate no_reflect no_shear #
lump $-1 $-1 $57 $9 #
transform $-1 1 0 0 0 1 0 0 0 1 49.790337839899898 21.105924696451968 8.4586661490608499 1 rotate no_reflect no_shear #
lump $-1 $-1 $58 $10 #
transform $-1 1 0 0 0 1 0 0 0 1 49.790337839899898 21.105924696451968 8.4586661490608499 1 rotate no_reflect no_shear #
lump $-1 $-1 $59 $11 #
transform $-1 1 0 0 0 1 0 0 0 1 49.790337839899898 21.105924696451968 8.4586661490608499 1 rotate no_reflect no_shear #
lump $-1 $-1 $60 $12 #
transform $-1 1 0 0 0 1 0 0 0 1 49.790337839899898 21.105924696451968 8.4586661490608499 1 rotate no_reflect no_shear #
lump $-1 $-1 $61 $13 #
transform $-1 1 0 0 0 1 0 0 0 1 49.790337839899898 21.105924696451968 8.4586661490608499 1 rotate no_reflect no_shear #
lump $-1 $-1 $62 $14 #
transform $-1 1 0 0 0 1 0 0 0 1 49.790337839899898 21.105924696451968 8.4586661490608499 1 rotate no_reflect no_shear #
lump $-1 $-1 $63 $15 #
transform $-1 1 0 0 0 1 0 0 0 1 49.790337839899898 21.105924696451968 8.4586661490608499 1 rotate no_reflect no_shear #
shell $-1 $-1 $-1 $64 $-1 $16 #
shell $-1 $-1 $-1 $65 $-1 $18 #
shell $-1 $-1 $-1 $66 $-1 $20 #
shell $-1 $-1 $-1 $67 $-1 $22 #
shell $-1 $-1 $-1 $68 $-1 $24 #
shell $-1 $-1 $-1 $69 $-1 $26 #
shell $-1 $-1 $-1 $70 $-1 $28 #
shell $-1 $-1 $-1 $71 $-1 $30 #
shell $-1 $-1 $-1 $72 $-1 $32 #
shell $-1 $-1 $-1 $73 $-1 $34 #
shell $-1 $-1 $-1 $74 $-1 $36 #
shell $-1 $-1 $-1 $75 $-1 $38 #
shell $-1 $-1 $-1 $76 $-1 $40 #
shell $-1 $-1 $-1 $77 $-1 $42 #
shell $-1 $-1 $-1 $78 $-1 $44 #
shell $-1 $-1 $-1 $79 $-1 $46 #
face $-1 $80 $81 $48 $-1 $82 forward single #
face $-1 $83 $84 $49 $-1 $85 forward single #
face $-1 $86 $87 $50 $-1 $88 reversed single #
face $-1 $89 $90 $51 $-1 $91 forward single #
face $-1 $92 $93 $52 $-1 $94 forward single #
face $-1 $95 $96 $53 $-1 $97 reversed single #
face $-1 $98 $99 $54 $-1 $100 forward single #
face $-1 $101 $102 $55 $-1 $103 forward single #
face $-1 $104 $105 $56 $-1 $106 reversed single #
face $-1 $107 $108 $57 $-1 $109 forward single #
face $-1 $110 $111 $58 $-1 $112 forward single #
face $-1 $113 $114 $59 $-1 $115 forward single #
face $-1 $116 $117 $60 $-1 $118 reversed single #
face $-1 $119 $120 $61 $-1 $121 forward single #
face $-1 $122 $123 $62 $-1 $124 forward single #
face $-1 $125 $126 $63 $-1 $127 forward single #
face $-1 $128 $129 $48 $-1 $130 reversed single #
loop $-1 $-1 $131 $64 #
plane-surface $-1 0 0 8.4586661490608499 0 0 1 1 0 0 forward_v I I I I #
face $-1 $132 $133 $49 $-1 $134 reversed single #
loop $-1 $-1 $135 $65 #
plane-surface $-1 -46.131847919419009 0 -4.6008593902091359 0 0 1 1 0 0 forward_v I I I I #
face $-1 $136 $137 $50 $-1 $138 reversed single #
loop $-1 $-1 $139 $66 #
plane-surface $-1 -36.316401644709643 84.72251535190513 91.051315206425627 1 0 0 0 -0.85716730853699208 -0.51503806187062418 forward_v I I I I #
face $-1 $140 $141 $51 $-1 $142 forward single #
loop $-1 $143 $144 $67 #
cone-surface $-1 -31.95778080827877 18.300569694711246 5.2146612971310997 0 -0.85716730853699208 -0.51503806187062418 1 0 0 1 I I 0 1 1 forward I I I I #
face $-1 $145 $146 $52 $-1 $147 forward single #
loop $-1 $148 $149 $68 #
cone-surface $-1 -25.419849553632456 18.300569694711246 5.2146612971310997 0 -0.85716730853699208 -0.51503806187062418 1 0 0 1 I I 0 1 1 forward I I I I #
face $-1 $150 $151 $53 $-1 $152 reversed single #
loop $-1 $-1 $153 $69 #
plane-surface $-1 9.8154462747093625 84.72251535190513 91.051315206425627 1 0 0 0 -0.85716730853699208 -0.51503806187062418 forward_v I I I I #
face $-1 $154 $155 $54 $-1 $156 forward single #
loop $-1 $157 $158 $70 #
cone-surface $-1 14.174067111140239 18.300569694711246 5.2146612971310997 0 -0.85716730853699208 -0.51503806187062418 1 0 0 1 I I 0 1 1 forward I I I I #
face $-1 $159 $160 $55 $-1 $161 forward single #
loop $-1 $162 $163 $71 #
cone-surface $-1 20.711998365786549 18.300569694711246 5.2146612971310997 0 -0.85716730853699208 -0.51503806187062418 1 0 0 1 I I 0 1 1 forward I I I I #
face $-1 $164 $165 $56 $-1 $166 reversed single #
loop $-1 $-1 $167 $72 #
plane-surface $-1 -2.518680443195187 -107.34532033143775 50.850850703131314 -1 0 0 0 -0.86602541151947299 0.49999998660252726 forward_v I I I I #
face $-1 $168 $169 $57 $-1 $170 forward single #
loop $-1 $171 $172 $73 #
cone-surface $-1 -15.856102036680731 -17.537370399018311 3.9323096997571669 0 0.86602541151947299 -0.49999998660252726 1 0 0 1 I I 0 1 1 forward I I I I #
face $-1 $173 $174 $58 $-1 $175 forward single #
loop $-1 $176 $177 $74 #
cone-surface $-1 -10.854568939123652 -17.537370399018311 3.9323096997571669 0 0.86602541151947299 -0.49999998660252726 1 0 0 1 I I 0 1 1 forward I I I I #
face $-1 $178 $179 $59 $-1 $180 forward single #
loop $-1 $181 $182 $75 #
cone-surface $-1 -5.8530358415665731 -17.537370399018311 3.9323096997571669 0 0.86602541151947299 -0.49999998660252726 1 0 0 1 I I 0 1 1 forward I I I I #
face $-1 $183 $184 $60 $-1 $185 reversed single #
loop $-1 $-1 $186 $76 #
plane-surface $-1 43.613167476223822 -107.34532033143775 50.850850703131314 -1 0 0 0 -0.86602541151947299 0.49999998660252726 forward_v I I I I #
face $-1 $187 $188 $61 $-1 $189 forward single #
loop $-1 $190 $191 $77 #
cone-surface $-1 30.275745882738285 -17.537370399018311 3.9323096997571669 0 0.86602541151947299 -0.49999998660252726 1 0 0 1 I I 0 1 1 forward I I I I #
face $-1 $192 $193 $62 $-1 $194 forward single #
loop $-1 $195 $196 $78 #
cone-surface $-1 35.277278980295357 -17.537370399018311 3.9323096997571669 0 0.86602541151947299 -0.49999998660252726 1 0 0 1 I I 0 1 1 forward I I I I #
face $-1 $197 $198 $63 $-1 $199 forward single #
loop $-1 $200 $201 $79 #
cone-surface $-1 40.278812077852429 -17.537370399018311 3.9323096997571669 0 0.86602541151947299 -0.49999998660252726 1 0 0 1 I I 0 1 1 forward I I I I #
face $-1 $202 $203 $48 $-1 $204 reversed single #
loop $-1 $-1 $205 $80 #
plane-surface $-1 0 0 -8.4586661490608499 0 0 1 1 0 0 forward_v I I I I #
coedge $-1 $206 $207 $208 $209 forward $81 $-1 #
face $-1 $210 $211 $49 $-1 $212 reversed single #
loop $-1 $-1 $213 $83 #
plane-surface $-1 -46.131847919419009 0 -7.9586661490608499 0 0 1 1 0 0 forward_v I I I I #
coedge $-1 $214 $215 $216 $217 forward $84 $-1 #
face $-1 $218 $219 $50 $-1 $220 reversed single #
loop $-1 $-1 $221 $86 #
plane-surface $-1 -28.688815180955611 -0.63478440284396243 39.763477004534337 0 0.85716730853699208 0.51503806187062418 1 0 0 forward_v I I I I #
coedge $-1 $222 $223 $224 $225 reversed $87 $-1 #
face $-1 $-1 $226 $51 $-1 $227 forward single #
loop $-1 $228 $229 $89 #
cone-surface $-1 -31.95778080827877 16.53207189784278 4.1520406527714506 0 -0.85716730853699208 -0.51503806187062418 0.5 0 0 1 I I -0.70710678118654746 0.70710678118654746 0.5 forward I I I I #
loop $-1 $-1 $230 $67 #
coedge $-1 $144 $144 $231 $232 reversed $90 $-1 #
face $-1 $-1 $233 $52 $-1 $234 forward single #
loop $-1 $235 $236 $92 #
cone-surface $-1 -25.419849553632456 16.53207189784278 4.1520406527714506 0 -0.85716730853699208 -0.51503806187062418 0.5 0 0 1 I I -0.70710678118654746 0.70710678118654746 0.5 forward I I I I #
loop $-1 $-1 $237 $68 #
coedge $-1 $149 $149 $238 $239 reversed $93 $-1 #
face $-1 $240 $241 $53 $-1 $242 reversed single #
loop $-1 $-1 $243 $95 #
plane-surface $-1 17.443032738463394 -0.63478440284396243 39.763477004534337 0 0.85716730853699208 0.51503806187062418 1 0 0 forward_v I I I I #
coedge $-1 $244 $245 $246 $247 reversed $96 $-1 #
face $-1 $-1 $248 $54 $-1 $249 forward single #
loop $-1 $250 $251 $98 #
cone-surface $-1 14.174067111140239 16.53207189784278 4.1520406527714506 0 -0.85716730853699208 -0.51503806187062418 0.5 0 0 1 I I -0.70710678118654746 0.70710678118654746 0.5 forward I I I I #
loop $-1 $-1 $252 $70 #
coedge $-1 $158 $158 $253 $254 reversed $99 $-1 #
face $-1 $-1 $255 $55 $-1 $256 forward single #
loop $-1 $257 $258 $101 #
cone-surface $-1 20.711998365786549 16.53207189784278 4.1520406527714506 0 -0.85716730853699208 -0.51503806187062418 0.5 0 0 1 I I -0.70710678118654746 0.70710678118654746 0.5 forward I I I I #
loop $-1 $-1 $259 $71 #
coedge $-1 $163 $163 $260 $261 reversed $102 $-1 #
face $-1 $262 $263 $56 $-1 $264 reversed single #
loop $-1 $-1 $265 $104 #
plane-surface $-1 -10.854568939123652 -21.10592469645195 1.0605141973608028 0 -0.86602541151947299 0.49999998660252726 1 0 0 forward_v I I I I #
coedge $-1 $266 $267 $268 $269 reversed $105 $-1 #
face $-1 $-1 $270 $57 $-1 $271 forward single #
loop $-1 $272 $273 $107 #
cone-surface $-1 -15.856102036680731 -15.671465829934856 2.8550292330022451 0 0.86602541151947299 -0.49999998660252726 0.5 0 0 1 I I -0.70710678118654746 0.70710678118654746 0.5 forward I I I I #
loop $-1 $-1 $274 $73 #
coedge $-1 $172 $172 $275 $276 reversed $108 $-1 #
face $-1 $-1 $277 $58 $-1 $278 forward single #
loop $-1 $279 $280 $110 #
cone-surface $-1 -10.854568939123652 -15.671465829934856 2.8550292330022451 0 0.86602541151947299 -0.49999998660252726 0.5 0 0 1 I I -0.70710678118654746 0.70710678118654746 0.5 forward I I I I #
loop $-1 $-1 $281 $74 #
coedge $-1 $177 $177 $282 $283 reversed $111 $-1 #
face $-1 $-1 $284 $59 $-1 $285 forward single #
loop $-1 $286 $287 $113 #
cone-surface $-1 -5.8530358415665731 -15.671465829934856 2.8550292330022451 0 0.86602541151947299 -0.49999998660252726 0.5 0 0 1 I I -0.70710678118654746 0.70710678118654746 0.5 forward I I I I #
loop $-1 $-1 $288 $75 #
coedge $-1 $182 $182 $289 $290 reversed $114 $-1 #
face $-1 $291 $292 $60 $-1 $293 reversed single #
loop $-1 $-1 $294 $116 #
plane-surface $-1 35.277278980295357 -21.10592469645195 1.0605141973608028 0 -0.86602541151947299 0.49999998660252726 1 0 0 forward_v I I I I #
coedge $-1 $295 $296 $297 $298 reversed $117 $-1 #
face $-1 $-1 $299 $61 $-1 $300 forward single #
loop $-1 $301 $302 $119 #
cone-surface $-1 30.275745882738285 -15.671465829934856 2.8550292330022451 0 0.86602541151947299 -0.49999998660252726 0.5 0 0 1 I I -0.70710678118654746 0.70710678118654746 0.5 forward I I I I #
loop $-1 $-1 $303 $77 #
coedge $-1 $191 $191 $304 $305 reversed $120 $-1 #
face $-1 $-1 $306 $62 $-1 $307 forward single #
loop $-1 $308 $309 $122 #
cone-surface $-1 35.277278980295357 -15.671465829934856 2.8550292330022451 0 0.86602541151947299 -0.49999998660252726 0.5 0 0 1 I I -0.70710678118654746 0.70710678118654746 0.5 forward I I I I #
loop $-1 $-1 $310 $78 #
coedge $-1 $196 $196 $311 $312 reversed $123 $-1 #
face $-1 $-1 $313 $63 $-1 $314 forward single #
loop $-1 $315 $316 $125 #
cone-surface $-1 40.278812077852429 -15.671465829934856 2.8550292330022451 0 0.86602541151947299 -0.49999998660252726 0.5 0 0 1 I I -0.70710678118654746 0.70710678118654746 0.5 forward I I I I #
loop $-1 $-1 $317 $79 #
coedge $-1 $201 $201 $318 $319 reversed $126 $-1 #
face $-1 $320 $321 $48 $-1 $322 reversed single #
loop $-1 $-1 $323 $128 #
plane-surface $-1 0 -21.105924696451968 0 0 1 0 0 0 1 forward_v I I I I #
coedge $-1 $324 $325 $326 $327 forward $129 $-1 #
coedge $-1 $328 $131 $329 $330 forward $81 $-1 #
coedge $-1 $131 $328 $331 $332 forward $81 $-1 #
coedge $-1 $333 $334 $131 $209 reversed $335 $-1 #
edge $-1 $336 -21.105924696451968 $337 21.105924696451968 $208 $338 forward 7 unknown #
face $-1 $339 $340 $49 $-1 $341 reversed single #
loop $-1 $-1 $342 $132 #
plane-surface $-1 -42.47335799893812 0 -6.2797627696349929 -1 0 0 0 0 1 forward_v I I I I #
coedge $-1 $343 $344 $345 $346 forward $133 $-1 #
coedge $-1 $347 $135 $348 $349 reversed $84 $-1 #
coedge $-1 $135 $347 $350 $351 reversed $84 $-1 #
coedge $-1 $342 $352 $135 $217 reversed $211 $-1 #
edge $-1 $353 -21.105924696451968 $354 21.105924696451968 $216 $355 forward 7 unknown #
face $-1 $356 $357 $50 $-1 $358 forward single #
loop $-1 $-1 $359 $136 #
plane-surface $-1 -21.06122871720158 84.72251535190513 91.051315206425627 -1 0 0 0 0.85716730853699208 0.51503806187062418 forward_v I I I I #
coedge $-1 $360 $361 $362 $363 reversed $137 $-1 #
coedge $-1 $223 $139 $364 $365 reversed $87 $-1 #
coedge $-1 $139 $222 $360 $366 reversed $87 $-1 #
coedge $-1 $362 $367 $139 $225 forward $357 $-1 #
edge $-1 $368 21.255332979500597 $369 24.186214697782116 $224 $370 forward 7 unknown #
loop $-1 $-1 $231 $140 #
plane-surface $-1 -28.688815180955611 -0.63478440284396243 39.763477004534337 0 0.85716730853699208 0.51503806187062418 1 0 0 forward_v I I I I #
loop $-1 $-1 $371 $89 #
coedge $-1 $229 $229 $230 $372 reversed $141 $-1 #
coedge $-1 $230 $230 $229 $372 forward $143 $-1 #
coedge $-1 $231 $231 $144 $232 forward $226 $-1 #
edge $-1 $373 1.2285910259226982e-015 $373 6.2831853071796013 $231 $374 forward 7 unknown #
loop $-1 $-1 $238 $145 #
plane-surface $-1 -28.688815180955611 -0.63478440284396243 39.763477004534337 0 0.85716730853699208 0.51503806187062418 1 0 0 forward_v I I I I #
loop $-1 $-1 $375 $92 #
coedge $-1 $236 $236 $237 $376 reversed $146 $-1 #
coedge $-1 $237 $237 $236 $376 forward $148 $-1 #
coedge $-1 $238 $238 $149 $239 forward $233 $-1 #
edge $-1 $377 1.2285910259226982e-015 $377 6.2831853071796013 $238 $378 forward 7 unknown #
face $-1 $379 $380 $53 $-1 $381 forward single #
loop $-1 $-1 $382 $150 #
plane-surface $-1 25.070619202217426 84.72251535190513 91.051315206425627 -1 0 0 0 0.85716730853699208 0.51503806187062418 forward_v I I I I #
coedge $-1 $383 $384 $385 $386 reversed $151 $-1 #
coedge $-1 $245 $153 $387 $388 reversed $96 $-1 #
coedge $-1 $153 $244 $383 $389 reversed $96 $-1 #
coedge $-1 $385 $390 $153 $247 forward $380 $-1 #
edge $-1 $391 21.255332979500597 $392 24.186214697782116 $246 $393 forward 7 unknown #
loop $-1 $-1 $253 $154 #
plane-surface $-1 17.443032738463394 -0.63478440284396243 39.763477004534337 0 0.85716730853699208 0.51503806187062418 1 0 0 forward_v I I I I #
loop $-1 $-1 $394 $98 #
coedge $-1 $251 $251 $252 $395 reversed $155 $-1 #
coedge $-1 $252 $252 $251 $395 forward $157 $-1 #
coedge $-1 $253 $253 $158 $254 forward $248 $-1 #
edge $-1 $396 1.2285910259226982e-015 $396 6.2831853071796013 $253 $397 forward 7 unknown #
loop $-1 $-1 $260 $159 #
plane-surface $-1 17.443032738463394 -0.63478440284396243 39.763477004534337 0 0.85716730853699208 0.51503806187062418 1 0 0 forward_v I I I I #
loop $-1 $-1 $398 $101 #
coedge $-1 $258 $258 $259 $399 reversed $160 $-1 #
coedge $-1 $259 $259 $258 $399 forward $162 $-1 #
coedge $-1 $260 $260 $163 $261 forward $255 $-1 #
edge $-1 $400 1.2285910259226982e-015 $400 6.2831853071796013 $260 $401 forward 7 unknown #
face $-1 $402 $403 $56 $-1 $404 reversed single #
loop $-1 $-1 $405 $164 #
plane-surface $-1 -19.190457435052117 -107.34532033143775 50.850850703131314 1 0 0 0 0.86602541151947299 -0.49999998660252726 forward_v I I I I #
coedge $-1 $406 $407 $408 $409 reversed $165 $-1 #
coedge $-1 $267 $167 $410 $411 reversed $105 $-1 #
coedge $-1 $167 $266 $406 $412 reversed $105 $-1 #
coedge $-1 $408 $413 $167 $269 forward $414 $-1 #
edge $-1 $415 32.566735469266902 $416 36.838060337486809 $268 $417 forward 7 unknown #
loop $-1 $-1 $275 $168 #
plane-surface $-1 -10.854568939123652 -21.10592469645195 1.0605141973608028 0 -0.86602541151947299 0.49999998660252726 1 0 0 forward_v I I I I #
loop $-1 $-1 $418 $107 #
coedge $-1 $273 $273 $274 $419 reversed $169 $-1 #
coedge $-1 $274 $274 $273 $419 forward $171 $-1 #
coedge $-1 $275 $275 $172 $276 forward $270 $-1 #
edge $-1 $420 1.593595357403048e-015 $420 6.2831853071796022 $275 $421 forward 7 unknown #
loop $-1 $-1 $282 $173 #
plane-surface $-1 -10.854568939123652 -21.10592469645195 1.0605141973608028 0 -0.86602541151947299 0.49999998660252726 1 0 0 forward_v I I I I #
loop $-1 $-1 $422 $110 #
coedge $-1 $280 $280 $281 $423 reversed $174 $-1 #
coedge $-1 $281 $281 $280 $423 forward $176 $-1 #
coedge $-1 $282 $282 $177 $283 forward $277 $-1 #
edge $-1 $424 1.593595357403048e-015 $424 6.2831853071796022 $282 $425 forward 7 unknown #
loop $-1 $-1 $289 $178 #
plane-surface $-1 -10.854568939123652 -21.10592469645195 1.0605141973608028 0 -0.86602541151947299 0.49999998660252726 1 0 0 forward_v I I I I #
loop $-1 $-1 $426 $113 #
coedge $-1 $287 $287 $288 $427 reversed $179 $-1 #
coedge $-1 $288 $288 $287 $427 forward $181 $-1 #
coedge $-1 $289 $289 $182 $290 forward $284 $-1 #
edge $-1 $428 1.593595357403048e-015 $428 6.2831853071796022 $289 $429 forward 7 unknown #
face $-1 $430 $431 $60 $-1 $432 reversed single #
loop $-1 $-1 $433 $183 #
plane-surface $-1 26.941390484366892 -107.34532033143775 50.850850703131314 1 0 0 0 0.86602541151947299 -0.49999998660252726 forward_v I I I I #
coedge $-1 $434 $435 $436 $437 reversed $184 $-1 #
coedge $-1 $296 $186 $438 $439 reversed $117 $-1 #
coedge $-1 $186 $295 $434 $440 reversed $117 $-1 #
coedge $-1 $436 $441 $186 $298 forward $442 $-1 #
edge $-1 $443 32.566735469266902 $444 36.838060337486809 $297 $445 forward 7 unknown #
loop $-1 $-1 $304 $187 #
plane-surface $-1 35.277278980295357 -21.10592469645195 1.0605141973608028 0 -0.86602541151947299 0.49999998660252726 1 0 0 forward_v I I I I #
loop $-1 $-1 $446 $119 #
coedge $-1 $302 $302 $303 $447 reversed $188 $-1 #
coedge $-1 $303 $303 $302 $447 forward $190 $-1 #
coedge $-1 $304 $304 $191 $305 forward $299 $-1 #
edge $-1 $448 1.593595357403048e-015 $448 6.2831853071796022 $304 $449 forward 7 unknown #
loop $-1 $-1 $311 $192 #
plane-surface $-1 35.277278980295357 -21.10592469645195 1.0605141973608028 0 -0.86602541151947299 0.49999998660252726 1 0 0 forward_v I I I I #
loop $-1 $-1 $450 $122 #
coedge $-1 $309 $309 $310 $451 reversed $193 $-1 #
coedge $-1 $310 $310 $309 $451 forward $195 $-1 #
coedge $-1 $311 $311 $196 $312 forward $306 $-1 #
edge $-1 $452 1.593595357403048e-015 $452 6.2831853071796022 $311 $453 forward 7 unknown #
loop $-1 $-1 $318 $197 #
plane-surface $-1 35.277278980295357 -21.10592469645195 1.0605141973608028 0 -0.86602541151947299 0.49999998660252726 1 0 0 forward_v I I I I #
loop $-1 $-1 $454 $125 #
coedge $-1 $316 $316 $317 $455 reversed $198 $-1 #
coedge $-1 $317 $317 $316 $455 forward $200 $-1 #
coedge $-1 $318 $318 $201 $319 forward $313 $-1 #
edge $-1 $456 1.593595357403048e-015 $456 6.2831853071796022 $318 $457 forward 7 unknown #
face $-1 $458 $459 $48 $-1 $460 reversed single #
loop $-1 $-1 $461 $202 #
plane-surface $-1 -49.790337839899898 0 0 1 0 0 0 0 -1 forward_v I I I I #
coedge $-1 $462 $331 $463 $464 forward $203 $-1 #
coedge $-1 $465 $205 $462 $466 forward $129 $-1 #
coedge $-1 $205 $465 $467 $468 forward $129 $-1 #
coedge $-1 $334 $333 $205 $327 reversed $335 $-1 #
edge $-1 $469 -21.105924696451968 $470 21.105924696451968 $326 $471 forward 7 unknown #
coedge $-1 $207 $206 $472 $473 forward $81 $-1 #
coedge $-1 $474 $475 $206 $330 reversed $459 $-1 #
edge $-1 $337 -49.790337839899898 $476 49.790337839899898 $329 $477 forward 7 unknown #
coedge $-1 $323 $478 $207 $332 reversed $203 $-1 #
edge $-1 $479 -49.790337839899898 $336 49.790337839899898 $331 $480 forward 7 unknown #
coedge $-1 $326 $208 $478 $481 forward $335 $-1 #
coedge $-1 $208 $326 $474 $482 reversed $335 $-1 #
loop $-1 $-1 $333 $458 #
vertex $-1 $209 $483 #
vertex $-1 $209 $484 #
straight-curve $-1 49.790337839899898 0 8.4586661490608499 0 1 0 I I #
face $-1 $485 $486 $49 $-1 $487 reversed single #
loop $-1 $-1 $488 $210 #
plane-surface $-1 0 -21.105924696451968 0 0 1 0 0 0 1 forward_v I I I I #
coedge $-1 $345 $216 $489 $490 reversed $211 $-1 #
coedge $-1 $491 $213 $488 $492 reversed $133 $-1 #
coedge $-1 $213 $491 $493 $494 reversed $133 $-1 #
coedge $-1 $352 $342 $213 $346 reversed $211 $-1 #
edge $-1 $495 -21.105924696451968 $496 21.105924696451968 $345 $497 forward 7 unknown #
coedge $-1 $215 $214 $498 $499 reversed $84 $-1 #
coedge $-1 $500 $501 $214 $349 forward $502 $-1 #
edge $-1 $503 -26.724413880190394 $354 -19.407434039228615 $348 $504 forward 7 unknown #
coedge $-1 $505 $489 $215 $351 forward $340 $-1 #
edge $-1 $353 19.407434039228615 $506 26.724413880190394 $350 $507 forward 7 unknown #
coedge $-1 $216 $345 $500 $508 reversed $211 $-1 #
vertex $-1 $351 $509 #
vertex $-1 $349 $510 #
straight-curve $-1 -42.47335799893812 0 -4.6008593902091359 0 1 0 I I #
face $-1 $-1 $511 $50 $-1 $512 reversed single #
loop $-1 $-1 $224 $218 #
plane-surface $-1 0 0 8.4586661490608499 0 0 1 1 0 0 forward_v I I I I #
coedge $-1 $513 $514 $515 $516 reversed $219 $-1 #
coedge $-1 $517 $221 $223 $366 forward $137 $-1 #
coedge $-1 $221 $517 $513 $518 forward $137 $-1 #
coedge $-1 $515 $224 $221 $363 forward $357 $-1 #
edge $-1 $369 -21.971994054231835 $519 -6.7168211267237741 $362 $520 forward 7 unknown #
coedge $-1 $521 $522 $222 $365 forward $511 $-1 #
edge $-1 $523 -41.94479793116281 $368 -37.06699145415196 $364 $524 forward 7 unknown #
edge $-1 $369 36.521237503684496 $523 42.21184939290395 $223 $525 forward 7 unknown #
coedge $-1 $224 $515 $521 $526 forward $357 $-1 #
vertex $-1 $365 $527 #
vertex $-1 $225 $528 #
straight-curve $-1 -36.316401644709643 42.361257675952565 8.4586661490608464 0 -1 0 I I #
coedge $-1 $371 $371 $-1 $529 reversed $228 $-1 #
edge $-1 $530 0 $530 6.2831853071796004 $229 $531 forward 7 unknown #
vertex $-1 $232 $532 #
ellipse-curve $-1 -31.95778080827877 19.640483837311205 6.0197629105554284 0 0.85716730853699208 0.51503806187062418 1 0 0 1 I I #
coedge $-1 $375 $375 $-1 $533 reversed $235 $-1 #
edge $-1 $534 0 $534 6.2831853071796004 $236 $535 forward 7 unknown #
vertex $-1 $239 $536 #
ellipse-curve $-1 -25.419849553632456 19.640483837311205 6.0197629105554284 0 0.85716730853699208 0.51503806187062418 1 0 0 1 I I #
face $-1 $-1 $537 $53 $-1 $538 reversed single #
loop $-1 $-1 $246 $240 #
plane-surface $-1 0 0 8.4586661490608499 0 0 1 1 0 0 forward_v I I I I #
coedge $-1 $539 $540 $541 $542 reversed $241 $-1 #
coedge $-1 $543 $243 $245 $389 forward $151 $-1 #
coedge $-1 $243 $543 $539 $544 forward $151 $-1 #
coedge $-1 $541 $246 $243 $386 forward $380 $-1 #
edge $-1 $392 1.0939299054776654 $545 16.349102832985729 $385 $546 forward 7 unknown #
coedge $-1 $547 $548 $244 $388 forward $537 $-1 #
edge $-1 $549 -41.94479793116281 $391 -37.06699145415196 $387 $550 forward 7 unknown #
edge $-1 $392 36.521237503684496 $549 42.21184939290395 $245 $551 forward 7 unknown #
coedge $-1 $246 $541 $547 $552 forward $380 $-1 #
vertex $-1 $247 $553 #
vertex $-1 $247 $554 #
straight-curve $-1 9.8154462747093625 42.361257675952565 8.4586661490608464 0 -1 0 I I #
coedge $-1 $394 $394 $-1 $555 reversed $250 $-1 #
edge $-1 $556 0 $556 6.2831853071796004 $251 $557 forward 7 unknown #
vertex $-1 $254 $558 #
ellipse-curve $-1 14.174067111140239 19.640483837311205 6.0197629105554284 0 0.85716730853699208 0.51503806187062418 1 0 0 1 I I #
coedge $-1 $398 $398 $-1 $559 reversed $257 $-1 #
edge $-1 $560 0 $560 6.2831853071796004 $258 $561 forward 7 unknown #
vertex $-1 $261 $562 #
ellipse-curve $-1 20.711998365786549 19.640483837311205 6.0197629105554284 0 0.85716730853699208 0.51503806187062418 1 0 0 1 I I #
face $-1 $-1 $414 $56 $-1 $563 forward single #
loop $-1 $-1 $564 $262 #
plane-surface $-1 0 -21.105924696451968 0 0 1 0 0 0 1 forward_v I I I I #
coedge $-1 $565 $566 $567 $568 reversed $263 $-1 #
coedge $-1 $569 $265 $267 $412 forward $165 $-1 #
coedge $-1 $265 $569 $565 $570 forward $165 $-1 #
coedge $-1 $567 $268 $265 $409 forward $414 $-1 #
edge $-1 $416 -2.9086040263666391 $571 13.763172965490291 $408 $572 forward 7 unknown #
coedge $-1 $573 $574 $266 $411 forward $403 $-1 #
edge $-1 $575 -24.364911154204886 $415 -16.966759202504807 $410 $576 forward 7 unknown #
edge $-1 $416 -8.54264996533961 $575 3.5610965538481517e-014 $267 $577 forward 7 unknown #
coedge $-1 $268 $567 $573 $578 forward $414 $-1 #
loop $-1 $-1 $567 $402 #
vertex $-1 $411 $579 #
vertex $-1 $269 $580 #
straight-curve $-1 -2.518680443195187 -53.672660165718874 8.4586661490608499 0 1 0 I I #
coedge $-1 $418 $418 $-1 $581 reversed $272 $-1 #
edge $-1 $582 0 $582 6.2831853071796004 $273 $583 forward 7 unknown #
vertex $-1 $276 $584 #
ellipse-curve $-1 -15.856102036680731 -18.970262262342015 4.7595901732108166 0 -0.86602541151947299 0.49999998660252726 1 0 0 1 I I #
coedge $-1 $422 $422 $-1 $585 reversed $279 $-1 #
edge $-1 $586 0 $586 6.2831853071796004 $280 $587 forward 7 unknown #
vertex $-1 $283 $588 #
ellipse-curve $-1 -10.854568939123652 -18.970262262342015 4.7595901732108166 0 -0.86602541151947299 0.49999998660252726 1 0 0 1 I I #
coedge $-1 $426 $426 $-1 $589 reversed $286 $-1 #
edge $-1 $590 0 $590 6.2831853071796004 $287 $591 forward 7 unknown #
vertex $-1 $290 $592 #
ellipse-curve $-1 -5.8530358415665731 -18.970262262342015 4.7595901732108166 0 -0.86602541151947299 0.49999998660252726 1 0 0 1 I I #
face $-1 $-1 $442 $60 $-1 $593 forward single #
loop $-1 $-1 $594 $291 #
plane-surface $-1 0 -21.105924696451968 0 0 1 0 0 0 1 forward_v I I I I #
coedge $-1 $595 $596 $597 $598 reversed $292 $-1 #
coedge $-1 $599 $294 $296 $440 forward $184 $-1 #
coedge $-1 $294 $599 $595 $600 forward $184 $-1 #
coedge $-1 $597 $297 $294 $437 forward $442 $-1 #
edge $-1 $444 -25.974527986076144 $601 -9.3027509942192133 $436 $602 forward 7 unknown #
coedge $-1 $603 $604 $295 $439 forward $431 $-1 #
edge $-1 $605 -24.364911154204886 $443 -16.966759202504807 $438 $606 forward 7 unknown #
edge $-1 $444 -8.54264996533961 $605 3.5610965538481517e-014 $296 $607 forward 7 unknown #
coedge $-1 $297 $597 $603 $608 forward $442 $-1 #
loop $-1 $-1 $597 $430 #
vertex $-1 $439 $609 #
vertex $-1 $298 $610 #
straight-curve $-1 43.613167476223822 -53.672660165718874 8.4586661490608499 0 1 0 I I #
coedge $-1 $446 $446 $-1 $611 reversed $301 $-1 #
edge $-1 $612 0 $612 6.2831853071796004 $302 $613 forward 7 unknown #
vertex $-1 $305 $614 #
ellipse-curve $-1 30.275745882738285 -18.970262262342015 4.7595901732108166 0 -0.86602541151947299 0.49999998660252726 1 0 0 1 I I #
coedge $-1 $450 $450 $-1 $615 reversed $308 $-1 #
edge $-1 $616 0 $616 6.2831853071796004 $309 $617 forward 7 unknown #
vertex $-1 $312 $618 #
ellipse-curve $-1 35.277278980295357 -18.970262262342015 4.7595901732108166 0 -0.86602541151947299 0.49999998660252726 1 0 0 1 I I #
coedge $-1 $454 $454 $-1 $619 reversed $315 $-1 #
edge $-1 $620 0 $620 6.2831853071796004 $316 $621 forward 7 unknown #
vertex $-1 $319 $622 #
ellipse-curve $-1 40.278812077852429 -18.970262262342015 4.7595901732108166 0 -0.86602541151947299 0.49999998660252726 1 0 0 1 I I #
face $-1 $-1 $335 $48 $-1 $623 reversed single #
loop $-1 $-1 $474 $320 #
plane-surface $-1 0 21.105924696451968 0 0 -1 0 0 0 -1 forward_v I I I I #
coedge $-1 $624 $472 $475 $625 forward $321 $-1 #
coedge $-1 $478 $323 $324 $466 reversed $203 $-1 #
coedge $-1 $472 $624 $323 $464 reversed $321 $-1 #
edge $-1 $479 -8.4586661490608499 $626 8.4586661490608499 $463 $627 forward 7 unknown #
coedge $-1 $325 $324 $624 $628 forward $129 $-1 #
edge $-1 $470 -49.790337839899898 $626 49.790337839899898 $462 $629 forward 7 unknown #
coedge $-1 $475 $474 $325 $468 reversed $459 $-1 #
edge $-1 $630 -49.790337839899898 $469 49.790337839899898 $467 $631 forward 7 unknown #
vertex $-1 $327 $632 #
vertex $-1 $481 $633 #
straight-curve $-1 49.790337839899898 0 -8.4586661490608499 0 -1 0 I I #
coedge $-1 $461 $463 $328 $473 reversed $321 $-1 #
edge $-1 $476 -21.105924696451968 $479 21.105924696451968 $472 $634 forward 7 unknown #
coedge $-1 $467 $329 $334 $482 forward $459 $-1 #
coedge $-1 $329 $467 $461 $625 reversed $459 $-1 #
vertex $-1 $330 $635 #
straight-curve $-1 0 21.105924696451968 8.4586661490608499 -1 0 0 I I #
coedge $-1 $331 $462 $333 $481 reversed $203 $-1 #
vertex $-1 $473 $636 #
straight-curve $-1 0 -21.105924696451968 8.4586661490608499 1 0 0 I I #
edge $-1 $336 -8.4586661490608499 $470 8.4586661490608499 $333 $637 forward 7 unknown #
edge $-1 $337 -8.4586661490608499 $469 8.4586661490608499 $334 $638 forward 7 unknown #
point $-1 49.790337839899898 -21.105924696451968 8.4586661490608499 #
point $-1 49.790337839899898 21.105924696451968 8.4586661490608499 #
face $-1 $-1 $502 $49 $-1 $639 reversed single #
loop $-1 $-1 $640 $339 #
plane-surface $-1 -49.790337839899898 0 0 1 0 0 0 0 -1 forward_v I I I I #
coedge $-1 $489 $505 $343 $492 forward $340 $-1 #
coedge $-1 $350 $488 $342 $490 forward $340 $-1 #
edge $-1 $496 -4.8187847642433539 $353 -1.4609780053916395 $489 $641 forward 7 unknown #
coedge $-1 $344 $343 $640 $642 reversed $133 $-1 #
edge $-1 $643 -26.724413880190394 $496 -19.407434039228615 $488 $644 forward 7 unknown #
coedge $-1 $501 $500 $344 $494 forward $502 $-1 #
edge $-1 $495 19.407434039228615 $645 26.724413880190394 $493 $646 forward 7 unknown #
vertex $-1 $494 $647 #
vertex $-1 $492 $648 #
straight-curve $-1 -42.47335799893812 0 -7.9586661490608499 0 -1 0 I I #
coedge $-1 $649 $650 $347 $499 forward $486 $-1 #
edge $-1 $506 -21.105924696451968 $503 21.105924696451968 $498 $651 forward 7 unknown #
coedge $-1 $493 $348 $352 $508 forward $502 $-1 #
coedge $-1 $348 $493 $649 $652 reversed $502 $-1 #
loop $-1 $-1 $493 $485 #
vertex $-1 $652 $653 #
straight-curve $-1 -23.065923959709504 21.105924696451968 -4.6008593902091359 1 0 0 I I #
coedge $-1 $488 $350 $650 $654 forward $340 $-1 #
vertex $-1 $654 $655 #
straight-curve $-1 -23.065923959709504 -21.105924696451968 -4.6008593902091359 -1 0 0 I I #
edge $-1 $354 1.4609780053916395 $495 4.8187847642433539 $500 $656 forward 7 unknown #
point $-1 -42.47335799893812 -21.105924696451968 -4.6008593902091359 #
point $-1 -42.47335799893812 21.105924696451968 -4.6008593902091359 #
loop $-1 $-1 $364 $356 #
plane-surface $-1 0 21.105924696451968 0 0 -1 0 0 0 -1 forward_v I I I I #
coedge $-1 $514 $359 $361 $518 reversed $219 $-1 #
coedge $-1 $359 $513 $657 $658 reversed $219 $-1 #
coedge $-1 $367 $362 $359 $516 forward $357 $-1 #
edge $-1 $519 -24.186214697782116 $659 -21.255332979500597 $515 $660 forward 7 unknown #
coedge $-1 $361 $360 $522 $661 reversed $137 $-1 #
edge $-1 $662 -42.21184939290395 $519 -36.521237503684496 $513 $663 forward 7 unknown #
vertex $-1 $363 $664 #
straight-curve $-1 -14.344407590477806 18.175042978170445 8.4586661490608464 1 0 0 I I #
coedge $-1 $657 $364 $367 $526 reversed $511 $-1 #
coedge $-1 $364 $657 $517 $661 forward $511 $-1 #
vertex $-1 $365 $665 #
straight-curve $-1 -36.316401644709643 21.105924696451968 45.525657603212814 0 0 1 I I #
straight-curve $-1 -36.316401644709643 -0.63478440284396243 39.763477004534337 0 0.51503806187062418 -0.85716730853699208 I I #
edge $-1 $659 21.06122871720158 $368 36.316401644709643 $521 $666 forward 7 unknown #
point $-1 -36.316401644709643 21.105924696451968 8.4586661490608499 #
point $-1 -36.316401644709643 18.175042978170449 8.4586661490608499 #
edge $-1 $667 1 $667 0 $371 $-1 forward 7 unknown #
vertex $-1 $372 $668 #
ellipse-curve $-1 -31.95778080827877 16.960655552111277 4.409559683706763 0 0.85716730853699208 0.51503806187062418 1 0 0 1 I I #
point $-1 -30.95778080827877 19.640483837311219 6.0197629105554356 #
edge $-1 $669 1 $669 0 $375 $-1 forward 7 unknown #
vertex $-1 $376 $670 #
ellipse-curve $-1 -25.419849553632456 16.960655552111277 4.409559683706763 0 0.85716730853699208 0.51503806187062418 1 0 0 1 I I #
point $-1 -24.419849553632456 19.640483837311219 6.0197629105554356 #
loop $-1 $-1 $387 $379 #
plane-surface $-1 0 21.105924696451968 0 0 -1 0 0 0 -1 forward_v I I I I #
coedge $-1 $540 $382 $384 $544 reversed $241 $-1 #
coedge $-1 $382 $539 $671 $672 reversed $241 $-1 #
coedge $-1 $390 $385 $382 $542 forward $380 $-1 #
edge $-1 $545 -24.186214697782116 $673 -21.255332979500597 $541 $674 forward 7 unknown #
coedge $-1 $384 $383 $548 $675 reversed $151 $-1 #
edge $-1 $676 -42.21184939290395 $545 -36.521237503684496 $539 $677 forward 7 unknown #
vertex $-1 $386 $678 #
straight-curve $-1 8.721516369231697 18.175042978170445 8.4586661490608464 1 0 0 I I #
coedge $-1 $671 $387 $390 $552 reversed $537 $-1 #
coedge $-1 $387 $671 $543 $675 forward $537 $-1 #
vertex $-1 $388 $679 #
straight-curve $-1 9.8154462747093625 21.105924696451968 45.525657603212814 0 0 1 I I #
straight-curve $-1 9.8154462747093625 -0.63478440284396243 39.763477004534337 0 0.51503806187062418 -0.85716730853699208 I I #
edge $-1 $673 -25.070619202217426 $391 -9.8154462747093625 $547 $680 forward 7 unknown #
point $-1 9.8154462747093625 21.105924696451968 8.4586661490608499 #
point $-1 9.8154462747093625 18.175042978170449 8.4586661490608499 #
edge $-1 $681 1 $681 0 $394 $-1 forward 7 unknown #
vertex $-1 $395 $682 #
ellipse-curve $-1 14.174067111140239 16.960655552111277 4.409559683706763 0 0.85716730853699208 0.51503806187062418 1 0 0 1 I I #
point $-1 15.174067111140239 19.640483837311219 6.0197629105554356 #
edge $-1 $683 1 $683 0 $398 $-1 forward 7 unknown #
vertex $-1 $399 $684 #
ellipse-curve $-1 20.711998365786549 16.960655552111277 4.409559683706763 0 0.85716730853699208 0.51503806187062418 1 0 0 1 I I #
point $-1 21.711998365786549 19.640483837311219 6.0197629105554356 #
plane-surface $-1 0 0 8.4586661490608499 0 0 1 1 0 0 forward_v I I I I #
coedge $-1 $574 $573 $566 $685 forward $403 $-1 #
coedge $-1 $566 $405 $407 $570 reversed $263 $-1 #
coedge $-1 $405 $565 $564 $685 reversed $263 $-1 #
coedge $-1 $413 $408 $405 $568 forward $414 $-1 #
edge $-1 $571 -36.838060337486809 $686 -32.566735469266902 $567 $687 forward 7 unknown #
coedge $-1 $407 $406 $574 $688 reversed $165 $-1 #
edge $-1 $689 -3.5610965538481517e-014 $571 8.54264996533961 $565 $690 forward 7 unknown #
vertex $-1 $409 $691 #
straight-curve $-1 -5.4272844695618261 -16.834599828232065 8.4586661490608499 -1 0 0 I I #
coedge $-1 $564 $410 $413 $578 reversed $403 $-1 #
coedge $-1 $410 $564 $569 $688 forward $403 $-1 #
vertex $-1 $411 $692 #
straight-curve $-1 -2.518680443195187 -21.105924696451964 25.425425351565657 0 0 1 I I #
straight-curve $-1 -2.518680443195187 -21.10592469645195 1.0605141973608028 0 -0.49999998660252726 -0.86602541151947299 I I #
edge $-1 $686 -19.190457435052117 $415 -2.518680443195187 $573 $693 forward 7 unknown #
point $-1 -2.518680443195187 -21.105924696451968 8.4586661490608499 #
point $-1 -2.518680443195187 -16.834599828232065 8.4586661490608499 #
edge $-1 $694 1 $694 0 $418 $-1 forward 7 unknown #
vertex $-1 $419 $695 #
ellipse-curve $-1 -15.856102036680731 -16.104478535694593 3.1050292263035089 0 -0.86602541151947299 0.49999998660252726 1 0 0 1 I I #
point $-1 -14.856102036680731 -18.970262262342025 4.7595901732108246 #
edge $-1 $696 1 $696 0 $422 $-1 forward 7 unknown #
vertex $-1 $423 $697 #
ellipse-curve $-1 -10.854568939123652 -16.104478535694593 3.1050292263035089 0 -0.86602541151947299 0.49999998660252726 1 0 0 1 I I #
point $-1 -9.8545689391236522 -18.970262262342025 4.7595901732108246 #
edge $-1 $698 1 $698 0 $426 $-1 forward 7 unknown #
vertex $-1 $427 $699 #
ellipse-curve $-1 -5.8530358415665731 -16.104478535694593 3.1050292263035089 0 -0.86602541151947299 0.49999998660252726 1 0 0 1 I I #
point $-1 -4.8530358415665731 -18.970262262342025 4.7595901732108246 #
plane-surface $-1 0 0 8.4586661490608499 0 0 1 1 0 0 forward_v I I I I #
coedge $-1 $604 $603 $596 $700 forward $431 $-1 #
coedge $-1 $596 $433 $435 $600 reversed $292 $-1 #
coedge $-1 $433 $595 $594 $700 reversed $292 $-1 #
coedge $-1 $441 $436 $433 $598 forward $442 $-1 #
edge $-1 $601 -36.838060337486809 $701 -32.566735469266902 $597 $702 forward 7 unknown #
coedge $-1 $435 $434 $604 $703 reversed $184 $-1 #
edge $-1 $704 -3.5610965538481517e-014 $601 8.54264996533961 $595 $705 forward 7 unknown #
vertex $-1 $437 $706 #
straight-curve $-1 17.638639490147678 -16.834599828232065 8.4586661490608499 -1 0 0 I I #
coedge $-1 $594 $438 $441 $608 reversed $431 $-1 #
coedge $-1 $438 $594 $599 $703 forward $431 $-1 #
vertex $-1 $439 $707 #
straight-curve $-1 43.613167476223822 -21.105924696451964 25.425425351565657 0 0 1 I I #
straight-curve $-1 43.613167476223822 -21.10592469645195 1.0605141973608028 0 -0.49999998660252726 -0.86602541151947299 I I #
edge $-1 $701 26.941390484366892 $443 43.613167476223822 $603 $708 forward 7 unknown #
point $-1 43.613167476223822 -21.105924696451968 8.4586661490608499 #
point $-1 43.613167476223822 -16.834599828232065 8.4586661490608499 #
edge $-1 $709 1 $709 0 $446 $-1 forward 7 unknown #
vertex $-1 $447 $710 #
ellipse-curve $-1 30.275745882738285 -16.104478535694593 3.1050292263035089 0 -0.86602541151947299 0.49999998660252726 1 0 0 1 I I #
point $-1 31.275745882738285 -18.970262262342025 4.7595901732108246 #
edge $-1 $711 1 $711 0 $450 $-1 forward 7 unknown #
vertex $-1 $451 $712 #
ellipse-curve $-1 35.277278980295357 -16.104478535694593 3.1050292263035089 0 -0.86602541151947299 0.49999998660252726 1 0 0 1 I I #
point $-1 36.277278980295357 -18.970262262342025 4.7595901732108246 #
edge $-1 $713 1 $713 0 $454 $-1 forward 7 unknown #
vertex $-1 $455 $714 #
ellipse-curve $-1 40.278812077852429 -16.104478535694593 3.1050292263035089 0 -0.86602541151947299 0.49999998660252726 1 0 0 1 I I #
point $-1 41.278812077852429 -18.970262262342025 4.7595901732108246 #
plane-surface $-1 49.790337839899898 0 0 -1 0 0 0 0 1 forward_v I I I I #
coedge $-1 $463 $461 $465 $628 reversed $321 $-1 #
edge $-1 $476 -8.4586661490608499 $630 8.4586661490608499 $475 $715 forward 7 unknown #
vertex $-1 $628 $716 #
straight-curve $-1 -49.790337839899898 -21.105924696451968 0 0 0 -1 I I #
edge $-1 $626 -21.105924696451968 $630 21.105924696451968 $624 $717 forward 7 unknown #
straight-curve $-1 0 -21.105924696451968 -8.4586661490608499 -1 0 0 I I #
vertex $-1 $468 $718 #
straight-curve $-1 0 21.105924696451968 -8.4586661490608499 1 0 0 I I #
point $-1 49.790337839899898 21.105924696451968 -8.4586661490608499 #
point $-1 49.790337839899898 -21.105924696451968 -8.4586661490608499 #
straight-curve $-1 -49.790337839899898 0 8.4586661490608499 0 -1 0 I I #
point $-1 -49.790337839899898 21.105924696451968 8.4586661490608499 #
point $-1 -49.790337839899898 -21.105924696451968 8.4586661490608499 #
straight-curve $-1 49.790337839899898 -21.105924696451968 0 0 0 -1 I I #
straight-curve $-1 49.790337839899898 21.105924696451968 0 0 0 -1 I I #
plane-surface $-1 0 21.105924696451968 0 0 -1 0 0 0 -1 forward_v I I I I #
coedge $-1 $650 $649 $491 $642 forward $486 $-1 #
straight-curve $-1 -42.47335799893812 -21.105924696451968 -3.1398813848174965 0 0 1 I I #
edge $-1 $645 -21.105924696451968 $643 21.105924696451968 $640 $719 forward 7 unknown #
vertex $-1 $492 $720 #
straight-curve $-1 -23.065923959709504 -21.105924696451968 -7.9586661490608499 1 0 0 I I #
vertex $-1 $494 $721 #
straight-curve $-1 -23.065923959709504 21.105924696451968 -7.9586661490608499 -1 0 0 I I #
point $-1 -42.47335799893812 21.105924696451968 -7.9586661490608499 #
point $-1 -42.47335799893812 -21.105924696451968 -7.9586661490608499 #
coedge $-1 $640 $498 $501 $652 forward $486 $-1 #
coedge $-1 $498 $640 $505 $654 reversed $486 $-1 #
straight-curve $-1 -49.790337839899898 0 -4.6008593902091359 0 1 0 I I #
edge $-1 $503 4.6008593902091359 $645 7.9586661490608499 $501 $722 forward 7 unknown #
point $-1 -49.790337839899898 21.105924696451968 -4.6008593902091359 #
edge $-1 $506 4.6008593902091359 $643 7.9586661490608499 $650 $723 forward 7 unknown #
point $-1 -49.790337839899898 -21.105924696451968 -4.6008593902091359 #
straight-curve $-1 -42.47335799893812 21.105924696451968 -3.1398813848174965 0 0 -1 I I #
coedge $-1 $522 $521 $514 $658 forward $511 $-1 #
edge $-1 $659 37.06699145415196 $662 41.94479793116281 $657 $724 forward 7 unknown #
vertex $-1 $526 $725 #
straight-curve $-1 -21.06122871720158 42.361257675952565 8.4586661490608464 0 1 0 I I #
edge $-1 $662 6.7168211267237741 $523 21.971994054231835 $522 $726 forward 7 unknown #
vertex $-1 $661 $727 #
straight-curve $-1 -21.06122871720158 -0.63478440284396243 39.763477004534337 0 -0.51503806187062418 0.85716730853699208 I I #
point $-1 -21.06122871720158 18.175042978170449 8.4586661490608499 #
point $-1 -36.316401644709643 21.105924696451968 3.5808596720500034 #
straight-curve $-1 0 21.105924696451968 8.4586661490608499 -1 0 0 I I #
vertex $-1 $529 $728 #
point $-1 -30.95778080827877 16.960655552111277 4.409559683706763 #
vertex $-1 $533 $729 #
point $-1 -24.419849553632456 16.960655552111277 4.409559683706763 #
coedge $-1 $548 $547 $540 $672 forward $537 $-1 #
edge $-1 $673 37.06699145415196 $676 41.94479793116281 $671 $730 forward 7 unknown #
vertex $-1 $552 $731 #
straight-curve $-1 25.070619202217426 42.361257675952565 8.4586661490608464 0 1 0 I I #
edge $-1 $676 -16.349102832985729 $549 -1.0939299054776654 $548 $732 forward 7 unknown #
vertex $-1 $675 $733 #
straight-curve $-1 25.070619202217426 -0.63478440284396243 39.763477004534337 0 -0.51503806187062418 0.85716730853699208 I I #
point $-1 25.070619202217426 18.175042978170449 8.4586661490608499 #
point $-1 9.8154462747093625 21.105924696451968 3.5808596720500034 #
straight-curve $-1 0 21.105924696451968 8.4586661490608499 -1 0 0 I I #
vertex $-1 $555 $734 #
point $-1 15.174067111140239 16.960655552111277 4.409559683706763 #
vertex $-1 $559 $735 #
point $-1 21.711998365786549 16.960655552111277 4.409559683706763 #
edge $-1 $686 16.966759202504807 $689 24.364911154204886 $564 $736 forward 7 unknown #
vertex $-1 $578 $737 #
straight-curve $-1 -19.190457435052117 -53.672660165718874 8.4586661490608499 0 -1 0 I I #
edge $-1 $689 -13.763172965490291 $575 2.9086040263666391 $574 $738 forward 7 unknown #
vertex $-1 $688 $739 #
straight-curve $-1 -19.190457435052117 -21.10592469645195 1.0605141973608028 0 0.49999998660252726 0.86602541151947299 I I #
point $-1 -19.190457435052117 -16.834599828232065 8.4586661490608499 #
point $-1 -2.518680443195187 -21.105924696451968 1.0605141973607719 #
straight-curve $-1 0 -21.105924696451968 8.4586661490608499 1 0 0 I I #
vertex $-1 $581 $740 #
point $-1 -14.856102036680731 -16.104478535694593 3.1050292263035089 #
vertex $-1 $585 $741 #
point $-1 -9.8545689391236522 -16.104478535694593 3.1050292263035089 #
vertex $-1 $589 $742 #
point $-1 -4.8530358415665731 -16.104478535694593 3.1050292263035089 #
edge $-1 $701 16.966759202504807 $704 24.364911154204886 $594 $743 forward 7 unknown #
vertex $-1 $608 $744 #
straight-curve $-1 26.941390484366892 -53.672660165718874 8.4586661490608499 0 -1 0 I I #
edge $-1 $704 9.3027509942192133 $605 25.974527986076144 $604 $745 forward 7 unknown #
vertex $-1 $703 $746 #
straight-curve $-1 26.941390484366892 -21.10592469645195 1.0605141973608028 0 0.49999998660252726 0.86602541151947299 I I #
point $-1 26.941390484366892 -16.834599828232065 8.4586661490608499 #
point $-1 43.613167476223822 -21.105924696451968 1.0605141973607719 #
straight-curve $-1 0 -21.105924696451968 8.4586661490608499 1 0 0 I I #
vertex $-1 $611 $747 #
point $-1 31.275745882738285 -16.104478535694593 3.1050292263035089 #
vertex $-1 $615 $748 #
point $-1 36.277278980295357 -16.104478535694593 3.1050292263035089 #
vertex $-1 $619 $749 #
point $-1 41.278812077852429 -16.104478535694593 3.1050292263035089 #
straight-curve $-1 -49.790337839899898 21.105924696451968 0 0 0 -1 I I #
point $-1 -49.790337839899898 -21.105924696451968 -8.4586661490608499 #
straight-curve $-1 -49.790337839899898 0 -8.4586661490608499 0 1 0 I I #
point $-1 -49.790337839899898 21.105924696451968 -8.4586661490608499 #
straight-curve $-1 -49.790337839899898 0 -7.9586661490608499 0 -1 0 I I #
point $-1 -49.790337839899898 -21.105924696451968 -7.9586661490608499 #
point $-1 -49.790337839899898 21.105924696451968 -7.9586661490608499 #
straight-curve $-1 -49.790337839899898 21.105924696451968 0 0 0 -1 I I #
straight-curve $-1 -49.790337839899898 -21.105924696451968 0 0 0 -1 I I #
straight-curve $-1 -21.06122871720158 21.105924696451968 45.525657603212814 0 0 -1 I I #
point $-1 -21.06122871720158 21.105924696451968 8.4586661490608499 #
straight-curve $-1 -14.344407590477806 21.105924696451968 3.5808596720499999 -1 0 0 I I #
point $-1 -21.06122871720158 21.105924696451968 3.5808596720500034 #
point $-1 -31.95778080827877 16.103488243574283 3.8945216218361387 #
point $-1 -25.419849553632456 16.103488243574283 3.8945216218361387 #
straight-curve $-1 25.070619202217426 21.105924696451968 45.525657603212814 0 0 -1 I I #
point $-1 25.070619202217426 21.105924696451968 8.4586661490608499 #
straight-curve $-1 8.721516369231697 21.105924696451968 3.5808596720499999 -1 0 0 I I #
point $-1 25.070619202217426 21.105924696451968 3.5808596720500034 #
point $-1 14.174067111140239 16.103488243574283 3.8945216218361387 #
point $-1 20.711998365786549 16.103488243574283 3.8945216218361387 #
straight-curve $-1 -19.190457435052117 -21.105924696451964 25.425425351565657 0 0 -1 I I #
point $-1 -19.190457435052117 -21.105924696451968 8.4586661490608499 #
straight-curve $-1 -5.4272844695618261 -21.105924696451968 1.0605141973607659 1 0 0 I I #
point $-1 -19.190457435052117 -21.105924696451968 1.0605141973607719 #
point $-1 -15.856102036680731 -15.23845312417512 2.6050292397009813 #
point $-1 -10.854568939123652 -15.23845312417512 2.6050292397009813 #
point $-1 -5.8530358415665731 -15.23845312417512 2.6050292397009813 #
straight-curve $-1 26.941390484366892 -21.105924696451964 25.425425351565657 0 0 -1 I I #
point $-1 26.941390484366892 -21.105924696451968 8.4586661490608499 #
straight-curve $-1 17.638639490147678 -21.105924696451968 1.0605141973607659 1 0 0 I I #
point $-1 26.941390484366892 -21.105924696451968 1.0605141973607719 #
point $-1 30.275745882738285 -15.23845312417512 2.6050292397009813 #
point $-1 35.277278980295357 -15.23845312417512 2.6050292397009813 #
point $-1 40.278812077852429 -15.23845312417512 2.6050292397009813 #
End-of-ACIS-data 