500 0 12 0           
7 Unknown 11 ACIS 5.0 NT 24 Thu Mar 25 20:45:19 1999 
-1 9.9999999999999995e-007 1e-010 
body $-1 $12 $-1 $13 #
body $-1 $14 $-1 $15 #
body $-1 $16 $-1 $17 #
body $-1 $18 $-1 $19 #
body $-1 $20 $-1 $21 #
body $-1 $22 $-1 $23 #
body $-1 $24 $-1 $25 #
body $-1 $26 $-1 $27 #
body $-1 $28 $-1 $29 #
body $-1 $30 $-1 $31 #
body $-1 $32 $-1 $33 #
body $-1 $34 $-1 $35 #
lump $-1 $-1 $36 $0 #
transform $-1 1 0 0 0 1 0 0 0 1 56.51661732840968 22.880373155004079 7.2241424771790435 1 rotate no_reflect no_shear #
lump $-1 $-1 $37 $1 #
transform $-1 1 0 0 0 1 0 0 0 1 56.51661732840968 22.880373155004079 7.2241424771790435 1 rotate no_reflect no_shear #
lump $-1 $-1 $38 $2 #
transform $-1 1 0 0 0 1 0 0 0 1 56.51661732840968 22.880373155004079 7.2241424771790435 1 rotate no_reflect no_shear #
lump $-1 $-1 $39 $3 #
transform $-1 1 0 0 0 1 0 0 0 1 56.51661732840968 22.880373155004079 7.2241424771790435 1 rotate no_reflect no_shear #
lump $-1 $-1 $40 $4 #
transform $-1 1 0 0 0 1 0 0 0 1 56.51661732840968 22.880373155004079 7.2241424771790435 1 rotate no_reflect no_shear #
lump $-1 $-1 $41 $5 #
transform $-1 1 0 0 0 1 0 0 0 1 56.51661732840968 22.880373155004079 7.2241424771790435 1 rotate no_reflect no_shear #
lump $-1 $-1 $42 $6 #
transform $-1 1 0 0 0 1 0 0 0 1 56.51661732840968 22.880373155004079 7.2241424771790435 1 rotate no_reflect no_shear #
lump $-1 $-1 $43 $7 #
transform $-1 1 0 0 0 1 0 0 0 1 56.51661732840968 22.880373155004079 7.2241424771790435 1 rotate no_reflect no_shear #
lump $-1 $-1 $44 $8 #
transform $-1 1 0 0 0 1 0 0 0 1 56.51661732840968 22.880373155004079 7.2241424771790435 1 rotate no_reflect no_shear #
lump $-1 $-1 $45 $9 #
transform $-1 1 0 0 0 1 0 0 0 1 56.51661732840968 22.880373155004079 7.2241424771790435 1 rotate no_reflect no_shear #
lump $-1 $-1 $46 $10 #
transform $-1 1 0 0 0 1 0 0 0 1 56.51661732840968 22.880373155004079 7.2241424771790435 1 rotate no_reflect no_shear #
lump $-1 $-1 $47 $11 #
transform $-1 1 0 0 0 1 0 0 0 1 56.51661732840968 22.880373155004079 7.2241424771790435 1 rotate no_reflect no_shear #
shell $-1 $-1 $-1 $48 $-1 $12 #
shell $-1 $-1 $-1 $49 $-1 $14 #
shell $-1 $-1 $-1 $50 $-1 $16 #
shell $-1 $-1 $-1 $51 $-1 $18 #
shell $-1 $-1 $-1 $52 $-1 $20 #
shell $-1 $-1 $-1 $53 $-1 $22 #
shell $-1 $-1 $-1 $54 $-1 $24 #
shell $-1 $-1 $-1 $55 $-1 $26 #
shell $-1 $-1 $-1 $56 $-1 $28 #
shell $-1 $-1 $-1 $57 $-1 $30 #
shell $-1 $-1 $-1 $58 $-1 $32 #
shell $-1 $-1 $-1 $59 $-1 $34 #
face $-1 $60 $61 $36 $-1 $62 forward single #
face $-1 $63 $64 $37 $-1 $65 reversed single #
face $-1 $66 $67 $38 $-1 $68 reversed single #
face $-1 $69 $70 $39 $-1 $71 forward single #
face $-1 $72 $73 $40 $-1 $74 forward single #
face $-1 $75 $76 $41 $-1 $77 forward single #
face $-1 $78 $79 $42 $-1 $80 reversed single #
face $-1 $81 $82 $43 $-1 $83 forward single #
face $-1 $84 $85 $44 $-1 $86 forward single #
face $-1 $87 $88 $45 $-1 $89 reversed single #
face $-1 $90 $91 $46 $-1 $92 forward single #
face $-1 $93 $94 $47 $-1 $95 forward single #
face $-1 $96 $97 $36 $-1 $98 reversed single #
loop $-1 $-1 $99 $48 #
plane-surface $-1 0 0 7.2241424771790435 0 0 1 1 0 0 forward_v I I I I #
face $-1 $100 $101 $37 $-1 $102 reversed single #
loop $-1 $-1 $103 $49 #
plane-surface $-1 -52.985520333694126 0 4.2241424771790435 0 0 1 1 0 0 forward_v I I I I #
face $-1 $104 $105 $38 $-1 $106 reversed single #
loop $-1 $-1 $107 $50 #
plane-surface $-1 -23.375140071125184 -105.54764866143243 80.038430907468879 -1 0 0 0 -0.73135370988377701 0.68199835119979291 forward_v I I I I #
face $-1 $108 $109 $39 $-1 $110 forward single #
loop $-1 $111 $112 $51 #
cone-surface $-1 -44.238566685407889 -20.366141663721724 4.6008730106816778 0 0.73135370988377701 -0.68199835119979291 1 0 0 1 I I 0 1 1 forward I I I I #
face $-1 $113 $114 $40 $-1 $115 forward single #
loop $-1 $116 $117 $52 #
cone-surface $-1 -36.414781705051873 -20.366141663721724 4.6008730106816778 0 0.73135370988377701 -0.68199835119979291 1 0 0 1 I I 0 1 1 forward I I I I #
face $-1 $118 $119 $41 $-1 $120 forward single #
loop $-1 $121 $122 $53 #
cone-surface $-1 -28.590996724695856 -20.366141663721724 4.6008730106816778 0 0.73135370988377701 -0.68199835119979291 1 0 0 1 I I 0 1 1 forward I I I I #
face $-1 $123 $124 $42 $-1 $125 reversed single #
loop $-1 $-1 $126 $54 #
plane-surface $-1 -23.457247016256073 96.200240591760249 98.992133507453474 1 0 0 0 -0.85716730853699208 -0.51503806187062418 forward_v I I I I #
face $-1 $127 $128 $43 $-1 $129 forward single #
loop $-1 $130 $131 $55 #
cone-surface $-1 -17.638031491830276 20.029436612068022 3.6986847635350095 0 -0.85716730853699208 -0.51503806187062418 1 0 0 1 I I 0 1 1 forward I I I I #
face $-1 $132 $133 $44 $-1 $134 forward single #
loop $-1 $135 $136 $56 #
cone-surface $-1 -8.9092082051915753 20.029436612068022 3.6986847635350095 0 -0.85716730853699208 -0.51503806187062418 1 0 0 1 I I 0 1 1 forward I I I I #
face $-1 $137 $138 $45 $-1 $139 reversed single #
loop $-1 $-1 $140 $57 #
plane-surface $-1 29.528273317438053 96.200240591760249 98.992133507453474 1 0 0 0 -0.85716730853699208 -0.51503806187062418 forward_v I I I I #
face $-1 $141 $142 $46 $-1 $143 forward single #
loop $-1 $144 $145 $58 #
cone-surface $-1 35.34748884186385 20.029436612068022 3.6986847635350095 0 -0.85716730853699208 -0.51503806187062418 1 0 0 1 I I 0 1 1 forward I I I I #
face $-1 $146 $147 $47 $-1 $148 forward single #
loop $-1 $149 $150 $59 #
cone-surface $-1 44.076312128502551 20.029436612068022 3.6986847635350095 0 -0.85716730853699208 -0.51503806187062418 1 0 0 1 I I 0 1 1 forward I I I I #
face $-1 $151 $152 $36 $-1 $153 reversed single #
loop $-1 $-1 $154 $60 #
plane-surface $-1 0 0 -7.2241424771790435 0 0 1 1 0 0 forward_v I I I I #
coedge $-1 $155 $156 $157 $158 forward $61 $-1 #
face $-1 $159 $160 $37 $-1 $161 reversed single #
loop $-1 $-1 $162 $63 #
plane-surface $-1 -49.454423338978572 0 5.7241424771790435 -1 0 0 0 0 1 forward_v I I I I #
coedge $-1 $163 $164 $165 $166 forward $64 $-1 #
face $-1 $167 $168 $38 $-1 $169 forward single #
loop $-1 $-1 $170 $66 #
plane-surface $-1 -36.41478170505188 -22.880373155004079 2.949951240738784 0 -0.73135370988377701 0.68199835119979291 1 0 0 forward_v I I I I #
coedge $-1 $171 $172 $173 $174 reversed $67 $-1 #
face $-1 $-1 $175 $39 $-1 $176 forward single #
loop $-1 $177 $178 $69 #
cone-surface $-1 -44.238566685407889 -19.479107173588325 3.7736999868045409 0 0.73135370988377701 -0.68199835119979291 0.5 0 0 1 I I -0.70710678118654746 0.70710678118654746 0.5 forward I I I I #
loop $-1 $-1 $179 $51 #
coedge $-1 $112 $112 $180 $181 reversed $70 $-1 #
face $-1 $-1 $182 $40 $-1 $183 forward single #
loop $-1 $184 $185 $72 #
cone-surface $-1 -36.414781705051873 -19.479107173588325 3.7736999868045409 0 0.73135370988377701 -0.68199835119979291 0.5 0 0 1 I I -0.70710678118654746 0.70710678118654746 0.5 forward I I I I #
loop $-1 $-1 $186 $52 #
coedge $-1 $117 $117 $187 $188 reversed $73 $-1 #
face $-1 $-1 $189 $41 $-1 $190 forward single #
loop $-1 $191 $192 $75 #
cone-surface $-1 -28.590996724695856 -19.479107173588325 3.7736999868045409 0 0.73135370988377701 -0.68199835119979291 0.5 0 0 1 I I -0.70710678118654746 0.70710678118654746 0.5 forward I I I I #
loop $-1 $-1 $193 $53 #
coedge $-1 $122 $122 $194 $195 reversed $76 $-1 #
face $-1 $196 $197 $42 $-1 $198 reversed single #
loop $-1 $-1 $199 $78 #
plane-surface $-1 -13.273619848510918 -0.68815293425585367 40.775715402837761 0 0.85716730853699208 0.51503806187062418 1 0 0 forward_v I I I I #
coedge $-1 $200 $201 $202 $203 reversed $79 $-1 #
face $-1 $-1 $204 $43 $-1 $205 forward single #
loop $-1 $206 $207 $81 #
cone-surface $-1 -17.638031491830276 18.454270368095536 2.7522294317231939 0 -0.85716730853699208 -0.51503806187062418 0.5 0 0 1 I I -0.70710678118654746 0.70710678118654746 0.5 forward I I I I #
loop $-1 $-1 $208 $55 #
coedge $-1 $131 $131 $209 $210 reversed $82 $-1 #
face $-1 $-1 $211 $44 $-1 $212 forward single #
loop $-1 $213 $214 $84 #
cone-surface $-1 -8.9092082051915753 18.454270368095536 2.7522294317231939 0 -0.85716730853699208 -0.51503806187062418 0.5 0 0 1 I I -0.70710678118654746 0.70710678118654746 0.5 forward I I I I #
loop $-1 $-1 $215 $56 #
coedge $-1 $136 $136 $216 $217 reversed $85 $-1 #
face $-1 $218 $219 $45 $-1 $220 reversed single #
loop $-1 $-1 $221 $87 #
plane-surface $-1 39.711900485183207 -0.68815293425585367 40.775715402837761 0 0.85716730853699208 0.51503806187062418 1 0 0 forward_v I I I I #
coedge $-1 $222 $223 $224 $225 reversed $88 $-1 #
face $-1 $-1 $226 $46 $-1 $227 forward single #
loop $-1 $228 $229 $90 #
cone-surface $-1 35.34748884186385 18.454270368095536 2.7522294317231939 0 -0.85716730853699208 -0.51503806187062418 0.5 0 0 1 I I -0.70710678118654746 0.70710678118654746 0.5 forward I I I I #
loop $-1 $-1 $230 $58 #
coedge $-1 $145 $145 $231 $232 reversed $91 $-1 #
face $-1 $-1 $233 $47 $-1 $234 forward single #
loop $-1 $235 $236 $93 #
cone-surface $-1 44.076312128502551 18.454270368095536 2.7522294317231939 0 -0.85716730853699208 -0.51503806187062418 0.5 0 0 1 I I -0.70710678118654746 0.70710678118654746 0.5 forward I I I I #
loop $-1 $-1 $237 $59 #
coedge $-1 $150 $150 $238 $239 reversed $94 $-1 #
face $-1 $240 $241 $36 $-1 $242 reversed single #
loop $-1 $-1 $243 $96 #
plane-surface $-1 0 -22.880373155004079 0 0 1 0 0 0 1 forward_v I I I I #
coedge $-1 $244 $245 $246 $247 forward $97 $-1 #
coedge $-1 $248 $99 $249 $250 forward $61 $-1 #
coedge $-1 $99 $248 $251 $252 forward $61 $-1 #
coedge $-1 $253 $254 $99 $158 reversed $255 $-1 #
edge $-1 $256 -22.880373155004079 $257 22.880373155004079 $157 $258 forward 7 unknown #
face $-1 $259 $260 $37 $-1 $261 reversed single #
loop $-1 $-1 $262 $100 #
plane-surface $-1 0 22.880373155004079 0 0 -1 0 0 0 -1 forward_v I I I I #
coedge $-1 $165 $263 $264 $265 reversed $101 $-1 #
coedge $-1 $266 $103 $267 $268 reversed $64 $-1 #
coedge $-1 $103 $266 $269 $270 reversed $64 $-1 #
coedge $-1 $271 $162 $103 $166 reversed $101 $-1 #
edge $-1 $272 -22.880373155004079 $273 22.880373155004079 $165 $274 forward 7 unknown #
face $-1 $275 $276 $38 $-1 $277 forward single #
loop $-1 $-1 $278 $104 #
plane-surface $-1 -49.454423338978572 0 5.7241424771790435 -1 0 0 0 0 1 forward_v I I I I #
coedge $-1 $279 $280 $281 $282 reversed $105 $-1 #
coedge $-1 $172 $107 $283 $284 reversed $67 $-1 #
coedge $-1 $107 $171 $279 $285 reversed $67 $-1 #
coedge $-1 $281 $286 $107 $174 forward $276 $-1 #
edge $-1 $287 29.893451175712137 $288 33.879198887893835 $173 $289 forward 7 unknown #
loop $-1 $-1 $180 $108 #
plane-surface $-1 -36.41478170505188 -22.880373155004079 2.949951240738784 0 -0.73135370988377701 0.68199835119979291 1 0 0 forward_v I I I I #
loop $-1 $-1 $290 $69 #
coedge $-1 $178 $178 $179 $291 reversed $109 $-1 #
coedge $-1 $179 $179 $178 $291 forward $111 $-1 #
coedge $-1 $180 $180 $112 $181 forward $175 $-1 #
edge $-1 $292 1.7534545791869548e-016 $292 6.2831853071796004 $180 $293 forward 7 unknown #
loop $-1 $-1 $187 $113 #
plane-surface $-1 -36.41478170505188 -22.880373155004079 2.949951240738784 0 -0.73135370988377701 0.68199835119979291 1 0 0 forward_v I I I I #
loop $-1 $-1 $294 $72 #
coedge $-1 $185 $185 $186 $295 reversed $114 $-1 #
coedge $-1 $186 $186 $185 $295 forward $116 $-1 #
coedge $-1 $187 $187 $117 $188 forward $182 $-1 #
edge $-1 $296 1.7534545791869548e-016 $296 6.2831853071796004 $187 $297 forward 7 unknown #
loop $-1 $-1 $194 $118 #
plane-surface $-1 -36.41478170505188 -22.880373155004079 2.949951240738784 0 -0.73135370988377701 0.68199835119979291 1 0 0 forward_v I I I I #
loop $-1 $-1 $298 $75 #
coedge $-1 $192 $192 $193 $299 reversed $119 $-1 #
coedge $-1 $193 $193 $192 $299 forward $121 $-1 #
coedge $-1 $194 $194 $122 $195 forward $189 $-1 #
edge $-1 $300 1.7534545791869548e-016 $300 6.2831853071796004 $194 $301 forward 7 unknown #
face $-1 $302 $303 $42 $-1 $304 forward single #
loop $-1 $-1 $305 $123 #
plane-surface $-1 -3.0899926807657643 96.200240591760249 98.992133507453474 -1 0 0 0 0.85716730853699208 0.51503806187062418 forward_v I I I I #
coedge $-1 $306 $307 $308 $309 reversed $124 $-1 #
coedge $-1 $201 $126 $310 $311 reversed $79 $-1 #
coedge $-1 $126 $200 $306 $312 reversed $79 $-1 #
coedge $-1 $308 $313 $126 $203 forward $303 $-1 #
edge $-1 $314 25.219747140876045 $315 28.628455047340196 $202 $316 forward 7 unknown #
loop $-1 $-1 $209 $127 #
plane-surface $-1 -13.273619848510918 -0.68815293425585367 40.775715402837761 0 0.85716730853699208 0.51503806187062418 1 0 0 forward_v I I I I #
loop $-1 $-1 $317 $81 #
coedge $-1 $207 $207 $208 $318 reversed $128 $-1 #
coedge $-1 $208 $208 $207 $318 forward $130 $-1 #
coedge $-1 $209 $209 $131 $210 forward $204 $-1 #
edge $-1 $319 -2.9404398510729274e-016 $319 6.2831853071796004 $209 $320 forward 7 unknown #
loop $-1 $-1 $216 $132 #
plane-surface $-1 -13.273619848510918 -0.68815293425585367 40.775715402837761 0 0.85716730853699208 0.51503806187062418 1 0 0 forward_v I I I I #
loop $-1 $-1 $321 $84 #
coedge $-1 $214 $214 $215 $322 reversed $133 $-1 #
coedge $-1 $215 $215 $214 $322 forward $135 $-1 #
coedge $-1 $216 $216 $136 $217 forward $211 $-1 #
edge $-1 $323 -2.9404398510729274e-016 $323 6.2831853071796004 $216 $324 forward 7 unknown #
face $-1 $325 $326 $45 $-1 $327 forward single #
loop $-1 $-1 $328 $137 #
plane-surface $-1 49.895527652928365 96.200240591760249 98.992133507453474 -1 0 0 0 0.85716730853699208 0.51503806187062418 forward_v I I I I #
coedge $-1 $329 $330 $331 $332 reversed $138 $-1 #
coedge $-1 $223 $140 $333 $334 reversed $88 $-1 #
coedge $-1 $140 $222 $329 $335 reversed $88 $-1 #
coedge $-1 $331 $336 $140 $225 forward $326 $-1 #
edge $-1 $337 25.219747140876045 $338 28.628455047340196 $224 $339 forward 7 unknown #
loop $-1 $-1 $231 $141 #
plane-surface $-1 39.711900485183207 -0.68815293425585367 40.775715402837761 0 0.85716730853699208 0.51503806187062418 1 0 0 forward_v I I I I #
loop $-1 $-1 $340 $90 #
coedge $-1 $229 $229 $230 $341 reversed $142 $-1 #
coedge $-1 $230 $230 $229 $341 forward $144 $-1 #
coedge $-1 $231 $231 $145 $232 forward $226 $-1 #
edge $-1 $342 -2.9404398510729274e-016 $342 6.2831853071796004 $231 $343 forward 7 unknown #
loop $-1 $-1 $238 $146 #
plane-surface $-1 39.711900485183207 -0.68815293425585367 40.775715402837761 0 0.85716730853699208 0.51503806187062418 1 0 0 forward_v I I I I #
loop $-1 $-1 $344 $93 #
coedge $-1 $236 $236 $237 $345 reversed $147 $-1 #
coedge $-1 $237 $237 $236 $345 forward $149 $-1 #
coedge $-1 $238 $238 $150 $239 forward $233 $-1 #
edge $-1 $346 -2.9404398510729274e-016 $346 6.2831853071796004 $238 $347 forward 7 unknown #
face $-1 $348 $349 $36 $-1 $350 reversed single #
loop $-1 $-1 $351 $151 #
plane-surface $-1 -56.51661732840968 0 0 1 0 0 0 0 -1 forward_v I I I I #
coedge $-1 $352 $251 $353 $354 forward $152 $-1 #
coedge $-1 $355 $154 $352 $356 forward $97 $-1 #
coedge $-1 $154 $355 $357 $358 forward $97 $-1 #
coedge $-1 $254 $253 $154 $247 reversed $255 $-1 #
edge $-1 $359 -22.880373155004079 $360 22.880373155004079 $246 $361 forward 7 unknown #
coedge $-1 $156 $155 $362 $363 forward $61 $-1 #
coedge $-1 $364 $365 $155 $250 reversed $349 $-1 #
edge $-1 $257 -56.51661732840968 $366 56.51661732840968 $249 $367 forward 7 unknown #
coedge $-1 $243 $368 $156 $252 reversed $152 $-1 #
edge $-1 $369 -56.51661732840968 $256 56.51661732840968 $251 $370 forward 7 unknown #
coedge $-1 $246 $157 $368 $371 forward $255 $-1 #
coedge $-1 $157 $246 $364 $372 reversed $255 $-1 #
loop $-1 $-1 $253 $348 #
vertex $-1 $158 $373 #
vertex $-1 $158 $374 #
straight-curve $-1 56.51661732840968 0 7.2241424771790435 0 1 0 I I #
face $-1 $375 $376 $37 $-1 $377 forward single #
loop $-1 $-1 $378 $159 #
plane-surface $-1 -56.51661732840968 0 0 1 0 0 0 0 -1 forward_v I I I I #
coedge $-1 $269 $379 $271 $380 forward $160 $-1 #
coedge $-1 $162 $271 $381 $382 reversed $101 $-1 #
coedge $-1 $383 $267 $162 $265 forward $384 $-1 #
edge $-1 $273 1.3620712385895217 $385 4.3620712385895217 $264 $386 forward 7 unknown #
coedge $-1 $164 $163 $378 $387 reversed $64 $-1 #
coedge $-1 $264 $388 $163 $268 forward $384 $-1 #
edge $-1 $389 -30.023857161562617 $273 -22.961663172131509 $267 $390 forward 7 unknown #
coedge $-1 $391 $262 $164 $270 forward $160 $-1 #
edge $-1 $272 22.961663172131509 $392 30.023857161562617 $269 $393 forward 7 unknown #
coedge $-1 $263 $165 $262 $380 reversed $101 $-1 #
vertex $-1 $270 $394 #
vertex $-1 $268 $395 #
straight-curve $-1 -49.454423338978572 0 4.2241424771790435 0 -1 0 I I #
face $-1 $-1 $396 $38 $-1 $397 reversed single #
loop $-1 $-1 $281 $167 #
plane-surface $-1 0 0 7.2241424771790435 0 0 1 1 0 0 forward_v I I I I #
coedge $-1 $398 $399 $280 $400 reversed $168 $-1 #
coedge $-1 $401 $170 $172 $285 forward $105 $-1 #
coedge $-1 $170 $401 $278 $400 forward $105 $-1 #
coedge $-1 $402 $173 $170 $282 forward $276 $-1 #
edge $-1 $288 5.1677492185992442 $403 31.247032486452632 $281 $404 forward 7 unknown #
coedge $-1 $405 $406 $171 $284 forward $396 $-1 #
edge $-1 $407 -37.069264212995655 $287 -32.795072976555396 $283 $408 forward 7 unknown #
edge $-1 $288 -5.8442189855295767 $407 0 $172 $409 forward 7 unknown #
coedge $-1 $173 $402 $405 $410 forward $276 $-1 #
vertex $-1 $284 $411 #
vertex $-1 $174 $412 #
straight-curve $-1 -23.375140071125184 -52.773824330716216 7.2241424771790435 0 1 0 I I #
coedge $-1 $290 $290 $-1 $413 reversed $177 $-1 #
edge $-1 $414 0 $414 6.2831853071796004 $178 $415 forward 7 unknown #
vertex $-1 $181 $416 #
ellipse-curve $-1 -44.238566685407889 -20.88749929891323 5.0870468589589155 0 -0.73135370988377701 0.68199835119979291 1 0 0 1 I I #
coedge $-1 $294 $294 $-1 $417 reversed $184 $-1 #
edge $-1 $418 0 $418 6.2831853071796004 $185 $419 forward 7 unknown #
vertex $-1 $188 $420 #
ellipse-curve $-1 -36.414781705051873 -20.88749929891323 5.0870468589589155 0 -0.73135370988377701 0.68199835119979291 1 0 0 1 I I #
coedge $-1 $298 $298 $-1 $421 reversed $191 $-1 #
edge $-1 $422 0 $422 6.2831853071796004 $192 $423 forward 7 unknown #
vertex $-1 $195 $424 #
ellipse-curve $-1 -28.590996724695856 -20.88749929891323 5.0870468589589155 0 -0.73135370988377701 0.68199835119979291 1 0 0 1 I I #
face $-1 $-1 $425 $42 $-1 $426 reversed single #
loop $-1 $-1 $202 $196 #
plane-surface $-1 0 0 7.2241424771790435 0 0 1 1 0 0 forward_v I I I I #
coedge $-1 $427 $428 $429 $430 reversed $197 $-1 #
coedge $-1 $431 $199 $201 $312 forward $124 $-1 #
coedge $-1 $199 $431 $427 $432 forward $124 $-1 #
coedge $-1 $429 $202 $199 $309 forward $303 $-1 #
edge $-1 $315 -16.820437092000613 $433 3.546817243489695 $308 $434 forward 7 unknown #
coedge $-1 $435 $436 $200 $311 forward $425 $-1 #
edge $-1 $437 -47.944967102082778 $314 -42.271924276547693 $310 $438 forward 7 unknown #
edge $-1 $315 39.142385146400819 $437 45.760746310008187 $201 $439 forward 7 unknown #
coedge $-1 $202 $429 $435 $440 forward $303 $-1 #
vertex $-1 $311 $441 #
vertex $-1 $203 $442 #
straight-curve $-1 -23.457247016256073 48.100120295880124 7.2241424771790435 0 -1 0 I I #
coedge $-1 $317 $317 $-1 $443 reversed $206 $-1 #
edge $-1 $444 0 $444 6.2831853071796004 $207 $445 forward 7 unknown #
vertex $-1 $210 $446 #
ellipse-curve $-1 -17.638031491830276 21.176019201771997 4.3876210644115048 0 0.85716730853699208 0.51503806187062418 1 0 0 1 I I #
coedge $-1 $321 $321 $-1 $447 reversed $213 $-1 #
edge $-1 $448 0 $448 6.2831853071796004 $214 $449 forward 7 unknown #
vertex $-1 $217 $450 #
ellipse-curve $-1 -8.9092082051915753 21.176019201771997 4.3876210644115048 0 0.85716730853699208 0.51503806187062418 1 0 0 1 I I #
face $-1 $-1 $451 $45 $-1 $452 reversed single #
loop $-1 $-1 $224 $218 #
plane-surface $-1 0 0 7.2241424771790435 0 0 1 1 0 0 forward_v I I I I #
coedge $-1 $453 $454 $455 $456 reversed $219 $-1 #
coedge $-1 $457 $221 $223 $335 forward $138 $-1 #
coedge $-1 $221 $457 $453 $458 forward $138 $-1 #
coedge $-1 $455 $224 $221 $332 forward $326 $-1 #
edge $-1 $338 9.6723230748464495 $459 30.039577410336761 $331 $460 forward 7 unknown #
coedge $-1 $461 $462 $222 $334 forward $451 $-1 #
edge $-1 $463 -47.944967102082778 $337 -42.271924276547693 $333 $464 forward 7 unknown #
edge $-1 $338 39.142385146400819 $463 45.760746310008187 $223 $465 forward 7 unknown #
coedge $-1 $224 $455 $461 $466 forward $326 $-1 #
vertex $-1 $225 $467 #
vertex $-1 $225 $468 #
straight-curve $-1 29.528273317438053 48.100120295880124 7.2241424771790435 0 -1 0 I I #
coedge $-1 $340 $340 $-1 $469 reversed $228 $-1 #
edge $-1 $470 0 $470 6.2831853071796004 $229 $471 forward 7 unknown #
vertex $-1 $232 $472 #
ellipse-curve $-1 35.34748884186385 21.176019201771997 4.3876210644115048 0 0.85716730853699208 0.51503806187062418 1 0 0 1 I I #
coedge $-1 $344 $344 $-1 $473 reversed $235 $-1 #
edge $-1 $474 0 $474 6.2831853071796004 $236 $475 forward 7 unknown #
vertex $-1 $239 $476 #
ellipse-curve $-1 44.076312128502551 21.176019201771997 4.3876210644115048 0 0.85716730853699208 0.51503806187062418 1 0 0 1 I I #
face $-1 $-1 $255 $36 $-1 $477 reversed single #
loop $-1 $-1 $364 $240 #
plane-surface $-1 0 22.880373155004079 0 0 -1 0 0 0 -1 forward_v I I I I #
coedge $-1 $478 $362 $365 $479 forward $241 $-1 #
coedge $-1 $368 $243 $244 $356 reversed $152 $-1 #
coedge $-1 $362 $478 $243 $354 reversed $241 $-1 #
edge $-1 $369 -7.2241424771790435 $480 7.2241424771790435 $353 $481 forward 7 unknown #
coedge $-1 $245 $244 $478 $482 forward $97 $-1 #
edge $-1 $360 -56.51661732840968 $480 56.51661732840968 $352 $483 forward 7 unknown #
coedge $-1 $365 $364 $245 $358 reversed $349 $-1 #
edge $-1 $484 -56.51661732840968 $359 56.51661732840968 $357 $485 forward 7 unknown #
vertex $-1 $247 $486 #
vertex $-1 $371 $487 #
straight-curve $-1 56.51661732840968 0 -7.2241424771790435 0 -1 0 I I #
coedge $-1 $351 $353 $248 $363 reversed $241 $-1 #
edge $-1 $366 -22.880373155004079 $369 22.880373155004079 $362 $488 forward 7 unknown #
coedge $-1 $357 $249 $254 $372 forward $349 $-1 #
coedge $-1 $249 $357 $351 $479 reversed $349 $-1 #
vertex $-1 $250 $489 #
straight-curve $-1 0 22.880373155004079 7.2241424771790435 -1 0 0 I I #
coedge $-1 $251 $352 $253 $371 reversed $152 $-1 #
vertex $-1 $363 $490 #
straight-curve $-1 0 -22.880373155004079 7.2241424771790435 1 0 0 I I #
edge $-1 $256 -7.2241424771790435 $360 7.2241424771790435 $253 $491 forward 7 unknown #
edge $-1 $257 -7.2241424771790435 $359 7.2241424771790435 $254 $492 forward 7 unknown #
point $-1 56.51661732840968 -22.880373155004079 7.2241424771790435 #
point $-1 56.51661732840968 22.880373155004079 7.2241424771790435 #
face $-1 $-1 $384 $37 $-1 $493 reversed single #
loop $-1 $-1 $381 $259 #
plane-surface $-1 0 0 7.2241424771790435 0 0 1 1 0 0 forward_v I I I I #
coedge $-1 $494 $495 $266 $387 forward $260 $-1 #
coedge $-1 $262 $391 $496 $497 reversed $160 $-1 #
edge $-1 $498 -4.3620712385895217 $272 -1.3620712385895217 $262 $499 forward 7 unknown #
coedge $-1 $496 $500 $263 $382 forward $376 $-1 #
edge $-1 $385 -22.880373155004079 $498 22.880373155004079 $381 $501 forward 7 unknown #
coedge $-1 $388 $264 $500 $502 reversed $384 $-1 #
loop $-1 $-1 $264 $375 #
vertex $-1 $265 $503 #
straight-curve $-1 -49.454423338978572 -22.880373155004079 2.8620712385895217 0 0 1 I I #
edge $-1 $392 -22.880373155004079 $389 22.880373155004079 $378 $504 forward 7 unknown #
coedge $-1 $267 $383 $494 $505 forward $384 $-1 #
vertex $-1 $387 $506 #
straight-curve $-1 -26.492760166847063 -22.880373155004079 4.2241424771790435 1 0 0 I I #
coedge $-1 $379 $269 $495 $507 reversed $160 $-1 #
vertex $-1 $387 $508 #
straight-curve $-1 -26.492760166847063 22.880373155004079 4.2241424771790435 -1 0 0 I I #
point $-1 -49.454423338978572 22.880373155004079 4.2241424771790435 #
point $-1 -49.454423338978572 -22.880373155004079 4.2241424771790435 #
loop $-1 $-1 $283 $275 #
plane-surface $-1 0 -22.880373155004079 0 0 1 0 0 0 1 forward_v I I I I #
coedge $-1 $399 $278 $509 $510 reversed $168 $-1 #
coedge $-1 $278 $398 $402 $511 reversed $168 $-1 #
edge $-1 $512 0 $403 5.8442189855295767 $278 $513 forward 7 unknown #
coedge $-1 $280 $279 $406 $514 reversed $105 $-1 #
coedge $-1 $286 $281 $399 $511 forward $276 $-1 #
vertex $-1 $511 $515 #
straight-curve $-1 -18.20739085252594 -18.894625442822381 7.2241424771790435 -1 0 0 I I #
coedge $-1 $509 $283 $286 $410 reversed $396 $-1 #
coedge $-1 $283 $509 $401 $514 forward $396 $-1 #
vertex $-1 $284 $516 #
straight-curve $-1 -23.375140071125184 -22.880373155004079 40.019215453734439 0 0 1 I I #
straight-curve $-1 -23.375140071125184 -22.880373155004079 2.949951240738784 0 -0.68199835119979291 -0.73135370988377701 I I #
edge $-1 $517 -49.454423338978572 $287 -23.375140071125184 $405 $518 forward 7 unknown #
point $-1 -23.375140071125184 -22.880373155004079 7.2241424771790435 #
point $-1 -23.375140071125184 -18.894625442822381 7.2241424771790435 #
edge $-1 $519 1 $519 0 $290 $-1 forward 7 unknown #
vertex $-1 $291 $520 #
ellipse-curve $-1 -44.238566685407889 -19.844784028530214 4.1146991624044373 0 -0.73135370988377701 0.68199835119979291 1 0 0 1 I I #
point $-1 -43.238566685407889 -20.887499298913234 5.0870468589589191 #
edge $-1 $521 1 $521 0 $294 $-1 forward 7 unknown #
vertex $-1 $295 $522 #
ellipse-curve $-1 -36.414781705051873 -19.844784028530214 4.1146991624044373 0 -0.73135370988377701 0.68199835119979291 1 0 0 1 I I #
point $-1 -35.414781705051873 -20.887499298913234 5.0870468589589191 #
edge $-1 $523 1 $523 0 $298 $-1 forward 7 unknown #
vertex $-1 $299 $524 #
ellipse-curve $-1 -28.590996724695856 -19.844784028530214 4.1146991624044373 0 -0.73135370988377701 0.68199835119979291 1 0 0 1 I I #
point $-1 -27.590996724695856 -20.887499298913234 5.0870468589589191 #
loop $-1 $-1 $310 $302 #
plane-surface $-1 0 22.880373155004079 0 0 -1 0 0 0 -1 forward_v I I I I #
coedge $-1 $428 $305 $307 $432 reversed $197 $-1 #
coedge $-1 $305 $427 $525 $526 reversed $197 $-1 #
coedge $-1 $313 $308 $305 $430 forward $303 $-1 #
edge $-1 $433 -28.628455047340196 $527 -25.219747140876045 $429 $528 forward 7 unknown #
coedge $-1 $307 $306 $436 $529 reversed $124 $-1 #
edge $-1 $530 -45.760746310008187 $433 -39.142385146400819 $427 $531 forward 7 unknown #
vertex $-1 $309 $532 #
straight-curve $-1 -6.6368099242554592 19.471665248539924 7.2241424771790435 1 0 0 I I #
coedge $-1 $525 $310 $313 $440 reversed $425 $-1 #
coedge $-1 $310 $525 $431 $529 forward $425 $-1 #
vertex $-1 $311 $533 #
straight-curve $-1 -23.457247016256073 22.880373155004079 49.496066753726737 0 0 1 I I #
straight-curve $-1 -23.457247016256073 -0.68815293425585367 40.775715402837761 0 0.51503806187062418 -0.85716730853699208 I I #
edge $-1 $527 3.0899926807657643 $314 23.457247016256073 $435 $534 forward 7 unknown #
point $-1 -23.457247016256073 22.880373155004079 7.2241424771790435 #
point $-1 -23.457247016256073 19.471665248539928 7.2241424771790435 #
edge $-1 $535 1 $535 0 $317 $-1 forward 7 unknown #
vertex $-1 $318 $536 #
ellipse-curve $-1 -17.638031491830276 18.882854022364032 3.0097484626585058 0 0.85716730853699208 0.51503806187062418 1 0 0 1 I I #
point $-1 -16.638031491830276 21.176019201772011 4.3876210644115137 #
edge $-1 $537 1 $537 0 $321 $-1 forward 7 unknown #
vertex $-1 $322 $538 #
ellipse-curve $-1 -8.9092082051915753 18.882854022364032 3.0097484626585058 0 0.85716730853699208 0.51503806187062418 1 0 0 1 I I #
point $-1 -7.9092082051915753 21.176019201772011 4.3876210644115137 #
loop $-1 $-1 $333 $325 #
plane-surface $-1 0 22.880373155004079 0 0 -1 0 0 0 -1 forward_v I I I I #
coedge $-1 $454 $328 $330 $458 reversed $219 $-1 #
coedge $-1 $328 $453 $539 $540 reversed $219 $-1 #
coedge $-1 $336 $331 $328 $456 forward $326 $-1 #
edge $-1 $459 -28.628455047340196 $541 -25.219747140876045 $455 $542 forward 7 unknown #
coedge $-1 $330 $329 $462 $543 reversed $138 $-1 #
edge $-1 $544 -45.760746310008187 $459 -39.142385146400819 $453 $545 forward 7 unknown #
vertex $-1 $332 $546 #
straight-curve $-1 19.855950242591604 19.471665248539924 7.2241424771790435 1 0 0 I I #
coedge $-1 $539 $333 $336 $466 reversed $451 $-1 #
coedge $-1 $333 $539 $457 $543 forward $451 $-1 #
vertex $-1 $334 $547 #
straight-curve $-1 29.528273317438053 22.880373155004079 49.496066753726737 0 0 1 I I #
straight-curve $-1 29.528273317438053 -0.68815293425585367 40.775715402837761 0 0.51503806187062418 -0.85716730853699208 I I #
edge $-1 $541 -49.895527652928365 $337 -29.528273317438053 $461 $548 forward 7 unknown #
point $-1 29.528273317438053 22.880373155004079 7.2241424771790435 #
point $-1 29.528273317438053 19.471665248539928 7.2241424771790435 #
edge $-1 $549 1 $549 0 $340 $-1 forward 7 unknown #
vertex $-1 $341 $550 #
ellipse-curve $-1 35.34748884186385 18.882854022364032 3.0097484626585058 0 0.85716730853699208 0.51503806187062418 1 0 0 1 I I #
point $-1 36.34748884186385 21.176019201772011 4.3876210644115137 #
edge $-1 $551 1 $551 0 $344 $-1 forward 7 unknown #
vertex $-1 $345 $552 #
ellipse-curve $-1 44.076312128502551 18.882854022364032 3.0097484626585058 0 0.85716730853699208 0.51503806187062418 1 0 0 1 I I #
point $-1 45.076312128502551 21.176019201772011 4.3876210644115137 #
plane-surface $-1 56.51661732840968 0 0 -1 0 0 0 0 1 forward_v I I I I #
coedge $-1 $353 $351 $355 $482 reversed $241 $-1 #
edge $-1 $366 -7.2241424771790435 $484 7.2241424771790435 $365 $553 forward 7 unknown #
vertex $-1 $482 $554 #
straight-curve $-1 -56.51661732840968 -22.880373155004079 0 0 0 -1 I I #
edge $-1 $480 -22.880373155004079 $484 22.880373155004079 $478 $555 forward 7 unknown #
straight-curve $-1 0 -22.880373155004079 -7.2241424771790435 -1 0 0 I I #
vertex $-1 $358 $556 #
straight-curve $-1 0 22.880373155004079 -7.2241424771790435 1 0 0 I I #
point $-1 56.51661732840968 22.880373155004079 -7.2241424771790435 #
point $-1 56.51661732840968 -22.880373155004079 -7.2241424771790435 #
straight-curve $-1 -56.51661732840968 0 7.2241424771790435 0 -1 0 I I #
point $-1 -56.51661732840968 22.880373155004079 7.2241424771790435 #
point $-1 -56.51661732840968 -22.880373155004079 7.2241424771790435 #
straight-curve $-1 56.51661732840968 -22.880373155004079 0 0 0 -1 I I #
straight-curve $-1 56.51661732840968 22.880373155004079 0 0 0 -1 I I #
plane-surface $-1 0 -22.880373155004079 0 0 1 0 0 0 1 forward_v I I I I #
coedge $-1 $557 $378 $388 $505 reversed $260 $-1 #
coedge $-1 $378 $557 $391 $507 forward $260 $-1 #
coedge $-1 $558 $381 $379 $497 forward $376 $-1 #
edge $-1 $498 49.454423338978572 $559 56.51661732840968 $379 $560 forward 7 unknown #
vertex $-1 $497 $561 #
straight-curve $-1 -49.454423338978572 22.880373155004079 2.8620712385895217 0 0 -1 I I #
coedge $-1 $381 $558 $383 $502 forward $376 $-1 #
straight-curve $-1 -49.454423338978572 0 7.2241424771790435 0 1 0 I I #
edge $-1 $562 -56.51661732840968 $385 -49.454423338978572 $383 $563 forward 7 unknown #
point $-1 -49.454423338978572 -22.880373155004079 7.2241424771790435 #
straight-curve $-1 -56.51661732840968 0 4.2241424771790435 0 -1 0 I I #
edge $-1 $562 -7.2241424771790435 $389 -4.2241424771790435 $494 $564 forward 7 unknown #
point $-1 -56.51661732840968 -22.880373155004079 4.2241424771790435 #
edge $-1 $559 -7.2241424771790435 $392 -4.2241424771790435 $391 $565 forward 7 unknown #
point $-1 -56.51661732840968 22.880373155004079 4.2241424771790435 #
coedge $-1 $406 $405 $398 $510 forward $396 $-1 #
edge $-1 $517 32.795072976555396 $512 37.069264212995655 $509 $566 forward 7 unknown #
edge $-1 $403 18.894625442822381 $517 22.880373155004079 $402 $567 forward 7 unknown #
vertex $-1 $510 $568 #
straight-curve $-1 -49.454423338978572 -22.880373155004079 2.949951240738784 0 0.68199835119979291 0.73135370988377701 I I #
edge $-1 $512 -31.247032486452632 $407 -5.1677492185992442 $406 $569 forward 7 unknown #
point $-1 -49.454423338978572 -18.894625442822381 7.2241424771790435 #
point $-1 -23.375140071125184 -22.880373155004079 2.949951240738784 #
vertex $-1 $410 $570 #
straight-curve $-1 0 -22.880373155004079 7.2241424771790435 1 0 0 I I #
vertex $-1 $413 $571 #
point $-1 -43.238566685407889 -19.844784028530214 4.1146991624044373 #
vertex $-1 $417 $572 #
point $-1 -35.414781705051873 -19.844784028530214 4.1146991624044373 #
vertex $-1 $421 $573 #
point $-1 -27.590996724695856 -19.844784028530214 4.1146991624044373 #
coedge $-1 $436 $435 $428 $526 forward $425 $-1 #
edge $-1 $527 42.271924276547693 $530 47.944967102082778 $525 $574 forward 7 unknown #
vertex $-1 $440 $575 #
straight-curve $-1 -3.0899926807657643 48.100120295880124 7.2241424771790435 0 1 0 I I #
edge $-1 $530 -3.546817243489695 $437 16.820437092000613 $436 $576 forward 7 unknown #
vertex $-1 $529 $577 #
straight-curve $-1 -3.0899926807657643 -0.68815293425585367 40.775715402837761 0 -0.51503806187062418 0.85716730853699208 I I #
point $-1 -3.0899926807657643 19.471665248539928 7.2241424771790435 #
point $-1 -23.457247016256073 22.880373155004079 1.551099651643959 #
straight-curve $-1 0 22.880373155004079 7.2241424771790435 -1 0 0 I I #
vertex $-1 $443 $578 #
point $-1 -16.638031491830276 18.882854022364032 3.0097484626585058 #
vertex $-1 $447 $579 #
point $-1 -7.9092082051915753 18.882854022364032 3.0097484626585058 #
coedge $-1 $462 $461 $454 $540 forward $451 $-1 #
edge $-1 $541 42.271924276547693 $544 47.944967102082778 $539 $580 forward 7 unknown #
vertex $-1 $466 $581 #
straight-curve $-1 49.895527652928365 48.100120295880124 7.2241424771790435 0 1 0 I I #
edge $-1 $544 -30.039577410336761 $463 -9.6723230748464495 $462 $582 forward 7 unknown #
vertex $-1 $543 $583 #
straight-curve $-1 49.895527652928365 -0.68815293425585367 40.775715402837761 0 -0.51503806187062418 0.85716730853699208 I I #
point $-1 49.895527652928365 19.471665248539928 7.2241424771790435 #
point $-1 29.528273317438053 22.880373155004079 1.551099651643959 #
straight-curve $-1 0 22.880373155004079 7.2241424771790435 -1 0 0 I I #
vertex $-1 $469 $584 #
point $-1 36.34748884186385 18.882854022364032 3.0097484626585058 #
vertex $-1 $473 $585 #
point $-1 45.076312128502551 18.882854022364032 3.0097484626585058 #
straight-curve $-1 -56.51661732840968 22.880373155004079 0 0 0 -1 I I #
point $-1 -56.51661732840968 -22.880373155004079 -7.2241424771790435 #
straight-curve $-1 -56.51661732840968 0 -7.2241424771790435 0 1 0 I I #
point $-1 -56.51661732840968 22.880373155004079 -7.2241424771790435 #
coedge $-1 $495 $494 $558 $586 reversed $260 $-1 #
coedge $-1 $500 $496 $557 $586 forward $376 $-1 #
vertex $-1 $497 $587 #
straight-curve $-1 0 22.880373155004079 7.2241424771790435 -1 0 0 I I #
point $-1 -49.454423338978572 22.880373155004079 7.2241424771790435 #
vertex $-1 $586 $588 #
straight-curve $-1 0 -22.880373155004079 7.2241424771790435 1 0 0 I I #
straight-curve $-1 -56.51661732840968 -22.880373155004079 0 0 0 -1 I I #
straight-curve $-1 -56.51661732840968 22.880373155004079 0 0 0 -1 I I #
straight-curve $-1 -49.454423338978572 -22.880373155004079 40.019215453734439 0 0 -1 I I #
straight-curve $-1 -49.454423338978572 0 7.2241424771790435 0 -1 0 I I #
point $-1 -49.454423338978572 -22.880373155004079 2.949951240738784 #
straight-curve $-1 -18.20739085252594 -22.880373155004079 2.9499512407387853 1 0 0 I I #
point $-1 -49.454423338978572 -22.880373155004079 7.2241424771790435 #
point $-1 -44.238566685407889 -19.113430318646436 3.4327008112046444 #
point $-1 -36.414781705051873 -19.113430318646436 3.4327008112046444 #
point $-1 -28.590996724695856 -19.113430318646436 3.4327008112046444 #
straight-curve $-1 -3.0899926807657643 22.880373155004079 49.496066753726737 0 0 -1 I I #
point $-1 -3.0899926807657643 22.880373155004079 7.2241424771790435 #
straight-curve $-1 -6.6368099242554592 22.880373155004079 1.5510996516439484 -1 0 0 I I #
point $-1 -3.0899926807657643 22.880373155004079 1.551099651643959 #
point $-1 -17.638031491830276 18.025686713827039 2.494710400787882 #
point $-1 -8.9092082051915753 18.025686713827039 2.494710400787882 #
straight-curve $-1 49.895527652928365 22.880373155004079 49.496066753726737 0 0 -1 I I #
point $-1 49.895527652928365 22.880373155004079 7.2241424771790435 #
straight-curve $-1 19.855950242591604 22.880373155004079 1.5510996516439484 -1 0 0 I I #
point $-1 49.895527652928365 22.880373155004079 1.551099651643959 #
point $-1 35.34748884186385 18.025686713827039 2.494710400787882 #
point $-1 44.076312128502551 18.025686713827039 2.494710400787882 #
edge $-1 $559 -22.880373155004079 $562 22.880373155004079 $557 $589 forward 7 unknown #
point $-1 -56.51661732840968 22.880373155004079 7.2241424771790435 #
point $-1 -56.51661732840968 -22.880373155004079 7.2241424771790435 #
straight-curve $-1 -56.51661732840968 0 7.2241424771790435 0 -1 0 I I #
End-of-ACIS-data 