500 0 8 0           
7 Unknown 11 ACIS 5.0 NT 24 Thu Mar 25 15:50:11 1999 
-1 9.9999999999999995e-007 1e-010 
body $-1 $8 $-1 $9 #
body $-1 $10 $-1 $11 #
body $-1 $12 $-1 $13 #
body $-1 $14 $-1 $15 #
body $-1 $16 $-1 $17 #
body $-1 $18 $-1 $19 #
body $-1 $20 $-1 $21 #
body $-1 $22 $-1 $23 #
lump $-1 $-1 $24 $0 #
transform $-1 1 0 0 0 1 0 0 0 1 61.812189092684719 36.888862505186609 15.102852173400979 1 rotate no_reflect no_shear #
lump $-1 $-1 $25 $1 #
transform $-1 1 0 0 0 1 0 0 0 1 61.812189092684719 36.888862505186609 15.102852173400979 1 rotate no_reflect no_shear #
lump $-1 $-1 $26 $2 #
transform $-1 1 0 0 0 1 0 0 0 1 61.812189092684719 36.888862505186609 15.102852173400979 1 rotate no_reflect no_shear #
lump $-1 $-1 $27 $3 #
transform $-1 1 0 0 0 1 0 0 0 1 61.812189092684719 36.888862505186609 15.102852173400979 1 rotate no_reflect no_shear #
lump $-1 $-1 $28 $4 #
transform $-1 1 0 0 0 1 0 0 0 1 61.812189092684719 36.888862505186609 15.102852173400979 1 rotate no_reflect no_shear #
lump $-1 $-1 $29 $5 #
transform $-1 1 0 0 0 1 0 0 0 1 61.812189092684719 36.888862505186609 15.102852173400979 1 rotate no_reflect no_shear #
lump $-1 $-1 $30 $6 #
transform $-1 1 0 0 0 1 0 0 0 1 61.812189092684719 36.888862505186609 15.102852173400979 1 rotate no_reflect no_shear #
lump $-1 $-1 $31 $7 #
transform $-1 1 0 0 0 1 0 0 0 1 61.812189092684719 36.888862505186609 15.102852173400979 1 rotate no_reflect no_shear #
shell $-1 $-1 $-1 $32 $-1 $8 #
shell $-1 $-1 $-1 $33 $-1 $10 #
shell $-1 $-1 $-1 $34 $-1 $12 #
shell $-1 $-1 $-1 $35 $-1 $14 #
shell $-1 $-1 $-1 $36 $-1 $16 #
shell $-1 $-1 $-1 $37 $-1 $18 #
shell $-1 $-1 $-1 $38 $-1 $20 #
shell $-1 $-1 $-1 $39 $-1 $22 #
face $-1 $40 $41 $24 $-1 $42 forward single #
face $-1 $43 $44 $25 $-1 $45 reversed single #
face $-1 $46 $47 $26 $-1 $48 reversed single #
face $-1 $49 $50 $27 $-1 $51 forward single #
face $-1 $52 $53 $28 $-1 $54 forward single #
face $-1 $55 $56 $29 $-1 $57 forward single #
face $-1 $58 $59 $30 $-1 $60 reversed single #
face $-1 $61 $62 $31 $-1 $63 forward single #
face $-1 $64 $65 $24 $-1 $66 reversed single #
loop $-1 $-1 $67 $32 #
plane-surface $-1 0 0 15.102852173400979 0 0 1 1 0 0 forward_v I I I I #
face $-1 $68 $69 $25 $-1 $70 reversed single #
loop $-1 $-1 $71 $33 #
plane-surface $-1 -56.566479546508276 0 7.0940586068681633 0 0 1 1 0 0 forward_v I I I I #
face $-1 $72 $73 $26 $-1 $74 reversed single #
loop $-1 $-1 $75 $34 #
plane-surface $-1 59.131176983640678 -111.28787146685204 101.33038039611051 -1 0 0 0 -0.6018150307709319 0.79863550430605224 forward_v I I I I #
face $-1 $76 $77 $27 $-1 $78 forward single #
loop $-1 $79 $80 $35 #
cone-surface $-1 48.114463647845611 -28.058974623934915 8.1429964150667455 0 0.6018150307709319 -0.79863550430605224 1 0 0 1 I I 0 1 1 forward I I I I #
face $-1 $81 $82 $28 $-1 $83 forward single #
loop $-1 $84 $85 $36 #
cone-surface $-1 52.245731148768769 -28.058974623934915 8.1429964150667455 0 0.6018150307709319 -0.79863550430605224 1 0 0 1 I I 0 1 1 forward I I I I #
face $-1 $86 $87 $29 $-1 $88 forward single #
loop $-1 $89 $90 $37 #
cone-surface $-1 56.376998649691927 -28.058974623934915 8.1429964150667455 0 0.6018150307709319 -0.79863550430605224 1 0 0 1 I I 0 1 1 forward I I I I #
face $-1 $91 $92 $30 $-1 $93 reversed single #
loop $-1 $-1 $94 $38 #
plane-surface $-1 19.670366177989195 91.219139368170573 144.44013148927209 1 0 0 0 -0.79863551827123203 -0.60181501223851219 forward_v I I I I #
face $-1 $95 $96 $31 $-1 $97 forward single #
loop $-1 $98 $99 $39 #
cone-surface $-1 29.870700590552246 34.005477411729849 12.069374753220973 0 -0.79863551827123203 -0.60181501223851219 1 0 0 1 I I 0 1 1 forward I I I I #
face $-1 $100 $101 $24 $-1 $102 reversed single #
loop $-1 $-1 $103 $40 #
plane-surface $-1 0 0 -15.102852173400979 0 0 1 1 0 0 forward_v I I I I #
coedge $-1 $104 $105 $106 $107 forward $41 $-1 #
face $-1 $108 $109 $25 $-1 $110 reversed single #
loop $-1 $-1 $111 $43 #
plane-surface $-1 -51.320770000331834 0 11.098455390134571 -1 0 0 0 0 1 forward_v I I I I #
coedge $-1 $112 $113 $114 $115 forward $44 $-1 #
face $-1 $116 $117 $26 $-1 $118 reversed single #
loop $-1 $-1 $119 $46 #
plane-surface $-1 52.245731148768755 -36.888862505186594 2.599562779515864 0 -0.6018150307709319 0.79863550430605224 1 0 0 forward_v I I I I #
coedge $-1 $120 $121 $122 $123 reversed $47 $-1 #
face $-1 $-1 $124 $27 $-1 $125 forward single #
loop $-1 $126 $127 $49 #
cone-surface $-1 48.114463647845611 -27.224391784317419 7.035467601522047 0 0.6018150307709319 -0.79863550430605224 0.5 0 0 1 I I -0.70710678118654746 0.70710678118654746 0.5 forward I I I I #
loop $-1 $-1 $128 $35 #
coedge $-1 $80 $80 $129 $130 reversed $50 $-1 #
face $-1 $-1 $131 $28 $-1 $132 forward single #
loop $-1 $133 $134 $52 #
cone-surface $-1 52.245731148768769 -27.224391784317419 7.035467601522047 0 0.6018150307709319 -0.79863550430605224 0.5 0 0 1 I I -0.70710678118654746 0.70710678118654746 0.5 forward I I I I #
loop $-1 $-1 $135 $36 #
coedge $-1 $85 $85 $136 $137 reversed $53 $-1 #
face $-1 $-1 $138 $29 $-1 $139 forward single #
loop $-1 $140 $141 $55 #
cone-surface $-1 56.376998649691927 -27.224391784317419 7.035467601522047 0 0.6018150307709319 -0.79863550430605224 0.5 0 0 1 I I -0.70710678118654746 0.70710678118654746 0.5 forward I I I I #
loop $-1 $-1 $142 $37 #
coedge $-1 $90 $90 $143 $144 reversed $56 $-1 #
face $-1 $145 $146 $30 $-1 $147 reversed single #
loop $-1 $-1 $148 $58 #
plane-surface $-1 29.870700590552246 -7.5116799748607264 70.041124818665537 0 0.79863551827123203 0.60181501223851219 1 0 0 forward_v I I I I #
coedge $-1 $149 $150 $151 $152 reversed $59 $-1 #
face $-1 $-1 $153 $31 $-1 $154 forward single #
loop $-1 $155 $156 $61 #
cone-surface $-1 29.870700590552246 32.223567458940437 10.726609329555348 0 -0.79863551827123203 -0.60181501223851219 0.5 0 0 1 I I -0.70710678118654746 0.70710678118654746 0.5 forward I I I I #
loop $-1 $-1 $157 $39 #
coedge $-1 $99 $99 $158 $159 reversed $62 $-1 #
face $-1 $160 $161 $24 $-1 $162 reversed single #
loop $-1 $-1 $163 $64 #
plane-surface $-1 0 -36.888862505186609 0 0 1 0 0 0 1 forward_v I I I I #
coedge $-1 $164 $165 $166 $167 forward $65 $-1 #
coedge $-1 $168 $67 $169 $170 forward $41 $-1 #
coedge $-1 $67 $168 $171 $172 forward $41 $-1 #
coedge $-1 $173 $174 $67 $107 reversed $175 $-1 #
edge $-1 $176 -36.888862505186609 $177 36.888862505186609 $106 $178 forward 7 unknown #
face $-1 $179 $180 $25 $-1 $181 reversed single #
loop $-1 $-1 $182 $68 #
plane-surface $-1 0 36.888862505186609 0 0 -1 0 0 0 -1 forward_v I I I I #
coedge $-1 $114 $183 $184 $185 reversed $69 $-1 #
coedge $-1 $186 $71 $187 $188 reversed $44 $-1 #
coedge $-1 $71 $186 $189 $190 reversed $44 $-1 #
coedge $-1 $191 $111 $71 $115 reversed $69 $-1 #
edge $-1 $192 -36.888862505186609 $193 36.888862505186609 $114 $194 forward 7 unknown #
face $-1 $195 $196 $26 $-1 $197 reversed single #
loop $-1 $-1 $198 $72 #
plane-surface $-1 45.360285313896831 -111.28787146685204 101.33038039611051 1 0 0 0 0.6018150307709319 -0.79863550430605224 forward_v I I I I #
coedge $-1 $199 $200 $201 $202 reversed $73 $-1 #
coedge $-1 $121 $75 $203 $204 reversed $47 $-1 #
coedge $-1 $75 $120 $199 $205 reversed $47 $-1 #
coedge $-1 $201 $206 $75 $123 forward $207 $-1 #
edge $-1 $208 18.755073228239411 $209 35.34749834227874 $122 $210 forward 7 unknown #
loop $-1 $-1 $129 $76 #
plane-surface $-1 52.245731148768755 -36.888862505186594 2.599562779515864 0 -0.6018150307709319 0.79863550430605224 1 0 0 forward_v I I I I #
loop $-1 $-1 $211 $49 #
coedge $-1 $127 $127 $128 $212 reversed $77 $-1 #
coedge $-1 $128 $128 $127 $212 forward $79 $-1 #
coedge $-1 $129 $129 $80 $130 forward $124 $-1 #
edge $-1 $213 -6.9924678859621399e-016 $213 6.2831853071795996 $129 $214 forward 7 unknown #
loop $-1 $-1 $136 $81 #
plane-surface $-1 52.245731148768755 -36.888862505186594 2.599562779515864 0 -0.6018150307709319 0.79863550430605224 1 0 0 forward_v I I I I #
loop $-1 $-1 $215 $52 #
coedge $-1 $134 $134 $135 $216 reversed $82 $-1 #
coedge $-1 $135 $135 $134 $216 forward $84 $-1 #
coedge $-1 $136 $136 $85 $137 forward $131 $-1 #
edge $-1 $217 -6.9924678859621399e-016 $217 6.2831853071795996 $136 $218 forward 7 unknown #
loop $-1 $-1 $143 $86 #
plane-surface $-1 52.245731148768755 -36.888862505186594 2.599562779515864 0 -0.6018150307709319 0.79863550430605224 1 0 0 forward_v I I I I #
loop $-1 $-1 $219 $55 #
coedge $-1 $141 $141 $142 $220 reversed $87 $-1 #
coedge $-1 $142 $142 $141 $220 forward $89 $-1 #
coedge $-1 $143 $143 $90 $144 forward $138 $-1 #
edge $-1 $221 -6.9924678859621399e-016 $221 6.2831853071795996 $143 $222 forward 7 unknown #
face $-1 $223 $224 $30 $-1 $225 forward single #
loop $-1 $-1 $226 $91 #
plane-surface $-1 40.071035003115298 91.219139368170573 144.44013148927209 -1 0 0 0 0.79863551827123203 0.60181501223851219 forward_v I I I I #
coedge $-1 $227 $228 $229 $230 reversed $92 $-1 #
coedge $-1 $150 $94 $231 $232 reversed $59 $-1 #
coedge $-1 $94 $149 $227 $233 reversed $59 $-1 #
coedge $-1 $229 $234 $94 $152 forward $224 $-1 #
edge $-1 $235 8.7207071788986781 $236 11.722292978504598 $151 $237 forward 7 unknown #
loop $-1 $-1 $158 $95 #
plane-surface $-1 29.870700590552246 -7.5116799748607264 70.041124818665537 0 0.79863551827123203 0.60181501223851219 1 0 0 forward_v I I I I #
loop $-1 $-1 $238 $61 #
coedge $-1 $156 $156 $157 $239 reversed $96 $-1 #
coedge $-1 $157 $157 $156 $239 forward $98 $-1 #
coedge $-1 $158 $158 $99 $159 forward $153 $-1 #
edge $-1 $240 0 $240 6.2831853071796004 $158 $241 forward 7 unknown #
face $-1 $242 $243 $24 $-1 $244 reversed single #
loop $-1 $-1 $245 $100 #
plane-surface $-1 -61.812189092684719 0 0 1 0 0 0 0 -1 forward_v I I I I #
coedge $-1 $246 $171 $247 $248 forward $101 $-1 #
coedge $-1 $249 $103 $246 $250 forward $65 $-1 #
coedge $-1 $103 $249 $251 $252 forward $65 $-1 #
coedge $-1 $174 $173 $103 $167 reversed $175 $-1 #
edge $-1 $253 -36.888862505186609 $254 36.888862505186609 $166 $255 forward 7 unknown #
coedge $-1 $105 $104 $256 $257 forward $41 $-1 #
coedge $-1 $258 $259 $104 $170 reversed $243 $-1 #
edge $-1 $177 -61.812189092684719 $260 61.812189092684719 $169 $261 forward 7 unknown #
coedge $-1 $163 $262 $105 $172 reversed $101 $-1 #
edge $-1 $263 -61.812189092684719 $176 61.812189092684719 $171 $264 forward 7 unknown #
coedge $-1 $166 $106 $262 $265 forward $175 $-1 #
coedge $-1 $106 $166 $258 $266 reversed $175 $-1 #
loop $-1 $-1 $173 $242 #
vertex $-1 $107 $267 #
vertex $-1 $107 $268 #
straight-curve $-1 61.812189092684719 0 15.102852173400979 0 1 0 I I #
face $-1 $269 $270 $25 $-1 $271 forward single #
loop $-1 $-1 $272 $108 #
plane-surface $-1 -61.812189092684719 0 0 1 0 0 0 0 -1 forward_v I I I I #
coedge $-1 $189 $273 $191 $274 forward $109 $-1 #
coedge $-1 $111 $191 $275 $276 reversed $69 $-1 #
coedge $-1 $277 $187 $111 $185 forward $278 $-1 #
edge $-1 $193 1.5448309118008776 $279 9.5536244783336937 $184 $280 forward 7 unknown #
coedge $-1 $113 $112 $272 $281 reversed $44 $-1 #
coedge $-1 $184 $282 $112 $188 forward $278 $-1 #
edge $-1 $283 -33.528949319430581 $193 -23.037530227077696 $187 $284 forward 7 unknown #
coedge $-1 $285 $182 $113 $190 forward $109 $-1 #
edge $-1 $192 23.037530227077696 $286 33.528949319430581 $189 $287 forward 7 unknown #
coedge $-1 $183 $114 $182 $274 reversed $69 $-1 #
vertex $-1 $190 $288 #
vertex $-1 $188 $289 #
straight-curve $-1 -51.320770000331834 0 7.0940586068681633 0 -1 0 I I #
face $-1 $-1 $207 $26 $-1 $290 forward single #
loop $-1 $-1 $291 $116 #
plane-surface $-1 0 -36.888862505186609 0 0 1 0 0 0 1 forward_v I I I I #
coedge $-1 $292 $293 $294 $295 reversed $117 $-1 #
coedge $-1 $296 $119 $121 $205 forward $73 $-1 #
coedge $-1 $119 $296 $292 $297 forward $73 $-1 #
coedge $-1 $294 $122 $119 $202 forward $207 $-1 #
edge $-1 $209 -33.008311409256301 $298 -19.237419739512454 $201 $299 forward 7 unknown #
coedge $-1 $300 $301 $120 $204 forward $196 $-1 #
edge $-1 $302 -48.065627418539407 $208 -35.562338024654281 $203 $303 forward 7 unknown #
edge $-1 $209 -20.77596728993003 $302 1.7763522597878294e-014 $121 $304 forward 7 unknown #
coedge $-1 $122 $294 $300 $305 forward $207 $-1 #
loop $-1 $-1 $294 $195 #
vertex $-1 $204 $306 #
vertex $-1 $123 $307 #
straight-curve $-1 59.131176983640678 -55.643935733426019 15.102852173400976 0 1 0 I I #
coedge $-1 $211 $211 $-1 $308 reversed $126 $-1 #
edge $-1 $309 0 $309 6.2831853071796004 $127 $310 forward 7 unknown #
vertex $-1 $130 $311 #
ellipse-curve $-1 48.114463647845611 -28.592649948166944 8.8512074764584163 0 -0.6018150307709319 0.79863550430605224 1 0 0 1 I I #
coedge $-1 $215 $215 $-1 $312 reversed $133 $-1 #
edge $-1 $313 0 $313 6.2831853071796004 $134 $314 forward 7 unknown #
vertex $-1 $137 $315 #
ellipse-curve $-1 52.245731148768769 -28.592649948166944 8.8512074764584163 0 -0.6018150307709319 0.79863550430605224 1 0 0 1 I I #
coedge $-1 $219 $219 $-1 $316 reversed $140 $-1 #
edge $-1 $317 0 $317 6.2831853071796004 $141 $318 forward 7 unknown #
vertex $-1 $144 $319 #
ellipse-curve $-1 56.376998649691927 -28.592649948166944 8.8512074764584163 0 -0.6018150307709319 0.79863550430605224 1 0 0 1 I I #
face $-1 $-1 $320 $30 $-1 $321 reversed single #
loop $-1 $-1 $151 $145 #
plane-surface $-1 0 0 15.102852173400979 0 0 1 1 0 0 forward_v I I I I #
coedge $-1 $322 $323 $324 $325 reversed $146 $-1 #
coedge $-1 $326 $148 $150 $233 forward $92 $-1 #
coedge $-1 $148 $326 $322 $327 forward $92 $-1 #
coedge $-1 $324 $151 $148 $230 forward $224 $-1 #
edge $-1 $236 4.7350158827130713 $328 25.135684707839175 $229 $329 forward 7 unknown #
coedge $-1 $330 $331 $149 $232 forward $320 $-1 #
edge $-1 $332 -61.100452576502349 $235 -57.117213571235069 $231 $333 forward 7 unknown #
edge $-1 $236 68.790169468278606 $332 73.777725010373189 $150 $334 forward 7 unknown #
coedge $-1 $151 $324 $330 $335 forward $224 $-1 #
vertex $-1 $232 $336 #
vertex $-1 $152 $337 #
straight-curve $-1 19.670366177989195 45.609569684085287 15.102852173400976 0 -1 0 I I #
coedge $-1 $238 $238 $-1 $338 reversed $155 $-1 #
edge $-1 $339 0 $339 6.2831853071796004 $156 $340 forward 7 unknown #
vertex $-1 $159 $341 #
ellipse-curve $-1 29.870700590552246 35.388069605383642 13.111232670767341 0 0.79863551827123203 0.60181501223851219 1 0 0 1 I I #
face $-1 $-1 $175 $24 $-1 $342 reversed single #
loop $-1 $-1 $258 $160 #
plane-surface $-1 0 36.888862505186609 0 0 -1 0 0 0 -1 forward_v I I I I #
coedge $-1 $343 $256 $259 $344 forward $161 $-1 #
coedge $-1 $262 $163 $164 $250 reversed $101 $-1 #
coedge $-1 $256 $343 $163 $248 reversed $161 $-1 #
edge $-1 $263 -15.102852173400979 $345 15.102852173400979 $247 $346 forward 7 unknown #
coedge $-1 $165 $164 $343 $347 forward $65 $-1 #
edge $-1 $254 -61.812189092684719 $345 61.812189092684719 $246 $348 forward 7 unknown #
coedge $-1 $259 $258 $165 $252 reversed $243 $-1 #
edge $-1 $349 -61.812189092684719 $253 61.812189092684719 $251 $350 forward 7 unknown #
vertex $-1 $167 $351 #
vertex $-1 $265 $352 #
straight-curve $-1 61.812189092684719 0 -15.102852173400979 0 -1 0 I I #
coedge $-1 $245 $247 $168 $257 reversed $161 $-1 #
edge $-1 $260 -36.888862505186609 $263 36.888862505186609 $256 $353 forward 7 unknown #
coedge $-1 $251 $169 $174 $266 forward $243 $-1 #
coedge $-1 $169 $251 $245 $344 reversed $243 $-1 #
vertex $-1 $170 $354 #
straight-curve $-1 0 36.888862505186609 15.102852173400979 -1 0 0 I I #
coedge $-1 $171 $246 $173 $265 reversed $101 $-1 #
vertex $-1 $257 $355 #
straight-curve $-1 0 -36.888862505186609 15.102852173400979 1 0 0 I I #
edge $-1 $176 -15.102852173400979 $254 15.102852173400979 $173 $356 forward 7 unknown #
edge $-1 $177 -15.102852173400979 $253 15.102852173400979 $174 $357 forward 7 unknown #
point $-1 61.812189092684719 -36.888862505186609 15.102852173400979 #
point $-1 61.812189092684719 36.888862505186609 15.102852173400979 #
face $-1 $-1 $278 $25 $-1 $358 reversed single #
loop $-1 $-1 $275 $179 #
plane-surface $-1 0 0 15.102852173400979 0 0 1 1 0 0 forward_v I I I I #
coedge $-1 $359 $360 $186 $281 forward $180 $-1 #
coedge $-1 $182 $285 $361 $362 reversed $109 $-1 #
edge $-1 $363 -9.5536244783336937 $192 -1.5448309118008776 $182 $364 forward 7 unknown #
coedge $-1 $361 $365 $183 $276 forward $270 $-1 #
edge $-1 $279 -36.888862505186609 $363 36.888862505186609 $275 $366 forward 7 unknown #
coedge $-1 $282 $184 $365 $367 reversed $278 $-1 #
loop $-1 $-1 $184 $269 #
vertex $-1 $185 $368 #
straight-curve $-1 -51.320770000331834 -36.888862505186609 5.5492276950672856 0 0 1 I I #
edge $-1 $286 -36.888862505186609 $283 36.888862505186609 $272 $369 forward 7 unknown #
coedge $-1 $187 $277 $359 $370 forward $278 $-1 #
vertex $-1 $281 $371 #
straight-curve $-1 -28.283239773254138 -36.888862505186609 7.0940586068681633 1 0 0 I I #
coedge $-1 $273 $189 $360 $372 reversed $109 $-1 #
vertex $-1 $281 $373 #
straight-curve $-1 -28.283239773254138 36.888862505186609 7.0940586068681633 -1 0 0 I I #
point $-1 -51.320770000331834 36.888862505186609 7.0940586068681633 #
point $-1 -51.320770000331834 -36.888862505186609 7.0940586068681633 #
plane-surface $-1 0 0 15.102852173400979 0 0 1 1 0 0 forward_v I I I I #
coedge $-1 $301 $300 $293 $374 forward $196 $-1 #
coedge $-1 $293 $198 $200 $297 reversed $117 $-1 #
coedge $-1 $198 $292 $291 $374 reversed $117 $-1 #
coedge $-1 $206 $201 $198 $295 forward $207 $-1 #
edge $-1 $298 -35.34749834227874 $375 -18.755073228239411 $294 $376 forward 7 unknown #
coedge $-1 $200 $199 $301 $377 reversed $73 $-1 #
edge $-1 $378 -1.7763522597878294e-014 $298 20.77596728993003 $292 $379 forward 7 unknown #
vertex $-1 $202 $380 #
straight-curve $-1 26.122865574384377 -20.296437391147283 15.102852173400979 -1 0 0 I I #
coedge $-1 $291 $203 $206 $305 reversed $196 $-1 #
coedge $-1 $203 $291 $296 $377 forward $196 $-1 #
vertex $-1 $204 $381 #
straight-curve $-1 59.131176983640678 -36.888862505186609 50.665190198055257 0 0 1 I I #
straight-curve $-1 59.131176983640678 -36.888862505186594 2.599562779515864 0 -0.79863550430605224 -0.6018150307709319 I I #
edge $-1 $375 45.360285313896831 $208 59.131176983640678 $300 $382 forward 7 unknown #
point $-1 59.131176983640678 -36.888862505186609 15.102852173400979 #
point $-1 59.131176983640678 -20.296437391147279 15.102852173400979 #
edge $-1 $383 1 $383 0 $211 $-1 forward 7 unknown #
vertex $-1 $212 $384 #
ellipse-curve $-1 48.114463647845611 -27.525299299702883 7.434785353675073 0 -0.6018150307709319 0.79863550430605224 1 0 0 1 I I #
point $-1 49.114463647845611 -28.592649948166947 8.8512074764584199 #
edge $-1 $385 1 $385 0 $215 $-1 forward 7 unknown #
vertex $-1 $216 $386 #
ellipse-curve $-1 52.245731148768769 -27.525299299702883 7.434785353675073 0 -0.6018150307709319 0.79863550430605224 1 0 0 1 I I #
point $-1 53.245731148768769 -28.592649948166947 8.8512074764584199 #
edge $-1 $387 1 $387 0 $219 $-1 forward 7 unknown #
vertex $-1 $220 $388 #
ellipse-curve $-1 56.376998649691927 -27.525299299702883 7.434785353675073 0 -0.6018150307709319 0.79863550430605224 1 0 0 1 I I #
point $-1 57.376998649691927 -28.592649948166947 8.8512074764584199 #
loop $-1 $-1 $231 $223 #
plane-surface $-1 0 36.888862505186609 0 0 -1 0 0 0 -1 forward_v I I I I #
coedge $-1 $323 $226 $228 $327 reversed $146 $-1 #
coedge $-1 $226 $322 $389 $390 reversed $146 $-1 #
coedge $-1 $234 $229 $226 $325 forward $224 $-1 #
edge $-1 $328 -11.722292978504598 $391 -8.7207071788986781 $324 $392 forward 7 unknown #
coedge $-1 $228 $227 $331 $393 reversed $92 $-1 #
edge $-1 $394 -73.777725010373189 $328 -68.790169468278606 $322 $395 forward 7 unknown #
vertex $-1 $230 $396 #
straight-curve $-1 14.935350295276123 33.887276705580682 15.102852173400976 1 0 0 I I #
coedge $-1 $389 $231 $234 $335 reversed $320 $-1 #
coedge $-1 $231 $389 $326 $393 forward $320 $-1 #
vertex $-1 $232 $397 #
straight-curve $-1 19.670366177989195 36.888862505186609 72.220065744636045 0 0 1 I I #
straight-curve $-1 19.670366177989195 -7.5116799748607264 70.041124818665537 0 0.60181501223851219 -0.79863551827123203 I I #
edge $-1 $391 -40.071035003115298 $235 -19.670366177989195 $330 $398 forward 7 unknown #
point $-1 19.670366177989195 36.888862505186609 15.102852173400979 #
point $-1 19.670366177989195 33.887276705580689 15.102852173400969 #
edge $-1 $399 1 $399 0 $238 $-1 forward 7 unknown #
vertex $-1 $239 $400 #
ellipse-curve $-1 29.870700590552246 32.62288521807605 11.027516835674604 0 0.79863551827123203 0.60181501223851219 1 0 0 1 I I #
point $-1 30.870700590552246 35.388069605383642 13.111232670767341 #
plane-surface $-1 61.812189092684719 0 0 -1 0 0 0 0 1 forward_v I I I I #
coedge $-1 $247 $245 $249 $347 reversed $161 $-1 #
edge $-1 $260 -15.102852173400979 $349 15.102852173400979 $259 $401 forward 7 unknown #
vertex $-1 $347 $402 #
straight-curve $-1 -61.812189092684719 -36.888862505186609 0 0 0 -1 I I #
edge $-1 $345 -36.888862505186609 $349 36.888862505186609 $343 $403 forward 7 unknown #
straight-curve $-1 0 -36.888862505186609 -15.102852173400979 -1 0 0 I I #
vertex $-1 $252 $404 #
straight-curve $-1 0 36.888862505186609 -15.102852173400979 1 0 0 I I #
point $-1 61.812189092684719 36.888862505186609 -15.102852173400979 #
point $-1 61.812189092684719 -36.888862505186609 -15.102852173400979 #
straight-curve $-1 -61.812189092684719 0 15.102852173400979 0 -1 0 I I #
point $-1 -61.812189092684719 36.888862505186609 15.102852173400979 #
point $-1 -61.812189092684719 -36.888862505186609 15.102852173400979 #
straight-curve $-1 61.812189092684719 -36.888862505186609 0 0 0 -1 I I #
straight-curve $-1 61.812189092684719 36.888862505186609 0 0 0 -1 I I #
plane-surface $-1 0 -36.888862505186609 0 0 1 0 0 0 1 forward_v I I I I #
coedge $-1 $405 $272 $282 $370 reversed $180 $-1 #
coedge $-1 $272 $405 $285 $372 forward $180 $-1 #
coedge $-1 $406 $275 $273 $362 forward $270 $-1 #
edge $-1 $363 51.320770000331834 $407 61.812189092684719 $273 $408 forward 7 unknown #
vertex $-1 $362 $409 #
straight-curve $-1 -51.320770000331834 36.888862505186609 5.5492276950672856 0 0 -1 I I #
coedge $-1 $275 $406 $277 $367 forward $270 $-1 #
straight-curve $-1 -51.320770000331834 0 15.102852173400979 0 1 0 I I #
edge $-1 $410 -61.812189092684719 $279 -51.320770000331834 $277 $411 forward 7 unknown #
point $-1 -51.320770000331834 -36.888862505186609 15.102852173400979 #
straight-curve $-1 -61.812189092684719 0 7.0940586068681633 0 -1 0 I I #
edge $-1 $410 -15.102852173400979 $283 -7.0940586068681633 $359 $412 forward 7 unknown #
point $-1 -61.812189092684719 -36.888862505186609 7.0940586068681633 #
edge $-1 $407 -15.102852173400979 $286 -7.0940586068681633 $285 $413 forward 7 unknown #
point $-1 -61.812189092684719 36.888862505186609 7.0940586068681633 #
edge $-1 $375 35.562338024654281 $378 48.065627418539407 $291 $414 forward 7 unknown #
vertex $-1 $305 $415 #
straight-curve $-1 45.360285313896831 -55.643935733426019 15.102852173400976 0 -1 0 I I #
edge $-1 $378 19.237419739512454 $302 33.008311409256301 $301 $416 forward 7 unknown #
vertex $-1 $377 $417 #
straight-curve $-1 45.360285313896831 -36.888862505186594 2.599562779515864 0 0.79863550430605224 0.6018150307709319 I I #
point $-1 45.360285313896831 -20.296437391147279 15.102852173400979 #
point $-1 59.131176983640678 -36.888862505186609 2.5995627795158534 #
straight-curve $-1 0 -36.888862505186609 15.102852173400979 1 0 0 I I #
vertex $-1 $308 $418 #
point $-1 49.114463647845611 -27.525299299702883 7.434785353675073 #
vertex $-1 $312 $419 #
point $-1 53.245731148768769 -27.525299299702883 7.434785353675073 #
vertex $-1 $316 $420 #
point $-1 57.376998649691927 -27.525299299702883 7.434785353675073 #
coedge $-1 $331 $330 $323 $390 forward $320 $-1 #
edge $-1 $391 57.117213571235069 $394 61.100452576502349 $389 $421 forward 7 unknown #
vertex $-1 $335 $422 #
straight-curve $-1 40.071035003115298 45.609569684085287 15.102852173400976 0 1 0 I I #
edge $-1 $394 -25.135684707839175 $332 -4.7350158827130713 $331 $423 forward 7 unknown #
vertex $-1 $393 $424 #
straight-curve $-1 40.071035003115298 -7.5116799748607264 70.041124818665537 0 -0.60181501223851219 0.79863551827123203 I I #
point $-1 40.071035003115298 33.887276705580689 15.102852173400969 #
point $-1 19.670366177989195 36.888862505186609 11.119613168133696 #
straight-curve $-1 0 36.888862505186609 15.102852173400979 -1 0 0 I I #
vertex $-1 $338 $425 #
point $-1 30.870700590552246 32.62288521807605 11.027516835674604 #
straight-curve $-1 -61.812189092684719 36.888862505186609 0 0 0 -1 I I #
point $-1 -61.812189092684719 -36.888862505186609 -15.102852173400979 #
straight-curve $-1 -61.812189092684719 0 -15.102852173400979 0 1 0 I I #
point $-1 -61.812189092684719 36.888862505186609 -15.102852173400979 #
coedge $-1 $360 $359 $406 $426 reversed $180 $-1 #
coedge $-1 $365 $361 $405 $426 forward $270 $-1 #
vertex $-1 $362 $427 #
straight-curve $-1 0 36.888862505186609 15.102852173400979 -1 0 0 I I #
point $-1 -51.320770000331834 36.888862505186609 15.102852173400979 #
vertex $-1 $426 $428 #
straight-curve $-1 0 -36.888862505186609 15.102852173400979 1 0 0 I I #
straight-curve $-1 -61.812189092684719 -36.888862505186609 0 0 0 -1 I I #
straight-curve $-1 -61.812189092684719 36.888862505186609 0 0 0 -1 I I #
straight-curve $-1 45.360285313896831 -36.888862505186609 50.665190198055257 0 0 -1 I I #
point $-1 45.360285313896831 -36.888862505186609 15.102852173400979 #
straight-curve $-1 26.122865574384377 -36.888862505186609 2.5995627795158538 1 0 0 I I #
point $-1 45.360285313896831 -36.888862505186609 2.5995627795158534 #
point $-1 48.114463647845611 -26.923484268931954 6.636149849369021 #
point $-1 52.245731148768769 -26.923484268931954 6.636149849369021 #
point $-1 56.376998649691927 -26.923484268931954 6.636149849369021 #
straight-curve $-1 40.071035003115298 36.888862505186609 72.220065744636045 0 0 -1 I I #
point $-1 40.071035003115298 36.888862505186609 15.102852173400979 #
straight-curve $-1 14.935350295276123 36.888862505186609 11.1196131681337 -1 0 0 I I #
point $-1 40.071035003115298 36.888862505186609 11.119613168133696 #
point $-1 29.870700590552246 31.82424969980482 10.425701823436093 #
edge $-1 $407 -36.888862505186609 $410 36.888862505186609 $405 $429 forward 7 unknown #
point $-1 -61.812189092684719 36.888862505186609 15.102852173400979 #
point $-1 -61.812189092684719 -36.888862505186609 15.102852173400979 #
straight-curve $-1 -61.812189092684719 0 15.102852173400979 0 -1 0 I I #
End-of-ACIS-data 