500 0 10 0           
7 Unknown 11 ACIS 5.0 NT 24 Thu Mar 25 20:14:24 1999 
-1 9.9999999999999995e-007 1e-010 
body $-1 $10 $-1 $11 #
body $-1 $12 $-1 $13 #
body $-1 $14 $-1 $15 #
body $-1 $16 $-1 $17 #
body $-1 $18 $-1 $19 #
body $-1 $20 $-1 $21 #
body $-1 $22 $-1 $23 #
body $-1 $24 $-1 $25 #
body $-1 $26 $-1 $27 #
body $-1 $28 $-1 $29 #
lump $-1 $-1 $30 $0 #
transform $-1 1 0 0 0 1 0 0 0 1 78.538773766289253 43.138440767038304 13.850194964490894 1 rotate no_reflect no_shear #
lump $-1 $-1 $31 $1 #
transform $-1 1 0 0 0 1 0 0 0 1 24.11130974272767 -7.9155975545160269 13.850194964490894 1 rotate no_reflect no_shear #
lump $-1 $-1 $32 $2 #
transform $-1 1 0 0 0 1 0 0 0 1 24.11130974272767 94.192479088592634 13.850194964490894 1 rotate no_reflect no_shear #
lump $-1 $-1 $33 $3 #
transform $-1 0.75470957328743171 0 -0.6560590369687036 0 1 0 0.6560590369687036 0 0.75470957328743171 141.58176322485912 32.925162008818283 241.17090099343653 1 rotate no_reflect no_shear #
lump $-1 $-1 $34 $4 #
transform $-1 0.75470957328743171 0 -0.6560590369687036 0 -1 0 -0.6560590369687036 0 -0.75470957328743171 150.85861072001094 32.925162008818283 21.860658138188384 1 rotate no_reflect no_shear #
lump $-1 $-1 $35 $5 #
transform $-1 0.75470957328743171 0 -0.6560590369687036 0 1 0 0.6560590369687036 0 0.75470957328743171 141.58176322485912 53.351719525258332 241.17090099343653 1 rotate no_reflect no_shear #
lump $-1 $-1 $36 $6 #
transform $-1 0.75470957328743171 0 -0.6560590369687036 0 -1 0 -0.6560590369687036 0 -0.75470957328743171 150.85861072001094 53.351719525258332 21.860658138188384 1 rotate no_reflect no_shear #
lump $-1 $-1 $37 $7 #
transform $-1 0.52991925155115449 0 0.84804810408105047 0 1 0 -0.84804810408105047 0 0.52991925155115449 -133.2093163787043 45.941111523002881 103.19468137181967 1 rotate no_reflect no_shear #
lump $-1 $-1 $38 $8 #
transform $-1 0.52991925155115449 0 0.84804810408105047 0 -1 0 0.84804810408105047 0 -0.52991925155115449 5.778448808095888 42.680021988104627 21.729444025702414 1 rotate no_reflect no_shear #
lump $-1 $-1 $39 $9 #
transform $-1 0.52991925155115449 0 0.84804810408105047 0 -1 0 0.84804810408105047 0 -0.52991925155115449 5.778448808095888 49.202201057901135 21.729444025702414 1 rotate no_reflect no_shear #
shell $-1 $-1 $-1 $40 $-1 $10 #
shell $-1 $-1 $-1 $41 $-1 $12 #
shell $-1 $-1 $-1 $42 $-1 $14 #
shell $-1 $-1 $-1 $43 $-1 $16 #
shell $-1 $-1 $-1 $44 $-1 $18 #
shell $-1 $-1 $-1 $45 $-1 $20 #
shell $-1 $-1 $-1 $46 $-1 $22 #
shell $-1 $-1 $-1 $47 $-1 $24 #
shell $-1 $-1 $-1 $48 $-1 $26 #
shell $-1 $-1 $-1 $49 $-1 $28 #
face $-1 $50 $51 $30 $-1 $52 forward single #
face $-1 $53 $54 $31 $-1 $55 forward single #
face $-1 $56 $57 $32 $-1 $58 forward single #
face $-1 $59 $60 $33 $-1 $61 forward single #
face $-1 $62 $63 $34 $-1 $64 forward single #
face $-1 $65 $66 $35 $-1 $67 forward single #
face $-1 $68 $69 $36 $-1 $70 forward single #
face $-1 $71 $72 $37 $-1 $73 forward single #
face $-1 $74 $75 $38 $-1 $76 forward single #
face $-1 $77 $78 $39 $-1 $79 forward single #
face $-1 $80 $81 $30 $-1 $82 reversed single #
loop $-1 $-1 $83 $40 #
plane-surface $-1 0 0 13.850194964490894 0 0 1 1 0 0 forward_v I I I I #
face $-1 $84 $85 $31 $-1 $86 reversed single #
loop $-1 $-1 $87 $41 #
plane-surface $-1 0 0 13.850194964490894 0 0 1 1 0 0 forward_v I I I I #
face $-1 $88 $89 $32 $-1 $90 reversed single #
loop $-1 $-1 $91 $42 #
plane-surface $-1 0 0 13.850194964490894 0 0 1 1 0 0 forward_v I I I I #
face $-1 $92 $93 $33 $-1 $94 reversed single #
loop $-1 $-1 $95 $43 #
plane-surface $-1 0 0 157.07754753257851 0 0 1 1 0 0 forward_v I I I I #
face $-1 $96 $97 $34 $-1 $98 forward single #
loop $-1 $99 $100 $44 #
cone-surface $-1 0 0 -1.4259163182470189 0 0 1 1 0 0 1 I I 0 1 1 forward I I I I #
face $-1 $101 $102 $35 $-1 $103 reversed single #
loop $-1 $-1 $104 $45 #
plane-surface $-1 0 0 157.07754753257851 0 0 1 1 0 0 forward_v I I I I #
face $-1 $105 $106 $36 $-1 $107 forward single #
loop $-1 $108 $109 $46 #
cone-surface $-1 0 0 -1.4259163182470189 0 0 1 1 0 0 1 I I 0 1 1 forward I I I I #
face $-1 $110 $111 $37 $-1 $112 reversed single #
loop $-1 $-1 $113 $47 #
plane-surface $-1 0 0 157.07754753257851 0 0 1 1 0 0 forward_v I I I I #
face $-1 $114 $115 $38 $-1 $116 forward single #
loop $-1 $117 $118 $48 #
cone-surface $-1 0 0 -2.3553804132206189 0 0 1 1.5 0 0 1 I I 0 1 1.5 forward I I I I #
face $-1 $119 $120 $39 $-1 $121 forward single #
loop $-1 $122 $123 $49 #
cone-surface $-1 0 0 -2.3553804132206189 0 0 1 1.5 0 0 1 I I 0 1 1.5 forward I I I I #
face $-1 $124 $125 $30 $-1 $126 reversed single #
loop $-1 $-1 $127 $50 #
plane-surface $-1 0 0 -13.850194964490894 0 0 1 1 0 0 forward_v I I I I #
coedge $-1 $128 $129 $130 $131 forward $51 $-1 #
face $-1 $132 $133 $31 $-1 $134 reversed single #
loop $-1 $-1 $135 $53 #
plane-surface $-1 0 0 -13.850194964490894 0 0 1 1 0 0 forward_v I I I I #
coedge $-1 $136 $137 $138 $139 forward $54 $-1 #
face $-1 $140 $141 $32 $-1 $142 reversed single #
loop $-1 $-1 $143 $56 #
plane-surface $-1 0 0 -13.850194964490894 0 0 1 1 0 0 forward_v I I I I #
coedge $-1 $144 $145 $146 $147 forward $57 $-1 #
face $-1 $148 $149 $33 $-1 $150 reversed single #
loop $-1 $-1 $151 $59 #
plane-surface $-1 0 0 -157.07754753257851 0 0 1 1 0 0 forward_v I I I I #
coedge $-1 $152 $153 $154 $155 forward $60 $-1 #
face $-1 $-1 $156 $34 $-1 $157 forward single #
loop $-1 $-1 $158 $62 #
plane-surface $-1 0 0 -2.3518326364940361 0 0 -1 -1 0 0 forward_v I I I I #
loop $-1 $-1 $159 $44 #
coedge $-1 $100 $100 $158 $160 reversed $63 $-1 #
face $-1 $161 $162 $35 $-1 $163 reversed single #
loop $-1 $-1 $164 $65 #
plane-surface $-1 0 0 -157.07754753257851 0 0 1 1 0 0 forward_v I I I I #
coedge $-1 $165 $166 $167 $168 forward $66 $-1 #
face $-1 $-1 $169 $36 $-1 $170 forward single #
loop $-1 $-1 $171 $68 #
plane-surface $-1 0 0 -2.3518326364940361 0 0 -1 -1 0 0 forward_v I I I I #
loop $-1 $-1 $172 $46 #
coedge $-1 $109 $109 $171 $173 reversed $69 $-1 #
face $-1 $174 $175 $37 $-1 $176 reversed single #
loop $-1 $-1 $177 $71 #
plane-surface $-1 0 0 -157.07754753257851 0 0 1 1 0 0 forward_v I I I I #
coedge $-1 $178 $179 $180 $181 forward $72 $-1 #
face $-1 $-1 $182 $38 $-1 $183 forward single #
loop $-1 $-1 $184 $74 #
plane-surface $-1 0 0 -3.9607608264412377 0 0 -1 -1 0 0 forward_v I I I I #
loop $-1 $-1 $185 $48 #
coedge $-1 $118 $118 $184 $186 reversed $75 $-1 #
face $-1 $-1 $187 $39 $-1 $188 forward single #
loop $-1 $-1 $189 $77 #
plane-surface $-1 0 0 -3.9607608264412377 0 0 -1 -1 0 0 forward_v I I I I #
loop $-1 $-1 $190 $49 #
coedge $-1 $123 $123 $189 $191 reversed $78 $-1 #
face $-1 $192 $193 $30 $-1 $194 reversed single #
loop $-1 $-1 $195 $80 #
plane-surface $-1 0 -43.138440767038304 0 0 1 0 0 0 1 forward_v I I I I #
coedge $-1 $196 $197 $198 $199 forward $81 $-1 #
coedge $-1 $200 $83 $201 $202 forward $51 $-1 #
coedge $-1 $83 $200 $203 $204 forward $51 $-1 #
coedge $-1 $205 $206 $83 $131 reversed $207 $-1 #
edge $-1 $208 -43.138440767038304 $209 43.138440767038304 $130 $210 forward 7 unknown #
face $-1 $211 $212 $31 $-1 $213 reversed single #
loop $-1 $-1 $214 $84 #
plane-surface $-1 0 -7.9155975545160269 0 0 1 0 0 0 1 forward_v I I I I #
coedge $-1 $215 $216 $217 $218 forward $85 $-1 #
coedge $-1 $219 $87 $220 $221 forward $54 $-1 #
coedge $-1 $87 $219 $222 $223 forward $54 $-1 #
coedge $-1 $224 $225 $87 $139 reversed $226 $-1 #
edge $-1 $227 -7.9155975545160269 $228 7.9155975545160269 $138 $229 forward 7 unknown #
face $-1 $230 $231 $32 $-1 $232 reversed single #
loop $-1 $-1 $233 $88 #
plane-surface $-1 0 -7.915597554516026 0 0 1 0 0 0 1 forward_v I I I I #
coedge $-1 $234 $235 $236 $237 forward $89 $-1 #
coedge $-1 $238 $91 $239 $240 forward $57 $-1 #
coedge $-1 $91 $238 $241 $242 forward $57 $-1 #
coedge $-1 $243 $244 $91 $147 reversed $245 $-1 #
edge $-1 $246 -7.915597554516026 $247 7.915597554516026 $146 $248 forward 7 unknown #
face $-1 $249 $250 $33 $-1 $251 reversed single #
loop $-1 $-1 $252 $92 #
plane-surface $-1 0 -3.7210526954903624 0 0 1 0 0 0 1 forward_v I I I I #
coedge $-1 $253 $254 $255 $256 forward $93 $-1 #
coedge $-1 $257 $95 $258 $259 forward $60 $-1 #
coedge $-1 $95 $257 $260 $261 forward $60 $-1 #
coedge $-1 $262 $263 $95 $155 reversed $264 $-1 #
edge $-1 $265 -3.7210526954903624 $266 3.7210526954903624 $154 $267 forward 7 unknown #
loop $-1 $268 $269 $96 #
cone-surface $-1 0 0 0 0 0 1 0.5 0 0 1 I I -0.70710678118654746 0.70710678118654746 0.5 forward I I I I #
coedge $-1 $158 $158 $100 $160 forward $97 $-1 #
coedge $-1 $159 $159 $269 $270 forward $99 $-1 #
edge $-1 $271 0 $271 6.2831853071796004 $158 $272 forward 7 unknown #
face $-1 $273 $274 $35 $-1 $275 reversed single #
loop $-1 $-1 $276 $101 #
plane-surface $-1 0 -3.7210526954903624 0 0 1 0 0 0 1 forward_v I I I I #
coedge $-1 $277 $278 $279 $280 forward $102 $-1 #
coedge $-1 $281 $104 $282 $283 forward $66 $-1 #
coedge $-1 $104 $281 $284 $285 forward $66 $-1 #
coedge $-1 $286 $287 $104 $168 reversed $288 $-1 #
edge $-1 $289 -3.7210526954903624 $290 3.7210526954903624 $167 $291 forward 7 unknown #
loop $-1 $292 $293 $105 #
cone-surface $-1 0 0 0 0 0 1 0.5 0 0 1 I I -0.70710678118654746 0.70710678118654746 0.5 forward I I I I #
coedge $-1 $171 $171 $109 $173 forward $106 $-1 #
coedge $-1 $172 $172 $293 $294 forward $108 $-1 #
edge $-1 $295 0 $295 6.2831853071796004 $171 $296 forward 7 unknown #
face $-1 $297 $298 $37 $-1 $299 reversed single #
loop $-1 $-1 $300 $110 #
plane-surface $-1 0 -7.6092089147625899 0 0 1 0 0 0 1 forward_v I I I I #
coedge $-1 $301 $302 $303 $304 forward $111 $-1 #
coedge $-1 $305 $113 $306 $307 forward $72 $-1 #
coedge $-1 $113 $305 $308 $309 forward $72 $-1 #
coedge $-1 $310 $311 $113 $181 reversed $312 $-1 #
edge $-1 $313 -7.6092089147625899 $314 7.6092089147625899 $180 $315 forward 7 unknown #
loop $-1 $316 $317 $114 #
cone-surface $-1 0 0 0 0 0 1 0.75 0 0 1 I I -0.70710678118654757 0.70710678118654757 0.75 forward I I I I #
coedge $-1 $184 $184 $118 $186 forward $115 $-1 #
coedge $-1 $185 $185 $317 $318 forward $117 $-1 #
edge $-1 $319 0 $319 6.2831853071796004 $184 $320 forward 7 unknown #
loop $-1 $321 $322 $119 #
cone-surface $-1 0 0 0 0 0 1 0.75 0 0 1 I I -0.70710678118654757 0.70710678118654757 0.75 forward I I I I #
coedge $-1 $189 $189 $123 $191 forward $120 $-1 #
coedge $-1 $190 $190 $322 $323 forward $122 $-1 #
edge $-1 $324 0 $324 6.2831853071796004 $189 $325 forward 7 unknown #
face $-1 $326 $327 $30 $-1 $328 reversed single #
loop $-1 $-1 $329 $124 #
plane-surface $-1 -78.538773766289253 0 0 1 0 0 0 0 -1 forward_v I I I I #
coedge $-1 $330 $203 $331 $332 forward $125 $-1 #
coedge $-1 $333 $127 $330 $334 forward $81 $-1 #
coedge $-1 $127 $333 $335 $336 forward $81 $-1 #
coedge $-1 $206 $205 $127 $199 reversed $207 $-1 #
edge $-1 $337 -43.138440767038304 $338 43.138440767038304 $198 $339 forward 7 unknown #
coedge $-1 $129 $128 $340 $341 forward $51 $-1 #
coedge $-1 $342 $343 $128 $202 reversed $327 $-1 #
edge $-1 $209 -78.538773766289253 $344 78.538773766289253 $201 $345 forward 7 unknown #
coedge $-1 $195 $346 $129 $204 reversed $125 $-1 #
edge $-1 $347 -78.538773766289253 $208 78.538773766289253 $203 $348 forward 7 unknown #
coedge $-1 $198 $130 $346 $349 forward $207 $-1 #
coedge $-1 $130 $198 $342 $350 reversed $207 $-1 #
loop $-1 $-1 $205 $326 #
vertex $-1 $131 $351 #
vertex $-1 $131 $352 #
straight-curve $-1 78.538773766289253 0 13.850194964490894 0 1 0 I I #
face $-1 $353 $354 $31 $-1 $355 reversed single #
loop $-1 $-1 $356 $132 #
plane-surface $-1 -3.5890801862541153 0 0 1 0 0 0 0 -1 forward_v I I I I #
coedge $-1 $357 $222 $358 $359 forward $133 $-1 #
coedge $-1 $360 $135 $357 $361 forward $85 $-1 #
coedge $-1 $135 $360 $362 $363 forward $85 $-1 #
coedge $-1 $225 $224 $135 $218 reversed $226 $-1 #
edge $-1 $364 -7.9155975545160269 $365 7.9155975545160269 $217 $366 forward 7 unknown #
coedge $-1 $137 $136 $367 $368 forward $54 $-1 #
coedge $-1 $369 $370 $136 $221 reversed $354 $-1 #
edge $-1 $228 -3.5890801862541153 $371 3.5890801862541153 $220 $372 forward 7 unknown #
coedge $-1 $214 $373 $137 $223 reversed $133 $-1 #
edge $-1 $374 -3.5890801862541153 $227 3.5890801862541153 $222 $375 forward 7 unknown #
coedge $-1 $217 $138 $373 $376 forward $226 $-1 #
coedge $-1 $138 $217 $369 $377 reversed $226 $-1 #
loop $-1 $-1 $224 $353 #
vertex $-1 $139 $378 #
vertex $-1 $139 $379 #
straight-curve $-1 3.5890801862541153 0 13.850194964490894 0 1 0 I I #
face $-1 $380 $381 $32 $-1 $382 reversed single #
loop $-1 $-1 $383 $140 #
plane-surface $-1 -3.5890801862541153 0 0 1 0 0 0 0 -1 forward_v I I I I #
coedge $-1 $384 $241 $385 $386 forward $141 $-1 #
coedge $-1 $387 $143 $384 $388 forward $89 $-1 #
coedge $-1 $143 $387 $389 $390 forward $89 $-1 #
coedge $-1 $244 $243 $143 $237 reversed $245 $-1 #
edge $-1 $391 -7.915597554516026 $392 7.915597554516026 $236 $393 forward 7 unknown #
coedge $-1 $145 $144 $394 $395 forward $57 $-1 #
coedge $-1 $396 $397 $144 $240 reversed $381 $-1 #
edge $-1 $247 -3.5890801862541153 $398 3.5890801862541153 $239 $399 forward 7 unknown #
coedge $-1 $233 $400 $145 $242 reversed $141 $-1 #
edge $-1 $401 -3.5890801862541153 $246 3.5890801862541153 $241 $402 forward 7 unknown #
coedge $-1 $236 $146 $400 $403 forward $245 $-1 #
coedge $-1 $146 $236 $396 $404 reversed $245 $-1 #
loop $-1 $-1 $243 $380 #
vertex $-1 $147 $405 #
vertex $-1 $147 $406 #
straight-curve $-1 3.5890801862541153 0 13.850194964490894 0 1 0 I I #
face $-1 $407 $408 $33 $-1 $409 reversed single #
loop $-1 $-1 $410 $148 #
plane-surface $-1 -314.15509506515701 0 0 1 0 0 0 0 -1 forward_v I I I I #
coedge $-1 $411 $260 $412 $413 forward $149 $-1 #
coedge $-1 $414 $151 $411 $415 forward $93 $-1 #
coedge $-1 $151 $414 $416 $417 forward $93 $-1 #
coedge $-1 $263 $262 $151 $256 reversed $264 $-1 #
edge $-1 $418 -3.7210526954903624 $419 3.7210526954903624 $255 $420 forward 7 unknown #
coedge $-1 $153 $152 $421 $422 forward $60 $-1 #
coedge $-1 $423 $424 $152 $259 reversed $408 $-1 #
edge $-1 $266 -314.15509506515701 $425 314.15509506515701 $258 $426 forward 7 unknown #
coedge $-1 $252 $427 $153 $261 reversed $149 $-1 #
edge $-1 $428 -314.15509506515701 $265 314.15509506515701 $260 $429 forward 7 unknown #
coedge $-1 $255 $154 $427 $430 forward $264 $-1 #
coedge $-1 $154 $255 $423 $431 reversed $264 $-1 #
loop $-1 $-1 $262 $407 #
vertex $-1 $155 $432 #
vertex $-1 $155 $433 #
straight-curve $-1 314.15509506515701 0 157.07754753257851 0 1 0 I I #
loop $-1 $-1 $434 $96 #
coedge $-1 $269 $269 $159 $270 reversed $156 $-1 #
edge $-1 $435 0 $435 6.2831853071796004 $269 $436 forward 7 unknown #
vertex $-1 $160 $437 #
ellipse-curve $-1 0 0 -2.3518326364940361 0 0 -1 1 0 0 1 I I #
face $-1 $438 $439 $35 $-1 $440 reversed single #
loop $-1 $-1 $441 $161 #
plane-surface $-1 -314.15509506515701 0 0 1 0 0 0 0 -1 forward_v I I I I #
coedge $-1 $442 $284 $443 $444 forward $162 $-1 #
coedge $-1 $445 $164 $442 $446 forward $102 $-1 #
coedge $-1 $164 $445 $447 $448 forward $102 $-1 #
coedge $-1 $287 $286 $164 $280 reversed $288 $-1 #
edge $-1 $449 -3.7210526954903624 $450 3.7210526954903624 $279 $451 forward 7 unknown #
coedge $-1 $166 $165 $452 $453 forward $66 $-1 #
coedge $-1 $454 $455 $165 $283 reversed $439 $-1 #
edge $-1 $290 -314.15509506515701 $456 314.15509506515701 $282 $457 forward 7 unknown #
coedge $-1 $276 $458 $166 $285 reversed $162 $-1 #
edge $-1 $459 -314.15509506515701 $289 314.15509506515701 $284 $460 forward 7 unknown #
coedge $-1 $279 $167 $458 $461 forward $288 $-1 #
coedge $-1 $167 $279 $454 $462 reversed $288 $-1 #
loop $-1 $-1 $286 $438 #
vertex $-1 $168 $463 #
vertex $-1 $168 $464 #
straight-curve $-1 314.15509506515701 0 157.07754753257851 0 1 0 I I #
loop $-1 $-1 $465 $105 #
coedge $-1 $293 $293 $172 $294 reversed $169 $-1 #
edge $-1 $466 0 $466 6.2831853071796004 $293 $467 forward 7 unknown #
vertex $-1 $173 $468 #
ellipse-curve $-1 0 0 -2.3518326364940361 0 0 -1 1 0 0 1 I I #
face $-1 $469 $470 $37 $-1 $471 reversed single #
loop $-1 $-1 $472 $174 #
plane-surface $-1 -314.15509506515701 0 0 1 0 0 0 0 -1 forward_v I I I I #
coedge $-1 $473 $308 $474 $475 forward $175 $-1 #
coedge $-1 $476 $177 $473 $477 forward $111 $-1 #
coedge $-1 $177 $476 $478 $479 forward $111 $-1 #
coedge $-1 $311 $310 $177 $304 reversed $312 $-1 #
edge $-1 $480 -7.6092089147625899 $481 7.6092089147625899 $303 $482 forward 7 unknown #
coedge $-1 $179 $178 $483 $484 forward $72 $-1 #
coedge $-1 $485 $486 $178 $307 reversed $470 $-1 #
edge $-1 $314 -314.15509506515701 $487 314.15509506515701 $306 $488 forward 7 unknown #
coedge $-1 $300 $489 $179 $309 reversed $175 $-1 #
edge $-1 $490 -314.15509506515701 $313 314.15509506515701 $308 $491 forward 7 unknown #
coedge $-1 $303 $180 $489 $492 forward $312 $-1 #
coedge $-1 $180 $303 $485 $493 reversed $312 $-1 #
loop $-1 $-1 $310 $469 #
vertex $-1 $181 $494 #
vertex $-1 $181 $495 #
straight-curve $-1 314.15509506515701 0 157.07754753257851 0 1 0 I I #
loop $-1 $-1 $496 $114 #
coedge $-1 $317 $317 $185 $318 reversed $182 $-1 #
edge $-1 $497 0 $497 6.2831853071796004 $317 $498 forward 7 unknown #
vertex $-1 $186 $499 #
ellipse-curve $-1 0 0 -3.9607608264412377 0 0 -1 1.5 0 0 1 I I #
loop $-1 $-1 $500 $119 #
coedge $-1 $322 $322 $190 $323 reversed $187 $-1 #
edge $-1 $501 0 $501 6.2831853071796004 $322 $502 forward 7 unknown #
vertex $-1 $191 $503 #
ellipse-curve $-1 0 0 -3.9607608264412377 0 0 -1 1.5 0 0 1 I I #
face $-1 $-1 $207 $30 $-1 $504 reversed single #
loop $-1 $-1 $342 $192 #
plane-surface $-1 0 43.138440767038304 0 0 -1 0 0 0 -1 forward_v I I I I #
coedge $-1 $505 $340 $343 $506 forward $193 $-1 #
coedge $-1 $346 $195 $196 $334 reversed $125 $-1 #
coedge $-1 $340 $505 $195 $332 reversed $193 $-1 #
edge $-1 $347 -13.850194964490894 $507 13.850194964490894 $331 $508 forward 7 unknown #
coedge $-1 $197 $196 $505 $509 forward $81 $-1 #
edge $-1 $338 -78.538773766289253 $507 78.538773766289253 $330 $510 forward 7 unknown #
coedge $-1 $343 $342 $197 $336 reversed $327 $-1 #
edge $-1 $511 -78.538773766289253 $337 78.538773766289253 $335 $512 forward 7 unknown #
vertex $-1 $199 $513 #
vertex $-1 $349 $514 #
straight-curve $-1 78.538773766289253 0 -13.850194964490894 0 -1 0 I I #
coedge $-1 $329 $331 $200 $341 reversed $193 $-1 #
edge $-1 $344 -43.138440767038304 $347 43.138440767038304 $340 $515 forward 7 unknown #
coedge $-1 $335 $201 $206 $350 forward $327 $-1 #
coedge $-1 $201 $335 $329 $506 reversed $327 $-1 #
vertex $-1 $202 $516 #
straight-curve $-1 0 43.138440767038304 13.850194964490894 -1 0 0 I I #
coedge $-1 $203 $330 $205 $349 reversed $125 $-1 #
vertex $-1 $341 $517 #
straight-curve $-1 0 -43.138440767038304 13.850194964490894 1 0 0 I I #
edge $-1 $208 -13.850194964490894 $338 13.850194964490894 $205 $518 forward 7 unknown #
edge $-1 $209 -13.850194964490894 $337 13.850194964490894 $206 $519 forward 7 unknown #
point $-1 78.538773766289253 -43.138440767038304 13.850194964490894 #
point $-1 78.538773766289253 43.138440767038304 13.850194964490894 #
face $-1 $-1 $226 $31 $-1 $520 reversed single #
loop $-1 $-1 $369 $211 #
plane-surface $-1 0 7.9155975545160269 0 0 -1 0 0 0 -1 forward_v I I I I #
coedge $-1 $521 $367 $370 $522 forward $212 $-1 #
coedge $-1 $373 $214 $215 $361 reversed $133 $-1 #
coedge $-1 $367 $521 $214 $359 reversed $212 $-1 #
edge $-1 $374 -13.850194964490894 $523 13.850194964490894 $358 $524 forward 7 unknown #
coedge $-1 $216 $215 $521 $525 forward $85 $-1 #
edge $-1 $365 -3.5890801862541153 $523 3.5890801862541153 $357 $526 forward 7 unknown #
coedge $-1 $370 $369 $216 $363 reversed $354 $-1 #
edge $-1 $527 -3.5890801862541153 $364 3.5890801862541153 $362 $528 forward 7 unknown #
vertex $-1 $218 $529 #
vertex $-1 $376 $530 #
straight-curve $-1 3.5890801862541153 0 -13.850194964490894 0 -1 0 I I #
coedge $-1 $356 $358 $219 $368 reversed $212 $-1 #
edge $-1 $371 -7.9155975545160269 $374 7.9155975545160269 $367 $531 forward 7 unknown #
coedge $-1 $362 $220 $225 $377 forward $354 $-1 #
coedge $-1 $220 $362 $356 $522 reversed $354 $-1 #
vertex $-1 $221 $532 #
straight-curve $-1 0 7.9155975545160269 13.850194964490894 -1 0 0 I I #
coedge $-1 $222 $357 $224 $376 reversed $133 $-1 #
vertex $-1 $368 $533 #
straight-curve $-1 0 -7.9155975545160269 13.850194964490894 1 0 0 I I #
edge $-1 $227 -13.850194964490894 $365 13.850194964490894 $224 $534 forward 7 unknown #
edge $-1 $228 -13.850194964490894 $364 13.850194964490894 $225 $535 forward 7 unknown #
point $-1 3.5890801862541153 -7.9155975545160269 13.850194964490894 #
point $-1 3.5890801862541153 7.9155975545160269 13.850194964490894 #
face $-1 $-1 $245 $32 $-1 $536 reversed single #
loop $-1 $-1 $396 $230 #
plane-surface $-1 0 7.915597554516026 0 0 -1 0 0 0 -1 forward_v I I I I #
coedge $-1 $537 $394 $397 $538 forward $231 $-1 #
coedge $-1 $400 $233 $234 $388 reversed $141 $-1 #
coedge $-1 $394 $537 $233 $386 reversed $231 $-1 #
edge $-1 $401 -13.850194964490894 $539 13.850194964490894 $385 $540 forward 7 unknown #
coedge $-1 $235 $234 $537 $541 forward $89 $-1 #
edge $-1 $392 -3.5890801862541153 $539 3.5890801862541153 $384 $542 forward 7 unknown #
coedge $-1 $397 $396 $235 $390 reversed $381 $-1 #
edge $-1 $543 -3.5890801862541153 $391 3.5890801862541153 $389 $544 forward 7 unknown #
vertex $-1 $237 $545 #
vertex $-1 $403 $546 #
straight-curve $-1 3.5890801862541153 0 -13.850194964490894 0 -1 0 I I #
coedge $-1 $383 $385 $238 $395 reversed $231 $-1 #
edge $-1 $398 -7.915597554516026 $401 7.915597554516026 $394 $547 forward 7 unknown #
coedge $-1 $389 $239 $244 $404 forward $381 $-1 #
coedge $-1 $239 $389 $383 $538 reversed $381 $-1 #
vertex $-1 $240 $548 #
straight-curve $-1 0 7.915597554516026 13.850194964490894 -1 0 0 I I #
coedge $-1 $241 $384 $243 $403 reversed $141 $-1 #
vertex $-1 $395 $549 #
straight-curve $-1 0 -7.915597554516026 13.850194964490894 1 0 0 I I #
edge $-1 $246 -13.850194964490894 $392 13.850194964490894 $243 $550 forward 7 unknown #
edge $-1 $247 -13.850194964490894 $391 13.850194964490894 $244 $551 forward 7 unknown #
point $-1 3.5890801862541153 -7.915597554516026 13.850194964490894 #
point $-1 3.5890801862541153 7.915597554516026 13.850194964490894 #
face $-1 $-1 $264 $33 $-1 $552 reversed single #
loop $-1 $-1 $423 $249 #
plane-surface $-1 0 3.7210526954903624 0 0 -1 0 0 0 -1 forward_v I I I I #
coedge $-1 $553 $421 $424 $554 forward $250 $-1 #
coedge $-1 $427 $252 $253 $415 reversed $149 $-1 #
coedge $-1 $421 $553 $252 $413 reversed $250 $-1 #
edge $-1 $428 -157.07754753257851 $555 157.07754753257851 $412 $556 forward 7 unknown #
coedge $-1 $254 $253 $553 $557 forward $93 $-1 #
edge $-1 $419 -314.15509506515701 $555 314.15509506515701 $411 $558 forward 7 unknown #
coedge $-1 $424 $423 $254 $417 reversed $408 $-1 #
edge $-1 $559 -314.15509506515701 $418 314.15509506515701 $416 $560 forward 7 unknown #
vertex $-1 $256 $561 #
vertex $-1 $430 $562 #
straight-curve $-1 314.15509506515701 0 -157.07754753257851 0 -1 0 I I #
coedge $-1 $410 $412 $257 $422 reversed $250 $-1 #
edge $-1 $425 -3.7210526954903624 $428 3.7210526954903624 $421 $563 forward 7 unknown #
coedge $-1 $416 $258 $263 $431 forward $408 $-1 #
coedge $-1 $258 $416 $410 $554 reversed $408 $-1 #
vertex $-1 $259 $564 #
straight-curve $-1 0 3.7210526954903624 157.07754753257851 -1 0 0 I I #
coedge $-1 $260 $411 $262 $430 reversed $149 $-1 #
vertex $-1 $422 $565 #
straight-curve $-1 0 -3.7210526954903624 157.07754753257851 1 0 0 I I #
edge $-1 $265 -157.07754753257851 $419 157.07754753257851 $262 $566 forward 7 unknown #
edge $-1 $266 -157.07754753257851 $418 157.07754753257851 $263 $567 forward 7 unknown #
point $-1 314.15509506515701 -3.7210526954903624 157.07754753257851 #
point $-1 314.15509506515701 3.7210526954903624 157.07754753257851 #
coedge $-1 $434 $434 $-1 $568 reversed $268 $-1 #
vertex $-1 $270 $569 #
ellipse-curve $-1 0 0 -0.5 0 0 -1 1 0 0 1 I I #
point $-1 1 0 -2.3518326364940361 #
face $-1 $-1 $288 $35 $-1 $570 reversed single #
loop $-1 $-1 $454 $273 #
plane-surface $-1 0 3.7210526954903624 0 0 -1 0 0 0 -1 forward_v I I I I #
coedge $-1 $571 $452 $455 $572 forward $274 $-1 #
coedge $-1 $458 $276 $277 $446 reversed $162 $-1 #
coedge $-1 $452 $571 $276 $444 reversed $274 $-1 #
edge $-1 $459 -157.07754753257851 $573 157.07754753257851 $443 $574 forward 7 unknown #
coedge $-1 $278 $277 $571 $575 forward $102 $-1 #
edge $-1 $450 -314.15509506515701 $573 314.15509506515701 $442 $576 forward 7 unknown #
coedge $-1 $455 $454 $278 $448 reversed $439 $-1 #
edge $-1 $577 -314.15509506515701 $449 314.15509506515701 $447 $578 forward 7 unknown #
vertex $-1 $280 $579 #
vertex $-1 $461 $580 #
straight-curve $-1 314.15509506515701 0 -157.07754753257851 0 -1 0 I I #
coedge $-1 $441 $443 $281 $453 reversed $274 $-1 #
edge $-1 $456 -3.7210526954903624 $459 3.7210526954903624 $452 $581 forward 7 unknown #
coedge $-1 $447 $282 $287 $462 forward $439 $-1 #
coedge $-1 $282 $447 $441 $572 reversed $439 $-1 #
vertex $-1 $283 $582 #
straight-curve $-1 0 3.7210526954903624 157.07754753257851 -1 0 0 I I #
coedge $-1 $284 $442 $286 $461 reversed $162 $-1 #
vertex $-1 $453 $583 #
straight-curve $-1 0 -3.7210526954903624 157.07754753257851 1 0 0 I I #
edge $-1 $289 -157.07754753257851 $450 157.07754753257851 $286 $584 forward 7 unknown #
edge $-1 $290 -157.07754753257851 $449 157.07754753257851 $287 $585 forward 7 unknown #
point $-1 314.15509506515701 -3.7210526954903624 157.07754753257851 #
point $-1 314.15509506515701 3.7210526954903624 157.07754753257851 #
coedge $-1 $465 $465 $-1 $586 reversed $292 $-1 #
vertex $-1 $294 $587 #
ellipse-curve $-1 0 0 -0.5 0 0 -1 1 0 0 1 I I #
point $-1 1 0 -2.3518326364940361 #
face $-1 $-1 $312 $37 $-1 $588 reversed single #
loop $-1 $-1 $485 $297 #
plane-surface $-1 0 7.6092089147625899 0 0 -1 0 0 0 -1 forward_v I I I I #
coedge $-1 $589 $483 $486 $590 forward $298 $-1 #
coedge $-1 $489 $300 $301 $477 reversed $175 $-1 #
coedge $-1 $483 $589 $300 $475 reversed $298 $-1 #
edge $-1 $490 -157.07754753257851 $591 157.07754753257851 $474 $592 forward 7 unknown #
coedge $-1 $302 $301 $589 $593 forward $111 $-1 #
edge $-1 $481 -314.15509506515701 $591 314.15509506515701 $473 $594 forward 7 unknown #
coedge $-1 $486 $485 $302 $479 reversed $470 $-1 #
edge $-1 $595 -314.15509506515701 $480 314.15509506515701 $478 $596 forward 7 unknown #
vertex $-1 $304 $597 #
vertex $-1 $492 $598 #
straight-curve $-1 314.15509506515701 0 -157.07754753257851 0 -1 0 I I #
coedge $-1 $472 $474 $305 $484 reversed $298 $-1 #
edge $-1 $487 -7.6092089147625899 $490 7.6092089147625899 $483 $599 forward 7 unknown #
coedge $-1 $478 $306 $311 $493 forward $470 $-1 #
coedge $-1 $306 $478 $472 $590 reversed $470 $-1 #
vertex $-1 $307 $600 #
straight-curve $-1 0 7.6092089147625899 157.07754753257851 -1 0 0 I I #
coedge $-1 $308 $473 $310 $492 reversed $175 $-1 #
vertex $-1 $484 $601 #
straight-curve $-1 0 -7.6092089147625899 157.07754753257851 1 0 0 I I #
edge $-1 $313 -157.07754753257851 $481 157.07754753257851 $310 $602 forward 7 unknown #
edge $-1 $314 -157.07754753257851 $480 157.07754753257851 $311 $603 forward 7 unknown #
point $-1 314.15509506515701 -7.6092089147625899 157.07754753257851 #
point $-1 314.15509506515701 7.6092089147625899 157.07754753257851 #
coedge $-1 $496 $496 $-1 $604 reversed $316 $-1 #
vertex $-1 $318 $605 #
ellipse-curve $-1 0 0 -0.75 0 0 -1 1.5 0 0 1 I I #
point $-1 1.5 0 -3.9607608264412377 #
coedge $-1 $500 $500 $-1 $606 reversed $321 $-1 #
vertex $-1 $323 $607 #
ellipse-curve $-1 0 0 -0.75 0 0 -1 1.5 0 0 1 I I #
point $-1 1.5 0 -3.9607608264412377 #
plane-surface $-1 78.538773766289253 0 0 -1 0 0 0 0 1 forward_v I I I I #
coedge $-1 $331 $329 $333 $509 reversed $193 $-1 #
edge $-1 $344 -13.850194964490894 $511 13.850194964490894 $343 $608 forward 7 unknown #
vertex $-1 $509 $609 #
straight-curve $-1 -78.538773766289253 -43.138440767038304 0 0 0 -1 I I #
edge $-1 $507 -43.138440767038304 $511 43.138440767038304 $505 $610 forward 7 unknown #
straight-curve $-1 0 -43.138440767038304 -13.850194964490894 -1 0 0 I I #
vertex $-1 $336 $611 #
straight-curve $-1 0 43.138440767038304 -13.850194964490894 1 0 0 I I #
point $-1 78.538773766289253 43.138440767038304 -13.850194964490894 #
point $-1 78.538773766289253 -43.138440767038304 -13.850194964490894 #
straight-curve $-1 -78.538773766289253 0 13.850194964490894 0 -1 0 I I #
point $-1 -78.538773766289253 43.138440767038304 13.850194964490894 #
point $-1 -78.538773766289253 -43.138440767038304 13.850194964490894 #
straight-curve $-1 78.538773766289253 -43.138440767038304 0 0 0 -1 I I #
straight-curve $-1 78.538773766289253 43.138440767038304 0 0 0 -1 I I #
plane-surface $-1 3.5890801862541153 0 0 -1 0 0 0 0 1 forward_v I I I I #
coedge $-1 $358 $356 $360 $525 reversed $212 $-1 #
edge $-1 $371 -13.850194964490894 $527 13.850194964490894 $370 $612 forward 7 unknown #
vertex $-1 $525 $613 #
straight-curve $-1 -3.5890801862541153 -7.9155975545160269 0 0 0 -1 I I #
edge $-1 $523 -7.9155975545160269 $527 7.9155975545160269 $521 $614 forward 7 unknown #
straight-curve $-1 0 -7.9155975545160269 -13.850194964490894 -1 0 0 I I #
vertex $-1 $363 $615 #
straight-curve $-1 0 7.9155975545160269 -13.850194964490894 1 0 0 I I #
point $-1 3.5890801862541153 7.9155975545160269 -13.850194964490894 #
point $-1 3.5890801862541153 -7.9155975545160269 -13.850194964490894 #
straight-curve $-1 -3.5890801862541153 0 13.850194964490894 0 -1 0 I I #
point $-1 -3.5890801862541153 7.9155975545160269 13.850194964490894 #
point $-1 -3.5890801862541153 -7.9155975545160269 13.850194964490894 #
straight-curve $-1 3.5890801862541153 -7.9155975545160269 0 0 0 -1 I I #
straight-curve $-1 3.5890801862541153 7.9155975545160269 0 0 0 -1 I I #
plane-surface $-1 3.5890801862541153 0 0 -1 0 0 0 0 1 forward_v I I I I #
coedge $-1 $385 $383 $387 $541 reversed $231 $-1 #
edge $-1 $398 -13.850194964490894 $543 13.850194964490894 $397 $616 forward 7 unknown #
vertex $-1 $541 $617 #
straight-curve $-1 -3.5890801862541153 -7.915597554516026 0 0 0 -1 I I #
edge $-1 $539 -7.915597554516026 $543 7.915597554516026 $537 $618 forward 7 unknown #
straight-curve $-1 0 -7.915597554516026 -13.850194964490894 -1 0 0 I I #
vertex $-1 $390 $619 #
straight-curve $-1 0 7.915597554516026 -13.850194964490894 1 0 0 I I #
point $-1 3.5890801862541153 7.915597554516026 -13.850194964490894 #
point $-1 3.5890801862541153 -7.915597554516026 -13.850194964490894 #
straight-curve $-1 -3.5890801862541153 0 13.850194964490894 0 -1 0 I I #
point $-1 -3.5890801862541153 7.915597554516026 13.850194964490894 #
point $-1 -3.5890801862541153 -7.915597554516026 13.850194964490894 #
straight-curve $-1 3.5890801862541153 -7.915597554516026 0 0 0 -1 I I #
straight-curve $-1 3.5890801862541153 7.915597554516026 0 0 0 -1 I I #
plane-surface $-1 314.15509506515701 0 0 -1 0 0 0 0 1 forward_v I I I I #
coedge $-1 $412 $410 $414 $557 reversed $250 $-1 #
edge $-1 $425 -157.07754753257851 $559 157.07754753257851 $424 $620 forward 7 unknown #
vertex $-1 $557 $621 #
straight-curve $-1 -314.15509506515701 -3.7210526954903624 0 0 0 -1 I I #
edge $-1 $555 -3.7210526954903624 $559 3.7210526954903624 $553 $622 forward 7 unknown #
straight-curve $-1 0 -3.7210526954903624 -157.07754753257851 -1 0 0 I I #
vertex $-1 $417 $623 #
straight-curve $-1 0 3.7210526954903624 -157.07754753257851 1 0 0 I I #
point $-1 314.15509506515701 3.7210526954903624 -157.07754753257851 #
point $-1 314.15509506515701 -3.7210526954903624 -157.07754753257851 #
straight-curve $-1 -314.15509506515701 0 157.07754753257851 0 -1 0 I I #
point $-1 -314.15509506515701 3.7210526954903624 157.07754753257851 #
point $-1 -314.15509506515701 -3.7210526954903624 157.07754753257851 #
straight-curve $-1 314.15509506515701 -3.7210526954903624 0 0 0 -1 I I #
straight-curve $-1 314.15509506515701 3.7210526954903624 0 0 0 -1 I I #
edge $-1 $624 1 $624 0 $434 $-1 forward 7 unknown #
point $-1 1 0 -0.5 #
plane-surface $-1 314.15509506515701 0 0 -1 0 0 0 0 1 forward_v I I I I #
coedge $-1 $443 $441 $445 $575 reversed $274 $-1 #
edge $-1 $456 -157.07754753257851 $577 157.07754753257851 $455 $625 forward 7 unknown #
vertex $-1 $575 $626 #
straight-curve $-1 -314.15509506515701 -3.7210526954903624 0 0 0 -1 I I #
edge $-1 $573 -3.7210526954903624 $577 3.7210526954903624 $571 $627 forward 7 unknown #
straight-curve $-1 0 -3.7210526954903624 -157.07754753257851 -1 0 0 I I #
vertex $-1 $448 $628 #
straight-curve $-1 0 3.7210526954903624 -157.07754753257851 1 0 0 I I #
point $-1 314.15509506515701 3.7210526954903624 -157.07754753257851 #
point $-1 314.15509506515701 -3.7210526954903624 -157.07754753257851 #
straight-curve $-1 -314.15509506515701 0 157.07754753257851 0 -1 0 I I #
point $-1 -314.15509506515701 3.7210526954903624 157.07754753257851 #
point $-1 -314.15509506515701 -3.7210526954903624 157.07754753257851 #
straight-curve $-1 314.15509506515701 -3.7210526954903624 0 0 0 -1 I I #
straight-curve $-1 314.15509506515701 3.7210526954903624 0 0 0 -1 I I #
edge $-1 $629 1 $629 0 $465 $-1 forward 7 unknown #
point $-1 1 0 -0.5 #
plane-surface $-1 314.15509506515701 0 0 -1 0 0 0 0 1 forward_v I I I I #
coedge $-1 $474 $472 $476 $593 reversed $298 $-1 #
edge $-1 $487 -157.07754753257851 $595 157.07754753257851 $486 $630 forward 7 unknown #
vertex $-1 $593 $631 #
straight-curve $-1 -314.15509506515701 -7.6092089147625899 0 0 0 -1 I I #
edge $-1 $591 -7.6092089147625899 $595 7.6092089147625899 $589 $632 forward 7 unknown #
straight-curve $-1 0 -7.6092089147625899 -157.07754753257851 -1 0 0 I I #
vertex $-1 $479 $633 #
straight-curve $-1 0 7.6092089147625899 -157.07754753257851 1 0 0 I I #
point $-1 314.15509506515701 7.6092089147625899 -157.07754753257851 #
point $-1 314.15509506515701 -7.6092089147625899 -157.07754753257851 #
straight-curve $-1 -314.15509506515701 0 157.07754753257851 0 -1 0 I I #
point $-1 -314.15509506515701 7.6092089147625899 157.07754753257851 #
point $-1 -314.15509506515701 -7.6092089147625899 157.07754753257851 #
straight-curve $-1 314.15509506515701 -7.6092089147625899 0 0 0 -1 I I #
straight-curve $-1 314.15509506515701 7.6092089147625899 0 0 0 -1 I I #
edge $-1 $634 1 $634 0 $496 $-1 forward 7 unknown #
point $-1 1.5 0 -0.75 #
edge $-1 $635 1 $635 0 $500 $-1 forward 7 unknown #
point $-1 1.5 0 -0.75 #
straight-curve $-1 -78.538773766289253 43.138440767038304 0 0 0 -1 I I #
point $-1 -78.538773766289253 -43.138440767038304 -13.850194964490894 #
straight-curve $-1 -78.538773766289253 0 -13.850194964490894 0 1 0 I I #
point $-1 -78.538773766289253 43.138440767038304 -13.850194964490894 #
straight-curve $-1 -3.5890801862541153 7.9155975545160269 0 0 0 -1 I I #
point $-1 -3.5890801862541153 -7.9155975545160269 -13.850194964490894 #
straight-curve $-1 -3.5890801862541153 0 -13.850194964490894 0 1 0 I I #
point $-1 -3.5890801862541153 7.9155975545160269 -13.850194964490894 #
straight-curve $-1 -3.5890801862541153 7.915597554516026 0 0 0 -1 I I #
point $-1 -3.5890801862541153 -7.915597554516026 -13.850194964490894 #
straight-curve $-1 -3.5890801862541153 0 -13.850194964490894 0 1 0 I I #
point $-1 -3.5890801862541153 7.915597554516026 -13.850194964490894 #
straight-curve $-1 -314.15509506515701 3.7210526954903624 0 0 0 -1 I I #
point $-1 -314.15509506515701 -3.7210526954903624 -157.07754753257851 #
straight-curve $-1 -314.15509506515701 0 -157.07754753257851 0 1 0 I I #
point $-1 -314.15509506515701 3.7210526954903624 -157.07754753257851 #
vertex $-1 $568 $636 #
straight-curve $-1 -314.15509506515701 3.7210526954903624 0 0 0 -1 I I #
point $-1 -314.15509506515701 -3.7210526954903624 -157.07754753257851 #
straight-curve $-1 -314.15509506515701 0 -157.07754753257851 0 1 0 I I #
point $-1 -314.15509506515701 3.7210526954903624 -157.07754753257851 #
vertex $-1 $586 $637 #
straight-curve $-1 -314.15509506515701 7.6092089147625899 0 0 0 -1 I I #
point $-1 -314.15509506515701 -7.6092089147625899 -157.07754753257851 #
straight-curve $-1 -314.15509506515701 0 -157.07754753257851 0 1 0 I I #
point $-1 -314.15509506515701 7.6092089147625899 -157.07754753257851 #
vertex $-1 $604 $638 #
vertex $-1 $606 $639 #
point $-1 0 0 0.5 #
point $-1 0 0 0.5 #
point $-1 0 0 0.75 #
point $-1 0 0 0.75 #
End-of-ACIS-data 