500 0 13 0           
7 Unknown 11 ACIS 5.0 NT 24 Fri Mar 26 00:50:00 1999 
-1 9.9999999999999995e-007 1e-010 
body $-1 $13 $-1 $14 #
body $-1 $15 $-1 $16 #
body $-1 $17 $-1 $18 #
body $-1 $19 $-1 $20 #
body $-1 $21 $-1 $22 #
body $-1 $23 $-1 $24 #
body $-1 $25 $-1 $26 #
body $-1 $27 $-1 $28 #
body $-1 $29 $-1 $30 #
body $-1 $31 $-1 $32 #
body $-1 $33 $-1 $34 #
body $-1 $35 $-1 $36 #
body $-1 $37 $-1 $38 #
lump $-1 $-1 $39 $0 #
transform $-1 1 0 0 0 1 0 0 0 1 61.707205420087284 26.036534905727066 12.990853882678664 1 rotate no_reflect no_shear #
lump $-1 $-1 $40 $1 #
transform $-1 1 0 0 0 1 0 0 0 1 61.707205420087284 26.036534905727066 12.990853882678664 1 rotate no_reflect no_shear #
lump $-1 $-1 $41 $2 #
transform $-1 1 0 0 0 1 0 0 0 1 61.707205420087284 26.036534905727066 12.990853882678664 1 rotate no_reflect no_shear #
lump $-1 $-1 $42 $3 #
transform $-1 1 0 0 0 1 0 0 0 1 61.707205420087284 26.036534905727066 12.990853882678664 1 rotate no_reflect no_shear #
lump $-1 $-1 $43 $4 #
transform $-1 1 0 0 0 1 0 0 0 1 61.707205420087284 26.036534905727066 12.990853882678664 1 rotate no_reflect no_shear #
lump $-1 $-1 $44 $5 #
transform $-1 1 0 0 0 1 0 0 0 1 61.707205420087284 26.036534905727066 12.990853882678664 1 rotate no_reflect no_shear #
lump $-1 $-1 $45 $6 #
transform $-1 1 0 0 0 1 0 0 0 1 61.707205420087284 26.036534905727066 12.990853882678664 1 rotate no_reflect no_shear #
lump $-1 $-1 $46 $7 #
transform $-1 1 0 0 0 1 0 0 0 1 61.707205420087284 26.036534905727066 12.990853882678664 1 rotate no_reflect no_shear #
lump $-1 $-1 $47 $8 #
transform $-1 1 0 0 0 1 0 0 0 1 61.707205420087284 26.036534905727066 12.990853882678664 1 rotate no_reflect no_shear #
lump $-1 $-1 $48 $9 #
transform $-1 1 0 0 0 1 0 0 0 1 61.707205420087284 26.036534905727066 12.990853882678664 1 rotate no_reflect no_shear #
lump $-1 $-1 $49 $10 #
transform $-1 1 0 0 0 1 0 0 0 1 61.707205420087284 26.036534905727066 12.990853882678664 1 rotate no_reflect no_shear #
lump $-1 $-1 $50 $11 #
transform $-1 1 0 0 0 1 0 0 0 1 61.707205420087284 26.036534905727066 12.990853882678664 1 rotate no_reflect no_shear #
lump $-1 $-1 $51 $12 #
transform $-1 1 0 0 0 1 0 0 0 1 61.707205420087284 26.036534905727066 12.990853882678664 1 rotate no_reflect no_shear #
shell $-1 $-1 $-1 $52 $-1 $13 #
shell $-1 $-1 $-1 $53 $-1 $15 #
shell $-1 $-1 $-1 $54 $-1 $17 #
shell $-1 $-1 $-1 $55 $-1 $19 #
shell $-1 $-1 $-1 $56 $-1 $21 #
shell $-1 $-1 $-1 $57 $-1 $23 #
shell $-1 $-1 $-1 $58 $-1 $25 #
shell $-1 $-1 $-1 $59 $-1 $27 #
shell $-1 $-1 $-1 $60 $-1 $29 #
shell $-1 $-1 $-1 $61 $-1 $31 #
shell $-1 $-1 $-1 $62 $-1 $33 #
shell $-1 $-1 $-1 $63 $-1 $35 #
shell $-1 $-1 $-1 $64 $-1 $37 #
face $-1 $65 $66 $39 $-1 $67 forward single #
face $-1 $68 $69 $40 $-1 $70 forward single #
face $-1 $71 $72 $41 $-1 $73 reversed single #
face $-1 $74 $75 $42 $-1 $76 forward single #
face $-1 $77 $78 $43 $-1 $79 forward single #
face $-1 $80 $81 $44 $-1 $82 forward single #
face $-1 $83 $84 $45 $-1 $85 reversed single #
face $-1 $86 $87 $46 $-1 $88 forward single #
face $-1 $89 $90 $47 $-1 $91 forward single #
face $-1 $92 $93 $48 $-1 $94 forward single #
face $-1 $95 $96 $49 $-1 $97 reversed single #
face $-1 $98 $99 $50 $-1 $100 forward single #
face $-1 $101 $102 $51 $-1 $103 forward single #
face $-1 $104 $105 $39 $-1 $106 reversed single #
loop $-1 $-1 $107 $52 #
plane-surface $-1 0 0 12.990853882678664 0 0 1 1 0 0 forward_v I I I I #
face $-1 $108 $109 $40 $-1 $110 reversed single #
loop $-1 $-1 $111 $53 #
plane-surface $-1 0 -26.036534905727066 0 0 1 0 0 0 1 forward_v I I I I #
face $-1 $112 $113 $41 $-1 $114 reversed single #
loop $-1 $-1 $115 $54 #
plane-surface $-1 -139.3744116756487 -1.9183697053762359 96.54155573271531 0 1 0 -0.62932039886446345 0 0.77714595512881146 forward_v I I I I #
face $-1 $116 $117 $42 $-1 $118 forward single #
loop $-1 $119 $120 $55 #
cone-surface $-1 -53.496143415477711 -0.1323305701353199 6.0954382175136432 0.62932039886446345 0 -0.77714595512881146 0.38857297756440573 0 0.31466019943223172 1 I I 0 1 0.5 forward I I I I #
face $-1 $121 $122 $43 $-1 $123 forward single #
loop $-1 $124 $125 $56 #
cone-surface $-1 -53.496143415477711 2.5467281327260558 6.0954382175136432 0.62932039886446345 0 -0.77714595512881146 0.38857297756440573 0 0.31466019943223172 1 I I 0 1 0.5 forward I I I I #
face $-1 $126 $127 $44 $-1 $128 forward single #
loop $-1 $129 $130 $57 #
cone-surface $-1 -53.496143415477711 5.2257868355874315 6.0954382175136432 0.62932039886446345 0 -0.77714595512881146 0.38857297756440573 0 0.31466019943223172 1 I I 0 1 0.5 forward I I I I #
face $-1 $131 $132 $45 $-1 $133 reversed single #
loop $-1 $-1 $134 $58 #
plane-surface $-1 -61.707205420087277 2.5467281327260558 0.63054554366830473 -0.62932039886446345 0 0.77714595512881146 0.77714595512881146 0 0.62932039886446345 forward_v I I I I #
face $-1 $135 $136 $46 $-1 $137 forward single #
loop $-1 $138 $139 $59 #
cone-surface $-1 -53.496143415477711 8.797865106069267 6.0954382175136432 0.62932039886446345 0 -0.77714595512881146 0.38857297756440573 0 0.31466019943223172 1 I I 0 1 0.5 forward I I I I #
face $-1 $140 $141 $47 $-1 $142 forward single #
loop $-1 $143 $144 $60 #
cone-surface $-1 -53.496143415477711 11.476923808930643 6.0954382175136432 0.62932039886446345 0 -0.77714595512881146 0.38857297756440573 0 0.31466019943223172 1 I I 0 1 0.5 forward I I I I #
face $-1 $145 $146 $48 $-1 $147 forward single #
loop $-1 $148 $149 $61 #
cone-surface $-1 -53.496143415477711 14.155982511792018 6.0954382175136432 0.62932039886446345 0 -0.77714595512881146 0.38857297756440573 0 0.31466019943223172 1 I I 0 1 0.5 forward I I I I #
face $-1 $150 $151 $49 $-1 $152 reversed single #
loop $-1 $-1 $153 $62 #
plane-surface $-1 28.404486068609096 21.176531872323636 174.59136009206 0 -1 0 -0.55919291073839883 0 -0.82903756765294845 forward_v I I I I #
face $-1 $154 $155 $50 $-1 $156 forward single #
loop $-1 $157 $158 $63 #
cone-surface $-1 53.901464606691484 15.542948197185211 7.2448610284716501 -0.55919291073839883 0 -0.82903756765294845 0.82903756765294845 0 -0.55919291073839883 1 I I 0 1 1 forward I I I I #
face $-1 $159 $160 $51 $-1 $161 forward single #
loop $-1 $162 $163 $64 #
cone-surface $-1 53.901464606691484 18.923098402268266 7.2448610284716501 -0.55919291073839883 0 -0.82903756765294845 0.82903756765294845 0 -0.55919291073839883 1 I I 0 1 1 forward I I I I #
face $-1 $164 $165 $39 $-1 $166 reversed single #
loop $-1 $-1 $167 $65 #
plane-surface $-1 0 0 -12.990853882678664 0 0 1 1 0 0 forward_v I I I I #
coedge $-1 $168 $169 $170 $171 forward $66 $-1 #
face $-1 $172 $173 $40 $-1 $174 reversed single #
loop $-1 $-1 $175 $68 #
plane-surface $-1 0 0 -12.990853882678664 0 0 1 1 0 0 forward_v I I I I #
coedge $-1 $176 $177 $178 $179 forward $69 $-1 #
face $-1 $180 $181 $41 $-1 $182 reversed single #
loop $-1 $-1 $183 $71 #
plane-surface $-1 -61.707205420087277 2.5467281327260558 0.63054554366830473 -0.62932039886446345 0 0.77714595512881146 0.77714595512881146 0 0.62932039886446345 forward_v I I I I #
coedge $-1 $184 $185 $186 $187 reversed $72 $-1 #
face $-1 $-1 $188 $42 $-1 $189 forward single #
loop $-1 $190 $191 $74 #
cone-surface $-1 -52.759605965108356 -0.1323305701353199 5.1858902330716035 0.62932039886446345 0 -0.77714595512881146 0.19428648878220287 0 0.15733009971611586 1 I I -0.70710678118654746 0.70710678118654746 0.25 forward I I I I #
loop $-1 $-1 $192 $55 #
coedge $-1 $120 $120 $193 $194 reversed $75 $-1 #
face $-1 $-1 $195 $43 $-1 $196 forward single #
loop $-1 $197 $198 $77 #
cone-surface $-1 -52.759605965108356 2.5467281327260558 5.1858902330716035 0.62932039886446345 0 -0.77714595512881146 0.19428648878220287 0 0.15733009971611586 1 I I -0.70710678118654746 0.70710678118654746 0.25 forward I I I I #
loop $-1 $-1 $199 $56 #
coedge $-1 $125 $125 $200 $201 reversed $78 $-1 #
face $-1 $-1 $202 $44 $-1 $203 forward single #
loop $-1 $204 $205 $80 #
cone-surface $-1 -52.759605965108356 5.2257868355874315 5.1858902330716035 0.62932039886446345 0 -0.77714595512881146 0.19428648878220287 0 0.15733009971611586 1 I I -0.70710678118654746 0.70710678118654746 0.25 forward I I I I #
loop $-1 $-1 $206 $57 #
coedge $-1 $130 $130 $207 $208 reversed $81 $-1 #
face $-1 $209 $210 $45 $-1 $211 forward single #
loop $-1 $-1 $212 $83 #
plane-surface $-1 -139.3744116756487 15.942021647032934 96.54155573271531 0 -1 0 0.62932039886446345 0 -0.77714595512881146 forward_v I I I I #
coedge $-1 $213 $214 $215 $216 reversed $84 $-1 #
face $-1 $-1 $217 $46 $-1 $218 forward single #
loop $-1 $219 $220 $86 #
cone-surface $-1 -52.759605965108356 8.797865106069267 5.1858902330716035 0.62932039886446345 0 -0.77714595512881146 0.19428648878220287 0 0.15733009971611586 1 I I -0.70710678118654746 0.70710678118654746 0.25 forward I I I I #
loop $-1 $-1 $221 $59 #
coedge $-1 $139 $139 $222 $223 reversed $87 $-1 #
face $-1 $-1 $224 $47 $-1 $225 forward single #
loop $-1 $226 $227 $89 #
cone-surface $-1 -52.759605965108356 11.476923808930643 5.1858902330716035 0.62932039886446345 0 -0.77714595512881146 0.19428648878220287 0 0.15733009971611586 1 I I -0.70710678118654746 0.70710678118654746 0.25 forward I I I I #
loop $-1 $-1 $228 $60 #
coedge $-1 $144 $144 $229 $230 reversed $90 $-1 #
face $-1 $-1 $231 $48 $-1 $232 forward single #
loop $-1 $233 $234 $92 #
cone-surface $-1 -52.759605965108356 14.155982511792018 5.1858902330716035 0.62932039886446345 0 -0.77714595512881146 0.19428648878220287 0 0.15733009971611586 1 I I -0.70710678118654746 0.70710678118654746 0.25 forward I I I I #
loop $-1 $-1 $235 $61 #
coedge $-1 $149 $149 $236 $237 reversed $93 $-1 #
face $-1 $238 $239 $49 $-1 $240 reversed single #
loop $-1 $-1 $241 $95 #
plane-surface $-1 -40.607977556172735 17.233023299726739 72.276177115799996 0.55919291073839883 0 0.82903756765294845 0.82903756765294845 0 -0.55919291073839883 forward_v I I I I #
coedge $-1 $242 $243 $244 $245 reversed $96 $-1 #
face $-1 $-1 $246 $50 $-1 $247 forward single #
loop $-1 $248 $249 $98 #
cone-surface $-1 53.026666541537345 15.542948197185211 5.947919586268398 -0.55919291073839883 0 -0.82903756765294845 0.41451878382647422 0 -0.27959645536919941 1 I I -0.70710678118654746 0.70710678118654746 0.5 forward I I I I #
loop $-1 $-1 $250 $63 #
coedge $-1 $158 $158 $251 $252 reversed $99 $-1 #
face $-1 $-1 $253 $51 $-1 $254 forward single #
loop $-1 $255 $256 $101 #
cone-surface $-1 53.026666541537345 18.923098402268266 5.947919586268398 -0.55919291073839883 0 -0.82903756765294845 0.41451878382647422 0 -0.27959645536919941 1 I I -0.70710678118654746 0.70710678118654746 0.5 forward I I I I #
loop $-1 $-1 $257 $64 #
coedge $-1 $163 $163 $258 $259 reversed $102 $-1 #
face $-1 $260 $261 $39 $-1 $262 reversed single #
loop $-1 $-1 $263 $104 #
plane-surface $-1 0 -26.036534905727066 0 0 1 0 0 0 1 forward_v I I I I #
coedge $-1 $264 $265 $266 $267 forward $105 $-1 #
coedge $-1 $268 $107 $269 $270 forward $66 $-1 #
coedge $-1 $107 $268 $271 $272 forward $66 $-1 #
coedge $-1 $273 $274 $107 $171 reversed $275 $-1 #
edge $-1 $276 -26.036534905727066 $277 26.036534905727066 $170 $278 forward 7 unknown #
face $-1 $279 $280 $40 $-1 $281 forward single #
loop $-1 $-1 $282 $108 #
plane-surface $-1 61.707205420087284 0 0 -1 0 0 0 0 1 forward_v I I I I #
coedge $-1 $283 $284 $285 $286 forward $109 $-1 #
coedge $-1 $285 $111 $282 $287 reversed $69 $-1 #
coedge $-1 $111 $285 $288 $289 reversed $69 $-1 #
coedge $-1 $290 $291 $111 $179 reversed $280 $-1 #
edge $-1 $292 -61.707205420087284 $293 61.707205420087284 $178 $294 forward 7 unknown #
face $-1 $295 $296 $41 $-1 $297 forward single #
loop $-1 $-1 $298 $112 #
plane-surface $-1 -139.3744116756487 7.0118259708283475 96.54155573271531 0 -1 0 0.62932039886446345 0 -0.77714595512881146 forward_v I I I I #
coedge $-1 $299 $300 $301 $302 reversed $113 $-1 #
coedge $-1 $185 $115 $303 $304 reversed $72 $-1 #
coedge $-1 $115 $184 $299 $305 reversed $72 $-1 #
coedge $-1 $301 $306 $115 $187 forward $296 $-1 #
edge $-1 $307 7.9800004177370667 $308 23.243709725649737 $186 $309 forward 7 unknown #
loop $-1 $-1 $193 $116 #
plane-surface $-1 -61.707205420087277 2.5467281327260558 0.63054554366830473 -0.62932039886446345 0 0.77714595512881146 0.77714595512881146 0 0.62932039886446345 forward_v I I I I #
loop $-1 $-1 $310 $74 #
coedge $-1 $191 $191 $192 $311 reversed $117 $-1 #
coedge $-1 $192 $192 $191 $311 forward $119 $-1 #
coedge $-1 $193 $193 $120 $194 forward $188 $-1 #
edge $-1 $312 0 $312 6.2831853071796004 $193 $313 forward 7 unknown #
loop $-1 $-1 $200 $121 #
plane-surface $-1 -61.707205420087277 2.5467281327260558 0.63054554366830473 -0.62932039886446345 0 0.77714595512881146 0.77714595512881146 0 0.62932039886446345 forward_v I I I I #
loop $-1 $-1 $314 $77 #
coedge $-1 $198 $198 $199 $315 reversed $122 $-1 #
coedge $-1 $199 $199 $198 $315 forward $124 $-1 #
coedge $-1 $200 $200 $125 $201 forward $195 $-1 #
edge $-1 $316 0 $316 6.2831853071796004 $200 $317 forward 7 unknown #
loop $-1 $-1 $207 $126 #
plane-surface $-1 -61.707205420087277 2.5467281327260558 0.63054554366830473 -0.62932039886446345 0 0.77714595512881146 0.77714595512881146 0 0.62932039886446345 forward_v I I I I #
loop $-1 $-1 $318 $80 #
coedge $-1 $205 $205 $206 $319 reversed $127 $-1 #
coedge $-1 $206 $206 $205 $319 forward $129 $-1 #
coedge $-1 $207 $207 $130 $208 forward $202 $-1 #
edge $-1 $320 0 $320 6.2831853071796004 $207 $321 forward 7 unknown #
face $-1 $322 $323 $45 $-1 $324 forward single #
loop $-1 $-1 $325 $131 #
plane-surface $-1 0 0 12.990853882678664 0 0 1 1 0 0 forward_v I I I I #
coedge $-1 $326 $327 $328 $329 reversed $132 $-1 #
coedge $-1 $330 $134 $331 $332 reversed $84 $-1 #
coedge $-1 $134 $330 $325 $333 reversed $84 $-1 #
coedge $-1 $334 $335 $134 $216 forward $323 $-1 #
edge $-1 $336 -9.1551213131864128e-015 $337 19.640724122900068 $215 $338 forward 7 unknown #
loop $-1 $-1 $222 $135 #
plane-surface $-1 -61.707205420087277 2.5467281327260558 0.63054554366830473 -0.62932039886446345 0 0.77714595512881146 0.77714595512881146 0 0.62932039886446345 forward_v I I I I #
loop $-1 $-1 $339 $86 #
coedge $-1 $220 $220 $221 $340 reversed $136 $-1 #
coedge $-1 $221 $221 $220 $340 forward $138 $-1 #
coedge $-1 $222 $222 $139 $223 forward $217 $-1 #
edge $-1 $341 0 $341 6.2831853071796004 $222 $342 forward 7 unknown #
loop $-1 $-1 $229 $140 #
plane-surface $-1 -61.707205420087277 2.5467281327260558 0.63054554366830473 -0.62932039886446345 0 0.77714595512881146 0.77714595512881146 0 0.62932039886446345 forward_v I I I I #
loop $-1 $-1 $343 $89 #
coedge $-1 $227 $227 $228 $344 reversed $141 $-1 #
coedge $-1 $228 $228 $227 $344 forward $143 $-1 #
coedge $-1 $229 $229 $144 $230 forward $224 $-1 #
edge $-1 $345 0 $345 6.2831853071796004 $229 $346 forward 7 unknown #
loop $-1 $-1 $236 $145 #
plane-surface $-1 -61.707205420087277 2.5467281327260558 0.63054554366830473 -0.62932039886446345 0 0.77714595512881146 0.77714595512881146 0 0.62932039886446345 forward_v I I I I #
loop $-1 $-1 $347 $92 #
coedge $-1 $234 $234 $235 $348 reversed $146 $-1 #
coedge $-1 $235 $235 $234 $348 forward $148 $-1 #
coedge $-1 $236 $236 $149 $237 forward $231 $-1 #
edge $-1 $349 0 $349 6.2831853071796004 $236 $350 forward 7 unknown #
face $-1 $351 $352 $49 $-1 $353 reversed single #
loop $-1 $-1 $354 $150 #
plane-surface $-1 28.404486068609096 13.289514727129841 174.59136009206 0 1 0 0.55919291073839883 0 0.82903756765294845 forward_v I I I I #
coedge $-1 $355 $356 $357 $358 reversed $151 $-1 #
coedge $-1 $243 $153 $359 $360 reversed $96 $-1 #
coedge $-1 $153 $242 $355 $361 reversed $96 $-1 #
coedge $-1 $357 $362 $153 $245 forward $363 $-1 #
edge $-1 $364 -47.504962385782733 $365 -33.083883978561047 $244 $366 forward 7 unknown #
loop $-1 $-1 $251 $154 #
plane-surface $-1 -40.607977556172735 17.233023299726739 72.276177115799996 0.55919291073839883 0 0.82903756765294845 0.82903756765294845 0 -0.55919291073839883 forward_v I I I I #
loop $-1 $-1 $367 $98 #
coedge $-1 $249 $249 $250 $368 reversed $155 $-1 #
coedge $-1 $250 $250 $249 $368 forward $157 $-1 #
coedge $-1 $251 $251 $158 $252 forward $246 $-1 #
edge $-1 $369 0 $369 6.2831853071796004 $251 $370 forward 7 unknown #
loop $-1 $-1 $258 $159 #
plane-surface $-1 -40.607977556172735 17.233023299726739 72.276177115799996 0.55919291073839883 0 0.82903756765294845 0.82903756765294845 0 -0.55919291073839883 forward_v I I I I #
loop $-1 $-1 $371 $101 #
coedge $-1 $256 $256 $257 $372 reversed $160 $-1 #
coedge $-1 $257 $257 $256 $372 forward $162 $-1 #
coedge $-1 $258 $258 $163 $259 forward $253 $-1 #
edge $-1 $373 0 $373 6.2831853071796004 $258 $374 forward 7 unknown #
face $-1 $375 $376 $39 $-1 $377 reversed single #
loop $-1 $-1 $378 $164 #
plane-surface $-1 -61.707205420087284 0 0 1 0 0 0 0 -1 forward_v I I I I #
coedge $-1 $379 $271 $380 $381 forward $165 $-1 #
coedge $-1 $382 $167 $379 $383 forward $105 $-1 #
coedge $-1 $167 $382 $384 $385 forward $105 $-1 #
coedge $-1 $274 $273 $167 $267 reversed $275 $-1 #
edge $-1 $386 -26.036534905727066 $387 26.036534905727066 $266 $388 forward 7 unknown #
coedge $-1 $169 $168 $389 $390 forward $66 $-1 #
coedge $-1 $391 $392 $168 $270 reversed $376 $-1 #
edge $-1 $277 -61.707205420087284 $393 61.707205420087284 $269 $394 forward 7 unknown #
coedge $-1 $263 $395 $169 $272 reversed $165 $-1 #
edge $-1 $396 -61.707205420087284 $276 61.707205420087284 $271 $397 forward 7 unknown #
coedge $-1 $266 $170 $395 $398 forward $275 $-1 #
coedge $-1 $170 $266 $391 $399 reversed $275 $-1 #
loop $-1 $-1 $273 $375 #
vertex $-1 $171 $400 #
vertex $-1 $171 $401 #
straight-curve $-1 61.707205420087284 0 12.990853882678664 0 1 0 I I #
face $-1 $402 $403 $40 $-1 $404 reversed single #
loop $-1 $-1 $291 $172 #
plane-surface $-1 0 -33.048360876555414 -6.5768204867390914 0 0 1 1 0 0 forward_v I I I I #
coedge $-1 $405 $406 $176 $287 forward $173 $-1 #
coedge $-1 $407 $175 $406 $408 forward $109 $-1 #
coedge $-1 $175 $407 $409 $410 forward $109 $-1 #
coedge $-1 $177 $176 $175 $286 reversed $69 $-1 #
edge $-1 $411 -61.707205420087284 $412 61.707205420087284 $175 $413 forward 7 unknown #
edge $-1 $412 -12.990853882678664 $293 -6.5768204867390914 $282 $414 forward 7 unknown #
coedge $-1 $409 $415 $177 $289 forward $416 $-1 #
edge $-1 $292 6.5768204867390914 $411 12.990853882678664 $288 $417 forward 7 unknown #
coedge $-1 $418 $178 $415 $419 forward $280 $-1 #
coedge $-1 $178 $418 $405 $420 forward $280 $-1 #
vertex $-1 $289 $421 #
vertex $-1 $420 $422 #
straight-curve $-1 0 -26.036534905727066 -6.5768204867390914 1 0 0 I I #
face $-1 $-1 $423 $41 $-1 $424 reversed single #
loop $-1 $-1 $186 $180 #
plane-surface $-1 0 0 12.990853882678664 0 0 1 1 0 0 forward_v I I I I #
coedge $-1 $425 $426 $427 $428 reversed $181 $-1 #
coedge $-1 $429 $183 $185 $305 forward $113 $-1 #
coedge $-1 $183 $429 $425 $430 forward $113 $-1 #
coedge $-1 $427 $186 $183 $302 forward $296 $-1 #
edge $-1 $308 -3.1917337717392638 $431 5.7384619044653196 $301 $432 forward 7 unknown #
coedge $-1 $433 $434 $184 $304 forward $423 $-1 #
edge $-1 $435 -47.640232322689357 $307 -35.279923983678991 $303 $436 forward 7 unknown #
edge $-1 $308 -19.640724122900068 $435 9.1551213131864128e-015 $185 $437 forward 7 unknown #
coedge $-1 $186 $427 $433 $438 forward $296 $-1 #
vertex $-1 $304 $439 #
vertex $-1 $187 $440 #
straight-curve $-1 -69.687205837824351 -1.9183697053762359 12.990853882678664 1 0 0 I I #
coedge $-1 $310 $310 $-1 $441 reversed $190 $-1 #
edge $-1 $442 0 $442 6.2831853071796004 $191 $443 forward 7 unknown #
vertex $-1 $194 $444 #
ellipse-curve $-1 -54.075350766130953 -0.1323305701353199 6.8106997131734808 -0.62932039886446345 0 0.77714595512881146 0.38857297756440573 0 0.31466019943223172 1 I I #
coedge $-1 $314 $314 $-1 $445 reversed $197 $-1 #
edge $-1 $446 0 $446 6.2831853071796004 $198 $447 forward 7 unknown #
vertex $-1 $201 $448 #
ellipse-curve $-1 -54.075350766130953 2.5467281327260558 6.8106997131734808 -0.62932039886446345 0 0.77714595512881146 0.38857297756440573 0 0.31466019943223172 1 I I #
coedge $-1 $318 $318 $-1 $449 reversed $204 $-1 #
edge $-1 $450 0 $450 6.2831853071796004 $205 $451 forward 7 unknown #
vertex $-1 $208 $452 #
ellipse-curve $-1 -54.075350766130953 5.2257868355874315 6.8106997131734808 -0.62932039886446345 0 0.77714595512881146 0.38857297756440573 0 0.31466019943223172 1 I I #
face $-1 $-1 $453 $45 $-1 $454 reversed single #
loop $-1 $-1 $334 $209 #
plane-surface $-1 -139.3744116756487 7.0118259708283475 96.54155573271531 0 -1 0 0.62932039886446345 0 -0.77714595512881146 forward_v I I I I #
coedge $-1 $328 $455 $214 $333 forward $210 $-1 #
coedge $-1 $327 $212 $330 $456 reversed $132 $-1 #
coedge $-1 $212 $326 $457 $458 reversed $132 $-1 #
coedge $-1 $459 $325 $212 $329 forward $210 $-1 #
edge $-1 $460 -23.243709725649737 $461 -7.9800004177370667 $328 $462 forward 7 unknown #
coedge $-1 $214 $213 $326 $456 forward $84 $-1 #
coedge $-1 $463 $457 $213 $332 forward $453 $-1 #
edge $-1 $464 -14.668657580669906 $336 -5.7384619044653196 $331 $465 forward 7 unknown #
edge $-1 $337 5.7384619044653196 $460 14.668657580669906 $325 $466 forward 7 unknown #
coedge $-1 $335 $215 $455 $467 reversed $323 $-1 #
coedge $-1 $215 $334 $463 $468 reversed $323 $-1 #
vertex $-1 $332 $469 #
vertex $-1 $333 $470 #
straight-curve $-1 -61.707205420087277 7.0118259708283475 0.63054554366830473 0.77714595512881146 0 0.62932039886446345 I I #
coedge $-1 $339 $339 $-1 $471 reversed $219 $-1 #
edge $-1 $472 0 $472 6.2831853071796004 $220 $473 forward 7 unknown #
vertex $-1 $223 $474 #
ellipse-curve $-1 -54.075350766130953 8.797865106069267 6.8106997131734808 -0.62932039886446345 0 0.77714595512881146 0.38857297756440573 0 0.31466019943223172 1 I I #
coedge $-1 $343 $343 $-1 $475 reversed $226 $-1 #
edge $-1 $476 0 $476 6.2831853071796004 $227 $477 forward 7 unknown #
vertex $-1 $230 $478 #
ellipse-curve $-1 -54.075350766130953 11.476923808930643 6.8106997131734808 -0.62932039886446345 0 0.77714595512881146 0.38857297756440573 0 0.31466019943223172 1 I I #
coedge $-1 $347 $347 $-1 $479 reversed $233 $-1 #
edge $-1 $480 0 $480 6.2831853071796004 $234 $481 forward 7 unknown #
vertex $-1 $237 $482 #
ellipse-curve $-1 -54.075350766130953 14.155982511792018 6.8106997131734808 -0.62932039886446345 0 0.77714595512881146 0.38857297756440573 0 0.31466019943223172 1 I I #
face $-1 $-1 $363 $49 $-1 $483 forward single #
loop $-1 $-1 $484 $238 #
plane-surface $-1 61.707205420087284 0 0 -1 0 0 0 0 1 forward_v I I I I #
coedge $-1 $485 $486 $487 $488 reversed $239 $-1 #
coedge $-1 $489 $241 $243 $361 forward $151 $-1 #
coedge $-1 $241 $489 $485 $490 forward $151 $-1 #
coedge $-1 $487 $244 $241 $358 forward $363 $-1 #
edge $-1 $365 -12.560020222460267 $491 -4.6730030772664719 $357 $492 forward 7 unknown #
coedge $-1 $493 $494 $242 $360 forward $352 $-1 #
edge $-1 $495 -84.031966555011834 $364 -74.304826163351336 $359 $496 forward 7 unknown #
edge $-1 $365 106.01944712574539 $495 123.41441084017458 $243 $497 forward 7 unknown #
coedge $-1 $244 $487 $493 $498 forward $363 $-1 #
loop $-1 $-1 $487 $351 #
vertex $-1 $360 $499 #
vertex $-1 $245 $500 #
straight-curve $-1 14.202243034304548 21.176531872323636 12.990853882678664 -1 0 0 I I #
coedge $-1 $367 $367 $-1 $501 reversed $248 $-1 #
edge $-1 $502 0 $502 6.2831853071796004 $249 $503 forward 7 unknown #
vertex $-1 $252 $504 #
ellipse-curve $-1 54.496666216476427 15.542948197185211 8.1272836868484326 0.55919291073839883 0 0.82903756765294845 0.82903756765294845 0 -0.55919291073839883 1 I I #
coedge $-1 $371 $371 $-1 $505 reversed $255 $-1 #
edge $-1 $506 0 $506 6.2831853071796004 $256 $507 forward 7 unknown #
vertex $-1 $259 $508 #
ellipse-curve $-1 54.496666216476427 18.923098402268266 8.1272836868484326 0.55919291073839883 0 0.82903756765294845 0.82903756765294845 0 -0.55919291073839883 1 I I #
face $-1 $-1 $275 $39 $-1 $509 reversed single #
loop $-1 $-1 $391 $260 #
plane-surface $-1 0 26.036534905727066 0 0 -1 0 0 0 -1 forward_v I I I I #
coedge $-1 $510 $389 $392 $511 forward $261 $-1 #
coedge $-1 $395 $263 $264 $383 reversed $165 $-1 #
coedge $-1 $389 $510 $263 $381 reversed $261 $-1 #
edge $-1 $396 -12.990853882678664 $512 12.990853882678664 $380 $513 forward 7 unknown #
coedge $-1 $265 $264 $510 $514 forward $105 $-1 #
edge $-1 $387 -61.707205420087284 $512 61.707205420087284 $379 $515 forward 7 unknown #
coedge $-1 $392 $391 $265 $385 reversed $376 $-1 #
edge $-1 $516 -61.707205420087284 $386 61.707205420087284 $384 $517 forward 7 unknown #
vertex $-1 $267 $518 #
vertex $-1 $398 $519 #
straight-curve $-1 61.707205420087284 0 -12.990853882678664 0 -1 0 I I #
coedge $-1 $378 $380 $268 $390 reversed $261 $-1 #
edge $-1 $393 -26.036534905727066 $396 26.036534905727066 $389 $520 forward 7 unknown #
coedge $-1 $384 $269 $274 $399 forward $376 $-1 #
coedge $-1 $269 $384 $378 $511 reversed $376 $-1 #
vertex $-1 $270 $521 #
straight-curve $-1 0 26.036534905727066 12.990853882678664 -1 0 0 I I #
coedge $-1 $271 $379 $273 $398 reversed $165 $-1 #
vertex $-1 $390 $522 #
straight-curve $-1 0 -26.036534905727066 12.990853882678664 1 0 0 I I #
edge $-1 $276 -12.990853882678664 $387 12.990853882678664 $273 $523 forward 7 unknown #
edge $-1 $277 -12.990853882678664 $386 12.990853882678664 $274 $524 forward 7 unknown #
point $-1 61.707205420087284 -26.036534905727066 12.990853882678664 #
point $-1 61.707205420087284 26.036534905727066 12.990853882678664 #
face $-1 $-1 $416 $40 $-1 $525 reversed single #
loop $-1 $-1 $526 $279 #
plane-surface $-1 0 -40.060186847383761 -9.7838371847088776 0 1 0 0 0 1 forward_v I I I I #
coedge $-1 $527 $282 $291 $420 reversed $173 $-1 #
coedge $-1 $282 $527 $283 $408 reversed $173 $-1 #
coedge $-1 $284 $283 $528 $529 forward $109 $-1 #
edge $-1 $412 26.036534905727066 $530 40.060186847383761 $406 $531 forward 7 unknown #
coedge $-1 $532 $288 $284 $410 reversed $416 $-1 #
edge $-1 $533 -40.060186847383761 $411 -26.036534905727066 $409 $534 forward 7 unknown #
vertex $-1 $289 $535 #
vertex $-1 $408 $536 #
straight-curve $-1 0 -26.036534905727066 -12.990853882678664 1 0 0 I I #
straight-curve $-1 61.707205420087284 -26.036534905727066 0 0 0 1 I I #
coedge $-1 $288 $532 $290 $419 reversed $416 $-1 #
loop $-1 $-1 $288 $402 #
straight-curve $-1 -61.707205420087284 -26.036534905727066 0 0 0 -1 I I #
coedge $-1 $291 $290 $537 $538 forward $280 $-1 #
edge $-1 $292 -7.011825970828351 $539 7.0118259708283475 $415 $540 forward 7 unknown #
edge $-1 $541 -7.0118259708283475 $293 7.011825970828351 $405 $542 forward 7 unknown #
point $-1 -61.707205420087284 -26.036534905727063 -6.5768204867390914 #
point $-1 61.707205420087284 -26.036534905727063 -6.5768204867390914 #
loop $-1 $-1 $303 $295 #
plane-surface $-1 -61.707205420087284 0 0 1 0 0 0 0 -1 forward_v I I I I #
coedge $-1 $426 $298 $300 $430 reversed $181 $-1 #
coedge $-1 $298 $425 $543 $544 reversed $181 $-1 #
coedge $-1 $306 $301 $298 $428 forward $296 $-1 #
edge $-1 $431 -23.243709725649737 $545 -7.9800004177370667 $427 $546 forward 7 unknown #
coedge $-1 $300 $299 $434 $547 reversed $113 $-1 #
edge $-1 $548 -9.1551213131864128e-015 $431 19.640724122900068 $425 $549 forward 7 unknown #
vertex $-1 $302 $550 #
straight-curve $-1 -46.443496112174614 1.2733640663630279 12.990853882678664 0 1 0 I I #
coedge $-1 $543 $303 $306 $438 reversed $423 $-1 #
coedge $-1 $303 $543 $429 $547 forward $423 $-1 #
vertex $-1 $304 $551 #
straight-curve $-1 -61.707205420087284 -1.9183697053762359 48.270777866357655 0 0 1 I I #
straight-curve $-1 -61.707205420087277 -1.9183697053762359 0.63054554366830473 -0.77714595512881146 0 -0.62932039886446345 I I #
edge $-1 $545 -7.0118259708283475 $307 1.9183697053762359 $433 $552 forward 7 unknown #
point $-1 -61.707205420087284 -1.9183697053762359 12.990853882678664 #
point $-1 -46.443496112174614 -1.9183697053762359 12.990853882678664 #
edge $-1 $553 1 $553 0 $310 $-1 forward 7 unknown #
vertex $-1 $311 $554 #
ellipse-curve $-1 -52.916936064824469 -0.1323305701353199 5.3801767218538066 -0.62932039886446345 0 0.77714595512881146 0.38857297756440573 0 0.31466019943223172 1 I I #
point $-1 -53.686777788566552 -0.1323305701353199 7.1253599126057132 #
edge $-1 $555 1 $555 0 $314 $-1 forward 7 unknown #
vertex $-1 $315 $556 #
ellipse-curve $-1 -52.916936064824469 2.5467281327260558 5.3801767218538066 -0.62932039886446345 0 0.77714595512881146 0.38857297756440573 0 0.31466019943223172 1 I I #
point $-1 -53.686777788566552 2.5467281327260558 7.1253599126057132 #
edge $-1 $557 1 $557 0 $318 $-1 forward 7 unknown #
vertex $-1 $319 $558 #
ellipse-curve $-1 -52.916936064824469 5.2257868355874315 5.3801767218538066 -0.62932039886446345 0 0.77714595512881146 0.38857297756440573 0 0.31466019943223172 1 I I #
point $-1 -53.686777788566552 5.2257868355874315 7.1253599126057132 #
loop $-1 $-1 $331 $322 #
plane-surface $-1 -61.707205420087284 0 0 1 0 0 0 0 -1 forward_v I I I I #
coedge $-1 $325 $459 $334 $467 forward $210 $-1 #
edge $-1 $464 -9.1551213131864128e-015 $460 19.640724122900068 $326 $559 forward 7 unknown #
coedge $-1 $331 $560 $327 $458 forward $453 $-1 #
edge $-1 $461 35.279923983678991 $464 47.640232322689357 $457 $561 forward 7 unknown #
coedge $-1 $455 $328 $560 $562 forward $210 $-1 #
vertex $-1 $329 $563 #
vertex $-1 $562 $564 #
straight-curve $-1 -69.687205837824351 15.942021647032934 12.990853882678664 -1 0 0 I I #
coedge $-1 $560 $331 $335 $468 forward $453 $-1 #
vertex $-1 $458 $565 #
straight-curve $-1 -61.707205420087284 1.2733640663630279 0.63054554366829385 0 -1 0 I I #
straight-curve $-1 -46.443496112174614 1.2733640663630279 12.990853882678664 0 1 0 I I #
edge $-1 $566 7.9800004177370667 $337 23.243709725649737 $455 $567 forward 7 unknown #
edge $-1 $336 -47.640232322689357 $566 -35.279923983678991 $463 $568 forward 7 unknown #
point $-1 -61.707205420087284 7.0118259708283475 0.63054554366829896 #
point $-1 -46.443496112174614 7.0118259708283475 12.990853882678664 #
edge $-1 $569 1 $569 0 $339 $-1 forward 7 unknown #
vertex $-1 $340 $570 #
ellipse-curve $-1 -52.916936064824469 8.797865106069267 5.3801767218538066 -0.62932039886446345 0 0.77714595512881146 0.38857297756440573 0 0.31466019943223172 1 I I #
point $-1 -53.686777788566552 8.797865106069267 7.1253599126057132 #
edge $-1 $571 1 $571 0 $343 $-1 forward 7 unknown #
vertex $-1 $344 $572 #
ellipse-curve $-1 -52.916936064824469 11.476923808930643 5.3801767218538066 -0.62932039886446345 0 0.77714595512881146 0.38857297756440573 0 0.31466019943223172 1 I I #
point $-1 -53.686777788566552 11.476923808930643 7.1253599126057132 #
edge $-1 $573 1 $573 0 $347 $-1 forward 7 unknown #
vertex $-1 $348 $574 #
ellipse-curve $-1 -52.916936064824469 14.155982511792018 5.3801767218538066 -0.62932039886446345 0 0.77714595512881146 0.38857297756440573 0 0.31466019943223172 1 I I #
point $-1 -53.686777788566552 14.155982511792018 7.1253599126057132 #
plane-surface $-1 0 0 12.990853882678664 0 0 1 1 0 0 forward_v I I I I #
coedge $-1 $494 $493 $486 $575 forward $352 $-1 #
coedge $-1 $486 $354 $356 $490 reversed $239 $-1 #
coedge $-1 $354 $485 $484 $575 reversed $239 $-1 #
coedge $-1 $362 $357 $354 $488 forward $363 $-1 #
edge $-1 $491 33.083883978561047 $576 47.504962385782733 $487 $577 forward 7 unknown #
coedge $-1 $356 $355 $494 $578 reversed $151 $-1 #
edge $-1 $579 -123.41441084017458 $491 -106.01944712574539 $485 $580 forward 7 unknown #
vertex $-1 $358 $581 #
straight-curve $-1 47.286127012865592 8.6165116498633694 12.990853882678664 0 -1 0 I I #
coedge $-1 $484 $359 $362 $498 reversed $352 $-1 #
coedge $-1 $359 $484 $489 $578 forward $352 $-1 #
vertex $-1 $360 $582 #
straight-curve $-1 61.707205420087284 21.176531872323636 87.29568004603 0 0 1 I I #
straight-curve $-1 -40.607977556172735 21.176531872323636 72.276177115799996 0.82903756765294845 0 -0.55919291073839883 I I #
edge $-1 $576 13.289514727129841 $364 21.176531872323636 $493 $583 forward 7 unknown #
point $-1 61.707205420087284 21.176531872323636 12.990853882678664 #
point $-1 47.286127012865599 21.176531872323636 12.990853882678664 #
edge $-1 $584 1 $584 0 $367 $-1 forward 7 unknown #
vertex $-1 $368 $585 #
ellipse-curve $-1 53.306262996906547 15.542948197185211 6.3624383700948721 0.55919291073839883 0 0.82903756765294845 0.82903756765294845 0 -0.55919291073839883 1 I I #
point $-1 55.325703784129374 15.542948197185211 7.5680907761100293 #
edge $-1 $586 1 $586 0 $371 $-1 forward 7 unknown #
vertex $-1 $372 $587 #
ellipse-curve $-1 53.306262996906547 18.923098402268266 6.3624383700948721 0.55919291073839883 0 0.82903756765294845 0.82903756765294845 0 -0.55919291073839883 1 I I #
point $-1 55.325703784129374 18.923098402268266 7.5680907761100293 #
plane-surface $-1 61.707205420087284 0 0 -1 0 0 0 0 1 forward_v I I I I #
coedge $-1 $380 $378 $382 $514 reversed $261 $-1 #
edge $-1 $393 -12.990853882678664 $516 12.990853882678664 $392 $588 forward 7 unknown #
vertex $-1 $514 $589 #
straight-curve $-1 -61.707205420087284 -26.036534905727066 0 0 0 -1 I I #
edge $-1 $512 -26.036534905727066 $516 26.036534905727066 $510 $590 forward 7 unknown #
straight-curve $-1 0 -26.036534905727066 -12.990853882678664 -1 0 0 I I #
vertex $-1 $385 $591 #
straight-curve $-1 0 26.036534905727066 -12.990853882678664 1 0 0 I I #
point $-1 61.707205420087284 26.036534905727066 -12.990853882678664 #
point $-1 61.707205420087284 -26.036534905727066 -12.990853882678664 #
straight-curve $-1 -61.707205420087284 0 12.990853882678664 0 -1 0 I I #
point $-1 -61.707205420087284 26.036534905727066 12.990853882678664 #
point $-1 -61.707205420087284 -26.036534905727066 12.990853882678664 #
straight-curve $-1 61.707205420087284 -26.036534905727066 0 0 0 -1 I I #
straight-curve $-1 61.707205420087284 26.036534905727066 0 0 0 -1 I I #
plane-surface $-1 -61.707205420087284 0 0 1 0 0 0 0 -1 forward_v I I I I #
coedge $-1 $528 $537 $532 $592 forward $403 $-1 #
coedge $-1 $406 $405 $593 $594 forward $173 $-1 #
coedge $-1 $593 $526 $407 $529 reversed $403 $-1 #
edge $-1 $530 -61.707205420087284 $533 61.707205420087284 $528 $595 forward 7 unknown #
vertex $-1 $594 $596 #
straight-curve $-1 61.707205420087284 0 -12.990853882678664 0 -1 0 I I #
coedge $-1 $415 $409 $526 $592 reversed $416 $-1 #
vertex $-1 $410 $597 #
straight-curve $-1 -61.707205420087284 0 -12.990853882678664 0 1 0 I I #
point $-1 -61.707205420087284 -26.036534905727066 -12.990853882678664 #
point $-1 61.707205420087284 -26.036534905727066 -12.990853882678664 #
coedge $-1 $526 $593 $418 $538 reversed $403 $-1 #
edge $-1 $539 -61.707205420087284 $541 61.707205420087284 $537 $598 forward 7 unknown #
vertex $-1 $419 $599 #
straight-curve $-1 -61.707205420087284 -33.048360876555414 -6.5768204867390914 0 -1 0 I I #
vertex $-1 $420 $600 #
straight-curve $-1 61.707205420087284 -33.048360876555414 -6.5768204867390914 0 1 0 I I #
coedge $-1 $434 $433 $426 $544 forward $423 $-1 #
edge $-1 $545 35.279923983678991 $548 47.640232322689357 $543 $601 forward 7 unknown #
vertex $-1 $438 $602 #
straight-curve $-1 -69.687205837824351 7.0118259708283475 12.990853882678664 -1 0 0 I I #
edge $-1 $548 -5.7384619044653196 $435 3.1917337717392638 $434 $603 forward 7 unknown #
vertex $-1 $547 $604 #
straight-curve $-1 -61.707205420087277 7.0118259708283475 0.63054554366830473 0.77714595512881146 0 0.62932039886446345 I I #
point $-1 -46.443496112174614 7.0118259708283475 12.990853882678664 #
point $-1 -61.707205420087284 -1.9183697053762359 0.63054554366829896 #
straight-curve $-1 -61.707205420087284 0 12.990853882678664 0 -1 0 I I #
vertex $-1 $441 $605 #
point $-1 -52.528363087260068 -0.1323305701353199 5.6948369212860381 #
vertex $-1 $445 $606 #
point $-1 -52.528363087260068 2.5467281327260558 5.6948369212860381 #
vertex $-1 $449 $607 #
point $-1 -52.528363087260068 5.2257868355874315 5.6948369212860381 #
straight-curve $-1 -61.707205420087277 15.942021647032934 0.63054554366830473 0.77714595512881146 0 0.62932039886446345 I I #
coedge $-1 $457 $463 $459 $562 reversed $453 $-1 #
straight-curve $-1 -61.707205420087284 15.942021647032934 48.270777866357655 0 0 -1 I I #
edge $-1 $461 -15.942021647032934 $566 -7.0118259708283475 $560 $608 forward 7 unknown #
point $-1 -46.443496112174614 15.942021647032934 12.990853882678664 #
point $-1 -61.707205420087284 15.942021647032934 12.990853882678664 #
point $-1 -61.707205420087284 15.942021647032934 0.63054554366829896 #
vertex $-1 $468 $609 #
straight-curve $-1 -69.687205837824351 7.0118259708283475 12.990853882678664 1 0 0 I I #
straight-curve $-1 -61.707205420087284 7.0118259708283475 48.270777866357655 0 0 1 I I #
vertex $-1 $471 $610 #
point $-1 -52.528363087260068 8.797865106069267 5.6948369212860381 #
vertex $-1 $475 $611 #
point $-1 -52.528363087260068 11.476923808930643 5.6948369212860381 #
vertex $-1 $479 $612 #
point $-1 -52.528363087260068 14.155982511792018 5.6948369212860381 #
edge $-1 $576 74.304826163351336 $579 84.031966555011834 $484 $613 forward 7 unknown #
vertex $-1 $498 $614 #
straight-curve $-1 14.202243034304548 13.289514727129841 12.990853882678664 1 0 0 I I #
edge $-1 $579 4.6730030772664719 $495 12.560020222460267 $494 $615 forward 7 unknown #
vertex $-1 $578 $616 #
straight-curve $-1 -40.607977556172735 13.289514727129841 72.276177115799996 -0.82903756765294845 0 0.55919291073839883 I I #
point $-1 47.286127012865599 13.289514727129841 12.990853882678664 #
point $-1 61.707205420087284 21.176531872323636 3.2637134910181658 #
straight-curve $-1 61.707205420087284 0 12.990853882678664 0 1 0 I I #
vertex $-1 $501 $617 #
point $-1 54.135300564559493 15.542948197185211 5.8032454593564733 #
vertex $-1 $505 $618 #
point $-1 54.135300564559493 18.923098402268266 5.8032454593564733 #
straight-curve $-1 -61.707205420087284 26.036534905727066 0 0 0 -1 I I #
point $-1 -61.707205420087284 -26.036534905727066 -12.990853882678664 #
straight-curve $-1 -61.707205420087284 0 -12.990853882678664 0 1 0 I I #
point $-1 -61.707205420087284 26.036534905727066 -12.990853882678664 #
edge $-1 $539 -3.2070166979697863 $533 3.2070166979697863 $532 $619 forward 7 unknown #
coedge $-1 $537 $528 $527 $594 reversed $403 $-1 #
edge $-1 $541 -3.2070166979697863 $530 3.2070166979697863 $527 $620 forward 7 unknown #
straight-curve $-1 0 -40.060186847383761 -12.990853882678664 -1 0 0 I I #
point $-1 61.707205420087284 -40.060186847383761 -12.990853882678664 #
point $-1 -61.707205420087284 -40.060186847383761 -12.990853882678664 #
straight-curve $-1 0 -40.060186847383761 -6.5768204867390914 1 0 0 I I #
point $-1 -61.707205420087284 -40.060186847383761 -6.5768204867390914 #
point $-1 61.707205420087284 -40.060186847383761 -6.5768204867390914 #
straight-curve $-1 -61.707205420087284 7.0118259708283475 48.270777866357655 0 0 -1 I I #
point $-1 -61.707205420087284 7.0118259708283475 12.990853882678664 #
straight-curve $-1 -61.707205420087284 1.2733640663630279 0.63054554366829385 0 -1 0 I I #
point $-1 -61.707205420087284 7.0118259708283475 0.63054554366829896 #
point $-1 -52.602275865392244 -0.1323305701353199 4.9916037442894003 #
point $-1 -52.602275865392244 2.5467281327260558 4.9916037442894003 #
point $-1 -52.602275865392244 5.2257868355874315 4.9916037442894003 #
straight-curve $-1 -61.707205420087284 0 12.990853882678664 0 -1 0 I I #
point $-1 -61.707205420087284 7.0118259708283475 12.990853882678664 #
point $-1 -52.602275865392244 8.797865106069267 4.9916037442894003 #
point $-1 -52.602275865392244 11.476923808930643 4.9916037442894003 #
point $-1 -52.602275865392244 14.155982511792018 4.9916037442894003 #
straight-curve $-1 61.707205420087284 13.289514727129841 87.29568004603 0 0 -1 I I #
point $-1 61.707205420087284 13.289514727129841 12.990853882678664 #
straight-curve $-1 61.707205420087284 8.6165116498633694 3.2637134910181587 0 1 0 I I #
point $-1 61.707205420087284 13.289514727129841 3.2637134910181658 #
point $-1 52.747070086168144 15.542948197185211 5.5334008024419239 #
point $-1 52.747070086168144 18.923098402268266 5.5334008024419239 #
straight-curve $-1 -61.707205420087284 -40.060186847383761 -9.7838371847088776 0 0 -1 I I #
straight-curve $-1 61.707205420087284 -40.060186847383761 -9.7838371847088776 0 0 -1 I I #
End-of-ACIS-data 