500 0 8 0           
7 Unknown 11 ACIS 5.0 NT 24 Thu Mar 25 19:32:48 1999 
-1 9.9999999999999995e-007 1e-010 
body $-1 $8 $-1 $9 #
body $-1 $10 $-1 $11 #
body $-1 $12 $-1 $13 #
body $-1 $14 $-1 $15 #
body $-1 $16 $-1 $17 #
body $-1 $18 $-1 $19 #
body $-1 $20 $-1 $21 #
body $-1 $22 $-1 $23 #
lump $-1 $-1 $24 $0 #
transform $-1 1 0 0 0 1 0 0 0 1 56.248054445020905 26.269920236638477 9.6893330180956951 1 rotate no_reflect no_shear #
lump $-1 $-1 $25 $1 #
transform $-1 1 0 0 0 1 0 0 0 1 56.248054445020905 26.269920236638477 9.6893330180956951 1 rotate no_reflect no_shear #
lump $-1 $-1 $26 $2 #
transform $-1 1 0 0 0 1 0 0 0 1 56.248054445020905 26.269920236638477 9.6893330180956951 1 rotate no_reflect no_shear #
lump $-1 $-1 $27 $3 #
transform $-1 1 0 0 0 1 0 0 0 1 56.248054445020905 26.269920236638477 9.6893330180956951 1 rotate no_reflect no_shear #
lump $-1 $-1 $28 $4 #
transform $-1 1 0 0 0 1 0 0 0 1 56.248054445020905 26.269920236638477 9.6893330180956951 1 rotate no_reflect no_shear #
lump $-1 $-1 $29 $5 #
transform $-1 1 0 0 0 1 0 0 0 1 56.248054445020905 26.269920236638477 9.6893330180956951 1 rotate no_reflect no_shear #
lump $-1 $-1 $30 $6 #
transform $-1 1 0 0 0 1 0 0 0 1 56.248054445020905 26.269920236638477 9.6893330180956951 1 rotate no_reflect no_shear #
lump $-1 $-1 $31 $7 #
transform $-1 1 0 0 0 1 0 0 0 1 56.248054445020905 26.269920236638477 9.6893330180956951 1 rotate no_reflect no_shear #
shell $-1 $-1 $-1 $32 $-1 $8 #
shell $-1 $-1 $-1 $33 $-1 $10 #
shell $-1 $-1 $-1 $34 $-1 $12 #
shell $-1 $-1 $-1 $35 $-1 $14 #
shell $-1 $-1 $-1 $36 $-1 $16 #
shell $-1 $-1 $-1 $37 $-1 $18 #
shell $-1 $-1 $-1 $38 $-1 $20 #
shell $-1 $-1 $-1 $39 $-1 $22 #
face $-1 $40 $41 $24 $-1 $42 forward single #
face $-1 $43 $44 $25 $-1 $45 reversed single #
face $-1 $46 $47 $26 $-1 $48 reversed single #
face $-1 $49 $50 $27 $-1 $51 reversed single #
face $-1 $52 $53 $28 $-1 $54 forward single #
face $-1 $55 $56 $29 $-1 $57 reversed single #
face $-1 $58 $59 $30 $-1 $60 forward single #
face $-1 $61 $62 $31 $-1 $63 forward single #
face $-1 $64 $65 $24 $-1 $66 reversed single #
loop $-1 $-1 $67 $32 #
plane-surface $-1 0 0 9.6893330180956951 0 0 1 1 0 0 forward_v I I I I #
face $-1 $68 $69 $25 $-1 $70 reversed single #
loop $-1 $-1 $71 $33 #
plane-surface $-1 0 -21.845049913361056 4.3977099107369941 0 0 1 1 0 0 forward_v I I I I #
face $-1 $72 $73 $26 $-1 $74 reversed single #
loop $-1 $-1 $75 $34 #
plane-surface $-1 0 21.845049913361059 4.3977099107369941 0 0 1 1 0 0 forward_v I I I I #
face $-1 $76 $77 $27 $-1 $78 reversed single #
loop $-1 $-1 $79 $35 #
plane-surface $-1 -16.063049376475334 12.797871579482752 86.978915222278943 0.7660444514056185 0 0.64278759981090561 0.64278759981090561 0 -0.7660444514056185 forward_v I I I I #
face $-1 $80 $81 $28 $-1 $82 forward single #
loop $-1 $83 $84 $36 #
cone-surface $-1 51.314320134984904 12.797871579482752 4.2344894222436258 -0.7660444514056185 0 -0.64278759981090561 0.64278759981090561 0 -0.7660444514056185 1 I I 0 1 1 forward I I I I #
face $-1 $85 $86 $29 $-1 $87 reversed single #
loop $-1 $-1 $88 $37 #
plane-surface $-1 -56.248054445020919 -13.696051403944821 0.16107314527657479 -0.52991927123019833 0 0.84804809178421925 0.84804809178421925 0 0.52991927123019833 forward_v I I I I #
face $-1 $89 $90 $30 $-1 $91 forward single #
loop $-1 $92 $93 $38 #
cone-surface $-1 -48.358893311307952 -15.292106340861455 4.501179035794026 0.52991927123019833 0 -0.84804809178421925 0.42402404589210962 0 0.26495963561509916 1 I I 0 1 0.5 forward I I I I #
face $-1 $94 $95 $31 $-1 $96 forward single #
loop $-1 $97 $98 $39 #
cone-surface $-1 -48.358893311307952 -12.099996467028188 4.501179035794026 0.52991927123019833 0 -0.84804809178421925 0.42402404589210962 0 0.26495963561509916 1 I I 0 1 0.5 forward I I I I #
face $-1 $99 $100 $24 $-1 $101 reversed single #
loop $-1 $-1 $102 $40 #
plane-surface $-1 0 0 -9.6893330180956951 0 0 1 1 0 0 forward_v I I I I #
coedge $-1 $103 $104 $105 $106 forward $41 $-1 #
face $-1 $107 $108 $25 $-1 $109 reversed single #
loop $-1 $-1 $110 $43 #
plane-surface $-1 0 -17.420179590083634 7.0435214644163437 0 -1 0 0 0 -1 forward_v I I I I #
coedge $-1 $111 $112 $113 $114 reversed $44 $-1 #
face $-1 $115 $116 $26 $-1 $117 forward single #
loop $-1 $-1 $118 $46 #
plane-surface $-1 0 17.420179590083638 7.0435214644163437 0 1 0 0 0 1 forward_v I I I I #
coedge $-1 $119 $120 $121 $122 reversed $47 $-1 #
face $-1 $123 $124 $27 $-1 $125 forward single #
loop $-1 $-1 $126 $49 #
plane-surface $-1 70.11397064346346 8.1755635688818664 159.2900190437752 0 1 0 0.7660444514056185 0 0.64278759981090561 forward_v I I I I #
coedge $-1 $127 $128 $129 $130 reversed $50 $-1 #
face $-1 $-1 $131 $28 $-1 $132 forward single #
loop $-1 $133 $134 $52 #
cone-surface $-1 49.726286398279392 12.797871579482752 2.901970934363888 -0.7660444514056185 0 -0.64278759981090561 0.3213937999054528 0 -0.38302222570280925 1 I I -0.70710678118654746 0.70710678118654746 0.5 forward I I I I #
loop $-1 $-1 $135 $36 #
coedge $-1 $84 $84 $136 $137 reversed $53 $-1 #
face $-1 $138 $139 $29 $-1 $140 reversed single #
loop $-1 $-1 $141 $55 #
plane-surface $-1 -115.86191048426491 -9.9719232178060082 95.563183622626269 0 -1 0 0.52991927123019833 0 -0.84804809178421925 forward_v I I I I #
coedge $-1 $142 $143 $144 $145 reversed $56 $-1 #
face $-1 $-1 $146 $30 $-1 $147 forward single #
loop $-1 $148 $149 $58 #
cone-surface $-1 -47.961453857885303 -15.292106340861455 3.8651429669558617 0.52991927123019833 0 -0.84804809178421925 0.21201202294605481 0 0.13247981780754958 1 I I -0.70710678118654746 0.70710678118654746 0.25 forward I I I I #
loop $-1 $-1 $150 $38 #
coedge $-1 $93 $93 $151 $152 reversed $59 $-1 #
face $-1 $-1 $153 $31 $-1 $154 forward single #
loop $-1 $155 $156 $61 #
cone-surface $-1 -47.961453857885303 -12.099996467028188 3.8651429669558617 0.52991927123019833 0 -0.84804809178421925 0.21201202294605481 0 0.13247981780754958 1 I I -0.70710678118654746 0.70710678118654746 0.25 forward I I I I #
loop $-1 $-1 $157 $39 #
coedge $-1 $98 $98 $158 $159 reversed $62 $-1 #
face $-1 $160 $161 $24 $-1 $162 reversed single #
loop $-1 $-1 $163 $64 #
plane-surface $-1 0 -26.269920236638477 0 0 1 0 0 0 1 forward_v I I I I #
coedge $-1 $164 $165 $166 $167 forward $65 $-1 #
coedge $-1 $168 $67 $169 $170 forward $41 $-1 #
coedge $-1 $67 $168 $171 $172 forward $41 $-1 #
coedge $-1 $173 $174 $67 $106 reversed $175 $-1 #
edge $-1 $176 -26.269920236638477 $177 26.269920236638477 $105 $178 forward 7 unknown #
face $-1 $179 $180 $25 $-1 $181 reversed single #
loop $-1 $-1 $182 $68 #
plane-surface $-1 -56.248054445020905 0 0 1 0 0 0 0 -1 forward_v I I I I #
coedge $-1 $183 $184 $185 $186 reversed $69 $-1 #
coedge $-1 $187 $71 $188 $189 reversed $44 $-1 #
coedge $-1 $71 $187 $183 $190 forward $44 $-1 #
coedge $-1 $185 $191 $71 $114 forward $192 $-1 #
edge $-1 $193 -15.347395279957949 $194 -6.4976546334031067 $113 $195 forward 7 unknown #
face $-1 $196 $197 $26 $-1 $198 reversed single #
loop $-1 $-1 $199 $72 #
plane-surface $-1 0 0 9.6893330180956951 0 0 1 1 0 0 forward_v I I I I #
coedge $-1 $200 $201 $202 $203 reversed $73 $-1 #
coedge $-1 $204 $75 $200 $205 forward $47 $-1 #
coedge $-1 $75 $204 $206 $207 reversed $47 $-1 #
coedge $-1 $208 $209 $75 $122 forward $197 $-1 #
edge $-1 $210 6.4976546334031084 $211 15.347395279957951 $121 $212 forward 7 unknown #
face $-1 $213 $214 $27 $-1 $215 reversed single #
loop $-1 $-1 $129 $76 #
plane-surface $-1 0 0 9.6893330180956951 0 0 1 1 0 0 forward_v I I I I #
coedge $-1 $216 $217 $218 $219 reversed $77 $-1 #
coedge $-1 $220 $79 $221 $222 reversed $50 $-1 #
coedge $-1 $79 $220 $216 $223 forward $50 $-1 #
coedge $-1 $218 $224 $79 $130 forward $124 $-1 #
edge $-1 $225 -11.021243800342262 $226 -1.7766277791404903 $129 $227 forward 7 unknown #
loop $-1 $-1 $136 $80 #
plane-surface $-1 -16.063049376475334 12.797871579482752 86.978915222278943 0.7660444514056185 0 0.64278759981090561 0.64278759981090561 0 -0.7660444514056185 forward_v I I I I #
loop $-1 $-1 $228 $52 #
coedge $-1 $134 $134 $135 $229 reversed $81 $-1 #
coedge $-1 $135 $135 $134 $229 forward $83 $-1 #
coedge $-1 $136 $136 $84 $137 forward $131 $-1 #
edge $-1 $230 0 $230 6.2831853071796004 $136 $231 forward 7 unknown #
face $-1 $232 $233 $29 $-1 $234 forward single #
loop $-1 $-1 $235 $85 #
plane-surface $-1 -56.248054445020905 0 0 1 0 0 0 0 -1 forward_v I I I I #
coedge $-1 $236 $237 $238 $239 reversed $86 $-1 #
coedge $-1 $240 $88 $241 $242 reversed $56 $-1 #
coedge $-1 $88 $240 $236 $243 forward $56 $-1 #
coedge $-1 $238 $244 $88 $145 forward $233 $-1 #
edge $-1 $245 -10.572153888111224 $246 -3.1238975158335975 $144 $247 forward 7 unknown #
loop $-1 $-1 $151 $89 #
plane-surface $-1 -56.248054445020919 -13.696051403944821 0.16107314527657479 -0.52991927123019833 0 0.84804809178421925 0.84804809178421925 0 0.52991927123019833 forward_v I I I I #
loop $-1 $-1 $248 $58 #
coedge $-1 $149 $149 $150 $249 reversed $90 $-1 #
coedge $-1 $150 $150 $149 $249 forward $92 $-1 #
coedge $-1 $151 $151 $93 $152 forward $146 $-1 #
edge $-1 $250 0 $250 6.2831853071796004 $151 $251 forward 7 unknown #
loop $-1 $-1 $158 $94 #
plane-surface $-1 -56.248054445020919 -13.696051403944821 0.16107314527657479 -0.52991927123019833 0 0.84804809178421925 0.84804809178421925 0 0.52991927123019833 forward_v I I I I #
loop $-1 $-1 $252 $61 #
coedge $-1 $156 $156 $157 $253 reversed $95 $-1 #
coedge $-1 $157 $157 $156 $253 forward $97 $-1 #
coedge $-1 $158 $158 $98 $159 forward $153 $-1 #
edge $-1 $254 0 $254 6.2831853071796004 $158 $255 forward 7 unknown #
face $-1 $256 $257 $24 $-1 $258 reversed single #
loop $-1 $-1 $259 $99 #
plane-surface $-1 -56.248054445020905 0 0 1 0 0 0 0 -1 forward_v I I I I #
coedge $-1 $260 $171 $261 $262 forward $100 $-1 #
coedge $-1 $263 $102 $260 $264 forward $65 $-1 #
coedge $-1 $102 $263 $265 $266 forward $65 $-1 #
coedge $-1 $174 $173 $102 $167 reversed $175 $-1 #
edge $-1 $267 -26.269920236638477 $268 26.269920236638477 $166 $269 forward 7 unknown #
coedge $-1 $104 $103 $270 $271 forward $41 $-1 #
coedge $-1 $272 $273 $103 $170 reversed $257 $-1 #
edge $-1 $177 -56.248054445020905 $274 56.248054445020905 $169 $275 forward 7 unknown #
coedge $-1 $163 $276 $104 $172 reversed $100 $-1 #
edge $-1 $277 -56.248054445020905 $176 56.248054445020905 $171 $278 forward 7 unknown #
coedge $-1 $166 $105 $276 $279 forward $175 $-1 #
coedge $-1 $105 $166 $272 $280 reversed $175 $-1 #
loop $-1 $-1 $173 $256 #
vertex $-1 $106 $281 #
vertex $-1 $106 $282 #
straight-curve $-1 56.248054445020905 0 9.6893330180956951 0 1 0 I I #
face $-1 $283 $284 $25 $-1 $285 forward single #
loop $-1 $-1 $188 $107 #
plane-surface $-1 0 -26.269920236638477 0 0 1 0 0 0 1 forward_v I I I I #
coedge $-1 $286 $287 $288 $289 forward $108 $-1 #
coedge $-1 $288 $110 $112 $190 reversed $69 $-1 #
coedge $-1 $110 $288 $290 $291 reversed $69 $-1 #
coedge $-1 $292 $113 $110 $186 forward $192 $-1 #
edge $-1 $194 0.87594917852882226 $293 6.1675722858875215 $185 $294 forward 7 unknown #
coedge $-1 $112 $111 $286 $295 reversed $44 $-1 #
coedge $-1 $296 $297 $111 $189 forward $180 $-1 #
edge $-1 $298 -56.248054445020905 $193 56.248054445020905 $188 $299 forward 7 unknown #
edge $-1 $300 -56.248054445020905 $194 56.248054445020905 $183 $301 forward 7 unknown #
coedge $-1 $113 $292 $296 $302 forward $192 $-1 #
loop $-1 $-1 $185 $283 #
vertex $-1 $189 $303 #
vertex $-1 $114 $304 #
straight-curve $-1 56.248054445020905 -10.922524956680528 4.3977099107369941 0 1 0 I I #
face $-1 $305 $306 $26 $-1 $307 reversed single #
loop $-1 $-1 $209 $115 #
plane-surface $-1 56.248054445020905 0 0 -1 0 0 0 0 1 forward_v I I I I #
coedge $-1 $308 $309 $201 $310 forward $116 $-1 #
coedge $-1 $311 $118 $119 $205 reversed $73 $-1 #
coedge $-1 $118 $311 $199 $310 reversed $73 $-1 #
coedge $-1 $312 $313 $118 $203 forward $306 $-1 #
edge $-1 $314 0.87594917852882226 $315 6.1675722858875215 $202 $316 forward 7 unknown #
coedge $-1 $120 $119 $313 $317 reversed $47 $-1 #
edge $-1 $210 -56.248054445020905 $314 56.248054445020905 $200 $318 forward 7 unknown #
coedge $-1 $319 $320 $120 $207 forward $321 $-1 #
edge $-1 $211 -56.248054445020905 $322 56.248054445020905 $206 $323 forward 7 unknown #
coedge $-1 $324 $121 $320 $325 reversed $197 $-1 #
coedge $-1 $121 $324 $311 $326 forward $197 $-1 #
vertex $-1 $122 $327 #
vertex $-1 $207 $328 #
straight-curve $-1 56.248054445020905 10.92252495668053 4.3977099107369941 0 1 0 I I #
face $-1 $-1 $329 $27 $-1 $330 forward single #
loop $-1 $-1 $331 $123 #
plane-surface $-1 56.248054445020905 0 0 -1 0 0 0 0 1 forward_v I I I I #
coedge $-1 $217 $126 $128 $223 reversed $77 $-1 #
coedge $-1 $126 $216 $331 $332 reversed $77 $-1 #
coedge $-1 $333 $129 $126 $219 forward $124 $-1 #
edge $-1 $226 13.733623525222569 $334 21.191069123289175 $218 $335 forward 7 unknown #
coedge $-1 $128 $127 $336 $337 reversed $50 $-1 #
coedge $-1 $338 $339 $127 $222 forward $329 $-1 #
edge $-1 $340 -76.716511983300478 $225 -65.11478600062685 $221 $341 forward 7 unknown #
edge $-1 $342 -112.4961088900418 $226 -100.89438290736818 $216 $343 forward 7 unknown #
coedge $-1 $129 $333 $338 $344 forward $124 $-1 #
vertex $-1 $222 $345 #
vertex $-1 $130 $346 #
straight-curve $-1 48.790608846954299 6.3989357897413761 9.6893330180957022 0 -1 0 I I #
coedge $-1 $228 $228 $-1 $347 reversed $133 $-1 #
edge $-1 $348 0 $348 6.2831853071796004 $134 $349 forward 7 unknown #
vertex $-1 $137 $350 #
ellipse-curve $-1 52.519331645987606 12.797871579482752 5.2456141102179146 0.7660444514056185 0 0.64278759981090561 0.64278759981090561 0 -0.7660444514056185 1 I I #
face $-1 $-1 $351 $29 $-1 $352 forward single #
loop $-1 $-1 $238 $138 #
plane-surface $-1 0 0 9.6893330180956951 0 0 1 1 0 0 forward_v I I I I #
coedge $-1 $353 $354 $237 $355 forward $139 $-1 #
coedge $-1 $237 $141 $143 $243 reversed $86 $-1 #
coedge $-1 $141 $236 $235 $355 reversed $86 $-1 #
coedge $-1 $356 $144 $141 $239 forward $233 $-1 #
edge $-1 $246 -16.931303793307244 $357 -1.6829007971115502 $238 $358 forward 7 unknown #
coedge $-1 $143 $142 $353 $359 reversed $56 $-1 #
coedge $-1 $360 $361 $142 $242 forward $351 $-1 #
edge $-1 $362 -25.674098618116439 $245 -7.6935110265396638 $241 $363 forward 7 unknown #
edge $-1 $364 1.675811683274863e-014 $246 17.980587591576793 $236 $365 forward 7 unknown #
coedge $-1 $144 $356 $360 $366 forward $233 $-1 #
vertex $-1 $242 $367 #
vertex $-1 $145 $368 #
straight-curve $-1 -40.999651448825212 -6.8480257019724107 9.6893330180956951 0 1 0 I I #
coedge $-1 $248 $248 $-1 $369 reversed $148 $-1 #
edge $-1 $370 0 $370 6.2831853071796004 $149 $371 forward 7 unknown #
vertex $-1 $152 $372 #
ellipse-curve $-1 -48.623852946923051 -15.292106340861455 4.9252030816861421 -0.52991927123019833 0 0.84804809178421925 0.42402404589210962 0 0.26495963561509916 1 I I #
coedge $-1 $252 $252 $-1 $373 reversed $155 $-1 #
edge $-1 $374 0 $374 6.2831853071796004 $156 $375 forward 7 unknown #
vertex $-1 $159 $376 #
ellipse-curve $-1 -48.623852946923051 -12.099996467028188 4.9252030816861421 -0.52991927123019833 0 0.84804809178421925 0.42402404589210962 0 0.26495963561509916 1 I I #
face $-1 $-1 $175 $24 $-1 $377 reversed single #
loop $-1 $-1 $272 $160 #
plane-surface $-1 0 26.269920236638477 0 0 -1 0 0 0 -1 forward_v I I I I #
coedge $-1 $378 $270 $273 $379 forward $161 $-1 #
coedge $-1 $276 $163 $164 $264 reversed $100 $-1 #
coedge $-1 $270 $378 $163 $262 reversed $161 $-1 #
edge $-1 $277 -9.6893330180956951 $380 9.6893330180956951 $261 $381 forward 7 unknown #
coedge $-1 $165 $164 $378 $382 forward $65 $-1 #
edge $-1 $268 -56.248054445020905 $380 56.248054445020905 $260 $383 forward 7 unknown #
coedge $-1 $273 $272 $165 $266 reversed $257 $-1 #
edge $-1 $384 -56.248054445020905 $267 56.248054445020905 $265 $385 forward 7 unknown #
vertex $-1 $167 $386 #
vertex $-1 $279 $387 #
straight-curve $-1 56.248054445020905 0 -9.6893330180956951 0 -1 0 I I #
coedge $-1 $259 $261 $168 $271 reversed $161 $-1 #
edge $-1 $274 -26.269920236638477 $277 26.269920236638477 $270 $388 forward 7 unknown #
coedge $-1 $265 $169 $174 $280 forward $257 $-1 #
coedge $-1 $169 $265 $259 $379 reversed $257 $-1 #
vertex $-1 $170 $389 #
straight-curve $-1 0 26.269920236638477 9.6893330180956951 -1 0 0 I I #
coedge $-1 $171 $260 $173 $279 reversed $100 $-1 #
vertex $-1 $271 $390 #
straight-curve $-1 0 -26.269920236638477 9.6893330180956951 1 0 0 I I #
edge $-1 $176 -9.6893330180956951 $268 9.6893330180956951 $173 $391 forward 7 unknown #
edge $-1 $177 -9.6893330180956951 $267 9.6893330180956951 $174 $392 forward 7 unknown #
point $-1 56.248054445020905 -26.269920236638477 9.6893330180956951 #
point $-1 56.248054445020905 26.269920236638477 9.6893330180956951 #
face $-1 $-1 $192 $25 $-1 $393 reversed single #
loop $-1 $-1 $290 $179 #
plane-surface $-1 0 0 9.6893330180956951 0 0 1 1 0 0 forward_v I I I I #
coedge $-1 $394 $182 $187 $295 forward $108 $-1 #
coedge $-1 $182 $394 $395 $396 reversed $108 $-1 #
coedge $-1 $184 $183 $182 $289 reversed $69 $-1 #
edge $-1 $397 -6.1675722858875215 $300 -0.87594917852882226 $182 $398 forward 7 unknown #
coedge $-1 $395 $399 $184 $291 forward $284 $-1 #
edge $-1 $293 -56.248054445020905 $397 56.248054445020905 $290 $400 forward 7 unknown #
coedge $-1 $191 $185 $399 $401 reversed $192 $-1 #
vertex $-1 $186 $402 #
straight-curve $-1 56.248054445020905 -17.420179590083634 3.5217607322081719 0 0 1 I I #
edge $-1 $300 6.4976546334031067 $298 15.347395279957949 $286 $403 forward 7 unknown #
coedge $-1 $404 $188 $191 $302 reversed $180 $-1 #
coedge $-1 $188 $404 $394 $405 forward $180 $-1 #
vertex $-1 $189 $406 #
straight-curve $-1 0 -26.269920236638477 4.3977099107369941 1 0 0 I I #
vertex $-1 $295 $407 #
straight-curve $-1 0 -17.420179590083634 4.3977099107369941 1 0 0 I I #
edge $-1 $408 -9.6893330180956951 $193 -4.3977099107369941 $191 $409 forward 7 unknown #
point $-1 56.248054445020905 -26.269920236638477 4.3977099107369941 #
point $-1 56.248054445020905 -17.420179590083634 4.3977099107369941 #
face $-1 $-1 $321 $26 $-1 $410 reversed single #
loop $-1 $-1 $202 $196 #
plane-surface $-1 -56.248054445020905 0 0 1 0 0 0 0 -1 forward_v I I I I #
coedge $-1 $411 $199 $324 $412 forward $116 $-1 #
coedge $-1 $199 $411 $312 $413 forward $116 $-1 #
edge $-1 $315 -56.248054445020905 $414 56.248054445020905 $199 $415 forward 7 unknown #
coedge $-1 $201 $200 $209 $326 reversed $73 $-1 #
coedge $-1 $416 $202 $309 $413 reversed $306 $-1 #
coedge $-1 $202 $416 $204 $317 forward $306 $-1 #
vertex $-1 $317 $417 #
vertex $-1 $203 $418 #
straight-curve $-1 -56.248054445020905 17.420179590083638 3.5217607322081719 0 0 1 I I #
edge $-1 $322 -15.347395279957951 $314 -6.4976546334031084 $313 $419 forward 7 unknown #
straight-curve $-1 0 17.420179590083638 4.3977099107369941 -1 0 0 I I #
coedge $-1 $420 $206 $416 $421 reversed $321 $-1 #
coedge $-1 $206 $420 $208 $325 forward $321 $-1 #
loop $-1 $-1 $206 $305 #
vertex $-1 $207 $422 #
straight-curve $-1 0 26.269920236638477 4.3977099107369941 -1 0 0 I I #
coedge $-1 $209 $208 $308 $412 reversed $197 $-1 #
edge $-1 $423 -9.6893330180956951 $211 -4.3977099107369941 $208 $424 forward 7 unknown #
edge $-1 $414 -6.1675722858875215 $210 -0.87594917852882226 $209 $425 forward 7 unknown #
point $-1 56.248054445020905 17.420179590083638 4.3977099107369941 #
point $-1 56.248054445020905 26.26992023663848 4.3977099107369941 #
loop $-1 $-1 $221 $213 #
plane-surface $-1 0 17.420179590083638 7.0435214644163437 0 1 0 0 0 1 forward_v I I I I #
coedge $-1 $336 $426 $217 $332 forward $214 $-1 #
edge $-1 $334 69.955676503791906 $342 78.843114319547425 $331 $427 forward 7 unknown #
coedge $-1 $224 $218 $426 $428 forward $124 $-1 #
vertex $-1 $428 $429 #
straight-curve $-1 35.05698532173173 8.1755635688818664 9.6893330180956951 1 0 0 I I #
coedge $-1 $430 $331 $220 $337 forward $214 $-1 #
edge $-1 $342 1.7766277791404903 $340 11.021243800342262 $336 $431 forward 7 unknown #
coedge $-1 $339 $221 $224 $344 reversed $329 $-1 #
coedge $-1 $221 $338 $430 $432 reversed $329 $-1 #
vertex $-1 $432 $433 #
straight-curve $-1 6.9356318414106077 17.420179590083638 59.570153538340136 -0.64278759981090572 0 0.76604445140561861 I I #
vertex $-1 $337 $434 #
straight-curve $-1 -16.063049376475334 8.1755635688818664 86.978915222278943 -0.64278759981090561 0 0.7660444514056185 I I #
edge $-1 $435 -56.248054445020905 $225 -48.790608846954292 $224 $436 forward 7 unknown #
point $-1 48.790608846954292 17.420179590083638 9.6893330180956951 #
point $-1 48.790608846954299 8.1755635688818664 9.6893330180956951 #
edge $-1 $437 1 $437 0 $228 $-1 forward 7 unknown #
vertex $-1 $229 $438 #
ellipse-curve $-1 50.109308623982201 12.797871579482752 3.2233647342693406 0.7660444514056185 0 0.64278759981090561 0.64278759981090561 0 -0.7660444514056185 1 I I #
point $-1 53.162119245798507 12.797871579482752 4.4795696588122933 #
loop $-1 $-1 $241 $232 #
plane-surface $-1 0 -17.420179590083634 7.0435214644163437 0 -1 0 0 0 -1 forward_v I I I I #
coedge $-1 $439 $235 $240 $359 forward $139 $-1 #
coedge $-1 $235 $439 $356 $440 reversed $139 $-1 #
edge $-1 $357 38.092258793217439 $364 47.620518666036553 $235 $441 forward 7 unknown #
coedge $-1 $244 $238 $354 $440 forward $233 $-1 #
vertex $-1 $440 $442 #
straight-curve $-1 -57.930955242132455 -9.9719232178060082 9.6893330180956951 -1 0 0 I I #
edge $-1 $364 3.1238975158335975 $362 10.572153888111224 $353 $443 forward 7 unknown #
coedge $-1 $361 $241 $244 $366 reversed $351 $-1 #
coedge $-1 $241 $360 $439 $444 reversed $351 $-1 #
vertex $-1 $444 $445 #
straight-curve $-1 -34.4751841036474 -17.420179590083634 13.766272774481088 0.84804809178421925 0 0.52991927123019833 I I #
vertex $-1 $359 $446 #
straight-curve $-1 -56.248054445020919 -9.9719232178060082 0.16107314527657479 0.84804809178421925 0 0.52991927123019833 I I #
edge $-1 $447 -56.248054445020905 $245 -40.999651448825212 $244 $448 forward 7 unknown #
point $-1 -40.999651448825212 -17.420179590083634 9.6893330180956951 #
point $-1 -40.999651448825212 -9.9719232178060082 9.6893330180956951 #
edge $-1 $449 1 $449 0 $248 $-1 forward 7 unknown #
vertex $-1 $249 $450 #
ellipse-curve $-1 -48.093933675692853 -15.292106340861455 4.0771549899019162 -0.52991927123019833 0 0.84804809178421925 0.42402404589210962 0 0.26495963561509916 1 I I #
point $-1 -48.199828901030941 -15.292106340861455 5.1901627173012352 #
edge $-1 $451 1 $451 0 $252 $-1 forward 7 unknown #
vertex $-1 $253 $452 #
ellipse-curve $-1 -48.093933675692853 -12.099996467028188 4.0771549899019162 -0.52991927123019833 0 0.84804809178421925 0.42402404589210962 0 0.26495963561509916 1 I I #
point $-1 -48.199828901030941 -12.099996467028188 5.1901627173012352 #
plane-surface $-1 56.248054445020905 0 0 -1 0 0 0 0 1 forward_v I I I I #
coedge $-1 $261 $259 $263 $382 reversed $161 $-1 #
edge $-1 $274 -9.6893330180956951 $384 9.6893330180956951 $273 $453 forward 7 unknown #
vertex $-1 $382 $454 #
straight-curve $-1 -56.248054445020905 -26.269920236638477 0 0 0 -1 I I #
edge $-1 $380 -26.269920236638477 $384 26.269920236638477 $378 $455 forward 7 unknown #
straight-curve $-1 0 -26.269920236638477 -9.6893330180956951 -1 0 0 I I #
vertex $-1 $266 $456 #
straight-curve $-1 0 26.269920236638477 -9.6893330180956951 1 0 0 I I #
point $-1 56.248054445020905 26.269920236638477 -9.6893330180956951 #
point $-1 56.248054445020905 -26.269920236638477 -9.6893330180956951 #
straight-curve $-1 -56.248054445020905 0 9.6893330180956951 0 -1 0 I I #
point $-1 -56.248054445020905 26.269920236638477 9.6893330180956951 #
point $-1 -56.248054445020905 -26.269920236638477 9.6893330180956951 #
straight-curve $-1 56.248054445020905 -26.269920236638477 0 0 0 -1 I I #
straight-curve $-1 56.248054445020905 26.269920236638477 0 0 0 -1 I I #
plane-surface $-1 56.248054445020905 0 0 -1 0 0 0 0 1 forward_v I I I I #
coedge $-1 $287 $286 $297 $405 reversed $108 $-1 #
coedge $-1 $457 $290 $287 $396 forward $284 $-1 #
edge $-1 $397 17.420179590083634 $458 26.269920236638477 $287 $459 forward 7 unknown #
vertex $-1 $396 $460 #
straight-curve $-1 -56.248054445020905 -17.420179590083634 3.5217607322081719 0 0 -1 I I #
coedge $-1 $290 $457 $292 $401 forward $284 $-1 #
straight-curve $-1 0 -17.420179590083634 9.6893330180956951 -1 0 0 I I #
edge $-1 $408 -26.269920236638477 $293 -17.420179590083634 $292 $461 forward 7 unknown #
point $-1 56.248054445020905 -17.420179590083634 9.6893330180956934 #
straight-curve $-1 -56.248054445020905 -10.922524956680528 4.3977099107369941 0 -1 0 I I #
coedge $-1 $297 $296 $457 $462 reversed $180 $-1 #
edge $-1 $458 -9.6893330180956951 $298 -4.3977099107369941 $394 $463 forward 7 unknown #
point $-1 -56.248054445020905 -26.269920236638477 4.3977099107369941 #
point $-1 -56.248054445020905 -17.420179590083634 4.3977099107369941 #
vertex $-1 $401 $464 #
straight-curve $-1 56.248054445020905 -26.269920236638477 0 0 0 -1 I I #
plane-surface $-1 0 26.269920236638477 0 0 -1 0 0 0 -1 forward_v I I I I #
coedge $-1 $309 $308 $420 $465 forward $116 $-1 #
edge $-1 $414 17.420179590083638 $423 26.269920236638477 $324 $466 forward 7 unknown #
edge $-1 $467 -26.269920236638477 $315 -17.420179590083638 $312 $468 forward 7 unknown #
vertex $-1 $412 $469 #
straight-curve $-1 0 17.420179590083638 9.6893330180956951 1 0 0 I I #
coedge $-1 $313 $312 $319 $421 forward $306 $-1 #
point $-1 -56.248054445020905 17.420179590083638 4.3977099107369941 #
point $-1 -56.248054445020905 17.420179590083638 9.6893330180956934 #
straight-curve $-1 -56.248054445020905 10.92252495668053 4.3977099107369941 0 -1 0 I I #
coedge $-1 $320 $319 $411 $465 reversed $321 $-1 #
edge $-1 $467 -9.6893330180956951 $322 -4.3977099107369941 $319 $470 forward 7 unknown #
point $-1 -56.248054445020905 26.26992023663848 4.3977099107369941 #
vertex $-1 $412 $471 #
straight-curve $-1 56.248054445020905 26.269920236638477 0 0 0 -1 I I #
straight-curve $-1 56.248054445020905 17.420179590083638 3.5217607322081719 0 0 -1 I I #
coedge $-1 $331 $430 $333 $428 reversed $214 $-1 #
straight-curve $-1 56.248054445020905 8.1755635688818664 79.645009521887602 0 0 -1 I I #
edge $-1 $334 8.1755635688818664 $435 17.420179590083638 $426 $472 forward 7 unknown #
point $-1 56.248054445020905 8.1755635688818664 9.6893330180956951 #
coedge $-1 $426 $336 $339 $432 forward $214 $-1 #
straight-curve $-1 56.248054445020905 6.3989357897413761 0.80189520234016243 0 1 0 I I #
edge $-1 $340 -78.843114319547425 $435 -69.955676503791906 $430 $473 forward 7 unknown #
point $-1 56.248054445020898 17.420179590083638 0.80189520234017664 #
point $-1 56.248054445020898 8.1755635688818664 0.80189520234017664 #
vertex $-1 $344 $474 #
straight-curve $-1 0 17.420179590083638 9.6893330180956951 -1 0 0 I I #
vertex $-1 $347 $475 #
point $-1 50.752096223793103 12.797871579482752 2.4573202828637224 #
coedge $-1 $354 $353 $361 $444 forward $139 $-1 #
edge $-1 $357 9.9719232178060082 $447 17.420179590083634 $354 $476 forward 7 unknown #
straight-curve $-1 -56.248054445020905 -9.9719232178060082 47.781591811313135 0 0 -1 I I #
point $-1 -56.248054445020905 -9.9719232178060082 9.6893330180956951 #
straight-curve $-1 -56.248054445020905 -6.8480257019724107 0.16107314527658179 0 -1 0 I I #
edge $-1 $362 -47.620518666036553 $447 -38.092258793217439 $439 $477 forward 7 unknown #
point $-1 -56.248054445020905 -17.420179590083634 0.16107314527658367 #
point $-1 -56.248054445020905 -9.9719232178060082 0.16107314527658367 #
vertex $-1 $444 $478 #
straight-curve $-1 0 -17.420179590083634 9.6893330180956951 1 0 0 I I #
vertex $-1 $369 $479 #
point $-1 -47.669909629800742 -15.292106340861455 4.3421146255170155 #
vertex $-1 $373 $480 #
point $-1 -47.669909629800742 -12.099996467028188 4.3421146255170155 #
straight-curve $-1 -56.248054445020905 26.269920236638477 0 0 0 -1 I I #
point $-1 -56.248054445020905 -26.269920236638477 -9.6893330180956951 #
straight-curve $-1 -56.248054445020905 0 -9.6893330180956951 0 1 0 I I #
point $-1 -56.248054445020905 26.269920236638477 -9.6893330180956951 #
coedge $-1 $399 $395 $404 $462 forward $284 $-1 #
vertex $-1 $396 $481 #
straight-curve $-1 -56.248054445020905 0 9.6893330180956951 0 -1 0 I I #
point $-1 -56.248054445020905 -17.420179590083634 9.6893330180956934 #
straight-curve $-1 56.248054445020905 0 9.6893330180956951 0 1 0 I I #
edge $-1 $458 -56.248054445020905 $408 56.248054445020905 $404 $482 forward 7 unknown #
straight-curve $-1 -56.248054445020905 -26.269920236638477 0 0 0 -1 I I #
point $-1 56.248054445020905 -26.269920236638477 9.6893330180956951 #
edge $-1 $423 -56.248054445020905 $467 56.248054445020905 $420 $483 forward 7 unknown #
straight-curve $-1 56.248054445020905 0 9.6893330180956951 0 1 0 I I #
vertex $-1 $465 $484 #
straight-curve $-1 -56.248054445020905 0 9.6893330180956951 0 -1 0 I I #
point $-1 56.248054445020905 17.420179590083638 9.6893330180956934 #
straight-curve $-1 -56.248054445020905 26.269920236638477 0 0 0 -1 I I #
point $-1 56.248054445020905 26.269920236638477 9.6893330180956951 #
straight-curve $-1 56.248054445020905 0 9.6893330180956951 0 1 0 I I #
straight-curve $-1 56.248054445020905 17.420179590083638 79.645009521887602 0 0 1 I I #
point $-1 56.248054445020905 17.420179590083638 9.6893330180956934 #
point $-1 49.343264172576582 12.797871579482752 2.5805771344584354 #
straight-curve $-1 -56.248054445020905 0 9.6893330180956951 0 -1 0 I I #
straight-curve $-1 -56.248054445020905 -17.420179590083634 47.781591811313135 0 0 1 I I #
point $-1 -56.248054445020905 -17.420179590083634 9.6893330180956934 #
point $-1 -47.828974040077753 -15.292106340861455 3.6531309440098068 #
point $-1 -47.828974040077753 -12.099996467028188 3.6531309440098068 #
point $-1 -56.248054445020905 -26.269920236638477 9.6893330180956951 #
straight-curve $-1 0 -26.269920236638477 9.6893330180956951 1 0 0 I I #
straight-curve $-1 0 26.269920236638477 9.6893330180956951 -1 0 0 I I #
point $-1 -56.248054445020905 26.269920236638477 9.6893330180956951 #
End-of-ACIS-data 