500 0 11 0           
7 Unknown 11 ACIS 5.0 NT 24 Thu Mar 25 16:09:02 1999 
-1 9.9999999999999995e-007 1e-010 
body $-1 $11 $-1 $12 #
body $-1 $13 $-1 $14 #
body $-1 $15 $-1 $16 #
body $-1 $17 $-1 $18 #
body $-1 $19 $-1 $20 #
body $-1 $21 $-1 $22 #
body $-1 $23 $-1 $24 #
body $-1 $25 $-1 $26 #
body $-1 $27 $-1 $28 #
body $-1 $29 $-1 $30 #
body $-1 $31 $-1 $32 #
lump $-1 $-1 $33 $0 #
transform $-1 1 0 0 0 1 0 0 0 1 58.221991637928404 29.604959675140968 9.3985605189576837 1 rotate no_reflect no_shear #
lump $-1 $-1 $34 $1 #
transform $-1 1 0 0 0 1 0 0 0 1 58.221991637928404 29.604959675140968 9.3985605189576837 1 rotate no_reflect no_shear #
lump $-1 $-1 $35 $2 #
transform $-1 1 0 0 0 1 0 0 0 1 58.221991637928404 29.604959675140968 9.3985605189576837 1 rotate no_reflect no_shear #
lump $-1 $-1 $36 $3 #
transform $-1 1 0 0 0 1 0 0 0 1 58.221991637928404 29.604959675140968 9.3985605189576837 1 rotate no_reflect no_shear #
lump $-1 $-1 $37 $4 #
transform $-1 1 0 0 0 1 0 0 0 1 58.221991637928404 29.604959675140968 9.3985605189576837 1 rotate no_reflect no_shear #
lump $-1 $-1 $38 $5 #
transform $-1 1 0 0 0 1 0 0 0 1 58.221991637928404 29.604959675140968 9.3985605189576837 1 rotate no_reflect no_shear #
lump $-1 $-1 $39 $6 #
transform $-1 1 0 0 0 1 0 0 0 1 58.221991637928404 29.604959675140968 9.3985605189576837 1 rotate no_reflect no_shear #
lump $-1 $-1 $40 $7 #
transform $-1 1 0 0 0 1 0 0 0 1 58.221991637928404 29.604959675140968 9.3985605189576837 1 rotate no_reflect no_shear #
lump $-1 $-1 $41 $8 #
transform $-1 1 0 0 0 1 0 0 0 1 58.221991637928404 29.604959675140968 9.3985605189576837 1 rotate no_reflect no_shear #
lump $-1 $-1 $42 $9 #
transform $-1 1 0 0 0 1 0 0 0 1 58.221991637928404 29.604959675140968 9.3985605189576837 1 rotate no_reflect no_shear #
lump $-1 $-1 $43 $10 #
transform $-1 1 0 0 0 1 0 0 0 1 58.221991637928404 29.604959675140968 9.3985605189576837 1 rotate no_reflect no_shear #
shell $-1 $-1 $-1 $44 $-1 $11 #
shell $-1 $-1 $-1 $45 $-1 $13 #
shell $-1 $-1 $-1 $46 $-1 $15 #
shell $-1 $-1 $-1 $47 $-1 $17 #
shell $-1 $-1 $-1 $48 $-1 $19 #
shell $-1 $-1 $-1 $49 $-1 $21 #
shell $-1 $-1 $-1 $50 $-1 $23 #
shell $-1 $-1 $-1 $51 $-1 $25 #
shell $-1 $-1 $-1 $52 $-1 $27 #
shell $-1 $-1 $-1 $53 $-1 $29 #
shell $-1 $-1 $-1 $54 $-1 $31 #
face $-1 $55 $56 $33 $-1 $57 forward single #
face $-1 $58 $59 $34 $-1 $60 forward single #
face $-1 $61 $62 $35 $-1 $63 reversed single #
face $-1 $64 $65 $36 $-1 $66 forward single #
face $-1 $67 $68 $37 $-1 $69 forward single #
face $-1 $70 $71 $38 $-1 $72 reversed single #
face $-1 $73 $74 $39 $-1 $75 forward single #
face $-1 $76 $77 $40 $-1 $78 forward single #
face $-1 $79 $80 $41 $-1 $81 reversed single #
face $-1 $82 $83 $42 $-1 $84 forward single #
face $-1 $85 $86 $43 $-1 $87 forward single #
face $-1 $88 $89 $33 $-1 $90 reversed single #
loop $-1 $-1 $91 $44 #
plane-surface $-1 0 0 9.3985605189576837 0 0 1 1 0 0 forward_v I I I I #
face $-1 $92 $93 $34 $-1 $94 reversed single #
loop $-1 $-1 $95 $45 #
plane-surface $-1 0 -29.604959675140968 0 0 1 0 0 0 1 forward_v I I I I #
face $-1 $96 $97 $35 $-1 $98 reversed single #
loop $-1 $-1 $99 $46 #
plane-surface $-1 63.969126199100153 -14.00396669486331 170.91397862936353 0 -1 0 -0.73135370988377701 0 -0.68199835119979291 forward_v I I I I #
face $-1 $100 $101 $36 $-1 $102 forward single #
loop $-1 $103 $104 $47 #
cone-surface $-1 55.702557875726455 -19.536583997555034 6.8495542701571761 -0.73135370988377701 0 -0.68199835119979291 0.68199835119979291 0 -0.73135370988377701 1 I I 0 1 1 forward I I I I #
face $-1 $105 $106 $37 $-1 $107 forward single #
loop $-1 $108 $109 $48 #
cone-surface $-1 55.702557875726455 -16.217013615940001 6.8495542701571761 -0.73135370988377701 0 -0.68199835119979291 0.68199835119979291 0 -0.73135370988377701 1 I I 0 1 1 forward I I I I #
face $-1 $110 $111 $38 $-1 $112 reversed single #
loop $-1 $-1 $113 $49 #
plane-surface $-1 -158.03396737782109 -3.6225988357300523 61.634869711750653 0 1 0 -0.85716730853699208 0 0.51503806187062418 forward_v I I I I #
face $-1 $114 $115 $39 $-1 $116 forward single #
loop $-1 $117 $118 $50 #
cone-surface $-1 -55.16516510782975 -1.4653807745915728 5.0900639527002989 0.85716730853699208 0 -0.51503806187062418 0.25751903093531209 0 0.42858365426849604 1 I I 0 1 0.5 forward I I I I #
face $-1 $119 $120 $40 $-1 $121 forward single #
loop $-1 $122 $123 $51 #
cone-surface $-1 -55.16516510782975 1.7704463171161464 5.0900639527002989 0.85716730853699208 0 -0.51503806187062418 0.25751903093531209 0 0.42858365426849604 1 I I 0 1 0.5 forward I I I I #
face $-1 $124 $125 $41 $-1 $126 reversed single #
loop $-1 $-1 $127 $52 #
plane-surface $-1 -158.03396737782109 22.054696461156297 61.634869711750653 0 1 0 -0.85716730853699208 0 0.51503806187062418 forward_v I I I I #
face $-1 $128 $129 $42 $-1 $130 forward single #
loop $-1 $131 $132 $53 #
cone-surface $-1 -55.16516510782975 24.211914522294776 5.0900639527002989 0.85716730853699208 0 -0.51503806187062418 0.25751903093531209 0 0.42858365426849604 1 I I 0 1 0.5 forward I I I I #
face $-1 $133 $134 $43 $-1 $135 forward single #
loop $-1 $136 $137 $54 #
cone-surface $-1 -55.16516510782975 27.447741614002496 5.0900639527002989 0.85716730853699208 0 -0.51503806187062418 0.25751903093531209 0 0.42858365426849604 1 I I 0 1 0.5 forward I I I I #
face $-1 $138 $139 $33 $-1 $140 reversed single #
loop $-1 $-1 $141 $55 #
plane-surface $-1 0 0 -9.3985605189576837 0 0 1 1 0 0 forward_v I I I I #
coedge $-1 $142 $143 $144 $145 forward $56 $-1 #
face $-1 $146 $147 $34 $-1 $148 reversed single #
loop $-1 $-1 $149 $58 #
plane-surface $-1 0 0 -9.3985605189576837 0 0 1 1 0 0 forward_v I I I I #
coedge $-1 $150 $151 $152 $153 forward $59 $-1 #
face $-1 $154 $155 $35 $-1 $156 reversed single #
loop $-1 $-1 $157 $61 #
plane-surface $-1 -21.192612963342206 -17.876798806747516 91.49937402809293 0.73135370988377701 0 0.68199835119979291 0.68199835119979291 0 -0.73135370988377701 forward_v I I I I #
coedge $-1 $158 $159 $160 $161 reversed $62 $-1 #
face $-1 $-1 $162 $36 $-1 $163 forward single #
loop $-1 $164 $165 $64 #
cone-surface $-1 54.244626898535735 -19.536583997555034 5.4900116724103434 -0.73135370988377701 0 -0.68199835119979291 0.34099917559989645 0 -0.36567685494188851 1 I I -0.70710678118654746 0.70710678118654746 0.5 forward I I I I #
loop $-1 $-1 $166 $47 #
coedge $-1 $104 $104 $167 $168 reversed $65 $-1 #
face $-1 $-1 $169 $37 $-1 $170 forward single #
loop $-1 $171 $172 $67 #
cone-surface $-1 54.244626898535735 -16.217013615940001 5.4900116724103434 -0.73135370988377701 0 -0.68199835119979291 0.34099917559989645 0 -0.36567685494188851 1 I I -0.70710678118654746 0.70710678118654746 0.5 forward I I I I #
loop $-1 $-1 $173 $48 #
coedge $-1 $109 $109 $174 $175 reversed $68 $-1 #
face $-1 $176 $177 $38 $-1 $178 reversed single #
loop $-1 $-1 $179 $70 #
plane-surface $-1 -58.221991637928383 0.15253277126228681 1.661786248857986 -0.85716730853699208 0 0.51503806187062418 0.51503806187062418 0 0.85716730853699208 forward_v I I I I #
coedge $-1 $180 $181 $182 $183 reversed $71 $-1 #
face $-1 $-1 $184 $39 $-1 $185 forward single #
loop $-1 $186 $187 $73 #
cone-surface $-1 -54.21840815910867 -1.4653807745915728 4.5211950060251027 0.85716730853699208 0 -0.51503806187062418 0.12875951546765604 0 0.21429182713424802 1 I I -0.70710678118654746 0.70710678118654746 0.25 forward I I I I #
loop $-1 $-1 $188 $50 #
coedge $-1 $118 $118 $189 $190 reversed $74 $-1 #
face $-1 $-1 $191 $40 $-1 $192 forward single #
loop $-1 $193 $194 $76 #
cone-surface $-1 -54.21840815910867 1.7704463171161464 4.5211950060251027 0.85716730853699208 0 -0.51503806187062418 0.12875951546765604 0 0.21429182713424802 1 I I -0.70710678118654746 0.70710678118654746 0.25 forward I I I I #
loop $-1 $-1 $195 $51 #
coedge $-1 $123 $123 $196 $197 reversed $77 $-1 #
face $-1 $198 $199 $41 $-1 $200 forward single #
loop $-1 $-1 $201 $79 #
plane-surface $-1 -58.221991637928383 25.829828068148636 1.661786248857986 -0.85716730853699208 0 0.51503806187062418 0.51503806187062418 0 0.85716730853699208 forward_v I I I I #
coedge $-1 $202 $203 $204 $205 reversed $80 $-1 #
face $-1 $-1 $206 $42 $-1 $207 forward single #
loop $-1 $208 $209 $82 #
cone-surface $-1 -54.21840815910867 24.211914522294776 4.5211950060251027 0.85716730853699208 0 -0.51503806187062418 0.12875951546765604 0 0.21429182713424802 1 I I -0.70710678118654746 0.70710678118654746 0.25 forward I I I I #
loop $-1 $-1 $210 $53 #
coedge $-1 $132 $132 $211 $212 reversed $83 $-1 #
face $-1 $-1 $213 $43 $-1 $214 forward single #
loop $-1 $215 $216 $85 #
cone-surface $-1 -54.21840815910867 27.447741614002496 4.5211950060251027 0.85716730853699208 0 -0.51503806187062418 0.12875951546765604 0 0.21429182713424802 1 I I -0.70710678118654746 0.70710678118654746 0.25 forward I I I I #
loop $-1 $-1 $217 $54 #
coedge $-1 $137 $137 $218 $219 reversed $86 $-1 #
face $-1 $220 $221 $33 $-1 $222 reversed single #
loop $-1 $-1 $223 $88 #
plane-surface $-1 0 -29.604959675140968 0 0 1 0 0 0 1 forward_v I I I I #
coedge $-1 $224 $225 $226 $227 forward $89 $-1 #
coedge $-1 $228 $91 $229 $230 forward $56 $-1 #
coedge $-1 $91 $228 $231 $232 forward $56 $-1 #
coedge $-1 $233 $234 $91 $145 reversed $235 $-1 #
edge $-1 $236 -29.604959675140968 $237 29.604959675140968 $144 $238 forward 7 unknown #
face $-1 $239 $240 $34 $-1 $241 reversed single #
loop $-1 $-1 $242 $92 #
plane-surface $-1 -53.335165154679672 -37.460288431650213 0 0 1 0 0 0 1 forward_v I I I I #
coedge $-1 $243 $244 $151 $245 forward $93 $-1 #
coedge $-1 $246 $95 $247 $248 reversed $59 $-1 #
coedge $-1 $95 $246 $149 $245 reversed $59 $-1 #
coedge $-1 $249 $250 $95 $153 reversed $240 $-1 #
edge $-1 $251 -9.3985605189576837 $252 9.3985605189576837 $152 $253 forward 7 unknown #
face $-1 $254 $255 $35 $-1 $256 forward single #
loop $-1 $-1 $257 $96 #
plane-surface $-1 63.969126199100153 -21.749630918631723 170.91397862936353 0 1 0 0.73135370988377701 0 0.68199835119979291 forward_v I I I I #
coedge $-1 $258 $259 $260 $261 reversed $97 $-1 #
coedge $-1 $159 $99 $262 $263 reversed $62 $-1 #
coedge $-1 $99 $158 $258 $264 reversed $62 $-1 #
coedge $-1 $260 $265 $99 $161 forward $255 $-1 #
edge $-1 $266 -26.237428538378328 $267 -23.383069258472108 $160 $268 forward 7 unknown #
loop $-1 $-1 $167 $100 #
plane-surface $-1 -21.192612963342206 -17.876798806747516 91.49937402809293 0.73135370988377701 0 0.68199835119979291 0.68199835119979291 0 -0.73135370988377701 forward_v I I I I #
loop $-1 $-1 $269 $64 #
coedge $-1 $165 $165 $166 $270 reversed $101 $-1 #
coedge $-1 $166 $166 $165 $270 forward $103 $-1 #
coedge $-1 $167 $167 $104 $168 forward $162 $-1 #
edge $-1 $271 0 $271 6.2831853071796004 $167 $272 forward 7 unknown #
loop $-1 $-1 $174 $105 #
plane-surface $-1 -21.192612963342206 -17.876798806747516 91.49937402809293 0.73135370988377701 0 0.68199835119979291 0.68199835119979291 0 -0.73135370988377701 forward_v I I I I #
loop $-1 $-1 $273 $67 #
coedge $-1 $172 $172 $173 $274 reversed $106 $-1 #
coedge $-1 $173 $173 $172 $274 forward $108 $-1 #
coedge $-1 $174 $174 $109 $175 forward $169 $-1 #
edge $-1 $275 0 $275 6.2831853071796004 $174 $276 forward 7 unknown #
face $-1 $277 $278 $38 $-1 $279 reversed single #
loop $-1 $-1 $280 $110 #
plane-surface $-1 -158.03396737782109 3.9276643782546259 61.634869711750653 0 -1 0 0.85716730853699208 0 -0.51503806187062418 forward_v I I I I #
coedge $-1 $281 $282 $283 $284 reversed $111 $-1 #
coedge $-1 $181 $113 $285 $286 reversed $71 $-1 #
coedge $-1 $113 $180 $281 $287 reversed $71 $-1 #
coedge $-1 $283 $288 $113 $183 forward $289 $-1 #
edge $-1 $290 20.794992050982138 $291 25.443714868005806 $182 $292 forward 7 unknown #
loop $-1 $-1 $189 $114 #
plane-surface $-1 -58.221991637928383 0.15253277126228681 1.661786248857986 -0.85716730853699208 0 0.51503806187062418 0.51503806187062418 0 0.85716730853699208 forward_v I I I I #
loop $-1 $-1 $293 $73 #
coedge $-1 $187 $187 $188 $294 reversed $115 $-1 #
coedge $-1 $188 $188 $187 $294 forward $117 $-1 #
coedge $-1 $189 $189 $118 $190 forward $184 $-1 #
edge $-1 $295 0 $295 6.2831853071796004 $189 $296 forward 7 unknown #
loop $-1 $-1 $196 $119 #
plane-surface $-1 -58.221991637928383 0.15253277126228681 1.661786248857986 -0.85716730853699208 0 0.51503806187062418 0.51503806187062418 0 0.85716730853699208 forward_v I I I I #
loop $-1 $-1 $297 $76 #
coedge $-1 $194 $194 $195 $298 reversed $120 $-1 #
coedge $-1 $195 $195 $194 $298 forward $122 $-1 #
coedge $-1 $196 $196 $123 $197 forward $191 $-1 #
edge $-1 $299 0 $299 6.2831853071796004 $196 $300 forward 7 unknown #
face $-1 $301 $302 $41 $-1 $303 reversed single #
loop $-1 $-1 $204 $124 #
plane-surface $-1 0 0 9.3985605189576837 0 0 1 1 0 0 forward_v I I I I #
coedge $-1 $304 $305 $306 $307 reversed $125 $-1 #
coedge $-1 $203 $127 $308 $309 reversed $80 $-1 #
coedge $-1 $127 $202 $304 $310 reversed $80 $-1 #
coedge $-1 $306 $311 $127 $205 forward $199 $-1 #
edge $-1 $312 20.794992050982138 $313 25.443714868005806 $204 $314 forward 7 unknown #
loop $-1 $-1 $211 $128 #
plane-surface $-1 -58.221991637928383 25.829828068148636 1.661786248857986 -0.85716730853699208 0 0.51503806187062418 0.51503806187062418 0 0.85716730853699208 forward_v I I I I #
loop $-1 $-1 $315 $82 #
coedge $-1 $209 $209 $210 $316 reversed $129 $-1 #
coedge $-1 $210 $210 $209 $316 forward $131 $-1 #
coedge $-1 $211 $211 $132 $212 forward $206 $-1 #
edge $-1 $317 0 $317 6.2831853071796004 $211 $318 forward 7 unknown #
loop $-1 $-1 $218 $133 #
plane-surface $-1 -58.221991637928383 25.829828068148636 1.661786248857986 -0.85716730853699208 0 0.51503806187062418 0.51503806187062418 0 0.85716730853699208 forward_v I I I I #
loop $-1 $-1 $319 $85 #
coedge $-1 $216 $216 $217 $320 reversed $134 $-1 #
coedge $-1 $217 $217 $216 $320 forward $136 $-1 #
coedge $-1 $218 $218 $137 $219 forward $213 $-1 #
edge $-1 $321 0 $321 6.2831853071796004 $218 $322 forward 7 unknown #
face $-1 $323 $324 $33 $-1 $325 reversed single #
loop $-1 $-1 $326 $138 #
plane-surface $-1 -58.221991637928404 0 0 1 0 0 0 0 -1 forward_v I I I I #
coedge $-1 $327 $231 $328 $329 forward $139 $-1 #
coedge $-1 $330 $141 $327 $331 forward $89 $-1 #
coedge $-1 $141 $330 $332 $333 forward $89 $-1 #
coedge $-1 $234 $233 $141 $227 reversed $235 $-1 #
edge $-1 $334 -29.604959675140968 $335 29.604959675140968 $226 $336 forward 7 unknown #
coedge $-1 $143 $142 $337 $338 forward $56 $-1 #
coedge $-1 $339 $340 $142 $230 reversed $324 $-1 #
edge $-1 $237 -58.221991637928404 $341 58.221991637928404 $229 $342 forward 7 unknown #
coedge $-1 $223 $343 $143 $232 reversed $139 $-1 #
edge $-1 $344 -58.221991637928404 $236 58.221991637928404 $231 $345 forward 7 unknown #
coedge $-1 $226 $144 $343 $346 forward $235 $-1 #
coedge $-1 $144 $226 $339 $347 reversed $235 $-1 #
loop $-1 $-1 $233 $323 #
vertex $-1 $145 $348 #
vertex $-1 $145 $349 #
straight-curve $-1 58.221991637928404 0 9.3985605189576837 0 1 0 I I #
face $-1 $350 $351 $34 $-1 $352 reversed single #
loop $-1 $-1 $152 $146 #
plane-surface $-1 -55.720300504128588 -33.532624053395594 0 1 0 0 0 0 -1 forward_v I I I I #
coedge $-1 $353 $354 $355 $356 forward $147 $-1 #
coedge $-1 $357 $149 $358 $359 forward $93 $-1 #
coedge $-1 $149 $357 $249 $360 forward $93 $-1 #
edge $-1 $251 -55.720300504128588 $361 -50.950029805230756 $149 $362 forward 7 unknown #
coedge $-1 $151 $150 $363 $364 forward $59 $-1 #
coedge $-1 $365 $366 $150 $248 forward $367 $-1 #
edge $-1 $368 50.950029805230756 $252 55.720300504128588 $247 $369 forward 7 unknown #
coedge $-1 $355 $152 $244 $360 reversed $240 $-1 #
coedge $-1 $152 $355 $365 $370 reversed $240 $-1 #
vertex $-1 $245 $371 #
vertex $-1 $370 $372 #
straight-curve $-1 -55.720300504128588 -29.604959675140968 0 0 0 1 I I #
face $-1 $-1 $373 $35 $-1 $374 reversed single #
loop $-1 $-1 $160 $154 #
plane-surface $-1 0 0 9.3985605189576837 0 0 1 1 0 0 forward_v I I I I #
coedge $-1 $375 $376 $377 $378 reversed $155 $-1 #
coedge $-1 $379 $157 $159 $264 forward $97 $-1 #
coedge $-1 $157 $379 $375 $380 forward $97 $-1 #
coedge $-1 $377 $160 $157 $261 forward $255 $-1 #
edge $-1 $267 5.0655672914895522 $381 12.811231515257965 $260 $382 forward 7 unknown #
coedge $-1 $383 $384 $158 $263 forward $373 $-1 #
edge $-1 $385 -79.119354449031206 $266 -76.058428795724083 $262 $386 forward 7 unknown #
edge $-1 $267 112.25869562100436 $385 116.44398327585681 $159 $387 forward 7 unknown #
coedge $-1 $160 $377 $383 $388 forward $255 $-1 #
vertex $-1 $161 $389 #
vertex $-1 $161 $390 #
straight-curve $-1 31.984563099550076 -14.00396669486331 9.3985605189576802 -1 0 0 I I #
coedge $-1 $269 $269 $-1 $391 reversed $164 $-1 #
edge $-1 $392 0 $392 6.2831853071796004 $165 $393 forward 7 unknown #
vertex $-1 $168 $394 #
ellipse-curve $-1 56.794811997975295 -19.536583997555034 7.8680976923041177 0.73135370988377701 0 0.68199835119979291 0.68199835119979291 0 -0.73135370988377701 1 I I #
coedge $-1 $273 $273 $-1 $395 reversed $171 $-1 #
edge $-1 $396 0 $396 6.2831853071796004 $172 $397 forward 7 unknown #
vertex $-1 $175 $398 #
ellipse-curve $-1 56.794811997975295 -16.217013615940001 7.8680976923041177 0.73135370988377701 0 0.68199835119979291 0.68199835119979291 0 -0.73135370988377701 1 I I #
face $-1 $-1 $289 $38 $-1 $399 forward single #
loop $-1 $-1 $400 $176 #
plane-surface $-1 -58.221991637928404 0 0 1 0 0 0 0 -1 forward_v I I I I #
coedge $-1 $401 $402 $403 $404 reversed $177 $-1 #
coedge $-1 $405 $179 $181 $287 forward $111 $-1 #
coedge $-1 $179 $405 $401 $406 forward $111 $-1 #
coedge $-1 $403 $182 $179 $284 forward $289 $-1 #
edge $-1 $291 -3.6988652213611957 $407 3.8513979926234825 $283 $408 forward 7 unknown #
coedge $-1 $409 $410 $180 $286 forward $278 $-1 #
edge $-1 $411 -29.155648607017376 $290 -21.418874336917643 $285 $412 forward 7 unknown #
edge $-1 $291 -9.0259791677132188 $411 4.1431396825663817e-014 $181 $413 forward 7 unknown #
coedge $-1 $182 $403 $409 $414 forward $289 $-1 #
loop $-1 $-1 $403 $277 #
vertex $-1 $286 $415 #
vertex $-1 $183 $416 #
straight-curve $-1 -79.016983688910543 -3.6225988357300523 9.3985605189576837 1 0 0 I I #
coedge $-1 $293 $293 $-1 $417 reversed $186 $-1 #
edge $-1 $418 0 $418 6.2831853071796004 $187 $419 forward 7 unknown #
vertex $-1 $190 $420 #
ellipse-curve $-1 -55.897630229416563 -1.4653807745915728 5.5301733839078278 -0.85716730853699208 0 0.51503806187062418 0.25751903093531209 0 0.42858365426849604 1 I I #
coedge $-1 $297 $297 $-1 $421 reversed $193 $-1 #
edge $-1 $422 0 $422 6.2831853071796004 $194 $423 forward 7 unknown #
vertex $-1 $197 $424 #
ellipse-curve $-1 -55.897630229416563 1.7704463171161464 5.5301733839078278 -0.85716730853699208 0 0.51503806187062418 0.25751903093531209 0 0.42858365426849604 1 I I #
face $-1 $-1 $425 $41 $-1 $426 reversed single #
loop $-1 $-1 $427 $198 #
plane-surface $-1 0 29.604959675140968 0 0 -1 0 0 0 -1 forward_v I I I I #
coedge $-1 $428 $201 $203 $310 forward $125 $-1 #
coedge $-1 $201 $428 $427 $429 reversed $125 $-1 #
coedge $-1 $430 $204 $201 $307 forward $199 $-1 #
edge $-1 $313 9.139782427081979 $431 16.690045641066657 $306 $432 forward 7 unknown #
coedge $-1 $433 $434 $202 $309 forward $425 $-1 #
edge $-1 $435 -29.155648607017376 $312 -21.418874336917643 $308 $436 forward 7 unknown #
edge $-1 $313 -9.0259791677132188 $435 4.1431396825663817e-014 $203 $437 forward 7 unknown #
coedge $-1 $204 $430 $433 $438 forward $199 $-1 #
vertex $-1 $309 $439 #
vertex $-1 $205 $440 #
straight-curve $-1 -79.016983688910543 22.054696461156297 9.3985605189576837 1 0 0 I I #
coedge $-1 $315 $315 $-1 $441 reversed $208 $-1 #
edge $-1 $442 0 $442 6.2831853071796004 $209 $443 forward 7 unknown #
vertex $-1 $212 $444 #
ellipse-curve $-1 -55.897630229416563 24.211914522294776 5.5301733839078278 -0.85716730853699208 0 0.51503806187062418 0.25751903093531209 0 0.42858365426849604 1 I I #
coedge $-1 $319 $319 $-1 $445 reversed $215 $-1 #
edge $-1 $446 0 $446 6.2831853071796004 $216 $447 forward 7 unknown #
vertex $-1 $219 $448 #
ellipse-curve $-1 -55.897630229416563 27.447741614002496 5.5301733839078278 -0.85716730853699208 0 0.51503806187062418 0.25751903093531209 0 0.42858365426849604 1 I I #
face $-1 $-1 $235 $33 $-1 $449 reversed single #
loop $-1 $-1 $339 $220 #
plane-surface $-1 0 29.604959675140968 0 0 -1 0 0 0 -1 forward_v I I I I #
coedge $-1 $450 $337 $340 $451 forward $221 $-1 #
coedge $-1 $343 $223 $224 $331 reversed $139 $-1 #
coedge $-1 $337 $450 $223 $329 reversed $221 $-1 #
edge $-1 $344 -9.3985605189576837 $452 9.3985605189576837 $328 $453 forward 7 unknown #
coedge $-1 $225 $224 $450 $454 forward $89 $-1 #
edge $-1 $335 -58.221991637928404 $452 58.221991637928404 $327 $455 forward 7 unknown #
coedge $-1 $340 $339 $225 $333 reversed $324 $-1 #
edge $-1 $456 -58.221991637928404 $334 58.221991637928404 $332 $457 forward 7 unknown #
vertex $-1 $227 $458 #
vertex $-1 $346 $459 #
straight-curve $-1 58.221991637928404 0 -9.3985605189576837 0 -1 0 I I #
coedge $-1 $326 $328 $228 $338 reversed $221 $-1 #
edge $-1 $341 -29.604959675140968 $344 29.604959675140968 $337 $460 forward 7 unknown #
coedge $-1 $332 $229 $234 $347 forward $324 $-1 #
coedge $-1 $229 $332 $326 $451 reversed $324 $-1 #
vertex $-1 $230 $461 #
straight-curve $-1 0 29.604959675140968 9.3985605189576837 -1 0 0 I I #
coedge $-1 $231 $327 $233 $346 reversed $139 $-1 #
vertex $-1 $338 $462 #
straight-curve $-1 0 -29.604959675140968 9.3985605189576837 1 0 0 I I #
edge $-1 $236 -9.3985605189576837 $335 9.3985605189576837 $233 $463 forward 7 unknown #
edge $-1 $237 -9.3985605189576837 $334 9.3985605189576837 $234 $464 forward 7 unknown #
point $-1 58.221991637928404 -29.604959675140968 9.3985605189576837 #
point $-1 58.221991637928404 29.604959675140968 9.3985605189576837 #
face $-1 $-1 $367 $34 $-1 $465 forward single #
loop $-1 $-1 $466 $239 #
plane-surface $-1 -50.950029805230756 -33.532624053395594 0 -1 0 0 0 0 1 forward_v I I I I #
coedge $-1 $467 $242 $357 $468 reversed $147 $-1 #
coedge $-1 $242 $467 $469 $470 reversed $147 $-1 #
coedge $-1 $250 $249 $242 $356 reversed $240 $-1 #
edge $-1 $471 -9.3985605189576837 $472 9.3985605189576837 $355 $473 forward 7 unknown #
coedge $-1 $244 $243 $353 $468 forward $93 $-1 #
coedge $-1 $363 $466 $243 $359 reversed $351 $-1 #
edge $-1 $361 -3.9276643782546223 $474 3.9276643782546188 $358 $475 forward 7 unknown #
edge $-1 $472 -3.9276643782546188 $251 3.9276643782546223 $249 $476 forward 7 unknown #
vertex $-1 $359 $477 #
straight-curve $-1 0 -29.604959675140968 -9.3985605189576837 1 0 0 I I #
coedge $-1 $478 $358 $246 $364 reversed $351 $-1 #
edge $-1 $368 -9.3985605189576837 $361 9.3985605189576837 $363 $479 forward 7 unknown #
coedge $-1 $469 $247 $250 $370 forward $367 $-1 #
coedge $-1 $247 $469 $478 $480 forward $367 $-1 #
loop $-1 $-1 $247 $350 #
vertex $-1 $248 $481 #
straight-curve $-1 0 -29.604959675140968 9.3985605189576837 -1 0 0 I I #
edge $-1 $252 -3.9276643782546223 $471 3.9276643782546188 $250 $482 forward 7 unknown #
point $-1 -55.720300504128588 -29.604959675140972 -9.3985605189576837 #
point $-1 -55.720300504128588 -29.604959675140972 9.3985605189576837 #
loop $-1 $-1 $262 $254 #
plane-surface $-1 58.221991637928404 0 0 -1 0 0 0 0 1 forward_v I I I I #
coedge $-1 $376 $257 $259 $380 reversed $155 $-1 #
coedge $-1 $257 $375 $483 $484 reversed $155 $-1 #
coedge $-1 $265 $260 $257 $378 forward $255 $-1 #
edge $-1 $381 23.383069258472108 $485 26.237428538378328 $377 $486 forward 7 unknown #
coedge $-1 $259 $258 $384 $487 reversed $97 $-1 #
edge $-1 $488 -116.44398327585681 $381 -112.25869562100436 $375 $489 forward 7 unknown #
vertex $-1 $261 $490 #
straight-curve $-1 55.367632358022178 -8.9383994033737579 9.3985605189576731 0 -1 0 I I #
coedge $-1 $483 $262 $265 $388 reversed $373 $-1 #
coedge $-1 $262 $483 $379 $487 forward $373 $-1 #
vertex $-1 $263 $491 #
straight-curve $-1 58.221991637928404 -14.00396669486331 85.456989314681763 0 0 1 I I #
straight-curve $-1 -21.192612963342206 -14.00396669486331 91.49937402809293 0.68199835119979291 0 -0.73135370988377701 I I #
edge $-1 $485 -21.749630918631723 $266 -14.00396669486331 $383 $492 forward 7 unknown #
point $-1 58.221991637928404 -14.00396669486331 9.3985605189576837 #
point $-1 55.367632358022185 -14.00396669486331 9.3985605189576802 #
edge $-1 $493 1 $493 0 $269 $-1 forward 7 unknown #
vertex $-1 $270 $494 #
ellipse-curve $-1 54.610303753477623 -19.536583997555034 5.8310108480102398 0.73135370988377701 0 0.68199835119979291 0.68199835119979291 0 -0.73135370988377701 1 I I #
point $-1 57.476810349175082 -19.536583997555034 7.1367439824203363 #
edge $-1 $495 1 $495 0 $273 $-1 forward 7 unknown #
vertex $-1 $274 $496 #
ellipse-curve $-1 54.610303753477623 -16.217013615940001 5.8310108480102398 0.73135370988377701 0 0.68199835119979291 0.68199835119979291 0 -0.73135370988377701 1 I I #
point $-1 57.476810349175082 -16.217013615940001 7.1367439824203363 #
plane-surface $-1 0 0 9.3985605189576837 0 0 1 1 0 0 forward_v I I I I #
coedge $-1 $410 $409 $402 $497 forward $278 $-1 #
coedge $-1 $402 $280 $282 $406 reversed $177 $-1 #
coedge $-1 $280 $401 $400 $497 reversed $177 $-1 #
coedge $-1 $288 $283 $280 $404 forward $289 $-1 #
edge $-1 $407 -25.443714868005806 $498 -20.794992050982138 $403 $499 forward 7 unknown #
coedge $-1 $282 $281 $410 $500 reversed $111 $-1 #
edge $-1 $501 -4.1431396825663817e-014 $407 9.0259791677132188 $401 $502 forward 7 unknown #
vertex $-1 $284 $503 #
straight-curve $-1 -53.573268820904737 0.076266385631143407 9.3985605189576837 0 1 0 I I #
coedge $-1 $400 $285 $288 $414 reversed $278 $-1 #
coedge $-1 $285 $400 $405 $500 forward $278 $-1 #
vertex $-1 $286 $504 #
straight-curve $-1 -58.221991637928404 -3.6225988357300523 30.817434855875327 0 0 1 I I #
straight-curve $-1 -58.221991637928383 -3.6225988357300523 1.661786248857986 -0.51503806187062418 0 -0.85716730853699208 I I #
edge $-1 $498 -3.9276643782546259 $290 3.6225988357300523 $409 $505 forward 7 unknown #
point $-1 -58.221991637928404 -3.6225988357300523 9.3985605189576837 #
point $-1 -53.573268820904737 -3.6225988357300523 9.3985605189576837 #
edge $-1 $506 1 $506 0 $293 $-1 forward 7 unknown #
vertex $-1 $294 $507 #
ellipse-curve $-1 -54.432699986242916 -1.4653807745915728 4.6499545214927585 -0.85716730853699208 0 0.51503806187062418 0.25751903093531209 0 0.42858365426849604 1 I I #
point $-1 -55.640111198481272 -1.4653807745915728 5.9587570381763353 #
edge $-1 $508 1 $508 0 $297 $-1 forward 7 unknown #
vertex $-1 $298 $509 #
ellipse-curve $-1 -54.432699986242916 1.7704463171161464 4.6499545214927585 -0.85716730853699208 0 0.51503806187062418 0.25751903093531209 0 0.42858365426849604 1 I I #
point $-1 -55.640111198481272 1.7704463171161464 5.9587570381763353 #
loop $-1 $-1 $308 $301 #
plane-surface $-1 -58.221991637928404 0 0 1 0 0 0 0 -1 forward_v I I I I #
coedge $-1 $510 $511 $305 $429 forward $302 $-1 #
coedge $-1 $305 $304 $434 $512 reversed $125 $-1 #
edge $-1 $431 5.2550772748612546 $513 14.281056442574515 $427 $514 forward 7 unknown #
coedge $-1 $311 $306 $511 $515 forward $199 $-1 #
vertex $-1 $515 $516 #
straight-curve $-1 -53.573268820904737 12.914914034074318 9.3985605189576837 0 1 0 I I #
coedge $-1 $517 $308 $311 $438 reversed $425 $-1 #
coedge $-1 $308 $517 $428 $512 forward $425 $-1 #
vertex $-1 $309 $518 #
straight-curve $-1 -58.221991637928404 22.054696461156297 30.817434855875327 0 0 1 I I #
straight-curve $-1 -58.221991637928383 22.054696461156297 1.661786248857986 -0.51503806187062418 0 -0.85716730853699208 I I #
edge $-1 $519 -29.604959675140968 $312 -22.054696461156297 $433 $520 forward 7 unknown #
point $-1 -58.221991637928404 22.054696461156297 9.3985605189576837 #
point $-1 -53.573268820904737 22.054696461156297 9.3985605189576837 #
edge $-1 $521 1 $521 0 $315 $-1 forward 7 unknown #
vertex $-1 $316 $522 #
ellipse-curve $-1 -54.432699986242916 24.211914522294776 4.6499545214927585 -0.85716730853699208 0 0.51503806187062418 0.25751903093531209 0 0.42858365426849604 1 I I #
point $-1 -55.640111198481272 24.211914522294776 5.9587570381763353 #
edge $-1 $523 1 $523 0 $319 $-1 forward 7 unknown #
vertex $-1 $320 $524 #
ellipse-curve $-1 -54.432699986242916 27.447741614002496 4.6499545214927585 -0.85716730853699208 0 0.51503806187062418 0.25751903093531209 0 0.42858365426849604 1 I I #
point $-1 -55.640111198481272 27.447741614002496 5.9587570381763353 #
plane-surface $-1 58.221991637928404 0 0 -1 0 0 0 0 1 forward_v I I I I #
coedge $-1 $328 $326 $330 $454 reversed $221 $-1 #
edge $-1 $341 -9.3985605189576837 $456 9.3985605189576837 $340 $525 forward 7 unknown #
vertex $-1 $454 $526 #
straight-curve $-1 -58.221991637928404 -29.604959675140968 0 0 0 -1 I I #
edge $-1 $452 -29.604959675140968 $456 29.604959675140968 $450 $527 forward 7 unknown #
straight-curve $-1 0 -29.604959675140968 -9.3985605189576837 -1 0 0 I I #
vertex $-1 $333 $528 #
straight-curve $-1 0 29.604959675140968 -9.3985605189576837 1 0 0 I I #
point $-1 58.221991637928404 29.604959675140968 -9.3985605189576837 #
point $-1 58.221991637928404 -29.604959675140968 -9.3985605189576837 #
straight-curve $-1 -58.221991637928404 0 9.3985605189576837 0 -1 0 I I #
point $-1 -58.221991637928404 29.604959675140968 9.3985605189576837 #
point $-1 -58.221991637928404 -29.604959675140968 9.3985605189576837 #
straight-curve $-1 58.221991637928404 -29.604959675140968 0 0 0 -1 I I #
straight-curve $-1 58.221991637928404 29.604959675140968 0 0 0 -1 I I #
plane-surface $-1 0 0 9.3985605189576837 0 0 1 1 0 0 forward_v I I I I #
coedge $-1 $358 $478 $467 $529 forward $351 $-1 #
coedge $-1 $354 $353 $466 $529 reversed $147 $-1 #
edge $-1 $474 -2.385135349448916 $472 2.385135349448916 $353 $530 forward 7 unknown #
coedge $-1 $366 $365 $354 $470 forward $367 $-1 #
edge $-1 $471 -2.385135349448916 $531 2.385135349448916 $354 $532 forward 7 unknown #
vertex $-1 $370 $533 #
vertex $-1 $360 $534 #
straight-curve $-1 -55.720300504128588 -37.460288431650213 0 0 0 -1 I I #
vertex $-1 $529 $535 #
straight-curve $-1 -50.950029805230756 -33.532624053395594 -9.3985605189576837 0 -1 0 I I #
straight-curve $-1 -55.720300504128588 -33.532624053395594 -9.3985605189576837 0 1 0 I I #
point $-1 -50.950029805230756 -29.604959675140972 -9.3985605189576837 #
coedge $-1 $466 $363 $366 $480 reversed $351 $-1 #
straight-curve $-1 -50.950029805230756 -29.604959675140968 0 0 0 -1 I I #
edge $-1 $531 -3.9276643782546188 $368 3.9276643782546223 $478 $536 forward 7 unknown #
point $-1 -50.950029805230756 -29.604959675140972 9.3985605189576837 #
straight-curve $-1 -55.720300504128588 -33.532624053395594 9.3985605189576837 0 -1 0 I I #
coedge $-1 $384 $383 $376 $484 forward $373 $-1 #
edge $-1 $485 76.058428795724083 $488 79.119354449031206 $483 $537 forward 7 unknown #
vertex $-1 $388 $538 #
straight-curve $-1 31.984563099550076 -21.749630918631723 9.3985605189576802 1 0 0 I I #
edge $-1 $488 -12.811231515257965 $385 -5.0655672914895522 $384 $539 forward 7 unknown #
vertex $-1 $487 $540 #
straight-curve $-1 -21.192612963342206 -21.749630918631723 91.49937402809293 -0.68199835119979291 0 0.73135370988377701 I I #
point $-1 55.367632358022185 -21.749630918631723 9.3985605189576802 #
point $-1 58.221991637928404 -14.00396669486331 6.337634865650557 #
straight-curve $-1 58.221991637928404 0 9.3985605189576837 0 1 0 I I #
vertex $-1 $391 $541 #
point $-1 55.292302104677418 -19.536583997555034 5.0996571381264628 #
vertex $-1 $395 $542 #
point $-1 55.292302104677418 -16.217013615940001 5.0996571381264628 #
edge $-1 $498 21.418874336917643 $501 29.155648607017376 $400 $543 forward 7 unknown #
vertex $-1 $414 $544 #
straight-curve $-1 -79.016983688910543 3.9276643782546259 9.3985605189576837 -1 0 0 I I #
edge $-1 $501 -3.8513979926234825 $411 3.6988652213611957 $410 $545 forward 7 unknown #
vertex $-1 $500 $546 #
straight-curve $-1 -58.221991637928383 3.9276643782546259 1.661786248857986 0.51503806187062418 0 0.85716730853699208 I I #
point $-1 -53.573268820904737 3.9276643782546259 9.3985605189576837 #
point $-1 -58.221991637928404 -3.6225988357300523 1.6617862488579505 #
straight-curve $-1 -58.221991637928404 0 9.3985605189576837 0 -1 0 I I #
vertex $-1 $417 $547 #
point $-1 -54.175180955307603 -1.4653807745915728 5.0785381757612544 #
vertex $-1 $421 $548 #
point $-1 -54.175180955307603 1.7704463171161464 5.0785381757612544 #
coedge $-1 $511 $427 $517 $549 reversed $302 $-1 #
coedge $-1 $427 $510 $430 $515 reversed $302 $-1 #
edge $-1 $513 -16.690045641066657 $435 -9.139782427081979 $434 $550 forward 7 unknown #
vertex $-1 $429 $551 #
straight-curve $-1 -50.866704006279832 29.604959675140968 13.903040962804415 -0.51503806187062429 0 -0.85716730853699219 I I #
edge $-1 $431 53.573268820904737 $519 58.221991637928404 $511 $552 forward 7 unknown #
point $-1 -53.573268820904737 29.604959675140975 9.3985605189576837 #
coedge $-1 $434 $433 $510 $549 forward $425 $-1 #
point $-1 -58.221991637928404 22.054696461156297 1.6617862488579505 #
vertex $-1 $515 $553 #
straight-curve $-1 -58.221991637928404 0 9.3985605189576837 0 -1 0 I I #
vertex $-1 $441 $554 #
point $-1 -54.175180955307603 24.211914522294776 5.0785381757612544 #
vertex $-1 $445 $555 #
point $-1 -54.175180955307603 27.447741614002496 5.0785381757612544 #
straight-curve $-1 -58.221991637928404 29.604959675140968 0 0 0 -1 I I #
point $-1 -58.221991637928404 -29.604959675140968 -9.3985605189576837 #
straight-curve $-1 -58.221991637928404 0 -9.3985605189576837 0 1 0 I I #
point $-1 -58.221991637928404 29.604959675140968 -9.3985605189576837 #
edge $-1 $531 -9.3985605189576837 $474 9.3985605189576837 $466 $556 forward 7 unknown #
straight-curve $-1 -53.335165154679672 -37.460288431650213 -9.3985605189576837 -1 0 0 I I #
vertex $-1 $480 $557 #
straight-curve $-1 -53.335165154679672 -37.460288431650213 9.3985605189576837 1 0 0 I I #
point $-1 -55.720300504128588 -37.460288431650213 9.3985605189576837 #
point $-1 -55.720300504128588 -37.460288431650213 -9.3985605189576837 #
point $-1 -50.950029805230756 -37.460288431650213 -9.3985605189576837 #
straight-curve $-1 -50.950029805230756 -33.532624053395594 9.3985605189576837 0 1 0 I I #
straight-curve $-1 58.221991637928404 -21.749630918631723 85.456989314681763 0 0 -1 I I #
point $-1 58.221991637928404 -21.749630918631723 9.3985605189576837 #
straight-curve $-1 58.221991637928404 -8.9383994033737579 6.3376348656505641 0 1 0 I I #
point $-1 58.221991637928404 -21.749630918631723 6.337634865650557 #
point $-1 53.878950043593846 -19.536583997555034 5.1490124968104469 #
point $-1 53.878950043593846 -16.217013615940001 5.1490124968104469 #
straight-curve $-1 -58.221991637928404 3.9276643782546259 30.817434855875327 0 0 -1 I I #
point $-1 -58.221991637928404 3.9276643782546259 9.3985605189576837 #
straight-curve $-1 -58.221991637928404 0.076266385631143407 1.6617862488579518 0 -1 0 I I #
point $-1 -58.221991637928404 3.9276643782546259 1.6617862488579505 #
point $-1 -54.004116331974423 -1.4653807745915728 4.392435490557447 #
point $-1 -54.004116331974423 1.7704463171161464 4.392435490557447 #
edge $-1 $519 -9.3985605189576837 $513 -1.6617862488579505 $510 $558 forward 7 unknown #
straight-curve $-1 -58.221991637928404 12.914914034074318 1.6617862488579518 0 -1 0 I I #
point $-1 -58.221991637928404 29.604959675140975 1.6617862488579505 #
straight-curve $-1 0 29.604959675140968 9.3985605189576837 -1 0 0 I I #
point $-1 -58.221991637928404 29.604959675140968 9.3985605189576837 #
point $-1 -54.004116331974423 24.211914522294776 4.392435490557447 #
point $-1 -54.004116331974423 27.447741614002496 4.392435490557447 #
straight-curve $-1 -50.950029805230756 -37.460288431650213 0 0 0 -1 I I #
point $-1 -50.950029805230756 -37.460288431650213 9.3985605189576837 #
straight-curve $-1 -58.221991637928404 29.604959675140968 0 0 0 -1 I I #
End-of-ACIS-data 