500 0 4 0           
7 Unknown 11 ACIS 5.0 NT 24 Fri Mar 26 17:26:58 1999 
-1 9.9999999999999995e-007 1e-010 
body $-1 $4 $-1 $5 #
body $-1 $6 $-1 $7 #
body $-1 $8 $-1 $9 #
body $-1 $10 $-1 $11 #
lump $-1 $-1 $12 $0 #
transform $-1 1 0 0 0 1 0 0 0 1 44.742576372569964 19.828907042204413 4.6643650532518448 1 rotate no_reflect no_shear #
lump $-1 $-1 $13 $1 #
transform $-1 1 0 0 0 1 0 0 0 1 44.742576372569964 19.828907042204413 4.6643650532518448 1 rotate no_reflect no_shear #
lump $-1 $-1 $14 $2 #
transform $-1 1 0 0 0 1 0 0 0 1 44.742576372569964 19.828907042204413 4.6643650532518448 1 rotate no_reflect no_shear #
lump $-1 $-1 $15 $3 #
transform $-1 1 0 0 0 1 0 0 0 1 44.742576372569964 19.828907042204413 4.6643650532518448 1 rotate no_reflect no_shear #
shell $-1 $-1 $-1 $16 $-1 $4 #
shell $-1 $-1 $-1 $17 $-1 $6 #
shell $-1 $-1 $-1 $18 $-1 $8 #
shell $-1 $-1 $-1 $19 $-1 $10 #
face $-1 $20 $21 $12 $-1 $22 forward single #
face $-1 $23 $24 $13 $-1 $25 forward single #
face $-1 $26 $27 $14 $-1 $28 forward single #
face $-1 $29 $30 $15 $-1 $31 reversed single #
face $-1 $32 $33 $12 $-1 $34 reversed single #
loop $-1 $-1 $35 $16 #
plane-surface $-1 0 0 4.6643650532518448 0 0 1 1 0 0 forward_v I I I I #
face $-1 $36 $37 $13 $-1 $38 forward single #
loop $-1 $-1 $39 $17 #
plane-surface $-1 -38.413846266066273 -17.497004944032572 0 1 0 0 0 0 -1 forward_v I I I I #
face $-1 $40 $41 $14 $-1 $42 forward single #
loop $-1 $-1 $43 $18 #
plane-surface $-1 -109.11280901879331 10.980791043049583 62.208441636036113 0 1 0 -0.71933980857756763 0 0.69465836192734942 forward_v I I I I #
face $-1 $44 $45 $15 $-1 $46 reversed single #
loop $-1 $47 $48 $19 #
cone-surface $-1 -41.190127961136383 15.404849042626999 1.0780902813732909 0.71933980857756763 0 -0.69465836192734942 0.69465836192734942 0 0.71933980857756763 1 I I 0 1 1 forward I I I I #
face $-1 $49 $50 $12 $-1 $51 reversed single #
loop $-1 $-1 $52 $20 #
plane-surface $-1 0 0 -4.6643650532518448 0 0 1 1 0 0 forward_v I I I I #
coedge $-1 $53 $54 $55 $56 forward $21 $-1 #
face $-1 $57 $58 $13 $-1 $59 forward single #
loop $-1 $-1 $60 $23 #
plane-surface $-1 -36.913846266066273 -15.165102845860732 0 0 -1 0 0 0 -1 forward_v I I I I #
coedge $-1 $61 $62 $63 $64 reversed $24 $-1 #
face $-1 $65 $66 $14 $-1 $67 forward single #
loop $-1 $-1 $68 $26 #
plane-surface $-1 -44.742576372569957 15.404849042626999 0.046832013278553575 -0.71933980857756763 0 0.69465836192734942 0.69465836192734942 0 0.71933980857756763 forward_v I I I I #
coedge $-1 $69 $70 $71 $72 reversed $27 $-1 #
face $-1 $73 $74 $15 $-1 $75 forward single #
loop $-1 $76 $77 $29 #
cone-surface $-1 -39.507559504496626 15.404849042626999 -0.54674715148228969 0.71933980857756763 0 -0.69465836192734942 0.34732918096367471 0 0.35966990428878381 1 I I -0.70710678118654746 0.70710678118654746 0.5 forward I I I I #
loop $-1 $-1 $78 $19 #
coedge $-1 $48 $48 $79 $80 reversed $30 $-1 #
face $-1 $81 $82 $12 $-1 $83 reversed single #
loop $-1 $-1 $84 $32 #
plane-surface $-1 0 -19.828907042204413 0 0 1 0 0 0 1 forward_v I I I I #
coedge $-1 $85 $86 $87 $88 forward $33 $-1 #
coedge $-1 $89 $35 $90 $91 forward $21 $-1 #
coedge $-1 $35 $89 $92 $93 forward $21 $-1 #
coedge $-1 $94 $95 $35 $56 reversed $96 $-1 #
edge $-1 $97 -19.828907042204413 $98 19.828907042204413 $55 $99 forward 7 unknown #
face $-1 $100 $101 $13 $-1 $102 forward single #
loop $-1 $-1 $103 $36 #
plane-surface $-1 -35.413846266066273 -17.497004944032572 0 -1 0 0 0 0 1 forward_v I I I I #
coedge $-1 $104 $105 $106 $107 reversed $37 $-1 #
coedge $-1 $108 $39 $109 $110 reversed $24 $-1 #
coedge $-1 $39 $108 $111 $112 reversed $24 $-1 #
coedge $-1 $105 $104 $39 $64 forward $37 $-1 #
edge $-1 $113 -4.6643650532518448 $114 4.6643650532518448 $63 $115 forward 7 unknown #
face $-1 $116 $117 $14 $-1 $118 reversed single #
loop $-1 $-1 $119 $40 #
plane-surface $-1 0 0 4.6643650532518448 0 0 1 1 0 0 forward_v I I I I #
coedge $-1 $120 $121 $119 $122 reversed $41 $-1 #
coedge $-1 $70 $43 $121 $123 forward $27 $-1 #
coedge $-1 $43 $69 $124 $125 reversed $27 $-1 #
coedge $-1 $126 $119 $43 $72 forward $66 $-1 #
edge $-1 $127 -14.272927854991927 $128 -9.8138281368266931 $71 $129 forward 7 unknown #
face $-1 $130 $131 $15 $-1 $132 forward single #
loop $-1 $-1 $133 $44 #
plane-surface $-1 -109.11280901879331 10.980791043049583 62.208441636036113 0 1 0 -0.71933980857756763 0 0.69465836192734942 forward_v I I I I #
loop $-1 $-1 $134 $29 #
coedge $-1 $77 $77 $78 $135 forward $45 $-1 #
coedge $-1 $78 $78 $77 $135 reversed $47 $-1 #
coedge $-1 $79 $79 $48 $80 forward $131 $-1 #
edge $-1 $136 0 $136 6.2831853071796004 $79 $137 forward 7 unknown #
face $-1 $138 $139 $12 $-1 $140 reversed single #
loop $-1 $-1 $141 $49 #
plane-surface $-1 -44.742576372569964 0 0 1 0 0 0 0 -1 forward_v I I I I #
coedge $-1 $142 $92 $143 $144 forward $50 $-1 #
coedge $-1 $145 $52 $142 $146 forward $33 $-1 #
coedge $-1 $52 $145 $147 $148 forward $33 $-1 #
coedge $-1 $95 $94 $52 $88 reversed $96 $-1 #
edge $-1 $149 -19.828907042204413 $150 19.828907042204413 $87 $151 forward 7 unknown #
coedge $-1 $54 $53 $152 $153 forward $21 $-1 #
coedge $-1 $154 $155 $53 $91 reversed $139 $-1 #
edge $-1 $98 -44.742576372569964 $156 44.742576372569964 $90 $157 forward 7 unknown #
coedge $-1 $84 $158 $54 $93 reversed $50 $-1 #
edge $-1 $159 -44.742576372569964 $97 44.742576372569964 $92 $160 forward 7 unknown #
coedge $-1 $87 $55 $158 $161 forward $96 $-1 #
coedge $-1 $55 $87 $154 $162 reversed $96 $-1 #
loop $-1 $-1 $94 $138 #
vertex $-1 $56 $163 #
vertex $-1 $56 $164 #
straight-curve $-1 44.742576372569964 0 4.6643650532518448 0 1 0 I I #
face $-1 $165 $166 $13 $-1 $167 reversed single #
loop $-1 $-1 $109 $57 #
plane-surface $-1 0 0 4.6643650532518448 0 0 1 1 0 0 forward_v I I I I #
coedge $-1 $168 $169 $170 $171 reversed $58 $-1 #
coedge $-1 $63 $60 $172 $173 reversed $37 $-1 #
coedge $-1 $60 $63 $174 $175 reversed $37 $-1 #
coedge $-1 $169 $168 $60 $107 forward $58 $-1 #
edge $-1 $176 -4.6643650532518448 $177 4.6643650532518448 $106 $178 forward 7 unknown #
coedge $-1 $62 $61 $179 $180 reversed $24 $-1 #
coedge $-1 $172 $181 $61 $110 forward $101 $-1 #
edge $-1 $182 -11.080404570188128 $113 -6.4166003738444459 $109 $183 forward 7 unknown #
coedge $-1 $184 $174 $62 $112 forward $185 $-1 #
edge $-1 $114 6.4166003738444459 $186 11.080404570188128 $111 $187 forward 7 unknown #
vertex $-1 $110 $188 #
vertex $-1 $112 $189 #
straight-curve $-1 -38.413846266066273 -15.165102845860732 0 0 0 -1 I I #
face $-1 $190 $191 $14 $-1 $192 forward single #
loop $-1 $-1 $124 $65 #
plane-surface $-1 -44.742576372569964 0 0 1 0 0 0 0 -1 forward_v I I I I #
coedge $-1 $71 $193 $68 $122 forward $66 $-1 #
coedge $-1 $194 $68 $195 $196 reversed $41 $-1 #
coedge $-1 $68 $194 $69 $123 reversed $41 $-1 #
edge $-1 $197 -12.126482520890914 $127 -3.2783665217360838 $119 $198 forward 7 unknown #
edge $-1 $127 -6.419126238966343 $199 1.0226752498356164e-014 $69 $200 forward 7 unknown #
coedge $-1 $201 $202 $70 $125 forward $117 $-1 #
edge $-1 $128 26.439855764766211 $199 31.05738880473951 $124 $203 forward 7 unknown #
coedge $-1 $204 $71 $202 $205 forward $66 $-1 #
vertex $-1 $122 $206 #
vertex $-1 $205 $207 #
straight-curve $-1 -54.556404509396657 10.980791043049583 4.6643650532518457 -1 0 0 I I #
face $-1 $208 $209 $15 $-1 $210 forward single #
loop $-1 $211 $79 $73 #
plane-surface $-1 -44.742576372569957 15.404849042626999 0.046832013278553575 -0.71933980857756763 0 0.69465836192734942 0.69465836192734942 0 0.71933980857756763 forward_v I I I I #
coedge $-1 $212 $213 $214 $215 reversed $74 $-1 #
coedge $-1 $134 $134 $-1 $216 forward $76 $-1 #
edge $-1 $217 0 $217 6.2831853071796004 $77 $218 forward 7 unknown #
vertex $-1 $80 $219 #
ellipse-curve $-1 -42.513026513487347 15.404849042626999 2.355598533265193 0.71933980857756763 0 -0.69465836192734942 0.69465836192734942 0 0.71933980857756763 1 I I #
face $-1 $-1 $96 $12 $-1 $220 reversed single #
loop $-1 $-1 $154 $81 #
plane-surface $-1 0 19.828907042204413 0 0 -1 0 0 0 -1 forward_v I I I I #
coedge $-1 $221 $152 $155 $222 forward $82 $-1 #
coedge $-1 $158 $84 $85 $146 reversed $50 $-1 #
coedge $-1 $152 $221 $84 $144 reversed $82 $-1 #
edge $-1 $159 -4.6643650532518448 $223 4.6643650532518448 $143 $224 forward 7 unknown #
coedge $-1 $86 $85 $221 $225 forward $33 $-1 #
edge $-1 $150 -44.742576372569964 $223 44.742576372569964 $142 $226 forward 7 unknown #
coedge $-1 $155 $154 $86 $148 reversed $139 $-1 #
edge $-1 $227 -44.742576372569964 $149 44.742576372569964 $147 $228 forward 7 unknown #
vertex $-1 $88 $229 #
vertex $-1 $161 $230 #
straight-curve $-1 44.742576372569964 0 -4.6643650532518448 0 -1 0 I I #
coedge $-1 $141 $143 $89 $153 reversed $82 $-1 #
edge $-1 $156 -19.828907042204413 $159 19.828907042204413 $152 $231 forward 7 unknown #
coedge $-1 $147 $90 $95 $162 forward $139 $-1 #
coedge $-1 $90 $147 $141 $222 reversed $139 $-1 #
vertex $-1 $91 $232 #
straight-curve $-1 0 19.828907042204413 4.6643650532518448 -1 0 0 I I #
coedge $-1 $92 $142 $94 $161 reversed $50 $-1 #
vertex $-1 $153 $233 #
straight-curve $-1 0 -19.828907042204413 4.6643650532518448 1 0 0 I I #
edge $-1 $97 -4.6643650532518448 $150 4.6643650532518448 $94 $234 forward 7 unknown #
edge $-1 $98 -4.6643650532518448 $149 4.6643650532518448 $95 $235 forward 7 unknown #
point $-1 44.742576372569964 -19.828907042204413 4.6643650532518448 #
point $-1 44.742576372569964 19.828907042204413 4.6643650532518448 #
face $-1 $236 $185 $13 $-1 $237 reversed single #
loop $-1 $-1 $170 $100 #
plane-surface $-1 0 -19.828907042204413 0 0 1 0 0 0 1 forward_v I I I I #
coedge $-1 $106 $103 $238 $239 reversed $58 $-1 #
coedge $-1 $103 $106 $240 $241 reversed $58 $-1 #
coedge $-1 $242 $243 $103 $171 forward $166 $-1 #
edge $-1 $244 -4.6643650532518448 $245 4.6643650532518448 $170 $246 forward 7 unknown #
coedge $-1 $238 $109 $104 $173 forward $101 $-1 #
edge $-1 $113 -19.956923133033136 $176 -16.956923133033136 $172 $247 forward 7 unknown #
coedge $-1 $111 $240 $105 $175 forward $185 $-1 #
edge $-1 $177 16.956923133033136 $114 19.956923133033136 $174 $248 forward 7 unknown #
vertex $-1 $173 $249 #
vertex $-1 $175 $250 #
straight-curve $-1 -35.413846266066273 -15.165102845860732 0 0 0 -1 I I #
coedge $-1 $251 $252 $108 $180 forward $253 $-1 #
edge $-1 $186 -4.6643650532518448 $182 4.6643650532518448 $179 $254 forward 7 unknown #
coedge $-1 $109 $255 $251 $256 forward $101 $-1 #
vertex $-1 $180 $257 #
straight-curve $-1 -38.413846266066273 -8.7485024720162858 4.6643650532518448 0 1 0 I I #
coedge $-1 $258 $111 $252 $259 forward $185 $-1 #
loop $-1 $-1 $111 $165 #
vertex $-1 $259 $260 #
straight-curve $-1 -38.413846266066273 -8.7485024720162858 -4.6643650532518448 0 -1 0 I I #
point $-1 -38.413846266066273 -15.165102845860732 4.6643650532518448 #
point $-1 -38.413846266066273 -15.165102845860732 -4.6643650532518448 #
face $-1 $261 $262 $14 $-1 $263 forward single #
loop $-1 $-1 $264 $116 #
plane-surface $-1 -38.413846266066273 -17.497004944032572 0 1 0 0 0 0 -1 forward_v I I I I #
coedge $-1 $119 $265 $266 $267 forward $66 $-1 #
coedge $-1 $121 $120 $201 $268 reversed $41 $-1 #
coedge $-1 $266 $269 $120 $196 forward $270 $-1 #
edge $-1 $271 -15.523558339955851 $197 -9.1044321009894951 $195 $272 forward 7 unknown #
vertex $-1 $196 $273 #
straight-curve $-1 -40.283476654404723 7.7024245213134996 4.6643650532518457 0 -1 0 I I #
vertex $-1 $268 $274 #
straight-curve $-1 -44.742576372569957 10.980791043049583 0.046832013278553575 -0.69465836192734942 0 -0.71933980857756763 I I #
coedge $-1 $275 $124 $194 $268 forward $117 $-1 #
coedge $-1 $124 $276 $126 $205 reversed $117 $-1 #
straight-curve $-1 -44.742576372569964 10.980791043049583 31.104220818018057 0 0 -1 I I #
coedge $-1 $277 $126 $278 $279 forward $66 $-1 #
edge $-1 $128 -10.980791043049583 $280 19.828907042204413 $202 $281 forward 7 unknown #
point $-1 -40.28347665440473 10.980791043049583 4.6643650532518448 #
point $-1 -44.742576372569964 10.980791043049583 4.6643650532518448 #
face $-1 $282 $283 $15 $-1 $284 reversed single #
loop $-1 $-1 $285 $130 #
plane-surface $-1 0 0 4.6643650532518448 0 0 1 1 0 0 forward_v I I I I #
loop $-1 $-1 $286 $73 #
coedge $-1 $213 $133 $287 $288 forward $74 $-1 #
coedge $-1 $133 $212 $289 $290 reversed $74 $-1 #
coedge $-1 $291 $285 $133 $215 forward $209 $-1 #
edge $-1 $292 -14.272927854991927 $293 -9.8138281368266931 $214 $294 forward 7 unknown #
edge $-1 $295 1 $295 0 $134 $-1 forward 7 unknown #
vertex $-1 $135 $296 #
ellipse-curve $-1 -39.867229408785413 15.404849042626999 -0.19941797051861498 -0.71933980857756763 0 0.69465836192734942 0.69465836192734942 0 0.71933980857756763 1 I I #
point $-1 -41.818368151560001 15.404849042626999 3.0749383418427643 #
plane-surface $-1 44.742576372569964 0 0 -1 0 0 0 0 1 forward_v I I I I #
coedge $-1 $143 $141 $145 $225 reversed $82 $-1 #
edge $-1 $156 -4.6643650532518448 $227 4.6643650532518448 $155 $297 forward 7 unknown #
vertex $-1 $225 $298 #
straight-curve $-1 -44.742576372569964 -19.828907042204413 0 0 0 -1 I I #
edge $-1 $223 -19.828907042204413 $227 19.828907042204413 $221 $299 forward 7 unknown #
straight-curve $-1 0 -19.828907042204413 -4.6643650532518448 -1 0 0 I I #
vertex $-1 $148 $300 #
straight-curve $-1 0 19.828907042204413 -4.6643650532518448 1 0 0 I I #
point $-1 44.742576372569964 19.828907042204413 -4.6643650532518448 #
point $-1 44.742576372569964 -19.828907042204413 -4.6643650532518448 #
straight-curve $-1 -44.742576372569964 0 4.6643650532518448 0 -1 0 I I #
point $-1 -44.742576372569964 19.828907042204413 4.6643650532518448 #
point $-1 -44.742576372569964 -19.828907042204413 4.6643650532518448 #
straight-curve $-1 44.742576372569964 -19.828907042204413 0 0 0 -1 I I #
straight-curve $-1 44.742576372569964 19.828907042204413 0 0 0 -1 I I #
face $-1 $301 $253 $13 $-1 $167 reversed single #
plane-surface $-1 0 0 -4.6643650532518448 0 0 1 1 0 0 forward_v I I I I #
coedge $-1 $302 $172 $168 $239 forward $101 $-1 #
edge $-1 $176 6.4166003738444459 $244 11.080404570188128 $238 $303 forward 7 unknown #
coedge $-1 $174 $304 $169 $241 forward $185 $-1 #
edge $-1 $245 -11.080404570188128 $177 -6.4166003738444459 $240 $305 forward 7 unknown #
coedge $-1 $306 $170 $304 $307 reversed $166 $-1 #
coedge $-1 $170 $306 $302 $308 reversed $166 $-1 #
vertex $-1 $308 $309 #
vertex $-1 $171 $310 #
straight-curve $-1 -35.413846266066273 -19.828907042204413 0 0 0 -1 I I #
straight-curve $-1 -18.456923133033136 -15.165102845860732 4.6643650532518448 1 0 0 I I #
straight-curve $-1 -18.456923133033136 -15.165102845860732 -4.6643650532518448 -1 0 0 I I #
point $-1 -35.413846266066273 -15.165102845860732 4.6643650532518448 #
point $-1 -35.413846266066273 -15.165102845860732 -4.6643650532518448 #
coedge $-1 $311 $179 $181 $256 reversed $253 $-1 #
coedge $-1 $179 $311 $184 $259 reversed $253 $-1 #
loop $-1 $-1 $179 $236 #
straight-curve $-1 -38.413846266066273 -19.828907042204413 0 0 0 1 I I #
coedge $-1 $181 $312 $313 $314 forward $101 $-1 #
edge $-1 $315 -44.742576372569964 $182 -38.413846266066273 $251 $316 forward 7 unknown #
point $-1 -38.413846266066273 -19.828907042204413 4.6643650532518448 #
coedge $-1 $317 $184 $318 $319 forward $185 $-1 #
edge $-1 $186 38.413846266066273 $320 44.742576372569964 $252 $321 forward 7 unknown #
point $-1 -38.413846266066273 -19.828907042204413 -4.6643650532518448 #
face $-1 $322 $323 $14 $-1 $324 forward single #
loop $-1 $-1 $325 $190 #
plane-surface $-1 -36.913846266066273 -15.165102845860732 0 0 -1 0 0 0 -1 forward_v I I I I #
coedge $-1 $326 $327 $328 $329 reversed $191 $-1 #
coedge $-1 $193 $330 $331 $332 forward $66 $-1 #
coedge $-1 $333 $195 $193 $267 reversed $270 $-1 #
edge $-1 $334 -44.742576372569964 $197 40.28347665440473 $266 $335 forward 7 unknown #
edge $-1 $199 3.2783665217360838 $271 12.126482520890914 $201 $336 forward 7 unknown #
coedge $-1 $195 $337 $275 $338 reversed $270 $-1 #
loop $-1 $-1 $195 $339 #
vertex $-1 $338 $340 #
straight-curve $-1 -33.959006764852589 19.828907042204413 11.213545497985089 0.69465836192734942 0 0.71933980857756763 I I #
point $-1 -40.28347665440473 19.828907042204413 4.6643650532518448 #
point $-1 -44.742576372569964 10.980791043049583 0.04683201327854622 #
coedge $-1 $341 $201 $269 $338 forward $117 $-1 #
coedge $-1 $202 $341 $342 $343 reversed $117 $-1 #
coedge $-1 $344 $204 $326 $345 forward $66 $-1 #
coedge $-1 $342 $346 $204 $279 reversed $347 $-1 #
edge $-1 $280 -44.742576372569964 $348 -38.413846266066273 $278 $349 forward 7 unknown #
vertex $-1 $205 $350 #
straight-curve $-1 -44.742576372569964 0 4.6643650532518448 0 -1 0 I I #
face $-1 $351 $352 $15 $-1 $353 forward single #
loop $-1 $-1 $289 $208 #
plane-surface $-1 -44.742576372569964 0 0 1 0 0 0 0 -1 forward_v I I I I #
coedge $-1 $214 $354 $286 $355 forward $209 $-1 #
coedge $-1 $356 $287 $285 $355 reversed $211 $-1 #
coedge $-1 $286 $357 $212 $288 reversed $211 $-1 #
edge $-1 $292 -6.419126238966343 $358 1.0226752498356164e-014 $212 $359 forward 7 unknown #
coedge $-1 $360 $361 $213 $290 forward $283 $-1 #
edge $-1 $293 26.439855764766211 $358 31.05738880473951 $289 $362 forward 7 unknown #
coedge $-1 $363 $214 $361 $364 forward $209 $-1 #
vertex $-1 $355 $365 #
vertex $-1 $364 $366 #
straight-curve $-1 -54.556404509396657 10.980791043049583 4.6643650532518457 -1 0 0 I I #
vertex $-1 $216 $367 #
point $-1 -39.17257104685806 15.404849042626999 0.51992183805895253 #
straight-curve $-1 -44.742576372569964 19.828907042204413 0 0 0 -1 I I #
point $-1 -44.742576372569964 -19.828907042204413 -4.6643650532518448 #
straight-curve $-1 -44.742576372569964 0 -4.6643650532518448 0 1 0 I I #
point $-1 -44.742576372569964 19.828907042204413 -4.6643650532518448 #
face $-1 $368 $369 $13 $-1 $370 reversed single #
coedge $-1 $371 $238 $243 $308 forward $101 $-1 #
straight-curve $-1 -35.413846266066273 -8.7485024720162858 4.6643650532518448 0 -1 0 I I #
coedge $-1 $240 $372 $242 $307 forward $185 $-1 #
straight-curve $-1 -35.413846266066273 -8.7485024720162858 -4.6643650532518448 0 1 0 I I #
coedge $-1 $243 $242 $373 $374 reversed $166 $-1 #
edge $-1 $375 -44.742576372569964 $245 35.413846266066273 $242 $321 forward 7 unknown #
edge $-1 $244 -35.413846266066273 $376 44.742576372569964 $243 $316 forward 7 unknown #
point $-1 -35.413846266066273 -19.828907042204413 4.6643650532518448 #
point $-1 -35.413846266066273 -19.828907042204413 -4.6643650532518448 #
coedge $-1 $252 $251 $377 $378 forward $253 $-1 #
coedge $-1 $255 $371 $379 $380 forward $101 $-1 #
coedge $-1 $381 $377 $255 $314 reversed $369 $-1 #
edge $-1 $382 -19.828907042204413 $315 19.828907042204413 $313 $383 forward 7 unknown #
vertex $-1 $314 $384 #
straight-curve $-1 0 -19.828907042204413 4.6643650532518448 1 0 0 I I #
coedge $-1 $372 $258 $385 $386 forward $185 $-1 #
coedge $-1 $377 $381 $258 $319 reversed $369 $-1 #
edge $-1 $320 -19.828907042204413 $387 19.828907042204413 $318 $388 forward 7 unknown #
vertex $-1 $319 $389 #
straight-curve $-1 0 -19.828907042204413 -4.6643650532518448 -1 0 0 I I #
face $-1 $390 $391 $14 $-1 $392 reversed single #
loop $-1 $-1 $393 $261 #
plane-surface $-1 -35.413846266066273 -17.497004944032572 0 -1 0 0 0 0 1 forward_v I I I I #
coedge $-1 $394 $395 $396 $397 reversed $262 $-1 #
coedge $-1 $398 $264 $277 $345 reversed $191 $-1 #
coedge $-1 $264 $398 $399 $400 reversed $191 $-1 #
coedge $-1 $395 $394 $264 $329 forward $262 $-1 #
edge $-1 $401 -4.6643650532518448 $402 4.6643650532518448 $328 $403 forward 7 unknown #
coedge $-1 $265 $404 $405 $406 forward $66 $-1 #
coedge $-1 $407 $408 $265 $332 reversed $409 $-1 #
edge $-1 $410 -19.828907042204413 $334 19.828907042204413 $331 $411 forward 7 unknown #
coedge $-1 $337 $266 $408 $412 forward $270 $-1 #
vertex $-1 $332 $413 #
straight-curve $-1 0 19.828907042204413 4.6643650532518448 -1 0 0 I I #
straight-curve $-1 -44.742576372569964 7.7024245213134996 0.046832013278543146 0 1 0 I I #
coedge $-1 $269 $333 $414 $415 reversed $270 $-1 #
edge $-1 $271 -0.04683201327854622 $416 4.6643650532518448 $269 $417 forward 7 unknown #
face $-1 $418 $270 $14 $-1 $419 reversed single #
point $-1 -44.742576372569964 19.828907042204413 0.04683201327854622 #
coedge $-1 $276 $275 $420 $421 reversed $117 $-1 #
coedge $-1 $422 $278 $276 $343 forward $347 $-1 #
edge $-1 $280 -4.6643650532518448 $423 4.6643650532518448 $276 $424 forward 7 unknown #
coedge $-1 $404 $277 $394 $425 forward $66 $-1 #
edge $-1 $348 -11.080404570188128 $401 -6.4166003738444459 $277 $426 forward 7 unknown #
coedge $-1 $278 $422 $398 $427 forward $347 $-1 #
loop $-1 $-1 $346 $428 #
vertex $-1 $427 $429 #
straight-curve $-1 0 -19.828907042204413 4.6643650532518448 1 0 0 I I #
point $-1 -44.742576372569964 -19.828907042204413 4.6643650532518448 #
face $-1 $430 $431 $15 $-1 $432 forward single #
loop $-1 $-1 $433 $282 #
plane-surface $-1 -38.413846266066273 -17.497004944032572 0 1 0 0 0 0 -1 forward_v I I I I #
coedge $-1 $285 $434 $435 $436 forward $209 $-1 #
edge $-1 $437 -12.126482520890914 $292 -3.2783665217360838 $285 $438 forward 7 unknown #
coedge $-1 $357 $286 $439 $440 reversed $211 $-1 #
coedge $-1 $287 $356 $360 $441 reversed $211 $-1 #
vertex $-1 $441 $442 #
straight-curve $-1 -44.742576372569957 10.980791043049583 0.046832013278553575 -0.69465836192734942 0 -0.71933980857756763 I I #
coedge $-1 $443 $289 $357 $441 forward $283 $-1 #
coedge $-1 $289 $444 $291 $364 reversed $283 $-1 #
straight-curve $-1 -44.742576372569964 10.980791043049583 31.104220818018057 0 0 -1 I I #
coedge $-1 $445 $291 $446 $447 forward $209 $-1 #
edge $-1 $293 -10.980791043049583 $448 19.828907042204413 $361 $449 forward 7 unknown #
point $-1 -40.28347665440473 10.980791043049583 4.6643650532518448 #
point $-1 -44.742576372569964 10.980791043049583 4.6643650532518448 #
point $-1 -39.14788960020784 15.404849042626999 -0.89407633244596441 #
face $-1 $450 $451 $13 $-1 $452 reversed single #
loop $-1 $-1 $381 $301 #
plane-surface $-1 -44.742576372569964 0 0 1 0 0 0 0 -1 forward_v I I I I #
coedge $-1 $312 $302 $453 $454 forward $101 $-1 #
coedge $-1 $304 $317 $455 $456 forward $185 $-1 #
coedge $-1 $455 $453 $306 $374 forward $457 $-1 #
edge $-1 $376 -4.6643650532518448 $375 4.6643650532518448 $373 $458 forward 7 unknown #
vertex $-1 $374 $459 #
vertex $-1 $454 $460 #
coedge $-1 $313 $318 $311 $378 reversed $369 $-1 #
edge $-1 $315 -4.6643650532518448 $320 4.6643650532518448 $377 $461 forward 7 unknown #
coedge $-1 $462 $463 $312 $380 reversed $451 $-1 #
edge $-1 $464 -44.742576372569964 $382 44.742576372569964 $379 $465 forward 7 unknown #
coedge $-1 $318 $313 $463 $466 forward $369 $-1 #
vertex $-1 $380 $467 #
straight-curve $-1 -44.742576372569964 0 4.6643650532518448 0 -1 0 I I #
point $-1 -44.742576372569964 -19.828907042204413 4.6643650532518448 #
coedge $-1 $463 $462 $317 $386 reversed $451 $-1 #
edge $-1 $387 -44.742576372569964 $468 44.742576372569964 $385 $469 forward 7 unknown #
vertex $-1 $386 $470 #
straight-curve $-1 -44.742576372569964 0 -4.6643650532518448 0 1 0 I I #
point $-1 -44.742576372569964 -19.828907042204413 -4.6643650532518448 #
face $-1 $428 $471 $14 $-1 $472 reversed single #
loop $-1 $-1 $473 $322 #
plane-surface $-1 0 -19.828907042204413 0 0 1 0 0 0 1 forward_v I I I I #
coedge $-1 $474 $475 $473 $476 reversed $323 $-1 #
coedge $-1 $328 $325 $344 $425 reversed $262 $-1 #
coedge $-1 $325 $328 $477 $478 reversed $262 $-1 #
coedge $-1 $475 $474 $325 $397 forward $323 $-1 #
edge $-1 $479 -4.6643650532518448 $480 4.6643650532518448 $396 $481 forward 7 unknown #
coedge $-1 $327 $326 $346 $427 reversed $191 $-1 #
coedge $-1 $482 $477 $327 $400 forward $471 $-1 #
edge $-1 $402 6.4166003738444459 $483 11.080404570188128 $399 $484 forward 7 unknown #
vertex $-1 $345 $485 #
vertex $-1 $400 $486 #
straight-curve $-1 -38.413846266066273 -15.165102845860732 0 0 0 -1 I I #
coedge $-1 $330 $344 $474 $487 forward $66 $-1 #
coedge $-1 $473 $488 $330 $406 reversed $391 $-1 #
edge $-1 $489 -35.413846266066273 $410 44.742576372569964 $405 $349 forward 7 unknown #
coedge $-1 $490 $331 $488 $491 forward $409 $-1 #
coedge $-1 $331 $490 $333 $412 reversed $409 $-1 #
loop $-1 $-1 $407 $418 #
vertex $-1 $332 $492 #
straight-curve $-1 44.742576372569964 0 4.6643650532518448 0 1 0 I I #
edge $-1 $334 -4.6643650532518448 $493 4.6643650532518448 $408 $494 forward 7 unknown #
point $-1 44.742576372569964 19.828907042204413 4.6643650532518448 #
coedge $-1 $495 $420 $337 $415 forward $471 $-1 #
edge $-1 $416 -44.742576372569964 $493 44.742576372569964 $337 $496 forward 7 unknown #
vertex $-1 $415 $497 #
straight-curve $-1 -44.742576372569964 19.828907042204413 0 0 0 -1 I I #
face $-1 $-1 $409 $14 $-1 $498 reversed single #
plane-surface $-1 0 19.828907042204413 0 0 -1 0 0 0 -1 forward_v I I I I #
coedge $-1 $414 $482 $341 $421 forward $471 $-1 #
edge $-1 $423 -19.828907042204413 $416 19.828907042204413 $341 $499 forward 7 unknown #
coedge $-1 $346 $342 $482 $500 reversed $347 $-1 #
vertex $-1 $421 $501 #
straight-curve $-1 -44.742576372569964 -19.828907042204413 0 0 0 -1 I I #
edge $-1 $401 -19.956923133033136 $479 -16.956923133033136 $344 $502 forward 7 unknown #
straight-curve $-1 -38.413846266066273 -8.7485024720162858 4.6643650532518448 0 1 0 I I #
edge $-1 $483 -4.6643650532518448 $348 4.6643650532518448 $346 $503 forward 7 unknown #
face $-1 $339 $347 $14 $-1 $392 reversed single #
point $-1 -38.413846266066273 -19.828907042204413 4.6643650532518448 #
face $-1 $504 $505 $15 $-1 $506 forward single #
loop $-1 $-1 $507 $351 #
plane-surface $-1 -36.913846266066273 -15.165102845860732 0 0 -1 0 0 0 -1 forward_v I I I I #
coedge $-1 $508 $509 $510 $511 reversed $352 $-1 #
coedge $-1 $354 $512 $513 $514 forward $209 $-1 #
coedge $-1 $515 $439 $354 $436 reversed $516 $-1 #
edge $-1 $517 -44.742576372569964 $437 40.28347665440473 $435 $518 forward 7 unknown #
vertex $-1 $440 $519 #
straight-curve $-1 -40.283476654404723 7.7024245213134996 4.6643650532518457 0 -1 0 I I #
coedge $-1 $435 $520 $356 $440 forward $516 $-1 #
edge $-1 $521 -15.523558339955851 $437 -9.1044321009894951 $439 $522 forward 7 unknown #
edge $-1 $358 3.2783665217360838 $521 12.126482520890914 $360 $523 forward 7 unknown #
point $-1 -44.742576372569964 10.980791043049583 0.04683201327854622 #
coedge $-1 $524 $360 $520 $525 forward $283 $-1 #
coedge $-1 $361 $524 $526 $527 reversed $283 $-1 #
coedge $-1 $528 $363 $508 $529 forward $209 $-1 #
coedge $-1 $526 $530 $363 $447 reversed $531 $-1 #
edge $-1 $448 -44.742576372569964 $532 -38.413846266066273 $446 $533 forward 7 unknown #
vertex $-1 $364 $534 #
straight-curve $-1 -44.742576372569964 0 4.6643650532518448 0 -1 0 I I #
face $-1 $-1 $457 $13 $-1 $535 reversed single #
loop $-1 $-1 $462 $368 #
plane-surface $-1 0 19.828907042204413 0 0 -1 0 0 0 -1 forward_v I I I I #
coedge $-1 $373 $536 $371 $454 reversed $457 $-1 #
edge $-1 $376 -19.828907042204413 $464 19.828907042204413 $453 $537 forward 7 unknown #
coedge $-1 $536 $373 $372 $456 reversed $457 $-1 #
edge $-1 $468 -19.828907042204413 $375 19.828907042204413 $455 $538 forward 7 unknown #
loop $-1 $-1 $373 $450 #
straight-curve $-1 44.742576372569964 -19.828907042204413 0 0 0 -1 I I #
point $-1 44.742576372569964 -19.828907042204413 -4.6643650532518448 #
point $-1 44.742576372569964 -19.828907042204413 4.6643650532518448 #
straight-curve $-1 -44.742576372569964 -19.828907042204413 0 0 0 -1 I I #
coedge $-1 $385 $379 $536 $539 forward $451 $-1 #
coedge $-1 $379 $385 $381 $466 reversed $451 $-1 #
vertex $-1 $454 $540 #
straight-curve $-1 0 19.828907042204413 4.6643650532518448 -1 0 0 I I #
edge $-1 $382 -4.6643650532518448 $387 4.6643650532518448 $463 $541 forward 7 unknown #
point $-1 -44.742576372569964 19.828907042204413 4.6643650532518448 #
vertex $-1 $456 $542 #
straight-curve $-1 0 19.828907042204413 -4.6643650532518448 1 0 0 I I #
point $-1 -44.742576372569964 19.828907042204413 -4.6643650532518448 #
loop $-1 $-1 $399 $390 #
plane-surface $-1 0 0 -4.6643650532518448 0 0 1 1 0 0 forward_v I I I I #
coedge $-1 $543 $405 $393 $476 forward $391 $-1 #
coedge $-1 $396 $393 $404 $487 reversed $323 $-1 #
coedge $-1 $393 $396 $544 $545 reversed $323 $-1 #
edge $-1 $489 -4.6643650532518448 $546 4.6643650532518448 $473 $547 forward 7 unknown #
coedge $-1 $399 $544 $395 $478 forward $471 $-1 #
edge $-1 $480 16.956923133033136 $402 19.956923133033136 $477 $548 forward 7 unknown #
vertex $-1 $425 $549 #
vertex $-1 $478 $550 #
straight-curve $-1 -35.413846266066273 -15.165102845860732 0 0 0 -1 I I #
coedge $-1 $420 $399 $422 $500 forward $471 $-1 #
vertex $-1 $500 $551 #
straight-curve $-1 -38.413846266066273 -8.7485024720162858 -4.6643650532518448 0 -1 0 I I #
point $-1 -38.413846266066273 -15.165102845860732 4.6643650532518448 #
point $-1 -38.413846266066273 -15.165102845860732 -4.6643650532518448 #
edge $-1 $479 6.4166003738444459 $489 11.080404570188128 $404 $552 forward 7 unknown #
coedge $-1 $405 $543 $407 $491 reversed $391 $-1 #
vertex $-1 $406 $553 #
coedge $-1 $408 $407 $495 $554 reversed $409 $-1 #
edge $-1 $410 -4.6643650532518448 $555 4.6643650532518448 $407 $556 forward 7 unknown #
point $-1 44.742576372569964 -19.828907042204413 4.6643650532518448 #
vertex $-1 $554 $557 #
straight-curve $-1 44.742576372569964 19.828907042204413 0 0 0 -1 I I #
coedge $-1 $558 $414 $490 $554 forward $471 $-1 #
straight-curve $-1 0 19.828907042204413 -4.6643650532518448 1 0 0 I I #
point $-1 -44.742576372569964 19.828907042204413 -4.6643650532518448 #
plane-surface $-1 44.742576372569964 0 0 -1 0 0 0 0 1 forward_v I I I I #
straight-curve $-1 -44.742576372569964 0 -4.6643650532518448 0 1 0 I I #
edge $-1 $483 38.413846266066273 $423 44.742576372569964 $422 $559 forward 7 unknown #
point $-1 -44.742576372569964 -19.828907042204413 -4.6643650532518448 #
straight-curve $-1 -18.456923133033136 -15.165102845860732 4.6643650532518448 1 0 0 I I #
straight-curve $-1 -38.413846266066273 -19.828907042204413 0 0 0 1 I I #
face $-1 $560 $561 $15 $-1 $562 reversed single #
loop $-1 $-1 $563 $430 #
plane-surface $-1 -35.413846266066273 -17.497004944032572 0 -1 0 0 0 0 1 forward_v I I I I #
coedge $-1 $564 $565 $566 $567 reversed $431 $-1 #
coedge $-1 $568 $433 $445 $529 reversed $352 $-1 #
coedge $-1 $433 $568 $569 $570 reversed $352 $-1 #
coedge $-1 $565 $564 $433 $511 forward $431 $-1 #
edge $-1 $571 -4.6643650532518448 $572 4.6643650532518448 $510 $573 forward 7 unknown #
coedge $-1 $434 $574 $575 $576 forward $209 $-1 #
coedge $-1 $577 $578 $434 $514 reversed $579 $-1 #
edge $-1 $580 -19.828907042204413 $517 19.828907042204413 $513 $581 forward 7 unknown #
coedge $-1 $582 $435 $578 $583 forward $516 $-1 #
loop $-1 $-1 $439 $584 #
vertex $-1 $514 $585 #
straight-curve $-1 0 19.828907042204413 4.6643650532518448 -1 0 0 I I #
point $-1 -40.28347665440473 19.828907042204413 4.6643650532518448 #
coedge $-1 $439 $582 $443 $525 reversed $516 $-1 #
vertex $-1 $525 $586 #
straight-curve $-1 -33.959006764852589 19.828907042204413 11.213545497985089 0.69465836192734942 0 0.71933980857756763 I I #
straight-curve $-1 -44.742576372569964 7.7024245213134996 0.046832013278543146 0 1 0 I I #
coedge $-1 $444 $443 $587 $588 reversed $283 $-1 #
edge $-1 $521 -0.04683201327854622 $589 4.6643650532518448 $520 $590 forward 7 unknown #
coedge $-1 $591 $446 $444 $527 forward $531 $-1 #
edge $-1 $448 -4.6643650532518448 $592 4.6643650532518448 $444 $593 forward 7 unknown #
coedge $-1 $574 $445 $564 $594 forward $209 $-1 #
edge $-1 $532 -11.080404570188128 $571 -6.4166003738444459 $445 $595 forward 7 unknown #
coedge $-1 $446 $591 $568 $596 forward $531 $-1 #
loop $-1 $-1 $530 $597 #
vertex $-1 $596 $598 #
straight-curve $-1 0 -19.828907042204413 4.6643650532518448 1 0 0 I I #
point $-1 -44.742576372569964 -19.828907042204413 4.6643650532518448 #
plane-surface $-1 44.742576372569964 0 0 -1 0 0 0 0 1 forward_v I I I I #
coedge $-1 $453 $455 $462 $539 reversed $457 $-1 #
straight-curve $-1 44.742576372569964 0 4.6643650532518448 0 1 0 I I #
straight-curve $-1 44.742576372569964 0 -4.6643650532518448 0 -1 0 I I #
edge $-1 $464 -4.6643650532518448 $468 4.6643650532518448 $536 $599 forward 7 unknown #
point $-1 44.742576372569964 19.828907042204413 4.6643650532518448 #
straight-curve $-1 -44.742576372569964 19.828907042204413 0 0 0 -1 I I #
point $-1 44.742576372569964 19.828907042204413 -4.6643650532518448 #
coedge $-1 $488 $473 $558 $600 reversed $391 $-1 #
coedge $-1 $477 $558 $475 $545 forward $471 $-1 #
edge $-1 $546 -11.080404570188128 $480 -6.4166003738444459 $544 $601 forward 7 unknown #
vertex $-1 $476 $602 #
straight-curve $-1 -35.413846266066273 -19.828907042204413 0 0 0 -1 I I #
straight-curve $-1 -18.456923133033136 -15.165102845860732 -4.6643650532518448 -1 0 0 I I #
point $-1 -35.413846266066273 -15.165102845860732 4.6643650532518448 #
point $-1 -35.413846266066273 -15.165102845860732 -4.6643650532518448 #
point $-1 -38.413846266066273 -19.828907042204413 -4.6643650532518448 #
straight-curve $-1 -35.413846266066273 -8.7485024720162858 4.6643650532518448 0 -1 0 I I #
point $-1 -35.413846266066273 -19.828907042204413 4.6643650532518448 #
edge $-1 $493 -19.828907042204413 $555 19.828907042204413 $490 $603 forward 7 unknown #
vertex $-1 $491 $604 #
straight-curve $-1 44.742576372569964 -19.828907042204413 0 0 0 -1 I I #
point $-1 44.742576372569964 19.828907042204413 -4.6643650532518448 #
coedge $-1 $544 $495 $543 $600 forward $471 $-1 #
straight-curve $-1 0 -19.828907042204413 -4.6643650532518448 -1 0 0 I I #
face $-1 $597 $605 $15 $-1 $606 reversed single #
loop $-1 $-1 $607 $504 #
plane-surface $-1 0 -19.828907042204413 0 0 1 0 0 0 1 forward_v I I I I #
coedge $-1 $608 $609 $607 $610 reversed $505 $-1 #
coedge $-1 $510 $507 $528 $594 reversed $431 $-1 #
coedge $-1 $507 $510 $611 $612 reversed $431 $-1 #
coedge $-1 $609 $608 $507 $567 forward $505 $-1 #
edge $-1 $613 -4.6643650532518448 $614 4.6643650532518448 $566 $615 forward 7 unknown #
coedge $-1 $509 $508 $530 $596 reversed $352 $-1 #
coedge $-1 $616 $611 $509 $570 forward $605 $-1 #
edge $-1 $572 6.4166003738444459 $617 11.080404570188128 $569 $618 forward 7 unknown #
vertex $-1 $529 $619 #
vertex $-1 $570 $620 #
straight-curve $-1 -38.413846266066273 -15.165102845860732 0 0 0 -1 I I #
coedge $-1 $512 $528 $608 $621 forward $209 $-1 #
coedge $-1 $607 $622 $512 $576 reversed $561 $-1 #
edge $-1 $623 -35.413846266066273 $580 44.742576372569964 $575 $533 forward 7 unknown #
coedge $-1 $624 $513 $622 $625 forward $579 $-1 #
coedge $-1 $513 $624 $515 $583 reversed $579 $-1 #
loop $-1 $-1 $577 $626 #
vertex $-1 $514 $627 #
straight-curve $-1 44.742576372569964 0 4.6643650532518448 0 1 0 I I #
coedge $-1 $520 $515 $628 $629 reversed $516 $-1 #
edge $-1 $517 -4.6643650532518448 $630 4.6643650532518448 $578 $631 forward 7 unknown #
face $-1 $626 $516 $15 $-1 $632 reversed single #
point $-1 44.742576372569964 19.828907042204413 4.6643650532518448 #
point $-1 -44.742576372569964 19.828907042204413 0.04683201327854622 #
coedge $-1 $628 $616 $524 $588 forward $605 $-1 #
edge $-1 $592 -19.828907042204413 $589 19.828907042204413 $524 $633 forward 7 unknown #
vertex $-1 $629 $634 #
straight-curve $-1 -44.742576372569964 19.828907042204413 0 0 0 -1 I I #
coedge $-1 $530 $526 $616 $635 reversed $531 $-1 #
vertex $-1 $588 $636 #
straight-curve $-1 -44.742576372569964 -19.828907042204413 0 0 0 -1 I I #
edge $-1 $571 -19.956923133033136 $613 -16.956923133033136 $528 $637 forward 7 unknown #
straight-curve $-1 -38.413846266066273 -8.7485024720162858 4.6643650532518448 0 1 0 I I #
edge $-1 $617 -4.6643650532518448 $532 4.6643650532518448 $530 $638 forward 7 unknown #
face $-1 $584 $531 $15 $-1 $562 reversed single #
point $-1 -38.413846266066273 -19.828907042204413 4.6643650532518448 #
straight-curve $-1 44.742576372569964 19.828907042204413 0 0 0 -1 I I #
edge $-1 $555 -44.742576372569964 $546 35.413846266066273 $543 $559 forward 7 unknown #
straight-curve $-1 -35.413846266066273 -8.7485024720162858 -4.6643650532518448 0 1 0 I I #
point $-1 -35.413846266066273 -19.828907042204413 -4.6643650532518448 #
straight-curve $-1 44.742576372569964 0 -4.6643650532518448 0 -1 0 I I #
point $-1 44.742576372569964 -19.828907042204413 -4.6643650532518448 #
loop $-1 $-1 $569 $560 #
plane-surface $-1 0 0 -4.6643650532518448 0 0 1 1 0 0 forward_v I I I I #
coedge $-1 $639 $575 $563 $610 forward $561 $-1 #
coedge $-1 $566 $563 $574 $621 reversed $505 $-1 #
coedge $-1 $563 $566 $640 $641 reversed $505 $-1 #
edge $-1 $623 -4.6643650532518448 $642 4.6643650532518448 $607 $643 forward 7 unknown #
coedge $-1 $569 $640 $565 $612 forward $605 $-1 #
edge $-1 $614 16.956923133033136 $572 19.956923133033136 $611 $644 forward 7 unknown #
vertex $-1 $594 $645 #
vertex $-1 $612 $646 #
straight-curve $-1 -35.413846266066273 -15.165102845860732 0 0 0 -1 I I #
coedge $-1 $587 $569 $591 $635 forward $605 $-1 #
vertex $-1 $635 $647 #
straight-curve $-1 -38.413846266066273 -8.7485024720162858 -4.6643650532518448 0 -1 0 I I #
point $-1 -38.413846266066273 -15.165102845860732 4.6643650532518448 #
point $-1 -38.413846266066273 -15.165102845860732 -4.6643650532518448 #
edge $-1 $613 6.4166003738444459 $623 11.080404570188128 $574 $648 forward 7 unknown #
coedge $-1 $575 $639 $577 $625 reversed $561 $-1 #
vertex $-1 $576 $649 #
coedge $-1 $578 $577 $650 $651 reversed $579 $-1 #
edge $-1 $580 -4.6643650532518448 $652 4.6643650532518448 $577 $653 forward 7 unknown #
face $-1 $-1 $579 $15 $-1 $654 reversed single #
point $-1 44.742576372569964 -19.828907042204413 4.6643650532518448 #
coedge $-1 $650 $587 $582 $629 forward $605 $-1 #
edge $-1 $589 -44.742576372569964 $630 44.742576372569964 $582 $655 forward 7 unknown #
vertex $-1 $651 $656 #
straight-curve $-1 44.742576372569964 19.828907042204413 0 0 0 -1 I I #
plane-surface $-1 0 19.828907042204413 0 0 -1 0 0 0 -1 forward_v I I I I #
straight-curve $-1 -44.742576372569964 0 -4.6643650532518448 0 1 0 I I #
point $-1 -44.742576372569964 19.828907042204413 -4.6643650532518448 #
edge $-1 $617 38.413846266066273 $592 44.742576372569964 $591 $657 forward 7 unknown #
point $-1 -44.742576372569964 -19.828907042204413 -4.6643650532518448 #
straight-curve $-1 -18.456923133033136 -15.165102845860732 4.6643650532518448 1 0 0 I I #
straight-curve $-1 -38.413846266066273 -19.828907042204413 0 0 0 1 I I #
coedge $-1 $622 $607 $658 $659 reversed $561 $-1 #
coedge $-1 $611 $658 $609 $641 forward $605 $-1 #
edge $-1 $642 -11.080404570188128 $614 -6.4166003738444459 $640 $660 forward 7 unknown #
vertex $-1 $610 $661 #
straight-curve $-1 -35.413846266066273 -19.828907042204413 0 0 0 -1 I I #
straight-curve $-1 -18.456923133033136 -15.165102845860732 -4.6643650532518448 -1 0 0 I I #
point $-1 -35.413846266066273 -15.165102845860732 4.6643650532518448 #
point $-1 -35.413846266066273 -15.165102845860732 -4.6643650532518448 #
point $-1 -38.413846266066273 -19.828907042204413 -4.6643650532518448 #
straight-curve $-1 -35.413846266066273 -8.7485024720162858 4.6643650532518448 0 -1 0 I I #
point $-1 -35.413846266066273 -19.828907042204413 4.6643650532518448 #
coedge $-1 $658 $628 $624 $651 forward $605 $-1 #
edge $-1 $630 -19.828907042204413 $652 19.828907042204413 $624 $662 forward 7 unknown #
vertex $-1 $625 $663 #
straight-curve $-1 44.742576372569964 -19.828907042204413 0 0 0 -1 I I #
plane-surface $-1 44.742576372569964 0 0 -1 0 0 0 0 1 forward_v I I I I #
straight-curve $-1 0 19.828907042204413 -4.6643650532518448 1 0 0 I I #
point $-1 44.742576372569964 19.828907042204413 -4.6643650532518448 #
straight-curve $-1 0 -19.828907042204413 -4.6643650532518448 -1 0 0 I I #
coedge $-1 $640 $650 $639 $659 forward $605 $-1 #
edge $-1 $652 -44.742576372569964 $642 35.413846266066273 $639 $657 forward 7 unknown #
straight-curve $-1 -35.413846266066273 -8.7485024720162858 -4.6643650532518448 0 1 0 I I #
point $-1 -35.413846266066273 -19.828907042204413 -4.6643650532518448 #
straight-curve $-1 44.742576372569964 0 -4.6643650532518448 0 -1 0 I I #
point $-1 44.742576372569964 -19.828907042204413 -4.6643650532518448 #
End-of-ACIS-data 