500 0 12 0           
7 Unknown 11 ACIS 5.0 NT 24 Thu Mar 25 23:20:40 1999 
-1 9.9999999999999995e-007 1e-010 
body $-1 $12 $-1 $13 #
body $-1 $14 $-1 $15 #
body $-1 $16 $-1 $17 #
body $-1 $18 $-1 $19 #
body $-1 $20 $-1 $21 #
body $-1 $22 $-1 $23 #
body $-1 $24 $-1 $25 #
body $-1 $26 $-1 $27 #
body $-1 $28 $-1 $29 #
body $-1 $30 $-1 $31 #
body $-1 $32 $-1 $33 #
body $-1 $34 $-1 $35 #
lump $-1 $-1 $36 $0 #
transform $-1 1 0 0 0 1 0 0 0 1 55.802484206671345 38.068544304045815 18.507978912796467 1 rotate no_reflect no_shear #
lump $-1 $-1 $37 $1 #
transform $-1 1 0 0 0 1 0 0 0 1 55.802484206671345 38.068544304045815 18.507978912796467 1 rotate no_reflect no_shear #
lump $-1 $-1 $38 $2 #
transform $-1 1 0 0 0 1 0 0 0 1 55.802484206671345 38.068544304045815 18.507978912796467 1 rotate no_reflect no_shear #
lump $-1 $-1 $39 $3 #
transform $-1 1 0 0 0 1 0 0 0 1 55.802484206671345 38.068544304045815 18.507978912796467 1 rotate no_reflect no_shear #
lump $-1 $-1 $40 $4 #
transform $-1 1 0 0 0 1 0 0 0 1 55.802484206671345 38.068544304045815 18.507978912796467 1 rotate no_reflect no_shear #
lump $-1 $-1 $41 $5 #
transform $-1 1 0 0 0 1 0 0 0 1 55.802484206671345 38.068544304045815 18.507978912796467 1 rotate no_reflect no_shear #
lump $-1 $-1 $42 $6 #
transform $-1 1 0 0 0 1 0 0 0 1 55.802484206671345 38.068544304045815 18.507978912796467 1 rotate no_reflect no_shear #
lump $-1 $-1 $43 $7 #
transform $-1 1 0 0 0 1 0 0 0 1 55.802484206671345 38.068544304045815 18.507978912796467 1 rotate no_reflect no_shear #
lump $-1 $-1 $44 $8 #
transform $-1 1 0 0 0 1 0 0 0 1 55.802484206671345 38.068544304045815 18.507978912796467 1 rotate no_reflect no_shear #
lump $-1 $-1 $45 $9 #
transform $-1 1 0 0 0 1 0 0 0 1 55.802484206671345 38.068544304045815 18.507978912796467 1 rotate no_reflect no_shear #
lump $-1 $-1 $46 $10 #
transform $-1 1 0 0 0 1 0 0 0 1 55.802484206671345 38.068544304045815 18.507978912796467 1 rotate no_reflect no_shear #
lump $-1 $-1 $47 $11 #
transform $-1 1 0 0 0 1 0 0 0 1 55.802484206671345 38.068544304045815 18.507978912796467 1 rotate no_reflect no_shear #
shell $-1 $-1 $-1 $48 $-1 $12 #
shell $-1 $-1 $-1 $49 $-1 $14 #
shell $-1 $-1 $-1 $50 $-1 $16 #
shell $-1 $-1 $-1 $51 $-1 $18 #
shell $-1 $-1 $-1 $52 $-1 $20 #
shell $-1 $-1 $-1 $53 $-1 $22 #
shell $-1 $-1 $-1 $54 $-1 $24 #
shell $-1 $-1 $-1 $55 $-1 $26 #
shell $-1 $-1 $-1 $56 $-1 $28 #
shell $-1 $-1 $-1 $57 $-1 $30 #
shell $-1 $-1 $-1 $58 $-1 $32 #
shell $-1 $-1 $-1 $59 $-1 $34 #
face $-1 $60 $61 $36 $-1 $62 forward single #
face $-1 $63 $64 $37 $-1 $65 forward single #
face $-1 $66 $67 $38 $-1 $68 forward single #
face $-1 $69 $70 $39 $-1 $71 reversed single #
face $-1 $72 $73 $40 $-1 $74 forward single #
face $-1 $75 $76 $41 $-1 $77 forward single #
face $-1 $78 $79 $42 $-1 $80 reversed single #
face $-1 $81 $82 $43 $-1 $83 forward single #
face $-1 $84 $85 $44 $-1 $86 forward single #
face $-1 $87 $88 $45 $-1 $89 reversed single #
face $-1 $90 $91 $46 $-1 $92 forward single #
face $-1 $93 $94 $47 $-1 $95 forward single #
face $-1 $96 $97 $36 $-1 $98 reversed single #
loop $-1 $-1 $99 $48 #
plane-surface $-1 0 0 18.507978912796467 0 0 1 1 0 0 forward_v I I I I #
face $-1 $100 $101 $37 $-1 $102 reversed single #
loop $-1 $-1 $103 $49 #
plane-surface $-1 -45.113800191781905 0 3.6261836820479649 0 0 1 1 0 0 forward_v I I I I #
face $-1 $104 $105 $38 $-1 $106 reversed single #
loop $-1 $-1 $107 $50 #
plane-surface $-1 45.113800191781912 0 3.6261836820479649 0 0 1 1 0 0 forward_v I I I I #
face $-1 $108 $109 $39 $-1 $110 reversed single #
loop $-1 $-1 $111 $51 #
plane-surface $-1 -11.999149659093739 -93.871029258329415 97.193223621283551 1 0 0 0 0.50000000669873634 -0.8660253999169214 forward_v I I I I #
face $-1 $112 $113 $40 $-1 $114 forward single #
loop $-1 $115 $116 $52 #
cone-surface $-1 -8.5708211850669613 -21.85555535469544 8.3937505431184203 0 0.50000000669873634 -0.8660253999169214 1 0 0 1 I I 0 1 1 forward I I I I #
face $-1 $117 $118 $41 $-1 $119 forward single #
loop $-1 $120 $121 $53 #
cone-surface $-1 -3.4283284740267916 -21.85555535469544 8.3937505431184203 0 0.50000000669873634 -0.8660253999169214 1 0 0 1 I I 0 1 1 forward I I I I #
face $-1 $122 $123 $42 $-1 $124 reversed single #
loop $-1 $-1 $125 $54 #
plane-surface $-1 11.999149659093725 -93.871029258329415 97.193223621283551 -1 0 0 0 -0.50000000669873634 0.8660253999169214 forward_v I I I I #
face $-1 $126 $127 $43 $-1 $128 forward single #
loop $-1 $129 $130 $55 #
cone-surface $-1 3.4283284740267703 -21.85555535469544 8.3937505431184203 0 0.50000000669873634 -0.8660253999169214 1 0 0 1 I I 0 1 1 forward I I I I #
face $-1 $131 $132 $44 $-1 $133 forward single #
loop $-1 $134 $135 $56 #
cone-surface $-1 8.57082118506694 -21.85555535469544 8.3937505431184203 0 0.50000000669873634 -0.8660253999169214 1 0 0 1 I I 0 1 1 forward I I I I #
face $-1 $136 $137 $45 $-1 $138 reversed single #
loop $-1 $-1 $139 $57 #
plane-surface $-1 30.706926270534233 -6.6837126746680156 65.044993494294886 0 0.80901700255871778 0.5877852410284794 1 0 0 forward_v I I I I #
face $-1 $140 $141 $46 $-1 $142 forward single #
loop $-1 $143 $144 $58 #
cone-surface $-1 29.113416310666416 31.490542825976341 10.173789739008885 0 -0.80901700255871778 -0.5877852410284794 1 0 0 1 I I 0 1 1 forward I I I I #
face $-1 $145 $146 $47 $-1 $147 forward single #
loop $-1 $148 $149 $59 #
cone-surface $-1 32.300436230402049 31.490542825976341 10.173789739008885 0 -0.80901700255871778 -0.5877852410284794 1 0 0 1 I I 0 1 1 forward I I I I #
face $-1 $150 $151 $36 $-1 $152 reversed single #
loop $-1 $-1 $153 $60 #
plane-surface $-1 0 0 -18.507978912796467 0 0 1 1 0 0 forward_v I I I I #
coedge $-1 $154 $155 $156 $157 forward $61 $-1 #
face $-1 $158 $159 $37 $-1 $160 reversed single #
loop $-1 $-1 $161 $63 #
plane-surface $-1 -45.113800191781905 0 -3.4314412611995655 0 0 1 1 0 0 forward_v I I I I #
coedge $-1 $162 $163 $164 $165 forward $64 $-1 #
face $-1 $166 $167 $38 $-1 $168 reversed single #
loop $-1 $-1 $169 $66 #
plane-surface $-1 45.113800191781912 0 -3.4314412611995655 0 0 1 1 0 0 forward_v I I I I #
coedge $-1 $170 $171 $172 $173 reversed $67 $-1 #
face $-1 $174 $175 $39 $-1 $176 reversed single #
loop $-1 $-1 $177 $69 #
plane-surface $-1 -5.9995748295468729 -38.068544304045815 0.54048621840306055 0 -0.50000000669873634 0.8660253999169214 1 0 0 forward_v I I I I #
coedge $-1 $178 $179 $180 $181 reversed $70 $-1 #
face $-1 $-1 $182 $40 $-1 $183 forward single #
loop $-1 $184 $185 $72 #
cone-surface $-1 -8.5708211850669613 -20.952871239693341 6.8302558206786053 0 0.50000000669873634 -0.8660253999169214 0.5 0 0 1 I I -0.70710678118654746 0.70710678118654746 0.5 forward I I I I #
loop $-1 $-1 $186 $52 #
coedge $-1 $116 $116 $187 $188 reversed $73 $-1 #
face $-1 $-1 $189 $41 $-1 $190 forward single #
loop $-1 $191 $192 $75 #
cone-surface $-1 -3.4283284740267916 -20.952871239693341 6.8302558206786053 0 0.50000000669873634 -0.8660253999169214 0.5 0 0 1 I I -0.70710678118654746 0.70710678118654746 0.5 forward I I I I #
loop $-1 $-1 $193 $53 #
coedge $-1 $121 $121 $194 $195 reversed $76 $-1 #
face $-1 $196 $197 $42 $-1 $198 reversed single #
loop $-1 $-1 $199 $78 #
plane-surface $-1 -5.9995748295468729 -38.068544304045815 0.54048621840306055 0 -0.50000000669873634 0.8660253999169214 1 0 0 forward_v I I I I #
coedge $-1 $200 $201 $202 $203 reversed $79 $-1 #
face $-1 $-1 $204 $43 $-1 $205 forward single #
loop $-1 $206 $207 $81 #
cone-surface $-1 3.4283284740267703 -20.952871239693341 6.8302558206786053 0 0.50000000669873634 -0.8660253999169214 0.5 0 0 1 I I -0.70710678118654746 0.70710678118654746 0.5 forward I I I I #
loop $-1 $-1 $208 $55 #
coedge $-1 $130 $130 $209 $210 reversed $82 $-1 #
face $-1 $-1 $211 $44 $-1 $212 forward single #
loop $-1 $213 $214 $84 #
cone-surface $-1 8.57082118506694 -20.952871239693341 6.8302558206786053 0 0.50000000669873634 -0.8660253999169214 0.5 0 0 1 I I -0.70710678118654746 0.70710678118654746 0.5 forward I I I I #
loop $-1 $-1 $215 $56 #
coedge $-1 $135 $135 $216 $217 reversed $85 $-1 #
face $-1 $218 $219 $45 $-1 $220 forward single #
loop $-1 $-1 $221 $87 #
plane-surface $-1 26.988736364175999 83.60660434175486 130.64474675310734 1 0 0 0 -0.80901700255871778 -0.5877852410284794 forward_v I I I I #
coedge $-1 $222 $223 $224 $225 reversed $88 $-1 #
face $-1 $-1 $226 $46 $-1 $227 forward single #
loop $-1 $228 $229 $90 #
cone-surface $-1 29.113416310666416 29.978601721032703 9.075300258590751 0 -0.80901700255871778 -0.5877852410284794 0.5 0 0 1 I I -0.70710678118654746 0.70710678118654746 0.5 forward I I I I #
loop $-1 $-1 $230 $58 #
coedge $-1 $144 $144 $231 $232 reversed $91 $-1 #
face $-1 $-1 $233 $47 $-1 $234 forward single #
loop $-1 $235 $236 $93 #
cone-surface $-1 32.300436230402049 29.978601721032703 9.075300258590751 0 -0.80901700255871778 -0.5877852410284794 0.5 0 0 1 I I -0.70710678118654746 0.70710678118654746 0.5 forward I I I I #
loop $-1 $-1 $237 $59 #
coedge $-1 $149 $149 $238 $239 reversed $94 $-1 #
face $-1 $240 $241 $36 $-1 $242 reversed single #
loop $-1 $-1 $243 $96 #
plane-surface $-1 0 -38.068544304045815 0 0 1 0 0 0 1 forward_v I I I I #
coedge $-1 $244 $245 $246 $247 forward $97 $-1 #
coedge $-1 $248 $99 $249 $250 forward $61 $-1 #
coedge $-1 $99 $248 $251 $252 forward $61 $-1 #
coedge $-1 $253 $254 $99 $157 reversed $255 $-1 #
edge $-1 $256 -38.068544304045815 $257 38.068544304045815 $156 $258 forward 7 unknown #
face $-1 $259 $260 $37 $-1 $261 reversed single #
loop $-1 $-1 $262 $100 #
plane-surface $-1 -34.425116176892466 0 0.097371210424199717 -1 0 0 0 0 1 forward_v I I I I #
coedge $-1 $263 $264 $265 $266 forward $101 $-1 #
coedge $-1 $267 $103 $268 $269 reversed $64 $-1 #
coedge $-1 $103 $267 $270 $271 reversed $64 $-1 #
coedge $-1 $262 $272 $103 $165 reversed $159 $-1 #
edge $-1 $273 -38.068544304045815 $274 38.068544304045815 $164 $275 forward 7 unknown #
face $-1 $276 $277 $38 $-1 $278 reversed single #
loop $-1 $-1 $279 $104 #
plane-surface $-1 34.425116176892473 0 0.097371210424199717 1 0 0 0 0 -1 forward_v I I I I #
coedge $-1 $280 $281 $282 $283 reversed $105 $-1 #
coedge $-1 $284 $107 $285 $286 reversed $67 $-1 #
coedge $-1 $107 $284 $287 $288 reversed $67 $-1 #
coedge $-1 $289 $290 $107 $173 forward $291 $-1 #
edge $-1 $292 -38.068544304045815 $293 38.068544304045815 $172 $294 forward 7 unknown #
face $-1 $295 $296 $39 $-1 $297 forward single #
loop $-1 $-1 $298 $108 #
plane-surface $-1 -7.1054273576010019e-015 -93.871029258329415 97.193223621283551 -1 0 0 0 -0.50000000669873634 0.8660253999169214 forward_v I I I I #
coedge $-1 $299 $300 $301 $302 reversed $109 $-1 #
coedge $-1 $179 $111 $303 $304 reversed $70 $-1 #
coedge $-1 $111 $178 $299 $305 reversed $70 $-1 #
coedge $-1 $301 $306 $111 $181 forward $307 $-1 #
edge $-1 $308 30.088632897845308 $309 48.056125592238715 $180 $310 forward 7 unknown #
loop $-1 $-1 $187 $112 #
plane-surface $-1 -5.9995748295468729 -38.068544304045815 0.54048621840306055 0 -0.50000000669873634 0.8660253999169214 1 0 0 forward_v I I I I #
loop $-1 $-1 $311 $72 #
coedge $-1 $185 $185 $186 $312 reversed $113 $-1 #
coedge $-1 $186 $186 $185 $312 forward $115 $-1 #
coedge $-1 $187 $187 $116 $188 forward $182 $-1 #
edge $-1 $313 -8.2440997935021322e-016 $313 6.2831853071795996 $187 $314 forward 7 unknown #
loop $-1 $-1 $194 $117 #
plane-surface $-1 -5.9995748295468729 -38.068544304045815 0.54048621840306055 0 -0.50000000669873634 0.8660253999169214 1 0 0 forward_v I I I I #
loop $-1 $-1 $315 $75 #
coedge $-1 $192 $192 $193 $316 reversed $118 $-1 #
coedge $-1 $193 $193 $192 $316 forward $120 $-1 #
coedge $-1 $194 $194 $121 $195 forward $189 $-1 #
edge $-1 $317 -8.2440997935021322e-016 $317 6.2831853071795996 $194 $318 forward 7 unknown #
face $-1 $319 $320 $42 $-1 $321 forward single #
loop $-1 $-1 $322 $122 #
plane-surface $-1 0 -38.068544304045815 0 0 1 0 0 0 1 forward_v I I I I #
coedge $-1 $323 $324 $325 $326 reversed $123 $-1 #
coedge $-1 $201 $125 $327 $328 reversed $79 $-1 #
coedge $-1 $125 $200 $329 $330 reversed $79 $-1 #
coedge $-1 $331 $322 $125 $203 forward $197 $-1 #
edge $-1 $332 -48.056125592238715 $333 -30.088632897845308 $202 $334 forward 7 unknown #
loop $-1 $-1 $209 $126 #
plane-surface $-1 -5.9995748295468729 -38.068544304045815 0.54048621840306055 0 -0.50000000669873634 0.8660253999169214 1 0 0 forward_v I I I I #
loop $-1 $-1 $335 $81 #
coedge $-1 $207 $207 $208 $336 reversed $127 $-1 #
coedge $-1 $208 $208 $207 $336 forward $129 $-1 #
coedge $-1 $209 $209 $130 $210 forward $204 $-1 #
edge $-1 $337 -8.2440997935021322e-016 $337 6.2831853071795996 $209 $338 forward 7 unknown #
loop $-1 $-1 $216 $131 #
plane-surface $-1 -5.9995748295468729 -38.068544304045815 0.54048621840306055 0 -0.50000000669873634 0.8660253999169214 1 0 0 forward_v I I I I #
loop $-1 $-1 $339 $84 #
coedge $-1 $214 $214 $215 $340 reversed $132 $-1 #
coedge $-1 $215 $215 $214 $340 forward $134 $-1 #
coedge $-1 $216 $216 $135 $217 forward $211 $-1 #
edge $-1 $341 -8.2440997935021322e-016 $341 6.2831853071795996 $216 $342 forward 7 unknown #
face $-1 $343 $344 $45 $-1 $345 reversed single #
loop $-1 $-1 $346 $136 #
plane-surface $-1 34.425116176892473 0 0.097371210424199717 1 0 0 0 0 -1 forward_v I I I I #
coedge $-1 $347 $348 $349 $350 reversed $137 $-1 #
coedge $-1 $351 $139 $346 $352 reversed $88 $-1 #
coedge $-1 $139 $351 $347 $353 forward $88 $-1 #
coedge $-1 $349 $354 $139 $225 forward $344 $-1 #
edge $-1 $355 -19.071653041625357 $356 -11.635273228908883 $224 $357 forward 7 unknown #
loop $-1 $-1 $231 $140 #
plane-surface $-1 30.706926270534233 -6.6837126746680156 65.044993494294886 0 0.80901700255871778 0.5877852410284794 1 0 0 forward_v I I I I #
loop $-1 $-1 $358 $90 #
coedge $-1 $229 $229 $230 $359 reversed $141 $-1 #
coedge $-1 $230 $230 $229 $359 forward $143 $-1 #
coedge $-1 $231 $231 $144 $232 forward $226 $-1 #
edge $-1 $360 1.5719462107472167e-015 $360 6.2831853071796022 $231 $361 forward 7 unknown #
loop $-1 $-1 $238 $145 #
plane-surface $-1 30.706926270534233 -6.6837126746680156 65.044993494294886 0 0.80901700255871778 0.5877852410284794 1 0 0 forward_v I I I I #
loop $-1 $-1 $362 $93 #
coedge $-1 $236 $236 $237 $363 reversed $146 $-1 #
coedge $-1 $237 $237 $236 $363 forward $148 $-1 #
coedge $-1 $238 $238 $149 $239 forward $233 $-1 #
edge $-1 $364 1.5719462107472167e-015 $364 6.2831853071796022 $238 $365 forward 7 unknown #
face $-1 $366 $367 $36 $-1 $368 reversed single #
loop $-1 $-1 $369 $150 #
plane-surface $-1 -55.802484206671345 0 0 1 0 0 0 0 -1 forward_v I I I I #
coedge $-1 $370 $251 $371 $372 forward $151 $-1 #
coedge $-1 $373 $153 $370 $374 forward $97 $-1 #
coedge $-1 $153 $373 $375 $376 forward $97 $-1 #
coedge $-1 $254 $253 $153 $247 reversed $255 $-1 #
edge $-1 $377 -38.068544304045815 $378 38.068544304045815 $246 $379 forward 7 unknown #
coedge $-1 $155 $154 $380 $381 forward $61 $-1 #
coedge $-1 $382 $383 $154 $250 reversed $367 $-1 #
edge $-1 $257 -55.802484206671345 $384 55.802484206671345 $249 $385 forward 7 unknown #
coedge $-1 $243 $386 $155 $252 reversed $151 $-1 #
edge $-1 $387 -55.802484206671345 $256 55.802484206671345 $251 $388 forward 7 unknown #
coedge $-1 $246 $156 $386 $389 forward $255 $-1 #
coedge $-1 $156 $246 $382 $390 reversed $255 $-1 #
loop $-1 $-1 $253 $366 #
vertex $-1 $157 $391 #
vertex $-1 $157 $392 #
straight-curve $-1 55.802484206671345 0 18.507978912796467 0 1 0 I I #
face $-1 $393 $394 $37 $-1 $395 reversed single #
loop $-1 $-1 $396 $158 #
plane-surface $-1 0 -38.068544304045815 0 0 1 0 0 0 1 forward_v I I I I #
coedge $-1 $265 $164 $397 $398 reversed $159 $-1 #
coedge $-1 $399 $161 $396 $400 reversed $101 $-1 #
coedge $-1 $161 $399 $401 $402 reversed $101 $-1 #
coedge $-1 $272 $262 $161 $266 reversed $159 $-1 #
edge $-1 $403 -38.068544304045815 $404 38.068544304045815 $265 $405 forward 7 unknown #
coedge $-1 $163 $162 $406 $407 reversed $64 $-1 #
coedge $-1 $408 $409 $162 $269 forward $410 $-1 #
edge $-1 $411 -33.245584110780392 $274 -11.868216081001513 $268 $412 forward 7 unknown #
coedge $-1 $413 $397 $163 $271 forward $260 $-1 #
edge $-1 $273 11.868216081001513 $414 33.245584110780392 $270 $415 forward 7 unknown #
coedge $-1 $164 $265 $408 $416 reversed $159 $-1 #
vertex $-1 $271 $417 #
vertex $-1 $269 $418 #
straight-curve $-1 -34.425116176892466 0 3.6261836820479649 0 1 0 I I #
face $-1 $419 $420 $38 $-1 $421 reversed single #
loop $-1 $-1 $287 $166 #
plane-surface $-1 0 -38.068544304045815 0 0 1 0 0 0 1 forward_v I I I I #
coedge $-1 $422 $423 $424 $425 reversed $167 $-1 #
coedge $-1 $426 $169 $427 $428 reversed $105 $-1 #
coedge $-1 $169 $426 $429 $430 reversed $105 $-1 #
coedge $-1 $290 $289 $169 $283 forward $291 $-1 #
edge $-1 $431 -38.068544304045815 $432 38.068544304045815 $282 $433 forward 7 unknown #
coedge $-1 $171 $170 $423 $434 forward $67 $-1 #
coedge $-1 $435 $424 $170 $286 forward $420 $-1 #
edge $-1 $436 11.868216081001517 $292 33.245584110780399 $285 $437 forward 7 unknown #
coedge $-1 $438 $439 $171 $288 forward $277 $-1 #
edge $-1 $293 -33.245584110780399 $440 -11.868216081001517 $287 $441 forward 7 unknown #
coedge $-1 $282 $172 $439 $442 forward $291 $-1 #
coedge $-1 $172 $282 $435 $443 reversed $291 $-1 #
loop $-1 $-1 $172 $419 #
vertex $-1 $443 $444 #
vertex $-1 $442 $445 #
straight-curve $-1 55.802484206671345 0 3.6261836820479649 0 -1 0 I I #
face $-1 $-1 $307 $39 $-1 $446 reversed single #
loop $-1 $-1 $447 $174 #
plane-surface $-1 0 0 18.507978912796467 0 0 1 1 0 0 forward_v I I I I #
coedge $-1 $448 $449 $450 $451 reversed $175 $-1 #
coedge $-1 $452 $177 $179 $305 forward $109 $-1 #
coedge $-1 $177 $452 $448 $453 forward $109 $-1 #
coedge $-1 $450 $180 $177 $302 forward $307 $-1 #
edge $-1 $309 -8.9993622443203023 $454 2.9997874147734294 $301 $455 forward 7 unknown #
coedge $-1 $456 $457 $178 $304 forward $296 $-1 #
edge $-1 $458 -39.9875800005142 $308 -8.866970325118892 $303 $459 forward 7 unknown #
edge $-1 $309 0 $458 35.934984907348834 $179 $460 forward 7 unknown #
coedge $-1 $180 $450 $456 $461 reversed $307 $-1 #
loop $-1 $-1 $450 $295 #
vertex $-1 $461 $462 #
vertex $-1 $181 $463 #
straight-curve $-1 -11.999149659093739 -38.068544304045815 48.596611810641775 0 0 -1 I I #
coedge $-1 $311 $311 $-1 $464 reversed $184 $-1 #
edge $-1 $465 0 $465 6.2831853071796004 $185 $466 forward 7 unknown #
vertex $-1 $188 $467 #
ellipse-curve $-1 -8.5708211850669613 -22.508239466348165 9.5242325655997622 0 -0.50000000669873634 0.8660253999169214 1 0 0 1 I I #
coedge $-1 $315 $315 $-1 $468 reversed $191 $-1 #
edge $-1 $469 0 $469 6.2831853071796004 $192 $470 forward 7 unknown #
vertex $-1 $195 $471 #
ellipse-curve $-1 -3.4283284740267916 -22.508239466348165 9.5242325655997622 0 -0.50000000669873634 0.8660253999169214 1 0 0 1 I I #
face $-1 $-1 $472 $42 $-1 $473 forward single #
loop $-1 $-1 $474 $196 #
plane-surface $-1 -7.1054273576010019e-015 -93.871029258329415 97.193223621283551 -1 0 0 0 -0.50000000669873634 0.8660253999169214 forward_v I I I I #
coedge $-1 $202 $475 $324 $476 forward $197 $-1 #
coedge $-1 $327 $199 $477 $478 reversed $123 $-1 #
coedge $-1 $199 $327 $322 $476 reversed $123 $-1 #
coedge $-1 $474 $479 $199 $326 forward $320 $-1 #
edge $-1 $480 -35.934984907348834 $481 0 $325 $482 forward 7 unknown #
coedge $-1 $324 $323 $200 $328 forward $123 $-1 #
edge $-1 $483 -35.934984907348834 $332 0 $200 $484 forward 7 unknown #
coedge $-1 $477 $485 $201 $330 forward $472 $-1 #
edge $-1 $333 8.866970325118892 $483 39.9875800005142 $329 $486 forward 7 unknown #
coedge $-1 $475 $202 $485 $487 reversed $197 $-1 #
vertex $-1 $203 $488 #
vertex $-1 $330 $489 #
straight-curve $-1 11.999149659093725 -38.068544304045815 48.596611810641775 0 0 1 I I #
coedge $-1 $335 $335 $-1 $490 reversed $206 $-1 #
edge $-1 $491 0 $491 6.2831853071796004 $207 $492 forward 7 unknown #
vertex $-1 $210 $493 #
ellipse-curve $-1 3.4283284740267703 -22.508239466348165 9.5242325655997622 0 -0.50000000669873634 0.8660253999169214 1 0 0 1 I I #
coedge $-1 $339 $339 $-1 $494 reversed $213 $-1 #
edge $-1 $495 0 $495 6.2831853071796004 $214 $496 forward 7 unknown #
vertex $-1 $217 $497 #
ellipse-curve $-1 8.57082118506694 -22.508239466348165 9.5242325655997622 0 -0.50000000669873634 0.8660253999169214 1 0 0 1 I I #
face $-1 $-1 $498 $45 $-1 $499 forward single #
loop $-1 $-1 $354 $218 #
plane-surface $-1 0 38.068544304045815 0 0 -1 0 0 0 -1 forward_v I I I I #
coedge $-1 $500 $501 $222 $352 forward $219 $-1 #
coedge $-1 $348 $221 $223 $353 reversed $137 $-1 #
coedge $-1 $221 $347 $502 $503 reversed $137 $-1 #
coedge $-1 $504 $224 $221 $350 forward $344 $-1 #
edge $-1 $356 -61.873579091524576 $505 -46.814394463757203 $349 $506 forward 7 unknown #
coedge $-1 $223 $222 $507 $508 reversed $88 $-1 #
edge $-1 $509 29.286753726317798 $355 47.900929423662788 $346 $510 forward 7 unknown #
edge $-1 $511 57.522912910746641 $356 76.137088608091631 $347 $512 forward 7 unknown #
coedge $-1 $224 $504 $500 $513 forward $344 $-1 #
vertex $-1 $352 $514 #
vertex $-1 $225 $515 #
straight-curve $-1 15.353463135267116 38.068544304045815 3.4487942850290985 -1 0 0 I I #
coedge $-1 $358 $358 $-1 $516 reversed $228 $-1 #
edge $-1 $517 0 $517 6.2831853071796004 $229 $518 forward 7 unknown #
vertex $-1 $232 $519 #
ellipse-curve $-1 29.113416310666416 32.597975429640627 10.978386598912786 0 0.80901700255871778 0.5877852410284794 1 0 0 1 I I #
coedge $-1 $362 $362 $-1 $520 reversed $235 $-1 #
edge $-1 $521 0 $521 6.2831853071796004 $236 $522 forward 7 unknown #
vertex $-1 $239 $523 #
ellipse-curve $-1 32.300436230402049 32.597975429640627 10.978386598912786 0 0.80901700255871778 0.5877852410284794 1 0 0 1 I I #
face $-1 $-1 $255 $36 $-1 $524 reversed single #
loop $-1 $-1 $382 $240 #
plane-surface $-1 0 38.068544304045815 0 0 -1 0 0 0 -1 forward_v I I I I #
coedge $-1 $525 $380 $383 $526 forward $241 $-1 #
coedge $-1 $386 $243 $244 $374 reversed $151 $-1 #
coedge $-1 $380 $525 $243 $372 reversed $241 $-1 #
edge $-1 $387 -18.507978912796467 $527 18.507978912796467 $371 $528 forward 7 unknown #
coedge $-1 $245 $244 $525 $529 forward $97 $-1 #
edge $-1 $378 -55.802484206671345 $527 55.802484206671345 $370 $530 forward 7 unknown #
coedge $-1 $383 $382 $245 $376 reversed $367 $-1 #
edge $-1 $531 -55.802484206671345 $377 55.802484206671345 $375 $532 forward 7 unknown #
vertex $-1 $247 $533 #
vertex $-1 $389 $534 #
straight-curve $-1 55.802484206671345 0 -18.507978912796467 0 -1 0 I I #
coedge $-1 $369 $371 $248 $381 reversed $241 $-1 #
edge $-1 $384 -38.068544304045815 $387 38.068544304045815 $380 $535 forward 7 unknown #
coedge $-1 $375 $249 $254 $390 forward $367 $-1 #
coedge $-1 $249 $375 $369 $526 reversed $367 $-1 #
vertex $-1 $250 $536 #
straight-curve $-1 0 38.068544304045815 18.507978912796467 -1 0 0 I I #
coedge $-1 $251 $370 $253 $389 reversed $151 $-1 #
vertex $-1 $381 $537 #
straight-curve $-1 0 -38.068544304045815 18.507978912796467 1 0 0 I I #
edge $-1 $256 -18.507978912796467 $378 18.507978912796467 $253 $538 forward 7 unknown #
edge $-1 $257 -18.507978912796467 $377 18.507978912796467 $254 $539 forward 7 unknown #
point $-1 55.802484206671345 -38.068544304045815 18.507978912796467 #
point $-1 55.802484206671345 38.068544304045815 18.507978912796467 #
face $-1 $-1 $410 $37 $-1 $540 reversed single #
loop $-1 $-1 $541 $259 #
plane-surface $-1 -55.802484206671345 0 0 1 0 0 0 0 -1 forward_v I I I I #
coedge $-1 $397 $413 $263 $400 forward $260 $-1 #
coedge $-1 $270 $396 $262 $398 forward $260 $-1 #
edge $-1 $404 -3.4801268664116654 $273 3.5774980768358651 $397 $542 forward 7 unknown #
coedge $-1 $264 $263 $541 $543 reversed $101 $-1 #
edge $-1 $544 -33.245584110780392 $404 -11.868216081001513 $396 $545 forward 7 unknown #
coedge $-1 $409 $408 $264 $402 forward $410 $-1 #
edge $-1 $403 11.868216081001513 $546 33.245584110780392 $401 $547 forward 7 unknown #
vertex $-1 $402 $548 #
vertex $-1 $400 $549 #
straight-curve $-1 -34.425116176892466 0 -3.4314412611995655 0 -1 0 I I #
coedge $-1 $550 $551 $267 $407 forward $394 $-1 #
edge $-1 $414 -38.068544304045815 $411 38.068544304045815 $406 $552 forward 7 unknown #
coedge $-1 $401 $268 $272 $416 forward $410 $-1 #
coedge $-1 $268 $401 $550 $553 reversed $410 $-1 #
loop $-1 $-1 $401 $393 #
vertex $-1 $553 $554 #
straight-curve $-1 -22.556900095890953 38.068544304045815 3.6261836820479649 1 0 0 I I #
coedge $-1 $396 $270 $551 $555 forward $260 $-1 #
vertex $-1 $555 $556 #
straight-curve $-1 -22.556900095890953 -38.068544304045815 3.6261836820479649 -1 0 0 I I #
edge $-1 $274 -3.5774980768358651 $403 3.4801268664116654 $408 $557 forward 7 unknown #
point $-1 -34.425116176892466 -38.068544304045815 3.6261836820479649 #
point $-1 -34.425116176892466 38.068544304045815 3.6261836820479649 #
face $-1 $-1 $291 $38 $-1 $558 reversed single #
loop $-1 $-1 $285 $276 #
plane-surface $-1 0 38.068544304045815 0 0 -1 0 0 0 -1 forward_v I I I I #
coedge $-1 $559 $279 $426 $560 reversed $167 $-1 #
coedge $-1 $279 $559 $284 $434 reversed $167 $-1 #
coedge $-1 $285 $429 $279 $425 forward $420 $-1 #
edge $-1 $561 -3.4801268664116654 $436 3.5774980768358651 $424 $562 forward 7 unknown #
coedge $-1 $281 $280 $422 $560 forward $105 $-1 #
coedge $-1 $439 $438 $280 $428 forward $277 $-1 #
edge $-1 $563 11.868216081001517 $431 33.245584110780399 $427 $564 forward 7 unknown #
coedge $-1 $424 $435 $281 $430 forward $420 $-1 #
edge $-1 $432 -33.245584110780399 $561 -11.868216081001517 $429 $565 forward 7 unknown #
vertex $-1 $283 $566 #
vertex $-1 $283 $567 #
straight-curve $-1 55.802484206671345 0 -3.4314412611995655 0 1 0 I I #
edge $-1 $436 -38.068544304045815 $440 38.068544304045815 $423 $568 forward 7 unknown #
coedge $-1 $429 $285 $290 $443 forward $420 $-1 #
vertex $-1 $286 $569 #
straight-curve $-1 22.556900095890956 38.068544304045815 3.6261836820479649 1 0 0 I I #
coedge $-1 $427 $287 $559 $570 forward $277 $-1 #
coedge $-1 $287 $427 $289 $442 reversed $277 $-1 #
vertex $-1 $288 $571 #
straight-curve $-1 22.556900095890956 -38.068544304045815 3.6261836820479649 -1 0 0 I I #
edge $-1 $293 -3.6261836820479649 $431 3.4314412611995655 $289 $572 forward 7 unknown #
edge $-1 $292 -3.6261836820479649 $432 3.4314412611995655 $290 $573 forward 7 unknown #
point $-1 55.802484206671352 38.068544304045815 3.6261836820479649 #
point $-1 55.802484206671352 -38.068544304045815 3.6261836820479649 #
plane-surface $-1 0 -38.068544304045815 0 0 1 0 0 0 1 forward_v I I I I #
coedge $-1 $457 $456 $449 $574 forward $296 $-1 #
coedge $-1 $449 $298 $300 $453 reversed $175 $-1 #
coedge $-1 $298 $448 $447 $574 reversed $175 $-1 #
coedge $-1 $306 $301 $298 $451 forward $307 $-1 #
edge $-1 $454 -48.056125592238715 $575 -30.088632897845308 $450 $576 forward 7 unknown #
coedge $-1 $300 $299 $457 $577 reversed $109 $-1 #
edge $-1 $578 -35.934984907348834 $454 0 $448 $579 forward 7 unknown #
vertex $-1 $302 $580 #
straight-curve $-1 -2.9997874147734365 -38.068544304045815 0.54048621840306166 1 0 0 I I #
coedge $-1 $447 $303 $306 $461 forward $296 $-1 #
coedge $-1 $303 $447 $452 $577 forward $296 $-1 #
vertex $-1 $304 $581 #
straight-curve $-1 -11.999149659093739 -46.935514629164707 18.507978912796467 0 -1 0 I I #
straight-curve $-1 -11.999149659093739 -38.068544304045815 0.54048621840306055 0 0.8660253999169214 0.50000000669873634 I I #
edge $-1 $308 -11.999149659093739 $575 -7.1054273576010019e-015 $306 $582 forward 7 unknown #
point $-1 -11.999149659093739 -38.068544304045815 18.507978912796467 #
point $-1 -11.999149659093739 -38.068544304045815 0.54048621840306055 #
edge $-1 $583 1 $583 0 $311 $-1 forward 7 unknown #
vertex $-1 $312 $584 #
ellipse-curve $-1 -8.5708211850669613 -21.202871243042708 7.263268520637066 0 -0.50000000669873634 0.8660253999169214 1 0 0 1 I I #
point $-1 -7.5708211850669613 -22.508239466348172 9.5242325655997728 #
edge $-1 $585 1 $585 0 $315 $-1 forward 7 unknown #
vertex $-1 $316 $586 #
ellipse-curve $-1 -3.4283284740267916 -21.202871243042708 7.263268520637066 0 -0.50000000669873634 0.8660253999169214 1 0 0 1 I I #
point $-1 -2.4283284740267916 -22.508239466348172 9.5242325655997728 #
loop $-1 $-1 $477 $319 #
plane-surface $-1 0 0 18.507978912796467 0 0 1 1 0 0 forward_v I I I I #
coedge $-1 $479 $325 $475 $587 reversed $320 $-1 #
coedge $-1 $322 $331 $474 $587 forward $197 $-1 #
edge $-1 $481 2.9997874147734294 $332 14.998937073867161 $322 $588 forward 7 unknown #
coedge $-1 $589 $329 $323 $478 forward $472 $-1 #
edge $-1 $483 -14.998937073867161 $480 -2.9997874147734294 $477 $590 forward 7 unknown #
coedge $-1 $325 $474 $589 $591 reversed $320 $-1 #
vertex $-1 $478 $592 #
vertex $-1 $476 $593 #
straight-curve $-1 -7.1054273576010019e-015 -38.068544304045815 0.54048621840306055 0 -0.8660253999169214 -0.50000000669873634 I I #
vertex $-1 $330 $594 #
straight-curve $-1 11.999149659093725 -38.068544304045815 0.54048621840306055 0 -0.8660253999169214 -0.50000000669873634 I I #
coedge $-1 $329 $589 $331 $487 forward $472 $-1 #
straight-curve $-1 11.999149659093725 -46.935514629164707 18.507978912796467 0 1 0 I I #
edge $-1 $595 -7.1054273576010019e-015 $333 11.999149659093725 $331 $596 forward 7 unknown #
point $-1 11.999149659093725 -38.068544304045815 0.54048621840306055 #
point $-1 11.999149659093725 -38.068544304045815 18.507978912796467 #
edge $-1 $597 1 $597 0 $335 $-1 forward 7 unknown #
vertex $-1 $336 $598 #
ellipse-curve $-1 3.4283284740267703 -21.202871243042708 7.263268520637066 0 -0.50000000669873634 0.8660253999169214 1 0 0 1 I I #
point $-1 4.4283284740267703 -22.508239466348172 9.5242325655997728 #
edge $-1 $599 1 $599 0 $339 $-1 forward 7 unknown #
vertex $-1 $340 $600 #
ellipse-curve $-1 8.57082118506694 -21.202871243042708 7.263268520637066 0 -0.50000000669873634 0.8660253999169214 1 0 0 1 I I #
point $-1 9.57082118506694 -22.508239466348172 9.5242325655997728 #
loop $-1 $-1 $601 $343 #
plane-surface $-1 0 0 18.507978912796467 0 0 1 1 0 0 forward_v I I I I #
coedge $-1 $501 $346 $354 $513 reversed $219 $-1 #
coedge $-1 $346 $500 $601 $602 reversed $219 $-1 #
coedge $-1 $507 $603 $348 $503 forward $498 $-1 #
edge $-1 $505 3.7347578668316146 $511 14.675895615641998 $502 $604 forward 7 unknown #
coedge $-1 $354 $349 $603 $605 reversed $344 $-1 #
vertex $-1 $503 $606 #
straight-curve $-1 26.988736364175999 38.068544304045815 65.322373376553671 0 0 1 I I #
coedge $-1 $601 $502 $351 $508 forward $498 $-1 #
edge $-1 $511 11.635273228908883 $509 19.07165304162535 $507 $607 forward 7 unknown #
vertex $-1 $602 $608 #
straight-curve $-1 34.425116176892473 9.913084957270005 42.20146062713745 0 0.5877852410284794 -0.80901700255871778 I I #
vertex $-1 $508 $609 #
straight-curve $-1 26.988736364175999 -6.6837126746680156 65.044993494294886 0 0.5877852410284794 -0.80901700255871778 I I #
edge $-1 $610 46.814394463757203 $355 61.873579091524576 $354 $611 forward 7 unknown #
point $-1 34.425116176892473 38.068544304045815 3.4487942850290958 #
point $-1 26.988736364175999 38.068544304045815 3.4487942850290949 #
edge $-1 $612 1 $612 0 $358 $-1 forward 7 unknown #
vertex $-1 $359 $613 #
ellipse-curve $-1 29.113416310666416 30.383110222312062 9.3691928791049914 0 0.80901700255871778 0.5877852410284794 1 0 0 1 I I #
point $-1 30.113416310666416 32.59797542964062 10.978386598912779 #
edge $-1 $614 1 $614 0 $362 $-1 forward 7 unknown #
vertex $-1 $363 $615 #
ellipse-curve $-1 32.300436230402049 30.383110222312062 9.3691928791049914 0 0.80901700255871778 0.5877852410284794 1 0 0 1 I I #
point $-1 33.300436230402049 32.59797542964062 10.978386598912779 #
plane-surface $-1 55.802484206671345 0 0 -1 0 0 0 0 1 forward_v I I I I #
coedge $-1 $371 $369 $373 $529 reversed $241 $-1 #
edge $-1 $384 -18.507978912796467 $531 18.507978912796467 $383 $616 forward 7 unknown #
vertex $-1 $529 $617 #
straight-curve $-1 -55.802484206671345 -38.068544304045815 0 0 0 -1 I I #
edge $-1 $527 -38.068544304045815 $531 38.068544304045815 $525 $618 forward 7 unknown #
straight-curve $-1 0 -38.068544304045815 -18.507978912796467 -1 0 0 I I #
vertex $-1 $376 $619 #
straight-curve $-1 0 38.068544304045815 -18.507978912796467 1 0 0 I I #
point $-1 55.802484206671345 38.068544304045815 -18.507978912796467 #
point $-1 55.802484206671345 -38.068544304045815 -18.507978912796467 #
straight-curve $-1 -55.802484206671345 0 18.507978912796467 0 -1 0 I I #
point $-1 -55.802484206671345 38.068544304045815 18.507978912796467 #
point $-1 -55.802484206671345 -38.068544304045815 18.507978912796467 #
straight-curve $-1 55.802484206671345 -38.068544304045815 0 0 0 -1 I I #
straight-curve $-1 55.802484206671345 38.068544304045815 0 0 0 -1 I I #
plane-surface $-1 0 38.068544304045815 0 0 -1 0 0 0 -1 forward_v I I I I #
coedge $-1 $551 $550 $399 $543 forward $394 $-1 #
straight-curve $-1 -34.425116176892466 -38.068544304045815 0.048685605212099858 0 0 1 I I #
edge $-1 $546 -38.068544304045815 $544 38.068544304045815 $541 $620 forward 7 unknown #
vertex $-1 $400 $621 #
straight-curve $-1 -22.556900095890953 -38.068544304045815 -3.4314412611995655 1 0 0 I I #
vertex $-1 $402 $622 #
straight-curve $-1 -22.556900095890953 38.068544304045815 -3.4314412611995655 -1 0 0 I I #
point $-1 -34.425116176892466 38.068544304045815 -3.4314412611995655 #
point $-1 -34.425116176892466 -38.068544304045815 -3.4314412611995655 #
coedge $-1 $541 $406 $409 $553 forward $394 $-1 #
coedge $-1 $406 $541 $413 $555 reversed $394 $-1 #
straight-curve $-1 -55.802484206671345 0 3.6261836820479649 0 1 0 I I #
edge $-1 $411 -3.6261836820479649 $546 3.4314412611995655 $409 $623 forward 7 unknown #
point $-1 -55.802484206671345 38.068544304045815 3.6261836820479649 #
edge $-1 $414 -3.6261836820479649 $544 3.4314412611995655 $551 $624 forward 7 unknown #
point $-1 -55.802484206671345 -38.068544304045815 3.6261836820479649 #
straight-curve $-1 -34.425116176892466 38.068544304045815 0.048685605212099858 0 0 -1 I I #
plane-surface $-1 55.802484206671345 0 0 -1 0 0 0 0 1 forward_v I I I I #
coedge $-1 $423 $422 $438 $570 reversed $167 $-1 #
edge $-1 $563 -38.068544304045815 $561 38.068544304045815 $422 $625 forward 7 unknown #
vertex $-1 $430 $626 #
straight-curve $-1 34.425116176892473 38.068544304045815 0.048685605212099858 0 0 1 I I #
vertex $-1 $428 $627 #
straight-curve $-1 22.556900095890956 -38.068544304045815 -3.4314412611995655 1 0 0 I I #
straight-curve $-1 22.556900095890956 38.068544304045815 -3.4314412611995655 -1 0 0 I I #
point $-1 55.802484206671352 -38.068544304045815 -3.4314412611995655 #
point $-1 55.802484206671352 38.068544304045815 -3.4314412611995655 #
straight-curve $-1 34.425116176892473 0 3.6261836820479649 0 -1 0 I I #
point $-1 34.425116176892473 38.068544304045815 3.6261836820479649 #
edge $-1 $440 -3.5774980768358651 $563 3.4801268664116654 $438 $628 forward 7 unknown #
point $-1 34.425116176892473 -38.068544304045815 3.6261836820479649 #
straight-curve $-1 55.802484206671345 -38.068544304045815 0 0 0 -1 I I #
straight-curve $-1 55.802484206671345 38.068544304045815 0 0 0 -1 I I #
edge $-1 $575 8.866970325118892 $578 39.9875800005142 $447 $629 forward 7 unknown #
vertex $-1 $574 $630 #
straight-curve $-1 -7.1054273576010019e-015 -38.068544304045815 48.596611810641775 0 0 1 I I #
edge $-1 $578 -2.9997874147734294 $458 8.9993622443203023 $457 $631 forward 7 unknown #
vertex $-1 $577 $632 #
straight-curve $-1 -7.1054273576010019e-015 -38.068544304045815 0.54048621840306055 0 -0.8660253999169214 -0.50000000669873634 I I #
point $-1 -7.1054273576010019e-015 -38.068544304045815 0.54048621840306055 #
point $-1 -11.999149659093739 -6.9479346286505077 18.507978912796467 #
straight-curve $-1 0 -38.068544304045815 18.507978912796467 1 0 0 I I #
vertex $-1 $464 $633 #
point $-1 -7.5708211850669613 -21.202871243042708 7.263268520637066 #
vertex $-1 $468 $634 #
point $-1 -2.4283284740267916 -21.202871243042708 7.263268520637066 #
edge $-1 $595 30.088632897845308 $481 48.056125592238715 $475 $635 forward 7 unknown #
straight-curve $-1 -2.9997874147734365 -38.068544304045815 0.54048621840306166 1 0 0 I I #
coedge $-1 $485 $477 $479 $591 forward $472 $-1 #
straight-curve $-1 -2.9997874147734365 -6.9479346286505059 18.507978912796467 -1 0 0 I I #
edge $-1 $480 -39.9875800005142 $595 -8.866970325118892 $589 $636 forward 7 unknown #
point $-1 -7.1054273576010019e-015 -6.9479346286505077 18.507978912796467 #
point $-1 -7.1054273576010019e-015 -38.068544304045815 0.54048621840306055 #
point $-1 11.999149659093725 -6.9479346286505077 18.507978912796467 #
vertex $-1 $487 $637 #
straight-curve $-1 0 -38.068544304045815 18.507978912796467 1 0 0 I I #
vertex $-1 $490 $638 #
point $-1 4.4283284740267703 -21.202871243042708 7.263268520637066 #
vertex $-1 $494 $639 #
point $-1 9.57082118506694 -21.202871243042708 7.263268520637066 #
coedge $-1 $603 $507 $501 $602 forward $498 $-1 #
edge $-1 $509 -14.675895615641998 $610 -3.7347578668316146 $601 $640 forward 7 unknown #
coedge $-1 $502 $601 $504 $605 forward $498 $-1 #
straight-curve $-1 26.988736364175999 41.80330217087743 18.507978912796467 0 -1 0 I I #
edge $-1 $610 -34.425116176892466 $505 -26.988736364175999 $504 $641 forward 7 unknown #
point $-1 26.988736364175999 38.068544304045815 18.507978912796467 #
straight-curve $-1 15.353463135267116 27.127406555235424 18.507978912796471 1 0 0 I I #
point $-1 34.425116176892466 27.127406555235432 18.507978912796467 #
point $-1 26.988736364175999 27.127406555235432 18.507978912796467 #
vertex $-1 $605 $642 #
straight-curve $-1 34.425116176892466 38.068544304045815 65.322373376553671 0 0 -1 I I #
vertex $-1 $516 $643 #
point $-1 30.113416310666416 30.383110222312062 9.3691928791049914 #
vertex $-1 $520 $644 #
point $-1 33.300436230402049 30.383110222312062 9.3691928791049914 #
straight-curve $-1 -55.802484206671345 38.068544304045815 0 0 0 -1 I I #
point $-1 -55.802484206671345 -38.068544304045815 -18.507978912796467 #
straight-curve $-1 -55.802484206671345 0 -18.507978912796467 0 1 0 I I #
point $-1 -55.802484206671345 38.068544304045815 -18.507978912796467 #
straight-curve $-1 -55.802484206671345 0 -3.4314412611995655 0 -1 0 I I #
point $-1 -55.802484206671345 -38.068544304045815 -3.4314412611995655 #
point $-1 -55.802484206671345 38.068544304045815 -3.4314412611995655 #
straight-curve $-1 -55.802484206671345 38.068544304045815 0 0 0 -1 I I #
straight-curve $-1 -55.802484206671345 -38.068544304045815 0 0 0 -1 I I #
straight-curve $-1 34.425116176892473 0 -3.4314412611995655 0 1 0 I I #
point $-1 34.425116176892473 38.068544304045815 -3.4314412611995655 #
point $-1 34.425116176892473 -38.068544304045815 -3.4314412611995655 #
straight-curve $-1 34.425116176892473 -38.068544304045815 0.048685605212099858 0 0 -1 I I #
straight-curve $-1 -7.1054273576010019e-015 -46.935514629164707 18.507978912796467 0 1 0 I I #
point $-1 -7.1054273576010019e-015 -38.068544304045815 18.507978912796467 #
straight-curve $-1 -2.9997874147734365 -6.9479346286505059 18.507978912796467 -1 0 0 I I #
point $-1 -7.1054273576010019e-015 -6.9479346286505077 18.507978912796467 #
point $-1 -8.5708211850669613 -20.702871236343974 6.3972431207201446 #
point $-1 -3.4283284740267916 -20.702871236343974 6.3972431207201446 #
straight-curve $-1 -7.1054273576010019e-015 -38.068544304045815 48.596611810641775 0 0 -1 I I #
straight-curve $-1 -7.1054273576010019e-015 -46.935514629164707 18.507978912796467 0 -1 0 I I #
point $-1 -7.1054273576010019e-015 -38.068544304045815 18.507978912796467 #
point $-1 3.4283284740267703 -20.702871236343974 6.3972431207201446 #
point $-1 8.57082118506694 -20.702871236343974 6.3972431207201446 #
straight-curve $-1 34.425116176892466 41.80330217087743 18.507978912796467 0 1 0 I I #
straight-curve $-1 0 38.068544304045815 18.507978912796467 -1 0 0 I I #
point $-1 34.425116176892466 38.068544304045815 18.507978912796467 #
point $-1 29.113416310666416 29.574093219753344 8.7814076380765105 #
point $-1 32.300436230402049 29.574093219753344 8.7814076380765105 #
End-of-ACIS-data 