500 0 6 0           
7 Unknown 11 ACIS 5.0 NT 24 Fri Mar 26 17:42:31 1999 
-1 9.9999999999999995e-007 1e-010 
body $-1 $6 $-1 $7 #
body $-1 $8 $-1 $9 #
body $-1 $10 $-1 $11 #
body $-1 $12 $-1 $13 #
body $-1 $14 $-1 $15 #
body $-1 $16 $-1 $17 #
lump $-1 $-1 $18 $0 #
transform $-1 1 0 0 0 1 0 0 0 1 77.452314828943756 43.676279113583 15.398864164787101 1 rotate no_reflect no_shear #
lump $-1 $-1 $19 $1 #
transform $-1 1 0 0 0 1 0 0 0 1 77.452314828943756 43.676279113583 15.398864164787101 1 rotate no_reflect no_shear #
lump $-1 $-1 $20 $2 #
transform $-1 1 0 0 0 1 0 0 0 1 77.452314828943756 43.676279113583 15.398864164787101 1 rotate no_reflect no_shear #
lump $-1 $-1 $21 $3 #
transform $-1 1 0 0 0 1 0 0 0 1 77.452314828943756 43.676279113583 15.398864164787101 1 rotate no_reflect no_shear #
lump $-1 $-1 $22 $4 #
transform $-1 1 0 0 0 1 0 0 0 1 77.452314828943756 43.676279113583 15.398864164787101 1 rotate no_reflect no_shear #
lump $-1 $-1 $23 $5 #
transform $-1 1 0 0 0 1 0 0 0 1 77.452314828943756 43.676279113583 15.398864164787101 1 rotate no_reflect no_shear #
shell $-1 $-1 $-1 $24 $-1 $6 #
shell $-1 $-1 $-1 $25 $-1 $8 #
shell $-1 $-1 $-1 $26 $-1 $10 #
shell $-1 $-1 $-1 $27 $-1 $12 #
shell $-1 $-1 $-1 $28 $-1 $14 #
shell $-1 $-1 $-1 $29 $-1 $16 #
face $-1 $30 $31 $18 $-1 $32 forward single #
face $-1 $33 $34 $19 $-1 $35 forward single #
face $-1 $36 $37 $20 $-1 $38 reversed single #
face $-1 $39 $40 $21 $-1 $41 forward single #
face $-1 $42 $43 $22 $-1 $44 reversed single #
face $-1 $45 $46 $23 $-1 $47 forward single #
face $-1 $48 $49 $18 $-1 $50 reversed single #
loop $-1 $-1 $51 $24 #
plane-surface $-1 0 0 15.398864164787101 0 0 1 1 0 0 forward_v I I I I #
face $-1 $52 $53 $19 $-1 $54 reversed single #
loop $-1 $-1 $55 $25 #
plane-surface $-1 0 -43.676279113583 0 0 1 0 0 0 1 forward_v I I I I #
face $-1 $56 $57 $20 $-1 $58 reversed single #
loop $-1 $-1 $59 $26 #
plane-surface $-1 -185.05811370777758 -2.5651793193240238 117.50381512704389 0 1 0 -0.69465837861970381 0 0.71933979245794832 forward_v I I I I #
face $-1 $60 $61 $21 $-1 $62 forward single #
loop $-1 $63 $64 $27 #
cone-surface $-1 -71.347482027882009 1.7143113543797242 9.4142987176835167 0.69465837861970381 0 -0.71933979245794832 1.0790096886869225 0 1.0419875679295556 1 I I 0 1 1.5 forward I I I I #
face $-1 $65 $66 $22 $-1 $67 reversed single #
loop $-1 $-1 $68 $28 #
plane-surface $-1 73.629049558897421 5.9938020280834721 225.10961400587772 0 -1 0 -0.69465837861970381 0 -0.71933979245794832 forward_v I I I I #
face $-1 $69 $70 $23 $-1 $71 forward single #
loop $-1 $72 $73 $29 #
cone-surface $-1 71.347482027882023 1.7143113543797242 9.4142987176835309 -0.69465837861970381 0 -0.71933979245794832 1.0790096886869225 0 -1.0419875679295556 1 I I 0 1 1.5 forward I I I I #
face $-1 $74 $75 $18 $-1 $76 reversed single #
loop $-1 $-1 $77 $30 #
plane-surface $-1 0 0 -15.398864164787101 0 0 1 1 0 0 forward_v I I I I #
coedge $-1 $78 $79 $80 $81 forward $31 $-1 #
face $-1 $82 $83 $19 $-1 $84 reversed single #
loop $-1 $-1 $85 $33 #
plane-surface $-1 0 0 -15.398864164787101 0 0 1 1 0 0 forward_v I I I I #
coedge $-1 $86 $87 $88 $89 forward $34 $-1 #
face $-1 $90 $91 $20 $-1 $92 reversed single #
loop $-1 $-1 $93 $36 #
plane-surface $-1 -77.452314828943756 1.7143113543797242 6.074750978163749 -0.69465837861970381 0 0.71933979245794832 0.71933979245794832 0 0.69465837861970381 forward_v I I I I #
coedge $-1 $94 $95 $96 $97 reversed $37 $-1 #
face $-1 $-1 $98 $21 $-1 $99 forward single #
loop $-1 $100 $101 $39 #
cone-surface $-1 -69.549356260232344 1.7143113543797242 7.552285019548135 0.69465837861970381 0 -0.71933979245794832 0.53950484434346124 0 0.5209937839647778 1 I I -0.70710678118654757 0.70710678118654757 0.75 forward I I I I #
loop $-1 $-1 $102 $27 #
coedge $-1 $64 $64 $103 $104 reversed $40 $-1 #
face $-1 $105 $106 $22 $-1 $107 reversed single #
loop $-1 $-1 $108 $42 #
plane-surface $-1 -33.976749319936403 1.7143113543797242 113.68054985699757 0.69465837861970381 0 0.71933979245794832 0.71933979245794832 0 -0.69465837861970381 forward_v I I I I #
coedge $-1 $109 $110 $111 $112 reversed $43 $-1 #
face $-1 $-1 $113 $23 $-1 $114 forward single #
loop $-1 $115 $116 $45 #
cone-surface $-1 69.549356260232358 1.7143113543797242 7.5522850195481492 -0.69465837861970381 0 -0.71933979245794832 0.53950484434346124 0 -0.5209937839647778 1 I I -0.70710678118654757 0.70710678118654757 0.75 forward I I I I #
loop $-1 $-1 $117 $29 #
coedge $-1 $73 $73 $118 $119 reversed $46 $-1 #
face $-1 $120 $121 $18 $-1 $122 reversed single #
loop $-1 $-1 $123 $48 #
plane-surface $-1 0 -43.676279113583 0 0 1 0 0 0 1 forward_v I I I I #
coedge $-1 $124 $125 $126 $127 forward $49 $-1 #
coedge $-1 $128 $51 $129 $130 forward $31 $-1 #
coedge $-1 $51 $128 $131 $132 forward $31 $-1 #
coedge $-1 $133 $134 $51 $81 reversed $135 $-1 #
edge $-1 $136 -43.676279113583 $137 43.676279113583 $80 $138 forward 7 unknown #
face $-1 $139 $140 $19 $-1 $141 forward single #
loop $-1 $-1 $142 $52 #
plane-surface $-1 77.452314828943756 0 0 -1 0 0 0 0 1 forward_v I I I I #
coedge $-1 $143 $144 $145 $146 forward $53 $-1 #
coedge $-1 $145 $55 $142 $147 reversed $34 $-1 #
coedge $-1 $55 $145 $148 $149 reversed $34 $-1 #
coedge $-1 $150 $151 $55 $89 reversed $140 $-1 #
edge $-1 $152 -77.452314828943756 $153 77.452314828943756 $88 $154 forward 7 unknown #
face $-1 $155 $156 $20 $-1 $157 forward single #
loop $-1 $-1 $158 $56 #
plane-surface $-1 -185.05811370777758 5.9938020280834721 117.50381512704389 0 -1 0 0.69465837861970381 0 -0.71933979245794832 forward_v I I I I #
coedge $-1 $159 $160 $161 $162 reversed $57 $-1 #
coedge $-1 $95 $59 $163 $164 reversed $37 $-1 #
coedge $-1 $59 $94 $159 $165 reversed $37 $-1 #
coedge $-1 $161 $166 $59 $97 forward $156 $-1 #
edge $-1 $167 15.076742024945034 $168 24.732143659698764 $96 $169 forward 7 unknown #
loop $-1 $-1 $103 $60 #
plane-surface $-1 -77.452314828943756 1.7143113543797242 6.074750978163749 -0.69465837861970381 0 0.71933979245794832 0.71933979245794832 0 0.69465837861970381 forward_v I I I I #
loop $-1 $-1 $170 $39 #
coedge $-1 $101 $101 $102 $171 reversed $61 $-1 #
coedge $-1 $102 $102 $101 $171 forward $63 $-1 #
coedge $-1 $103 $103 $64 $104 forward $98 $-1 #
edge $-1 $172 0 $172 6.2831853071796004 $103 $173 forward 7 unknown #
face $-1 $174 $175 $22 $-1 $176 reversed single #
loop $-1 $-1 $177 $65 #
plane-surface $-1 73.629049558897421 -2.5651793193240238 225.10961400587772 0 1 0 0.69465837861970381 0 0.71933979245794832 forward_v I I I I #
coedge $-1 $178 $179 $180 $181 reversed $66 $-1 #
coedge $-1 $110 $68 $182 $183 reversed $43 $-1 #
coedge $-1 $68 $109 $178 $184 reversed $43 $-1 #
coedge $-1 $180 $185 $68 $112 forward $186 $-1 #
edge $-1 $187 -40.637790049495045 $188 -30.982388414741315 $111 $189 forward 7 unknown #
loop $-1 $-1 $118 $69 #
plane-surface $-1 -33.976749319936403 1.7143113543797242 113.68054985699757 0.69465837861970381 0 0.71933979245794832 0.71933979245794832 0 -0.69465837861970381 forward_v I I I I #
loop $-1 $-1 $190 $45 #
coedge $-1 $116 $116 $117 $191 reversed $70 $-1 #
coedge $-1 $117 $117 $116 $191 forward $72 $-1 #
coedge $-1 $118 $118 $73 $119 forward $113 $-1 #
edge $-1 $192 0 $192 6.2831853071796004 $118 $193 forward 7 unknown #
face $-1 $194 $195 $18 $-1 $196 reversed single #
loop $-1 $-1 $197 $74 #
plane-surface $-1 -77.452314828943756 0 0 1 0 0 0 0 -1 forward_v I I I I #
coedge $-1 $198 $131 $199 $200 forward $75 $-1 #
coedge $-1 $201 $77 $198 $202 forward $49 $-1 #
coedge $-1 $77 $201 $203 $204 forward $49 $-1 #
coedge $-1 $134 $133 $77 $127 reversed $135 $-1 #
edge $-1 $205 -43.676279113583 $206 43.676279113583 $126 $207 forward 7 unknown #
coedge $-1 $79 $78 $208 $209 forward $31 $-1 #
coedge $-1 $210 $211 $78 $130 reversed $195 $-1 #
edge $-1 $137 -77.452314828943756 $212 77.452314828943756 $129 $213 forward 7 unknown #
coedge $-1 $123 $214 $79 $132 reversed $75 $-1 #
edge $-1 $215 -77.452314828943756 $136 77.452314828943756 $131 $216 forward 7 unknown #
coedge $-1 $126 $80 $214 $217 forward $135 $-1 #
coedge $-1 $80 $126 $210 $218 reversed $135 $-1 #
loop $-1 $-1 $133 $194 #
vertex $-1 $81 $219 #
vertex $-1 $81 $220 #
straight-curve $-1 77.452314828943756 0 15.398864164787101 0 1 0 I I #
face $-1 $221 $222 $19 $-1 $223 reversed single #
loop $-1 $-1 $151 $82 #
plane-surface $-1 0 -53.233462651786866 -10.700206256148091 0 0 1 1 0 0 forward_v I I I I #
coedge $-1 $224 $225 $86 $147 forward $83 $-1 #
coedge $-1 $226 $85 $225 $227 forward $53 $-1 #
coedge $-1 $85 $226 $228 $229 forward $53 $-1 #
coedge $-1 $87 $86 $85 $146 reversed $34 $-1 #
edge $-1 $230 -77.452314828943756 $231 77.452314828943756 $85 $232 forward 7 unknown #
edge $-1 $231 -15.398864164787101 $153 -10.700206256148091 $142 $233 forward 7 unknown #
coedge $-1 $228 $234 $87 $149 forward $235 $-1 #
edge $-1 $152 10.700206256148091 $230 15.398864164787101 $148 $236 forward 7 unknown #
coedge $-1 $237 $88 $234 $238 forward $140 $-1 #
coedge $-1 $88 $237 $224 $239 forward $140 $-1 #
vertex $-1 $149 $240 #
vertex $-1 $239 $241 #
straight-curve $-1 0 -43.676279113583 -10.700206256148091 1 0 0 I I #
face $-1 $-1 $242 $20 $-1 $243 reversed single #
loop $-1 $-1 $96 $90 #
plane-surface $-1 0 0 15.398864164787101 0 0 1 1 0 0 forward_v I I I I #
coedge $-1 $244 $245 $246 $247 reversed $91 $-1 #
coedge $-1 $248 $93 $95 $165 forward $57 $-1 #
coedge $-1 $93 $248 $244 $249 forward $57 $-1 #
coedge $-1 $246 $96 $93 $162 forward $156 $-1 #
edge $-1 $168 -3.4223349965138858 $250 5.13664635089361 $161 $251 forward 7 unknown #
coedge $-1 $252 $253 $94 $164 forward $242 $-1 #
edge $-1 $254 -52.677156585358198 $167 -43.353043398734847 $163 $255 forward 7 unknown #
edge $-1 $168 -13.422587956328261 $254 0 $95 $256 forward 7 unknown #
coedge $-1 $96 $246 $252 $257 forward $156 $-1 #
vertex $-1 $164 $258 #
vertex $-1 $97 $259 #
straight-curve $-1 -92.52905685388879 -2.5651793193240238 15.398864164787099 1 0 0 I I #
coedge $-1 $170 $170 $-1 $260 reversed $100 $-1 #
edge $-1 $261 0 $261 6.2831853071796004 $101 $262 forward 7 unknown #
vertex $-1 $104 $263 #
ellipse-curve $-1 -72.624614011566891 1.7143113543797242 10.736807571475426 -0.69465837861970381 0 0.71933979245794832 1.0790096886869225 0 1.0419875679295556 1 I I #
face $-1 $-1 $186 $22 $-1 $264 forward single #
loop $-1 $-1 $265 $105 #
plane-surface $-1 77.452314828943756 0 0 -1 0 0 0 0 1 forward_v I I I I #
coedge $-1 $266 $267 $268 $269 reversed $106 $-1 #
coedge $-1 $270 $108 $110 $184 forward $66 $-1 #
coedge $-1 $108 $270 $266 $271 forward $66 $-1 #
coedge $-1 $268 $111 $108 $181 forward $186 $-1 #
edge $-1 $188 -5.13664635089361 $272 3.4223349965138858 $180 $273 forward 7 unknown #
coedge $-1 $274 $275 $109 $183 forward $175 $-1 #
edge $-1 $276 -106.48005602477511 $187 -97.155942838151759 $182 $277 forward 7 unknown #
edge $-1 $188 141.48204170155927 $276 154.90462965788748 $110 $278 forward 7 unknown #
coedge $-1 $111 $268 $274 $279 forward $186 $-1 #
loop $-1 $-1 $268 $174 #
vertex $-1 $183 $280 #
vertex $-1 $112 $281 #
straight-curve $-1 36.81452477944871 5.9938020280834721 15.398864164787099 -1 0 0 I I #
coedge $-1 $190 $190 $-1 $282 reversed $115 $-1 #
edge $-1 $283 0 $283 6.2831853071796004 $116 $284 forward 7 unknown #
vertex $-1 $119 $285 #
ellipse-curve $-1 72.624614011566877 1.7143113543797242 10.736807571475419 0.69465837861970381 0 0.71933979245794832 1.0790096886869225 0 -1.0419875679295556 1 I I #
face $-1 $-1 $135 $18 $-1 $286 reversed single #
loop $-1 $-1 $210 $120 #
plane-surface $-1 0 43.676279113583 0 0 -1 0 0 0 -1 forward_v I I I I #
coedge $-1 $287 $208 $211 $288 forward $121 $-1 #
coedge $-1 $214 $123 $124 $202 reversed $75 $-1 #
coedge $-1 $208 $287 $123 $200 reversed $121 $-1 #
edge $-1 $215 -15.398864164787101 $289 15.398864164787101 $199 $290 forward 7 unknown #
coedge $-1 $125 $124 $287 $291 forward $49 $-1 #
edge $-1 $206 -77.452314828943756 $289 77.452314828943756 $198 $292 forward 7 unknown #
coedge $-1 $211 $210 $125 $204 reversed $195 $-1 #
edge $-1 $293 -77.452314828943756 $205 77.452314828943756 $203 $294 forward 7 unknown #
vertex $-1 $127 $295 #
vertex $-1 $217 $296 #
straight-curve $-1 77.452314828943756 0 -15.398864164787101 0 -1 0 I I #
coedge $-1 $197 $199 $128 $209 reversed $121 $-1 #
edge $-1 $212 -43.676279113583 $215 43.676279113583 $208 $297 forward 7 unknown #
coedge $-1 $203 $129 $134 $218 forward $195 $-1 #
coedge $-1 $129 $203 $197 $288 reversed $195 $-1 #
vertex $-1 $130 $298 #
straight-curve $-1 0 43.676279113583 15.398864164787101 -1 0 0 I I #
coedge $-1 $131 $198 $133 $217 reversed $75 $-1 #
vertex $-1 $209 $299 #
straight-curve $-1 0 -43.676279113583 15.398864164787101 1 0 0 I I #
edge $-1 $136 -15.398864164787101 $206 15.398864164787101 $133 $300 forward 7 unknown #
edge $-1 $137 -15.398864164787101 $205 15.398864164787101 $134 $301 forward 7 unknown #
point $-1 77.452314828943756 -43.676279113583 15.398864164787101 #
point $-1 77.452314828943756 43.676279113583 15.398864164787101 #
face $-1 $-1 $235 $19 $-1 $302 reversed single #
loop $-1 $-1 $303 $139 #
plane-surface $-1 0 -62.790646189990731 -13.049535210467596 0 1 0 0 0 1 forward_v I I I I #
coedge $-1 $304 $142 $151 $239 reversed $83 $-1 #
coedge $-1 $142 $304 $143 $227 reversed $83 $-1 #
coedge $-1 $144 $143 $305 $306 forward $53 $-1 #
edge $-1 $231 43.676279113583 $307 62.790646189990731 $225 $308 forward 7 unknown #
coedge $-1 $309 $148 $144 $229 reversed $235 $-1 #
edge $-1 $310 -62.790646189990731 $230 -43.676279113583 $228 $311 forward 7 unknown #
vertex $-1 $149 $312 #
vertex $-1 $227 $313 #
straight-curve $-1 0 -43.676279113583 -15.398864164787101 1 0 0 I I #
straight-curve $-1 77.452314828943756 -43.676279113583 0 0 0 1 I I #
coedge $-1 $148 $309 $150 $238 reversed $235 $-1 #
loop $-1 $-1 $148 $221 #
straight-curve $-1 -77.452314828943756 -43.676279113583 0 0 0 -1 I I #
coedge $-1 $151 $150 $314 $315 forward $140 $-1 #
edge $-1 $152 -9.5571835382038657 $316 9.5571835382038657 $234 $317 forward 7 unknown #
edge $-1 $318 -9.5571835382038657 $153 9.5571835382038657 $224 $319 forward 7 unknown #
point $-1 -77.452314828943756 -43.676279113583 -10.700206256148091 #
point $-1 77.452314828943756 -43.676279113583 -10.700206256148091 #
loop $-1 $-1 $163 $155 #
plane-surface $-1 -77.452314828943756 0 0 1 0 0 0 0 -1 forward_v I I I I #
coedge $-1 $245 $158 $160 $249 reversed $91 $-1 #
coedge $-1 $158 $244 $320 $321 reversed $91 $-1 #
coedge $-1 $166 $161 $158 $247 forward $156 $-1 #
edge $-1 $250 -24.732143659698764 $322 -15.076742024945034 $246 $323 forward 7 unknown #
coedge $-1 $160 $159 $253 $324 reversed $57 $-1 #
edge $-1 $325 0 $250 13.422587956328261 $244 $326 forward 7 unknown #
vertex $-1 $162 $327 #
straight-curve $-1 -67.796913194190026 0.85715567718986208 15.398864164787101 0 1 0 I I #
coedge $-1 $320 $163 $166 $257 reversed $242 $-1 #
coedge $-1 $163 $320 $248 $324 forward $242 $-1 #
vertex $-1 $164 $328 #
straight-curve $-1 -77.452314828943756 -2.5651793193240238 58.751907563521947 0 0 1 I I #
straight-curve $-1 -77.452314828943756 -2.5651793193240238 6.074750978163749 -0.71933979245794832 0 -0.69465837861970381 I I #
edge $-1 $322 -5.9938020280834721 $167 2.5651793193240238 $252 $329 forward 7 unknown #
point $-1 -77.452314828943756 -2.5651793193240238 15.398864164787101 #
point $-1 -67.796913194190026 -2.5651793193240238 15.398864164787101 #
edge $-1 $330 1 $330 0 $170 $-1 forward 7 unknown #
vertex $-1 $171 $331 #
ellipse-curve $-1 -70.070350044197127 1.7143113543797242 8.0917898638915968 -0.69465837861970381 0 0.71933979245794832 1.0790096886869225 0 1.0419875679295556 1 I I #
point $-1 -71.545604322879981 1.7143113543797242 11.778795139404993 #
plane-surface $-1 0 0 15.398864164787101 0 0 1 1 0 0 forward_v I I I I #
coedge $-1 $275 $274 $267 $332 forward $175 $-1 #
coedge $-1 $267 $177 $179 $271 reversed $106 $-1 #
coedge $-1 $177 $266 $265 $332 reversed $106 $-1 #
coedge $-1 $185 $180 $177 $269 forward $186 $-1 #
edge $-1 $272 30.982388414741315 $333 40.637790049495045 $268 $334 forward 7 unknown #
coedge $-1 $179 $178 $275 $335 reversed $66 $-1 #
edge $-1 $336 -154.90462965788748 $272 -141.48204170155927 $266 $337 forward 7 unknown #
vertex $-1 $181 $338 #
straight-curve $-1 67.79691319419004 0.85715567718986208 15.398864164787099 0 -1 0 I I #
coedge $-1 $265 $182 $185 $279 reversed $175 $-1 #
coedge $-1 $182 $265 $270 $335 forward $175 $-1 #
vertex $-1 $183 $339 #
straight-curve $-1 77.452314828943756 5.9938020280834721 112.55480700293886 0 0 1 I I #
straight-curve $-1 -33.976749319936403 5.9938020280834721 113.68054985699757 0.71933979245794832 0 -0.69465837861970381 I I #
edge $-1 $333 -2.5651793193240238 $187 5.9938020280834721 $274 $340 forward 7 unknown #
point $-1 77.452314828943756 5.9938020280834721 15.398864164787101 #
point $-1 67.796913194190026 5.9938020280834721 15.398864164787085 #
edge $-1 $341 1 $341 0 $190 $-1 forward 7 unknown #
vertex $-1 $191 $342 #
ellipse-curve $-1 70.070350044197141 1.7143113543797242 8.091789863891611 0.69465837861970381 0 0.71933979245794832 1.0790096886869225 0 -1.0419875679295556 1 I I #
point $-1 73.703623700253843 1.7143113543797242 9.694820003545896 #
plane-surface $-1 77.452314828943756 0 0 -1 0 0 0 0 1 forward_v I I I I #
coedge $-1 $199 $197 $201 $291 reversed $121 $-1 #
edge $-1 $212 -15.398864164787101 $293 15.398864164787101 $211 $343 forward 7 unknown #
vertex $-1 $291 $344 #
straight-curve $-1 -77.452314828943756 -43.676279113583 0 0 0 -1 I I #
edge $-1 $289 -43.676279113583 $293 43.676279113583 $287 $345 forward 7 unknown #
straight-curve $-1 0 -43.676279113583 -15.398864164787101 -1 0 0 I I #
vertex $-1 $204 $346 #
straight-curve $-1 0 43.676279113583 -15.398864164787101 1 0 0 I I #
point $-1 77.452314828943756 43.676279113583 -15.398864164787101 #
point $-1 77.452314828943756 -43.676279113583 -15.398864164787101 #
straight-curve $-1 -77.452314828943756 0 15.398864164787101 0 -1 0 I I #
point $-1 -77.452314828943756 43.676279113583 15.398864164787101 #
point $-1 -77.452314828943756 -43.676279113583 15.398864164787101 #
straight-curve $-1 77.452314828943756 -43.676279113583 0 0 0 -1 I I #
straight-curve $-1 77.452314828943756 43.676279113583 0 0 0 -1 I I #
plane-surface $-1 -77.452314828943756 0 0 1 0 0 0 0 -1 forward_v I I I I #
coedge $-1 $305 $314 $309 $347 forward $222 $-1 #
coedge $-1 $225 $224 $348 $349 forward $83 $-1 #
coedge $-1 $348 $303 $226 $306 reversed $222 $-1 #
edge $-1 $307 -77.452314828943756 $310 77.452314828943756 $305 $350 forward 7 unknown #
vertex $-1 $349 $351 #
straight-curve $-1 77.452314828943756 0 -15.398864164787101 0 -1 0 I I #
coedge $-1 $234 $228 $303 $347 reversed $235 $-1 #
vertex $-1 $229 $352 #
straight-curve $-1 -77.452314828943756 0 -15.398864164787101 0 1 0 I I #
point $-1 -77.452314828943756 -43.676279113583 -15.398864164787101 #
point $-1 77.452314828943756 -43.676279113583 -15.398864164787101 #
coedge $-1 $303 $348 $237 $315 reversed $222 $-1 #
edge $-1 $316 -77.452314828943756 $318 77.452314828943756 $314 $353 forward 7 unknown #
vertex $-1 $238 $354 #
straight-curve $-1 -77.452314828943756 -53.233462651786866 -10.700206256148091 0 -1 0 I I #
vertex $-1 $239 $355 #
straight-curve $-1 77.452314828943756 -53.233462651786866 -10.700206256148091 0 1 0 I I #
coedge $-1 $253 $252 $245 $321 forward $242 $-1 #
edge $-1 $322 43.353043398734847 $325 52.677156585358198 $320 $356 forward 7 unknown #
vertex $-1 $257 $357 #
straight-curve $-1 -92.52905685388879 5.9938020280834721 15.398864164787099 -1 0 0 I I #
edge $-1 $325 -5.13664635089361 $254 3.4223349965138858 $253 $358 forward 7 unknown #
vertex $-1 $324 $359 #
straight-curve $-1 -77.452314828943756 5.9938020280834721 6.074750978163749 0.71933979245794832 0 0.69465837861970381 I I #
point $-1 -67.796913194190026 5.9938020280834721 15.398864164787101 #
point $-1 -77.452314828943756 -2.5651793193240238 6.074750978163749 #
straight-curve $-1 -77.452314828943756 0 15.398864164787101 0 -1 0 I I #
vertex $-1 $260 $360 #
point $-1 -68.991340355510204 1.7143113543797242 9.1337774318211515 #
edge $-1 $333 97.155942838151759 $336 106.48005602477511 $265 $361 forward 7 unknown #
vertex $-1 $279 $362 #
straight-curve $-1 36.81452477944871 -2.5651793193240238 15.398864164787099 1 0 0 I I #
edge $-1 $336 -3.4223349965138858 $276 5.13664635089361 $275 $363 forward 7 unknown #
vertex $-1 $335 $364 #
straight-curve $-1 -33.976749319936403 -2.5651793193240238 113.68054985699757 -0.71933979245794832 0 0.69465837861970381 I I #
point $-1 67.796913194190026 -2.5651793193240238 15.398864164787085 #
point $-1 77.452314828943742 5.9938020280834721 6.074750978163749 #
straight-curve $-1 77.452314828943756 0 15.398864164787101 0 1 0 I I #
vertex $-1 $282 $365 #
point $-1 71.149359732884065 1.7143113543797242 7.0498022959620545 #
straight-curve $-1 -77.452314828943756 43.676279113583 0 0 0 -1 I I #
point $-1 -77.452314828943756 -43.676279113583 -15.398864164787101 #
straight-curve $-1 -77.452314828943756 0 -15.398864164787101 0 1 0 I I #
point $-1 -77.452314828943756 43.676279113583 -15.398864164787101 #
edge $-1 $316 -2.3493289543195051 $310 2.3493289543195051 $309 $366 forward 7 unknown #
coedge $-1 $314 $305 $304 $349 reversed $222 $-1 #
edge $-1 $318 -2.3493289543195051 $307 2.3493289543195051 $304 $367 forward 7 unknown #
straight-curve $-1 0 -62.790646189990731 -15.398864164787101 -1 0 0 I I #
point $-1 77.452314828943756 -62.790646189990731 -15.398864164787101 #
point $-1 -77.452314828943756 -62.790646189990731 -15.398864164787101 #
straight-curve $-1 0 -62.790646189990731 -10.700206256148091 1 0 0 I I #
point $-1 -77.452314828943756 -62.790646189990731 -10.700206256148091 #
point $-1 77.452314828943756 -62.790646189990731 -10.700206256148091 #
straight-curve $-1 -77.452314828943756 5.9938020280834721 58.751907563521947 0 0 -1 I I #
point $-1 -77.452314828943756 5.9938020280834721 15.398864164787101 #
straight-curve $-1 -77.452314828943756 0.85715567718986208 6.0747509781637508 0 -1 0 I I #
point $-1 -77.452314828943756 5.9938020280834721 6.074750978163749 #
point $-1 -69.02836247626756 1.7143113543797242 7.0127801752046741 #
straight-curve $-1 77.452314828943756 -2.5651793193240238 112.55480700293886 0 0 -1 I I #
point $-1 77.452314828943756 -2.5651793193240238 15.398864164787101 #
straight-curve $-1 77.452314828943742 0.85715567718986208 6.0747509781637561 0 1 0 I I #
point $-1 77.452314828943742 -2.5651793193240238 6.074750978163749 #
point $-1 69.028362476267574 1.7143113543797242 7.0127801752046883 #
straight-curve $-1 -77.452314828943756 -62.790646189990731 -13.049535210467596 0 0 -1 I I #
straight-curve $-1 77.452314828943756 -62.790646189990731 -13.049535210467596 0 0 -1 I I #
End-of-ACIS-data 