500 0 18 0           
7 Unknown 11 ACIS 5.0 NT 24 Thu Mar 25 23:51:58 1999 
-1 9.9999999999999995e-007 1e-010 
body $-1 $18 $-1 $19 #
body $-1 $20 $-1 $21 #
body $-1 $22 $-1 $23 #
body $-1 $24 $-1 $25 #
body $-1 $26 $-1 $27 #
body $-1 $28 $-1 $29 #
body $-1 $30 $-1 $31 #
body $-1 $32 $-1 $33 #
body $-1 $34 $-1 $35 #
body $-1 $36 $-1 $37 #
body $-1 $38 $-1 $39 #
body $-1 $40 $-1 $41 #
body $-1 $42 $-1 $43 #
body $-1 $44 $-1 $45 #
body $-1 $46 $-1 $47 #
body $-1 $48 $-1 $49 #
body $-1 $50 $-1 $51 #
body $-1 $52 $-1 $53 #
lump $-1 $-1 $54 $0 #
transform $-1 1 0 0 0 1 0 0 0 1 55.128635517441325 37.271681911939844 18.539610471343618 1 rotate no_reflect no_shear #
lump $-1 $-1 $55 $1 #
transform $-1 1 0 0 0 1 0 0 0 1 55.128635517441325 37.271681911939844 18.539610471343618 1 rotate no_reflect no_shear #
lump $-1 $-1 $56 $2 #
transform $-1 1 0 0 0 1 0 0 0 1 55.128635517441325 37.271681911939844 18.539610471343618 1 rotate no_reflect no_shear #
lump $-1 $-1 $57 $3 #
transform $-1 1 0 0 0 1 0 0 0 1 55.128635517441325 37.271681911939844 18.539610471343618 1 rotate no_reflect no_shear #
lump $-1 $-1 $58 $4 #
transform $-1 1 0 0 0 1 0 0 0 1 55.128635517441325 37.271681911939844 18.539610471343618 1 rotate no_reflect no_shear #
lump $-1 $-1 $59 $5 #
transform $-1 1 0 0 0 1 0 0 0 1 55.128635517441325 37.271681911939844 18.539610471343618 1 rotate no_reflect no_shear #
lump $-1 $-1 $60 $6 #
transform $-1 1 0 0 0 1 0 0 0 1 55.128635517441325 37.271681911939844 18.539610471343618 1 rotate no_reflect no_shear #
lump $-1 $-1 $61 $7 #
transform $-1 1 0 0 0 1 0 0 0 1 55.128635517441325 37.271681911939844 18.539610471343618 1 rotate no_reflect no_shear #
lump $-1 $-1 $62 $8 #
transform $-1 1 0 0 0 1 0 0 0 1 55.128635517441325 37.271681911939844 18.539610471343618 1 rotate no_reflect no_shear #
lump $-1 $-1 $63 $9 #
transform $-1 1 0 0 0 1 0 0 0 1 55.128635517441325 37.271681911939844 18.539610471343618 1 rotate no_reflect no_shear #
lump $-1 $-1 $64 $10 #
transform $-1 1 0 0 0 1 0 0 0 1 55.128635517441325 37.271681911939844 18.539610471343618 1 rotate no_reflect no_shear #
lump $-1 $-1 $65 $11 #
transform $-1 1 0 0 0 1 0 0 0 1 55.128635517441325 37.271681911939844 18.539610471343618 1 rotate no_reflect no_shear #
lump $-1 $-1 $66 $12 #
transform $-1 1 0 0 0 1 0 0 0 1 55.128635517441325 37.271681911939844 18.539610471343618 1 rotate no_reflect no_shear #
lump $-1 $-1 $67 $13 #
transform $-1 1 0 0 0 1 0 0 0 1 55.128635517441325 37.271681911939844 18.539610471343618 1 rotate no_reflect no_shear #
lump $-1 $-1 $68 $14 #
transform $-1 1 0 0 0 1 0 0 0 1 55.128635517441325 37.271681911939844 18.539610471343618 1 rotate no_reflect no_shear #
lump $-1 $-1 $69 $15 #
transform $-1 1 0 0 0 1 0 0 0 1 55.128635517441325 37.271681911939844 18.539610471343618 1 rotate no_reflect no_shear #
lump $-1 $-1 $70 $16 #
transform $-1 1 0 0 0 1 0 0 0 1 55.128635517441325 37.271681911939844 18.539610471343618 1 rotate no_reflect no_shear #
lump $-1 $-1 $71 $17 #
transform $-1 1 0 0 0 1 0 0 0 1 55.128635517441325 37.271681911939844 18.539610471343618 1 rotate no_reflect no_shear #
shell $-1 $-1 $-1 $72 $-1 $18 #
shell $-1 $-1 $-1 $73 $-1 $20 #
shell $-1 $-1 $-1 $74 $-1 $22 #
shell $-1 $-1 $-1 $75 $-1 $24 #
shell $-1 $-1 $-1 $76 $-1 $26 #
shell $-1 $-1 $-1 $77 $-1 $28 #
shell $-1 $-1 $-1 $78 $-1 $30 #
shell $-1 $-1 $-1 $79 $-1 $32 #
shell $-1 $-1 $-1 $80 $-1 $34 #
shell $-1 $-1 $-1 $81 $-1 $36 #
shell $-1 $-1 $-1 $82 $-1 $38 #
shell $-1 $-1 $-1 $83 $-1 $40 #
shell $-1 $-1 $-1 $84 $-1 $42 #
shell $-1 $-1 $-1 $85 $-1 $44 #
shell $-1 $-1 $-1 $86 $-1 $46 #
shell $-1 $-1 $-1 $87 $-1 $48 #
shell $-1 $-1 $-1 $88 $-1 $50 #
shell $-1 $-1 $-1 $89 $-1 $52 #
face $-1 $90 $91 $54 $-1 $92 forward single #
face $-1 $93 $94 $55 $-1 $95 forward single #
face $-1 $96 $97 $56 $-1 $98 forward single #
face $-1 $99 $100 $57 $-1 $101 reversed single #
face $-1 $102 $103 $58 $-1 $104 forward single #
face $-1 $105 $106 $59 $-1 $107 forward single #
face $-1 $108 $109 $60 $-1 $110 reversed single #
face $-1 $111 $112 $61 $-1 $113 forward single #
face $-1 $114 $115 $62 $-1 $116 forward single #
face $-1 $117 $118 $63 $-1 $119 forward single #
face $-1 $120 $121 $64 $-1 $122 reversed single #
face $-1 $123 $124 $65 $-1 $125 forward single #
face $-1 $126 $127 $66 $-1 $128 forward single #
face $-1 $129 $130 $67 $-1 $131 forward single #
face $-1 $132 $133 $68 $-1 $134 reversed single #
face $-1 $135 $136 $69 $-1 $137 forward single #
face $-1 $138 $139 $70 $-1 $140 forward single #
face $-1 $141 $142 $71 $-1 $143 forward single #
face $-1 $144 $145 $54 $-1 $146 reversed single #
loop $-1 $-1 $147 $72 #
plane-surface $-1 0 0 18.539610471343618 0 0 1 1 0 0 forward_v I I I I #
face $-1 $148 $149 $55 $-1 $150 forward single #
loop $-1 $-1 $151 $73 #
plane-surface $-1 0 -37.271681911939844 0 0 1 0 0 0 1 forward_v I I I I #
face $-1 $152 $153 $56 $-1 $154 reversed single #
loop $-1 $-1 $155 $74 #
plane-surface $-1 0 37.271681911939844 0 0 -1 0 0 0 -1 forward_v I I I I #
face $-1 $156 $157 $57 $-1 $158 reversed single #
loop $-1 $-1 $159 $75 #
plane-surface $-1 -111.91532889148084 -9.0754443493618826 102.20451271775006 0 1 0 -0.51503808176128008 0 0.85716729658548041 forward_v I I I I #
face $-1 $160 $161 $58 $-1 $162 forward single #
loop $-1 $163 $164 $76 #
cone-surface $-1 -45.847372736559976 -7.227153727652265 12.689014475322624 0.51503808176128008 0 -0.85716729658548041 0.4285836482927402 0 0.25751904088064004 1 I I 0 1 0.5 forward I I I I #
face $-1 $165 $166 $59 $-1 $167 forward single #
loop $-1 $168 $169 $77 #
cone-surface $-1 -45.847372736559976 -4.4547177950878378 12.689014475322624 0.51503808176128008 0 -0.85716729658548041 0.4285836482927402 0 0.25751904088064004 1 I I 0 1 0.5 forward I I I I #
face $-1 $170 $171 $60 $-1 $172 reversed single #
loop $-1 $-1 $173 $78 #
plane-surface $-1 33.427747221665626 -8.6970437615297556 161.67482485234049 0 -1 0 -0.6018150307709319 0 -0.79863550430605224 forward_v I I I I #
face $-1 $174 $175 $61 $-1 $176 forward single #
loop $-1 $177 $178 $79 #
cone-surface $-1 47.059343806026682 -13.485486949857926 12.121569325497696 -0.6018150307709319 0 -0.79863550430605224 0.39931775215302612 0 -0.30090751538546595 1 I I 0 1 0.5 forward I I I I #
face $-1 $179 $180 $62 $-1 $181 forward single #
loop $-1 $182 $183 $80 #
cone-surface $-1 47.059343806026682 -11.689820754234862 12.121569325497696 -0.6018150307709319 0 -0.79863550430605224 0.39931775215302612 0 -0.30090751538546595 1 I I 0 1 0.5 forward I I I I #
face $-1 $184 $185 $63 $-1 $186 forward single #
loop $-1 $187 $188 $81 #
cone-surface $-1 47.059343806026682 -9.8941545586117989 12.121569325497696 -0.6018150307709319 0 -0.79863550430605224 0.39931775215302612 0 -0.30090751538546595 1 I I 0 1 0.5 forward I I I I #
face $-1 $189 $190 $64 $-1 $191 reversed single #
loop $-1 $-1 $192 $82 #
plane-surface $-1 33.427747221665626 1.0913547364302225 161.67482485234049 0 -1 0 -0.6018150307709319 0 -0.79863550430605224 forward_v I I I I #
face $-1 $193 $194 $65 $-1 $195 forward single #
loop $-1 $196 $197 $83 #
cone-surface $-1 47.059343806026682 -3.6970884518979474 12.121569325497696 -0.6018150307709319 0 -0.79863550430605224 0.39931775215302612 0 -0.30090751538546595 1 I I 0 1 0.5 forward I I I I #
face $-1 $198 $199 $66 $-1 $200 forward single #
loop $-1 $201 $202 $84 #
cone-surface $-1 47.059343806026682 -1.9014222562748841 12.121569325497696 -0.6018150307709319 0 -0.79863550430605224 0.39931775215302612 0 -0.30090751538546595 1 I I 0 1 0.5 forward I I I I #
face $-1 $203 $204 $67 $-1 $205 forward single #
loop $-1 $206 $207 $85 #
cone-surface $-1 47.059343806026682 -0.10575606065182086 12.121569325497696 -0.6018150307709319 0 -0.79863550430605224 0.39931775215302612 0 -0.30090751538546595 1 I I 0 1 0.5 forward I I I I #
face $-1 $208 $209 $68 $-1 $210 reversed single #
loop $-1 $-1 $211 $86 #
plane-surface $-1 33.427747221665626 10.879753234390204 161.67482485234049 0 -1 0 -0.6018150307709319 0 -0.79863550430605224 forward_v I I I I #
face $-1 $212 $213 $69 $-1 $214 forward single #
loop $-1 $215 $216 $87 #
cone-surface $-1 47.059343806026682 6.0913100460620342 12.121569325497696 -0.6018150307709319 0 -0.79863550430605224 0.39931775215302612 0 -0.30090751538546595 1 I I 0 1 0.5 forward I I I I #
face $-1 $217 $218 $70 $-1 $219 forward single #
loop $-1 $220 $221 $88 #
cone-surface $-1 47.059343806026682 7.8869762416850975 12.121569325497696 -0.6018150307709319 0 -0.79863550430605224 0.39931775215302612 0 -0.30090751538546595 1 I I 0 1 0.5 forward I I I I #
face $-1 $222 $223 $71 $-1 $224 forward single #
loop $-1 $225 $226 $89 #
cone-surface $-1 47.059343806026682 9.6826424373081608 12.121569325497696 -0.6018150307709319 0 -0.79863550430605224 0.39931775215302612 0 -0.30090751538546595 1 I I 0 1 0.5 forward I I I I #
face $-1 $227 $228 $54 $-1 $229 reversed single #
loop $-1 $-1 $230 $90 #
plane-surface $-1 0 0 -18.539610471343618 0 0 1 1 0 0 forward_v I I I I #
coedge $-1 $231 $232 $233 $234 forward $91 $-1 #
face $-1 $235 $236 $55 $-1 $237 reversed single #
loop $-1 $-1 $238 $93 #
plane-surface $-1 0 0 18.539610471343618 0 0 1 1 0 0 forward_v I I I I #
coedge $-1 $239 $240 $241 $242 forward $94 $-1 #
face $-1 $243 $244 $56 $-1 $245 reversed single #
loop $-1 $-1 $246 $96 #
plane-surface $-1 55.128635517441325 0 0 -1 0 0 0 0 1 forward_v I I I I #
coedge $-1 $247 $248 $249 $250 forward $97 $-1 #
face $-1 $251 $252 $57 $-1 $253 reversed single #
loop $-1 $-1 $254 $99 #
plane-surface $-1 -55.128635517441332 -5.8409357613700479 7.6955857758871105 -0.51503808176128008 0 0.85716729658548041 0.85716729658548041 0 0.51503808176128008 forward_v I I I I #
coedge $-1 $255 $256 $257 $258 reversed $100 $-1 #
face $-1 $-1 $259 $58 $-1 $260 forward single #
loop $-1 $261 $262 $102 #
cone-surface $-1 -45.461094175239019 -7.227153727652265 12.046139002883514 0.51503808176128008 0 -0.85716729658548041 0.2142918241463701 0 0.12875952044032002 1 I I -0.70710678118654746 0.70710678118654746 0.25 forward I I I I #
loop $-1 $-1 $263 $76 #
coedge $-1 $164 $164 $264 $265 reversed $103 $-1 #
face $-1 $-1 $266 $59 $-1 $267 forward single #
loop $-1 $268 $269 $105 #
cone-surface $-1 -45.461094175239019 -4.4547177950878378 12.046139002883514 0.51503808176128008 0 -0.85716729658548041 0.2142918241463701 0 0.12875952044032002 1 I I -0.70710678118654746 0.70710678118654746 0.25 forward I I I I #
loop $-1 $-1 $270 $77 #
coedge $-1 $169 $169 $271 $272 reversed $106 $-1 #
face $-1 $273 $274 $60 $-1 $275 reversed single #
loop $-1 $-1 $276 $108 #
plane-surface $-1 -32.926735738911248 -11.689820754234862 73.619453595987906 0.6018150307709319 0 0.79863550430605224 0.79863550430605224 0 -0.6018150307709319 forward_v I I I I #
coedge $-1 $277 $278 $279 $280 reversed $109 $-1 #
face $-1 $-1 $281 $61 $-1 $282 forward single #
loop $-1 $283 $284 $111 #
cone-surface $-1 46.320574393386764 -13.485486949857926 11.141189221541563 -0.6018150307709319 0 -0.79863550430605224 0.19965887607651306 0 -0.15045375769273298 1 I I -0.70710678118654746 0.70710678118654746 0.25 forward I I I I #
loop $-1 $-1 $285 $79 #
coedge $-1 $178 $178 $286 $287 reversed $112 $-1 #
face $-1 $-1 $288 $62 $-1 $289 forward single #
loop $-1 $290 $291 $114 #
cone-surface $-1 46.320574393386764 -11.689820754234862 11.141189221541563 -0.6018150307709319 0 -0.79863550430605224 0.19965887607651306 0 -0.15045375769273298 1 I I -0.70710678118654746 0.70710678118654746 0.25 forward I I I I #
loop $-1 $-1 $292 $80 #
coedge $-1 $183 $183 $293 $294 reversed $115 $-1 #
face $-1 $-1 $295 $63 $-1 $296 forward single #
loop $-1 $297 $298 $117 #
cone-surface $-1 46.320574393386764 -9.8941545586117989 11.141189221541563 -0.6018150307709319 0 -0.79863550430605224 0.19965887607651306 0 -0.15045375769273298 1 I I -0.70710678118654746 0.70710678118654746 0.25 forward I I I I #
loop $-1 $-1 $299 $81 #
coedge $-1 $188 $188 $300 $301 reversed $118 $-1 #
face $-1 $302 $303 $64 $-1 $304 reversed single #
loop $-1 $-1 $305 $120 #
plane-surface $-1 -32.926735738911248 -1.9014222562748841 73.619453595987906 0.6018150307709319 0 0.79863550430605224 0.79863550430605224 0 -0.6018150307709319 forward_v I I I I #
coedge $-1 $306 $307 $308 $309 reversed $121 $-1 #
face $-1 $-1 $310 $65 $-1 $311 forward single #
loop $-1 $312 $313 $123 #
cone-surface $-1 46.320574393386764 -3.6970884518979474 11.141189221541563 -0.6018150307709319 0 -0.79863550430605224 0.19965887607651306 0 -0.15045375769273298 1 I I -0.70710678118654746 0.70710678118654746 0.25 forward I I I I #
loop $-1 $-1 $314 $83 #
coedge $-1 $197 $197 $315 $316 reversed $124 $-1 #
face $-1 $-1 $317 $66 $-1 $318 forward single #
loop $-1 $319 $320 $126 #
cone-surface $-1 46.320574393386764 -1.9014222562748841 11.141189221541563 -0.6018150307709319 0 -0.79863550430605224 0.19965887607651306 0 -0.15045375769273298 1 I I -0.70710678118654746 0.70710678118654746 0.25 forward I I I I #
loop $-1 $-1 $321 $84 #
coedge $-1 $202 $202 $322 $323 reversed $127 $-1 #
face $-1 $-1 $324 $67 $-1 $325 forward single #
loop $-1 $326 $327 $129 #
cone-surface $-1 46.320574393386764 -0.10575606065182086 11.141189221541563 -0.6018150307709319 0 -0.79863550430605224 0.19965887607651306 0 -0.15045375769273298 1 I I -0.70710678118654746 0.70710678118654746 0.25 forward I I I I #
loop $-1 $-1 $328 $85 #
coedge $-1 $207 $207 $329 $330 reversed $130 $-1 #
face $-1 $331 $332 $68 $-1 $333 reversed single #
loop $-1 $-1 $334 $132 #
plane-surface $-1 -32.926735738911248 7.8869762416850975 73.619453595987906 0.6018150307709319 0 0.79863550430605224 0.79863550430605224 0 -0.6018150307709319 forward_v I I I I #
coedge $-1 $335 $336 $337 $338 reversed $133 $-1 #
face $-1 $-1 $339 $69 $-1 $340 forward single #
loop $-1 $341 $342 $135 #
cone-surface $-1 46.320574393386764 6.0913100460620342 11.141189221541563 -0.6018150307709319 0 -0.79863550430605224 0.19965887607651306 0 -0.15045375769273298 1 I I -0.70710678118654746 0.70710678118654746 0.25 forward I I I I #
loop $-1 $-1 $343 $87 #
coedge $-1 $216 $216 $344 $345 reversed $136 $-1 #
face $-1 $-1 $346 $70 $-1 $347 forward single #
loop $-1 $348 $349 $138 #
cone-surface $-1 46.320574393386764 7.8869762416850975 11.141189221541563 -0.6018150307709319 0 -0.79863550430605224 0.19965887607651306 0 -0.15045375769273298 1 I I -0.70710678118654746 0.70710678118654746 0.25 forward I I I I #
loop $-1 $-1 $350 $88 #
coedge $-1 $221 $221 $351 $352 reversed $139 $-1 #
face $-1 $-1 $353 $71 $-1 $354 forward single #
loop $-1 $355 $356 $141 #
cone-surface $-1 46.320574393386764 9.6826424373081608 11.141189221541563 -0.6018150307709319 0 -0.79863550430605224 0.19965887607651306 0 -0.15045375769273298 1 I I -0.70710678118654746 0.70710678118654746 0.25 forward I I I I #
loop $-1 $-1 $357 $89 #
coedge $-1 $226 $226 $358 $359 reversed $142 $-1 #
face $-1 $360 $361 $54 $-1 $362 reversed single #
loop $-1 $-1 $363 $144 #
plane-surface $-1 0 -37.271681911939844 0 0 1 0 0 0 1 forward_v I I I I #
coedge $-1 $364 $365 $366 $367 forward $145 $-1 #
coedge $-1 $368 $147 $369 $370 forward $91 $-1 #
coedge $-1 $147 $368 $371 $372 forward $91 $-1 #
coedge $-1 $373 $374 $147 $234 reversed $375 $-1 #
edge $-1 $376 -37.271681911939844 $377 37.271681911939844 $233 $378 forward 7 unknown #
face $-1 $379 $380 $55 $-1 $381 reversed single #
loop $-1 $-1 $382 $148 #
plane-surface $-1 -55.128635517441325 0 0 1 0 0 0 0 -1 forward_v I I I I #
coedge $-1 $383 $384 $385 $386 forward $149 $-1 #
coedge $-1 $385 $151 $382 $387 reversed $94 $-1 #
coedge $-1 $151 $385 $388 $389 reversed $94 $-1 #
coedge $-1 $390 $391 $151 $242 reversed $380 $-1 #
edge $-1 $392 -55.128635517441325 $393 55.128635517441325 $241 $394 forward 7 unknown #
face $-1 $395 $396 $56 $-1 $397 reversed single #
loop $-1 $-1 $398 $152 #
plane-surface $-1 0 48.566223994439788 13.384821349354324 0 0 1 1 0 0 forward_v I I I I #
coedge $-1 $399 $400 $247 $401 forward $153 $-1 #
coedge $-1 $402 $155 $246 $401 reversed $97 $-1 #
coedge $-1 $155 $402 $403 $404 reversed $97 $-1 #
coedge $-1 $405 $398 $155 $250 reversed $244 $-1 #
edge $-1 $406 -55.128635517441325 $407 55.128635517441325 $249 $408 forward 7 unknown #
face $-1 $409 $410 $57 $-1 $411 reversed single #
loop $-1 $-1 $412 $156 #
plane-surface $-1 -111.91532889148084 -2.6064271733782132 102.20451271775006 0 -1 0 0.51503808176128008 0 -0.85716729658548041 forward_v I I I I #
coedge $-1 $413 $414 $415 $416 reversed $157 $-1 #
coedge $-1 $256 $159 $417 $418 reversed $100 $-1 #
coedge $-1 $159 $255 $413 $419 reversed $100 $-1 #
coedge $-1 $415 $420 $159 $258 forward $421 $-1 #
edge $-1 $422 0.82902892829909547 $423 18.876516408300489 $257 $424 forward 7 unknown #
loop $-1 $-1 $264 $160 #
plane-surface $-1 -55.128635517441332 -5.8409357613700479 7.6955857758871105 -0.51503808176128008 0 0.85716729658548041 0.85716729658548041 0 0.51503808176128008 forward_v I I I I #
loop $-1 $-1 $425 $102 #
coedge $-1 $262 $262 $263 $426 reversed $161 $-1 #
coedge $-1 $263 $263 $262 $426 forward $163 $-1 #
coedge $-1 $264 $264 $164 $265 forward $259 $-1 #
edge $-1 $427 0 $427 6.2831853071796004 $264 $428 forward 7 unknown #
loop $-1 $-1 $271 $165 #
plane-surface $-1 -55.128635517441332 -5.8409357613700479 7.6955857758871105 -0.51503808176128008 0 0.85716729658548041 0.85716729658548041 0 0.51503808176128008 forward_v I I I I #
loop $-1 $-1 $429 $105 #
coedge $-1 $269 $269 $270 $430 reversed $166 $-1 #
coedge $-1 $270 $270 $269 $430 forward $168 $-1 #
coedge $-1 $271 $271 $169 $272 forward $266 $-1 #
edge $-1 $431 0 $431 6.2831853071796004 $271 $432 forward 7 unknown #
face $-1 $433 $434 $60 $-1 $435 forward single #
loop $-1 $-1 $436 $170 #
plane-surface $-1 33.427747221665626 -14.682597746939969 161.67482485234049 0 1 0 0.6018150307709319 0 0.79863550430605224 forward_v I I I I #
coedge $-1 $437 $438 $439 $440 reversed $171 $-1 #
coedge $-1 $278 $173 $441 $442 reversed $109 $-1 #
coedge $-1 $173 $277 $437 $443 reversed $109 $-1 #
coedge $-1 $439 $444 $173 $280 forward $434 $-1 #
edge $-1 $445 -38.414761906608511 $446 -23.452809793673616 $279 $447 forward 7 unknown #
loop $-1 $-1 $286 $174 #
plane-surface $-1 -32.926735738911248 -11.689820754234862 73.619453595987906 0.6018150307709319 0 0.79863550430605224 0.79863550430605224 0 -0.6018150307709319 forward_v I I I I #
loop $-1 $-1 $448 $111 #
coedge $-1 $284 $284 $285 $449 reversed $175 $-1 #
coedge $-1 $285 $285 $284 $449 forward $177 $-1 #
coedge $-1 $286 $286 $178 $287 forward $281 $-1 #
edge $-1 $450 0 $450 6.2831853071796004 $286 $451 forward 7 unknown #
loop $-1 $-1 $293 $179 #
plane-surface $-1 -32.926735738911248 -11.689820754234862 73.619453595987906 0.6018150307709319 0 0.79863550430605224 0.79863550430605224 0 -0.6018150307709319 forward_v I I I I #
loop $-1 $-1 $452 $114 #
coedge $-1 $291 $291 $292 $453 reversed $180 $-1 #
coedge $-1 $292 $292 $291 $453 forward $182 $-1 #
coedge $-1 $293 $293 $183 $294 forward $288 $-1 #
edge $-1 $454 0 $454 6.2831853071796004 $293 $455 forward 7 unknown #
loop $-1 $-1 $300 $184 #
plane-surface $-1 -32.926735738911248 -11.689820754234862 73.619453595987906 0.6018150307709319 0 0.79863550430605224 0.79863550430605224 0 -0.6018150307709319 forward_v I I I I #
loop $-1 $-1 $456 $117 #
coedge $-1 $298 $298 $299 $457 reversed $185 $-1 #
coedge $-1 $299 $299 $298 $457 forward $187 $-1 #
coedge $-1 $300 $300 $188 $301 forward $295 $-1 #
edge $-1 $458 0 $458 6.2831853071796004 $300 $459 forward 7 unknown #
face $-1 $460 $461 $64 $-1 $462 reversed single #
loop $-1 $-1 $463 $189 #
plane-surface $-1 33.427747221665626 -4.8941992489799908 161.67482485234049 0 1 0 0.6018150307709319 0 0.79863550430605224 forward_v I I I I #
coedge $-1 $464 $465 $466 $467 reversed $190 $-1 #
coedge $-1 $307 $192 $468 $469 reversed $121 $-1 #
coedge $-1 $192 $306 $464 $470 reversed $121 $-1 #
coedge $-1 $466 $471 $192 $309 forward $472 $-1 #
edge $-1 $473 -38.414761906608511 $474 -23.452809793673616 $308 $475 forward 7 unknown #
loop $-1 $-1 $315 $193 #
plane-surface $-1 -32.926735738911248 -1.9014222562748841 73.619453595987906 0.6018150307709319 0 0.79863550430605224 0.79863550430605224 0 -0.6018150307709319 forward_v I I I I #
loop $-1 $-1 $476 $123 #
coedge $-1 $313 $313 $314 $477 reversed $194 $-1 #
coedge $-1 $314 $314 $313 $477 forward $196 $-1 #
coedge $-1 $315 $315 $197 $316 forward $310 $-1 #
edge $-1 $478 0 $478 6.2831853071796004 $315 $479 forward 7 unknown #
loop $-1 $-1 $322 $198 #
plane-surface $-1 -32.926735738911248 -1.9014222562748841 73.619453595987906 0.6018150307709319 0 0.79863550430605224 0.79863550430605224 0 -0.6018150307709319 forward_v I I I I #
loop $-1 $-1 $480 $126 #
coedge $-1 $320 $320 $321 $481 reversed $199 $-1 #
coedge $-1 $321 $321 $320 $481 forward $201 $-1 #
coedge $-1 $322 $322 $202 $323 forward $317 $-1 #
edge $-1 $482 0 $482 6.2831853071796004 $322 $483 forward 7 unknown #
loop $-1 $-1 $329 $203 #
plane-surface $-1 -32.926735738911248 -1.9014222562748841 73.619453595987906 0.6018150307709319 0 0.79863550430605224 0.79863550430605224 0 -0.6018150307709319 forward_v I I I I #
loop $-1 $-1 $484 $129 #
coedge $-1 $327 $327 $328 $485 reversed $204 $-1 #
coedge $-1 $328 $328 $327 $485 forward $206 $-1 #
coedge $-1 $329 $329 $207 $330 forward $324 $-1 #
edge $-1 $486 0 $486 6.2831853071796004 $329 $487 forward 7 unknown #
face $-1 $488 $489 $68 $-1 $490 reversed single #
loop $-1 $-1 $491 $208 #
plane-surface $-1 33.427747221665626 4.8941992489799908 161.67482485234049 0 1 0 0.6018150307709319 0 0.79863550430605224 forward_v I I I I #
coedge $-1 $492 $493 $494 $495 reversed $209 $-1 #
coedge $-1 $336 $211 $496 $497 reversed $133 $-1 #
coedge $-1 $211 $335 $492 $498 reversed $133 $-1 #
coedge $-1 $494 $499 $211 $338 forward $500 $-1 #
edge $-1 $501 -38.414761906608511 $502 -23.452809793673616 $337 $503 forward 7 unknown #
loop $-1 $-1 $344 $212 #
plane-surface $-1 -32.926735738911248 7.8869762416850975 73.619453595987906 0.6018150307709319 0 0.79863550430605224 0.79863550430605224 0 -0.6018150307709319 forward_v I I I I #
loop $-1 $-1 $504 $135 #
coedge $-1 $342 $342 $343 $505 reversed $213 $-1 #
coedge $-1 $343 $343 $342 $505 forward $215 $-1 #
coedge $-1 $344 $344 $216 $345 forward $339 $-1 #
edge $-1 $506 0 $506 6.2831853071796004 $344 $507 forward 7 unknown #
loop $-1 $-1 $351 $217 #
plane-surface $-1 -32.926735738911248 7.8869762416850975 73.619453595987906 0.6018150307709319 0 0.79863550430605224 0.79863550430605224 0 -0.6018150307709319 forward_v I I I I #
loop $-1 $-1 $508 $138 #
coedge $-1 $349 $349 $350 $509 reversed $218 $-1 #
coedge $-1 $350 $350 $349 $509 forward $220 $-1 #
coedge $-1 $351 $351 $221 $352 forward $346 $-1 #
edge $-1 $510 0 $510 6.2831853071796004 $351 $511 forward 7 unknown #
loop $-1 $-1 $358 $222 #
plane-surface $-1 -32.926735738911248 7.8869762416850975 73.619453595987906 0.6018150307709319 0 0.79863550430605224 0.79863550430605224 0 -0.6018150307709319 forward_v I I I I #
loop $-1 $-1 $512 $141 #
coedge $-1 $356 $356 $357 $513 reversed $223 $-1 #
coedge $-1 $357 $357 $356 $513 forward $225 $-1 #
coedge $-1 $358 $358 $226 $359 forward $353 $-1 #
edge $-1 $514 0 $514 6.2831853071796004 $358 $515 forward 7 unknown #
face $-1 $516 $517 $54 $-1 $518 reversed single #
loop $-1 $-1 $519 $227 #
plane-surface $-1 -55.128635517441325 0 0 1 0 0 0 0 -1 forward_v I I I I #
coedge $-1 $520 $371 $521 $522 forward $228 $-1 #
coedge $-1 $523 $230 $520 $524 forward $145 $-1 #
coedge $-1 $230 $523 $525 $526 forward $145 $-1 #
coedge $-1 $374 $373 $230 $367 reversed $375 $-1 #
edge $-1 $527 -37.271681911939844 $528 37.271681911939844 $366 $529 forward 7 unknown #
coedge $-1 $232 $231 $530 $531 forward $91 $-1 #
coedge $-1 $532 $533 $231 $370 reversed $517 $-1 #
edge $-1 $377 -55.128635517441325 $534 55.128635517441325 $369 $535 forward 7 unknown #
coedge $-1 $363 $536 $232 $372 reversed $228 $-1 #
edge $-1 $537 -55.128635517441325 $376 55.128635517441325 $371 $538 forward 7 unknown #
coedge $-1 $366 $233 $536 $539 forward $375 $-1 #
coedge $-1 $233 $366 $532 $540 reversed $375 $-1 #
loop $-1 $-1 $373 $516 #
vertex $-1 $234 $541 #
vertex $-1 $234 $542 #
straight-curve $-1 55.128635517441325 0 18.539610471343618 0 1 0 I I #
face $-1 $543 $544 $55 $-1 $545 reversed single #
loop $-1 $-1 $390 $235 #
plane-surface $-1 0 -48.566223994439781 13.384821349354324 0 0 1 1 0 0 forward_v I I I I #
coedge $-1 $546 $547 $239 $387 forward $236 $-1 #
coedge $-1 $548 $238 $547 $549 forward $149 $-1 #
coedge $-1 $238 $548 $550 $551 forward $149 $-1 #
coedge $-1 $240 $239 $238 $386 reversed $94 $-1 #
edge $-1 $552 -55.128635517441325 $553 55.128635517441325 $238 $554 forward 7 unknown #
edge $-1 $553 -18.539610471343618 $393 -13.384821349354324 $382 $555 forward 7 unknown #
coedge $-1 $550 $556 $240 $389 forward $557 $-1 #
edge $-1 $392 13.384821349354324 $552 18.539610471343618 $388 $558 forward 7 unknown #
coedge $-1 $559 $241 $556 $560 forward $380 $-1 #
coedge $-1 $241 $559 $546 $561 forward $380 $-1 #
vertex $-1 $389 $562 #
vertex $-1 $387 $563 #
straight-curve $-1 0 -37.271681911939844 13.384821349354324 -1 0 0 I I #
face $-1 $564 $565 $56 $-1 $566 forward single #
loop $-1 $-1 $567 $243 #
plane-surface $-1 0 59.860766076939726 15.96221591034897 0 -1 0 0 0 -1 forward_v I I I I #
coedge $-1 $249 $568 $399 $569 forward $244 $-1 #
coedge $-1 $570 $246 $398 $569 reversed $153 $-1 #
coedge $-1 $246 $570 $571 $572 reversed $153 $-1 #
edge $-1 $573 -18.539610471343618 $407 -13.384821349354324 $246 $574 forward 7 unknown #
coedge $-1 $248 $247 $575 $576 reversed $97 $-1 #
coedge $-1 $577 $578 $248 $404 forward $579 $-1 #
edge $-1 $406 13.384821349354324 $580 18.539610471343618 $403 $581 forward 7 unknown #
coedge $-1 $568 $249 $578 $582 forward $244 $-1 #
vertex $-1 $404 $583 #
vertex $-1 $401 $584 #
straight-curve $-1 0 37.271681911939844 13.384821349354324 1 0 0 I I #
face $-1 $-1 $421 $57 $-1 $585 forward single #
loop $-1 $-1 $586 $251 #
plane-surface $-1 -55.128635517441325 0 0 1 0 0 0 0 -1 forward_v I I I I #
coedge $-1 $587 $588 $589 $590 reversed $252 $-1 #
coedge $-1 $591 $254 $256 $419 forward $157 $-1 #
coedge $-1 $254 $591 $587 $592 forward $157 $-1 #
coedge $-1 $589 $257 $254 $416 forward $421 $-1 #
edge $-1 $423 -6.1549764686768587 $593 0.31404070730681077 $415 $594 forward 7 unknown #
coedge $-1 $595 $596 $255 $418 forward $410 $-1 #
edge $-1 $597 -43.406670582987914 $422 -32.562645887531417 $417 $598 forward 7 unknown #
edge $-1 $423 -21.054801731112974 $597 -8.3777685069199533e-015 $256 $599 forward 7 unknown #
coedge $-1 $257 $589 $595 $600 forward $421 $-1 #
loop $-1 $-1 $589 $409 #
vertex $-1 $418 $601 #
vertex $-1 $258 $602 #
straight-curve $-1 -55.95766444574042 -9.0754443493618826 18.539610471343615 1 0 0 I I #
coedge $-1 $425 $425 $-1 $603 reversed $261 $-1 #
edge $-1 $604 0 $604 6.2831853071796004 $262 $605 forward 7 unknown #
vertex $-1 $265 $606 #
ellipse-curve $-1 -46.104891777440621 -7.227153727652265 13.11759812361537 -0.51503808176128008 0 0.85716729658548041 0.4285836482927402 0 0.25751904088064004 1 I I #
coedge $-1 $429 $429 $-1 $607 reversed $268 $-1 #
edge $-1 $608 0 $608 6.2831853071796004 $269 $609 forward 7 unknown #
vertex $-1 $272 $610 #
ellipse-curve $-1 -46.104891777440621 -4.4547177950878378 13.11759812361537 -0.51503808176128008 0 0.85716729658548041 0.4285836482927402 0 0.25751904088064004 1 I I #
face $-1 $-1 $611 $60 $-1 $612 reversed single #
loop $-1 $-1 $279 $273 #
plane-surface $-1 0 0 18.539610471343618 0 0 1 1 0 0 forward_v I I I I #
coedge $-1 $613 $614 $615 $616 reversed $274 $-1 #
coedge $-1 $617 $276 $278 $443 forward $171 $-1 #
coedge $-1 $276 $617 $613 $618 forward $171 $-1 #
coedge $-1 $615 $279 $276 $440 forward $434 $-1 #
edge $-1 $446 2.8521333844123244 $619 8.8376873698225378 $439 $620 forward 7 unknown #
coedge $-1 $621 $622 $277 $442 forward $611 $-1 #
edge $-1 $623 -73.5724417907592 $445 -62.297801954826625 $441 $624 forward 7 unknown #
edge $-1 $446 91.522877143972934 $623 110.25727103488262 $278 $625 forward 7 unknown #
coedge $-1 $279 $615 $621 $626 forward $434 $-1 #
vertex $-1 $442 $627 #
vertex $-1 $280 $628 #
straight-curve $-1 16.713873610832813 -8.6970437615297556 18.539610471343622 -1 0 0 I I #
coedge $-1 $448 $448 $-1 $629 reversed $283 $-1 #
edge $-1 $630 0 $630 6.2831853071796004 $284 $631 forward 7 unknown #
vertex $-1 $287 $632 #
ellipse-curve $-1 47.647659460973884 -13.485486949857926 12.902290553377332 0.6018150307709319 0 0.79863550430605224 0.39931775215302612 0 -0.30090751538546595 1 I I #
coedge $-1 $452 $452 $-1 $633 reversed $290 $-1 #
edge $-1 $634 0 $634 6.2831853071796004 $291 $635 forward 7 unknown #
vertex $-1 $294 $636 #
ellipse-curve $-1 47.647659460973884 -11.689820754234862 12.902290553377332 0.6018150307709319 0 0.79863550430605224 0.39931775215302612 0 -0.30090751538546595 1 I I #
coedge $-1 $456 $456 $-1 $637 reversed $297 $-1 #
edge $-1 $638 0 $638 6.2831853071796004 $298 $639 forward 7 unknown #
vertex $-1 $301 $640 #
ellipse-curve $-1 47.647659460973884 -9.8941545586117989 12.902290553377332 0.6018150307709319 0 0.79863550430605224 0.39931775215302612 0 -0.30090751538546595 1 I I #
face $-1 $-1 $472 $64 $-1 $641 forward single #
loop $-1 $-1 $642 $302 #
plane-surface $-1 55.128635517441325 0 0 -1 0 0 0 0 1 forward_v I I I I #
coedge $-1 $643 $644 $645 $646 reversed $303 $-1 #
coedge $-1 $647 $305 $307 $470 forward $190 $-1 #
coedge $-1 $305 $647 $643 $648 forward $190 $-1 #
coedge $-1 $645 $308 $305 $467 forward $472 $-1 #
edge $-1 $474 -2.0420658645676646 $649 3.9434881208425487 $466 $650 forward 7 unknown #
coedge $-1 $651 $652 $306 $469 forward $461 $-1 #
edge $-1 $653 -73.5724417907592 $473 -62.297801954826625 $468 $654 forward 7 unknown #
edge $-1 $474 91.522877143972934 $653 110.25727103488262 $307 $655 forward 7 unknown #
coedge $-1 $308 $645 $651 $656 forward $472 $-1 #
loop $-1 $-1 $645 $460 #
vertex $-1 $469 $657 #
vertex $-1 $309 $658 #
straight-curve $-1 16.713873610832813 1.0913547364302225 18.539610471343622 -1 0 0 I I #
coedge $-1 $476 $476 $-1 $659 reversed $312 $-1 #
edge $-1 $660 0 $660 6.2831853071796004 $313 $661 forward 7 unknown #
vertex $-1 $316 $662 #
ellipse-curve $-1 47.647659460973884 -3.6970884518979474 12.902290553377332 0.6018150307709319 0 0.79863550430605224 0.39931775215302612 0 -0.30090751538546595 1 I I #
coedge $-1 $480 $480 $-1 $663 reversed $319 $-1 #
edge $-1 $664 0 $664 6.2831853071796004 $320 $665 forward 7 unknown #
vertex $-1 $323 $666 #
ellipse-curve $-1 47.647659460973884 -1.9014222562748841 12.902290553377332 0.6018150307709319 0 0.79863550430605224 0.39931775215302612 0 -0.30090751538546595 1 I I #
coedge $-1 $484 $484 $-1 $667 reversed $326 $-1 #
edge $-1 $668 0 $668 6.2831853071796004 $327 $669 forward 7 unknown #
vertex $-1 $330 $670 #
ellipse-curve $-1 47.647659460973884 -0.10575606065182086 12.902290553377332 0.6018150307709319 0 0.79863550430605224 0.39931775215302612 0 -0.30090751538546595 1 I I #
face $-1 $-1 $500 $68 $-1 $671 forward single #
loop $-1 $-1 $672 $331 #
plane-surface $-1 55.128635517441325 0 0 -1 0 0 0 0 1 forward_v I I I I #
coedge $-1 $673 $674 $675 $676 reversed $332 $-1 #
coedge $-1 $677 $334 $336 $498 forward $209 $-1 #
coedge $-1 $334 $677 $673 $678 forward $209 $-1 #
coedge $-1 $675 $337 $334 $495 forward $500 $-1 #
edge $-1 $502 -6.9362651135476554 $679 -0.95071112813744207 $494 $680 forward 7 unknown #
coedge $-1 $681 $682 $335 $497 forward $489 $-1 #
edge $-1 $683 -73.5724417907592 $501 -62.297801954826625 $496 $684 forward 7 unknown #
edge $-1 $502 91.522877143972934 $683 110.25727103488262 $336 $685 forward 7 unknown #
coedge $-1 $337 $675 $681 $686 forward $500 $-1 #
loop $-1 $-1 $675 $488 #
vertex $-1 $497 $687 #
vertex $-1 $338 $688 #
straight-curve $-1 16.713873610832813 10.879753234390204 18.539610471343622 -1 0 0 I I #
coedge $-1 $504 $504 $-1 $689 reversed $341 $-1 #
edge $-1 $690 0 $690 6.2831853071796004 $342 $691 forward 7 unknown #
vertex $-1 $345 $692 #
ellipse-curve $-1 47.647659460973884 6.0913100460620342 12.902290553377332 0.6018150307709319 0 0.79863550430605224 0.39931775215302612 0 -0.30090751538546595 1 I I #
coedge $-1 $508 $508 $-1 $693 reversed $348 $-1 #
edge $-1 $694 0 $694 6.2831853071796004 $349 $695 forward 7 unknown #
vertex $-1 $352 $696 #
ellipse-curve $-1 47.647659460973884 7.8869762416850975 12.902290553377332 0.6018150307709319 0 0.79863550430605224 0.39931775215302612 0 -0.30090751538546595 1 I I #
coedge $-1 $512 $512 $-1 $697 reversed $355 $-1 #
edge $-1 $698 0 $698 6.2831853071796004 $356 $699 forward 7 unknown #
vertex $-1 $359 $700 #
ellipse-curve $-1 47.647659460973884 9.6826424373081608 12.902290553377332 0.6018150307709319 0 0.79863550430605224 0.39931775215302612 0 -0.30090751538546595 1 I I #
face $-1 $-1 $375 $54 $-1 $701 reversed single #
loop $-1 $-1 $532 $360 #
plane-surface $-1 0 37.271681911939844 0 0 -1 0 0 0 -1 forward_v I I I I #
coedge $-1 $702 $530 $533 $703 forward $361 $-1 #
coedge $-1 $536 $363 $364 $524 reversed $228 $-1 #
coedge $-1 $530 $702 $363 $522 reversed $361 $-1 #
edge $-1 $537 -18.539610471343618 $704 18.539610471343618 $521 $705 forward 7 unknown #
coedge $-1 $365 $364 $702 $706 forward $145 $-1 #
edge $-1 $528 -55.128635517441325 $704 55.128635517441325 $520 $707 forward 7 unknown #
coedge $-1 $533 $532 $365 $526 reversed $517 $-1 #
edge $-1 $708 -55.128635517441325 $527 55.128635517441325 $525 $709 forward 7 unknown #
vertex $-1 $367 $710 #
vertex $-1 $539 $711 #
straight-curve $-1 55.128635517441325 0 -18.539610471343618 0 -1 0 I I #
coedge $-1 $519 $521 $368 $531 reversed $361 $-1 #
edge $-1 $534 -37.271681911939844 $537 37.271681911939844 $530 $712 forward 7 unknown #
coedge $-1 $525 $369 $374 $540 forward $517 $-1 #
coedge $-1 $369 $525 $519 $703 reversed $517 $-1 #
vertex $-1 $370 $713 #
straight-curve $-1 0 37.271681911939844 18.539610471343618 -1 0 0 I I #
coedge $-1 $371 $520 $373 $539 reversed $228 $-1 #
vertex $-1 $531 $714 #
straight-curve $-1 0 -37.271681911939844 18.539610471343618 1 0 0 I I #
edge $-1 $376 -18.539610471343618 $528 18.539610471343618 $373 $715 forward 7 unknown #
edge $-1 $377 -18.539610471343618 $527 18.539610471343618 $374 $716 forward 7 unknown #
point $-1 55.128635517441325 -37.271681911939844 18.539610471343618 #
point $-1 55.128635517441325 37.271681911939844 18.539610471343618 #
face $-1 $-1 $557 $55 $-1 $717 reversed single #
loop $-1 $-1 $718 $379 #
plane-surface $-1 0 -59.860766076939719 15.96221591034897 0 1 0 0 0 1 forward_v I I I I #
coedge $-1 $719 $382 $391 $561 reversed $236 $-1 #
coedge $-1 $382 $719 $383 $549 reversed $236 $-1 #
coedge $-1 $384 $383 $720 $721 forward $149 $-1 #
edge $-1 $553 37.271681911939844 $722 59.860766076939719 $547 $723 forward 7 unknown #
coedge $-1 $724 $388 $384 $551 reversed $557 $-1 #
edge $-1 $725 -59.860766076939719 $552 -37.271681911939844 $550 $726 forward 7 unknown #
vertex $-1 $389 $727 #
vertex $-1 $549 $728 #
straight-curve $-1 0 -37.271681911939844 18.539610471343618 -1 0 0 I I #
straight-curve $-1 -55.128635517441325 -37.271681911939844 0 0 0 -1 I I #
coedge $-1 $388 $724 $390 $560 reversed $557 $-1 #
loop $-1 $-1 $388 $543 #
straight-curve $-1 55.128635517441325 -37.271681911939844 0 0 0 1 I I #
coedge $-1 $391 $390 $729 $730 forward $380 $-1 #
edge $-1 $392 -11.294542082499937 $731 11.294542082499937 $556 $732 forward 7 unknown #
edge $-1 $733 -11.294542082499937 $393 11.294542082499937 $546 $734 forward 7 unknown #
point $-1 55.128635517441325 -37.271681911939844 13.384821349354324 #
point $-1 -55.128635517441325 -37.271681911939844 13.384821349354324 #
face $-1 $-1 $579 $56 $-1 $735 reversed single #
loop $-1 $-1 $575 $395 #
plane-surface $-1 0 0 18.539610471343618 0 0 1 1 0 0 forward_v I I I I #
coedge $-1 $736 $737 $570 $738 forward $396 $-1 #
coedge $-1 $398 $405 $736 $739 forward $244 $-1 #
edge $-1 $740 -11.294542082499937 $407 11.294542082499937 $399 $741 forward 7 unknown #
coedge $-1 $400 $399 $567 $738 reversed $153 $-1 #
coedge $-1 $742 $575 $400 $572 forward $565 $-1 #
edge $-1 $573 37.271681911939844 $743 59.860766076939726 $400 $744 forward 7 unknown #
vertex $-1 $572 $745 #
straight-curve $-1 55.128635517441325 37.271681911939844 0 0 0 -1 I I #
coedge $-1 $571 $746 $402 $576 forward $565 $-1 #
edge $-1 $580 -55.128635517441325 $573 55.128635517441325 $575 $747 forward 7 unknown #
coedge $-1 $748 $403 $746 $749 reversed $579 $-1 #
coedge $-1 $403 $748 $405 $582 reversed $579 $-1 #
loop $-1 $-1 $403 $564 #
vertex $-1 $404 $750 #
straight-curve $-1 -55.128635517441325 37.271681911939844 0 0 0 1 I I #
edge $-1 $406 -11.294542082499937 $751 11.294542082499937 $578 $752 forward 7 unknown #
point $-1 -55.128635517441325 37.271681911939851 13.384821349354324 #
point $-1 55.128635517441325 37.271681911939851 13.384821349354324 #
plane-surface $-1 0 0 18.539610471343618 0 0 1 1 0 0 forward_v I I I I #
coedge $-1 $596 $595 $588 $753 forward $410 $-1 #
coedge $-1 $588 $412 $414 $592 reversed $252 $-1 #
coedge $-1 $412 $587 $586 $753 reversed $252 $-1 #
coedge $-1 $420 $415 $412 $590 forward $421 $-1 #
edge $-1 $593 -18.876516408300489 $754 -0.82902892829909547 $589 $755 forward 7 unknown #
coedge $-1 $414 $413 $596 $756 reversed $157 $-1 #
edge $-1 $757 8.3777685069199533e-015 $593 21.054801731112974 $587 $758 forward 7 unknown #
vertex $-1 $416 $759 #
straight-curve $-1 -37.081148037439924 -2.9204678806850239 18.539610471343618 0 1 0 I I #
coedge $-1 $586 $417 $420 $600 reversed $410 $-1 #
coedge $-1 $417 $586 $591 $756 forward $410 $-1 #
vertex $-1 $418 $760 #
straight-curve $-1 -55.128635517441325 -9.0754443493618826 51.102256358875032 0 0 1 I I #
straight-curve $-1 -55.128635517441332 -9.0754443493618826 7.6955857758871105 -0.85716729658548041 0 -0.51503808176128008 I I #
edge $-1 $754 2.6064271733782132 $422 9.0754443493618826 $595 $761 forward 7 unknown #
point $-1 -55.128635517441325 -9.0754443493618826 18.539610471343618 #
point $-1 -37.081148037439931 -9.0754443493618826 18.539610471343618 #
edge $-1 $762 1 $762 0 $425 $-1 forward 7 unknown #
vertex $-1 $426 $763 #
ellipse-curve $-1 -45.589853695679338 -7.227153727652265 12.260430827029884 -0.51503808176128008 0 0.85716729658548041 0.4285836482927402 0 0.25751904088064004 1 I I #
point $-1 -45.676308129147877 -7.227153727652265 13.375117164496004 #
edge $-1 $764 1 $764 0 $429 $-1 forward 7 unknown #
vertex $-1 $430 $765 #
ellipse-curve $-1 -45.589853695679338 -4.4547177950878378 12.260430827029884 -0.51503808176128008 0 0.85716729658548041 0.4285836482927402 0 0.25751904088064004 1 I I #
point $-1 -45.676308129147877 -4.4547177950878378 13.375117164496004 #
loop $-1 $-1 $441 $433 #
plane-surface $-1 55.128635517441325 0 0 -1 0 0 0 0 1 forward_v I I I I #
coedge $-1 $614 $436 $438 $618 reversed $274 $-1 #
coedge $-1 $436 $613 $766 $767 reversed $274 $-1 #
coedge $-1 $444 $439 $436 $616 forward $434 $-1 #
edge $-1 $619 23.452809793673616 $768 38.414761906608511 $615 $769 forward 7 unknown #
coedge $-1 $438 $437 $622 $770 reversed $171 $-1 #
edge $-1 $771 -110.25727103488262 $619 -91.522877143972934 $613 $772 forward 7 unknown #
vertex $-1 $440 $773 #
straight-curve $-1 40.166683404506436 -5.8449103771174311 18.539610471343622 0 -1 0 I I #
coedge $-1 $766 $441 $444 $626 reversed $611 $-1 #
coedge $-1 $441 $766 $617 $770 forward $611 $-1 #
vertex $-1 $442 $774 #
straight-curve $-1 55.128635517441325 -8.6970437615297556 80.837412426170246 0 0 1 I I #
straight-curve $-1 -32.926735738911248 -8.6970437615297556 73.619453595987906 0.79863550430605224 0 -0.6018150307709319 I I #
edge $-1 $768 -14.682597746939969 $445 -8.6970437615297556 $621 $775 forward 7 unknown #
point $-1 55.128635517441325 -8.6970437615297556 18.539610471343618 #
point $-1 40.166683404506429 -8.6970437615297556 18.539610471343622 #
edge $-1 $776 1 $776 0 $448 $-1 forward 7 unknown #
vertex $-1 $449 $777 #
ellipse-curve $-1 46.471028151079494 -13.485486949857926 11.340848097618077 0.6018150307709319 0 0.79863550430605224 0.39931775215302612 0 -0.30090751538546595 1 I I #
point $-1 48.046977213126901 -13.485486949857926 12.601383037991848 #
edge $-1 $778 1 $778 0 $452 $-1 forward 7 unknown #
vertex $-1 $453 $779 #
ellipse-curve $-1 46.471028151079494 -11.689820754234862 11.340848097618077 0.6018150307709319 0 0.79863550430605224 0.39931775215302612 0 -0.30090751538546595 1 I I #
point $-1 48.046977213126901 -11.689820754234862 12.601383037991848 #
edge $-1 $780 1 $780 0 $456 $-1 forward 7 unknown #
vertex $-1 $457 $781 #
ellipse-curve $-1 46.471028151079494 -9.8941545586117989 11.340848097618077 0.6018150307709319 0 0.79863550430605224 0.39931775215302612 0 -0.30090751538546595 1 I I #
point $-1 48.046977213126901 -9.8941545586117989 12.601383037991848 #
plane-surface $-1 0 0 18.539610471343618 0 0 1 1 0 0 forward_v I I I I #
coedge $-1 $652 $651 $644 $782 forward $461 $-1 #
coedge $-1 $644 $463 $465 $648 reversed $303 $-1 #
coedge $-1 $463 $643 $642 $782 reversed $303 $-1 #
coedge $-1 $471 $466 $463 $646 forward $472 $-1 #
edge $-1 $649 23.452809793673616 $783 38.414761906608511 $645 $784 forward 7 unknown #
coedge $-1 $465 $464 $652 $785 reversed $190 $-1 #
edge $-1 $786 -110.25727103488262 $649 -91.522877143972934 $643 $787 forward 7 unknown #
vertex $-1 $467 $788 #
straight-curve $-1 40.166683404506436 -0.95071112813744207 18.539610471343622 0 -1 0 I I #
coedge $-1 $642 $468 $471 $656 reversed $461 $-1 #
coedge $-1 $468 $642 $647 $785 forward $461 $-1 #
vertex $-1 $469 $789 #
straight-curve $-1 55.128635517441325 1.0913547364302225 80.837412426170246 0 0 1 I I #
straight-curve $-1 -32.926735738911248 1.0913547364302225 73.619453595987906 0.79863550430605224 0 -0.6018150307709319 I I #
edge $-1 $783 -4.8941992489799908 $473 1.0913547364302225 $651 $790 forward 7 unknown #
point $-1 55.128635517441325 1.0913547364302225 18.539610471343618 #
point $-1 40.166683404506429 1.0913547364302225 18.539610471343622 #
edge $-1 $791 1 $791 0 $476 $-1 forward 7 unknown #
vertex $-1 $477 $792 #
ellipse-curve $-1 46.471028151079494 -3.6970884518979474 11.340848097618077 0.6018150307709319 0 0.79863550430605224 0.39931775215302612 0 -0.30090751538546595 1 I I #
point $-1 48.046977213126901 -3.6970884518979474 12.601383037991848 #
edge $-1 $793 1 $793 0 $480 $-1 forward 7 unknown #
vertex $-1 $481 $794 #
ellipse-curve $-1 46.471028151079494 -1.9014222562748841 11.340848097618077 0.6018150307709319 0 0.79863550430605224 0.39931775215302612 0 -0.30090751538546595 1 I I #
point $-1 48.046977213126901 -1.9014222562748841 12.601383037991848 #
edge $-1 $795 1 $795 0 $484 $-1 forward 7 unknown #
vertex $-1 $485 $796 #
ellipse-curve $-1 46.471028151079494 -0.10575606065182086 11.340848097618077 0.6018150307709319 0 0.79863550430605224 0.39931775215302612 0 -0.30090751538546595 1 I I #
point $-1 48.046977213126901 -0.10575606065182086 12.601383037991848 #
plane-surface $-1 0 0 18.539610471343618 0 0 1 1 0 0 forward_v I I I I #
coedge $-1 $682 $681 $674 $797 forward $489 $-1 #
coedge $-1 $674 $491 $493 $678 reversed $332 $-1 #
coedge $-1 $491 $673 $672 $797 reversed $332 $-1 #
coedge $-1 $499 $494 $491 $676 forward $500 $-1 #
edge $-1 $679 23.452809793673616 $798 38.414761906608511 $675 $799 forward 7 unknown #
coedge $-1 $493 $492 $682 $800 reversed $209 $-1 #
edge $-1 $801 -110.25727103488262 $679 -91.522877143972934 $673 $802 forward 7 unknown #
vertex $-1 $495 $803 #
straight-curve $-1 40.166683404506436 3.9434881208425487 18.539610471343622 0 -1 0 I I #
coedge $-1 $672 $496 $499 $686 reversed $489 $-1 #
coedge $-1 $496 $672 $677 $800 forward $489 $-1 #
vertex $-1 $497 $804 #
straight-curve $-1 55.128635517441325 10.879753234390204 80.837412426170246 0 0 1 I I #
straight-curve $-1 -32.926735738911248 10.879753234390204 73.619453595987906 0.79863550430605224 0 -0.6018150307709319 I I #
edge $-1 $798 4.8941992489799908 $501 10.879753234390204 $681 $805 forward 7 unknown #
point $-1 55.128635517441325 10.879753234390204 18.539610471343618 #
point $-1 40.166683404506429 10.879753234390204 18.539610471343622 #
edge $-1 $806 1 $806 0 $504 $-1 forward 7 unknown #
vertex $-1 $505 $807 #
ellipse-curve $-1 46.471028151079494 6.0913100460620342 11.340848097618077 0.6018150307709319 0 0.79863550430605224 0.39931775215302612 0 -0.30090751538546595 1 I I #
point $-1 48.046977213126901 6.0913100460620342 12.601383037991848 #
edge $-1 $808 1 $808 0 $508 $-1 forward 7 unknown #
vertex $-1 $509 $809 #
ellipse-curve $-1 46.471028151079494 7.8869762416850975 11.340848097618077 0.6018150307709319 0 0.79863550430605224 0.39931775215302612 0 -0.30090751538546595 1 I I #
point $-1 48.046977213126901 7.8869762416850975 12.601383037991848 #
edge $-1 $810 1 $810 0 $512 $-1 forward 7 unknown #
vertex $-1 $513 $811 #
ellipse-curve $-1 46.471028151079494 9.6826424373081608 11.340848097618077 0.6018150307709319 0 0.79863550430605224 0.39931775215302612 0 -0.30090751538546595 1 I I #
point $-1 48.046977213126901 9.6826424373081608 12.601383037991848 #
plane-surface $-1 55.128635517441325 0 0 -1 0 0 0 0 1 forward_v I I I I #
coedge $-1 $521 $519 $523 $706 reversed $361 $-1 #
edge $-1 $534 -18.539610471343618 $708 18.539610471343618 $533 $812 forward 7 unknown #
vertex $-1 $706 $813 #
straight-curve $-1 -55.128635517441325 -37.271681911939844 0 0 0 -1 I I #
edge $-1 $704 -37.271681911939844 $708 37.271681911939844 $702 $814 forward 7 unknown #
straight-curve $-1 0 -37.271681911939844 -18.539610471343618 -1 0 0 I I #
vertex $-1 $526 $815 #
straight-curve $-1 0 37.271681911939844 -18.539610471343618 1 0 0 I I #
point $-1 55.128635517441325 37.271681911939844 -18.539610471343618 #
point $-1 55.128635517441325 -37.271681911939844 -18.539610471343618 #
straight-curve $-1 -55.128635517441325 0 18.539610471343618 0 -1 0 I I #
point $-1 -55.128635517441325 37.271681911939844 18.539610471343618 #
point $-1 -55.128635517441325 -37.271681911939844 18.539610471343618 #
straight-curve $-1 55.128635517441325 -37.271681911939844 0 0 0 -1 I I #
straight-curve $-1 55.128635517441325 37.271681911939844 0 0 0 -1 I I #
plane-surface $-1 55.128635517441325 0 0 -1 0 0 0 0 1 forward_v I I I I #
coedge $-1 $729 $720 $719 $816 forward $544 $-1 #
coedge $-1 $547 $546 $718 $816 reversed $236 $-1 #
coedge $-1 $718 $817 $548 $721 reversed $544 $-1 #
edge $-1 $722 -55.128635517441325 $725 55.128635517441325 $720 $818 forward 7 unknown #
vertex $-1 $549 $819 #
straight-curve $-1 -55.128635517441325 0 18.539610471343618 0 -1 0 I I #
coedge $-1 $556 $550 $817 $820 forward $557 $-1 #
vertex $-1 $551 $821 #
straight-curve $-1 55.128635517441325 0 18.539610471343618 0 1 0 I I #
point $-1 55.128635517441325 -37.271681911939844 18.539610471343618 #
point $-1 -55.128635517441325 -37.271681911939844 18.539610471343618 #
coedge $-1 $817 $718 $559 $730 reversed $544 $-1 #
edge $-1 $731 -55.128635517441325 $733 55.128635517441325 $729 $822 forward 7 unknown #
vertex $-1 $820 $823 #
straight-curve $-1 55.128635517441325 -48.566223994439781 13.384821349354324 0 -1 0 I I #
vertex $-1 $561 $824 #
straight-curve $-1 -55.128635517441325 -48.566223994439781 13.384821349354324 0 1 0 I I #
plane-surface $-1 -55.128635517441325 0 0 1 0 0 0 0 -1 forward_v I I I I #
coedge $-1 $825 $567 $568 $739 reversed $396 $-1 #
coedge $-1 $567 $825 $742 $826 reversed $396 $-1 #
edge $-1 $743 -2.5773945609946445 $740 2.5773945609946463 $570 $827 forward 7 unknown #
edge $-1 $751 -55.128635517441325 $740 55.128635517441325 $736 $828 forward 7 unknown #
vertex $-1 $569 $829 #
straight-curve $-1 55.128635517441325 48.566223994439788 13.384821349354324 0 -1 0 I I #
coedge $-1 $746 $571 $737 $826 forward $565 $-1 #
vertex $-1 $572 $830 #
straight-curve $-1 55.128635517441325 0 18.539610471343618 0 1 0 I I #
point $-1 55.128635517441325 37.271681911939844 18.539610471343618 #
coedge $-1 $575 $742 $577 $749 forward $565 $-1 #
straight-curve $-1 0 37.271681911939844 18.539610471343618 1 0 0 I I #
coedge $-1 $578 $577 $825 $831 forward $579 $-1 #
edge $-1 $832 -59.860766076939726 $580 -37.271681911939844 $577 $833 forward 7 unknown #
point $-1 -55.128635517441325 37.271681911939844 18.539610471343618 #
vertex $-1 $739 $834 #
straight-curve $-1 -55.128635517441325 48.566223994439788 13.384821349354324 0 1 0 I I #
edge $-1 $754 32.562645887531417 $757 43.406670582987914 $586 $835 forward 7 unknown #
vertex $-1 $600 $836 #
straight-curve $-1 -55.95766444574042 -2.6064271733782132 18.539610471343615 -1 0 0 I I #
edge $-1 $757 -0.31404070730681077 $597 6.1549764686768587 $596 $837 forward 7 unknown #
vertex $-1 $756 $838 #
straight-curve $-1 -55.128635517441332 -2.6064271733782132 7.6955857758871105 0.85716729658548041 0 0.51503808176128008 I I #
point $-1 -37.081148037439931 -2.6064271733782132 18.539610471343618 #
point $-1 -55.128635517441325 -9.0754443493618826 7.6955857758871149 #
straight-curve $-1 -55.128635517441325 0 18.539610471343618 0 -1 0 I I #
vertex $-1 $603 $839 #
point $-1 -45.161270047386601 -7.227153727652265 12.517949867910524 #
vertex $-1 $607 $840 #
point $-1 -45.161270047386601 -4.4547177950878378 12.517949867910524 #
coedge $-1 $622 $621 $614 $767 forward $611 $-1 #
edge $-1 $768 62.297801954826625 $771 73.5724417907592 $766 $841 forward 7 unknown #
vertex $-1 $626 $842 #
straight-curve $-1 16.713873610832813 -14.682597746939969 18.539610471343622 1 0 0 I I #
edge $-1 $771 -8.8376873698225378 $623 -2.8521333844123244 $622 $843 forward 7 unknown #
vertex $-1 $770 $844 #
straight-curve $-1 -32.926735738911248 -14.682597746939969 73.619453595987906 -0.79863550430605224 0 0.6018150307709319 I I #
point $-1 40.166683404506429 -14.682597746939969 18.539610471343622 #
point $-1 55.128635517441325 -8.6970437615297556 7.2649706354110464 #
straight-curve $-1 55.128635517441325 0 18.539610471343618 0 1 0 I I #
vertex $-1 $629 $845 #
point $-1 46.870345903232526 -13.485486949857926 11.03994058223261 #
vertex $-1 $633 $846 #
point $-1 46.870345903232526 -11.689820754234862 11.03994058223261 #
vertex $-1 $637 $847 #
point $-1 46.870345903232526 -9.8941545586117989 11.03994058223261 #
edge $-1 $783 62.297801954826625 $786 73.5724417907592 $642 $848 forward 7 unknown #
vertex $-1 $656 $849 #
straight-curve $-1 16.713873610832813 -4.8941992489799908 18.539610471343622 1 0 0 I I #
edge $-1 $786 -3.9434881208425487 $653 2.0420658645676646 $652 $850 forward 7 unknown #
vertex $-1 $785 $851 #
straight-curve $-1 -32.926735738911248 -4.8941992489799908 73.619453595987906 -0.79863550430605224 0 0.6018150307709319 I I #
point $-1 40.166683404506429 -4.8941992489799908 18.539610471343622 #
point $-1 55.128635517441325 1.0913547364302225 7.2649706354110464 #
straight-curve $-1 55.128635517441325 0 18.539610471343618 0 1 0 I I #
vertex $-1 $659 $852 #
point $-1 46.870345903232526 -3.6970884518979474 11.03994058223261 #
vertex $-1 $663 $853 #
point $-1 46.870345903232526 -1.9014222562748841 11.03994058223261 #
vertex $-1 $667 $854 #
point $-1 46.870345903232526 -0.10575606065182086 11.03994058223261 #
edge $-1 $798 62.297801954826625 $801 73.5724417907592 $672 $855 forward 7 unknown #
vertex $-1 $686 $856 #
straight-curve $-1 16.713873610832813 4.8941992489799908 18.539610471343622 1 0 0 I I #
edge $-1 $801 0.95071112813744207 $683 6.9362651135476554 $682 $857 forward 7 unknown #
vertex $-1 $800 $858 #
straight-curve $-1 -32.926735738911248 4.8941992489799908 73.619453595987906 -0.79863550430605224 0 0.6018150307709319 I I #
point $-1 40.166683404506429 4.8941992489799908 18.539610471343622 #
point $-1 55.128635517441325 10.879753234390204 7.2649706354110464 #
straight-curve $-1 55.128635517441325 0 18.539610471343618 0 1 0 I I #
vertex $-1 $689 $859 #
point $-1 46.870345903232526 6.0913100460620342 11.03994058223261 #
vertex $-1 $693 $860 #
point $-1 46.870345903232526 7.8869762416850975 11.03994058223261 #
vertex $-1 $697 $861 #
point $-1 46.870345903232526 9.6826424373081608 11.03994058223261 #
straight-curve $-1 -55.128635517441325 37.271681911939844 0 0 0 -1 I I #
point $-1 -55.128635517441325 -37.271681911939844 -18.539610471343618 #
straight-curve $-1 -55.128635517441325 0 -18.539610471343618 0 1 0 I I #
point $-1 -55.128635517441325 37.271681911939844 -18.539610471343618 #
edge $-1 $722 -2.5773945609946445 $733 2.5773945609946463 $719 $862 forward 7 unknown #
coedge $-1 $720 $729 $724 $820 reversed $544 $-1 #
straight-curve $-1 0 -59.860766076939719 18.539610471343615 1 0 0 I I #
point $-1 -55.128635517441325 -59.860766076939719 18.539610471343615 #
edge $-1 $725 -2.5773945609946445 $731 2.5773945609946463 $724 $863 forward 7 unknown #
point $-1 55.128635517441325 -59.860766076939719 18.539610471343615 #
straight-curve $-1 0 -59.860766076939719 13.384821349354324 -1 0 0 I I #
point $-1 55.128635517441325 -59.860766076939719 13.384821349354324 #
point $-1 -55.128635517441325 -59.860766076939719 13.384821349354324 #
coedge $-1 $737 $736 $748 $831 reversed $396 $-1 #
edge $-1 $743 -55.128635517441325 $832 55.128635517441325 $737 $864 forward 7 unknown #
straight-curve $-1 55.128635517441325 59.860766076939726 15.96221591034897 0 0 -1 I I #
straight-curve $-1 0 59.860766076939726 13.384821349354324 1 0 0 I I #
point $-1 55.128635517441325 59.860766076939726 13.384821349354324 #
point $-1 55.128635517441325 59.860766076939726 18.539610471343615 #
edge $-1 $832 -2.5773945609946445 $751 2.5773945609946463 $825 $865 forward 7 unknown #
vertex $-1 $826 $866 #
straight-curve $-1 -55.128635517441325 0 18.539610471343618 0 -1 0 I I #
point $-1 -55.128635517441325 59.860766076939726 13.384821349354324 #
straight-curve $-1 -55.128635517441325 -2.6064271733782132 51.102256358875032 0 0 -1 I I #
point $-1 -55.128635517441325 -2.6064271733782132 18.539610471343618 #
straight-curve $-1 -55.128635517441325 -2.9204678806850239 7.6955857758871105 0 -1 0 I I #
point $-1 -55.128635517441325 -2.6064271733782132 7.6955857758871149 #
point $-1 -45.3323346547987 -7.227153727652265 11.831847178737144 #
point $-1 -45.3323346547987 -4.4547177950878378 11.831847178737144 #
straight-curve $-1 55.128635517441325 -14.682597746939969 80.837412426170246 0 0 -1 I I #
point $-1 55.128635517441325 -14.682597746939969 18.539610471343618 #
straight-curve $-1 55.128635517441317 -5.8449103771174311 7.2649706354110428 0 1 0 I I #
point $-1 55.128635517441325 -14.682597746939969 7.2649706354110464 #
point $-1 46.170120635694033 -13.485486949857926 10.941530345465049 #
point $-1 46.170120635694033 -11.689820754234862 10.941530345465049 #
point $-1 46.170120635694033 -9.8941545586117989 10.941530345465049 #
straight-curve $-1 55.128635517441325 -4.8941992489799908 80.837412426170246 0 0 -1 I I #
point $-1 55.128635517441325 -4.8941992489799908 18.539610471343618 #
straight-curve $-1 55.128635517441317 -0.95071112813744207 7.2649706354110428 0 1 0 I I #
point $-1 55.128635517441325 -4.8941992489799908 7.2649706354110464 #
point $-1 46.170120635694033 -3.6970884518979474 10.941530345465049 #
point $-1 46.170120635694033 -1.9014222562748841 10.941530345465049 #
point $-1 46.170120635694033 -0.10575606065182086 10.941530345465049 #
straight-curve $-1 55.128635517441325 4.8941992489799908 80.837412426170246 0 0 -1 I I #
point $-1 55.128635517441325 4.8941992489799908 18.539610471343618 #
straight-curve $-1 55.128635517441317 3.9434881208425487 7.2649706354110428 0 1 0 I I #
point $-1 55.128635517441325 4.8941992489799908 7.2649706354110464 #
point $-1 46.170120635694033 6.0913100460620342 10.941530345465049 #
point $-1 46.170120635694033 7.8869762416850975 10.941530345465049 #
point $-1 46.170120635694033 9.6826424373081608 10.941530345465049 #
straight-curve $-1 -55.128635517441325 -59.860766076939719 15.96221591034897 0 0 -1 I I #
straight-curve $-1 55.128635517441325 -59.860766076939719 15.96221591034897 0 0 -1 I I #
straight-curve $-1 0 59.860766076939726 18.539610471343615 -1 0 0 I I #
straight-curve $-1 -55.128635517441325 59.860766076939726 15.96221591034897 0 0 -1 I I #
point $-1 -55.128635517441325 59.860766076939726 18.539610471343615 #
End-of-ACIS-data 