500 0 8 0           
7 Unknown 11 ACIS 5.0 NT 24 Fri Mar 26 15:10:11 1999 
-1 9.9999999999999995e-007 1e-010 
body $-1 $8 $-1 $9 #
body $-1 $10 $-1 $11 #
body $-1 $12 $-1 $13 #
body $-1 $14 $-1 $15 #
body $-1 $16 $-1 $17 #
body $-1 $18 $-1 $19 #
body $-1 $20 $-1 $21 #
body $-1 $22 $-1 $23 #
lump $-1 $-1 $24 $0 #
transform $-1 1 0 0 0 1 0 0 0 1 72.072511978514967 45.534773880062836 14.475741830312161 1 rotate no_reflect no_shear #
lump $-1 $-1 $25 $1 #
transform $-1 1 0 0 0 1 0 0 0 1 72.072511978514967 45.534773880062836 14.475741830312161 1 rotate no_reflect no_shear #
lump $-1 $-1 $26 $2 #
transform $-1 1 0 0 0 1 0 0 0 1 72.072511978514967 45.534773880062836 14.475741830312161 1 rotate no_reflect no_shear #
lump $-1 $-1 $27 $3 #
transform $-1 1 0 0 0 1 0 0 0 1 72.072511978514967 45.534773880062836 14.475741830312161 1 rotate no_reflect no_shear #
lump $-1 $-1 $28 $4 #
transform $-1 1 0 0 0 1 0 0 0 1 72.072511978514967 45.534773880062836 14.475741830312161 1 rotate no_reflect no_shear #
lump $-1 $-1 $29 $5 #
transform $-1 1 0 0 0 1 0 0 0 1 72.072511978514967 45.534773880062836 14.475741830312161 1 rotate no_reflect no_shear #
lump $-1 $-1 $30 $6 #
transform $-1 1 0 0 0 1 0 0 0 1 72.072511978514967 45.534773880062836 14.475741830312161 1 rotate no_reflect no_shear #
lump $-1 $-1 $31 $7 #
transform $-1 1 0 0 0 1 0 0 0 1 72.072511978514967 45.534773880062836 14.475741830312161 1 rotate no_reflect no_shear #
shell $-1 $-1 $-1 $32 $-1 $8 #
shell $-1 $-1 $-1 $33 $-1 $10 #
shell $-1 $-1 $-1 $34 $-1 $12 #
shell $-1 $-1 $-1 $35 $-1 $14 #
shell $-1 $-1 $-1 $36 $-1 $16 #
shell $-1 $-1 $-1 $37 $-1 $18 #
shell $-1 $-1 $-1 $38 $-1 $20 #
shell $-1 $-1 $-1 $39 $-1 $22 #
face $-1 $40 $41 $24 $-1 $42 forward single #
face $-1 $43 $44 $25 $-1 $45 reversed single #
face $-1 $46 $47 $26 $-1 $48 reversed single #
face $-1 $49 $50 $27 $-1 $51 forward single #
face $-1 $52 $53 $28 $-1 $54 forward single #
face $-1 $55 $56 $29 $-1 $57 reversed single #
face $-1 $58 $59 $30 $-1 $60 forward single #
face $-1 $61 $62 $31 $-1 $63 forward single #
face $-1 $64 $65 $24 $-1 $66 reversed single #
loop $-1 $-1 $67 $32 #
plane-surface $-1 0 0 14.475741830312161 0 0 1 1 0 0 forward_v I I I I #
face $-1 $68 $69 $25 $-1 $70 reversed single #
loop $-1 $-1 $71 $33 #
plane-surface $-1 -51.02841388937285 -39.134880850462068 0 1 0 0 0 0 -1 forward_v I I I I #
face $-1 $72 $73 $26 $-1 $74 reversed single #
loop $-1 $-1 $75 $34 #
plane-surface $-1 117.92920304785929 35.453364863102152 208.51567078771004 0 1 0 0.84804810408105047 0 0.52991925155115449 forward_v I I I I #
face $-1 $76 $77 $27 $-1 $78 forward single #
loop $-1 $79 $80 $35 #
cone-surface $-1 69.015188324110497 38.333767439376636 11.167274354495735 -0.84804810408105047 0 -0.52991925155115449 0.52991925155115449 0 -0.84804810408105047 1 I I 0 1 1 forward I I I I #
face $-1 $81 $82 $28 $-1 $83 forward single #
loop $-1 $84 $85 $36 #
cone-surface $-1 69.015188324110497 42.654371303788359 11.167274354495735 -0.84804810408105047 0 -0.52991925155115449 0.52991925155115449 0 -0.84804810408105047 1 I I 0 1 1 forward I I I I #
face $-1 $86 $87 $29 $-1 $88 reversed single #
loop $-1 $-1 $89 $37 #
plane-surface $-1 -194.31442625799181 35.453364863102152 86.273756508233191 0 1 0 -0.84804810408105047 0 0.52991925155115449 forward_v I I I I #
face $-1 $90 $91 $30 $-1 $92 forward single #
loop $-1 $93 $94 $38 #
cone-surface $-1 -69.015188324110497 38.333767439376636 11.167274354495728 0.84804810408105047 0 -0.52991925155115449 0.52991925155115449 0 0.84804810408105047 1 I I 0 1 1 forward I I I I #
face $-1 $95 $96 $31 $-1 $97 forward single #
loop $-1 $98 $99 $39 #
cone-surface $-1 -69.015188324110497 42.654371303788359 11.167274354495728 0.84804810408105047 0 -0.52991925155115449 0.52991925155115449 0 0.84804810408105047 1 I I 0 1 1 forward I I I I #
face $-1 $100 $101 $24 $-1 $102 reversed single #
loop $-1 $-1 $103 $40 #
plane-surface $-1 0 0 -14.475741830312161 0 0 1 1 0 0 forward_v I I I I #
coedge $-1 $104 $105 $106 $107 forward $41 $-1 #
face $-1 $108 $109 $25 $-1 $110 reversed single #
loop $-1 $-1 $111 $43 #
plane-surface $-1 -47.074721103631745 -32.734987820861299 0 0 -1 0 0 0 -1 forward_v I I I I #
coedge $-1 $112 $113 $114 $115 forward $44 $-1 #
face $-1 $116 $117 $26 $-1 $118 reversed single #
loop $-1 $-1 $119 $46 #
plane-surface $-1 -4.3127112316175413 40.494069371582491 132.13044757757751 0.84804810408105047 0 0.52991925155115449 0.52991925155115449 0 -0.84804810408105047 forward_v I I I I #
coedge $-1 $120 $121 $122 $123 reversed $47 $-1 #
face $-1 $-1 $124 $27 $-1 $125 forward single #
loop $-1 $126 $127 $49 #
cone-surface $-1 66.967043581271355 38.333767439376636 9.8874515190094865 -0.84804810408105047 0 -0.52991925155115449 0.26495962577557725 0 -0.42402405204052523 1 I I -0.70710678118654746 0.70710678118654746 0.5 forward I I I I #
loop $-1 $-1 $128 $35 #
coedge $-1 $80 $80 $129 $130 reversed $50 $-1 #
face $-1 $-1 $131 $28 $-1 $132 forward single #
loop $-1 $133 $134 $52 #
cone-surface $-1 66.967043581271355 42.654371303788359 9.8874515190094865 -0.84804810408105047 0 -0.52991925155115449 0.26495962577557725 0 -0.42402405204052523 1 I I -0.70710678118654746 0.70710678118654746 0.5 forward I I I I #
loop $-1 $-1 $135 $36 #
coedge $-1 $85 $85 $136 $137 reversed $53 $-1 #
face $-1 $138 $139 $29 $-1 $140 forward single #
loop $-1 $-1 $141 $55 #
plane-surface $-1 -72.072511978514981 40.494069371582491 9.8885332981006542 -0.84804810408105047 0 0.52991925155115449 0.52991925155115449 0 0.84804810408105047 forward_v I I I I #
coedge $-1 $142 $143 $144 $145 reversed $56 $-1 #
face $-1 $-1 $146 $30 $-1 $147 forward single #
loop $-1 $148 $149 $58 #
cone-surface $-1 -66.967043581271355 38.333767439376636 9.8874515190094794 0.84804810408105047 0 -0.52991925155115449 0.26495962577557725 0 0.42402405204052523 1 I I -0.70710678118654746 0.70710678118654746 0.5 forward I I I I #
loop $-1 $-1 $150 $38 #
coedge $-1 $94 $94 $151 $152 reversed $59 $-1 #
face $-1 $-1 $153 $31 $-1 $154 forward single #
loop $-1 $155 $156 $61 #
cone-surface $-1 -66.967043581271355 42.654371303788359 9.8874515190094794 0.84804810408105047 0 -0.52991925155115449 0.26495962577557725 0 0.42402405204052523 1 I I -0.70710678118654746 0.70710678118654746 0.5 forward I I I I #
loop $-1 $-1 $157 $39 #
coedge $-1 $99 $99 $158 $159 reversed $62 $-1 #
face $-1 $160 $161 $24 $-1 $162 reversed single #
loop $-1 $-1 $163 $64 #
plane-surface $-1 0 -45.534773880062836 0 0 1 0 0 0 1 forward_v I I I I #
coedge $-1 $164 $165 $166 $167 forward $65 $-1 #
coedge $-1 $168 $67 $169 $170 forward $41 $-1 #
coedge $-1 $67 $168 $171 $172 forward $41 $-1 #
coedge $-1 $173 $174 $67 $107 reversed $175 $-1 #
edge $-1 $176 -45.534773880062836 $177 45.534773880062836 $106 $178 forward 7 unknown #
face $-1 $179 $180 $25 $-1 $181 forward single #
loop $-1 $-1 $182 $68 #
plane-surface $-1 -43.121028317890641 -39.134880850462068 0 -1 0 0 0 0 1 forward_v I I I I #
coedge $-1 $183 $184 $185 $186 forward $69 $-1 #
coedge $-1 $187 $71 $188 $189 reversed $44 $-1 #
coedge $-1 $71 $187 $190 $191 reversed $44 $-1 #
coedge $-1 $184 $183 $71 $115 reversed $69 $-1 #
edge $-1 $192 -14.475741830312161 $193 14.475741830312161 $114 $194 forward 7 unknown #
face $-1 $195 $196 $26 $-1 $197 reversed single #
loop $-1 $-1 $122 $72 #
plane-surface $-1 72.072511978514967 0 0 -1 0 0 0 0 1 forward_v I I I I #
coedge $-1 $198 $199 $200 $201 reversed $73 $-1 #
coedge $-1 $121 $75 $202 $203 reversed $47 $-1 #
coedge $-1 $75 $120 $198 $204 reversed $47 $-1 #
coedge $-1 $200 $205 $75 $123 forward $117 $-1 #
edge $-1 $206 89.782093563542858 $207 94.369302095754293 $122 $208 forward 7 unknown #
loop $-1 $-1 $129 $76 #
plane-surface $-1 -4.3127112316175413 40.494069371582491 132.13044757757751 0.84804810408105047 0 0.52991925155115449 0.52991925155115449 0 -0.84804810408105047 forward_v I I I I #
loop $-1 $-1 $209 $49 #
coedge $-1 $127 $127 $128 $210 reversed $77 $-1 #
coedge $-1 $128 $128 $127 $210 forward $79 $-1 #
coedge $-1 $129 $129 $80 $130 forward $124 $-1 #
edge $-1 $211 0 $211 6.2831853071796004 $129 $212 forward 7 unknown #
loop $-1 $-1 $136 $81 #
plane-surface $-1 -4.3127112316175413 40.494069371582491 132.13044757757751 0.84804810408105047 0 0.52991925155115449 0.52991925155115449 0 -0.84804810408105047 forward_v I I I I #
loop $-1 $-1 $213 $52 #
coedge $-1 $134 $134 $135 $214 reversed $82 $-1 #
coedge $-1 $135 $135 $134 $214 forward $84 $-1 #
coedge $-1 $136 $136 $85 $137 forward $131 $-1 #
edge $-1 $215 0 $215 6.2831853071796004 $136 $216 forward 7 unknown #
face $-1 $217 $218 $29 $-1 $219 reversed single #
loop $-1 $-1 $144 $86 #
plane-surface $-1 0 0 14.475741830312161 0 0 1 1 0 0 forward_v I I I I #
coedge $-1 $220 $221 $222 $223 reversed $87 $-1 #
coedge $-1 $143 $89 $224 $225 reversed $56 $-1 #
coedge $-1 $89 $142 $220 $226 reversed $56 $-1 #
coedge $-1 $222 $227 $89 $145 forward $139 $-1 #
edge $-1 $228 25.084701150480939 $229 27.951107077692654 $144 $230 forward 7 unknown #
loop $-1 $-1 $151 $90 #
plane-surface $-1 -72.072511978514981 40.494069371582491 9.8885332981006542 -0.84804810408105047 0 0.52991925155115449 0.52991925155115449 0 0.84804810408105047 forward_v I I I I #
loop $-1 $-1 $231 $58 #
coedge $-1 $149 $149 $150 $232 reversed $91 $-1 #
coedge $-1 $150 $150 $149 $232 forward $93 $-1 #
coedge $-1 $151 $151 $94 $152 forward $146 $-1 #
edge $-1 $233 0 $233 6.2831853071796004 $151 $234 forward 7 unknown #
loop $-1 $-1 $158 $95 #
plane-surface $-1 -72.072511978514981 40.494069371582491 9.8885332981006542 -0.84804810408105047 0 0.52991925155115449 0.52991925155115449 0 0.84804810408105047 forward_v I I I I #
loop $-1 $-1 $235 $61 #
coedge $-1 $156 $156 $157 $236 reversed $96 $-1 #
coedge $-1 $157 $157 $156 $236 forward $98 $-1 #
coedge $-1 $158 $158 $99 $159 forward $153 $-1 #
edge $-1 $237 0 $237 6.2831853071796004 $158 $238 forward 7 unknown #
face $-1 $239 $240 $24 $-1 $241 reversed single #
loop $-1 $-1 $242 $100 #
plane-surface $-1 -72.072511978514967 0 0 1 0 0 0 0 -1 forward_v I I I I #
coedge $-1 $243 $171 $244 $245 forward $101 $-1 #
coedge $-1 $246 $103 $243 $247 forward $65 $-1 #
coedge $-1 $103 $246 $248 $249 forward $65 $-1 #
coedge $-1 $174 $173 $103 $167 reversed $175 $-1 #
edge $-1 $250 -45.534773880062836 $251 45.534773880062836 $166 $252 forward 7 unknown #
coedge $-1 $105 $104 $253 $254 forward $41 $-1 #
coedge $-1 $255 $256 $104 $170 reversed $240 $-1 #
edge $-1 $177 -72.072511978514967 $257 72.072511978514967 $169 $258 forward 7 unknown #
coedge $-1 $163 $259 $105 $172 reversed $101 $-1 #
edge $-1 $260 -72.072511978514967 $176 72.072511978514967 $171 $261 forward 7 unknown #
coedge $-1 $166 $106 $259 $262 forward $175 $-1 #
coedge $-1 $106 $166 $255 $263 reversed $175 $-1 #
loop $-1 $-1 $173 $239 #
vertex $-1 $107 $264 #
vertex $-1 $107 $265 #
straight-curve $-1 72.072511978514967 0 14.475741830312161 0 1 0 I I #
face $-1 $266 $267 $25 $-1 $268 reversed single #
loop $-1 $-1 $269 $108 #
plane-surface $-1 0 0 14.475741830312161 0 0 1 1 0 0 forward_v I I I I #
coedge $-1 $270 $271 $272 $273 reversed $109 $-1 #
coedge $-1 $114 $111 $274 $275 reversed $69 $-1 #
coedge $-1 $111 $114 $276 $277 reversed $69 $-1 #
coedge $-1 $271 $270 $111 $186 reversed $109 $-1 #
edge $-1 $278 -14.475741830312161 $279 14.475741830312161 $185 $280 forward 7 unknown #
coedge $-1 $113 $112 $281 $282 reversed $44 $-1 #
coedge $-1 $274 $283 $112 $189 forward $267 $-1 #
edge $-1 $284 -25.967333454831802 $193 -13.167547395630265 $188 $285 forward 7 unknown #
coedge $-1 $286 $276 $113 $191 forward $180 $-1 #
edge $-1 $192 13.167547395630265 $287 25.967333454831802 $190 $288 forward 7 unknown #
vertex $-1 $191 $289 #
vertex $-1 $189 $290 #
straight-curve $-1 -51.02841388937285 -32.734987820861299 0 0 0 -1 I I #
face $-1 $-1 $291 $26 $-1 $292 forward single #
loop $-1 $-1 $293 $116 #
plane-surface $-1 0 45.534773880062836 0 0 -1 0 0 0 -1 forward_v I I I I #
coedge $-1 $294 $119 $121 $204 forward $73 $-1 #
coedge $-1 $119 $294 $293 $295 reversed $73 $-1 #
coedge $-1 $296 $122 $119 $201 forward $117 $-1 #
edge $-1 $207 15.206330177310907 $297 25.287739194271591 $200 $298 forward 7 unknown #
coedge $-1 $299 $300 $120 $203 forward $291 $-1 #
edge $-1 $301 10.24150452737365 $206 13.107910454585323 $202 $302 forward 7 unknown #
edge $-1 $207 -144.14502395702988 $301 -138.73588677467376 $121 $303 forward 7 unknown #
coedge $-1 $122 $296 $299 $304 reversed $117 $-1 #
vertex $-1 $304 $305 #
vertex $-1 $123 $306 #
straight-curve $-1 72.072511978514967 35.453364863102152 104.25783539385502 0 0 -1 I I #
coedge $-1 $209 $209 $-1 $307 reversed $126 $-1 #
edge $-1 $308 0 $308 6.2831853071796004 $127 $309 forward 7 unknown #
vertex $-1 $130 $310 #
ellipse-curve $-1 70.639309014909131 38.333767439376636 12.182137564206423 0.84804810408105047 0 0.52991925155115449 0.52991925155115449 0 -0.84804810408105047 1 I I #
coedge $-1 $213 $213 $-1 $311 reversed $133 $-1 #
edge $-1 $312 0 $312 6.2831853071796004 $134 $313 forward 7 unknown #
vertex $-1 $137 $314 #
ellipse-curve $-1 70.639309014909131 42.654371303788359 12.182137564206423 0.84804810408105047 0 0.52991925155115449 0.52991925155115449 0 -0.84804810408105047 1 I I #
face $-1 $-1 $315 $29 $-1 $316 reversed single #
loop $-1 $-1 $317 $138 #
plane-surface $-1 0 45.534773880062836 0 0 -1 0 0 0 -1 forward_v I I I I #
coedge $-1 $318 $141 $143 $226 forward $87 $-1 #
coedge $-1 $141 $318 $317 $319 reversed $87 $-1 #
coedge $-1 $320 $144 $141 $223 forward $139 $-1 #
edge $-1 $229 15.206330177310907 $321 25.287739194271584 $222 $322 forward 7 unknown #
coedge $-1 $323 $324 $142 $225 forward $315 $-1 #
edge $-1 $325 -33.24834495601592 $228 -28.661136423804436 $224 $326 forward 7 unknown #
edge $-1 $229 -5.4091371823562202 $325 -2.7114274142304302e-014 $143 $327 forward 7 unknown #
coedge $-1 $144 $320 $323 $328 forward $139 $-1 #
vertex $-1 $225 $329 #
vertex $-1 $145 $330 #
straight-curve $-1 -97.157213128995906 35.453364863102152 14.47574183031216 1 0 0 I I #
coedge $-1 $231 $231 $-1 $331 reversed $148 $-1 #
edge $-1 $332 0 $332 6.2831853071796004 $149 $333 forward 7 unknown #
vertex $-1 $152 $334 #
ellipse-curve $-1 -70.639309014909117 38.333767439376636 12.182137564206405 -0.84804810408105047 0 0.52991925155115449 0.52991925155115449 0 0.84804810408105047 1 I I #
coedge $-1 $235 $235 $-1 $335 reversed $155 $-1 #
edge $-1 $336 0 $336 6.2831853071796004 $156 $337 forward 7 unknown #
vertex $-1 $159 $338 #
ellipse-curve $-1 -70.639309014909117 42.654371303788359 12.182137564206405 -0.84804810408105047 0 0.52991925155115449 0.52991925155115449 0 0.84804810408105047 1 I I #
face $-1 $-1 $175 $24 $-1 $339 reversed single #
loop $-1 $-1 $255 $160 #
plane-surface $-1 0 45.534773880062836 0 0 -1 0 0 0 -1 forward_v I I I I #
coedge $-1 $340 $253 $256 $341 forward $161 $-1 #
coedge $-1 $259 $163 $164 $247 reversed $101 $-1 #
coedge $-1 $253 $340 $163 $245 reversed $161 $-1 #
edge $-1 $260 -14.475741830312161 $342 14.475741830312161 $244 $343 forward 7 unknown #
coedge $-1 $165 $164 $340 $344 forward $65 $-1 #
edge $-1 $251 -72.072511978514967 $342 72.072511978514967 $243 $345 forward 7 unknown #
coedge $-1 $256 $255 $165 $249 reversed $240 $-1 #
edge $-1 $346 -72.072511978514967 $250 72.072511978514967 $248 $347 forward 7 unknown #
vertex $-1 $167 $348 #
vertex $-1 $262 $349 #
straight-curve $-1 72.072511978514967 0 -14.475741830312161 0 -1 0 I I #
coedge $-1 $242 $244 $168 $254 reversed $161 $-1 #
edge $-1 $257 -45.534773880062836 $260 45.534773880062836 $253 $350 forward 7 unknown #
coedge $-1 $248 $169 $174 $263 forward $240 $-1 #
coedge $-1 $169 $248 $242 $341 reversed $240 $-1 #
vertex $-1 $170 $351 #
straight-curve $-1 0 45.534773880062836 14.475741830312161 -1 0 0 I I #
coedge $-1 $171 $243 $173 $262 reversed $101 $-1 #
vertex $-1 $254 $352 #
straight-curve $-1 0 -45.534773880062836 14.475741830312161 1 0 0 I I #
edge $-1 $176 -14.475741830312161 $251 14.475741830312161 $173 $353 forward 7 unknown #
edge $-1 $177 -14.475741830312161 $250 14.475741830312161 $174 $354 forward 7 unknown #
point $-1 72.072511978514967 -45.534773880062836 14.475741830312161 #
point $-1 72.072511978514967 45.534773880062836 14.475741830312161 #
face $-1 $-1 $355 $25 $-1 $356 reversed single #
loop $-1 $-1 $357 $179 #
plane-surface $-1 0 0 -14.475741830312161 0 0 1 1 0 0 forward_v I I I I #
coedge $-1 $276 $286 $271 $358 forward $180 $-1 #
coedge $-1 $185 $182 $357 $359 reversed $109 $-1 #
coedge $-1 $182 $185 $269 $358 reversed $109 $-1 #
coedge $-1 $360 $361 $182 $273 forward $355 $-1 #
edge $-1 $362 -14.475741830312161 $363 14.475741830312161 $272 $364 forward 7 unknown #
coedge $-1 $357 $188 $183 $275 forward $267 $-1 #
edge $-1 $193 -27.491053337556977 $279 -19.583667766074768 $274 $365 forward 7 unknown #
coedge $-1 $190 $269 $184 $277 forward $180 $-1 #
edge $-1 $278 19.583667766074768 $192 27.491053337556977 $276 $366 forward 7 unknown #
vertex $-1 $277 $367 #
vertex $-1 $275 $368 #
straight-curve $-1 -43.121028317890641 -32.734987820861299 0 0 0 -1 I I #
coedge $-1 $361 $360 $187 $282 forward $355 $-1 #
edge $-1 $287 -14.475741830312161 $284 14.475741830312161 $281 $369 forward 7 unknown #
coedge $-1 $188 $357 $361 $370 forward $267 $-1 #
vertex $-1 $189 $371 #
straight-curve $-1 -51.02841388937285 -19.567440425231034 -14.475741830312161 0 1 0 I I #
coedge $-1 $269 $190 $360 $372 forward $180 $-1 #
vertex $-1 $372 $373 #
straight-curve $-1 -51.02841388937285 -19.567440425231034 14.475741830312161 0 -1 0 I I #
point $-1 -51.02841388937285 -32.734987820861299 14.475741830312161 #
point $-1 -51.02841388937285 -32.734987820861299 -14.475741830312161 #
loop $-1 $-1 $202 $195 #
plane-surface $-1 0 0 14.475741830312161 0 0 1 1 0 0 forward_v I I I I #
coedge $-1 $374 $375 $199 $295 forward $196 $-1 #
coedge $-1 $199 $198 $300 $376 reversed $73 $-1 #
edge $-1 $297 -86.975841823249766 $377 -81.566704640893633 $293 $378 forward 7 unknown #
coedge $-1 $205 $200 $375 $379 reversed $117 $-1 #
vertex $-1 $295 $380 #
straight-curve $-1 72.072511978514967 20.247034685791245 9.8885332981007252 0 1 0 I I #
coedge $-1 $381 $202 $205 $304 forward $291 $-1 #
coedge $-1 $202 $381 $294 $376 forward $291 $-1 #
vertex $-1 $203 $382 #
straight-curve $-1 58.964601523929645 35.453364863102152 14.47574183031216 1 0 0 I I #
straight-curve $-1 -4.3127112316175413 35.453364863102152 132.13044757757751 -0.52991925155115449 0 0.84804810408105047 I I #
edge $-1 $206 35.453364863102152 $383 45.534773880062836 $205 $384 forward 7 unknown #
point $-1 72.072511978514967 35.453364863102152 14.475741830312161 #
point $-1 72.072511978514967 35.453364863102152 9.8885332981007252 #
edge $-1 $385 1 $385 0 $209 $-1 forward 7 unknown #
vertex $-1 $210 $386 #
ellipse-curve $-1 67.391067633311877 38.333767439376636 10.152411144785063 0.84804810408105047 0 0.52991925155115449 0.52991925155115449 0 -0.84804810408105047 1 I I #
point $-1 71.169228266460266 38.333767439376636 11.334089460125357 #
edge $-1 $387 1 $387 0 $213 $-1 forward 7 unknown #
vertex $-1 $214 $388 #
ellipse-curve $-1 67.391067633311877 42.654371303788359 10.152411144785063 0.84804810408105047 0 0.52991925155115449 0.52991925155115449 0 -0.84804810408105047 1 I I #
point $-1 71.169228266460266 42.654371303788359 11.334089460125357 #
loop $-1 $-1 $224 $217 #
plane-surface $-1 -72.072511978514967 0 0 1 0 0 0 0 -1 forward_v I I I I #
coedge $-1 $389 $390 $221 $319 forward $218 $-1 #
coedge $-1 $221 $220 $324 $391 reversed $87 $-1 #
edge $-1 $321 9.4941926623786195 $392 14.903329844734813 $317 $393 forward 7 unknown #
coedge $-1 $227 $222 $390 $394 forward $139 $-1 #
vertex $-1 $394 $395 #
straight-curve $-1 -69.206106051303252 20.247034685791245 14.47574183031216 0 1 0 I I #
coedge $-1 $396 $224 $227 $328 reversed $315 $-1 #
coedge $-1 $224 $396 $318 $391 forward $315 $-1 #
vertex $-1 $225 $397 #
straight-curve $-1 -72.072511978514967 35.453364863102152 43.136878254116596 0 0 1 I I #
straight-curve $-1 -72.072511978514981 35.453364863102152 9.8885332981006542 -0.52991925155115449 0 -0.84804810408105047 I I #
edge $-1 $398 -45.534773880062836 $228 -35.453364863102152 $323 $399 forward 7 unknown #
point $-1 -72.072511978514967 35.453364863102152 14.475741830312161 #
point $-1 -69.206106051303252 35.453364863102152 14.475741830312161 #
edge $-1 $400 1 $400 0 $231 $-1 forward 7 unknown #
vertex $-1 $232 $401 #
ellipse-curve $-1 -67.391067633311877 38.333767439376636 10.152411144785056 -0.84804810408105047 0 0.52991925155115449 0.52991925155115449 0 0.84804810408105047 1 I I #
point $-1 -70.109389763357953 38.333767439376636 13.030185668287452 #
edge $-1 $402 1 $402 0 $235 $-1 forward 7 unknown #
vertex $-1 $236 $403 #
ellipse-curve $-1 -67.391067633311877 42.654371303788359 10.152411144785056 -0.84804810408105047 0 0.52991925155115449 0.52991925155115449 0 0.84804810408105047 1 I I #
point $-1 -70.109389763357953 42.654371303788359 13.030185668287452 #
plane-surface $-1 72.072511978514967 0 0 -1 0 0 0 0 1 forward_v I I I I #
coedge $-1 $244 $242 $246 $344 reversed $161 $-1 #
edge $-1 $257 -14.475741830312161 $346 14.475741830312161 $256 $404 forward 7 unknown #
vertex $-1 $344 $405 #
straight-curve $-1 -72.072511978514967 -45.534773880062836 0 0 0 -1 I I #
edge $-1 $342 -45.534773880062836 $346 45.534773880062836 $340 $406 forward 7 unknown #
straight-curve $-1 0 -45.534773880062836 -14.475741830312161 -1 0 0 I I #
vertex $-1 $249 $407 #
straight-curve $-1 0 45.534773880062836 -14.475741830312161 1 0 0 I I #
point $-1 72.072511978514967 45.534773880062836 -14.475741830312161 #
point $-1 72.072511978514967 -45.534773880062836 -14.475741830312161 #
straight-curve $-1 -72.072511978514967 0 14.475741830312161 0 -1 0 I I #
point $-1 -72.072511978514967 45.534773880062836 14.475741830312161 #
point $-1 -72.072511978514967 -45.534773880062836 14.475741830312161 #
straight-curve $-1 72.072511978514967 -45.534773880062836 0 0 0 -1 I I #
straight-curve $-1 72.072511978514967 45.534773880062836 0 0 0 -1 I I #
loop $-1 $-1 $272 $266 #
plane-surface $-1 0 -45.534773880062836 0 0 1 0 0 0 1 forward_v I I I I #
coedge $-1 $283 $274 $270 $359 forward $267 $-1 #
edge $-1 $363 -25.967333454831802 $278 -13.167547395630265 $269 $408 forward 7 unknown #
edge $-1 $279 13.167547395630265 $362 25.967333454831802 $357 $409 forward 7 unknown #
coedge $-1 $281 $272 $286 $372 reversed $355 $-1 #
coedge $-1 $272 $281 $283 $370 reversed $355 $-1 #
vertex $-1 $370 $410 #
vertex $-1 $273 $411 #
straight-curve $-1 -43.121028317890641 -45.534773880062836 0 0 0 1 I I #
straight-curve $-1 -23.537360551815873 -32.734987820861299 -14.475741830312161 1 0 0 I I #
straight-curve $-1 -23.537360551815873 -32.734987820861299 14.475741830312161 -1 0 0 I I #
point $-1 -43.121028317890641 -32.734987820861299 14.475741830312161 #
point $-1 -43.121028317890641 -32.734987820861299 -14.475741830312161 #
straight-curve $-1 -51.02841388937285 -45.534773880062836 0 0 0 -1 I I #
edge $-1 $362 43.121028317890641 $284 51.02841388937285 $361 $412 forward 7 unknown #
point $-1 -51.02841388937285 -45.534773880062836 -14.475741830312161 #
edge $-1 $287 -51.02841388937285 $363 -43.121028317890641 $360 $413 forward 7 unknown #
point $-1 -51.02841388937285 -45.534773880062836 14.475741830312161 #
coedge $-1 $375 $293 $381 $414 reversed $196 $-1 #
coedge $-1 $293 $374 $296 $379 forward $196 $-1 #
edge $-1 $377 -25.287739194271584 $301 -15.206330177310907 $300 $415 forward 7 unknown #
vertex $-1 $295 $416 #
straight-curve $-1 25.982338976506856 45.534773880062836 83.648231057161013 -0.52991925155115449 0 0.84804810408105047 I I #
edge $-1 $383 -14.475741830312161 $297 -9.8885332981007057 $296 $417 forward 7 unknown #
point $-1 72.072511978514967 45.534773880062836 9.8885332981007057 #
coedge $-1 $300 $299 $374 $414 forward $291 $-1 #
point $-1 69.206106051303294 35.453364863102152 14.475741830312145 #
vertex $-1 $304 $418 #
straight-curve $-1 72.072511978514967 0 14.475741830312161 0 1 0 I I #
vertex $-1 $307 $419 #
point $-1 67.920986884863041 38.333767439376636 9.304363040704013 #
vertex $-1 $311 $420 #
point $-1 67.920986884863041 42.654371303788359 9.304363040704013 #
coedge $-1 $390 $317 $396 $421 reversed $218 $-1 #
coedge $-1 $317 $389 $320 $394 reversed $218 $-1 #
edge $-1 $392 -25.287739194271584 $325 -15.206330177310907 $324 $422 forward 7 unknown #
vertex $-1 $319 $423 #
straight-curve $-1 -64.174950581573114 45.534773880062836 22.527273917422573 -0.52991925155115449 0 -0.84804810408105047 I I #
edge $-1 $321 69.206106051303252 $398 72.072511978514967 $390 $424 forward 7 unknown #
point $-1 -69.206106051303252 45.534773880062829 14.475741830312161 #
coedge $-1 $324 $323 $389 $421 forward $315 $-1 #
point $-1 -72.072511978514967 35.453364863102152 9.8885332981006773 #
vertex $-1 $394 $425 #
straight-curve $-1 -72.072511978514967 0 14.475741830312161 0 -1 0 I I #
vertex $-1 $331 $426 #
point $-1 -66.861148381760728 38.333767439376636 11.000459248866107 #
vertex $-1 $335 $427 #
point $-1 -66.861148381760728 42.654371303788359 11.000459248866107 #
straight-curve $-1 -72.072511978514967 45.534773880062836 0 0 0 -1 I I #
point $-1 -72.072511978514967 -45.534773880062836 -14.475741830312161 #
straight-curve $-1 -72.072511978514967 0 -14.475741830312161 0 1 0 I I #
point $-1 -72.072511978514967 45.534773880062836 -14.475741830312161 #
straight-curve $-1 -43.121028317890641 -19.567440425231034 14.475741830312161 0 1 0 I I #
straight-curve $-1 -43.121028317890641 -19.567440425231034 -14.475741830312161 0 -1 0 I I #
point $-1 -43.121028317890641 -45.534773880062836 -14.475741830312161 #
point $-1 -43.121028317890641 -45.534773880062836 14.475741830312161 #
straight-curve $-1 0 -45.534773880062836 -14.475741830312161 -1 0 0 I I #
straight-curve $-1 0 -45.534773880062836 14.475741830312161 1 0 0 I I #
edge $-1 $383 -72.072511978514967 $377 -69.206106051303294 $374 $428 forward 7 unknown #
straight-curve $-1 69.206106051303266 20.247034685791245 14.47574183031216 0 -1 0 I I #
point $-1 69.206106051303294 45.534773880062829 14.475741830312145 #
straight-curve $-1 72.072511978514967 45.534773880062836 0 0 0 -1 I I #
point $-1 72.072511978514967 45.534773880062836 14.475741830312161 #
point $-1 66.543019529230833 38.333767439376636 9.6224918932339101 #
point $-1 66.543019529230833 42.654371303788359 9.6224918932339101 #
edge $-1 $398 -14.475741830312161 $392 -9.8885332981006773 $389 $429 forward 7 unknown #
straight-curve $-1 -72.072511978514967 20.247034685791245 9.8885332981006702 0 -1 0 I I #
point $-1 -72.072511978514967 45.534773880062829 9.8885332981006773 #
straight-curve $-1 0 45.534773880062836 14.475741830312161 -1 0 0 I I #
point $-1 -72.072511978514967 45.534773880062836 14.475741830312161 #
point $-1 -66.543019529230833 38.333767439376636 9.622491893233903 #
point $-1 -66.543019529230833 42.654371303788359 9.622491893233903 #
straight-curve $-1 0 45.534773880062836 14.475741830312161 -1 0 0 I I #
straight-curve $-1 -72.072511978514967 45.534773880062836 0 0 0 -1 I I #
End-of-ACIS-data 