500 0 6 0           
7 Unknown 11 ACIS 5.0 NT 24 Fri Mar 26 18:38:28 1999 
-1 9.9999999999999995e-007 1e-010 
body $-1 $6 $-1 $7 #
body $-1 $8 $-1 $9 #
body $-1 $10 $-1 $11 #
body $-1 $12 $-1 $13 #
body $-1 $14 $-1 $15 #
body $-1 $16 $-1 $17 #
lump $-1 $-1 $18 $0 #
transform $-1 1 0 0 0 1 0 0 0 1 53.924985503708001 28.523448858615893 12.590899888177317 1 rotate no_reflect no_shear #
lump $-1 $-1 $19 $1 #
transform $-1 1 0 0 0 1 0 0 0 1 53.924985503708001 28.523448858615893 12.590899888177317 1 rotate no_reflect no_shear #
lump $-1 $-1 $20 $2 #
transform $-1 1 0 0 0 1 0 0 0 1 53.924985503708001 28.523448858615893 12.590899888177317 1 rotate no_reflect no_shear #
lump $-1 $-1 $21 $3 #
transform $-1 1 0 0 0 1 0 0 0 1 53.924985503708001 28.523448858615893 12.590899888177317 1 rotate no_reflect no_shear #
lump $-1 $-1 $22 $4 #
transform $-1 1 0 0 0 1 0 0 0 1 53.924985503708001 28.523448858615893 12.590899888177317 1 rotate no_reflect no_shear #
lump $-1 $-1 $23 $5 #
transform $-1 1 0 0 0 1 0 0 0 1 53.924985503708001 28.523448858615893 12.590899888177317 1 rotate no_reflect no_shear #
shell $-1 $-1 $-1 $24 $-1 $6 #
shell $-1 $-1 $-1 $25 $-1 $8 #
shell $-1 $-1 $-1 $26 $-1 $10 #
shell $-1 $-1 $-1 $27 $-1 $12 #
shell $-1 $-1 $-1 $28 $-1 $14 #
shell $-1 $-1 $-1 $29 $-1 $16 #
face $-1 $30 $31 $18 $-1 $32 reversed single #
face $-1 $33 $34 $19 $-1 $35 forward single #
face $-1 $36 $37 $20 $-1 $38 forward single #
face $-1 $39 $40 $21 $-1 $41 reversed single #
face $-1 $42 $43 $22 $-1 $44 forward single #
face $-1 $45 $46 $23 $-1 $47 forward single #
face $-1 $48 $49 $18 $-1 $50 forward single #
loop $-1 $-1 $51 $24 #
plane-surface $-1 53.924985503708001 0 0 -1 0 0 0 0 1 forward_v I I I I #
face $-1 $52 $53 $19 $-1 $54 forward single #
loop $-1 $-1 $55 $25 #
plane-surface $-1 -53.924985503708001 0 0 1 0 0 0 0 -1 forward_v I I I I #
face $-1 $56 $57 $20 $-1 $58 reversed single #
loop $-1 $-1 $59 $26 #
plane-surface $-1 53.924985503708001 0 0 -1 0 0 0 0 1 forward_v I I I I #
face $-1 $60 $61 $21 $-1 $62 reversed single #
loop $-1 $-1 $63 $27 #
plane-surface $-1 27.181230844044734 43.653569096724937 123.29606875298975 1 0 0 0 -0.57357644374324357 -0.81915203911291934 forward_v I I I I #
face $-1 $64 $65 $22 $-1 $66 forward single #
loop $-1 $67 $68 $28 #
cone-surface $-1 30.744711617212644 20.092421519900146 5.9358854556456357 0 -0.57357644374324357 -0.81915203911291934 1.5 0 0 1 I I 0 1 1.5 forward I I I I #
face $-1 $69 $70 $23 $-1 $71 forward single #
loop $-1 $72 $73 $29 #
cone-surface $-1 36.089932776964503 20.092421519900146 5.9358854556456357 0 -0.57357644374324357 -0.81915203911291934 1.5 0 0 1 I I 0 1 1.5 forward I I I I #
face $-1 $74 $75 $18 $-1 $76 reversed single #
loop $-1 $-1 $77 $30 #
plane-surface $-1 0 0 12.590899888177317 0 0 1 1 0 0 forward_v I I I I #
coedge $-1 $78 $79 $80 $81 reversed $31 $-1 #
face $-1 $82 $83 $19 $-1 $84 reversed single #
loop $-1 $-1 $85 $33 #
plane-surface $-1 0 0 12.590899888177317 0 0 1 1 0 0 forward_v I I I I #
coedge $-1 $86 $87 $88 $89 forward $34 $-1 #
face $-1 $90 $91 $20 $-1 $92 reversed single #
loop $-1 $-1 $93 $36 #
plane-surface $-1 0 -28.523448858615893 0 0 1 0 0 0 1 forward_v I I I I #
coedge $-1 $94 $95 $96 $97 forward $37 $-1 #
face $-1 $98 $99 $21 $-1 $100 reversed single #
loop $-1 $-1 $101 $39 #
plane-surface $-1 33.417322197088566 -18.206633731520661 34.950545083995706 0 0.57357644374324357 0.81915203911291934 1 0 0 forward_v I I I I #
coedge $-1 $102 $103 $104 $105 reversed $40 $-1 #
face $-1 $-1 $106 $22 $-1 $107 forward single #
loop $-1 $108 $109 $42 #
cone-surface $-1 30.744711617212644 18.629812091173754 3.8470627554872525 0 -0.57357644374324357 -0.81915203911291934 0.75 0 0 1 I I -0.70710678118654757 0.70710678118654757 0.75 forward I I I I #
loop $-1 $-1 $110 $28 #
coedge $-1 $68 $68 $111 $112 reversed $43 $-1 #
face $-1 $-1 $113 $23 $-1 $114 forward single #
loop $-1 $115 $116 $45 #
cone-surface $-1 36.089932776964503 18.629812091173754 3.8470627554872525 0 -0.57357644374324357 -0.81915203911291934 0.75 0 0 1 I I -0.70710678118654757 0.70710678118654757 0.75 forward I I I I #
loop $-1 $-1 $117 $29 #
coedge $-1 $73 $73 $118 $119 reversed $46 $-1 #
face $-1 $120 $121 $18 $-1 $122 reversed single #
loop $-1 $-1 $80 $48 #
plane-surface $-1 0 0 -12.590899888177317 0 0 1 1 0 0 forward_v I I I I #
coedge $-1 $123 $124 $125 $126 forward $49 $-1 #
coedge $-1 $125 $51 $127 $128 reversed $31 $-1 #
coedge $-1 $51 $125 $129 $130 forward $31 $-1 #
coedge $-1 $131 $132 $51 $81 forward $75 $-1 #
edge $-1 $133 -28.523448858615893 $134 28.523448858615893 $51 $135 forward 7 unknown #
face $-1 $136 $137 $19 $-1 $138 reversed single #
loop $-1 $-1 $139 $52 #
plane-surface $-1 -68.196557457283603 -26.555407476820864 0 1 0 0 0 0 -1 forward_v I I I I #
coedge $-1 $140 $141 $86 $142 forward $53 $-1 #
coedge $-1 $143 $55 $85 $142 reversed $34 $-1 #
coedge $-1 $55 $143 $144 $145 reversed $34 $-1 #
coedge $-1 $146 $147 $55 $89 reversed $137 $-1 #
edge $-1 $148 -12.590899888177317 $149 12.590899888177317 $88 $150 forward 7 unknown #
face $-1 $151 $152 $20 $-1 $153 reversed single #
loop $-1 $-1 $154 $56 #
plane-surface $-1 0 0 -12.590899888177317 0 0 1 1 0 0 forward_v I I I I #
coedge $-1 $155 $156 $157 $158 forward $57 $-1 #
coedge $-1 $157 $59 $154 $159 reversed $37 $-1 #
coedge $-1 $59 $157 $160 $161 reversed $37 $-1 #
coedge $-1 $162 $163 $59 $97 reversed $152 $-1 #
edge $-1 $164 -12.590899888177317 $165 12.590899888177317 $96 $166 forward 7 unknown #
face $-1 $167 $168 $21 $-1 $169 reversed single #
loop $-1 $-1 $170 $60 #
plane-surface $-1 39.653413550132399 43.653569096724937 123.29606875298975 -1 0 0 0 0.57357644374324357 0.81915203911291934 forward_v I I I I #
coedge $-1 $171 $172 $173 $174 reversed $61 $-1 #
coedge $-1 $103 $63 $175 $176 reversed $40 $-1 #
coedge $-1 $63 $102 $171 $177 reversed $40 $-1 #
coedge $-1 $173 $178 $63 $105 forward $179 $-1 #
edge $-1 $180 -6.6966643102534249 $181 8.1005361753401566 $104 $182 forward 7 unknown #
loop $-1 $-1 $111 $64 #
plane-surface $-1 33.417322197088566 -18.206633731520661 34.950545083995706 0 0.57357644374324357 0.81915203911291934 1 0 0 forward_v I I I I #
loop $-1 $-1 $183 $42 #
coedge $-1 $109 $109 $110 $184 reversed $65 $-1 #
coedge $-1 $110 $110 $109 $184 forward $67 $-1 #
coedge $-1 $111 $111 $68 $112 forward $106 $-1 #
edge $-1 $185 -1.0188764387621837e-015 $185 6.2831853071795996 $111 $186 forward 7 unknown #
loop $-1 $-1 $118 $69 #
plane-surface $-1 33.417322197088566 -18.206633731520661 34.950545083995706 0 0.57357644374324357 0.81915203911291934 1 0 0 forward_v I I I I #
loop $-1 $-1 $187 $45 #
coedge $-1 $116 $116 $117 $188 reversed $70 $-1 #
coedge $-1 $117 $117 $116 $188 forward $72 $-1 #
coedge $-1 $118 $118 $73 $119 forward $113 $-1 #
edge $-1 $189 -1.0188764387621837e-015 $189 6.2831853071795996 $118 $190 forward 7 unknown #
face $-1 $191 $192 $18 $-1 $193 reversed single #
loop $-1 $-1 $194 $74 #
plane-surface $-1 0 -28.523448858615893 0 0 1 0 0 0 1 forward_v I I I I #
coedge $-1 $195 $77 $196 $197 forward $49 $-1 #
coedge $-1 $77 $195 $198 $199 forward $49 $-1 #
coedge $-1 $79 $78 $77 $126 reversed $31 $-1 #
edge $-1 $200 -28.523448858615893 $201 28.523448858615893 $125 $202 forward 7 unknown #
coedge $-1 $203 $196 $78 $128 forward $204 $-1 #
edge $-1 $201 -12.590899888177317 $133 12.590899888177317 $78 $205 forward 7 unknown #
coedge $-1 $198 $206 $79 $130 reversed $121 $-1 #
edge $-1 $200 -12.590899888177317 $134 12.590899888177317 $79 $207 forward 7 unknown #
coedge $-1 $208 $80 $206 $209 forward $75 $-1 #
coedge $-1 $80 $208 $203 $210 forward $75 $-1 #
vertex $-1 $81 $211 #
vertex $-1 $130 $212 #
straight-curve $-1 53.924985503708001 0 -12.590899888177317 0 -1 0 I I #
face $-1 $213 $214 $19 $-1 $215 reversed single #
loop $-1 $-1 $88 $82 #
plane-surface $-1 -61.060771480495802 -24.587366095025835 0 0 -1 0 0 0 -1 forward_v I I I I #
coedge $-1 $216 $217 $218 $219 forward $83 $-1 #
coedge $-1 $220 $85 $147 $221 forward $53 $-1 #
coedge $-1 $85 $220 $222 $223 forward $53 $-1 #
edge $-1 $224 -28.523448858615893 $149 -24.587366095025835 $85 $225 forward 7 unknown #
coedge $-1 $87 $86 $226 $227 reversed $34 $-1 #
coedge $-1 $228 $229 $87 $145 forward $214 $-1 #
edge $-1 $148 24.587366095025835 $230 28.523448858615893 $144 $231 forward 7 unknown #
coedge $-1 $218 $88 $229 $232 reversed $137 $-1 #
coedge $-1 $88 $218 $140 $221 reversed $137 $-1 #
vertex $-1 $145 $233 #
vertex $-1 $221 $234 #
straight-curve $-1 -53.924985503708001 -24.587366095025835 0 0 0 1 I I #
face $-1 $235 $236 $20 $-1 $237 reversed single #
loop $-1 $-1 $238 $90 #
plane-surface $-1 61.060771480495802 -24.587366095025835 0 0 -1 0 0 0 -1 forward_v I I I I #
coedge $-1 $239 $240 $94 $159 forward $91 $-1 #
coedge $-1 $241 $93 $240 $242 reversed $57 $-1 #
coedge $-1 $93 $241 $243 $244 reversed $57 $-1 #
coedge $-1 $95 $94 $93 $158 reversed $37 $-1 #
edge $-1 $245 -12.590899888177317 $246 12.590899888177317 $93 $247 forward 7 unknown #
edge $-1 $246 -28.523448858615893 $165 -24.587366095025835 $154 $248 forward 7 unknown #
coedge $-1 $243 $249 $95 $161 forward $250 $-1 #
edge $-1 $164 24.587366095025835 $245 28.523448858615893 $160 $251 forward 7 unknown #
coedge $-1 $238 $96 $249 $252 reversed $152 $-1 #
coedge $-1 $96 $238 $239 $253 reversed $152 $-1 #
vertex $-1 $161 $254 #
vertex $-1 $253 $255 #
straight-curve $-1 53.924985503708001 -24.587366095025835 0 0 0 -1 I I #
face $-1 $-1 $179 $21 $-1 $256 forward single #
loop $-1 $-1 $257 $98 #
plane-surface $-1 0 28.523448858615893 0 0 -1 0 0 0 -1 forward_v I I I I #
coedge $-1 $258 $259 $260 $261 reversed $99 $-1 #
coedge $-1 $262 $101 $103 $177 forward $61 $-1 #
coedge $-1 $101 $262 $258 $263 forward $61 $-1 #
coedge $-1 $260 $104 $101 $174 forward $179 $-1 #
edge $-1 $181 10.472569745500451 $264 22.944752451588116 $173 $265 forward 7 unknown #
coedge $-1 $266 $267 $102 $176 forward $168 $-1 #
edge $-1 $268 -59.418246011733537 $180 -49.057134488317558 $175 $269 forward 7 unknown #
edge $-1 $181 38.98285126546704 $268 57.046897717231786 $103 $270 forward 7 unknown #
coedge $-1 $104 $260 $266 $271 forward $179 $-1 #
loop $-1 $-1 $260 $167 #
vertex $-1 $176 $272 #
vertex $-1 $105 $273 #
straight-curve $-1 27.181230844044734 21.826784548362468 12.590899888177319 0 -1 0 I I #
coedge $-1 $183 $183 $-1 $274 reversed $108 $-1 #
edge $-1 $275 0 $275 6.2831853071796004 $109 $276 forward 7 unknown #
vertex $-1 $112 $277 #
ellipse-curve $-1 30.744711617212644 21.124848615819104 7.4103441264693286 0 0.57357644374324357 0.81915203911291934 1.5 0 0 1 I I #
coedge $-1 $187 $187 $-1 $278 reversed $115 $-1 #
edge $-1 $279 0 $279 6.2831853071796004 $116 $280 forward 7 unknown #
vertex $-1 $119 $281 #
ellipse-curve $-1 36.089932776964503 21.124848615819104 7.4103441264693286 0 0.57357644374324357 0.81915203911291934 1.5 0 0 1 I I #
face $-1 $-1 $204 $18 $-1 $282 reversed single #
loop $-1 $-1 $283 $120 #
plane-surface $-1 -53.924985503708001 0 0 1 0 0 0 0 -1 forward_v I I I I #
coedge $-1 $206 $198 $284 $285 forward $121 $-1 #
coedge $-1 $124 $123 $283 $286 forward $49 $-1 #
coedge $-1 $127 $287 $123 $197 reversed $204 $-1 #
edge $-1 $201 -53.924985503708001 $288 53.924985503708001 $196 $289 forward 7 unknown #
coedge $-1 $194 $129 $124 $199 reversed $121 $-1 #
edge $-1 $290 -53.924985503708001 $200 53.924985503708001 $198 $291 forward 7 unknown #
vertex $-1 $126 $292 #
vertex $-1 $126 $293 #
straight-curve $-1 53.924985503708001 0 12.590899888177317 0 1 0 I I #
coedge $-1 $287 $127 $132 $210 reversed $204 $-1 #
loop $-1 $-1 $127 $191 #
straight-curve $-1 53.924985503708001 28.523448858615893 0 0 0 -1 I I #
coedge $-1 $129 $194 $131 $209 reversed $121 $-1 #
straight-curve $-1 53.924985503708001 -28.523448858615893 0 0 0 -1 I I #
coedge $-1 $132 $131 $294 $295 forward $75 $-1 #
edge $-1 $134 -53.924985503708001 $296 53.924985503708001 $206 $297 forward 7 unknown #
edge $-1 $298 -53.924985503708001 $133 53.924985503708001 $203 $299 forward 7 unknown #
point $-1 53.924985503708001 28.523448858615893 -12.590899888177317 #
point $-1 53.924985503708001 -28.523448858615893 -12.590899888177317 #
face $-1 $-1 $300 $19 $-1 $301 reversed single #
loop $-1 $-1 $144 $136 #
plane-surface $-1 0 0 -12.590899888177317 0 0 1 1 0 0 forward_v I I I I #
coedge $-1 $302 $139 $303 $304 reversed $83 $-1 #
coedge $-1 $139 $302 $220 $305 reversed $83 $-1 #
coedge $-1 $147 $146 $139 $219 reversed $137 $-1 #
edge $-1 $306 -12.590899888177317 $307 12.590899888177317 $218 $308 forward 7 unknown #
coedge $-1 $141 $140 $217 $305 forward $53 $-1 #
edge $-1 $149 -7.1357859767878011 $306 7.1357859767878011 $147 $309 forward 7 unknown #
coedge $-1 $310 $226 $141 $223 reversed $300 $-1 #
edge $-1 $311 -68.196557457283603 $224 -53.924985503708001 $222 $312 forward 7 unknown #
vertex $-1 $227 $313 #
straight-curve $-1 -53.924985503708001 0 12.590899888177317 0 1 0 I I #
coedge $-1 $222 $314 $143 $227 forward $300 $-1 #
edge $-1 $230 -12.590899888177317 $224 12.590899888177317 $226 $315 forward 7 unknown #
coedge $-1 $303 $144 $314 $316 forward $214 $-1 #
coedge $-1 $144 $303 $146 $232 forward $214 $-1 #
vertex $-1 $316 $317 #
straight-curve $-1 -53.924985503708001 0 -12.590899888177317 0 -1 0 I I #
edge $-1 $307 -7.1357859767878011 $148 7.1357859767878011 $146 $318 forward 7 unknown #
point $-1 -53.924985503708001 -24.587366095025835 -12.590899888177317 #
point $-1 -53.924985503708001 -24.587366095025835 12.590899888177317 #
face $-1 $-1 $250 $20 $-1 $319 forward single #
loop $-1 $-1 $320 $151 #
plane-surface $-1 68.196557457283603 -26.555407476820864 0 -1 0 0 0 0 1 forward_v I I I I #
coedge $-1 $163 $162 $321 $322 forward $152 $-1 #
coedge $-1 $323 $154 $163 $253 forward $91 $-1 #
coedge $-1 $154 $323 $155 $242 forward $91 $-1 #
coedge $-1 $156 $155 $320 $324 reversed $57 $-1 #
edge $-1 $325 -7.1357859767878011 $246 7.1357859767878011 $155 $326 forward 7 unknown #
coedge $-1 $327 $160 $156 $244 forward $250 $-1 #
edge $-1 $245 -7.1357859767878011 $328 7.1357859767878011 $156 $329 forward 7 unknown #
vertex $-1 $244 $330 #
vertex $-1 $159 $331 #
straight-curve $-1 53.924985503708001 -28.523448858615893 0 0 0 -1 I I #
straight-curve $-1 53.924985503708001 0 -12.590899888177317 0 1 0 I I #
coedge $-1 $160 $327 $162 $252 forward $250 $-1 #
loop $-1 $-1 $160 $235 #
straight-curve $-1 53.924985503708001 0 12.590899888177317 0 -1 0 I I #
edge $-1 $332 -7.1357859767878011 $164 7.1357859767878011 $162 $333 forward 7 unknown #
edge $-1 $165 -7.1357859767878011 $334 7.1357859767878011 $163 $335 forward 7 unknown #
point $-1 53.924985503708001 -24.587366095025835 12.590899888177317 #
point $-1 53.924985503708001 -24.587366095025835 -12.590899888177317 #
plane-surface $-1 0 0 12.590899888177317 0 0 1 1 0 0 forward_v I I I I #
coedge $-1 $267 $266 $259 $336 forward $168 $-1 #
coedge $-1 $259 $170 $172 $263 reversed $99 $-1 #
coedge $-1 $170 $258 $257 $336 reversed $99 $-1 #
coedge $-1 $178 $173 $170 $261 forward $179 $-1 #
edge $-1 $264 -8.1005361753401566 $337 6.6966643102534249 $260 $338 forward 7 unknown #
coedge $-1 $172 $171 $267 $339 reversed $61 $-1 #
edge $-1 $340 -57.046897717231786 $264 -38.98285126546704 $258 $341 forward 7 unknown #
vertex $-1 $174 $342 #
straight-curve $-1 16.708661098544283 13.726248373022313 12.590899888177319 1 0 0 I I #
coedge $-1 $257 $175 $178 $271 reversed $168 $-1 #
coedge $-1 $175 $257 $262 $339 forward $168 $-1 #
vertex $-1 $176 $343 #
straight-curve $-1 27.181230844044734 28.523448858615893 61.648034376494877 0 0 1 I I #
straight-curve $-1 27.181230844044734 -18.206633731520661 34.950545083995706 0 0.81915203911291934 -0.57357644374324357 I I #
edge $-1 $337 -39.653413550132399 $180 -27.181230844044734 $266 $344 forward 7 unknown #
point $-1 27.181230844044734 28.523448858615893 12.590899888177317 #
point $-1 27.181230844044734 13.726248373022312 12.590899888177319 #
edge $-1 $345 1 $345 0 $183 $-1 forward 7 unknown #
vertex $-1 $184 $346 #
ellipse-curve $-1 30.744711617212644 19.059994423981188 4.461426784821942 0 0.57357644374324357 0.81915203911291934 1.5 0 0 1 I I #
point $-1 32.244711617212644 21.124848615819104 7.4103441264693313 #
edge $-1 $347 1 $347 0 $187 $-1 forward 7 unknown #
vertex $-1 $188 $348 #
ellipse-curve $-1 36.089932776964503 19.059994423981188 4.461426784821942 0 0.57357644374324357 0.81915203911291934 1.5 0 0 1 I I #
point $-1 37.589932776964503 21.124848615819104 7.4103441264693313 #
plane-surface $-1 0 28.523448858615893 0 0 -1 0 0 0 -1 forward_v I I I I #
coedge $-1 $349 $284 $195 $286 reversed $192 $-1 #
coedge $-1 $283 $294 $194 $285 reversed $192 $-1 #
edge $-1 $290 -12.590899888177317 $296 12.590899888177317 $284 $350 forward 7 unknown #
edge $-1 $288 -28.523448858615893 $290 28.523448858615893 $283 $351 forward 7 unknown #
coedge $-1 $196 $203 $349 $352 reversed $204 $-1 #
vertex $-1 $197 $353 #
straight-curve $-1 0 28.523448858615893 12.590899888177317 -1 0 0 I I #
vertex $-1 $286 $354 #
straight-curve $-1 0 -28.523448858615893 12.590899888177317 1 0 0 I I #
point $-1 53.924985503708001 -28.523448858615893 12.590899888177317 #
point $-1 53.924985503708001 28.523448858615893 12.590899888177317 #
coedge $-1 $284 $349 $208 $295 reversed $192 $-1 #
edge $-1 $296 -28.523448858615893 $298 28.523448858615893 $294 $355 forward 7 unknown #
vertex $-1 $295 $356 #
straight-curve $-1 0 -28.523448858615893 -12.590899888177317 -1 0 0 I I #
vertex $-1 $210 $357 #
straight-curve $-1 0 28.523448858615893 -12.590899888177317 1 0 0 I I #
loop $-1 $-1 $226 $213 #
plane-surface $-1 0 -28.523448858615893 0 0 1 0 0 0 1 forward_v I I I I #
coedge $-1 $217 $216 $310 $358 reversed $83 $-1 #
coedge $-1 $229 $228 $216 $304 forward $214 $-1 #
edge $-1 $359 -1.9680413817950289 $307 1.9680413817950289 $216 $360 forward 7 unknown #
edge $-1 $306 -1.9680413817950289 $311 1.9680413817950289 $217 $361 forward 7 unknown #
vertex $-1 $221 $362 #
vertex $-1 $232 $363 #
straight-curve $-1 -68.196557457283603 -24.587366095025835 0 0 0 -1 I I #
straight-curve $-1 -61.060771480495802 -24.587366095025835 12.590899888177317 -1 0 0 I I #
coedge $-1 $314 $222 $302 $358 forward $300 $-1 #
vertex $-1 $305 $364 #
straight-curve $-1 0 -28.523448858615893 12.590899888177317 1 0 0 I I #
point $-1 -53.924985503708001 -28.523448858615893 12.590899888177317 #
coedge $-1 $226 $310 $228 $316 reversed $300 $-1 #
straight-curve $-1 -53.924985503708001 -28.523448858615893 0 0 0 1 I I #
edge $-1 $230 -7.1357859767878011 $359 7.1357859767878011 $314 $365 forward 7 unknown #
point $-1 -53.924985503708001 -28.523448858615893 -12.590899888177317 #
straight-curve $-1 -61.060771480495802 -24.587366095025835 -12.590899888177317 1 0 0 I I #
plane-surface $-1 0 0 12.590899888177317 0 0 1 1 0 0 forward_v I I I I #
coedge $-1 $366 $367 $241 $324 forward $236 $-1 #
coedge $-1 $367 $366 $238 $322 reversed $236 $-1 #
edge $-1 $332 -12.590899888177317 $334 12.590899888177317 $321 $368 forward 7 unknown #
coedge $-1 $240 $239 $366 $369 forward $91 $-1 #
edge $-1 $328 -12.590899888177317 $325 12.590899888177317 $320 $370 forward 7 unknown #
vertex $-1 $324 $371 #
straight-curve $-1 61.060771480495802 -28.523448858615893 -12.590899888177317 -1 0 0 I I #
coedge $-1 $249 $243 $367 $372 forward $250 $-1 #
vertex $-1 $372 $373 #
straight-curve $-1 61.060771480495802 -28.523448858615893 12.590899888177317 1 0 0 I I #
point $-1 53.924985503708001 -28.523448858615893 12.590899888177317 #
point $-1 53.924985503708001 -28.523448858615893 -12.590899888177317 #
vertex $-1 $372 $374 #
straight-curve $-1 61.060771480495802 -24.587366095025835 12.590899888177317 -1 0 0 I I #
vertex $-1 $369 $375 #
straight-curve $-1 61.060771480495802 -24.587366095025835 -12.590899888177317 1 0 0 I I #
edge $-1 $337 49.057134488317558 $340 59.418246011733537 $257 $376 forward 7 unknown #
vertex $-1 $271 $377 #
straight-curve $-1 39.653413550132399 21.826784548362468 12.590899888177319 0 1 0 I I #
edge $-1 $340 -22.944752451588116 $268 -10.472569745500451 $267 $378 forward 7 unknown #
vertex $-1 $339 $379 #
straight-curve $-1 39.653413550132399 -18.206633731520661 34.950545083995706 0 -0.81915203911291934 0.57357644374324357 I I #
point $-1 39.653413550132399 13.726248373022312 12.590899888177319 #
point $-1 27.181230844044734 28.523448858615893 2.2297883647613403 #
straight-curve $-1 0 28.523448858615893 12.590899888177317 -1 0 0 I I #
vertex $-1 $274 $380 #
point $-1 32.244711617212644 19.059994423981188 4.461426784821942 #
vertex $-1 $278 $381 #
point $-1 37.589932776964503 19.059994423981188 4.461426784821942 #
coedge $-1 $294 $283 $287 $352 forward $192 $-1 #
straight-curve $-1 -53.924985503708001 -28.523448858615893 0 0 0 -1 I I #
straight-curve $-1 -53.924985503708001 0 12.590899888177317 0 -1 0 I I #
edge $-1 $288 -12.590899888177317 $298 12.590899888177317 $287 $382 forward 7 unknown #
point $-1 -53.924985503708001 28.523448858615893 12.590899888177317 #
point $-1 -53.924985503708001 -28.523448858615893 12.590899888177317 #
straight-curve $-1 -53.924985503708001 0 -12.590899888177317 0 1 0 I I #
point $-1 -53.924985503708001 -28.523448858615893 -12.590899888177317 #
point $-1 -53.924985503708001 28.523448858615893 -12.590899888177317 #
edge $-1 $311 -12.590899888177317 $359 12.590899888177317 $302 $383 forward 7 unknown #
vertex $-1 $304 $384 #
straight-curve $-1 -68.196557457283603 -26.555407476820864 -12.590899888177317 0 1 0 I I #
straight-curve $-1 -68.196557457283603 -26.555407476820864 12.590899888177317 0 -1 0 I I #
point $-1 -68.196557457283603 -24.587366095025835 12.590899888177317 #
point $-1 -68.196557457283603 -24.587366095025835 -12.590899888177317 #
point $-1 -68.196557457283603 -28.523448858615893 12.590899888177317 #
straight-curve $-1 -61.060771480495802 -28.523448858615893 -12.590899888177317 -1 0 0 I I #
coedge $-1 $321 $320 $323 $369 reversed $236 $-1 #
coedge $-1 $320 $321 $327 $372 reversed $236 $-1 #
straight-curve $-1 68.196557457283603 -24.587366095025835 0 0 0 -1 I I #
edge $-1 $334 -1.9680413817950289 $325 1.9680413817950289 $366 $385 forward 7 unknown #
straight-curve $-1 68.196557457283603 -28.523448858615893 0 0 0 -1 I I #
point $-1 68.196557457283603 -28.523448858615893 -12.590899888177317 #
edge $-1 $328 -1.9680413817950289 $332 1.9680413817950289 $367 $386 forward 7 unknown #
point $-1 68.196557457283603 -28.523448858615893 12.590899888177317 #
point $-1 68.196557457283603 -24.587366095025835 12.590899888177317 #
point $-1 68.196557457283603 -24.587366095025835 -12.590899888177317 #
straight-curve $-1 39.653413550132399 28.523448858615893 61.648034376494877 0 0 -1 I I #
point $-1 39.653413550132399 28.523448858615893 12.590899888177317 #
straight-curve $-1 16.708661098544283 28.523448858615893 2.2297883647613403 -1 0 0 I I #
point $-1 39.653413550132399 28.523448858615893 2.2297883647613403 #
point $-1 30.744711617212644 18.199629758366321 3.232698726152563 #
point $-1 36.089932776964503 18.199629758366321 3.232698726152563 #
straight-curve $-1 -53.924985503708001 28.523448858615893 0 0 0 -1 I I #
straight-curve $-1 -68.196557457283603 -28.523448858615893 0 0 0 -1 I I #
point $-1 -68.196557457283603 -28.523448858615893 -12.590899888177317 #
straight-curve $-1 68.196557457283603 -26.555407476820864 -12.590899888177317 0 -1 0 I I #
straight-curve $-1 68.196557457283603 -26.555407476820864 12.590899888177317 0 1 0 I I #
End-of-ACIS-data 