500 0 3 0           
7 Unknown 11 ACIS 5.0 NT 24 Fri Mar 26 20:03:43 1999 
-1 9.9999999999999995e-007 1e-010 
body $-1 $3 $-1 $4 #
body $-1 $5 $-1 $6 #
body $-1 $7 $-1 $8 #
lump $-1 $-1 $9 $0 #
transform $-1 1 0 0 0 1 0 0 0 1 43.004242072817163 27.176785847787311 13.04173868175136 1 rotate no_reflect no_shear #
lump $-1 $-1 $10 $1 #
transform $-1 1 0 0 0 1 0 0 0 1 43.004242072817163 27.176785847787311 13.04173868175136 1 rotate no_reflect no_shear #
lump $-1 $-1 $11 $2 #
transform $-1 1 0 0 0 1 0 0 0 1 43.004242072817163 27.176785847787311 13.04173868175136 1 rotate no_reflect no_shear #
shell $-1 $-1 $-1 $12 $-1 $3 #
shell $-1 $-1 $-1 $13 $-1 $5 #
shell $-1 $-1 $-1 $14 $-1 $7 #
face $-1 $15 $16 $9 $-1 $17 forward single #
face $-1 $18 $19 $10 $-1 $20 reversed single #
face $-1 $21 $22 $11 $-1 $23 forward single #
face $-1 $24 $25 $9 $-1 $26 reversed single #
loop $-1 $-1 $27 $12 #
plane-surface $-1 0 0 13.04173868175136 0 0 1 1 0 0 forward_v I I I I #
face $-1 $28 $29 $10 $-1 $30 reversed single #
loop $-1 $-1 $31 $13 #
plane-surface $-1 -21.504352159536236 -86.92329999193214 70.354559078250062 -1 0 0 0 -0.69465837861970381 0.71933979245794832 forward_v I I I I #
face $-1 $32 $33 $11 $-1 $34 forward single #
loop $-1 $35 $36 $14 #
cone-surface $-1 -32.254297116176701 -24.162211617623576 10.084825759410208 0 0.69465837861970381 -0.71933979245794832 1 0 0 1 I I 0 1 1 forward I I I I #
face $-1 $37 $38 $9 $-1 $39 reversed single #
loop $-1 $-1 $40 $15 #
plane-surface $-1 0 0 -13.04173868175136 0 0 1 1 0 0 forward_v I I I I #
coedge $-1 $41 $42 $43 $44 forward $16 $-1 #
face $-1 $45 $46 $10 $-1 $47 forward single #
loop $-1 $-1 $48 $18 #
plane-surface $-1 -32.254297116176701 -27.176785847787301 8.4852339433067243 0 -0.69465837861970381 0.71933979245794832 1 0 0 forward_v I I I I #
coedge $-1 $49 $50 $51 $52 reversed $19 $-1 #
face $-1 $-1 $53 $11 $-1 $54 forward single #
loop $-1 $55 $56 $21 #
cone-surface $-1 -32.254297116176701 -23.159507535383351 9.0464953100623955 0 0.69465837861970381 -0.71933979245794832 0.5 0 0 1 I I -0.70710678118654746 0.70710678118654746 0.5 forward I I I I #
loop $-1 $-1 $57 $14 #
coedge $-1 $36 $36 $58 $59 reversed $22 $-1 #
face $-1 $60 $61 $9 $-1 $62 reversed single #
loop $-1 $-1 $63 $24 #
plane-surface $-1 0 -27.176785847787311 0 0 1 0 0 0 1 forward_v I I I I #
coedge $-1 $64 $65 $66 $67 forward $25 $-1 #
coedge $-1 $68 $27 $69 $70 forward $16 $-1 #
coedge $-1 $27 $68 $71 $72 forward $16 $-1 #
coedge $-1 $73 $74 $27 $44 reversed $75 $-1 #
edge $-1 $76 -27.176785847787311 $77 27.176785847787311 $43 $78 forward 7 unknown #
face $-1 $79 $80 $10 $-1 $81 reversed single #
loop $-1 $-1 $51 $28 #
plane-surface $-1 0 0 13.04173868175136 0 0 1 1 0 0 forward_v I I I I #
coedge $-1 $82 $83 $84 $85 reversed $29 $-1 #
coedge $-1 $50 $31 $86 $87 reversed $19 $-1 #
coedge $-1 $31 $49 $82 $88 reversed $19 $-1 #
coedge $-1 $84 $89 $31 $52 forward $46 $-1 #
edge $-1 $90 16.284864148178759 $91 21.003262822645503 $51 $92 forward 7 unknown #
loop $-1 $-1 $58 $32 #
plane-surface $-1 -32.254297116176701 -27.176785847787301 8.4852339433067243 0 -0.69465837861970381 0.71933979245794832 1 0 0 forward_v I I I I #
loop $-1 $-1 $93 $21 #
coedge $-1 $56 $56 $57 $94 reversed $33 $-1 #
coedge $-1 $57 $57 $56 $94 forward $35 $-1 #
coedge $-1 $58 $58 $36 $59 forward $53 $-1 #
edge $-1 $95 -2.6305798966580139e-016 $95 6.2831853071796004 $58 $96 forward 7 unknown #
face $-1 $97 $98 $9 $-1 $99 reversed single #
loop $-1 $-1 $100 $37 #
plane-surface $-1 -43.004242072817163 0 0 1 0 0 0 0 -1 forward_v I I I I #
coedge $-1 $101 $71 $102 $103 forward $38 $-1 #
coedge $-1 $104 $40 $101 $105 forward $25 $-1 #
coedge $-1 $40 $104 $106 $107 forward $25 $-1 #
coedge $-1 $74 $73 $40 $67 reversed $75 $-1 #
edge $-1 $108 -27.176785847787311 $109 27.176785847787311 $66 $110 forward 7 unknown #
coedge $-1 $42 $41 $111 $112 forward $16 $-1 #
coedge $-1 $113 $114 $41 $70 reversed $98 $-1 #
edge $-1 $77 -43.004242072817163 $115 43.004242072817163 $69 $116 forward 7 unknown #
coedge $-1 $63 $117 $42 $72 reversed $38 $-1 #
edge $-1 $118 -43.004242072817163 $76 43.004242072817163 $71 $119 forward 7 unknown #
coedge $-1 $66 $43 $117 $120 forward $75 $-1 #
coedge $-1 $43 $66 $113 $121 reversed $75 $-1 #
loop $-1 $-1 $73 $97 #
vertex $-1 $44 $122 #
vertex $-1 $44 $123 #
straight-curve $-1 43.004242072817163 0 13.04173868175136 0 1 0 I I #
face $-1 $-1 $124 $10 $-1 $125 reversed single #
loop $-1 $-1 $126 $45 #
plane-surface $-1 -43.004242072817163 0 0 1 0 0 0 0 -1 forward_v I I I I #
coedge $-1 $127 $48 $50 $88 forward $29 $-1 #
coedge $-1 $48 $127 $126 $128 reversed $29 $-1 #
coedge $-1 $129 $51 $48 $85 forward $46 $-1 #
edge $-1 $91 5.377203601447885 $130 26.877093514728813 $84 $131 forward 7 unknown #
coedge $-1 $132 $133 $49 $87 forward $124 $-1 #
edge $-1 $134 -26.692045595818318 $90 -22.13554085737367 $86 $135 forward 7 unknown #
edge $-1 $91 -6.5593461170057061 $134 1.5070591932559398e-014 $50 $136 forward 7 unknown #
coedge $-1 $51 $129 $132 $137 forward $46 $-1 #
vertex $-1 $87 $138 #
vertex $-1 $52 $139 #
straight-curve $-1 -21.504352159536236 -43.46164999596607 13.041738681751362 0 1 0 I I #
coedge $-1 $93 $93 $-1 $140 reversed $55 $-1 #
edge $-1 $141 0 $141 6.2831853071796004 $56 $142 forward 7 unknown #
vertex $-1 $59 $143 #
ellipse-curve $-1 -32.254297116176701 -24.817586510553937 10.763486312529036 0 -0.69465837861970381 0.71933979245794832 1 0 0 1 I I #
face $-1 $-1 $75 $9 $-1 $144 reversed single #
loop $-1 $-1 $113 $60 #
plane-surface $-1 0 27.176785847787311 0 0 -1 0 0 0 -1 forward_v I I I I #
coedge $-1 $145 $111 $114 $146 forward $61 $-1 #
coedge $-1 $117 $63 $64 $105 reversed $38 $-1 #
coedge $-1 $111 $145 $63 $103 reversed $61 $-1 #
edge $-1 $118 -13.04173868175136 $147 13.04173868175136 $102 $148 forward 7 unknown #
coedge $-1 $65 $64 $145 $149 forward $25 $-1 #
edge $-1 $109 -43.004242072817163 $147 43.004242072817163 $101 $150 forward 7 unknown #
coedge $-1 $114 $113 $65 $107 reversed $98 $-1 #
edge $-1 $151 -43.004242072817163 $108 43.004242072817163 $106 $152 forward 7 unknown #
vertex $-1 $67 $153 #
vertex $-1 $120 $154 #
straight-curve $-1 43.004242072817163 0 -13.04173868175136 0 -1 0 I I #
coedge $-1 $100 $102 $68 $112 reversed $61 $-1 #
edge $-1 $115 -27.176785847787311 $118 27.176785847787311 $111 $155 forward 7 unknown #
coedge $-1 $106 $69 $74 $121 forward $98 $-1 #
coedge $-1 $69 $106 $100 $146 reversed $98 $-1 #
vertex $-1 $70 $156 #
straight-curve $-1 0 27.176785847787311 13.04173868175136 -1 0 0 I I #
coedge $-1 $71 $101 $73 $120 reversed $38 $-1 #
vertex $-1 $112 $157 #
straight-curve $-1 0 -27.176785847787311 13.04173868175136 1 0 0 I I #
edge $-1 $76 -13.04173868175136 $109 13.04173868175136 $73 $158 forward 7 unknown #
edge $-1 $77 -13.04173868175136 $108 13.04173868175136 $74 $159 forward 7 unknown #
point $-1 43.004242072817163 -27.176785847787311 13.04173868175136 #
point $-1 43.004242072817163 27.176785847787311 13.04173868175136 #
loop $-1 $-1 $86 $79 #
plane-surface $-1 0 -27.176785847787311 0 0 1 0 0 0 1 forward_v I I I I #
coedge $-1 $160 $161 $83 $128 forward $80 $-1 #
coedge $-1 $83 $82 $133 $162 reversed $29 $-1 #
edge $-1 $130 0.26815620207184032 $163 6.8275023190775617 $126 $164 forward 7 unknown #
coedge $-1 $89 $84 $161 $165 forward $46 $-1 #
vertex $-1 $165 $166 #
straight-curve $-1 -16.127148558088351 -22.458387173320567 13.04173868175136 -1 0 0 I I #
coedge $-1 $167 $86 $89 $137 reversed $124 $-1 #
coedge $-1 $86 $167 $127 $162 forward $124 $-1 #
vertex $-1 $87 $168 #
straight-curve $-1 -21.504352159536236 -27.176785847787311 35.177279539125031 0 0 1 I I #
straight-curve $-1 -21.504352159536236 -27.176785847787301 8.4852339433067243 0 -0.71933979245794832 -0.69465837861970381 I I #
edge $-1 $169 -43.004242072817163 $90 -21.504352159536236 $132 $170 forward 7 unknown #
point $-1 -21.504352159536236 -27.176785847787311 13.04173868175136 #
point $-1 -21.504352159536236 -22.458387173320567 13.04173868175136 #
edge $-1 $171 1 $171 0 $93 $-1 forward 7 unknown #
vertex $-1 $94 $172 #
ellipse-curve $-1 -32.254297116176701 -23.506836724693205 9.4061652062913694 0 -0.69465837861970381 0.71933979245794832 1 0 0 1 I I #
point $-1 -31.254297116176701 -24.817586510553948 10.763486312529047 #
plane-surface $-1 43.004242072817163 0 0 -1 0 0 0 0 1 forward_v I I I I #
coedge $-1 $102 $100 $104 $149 reversed $61 $-1 #
edge $-1 $115 -13.04173868175136 $151 13.04173868175136 $114 $173 forward 7 unknown #
vertex $-1 $149 $174 #
straight-curve $-1 -43.004242072817163 -27.176785847787311 0 0 0 -1 I I #
edge $-1 $147 -27.176785847787311 $151 27.176785847787311 $145 $175 forward 7 unknown #
straight-curve $-1 0 -27.176785847787311 -13.04173868175136 -1 0 0 I I #
vertex $-1 $107 $176 #
straight-curve $-1 0 27.176785847787311 -13.04173868175136 1 0 0 I I #
point $-1 43.004242072817163 27.176785847787311 -13.04173868175136 #
point $-1 43.004242072817163 -27.176785847787311 -13.04173868175136 #
straight-curve $-1 -43.004242072817163 0 13.04173868175136 0 -1 0 I I #
point $-1 -43.004242072817163 27.176785847787311 13.04173868175136 #
point $-1 -43.004242072817163 -27.176785847787311 13.04173868175136 #
straight-curve $-1 43.004242072817163 -27.176785847787311 0 0 0 -1 I I #
straight-curve $-1 43.004242072817163 27.176785847787311 0 0 0 -1 I I #
coedge $-1 $161 $126 $167 $177 reversed $80 $-1 #
coedge $-1 $126 $160 $129 $165 reversed $80 $-1 #
edge $-1 $163 -26.877093514728813 $134 -5.377203601447885 $133 $178 forward 7 unknown #
vertex $-1 $128 $179 #
straight-curve $-1 -43.004242072817163 -22.265491746575897 13.228015634299402 0 -0.71933979245794832 -0.69465837861970381 I I #
edge $-1 $130 22.458387173320567 $169 27.176785847787311 $161 $180 forward 7 unknown #
point $-1 -43.004242072817163 -22.458387173320567 13.04173868175136 #
coedge $-1 $133 $132 $160 $177 forward $124 $-1 #
point $-1 -21.504352159536236 -27.176785847787311 8.4852339433067137 #
vertex $-1 $165 $181 #
straight-curve $-1 0 -27.176785847787311 13.04173868175136 1 0 0 I I #
vertex $-1 $140 $182 #
point $-1 -31.254297116176701 -23.506836724693205 9.4061652062913694 #
straight-curve $-1 -43.004242072817163 27.176785847787311 0 0 0 -1 I I #
point $-1 -43.004242072817163 -27.176785847787311 -13.04173868175136 #
straight-curve $-1 -43.004242072817163 0 -13.04173868175136 0 1 0 I I #
point $-1 -43.004242072817163 27.176785847787311 -13.04173868175136 #
edge $-1 $169 -13.04173868175136 $163 -8.4852339433067137 $160 $183 forward 7 unknown #
straight-curve $-1 -16.127148558088351 -27.176785847787311 8.4852339433067137 1 0 0 I I #
point $-1 -43.004242072817163 -27.176785847787311 8.4852339433067137 #
straight-curve $-1 -43.004242072817163 0 13.04173868175136 0 -1 0 I I #
point $-1 -43.004242072817163 -27.176785847787311 13.04173868175136 #
point $-1 -32.254297116176701 -22.812178346073498 8.6868254138334215 #
straight-curve $-1 -43.004242072817163 -27.176785847787311 0 0 0 -1 I I #
End-of-ACIS-data 