500 0 15 0           
7 Unknown 11 ACIS 5.0 NT 24 Fri Mar 26 18:51:22 1999 
-1 9.9999999999999995e-007 1e-010 
body $-1 $15 $-1 $16 #
body $-1 $17 $-1 $18 #
body $-1 $19 $-1 $20 #
body $-1 $21 $-1 $22 #
body $-1 $23 $-1 $24 #
body $-1 $25 $-1 $26 #
body $-1 $27 $-1 $28 #
body $-1 $29 $-1 $30 #
body $-1 $31 $-1 $32 #
body $-1 $33 $-1 $34 #
body $-1 $35 $-1 $36 #
body $-1 $37 $-1 $38 #
body $-1 $39 $-1 $40 #
body $-1 $41 $-1 $42 #
body $-1 $43 $-1 $44 #
lump $-1 $-1 $45 $0 #
transform $-1 1 0 0 0 1 0 0 0 1 60.852687154759359 38.057861486405606 9.8834060650172404 1 rotate no_reflect no_shear #
lump $-1 $-1 $46 $1 #
transform $-1 1 0 0 0 1 0 0 0 1 60.852687154759359 38.057861486405606 9.8834060650172404 1 rotate no_reflect no_shear #
lump $-1 $-1 $47 $2 #
transform $-1 1 0 0 0 1 0 0 0 1 60.852687154759359 38.057861486405606 9.8834060650172404 1 rotate no_reflect no_shear #
lump $-1 $-1 $48 $3 #
transform $-1 1 0 0 0 1 0 0 0 1 60.852687154759359 38.057861486405606 9.8834060650172404 1 rotate no_reflect no_shear #
lump $-1 $-1 $49 $4 #
transform $-1 1 0 0 0 1 0 0 0 1 60.852687154759359 38.057861486405606 9.8834060650172404 1 rotate no_reflect no_shear #
lump $-1 $-1 $50 $5 #
transform $-1 1 0 0 0 1 0 0 0 1 60.852687154759359 38.057861486405606 9.8834060650172404 1 rotate no_reflect no_shear #
lump $-1 $-1 $51 $6 #
transform $-1 1 0 0 0 1 0 0 0 1 60.852687154759359 38.057861486405606 9.8834060650172404 1 rotate no_reflect no_shear #
lump $-1 $-1 $52 $7 #
transform $-1 1 0 0 0 1 0 0 0 1 60.852687154759359 38.057861486405606 9.8834060650172404 1 rotate no_reflect no_shear #
lump $-1 $-1 $53 $8 #
transform $-1 1 0 0 0 1 0 0 0 1 60.852687154759359 38.057861486405606 9.8834060650172404 1 rotate no_reflect no_shear #
lump $-1 $-1 $54 $9 #
transform $-1 1 0 0 0 1 0 0 0 1 60.852687154759359 38.057861486405606 9.8834060650172404 1 rotate no_reflect no_shear #
lump $-1 $-1 $55 $10 #
transform $-1 1 0 0 0 1 0 0 0 1 60.852687154759359 38.057861486405606 9.8834060650172404 1 rotate no_reflect no_shear #
lump $-1 $-1 $56 $11 #
transform $-1 1 0 0 0 1 0 0 0 1 60.852687154759359 38.057861486405606 9.8834060650172404 1 rotate no_reflect no_shear #
lump $-1 $-1 $57 $12 #
transform $-1 1 0 0 0 1 0 0 0 1 60.852687154759359 38.057861486405606 9.8834060650172404 1 rotate no_reflect no_shear #
lump $-1 $-1 $58 $13 #
transform $-1 1 0 0 0 1 0 0 0 1 60.852687154759359 38.057861486405606 9.8834060650172404 1 rotate no_reflect no_shear #
lump $-1 $-1 $59 $14 #
transform $-1 1 0 0 0 1 0 0 0 1 60.852687154759359 38.057861486405606 9.8834060650172404 1 rotate no_reflect no_shear #
shell $-1 $-1 $-1 $60 $-1 $15 #
shell $-1 $-1 $-1 $61 $-1 $17 #
shell $-1 $-1 $-1 $62 $-1 $19 #
shell $-1 $-1 $-1 $63 $-1 $21 #
shell $-1 $-1 $-1 $64 $-1 $23 #
shell $-1 $-1 $-1 $65 $-1 $25 #
shell $-1 $-1 $-1 $66 $-1 $27 #
shell $-1 $-1 $-1 $67 $-1 $29 #
shell $-1 $-1 $-1 $68 $-1 $31 #
shell $-1 $-1 $-1 $69 $-1 $33 #
shell $-1 $-1 $-1 $70 $-1 $35 #
shell $-1 $-1 $-1 $71 $-1 $37 #
shell $-1 $-1 $-1 $72 $-1 $39 #
shell $-1 $-1 $-1 $73 $-1 $41 #
shell $-1 $-1 $-1 $74 $-1 $43 #
face $-1 $75 $76 $45 $-1 $77 forward single #
face $-1 $78 $79 $46 $-1 $80 forward single #
face $-1 $81 $82 $47 $-1 $83 forward single #
face $-1 $84 $85 $48 $-1 $86 reversed single #
face $-1 $87 $88 $49 $-1 $89 forward single #
face $-1 $90 $91 $50 $-1 $92 forward single #
face $-1 $93 $94 $51 $-1 $95 reversed single #
face $-1 $96 $97 $52 $-1 $98 forward single #
face $-1 $99 $100 $53 $-1 $101 forward single #
face $-1 $102 $103 $54 $-1 $104 reversed single #
face $-1 $105 $106 $55 $-1 $107 forward single #
face $-1 $108 $109 $56 $-1 $110 forward single #
face $-1 $111 $112 $57 $-1 $113 reversed single #
face $-1 $114 $115 $58 $-1 $116 forward single #
face $-1 $117 $118 $59 $-1 $119 forward single #
face $-1 $120 $121 $45 $-1 $122 reversed single #
loop $-1 $-1 $123 $60 #
plane-surface $-1 0 0 9.8834060650172404 0 0 1 1 0 0 forward_v I I I I #
face $-1 $124 $125 $46 $-1 $126 reversed single #
loop $-1 $-1 $127 $61 #
plane-surface $-1 -55.206459273580919 0 3.0488304662841643 0 0 1 1 0 0 forward_v I I I I #
face $-1 $128 $129 $47 $-1 $130 reversed single #
loop $-1 $-1 $131 $62 #
plane-surface $-1 55.206459273580926 0 3.0488304662841643 0 0 1 1 0 0 forward_v I I I I #
face $-1 $132 $133 $48 $-1 $134 reversed single #
loop $-1 $-1 $135 $63 #
plane-surface $-1 -46.451215424519674 -138.95619055352529 73.713159812595407 1 0 0 0 0.82903758062907751 -0.55919289150049634 forward_v I I I I #
face $-1 $136 $137 $49 $-1 $138 forward single #
loop $-1 $139 $140 $64 #
cone-surface $-1 -41.979474584194236 -35.633496937955051 7.0962059552190775 0 0.82903758062907751 -0.55919289150049634 1 0 0 1 I I 0 1 1 forward I I I I #
face $-1 $141 $142 $50 $-1 $143 forward single #
loop $-1 $144 $145 $65 #
cone-surface $-1 -35.271863323706086 -35.633496937955051 7.0962059552190775 0 0.82903758062907751 -0.55919289150049634 1 0 0 1 I I 0 1 1 forward I I I I #
face $-1 $146 $147 $51 $-1 $148 reversed single #
loop $-1 $-1 $149 $66 #
plane-surface $-1 -21.671099728318435 -138.95619055352529 73.713159812595407 1 0 0 0 0.82903758062907751 -0.55919289150049634 forward_v I I I I #
face $-1 $150 $151 $52 $-1 $152 forward single #
loop $-1 $153 $154 $67 #
cone-surface $-1 -17.199358887993 -35.633496937955051 7.0962059552190775 0 0.82903758062907751 -0.55919289150049634 1 0 0 1 I I 0 1 1 forward I I I I #
face $-1 $155 $156 $53 $-1 $157 forward single #
loop $-1 $158 $159 $68 #
cone-surface $-1 -10.491747627504843 -35.633496937955051 7.0962059552190775 0 0.82903758062907751 -0.55919289150049634 1 0 0 1 I I 0 1 1 forward I I I I #
face $-1 $160 $161 $54 $-1 $162 reversed single #
loop $-1 $-1 $163 $69 #
plane-surface $-1 3.1090159678828009 -138.95619055352529 73.713159812595407 1 0 0 0 0.82903758062907751 -0.55919289150049634 forward_v I I I I #
face $-1 $164 $165 $55 $-1 $166 forward single #
loop $-1 $167 $168 $70 #
cone-surface $-1 7.5807568082082426 -35.633496937955051 7.0962059552190775 0 0.82903758062907751 -0.55919289150049634 1 0 0 1 I I 0 1 1 forward I I I I #
face $-1 $169 $170 $56 $-1 $171 forward single #
loop $-1 $172 $173 $71 #
cone-surface $-1 14.288368068696393 -35.633496937955051 7.0962059552190775 0 0.82903758062907751 -0.55919289150049634 1 0 0 1 I I 0 1 1 forward I I I I #
face $-1 $174 $175 $57 $-1 $176 reversed single #
loop $-1 $-1 $177 $72 #
plane-surface $-1 27.889131664084037 -138.95619055352529 73.713159812595407 1 0 0 0 0.82903758062907751 -0.55919289150049634 forward_v I I I I #
face $-1 $178 $179 $58 $-1 $180 forward single #
loop $-1 $181 $182 $73 #
cone-surface $-1 32.360872504409478 -35.633496937955051 7.0962059552190775 0 0.82903758062907751 -0.55919289150049634 1 0 0 1 I I 0 1 1 forward I I I I #
face $-1 $183 $184 $59 $-1 $185 forward single #
loop $-1 $186 $187 $74 #
cone-surface $-1 39.068483764897628 -35.633496937955051 7.0962059552190775 0 0.82903758062907751 -0.55919289150049634 1 0 0 1 I I 0 1 1 forward I I I I #
face $-1 $188 $189 $45 $-1 $190 reversed single #
loop $-1 $-1 $191 $75 #
plane-surface $-1 0 0 -9.8834060650172404 0 0 1 1 0 0 forward_v I I I I #
coedge $-1 $192 $193 $194 $195 forward $76 $-1 #
face $-1 $196 $197 $46 $-1 $198 reversed single #
loop $-1 $-1 $199 $78 #
plane-surface $-1 -55.206459273580919 0 -2.591410122484517 0 0 1 1 0 0 forward_v I I I I #
coedge $-1 $200 $201 $202 $203 forward $79 $-1 #
face $-1 $204 $205 $47 $-1 $206 reversed single #
loop $-1 $-1 $207 $81 #
plane-surface $-1 55.206459273580926 0 -2.591410122484517 0 0 1 1 0 0 forward_v I I I I #
coedge $-1 $208 $209 $210 $211 reversed $82 $-1 #
face $-1 $212 $213 $48 $-1 $214 reversed single #
loop $-1 $-1 $215 $84 #
plane-surface $-1 -38.625668953950168 -38.057861486405614 5.6563796413054064 0 -0.82903758062907751 0.55919289150049634 1 0 0 forward_v I I I I #
coedge $-1 $216 $217 $218 $219 reversed $85 $-1 #
face $-1 $-1 $220 $49 $-1 $221 forward single #
loop $-1 $222 $223 $87 #
cone-surface $-1 -41.979474584194236 -34.220196216645505 6.1429226115265827 0 0.82903758062907751 -0.55919289150049634 0.5 0 0 1 I I -0.70710678118654746 0.70710678118654746 0.5 forward I I I I #
loop $-1 $-1 $224 $64 #
coedge $-1 $140 $140 $225 $226 reversed $88 $-1 #
face $-1 $-1 $227 $50 $-1 $228 forward single #
loop $-1 $229 $230 $90 #
cone-surface $-1 -35.271863323706086 -34.220196216645505 6.1429226115265827 0 0.82903758062907751 -0.55919289150049634 0.5 0 0 1 I I -0.70710678118654746 0.70710678118654746 0.5 forward I I I I #
loop $-1 $-1 $231 $65 #
coedge $-1 $145 $145 $232 $233 reversed $91 $-1 #
face $-1 $234 $235 $51 $-1 $236 reversed single #
loop $-1 $-1 $237 $93 #
plane-surface $-1 -13.845553257748925 -38.057861486405614 5.6563796413054064 0 -0.82903758062907751 0.55919289150049634 1 0 0 forward_v I I I I #
coedge $-1 $238 $239 $240 $241 reversed $94 $-1 #
face $-1 $-1 $242 $52 $-1 $243 forward single #
loop $-1 $244 $245 $96 #
cone-surface $-1 -17.199358887993 -34.220196216645505 6.1429226115265827 0 0.82903758062907751 -0.55919289150049634 0.5 0 0 1 I I -0.70710678118654746 0.70710678118654746 0.5 forward I I I I #
loop $-1 $-1 $246 $67 #
coedge $-1 $154 $154 $247 $248 reversed $97 $-1 #
face $-1 $-1 $249 $53 $-1 $250 forward single #
loop $-1 $251 $252 $99 #
cone-surface $-1 -10.491747627504843 -34.220196216645505 6.1429226115265827 0 0.82903758062907751 -0.55919289150049634 0.5 0 0 1 I I -0.70710678118654746 0.70710678118654746 0.5 forward I I I I #
loop $-1 $-1 $253 $68 #
coedge $-1 $159 $159 $254 $255 reversed $100 $-1 #
face $-1 $256 $257 $54 $-1 $258 reversed single #
loop $-1 $-1 $259 $102 #
plane-surface $-1 10.934562438452311 -38.057861486405614 5.6563796413054064 0 -0.82903758062907751 0.55919289150049634 1 0 0 forward_v I I I I #
coedge $-1 $260 $261 $262 $263 reversed $103 $-1 #
face $-1 $-1 $264 $55 $-1 $265 forward single #
loop $-1 $266 $267 $105 #
cone-surface $-1 7.5807568082082426 -34.220196216645505 6.1429226115265827 0 0.82903758062907751 -0.55919289150049634 0.5 0 0 1 I I -0.70710678118654746 0.70710678118654746 0.5 forward I I I I #
loop $-1 $-1 $268 $70 #
coedge $-1 $168 $168 $269 $270 reversed $106 $-1 #
face $-1 $-1 $271 $56 $-1 $272 forward single #
loop $-1 $273 $274 $108 #
cone-surface $-1 14.288368068696393 -34.220196216645505 6.1429226115265827 0 0.82903758062907751 -0.55919289150049634 0.5 0 0 1 I I -0.70710678118654746 0.70710678118654746 0.5 forward I I I I #
loop $-1 $-1 $275 $71 #
coedge $-1 $173 $173 $276 $277 reversed $109 $-1 #
face $-1 $278 $279 $57 $-1 $280 reversed single #
loop $-1 $-1 $281 $111 #
plane-surface $-1 35.714678134653546 -38.057861486405614 5.6563796413054064 0 -0.82903758062907751 0.55919289150049634 1 0 0 forward_v I I I I #
coedge $-1 $282 $283 $284 $285 reversed $112 $-1 #
face $-1 $-1 $286 $58 $-1 $287 forward single #
loop $-1 $288 $289 $114 #
cone-surface $-1 32.360872504409478 -34.220196216645505 6.1429226115265827 0 0.82903758062907751 -0.55919289150049634 0.5 0 0 1 I I -0.70710678118654746 0.70710678118654746 0.5 forward I I I I #
loop $-1 $-1 $290 $73 #
coedge $-1 $182 $182 $291 $292 reversed $115 $-1 #
face $-1 $-1 $293 $59 $-1 $294 forward single #
loop $-1 $295 $296 $117 #
cone-surface $-1 39.068483764897628 -34.220196216645505 6.1429226115265827 0 0.82903758062907751 -0.55919289150049634 0.5 0 0 1 I I -0.70710678118654746 0.70710678118654746 0.5 forward I I I I #
loop $-1 $-1 $297 $74 #
coedge $-1 $187 $187 $298 $299 reversed $118 $-1 #
face $-1 $300 $301 $45 $-1 $302 reversed single #
loop $-1 $-1 $303 $120 #
plane-surface $-1 0 -38.057861486405606 0 0 1 0 0 0 1 forward_v I I I I #
coedge $-1 $304 $305 $306 $307 forward $121 $-1 #
coedge $-1 $308 $123 $309 $310 forward $76 $-1 #
coedge $-1 $123 $308 $311 $312 forward $76 $-1 #
coedge $-1 $313 $314 $123 $195 reversed $315 $-1 #
edge $-1 $316 -38.057861486405606 $317 38.057861486405606 $194 $318 forward 7 unknown #
face $-1 $319 $320 $46 $-1 $321 reversed single #
loop $-1 $-1 $322 $124 #
plane-surface $-1 -49.560231392402478 0 0.22871017189982368 -1 0 0 0 0 1 forward_v I I I I #
coedge $-1 $323 $324 $325 $326 forward $125 $-1 #
coedge $-1 $327 $127 $328 $329 reversed $79 $-1 #
coedge $-1 $127 $327 $330 $331 reversed $79 $-1 #
coedge $-1 $322 $332 $127 $203 reversed $197 $-1 #
edge $-1 $333 -38.057861486405606 $334 38.057861486405606 $202 $335 forward 7 unknown #
face $-1 $336 $337 $47 $-1 $338 reversed single #
loop $-1 $-1 $339 $128 #
plane-surface $-1 49.560231392402486 0 0.22871017189982368 1 0 0 0 0 -1 forward_v I I I I #
coedge $-1 $340 $341 $342 $343 reversed $129 $-1 #
coedge $-1 $344 $131 $345 $346 reversed $82 $-1 #
coedge $-1 $131 $344 $347 $348 reversed $82 $-1 #
coedge $-1 $349 $350 $131 $211 forward $351 $-1 #
edge $-1 $352 -38.057861486405606 $353 38.057861486405606 $210 $354 forward 7 unknown #
face $-1 $355 $356 $48 $-1 $357 forward single #
loop $-1 $-1 $358 $132 #
plane-surface $-1 -30.800122483380658 -138.95619055352529 73.713159812595407 -1 0 0 0 -0.82903758062907751 0.55919289150049634 forward_v I I I I #
coedge $-1 $359 $360 $361 $362 reversed $133 $-1 #
coedge $-1 $217 $135 $363 $364 reversed $85 $-1 #
coedge $-1 $135 $216 $359 $365 reversed $85 $-1 #
coedge $-1 $361 $366 $135 $219 forward $367 $-1 #
edge $-1 $368 26.973173841280463 $369 31.200200264992286 $218 $370 forward 7 unknown #
loop $-1 $-1 $225 $136 #
plane-surface $-1 -38.625668953950168 -38.057861486405614 5.6563796413054064 0 -0.82903758062907751 0.55919289150049634 1 0 0 forward_v I I I I #
loop $-1 $-1 $371 $87 #
coedge $-1 $223 $223 $224 $372 reversed $137 $-1 #
coedge $-1 $224 $224 $223 $372 forward $139 $-1 #
coedge $-1 $225 $225 $140 $226 forward $220 $-1 #
edge $-1 $373 -4.4469525996725958e-016 $373 6.2831853071795996 $225 $374 forward 7 unknown #
loop $-1 $-1 $232 $141 #
plane-surface $-1 -38.625668953950168 -38.057861486405614 5.6563796413054064 0 -0.82903758062907751 0.55919289150049634 1 0 0 forward_v I I I I #
loop $-1 $-1 $375 $90 #
coedge $-1 $230 $230 $231 $376 reversed $142 $-1 #
coedge $-1 $231 $231 $230 $376 forward $144 $-1 #
coedge $-1 $232 $232 $145 $233 forward $227 $-1 #
edge $-1 $377 -4.4469525996725958e-016 $377 6.2831853071795996 $232 $378 forward 7 unknown #
face $-1 $379 $380 $51 $-1 $381 reversed single #
loop $-1 $-1 $382 $146 #
plane-surface $-1 -6.0200067871794154 -138.95619055352529 73.713159812595407 -1 0 0 0 -0.82903758062907751 0.55919289150049634 forward_v I I I I #
coedge $-1 $383 $384 $385 $386 reversed $147 $-1 #
coedge $-1 $239 $149 $387 $388 reversed $94 $-1 #
coedge $-1 $149 $238 $383 $389 reversed $94 $-1 #
coedge $-1 $385 $390 $149 $241 forward $380 $-1 #
edge $-1 $391 26.973173841280463 $392 31.200200264992286 $240 $393 forward 7 unknown #
loop $-1 $-1 $247 $150 #
plane-surface $-1 -13.845553257748925 -38.057861486405614 5.6563796413054064 0 -0.82903758062907751 0.55919289150049634 1 0 0 forward_v I I I I #
loop $-1 $-1 $394 $96 #
coedge $-1 $245 $245 $246 $395 reversed $151 $-1 #
coedge $-1 $246 $246 $245 $395 forward $153 $-1 #
coedge $-1 $247 $247 $154 $248 forward $242 $-1 #
edge $-1 $396 -4.4469525996725958e-016 $396 6.2831853071795996 $247 $397 forward 7 unknown #
loop $-1 $-1 $254 $155 #
plane-surface $-1 -13.845553257748925 -38.057861486405614 5.6563796413054064 0 -0.82903758062907751 0.55919289150049634 1 0 0 forward_v I I I I #
loop $-1 $-1 $398 $99 #
coedge $-1 $252 $252 $253 $399 reversed $156 $-1 #
coedge $-1 $253 $253 $252 $399 forward $158 $-1 #
coedge $-1 $254 $254 $159 $255 forward $249 $-1 #
edge $-1 $400 -4.4469525996725958e-016 $400 6.2831853071795996 $254 $401 forward 7 unknown #
face $-1 $402 $403 $54 $-1 $404 reversed single #
loop $-1 $-1 $405 $160 #
plane-surface $-1 18.76010890902182 -138.95619055352529 73.713159812595407 -1 0 0 0 -0.82903758062907751 0.55919289150049634 forward_v I I I I #
coedge $-1 $406 $407 $408 $409 reversed $161 $-1 #
coedge $-1 $261 $163 $410 $411 reversed $103 $-1 #
coedge $-1 $163 $260 $406 $412 reversed $103 $-1 #
coedge $-1 $408 $413 $163 $263 forward $403 $-1 #
edge $-1 $414 26.973173841280463 $415 31.200200264992286 $262 $416 forward 7 unknown #
loop $-1 $-1 $269 $164 #
plane-surface $-1 10.934562438452311 -38.057861486405614 5.6563796413054064 0 -0.82903758062907751 0.55919289150049634 1 0 0 forward_v I I I I #
loop $-1 $-1 $417 $105 #
coedge $-1 $267 $267 $268 $418 reversed $165 $-1 #
coedge $-1 $268 $268 $267 $418 forward $167 $-1 #
coedge $-1 $269 $269 $168 $270 forward $264 $-1 #
edge $-1 $419 -4.4469525996725958e-016 $419 6.2831853071795996 $269 $420 forward 7 unknown #
loop $-1 $-1 $276 $169 #
plane-surface $-1 10.934562438452311 -38.057861486405614 5.6563796413054064 0 -0.82903758062907751 0.55919289150049634 1 0 0 forward_v I I I I #
loop $-1 $-1 $421 $108 #
coedge $-1 $274 $274 $275 $422 reversed $170 $-1 #
coedge $-1 $275 $275 $274 $422 forward $172 $-1 #
coedge $-1 $276 $276 $173 $277 forward $271 $-1 #
edge $-1 $423 -4.4469525996725958e-016 $423 6.2831853071795996 $276 $424 forward 7 unknown #
face $-1 $425 $426 $57 $-1 $427 reversed single #
loop $-1 $-1 $428 $174 #
plane-surface $-1 43.540224605223059 -138.95619055352529 73.713159812595407 -1 0 0 0 -0.82903758062907751 0.55919289150049634 forward_v I I I I #
coedge $-1 $429 $430 $431 $432 reversed $175 $-1 #
coedge $-1 $283 $177 $433 $434 reversed $112 $-1 #
coedge $-1 $177 $282 $429 $435 reversed $112 $-1 #
coedge $-1 $431 $436 $177 $285 forward $426 $-1 #
edge $-1 $437 26.973173841280463 $438 31.200200264992286 $284 $439 forward 7 unknown #
loop $-1 $-1 $291 $178 #
plane-surface $-1 35.714678134653546 -38.057861486405614 5.6563796413054064 0 -0.82903758062907751 0.55919289150049634 1 0 0 forward_v I I I I #
loop $-1 $-1 $440 $114 #
coedge $-1 $289 $289 $290 $441 reversed $179 $-1 #
coedge $-1 $290 $290 $289 $441 forward $181 $-1 #
coedge $-1 $291 $291 $182 $292 forward $286 $-1 #
edge $-1 $442 -4.4469525996725958e-016 $442 6.2831853071795996 $291 $443 forward 7 unknown #
loop $-1 $-1 $298 $183 #
plane-surface $-1 35.714678134653546 -38.057861486405614 5.6563796413054064 0 -0.82903758062907751 0.55919289150049634 1 0 0 forward_v I I I I #
loop $-1 $-1 $444 $117 #
coedge $-1 $296 $296 $297 $445 reversed $184 $-1 #
coedge $-1 $297 $297 $296 $445 forward $186 $-1 #
coedge $-1 $298 $298 $187 $299 forward $293 $-1 #
edge $-1 $446 -4.4469525996725958e-016 $446 6.2831853071795996 $298 $447 forward 7 unknown #
face $-1 $448 $449 $45 $-1 $450 reversed single #
loop $-1 $-1 $451 $188 #
plane-surface $-1 -60.852687154759359 0 0 1 0 0 0 0 -1 forward_v I I I I #
coedge $-1 $452 $311 $453 $454 forward $189 $-1 #
coedge $-1 $455 $191 $452 $456 forward $121 $-1 #
coedge $-1 $191 $455 $457 $458 forward $121 $-1 #
coedge $-1 $314 $313 $191 $307 reversed $315 $-1 #
edge $-1 $459 -38.057861486405606 $460 38.057861486405606 $306 $461 forward 7 unknown #
coedge $-1 $193 $192 $462 $463 forward $76 $-1 #
coedge $-1 $464 $465 $192 $310 reversed $449 $-1 #
edge $-1 $317 -60.852687154759359 $466 60.852687154759359 $309 $467 forward 7 unknown #
coedge $-1 $303 $468 $193 $312 reversed $189 $-1 #
edge $-1 $469 -60.852687154759359 $316 60.852687154759359 $311 $470 forward 7 unknown #
coedge $-1 $306 $194 $468 $471 forward $315 $-1 #
coedge $-1 $194 $306 $464 $472 reversed $315 $-1 #
loop $-1 $-1 $313 $448 #
vertex $-1 $195 $473 #
vertex $-1 $195 $474 #
straight-curve $-1 60.852687154759359 0 9.8834060650172404 0 1 0 I I #
face $-1 $475 $476 $46 $-1 $477 reversed single #
loop $-1 $-1 $478 $196 #
plane-surface $-1 0 -38.057861486405606 0 0 1 0 0 0 1 forward_v I I I I #
coedge $-1 $325 $202 $479 $480 reversed $197 $-1 #
coedge $-1 $481 $199 $478 $482 reversed $125 $-1 #
coedge $-1 $199 $481 $483 $484 reversed $125 $-1 #
coedge $-1 $332 $322 $199 $326 reversed $197 $-1 #
edge $-1 $485 -38.057861486405606 $486 38.057861486405606 $325 $487 forward 7 unknown #
coedge $-1 $201 $200 $488 $489 reversed $79 $-1 #
coedge $-1 $490 $491 $200 $329 forward $492 $-1 #
edge $-1 $493 -33.249457517968899 $334 -21.957001755612019 $328 $494 forward 7 unknown #
coedge $-1 $495 $479 $201 $331 forward $320 $-1 #
edge $-1 $333 21.957001755612019 $496 33.249457517968899 $330 $497 forward 7 unknown #
coedge $-1 $202 $325 $490 $498 reversed $197 $-1 #
vertex $-1 $331 $499 #
vertex $-1 $329 $500 #
straight-curve $-1 -49.560231392402478 0 3.0488304662841643 0 1 0 I I #
face $-1 $501 $502 $47 $-1 $503 reversed single #
loop $-1 $-1 $347 $204 #
plane-surface $-1 0 -38.057861486405606 0 0 1 0 0 0 1 forward_v I I I I #
coedge $-1 $504 $505 $506 $507 reversed $205 $-1 #
coedge $-1 $508 $207 $509 $510 reversed $129 $-1 #
coedge $-1 $207 $508 $511 $512 reversed $129 $-1 #
coedge $-1 $350 $349 $207 $343 forward $351 $-1 #
edge $-1 $513 -38.057861486405606 $514 38.057861486405606 $342 $515 forward 7 unknown #
coedge $-1 $209 $208 $505 $516 forward $82 $-1 #
coedge $-1 $517 $506 $208 $346 forward $502 $-1 #
edge $-1 $518 21.957001755612023 $352 33.249457517968906 $345 $519 forward 7 unknown #
coedge $-1 $520 $521 $209 $348 forward $337 $-1 #
edge $-1 $353 -33.249457517968906 $522 -21.957001755612023 $347 $523 forward 7 unknown #
coedge $-1 $342 $210 $521 $524 forward $351 $-1 #
coedge $-1 $210 $342 $517 $525 reversed $351 $-1 #
loop $-1 $-1 $210 $501 #
vertex $-1 $525 $526 #
vertex $-1 $524 $527 #
straight-curve $-1 60.852687154759359 0 3.0488304662841643 0 -1 0 I I #
face $-1 $-1 $367 $48 $-1 $528 reversed single #
loop $-1 $-1 $529 $212 #
plane-surface $-1 0 0 9.8834060650172404 0 0 1 1 0 0 forward_v I I I I #
coedge $-1 $530 $531 $532 $533 reversed $213 $-1 #
coedge $-1 $534 $215 $217 $365 forward $133 $-1 #
coedge $-1 $215 $534 $530 $535 forward $133 $-1 #
coedge $-1 $532 $218 $215 $362 forward $367 $-1 #
edge $-1 $369 -27.13838094754459 $536 -11.487288006405574 $361 $537 forward 7 unknown #
coedge $-1 $538 $539 $216 $364 forward $356 $-1 #
edge $-1 $540 -34.271399025268117 $368 -31.420233790357038 $363 $541 forward 7 unknown #
edge $-1 $369 1.2809303928265426e-014 $540 5.0987150914248627 $217 $542 forward 7 unknown #
coedge $-1 $218 $532 $538 $543 reversed $367 $-1 #
loop $-1 $-1 $532 $355 #
vertex $-1 $543 $544 #
vertex $-1 $219 $545 #
straight-curve $-1 -46.451215424519674 -38.057861486405606 36.856579906297704 0 0 -1 I I #
coedge $-1 $371 $371 $-1 $546 reversed $222 $-1 #
edge $-1 $547 0 $547 6.2831853071796004 $223 $548 forward 7 unknown #
vertex $-1 $226 $549 #
ellipse-curve $-1 -41.979474584194236 -36.632278868950067 7.7698928531613287 0 -0.82903758062907751 0.55919289150049634 1 0 0 1 I I #
coedge $-1 $375 $375 $-1 $550 reversed $229 $-1 #
edge $-1 $551 0 $551 6.2831853071796004 $230 $552 forward 7 unknown #
vertex $-1 $233 $553 #
ellipse-curve $-1 -35.271863323706086 -36.632278868950067 7.7698928531613287 0 -0.82903758062907751 0.55919289150049634 1 0 0 1 I I #
face $-1 $-1 $554 $51 $-1 $555 forward single #
loop $-1 $-1 $240 $234 #
plane-surface $-1 0 -38.057861486405606 0 0 1 0 0 0 1 forward_v I I I I #
coedge $-1 $556 $557 $558 $559 reversed $235 $-1 #
coedge $-1 $560 $237 $239 $389 forward $147 $-1 #
coedge $-1 $237 $560 $556 $561 forward $147 $-1 #
coedge $-1 $558 $240 $237 $386 forward $380 $-1 #
edge $-1 $392 -14.748323099443972 $562 0.90276984169504715 $385 $563 forward 7 unknown #
coedge $-1 $564 $565 $238 $388 forward $554 $-1 #
edge $-1 $566 -34.271399025268117 $391 -31.420233790357038 $387 $567 forward 7 unknown #
edge $-1 $392 1.2809303928265426e-014 $566 5.0987150914248627 $239 $568 forward 7 unknown #
coedge $-1 $240 $558 $564 $569 reversed $380 $-1 #
vertex $-1 $569 $570 #
vertex $-1 $241 $571 #
straight-curve $-1 -21.671099728318435 -38.057861486405606 36.856579906297704 0 0 -1 I I #
coedge $-1 $394 $394 $-1 $572 reversed $244 $-1 #
edge $-1 $573 0 $573 6.2831853071796004 $245 $574 forward 7 unknown #
vertex $-1 $248 $575 #
ellipse-curve $-1 -17.199358887993 -36.632278868950067 7.7698928531613287 0 -0.82903758062907751 0.55919289150049634 1 0 0 1 I I #
coedge $-1 $398 $398 $-1 $576 reversed $251 $-1 #
edge $-1 $577 0 $577 6.2831853071796004 $252 $578 forward 7 unknown #
vertex $-1 $255 $579 #
ellipse-curve $-1 -10.491747627504843 -36.632278868950067 7.7698928531613287 0 -0.82903758062907751 0.55919289150049634 1 0 0 1 I I #
face $-1 $-1 $580 $54 $-1 $581 forward single #
loop $-1 $-1 $262 $256 #
plane-surface $-1 0 -38.057861486405606 0 0 1 0 0 0 1 forward_v I I I I #
coedge $-1 $582 $583 $584 $585 reversed $257 $-1 #
coedge $-1 $586 $259 $261 $412 forward $161 $-1 #
coedge $-1 $259 $586 $582 $587 forward $161 $-1 #
coedge $-1 $584 $262 $259 $409 forward $403 $-1 #
edge $-1 $415 -2.3582652513433544 $588 13.292827689795665 $408 $589 forward 7 unknown #
coedge $-1 $590 $591 $260 $411 forward $580 $-1 #
edge $-1 $592 -34.271399025268117 $414 -31.420233790357038 $410 $593 forward 7 unknown #
edge $-1 $415 1.2809303928265426e-014 $592 5.0987150914248627 $261 $594 forward 7 unknown #
coedge $-1 $262 $584 $590 $595 reversed $403 $-1 #
vertex $-1 $595 $596 #
vertex $-1 $263 $597 #
straight-curve $-1 3.1090159678828009 -38.057861486405606 36.856579906297704 0 0 -1 I I #
coedge $-1 $417 $417 $-1 $598 reversed $266 $-1 #
edge $-1 $599 0 $599 6.2831853071796004 $267 $600 forward 7 unknown #
vertex $-1 $270 $601 #
ellipse-curve $-1 7.5807568082082426 -36.632278868950067 7.7698928531613287 0 -0.82903758062907751 0.55919289150049634 1 0 0 1 I I #
coedge $-1 $421 $421 $-1 $602 reversed $273 $-1 #
edge $-1 $603 0 $603 6.2831853071796004 $274 $604 forward 7 unknown #
vertex $-1 $277 $605 #
ellipse-curve $-1 14.288368068696393 -36.632278868950067 7.7698928531613287 0 -0.82903758062907751 0.55919289150049634 1 0 0 1 I I #
face $-1 $-1 $606 $57 $-1 $607 forward single #
loop $-1 $-1 $284 $278 #
plane-surface $-1 0 -38.057861486405606 0 0 1 0 0 0 1 forward_v I I I I #
coedge $-1 $608 $609 $610 $611 reversed $279 $-1 #
coedge $-1 $612 $281 $283 $435 forward $175 $-1 #
coedge $-1 $281 $612 $608 $613 forward $175 $-1 #
coedge $-1 $610 $284 $281 $432 forward $426 $-1 #
edge $-1 $438 10.031792596757263 $614 25.682885537896286 $431 $615 forward 7 unknown #
coedge $-1 $616 $617 $282 $434 forward $606 $-1 #
edge $-1 $618 -34.271399025268117 $437 -31.420233790357038 $433 $619 forward 7 unknown #
edge $-1 $438 1.2809303928265426e-014 $618 5.0987150914248627 $283 $620 forward 7 unknown #
coedge $-1 $284 $610 $616 $621 reversed $426 $-1 #
vertex $-1 $621 $622 #
vertex $-1 $285 $623 #
straight-curve $-1 27.889131664084037 -38.057861486405606 36.856579906297704 0 0 -1 I I #
coedge $-1 $440 $440 $-1 $624 reversed $288 $-1 #
edge $-1 $625 0 $625 6.2831853071796004 $289 $626 forward 7 unknown #
vertex $-1 $292 $627 #
ellipse-curve $-1 32.360872504409478 -36.632278868950067 7.7698928531613287 0 -0.82903758062907751 0.55919289150049634 1 0 0 1 I I #
coedge $-1 $444 $444 $-1 $628 reversed $295 $-1 #
edge $-1 $629 0 $629 6.2831853071796004 $296 $630 forward 7 unknown #
vertex $-1 $299 $631 #
ellipse-curve $-1 39.068483764897628 -36.632278868950067 7.7698928531613287 0 -0.82903758062907751 0.55919289150049634 1 0 0 1 I I #
face $-1 $-1 $315 $45 $-1 $632 reversed single #
loop $-1 $-1 $464 $300 #
plane-surface $-1 0 38.057861486405606 0 0 -1 0 0 0 -1 forward_v I I I I #
coedge $-1 $633 $462 $465 $634 forward $301 $-1 #
coedge $-1 $468 $303 $304 $456 reversed $189 $-1 #
coedge $-1 $462 $633 $303 $454 reversed $301 $-1 #
edge $-1 $469 -9.8834060650172404 $635 9.8834060650172404 $453 $636 forward 7 unknown #
coedge $-1 $305 $304 $633 $637 forward $121 $-1 #
edge $-1 $460 -60.852687154759359 $635 60.852687154759359 $452 $638 forward 7 unknown #
coedge $-1 $465 $464 $305 $458 reversed $449 $-1 #
edge $-1 $639 -60.852687154759359 $459 60.852687154759359 $457 $640 forward 7 unknown #
vertex $-1 $307 $641 #
vertex $-1 $471 $642 #
straight-curve $-1 60.852687154759359 0 -9.8834060650172404 0 -1 0 I I #
coedge $-1 $451 $453 $308 $463 reversed $301 $-1 #
edge $-1 $466 -38.057861486405606 $469 38.057861486405606 $462 $643 forward 7 unknown #
coedge $-1 $457 $309 $314 $472 forward $449 $-1 #
coedge $-1 $309 $457 $451 $634 reversed $449 $-1 #
vertex $-1 $310 $644 #
straight-curve $-1 0 38.057861486405606 9.8834060650172404 -1 0 0 I I #
coedge $-1 $311 $452 $313 $471 reversed $189 $-1 #
vertex $-1 $463 $645 #
straight-curve $-1 0 -38.057861486405606 9.8834060650172404 1 0 0 I I #
edge $-1 $316 -9.8834060650172404 $460 9.8834060650172404 $313 $646 forward 7 unknown #
edge $-1 $317 -9.8834060650172404 $459 9.8834060650172404 $314 $647 forward 7 unknown #
point $-1 60.852687154759359 -38.057861486405606 9.8834060650172404 #
point $-1 60.852687154759359 38.057861486405606 9.8834060650172404 #
face $-1 $-1 $492 $46 $-1 $648 reversed single #
loop $-1 $-1 $649 $319 #
plane-surface $-1 -60.852687154759359 0 0 1 0 0 0 0 -1 forward_v I I I I #
coedge $-1 $479 $495 $323 $482 forward $320 $-1 #
coedge $-1 $330 $478 $322 $480 forward $320 $-1 #
edge $-1 $486 -2.7057652084344288 $333 2.9344753803342525 $479 $650 forward 7 unknown #
coedge $-1 $324 $323 $649 $651 reversed $125 $-1 #
edge $-1 $652 -33.249457517968899 $486 -21.957001755612019 $478 $653 forward 7 unknown #
coedge $-1 $491 $490 $324 $484 forward $492 $-1 #
edge $-1 $485 21.957001755612019 $654 33.249457517968899 $483 $655 forward 7 unknown #
vertex $-1 $484 $656 #
vertex $-1 $482 $657 #
straight-curve $-1 -49.560231392402478 0 -2.591410122484517 0 -1 0 I I #
coedge $-1 $658 $659 $327 $489 forward $476 $-1 #
edge $-1 $496 -38.057861486405606 $493 38.057861486405606 $488 $660 forward 7 unknown #
coedge $-1 $483 $328 $332 $498 forward $492 $-1 #
coedge $-1 $328 $483 $658 $661 reversed $492 $-1 #
loop $-1 $-1 $483 $475 #
vertex $-1 $661 $662 #
straight-curve $-1 -27.603229636790459 38.057861486405606 3.0488304662841643 1 0 0 I I #
coedge $-1 $478 $330 $659 $663 forward $320 $-1 #
vertex $-1 $663 $664 #
straight-curve $-1 -27.603229636790459 -38.057861486405606 3.0488304662841643 -1 0 0 I I #
edge $-1 $334 -2.9344753803342525 $485 2.7057652084344288 $490 $665 forward 7 unknown #
point $-1 -49.560231392402478 -38.057861486405606 3.0488304662841643 #
point $-1 -49.560231392402478 38.057861486405606 3.0488304662841643 #
face $-1 $-1 $351 $47 $-1 $666 reversed single #
loop $-1 $-1 $345 $336 #
plane-surface $-1 0 38.057861486405606 0 0 -1 0 0 0 -1 forward_v I I I I #
coedge $-1 $667 $339 $508 $668 reversed $205 $-1 #
coedge $-1 $339 $667 $344 $516 reversed $205 $-1 #
coedge $-1 $345 $511 $339 $507 forward $502 $-1 #
edge $-1 $669 -2.7057652084344288 $518 2.9344753803342525 $506 $670 forward 7 unknown #
coedge $-1 $341 $340 $504 $668 forward $129 $-1 #
coedge $-1 $521 $520 $340 $510 forward $337 $-1 #
edge $-1 $671 21.957001755612023 $513 33.249457517968906 $509 $672 forward 7 unknown #
coedge $-1 $506 $517 $341 $512 forward $502 $-1 #
edge $-1 $514 -33.249457517968906 $669 -21.957001755612023 $511 $673 forward 7 unknown #
vertex $-1 $343 $674 #
vertex $-1 $343 $675 #
straight-curve $-1 60.852687154759359 0 -2.591410122484517 0 1 0 I I #
edge $-1 $518 -38.057861486405606 $522 38.057861486405606 $505 $676 forward 7 unknown #
coedge $-1 $511 $345 $350 $525 forward $502 $-1 #
vertex $-1 $346 $677 #
straight-curve $-1 27.603229636790463 38.057861486405606 3.0488304662841643 1 0 0 I I #
coedge $-1 $509 $347 $667 $678 forward $337 $-1 #
coedge $-1 $347 $509 $349 $524 reversed $337 $-1 #
vertex $-1 $348 $679 #
straight-curve $-1 27.603229636790463 -38.057861486405606 3.0488304662841643 -1 0 0 I I #
edge $-1 $353 -3.0488304662841643 $513 2.591410122484517 $349 $680 forward 7 unknown #
edge $-1 $352 -3.0488304662841643 $514 2.591410122484517 $350 $681 forward 7 unknown #
point $-1 60.852687154759366 38.057861486405606 3.0488304662841643 #
point $-1 60.852687154759366 -38.057861486405606 3.0488304662841643 #
plane-surface $-1 0 -38.057861486405606 0 0 1 0 0 0 1 forward_v I I I I #
coedge $-1 $539 $538 $531 $682 forward $356 $-1 #
coedge $-1 $531 $358 $360 $535 reversed $213 $-1 #
coedge $-1 $358 $530 $529 $682 reversed $213 $-1 #
coedge $-1 $366 $361 $358 $533 forward $367 $-1 #
edge $-1 $536 -31.200200264992286 $683 -26.973173841280463 $532 $684 forward 7 unknown #
coedge $-1 $360 $359 $539 $685 reversed $133 $-1 #
edge $-1 $686 -5.0987150914248627 $536 -1.2809303928265426e-014 $530 $687 forward 7 unknown #
vertex $-1 $362 $688 #
straight-curve $-1 -19.312834476975084 -38.057861486405606 5.6563796413054206 1 0 0 I I #
coedge $-1 $529 $363 $366 $543 forward $356 $-1 #
coedge $-1 $363 $529 $534 $685 forward $356 $-1 #
vertex $-1 $364 $689 #
straight-curve $-1 -46.451215424519674 -69.478095276762645 9.8834060650172404 0 -1 0 I I #
straight-curve $-1 -46.451215424519674 -38.057861486405614 5.6563796413054064 0 0.55919289150049634 0.82903758062907751 I I #
edge $-1 $368 -46.451215424519674 $683 -30.800122483380658 $366 $690 forward 7 unknown #
point $-1 -46.451215424519674 -38.057861486405606 9.8834060650172404 #
point $-1 -46.451215424519674 -38.057861486405606 5.656379641305417 #
edge $-1 $691 1 $691 0 $371 $-1 forward 7 unknown #
vertex $-1 $372 $692 #
ellipse-curve $-1 -41.979474584194236 -34.634715006960043 6.4225190572768307 0 -0.82903758062907751 0.55919289150049634 1 0 0 1 I I #
point $-1 -40.979474584194236 -36.63227886895006 7.7698928531613234 #
edge $-1 $693 1 $693 0 $375 $-1 forward 7 unknown #
vertex $-1 $376 $694 #
ellipse-curve $-1 -35.271863323706086 -34.634715006960043 6.4225190572768307 0 -0.82903758062907751 0.55919289150049634 1 0 0 1 I I #
point $-1 -34.271863323706086 -36.63227886895006 7.7698928531613234 #
loop $-1 $-1 $387 $379 #
plane-surface $-1 0 0 9.8834060650172404 0 0 1 1 0 0 forward_v I I I I #
coedge $-1 $557 $382 $384 $561 reversed $235 $-1 #
coedge $-1 $382 $556 $695 $696 reversed $235 $-1 #
coedge $-1 $390 $385 $382 $559 forward $380 $-1 #
edge $-1 $562 -31.200200264992286 $697 -26.973173841280463 $558 $698 forward 7 unknown #
coedge $-1 $384 $383 $565 $699 reversed $147 $-1 #
edge $-1 $700 -5.0987150914248627 $562 -1.2809303928265426e-014 $556 $701 forward 7 unknown #
vertex $-1 $386 $702 #
straight-curve $-1 -6.9227766288744625 -38.057861486405606 5.6563796413054206 1 0 0 I I #
coedge $-1 $695 $387 $390 $569 forward $554 $-1 #
coedge $-1 $387 $695 $560 $699 forward $554 $-1 #
vertex $-1 $388 $703 #
straight-curve $-1 -21.671099728318435 -69.478095276762645 9.8834060650172404 0 -1 0 I I #
straight-curve $-1 -21.671099728318435 -38.057861486405614 5.6563796413054064 0 0.55919289150049634 0.82903758062907751 I I #
edge $-1 $391 -21.671099728318435 $697 -6.0200067871794154 $390 $704 forward 7 unknown #
point $-1 -21.671099728318435 -38.057861486405606 9.8834060650172404 #
point $-1 -21.671099728318435 -38.057861486405606 5.656379641305417 #
edge $-1 $705 1 $705 0 $394 $-1 forward 7 unknown #
vertex $-1 $395 $706 #
ellipse-curve $-1 -17.199358887993 -34.634715006960043 6.4225190572768307 0 -0.82903758062907751 0.55919289150049634 1 0 0 1 I I #
point $-1 -16.199358887993 -36.63227886895006 7.7698928531613234 #
edge $-1 $707 1 $707 0 $398 $-1 forward 7 unknown #
vertex $-1 $399 $708 #
ellipse-curve $-1 -10.491747627504843 -34.634715006960043 6.4225190572768307 0 -0.82903758062907751 0.55919289150049634 1 0 0 1 I I #
point $-1 -9.4917476275048429 -36.63227886895006 7.7698928531613234 #
loop $-1 $-1 $410 $402 #
plane-surface $-1 0 0 9.8834060650172404 0 0 1 1 0 0 forward_v I I I I #
coedge $-1 $583 $405 $407 $587 reversed $257 $-1 #
coedge $-1 $405 $582 $709 $710 reversed $257 $-1 #
coedge $-1 $413 $408 $405 $585 forward $403 $-1 #
edge $-1 $588 -31.200200264992286 $711 -26.973173841280463 $584 $712 forward 7 unknown #
coedge $-1 $407 $406 $591 $713 reversed $161 $-1 #
edge $-1 $714 -5.0987150914248627 $588 -1.2809303928265426e-014 $582 $715 forward 7 unknown #
vertex $-1 $409 $716 #
straight-curve $-1 5.4672812192261553 -38.057861486405606 5.6563796413054206 1 0 0 I I #
coedge $-1 $709 $410 $413 $595 forward $580 $-1 #
coedge $-1 $410 $709 $586 $713 forward $580 $-1 #
vertex $-1 $411 $717 #
straight-curve $-1 3.1090159678828009 -69.478095276762645 9.8834060650172404 0 -1 0 I I #
straight-curve $-1 3.1090159678828009 -38.057861486405614 5.6563796413054064 0 0.55919289150049634 0.82903758062907751 I I #
edge $-1 $414 3.1090159678828009 $711 18.76010890902182 $413 $718 forward 7 unknown #
point $-1 3.1090159678828009 -38.057861486405606 9.8834060650172404 #
point $-1 3.1090159678828009 -38.057861486405606 5.656379641305417 #
edge $-1 $719 1 $719 0 $417 $-1 forward 7 unknown #
vertex $-1 $418 $720 #
ellipse-curve $-1 7.5807568082082426 -34.634715006960043 6.4225190572768307 0 -0.82903758062907751 0.55919289150049634 1 0 0 1 I I #
point $-1 8.5807568082082426 -36.63227886895006 7.7698928531613234 #
edge $-1 $721 1 $721 0 $421 $-1 forward 7 unknown #
vertex $-1 $422 $722 #
ellipse-curve $-1 14.288368068696393 -34.634715006960043 6.4225190572768307 0 -0.82903758062907751 0.55919289150049634 1 0 0 1 I I #
point $-1 15.288368068696393 -36.63227886895006 7.7698928531613234 #
loop $-1 $-1 $433 $425 #
plane-surface $-1 0 0 9.8834060650172404 0 0 1 1 0 0 forward_v I I I I #
coedge $-1 $609 $428 $430 $613 reversed $279 $-1 #
coedge $-1 $428 $608 $723 $724 reversed $279 $-1 #
coedge $-1 $436 $431 $428 $611 forward $426 $-1 #
edge $-1 $614 -31.200200264992286 $725 -26.973173841280463 $610 $726 forward 7 unknown #
coedge $-1 $430 $429 $617 $727 reversed $175 $-1 #
edge $-1 $728 -5.0987150914248627 $614 -1.2809303928265426e-014 $608 $729 forward 7 unknown #
vertex $-1 $432 $730 #
straight-curve $-1 17.857339067326773 -38.057861486405606 5.6563796413054206 1 0 0 I I #
coedge $-1 $723 $433 $436 $621 forward $606 $-1 #
coedge $-1 $433 $723 $612 $727 forward $606 $-1 #
vertex $-1 $434 $731 #
straight-curve $-1 27.889131664084037 -69.478095276762645 9.8834060650172404 0 -1 0 I I #
straight-curve $-1 27.889131664084037 -38.057861486405614 5.6563796413054064 0 0.55919289150049634 0.82903758062907751 I I #
edge $-1 $437 27.889131664084037 $725 43.540224605223059 $436 $732 forward 7 unknown #
point $-1 27.889131664084037 -38.057861486405606 9.8834060650172404 #
point $-1 27.889131664084037 -38.057861486405606 5.656379641305417 #
edge $-1 $733 1 $733 0 $440 $-1 forward 7 unknown #
vertex $-1 $441 $734 #
ellipse-curve $-1 32.360872504409478 -34.634715006960043 6.4225190572768307 0 -0.82903758062907751 0.55919289150049634 1 0 0 1 I I #
point $-1 33.360872504409478 -36.63227886895006 7.7698928531613234 #
edge $-1 $735 1 $735 0 $444 $-1 forward 7 unknown #
vertex $-1 $445 $736 #
ellipse-curve $-1 39.068483764897628 -34.634715006960043 6.4225190572768307 0 -0.82903758062907751 0.55919289150049634 1 0 0 1 I I #
point $-1 40.068483764897628 -36.63227886895006 7.7698928531613234 #
plane-surface $-1 60.852687154759359 0 0 -1 0 0 0 0 1 forward_v I I I I #
coedge $-1 $453 $451 $455 $637 reversed $301 $-1 #
edge $-1 $466 -9.8834060650172404 $639 9.8834060650172404 $465 $737 forward 7 unknown #
vertex $-1 $637 $738 #
straight-curve $-1 -60.852687154759359 -38.057861486405606 0 0 0 -1 I I #
edge $-1 $635 -38.057861486405606 $639 38.057861486405606 $633 $739 forward 7 unknown #
straight-curve $-1 0 -38.057861486405606 -9.8834060650172404 -1 0 0 I I #
vertex $-1 $458 $740 #
straight-curve $-1 0 38.057861486405606 -9.8834060650172404 1 0 0 I I #
point $-1 60.852687154759359 38.057861486405606 -9.8834060650172404 #
point $-1 60.852687154759359 -38.057861486405606 -9.8834060650172404 #
straight-curve $-1 -60.852687154759359 0 9.8834060650172404 0 -1 0 I I #
point $-1 -60.852687154759359 38.057861486405606 9.8834060650172404 #
point $-1 -60.852687154759359 -38.057861486405606 9.8834060650172404 #
straight-curve $-1 60.852687154759359 -38.057861486405606 0 0 0 -1 I I #
straight-curve $-1 60.852687154759359 38.057861486405606 0 0 0 -1 I I #
plane-surface $-1 0 38.057861486405606 0 0 -1 0 0 0 -1 forward_v I I I I #
coedge $-1 $659 $658 $481 $651 forward $476 $-1 #
straight-curve $-1 -49.560231392402478 -38.057861486405606 0.11435508594991184 0 0 1 I I #
edge $-1 $654 -38.057861486405606 $652 38.057861486405606 $649 $741 forward 7 unknown #
vertex $-1 $482 $742 #
straight-curve $-1 -27.603229636790459 -38.057861486405606 -2.591410122484517 1 0 0 I I #
vertex $-1 $484 $743 #
straight-curve $-1 -27.603229636790459 38.057861486405606 -2.591410122484517 -1 0 0 I I #
point $-1 -49.560231392402478 38.057861486405606 -2.591410122484517 #
point $-1 -49.560231392402478 -38.057861486405606 -2.591410122484517 #
coedge $-1 $649 $488 $491 $661 forward $476 $-1 #
coedge $-1 $488 $649 $495 $663 reversed $476 $-1 #
straight-curve $-1 -60.852687154759359 0 3.0488304662841643 0 1 0 I I #
edge $-1 $493 -3.0488304662841643 $654 2.591410122484517 $491 $744 forward 7 unknown #
point $-1 -60.852687154759359 38.057861486405606 3.0488304662841643 #
edge $-1 $496 -3.0488304662841643 $652 2.591410122484517 $659 $745 forward 7 unknown #
point $-1 -60.852687154759359 -38.057861486405606 3.0488304662841643 #
straight-curve $-1 -49.560231392402478 38.057861486405606 0.11435508594991184 0 0 -1 I I #
plane-surface $-1 60.852687154759359 0 0 -1 0 0 0 0 1 forward_v I I I I #
coedge $-1 $505 $504 $520 $678 reversed $205 $-1 #
edge $-1 $671 -38.057861486405606 $669 38.057861486405606 $504 $746 forward 7 unknown #
vertex $-1 $512 $747 #
straight-curve $-1 49.560231392402486 38.057861486405606 0.11435508594991184 0 0 1 I I #
vertex $-1 $510 $748 #
straight-curve $-1 27.603229636790463 -38.057861486405606 -2.591410122484517 1 0 0 I I #
straight-curve $-1 27.603229636790463 38.057861486405606 -2.591410122484517 -1 0 0 I I #
point $-1 60.852687154759366 -38.057861486405606 -2.591410122484517 #
point $-1 60.852687154759366 38.057861486405606 -2.591410122484517 #
straight-curve $-1 49.560231392402486 0 3.0488304662841643 0 -1 0 I I #
point $-1 49.560231392402486 38.057861486405606 3.0488304662841643 #
edge $-1 $522 -2.9344753803342525 $671 2.7057652084344288 $520 $749 forward 7 unknown #
point $-1 49.560231392402486 -38.057861486405606 3.0488304662841643 #
straight-curve $-1 60.852687154759359 -38.057861486405606 0 0 0 -1 I I #
straight-curve $-1 60.852687154759359 38.057861486405606 0 0 0 -1 I I #
edge $-1 $683 31.420233790357038 $686 34.271399025268117 $529 $750 forward 7 unknown #
vertex $-1 $682 $751 #
straight-curve $-1 -30.800122483380658 -38.057861486405606 36.856579906297704 0 0 1 I I #
edge $-1 $686 11.487288006405574 $540 27.13838094754459 $539 $752 forward 7 unknown #
vertex $-1 $685 $753 #
straight-curve $-1 -30.800122483380658 -38.057861486405614 5.6563796413054064 0 -0.55919289150049634 -0.82903758062907751 I I #
point $-1 -30.800122483380658 -38.057861486405606 5.656379641305417 #
point $-1 -46.451215424519674 -35.206696251494527 9.8834060650172404 #
straight-curve $-1 0 -38.057861486405606 9.8834060650172404 1 0 0 I I #
vertex $-1 $546 $754 #
point $-1 -40.979474584194236 -34.634715006960043 6.4225190572768307 #
vertex $-1 $550 $755 #
point $-1 -34.271863323706086 -34.634715006960043 6.4225190572768307 #
coedge $-1 $565 $564 $557 $696 forward $554 $-1 #
edge $-1 $697 31.420233790357038 $700 34.271399025268117 $695 $756 forward 7 unknown #
vertex $-1 $696 $757 #
straight-curve $-1 -6.0200067871794154 -38.057861486405606 36.856579906297704 0 0 1 I I #
edge $-1 $700 -0.90276984169504715 $566 14.748323099443972 $565 $758 forward 7 unknown #
vertex $-1 $699 $759 #
straight-curve $-1 -6.0200067871794154 -38.057861486405614 5.6563796413054064 0 -0.55919289150049634 -0.82903758062907751 I I #
point $-1 -6.0200067871794154 -38.057861486405606 5.656379641305417 #
point $-1 -21.671099728318435 -35.206696251494527 9.8834060650172404 #
straight-curve $-1 0 -38.057861486405606 9.8834060650172404 1 0 0 I I #
vertex $-1 $572 $760 #
point $-1 -16.199358887993 -34.634715006960043 6.4225190572768307 #
vertex $-1 $576 $761 #
point $-1 -9.4917476275048429 -34.634715006960043 6.4225190572768307 #
coedge $-1 $591 $590 $583 $710 forward $580 $-1 #
edge $-1 $711 31.420233790357038 $714 34.271399025268117 $709 $762 forward 7 unknown #
vertex $-1 $710 $763 #
straight-curve $-1 18.76010890902182 -38.057861486405606 36.856579906297704 0 0 1 I I #
edge $-1 $714 -13.292827689795665 $592 2.3582652513433544 $591 $764 forward 7 unknown #
vertex $-1 $713 $765 #
straight-curve $-1 18.76010890902182 -38.057861486405614 5.6563796413054064 0 -0.55919289150049634 -0.82903758062907751 I I #
point $-1 18.76010890902182 -38.057861486405606 5.656379641305417 #
point $-1 3.1090159678828009 -35.206696251494527 9.8834060650172404 #
straight-curve $-1 0 -38.057861486405606 9.8834060650172404 1 0 0 I I #
vertex $-1 $598 $766 #
point $-1 8.5807568082082426 -34.634715006960043 6.4225190572768307 #
vertex $-1 $602 $767 #
point $-1 15.288368068696393 -34.634715006960043 6.4225190572768307 #
coedge $-1 $617 $616 $609 $724 forward $606 $-1 #
edge $-1 $725 31.420233790357038 $728 34.271399025268117 $723 $768 forward 7 unknown #
vertex $-1 $724 $769 #
straight-curve $-1 43.540224605223059 -38.057861486405606 36.856579906297704 0 0 1 I I #
edge $-1 $728 -25.682885537896286 $618 -10.031792596757263 $617 $770 forward 7 unknown #
vertex $-1 $727 $771 #
straight-curve $-1 43.540224605223059 -38.057861486405614 5.6563796413054064 0 -0.55919289150049634 -0.82903758062907751 I I #
point $-1 43.540224605223059 -38.057861486405606 5.656379641305417 #
point $-1 27.889131664084037 -35.206696251494527 9.8834060650172404 #
straight-curve $-1 0 -38.057861486405606 9.8834060650172404 1 0 0 I I #
vertex $-1 $624 $772 #
point $-1 33.360872504409478 -34.634715006960043 6.4225190572768307 #
vertex $-1 $628 $773 #
point $-1 40.068483764897628 -34.634715006960043 6.4225190572768307 #
straight-curve $-1 -60.852687154759359 38.057861486405606 0 0 0 -1 I I #
point $-1 -60.852687154759359 -38.057861486405606 -9.8834060650172404 #
straight-curve $-1 -60.852687154759359 0 -9.8834060650172404 0 1 0 I I #
point $-1 -60.852687154759359 38.057861486405606 -9.8834060650172404 #
straight-curve $-1 -60.852687154759359 0 -2.591410122484517 0 -1 0 I I #
point $-1 -60.852687154759359 -38.057861486405606 -2.591410122484517 #
point $-1 -60.852687154759359 38.057861486405606 -2.591410122484517 #
straight-curve $-1 -60.852687154759359 38.057861486405606 0 0 0 -1 I I #
straight-curve $-1 -60.852687154759359 -38.057861486405606 0 0 0 -1 I I #
straight-curve $-1 49.560231392402486 0 -2.591410122484517 0 1 0 I I #
point $-1 49.560231392402486 38.057861486405606 -2.591410122484517 #
point $-1 49.560231392402486 -38.057861486405606 -2.591410122484517 #
straight-curve $-1 49.560231392402486 -38.057861486405606 0.11435508594991184 0 0 -1 I I #
straight-curve $-1 -30.800122483380658 -69.478095276762645 9.8834060650172404 0 1 0 I I #
point $-1 -30.800122483380658 -38.057861486405606 9.8834060650172404 #
straight-curve $-1 -19.312834476975084 -35.206696251494527 9.8834060650172404 -1 0 0 I I #
point $-1 -30.800122483380658 -35.206696251494527 9.8834060650172404 #
point $-1 -41.979474584194236 -33.805677426330966 5.8633261657763347 #
point $-1 -35.271863323706086 -33.805677426330966 5.8633261657763347 #
straight-curve $-1 -6.0200067871794154 -69.478095276762645 9.8834060650172404 0 1 0 I I #
point $-1 -6.0200067871794154 -38.057861486405606 9.8834060650172404 #
straight-curve $-1 -6.9227766288744625 -35.206696251494527 9.8834060650172404 -1 0 0 I I #
point $-1 -6.0200067871794154 -35.206696251494527 9.8834060650172404 #
point $-1 -17.199358887993 -33.805677426330966 5.8633261657763347 #
point $-1 -10.491747627504843 -33.805677426330966 5.8633261657763347 #
straight-curve $-1 18.76010890902182 -69.478095276762645 9.8834060650172404 0 1 0 I I #
point $-1 18.76010890902182 -38.057861486405606 9.8834060650172404 #
straight-curve $-1 5.4672812192261553 -35.206696251494527 9.8834060650172404 -1 0 0 I I #
point $-1 18.76010890902182 -35.206696251494527 9.8834060650172404 #
point $-1 7.5807568082082426 -33.805677426330966 5.8633261657763347 #
point $-1 14.288368068696393 -33.805677426330966 5.8633261657763347 #
straight-curve $-1 43.540224605223059 -69.478095276762645 9.8834060650172404 0 1 0 I I #
point $-1 43.540224605223059 -38.057861486405606 9.8834060650172404 #
straight-curve $-1 17.857339067326773 -35.206696251494527 9.8834060650172404 -1 0 0 I I #
point $-1 43.540224605223059 -35.206696251494527 9.8834060650172404 #
point $-1 32.360872504409478 -33.805677426330966 5.8633261657763347 #
point $-1 39.068483764897628 -33.805677426330966 5.8633261657763347 #
End-of-ACIS-data 