500 0 9 0           
7 Unknown 11 ACIS 5.0 NT 24 Thu Mar 25 16:13:35 1999 
-1 9.9999999999999995e-007 1e-010 
body $-1 $9 $-1 $10 #
body $-1 $11 $-1 $12 #
body $-1 $13 $-1 $14 #
body $-1 $15 $-1 $16 #
body $-1 $17 $-1 $18 #
body $-1 $19 $-1 $20 #
body $-1 $21 $-1 $22 #
body $-1 $23 $-1 $24 #
body $-1 $25 $-1 $26 #
lump $-1 $-1 $27 $0 #
transform $-1 1 0 0 0 1 0 0 0 1 42.50373851741081 22.407500858948371 11.048039258308606 1 rotate no_reflect no_shear #
lump $-1 $-1 $28 $1 #
transform $-1 1 0 0 0 1 0 0 0 1 42.50373851741081 22.407500858948371 11.048039258308606 1 rotate no_reflect no_shear #
lump $-1 $-1 $29 $2 #
transform $-1 1 0 0 0 1 0 0 0 1 42.50373851741081 22.407500858948371 11.048039258308606 1 rotate no_reflect no_shear #
lump $-1 $-1 $30 $3 #
transform $-1 1 0 0 0 1 0 0 0 1 42.50373851741081 22.407500858948371 11.048039258308606 1 rotate no_reflect no_shear #
lump $-1 $-1 $31 $4 #
transform $-1 1 0 0 0 1 0 0 0 1 42.50373851741081 22.407500858948371 11.048039258308606 1 rotate no_reflect no_shear #
lump $-1 $-1 $32 $5 #
transform $-1 1 0 0 0 1 0 0 0 1 42.50373851741081 22.407500858948371 11.048039258308606 1 rotate no_reflect no_shear #
lump $-1 $-1 $33 $6 #
transform $-1 1 0 0 0 1 0 0 0 1 42.50373851741081 22.407500858948371 11.048039258308606 1 rotate no_reflect no_shear #
lump $-1 $-1 $34 $7 #
transform $-1 1 0 0 0 1 0 0 0 1 42.50373851741081 22.407500858948371 11.048039258308606 1 rotate no_reflect no_shear #
lump $-1 $-1 $35 $8 #
transform $-1 1 0 0 0 1 0 0 0 1 42.50373851741081 22.407500858948371 11.048039258308606 1 rotate no_reflect no_shear #
shell $-1 $-1 $-1 $36 $-1 $9 #
shell $-1 $-1 $-1 $37 $-1 $11 #
shell $-1 $-1 $-1 $38 $-1 $13 #
shell $-1 $-1 $-1 $39 $-1 $15 #
shell $-1 $-1 $-1 $40 $-1 $17 #
shell $-1 $-1 $-1 $41 $-1 $19 #
shell $-1 $-1 $-1 $42 $-1 $21 #
shell $-1 $-1 $-1 $43 $-1 $23 #
shell $-1 $-1 $-1 $44 $-1 $25 #
face $-1 $45 $46 $27 $-1 $47 reversed single #
face $-1 $48 $49 $28 $-1 $50 forward single #
face $-1 $51 $52 $29 $-1 $53 reversed single #
face $-1 $54 $55 $30 $-1 $56 reversed single #
face $-1 $57 $58 $31 $-1 $59 forward single #
face $-1 $60 $61 $32 $-1 $62 forward single #
face $-1 $63 $64 $33 $-1 $65 reversed single #
face $-1 $66 $67 $34 $-1 $68 forward single #
face $-1 $69 $70 $35 $-1 $71 forward single #
face $-1 $72 $73 $27 $-1 $74 forward single #
loop $-1 $-1 $75 $36 #
plane-surface $-1 -42.50373851741081 0 0 1 0 0 0 0 -1 forward_v I I I I #
face $-1 $76 $77 $28 $-1 $78 reversed single #
loop $-1 $-1 $79 $37 #
plane-surface $-1 -42.50373851741081 0 0 1 0 0 0 0 -1 forward_v I I I I #
face $-1 $80 $81 $29 $-1 $82 reversed single #
loop $-1 $-1 $83 $38 #
plane-surface $-1 35.553619220672445 0 5.8798348038511961 0 0 1 1 0 0 forward_v I I I I #
face $-1 $84 $85 $30 $-1 $86 reversed single #
loop $-1 $-1 $87 $39 #
plane-surface $-1 -13.207526396092504 72.191699526892336 86.414709473967193 1 0 0 0 -0.85716730853699208 -0.51503806187062418 forward_v I I I I #
face $-1 $88 $89 $31 $-1 $90 forward single #
loop $-1 $91 $92 $40 #
cone-surface $-1 -9.9609985629868234 19.561026408023594 7.1558353227095468 0 -0.85716730853699208 -0.51503806187062418 1 0 0 1 I I 0 1 1 forward I I I I #
face $-1 $93 $94 $32 $-1 $95 forward single #
loop $-1 $96 $97 $41 #
cone-surface $-1 -5.0912068133282986 19.561026408023594 7.1558353227095468 0 -0.85716730853699208 -0.51503806187062418 1 0 0 1 I I 0 1 1 forward I I I I #
face $-1 $98 $99 $33 $-1 $100 reversed single #
loop $-1 $-1 $101 $42 #
plane-surface $-1 -7.5261026881575575 -0.67393076856588152 42.632623257441075 0 0.85716730853699208 0.51503806187062418 1 0 0 forward_v I I I I #
face $-1 $102 $103 $34 $-1 $104 forward single #
loop $-1 $105 $106 $43 #
cone-surface $-1 1.4018488528830702 19.561026408023594 7.1558353227095468 0 -0.85716730853699208 -0.51503806187062418 1 0 0 1 I I 0 1 1 forward I I I I #
face $-1 $107 $108 $35 $-1 $109 forward single #
loop $-1 $110 $111 $44 #
cone-surface $-1 6.2716406025415949 19.561026408023594 7.1558353227095468 0 -0.85716730853699208 -0.51503806187062418 1 0 0 1 I I 0 1 1 forward I I I I #
face $-1 $112 $113 $27 $-1 $114 reversed single #
loop $-1 $-1 $115 $45 #
plane-surface $-1 0 0 11.048039258308606 0 0 1 1 0 0 forward_v I I I I #
coedge $-1 $116 $117 $118 $119 reversed $46 $-1 #
face $-1 $120 $121 $28 $-1 $122 reversed single #
loop $-1 $-1 $123 $48 #
plane-surface $-1 0 0 -11.048039258308606 0 0 1 1 0 0 forward_v I I I I #
coedge $-1 $124 $125 $126 $127 forward $49 $-1 #
face $-1 $128 $129 $29 $-1 $130 reversed single #
loop $-1 $-1 $131 $51 #
plane-surface $-1 28.603499923934073 0 8.4639370310799009 1 0 0 0 0 -1 forward_v I I I I #
coedge $-1 $132 $133 $134 $135 reversed $52 $-1 #
face $-1 $136 $137 $30 $-1 $138 reversed single #
loop $-1 $-1 $139 $54 #
plane-surface $-1 -7.5261026881575575 -0.67393076856588152 42.632623257441075 0 0.85716730853699208 0.51503806187062418 1 0 0 forward_v I I I I #
coedge $-1 $140 $141 $142 $143 reversed $55 $-1 #
face $-1 $-1 $144 $31 $-1 $145 forward single #
loop $-1 $146 $147 $57 #
cone-surface $-1 -9.9609985629868234 18.337718096833381 6.4207975589140531 0 -0.85716730853699208 -0.51503806187062418 0.5 0 0 1 I I -0.70710678118654746 0.70710678118654746 0.5 forward I I I I #
loop $-1 $-1 $148 $40 #
coedge $-1 $92 $92 $149 $150 reversed $58 $-1 #
face $-1 $-1 $151 $32 $-1 $152 forward single #
loop $-1 $153 $154 $60 #
cone-surface $-1 -5.0912068133282986 18.337718096833381 6.4207975589140531 0 -0.85716730853699208 -0.51503806187062418 0.5 0 0 1 I I -0.70710678118654746 0.70710678118654746 0.5 forward I I I I #
loop $-1 $-1 $155 $41 #
coedge $-1 $97 $97 $156 $157 reversed $61 $-1 #
face $-1 $158 $159 $33 $-1 $160 forward single #
loop $-1 $-1 $161 $63 #
plane-surface $-1 9.5181684356472829 72.191699526892336 86.414709473967193 -1 0 0 0 0.85716730853699208 0.51503806187062418 forward_v I I I I #
coedge $-1 $162 $163 $164 $165 reversed $64 $-1 #
face $-1 $-1 $166 $34 $-1 $167 forward single #
loop $-1 $168 $169 $66 #
cone-surface $-1 1.4018488528830702 18.337718096833381 6.4207975589140531 0 -0.85716730853699208 -0.51503806187062418 0.5 0 0 1 I I -0.70710678118654746 0.70710678118654746 0.5 forward I I I I #
loop $-1 $-1 $170 $43 #
coedge $-1 $106 $106 $171 $172 reversed $67 $-1 #
face $-1 $-1 $173 $35 $-1 $174 forward single #
loop $-1 $175 $176 $69 #
cone-surface $-1 6.2716406025415949 18.337718096833381 6.4207975589140531 0 -0.85716730853699208 -0.51503806187062418 0.5 0 0 1 I I -0.70710678118654746 0.70710678118654746 0.5 forward I I I I #
loop $-1 $-1 $177 $44 #
coedge $-1 $111 $111 $178 $179 reversed $70 $-1 #
face $-1 $180 $181 $27 $-1 $182 reversed single #
loop $-1 $-1 $183 $72 #
plane-surface $-1 0 0 -11.048039258308606 0 0 1 1 0 0 forward_v I I I I #
coedge $-1 $184 $185 $186 $187 forward $73 $-1 #
coedge $-1 $188 $75 $189 $190 reversed $46 $-1 #
coedge $-1 $75 $188 $191 $192 forward $46 $-1 #
coedge $-1 $193 $194 $75 $119 forward $113 $-1 #
edge $-1 $195 -22.407500858948371 $196 22.407500858948371 $75 $197 forward 7 unknown #
face $-1 $198 $199 $28 $-1 $200 reversed single #
loop $-1 $-1 $201 $76 #
plane-surface $-1 -47.60917883392657 -10.398911217460057 0 0 1 0 0 0 1 forward_v I I I I #
coedge $-1 $202 $203 $125 $204 forward $77 $-1 #
coedge $-1 $205 $79 $206 $207 reversed $49 $-1 #
coedge $-1 $79 $205 $123 $204 reversed $49 $-1 #
coedge $-1 $208 $209 $79 $127 reversed $210 $-1 #
edge $-1 $211 -11.048039258308606 $212 11.048039258308606 $126 $213 forward 7 unknown #
face $-1 $214 $215 $29 $-1 $216 forward single #
loop $-1 $-1 $217 $80 #
plane-surface $-1 0 22.407500858948371 0 0 -1 0 0 0 -1 forward_v I I I I #
coedge $-1 $218 $219 $220 $221 reversed $81 $-1 #
coedge $-1 $222 $83 $223 $224 reversed $52 $-1 #
coedge $-1 $83 $222 $217 $225 reversed $52 $-1 #
coedge $-1 $226 $227 $83 $135 forward $228 $-1 #
edge $-1 $229 -22.407500858948371 $230 22.407500858948371 $134 $231 forward 7 unknown #
face $-1 $232 $233 $30 $-1 $234 forward single #
loop $-1 $-1 $235 $84 #
plane-surface $-1 -1.8446789802226107 72.191699526892336 86.414709473967193 -1 0 0 0 0.85716730853699208 0.51503806187062418 forward_v I I I I #
coedge $-1 $236 $237 $238 $239 reversed $85 $-1 #
coedge $-1 $141 $87 $240 $241 reversed $55 $-1 #
coedge $-1 $87 $140 $236 $242 reversed $55 $-1 #
coedge $-1 $238 $243 $87 $143 forward $233 $-1 #
edge $-1 $244 13.688348904497797 $245 17.791848492503938 $142 $246 forward 7 unknown #
loop $-1 $-1 $149 $88 #
plane-surface $-1 -7.5261026881575575 -0.67393076856588152 42.632623257441075 0 0.85716730853699208 0.51503806187062418 1 0 0 forward_v I I I I #
loop $-1 $-1 $247 $57 #
coedge $-1 $147 $147 $148 $248 reversed $89 $-1 #
coedge $-1 $148 $148 $147 $248 forward $91 $-1 #
coedge $-1 $149 $149 $92 $150 forward $144 $-1 #
edge $-1 $249 -1.055361490622287e-015 $249 6.2831853071795996 $149 $250 forward 7 unknown #
loop $-1 $-1 $156 $93 #
plane-surface $-1 -7.5261026881575575 -0.67393076856588152 42.632623257441075 0 0.85716730853699208 0.51503806187062418 1 0 0 forward_v I I I I #
loop $-1 $-1 $251 $60 #
coedge $-1 $154 $154 $155 $252 reversed $94 $-1 #
coedge $-1 $155 $155 $154 $252 forward $96 $-1 #
coedge $-1 $156 $156 $97 $157 forward $151 $-1 #
edge $-1 $253 -1.055361490622287e-015 $253 6.2831853071795996 $156 $254 forward 7 unknown #
face $-1 $255 $256 $33 $-1 $257 forward single #
loop $-1 $-1 $258 $98 #
plane-surface $-1 0 0 11.048039258308606 0 0 1 1 0 0 forward_v I I I I #
coedge $-1 $259 $260 $261 $262 reversed $99 $-1 #
coedge $-1 $263 $101 $264 $265 reversed $64 $-1 #
coedge $-1 $101 $263 $258 $266 reversed $64 $-1 #
coedge $-1 $267 $268 $101 $165 forward $256 $-1 #
edge $-1 $269 -44.815001717896784 $270 -36.847630193737615 $164 $271 forward 7 unknown #
loop $-1 $-1 $171 $102 #
plane-surface $-1 -7.5261026881575575 -0.67393076856588152 42.632623257441075 0 0.85716730853699208 0.51503806187062418 1 0 0 forward_v I I I I #
loop $-1 $-1 $272 $66 #
coedge $-1 $169 $169 $170 $273 reversed $103 $-1 #
coedge $-1 $170 $170 $169 $273 forward $105 $-1 #
coedge $-1 $171 $171 $106 $172 forward $166 $-1 #
edge $-1 $274 -1.055361490622287e-015 $274 6.2831853071795996 $171 $275 forward 7 unknown #
loop $-1 $-1 $178 $107 #
plane-surface $-1 -7.5261026881575575 -0.67393076856588152 42.632623257441075 0 0.85716730853699208 0.51503806187062418 1 0 0 forward_v I I I I #
loop $-1 $-1 $276 $69 #
coedge $-1 $176 $176 $177 $277 reversed $108 $-1 #
coedge $-1 $177 $177 $176 $277 forward $110 $-1 #
coedge $-1 $178 $178 $111 $179 forward $173 $-1 #
edge $-1 $278 -1.055361490622287e-015 $278 6.2831853071795996 $178 $279 forward 7 unknown #
face $-1 $280 $281 $27 $-1 $282 reversed single #
loop $-1 $-1 $189 $112 #
plane-surface $-1 0 -22.407500858948371 0 0 1 0 0 0 1 forward_v I I I I #
coedge $-1 $194 $193 $283 $284 forward $113 $-1 #
coedge $-1 $285 $115 $286 $287 forward $73 $-1 #
coedge $-1 $115 $285 $288 $289 forward $73 $-1 #
coedge $-1 $290 $291 $115 $187 reversed $292 $-1 #
edge $-1 $293 -22.407500858948371 $294 22.407500858948371 $186 $295 forward 7 unknown #
coedge $-1 $117 $116 $285 $296 reversed $46 $-1 #
coedge $-1 $297 $288 $116 $190 forward $181 $-1 #
edge $-1 $298 -11.048039258308606 $195 11.048039258308606 $116 $299 forward 7 unknown #
coedge $-1 $286 $300 $117 $192 reversed $281 $-1 #
edge $-1 $301 -11.048039258308606 $196 11.048039258308606 $191 $302 forward 7 unknown #
coedge $-1 $183 $118 $300 $303 forward $113 $-1 #
coedge $-1 $118 $183 $297 $304 forward $113 $-1 #
vertex $-1 $119 $305 #
vertex $-1 $303 $306 #
straight-curve $-1 -42.50373851741081 0 -11.048039258308606 0 1 0 I I #
face $-1 $307 $210 $28 $-1 $308 reversed single #
loop $-1 $-1 $309 $120 #
plane-surface $-1 -52.714619150442331 -7.2382488189703977 0 1 0 0 0 0 -1 forward_v I I I I #
coedge $-1 $310 $311 $312 $313 forward $121 $-1 #
coedge $-1 $314 $123 $310 $315 forward $77 $-1 #
coedge $-1 $123 $314 $208 $316 forward $77 $-1 #
edge $-1 $211 4.0775864204807384 $317 10.398911217460057 $123 $318 forward 7 unknown #
coedge $-1 $125 $124 $319 $320 forward $49 $-1 #
coedge $-1 $321 $322 $124 $207 forward $323 $-1 #
edge $-1 $324 -10.398911217460057 $212 -4.0775864204807384 $206 $325 forward 7 unknown #
coedge $-1 $326 $126 $203 $316 reversed $210 $-1 #
coedge $-1 $126 $326 $321 $327 reversed $210 $-1 #
loop $-1 $-1 $126 $198 #
vertex $-1 $204 $328 #
vertex $-1 $327 $329 #
straight-curve $-1 -42.50373851741081 -4.0775864204807384 0 0 0 1 I I #
face $-1 $330 $331 $29 $-1 $332 reversed single #
loop $-1 $-1 $333 $128 #
plane-surface $-1 0 0 11.048039258308606 0 0 1 1 0 0 forward_v I I I I #
coedge $-1 $220 $334 $133 $225 forward $129 $-1 #
coedge $-1 $335 $131 $222 $336 reversed $81 $-1 #
coedge $-1 $131 $335 $333 $337 reversed $81 $-1 #
coedge $-1 $338 $217 $131 $221 forward $129 $-1 #
edge $-1 $339 1.6478662883112456 $340 6.8160707427686553 $220 $341 forward 7 unknown #
coedge $-1 $133 $132 $218 $336 forward $52 $-1 #
coedge $-1 $342 $343 $132 $224 forward $331 $-1 #
edge $-1 $344 10.826690313597851 $229 24.726928907074594 $223 $345 forward 7 unknown #
edge $-1 $230 -24.726928907074594 $339 -10.826690313597851 $217 $346 forward 7 unknown #
coedge $-1 $347 $134 $334 $348 reversed $228 $-1 #
coedge $-1 $134 $347 $342 $349 forward $228 $-1 #
loop $-1 $-1 $134 $330 #
vertex $-1 $224 $350 #
vertex $-1 $225 $351 #
straight-curve $-1 42.50373851741081 0 5.8798348038511961 0 1 0 I I #
face $-1 $-1 $352 $30 $-1 $353 reversed single #
loop $-1 $-1 $142 $136 #
plane-surface $-1 0 0 11.048039258308606 0 0 1 1 0 0 forward_v I I I I #
coedge $-1 $354 $355 $356 $357 reversed $137 $-1 #
coedge $-1 $358 $139 $141 $242 forward $85 $-1 #
coedge $-1 $139 $358 $354 $359 forward $85 $-1 #
coedge $-1 $356 $142 $139 $239 forward $233 $-1 #
edge $-1 $245 -9.4444750520137255 $360 1.9183723638561681 $238 $361 forward 7 unknown #
coedge $-1 $362 $363 $140 $241 forward $352 $-1 #
edge $-1 $364 -38.98868588415278 $244 -32.159315478674991 $240 $365 forward 7 unknown #
edge $-1 $245 36.847630193737615 $364 44.815001717896784 $141 $366 forward 7 unknown #
coedge $-1 $142 $356 $362 $367 forward $233 $-1 #
vertex $-1 $143 $368 #
vertex $-1 $143 $369 #
straight-curve $-1 -13.207526396092504 36.095849763446168 11.048039258308606 0 -1 0 I I #
coedge $-1 $247 $247 $-1 $370 reversed $146 $-1 #
edge $-1 $371 0 $371 6.2831853071796004 $147 $372 forward 7 unknown #
vertex $-1 $150 $373 #
ellipse-curve $-1 -9.9609985629868234 20.355751064945292 7.6333540555697184 0 0.85716730853699208 0.51503806187062418 1 0 0 1 I I #
coedge $-1 $251 $251 $-1 $374 reversed $153 $-1 #
edge $-1 $375 0 $375 6.2831853071796004 $154 $376 forward 7 unknown #
vertex $-1 $157 $377 #
ellipse-curve $-1 -5.0912068133282986 20.355751064945292 7.6333540555697184 0 0.85716730853699208 0.51503806187062418 1 0 0 1 I I #
face $-1 $-1 $378 $33 $-1 $379 reversed single #
loop $-1 $-1 $267 $158 #
plane-surface $-1 -1.8446789802226107 72.191699526892336 86.414709473967193 -1 0 0 0 0.85716730853699208 0.51503806187062418 forward_v I I I I #
coedge $-1 $261 $380 $163 $266 forward $159 $-1 #
coedge $-1 $260 $161 $263 $381 reversed $99 $-1 #
coedge $-1 $161 $259 $382 $383 reversed $99 $-1 #
coedge $-1 $384 $258 $161 $262 forward $159 $-1 #
edge $-1 $385 -17.791848492503938 $386 -13.688348904497797 $261 $387 forward 7 unknown #
coedge $-1 $163 $162 $259 $381 forward $64 $-1 #
coedge $-1 $388 $382 $162 $265 forward $378 $-1 #
edge $-1 $389 -13.281219779726062 $269 -1.9183723638561681 $264 $390 forward 7 unknown #
edge $-1 $270 1.9183723638561681 $385 13.281219779726062 $258 $391 forward 7 unknown #
coedge $-1 $268 $164 $380 $392 reversed $256 $-1 #
coedge $-1 $164 $267 $388 $393 reversed $256 $-1 #
vertex $-1 $265 $394 #
vertex $-1 $266 $395 #
straight-curve $-1 -1.8446789802226107 -0.67393076856588152 42.632623257441075 0 -0.51503806187062418 0.85716730853699208 I I #
coedge $-1 $272 $272 $-1 $396 reversed $168 $-1 #
edge $-1 $397 0 $397 6.2831853071796004 $169 $398 forward 7 unknown #
vertex $-1 $172 $399 #
ellipse-curve $-1 1.4018488528830702 20.355751064945292 7.6333540555697184 0 0.85716730853699208 0.51503806187062418 1 0 0 1 I I #
coedge $-1 $276 $276 $-1 $400 reversed $175 $-1 #
edge $-1 $401 0 $401 6.2831853071796004 $176 $402 forward 7 unknown #
vertex $-1 $179 $403 #
ellipse-curve $-1 6.2716406025415949 20.355751064945292 7.6333540555697184 0 0.85716730853699208 0.51503806187062418 1 0 0 1 I I #
face $-1 $-1 $292 $27 $-1 $404 reversed single #
loop $-1 $-1 $405 $180 #
plane-surface $-1 0 22.407500858948371 0 0 -1 0 0 0 -1 forward_v I I I I #
coedge $-1 $291 $290 $183 $284 reversed $292 $-1 #
edge $-1 $406 -22.407500858948371 $407 22.407500858948371 $283 $408 forward 7 unknown #
coedge $-1 $185 $184 $188 $296 forward $73 $-1 #
coedge $-1 $405 $191 $184 $287 reversed $281 $-1 #
edge $-1 $294 -42.50373851741081 $301 42.50373851741081 $286 $409 forward 7 unknown #
coedge $-1 $189 $410 $185 $289 reversed $181 $-1 #
edge $-1 $298 -42.50373851741081 $293 42.50373851741081 $288 $411 forward 7 unknown #
coedge $-1 $283 $186 $410 $412 forward $292 $-1 #
coedge $-1 $186 $283 $405 $413 reversed $292 $-1 #
loop $-1 $-1 $290 $280 #
vertex $-1 $187 $414 #
vertex $-1 $187 $415 #
straight-curve $-1 42.50373851741081 0 11.048039258308606 0 1 0 I I #
edge $-1 $301 -22.407500858948371 $298 22.407500858948371 $188 $416 forward 7 unknown #
coedge $-1 $410 $189 $194 $304 reversed $181 $-1 #
vertex $-1 $296 $417 #
straight-curve $-1 -42.50373851741081 -22.407500858948371 0 0 0 -1 I I #
coedge $-1 $191 $405 $193 $303 reversed $281 $-1 #
vertex $-1 $287 $418 #
straight-curve $-1 -42.50373851741081 22.407500858948371 0 0 0 -1 I I #
edge $-1 $196 -42.50373851741081 $406 42.50373851741081 $300 $419 forward 7 unknown #
edge $-1 $407 -42.50373851741081 $195 42.50373851741081 $297 $420 forward 7 unknown #
point $-1 -42.50373851741081 -22.407500858948371 -11.048039258308606 #
point $-1 -42.50373851741081 22.407500858948371 -11.048039258308606 #
face $-1 $-1 $323 $28 $-1 $421 forward single #
plane-surface $-1 -47.60917883392657 -4.0775864204807384 0 0 -1 0 0 0 -1 forward_v I I I I #
coedge $-1 $422 $423 $326 $424 forward $199 $-1 #
coedge $-1 $319 $201 $202 $315 reversed $121 $-1 #
coedge $-1 $201 $319 $322 $425 reversed $121 $-1 #
coedge $-1 $423 $422 $201 $313 reversed $199 $-1 #
edge $-1 $426 -11.048039258308606 $427 11.048039258308606 $312 $428 forward 7 unknown #
coedge $-1 $203 $202 $422 $429 forward $77 $-1 #
edge $-1 $317 -5.1054403165157609 $427 5.1054403165157609 $310 $430 forward 7 unknown #
edge $-1 $431 -5.1054403165157609 $211 5.1054403165157609 $208 $432 forward 7 unknown #
vertex $-1 $315 $433 #
straight-curve $-1 -42.50373851741081 0 -11.048039258308606 0 -1 0 I I #
coedge $-1 $311 $310 $205 $320 reversed $121 $-1 #
edge $-1 $324 -11.048039258308606 $317 11.048039258308606 $319 $434 forward 7 unknown #
coedge $-1 $435 $206 $209 $327 forward $323 $-1 #
coedge $-1 $206 $435 $311 $425 forward $323 $-1 #
loop $-1 $-1 $206 $307 #
vertex $-1 $207 $436 #
straight-curve $-1 -42.50373851741081 0 11.048039258308606 0 1 0 I I #
coedge $-1 $209 $208 $309 $424 reversed $210 $-1 #
edge $-1 $212 -5.1054403165157609 $437 5.1054403165157609 $209 $438 forward 7 unknown #
point $-1 -42.50373851741081 -4.0775864204807384 -11.048039258308606 #
point $-1 -42.50373851741081 -4.0775864204807384 11.048039258308606 #
face $-1 $-1 $228 $29 $-1 $439 reversed single #
loop $-1 $-1 $223 $214 #
plane-surface $-1 0 -22.407500858948371 0 0 1 0 0 0 1 forward_v I I I I #
coedge $-1 $440 $441 $219 $337 forward $215 $-1 #
coedge $-1 $217 $338 $226 $348 forward $129 $-1 #
coedge $-1 $219 $218 $343 $442 reversed $81 $-1 #
edge $-1 $344 -22.407500858948371 $339 22.407500858948371 $218 $443 forward 7 unknown #
edge $-1 $340 -22.407500858948371 $444 22.407500858948371 $333 $445 forward 7 unknown #
coedge $-1 $334 $220 $441 $446 reversed $129 $-1 #
vertex $-1 $225 $447 #
vertex $-1 $337 $448 #
straight-curve $-1 28.603499923934073 22.407500858948371 4.2319685155399505 0 0 1 I I #
coedge $-1 $449 $223 $227 $349 reversed $331 $-1 #
coedge $-1 $223 $449 $335 $442 forward $331 $-1 #
vertex $-1 $224 $450 #
straight-curve $-1 17.776809610336223 -22.407500858948371 5.8798348038511961 1 0 0 I I #
straight-curve $-1 17.776809610336223 22.407500858948371 5.8798348038511961 -1 0 0 I I #
coedge $-1 $227 $226 $451 $452 reversed $228 $-1 #
edge $-1 $453 -11.048039258308606 $230 -5.8798348038511961 $226 $454 forward 7 unknown #
edge $-1 $455 -11.048039258308606 $229 -5.8798348038511961 $227 $456 forward 7 unknown #
point $-1 42.503738517410817 -22.407500858948371 5.8798348038511961 #
point $-1 42.503738517410817 22.407500858948371 5.8798348038511961 #
loop $-1 $-1 $240 $232 #
plane-surface $-1 0 22.407500858948371 0 0 -1 0 0 0 -1 forward_v I I I I #
coedge $-1 $355 $235 $237 $359 reversed $137 $-1 #
coedge $-1 $235 $354 $457 $458 reversed $137 $-1 #
coedge $-1 $243 $238 $235 $357 forward $233 $-1 #
edge $-1 $360 -17.791848492503938 $459 -13.688348904497797 $356 $460 forward 7 unknown #
coedge $-1 $237 $236 $363 $461 reversed $85 $-1 #
edge $-1 $462 -44.815001717896784 $360 -36.847630193737615 $354 $463 forward 7 unknown #
vertex $-1 $239 $464 #
straight-curve $-1 -3.7630513440787787 18.304001270942226 11.048039258308606 1 0 0 I I #
coedge $-1 $457 $240 $243 $367 reversed $352 $-1 #
coedge $-1 $240 $457 $358 $461 forward $352 $-1 #
vertex $-1 $241 $465 #
straight-curve $-1 -13.207526396092504 22.407500858948371 43.207354736983596 0 0 1 I I #
straight-curve $-1 -13.207526396092504 -0.67393076856588152 42.632623257441075 0 0.51503806187062418 -0.85716730853699208 I I #
edge $-1 $459 1.8446789802226107 $244 13.207526396092504 $362 $466 forward 7 unknown #
point $-1 -13.207526396092504 22.407500858948371 11.048039258308606 #
point $-1 -13.207526396092504 18.30400127094223 11.048039258308609 #
edge $-1 $467 1 $467 0 $247 $-1 forward 7 unknown #
vertex $-1 $248 $468 #
ellipse-curve $-1 -9.9609985629868234 18.766301751101878 6.6783165898493655 0 0.85716730853699208 0.51503806187062418 1 0 0 1 I I #
point $-1 -8.9609985629868234 20.355751064945306 7.6333540555697281 #
edge $-1 $469 1 $469 0 $251 $-1 forward 7 unknown #
vertex $-1 $252 $470 #
ellipse-curve $-1 -5.0912068133282986 18.766301751101878 6.6783165898493655 0 0.85716730853699208 0.51503806187062418 1 0 0 1 I I #
point $-1 -4.0912068133282986 20.355751064945306 7.6333540555697281 #
loop $-1 $-1 $264 $255 #
plane-surface $-1 0 22.407500858948371 0 0 -1 0 0 0 -1 forward_v I I I I #
coedge $-1 $258 $384 $267 $392 forward $159 $-1 #
edge $-1 $389 -44.815001717896784 $385 -36.847630193737615 $259 $471 forward 7 unknown #
coedge $-1 $264 $472 $260 $383 forward $378 $-1 #
edge $-1 $386 32.159315478674991 $389 38.98868588415278 $382 $473 forward 7 unknown #
coedge $-1 $380 $261 $472 $474 forward $159 $-1 #
vertex $-1 $262 $475 #
vertex $-1 $474 $476 #
straight-curve $-1 9.5181684356472829 36.095849763446168 11.048039258308606 0 1 0 I I #
coedge $-1 $472 $264 $268 $393 forward $378 $-1 #
vertex $-1 $383 $477 #
straight-curve $-1 -3.7630513440787787 22.407500858948371 4.2186688528308132 -1 0 0 I I #
straight-curve $-1 -3.7630513440787787 18.304001270942226 11.048039258308606 1 0 0 I I #
edge $-1 $478 13.688348904497797 $270 17.791848492503938 $380 $479 forward 7 unknown #
edge $-1 $269 -38.98868588415278 $478 -32.159315478674991 $388 $480 forward 7 unknown #
point $-1 -1.8446789802226107 22.407500858948371 4.2186688528308167 #
point $-1 -1.8446789802226107 18.30400127094223 11.048039258308609 #
edge $-1 $481 1 $481 0 $272 $-1 forward 7 unknown #
vertex $-1 $273 $482 #
ellipse-curve $-1 1.4018488528830702 18.766301751101878 6.6783165898493655 0 0.85716730853699208 0.51503806187062418 1 0 0 1 I I #
point $-1 2.4018488528830702 20.355751064945306 7.6333540555697281 #
edge $-1 $483 1 $483 0 $276 $-1 forward 7 unknown #
vertex $-1 $277 $484 #
ellipse-curve $-1 6.2716406025415949 18.766301751101878 6.6783165898493655 0 0.85716730853699208 0.51503806187062418 1 0 0 1 I I #
point $-1 7.2716406025415949 20.355751064945306 7.6333540555697281 #
plane-surface $-1 42.50373851741081 0 0 -1 0 0 0 0 1 forward_v I I I I #
coedge $-1 $300 $286 $291 $413 forward $281 $-1 #
vertex $-1 $284 $485 #
vertex $-1 $412 $486 #
straight-curve $-1 42.50373851741081 0 -11.048039258308606 0 -1 0 I I #
straight-curve $-1 0 22.407500858948371 11.048039258308606 -1 0 0 I I #
coedge $-1 $288 $297 $290 $412 reversed $181 $-1 #
straight-curve $-1 0 -22.407500858948371 11.048039258308606 1 0 0 I I #
edge $-1 $293 -11.048039258308606 $407 11.048039258308606 $290 $487 forward 7 unknown #
edge $-1 $294 -11.048039258308606 $406 11.048039258308606 $291 $488 forward 7 unknown #
point $-1 42.50373851741081 -22.407500858948371 11.048039258308606 #
point $-1 42.50373851741081 22.407500858948371 11.048039258308606 #
straight-curve $-1 -42.50373851741081 0 11.048039258308606 0 -1 0 I I #
point $-1 -42.50373851741081 -22.407500858948371 11.048039258308606 #
point $-1 -42.50373851741081 22.407500858948371 11.048039258308606 #
straight-curve $-1 0 22.407500858948371 -11.048039258308606 1 0 0 I I #
straight-curve $-1 0 -22.407500858948371 -11.048039258308606 -1 0 0 I I #
plane-surface $-1 0 0 11.048039258308606 0 0 1 1 0 0 forward_v I I I I #
coedge $-1 $312 $309 $314 $429 reversed $199 $-1 #
coedge $-1 $309 $312 $435 $489 reversed $199 $-1 #
edge $-1 $437 -11.048039258308606 $431 11.048039258308606 $326 $490 forward 7 unknown #
edge $-1 $426 -5.1054403165157609 $324 5.1054403165157609 $311 $491 forward 7 unknown #
vertex $-1 $489 $492 #
vertex $-1 $429 $493 #
straight-curve $-1 -52.714619150442331 -10.398911217460057 0 0 0 -1 I I #
edge $-1 $427 -3.1606623984896594 $431 3.1606623984896594 $422 $494 forward 7 unknown #
straight-curve $-1 -47.60917883392657 -10.398911217460057 -11.048039258308606 -1 0 0 I I #
vertex $-1 $316 $495 #
straight-curve $-1 -47.60917883392657 -4.0775864204807384 -11.048039258308606 1 0 0 I I #
point $-1 -42.50373851741081 -10.398911217460057 -11.048039258308606 #
straight-curve $-1 -42.50373851741081 -10.398911217460057 0 0 0 -1 I I #
coedge $-1 $322 $321 $423 $489 forward $323 $-1 #
point $-1 -42.50373851741081 -10.398911217460057 11.048039258308606 #
vertex $-1 $327 $496 #
straight-curve $-1 -47.60917883392657 -4.0775864204807384 11.048039258308606 -1 0 0 I I #
plane-surface $-1 42.50373851741081 0 0 -1 0 0 0 0 1 forward_v I I I I #
coedge $-1 $451 $333 $449 $497 forward $215 $-1 #
coedge $-1 $333 $451 $338 $446 forward $215 $-1 #
edge $-1 $444 -6.8160707427686553 $344 -1.6478662883112456 $343 $498 forward 7 unknown #
straight-curve $-1 28.603499923934073 0 5.8798348038511961 0 1 0 I I #
vertex $-1 $497 $499 #
straight-curve $-1 28.603499923934073 0 11.048039258308606 0 -1 0 I I #
edge $-1 $453 -42.50373851741081 $340 -28.603499923934073 $338 $500 forward 7 unknown #
point $-1 28.603499923934073 22.407500858948371 5.8798348038511961 #
point $-1 28.603499923934073 22.407500858948371 11.048039258308606 #
coedge $-1 $343 $342 $440 $497 reversed $331 $-1 #
point $-1 28.603499923934073 -22.407500858948371 5.8798348038511961 #
coedge $-1 $441 $440 $347 $452 forward $215 $-1 #
edge $-1 $455 -22.407500858948371 $453 22.407500858948371 $347 $501 forward 7 unknown #
vertex $-1 $452 $502 #
straight-curve $-1 42.50373851741081 22.407500858948371 0 0 0 -1 I I #
vertex $-1 $452 $503 #
straight-curve $-1 42.50373851741081 -22.407500858948371 0 0 0 -1 I I #
coedge $-1 $363 $362 $355 $458 forward $352 $-1 #
edge $-1 $459 32.159315478674991 $462 38.98868588415278 $457 $504 forward 7 unknown #
vertex $-1 $367 $505 #
straight-curve $-1 -1.8446789802226107 36.095849763446168 11.048039258308606 0 1 0 I I #
edge $-1 $462 -1.9183723638561681 $364 9.4444750520137255 $363 $506 forward 7 unknown #
vertex $-1 $461 $507 #
straight-curve $-1 -1.8446789802226107 -0.67393076856588152 42.632623257441075 0 -0.51503806187062418 0.85716730853699208 I I #
point $-1 -1.8446789802226107 18.30400127094223 11.048039258308609 #
point $-1 -13.207526396092504 22.407500858948371 4.2186688528308167 #
straight-curve $-1 0 22.407500858948371 11.048039258308606 -1 0 0 I I #
vertex $-1 $370 $508 #
point $-1 -8.9609985629868234 18.766301751101878 6.6783165898493655 #
vertex $-1 $374 $509 #
point $-1 -4.0912068133282986 18.766301751101878 6.6783165898493655 #
straight-curve $-1 9.5181684356472829 -0.67393076856588152 42.632623257441075 0 -0.51503806187062418 0.85716730853699208 I I #
coedge $-1 $382 $388 $384 $474 reversed $378 $-1 #
straight-curve $-1 9.5181684356472829 22.407500858948371 43.207354736983596 0 0 -1 I I #
edge $-1 $386 -9.5181684356472829 $478 1.8446789802226107 $472 $510 forward 7 unknown #
point $-1 9.5181684356472829 18.30400127094223 11.048039258308609 #
point $-1 9.5181684356472829 22.407500858948371 11.048039258308606 #
point $-1 9.5181684356472829 22.407500858948371 4.2186688528308167 #
vertex $-1 $393 $511 #
straight-curve $-1 -1.8446789802226107 36.095849763446168 11.048039258308606 0 -1 0 I I #
straight-curve $-1 -1.8446789802226107 22.407500858948371 43.207354736983596 0 0 1 I I #
vertex $-1 $396 $512 #
point $-1 2.4018488528830702 18.766301751101878 6.6783165898493655 #
vertex $-1 $400 $513 #
point $-1 7.2716406025415949 18.766301751101878 6.6783165898493655 #
point $-1 42.50373851741081 22.407500858948371 -11.048039258308606 #
point $-1 42.50373851741081 -22.407500858948371 -11.048039258308606 #
straight-curve $-1 42.50373851741081 -22.407500858948371 0 0 0 -1 I I #
straight-curve $-1 42.50373851741081 22.407500858948371 0 0 0 -1 I I #
edge $-1 $437 -3.1606623984896594 $426 3.1606623984896594 $423 $514 forward 7 unknown #
straight-curve $-1 -52.714619150442331 -4.0775864204807384 0 0 0 -1 I I #
straight-curve $-1 -47.60917883392657 -10.398911217460057 11.048039258308606 1 0 0 I I #
point $-1 -52.714619150442331 -10.398911217460057 11.048039258308606 #
point $-1 -52.714619150442331 -10.398911217460057 -11.048039258308606 #
straight-curve $-1 -52.714619150442331 -7.2382488189703977 -11.048039258308606 0 1 0 I I #
point $-1 -52.714619150442331 -4.0775864204807384 -11.048039258308606 #
point $-1 -52.714619150442331 -4.0775864204807384 11.048039258308606 #
edge $-1 $444 28.603499923934073 $455 42.50373851741081 $449 $515 forward 7 unknown #
straight-curve $-1 28.603499923934073 -22.407500858948371 4.2319685155399505 0 0 -1 I I #
point $-1 28.603499923934073 -22.407500858948371 11.048039258308606 #
straight-curve $-1 0 22.407500858948371 11.048039258308606 -1 0 0 I I #
straight-curve $-1 42.50373851741081 0 11.048039258308606 0 1 0 I I #
point $-1 42.50373851741081 22.407500858948371 11.048039258308606 #
point $-1 42.50373851741081 -22.407500858948371 11.048039258308606 #
straight-curve $-1 -1.8446789802226107 22.407500858948371 43.207354736983596 0 0 -1 I I #
point $-1 -1.8446789802226107 22.407500858948371 11.048039258308606 #
straight-curve $-1 -3.7630513440787787 22.407500858948371 4.2186688528308132 -1 0 0 I I #
point $-1 -1.8446789802226107 22.407500858948371 4.2186688528308167 #
point $-1 -9.9609985629868234 17.909134442564884 6.1632785279787408 #
point $-1 -5.0912068133282986 17.909134442564884 6.1632785279787408 #
straight-curve $-1 0 22.407500858948371 11.048039258308606 -1 0 0 I I #
point $-1 -1.8446789802226107 22.407500858948371 11.048039258308606 #
point $-1 1.4018488528830702 17.909134442564884 6.1632785279787408 #
point $-1 6.2716406025415949 17.909134442564884 6.1632785279787408 #
straight-curve $-1 -52.714619150442331 -7.2382488189703977 11.048039258308606 0 -1 0 I I #
straight-curve $-1 0 -22.407500858948371 11.048039258308606 1 0 0 I I #
End-of-ACIS-data 