500 0 9 0           
7 Unknown 11 ACIS 5.0 NT 24 Thu Mar 25 17:25:30 1999 
-1 9.9999999999999995e-007 1e-010 
body $-1 $9 $-1 $10 #
body $-1 $11 $-1 $12 #
body $-1 $13 $-1 $14 #
body $-1 $15 $-1 $16 #
body $-1 $17 $-1 $18 #
body $-1 $19 $-1 $20 #
body $-1 $21 $-1 $22 #
body $-1 $23 $-1 $24 #
body $-1 $25 $-1 $26 #
lump $-1 $-1 $27 $0 #
transform $-1 1 0 0 0 1 0 0 0 1 74.085512863551742 36.623344748186014 17.915004230804602 1 rotate no_reflect no_shear #
lump $-1 $-1 $28 $1 #
transform $-1 1 0 0 0 1 0 0 0 1 74.085512863551742 36.623344748186014 17.915004230804602 1 rotate no_reflect no_shear #
lump $-1 $-1 $29 $2 #
transform $-1 1 0 0 0 1 0 0 0 1 74.085512863551742 36.623344748186014 17.915004230804602 1 rotate no_reflect no_shear #
lump $-1 $-1 $30 $3 #
transform $-1 1 0 0 0 1 0 0 0 1 74.085512863551742 36.623344748186014 17.915004230804602 1 rotate no_reflect no_shear #
lump $-1 $-1 $31 $4 #
transform $-1 1 0 0 0 1 0 0 0 1 74.085512863551742 36.623344748186014 17.915004230804602 1 rotate no_reflect no_shear #
lump $-1 $-1 $32 $5 #
transform $-1 1 0 0 0 1 0 0 0 1 74.085512863551742 36.623344748186014 17.915004230804602 1 rotate no_reflect no_shear #
lump $-1 $-1 $33 $6 #
transform $-1 1 0 0 0 1 0 0 0 1 74.085512863551742 36.623344748186014 17.915004230804602 1 rotate no_reflect no_shear #
lump $-1 $-1 $34 $7 #
transform $-1 1 0 0 0 1 0 0 0 1 74.085512863551742 36.623344748186014 17.915004230804602 1 rotate no_reflect no_shear #
lump $-1 $-1 $35 $8 #
transform $-1 1 0 0 0 1 0 0 0 1 74.085512863551742 36.623344748186014 17.915004230804602 1 rotate no_reflect no_shear #
shell $-1 $-1 $-1 $36 $-1 $9 #
shell $-1 $-1 $-1 $37 $-1 $11 #
shell $-1 $-1 $-1 $38 $-1 $13 #
shell $-1 $-1 $-1 $39 $-1 $15 #
shell $-1 $-1 $-1 $40 $-1 $17 #
shell $-1 $-1 $-1 $41 $-1 $19 #
shell $-1 $-1 $-1 $42 $-1 $21 #
shell $-1 $-1 $-1 $43 $-1 $23 #
shell $-1 $-1 $-1 $44 $-1 $25 #
face $-1 $45 $46 $27 $-1 $47 forward single #
face $-1 $48 $49 $28 $-1 $50 forward single #
face $-1 $51 $52 $29 $-1 $53 forward single #
face $-1 $54 $55 $30 $-1 $56 reversed single #
face $-1 $57 $58 $31 $-1 $59 forward single #
face $-1 $60 $61 $32 $-1 $62 forward single #
face $-1 $63 $64 $33 $-1 $65 forward single #
face $-1 $66 $67 $34 $-1 $68 reversed single #
face $-1 $69 $70 $35 $-1 $71 forward single #
face $-1 $72 $73 $27 $-1 $74 reversed single #
loop $-1 $-1 $75 $36 #
plane-surface $-1 0 0 17.915004230804602 0 0 1 1 0 0 forward_v I I I I #
face $-1 $76 $77 $28 $-1 $78 reversed single #
loop $-1 $-1 $79 $37 #
plane-surface $-1 0 -27.748471332066572 -9.4717755487110935 0 0 1 1 0 0 forward_v I I I I #
face $-1 $80 $81 $29 $-1 $82 reversed single #
loop $-1 $-1 $83 $38 #
plane-surface $-1 0 29.40169593740319 -8.3467397256128244 0 0 1 1 0 0 forward_v I I I I #
face $-1 $84 $85 $30 $-1 $86 reversed single #
loop $-1 $-1 $87 $39 #
plane-surface $-1 77.742588130143361 8.9967723650064926 220.55449507749347 0 1 0 0.71933980857756763 0 0.69465836192734942 forward_v I I I I #
face $-1 $88 $89 $31 $-1 $90 forward single #
loop $-1 $91 $92 $40 #
cone-surface $-1 70.252533050815615 10.385019593149792 13.981727160105601 -0.71933980857756763 0 -0.69465836192734942 0.34732918096367471 0 -0.35966990428878381 1 I I 0 1 0.5 forward I I I I #
face $-1 $93 $94 $32 $-1 $95 forward single #
loop $-1 $96 $97 $41 #
cone-surface $-1 70.252533050815615 12.467390435364734 13.981727160105601 -0.71933980857756763 0 -0.69465836192734942 0.34732918096367471 0 -0.35966990428878381 1 I I 0 1 0.5 forward I I I I #
face $-1 $98 $99 $33 $-1 $100 forward single #
loop $-1 $101 $102 $42 #
cone-surface $-1 70.252533050815615 14.549761277579677 13.981727160105601 -0.71933980857756763 0 -0.69465836192734942 0.34732918096367471 0 -0.35966990428878381 1 I I 0 1 0.5 forward I I I I #
face $-1 $103 $104 $34 $-1 $105 reversed single #
loop $-1 $-1 $106 $43 #
plane-surface $-1 -154.78523839007585 16.333173815678425 138.98640803735228 0 -1 0 0.54463904215088732 0 -0.83867056331134215 forward_v I I I I #
face $-1 $107 $108 $35 $-1 $109 forward single #
loop $-1 $110 $111 $44 #
cone-surface $-1 -70.97417618925131 12.68483309085763 15.31462017362397 0.54463904215088732 0 -0.83867056331134215 0.83867056331134215 0 0.54463904215088732 1 I I 0 1 1 forward I I I I #
face $-1 $112 $113 $27 $-1 $114 reversed single #
loop $-1 $-1 $115 $45 #
plane-surface $-1 0 0 -17.915004230804602 0 0 1 1 0 0 forward_v I I I I #
coedge $-1 $116 $117 $118 $119 forward $46 $-1 #
face $-1 $120 $121 $28 $-1 $122 reversed single #
loop $-1 $-1 $123 $48 #
plane-surface $-1 0 -27.748471332066572 -16.368890889499085 0 0 1 1 0 0 forward_v I I I I #
coedge $-1 $124 $125 $126 $127 reversed $49 $-1 #
face $-1 $128 $129 $29 $-1 $130 reversed single #
loop $-1 $-1 $131 $51 #
plane-surface $-1 0 22.180047126620359 -13.130871978208713 0 1 0 0 0 1 forward_v I I I I #
coedge $-1 $132 $133 $134 $135 reversed $52 $-1 #
face $-1 $136 $137 $30 $-1 $138 reversed single #
loop $-1 $-1 $139 $54 #
plane-surface $-1 -28.842729153133106 12.467390435364734 117.62625306080862 0.71933980857756763 0 0.69465836192734942 0.69465836192734942 0 -0.71933980857756763 forward_v I I I I #
coedge $-1 $140 $141 $142 $143 reversed $55 $-1 #
face $-1 $-1 $144 $31 $-1 $145 forward single #
loop $-1 $146 $147 $57 #
cone-surface $-1 69.55882357844564 10.385019593149792 13.311819725560991 -0.71933980857756763 0 -0.69465836192734942 0.17366459048183736 0 -0.17983495214439191 1 I I -0.70710678118654746 0.70710678118654746 0.25 forward I I I I #
loop $-1 $-1 $148 $40 #
coedge $-1 $92 $92 $149 $150 reversed $58 $-1 #
face $-1 $-1 $151 $32 $-1 $152 forward single #
loop $-1 $153 $154 $60 #
cone-surface $-1 69.55882357844564 12.467390435364734 13.311819725560991 -0.71933980857756763 0 -0.69465836192734942 0.17366459048183736 0 -0.17983495214439191 1 I I -0.70710678118654746 0.70710678118654746 0.25 forward I I I I #
loop $-1 $-1 $155 $41 #
coedge $-1 $97 $97 $156 $157 reversed $61 $-1 #
face $-1 $-1 $158 $33 $-1 $159 forward single #
loop $-1 $160 $161 $63 #
cone-surface $-1 69.55882357844564 14.549761277579677 13.311819725560991 -0.71933980857756763 0 -0.69465836192734942 0.17366459048183736 0 -0.17983495214439191 1 I I -0.70710678118654746 0.70710678118654746 0.25 forward I I I I #
loop $-1 $-1 $162 $42 #
coedge $-1 $102 $102 $163 $164 reversed $64 $-1 #
face $-1 $165 $166 $34 $-1 $167 reversed single #
loop $-1 $-1 $168 $66 #
plane-surface $-1 -74.085512863551727 12.684833090857637 14.71973042438303 -0.54463904215088732 0 0.83867056331134215 0.83867056331134215 0 0.54463904215088732 forward_v I I I I #
coedge $-1 $169 $170 $171 $172 reversed $67 $-1 #
face $-1 $-1 $173 $35 $-1 $174 forward single #
loop $-1 $175 $176 $69 #
cone-surface $-1 -70.05066504020057 12.68483309085763 13.892537737998449 0.54463904215088732 0 -0.83867056331134215 0.41933528165567108 0 0.27231952107544366 1 I I -0.70710678118654746 0.70710678118654746 0.5 forward I I I I #
loop $-1 $-1 $177 $44 #
coedge $-1 $111 $111 $178 $179 reversed $70 $-1 #
face $-1 $180 $181 $27 $-1 $182 reversed single #
loop $-1 $-1 $183 $72 #
plane-surface $-1 0 -36.623344748186014 0 0 1 0 0 0 1 forward_v I I I I #
coedge $-1 $184 $185 $186 $187 forward $73 $-1 #
coedge $-1 $188 $75 $189 $190 forward $46 $-1 #
coedge $-1 $75 $188 $191 $192 forward $46 $-1 #
coedge $-1 $193 $194 $75 $119 reversed $195 $-1 #
edge $-1 $196 -36.623344748186014 $197 36.623344748186014 $118 $198 forward 7 unknown #
face $-1 $199 $200 $28 $-1 $201 reversed single #
loop $-1 $-1 $202 $76 #
plane-surface $-1 0 -18.87359791594713 -12.920333219105089 0 -1 0 0 0 -1 forward_v I I I I #
coedge $-1 $203 $204 $205 $206 reversed $77 $-1 #
coedge $-1 $207 $79 $208 $209 forward $49 $-1 #
coedge $-1 $79 $207 $210 $211 reversed $49 $-1 #
coedge $-1 $212 $213 $79 $127 forward $214 $-1 #
edge $-1 $215 4.9993622499138439 $216 22.749109082152728 $126 $217 forward 7 unknown #
face $-1 $218 $219 $29 $-1 $220 reversed single #
loop $-1 $-1 $134 $80 #
plane-surface $-1 74.085512863551742 0 0 -1 0 0 0 0 1 forward_v I I I I #
coedge $-1 $221 $222 $223 $224 reversed $81 $-1 #
coedge $-1 $225 $83 $226 $227 reversed $52 $-1 #
coedge $-1 $83 $225 $222 $228 forward $52 $-1 #
coedge $-1 $229 $230 $83 $135 forward $129 $-1 #
edge $-1 $231 -21.922496779484426 $232 -7.4791991579187638 $134 $233 forward 7 unknown #
face $-1 $234 $235 $30 $-1 $236 forward single #
loop $-1 $-1 $237 $84 #
plane-surface $-1 77.742588130143361 15.938008505722976 220.55449507749347 0 -1 0 -0.71933980857756763 0 -0.69465836192734942 forward_v I I I I #
coedge $-1 $238 $239 $240 $241 reversed $85 $-1 #
coedge $-1 $141 $87 $242 $243 reversed $55 $-1 #
coedge $-1 $87 $140 $238 $244 reversed $55 $-1 #
coedge $-1 $240 $245 $87 $143 forward $246 $-1 #
edge $-1 $247 92.362243307942137 $248 99.23631176121458 $142 $249 forward 7 unknown #
loop $-1 $-1 $149 $88 #
plane-surface $-1 -28.842729153133106 12.467390435364734 117.62625306080862 0.71933980857756763 0 0.69465836192734942 0.69465836192734942 0 -0.71933980857756763 forward_v I I I I #
loop $-1 $-1 $250 $57 #
coedge $-1 $147 $147 $148 $251 reversed $89 $-1 #
coedge $-1 $148 $148 $147 $251 forward $91 $-1 #
coedge $-1 $149 $149 $92 $150 forward $144 $-1 #
edge $-1 $252 0 $252 6.2831853071796004 $149 $253 forward 7 unknown #
loop $-1 $-1 $156 $93 #
plane-surface $-1 -28.842729153133106 12.467390435364734 117.62625306080862 0.71933980857756763 0 0.69465836192734942 0.69465836192734942 0 -0.71933980857756763 forward_v I I I I #
loop $-1 $-1 $254 $60 #
coedge $-1 $154 $154 $155 $255 reversed $94 $-1 #
coedge $-1 $155 $155 $154 $255 forward $96 $-1 #
coedge $-1 $156 $156 $97 $157 forward $151 $-1 #
edge $-1 $256 0 $256 6.2831853071796004 $156 $257 forward 7 unknown #
loop $-1 $-1 $163 $98 #
plane-surface $-1 -28.842729153133106 12.467390435364734 117.62625306080862 0.71933980857756763 0 0.69465836192734942 0.69465836192734942 0 -0.71933980857756763 forward_v I I I I #
loop $-1 $-1 $258 $63 #
coedge $-1 $161 $161 $162 $259 reversed $99 $-1 #
coedge $-1 $162 $162 $161 $259 forward $101 $-1 #
coedge $-1 $163 $163 $102 $164 forward $158 $-1 #
edge $-1 $260 0 $260 6.2831853071796004 $163 $261 forward 7 unknown #
face $-1 $262 $263 $34 $-1 $264 reversed single #
loop $-1 $-1 $265 $103 #
plane-surface $-1 -154.78523839007585 9.0364923660368497 138.98640803735228 0 1 0 -0.54463904215088732 0 0.83867056331134215 forward_v I I I I #
coedge $-1 $266 $267 $268 $269 reversed $104 $-1 #
coedge $-1 $170 $106 $270 $271 reversed $67 $-1 #
coedge $-1 $106 $169 $266 $272 reversed $67 $-1 #
coedge $-1 $268 $273 $106 $172 forward $263 $-1 #
edge $-1 $274 51.57819978787154 $275 54.773473594293115 $171 $276 forward 7 unknown #
loop $-1 $-1 $178 $107 #
plane-surface $-1 -74.085512863551727 12.684833090857637 14.71973042438303 -0.54463904215088732 0 0.83867056331134215 0.83867056331134215 0 0.54463904215088732 forward_v I I I I #
loop $-1 $-1 $277 $69 #
coedge $-1 $176 $176 $177 $278 reversed $108 $-1 #
coedge $-1 $177 $177 $176 $278 forward $110 $-1 #
coedge $-1 $178 $178 $111 $179 forward $173 $-1 #
edge $-1 $279 0 $279 6.2831853071796004 $178 $280 forward 7 unknown #
face $-1 $281 $282 $27 $-1 $283 reversed single #
loop $-1 $-1 $284 $112 #
plane-surface $-1 -74.085512863551742 0 0 1 0 0 0 0 -1 forward_v I I I I #
coedge $-1 $285 $191 $286 $287 forward $113 $-1 #
coedge $-1 $288 $115 $285 $289 forward $73 $-1 #
coedge $-1 $115 $288 $290 $291 forward $73 $-1 #
coedge $-1 $194 $193 $115 $187 reversed $195 $-1 #
edge $-1 $292 -36.623344748186014 $293 36.623344748186014 $186 $294 forward 7 unknown #
coedge $-1 $117 $116 $295 $296 forward $46 $-1 #
coedge $-1 $297 $298 $116 $190 reversed $282 $-1 #
edge $-1 $197 -74.085512863551742 $299 74.085512863551742 $189 $300 forward 7 unknown #
coedge $-1 $183 $301 $117 $192 reversed $113 $-1 #
edge $-1 $302 -74.085512863551742 $196 74.085512863551742 $191 $303 forward 7 unknown #
coedge $-1 $186 $118 $301 $304 forward $195 $-1 #
coedge $-1 $118 $186 $297 $305 reversed $195 $-1 #
loop $-1 $-1 $193 $281 #
vertex $-1 $119 $306 #
vertex $-1 $119 $307 #
straight-curve $-1 74.085512863551742 0 17.915004230804602 0 1 0 I I #
face $-1 $308 $309 $28 $-1 $310 reversed single #
loop $-1 $-1 $311 $120 #
plane-surface $-1 -74.085512863551742 0 0 1 0 0 0 0 -1 forward_v I I I I #
coedge $-1 $312 $208 $213 $313 reversed $121 $-1 #
coedge $-1 $314 $123 $315 $316 reversed $77 $-1 #
coedge $-1 $123 $314 $312 $317 forward $77 $-1 #
coedge $-1 $213 $212 $123 $206 forward $214 $-1 #
edge $-1 $318 -22.749109082152728 $319 -4.9993622499138439 $205 $320 forward 7 unknown #
coedge $-1 $125 $124 $311 $321 reversed $49 $-1 #
coedge $-1 $202 $322 $124 $209 reversed $121 $-1 #
edge $-1 $215 -74.085512863551742 $323 74.085512863551742 $208 $324 forward 7 unknown #
coedge $-1 $325 $326 $125 $211 forward $309 $-1 #
edge $-1 $216 -74.085512863551742 $327 74.085512863551742 $210 $328 forward 7 unknown #
coedge $-1 $205 $126 $326 $329 forward $214 $-1 #
coedge $-1 $126 $205 $202 $313 forward $214 $-1 #
loop $-1 $-1 $126 $308 #
vertex $-1 $127 $330 #
vertex $-1 $329 $331 #
straight-curve $-1 74.085512863551742 -13.874235666033286 -9.4717755487110935 0 -1 0 I I #
face $-1 $332 $333 $29 $-1 $334 reversed single #
loop $-1 $-1 $335 $128 #
plane-surface $-1 0 0 -17.915004230804602 0 0 1 1 0 0 forward_v I I I I #
coedge $-1 $336 $131 $335 $337 reversed $81 $-1 #
coedge $-1 $131 $336 $133 $228 reversed $81 $-1 #
coedge $-1 $338 $339 $131 $224 forward $333 $-1 #
edge $-1 $340 -11.349568241700245 $341 -1.7813037365084678 $223 $342 forward 7 unknown #
coedge $-1 $133 $132 $338 $343 reversed $52 $-1 #
coedge $-1 $344 $345 $132 $227 forward $346 $-1 #
edge $-1 $347 -74.085512863551742 $231 74.085512863551742 $226 $348 forward 7 unknown #
edge $-1 $341 -74.085512863551742 $232 74.085512863551742 $222 $349 forward 7 unknown #
coedge $-1 $350 $134 $336 $351 forward $129 $-1 #
coedge $-1 $134 $350 $344 $352 reversed $129 $-1 #
vertex $-1 $352 $353 #
vertex $-1 $135 $354 #
straight-curve $-1 74.085512863551742 14.700847968701595 -8.3467397256128244 0 -1 0 I I #
face $-1 $-1 $246 $30 $-1 $355 reversed single #
loop $-1 $-1 $356 $136 #
plane-surface $-1 0 0 17.915004230804602 0 0 1 1 0 0 forward_v I I I I #
coedge $-1 $357 $358 $359 $360 reversed $137 $-1 #
coedge $-1 $361 $139 $141 $244 forward $85 $-1 #
coedge $-1 $139 $361 $357 $362 forward $85 $-1 #
coedge $-1 $359 $142 $139 $241 forward $246 $-1 #
edge $-1 $248 2.7630771473241253 $363 9.7043132880406091 $240 $364 forward 7 unknown #
coedge $-1 $365 $366 $140 $243 forward $235 $-1 #
edge $-1 $367 28.576008213458906 $247 35.214218798480061 $242 $368 forward 7 unknown #
edge $-1 $248 -148.17102572710348 $367 -138.6149461506578 $141 $369 forward 7 unknown #
coedge $-1 $142 $359 $365 $370 reversed $246 $-1 #
loop $-1 $-1 $359 $234 #
vertex $-1 $370 $371 #
vertex $-1 $143 $372 #
straight-curve $-1 74.085512863551742 8.9967723650064926 110.27724753874674 0 0 -1 I I #
coedge $-1 $250 $250 $-1 $373 reversed $146 $-1 #
edge $-1 $374 0 $374 6.2831853071796004 $147 $375 forward 7 unknown #
vertex $-1 $150 $376 #
ellipse-curve $-1 70.766407571041185 10.385019593149792 14.477970004168366 0.71933980857756763 0 0.69465836192734942 0.34732918096367471 0 -0.35966990428878381 1 I I #
coedge $-1 $254 $254 $-1 $377 reversed $153 $-1 #
edge $-1 $378 0 $378 6.2831853071796004 $154 $379 forward 7 unknown #
vertex $-1 $157 $380 #
ellipse-curve $-1 70.766407571041185 12.467390435364734 14.477970004168366 0.71933980857756763 0 0.69465836192734942 0.34732918096367471 0 -0.35966990428878381 1 I I #
coedge $-1 $258 $258 $-1 $381 reversed $160 $-1 #
edge $-1 $382 0 $382 6.2831853071796004 $161 $383 forward 7 unknown #
vertex $-1 $164 $384 #
ellipse-curve $-1 70.766407571041185 14.549761277579677 14.477970004168366 0.71933980857756763 0 0.69465836192734942 0.34732918096367471 0 -0.35966990428878381 1 I I #
face $-1 $-1 $385 $34 $-1 $386 forward single #
loop $-1 $-1 $171 $165 #
plane-surface $-1 -74.085512863551742 0 0 1 0 0 0 0 -1 forward_v I I I I #
coedge $-1 $387 $388 $389 $390 reversed $166 $-1 #
coedge $-1 $391 $168 $170 $272 forward $104 $-1 #
coedge $-1 $168 $391 $387 $392 forward $104 $-1 #
coedge $-1 $389 $171 $168 $269 forward $263 $-1 #
edge $-1 $275 -9.9907572702496061 $393 -2.6940758206080311 $268 $394 forward 7 unknown #
coedge $-1 $395 $396 $169 $271 forward $385 $-1 #
edge $-1 $397 -8.2273964241364865 $274 -3.3071063314861817 $270 $398 forward 7 unknown #
edge $-1 $275 -1.6755591966779756e-014 $397 5.8667733289974997 $170 $399 forward 7 unknown #
coedge $-1 $171 $389 $395 $400 reversed $263 $-1 #
vertex $-1 $400 $401 #
vertex $-1 $172 $402 #
straight-curve $-1 -74.085512863551742 16.333173815678425 69.493204018676138 0 0 -1 I I #
coedge $-1 $277 $277 $-1 $403 reversed $175 $-1 #
edge $-1 $404 0 $404 6.2831853071796004 $176 $405 forward 7 unknown #
vertex $-1 $179 $406 #
ellipse-curve $-1 -71.625367817226589 12.68483309085763 16.317367327593807 -0.54463904215088732 0 0.83867056331134215 0.83867056331134215 0 0.54463904215088732 1 I I #
face $-1 $-1 $195 $27 $-1 $407 reversed single #
loop $-1 $-1 $297 $180 #
plane-surface $-1 0 36.623344748186014 0 0 -1 0 0 0 -1 forward_v I I I I #
coedge $-1 $408 $295 $298 $409 forward $181 $-1 #
coedge $-1 $301 $183 $184 $289 reversed $113 $-1 #
coedge $-1 $295 $408 $183 $287 reversed $181 $-1 #
edge $-1 $302 -17.915004230804602 $410 17.915004230804602 $286 $411 forward 7 unknown #
coedge $-1 $185 $184 $408 $412 forward $73 $-1 #
edge $-1 $293 -74.085512863551742 $410 74.085512863551742 $285 $413 forward 7 unknown #
coedge $-1 $298 $297 $185 $291 reversed $282 $-1 #
edge $-1 $414 -74.085512863551742 $292 74.085512863551742 $290 $415 forward 7 unknown #
vertex $-1 $187 $416 #
vertex $-1 $304 $417 #
straight-curve $-1 74.085512863551742 0 -17.915004230804602 0 -1 0 I I #
coedge $-1 $284 $286 $188 $296 reversed $181 $-1 #
edge $-1 $299 -36.623344748186014 $302 36.623344748186014 $295 $418 forward 7 unknown #
coedge $-1 $290 $189 $194 $305 forward $282 $-1 #
coedge $-1 $189 $290 $284 $409 reversed $282 $-1 #
vertex $-1 $190 $419 #
straight-curve $-1 0 36.623344748186014 17.915004230804602 -1 0 0 I I #
coedge $-1 $191 $285 $193 $304 reversed $113 $-1 #
vertex $-1 $296 $420 #
straight-curve $-1 0 -36.623344748186014 17.915004230804602 1 0 0 I I #
edge $-1 $196 -17.915004230804602 $293 17.915004230804602 $193 $421 forward 7 unknown #
edge $-1 $197 -17.915004230804602 $292 17.915004230804602 $194 $422 forward 7 unknown #
point $-1 74.085512863551742 -36.623344748186014 17.915004230804602 #
point $-1 74.085512863551742 36.623344748186014 17.915004230804602 #
face $-1 $-1 $214 $28 $-1 $423 reversed single #
loop $-1 $-1 $210 $199 #
plane-surface $-1 0 -36.623344748186014 0 0 1 0 0 0 1 forward_v I I I I #
coedge $-1 $424 $425 $207 $321 forward $200 $-1 #
coedge $-1 $322 $202 $204 $317 reversed $121 $-1 #
edge $-1 $319 -9.90872427994654 $215 -3.011608939158549 $213 $426 forward 7 unknown #
coedge $-1 $204 $203 $427 $428 reversed $77 $-1 #
coedge $-1 $326 $325 $203 $316 forward $309 $-1 #
edge $-1 $429 -74.085512863551742 $318 74.085512863551742 $315 $430 forward 7 unknown #
edge $-1 $431 -74.085512863551742 $319 74.085512863551742 $312 $432 forward 7 unknown #
vertex $-1 $316 $433 #
vertex $-1 $206 $434 #
straight-curve $-1 74.085512863551742 -13.874235666033286 -16.368890889499085 0 1 0 I I #
edge $-1 $327 -22.749109082152728 $323 -4.9993622499138439 $311 $435 forward 7 unknown #
coedge $-1 $208 $312 $424 $436 reversed $121 $-1 #
vertex $-1 $321 $437 #
straight-curve $-1 0 -18.87359791594713 -9.4717755487110935 -1 0 0 I I #
coedge $-1 $315 $210 $425 $438 forward $309 $-1 #
coedge $-1 $210 $315 $212 $329 reversed $309 $-1 #
vertex $-1 $438 $439 #
straight-curve $-1 0 -36.623344748186014 -9.4717755487110935 -1 0 0 I I #
edge $-1 $216 9.4717755487110935 $318 16.368890889499085 $212 $440 forward 7 unknown #
point $-1 74.085512863551742 -18.87359791594713 -9.4717755487110935 #
point $-1 74.085512863551742 -36.623344748186014 -9.4717755487110935 #
face $-1 $-1 $346 $29 $-1 $441 reversed single #
loop $-1 $-1 $338 $218 #
plane-surface $-1 -74.085512863551742 0 0 1 0 0 0 0 -1 forward_v I I I I #
coedge $-1 $442 $443 $221 $337 forward $219 $-1 #
coedge $-1 $222 $221 $229 $351 reversed $81 $-1 #
edge $-1 $444 -74.085512863551742 $340 74.085512863551742 $335 $445 forward 7 unknown #
coedge $-1 $446 $223 $225 $343 forward $333 $-1 #
coedge $-1 $223 $446 $442 $447 reversed $333 $-1 #
vertex $-1 $447 $448 #
vertex $-1 $343 $449 #
straight-curve $-1 -74.085512863551742 22.180047126620359 -6.5654359891043566 0 0 1 I I #
edge $-1 $341 7.4791991579187638 $347 21.922496779484426 $338 $450 forward 7 unknown #
coedge $-1 $451 $226 $230 $352 forward $346 $-1 #
coedge $-1 $226 $451 $446 $452 reversed $346 $-1 #
loop $-1 $-1 $226 $332 #
vertex $-1 $452 $453 #
straight-curve $-1 0 36.623344748186014 -8.3467397256128244 1 0 0 I I #
straight-curve $-1 0 22.180047126620359 -8.3467397256128244 1 0 0 I I #
coedge $-1 $230 $229 $443 $454 reversed $129 $-1 #
edge $-1 $232 1.7813037365084678 $444 11.349568241700245 $229 $455 forward 7 unknown #
edge $-1 $231 8.3467397256128244 $456 17.915004230804602 $230 $457 forward 7 unknown #
point $-1 74.085512863551742 36.623344748186021 -8.3467397256128244 #
point $-1 74.085512863551742 22.180047126620359 -8.3467397256128244 #
plane-surface $-1 74.085512863551742 0 0 -1 0 0 0 0 1 forward_v I I I I #
coedge $-1 $366 $365 $358 $458 forward $235 $-1 #
coedge $-1 $358 $237 $239 $362 reversed $137 $-1 #
coedge $-1 $237 $357 $356 $458 reversed $137 $-1 #
coedge $-1 $245 $240 $237 $360 forward $246 $-1 #
edge $-1 $363 -99.23631176121458 $459 -92.362243307942137 $359 $460 forward 7 unknown #
coedge $-1 $239 $238 $366 $461 reversed $85 $-1 #
edge $-1 $462 138.6149461506578 $363 148.17102572710348 $357 $463 forward 7 unknown #
vertex $-1 $241 $464 #
straight-curve $-1 74.085512863551742 6.2336952176823672 11.040935777532162 0 1 0 I I #
coedge $-1 $356 $242 $245 $370 forward $235 $-1 #
coedge $-1 $242 $356 $361 $461 forward $235 $-1 #
vertex $-1 $243 $465 #
straight-curve $-1 38.87129406507168 8.9967723650064926 17.915004230804598 1 0 0 I I #
straight-curve $-1 -28.842729153133106 8.9967723650064926 117.62625306080862 -0.69465836192734942 0 0.71933980857756763 I I #
edge $-1 $247 8.9967723650064926 $459 15.938008505722976 $245 $466 forward 7 unknown #
point $-1 74.085512863551742 8.9967723650064926 17.915004230804602 #
point $-1 74.085512863551742 8.9967723650064926 11.040935777532155 #
edge $-1 $467 1 $467 0 $250 $-1 forward 7 unknown #
vertex $-1 $251 $468 #
ellipse-curve $-1 69.73865853059003 10.385019593149792 13.485484316042829 0.71933980857756763 0 0.69465836192734942 0.34732918096367471 0 -0.35966990428878381 1 I I #
point $-1 71.113736752004868 10.385019593149792 14.11830009987959 #
edge $-1 $469 1 $469 0 $254 $-1 forward 7 unknown #
vertex $-1 $255 $470 #
ellipse-curve $-1 69.73865853059003 12.467390435364734 13.485484316042829 0.71933980857756763 0 0.69465836192734942 0.34732918096367471 0 -0.35966990428878381 1 I I #
point $-1 71.113736752004868 12.467390435364734 14.11830009987959 #
edge $-1 $471 1 $471 0 $258 $-1 forward 7 unknown #
vertex $-1 $259 $472 #
ellipse-curve $-1 69.73865853059003 14.549761277579677 13.485484316042829 0.71933980857756763 0 0.69465836192734942 0.34732918096367471 0 -0.35966990428878381 1 I I #
point $-1 71.113736752004868 14.549761277579677 14.11830009987959 #
loop $-1 $-1 $270 $262 #
plane-surface $-1 0 0 17.915004230804602 0 0 1 1 0 0 forward_v I I I I #
coedge $-1 $388 $265 $267 $392 reversed $166 $-1 #
coedge $-1 $265 $387 $473 $474 reversed $166 $-1 #
coedge $-1 $273 $268 $265 $390 forward $263 $-1 #
edge $-1 $393 -54.773473594293115 $475 -51.57819978787154 $389 $476 forward 7 unknown #
coedge $-1 $267 $266 $396 $477 reversed $104 $-1 #
edge $-1 $478 -5.8667733289974997 $393 1.6755591966779756e-014 $387 $479 forward 7 unknown #
vertex $-1 $269 $480 #
straight-curve $-1 -74.085512863551742 6.3424165454288186 14.719730424383027 0 -1 0 I I #
coedge $-1 $473 $270 $273 $400 forward $385 $-1 #
coedge $-1 $270 $473 $391 $477 forward $385 $-1 #
vertex $-1 $271 $481 #
straight-curve $-1 -77.392619195037923 16.333173815678425 17.915004230804598 -1 0 0 I I #
straight-curve $-1 -74.085512863551727 16.333173815678425 14.71973042438303 0.83867056331134215 0 0.54463904215088732 I I #
edge $-1 $274 -16.333173815678425 $475 -9.0364923660368497 $273 $482 forward 7 unknown #
point $-1 -74.085512863551742 16.333173815678425 17.915004230804602 #
point $-1 -74.085512863551742 16.333173815678425 14.719730424383021 #
edge $-1 $483 1 $483 0 $277 $-1 forward 7 unknown #
vertex $-1 $278 $484 #
ellipse-curve $-1 -70.322984561276016 12.68483309085763 14.31187301965412 -0.54463904215088732 0 0.83867056331134215 0.83867056331134215 0 0.54463904215088732 1 I I #
point $-1 -70.78669725391525 12.68483309085763 16.862006369744709 #
plane-surface $-1 74.085512863551742 0 0 -1 0 0 0 0 1 forward_v I I I I #
coedge $-1 $286 $284 $288 $412 reversed $181 $-1 #
edge $-1 $299 -17.915004230804602 $414 17.915004230804602 $298 $485 forward 7 unknown #
vertex $-1 $412 $486 #
straight-curve $-1 -74.085512863551742 -36.623344748186014 0 0 0 -1 I I #
edge $-1 $410 -36.623344748186014 $414 36.623344748186014 $408 $487 forward 7 unknown #
straight-curve $-1 0 -36.623344748186014 -17.915004230804602 -1 0 0 I I #
vertex $-1 $291 $488 #
straight-curve $-1 0 36.623344748186014 -17.915004230804602 1 0 0 I I #
point $-1 74.085512863551742 36.623344748186014 -17.915004230804602 #
point $-1 74.085512863551742 -36.623344748186014 -17.915004230804602 #
straight-curve $-1 -74.085512863551742 0 17.915004230804602 0 -1 0 I I #
point $-1 -74.085512863551742 36.623344748186014 17.915004230804602 #
point $-1 -74.085512863551742 -36.623344748186014 17.915004230804602 #
straight-curve $-1 74.085512863551742 -36.623344748186014 0 0 0 -1 I I #
straight-curve $-1 74.085512863551742 36.623344748186014 0 0 0 -1 I I #
plane-surface $-1 74.085512863551742 0 0 -1 0 0 0 0 1 forward_v I I I I #
coedge $-1 $427 $311 $322 $436 forward $200 $-1 #
coedge $-1 $311 $427 $325 $438 reversed $200 $-1 #
straight-curve $-1 74.085512863551742 -18.87359791594713 -6.4601666095525445 0 0 1 I I #
coedge $-1 $425 $424 $314 $428 forward $200 $-1 #
edge $-1 $431 4.9993622499138439 $429 22.749109082152728 $427 $489 forward 7 unknown #
vertex $-1 $316 $490 #
straight-curve $-1 0 -36.623344748186014 -16.368890889499085 1 0 0 I I #
vertex $-1 $428 $491 #
straight-curve $-1 0 -18.87359791594713 -16.368890889499085 1 0 0 I I #
point $-1 74.085512863551742 -36.623344748186014 -16.368890889499085 #
point $-1 74.085512863551742 -18.87359791594713 -16.368890889499085 #
straight-curve $-1 -74.085512863551742 -13.874235666033286 -9.4717755487110935 0 1 0 I I #
edge $-1 $323 3.011608939158549 $431 9.90872427994654 $424 $492 forward 7 unknown #
point $-1 -74.085512863551742 -18.87359791594713 -9.4717755487110935 #
edge $-1 $327 9.4717755487110935 $429 16.368890889499085 $425 $493 forward 7 unknown #
point $-1 -74.085512863551742 -36.623344748186014 -9.4717755487110935 #
straight-curve $-1 74.085512863551742 -36.623344748186014 0 0 0 -1 I I #
plane-surface $-1 0 36.623344748186014 0 0 -1 0 0 0 -1 forward_v I I I I #
coedge $-1 $494 $335 $339 $447 forward $219 $-1 #
coedge $-1 $335 $494 $350 $454 forward $219 $-1 #
vertex $-1 $337 $495 #
straight-curve $-1 0 22.180047126620359 -17.915004230804602 -1 0 0 I I #
coedge $-1 $339 $338 $345 $452 forward $333 $-1 #
edge $-1 $340 22.180047126620359 $496 36.623344748186014 $339 $497 forward 7 unknown #
point $-1 -74.085512863551742 22.180047126620359 -17.915004230804602 #
point $-1 -74.085512863551742 22.180047126620359 -8.3467397256128244 #
straight-curve $-1 -74.085512863551742 14.700847968701595 -8.3467397256128244 0 1 0 I I #
coedge $-1 $345 $344 $494 $498 reversed $346 $-1 #
edge $-1 $347 8.3467397256128244 $496 17.915004230804602 $345 $499 forward 7 unknown #
point $-1 -74.085512863551742 36.623344748186021 -8.3467397256128244 #
edge $-1 $456 -36.623344748186014 $444 -22.180047126620359 $350 $500 forward 7 unknown #
straight-curve $-1 74.085512863551742 22.180047126620359 -6.5654359891043566 0 0 -1 I I #
vertex $-1 $454 $501 #
straight-curve $-1 74.085512863551742 36.623344748186014 0 0 0 -1 I I #
edge $-1 $459 -35.214218798480061 $462 -28.576008213458906 $356 $502 forward 7 unknown #
vertex $-1 $458 $503 #
straight-curve $-1 74.085512863551742 15.938008505722976 110.27724753874674 0 0 1 I I #
edge $-1 $462 -9.7043132880406091 $367 -2.7630771473241253 $366 $504 forward 7 unknown #
vertex $-1 $461 $505 #
straight-curve $-1 -28.842729153133106 15.938008505722976 117.62625306080862 0.69465836192734942 0 -0.71933980857756763 I I #
point $-1 74.085512863551742 15.938008505722976 11.040935777532155 #
point $-1 67.447302278530586 8.9967723650064926 17.915004230804598 #
straight-curve $-1 74.085512863551742 0 17.915004230804602 0 1 0 I I #
vertex $-1 $373 $506 #
point $-1 70.085987711553713 10.385019593149792 13.125814411754044 #
vertex $-1 $377 $507 #
point $-1 70.085987711553713 12.467390435364734 13.125814411754044 #
vertex $-1 $381 $508 #
point $-1 70.085987711553713 14.549761277579677 13.125814411754044 #
coedge $-1 $396 $395 $388 $474 forward $385 $-1 #
edge $-1 $475 3.3071063314861817 $478 8.2273964241364865 $473 $509 forward 7 unknown #
vertex $-1 $474 $510 #
straight-curve $-1 -74.085512863551742 9.0364923660368497 69.493204018676138 0 0 1 I I #
edge $-1 $478 2.6940758206080311 $397 9.9907572702496061 $396 $511 forward 7 unknown #
vertex $-1 $477 $512 #
straight-curve $-1 -74.085512863551727 9.0364923660368497 14.71973042438303 -0.83867056331134215 0 -0.54463904215088732 I I #
point $-1 -74.085512863551742 9.0364923660368497 14.719730424383021 #
point $-1 -69.165222770901437 16.333173815678425 17.915004230804602 #
straight-curve $-1 -74.085512863551742 0 17.915004230804602 0 -1 0 I I #
vertex $-1 $403 $513 #
point $-1 -69.484313997964676 12.68483309085763 14.856512061805008 #
straight-curve $-1 -74.085512863551742 36.623344748186014 0 0 0 -1 I I #
point $-1 -74.085512863551742 -36.623344748186014 -17.915004230804602 #
straight-curve $-1 -74.085512863551742 0 -17.915004230804602 0 1 0 I I #
point $-1 -74.085512863551742 36.623344748186014 -17.915004230804602 #
straight-curve $-1 -74.085512863551742 -13.874235666033286 -16.368890889499085 0 -1 0 I I #
point $-1 -74.085512863551742 -36.623344748186014 -16.368890889499085 #
point $-1 -74.085512863551742 -18.87359791594713 -16.368890889499085 #
straight-curve $-1 -74.085512863551742 -18.87359791594713 -6.4601666095525445 0 0 -1 I I #
straight-curve $-1 -74.085512863551742 -36.623344748186014 0 0 0 -1 I I #
coedge $-1 $443 $442 $451 $498 forward $219 $-1 #
point $-1 74.085512863551742 22.180047126620359 -17.915004230804602 #
vertex $-1 $498 $514 #
straight-curve $-1 -74.085512863551742 0 -17.915004230804602 0 1 0 I I #
edge $-1 $496 -74.085512863551742 $456 74.085512863551742 $451 $515 forward 7 unknown #
straight-curve $-1 -74.085512863551742 36.623344748186014 0 0 0 -1 I I #
straight-curve $-1 74.085512863551742 0 -17.915004230804602 0 -1 0 I I #
point $-1 74.085512863551742 36.623344748186014 -17.915004230804602 #
straight-curve $-1 38.87129406507168 15.938008505722976 17.915004230804598 -1 0 0 I I #
point $-1 74.085512863551742 15.938008505722976 17.915004230804602 #
straight-curve $-1 67.447302278530586 6.2336952176823672 17.915004230804612 0 -1 0 I I #
point $-1 67.447302278530586 15.938008505722976 17.915004230804598 #
point $-1 69.378988626301251 10.385019593149792 13.138155135079153 #
point $-1 69.378988626301251 12.467390435364734 13.138155135079153 #
point $-1 69.378988626301251 14.549761277579677 13.138155135079153 #
straight-curve $-1 -77.392619195037923 9.0364923660368497 17.915004230804598 1 0 0 I I #
point $-1 -74.085512863551742 9.0364923660368497 17.915004230804602 #
straight-curve $-1 -69.165222770901437 6.3424165454288186 17.915004230804602 0 1 0 I I #
point $-1 -69.165222770901437 9.0364923660368497 17.915004230804602 #
point $-1 -69.778345519125125 12.68483309085763 13.473202456342777 #
point $-1 -74.085512863551742 36.623344748186014 -17.915004230804602 #
straight-curve $-1 0 36.623344748186014 -17.915004230804602 1 0 0 I I #
End-of-ACIS-data 