500 0 9 0           
7 Unknown 11 ACIS 5.0 NT 24 Thu Mar 25 23:05:21 1999 
-1 9.9999999999999995e-007 1e-010 
body $-1 $9 $-1 $10 #
body $-1 $11 $-1 $12 #
body $-1 $13 $-1 $14 #
body $-1 $15 $-1 $16 #
body $-1 $17 $-1 $18 #
body $-1 $19 $-1 $20 #
body $-1 $21 $-1 $22 #
body $-1 $23 $-1 $24 #
body $-1 $25 $-1 $26 #
lump $-1 $-1 $27 $0 #
transform $-1 1 0 0 0 1 0 0 0 1 46.355174413281659 20.878007263137022 9.2064703740285392 1 rotate no_reflect no_shear #
lump $-1 $-1 $28 $1 #
transform $-1 1 0 0 0 1 0 0 0 1 46.355174413281659 20.878007263137022 9.2064703740285392 1 rotate no_reflect no_shear #
lump $-1 $-1 $29 $2 #
transform $-1 1 0 0 0 1 0 0 0 1 46.355174413281659 20.878007263137022 9.2064703740285392 1 rotate no_reflect no_shear #
lump $-1 $-1 $30 $3 #
transform $-1 1 0 0 0 1 0 0 0 1 46.355174413281659 20.878007263137022 9.2064703740285392 1 rotate no_reflect no_shear #
lump $-1 $-1 $31 $4 #
transform $-1 1 0 0 0 1 0 0 0 1 46.355174413281659 20.878007263137022 9.2064703740285392 1 rotate no_reflect no_shear #
lump $-1 $-1 $32 $5 #
transform $-1 1 0 0 0 1 0 0 0 1 46.355174413281659 20.878007263137022 9.2064703740285392 1 rotate no_reflect no_shear #
lump $-1 $-1 $33 $6 #
transform $-1 1 0 0 0 1 0 0 0 1 46.355174413281659 20.878007263137022 9.2064703740285392 1 rotate no_reflect no_shear #
lump $-1 $-1 $34 $7 #
transform $-1 1 0 0 0 1 0 0 0 1 46.355174413281659 20.878007263137022 9.2064703740285392 1 rotate no_reflect no_shear #
lump $-1 $-1 $35 $8 #
transform $-1 1 0 0 0 1 0 0 0 1 46.355174413281659 20.878007263137022 9.2064703740285392 1 rotate no_reflect no_shear #
shell $-1 $-1 $-1 $36 $-1 $9 #
shell $-1 $-1 $-1 $37 $-1 $11 #
shell $-1 $-1 $-1 $38 $-1 $13 #
shell $-1 $-1 $-1 $39 $-1 $15 #
shell $-1 $-1 $-1 $40 $-1 $17 #
shell $-1 $-1 $-1 $41 $-1 $19 #
shell $-1 $-1 $-1 $42 $-1 $21 #
shell $-1 $-1 $-1 $43 $-1 $23 #
shell $-1 $-1 $-1 $44 $-1 $25 #
face $-1 $45 $46 $27 $-1 $47 forward single #
face $-1 $48 $49 $28 $-1 $50 reversed single #
face $-1 $51 $52 $29 $-1 $53 reversed single #
face $-1 $54 $55 $30 $-1 $56 forward single #
face $-1 $57 $58 $31 $-1 $59 forward single #
face $-1 $60 $61 $32 $-1 $62 forward single #
face $-1 $63 $64 $33 $-1 $65 reversed single #
face $-1 $66 $67 $34 $-1 $68 forward single #
face $-1 $69 $70 $35 $-1 $71 forward single #
face $-1 $72 $73 $27 $-1 $74 reversed single #
loop $-1 $-1 $75 $36 #
plane-surface $-1 0 0 9.2064703740285392 0 0 1 1 0 0 forward_v I I I I #
face $-1 $76 $77 $28 $-1 $78 reversed single #
loop $-1 $-1 $79 $37 #
plane-surface $-1 0 -16.492474320451148 6.2064703740285392 0 0 1 1 0 0 forward_v I I I I #
face $-1 $80 $81 $29 $-1 $82 reversed single #
loop $-1 $-1 $83 $38 #
plane-surface $-1 39.493291758551365 14.202581428855929 134.45391067256222 0 -1 0 -0.66913061440640931 0 -0.74314481823134659 forward_v I I I I #
face $-1 $84 $85 $30 $-1 $86 forward single #
loop $-1 $87 $88 $39 #
cone-surface $-1 42.789663801944165 8.1822570096921332 5.9101926721197344 -0.66913061440640931 0 -0.74314481823134659 0.3715724091156733 0 -0.33456530720320465 1 I I 0 1 0.5 forward I I I I #
face $-1 $89 $90 $31 $-1 $91 forward single #
loop $-1 $92 $93 $40 #
cone-surface $-1 42.789663801944165 10.439878666878556 5.9101926721197344 -0.66913061440640931 0 -0.74314481823134659 0.3715724091156733 0 -0.33456530720320465 1 I I 0 1 0.5 forward I I I I #
face $-1 $94 $95 $32 $-1 $96 forward single #
loop $-1 $97 $98 $41 #
cone-surface $-1 42.789663801944165 12.697500324064983 5.9101926721197344 -0.66913061440640931 0 -0.74314481823134659 0.3715724091156733 0 -0.33456530720320465 1 I I 0 1 0.5 forward I I I I #
face $-1 $99 $100 $33 $-1 $101 reversed single #
loop $-1 $-1 $102 $42 #
plane-surface $-1 -126.64469240792003 11.284845657961412 46.544964220569412 0 1 0 -0.86602541151947299 0 0.49999998660252726 forward_v I I I I #
face $-1 $103 $104 $34 $-1 $105 forward single #
loop $-1 $106 $107 $43 #
cone-surface $-1 -43.0107159275749 14.025748973725875 4.2699865537336708 0.86602541151947299 0 -0.49999998660252726 0.49999998660252726 0 0.86602541151947299 1 I I 0 1 1 forward I I I I #
face $-1 $108 $109 $35 $-1 $110 forward single #
loop $-1 $111 $112 $44 #
cone-surface $-1 -43.0107159275749 18.137103947372566 4.2699865537336708 0.86602541151947299 0 -0.49999998660252726 0.49999998660252726 0 0.86602541151947299 1 I I 0 1 1 forward I I I I #
face $-1 $113 $114 $27 $-1 $115 reversed single #
loop $-1 $-1 $116 $45 #
plane-surface $-1 0 0 -9.2064703740285392 0 0 1 1 0 0 forward_v I I I I #
coedge $-1 $117 $118 $119 $120 forward $46 $-1 #
face $-1 $121 $122 $28 $-1 $123 reversed single #
loop $-1 $-1 $124 $48 #
plane-surface $-1 0 -12.106941377765274 7.7064703740285392 0 -1 0 0 0 -1 forward_v I I I I #
coedge $-1 $125 $126 $127 $128 reversed $49 $-1 #
face $-1 $129 $130 $29 $-1 $131 reversed single #
loop $-1 $-1 $132 $51 #
plane-surface $-1 -22.542040913599479 10.439878666878556 65.556695345681078 0.66913061440640931 0 0.74314481823134659 0.74314481823134659 0 -0.66913061440640931 forward_v I I I I #
coedge $-1 $133 $134 $135 $136 reversed $52 $-1 #
face $-1 $-1 $137 $30 $-1 $138 forward single #
loop $-1 $139 $140 $54 #
cone-surface $-1 42.213846348416993 8.1822570096921332 5.2706826159022473 -0.66913061440640931 0 -0.74314481823134659 0.18578620455783665 0 -0.16728265360160233 1 I I -0.70710678118654746 0.70710678118654746 0.25 forward I I I I #
loop $-1 $-1 $141 $39 #
coedge $-1 $88 $88 $142 $143 reversed $55 $-1 #
face $-1 $-1 $144 $31 $-1 $145 forward single #
loop $-1 $146 $147 $57 #
cone-surface $-1 42.213846348416993 10.439878666878556 5.2706826159022473 -0.66913061440640931 0 -0.74314481823134659 0.18578620455783665 0 -0.16728265360160233 1 I I -0.70710678118654746 0.70710678118654746 0.25 forward I I I I #
loop $-1 $-1 $148 $40 #
coedge $-1 $93 $93 $149 $150 reversed $58 $-1 #
face $-1 $-1 $151 $32 $-1 $152 forward single #
loop $-1 $153 $154 $60 #
cone-surface $-1 42.213846348416993 12.697500324064983 5.2706826159022473 -0.66913061440640931 0 -0.74314481823134659 0.18578620455783665 0 -0.16728265360160233 1 I I -0.70710678118654746 0.70710678118654746 0.25 forward I I I I #
loop $-1 $-1 $155 $41 #
coedge $-1 $98 $98 $156 $157 reversed $61 $-1 #
face $-1 $158 $159 $33 $-1 $160 forward single #
loop $-1 $-1 $161 $63 #
plane-surface $-1 -46.355174413281645 16.081426460549217 0.18979104937212554 -0.86602541151947299 0 0.49999998660252726 0.49999998660252726 0 0.86602541151947299 forward_v I I I I #
coedge $-1 $162 $163 $164 $165 reversed $64 $-1 #
face $-1 $-1 $166 $34 $-1 $167 forward single #
loop $-1 $168 $169 $66 #
cone-surface $-1 -41.836135760759426 14.025748973725875 3.5918424024657423 0.86602541151947299 0 -0.49999998660252726 0.24999999330126363 0 0.43301270575973649 1 I I -0.70710678118654746 0.70710678118654746 0.5 forward I I I I #
loop $-1 $-1 $170 $43 #
coedge $-1 $107 $107 $171 $172 reversed $67 $-1 #
face $-1 $-1 $173 $35 $-1 $174 forward single #
loop $-1 $175 $176 $69 #
cone-surface $-1 -41.836135760759426 18.137103947372566 3.5918424024657423 0.86602541151947299 0 -0.49999998660252726 0.24999999330126363 0 0.43301270575973649 1 I I -0.70710678118654746 0.70710678118654746 0.5 forward I I I I #
loop $-1 $-1 $177 $44 #
coedge $-1 $112 $112 $178 $179 reversed $70 $-1 #
face $-1 $180 $181 $27 $-1 $182 reversed single #
loop $-1 $-1 $183 $72 #
plane-surface $-1 0 -20.878007263137022 0 0 1 0 0 0 1 forward_v I I I I #
coedge $-1 $184 $185 $186 $187 forward $73 $-1 #
coedge $-1 $188 $75 $189 $190 forward $46 $-1 #
coedge $-1 $75 $188 $191 $192 forward $46 $-1 #
coedge $-1 $193 $194 $75 $120 reversed $195 $-1 #
edge $-1 $196 -20.878007263137022 $197 20.878007263137022 $119 $198 forward 7 unknown #
face $-1 $199 $200 $28 $-1 $201 reversed single #
loop $-1 $-1 $202 $76 #
plane-surface $-1 -46.355174413281659 0 0 1 0 0 0 0 -1 forward_v I I I I #
coedge $-1 $203 $204 $205 $206 reversed $77 $-1 #
coedge $-1 $207 $79 $208 $209 reversed $49 $-1 #
coedge $-1 $79 $207 $203 $210 forward $49 $-1 #
coedge $-1 $205 $211 $79 $128 forward $212 $-1 #
edge $-1 $213 -12.631770102911448 $214 -3.8607042175397002 $127 $215 forward 7 unknown #
face $-1 $216 $217 $29 $-1 $218 reversed single #
loop $-1 $-1 $219 $80 #
plane-surface $-1 39.493291758551365 6.6771759049011834 134.45391067256222 0 1 0 0.66913061440640931 0 0.74314481823134659 forward_v I I I I #
coedge $-1 $220 $221 $222 $223 reversed $81 $-1 #
coedge $-1 $134 $83 $224 $225 reversed $52 $-1 #
coedge $-1 $83 $133 $220 $226 reversed $52 $-1 #
coedge $-1 $222 $227 $83 $136 forward $228 $-1 #
edge $-1 $229 -26.608528534005977 $230 -20.294576911182162 $135 $231 forward 7 unknown #
loop $-1 $-1 $142 $84 #
plane-surface $-1 -22.542040913599479 10.439878666878556 65.556695345681078 0.66913061440640931 0 0.74314481823134659 0.74314481823134659 0 -0.66913061440640931 forward_v I I I I #
loop $-1 $-1 $232 $54 #
coedge $-1 $140 $140 $141 $233 reversed $85 $-1 #
coedge $-1 $141 $141 $140 $233 forward $87 $-1 #
coedge $-1 $142 $142 $88 $143 forward $137 $-1 #
edge $-1 $234 0 $234 6.2831853071796004 $142 $235 forward 7 unknown #
loop $-1 $-1 $149 $89 #
plane-surface $-1 -22.542040913599479 10.439878666878556 65.556695345681078 0.66913061440640931 0 0.74314481823134659 0.74314481823134659 0 -0.66913061440640931 forward_v I I I I #
loop $-1 $-1 $236 $57 #
coedge $-1 $147 $147 $148 $237 reversed $90 $-1 #
coedge $-1 $148 $148 $147 $237 forward $92 $-1 #
coedge $-1 $149 $149 $93 $150 forward $144 $-1 #
edge $-1 $238 0 $238 6.2831853071796004 $149 $239 forward 7 unknown #
loop $-1 $-1 $156 $94 #
plane-surface $-1 -22.542040913599479 10.439878666878556 65.556695345681078 0.66913061440640931 0 0.74314481823134659 0.74314481823134659 0 -0.66913061440640931 forward_v I I I I #
loop $-1 $-1 $240 $60 #
coedge $-1 $154 $154 $155 $241 reversed $95 $-1 #
coedge $-1 $155 $155 $154 $241 forward $97 $-1 #
coedge $-1 $156 $156 $98 $157 forward $151 $-1 #
edge $-1 $242 0 $242 6.2831853071796004 $156 $243 forward 7 unknown #
face $-1 $244 $245 $33 $-1 $246 reversed single #
loop $-1 $-1 $164 $99 #
plane-surface $-1 0 0 9.2064703740285392 0 0 1 1 0 0 forward_v I I I I #
coedge $-1 $247 $248 $249 $250 reversed $100 $-1 #
coedge $-1 $163 $102 $251 $252 reversed $64 $-1 #
coedge $-1 $102 $162 $247 $253 reversed $64 $-1 #
coedge $-1 $249 $254 $102 $165 forward $159 $-1 #
edge $-1 $255 16.967171790678357 $256 22.172953839980416 $164 $257 forward 7 unknown #
loop $-1 $-1 $171 $103 #
plane-surface $-1 -46.355174413281645 16.081426460549217 0.18979104937212554 -0.86602541151947299 0 0.49999998660252726 0.49999998660252726 0 0.86602541151947299 forward_v I I I I #
loop $-1 $-1 $258 $66 #
coedge $-1 $169 $169 $170 $259 reversed $104 $-1 #
coedge $-1 $170 $170 $169 $259 forward $106 $-1 #
coedge $-1 $171 $171 $107 $172 forward $166 $-1 #
edge $-1 $260 0 $260 6.2831853071796004 $171 $261 forward 7 unknown #
loop $-1 $-1 $178 $108 #
plane-surface $-1 -46.355174413281645 16.081426460549217 0.18979104937212554 -0.86602541151947299 0 0.49999998660252726 0.49999998660252726 0 0.86602541151947299 forward_v I I I I #
loop $-1 $-1 $262 $69 #
coedge $-1 $176 $176 $177 $263 reversed $109 $-1 #
coedge $-1 $177 $177 $176 $263 forward $111 $-1 #
coedge $-1 $178 $178 $112 $179 forward $173 $-1 #
edge $-1 $264 0 $264 6.2831853071796004 $178 $265 forward 7 unknown #
face $-1 $266 $267 $27 $-1 $268 reversed single #
loop $-1 $-1 $269 $113 #
plane-surface $-1 -46.355174413281659 0 0 1 0 0 0 0 -1 forward_v I I I I #
coedge $-1 $270 $191 $271 $272 forward $114 $-1 #
coedge $-1 $273 $116 $270 $274 forward $73 $-1 #
coedge $-1 $116 $273 $275 $276 forward $73 $-1 #
coedge $-1 $194 $193 $116 $187 reversed $195 $-1 #
edge $-1 $277 -20.878007263137022 $278 20.878007263137022 $186 $279 forward 7 unknown #
coedge $-1 $118 $117 $280 $281 forward $46 $-1 #
coedge $-1 $282 $283 $117 $190 reversed $267 $-1 #
edge $-1 $197 -46.355174413281659 $284 46.355174413281659 $189 $285 forward 7 unknown #
coedge $-1 $183 $286 $118 $192 reversed $114 $-1 #
edge $-1 $287 -46.355174413281659 $196 46.355174413281659 $191 $288 forward 7 unknown #
coedge $-1 $186 $119 $286 $289 forward $195 $-1 #
coedge $-1 $119 $186 $282 $290 reversed $195 $-1 #
loop $-1 $-1 $193 $266 #
vertex $-1 $120 $291 #
vertex $-1 $120 $292 #
straight-curve $-1 46.355174413281659 0 9.2064703740285392 0 1 0 I I #
face $-1 $293 $294 $28 $-1 $295 forward single #
loop $-1 $-1 $208 $121 #
plane-surface $-1 0 -20.878007263137022 0 0 1 0 0 0 1 forward_v I I I I #
coedge $-1 $296 $297 $298 $299 forward $122 $-1 #
coedge $-1 $298 $124 $126 $210 reversed $77 $-1 #
coedge $-1 $124 $298 $300 $301 reversed $77 $-1 #
coedge $-1 $302 $127 $124 $206 forward $212 $-1 #
edge $-1 $214 2.3532351870142696 $303 5.3532351870142696 $205 $304 forward 7 unknown #
coedge $-1 $126 $125 $296 $305 reversed $49 $-1 #
coedge $-1 $306 $307 $125 $209 forward $200 $-1 #
edge $-1 $308 -46.355174413281659 $213 46.355174413281659 $208 $309 forward 7 unknown #
edge $-1 $310 -46.355174413281659 $214 46.355174413281659 $203 $311 forward 7 unknown #
coedge $-1 $127 $302 $306 $312 forward $212 $-1 #
loop $-1 $-1 $205 $293 #
vertex $-1 $209 $313 #
vertex $-1 $128 $314 #
straight-curve $-1 46.355174413281659 -8.246237160225574 6.2064703740285392 0 1 0 I I #
face $-1 $-1 $228 $29 $-1 $315 forward single #
loop $-1 $-1 $316 $129 #
plane-surface $-1 46.355174413281659 0 0 -1 0 0 0 0 1 forward_v I I I I #
coedge $-1 $317 $318 $319 $320 reversed $130 $-1 #
coedge $-1 $321 $132 $134 $226 forward $81 $-1 #
coedge $-1 $132 $321 $317 $322 forward $81 $-1 #
coedge $-1 $319 $135 $132 $223 forward $228 $-1 #
edge $-1 $230 -8.9826420954166508 $323 -1.4572365714619053 $222 $324 forward 7 unknown #
coedge $-1 $325 $326 $133 $225 forward $217 $-1 #
edge $-1 $327 -63.705592662750874 $229 -58.020484962252567 $224 $328 forward 7 unknown #
edge $-1 $230 84.214088786897364 $327 92.710348826563319 $134 $329 forward 7 unknown #
coedge $-1 $135 $319 $325 $330 forward $228 $-1 #
loop $-1 $-1 $319 $216 #
vertex $-1 $225 $331 #
vertex $-1 $136 $332 #
straight-curve $-1 19.746645879275682 14.202581428855929 9.206470374028541 -1 0 0 I I #
coedge $-1 $232 $232 $-1 $333 reversed $139 $-1 #
edge $-1 $334 0 $334 6.2831853071796004 $140 $335 forward 7 unknown #
vertex $-1 $143 $336 #
ellipse-curve $-1 43.198198601869741 8.1822570096921332 6.3639165237793929 0.66913061440640931 0 0.74314481823134659 0.3715724091156733 0 -0.33456530720320465 1 I I #
coedge $-1 $236 $236 $-1 $337 reversed $146 $-1 #
edge $-1 $338 0 $338 6.2831853071796004 $147 $339 forward 7 unknown #
vertex $-1 $150 $340 #
ellipse-curve $-1 43.198198601869741 10.439878666878556 6.3639165237793929 0.66913061440640931 0 0.74314481823134659 0.3715724091156733 0 -0.33456530720320465 1 I I #
coedge $-1 $240 $240 $-1 $341 reversed $153 $-1 #
edge $-1 $342 0 $342 6.2831853071796004 $154 $343 forward 7 unknown #
vertex $-1 $157 $344 #
ellipse-curve $-1 43.198198601869741 12.697500324064983 6.3639165237793929 0.66913061440640931 0 0.74314481823134659 0.3715724091156733 0 -0.33456530720320465 1 I I #
face $-1 $-1 $345 $33 $-1 $346 reversed single #
loop $-1 $-1 $347 $158 #
plane-surface $-1 0 20.878007263137022 0 0 -1 0 0 0 -1 forward_v I I I I #
coedge $-1 $348 $161 $163 $253 forward $100 $-1 #
coedge $-1 $161 $348 $347 $349 reversed $100 $-1 #
coedge $-1 $350 $164 $161 $250 forward $159 $-1 #
edge $-1 $256 3.2441324276868038 $351 12.837294032862413 $249 $352 forward 7 unknown #
coedge $-1 $353 $354 $162 $252 forward $345 $-1 #
edge $-1 $355 -23.082691060912605 $255 -14.066011736256167 $251 $356 forward 7 unknown #
edge $-1 $256 -10.411564377581392 $355 2.8426276142919552e-014 $163 $357 forward 7 unknown #
coedge $-1 $164 $350 $353 $358 forward $159 $-1 #
vertex $-1 $252 $359 #
vertex $-1 $165 $360 #
straight-curve $-1 -63.322346203960016 11.284845657961412 9.206470374028541 1 0 0 I I #
coedge $-1 $258 $258 $-1 $361 reversed $168 $-1 #
edge $-1 $362 0 $362 6.2831853071796004 $169 $363 forward 7 unknown #
vertex $-1 $172 $364 #
ellipse-curve $-1 -43.752283388630623 14.025748973725875 4.6981307117003279 -0.86602541151947299 0 0.49999998660252726 0.49999998660252726 0 0.86602541151947299 1 I I #
coedge $-1 $262 $262 $-1 $365 reversed $175 $-1 #
edge $-1 $366 0 $366 6.2831853071796004 $176 $367 forward 7 unknown #
vertex $-1 $179 $368 #
ellipse-curve $-1 -43.752283388630623 18.137103947372566 4.6981307117003279 -0.86602541151947299 0 0.49999998660252726 0.49999998660252726 0 0.86602541151947299 1 I I #
face $-1 $-1 $195 $27 $-1 $369 reversed single #
loop $-1 $-1 $282 $180 #
plane-surface $-1 0 20.878007263137022 0 0 -1 0 0 0 -1 forward_v I I I I #
coedge $-1 $370 $280 $283 $371 forward $181 $-1 #
coedge $-1 $286 $183 $184 $274 reversed $114 $-1 #
coedge $-1 $280 $370 $183 $272 reversed $181 $-1 #
edge $-1 $287 -9.2064703740285392 $372 9.2064703740285392 $271 $373 forward 7 unknown #
coedge $-1 $185 $184 $370 $374 forward $73 $-1 #
edge $-1 $278 -46.355174413281659 $372 46.355174413281659 $270 $375 forward 7 unknown #
coedge $-1 $283 $282 $185 $276 reversed $267 $-1 #
edge $-1 $376 -46.355174413281659 $277 46.355174413281659 $275 $377 forward 7 unknown #
vertex $-1 $187 $378 #
vertex $-1 $289 $379 #
straight-curve $-1 46.355174413281659 0 -9.2064703740285392 0 -1 0 I I #
coedge $-1 $269 $271 $188 $281 reversed $181 $-1 #
edge $-1 $284 -20.878007263137022 $287 20.878007263137022 $280 $380 forward 7 unknown #
coedge $-1 $275 $189 $194 $290 forward $267 $-1 #
coedge $-1 $189 $275 $269 $371 reversed $267 $-1 #
vertex $-1 $190 $381 #
straight-curve $-1 0 20.878007263137022 9.2064703740285392 -1 0 0 I I #
coedge $-1 $191 $270 $193 $289 reversed $114 $-1 #
vertex $-1 $281 $382 #
straight-curve $-1 0 -20.878007263137022 9.2064703740285392 1 0 0 I I #
edge $-1 $196 -9.2064703740285392 $278 9.2064703740285392 $193 $383 forward 7 unknown #
edge $-1 $197 -9.2064703740285392 $277 9.2064703740285392 $194 $384 forward 7 unknown #
point $-1 46.355174413281659 -20.878007263137022 9.2064703740285392 #
point $-1 46.355174413281659 20.878007263137022 9.2064703740285392 #
face $-1 $-1 $212 $28 $-1 $385 reversed single #
loop $-1 $-1 $300 $199 #
plane-surface $-1 0 0 9.2064703740285392 0 0 1 1 0 0 forward_v I I I I #
coedge $-1 $386 $202 $207 $305 forward $122 $-1 #
coedge $-1 $202 $386 $387 $388 reversed $122 $-1 #
coedge $-1 $204 $203 $202 $299 reversed $77 $-1 #
edge $-1 $389 -5.3532351870142696 $310 -2.3532351870142696 $202 $390 forward 7 unknown #
coedge $-1 $387 $391 $204 $301 forward $294 $-1 #
edge $-1 $303 -46.355174413281659 $389 46.355174413281659 $300 $392 forward 7 unknown #
coedge $-1 $211 $205 $391 $393 reversed $212 $-1 #
vertex $-1 $206 $394 #
straight-curve $-1 46.355174413281659 -12.106941377765274 3.8532351870142696 0 0 1 I I #
edge $-1 $310 3.8607042175397002 $308 12.631770102911448 $296 $395 forward 7 unknown #
coedge $-1 $396 $208 $211 $312 reversed $200 $-1 #
coedge $-1 $208 $396 $386 $397 forward $200 $-1 #
vertex $-1 $209 $398 #
straight-curve $-1 0 -20.878007263137022 6.2064703740285392 1 0 0 I I #
vertex $-1 $305 $399 #
straight-curve $-1 0 -12.106941377765274 6.2064703740285392 1 0 0 I I #
edge $-1 $400 -9.2064703740285392 $213 -6.2064703740285392 $211 $401 forward 7 unknown #
point $-1 46.355174413281659 -20.878007263137022 6.2064703740285392 #
point $-1 46.355174413281659 -12.106941377765274 6.2064703740285392 #
plane-surface $-1 0 0 9.2064703740285392 0 0 1 1 0 0 forward_v I I I I #
coedge $-1 $326 $325 $318 $402 forward $217 $-1 #
coedge $-1 $318 $219 $221 $322 reversed $130 $-1 #
coedge $-1 $219 $317 $316 $402 reversed $130 $-1 #
coedge $-1 $227 $222 $219 $320 forward $228 $-1 #
edge $-1 $323 20.294576911182162 $403 26.608528534005977 $319 $404 forward 7 unknown #
coedge $-1 $221 $220 $326 $405 reversed $81 $-1 #
edge $-1 $406 -92.710348826563319 $323 -84.214088786897364 $317 $407 forward 7 unknown #
vertex $-1 $223 $408 #
straight-curve $-1 40.041222790457844 5.2199393334392781 9.206470374028541 0 -1 0 I I #
coedge $-1 $316 $224 $227 $330 reversed $217 $-1 #
coedge $-1 $224 $316 $321 $405 forward $217 $-1 #
vertex $-1 $225 $409 #
straight-curve $-1 46.355174413281659 14.202581428855929 67.226955336281108 0 0 1 I I #
straight-curve $-1 -22.542040913599479 14.202581428855929 65.556695345681078 0.74314481823134659 0 -0.66913061440640931 I I #
edge $-1 $403 6.6771759049011834 $229 14.202581428855929 $325 $410 forward 7 unknown #
point $-1 46.355174413281659 14.202581428855929 9.2064703740285392 #
point $-1 40.041222790457844 14.202581428855929 9.206470374028541 #
edge $-1 $411 1 $411 0 $232 $-1 forward 7 unknown #
vertex $-1 $233 $412 #
ellipse-curve $-1 42.381129002018596 8.1822570096921332 5.456468820460084 0.66913061440640931 0 0.74314481823134659 0.3715724091156733 0 -0.33456530720320465 1 I I #
point $-1 43.569771010985399 8.1822570096921332 6.0293512165761802 #
edge $-1 $413 1 $413 0 $236 $-1 forward 7 unknown #
vertex $-1 $237 $414 #
ellipse-curve $-1 42.381129002018596 10.439878666878556 5.456468820460084 0.66913061440640931 0 0.74314481823134659 0.3715724091156733 0 -0.33456530720320465 1 I I #
point $-1 43.569771010985399 10.439878666878556 6.0293512165761802 #
edge $-1 $415 1 $415 0 $240 $-1 forward 7 unknown #
vertex $-1 $241 $416 #
ellipse-curve $-1 42.381129002018596 12.697500324064983 5.456468820460084 0.66913061440640931 0 0.74314481823134659 0.3715724091156733 0 -0.33456530720320465 1 I I #
point $-1 43.569771010985399 12.697500324064983 6.0293512165761802 #
loop $-1 $-1 $251 $244 #
plane-surface $-1 -46.355174413281659 0 0 1 0 0 0 0 -1 forward_v I I I I #
coedge $-1 $417 $418 $248 $349 forward $245 $-1 #
coedge $-1 $248 $247 $354 $419 reversed $100 $-1 #
edge $-1 $351 1.0950469794003237 $420 11.506611356981745 $347 $421 forward 7 unknown #
coedge $-1 $254 $249 $418 $422 forward $159 $-1 #
vertex $-1 $422 $423 #
straight-curve $-1 -41.149392363979594 8.0407132302746085 9.2064703740285392 0 1 0 I I #
coedge $-1 $424 $251 $254 $358 reversed $345 $-1 #
coedge $-1 $251 $424 $348 $419 forward $345 $-1 #
vertex $-1 $252 $425 #
straight-curve $-1 -46.355174413281659 11.284845657961412 23.272482110284706 0 0 1 I I #
straight-curve $-1 -46.355174413281645 11.284845657961412 0.18979104937212554 -0.49999998660252726 0 -0.86602541151947299 I I #
edge $-1 $426 -20.878007263137022 $255 -11.284845657961412 $353 $427 forward 7 unknown #
point $-1 -46.355174413281659 11.284845657961412 9.2064703740285392 #
point $-1 -41.149392363979601 11.284845657961412 9.2064703740285392 #
edge $-1 $428 1 $428 0 $258 $-1 forward 7 unknown #
vertex $-1 $259 $429 #
ellipse-curve $-1 -42.269148466519162 14.025748973725875 3.841842395767006 -0.86602541151947299 0 0.49999998660252726 0.49999998660252726 0 0.86602541151947299 1 I I #
point $-1 -43.252283402028112 14.025748973725875 5.5641561232198082 #
edge $-1 $430 1 $430 0 $262 $-1 forward 7 unknown #
vertex $-1 $263 $431 #
ellipse-curve $-1 -42.269148466519162 18.137103947372566 3.841842395767006 -0.86602541151947299 0 0.49999998660252726 0.49999998660252726 0 0.86602541151947299 1 I I #
point $-1 -43.252283402028112 18.137103947372566 5.5641561232198082 #
plane-surface $-1 46.355174413281659 0 0 -1 0 0 0 0 1 forward_v I I I I #
coedge $-1 $271 $269 $273 $374 reversed $181 $-1 #
edge $-1 $284 -9.2064703740285392 $376 9.2064703740285392 $283 $432 forward 7 unknown #
vertex $-1 $374 $433 #
straight-curve $-1 -46.355174413281659 -20.878007263137022 0 0 0 -1 I I #
edge $-1 $372 -20.878007263137022 $376 20.878007263137022 $370 $434 forward 7 unknown #
straight-curve $-1 0 -20.878007263137022 -9.2064703740285392 -1 0 0 I I #
vertex $-1 $276 $435 #
straight-curve $-1 0 20.878007263137022 -9.2064703740285392 1 0 0 I I #
point $-1 46.355174413281659 20.878007263137022 -9.2064703740285392 #
point $-1 46.355174413281659 -20.878007263137022 -9.2064703740285392 #
straight-curve $-1 -46.355174413281659 0 9.2064703740285392 0 -1 0 I I #
point $-1 -46.355174413281659 20.878007263137022 9.2064703740285392 #
point $-1 -46.355174413281659 -20.878007263137022 9.2064703740285392 #
straight-curve $-1 46.355174413281659 -20.878007263137022 0 0 0 -1 I I #
straight-curve $-1 46.355174413281659 20.878007263137022 0 0 0 -1 I I #
plane-surface $-1 46.355174413281659 0 0 -1 0 0 0 0 1 forward_v I I I I #
coedge $-1 $297 $296 $307 $397 reversed $122 $-1 #
coedge $-1 $436 $300 $297 $388 forward $294 $-1 #
edge $-1 $389 12.106941377765274 $437 20.878007263137022 $297 $438 forward 7 unknown #
vertex $-1 $388 $439 #
straight-curve $-1 -46.355174413281659 -12.106941377765274 3.8532351870142696 0 0 -1 I I #
coedge $-1 $300 $436 $302 $393 forward $294 $-1 #
straight-curve $-1 0 -12.106941377765274 9.2064703740285392 -1 0 0 I I #
edge $-1 $400 -20.878007263137022 $303 -12.106941377765274 $302 $440 forward 7 unknown #
point $-1 46.355174413281659 -12.106941377765274 9.2064703740285392 #
straight-curve $-1 -46.355174413281659 -8.246237160225574 6.2064703740285392 0 -1 0 I I #
coedge $-1 $307 $306 $436 $441 reversed $200 $-1 #
edge $-1 $437 -9.2064703740285392 $308 -6.2064703740285392 $386 $442 forward 7 unknown #
point $-1 -46.355174413281659 -20.878007263137022 6.2064703740285392 #
point $-1 -46.355174413281659 -12.106941377765274 6.2064703740285392 #
vertex $-1 $393 $443 #
straight-curve $-1 46.355174413281659 -20.878007263137022 0 0 0 -1 I I #
edge $-1 $403 58.020484962252567 $406 63.705592662750874 $316 $444 forward 7 unknown #
vertex $-1 $330 $445 #
straight-curve $-1 19.746645879275682 6.6771759049011834 9.206470374028541 1 0 0 I I #
edge $-1 $406 1.4572365714619053 $327 8.9826420954166508 $326 $446 forward 7 unknown #
vertex $-1 $405 $447 #
straight-curve $-1 -22.542040913599479 6.6771759049011834 65.556695345681078 -0.74314481823134659 0 0.66913061440640931 I I #
point $-1 40.041222790457844 6.6771759049011834 9.206470374028541 #
point $-1 46.355174413281659 14.202581428855929 3.5213626735302341 #
straight-curve $-1 46.355174413281659 0 9.2064703740285392 0 1 0 I I #
vertex $-1 $333 $448 #
point $-1 42.752701411134268 8.1822570096921332 5.1219035132568793 #
vertex $-1 $337 $449 #
point $-1 42.752701411134268 10.439878666878556 5.1219035132568793 #
vertex $-1 $341 $450 #
point $-1 42.752701411134268 12.697500324064983 5.1219035132568793 #
coedge $-1 $418 $347 $424 $451 reversed $245 $-1 #
coedge $-1 $347 $417 $350 $422 reversed $245 $-1 #
edge $-1 $420 -12.837294032862413 $355 -3.2441324276868038 $354 $452 forward 7 unknown #
vertex $-1 $349 $453 #
straight-curve $-1 -40.601868888950293 20.878007263137022 10.154808884996855 -0.49999998660252726 0 -0.86602541151947299 I I #
edge $-1 $351 41.149392363979601 $426 46.355174413281659 $418 $454 forward 7 unknown #
point $-1 -41.149392363979601 20.878007263137022 9.2064703740285392 #
coedge $-1 $354 $353 $417 $451 forward $345 $-1 #
point $-1 -46.355174413281659 11.284845657961412 0.18979104937210092 #
vertex $-1 $422 $455 #
straight-curve $-1 -46.355174413281659 0 9.2064703740285392 0 -1 0 I I #
vertex $-1 $361 $456 #
point $-1 -41.769148479916637 14.025748973725875 4.7078678072864788 #
vertex $-1 $365 $457 #
point $-1 -41.769148479916637 18.137103947372566 4.7078678072864788 #
straight-curve $-1 -46.355174413281659 20.878007263137022 0 0 0 -1 I I #
point $-1 -46.355174413281659 -20.878007263137022 -9.2064703740285392 #
straight-curve $-1 -46.355174413281659 0 -9.2064703740285392 0 1 0 I I #
point $-1 -46.355174413281659 20.878007263137022 -9.2064703740285392 #
coedge $-1 $391 $387 $396 $441 forward $294 $-1 #
vertex $-1 $388 $458 #
straight-curve $-1 -46.355174413281659 0 9.2064703740285392 0 -1 0 I I #
point $-1 -46.355174413281659 -12.106941377765274 9.2064703740285392 #
straight-curve $-1 46.355174413281659 0 9.2064703740285392 0 1 0 I I #
edge $-1 $437 -46.355174413281659 $400 46.355174413281659 $396 $459 forward 7 unknown #
straight-curve $-1 -46.355174413281659 -20.878007263137022 0 0 0 -1 I I #
point $-1 46.355174413281659 -20.878007263137022 9.2064703740285392 #
straight-curve $-1 46.355174413281659 6.6771759049011834 67.226955336281108 0 0 -1 I I #
point $-1 46.355174413281659 6.6771759049011834 9.2064703740285392 #
straight-curve $-1 46.355174413281652 5.2199393334392781 3.5213626735302306 0 1 0 I I #
point $-1 46.355174413281659 6.6771759049011834 3.5213626735302341 #
point $-1 42.04656369481539 8.1822570096921332 5.0848964113444106 #
point $-1 42.04656369481539 10.439878666878556 5.0848964113444106 #
point $-1 42.04656369481539 12.697500324064983 5.0848964113444106 #
edge $-1 $426 -9.2064703740285392 $420 -0.18979104937210092 $417 $460 forward 7 unknown #
straight-curve $-1 -46.355174413281659 8.0407132302746085 0.18979104937209867 0 -1 0 I I #
point $-1 -46.355174413281659 20.878007263137022 0.18979104937210092 #
straight-curve $-1 0 20.878007263137022 9.2064703740285392 -1 0 0 I I #
point $-1 -46.355174413281659 20.878007263137022 9.2064703740285392 #
point $-1 -41.403123054999689 14.025748973725875 3.3418424091644785 #
point $-1 -41.403123054999689 18.137103947372566 3.3418424091644785 #
point $-1 -46.355174413281659 -20.878007263137022 9.2064703740285392 #
straight-curve $-1 0 -20.878007263137022 9.2064703740285392 1 0 0 I I #
straight-curve $-1 -46.355174413281659 20.878007263137022 0 0 0 -1 I I #
End-of-ACIS-data 