500 0 14 0           
7 Unknown 11 ACIS 5.0 NT 24 Thu Mar 25 18:48:26 1999 
-1 9.9999999999999995e-007 1e-010 
body $-1 $14 $-1 $15 #
body $-1 $16 $-1 $17 #
body $-1 $18 $-1 $19 #
body $-1 $20 $-1 $21 #
body $-1 $22 $-1 $23 #
body $-1 $24 $-1 $25 #
body $-1 $26 $-1 $27 #
body $-1 $28 $-1 $29 #
body $-1 $30 $-1 $31 #
body $-1 $32 $-1 $33 #
body $-1 $34 $-1 $35 #
body $-1 $36 $-1 $37 #
body $-1 $38 $-1 $39 #
body $-1 $40 $-1 $41 #
lump $-1 $-1 $42 $0 #
transform $-1 1 0 0 0 1 0 0 0 1 76.902981658375808 38.147089549818681 11.754151278139265 1 rotate no_reflect no_shear #
lump $-1 $-1 $43 $1 #
transform $-1 1 0 0 0 1 0 0 0 1 76.902981658375808 38.147089549818681 11.754151278139265 1 rotate no_reflect no_shear #
lump $-1 $-1 $44 $2 #
transform $-1 1 0 0 0 1 0 0 0 1 76.902981658375808 38.147089549818681 11.754151278139265 1 rotate no_reflect no_shear #
lump $-1 $-1 $45 $3 #
transform $-1 1 0 0 0 1 0 0 0 1 76.902981658375808 38.147089549818681 11.754151278139265 1 rotate no_reflect no_shear #
lump $-1 $-1 $46 $4 #
transform $-1 1 0 0 0 1 0 0 0 1 76.902981658375808 38.147089549818681 11.754151278139265 1 rotate no_reflect no_shear #
lump $-1 $-1 $47 $5 #
transform $-1 1 0 0 0 1 0 0 0 1 76.902981658375808 38.147089549818681 11.754151278139265 1 rotate no_reflect no_shear #
lump $-1 $-1 $48 $6 #
transform $-1 1 0 0 0 1 0 0 0 1 76.902981658375808 38.147089549818681 11.754151278139265 1 rotate no_reflect no_shear #
lump $-1 $-1 $49 $7 #
transform $-1 1 0 0 0 1 0 0 0 1 76.902981658375808 38.147089549818681 11.754151278139265 1 rotate no_reflect no_shear #
lump $-1 $-1 $50 $8 #
transform $-1 1 0 0 0 1 0 0 0 1 76.902981658375808 38.147089549818681 11.754151278139265 1 rotate no_reflect no_shear #
lump $-1 $-1 $51 $9 #
transform $-1 1 0 0 0 1 0 0 0 1 76.902981658375808 38.147089549818681 11.754151278139265 1 rotate no_reflect no_shear #
lump $-1 $-1 $52 $10 #
transform $-1 1 0 0 0 1 0 0 0 1 76.902981658375808 38.147089549818681 11.754151278139265 1 rotate no_reflect no_shear #
lump $-1 $-1 $53 $11 #
transform $-1 1 0 0 0 1 0 0 0 1 76.902981658375808 38.147089549818681 11.754151278139265 1 rotate no_reflect no_shear #
lump $-1 $-1 $54 $12 #
transform $-1 1 0 0 0 1 0 0 0 1 76.902981658375808 38.147089549818681 11.754151278139265 1 rotate no_reflect no_shear #
lump $-1 $-1 $55 $13 #
transform $-1 1 0 0 0 1 0 0 0 1 76.902981658375808 38.147089549818681 11.754151278139265 1 rotate no_reflect no_shear #
shell $-1 $-1 $-1 $56 $-1 $14 #
shell $-1 $-1 $-1 $57 $-1 $16 #
shell $-1 $-1 $-1 $58 $-1 $18 #
shell $-1 $-1 $-1 $59 $-1 $20 #
shell $-1 $-1 $-1 $60 $-1 $22 #
shell $-1 $-1 $-1 $61 $-1 $24 #
shell $-1 $-1 $-1 $62 $-1 $26 #
shell $-1 $-1 $-1 $63 $-1 $28 #
shell $-1 $-1 $-1 $64 $-1 $30 #
shell $-1 $-1 $-1 $65 $-1 $32 #
shell $-1 $-1 $-1 $66 $-1 $34 #
shell $-1 $-1 $-1 $67 $-1 $36 #
shell $-1 $-1 $-1 $68 $-1 $38 #
shell $-1 $-1 $-1 $69 $-1 $40 #
face $-1 $70 $71 $42 $-1 $72 forward single #
face $-1 $73 $74 $43 $-1 $75 reversed single #
face $-1 $76 $77 $44 $-1 $78 reversed single #
face $-1 $79 $80 $45 $-1 $81 forward single #
face $-1 $82 $83 $46 $-1 $84 forward single #
face $-1 $85 $86 $47 $-1 $87 reversed single #
face $-1 $88 $89 $48 $-1 $90 forward single #
face $-1 $91 $92 $49 $-1 $93 forward single #
face $-1 $94 $95 $50 $-1 $96 reversed single #
face $-1 $97 $98 $51 $-1 $99 forward single #
face $-1 $100 $101 $52 $-1 $102 forward single #
face $-1 $103 $104 $53 $-1 $105 reversed single #
face $-1 $106 $107 $54 $-1 $108 forward single #
face $-1 $109 $110 $55 $-1 $111 forward single #
face $-1 $112 $113 $42 $-1 $114 reversed single #
loop $-1 $-1 $115 $56 #
plane-surface $-1 0 0 11.754151278139265 0 0 1 1 0 0 forward_v I I I I #
face $-1 $116 $117 $43 $-1 $118 reversed single #
loop $-1 $-1 $119 $57 #
plane-surface $-1 -70.351388414525474 -32.918251293957923 0 0 1 0 0 0 1 forward_v I I I I #
face $-1 $120 $121 $44 $-1 $122 reversed single #
loop $-1 $-1 $123 $58 #
plane-surface $-1 -58.226741290121936 95.787452282233261 162.76784709700081 1 0 0 0 -0.71933980857756763 -0.69465836192734942 forward_v I I I I #
face $-1 $124 $125 $45 $-1 $126 forward single #
loop $-1 $127 $128 $59 #
cone-surface $-1 -52.896274599353447 29.547397436094386 3.0883445400176992 0 -0.71933980857756763 -0.69465836192734942 2.5 0 0 1 I I 0 1 2.5 forward I I I I #
face $-1 $129 $130 $46 $-1 $131 forward single #
loop $-1 $132 $133 $60 #
cone-surface $-1 -44.900574563200699 29.547397436094386 3.0883445400176992 0 -0.71933980857756763 -0.69465836192734942 2.5 0 0 1 I I 0 1 2.5 forward I I I I #
face $-1 $134 $135 $47 $-1 $136 reversed single #
loop $-1 $-1 $137 $61 #
plane-surface $-1 -21.260062740037004 95.787452282233261 162.76784709700081 1 0 0 0 -0.71933980857756763 -0.69465836192734942 forward_v I I I I #
face $-1 $138 $139 $48 $-1 $140 forward single #
loop $-1 $141 $142 $62 #
cone-surface $-1 -15.929596049268504 29.547397436094386 3.0883445400176992 0 -0.71933980857756763 -0.69465836192734942 2.5 0 0 1 I I 0 1 2.5 forward I I I I #
face $-1 $143 $144 $49 $-1 $145 forward single #
loop $-1 $146 $147 $63 #
cone-surface $-1 -7.9338960131157563 29.547397436094386 3.0883445400176992 0 -0.71933980857756763 -0.69465836192734942 2.5 0 0 1 I I 0 1 2.5 forward I I I I #
face $-1 $148 $149 $50 $-1 $150 reversed single #
loop $-1 $-1 $151 $64 #
plane-surface $-1 15.706615810047946 95.787452282233261 162.76784709700081 1 0 0 0 -0.71933980857756763 -0.69465836192734942 forward_v I I I I #
face $-1 $152 $153 $51 $-1 $154 forward single #
loop $-1 $155 $156 $65 #
cone-surface $-1 21.037082500816439 29.547397436094386 3.0883445400176992 0 -0.71933980857756763 -0.69465836192734942 2.5 0 0 1 I I 0 1 2.5 forward I I I I #
face $-1 $157 $158 $52 $-1 $159 forward single #
loop $-1 $160 $161 $66 #
cone-surface $-1 29.032782536969194 29.547397436094386 3.0883445400176992 0 -0.71933980857756763 -0.69465836192734942 2.5 0 0 1 I I 0 1 2.5 forward I I I I #
face $-1 $162 $163 $53 $-1 $164 reversed single #
loop $-1 $-1 $165 $67 #
plane-surface $-1 52.673294360132886 95.787452282233261 162.76784709700081 1 0 0 0 -0.71933980857756763 -0.69465836192734942 forward_v I I I I #
face $-1 $166 $167 $54 $-1 $168 forward single #
loop $-1 $169 $170 $68 #
cone-surface $-1 58.003761050901375 29.547397436094386 3.0883445400176992 0 -0.71933980857756763 -0.69465836192734942 2.5 0 0 1 I I 0 1 2.5 forward I I I I #
face $-1 $171 $172 $55 $-1 $173 forward single #
loop $-1 $174 $175 $69 #
cone-surface $-1 65.999461087054129 29.547397436094386 3.0883445400176992 0 -0.71933980857756763 -0.69465836192734942 2.5 0 0 1 I I 0 1 2.5 forward I I I I #
face $-1 $176 $177 $42 $-1 $178 reversed single #
loop $-1 $-1 $179 $70 #
plane-surface $-1 0 0 -11.754151278139265 0 0 1 1 0 0 forward_v I I I I #
coedge $-1 $180 $181 $182 $183 forward $71 $-1 #
face $-1 $184 $185 $43 $-1 $186 reversed single #
loop $-1 $-1 $187 $73 #
plane-surface $-1 -70.351388414525474 -29.013306075183902 0 0 -1 0 0 0 -1 forward_v I I I I #
coedge $-1 $188 $189 $190 $191 reversed $74 $-1 #
face $-1 $192 $193 $44 $-1 $194 reversed single #
loop $-1 $-1 $195 $76 #
plane-surface $-1 -48.898424581277069 -14.851299928127233 55.925248564728136 0 0.71933980857756763 0.69465836192734942 1 0 0 forward_v I I I I #
coedge $-1 $196 $197 $198 $199 reversed $77 $-1 #
face $-1 $-1 $200 $45 $-1 $201 forward single #
loop $-1 $202 $203 $79 #
cone-surface $-1 -52.896274599353447 25.219959396555495 -1.0906136992495981 0 -0.71933980857756763 -0.69465836192734942 1.25 0 0 1 I I -0.70710678118654746 0.70710678118654746 1.25 forward I I I I #
loop $-1 $-1 $204 $59 #
coedge $-1 $128 $128 $205 $206 reversed $80 $-1 #
face $-1 $-1 $207 $46 $-1 $208 forward single #
loop $-1 $209 $210 $82 #
cone-surface $-1 -44.900574563200699 25.219959396555495 -1.0906136992495981 0 -0.71933980857756763 -0.69465836192734942 1.25 0 0 1 I I -0.70710678118654746 0.70710678118654746 1.25 forward I I I I #
loop $-1 $-1 $211 $60 #
coedge $-1 $133 $133 $212 $213 reversed $83 $-1 #
face $-1 $214 $215 $47 $-1 $216 reversed single #
loop $-1 $-1 $217 $85 #
plane-surface $-1 -11.931746031192134 -14.851299928127233 55.925248564728136 0 0.71933980857756763 0.69465836192734942 1 0 0 forward_v I I I I #
coedge $-1 $218 $219 $220 $221 reversed $86 $-1 #
face $-1 $-1 $222 $48 $-1 $223 forward single #
loop $-1 $224 $225 $88 #
cone-surface $-1 -15.929596049268504 25.219959396555495 -1.0906136992495981 0 -0.71933980857756763 -0.69465836192734942 1.25 0 0 1 I I -0.70710678118654746 0.70710678118654746 1.25 forward I I I I #
loop $-1 $-1 $226 $62 #
coedge $-1 $142 $142 $227 $228 reversed $89 $-1 #
face $-1 $-1 $229 $49 $-1 $230 forward single #
loop $-1 $231 $232 $91 #
cone-surface $-1 -7.9338960131157563 25.219959396555495 -1.0906136992495981 0 -0.71933980857756763 -0.69465836192734942 1.25 0 0 1 I I -0.70710678118654746 0.70710678118654746 1.25 forward I I I I #
loop $-1 $-1 $233 $63 #
coedge $-1 $147 $147 $234 $235 reversed $92 $-1 #
face $-1 $236 $237 $50 $-1 $238 reversed single #
loop $-1 $-1 $239 $94 #
plane-surface $-1 25.034932518892816 -14.851299928127233 55.925248564728136 0 0.71933980857756763 0.69465836192734942 1 0 0 forward_v I I I I #
coedge $-1 $240 $241 $242 $243 reversed $95 $-1 #
face $-1 $-1 $244 $51 $-1 $245 forward single #
loop $-1 $246 $247 $97 #
cone-surface $-1 21.037082500816439 25.219959396555495 -1.0906136992495981 0 -0.71933980857756763 -0.69465836192734942 1.25 0 0 1 I I -0.70710678118654746 0.70710678118654746 1.25 forward I I I I #
loop $-1 $-1 $248 $65 #
coedge $-1 $156 $156 $249 $250 reversed $98 $-1 #
face $-1 $-1 $251 $52 $-1 $252 forward single #
loop $-1 $253 $254 $100 #
cone-surface $-1 29.032782536969194 25.219959396555495 -1.0906136992495981 0 -0.71933980857756763 -0.69465836192734942 1.25 0 0 1 I I -0.70710678118654746 0.70710678118654746 1.25 forward I I I I #
loop $-1 $-1 $255 $66 #
coedge $-1 $161 $161 $256 $257 reversed $101 $-1 #
face $-1 $258 $259 $53 $-1 $260 reversed single #
loop $-1 $-1 $261 $103 #
plane-surface $-1 62.001611068977752 -14.851299928127233 55.925248564728136 0 0.71933980857756763 0.69465836192734942 1 0 0 forward_v I I I I #
coedge $-1 $262 $263 $264 $265 reversed $104 $-1 #
face $-1 $-1 $266 $54 $-1 $267 forward single #
loop $-1 $268 $269 $106 #
cone-surface $-1 58.003761050901375 25.219959396555495 -1.0906136992495981 0 -0.71933980857756763 -0.69465836192734942 1.25 0 0 1 I I -0.70710678118654746 0.70710678118654746 1.25 forward I I I I #
loop $-1 $-1 $270 $68 #
coedge $-1 $170 $170 $271 $272 reversed $107 $-1 #
face $-1 $-1 $273 $55 $-1 $274 forward single #
loop $-1 $275 $276 $109 #
cone-surface $-1 65.999461087054129 25.219959396555495 -1.0906136992495981 0 -0.71933980857756763 -0.69465836192734942 1.25 0 0 1 I I -0.70710678118654746 0.70710678118654746 1.25 forward I I I I #
loop $-1 $-1 $277 $69 #
coedge $-1 $175 $175 $278 $279 reversed $110 $-1 #
face $-1 $280 $281 $42 $-1 $282 reversed single #
loop $-1 $-1 $283 $112 #
plane-surface $-1 0 -38.147089549818681 0 0 1 0 0 0 1 forward_v I I I I #
coedge $-1 $284 $285 $286 $287 forward $113 $-1 #
coedge $-1 $288 $115 $289 $290 forward $71 $-1 #
coedge $-1 $115 $288 $291 $292 forward $71 $-1 #
coedge $-1 $293 $294 $115 $183 reversed $295 $-1 #
edge $-1 $296 -38.147089549818681 $297 38.147089549818681 $182 $298 forward 7 unknown #
face $-1 $299 $300 $43 $-1 $301 reversed single #
loop $-1 $-1 $302 $116 #
plane-surface $-1 -63.799795170675139 -30.965778684570914 0 -1 0 0 0 0 1 forward_v I I I I #
coedge $-1 $303 $304 $305 $306 forward $117 $-1 #
coedge $-1 $307 $119 $308 $309 reversed $74 $-1 #
coedge $-1 $119 $307 $310 $311 reversed $74 $-1 #
coedge $-1 $312 $313 $119 $191 forward $314 $-1 #
edge $-1 $315 -11.754151278139265 $316 11.754151278139265 $190 $317 forward 7 unknown #
face $-1 $318 $319 $44 $-1 $320 reversed single #
loop $-1 $-1 $321 $120 #
plane-surface $-1 -39.570107872432203 95.787452282233261 162.76784709700081 -1 0 0 0 0.71933980857756763 0.69465836192734942 forward_v I I I I #
coedge $-1 $322 $323 $324 $325 reversed $121 $-1 #
coedge $-1 $197 $123 $326 $327 reversed $77 $-1 #
coedge $-1 $123 $196 $322 $328 reversed $77 $-1 #
coedge $-1 $324 $329 $123 $199 forward $330 $-1 #
edge $-1 $331 9.7466365912979498 $332 20.089494261112705 $198 $333 forward 7 unknown #
loop $-1 $-1 $205 $124 #
plane-surface $-1 -48.898424581277069 -14.851299928127233 55.925248564728136 0 0.71933980857756763 0.69465836192734942 1 0 0 forward_v I I I I #
loop $-1 $-1 $334 $79 #
coedge $-1 $203 $203 $204 $335 reversed $125 $-1 #
coedge $-1 $204 $204 $203 $335 forward $127 $-1 #
coedge $-1 $205 $205 $128 $206 forward $200 $-1 #
edge $-1 $336 3.7082389452494798e-016 $336 6.2831853071796004 $205 $337 forward 7 unknown #
loop $-1 $-1 $212 $129 #
plane-surface $-1 -48.898424581277069 -14.851299928127233 55.925248564728136 0 0.71933980857756763 0.69465836192734942 1 0 0 forward_v I I I I #
loop $-1 $-1 $338 $82 #
coedge $-1 $210 $210 $211 $339 reversed $130 $-1 #
coedge $-1 $211 $211 $210 $339 forward $132 $-1 #
coedge $-1 $212 $212 $133 $213 forward $207 $-1 #
edge $-1 $340 3.7082389452494798e-016 $340 6.2831853071796004 $212 $341 forward 7 unknown #
face $-1 $342 $343 $47 $-1 $344 forward single #
loop $-1 $-1 $345 $134 #
plane-surface $-1 -2.6034293223472638 95.787452282233261 162.76784709700081 -1 0 0 0 0.71933980857756763 0.69465836192734942 forward_v I I I I #
coedge $-1 $346 $347 $348 $349 reversed $135 $-1 #
coedge $-1 $219 $137 $350 $351 reversed $86 $-1 #
coedge $-1 $137 $218 $346 $352 reversed $86 $-1 #
coedge $-1 $348 $353 $137 $221 forward $343 $-1 #
edge $-1 $354 9.7466365912979498 $355 20.089494261112705 $220 $356 forward 7 unknown #
loop $-1 $-1 $227 $138 #
plane-surface $-1 -11.931746031192134 -14.851299928127233 55.925248564728136 0 0.71933980857756763 0.69465836192734942 1 0 0 forward_v I I I I #
loop $-1 $-1 $357 $88 #
coedge $-1 $225 $225 $226 $358 reversed $139 $-1 #
coedge $-1 $226 $226 $225 $358 forward $141 $-1 #
coedge $-1 $227 $227 $142 $228 forward $222 $-1 #
edge $-1 $359 3.7082389452494798e-016 $359 6.2831853071796004 $227 $360 forward 7 unknown #
loop $-1 $-1 $234 $143 #
plane-surface $-1 -11.931746031192134 -14.851299928127233 55.925248564728136 0 0.71933980857756763 0.69465836192734942 1 0 0 forward_v I I I I #
loop $-1 $-1 $361 $91 #
coedge $-1 $232 $232 $233 $362 reversed $144 $-1 #
coedge $-1 $233 $233 $232 $362 forward $146 $-1 #
coedge $-1 $234 $234 $147 $235 forward $229 $-1 #
edge $-1 $363 3.7082389452494798e-016 $363 6.2831853071796004 $234 $364 forward 7 unknown #
face $-1 $365 $366 $50 $-1 $367 forward single #
loop $-1 $-1 $368 $148 #
plane-surface $-1 34.363249227737683 95.787452282233261 162.76784709700081 -1 0 0 0 0.71933980857756763 0.69465836192734942 forward_v I I I I #
coedge $-1 $369 $370 $371 $372 reversed $149 $-1 #
coedge $-1 $241 $151 $373 $374 reversed $95 $-1 #
coedge $-1 $151 $240 $369 $375 reversed $95 $-1 #
coedge $-1 $371 $376 $151 $243 forward $366 $-1 #
edge $-1 $377 9.7466365912979498 $378 20.089494261112705 $242 $379 forward 7 unknown #
loop $-1 $-1 $249 $152 #
plane-surface $-1 25.034932518892816 -14.851299928127233 55.925248564728136 0 0.71933980857756763 0.69465836192734942 1 0 0 forward_v I I I I #
loop $-1 $-1 $380 $97 #
coedge $-1 $247 $247 $248 $381 reversed $153 $-1 #
coedge $-1 $248 $248 $247 $381 forward $155 $-1 #
coedge $-1 $249 $249 $156 $250 forward $244 $-1 #
edge $-1 $382 3.7082389452494798e-016 $382 6.2831853071796004 $249 $383 forward 7 unknown #
loop $-1 $-1 $256 $157 #
plane-surface $-1 25.034932518892816 -14.851299928127233 55.925248564728136 0 0.71933980857756763 0.69465836192734942 1 0 0 forward_v I I I I #
loop $-1 $-1 $384 $100 #
coedge $-1 $254 $254 $255 $385 reversed $158 $-1 #
coedge $-1 $255 $255 $254 $385 forward $160 $-1 #
coedge $-1 $256 $256 $161 $257 forward $251 $-1 #
edge $-1 $386 3.7082389452494798e-016 $386 6.2831853071796004 $256 $387 forward 7 unknown #
face $-1 $388 $389 $53 $-1 $390 forward single #
loop $-1 $-1 $391 $162 #
plane-surface $-1 71.329927777822618 95.787452282233261 162.76784709700081 -1 0 0 0 0.71933980857756763 0.69465836192734942 forward_v I I I I #
coedge $-1 $392 $393 $394 $395 reversed $163 $-1 #
coedge $-1 $263 $165 $396 $397 reversed $104 $-1 #
coedge $-1 $165 $262 $392 $398 reversed $104 $-1 #
coedge $-1 $394 $399 $165 $265 forward $389 $-1 #
edge $-1 $400 9.7466365912979498 $401 20.089494261112705 $264 $402 forward 7 unknown #
loop $-1 $-1 $271 $166 #
plane-surface $-1 62.001611068977752 -14.851299928127233 55.925248564728136 0 0.71933980857756763 0.69465836192734942 1 0 0 forward_v I I I I #
loop $-1 $-1 $403 $106 #
coedge $-1 $269 $269 $270 $404 reversed $167 $-1 #
coedge $-1 $270 $270 $269 $404 forward $169 $-1 #
coedge $-1 $271 $271 $170 $272 forward $266 $-1 #
edge $-1 $405 3.7082389452494798e-016 $405 6.2831853071796004 $271 $406 forward 7 unknown #
loop $-1 $-1 $278 $171 #
plane-surface $-1 62.001611068977752 -14.851299928127233 55.925248564728136 0 0.71933980857756763 0.69465836192734942 1 0 0 forward_v I I I I #
loop $-1 $-1 $407 $109 #
coedge $-1 $276 $276 $277 $408 reversed $172 $-1 #
coedge $-1 $277 $277 $276 $408 forward $174 $-1 #
coedge $-1 $278 $278 $175 $279 forward $273 $-1 #
edge $-1 $409 3.7082389452494798e-016 $409 6.2831853071796004 $278 $410 forward 7 unknown #
face $-1 $411 $412 $42 $-1 $413 reversed single #
loop $-1 $-1 $414 $176 #
plane-surface $-1 -76.902981658375808 0 0 1 0 0 0 0 -1 forward_v I I I I #
coedge $-1 $415 $291 $416 $417 forward $177 $-1 #
coedge $-1 $418 $179 $415 $419 forward $113 $-1 #
coedge $-1 $179 $418 $420 $421 forward $113 $-1 #
coedge $-1 $294 $293 $179 $287 reversed $295 $-1 #
edge $-1 $422 -38.147089549818681 $423 38.147089549818681 $286 $424 forward 7 unknown #
coedge $-1 $181 $180 $425 $426 forward $71 $-1 #
coedge $-1 $427 $428 $180 $290 reversed $412 $-1 #
edge $-1 $297 -76.902981658375808 $429 76.902981658375808 $289 $430 forward 7 unknown #
coedge $-1 $283 $431 $181 $292 reversed $177 $-1 #
edge $-1 $432 -76.902981658375808 $296 76.902981658375808 $291 $433 forward 7 unknown #
coedge $-1 $286 $182 $431 $434 forward $295 $-1 #
coedge $-1 $182 $286 $427 $435 reversed $295 $-1 #
loop $-1 $-1 $293 $411 #
vertex $-1 $183 $436 #
vertex $-1 $183 $437 #
straight-curve $-1 76.902981658375808 0 11.754151278139265 0 1 0 I I #
face $-1 $438 $439 $43 $-1 $440 forward single #
loop $-1 $-1 $441 $184 #
plane-surface $-1 0 0 -11.754151278139265 0 0 1 1 0 0 forward_v I I I I #
coedge $-1 $442 $443 $307 $444 forward $185 $-1 #
coedge $-1 $445 $187 $441 $446 reversed $117 $-1 #
coedge $-1 $187 $445 $447 $448 reversed $117 $-1 #
coedge $-1 $443 $442 $187 $306 reversed $185 $-1 #
edge $-1 $449 -11.754151278139265 $450 11.754151278139265 $305 $451 forward 7 unknown #
coedge $-1 $189 $188 $302 $444 reversed $74 $-1 #
coedge $-1 $452 $453 $188 $309 forward $300 $-1 #
edge $-1 $454 28.624100963412403 $315 41.727287451113071 $308 $455 forward 7 unknown #
coedge $-1 $456 $457 $189 $311 forward $439 $-1 #
edge $-1 $316 -41.727287451113071 $458 -28.624100963412403 $310 $459 forward 7 unknown #
coedge $-1 $460 $190 $457 $461 reversed $314 $-1 #
coedge $-1 $190 $460 $452 $462 reversed $314 $-1 #
loop $-1 $-1 $460 $438 #
vertex $-1 $462 $463 #
vertex $-1 $191 $464 #
straight-curve $-1 -76.902981658375808 -32.918251293957923 0 0 0 1 I I #
face $-1 $-1 $330 $44 $-1 $465 forward single #
loop $-1 $-1 $466 $192 #
plane-surface $-1 0 38.147089549818681 0 0 -1 0 0 0 -1 forward_v I I I I #
coedge $-1 $467 $468 $469 $470 reversed $193 $-1 #
coedge $-1 $471 $195 $197 $328 forward $121 $-1 #
coedge $-1 $195 $471 $467 $472 forward $121 $-1 #
coedge $-1 $469 $198 $195 $325 forward $330 $-1 #
edge $-1 $332 -33.777528999483401 $473 -15.120895581793668 $324 $474 forward 7 unknown #
coedge $-1 $475 $476 $196 $327 forward $319 $-1 #
edge $-1 $477 -80.34011517288809 $331 -69.629772270361144 $326 $478 forward 7 unknown #
edge $-1 $332 61.405050519772296 $477 76.294179099637375 $197 $479 forward 7 unknown #
coedge $-1 $198 $469 $475 $480 forward $330 $-1 #
loop $-1 $-1 $469 $318 #
vertex $-1 $327 $481 #
vertex $-1 $199 $482 #
straight-curve $-1 -58.226741290121936 47.89372614111663 11.754151278139261 0 -1 0 I I #
coedge $-1 $334 $334 $-1 $483 reversed $202 $-1 #
edge $-1 $484 0 $484 6.2831853071796004 $203 $485 forward 7 unknown #
vertex $-1 $206 $486 #
ellipse-curve $-1 -52.896274599353447 32.975660714911307 6.3989798268757969 0 0.71933980857756763 0.69465836192734942 2.5 0 0 1 I I #
coedge $-1 $338 $338 $-1 $487 reversed $209 $-1 #
edge $-1 $488 0 $488 6.2831853071796004 $210 $489 forward 7 unknown #
vertex $-1 $213 $490 #
ellipse-curve $-1 -44.900574563200699 32.975660714911307 6.3989798268757969 0 0.71933980857756763 0.69465836192734942 2.5 0 0 1 I I #
face $-1 $-1 $491 $47 $-1 $492 reversed single #
loop $-1 $-1 $220 $214 #
plane-surface $-1 0 0 11.754151278139265 0 0 1 1 0 0 forward_v I I I I #
coedge $-1 $493 $494 $495 $496 reversed $215 $-1 #
coedge $-1 $497 $217 $219 $352 forward $135 $-1 #
coedge $-1 $217 $497 $493 $498 forward $135 $-1 #
coedge $-1 $495 $220 $217 $349 forward $343 $-1 #
edge $-1 $355 -15.294189724440937 $499 3.3624436932488031 $348 $500 forward 7 unknown #
coedge $-1 $501 $502 $218 $351 forward $491 $-1 #
edge $-1 $503 -80.34011517288809 $354 -69.629772270361144 $350 $504 forward 7 unknown #
edge $-1 $355 61.405050519772296 $503 76.294179099637375 $219 $505 forward 7 unknown #
coedge $-1 $220 $495 $501 $506 forward $343 $-1 #
vertex $-1 $351 $507 #
vertex $-1 $221 $508 #
straight-curve $-1 -21.260062740037004 47.89372614111663 11.754151278139261 0 -1 0 I I #
coedge $-1 $357 $357 $-1 $509 reversed $224 $-1 #
edge $-1 $510 0 $510 6.2831853071796004 $225 $511 forward 7 unknown #
vertex $-1 $228 $512 #
ellipse-curve $-1 -15.929596049268504 32.975660714911307 6.3989798268757969 0 0.71933980857756763 0.69465836192734942 2.5 0 0 1 I I #
coedge $-1 $361 $361 $-1 $513 reversed $231 $-1 #
edge $-1 $514 0 $514 6.2831853071796004 $232 $515 forward 7 unknown #
vertex $-1 $235 $516 #
ellipse-curve $-1 -7.9338960131157563 32.975660714911307 6.3989798268757969 0 0.71933980857756763 0.69465836192734942 2.5 0 0 1 I I #
face $-1 $-1 $517 $50 $-1 $518 reversed single #
loop $-1 $-1 $242 $236 #
plane-surface $-1 0 0 11.754151278139265 0 0 1 1 0 0 forward_v I I I I #
coedge $-1 $519 $520 $521 $522 reversed $237 $-1 #
coedge $-1 $523 $239 $241 $375 forward $149 $-1 #
coedge $-1 $239 $523 $519 $524 forward $149 $-1 #
coedge $-1 $521 $242 $239 $372 forward $366 $-1 #
edge $-1 $378 3.1891495506015382 $525 21.845782968291275 $371 $526 forward 7 unknown #
coedge $-1 $527 $528 $240 $374 forward $517 $-1 #
edge $-1 $529 -80.34011517288809 $377 -69.629772270361144 $373 $530 forward 7 unknown #
edge $-1 $378 61.405050519772296 $529 76.294179099637375 $241 $531 forward 7 unknown #
coedge $-1 $242 $521 $527 $532 forward $366 $-1 #
vertex $-1 $243 $533 #
vertex $-1 $243 $534 #
straight-curve $-1 15.706615810047946 47.89372614111663 11.754151278139261 0 -1 0 I I #
coedge $-1 $380 $380 $-1 $535 reversed $246 $-1 #
edge $-1 $536 0 $536 6.2831853071796004 $247 $537 forward 7 unknown #
vertex $-1 $250 $538 #
ellipse-curve $-1 21.037082500816439 32.975660714911307 6.3989798268757969 0 0.71933980857756763 0.69465836192734942 2.5 0 0 1 I I #
coedge $-1 $384 $384 $-1 $539 reversed $253 $-1 #
edge $-1 $540 0 $540 6.2831853071796004 $254 $541 forward 7 unknown #
vertex $-1 $257 $542 #
ellipse-curve $-1 29.032782536969194 32.975660714911307 6.3989798268757969 0 0.71933980857756763 0.69465836192734942 2.5 0 0 1 I I #
face $-1 $-1 $543 $53 $-1 $544 reversed single #
loop $-1 $-1 $264 $258 #
plane-surface $-1 0 0 11.754151278139265 0 0 1 1 0 0 forward_v I I I I #
coedge $-1 $545 $546 $547 $548 reversed $259 $-1 #
coedge $-1 $549 $261 $263 $398 forward $163 $-1 #
coedge $-1 $261 $549 $545 $550 forward $163 $-1 #
coedge $-1 $547 $264 $261 $395 forward $389 $-1 #
edge $-1 $401 21.67248882564401 $551 40.329122243333742 $394 $552 forward 7 unknown #
coedge $-1 $553 $554 $262 $397 forward $543 $-1 #
edge $-1 $555 -80.34011517288809 $400 -69.629772270361144 $396 $556 forward 7 unknown #
edge $-1 $401 61.405050519772296 $555 76.294179099637375 $263 $557 forward 7 unknown #
coedge $-1 $264 $547 $553 $558 forward $389 $-1 #
vertex $-1 $265 $559 #
vertex $-1 $265 $560 #
straight-curve $-1 52.673294360132886 47.89372614111663 11.754151278139261 0 -1 0 I I #
coedge $-1 $403 $403 $-1 $561 reversed $268 $-1 #
edge $-1 $562 0 $562 6.2831853071796004 $269 $563 forward 7 unknown #
vertex $-1 $272 $564 #
ellipse-curve $-1 58.003761050901375 32.975660714911307 6.3989798268757969 0 0.71933980857756763 0.69465836192734942 2.5 0 0 1 I I #
coedge $-1 $407 $407 $-1 $565 reversed $275 $-1 #
edge $-1 $566 0 $566 6.2831853071796004 $276 $567 forward 7 unknown #
vertex $-1 $279 $568 #
ellipse-curve $-1 65.999461087054129 32.975660714911307 6.3989798268757969 0 0.71933980857756763 0.69465836192734942 2.5 0 0 1 I I #
face $-1 $-1 $295 $42 $-1 $569 reversed single #
loop $-1 $-1 $427 $280 #
plane-surface $-1 0 38.147089549818681 0 0 -1 0 0 0 -1 forward_v I I I I #
coedge $-1 $570 $425 $428 $571 forward $281 $-1 #
coedge $-1 $431 $283 $284 $419 reversed $177 $-1 #
coedge $-1 $425 $570 $283 $417 reversed $281 $-1 #
edge $-1 $432 -11.754151278139265 $572 11.754151278139265 $416 $573 forward 7 unknown #
coedge $-1 $285 $284 $570 $574 forward $113 $-1 #
edge $-1 $423 -76.902981658375808 $572 76.902981658375808 $415 $575 forward 7 unknown #
coedge $-1 $428 $427 $285 $421 reversed $412 $-1 #
edge $-1 $576 -76.902981658375808 $422 76.902981658375808 $420 $577 forward 7 unknown #
vertex $-1 $287 $578 #
vertex $-1 $434 $579 #
straight-curve $-1 76.902981658375808 0 -11.754151278139265 0 -1 0 I I #
coedge $-1 $414 $416 $288 $426 reversed $281 $-1 #
edge $-1 $429 -38.147089549818681 $432 38.147089549818681 $425 $580 forward 7 unknown #
coedge $-1 $420 $289 $294 $435 forward $412 $-1 #
coedge $-1 $289 $420 $414 $571 reversed $412 $-1 #
vertex $-1 $290 $581 #
straight-curve $-1 0 38.147089549818681 11.754151278139265 -1 0 0 I I #
coedge $-1 $291 $415 $293 $434 reversed $177 $-1 #
vertex $-1 $426 $582 #
straight-curve $-1 0 -38.147089549818681 11.754151278139265 1 0 0 I I #
edge $-1 $296 -11.754151278139265 $423 11.754151278139265 $293 $583 forward 7 unknown #
edge $-1 $297 -11.754151278139265 $422 11.754151278139265 $294 $584 forward 7 unknown #
point $-1 76.902981658375808 -38.147089549818681 11.754151278139265 #
point $-1 76.902981658375808 38.147089549818681 11.754151278139265 #
face $-1 $-1 $314 $43 $-1 $585 reversed single #
loop $-1 $-1 $447 $299 #
plane-surface $-1 0 0 11.754151278139265 0 0 1 1 0 0 forward_v I I I I #
coedge $-1 $453 $452 $303 $446 forward $300 $-1 #
coedge $-1 $305 $302 $453 $586 reversed $185 $-1 #
coedge $-1 $302 $305 $456 $587 reversed $185 $-1 #
edge $-1 $458 -11.754151278139265 $454 11.754151278139265 $302 $588 forward 7 unknown #
coedge $-1 $304 $303 $460 $589 reversed $117 $-1 #
edge $-1 $590 -41.727287451113071 $450 -28.624100963412403 $441 $591 forward 7 unknown #
coedge $-1 $457 $456 $304 $448 forward $439 $-1 #
edge $-1 $449 28.624100963412403 $592 41.727287451113071 $447 $593 forward 7 unknown #
vertex $-1 $448 $594 #
vertex $-1 $446 $595 #
straight-curve $-1 -63.799795170675139 -29.013306075183902 0 0 0 -1 I I #
coedge $-1 $441 $308 $313 $462 forward $300 $-1 #
coedge $-1 $308 $441 $442 $586 forward $300 $-1 #
vertex $-1 $309 $596 #
straight-curve $-1 -35.175694207262737 -32.918251293957923 -11.754151278139265 -1 0 0 I I #
coedge $-1 $447 $310 $443 $587 forward $439 $-1 #
coedge $-1 $310 $447 $312 $461 forward $439 $-1 #
vertex $-1 $311 $597 #
straight-curve $-1 -35.175694207262737 -32.918251293957923 11.754151278139265 1 0 0 I I #
coedge $-1 $313 $312 $445 $589 forward $314 $-1 #
edge $-1 $592 29.013306075183902 $316 32.918251293957923 $312 $598 forward 7 unknown #
edge $-1 $315 -32.918251293957923 $590 -29.013306075183902 $313 $599 forward 7 unknown #
point $-1 -76.902981658375808 -32.918251293957923 -11.754151278139265 #
point $-1 -76.902981658375808 -32.918251293957923 11.754151278139265 #
plane-surface $-1 0 0 11.754151278139265 0 0 1 1 0 0 forward_v I I I I #
coedge $-1 $476 $475 $468 $600 forward $319 $-1 #
coedge $-1 $468 $321 $323 $472 reversed $193 $-1 #
coedge $-1 $321 $467 $466 $600 reversed $193 $-1 #
coedge $-1 $329 $324 $321 $470 forward $330 $-1 #
edge $-1 $473 -20.089494261112705 $601 -9.7466365912979498 $469 $602 forward 7 unknown #
coedge $-1 $323 $322 $476 $603 reversed $121 $-1 #
edge $-1 $604 -76.294179099637375 $473 -61.405050519772296 $467 $605 forward 7 unknown #
vertex $-1 $325 $606 #
straight-curve $-1 -24.449212290638535 27.804231880003925 11.754151278139268 1 0 0 I I #
coedge $-1 $466 $326 $329 $480 reversed $319 $-1 #
coedge $-1 $326 $466 $471 $603 forward $319 $-1 #
vertex $-1 $327 $607 #
straight-curve $-1 -58.226741290121936 38.147089549818681 81.383923548500405 0 0 1 I I #
straight-curve $-1 -58.226741290121936 -14.851299928127233 55.925248564728136 0 0.69465836192734942 -0.71933980857756763 I I #
edge $-1 $601 39.570107872432203 $331 58.226741290121936 $475 $608 forward 7 unknown #
point $-1 -58.226741290121936 38.147089549818681 11.754151278139265 #
point $-1 -58.226741290121936 27.804231880003925 11.754151278139261 #
edge $-1 $609 1 $609 0 $334 $-1 forward 7 unknown #
vertex $-1 $335 $610 #
ellipse-curve $-1 -52.896274599353447 26.119134157277454 -0.22229074684041128 0 0.71933980857756763 0.69465836192734942 2.5 0 0 1 I I #
point $-1 -50.396274599353447 32.975660714911321 6.3989798268758094 #
edge $-1 $611 1 $611 0 $338 $-1 forward 7 unknown #
vertex $-1 $339 $612 #
ellipse-curve $-1 -44.900574563200699 26.119134157277454 -0.22229074684041128 0 0.71933980857756763 0.69465836192734942 2.5 0 0 1 I I #
point $-1 -42.400574563200699 32.975660714911321 6.3989798268758094 #
loop $-1 $-1 $350 $342 #
plane-surface $-1 0 38.147089549818681 0 0 -1 0 0 0 -1 forward_v I I I I #
coedge $-1 $494 $345 $347 $498 reversed $215 $-1 #
coedge $-1 $345 $493 $613 $614 reversed $215 $-1 #
coedge $-1 $353 $348 $345 $496 forward $343 $-1 #
edge $-1 $499 -20.089494261112705 $615 -9.7466365912979498 $495 $616 forward 7 unknown #
coedge $-1 $347 $346 $502 $617 reversed $135 $-1 #
edge $-1 $618 -76.294179099637375 $499 -61.405050519772296 $493 $619 forward 7 unknown #
vertex $-1 $349 $620 #
straight-curve $-1 -5.9658730155960669 27.804231880003925 11.754151278139268 1 0 0 I I #
coedge $-1 $613 $350 $353 $506 reversed $491 $-1 #
coedge $-1 $350 $613 $497 $617 forward $491 $-1 #
vertex $-1 $351 $621 #
straight-curve $-1 -21.260062740037004 38.147089549818681 81.383923548500405 0 0 1 I I #
straight-curve $-1 -21.260062740037004 -14.851299928127233 55.925248564728136 0 0.69465836192734942 -0.71933980857756763 I I #
edge $-1 $615 2.6034293223472638 $354 21.260062740037004 $501 $622 forward 7 unknown #
point $-1 -21.260062740037004 38.147089549818681 11.754151278139265 #
point $-1 -21.260062740037004 27.804231880003925 11.754151278139261 #
edge $-1 $623 1 $623 0 $357 $-1 forward 7 unknown #
vertex $-1 $358 $624 #
ellipse-curve $-1 -15.929596049268504 26.119134157277454 -0.22229074684041128 0 0.71933980857756763 0.69465836192734942 2.5 0 0 1 I I #
point $-1 -13.429596049268504 32.975660714911321 6.3989798268758094 #
edge $-1 $625 1 $625 0 $361 $-1 forward 7 unknown #
vertex $-1 $362 $626 #
ellipse-curve $-1 -7.9338960131157563 26.119134157277454 -0.22229074684041128 0 0.71933980857756763 0.69465836192734942 2.5 0 0 1 I I #
point $-1 -5.4338960131157563 32.975660714911321 6.3989798268758094 #
loop $-1 $-1 $373 $365 #
plane-surface $-1 0 38.147089549818681 0 0 -1 0 0 0 -1 forward_v I I I I #
coedge $-1 $520 $368 $370 $524 reversed $237 $-1 #
coedge $-1 $368 $519 $627 $628 reversed $237 $-1 #
coedge $-1 $376 $371 $368 $522 forward $366 $-1 #
edge $-1 $525 -20.089494261112705 $629 -9.7466365912979498 $521 $630 forward 7 unknown #
coedge $-1 $370 $369 $528 $631 reversed $149 $-1 #
edge $-1 $632 -76.294179099637375 $525 -61.405050519772296 $519 $633 forward 7 unknown #
vertex $-1 $372 $634 #
straight-curve $-1 12.517466259446408 27.804231880003925 11.754151278139268 1 0 0 I I #
coedge $-1 $627 $373 $376 $532 reversed $517 $-1 #
coedge $-1 $373 $627 $523 $631 forward $517 $-1 #
vertex $-1 $374 $635 #
straight-curve $-1 15.706615810047946 38.147089549818681 81.383923548500405 0 0 1 I I #
straight-curve $-1 15.706615810047946 -14.851299928127233 55.925248564728136 0 0.69465836192734942 -0.71933980857756763 I I #
edge $-1 $629 -34.363249227737683 $377 -15.706615810047946 $527 $636 forward 7 unknown #
point $-1 15.706615810047946 38.147089549818681 11.754151278139265 #
point $-1 15.706615810047946 27.804231880003925 11.754151278139261 #
edge $-1 $637 1 $637 0 $380 $-1 forward 7 unknown #
vertex $-1 $381 $638 #
ellipse-curve $-1 21.037082500816439 26.119134157277454 -0.22229074684041128 0 0.71933980857756763 0.69465836192734942 2.5 0 0 1 I I #
point $-1 23.537082500816439 32.975660714911321 6.3989798268758094 #
edge $-1 $639 1 $639 0 $384 $-1 forward 7 unknown #
vertex $-1 $385 $640 #
ellipse-curve $-1 29.032782536969194 26.119134157277454 -0.22229074684041128 0 0.71933980857756763 0.69465836192734942 2.5 0 0 1 I I #
point $-1 31.532782536969194 32.975660714911321 6.3989798268758094 #
loop $-1 $-1 $396 $388 #
plane-surface $-1 0 38.147089549818681 0 0 -1 0 0 0 -1 forward_v I I I I #
coedge $-1 $546 $391 $393 $550 reversed $259 $-1 #
coedge $-1 $391 $545 $641 $642 reversed $259 $-1 #
coedge $-1 $399 $394 $391 $548 forward $389 $-1 #
edge $-1 $551 -20.089494261112705 $643 -9.7466365912979498 $547 $644 forward 7 unknown #
coedge $-1 $393 $392 $554 $645 reversed $163 $-1 #
edge $-1 $646 -76.294179099637375 $551 -61.405050519772296 $545 $647 forward 7 unknown #
vertex $-1 $395 $648 #
straight-curve $-1 31.000805534488876 27.804231880003925 11.754151278139268 1 0 0 I I #
coedge $-1 $641 $396 $399 $558 reversed $543 $-1 #
coedge $-1 $396 $641 $549 $645 forward $543 $-1 #
vertex $-1 $397 $649 #
straight-curve $-1 52.673294360132886 38.147089549818681 81.383923548500405 0 0 1 I I #
straight-curve $-1 52.673294360132886 -14.851299928127233 55.925248564728136 0 0.69465836192734942 -0.71933980857756763 I I #
edge $-1 $643 -71.329927777822618 $400 -52.673294360132886 $553 $650 forward 7 unknown #
point $-1 52.673294360132886 38.147089549818681 11.754151278139265 #
point $-1 52.673294360132886 27.804231880003925 11.754151278139261 #
edge $-1 $651 1 $651 0 $403 $-1 forward 7 unknown #
vertex $-1 $404 $652 #
ellipse-curve $-1 58.003761050901375 26.119134157277454 -0.22229074684041128 0 0.71933980857756763 0.69465836192734942 2.5 0 0 1 I I #
point $-1 60.503761050901375 32.975660714911321 6.3989798268758094 #
edge $-1 $653 1 $653 0 $407 $-1 forward 7 unknown #
vertex $-1 $408 $654 #
ellipse-curve $-1 65.999461087054129 26.119134157277454 -0.22229074684041128 0 0.71933980857756763 0.69465836192734942 2.5 0 0 1 I I #
point $-1 68.499461087054129 32.975660714911321 6.3989798268758094 #
plane-surface $-1 76.902981658375808 0 0 -1 0 0 0 0 1 forward_v I I I I #
coedge $-1 $416 $414 $418 $574 reversed $281 $-1 #
edge $-1 $429 -11.754151278139265 $576 11.754151278139265 $428 $655 forward 7 unknown #
vertex $-1 $574 $656 #
straight-curve $-1 -76.902981658375808 -38.147089549818681 0 0 0 -1 I I #
edge $-1 $572 -38.147089549818681 $576 38.147089549818681 $570 $657 forward 7 unknown #
straight-curve $-1 0 -38.147089549818681 -11.754151278139265 -1 0 0 I I #
vertex $-1 $421 $658 #
straight-curve $-1 0 38.147089549818681 -11.754151278139265 1 0 0 I I #
point $-1 76.902981658375808 38.147089549818681 -11.754151278139265 #
point $-1 76.902981658375808 -38.147089549818681 -11.754151278139265 #
straight-curve $-1 -76.902981658375808 0 11.754151278139265 0 -1 0 I I #
point $-1 -76.902981658375808 38.147089549818681 11.754151278139265 #
point $-1 -76.902981658375808 -38.147089549818681 11.754151278139265 #
straight-curve $-1 76.902981658375808 -38.147089549818681 0 0 0 -1 I I #
straight-curve $-1 76.902981658375808 38.147089549818681 0 0 0 -1 I I #
plane-surface $-1 -76.902981658375808 0 0 1 0 0 0 0 -1 forward_v I I I I #
edge $-1 $450 13.530416732898445 $454 17.435361951672466 $453 $659 forward 7 unknown #
edge $-1 $458 -17.435361951672466 $449 -13.530416732898445 $456 $660 forward 7 unknown #
straight-curve $-1 -63.799795170675139 -32.918251293957923 0 0 0 -1 I I #
edge $-1 $592 -11.754151278139265 $590 11.754151278139265 $460 $661 forward 7 unknown #
vertex $-1 $589 $662 #
straight-curve $-1 -35.175694207262737 -29.013306075183902 -11.754151278139265 1 0 0 I I #
vertex $-1 $461 $663 #
straight-curve $-1 -35.175694207262737 -29.013306075183902 11.754151278139265 -1 0 0 I I #
point $-1 -63.799795170675139 -29.013306075183902 11.754151278139265 #
point $-1 -63.799795170675139 -29.013306075183902 -11.754151278139265 #
point $-1 -63.799795170675139 -32.918251293957923 -11.754151278139265 #
point $-1 -63.799795170675139 -32.918251293957923 11.754151278139265 #
straight-curve $-1 -76.902981658375808 0 11.754151278139265 0 -1 0 I I #
straight-curve $-1 -76.902981658375808 0 -11.754151278139265 0 1 0 I I #
edge $-1 $601 69.629772270361144 $604 80.34011517288809 $466 $664 forward 7 unknown #
vertex $-1 $480 $665 #
straight-curve $-1 -39.570107872432203 47.89372614111663 11.754151278139261 0 1 0 I I #
edge $-1 $604 15.120895581793668 $477 33.777528999483401 $476 $666 forward 7 unknown #
vertex $-1 $603 $667 #
straight-curve $-1 -39.570107872432203 -14.851299928127233 55.925248564728136 0 -0.69465836192734942 0.71933980857756763 I I #
point $-1 -39.570107872432203 27.804231880003925 11.754151278139261 #
point $-1 -58.226741290121936 38.147089549818688 1.043808375612322 #
straight-curve $-1 0 38.147089549818681 11.754151278139265 -1 0 0 I I #
vertex $-1 $483 $668 #
point $-1 -50.396274599353447 26.119134157277454 -0.22229074684041128 #
vertex $-1 $487 $669 #
point $-1 -42.400574563200699 26.119134157277454 -0.22229074684041128 #
coedge $-1 $502 $501 $494 $614 forward $491 $-1 #
edge $-1 $615 69.629772270361144 $618 80.34011517288809 $613 $670 forward 7 unknown #
vertex $-1 $506 $671 #
straight-curve $-1 -2.6034293223472638 47.89372614111663 11.754151278139261 0 1 0 I I #
edge $-1 $618 -3.3624436932488031 $503 15.294189724440937 $502 $672 forward 7 unknown #
vertex $-1 $617 $673 #
straight-curve $-1 -2.6034293223472638 -14.851299928127233 55.925248564728136 0 -0.69465836192734942 0.71933980857756763 I I #
point $-1 -2.6034293223472638 27.804231880003925 11.754151278139261 #
point $-1 -21.260062740037004 38.147089549818688 1.043808375612322 #
straight-curve $-1 0 38.147089549818681 11.754151278139265 -1 0 0 I I #
vertex $-1 $509 $674 #
point $-1 -13.429596049268504 26.119134157277454 -0.22229074684041128 #
vertex $-1 $513 $675 #
point $-1 -5.4338960131157563 26.119134157277454 -0.22229074684041128 #
coedge $-1 $528 $527 $520 $628 forward $517 $-1 #
edge $-1 $629 69.629772270361144 $632 80.34011517288809 $627 $676 forward 7 unknown #
vertex $-1 $532 $677 #
straight-curve $-1 34.363249227737683 47.89372614111663 11.754151278139261 0 1 0 I I #
edge $-1 $632 -21.845782968291275 $529 -3.1891495506015382 $528 $678 forward 7 unknown #
vertex $-1 $631 $679 #
straight-curve $-1 34.363249227737683 -14.851299928127233 55.925248564728136 0 -0.69465836192734942 0.71933980857756763 I I #
point $-1 34.363249227737683 27.804231880003925 11.754151278139261 #
point $-1 15.706615810047946 38.147089549818688 1.043808375612322 #
straight-curve $-1 0 38.147089549818681 11.754151278139265 -1 0 0 I I #
vertex $-1 $535 $680 #
point $-1 23.537082500816439 26.119134157277454 -0.22229074684041128 #
vertex $-1 $539 $681 #
point $-1 31.532782536969194 26.119134157277454 -0.22229074684041128 #
coedge $-1 $554 $553 $546 $642 forward $543 $-1 #
edge $-1 $643 69.629772270361144 $646 80.34011517288809 $641 $682 forward 7 unknown #
vertex $-1 $558 $683 #
straight-curve $-1 71.329927777822618 47.89372614111663 11.754151278139261 0 1 0 I I #
edge $-1 $646 -40.329122243333742 $555 -21.67248882564401 $554 $684 forward 7 unknown #
vertex $-1 $645 $685 #
straight-curve $-1 71.329927777822618 -14.851299928127233 55.925248564728136 0 -0.69465836192734942 0.71933980857756763 I I #
point $-1 71.329927777822618 27.804231880003925 11.754151278139261 #
point $-1 52.673294360132886 38.147089549818688 1.043808375612322 #
straight-curve $-1 0 38.147089549818681 11.754151278139265 -1 0 0 I I #
vertex $-1 $561 $686 #
point $-1 60.503761050901375 26.119134157277454 -0.22229074684041128 #
vertex $-1 $565 $687 #
point $-1 68.499461087054129 26.119134157277454 -0.22229074684041128 #
straight-curve $-1 -76.902981658375808 38.147089549818681 0 0 0 -1 I I #
point $-1 -76.902981658375808 -38.147089549818681 -11.754151278139265 #
straight-curve $-1 -76.902981658375808 0 -11.754151278139265 0 1 0 I I #
point $-1 -76.902981658375808 38.147089549818681 -11.754151278139265 #
straight-curve $-1 -63.799795170675139 -15.482889342285457 -11.754151278139265 0 -1 0 I I #
straight-curve $-1 -63.799795170675139 -15.482889342285457 11.754151278139265 0 1 0 I I #
straight-curve $-1 -76.902981658375808 -29.013306075183902 0 0 0 -1 I I #
point $-1 -76.902981658375808 -29.013306075183902 -11.754151278139265 #
point $-1 -76.902981658375808 -29.013306075183902 11.754151278139265 #
straight-curve $-1 -39.570107872432203 38.147089549818681 81.383923548500405 0 0 -1 I I #
point $-1 -39.570107872432203 38.147089549818681 11.754151278139265 #
straight-curve $-1 -24.449212290638535 38.147089549818688 1.0438083756123255 -1 0 0 I I #
point $-1 -39.570107872432203 38.147089549818688 1.043808375612322 #
point $-1 -52.896274599353447 24.320784635833537 -1.9589366516587847 #
point $-1 -44.900574563200699 24.320784635833537 -1.9589366516587847 #
straight-curve $-1 -2.6034293223472638 38.147089549818681 81.383923548500405 0 0 -1 I I #
point $-1 -2.6034293223472638 38.147089549818681 11.754151278139265 #
straight-curve $-1 -5.9658730155960669 38.147089549818688 1.0438083756123255 -1 0 0 I I #
point $-1 -2.6034293223472638 38.147089549818688 1.043808375612322 #
point $-1 -15.929596049268504 24.320784635833537 -1.9589366516587847 #
point $-1 -7.9338960131157563 24.320784635833537 -1.9589366516587847 #
straight-curve $-1 34.363249227737683 38.147089549818681 81.383923548500405 0 0 -1 I I #
point $-1 34.363249227737683 38.147089549818681 11.754151278139265 #
straight-curve $-1 12.517466259446408 38.147089549818688 1.0438083756123255 -1 0 0 I I #
point $-1 34.363249227737683 38.147089549818688 1.043808375612322 #
point $-1 21.037082500816439 24.320784635833537 -1.9589366516587847 #
point $-1 29.032782536969194 24.320784635833537 -1.9589366516587847 #
straight-curve $-1 71.329927777822618 38.147089549818681 81.383923548500405 0 0 -1 I I #
point $-1 71.329927777822618 38.147089549818681 11.754151278139265 #
straight-curve $-1 31.000805534488876 38.147089549818688 1.0438083756123255 -1 0 0 I I #
point $-1 71.329927777822618 38.147089549818688 1.043808375612322 #
point $-1 58.003761050901375 24.320784635833537 -1.9589366516587847 #
point $-1 65.999461087054129 24.320784635833537 -1.9589366516587847 #
End-of-ACIS-data 