500 0 13 0           
7 Unknown 11 ACIS 5.0 NT 24 Thu Mar 25 15:47:28 1999 
-1 9.9999999999999995e-007 1e-010 
body $-1 $13 $-1 $14 #
body $-1 $15 $-1 $16 #
body $-1 $17 $-1 $18 #
body $-1 $19 $-1 $20 #
body $-1 $21 $-1 $22 #
body $-1 $23 $-1 $24 #
body $-1 $25 $-1 $26 #
body $-1 $27 $-1 $28 #
body $-1 $29 $-1 $30 #
body $-1 $31 $-1 $32 #
body $-1 $33 $-1 $34 #
body $-1 $35 $-1 $36 #
body $-1 $37 $-1 $38 #
lump $-1 $-1 $39 $0 #
transform $-1 1 0 0 0 1 0 0 0 1 56.707052827539904 33.183325999667296 14.793097767270121 1 rotate no_reflect no_shear #
lump $-1 $-1 $40 $1 #
transform $-1 1 0 0 0 1 0 0 0 1 56.707052827539904 33.183325999667296 14.793097767270121 1 rotate no_reflect no_shear #
lump $-1 $-1 $41 $2 #
transform $-1 1 0 0 0 1 0 0 0 1 56.707052827539904 33.183325999667296 14.793097767270121 1 rotate no_reflect no_shear #
lump $-1 $-1 $42 $3 #
transform $-1 1 0 0 0 1 0 0 0 1 56.707052827539904 33.183325999667296 14.793097767270121 1 rotate no_reflect no_shear #
lump $-1 $-1 $43 $4 #
transform $-1 1 0 0 0 1 0 0 0 1 56.707052827539904 33.183325999667296 14.793097767270121 1 rotate no_reflect no_shear #
lump $-1 $-1 $44 $5 #
transform $-1 1 0 0 0 1 0 0 0 1 56.707052827539904 33.183325999667296 14.793097767270121 1 rotate no_reflect no_shear #
lump $-1 $-1 $45 $6 #
transform $-1 1 0 0 0 1 0 0 0 1 56.707052827539904 33.183325999667296 14.793097767270121 1 rotate no_reflect no_shear #
lump $-1 $-1 $46 $7 #
transform $-1 1 0 0 0 1 0 0 0 1 56.707052827539904 33.183325999667296 14.793097767270121 1 rotate no_reflect no_shear #
lump $-1 $-1 $47 $8 #
transform $-1 1 0 0 0 1 0 0 0 1 56.707052827539904 33.183325999667296 14.793097767270121 1 rotate no_reflect no_shear #
lump $-1 $-1 $48 $9 #
transform $-1 1 0 0 0 1 0 0 0 1 56.707052827539904 33.183325999667296 14.793097767270121 1 rotate no_reflect no_shear #
lump $-1 $-1 $49 $10 #
transform $-1 1 0 0 0 1 0 0 0 1 56.707052827539904 33.183325999667296 14.793097767270121 1 rotate no_reflect no_shear #
lump $-1 $-1 $50 $11 #
transform $-1 1 0 0 0 1 0 0 0 1 56.707052827539904 33.183325999667296 14.793097767270121 1 rotate no_reflect no_shear #
lump $-1 $-1 $51 $12 #
transform $-1 1 0 0 0 1 0 0 0 1 56.707052827539904 33.183325999667296 14.793097767270121 1 rotate no_reflect no_shear #
shell $-1 $-1 $-1 $52 $-1 $13 #
shell $-1 $-1 $-1 $53 $-1 $15 #
shell $-1 $-1 $-1 $54 $-1 $17 #
shell $-1 $-1 $-1 $55 $-1 $19 #
shell $-1 $-1 $-1 $56 $-1 $21 #
shell $-1 $-1 $-1 $57 $-1 $23 #
shell $-1 $-1 $-1 $58 $-1 $25 #
shell $-1 $-1 $-1 $59 $-1 $27 #
shell $-1 $-1 $-1 $60 $-1 $29 #
shell $-1 $-1 $-1 $61 $-1 $31 #
shell $-1 $-1 $-1 $62 $-1 $33 #
shell $-1 $-1 $-1 $63 $-1 $35 #
shell $-1 $-1 $-1 $64 $-1 $37 #
face $-1 $65 $66 $39 $-1 $67 forward single #
face $-1 $68 $69 $40 $-1 $70 forward single #
face $-1 $71 $72 $41 $-1 $73 reversed single #
face $-1 $74 $75 $42 $-1 $76 forward single #
face $-1 $77 $78 $43 $-1 $79 forward single #
face $-1 $80 $81 $44 $-1 $82 reversed single #
face $-1 $83 $84 $45 $-1 $85 forward single #
face $-1 $86 $87 $46 $-1 $88 forward single #
face $-1 $89 $90 $47 $-1 $91 forward single #
face $-1 $92 $93 $48 $-1 $94 reversed single #
face $-1 $95 $96 $49 $-1 $97 forward single #
face $-1 $98 $99 $50 $-1 $100 forward single #
face $-1 $101 $102 $51 $-1 $103 forward single #
face $-1 $104 $105 $39 $-1 $106 reversed single #
loop $-1 $-1 $107 $52 #
plane-surface $-1 0 0 14.793097767270121 0 0 1 1 0 0 forward_v I I I I #
face $-1 $108 $109 $40 $-1 $110 reversed single #
loop $-1 $-1 $111 $53 #
plane-surface $-1 0 -33.183325999667296 0 0 1 0 0 0 1 forward_v I I I I #
face $-1 $112 $113 $41 $-1 $114 reversed single #
loop $-1 $-1 $115 $54 #
plane-surface $-1 -149.61045024859709 26.200008590432116 75.14707007135658 0 1 0 -0.81915205242281985 0 0.57357642473473569 forward_v I I I I #
face $-1 $116 $117 $42 $-1 $118 forward single #
loop $-1 $119 $120 $55 #
cone-surface $-1 -54.652799650193209 28.195242135927884 12.157467088881862 0.81915205242281985 0 -0.57357642473473569 0.28678821236736785 0 0.40957602621140993 1 I I 0 1 0.5 forward I I I I #
face $-1 $121 $122 $43 $-1 $123 forward single #
loop $-1 $124 $125 $56 #
cone-surface $-1 -54.652799650193209 31.188092454171532 12.157467088881862 0.81915205242281985 0 -0.57357642473473569 0.28678821236736785 0 0.40957602621140993 1 I I 0 1 0.5 forward I I I I #
face $-1 $126 $127 $44 $-1 $128 reversed single #
loop $-1 $-1 $129 $57 #
plane-surface $-1 20.626757161300254 6.2163109662765557 161.64788070419115 0 -1 0 -0.52991927123019833 0 -0.84804809178421925 forward_v I I I I #
face $-1 $130 $131 $45 $-1 $132 forward single #
loop $-1 $133 $134 $58 #
cone-surface $-1 48.899594140414116 0.0920405117092713 9.6559971407540921 -0.52991927123019833 0 -0.84804809178421925 0.42402404589210962 0 -0.26495963561509916 1 I I 0 1 0.5 forward I I I I #
face $-1 $135 $136 $46 $-1 $137 forward single #
loop $-1 $138 $139 $59 #
cone-surface $-1 48.899594140414116 2.3886419321720069 9.6559971407540921 -0.52991927123019833 0 -0.84804809178421925 0.42402404589210962 0 -0.26495963561509916 1 I I 0 1 0.5 forward I I I I #
face $-1 $140 $141 $47 $-1 $142 forward single #
loop $-1 $143 $144 $60 #
cone-surface $-1 48.899594140414116 4.6852433526347426 9.6559971407540921 -0.52991927123019833 0 -0.84804809178421925 0.42402404589210962 0 -0.26495963561509916 1 I I 0 1 0.5 forward I I I I #
face $-1 $145 $146 $48 $-1 $147 reversed single #
loop $-1 $-1 $148 $61 #
plane-surface $-1 20.626757161300254 25.527987931458181 161.64788070419115 0 1 0 0.52991927123019833 0 0.84804809178421925 forward_v I I I I #
face $-1 $149 $150 $49 $-1 $151 forward single #
loop $-1 $152 $153 $62 #
cone-surface $-1 48.899594140414116 27.059055545100001 9.6559971407540921 -0.52991927123019833 0 -0.84804809178421925 0.42402404589210962 0 -0.26495963561509916 1 I I 0 1 0.5 forward I I I I #
face $-1 $154 $155 $50 $-1 $156 forward single #
loop $-1 $157 $158 $63 #
cone-surface $-1 48.899594140414116 29.355656965562737 9.6559971407540921 -0.52991927123019833 0 -0.84804809178421925 0.42402404589210962 0 -0.26495963561509916 1 I I 0 1 0.5 forward I I I I #
face $-1 $159 $160 $51 $-1 $161 forward single #
loop $-1 $162 $163 $64 #
cone-surface $-1 48.899594140414116 31.652258386025473 9.6559971407540921 -0.52991927123019833 0 -0.84804809178421925 0.42402404589210962 0 -0.26495963561509916 1 I I 0 1 0.5 forward I I I I #
face $-1 $164 $165 $39 $-1 $166 reversed single #
loop $-1 $-1 $167 $65 #
plane-surface $-1 0 0 -14.793097767270121 0 0 1 1 0 0 forward_v I I I I #
coedge $-1 $168 $169 $170 $171 forward $66 $-1 #
face $-1 $172 $173 $40 $-1 $174 forward single #
loop $-1 $-1 $175 $68 #
plane-surface $-1 -56.707052827539904 0 0 1 0 0 0 0 -1 forward_v I I I I #
coedge $-1 $176 $177 $178 $179 forward $69 $-1 #
face $-1 $180 $181 $41 $-1 $182 forward single #
loop $-1 $-1 $183 $71 #
plane-surface $-1 -56.707052827539925 29.691667295049704 10.095412835228331 -0.81915205242281985 0 0.57357642473473569 0.57357642473473569 0 0.81915205242281985 forward_v I I I I #
coedge $-1 $184 $185 $186 $187 reversed $72 $-1 #
face $-1 $-1 $188 $42 $-1 $189 forward single #
loop $-1 $190 $191 $74 #
cone-surface $-1 -54.038435610876093 28.195242135927884 11.72728477033081 0.81915205242281985 0 -0.57357642473473569 0.14339410618368392 0 0.20478801310570496 1 I I -0.70710678118654746 0.70710678118654746 0.25 forward I I I I #
loop $-1 $-1 $192 $55 #
coedge $-1 $120 $120 $193 $194 reversed $75 $-1 #
face $-1 $-1 $195 $43 $-1 $196 forward single #
loop $-1 $197 $198 $77 #
cone-surface $-1 -54.038435610876093 31.188092454171532 11.72728477033081 0.81915205242281985 0 -0.57357642473473569 0.14339410618368392 0 0.20478801310570496 1 I I -0.70710678118654746 0.70710678118654746 0.25 forward I I I I #
loop $-1 $-1 $199 $56 #
coedge $-1 $125 $125 $200 $201 reversed $78 $-1 #
face $-1 $202 $203 $44 $-1 $204 reversed single #
loop $-1 $-1 $205 $80 #
plane-surface $-1 -39.473563054664346 2.3886419321719998 65.467264821986902 0.52991927123019833 0 0.84804809178421925 0.84804809178421925 0 -0.52991927123019833 forward_v I I I I #
coedge $-1 $206 $207 $208 $209 reversed $81 $-1 #
face $-1 $-1 $210 $45 $-1 $211 forward single #
loop $-1 $212 $213 $83 #
cone-surface $-1 48.502154686991467 0.0920405117092713 9.0199610719159278 -0.52991927123019833 0 -0.84804809178421925 0.21201202294605481 0 -0.13247981780754958 1 I I -0.70710678118654746 0.70710678118654746 0.25 forward I I I I #
loop $-1 $-1 $214 $58 #
coedge $-1 $134 $134 $215 $216 reversed $84 $-1 #
face $-1 $-1 $217 $46 $-1 $218 forward single #
loop $-1 $219 $220 $86 #
cone-surface $-1 48.502154686991467 2.3886419321720069 9.0199610719159278 -0.52991927123019833 0 -0.84804809178421925 0.21201202294605481 0 -0.13247981780754958 1 I I -0.70710678118654746 0.70710678118654746 0.25 forward I I I I #
loop $-1 $-1 $221 $59 #
coedge $-1 $139 $139 $222 $223 reversed $87 $-1 #
face $-1 $-1 $224 $47 $-1 $225 forward single #
loop $-1 $226 $227 $89 #
cone-surface $-1 48.502154686991467 4.6852433526347426 9.0199610719159278 -0.52991927123019833 0 -0.84804809178421925 0.21201202294605481 0 -0.13247981780754958 1 I I -0.70710678118654746 0.70710678118654746 0.25 forward I I I I #
loop $-1 $-1 $228 $60 #
coedge $-1 $144 $144 $229 $230 reversed $90 $-1 #
face $-1 $231 $232 $48 $-1 $233 reversed single #
loop $-1 $-1 $234 $92 #
plane-surface $-1 -39.473563054664346 29.355656965562737 65.467264821986902 0.52991927123019833 0 0.84804809178421925 0.84804809178421925 0 -0.52991927123019833 forward_v I I I I #
coedge $-1 $235 $236 $237 $238 reversed $93 $-1 #
face $-1 $-1 $239 $49 $-1 $240 forward single #
loop $-1 $241 $242 $95 #
cone-surface $-1 48.502154686991467 27.059055545100001 9.0199610719159278 -0.52991927123019833 0 -0.84804809178421925 0.21201202294605481 0 -0.13247981780754958 1 I I -0.70710678118654746 0.70710678118654746 0.25 forward I I I I #
loop $-1 $-1 $243 $62 #
coedge $-1 $153 $153 $244 $245 reversed $96 $-1 #
face $-1 $-1 $246 $50 $-1 $247 forward single #
loop $-1 $248 $249 $98 #
cone-surface $-1 48.502154686991467 29.355656965562737 9.0199610719159278 -0.52991927123019833 0 -0.84804809178421925 0.21201202294605481 0 -0.13247981780754958 1 I I -0.70710678118654746 0.70710678118654746 0.25 forward I I I I #
loop $-1 $-1 $250 $63 #
coedge $-1 $158 $158 $251 $252 reversed $99 $-1 #
face $-1 $-1 $253 $51 $-1 $254 forward single #
loop $-1 $255 $256 $101 #
cone-surface $-1 48.502154686991467 31.652258386025473 9.0199610719159278 -0.52991927123019833 0 -0.84804809178421925 0.21201202294605481 0 -0.13247981780754958 1 I I -0.70710678118654746 0.70710678118654746 0.25 forward I I I I #
loop $-1 $-1 $257 $64 #
coedge $-1 $163 $163 $258 $259 reversed $102 $-1 #
face $-1 $260 $261 $39 $-1 $262 reversed single #
loop $-1 $-1 $263 $104 #
plane-surface $-1 0 -33.183325999667296 0 0 1 0 0 0 1 forward_v I I I I #
coedge $-1 $264 $265 $266 $267 forward $105 $-1 #
coedge $-1 $268 $107 $269 $270 forward $66 $-1 #
coedge $-1 $107 $268 $271 $272 forward $66 $-1 #
coedge $-1 $273 $274 $107 $171 reversed $275 $-1 #
edge $-1 $276 -33.183325999667296 $277 33.183325999667296 $170 $278 forward 7 unknown #
face $-1 $279 $280 $40 $-1 $281 reversed single #
loop $-1 $-1 $282 $108 #
plane-surface $-1 0 -39.399636965943856 2.3182400099273028 0 0 1 1 0 0 forward_v I I I I #
coedge $-1 $283 $284 $177 $285 forward $109 $-1 #
coedge $-1 $286 $111 $287 $288 reversed $69 $-1 #
coedge $-1 $111 $286 $175 $285 reversed $69 $-1 #
coedge $-1 $289 $282 $111 $179 reversed $173 $-1 #
edge $-1 $290 -56.707052827539904 $291 56.707052827539904 $178 $292 forward 7 unknown #
face $-1 $293 $294 $41 $-1 $295 reversed single #
loop $-1 $-1 $186 $112 #
plane-surface $-1 0 0 14.793097767270121 0 0 1 1 0 0 forward_v I I I I #
coedge $-1 $296 $297 $298 $299 reversed $113 $-1 #
coedge $-1 $185 $115 $300 $301 reversed $72 $-1 #
coedge $-1 $115 $184 $296 $302 reversed $72 $-1 #
coedge $-1 $298 $303 $115 $187 forward $181 $-1 #
edge $-1 $304 18.098172296758641 $305 21.387526599029187 $186 $306 forward 7 unknown #
loop $-1 $-1 $193 $116 #
plane-surface $-1 -56.707052827539925 29.691667295049704 10.095412835228331 -0.81915205242281985 0 0.57357642473473569 0.57357642473473569 0 0.81915205242281985 forward_v I I I I #
loop $-1 $-1 $307 $74 #
coedge $-1 $191 $191 $192 $308 reversed $117 $-1 #
coedge $-1 $192 $192 $191 $308 forward $119 $-1 #
coedge $-1 $193 $193 $120 $194 forward $188 $-1 #
edge $-1 $309 0 $309 6.2831853071796004 $193 $310 forward 7 unknown #
loop $-1 $-1 $200 $121 #
plane-surface $-1 -56.707052827539925 29.691667295049704 10.095412835228331 -0.81915205242281985 0 0.57357642473473569 0.57357642473473569 0 0.81915205242281985 forward_v I I I I #
loop $-1 $-1 $311 $77 #
coedge $-1 $198 $198 $199 $312 reversed $122 $-1 #
coedge $-1 $199 $199 $198 $312 forward $124 $-1 #
coedge $-1 $200 $200 $125 $201 forward $195 $-1 #
edge $-1 $313 0 $313 6.2831853071796004 $200 $314 forward 7 unknown #
face $-1 $315 $316 $44 $-1 $317 reversed single #
loop $-1 $-1 $318 $126 #
plane-surface $-1 20.626757161300254 -1.439027101932556 161.64788070419115 0 1 0 0.52991927123019833 0 0.84804809178421925 forward_v I I I I #
coedge $-1 $319 $320 $321 $322 reversed $127 $-1 #
coedge $-1 $207 $129 $323 $324 reversed $81 $-1 #
coedge $-1 $129 $206 $319 $325 reversed $81 $-1 #
coedge $-1 $321 $326 $129 $209 forward $327 $-1 #
edge $-1 $328 -46.393674246889773 $329 -31.308676143868428 $208 $330 forward 7 unknown #
loop $-1 $-1 $215 $130 #
plane-surface $-1 -39.473563054664346 2.3886419321719998 65.467264821986902 0.52991927123019833 0 0.84804809178421925 0.84804809178421925 0 -0.52991927123019833 forward_v I I I I #
loop $-1 $-1 $331 $83 #
coedge $-1 $213 $213 $214 $332 reversed $131 $-1 #
coedge $-1 $214 $214 $213 $332 forward $133 $-1 #
coedge $-1 $215 $215 $134 $216 forward $210 $-1 #
edge $-1 $333 0 $333 6.2831853071796004 $215 $334 forward 7 unknown #
loop $-1 $-1 $222 $135 #
plane-surface $-1 -39.473563054664346 2.3886419321719998 65.467264821986902 0.52991927123019833 0 0.84804809178421925 0.84804809178421925 0 -0.52991927123019833 forward_v I I I I #
loop $-1 $-1 $335 $86 #
coedge $-1 $220 $220 $221 $336 reversed $136 $-1 #
coedge $-1 $221 $221 $220 $336 forward $138 $-1 #
coedge $-1 $222 $222 $139 $223 forward $217 $-1 #
edge $-1 $337 0 $337 6.2831853071796004 $222 $338 forward 7 unknown #
loop $-1 $-1 $229 $140 #
plane-surface $-1 -39.473563054664346 2.3886419321719998 65.467264821986902 0.52991927123019833 0 0.84804809178421925 0.84804809178421925 0 -0.52991927123019833 forward_v I I I I #
loop $-1 $-1 $339 $89 #
coedge $-1 $227 $227 $228 $340 reversed $141 $-1 #
coedge $-1 $228 $228 $227 $340 forward $143 $-1 #
coedge $-1 $229 $229 $144 $230 forward $224 $-1 #
edge $-1 $341 0 $341 6.2831853071796004 $229 $342 forward 7 unknown #
face $-1 $343 $344 $48 $-1 $345 forward single #
loop $-1 $-1 $237 $145 #
plane-surface $-1 56.707052827539904 0 0 -1 0 0 0 0 1 forward_v I I I I #
coedge $-1 $346 $347 $348 $349 reversed $146 $-1 #
coedge $-1 $236 $148 $350 $351 reversed $93 $-1 #
coedge $-1 $148 $235 $346 $352 reversed $93 $-1 #
coedge $-1 $348 $353 $148 $238 forward $232 $-1 #
edge $-1 $354 66.03084258482545 $355 75.456995746073275 $237 $356 forward 7 unknown #
loop $-1 $-1 $244 $149 #
plane-surface $-1 -39.473563054664346 29.355656965562737 65.467264821986902 0.52991927123019833 0 0.84804809178421925 0.84804809178421925 0 -0.52991927123019833 forward_v I I I I #
loop $-1 $-1 $357 $95 #
coedge $-1 $242 $242 $243 $358 reversed $150 $-1 #
coedge $-1 $243 $243 $242 $358 forward $152 $-1 #
coedge $-1 $244 $244 $153 $245 forward $239 $-1 #
edge $-1 $359 0 $359 6.2831853071796004 $244 $360 forward 7 unknown #
loop $-1 $-1 $251 $154 #
plane-surface $-1 -39.473563054664346 29.355656965562737 65.467264821986902 0.52991927123019833 0 0.84804809178421925 0.84804809178421925 0 -0.52991927123019833 forward_v I I I I #
loop $-1 $-1 $361 $98 #
coedge $-1 $249 $249 $250 $362 reversed $155 $-1 #
coedge $-1 $250 $250 $249 $362 forward $157 $-1 #
coedge $-1 $251 $251 $158 $252 forward $246 $-1 #
edge $-1 $363 0 $363 6.2831853071796004 $251 $364 forward 7 unknown #
loop $-1 $-1 $258 $159 #
plane-surface $-1 -39.473563054664346 29.355656965562737 65.467264821986902 0.52991927123019833 0 0.84804809178421925 0.84804809178421925 0 -0.52991927123019833 forward_v I I I I #
loop $-1 $-1 $365 $101 #
coedge $-1 $256 $256 $257 $366 reversed $160 $-1 #
coedge $-1 $257 $257 $256 $366 forward $162 $-1 #
coedge $-1 $258 $258 $163 $259 forward $253 $-1 #
edge $-1 $367 0 $367 6.2831853071796004 $258 $368 forward 7 unknown #
face $-1 $369 $370 $39 $-1 $371 reversed single #
loop $-1 $-1 $372 $164 #
plane-surface $-1 -56.707052827539904 0 0 1 0 0 0 0 -1 forward_v I I I I #
coedge $-1 $373 $271 $374 $375 forward $165 $-1 #
coedge $-1 $376 $167 $373 $377 forward $105 $-1 #
coedge $-1 $167 $376 $378 $379 forward $105 $-1 #
coedge $-1 $274 $273 $167 $267 reversed $275 $-1 #
edge $-1 $380 -33.183325999667296 $381 33.183325999667296 $266 $382 forward 7 unknown #
coedge $-1 $169 $168 $383 $384 forward $66 $-1 #
coedge $-1 $385 $386 $168 $270 reversed $370 $-1 #
edge $-1 $277 -56.707052827539904 $387 56.707052827539904 $269 $388 forward 7 unknown #
coedge $-1 $263 $389 $169 $272 reversed $165 $-1 #
edge $-1 $390 -56.707052827539904 $276 56.707052827539904 $271 $391 forward 7 unknown #
coedge $-1 $266 $170 $389 $392 forward $275 $-1 #
coedge $-1 $170 $266 $385 $393 reversed $275 $-1 #
loop $-1 $-1 $273 $369 #
vertex $-1 $171 $394 #
vertex $-1 $171 $395 #
straight-curve $-1 56.707052827539904 0 14.793097767270121 0 1 0 I I #
face $-1 $396 $397 $40 $-1 $398 reversed single #
loop $-1 $-1 $399 $172 #
plane-surface $-1 0 -39.399636965943856 -4.4268924862327363 0 0 1 1 0 0 forward_v I I I I #
coedge $-1 $178 $400 $401 $402 forward $173 $-1 #
coedge $-1 $403 $175 $404 $405 reversed $109 $-1 #
coedge $-1 $175 $403 $289 $406 reversed $109 $-1 #
edge $-1 $290 -2.3182400099273028 $407 4.4268924862327363 $175 $408 forward 7 unknown #
coedge $-1 $177 $176 $409 $410 forward $69 $-1 #
coedge $-1 $401 $411 $176 $288 forward $412 $-1 #
edge $-1 $413 -4.4268924862327363 $291 2.3182400099273028 $287 $414 forward 7 unknown #
coedge $-1 $400 $178 $284 $406 forward $173 $-1 #
vertex $-1 $285 $415 #
vertex $-1 $402 $416 #
straight-curve $-1 0 -33.183325999667296 2.3182400099273028 1 0 0 I I #
face $-1 $-1 $417 $41 $-1 $418 reversed single #
loop $-1 $-1 $419 $180 #
plane-surface $-1 0 33.183325999667296 0 0 -1 0 0 0 -1 forward_v I I I I #
coedge $-1 $420 $183 $185 $302 forward $113 $-1 #
coedge $-1 $183 $420 $419 $421 reversed $113 $-1 #
coedge $-1 $422 $186 $183 $299 forward $181 $-1 #
edge $-1 $305 11.354174942907264 $423 18.337492352142437 $298 $424 forward 7 unknown #
coedge $-1 $425 $426 $184 $301 forward $417 $-1 #
edge $-1 $427 -27.478122200449931 $304 -22.780437268408171 $300 $428 forward 7 unknown #
edge $-1 $305 -5.7348143340999602 $427 -3.6963324824065977e-014 $185 $429 forward 7 unknown #
coedge $-1 $186 $422 $425 $430 forward $181 $-1 #
vertex $-1 $301 $431 #
vertex $-1 $187 $432 #
straight-curve $-1 -74.805225124298545 26.200008590432116 14.793097767270119 1 0 0 I I #
coedge $-1 $307 $307 $-1 $433 reversed $190 $-1 #
edge $-1 $434 0 $434 6.2831853071796004 $191 $435 forward 7 unknown #
vertex $-1 $194 $436 #
ellipse-curve $-1 -55.062375676404635 28.195242135927884 12.444255301249239 -0.81915205242281985 0 0.57357642473473569 0.28678821236736785 0 0.40957602621140993 1 I I #
coedge $-1 $311 $311 $-1 $437 reversed $197 $-1 #
edge $-1 $438 0 $438 6.2831853071796004 $198 $439 forward 7 unknown #
vertex $-1 $201 $440 #
ellipse-curve $-1 -55.062375676404635 31.188092454171532 12.444255301249239 -0.81915205242281985 0 0.57357642473473569 0.28678821236736785 0 0.40957602621140993 1 I I #
face $-1 $-1 $327 $44 $-1 $441 forward single #
loop $-1 $-1 $442 $202 #
plane-surface $-1 56.707052827539904 0 0 -1 0 0 0 0 1 forward_v I I I I #
coedge $-1 $443 $444 $445 $446 reversed $203 $-1 #
coedge $-1 $447 $205 $207 $325 forward $127 $-1 #
coedge $-1 $205 $447 $443 $448 forward $127 $-1 #
coedge $-1 $445 $208 $205 $322 forward $327 $-1 #
edge $-1 $329 -5.0219900001905557 $449 2.6333480680185559 $321 $450 forward 7 unknown #
coedge $-1 $451 $452 $206 $324 forward $316 $-1 #
edge $-1 $453 -75.456995746073275 $328 -66.03084258482545 $323 $454 forward 7 unknown #
edge $-1 $329 95.626201585531305 $453 113.41410565507979 $207 $455 forward 7 unknown #
coedge $-1 $208 $445 $451 $456 forward $327 $-1 #
loop $-1 $-1 $445 $315 #
vertex $-1 $324 $457 #
vertex $-1 $209 $458 #
straight-curve $-1 10.313378580650127 6.2163109662765557 14.793097767270126 -1 0 0 I I #
coedge $-1 $331 $331 $-1 $459 reversed $212 $-1 #
edge $-1 $460 0 $460 6.2831853071796004 $213 $461 forward 7 unknown #
vertex $-1 $216 $462 #
ellipse-curve $-1 49.164553776029223 0.0920405117092713 10.080021186646208 0.52991927123019833 0 0.84804809178421925 0.42402404589210962 0 -0.26495963561509916 1 I I #
coedge $-1 $335 $335 $-1 $463 reversed $219 $-1 #
edge $-1 $464 0 $464 6.2831853071796004 $220 $465 forward 7 unknown #
vertex $-1 $223 $466 #
ellipse-curve $-1 49.164553776029223 2.3886419321720069 10.080021186646208 0.52991927123019833 0 0.84804809178421925 0.42402404589210962 0 -0.26495963561509916 1 I I #
coedge $-1 $339 $339 $-1 $467 reversed $226 $-1 #
edge $-1 $468 0 $468 6.2831853071796004 $227 $469 forward 7 unknown #
vertex $-1 $230 $470 #
ellipse-curve $-1 49.164553776029223 4.6852433526347426 10.080021186646208 0.52991927123019833 0 0.84804809178421925 0.42402404589210962 0 -0.26495963561509916 1 I I #
face $-1 $-1 $471 $48 $-1 $472 reversed single #
loop $-1 $-1 $350 $231 #
plane-surface $-1 0 0 14.793097767270121 0 0 1 1 0 0 forward_v I I I I #
coedge $-1 $473 $234 $236 $352 forward $146 $-1 #
coedge $-1 $234 $473 $474 $475 reversed $146 $-1 #
coedge $-1 $476 $237 $234 $349 forward $232 $-1 #
edge $-1 $355 10.850159448676813 $477 18.505497516885928 $348 $478 forward 7 unknown #
coedge $-1 $479 $480 $235 $351 forward $344 $-1 #
edge $-1 $481 31.308676143868428 $354 46.393674246889773 $350 $482 forward 7 unknown #
edge $-1 $355 -113.41410565507979 $481 -95.626201585531305 $236 $483 forward 7 unknown #
coedge $-1 $237 $476 $479 $484 reversed $232 $-1 #
vertex $-1 $484 $485 #
vertex $-1 $238 $486 #
straight-curve $-1 56.707052827539904 25.527987931458181 80.823940352095576 0 0 -1 I I #
coedge $-1 $357 $357 $-1 $487 reversed $241 $-1 #
edge $-1 $488 0 $488 6.2831853071796004 $242 $489 forward 7 unknown #
vertex $-1 $245 $490 #
ellipse-curve $-1 49.164553776029223 27.059055545100001 10.080021186646208 0.52991927123019833 0 0.84804809178421925 0.42402404589210962 0 -0.26495963561509916 1 I I #
coedge $-1 $361 $361 $-1 $491 reversed $248 $-1 #
edge $-1 $492 0 $492 6.2831853071796004 $249 $493 forward 7 unknown #
vertex $-1 $252 $494 #
ellipse-curve $-1 49.164553776029223 29.355656965562737 10.080021186646208 0.52991927123019833 0 0.84804809178421925 0.42402404589210962 0 -0.26495963561509916 1 I I #
coedge $-1 $365 $365 $-1 $495 reversed $255 $-1 #
edge $-1 $496 0 $496 6.2831853071796004 $256 $497 forward 7 unknown #
vertex $-1 $259 $498 #
ellipse-curve $-1 49.164553776029223 31.652258386025473 10.080021186646208 0.52991927123019833 0 0.84804809178421925 0.42402404589210962 0 -0.26495963561509916 1 I I #
face $-1 $-1 $275 $39 $-1 $499 reversed single #
loop $-1 $-1 $385 $260 #
plane-surface $-1 0 33.183325999667296 0 0 -1 0 0 0 -1 forward_v I I I I #
coedge $-1 $500 $383 $386 $501 forward $261 $-1 #
coedge $-1 $389 $263 $264 $377 reversed $165 $-1 #
coedge $-1 $383 $500 $263 $375 reversed $261 $-1 #
edge $-1 $390 -14.793097767270121 $502 14.793097767270121 $374 $503 forward 7 unknown #
coedge $-1 $265 $264 $500 $504 forward $105 $-1 #
edge $-1 $381 -56.707052827539904 $502 56.707052827539904 $373 $505 forward 7 unknown #
coedge $-1 $386 $385 $265 $379 reversed $370 $-1 #
edge $-1 $506 -56.707052827539904 $380 56.707052827539904 $378 $507 forward 7 unknown #
vertex $-1 $267 $508 #
vertex $-1 $392 $509 #
straight-curve $-1 56.707052827539904 0 -14.793097767270121 0 -1 0 I I #
coedge $-1 $372 $374 $268 $384 reversed $261 $-1 #
edge $-1 $387 -33.183325999667296 $390 33.183325999667296 $383 $510 forward 7 unknown #
coedge $-1 $378 $269 $274 $393 forward $370 $-1 #
coedge $-1 $269 $378 $372 $501 reversed $370 $-1 #
vertex $-1 $270 $511 #
straight-curve $-1 0 33.183325999667296 14.793097767270121 -1 0 0 I I #
coedge $-1 $271 $373 $273 $392 reversed $165 $-1 #
vertex $-1 $384 $512 #
straight-curve $-1 0 -33.183325999667296 14.793097767270121 1 0 0 I I #
edge $-1 $276 -14.793097767270121 $381 14.793097767270121 $273 $513 forward 7 unknown #
edge $-1 $277 -14.793097767270121 $380 14.793097767270121 $274 $514 forward 7 unknown #
point $-1 56.707052827539904 -33.183325999667296 14.793097767270121 #
point $-1 56.707052827539904 33.183325999667296 14.793097767270121 #
face $-1 $-1 $412 $40 $-1 $515 reversed single #
loop $-1 $-1 $516 $279 #
plane-surface $-1 0 -45.615947932220422 -1.0543262381527168 0 1 0 0 0 1 forward_v I I I I #
coedge $-1 $517 $409 $411 $518 forward $280 $-1 #
coedge $-1 $282 $289 $519 $520 forward $173 $-1 #
coedge $-1 $521 $287 $282 $402 reversed $412 $-1 #
edge $-1 $522 -6.2163109662765663 $291 6.2163109662765663 $401 $523 forward 7 unknown #
coedge $-1 $284 $283 $516 $524 reversed $109 $-1 #
coedge $-1 $409 $517 $283 $405 forward $280 $-1 #
edge $-1 $525 -6.2163109662765663 $407 6.2163109662765663 $283 $526 forward 7 unknown #
edge $-1 $290 -6.2163109662765663 $527 6.2163109662765663 $284 $528 forward 7 unknown #
vertex $-1 $285 $529 #
straight-curve $-1 -56.707052827539904 -33.183325999667296 0 0 0 -1 I I #
coedge $-1 $399 $404 $286 $410 reversed $280 $-1 #
edge $-1 $413 -56.707052827539904 $407 56.707052827539904 $409 $530 forward 7 unknown #
coedge $-1 $287 $521 $399 $518 reversed $412 $-1 #
loop $-1 $-1 $287 $396 #
vertex $-1 $288 $531 #
straight-curve $-1 56.707052827539904 -33.183325999667296 0 0 0 1 I I #
point $-1 -56.707052827539904 -33.183325999667289 2.3182400099273028 #
point $-1 56.707052827539904 -33.183325999667289 2.3182400099273028 #
loop $-1 $-1 $300 $293 #
plane-surface $-1 -56.707052827539904 0 0 1 0 0 0 0 -1 forward_v I I I I #
coedge $-1 $532 $533 $297 $421 forward $294 $-1 #
coedge $-1 $297 $296 $426 $534 reversed $113 $-1 #
edge $-1 $423 6.3932609029156193 $535 12.128075237015542 $419 $536 forward 7 unknown #
coedge $-1 $303 $298 $533 $537 forward $181 $-1 #
vertex $-1 $537 $538 #
straight-curve $-1 -53.417698525269358 14.845833647524852 14.793097767270119 0 1 0 I I #
coedge $-1 $539 $300 $303 $430 reversed $417 $-1 #
coedge $-1 $300 $539 $420 $534 forward $417 $-1 #
vertex $-1 $301 $540 #
straight-curve $-1 -56.707052827539904 26.200008590432116 37.57353503567829 0 0 1 I I #
straight-curve $-1 -56.707052827539925 26.200008590432116 10.095412835228331 -0.57357642473473569 0 -0.81915205242281985 I I #
edge $-1 $541 -33.183325999667296 $304 -26.200008590432116 $425 $542 forward 7 unknown #
point $-1 -56.707052827539904 26.200008590432116 14.793097767270121 #
point $-1 -53.417698525269358 26.200008590432116 14.793097767270121 #
edge $-1 $543 1 $543 0 $307 $-1 forward 7 unknown #
vertex $-1 $308 $544 #
ellipse-curve $-1 -54.243223623981798 28.195242135927884 11.870678876514495 -0.81915205242281985 0 0.57357642473473569 0.28678821236736785 0 0.40957602621140993 1 I I #
point $-1 -54.775587464037251 28.195242135927884 12.853831327460639 #
edge $-1 $545 1 $545 0 $311 $-1 forward 7 unknown #
vertex $-1 $312 $546 #
ellipse-curve $-1 -54.243223623981798 31.188092454171532 11.870678876514495 -0.81915205242281985 0 0.57357642473473569 0.28678821236736785 0 0.40957602621140993 1 I I #
point $-1 -54.775587464037251 31.188092454171532 12.853831327460639 #
plane-surface $-1 0 0 14.793097767270121 0 0 1 1 0 0 forward_v I I I I #
coedge $-1 $452 $451 $444 $547 forward $316 $-1 #
coedge $-1 $444 $318 $320 $448 reversed $203 $-1 #
coedge $-1 $318 $443 $442 $547 reversed $203 $-1 #
coedge $-1 $326 $321 $318 $446 forward $327 $-1 #
edge $-1 $449 31.308676143868428 $548 46.393674246889773 $445 $549 forward 7 unknown #
coedge $-1 $320 $319 $452 $550 reversed $127 $-1 #
edge $-1 $551 -113.41410565507979 $449 -95.626201585531305 $443 $552 forward 7 unknown #
vertex $-1 $322 $553 #
straight-curve $-1 41.622054724518563 1.1943209660859999 14.793097767270119 0 -1 0 I I #
coedge $-1 $442 $323 $326 $456 reversed $316 $-1 #
coedge $-1 $323 $442 $447 $550 forward $316 $-1 #
vertex $-1 $324 $554 #
straight-curve $-1 56.707052827539904 6.2163109662765557 80.823940352095576 0 0 1 I I #
straight-curve $-1 -39.473563054664346 6.2163109662765557 65.467264821986902 0.84804809178421925 0 -0.52991927123019833 I I #
edge $-1 $548 -1.439027101932556 $328 6.2163109662765557 $451 $555 forward 7 unknown #
point $-1 56.707052827539904 6.2163109662765557 14.793097767270121 #
point $-1 41.622054724518556 6.2163109662765557 14.793097767270119 #
edge $-1 $556 1 $556 0 $331 $-1 forward 7 unknown #
vertex $-1 $332 $557 #
ellipse-curve $-1 48.634634504799017 0.0920405117092713 9.2319730948619831 0.52991927123019833 0 0.84804809178421925 0.42402404589210962 0 -0.26495963561509916 1 I I #
point $-1 49.588577821921326 0.0920405117092713 9.8150615510311034 #
edge $-1 $558 1 $558 0 $335 $-1 forward 7 unknown #
vertex $-1 $336 $559 #
ellipse-curve $-1 48.634634504799017 2.3886419321720069 9.2319730948619831 0.52991927123019833 0 0.84804809178421925 0.42402404589210962 0 -0.26495963561509916 1 I I #
point $-1 49.588577821921326 2.3886419321720069 9.8150615510311034 #
edge $-1 $560 1 $560 0 $339 $-1 forward 7 unknown #
vertex $-1 $340 $561 #
ellipse-curve $-1 48.634634504799017 4.6852433526347426 9.2319730948619831 0.52991927123019833 0 0.84804809178421925 0.42402404589210962 0 -0.26495963561509916 1 I I #
point $-1 49.588577821921326 4.6852433526347426 9.8150615510311034 #
loop $-1 $-1 $474 $343 #
plane-surface $-1 0 33.183325999667296 0 0 -1 0 0 0 -1 forward_v I I I I #
coedge $-1 $347 $346 $480 $562 reversed $146 $-1 #
coedge $-1 $563 $564 $347 $475 forward $471 $-1 #
edge $-1 $477 -79.330183110912884 $565 -61.542279041364374 $474 $566 forward 7 unknown #
coedge $-1 $353 $348 $564 $567 reversed $232 $-1 #
vertex $-1 $349 $568 #
straight-curve $-1 56.707052827539911 14.677828482781369 5.3669446060222903 0 1 0 I I #
coedge $-1 $569 $350 $353 $484 forward $344 $-1 #
coedge $-1 $350 $569 $473 $562 forward $344 $-1 #
vertex $-1 $351 $570 #
straight-curve $-1 10.313378580650127 25.527987931458181 14.793097767270126 1 0 0 I I #
straight-curve $-1 -39.473563054664346 25.527987931458181 65.467264821986902 -0.84804809178421925 0 0.52991927123019833 I I #
edge $-1 $354 25.527987931458181 $571 33.183325999667296 $353 $572 forward 7 unknown #
point $-1 56.707052827539904 25.527987931458181 14.793097767270121 #
point $-1 56.707052827539904 25.527987931458181 5.3669446060223009 #
edge $-1 $573 1 $573 0 $357 $-1 forward 7 unknown #
vertex $-1 $358 $574 #
ellipse-curve $-1 48.634634504799017 27.059055545100001 9.2319730948619831 0.52991927123019833 0 0.84804809178421925 0.42402404589210962 0 -0.26495963561509916 1 I I #
point $-1 49.588577821921326 27.059055545100001 9.8150615510311034 #
edge $-1 $575 1 $575 0 $361 $-1 forward 7 unknown #
vertex $-1 $362 $576 #
ellipse-curve $-1 48.634634504799017 29.355656965562737 9.2319730948619831 0.52991927123019833 0 0.84804809178421925 0.42402404589210962 0 -0.26495963561509916 1 I I #
point $-1 49.588577821921326 29.355656965562737 9.8150615510311034 #
edge $-1 $577 1 $577 0 $365 $-1 forward 7 unknown #
vertex $-1 $366 $578 #
ellipse-curve $-1 48.634634504799017 31.652258386025473 9.2319730948619831 0.52991927123019833 0 0.84804809178421925 0.42402404589210962 0 -0.26495963561509916 1 I I #
point $-1 49.588577821921326 31.652258386025473 9.8150615510311034 #
plane-surface $-1 56.707052827539904 0 0 -1 0 0 0 0 1 forward_v I I I I #
coedge $-1 $374 $372 $376 $504 reversed $261 $-1 #
edge $-1 $387 -14.793097767270121 $506 14.793097767270121 $386 $579 forward 7 unknown #
vertex $-1 $504 $580 #
straight-curve $-1 -56.707052827539904 -33.183325999667296 0 0 0 -1 I I #
edge $-1 $502 -33.183325999667296 $506 33.183325999667296 $500 $581 forward 7 unknown #
straight-curve $-1 0 -33.183325999667296 -14.793097767270121 -1 0 0 I I #
vertex $-1 $379 $582 #
straight-curve $-1 0 33.183325999667296 -14.793097767270121 1 0 0 I I #
point $-1 56.707052827539904 33.183325999667296 -14.793097767270121 #
point $-1 56.707052827539904 -33.183325999667296 -14.793097767270121 #
straight-curve $-1 -56.707052827539904 0 14.793097767270121 0 -1 0 I I #
point $-1 -56.707052827539904 33.183325999667296 14.793097767270121 #
point $-1 -56.707052827539904 -33.183325999667296 14.793097767270121 #
straight-curve $-1 56.707052827539904 -33.183325999667296 0 0 0 -1 I I #
straight-curve $-1 56.707052827539904 33.183325999667296 0 0 0 -1 I I #
plane-surface $-1 56.707052827539904 0 0 -1 0 0 0 0 1 forward_v I I I I #
coedge $-1 $583 $519 $403 $524 forward $397 $-1 #
coedge $-1 $404 $399 $583 $584 forward $280 $-1 #
edge $-1 $413 -6.2163109662765663 $585 6.2163109662765663 $411 $586 forward 7 unknown #
coedge $-1 $516 $587 $400 $520 reversed $397 $-1 #
edge $-1 $527 -56.707052827539904 $522 56.707052827539904 $519 $588 forward 7 unknown #
coedge $-1 $411 $401 $587 $589 forward $412 $-1 #
vertex $-1 $402 $590 #
straight-curve $-1 56.707052827539904 -39.399636965943856 2.3182400099273028 0 1 0 I I #
edge $-1 $527 -3.3725662480800196 $525 3.3725662480800196 $403 $591 forward 7 unknown #
vertex $-1 $405 $592 #
straight-curve $-1 -56.707052827539904 -39.399636965943856 -4.4268924862327363 0 1 0 I I #
vertex $-1 $406 $593 #
straight-curve $-1 -56.707052827539904 -39.399636965943856 2.3182400099273028 0 -1 0 I I #
point $-1 -56.707052827539904 -33.183325999667289 -4.4268924862327363 #
straight-curve $-1 0 -33.183325999667296 -4.4268924862327363 -1 0 0 I I #
point $-1 56.707052827539904 -33.183325999667289 -4.4268924862327363 #
coedge $-1 $533 $419 $539 $594 reversed $294 $-1 #
coedge $-1 $419 $532 $422 $537 reversed $294 $-1 #
edge $-1 $535 -18.337492352142437 $427 -11.354174942907264 $426 $595 forward 7 unknown #
vertex $-1 $421 $596 #
straight-curve $-1 -49.75067479417865 33.183325999667296 20.030150557568021 -0.57357642473473569 0 -0.81915205242281985 I I #
edge $-1 $423 53.417698525269358 $541 56.707052827539904 $533 $597 forward 7 unknown #
point $-1 -53.417698525269358 33.183325999667289 14.793097767270121 #
coedge $-1 $426 $425 $532 $594 forward $417 $-1 #
point $-1 -56.707052827539904 26.200008590432116 10.095412835228361 #
vertex $-1 $537 $598 #
straight-curve $-1 -56.707052827539904 0 14.793097767270121 0 -1 0 I I #
vertex $-1 $433 $599 #
point $-1 -53.956435411614429 28.195242135927884 12.280254902725904 #
vertex $-1 $437 $600 #
point $-1 -53.956435411614429 31.188092454171532 12.280254902725904 #
edge $-1 $548 66.03084258482545 $551 75.456995746073275 $442 $601 forward 7 unknown #
vertex $-1 $456 $602 #
straight-curve $-1 10.313378580650127 -1.439027101932556 14.793097767270126 1 0 0 I I #
edge $-1 $551 -2.6333480680185559 $453 5.0219900001905557 $452 $603 forward 7 unknown #
vertex $-1 $550 $604 #
straight-curve $-1 -39.473563054664346 -1.439027101932556 65.467264821986902 -0.84804809178421925 0 0.52991927123019833 I I #
point $-1 41.622054724518556 -1.439027101932556 14.793097767270119 #
point $-1 56.707052827539904 6.2163109662765557 5.3669446060223009 #
straight-curve $-1 56.707052827539904 0 14.793097767270121 0 1 0 I I #
vertex $-1 $459 $605 #
point $-1 49.058658550691128 0.0920405117092713 8.9670134592468838 #
vertex $-1 $463 $606 #
point $-1 49.058658550691128 2.3886419321720069 8.9670134592468838 #
vertex $-1 $467 $607 #
point $-1 49.058658550691128 4.6852433526347426 8.9670134592468838 #
edge $-1 $565 -18.505497516885921 $481 -10.850159448676813 $480 $608 forward 7 unknown #
coedge $-1 $564 $474 $569 $609 reversed $471 $-1 #
coedge $-1 $474 $563 $476 $567 forward $471 $-1 #
vertex $-1 $475 $610 #
straight-curve $-1 -10.568757580562455 33.183325999667296 47.405537426715433 -0.84804809178421925 0 0.52991927123019833 I I #
edge $-1 $571 -14.793097767270121 $477 -5.3669446060222983 $476 $611 forward 7 unknown #
point $-1 56.707052827539904 33.183325999667296 5.3669446060222983 #
coedge $-1 $480 $479 $563 $609 forward $344 $-1 #
point $-1 41.622054724518556 25.527987931458181 14.793097767270119 #
vertex $-1 $484 $612 #
straight-curve $-1 56.707052827539904 0 14.793097767270121 0 1 0 I I #
vertex $-1 $487 $613 #
point $-1 49.058658550691128 27.059055545100001 8.9670134592468838 #
vertex $-1 $491 $614 #
point $-1 49.058658550691128 29.355656965562737 8.9670134592468838 #
vertex $-1 $495 $615 #
point $-1 49.058658550691128 31.652258386025473 8.9670134592468838 #
straight-curve $-1 -56.707052827539904 33.183325999667296 0 0 0 -1 I I #
point $-1 -56.707052827539904 -33.183325999667296 -14.793097767270121 #
straight-curve $-1 -56.707052827539904 0 -14.793097767270121 0 1 0 I I #
point $-1 -56.707052827539904 33.183325999667296 -14.793097767270121 #
coedge $-1 $587 $516 $517 $584 reversed $397 $-1 #
edge $-1 $585 -56.707052827539904 $525 56.707052827539904 $583 $616 forward 7 unknown #
vertex $-1 $589 $617 #
straight-curve $-1 56.707052827539904 -39.399636965943856 -4.4268924862327363 0 -1 0 I I #
coedge $-1 $519 $583 $521 $589 reversed $397 $-1 #
straight-curve $-1 0 -45.615947932220422 2.3182400099273028 1 0 0 I I #
edge $-1 $522 -3.3725662480800196 $585 3.3725662480800196 $521 $618 forward 7 unknown #
point $-1 56.707052827539904 -45.615947932220422 2.3182400099273028 #
straight-curve $-1 -56.707052827539904 -45.615947932220422 -1.0543262381527168 0 0 -1 I I #
point $-1 -56.707052827539904 -45.615947932220422 -4.4268924862327363 #
point $-1 -56.707052827539904 -45.615947932220422 2.3182400099273028 #
edge $-1 $541 -14.793097767270121 $535 -10.095412835228361 $532 $619 forward 7 unknown #
straight-curve $-1 -56.707052827539904 14.845833647524852 10.095412835228357 0 -1 0 I I #
point $-1 -56.707052827539904 33.183325999667289 10.095412835228361 #
straight-curve $-1 0 33.183325999667296 14.793097767270121 -1 0 0 I I #
point $-1 -56.707052827539904 33.183325999667296 14.793097767270121 #
point $-1 -53.833647597770387 28.195242135927884 11.583890664147125 #
point $-1 -53.833647597770387 31.188092454171532 11.583890664147125 #
straight-curve $-1 56.707052827539904 -1.439027101932556 80.823940352095576 0 0 -1 I I #
point $-1 56.707052827539904 -1.439027101932556 14.793097767270121 #
straight-curve $-1 56.707052827539911 1.1943209660859999 5.3669446060222903 0 1 0 I I #
point $-1 56.707052827539904 -1.439027101932556 5.3669446060223009 #
point $-1 48.369674869183918 0.0920405117092713 8.8079490489698724 #
point $-1 48.369674869183918 2.3886419321720069 8.8079490489698724 #
point $-1 48.369674869183918 4.6852433526347426 8.8079490489698724 #
straight-curve $-1 41.622054724518563 14.677828482781369 14.793097767270119 0 -1 0 I I #
edge $-1 $571 -56.707052827539904 $565 -41.622054724518556 $563 $620 forward 7 unknown #
point $-1 41.622054724518556 33.183325999667289 14.793097767270119 #
straight-curve $-1 56.707052827539904 33.183325999667296 0 0 0 -1 I I #
point $-1 56.707052827539904 33.183325999667296 14.793097767270121 #
point $-1 48.369674869183918 27.059055545100001 8.8079490489698724 #
point $-1 48.369674869183918 29.355656965562737 8.8079490489698724 #
point $-1 48.369674869183918 31.652258386025473 8.8079490489698724 #
straight-curve $-1 0 -45.615947932220422 -4.4268924862327363 -1 0 0 I I #
point $-1 56.707052827539904 -45.615947932220422 -4.4268924862327363 #
straight-curve $-1 56.707052827539904 -45.615947932220422 -1.0543262381527168 0 0 -1 I I #
straight-curve $-1 -56.707052827539904 33.183325999667296 0 0 0 -1 I I #
straight-curve $-1 0 33.183325999667296 14.793097767270121 -1 0 0 I I #
End-of-ACIS-data 