500 0 6 0           
7 Unknown 11 ACIS 5.0 NT 24 Fri Mar 26 18:15:35 1999 
-1 9.9999999999999995e-007 1e-010 
body $-1 $6 $-1 $7 #
body $-1 $8 $-1 $9 #
body $-1 $10 $-1 $11 #
body $-1 $12 $-1 $13 #
body $-1 $14 $-1 $15 #
body $-1 $16 $-1 $17 #
lump $-1 $-1 $18 $0 #
transform $-1 1 0 0 0 1 0 0 0 1 40.043946653645435 23.709360034121048 5.4703666411316858 1 rotate no_reflect no_shear #
lump $-1 $-1 $19 $1 #
transform $-1 1 0 0 0 1 0 0 0 1 40.043946653645435 23.709360034121048 5.4703666411316858 1 rotate no_reflect no_shear #
lump $-1 $-1 $20 $2 #
transform $-1 1 0 0 0 1 0 0 0 1 40.043946653645435 23.709360034121048 5.4703666411316858 1 rotate no_reflect no_shear #
lump $-1 $-1 $21 $3 #
transform $-1 1 0 0 0 1 0 0 0 1 40.043946653645435 23.709360034121048 5.4703666411316858 1 rotate no_reflect no_shear #
lump $-1 $-1 $22 $4 #
transform $-1 1 0 0 0 1 0 0 0 1 40.043946653645435 23.709360034121048 5.4703666411316858 1 rotate no_reflect no_shear #
lump $-1 $-1 $23 $5 #
transform $-1 1 0 0 0 1 0 0 0 1 40.043946653645435 23.709360034121048 5.4703666411316858 1 rotate no_reflect no_shear #
shell $-1 $-1 $-1 $24 $-1 $6 #
shell $-1 $-1 $-1 $25 $-1 $8 #
shell $-1 $-1 $-1 $26 $-1 $10 #
shell $-1 $-1 $-1 $27 $-1 $12 #
shell $-1 $-1 $-1 $28 $-1 $14 #
shell $-1 $-1 $-1 $29 $-1 $16 #
face $-1 $30 $31 $18 $-1 $32 reversed single #
face $-1 $33 $34 $19 $-1 $35 forward single #
face $-1 $36 $37 $20 $-1 $38 reversed single #
face $-1 $39 $40 $21 $-1 $41 forward single #
face $-1 $42 $43 $22 $-1 $44 reversed single #
face $-1 $45 $46 $23 $-1 $47 forward single #
face $-1 $48 $49 $18 $-1 $50 forward single #
loop $-1 $-1 $51 $24 #
plane-surface $-1 0 -23.709360034121048 0 0 1 0 0 0 1 forward_v I I I I #
face $-1 $52 $53 $19 $-1 $54 reversed single #
loop $-1 $-1 $55 $25 #
plane-surface $-1 0 -23.709360034121048 0 0 1 0 0 0 1 forward_v I I I I #
face $-1 $56 $57 $20 $-1 $58 reversed single #
loop $-1 $-1 $59 $26 #
plane-surface $-1 -98.616524540708724 -19.093477116612871 56.016597061457908 0 1 0 -0.73135370988377701 0 0.68199835119979291 forward_v I I I I #
face $-1 $60 $61 $21 $-1 $62 forward single #
loop $-1 $63 $64 $27 #
cone-surface $-1 -37.654320501581424 -12.855101234198163 2.9763749035149427 0.73135370988377701 0 -0.68199835119979291 0.68199835119979291 0 0.73135370988377701 1 I I 0 1 1 forward I I I I #
face $-1 $65 $66 $22 $-1 $67 reversed single #
loop $-1 $-1 $68 $28 #
plane-surface $-1 38.067264215495015 13.120538714746697 115.16398959273771 0 1 0 0.69465837861970381 0 0.71933979245794832 forward_v I I I I #
face $-1 $69 $70 $23 $-1 $71 forward single #
loop $-1 $72 $73 $29 #
cone-surface $-1 37.451311037549402 18.414949374433874 2.9140057264210992 -0.69465837861970381 0 -0.71933979245794832 0.71933979245794832 0 -0.69465837861970381 1 I I 0 1 1 forward I I I I #
face $-1 $74 $75 $18 $-1 $76 reversed single #
loop $-1 $-1 $77 $30 #
plane-surface $-1 0 0 5.4703666411316858 0 0 1 1 0 0 forward_v I I I I #
coedge $-1 $78 $79 $80 $81 reversed $31 $-1 #
face $-1 $82 $83 $19 $-1 $84 reversed single #
loop $-1 $-1 $85 $33 #
plane-surface $-1 0 0 -5.4703666411316858 0 0 1 1 0 0 forward_v I I I I #
coedge $-1 $86 $87 $88 $89 forward $34 $-1 #
face $-1 $90 $91 $20 $-1 $92 reversed single #
loop $-1 $-1 $93 $36 #
plane-surface $-1 -40.043946653645428 -12.855101234198163 1.3967858748206083 -0.73135370988377701 0 0.68199835119979291 0.68199835119979291 0 0.73135370988377701 forward_v I I I I #
coedge $-1 $94 $95 $96 $97 reversed $37 $-1 #
face $-1 $-1 $98 $21 $-1 $99 forward single #
loop $-1 $100 $101 $39 #
cone-surface $-1 -36.798355208022571 -12.855101234198163 2.1781743734538423 0.73135370988377701 0 -0.68199835119979291 0.34099917559989645 0 0.36567685494188851 1 I I -0.70710678118654746 0.70710678118654746 0.5 forward I I I I #
loop $-1 $-1 $102 $27 #
coedge $-1 $64 $64 $103 $104 reversed $40 $-1 #
face $-1 $105 $106 $22 $-1 $107 reversed single #
loop $-1 $-1 $108 $42 #
plane-surface $-1 -17.56646189641549 18.414949374433874 57.553581042676782 0.69465837861970381 0 0.71933979245794832 0.71933979245794832 0 -0.69465837861970381 forward_v I I I I #
coedge $-1 $109 $110 $111 $112 reversed $43 $-1 #
face $-1 $-1 $113 $23 $-1 $114 forward single #
loop $-1 $115 $116 $45 #
cone-surface $-1 36.349677443183296 18.414949374433874 1.7732307706642461 -0.69465837861970381 0 -0.71933979245794832 0.35966989622897416 0 -0.3473291893098519 1 I I -0.70710678118654746 0.70710678118654746 0.5 forward I I I I #
loop $-1 $-1 $117 $29 #
coedge $-1 $73 $73 $118 $119 reversed $46 $-1 #
face $-1 $120 $121 $18 $-1 $122 reversed single #
loop $-1 $-1 $123 $48 #
plane-surface $-1 0 0 -5.4703666411316858 0 0 1 1 0 0 forward_v I I I I #
coedge $-1 $124 $125 $126 $127 forward $49 $-1 #
coedge $-1 $128 $51 $129 $130 reversed $31 $-1 #
coedge $-1 $51 $128 $131 $132 forward $31 $-1 #
coedge $-1 $133 $123 $51 $81 forward $75 $-1 #
edge $-1 $134 -40.043946653645435 $135 40.043946653645435 $51 $136 forward 7 unknown #
face $-1 $137 $138 $19 $-1 $139 reversed single #
loop $-1 $-1 $140 $52 #
plane-surface $-1 -36.615410154721154 -28.325242951629228 0 0 1 0 0 0 1 forward_v I I I I #
coedge $-1 $141 $142 $87 $143 forward $53 $-1 #
coedge $-1 $144 $55 $145 $146 reversed $34 $-1 #
coedge $-1 $55 $144 $85 $143 reversed $34 $-1 #
coedge $-1 $147 $148 $55 $89 reversed $138 $-1 #
edge $-1 $149 -5.4703666411316858 $150 5.4703666411316858 $88 $151 forward 7 unknown #
face $-1 $152 $153 $20 $-1 $154 reversed single #
loop $-1 $-1 $155 $56 #
plane-surface $-1 -98.616524540708724 -6.6167253517834546 56.016597061457908 0 -1 0 0.73135370988377701 0 -0.68199835119979291 forward_v I I I I #
coedge $-1 $156 $157 $158 $159 reversed $57 $-1 #
coedge $-1 $95 $59 $160 $161 reversed $37 $-1 #
coedge $-1 $59 $94 $156 $162 reversed $37 $-1 #
coedge $-1 $158 $163 $59 $97 forward $164 $-1 #
edge $-1 $165 9.2643156167089273 $166 13.062991043603041 $96 $167 forward 7 unknown #
loop $-1 $-1 $103 $60 #
plane-surface $-1 -40.043946653645428 -12.855101234198163 1.3967858748206083 -0.73135370988377701 0 0.68199835119979291 0.68199835119979291 0 0.73135370988377701 forward_v I I I I #
loop $-1 $-1 $168 $39 #
coedge $-1 $101 $101 $102 $169 reversed $61 $-1 #
coedge $-1 $102 $102 $101 $169 forward $63 $-1 #
coedge $-1 $103 $103 $64 $104 forward $98 $-1 #
edge $-1 $170 0 $170 6.2831853071796004 $103 $171 forward 7 unknown #
face $-1 $172 $173 $22 $-1 $174 forward single #
loop $-1 $-1 $175 $65 #
plane-surface $-1 0 23.709360034121048 0 0 -1 0 0 0 -1 forward_v I I I I #
coedge $-1 $176 $177 $178 $179 reversed $66 $-1 #
coedge $-1 $110 $68 $180 $181 reversed $43 $-1 #
coedge $-1 $68 $109 $176 $182 reversed $43 $-1 #
coedge $-1 $178 $183 $68 $112 forward $184 $-1 #
edge $-1 $185 52.11162815523717 $186 55.662139865602576 $111 $187 forward 7 unknown #
loop $-1 $-1 $118 $69 #
plane-surface $-1 -17.56646189641549 18.414949374433874 57.553581042676782 0.69465837861970381 0 0.71933979245794832 0.71933979245794832 0 -0.69465837861970381 forward_v I I I I #
loop $-1 $-1 $188 $45 #
coedge $-1 $116 $116 $117 $189 reversed $70 $-1 #
coedge $-1 $117 $117 $116 $189 forward $72 $-1 #
coedge $-1 $118 $118 $73 $119 forward $113 $-1 #
edge $-1 $190 0 $190 6.2831853071796004 $118 $191 forward 7 unknown #
face $-1 $192 $193 $18 $-1 $194 reversed single #
loop $-1 $-1 $195 $74 #
plane-surface $-1 -40.043946653645435 0 0 1 0 0 0 0 -1 forward_v I I I I #
coedge $-1 $80 $196 $197 $198 forward $75 $-1 #
coedge $-1 $199 $77 $200 $201 forward $49 $-1 #
coedge $-1 $77 $199 $128 $202 forward $49 $-1 #
coedge $-1 $129 $203 $77 $127 reversed $204 $-1 #
edge $-1 $205 -23.709360034121048 $206 23.709360034121048 $126 $207 forward 7 unknown #
coedge $-1 $79 $78 $125 $202 reversed $31 $-1 #
coedge $-1 $197 $126 $78 $130 forward $204 $-1 #
edge $-1 $205 -5.4703666411316858 $134 5.4703666411316858 $129 $208 forward 7 unknown #
coedge $-1 $209 $210 $79 $132 reversed $121 $-1 #
edge $-1 $211 -5.4703666411316858 $135 5.4703666411316858 $131 $212 forward 7 unknown #
coedge $-1 $196 $80 $210 $213 forward $75 $-1 #
vertex $-1 $130 $214 #
vertex $-1 $213 $215 #
straight-curve $-1 0 -23.709360034121048 -5.4703666411316858 -1 0 0 I I #
face $-1 $216 $217 $19 $-1 $218 reversed single #
loop $-1 $-1 $88 $82 #
plane-surface $-1 -38.115410154721154 -26.017301492875138 0 1 0 0 0 0 -1 forward_v I I I I #
coedge $-1 $219 $220 $221 $222 forward $83 $-1 #
coedge $-1 $223 $85 $224 $225 forward $53 $-1 #
coedge $-1 $85 $223 $147 $226 forward $53 $-1 #
edge $-1 $149 -38.115410154721154 $227 -35.115410154721154 $85 $228 forward 7 unknown #
coedge $-1 $87 $86 $229 $230 forward $34 $-1 #
coedge $-1 $231 $232 $86 $146 forward $233 $-1 #
edge $-1 $234 35.115410154721154 $150 38.115410154721154 $145 $235 forward 7 unknown #
coedge $-1 $221 $88 $142 $226 reversed $138 $-1 #
coedge $-1 $88 $221 $231 $236 reversed $138 $-1 #
vertex $-1 $143 $237 #
vertex $-1 $236 $238 #
straight-curve $-1 -38.115410154721154 -23.709360034121048 0 0 0 1 I I #
face $-1 $-1 $164 $20 $-1 $239 forward single #
loop $-1 $-1 $240 $90 #
plane-surface $-1 -40.043946653645435 0 0 1 0 0 0 0 -1 forward_v I I I I #
coedge $-1 $241 $242 $243 $244 reversed $91 $-1 #
coedge $-1 $245 $93 $95 $162 forward $57 $-1 #
coedge $-1 $93 $245 $241 $246 forward $57 $-1 #
coedge $-1 $243 $96 $93 $159 forward $164 $-1 #
edge $-1 $166 -12.665926499513789 $247 -0.18917473468437329 $158 $248 forward 7 unknown #
coedge $-1 $249 $250 $94 $161 forward $153 $-1 #
edge $-1 $251 -26.611512655908353 $165 -22.537931889597267 $160 $252 forward 7 unknown #
edge $-1 $166 -5.569918783837756 $251 1.0367256691888158e-014 $95 $253 forward 7 unknown #
coedge $-1 $96 $243 $249 $254 forward $164 $-1 #
loop $-1 $-1 $243 $152 #
vertex $-1 $161 $255 #
vertex $-1 $97 $256 #
straight-curve $-1 -49.308262270354362 -19.093477116612871 5.4703666411316867 1 0 0 I I #
coedge $-1 $168 $168 $-1 $257 reversed $100 $-1 #
edge $-1 $258 0 $258 6.2831853071796004 $101 $259 forward 7 unknown #
vertex $-1 $104 $260 #
ellipse-curve $-1 -38.144608940198381 -12.855101234198163 3.4335762579761413 -0.73135370988377701 0 0.68199835119979291 0.68199835119979291 0 0.73135370988377701 1 I I #
face $-1 $-1 $184 $22 $-1 $261 reversed single #
loop $-1 $-1 $262 $105 #
plane-surface $-1 0 0 5.4703666411316858 0 0 1 1 0 0 forward_v I I I I #
coedge $-1 $263 $264 $177 $265 forward $106 $-1 #
coedge $-1 $266 $108 $110 $182 forward $66 $-1 #
coedge $-1 $108 $266 $175 $265 reversed $66 $-1 #
coedge $-1 $267 $111 $108 $179 forward $184 $-1 #
edge $-1 $186 3.9130640275297601 $268 14.50188534690411 $178 $269 forward 7 unknown #
coedge $-1 $270 $262 $109 $181 forward $173 $-1 #
edge $-1 $271 17.333652123818382 $185 21.010314545897927 $180 $272 forward 7 unknown #
edge $-1 $186 -80.087893307290869 $271 -74.976731015661528 $110 $273 forward 7 unknown #
coedge $-1 $111 $267 $270 $274 reversed $184 $-1 #
loop $-1 $-1 $178 $172 #
vertex $-1 $274 $275 #
vertex $-1 $112 $276 #
straight-curve $-1 40.043946653645435 13.120538714746697 57.581994796368853 0 0 -1 I I #
coedge $-1 $188 $188 $-1 $277 reversed $115 $-1 #
edge $-1 $278 0 $278 6.2831853071796004 $116 $279 forward 7 unknown #
vertex $-1 $119 $280 #
ellipse-curve $-1 38.205615442605662 18.414949374433874 3.695110785948982 0.69465837861970381 0 0.71933979245794832 0.71933979245794832 0 -0.69465837861970381 1 I I #
face $-1 $-1 $204 $18 $-1 $281 reversed single #
loop $-1 $-1 $282 $120 #
plane-surface $-1 0 23.709360034121048 0 0 -1 0 0 0 -1 forward_v I I I I #
coedge $-1 $210 $209 $283 $284 forward $121 $-1 #
coedge $-1 $123 $133 $285 $286 forward $75 $-1 #
coedge $-1 $203 $129 $123 $198 reversed $204 $-1 #
edge $-1 $287 -23.709360034121048 $134 23.709360034121048 $197 $288 forward 7 unknown #
coedge $-1 $125 $124 $209 $289 forward $49 $-1 #
coedge $-1 $282 $283 $124 $201 reversed $193 $-1 #
edge $-1 $206 -40.043946653645435 $290 40.043946653645435 $200 $291 forward 7 unknown #
edge $-1 $211 -40.043946653645435 $205 40.043946653645435 $128 $292 forward 7 unknown #
coedge $-1 $126 $197 $282 $293 reversed $204 $-1 #
loop $-1 $-1 $129 $192 #
vertex $-1 $127 $294 #
vertex $-1 $127 $295 #
straight-curve $-1 40.043946653645435 0 5.4703666411316858 0 1 0 I I #
straight-curve $-1 40.043946653645435 -23.709360034121048 0 0 0 -1 I I #
coedge $-1 $195 $131 $199 $289 reversed $121 $-1 #
coedge $-1 $131 $195 $133 $213 reversed $121 $-1 #
vertex $-1 $289 $296 #
straight-curve $-1 -40.043946653645435 -23.709360034121048 0 0 0 -1 I I #
edge $-1 $135 -23.709360034121048 $297 23.709360034121048 $210 $298 forward 7 unknown #
point $-1 40.043946653645435 -23.709360034121048 -5.4703666411316858 #
point $-1 -40.043946653645435 -23.709360034121048 -5.4703666411316858 #
face $-1 $-1 $233 $19 $-1 $299 forward single #
loop $-1 $-1 $300 $137 #
plane-surface $-1 -35.115410154721154 -26.017301492875138 0 -1 0 0 0 0 1 forward_v I I I I #
coedge $-1 $301 $140 $223 $302 reversed $83 $-1 #
coedge $-1 $140 $301 $303 $304 reversed $83 $-1 #
coedge $-1 $148 $147 $140 $222 reversed $138 $-1 #
edge $-1 $305 -5.4703666411316858 $306 5.4703666411316858 $221 $307 forward 7 unknown #
coedge $-1 $142 $141 $219 $302 forward $53 $-1 #
coedge $-1 $229 $300 $141 $225 reversed $217 $-1 #
edge $-1 $227 -2.3079414587540903 $308 2.3079414587540903 $224 $309 forward 7 unknown #
edge $-1 $306 -2.3079414587540903 $149 2.3079414587540903 $147 $310 forward 7 unknown #
vertex $-1 $225 $311 #
straight-curve $-1 0 -23.709360034121048 -5.4703666411316858 1 0 0 I I #
coedge $-1 $312 $224 $144 $230 reversed $217 $-1 #
edge $-1 $234 -5.4703666411316858 $227 5.4703666411316858 $229 $313 forward 7 unknown #
coedge $-1 $303 $145 $148 $236 forward $233 $-1 #
coedge $-1 $145 $303 $312 $314 forward $233 $-1 #
loop $-1 $-1 $145 $216 #
vertex $-1 $146 $315 #
straight-curve $-1 0 -23.709360034121048 5.4703666411316858 -1 0 0 I I #
edge $-1 $150 -2.3079414587540903 $305 2.3079414587540903 $148 $316 forward 7 unknown #
point $-1 -38.115410154721154 -23.709360034121048 -5.4703666411316858 #
point $-1 -38.115410154721154 -23.709360034121048 5.4703666411316858 #
plane-surface $-1 0 0 5.4703666411316858 0 0 1 1 0 0 forward_v I I I I #
coedge $-1 $250 $249 $242 $317 forward $153 $-1 #
coedge $-1 $242 $155 $157 $246 reversed $91 $-1 #
coedge $-1 $155 $241 $240 $317 reversed $91 $-1 #
coedge $-1 $163 $158 $155 $244 forward $164 $-1 #
edge $-1 $247 -13.062991043603041 $318 -9.2643156167089273 $243 $319 forward 7 unknown #
coedge $-1 $157 $156 $250 $320 reversed $57 $-1 #
edge $-1 $321 -1.0367256691888158e-014 $247 5.569918783837756 $241 $322 forward 7 unknown #
vertex $-1 $159 $323 #
straight-curve $-1 -36.245271226751328 -6.4275506170990813 5.4703666411316849 0 1 0 I I #
coedge $-1 $240 $160 $163 $254 reversed $153 $-1 #
coedge $-1 $160 $240 $245 $320 forward $153 $-1 #
vertex $-1 $161 $324 #
straight-curve $-1 -40.043946653645435 -19.093477116612871 28.008298530728954 0 0 1 I I #
straight-curve $-1 -40.043946653645428 -19.093477116612871 1.3967858748206083 -0.68199835119979291 0 -0.73135370988377701 I I #
edge $-1 $318 6.6167253517834546 $165 19.093477116612871 $249 $325 forward 7 unknown #
point $-1 -40.043946653645435 -19.093477116612871 5.4703666411316858 #
point $-1 -36.245271226751321 -19.093477116612871 5.4703666411316858 #
edge $-1 $326 1 $326 0 $168 $-1 forward 7 unknown #
vertex $-1 $169 $327 #
ellipse-curve $-1 -37.164032062964459 -12.855101234198163 2.5191735490537388 -0.73135370988377701 0 0.68199835119979291 0.68199835119979291 0 0.73135370988377701 1 I I #
point $-1 -37.462610588998594 -12.855101234198163 4.1649299678599228 #
plane-surface $-1 40.043946653645435 0 0 -1 0 0 0 0 1 forward_v I I I I #
coedge $-1 $180 $328 $266 $329 forward $173 $-1 #
coedge $-1 $264 $175 $328 $330 reversed $106 $-1 #
coedge $-1 $175 $263 $267 $331 forward $106 $-1 #
edge $-1 $268 -53.779727134465091 $332 -48.66856484283575 $175 $333 forward 7 unknown #
coedge $-1 $177 $176 $262 $329 reversed $66 $-1 #
coedge $-1 $183 $178 $264 $331 reversed $184 $-1 #
vertex $-1 $179 $334 #
straight-curve $-1 40.043946653645435 9.2074746872169371 1.9198549307662809 0 1 0 I I #
coedge $-1 $328 $180 $183 $274 forward $173 $-1 #
vertex $-1 $181 $335 #
straight-curve $-1 19.033632107747508 13.120538714746697 5.4703666411316831 1 0 0 I I #
straight-curve $-1 -17.56646189641549 13.120538714746697 57.553581042676782 -0.71933979245794832 0 0.69465837861970381 I I #
edge $-1 $185 13.120538714746697 $336 23.709360034121048 $183 $337 forward 7 unknown #
point $-1 40.043946653645435 13.120538714746697 5.4703666411316858 #
point $-1 40.043946653645435 13.120538714746697 1.9198549307662773 #
edge $-1 $338 1 $338 0 $188 $-1 forward 7 unknown #
vertex $-1 $189 $339 #
ellipse-curve $-1 36.697006632493149 18.414949374433874 2.13290066689322 0.69465837861970381 0 0.71933979245794832 0.71933979245794832 0 -0.69465837861970381 1 I I #
point $-1 38.924955235063607 18.414949374433874 3.0004524073292749 #
plane-surface $-1 40.043946653645435 0 0 -1 0 0 0 0 1 forward_v I I I I #
coedge $-1 $285 $200 $203 $293 forward $193 $-1 #
coedge $-1 $200 $285 $195 $284 reversed $193 $-1 #
edge $-1 $290 -5.4703666411316858 $297 5.4703666411316858 $283 $340 forward 7 unknown #
coedge $-1 $283 $282 $196 $286 reversed $193 $-1 #
edge $-1 $297 -40.043946653645435 $287 40.043946653645435 $285 $341 forward 7 unknown #
vertex $-1 $198 $342 #
straight-curve $-1 40.043946653645435 0 -5.4703666411316858 0 -1 0 I I #
edge $-1 $290 -23.709360034121048 $211 23.709360034121048 $209 $343 forward 7 unknown #
vertex $-1 $201 $344 #
straight-curve $-1 0 23.709360034121048 5.4703666411316858 -1 0 0 I I #
straight-curve $-1 0 -23.709360034121048 5.4703666411316858 1 0 0 I I #
edge $-1 $206 -5.4703666411316858 $287 5.4703666411316858 $203 $345 forward 7 unknown #
point $-1 40.043946653645435 -23.709360034121048 5.4703666411316858 #
point $-1 40.043946653645435 23.709360034121048 5.4703666411316858 #
point $-1 -40.043946653645435 -23.709360034121048 5.4703666411316858 #
vertex $-1 $286 $346 #
straight-curve $-1 -40.043946653645435 0 -5.4703666411316858 0 1 0 I I #
plane-surface $-1 0 0 5.4703666411316858 0 0 1 1 0 0 forward_v I I I I #
coedge $-1 $224 $312 $301 $347 forward $217 $-1 #
coedge $-1 $220 $219 $300 $347 reversed $83 $-1 #
edge $-1 $308 -1.5 $306 1.5 $219 $348 forward 7 unknown #
coedge $-1 $232 $231 $220 $304 forward $233 $-1 #
edge $-1 $305 -1.5 $349 1.5 $220 $350 forward 7 unknown #
vertex $-1 $236 $351 #
vertex $-1 $226 $352 #
straight-curve $-1 -38.115410154721154 -28.325242951629228 0 0 0 -1 I I #
vertex $-1 $347 $353 #
straight-curve $-1 -35.115410154721154 -26.017301492875138 -5.4703666411316858 0 -1 0 I I #
straight-curve $-1 -38.115410154721154 -26.017301492875138 -5.4703666411316858 0 1 0 I I #
point $-1 -35.115410154721154 -23.709360034121048 -5.4703666411316858 #
coedge $-1 $300 $229 $232 $314 reversed $217 $-1 #
straight-curve $-1 -35.115410154721154 -23.709360034121048 0 0 0 -1 I I #
edge $-1 $349 -2.3079414587540903 $234 2.3079414587540903 $312 $354 forward 7 unknown #
point $-1 -35.115410154721154 -23.709360034121048 5.4703666411316858 #
straight-curve $-1 -38.115410154721154 -26.017301492875138 5.4703666411316858 0 -1 0 I I #
edge $-1 $318 22.537931889597267 $321 26.611512655908353 $240 $355 forward 7 unknown #
vertex $-1 $254 $356 #
straight-curve $-1 -49.308262270354362 -6.6167253517834546 5.4703666411316867 -1 0 0 I I #
edge $-1 $321 0.18917473468437329 $251 12.665926499513789 $250 $357 forward 7 unknown #
vertex $-1 $320 $358 #
straight-curve $-1 -40.043946653645428 -6.6167253517834546 1.3967858748206083 0.68199835119979291 0 0.73135370988377701 I I #
point $-1 -36.245271226751321 -6.6167253517834546 5.4703666411316858 #
point $-1 -40.043946653645435 -19.093477116612871 1.3967858748206008 #
straight-curve $-1 -40.043946653645435 0 5.4703666411316858 0 -1 0 I I #
vertex $-1 $257 $359 #
point $-1 -36.482033711764664 -12.855101234198163 3.2505272589375158 #
coedge $-1 $262 $270 $263 $330 forward $173 $-1 #
edge $-1 $332 -14.501885346904114 $271 -3.9130640275297601 $262 $360 forward 7 unknown #
edge $-1 $336 -40.043946653645435 $332 -36.36728423156589 $263 $361 forward 7 unknown #
edge $-1 $336 -5.4703666411316858 $268 -1.919854930766278 $267 $362 forward 7 unknown #
vertex $-1 $329 $363 #
straight-curve $-1 1.3580488982942196 23.709360034121048 39.27839298460389 -0.71933979245794832 0 0.69465837861970381 I I #
point $-1 40.043946653645435 23.709360034121048 1.919854930766278 #
point $-1 36.36728423156589 13.120538714746697 5.4703666411316902 #
vertex $-1 $274 $364 #
straight-curve $-1 40.043946653645435 0 5.4703666411316858 0 1 0 I I #
vertex $-1 $277 $365 #
point $-1 37.416346424951094 18.414949374433874 1.4382422882735164 #
straight-curve $-1 -40.043946653645435 23.709360034121048 0 0 0 -1 I I #
straight-curve $-1 0 23.709360034121048 -5.4703666411316858 1 0 0 I I #
point $-1 40.043946653645435 23.709360034121048 -5.4703666411316858 #
straight-curve $-1 -40.043946653645435 0 5.4703666411316858 0 -1 0 I I #
point $-1 -40.043946653645435 23.709360034121048 5.4703666411316858 #
straight-curve $-1 40.043946653645435 23.709360034121048 0 0 0 -1 I I #
point $-1 -40.043946653645435 23.709360034121048 -5.4703666411316858 #
edge $-1 $349 -5.4703666411316858 $308 5.4703666411316858 $300 $366 forward 7 unknown #
straight-curve $-1 -36.615410154721154 -28.325242951629228 -5.4703666411316858 -1 0 0 I I #
vertex $-1 $314 $367 #
straight-curve $-1 -36.615410154721154 -28.325242951629228 5.4703666411316858 1 0 0 I I #
point $-1 -38.115410154721154 -28.325242951629228 5.4703666411316858 #
point $-1 -38.115410154721154 -28.325242951629228 -5.4703666411316858 #
point $-1 -35.115410154721154 -28.325242951629228 -5.4703666411316858 #
straight-curve $-1 -35.115410154721154 -26.017301492875138 5.4703666411316858 0 1 0 I I #
straight-curve $-1 -40.043946653645435 -6.6167253517834546 28.008298530728954 0 0 -1 I I #
point $-1 -40.043946653645435 -6.6167253517834546 5.4703666411316858 #
straight-curve $-1 -40.043946653645435 -6.4275506170990813 1.3967858748206052 0 -1 0 I I #
point $-1 -40.043946653645435 -6.6167253517834546 1.3967858748206008 #
point $-1 -36.432678353080682 -12.855101234198163 1.8371751978539459 #
straight-curve $-1 36.367284231565897 9.2074746872169371 5.4703666411316831 0 -1 0 I I #
straight-curve $-1 0 23.709360034121048 5.4703666411316858 -1 0 0 I I #
straight-curve $-1 40.043946653645435 23.709360034121048 0 0 0 -1 I I #
point $-1 36.36728423156589 23.709360034121051 5.4703666411316902 #
point $-1 40.043946653645435 23.709360034121048 5.4703666411316858 #
point $-1 36.002348253873443 18.414949374433874 1.4135608744352719 #
straight-curve $-1 -35.115410154721154 -28.325242951629228 0 0 0 -1 I I #
point $-1 -35.115410154721154 -28.325242951629228 5.4703666411316858 #
End-of-ACIS-data 