500 0 8 0           
7 Unknown 11 ACIS 5.0 NT 24 Fri Mar 26 19:09:30 1999 
-1 9.9999999999999995e-007 1e-010 
body $-1 $8 $-1 $9 #
body $-1 $10 $-1 $11 #
body $-1 $12 $-1 $13 #
body $-1 $14 $-1 $15 #
body $-1 $16 $-1 $17 #
body $-1 $18 $-1 $19 #
body $-1 $20 $-1 $21 #
body $-1 $22 $-1 $23 #
lump $-1 $-1 $24 $0 #
transform $-1 1 0 0 0 1 0 0 0 1 54.02020325327311 27.371478272442317 9.2478457490326988 1 rotate no_reflect no_shear #
lump $-1 $-1 $25 $1 #
transform $-1 1 0 0 0 1 0 0 0 1 54.02020325327311 27.371478272442317 9.2478457490326988 1 rotate no_reflect no_shear #
lump $-1 $-1 $26 $2 #
transform $-1 1 0 0 0 1 0 0 0 1 54.02020325327311 27.371478272442317 9.2478457490326988 1 rotate no_reflect no_shear #
lump $-1 $-1 $27 $3 #
transform $-1 1 0 0 0 1 0 0 0 1 54.02020325327311 27.371478272442317 9.2478457490326988 1 rotate no_reflect no_shear #
lump $-1 $-1 $28 $4 #
transform $-1 1 0 0 0 1 0 0 0 1 54.02020325327311 27.371478272442317 9.2478457490326988 1 rotate no_reflect no_shear #
lump $-1 $-1 $29 $5 #
transform $-1 1 0 0 0 1 0 0 0 1 54.02020325327311 27.371478272442317 9.2478457490326988 1 rotate no_reflect no_shear #
lump $-1 $-1 $30 $6 #
transform $-1 1 0 0 0 1 0 0 0 1 54.02020325327311 27.371478272442317 9.2478457490326988 1 rotate no_reflect no_shear #
lump $-1 $-1 $31 $7 #
transform $-1 1 0 0 0 1 0 0 0 1 54.02020325327311 27.371478272442317 9.2478457490326988 1 rotate no_reflect no_shear #
shell $-1 $-1 $-1 $32 $-1 $8 #
shell $-1 $-1 $-1 $33 $-1 $10 #
shell $-1 $-1 $-1 $34 $-1 $12 #
shell $-1 $-1 $-1 $35 $-1 $14 #
shell $-1 $-1 $-1 $36 $-1 $16 #
shell $-1 $-1 $-1 $37 $-1 $18 #
shell $-1 $-1 $-1 $38 $-1 $20 #
shell $-1 $-1 $-1 $39 $-1 $22 #
face $-1 $40 $41 $24 $-1 $42 forward single #
face $-1 $43 $44 $25 $-1 $45 forward single #
face $-1 $46 $47 $26 $-1 $48 reversed single #
face $-1 $49 $50 $27 $-1 $51 forward single #
face $-1 $52 $53 $28 $-1 $54 forward single #
face $-1 $55 $56 $29 $-1 $57 reversed single #
face $-1 $58 $59 $30 $-1 $60 forward single #
face $-1 $61 $62 $31 $-1 $63 forward single #
face $-1 $64 $65 $24 $-1 $66 reversed single #
loop $-1 $-1 $67 $32 #
plane-surface $-1 0 0 9.2478457490326988 0 0 1 1 0 0 forward_v I I I I #
face $-1 $68 $69 $25 $-1 $70 forward single #
loop $-1 $-1 $71 $33 #
plane-surface $-1 -54.02020325327311 0 0 1 0 0 0 0 -1 forward_v I I I I #
face $-1 $72 $73 $26 $-1 $74 reversed single #
loop $-1 $-1 $75 $34 #
plane-surface $-1 36.217219256208921 46.588054811513189 122.9785945898702 1 0 0 0 -0.5877852598018023 -0.80901698891910034 forward_v I I I I #
face $-1 $76 $77 $27 $-1 $78 forward single #
loop $-1 $79 $80 $35 #
cone-surface $-1 41.303786112512981 22.590829684715228 5.2853341914054202 0 -0.5877852598018023 -0.80901698891910034 1.5 0 0 1 I I 0 1 1.5 forward I I I I #
face $-1 $81 $82 $28 $-1 $83 forward single #
loop $-1 $84 $85 $36 #
cone-surface $-1 48.933636396969064 22.590829684715228 5.2853341914054202 0 -0.5877852598018023 -0.80901698891910034 1.5 0 0 1 I I 0 1 1.5 forward I I I I #
face $-1 $86 $87 $29 $-1 $88 reversed single #
loop $-1 $-1 $89 $37 #
plane-surface $-1 39.80402454141327 -27.371478272442317 3.8493456825914052 0 -0.7660444514056185 0.64278759981090561 1 0 0 forward_v I I I I #
face $-1 $90 $91 $30 $-1 $92 forward single #
loop $-1 $93 $94 $38 #
cone-surface $-1 33.711376522044759 -22.967262414494293 4.7535298840820506 0 0.7660444514056185 -0.64278759981090561 1.5 0 0 1 I I 0 1 1.5 forward I I I I #
face $-1 $95 $96 $31 $-1 $97 forward single #
loop $-1 $98 $99 $39 #
cone-surface $-1 45.896672560781752 -22.967262414494293 4.7535298840820506 0 0.7660444514056185 -0.64278759981090561 1.5 0 0 1 I I 0 1 1.5 forward I I I I #
face $-1 $100 $101 $24 $-1 $102 reversed single #
loop $-1 $-1 $103 $40 #
plane-surface $-1 0 0 -9.2478457490326988 0 0 1 1 0 0 forward_v I I I I #
coedge $-1 $104 $105 $106 $107 forward $41 $-1 #
face $-1 $108 $109 $25 $-1 $110 reversed single #
loop $-1 $-1 $111 $43 #
plane-surface $-1 0 0 9.2478457490326988 0 0 1 1 0 0 forward_v I I I I #
coedge $-1 $112 $113 $114 $115 forward $44 $-1 #
face $-1 $116 $117 $26 $-1 $118 forward single #
loop $-1 $-1 $119 $46 #
plane-surface $-1 45.118711254741015 -16.916503596029415 35.572070236348594 0 0.5877852598018023 0.80901698891910034 1 0 0 forward_v I I I I #
coedge $-1 $120 $121 $122 $123 reversed $47 $-1 #
face $-1 $-1 $124 $27 $-1 $125 forward single #
loop $-1 $126 $127 $49 #
cone-surface $-1 41.303786112512981 21.397240112605417 3.642499115957758 0 -0.5877852598018023 -0.80901698891910034 0.75 0 0 1 I I -0.70710678118654757 0.70710678118654757 0.75 forward I I I I #
loop $-1 $-1 $128 $35 #
coedge $-1 $80 $80 $129 $130 reversed $50 $-1 #
face $-1 $-1 $131 $28 $-1 $132 forward single #
loop $-1 $133 $134 $52 #
cone-surface $-1 48.933636396969064 21.397240112605417 3.642499115957758 0 -0.5877852598018023 -0.80901698891910034 0.75 0 0 1 I I -0.70710678118654757 0.70710678118654757 0.75 forward I I I I #
loop $-1 $-1 $135 $36 #
coedge $-1 $85 $85 $136 $137 reversed $53 $-1 #
face $-1 $138 $139 $29 $-1 $140 reversed single #
loop $-1 $-1 $141 $55 #
plane-surface $-1 25.58784582955343 -110.13523220438952 73.296379263528792 1 0 0 0 0.7660444514056185 -0.64278759981090561 forward_v I I I I #
coedge $-1 $142 $143 $144 $145 reversed $56 $-1 #
face $-1 $-1 $146 $30 $-1 $147 forward single #
loop $-1 $148 $149 $58 #
cone-surface $-1 33.711376522044759 -20.253452866023927 2.4763733524938765 0 0.7660444514056185 -0.64278759981090561 0.75 0 0 1 I I -0.70710678118654757 0.70710678118654757 0.75 forward I I I I #
loop $-1 $-1 $150 $38 #
coedge $-1 $94 $94 $151 $152 reversed $59 $-1 #
face $-1 $-1 $153 $31 $-1 $154 forward single #
loop $-1 $155 $156 $61 #
cone-surface $-1 45.896672560781752 -20.253452866023927 2.4763733524938765 0 0.7660444514056185 -0.64278759981090561 0.75 0 0 1 I I -0.70710678118654757 0.70710678118654757 0.75 forward I I I I #
loop $-1 $-1 $157 $39 #
coedge $-1 $99 $99 $158 $159 reversed $62 $-1 #
face $-1 $160 $161 $24 $-1 $162 reversed single #
loop $-1 $-1 $163 $64 #
plane-surface $-1 0 -27.371478272442317 0 0 1 0 0 0 1 forward_v I I I I #
coedge $-1 $164 $165 $166 $167 forward $65 $-1 #
coedge $-1 $168 $67 $169 $170 forward $41 $-1 #
coedge $-1 $67 $168 $171 $172 forward $41 $-1 #
coedge $-1 $173 $174 $67 $107 reversed $175 $-1 #
edge $-1 $176 -27.371478272442317 $177 27.371478272442317 $106 $178 forward 7 unknown #
face $-1 $179 $180 $25 $-1 $181 reversed single #
loop $-1 $-1 $182 $68 #
plane-surface $-1 -61.147160414272548 -25.16333531288371 0 1 0 0 0 0 -1 forward_v I I I I #
coedge $-1 $183 $184 $112 $185 forward $69 $-1 #
coedge $-1 $186 $71 $111 $185 reversed $44 $-1 #
coedge $-1 $71 $186 $187 $188 reversed $44 $-1 #
coedge $-1 $189 $190 $71 $115 reversed $180 $-1 #
edge $-1 $191 -9.2478457490326988 $192 9.2478457490326988 $114 $193 forward 7 unknown #
face $-1 $194 $195 $26 $-1 $196 reversed single #
loop $-1 $-1 $122 $72 #
plane-surface $-1 0 0 9.2478457490326988 0 0 1 1 0 0 forward_v I I I I #
coedge $-1 $197 $198 $199 $200 reversed $73 $-1 #
coedge $-1 $121 $75 $201 $202 reversed $47 $-1 #
coedge $-1 $75 $120 $197 $203 reversed $47 $-1 #
coedge $-1 $199 $204 $75 $123 forward $117 $-1 #
edge $-1 $205 -4.077450866685723 $206 3.9783450542515482 $122 $207 forward 7 unknown #
loop $-1 $-1 $129 $76 #
plane-surface $-1 45.118711254741015 -16.916503596029415 35.572070236348594 0 0.5877852598018023 0.80901698891910034 1 0 0 forward_v I I I I #
loop $-1 $-1 $208 $49 #
coedge $-1 $127 $127 $128 $209 reversed $77 $-1 #
coedge $-1 $128 $128 $127 $209 forward $79 $-1 #
coedge $-1 $129 $129 $80 $130 forward $124 $-1 #
edge $-1 $210 3.5188640939455945e-016 $210 6.2831853071796004 $129 $211 forward 7 unknown #
loop $-1 $-1 $136 $81 #
plane-surface $-1 45.118711254741015 -16.916503596029415 35.572070236348594 0 0.5877852598018023 0.80901698891910034 1 0 0 forward_v I I I I #
loop $-1 $-1 $212 $52 #
coedge $-1 $134 $134 $135 $213 reversed $82 $-1 #
coedge $-1 $135 $135 $134 $213 forward $84 $-1 #
coedge $-1 $136 $136 $85 $137 forward $131 $-1 #
edge $-1 $214 3.5188640939455945e-016 $214 6.2831853071796004 $136 $215 forward 7 unknown #
face $-1 $216 $217 $29 $-1 $218 forward single #
loop $-1 $-1 $219 $86 #
plane-surface $-1 54.02020325327311 0 0 -1 0 0 0 0 1 forward_v I I I I #
coedge $-1 $220 $221 $222 $223 reversed $87 $-1 #
coedge $-1 $224 $89 $219 $225 reversed $56 $-1 #
coedge $-1 $89 $224 $220 $226 forward $56 $-1 #
coedge $-1 $222 $227 $89 $145 forward $217 $-1 #
edge $-1 $228 -34.118190982566475 $229 -5.6858335588467952 $144 $230 forward 7 unknown #
loop $-1 $-1 $151 $90 #
plane-surface $-1 39.80402454141327 -27.371478272442317 3.8493456825914052 0 -0.7660444514056185 0.64278759981090561 1 0 0 forward_v I I I I #
loop $-1 $-1 $231 $58 #
coedge $-1 $149 $149 $150 $232 reversed $91 $-1 #
coedge $-1 $150 $150 $149 $232 forward $93 $-1 #
coedge $-1 $151 $151 $94 $152 forward $146 $-1 #
edge $-1 $233 3.2331713013742915e-016 $233 6.2831853071796004 $151 $234 forward 7 unknown #
loop $-1 $-1 $158 $95 #
plane-surface $-1 39.80402454141327 -27.371478272442317 3.8493456825914052 0 -0.7660444514056185 0.64278759981090561 1 0 0 forward_v I I I I #
loop $-1 $-1 $235 $61 #
coedge $-1 $156 $156 $157 $236 reversed $96 $-1 #
coedge $-1 $157 $157 $156 $236 forward $98 $-1 #
coedge $-1 $158 $158 $99 $159 forward $153 $-1 #
edge $-1 $237 3.2331713013742915e-016 $237 6.2831853071796004 $158 $238 forward 7 unknown #
face $-1 $239 $240 $24 $-1 $241 reversed single #
loop $-1 $-1 $242 $100 #
plane-surface $-1 -54.02020325327311 0 0 1 0 0 0 0 -1 forward_v I I I I #
coedge $-1 $243 $171 $244 $245 forward $101 $-1 #
coedge $-1 $246 $103 $243 $247 forward $65 $-1 #
coedge $-1 $103 $246 $248 $249 forward $65 $-1 #
coedge $-1 $174 $173 $103 $167 reversed $175 $-1 #
edge $-1 $250 -27.371478272442317 $251 27.371478272442317 $166 $252 forward 7 unknown #
coedge $-1 $105 $104 $242 $253 forward $41 $-1 #
coedge $-1 $254 $255 $104 $170 reversed $240 $-1 #
edge $-1 $177 -54.02020325327311 $256 54.02020325327311 $169 $257 forward 7 unknown #
coedge $-1 $163 $258 $105 $172 reversed $101 $-1 #
edge $-1 $259 -54.02020325327311 $176 54.02020325327311 $171 $260 forward 7 unknown #
coedge $-1 $166 $106 $258 $261 forward $175 $-1 #
coedge $-1 $106 $166 $254 $262 reversed $175 $-1 #
loop $-1 $-1 $173 $239 #
vertex $-1 $107 $263 #
vertex $-1 $107 $264 #
straight-curve $-1 54.02020325327311 0 9.2478457490326988 0 1 0 I I #
face $-1 $265 $266 $25 $-1 $267 reversed single #
loop $-1 $-1 $114 $108 #
plane-surface $-1 -57.583681833772829 -22.955192353325103 0 0 -1 0 0 0 -1 forward_v I I I I #
coedge $-1 $268 $269 $270 $271 forward $109 $-1 #
coedge $-1 $272 $111 $190 $273 forward $69 $-1 #
coedge $-1 $111 $272 $274 $275 forward $69 $-1 #
edge $-1 $276 -27.371478272442317 $192 -22.955192353325103 $111 $277 forward 7 unknown #
coedge $-1 $113 $112 $278 $279 reversed $44 $-1 #
coedge $-1 $280 $281 $113 $188 forward $266 $-1 #
edge $-1 $191 22.955192353325103 $282 27.371478272442317 $187 $283 forward 7 unknown #
coedge $-1 $270 $114 $281 $284 reversed $180 $-1 #
coedge $-1 $114 $270 $183 $273 reversed $180 $-1 #
vertex $-1 $188 $285 #
vertex $-1 $273 $286 #
straight-curve $-1 -54.02020325327311 -22.955192353325103 0 0 0 1 I I #
face $-1 $-1 $287 $26 $-1 $288 reversed single #
loop $-1 $-1 $289 $116 #
plane-surface $-1 54.02020325327311 0 0 -1 0 0 0 0 1 forward_v I I I I #
coedge $-1 $290 $119 $121 $203 forward $73 $-1 #
coedge $-1 $119 $290 $289 $291 reversed $73 $-1 #
coedge $-1 $292 $122 $119 $200 forward $117 $-1 #
edge $-1 $206 13.657863628838413 $293 31.460847625902602 $199 $294 forward 7 unknown #
coedge $-1 $295 $296 $120 $202 forward $287 $-1 #
edge $-1 $297 -58.094329993640301 $205 -52.2414515459024 $201 $298 forward 7 unknown #
edge $-1 $206 44.785445106589208 $297 54.742956544884635 $121 $299 forward 7 unknown #
coedge $-1 $122 $292 $295 $300 forward $117 $-1 #
vertex $-1 $202 $301 #
vertex $-1 $123 $302 #
straight-curve $-1 36.217219256208921 23.294027405756594 9.2478457490326988 0 -1 0 I I #
coedge $-1 $208 $208 $-1 $303 reversed $126 $-1 #
edge $-1 $304 0 $304 6.2831853071796004 $127 $305 forward 7 unknown #
vertex $-1 $130 $306 #
ellipse-curve $-1 41.303786112512981 23.343580311973682 6.3214065251637486 0 0.5877852598018023 0.80901698891910034 1.5 0 0 1 I I #
coedge $-1 $212 $212 $-1 $307 reversed $133 $-1 #
edge $-1 $308 0 $308 6.2831853071796004 $134 $309 forward 7 unknown #
vertex $-1 $137 $310 #
ellipse-curve $-1 48.933636396969064 23.343580311973682 6.3214065251637486 0 0.5877852598018023 0.80901698891910034 1.5 0 0 1 I I #
face $-1 $-1 $311 $29 $-1 $312 reversed single #
loop $-1 $-1 $144 $138 #
plane-surface $-1 0 0 9.2478457490326988 0 0 1 1 0 0 forward_v I I I I #
coedge $-1 $313 $314 $142 $225 forward $139 $-1 #
coedge $-1 $221 $141 $143 $226 reversed $87 $-1 #
coedge $-1 $141 $220 $315 $316 reversed $87 $-1 #
coedge $-1 $317 $144 $141 $223 forward $217 $-1 #
edge $-1 $229 -32.226017125816185 $318 -27.696137829752445 $222 $319 forward 7 unknown #
coedge $-1 $143 $142 $320 $321 reversed $56 $-1 #
edge $-1 $322 -7.3226384601641179 $228 -0.27539719820397696 $219 $323 forward 7 unknown #
edge $-1 $324 0 $229 7.0472412619601421 $220 $325 forward 7 unknown #
coedge $-1 $144 $317 $313 $326 forward $217 $-1 #
vertex $-1 $145 $327 #
vertex $-1 $145 $328 #
straight-curve $-1 19.902012270706635 -22.841598976378581 9.2478457490326988 -1 0 0 I I #
coedge $-1 $231 $231 $-1 $329 reversed $148 $-1 #
edge $-1 $330 0 $330 6.2831853071796004 $149 $331 forward 7 unknown #
vertex $-1 $152 $332 #
ellipse-curve $-1 33.711376522044759 -25.106538624410451 6.5485957158120502 0 -0.7660444514056185 0.64278759981090561 1.5 0 0 1 I I #
coedge $-1 $235 $235 $-1 $333 reversed $155 $-1 #
edge $-1 $334 0 $334 6.2831853071796004 $156 $335 forward 7 unknown #
vertex $-1 $159 $336 #
ellipse-curve $-1 45.896672560781752 -25.106538624410451 6.5485957158120502 0 -0.7660444514056185 0.64278759981090561 1.5 0 0 1 I I #
face $-1 $-1 $175 $24 $-1 $337 reversed single #
loop $-1 $-1 $254 $160 #
plane-surface $-1 0 27.371478272442317 0 0 -1 0 0 0 -1 forward_v I I I I #
coedge $-1 $338 $244 $168 $253 reversed $161 $-1 #
coedge $-1 $258 $163 $164 $247 reversed $101 $-1 #
coedge $-1 $242 $339 $163 $245 reversed $161 $-1 #
edge $-1 $259 -9.2478457490326988 $340 9.2478457490326988 $244 $341 forward 7 unknown #
coedge $-1 $165 $164 $339 $342 forward $65 $-1 #
edge $-1 $251 -54.02020325327311 $340 54.02020325327311 $243 $343 forward 7 unknown #
coedge $-1 $255 $254 $165 $249 reversed $240 $-1 #
edge $-1 $344 -54.02020325327311 $250 54.02020325327311 $248 $345 forward 7 unknown #
vertex $-1 $167 $346 #
vertex $-1 $261 $347 #
straight-curve $-1 54.02020325327311 0 -9.2478457490326988 0 -1 0 I I #
edge $-1 $256 -27.371478272442317 $259 27.371478272442317 $242 $348 forward 7 unknown #
coedge $-1 $248 $169 $174 $262 forward $240 $-1 #
coedge $-1 $169 $248 $338 $349 reversed $240 $-1 #
vertex $-1 $170 $350 #
straight-curve $-1 0 27.371478272442317 9.2478457490326988 -1 0 0 I I #
coedge $-1 $171 $243 $173 $261 reversed $101 $-1 #
vertex $-1 $253 $351 #
straight-curve $-1 0 -27.371478272442317 9.2478457490326988 1 0 0 I I #
edge $-1 $176 -9.2478457490326988 $251 9.2478457490326988 $173 $352 forward 7 unknown #
edge $-1 $177 -9.2478457490326988 $250 9.2478457490326988 $174 $353 forward 7 unknown #
point $-1 54.02020325327311 -27.371478272442317 9.2478457490326988 #
point $-1 54.02020325327311 27.371478272442317 9.2478457490326988 #
face $-1 $-1 $354 $25 $-1 $355 reversed single #
loop $-1 $-1 $187 $179 #
plane-surface $-1 0 0 -9.2478457490326988 0 0 1 1 0 0 forward_v I I I I #
coedge $-1 $356 $182 $357 $358 reversed $109 $-1 #
coedge $-1 $182 $356 $272 $359 reversed $109 $-1 #
coedge $-1 $190 $189 $182 $271 reversed $180 $-1 #
edge $-1 $360 -9.2478457490326988 $361 9.2478457490326988 $270 $362 forward 7 unknown #
coedge $-1 $184 $183 $269 $359 forward $69 $-1 #
edge $-1 $192 -3.5634785804997193 $360 3.5634785804997193 $190 $363 forward 7 unknown #
coedge $-1 $364 $278 $184 $275 reversed $354 $-1 #
edge $-1 $365 -61.147160414272548 $276 -54.02020325327311 $274 $366 forward 7 unknown #
vertex $-1 $279 $367 #
straight-curve $-1 -54.02020325327311 0 9.2478457490326988 0 1 0 I I #
coedge $-1 $274 $368 $186 $279 forward $354 $-1 #
edge $-1 $282 -9.2478457490326988 $276 9.2478457490326988 $278 $369 forward 7 unknown #
coedge $-1 $357 $187 $368 $370 forward $266 $-1 #
coedge $-1 $187 $357 $189 $284 forward $266 $-1 #
vertex $-1 $370 $371 #
straight-curve $-1 -54.02020325327311 0 -9.2478457490326988 0 -1 0 I I #
edge $-1 $361 -3.5634785804997193 $191 3.5634785804997193 $189 $372 forward 7 unknown #
point $-1 -54.02020325327311 -22.955192353325103 -9.2478457490326988 #
point $-1 -54.02020325327311 -22.955192353325103 9.2478457490326988 #
loop $-1 $-1 $201 $194 #
plane-surface $-1 0 27.371478272442317 0 0 -1 0 0 0 -1 forward_v I I I I #
coedge $-1 $373 $374 $198 $291 forward $195 $-1 #
coedge $-1 $198 $197 $296 $375 reversed $73 $-1 #
edge $-1 $293 27.488206432659723 $376 37.445717870955164 $289 $377 forward 7 unknown #
coedge $-1 $204 $199 $374 $378 forward $117 $-1 #
vertex $-1 $378 $379 #
straight-curve $-1 22.559355627370508 19.315682351505053 9.2478457490326988 1 0 0 I I #
coedge $-1 $380 $201 $204 $300 reversed $287 $-1 #
coedge $-1 $201 $380 $290 $375 forward $287 $-1 #
vertex $-1 $202 $381 #
straight-curve $-1 36.217219256208921 27.371478272442317 61.489297294935099 0 0 1 I I #
straight-curve $-1 36.217219256208921 -16.916503596029415 35.572070236348594 0 0.80901698891910034 -0.5877852598018023 I I #
edge $-1 $382 -54.02020325327311 $205 -36.217219256208921 $295 $383 forward 7 unknown #
point $-1 36.217219256208921 27.371478272442317 9.2478457490326988 #
point $-1 36.217219256208921 19.315682351505046 9.2478457490326988 #
edge $-1 $384 1 $384 0 $208 $-1 forward 7 unknown #
vertex $-1 $209 $385 #
ellipse-curve $-1 41.303786112512981 21.838079057456767 4.2492618576470829 0 0.5877852598018023 0.80901698891910034 1.5 0 0 1 I I #
point $-1 42.803786112512981 23.343580311973689 6.3214065251637575 #
edge $-1 $386 1 $386 0 $212 $-1 forward 7 unknown #
vertex $-1 $213 $387 #
ellipse-curve $-1 48.933636396969064 21.838079057456767 4.2492618576470829 0 0.5877852598018023 0.80901698891910034 1.5 0 0 1 I I #
point $-1 50.433636396969064 23.343580311973689 6.3214065251637575 #
loop $-1 $-1 $320 $216 #
plane-surface $-1 0 -27.371478272442317 0 0 1 0 0 0 1 forward_v I I I I #
coedge $-1 $314 $219 $227 $326 reversed $139 $-1 #
coedge $-1 $219 $313 $388 $389 forward $139 $-1 #
coedge $-1 $320 $390 $221 $316 forward $311 $-1 #
edge $-1 $318 27.400343882731697 $324 32.798843949172991 $315 $391 forward 7 unknown #
coedge $-1 $227 $222 $390 $392 forward $217 $-1 #
vertex $-1 $392 $393 #
straight-curve $-1 25.58784582955343 -55.067616102194762 9.2478457490326988 0 -1 0 I I #
coedge $-1 $388 $315 $224 $321 forward $311 $-1 #
edge $-1 $324 5.6858335588467952 $322 34.118190982566475 $320 $394 forward 7 unknown #
vertex $-1 $321 $395 #
straight-curve $-1 54.02020325327311 -22.664577072350397 9.4588122446495078 0 0.64278759981090572 0.76604445140561861 I I #
vertex $-1 $321 $396 #
straight-curve $-1 25.58784582955343 -27.371478272442317 3.8493456825914052 0 0.64278759981090561 0.7660444514056185 I I #
edge $-1 $397 -27.371478272442317 $228 -22.841598976378581 $313 $398 forward 7 unknown #
point $-1 54.02020325327311 -22.841598976378581 9.2478457490326988 #
point $-1 25.58784582955343 -22.841598976378581 9.2478457490326988 #
edge $-1 $399 1 $399 0 $231 $-1 forward 7 unknown #
vertex $-1 $232 $400 #
ellipse-curve $-1 33.711376522044759 -20.827986204578142 2.9584640523520558 0 -0.7660444514056185 0.64278759981090561 1.5 0 0 1 I I #
point $-1 35.211376522044759 -25.106538624410444 6.5485957158120449 #
edge $-1 $401 1 $401 0 $235 $-1 forward 7 unknown #
vertex $-1 $236 $402 #
ellipse-curve $-1 45.896672560781752 -20.827986204578142 2.9584640523520558 0 -0.7660444514056185 0.64278759981090561 1.5 0 0 1 I I #
point $-1 47.396672560781752 -25.106538624410444 6.5485957158120449 #
plane-surface $-1 54.02020325327311 0 0 -1 0 0 0 0 1 forward_v I I I I #
coedge $-1 $339 $242 $255 $349 forward $161 $-1 #
coedge $-1 $244 $338 $246 $342 reversed $161 $-1 #
vertex $-1 $342 $403 #
straight-curve $-1 -54.02020325327311 -27.371478272442317 0 0 0 -1 I I #
edge $-1 $340 -27.371478272442317 $344 27.371478272442317 $339 $404 forward 7 unknown #
straight-curve $-1 0 -27.371478272442317 -9.2478457490326988 -1 0 0 I I #
vertex $-1 $249 $405 #
straight-curve $-1 0 27.371478272442317 -9.2478457490326988 1 0 0 I I #
point $-1 54.02020325327311 27.371478272442317 -9.2478457490326988 #
point $-1 54.02020325327311 -27.371478272442317 -9.2478457490326988 #
straight-curve $-1 -54.02020325327311 0 9.2478457490326988 0 -1 0 I I #
edge $-1 $256 -9.2478457490326988 $344 9.2478457490326988 $255 $406 forward 7 unknown #
point $-1 -54.02020325327311 27.371478272442317 9.2478457490326988 #
point $-1 -54.02020325327311 -27.371478272442317 9.2478457490326988 #
straight-curve $-1 54.02020325327311 -27.371478272442317 0 0 0 -1 I I #
straight-curve $-1 54.02020325327311 27.371478272442317 0 0 0 -1 I I #
loop $-1 $-1 $278 $265 #
plane-surface $-1 0 -27.371478272442317 0 0 1 0 0 0 1 forward_v I I I I #
coedge $-1 $269 $268 $364 $407 reversed $109 $-1 #
coedge $-1 $281 $280 $268 $358 forward $266 $-1 #
edge $-1 $408 -2.2081429595586073 $361 2.2081429595586073 $268 $409 forward 7 unknown #
edge $-1 $360 -2.2081429595586073 $365 2.2081429595586073 $269 $410 forward 7 unknown #
vertex $-1 $273 $411 #
vertex $-1 $284 $412 #
straight-curve $-1 -61.147160414272548 -22.955192353325103 0 0 0 -1 I I #
straight-curve $-1 -57.583681833772829 -22.955192353325103 9.2478457490326988 -1 0 0 I I #
coedge $-1 $368 $274 $356 $407 forward $354 $-1 #
vertex $-1 $359 $413 #
straight-curve $-1 0 -27.371478272442317 9.2478457490326988 1 0 0 I I #
point $-1 -54.02020325327311 -27.371478272442317 9.2478457490326988 #
coedge $-1 $278 $364 $280 $370 reversed $354 $-1 #
straight-curve $-1 -54.02020325327311 -27.371478272442317 0 0 0 1 I I #
edge $-1 $282 -3.5634785804997193 $408 3.5634785804997193 $368 $414 forward 7 unknown #
point $-1 -54.02020325327311 -27.371478272442317 -9.2478457490326988 #
straight-curve $-1 -57.583681833772829 -22.955192353325103 -9.2478457490326988 1 0 0 I I #
coedge $-1 $374 $289 $380 $415 reversed $195 $-1 #
coedge $-1 $289 $373 $292 $378 reversed $195 $-1 #
edge $-1 $376 -31.460847625902602 $297 -13.657863628838413 $296 $416 forward 7 unknown #
vertex $-1 $291 $417 #
straight-curve $-1 54.02020325327311 -2.9227436474319717 25.40500830853917 0 0.80901698891910034 -0.5877852598018023 I I #
edge $-1 $293 19.315682351505046 $382 27.371478272442317 $374 $418 forward 7 unknown #
point $-1 54.02020325327311 19.315682351505046 9.2478457490326988 #
coedge $-1 $296 $295 $373 $415 forward $287 $-1 #
point $-1 36.217219256208921 27.371478272442317 3.3949673012947983 #
vertex $-1 $378 $419 #
straight-curve $-1 0 27.371478272442317 9.2478457490326988 -1 0 0 I I #
vertex $-1 $303 $420 #
point $-1 42.803786112512981 21.838079057456767 4.2492618576470829 #
vertex $-1 $307 $421 #
point $-1 50.433636396969064 21.838079057456767 4.2492618576470829 #
coedge $-1 $390 $320 $314 $389 reversed $311 $-1 #
edge $-1 $397 -9.2478457490326988 $322 -3.8493456825914052 $314 $422 forward 7 unknown #
coedge $-1 $315 $388 $317 $392 reversed $311 $-1 #
straight-curve $-1 25.58784582955343 -27.371478272442317 36.648189631764396 0 0 -1 I I #
edge $-1 $318 25.58784582955343 $397 54.02020325327311 $390 $423 forward 7 unknown #
point $-1 25.58784582955343 -27.371478272442317 9.2478457490326988 #
straight-curve $-1 19.902012270706635 -27.371478272442317 3.8493456825914034 1 0 0 I I #
point $-1 54.02020325327311 -27.371478272442317 3.8493456825914052 #
point $-1 25.58784582955343 -27.371478272442317 3.8493456825914052 #
vertex $-1 $326 $424 #
straight-curve $-1 54.02020325327311 0 9.2478457490326988 0 1 0 I I #
vertex $-1 $329 $425 #
point $-1 35.211376522044759 -20.827986204578142 2.9584640523520558 #
vertex $-1 $333 $426 #
point $-1 47.396672560781752 -20.827986204578142 2.9584640523520558 #
point $-1 -54.02020325327311 -27.371478272442317 -9.2478457490326988 #
straight-curve $-1 -54.02020325327311 0 -9.2478457490326988 0 1 0 I I #
point $-1 -54.02020325327311 27.371478272442317 -9.2478457490326988 #
straight-curve $-1 -54.02020325327311 27.371478272442317 0 0 0 -1 I I #
edge $-1 $365 -9.2478457490326988 $408 9.2478457490326988 $356 $427 forward 7 unknown #
vertex $-1 $358 $428 #
straight-curve $-1 -61.147160414272548 -25.16333531288371 -9.2478457490326988 0 1 0 I I #
straight-curve $-1 -61.147160414272548 -25.16333531288371 9.2478457490326988 0 -1 0 I I #
point $-1 -61.147160414272548 -22.955192353325103 9.2478457490326988 #
point $-1 -61.147160414272548 -22.955192353325103 -9.2478457490326988 #
point $-1 -61.147160414272548 -27.371478272442317 9.2478457490326988 #
straight-curve $-1 -57.583681833772829 -27.371478272442317 -9.2478457490326988 -1 0 0 I I #
edge $-1 $382 -9.2478457490326988 $376 -3.3949673012947983 $373 $429 forward 7 unknown #
straight-curve $-1 22.559355627370508 27.371478272442317 3.3949673012948001 -1 0 0 I I #
point $-1 54.02020325327311 27.371478272442317 3.3949673012947983 #
straight-curve $-1 54.02020325327311 0 9.2478457490326988 0 1 0 I I #
point $-1 54.02020325327311 27.371478272442317 9.2478457490326988 #
point $-1 41.303786112512981 20.956401167754066 3.0357363742684327 #
point $-1 48.933636396969064 20.956401167754066 3.0357363742684327 #
straight-curve $-1 54.02020325327311 -27.371478272442317 0 0 0 -1 I I #
straight-curve $-1 0 -27.371478272442317 9.2478457490326988 1 0 0 I I #
point $-1 54.02020325327311 -27.371478272442317 9.2478457490326988 #
point $-1 33.711376522044759 -19.678919527469713 1.9942826526356972 #
point $-1 45.896672560781752 -19.678919527469713 1.9942826526356972 #
straight-curve $-1 -61.147160414272548 -27.371478272442317 0 0 0 -1 I I #
point $-1 -61.147160414272548 -27.371478272442317 -9.2478457490326988 #
straight-curve $-1 54.02020325327311 27.371478272442317 0 0 0 -1 I I #
End-of-ACIS-data 