500 0 9 0           
7 Unknown 11 ACIS 5.0 NT 24 Fri Mar 26 19:15:15 1999 
-1 9.9999999999999995e-007 1e-010 
body $-1 $9 $-1 $10 #
body $-1 $11 $-1 $12 #
body $-1 $13 $-1 $14 #
body $-1 $15 $-1 $16 #
body $-1 $17 $-1 $18 #
body $-1 $19 $-1 $20 #
body $-1 $21 $-1 $22 #
body $-1 $23 $-1 $24 #
body $-1 $25 $-1 $26 #
lump $-1 $-1 $27 $0 #
transform $-1 1 0 0 0 1 0 0 0 1 61.203039643543811 29.82581187279996 9.2108937499080596 1 rotate no_reflect no_shear #
lump $-1 $-1 $28 $1 #
transform $-1 1 0 0 0 1 0 0 0 1 61.203039643543811 29.82581187279996 9.2108937499080596 1 rotate no_reflect no_shear #
lump $-1 $-1 $29 $2 #
transform $-1 1 0 0 0 1 0 0 0 1 61.203039643543811 29.82581187279996 9.2108937499080596 1 rotate no_reflect no_shear #
lump $-1 $-1 $30 $3 #
transform $-1 1 0 0 0 1 0 0 0 1 61.203039643543811 29.82581187279996 9.2108937499080596 1 rotate no_reflect no_shear #
lump $-1 $-1 $31 $4 #
transform $-1 1 0 0 0 1 0 0 0 1 61.203039643543811 29.82581187279996 9.2108937499080596 1 rotate no_reflect no_shear #
lump $-1 $-1 $32 $5 #
transform $-1 1 0 0 0 1 0 0 0 1 61.203039643543811 29.82581187279996 9.2108937499080596 1 rotate no_reflect no_shear #
lump $-1 $-1 $33 $6 #
transform $-1 1 0 0 0 1 0 0 0 1 61.203039643543811 29.82581187279996 9.2108937499080596 1 rotate no_reflect no_shear #
lump $-1 $-1 $34 $7 #
transform $-1 1 0 0 0 1 0 0 0 1 61.203039643543811 29.82581187279996 9.2108937499080596 1 rotate no_reflect no_shear #
lump $-1 $-1 $35 $8 #
transform $-1 1 0 0 0 1 0 0 0 1 61.203039643543811 29.82581187279996 9.2108937499080596 1 rotate no_reflect no_shear #
shell $-1 $-1 $-1 $36 $-1 $9 #
shell $-1 $-1 $-1 $37 $-1 $11 #
shell $-1 $-1 $-1 $38 $-1 $13 #
shell $-1 $-1 $-1 $39 $-1 $15 #
shell $-1 $-1 $-1 $40 $-1 $17 #
shell $-1 $-1 $-1 $41 $-1 $19 #
shell $-1 $-1 $-1 $42 $-1 $21 #
shell $-1 $-1 $-1 $43 $-1 $23 #
shell $-1 $-1 $-1 $44 $-1 $25 #
face $-1 $45 $46 $27 $-1 $47 forward single #
face $-1 $48 $49 $28 $-1 $50 reversed single #
face $-1 $51 $52 $29 $-1 $53 reversed single #
face $-1 $54 $55 $30 $-1 $56 forward single #
face $-1 $57 $58 $31 $-1 $59 forward single #
face $-1 $60 $61 $32 $-1 $62 forward single #
face $-1 $63 $64 $33 $-1 $65 reversed single #
face $-1 $66 $67 $34 $-1 $68 forward single #
face $-1 $69 $70 $35 $-1 $71 forward single #
face $-1 $72 $73 $27 $-1 $74 reversed single #
loop $-1 $-1 $75 $36 #
plane-surface $-1 0 0 9.2108937499080596 0 0 1 1 0 0 forward_v I I I I #
face $-1 $76 $77 $28 $-1 $78 reversed single #
loop $-1 $-1 $79 $37 #
plane-surface $-1 -45.781252143727691 -23.762113570313335 0 1 0 0 0 0 -1 forward_v I I I I #
face $-1 $80 $81 $29 $-1 $82 reversed single #
loop $-1 $-1 $83 $38 #
plane-surface $-1 -146.233448214307 -12.168935373859009 93.491568877104925 0 1 0 -0.69465837861970381 0 0.71933979245794832 forward_v I I I I #
face $-1 $84 $85 $30 $-1 $86 forward single #
loop $-1 $87 $88 $39 #
cone-surface $-1 -58.903275800579742 -10.319482221112434 6.9657795822951334 0.69465837861970381 0 -0.71933979245794832 0.35966989622897416 0 0.3473291893098519 1 I I 0 1 0.5 forward I I I I #
face $-1 $89 $90 $31 $-1 $91 forward single #
loop $-1 $92 $93 $40 #
cone-surface $-1 -58.903275800579742 -7.545302491992576 6.9657795822951334 0.69465837861970381 0 -0.71933979245794832 0.35966989622897416 0 0.3473291893098519 1 I I 0 1 0.5 forward I I I I #
face $-1 $94 $95 $32 $-1 $96 forward single #
loop $-1 $97 $98 $41 #
cone-surface $-1 -58.903275800579742 -4.771122762872718 6.9657795822951334 0.69465837861970381 0 -0.71933979245794832 0.35966989622897416 0 0.3473291893098519 1 I I 0 1 0.5 forward I I I I #
face $-1 $99 $100 $33 $-1 $101 reversed single #
loop $-1 $-1 $102 $42 #
plane-surface $-1 97.194289264829251 -11.416931808406439 170.11951771319769 0 -1 0 -0.83867057594974714 0 -0.54463902268945019 forward_v I I I I #
face $-1 $103 $104 $34 $-1 $105 forward single #
loop $-1 $106 $107 $43 #
cone-surface $-1 57.71860379701976 -15.903705707992346 4.51446081861818 -0.83867057594974714 0 -0.54463902268945019 0.2723195113447251 0 -0.41933528797487357 1 I I 0 1 0.5 forward I I I I #
face $-1 $108 $109 $35 $-1 $110 forward single #
loop $-1 $111 $112 $44 #
cone-surface $-1 57.71860379701976 -13.211641368240802 4.51446081861818 -0.83867057594974714 0 -0.54463902268945019 0.2723195113447251 0 -0.41933528797487357 1 I I 0 1 0.5 forward I I I I #
face $-1 $113 $114 $27 $-1 $115 reversed single #
loop $-1 $-1 $116 $45 #
plane-surface $-1 0 0 -9.2108937499080596 0 0 1 1 0 0 forward_v I I I I #
coedge $-1 $117 $118 $119 $120 forward $46 $-1 #
face $-1 $121 $122 $28 $-1 $123 reversed single #
loop $-1 $-1 $124 $48 #
plane-surface $-1 -44.281252143727691 -17.698415267826711 0 0 -1 0 0 0 -1 forward_v I I I I #
coedge $-1 $125 $126 $127 $128 forward $49 $-1 #
face $-1 $129 $130 $29 $-1 $131 reversed single #
loop $-1 $-1 $132 $51 #
plane-surface $-1 -61.203039643543804 -7.5453024919925795 5.4400052071401461 -0.69465837861970381 0 0.71933979245794832 0.71933979245794832 0 0.69465837861970381 forward_v I I I I #
coedge $-1 $133 $134 $135 $136 reversed $52 $-1 #
face $-1 $-1 $137 $30 $-1 $138 forward single #
loop $-1 $139 $140 $54 #
cone-surface $-1 -58.382282016614965 -10.319482221112434 6.4262747379516725 0.69465837861970381 0 -0.71933979245794832 0.17983494811448708 0 0.17366459465492595 1 I I -0.70710678118654746 0.70710678118654746 0.25 forward I I I I #
loop $-1 $-1 $141 $39 #
coedge $-1 $88 $88 $142 $143 reversed $55 $-1 #
face $-1 $-1 $144 $31 $-1 $145 forward single #
loop $-1 $146 $147 $57 #
cone-surface $-1 -58.382282016614965 -7.545302491992576 6.4262747379516725 0.69465837861970381 0 -0.71933979245794832 0.17983494811448708 0 0.17366459465492595 1 I I -0.70710678118654746 0.70710678118654746 0.25 forward I I I I #
loop $-1 $-1 $148 $40 #
coedge $-1 $93 $93 $149 $150 reversed $58 $-1 #
face $-1 $-1 $151 $32 $-1 $152 forward single #
loop $-1 $153 $154 $60 #
cone-surface $-1 -58.382282016614965 -4.771122762872718 6.4262747379516725 0.69465837861970381 0 -0.71933979245794832 0.17983494811448708 0 0.17366459465492595 1 I I -0.70710678118654746 0.70710678118654746 0.25 forward I I I I #
loop $-1 $-1 $155 $41 #
coedge $-1 $98 $98 $156 $157 reversed $61 $-1 #
face $-1 $158 $159 $33 $-1 $160 reversed single #
loop $-1 $-1 $161 $63 #
plane-surface $-1 -5.4640877506229373 -14.557673538116575 103.45239031903094 0.83867057594974714 0 0.54463902268945019 0.54463902268945019 0 -0.83867057594974714 forward_v I I I I #
coedge $-1 $162 $163 $164 $165 reversed $64 $-1 #
face $-1 $-1 $166 $34 $-1 $167 forward single #
loop $-1 $168 $169 $66 #
cone-surface $-1 56.757493255015767 -15.903705707992346 3.8903083548205828 -0.83867057594974714 0 -0.54463902268945019 0.13615975567236255 0 -0.20966764398743679 1 I I -0.70710678118654813 0.70710678118654691 0.25 forward I I I I #
loop $-1 $-1 $170 $43 #
coedge $-1 $107 $107 $171 $172 reversed $67 $-1 #
face $-1 $-1 $173 $35 $-1 $174 forward single #
loop $-1 $175 $176 $69 #
cone-surface $-1 56.757493255015767 -13.211641368240802 3.8903083548205828 -0.83867057594974714 0 -0.54463902268945019 0.13615975567236255 0 -0.20966764398743679 1 I I -0.70710678118654813 0.70710678118654691 0.25 forward I I I I #
loop $-1 $-1 $177 $44 #
coedge $-1 $112 $112 $178 $179 reversed $70 $-1 #
face $-1 $180 $181 $27 $-1 $182 reversed single #
loop $-1 $-1 $183 $72 #
plane-surface $-1 0 -29.82581187279996 0 0 1 0 0 0 1 forward_v I I I I #
coedge $-1 $184 $185 $186 $187 forward $73 $-1 #
coedge $-1 $188 $75 $189 $190 forward $46 $-1 #
coedge $-1 $75 $188 $191 $192 forward $46 $-1 #
coedge $-1 $193 $194 $75 $120 reversed $195 $-1 #
edge $-1 $196 -29.82581187279996 $197 29.82581187279996 $119 $198 forward 7 unknown #
face $-1 $199 $200 $28 $-1 $201 forward single #
loop $-1 $-1 $202 $76 #
plane-surface $-1 -42.781252143727691 -23.762113570313335 0 -1 0 0 0 0 1 forward_v I I I I #
coedge $-1 $203 $204 $205 $206 forward $77 $-1 #
coedge $-1 $207 $79 $208 $209 reversed $49 $-1 #
coedge $-1 $79 $207 $210 $211 reversed $49 $-1 #
coedge $-1 $204 $203 $79 $128 reversed $77 $-1 #
edge $-1 $212 -9.2108937499080596 $213 9.2108937499080596 $127 $214 forward 7 unknown #
face $-1 $215 $216 $29 $-1 $217 reversed single #
loop $-1 $-1 $218 $80 #
plane-surface $-1 -146.233448214307 -2.9216696101261501 93.491568877104925 0 -1 0 0.69465837861970381 0 -0.71933979245794832 forward_v I I I I #
coedge $-1 $219 $220 $221 $222 reversed $81 $-1 #
coedge $-1 $134 $83 $223 $224 reversed $52 $-1 #
coedge $-1 $83 $133 $219 $225 reversed $52 $-1 #
coedge $-1 $221 $226 $83 $136 forward $227 $-1 #
edge $-1 $228 11.913684463609691 $229 15.818553770918136 $135 $230 forward 7 unknown #
loop $-1 $-1 $142 $84 #
plane-surface $-1 -61.203039643543804 -7.5453024919925795 5.4400052071401461 -0.69465837861970381 0 0.71933979245794832 0.71933979245794832 0 0.69465837861970381 forward_v I I I I #
loop $-1 $-1 $231 $54 #
coedge $-1 $140 $140 $141 $232 reversed $85 $-1 #
coedge $-1 $141 $141 $140 $232 forward $87 $-1 #
coedge $-1 $142 $142 $88 $143 forward $137 $-1 #
edge $-1 $233 0 $233 6.2831853071796004 $142 $234 forward 7 unknown #
loop $-1 $-1 $149 $89 #
plane-surface $-1 -61.203039643543804 -7.5453024919925795 5.4400052071401461 -0.69465837861970381 0 0.71933979245794832 0.71933979245794832 0 0.69465837861970381 forward_v I I I I #
loop $-1 $-1 $235 $57 #
coedge $-1 $147 $147 $148 $236 reversed $90 $-1 #
coedge $-1 $148 $148 $147 $236 forward $92 $-1 #
coedge $-1 $149 $149 $93 $150 forward $144 $-1 #
edge $-1 $237 0 $237 6.2831853071796004 $149 $238 forward 7 unknown #
loop $-1 $-1 $156 $94 #
plane-surface $-1 -61.203039643543804 -7.5453024919925795 5.4400052071401461 -0.69465837861970381 0 0.71933979245794832 0.71933979245794832 0 0.69465837861970381 forward_v I I I I #
loop $-1 $-1 $239 $60 #
coedge $-1 $154 $154 $155 $240 reversed $95 $-1 #
coedge $-1 $155 $155 $154 $240 forward $97 $-1 #
coedge $-1 $156 $156 $98 $157 forward $151 $-1 #
edge $-1 $241 0 $241 6.2831853071796004 $156 $242 forward 7 unknown #
face $-1 $243 $244 $33 $-1 $245 forward single #
loop $-1 $-1 $246 $99 #
plane-surface $-1 97.194289264829251 -17.698415267826711 170.11951771319769 0 1 0 0.83867057594974714 0 0.54463902268945019 forward_v I I I I #
coedge $-1 $247 $248 $249 $250 reversed $100 $-1 #
coedge $-1 $163 $102 $251 $252 reversed $64 $-1 #
coedge $-1 $102 $162 $247 $253 reversed $64 $-1 #
coedge $-1 $249 $254 $102 $165 forward $244 $-1 #
edge $-1 $255 -12.605895011129185 $256 -7.139909114114225 $164 $257 forward 7 unknown #
loop $-1 $-1 $171 $103 #
plane-surface $-1 -5.4640877506229373 -14.557673538116575 103.45239031903094 0.83867057594974714 0 0.54463902268945019 0.54463902268945019 0 -0.83867057594974714 forward_v I I I I #
loop $-1 $-1 $258 $66 #
coedge $-1 $169 $169 $170 $259 reversed $104 $-1 #
coedge $-1 $170 $170 $169 $259 forward $106 $-1 #
coedge $-1 $171 $171 $107 $172 forward $166 $-1 #
edge $-1 $260 0 $260 6.2831853071796004 $171 $261 forward 7 unknown #
loop $-1 $-1 $178 $108 #
plane-surface $-1 -5.4640877506229373 -14.557673538116575 103.45239031903094 0.83867057594974714 0 0.54463902268945019 0.54463902268945019 0 -0.83867057594974714 forward_v I I I I #
loop $-1 $-1 $262 $69 #
coedge $-1 $176 $176 $177 $263 reversed $109 $-1 #
coedge $-1 $177 $177 $176 $263 forward $111 $-1 #
coedge $-1 $178 $178 $112 $179 forward $173 $-1 #
edge $-1 $264 0 $264 6.2831853071796004 $178 $265 forward 7 unknown #
face $-1 $266 $267 $27 $-1 $268 reversed single #
loop $-1 $-1 $269 $113 #
plane-surface $-1 -61.203039643543811 0 0 1 0 0 0 0 -1 forward_v I I I I #
coedge $-1 $270 $191 $271 $272 forward $114 $-1 #
coedge $-1 $273 $116 $270 $274 forward $73 $-1 #
coedge $-1 $116 $273 $275 $276 forward $73 $-1 #
coedge $-1 $194 $193 $116 $187 reversed $195 $-1 #
edge $-1 $277 -29.82581187279996 $278 29.82581187279996 $186 $279 forward 7 unknown #
coedge $-1 $118 $117 $280 $281 forward $46 $-1 #
coedge $-1 $282 $283 $117 $190 reversed $267 $-1 #
edge $-1 $197 -61.203039643543811 $284 61.203039643543811 $189 $285 forward 7 unknown #
coedge $-1 $183 $286 $118 $192 reversed $114 $-1 #
edge $-1 $287 -61.203039643543811 $196 61.203039643543811 $191 $288 forward 7 unknown #
coedge $-1 $186 $119 $286 $289 forward $195 $-1 #
coedge $-1 $119 $186 $282 $290 reversed $195 $-1 #
loop $-1 $-1 $193 $266 #
vertex $-1 $120 $291 #
vertex $-1 $120 $292 #
straight-curve $-1 61.203039643543811 0 9.2108937499080596 0 1 0 I I #
face $-1 $293 $294 $28 $-1 $295 reversed single #
loop $-1 $-1 $296 $121 #
plane-surface $-1 0 0 9.2108937499080596 0 0 1 1 0 0 forward_v I I I I #
coedge $-1 $297 $298 $299 $300 reversed $122 $-1 #
coedge $-1 $127 $124 $301 $302 reversed $77 $-1 #
coedge $-1 $124 $127 $303 $304 reversed $77 $-1 #
coedge $-1 $298 $297 $124 $206 reversed $122 $-1 #
edge $-1 $305 -9.2108937499080596 $306 9.2108937499080596 $205 $307 forward 7 unknown #
coedge $-1 $126 $125 $308 $309 reversed $49 $-1 #
coedge $-1 $301 $310 $125 $209 forward $294 $-1 #
edge $-1 $311 -17.944755087643294 $213 -5.8173584826700431 $208 $312 forward 7 unknown #
coedge $-1 $313 $303 $126 $211 forward $200 $-1 #
edge $-1 $212 5.8173584826700431 $314 17.944755087643294 $210 $315 forward 7 unknown #
vertex $-1 $211 $316 #
vertex $-1 $209 $317 #
straight-curve $-1 -45.781252143727691 -17.698415267826711 0 0 0 -1 I I #
face $-1 $-1 $227 $29 $-1 $318 forward single #
loop $-1 $-1 $319 $129 #
plane-surface $-1 -61.203039643543811 0 0 1 0 0 0 0 -1 forward_v I I I I #
coedge $-1 $320 $321 $322 $323 reversed $130 $-1 #
coedge $-1 $324 $132 $134 $225 forward $81 $-1 #
coedge $-1 $132 $324 $320 $325 forward $81 $-1 #
coedge $-1 $322 $135 $132 $222 forward $227 $-1 #
edge $-1 $229 -8.3962841278627192 $326 0.85098163587013964 $221 $327 forward 7 unknown #
coedge $-1 $328 $329 $133 $224 forward $216 $-1 #
edge $-1 $330 -41.305779231412323 $228 -37.534890688644403 $223 $331 forward 7 unknown #
edge $-1 $229 -5.42840719816944 $330 1.0047061288372931e-014 $134 $332 forward 7 unknown #
coedge $-1 $135 $322 $328 $333 forward $227 $-1 #
loop $-1 $-1 $322 $215 #
vertex $-1 $224 $334 #
vertex $-1 $136 $335 #
straight-curve $-1 -73.116724107153502 -12.168935373859009 9.2108937499080596 1 0 0 I I #
coedge $-1 $231 $231 $-1 $336 reversed $139 $-1 #
edge $-1 $337 0 $337 6.2831853071796004 $140 $338 forward 7 unknown #
vertex $-1 $143 $339 #
ellipse-curve $-1 -59.250604989889588 -10.319482221112434 7.3254494785241002 -0.69465837861970381 0 0.71933979245794832 0.35966989622897416 0 0.3473291893098519 1 I I #
coedge $-1 $235 $235 $-1 $340 reversed $146 $-1 #
edge $-1 $341 0 $341 6.2831853071796004 $147 $342 forward 7 unknown #
vertex $-1 $150 $343 #
ellipse-curve $-1 -59.250604989889588 -7.545302491992576 7.3254494785241002 -0.69465837861970381 0 0.71933979245794832 0.35966989622897416 0 0.3473291893098519 1 I I #
coedge $-1 $239 $239 $-1 $344 reversed $153 $-1 #
edge $-1 $345 0 $345 6.2831853071796004 $154 $346 forward 7 unknown #
vertex $-1 $157 $347 #
ellipse-curve $-1 -59.250604989889588 -4.771122762872718 7.3254494785241002 -0.69465837861970381 0 0.71933979245794832 0.35966989622897416 0 0.3473291893098519 1 I I #
face $-1 $-1 $348 $33 $-1 $349 reversed single #
loop $-1 $-1 $164 $158 #
plane-surface $-1 0 0 9.2108937499080596 0 0 1 1 0 0 forward_v I I I I #
coedge $-1 $350 $351 $352 $353 reversed $159 $-1 #
coedge $-1 $354 $161 $163 $253 forward $100 $-1 #
coedge $-1 $161 $354 $350 $355 forward $100 $-1 #
coedge $-1 $352 $164 $161 $250 forward $244 $-1 #
edge $-1 $256 4.1380950393481513 $356 10.419578498768423 $249 $357 forward 7 unknown #
coedge $-1 $358 $359 $162 $252 forward $348 $-1 #
edge $-1 $360 -84.265745553020096 $255 -75.848865106690795 $251 $361 forward 7 unknown #
edge $-1 $256 112.37010009847992 $360 122.40607928708764 $163 $362 forward 7 unknown #
coedge $-1 $164 $352 $358 $363 forward $244 $-1 #
vertex $-1 $252 $364 #
vertex $-1 $165 $365 #
straight-curve $-1 48.597144632414626 -11.416931808406439 9.2108937499080525 -1 0 0 I I #
coedge $-1 $258 $258 $-1 $366 reversed $168 $-1 #
edge $-1 $367 0 $367 6.2831853071796004 $169 $368 forward 7 unknown #
vertex $-1 $172 $369 #
ellipse-curve $-1 58.470046695036331 -15.903705707992346 5.0024535267434205 0.83867057594974714 0 0.54463902268945019 0.2723195113447251 0 -0.41933528797487357 1 I I #
coedge $-1 $262 $262 $-1 $370 reversed $175 $-1 #
edge $-1 $371 0 $371 6.2831853071796004 $176 $372 forward 7 unknown #
vertex $-1 $179 $373 #
ellipse-curve $-1 58.470046695036331 -13.211641368240802 5.0024535267434205 0.83867057594974714 0 0.54463902268945019 0.2723195113447251 0 -0.41933528797487357 1 I I #
face $-1 $-1 $195 $27 $-1 $374 reversed single #
loop $-1 $-1 $282 $180 #
plane-surface $-1 0 29.82581187279996 0 0 -1 0 0 0 -1 forward_v I I I I #
coedge $-1 $375 $280 $283 $376 forward $181 $-1 #
coedge $-1 $286 $183 $184 $274 reversed $114 $-1 #
coedge $-1 $280 $375 $183 $272 reversed $181 $-1 #
edge $-1 $287 -9.2108937499080596 $377 9.2108937499080596 $271 $378 forward 7 unknown #
coedge $-1 $185 $184 $375 $379 forward $73 $-1 #
edge $-1 $278 -61.203039643543811 $377 61.203039643543811 $270 $380 forward 7 unknown #
coedge $-1 $283 $282 $185 $276 reversed $267 $-1 #
edge $-1 $381 -61.203039643543811 $277 61.203039643543811 $275 $382 forward 7 unknown #
vertex $-1 $187 $383 #
vertex $-1 $289 $384 #
straight-curve $-1 61.203039643543811 0 -9.2108937499080596 0 -1 0 I I #
coedge $-1 $269 $271 $188 $281 reversed $181 $-1 #
edge $-1 $284 -29.82581187279996 $287 29.82581187279996 $280 $385 forward 7 unknown #
coedge $-1 $275 $189 $194 $290 forward $267 $-1 #
coedge $-1 $189 $275 $269 $376 reversed $267 $-1 #
vertex $-1 $190 $386 #
straight-curve $-1 0 29.82581187279996 9.2108937499080596 -1 0 0 I I #
coedge $-1 $191 $270 $193 $289 reversed $114 $-1 #
vertex $-1 $281 $387 #
straight-curve $-1 0 -29.82581187279996 9.2108937499080596 1 0 0 I I #
edge $-1 $196 -9.2108937499080596 $278 9.2108937499080596 $193 $388 forward 7 unknown #
edge $-1 $197 -9.2108937499080596 $277 9.2108937499080596 $194 $389 forward 7 unknown #
point $-1 61.203039643543811 -29.82581187279996 9.2108937499080596 #
point $-1 61.203039643543811 29.82581187279996 9.2108937499080596 #
face $-1 $-1 $390 $28 $-1 $391 reversed single #
loop $-1 $-1 $392 $199 #
plane-surface $-1 0 0 -9.2108937499080596 0 0 1 1 0 0 forward_v I I I I #
coedge $-1 $303 $313 $298 $393 forward $200 $-1 #
coedge $-1 $205 $202 $392 $394 reversed $122 $-1 #
coedge $-1 $202 $205 $296 $393 reversed $122 $-1 #
coedge $-1 $395 $396 $202 $300 forward $390 $-1 #
edge $-1 $397 -9.2108937499080596 $398 9.2108937499080596 $299 $399 forward 7 unknown #
coedge $-1 $392 $208 $203 $302 forward $294 $-1 #
edge $-1 $213 -23.640626071863846 $306 -20.640626071863846 $301 $400 forward 7 unknown #
coedge $-1 $210 $296 $204 $304 forward $200 $-1 #
edge $-1 $305 20.640626071863846 $212 23.640626071863846 $303 $401 forward 7 unknown #
vertex $-1 $304 $402 #
vertex $-1 $302 $403 #
straight-curve $-1 -42.781252143727691 -17.698415267826711 0 0 0 -1 I I #
coedge $-1 $396 $395 $207 $309 forward $390 $-1 #
edge $-1 $314 -9.2108937499080596 $311 9.2108937499080596 $308 $404 forward 7 unknown #
coedge $-1 $208 $392 $396 $405 forward $294 $-1 #
vertex $-1 $209 $406 #
straight-curve $-1 -45.781252143727691 -11.881056785156668 -9.2108937499080596 0 1 0 I I #
coedge $-1 $296 $210 $395 $407 forward $200 $-1 #
vertex $-1 $407 $408 #
straight-curve $-1 -45.781252143727691 -11.881056785156668 9.2108937499080596 0 -1 0 I I #
point $-1 -45.781252143727691 -17.698415267826711 9.2108937499080596 #
point $-1 -45.781252143727691 -17.698415267826711 -9.2108937499080596 #
plane-surface $-1 0 0 9.2108937499080596 0 0 1 1 0 0 forward_v I I I I #
coedge $-1 $329 $328 $321 $409 forward $216 $-1 #
coedge $-1 $321 $218 $220 $325 reversed $130 $-1 #
coedge $-1 $218 $320 $319 $409 reversed $130 $-1 #
coedge $-1 $226 $221 $218 $323 forward $227 $-1 #
edge $-1 $326 -15.818553770918136 $410 -11.913684463609691 $322 $411 forward 7 unknown #
coedge $-1 $220 $219 $329 $412 reversed $81 $-1 #
edge $-1 $413 -1.0047061288372931e-014 $326 5.42840719816944 $320 $414 forward 7 unknown #
vertex $-1 $222 $415 #
straight-curve $-1 -57.298170336235366 -3.7726512459962898 9.2108937499080596 0 1 0 I I #
coedge $-1 $319 $223 $226 $333 reversed $216 $-1 #
coedge $-1 $223 $319 $324 $412 forward $216 $-1 #
vertex $-1 $224 $416 #
straight-curve $-1 -61.203039643543811 -12.168935373859009 46.745784438552462 0 0 1 I I #
straight-curve $-1 -61.203039643543804 -12.168935373859009 5.4400052071401461 -0.71933979245794832 0 -0.69465837861970381 I I #
edge $-1 $410 2.9216696101261501 $228 12.168935373859009 $328 $417 forward 7 unknown #
point $-1 -61.203039643543811 -12.168935373859009 9.2108937499080596 #
point $-1 -57.298170336235366 -12.168935373859009 9.2108937499080596 #
edge $-1 $418 1 $418 0 $231 $-1 forward 7 unknown #
vertex $-1 $232 $419 #
ellipse-curve $-1 -58.555946611269889 -10.319482221112434 6.6061096860661594 -0.69465837861970381 0 0.71933979245794832 0.35966989622897416 0 0.3473291893098519 1 I I #
point $-1 -58.890935093660623 -10.319482221112434 7.6727786678339598 #
edge $-1 $420 1 $420 0 $235 $-1 forward 7 unknown #
vertex $-1 $236 $421 #
ellipse-curve $-1 -58.555946611269889 -7.545302491992576 6.6061096860661594 -0.69465837861970381 0 0.71933979245794832 0.35966989622897416 0 0.3473291893098519 1 I I #
point $-1 -58.890935093660623 -7.545302491992576 7.6727786678339598 #
edge $-1 $422 1 $422 0 $239 $-1 forward 7 unknown #
vertex $-1 $240 $423 #
ellipse-curve $-1 -58.555946611269889 -4.771122762872718 6.6061096860661594 -0.69465837861970381 0 0.71933979245794832 0.35966989622897416 0 0.3473291893098519 1 I I #
point $-1 -58.890935093660623 -4.771122762872718 7.6727786678339598 #
loop $-1 $-1 $251 $243 #
plane-surface $-1 61.203039643543811 0 0 -1 0 0 0 0 1 forward_v I I I I #
coedge $-1 $351 $246 $248 $355 reversed $159 $-1 #
coedge $-1 $246 $350 $424 $425 reversed $159 $-1 #
coedge $-1 $254 $249 $246 $353 forward $244 $-1 #
edge $-1 $356 7.139909114114225 $426 12.605895011129185 $352 $427 forward 7 unknown #
coedge $-1 $248 $247 $359 $428 reversed $100 $-1 #
edge $-1 $429 -122.40607928708764 $356 -112.37010009847992 $350 $430 forward 7 unknown #
vertex $-1 $250 $431 #
straight-curve $-1 55.737053746528844 -7.2788367690582874 9.2108937499080596 0 -1 0 I I #
coedge $-1 $424 $251 $254 $363 reversed $348 $-1 #
coedge $-1 $251 $424 $354 $428 forward $348 $-1 #
vertex $-1 $252 $432 #
straight-curve $-1 61.203039643543811 -11.416931808406439 85.059758856598847 0 0 1 I I #
straight-curve $-1 -5.4640877506229373 -11.416931808406439 103.45239031903094 0.54463902268945019 0 -0.83867057594974714 I I #
edge $-1 $426 -17.698415267826711 $255 -11.416931808406439 $358 $433 forward 7 unknown #
point $-1 61.203039643543811 -11.416931808406439 9.2108937499080596 #
point $-1 55.737053746528851 -11.416931808406439 9.2108937499080525 #
edge $-1 $434 1 $434 0 $258 $-1 forward 7 unknown #
vertex $-1 $259 $435 #
ellipse-curve $-1 56.967160899003204 -15.903705707992346 4.026468110492945 0.83867057594974714 0 0.54463902268945019 0.2723195113447251 0 -0.41933528797487357 1 I I #
point $-1 58.74236620638105 -15.903705707992346 4.5831182387685416 #
edge $-1 $436 1 $436 0 $262 $-1 forward 7 unknown #
vertex $-1 $263 $437 #
ellipse-curve $-1 56.967160899003204 -13.211641368240802 4.026468110492945 0.83867057594974714 0 0.54463902268945019 0.2723195113447251 0 -0.41933528797487357 1 I I #
point $-1 58.74236620638105 -13.211641368240802 4.5831182387685416 #
plane-surface $-1 61.203039643543811 0 0 -1 0 0 0 0 1 forward_v I I I I #
coedge $-1 $271 $269 $273 $379 reversed $181 $-1 #
edge $-1 $284 -9.2108937499080596 $381 9.2108937499080596 $283 $438 forward 7 unknown #
vertex $-1 $379 $439 #
straight-curve $-1 -61.203039643543811 -29.82581187279996 0 0 0 -1 I I #
edge $-1 $377 -29.82581187279996 $381 29.82581187279996 $375 $440 forward 7 unknown #
straight-curve $-1 0 -29.82581187279996 -9.2108937499080596 -1 0 0 I I #
vertex $-1 $276 $441 #
straight-curve $-1 0 29.82581187279996 -9.2108937499080596 1 0 0 I I #
point $-1 61.203039643543811 29.82581187279996 -9.2108937499080596 #
point $-1 61.203039643543811 -29.82581187279996 -9.2108937499080596 #
straight-curve $-1 -61.203039643543811 0 9.2108937499080596 0 -1 0 I I #
point $-1 -61.203039643543811 29.82581187279996 9.2108937499080596 #
point $-1 -61.203039643543811 -29.82581187279996 9.2108937499080596 #
straight-curve $-1 61.203039643543811 -29.82581187279996 0 0 0 -1 I I #
straight-curve $-1 61.203039643543811 29.82581187279996 0 0 0 -1 I I #
loop $-1 $-1 $299 $293 #
plane-surface $-1 0 -29.82581187279996 0 0 1 0 0 0 1 forward_v I I I I #
coedge $-1 $310 $301 $297 $394 forward $294 $-1 #
edge $-1 $398 -17.944755087643294 $305 -5.8173584826700431 $296 $442 forward 7 unknown #
edge $-1 $306 5.8173584826700431 $397 17.944755087643294 $392 $443 forward 7 unknown #
coedge $-1 $308 $299 $313 $407 reversed $390 $-1 #
coedge $-1 $299 $308 $310 $405 reversed $390 $-1 #
vertex $-1 $405 $444 #
vertex $-1 $300 $445 #
straight-curve $-1 -42.781252143727691 -29.82581187279996 0 0 0 1 I I #
straight-curve $-1 -22.140626071863846 -17.698415267826711 -9.2108937499080596 1 0 0 I I #
straight-curve $-1 -22.140626071863846 -17.698415267826711 9.2108937499080596 -1 0 0 I I #
point $-1 -42.781252143727691 -17.698415267826711 9.2108937499080596 #
point $-1 -42.781252143727691 -17.698415267826711 -9.2108937499080596 #
straight-curve $-1 -45.781252143727691 -29.82581187279996 0 0 0 -1 I I #
edge $-1 $397 42.781252143727691 $311 45.781252143727691 $396 $446 forward 7 unknown #
point $-1 -45.781252143727691 -29.82581187279996 -9.2108937499080596 #
edge $-1 $314 -45.781252143727691 $398 -42.781252143727691 $395 $447 forward 7 unknown #
point $-1 -45.781252143727691 -29.82581187279996 9.2108937499080596 #
edge $-1 $410 37.534890688644403 $413 41.305779231412323 $319 $448 forward 7 unknown #
vertex $-1 $333 $449 #
straight-curve $-1 -73.116724107153502 -2.9216696101261501 9.2108937499080596 -1 0 0 I I #
edge $-1 $413 -0.85098163587013964 $330 8.3962841278627192 $329 $450 forward 7 unknown #
vertex $-1 $412 $451 #
straight-curve $-1 -61.203039643543804 -2.9216696101261501 5.4400052071401461 0.71933979245794832 0 0.69465837861970381 I I #
point $-1 -57.298170336235366 -2.9216696101261501 9.2108937499080596 #
point $-1 -61.203039643543811 -12.168935373859009 5.440005207140139 #
straight-curve $-1 -61.203039643543811 0 9.2108937499080596 0 -1 0 I I #
vertex $-1 $336 $452 #
point $-1 -58.196276715040916 -10.319482221112434 6.9534388753760119 #
vertex $-1 $340 $453 #
point $-1 -58.196276715040916 -7.545302491992576 6.9534388753760119 #
vertex $-1 $344 $454 #
point $-1 -58.196276715040916 -4.771122762872718 6.9534388753760119 #
coedge $-1 $359 $358 $351 $425 forward $348 $-1 #
edge $-1 $426 75.848865106690795 $429 84.265745553020096 $424 $455 forward 7 unknown #
vertex $-1 $363 $456 #
straight-curve $-1 48.597144632414626 -17.698415267826711 9.2108937499080525 1 0 0 I I #
edge $-1 $429 -10.419578498768423 $360 -4.1380950393481513 $359 $457 forward 7 unknown #
vertex $-1 $428 $458 #
straight-curve $-1 -5.4640877506229373 -17.698415267826711 103.45239031903094 -0.54463902268945019 0 0.83867057594974714 I I #
point $-1 55.737053746528851 -17.698415267826711 9.2108937499080525 #
point $-1 61.203039643543818 -11.416931808406439 0.79401330357875111 #
straight-curve $-1 61.203039643543811 0 9.2108937499080596 0 1 0 I I #
vertex $-1 $366 $459 #
point $-1 57.23948041034793 -15.903705707992346 3.6071328225180714 #
vertex $-1 $370 $460 #
point $-1 57.23948041034793 -13.211641368240802 3.6071328225180714 #
straight-curve $-1 -61.203039643543811 29.82581187279996 0 0 0 -1 I I #
point $-1 -61.203039643543811 -29.82581187279996 -9.2108937499080596 #
straight-curve $-1 -61.203039643543811 0 -9.2108937499080596 0 1 0 I I #
point $-1 -61.203039643543811 29.82581187279996 -9.2108937499080596 #
straight-curve $-1 -42.781252143727691 -11.881056785156668 9.2108937499080596 0 1 0 I I #
straight-curve $-1 -42.781252143727691 -11.881056785156668 -9.2108937499080596 0 -1 0 I I #
point $-1 -42.781252143727691 -29.82581187279996 -9.2108937499080596 #
point $-1 -42.781252143727691 -29.82581187279996 9.2108937499080596 #
straight-curve $-1 0 -29.82581187279996 -9.2108937499080596 -1 0 0 I I #
straight-curve $-1 0 -29.82581187279996 9.2108937499080596 1 0 0 I I #
straight-curve $-1 -61.203039643543811 -2.9216696101261501 46.745784438552462 0 0 -1 I I #
point $-1 -61.203039643543811 -2.9216696101261501 9.2108937499080596 #
straight-curve $-1 -61.203039643543811 -3.7726512459962898 5.440005207140139 0 -1 0 I I #
point $-1 -61.203039643543811 -2.9216696101261501 5.440005207140139 #
point $-1 -58.208617421960042 -10.319482221112434 6.2464397898371855 #
point $-1 -58.208617421960042 -7.545302491992576 6.2464397898371855 #
point $-1 -58.208617421960042 -4.771122762872718 6.2464397898371855 #
straight-curve $-1 61.203039643543811 -17.698415267826711 85.059758856598847 0 0 -1 I I #
point $-1 61.203039643543811 -17.698415267826711 9.2108937499080596 #
straight-curve $-1 61.203039643543811 -7.2788367690582874 0.79401330357875821 0 1 0 I I #
point $-1 61.203039643543818 -17.698415267826711 0.79401330357875111 #
point $-1 56.54782561102833 -15.903705707992346 3.7541485991482206 #
point $-1 56.54782561102833 -13.211641368240802 3.7541485991482206 #
End-of-ACIS-data 