500 0 18 0           
7 Unknown 11 ACIS 5.0 NT 24 Fri Mar 26 01:25:00 1999 
-1 9.9999999999999995e-007 1e-010 
body $-1 $18 $-1 $19 #
body $-1 $20 $-1 $21 #
body $-1 $22 $-1 $23 #
body $-1 $24 $-1 $25 #
body $-1 $26 $-1 $27 #
body $-1 $28 $-1 $29 #
body $-1 $30 $-1 $31 #
body $-1 $32 $-1 $33 #
body $-1 $34 $-1 $35 #
body $-1 $36 $-1 $37 #
body $-1 $38 $-1 $39 #
body $-1 $40 $-1 $41 #
body $-1 $42 $-1 $43 #
body $-1 $44 $-1 $45 #
body $-1 $46 $-1 $47 #
body $-1 $48 $-1 $49 #
body $-1 $50 $-1 $51 #
body $-1 $52 $-1 $53 #
lump $-1 $-1 $54 $0 #
transform $-1 1 0 0 0 1 0 0 0 1 53.17789239173559 31.179509458273976 11.746816196522307 1 rotate no_reflect no_shear #
lump $-1 $-1 $55 $1 #
transform $-1 1 0 0 0 1 0 0 0 1 53.17789239173559 31.179509458273976 11.746816196522307 1 rotate no_reflect no_shear #
lump $-1 $-1 $56 $2 #
transform $-1 1 0 0 0 1 0 0 0 1 53.17789239173559 31.179509458273976 11.746816196522307 1 rotate no_reflect no_shear #
lump $-1 $-1 $57 $3 #
transform $-1 1 0 0 0 1 0 0 0 1 53.17789239173559 31.179509458273976 11.746816196522307 1 rotate no_reflect no_shear #
lump $-1 $-1 $58 $4 #
transform $-1 1 0 0 0 1 0 0 0 1 53.17789239173559 31.179509458273976 11.746816196522307 1 rotate no_reflect no_shear #
lump $-1 $-1 $59 $5 #
transform $-1 1 0 0 0 1 0 0 0 1 53.17789239173559 31.179509458273976 11.746816196522307 1 rotate no_reflect no_shear #
lump $-1 $-1 $60 $6 #
transform $-1 1 0 0 0 1 0 0 0 1 53.17789239173559 31.179509458273976 11.746816196522307 1 rotate no_reflect no_shear #
lump $-1 $-1 $61 $7 #
transform $-1 1 0 0 0 1 0 0 0 1 53.17789239173559 31.179509458273976 11.746816196522307 1 rotate no_reflect no_shear #
lump $-1 $-1 $62 $8 #
transform $-1 1 0 0 0 1 0 0 0 1 53.17789239173559 31.179509458273976 11.746816196522307 1 rotate no_reflect no_shear #
lump $-1 $-1 $63 $9 #
transform $-1 1 0 0 0 1 0 0 0 1 53.17789239173559 31.179509458273976 11.746816196522307 1 rotate no_reflect no_shear #
lump $-1 $-1 $64 $10 #
transform $-1 1 0 0 0 1 0 0 0 1 53.17789239173559 31.179509458273976 11.746816196522307 1 rotate no_reflect no_shear #
lump $-1 $-1 $65 $11 #
transform $-1 1 0 0 0 1 0 0 0 1 53.17789239173559 31.179509458273976 11.746816196522307 1 rotate no_reflect no_shear #
lump $-1 $-1 $66 $12 #
transform $-1 1 0 0 0 1 0 0 0 1 53.17789239173559 31.179509458273976 11.746816196522307 1 rotate no_reflect no_shear #
lump $-1 $-1 $67 $13 #
transform $-1 1 0 0 0 1 0 0 0 1 53.17789239173559 31.179509458273976 11.746816196522307 1 rotate no_reflect no_shear #
lump $-1 $-1 $68 $14 #
transform $-1 1 0 0 0 1 0 0 0 1 53.17789239173559 31.179509458273976 11.746816196522307 1 rotate no_reflect no_shear #
lump $-1 $-1 $69 $15 #
transform $-1 1 0 0 0 1 0 0 0 1 53.17789239173559 31.179509458273976 11.746816196522307 1 rotate no_reflect no_shear #
lump $-1 $-1 $70 $16 #
transform $-1 1 0 0 0 1 0 0 0 1 53.17789239173559 31.179509458273976 11.746816196522307 1 rotate no_reflect no_shear #
lump $-1 $-1 $71 $17 #
transform $-1 1 0 0 0 1 0 0 0 1 53.17789239173559 31.179509458273976 11.746816196522307 1 rotate no_reflect no_shear #
shell $-1 $-1 $-1 $72 $-1 $18 #
shell $-1 $-1 $-1 $73 $-1 $20 #
shell $-1 $-1 $-1 $74 $-1 $22 #
shell $-1 $-1 $-1 $75 $-1 $24 #
shell $-1 $-1 $-1 $76 $-1 $26 #
shell $-1 $-1 $-1 $77 $-1 $28 #
shell $-1 $-1 $-1 $78 $-1 $30 #
shell $-1 $-1 $-1 $79 $-1 $32 #
shell $-1 $-1 $-1 $80 $-1 $34 #
shell $-1 $-1 $-1 $81 $-1 $36 #
shell $-1 $-1 $-1 $82 $-1 $38 #
shell $-1 $-1 $-1 $83 $-1 $40 #
shell $-1 $-1 $-1 $84 $-1 $42 #
shell $-1 $-1 $-1 $85 $-1 $44 #
shell $-1 $-1 $-1 $86 $-1 $46 #
shell $-1 $-1 $-1 $87 $-1 $48 #
shell $-1 $-1 $-1 $88 $-1 $50 #
shell $-1 $-1 $-1 $89 $-1 $52 #
face $-1 $90 $91 $54 $-1 $92 forward single #
face $-1 $93 $94 $55 $-1 $95 forward single #
face $-1 $96 $97 $56 $-1 $98 reversed single #
face $-1 $99 $100 $57 $-1 $101 forward single #
face $-1 $102 $103 $58 $-1 $104 forward single #
face $-1 $105 $106 $59 $-1 $107 forward single #
face $-1 $108 $109 $60 $-1 $110 reversed single #
face $-1 $111 $112 $61 $-1 $113 forward single #
face $-1 $114 $115 $62 $-1 $116 forward single #
face $-1 $117 $118 $63 $-1 $119 forward single #
face $-1 $120 $121 $64 $-1 $122 reversed single #
face $-1 $123 $124 $65 $-1 $125 forward single #
face $-1 $126 $127 $66 $-1 $128 forward single #
face $-1 $129 $130 $67 $-1 $131 forward single #
face $-1 $132 $133 $68 $-1 $134 reversed single #
face $-1 $135 $136 $69 $-1 $137 forward single #
face $-1 $138 $139 $70 $-1 $140 forward single #
face $-1 $141 $142 $71 $-1 $143 forward single #
face $-1 $144 $145 $54 $-1 $146 reversed single #
loop $-1 $-1 $147 $72 #
plane-surface $-1 0 0 11.746816196522307 0 0 1 1 0 0 forward_v I I I I #
face $-1 $148 $149 $55 $-1 $150 reversed single #
loop $-1 $-1 $151 $73 #
plane-surface $-1 0 -31.179509458273976 0 0 1 0 0 0 1 forward_v I I I I #
face $-1 $152 $153 $56 $-1 $154 reversed single #
loop $-1 $-1 $155 $74 #
plane-surface $-1 -41.159188854919378 62.289922337229463 121.910853416588 1 0 0 0 -0.70710678939079041 -0.70710677298230451 forward_v I I I I #
face $-1 $156 $157 $57 $-1 $158 forward single #
loop $-1 $159 $160 $75 #
cone-surface $-1 -38.245140323109062 25.379088803307063 5.9463954641681545 0 -0.70710678939079041 -0.70710677298230451 1 0 0 1 I I 0 1 1 forward I I I I #
face $-1 $161 $162 $58 $-1 $163 forward single #
loop $-1 $164 $165 $76 #
cone-surface $-1 -33.874067525393585 25.379088803307063 5.9463954641681545 0 -0.70710678939079041 -0.70710677298230451 1 0 0 1 I I 0 1 1 forward I I I I #
face $-1 $166 $167 $59 $-1 $168 forward single #
loop $-1 $169 $170 $77 #
cone-surface $-1 -29.502994727678114 25.379088803307063 5.9463954641681545 0 -0.70710678939079041 -0.70710677298230451 1 0 0 1 I I 0 1 1 forward I I I I #
face $-1 $171 $172 $60 $-1 $173 reversed single #
loop $-1 $-1 $174 $78 #
plane-surface $-1 -18.57647717132366 62.289922337229463 121.910853416588 1 0 0 0 -0.70710678939079041 -0.70710677298230451 forward_v I I I I #
face $-1 $175 $176 $61 $-1 $177 forward single #
loop $-1 $178 $179 $79 #
cone-surface $-1 -15.662428639513344 25.379088803307063 5.9463954641681545 0 -0.70710678939079041 -0.70710677298230451 1 0 0 1 I I 0 1 1 forward I I I I #
face $-1 $180 $181 $62 $-1 $182 forward single #
loop $-1 $183 $184 $80 #
cone-surface $-1 -11.291355841797866 25.379088803307063 5.9463954641681545 0 -0.70710678939079041 -0.70710677298230451 1 0 0 1 I I 0 1 1 forward I I I I #
face $-1 $185 $186 $63 $-1 $187 forward single #
loop $-1 $188 $189 $81 #
cone-surface $-1 -6.9202830440823888 25.379088803307063 5.9463954641681545 0 -0.70710678939079041 -0.70710677298230451 1 0 0 1 I I 0 1 1 forward I I I I #
face $-1 $190 $191 $64 $-1 $192 reversed single #
loop $-1 $-1 $193 $82 #
plane-surface $-1 4.0062345122720657 62.289922337229463 121.910853416588 1 0 0 0 -0.70710678939079041 -0.70710677298230451 forward_v I I I I #
face $-1 $194 $195 $65 $-1 $196 forward single #
loop $-1 $197 $198 $83 #
cone-surface $-1 6.9202830440823746 25.379088803307063 5.9463954641681545 0 -0.70710678939079041 -0.70710677298230451 1 0 0 1 I I 0 1 1 forward I I I I #
face $-1 $199 $200 $66 $-1 $201 forward single #
loop $-1 $202 $203 $84 #
cone-surface $-1 11.291355841797859 25.379088803307063 5.9463954641681545 0 -0.70710678939079041 -0.70710677298230451 1 0 0 1 I I 0 1 1 forward I I I I #
face $-1 $204 $205 $67 $-1 $206 forward single #
loop $-1 $207 $208 $85 #
cone-surface $-1 15.66242863951333 25.379088803307063 5.9463954641681545 0 -0.70710678939079041 -0.70710677298230451 1 0 0 1 I I 0 1 1 forward I I I I #
face $-1 $209 $210 $68 $-1 $211 reversed single #
loop $-1 $-1 $212 $86 #
plane-surface $-1 26.588946195867784 62.289922337229463 121.910853416588 1 0 0 0 -0.70710678939079041 -0.70710677298230451 forward_v I I I I #
face $-1 $213 $214 $69 $-1 $215 forward single #
loop $-1 $216 $217 $87 #
cone-surface $-1 29.502994727678093 25.379088803307063 5.9463954641681545 0 -0.70710678939079041 -0.70710677298230451 1 0 0 1 I I 0 1 1 forward I I I I #
face $-1 $218 $219 $70 $-1 $220 forward single #
loop $-1 $221 $222 $88 #
cone-surface $-1 33.874067525393578 25.379088803307063 5.9463954641681545 0 -0.70710678939079041 -0.70710677298230451 1 0 0 1 I I 0 1 1 forward I I I I #
face $-1 $223 $224 $71 $-1 $225 forward single #
loop $-1 $226 $227 $89 #
cone-surface $-1 38.245140323109048 25.379088803307063 5.9463954641681545 0 -0.70710678939079041 -0.70710677298230451 1 0 0 1 I I 0 1 1 forward I I I I #
face $-1 $228 $229 $54 $-1 $230 reversed single #
loop $-1 $-1 $231 $90 #
plane-surface $-1 0 0 -11.746816196522307 0 0 1 1 0 0 forward_v I I I I #
coedge $-1 $232 $233 $234 $235 forward $91 $-1 #
face $-1 $236 $237 $55 $-1 $238 reversed single #
loop $-1 $-1 $239 $93 #
plane-surface $-1 0 0 -11.746816196522307 0 0 1 1 0 0 forward_v I I I I #
coedge $-1 $240 $241 $242 $243 forward $94 $-1 #
face $-1 $244 $245 $56 $-1 $246 reversed single #
loop $-1 $-1 $247 $96 #
plane-surface $-1 -33.874067525393585 -12.914975174148729 46.705957650347202 0 0.70710678939079041 0.70710677298230451 1 0 0 forward_v I I I I #
coedge $-1 $248 $249 $250 $251 reversed $97 $-1 #
face $-1 $-1 $252 $57 $-1 $253 forward single #
loop $-1 $254 $255 $99 #
cone-surface $-1 -38.245140323109062 23.792786748558903 4.360093446230298 0 -0.70710678939079041 -0.70710677298230451 0.5 0 0 1 I I -0.70710678118654746 0.70710678118654746 0.5 forward I I I I #
loop $-1 $-1 $256 $75 #
coedge $-1 $160 $160 $257 $258 reversed $100 $-1 #
face $-1 $-1 $259 $58 $-1 $260 forward single #
loop $-1 $261 $262 $102 #
cone-surface $-1 -33.874067525393585 23.792786748558903 4.360093446230298 0 -0.70710678939079041 -0.70710677298230451 0.5 0 0 1 I I -0.70710678118654746 0.70710678118654746 0.5 forward I I I I #
loop $-1 $-1 $263 $76 #
coedge $-1 $165 $165 $264 $265 reversed $103 $-1 #
face $-1 $-1 $266 $59 $-1 $267 forward single #
loop $-1 $268 $269 $105 #
cone-surface $-1 -29.502994727678114 23.792786748558903 4.360093446230298 0 -0.70710678939079041 -0.70710677298230451 0.5 0 0 1 I I -0.70710678118654746 0.70710678118654746 0.5 forward I I I I #
loop $-1 $-1 $270 $77 #
coedge $-1 $170 $170 $271 $272 reversed $106 $-1 #
face $-1 $273 $274 $60 $-1 $275 reversed single #
loop $-1 $-1 $276 $108 #
plane-surface $-1 -11.291355841797866 -12.914975174148729 46.705957650347202 0 0.70710678939079041 0.70710677298230451 1 0 0 forward_v I I I I #
coedge $-1 $277 $278 $279 $280 reversed $109 $-1 #
face $-1 $-1 $281 $61 $-1 $282 forward single #
loop $-1 $283 $284 $111 #
cone-surface $-1 -15.662428639513344 23.792786748558903 4.360093446230298 0 -0.70710678939079041 -0.70710677298230451 0.5 0 0 1 I I -0.70710678118654746 0.70710678118654746 0.5 forward I I I I #
loop $-1 $-1 $285 $79 #
coedge $-1 $179 $179 $286 $287 reversed $112 $-1 #
face $-1 $-1 $288 $62 $-1 $289 forward single #
loop $-1 $290 $291 $114 #
cone-surface $-1 -11.291355841797866 23.792786748558903 4.360093446230298 0 -0.70710678939079041 -0.70710677298230451 0.5 0 0 1 I I -0.70710678118654746 0.70710678118654746 0.5 forward I I I I #
loop $-1 $-1 $292 $80 #
coedge $-1 $184 $184 $293 $294 reversed $115 $-1 #
face $-1 $-1 $295 $63 $-1 $296 forward single #
loop $-1 $297 $298 $117 #
cone-surface $-1 -6.9202830440823888 23.792786748558903 4.360093446230298 0 -0.70710678939079041 -0.70710677298230451 0.5 0 0 1 I I -0.70710678118654746 0.70710678118654746 0.5 forward I I I I #
loop $-1 $-1 $299 $81 #
coedge $-1 $189 $189 $300 $301 reversed $118 $-1 #
face $-1 $302 $303 $64 $-1 $304 reversed single #
loop $-1 $-1 $305 $120 #
plane-surface $-1 11.291355841797859 -12.914975174148729 46.705957650347202 0 0.70710678939079041 0.70710677298230451 1 0 0 forward_v I I I I #
coedge $-1 $306 $307 $308 $309 reversed $121 $-1 #
face $-1 $-1 $310 $65 $-1 $311 forward single #
loop $-1 $312 $313 $123 #
cone-surface $-1 6.9202830440823746 23.792786748558903 4.360093446230298 0 -0.70710678939079041 -0.70710677298230451 0.5 0 0 1 I I -0.70710678118654746 0.70710678118654746 0.5 forward I I I I #
loop $-1 $-1 $314 $83 #
coedge $-1 $198 $198 $315 $316 reversed $124 $-1 #
face $-1 $-1 $317 $66 $-1 $318 forward single #
loop $-1 $319 $320 $126 #
cone-surface $-1 11.291355841797859 23.792786748558903 4.360093446230298 0 -0.70710678939079041 -0.70710677298230451 0.5 0 0 1 I I -0.70710678118654746 0.70710678118654746 0.5 forward I I I I #
loop $-1 $-1 $321 $84 #
coedge $-1 $203 $203 $322 $323 reversed $127 $-1 #
face $-1 $-1 $324 $67 $-1 $325 forward single #
loop $-1 $326 $327 $129 #
cone-surface $-1 15.66242863951333 23.792786748558903 4.360093446230298 0 -0.70710678939079041 -0.70710677298230451 0.5 0 0 1 I I -0.70710678118654746 0.70710678118654746 0.5 forward I I I I #
loop $-1 $-1 $328 $85 #
coedge $-1 $208 $208 $329 $330 reversed $130 $-1 #
face $-1 $331 $332 $68 $-1 $333 reversed single #
loop $-1 $-1 $334 $132 #
plane-surface $-1 33.874067525393578 -12.914975174148729 46.705957650347202 0 0.70710678939079041 0.70710677298230451 1 0 0 forward_v I I I I #
coedge $-1 $335 $336 $337 $338 reversed $133 $-1 #
face $-1 $-1 $339 $69 $-1 $340 forward single #
loop $-1 $341 $342 $135 #
cone-surface $-1 29.502994727678093 23.792786748558903 4.360093446230298 0 -0.70710678939079041 -0.70710677298230451 0.5 0 0 1 I I -0.70710678118654746 0.70710678118654746 0.5 forward I I I I #
loop $-1 $-1 $343 $87 #
coedge $-1 $217 $217 $344 $345 reversed $136 $-1 #
face $-1 $-1 $346 $70 $-1 $347 forward single #
loop $-1 $348 $349 $138 #
cone-surface $-1 33.874067525393578 23.792786748558903 4.360093446230298 0 -0.70710678939079041 -0.70710677298230451 0.5 0 0 1 I I -0.70710678118654746 0.70710678118654746 0.5 forward I I I I #
loop $-1 $-1 $350 $88 #
coedge $-1 $222 $222 $351 $352 reversed $139 $-1 #
face $-1 $-1 $353 $71 $-1 $354 forward single #
loop $-1 $355 $356 $141 #
cone-surface $-1 38.245140323109048 23.792786748558903 4.360093446230298 0 -0.70710678939079041 -0.70710677298230451 0.5 0 0 1 I I -0.70710678118654746 0.70710678118654746 0.5 forward I I I I #
loop $-1 $-1 $357 $89 #
coedge $-1 $227 $227 $358 $359 reversed $142 $-1 #
face $-1 $360 $361 $54 $-1 $362 reversed single #
loop $-1 $-1 $363 $144 #
plane-surface $-1 0 -31.179509458273976 0 0 1 0 0 0 1 forward_v I I I I #
coedge $-1 $364 $365 $366 $367 forward $145 $-1 #
coedge $-1 $368 $147 $369 $370 forward $91 $-1 #
coedge $-1 $147 $368 $371 $372 forward $91 $-1 #
coedge $-1 $373 $374 $147 $235 reversed $375 $-1 #
edge $-1 $376 -31.179509458273976 $377 31.179509458273976 $234 $378 forward 7 unknown #
face $-1 $379 $380 $55 $-1 $381 reversed single #
loop $-1 $-1 $382 $148 #
plane-surface $-1 -45.934875697762138 -41.843619594804075 0 0 1 0 0 0 1 forward_v I I I I #
coedge $-1 $383 $384 $241 $385 forward $149 $-1 #
coedge $-1 $386 $151 $387 $388 reversed $94 $-1 #
coedge $-1 $151 $386 $239 $385 reversed $94 $-1 #
coedge $-1 $389 $390 $151 $243 reversed $380 $-1 #
edge $-1 $391 -11.746816196522307 $392 11.746816196522307 $242 $393 forward 7 unknown #
face $-1 $394 $395 $56 $-1 $396 forward single #
loop $-1 $-1 $397 $152 #
plane-surface $-1 -26.588946195867791 62.289922337229463 121.910853416588 -1 0 0 0 0.70710678939079041 0.70710677298230451 forward_v I I I I #
coedge $-1 $398 $399 $400 $401 reversed $153 $-1 #
coedge $-1 $249 $155 $402 $403 reversed $97 $-1 #
coedge $-1 $155 $248 $398 $404 reversed $97 $-1 #
coedge $-1 $400 $405 $155 $251 forward $395 $-1 #
edge $-1 $406 -0.034548289659245057 $407 9.1007957001690407 $250 $408 forward 7 unknown #
loop $-1 $-1 $257 $156 #
plane-surface $-1 -33.874067525393585 -12.914975174148729 46.705957650347202 0 0.70710678939079041 0.70710677298230451 1 0 0 forward_v I I I I #
loop $-1 $-1 $409 $99 #
coedge $-1 $255 $255 $256 $410 reversed $157 $-1 #
coedge $-1 $256 $256 $255 $410 forward $159 $-1 #
coedge $-1 $257 $257 $160 $258 forward $252 $-1 #
edge $-1 $411 -6.2803693246568909e-016 $411 6.2831853071795996 $257 $412 forward 7 unknown #
loop $-1 $-1 $264 $161 #
plane-surface $-1 -33.874067525393585 -12.914975174148729 46.705957650347202 0 0.70710678939079041 0.70710677298230451 1 0 0 forward_v I I I I #
loop $-1 $-1 $413 $102 #
coedge $-1 $262 $262 $263 $414 reversed $162 $-1 #
coedge $-1 $263 $263 $262 $414 forward $164 $-1 #
coedge $-1 $264 $264 $165 $265 forward $259 $-1 #
edge $-1 $415 -6.2803693246568909e-016 $415 6.2831853071795996 $264 $416 forward 7 unknown #
loop $-1 $-1 $271 $166 #
plane-surface $-1 -33.874067525393585 -12.914975174148729 46.705957650347202 0 0.70710678939079041 0.70710677298230451 1 0 0 forward_v I I I I #
loop $-1 $-1 $417 $105 #
coedge $-1 $269 $269 $270 $418 reversed $167 $-1 #
coedge $-1 $270 $270 $269 $418 forward $169 $-1 #
coedge $-1 $271 $271 $170 $272 forward $266 $-1 #
edge $-1 $419 -6.2803693246568909e-016 $419 6.2831853071795996 $271 $420 forward 7 unknown #
face $-1 $421 $422 $60 $-1 $423 forward single #
loop $-1 $-1 $424 $171 #
plane-surface $-1 -4.0062345122720728 62.289922337229463 121.910853416588 -1 0 0 0 0.70710678939079041 0.70710677298230451 forward_v I I I I #
coedge $-1 $425 $426 $427 $428 reversed $172 $-1 #
coedge $-1 $278 $174 $429 $430 reversed $109 $-1 #
coedge $-1 $174 $277 $425 $431 reversed $109 $-1 #
coedge $-1 $427 $432 $174 $280 forward $422 $-1 #
edge $-1 $433 -0.034548289659245057 $434 9.1007957001690407 $279 $435 forward 7 unknown #
loop $-1 $-1 $286 $175 #
plane-surface $-1 -11.291355841797866 -12.914975174148729 46.705957650347202 0 0.70710678939079041 0.70710677298230451 1 0 0 forward_v I I I I #
loop $-1 $-1 $436 $111 #
coedge $-1 $284 $284 $285 $437 reversed $176 $-1 #
coedge $-1 $285 $285 $284 $437 forward $178 $-1 #
coedge $-1 $286 $286 $179 $287 forward $281 $-1 #
edge $-1 $438 -6.2803693246568909e-016 $438 6.2831853071795996 $286 $439 forward 7 unknown #
loop $-1 $-1 $293 $180 #
plane-surface $-1 -11.291355841797866 -12.914975174148729 46.705957650347202 0 0.70710678939079041 0.70710677298230451 1 0 0 forward_v I I I I #
loop $-1 $-1 $440 $114 #
coedge $-1 $291 $291 $292 $441 reversed $181 $-1 #
coedge $-1 $292 $292 $291 $441 forward $183 $-1 #
coedge $-1 $293 $293 $184 $294 forward $288 $-1 #
edge $-1 $442 -6.2803693246568909e-016 $442 6.2831853071795996 $293 $443 forward 7 unknown #
loop $-1 $-1 $300 $185 #
plane-surface $-1 -11.291355841797866 -12.914975174148729 46.705957650347202 0 0.70710678939079041 0.70710677298230451 1 0 0 forward_v I I I I #
loop $-1 $-1 $444 $117 #
coedge $-1 $298 $298 $299 $445 reversed $186 $-1 #
coedge $-1 $299 $299 $298 $445 forward $188 $-1 #
coedge $-1 $300 $300 $189 $301 forward $295 $-1 #
edge $-1 $446 -6.2803693246568909e-016 $446 6.2831853071795996 $300 $447 forward 7 unknown #
face $-1 $448 $449 $64 $-1 $450 forward single #
loop $-1 $-1 $451 $190 #
plane-surface $-1 18.576477171323653 62.289922337229463 121.910853416588 -1 0 0 0 0.70710678939079041 0.70710677298230451 forward_v I I I I #
coedge $-1 $452 $453 $454 $455 reversed $191 $-1 #
coedge $-1 $307 $193 $456 $457 reversed $121 $-1 #
coedge $-1 $193 $306 $452 $458 reversed $121 $-1 #
coedge $-1 $454 $459 $193 $309 forward $449 $-1 #
edge $-1 $460 -0.034548289659245057 $461 9.1007957001690407 $308 $462 forward 7 unknown #
loop $-1 $-1 $315 $194 #
plane-surface $-1 11.291355841797859 -12.914975174148729 46.705957650347202 0 0.70710678939079041 0.70710677298230451 1 0 0 forward_v I I I I #
loop $-1 $-1 $463 $123 #
coedge $-1 $313 $313 $314 $464 reversed $195 $-1 #
coedge $-1 $314 $314 $313 $464 forward $197 $-1 #
coedge $-1 $315 $315 $198 $316 forward $310 $-1 #
edge $-1 $465 -6.2803693246568909e-016 $465 6.2831853071795996 $315 $466 forward 7 unknown #
loop $-1 $-1 $322 $199 #
plane-surface $-1 11.291355841797859 -12.914975174148729 46.705957650347202 0 0.70710678939079041 0.70710677298230451 1 0 0 forward_v I I I I #
loop $-1 $-1 $467 $126 #
coedge $-1 $320 $320 $321 $468 reversed $200 $-1 #
coedge $-1 $321 $321 $320 $468 forward $202 $-1 #
coedge $-1 $322 $322 $203 $323 forward $317 $-1 #
edge $-1 $469 -6.2803693246568909e-016 $469 6.2831853071795996 $322 $470 forward 7 unknown #
loop $-1 $-1 $329 $204 #
plane-surface $-1 11.291355841797859 -12.914975174148729 46.705957650347202 0 0.70710678939079041 0.70710677298230451 1 0 0 forward_v I I I I #
loop $-1 $-1 $471 $129 #
coedge $-1 $327 $327 $328 $472 reversed $205 $-1 #
coedge $-1 $328 $328 $327 $472 forward $207 $-1 #
coedge $-1 $329 $329 $208 $330 forward $324 $-1 #
edge $-1 $473 -6.2803693246568909e-016 $473 6.2831853071795996 $329 $474 forward 7 unknown #
face $-1 $475 $476 $68 $-1 $477 forward single #
loop $-1 $-1 $478 $209 #
plane-surface $-1 41.159188854919371 62.289922337229463 121.910853416588 -1 0 0 0 0.70710678939079041 0.70710677298230451 forward_v I I I I #
coedge $-1 $479 $480 $481 $482 reversed $210 $-1 #
coedge $-1 $336 $212 $483 $484 reversed $133 $-1 #
coedge $-1 $212 $335 $479 $485 reversed $133 $-1 #
coedge $-1 $481 $486 $212 $338 forward $476 $-1 #
edge $-1 $487 -0.034548289659245057 $488 9.1007957001690407 $337 $489 forward 7 unknown #
loop $-1 $-1 $344 $213 #
plane-surface $-1 33.874067525393578 -12.914975174148729 46.705957650347202 0 0.70710678939079041 0.70710677298230451 1 0 0 forward_v I I I I #
loop $-1 $-1 $490 $135 #
coedge $-1 $342 $342 $343 $491 reversed $214 $-1 #
coedge $-1 $343 $343 $342 $491 forward $216 $-1 #
coedge $-1 $344 $344 $217 $345 forward $339 $-1 #
edge $-1 $492 -6.2803693246568909e-016 $492 6.2831853071795996 $344 $493 forward 7 unknown #
loop $-1 $-1 $351 $218 #
plane-surface $-1 33.874067525393578 -12.914975174148729 46.705957650347202 0 0.70710678939079041 0.70710677298230451 1 0 0 forward_v I I I I #
loop $-1 $-1 $494 $138 #
coedge $-1 $349 $349 $350 $495 reversed $219 $-1 #
coedge $-1 $350 $350 $349 $495 forward $221 $-1 #
coedge $-1 $351 $351 $222 $352 forward $346 $-1 #
edge $-1 $496 -6.2803693246568909e-016 $496 6.2831853071795996 $351 $497 forward 7 unknown #
loop $-1 $-1 $358 $223 #
plane-surface $-1 33.874067525393578 -12.914975174148729 46.705957650347202 0 0.70710678939079041 0.70710677298230451 1 0 0 forward_v I I I I #
loop $-1 $-1 $498 $141 #
coedge $-1 $356 $356 $357 $499 reversed $224 $-1 #
coedge $-1 $357 $357 $356 $499 forward $226 $-1 #
coedge $-1 $358 $358 $227 $359 forward $353 $-1 #
edge $-1 $500 -6.2803693246568909e-016 $500 6.2831853071795996 $358 $501 forward 7 unknown #
face $-1 $502 $503 $54 $-1 $504 reversed single #
loop $-1 $-1 $505 $228 #
plane-surface $-1 -53.17789239173559 0 0 1 0 0 0 0 -1 forward_v I I I I #
coedge $-1 $506 $371 $507 $508 forward $229 $-1 #
coedge $-1 $509 $231 $506 $510 forward $145 $-1 #
coedge $-1 $231 $509 $511 $512 forward $145 $-1 #
coedge $-1 $374 $373 $231 $367 reversed $375 $-1 #
edge $-1 $513 -31.179509458273976 $514 31.179509458273976 $366 $515 forward 7 unknown #
coedge $-1 $233 $232 $516 $517 forward $91 $-1 #
coedge $-1 $518 $519 $232 $370 reversed $503 $-1 #
edge $-1 $377 -53.17789239173559 $520 53.17789239173559 $369 $521 forward 7 unknown #
coedge $-1 $363 $522 $233 $372 reversed $229 $-1 #
edge $-1 $523 -53.17789239173559 $376 53.17789239173559 $371 $524 forward 7 unknown #
coedge $-1 $366 $234 $522 $525 forward $375 $-1 #
coedge $-1 $234 $366 $518 $526 reversed $375 $-1 #
loop $-1 $-1 $373 $502 #
vertex $-1 $235 $527 #
vertex $-1 $235 $528 #
straight-curve $-1 53.17789239173559 0 11.746816196522307 0 1 0 I I #
face $-1 $529 $530 $55 $-1 $531 reversed single #
loop $-1 $-1 $242 $236 #
plane-surface $-1 -48.743650691448856 -36.511564526539026 0 1 0 0 0 0 -1 forward_v I I I I #
coedge $-1 $532 $533 $534 $535 forward $237 $-1 #
coedge $-1 $536 $239 $537 $538 forward $149 $-1 #
coedge $-1 $239 $536 $389 $539 forward $149 $-1 #
edge $-1 $391 -48.743650691448856 $540 -43.126100704075419 $239 $541 forward 7 unknown #
coedge $-1 $241 $240 $542 $543 forward $94 $-1 #
coedge $-1 $544 $545 $240 $388 forward $546 $-1 #
edge $-1 $547 43.126100704075419 $392 48.743650691448856 $387 $548 forward 7 unknown #
coedge $-1 $534 $242 $384 $539 reversed $380 $-1 #
coedge $-1 $242 $534 $544 $549 reversed $380 $-1 #
vertex $-1 $385 $550 #
vertex $-1 $549 $551 #
straight-curve $-1 -48.743650691448856 -31.179509458273976 0 0 0 1 I I #
face $-1 $-1 $552 $56 $-1 $553 reversed single #
loop $-1 $-1 $250 $244 #
plane-surface $-1 0 0 11.746816196522307 0 0 1 1 0 0 forward_v I I I I #
coedge $-1 $554 $555 $556 $557 reversed $245 $-1 #
coedge $-1 $558 $247 $249 $404 forward $153 $-1 #
coedge $-1 $247 $558 $554 $559 forward $153 $-1 #
coedge $-1 $556 $250 $247 $401 forward $395 $-1 #
edge $-1 $407 -24.222155092222586 $560 -9.6519124331709989 $400 $561 forward 7 unknown #
coedge $-1 $562 $563 $248 $403 forward $552 $-1 #
edge $-1 $564 -58.343954713586591 $406 -49.208610511771695 $402 $565 forward 7 unknown #
edge $-1 $407 49.439691399292094 $564 62.359018916547974 $249 $566 forward 7 unknown #
coedge $-1 $250 $556 $562 $567 forward $395 $-1 #
vertex $-1 $403 $568 #
vertex $-1 $251 $569 #
straight-curve $-1 -41.159188854919378 31.144961168614731 11.746816196522303 0 -1 0 I I #
coedge $-1 $409 $409 $-1 $570 reversed $254 $-1 #
edge $-1 $571 0 $571 6.2831853071796004 $255 $572 forward 7 unknown #
vertex $-1 $258 $573 #
ellipse-curve $-1 -38.245140323109062 26.61183746335983 7.1791440956148609 0 0.70710678939079041 0.70710677298230451 1 0 0 1 I I #
coedge $-1 $413 $413 $-1 $574 reversed $261 $-1 #
edge $-1 $575 0 $575 6.2831853071796004 $262 $576 forward 7 unknown #
vertex $-1 $265 $577 #
ellipse-curve $-1 -33.874067525393585 26.61183746335983 7.1791440956148609 0 0.70710678939079041 0.70710677298230451 1 0 0 1 I I #
coedge $-1 $417 $417 $-1 $578 reversed $268 $-1 #
edge $-1 $579 0 $579 6.2831853071796004 $269 $580 forward 7 unknown #
vertex $-1 $272 $581 #
ellipse-curve $-1 -29.502994727678114 26.61183746335983 7.1791440956148609 0 0.70710678939079041 0.70710677298230451 1 0 0 1 I I #
face $-1 $-1 $582 $60 $-1 $583 reversed single #
loop $-1 $-1 $279 $273 #
plane-surface $-1 0 0 11.746816196522307 0 0 1 1 0 0 forward_v I I I I #
coedge $-1 $584 $585 $586 $587 reversed $274 $-1 #
coedge $-1 $588 $276 $278 $431 forward $172 $-1 #
coedge $-1 $276 $588 $584 $589 forward $172 $-1 #
coedge $-1 $586 $279 $276 $428 forward $422 $-1 #
edge $-1 $434 -12.930799250424727 $590 1.6394434086268603 $427 $591 forward 7 unknown #
coedge $-1 $592 $593 $277 $430 forward $582 $-1 #
edge $-1 $594 -58.343954713586591 $433 -49.208610511771695 $429 $595 forward 7 unknown #
edge $-1 $434 49.439691399292094 $594 62.359018916547974 $278 $596 forward 7 unknown #
coedge $-1 $279 $586 $592 $597 forward $422 $-1 #
vertex $-1 $280 $598 #
vertex $-1 $280 $599 #
straight-curve $-1 -18.57647717132366 31.144961168614731 11.746816196522303 0 -1 0 I I #
coedge $-1 $436 $436 $-1 $600 reversed $283 $-1 #
edge $-1 $601 0 $601 6.2831853071796004 $284 $602 forward 7 unknown #
vertex $-1 $287 $603 #
ellipse-curve $-1 -15.662428639513344 26.61183746335983 7.1791440956148609 0 0.70710678939079041 0.70710677298230451 1 0 0 1 I I #
coedge $-1 $440 $440 $-1 $604 reversed $290 $-1 #
edge $-1 $605 0 $605 6.2831853071796004 $291 $606 forward 7 unknown #
vertex $-1 $294 $607 #
ellipse-curve $-1 -11.291355841797866 26.61183746335983 7.1791440956148609 0 0.70710678939079041 0.70710677298230451 1 0 0 1 I I #
coedge $-1 $444 $444 $-1 $608 reversed $297 $-1 #
edge $-1 $609 0 $609 6.2831853071796004 $298 $610 forward 7 unknown #
vertex $-1 $301 $611 #
ellipse-curve $-1 -6.9202830440823888 26.61183746335983 7.1791440956148609 0 0.70710678939079041 0.70710677298230451 1 0 0 1 I I #
face $-1 $-1 $612 $64 $-1 $613 reversed single #
loop $-1 $-1 $308 $302 #
plane-surface $-1 0 0 11.746816196522307 0 0 1 1 0 0 forward_v I I I I #
coedge $-1 $614 $615 $616 $617 reversed $303 $-1 #
coedge $-1 $618 $305 $307 $458 forward $191 $-1 #
coedge $-1 $305 $618 $614 $619 forward $191 $-1 #
coedge $-1 $616 $308 $305 $455 forward $449 $-1 #
edge $-1 $461 -1.6394434086268639 $620 12.930799250424723 $454 $621 forward 7 unknown #
coedge $-1 $622 $623 $306 $457 forward $612 $-1 #
edge $-1 $624 -58.343954713586591 $460 -49.208610511771695 $456 $625 forward 7 unknown #
edge $-1 $461 49.439691399292094 $624 62.359018916547974 $307 $626 forward 7 unknown #
coedge $-1 $308 $616 $622 $627 forward $449 $-1 #
vertex $-1 $309 $628 #
vertex $-1 $309 $629 #
straight-curve $-1 4.0062345122720657 31.144961168614731 11.746816196522303 0 -1 0 I I #
coedge $-1 $463 $463 $-1 $630 reversed $312 $-1 #
edge $-1 $631 0 $631 6.2831853071796004 $313 $632 forward 7 unknown #
vertex $-1 $316 $633 #
ellipse-curve $-1 6.9202830440823746 26.61183746335983 7.1791440956148609 0 0.70710678939079041 0.70710677298230451 1 0 0 1 I I #
coedge $-1 $467 $467 $-1 $634 reversed $319 $-1 #
edge $-1 $635 0 $635 6.2831853071796004 $320 $636 forward 7 unknown #
vertex $-1 $323 $637 #
ellipse-curve $-1 11.291355841797859 26.61183746335983 7.1791440956148609 0 0.70710678939079041 0.70710677298230451 1 0 0 1 I I #
coedge $-1 $471 $471 $-1 $638 reversed $326 $-1 #
edge $-1 $639 0 $639 6.2831853071796004 $327 $640 forward 7 unknown #
vertex $-1 $330 $641 #
ellipse-curve $-1 15.66242863951333 26.61183746335983 7.1791440956148609 0 0.70710678939079041 0.70710677298230451 1 0 0 1 I I #
face $-1 $-1 $642 $68 $-1 $643 reversed single #
loop $-1 $-1 $337 $331 #
plane-surface $-1 0 0 11.746816196522307 0 0 1 1 0 0 forward_v I I I I #
coedge $-1 $644 $645 $646 $647 reversed $332 $-1 #
coedge $-1 $648 $334 $336 $485 forward $210 $-1 #
coedge $-1 $334 $648 $644 $649 forward $210 $-1 #
coedge $-1 $646 $337 $334 $482 forward $476 $-1 #
edge $-1 $488 9.6519124331709953 $650 24.222155092222582 $481 $651 forward 7 unknown #
coedge $-1 $652 $653 $335 $484 forward $642 $-1 #
edge $-1 $654 -58.343954713586591 $487 -49.208610511771695 $483 $655 forward 7 unknown #
edge $-1 $488 49.439691399292094 $654 62.359018916547974 $336 $656 forward 7 unknown #
coedge $-1 $337 $646 $652 $657 forward $476 $-1 #
vertex $-1 $338 $658 #
vertex $-1 $338 $659 #
straight-curve $-1 26.588946195867784 31.144961168614731 11.746816196522303 0 -1 0 I I #
coedge $-1 $490 $490 $-1 $660 reversed $341 $-1 #
edge $-1 $661 0 $661 6.2831853071796004 $342 $662 forward 7 unknown #
vertex $-1 $345 $663 #
ellipse-curve $-1 29.502994727678093 26.61183746335983 7.1791440956148609 0 0.70710678939079041 0.70710677298230451 1 0 0 1 I I #
coedge $-1 $494 $494 $-1 $664 reversed $348 $-1 #
edge $-1 $665 0 $665 6.2831853071796004 $349 $666 forward 7 unknown #
vertex $-1 $352 $667 #
ellipse-curve $-1 33.874067525393578 26.61183746335983 7.1791440956148609 0 0.70710678939079041 0.70710677298230451 1 0 0 1 I I #
coedge $-1 $498 $498 $-1 $668 reversed $355 $-1 #
edge $-1 $669 0 $669 6.2831853071796004 $356 $670 forward 7 unknown #
vertex $-1 $359 $671 #
ellipse-curve $-1 38.245140323109048 26.61183746335983 7.1791440956148609 0 0.70710678939079041 0.70710677298230451 1 0 0 1 I I #
face $-1 $-1 $375 $54 $-1 $672 reversed single #
loop $-1 $-1 $518 $360 #
plane-surface $-1 0 31.179509458273976 0 0 -1 0 0 0 -1 forward_v I I I I #
coedge $-1 $673 $516 $519 $674 forward $361 $-1 #
coedge $-1 $522 $363 $364 $510 reversed $229 $-1 #
coedge $-1 $516 $673 $363 $508 reversed $361 $-1 #
edge $-1 $523 -11.746816196522307 $675 11.746816196522307 $507 $676 forward 7 unknown #
coedge $-1 $365 $364 $673 $677 forward $145 $-1 #
edge $-1 $514 -53.17789239173559 $675 53.17789239173559 $506 $678 forward 7 unknown #
coedge $-1 $519 $518 $365 $512 reversed $503 $-1 #
edge $-1 $679 -53.17789239173559 $513 53.17789239173559 $511 $680 forward 7 unknown #
vertex $-1 $367 $681 #
vertex $-1 $525 $682 #
straight-curve $-1 53.17789239173559 0 -11.746816196522307 0 -1 0 I I #
coedge $-1 $505 $507 $368 $517 reversed $361 $-1 #
edge $-1 $520 -31.179509458273976 $523 31.179509458273976 $516 $683 forward 7 unknown #
coedge $-1 $511 $369 $374 $526 forward $503 $-1 #
coedge $-1 $369 $511 $505 $674 reversed $503 $-1 #
vertex $-1 $370 $684 #
straight-curve $-1 0 31.179509458273976 11.746816196522307 -1 0 0 I I #
coedge $-1 $371 $506 $373 $525 reversed $229 $-1 #
vertex $-1 $517 $685 #
straight-curve $-1 0 -31.179509458273976 11.746816196522307 1 0 0 I I #
edge $-1 $376 -11.746816196522307 $514 11.746816196522307 $373 $686 forward 7 unknown #
edge $-1 $377 -11.746816196522307 $513 11.746816196522307 $374 $687 forward 7 unknown #
point $-1 53.17789239173559 -31.179509458273976 11.746816196522307 #
point $-1 53.17789239173559 31.179509458273976 11.746816196522307 #
face $-1 $-1 $546 $55 $-1 $688 forward single #
loop $-1 $-1 $689 $379 #
plane-surface $-1 -43.126100704075419 -36.511564526539026 0 -1 0 0 0 0 1 forward_v I I I I #
coedge $-1 $690 $382 $536 $691 reversed $237 $-1 #
coedge $-1 $382 $690 $692 $693 reversed $237 $-1 #
coedge $-1 $390 $389 $382 $535 reversed $380 $-1 #
edge $-1 $694 -11.746816196522307 $695 11.746816196522307 $534 $696 forward 7 unknown #
coedge $-1 $384 $383 $532 $691 forward $149 $-1 #
coedge $-1 $542 $689 $383 $538 reversed $530 $-1 #
edge $-1 $540 -5.3320550682650456 $697 5.3320550682650492 $537 $698 forward 7 unknown #
edge $-1 $695 -5.3320550682650492 $391 5.3320550682650456 $389 $699 forward 7 unknown #
vertex $-1 $538 $700 #
straight-curve $-1 0 -31.179509458273976 -11.746816196522307 1 0 0 I I #
coedge $-1 $701 $537 $386 $543 reversed $530 $-1 #
edge $-1 $547 -11.746816196522307 $540 11.746816196522307 $542 $702 forward 7 unknown #
coedge $-1 $692 $387 $390 $549 forward $546 $-1 #
coedge $-1 $387 $692 $701 $703 forward $546 $-1 #
loop $-1 $-1 $387 $529 #
vertex $-1 $388 $704 #
straight-curve $-1 0 -31.179509458273976 11.746816196522307 -1 0 0 I I #
edge $-1 $392 -5.3320550682650456 $694 5.3320550682650492 $390 $705 forward 7 unknown #
point $-1 -48.743650691448856 -31.17950945827398 -11.746816196522307 #
point $-1 -48.743650691448856 -31.17950945827398 11.746816196522307 #
loop $-1 $-1 $402 $394 #
plane-surface $-1 0 31.179509458273976 0 0 -1 0 0 0 -1 forward_v I I I I #
coedge $-1 $555 $397 $399 $559 reversed $245 $-1 #
coedge $-1 $397 $554 $706 $707 reversed $245 $-1 #
coedge $-1 $405 $400 $397 $557 forward $395 $-1 #
edge $-1 $560 -9.1007957001690407 $708 0.034548289659245057 $556 $709 forward 7 unknown #
coedge $-1 $399 $398 $563 $710 reversed $153 $-1 #
edge $-1 $711 -62.359018916547974 $560 -49.439691399292094 $554 $712 forward 7 unknown #
vertex $-1 $401 $713 #
straight-curve $-1 -16.937033762696792 22.044165468445687 11.746816196522303 1 0 0 I I #
coedge $-1 $706 $402 $405 $567 reversed $552 $-1 #
coedge $-1 $402 $706 $558 $710 forward $552 $-1 #
vertex $-1 $403 $714 #
straight-curve $-1 -41.159188854919378 31.179509458273976 60.955426708293999 0 0 1 I I #
straight-curve $-1 -41.159188854919378 -12.914975174148729 46.705957650347202 0 0.70710677298230451 -0.70710678939079041 I I #
edge $-1 $708 26.588946195867791 $406 41.159188854919378 $562 $715 forward 7 unknown #
point $-1 -41.159188854919378 31.179509458273976 11.746816196522307 #
point $-1 -41.159188854919378 22.044165468445691 11.746816196522303 #
edge $-1 $716 1 $716 0 $409 $-1 forward 7 unknown #
vertex $-1 $410 $717 #
ellipse-curve $-1 -38.245140323109062 24.146340143254299 4.7136468327214507 0 0.70710678939079041 0.70710677298230451 1 0 0 1 I I #
point $-1 -37.245140323109062 26.611837463359826 7.1791440956148582 #
edge $-1 $718 1 $718 0 $413 $-1 forward 7 unknown #
vertex $-1 $414 $719 #
ellipse-curve $-1 -33.874067525393585 24.146340143254299 4.7136468327214507 0 0.70710678939079041 0.70710677298230451 1 0 0 1 I I #
point $-1 -32.874067525393585 26.611837463359826 7.1791440956148582 #
edge $-1 $720 1 $720 0 $417 $-1 forward 7 unknown #
vertex $-1 $418 $721 #
ellipse-curve $-1 -29.502994727678114 24.146340143254299 4.7136468327214507 0 0.70710678939079041 0.70710677298230451 1 0 0 1 I I #
point $-1 -28.502994727678114 26.611837463359826 7.1791440956148582 #
loop $-1 $-1 $429 $421 #
plane-surface $-1 0 31.179509458273976 0 0 -1 0 0 0 -1 forward_v I I I I #
coedge $-1 $585 $424 $426 $589 reversed $274 $-1 #
coedge $-1 $424 $584 $722 $723 reversed $274 $-1 #
coedge $-1 $432 $427 $424 $587 forward $422 $-1 #
edge $-1 $590 -9.1007957001690407 $724 0.034548289659245057 $586 $725 forward 7 unknown #
coedge $-1 $426 $425 $593 $726 reversed $172 $-1 #
edge $-1 $727 -62.359018916547974 $590 -49.439691399292094 $584 $728 forward 7 unknown #
vertex $-1 $428 $729 #
straight-curve $-1 -5.6456779208989332 22.044165468445687 11.746816196522303 1 0 0 I I #
coedge $-1 $722 $429 $432 $597 reversed $582 $-1 #
coedge $-1 $429 $722 $588 $726 forward $582 $-1 #
vertex $-1 $430 $730 #
straight-curve $-1 -18.57647717132366 31.179509458273976 60.955426708293999 0 0 1 I I #
straight-curve $-1 -18.57647717132366 -12.914975174148729 46.705957650347202 0 0.70710677298230451 -0.70710678939079041 I I #
edge $-1 $724 4.0062345122720728 $433 18.57647717132366 $592 $731 forward 7 unknown #
point $-1 -18.57647717132366 31.179509458273976 11.746816196522307 #
point $-1 -18.57647717132366 22.044165468445691 11.746816196522303 #
edge $-1 $732 1 $732 0 $436 $-1 forward 7 unknown #
vertex $-1 $437 $733 #
ellipse-curve $-1 -15.662428639513344 24.146340143254299 4.7136468327214507 0 0.70710678939079041 0.70710677298230451 1 0 0 1 I I #
point $-1 -14.662428639513344 26.611837463359826 7.1791440956148582 #
edge $-1 $734 1 $734 0 $440 $-1 forward 7 unknown #
vertex $-1 $441 $735 #
ellipse-curve $-1 -11.291355841797866 24.146340143254299 4.7136468327214507 0 0.70710678939079041 0.70710677298230451 1 0 0 1 I I #
point $-1 -10.291355841797866 26.611837463359826 7.1791440956148582 #
edge $-1 $736 1 $736 0 $444 $-1 forward 7 unknown #
vertex $-1 $445 $737 #
ellipse-curve $-1 -6.9202830440823888 24.146340143254299 4.7136468327214507 0 0.70710678939079041 0.70710677298230451 1 0 0 1 I I #
point $-1 -5.9202830440823888 26.611837463359826 7.1791440956148582 #
loop $-1 $-1 $456 $448 #
plane-surface $-1 0 31.179509458273976 0 0 -1 0 0 0 -1 forward_v I I I I #
coedge $-1 $615 $451 $453 $619 reversed $303 $-1 #
coedge $-1 $451 $614 $738 $739 reversed $303 $-1 #
coedge $-1 $459 $454 $451 $617 forward $449 $-1 #
edge $-1 $620 -9.1007957001690407 $740 0.034548289659245057 $616 $741 forward 7 unknown #
coedge $-1 $453 $452 $623 $742 reversed $191 $-1 #
edge $-1 $743 -62.359018916547974 $620 -49.439691399292094 $614 $744 forward 7 unknown #
vertex $-1 $455 $745 #
straight-curve $-1 5.6456779208989296 22.044165468445687 11.746816196522303 1 0 0 I I #
coedge $-1 $738 $456 $459 $627 reversed $612 $-1 #
coedge $-1 $456 $738 $618 $742 forward $612 $-1 #
vertex $-1 $457 $746 #
straight-curve $-1 4.0062345122720657 31.179509458273976 60.955426708293999 0 0 1 I I #
straight-curve $-1 4.0062345122720657 -12.914975174148729 46.705957650347202 0 0.70710677298230451 -0.70710678939079041 I I #
edge $-1 $740 -18.576477171323653 $460 -4.0062345122720657 $622 $747 forward 7 unknown #
point $-1 4.0062345122720657 31.179509458273976 11.746816196522307 #
point $-1 4.0062345122720657 22.044165468445691 11.746816196522303 #
edge $-1 $748 1 $748 0 $463 $-1 forward 7 unknown #
vertex $-1 $464 $749 #
ellipse-curve $-1 6.9202830440823746 24.146340143254299 4.7136468327214507 0 0.70710678939079041 0.70710677298230451 1 0 0 1 I I #
point $-1 7.9202830440823746 26.611837463359826 7.1791440956148582 #
edge $-1 $750 1 $750 0 $467 $-1 forward 7 unknown #
vertex $-1 $468 $751 #
ellipse-curve $-1 11.291355841797859 24.146340143254299 4.7136468327214507 0 0.70710678939079041 0.70710677298230451 1 0 0 1 I I #
point $-1 12.291355841797859 26.611837463359826 7.1791440956148582 #
edge $-1 $752 1 $752 0 $471 $-1 forward 7 unknown #
vertex $-1 $472 $753 #
ellipse-curve $-1 15.66242863951333 24.146340143254299 4.7136468327214507 0 0.70710678939079041 0.70710677298230451 1 0 0 1 I I #
point $-1 16.66242863951333 26.611837463359826 7.1791440956148582 #
loop $-1 $-1 $483 $475 #
plane-surface $-1 0 31.179509458273976 0 0 -1 0 0 0 -1 forward_v I I I I #
coedge $-1 $645 $478 $480 $649 reversed $332 $-1 #
coedge $-1 $478 $644 $754 $755 reversed $332 $-1 #
coedge $-1 $486 $481 $478 $647 forward $476 $-1 #
edge $-1 $650 -9.1007957001690407 $756 0.034548289659245057 $646 $757 forward 7 unknown #
coedge $-1 $480 $479 $653 $758 reversed $210 $-1 #
edge $-1 $759 -62.359018916547974 $650 -49.439691399292094 $644 $760 forward 7 unknown #
vertex $-1 $482 $761 #
straight-curve $-1 16.937033762696789 22.044165468445687 11.746816196522303 1 0 0 I I #
coedge $-1 $754 $483 $486 $657 reversed $642 $-1 #
coedge $-1 $483 $754 $648 $758 forward $642 $-1 #
vertex $-1 $484 $762 #
straight-curve $-1 26.588946195867784 31.179509458273976 60.955426708293999 0 0 1 I I #
straight-curve $-1 26.588946195867784 -12.914975174148729 46.705957650347202 0 0.70710677298230451 -0.70710678939079041 I I #
edge $-1 $756 -41.159188854919371 $487 -26.588946195867784 $652 $763 forward 7 unknown #
point $-1 26.588946195867784 31.179509458273976 11.746816196522307 #
point $-1 26.588946195867784 22.044165468445691 11.746816196522303 #
edge $-1 $764 1 $764 0 $490 $-1 forward 7 unknown #
vertex $-1 $491 $765 #
ellipse-curve $-1 29.502994727678093 24.146340143254299 4.7136468327214507 0 0.70710678939079041 0.70710677298230451 1 0 0 1 I I #
point $-1 30.502994727678093 26.611837463359826 7.1791440956148582 #
edge $-1 $766 1 $766 0 $494 $-1 forward 7 unknown #
vertex $-1 $495 $767 #
ellipse-curve $-1 33.874067525393578 24.146340143254299 4.7136468327214507 0 0.70710678939079041 0.70710677298230451 1 0 0 1 I I #
point $-1 34.874067525393578 26.611837463359826 7.1791440956148582 #
edge $-1 $768 1 $768 0 $498 $-1 forward 7 unknown #
vertex $-1 $499 $769 #
ellipse-curve $-1 38.245140323109048 24.146340143254299 4.7136468327214507 0 0.70710678939079041 0.70710677298230451 1 0 0 1 I I #
point $-1 39.245140323109048 26.611837463359826 7.1791440956148582 #
plane-surface $-1 53.17789239173559 0 0 -1 0 0 0 0 1 forward_v I I I I #
coedge $-1 $507 $505 $509 $677 reversed $361 $-1 #
edge $-1 $520 -11.746816196522307 $679 11.746816196522307 $519 $770 forward 7 unknown #
vertex $-1 $677 $771 #
straight-curve $-1 -53.17789239173559 -31.179509458273976 0 0 0 -1 I I #
edge $-1 $675 -31.179509458273976 $679 31.179509458273976 $673 $772 forward 7 unknown #
straight-curve $-1 0 -31.179509458273976 -11.746816196522307 -1 0 0 I I #
vertex $-1 $512 $773 #
straight-curve $-1 0 31.179509458273976 -11.746816196522307 1 0 0 I I #
point $-1 53.17789239173559 31.179509458273976 -11.746816196522307 #
point $-1 53.17789239173559 -31.179509458273976 -11.746816196522307 #
straight-curve $-1 -53.17789239173559 0 11.746816196522307 0 -1 0 I I #
point $-1 -53.17789239173559 31.179509458273976 11.746816196522307 #
point $-1 -53.17789239173559 -31.179509458273976 11.746816196522307 #
straight-curve $-1 53.17789239173559 -31.179509458273976 0 0 0 -1 I I #
straight-curve $-1 53.17789239173559 31.179509458273976 0 0 0 -1 I I #
plane-surface $-1 0 0 11.746816196522307 0 0 1 1 0 0 forward_v I I I I #
coedge $-1 $537 $701 $690 $774 forward $530 $-1 #
coedge $-1 $533 $532 $689 $774 reversed $237 $-1 #
edge $-1 $697 -2.8087749936867183 $695 2.8087749936867183 $532 $775 forward 7 unknown #
coedge $-1 $545 $544 $533 $693 forward $546 $-1 #
edge $-1 $694 -2.8087749936867183 $776 2.8087749936867183 $533 $777 forward 7 unknown #
vertex $-1 $549 $778 #
vertex $-1 $539 $779 #
straight-curve $-1 -48.743650691448856 -41.843619594804075 0 0 0 -1 I I #
vertex $-1 $774 $780 #
straight-curve $-1 -43.126100704075419 -36.511564526539026 -11.746816196522307 0 -1 0 I I #
straight-curve $-1 -48.743650691448856 -36.511564526539026 -11.746816196522307 0 1 0 I I #
point $-1 -43.126100704075419 -31.17950945827398 -11.746816196522307 #
coedge $-1 $689 $542 $545 $703 reversed $530 $-1 #
straight-curve $-1 -43.126100704075419 -31.179509458273976 0 0 0 -1 I I #
edge $-1 $776 -5.3320550682650492 $547 5.3320550682650456 $701 $781 forward 7 unknown #
point $-1 -43.126100704075419 -31.17950945827398 11.746816196522307 #
straight-curve $-1 -48.743650691448856 -36.511564526539026 11.746816196522307 0 -1 0 I I #
coedge $-1 $563 $562 $555 $707 forward $552 $-1 #
edge $-1 $708 49.208610511771695 $711 58.343954713586591 $706 $782 forward 7 unknown #
vertex $-1 $567 $783 #
straight-curve $-1 -26.588946195867791 31.144961168614731 11.746816196522303 0 1 0 I I #
edge $-1 $711 9.6519124331709989 $564 24.222155092222586 $563 $784 forward 7 unknown #
vertex $-1 $710 $785 #
straight-curve $-1 -26.588946195867791 -12.914975174148729 46.705957650347202 0 -0.70710677298230451 0.70710678939079041 I I #
point $-1 -26.588946195867791 22.044165468445691 11.746816196522303 #
point $-1 -41.159188854919378 31.179509458273976 2.6114719947074079 #
straight-curve $-1 0 31.179509458273976 11.746816196522307 -1 0 0 I I #
vertex $-1 $570 $786 #
point $-1 -37.245140323109062 24.146340143254299 4.7136468327214507 #
vertex $-1 $574 $787 #
point $-1 -32.874067525393585 24.146340143254299 4.7136468327214507 #
vertex $-1 $578 $788 #
point $-1 -28.502994727678114 24.146340143254299 4.7136468327214507 #
coedge $-1 $593 $592 $585 $723 forward $582 $-1 #
edge $-1 $724 49.208610511771695 $727 58.343954713586591 $722 $789 forward 7 unknown #
vertex $-1 $597 $790 #
straight-curve $-1 -4.0062345122720728 31.144961168614731 11.746816196522303 0 1 0 I I #
edge $-1 $727 -1.6394434086268603 $594 12.930799250424727 $593 $791 forward 7 unknown #
vertex $-1 $726 $792 #
straight-curve $-1 -4.0062345122720728 -12.914975174148729 46.705957650347202 0 -0.70710677298230451 0.70710678939079041 I I #
point $-1 -4.0062345122720728 22.044165468445691 11.746816196522303 #
point $-1 -18.57647717132366 31.179509458273976 2.6114719947074079 #
straight-curve $-1 0 31.179509458273976 11.746816196522307 -1 0 0 I I #
vertex $-1 $600 $793 #
point $-1 -14.662428639513344 24.146340143254299 4.7136468327214507 #
vertex $-1 $604 $794 #
point $-1 -10.291355841797866 24.146340143254299 4.7136468327214507 #
vertex $-1 $608 $795 #
point $-1 -5.9202830440823888 24.146340143254299 4.7136468327214507 #
coedge $-1 $623 $622 $615 $739 forward $612 $-1 #
edge $-1 $740 49.208610511771695 $743 58.343954713586591 $738 $796 forward 7 unknown #
vertex $-1 $627 $797 #
straight-curve $-1 18.576477171323653 31.144961168614731 11.746816196522303 0 1 0 I I #
edge $-1 $743 -12.930799250424723 $624 1.6394434086268639 $623 $798 forward 7 unknown #
vertex $-1 $742 $799 #
straight-curve $-1 18.576477171323653 -12.914975174148729 46.705957650347202 0 -0.70710677298230451 0.70710678939079041 I I #
point $-1 18.576477171323653 22.044165468445691 11.746816196522303 #
point $-1 4.0062345122720657 31.179509458273976 2.6114719947074079 #
straight-curve $-1 0 31.179509458273976 11.746816196522307 -1 0 0 I I #
vertex $-1 $630 $800 #
point $-1 7.9202830440823746 24.146340143254299 4.7136468327214507 #
vertex $-1 $634 $801 #
point $-1 12.291355841797859 24.146340143254299 4.7136468327214507 #
vertex $-1 $638 $802 #
point $-1 16.66242863951333 24.146340143254299 4.7136468327214507 #
coedge $-1 $653 $652 $645 $755 forward $642 $-1 #
edge $-1 $756 49.208610511771695 $759 58.343954713586591 $754 $803 forward 7 unknown #
vertex $-1 $657 $804 #
straight-curve $-1 41.159188854919371 31.144961168614731 11.746816196522303 0 1 0 I I #
edge $-1 $759 -24.222155092222582 $654 -9.6519124331709953 $653 $805 forward 7 unknown #
vertex $-1 $758 $806 #
straight-curve $-1 41.159188854919371 -12.914975174148729 46.705957650347202 0 -0.70710677298230451 0.70710678939079041 I I #
point $-1 41.159188854919371 22.044165468445691 11.746816196522303 #
point $-1 26.588946195867784 31.179509458273976 2.6114719947074079 #
straight-curve $-1 0 31.179509458273976 11.746816196522307 -1 0 0 I I #
vertex $-1 $660 $807 #
point $-1 30.502994727678093 24.146340143254299 4.7136468327214507 #
vertex $-1 $664 $808 #
point $-1 34.874067525393578 24.146340143254299 4.7136468327214507 #
vertex $-1 $668 $809 #
point $-1 39.245140323109048 24.146340143254299 4.7136468327214507 #
straight-curve $-1 -53.17789239173559 31.179509458273976 0 0 0 -1 I I #
point $-1 -53.17789239173559 -31.179509458273976 -11.746816196522307 #
straight-curve $-1 -53.17789239173559 0 -11.746816196522307 0 1 0 I I #
point $-1 -53.17789239173559 31.179509458273976 -11.746816196522307 #
edge $-1 $776 -11.746816196522307 $697 11.746816196522307 $689 $810 forward 7 unknown #
straight-curve $-1 -45.934875697762138 -41.843619594804075 -11.746816196522307 -1 0 0 I I #
vertex $-1 $703 $811 #
straight-curve $-1 -45.934875697762138 -41.843619594804075 11.746816196522307 1 0 0 I I #
point $-1 -48.743650691448856 -41.843619594804075 11.746816196522307 #
point $-1 -48.743650691448856 -41.843619594804075 -11.746816196522307 #
point $-1 -43.126100704075419 -41.843619594804075 -11.746816196522307 #
straight-curve $-1 -43.126100704075419 -36.511564526539026 11.746816196522307 0 1 0 I I #
straight-curve $-1 -26.588946195867791 31.179509458273976 60.955426708293999 0 0 -1 I I #
point $-1 -26.588946195867791 31.179509458273976 11.746816196522307 #
straight-curve $-1 -16.937033762696792 31.179509458273973 2.611471994707415 -1 0 0 I I #
point $-1 -26.588946195867791 31.179509458273976 2.6114719947074079 #
point $-1 -38.245140323109062 23.439233353863507 4.0065400597391454 #
point $-1 -33.874067525393585 23.439233353863507 4.0065400597391454 #
point $-1 -29.502994727678114 23.439233353863507 4.0065400597391454 #
straight-curve $-1 -4.0062345122720728 31.179509458273976 60.955426708293999 0 0 -1 I I #
point $-1 -4.0062345122720728 31.179509458273976 11.746816196522307 #
straight-curve $-1 -5.6456779208989332 31.179509458273973 2.611471994707415 -1 0 0 I I #
point $-1 -4.0062345122720728 31.179509458273976 2.6114719947074079 #
point $-1 -15.662428639513344 23.439233353863507 4.0065400597391454 #
point $-1 -11.291355841797866 23.439233353863507 4.0065400597391454 #
point $-1 -6.9202830440823888 23.439233353863507 4.0065400597391454 #
straight-curve $-1 18.576477171323653 31.179509458273976 60.955426708293999 0 0 -1 I I #
point $-1 18.576477171323653 31.179509458273976 11.746816196522307 #
straight-curve $-1 5.6456779208989296 31.179509458273973 2.611471994707415 -1 0 0 I I #
point $-1 18.576477171323653 31.179509458273976 2.6114719947074079 #
point $-1 6.9202830440823746 23.439233353863507 4.0065400597391454 #
point $-1 11.291355841797859 23.439233353863507 4.0065400597391454 #
point $-1 15.66242863951333 23.439233353863507 4.0065400597391454 #
straight-curve $-1 41.159188854919371 31.179509458273976 60.955426708293999 0 0 -1 I I #
point $-1 41.159188854919371 31.179509458273976 11.746816196522307 #
straight-curve $-1 16.937033762696789 31.179509458273973 2.611471994707415 -1 0 0 I I #
point $-1 41.159188854919371 31.179509458273976 2.6114719947074079 #
point $-1 29.502994727678093 23.439233353863507 4.0065400597391454 #
point $-1 33.874067525393578 23.439233353863507 4.0065400597391454 #
point $-1 38.245140323109048 23.439233353863507 4.0065400597391454 #
straight-curve $-1 -43.126100704075419 -41.843619594804075 0 0 0 -1 I I #
point $-1 -43.126100704075419 -41.843619594804075 11.746816196522307 #
End-of-ACIS-data 