500 0 7 0           
7 Unknown 11 ACIS 5.0 NT 24 Thu Mar 25 22:27:48 1999 
-1 9.9999999999999995e-007 1e-010 
body $-1 $7 $-1 $8 #
body $-1 $9 $-1 $10 #
body $-1 $11 $-1 $12 #
body $-1 $13 $-1 $14 #
body $-1 $15 $-1 $16 #
body $-1 $17 $-1 $18 #
body $-1 $19 $-1 $20 #
lump $-1 $-1 $21 $0 #
transform $-1 1 0 0 0 1 0 0 0 1 48.746604815820795 31.509970782264336 14.714974605859824 1 rotate no_reflect no_shear #
lump $-1 $-1 $22 $1 #
transform $-1 1 0 0 0 1 0 0 0 1 48.746604815820795 31.509970782264336 14.714974605859824 1 rotate no_reflect no_shear #
lump $-1 $-1 $23 $2 #
transform $-1 1 0 0 0 1 0 0 0 1 48.746604815820795 31.509970782264336 14.714974605859824 1 rotate no_reflect no_shear #
lump $-1 $-1 $24 $3 #
transform $-1 1 0 0 0 1 0 0 0 1 48.746604815820795 31.509970782264336 14.714974605859824 1 rotate no_reflect no_shear #
lump $-1 $-1 $25 $4 #
transform $-1 1 0 0 0 1 0 0 0 1 48.746604815820795 31.509970782264336 14.714974605859824 1 rotate no_reflect no_shear #
lump $-1 $-1 $26 $5 #
transform $-1 1 0 0 0 1 0 0 0 1 48.746604815820795 31.509970782264336 14.714974605859824 1 rotate no_reflect no_shear #
lump $-1 $-1 $27 $6 #
transform $-1 1 0 0 0 1 0 0 0 1 48.746604815820795 31.509970782264336 14.714974605859824 1 rotate no_reflect no_shear #
shell $-1 $-1 $-1 $28 $-1 $7 #
shell $-1 $-1 $-1 $29 $-1 $9 #
shell $-1 $-1 $-1 $30 $-1 $11 #
shell $-1 $-1 $-1 $31 $-1 $13 #
shell $-1 $-1 $-1 $32 $-1 $15 #
shell $-1 $-1 $-1 $33 $-1 $17 #
shell $-1 $-1 $-1 $34 $-1 $19 #
face $-1 $35 $36 $21 $-1 $37 forward single #
face $-1 $38 $39 $22 $-1 $40 forward single #
face $-1 $41 $42 $23 $-1 $43 forward single #
face $-1 $44 $45 $24 $-1 $46 reversed single #
face $-1 $47 $48 $25 $-1 $49 forward single #
face $-1 $50 $51 $26 $-1 $52 reversed single #
face $-1 $53 $54 $27 $-1 $55 forward single #
face $-1 $56 $57 $21 $-1 $58 reversed single #
loop $-1 $-1 $59 $28 #
plane-surface $-1 0 0 14.714974605859824 0 0 1 1 0 0 forward_v I I I I #
face $-1 $60 $61 $22 $-1 $62 reversed single #
loop $-1 $-1 $63 $29 #
plane-surface $-1 -48.746604815820795 0 0 1 0 0 0 0 -1 forward_v I I I I #
face $-1 $64 $65 $23 $-1 $66 reversed single #
loop $-1 $-1 $67 $30 #
plane-surface $-1 48.746604815820795 0 0 -1 0 0 0 0 1 forward_v I I I I #
face $-1 $68 $69 $24 $-1 $70 reversed single #
loop $-1 $-1 $71 $31 #
plane-surface $-1 14.92236427257123 27.704053513853378 117.13326875128351 1 0 0 0 -0.51503808176128008 -0.85716729658548041 forward_v I I I I #
face $-1 $72 $73 $25 $-1 $74 forward single #
loop $-1 $75 $76 $32 #
cone-surface $-1 25.581053698029329 18.347208713677002 4.8497964130249782 0 -0.51503808176128008 -0.85716729658548041 4 0 0 1 I I 0 1 4 forward I I I I #
face $-1 $77 $78 $26 $-1 $79 reversed single #
loop $-1 $-1 $80 $33 #
plane-surface $-1 -2.121574668219333 -94.177398732301697 78.779205730397791 -1 0 0 0 -0.64278761758704617 0.76604443648966558 forward_v I I I I #
face $-1 $81 $82 $27 $-1 $83 forward single #
loop $-1 $84 $85 $34 #
cone-surface $-1 -10.433147090086464 -24.485810777489274 8.5755543509082433 0 0.64278761758704617 -0.76604443648966558 1 0 0 1 I I 0 1 1 forward I I I I #
face $-1 $86 $87 $21 $-1 $88 reversed single #
loop $-1 $-1 $89 $35 #
plane-surface $-1 0 0 -14.714974605859824 0 0 1 1 0 0 forward_v I I I I #
coedge $-1 $90 $91 $92 $93 forward $36 $-1 #
face $-1 $94 $95 $22 $-1 $96 reversed single #
loop $-1 $-1 $97 $38 #
plane-surface $-1 0 0 -14.714974605859824 0 0 1 1 0 0 forward_v I I I I #
coedge $-1 $98 $99 $100 $101 forward $39 $-1 #
face $-1 $102 $103 $23 $-1 $104 reversed single #
loop $-1 $-1 $105 $41 #
plane-surface $-1 0 0 -14.714974605859824 0 0 1 1 0 0 forward_v I I I I #
coedge $-1 $106 $107 $108 $109 forward $42 $-1 #
face $-1 $110 $111 $24 $-1 $112 reversed single #
loop $-1 $-1 $113 $44 #
plane-surface $-1 25.581053698029315 -22.508662159577664 33.565277815887768 0 0.51503808176128008 0.85716729658548041 1 0 0 forward_v I I I I #
coedge $-1 $114 $115 $116 $117 reversed $45 $-1 #
face $-1 $-1 $118 $25 $-1 $119 forward single #
loop $-1 $120 $121 $47 #
cone-surface $-1 25.581053698029329 15.47760080221639 0.073966930056601043 0 -0.51503808176128008 -0.85716729658548041 2 0 0 1 I I -0.70710678118654746 0.70710678118654746 2 forward I I I I #
loop $-1 $-1 $122 $32 #
coedge $-1 $76 $76 $123 $124 reversed $48 $-1 #
face $-1 $125 $126 $26 $-1 $127 reversed single #
loop $-1 $-1 $128 $50 #
plane-surface $-1 -10.433147090086464 -31.509970782264325 4.0950748965580601 0 -0.64278761758704617 0.76604443648966558 1 0 0 forward_v I I I I #
coedge $-1 $129 $130 $131 $132 reversed $51 $-1 #
face $-1 $-1 $133 $27 $-1 $134 forward single #
loop $-1 $135 $136 $53 #
cone-surface $-1 -10.433147090086464 -23.468408647153087 7.3630617323627003 0 0.64278761758704617 -0.76604443648966558 0.5 0 0 1 I I -0.70710678118654746 0.70710678118654746 0.5 forward I I I I #
loop $-1 $-1 $137 $34 #
coedge $-1 $85 $85 $138 $139 reversed $54 $-1 #
face $-1 $140 $141 $21 $-1 $142 reversed single #
loop $-1 $-1 $143 $56 #
plane-surface $-1 0 -31.509970782264336 0 0 1 0 0 0 1 forward_v I I I I #
coedge $-1 $144 $145 $146 $147 forward $57 $-1 #
coedge $-1 $148 $59 $149 $150 forward $36 $-1 #
coedge $-1 $59 $148 $151 $152 forward $36 $-1 #
coedge $-1 $153 $154 $59 $93 reversed $155 $-1 #
edge $-1 $156 -31.509970782264336 $157 31.509970782264336 $92 $158 forward 7 unknown #
face $-1 $159 $160 $22 $-1 $161 reversed single #
loop $-1 $-1 $162 $60 #
plane-surface $-1 -55.000035661987489 -23.746510573502366 0 0 1 0 0 0 1 forward_v I I I I #
coedge $-1 $163 $164 $99 $165 forward $61 $-1 #
coedge $-1 $166 $63 $167 $168 reversed $39 $-1 #
coedge $-1 $63 $166 $97 $165 reversed $39 $-1 #
coedge $-1 $169 $170 $63 $101 reversed $171 $-1 #
edge $-1 $172 -14.714974605859824 $173 14.714974605859824 $100 $174 forward 7 unknown #
face $-1 $175 $176 $23 $-1 $177 reversed single #
loop $-1 $-1 $108 $64 #
plane-surface $-1 55.000035661987489 -23.746510573502366 0 0 1 0 0 0 1 forward_v I I I I #
coedge $-1 $178 $179 $107 $180 forward $65 $-1 #
coedge $-1 $181 $67 $182 $183 reversed $42 $-1 #
coedge $-1 $67 $181 $105 $180 reversed $42 $-1 #
coedge $-1 $184 $185 $67 $109 reversed $103 $-1 #
edge $-1 $186 -14.714974605859824 $187 14.714974605859824 $108 $188 forward 7 unknown #
face $-1 $189 $190 $24 $-1 $191 reversed single #
loop $-1 $-1 $192 $68 #
plane-surface $-1 36.239743123487401 27.704053513853378 117.13326875128351 -1 0 0 0 0.51503808176128008 0.85716729658548041 forward_v I I I I #
coedge $-1 $193 $194 $195 $196 reversed $69 $-1 #
coedge $-1 $115 $71 $197 $198 reversed $45 $-1 #
coedge $-1 $71 $114 $193 $199 reversed $45 $-1 #
coedge $-1 $195 $200 $71 $117 forward $201 $-1 #
edge $-1 $202 -17.657944025337649 $203 4.9885166159609167 $116 $204 forward 7 unknown #
loop $-1 $-1 $123 $72 #
plane-surface $-1 25.581053698029315 -22.508662159577664 33.565277815887768 0 0.51503808176128008 0.85716729658548041 1 0 0 forward_v I I I I #
loop $-1 $-1 $205 $47 #
coedge $-1 $121 $121 $122 $206 reversed $73 $-1 #
coedge $-1 $122 $122 $121 $206 forward $75 $-1 #
coedge $-1 $123 $123 $76 $124 forward $118 $-1 #
edge $-1 $207 -5.7180713693014704e-016 $207 6.2831853071795996 $123 $208 forward 7 unknown #
face $-1 $209 $210 $26 $-1 $211 forward single #
loop $-1 $-1 $212 $77 #
plane-surface $-1 -18.744719511953598 -94.177398732301697 78.779205730397791 1 0 0 0 0.64278761758704617 -0.76604443648966558 forward_v I I I I #
coedge $-1 $213 $214 $215 $216 reversed $78 $-1 #
coedge $-1 $130 $80 $217 $218 reversed $51 $-1 #
coedge $-1 $80 $129 $213 $219 reversed $51 $-1 #
coedge $-1 $215 $220 $80 $132 forward $210 $-1 #
edge $-1 $221 15.578728583886512 $222 28.235031950351342 $131 $223 forward 7 unknown #
loop $-1 $-1 $138 $81 #
plane-surface $-1 -10.433147090086464 -31.509970782264325 4.0950748965580601 0 -0.64278761758704617 0.76604443648966558 1 0 0 forward_v I I I I #
loop $-1 $-1 $224 $53 #
coedge $-1 $136 $136 $137 $225 reversed $82 $-1 #
coedge $-1 $137 $137 $136 $225 forward $84 $-1 #
coedge $-1 $138 $138 $85 $139 forward $133 $-1 #
edge $-1 $226 9.6995180200276794e-016 $226 6.2831853071796013 $138 $227 forward 7 unknown #
face $-1 $228 $229 $21 $-1 $230 reversed single #
loop $-1 $-1 $231 $86 #
plane-surface $-1 -48.746604815820795 0 0 1 0 0 0 0 -1 forward_v I I I I #
coedge $-1 $232 $151 $233 $234 forward $87 $-1 #
coedge $-1 $235 $89 $232 $236 forward $57 $-1 #
coedge $-1 $89 $235 $237 $238 forward $57 $-1 #
coedge $-1 $154 $153 $89 $147 reversed $155 $-1 #
edge $-1 $239 -31.509970782264336 $240 31.509970782264336 $146 $241 forward 7 unknown #
coedge $-1 $91 $90 $242 $243 forward $36 $-1 #
coedge $-1 $244 $245 $90 $150 reversed $229 $-1 #
edge $-1 $157 -48.746604815820795 $246 48.746604815820795 $149 $247 forward 7 unknown #
coedge $-1 $143 $248 $91 $152 reversed $87 $-1 #
edge $-1 $249 -48.746604815820795 $156 48.746604815820795 $151 $250 forward 7 unknown #
coedge $-1 $146 $92 $248 $251 forward $155 $-1 #
coedge $-1 $92 $146 $244 $252 reversed $155 $-1 #
loop $-1 $-1 $153 $228 #
vertex $-1 $93 $253 #
vertex $-1 $93 $254 #
straight-curve $-1 48.746604815820795 0 14.714974605859824 0 1 0 I I #
face $-1 $255 $171 $22 $-1 $256 reversed single #
loop $-1 $-1 $257 $94 #
plane-surface $-1 -61.253466508154183 -21.691300109202384 0 1 0 0 0 0 -1 forward_v I I I I #
coedge $-1 $258 $259 $260 $261 forward $95 $-1 #
coedge $-1 $262 $97 $258 $263 forward $61 $-1 #
coedge $-1 $97 $262 $169 $264 forward $61 $-1 #
edge $-1 $172 19.636089644902402 $265 23.746510573502366 $97 $266 forward 7 unknown #
coedge $-1 $99 $98 $267 $268 forward $39 $-1 #
coedge $-1 $269 $270 $98 $168 forward $271 $-1 #
edge $-1 $272 -23.746510573502366 $173 -19.636089644902402 $167 $273 forward 7 unknown #
coedge $-1 $274 $100 $164 $264 reversed $171 $-1 #
coedge $-1 $100 $274 $269 $275 reversed $171 $-1 #
loop $-1 $-1 $100 $159 #
vertex $-1 $165 $276 #
vertex $-1 $275 $277 #
straight-curve $-1 -48.746604815820795 -19.636089644902402 0 0 0 1 I I #
face $-1 $278 $279 $23 $-1 $280 reversed single #
loop $-1 $-1 $281 $102 #
plane-surface $-1 55.000035661987489 -19.636089644902402 0 0 -1 0 0 0 -1 forward_v I I I I #
coedge $-1 $282 $105 $283 $284 forward $65 $-1 #
coedge $-1 $105 $282 $184 $285 forward $65 $-1 #
edge $-1 $186 -23.746510573502366 $286 -19.636089644902402 $105 $287 forward 7 unknown #
coedge $-1 $107 $106 $288 $289 forward $42 $-1 #
coedge $-1 $290 $291 $106 $183 forward $292 $-1 #
edge $-1 $293 19.636089644902402 $187 23.746510573502366 $182 $294 forward 7 unknown #
coedge $-1 $295 $108 $179 $285 reversed $103 $-1 #
coedge $-1 $108 $295 $290 $296 reversed $103 $-1 #
vertex $-1 $180 $297 #
vertex $-1 $296 $298 #
straight-curve $-1 48.746604815820795 -23.746510573502366 0 0 0 1 I I #
face $-1 $-1 $201 $24 $-1 $299 forward single #
loop $-1 $-1 $300 $110 #
plane-surface $-1 0 31.509970782264336 0 0 -1 0 0 0 -1 forward_v I I I I #
coedge $-1 $301 $302 $303 $304 reversed $111 $-1 #
coedge $-1 $305 $113 $115 $199 forward $69 $-1 #
coedge $-1 $113 $305 $301 $306 forward $69 $-1 #
coedge $-1 $303 $116 $113 $196 forward $201 $-1 #
edge $-1 $203 2.131837423556572 $307 23.449216274472743 $195 $308 forward 7 unknown #
coedge $-1 $309 $310 $114 $198 forward $190 $-1 #
edge $-1 $311 -57.459026375856801 $202 -43.851659769781932 $197 $312 forward 7 unknown #
edge $-1 $203 36.599824124782003 $311 63.019941564528679 $115 $313 forward 7 unknown #
coedge $-1 $116 $303 $309 $314 forward $201 $-1 #
loop $-1 $-1 $303 $189 #
vertex $-1 $198 $315 #
vertex $-1 $117 $316 #
straight-curve $-1 14.92236427257123 13.852026756926689 14.714974605859823 0 -1 0 I I #
coedge $-1 $205 $205 $-1 $317 reversed $120 $-1 #
edge $-1 $318 0 $318 6.2831853071796004 $121 $319 forward 7 unknown #
vertex $-1 $124 $320 #
ellipse-curve $-1 25.581053698029329 20.186740461615052 7.9112913028223897 0 0.51503808176128008 0.85716729658548041 4 0 0 1 I I #
face $-1 $-1 $321 $26 $-1 $322 reversed single #
loop $-1 $-1 $131 $125 #
plane-surface $-1 0 0 14.714974605859824 0 0 1 1 0 0 forward_v I I I I #
coedge $-1 $323 $324 $325 $326 reversed $126 $-1 #
coedge $-1 $327 $128 $130 $219 forward $78 $-1 #
coedge $-1 $128 $327 $323 $328 forward $78 $-1 #
coedge $-1 $325 $131 $128 $216 forward $210 $-1 #
edge $-1 $222 -3.0949988768238992 $329 13.528145966910365 $215 $330 forward 7 unknown #
coedge $-1 $331 $332 $129 $218 forward $321 $-1 #
edge $-1 $333 -35.294527968640843 $221 -24.674628259339073 $217 $334 forward 7 unknown #
edge $-1 $222 -16.521630813561245 $333 1.3873710548170279e-014 $130 $335 forward 7 unknown #
coedge $-1 $131 $325 $331 $336 forward $210 $-1 #
vertex $-1 $132 $337 #
vertex $-1 $132 $338 #
straight-curve $-1 -2.121574668219333 -47.088699366150848 14.714974605859823 0 1 0 I I #
coedge $-1 $224 $224 $-1 $339 reversed $135 $-1 #
edge $-1 $340 0 $340 6.2831853071796004 $136 $341 forward 7 unknown #
vertex $-1 $139 $342 #
ellipse-curve $-1 -10.433147090086464 -25.181819099031923 9.4050247512089378 0 -0.64278761758704617 0.76604443648966558 1 0 0 1 I I #
face $-1 $-1 $155 $21 $-1 $343 reversed single #
loop $-1 $-1 $244 $140 #
plane-surface $-1 0 31.509970782264336 0 0 -1 0 0 0 -1 forward_v I I I I #
coedge $-1 $344 $242 $245 $345 forward $141 $-1 #
coedge $-1 $248 $143 $144 $236 reversed $87 $-1 #
coedge $-1 $242 $344 $143 $234 reversed $141 $-1 #
edge $-1 $249 -14.714974605859824 $346 14.714974605859824 $233 $347 forward 7 unknown #
coedge $-1 $145 $144 $344 $348 forward $57 $-1 #
edge $-1 $240 -48.746604815820795 $346 48.746604815820795 $232 $349 forward 7 unknown #
coedge $-1 $245 $244 $145 $238 reversed $229 $-1 #
edge $-1 $350 -48.746604815820795 $239 48.746604815820795 $237 $351 forward 7 unknown #
vertex $-1 $147 $352 #
vertex $-1 $251 $353 #
straight-curve $-1 48.746604815820795 0 -14.714974605859824 0 -1 0 I I #
coedge $-1 $231 $233 $148 $243 reversed $141 $-1 #
edge $-1 $246 -31.509970782264336 $249 31.509970782264336 $242 $354 forward 7 unknown #
coedge $-1 $237 $149 $154 $252 forward $229 $-1 #
coedge $-1 $149 $237 $231 $345 reversed $229 $-1 #
vertex $-1 $150 $355 #
straight-curve $-1 0 31.509970782264336 14.714974605859824 -1 0 0 I I #
coedge $-1 $151 $232 $153 $251 reversed $87 $-1 #
vertex $-1 $243 $356 #
straight-curve $-1 0 -31.509970782264336 14.714974605859824 1 0 0 I I #
edge $-1 $156 -14.714974605859824 $240 14.714974605859824 $153 $357 forward 7 unknown #
edge $-1 $157 -14.714974605859824 $239 14.714974605859824 $154 $358 forward 7 unknown #
point $-1 48.746604815820795 -31.509970782264336 14.714974605859824 #
point $-1 48.746604815820795 31.509970782264336 14.714974605859824 #
face $-1 $-1 $271 $22 $-1 $359 forward single #
plane-surface $-1 -55.000035661987489 -19.636089644902402 0 0 -1 0 0 0 -1 forward_v I I I I #
coedge $-1 $360 $361 $274 $362 forward $160 $-1 #
coedge $-1 $267 $162 $163 $263 reversed $95 $-1 #
coedge $-1 $162 $267 $270 $363 reversed $95 $-1 #
coedge $-1 $361 $360 $162 $261 reversed $160 $-1 #
edge $-1 $364 -14.714974605859824 $365 14.714974605859824 $260 $366 forward 7 unknown #
coedge $-1 $164 $163 $360 $367 forward $61 $-1 #
edge $-1 $265 -6.2534308461666939 $365 6.2534308461666939 $258 $368 forward 7 unknown #
edge $-1 $369 -6.2534308461666939 $172 6.2534308461666939 $169 $370 forward 7 unknown #
vertex $-1 $263 $371 #
straight-curve $-1 -48.746604815820795 0 -14.714974605859824 0 -1 0 I I #
coedge $-1 $259 $258 $166 $268 reversed $95 $-1 #
edge $-1 $272 -14.714974605859824 $265 14.714974605859824 $267 $372 forward 7 unknown #
coedge $-1 $373 $167 $170 $275 forward $271 $-1 #
coedge $-1 $167 $373 $259 $363 forward $271 $-1 #
loop $-1 $-1 $167 $255 #
vertex $-1 $168 $374 #
straight-curve $-1 -48.746604815820795 0 14.714974605859824 0 1 0 I I #
coedge $-1 $170 $169 $257 $362 reversed $171 $-1 #
edge $-1 $173 -6.2534308461666939 $375 6.2534308461666939 $170 $376 forward 7 unknown #
point $-1 -48.746604815820795 -19.636089644902402 -14.714974605859824 #
point $-1 -48.746604815820795 -19.636089644902402 14.714974605859824 #
face $-1 $-1 $292 $23 $-1 $377 forward single #
loop $-1 $-1 $378 $175 #
plane-surface $-1 61.253466508154183 -21.691300109202384 0 -1 0 0 0 0 1 forward_v I I I I #
coedge $-1 $283 $379 $380 $381 forward $176 $-1 #
coedge $-1 $179 $178 $382 $383 forward $65 $-1 #
coedge $-1 $288 $281 $178 $284 reversed $176 $-1 #
edge $-1 $286 -6.2534308461666939 $384 6.2534308461666939 $283 $385 forward 7 unknown #
edge $-1 $386 -6.2534308461666939 $186 6.2534308461666939 $184 $387 forward 7 unknown #
vertex $-1 $284 $388 #
straight-curve $-1 48.746604815820795 0 -14.714974605859824 0 1 0 I I #
coedge $-1 $379 $283 $181 $289 reversed $176 $-1 #
edge $-1 $293 -14.714974605859824 $286 14.714974605859824 $288 $389 forward 7 unknown #
coedge $-1 $390 $182 $185 $296 forward $292 $-1 #
coedge $-1 $182 $390 $379 $391 forward $292 $-1 #
loop $-1 $-1 $182 $278 #
vertex $-1 $183 $392 #
straight-curve $-1 48.746604815820795 0 14.714974605859824 0 -1 0 I I #
coedge $-1 $185 $184 $378 $393 reversed $103 $-1 #
edge $-1 $187 -6.2534308461666939 $394 6.2534308461666939 $185 $395 forward 7 unknown #
point $-1 48.746604815820795 -23.746510573502366 -14.714974605859824 #
point $-1 48.746604815820795 -23.746510573502366 14.714974605859824 #
plane-surface $-1 0 0 14.714974605859824 0 0 1 1 0 0 forward_v I I I I #
coedge $-1 $310 $309 $302 $396 forward $190 $-1 #
coedge $-1 $302 $192 $194 $306 reversed $111 $-1 #
coedge $-1 $192 $301 $300 $396 reversed $111 $-1 #
coedge $-1 $200 $195 $192 $304 forward $201 $-1 #
edge $-1 $307 -4.9885166159609167 $397 17.657944025337649 $303 $398 forward 7 unknown #
coedge $-1 $194 $193 $310 $399 reversed $69 $-1 #
edge $-1 $400 -63.019941564528679 $307 -36.599824124782003 $301 $401 forward 7 unknown #
vertex $-1 $196 $402 #
straight-curve $-1 12.790526849014658 8.8635101409657722 14.714974605859824 1 0 0 I I #
coedge $-1 $300 $197 $200 $314 reversed $190 $-1 #
coedge $-1 $197 $300 $305 $399 forward $190 $-1 #
vertex $-1 $198 $403 #
straight-curve $-1 14.92236427257123 31.509970782264336 58.566634375641755 0 0 1 I I #
straight-curve $-1 14.92236427257123 -22.508662159577664 33.565277815887768 0 0.85716729658548041 -0.51503808176128008 I I #
edge $-1 $397 -36.239743123487401 $202 -14.92236427257123 $309 $404 forward 7 unknown #
point $-1 14.92236427257123 31.509970782264336 14.714974605859824 #
point $-1 14.92236427257123 8.8635101409657722 14.714974605859823 #
edge $-1 $405 1 $405 0 $205 $-1 forward 7 unknown #
vertex $-1 $206 $406 #
ellipse-curve $-1 25.581053698029329 16.507676965738952 1.7883015232275619 0 0.51503808176128008 0.85716729658548041 4 0 0 1 I I #
point $-1 29.581053698029329 20.186740461615052 7.9112913028223941 #
loop $-1 $-1 $217 $209 #
plane-surface $-1 0 -31.509970782264336 0 0 1 0 0 0 1 forward_v I I I I #
coedge $-1 $324 $212 $214 $328 reversed $126 $-1 #
coedge $-1 $212 $323 $407 $408 reversed $126 $-1 #
coedge $-1 $220 $215 $212 $326 forward $210 $-1 #
edge $-1 $329 -28.235031950351342 $409 -15.578728583886512 $325 $410 forward 7 unknown #
coedge $-1 $214 $213 $332 $411 reversed $78 $-1 #
edge $-1 $412 -1.3873710548170279e-014 $329 16.521630813561245 $323 $413 forward 7 unknown #
vertex $-1 $216 $414 #
straight-curve $-1 -5.2165735450432322 -18.853667415799507 14.714974605859824 -1 0 0 I I #
coedge $-1 $407 $217 $220 $336 reversed $321 $-1 #
coedge $-1 $217 $407 $327 $411 forward $321 $-1 #
vertex $-1 $218 $415 #
straight-curve $-1 -2.121574668219333 -31.509970782264336 39.389602865198896 0 0 1 I I #
straight-curve $-1 -2.121574668219333 -31.509970782264325 4.0950748965580601 0 -0.76604443648966558 -0.64278761758704617 I I #
edge $-1 $409 -18.744719511953598 $221 -2.121574668219333 $331 $416 forward 7 unknown #
point $-1 -2.121574668219333 -31.509970782264336 14.714974605859824 #
point $-1 -2.121574668219333 -18.853667415799507 14.714974605859824 #
edge $-1 $417 1 $417 0 $224 $-1 forward 7 unknown #
vertex $-1 $225 $418 #
ellipse-curve $-1 -10.433147090086464 -23.78980245594661 7.7460839506075327 0 -0.64278761758704617 0.76604443648966558 1 0 0 1 I I #
point $-1 -9.4331470900864645 -25.181819099031934 9.405024751208952 #
plane-surface $-1 48.746604815820795 0 0 -1 0 0 0 0 1 forward_v I I I I #
coedge $-1 $233 $231 $235 $348 reversed $141 $-1 #
edge $-1 $246 -14.714974605859824 $350 14.714974605859824 $245 $419 forward 7 unknown #
vertex $-1 $348 $420 #
straight-curve $-1 -48.746604815820795 -31.509970782264336 0 0 0 -1 I I #
edge $-1 $346 -31.509970782264336 $350 31.509970782264336 $344 $421 forward 7 unknown #
straight-curve $-1 0 -31.509970782264336 -14.714974605859824 -1 0 0 I I #
vertex $-1 $238 $422 #
straight-curve $-1 0 31.509970782264336 -14.714974605859824 1 0 0 I I #
point $-1 48.746604815820795 31.509970782264336 -14.714974605859824 #
point $-1 48.746604815820795 -31.509970782264336 -14.714974605859824 #
straight-curve $-1 -48.746604815820795 0 14.714974605859824 0 -1 0 I I #
point $-1 -48.746604815820795 31.509970782264336 14.714974605859824 #
point $-1 -48.746604815820795 -31.509970782264336 14.714974605859824 #
straight-curve $-1 48.746604815820795 -31.509970782264336 0 0 0 -1 I I #
straight-curve $-1 48.746604815820795 31.509970782264336 0 0 0 -1 I I #
plane-surface $-1 0 0 14.714974605859824 0 0 1 1 0 0 forward_v I I I I #
coedge $-1 $260 $257 $262 $367 reversed $160 $-1 #
coedge $-1 $257 $260 $373 $423 reversed $160 $-1 #
edge $-1 $375 -14.714974605859824 $369 14.714974605859824 $274 $424 forward 7 unknown #
edge $-1 $364 -6.2534308461666939 $272 6.2534308461666939 $259 $425 forward 7 unknown #
vertex $-1 $423 $426 #
vertex $-1 $367 $427 #
straight-curve $-1 -61.253466508154183 -23.746510573502366 0 0 0 -1 I I #
edge $-1 $365 -2.0552104642999822 $369 2.0552104642999822 $360 $428 forward 7 unknown #
straight-curve $-1 -55.000035661987489 -23.746510573502366 -14.714974605859824 -1 0 0 I I #
vertex $-1 $264 $429 #
straight-curve $-1 -55.000035661987489 -19.636089644902402 -14.714974605859824 1 0 0 I I #
point $-1 -48.746604815820795 -23.746510573502366 -14.714974605859824 #
straight-curve $-1 -48.746604815820795 -23.746510573502366 0 0 0 -1 I I #
coedge $-1 $270 $269 $361 $423 forward $271 $-1 #
point $-1 -48.746604815820795 -23.746510573502366 14.714974605859824 #
vertex $-1 $275 $430 #
straight-curve $-1 -55.000035661987489 -19.636089644902402 14.714974605859824 -1 0 0 I I #
plane-surface $-1 0 0 14.714974605859824 0 0 1 1 0 0 forward_v I I I I #
coedge $-1 $382 $431 $295 $393 forward $279 $-1 #
coedge $-1 $281 $288 $291 $391 reversed $176 $-1 #
coedge $-1 $431 $382 $281 $381 reversed $279 $-1 #
edge $-1 $432 -14.714974605859824 $384 14.714974605859824 $380 $433 forward 7 unknown #
coedge $-1 $380 $378 $282 $383 reversed $279 $-1 #
edge $-1 $384 -2.0552104642999822 $386 2.0552104642999822 $382 $434 forward 7 unknown #
vertex $-1 $383 $435 #
straight-curve $-1 55.000035661987489 -19.636089644902402 -14.714974605859824 1 0 0 I I #
vertex $-1 $393 $436 #
straight-curve $-1 55.000035661987489 -23.746510573502366 -14.714974605859824 -1 0 0 I I #
point $-1 48.746604815820795 -19.636089644902402 -14.714974605859824 #
straight-curve $-1 48.746604815820795 -19.636089644902402 0 0 0 -1 I I #
coedge $-1 $291 $290 $431 $437 forward $292 $-1 #
edge $-1 $432 -6.2534308461666939 $293 6.2534308461666939 $379 $438 forward 7 unknown #
point $-1 48.746604815820795 -19.636089644902402 14.714974605859824 #
edge $-1 $394 -14.714974605859824 $386 14.714974605859824 $378 $439 forward 7 unknown #
vertex $-1 $437 $440 #
straight-curve $-1 55.000035661987489 -23.746510573502366 14.714974605859824 1 0 0 I I #
edge $-1 $397 43.851659769781932 $400 57.459026375856801 $300 $441 forward 7 unknown #
vertex $-1 $314 $442 #
straight-curve $-1 36.239743123487401 13.852026756926689 14.714974605859823 0 1 0 I I #
edge $-1 $400 -23.449216274472743 $311 -2.131837423556572 $310 $443 forward 7 unknown #
vertex $-1 $399 $444 #
straight-curve $-1 36.239743123487401 -22.508662159577664 33.565277815887768 0 -0.85716729658548041 0.51503808176128008 I I #
point $-1 36.239743123487401 8.8635101409657722 14.714974605859823 #
point $-1 14.92236427257123 31.509970782264336 1.1076079997849533 #
straight-curve $-1 0 31.509970782264336 14.714974605859824 -1 0 0 I I #
vertex $-1 $317 $445 #
point $-1 29.581053698029329 16.507676965738952 1.7883015232275619 #
coedge $-1 $332 $331 $324 $408 forward $321 $-1 #
edge $-1 $409 24.674628259339073 $412 35.294527968640843 $407 $446 forward 7 unknown #
vertex $-1 $336 $447 #
straight-curve $-1 -18.744719511953598 -47.088699366150848 14.714974605859823 0 -1 0 I I #
edge $-1 $412 -13.528145966910365 $333 3.0949988768238992 $332 $448 forward 7 unknown #
vertex $-1 $411 $449 #
straight-curve $-1 -18.744719511953598 -31.509970782264325 4.0950748965580601 0 0.76604443648966558 0.64278761758704617 I I #
point $-1 -18.744719511953598 -18.853667415799507 14.714974605859824 #
point $-1 -2.121574668219333 -31.509970782264336 4.0950748965580512 #
straight-curve $-1 0 -31.509970782264336 14.714974605859824 1 0 0 I I #
vertex $-1 $339 $450 #
point $-1 -9.4331470900864645 -23.78980245594661 7.7460839506075327 #
straight-curve $-1 -48.746604815820795 31.509970782264336 0 0 0 -1 I I #
point $-1 -48.746604815820795 -31.509970782264336 -14.714974605859824 #
straight-curve $-1 -48.746604815820795 0 -14.714974605859824 0 1 0 I I #
point $-1 -48.746604815820795 31.509970782264336 -14.714974605859824 #
edge $-1 $375 -2.0552104642999822 $364 2.0552104642999822 $361 $451 forward 7 unknown #
straight-curve $-1 -61.253466508154183 -19.636089644902402 0 0 0 -1 I I #
straight-curve $-1 -55.000035661987489 -23.746510573502366 14.714974605859824 1 0 0 I I #
point $-1 -61.253466508154183 -23.746510573502366 14.714974605859824 #
point $-1 -61.253466508154183 -23.746510573502366 -14.714974605859824 #
straight-curve $-1 -61.253466508154183 -21.691300109202384 -14.714974605859824 0 1 0 I I #
point $-1 -61.253466508154183 -19.636089644902402 -14.714974605859824 #
point $-1 -61.253466508154183 -19.636089644902402 14.714974605859824 #
coedge $-1 $378 $380 $390 $437 reversed $279 $-1 #
vertex $-1 $437 $452 #
straight-curve $-1 61.253466508154183 -19.636089644902402 0 0 0 -1 I I #
straight-curve $-1 61.253466508154183 -21.691300109202384 -14.714974605859824 0 -1 0 I I #
point $-1 61.253466508154183 -19.636089644902402 -14.714974605859824 #
point $-1 61.253466508154183 -23.746510573502366 -14.714974605859824 #
edge $-1 $394 -2.0552104642999822 $432 2.0552104642999822 $431 $453 forward 7 unknown #
straight-curve $-1 55.000035661987489 -19.636089644902402 14.714974605859824 -1 0 0 I I #
straight-curve $-1 61.253466508154183 -23.746510573502366 0 0 0 -1 I I #
point $-1 61.253466508154183 -23.746510573502366 14.714974605859824 #
straight-curve $-1 36.239743123487401 31.509970782264336 58.566634375641755 0 0 -1 I I #
point $-1 36.239743123487401 31.509970782264336 14.714974605859824 #
straight-curve $-1 12.790526849014658 31.509970782264332 1.1076079997849533 -1 0 0 I I #
point $-1 36.239743123487401 31.509970782264336 1.1076079997849533 #
point $-1 25.581053698029329 14.44752463869383 -1.6403676631143598 #
straight-curve $-1 -18.744719511953598 -31.509970782264336 39.389602865198896 0 0 -1 I I #
point $-1 -18.744719511953598 -31.509970782264336 14.714974605859824 #
straight-curve $-1 -5.2165735450432322 -31.509970782264336 4.0950748965580548 1 0 0 I I #
point $-1 -18.744719511953598 -31.509970782264336 4.0950748965580512 #
point $-1 -10.433147090086464 -23.147014838359564 6.9800395141178679 #
straight-curve $-1 -61.253466508154183 -21.691300109202384 14.714974605859824 0 -1 0 I I #
point $-1 61.253466508154183 -19.636089644902402 14.714974605859824 #
straight-curve $-1 61.253466508154183 -21.691300109202384 14.714974605859824 0 1 0 I I #
End-of-ACIS-data 