500 0 5 0           
7 Unknown 11 ACIS 5.0 NT 24 Thu Mar 25 21:42:39 1999 
-1 9.9999999999999995e-007 1e-010 
body $-1 $5 $-1 $6 #
body $-1 $7 $-1 $8 #
body $-1 $9 $-1 $10 #
body $-1 $11 $-1 $12 #
body $-1 $13 $-1 $14 #
lump $-1 $-1 $15 $0 #
transform $-1 1 0 0 0 1 0 0 0 1 71.006805627613147 32.522447528875254 12.939402194271311 1 rotate no_reflect no_shear #
lump $-1 $-1 $16 $1 #
transform $-1 1 0 0 0 1 0 0 0 1 71.006805627613147 32.522447528875254 12.939402194271311 1 rotate no_reflect no_shear #
lump $-1 $-1 $17 $2 #
transform $-1 1 0 0 0 1 0 0 0 1 71.006805627613147 32.522447528875254 12.939402194271311 1 rotate no_reflect no_shear #
lump $-1 $-1 $18 $3 #
transform $-1 1 0 0 0 1 0 0 0 1 71.006805627613147 32.522447528875254 12.939402194271311 1 rotate no_reflect no_shear #
lump $-1 $-1 $19 $4 #
transform $-1 1 0 0 0 1 0 0 0 1 71.006805627613147 32.522447528875254 12.939402194271311 1 rotate no_reflect no_shear #
shell $-1 $-1 $-1 $20 $-1 $5 #
shell $-1 $-1 $-1 $21 $-1 $7 #
shell $-1 $-1 $-1 $22 $-1 $9 #
shell $-1 $-1 $-1 $23 $-1 $11 #
shell $-1 $-1 $-1 $24 $-1 $13 #
face $-1 $25 $26 $15 $-1 $27 forward single #
face $-1 $28 $29 $16 $-1 $30 forward single #
face $-1 $31 $32 $17 $-1 $33 reversed single #
face $-1 $34 $35 $18 $-1 $36 forward single #
face $-1 $37 $38 $19 $-1 $39 forward single #
face $-1 $40 $41 $15 $-1 $42 reversed single #
loop $-1 $-1 $43 $20 #
plane-surface $-1 0 0 12.939402194271311 0 0 1 1 0 0 forward_v I I I I #
face $-1 $44 $45 $16 $-1 $46 reversed single #
loop $-1 $-1 $47 $21 #
plane-surface $-1 -71.006805627613147 0 0 1 0 0 0 0 -1 forward_v I I I I #
face $-1 $48 $49 $17 $-1 $50 reversed single #
loop $-1 $-1 $51 $22 #
plane-surface $-1 12.648703548740034 -127.54810248215782 113.34605795027115 -1 0 0 0 -0.66913061440640931 0.74314481823134659 forward_v I I I I #
face $-1 $52 $53 $18 $-1 $54 forward single #
loop $-1 $55 $56 $23 #
cone-surface $-1 -13.181058312268156 -28.962720007823247 9.5847522647554104 0 0.66913061440640931 -0.74314481823134659 1 0 0 1 I I 0 1 1 forward I I I I #
face $-1 $57 $58 $19 $-1 $59 forward single #
loop $-1 $60 $61 $24 #
cone-surface $-1 2.3167988043367558 -28.962720007823247 9.5847522647554104 0 0.66913061440640931 -0.74314481823134659 1 0 0 1 I I 0 1 1 forward I I I I #
face $-1 $62 $63 $15 $-1 $64 reversed single #
loop $-1 $-1 $65 $25 #
plane-surface $-1 0 0 -12.939402194271311 0 0 1 1 0 0 forward_v I I I I #
coedge $-1 $66 $67 $68 $69 forward $26 $-1 #
face $-1 $70 $71 $16 $-1 $72 forward single #
loop $-1 $-1 $73 $28 #
plane-surface $-1 0 32.522447528875254 0 0 -1 0 0 0 -1 forward_v I I I I #
coedge $-1 $74 $75 $76 $77 forward $29 $-1 #
face $-1 $78 $79 $17 $-1 $80 reversed single #
loop $-1 $-1 $81 $31 #
plane-surface $-1 -5.4321297539656968 -32.522447528875276 7.8093786276288881 0 -0.66913061440640931 0.74314481823134659 1 0 0 forward_v I I I I #
coedge $-1 $82 $83 $84 $85 reversed $32 $-1 #
face $-1 $-1 $86 $18 $-1 $87 forward single #
loop $-1 $88 $89 $34 #
cone-surface $-1 -13.181058312268156 -27.917161304770929 8.4235417094450664 0 0.66913061440640931 -0.74314481823134659 0.5 0 0 1 I I -0.70710678118654746 0.70710678118654746 0.5 forward I I I I #
loop $-1 $-1 $90 $23 #
coedge $-1 $56 $56 $91 $92 reversed $35 $-1 #
face $-1 $-1 $93 $19 $-1 $94 forward single #
loop $-1 $95 $96 $37 #
cone-surface $-1 2.3167988043367558 -27.917161304770929 8.4235417094450664 0 0.66913061440640931 -0.74314481823134659 0.5 0 0 1 I I -0.70710678118654746 0.70710678118654746 0.5 forward I I I I #
loop $-1 $-1 $97 $24 #
coedge $-1 $61 $61 $98 $99 reversed $38 $-1 #
face $-1 $100 $101 $15 $-1 $102 reversed single #
loop $-1 $-1 $103 $40 #
plane-surface $-1 0 -32.522447528875254 0 0 1 0 0 0 1 forward_v I I I I #
coedge $-1 $104 $105 $106 $107 forward $41 $-1 #
coedge $-1 $108 $43 $109 $110 forward $26 $-1 #
coedge $-1 $43 $108 $111 $112 forward $26 $-1 #
coedge $-1 $113 $114 $43 $69 reversed $115 $-1 #
edge $-1 $116 -32.522447528875254 $117 32.522447528875254 $68 $118 forward 7 unknown #
face $-1 $119 $120 $16 $-1 $121 reversed single #
loop $-1 $-1 $76 $44 #
plane-surface $-1 -76.313066222816133 0 -8.3582685886393815 0 0 1 1 0 0 forward_v I I I I #
coedge $-1 $122 $123 $75 $124 forward $45 $-1 #
coedge $-1 $125 $47 $126 $127 reversed $29 $-1 #
coedge $-1 $47 $125 $73 $124 reversed $29 $-1 #
coedge $-1 $128 $129 $47 $77 reversed $71 $-1 #
edge $-1 $130 -32.522447528875254 $131 32.522447528875254 $76 $132 forward 7 unknown #
face $-1 $133 $134 $17 $-1 $135 reversed single #
loop $-1 $-1 $136 $48 #
plane-surface $-1 -23.512963056671428 -127.54810248215782 113.34605795027115 1 0 0 0 0.66913061440640931 -0.74314481823134659 forward_v I I I I #
coedge $-1 $137 $138 $139 $140 reversed $49 $-1 #
coedge $-1 $83 $51 $141 $142 reversed $32 $-1 #
coedge $-1 $51 $82 $137 $143 reversed $32 $-1 #
coedge $-1 $139 $144 $51 $85 forward $145 $-1 #
edge $-1 $146 31.251603712203654 $147 36.949071962609381 $84 $148 forward 7 unknown #
loop $-1 $-1 $91 $52 #
plane-surface $-1 -5.4321297539656968 -32.522447528875276 7.8093786276288881 0 -0.66913061440640931 0.74314481823134659 1 0 0 forward_v I I I I #
loop $-1 $-1 $149 $34 #
coedge $-1 $89 $89 $90 $150 reversed $53 $-1 #
coedge $-1 $90 $90 $89 $150 forward $55 $-1 #
coedge $-1 $91 $91 $56 $92 forward $86 $-1 #
edge $-1 $151 -1.7251853095780693e-015 $151 6.2831853071795987 $91 $152 forward 7 unknown #
loop $-1 $-1 $98 $57 #
plane-surface $-1 -5.4321297539656968 -32.522447528875276 7.8093786276288881 0 -0.66913061440640931 0.74314481823134659 1 0 0 forward_v I I I I #
loop $-1 $-1 $153 $37 #
coedge $-1 $96 $96 $97 $154 reversed $58 $-1 #
coedge $-1 $97 $97 $96 $154 forward $60 $-1 #
coedge $-1 $98 $98 $61 $99 forward $93 $-1 #
edge $-1 $155 -1.7251853095780693e-015 $155 6.2831853071795987 $98 $156 forward 7 unknown #
face $-1 $157 $158 $15 $-1 $159 reversed single #
loop $-1 $-1 $160 $62 #
plane-surface $-1 -71.006805627613147 0 0 1 0 0 0 0 -1 forward_v I I I I #
coedge $-1 $161 $111 $162 $163 forward $63 $-1 #
coedge $-1 $164 $65 $161 $165 forward $41 $-1 #
coedge $-1 $65 $164 $166 $167 forward $41 $-1 #
coedge $-1 $114 $113 $65 $107 reversed $115 $-1 #
edge $-1 $168 -32.522447528875254 $169 32.522447528875254 $106 $170 forward 7 unknown #
coedge $-1 $67 $66 $171 $172 forward $26 $-1 #
coedge $-1 $173 $174 $66 $110 reversed $158 $-1 #
edge $-1 $117 -71.006805627613147 $175 71.006805627613147 $109 $176 forward 7 unknown #
coedge $-1 $103 $177 $67 $112 reversed $63 $-1 #
edge $-1 $178 -71.006805627613147 $116 71.006805627613147 $111 $179 forward 7 unknown #
coedge $-1 $106 $68 $177 $180 forward $115 $-1 #
coedge $-1 $68 $106 $173 $181 reversed $115 $-1 #
loop $-1 $-1 $113 $157 #
vertex $-1 $69 $182 #
vertex $-1 $69 $183 #
straight-curve $-1 71.006805627613147 0 12.939402194271311 0 1 0 I I #
face $-1 $184 $185 $16 $-1 $186 reversed single #
loop $-1 $-1 $187 $70 #
plane-surface $-1 -81.619326818019118 0 -10.648835391455346 1 0 0 0 0 -1 forward_v I I I I #
coedge $-1 $188 $73 $189 $190 reversed $45 $-1 #
coedge $-1 $73 $188 $128 $191 reversed $45 $-1 #
edge $-1 $130 8.3582685886393815 $192 12.939402194271311 $73 $193 forward 7 unknown #
coedge $-1 $75 $74 $194 $195 reversed $29 $-1 #
coedge $-1 $196 $197 $74 $127 forward $198 $-1 #
edge $-1 $199 -12.939402194271311 $131 -8.3582685886393815 $126 $200 forward 7 unknown #
coedge $-1 $201 $76 $123 $191 forward $71 $-1 #
coedge $-1 $76 $201 $196 $202 forward $71 $-1 #
vertex $-1 $124 $203 #
vertex $-1 $202 $204 #
straight-curve $-1 -71.006805627613147 0 -8.3582685886393815 0 -1 0 I I #
face $-1 $-1 $145 $17 $-1 $205 forward single #
loop $-1 $-1 $206 $78 #
plane-surface $-1 0 -32.522447528875254 0 0 1 0 0 0 1 forward_v I I I I #
coedge $-1 $207 $208 $209 $210 reversed $79 $-1 #
coedge $-1 $211 $81 $83 $143 forward $49 $-1 #
coedge $-1 $81 $211 $207 $212 forward $49 $-1 #
coedge $-1 $209 $84 $81 $140 forward $145 $-1 #
edge $-1 $147 -15.364768425722882 $213 20.796898179688579 $139 $214 forward 7 unknown #
coedge $-1 $215 $216 $82 $142 forward $134 $-1 #
edge $-1 $217 -48.863650347506663 $146 -43.733626780864263 $141 $218 forward 7 unknown #
edge $-1 $147 -7.6666998283934529 $217 -2.8915846743243384e-014 $83 $219 forward 7 unknown #
coedge $-1 $84 $209 $215 $220 forward $145 $-1 #
loop $-1 $-1 $209 $133 #
vertex $-1 $142 $221 #
vertex $-1 $85 $222 #
straight-curve $-1 12.648703548740034 -63.774051241078908 12.93940219427131 0 1 0 I I #
coedge $-1 $149 $149 $-1 $223 reversed $88 $-1 #
edge $-1 $224 0 $224 6.2831853071796004 $89 $225 forward 7 unknown #
vertex $-1 $92 $226 #
ellipse-curve $-1 -13.181058312268156 -29.673713403672387 10.374390410950111 0 -0.66913061440640931 0.74314481823134659 1 0 0 1 I I #
coedge $-1 $153 $153 $-1 $227 reversed $95 $-1 #
edge $-1 $228 0 $228 6.2831853071796004 $96 $229 forward 7 unknown #
vertex $-1 $99 $230 #
ellipse-curve $-1 2.3167988043367558 -29.673713403672387 10.374390410950111 0 -0.66913061440640931 0.74314481823134659 1 0 0 1 I I #
face $-1 $-1 $115 $15 $-1 $231 reversed single #
loop $-1 $-1 $173 $100 #
plane-surface $-1 0 32.522447528875254 0 0 -1 0 0 0 -1 forward_v I I I I #
coedge $-1 $232 $171 $174 $233 forward $101 $-1 #
coedge $-1 $177 $103 $104 $165 reversed $63 $-1 #
coedge $-1 $171 $232 $103 $163 reversed $101 $-1 #
edge $-1 $178 -12.939402194271311 $234 12.939402194271311 $162 $235 forward 7 unknown #
coedge $-1 $105 $104 $232 $236 forward $41 $-1 #
edge $-1 $169 -71.006805627613147 $234 71.006805627613147 $161 $237 forward 7 unknown #
coedge $-1 $174 $173 $105 $167 reversed $158 $-1 #
edge $-1 $238 -71.006805627613147 $168 71.006805627613147 $166 $239 forward 7 unknown #
vertex $-1 $107 $240 #
vertex $-1 $180 $241 #
straight-curve $-1 71.006805627613147 0 -12.939402194271311 0 -1 0 I I #
coedge $-1 $160 $162 $108 $172 reversed $101 $-1 #
edge $-1 $175 -32.522447528875254 $178 32.522447528875254 $171 $242 forward 7 unknown #
coedge $-1 $166 $109 $114 $181 forward $158 $-1 #
coedge $-1 $109 $166 $160 $233 reversed $158 $-1 #
vertex $-1 $110 $243 #
straight-curve $-1 0 32.522447528875254 12.939402194271311 -1 0 0 I I #
coedge $-1 $111 $161 $113 $180 reversed $63 $-1 #
vertex $-1 $172 $244 #
straight-curve $-1 0 -32.522447528875254 12.939402194271311 1 0 0 I I #
edge $-1 $116 -12.939402194271311 $169 12.939402194271311 $113 $245 forward 7 unknown #
edge $-1 $117 -12.939402194271311 $168 12.939402194271311 $114 $246 forward 7 unknown #
point $-1 71.006805627613147 -32.522447528875254 12.939402194271311 #
point $-1 71.006805627613147 32.522447528875254 12.939402194271311 #
face $-1 $-1 $198 $16 $-1 $247 reversed single #
loop $-1 $-1 $194 $119 #
plane-surface $-1 0 0 -12.939402194271311 0 0 1 1 0 0 forward_v I I I I #
coedge $-1 $248 $249 $188 $250 forward $120 $-1 #
coedge $-1 $123 $122 $187 $250 reversed $45 $-1 #
coedge $-1 $194 $251 $122 $190 forward $185 $-1 #
edge $-1 $252 -81.619326818019118 $192 -71.006805627613147 $122 $253 forward 7 unknown #
edge $-1 $130 -5.3062605952029855 $254 5.3062605952029855 $123 $255 forward 7 unknown #
vertex $-1 $124 $256 #
straight-curve $-1 -71.006805627613147 32.522447528875254 0 0 0 -1 I I #
coedge $-1 $257 $189 $125 $195 forward $185 $-1 #
edge $-1 $192 -32.522447528875254 $199 32.522447528875254 $194 $258 forward 7 unknown #
coedge $-1 $259 $126 $129 $202 reversed $198 $-1 #
coedge $-1 $126 $259 $257 $260 reversed $198 $-1 #
loop $-1 $-1 $126 $184 #
vertex $-1 $260 $261 #
straight-curve $-1 -71.006805627613147 -32.522447528875254 0 0 0 1 I I #
coedge $-1 $129 $128 $249 $262 forward $71 $-1 #
edge $-1 $263 -5.3062605952029855 $131 5.3062605952029855 $196 $264 forward 7 unknown #
point $-1 -71.006805627613147 32.522447528875254 -8.3582685886393815 #
point $-1 -71.006805627613147 -32.522447528875254 -8.3582685886393815 #
plane-surface $-1 0 0 12.939402194271311 0 0 1 1 0 0 forward_v I I I I #
coedge $-1 $216 $215 $208 $265 forward $134 $-1 #
coedge $-1 $208 $136 $138 $212 reversed $79 $-1 #
coedge $-1 $136 $207 $206 $265 reversed $79 $-1 #
coedge $-1 $144 $139 $136 $210 forward $145 $-1 #
edge $-1 $213 -36.949071962609381 $266 -31.251603712203654 $209 $267 forward 7 unknown #
coedge $-1 $138 $137 $216 $268 reversed $49 $-1 #
edge $-1 $269 2.8915846743243384e-014 $213 7.6666998283934529 $207 $270 forward 7 unknown #
vertex $-1 $140 $271 #
straight-curve $-1 -2.7160648769828484 -26.824979278469527 12.93940219427131 -1 0 0 I I #
coedge $-1 $206 $141 $144 $220 reversed $134 $-1 #
coedge $-1 $141 $206 $211 $268 forward $134 $-1 #
vertex $-1 $142 $272 #
straight-curve $-1 12.648703548740034 -32.522447528875254 56.673028975135573 0 0 1 I I #
straight-curve $-1 12.648703548740034 -32.522447528875276 7.8093786276288881 0 -0.74314481823134659 -0.66913061440640931 I I #
edge $-1 $266 -23.512963056671428 $146 12.648703548740034 $215 $273 forward 7 unknown #
point $-1 12.648703548740034 -32.522447528875254 12.939402194271311 #
point $-1 12.648703548740034 -26.824979278469527 12.939402194271311 #
edge $-1 $274 1 $274 0 $149 $-1 forward 7 unknown #
vertex $-1 $150 $275 #
ellipse-curve $-1 -13.181058312268156 -28.251726611974135 8.7951141185607398 0 -0.66913061440640931 0.74314481823134659 1 0 0 1 I I #
point $-1 -12.181058312268156 -29.673713403672362 10.374390410950081 #
edge $-1 $276 1 $276 0 $153 $-1 forward 7 unknown #
vertex $-1 $154 $277 #
ellipse-curve $-1 2.3167988043367558 -28.251726611974135 8.7951141185607398 0 -0.66913061440640931 0.74314481823134659 1 0 0 1 I I #
point $-1 3.3167988043367558 -29.673713403672362 10.374390410950081 #
plane-surface $-1 71.006805627613147 0 0 -1 0 0 0 0 1 forward_v I I I I #
coedge $-1 $162 $160 $164 $236 reversed $101 $-1 #
edge $-1 $175 -12.939402194271311 $238 12.939402194271311 $174 $278 forward 7 unknown #
vertex $-1 $236 $279 #
straight-curve $-1 -71.006805627613147 -32.522447528875254 0 0 0 -1 I I #
edge $-1 $234 -32.522447528875254 $238 32.522447528875254 $232 $280 forward 7 unknown #
straight-curve $-1 0 -32.522447528875254 -12.939402194271311 -1 0 0 I I #
vertex $-1 $167 $281 #
straight-curve $-1 0 32.522447528875254 -12.939402194271311 1 0 0 I I #
point $-1 71.006805627613147 32.522447528875254 -12.939402194271311 #
point $-1 71.006805627613147 -32.522447528875254 -12.939402194271311 #
straight-curve $-1 -71.006805627613147 0 12.939402194271311 0 -1 0 I I #
point $-1 -71.006805627613147 32.522447528875254 12.939402194271311 #
point $-1 -71.006805627613147 -32.522447528875254 12.939402194271311 #
straight-curve $-1 71.006805627613147 -32.522447528875254 0 0 0 -1 I I #
straight-curve $-1 71.006805627613147 32.522447528875254 0 0 0 -1 I I #
plane-surface $-1 0 -32.522447528875254 0 0 1 0 0 0 1 forward_v I I I I #
coedge $-1 $282 $187 $251 $283 reversed $120 $-1 #
coedge $-1 $187 $282 $201 $262 reversed $120 $-1 #
edge $-1 $254 -2.2905668028159649 $252 2.2905668028159649 $188 $284 forward 7 unknown #
coedge $-1 $189 $257 $248 $283 forward $185 $-1 #
vertex $-1 $190 $285 #
straight-curve $-1 0 32.522447528875254 -12.939402194271311 1 0 0 I I #
vertex $-1 $191 $286 #
straight-curve $-1 -76.313066222816133 32.522447528875254 -8.3582685886393815 -1 0 0 I I #
point $-1 -71.006805627613147 32.522447528875254 -12.939402194271311 #
coedge $-1 $251 $194 $197 $260 forward $185 $-1 #
straight-curve $-1 -71.006805627613147 0 -12.939402194271311 0 -1 0 I I #
coedge $-1 $197 $196 $282 $287 forward $198 $-1 #
edge $-1 $199 -5.3062605952029855 $288 5.3062605952029855 $197 $289 forward 7 unknown #
point $-1 -71.006805627613147 -32.522447528875254 -12.939402194271311 #
edge $-1 $254 -32.522447528875254 $263 32.522447528875254 $249 $290 forward 7 unknown #
vertex $-1 $262 $291 #
straight-curve $-1 -76.313066222816133 -32.522447528875254 -8.3582685886393815 1 0 0 I I #
edge $-1 $266 43.733626780864263 $269 48.863650347506663 $206 $292 forward 7 unknown #
vertex $-1 $220 $293 #
straight-curve $-1 -23.512963056671428 -63.774051241078908 12.93940219427131 0 -1 0 I I #
edge $-1 $269 -20.796898179688579 $217 15.364768425722882 $216 $294 forward 7 unknown #
vertex $-1 $268 $295 #
straight-curve $-1 -23.512963056671428 -32.522447528875276 7.8093786276288881 0 0.74314481823134659 0.66913061440640931 I I #
point $-1 -23.512963056671428 -26.824979278469527 12.939402194271311 #
point $-1 12.648703548740034 -32.522447528875254 7.8093786276289077 #
straight-curve $-1 0 -32.522447528875254 12.939402194271311 1 0 0 I I #
vertex $-1 $223 $296 #
point $-1 -12.181058312268156 -28.251726611974135 8.7951141185607398 #
vertex $-1 $227 $297 #
point $-1 3.3167988043367558 -28.251726611974135 8.7951141185607398 #
straight-curve $-1 -71.006805627613147 32.522447528875254 0 0 0 -1 I I #
point $-1 -71.006805627613147 -32.522447528875254 -12.939402194271311 #
straight-curve $-1 -71.006805627613147 0 -12.939402194271311 0 1 0 I I #
point $-1 -71.006805627613147 32.522447528875254 -12.939402194271311 #
coedge $-1 $249 $248 $259 $287 reversed $120 $-1 #
edge $-1 $288 -32.522447528875254 $252 32.522447528875254 $248 $298 forward 7 unknown #
straight-curve $-1 -81.619326818019118 32.522447528875254 -10.648835391455346 0 0 -1 I I #
point $-1 -81.619326818019118 32.522447528875254 -12.939402194271311 #
point $-1 -81.619326818019118 32.522447528875254 -8.3582685886393815 #
edge $-1 $263 -2.2905668028159649 $288 2.2905668028159649 $282 $299 forward 7 unknown #
vertex $-1 $283 $300 #
straight-curve $-1 -76.313066222816133 -32.522447528875254 -12.939402194271311 -1 0 0 I I #
straight-curve $-1 -81.619326818019118 0 -8.3582685886393815 0 -1 0 I I #
point $-1 -81.619326818019118 -32.522447528875254 -8.3582685886393815 #
straight-curve $-1 -23.512963056671428 -32.522447528875254 56.673028975135573 0 0 -1 I I #
point $-1 -23.512963056671428 -32.522447528875254 12.939402194271311 #
straight-curve $-1 -2.7160648769828484 -32.522447528875254 7.8093786276289041 1 0 0 I I #
point $-1 -23.512963056671428 -32.522447528875254 7.8093786276289077 #
point $-1 -13.181058312268156 -27.582595997567722 8.0519693003293931 #
point $-1 2.3167988043367558 -27.582595997567722 8.0519693003293931 #
straight-curve $-1 -81.619326818019118 0 -12.939402194271311 0 1 0 I I #
straight-curve $-1 -81.619326818019118 -32.522447528875254 -10.648835391455346 0 0 -1 I I #
point $-1 -81.619326818019118 -32.522447528875254 -12.939402194271311 #
End-of-ACIS-data 