500 0 6 0           
7 Unknown 11 ACIS 5.0 NT 24 Fri Mar 26 18:04:10 1999 
-1 9.9999999999999995e-007 1e-010 
body $-1 $6 $-1 $7 #
body $-1 $8 $-1 $9 #
body $-1 $10 $-1 $11 #
body $-1 $12 $-1 $13 #
body $-1 $14 $-1 $15 #
body $-1 $16 $-1 $17 #
lump $-1 $-1 $18 $0 #
transform $-1 1 0 0 0 1 0 0 0 1 70.589312417981503 45.406849345072935 15.633608577419642 1 rotate no_reflect no_shear #
lump $-1 $-1 $19 $1 #
transform $-1 1 0 0 0 1 0 0 0 1 70.589312417981503 45.406849345072935 15.633608577419642 1 rotate no_reflect no_shear #
lump $-1 $-1 $20 $2 #
transform $-1 1 0 0 0 1 0 0 0 1 70.589312417981503 45.406849345072935 15.633608577419642 1 rotate no_reflect no_shear #
lump $-1 $-1 $21 $3 #
transform $-1 1 0 0 0 1 0 0 0 1 70.589312417981503 45.406849345072935 15.633608577419642 1 rotate no_reflect no_shear #
lump $-1 $-1 $22 $4 #
transform $-1 1 0 0 0 1 0 0 0 1 70.589312417981503 45.406849345072935 15.633608577419642 1 rotate no_reflect no_shear #
lump $-1 $-1 $23 $5 #
transform $-1 1 0 0 0 1 0 0 0 1 70.589312417981503 45.406849345072935 15.633608577419642 1 rotate no_reflect no_shear #
shell $-1 $-1 $-1 $24 $-1 $6 #
shell $-1 $-1 $-1 $25 $-1 $8 #
shell $-1 $-1 $-1 $26 $-1 $10 #
shell $-1 $-1 $-1 $27 $-1 $12 #
shell $-1 $-1 $-1 $28 $-1 $14 #
shell $-1 $-1 $-1 $29 $-1 $16 #
face $-1 $30 $31 $18 $-1 $32 forward single #
face $-1 $33 $34 $19 $-1 $35 reversed single #
face $-1 $36 $37 $20 $-1 $38 forward single #
face $-1 $39 $40 $21 $-1 $41 reversed single #
face $-1 $42 $43 $22 $-1 $44 forward single #
face $-1 $45 $46 $23 $-1 $47 forward single #
face $-1 $48 $49 $18 $-1 $50 reversed single #
loop $-1 $-1 $51 $24 #
plane-surface $-1 0 0 15.633608577419642 0 0 1 1 0 0 forward_v I I I I #
face $-1 $52 $53 $19 $-1 $54 reversed single #
loop $-1 $-1 $55 $25 #
plane-surface $-1 0 -38.493632993630243 6.69525139454983 0 0 1 1 0 0 forward_v I I I I #
face $-1 $56 $57 $20 $-1 $58 reversed single #
loop $-1 $-1 $59 $26 #
plane-surface $-1 0 45.406849345072935 0 0 -1 0 0 0 -1 forward_v I I I I #
face $-1 $60 $61 $21 $-1 $62 reversed single #
loop $-1 $-1 $63 $27 #
plane-surface $-1 -161.33718433050552 21.976423174801134 120.47734603302669 0 1 0 -0.64278761758704617 0 0.76604443648966558 forward_v I I I I #
face $-1 $64 $65 $22 $-1 $66 forward single #
loop $-1 $67 $68 $28 #
cone-surface $-1 -67.6936381842673 24.853880810530164 12.87726171085631 0.64278761758704617 0 -0.76604443648966558 0.76604443648966558 0 0.64278761758704617 1 I I 0 1 1 forward I I I I #
face $-1 $69 $70 $23 $-1 $71 forward single #
loop $-1 $72 $73 $29 #
cone-surface $-1 -67.6936381842673 29.170067264123723 12.87726171085631 0.64278761758704617 0 -0.76604443648966558 0.76604443648966558 0 0.64278761758704617 1 I I 0 1 1 forward I I I I #
face $-1 $74 $75 $18 $-1 $76 reversed single #
loop $-1 $-1 $77 $30 #
plane-surface $-1 0 0 -15.633608577419642 0 0 1 1 0 0 forward_v I I I I #
coedge $-1 $78 $79 $80 $81 forward $31 $-1 #
face $-1 $82 $83 $19 $-1 $84 reversed single #
loop $-1 $-1 $85 $33 #
plane-surface $-1 0 -31.580416642187551 11.164429985984734 0 -1 0 0 0 -1 forward_v I I I I #
coedge $-1 $86 $87 $88 $89 reversed $34 $-1 #
face $-1 $90 $91 $20 $-1 $92 reversed single #
loop $-1 $-1 $93 $36 #
plane-surface $-1 0 0 -15.633608577419642 0 0 1 1 0 0 forward_v I I I I #
coedge $-1 $94 $95 $96 $97 forward $37 $-1 #
face $-1 $98 $99 $21 $-1 $100 reversed single #
loop $-1 $-1 $101 $39 #
plane-surface $-1 -70.589312417981475 27.011974037326944 12.328245926175498 -0.64278761758704617 0 0.76604443648966558 0.76604443648966558 0 0.64278761758704617 forward_v I I I I #
coedge $-1 $102 $103 $104 $105 reversed $40 $-1 #
face $-1 $-1 $106 $22 $-1 $107 forward single #
loop $-1 $108 $109 $42 #
cone-surface $-1 -66.446159007730074 24.853880810530164 11.390573951670214 0.64278761758704617 0 -0.76604443648966558 0.38302221824483279 0 0.32139380879352308 1 I I -0.70710678118654746 0.70710678118654746 0.5 forward I I I I #
loop $-1 $-1 $110 $28 #
coedge $-1 $68 $68 $111 $112 reversed $43 $-1 #
face $-1 $-1 $113 $23 $-1 $114 forward single #
loop $-1 $115 $116 $45 #
cone-surface $-1 -66.446159007730074 29.170067264123723 11.390573951670214 0.64278761758704617 0 -0.76604443648966558 0.38302221824483279 0 0.32139380879352308 1 I I -0.70710678118654746 0.70710678118654746 0.5 forward I I I I #
loop $-1 $-1 $117 $29 #
coedge $-1 $73 $73 $118 $119 reversed $46 $-1 #
face $-1 $120 $121 $18 $-1 $122 reversed single #
loop $-1 $-1 $123 $48 #
plane-surface $-1 0 -45.406849345072935 0 0 1 0 0 0 1 forward_v I I I I #
coedge $-1 $124 $125 $126 $127 forward $49 $-1 #
coedge $-1 $128 $51 $129 $130 forward $31 $-1 #
coedge $-1 $51 $128 $131 $132 forward $31 $-1 #
coedge $-1 $133 $134 $51 $81 reversed $135 $-1 #
edge $-1 $136 -45.406849345072935 $137 45.406849345072935 $80 $138 forward 7 unknown #
face $-1 $139 $140 $19 $-1 $141 reversed single #
loop $-1 $-1 $142 $52 #
plane-surface $-1 -70.589312417981503 0 0 1 0 0 0 0 -1 forward_v I I I I #
coedge $-1 $143 $144 $145 $146 reversed $53 $-1 #
coedge $-1 $147 $55 $148 $149 reversed $34 $-1 #
coedge $-1 $55 $147 $143 $150 forward $34 $-1 #
coedge $-1 $145 $151 $55 $89 forward $152 $-1 #
edge $-1 $153 -26.160032848257813 $154 -12.333600145372429 $88 $155 forward 7 unknown #
face $-1 $156 $157 $20 $-1 $158 reversed single #
loop $-1 $-1 $159 $56 #
plane-surface $-1 -68.10950918315632 50.84430781954395 0 1 0 0 0 0 -1 forward_v I I I I #
coedge $-1 $160 $161 $95 $162 forward $57 $-1 #
coedge $-1 $163 $59 $164 $165 reversed $37 $-1 #
coedge $-1 $59 $163 $93 $162 reversed $37 $-1 #
coedge $-1 $166 $167 $59 $97 reversed $168 $-1 #
edge $-1 $169 -15.633608577419642 $170 15.633608577419642 $96 $171 forward 7 unknown #
face $-1 $172 $173 $21 $-1 $174 reversed single #
loop $-1 $-1 $175 $60 #
plane-surface $-1 -161.33718433050552 32.047524899852753 120.47734603302669 0 -1 0 0.64278761758704617 0 -0.76604443648966558 forward_v I I I I #
coedge $-1 $176 $177 $178 $179 reversed $61 $-1 #
coedge $-1 $103 $63 $180 $181 reversed $40 $-1 #
coedge $-1 $63 $102 $176 $182 reversed $40 $-1 #
coedge $-1 $178 $183 $63 $105 forward $184 $-1 #
edge $-1 $185 10.079279747271258 $186 14.018457479212302 $104 $187 forward 7 unknown #
loop $-1 $-1 $111 $64 #
plane-surface $-1 -70.589312417981475 27.011974037326944 12.328245926175498 -0.64278761758704617 0 0.76604443648966558 0.76604443648966558 0 0.64278761758704617 forward_v I I I I #
loop $-1 $-1 $188 $42 #
coedge $-1 $109 $109 $110 $189 reversed $65 $-1 #
coedge $-1 $110 $110 $109 $189 forward $67 $-1 #
coedge $-1 $111 $111 $68 $112 forward $106 $-1 #
edge $-1 $190 0 $190 6.2831853071796004 $111 $191 forward 7 unknown #
loop $-1 $-1 $118 $69 #
plane-surface $-1 -70.589312417981475 27.011974037326944 12.328245926175498 -0.64278761758704617 0 0.76604443648966558 0.76604443648966558 0 0.64278761758704617 forward_v I I I I #
loop $-1 $-1 $192 $45 #
coedge $-1 $116 $116 $117 $193 reversed $70 $-1 #
coedge $-1 $117 $117 $116 $193 forward $72 $-1 #
coedge $-1 $118 $118 $73 $119 forward $113 $-1 #
edge $-1 $194 0 $194 6.2831853071796004 $118 $195 forward 7 unknown #
face $-1 $196 $197 $18 $-1 $198 reversed single #
loop $-1 $-1 $199 $74 #
plane-surface $-1 -70.589312417981503 0 0 1 0 0 0 0 -1 forward_v I I I I #
coedge $-1 $200 $131 $201 $202 forward $75 $-1 #
coedge $-1 $203 $77 $200 $204 forward $49 $-1 #
coedge $-1 $77 $203 $205 $206 forward $49 $-1 #
coedge $-1 $134 $133 $77 $127 reversed $135 $-1 #
edge $-1 $207 -45.406849345072935 $208 45.406849345072935 $126 $209 forward 7 unknown #
coedge $-1 $79 $78 $210 $211 forward $31 $-1 #
coedge $-1 $212 $213 $78 $130 reversed $197 $-1 #
edge $-1 $137 -70.589312417981503 $214 70.589312417981503 $129 $215 forward 7 unknown #
coedge $-1 $123 $216 $79 $132 reversed $75 $-1 #
edge $-1 $217 -70.589312417981503 $136 70.589312417981503 $131 $218 forward 7 unknown #
coedge $-1 $126 $80 $216 $219 forward $135 $-1 #
coedge $-1 $80 $126 $212 $220 reversed $135 $-1 #
loop $-1 $-1 $133 $196 #
vertex $-1 $81 $221 #
vertex $-1 $81 $222 #
straight-curve $-1 70.589312417981503 0 15.633608577419642 0 1 0 I I #
face $-1 $223 $224 $19 $-1 $225 forward single #
loop $-1 $-1 $148 $82 #
plane-surface $-1 0 -45.406849345072935 0 0 1 0 0 0 1 forward_v I I I I #
coedge $-1 $226 $227 $228 $229 forward $83 $-1 #
coedge $-1 $228 $85 $87 $150 reversed $53 $-1 #
coedge $-1 $85 $228 $230 $231 reversed $53 $-1 #
coedge $-1 $232 $88 $85 $146 forward $152 $-1 #
edge $-1 $154 1.113036401557463 $233 10.05139358442727 $145 $234 forward 7 unknown #
coedge $-1 $87 $86 $226 $235 reversed $34 $-1 #
coedge $-1 $236 $237 $86 $149 forward $140 $-1 #
edge $-1 $238 -70.589312417981503 $153 70.589312417981503 $148 $239 forward 7 unknown #
edge $-1 $240 -70.589312417981503 $154 70.589312417981503 $143 $241 forward 7 unknown #
coedge $-1 $88 $232 $236 $242 forward $152 $-1 #
loop $-1 $-1 $145 $223 #
vertex $-1 $149 $243 #
vertex $-1 $89 $244 #
straight-curve $-1 70.589312417981503 -19.246816496815121 6.69525139454983 0 1 0 I I #
face $-1 $245 $168 $20 $-1 $246 reversed single #
loop $-1 $-1 $247 $90 #
plane-surface $-1 -66.25739867146207 56.281766294014965 0 0 -1 0 0 0 -1 forward_v I I I I #
coedge $-1 $248 $249 $250 $251 forward $91 $-1 #
coedge $-1 $252 $93 $248 $253 forward $57 $-1 #
coedge $-1 $93 $252 $166 $254 forward $57 $-1 #
edge $-1 $169 64.405288159767821 $255 68.10950918315632 $93 $256 forward 7 unknown #
coedge $-1 $95 $94 $257 $258 forward $37 $-1 #
coedge $-1 $259 $260 $94 $165 forward $261 $-1 #
edge $-1 $262 -68.10950918315632 $170 -64.405288159767821 $164 $263 forward 7 unknown #
coedge $-1 $264 $96 $161 $254 reversed $168 $-1 #
coedge $-1 $96 $264 $259 $265 reversed $168 $-1 #
loop $-1 $-1 $96 $156 #
vertex $-1 $162 $266 #
vertex $-1 $265 $267 #
straight-curve $-1 -64.405288159767821 45.406849345072935 0 0 0 1 I I #
face $-1 $-1 $184 $21 $-1 $268 forward single #
loop $-1 $-1 $269 $98 #
plane-surface $-1 -70.589312417981503 0 0 1 0 0 0 0 -1 forward_v I I I I #
coedge $-1 $270 $271 $272 $273 reversed $99 $-1 #
coedge $-1 $274 $101 $103 $182 forward $61 $-1 #
coedge $-1 $101 $274 $270 $275 forward $61 $-1 #
coedge $-1 $272 $104 $101 $179 forward $184 $-1 #
edge $-1 $186 8.4704361561376622 $276 18.541537881189281 $178 $277 forward 7 unknown #
coedge $-1 $278 $279 $102 $181 forward $173 $-1 #
edge $-1 $280 -47.910427090337869 $185 -44.605064439093702 $180 $281 forward 7 unknown #
edge $-1 $186 -5.1422313697518192 $280 3.6615954734859901e-014 $103 $282 forward 7 unknown #
coedge $-1 $104 $272 $278 $283 forward $184 $-1 #
loop $-1 $-1 $272 $172 #
vertex $-1 $181 $284 #
vertex $-1 $105 $285 #
straight-curve $-1 -80.668592165252761 21.976423174801134 15.633608577419643 1 0 0 I I #
coedge $-1 $188 $188 $-1 $286 reversed $108 $-1 #
edge $-1 $287 0 $287 6.2831853071796004 $109 $288 forward 7 unknown #
vertex $-1 $112 $289 #
ellipse-curve $-1 -68.619723552010996 24.853880810530164 13.980927251797551 -0.64278761758704617 0 0.76604443648966558 0.76604443648966558 0 0.64278761758704617 1 I I #
coedge $-1 $192 $192 $-1 $290 reversed $115 $-1 #
edge $-1 $291 0 $291 6.2831853071796004 $116 $292 forward 7 unknown #
vertex $-1 $119 $293 #
ellipse-curve $-1 -68.619723552010996 29.170067264123723 13.980927251797551 -0.64278761758704617 0 0.76604443648966558 0.76604443648966558 0 0.64278761758704617 1 I I #
face $-1 $-1 $135 $18 $-1 $294 reversed single #
loop $-1 $-1 $212 $120 #
plane-surface $-1 0 45.406849345072935 0 0 -1 0 0 0 -1 forward_v I I I I #
coedge $-1 $295 $210 $213 $296 forward $121 $-1 #
coedge $-1 $216 $123 $124 $204 reversed $75 $-1 #
coedge $-1 $210 $295 $123 $202 reversed $121 $-1 #
edge $-1 $217 -15.633608577419642 $297 15.633608577419642 $201 $298 forward 7 unknown #
coedge $-1 $125 $124 $295 $299 forward $49 $-1 #
edge $-1 $208 -70.589312417981503 $297 70.589312417981503 $200 $300 forward 7 unknown #
coedge $-1 $213 $212 $125 $206 reversed $197 $-1 #
edge $-1 $301 -70.589312417981503 $207 70.589312417981503 $205 $302 forward 7 unknown #
vertex $-1 $127 $303 #
vertex $-1 $219 $304 #
straight-curve $-1 70.589312417981503 0 -15.633608577419642 0 -1 0 I I #
coedge $-1 $199 $201 $128 $211 reversed $121 $-1 #
edge $-1 $214 -45.406849345072935 $217 45.406849345072935 $210 $305 forward 7 unknown #
coedge $-1 $205 $129 $134 $220 forward $197 $-1 #
coedge $-1 $129 $205 $199 $296 reversed $197 $-1 #
vertex $-1 $130 $306 #
straight-curve $-1 0 45.406849345072935 15.633608577419642 -1 0 0 I I #
coedge $-1 $131 $200 $133 $219 reversed $75 $-1 #
vertex $-1 $211 $307 #
straight-curve $-1 0 -45.406849345072935 15.633608577419642 1 0 0 I I #
edge $-1 $136 -15.633608577419642 $208 15.633608577419642 $133 $308 forward 7 unknown #
edge $-1 $137 -15.633608577419642 $207 15.633608577419642 $134 $309 forward 7 unknown #
point $-1 70.589312417981503 -45.406849345072935 15.633608577419642 #
point $-1 70.589312417981503 45.406849345072935 15.633608577419642 #
face $-1 $-1 $152 $19 $-1 $310 reversed single #
loop $-1 $-1 $230 $139 #
plane-surface $-1 0 0 15.633608577419642 0 0 1 1 0 0 forward_v I I I I #
coedge $-1 $311 $142 $147 $235 forward $83 $-1 #
coedge $-1 $142 $311 $312 $313 reversed $83 $-1 #
coedge $-1 $144 $143 $142 $229 reversed $53 $-1 #
edge $-1 $314 -10.05139358442727 $240 -1.113036401557463 $142 $315 forward 7 unknown #
coedge $-1 $312 $316 $144 $231 forward $224 $-1 #
edge $-1 $233 -70.589312417981503 $314 70.589312417981503 $230 $317 forward 7 unknown #
coedge $-1 $151 $145 $316 $318 reversed $152 $-1 #
vertex $-1 $146 $319 #
straight-curve $-1 70.589312417981503 -31.580416642187551 5.582214992992367 0 0 1 I I #
edge $-1 $240 12.333600145372429 $238 26.160032848257813 $226 $320 forward 7 unknown #
coedge $-1 $321 $148 $151 $242 reversed $140 $-1 #
coedge $-1 $148 $321 $311 $322 forward $140 $-1 #
vertex $-1 $149 $323 #
straight-curve $-1 0 -45.406849345072935 6.69525139454983 1 0 0 I I #
vertex $-1 $235 $324 #
straight-curve $-1 0 -31.580416642187551 6.69525139454983 1 0 0 I I #
edge $-1 $325 -15.633608577419642 $153 -6.69525139454983 $151 $326 forward 7 unknown #
point $-1 70.589312417981503 -45.406849345072935 6.69525139454983 #
point $-1 70.589312417981503 -31.580416642187551 6.69525139454983 #
face $-1 $-1 $261 $20 $-1 $327 forward single #
plane-surface $-1 -64.405288159767821 50.84430781954395 0 -1 0 0 0 0 1 forward_v I I I I #
coedge $-1 $328 $329 $264 $330 forward $157 $-1 #
coedge $-1 $257 $159 $160 $253 reversed $91 $-1 #
coedge $-1 $159 $257 $260 $331 reversed $91 $-1 #
coedge $-1 $329 $328 $159 $251 reversed $157 $-1 #
edge $-1 $332 -15.633608577419642 $333 15.633608577419642 $250 $334 forward 7 unknown #
coedge $-1 $161 $160 $328 $335 forward $57 $-1 #
edge $-1 $255 -5.4374584744710148 $333 5.4374584744710148 $248 $336 forward 7 unknown #
edge $-1 $337 -5.4374584744710148 $169 5.4374584744710148 $166 $338 forward 7 unknown #
vertex $-1 $253 $339 #
straight-curve $-1 0 45.406849345072935 -15.633608577419642 -1 0 0 I I #
coedge $-1 $249 $248 $163 $258 reversed $91 $-1 #
edge $-1 $262 -15.633608577419642 $255 15.633608577419642 $257 $340 forward 7 unknown #
coedge $-1 $341 $164 $167 $265 forward $261 $-1 #
coedge $-1 $164 $341 $249 $331 forward $261 $-1 #
loop $-1 $-1 $164 $245 #
vertex $-1 $165 $342 #
straight-curve $-1 0 45.406849345072935 15.633608577419642 1 0 0 I I #
coedge $-1 $167 $166 $247 $330 reversed $168 $-1 #
edge $-1 $170 -5.4374584744710148 $343 5.4374584744710148 $167 $344 forward 7 unknown #
point $-1 -64.405288159767821 45.406849345072935 -15.633608577419642 #
point $-1 -64.405288159767821 45.406849345072935 15.633608577419642 #
plane-surface $-1 0 0 15.633608577419642 0 0 1 1 0 0 forward_v I I I I #
coedge $-1 $279 $278 $271 $345 forward $173 $-1 #
coedge $-1 $271 $175 $177 $275 reversed $99 $-1 #
coedge $-1 $175 $270 $269 $345 reversed $99 $-1 #
coedge $-1 $183 $178 $175 $273 forward $184 $-1 #
edge $-1 $276 -14.018457479212302 $346 -10.079279747271258 $272 $347 forward 7 unknown #
coedge $-1 $177 $176 $279 $348 reversed $61 $-1 #
edge $-1 $349 -3.6615954734859901e-014 $276 5.1422313697518192 $270 $350 forward 7 unknown #
vertex $-1 $179 $351 #
straight-curve $-1 -66.65013468604046 13.505987018663472 15.633608577419643 0 1 0 I I #
coedge $-1 $269 $180 $183 $283 reversed $173 $-1 #
coedge $-1 $180 $269 $274 $348 forward $173 $-1 #
vertex $-1 $181 $352 #
straight-curve $-1 -70.589312417981503 21.976423174801134 60.238673016513346 0 0 1 I I #
straight-curve $-1 -70.589312417981475 21.976423174801134 12.328245926175498 -0.76604443648966558 0 -0.64278761758704617 I I #
edge $-1 $346 -32.047524899852753 $185 -21.976423174801134 $278 $353 forward 7 unknown #
point $-1 -70.589312417981503 21.976423174801134 15.633608577419642 #
point $-1 -66.65013468604046 21.976423174801134 15.633608577419642 #
edge $-1 $354 1 $354 0 $188 $-1 forward 7 unknown #
vertex $-1 $189 $355 #
ellipse-curve $-1 -66.76755281652359 24.853880810530164 11.773596169915047 -0.64278761758704617 0 0.76604443648966558 0.76604443648966558 0 0.64278761758704617 1 I I #
point $-1 -67.853679115521345 24.853880810530164 14.623714869384619 #
edge $-1 $356 1 $356 0 $192 $-1 forward 7 unknown #
vertex $-1 $193 $357 #
ellipse-curve $-1 -66.76755281652359 29.170067264123723 11.773596169915047 -0.64278761758704617 0 0.76604443648966558 0.76604443648966558 0 0.64278761758704617 1 I I #
point $-1 -67.853679115521345 29.170067264123723 14.623714869384619 #
plane-surface $-1 70.589312417981503 0 0 -1 0 0 0 0 1 forward_v I I I I #
coedge $-1 $201 $199 $203 $299 reversed $121 $-1 #
edge $-1 $214 -15.633608577419642 $301 15.633608577419642 $213 $358 forward 7 unknown #
vertex $-1 $299 $359 #
straight-curve $-1 -70.589312417981503 -45.406849345072935 0 0 0 -1 I I #
edge $-1 $297 -45.406849345072935 $301 45.406849345072935 $295 $360 forward 7 unknown #
straight-curve $-1 0 -45.406849345072935 -15.633608577419642 -1 0 0 I I #
vertex $-1 $206 $361 #
straight-curve $-1 0 45.406849345072935 -15.633608577419642 1 0 0 I I #
point $-1 70.589312417981503 45.406849345072935 -15.633608577419642 #
point $-1 70.589312417981503 -45.406849345072935 -15.633608577419642 #
straight-curve $-1 -70.589312417981503 0 15.633608577419642 0 -1 0 I I #
point $-1 -70.589312417981503 45.406849345072935 15.633608577419642 #
point $-1 -70.589312417981503 -45.406849345072935 15.633608577419642 #
straight-curve $-1 70.589312417981503 -45.406849345072935 0 0 0 -1 I I #
straight-curve $-1 70.589312417981503 45.406849345072935 0 0 0 -1 I I #
plane-surface $-1 70.589312417981503 0 0 -1 0 0 0 0 1 forward_v I I I I #
coedge $-1 $227 $226 $237 $322 reversed $83 $-1 #
coedge $-1 $362 $230 $227 $313 forward $224 $-1 #
edge $-1 $314 31.580416642187551 $363 45.406849345072935 $227 $364 forward 7 unknown #
vertex $-1 $313 $365 #
straight-curve $-1 -70.589312417981503 -31.580416642187551 5.582214992992367 0 0 -1 I I #
coedge $-1 $230 $362 $232 $318 forward $224 $-1 #
straight-curve $-1 0 -31.580416642187551 15.633608577419642 -1 0 0 I I #
edge $-1 $325 -45.406849345072935 $233 -31.580416642187551 $232 $366 forward 7 unknown #
point $-1 70.589312417981503 -31.580416642187551 15.633608577419638 #
straight-curve $-1 -70.589312417981503 -19.246816496815121 6.69525139454983 0 -1 0 I I #
coedge $-1 $237 $236 $362 $367 reversed $140 $-1 #
edge $-1 $363 -15.633608577419642 $238 -6.69525139454983 $311 $368 forward 7 unknown #
point $-1 -70.589312417981503 -45.406849345072935 6.69525139454983 #
point $-1 -70.589312417981503 -31.580416642187551 6.69525139454983 #
vertex $-1 $318 $369 #
straight-curve $-1 70.589312417981503 -45.406849345072935 0 0 0 -1 I I #
plane-surface $-1 0 0 15.633608577419642 0 0 1 1 0 0 forward_v I I I I #
coedge $-1 $250 $247 $252 $335 reversed $157 $-1 #
coedge $-1 $247 $250 $341 $370 reversed $157 $-1 #
edge $-1 $343 -15.633608577419642 $337 15.633608577419642 $264 $371 forward 7 unknown #
edge $-1 $332 -5.4374584744710148 $262 5.4374584744710148 $249 $372 forward 7 unknown #
vertex $-1 $370 $373 #
vertex $-1 $335 $374 #
straight-curve $-1 -68.10950918315632 56.281766294014965 0 0 0 -1 I I #
edge $-1 $333 -1.8521105116942493 $337 1.8521105116942493 $328 $375 forward 7 unknown #
straight-curve $-1 -68.10950918315632 50.84430781954395 -15.633608577419642 0 1 0 I I #
vertex $-1 $254 $376 #
straight-curve $-1 -64.405288159767821 50.84430781954395 -15.633608577419642 0 -1 0 I I #
point $-1 -68.10950918315632 45.406849345072935 -15.633608577419642 #
straight-curve $-1 -68.10950918315632 45.406849345072935 0 0 0 -1 I I #
coedge $-1 $260 $259 $329 $370 forward $261 $-1 #
point $-1 -68.10950918315632 45.406849345072935 15.633608577419642 #
vertex $-1 $265 $377 #
straight-curve $-1 -64.405288159767821 50.84430781954395 15.633608577419642 0 1 0 I I #
edge $-1 $346 44.605064439093702 $349 47.910427090337869 $269 $378 forward 7 unknown #
vertex $-1 $283 $379 #
straight-curve $-1 -80.668592165252761 32.047524899852753 15.633608577419643 -1 0 0 I I #
edge $-1 $349 -18.541537881189281 $280 -8.4704361561376622 $279 $380 forward 7 unknown #
vertex $-1 $348 $381 #
straight-curve $-1 -70.589312417981475 32.047524899852753 12.328245926175498 0.76604443648966558 0 0.64278761758704617 I I #
point $-1 -66.65013468604046 32.047524899852753 15.633608577419642 #
point $-1 -70.589312417981503 21.976423174801134 12.328245926175475 #
straight-curve $-1 -70.589312417981503 0 15.633608577419642 0 -1 0 I I #
vertex $-1 $286 $382 #
point $-1 -66.001508380033926 24.853880810530164 12.416383787502093 #
vertex $-1 $290 $383 #
point $-1 -66.001508380033926 29.170067264123723 12.416383787502093 #
straight-curve $-1 -70.589312417981503 45.406849345072935 0 0 0 -1 I I #
point $-1 -70.589312417981503 -45.406849345072935 -15.633608577419642 #
straight-curve $-1 -70.589312417981503 0 -15.633608577419642 0 1 0 I I #
point $-1 -70.589312417981503 45.406849345072935 -15.633608577419642 #
coedge $-1 $316 $312 $321 $367 forward $224 $-1 #
vertex $-1 $313 $384 #
straight-curve $-1 -70.589312417981503 0 15.633608577419642 0 -1 0 I I #
point $-1 -70.589312417981503 -31.580416642187551 15.633608577419638 #
straight-curve $-1 70.589312417981503 0 15.633608577419642 0 1 0 I I #
edge $-1 $363 -70.589312417981503 $325 70.589312417981503 $321 $385 forward 7 unknown #
straight-curve $-1 -70.589312417981503 -45.406849345072935 0 0 0 -1 I I #
point $-1 70.589312417981503 -45.406849345072935 15.633608577419642 #
edge $-1 $343 -1.8521105116942493 $332 1.8521105116942493 $329 $386 forward 7 unknown #
straight-curve $-1 -64.405288159767821 56.281766294014965 0 0 0 -1 I I #
straight-curve $-1 -68.10950918315632 50.84430781954395 15.633608577419642 0 -1 0 I I #
point $-1 -68.10950918315632 56.281766294014965 15.633608577419642 #
point $-1 -68.10950918315632 56.281766294014965 -15.633608577419642 #
straight-curve $-1 -66.25739867146207 56.281766294014965 -15.633608577419642 1 0 0 I I #
point $-1 -64.405288159767821 56.281766294014965 -15.633608577419642 #
point $-1 -64.405288159767821 56.281766294014965 15.633608577419642 #
straight-curve $-1 -70.589312417981503 32.047524899852753 60.238673016513346 0 0 -1 I I #
point $-1 -70.589312417981503 32.047524899852753 15.633608577419642 #
straight-curve $-1 -70.589312417981503 13.505987018663472 12.328245926175477 0 -1 0 I I #
point $-1 -70.589312417981503 32.047524899852753 12.328245926175475 #
point $-1 -66.124765198936558 24.853880810530164 11.007551733425382 #
point $-1 -66.124765198936558 29.170067264123723 11.007551733425382 #
point $-1 -70.589312417981503 -45.406849345072935 15.633608577419642 #
straight-curve $-1 0 -45.406849345072935 15.633608577419642 1 0 0 I I #
straight-curve $-1 -66.25739867146207 56.281766294014965 15.633608577419642 -1 0 0 I I #
End-of-ACIS-data 