500 0 6 0           
7 Unknown 11 ACIS 5.0 NT 24 Thu Mar 25 23:01:27 1999 
-1 9.9999999999999995e-007 1e-010 
body $-1 $6 $-1 $7 #
body $-1 $8 $-1 $9 #
body $-1 $10 $-1 $11 #
body $-1 $12 $-1 $13 #
body $-1 $14 $-1 $15 #
body $-1 $16 $-1 $17 #
lump $-1 $-1 $18 $0 #
transform $-1 1 0 0 0 1 0 0 0 1 52.480849635303812 32.388629947661997 8.2634646553683382 1 rotate no_reflect no_shear #
lump $-1 $-1 $19 $1 #
transform $-1 1 0 0 0 1 0 0 0 1 52.480849635303812 32.388629947661997 8.2634646553683382 1 rotate no_reflect no_shear #
lump $-1 $-1 $20 $2 #
transform $-1 1 0 0 0 1 0 0 0 1 52.480849635303812 32.388629947661997 8.2634646553683382 1 rotate no_reflect no_shear #
lump $-1 $-1 $21 $3 #
transform $-1 1 0 0 0 1 0 0 0 1 52.480849635303812 32.388629947661997 8.2634646553683382 1 rotate no_reflect no_shear #
lump $-1 $-1 $22 $4 #
transform $-1 1 0 0 0 1 0 0 0 1 52.480849635303812 32.388629947661997 8.2634646553683382 1 rotate no_reflect no_shear #
lump $-1 $-1 $23 $5 #
transform $-1 1 0 0 0 1 0 0 0 1 52.480849635303812 32.388629947661997 8.2634646553683382 1 rotate no_reflect no_shear #
shell $-1 $-1 $-1 $24 $-1 $6 #
shell $-1 $-1 $-1 $25 $-1 $8 #
shell $-1 $-1 $-1 $26 $-1 $10 #
shell $-1 $-1 $-1 $27 $-1 $12 #
shell $-1 $-1 $-1 $28 $-1 $14 #
shell $-1 $-1 $-1 $29 $-1 $16 #
face $-1 $30 $31 $18 $-1 $32 forward single #
face $-1 $33 $34 $19 $-1 $35 reversed single #
face $-1 $36 $37 $20 $-1 $38 reversed single #
face $-1 $39 $40 $21 $-1 $41 forward single #
face $-1 $42 $43 $22 $-1 $44 reversed single #
face $-1 $45 $46 $23 $-1 $47 forward single #
face $-1 $48 $49 $18 $-1 $50 reversed single #
loop $-1 $-1 $51 $24 #
plane-surface $-1 0 0 8.2634646553683382 0 0 1 1 0 0 forward_v I I I I #
face $-1 $52 $53 $19 $-1 $54 reversed single #
loop $-1 $-1 $55 $25 #
plane-surface $-1 0 -27.359592841196541 5.2634646553683382 0 0 1 1 0 0 forward_v I I I I #
face $-1 $56 $57 $20 $-1 $58 reversed single #
loop $-1 $-1 $59 $26 #
plane-surface $-1 -52.480849635303812 -18.227934125773764 4.8159408500197785 -0.85716730853699208 0 0.51503806187062418 0.51503806187062418 0 0.85716730853699208 forward_v I I I I #
face $-1 $60 $61 $21 $-1 $62 forward single #
loop $-1 $63 $64 $27 #
cone-surface $-1 -50.615108326729498 -18.227934125773764 6.0409880352630445 0.85716730853699208 0 -0.51503806187062418 0.51503806187062418 0 0.85716730853699208 1 I I 0 1 1 forward I I I I #
face $-1 $65 $66 $22 $-1 $67 reversed single #
loop $-1 $-1 $68 $28 #
plane-surface $-1 -142.45058689855972 5.0290371064654522 58.875211013000836 0 1 0 -0.85716730853699208 0 0.51503806187062418 forward_v I I I I #
face $-1 $69 $70 $23 $-1 $71 forward single #
loop $-1 $72 $73 $29 #
cone-surface $-1 -50.615108326729498 9.1316587154227733 6.0409880352630445 0.85716730853699208 0 -0.51503806187062418 0.51503806187062418 0 0.85716730853699208 1 I I 0 1 1 forward I I I I #
face $-1 $74 $75 $18 $-1 $76 reversed single #
loop $-1 $-1 $77 $30 #
plane-surface $-1 0 0 -8.2634646553683382 0 0 1 1 0 0 forward_v I I I I #
coedge $-1 $78 $79 $80 $81 forward $31 $-1 #
face $-1 $82 $83 $19 $-1 $84 reversed single #
loop $-1 $-1 $85 $33 #
plane-surface $-1 0 -22.330555734731085 6.7634646553683382 0 -1 0 0 0 -1 forward_v I I I I #
coedge $-1 $86 $87 $88 $89 reversed $34 $-1 #
face $-1 $90 $91 $20 $-1 $92 forward single #
loop $-1 $-1 $93 $36 #
plane-surface $-1 -142.45058689855972 -14.125312516816443 58.875211013000836 0 -1 0 0.85716730853699208 0 -0.51503806187062418 forward_v I I I I #
coedge $-1 $94 $95 $96 $97 reversed $37 $-1 #
face $-1 $-1 $98 $21 $-1 $99 forward single #
loop $-1 $100 $101 $39 #
cone-surface $-1 -49.356523972094294 -18.227934125773764 5.2847542868967157 0.85716730853699208 0 -0.51503806187062418 0.25751903093531209 0 0.42858365426849604 1 I I -0.70710678118654746 0.70710678118654746 0.5 forward I I I I #
loop $-1 $-1 $102 $27 #
coedge $-1 $64 $64 $103 $104 reversed $40 $-1 #
face $-1 $105 $106 $22 $-1 $107 reversed single #
loop $-1 $-1 $108 $42 #
plane-surface $-1 -52.480849635303812 9.1316587154227733 4.8159408500197785 -0.85716730853699208 0 0.51503806187062418 0.51503806187062418 0 0.85716730853699208 forward_v I I I I #
coedge $-1 $109 $110 $111 $112 reversed $43 $-1 #
face $-1 $-1 $113 $23 $-1 $114 forward single #
loop $-1 $115 $116 $45 #
cone-surface $-1 -49.356523972094294 9.1316587154227733 5.2847542868967157 0.85716730853699208 0 -0.51503806187062418 0.25751903093531209 0 0.42858365426849604 1 I I -0.70710678118654746 0.70710678118654746 0.5 forward I I I I #
loop $-1 $-1 $117 $29 #
coedge $-1 $73 $73 $118 $119 reversed $46 $-1 #
face $-1 $120 $121 $18 $-1 $122 reversed single #
loop $-1 $-1 $123 $48 #
plane-surface $-1 0 -32.388629947661997 0 0 1 0 0 0 1 forward_v I I I I #
coedge $-1 $124 $125 $126 $127 forward $49 $-1 #
coedge $-1 $128 $51 $129 $130 forward $31 $-1 #
coedge $-1 $51 $128 $131 $132 forward $31 $-1 #
coedge $-1 $133 $134 $51 $81 reversed $135 $-1 #
edge $-1 $136 -32.388629947661997 $137 32.388629947661997 $80 $138 forward 7 unknown #
face $-1 $139 $140 $19 $-1 $141 reversed single #
loop $-1 $-1 $142 $52 #
plane-surface $-1 -52.480849635303812 0 0 1 0 0 0 0 -1 forward_v I I I I #
coedge $-1 $143 $144 $145 $146 reversed $53 $-1 #
coedge $-1 $147 $55 $148 $149 reversed $34 $-1 #
coedge $-1 $55 $147 $143 $150 forward $34 $-1 #
coedge $-1 $145 $151 $55 $89 forward $152 $-1 #
edge $-1 $153 -18.708833527063724 $154 -8.6507593141328147 $88 $155 forward 7 unknown #
face $-1 $156 $157 $20 $-1 $158 reversed single #
loop $-1 $-1 $96 $56 #
plane-surface $-1 0 0 8.2634646553683382 0 0 1 1 0 0 forward_v I I I I #
coedge $-1 $159 $160 $161 $162 reversed $57 $-1 #
coedge $-1 $163 $59 $164 $165 reversed $37 $-1 #
coedge $-1 $59 $163 $159 $166 forward $37 $-1 #
coedge $-1 $161 $167 $59 $97 forward $91 $-1 #
edge $-1 $168 -13.216588671844203 $169 -5.011345453929561 $96 $170 forward 7 unknown #
loop $-1 $-1 $103 $60 #
plane-surface $-1 -52.480849635303812 -18.227934125773764 4.8159408500197785 -0.85716730853699208 0 0.51503806187062418 0.51503806187062418 0 0.85716730853699208 forward_v I I I I #
loop $-1 $-1 $171 $39 #
coedge $-1 $101 $101 $102 $172 reversed $61 $-1 #
coedge $-1 $102 $102 $101 $172 forward $63 $-1 #
coedge $-1 $103 $103 $64 $104 forward $98 $-1 #
edge $-1 $173 0 $173 6.2831853071796004 $103 $174 forward 7 unknown #
face $-1 $175 $176 $22 $-1 $177 forward single #
loop $-1 $-1 $178 $65 #
plane-surface $-1 -142.45058689855972 13.234280324380094 58.875211013000836 0 -1 0 0.85716730853699208 0 -0.51503806187062418 forward_v I I I I #
coedge $-1 $179 $180 $181 $182 reversed $66 $-1 #
coedge $-1 $110 $68 $183 $184 reversed $43 $-1 #
coedge $-1 $68 $109 $179 $185 reversed $43 $-1 #
coedge $-1 $181 $186 $68 $112 forward $176 $-1 #
edge $-1 $187 18.744443813976048 $188 20.815925030391263 $111 $189 forward 7 unknown #
loop $-1 $-1 $118 $69 #
plane-surface $-1 -52.480849635303812 9.1316587154227733 4.8159408500197785 -0.85716730853699208 0 0.51503806187062418 0.51503806187062418 0 0.85716730853699208 forward_v I I I I #
loop $-1 $-1 $190 $45 #
coedge $-1 $116 $116 $117 $191 reversed $70 $-1 #
coedge $-1 $117 $117 $116 $191 forward $72 $-1 #
coedge $-1 $118 $118 $73 $119 forward $113 $-1 #
edge $-1 $192 0 $192 6.2831853071796004 $118 $193 forward 7 unknown #
face $-1 $194 $195 $18 $-1 $196 reversed single #
loop $-1 $-1 $197 $74 #
plane-surface $-1 -52.480849635303812 0 0 1 0 0 0 0 -1 forward_v I I I I #
coedge $-1 $198 $131 $199 $200 forward $75 $-1 #
coedge $-1 $201 $77 $198 $202 forward $49 $-1 #
coedge $-1 $77 $201 $203 $204 forward $49 $-1 #
coedge $-1 $134 $133 $77 $127 reversed $135 $-1 #
edge $-1 $205 -32.388629947661997 $206 32.388629947661997 $126 $207 forward 7 unknown #
coedge $-1 $79 $78 $208 $209 forward $31 $-1 #
coedge $-1 $210 $211 $78 $130 reversed $195 $-1 #
edge $-1 $137 -52.480849635303812 $212 52.480849635303812 $129 $213 forward 7 unknown #
coedge $-1 $123 $214 $79 $132 reversed $75 $-1 #
edge $-1 $215 -52.480849635303812 $136 52.480849635303812 $131 $216 forward 7 unknown #
coedge $-1 $126 $80 $214 $217 forward $135 $-1 #
coedge $-1 $80 $126 $210 $218 reversed $135 $-1 #
loop $-1 $-1 $133 $194 #
vertex $-1 $81 $219 #
vertex $-1 $81 $220 #
straight-curve $-1 52.480849635303812 0 8.2634646553683382 0 1 0 I I #
face $-1 $221 $222 $19 $-1 $223 forward single #
loop $-1 $-1 $148 $82 #
plane-surface $-1 0 -32.388629947661997 0 0 1 0 0 0 1 forward_v I I I I #
coedge $-1 $224 $225 $226 $227 forward $83 $-1 #
coedge $-1 $226 $85 $87 $150 reversed $53 $-1 #
coedge $-1 $85 $226 $228 $229 reversed $53 $-1 #
coedge $-1 $230 $88 $85 $146 forward $152 $-1 #
edge $-1 $154 1.8817323276841691 $231 4.8817323276841691 $145 $232 forward 7 unknown #
coedge $-1 $87 $86 $224 $233 reversed $34 $-1 #
coedge $-1 $234 $235 $86 $149 forward $140 $-1 #
edge $-1 $236 -52.480849635303812 $153 52.480849635303812 $148 $237 forward 7 unknown #
edge $-1 $238 -52.480849635303812 $154 52.480849635303812 $143 $239 forward 7 unknown #
coedge $-1 $88 $230 $234 $240 forward $152 $-1 #
loop $-1 $-1 $145 $221 #
vertex $-1 $149 $241 #
vertex $-1 $89 $242 #
straight-curve $-1 52.480849635303812 -13.679796420598271 5.2634646553683382 0 1 0 I I #
face $-1 $-1 $243 $20 $-1 $244 forward single #
loop $-1 $-1 $245 $90 #
plane-surface $-1 -52.480849635303812 0 0 1 0 0 0 0 -1 forward_v I I I I #
coedge $-1 $160 $93 $95 $166 reversed $57 $-1 #
coedge $-1 $93 $159 $245 $246 reversed $57 $-1 #
coedge $-1 $247 $96 $93 $162 forward $91 $-1 #
edge $-1 $169 -20.815925030391263 $248 -18.744443813976048 $161 $249 forward 7 unknown #
coedge $-1 $95 $94 $250 $251 reversed $37 $-1 #
coedge $-1 $252 $253 $94 $165 forward $243 $-1 #
edge $-1 $254 -14.349494410016439 $168 -10.327498037764713 $164 $255 forward 7 unknown #
edge $-1 $256 0 $169 4.0219963722517305 $159 $257 forward 7 unknown #
coedge $-1 $96 $247 $252 $258 forward $91 $-1 #
vertex $-1 $165 $259 #
vertex $-1 $97 $260 #
straight-curve $-1 -50.40936841888859 -9.1139670628868821 8.2634646553683382 0 1 0 I I #
coedge $-1 $171 $171 $-1 $261 reversed $100 $-1 #
edge $-1 $262 0 $262 6.2831853071796004 $101 $263 forward 7 unknown #
vertex $-1 $104 $264 #
ellipse-curve $-1 -51.445109027096208 -18.227934125773764 6.5397027526940601 -0.85716730853699208 0 0.51503806187062418 0.51503806187062418 0 0.85716730853699208 1 I I #
face $-1 $-1 $265 $22 $-1 $266 reversed single #
loop $-1 $-1 $111 $105 #
plane-surface $-1 0 0 8.2634646553683382 0 0 1 1 0 0 forward_v I I I I #
coedge $-1 $267 $268 $269 $270 reversed $106 $-1 #
coedge $-1 $271 $108 $110 $185 forward $66 $-1 #
coedge $-1 $108 $271 $267 $272 forward $66 $-1 #
coedge $-1 $269 $111 $108 $182 forward $176 $-1 #
edge $-1 $188 0.46320774875406556 $273 8.6684509666687077 $181 $274 forward 7 unknown #
coedge $-1 $275 $276 $109 $184 forward $265 $-1 #
edge $-1 $277 -24.62166465648064 $187 -21.17414085113208 $183 $278 forward 7 unknown #
edge $-1 $188 -4.0219963722517305 $277 0 $110 $279 forward 7 unknown #
coedge $-1 $111 $269 $275 $280 forward $176 $-1 #
vertex $-1 $112 $281 #
vertex $-1 $112 $282 #
straight-curve $-1 -71.22529344927986 5.0290371064654522 8.2634646553683382 1 0 0 I I #
coedge $-1 $190 $190 $-1 $283 reversed $115 $-1 #
edge $-1 $284 0 $284 6.2831853071796004 $116 $285 forward 7 unknown #
vertex $-1 $119 $286 #
ellipse-curve $-1 -51.445109027096208 9.1316587154227733 6.5397027526940601 -0.85716730853699208 0 0.51503806187062418 0.51503806187062418 0 0.85716730853699208 1 I I #
face $-1 $-1 $135 $18 $-1 $287 reversed single #
loop $-1 $-1 $210 $120 #
plane-surface $-1 0 32.388629947661997 0 0 -1 0 0 0 -1 forward_v I I I I #
coedge $-1 $288 $208 $211 $289 forward $121 $-1 #
coedge $-1 $214 $123 $124 $202 reversed $75 $-1 #
coedge $-1 $208 $288 $123 $200 reversed $121 $-1 #
edge $-1 $215 -8.2634646553683382 $290 8.2634646553683382 $199 $291 forward 7 unknown #
coedge $-1 $125 $124 $288 $292 forward $49 $-1 #
edge $-1 $206 -52.480849635303812 $290 52.480849635303812 $198 $293 forward 7 unknown #
coedge $-1 $211 $210 $125 $204 reversed $195 $-1 #
edge $-1 $294 -52.480849635303812 $205 52.480849635303812 $203 $295 forward 7 unknown #
vertex $-1 $127 $296 #
vertex $-1 $217 $297 #
straight-curve $-1 52.480849635303812 0 -8.2634646553683382 0 -1 0 I I #
coedge $-1 $197 $199 $128 $209 reversed $121 $-1 #
edge $-1 $212 -32.388629947661997 $215 32.388629947661997 $208 $298 forward 7 unknown #
coedge $-1 $203 $129 $134 $218 forward $195 $-1 #
coedge $-1 $129 $203 $197 $289 reversed $195 $-1 #
vertex $-1 $130 $299 #
straight-curve $-1 0 32.388629947661997 8.2634646553683382 -1 0 0 I I #
coedge $-1 $131 $198 $133 $217 reversed $75 $-1 #
vertex $-1 $209 $300 #
straight-curve $-1 0 -32.388629947661997 8.2634646553683382 1 0 0 I I #
edge $-1 $136 -8.2634646553683382 $206 8.2634646553683382 $133 $301 forward 7 unknown #
edge $-1 $137 -8.2634646553683382 $205 8.2634646553683382 $134 $302 forward 7 unknown #
point $-1 52.480849635303812 -32.388629947661997 8.2634646553683382 #
point $-1 52.480849635303812 32.388629947661997 8.2634646553683382 #
face $-1 $-1 $152 $19 $-1 $303 reversed single #
loop $-1 $-1 $228 $139 #
plane-surface $-1 0 0 8.2634646553683382 0 0 1 1 0 0 forward_v I I I I #
coedge $-1 $304 $142 $147 $233 forward $83 $-1 #
coedge $-1 $142 $304 $305 $306 reversed $83 $-1 #
coedge $-1 $144 $143 $142 $227 reversed $53 $-1 #
edge $-1 $307 -4.8817323276841691 $238 -1.8817323276841691 $142 $308 forward 7 unknown #
coedge $-1 $305 $309 $144 $229 forward $222 $-1 #
edge $-1 $231 -52.480849635303812 $307 52.480849635303812 $228 $310 forward 7 unknown #
coedge $-1 $151 $145 $309 $311 reversed $152 $-1 #
vertex $-1 $146 $312 #
straight-curve $-1 52.480849635303812 -22.330555734731085 3.3817323276841691 0 0 1 I I #
edge $-1 $238 8.6507593141328147 $236 18.708833527063724 $224 $313 forward 7 unknown #
coedge $-1 $314 $148 $151 $240 reversed $140 $-1 #
coedge $-1 $148 $314 $304 $315 forward $140 $-1 #
vertex $-1 $149 $316 #
straight-curve $-1 0 -32.388629947661997 5.2634646553683382 1 0 0 I I #
vertex $-1 $233 $317 #
straight-curve $-1 0 -22.330555734731085 5.2634646553683382 1 0 0 I I #
edge $-1 $318 -8.2634646553683382 $153 -5.2634646553683382 $151 $319 forward 7 unknown #
point $-1 52.480849635303812 -32.388629947661997 5.2634646553683382 #
point $-1 52.480849635303812 -22.330555734731085 5.2634646553683382 #
loop $-1 $-1 $164 $156 #
plane-surface $-1 0 -22.330555734731085 6.7634646553683382 0 -1 0 0 0 -1 forward_v I I I I #
coedge $-1 $250 $320 $160 $246 forward $157 $-1 #
edge $-1 $248 21.17414085113208 $256 24.62166465648064 $245 $321 forward 7 unknown #
coedge $-1 $167 $161 $320 $322 forward $91 $-1 #
vertex $-1 $322 $323 #
straight-curve $-1 -71.22529344927986 -14.125312516816443 8.2634646553683382 -1 0 0 I I #
coedge $-1 $324 $245 $163 $251 forward $157 $-1 #
edge $-1 $256 5.011345453929561 $254 13.216588671844203 $250 $325 forward 7 unknown #
coedge $-1 $253 $164 $167 $258 reversed $243 $-1 #
coedge $-1 $164 $252 $324 $326 reversed $243 $-1 #
vertex $-1 $326 $327 #
straight-curve $-1 -45.090313845545587 -22.330555734731085 17.115858352320181 0.51503806187062429 0 0.85716730853699219 I I #
vertex $-1 $251 $328 #
straight-curve $-1 -52.480849635303812 -14.125312516816443 4.8159408500197785 0.51503806187062418 0 0.85716730853699208 I I #
edge $-1 $329 -52.480849635303812 $168 -50.409368418888604 $167 $330 forward 7 unknown #
point $-1 -50.409368418888604 -22.330555734731085 8.2634646553683382 #
point $-1 -50.409368418888597 -14.125312516816443 8.2634646553683382 #
edge $-1 $331 1 $331 0 $171 $-1 forward 7 unknown #
vertex $-1 $172 $332 #
ellipse-curve $-1 -49.785107626362787 -18.227934125773764 5.542273317832028 -0.85716730853699208 0 0.51503806187062418 0.51503806187062418 0 0.85716730853699208 1 I I #
point $-1 -50.930070965225582 -18.227934125773764 7.3968700612310521 #
loop $-1 $-1 $183 $175 #
plane-surface $-1 -52.480849635303812 0 0 1 0 0 0 0 -1 forward_v I I I I #
coedge $-1 $268 $178 $180 $272 reversed $106 $-1 #
coedge $-1 $178 $267 $333 $334 reversed $106 $-1 #
coedge $-1 $186 $181 $178 $270 forward $176 $-1 #
edge $-1 $273 -20.815925030391263 $335 -18.744443813976048 $269 $336 forward 7 unknown #
coedge $-1 $180 $179 $276 $337 reversed $66 $-1 #
edge $-1 $338 0 $273 4.0219963722517305 $267 $339 forward 7 unknown #
vertex $-1 $182 $340 #
straight-curve $-1 -50.40936841888859 4.5658293577113866 8.2634646553683382 0 1 0 I I #
coedge $-1 $333 $183 $186 $280 reversed $265 $-1 #
coedge $-1 $183 $333 $271 $337 forward $265 $-1 #
vertex $-1 $184 $341 #
straight-curve $-1 -52.480849635303812 5.0290371064654522 29.437605506500418 0 0 1 I I #
straight-curve $-1 -52.480849635303812 5.0290371064654522 4.8159408500197785 -0.51503806187062418 0 -0.85716730853699208 I I #
edge $-1 $335 -13.234280324380094 $187 -5.0290371064654522 $275 $342 forward 7 unknown #
point $-1 -52.480849635303812 5.0290371064654522 8.2634646553683382 #
point $-1 -50.409368418888597 5.0290371064654522 8.2634646553683382 #
edge $-1 $343 1 $343 0 $190 $-1 forward 7 unknown #
vertex $-1 $191 $344 #
ellipse-curve $-1 -49.785107626362787 9.1316587154227733 5.542273317832028 -0.85716730853699208 0 0.51503806187062418 0.51503806187062418 0 0.85716730853699208 1 I I #
point $-1 -50.930070965225582 9.1316587154227733 7.3968700612310521 #
plane-surface $-1 52.480849635303812 0 0 -1 0 0 0 0 1 forward_v I I I I #
coedge $-1 $199 $197 $201 $292 reversed $121 $-1 #
edge $-1 $212 -8.2634646553683382 $294 8.2634646553683382 $211 $345 forward 7 unknown #
vertex $-1 $292 $346 #
straight-curve $-1 -52.480849635303812 -32.388629947661997 0 0 0 -1 I I #
edge $-1 $290 -32.388629947661997 $294 32.388629947661997 $288 $347 forward 7 unknown #
straight-curve $-1 0 -32.388629947661997 -8.2634646553683382 -1 0 0 I I #
vertex $-1 $204 $348 #
straight-curve $-1 0 32.388629947661997 -8.2634646553683382 1 0 0 I I #
point $-1 52.480849635303812 32.388629947661997 -8.2634646553683382 #
point $-1 52.480849635303812 -32.388629947661997 -8.2634646553683382 #
straight-curve $-1 -52.480849635303812 0 8.2634646553683382 0 -1 0 I I #
point $-1 -52.480849635303812 32.388629947661997 8.2634646553683382 #
point $-1 -52.480849635303812 -32.388629947661997 8.2634646553683382 #
straight-curve $-1 52.480849635303812 -32.388629947661997 0 0 0 -1 I I #
straight-curve $-1 52.480849635303812 32.388629947661997 0 0 0 -1 I I #
plane-surface $-1 52.480849635303812 0 0 -1 0 0 0 0 1 forward_v I I I I #
coedge $-1 $225 $224 $235 $315 reversed $83 $-1 #
coedge $-1 $349 $228 $225 $306 forward $222 $-1 #
edge $-1 $307 22.330555734731085 $350 32.388629947661997 $225 $351 forward 7 unknown #
vertex $-1 $306 $352 #
straight-curve $-1 -52.480849635303812 -22.330555734731085 3.3817323276841691 0 0 -1 I I #
coedge $-1 $228 $349 $230 $311 forward $222 $-1 #
straight-curve $-1 0 -22.330555734731085 8.2634646553683382 -1 0 0 I I #
edge $-1 $318 -32.388629947661997 $231 -22.330555734731085 $230 $353 forward 7 unknown #
point $-1 52.480849635303812 -22.330555734731085 8.2634646553683382 #
straight-curve $-1 -52.480849635303812 -13.679796420598271 5.2634646553683382 0 -1 0 I I #
coedge $-1 $235 $234 $349 $354 reversed $140 $-1 #
edge $-1 $350 -8.2634646553683382 $236 -5.2634646553683382 $304 $355 forward 7 unknown #
point $-1 -52.480849635303812 -32.388629947661997 5.2634646553683382 #
point $-1 -52.480849635303812 -22.330555734731085 5.2634646553683382 #
vertex $-1 $311 $356 #
straight-curve $-1 52.480849635303812 -32.388629947661997 0 0 0 -1 I I #
coedge $-1 $245 $324 $247 $322 reversed $157 $-1 #
straight-curve $-1 -52.480849635303812 -14.125312516816443 29.437605506500418 0 0 -1 I I #
edge $-1 $248 14.125312516816443 $329 22.330555734731085 $320 $357 forward 7 unknown #
point $-1 -52.480849635303812 -14.125312516816443 8.2634646553683382 #
coedge $-1 $320 $250 $253 $326 forward $157 $-1 #
straight-curve $-1 -52.480849635303812 -9.1139670628868821 4.8159408500197749 0 -1 0 I I #
edge $-1 $254 -24.62166465648064 $329 -21.17414085113208 $324 $358 forward 7 unknown #
point $-1 -52.480849635303812 -22.330555734731085 4.8159408500197785 #
point $-1 -52.480849635303812 -14.125312516816443 4.8159408500197785 #
vertex $-1 $326 $359 #
straight-curve $-1 0 -22.330555734731085 8.2634646553683382 1 0 0 I I #
vertex $-1 $261 $360 #
point $-1 -49.270069564492168 -18.227934125773764 6.39944062636902 #
coedge $-1 $276 $275 $268 $334 forward $265 $-1 #
edge $-1 $335 21.17414085113208 $338 24.62166465648064 $333 $361 forward 7 unknown #
vertex $-1 $280 $362 #
straight-curve $-1 -71.22529344927986 13.234280324380094 8.2634646553683382 -1 0 0 I I #
edge $-1 $338 -8.6684509666687077 $277 -0.46320774875406556 $276 $363 forward 7 unknown #
vertex $-1 $337 $364 #
straight-curve $-1 -52.480849635303812 13.234280324380094 4.8159408500197785 0.51503806187062418 0 0.85716730853699208 I I #
point $-1 -50.409368418888597 13.234280324380094 8.2634646553683382 #
point $-1 -52.480849635303812 5.0290371064654522 4.8159408500197785 #
straight-curve $-1 -52.480849635303812 0 8.2634646553683382 0 -1 0 I I #
vertex $-1 $283 $365 #
point $-1 -49.270069564492168 9.1316587154227733 6.39944062636902 #
straight-curve $-1 -52.480849635303812 32.388629947661997 0 0 0 -1 I I #
point $-1 -52.480849635303812 -32.388629947661997 -8.2634646553683382 #
straight-curve $-1 -52.480849635303812 0 -8.2634646553683382 0 1 0 I I #
point $-1 -52.480849635303812 32.388629947661997 -8.2634646553683382 #
coedge $-1 $309 $305 $314 $354 forward $222 $-1 #
vertex $-1 $306 $366 #
straight-curve $-1 -52.480849635303812 0 8.2634646553683382 0 -1 0 I I #
point $-1 -52.480849635303812 -22.330555734731085 8.2634646553683382 #
straight-curve $-1 52.480849635303812 0 8.2634646553683382 0 1 0 I I #
edge $-1 $350 -52.480849635303812 $318 52.480849635303812 $314 $367 forward 7 unknown #
straight-curve $-1 -52.480849635303812 -32.388629947661997 0 0 0 -1 I I #
point $-1 52.480849635303812 -32.388629947661997 8.2634646553683382 #
straight-curve $-1 -52.480849635303812 0 8.2634646553683382 0 -1 0 I I #
straight-curve $-1 -52.480849635303812 -22.330555734731085 29.437605506500418 0 0 1 I I #
point $-1 -52.480849635303812 -22.330555734731085 8.2634646553683382 #
point $-1 -48.927940317825801 -18.227934125773764 5.0272352559614033 #
straight-curve $-1 -52.480849635303812 13.234280324380094 29.437605506500418 0 0 -1 I I #
point $-1 -52.480849635303812 13.234280324380094 8.2634646553683382 #
straight-curve $-1 -52.480849635303812 4.5658293577113866 4.8159408500197749 0 -1 0 I I #
point $-1 -52.480849635303812 13.234280324380094 4.8159408500197785 #
point $-1 -48.927940317825801 9.1316587154227733 5.0272352559614033 #
point $-1 -52.480849635303812 -32.388629947661997 8.2634646553683382 #
straight-curve $-1 0 -32.388629947661997 8.2634646553683382 1 0 0 I I #
End-of-ACIS-data 