500 0 7 0           
7 Unknown 11 ACIS 5.0 NT 24 Fri Mar 26 18:09:08 1999 
-1 9.9999999999999995e-007 1e-010 
body $-1 $7 $-1 $8 #
body $-1 $9 $-1 $10 #
body $-1 $11 $-1 $12 #
body $-1 $13 $-1 $14 #
body $-1 $15 $-1 $16 #
body $-1 $17 $-1 $18 #
body $-1 $19 $-1 $20 #
lump $-1 $-1 $21 $0 #
transform $-1 1 0 0 0 1 0 0 0 1 68.427381206701867 30.696364080738306 15.110139311009871 1 rotate no_reflect no_shear #
lump $-1 $-1 $22 $1 #
transform $-1 1 0 0 0 1 0 0 0 1 68.427381206701867 30.696364080738306 15.110139311009871 1 rotate no_reflect no_shear #
lump $-1 $-1 $23 $2 #
transform $-1 1 0 0 0 1 0 0 0 1 68.427381206701867 30.696364080738306 15.110139311009871 1 rotate no_reflect no_shear #
lump $-1 $-1 $24 $3 #
transform $-1 1 0 0 0 1 0 0 0 1 68.427381206701867 30.696364080738306 15.110139311009871 1 rotate no_reflect no_shear #
lump $-1 $-1 $25 $4 #
transform $-1 1 0 0 0 1 0 0 0 1 68.427381206701867 30.696364080738306 15.110139311009871 1 rotate no_reflect no_shear #
lump $-1 $-1 $26 $5 #
transform $-1 1 0 0 0 1 0 0 0 1 68.427381206701867 30.696364080738306 15.110139311009871 1 rotate no_reflect no_shear #
lump $-1 $-1 $27 $6 #
transform $-1 1 0 0 0 1 0 0 0 1 68.427381206701867 30.696364080738306 15.110139311009871 1 rotate no_reflect no_shear #
shell $-1 $-1 $-1 $28 $-1 $7 #
shell $-1 $-1 $-1 $29 $-1 $9 #
shell $-1 $-1 $-1 $30 $-1 $11 #
shell $-1 $-1 $-1 $31 $-1 $13 #
shell $-1 $-1 $-1 $32 $-1 $15 #
shell $-1 $-1 $-1 $33 $-1 $17 #
shell $-1 $-1 $-1 $34 $-1 $19 #
face $-1 $35 $36 $21 $-1 $37 forward single #
face $-1 $38 $39 $22 $-1 $40 forward single #
face $-1 $41 $42 $23 $-1 $43 reversed single #
face $-1 $44 $45 $24 $-1 $46 forward single #
face $-1 $47 $48 $25 $-1 $49 reversed single #
face $-1 $50 $51 $26 $-1 $52 forward single #
face $-1 $53 $54 $27 $-1 $55 forward single #
face $-1 $56 $57 $21 $-1 $58 reversed single #
loop $-1 $-1 $59 $28 #
plane-surface $-1 0 0 15.110139311009871 0 0 1 1 0 0 forward_v I I I I #
face $-1 $60 $61 $22 $-1 $62 forward single #
loop $-1 $-1 $63 $29 #
plane-surface $-1 0 -30.696364080738306 0 0 1 0 0 0 1 forward_v I I I I #
face $-1 $64 $65 $23 $-1 $66 reversed single #
loop $-1 $-1 $67 $30 #
plane-surface $-1 54.92658549684748 17.769316927580302 202.01616920581031 0 -1 0 -0.6560590369687036 0 -0.75470957328743171 forward_v I I I I #
face $-1 $68 $69 $24 $-1 $70 forward single #
loop $-1 $71 $72 $31 #
cone-surface $-1 63.827776131602199 14.610371620496736 10.815516113027664 -0.6560590369687036 0 -0.75470957328743171 0.75470957328743171 0 -0.6560590369687036 1 I I 0 1 1 forward I I I I #
face $-1 $73 $74 $25 $-1 $75 reversed single #
loop $-1 $-1 $76 $32 #
plane-surface $-1 -186.94708314416954 -7.2243133973121729 75.494183589808799 0 1 0 -0.86602541151947299 0 0.49999998660252726 forward_v I I I I #
face $-1 $77 $78 $26 $-1 $79 forward single #
loop $-1 $80 $81 $33 #
cone-surface $-1 -64.434115672208875 -3.400883667564532 10.123514668174161 0.86602541151947299 0 -0.49999998660252726 0.49999998660252726 0 0.86602541151947299 1 I I 0 1 1 forward I I I I #
face $-1 $82 $83 $27 $-1 $84 forward single #
loop $-1 $85 $86 $34 #
cone-surface $-1 -64.434115672208875 2.3342609270569312 10.123514668174161 0.86602541151947299 0 -0.49999998660252726 0.49999998660252726 0 0.86602541151947299 1 I I 0 1 1 forward I I I I #
face $-1 $87 $88 $21 $-1 $89 reversed single #
loop $-1 $-1 $90 $35 #
plane-surface $-1 0 0 -15.110139311009871 0 0 1 1 0 0 forward_v I I I I #
coedge $-1 $91 $92 $93 $94 forward $36 $-1 #
face $-1 $95 $96 $22 $-1 $97 reversed single #
loop $-1 $-1 $98 $38 #
plane-surface $-1 0 0 15.110139311009871 0 0 1 1 0 0 forward_v I I I I #
coedge $-1 $99 $100 $101 $102 forward $39 $-1 #
face $-1 $103 $104 $23 $-1 $105 reversed single #
loop $-1 $-1 $106 $41 #
plane-surface $-1 -34.858218136670914 14.610371620496736 98.730569862437534 0.6560590369687036 0 0.75470957328743171 0.75470957328743171 0 -0.6560590369687036 forward_v I I I I #
coedge $-1 $107 $108 $109 $110 reversed $42 $-1 #
face $-1 $-1 $111 $24 $-1 $112 forward single #
loop $-1 $113 $114 $44 #
cone-surface $-1 62.445791484298226 14.610371620496736 9.2257246694470787 -0.6560590369687036 0 -0.75470957328743171 0.37735478664371586 0 -0.3280295184843518 1 I I -0.70710678118654746 0.70710678118654746 0.5 forward I I I I #
loop $-1 $-1 $115 $31 #
coedge $-1 $72 $72 $116 $117 reversed $45 $-1 #
face $-1 $118 $119 $25 $-1 $120 reversed single #
loop $-1 $-1 $121 $47 #
plane-surface $-1 -68.427381206701867 -0.5333113702537986 7.0668042166148837 -0.86602541151947299 0 0.49999998660252726 0.49999998660252726 0 0.86602541151947299 forward_v I I I I #
coedge $-1 $122 $123 $124 $125 reversed $48 $-1 #
face $-1 $-1 $126 $26 $-1 $127 forward single #
loop $-1 $128 $129 $50 #
cone-surface $-1 -62.329748189967844 -3.400883667564532 8.9085575792346852 0.86602541151947299 0 -0.49999998660252726 0.24999999330126363 0 0.43301270575973649 1 I I -0.70710678118654746 0.70710678118654746 0.5 forward I I I I #
loop $-1 $-1 $130 $33 #
coedge $-1 $81 $81 $131 $132 reversed $51 $-1 #
face $-1 $-1 $133 $27 $-1 $134 forward single #
loop $-1 $135 $136 $53 #
cone-surface $-1 -62.329748189967844 2.3342609270569312 8.9085575792346852 0.86602541151947299 0 -0.49999998660252726 0.24999999330126363 0 0.43301270575973649 1 I I -0.70710678118654746 0.70710678118654746 0.5 forward I I I I #
loop $-1 $-1 $137 $34 #
coedge $-1 $86 $86 $138 $139 reversed $54 $-1 #
face $-1 $140 $141 $21 $-1 $142 reversed single #
loop $-1 $-1 $143 $56 #
plane-surface $-1 0 -30.696364080738306 0 0 1 0 0 0 1 forward_v I I I I #
coedge $-1 $144 $145 $146 $147 forward $57 $-1 #
coedge $-1 $148 $59 $149 $150 forward $36 $-1 #
coedge $-1 $59 $148 $151 $152 forward $36 $-1 #
coedge $-1 $153 $154 $59 $94 reversed $155 $-1 #
edge $-1 $156 -30.696364080738306 $157 30.696364080738306 $93 $158 forward 7 unknown #
face $-1 $159 $160 $22 $-1 $161 reversed single #
loop $-1 $-1 $162 $60 #
plane-surface $-1 -68.427381206701867 0 0 1 0 0 0 0 -1 forward_v I I I I #
coedge $-1 $163 $164 $165 $166 forward $61 $-1 #
coedge $-1 $165 $63 $162 $167 reversed $39 $-1 #
coedge $-1 $63 $165 $168 $169 reversed $39 $-1 #
coedge $-1 $170 $171 $63 $102 reversed $160 $-1 #
edge $-1 $172 -68.427381206701867 $173 68.427381206701867 $101 $174 forward 7 unknown #
face $-1 $175 $176 $23 $-1 $177 reversed single #
loop $-1 $-1 $178 $64 #
plane-surface $-1 54.92658549684748 11.451426313413169 202.01616920581031 0 1 0 0.6560590369687036 0 0.75470957328743171 forward_v I I I I #
coedge $-1 $179 $180 $181 $182 reversed $65 $-1 #
coedge $-1 $108 $67 $183 $184 reversed $42 $-1 #
coedge $-1 $67 $107 $179 $185 reversed $42 $-1 #
coedge $-1 $181 $186 $67 $110 forward $187 $-1 #
edge $-1 $188 -40.964088458278127 $189 -33.872788565718068 $109 $190 forward 7 unknown #
loop $-1 $-1 $116 $68 #
plane-surface $-1 -34.858218136670914 14.610371620496736 98.730569862437534 0.6560590369687036 0 0.75470957328743171 0.75470957328743171 0 -0.6560590369687036 forward_v I I I I #
loop $-1 $-1 $191 $44 #
coedge $-1 $114 $114 $115 $192 reversed $69 $-1 #
coedge $-1 $115 $115 $114 $192 forward $71 $-1 #
coedge $-1 $116 $116 $72 $117 forward $111 $-1 #
edge $-1 $193 0 $193 6.2831853071796004 $116 $194 forward 7 unknown #
face $-1 $195 $196 $25 $-1 $197 forward single #
loop $-1 $-1 $198 $73 #
plane-surface $-1 -186.94708314416954 6.1576906568045757 75.494183589808799 0 -1 0 0.86602541151947299 0 -0.49999998660252726 forward_v I I I I #
coedge $-1 $199 $200 $201 $202 reversed $74 $-1 #
coedge $-1 $123 $76 $203 $204 reversed $48 $-1 #
coedge $-1 $76 $122 $199 $205 reversed $48 $-1 #
coedge $-1 $201 $206 $76 $125 forward $196 $-1 #
edge $-1 $207 25.046160365382903 $208 29.689981881406283 $124 $209 forward 7 unknown #
loop $-1 $-1 $131 $77 #
plane-surface $-1 -68.427381206701867 -0.5333113702537986 7.0668042166148837 -0.86602541151947299 0 0.49999998660252726 0.49999998660252726 0 0.86602541151947299 forward_v I I I I #
loop $-1 $-1 $210 $50 #
coedge $-1 $129 $129 $130 $211 reversed $78 $-1 #
coedge $-1 $130 $130 $129 $211 forward $80 $-1 #
coedge $-1 $131 $131 $81 $132 forward $126 $-1 #
edge $-1 $212 0 $212 6.2831853071796004 $131 $213 forward 7 unknown #
loop $-1 $-1 $138 $82 #
plane-surface $-1 -68.427381206701867 -0.5333113702537986 7.0668042166148837 -0.86602541151947299 0 0.49999998660252726 0.49999998660252726 0 0.86602541151947299 forward_v I I I I #
loop $-1 $-1 $214 $53 #
coedge $-1 $136 $136 $137 $215 reversed $83 $-1 #
coedge $-1 $137 $137 $136 $215 forward $85 $-1 #
coedge $-1 $138 $138 $86 $139 forward $133 $-1 #
edge $-1 $216 0 $216 6.2831853071796004 $138 $217 forward 7 unknown #
face $-1 $218 $219 $21 $-1 $220 reversed single #
loop $-1 $-1 $221 $87 #
plane-surface $-1 -68.427381206701867 0 0 1 0 0 0 0 -1 forward_v I I I I #
coedge $-1 $222 $151 $223 $224 forward $88 $-1 #
coedge $-1 $225 $90 $222 $226 forward $57 $-1 #
coedge $-1 $90 $225 $227 $228 forward $57 $-1 #
coedge $-1 $154 $153 $90 $147 reversed $155 $-1 #
edge $-1 $229 -30.696364080738306 $230 30.696364080738306 $146 $231 forward 7 unknown #
coedge $-1 $92 $91 $232 $233 forward $36 $-1 #
coedge $-1 $234 $235 $91 $150 reversed $219 $-1 #
edge $-1 $157 -68.427381206701867 $236 68.427381206701867 $149 $237 forward 7 unknown #
coedge $-1 $143 $238 $92 $152 reversed $88 $-1 #
edge $-1 $239 -68.427381206701867 $156 68.427381206701867 $151 $240 forward 7 unknown #
coedge $-1 $146 $93 $238 $241 forward $155 $-1 #
coedge $-1 $93 $146 $234 $242 reversed $155 $-1 #
loop $-1 $-1 $153 $218 #
vertex $-1 $94 $243 #
vertex $-1 $94 $244 #
straight-curve $-1 68.427381206701867 0 15.110139311009871 0 1 0 I I #
face $-1 $245 $246 $22 $-1 $247 reversed single #
loop $-1 $-1 $170 $95 #
plane-surface $-1 0 -36.3489359107338 10.947622647758376 0 0 1 1 0 0 forward_v I I I I #
coedge $-1 $248 $249 $99 $167 forward $96 $-1 #
coedge $-1 $250 $98 $249 $251 forward $61 $-1 #
coedge $-1 $98 $250 $252 $253 forward $61 $-1 #
coedge $-1 $100 $99 $98 $166 reversed $39 $-1 #
edge $-1 $254 -68.427381206701867 $255 68.427381206701867 $98 $256 forward 7 unknown #
edge $-1 $255 -15.110139311009871 $173 -10.947622647758376 $162 $257 forward 7 unknown #
coedge $-1 $252 $258 $100 $169 forward $259 $-1 #
edge $-1 $172 10.947622647758376 $254 15.110139311009871 $168 $260 forward 7 unknown #
coedge $-1 $261 $101 $258 $262 forward $160 $-1 #
coedge $-1 $101 $261 $248 $263 forward $160 $-1 #
vertex $-1 $169 $264 #
vertex $-1 $167 $265 #
straight-curve $-1 0 -30.696364080738306 10.947622647758376 -1 0 0 I I #
face $-1 $-1 $187 $23 $-1 $266 forward single #
loop $-1 $-1 $267 $103 #
plane-surface $-1 68.427381206701867 0 0 -1 0 0 0 0 1 forward_v I I I I #
coedge $-1 $268 $269 $270 $271 reversed $104 $-1 #
coedge $-1 $272 $106 $108 $185 forward $65 $-1 #
coedge $-1 $106 $272 $268 $273 forward $65 $-1 #
coedge $-1 $270 $109 $106 $182 forward $187 $-1 #
edge $-1 $189 -10.464131117331934 $274 -4.1462405031648011 $181 $275 forward 7 unknown #
coedge $-1 $276 $277 $107 $184 forward $176 $-1 #
edge $-1 $278 -92.062318373986017 $188 -85.897945291895283 $183 $279 forward 7 unknown #
edge $-1 $189 127.4586978296843 $278 136.85476241340376 $108 $280 forward 7 unknown #
coedge $-1 $109 $270 $276 $281 forward $187 $-1 #
loop $-1 $-1 $270 $175 #
vertex $-1 $184 $282 #
vertex $-1 $110 $283 #
straight-curve $-1 27.46329274842374 17.769316927580302 15.110139311009874 -1 0 0 I I #
coedge $-1 $191 $191 $-1 $284 reversed $113 $-1 #
edge $-1 $285 0 $285 6.2831853071796004 $114 $286 forward 7 unknown #
vertex $-1 $117 $287 #
ellipse-curve $-1 64.881731260421816 14.610371620496736 12.027952769964532 0.6560590369687036 0 0.75470957328743171 0.75470957328743171 0 -0.6560590369687036 1 I I #
face $-1 $-1 $288 $25 $-1 $289 reversed single #
loop $-1 $-1 $124 $118 #
plane-surface $-1 0 0 15.110139311009871 0 0 1 1 0 0 forward_v I I I I #
coedge $-1 $290 $291 $292 $293 reversed $119 $-1 #
coedge $-1 $294 $121 $123 $205 forward $74 $-1 #
coedge $-1 $121 $294 $290 $295 forward $74 $-1 #
coedge $-1 $292 $124 $121 $202 forward $196 $-1 #
edge $-1 $208 -6.9576577121852736 $296 6.424346341931475 $201 $297 forward 7 unknown #
coedge $-1 $298 $299 $122 $204 forward $288 $-1 #
edge $-1 $300 -30.680287578289516 $207 -22.636952483894529 $203 $301 forward 7 unknown #
edge $-1 $208 -9.2876432809086555 $300 0 $123 $302 forward 7 unknown #
coedge $-1 $124 $292 $298 $303 forward $196 $-1 #
vertex $-1 $204 $304 #
vertex $-1 $125 $305 #
straight-curve $-1 -93.47354157208477 -7.2243133973121729 15.110139311009871 1 0 0 I I #
coedge $-1 $210 $210 $-1 $306 reversed $128 $-1 #
edge $-1 $307 0 $307 6.2831853071796004 $129 $308 forward 7 unknown #
vertex $-1 $132 $309 #
ellipse-curve $-1 -66.10547044869017 -3.400883667564532 11.088471763812377 -0.86602541151947299 0 0.49999998660252726 0.49999998660252726 0 0.86602541151947299 1 I I #
coedge $-1 $214 $214 $-1 $310 reversed $135 $-1 #
edge $-1 $311 0 $311 6.2831853071796004 $136 $312 forward 7 unknown #
vertex $-1 $139 $313 #
ellipse-curve $-1 -66.10547044869017 2.3342609270569312 11.088471763812377 -0.86602541151947299 0 0.49999998660252726 0.49999998660252726 0 0.86602541151947299 1 I I #
face $-1 $-1 $155 $21 $-1 $314 reversed single #
loop $-1 $-1 $234 $140 #
plane-surface $-1 0 30.696364080738306 0 0 -1 0 0 0 -1 forward_v I I I I #
coedge $-1 $315 $232 $235 $316 forward $141 $-1 #
coedge $-1 $238 $143 $144 $226 reversed $88 $-1 #
coedge $-1 $232 $315 $143 $224 reversed $141 $-1 #
edge $-1 $239 -15.110139311009871 $317 15.110139311009871 $223 $318 forward 7 unknown #
coedge $-1 $145 $144 $315 $319 forward $57 $-1 #
edge $-1 $230 -68.427381206701867 $317 68.427381206701867 $222 $320 forward 7 unknown #
coedge $-1 $235 $234 $145 $228 reversed $219 $-1 #
edge $-1 $321 -68.427381206701867 $229 68.427381206701867 $227 $322 forward 7 unknown #
vertex $-1 $147 $323 #
vertex $-1 $241 $324 #
straight-curve $-1 68.427381206701867 0 -15.110139311009871 0 -1 0 I I #
coedge $-1 $221 $223 $148 $233 reversed $141 $-1 #
edge $-1 $236 -30.696364080738306 $239 30.696364080738306 $232 $325 forward 7 unknown #
coedge $-1 $227 $149 $154 $242 forward $219 $-1 #
coedge $-1 $149 $227 $221 $316 reversed $219 $-1 #
vertex $-1 $150 $326 #
straight-curve $-1 0 30.696364080738306 15.110139311009871 -1 0 0 I I #
coedge $-1 $151 $222 $153 $241 reversed $88 $-1 #
vertex $-1 $233 $327 #
straight-curve $-1 0 -30.696364080738306 15.110139311009871 1 0 0 I I #
edge $-1 $156 -15.110139311009871 $230 15.110139311009871 $153 $328 forward 7 unknown #
edge $-1 $157 -15.110139311009871 $229 15.110139311009871 $154 $329 forward 7 unknown #
point $-1 68.427381206701867 -30.696364080738306 15.110139311009871 #
point $-1 68.427381206701867 30.696364080738306 15.110139311009871 #
face $-1 $-1 $259 $22 $-1 $330 reversed single #
loop $-1 $-1 $331 $159 #
plane-surface $-1 0 -42.001507740729295 13.028880979384123 0 1 0 0 0 1 forward_v I I I I #
coedge $-1 $332 $162 $171 $263 reversed $96 $-1 #
coedge $-1 $162 $332 $163 $251 reversed $96 $-1 #
coedge $-1 $164 $163 $333 $334 forward $61 $-1 #
edge $-1 $255 30.696364080738306 $335 42.001507740729295 $249 $336 forward 7 unknown #
coedge $-1 $337 $168 $164 $253 reversed $259 $-1 #
edge $-1 $338 -42.001507740729295 $254 -30.696364080738306 $252 $339 forward 7 unknown #
vertex $-1 $169 $340 #
vertex $-1 $251 $341 #
straight-curve $-1 0 -30.696364080738306 15.110139311009871 -1 0 0 I I #
straight-curve $-1 -68.427381206701867 -30.696364080738306 0 0 0 -1 I I #
coedge $-1 $168 $337 $170 $262 reversed $259 $-1 #
loop $-1 $-1 $168 $245 #
straight-curve $-1 68.427381206701867 -30.696364080738306 0 0 0 1 I I #
coedge $-1 $171 $170 $342 $343 forward $160 $-1 #
edge $-1 $172 -5.6525718299954946 $344 5.6525718299954946 $258 $345 forward 7 unknown #
edge $-1 $346 -5.6525718299954946 $173 5.6525718299954946 $248 $347 forward 7 unknown #
point $-1 68.427381206701867 -30.696364080738306 10.947622647758376 #
point $-1 -68.427381206701867 -30.696364080738306 10.947622647758376 #
plane-surface $-1 0 0 15.110139311009871 0 0 1 1 0 0 forward_v I I I I #
coedge $-1 $277 $276 $269 $348 forward $176 $-1 #
coedge $-1 $269 $178 $180 $273 reversed $104 $-1 #
coedge $-1 $178 $268 $267 $348 reversed $104 $-1 #
coedge $-1 $186 $181 $178 $271 forward $187 $-1 #
edge $-1 $274 33.872788565718068 $349 40.964088458278127 $270 $350 forward 7 unknown #
coedge $-1 $180 $179 $277 $351 reversed $65 $-1 #
edge $-1 $352 -136.85476241340376 $274 -127.4586978296843 $268 $353 forward 7 unknown #
vertex $-1 $182 $354 #
straight-curve $-1 61.336081314141794 7.3051858102483678 15.110139311009881 0 -1 0 I I #
coedge $-1 $267 $183 $186 $281 reversed $176 $-1 #
coedge $-1 $183 $267 $272 $351 forward $176 $-1 #
vertex $-1 $184 $355 #
straight-curve $-1 68.427381206701867 17.769316927580302 101.00808460290516 0 0 1 I I #
straight-curve $-1 -34.858218136670914 17.769316927580302 98.730569862437534 0.75470957328743171 0 -0.6560590369687036 I I #
edge $-1 $349 11.451426313413169 $188 17.769316927580302 $276 $356 forward 7 unknown #
point $-1 68.427381206701867 17.769316927580302 15.110139311009871 #
point $-1 61.336081314141808 17.769316927580302 15.110139311009874 #
edge $-1 $357 1 $357 0 $191 $-1 forward 7 unknown #
vertex $-1 $192 $358 #
ellipse-curve $-1 62.773821002782576 14.610371620496736 9.6030794560907946 0.6560590369687036 0 0.75470957328743171 0.75470957328743171 0 -0.6560590369687036 1 I I #
point $-1 65.636440833709258 14.610371620496736 11.371893732995831 #
loop $-1 $-1 $203 $195 #
plane-surface $-1 -68.427381206701867 0 0 1 0 0 0 0 -1 forward_v I I I I #
coedge $-1 $291 $198 $200 $295 reversed $119 $-1 #
coedge $-1 $198 $290 $359 $360 reversed $119 $-1 #
coedge $-1 $206 $201 $198 $293 forward $196 $-1 #
edge $-1 $296 -29.689981881406283 $361 -25.046160365382903 $292 $362 forward 7 unknown #
coedge $-1 $200 $199 $299 $363 reversed $74 $-1 #
edge $-1 $364 0 $296 9.2876432809086555 $290 $365 forward 7 unknown #
vertex $-1 $202 $366 #
straight-curve $-1 -63.78355969067848 -0.2666556851268993 15.110139311009869 0 1 0 I I #
coedge $-1 $359 $203 $206 $303 reversed $288 $-1 #
coedge $-1 $203 $359 $294 $363 forward $288 $-1 #
vertex $-1 $204 $367 #
straight-curve $-1 -68.427381206701867 -7.2243133973121729 37.747091794904399 0 0 1 I I #
straight-curve $-1 -68.427381206701867 -7.2243133973121729 7.0668042166148837 -0.49999998660252726 0 -0.86602541151947299 I I #
edge $-1 $361 -6.1576906568045757 $207 7.2243133973121729 $298 $368 forward 7 unknown #
point $-1 -68.427381206701867 -7.2243133973121729 15.110139311009871 #
point $-1 -63.783559690678487 -7.2243133973121729 15.110139311009871 #
edge $-1 $369 1 $369 0 $210 $-1 forward 7 unknown #
vertex $-1 $211 $370 #
ellipse-curve $-1 -62.762760895727581 -3.400883667564532 9.1585575725359494 -0.86602541151947299 0 0.49999998660252726 0.49999998660252726 0 0.86602541151947299 1 I I #
point $-1 -65.605470462087652 -3.400883667564532 11.954497175331847 #
edge $-1 $371 1 $371 0 $214 $-1 forward 7 unknown #
vertex $-1 $215 $372 #
ellipse-curve $-1 -62.762760895727581 2.3342609270569312 9.1585575725359494 -0.86602541151947299 0 0.49999998660252726 0.49999998660252726 0 0.86602541151947299 1 I I #
point $-1 -65.605470462087652 2.3342609270569312 11.954497175331847 #
plane-surface $-1 68.427381206701867 0 0 -1 0 0 0 0 1 forward_v I I I I #
coedge $-1 $223 $221 $225 $319 reversed $141 $-1 #
edge $-1 $236 -15.110139311009871 $321 15.110139311009871 $235 $373 forward 7 unknown #
vertex $-1 $319 $374 #
straight-curve $-1 -68.427381206701867 -30.696364080738306 0 0 0 -1 I I #
edge $-1 $317 -30.696364080738306 $321 30.696364080738306 $315 $375 forward 7 unknown #
straight-curve $-1 0 -30.696364080738306 -15.110139311009871 -1 0 0 I I #
vertex $-1 $228 $376 #
straight-curve $-1 0 30.696364080738306 -15.110139311009871 1 0 0 I I #
point $-1 68.427381206701867 30.696364080738306 -15.110139311009871 #
point $-1 68.427381206701867 -30.696364080738306 -15.110139311009871 #
straight-curve $-1 -68.427381206701867 0 15.110139311009871 0 -1 0 I I #
point $-1 -68.427381206701867 30.696364080738306 15.110139311009871 #
point $-1 -68.427381206701867 -30.696364080738306 15.110139311009871 #
straight-curve $-1 68.427381206701867 -30.696364080738306 0 0 0 -1 I I #
straight-curve $-1 68.427381206701867 30.696364080738306 0 0 0 -1 I I #
plane-surface $-1 68.427381206701867 0 0 -1 0 0 0 0 1 forward_v I I I I #
coedge $-1 $342 $333 $332 $377 forward $246 $-1 #
coedge $-1 $249 $248 $331 $377 reversed $96 $-1 #
coedge $-1 $331 $378 $250 $334 reversed $246 $-1 #
edge $-1 $335 -68.427381206701867 $338 68.427381206701867 $333 $379 forward 7 unknown #
vertex $-1 $251 $380 #
straight-curve $-1 -68.427381206701867 0 15.110139311009871 0 -1 0 I I #
coedge $-1 $258 $252 $378 $381 forward $259 $-1 #
vertex $-1 $253 $382 #
straight-curve $-1 68.427381206701867 0 15.110139311009871 0 1 0 I I #
point $-1 68.427381206701867 -30.696364080738306 15.110139311009871 #
point $-1 -68.427381206701867 -30.696364080738306 15.110139311009871 #
coedge $-1 $378 $331 $261 $343 reversed $246 $-1 #
edge $-1 $344 -68.427381206701867 $346 68.427381206701867 $342 $383 forward 7 unknown #
vertex $-1 $381 $384 #
straight-curve $-1 68.427381206701867 -36.3489359107338 10.947622647758376 0 -1 0 I I #
vertex $-1 $263 $385 #
straight-curve $-1 -68.427381206701867 -36.3489359107338 10.947622647758376 0 1 0 I I #
edge $-1 $349 85.897945291895283 $352 92.062318373986017 $267 $386 forward 7 unknown #
vertex $-1 $281 $387 #
straight-curve $-1 27.46329274842374 11.451426313413169 15.110139311009874 1 0 0 I I #
edge $-1 $352 4.1462405031648011 $278 10.464131117331934 $277 $388 forward 7 unknown #
vertex $-1 $351 $389 #
straight-curve $-1 -34.858218136670914 11.451426313413169 98.730569862437534 -0.75470957328743171 0 0.6560590369687036 I I #
point $-1 61.336081314141808 11.451426313413169 15.110139311009874 #
point $-1 68.427381206701867 17.769316927580302 8.9457662289191404 #
straight-curve $-1 68.427381206701867 0 15.110139311009871 0 1 0 I I #
vertex $-1 $284 $390 #
point $-1 63.528530576070011 14.610371620496736 8.9470204191220901 #
coedge $-1 $299 $298 $291 $360 forward $288 $-1 #
edge $-1 $361 22.636952483894529 $364 30.680287578289516 $359 $391 forward 7 unknown #
vertex $-1 $303 $392 #
straight-curve $-1 -93.47354157208477 6.1576906568045757 15.110139311009871 -1 0 0 I I #
edge $-1 $364 -6.424346341931475 $300 6.9576577121852736 $299 $393 forward 7 unknown #
vertex $-1 $363 $394 #
straight-curve $-1 -68.427381206701867 6.1576906568045757 7.0668042166148837 0.49999998660252726 0 0.86602541151947299 I I #
point $-1 -63.783559690678487 6.1576906568045757 15.110139311009871 #
point $-1 -68.427381206701867 -7.2243133973121729 7.0668042166148837 #
straight-curve $-1 -68.427381206701867 0 15.110139311009871 0 -1 0 I I #
vertex $-1 $306 $395 #
point $-1 -62.262760909125056 -3.400883667564532 10.024582984055421 #
vertex $-1 $310 $396 #
point $-1 -62.262760909125056 2.3342609270569312 10.024582984055421 #
straight-curve $-1 -68.427381206701867 30.696364080738306 0 0 0 -1 I I #
point $-1 -68.427381206701867 -30.696364080738306 -15.110139311009871 #
straight-curve $-1 -68.427381206701867 0 -15.110139311009871 0 1 0 I I #
point $-1 -68.427381206701867 30.696364080738306 -15.110139311009871 #
edge $-1 $335 -2.0812583316257474 $346 2.0812583316257474 $332 $397 forward 7 unknown #
coedge $-1 $333 $342 $337 $381 reversed $246 $-1 #
straight-curve $-1 0 -42.001507740729295 15.110139311009871 1 0 0 I I #
point $-1 -68.427381206701867 -42.001507740729295 15.110139311009871 #
edge $-1 $338 -2.0812583316257474 $344 2.0812583316257474 $337 $398 forward 7 unknown #
point $-1 68.427381206701867 -42.001507740729295 15.110139311009871 #
straight-curve $-1 0 -42.001507740729295 10.947622647758376 -1 0 0 I I #
point $-1 68.427381206701867 -42.001507740729295 10.947622647758376 #
point $-1 -68.427381206701867 -42.001507740729295 10.947622647758376 #
straight-curve $-1 68.427381206701867 11.451426313413169 101.00808460290516 0 0 -1 I I #
point $-1 68.427381206701867 11.451426313413169 15.110139311009871 #
straight-curve $-1 68.427381206701867 7.3051858102483678 8.9457662289191475 0 1 0 I I #
point $-1 68.427381206701867 11.451426313413169 8.9457662289191404 #
point $-1 62.117761965813877 14.610371620496736 8.8483698828033628 #
straight-curve $-1 -68.427381206701867 6.1576906568045757 37.747091794904399 0 0 -1 I I #
point $-1 -68.427381206701867 6.1576906568045757 15.110139311009871 #
straight-curve $-1 -68.427381206701867 -0.2666556851268993 7.0668042166148854 0 -1 0 I I #
point $-1 -68.427381206701867 6.1576906568045757 7.0668042166148837 #
point $-1 -61.896735484208108 -3.400883667564532 8.658557585933421 #
point $-1 -61.896735484208108 2.3342609270569312 8.658557585933421 #
straight-curve $-1 -68.427381206701867 -42.001507740729295 13.028880979384123 0 0 -1 I I #
straight-curve $-1 68.427381206701867 -42.001507740729295 13.028880979384123 0 0 -1 I I #
End-of-ACIS-data 