500 0 7 0           
7 Unknown 11 ACIS 5.0 NT 24 Thu Mar 25 23:39:00 1999 
-1 9.9999999999999995e-007 1e-010 
body $-1 $7 $-1 $8 #
body $-1 $9 $-1 $10 #
body $-1 $11 $-1 $12 #
body $-1 $13 $-1 $14 #
body $-1 $15 $-1 $16 #
body $-1 $17 $-1 $18 #
body $-1 $19 $-1 $20 #
lump $-1 $-1 $21 $0 #
transform $-1 1 0 0 0 1 0 0 0 1 40.008545182653279 22.723564286516527 11.22447125948098 1 rotate no_reflect no_shear #
lump $-1 $-1 $22 $1 #
transform $-1 1 0 0 0 1 0 0 0 1 40.008545182653279 22.723564286516527 11.22447125948098 1 rotate no_reflect no_shear #
lump $-1 $-1 $23 $2 #
transform $-1 1 0 0 0 1 0 0 0 1 40.008545182653279 22.723564286516527 11.22447125948098 1 rotate no_reflect no_shear #
lump $-1 $-1 $24 $3 #
transform $-1 1 0 0 0 1 0 0 0 1 40.008545182653279 22.723564286516527 11.22447125948098 1 rotate no_reflect no_shear #
lump $-1 $-1 $25 $4 #
transform $-1 1 0 0 0 1 0 0 0 1 40.008545182653279 22.723564286516527 11.22447125948098 1 rotate no_reflect no_shear #
lump $-1 $-1 $26 $5 #
transform $-1 1 0 0 0 1 0 0 0 1 40.008545182653279 22.723564286516527 11.22447125948098 1 rotate no_reflect no_shear #
lump $-1 $-1 $27 $6 #
transform $-1 1 0 0 0 1 0 0 0 1 40.008545182653279 22.723564286516527 11.22447125948098 1 rotate no_reflect no_shear #
shell $-1 $-1 $-1 $28 $-1 $7 #
shell $-1 $-1 $-1 $29 $-1 $9 #
shell $-1 $-1 $-1 $30 $-1 $11 #
shell $-1 $-1 $-1 $31 $-1 $13 #
shell $-1 $-1 $-1 $32 $-1 $15 #
shell $-1 $-1 $-1 $33 $-1 $17 #
shell $-1 $-1 $-1 $34 $-1 $19 #
face $-1 $35 $36 $21 $-1 $37 forward single #
face $-1 $38 $39 $22 $-1 $40 forward single #
face $-1 $41 $42 $23 $-1 $43 reversed single #
face $-1 $44 $45 $24 $-1 $46 forward single #
face $-1 $47 $48 $25 $-1 $49 reversed single #
face $-1 $50 $51 $26 $-1 $52 forward single #
face $-1 $53 $54 $27 $-1 $55 forward single #
face $-1 $56 $57 $21 $-1 $58 reversed single #
loop $-1 $-1 $59 $28 #
plane-surface $-1 0 0 11.22447125948098 0 0 1 1 0 0 forward_v I I I I #
face $-1 $60 $61 $22 $-1 $62 reversed single #
loop $-1 $-1 $63 $29 #
plane-surface $-1 0 -22.723564286516527 0 0 1 0 0 0 1 forward_v I I I I #
face $-1 $64 $65 $23 $-1 $66 reversed single #
loop $-1 $-1 $67 $30 #
plane-surface $-1 -96.589173047257944 2.0836813008409028 58.210862485064027 0 1 0 -0.70710678939079041 0 0.70710677298230451 forward_v I I I I #
face $-1 $68 $69 $24 $-1 $70 forward single #
loop $-1 $71 $72 $31 #
cone-surface $-1 -33.800343129719764 6.272193096610156 5.0162691279742191 0.70710678939079041 0 -0.70710677298230451 1.414213545964609 0 1.4142135787815808 1 I I 0 1 2 forward I I I I #
face $-1 $73 $74 $25 $-1 $75 reversed single #
loop $-1 $-1 $76 $32 #
plane-surface $-1 14.552802600573777 7.9007926760680256 116.45934953421566 0 -1 0 -0.52991927123019833 0 -0.84804809178421925 forward_v I I I I #
face $-1 $77 $78 $26 $-1 $79 forward single #
loop $-1 $80 $81 $33 #
cone-surface $-1 35.620342105015048 2.2663372927767824 8.1248960799597878 -0.52991927123019833 0 -0.84804809178421925 0.42402404589210962 0 -0.26495963561509916 1 I I 0 1 0.5 forward I I I I #
face $-1 $82 $83 $27 $-1 $84 forward single #
loop $-1 $85 $86 $34 #
cone-surface $-1 35.620342105015048 5.647010522751529 8.1248960799597878 -0.52991927123019833 0 -0.84804809178421925 0.42402404589210962 0 -0.26495963561509916 1 I I 0 1 0.5 forward I I I I #
face $-1 $87 $88 $21 $-1 $89 reversed single #
loop $-1 $-1 $90 $35 #
plane-surface $-1 0 0 -11.22447125948098 0 0 1 1 0 0 forward_v I I I I #
coedge $-1 $91 $92 $93 $94 forward $36 $-1 #
face $-1 $95 $96 $22 $-1 $97 reversed single #
loop $-1 $-1 $98 $38 #
plane-surface $-1 0 0 -11.22447125948098 0 0 1 1 0 0 forward_v I I I I #
coedge $-1 $99 $100 $101 $102 forward $39 $-1 #
face $-1 $103 $104 $23 $-1 $105 reversed single #
loop $-1 $-1 $106 $41 #
plane-surface $-1 -40.008545182653272 6.2721930966101525 1.6302359334186605 -0.70710678939079041 0 0.70710677298230451 0.70710677298230451 0 0.70710678939079041 forward_v I I I I #
coedge $-1 $107 $108 $109 $110 reversed $42 $-1 #
face $-1 $-1 $111 $24 $-1 $112 forward single #
loop $-1 $113 $114 $44 #
cone-surface $-1 -31.682151839109014 6.272193096610156 2.898077886516317 0.70710678939079041 0 -0.70710677298230451 0.70710677298230451 0 0.70710678939079041 1 I I -0.70710678118654746 0.70710678118654746 1 forward I I I I #
loop $-1 $-1 $115 $31 #
coedge $-1 $72 $72 $116 $117 reversed $45 $-1 #
face $-1 $118 $119 $25 $-1 $120 reversed single #
loop $-1 $-1 $121 $47 #
plane-surface $-1 -27.849795611770396 3.9566739077641557 48.601008739791993 0.52991927123019833 0 0.84804809178421925 0.84804809178421925 0 -0.52991927123019833 forward_v I I I I #
coedge $-1 $122 $123 $124 $125 reversed $48 $-1 #
face $-1 $-1 $126 $26 $-1 $127 forward single #
loop $-1 $128 $129 $50 #
cone-surface $-1 35.12134840299808 2.2663372927767824 7.3263392435091159 -0.52991927123019833 0 -0.84804809178421925 0.21201202294605481 0 -0.13247981780754958 1 I I -0.70710678118654746 0.70710678118654746 0.25 forward I I I I #
loop $-1 $-1 $130 $33 #
coedge $-1 $81 $81 $131 $132 reversed $51 $-1 #
face $-1 $-1 $133 $27 $-1 $134 forward single #
loop $-1 $135 $136 $53 #
cone-surface $-1 35.12134840299808 5.647010522751529 7.3263392435091159 -0.52991927123019833 0 -0.84804809178421925 0.21201202294605481 0 -0.13247981780754958 1 I I -0.70710678118654746 0.70710678118654746 0.25 forward I I I I #
loop $-1 $-1 $137 $34 #
coedge $-1 $86 $86 $138 $139 reversed $54 $-1 #
face $-1 $140 $141 $21 $-1 $142 reversed single #
loop $-1 $-1 $143 $56 #
plane-surface $-1 0 -22.723564286516527 0 0 1 0 0 0 1 forward_v I I I I #
coedge $-1 $144 $145 $146 $147 forward $57 $-1 #
coedge $-1 $148 $59 $149 $150 forward $36 $-1 #
coedge $-1 $59 $148 $151 $152 forward $36 $-1 #
coedge $-1 $153 $154 $59 $94 reversed $155 $-1 #
edge $-1 $156 -22.723564286516527 $157 22.723564286516527 $93 $158 forward 7 unknown #
face $-1 $159 $160 $22 $-1 $161 reversed single #
loop $-1 $-1 $162 $60 #
plane-surface $-1 -31.963005570742716 -30.729712066871421 0 0 1 0 0 0 1 forward_v I I I I #
coedge $-1 $163 $164 $100 $165 forward $61 $-1 #
coedge $-1 $166 $63 $167 $168 reversed $39 $-1 #
coedge $-1 $63 $166 $98 $165 reversed $39 $-1 #
coedge $-1 $169 $170 $63 $102 reversed $160 $-1 #
edge $-1 $171 -11.22447125948098 $172 11.22447125948098 $101 $173 forward 7 unknown #
face $-1 $174 $175 $23 $-1 $176 reversed single #
loop $-1 $-1 $177 $64 #
plane-surface $-1 -96.589173047257944 10.460704892379402 58.210862485064027 0 -1 0 0.70710678939079041 0 -0.70710677298230451 forward_v I I I I #
coedge $-1 $178 $179 $180 $181 reversed $65 $-1 #
coedge $-1 $108 $67 $182 $183 reversed $42 $-1 #
coedge $-1 $67 $107 $178 $184 reversed $42 $-1 #
coedge $-1 $180 $185 $67 $110 forward $186 $-1 #
edge $-1 $187 8.286041340975693 $188 17.880276444402803 $109 $189 forward 7 unknown #
loop $-1 $-1 $116 $68 #
plane-surface $-1 -40.008545182653272 6.2721930966101525 1.6302359334186605 -0.70710678939079041 0 0.70710677298230451 0.70710677298230451 0 0.70710678939079041 forward_v I I I I #
loop $-1 $-1 $190 $44 #
coedge $-1 $114 $114 $115 $191 reversed $69 $-1 #
coedge $-1 $115 $115 $114 $191 forward $71 $-1 #
coedge $-1 $116 $116 $72 $117 forward $111 $-1 #
edge $-1 $192 0 $192 6.2831853071796004 $116 $193 forward 7 unknown #
face $-1 $194 $195 $25 $-1 $196 forward single #
loop $-1 $-1 $197 $73 #
plane-surface $-1 14.552802600573777 0.012555139460285858 116.45934953421566 0 1 0 0.52991927123019833 0 0.84804809178421925 forward_v I I I I #
coedge $-1 $198 $199 $200 $201 reversed $74 $-1 #
coedge $-1 $123 $76 $202 $203 reversed $48 $-1 #
coedge $-1 $76 $122 $198 $204 reversed $48 $-1 #
coedge $-1 $200 $205 $76 $125 forward $195 $-1 #
edge $-1 $206 -32.732143882366387 $207 -24.688765495508751 $124 $208 forward 7 unknown #
loop $-1 $-1 $131 $77 #
plane-surface $-1 -27.849795611770396 3.9566739077641557 48.601008739791993 0.52991927123019833 0 0.84804809178421925 0.84804809178421925 0 -0.52991927123019833 forward_v I I I I #
loop $-1 $-1 $209 $50 #
coedge $-1 $129 $129 $130 $210 reversed $78 $-1 #
coedge $-1 $130 $130 $129 $210 forward $80 $-1 #
coedge $-1 $131 $131 $81 $132 forward $126 $-1 #
edge $-1 $211 0 $211 6.2831853071796004 $131 $212 forward 7 unknown #
loop $-1 $-1 $138 $82 #
plane-surface $-1 -27.849795611770396 3.9566739077641557 48.601008739791993 0.52991927123019833 0 0.84804809178421925 0.84804809178421925 0 -0.52991927123019833 forward_v I I I I #
loop $-1 $-1 $213 $53 #
coedge $-1 $136 $136 $137 $214 reversed $83 $-1 #
coedge $-1 $137 $137 $136 $214 forward $85 $-1 #
coedge $-1 $138 $138 $86 $139 forward $133 $-1 #
edge $-1 $215 0 $215 6.2831853071796004 $138 $216 forward 7 unknown #
face $-1 $217 $218 $21 $-1 $219 reversed single #
loop $-1 $-1 $220 $87 #
plane-surface $-1 -40.008545182653279 0 0 1 0 0 0 0 -1 forward_v I I I I #
coedge $-1 $221 $151 $222 $223 forward $88 $-1 #
coedge $-1 $224 $90 $221 $225 forward $57 $-1 #
coedge $-1 $90 $224 $226 $227 forward $57 $-1 #
coedge $-1 $154 $153 $90 $147 reversed $155 $-1 #
edge $-1 $228 -22.723564286516527 $229 22.723564286516527 $146 $230 forward 7 unknown #
coedge $-1 $92 $91 $231 $232 forward $36 $-1 #
coedge $-1 $233 $234 $91 $150 reversed $218 $-1 #
edge $-1 $157 -40.008545182653279 $235 40.008545182653279 $149 $236 forward 7 unknown #
coedge $-1 $143 $237 $92 $152 reversed $88 $-1 #
edge $-1 $238 -40.008545182653279 $156 40.008545182653279 $151 $239 forward 7 unknown #
coedge $-1 $146 $93 $237 $240 forward $155 $-1 #
coedge $-1 $93 $146 $233 $241 reversed $155 $-1 #
loop $-1 $-1 $153 $217 #
vertex $-1 $94 $242 #
vertex $-1 $94 $243 #
straight-curve $-1 40.008545182653279 0 11.22447125948098 0 1 0 I I #
face $-1 $244 $245 $22 $-1 $246 reversed single #
loop $-1 $-1 $101 $95 #
plane-surface $-1 -34.002744152687342 -26.726638176693974 0 1 0 0 0 0 -1 forward_v I I I I #
coedge $-1 $247 $248 $249 $250 forward $96 $-1 #
coedge $-1 $251 $98 $252 $253 forward $61 $-1 #
coedge $-1 $98 $251 $169 $254 forward $61 $-1 #
edge $-1 $171 -34.002744152687342 $255 -29.92326698879809 $98 $256 forward 7 unknown #
coedge $-1 $100 $99 $257 $258 forward $39 $-1 #
coedge $-1 $259 $260 $99 $168 forward $261 $-1 #
edge $-1 $262 29.92326698879809 $172 34.002744152687342 $167 $263 forward 7 unknown #
coedge $-1 $249 $101 $164 $254 reversed $160 $-1 #
coedge $-1 $101 $249 $259 $264 reversed $160 $-1 #
vertex $-1 $165 $265 #
vertex $-1 $264 $266 #
straight-curve $-1 -34.002744152687342 -22.723564286516527 0 0 0 1 I I #
face $-1 $-1 $186 $23 $-1 $267 forward single #
loop $-1 $-1 $268 $103 #
plane-surface $-1 -40.008545182653279 0 0 1 0 0 0 0 -1 forward_v I I I I #
coedge $-1 $269 $270 $271 $272 reversed $104 $-1 #
coedge $-1 $273 $106 $108 $184 forward $65 $-1 #
coedge $-1 $106 $273 $269 $274 forward $65 $-1 #
coedge $-1 $271 $109 $106 $181 forward $186 $-1 #
edge $-1 $188 -1.0524152474641735 $275 7.3246083440743259 $180 $276 forward 7 unknown #
coedge $-1 $277 $278 $107 $183 forward $175 $-1 #
edge $-1 $279 -27.47519530911336 $187 -17.880959983051035 $182 $280 forward 7 unknown #
edge $-1 $188 -13.568297561289519 $279 1.0048591735576163e-014 $108 $281 forward 7 unknown #
coedge $-1 $109 $271 $277 $282 forward $186 $-1 #
loop $-1 $-1 $271 $174 #
vertex $-1 $183 $283 #
vertex $-1 $110 $284 #
straight-curve $-1 -48.294586523628972 2.0836813008409028 11.224471259480978 1 0 0 I I #
coedge $-1 $190 $190 $-1 $285 reversed $113 $-1 #
edge $-1 $286 0 $286 6.2831853071796004 $114 $287 forward 7 unknown #
vertex $-1 $117 $288 #
ellipse-curve $-1 -35.211427630939724 6.272193096610156 6.4273535964498176 -0.70710678939079041 0 0.70710677298230451 1.414213545964609 0 1.4142135787815808 1 I I #
face $-1 $-1 $289 $25 $-1 $290 reversed single #
loop $-1 $-1 $124 $118 #
plane-surface $-1 0 0 11.22447125948098 0 0 1 1 0 0 forward_v I I I I #
coedge $-1 $291 $292 $293 $294 reversed $119 $-1 #
coedge $-1 $295 $121 $123 $204 forward $74 $-1 #
coedge $-1 $121 $295 $291 $296 forward $74 $-1 #
coedge $-1 $293 $124 $121 $201 forward $195 $-1 #
edge $-1 $207 -5.9224557221859477 $297 1.965781814421792 $200 $298 forward 7 unknown #
coedge $-1 $299 $300 $122 $203 forward $289 $-1 #
edge $-1 $301 -52.031264239660018 $206 -47.005203507626852 $202 $302 forward 7 unknown #
edge $-1 $207 70.532512232555789 $301 80.017090365306572 $123 $303 forward 7 unknown #
coedge $-1 $124 $293 $299 $304 forward $195 $-1 #
vertex $-1 $125 $305 #
vertex $-1 $125 $306 #
straight-curve $-1 7.2764013002868886 7.9007926760680256 11.224471259480978 -1 0 0 I I #
coedge $-1 $209 $209 $-1 $307 reversed $128 $-1 #
edge $-1 $308 0 $308 6.2831853071796004 $129 $309 forward 7 unknown #
vertex $-1 $132 $310 #
ellipse-curve $-1 35.986855989224459 2.2663372927767824 8.7114408934643937 0.52991927123019833 0 0.84804809178421925 0.42402404589210962 0 -0.26495963561509916 1 I I #
coedge $-1 $213 $213 $-1 $311 reversed $135 $-1 #
edge $-1 $312 0 $312 6.2831853071796004 $136 $313 forward 7 unknown #
vertex $-1 $139 $314 #
ellipse-curve $-1 35.986855989224459 5.647010522751529 8.7114408934643937 0.52991927123019833 0 0.84804809178421925 0.42402404589210962 0 -0.26495963561509916 1 I I #
face $-1 $-1 $155 $21 $-1 $315 reversed single #
loop $-1 $-1 $233 $140 #
plane-surface $-1 0 22.723564286516527 0 0 -1 0 0 0 -1 forward_v I I I I #
coedge $-1 $316 $231 $234 $317 forward $141 $-1 #
coedge $-1 $237 $143 $144 $225 reversed $88 $-1 #
coedge $-1 $231 $316 $143 $223 reversed $141 $-1 #
edge $-1 $238 -11.22447125948098 $318 11.22447125948098 $222 $319 forward 7 unknown #
coedge $-1 $145 $144 $316 $320 forward $57 $-1 #
edge $-1 $229 -40.008545182653279 $318 40.008545182653279 $221 $321 forward 7 unknown #
coedge $-1 $234 $233 $145 $227 reversed $218 $-1 #
edge $-1 $322 -40.008545182653279 $228 40.008545182653279 $226 $323 forward 7 unknown #
vertex $-1 $147 $324 #
vertex $-1 $240 $325 #
straight-curve $-1 40.008545182653279 0 -11.22447125948098 0 -1 0 I I #
coedge $-1 $220 $222 $148 $232 reversed $141 $-1 #
edge $-1 $235 -22.723564286516527 $238 22.723564286516527 $231 $326 forward 7 unknown #
coedge $-1 $226 $149 $154 $241 forward $218 $-1 #
coedge $-1 $149 $226 $220 $317 reversed $218 $-1 #
vertex $-1 $150 $327 #
straight-curve $-1 0 22.723564286516527 11.22447125948098 -1 0 0 I I #
coedge $-1 $151 $221 $153 $240 reversed $88 $-1 #
vertex $-1 $232 $328 #
straight-curve $-1 0 -22.723564286516527 11.22447125948098 1 0 0 I I #
edge $-1 $156 -11.22447125948098 $229 11.22447125948098 $153 $329 forward 7 unknown #
edge $-1 $157 -11.22447125948098 $228 11.22447125948098 $154 $330 forward 7 unknown #
point $-1 40.008545182653279 -22.723564286516527 11.22447125948098 #
point $-1 40.008545182653279 22.723564286516527 11.22447125948098 #
face $-1 $-1 $261 $22 $-1 $331 forward single #
loop $-1 $-1 $332 $159 #
plane-surface $-1 -29.92326698879809 -26.726638176693974 0 -1 0 0 0 0 1 forward_v I I I I #
coedge $-1 $333 $162 $251 $334 reversed $96 $-1 #
coedge $-1 $162 $333 $335 $336 reversed $96 $-1 #
coedge $-1 $170 $169 $162 $250 reversed $160 $-1 #
edge $-1 $337 -11.22447125948098 $338 11.22447125948098 $249 $339 forward 7 unknown #
coedge $-1 $164 $163 $247 $334 forward $61 $-1 #
coedge $-1 $257 $332 $163 $253 reversed $245 $-1 #
edge $-1 $255 -4.003073890177447 $340 4.003073890177447 $252 $341 forward 7 unknown #
edge $-1 $338 -4.003073890177447 $171 4.003073890177447 $169 $342 forward 7 unknown #
vertex $-1 $253 $343 #
straight-curve $-1 0 -22.723564286516527 -11.22447125948098 1 0 0 I I #
coedge $-1 $344 $252 $166 $258 reversed $245 $-1 #
edge $-1 $262 -11.22447125948098 $255 11.22447125948098 $257 $345 forward 7 unknown #
coedge $-1 $335 $167 $170 $264 forward $261 $-1 #
coedge $-1 $167 $335 $344 $346 forward $261 $-1 #
loop $-1 $-1 $167 $244 #
vertex $-1 $168 $347 #
straight-curve $-1 0 -22.723564286516527 11.22447125948098 -1 0 0 I I #
edge $-1 $172 -4.003073890177447 $337 4.003073890177447 $170 $348 forward 7 unknown #
point $-1 -34.002744152687342 -22.723564286516527 -11.22447125948098 #
point $-1 -34.002744152687342 -22.723564286516527 11.22447125948098 #
plane-surface $-1 0 0 11.22447125948098 0 0 1 1 0 0 forward_v I I I I #
coedge $-1 $278 $277 $270 $349 forward $175 $-1 #
coedge $-1 $270 $177 $179 $274 reversed $104 $-1 #
coedge $-1 $177 $269 $268 $349 reversed $104 $-1 #
coedge $-1 $185 $180 $177 $272 forward $186 $-1 #
edge $-1 $275 -17.880276444402803 $350 -8.286041340975693 $271 $351 forward 7 unknown #
coedge $-1 $179 $178 $278 $352 reversed $65 $-1 #
edge $-1 $353 -1.0048591735576163e-014 $275 13.568297561289519 $269 $354 forward 7 unknown #
vertex $-1 $181 $355 #
straight-curve $-1 -30.414310079226169 3.1360965483050762 11.22447125948098 0 1 0 I I #
coedge $-1 $268 $182 $185 $282 reversed $175 $-1 #
coedge $-1 $182 $268 $273 $352 forward $175 $-1 #
vertex $-1 $183 $356 #
straight-curve $-1 -40.008545182653279 2.0836813008409028 29.105431242532013 0 0 1 I I #
straight-curve $-1 -40.008545182653272 2.0836813008409028 1.6302359334186605 -0.70710677298230451 0 -0.70710678939079041 I I #
edge $-1 $350 -10.460704892379402 $187 -2.0836813008409028 $277 $357 forward 7 unknown #
point $-1 -40.008545182653279 2.0836813008409028 11.22447125948098 #
point $-1 -30.414310079226169 2.0836813008409028 11.22447125948098 #
edge $-1 $358 1 $358 0 $190 $-1 forward 7 unknown #
vertex $-1 $191 $359 #
ellipse-curve $-1 -32.389258628499803 6.272193096610156 3.6051846594986214 -0.70710678939079041 0 0.70710677298230451 1.414213545964609 0 1.4142135787815808 1 I I #
point $-1 -33.79721408497511 6.272193096610156 7.8415671752313978 #
loop $-1 $-1 $202 $194 #
plane-surface $-1 40.008545182653279 0 0 -1 0 0 0 0 1 forward_v I I I I #
coedge $-1 $292 $197 $199 $296 reversed $119 $-1 #
coedge $-1 $197 $291 $360 $361 reversed $119 $-1 #
coedge $-1 $205 $200 $197 $294 forward $195 $-1 #
edge $-1 $297 24.688765495508751 $362 32.732143882366387 $293 $363 forward 7 unknown #
coedge $-1 $199 $198 $300 $364 reversed $74 $-1 #
edge $-1 $365 -80.017090365306572 $297 -70.532512232555789 $291 $366 forward 7 unknown #
vertex $-1 $201 $367 #
straight-curve $-1 31.965166795795657 1.9783369538820779 11.224471259480978 0 -1 0 I I #
coedge $-1 $360 $202 $205 $304 reversed $289 $-1 #
coedge $-1 $202 $360 $295 $364 forward $289 $-1 #
vertex $-1 $203 $368 #
straight-curve $-1 40.008545182653279 7.9007926760680256 58.229674767107831 0 0 1 I I #
straight-curve $-1 -27.849795611770396 7.9007926760680256 48.601008739791993 0.84804809178421925 0 -0.52991927123019833 I I #
edge $-1 $362 0.012555139460285858 $206 7.9007926760680256 $299 $369 forward 7 unknown #
point $-1 40.008545182653279 7.9007926760680256 11.22447125948098 #
point $-1 31.965166795795639 7.9007926760680256 11.224471259480978 #
edge $-1 $370 1 $370 0 $209 $-1 forward 7 unknown #
vertex $-1 $210 $371 #
ellipse-curve $-1 35.25382822080563 2.2663372927767824 7.5383512664551704 0.52991927123019833 0 0.84804809178421925 0.42402404589210962 0 -0.26495963561509916 1 I I #
point $-1 36.410880035116577 2.2663372927767824 8.4464812578493049 #
edge $-1 $372 1 $372 0 $213 $-1 forward 7 unknown #
vertex $-1 $214 $373 #
ellipse-curve $-1 35.25382822080563 5.647010522751529 7.5383512664551704 0.52991927123019833 0 0.84804809178421925 0.42402404589210962 0 -0.26495963561509916 1 I I #
point $-1 36.410880035116577 5.647010522751529 8.4464812578493049 #
plane-surface $-1 40.008545182653279 0 0 -1 0 0 0 0 1 forward_v I I I I #
coedge $-1 $222 $220 $224 $320 reversed $141 $-1 #
edge $-1 $235 -11.22447125948098 $322 11.22447125948098 $234 $374 forward 7 unknown #
vertex $-1 $320 $375 #
straight-curve $-1 -40.008545182653279 -22.723564286516527 0 0 0 -1 I I #
edge $-1 $318 -22.723564286516527 $322 22.723564286516527 $316 $376 forward 7 unknown #
straight-curve $-1 0 -22.723564286516527 -11.22447125948098 -1 0 0 I I #
vertex $-1 $227 $377 #
straight-curve $-1 0 22.723564286516527 -11.22447125948098 1 0 0 I I #
point $-1 40.008545182653279 22.723564286516527 -11.22447125948098 #
point $-1 40.008545182653279 -22.723564286516527 -11.22447125948098 #
straight-curve $-1 -40.008545182653279 0 11.22447125948098 0 -1 0 I I #
point $-1 -40.008545182653279 22.723564286516527 11.22447125948098 #
point $-1 -40.008545182653279 -22.723564286516527 11.22447125948098 #
straight-curve $-1 40.008545182653279 -22.723564286516527 0 0 0 -1 I I #
straight-curve $-1 40.008545182653279 22.723564286516527 0 0 0 -1 I I #
plane-surface $-1 0 0 11.22447125948098 0 0 1 1 0 0 forward_v I I I I #
coedge $-1 $252 $344 $333 $378 forward $245 $-1 #
coedge $-1 $248 $247 $332 $378 reversed $96 $-1 #
edge $-1 $340 -2.0397385819446257 $338 2.0397385819446257 $247 $379 forward 7 unknown #
coedge $-1 $260 $259 $248 $336 forward $261 $-1 #
edge $-1 $337 -2.0397385819446257 $380 2.0397385819446257 $248 $381 forward 7 unknown #
vertex $-1 $264 $382 #
vertex $-1 $254 $383 #
straight-curve $-1 -34.002744152687342 -30.729712066871421 0 0 0 -1 I I #
vertex $-1 $378 $384 #
straight-curve $-1 -29.92326698879809 -26.726638176693974 -11.22447125948098 0 -1 0 I I #
straight-curve $-1 -34.002744152687342 -26.726638176693974 -11.22447125948098 0 1 0 I I #
point $-1 -29.92326698879809 -22.723564286516527 -11.22447125948098 #
coedge $-1 $332 $257 $260 $346 reversed $245 $-1 #
straight-curve $-1 -29.92326698879809 -22.723564286516527 0 0 0 -1 I I #
edge $-1 $380 -4.003073890177447 $262 4.003073890177447 $344 $385 forward 7 unknown #
point $-1 -29.92326698879809 -22.723564286516527 11.22447125948098 #
straight-curve $-1 -34.002744152687342 -26.726638176693974 11.22447125948098 0 -1 0 I I #
edge $-1 $350 17.880959983051035 $353 27.47519530911336 $268 $386 forward 7 unknown #
vertex $-1 $282 $387 #
straight-curve $-1 -48.294586523628972 10.460704892379402 11.224471259480978 -1 0 0 I I #
edge $-1 $353 -7.3246083440743259 $279 1.0524152474641735 $278 $388 forward 7 unknown #
vertex $-1 $352 $389 #
straight-curve $-1 -40.008545182653272 10.460704892379402 1.6302359334186605 0.70710677298230451 0 0.70710678939079041 I I #
point $-1 -30.414310079226169 10.460704892379402 11.22447125948098 #
point $-1 -40.008545182653279 2.0836813008409028 1.6302359334186534 #
straight-curve $-1 -40.008545182653279 0 11.22447125948098 0 -1 0 I I #
vertex $-1 $285 $390 #
point $-1 -30.975045082535196 6.272193096610156 5.0193982382802025 #
coedge $-1 $300 $299 $292 $361 forward $289 $-1 #
edge $-1 $362 47.005203507626852 $365 52.031264239660018 $360 $391 forward 7 unknown #
vertex $-1 $304 $392 #
straight-curve $-1 7.2764013002868886 0.012555139460285858 11.224471259480978 1 0 0 I I #
edge $-1 $365 -1.965781814421792 $301 5.9224557221859477 $300 $393 forward 7 unknown #
vertex $-1 $364 $394 #
straight-curve $-1 -27.849795611770396 0.012555139460285858 48.601008739791993 -0.84804809178421925 0 0.52991927123019833 I I #
point $-1 31.965166795795639 0.012555139460285858 11.224471259480978 #
point $-1 40.008545182653272 7.9007926760680256 6.1984105274478125 #
straight-curve $-1 40.008545182653279 0 11.22447125948098 0 1 0 I I #
vertex $-1 $307 $395 #
point $-1 35.677852266697741 2.2663372927767824 7.2733916308400719 #
vertex $-1 $311 $396 #
point $-1 35.677852266697741 5.647010522751529 7.2733916308400719 #
straight-curve $-1 -40.008545182653279 22.723564286516527 0 0 0 -1 I I #
point $-1 -40.008545182653279 -22.723564286516527 -11.22447125948098 #
straight-curve $-1 -40.008545182653279 0 -11.22447125948098 0 1 0 I I #
point $-1 -40.008545182653279 22.723564286516527 -11.22447125948098 #
edge $-1 $380 -11.22447125948098 $340 11.22447125948098 $332 $397 forward 7 unknown #
straight-curve $-1 -31.963005570742716 -30.729712066871421 -11.22447125948098 -1 0 0 I I #
vertex $-1 $346 $398 #
straight-curve $-1 -31.963005570742716 -30.729712066871421 11.22447125948098 1 0 0 I I #
point $-1 -34.002744152687342 -30.729712066871421 11.22447125948098 #
point $-1 -34.002744152687342 -30.729712066871421 -11.22447125948098 #
point $-1 -29.92326698879809 -30.729712066871421 -11.22447125948098 #
straight-curve $-1 -29.92326698879809 -26.726638176693974 11.22447125948098 0 1 0 I I #
straight-curve $-1 -40.008545182653279 10.460704892379402 29.105431242532013 0 0 -1 I I #
point $-1 -40.008545182653279 10.460704892379402 11.22447125948098 #
straight-curve $-1 -40.008545182653279 3.1360965483050762 1.6302359334186551 0 -1 0 I I #
point $-1 -40.008545182653279 10.460704892379402 1.6302359334186534 #
point $-1 -30.975045049718226 6.272193096610156 2.1909711135340126 #
straight-curve $-1 40.008545182653279 0.012555139460285858 58.229674767107831 0 0 -1 I I #
point $-1 40.008545182653279 0.012555139460285858 11.22447125948098 #
straight-curve $-1 40.008545182653279 1.9783369538820779 6.1984105274478161 0 1 0 I I #
point $-1 40.008545182653272 0.012555139460285858 6.1984105274478125 #
point $-1 34.988868585190531 2.2663372927767824 7.1143272205630614 #
point $-1 34.988868585190531 5.647010522751529 7.1143272205630614 #
straight-curve $-1 -29.92326698879809 -30.729712066871421 0 0 0 -1 I I #
point $-1 -29.92326698879809 -30.729712066871421 11.22447125948098 #
End-of-ACIS-data 