500 0 5 0           
7 Unknown 11 ACIS 5.0 NT 24 Thu Mar 25 17:55:46 1999 
-1 9.9999999999999995e-007 1e-010 
body $-1 $5 $-1 $6 #
body $-1 $7 $-1 $8 #
body $-1 $9 $-1 $10 #
body $-1 $11 $-1 $12 #
body $-1 $13 $-1 $14 #
lump $-1 $-1 $15 $0 #
transform $-1 1 0 0 0 1 0 0 0 1 51.409039582506793 35.509060034760623 8.0849297554043744 1 rotate no_reflect no_shear #
lump $-1 $-1 $16 $1 #
transform $-1 1 0 0 0 1 0 0 0 1 51.409039582506793 35.509060034760623 8.0849297554043744 1 rotate no_reflect no_shear #
lump $-1 $-1 $17 $2 #
transform $-1 1 0 0 0 1 0 0 0 1 51.409039582506793 35.509060034760623 8.0849297554043744 1 rotate no_reflect no_shear #
lump $-1 $-1 $18 $3 #
transform $-1 1 0 0 0 1 0 0 0 1 51.409039582506793 35.509060034760623 8.0849297554043744 1 rotate no_reflect no_shear #
lump $-1 $-1 $19 $4 #
transform $-1 1 0 0 0 1 0 0 0 1 51.409039582506793 35.509060034760623 8.0849297554043744 1 rotate no_reflect no_shear #
shell $-1 $-1 $-1 $20 $-1 $5 #
shell $-1 $-1 $-1 $21 $-1 $7 #
shell $-1 $-1 $-1 $22 $-1 $9 #
shell $-1 $-1 $-1 $23 $-1 $11 #
shell $-1 $-1 $-1 $24 $-1 $13 #
face $-1 $25 $26 $15 $-1 $27 forward single #
face $-1 $28 $29 $16 $-1 $30 reversed single #
face $-1 $31 $32 $17 $-1 $33 forward single #
face $-1 $34 $35 $18 $-1 $36 reversed single #
face $-1 $37 $38 $19 $-1 $39 reversed single #
face $-1 $40 $41 $15 $-1 $42 reversed single #
loop $-1 $-1 $43 $20 #
plane-surface $-1 0 0 8.0849297554043744 0 0 1 1 0 0 forward_v I I I I #
face $-1 $44 $45 $16 $-1 $46 reversed single #
loop $-1 $-1 $47 $21 #
plane-surface $-1 -56.657725052578208 0 3.8299970590926486 0 0 1 1 0 0 forward_v I I I I #
face $-1 $48 $49 $17 $-1 $50 forward single #
loop $-1 $-1 $51 $22 #
plane-surface $-1 12.875731636172326 62.271202882494762 127.12013999364282 1 0 0 0 -0.73135370988377701 -0.68199835119979291 forward_v I I I I #
face $-1 $52 $53 $18 $-1 $54 reversed single #
loop $-1 $55 $56 $23 #
cone-surface $-1 20.639366707460255 33.732527144089971 6.2309726759812367 0 -0.73135370988377701 -0.68199835119979291 0.5 0 0 1 I I 0 1 0.5 forward I I I I #
face $-1 $57 $58 $19 $-1 $59 reversed single #
loop $-1 $60 $61 $24 #
cone-surface $-1 32.284819314392152 33.732527144089971 6.2309726759812367 0 -0.73135370988377701 -0.68199835119979291 0.5 0 0 1 I I 0 1 0.5 forward I I I I #
face $-1 $62 $63 $15 $-1 $64 reversed single #
loop $-1 $-1 $65 $25 #
plane-surface $-1 0 0 -8.0849297554043744 0 0 1 1 0 0 forward_v I I I I #
coedge $-1 $66 $67 $68 $69 forward $26 $-1 #
face $-1 $70 $71 $16 $-1 $72 forward single #
loop $-1 $-1 $73 $28 #
plane-surface $-1 -61.906410522649622 0 5.9574634072485111 1 0 0 0 0 -1 forward_v I I I I #
coedge $-1 $74 $75 $76 $77 reversed $29 $-1 #
face $-1 $78 $79 $17 $-1 $80 forward single #
loop $-1 $-1 $81 $31 #
plane-surface $-1 26.46209301092621 -12.925180757961797 56.998379529573782 0 0.73135370988377701 0.68199835119979291 1 0 0 forward_v I I I I #
coedge $-1 $82 $83 $84 $85 reversed $32 $-1 #
face $-1 $86 $87 $18 $-1 $88 forward single #
loop $-1 $89 $90 $34 #
cone-surface $-1 20.639366707460255 33.184011861677135 5.7194739125813925 0 -0.73135370988377701 -0.68199835119979291 0.25 0 0 1 I I -0.70710678118654746 0.70710678118654746 0.25 forward I I I I #
loop $-1 $-1 $91 $23 #
coedge $-1 $56 $56 $92 $93 reversed $35 $-1 #
face $-1 $94 $95 $19 $-1 $96 reversed single #
loop $-1 $97 $98 $37 #
cone-surface $-1 32.284819314392152 33.184011861677135 5.7194739125813925 0 -0.73135370988377701 -0.68199835119979291 0.25 0 0 1 I I -0.70710678118654746 0.70710678118654746 0.25 forward I I I I #
loop $-1 $-1 $99 $24 #
coedge $-1 $61 $61 $100 $101 reversed $38 $-1 #
face $-1 $102 $103 $15 $-1 $104 reversed single #
loop $-1 $-1 $105 $40 #
plane-surface $-1 0 -35.509060034760623 0 0 1 0 0 0 1 forward_v I I I I #
coedge $-1 $106 $107 $108 $109 forward $41 $-1 #
coedge $-1 $110 $43 $111 $112 forward $26 $-1 #
coedge $-1 $43 $110 $113 $114 forward $26 $-1 #
coedge $-1 $115 $116 $43 $69 reversed $117 $-1 #
edge $-1 $118 -35.509060034760623 $119 35.509060034760623 $68 $120 forward 7 unknown #
face $-1 $121 $122 $16 $-1 $123 reversed single #
loop $-1 $-1 $124 $44 #
plane-surface $-1 0 0 8.0849297554043744 0 0 1 1 0 0 forward_v I I I I #
coedge $-1 $125 $126 $127 $128 forward $45 $-1 #
coedge $-1 $129 $47 $130 $131 forward $29 $-1 #
coedge $-1 $47 $129 $132 $133 forward $29 $-1 #
coedge $-1 $134 $135 $47 $77 forward $136 $-1 #
edge $-1 $137 -35.509060034760623 $138 35.509060034760623 $76 $139 forward 7 unknown #
face $-1 $140 $141 $17 $-1 $142 forward single #
loop $-1 $-1 $143 $48 #
plane-surface $-1 40.048454385680095 62.271202882494762 127.12013999364282 -1 0 0 0 0.73135370988377701 0.68199835119979291 forward_v I I I I #
coedge $-1 $144 $145 $146 $147 reversed $49 $-1 #
coedge $-1 $83 $51 $145 $148 forward $32 $-1 #
coedge $-1 $51 $82 $149 $150 reversed $32 $-1 #
coedge $-1 $151 $146 $51 $85 forward $141 $-1 #
edge $-1 $152 1.5517465220557227 $153 4.3734585935132415 $84 $154 forward 7 unknown #
face $-1 $155 $156 $18 $-1 $157 forward single #
loop $-1 $-1 $158 $52 #
plane-surface $-1 12.875731636172326 62.271202882494762 127.12013999364282 1 0 0 0 -0.73135370988377701 -0.68199835119979291 forward_v I I I I #
loop $-1 $-1 $159 $34 #
coedge $-1 $90 $90 $91 $160 forward $53 $-1 #
coedge $-1 $91 $91 $90 $160 reversed $55 $-1 #
coedge $-1 $92 $92 $56 $93 forward $156 $-1 #
edge $-1 $161 1.4186978311523963e-014 $161 6.2831853071796147 $92 $162 forward 7 unknown #
face $-1 $163 $164 $19 $-1 $165 reversed single #
loop $-1 $166 $167 $57 #
cone-surface $-1 20.639366707460255 33.732527144089971 6.2309726759812367 0 -0.73135370988377701 -0.68199835119979291 0.5 0 0 1 I I 0 1 0.5 forward I I I I #
loop $-1 $-1 $168 $37 #
coedge $-1 $98 $98 $99 $169 forward $58 $-1 #
coedge $-1 $99 $99 $98 $169 reversed $60 $-1 #
coedge $-1 $100 $100 $61 $101 forward $170 $-1 #
edge $-1 $171 1.4186978311523963e-014 $171 6.2831853071796147 $100 $172 forward 7 unknown #
face $-1 $173 $174 $15 $-1 $175 reversed single #
loop $-1 $-1 $176 $62 #
plane-surface $-1 -51.409039582506793 0 0 1 0 0 0 0 -1 forward_v I I I I #
coedge $-1 $177 $113 $178 $179 forward $63 $-1 #
coedge $-1 $180 $65 $177 $181 forward $41 $-1 #
coedge $-1 $65 $180 $182 $183 forward $41 $-1 #
coedge $-1 $116 $115 $65 $109 reversed $117 $-1 #
edge $-1 $184 -35.509060034760623 $185 35.509060034760623 $108 $186 forward 7 unknown #
coedge $-1 $67 $66 $187 $188 forward $26 $-1 #
coedge $-1 $189 $190 $66 $112 reversed $174 $-1 #
edge $-1 $119 -51.409039582506793 $191 51.409039582506793 $111 $192 forward 7 unknown #
coedge $-1 $105 $193 $67 $114 reversed $63 $-1 #
edge $-1 $194 -51.409039582506793 $118 51.409039582506793 $113 $195 forward 7 unknown #
coedge $-1 $108 $68 $193 $196 forward $117 $-1 #
coedge $-1 $68 $108 $189 $197 reversed $117 $-1 #
loop $-1 $-1 $115 $173 #
vertex $-1 $69 $198 #
vertex $-1 $69 $199 #
straight-curve $-1 51.409039582506793 0 8.0849297554043744 0 1 0 I I #
face $-1 $200 $201 $16 $-1 $202 reversed single #
loop $-1 $-1 $203 $70 #
plane-surface $-1 0 0 -8.0849297554043744 0 0 1 1 0 0 forward_v I I I I #
coedge $-1 $204 $205 $206 $207 forward $71 $-1 #
coedge $-1 $208 $73 $129 $209 reversed $45 $-1 #
coedge $-1 $73 $208 $210 $211 reversed $45 $-1 #
coedge $-1 $212 $132 $73 $128 reversed $213 $-1 #
edge $-1 $214 -2.1274663481558633 $215 2.1274663481558624 $127 $216 forward 7 unknown #
coedge $-1 $75 $74 $125 $209 forward $29 $-1 #
coedge $-1 $217 $218 $74 $131 reversed $201 $-1 #
edge $-1 $137 -5.2486854700714147 $219 5.2486854700714147 $130 $220 forward 7 unknown #
coedge $-1 $127 $221 $75 $133 reversed $213 $-1 #
edge $-1 $215 -5.2486854700714147 $138 5.2486854700714147 $132 $222 forward 7 unknown #
coedge $-1 $223 $76 $221 $224 forward $136 $-1 #
coedge $-1 $76 $223 $217 $225 reversed $136 $-1 #
loop $-1 $-1 $76 $200 #
vertex $-1 $225 $226 #
vertex $-1 $224 $227 #
straight-curve $-1 -51.409039582506793 0 3.8299970590926486 0 1 0 I I #
face $-1 $228 $229 $17 $-1 $230 reversed single #
loop $-1 $-1 $231 $78 #
plane-surface $-1 0 0 8.0849297554043744 0 0 1 1 0 0 forward_v I I I I #
coedge $-1 $232 $233 $231 $234 reversed $79 $-1 #
coedge $-1 $235 $81 $233 $236 reversed $49 $-1 #
coedge $-1 $81 $235 $82 $148 reversed $49 $-1 #
coedge $-1 $84 $231 $81 $147 forward $141 $-1 #
edge $-1 $237 -26.81740788021699 $152 0.35531486929077971 $146 $238 forward 7 unknown #
edge $-1 $152 66.880702337508453 $239 71.018120069521245 $82 $240 forward 7 unknown #
coedge $-1 $241 $242 $83 $150 forward $243 $-1 #
edge $-1 $153 55.475140241417037 $239 58.501056049063521 $149 $244 forward 7 unknown #
coedge $-1 $245 $84 $242 $246 forward $141 $-1 #
vertex $-1 $147 $247 #
vertex $-1 $246 $248 #
straight-curve $-1 12.875731636172326 31.135601441247381 8.0849297554043744 0 1 0 I I #
face $-1 $249 $250 $18 $-1 $251 forward single #
loop $-1 $252 $92 $86 #
plane-surface $-1 26.46209301092621 -12.925180757961797 56.998379529573782 0 0.73135370988377701 0.68199835119979291 1 0 0 forward_v I I I I #
coedge $-1 $253 $254 $255 $256 reversed $87 $-1 #
coedge $-1 $159 $159 $-1 $257 forward $89 $-1 #
edge $-1 $258 0 $258 6.2831853071796004 $90 $259 forward 7 unknown #
vertex $-1 $93 $260 #
ellipse-curve $-1 20.639366707460255 34.098203999031867 6.5719718515811376 0 -0.73135370988377701 -0.68199835119979291 0.5 0 0 1 I I #
face $-1 $261 $262 $19 $-1 $263 forward single #
loop $-1 $264 $265 $94 #
cone-surface $-1 20.639366707460255 33.184011861677135 5.7194739125813925 0 -0.73135370988377701 -0.68199835119979291 0.25 0 0 1 I I -0.70710678118654746 0.70710678118654746 0.25 forward I I I I #
loop $-1 $-1 $266 $57 #
coedge $-1 $167 $167 $267 $268 reversed $95 $-1 #
coedge $-1 $168 $168 $-1 $269 forward $97 $-1 #
edge $-1 $270 0 $270 6.2831853071796004 $98 $271 forward 7 unknown #
loop $-1 $272 $100 $261 #
vertex $-1 $101 $273 #
ellipse-curve $-1 32.284819314392152 34.098203999031867 6.5719718515811376 0 -0.73135370988377701 -0.68199835119979291 0.5 0 0 1 I I #
face $-1 $-1 $117 $15 $-1 $274 reversed single #
loop $-1 $-1 $189 $102 #
plane-surface $-1 0 35.509060034760623 0 0 -1 0 0 0 -1 forward_v I I I I #
coedge $-1 $275 $187 $190 $276 forward $103 $-1 #
coedge $-1 $193 $105 $106 $181 reversed $63 $-1 #
coedge $-1 $187 $275 $105 $179 reversed $103 $-1 #
edge $-1 $194 -8.0849297554043744 $277 8.0849297554043744 $178 $278 forward 7 unknown #
coedge $-1 $107 $106 $275 $279 forward $41 $-1 #
edge $-1 $185 -51.409039582506793 $277 51.409039582506793 $177 $280 forward 7 unknown #
coedge $-1 $190 $189 $107 $183 reversed $174 $-1 #
edge $-1 $281 -51.409039582506793 $184 51.409039582506793 $182 $282 forward 7 unknown #
vertex $-1 $109 $283 #
vertex $-1 $196 $284 #
straight-curve $-1 51.409039582506793 0 -8.0849297554043744 0 -1 0 I I #
coedge $-1 $176 $178 $110 $188 reversed $103 $-1 #
edge $-1 $191 -35.509060034760623 $194 35.509060034760623 $187 $285 forward 7 unknown #
coedge $-1 $182 $111 $116 $197 forward $174 $-1 #
coedge $-1 $111 $182 $176 $276 reversed $174 $-1 #
vertex $-1 $112 $286 #
straight-curve $-1 0 35.509060034760623 8.0849297554043744 -1 0 0 I I #
coedge $-1 $113 $177 $115 $196 reversed $63 $-1 #
vertex $-1 $188 $287 #
straight-curve $-1 0 -35.509060034760623 8.0849297554043744 1 0 0 I I #
edge $-1 $118 -8.0849297554043744 $185 8.0849297554043744 $115 $288 forward 7 unknown #
edge $-1 $119 -8.0849297554043744 $184 8.0849297554043744 $116 $289 forward 7 unknown #
point $-1 51.409039582506793 -35.509060034760623 8.0849297554043744 #
point $-1 51.409039582506793 35.509060034760623 8.0849297554043744 #
face $-1 $290 $136 $16 $-1 $291 reversed single #
loop $-1 $-1 $217 $121 #
plane-surface $-1 0 -35.509060034760623 0 0 1 0 0 0 1 forward_v I I I I #
coedge $-1 $292 $293 $294 $295 forward $122 $-1 #
coedge $-1 $210 $124 $212 $296 forward $71 $-1 #
coedge $-1 $124 $210 $297 $298 forward $71 $-1 #
coedge $-1 $299 $300 $124 $207 reversed $301 $-1 #
edge $-1 $302 -35.509060034760623 $303 35.509060034760623 $206 $304 forward 7 unknown #
coedge $-1 $126 $125 $218 $305 reversed $45 $-1 #
edge $-1 $219 -35.509060034760623 $215 35.509060034760623 $125 $306 forward 7 unknown #
coedge $-1 $205 $204 $126 $211 forward $71 $-1 #
edge $-1 $214 -35.509060034760623 $307 35.509060034760623 $126 $308 forward 7 unknown #
coedge $-1 $309 $127 $204 $296 reversed $213 $-1 #
loop $-1 $-1 $309 $290 #
vertex $-1 $296 $310 #
vertex $-1 $133 $311 #
straight-curve $-1 -61.906410522649622 35.509060034760623 5.9574634072485111 0 0 -1 I I #
coedge $-1 $312 $130 $135 $225 forward $201 $-1 #
coedge $-1 $130 $297 $208 $305 forward $201 $-1 #
vertex $-1 $209 $313 #
straight-curve $-1 -56.657725052578208 -35.509060034760623 3.8299970590926486 -1 0 0 I I #
coedge $-1 $132 $314 $134 $224 reversed $213 $-1 #
straight-curve $-1 -56.657725052578208 35.509060034760623 3.8299970590926486 1 0 0 I I #
coedge $-1 $135 $134 $315 $316 reversed $136 $-1 #
edge $-1 $138 -3.8299970590926486 $317 8.0849297554043744 $221 $318 forward 7 unknown #
edge $-1 $137 -3.8299970590926486 $319 8.0849297554043744 $135 $320 forward 7 unknown #
point $-1 -51.409039582506793 -35.509060034760623 3.8299970590926486 #
point $-1 -51.409039582506793 35.509060034760623 3.8299970590926486 #
face $-1 $321 $322 $17 $-1 $323 reversed single #
loop $-1 $-1 $324 $140 #
plane-surface $-1 -56.657725052578208 0 3.8299970590926486 0 0 1 1 0 0 forward_v I I I I #
coedge $-1 $146 $325 $143 $234 forward $141 $-1 #
coedge $-1 $233 $143 $326 $327 reversed $79 $-1 #
coedge $-1 $143 $232 $144 $236 forward $79 $-1 #
edge $-1 $328 -4.3734585935132415 $237 -1.5517465220557227 $231 $329 forward 7 unknown #
coedge $-1 $145 $144 $241 $330 reversed $49 $-1 #
edge $-1 $331 -71.018120069521245 $237 -66.880702337508453 $233 $332 forward 7 unknown #
vertex $-1 $147 $333 #
straight-curve $-1 13.231046505463105 32.687347963303097 8.0849297554043744 -1 0 0 I I #
vertex $-1 $330 $334 #
straight-curve $-1 12.875731636172326 -12.925180757961797 56.998379529573782 0 0.68199835119979291 -0.73135370988377701 I I #
coedge $-1 $326 $149 $235 $330 forward $243 $-1 #
coedge $-1 $149 $335 $151 $246 reversed $243 $-1 #
loop $-1 $-1 $326 $336 #
straight-curve $-1 12.875731636172326 35.509060034760623 63.560069996821412 0 0 -1 I I #
coedge $-1 $337 $151 $338 $339 forward $141 $-1 #
edge $-1 $153 -12.875731636172326 $340 61.906410522649622 $242 $341 forward 7 unknown #
point $-1 12.875731636172326 32.687347963303104 8.0849297554043815 #
point $-1 12.875731636172326 35.509060034760623 8.0849297554043744 #
face $-1 $342 $343 $18 $-1 $344 forward single #
loop $-1 $-1 $345 $155 #
plane-surface $-1 40.048454385680095 62.271202882494762 127.12013999364282 -1 0 0 0 0.73135370988377701 0.68199835119979291 forward_v I I I I #
loop $-1 $-1 $346 $86 #
coedge $-1 $254 $158 $347 $348 forward $87 $-1 #
coedge $-1 $158 $253 $349 $350 reversed $87 $-1 #
coedge $-1 $351 $352 $158 $256 forward $343 $-1 #
edge $-1 $353 1.5517465220557227 $354 4.3734585935132415 $255 $355 forward 7 unknown #
edge $-1 $356 1 $356 0 $159 $-1 forward 7 unknown #
vertex $-1 $160 $357 #
ellipse-curve $-1 20.639366707460255 33.366850289148076 5.8899735003813412 0 0.73135370988377701 0.68199835119979291 0.5 0 0 1 I I #
point $-1 21.139366707460255 34.098203999031853 6.5719718515811341 #
face $-1 $358 $170 $19 $-1 $359 forward single #
loop $-1 $-1 $360 $163 #
plane-surface $-1 12.875731636172326 62.271202882494762 127.12013999364282 1 0 0 0 -0.73135370988377701 -0.68199835119979291 forward_v I I I I #
loop $-1 $-1 $361 $94 #
coedge $-1 $265 $265 $266 $362 forward $164 $-1 #
coedge $-1 $266 $266 $265 $362 reversed $166 $-1 #
coedge $-1 $267 $267 $167 $268 forward $272 $-1 #
edge $-1 $363 1.4186978311523963e-014 $363 6.2831853071796147 $267 $364 forward 7 unknown #
edge $-1 $365 1 $365 0 $168 $-1 forward 7 unknown #
vertex $-1 $169 $366 #
ellipse-curve $-1 32.284819314392152 33.366850289148076 5.8899735003813412 0 0.73135370988377701 0.68199835119979291 0.5 0 0 1 I I #
loop $-1 $367 $267 $261 #
point $-1 32.784819314392152 34.098203999031853 6.5719718515811341 #
plane-surface $-1 51.409039582506793 0 0 -1 0 0 0 0 1 forward_v I I I I #
coedge $-1 $178 $176 $180 $279 reversed $103 $-1 #
edge $-1 $191 -8.0849297554043744 $281 8.0849297554043744 $190 $368 forward 7 unknown #
vertex $-1 $279 $369 #
straight-curve $-1 -51.409039582506793 -35.509060034760623 0 0 0 -1 I I #
edge $-1 $277 -35.509060034760623 $281 35.509060034760623 $275 $370 forward 7 unknown #
straight-curve $-1 0 -35.509060034760623 -8.0849297554043744 -1 0 0 I I #
vertex $-1 $183 $371 #
straight-curve $-1 0 35.509060034760623 -8.0849297554043744 1 0 0 I I #
point $-1 51.409039582506793 35.509060034760623 -8.0849297554043744 #
point $-1 51.409039582506793 -35.509060034760623 -8.0849297554043744 #
straight-curve $-1 -51.409039582506793 0 8.0849297554043744 0 -1 0 I I #
point $-1 -51.409039582506793 35.509060034760623 8.0849297554043744 #
point $-1 -51.409039582506793 -35.509060034760623 8.0849297554043744 #
straight-curve $-1 51.409039582506793 -35.509060034760623 0 0 0 -1 I I #
straight-curve $-1 51.409039582506793 35.509060034760623 0 0 0 -1 I I #
face $-1 $372 $213 $16 $-1 $373 reversed single #
plane-surface $-1 -51.409039582506793 0 0 1 0 0 0 0 -1 forward_v I I I I #
coedge $-1 $315 $203 $312 $374 forward $122 $-1 #
coedge $-1 $203 $315 $314 $375 forward $122 $-1 #
coedge $-1 $300 $299 $203 $295 reversed $301 $-1 #
edge $-1 $376 -35.509060034760623 $377 35.509060034760623 $294 $378 forward 7 unknown #
edge $-1 $303 -51.409039582506793 $214 61.906410522649622 $212 $379 forward 7 unknown #
coedge $-1 $218 $380 $205 $298 reversed $201 $-1 #
edge $-1 $307 -61.906410522649622 $302 51.409039582506793 $297 $381 forward 7 unknown #
coedge $-1 $294 $206 $380 $382 forward $301 $-1 #
coedge $-1 $206 $294 $309 $383 reversed $301 $-1 #
loop $-1 $-1 $299 $372 #
vertex $-1 $207 $384 #
vertex $-1 $207 $385 #
straight-curve $-1 51.409039582506793 0 8.0849297554043744 0 1 0 I I #
edge $-1 $307 -2.1274663481558633 $219 2.1274663481558624 $208 $386 forward 7 unknown #
straight-curve $-1 -61.906410522649622 0 3.8299970590926486 0 1 0 I I #
vertex $-1 $211 $387 #
straight-curve $-1 -61.906410522649622 0 8.0849297554043744 0 -1 0 I I #
coedge $-1 $314 $212 $300 $383 forward $213 $-1 #
point $-1 -61.906410522649622 35.509060034760623 8.0849297554043744 #
point $-1 -61.906410522649622 35.509060034760623 3.8299970590926486 #
coedge $-1 $380 $217 $292 $374 reversed $201 $-1 #
point $-1 -61.906410522649622 -35.509060034760623 3.8299970590926486 #
coedge $-1 $221 $309 $293 $375 reversed $213 $-1 #
coedge $-1 $293 $292 $223 $316 forward $122 $-1 #
edge $-1 $319 -35.509060034760623 $317 35.509060034760623 $223 $388 forward 7 unknown #
vertex $-1 $375 $389 #
straight-curve $-1 -51.409039582506793 35.509060034760623 0 0 0 -1 I I #
vertex $-1 $316 $390 #
straight-curve $-1 -51.409039582506793 -35.509060034760623 0 0 0 -1 I I #
face $-1 $391 $392 $17 $-1 $393 reversed single #
loop $-1 $-1 $394 $228 #
plane-surface $-1 -61.906410522649622 0 5.9574634072485111 1 0 0 0 0 -1 forward_v I I I I #
coedge $-1 $395 $396 $397 $398 reversed $229 $-1 #
coedge $-1 $231 $399 $400 $401 forward $141 $-1 #
coedge $-1 $400 $241 $232 $327 forward $243 $-1 #
edge $-1 $331 -58.501056049063521 $328 -55.475140241417037 $326 $402 forward 7 unknown #
vertex $-1 $327 $403 #
straight-curve $-1 40.048454385680095 31.135601441247381 8.0849297554043744 0 -1 0 I I #
edge $-1 $239 -0.35531486929077971 $331 26.81740788021699 $241 $404 forward 7 unknown #
vertex $-1 $330 $405 #
straight-curve $-1 40.048454385680095 -12.925180757961797 56.998379529573782 0 -0.68199835119979291 0.73135370988377701 I I #
point $-1 40.048454385680095 32.687347963303104 8.0849297554043815 #
point $-1 12.875731636172326 35.509060034760623 5.0590139477578902 #
coedge $-1 $242 $406 $394 $407 reversed $243 $-1 #
face $-1 $408 $243 $17 $-1 $409 reversed single #
coedge $-1 $399 $245 $410 $411 forward $141 $-1 #
coedge $-1 $394 $412 $245 $339 reversed $322 $-1 #
edge $-1 $340 -35.509060034760623 $413 35.509060034760623 $338 $414 forward 7 unknown #
vertex $-1 $246 $415 #
straight-curve $-1 0 35.509060034760623 8.0849297554043744 -1 0 0 I I #
face $-1 $416 $417 $18 $-1 $418 reversed single #
loop $-1 $-1 $419 $249 #
plane-surface $-1 0 0 8.0849297554043744 0 0 1 1 0 0 forward_v I I I I #
coedge $-1 $420 $421 $419 $422 reversed $250 $-1 #
coedge $-1 $423 $347 $352 $424 reversed $252 $-1 #
coedge $-1 $346 $425 $253 $348 reversed $252 $-1 #
edge $-1 $353 66.880702337508453 $426 71.018120069521245 $253 $427 forward 7 unknown #
coedge $-1 $428 $429 $254 $350 forward $430 $-1 #
edge $-1 $354 55.475140241417037 $426 58.501056049063521 $349 $431 forward 7 unknown #
coedge $-1 $432 $255 $429 $433 forward $343 $-1 #
coedge $-1 $255 $419 $346 $424 forward $343 $-1 #
vertex $-1 $424 $434 #
vertex $-1 $433 $435 #
straight-curve $-1 12.875731636172326 31.135601441247381 8.0849297554043744 0 1 0 I I #
vertex $-1 $257 $436 #
point $-1 21.139366707460255 33.366850289148076 5.8899735003813412 #
face $-1 $437 $438 $19 $-1 $439 forward single #
plane-surface $-1 26.46209301092621 -12.925180757961797 56.998379529573782 0 0.73135370988377701 0.68199835119979291 1 0 0 forward_v I I I I #
coedge $-1 $440 $441 $442 $443 reversed $262 $-1 #
coedge $-1 $361 $361 $-1 $444 forward $264 $-1 #
edge $-1 $445 0 $445 6.2831853071796004 $265 $446 forward 7 unknown #
vertex $-1 $268 $447 #
ellipse-curve $-1 20.639366707460255 34.098203999031867 6.5719718515811376 0 -0.73135370988377701 -0.68199835119979291 0.5 0 0 1 I I #
vertex $-1 $269 $448 #
point $-1 32.784819314392152 33.366850289148076 5.8899735003813412 #
loop $-1 $-1 $449 $261 #
straight-curve $-1 -51.409039582506793 35.509060034760623 0 0 0 -1 I I #
point $-1 -51.409039582506793 -35.509060034760623 -8.0849297554043744 #
straight-curve $-1 -51.409039582506793 0 -8.0849297554043744 0 1 0 I I #
point $-1 -51.409039582506793 35.509060034760623 -8.0849297554043744 #
face $-1 $-1 $301 $16 $-1 $450 reversed single #
plane-surface $-1 0 35.509060034760623 0 0 -1 0 0 0 -1 forward_v I I I I #
edge $-1 $377 -51.409039582506793 $319 51.409039582506793 $312 $451 forward 7 unknown #
edge $-1 $317 -51.409039582506793 $376 51.409039582506793 $314 $452 forward 7 unknown #
vertex $-1 $295 $453 #
vertex $-1 $382 $454 #
straight-curve $-1 51.409039582506793 0 -8.0849297554043744 0 -1 0 I I #
straight-curve $-1 0 35.509060034760623 8.0849297554043744 -1 0 0 I I #
coedge $-1 $297 $312 $299 $382 reversed $201 $-1 #
straight-curve $-1 0 -35.509060034760623 8.0849297554043744 1 0 0 I I #
edge $-1 $302 -8.0849297554043744 $377 8.0849297554043744 $299 $455 forward 7 unknown #
edge $-1 $303 -8.0849297554043744 $376 8.0849297554043744 $300 $456 forward 7 unknown #
point $-1 51.409039582506793 -35.509060034760623 8.0849297554043744 #
point $-1 51.409039582506793 35.509060034760623 8.0849297554043744 #
straight-curve $-1 -61.906410522649622 -35.509060034760623 5.9574634072485111 0 0 -1 I I #
point $-1 -61.906410522649622 -35.509060034760623 8.0849297554043744 #
straight-curve $-1 -51.409039582506793 0 -8.0849297554043744 0 1 0 I I #
point $-1 -51.409039582506793 35.509060034760623 -8.0849297554043744 #
point $-1 -51.409039582506793 -35.509060034760623 -8.0849297554043744 #
face $-1 $457 $458 $17 $-1 $459 reversed single #
loop $-1 $-1 $460 $321 #
plane-surface $-1 0 0 -8.0849297554043744 0 0 1 1 0 0 forward_v I I I I #
coedge $-1 $461 $338 $335 $407 forward $322 $-1 #
coedge $-1 $462 $324 $463 $464 forward $229 $-1 #
coedge $-1 $324 $462 $406 $465 forward $229 $-1 #
coedge $-1 $466 $467 $324 $398 forward $468 $-1 #
edge $-1 $469 -35.509060034760623 $470 35.509060034760623 $397 $471 forward 7 unknown #
coedge $-1 $325 $337 $472 $473 forward $141 $-1 #
coedge $-1 $474 $326 $325 $401 reversed $243 $-1 #
edge $-1 $475 -51.409039582506793 $328 -40.048454385680095 $400 $341 forward 7 unknown #
straight-curve $-1 40.048454385680095 35.509060034760623 63.560069996821412 0 0 1 I I #
point $-1 40.048454385680095 35.509060034760623 8.0849297554043744 #
straight-curve $-1 13.231046505463105 35.509060034760623 5.0590139477578902 1 0 0 I I #
point $-1 40.048454385680095 35.509060034760623 5.0590139477578902 #
coedge $-1 $335 $476 $396 $465 reversed $243 $-1 #
edge $-1 $340 -2.1274663481558633 $477 2.1274663481558624 $335 $478 forward 7 unknown #
face $-1 $-1 $479 $17 $-1 $480 reversed single #
plane-surface $-1 0 35.509060034760623 0 0 -1 0 0 0 -1 forward_v I I I I #
coedge $-1 $481 $482 $337 $411 reversed $458 $-1 #
edge $-1 $413 -61.906410522649622 $483 51.409039582506793 $410 $484 forward 7 unknown #
coedge $-1 $338 $461 $481 $485 reversed $322 $-1 #
vertex $-1 $339 $486 #
straight-curve $-1 -61.906410522649622 0 8.0849297554043744 0 -1 0 I I #
point $-1 -61.906410522649622 35.509060034760623 8.0849297554043744 #
face $-1 $487 $488 $18 $-1 $489 reversed single #
loop $-1 $-1 $490 $342 #
plane-surface $-1 -56.657725052578208 0 3.8299970590926486 0 0 1 1 0 0 forward_v I I I I #
coedge $-1 $352 $491 $345 $422 forward $343 $-1 #
coedge $-1 $421 $345 $492 $493 reversed $250 $-1 #
coedge $-1 $345 $420 $423 $494 forward $250 $-1 #
edge $-1 $495 -4.3734585935132415 $496 -1.5517465220557227 $419 $497 forward 7 unknown #
coedge $-1 $425 $346 $421 $494 reversed $252 $-1 #
edge $-1 $496 -26.81740788021699 $353 0.35531486929077971 $352 $498 forward 7 unknown #
coedge $-1 $347 $423 $428 $499 reversed $252 $-1 #
vertex $-1 $499 $500 #
straight-curve $-1 12.875731636172326 -12.925180757961797 56.998379529573782 0 0.68199835119979291 -0.73135370988377701 I I #
coedge $-1 $492 $349 $425 $499 forward $430 $-1 #
coedge $-1 $349 $501 $351 $433 reversed $430 $-1 #
loop $-1 $-1 $492 $502 #
straight-curve $-1 12.875731636172326 35.509060034760623 63.560069996821412 0 0 -1 I I #
coedge $-1 $503 $351 $504 $505 forward $343 $-1 #
edge $-1 $354 -12.875731636172326 $506 61.906410522649622 $429 $507 forward 7 unknown #
point $-1 12.875731636172326 32.687347963303104 8.0849297554043815 #
point $-1 12.875731636172326 35.509060034760623 8.0849297554043744 #
point $-1 20.639366707460255 33.001173434206194 5.5489743247814438 #
face $-1 $508 $509 $19 $-1 $510 forward single #
loop $-1 $-1 $511 $358 #
plane-surface $-1 40.048454385680095 62.271202882494762 127.12013999364282 -1 0 0 0 0.73135370988377701 0.68199835119979291 forward_v I I I I #
coedge $-1 $441 $360 $512 $513 forward $262 $-1 #
coedge $-1 $360 $440 $514 $515 reversed $262 $-1 #
coedge $-1 $516 $517 $360 $443 forward $509 $-1 #
edge $-1 $518 1.5517465220557227 $519 4.3734585935132415 $442 $520 forward 7 unknown #
edge $-1 $521 1 $521 0 $361 $-1 forward 7 unknown #
vertex $-1 $362 $522 #
ellipse-curve $-1 20.639366707460255 33.366850289148076 5.8899735003813412 0 0.73135370988377701 0.68199835119979291 0.5 0 0 1 I I #
point $-1 21.139366707460255 34.098203999031853 6.5719718515811341 #
point $-1 32.284819314392152 33.001173434206194 5.5489743247814438 #
coedge $-1 $523 $512 $517 $524 reversed $367 $-1 #
plane-surface $-1 51.409039582506793 0 0 -1 0 0 0 0 1 forward_v I I I I #
straight-curve $-1 0 -35.509060034760623 -8.0849297554043744 -1 0 0 I I #
straight-curve $-1 0 35.509060034760623 -8.0849297554043744 1 0 0 I I #
point $-1 51.409039582506793 35.509060034760623 -8.0849297554043744 #
point $-1 51.409039582506793 -35.509060034760623 -8.0849297554043744 #
straight-curve $-1 51.409039582506793 -35.509060034760623 0 0 0 -1 I I #
straight-curve $-1 51.409039582506793 35.509060034760623 0 0 0 -1 I I #
face $-1 $336 $468 $17 $-1 $525 reversed single #
loop $-1 $-1 $526 $391 #
plane-surface $-1 0 -35.509060034760623 0 0 1 0 0 0 1 forward_v I I I I #
coedge $-1 $527 $528 $529 $530 forward $392 $-1 #
coedge $-1 $412 $394 $462 $531 reversed $322 $-1 #
coedge $-1 $396 $395 $461 $531 forward $229 $-1 #
coedge $-1 $526 $481 $395 $464 reversed $458 $-1 #
edge $-1 $469 -5.2486854700714147 $532 5.2486854700714147 $463 $533 forward 7 unknown #
edge $-1 $477 -5.2486854700714147 $470 5.2486854700714147 $406 $534 forward 7 unknown #
coedge $-1 $535 $397 $476 $536 forward $468 $-1 #
coedge $-1 $397 $535 $526 $537 reversed $468 $-1 #
loop $-1 $-1 $397 $457 #
vertex $-1 $537 $538 #
vertex $-1 $536 $539 #
straight-curve $-1 -51.409039582506793 0 3.8299970590926486 0 1 0 I I #
coedge $-1 $540 $541 $399 $473 reversed $479 $-1 #
edge $-1 $483 -35.509060034760623 $475 35.509060034760623 $472 $542 forward 7 unknown #
coedge $-1 $543 $400 $541 $544 forward $243 $-1 #
vertex $-1 $473 $545 #
coedge $-1 $406 $543 $466 $536 reversed $243 $-1 #
vertex $-1 $465 $546 #
straight-curve $-1 -61.906410522649622 35.509060034760623 5.9574634072485111 0 0 -1 I I #
loop $-1 $-1 $540 $408 #
plane-surface $-1 51.409039582506793 0 0 -1 0 0 0 0 1 forward_v I I I I #
coedge $-1 $463 $410 $412 $485 forward $458 $-1 #
coedge $-1 $410 $547 $540 $548 reversed $458 $-1 #
vertex $-1 $473 $549 #
straight-curve $-1 0 -35.509060034760623 8.0849297554043744 1 0 0 I I #
edge $-1 $413 -2.1274663481558633 $532 2.1274663481558624 $412 $550 forward 7 unknown #
point $-1 -61.906410522649622 -35.509060034760623 8.0849297554043744 #
face $-1 $551 $552 $18 $-1 $553 reversed single #
loop $-1 $-1 $554 $416 #
plane-surface $-1 -61.906410522649622 0 5.9574634072485111 1 0 0 0 0 -1 forward_v I I I I #
coedge $-1 $555 $556 $557 $558 reversed $417 $-1 #
coedge $-1 $419 $559 $560 $561 forward $343 $-1 #
coedge $-1 $560 $428 $420 $493 forward $430 $-1 #
edge $-1 $562 -58.501056049063521 $495 -55.475140241417037 $492 $563 forward 7 unknown #
edge $-1 $562 -71.018120069521245 $496 -66.880702337508453 $421 $564 forward 7 unknown #
vertex $-1 $493 $565 #
vertex $-1 $424 $566 #
straight-curve $-1 40.048454385680095 31.135601441247381 8.0849297554043744 0 -1 0 I I #
straight-curve $-1 13.231046505463105 32.687347963303097 8.0849297554043744 -1 0 0 I I #
edge $-1 $426 -0.35531486929077971 $562 26.81740788021699 $428 $567 forward 7 unknown #
point $-1 12.875731636172326 35.509060034760623 5.0590139477578902 #
coedge $-1 $429 $568 $554 $569 reversed $430 $-1 #
face $-1 $570 $430 $18 $-1 $571 reversed single #
coedge $-1 $559 $432 $572 $573 forward $343 $-1 #
coedge $-1 $554 $574 $432 $505 reversed $488 $-1 #
edge $-1 $506 -35.509060034760623 $575 35.509060034760623 $504 $576 forward 7 unknown #
vertex $-1 $433 $577 #
straight-curve $-1 0 35.509060034760623 8.0849297554043744 -1 0 0 I I #
face $-1 $578 $579 $19 $-1 $580 reversed single #
loop $-1 $-1 $581 $437 #
plane-surface $-1 0 0 8.0849297554043744 0 0 1 1 0 0 forward_v I I I I #
coedge $-1 $582 $583 $581 $584 reversed $438 $-1 #
coedge $-1 $449 $585 $440 $513 reversed $367 $-1 #
edge $-1 $518 66.880702337508453 $586 71.018120069521245 $440 $587 forward 7 unknown #
coedge $-1 $588 $589 $441 $515 forward $590 $-1 #
edge $-1 $519 55.475140241417037 $586 58.501056049063521 $514 $591 forward 7 unknown #
coedge $-1 $592 $442 $589 $593 forward $509 $-1 #
coedge $-1 $442 $581 $449 $524 forward $509 $-1 #
vertex $-1 $524 $594 #
vertex $-1 $593 $595 #
straight-curve $-1 12.875731636172326 31.135601441247381 8.0849297554043744 0 1 0 I I #
vertex $-1 $444 $596 #
point $-1 21.139366707460255 33.366850289148076 5.8899735003813412 #
coedge $-1 $585 $449 $583 $597 reversed $367 $-1 #
edge $-1 $598 -26.81740788021699 $518 0.35531486929077971 $517 $599 forward 7 unknown #
plane-surface $-1 -51.409039582506793 0 0 1 0 0 0 0 -1 forward_v I I I I #
coedge $-1 $547 $463 $467 $537 forward $458 $-1 #
coedge $-1 $600 $460 $547 $601 forward $392 $-1 #
coedge $-1 $460 $600 $543 $602 forward $392 $-1 #
coedge $-1 $541 $540 $460 $530 reversed $479 $-1 #
edge $-1 $603 -35.509060034760623 $604 35.509060034760623 $529 $605 forward 7 unknown #
edge $-1 $532 -35.509060034760623 $477 35.509060034760623 $461 $606 forward 7 unknown #
vertex $-1 $531 $607 #
straight-curve $-1 -56.657725052578208 -35.509060034760623 3.8299970590926486 -1 0 0 I I #
straight-curve $-1 -56.657725052578208 35.509060034760623 3.8299970590926486 1 0 0 I I #
coedge $-1 $467 $466 $600 $608 reversed $468 $-1 #
edge $-1 $470 -3.8299970590926486 $609 8.0849297554043744 $476 $610 forward 7 unknown #
edge $-1 $469 -3.8299970590926486 $611 8.0849297554043744 $467 $612 forward 7 unknown #
point $-1 -51.409039582506793 -35.509060034760623 3.8299970590926486 #
point $-1 -51.409039582506793 35.509060034760623 3.8299970590926486 #
coedge $-1 $529 $472 $482 $548 forward $479 $-1 #
coedge $-1 $472 $529 $474 $544 reversed $479 $-1 #
straight-curve $-1 51.409039582506793 0 8.0849297554043744 0 1 0 I I #
coedge $-1 $476 $474 $528 $602 reversed $243 $-1 #
edge $-1 $475 -8.0849297554043744 $603 8.0849297554043744 $541 $613 forward 7 unknown #
point $-1 51.409039582506793 35.509060034760623 8.0849297554043744 #
point $-1 -61.906410522649622 35.509060034760623 3.8299970590926486 #
coedge $-1 $482 $526 $527 $601 reversed $458 $-1 #
edge $-1 $483 -8.0849297554043744 $604 8.0849297554043744 $540 $614 forward 7 unknown #
point $-1 51.409039582506793 -35.509060034760623 8.0849297554043744 #
straight-curve $-1 -61.906410522649622 -35.509060034760623 5.9574634072485111 0 0 -1 I I #
face $-1 $615 $616 $18 $-1 $617 reversed single #
loop $-1 $-1 $618 $487 #
plane-surface $-1 0 0 -8.0849297554043744 0 0 1 1 0 0 forward_v I I I I #
coedge $-1 $619 $504 $501 $569 forward $488 $-1 #
coedge $-1 $620 $490 $621 $622 forward $417 $-1 #
coedge $-1 $490 $620 $568 $623 forward $417 $-1 #
coedge $-1 $624 $625 $490 $558 forward $626 $-1 #
edge $-1 $627 -35.509060034760623 $628 35.509060034760623 $557 $629 forward 7 unknown #
coedge $-1 $491 $503 $630 $631 forward $343 $-1 #
coedge $-1 $632 $492 $491 $561 reversed $430 $-1 #
edge $-1 $633 -51.409039582506793 $495 -40.048454385680095 $560 $507 forward 7 unknown #
vertex $-1 $499 $634 #
straight-curve $-1 40.048454385680095 35.509060034760623 63.560069996821412 0 0 1 I I #
straight-curve $-1 40.048454385680095 -12.925180757961797 56.998379529573782 0 -0.68199835119979291 0.73135370988377701 I I #
point $-1 40.048454385680095 35.509060034760623 8.0849297554043744 #
point $-1 40.048454385680095 32.687347963303104 8.0849297554043815 #
straight-curve $-1 13.231046505463105 35.509060034760623 5.0590139477578902 1 0 0 I I #
coedge $-1 $501 $635 $556 $623 reversed $430 $-1 #
edge $-1 $506 -2.1274663481558633 $636 2.1274663481558624 $501 $637 forward 7 unknown #
face $-1 $-1 $638 $18 $-1 $639 reversed single #
plane-surface $-1 0 35.509060034760623 0 0 -1 0 0 0 -1 forward_v I I I I #
coedge $-1 $640 $641 $503 $573 reversed $616 $-1 #
edge $-1 $575 -61.906410522649622 $642 51.409039582506793 $572 $643 forward 7 unknown #
coedge $-1 $504 $619 $640 $644 reversed $488 $-1 #
vertex $-1 $505 $645 #
straight-curve $-1 -61.906410522649622 0 8.0849297554043744 0 -1 0 I I #
point $-1 -61.906410522649622 35.509060034760623 8.0849297554043744 #
face $-1 $646 $647 $19 $-1 $648 reversed single #
loop $-1 $-1 $649 $508 #
plane-surface $-1 -56.657725052578208 0 3.8299970590926486 0 0 1 1 0 0 forward_v I I I I #
coedge $-1 $517 $650 $511 $584 forward $509 $-1 #
coedge $-1 $583 $511 $651 $652 reversed $438 $-1 #
coedge $-1 $511 $582 $523 $597 forward $438 $-1 #
edge $-1 $653 -4.3734585935132415 $598 -1.5517465220557227 $581 $654 forward 7 unknown #
coedge $-1 $512 $523 $588 $655 reversed $367 $-1 #
vertex $-1 $655 $656 #
straight-curve $-1 12.875731636172326 -12.925180757961797 56.998379529573782 0 0.68199835119979291 -0.73135370988377701 I I #
coedge $-1 $651 $514 $585 $655 forward $590 $-1 #
coedge $-1 $514 $657 $516 $593 reversed $590 $-1 #
loop $-1 $-1 $651 $658 #
straight-curve $-1 12.875731636172326 35.509060034760623 63.560069996821412 0 0 -1 I I #
coedge $-1 $659 $516 $660 $661 forward $509 $-1 #
edge $-1 $519 -12.875731636172326 $662 61.906410522649622 $589 $663 forward 7 unknown #
point $-1 12.875731636172326 32.687347963303104 8.0849297554043815 #
point $-1 12.875731636172326 35.509060034760623 8.0849297554043744 #
point $-1 20.639366707460255 33.001173434206194 5.5489743247814438 #
edge $-1 $664 -71.018120069521245 $598 -66.880702337508453 $583 $665 forward 7 unknown #
vertex $-1 $524 $666 #
straight-curve $-1 13.231046505463105 32.687347963303097 8.0849297554043744 -1 0 0 I I #
coedge $-1 $528 $527 $535 $608 forward $392 $-1 #
edge $-1 $604 -51.409039582506793 $611 51.409039582506793 $547 $667 forward 7 unknown #
edge $-1 $609 -51.409039582506793 $603 51.409039582506793 $543 $668 forward 7 unknown #
vertex $-1 $530 $669 #
vertex $-1 $548 $670 #
straight-curve $-1 51.409039582506793 0 -8.0849297554043744 0 -1 0 I I #
straight-curve $-1 -61.906410522649622 0 3.8299970590926486 0 1 0 I I #
point $-1 -61.906410522649622 -35.509060034760623 3.8299970590926486 #
edge $-1 $611 -35.509060034760623 $609 35.509060034760623 $535 $671 forward 7 unknown #
vertex $-1 $602 $672 #
straight-curve $-1 -51.409039582506793 35.509060034760623 0 0 0 -1 I I #
vertex $-1 $608 $673 #
straight-curve $-1 -51.409039582506793 -35.509060034760623 0 0 0 -1 I I #
straight-curve $-1 51.409039582506793 35.509060034760623 0 0 0 -1 I I #
straight-curve $-1 51.409039582506793 -35.509060034760623 0 0 0 -1 I I #
face $-1 $502 $626 $18 $-1 $674 reversed single #
loop $-1 $-1 $675 $551 #
plane-surface $-1 0 -35.509060034760623 0 0 1 0 0 0 1 forward_v I I I I #
coedge $-1 $676 $677 $678 $679 forward $552 $-1 #
coedge $-1 $574 $554 $620 $680 reversed $488 $-1 #
coedge $-1 $556 $555 $619 $680 forward $417 $-1 #
coedge $-1 $675 $640 $555 $622 reversed $616 $-1 #
edge $-1 $627 -5.2486854700714147 $681 5.2486854700714147 $621 $682 forward 7 unknown #
edge $-1 $636 -5.2486854700714147 $628 5.2486854700714147 $568 $683 forward 7 unknown #
coedge $-1 $684 $557 $635 $685 forward $626 $-1 #
coedge $-1 $557 $684 $675 $686 reversed $626 $-1 #
loop $-1 $-1 $557 $615 #
vertex $-1 $686 $687 #
vertex $-1 $685 $688 #
straight-curve $-1 -51.409039582506793 0 3.8299970590926486 0 1 0 I I #
coedge $-1 $689 $690 $559 $631 reversed $638 $-1 #
edge $-1 $642 -35.509060034760623 $633 35.509060034760623 $630 $691 forward 7 unknown #
coedge $-1 $692 $560 $690 $693 forward $430 $-1 #
vertex $-1 $631 $694 #
point $-1 40.048454385680095 35.509060034760623 5.0590139477578902 #
coedge $-1 $568 $692 $624 $685 reversed $430 $-1 #
vertex $-1 $623 $695 #
straight-curve $-1 -61.906410522649622 35.509060034760623 5.9574634072485111 0 0 -1 I I #
loop $-1 $-1 $689 $570 #
plane-surface $-1 51.409039582506793 0 0 -1 0 0 0 0 1 forward_v I I I I #
coedge $-1 $621 $572 $574 $644 forward $616 $-1 #
coedge $-1 $572 $696 $689 $697 reversed $616 $-1 #
vertex $-1 $631 $698 #
straight-curve $-1 0 -35.509060034760623 8.0849297554043744 1 0 0 I I #
edge $-1 $575 -2.1274663481558633 $681 2.1274663481558624 $574 $699 forward 7 unknown #
point $-1 -61.906410522649622 -35.509060034760623 8.0849297554043744 #
face $-1 $700 $701 $19 $-1 $702 reversed single #
loop $-1 $-1 $703 $578 #
plane-surface $-1 -61.906410522649622 0 5.9574634072485111 1 0 0 0 0 -1 forward_v I I I I #
coedge $-1 $704 $705 $706 $707 reversed $579 $-1 #
coedge $-1 $581 $708 $709 $710 forward $509 $-1 #
coedge $-1 $709 $588 $582 $652 forward $590 $-1 #
edge $-1 $664 -58.501056049063521 $653 -55.475140241417037 $651 $711 forward 7 unknown #
vertex $-1 $652 $712 #
straight-curve $-1 40.048454385680095 31.135601441247381 8.0849297554043744 0 -1 0 I I #
edge $-1 $586 -0.35531486929077971 $664 26.81740788021699 $588 $713 forward 7 unknown #
point $-1 12.875731636172326 35.509060034760623 5.0590139477578902 #
coedge $-1 $589 $714 $703 $715 reversed $590 $-1 #
face $-1 $716 $590 $19 $-1 $717 reversed single #
coedge $-1 $708 $592 $718 $719 forward $509 $-1 #
coedge $-1 $703 $720 $592 $661 reversed $647 $-1 #
edge $-1 $662 -35.509060034760623 $721 35.509060034760623 $660 $722 forward 7 unknown #
vertex $-1 $593 $723 #
straight-curve $-1 0 35.509060034760623 8.0849297554043744 -1 0 0 I I #
vertex $-1 $655 $724 #
straight-curve $-1 40.048454385680095 -12.925180757961797 56.998379529573782 0 -0.68199835119979291 0.73135370988377701 I I #
point $-1 40.048454385680095 32.687347963303104 8.0849297554043815 #
straight-curve $-1 0 -35.509060034760623 -8.0849297554043744 -1 0 0 I I #
straight-curve $-1 0 35.509060034760623 -8.0849297554043744 1 0 0 I I #
point $-1 51.409039582506793 35.509060034760623 -8.0849297554043744 #
point $-1 51.409039582506793 -35.509060034760623 -8.0849297554043744 #
straight-curve $-1 -51.409039582506793 0 -8.0849297554043744 0 1 0 I I #
point $-1 -51.409039582506793 35.509060034760623 -8.0849297554043744 #
point $-1 -51.409039582506793 -35.509060034760623 -8.0849297554043744 #
plane-surface $-1 -51.409039582506793 0 0 1 0 0 0 0 -1 forward_v I I I I #
coedge $-1 $696 $621 $625 $686 forward $616 $-1 #
coedge $-1 $725 $618 $696 $726 forward $552 $-1 #
coedge $-1 $618 $725 $692 $727 forward $552 $-1 #
coedge $-1 $690 $689 $618 $679 reversed $638 $-1 #
edge $-1 $728 -35.509060034760623 $729 35.509060034760623 $678 $730 forward 7 unknown #
edge $-1 $681 -35.509060034760623 $636 35.509060034760623 $619 $731 forward 7 unknown #
vertex $-1 $680 $732 #
straight-curve $-1 -56.657725052578208 -35.509060034760623 3.8299970590926486 -1 0 0 I I #
straight-curve $-1 -56.657725052578208 35.509060034760623 3.8299970590926486 1 0 0 I I #
coedge $-1 $625 $624 $725 $733 reversed $626 $-1 #
edge $-1 $628 -3.8299970590926486 $734 8.0849297554043744 $635 $735 forward 7 unknown #
edge $-1 $627 -3.8299970590926486 $736 8.0849297554043744 $625 $737 forward 7 unknown #
point $-1 -51.409039582506793 -35.509060034760623 3.8299970590926486 #
point $-1 -51.409039582506793 35.509060034760623 3.8299970590926486 #
coedge $-1 $678 $630 $641 $697 forward $638 $-1 #
coedge $-1 $630 $678 $632 $693 reversed $638 $-1 #
straight-curve $-1 51.409039582506793 0 8.0849297554043744 0 1 0 I I #
coedge $-1 $635 $632 $677 $727 reversed $430 $-1 #
edge $-1 $633 -8.0849297554043744 $728 8.0849297554043744 $690 $738 forward 7 unknown #
point $-1 51.409039582506793 35.509060034760623 8.0849297554043744 #
point $-1 -61.906410522649622 35.509060034760623 3.8299970590926486 #
coedge $-1 $641 $675 $676 $726 reversed $616 $-1 #
edge $-1 $642 -8.0849297554043744 $729 8.0849297554043744 $689 $739 forward 7 unknown #
point $-1 51.409039582506793 -35.509060034760623 8.0849297554043744 #
straight-curve $-1 -61.906410522649622 -35.509060034760623 5.9574634072485111 0 0 -1 I I #
face $-1 $740 $741 $19 $-1 $742 reversed single #
loop $-1 $-1 $743 $646 #
plane-surface $-1 0 0 -8.0849297554043744 0 0 1 1 0 0 forward_v I I I I #
coedge $-1 $744 $660 $657 $715 forward $647 $-1 #
coedge $-1 $745 $649 $746 $747 forward $579 $-1 #
coedge $-1 $649 $745 $714 $748 forward $579 $-1 #
coedge $-1 $749 $750 $649 $707 forward $751 $-1 #
edge $-1 $752 -35.509060034760623 $753 35.509060034760623 $706 $754 forward 7 unknown #
coedge $-1 $650 $659 $755 $756 forward $509 $-1 #
coedge $-1 $757 $651 $650 $710 reversed $590 $-1 #
edge $-1 $758 -51.409039582506793 $653 -40.048454385680095 $709 $663 forward 7 unknown #
straight-curve $-1 40.048454385680095 35.509060034760623 63.560069996821412 0 0 1 I I #
point $-1 40.048454385680095 35.509060034760623 8.0849297554043744 #
straight-curve $-1 13.231046505463105 35.509060034760623 5.0590139477578902 1 0 0 I I #
coedge $-1 $657 $759 $705 $748 reversed $590 $-1 #
edge $-1 $662 -2.1274663481558633 $760 2.1274663481558624 $657 $761 forward 7 unknown #
face $-1 $-1 $762 $19 $-1 $763 reversed single #
plane-surface $-1 0 35.509060034760623 0 0 -1 0 0 0 -1 forward_v I I I I #
coedge $-1 $764 $765 $659 $719 reversed $741 $-1 #
edge $-1 $721 -61.906410522649622 $766 51.409039582506793 $718 $767 forward 7 unknown #
coedge $-1 $660 $744 $764 $768 reversed $647 $-1 #
vertex $-1 $661 $769 #
straight-curve $-1 -61.906410522649622 0 8.0849297554043744 0 -1 0 I I #
point $-1 -61.906410522649622 35.509060034760623 8.0849297554043744 #
point $-1 40.048454385680095 35.509060034760623 5.0590139477578902 #
coedge $-1 $677 $676 $684 $733 forward $552 $-1 #
edge $-1 $729 -51.409039582506793 $736 51.409039582506793 $696 $770 forward 7 unknown #
edge $-1 $734 -51.409039582506793 $728 51.409039582506793 $692 $771 forward 7 unknown #
vertex $-1 $679 $772 #
vertex $-1 $697 $773 #
straight-curve $-1 51.409039582506793 0 -8.0849297554043744 0 -1 0 I I #
straight-curve $-1 -61.906410522649622 0 3.8299970590926486 0 1 0 I I #
point $-1 -61.906410522649622 -35.509060034760623 3.8299970590926486 #
edge $-1 $736 -35.509060034760623 $734 35.509060034760623 $684 $774 forward 7 unknown #
vertex $-1 $727 $775 #
straight-curve $-1 -51.409039582506793 35.509060034760623 0 0 0 -1 I I #
vertex $-1 $733 $776 #
straight-curve $-1 -51.409039582506793 -35.509060034760623 0 0 0 -1 I I #
straight-curve $-1 51.409039582506793 35.509060034760623 0 0 0 -1 I I #
straight-curve $-1 51.409039582506793 -35.509060034760623 0 0 0 -1 I I #
face $-1 $658 $751 $19 $-1 $777 reversed single #
loop $-1 $-1 $778 $700 #
plane-surface $-1 0 -35.509060034760623 0 0 1 0 0 0 1 forward_v I I I I #
coedge $-1 $779 $780 $781 $782 forward $701 $-1 #
coedge $-1 $720 $703 $745 $783 reversed $647 $-1 #
coedge $-1 $705 $704 $744 $783 forward $579 $-1 #
coedge $-1 $778 $764 $704 $747 reversed $741 $-1 #
edge $-1 $752 -5.2486854700714147 $784 5.2486854700714147 $746 $785 forward 7 unknown #
edge $-1 $760 -5.2486854700714147 $753 5.2486854700714147 $714 $786 forward 7 unknown #
coedge $-1 $787 $706 $759 $788 forward $751 $-1 #
coedge $-1 $706 $787 $778 $789 reversed $751 $-1 #
loop $-1 $-1 $706 $740 #
vertex $-1 $789 $790 #
vertex $-1 $788 $791 #
straight-curve $-1 -51.409039582506793 0 3.8299970590926486 0 1 0 I I #
coedge $-1 $792 $793 $708 $756 reversed $762 $-1 #
edge $-1 $766 -35.509060034760623 $758 35.509060034760623 $755 $794 forward 7 unknown #
coedge $-1 $795 $709 $793 $796 forward $590 $-1 #
vertex $-1 $756 $797 #
coedge $-1 $714 $795 $749 $788 reversed $590 $-1 #
vertex $-1 $748 $798 #
straight-curve $-1 -61.906410522649622 35.509060034760623 5.9574634072485111 0 0 -1 I I #
loop $-1 $-1 $792 $716 #
plane-surface $-1 51.409039582506793 0 0 -1 0 0 0 0 1 forward_v I I I I #
coedge $-1 $746 $718 $720 $768 forward $741 $-1 #
coedge $-1 $718 $799 $792 $800 reversed $741 $-1 #
vertex $-1 $756 $801 #
straight-curve $-1 0 -35.509060034760623 8.0849297554043744 1 0 0 I I #
edge $-1 $721 -2.1274663481558633 $784 2.1274663481558624 $720 $802 forward 7 unknown #
point $-1 -61.906410522649622 -35.509060034760623 8.0849297554043744 #
straight-curve $-1 0 -35.509060034760623 -8.0849297554043744 -1 0 0 I I #
straight-curve $-1 0 35.509060034760623 -8.0849297554043744 1 0 0 I I #
point $-1 51.409039582506793 35.509060034760623 -8.0849297554043744 #
point $-1 51.409039582506793 -35.509060034760623 -8.0849297554043744 #
straight-curve $-1 -51.409039582506793 0 -8.0849297554043744 0 1 0 I I #
point $-1 -51.409039582506793 35.509060034760623 -8.0849297554043744 #
point $-1 -51.409039582506793 -35.509060034760623 -8.0849297554043744 #
plane-surface $-1 -51.409039582506793 0 0 1 0 0 0 0 -1 forward_v I I I I #
coedge $-1 $799 $746 $750 $789 forward $741 $-1 #
coedge $-1 $803 $743 $799 $804 forward $701 $-1 #
coedge $-1 $743 $803 $795 $805 forward $701 $-1 #
coedge $-1 $793 $792 $743 $782 reversed $762 $-1 #
edge $-1 $806 -35.509060034760623 $807 35.509060034760623 $781 $808 forward 7 unknown #
edge $-1 $784 -35.509060034760623 $760 35.509060034760623 $744 $809 forward 7 unknown #
vertex $-1 $783 $810 #
straight-curve $-1 -56.657725052578208 -35.509060034760623 3.8299970590926486 -1 0 0 I I #
straight-curve $-1 -56.657725052578208 35.509060034760623 3.8299970590926486 1 0 0 I I #
coedge $-1 $750 $749 $803 $811 reversed $751 $-1 #
edge $-1 $753 -3.8299970590926486 $812 8.0849297554043744 $759 $813 forward 7 unknown #
edge $-1 $752 -3.8299970590926486 $814 8.0849297554043744 $750 $815 forward 7 unknown #
point $-1 -51.409039582506793 -35.509060034760623 3.8299970590926486 #
point $-1 -51.409039582506793 35.509060034760623 3.8299970590926486 #
coedge $-1 $781 $755 $765 $800 forward $762 $-1 #
coedge $-1 $755 $781 $757 $796 reversed $762 $-1 #
straight-curve $-1 51.409039582506793 0 8.0849297554043744 0 1 0 I I #
coedge $-1 $759 $757 $780 $805 reversed $590 $-1 #
edge $-1 $758 -8.0849297554043744 $806 8.0849297554043744 $793 $816 forward 7 unknown #
point $-1 51.409039582506793 35.509060034760623 8.0849297554043744 #
point $-1 -61.906410522649622 35.509060034760623 3.8299970590926486 #
coedge $-1 $765 $778 $779 $804 reversed $741 $-1 #
edge $-1 $766 -8.0849297554043744 $807 8.0849297554043744 $792 $817 forward 7 unknown #
point $-1 51.409039582506793 -35.509060034760623 8.0849297554043744 #
straight-curve $-1 -61.906410522649622 -35.509060034760623 5.9574634072485111 0 0 -1 I I #
coedge $-1 $780 $779 $787 $811 forward $701 $-1 #
edge $-1 $807 -51.409039582506793 $814 51.409039582506793 $799 $818 forward 7 unknown #
edge $-1 $812 -51.409039582506793 $806 51.409039582506793 $795 $819 forward 7 unknown #
vertex $-1 $782 $820 #
vertex $-1 $800 $821 #
straight-curve $-1 51.409039582506793 0 -8.0849297554043744 0 -1 0 I I #
straight-curve $-1 -61.906410522649622 0 3.8299970590926486 0 1 0 I I #
point $-1 -61.906410522649622 -35.509060034760623 3.8299970590926486 #
edge $-1 $814 -35.509060034760623 $812 35.509060034760623 $787 $822 forward 7 unknown #
vertex $-1 $805 $823 #
straight-curve $-1 -51.409039582506793 35.509060034760623 0 0 0 -1 I I #
vertex $-1 $811 $824 #
straight-curve $-1 -51.409039582506793 -35.509060034760623 0 0 0 -1 I I #
straight-curve $-1 51.409039582506793 35.509060034760623 0 0 0 -1 I I #
straight-curve $-1 51.409039582506793 -35.509060034760623 0 0 0 -1 I I #
straight-curve $-1 0 -35.509060034760623 -8.0849297554043744 -1 0 0 I I #
straight-curve $-1 0 35.509060034760623 -8.0849297554043744 1 0 0 I I #
point $-1 51.409039582506793 35.509060034760623 -8.0849297554043744 #
point $-1 51.409039582506793 -35.509060034760623 -8.0849297554043744 #
straight-curve $-1 -51.409039582506793 0 -8.0849297554043744 0 1 0 I I #
point $-1 -51.409039582506793 35.509060034760623 -8.0849297554043744 #
point $-1 -51.409039582506793 -35.509060034760623 -8.0849297554043744 #
End-of-ACIS-data 