500 0 10 0           
7 Unknown 11 ACIS 5.0 NT 24 Thu Mar 25 15:17:32 1999 
-1 9.9999999999999995e-007 1e-010 
body $-1 $10 $-1 $11 #
body $-1 $12 $-1 $13 #
body $-1 $14 $-1 $15 #
body $-1 $16 $-1 $17 #
body $-1 $18 $-1 $19 #
body $-1 $20 $-1 $21 #
body $-1 $22 $-1 $23 #
body $-1 $24 $-1 $25 #
body $-1 $26 $-1 $27 #
body $-1 $28 $-1 $29 #
lump $-1 $-1 $30 $0 #
transform $-1 1 0 0 0 1 0 0 0 1 63.989989928891873 29.756800211874662 11.211903167693892 1 rotate no_reflect no_shear #
lump $-1 $-1 $31 $1 #
transform $-1 1 0 0 0 1 0 0 0 1 63.989989928891873 29.756800211874662 11.211903167693892 1 rotate no_reflect no_shear #
lump $-1 $-1 $32 $2 #
transform $-1 1 0 0 0 1 0 0 0 1 63.989989928891873 29.756800211874662 11.211903167693892 1 rotate no_reflect no_shear #
lump $-1 $-1 $33 $3 #
transform $-1 1 0 0 0 1 0 0 0 1 63.989989928891873 29.756800211874662 11.211903167693892 1 rotate no_reflect no_shear #
lump $-1 $-1 $34 $4 #
transform $-1 1 0 0 0 1 0 0 0 1 63.989989928891873 29.756800211874662 11.211903167693892 1 rotate no_reflect no_shear #
lump $-1 $-1 $35 $5 #
transform $-1 1 0 0 0 1 0 0 0 1 63.989989928891873 29.756800211874662 11.211903167693892 1 rotate no_reflect no_shear #
lump $-1 $-1 $36 $6 #
transform $-1 1 0 0 0 1 0 0 0 1 63.989989928891873 29.756800211874662 11.211903167693892 1 rotate no_reflect no_shear #
lump $-1 $-1 $37 $7 #
transform $-1 1 0 0 0 1 0 0 0 1 63.989989928891873 29.756800211874662 11.211903167693892 1 rotate no_reflect no_shear #
lump $-1 $-1 $38 $8 #
transform $-1 1 0 0 0 1 0 0 0 1 63.989989928891873 29.756800211874662 11.211903167693892 1 rotate no_reflect no_shear #
lump $-1 $-1 $39 $9 #
transform $-1 1 0 0 0 1 0 0 0 1 63.989989928891873 29.756800211874662 11.211903167693892 1 rotate no_reflect no_shear #
shell $-1 $-1 $-1 $40 $-1 $10 #
shell $-1 $-1 $-1 $41 $-1 $12 #
shell $-1 $-1 $-1 $42 $-1 $14 #
shell $-1 $-1 $-1 $43 $-1 $16 #
shell $-1 $-1 $-1 $44 $-1 $18 #
shell $-1 $-1 $-1 $45 $-1 $20 #
shell $-1 $-1 $-1 $46 $-1 $22 #
shell $-1 $-1 $-1 $47 $-1 $24 #
shell $-1 $-1 $-1 $48 $-1 $26 #
shell $-1 $-1 $-1 $49 $-1 $28 #
face $-1 $50 $51 $30 $-1 $52 forward single #
face $-1 $53 $54 $31 $-1 $55 forward single #
face $-1 $56 $57 $32 $-1 $58 forward single #
face $-1 $59 $60 $33 $-1 $61 reversed single #
face $-1 $62 $63 $34 $-1 $64 forward single #
face $-1 $65 $66 $35 $-1 $67 forward single #
face $-1 $68 $69 $36 $-1 $70 forward single #
face $-1 $71 $72 $37 $-1 $73 reversed single #
face $-1 $74 $75 $38 $-1 $76 forward single #
face $-1 $77 $78 $39 $-1 $79 forward single #
face $-1 $80 $81 $30 $-1 $82 reversed single #
loop $-1 $-1 $83 $40 #
plane-surface $-1 0 0 11.211903167693892 0 0 1 1 0 0 forward_v I I I I #
face $-1 $84 $85 $31 $-1 $86 reversed single #
loop $-1 $-1 $87 $41 #
plane-surface $-1 0 -25.688426315162616 -7.9699738561111237 0 0 1 1 0 0 forward_v I I I I #
face $-1 $88 $89 $32 $-1 $90 reversed single #
loop $-1 $-1 $91 $42 #
plane-surface $-1 0 25.688426315162616 -7.9699738561111237 0 0 1 1 0 0 forward_v I I I I #
face $-1 $92 $93 $33 $-1 $94 reversed single #
loop $-1 $-1 $95 $43 #
plane-surface $-1 -152.89235523268229 1.2326848721131185 97.767596716106027 0 -1 0 0.69465837861970381 0 -0.71933979245794832 forward_v I I I I #
face $-1 $96 $97 $34 $-1 $98 forward single #
loop $-1 $99 $100 $44 #
cone-surface $-1 -60.792157233746089 -5.954151274178173 8.0995339708356884 0.69465837861970381 0 -0.71933979245794832 0.17983494811448708 0 0.17366459465492595 1 I I 0 1 0.25 forward I I I I #
face $-1 $101 $102 $35 $-1 $103 forward single #
loop $-1 $104 $105 $45 #
cone-surface $-1 -60.792157233746089 -3.2590877193189414 8.0995339708356884 0.69465837861970381 0 -0.71933979245794832 0.17983494811448708 0 0.17366459465492595 1 I I 0 1 0.25 forward I I I I #
face $-1 $106 $107 $36 $-1 $108 forward single #
loop $-1 $109 $110 $46 #
cone-surface $-1 -60.792157233746089 -0.56402416445970971 8.0995339708356884 0.69465837861970381 0 -0.71933979245794832 0.17983494811448708 0 0.17366459465492595 1 I I 0 1 0.25 forward I I I I #
face $-1 $111 $112 $37 $-1 $113 reversed single #
loop $-1 $-1 $114 $47 #
plane-surface $-1 113.87787973416295 11.161529768326986 178.10486078703656 0 -1 0 -0.87461971476443456 0 -0.48480960649040278 forward_v I I I I #
face $-1 $115 $116 $38 $-1 $117 forward single #
loop $-1 $118 $119 $48 #
cone-surface $-1 61.459464176490094 4.131156963482411 7.3545567544514494 -0.87461971476443456 0 -0.48480960649040278 0.48480960649040278 0 -0.87461971476443456 1 I I 0 1 1 forward I I I I #
face $-1 $120 $121 $39 $-1 $122 forward single #
loop $-1 $123 $124 $49 #
cone-surface $-1 61.459464176490094 8.3493806463891573 7.3545567544514494 -0.87461971476443456 0 -0.48480960649040278 0.48480960649040278 0 -0.87461971476443456 1 I I 0 1 1 forward I I I I #
face $-1 $125 $126 $30 $-1 $127 reversed single #
loop $-1 $-1 $128 $50 #
plane-surface $-1 0 0 -11.211903167693892 0 0 1 1 0 0 forward_v I I I I #
coedge $-1 $129 $130 $131 $132 forward $51 $-1 #
face $-1 $133 $134 $31 $-1 $135 reversed single #
loop $-1 $-1 $136 $53 #
plane-surface $-1 0 -21.62005241845057 -9.5909385119025075 0 -1 0 0 0 -1 forward_v I I I I #
coedge $-1 $137 $138 $139 $140 reversed $54 $-1 #
face $-1 $141 $142 $32 $-1 $143 reversed single #
loop $-1 $-1 $144 $56 #
plane-surface $-1 0 21.62005241845057 -9.5909385119025075 0 1 0 0 0 1 forward_v I I I I #
coedge $-1 $145 $146 $147 $148 reversed $57 $-1 #
face $-1 $149 $150 $33 $-1 $151 reversed single #
loop $-1 $-1 $152 $59 #
plane-surface $-1 -63.989989928891873 -3.2590877193189378 5.7065045664354557 -0.69465837861970381 0 0.71933979245794832 0.71933979245794832 0 0.69465837861970381 forward_v I I I I #
coedge $-1 $153 $154 $155 $156 reversed $60 $-1 #
face $-1 $-1 $157 $34 $-1 $158 forward single #
loop $-1 $159 $160 $62 #
cone-surface $-1 -60.357995747108774 -5.954151274178173 7.6499466005494714 0.69465837861970381 0 -0.71933979245794832 0.08991747405724354 0 0.086832297327462976 1 I I -0.70710678118654746 0.70710678118654746 0.125 forward I I I I #
loop $-1 $-1 $161 $44 #
coedge $-1 $100 $100 $162 $163 reversed $63 $-1 #
face $-1 $-1 $164 $35 $-1 $165 forward single #
loop $-1 $166 $167 $65 #
cone-surface $-1 -60.357995747108774 -3.2590877193189414 7.6499466005494714 0.69465837861970381 0 -0.71933979245794832 0.08991747405724354 0 0.086832297327462976 1 I I -0.70710678118654746 0.70710678118654746 0.125 forward I I I I #
loop $-1 $-1 $168 $45 #
coedge $-1 $105 $105 $169 $170 reversed $66 $-1 #
face $-1 $-1 $171 $36 $-1 $172 forward single #
loop $-1 $173 $174 $68 #
cone-surface $-1 -60.357995747108774 -0.56402416445970971 7.6499466005494714 0.69465837861970381 0 -0.71933979245794832 0.08991747405724354 0 0.086832297327462976 1 I I -0.70710678118654746 0.70710678118654746 0.125 forward I I I I #
loop $-1 $-1 $175 $46 #
coedge $-1 $110 $110 $176 $177 reversed $69 $-1 #
face $-1 $178 $179 $37 $-1 $180 reversed single #
loop $-1 $-1 $181 $71 #
plane-surface $-1 1.944066255390041 6.2402688049357806 116.05893711353474 0.87461971476443456 0 0.48480960649040278 0.48480960649040278 0 -0.87461971476443456 forward_v I I I I #
coedge $-1 $182 $183 $184 $185 reversed $72 $-1 #
face $-1 $-1 $186 $38 $-1 $187 forward single #
loop $-1 $188 $189 $74 #
cone-surface $-1 60.455761514229678 4.131156963482411 6.7981953044298233 -0.87461971476443456 0 -0.48480960649040278 0.24240480324520139 0 -0.43730985738221728 1 I I -0.70710678118654746 0.70710678118654746 0.5 forward I I I I #
loop $-1 $-1 $190 $48 #
coedge $-1 $119 $119 $191 $192 reversed $75 $-1 #
face $-1 $-1 $193 $39 $-1 $194 forward single #
loop $-1 $195 $196 $77 #
cone-surface $-1 60.455761514229678 8.3493806463891573 6.7981953044298233 -0.87461971476443456 0 -0.48480960649040278 0.24240480324520139 0 -0.43730985738221728 1 I I -0.70710678118654746 0.70710678118654746 0.5 forward I I I I #
loop $-1 $-1 $197 $49 #
coedge $-1 $124 $124 $198 $199 reversed $78 $-1 #
face $-1 $200 $201 $30 $-1 $202 reversed single #
loop $-1 $-1 $203 $80 #
plane-surface $-1 0 -29.756800211874662 0 0 1 0 0 0 1 forward_v I I I I #
coedge $-1 $204 $205 $206 $207 forward $81 $-1 #
coedge $-1 $208 $83 $209 $210 forward $51 $-1 #
coedge $-1 $83 $208 $211 $212 forward $51 $-1 #
coedge $-1 $213 $214 $83 $132 reversed $215 $-1 #
edge $-1 $216 -29.756800211874662 $217 29.756800211874662 $131 $218 forward 7 unknown #
face $-1 $219 $220 $31 $-1 $221 reversed single #
loop $-1 $-1 $222 $84 #
plane-surface $-1 0 0 -11.211903167693892 0 0 1 1 0 0 forward_v I I I I #
coedge $-1 $223 $224 $225 $226 reversed $85 $-1 #
coedge $-1 $227 $87 $224 $228 forward $54 $-1 #
coedge $-1 $87 $227 $229 $230 reversed $54 $-1 #
coedge $-1 $231 $225 $87 $140 forward $220 $-1 #
edge $-1 $232 8.7758392608692617 $233 16.912587054293354 $139 $234 forward 7 unknown #
face $-1 $235 $236 $32 $-1 $237 reversed single #
loop $-1 $-1 $147 $88 #
plane-surface $-1 63.989989928891873 0 0 -1 0 0 0 0 1 forward_v I I I I #
coedge $-1 $238 $239 $240 $241 reversed $89 $-1 #
coedge $-1 $242 $91 $243 $244 reversed $57 $-1 #
coedge $-1 $91 $242 $239 $245 forward $57 $-1 #
coedge $-1 $246 $247 $91 $148 forward $142 $-1 #
edge $-1 $248 -16.912587054293354 $249 -8.7758392608692617 $147 $250 forward 7 unknown #
face $-1 $251 $252 $33 $-1 $253 reversed single #
loop $-1 $-1 $254 $92 #
plane-surface $-1 -152.89235523268229 -7.7508603107509941 97.767596716106027 0 1 0 -0.69465837861970381 0 0.71933979245794832 forward_v I I I I #
coedge $-1 $255 $256 $257 $258 reversed $93 $-1 #
coedge $-1 $154 $95 $259 $260 reversed $60 $-1 #
coedge $-1 $95 $153 $255 $261 reversed $60 $-1 #
coedge $-1 $257 $262 $95 $156 forward $252 $-1 #
edge $-1 $263 37.671895190359123 $264 43.177293791617558 $155 $265 forward 7 unknown #
loop $-1 $-1 $162 $96 #
plane-surface $-1 -63.989989928891873 -3.2590877193189378 5.7065045664354557 -0.69465837861970381 0 0.71933979245794832 0.71933979245794832 0 0.69465837861970381 forward_v I I I I #
loop $-1 $-1 $266 $62 #
coedge $-1 $160 $160 $161 $267 reversed $97 $-1 #
coedge $-1 $161 $161 $160 $267 forward $99 $-1 #
coedge $-1 $162 $162 $100 $163 forward $157 $-1 #
edge $-1 $268 0 $268 6.2831853071796004 $162 $269 forward 7 unknown #
loop $-1 $-1 $169 $101 #
plane-surface $-1 -63.989989928891873 -3.2590877193189378 5.7065045664354557 -0.69465837861970381 0 0.71933979245794832 0.71933979245794832 0 0.69465837861970381 forward_v I I I I #
loop $-1 $-1 $270 $65 #
coedge $-1 $167 $167 $168 $271 reversed $102 $-1 #
coedge $-1 $168 $168 $167 $271 forward $104 $-1 #
coedge $-1 $169 $169 $105 $170 forward $164 $-1 #
edge $-1 $272 0 $272 6.2831853071796004 $169 $273 forward 7 unknown #
loop $-1 $-1 $176 $106 #
plane-surface $-1 -63.989989928891873 -3.2590877193189378 5.7065045664354557 -0.69465837861970381 0 0.71933979245794832 0.71933979245794832 0 0.69465837861970381 forward_v I I I I #
loop $-1 $-1 $274 $68 #
coedge $-1 $174 $174 $175 $275 reversed $107 $-1 #
coedge $-1 $175 $175 $174 $275 forward $109 $-1 #
coedge $-1 $176 $176 $110 $177 forward $171 $-1 #
edge $-1 $276 0 $276 6.2831853071796004 $176 $277 forward 7 unknown #
face $-1 $278 $279 $37 $-1 $280 forward single #
loop $-1 $-1 $281 $111 #
plane-surface $-1 113.87787973416295 1.3190078415445754 178.10486078703656 0 1 0 0.87461971476443456 0 0.48480960649040278 forward_v I I I I #
coedge $-1 $282 $283 $284 $285 reversed $112 $-1 #
coedge $-1 $183 $114 $286 $287 reversed $72 $-1 #
coedge $-1 $114 $182 $282 $288 reversed $72 $-1 #
coedge $-1 $284 $289 $114 $185 forward $279 $-1 #
edge $-1 $290 -7.0510500618104004 $291 -3.1227841667631964 $184 $292 forward 7 unknown #
loop $-1 $-1 $191 $115 #
plane-surface $-1 1.944066255390041 6.2402688049357806 116.05893711353474 0.87461971476443456 0 0.48480960649040278 0.48480960649040278 0 -0.87461971476443456 forward_v I I I I #
loop $-1 $-1 $293 $74 #
coedge $-1 $189 $189 $190 $294 reversed $116 $-1 #
coedge $-1 $190 $190 $189 $294 forward $118 $-1 #
coedge $-1 $191 $191 $119 $192 forward $186 $-1 #
edge $-1 $295 0 $295 6.2831853071796004 $191 $296 forward 7 unknown #
loop $-1 $-1 $198 $120 #
plane-surface $-1 1.944066255390041 6.2402688049357806 116.05893711353474 0.87461971476443456 0 0.48480960649040278 0.48480960649040278 0 -0.87461971476443456 forward_v I I I I #
loop $-1 $-1 $297 $77 #
coedge $-1 $196 $196 $197 $298 reversed $121 $-1 #
coedge $-1 $197 $197 $196 $298 forward $123 $-1 #
coedge $-1 $198 $198 $124 $199 forward $193 $-1 #
edge $-1 $299 0 $299 6.2831853071796004 $198 $300 forward 7 unknown #
face $-1 $301 $302 $30 $-1 $303 reversed single #
loop $-1 $-1 $304 $125 #
plane-surface $-1 -63.989989928891873 0 0 1 0 0 0 0 -1 forward_v I I I I #
coedge $-1 $305 $211 $306 $307 forward $126 $-1 #
coedge $-1 $308 $128 $305 $309 forward $81 $-1 #
coedge $-1 $128 $308 $310 $311 forward $81 $-1 #
coedge $-1 $214 $213 $128 $207 reversed $215 $-1 #
edge $-1 $312 -29.756800211874662 $313 29.756800211874662 $206 $314 forward 7 unknown #
coedge $-1 $130 $129 $315 $316 forward $51 $-1 #
coedge $-1 $317 $318 $129 $210 reversed $302 $-1 #
edge $-1 $217 -63.989989928891873 $319 63.989989928891873 $209 $320 forward 7 unknown #
coedge $-1 $203 $321 $130 $212 reversed $126 $-1 #
edge $-1 $322 -63.989989928891873 $216 63.989989928891873 $211 $323 forward 7 unknown #
coedge $-1 $206 $131 $321 $324 forward $215 $-1 #
coedge $-1 $131 $206 $317 $325 reversed $215 $-1 #
loop $-1 $-1 $213 $301 #
vertex $-1 $132 $326 #
vertex $-1 $132 $327 #
straight-curve $-1 63.989989928891873 0 11.211903167693892 0 1 0 I I #
face $-1 $328 $329 $31 $-1 $330 reversed single #
loop $-1 $-1 $225 $133 #
plane-surface $-1 63.989989928891873 0 0 -1 0 0 0 0 1 forward_v I I I I #
coedge $-1 $331 $332 $223 $333 forward $134 $-1 #
coedge $-1 $334 $136 $222 $333 reversed $85 $-1 #
coedge $-1 $136 $334 $137 $228 reversed $85 $-1 #
coedge $-1 $139 $335 $136 $226 forward $220 $-1 #
edge $-1 $336 -6.4164339117426383 $232 -3.17450460015987 $225 $337 forward 7 unknown #
coedge $-1 $138 $137 $338 $339 reversed $54 $-1 #
edge $-1 $232 -63.989989928891873 $340 63.989989928891873 $224 $341 forward 7 unknown #
coedge $-1 $342 $343 $138 $230 forward $329 $-1 #
edge $-1 $233 -63.989989928891873 $344 63.989989928891873 $229 $345 forward 7 unknown #
coedge $-1 $335 $139 $343 $346 forward $220 $-1 #
vertex $-1 $140 $347 #
vertex $-1 $346 $348 #
straight-curve $-1 63.989989928891873 -12.844213157581308 -7.9699738561111237 0 -1 0 I I #
face $-1 $349 $350 $32 $-1 $351 reversed single #
loop $-1 $-1 $352 $141 #
plane-surface $-1 0 0 -11.211903167693892 0 0 1 1 0 0 forward_v I I I I #
coedge $-1 $353 $144 $352 $354 reversed $89 $-1 #
coedge $-1 $144 $353 $146 $245 reversed $89 $-1 #
coedge $-1 $355 $356 $144 $241 forward $350 $-1 #
edge $-1 $357 -6.4164339117426383 $358 -3.17450460015987 $240 $359 forward 7 unknown #
coedge $-1 $146 $145 $355 $360 reversed $57 $-1 #
coedge $-1 $361 $362 $145 $244 forward $363 $-1 #
edge $-1 $364 -63.989989928891873 $248 63.989989928891873 $243 $365 forward 7 unknown #
edge $-1 $358 -63.989989928891873 $249 63.989989928891873 $239 $366 forward 7 unknown #
coedge $-1 $367 $147 $353 $368 forward $142 $-1 #
coedge $-1 $147 $367 $361 $369 reversed $142 $-1 #
vertex $-1 $369 $370 #
vertex $-1 $148 $371 #
straight-curve $-1 63.989989928891873 12.844213157581308 -7.9699738561111237 0 -1 0 I I #
face $-1 $-1 $372 $33 $-1 $373 forward single #
loop $-1 $-1 $155 $149 #
plane-surface $-1 -63.989989928891873 0 0 1 0 0 0 0 -1 forward_v I I I I #
coedge $-1 $374 $375 $376 $377 reversed $150 $-1 #
coedge $-1 $378 $152 $154 $261 forward $93 $-1 #
coedge $-1 $152 $378 $374 $379 forward $93 $-1 #
coedge $-1 $376 $155 $152 $258 forward $252 $-1 #
edge $-1 $264 -2.8622287317725874 $380 6.1213164510915252 $257 $381 forward 7 unknown #
coedge $-1 $382 $383 $153 $260 forward $372 $-1 #
edge $-1 $384 -18.157194699121114 $263 -12.456187687449273 $259 $385 forward 7 unknown #
edge $-1 $264 0 $384 7.9253324665827014 $154 $386 forward 7 unknown #
coedge $-1 $155 $376 $382 $387 reversed $252 $-1 #
vertex $-1 $387 $388 #
vertex $-1 $156 $389 #
straight-curve $-1 -63.989989928891873 1.2326848721131185 48.883798358053014 0 0 -1 I I #
coedge $-1 $266 $266 $-1 $390 reversed $159 $-1 #
edge $-1 $391 0 $391 6.2831853071796004 $160 $392 forward 7 unknown #
vertex $-1 $163 $393 #
ellipse-curve $-1 -61.139486423055949 -5.954151274178173 8.4592038670646748 -0.69465837861970381 0 0.71933979245794832 0.17983494811448708 0 0.17366459465492595 1 I I #
coedge $-1 $270 $270 $-1 $394 reversed $166 $-1 #
edge $-1 $395 0 $395 6.2831853071796004 $167 $396 forward 7 unknown #
vertex $-1 $170 $397 #
ellipse-curve $-1 -61.139486423055949 -3.2590877193189414 8.4592038670646748 -0.69465837861970381 0 0.71933979245794832 0.17983494811448708 0 0.17366459465492595 1 I I #
coedge $-1 $274 $274 $-1 $398 reversed $173 $-1 #
edge $-1 $399 0 $399 6.2831853071796004 $174 $400 forward 7 unknown #
vertex $-1 $177 $401 #
ellipse-curve $-1 -61.139486423055949 -0.56402416445970971 8.4592038670646748 -0.69465837861970381 0 0.71933979245794832 0.17983494811448708 0 0.17366459465492595 1 I I #
face $-1 $-1 $402 $37 $-1 $403 reversed single #
loop $-1 $-1 $184 $178 #
plane-surface $-1 0 0 11.211903167693892 0 0 1 1 0 0 forward_v I I I I #
coedge $-1 $404 $405 $406 $407 reversed $179 $-1 #
coedge $-1 $408 $181 $183 $288 forward $112 $-1 #
coedge $-1 $181 $408 $404 $409 forward $112 $-1 #
coedge $-1 $406 $184 $181 $285 forward $279 $-1 #
edge $-1 $291 -8.0413953658590955 $410 1.8011265609233149 $284 $411 forward 7 unknown #
coedge $-1 $412 $413 $182 $287 forward $402 $-1 #
edge $-1 $414 -84.927306758756473 $290 -77.840527225824388 $286 $415 forward 7 unknown #
edge $-1 $291 119.87728172132481 $414 127.9799798577838 $183 $416 forward 7 unknown #
coedge $-1 $184 $406 $412 $417 forward $279 $-1 #
vertex $-1 $185 $418 #
vertex $-1 $185 $419 #
straight-curve $-1 56.938939867081473 11.161529768326986 11.21190316769389 -1 0 0 I I #
coedge $-1 $293 $293 $-1 $420 reversed $188 $-1 #
edge $-1 $421 0 $421 6.2831853071796004 $189 $422 forward 7 unknown #
vertex $-1 $192 $423 #
ellipse-curve $-1 62.025856981368264 4.131156963482411 7.668513401227858 0.87461971476443456 0 0.48480960649040278 0.48480960649040278 0 -0.87461971476443456 1 I I #
coedge $-1 $297 $297 $-1 $424 reversed $195 $-1 #
edge $-1 $425 0 $425 6.2831853071796004 $196 $426 forward 7 unknown #
vertex $-1 $199 $427 #
ellipse-curve $-1 62.025856981368264 8.3493806463891573 7.668513401227858 0.87461971476443456 0 0.48480960649040278 0.48480960649040278 0 -0.87461971476443456 1 I I #
face $-1 $-1 $215 $30 $-1 $428 reversed single #
loop $-1 $-1 $317 $200 #
plane-surface $-1 0 29.756800211874662 0 0 -1 0 0 0 -1 forward_v I I I I #
coedge $-1 $429 $315 $318 $430 forward $201 $-1 #
coedge $-1 $321 $203 $204 $309 reversed $126 $-1 #
coedge $-1 $315 $429 $203 $307 reversed $201 $-1 #
edge $-1 $322 -11.211903167693892 $431 11.211903167693892 $306 $432 forward 7 unknown #
coedge $-1 $205 $204 $429 $433 forward $81 $-1 #
edge $-1 $313 -63.989989928891873 $431 63.989989928891873 $305 $434 forward 7 unknown #
coedge $-1 $318 $317 $205 $311 reversed $302 $-1 #
edge $-1 $435 -63.989989928891873 $312 63.989989928891873 $310 $436 forward 7 unknown #
vertex $-1 $207 $437 #
vertex $-1 $324 $438 #
straight-curve $-1 63.989989928891873 0 -11.211903167693892 0 -1 0 I I #
coedge $-1 $304 $306 $208 $316 reversed $201 $-1 #
edge $-1 $319 -29.756800211874662 $322 29.756800211874662 $315 $439 forward 7 unknown #
coedge $-1 $310 $209 $214 $325 forward $302 $-1 #
coedge $-1 $209 $310 $304 $430 reversed $302 $-1 #
vertex $-1 $210 $440 #
straight-curve $-1 0 29.756800211874662 11.211903167693892 -1 0 0 I I #
coedge $-1 $211 $305 $213 $324 reversed $126 $-1 #
vertex $-1 $316 $441 #
straight-curve $-1 0 -29.756800211874662 11.211903167693892 1 0 0 I I #
edge $-1 $216 -11.211903167693892 $313 11.211903167693892 $213 $442 forward 7 unknown #
edge $-1 $217 -11.211903167693892 $312 11.211903167693892 $214 $443 forward 7 unknown #
point $-1 63.989989928891873 -29.756800211874662 11.211903167693892 #
point $-1 63.989989928891873 29.756800211874662 11.211903167693892 #
face $-1 $-1 $444 $31 $-1 $445 reversed single #
loop $-1 $-1 $229 $219 #
plane-surface $-1 0 -29.756800211874662 0 0 1 0 0 0 1 forward_v I I I I #
coedge $-1 $446 $222 $335 $447 forward $134 $-1 #
coedge $-1 $222 $446 $448 $449 forward $134 $-1 #
edge $-1 $450 -63.989989928891873 $336 63.989989928891873 $222 $451 forward 7 unknown #
coedge $-1 $224 $223 $452 $453 reversed $85 $-1 #
coedge $-1 $225 $231 $331 $447 reversed $220 $-1 #
vertex $-1 $447 $454 #
straight-curve $-1 63.989989928891873 -21.62005241845057 -4.7954692559512537 0 0 1 I I #
coedge $-1 $452 $455 $227 $339 forward $444 $-1 #
edge $-1 $344 -16.912587054293354 $340 -8.7758392608692617 $338 $456 forward 7 unknown #
vertex $-1 $339 $457 #
straight-curve $-1 0 -21.62005241845057 -7.9699738561111237 -1 0 0 I I #
coedge $-1 $458 $229 $455 $459 forward $329 $-1 #
coedge $-1 $229 $458 $231 $346 reversed $329 $-1 #
vertex $-1 $459 $460 #
straight-curve $-1 0 -29.756800211874662 -7.9699738561111237 -1 0 0 I I #
edge $-1 $233 7.9699738561111237 $461 11.211903167693892 $231 $462 forward 7 unknown #
point $-1 63.989989928891873 -21.62005241845057 -7.9699738561111237 #
point $-1 63.989989928891873 -29.756800211874662 -7.9699738561111237 #
face $-1 $-1 $363 $32 $-1 $463 reversed single #
loop $-1 $-1 $355 $235 #
plane-surface $-1 -63.989989928891873 0 0 1 0 0 0 0 -1 forward_v I I I I #
coedge $-1 $464 $465 $238 $354 forward $236 $-1 #
coedge $-1 $239 $238 $246 $368 reversed $89 $-1 #
edge $-1 $466 -63.989989928891873 $357 63.989989928891873 $352 $467 forward 7 unknown #
coedge $-1 $468 $240 $242 $360 forward $350 $-1 #
coedge $-1 $240 $468 $464 $469 reversed $350 $-1 #
vertex $-1 $469 $470 #
vertex $-1 $360 $471 #
straight-curve $-1 -63.989989928891873 21.62005241845057 -4.7954692559512537 0 0 1 I I #
edge $-1 $358 8.7758392608692617 $364 16.912587054293354 $355 $472 forward 7 unknown #
coedge $-1 $473 $243 $247 $369 forward $363 $-1 #
coedge $-1 $243 $473 $468 $474 reversed $363 $-1 #
loop $-1 $-1 $243 $349 #
vertex $-1 $474 $475 #
straight-curve $-1 0 29.756800211874662 -7.9699738561111237 1 0 0 I I #
straight-curve $-1 0 21.62005241845057 -7.9699738561111237 1 0 0 I I #
coedge $-1 $247 $246 $465 $476 reversed $142 $-1 #
edge $-1 $249 3.17450460015987 $466 6.4164339117426383 $246 $477 forward 7 unknown #
edge $-1 $248 7.9699738561111237 $478 11.211903167693892 $247 $479 forward 7 unknown #
point $-1 63.989989928891873 29.756800211874662 -7.9699738561111237 #
point $-1 63.989989928891873 21.62005241845057 -7.9699738561111237 #
loop $-1 $-1 $259 $251 #
plane-surface $-1 0 0 11.211903167693892 0 0 1 1 0 0 forward_v I I I I #
coedge $-1 $375 $254 $256 $379 reversed $150 $-1 #
coedge $-1 $254 $374 $480 $481 reversed $150 $-1 #
coedge $-1 $262 $257 $254 $377 forward $252 $-1 #
edge $-1 $380 -43.177293791617558 $482 -37.671895190359123 $376 $483 forward 7 unknown #
coedge $-1 $256 $255 $383 $484 reversed $93 $-1 #
edge $-1 $485 -7.9253324665827014 $380 0 $374 $486 forward 7 unknown #
vertex $-1 $258 $487 #
straight-curve $-1 -63.989989928891873 -1.6295438596594689 5.706504566435453 0 -1 0 I I #
coedge $-1 $480 $259 $262 $387 forward $372 $-1 #
coedge $-1 $259 $480 $378 $484 forward $372 $-1 #
vertex $-1 $260 $488 #
straight-curve $-1 -76.446177616341146 1.2326848721131185 11.21190316769389 -1 0 0 I I #
straight-curve $-1 -63.989989928891873 1.2326848721131185 5.7065045664354557 0.71933979245794832 0 0.69465837861970381 I I #
edge $-1 $263 -1.2326848721131185 $482 7.7508603107509941 $262 $489 forward 7 unknown #
point $-1 -63.989989928891873 1.2326848721131185 11.211903167693892 #
point $-1 -63.989989928891873 1.2326848721131185 5.7065045664354557 #
edge $-1 $490 1 $490 0 $266 $-1 forward 7 unknown #
vertex $-1 $267 $491 #
ellipse-curve $-1 -60.444828044436235 -5.954151274178173 7.7398640746067153 -0.69465837861970381 0 0.71933979245794832 0.17983494811448708 0 0.17366459465492595 1 I I #
point $-1 -60.959651474941452 -5.954151274178173 8.632868461719589 #
edge $-1 $492 1 $492 0 $270 $-1 forward 7 unknown #
vertex $-1 $271 $493 #
ellipse-curve $-1 -60.444828044436235 -3.2590877193189414 7.7398640746067153 -0.69465837861970381 0 0.71933979245794832 0.17983494811448708 0 0.17366459465492595 1 I I #
point $-1 -60.959651474941452 -3.2590877193189414 8.632868461719589 #
edge $-1 $494 1 $494 0 $274 $-1 forward 7 unknown #
vertex $-1 $275 $495 #
ellipse-curve $-1 -60.444828044436235 -0.56402416445970971 7.7398640746067153 -0.69465837861970381 0 0.71933979245794832 0.17983494811448708 0 0.17366459465492595 1 I I #
point $-1 -60.959651474941452 -0.56402416445970971 8.632868461719589 #
loop $-1 $-1 $286 $278 #
plane-surface $-1 63.989989928891873 0 0 -1 0 0 0 0 1 forward_v I I I I #
coedge $-1 $405 $281 $283 $409 reversed $179 $-1 #
coedge $-1 $281 $404 $496 $497 reversed $179 $-1 #
coedge $-1 $289 $284 $281 $407 forward $279 $-1 #
edge $-1 $410 3.1227841667631964 $498 7.0510500618104004 $406 $499 forward 7 unknown #
coedge $-1 $283 $282 $413 $500 reversed $112 $-1 #
edge $-1 $501 -127.9799798577838 $410 -119.87728172132481 $404 $502 forward 7 unknown #
vertex $-1 $285 $503 #
straight-curve $-1 60.061724033844655 3.1201344024678903 11.21190316769389 0 -1 0 I I #
coedge $-1 $496 $286 $289 $417 reversed $402 $-1 #
coedge $-1 $286 $496 $408 $500 forward $402 $-1 #
vertex $-1 $287 $504 #
straight-curve $-1 63.989989928891873 11.161529768326986 89.052430393518279 0 0 1 I I #
straight-curve $-1 1.944066255390041 11.161529768326986 116.05893711353474 0.48480960649040278 0 -0.87461971476443456 I I #
edge $-1 $498 1.3190078415445754 $290 11.161529768326986 $412 $505 forward 7 unknown #
point $-1 63.989989928891873 11.161529768326986 11.211903167693892 #
point $-1 60.061724033844669 11.161529768326986 11.21190316769389 #
edge $-1 $506 1 $506 0 $293 $-1 forward 7 unknown #
vertex $-1 $294 $507 #
ellipse-curve $-1 60.893071371611896 4.131156963482411 7.0406001076750249 0.87461971476443456 0 0.48480960649040278 0.48480960649040278 0 -0.87461971476443456 1 I I #
point $-1 62.510666587858694 4.131156963482411 6.7938936864634387 #
edge $-1 $508 1 $508 0 $297 $-1 forward 7 unknown #
vertex $-1 $298 $509 #
ellipse-curve $-1 60.893071371611896 8.3493806463891573 7.0406001076750249 0.87461971476443456 0 0.48480960649040278 0.48480960649040278 0 -0.87461971476443456 1 I I #
point $-1 62.510666587858694 8.3493806463891573 6.7938936864634387 #
plane-surface $-1 63.989989928891873 0 0 -1 0 0 0 0 1 forward_v I I I I #
coedge $-1 $306 $304 $308 $433 reversed $201 $-1 #
edge $-1 $319 -11.211903167693892 $435 11.211903167693892 $318 $510 forward 7 unknown #
vertex $-1 $433 $511 #
straight-curve $-1 -63.989989928891873 -29.756800211874662 0 0 0 -1 I I #
edge $-1 $431 -29.756800211874662 $435 29.756800211874662 $429 $512 forward 7 unknown #
straight-curve $-1 0 -29.756800211874662 -11.211903167693892 -1 0 0 I I #
vertex $-1 $311 $513 #
straight-curve $-1 0 29.756800211874662 -11.211903167693892 1 0 0 I I #
point $-1 63.989989928891873 29.756800211874662 -11.211903167693892 #
point $-1 63.989989928891873 -29.756800211874662 -11.211903167693892 #
straight-curve $-1 -63.989989928891873 0 11.211903167693892 0 -1 0 I I #
point $-1 -63.989989928891873 29.756800211874662 11.211903167693892 #
point $-1 -63.989989928891873 -29.756800211874662 11.211903167693892 #
straight-curve $-1 63.989989928891873 -29.756800211874662 0 0 0 -1 I I #
straight-curve $-1 63.989989928891873 29.756800211874662 0 0 0 -1 I I #
loop $-1 $-1 $452 $328 #
plane-surface $-1 -63.989989928891873 0 0 1 0 0 0 0 -1 forward_v I I I I #
coedge $-1 $332 $331 $458 $514 forward $134 $-1 #
edge $-1 $336 21.62005241845057 $461 29.756800211874662 $335 $515 forward 7 unknown #
coedge $-1 $455 $452 $332 $449 reversed $444 $-1 #
edge $-1 $516 -29.756800211874662 $450 -21.62005241845057 $448 $517 forward 7 unknown #
vertex $-1 $453 $518 #
straight-curve $-1 0 -21.62005241845057 -11.211903167693892 1 0 0 I I #
coedge $-1 $448 $338 $334 $453 forward $444 $-1 #
edge $-1 $340 3.17450460015987 $450 6.4164339117426383 $452 $519 forward 7 unknown #
point $-1 63.989989928891873 -21.62005241845057 -11.211903167693892 #
coedge $-1 $338 $448 $342 $459 reversed $444 $-1 #
straight-curve $-1 -63.989989928891873 -12.844213157581308 -7.9699738561111237 0 1 0 I I #
point $-1 -63.989989928891873 -21.62005241845057 -7.9699738561111237 #
coedge $-1 $343 $342 $446 $514 reversed $329 $-1 #
edge $-1 $344 7.9699738561111237 $516 11.211903167693892 $455 $520 forward 7 unknown #
point $-1 -63.989989928891873 -29.756800211874662 -7.9699738561111237 #
vertex $-1 $346 $521 #
straight-curve $-1 63.989989928891873 -29.756800211874662 0 0 0 -1 I I #
plane-surface $-1 0 29.756800211874662 0 0 -1 0 0 0 -1 forward_v I I I I #
coedge $-1 $522 $352 $356 $469 forward $236 $-1 #
coedge $-1 $352 $522 $367 $476 forward $236 $-1 #
vertex $-1 $354 $523 #
straight-curve $-1 0 21.62005241845057 -11.211903167693892 -1 0 0 I I #
coedge $-1 $356 $355 $362 $474 forward $350 $-1 #
edge $-1 $357 21.62005241845057 $524 29.756800211874662 $356 $525 forward 7 unknown #
point $-1 -63.989989928891873 21.62005241845057 -11.211903167693892 #
point $-1 -63.989989928891873 21.62005241845057 -7.9699738561111237 #
straight-curve $-1 -63.989989928891873 12.844213157581308 -7.9699738561111237 0 1 0 I I #
coedge $-1 $362 $361 $522 $526 reversed $363 $-1 #
edge $-1 $364 7.9699738561111237 $524 11.211903167693892 $362 $527 forward 7 unknown #
point $-1 -63.989989928891873 29.756800211874662 -7.9699738561111237 #
edge $-1 $478 -29.756800211874662 $466 -21.62005241845057 $367 $528 forward 7 unknown #
straight-curve $-1 63.989989928891873 21.62005241845057 -4.7954692559512537 0 0 -1 I I #
vertex $-1 $476 $529 #
straight-curve $-1 63.989989928891873 29.756800211874662 0 0 0 -1 I I #
coedge $-1 $383 $382 $375 $481 forward $372 $-1 #
edge $-1 $482 12.456187687449273 $485 18.157194699121114 $480 $530 forward 7 unknown #
vertex $-1 $481 $531 #
straight-curve $-1 -63.989989928891873 -7.7508603107509941 48.883798358053014 0 0 1 I I #
edge $-1 $485 -6.1213164510915252 $384 2.8622287317725874 $383 $532 forward 7 unknown #
vertex $-1 $484 $533 #
straight-curve $-1 -63.989989928891873 -7.7508603107509941 5.7065045664354557 -0.71933979245794832 0 -0.69465837861970381 I I #
point $-1 -63.989989928891873 -7.7508603107509941 5.7065045664354557 #
point $-1 -58.288982917220032 1.2326848721131185 11.211903167693892 #
straight-curve $-1 -63.989989928891873 0 11.211903167693892 0 -1 0 I I #
vertex $-1 $390 $534 #
point $-1 -60.264993096321753 -5.954151274178173 7.9135286692616411 #
vertex $-1 $394 $535 #
point $-1 -60.264993096321753 -3.2590877193189414 7.9135286692616411 #
vertex $-1 $398 $536 #
point $-1 -60.264993096321753 -0.56402416445970971 7.9135286692616411 #
coedge $-1 $413 $412 $405 $497 forward $402 $-1 #
edge $-1 $498 77.840527225824388 $501 84.927306758756473 $496 $537 forward 7 unknown #
vertex $-1 $417 $538 #
straight-curve $-1 56.938939867081473 1.3190078415445754 11.21190316769389 1 0 0 I I #
edge $-1 $501 -1.8011265609233149 $414 8.0413953658590955 $413 $539 forward 7 unknown #
vertex $-1 $500 $540 #
straight-curve $-1 1.944066255390041 1.3190078415445754 116.05893711353474 -0.48480960649040278 0 0.87461971476443456 I I #
point $-1 60.061724033844669 1.3190078415445754 11.21190316769389 #
point $-1 63.989989928891873 11.161529768326986 4.1251236347618061 #
straight-curve $-1 63.989989928891873 0 11.211903167693892 0 1 0 I I #
vertex $-1 $420 $541 #
point $-1 61.377880978102297 4.131156963482411 6.1659803929105905 #
vertex $-1 $424 $542 #
point $-1 61.377880978102297 8.3493806463891573 6.1659803929105905 #
straight-curve $-1 -63.989989928891873 29.756800211874662 0 0 0 -1 I I #
point $-1 -63.989989928891873 -29.756800211874662 -11.211903167693892 #
straight-curve $-1 -63.989989928891873 0 -11.211903167693892 0 1 0 I I #
point $-1 -63.989989928891873 29.756800211874662 -11.211903167693892 #
edge $-1 $461 -63.989989928891873 $516 63.989989928891873 $458 $543 forward 7 unknown #
straight-curve $-1 63.989989928891873 0 -11.211903167693892 0 -1 0 I I #
vertex $-1 $449 $544 #
straight-curve $-1 -63.989989928891873 0 -11.211903167693892 0 1 0 I I #
point $-1 -63.989989928891873 -21.62005241845057 -11.211903167693892 #
straight-curve $-1 -63.989989928891873 -21.62005241845057 -4.7954692559512537 0 0 -1 I I #
straight-curve $-1 -63.989989928891873 -29.756800211874662 0 0 0 -1 I I #
point $-1 63.989989928891873 -29.756800211874662 -11.211903167693892 #
coedge $-1 $465 $464 $473 $526 forward $236 $-1 #
point $-1 63.989989928891873 21.62005241845057 -11.211903167693892 #
vertex $-1 $526 $545 #
straight-curve $-1 -63.989989928891873 0 -11.211903167693892 0 1 0 I I #
edge $-1 $524 -63.989989928891873 $478 63.989989928891873 $473 $546 forward 7 unknown #
straight-curve $-1 -63.989989928891873 29.756800211874662 0 0 0 -1 I I #
straight-curve $-1 63.989989928891873 0 -11.211903167693892 0 -1 0 I I #
point $-1 63.989989928891873 29.756800211874662 -11.211903167693892 #
straight-curve $-1 -76.446177616341146 -7.7508603107509941 11.21190316769389 1 0 0 I I #
point $-1 -63.989989928891873 -7.7508603107509941 11.211903167693892 #
straight-curve $-1 -58.288982917220025 -1.6295438596594689 11.211903167693892 0 1 0 I I #
point $-1 -58.288982917220032 -7.7508603107509941 11.211903167693892 #
point $-1 -60.271163449781312 -5.954151274178173 7.5600291264922275 #
point $-1 -60.271163449781312 -3.2590877193189414 7.5600291264922275 #
point $-1 -60.271163449781312 -0.56402416445970971 7.5600291264922275 #
straight-curve $-1 63.989989928891873 1.3190078415445754 89.052430393518279 0 0 -1 I I #
point $-1 63.989989928891873 1.3190078415445754 11.211903167693892 #
straight-curve $-1 63.989989928891873 3.1201344024678903 4.1251236347618132 0 1 0 I I #
point $-1 63.989989928891873 1.3190078415445754 4.1251236347618061 #
point $-1 60.018451656847461 4.131156963482411 6.5557905011846218 #
point $-1 60.018451656847461 8.3493806463891573 6.5557905011846218 #
straight-curve $-1 0 -29.756800211874662 -11.211903167693892 -1 0 0 I I #
point $-1 -63.989989928891873 -29.756800211874662 -11.211903167693892 #
point $-1 -63.989989928891873 29.756800211874662 -11.211903167693892 #
straight-curve $-1 0 29.756800211874662 -11.211903167693892 1 0 0 I I #
End-of-ACIS-data 