500 0 8 0           
7 Unknown 11 ACIS 5.0 NT 24 Thu Mar 25 23:36:53 1999 
-1 9.9999999999999995e-007 1e-010 
body $-1 $8 $-1 $9 #
body $-1 $10 $-1 $11 #
body $-1 $12 $-1 $13 #
body $-1 $14 $-1 $15 #
body $-1 $16 $-1 $17 #
body $-1 $18 $-1 $19 #
body $-1 $20 $-1 $21 #
body $-1 $22 $-1 $23 #
lump $-1 $-1 $24 $0 #
transform $-1 1 0 0 0 1 0 0 0 1 71.539048432874537 49.517326397807778 13.874885726152298 1 rotate no_reflect no_shear #
lump $-1 $-1 $25 $1 #
transform $-1 1 0 0 0 1 0 0 0 1 71.539048432874537 49.517326397807778 13.874885726152298 1 rotate no_reflect no_shear #
lump $-1 $-1 $26 $2 #
transform $-1 1 0 0 0 1 0 0 0 1 71.539048432874537 49.517326397807778 13.874885726152298 1 rotate no_reflect no_shear #
lump $-1 $-1 $27 $3 #
transform $-1 1 0 0 0 1 0 0 0 1 71.539048432874537 49.517326397807778 13.874885726152298 1 rotate no_reflect no_shear #
lump $-1 $-1 $28 $4 #
transform $-1 1 0 0 0 1 0 0 0 1 71.539048432874537 49.517326397807778 13.874885726152298 1 rotate no_reflect no_shear #
lump $-1 $-1 $29 $5 #
transform $-1 1 0 0 0 1 0 0 0 1 71.539048432874537 49.517326397807778 13.874885726152298 1 rotate no_reflect no_shear #
lump $-1 $-1 $30 $6 #
transform $-1 1 0 0 0 1 0 0 0 1 71.539048432874537 49.517326397807778 13.874885726152298 1 rotate no_reflect no_shear #
lump $-1 $-1 $31 $7 #
transform $-1 1 0 0 0 1 0 0 0 1 71.539048432874537 49.517326397807778 13.874885726152298 1 rotate no_reflect no_shear #
shell $-1 $-1 $-1 $32 $-1 $8 #
shell $-1 $-1 $-1 $33 $-1 $10 #
shell $-1 $-1 $-1 $34 $-1 $12 #
shell $-1 $-1 $-1 $35 $-1 $14 #
shell $-1 $-1 $-1 $36 $-1 $16 #
shell $-1 $-1 $-1 $37 $-1 $18 #
shell $-1 $-1 $-1 $38 $-1 $20 #
shell $-1 $-1 $-1 $39 $-1 $22 #
face $-1 $40 $41 $24 $-1 $42 reversed single #
face $-1 $43 $44 $25 $-1 $45 forward single #
face $-1 $46 $47 $26 $-1 $48 reversed single #
face $-1 $49 $50 $27 $-1 $51 forward single #
face $-1 $52 $53 $28 $-1 $54 forward single #
face $-1 $55 $56 $29 $-1 $57 reversed single #
face $-1 $58 $59 $30 $-1 $60 forward single #
face $-1 $61 $62 $31 $-1 $63 forward single #
face $-1 $64 $65 $24 $-1 $66 forward single #
loop $-1 $-1 $67 $32 #
plane-surface $-1 0 -49.517326397807778 0 0 1 0 0 0 1 forward_v I I I I #
face $-1 $68 $69 $25 $-1 $70 reversed single #
loop $-1 $-1 $71 $33 #
plane-surface $-1 0 -49.517326397807778 0 0 1 0 0 0 1 forward_v I I I I #
face $-1 $72 $73 $26 $-1 $74 reversed single #
loop $-1 $-1 $75 $34 #
plane-surface $-1 120.4902499280109 -0.1822080422668364 196.95880047380149 0 -1 0 -0.85716730853699208 0 -0.51503806187062418 forward_v I I I I #
face $-1 $76 $77 $27 $-1 $78 forward single #
loop $-1 $79 $80 $35 #
cone-surface $-1 64.216497606549041 -15.509126144867373 5.2423415937419122 -0.85716730853699208 0 -0.51503806187062418 1.0300761237412484 0 -1.7143346170739842 1 I I 0 1 2 forward I I I I #
face $-1 $81 $82 $28 $-1 $83 forward single #
loop $-1 $84 $85 $36 #
cone-surface $-1 64.216497606549041 -6.312975283307054 5.2423415937419122 -0.85716730853699208 0 -0.51503806187062418 1.0300761237412484 0 -1.7143346170739842 1 I I 0 1 2 forward I I I I #
face $-1 $86 $87 $29 $-1 $88 reversed single #
loop $-1 $-1 $89 $37 #
plane-surface $-1 -174.46081924392513 38.180538271386609 106.95771319206138 0 1 0 -0.71933980857756763 0 0.69465836192734942 forward_v I I I I #
face $-1 $90 $91 $30 $-1 $92 forward single #
loop $-1 $93 $94 $38 #
cone-surface $-1 -67.663764834076005 41.419620593221225 9.919860211662721 0.71933980857756763 0 -0.69465836192734942 0.69465836192734942 0 0.71933980857756763 1 I I 0 1 1 forward I I I I #
face $-1 $95 $96 $31 $-1 $97 forward single #
loop $-1 $98 $99 $39 #
cone-surface $-1 -67.663764834076005 46.278244075973149 9.919860211662721 0.71933980857756763 0 -0.69465836192734942 0.69465836192734942 0 0.71933980857756763 1 I I 0 1 1 forward I I I I #
face $-1 $100 $101 $24 $-1 $102 reversed single #
loop $-1 $-1 $103 $40 #
plane-surface $-1 0 0 13.874885726152298 0 0 1 1 0 0 forward_v I I I I #
coedge $-1 $104 $105 $106 $107 reversed $41 $-1 #
face $-1 $108 $109 $25 $-1 $110 reversed single #
loop $-1 $-1 $111 $43 #
plane-surface $-1 0 0 -13.874885726152298 0 0 1 1 0 0 forward_v I I I I #
coedge $-1 $112 $113 $114 $115 forward $44 $-1 #
face $-1 $116 $117 $26 $-1 $118 reversed single #
loop $-1 $-1 $119 $46 #
plane-surface $-1 -2.1516172729982799 -10.91105071408721 123.26813476792866 0.85716730853699208 0 0.51503806187062418 0.51503806187062418 0 -0.85716730853699208 forward_v I I I I #
coedge $-1 $120 $121 $122 $123 reversed $47 $-1 #
face $-1 $-1 $124 $27 $-1 $125 forward single #
loop $-1 $126 $127 $49 #
cone-surface $-1 60.017065788742698 -15.509126144867373 2.7190684790773094 -0.85716730853699208 0 -0.51503806187062418 0.51503806187062418 0 -0.85716730853699208 1 I I -0.70710678118654768 0.70710678118654735 1 forward I I I I #
loop $-1 $-1 $128 $35 #
coedge $-1 $80 $80 $129 $130 reversed $50 $-1 #
face $-1 $-1 $131 $28 $-1 $132 forward single #
loop $-1 $133 $134 $52 #
cone-surface $-1 60.017065788742698 -6.312975283307054 2.7190684790773094 -0.85716730853699208 0 -0.51503806187062418 0.51503806187062418 0 -0.85716730853699208 1 I I -0.70710678118654768 0.70710678118654735 1 forward I I I I #
loop $-1 $-1 $135 $36 #
coedge $-1 $85 $85 $136 $137 reversed $53 $-1 #
face $-1 $138 $139 $29 $-1 $140 reversed single #
loop $-1 $-1 $141 $55 #
plane-surface $-1 -71.539048432874509 43.848932334597194 7.5673167956175007 -0.71933980857756763 0 0.69465836192734942 0.69465836192734942 0 0.71933980857756763 forward_v I I I I #
coedge $-1 $142 $143 $144 $145 reversed $56 $-1 #
face $-1 $-1 $146 $30 $-1 $147 forward single #
loop $-1 $148 $149 $58 #
cone-surface $-1 -66.474385514970947 41.419620593221225 8.7712899814768637 0.71933980857756763 0 -0.69465836192734942 0.34732918096367471 0 0.35966990428878381 1 I I -0.70710678118654746 0.70710678118654746 0.5 forward I I I I #
loop $-1 $-1 $150 $38 #
coedge $-1 $94 $94 $151 $152 reversed $59 $-1 #
face $-1 $-1 $153 $31 $-1 $154 forward single #
loop $-1 $155 $156 $61 #
cone-surface $-1 -66.474385514970947 46.278244075973149 8.7712899814768637 0.71933980857756763 0 -0.69465836192734942 0.34732918096367471 0 0.35966990428878381 1 I I -0.70710678118654746 0.70710678118654746 0.5 forward I I I I #
loop $-1 $-1 $157 $39 #
coedge $-1 $99 $99 $158 $159 reversed $62 $-1 #
face $-1 $160 $161 $24 $-1 $162 reversed single #
loop $-1 $-1 $163 $64 #
plane-surface $-1 0 0 -13.874885726152298 0 0 1 1 0 0 forward_v I I I I #
coedge $-1 $164 $165 $166 $167 forward $65 $-1 #
coedge $-1 $168 $67 $169 $170 reversed $41 $-1 #
coedge $-1 $67 $168 $171 $172 forward $41 $-1 #
coedge $-1 $173 $163 $67 $107 forward $101 $-1 #
edge $-1 $174 -71.539048432874537 $175 71.539048432874537 $67 $176 forward 7 unknown #
face $-1 $177 $178 $25 $-1 $179 reversed single #
loop $-1 $-1 $180 $68 #
plane-surface $-1 -52.203005421488413 -65.842621871836627 0 0 1 0 0 0 1 forward_v I I I I #
coedge $-1 $181 $182 $113 $183 forward $69 $-1 #
coedge $-1 $184 $71 $185 $186 reversed $44 $-1 #
coedge $-1 $71 $184 $111 $183 reversed $44 $-1 #
coedge $-1 $187 $188 $71 $115 reversed $178 $-1 #
edge $-1 $189 -13.874885726152298 $190 13.874885726152298 $114 $191 forward 7 unknown #
face $-1 $192 $193 $26 $-1 $194 forward single #
loop $-1 $-1 $195 $72 #
plane-surface $-1 120.4902499280109 -21.639893385907584 196.95880047380149 0 1 0 0.85716730853699208 0 0.51503806187062418 forward_v I I I I #
coedge $-1 $196 $197 $198 $199 reversed $73 $-1 #
coedge $-1 $121 $75 $200 $201 reversed $47 $-1 #
coedge $-1 $75 $120 $196 $202 reversed $47 $-1 #
coedge $-1 $198 $203 $75 $123 forward $193 $-1 #
edge $-1 $204 -11.293923468869089 $205 -3.3333508347568639 $122 $206 forward 7 unknown #
loop $-1 $-1 $129 $76 #
plane-surface $-1 -2.1516172729982799 -10.91105071408721 123.26813476792866 0.85716730853699208 0 0.51503806187062418 0.51503806187062418 0 -0.85716730853699208 forward_v I I I I #
loop $-1 $-1 $207 $49 #
coedge $-1 $127 $127 $128 $208 reversed $77 $-1 #
coedge $-1 $128 $128 $127 $208 forward $79 $-1 #
coedge $-1 $129 $129 $80 $130 forward $124 $-1 #
edge $-1 $209 0 $209 6.2831853071796004 $129 $210 forward 7 unknown #
loop $-1 $-1 $136 $81 #
plane-surface $-1 -2.1516172729982799 -10.91105071408721 123.26813476792866 0.85716730853699208 0 0.51503806187062418 0.51503806187062418 0 -0.85716730853699208 forward_v I I I I #
loop $-1 $-1 $211 $52 #
coedge $-1 $134 $134 $135 $212 reversed $82 $-1 #
coedge $-1 $135 $135 $134 $212 forward $84 $-1 #
coedge $-1 $136 $136 $85 $137 forward $131 $-1 #
edge $-1 $213 0 $213 6.2831853071796004 $136 $214 forward 7 unknown #
face $-1 $215 $216 $29 $-1 $217 reversed single #
loop $-1 $-1 $218 $86 #
plane-surface $-1 0 49.517326397807778 0 0 -1 0 0 0 -1 forward_v I I I I #
coedge $-1 $219 $220 $221 $222 reversed $87 $-1 #
coedge $-1 $143 $89 $223 $224 reversed $56 $-1 #
coedge $-1 $89 $142 $219 $225 reversed $56 $-1 #
coedge $-1 $221 $226 $89 $145 forward $227 $-1 #
edge $-1 $228 15.691361189088028 $229 21.782509557052549 $144 $230 forward 7 unknown #
loop $-1 $-1 $151 $90 #
plane-surface $-1 -71.539048432874509 43.848932334597194 7.5673167956175007 -0.71933980857756763 0 0.69465836192734942 0.69465836192734942 0 0.71933980857756763 forward_v I I I I #
loop $-1 $-1 $231 $58 #
coedge $-1 $149 $149 $150 $232 reversed $91 $-1 #
coedge $-1 $150 $150 $149 $232 forward $93 $-1 #
coedge $-1 $151 $151 $94 $152 forward $146 $-1 #
edge $-1 $233 0 $233 6.2831853071796004 $151 $234 forward 7 unknown #
loop $-1 $-1 $158 $95 #
plane-surface $-1 -71.539048432874509 43.848932334597194 7.5673167956175007 -0.71933980857756763 0 0.69465836192734942 0.69465836192734942 0 0.71933980857756763 forward_v I I I I #
loop $-1 $-1 $235 $61 #
coedge $-1 $156 $156 $157 $236 reversed $96 $-1 #
coedge $-1 $157 $157 $156 $236 forward $98 $-1 #
coedge $-1 $158 $158 $99 $159 forward $153 $-1 #
edge $-1 $237 0 $237 6.2831853071796004 $158 $238 forward 7 unknown #
face $-1 $239 $240 $24 $-1 $241 reversed single #
loop $-1 $-1 $242 $100 #
plane-surface $-1 -71.539048432874537 0 0 1 0 0 0 0 -1 forward_v I I I I #
coedge $-1 $106 $243 $244 $245 forward $101 $-1 #
coedge $-1 $246 $103 $247 $248 forward $65 $-1 #
coedge $-1 $103 $246 $168 $249 forward $65 $-1 #
coedge $-1 $169 $250 $103 $167 reversed $251 $-1 #
edge $-1 $252 -49.517326397807778 $253 49.517326397807778 $166 $254 forward 7 unknown #
coedge $-1 $105 $104 $165 $249 reversed $41 $-1 #
coedge $-1 $244 $166 $104 $170 forward $251 $-1 #
edge $-1 $252 -13.874885726152298 $174 13.874885726152298 $169 $255 forward 7 unknown #
coedge $-1 $256 $257 $105 $172 reversed $161 $-1 #
edge $-1 $258 -13.874885726152298 $175 13.874885726152298 $171 $259 forward 7 unknown #
coedge $-1 $243 $106 $257 $260 forward $101 $-1 #
vertex $-1 $170 $261 #
vertex $-1 $260 $262 #
straight-curve $-1 0 -49.517326397807778 -13.874885726152298 -1 0 0 I I #
face $-1 $263 $264 $25 $-1 $265 reversed single #
loop $-1 $-1 $114 $108 #
plane-surface $-1 -54.980480867624792 -57.679974134822203 0 1 0 0 0 0 -1 forward_v I I I I #
coedge $-1 $266 $267 $268 $269 forward $109 $-1 #
coedge $-1 $270 $111 $271 $272 forward $69 $-1 #
coedge $-1 $111 $270 $187 $273 forward $69 $-1 #
edge $-1 $189 -54.980480867624792 $274 -49.425529975352035 $111 $275 forward 7 unknown #
coedge $-1 $113 $112 $276 $277 forward $44 $-1 #
coedge $-1 $278 $279 $112 $186 forward $280 $-1 #
edge $-1 $281 49.425529975352035 $190 54.980480867624792 $185 $282 forward 7 unknown #
coedge $-1 $268 $114 $182 $273 reversed $178 $-1 #
coedge $-1 $114 $268 $278 $283 reversed $178 $-1 #
vertex $-1 $183 $284 #
vertex $-1 $283 $285 #
straight-curve $-1 -54.980480867624792 -49.517326397807778 0 0 0 1 I I #
face $-1 $-1 $286 $26 $-1 $287 reversed single #
loop $-1 $-1 $122 $116 #
plane-surface $-1 0 0 13.874885726152298 0 0 1 1 0 0 forward_v I I I I #
coedge $-1 $288 $289 $290 $291 reversed $117 $-1 #
coedge $-1 $292 $119 $121 $202 forward $73 $-1 #
coedge $-1 $119 $292 $288 $293 forward $73 $-1 #
coedge $-1 $290 $122 $119 $199 forward $193 $-1 #
edge $-1 $205 -5.2733173147767687 $294 16.184368028863979 $198 $295 forward 7 unknown #
coedge $-1 $296 $297 $120 $201 forward $286 $-1 #
edge $-1 $298 -97.853132669981235 $204 -84.604514510748444 $200 $299 forward 7 unknown #
edge $-1 $205 127.62181659551167 $298 143.07809686574907 $121 $300 forward 7 unknown #
coedge $-1 $122 $290 $296 $301 forward $193 $-1 #
vertex $-1 $123 $302 #
vertex $-1 $123 $303 #
straight-curve $-1 60.245124964005448 -0.1822080422668364 13.8748857261523 -1 0 0 I I #
coedge $-1 $207 $207 $-1 $304 reversed $126 $-1 #
edge $-1 $305 0 $305 6.2831853071796004 $127 $306 forward 7 unknown #
vertex $-1 $130 $307 #
ellipse-curve $-1 67.558762115818411 -15.509126144867373 7.2505766465359072 0.85716730853699208 0 0.51503806187062418 1.0300761237412484 0 -1.7143346170739842 1 I I #
coedge $-1 $211 $211 $-1 $308 reversed $133 $-1 #
edge $-1 $309 0 $309 6.2831853071796004 $134 $310 forward 7 unknown #
vertex $-1 $137 $311 #
ellipse-curve $-1 67.558762115818411 -6.312975283307054 7.2505766465359072 0.85716730853699208 0 0.51503806187062418 1.0300761237412484 0 -1.7143346170739842 1 I I #
face $-1 $-1 $227 $29 $-1 $312 forward single #
loop $-1 $-1 $313 $138 #
plane-surface $-1 -71.539048432874537 0 0 1 0 0 0 0 -1 forward_v I I I I #
coedge $-1 $314 $315 $220 $316 forward $139 $-1 #
coedge $-1 $317 $141 $143 $225 forward $87 $-1 #
coedge $-1 $141 $317 $218 $316 reversed $87 $-1 #
coedge $-1 $318 $144 $141 $222 forward $227 $-1 #
edge $-1 $229 16.256072104088013 $319 27.592860230509181 $221 $320 forward 7 unknown #
coedge $-1 $321 $313 $142 $224 forward $216 $-1 #
edge $-1 $322 -45.911539800413216 $228 -39.603970869878388 $223 $323 forward 7 unknown #
edge $-1 $229 -8.7685525746273782 $322 4.082714723162343e-014 $143 $324 forward 7 unknown #
coedge $-1 $144 $318 $321 $325 forward $227 $-1 #
loop $-1 $-1 $221 $215 #
vertex $-1 $224 $326 #
vertex $-1 $145 $327 #
straight-curve $-1 -87.230409621962565 38.180538271386609 13.8748857261523 1 0 0 I I #
coedge $-1 $231 $231 $-1 $328 reversed $148 $-1 #
edge $-1 $329 0 $329 6.2831853071796004 $149 $330 forward 7 unknown #
vertex $-1 $152 $331 #
ellipse-curve $-1 -68.493474248892269 41.419620593221225 10.72110126088489 -0.71933980857756763 0 0.69465836192734942 0.69465836192734942 0 0.71933980857756763 1 I I #
coedge $-1 $235 $235 $-1 $332 reversed $155 $-1 #
edge $-1 $333 0 $333 6.2831853071796004 $156 $334 forward 7 unknown #
vertex $-1 $159 $335 #
ellipse-curve $-1 -68.493474248892269 46.278244075973149 10.72110126088489 -0.71933980857756763 0 0.69465836192734942 0.69465836192734942 0 0.71933980857756763 1 I I #
face $-1 $-1 $251 $24 $-1 $336 reversed single #
loop $-1 $-1 $337 $160 #
plane-surface $-1 0 49.517326397807778 0 0 -1 0 0 0 -1 forward_v I I I I #
coedge $-1 $257 $256 $338 $339 forward $161 $-1 #
coedge $-1 $163 $173 $340 $341 forward $101 $-1 #
coedge $-1 $250 $169 $163 $245 reversed $251 $-1 #
edge $-1 $342 -49.517326397807778 $174 49.517326397807778 $244 $343 forward 7 unknown #
coedge $-1 $165 $164 $256 $344 forward $65 $-1 #
coedge $-1 $337 $338 $164 $248 reversed $240 $-1 #
edge $-1 $253 -71.539048432874537 $345 71.539048432874537 $247 $346 forward 7 unknown #
edge $-1 $258 -71.539048432874537 $252 71.539048432874537 $168 $347 forward 7 unknown #
coedge $-1 $166 $244 $337 $348 reversed $251 $-1 #
loop $-1 $-1 $169 $239 #
vertex $-1 $167 $349 #
vertex $-1 $167 $350 #
straight-curve $-1 71.539048432874537 0 13.874885726152298 0 1 0 I I #
straight-curve $-1 71.539048432874537 -49.517326397807778 0 0 0 -1 I I #
coedge $-1 $242 $171 $246 $344 reversed $161 $-1 #
coedge $-1 $171 $242 $173 $260 reversed $161 $-1 #
vertex $-1 $344 $351 #
straight-curve $-1 -71.539048432874537 -49.517326397807778 0 0 0 -1 I I #
edge $-1 $175 -49.517326397807778 $352 49.517326397807778 $257 $353 forward 7 unknown #
point $-1 71.539048432874537 -49.517326397807778 -13.874885726152298 #
point $-1 -71.539048432874537 -49.517326397807778 -13.874885726152298 #
face $-1 $-1 $280 $25 $-1 $354 forward single #
loop $-1 $-1 $355 $177 #
plane-surface $-1 -49.425529975352035 -57.679974134822203 0 -1 0 0 0 0 1 forward_v I I I I #
coedge $-1 $356 $180 $270 $357 reversed $109 $-1 #
coedge $-1 $180 $356 $358 $359 reversed $109 $-1 #
coedge $-1 $188 $187 $180 $269 reversed $178 $-1 #
edge $-1 $360 -13.874885726152298 $361 13.874885726152298 $268 $362 forward 7 unknown #
coedge $-1 $182 $181 $266 $357 forward $69 $-1 #
coedge $-1 $276 $355 $181 $272 reversed $264 $-1 #
edge $-1 $274 -8.1626477370144244 $363 8.1626477370144244 $271 $364 forward 7 unknown #
edge $-1 $361 -8.1626477370144244 $189 8.1626477370144244 $187 $365 forward 7 unknown #
vertex $-1 $272 $366 #
straight-curve $-1 0 -49.517326397807778 -13.874885726152298 1 0 0 I I #
coedge $-1 $367 $271 $184 $277 reversed $264 $-1 #
edge $-1 $281 -13.874885726152298 $274 13.874885726152298 $276 $368 forward 7 unknown #
coedge $-1 $358 $185 $188 $283 forward $280 $-1 #
coedge $-1 $185 $358 $367 $369 forward $280 $-1 #
loop $-1 $-1 $185 $263 #
vertex $-1 $186 $370 #
straight-curve $-1 0 -49.517326397807778 13.874885726152298 -1 0 0 I I #
edge $-1 $190 -8.1626477370144244 $360 8.1626477370144244 $188 $371 forward 7 unknown #
point $-1 -54.980480867624792 -49.517326397807778 -13.874885726152298 #
point $-1 -54.980480867624792 -49.517326397807778 13.874885726152298 #
loop $-1 $-1 $200 $192 #
plane-surface $-1 71.539048432874537 0 0 -1 0 0 0 0 1 forward_v I I I I #
coedge $-1 $289 $195 $197 $293 reversed $117 $-1 #
coedge $-1 $195 $288 $372 $373 reversed $117 $-1 #
coedge $-1 $203 $198 $195 $291 forward $193 $-1 #
edge $-1 $294 3.3333508347568639 $374 11.293923468869089 $290 $375 forward 7 unknown #
coedge $-1 $197 $196 $297 $376 reversed $73 $-1 #
edge $-1 $377 -143.07809686574907 $294 -127.62181659551167 $288 $378 forward 7 unknown #
vertex $-1 $199 $379 #
straight-curve $-1 63.578475798762305 -5.4555253570436051 13.8748857261523 0 -1 0 I I #
coedge $-1 $372 $200 $203 $301 reversed $286 $-1 #
coedge $-1 $200 $372 $292 $376 forward $286 $-1 #
vertex $-1 $201 $380 #
straight-curve $-1 71.539048432874537 -0.1822080422668364 98.479400236900744 0 0 1 I I #
straight-curve $-1 -2.1516172729982799 -0.1822080422668364 123.26813476792866 0.51503806187062418 0 -0.85716730853699208 I I #
edge $-1 $374 -21.639893385907584 $204 -0.1822080422668364 $296 $381 forward 7 unknown #
point $-1 71.539048432874537 -0.1822080422668364 13.874885726152298 #
point $-1 63.578475798762312 -0.1822080422668364 13.8748857261523 #
edge $-1 $382 1 $382 0 $207 $-1 forward 7 unknown #
vertex $-1 $208 $383 #
ellipse-curve $-1 60.874233097279692 -15.509126144867373 3.2341065409479333 0.85716730853699208 0 0.51503806187062418 1.0300761237412484 0 -1.7143346170739842 1 I I #
point $-1 68.588838239559635 -15.509126144867373 5.5362420294619064 #
edge $-1 $384 1 $384 0 $211 $-1 forward 7 unknown #
vertex $-1 $212 $385 #
ellipse-curve $-1 60.874233097279692 -6.312975283307054 3.2341065409479333 0.85716730853699208 0 0.51503806187062418 1.0300761237412484 0 -1.7143346170739842 1 I I #
point $-1 68.588838239559635 -6.312975283307054 5.5362420294619064 #
plane-surface $-1 0 0 13.874885726152298 0 0 1 1 0 0 forward_v I I I I #
coedge $-1 $223 $386 $317 $387 forward $216 $-1 #
coedge $-1 $315 $218 $386 $388 reversed $139 $-1 #
coedge $-1 $218 $314 $318 $389 reversed $139 $-1 #
edge $-1 $319 13.357310416880928 $390 22.125862991508345 $218 $391 forward 7 unknown #
coedge $-1 $220 $219 $313 $387 reversed $87 $-1 #
coedge $-1 $226 $221 $315 $389 forward $227 $-1 #
vertex $-1 $389 $392 #
straight-curve $-1 -65.447900064910016 21.924466167298597 13.874885726152298 0 1 0 I I #
coedge $-1 $386 $223 $226 $325 reversed $216 $-1 #
vertex $-1 $224 $393 #
straight-curve $-1 -71.539048432874537 38.180538271386609 53.478856596030688 0 0 1 I I #
straight-curve $-1 -71.539048432874509 38.180538271386609 7.5673167956175007 -0.69465836192734942 0 -0.71933980857756763 I I #
edge $-1 $394 -49.517326397807778 $228 -38.180538271386609 $321 $395 forward 7 unknown #
point $-1 -71.539048432874537 38.180538271386609 13.874885726152298 #
point $-1 -65.447900064910016 38.180538271386609 13.874885726152298 #
edge $-1 $396 1 $396 0 $231 $-1 forward 7 unknown #
vertex $-1 $232 $397 #
ellipse-curve $-1 -66.834055419259727 41.419620593221225 9.1186191624405382 -0.71933980857756763 0 0.69465836192734942 0.69465836192734942 0 0.71933980857756763 1 I I #
point $-1 -67.798815886964931 41.419620593221225 11.440441069462471 #
edge $-1 $398 1 $398 0 $235 $-1 forward 7 unknown #
vertex $-1 $236 $399 #
ellipse-curve $-1 -66.834055419259727 46.278244075973149 9.1186191624405382 -0.71933980857756763 0 0.69465836192734942 0.69465836192734942 0 0.71933980857756763 1 I I #
point $-1 -67.798815886964931 46.278244075973149 11.440441069462471 #
plane-surface $-1 71.539048432874537 0 0 -1 0 0 0 0 1 forward_v I I I I #
coedge $-1 $340 $247 $250 $348 forward $240 $-1 #
coedge $-1 $247 $340 $242 $339 reversed $240 $-1 #
edge $-1 $345 -13.874885726152298 $352 13.874885726152298 $338 $400 forward 7 unknown #
coedge $-1 $338 $337 $243 $341 reversed $240 $-1 #
edge $-1 $352 -71.539048432874537 $342 71.539048432874537 $340 $401 forward 7 unknown #
vertex $-1 $245 $402 #
straight-curve $-1 71.539048432874537 0 -13.874885726152298 0 -1 0 I I #
edge $-1 $345 -49.517326397807778 $258 49.517326397807778 $256 $403 forward 7 unknown #
vertex $-1 $248 $404 #
straight-curve $-1 0 49.517326397807778 13.874885726152298 -1 0 0 I I #
straight-curve $-1 0 -49.517326397807778 13.874885726152298 1 0 0 I I #
edge $-1 $253 -13.874885726152298 $342 13.874885726152298 $250 $405 forward 7 unknown #
point $-1 71.539048432874537 -49.517326397807778 13.874885726152298 #
point $-1 71.539048432874537 49.517326397807778 13.874885726152298 #
point $-1 -71.539048432874537 -49.517326397807778 13.874885726152298 #
vertex $-1 $341 $406 #
straight-curve $-1 -71.539048432874537 0 -13.874885726152298 0 1 0 I I #
plane-surface $-1 0 0 13.874885726152298 0 0 1 1 0 0 forward_v I I I I #
coedge $-1 $271 $367 $356 $407 forward $264 $-1 #
coedge $-1 $267 $266 $355 $407 reversed $109 $-1 #
edge $-1 $363 -2.7774754461363784 $361 2.7774754461363784 $266 $408 forward 7 unknown #
coedge $-1 $279 $278 $267 $359 forward $280 $-1 #
edge $-1 $360 -2.7774754461363784 $409 2.7774754461363784 $267 $410 forward 7 unknown #
vertex $-1 $283 $411 #
vertex $-1 $273 $412 #
straight-curve $-1 -54.980480867624792 -65.842621871836627 0 0 0 -1 I I #
vertex $-1 $407 $413 #
straight-curve $-1 -49.425529975352035 -57.679974134822203 -13.874885726152298 0 -1 0 I I #
straight-curve $-1 -54.980480867624792 -57.679974134822203 -13.874885726152298 0 1 0 I I #
point $-1 -49.425529975352035 -49.517326397807778 -13.874885726152298 #
coedge $-1 $355 $276 $279 $369 reversed $264 $-1 #
straight-curve $-1 -49.425529975352035 -49.517326397807778 0 0 0 -1 I I #
edge $-1 $409 -8.1626477370144244 $281 8.1626477370144244 $367 $414 forward 7 unknown #
point $-1 -49.425529975352035 -49.517326397807778 13.874885726152298 #
straight-curve $-1 -54.980480867624792 -57.679974134822203 13.874885726152298 0 -1 0 I I #
coedge $-1 $297 $296 $289 $373 forward $286 $-1 #
edge $-1 $374 84.604514510748444 $377 97.853132669981235 $372 $415 forward 7 unknown #
vertex $-1 $301 $416 #
straight-curve $-1 60.245124964005448 -21.639893385907584 13.8748857261523 1 0 0 I I #
edge $-1 $377 -16.184368028863979 $298 5.2733173147767687 $297 $417 forward 7 unknown #
vertex $-1 $376 $418 #
straight-curve $-1 -2.1516172729982799 -21.639893385907584 123.26813476792866 -0.51503806187062418 0 0.85716730853699208 I I #
point $-1 63.578475798762312 -21.639893385907584 13.8748857261523 #
point $-1 71.539048432874537 -0.1822080422668364 0.62626756691950902 #
straight-curve $-1 71.539048432874537 0 13.874885726152298 0 1 0 I I #
vertex $-1 $304 $419 #
point $-1 61.904309221020938 -15.509126144867373 1.5197719238739493 #
vertex $-1 $308 $420 #
point $-1 61.904309221020938 -6.312975283307054 1.5197719238739493 #
coedge $-1 $313 $321 $314 $388 forward $216 $-1 #
edge $-1 $390 -27.592860230509181 $322 -16.256072104088013 $313 $421 forward 7 unknown #
edge $-1 $394 -13.874885726152298 $390 -7.5673167956174714 $314 $422 forward 7 unknown #
edge $-1 $319 65.447900064910016 $394 71.539048432874537 $315 $423 forward 7 unknown #
vertex $-1 $387 $424 #
straight-curve $-1 -56.169132690964389 49.517326397807778 23.483330844542575 -0.69465836192734942 0 -0.71933980857756763 I I #
point $-1 -65.447900064910016 49.517326397807778 13.874885726152298 #
point $-1 -71.539048432874537 38.180538271386609 7.5673167956174714 #
vertex $-1 $389 $425 #
straight-curve $-1 -71.539048432874537 0 13.874885726152298 0 -1 0 I I #
vertex $-1 $328 $426 #
point $-1 -66.139397057332388 41.419620593221225 9.8379589710181055 #
vertex $-1 $332 $427 #
point $-1 -66.139397057332388 46.278244075973149 9.8379589710181055 #
straight-curve $-1 -71.539048432874537 49.517326397807778 0 0 0 -1 I I #
straight-curve $-1 0 49.517326397807778 -13.874885726152298 1 0 0 I I #
point $-1 71.539048432874537 49.517326397807778 -13.874885726152298 #
straight-curve $-1 -71.539048432874537 0 13.874885726152298 0 -1 0 I I #
point $-1 -71.539048432874537 49.517326397807778 13.874885726152298 #
straight-curve $-1 71.539048432874537 49.517326397807778 0 0 0 -1 I I #
point $-1 -71.539048432874537 49.517326397807778 -13.874885726152298 #
edge $-1 $409 -13.874885726152298 $363 13.874885726152298 $355 $428 forward 7 unknown #
straight-curve $-1 -52.203005421488413 -65.842621871836627 -13.874885726152298 -1 0 0 I I #
vertex $-1 $369 $429 #
straight-curve $-1 -52.203005421488413 -65.842621871836627 13.874885726152298 1 0 0 I I #
point $-1 -54.980480867624792 -65.842621871836627 13.874885726152298 #
point $-1 -54.980480867624792 -65.842621871836627 -13.874885726152298 #
point $-1 -49.425529975352035 -65.842621871836627 -13.874885726152298 #
straight-curve $-1 -49.425529975352035 -57.679974134822203 13.874885726152298 0 1 0 I I #
straight-curve $-1 71.539048432874537 -21.639893385907584 98.479400236900744 0 0 -1 I I #
point $-1 71.539048432874537 -21.639893385907584 13.874885726152298 #
straight-curve $-1 71.539048432874537 -5.4555253570436051 0.62626756691950192 0 1 0 I I #
point $-1 71.539048432874537 -21.639893385907584 0.62626756691950902 #
point $-1 59.159898480205705 -15.509126144867373 2.2040304172066856 #
point $-1 59.159898480205705 -6.312975283307054 2.2040304172066856 #
straight-curve $-1 -71.539048432874537 21.924466167298597 7.5673167956174678 0 -1 0 I I #
straight-curve $-1 -71.539048432874537 49.517326397807778 0 0 0 -1 I I #
straight-curve $-1 0 49.517326397807778 13.874885726152298 -1 0 0 I I #
point $-1 -71.539048432874537 49.517326397807778 7.5673167956174714 #
point $-1 -71.539048432874537 49.517326397807778 13.874885726152298 #
point $-1 -66.114715610682168 41.419620593221225 8.4239608005131892 #
point $-1 -66.114715610682168 46.278244075973149 8.4239608005131892 #
straight-curve $-1 -49.425529975352035 -65.842621871836627 0 0 0 -1 I I #
point $-1 -49.425529975352035 -65.842621871836627 13.874885726152298 #
End-of-ACIS-data 