500 0 11 0           
7 Unknown 11 ACIS 5.0 NT 24 Thu Mar 25 19:17:22 1999 
-1 9.9999999999999995e-007 1e-010 
body $-1 $11 $-1 $12 #
body $-1 $13 $-1 $14 #
body $-1 $15 $-1 $16 #
body $-1 $17 $-1 $18 #
body $-1 $19 $-1 $20 #
body $-1 $21 $-1 $22 #
body $-1 $23 $-1 $24 #
body $-1 $25 $-1 $26 #
body $-1 $27 $-1 $28 #
body $-1 $29 $-1 $30 #
body $-1 $31 $-1 $32 #
lump $-1 $-1 $33 $0 #
transform $-1 1 0 0 0 1 0 0 0 1 62.151554918057805 34.235990650623378 13.720517045376631 1 rotate no_reflect no_shear #
lump $-1 $-1 $34 $1 #
transform $-1 1 0 0 0 1 0 0 0 1 62.151554918057805 34.235990650623378 13.720517045376631 1 rotate no_reflect no_shear #
lump $-1 $-1 $35 $2 #
transform $-1 1 0 0 0 1 0 0 0 1 62.151554918057805 34.235990650623378 13.720517045376631 1 rotate no_reflect no_shear #
lump $-1 $-1 $36 $3 #
transform $-1 1 0 0 0 1 0 0 0 1 62.151554918057805 34.235990650623378 13.720517045376631 1 rotate no_reflect no_shear #
lump $-1 $-1 $37 $4 #
transform $-1 1 0 0 0 1 0 0 0 1 62.151554918057805 34.235990650623378 13.720517045376631 1 rotate no_reflect no_shear #
lump $-1 $-1 $38 $5 #
transform $-1 1 0 0 0 1 0 0 0 1 62.151554918057805 34.235990650623378 13.720517045376631 1 rotate no_reflect no_shear #
lump $-1 $-1 $39 $6 #
transform $-1 1 0 0 0 1 0 0 0 1 62.151554918057805 34.235990650623378 13.720517045376631 1 rotate no_reflect no_shear #
lump $-1 $-1 $40 $7 #
transform $-1 1 0 0 0 1 0 0 0 1 62.151554918057805 34.235990650623378 13.720517045376631 1 rotate no_reflect no_shear #
lump $-1 $-1 $41 $8 #
transform $-1 1 0 0 0 1 0 0 0 1 62.151554918057805 34.235990650623378 13.720517045376631 1 rotate no_reflect no_shear #
lump $-1 $-1 $42 $9 #
transform $-1 1 0 0 0 1 0 0 0 1 62.151554918057805 34.235990650623378 13.720517045376631 1 rotate no_reflect no_shear #
lump $-1 $-1 $43 $10 #
transform $-1 1 0 0 0 1 0 0 0 1 62.151554918057805 34.235990650623378 13.720517045376631 1 rotate no_reflect no_shear #
shell $-1 $-1 $-1 $44 $-1 $11 #
shell $-1 $-1 $-1 $45 $-1 $13 #
shell $-1 $-1 $-1 $46 $-1 $15 #
shell $-1 $-1 $-1 $47 $-1 $17 #
shell $-1 $-1 $-1 $48 $-1 $19 #
shell $-1 $-1 $-1 $49 $-1 $21 #
shell $-1 $-1 $-1 $50 $-1 $23 #
shell $-1 $-1 $-1 $51 $-1 $25 #
shell $-1 $-1 $-1 $52 $-1 $27 #
shell $-1 $-1 $-1 $53 $-1 $29 #
shell $-1 $-1 $-1 $54 $-1 $31 #
face $-1 $55 $56 $33 $-1 $57 forward single #
face $-1 $58 $59 $34 $-1 $60 forward single #
face $-1 $61 $62 $35 $-1 $63 forward single #
face $-1 $64 $65 $36 $-1 $66 reversed single #
face $-1 $67 $68 $37 $-1 $69 forward single #
face $-1 $70 $71 $38 $-1 $72 forward single #
face $-1 $73 $74 $39 $-1 $75 reversed single #
face $-1 $76 $77 $40 $-1 $78 forward single #
face $-1 $79 $80 $41 $-1 $81 forward single #
face $-1 $82 $83 $42 $-1 $84 reversed single #
face $-1 $85 $86 $43 $-1 $87 forward single #
face $-1 $88 $89 $33 $-1 $90 reversed single #
loop $-1 $-1 $91 $44 #
plane-surface $-1 0 0 13.720517045376631 0 0 1 1 0 0 forward_v I I I I #
face $-1 $92 $93 $34 $-1 $94 reversed single #
loop $-1 $-1 $95 $45 #
plane-surface $-1 0 -34.235990650623378 0 0 1 0 0 0 1 forward_v I I I I #
face $-1 $96 $97 $35 $-1 $98 reversed single #
loop $-1 $-1 $99 $46 #
plane-surface $-1 0 34.235990650623378 0 0 -1 0 0 0 -1 forward_v I I I I #
face $-1 $100 $101 $36 $-1 $102 reversed single #
loop $-1 $-1 $103 $47 #
plane-surface $-1 -136.95903478900226 -21.571995709443421 107.04489995640876 0 1 0 -0.6018150307709319 0 0.79863550430605224 forward_v I I I I #
face $-1 $104 $105 $37 $-1 $106 forward single #
loop $-1 $107 $108 $48 #
cone-surface $-1 -57.903688467965772 -19.810678185433886 10.346952343351262 0.6018150307709319 0 -0.79863550430605224 0.39931775215302612 0 0.30090751538546595 1 I I 0 1 0.5 forward I I I I #
face $-1 $109 $110 $38 $-1 $111 forward single #
loop $-1 $112 $113 $49 #
cone-surface $-1 -57.903688467965772 -17.168701899419588 10.346952343351262 0.6018150307709319 0 -0.79863550430605224 0.39931775215302612 0 0.30090751538546595 1 I I 0 1 0.5 forward I I I I #
face $-1 $114 $115 $39 $-1 $116 reversed single #
loop $-1 $-1 $117 $50 #
plane-surface $-1 -136.95903478900226 -8.8817841970012523e-016 107.04489995640876 0 1 0 -0.6018150307709319 0 0.79863550430605224 forward_v I I I I #
face $-1 $118 $119 $40 $-1 $120 forward single #
loop $-1 $121 $122 $51 #
cone-surface $-1 -57.903688467965772 1.7613175240095345 10.346952343351262 0.6018150307709319 0 -0.79863550430605224 0.39931775215302612 0 0.30090751538546595 1 I I 0 1 0.5 forward I I I I #
face $-1 $123 $124 $41 $-1 $125 forward single #
loop $-1 $126 $127 $52 #
cone-surface $-1 -57.903688467965772 4.4032938100238326 10.346952343351262 0.6018150307709319 0 -0.79863550430605224 0.39931775215302612 0 0.30090751538546595 1 I I 0 1 0.5 forward I I I I #
face $-1 $128 $129 $42 $-1 $130 reversed single #
loop $-1 $-1 $131 $53 #
plane-surface $-1 98.700591378256149 11.195110280906864 178.50625596578095 0 -1 0 -0.83867057594974714 0 -0.54463902268945019 forward_v I I I I #
face $-1 $132 $133 $43 $-1 $134 forward single #
loop $-1 $135 $136 $54 #
cone-surface $-1 58.472584854965909 5.0519504245386457 9.2600191834120515 -0.83867057594974714 0 -0.54463902268945019 0.54463902268945019 0 -0.83867057594974714 1 I I 0 1 1 forward I I I I #
face $-1 $137 $138 $33 $-1 $139 reversed single #
loop $-1 $-1 $140 $55 #
plane-surface $-1 0 0 -13.720517045376631 0 0 1 1 0 0 forward_v I I I I #
coedge $-1 $141 $142 $143 $144 forward $56 $-1 #
face $-1 $145 $146 $34 $-1 $147 reversed single #
loop $-1 $-1 $148 $58 #
plane-surface $-1 0 0 -13.720517045376631 0 0 1 1 0 0 forward_v I I I I #
coedge $-1 $149 $150 $151 $152 forward $59 $-1 #
face $-1 $153 $154 $35 $-1 $155 forward single #
loop $-1 $-1 $156 $61 #
plane-surface $-1 -62.151554918057805 0 0 1 0 0 0 0 -1 forward_v I I I I #
coedge $-1 $157 $158 $159 $160 forward $62 $-1 #
face $-1 $161 $162 $36 $-1 $163 reversed single #
loop $-1 $-1 $164 $64 #
plane-surface $-1 -62.151554918057812 -18.489690042426737 7.7720231456319482 -0.6018150307709319 0 0.79863550430605224 0.79863550430605224 0 0.6018150307709319 forward_v I I I I #
coedge $-1 $165 $166 $167 $168 reversed $65 $-1 #
face $-1 $-1 $169 $37 $-1 $170 forward single #
loop $-1 $171 $172 $67 #
cone-surface $-1 -57.452327194887573 -19.810678185433886 9.7479757151217221 0.6018150307709319 0 -0.79863550430605224 0.19965887607651306 0 0.15045375769273298 1 I I -0.70710678118654746 0.70710678118654746 0.25 forward I I I I #
loop $-1 $-1 $173 $48 #
coedge $-1 $108 $108 $174 $175 reversed $68 $-1 #
face $-1 $-1 $176 $38 $-1 $177 forward single #
loop $-1 $178 $179 $70 #
cone-surface $-1 -57.452327194887573 -17.168701899419588 9.7479757151217221 0.6018150307709319 0 -0.79863550430605224 0.19965887607651306 0 0.15045375769273298 1 I I -0.70710678118654746 0.70710678118654746 0.25 forward I I I I #
loop $-1 $-1 $180 $49 #
coedge $-1 $113 $113 $181 $182 reversed $71 $-1 #
face $-1 $183 $184 $39 $-1 $185 reversed single #
loop $-1 $-1 $186 $73 #
plane-surface $-1 -62.151554918057812 3.0823056670166835 7.7720231456319482 -0.6018150307709319 0 0.79863550430605224 0.79863550430605224 0 0.6018150307709319 forward_v I I I I #
coedge $-1 $187 $188 $189 $190 reversed $74 $-1 #
face $-1 $-1 $191 $40 $-1 $192 forward single #
loop $-1 $193 $194 $76 #
cone-surface $-1 -57.452327194887573 1.7613175240095345 9.7479757151217221 0.6018150307709319 0 -0.79863550430605224 0.19965887607651306 0 0.15045375769273298 1 I I -0.70710678118654746 0.70710678118654746 0.25 forward I I I I #
loop $-1 $-1 $195 $51 #
coedge $-1 $122 $122 $196 $197 reversed $77 $-1 #
face $-1 $-1 $198 $41 $-1 $199 forward single #
loop $-1 $200 $201 $79 #
cone-surface $-1 -57.452327194887573 4.4032938100238326 9.7479757151217221 0.6018150307709319 0 -0.79863550430605224 0.19965887607651306 0 0.15045375769273298 1 I I -0.70710678118654746 0.70710678118654746 0.25 forward I I I I #
loop $-1 $-1 $202 $52 #
coedge $-1 $127 $127 $203 $204 reversed $80 $-1 #
face $-1 $205 $206 $42 $-1 $207 reversed single #
loop $-1 $-1 $208 $82 #
plane-surface $-1 -5.5487693403436111 5.0519504245386457 110.80593170737956 0.83867057594974714 0 0.54463902268945019 0.54463902268945019 0 -0.83867057594974714 forward_v I I I I #
coedge $-1 $209 $210 $211 $212 reversed $83 $-1 #
face $-1 $-1 $213 $43 $-1 $214 forward single #
loop $-1 $215 $216 $85 #
cone-surface $-1 56.700439912261096 5.0519504245386457 8.1091748384011524 -0.83867057594974714 0 -0.54463902268945019 0.2723195113447251 0 -0.41933528797487357 1 I I -0.70710678118654746 0.70710678118654746 0.5 forward I I I I #
loop $-1 $-1 $217 $54 #
coedge $-1 $136 $136 $218 $219 reversed $86 $-1 #
face $-1 $220 $221 $33 $-1 $222 reversed single #
loop $-1 $-1 $223 $88 #
plane-surface $-1 0 -34.235990650623378 0 0 1 0 0 0 1 forward_v I I I I #
coedge $-1 $224 $225 $226 $227 forward $89 $-1 #
coedge $-1 $228 $91 $229 $230 forward $56 $-1 #
coedge $-1 $91 $228 $231 $232 forward $56 $-1 #
coedge $-1 $233 $234 $91 $144 reversed $235 $-1 #
edge $-1 $236 -34.235990650623378 $237 34.235990650623378 $143 $238 forward 7 unknown #
face $-1 $239 $240 $34 $-1 $241 forward single #
loop $-1 $-1 $242 $92 #
plane-surface $-1 62.151554918057805 0 0 -1 0 0 0 0 1 forward_v I I I I #
coedge $-1 $243 $244 $245 $246 forward $93 $-1 #
coedge $-1 $245 $95 $242 $247 reversed $59 $-1 #
coedge $-1 $95 $245 $248 $249 reversed $59 $-1 #
coedge $-1 $250 $251 $95 $152 reversed $240 $-1 #
edge $-1 $252 -62.151554918057805 $253 62.151554918057805 $151 $254 forward 7 unknown #
face $-1 $255 $256 $35 $-1 $257 reversed single #
loop $-1 $-1 $258 $96 #
plane-surface $-1 0 40.567988121213361 -7.1189078765787883 0 0 1 1 0 0 forward_v I I I I #
coedge $-1 $259 $260 $157 $261 forward $97 $-1 #
coedge $-1 $262 $99 $156 $261 reversed $62 $-1 #
coedge $-1 $99 $262 $263 $264 reversed $62 $-1 #
coedge $-1 $258 $265 $99 $160 reversed $154 $-1 #
edge $-1 $266 -62.151554918057805 $267 62.151554918057805 $159 $268 forward 7 unknown #
face $-1 $269 $270 $36 $-1 $271 reversed single #
loop $-1 $-1 $272 $100 #
plane-surface $-1 -136.95903478900226 -15.407384375410054 107.04489995640876 0 -1 0 0.6018150307709319 0 -0.79863550430605224 forward_v I I I I #
coedge $-1 $273 $274 $275 $276 reversed $101 $-1 #
coedge $-1 $166 $103 $277 $278 reversed $65 $-1 #
coedge $-1 $103 $165 $273 $279 reversed $65 $-1 #
coedge $-1 $275 $280 $103 $168 forward $281 $-1 #
edge $-1 $282 6.3279624764433251 $283 14.221880345856448 $167 $284 forward 7 unknown #
loop $-1 $-1 $174 $104 #
plane-surface $-1 -62.151554918057812 -18.489690042426737 7.7720231456319482 -0.6018150307709319 0 0.79863550430605224 0.79863550430605224 0 0.6018150307709319 forward_v I I I I #
loop $-1 $-1 $285 $67 #
coedge $-1 $172 $172 $173 $286 reversed $105 $-1 #
coedge $-1 $173 $173 $172 $286 forward $107 $-1 #
coedge $-1 $174 $174 $108 $175 forward $169 $-1 #
edge $-1 $287 0 $287 6.2831853071796004 $174 $288 forward 7 unknown #
loop $-1 $-1 $181 $109 #
plane-surface $-1 -62.151554918057812 -18.489690042426737 7.7720231456319482 -0.6018150307709319 0 0.79863550430605224 0.79863550430605224 0 0.6018150307709319 forward_v I I I I #
loop $-1 $-1 $289 $70 #
coedge $-1 $179 $179 $180 $290 reversed $110 $-1 #
coedge $-1 $180 $180 $179 $290 forward $112 $-1 #
coedge $-1 $181 $181 $113 $182 forward $176 $-1 #
edge $-1 $291 0 $291 6.2831853071796004 $181 $292 forward 7 unknown #
face $-1 $293 $294 $39 $-1 $295 forward single #
loop $-1 $-1 $296 $114 #
plane-surface $-1 -136.95903478900226 6.1646113340333679 107.04489995640876 0 -1 0 0.6018150307709319 0 -0.79863550430605224 forward_v I I I I #
coedge $-1 $297 $298 $299 $300 reversed $115 $-1 #
coedge $-1 $188 $117 $301 $302 reversed $74 $-1 #
coedge $-1 $117 $187 $297 $303 reversed $74 $-1 #
coedge $-1 $299 $304 $117 $190 forward $294 $-1 #
edge $-1 $305 6.3279624764433251 $306 14.221880345856448 $189 $307 forward 7 unknown #
loop $-1 $-1 $196 $118 #
plane-surface $-1 -62.151554918057812 3.0823056670166835 7.7720231456319482 -0.6018150307709319 0 0.79863550430605224 0.79863550430605224 0 0.6018150307709319 forward_v I I I I #
loop $-1 $-1 $308 $76 #
coedge $-1 $194 $194 $195 $309 reversed $119 $-1 #
coedge $-1 $195 $195 $194 $309 forward $121 $-1 #
coedge $-1 $196 $196 $122 $197 forward $191 $-1 #
edge $-1 $310 0 $310 6.2831853071796004 $196 $311 forward 7 unknown #
loop $-1 $-1 $203 $123 #
plane-surface $-1 -62.151554918057812 3.0823056670166835 7.7720231456319482 -0.6018150307709319 0 0.79863550430605224 0.79863550430605224 0 0.6018150307709319 forward_v I I I I #
loop $-1 $-1 $312 $79 #
coedge $-1 $201 $201 $202 $313 reversed $124 $-1 #
coedge $-1 $202 $202 $201 $313 forward $126 $-1 #
coedge $-1 $203 $203 $127 $204 forward $198 $-1 #
edge $-1 $314 0 $314 6.2831853071796004 $203 $315 forward 7 unknown #
face $-1 $316 $317 $42 $-1 $318 forward single #
loop $-1 $-1 $319 $128 #
plane-surface $-1 98.700591378256149 -1.0912094318295722 178.50625596578095 0 1 0 0.83867057594974714 0 0.54463902268945019 forward_v I I I I #
coedge $-1 $320 $321 $322 $323 reversed $129 $-1 #
coedge $-1 $210 $131 $324 $325 reversed $83 $-1 #
coedge $-1 $131 $209 $320 $326 reversed $83 $-1 #
coedge $-1 $322 $327 $131 $212 forward $317 $-1 #
edge $-1 $328 -12.80125922892973 $329 -8.1489384122058013 $211 $330 forward 7 unknown #
loop $-1 $-1 $218 $132 #
plane-surface $-1 -5.5487693403436111 5.0519504245386457 110.80593170737956 0.83867057594974714 0 0.54463902268945019 0.54463902268945019 0 -0.83867057594974714 forward_v I I I I #
loop $-1 $-1 $331 $85 #
coedge $-1 $216 $216 $217 $332 reversed $133 $-1 #
coedge $-1 $217 $217 $216 $332 forward $135 $-1 #
coedge $-1 $218 $218 $136 $219 forward $213 $-1 #
edge $-1 $333 0 $333 6.2831853071796004 $218 $334 forward 7 unknown #
face $-1 $335 $336 $33 $-1 $337 reversed single #
loop $-1 $-1 $338 $137 #
plane-surface $-1 -62.151554918057805 0 0 1 0 0 0 0 -1 forward_v I I I I #
coedge $-1 $339 $231 $340 $341 forward $138 $-1 #
coedge $-1 $342 $140 $339 $343 forward $89 $-1 #
coedge $-1 $140 $342 $344 $345 forward $89 $-1 #
coedge $-1 $234 $233 $140 $227 reversed $235 $-1 #
edge $-1 $346 -34.235990650623378 $347 34.235990650623378 $226 $348 forward 7 unknown #
coedge $-1 $142 $141 $349 $350 forward $56 $-1 #
coedge $-1 $351 $352 $141 $230 reversed $336 $-1 #
edge $-1 $237 -62.151554918057805 $353 62.151554918057805 $229 $354 forward 7 unknown #
coedge $-1 $223 $355 $142 $232 reversed $138 $-1 #
edge $-1 $356 -62.151554918057805 $236 62.151554918057805 $231 $357 forward 7 unknown #
coedge $-1 $226 $143 $355 $358 forward $235 $-1 #
coedge $-1 $143 $226 $351 $359 reversed $235 $-1 #
loop $-1 $-1 $233 $335 #
vertex $-1 $144 $360 #
vertex $-1 $144 $361 #
straight-curve $-1 62.151554918057805 0 13.720517045376631 0 1 0 I I #
face $-1 $362 $363 $34 $-1 $364 reversed single #
loop $-1 $-1 $251 $145 #
plane-surface $-1 0 -40.567988121213354 -7.1189078765787883 0 0 1 1 0 0 forward_v I I I I #
coedge $-1 $365 $366 $149 $247 forward $146 $-1 #
coedge $-1 $367 $148 $366 $368 forward $93 $-1 #
coedge $-1 $148 $367 $369 $370 forward $93 $-1 #
coedge $-1 $150 $149 $148 $246 reversed $59 $-1 #
edge $-1 $371 -62.151554918057805 $372 62.151554918057805 $148 $373 forward 7 unknown #
edge $-1 $372 -13.720517045376631 $253 -7.1189078765787883 $242 $374 forward 7 unknown #
coedge $-1 $369 $375 $150 $249 forward $376 $-1 #
edge $-1 $252 7.1189078765787883 $371 13.720517045376631 $248 $377 forward 7 unknown #
coedge $-1 $378 $151 $375 $379 forward $240 $-1 #
coedge $-1 $151 $378 $365 $380 forward $240 $-1 #
vertex $-1 $249 $381 #
vertex $-1 $380 $382 #
straight-curve $-1 0 -34.235990650623378 -7.1189078765787883 1 0 0 I I #
face $-1 $383 $384 $35 $-1 $385 reversed single #
loop $-1 $-1 $386 $153 #
plane-surface $-1 0 46.899985591803336 -10.41971246097771 0 -1 0 0 0 -1 forward_v I I I I #
coedge $-1 $387 $159 $388 $389 forward $154 $-1 #
coedge $-1 $390 $156 $265 $391 reversed $97 $-1 #
coedge $-1 $156 $390 $392 $393 reversed $97 $-1 #
edge $-1 $394 -13.720517045376631 $267 -7.1189078765787883 $156 $395 forward 7 unknown #
coedge $-1 $158 $157 $396 $397 reversed $62 $-1 #
coedge $-1 $398 $388 $158 $264 forward $399 $-1 #
edge $-1 $266 7.1189078765787883 $400 13.720517045376631 $263 $401 forward 7 unknown #
coedge $-1 $159 $387 $259 $391 forward $154 $-1 #
vertex $-1 $264 $402 #
vertex $-1 $391 $403 #
straight-curve $-1 0 34.235990650623378 -7.1189078765787883 -1 0 0 I I #
face $-1 $-1 $281 $36 $-1 $404 forward single #
loop $-1 $-1 $405 $161 #
plane-surface $-1 -62.151554918057805 0 0 1 0 0 0 0 -1 forward_v I I I I #
coedge $-1 $406 $407 $408 $409 reversed $162 $-1 #
coedge $-1 $410 $164 $166 $279 forward $101 $-1 #
coedge $-1 $164 $410 $406 $411 forward $101 $-1 #
coedge $-1 $408 $167 $164 $276 forward $281 $-1 #
edge $-1 $283 -12.327150688230052 $412 -6.1625393541966851 $275 $413 forward 7 unknown #
coedge $-1 $414 $415 $165 $278 forward $270 $-1 #
edge $-1 $416 -45.750426832572423 $282 -39.801932932827746 $277 $417 forward 7 unknown #
edge $-1 $283 -9.8842561179048598 $416 -8.8817612989391469e-015 $166 $418 forward 7 unknown #
coedge $-1 $167 $408 $414 $419 forward $281 $-1 #
loop $-1 $-1 $408 $269 #
vertex $-1 $278 $420 #
vertex $-1 $168 $421 #
straight-curve $-1 -68.47951739450113 -21.571995709443421 13.720517045376631 1 0 0 I I #
coedge $-1 $285 $285 $-1 $422 reversed $171 $-1 #
edge $-1 $423 0 $423 6.2831853071796004 $172 $424 forward 7 unknown #
vertex $-1 $175 $425 #
ellipse-curve $-1 -58.20459598335124 -19.810678185433886 10.746270095504293 -0.6018150307709319 0 0.79863550430605224 0.39931775215302612 0 0.30090751538546595 1 I I #
coedge $-1 $289 $289 $-1 $426 reversed $178 $-1 #
edge $-1 $427 0 $427 6.2831853071796004 $179 $428 forward 7 unknown #
vertex $-1 $182 $429 #
ellipse-curve $-1 -58.20459598335124 -17.168701899419588 10.746270095504293 -0.6018150307709319 0 0.79863550430605224 0.39931775215302612 0 0.30090751538546595 1 I I #
face $-1 $-1 $430 $39 $-1 $431 reversed single #
loop $-1 $-1 $189 $183 #
plane-surface $-1 0 0 13.720517045376631 0 0 1 1 0 0 forward_v I I I I #
coedge $-1 $432 $433 $434 $435 reversed $184 $-1 #
coedge $-1 $436 $186 $188 $303 forward $115 $-1 #
coedge $-1 $186 $436 $432 $437 forward $115 $-1 #
coedge $-1 $434 $189 $186 $300 forward $294 $-1 #
edge $-1 $306 -1.5411528335083426 $438 4.6234585005250262 $299 $439 forward 7 unknown #
coedge $-1 $440 $441 $187 $302 forward $430 $-1 #
edge $-1 $442 -45.750426832572423 $305 -39.801932932827746 $301 $443 forward 7 unknown #
edge $-1 $306 -9.8842561179048598 $442 -8.8817612989391469e-015 $188 $444 forward 7 unknown #
coedge $-1 $189 $434 $440 $445 forward $294 $-1 #
vertex $-1 $190 $446 #
vertex $-1 $190 $447 #
straight-curve $-1 -68.47951739450113 -8.8817841970012523e-016 13.720517045376631 1 0 0 I I #
coedge $-1 $308 $308 $-1 $448 reversed $193 $-1 #
edge $-1 $449 0 $449 6.2831853071796004 $194 $450 forward 7 unknown #
vertex $-1 $197 $451 #
ellipse-curve $-1 -58.20459598335124 1.7613175240095345 10.746270095504293 -0.6018150307709319 0 0.79863550430605224 0.39931775215302612 0 0.30090751538546595 1 I I #
coedge $-1 $312 $312 $-1 $452 reversed $200 $-1 #
edge $-1 $453 0 $453 6.2831853071796004 $201 $454 forward 7 unknown #
vertex $-1 $204 $455 #
ellipse-curve $-1 -58.20459598335124 4.4032938100238326 10.746270095504293 -0.6018150307709319 0 0.79863550430605224 0.39931775215302612 0 0.30090751538546595 1 I I #
face $-1 $-1 $456 $42 $-1 $457 reversed single #
loop $-1 $-1 $211 $205 #
plane-surface $-1 0 0 13.720517045376631 0 0 1 1 0 0 forward_v I I I I #
coedge $-1 $458 $459 $460 $461 reversed $206 $-1 #
coedge $-1 $462 $208 $210 $326 forward $129 $-1 #
coedge $-1 $208 $462 $458 $463 forward $129 $-1 #
coedge $-1 $460 $211 $208 $323 forward $317 $-1 #
edge $-1 $329 -8.6691350686375408 $464 3.6171846440988951 $322 $465 forward 7 unknown #
coedge $-1 $466 $467 $209 $325 forward $456 $-1 #
edge $-1 $468 -82.696556994110722 $328 -75.532610937513851 $324 $469 forward 7 unknown #
edge $-1 $329 115.76108360789834 $468 124.30310983611567 $210 $470 forward 7 unknown #
coedge $-1 $211 $460 $466 $471 forward $317 $-1 #
vertex $-1 $325 $472 #
vertex $-1 $212 $473 #
straight-curve $-1 49.350295689128075 11.195110280906864 13.720517045376639 -1 0 0 I I #
coedge $-1 $331 $331 $-1 $474 reversed $215 $-1 #
edge $-1 $475 0 $475 6.2831853071796004 $216 $476 forward 7 unknown #
vertex $-1 $219 $477 #
ellipse-curve $-1 59.825394509695819 5.0519504245386457 10.138544017078209 0.83867057594974714 0 0.54463902268945019 0.54463902268945019 0 -0.83867057594974714 1 I I #
face $-1 $-1 $235 $33 $-1 $478 reversed single #
loop $-1 $-1 $351 $220 #
plane-surface $-1 0 34.235990650623378 0 0 -1 0 0 0 -1 forward_v I I I I #
coedge $-1 $479 $349 $352 $480 forward $221 $-1 #
coedge $-1 $355 $223 $224 $343 reversed $138 $-1 #
coedge $-1 $349 $479 $223 $341 reversed $221 $-1 #
edge $-1 $356 -13.720517045376631 $481 13.720517045376631 $340 $482 forward 7 unknown #
coedge $-1 $225 $224 $479 $483 forward $89 $-1 #
edge $-1 $347 -62.151554918057805 $481 62.151554918057805 $339 $484 forward 7 unknown #
coedge $-1 $352 $351 $225 $345 reversed $336 $-1 #
edge $-1 $485 -62.151554918057805 $346 62.151554918057805 $344 $486 forward 7 unknown #
vertex $-1 $227 $487 #
vertex $-1 $358 $488 #
straight-curve $-1 62.151554918057805 0 -13.720517045376631 0 -1 0 I I #
coedge $-1 $338 $340 $228 $350 reversed $221 $-1 #
edge $-1 $353 -34.235990650623378 $356 34.235990650623378 $349 $489 forward 7 unknown #
coedge $-1 $344 $229 $234 $359 forward $336 $-1 #
coedge $-1 $229 $344 $338 $480 reversed $336 $-1 #
vertex $-1 $230 $490 #
straight-curve $-1 0 34.235990650623378 13.720517045376631 -1 0 0 I I #
coedge $-1 $231 $339 $233 $358 reversed $138 $-1 #
vertex $-1 $350 $491 #
straight-curve $-1 0 -34.235990650623378 13.720517045376631 1 0 0 I I #
edge $-1 $236 -13.720517045376631 $347 13.720517045376631 $233 $492 forward 7 unknown #
edge $-1 $237 -13.720517045376631 $346 13.720517045376631 $234 $493 forward 7 unknown #
point $-1 62.151554918057805 -34.235990650623378 13.720517045376631 #
point $-1 62.151554918057805 34.235990650623378 13.720517045376631 #
face $-1 $-1 $376 $34 $-1 $494 reversed single #
loop $-1 $-1 $495 $239 #
plane-surface $-1 0 -46.899985591803329 -10.41971246097771 0 1 0 0 0 1 forward_v I I I I #
coedge $-1 $496 $242 $251 $380 reversed $146 $-1 #
coedge $-1 $242 $496 $243 $368 reversed $146 $-1 #
coedge $-1 $244 $243 $497 $498 forward $93 $-1 #
edge $-1 $372 34.235990650623378 $499 46.899985591803329 $366 $500 forward 7 unknown #
coedge $-1 $501 $248 $244 $370 reversed $376 $-1 #
edge $-1 $502 -46.899985591803329 $371 -34.235990650623378 $369 $503 forward 7 unknown #
vertex $-1 $249 $504 #
vertex $-1 $368 $505 #
straight-curve $-1 0 -34.235990650623378 -13.720517045376631 1 0 0 I I #
straight-curve $-1 62.151554918057805 -34.235990650623378 0 0 0 1 I I #
coedge $-1 $248 $501 $250 $379 reversed $376 $-1 #
loop $-1 $-1 $248 $362 #
straight-curve $-1 -62.151554918057805 -34.235990650623378 0 0 0 -1 I I #
coedge $-1 $251 $250 $506 $507 forward $240 $-1 #
edge $-1 $252 -6.3319974705899753 $508 6.3319974705899753 $375 $509 forward 7 unknown #
edge $-1 $510 -6.3319974705899753 $253 6.3319974705899753 $365 $511 forward 7 unknown #
point $-1 -62.151554918057805 -34.235990650623378 -7.1189078765787883 #
point $-1 62.151554918057805 -34.235990650623378 -7.1189078765787883 #
face $-1 $-1 $399 $35 $-1 $512 reversed single #
loop $-1 $-1 $396 $255 #
plane-surface $-1 0 0 -13.720517045376631 0 0 1 1 0 0 forward_v I I I I #
coedge $-1 $513 $514 $515 $516 forward $256 $-1 #
coedge $-1 $265 $258 $514 $517 forward $154 $-1 #
coedge $-1 $263 $515 $258 $389 reversed $399 $-1 #
edge $-1 $266 -6.3319974705899753 $518 6.3319974705899753 $388 $519 forward 7 unknown #
coedge $-1 $260 $259 $520 $521 forward $97 $-1 #
edge $-1 $522 -6.3319974705899753 $267 6.3319974705899753 $259 $523 forward 7 unknown #
coedge $-1 $524 $396 $260 $393 forward $384 $-1 #
edge $-1 $394 -6.3319974705899824 $525 6.3319974705899753 $260 $526 forward 7 unknown #
vertex $-1 $393 $527 #
straight-curve $-1 -62.151554918057805 34.235990650623378 0 0 0 1 I I #
coedge $-1 $392 $528 $262 $397 forward $384 $-1 #
edge $-1 $400 -62.151554918057805 $394 62.151554918057805 $396 $529 forward 7 unknown #
coedge $-1 $515 $263 $528 $530 reversed $399 $-1 #
loop $-1 $-1 $263 $383 #
vertex $-1 $264 $531 #
straight-curve $-1 62.151554918057805 34.235990650623378 0 0 0 -1 I I #
point $-1 62.151554918057805 34.235990650623386 -7.1189078765787883 #
point $-1 -62.151554918057805 34.235990650623386 -7.1189078765787883 #
plane-surface $-1 0 0 13.720517045376631 0 0 1 1 0 0 forward_v I I I I #
coedge $-1 $415 $414 $407 $532 forward $270 $-1 #
coedge $-1 $407 $272 $274 $411 reversed $162 $-1 #
coedge $-1 $272 $406 $405 $532 reversed $162 $-1 #
coedge $-1 $280 $275 $272 $409 forward $281 $-1 #
edge $-1 $412 -14.221880345856448 $533 -6.3279624764433251 $408 $534 forward 7 unknown #
coedge $-1 $274 $273 $415 $535 reversed $101 $-1 #
edge $-1 $536 8.8817612989391469e-015 $412 9.8842561179048598 $406 $537 forward 7 unknown #
vertex $-1 $276 $538 #
straight-curve $-1 -54.257637048644682 -9.2448450212133686 13.720517045376633 0 1 0 I I #
coedge $-1 $405 $277 $280 $419 reversed $270 $-1 #
coedge $-1 $277 $405 $410 $535 forward $270 $-1 #
vertex $-1 $278 $539 #
straight-curve $-1 -62.151554918057805 -21.571995709443421 53.522449978204378 0 0 1 I I #
straight-curve $-1 -62.151554918057812 -21.571995709443421 7.7720231456319482 -0.79863550430605224 0 -0.6018150307709319 I I #
edge $-1 $533 15.407384375410054 $282 21.571995709443421 $414 $540 forward 7 unknown #
point $-1 -62.151554918057805 -21.571995709443421 13.720517045376631 #
point $-1 -54.257637048644682 -21.571995709443421 13.720517045376631 #
edge $-1 $541 1 $541 0 $285 $-1 forward 7 unknown #
vertex $-1 $286 $542 #
ellipse-curve $-1 -57.602780952580304 -19.810678185433886 9.947634591198236 -0.6018150307709319 0 0.79863550430605224 0.39931775215302612 0 0.30090751538546595 1 I I #
point $-1 -57.805278231198209 -19.810678185433886 11.047177610889753 #
edge $-1 $543 1 $543 0 $289 $-1 forward 7 unknown #
vertex $-1 $290 $544 #
ellipse-curve $-1 -57.602780952580304 -17.168701899419588 9.947634591198236 -0.6018150307709319 0 0.79863550430605224 0.39931775215302612 0 0.30090751538546595 1 I I #
point $-1 -57.805278231198209 -17.168701899419588 11.047177610889753 #
loop $-1 $-1 $301 $293 #
plane-surface $-1 -62.151554918057805 0 0 1 0 0 0 0 -1 forward_v I I I I #
coedge $-1 $433 $296 $298 $437 reversed $184 $-1 #
coedge $-1 $296 $432 $545 $546 reversed $184 $-1 #
coedge $-1 $304 $299 $296 $435 forward $294 $-1 #
edge $-1 $438 -14.221880345856448 $547 -6.3279624764433251 $434 $548 forward 7 unknown #
coedge $-1 $298 $297 $441 $549 reversed $115 $-1 #
edge $-1 $550 8.8817612989391469e-015 $438 9.8842561179048598 $432 $551 forward 7 unknown #
vertex $-1 $300 $552 #
straight-curve $-1 -54.257637048644682 1.5411528335083418 13.720517045376633 0 1 0 I I #
coedge $-1 $545 $301 $304 $445 reversed $430 $-1 #
coedge $-1 $301 $545 $436 $549 forward $430 $-1 #
vertex $-1 $302 $553 #
straight-curve $-1 -62.151554918057805 -8.8817841970012523e-016 53.522449978204378 0 0 1 I I #
straight-curve $-1 -62.151554918057812 -8.8817841970012523e-016 7.7720231456319482 -0.79863550430605224 0 -0.6018150307709319 I I #
edge $-1 $547 -6.1646113340333679 $305 8.8817841970012523e-016 $440 $554 forward 7 unknown #
point $-1 -62.151554918057805 -8.8817841970012523e-016 13.720517045376631 #
point $-1 -54.257637048644682 -8.8817841970012523e-016 13.720517045376631 #
edge $-1 $555 1 $555 0 $308 $-1 forward 7 unknown #
vertex $-1 $309 $556 #
ellipse-curve $-1 -57.602780952580304 1.7613175240095345 9.947634591198236 -0.6018150307709319 0 0.79863550430605224 0.39931775215302612 0 0.30090751538546595 1 I I #
point $-1 -57.805278231198209 1.7613175240095345 11.047177610889753 #
edge $-1 $557 1 $557 0 $312 $-1 forward 7 unknown #
vertex $-1 $313 $558 #
ellipse-curve $-1 -57.602780952580304 4.4032938100238326 9.947634591198236 -0.6018150307709319 0 0.79863550430605224 0.39931775215302612 0 0.30090751538546595 1 I I #
point $-1 -57.805278231198209 4.4032938100238326 11.047177610889753 #
loop $-1 $-1 $324 $316 #
plane-surface $-1 62.151554918057805 0 0 -1 0 0 0 0 1 forward_v I I I I #
coedge $-1 $459 $319 $321 $463 reversed $206 $-1 #
coedge $-1 $319 $458 $559 $560 reversed $206 $-1 #
coedge $-1 $327 $322 $319 $461 forward $317 $-1 #
edge $-1 $464 8.1489384122058013 $561 12.80125922892973 $460 $562 forward 7 unknown #
coedge $-1 $321 $320 $467 $563 reversed $129 $-1 #
edge $-1 $564 -124.30310983611567 $464 -115.76108360789834 $458 $565 forward 7 unknown #
vertex $-1 $323 $566 #
straight-curve $-1 57.499234101333869 2.5259752122693229 13.720517045376631 0 -1 0 I I #
coedge $-1 $559 $324 $327 $471 reversed $456 $-1 #
coedge $-1 $324 $559 $462 $563 forward $456 $-1 #
vertex $-1 $325 $567 #
straight-curve $-1 62.151554918057805 11.195110280906864 89.253127982890476 0 0 1 I I #
straight-curve $-1 -5.5487693403436111 11.195110280906864 110.80593170737956 0.54463902268945019 0 -0.83867057594974714 I I #
edge $-1 $561 -1.0912094318295722 $328 11.195110280906864 $466 $568 forward 7 unknown #
point $-1 62.151554918057805 11.195110280906864 13.720517045376631 #
point $-1 57.499234101333876 11.195110280906864 13.720517045376624 #
edge $-1 $569 1 $569 0 $331 $-1 forward 7 unknown #
vertex $-1 $332 $570 #
ellipse-curve $-1 57.119775200235971 5.0519504245386457 8.3814943497458767 0.83867057594974714 0 0.54463902268945019 0.54463902268945019 0 -0.83867057594974714 1 I I #
point $-1 60.3700335323853 5.0519504245386457 9.2998734411284794 #
plane-surface $-1 62.151554918057805 0 0 -1 0 0 0 0 1 forward_v I I I I #
coedge $-1 $340 $338 $342 $483 reversed $221 $-1 #
edge $-1 $353 -13.720517045376631 $485 13.720517045376631 $352 $571 forward 7 unknown #
vertex $-1 $483 $572 #
straight-curve $-1 -62.151554918057805 -34.235990650623378 0 0 0 -1 I I #
edge $-1 $481 -34.235990650623378 $485 34.235990650623378 $479 $573 forward 7 unknown #
straight-curve $-1 0 -34.235990650623378 -13.720517045376631 -1 0 0 I I #
vertex $-1 $345 $574 #
straight-curve $-1 0 34.235990650623378 -13.720517045376631 1 0 0 I I #
point $-1 62.151554918057805 34.235990650623378 -13.720517045376631 #
point $-1 62.151554918057805 -34.235990650623378 -13.720517045376631 #
straight-curve $-1 -62.151554918057805 0 13.720517045376631 0 -1 0 I I #
point $-1 -62.151554918057805 34.235990650623378 13.720517045376631 #
point $-1 -62.151554918057805 -34.235990650623378 13.720517045376631 #
straight-curve $-1 62.151554918057805 -34.235990650623378 0 0 0 -1 I I #
straight-curve $-1 62.151554918057805 34.235990650623378 0 0 0 -1 I I #
plane-surface $-1 -62.151554918057805 0 0 1 0 0 0 0 -1 forward_v I I I I #
coedge $-1 $497 $506 $501 $575 forward $363 $-1 #
coedge $-1 $366 $365 $576 $577 forward $146 $-1 #
coedge $-1 $576 $495 $367 $498 reversed $363 $-1 #
edge $-1 $499 -62.151554918057805 $502 62.151554918057805 $497 $578 forward 7 unknown #
vertex $-1 $577 $579 #
straight-curve $-1 62.151554918057805 0 -13.720517045376631 0 -1 0 I I #
coedge $-1 $375 $369 $495 $575 reversed $376 $-1 #
vertex $-1 $370 $580 #
straight-curve $-1 -62.151554918057805 0 -13.720517045376631 0 1 0 I I #
point $-1 -62.151554918057805 -34.235990650623378 -13.720517045376631 #
point $-1 62.151554918057805 -34.235990650623378 -13.720517045376631 #
coedge $-1 $495 $576 $378 $507 reversed $363 $-1 #
edge $-1 $508 -62.151554918057805 $510 62.151554918057805 $506 $581 forward 7 unknown #
vertex $-1 $379 $582 #
straight-curve $-1 -62.151554918057805 -40.567988121213354 -7.1189078765787883 0 -1 0 I I #
vertex $-1 $380 $583 #
straight-curve $-1 62.151554918057805 -40.567988121213354 -7.1189078765787883 0 1 0 I I #
plane-surface $-1 62.151554918057805 0 0 -1 0 0 0 0 1 forward_v I I I I #
coedge $-1 $520 $386 $524 $584 reversed $256 $-1 #
coedge $-1 $386 $520 $387 $517 reversed $256 $-1 #
coedge $-1 $388 $398 $386 $516 reversed $399 $-1 #
edge $-1 $518 -3.3008045843989215 $585 3.3008045843989215 $515 $586 forward 7 unknown #
edge $-1 $518 -62.151554918057805 $522 62.151554918057805 $514 $587 forward 7 unknown #
vertex $-1 $389 $588 #
straight-curve $-1 62.151554918057805 40.567988121213361 -7.1189078765787883 0 1 0 I I #
coedge $-1 $514 $513 $390 $521 reversed $256 $-1 #
edge $-1 $522 -3.3008045843989215 $525 3.3008045843989215 $520 $589 forward 7 unknown #
vertex $-1 $517 $590 #
straight-curve $-1 -62.151554918057805 40.567988121213361 -7.1189078765787883 0 -1 0 I I #
coedge $-1 $528 $392 $513 $584 forward $384 $-1 #
vertex $-1 $584 $591 #
straight-curve $-1 -62.151554918057805 40.567988121213361 -13.720517045376631 0 1 0 I I #
point $-1 -62.151554918057805 34.235990650623378 -13.720517045376631 #
coedge $-1 $396 $524 $398 $530 forward $384 $-1 #
straight-curve $-1 0 34.235990650623378 -13.720517045376631 -1 0 0 I I #
edge $-1 $585 -46.899985591803336 $400 -34.235990650623378 $398 $592 forward 7 unknown #
point $-1 62.151554918057805 34.235990650623378 -13.720517045376631 #
edge $-1 $533 39.801932932827746 $536 45.750426832572423 $405 $593 forward 7 unknown #
vertex $-1 $419 $594 #
straight-curve $-1 -68.47951739450113 -15.407384375410054 13.720517045376631 -1 0 0 I I #
edge $-1 $536 6.1625393541966851 $416 12.327150688230052 $415 $595 forward 7 unknown #
vertex $-1 $535 $596 #
straight-curve $-1 -62.151554918057812 -15.407384375410054 7.7720231456319482 0.79863550430605224 0 0.6018150307709319 I I #
point $-1 -54.257637048644682 -15.407384375410054 13.720517045376631 #
point $-1 -62.151554918057805 -21.571995709443421 7.7720231456319535 #
straight-curve $-1 -62.151554918057805 0 13.720517045376631 0 -1 0 I I #
vertex $-1 $422 $597 #
point $-1 -57.203463200427279 -19.810678185433886 10.248542106583701 #
vertex $-1 $426 $598 #
point $-1 -57.203463200427279 -17.168701899419588 10.248542106583701 #
coedge $-1 $441 $440 $433 $546 forward $430 $-1 #
edge $-1 $547 39.801932932827746 $550 45.750426832572423 $545 $599 forward 7 unknown #
vertex $-1 $445 $600 #
straight-curve $-1 -68.47951739450113 6.1646113340333679 13.720517045376631 -1 0 0 I I #
edge $-1 $550 -4.6234585005250262 $442 1.5411528335083426 $441 $601 forward 7 unknown #
vertex $-1 $549 $602 #
straight-curve $-1 -62.151554918057812 6.1646113340333679 7.7720231456319482 0.79863550430605224 0 0.6018150307709319 I I #
point $-1 -54.257637048644682 6.1646113340333679 13.720517045376631 #
point $-1 -62.151554918057805 -8.8817841970012523e-016 7.7720231456319535 #
straight-curve $-1 -62.151554918057805 0 13.720517045376631 0 -1 0 I I #
vertex $-1 $448 $603 #
point $-1 -57.203463200427279 1.7613175240095345 10.248542106583701 #
vertex $-1 $452 $604 #
point $-1 -57.203463200427279 4.4032938100238326 10.248542106583701 #
coedge $-1 $467 $466 $459 $560 forward $456 $-1 #
edge $-1 $561 75.532610937513851 $564 82.696556994110722 $559 $605 forward 7 unknown #
vertex $-1 $471 $606 #
straight-curve $-1 49.350295689128075 -1.0912094318295722 13.720517045376639 1 0 0 I I #
edge $-1 $564 -3.6171846440988951 $468 8.6691350686375408 $467 $607 forward 7 unknown #
vertex $-1 $563 $608 #
straight-curve $-1 -5.5487693403436111 -1.0912094318295722 110.80593170737956 -0.54463902268945019 0 0.83867057594974714 I I #
point $-1 57.499234101333876 -1.0912094318295722 13.720517045376624 #
point $-1 62.151554918057812 11.195110280906864 6.5565709887797539 #
straight-curve $-1 62.151554918057805 0 13.720517045376631 0 1 0 I I #
vertex $-1 $474 $609 #
point $-1 57.664414222925423 5.0519504245386457 7.5428237737961306 #
straight-curve $-1 -62.151554918057805 34.235990650623378 0 0 0 -1 I I #
point $-1 -62.151554918057805 -34.235990650623378 -13.720517045376631 #
straight-curve $-1 -62.151554918057805 0 -13.720517045376631 0 1 0 I I #
point $-1 -62.151554918057805 34.235990650623378 -13.720517045376631 #
edge $-1 $508 -3.3008045843989215 $502 3.3008045843989215 $501 $610 forward 7 unknown #
coedge $-1 $506 $497 $496 $577 reversed $363 $-1 #
edge $-1 $510 -3.3008045843989215 $499 3.3008045843989215 $496 $611 forward 7 unknown #
straight-curve $-1 0 -46.899985591803329 -13.720517045376631 -1 0 0 I I #
point $-1 62.151554918057805 -46.899985591803329 -13.720517045376631 #
point $-1 -62.151554918057805 -46.899985591803329 -13.720517045376631 #
straight-curve $-1 0 -46.899985591803329 -7.1189078765787883 1 0 0 I I #
point $-1 -62.151554918057805 -46.899985591803329 -7.1189078765787883 #
point $-1 62.151554918057805 -46.899985591803329 -7.1189078765787883 #
edge $-1 $525 -62.151554918057805 $585 62.151554918057805 $513 $612 forward 7 unknown #
vertex $-1 $530 $613 #
straight-curve $-1 62.151554918057805 46.899985591803336 -10.41971246097771 0 0 -1 I I #
straight-curve $-1 0 46.899985591803336 -7.1189078765787883 -1 0 0 I I #
point $-1 62.151554918057805 46.899985591803336 -7.1189078765787883 #
straight-curve $-1 -62.151554918057805 46.899985591803336 -10.41971246097771 0 0 -1 I I #
point $-1 -62.151554918057805 46.899985591803336 -7.1189078765787883 #
point $-1 -62.151554918057805 46.899985591803336 -13.720517045376631 #
straight-curve $-1 62.151554918057805 0 -13.720517045376631 0 -1 0 I I #
straight-curve $-1 -62.151554918057805 -15.407384375410054 53.522449978204378 0 0 -1 I I #
point $-1 -62.151554918057805 -15.407384375410054 13.720517045376631 #
straight-curve $-1 -62.151554918057805 -9.2448450212133686 7.772023145631958 0 -1 0 I I #
point $-1 -62.151554918057805 -15.407384375410054 7.7720231456319535 #
point $-1 -57.301873437194843 -19.810678185433886 9.5483168390452082 #
point $-1 -57.301873437194843 -17.168701899419588 9.5483168390452082 #
straight-curve $-1 -62.151554918057805 6.1646113340333679 53.522449978204378 0 0 -1 I I #
point $-1 -62.151554918057805 6.1646113340333679 13.720517045376631 #
straight-curve $-1 -62.151554918057805 1.5411528335083418 7.772023145631958 0 -1 0 I I #
point $-1 -62.151554918057805 6.1646113340333679 7.7720231456319535 #
point $-1 -57.301873437194843 1.7613175240095345 9.5483168390452082 #
point $-1 -57.301873437194843 4.4032938100238326 9.5483168390452082 #
straight-curve $-1 62.151554918057805 -1.0912094318295722 89.253127982890476 0 0 -1 I I #
point $-1 62.151554918057805 -1.0912094318295722 13.720517045376631 #
straight-curve $-1 62.151554918057812 2.5259752122693229 6.5565709887797539 0 1 0 I I #
point $-1 62.151554918057812 -1.0912094318295722 6.5565709887797539 #
point $-1 56.281104624286222 5.0519504245386457 7.8368553270564272 #
straight-curve $-1 -62.151554918057805 -46.899985591803329 -10.41971246097771 0 0 -1 I I #
straight-curve $-1 62.151554918057805 -46.899985591803329 -10.41971246097771 0 0 -1 I I #
straight-curve $-1 0 46.899985591803336 -13.720517045376631 1 0 0 I I #
point $-1 62.151554918057805 46.899985591803336 -13.720517045376631 #
End-of-ACIS-data 