500 0 20 0           
7 Unknown 11 ACIS 5.0 NT 24 Fri Mar 26 18:13:57 1999 
-1 9.9999999999999995e-007 1e-010 
body $-1 $20 $-1 $21 #
body $-1 $22 $-1 $23 #
body $-1 $24 $-1 $25 #
body $-1 $26 $-1 $27 #
body $-1 $28 $-1 $29 #
body $-1 $30 $-1 $31 #
body $-1 $32 $-1 $33 #
body $-1 $34 $-1 $35 #
body $-1 $36 $-1 $37 #
body $-1 $38 $-1 $39 #
body $-1 $40 $-1 $41 #
body $-1 $42 $-1 $43 #
body $-1 $44 $-1 $45 #
body $-1 $46 $-1 $47 #
body $-1 $48 $-1 $49 #
body $-1 $50 $-1 $51 #
body $-1 $52 $-1 $53 #
body $-1 $54 $-1 $55 #
body $-1 $56 $-1 $57 #
body $-1 $58 $-1 $59 #
lump $-1 $-1 $60 $0 #
transform $-1 1 0 0 0 1 0 0 0 1 49.46928312021241 23.571395530743626 5.3860930130111626 1 rotate no_reflect no_shear #
lump $-1 $-1 $61 $1 #
transform $-1 1 0 0 0 1 0 0 0 1 49.46928312021241 23.571395530743626 5.3860930130111626 1 rotate no_reflect no_shear #
lump $-1 $-1 $62 $2 #
transform $-1 1 0 0 0 1 0 0 0 1 49.46928312021241 23.571395530743626 5.3860930130111626 1 rotate no_reflect no_shear #
lump $-1 $-1 $63 $3 #
transform $-1 1 0 0 0 1 0 0 0 1 49.46928312021241 23.571395530743626 5.3860930130111626 1 rotate no_reflect no_shear #
lump $-1 $-1 $64 $4 #
transform $-1 1 0 0 0 1 0 0 0 1 49.46928312021241 23.571395530743626 5.3860930130111626 1 rotate no_reflect no_shear #
lump $-1 $-1 $65 $5 #
transform $-1 1 0 0 0 1 0 0 0 1 49.46928312021241 23.571395530743626 5.3860930130111626 1 rotate no_reflect no_shear #
lump $-1 $-1 $66 $6 #
transform $-1 1 0 0 0 1 0 0 0 1 49.46928312021241 23.571395530743626 5.3860930130111626 1 rotate no_reflect no_shear #
lump $-1 $-1 $67 $7 #
transform $-1 1 0 0 0 1 0 0 0 1 49.46928312021241 23.571395530743626 5.3860930130111626 1 rotate no_reflect no_shear #
lump $-1 $-1 $68 $8 #
transform $-1 1 0 0 0 1 0 0 0 1 49.46928312021241 23.571395530743626 5.3860930130111626 1 rotate no_reflect no_shear #
lump $-1 $-1 $69 $9 #
transform $-1 1 0 0 0 1 0 0 0 1 49.46928312021241 23.571395530743626 5.3860930130111626 1 rotate no_reflect no_shear #
lump $-1 $-1 $70 $10 #
transform $-1 1 0 0 0 1 0 0 0 1 49.46928312021241 23.571395530743626 5.3860930130111626 1 rotate no_reflect no_shear #
lump $-1 $-1 $71 $11 #
transform $-1 1 0 0 0 1 0 0 0 1 49.46928312021241 23.571395530743626 5.3860930130111626 1 rotate no_reflect no_shear #
lump $-1 $-1 $72 $12 #
transform $-1 1 0 0 0 1 0 0 0 1 49.46928312021241 23.571395530743626 5.3860930130111626 1 rotate no_reflect no_shear #
lump $-1 $-1 $73 $13 #
transform $-1 1 0 0 0 1 0 0 0 1 49.46928312021241 23.571395530743626 5.3860930130111626 1 rotate no_reflect no_shear #
lump $-1 $-1 $74 $14 #
transform $-1 1 0 0 0 1 0 0 0 1 49.46928312021241 23.571395530743626 5.3860930130111626 1 rotate no_reflect no_shear #
lump $-1 $-1 $75 $15 #
transform $-1 1 0 0 0 1 0 0 0 1 49.46928312021241 23.571395530743626 5.3860930130111626 1 rotate no_reflect no_shear #
lump $-1 $-1 $76 $16 #
transform $-1 1 0 0 0 1 0 0 0 1 49.46928312021241 23.571395530743626 5.3860930130111626 1 rotate no_reflect no_shear #
lump $-1 $-1 $77 $17 #
transform $-1 1 0 0 0 1 0 0 0 1 49.46928312021241 23.571395530743626 5.3860930130111626 1 rotate no_reflect no_shear #
lump $-1 $-1 $78 $18 #
transform $-1 1 0 0 0 1 0 0 0 1 49.46928312021241 23.571395530743626 5.3860930130111626 1 rotate no_reflect no_shear #
lump $-1 $-1 $79 $19 #
transform $-1 1 0 0 0 1 0 0 0 1 49.46928312021241 23.571395530743626 5.3860930130111626 1 rotate no_reflect no_shear #
shell $-1 $-1 $-1 $80 $-1 $20 #
shell $-1 $-1 $-1 $81 $-1 $22 #
shell $-1 $-1 $-1 $82 $-1 $24 #
shell $-1 $-1 $-1 $83 $-1 $26 #
shell $-1 $-1 $-1 $84 $-1 $28 #
shell $-1 $-1 $-1 $85 $-1 $30 #
shell $-1 $-1 $-1 $86 $-1 $32 #
shell $-1 $-1 $-1 $87 $-1 $34 #
shell $-1 $-1 $-1 $88 $-1 $36 #
shell $-1 $-1 $-1 $89 $-1 $38 #
shell $-1 $-1 $-1 $90 $-1 $40 #
shell $-1 $-1 $-1 $91 $-1 $42 #
shell $-1 $-1 $-1 $92 $-1 $44 #
shell $-1 $-1 $-1 $93 $-1 $46 #
shell $-1 $-1 $-1 $94 $-1 $48 #
shell $-1 $-1 $-1 $95 $-1 $50 #
shell $-1 $-1 $-1 $96 $-1 $52 #
shell $-1 $-1 $-1 $97 $-1 $54 #
shell $-1 $-1 $-1 $98 $-1 $56 #
shell $-1 $-1 $-1 $99 $-1 $58 #
face $-1 $100 $101 $60 $-1 $102 forward single #
face $-1 $103 $104 $61 $-1 $105 reversed single #
face $-1 $106 $107 $62 $-1 $108 reversed single #
face $-1 $109 $110 $63 $-1 $111 forward single #
face $-1 $112 $113 $64 $-1 $114 forward single #
face $-1 $115 $116 $65 $-1 $117 reversed single #
face $-1 $118 $119 $66 $-1 $120 forward single #
face $-1 $121 $122 $67 $-1 $123 forward single #
face $-1 $124 $125 $68 $-1 $126 reversed single #
face $-1 $127 $128 $69 $-1 $129 forward single #
face $-1 $130 $131 $70 $-1 $132 forward single #
face $-1 $133 $134 $71 $-1 $135 reversed single #
face $-1 $136 $137 $72 $-1 $138 forward single #
face $-1 $139 $140 $73 $-1 $141 forward single #
face $-1 $142 $143 $74 $-1 $144 reversed single #
face $-1 $145 $146 $75 $-1 $147 forward single #
face $-1 $148 $149 $76 $-1 $150 forward single #
face $-1 $151 $152 $77 $-1 $153 reversed single #
face $-1 $154 $155 $78 $-1 $156 forward single #
face $-1 $157 $158 $79 $-1 $159 forward single #
face $-1 $160 $161 $60 $-1 $162 reversed single #
loop $-1 $-1 $163 $80 #
plane-surface $-1 0 0 5.3860930130111626 0 0 1 1 0 0 forward_v I I I I #
face $-1 $164 $165 $61 $-1 $166 reversed single #
loop $-1 $-1 $167 $81 #
plane-surface $-1 -46.900562046318633 0 2.3860930130111626 0 0 1 1 0 0 forward_v I I I I #
face $-1 $168 $169 $62 $-1 $170 reversed single #
loop $-1 $-1 $171 $82 #
plane-surface $-1 -32.221885979624673 65.552395956957341 101.2854601185692 1 0 0 0 -0.74314483375859142 -0.66913059716165679 forward_v I I I I #
face $-1 $172 $173 $63 $-1 $174 forward single #
loop $-1 $175 $176 $83 #
cone-surface $-1 -28.981792828093493 20.164122954835392 1.8130615318328573 0 -0.74314483375859142 -0.66913059716165679 1.5 0 0 1 I I 0 1 1.5 forward I I I I #
face $-1 $177 $178 $64 $-1 $179 forward single #
loop $-1 $180 $181 $84 #
cone-surface $-1 -24.121653100796721 20.164122954835392 1.8130615318328573 0 -0.74314483375859142 -0.66913059716165679 1.5 0 0 1 I I 0 1 1.5 forward I I I I #
face $-1 $182 $183 $65 $-1 $184 reversed single #
loop $-1 $-1 $185 $85 #
plane-surface $-1 -8.7716049564653549 65.552395956957341 101.2854601185692 1 0 0 0 -0.74314483375859142 -0.66913059716165679 forward_v I I I I #
face $-1 $186 $187 $66 $-1 $188 forward single #
loop $-1 $189 $190 $86 #
cone-surface $-1 -5.5315118049341763 20.164122954835392 1.8130615318328573 0 -0.74314483375859142 -0.66913059716165679 1.5 0 0 1 I I 0 1 1.5 forward I I I I #
face $-1 $191 $192 $67 $-1 $193 forward single #
loop $-1 $194 $195 $87 #
cone-surface $-1 -0.67137207763740037 20.164122954835392 1.8130615318328573 0 -0.74314483375859142 -0.66913059716165679 1.5 0 0 1 I I 0 1 1.5 forward I I I I #
face $-1 $196 $197 $68 $-1 $198 reversed single #
loop $-1 $-1 $199 $88 #
plane-surface $-1 14.678676066693965 65.552395956957341 101.2854601185692 1 0 0 0 -0.74314483375859142 -0.66913059716165679 forward_v I I I I #
face $-1 $200 $201 $69 $-1 $202 forward single #
loop $-1 $203 $204 $89 #
cone-surface $-1 17.918769218225137 20.164122954835392 1.8130615318328573 0 -0.74314483375859142 -0.66913059716165679 1.5 0 0 1 I I 0 1 1.5 forward I I I I #
face $-1 $205 $206 $70 $-1 $207 forward single #
loop $-1 $208 $209 $90 #
cone-surface $-1 22.77890894552192 20.164122954835392 1.8130615318328573 0 -0.74314483375859142 -0.66913059716165679 1.5 0 0 1 I I 0 1 1.5 forward I I I I #
face $-1 $210 $211 $71 $-1 $212 reversed single #
loop $-1 $-1 $213 $91 #
plane-surface $-1 38.128957089853287 65.552395956957341 101.2854601185692 1 0 0 0 -0.74314483375859142 -0.66913059716165679 forward_v I I I I #
face $-1 $214 $215 $72 $-1 $216 forward single #
loop $-1 $217 $218 $92 #
cone-surface $-1 41.369050241384457 20.164122954835392 1.8130615318328573 0 -0.74314483375859142 -0.66913059716165679 1.5 0 0 1 I I 0 1 1.5 forward I I I I #
face $-1 $219 $220 $73 $-1 $221 forward single #
loop $-1 $222 $223 $93 #
cone-surface $-1 46.22918996868124 20.164122954835392 1.8130615318328573 0 -0.74314483375859142 -0.66913059716165679 1.5 0 0 1 I I 0 1 1.5 forward I I I I #
face $-1 $224 $225 $74 $-1 $226 reversed single #
loop $-1 $-1 $227 $94 #
plane-surface $-1 -13.577772644391663 -93.531527451938459 70.4633893331618 -1 0 0 0 -0.70710678939079041 0.70710677298230451 forward_v I I I I #
face $-1 $228 $229 $75 $-1 $230 forward single #
loop $-1 $231 $232 $95 #
cone-surface $-1 -27.946027047348213 -19.880041591794463 1.6947390464135836 0 0.70710678939079041 -0.70710677298230451 1 0 0 1 I I 0 1 1 forward I I I I #
face $-1 $233 $234 $76 $-1 $235 forward single #
loop $-1 $236 $237 $96 #
cone-surface $-1 -19.325074405574284 -19.880041591794463 1.6947390464135836 0 0.70710678939079041 -0.70710677298230451 1 0 0 1 I I 0 1 1 forward I I I I #
face $-1 $238 $239 $77 $-1 $240 reversed single #
loop $-1 $-1 $241 $97 #
plane-surface $-1 38.830770956318382 -93.531527451938459 70.4633893331618 -1 0 0 0 -0.70710678939079041 0.70710677298230451 forward_v I I I I #
face $-1 $242 $243 $78 $-1 $244 forward single #
loop $-1 $245 $246 $98 #
cone-surface $-1 24.462516553361837 -19.880041591794463 1.6947390464135836 0 0.70710678939079041 -0.70710677298230451 1 0 0 1 I I 0 1 1 forward I I I I #
face $-1 $247 $248 $79 $-1 $249 forward single #
loop $-1 $250 $251 $99 #
cone-surface $-1 33.083469195135777 -19.880041591794463 1.6947390464135836 0 0.70710678939079041 -0.70710677298230451 1 0 0 1 I I 0 1 1 forward I I I I #
face $-1 $252 $253 $60 $-1 $254 reversed single #
loop $-1 $-1 $255 $100 #
plane-surface $-1 0 0 -5.3860930130111626 0 0 1 1 0 0 forward_v I I I I #
coedge $-1 $256 $257 $258 $259 forward $101 $-1 #
face $-1 $260 $261 $61 $-1 $262 reversed single #
loop $-1 $-1 $263 $103 #
plane-surface $-1 -44.331840972424857 0 3.8860930130111626 -1 0 0 0 0 1 forward_v I I I I #
coedge $-1 $264 $265 $266 $267 forward $104 $-1 #
face $-1 $268 $269 $62 $-1 $270 reversed single #
loop $-1 $-1 $271 $106 #
plane-surface $-1 -26.551722964445105 -7.9732884040965502 35.082638207795611 0 0.74314483375859142 0.66913059716165679 1 0 0 forward_v I I I I #
coedge $-1 $272 $273 $274 $275 reversed $107 $-1 #
face $-1 $-1 $276 $63 $-1 $277 forward single #
loop $-1 $278 $279 $109 #
cone-surface $-1 -28.981792828093493 18.602389356244327 0.40687031854356448 0 -0.74314483375859142 -0.66913059716165679 0.75 0 0 1 I I -0.70710678118654768 0.70710678118654757 0.75 forward I I I I #
loop $-1 $-1 $280 $83 #
coedge $-1 $176 $176 $281 $282 reversed $110 $-1 #
face $-1 $-1 $283 $64 $-1 $284 forward single #
loop $-1 $285 $286 $112 #
cone-surface $-1 -24.121653100796721 18.602389356244327 0.40687031854356448 0 -0.74314483375859142 -0.66913059716165679 0.75 0 0 1 I I -0.70710678118654768 0.70710678118654757 0.75 forward I I I I #
loop $-1 $-1 $287 $84 #
coedge $-1 $181 $181 $288 $289 reversed $113 $-1 #
face $-1 $290 $291 $65 $-1 $292 reversed single #
loop $-1 $-1 $293 $115 #
plane-surface $-1 -3.1014419412857848 -7.9732884040965502 35.082638207795611 0 0.74314483375859142 0.66913059716165679 1 0 0 forward_v I I I I #
coedge $-1 $294 $295 $296 $297 reversed $116 $-1 #
face $-1 $-1 $298 $66 $-1 $299 forward single #
loop $-1 $300 $301 $118 #
cone-surface $-1 -5.5315118049341763 18.602389356244327 0.40687031854356448 0 -0.74314483375859142 -0.66913059716165679 0.75 0 0 1 I I -0.70710678118654768 0.70710678118654757 0.75 forward I I I I #
loop $-1 $-1 $302 $86 #
coedge $-1 $190 $190 $303 $304 reversed $119 $-1 #
face $-1 $-1 $305 $67 $-1 $306 forward single #
loop $-1 $307 $308 $121 #
cone-surface $-1 -0.67137207763740037 18.602389356244327 0.40687031854356448 0 -0.74314483375859142 -0.66913059716165679 0.75 0 0 1 I I -0.70710678118654768 0.70710678118654757 0.75 forward I I I I #
loop $-1 $-1 $309 $87 #
coedge $-1 $195 $195 $310 $311 reversed $122 $-1 #
face $-1 $312 $313 $68 $-1 $314 reversed single #
loop $-1 $-1 $315 $124 #
plane-surface $-1 20.348839081873535 -7.9732884040965502 35.082638207795611 0 0.74314483375859142 0.66913059716165679 1 0 0 forward_v I I I I #
coedge $-1 $316 $317 $318 $319 reversed $125 $-1 #
face $-1 $-1 $320 $69 $-1 $321 forward single #
loop $-1 $322 $323 $127 #
cone-surface $-1 17.918769218225137 18.602389356244327 0.40687031854356448 0 -0.74314483375859142 -0.66913059716165679 0.75 0 0 1 I I -0.70710678118654768 0.70710678118654757 0.75 forward I I I I #
loop $-1 $-1 $324 $89 #
coedge $-1 $204 $204 $325 $326 reversed $128 $-1 #
face $-1 $-1 $327 $70 $-1 $328 forward single #
loop $-1 $329 $330 $130 #
cone-surface $-1 22.77890894552192 18.602389356244327 0.40687031854356448 0 -0.74314483375859142 -0.66913059716165679 0.75 0 0 1 I I -0.70710678118654768 0.70710678118654757 0.75 forward I I I I #
loop $-1 $-1 $331 $90 #
coedge $-1 $209 $209 $332 $333 reversed $131 $-1 #
face $-1 $334 $335 $71 $-1 $336 forward single #
loop $-1 $-1 $337 $133 #
plane-surface $-1 43.799120105032856 -7.9732884040965502 35.082638207795611 0 0.74314483375859142 0.66913059716165679 1 0 0 forward_v I I I I #
coedge $-1 $338 $339 $340 $341 reversed $134 $-1 #
face $-1 $-1 $342 $72 $-1 $343 forward single #
loop $-1 $344 $345 $136 #
cone-surface $-1 41.369050241384457 18.602389356244327 0.40687031854356448 0 -0.74314483375859142 -0.66913059716165679 0.75 0 0 1 I I -0.70710678118654768 0.70710678118654757 0.75 forward I I I I #
loop $-1 $-1 $346 $92 #
coedge $-1 $218 $218 $347 $348 reversed $137 $-1 #
face $-1 $-1 $349 $73 $-1 $350 forward single #
loop $-1 $351 $352 $139 #
cone-surface $-1 46.22918996868124 18.602389356244327 0.40687031854356448 0 -0.74314483375859142 -0.66913059716165679 0.75 0 0 1 I I -0.70710678118654768 0.70710678118654757 0.75 forward I I I I #
loop $-1 $-1 $353 $93 #
coedge $-1 $223 $223 $354 $355 reversed $140 $-1 #
face $-1 $356 $357 $74 $-1 $358 reversed single #
loop $-1 $-1 $359 $142 #
plane-surface $-1 -23.635550726461247 -23.571395530743615 0.50325903539902583 0 -0.70710678939079041 0.70710677298230451 1 0 0 forward_v I I I I #
coedge $-1 $360 $361 $362 $363 reversed $143 $-1 #
face $-1 $-1 $364 $75 $-1 $365 forward single #
loop $-1 $366 $367 $145 #
cone-surface $-1 -27.946027047348213 -18.276551190302637 0.091248682130917302 0 0.70710678939079041 -0.70710677298230451 0.5 0 0 1 I I -0.70710678118654746 0.70710678118654746 0.5 forward I I I I #
loop $-1 $-1 $368 $95 #
coedge $-1 $232 $232 $369 $370 reversed $146 $-1 #
face $-1 $-1 $371 $76 $-1 $372 forward single #
loop $-1 $373 $374 $148 #
cone-surface $-1 -19.325074405574284 -18.276551190302637 0.091248682130917302 0 0.70710678939079041 -0.70710677298230451 0.5 0 0 1 I I -0.70710678118654746 0.70710678118654746 0.5 forward I I I I #
loop $-1 $-1 $375 $96 #
coedge $-1 $237 $237 $376 $377 reversed $149 $-1 #
face $-1 $378 $379 $77 $-1 $380 reversed single #
loop $-1 $-1 $381 $151 #
plane-surface $-1 28.7729928742488 -23.571395530743615 0.50325903539902583 0 -0.70710678939079041 0.70710677298230451 1 0 0 forward_v I I I I #
coedge $-1 $382 $383 $384 $385 reversed $152 $-1 #
face $-1 $-1 $386 $78 $-1 $387 forward single #
loop $-1 $388 $389 $154 #
cone-surface $-1 24.462516553361837 -18.276551190302637 0.091248682130917302 0 0.70710678939079041 -0.70710677298230451 0.5 0 0 1 I I -0.70710678118654746 0.70710678118654746 0.5 forward I I I I #
loop $-1 $-1 $390 $98 #
coedge $-1 $246 $246 $391 $392 reversed $155 $-1 #
face $-1 $-1 $393 $79 $-1 $394 forward single #
loop $-1 $395 $396 $157 #
cone-surface $-1 33.083469195135777 -18.276551190302637 0.091248682130917302 0 0.70710678939079041 -0.70710677298230451 0.5 0 0 1 I I -0.70710678118654746 0.70710678118654746 0.5 forward I I I I #
loop $-1 $-1 $397 $99 #
coedge $-1 $251 $251 $398 $399 reversed $158 $-1 #
face $-1 $400 $401 $60 $-1 $402 reversed single #
loop $-1 $-1 $403 $160 #
plane-surface $-1 0 -23.571395530743626 0 0 1 0 0 0 1 forward_v I I I I #
coedge $-1 $404 $405 $406 $407 forward $161 $-1 #
coedge $-1 $408 $163 $409 $410 forward $101 $-1 #
coedge $-1 $163 $408 $411 $412 forward $101 $-1 #
coedge $-1 $413 $414 $163 $259 reversed $415 $-1 #
edge $-1 $416 -23.571395530743626 $417 23.571395530743626 $258 $418 forward 7 unknown #
face $-1 $419 $420 $61 $-1 $421 reversed single #
loop $-1 $-1 $422 $164 #
plane-surface $-1 0 23.571395530743626 0 0 -1 0 0 0 -1 forward_v I I I I #
coedge $-1 $266 $423 $424 $425 reversed $165 $-1 #
coedge $-1 $426 $167 $427 $428 reversed $104 $-1 #
coedge $-1 $167 $426 $429 $430 reversed $104 $-1 #
coedge $-1 $431 $263 $167 $267 reversed $165 $-1 #
edge $-1 $432 -23.571395530743626 $433 23.571395530743626 $266 $434 forward 7 unknown #
face $-1 $435 $436 $62 $-1 $437 forward single #
loop $-1 $-1 $438 $168 #
plane-surface $-1 -20.881559949265537 65.552395956957341 101.2854601185692 -1 0 0 0 0.74314483375859142 0.66913059716165679 forward_v I I I I #
coedge $-1 $439 $440 $441 $442 reversed $169 $-1 #
coedge $-1 $273 $171 $443 $444 reversed $107 $-1 #
coedge $-1 $171 $272 $439 $445 reversed $107 $-1 #
coedge $-1 $441 $446 $171 $275 forward $436 $-1 #
edge $-1 $447 9.2048024477350445 $448 14.01059765300727 $274 $449 forward 7 unknown #
loop $-1 $-1 $281 $172 #
plane-surface $-1 -26.551722964445105 -7.9732884040965502 35.082638207795611 0 0.74314483375859142 0.66913059716165679 1 0 0 forward_v I I I I #
loop $-1 $-1 $450 $109 #
coedge $-1 $279 $279 $280 $451 reversed $173 $-1 #
coedge $-1 $280 $280 $279 $451 forward $175 $-1 #
coedge $-1 $281 $281 $176 $282 forward $276 $-1 #
edge $-1 $452 2.2001506801867267e-016 $452 6.2831853071796004 $281 $453 forward 7 unknown #
loop $-1 $-1 $288 $177 #
plane-surface $-1 -26.551722964445105 -7.9732884040965502 35.082638207795611 0 0.74314483375859142 0.66913059716165679 1 0 0 forward_v I I I I #
loop $-1 $-1 $454 $112 #
coedge $-1 $286 $286 $287 $455 reversed $178 $-1 #
coedge $-1 $287 $287 $286 $455 forward $180 $-1 #
coedge $-1 $288 $288 $181 $289 forward $283 $-1 #
edge $-1 $456 2.2001506801867267e-016 $456 6.2831853071796004 $288 $457 forward 7 unknown #
face $-1 $458 $459 $65 $-1 $460 forward single #
loop $-1 $-1 $461 $182 #
plane-surface $-1 2.5687210738937853 65.552395956957341 101.2854601185692 -1 0 0 0 0.74314483375859142 0.66913059716165679 forward_v I I I I #
coedge $-1 $462 $463 $464 $465 reversed $183 $-1 #
coedge $-1 $295 $185 $466 $467 reversed $116 $-1 #
coedge $-1 $185 $294 $462 $468 reversed $116 $-1 #
coedge $-1 $464 $469 $185 $297 forward $459 $-1 #
edge $-1 $470 9.2048024477350445 $471 14.01059765300727 $296 $472 forward 7 unknown #
loop $-1 $-1 $303 $186 #
plane-surface $-1 -3.1014419412857848 -7.9732884040965502 35.082638207795611 0 0.74314483375859142 0.66913059716165679 1 0 0 forward_v I I I I #
loop $-1 $-1 $473 $118 #
coedge $-1 $301 $301 $302 $474 reversed $187 $-1 #
coedge $-1 $302 $302 $301 $474 forward $189 $-1 #
coedge $-1 $303 $303 $190 $304 forward $298 $-1 #
edge $-1 $475 2.2001506801867267e-016 $475 6.2831853071796004 $303 $476 forward 7 unknown #
loop $-1 $-1 $310 $191 #
plane-surface $-1 -3.1014419412857848 -7.9732884040965502 35.082638207795611 0 0.74314483375859142 0.66913059716165679 1 0 0 forward_v I I I I #
loop $-1 $-1 $477 $121 #
coedge $-1 $308 $308 $309 $478 reversed $192 $-1 #
coedge $-1 $309 $309 $308 $478 forward $194 $-1 #
coedge $-1 $310 $310 $195 $311 forward $305 $-1 #
edge $-1 $479 2.2001506801867267e-016 $479 6.2831853071796004 $310 $480 forward 7 unknown #
face $-1 $481 $482 $68 $-1 $483 forward single #
loop $-1 $-1 $484 $196 #
plane-surface $-1 26.019002097053104 65.552395956957341 101.2854601185692 -1 0 0 0 0.74314483375859142 0.66913059716165679 forward_v I I I I #
coedge $-1 $485 $486 $487 $488 reversed $197 $-1 #
coedge $-1 $317 $199 $489 $490 reversed $125 $-1 #
coedge $-1 $199 $316 $485 $491 reversed $125 $-1 #
coedge $-1 $487 $492 $199 $319 forward $482 $-1 #
edge $-1 $493 9.2048024477350445 $494 14.01059765300727 $318 $495 forward 7 unknown #
loop $-1 $-1 $325 $200 #
plane-surface $-1 20.348839081873535 -7.9732884040965502 35.082638207795611 0 0.74314483375859142 0.66913059716165679 1 0 0 forward_v I I I I #
loop $-1 $-1 $496 $127 #
coedge $-1 $323 $323 $324 $497 reversed $201 $-1 #
coedge $-1 $324 $324 $323 $497 forward $203 $-1 #
coedge $-1 $325 $325 $204 $326 forward $320 $-1 #
edge $-1 $498 2.2001506801867267e-016 $498 6.2831853071796004 $325 $499 forward 7 unknown #
loop $-1 $-1 $332 $205 #
plane-surface $-1 20.348839081873535 -7.9732884040965502 35.082638207795611 0 0.74314483375859142 0.66913059716165679 1 0 0 forward_v I I I I #
loop $-1 $-1 $500 $130 #
coedge $-1 $330 $330 $331 $501 reversed $206 $-1 #
coedge $-1 $331 $331 $330 $501 forward $208 $-1 #
coedge $-1 $332 $332 $209 $333 forward $327 $-1 #
edge $-1 $502 2.2001506801867267e-016 $502 6.2831853071796004 $332 $503 forward 7 unknown #
face $-1 $504 $505 $71 $-1 $506 reversed single #
loop $-1 $-1 $340 $210 #
plane-surface $-1 0 0 5.3860930130111626 0 0 1 1 0 0 forward_v I I I I #
coedge $-1 $507 $508 $509 $510 reversed $211 $-1 #
coedge $-1 $339 $213 $511 $512 reversed $134 $-1 #
coedge $-1 $213 $338 $507 $513 reversed $134 $-1 #
coedge $-1 $509 $514 $213 $341 forward $335 $-1 #
edge $-1 $515 9.2048024477350445 $516 14.01059765300727 $340 $517 forward 7 unknown #
loop $-1 $-1 $347 $214 #
plane-surface $-1 43.799120105032856 -7.9732884040965502 35.082638207795611 0 0.74314483375859142 0.66913059716165679 1 0 0 forward_v I I I I #
loop $-1 $-1 $518 $136 #
coedge $-1 $345 $345 $346 $519 reversed $215 $-1 #
coedge $-1 $346 $346 $345 $519 forward $217 $-1 #
coedge $-1 $347 $347 $218 $348 forward $342 $-1 #
edge $-1 $520 2.2001506801867267e-016 $520 6.2831853071796004 $347 $521 forward 7 unknown #
loop $-1 $-1 $354 $219 #
plane-surface $-1 43.799120105032856 -7.9732884040965502 35.082638207795611 0 0.74314483375859142 0.66913059716165679 1 0 0 forward_v I I I I #
loop $-1 $-1 $522 $139 #
coedge $-1 $352 $352 $353 $523 reversed $220 $-1 #
coedge $-1 $353 $353 $352 $523 forward $222 $-1 #
coedge $-1 $354 $354 $223 $355 forward $349 $-1 #
edge $-1 $524 2.2001506801867267e-016 $524 6.2831853071796004 $354 $525 forward 7 unknown #
face $-1 $526 $527 $74 $-1 $528 reversed single #
loop $-1 $-1 $529 $224 #
plane-surface $-1 -33.693328808530829 -93.531527451938459 70.4633893331618 1 0 0 0 0.70710678939079041 -0.70710677298230451 forward_v I I I I #
coedge $-1 $530 $531 $532 $533 reversed $225 $-1 #
coedge $-1 $361 $227 $534 $535 reversed $143 $-1 #
coedge $-1 $227 $360 $530 $536 reversed $143 $-1 #
coedge $-1 $532 $537 $227 $363 forward $538 $-1 #
edge $-1 $539 23.194368195225604 $540 28.077202059531086 $362 $541 forward 7 unknown #
loop $-1 $-1 $369 $228 #
plane-surface $-1 -23.635550726461247 -23.571395530743615 0.50325903539902583 0 -0.70710678939079041 0.70710677298230451 1 0 0 forward_v I I I I #
loop $-1 $-1 $542 $145 #
coedge $-1 $367 $367 $368 $543 reversed $229 $-1 #
coedge $-1 $368 $368 $367 $543 forward $231 $-1 #
coedge $-1 $369 $369 $232 $370 forward $364 $-1 #
edge $-1 $544 -1.5700923020168971e-015 $544 6.2831853071795987 $369 $545 forward 7 unknown #
loop $-1 $-1 $376 $233 #
plane-surface $-1 -23.635550726461247 -23.571395530743615 0.50325903539902583 0 -0.70710678939079041 0.70710677298230451 1 0 0 forward_v I I I I #
loop $-1 $-1 $546 $148 #
coedge $-1 $374 $374 $375 $547 reversed $234 $-1 #
coedge $-1 $375 $375 $374 $547 forward $236 $-1 #
coedge $-1 $376 $376 $237 $377 forward $371 $-1 #
edge $-1 $548 -1.5700923020168971e-015 $548 6.2831853071795987 $376 $549 forward 7 unknown #
face $-1 $550 $551 $77 $-1 $552 reversed single #
loop $-1 $-1 $553 $238 #
plane-surface $-1 18.715214792179218 -93.531527451938459 70.4633893331618 1 0 0 0 0.70710678939079041 -0.70710677298230451 forward_v I I I I #
coedge $-1 $554 $555 $556 $557 reversed $239 $-1 #
coedge $-1 $383 $241 $558 $559 reversed $152 $-1 #
coedge $-1 $241 $382 $554 $560 reversed $152 $-1 #
coedge $-1 $556 $561 $241 $385 forward $562 $-1 #
edge $-1 $563 23.194368195225604 $564 28.077202059531086 $384 $565 forward 7 unknown #
loop $-1 $-1 $391 $242 #
plane-surface $-1 28.7729928742488 -23.571395530743615 0.50325903539902583 0 -0.70710678939079041 0.70710677298230451 1 0 0 forward_v I I I I #
loop $-1 $-1 $566 $154 #
coedge $-1 $389 $389 $390 $567 reversed $243 $-1 #
coedge $-1 $390 $390 $389 $567 forward $245 $-1 #
coedge $-1 $391 $391 $246 $392 forward $386 $-1 #
edge $-1 $568 -1.5700923020168971e-015 $568 6.2831853071795987 $391 $569 forward 7 unknown #
loop $-1 $-1 $398 $247 #
plane-surface $-1 28.7729928742488 -23.571395530743615 0.50325903539902583 0 -0.70710678939079041 0.70710677298230451 1 0 0 forward_v I I I I #
loop $-1 $-1 $570 $157 #
coedge $-1 $396 $396 $397 $571 reversed $248 $-1 #
coedge $-1 $397 $397 $396 $571 forward $250 $-1 #
coedge $-1 $398 $398 $251 $399 forward $393 $-1 #
edge $-1 $572 -1.5700923020168971e-015 $572 6.2831853071795987 $398 $573 forward 7 unknown #
face $-1 $574 $575 $60 $-1 $576 reversed single #
loop $-1 $-1 $577 $252 #
plane-surface $-1 -49.46928312021241 0 0 1 0 0 0 0 -1 forward_v I I I I #
coedge $-1 $578 $411 $579 $580 forward $253 $-1 #
coedge $-1 $581 $255 $578 $582 forward $161 $-1 #
coedge $-1 $255 $581 $583 $584 forward $161 $-1 #
coedge $-1 $414 $413 $255 $407 reversed $415 $-1 #
edge $-1 $585 -23.571395530743626 $586 23.571395530743626 $406 $587 forward 7 unknown #
coedge $-1 $257 $256 $588 $589 forward $101 $-1 #
coedge $-1 $590 $591 $256 $410 reversed $575 $-1 #
edge $-1 $417 -49.46928312021241 $592 49.46928312021241 $409 $593 forward 7 unknown #
coedge $-1 $403 $594 $257 $412 reversed $253 $-1 #
edge $-1 $595 -49.46928312021241 $416 49.46928312021241 $411 $596 forward 7 unknown #
coedge $-1 $406 $258 $594 $597 forward $415 $-1 #
coedge $-1 $258 $406 $590 $598 reversed $415 $-1 #
loop $-1 $-1 $413 $574 #
vertex $-1 $259 $599 #
vertex $-1 $259 $600 #
straight-curve $-1 49.46928312021241 0 5.3860930130111626 0 1 0 I I #
face $-1 $601 $602 $61 $-1 $603 forward single #
loop $-1 $-1 $604 $260 #
plane-surface $-1 -49.46928312021241 0 0 1 0 0 0 0 -1 forward_v I I I I #
coedge $-1 $429 $605 $431 $606 forward $261 $-1 #
coedge $-1 $263 $431 $607 $608 reversed $165 $-1 #
coedge $-1 $609 $427 $263 $425 forward $610 $-1 #
edge $-1 $433 0.44304650650558131 $611 3.4430465065055813 $424 $612 forward 7 unknown #
coedge $-1 $265 $264 $604 $613 reversed $104 $-1 #
coedge $-1 $424 $614 $264 $428 forward $610 $-1 #
edge $-1 $615 -26.019002097053093 $433 -20.88155994926554 $427 $616 forward 7 unknown #
coedge $-1 $617 $422 $265 $430 forward $261 $-1 #
edge $-1 $432 20.88155994926554 $618 26.019002097053093 $429 $619 forward 7 unknown #
coedge $-1 $423 $266 $422 $606 reversed $165 $-1 #
vertex $-1 $430 $620 #
vertex $-1 $428 $621 #
straight-curve $-1 -44.331840972424857 0 2.3860930130111626 0 -1 0 I I #
face $-1 $-1 $622 $62 $-1 $623 reversed single #
loop $-1 $-1 $274 $268 #
plane-surface $-1 0 0 5.3860930130111626 0 0 1 1 0 0 forward_v I I I I #
coedge $-1 $624 $625 $626 $627 reversed $269 $-1 #
coedge $-1 $628 $271 $273 $445 forward $169 $-1 #
coedge $-1 $271 $628 $624 $629 forward $169 $-1 #
coedge $-1 $626 $274 $271 $442 forward $436 $-1 #
edge $-1 $448 -18.946024497402121 $630 -7.6056984670429841 $441 $631 forward 7 unknown #
coedge $-1 $632 $633 $272 $444 forward $622 $-1 #
edge $-1 $634 -50.594013477793936 $447 -45.25663704627344 $443 $635 forward 7 unknown #
edge $-1 $448 39.960642725037481 $634 47.142791061487237 $273 $636 forward 7 unknown #
coedge $-1 $274 $626 $632 $637 forward $436 $-1 #
vertex $-1 $444 $638 #
vertex $-1 $275 $639 #
straight-curve $-1 -32.221885979624673 32.77619797847867 5.3860930130111626 0 -1 0 I I #
coedge $-1 $450 $450 $-1 $640 reversed $278 $-1 #
edge $-1 $641 0 $641 6.2831853071796004 $279 $642 forward 7 unknown #
vertex $-1 $282 $643 #
ellipse-curve $-1 -28.981792828093493 21.168497928107517 2.7174047972509081 0 0.74314483375859142 0.66913059716165679 1.5 0 0 1 I I #
coedge $-1 $454 $454 $-1 $644 reversed $285 $-1 #
edge $-1 $645 0 $645 6.2831853071796004 $286 $646 forward 7 unknown #
vertex $-1 $289 $647 #
ellipse-curve $-1 -24.121653100796721 21.168497928107517 2.7174047972509081 0 0.74314483375859142 0.66913059716165679 1.5 0 0 1 I I #
face $-1 $-1 $648 $65 $-1 $649 reversed single #
loop $-1 $-1 $296 $290 #
plane-surface $-1 0 0 5.3860930130111626 0 0 1 1 0 0 forward_v I I I I #
coedge $-1 $650 $651 $652 $653 reversed $291 $-1 #
coedge $-1 $654 $293 $295 $468 forward $183 $-1 #
coedge $-1 $293 $654 $650 $655 forward $183 $-1 #
coedge $-1 $652 $296 $293 $465 forward $459 $-1 #
edge $-1 $471 -7.2208839858224625 $656 4.1194420445366777 $464 $657 forward 7 unknown #
coedge $-1 $658 $659 $294 $467 forward $648 $-1 #
edge $-1 $660 -50.594013477793936 $470 -45.25663704627344 $466 $661 forward 7 unknown #
edge $-1 $471 39.960642725037481 $660 47.142791061487237 $295 $662 forward 7 unknown #
coedge $-1 $296 $652 $658 $663 forward $459 $-1 #
vertex $-1 $297 $664 #
vertex $-1 $297 $665 #
straight-curve $-1 -8.7716049564653549 32.77619797847867 5.3860930130111626 0 -1 0 I I #
coedge $-1 $473 $473 $-1 $666 reversed $300 $-1 #
edge $-1 $667 0 $667 6.2831853071796004 $301 $668 forward 7 unknown #
vertex $-1 $304 $669 #
ellipse-curve $-1 -5.5315118049341763 21.168497928107517 2.7174047972509081 0 0.74314483375859142 0.66913059716165679 1.5 0 0 1 I I #
coedge $-1 $477 $477 $-1 $670 reversed $307 $-1 #
edge $-1 $671 0 $671 6.2831853071796004 $308 $672 forward 7 unknown #
vertex $-1 $311 $673 #
ellipse-curve $-1 -0.67137207763740037 21.168497928107517 2.7174047972509081 0 0.74314483375859142 0.66913059716165679 1.5 0 0 1 I I #
face $-1 $-1 $674 $68 $-1 $675 reversed single #
loop $-1 $-1 $318 $312 #
plane-surface $-1 0 0 5.3860930130111626 0 0 1 1 0 0 forward_v I I I I #
coedge $-1 $676 $677 $678 $679 reversed $313 $-1 #
coedge $-1 $680 $315 $317 $491 forward $197 $-1 #
coedge $-1 $315 $680 $676 $681 forward $197 $-1 #
coedge $-1 $678 $318 $315 $488 forward $482 $-1 #
edge $-1 $494 4.5042565257571976 $682 15.844582556116336 $487 $683 forward 7 unknown #
coedge $-1 $684 $685 $316 $490 forward $674 $-1 #
edge $-1 $686 -50.594013477793936 $493 -45.25663704627344 $489 $687 forward 7 unknown #
edge $-1 $494 39.960642725037481 $686 47.142791061487237 $317 $688 forward 7 unknown #
coedge $-1 $318 $678 $684 $689 forward $482 $-1 #
vertex $-1 $319 $690 #
vertex $-1 $319 $691 #
straight-curve $-1 14.678676066693965 32.77619797847867 5.3860930130111626 0 -1 0 I I #
coedge $-1 $496 $496 $-1 $692 reversed $322 $-1 #
edge $-1 $693 0 $693 6.2831853071796004 $323 $694 forward 7 unknown #
vertex $-1 $326 $695 #
ellipse-curve $-1 17.918769218225137 21.168497928107517 2.7174047972509081 0 0.74314483375859142 0.66913059716165679 1.5 0 0 1 I I #
coedge $-1 $500 $500 $-1 $696 reversed $329 $-1 #
edge $-1 $697 0 $697 6.2831853071796004 $330 $698 forward 7 unknown #
vertex $-1 $333 $699 #
ellipse-curve $-1 22.77890894552192 21.168497928107517 2.7174047972509081 0 0.74314483375859142 0.66913059716165679 1.5 0 0 1 I I #
face $-1 $-1 $700 $71 $-1 $701 reversed single #
loop $-1 $-1 $702 $334 #
plane-surface $-1 49.46928312021241 0 0 -1 0 0 0 0 1 forward_v I I I I #
coedge $-1 $703 $337 $339 $513 forward $211 $-1 #
coedge $-1 $337 $703 $702 $704 reversed $211 $-1 #
coedge $-1 $705 $340 $337 $510 forward $335 $-1 #
edge $-1 $516 16.229397037336859 $706 27.569723067695996 $509 $707 forward 7 unknown #
coedge $-1 $708 $709 $338 $512 forward $700 $-1 #
edge $-1 $710 -50.594013477793936 $515 -45.25663704627344 $511 $711 forward 7 unknown #
edge $-1 $516 39.960642725037481 $710 47.142791061487237 $339 $712 forward 7 unknown #
coedge $-1 $340 $705 $708 $713 forward $335 $-1 #
vertex $-1 $512 $714 #
vertex $-1 $341 $715 #
straight-curve $-1 38.128957089853287 32.77619797847867 5.3860930130111626 0 -1 0 I I #
coedge $-1 $518 $518 $-1 $716 reversed $344 $-1 #
edge $-1 $717 0 $717 6.2831853071796004 $345 $718 forward 7 unknown #
vertex $-1 $348 $719 #
ellipse-curve $-1 41.369050241384457 21.168497928107517 2.7174047972509081 0 0.74314483375859142 0.66913059716165679 1.5 0 0 1 I I #
coedge $-1 $522 $522 $-1 $720 reversed $351 $-1 #
edge $-1 $721 0 $721 6.2831853071796004 $352 $722 forward 7 unknown #
vertex $-1 $355 $723 #
ellipse-curve $-1 46.22918996868124 21.168497928107517 2.7174047972509081 0 0.74314483375859142 0.66913059716165679 1.5 0 0 1 I I #
face $-1 $-1 $538 $74 $-1 $724 forward single #
loop $-1 $-1 $725 $356 #
plane-surface $-1 0 -23.571395530743626 0 0 1 0 0 0 1 forward_v I I I I #
coedge $-1 $726 $727 $728 $729 reversed $357 $-1 #
coedge $-1 $730 $359 $361 $536 forward $225 $-1 #
coedge $-1 $359 $730 $726 $731 forward $225 $-1 #
coedge $-1 $728 $362 $359 $533 forward $538 $-1 #
edge $-1 $540 1.7599972811610396 $732 21.875553445300206 $532 $733 forward 7 unknown #
coedge $-1 $734 $735 $360 $535 forward $527 $-1 #
edge $-1 $736 -34.728435631181881 $539 -29.845601653569737 $534 $737 forward 7 unknown #
edge $-1 $540 -6.9053699538353408 $736 1.5072887603364246e-014 $361 $738 forward 7 unknown #
coedge $-1 $362 $728 $734 $739 forward $538 $-1 #
loop $-1 $-1 $728 $526 #
vertex $-1 $535 $740 #
vertex $-1 $363 $741 #
straight-curve $-1 -13.577772644391663 -46.765763725969229 5.3860930130111626 0 1 0 I I #
coedge $-1 $542 $542 $-1 $742 reversed $366 $-1 #
edge $-1 $743 0 $743 6.2831853071796004 $367 $744 forward 7 unknown #
vertex $-1 $370 $745 #
ellipse-curve $-1 -27.946027047348213 -21.129978598590885 2.9446760242050889 0 -0.70710678939079041 0.70710677298230451 1 0 0 1 I I #
coedge $-1 $546 $546 $-1 $746 reversed $373 $-1 #
edge $-1 $747 0 $747 6.2831853071796004 $374 $748 forward 7 unknown #
vertex $-1 $377 $749 #
ellipse-curve $-1 -19.325074405574284 -21.129978598590885 2.9446760242050889 0 -0.70710678939079041 0.70710677298230451 1 0 0 1 I I #
face $-1 $-1 $562 $77 $-1 $750 forward single #
loop $-1 $-1 $751 $378 #
plane-surface $-1 0 -23.571395530743626 0 0 1 0 0 0 1 forward_v I I I I #
coedge $-1 $752 $753 $754 $755 reversed $379 $-1 #
coedge $-1 $756 $381 $383 $560 forward $239 $-1 #
coedge $-1 $381 $756 $752 $757 forward $239 $-1 #
coedge $-1 $754 $384 $381 $557 forward $562 $-1 #
edge $-1 $564 -24.444274519193982 $758 -4.3287183550548178 $556 $759 forward 7 unknown #
coedge $-1 $760 $761 $382 $559 forward $551 $-1 #
edge $-1 $762 -34.728435631181881 $563 -29.845601653569737 $558 $763 forward 7 unknown #
edge $-1 $564 -6.9053699538353408 $762 1.5072887603364246e-014 $383 $764 forward 7 unknown #
coedge $-1 $384 $754 $760 $765 forward $562 $-1 #
loop $-1 $-1 $754 $550 #
vertex $-1 $559 $766 #
vertex $-1 $385 $767 #
straight-curve $-1 38.830770956318382 -46.765763725969229 5.3860930130111626 0 1 0 I I #
coedge $-1 $566 $566 $-1 $768 reversed $388 $-1 #
edge $-1 $769 0 $769 6.2831853071796004 $389 $770 forward 7 unknown #
vertex $-1 $392 $771 #
ellipse-curve $-1 24.462516553361837 -21.129978598590885 2.9446760242050889 0 -0.70710678939079041 0.70710677298230451 1 0 0 1 I I #
coedge $-1 $570 $570 $-1 $772 reversed $395 $-1 #
edge $-1 $773 0 $773 6.2831853071796004 $396 $774 forward 7 unknown #
vertex $-1 $399 $775 #
ellipse-curve $-1 33.083469195135777 -21.129978598590885 2.9446760242050889 0 -0.70710678939079041 0.70710677298230451 1 0 0 1 I I #
face $-1 $-1 $415 $60 $-1 $776 reversed single #
loop $-1 $-1 $590 $400 #
plane-surface $-1 0 23.571395530743626 0 0 -1 0 0 0 -1 forward_v I I I I #
coedge $-1 $777 $588 $591 $778 forward $401 $-1 #
coedge $-1 $594 $403 $404 $582 reversed $253 $-1 #
coedge $-1 $588 $777 $403 $580 reversed $401 $-1 #
edge $-1 $595 -5.3860930130111626 $779 5.3860930130111626 $579 $780 forward 7 unknown #
coedge $-1 $405 $404 $777 $781 forward $161 $-1 #
edge $-1 $586 -49.46928312021241 $779 49.46928312021241 $578 $782 forward 7 unknown #
coedge $-1 $591 $590 $405 $584 reversed $575 $-1 #
edge $-1 $783 -49.46928312021241 $585 49.46928312021241 $583 $784 forward 7 unknown #
vertex $-1 $407 $785 #
vertex $-1 $597 $786 #
straight-curve $-1 49.46928312021241 0 -5.3860930130111626 0 -1 0 I I #
coedge $-1 $577 $579 $408 $589 reversed $401 $-1 #
edge $-1 $592 -23.571395530743626 $595 23.571395530743626 $588 $787 forward 7 unknown #
coedge $-1 $583 $409 $414 $598 forward $575 $-1 #
coedge $-1 $409 $583 $577 $778 reversed $575 $-1 #
vertex $-1 $410 $788 #
straight-curve $-1 0 23.571395530743626 5.3860930130111626 -1 0 0 I I #
coedge $-1 $411 $578 $413 $597 reversed $253 $-1 #
vertex $-1 $589 $789 #
straight-curve $-1 0 -23.571395530743626 5.3860930130111626 1 0 0 I I #
edge $-1 $416 -5.3860930130111626 $586 5.3860930130111626 $413 $790 forward 7 unknown #
edge $-1 $417 -5.3860930130111626 $585 5.3860930130111626 $414 $791 forward 7 unknown #
point $-1 49.46928312021241 -23.571395530743626 5.3860930130111626 #
point $-1 49.46928312021241 23.571395530743626 5.3860930130111626 #
face $-1 $-1 $610 $61 $-1 $792 reversed single #
loop $-1 $-1 $607 $419 #
plane-surface $-1 0 0 5.3860930130111626 0 0 1 1 0 0 forward_v I I I I #
coedge $-1 $793 $794 $426 $613 forward $420 $-1 #
coedge $-1 $422 $617 $795 $796 reversed $261 $-1 #
edge $-1 $797 -3.4430465065055813 $432 -0.44304650650558131 $422 $798 forward 7 unknown #
coedge $-1 $795 $799 $423 $608 forward $602 $-1 #
edge $-1 $611 -23.571395530743626 $797 23.571395530743626 $607 $800 forward 7 unknown #
coedge $-1 $614 $424 $799 $801 reversed $610 $-1 #
loop $-1 $-1 $424 $601 #
vertex $-1 $425 $802 #
straight-curve $-1 -44.331840972424857 -23.571395530743626 1.9430465065055813 0 0 1 I I #
edge $-1 $618 -23.571395530743626 $615 23.571395530743626 $604 $803 forward 7 unknown #
coedge $-1 $427 $609 $793 $804 forward $610 $-1 #
vertex $-1 $613 $805 #
straight-curve $-1 -23.450281023159317 -23.571395530743626 2.3860930130111626 1 0 0 I I #
coedge $-1 $605 $429 $794 $806 reversed $261 $-1 #
vertex $-1 $613 $807 #
straight-curve $-1 -23.450281023159317 23.571395530743626 2.3860930130111626 -1 0 0 I I #
point $-1 -44.331840972424857 23.571395530743626 2.3860930130111626 #
point $-1 -44.331840972424857 -23.571395530743626 2.3860930130111626 #
loop $-1 $-1 $443 $435 #
plane-surface $-1 0 23.571395530743626 0 0 -1 0 0 0 -1 forward_v I I I I #
coedge $-1 $625 $438 $440 $629 reversed $269 $-1 #
coedge $-1 $438 $624 $808 $809 reversed $269 $-1 #
coedge $-1 $446 $441 $438 $627 forward $436 $-1 #
edge $-1 $630 -14.01059765300727 $810 -9.2048024477350445 $626 $811 forward 7 unknown #
coedge $-1 $440 $439 $633 $812 reversed $169 $-1 #
edge $-1 $813 -47.142791061487237 $630 -39.960642725037481 $624 $814 forward 7 unknown #
vertex $-1 $442 $815 #
straight-curve $-1 -13.275861482222552 18.765600325471397 5.3860930130111626 1 0 0 I I #
coedge $-1 $808 $443 $446 $637 reversed $622 $-1 #
coedge $-1 $443 $808 $628 $812 forward $622 $-1 #
vertex $-1 $444 $816 #
straight-curve $-1 -32.221885979624673 23.571395530743626 50.642730059284602 0 0 1 I I #
straight-curve $-1 -32.221885979624673 -7.9732884040965502 35.082638207795611 0 0.66913059716165679 -0.74314483375859142 I I #
edge $-1 $810 20.881559949265537 $447 32.221885979624673 $632 $817 forward 7 unknown #
point $-1 -32.221885979624673 23.571395530743626 5.3860930130111626 #
point $-1 -32.221885979624673 18.7656003254714 5.3860930130111626 #
edge $-1 $818 1 $818 0 $450 $-1 forward 7 unknown #
vertex $-1 $451 $819 #
ellipse-curve $-1 -28.981792828093493 19.159747981563271 0.90871826641480691 0 0.74314483375859142 0.66913059716165679 1.5 0 0 1 I I #
point $-1 -27.481792828093493 21.168497928107517 2.7174047972509077 #
edge $-1 $820 1 $820 0 $454 $-1 forward 7 unknown #
vertex $-1 $455 $821 #
ellipse-curve $-1 -24.121653100796721 19.159747981563271 0.90871826641480691 0 0.74314483375859142 0.66913059716165679 1.5 0 0 1 I I #
point $-1 -22.621653100796721 21.168497928107517 2.7174047972509077 #
loop $-1 $-1 $466 $458 #
plane-surface $-1 0 23.571395530743626 0 0 -1 0 0 0 -1 forward_v I I I I #
coedge $-1 $651 $461 $463 $655 reversed $291 $-1 #
coedge $-1 $461 $650 $822 $823 reversed $291 $-1 #
coedge $-1 $469 $464 $461 $653 forward $459 $-1 #
edge $-1 $656 -14.01059765300727 $824 -9.2048024477350445 $652 $825 forward 7 unknown #
coedge $-1 $463 $462 $659 $826 reversed $183 $-1 #
edge $-1 $827 -47.142791061487237 $656 -39.960642725037481 $650 $828 forward 7 unknown #
vertex $-1 $465 $829 #
straight-curve $-1 -1.5507209706428924 18.765600325471397 5.3860930130111626 1 0 0 I I #
coedge $-1 $822 $466 $469 $663 reversed $648 $-1 #
coedge $-1 $466 $822 $654 $826 forward $648 $-1 #
vertex $-1 $467 $830 #
straight-curve $-1 -8.7716049564653549 23.571395530743626 50.642730059284602 0 0 1 I I #
straight-curve $-1 -8.7716049564653549 -7.9732884040965502 35.082638207795611 0 0.66913059716165679 -0.74314483375859142 I I #
edge $-1 $824 -2.5687210738937853 $470 8.7716049564653549 $658 $831 forward 7 unknown #
point $-1 -8.7716049564653549 23.571395530743626 5.3860930130111626 #
point $-1 -8.7716049564653549 18.7656003254714 5.3860930130111626 #
edge $-1 $832 1 $832 0 $473 $-1 forward 7 unknown #
vertex $-1 $474 $833 #
ellipse-curve $-1 -5.5315118049341763 19.159747981563271 0.90871826641480691 0 0.74314483375859142 0.66913059716165679 1.5 0 0 1 I I #
point $-1 -4.0315118049341763 21.168497928107517 2.7174047972509077 #
edge $-1 $834 1 $834 0 $477 $-1 forward 7 unknown #
vertex $-1 $478 $835 #
ellipse-curve $-1 -0.67137207763740037 19.159747981563271 0.90871826641480691 0 0.74314483375859142 0.66913059716165679 1.5 0 0 1 I I #
point $-1 0.82862792236259963 21.168497928107517 2.7174047972509077 #
loop $-1 $-1 $489 $481 #
plane-surface $-1 0 23.571395530743626 0 0 -1 0 0 0 -1 forward_v I I I I #
coedge $-1 $677 $484 $486 $681 reversed $313 $-1 #
coedge $-1 $484 $676 $836 $837 reversed $313 $-1 #
coedge $-1 $492 $487 $484 $679 forward $482 $-1 #
edge $-1 $682 -14.01059765300727 $838 -9.2048024477350445 $678 $839 forward 7 unknown #
coedge $-1 $486 $485 $685 $840 reversed $197 $-1 #
edge $-1 $841 -47.142791061487237 $682 -39.960642725037481 $676 $842 forward 7 unknown #
vertex $-1 $488 $843 #
straight-curve $-1 10.174419540936768 18.765600325471397 5.3860930130111626 1 0 0 I I #
coedge $-1 $836 $489 $492 $689 reversed $674 $-1 #
coedge $-1 $489 $836 $680 $840 forward $674 $-1 #
vertex $-1 $490 $844 #
straight-curve $-1 14.678676066693965 23.571395530743626 50.642730059284602 0 0 1 I I #
straight-curve $-1 14.678676066693965 -7.9732884040965502 35.082638207795611 0 0.66913059716165679 -0.74314483375859142 I I #
edge $-1 $838 -26.019002097053104 $493 -14.678676066693965 $684 $845 forward 7 unknown #
point $-1 14.678676066693965 23.571395530743626 5.3860930130111626 #
point $-1 14.678676066693965 18.7656003254714 5.3860930130111626 #
edge $-1 $846 1 $846 0 $496 $-1 forward 7 unknown #
vertex $-1 $497 $847 #
ellipse-curve $-1 17.918769218225137 19.159747981563271 0.90871826641480691 0 0.74314483375859142 0.66913059716165679 1.5 0 0 1 I I #
point $-1 19.418769218225137 21.168497928107517 2.7174047972509077 #
edge $-1 $848 1 $848 0 $500 $-1 forward 7 unknown #
vertex $-1 $501 $849 #
ellipse-curve $-1 22.77890894552192 19.159747981563271 0.90871826641480691 0 0.74314483375859142 0.66913059716165679 1.5 0 0 1 I I #
point $-1 24.27890894552192 21.168497928107517 2.7174047972509077 #
loop $-1 $-1 $511 $504 #
plane-surface $-1 0 23.571395530743626 0 0 -1 0 0 0 -1 forward_v I I I I #
coedge $-1 $850 $851 $508 $704 forward $505 $-1 #
coedge $-1 $508 $507 $709 $852 reversed $211 $-1 #
edge $-1 $706 24.257316440077325 $853 31.439464776527082 $702 $854 forward 7 unknown #
coedge $-1 $514 $509 $851 $855 forward $335 $-1 #
vertex $-1 $855 $856 #
straight-curve $-1 21.899560052516428 18.765600325471397 5.3860930130111626 1 0 0 I I #
coedge $-1 $857 $511 $514 $713 reversed $700 $-1 #
coedge $-1 $511 $857 $703 $852 forward $700 $-1 #
vertex $-1 $512 $858 #
straight-curve $-1 38.128957089853287 23.571395530743626 50.642730059284602 0 0 1 I I #
straight-curve $-1 38.128957089853287 -7.9732884040965502 35.082638207795611 0 0.66913059716165679 -0.74314483375859142 I I #
edge $-1 $859 -49.46928312021241 $515 -38.128957089853287 $708 $860 forward 7 unknown #
point $-1 38.128957089853287 23.571395530743626 5.3860930130111626 #
point $-1 38.128957089853287 18.7656003254714 5.3860930130111626 #
edge $-1 $861 1 $861 0 $518 $-1 forward 7 unknown #
vertex $-1 $519 $862 #
ellipse-curve $-1 41.369050241384457 19.159747981563271 0.90871826641480691 0 0.74314483375859142 0.66913059716165679 1.5 0 0 1 I I #
point $-1 42.869050241384457 21.168497928107517 2.7174047972509077 #
edge $-1 $863 1 $863 0 $522 $-1 forward 7 unknown #
vertex $-1 $523 $864 #
ellipse-curve $-1 46.22918996868124 19.159747981563271 0.90871826641480691 0 0.74314483375859142 0.66913059716165679 1.5 0 0 1 I I #
point $-1 47.72918996868124 21.168497928107517 2.7174047972509077 #
plane-surface $-1 0 0 5.3860930130111626 0 0 1 1 0 0 forward_v I I I I #
coedge $-1 $735 $734 $727 $865 forward $527 $-1 #
coedge $-1 $727 $529 $531 $731 reversed $357 $-1 #
coedge $-1 $529 $726 $725 $865 reversed $357 $-1 #
coedge $-1 $537 $532 $529 $729 forward $538 $-1 #
edge $-1 $732 -28.077202059531086 $866 -23.194368195225604 $728 $867 forward 7 unknown #
coedge $-1 $531 $530 $735 $868 reversed $225 $-1 #
edge $-1 $869 -1.5072887603364246e-014 $732 6.9053699538353408 $726 $870 forward 7 unknown #
vertex $-1 $533 $871 #
straight-curve $-1 -11.817775363230623 -18.688561666438144 5.3860930130111626 -1 0 0 I I #
coedge $-1 $725 $534 $537 $739 reversed $527 $-1 #
coedge $-1 $534 $725 $730 $868 forward $527 $-1 #
vertex $-1 $535 $872 #
straight-curve $-1 -13.577772644391663 -23.571395530743629 35.2316946665809 0 0 1 I I #
straight-curve $-1 -13.577772644391663 -23.571395530743615 0.50325903539902583 0 -0.70710677298230451 -0.70710678939079041 I I #
edge $-1 $866 -33.693328808530829 $539 -13.577772644391663 $734 $873 forward 7 unknown #
point $-1 -13.577772644391663 -23.571395530743626 5.3860930130111626 #
point $-1 -13.577772644391663 -18.688561666438144 5.3860930130111626 #
edge $-1 $874 1 $874 0 $542 $-1 forward 7 unknown #
vertex $-1 $543 $875 #
ellipse-curve $-1 -27.946027047348213 -18.630104584998033 0.44480206862206956 0 -0.70710678939079041 0.70710677298230451 1 0 0 1 I I #
point $-1 -26.946027047348213 -21.129978598590895 2.9446760242050973 #
edge $-1 $876 1 $876 0 $546 $-1 forward 7 unknown #
vertex $-1 $547 $877 #
ellipse-curve $-1 -19.325074405574284 -18.630104584998033 0.44480206862206956 0 -0.70710678939079041 0.70710677298230451 1 0 0 1 I I #
point $-1 -18.325074405574284 -21.129978598590895 2.9446760242050973 #
plane-surface $-1 0 0 5.3860930130111626 0 0 1 1 0 0 forward_v I I I I #
coedge $-1 $761 $760 $753 $878 forward $551 $-1 #
coedge $-1 $753 $553 $555 $757 reversed $379 $-1 #
coedge $-1 $553 $752 $751 $878 reversed $379 $-1 #
coedge $-1 $561 $556 $553 $755 forward $562 $-1 #
edge $-1 $758 -28.077202059531086 $879 -23.194368195225604 $754 $880 forward 7 unknown #
coedge $-1 $555 $554 $761 $881 reversed $239 $-1 #
edge $-1 $882 -1.5072887603364246e-014 $758 6.9053699538353408 $752 $883 forward 7 unknown #
vertex $-1 $557 $884 #
straight-curve $-1 14.3864964371244 -18.688561666438144 5.3860930130111626 -1 0 0 I I #
coedge $-1 $751 $558 $561 $765 reversed $551 $-1 #
coedge $-1 $558 $751 $756 $881 forward $551 $-1 #
vertex $-1 $559 $885 #
straight-curve $-1 38.830770956318382 -23.571395530743629 35.2316946665809 0 0 1 I I #
straight-curve $-1 38.830770956318382 -23.571395530743615 0.50325903539902583 0 -0.70710677298230451 -0.70710678939079041 I I #
edge $-1 $879 18.715214792179218 $563 38.830770956318382 $760 $886 forward 7 unknown #
point $-1 38.830770956318382 -23.571395530743626 5.3860930130111626 #
point $-1 38.830770956318382 -18.688561666438144 5.3860930130111626 #
edge $-1 $887 1 $887 0 $566 $-1 forward 7 unknown #
vertex $-1 $567 $888 #
ellipse-curve $-1 24.462516553361837 -18.630104584998033 0.44480206862206956 0 -0.70710678939079041 0.70710677298230451 1 0 0 1 I I #
point $-1 25.462516553361837 -21.129978598590895 2.9446760242050973 #
edge $-1 $889 1 $889 0 $570 $-1 forward 7 unknown #
vertex $-1 $571 $890 #
ellipse-curve $-1 33.083469195135777 -18.630104584998033 0.44480206862206956 0 -0.70710678939079041 0.70710677298230451 1 0 0 1 I I #
point $-1 34.083469195135777 -21.129978598590895 2.9446760242050973 #
plane-surface $-1 49.46928312021241 0 0 -1 0 0 0 0 1 forward_v I I I I #
coedge $-1 $579 $577 $581 $781 reversed $401 $-1 #
edge $-1 $592 -5.3860930130111626 $783 5.3860930130111626 $591 $891 forward 7 unknown #
vertex $-1 $781 $892 #
straight-curve $-1 -49.46928312021241 -23.571395530743626 0 0 0 -1 I I #
edge $-1 $779 -23.571395530743626 $783 23.571395530743626 $777 $893 forward 7 unknown #
straight-curve $-1 0 -23.571395530743626 -5.3860930130111626 -1 0 0 I I #
vertex $-1 $584 $894 #
straight-curve $-1 0 23.571395530743626 -5.3860930130111626 1 0 0 I I #
point $-1 49.46928312021241 23.571395530743626 -5.3860930130111626 #
point $-1 49.46928312021241 -23.571395530743626 -5.3860930130111626 #
straight-curve $-1 -49.46928312021241 0 5.3860930130111626 0 -1 0 I I #
point $-1 -49.46928312021241 23.571395530743626 5.3860930130111626 #
point $-1 -49.46928312021241 -23.571395530743626 5.3860930130111626 #
straight-curve $-1 49.46928312021241 -23.571395530743626 0 0 0 -1 I I #
straight-curve $-1 49.46928312021241 23.571395530743626 0 0 0 -1 I I #
plane-surface $-1 0 -23.571395530743626 0 0 1 0 0 0 1 forward_v I I I I #
coedge $-1 $895 $604 $614 $804 reversed $420 $-1 #
coedge $-1 $604 $895 $617 $806 forward $420 $-1 #
coedge $-1 $896 $607 $605 $796 forward $602 $-1 #
edge $-1 $797 44.331840972424857 $897 49.46928312021241 $605 $898 forward 7 unknown #
vertex $-1 $796 $899 #
straight-curve $-1 -44.331840972424857 23.571395530743626 1.9430465065055813 0 0 -1 I I #
coedge $-1 $607 $896 $609 $801 forward $602 $-1 #
straight-curve $-1 -44.331840972424857 0 5.3860930130111626 0 1 0 I I #
edge $-1 $900 -49.46928312021241 $611 -44.331840972424857 $609 $901 forward 7 unknown #
point $-1 -44.331840972424857 -23.571395530743626 5.3860930130111626 #
straight-curve $-1 -49.46928312021241 0 2.3860930130111626 0 -1 0 I I #
edge $-1 $900 -5.3860930130111626 $615 -2.3860930130111626 $793 $902 forward 7 unknown #
point $-1 -49.46928312021241 -23.571395530743626 2.3860930130111626 #
edge $-1 $897 -5.3860930130111626 $618 -2.3860930130111626 $617 $903 forward 7 unknown #
point $-1 -49.46928312021241 23.571395530743626 2.3860930130111626 #
coedge $-1 $633 $632 $625 $809 forward $622 $-1 #
edge $-1 $810 45.25663704627344 $813 50.594013477793936 $808 $904 forward 7 unknown #
vertex $-1 $637 $905 #
straight-curve $-1 -20.881559949265537 32.77619797847867 5.3860930130111626 0 1 0 I I #
edge $-1 $813 7.6056984670429841 $634 18.946024497402121 $633 $906 forward 7 unknown #
vertex $-1 $812 $907 #
straight-curve $-1 -20.881559949265537 -7.9732884040965502 35.082638207795611 0 -0.66913059716165679 0.74314483375859142 I I #
point $-1 -20.881559949265537 18.7656003254714 5.3860930130111626 #
point $-1 -32.221885979624673 23.571395530743626 0.048716581490666044 #
straight-curve $-1 0 23.571395530743626 5.3860930130111626 -1 0 0 I I #
vertex $-1 $640 $908 #
point $-1 -27.481792828093493 19.159747981563271 0.90871826641480691 #
vertex $-1 $644 $909 #
point $-1 -22.621653100796721 19.159747981563271 0.90871826641480691 #
coedge $-1 $659 $658 $651 $823 forward $648 $-1 #
edge $-1 $824 45.25663704627344 $827 50.594013477793936 $822 $910 forward 7 unknown #
vertex $-1 $663 $911 #
straight-curve $-1 2.5687210738937853 32.77619797847867 5.3860930130111626 0 1 0 I I #
edge $-1 $827 -4.1194420445366777 $660 7.2208839858224625 $659 $912 forward 7 unknown #
vertex $-1 $826 $913 #
straight-curve $-1 2.5687210738937853 -7.9732884040965502 35.082638207795611 0 -0.66913059716165679 0.74314483375859142 I I #
point $-1 2.5687210738937853 18.7656003254714 5.3860930130111626 #
point $-1 -8.7716049564653549 23.571395530743626 0.048716581490666044 #
straight-curve $-1 0 23.571395530743626 5.3860930130111626 -1 0 0 I I #
vertex $-1 $666 $914 #
point $-1 -4.0315118049341763 19.159747981563271 0.90871826641480691 #
vertex $-1 $670 $915 #
point $-1 0.82862792236259963 19.159747981563271 0.90871826641480691 #
coedge $-1 $685 $684 $677 $837 forward $674 $-1 #
edge $-1 $838 45.25663704627344 $841 50.594013477793936 $836 $916 forward 7 unknown #
vertex $-1 $689 $917 #
straight-curve $-1 26.019002097053104 32.77619797847867 5.3860930130111626 0 1 0 I I #
edge $-1 $841 -15.844582556116336 $686 -4.5042565257571976 $685 $918 forward 7 unknown #
vertex $-1 $840 $919 #
straight-curve $-1 26.019002097053104 -7.9732884040965502 35.082638207795611 0 -0.66913059716165679 0.74314483375859142 I I #
point $-1 26.019002097053104 18.7656003254714 5.3860930130111626 #
point $-1 14.678676066693965 23.571395530743626 0.048716581490666044 #
straight-curve $-1 0 23.571395530743626 5.3860930130111626 -1 0 0 I I #
vertex $-1 $692 $920 #
point $-1 19.418769218225137 19.159747981563271 0.90871826641480691 #
vertex $-1 $696 $921 #
point $-1 24.27890894552192 19.159747981563271 0.90871826641480691 #
coedge $-1 $851 $702 $857 $922 reversed $505 $-1 #
coedge $-1 $702 $850 $705 $855 reversed $505 $-1 #
edge $-1 $853 -27.569723067695996 $710 -16.229397037336859 $709 $923 forward 7 unknown #
vertex $-1 $704 $924 #
straight-curve $-1 49.46928312021241 2.5342876903831817 23.412792406301975 0 0.66913059716165679 -0.74314483375859142 I I #
edge $-1 $706 18.7656003254714 $859 23.571395530743626 $851 $925 forward 7 unknown #
point $-1 49.469283120212424 18.7656003254714 5.3860930130111626 #
coedge $-1 $709 $708 $850 $922 forward $700 $-1 #
point $-1 38.128957089853287 23.571395530743626 0.048716581490666044 #
vertex $-1 $855 $926 #
straight-curve $-1 0 23.571395530743626 5.3860930130111626 -1 0 0 I I #
vertex $-1 $716 $927 #
point $-1 42.869050241384457 19.159747981563271 0.90871826641480691 #
vertex $-1 $720 $928 #
point $-1 47.72918996868124 19.159747981563271 0.90871826641480691 #
edge $-1 $866 29.845601653569737 $869 34.728435631181881 $725 $929 forward 7 unknown #
vertex $-1 $739 $930 #
straight-curve $-1 -33.693328808530829 -46.765763725969229 5.3860930130111626 0 -1 0 I I #
edge $-1 $869 -21.875553445300206 $736 -1.7599972811610396 $735 $931 forward 7 unknown #
vertex $-1 $868 $932 #
straight-curve $-1 -33.693328808530829 -23.571395530743615 0.50325903539902583 0 0.70710677298230451 0.70710678939079041 I I #
point $-1 -33.693328808530829 -18.688561666438144 5.3860930130111626 #
point $-1 -13.577772644391663 -23.571395530743626 0.50325903539901518 #
straight-curve $-1 0 -23.571395530743626 5.3860930130111626 1 0 0 I I #
vertex $-1 $742 $933 #
point $-1 -26.946027047348213 -18.630104584998033 0.44480206862206956 #
vertex $-1 $746 $934 #
point $-1 -18.325074405574284 -18.630104584998033 0.44480206862206956 #
edge $-1 $879 29.845601653569737 $882 34.728435631181881 $751 $935 forward 7 unknown #
vertex $-1 $765 $936 #
straight-curve $-1 18.715214792179218 -46.765763725969229 5.3860930130111626 0 -1 0 I I #
edge $-1 $882 4.3287183550548178 $762 24.444274519193982 $761 $937 forward 7 unknown #
vertex $-1 $881 $938 #
straight-curve $-1 18.715214792179218 -23.571395530743615 0.50325903539902583 0 0.70710677298230451 0.70710678939079041 I I #
point $-1 18.715214792179218 -18.688561666438144 5.3860930130111626 #
point $-1 38.830770956318382 -23.571395530743626 0.50325903539901518 #
straight-curve $-1 0 -23.571395530743626 5.3860930130111626 1 0 0 I I #
vertex $-1 $768 $939 #
point $-1 25.462516553361837 -18.630104584998033 0.44480206862206956 #
vertex $-1 $772 $940 #
point $-1 34.083469195135777 -18.630104584998033 0.44480206862206956 #
straight-curve $-1 -49.46928312021241 23.571395530743626 0 0 0 -1 I I #
point $-1 -49.46928312021241 -23.571395530743626 -5.3860930130111626 #
straight-curve $-1 -49.46928312021241 0 -5.3860930130111626 0 1 0 I I #
point $-1 -49.46928312021241 23.571395530743626 -5.3860930130111626 #
coedge $-1 $794 $793 $896 $941 reversed $420 $-1 #
coedge $-1 $799 $795 $895 $941 forward $602 $-1 #
vertex $-1 $796 $942 #
straight-curve $-1 0 23.571395530743626 5.3860930130111626 -1 0 0 I I #
point $-1 -44.331840972424857 23.571395530743626 5.3860930130111626 #
vertex $-1 $941 $943 #
straight-curve $-1 0 -23.571395530743626 5.3860930130111626 1 0 0 I I #
straight-curve $-1 -49.46928312021241 -23.571395530743626 0 0 0 -1 I I #
straight-curve $-1 -49.46928312021241 23.571395530743626 0 0 0 -1 I I #
straight-curve $-1 -20.881559949265537 23.571395530743626 50.642730059284602 0 0 -1 I I #
point $-1 -20.881559949265537 23.571395530743626 5.3860930130111626 #
straight-curve $-1 -13.275861482222552 23.571395530743626 0.048716581490662492 -1 0 0 I I #
point $-1 -20.881559949265537 23.571395530743626 0.048716581490666044 #
point $-1 -28.981792828093493 18.045030730925383 -0.094977629327677948 #
point $-1 -24.121653100796721 18.045030730925383 -0.094977629327677948 #
straight-curve $-1 2.5687210738937853 23.571395530743626 50.642730059284602 0 0 -1 I I #
point $-1 2.5687210738937853 23.571395530743626 5.3860930130111626 #
straight-curve $-1 -1.5507209706428924 23.571395530743626 0.048716581490662492 -1 0 0 I I #
point $-1 2.5687210738937853 23.571395530743626 0.048716581490666044 #
point $-1 -5.5315118049341763 18.045030730925383 -0.094977629327677948 #
point $-1 -0.67137207763740037 18.045030730925383 -0.094977629327677948 #
straight-curve $-1 26.019002097053104 23.571395530743626 50.642730059284602 0 0 -1 I I #
point $-1 26.019002097053104 23.571395530743626 5.3860930130111626 #
straight-curve $-1 10.174419540936768 23.571395530743626 0.048716581490662492 -1 0 0 I I #
point $-1 26.019002097053104 23.571395530743626 0.048716581490666044 #
point $-1 17.918769218225137 18.045030730925383 -0.094977629327677948 #
point $-1 22.77890894552192 18.045030730925383 -0.094977629327677948 #
edge $-1 $859 -5.3860930130111626 $853 -0.048716581490666044 $850 $944 forward 7 unknown #
straight-curve $-1 21.899560052516428 23.571395530743626 0.048716581490662492 -1 0 0 I I #
point $-1 49.469283120212424 23.571395530743626 0.048716581490666044 #
straight-curve $-1 49.46928312021241 0 5.3860930130111626 0 1 0 I I #
point $-1 49.46928312021241 23.571395530743626 5.3860930130111626 #
point $-1 41.369050241384457 18.045030730925383 -0.094977629327677948 #
point $-1 46.22918996868124 18.045030730925383 -0.094977629327677948 #
straight-curve $-1 -33.693328808530829 -23.571395530743629 35.2316946665809 0 0 -1 I I #
point $-1 -33.693328808530829 -23.571395530743626 5.3860930130111626 #
straight-curve $-1 -11.817775363230623 -23.571395530743626 0.50325903539901606 1 0 0 I I #
point $-1 -33.693328808530829 -23.571395530743626 0.50325903539901518 #
point $-1 -27.946027047348213 -17.922997795607241 -0.26230470436023495 #
point $-1 -19.325074405574284 -17.922997795607241 -0.26230470436023495 #
straight-curve $-1 18.715214792179218 -23.571395530743629 35.2316946665809 0 0 -1 I I #
point $-1 18.715214792179218 -23.571395530743626 5.3860930130111626 #
straight-curve $-1 14.3864964371244 -23.571395530743626 0.50325903539901606 1 0 0 I I #
point $-1 18.715214792179218 -23.571395530743626 0.50325903539901518 #
point $-1 24.462516553361837 -17.922997795607241 -0.26230470436023495 #
point $-1 33.083469195135777 -17.922997795607241 -0.26230470436023495 #
edge $-1 $897 -23.571395530743626 $900 23.571395530743626 $895 $945 forward 7 unknown #
point $-1 -49.46928312021241 23.571395530743626 5.3860930130111626 #
point $-1 -49.46928312021241 -23.571395530743626 5.3860930130111626 #
straight-curve $-1 49.46928312021241 23.571395530743626 0 0 0 -1 I I #
straight-curve $-1 -49.46928312021241 0 5.3860930130111626 0 -1 0 I I #
End-of-ACIS-data 