500 0 8 0           
7 Unknown 11 ACIS 5.0 NT 24 Fri Mar 26 17:03:39 1999 
-1 9.9999999999999995e-007 1e-010 
body $-1 $8 $-1 $9 #
body $-1 $10 $-1 $11 #
body $-1 $12 $-1 $13 #
body $-1 $14 $-1 $15 #
body $-1 $16 $-1 $17 #
body $-1 $18 $-1 $19 #
body $-1 $20 $-1 $21 #
body $-1 $22 $-1 $23 #
lump $-1 $-1 $24 $0 #
transform $-1 1 0 0 0 1 0 0 0 1 60.591448713644823 38.668354182123508 9.3013163851637639 1 rotate no_reflect no_shear #
lump $-1 $-1 $25 $1 #
transform $-1 1 0 0 0 1 0 0 0 1 60.591448713644823 38.668354182123508 9.3013163851637639 1 rotate no_reflect no_shear #
lump $-1 $-1 $26 $2 #
transform $-1 1 0 0 0 1 0 0 0 1 60.591448713644823 38.668354182123508 9.3013163851637639 1 rotate no_reflect no_shear #
lump $-1 $-1 $27 $3 #
transform $-1 1 0 0 0 1 0 0 0 1 60.591448713644823 38.668354182123508 9.3013163851637639 1 rotate no_reflect no_shear #
lump $-1 $-1 $28 $4 #
transform $-1 1 0 0 0 1 0 0 0 1 60.591448713644823 38.668354182123508 9.3013163851637639 1 rotate no_reflect no_shear #
lump $-1 $-1 $29 $5 #
transform $-1 1 0 0 0 1 0 0 0 1 60.591448713644823 38.668354182123508 9.3013163851637639 1 rotate no_reflect no_shear #
lump $-1 $-1 $30 $6 #
transform $-1 1 0 0 0 1 0 0 0 1 60.591448713644823 38.668354182123508 9.3013163851637639 1 rotate no_reflect no_shear #
lump $-1 $-1 $31 $7 #
transform $-1 1 0 0 0 1 0 0 0 1 60.591448713644823 38.668354182123508 9.3013163851637639 1 rotate no_reflect no_shear #
shell $-1 $-1 $-1 $32 $-1 $8 #
shell $-1 $-1 $-1 $33 $-1 $10 #
shell $-1 $-1 $-1 $34 $-1 $12 #
shell $-1 $-1 $-1 $35 $-1 $14 #
shell $-1 $-1 $-1 $36 $-1 $16 #
shell $-1 $-1 $-1 $37 $-1 $18 #
shell $-1 $-1 $-1 $38 $-1 $20 #
shell $-1 $-1 $-1 $39 $-1 $22 #
face $-1 $40 $41 $24 $-1 $42 forward single #
face $-1 $43 $44 $25 $-1 $45 reversed single #
face $-1 $46 $47 $26 $-1 $48 reversed single #
face $-1 $49 $50 $27 $-1 $51 forward single #
face $-1 $52 $53 $28 $-1 $54 forward single #
face $-1 $55 $56 $29 $-1 $57 reversed single #
face $-1 $58 $59 $30 $-1 $60 forward single #
face $-1 $61 $62 $31 $-1 $63 forward single #
face $-1 $64 $65 $24 $-1 $66 reversed single #
loop $-1 $-1 $67 $32 #
plane-surface $-1 0 0 9.3013163851637639 0 0 1 1 0 0 forward_v I I I I #
face $-1 $68 $69 $25 $-1 $70 reversed single #
loop $-1 $-1 $71 $33 #
plane-surface $-1 -56.128043133955089 0 6.3013163851637639 0 0 1 1 0 0 forward_v I I I I #
face $-1 $72 $73 $26 $-1 $74 reversed single #
loop $-1 $-1 $75 $34 #
plane-surface $-1 -24.038502306208258 74.552408198401324 139.99644415896469 1 0 0 0 -0.73135370988377701 -0.68199835119979291 forward_v I I I I #
face $-1 $76 $77 $27 $-1 $78 forward single #
loop $-1 $79 $80 $35 #
cone-surface $-1 -18.562317529374738 32.296219309430327 2.8041623102415683 0 -0.73135370988377701 -0.68199835119979291 2 0 0 1 I I 0 1 2 forward I I I I #
face $-1 $81 $82 $28 $-1 $83 forward single #
loop $-1 $84 $85 $36 #
cone-surface $-1 -10.348040364124458 32.296219309430327 2.8041623102415683 0 -0.73135370988377701 -0.68199835119979291 2 0 0 1 I I 0 1 2 forward I I I I #
face $-1 $86 $87 $29 $-1 $88 reversed single #
loop $-1 $-1 $89 $37 #
plane-surface $-1 13.798666746670392 74.552408198401324 139.99644415896469 1 0 0 0 -0.73135370988377701 -0.68199835119979291 forward_v I I I I #
face $-1 $90 $91 $30 $-1 $92 forward single #
loop $-1 $93 $94 $38 #
cone-surface $-1 19.274851523503912 32.296219309430327 2.8041623102415683 0 -0.73135370988377701 -0.68199835119979291 2 0 0 1 I I 0 1 2 forward I I I I #
face $-1 $95 $96 $31 $-1 $97 forward single #
loop $-1 $98 $99 $39 #
cone-surface $-1 27.489128688754192 32.296219309430327 2.8041623102415683 0 -0.73135370988377701 -0.68199835119979291 2 0 0 1 I I 0 1 2 forward I I I I #
face $-1 $100 $101 $24 $-1 $102 reversed single #
loop $-1 $-1 $103 $40 #
plane-surface $-1 0 0 -9.3013163851637639 0 0 1 1 0 0 forward_v I I I I #
coedge $-1 $104 $105 $106 $107 forward $41 $-1 #
face $-1 $108 $109 $25 $-1 $110 reversed single #
loop $-1 $-1 $111 $43 #
plane-surface $-1 -51.664637554265354 0 7.8013163851637639 -1 0 0 0 0 1 forward_v I I I I #
coedge $-1 $112 $113 $114 $115 forward $44 $-1 #
face $-1 $116 $117 $26 $-1 $118 reversed single #
loop $-1 $-1 $119 $46 #
plane-surface $-1 -14.455178946749598 -14.075153409512183 57.349907919939525 0 0.73135370988377701 0.68199835119979291 1 0 0 forward_v I I I I #
coedge $-1 $120 $121 $122 $123 reversed $47 $-1 #
face $-1 $-1 $124 $27 $-1 $125 forward single #
loop $-1 $126 $127 $49 #
cone-surface $-1 -18.562317529374738 29.161466830044148 -0.11904159707241568 0 -0.73135370988377701 -0.68199835119979291 1 0 0 1 I I -0.70710678118654746 0.70710678118654746 1 forward I I I I #
loop $-1 $-1 $128 $35 #
coedge $-1 $80 $80 $129 $130 reversed $50 $-1 #
face $-1 $-1 $131 $28 $-1 $132 forward single #
loop $-1 $133 $134 $52 #
cone-surface $-1 -10.348040364124458 29.161466830044148 -0.11904159707241568 0 -0.73135370988377701 -0.68199835119979291 1 0 0 1 I I -0.70710678118654746 0.70710678118654746 1 forward I I I I #
loop $-1 $-1 $135 $36 #
coedge $-1 $85 $85 $136 $137 reversed $53 $-1 #
face $-1 $138 $139 $29 $-1 $140 reversed single #
loop $-1 $-1 $141 $55 #
plane-surface $-1 23.381990106129052 -14.075153409512183 57.349907919939525 0 0.73135370988377701 0.68199835119979291 1 0 0 forward_v I I I I #
coedge $-1 $142 $143 $144 $145 reversed $56 $-1 #
face $-1 $-1 $146 $30 $-1 $147 forward single #
loop $-1 $148 $149 $58 #
cone-surface $-1 19.274851523503912 29.161466830044148 -0.11904159707241568 0 -0.73135370988377701 -0.68199835119979291 1 0 0 1 I I -0.70710678118654746 0.70710678118654746 1 forward I I I I #
loop $-1 $-1 $150 $38 #
coedge $-1 $94 $94 $151 $152 reversed $59 $-1 #
face $-1 $-1 $153 $31 $-1 $154 forward single #
loop $-1 $155 $156 $61 #
cone-surface $-1 27.489128688754192 29.161466830044148 -0.11904159707241568 0 -0.73135370988377701 -0.68199835119979291 1 0 0 1 I I -0.70710678118654746 0.70710678118654746 1 forward I I I I #
loop $-1 $-1 $157 $39 #
coedge $-1 $99 $99 $158 $159 reversed $62 $-1 #
face $-1 $160 $161 $24 $-1 $162 reversed single #
loop $-1 $-1 $163 $64 #
plane-surface $-1 0 -38.668354182123508 0 0 1 0 0 0 1 forward_v I I I I #
coedge $-1 $164 $165 $166 $167 forward $65 $-1 #
coedge $-1 $168 $67 $169 $170 forward $41 $-1 #
coedge $-1 $67 $168 $171 $172 forward $41 $-1 #
coedge $-1 $173 $174 $67 $107 reversed $175 $-1 #
edge $-1 $176 -38.668354182123508 $177 38.668354182123508 $106 $178 forward 7 unknown #
face $-1 $179 $180 $25 $-1 $181 reversed single #
loop $-1 $-1 $182 $68 #
plane-surface $-1 0 38.668354182123508 0 0 -1 0 0 0 -1 forward_v I I I I #
coedge $-1 $114 $183 $184 $185 reversed $69 $-1 #
coedge $-1 $186 $71 $187 $188 reversed $44 $-1 #
coedge $-1 $71 $186 $189 $190 reversed $44 $-1 #
coedge $-1 $191 $111 $71 $115 reversed $69 $-1 #
edge $-1 $192 -38.668354182123508 $193 38.668354182123508 $114 $194 forward 7 unknown #
face $-1 $195 $196 $26 $-1 $197 forward single #
loop $-1 $-1 $198 $72 #
plane-surface $-1 -4.8718555872909377 74.552408198401324 139.99644415896469 -1 0 0 0 0.73135370988377701 0.68199835119979291 forward_v I I I I #
coedge $-1 $199 $200 $201 $202 reversed $73 $-1 #
coedge $-1 $121 $75 $203 $204 reversed $47 $-1 #
coedge $-1 $75 $120 $199 $205 reversed $47 $-1 #
coedge $-1 $201 $206 $75 $123 forward $196 $-1 #
edge $-1 $207 -1.3921500829228464 $208 6.5453221234587176 $122 $209 forward 7 unknown #
loop $-1 $-1 $129 $76 #
plane-surface $-1 -14.455178946749598 -14.075153409512183 57.349907919939525 0 0.73135370988377701 0.68199835119979291 1 0 0 forward_v I I I I #
loop $-1 $-1 $210 $49 #
coedge $-1 $127 $127 $128 $211 reversed $77 $-1 #
coedge $-1 $128 $128 $127 $211 forward $79 $-1 #
coedge $-1 $129 $129 $80 $130 forward $124 $-1 #
edge $-1 $212 0 $212 6.2831853071796004 $129 $213 forward 7 unknown #
loop $-1 $-1 $136 $81 #
plane-surface $-1 -14.455178946749598 -14.075153409512183 57.349907919939525 0 0.73135370988377701 0.68199835119979291 1 0 0 forward_v I I I I #
loop $-1 $-1 $214 $52 #
coedge $-1 $134 $134 $135 $215 reversed $82 $-1 #
coedge $-1 $135 $135 $134 $215 forward $84 $-1 #
coedge $-1 $136 $136 $85 $137 forward $131 $-1 #
edge $-1 $216 0 $216 6.2831853071796004 $136 $217 forward 7 unknown #
face $-1 $218 $219 $29 $-1 $220 forward single #
loop $-1 $-1 $221 $86 #
plane-surface $-1 32.965313465587712 74.552408198401324 139.99644415896469 -1 0 0 0 0.73135370988377701 0.68199835119979291 forward_v I I I I #
coedge $-1 $222 $223 $224 $225 reversed $87 $-1 #
coedge $-1 $143 $89 $226 $227 reversed $56 $-1 #
coedge $-1 $89 $142 $222 $228 reversed $56 $-1 #
coedge $-1 $224 $229 $89 $145 forward $219 $-1 #
edge $-1 $230 -1.3921500829228464 $231 6.5453221234587176 $144 $232 forward 7 unknown #
loop $-1 $-1 $151 $90 #
plane-surface $-1 23.381990106129052 -14.075153409512183 57.349907919939525 0 0.73135370988377701 0.68199835119979291 1 0 0 forward_v I I I I #
loop $-1 $-1 $233 $58 #
coedge $-1 $149 $149 $150 $234 reversed $91 $-1 #
coedge $-1 $150 $150 $149 $234 forward $93 $-1 #
coedge $-1 $151 $151 $94 $152 forward $146 $-1 #
edge $-1 $235 0 $235 6.2831853071796004 $151 $236 forward 7 unknown #
loop $-1 $-1 $158 $95 #
plane-surface $-1 23.381990106129052 -14.075153409512183 57.349907919939525 0 0.73135370988377701 0.68199835119979291 1 0 0 forward_v I I I I #
loop $-1 $-1 $237 $61 #
coedge $-1 $156 $156 $157 $238 reversed $96 $-1 #
coedge $-1 $157 $157 $156 $238 forward $98 $-1 #
coedge $-1 $158 $158 $99 $159 forward $153 $-1 #
edge $-1 $239 0 $239 6.2831853071796004 $158 $240 forward 7 unknown #
face $-1 $241 $242 $24 $-1 $243 reversed single #
loop $-1 $-1 $244 $100 #
plane-surface $-1 -60.591448713644823 0 0 1 0 0 0 0 -1 forward_v I I I I #
coedge $-1 $245 $171 $246 $247 forward $101 $-1 #
coedge $-1 $248 $103 $245 $249 forward $65 $-1 #
coedge $-1 $103 $248 $250 $251 forward $65 $-1 #
coedge $-1 $174 $173 $103 $167 reversed $175 $-1 #
edge $-1 $252 -38.668354182123508 $253 38.668354182123508 $166 $254 forward 7 unknown #
coedge $-1 $105 $104 $255 $256 forward $41 $-1 #
coedge $-1 $257 $258 $104 $170 reversed $242 $-1 #
edge $-1 $177 -60.591448713644823 $259 60.591448713644823 $169 $260 forward 7 unknown #
coedge $-1 $163 $261 $105 $172 reversed $101 $-1 #
edge $-1 $262 -60.591448713644823 $176 60.591448713644823 $171 $263 forward 7 unknown #
coedge $-1 $166 $106 $261 $264 forward $175 $-1 #
coedge $-1 $106 $166 $257 $265 reversed $175 $-1 #
loop $-1 $-1 $173 $241 #
vertex $-1 $107 $266 #
vertex $-1 $107 $267 #
straight-curve $-1 60.591448713644823 0 9.3013163851637639 0 1 0 I I #
face $-1 $268 $269 $25 $-1 $270 forward single #
loop $-1 $-1 $271 $108 #
plane-surface $-1 -60.591448713644823 0 0 1 0 0 0 0 -1 forward_v I I I I #
coedge $-1 $189 $272 $191 $273 forward $109 $-1 #
coedge $-1 $111 $191 $274 $275 reversed $69 $-1 #
coedge $-1 $276 $187 $111 $185 forward $277 $-1 #
edge $-1 $193 2.400658192581882 $278 5.400658192581882 $184 $279 forward 7 unknown #
coedge $-1 $113 $112 $271 $280 reversed $44 $-1 #
coedge $-1 $184 $281 $112 $188 forward $277 $-1 #
edge $-1 $282 -32.527427146667279 $193 -23.60061598728781 $187 $283 forward 7 unknown #
coedge $-1 $284 $182 $113 $190 forward $109 $-1 #
edge $-1 $192 23.60061598728781 $285 32.527427146667279 $189 $286 forward 7 unknown #
coedge $-1 $183 $114 $182 $273 reversed $69 $-1 #
vertex $-1 $190 $287 #
vertex $-1 $188 $288 #
straight-curve $-1 -51.664637554265354 0 6.3013163851637639 0 -1 0 I I #
face $-1 $-1 $289 $26 $-1 $290 reversed single #
loop $-1 $-1 $122 $116 #
plane-surface $-1 0 0 9.3013163851637639 0 0 1 1 0 0 forward_v I I I I #
coedge $-1 $291 $292 $293 $294 reversed $117 $-1 #
coedge $-1 $295 $119 $121 $205 forward $73 $-1 #
coedge $-1 $119 $295 $291 $296 forward $73 $-1 #
coedge $-1 $293 $122 $119 $202 forward $196 $-1 #
edge $-1 $208 -16.810912832833459 $297 2.3557338860838613 $201 $298 forward 7 unknown #
coedge $-1 $299 $300 $120 $204 forward $289 $-1 #
edge $-1 $301 -69.208802731934597 $207 -60.696905694318581 $203 $302 forward 7 unknown #
edge $-1 $208 65.698157930191371 $301 77.336708364247002 $121 $303 forward 7 unknown #
coedge $-1 $122 $293 $299 $304 forward $196 $-1 #
vertex $-1 $204 $305 #
vertex $-1 $123 $306 #
straight-curve $-1 -24.038502306208258 37.276204099200662 9.3013163851637586 0 -1 0 I I #
coedge $-1 $210 $210 $-1 $307 reversed $126 $-1 #
edge $-1 $308 0 $308 6.2831853071796004 $127 $309 forward 7 unknown #
vertex $-1 $130 $310 #
ellipse-curve $-1 -18.562317529374738 34.699618078932723 5.0453678663557593 0 0.73135370988377701 0.68199835119979291 2 0 0 1 I I #
coedge $-1 $214 $214 $-1 $311 reversed $133 $-1 #
edge $-1 $312 0 $312 6.2831853071796004 $134 $313 forward 7 unknown #
vertex $-1 $137 $314 #
ellipse-curve $-1 -10.348040364124458 34.699618078932723 5.0453678663557593 0 0.73135370988377701 0.68199835119979291 2 0 0 1 I I #
face $-1 $-1 $315 $29 $-1 $316 reversed single #
loop $-1 $-1 $144 $138 #
plane-surface $-1 0 0 9.3013163851637639 0 0 1 1 0 0 forward_v I I I I #
coedge $-1 $317 $318 $319 $320 reversed $139 $-1 #
coedge $-1 $321 $141 $143 $228 forward $87 $-1 #
coedge $-1 $141 $321 $317 $322 forward $87 $-1 #
coedge $-1 $319 $144 $141 $225 forward $219 $-1 #
edge $-1 $231 2.1076716936058659 $323 21.274318412523186 $224 $324 forward 7 unknown #
coedge $-1 $325 $326 $142 $227 forward $315 $-1 #
edge $-1 $327 -69.208802731934597 $230 -60.696905694318581 $226 $328 forward 7 unknown #
edge $-1 $231 65.698157930191371 $327 77.336708364247002 $143 $329 forward 7 unknown #
coedge $-1 $144 $319 $325 $330 forward $219 $-1 #
vertex $-1 $145 $331 #
vertex $-1 $145 $332 #
straight-curve $-1 13.798666746670392 37.276204099200662 9.3013163851637586 0 -1 0 I I #
coedge $-1 $233 $233 $-1 $333 reversed $148 $-1 #
edge $-1 $334 0 $334 6.2831853071796004 $149 $335 forward 7 unknown #
vertex $-1 $152 $336 #
ellipse-curve $-1 19.274851523503912 34.699618078932723 5.0453678663557593 0 0.73135370988377701 0.68199835119979291 2 0 0 1 I I #
coedge $-1 $237 $237 $-1 $337 reversed $155 $-1 #
edge $-1 $338 0 $338 6.2831853071796004 $156 $339 forward 7 unknown #
vertex $-1 $159 $340 #
ellipse-curve $-1 27.489128688754192 34.699618078932723 5.0453678663557593 0 0.73135370988377701 0.68199835119979291 2 0 0 1 I I #
face $-1 $-1 $175 $24 $-1 $341 reversed single #
loop $-1 $-1 $257 $160 #
plane-surface $-1 0 38.668354182123508 0 0 -1 0 0 0 -1 forward_v I I I I #
coedge $-1 $342 $255 $258 $343 forward $161 $-1 #
coedge $-1 $261 $163 $164 $249 reversed $101 $-1 #
coedge $-1 $255 $342 $163 $247 reversed $161 $-1 #
edge $-1 $262 -9.3013163851637639 $344 9.3013163851637639 $246 $345 forward 7 unknown #
coedge $-1 $165 $164 $342 $346 forward $65 $-1 #
edge $-1 $253 -60.591448713644823 $344 60.591448713644823 $245 $347 forward 7 unknown #
coedge $-1 $258 $257 $165 $251 reversed $242 $-1 #
edge $-1 $348 -60.591448713644823 $252 60.591448713644823 $250 $349 forward 7 unknown #
vertex $-1 $167 $350 #
vertex $-1 $264 $351 #
straight-curve $-1 60.591448713644823 0 -9.3013163851637639 0 -1 0 I I #
coedge $-1 $244 $246 $168 $256 reversed $161 $-1 #
edge $-1 $259 -38.668354182123508 $262 38.668354182123508 $255 $352 forward 7 unknown #
coedge $-1 $250 $169 $174 $265 forward $242 $-1 #
coedge $-1 $169 $250 $244 $343 reversed $242 $-1 #
vertex $-1 $170 $353 #
straight-curve $-1 0 38.668354182123508 9.3013163851637639 -1 0 0 I I #
coedge $-1 $171 $245 $173 $264 reversed $101 $-1 #
vertex $-1 $256 $354 #
straight-curve $-1 0 -38.668354182123508 9.3013163851637639 1 0 0 I I #
edge $-1 $176 -9.3013163851637639 $253 9.3013163851637639 $173 $355 forward 7 unknown #
edge $-1 $177 -9.3013163851637639 $252 9.3013163851637639 $174 $356 forward 7 unknown #
point $-1 60.591448713644823 -38.668354182123508 9.3013163851637639 #
point $-1 60.591448713644823 38.668354182123508 9.3013163851637639 #
face $-1 $-1 $277 $25 $-1 $357 reversed single #
loop $-1 $-1 $274 $179 #
plane-surface $-1 0 0 9.3013163851637639 0 0 1 1 0 0 forward_v I I I I #
coedge $-1 $358 $359 $186 $280 forward $180 $-1 #
coedge $-1 $182 $284 $360 $361 reversed $109 $-1 #
edge $-1 $362 -5.400658192581882 $192 -2.400658192581882 $182 $363 forward 7 unknown #
coedge $-1 $360 $364 $183 $275 forward $269 $-1 #
edge $-1 $278 -38.668354182123508 $362 38.668354182123508 $274 $365 forward 7 unknown #
coedge $-1 $281 $184 $364 $366 reversed $277 $-1 #
loop $-1 $-1 $184 $268 #
vertex $-1 $185 $367 #
straight-curve $-1 -51.664637554265354 -38.668354182123508 3.900658192581882 0 0 1 I I #
edge $-1 $285 -38.668354182123508 $282 38.668354182123508 $271 $368 forward 7 unknown #
coedge $-1 $187 $276 $358 $369 forward $277 $-1 #
vertex $-1 $280 $370 #
straight-curve $-1 -28.064021566977544 -38.668354182123508 6.3013163851637639 1 0 0 I I #
coedge $-1 $272 $189 $359 $371 reversed $109 $-1 #
vertex $-1 $280 $372 #
straight-curve $-1 -28.064021566977544 38.668354182123508 6.3013163851637639 -1 0 0 I I #
point $-1 -51.664637554265354 38.668354182123508 6.3013163851637639 #
point $-1 -51.664637554265354 -38.668354182123508 6.3013163851637639 #
loop $-1 $-1 $203 $195 #
plane-surface $-1 0 38.668354182123508 0 0 -1 0 0 0 -1 forward_v I I I I #
coedge $-1 $292 $198 $200 $296 reversed $117 $-1 #
coedge $-1 $198 $291 $373 $374 reversed $117 $-1 #
coedge $-1 $206 $201 $198 $294 forward $196 $-1 #
edge $-1 $297 -6.5453221234587176 $375 1.3921500829228464 $293 $376 forward 7 unknown #
coedge $-1 $200 $199 $300 $377 reversed $73 $-1 #
edge $-1 $378 -77.336708364247002 $297 -65.698157930191371 $291 $379 forward 7 unknown #
vertex $-1 $202 $380 #
straight-curve $-1 -7.227589473374799 30.730881975741944 9.3013163851637621 1 0 0 I I #
coedge $-1 $373 $203 $206 $304 reversed $289 $-1 #
coedge $-1 $203 $373 $295 $377 forward $289 $-1 #
vertex $-1 $204 $381 #
straight-curve $-1 -24.038502306208258 38.668354182123508 69.998222079482346 0 0 1 I I #
straight-curve $-1 -24.038502306208258 -14.075153409512183 57.349907919939525 0 0.68199835119979291 -0.73135370988377701 I I #
edge $-1 $375 4.8718555872909377 $207 24.038502306208258 $299 $382 forward 7 unknown #
point $-1 -24.038502306208258 38.668354182123508 9.3013163851637639 #
point $-1 -24.038502306208258 30.730881975741944 9.3013163851637728 #
edge $-1 $383 1 $383 0 $210 $-1 forward 7 unknown #
vertex $-1 $211 $384 #
ellipse-curve $-1 -18.562317529374738 29.892820539927925 0.56295675412737722 0 0.73135370988377701 0.68199835119979291 2 0 0 1 I I #
point $-1 -16.562317529374738 34.699618078932723 5.0453678663557593 #
edge $-1 $385 1 $385 0 $214 $-1 forward 7 unknown #
vertex $-1 $215 $386 #
ellipse-curve $-1 -10.348040364124458 29.892820539927925 0.56295675412737722 0 0.73135370988377701 0.68199835119979291 2 0 0 1 I I #
point $-1 -8.3480403641244578 34.699618078932723 5.0453678663557593 #
loop $-1 $-1 $226 $218 #
plane-surface $-1 0 38.668354182123508 0 0 -1 0 0 0 -1 forward_v I I I I #
coedge $-1 $318 $221 $223 $322 reversed $139 $-1 #
coedge $-1 $221 $317 $387 $388 reversed $139 $-1 #
coedge $-1 $229 $224 $221 $320 forward $219 $-1 #
edge $-1 $323 -6.5453221234587176 $389 1.3921500829228464 $319 $390 forward 7 unknown #
coedge $-1 $223 $222 $326 $391 reversed $87 $-1 #
edge $-1 $392 -77.336708364247002 $323 -65.698157930191371 $317 $393 forward 7 unknown #
vertex $-1 $225 $394 #
straight-curve $-1 11.690995053064526 30.730881975741944 9.3013163851637621 1 0 0 I I #
coedge $-1 $387 $226 $229 $330 reversed $315 $-1 #
coedge $-1 $226 $387 $321 $391 forward $315 $-1 #
vertex $-1 $227 $395 #
straight-curve $-1 13.798666746670392 38.668354182123508 69.998222079482346 0 0 1 I I #
straight-curve $-1 13.798666746670392 -14.075153409512183 57.349907919939525 0 0.68199835119979291 -0.73135370988377701 I I #
edge $-1 $389 -32.965313465587712 $230 -13.798666746670392 $325 $396 forward 7 unknown #
point $-1 13.798666746670392 38.668354182123508 9.3013163851637639 #
point $-1 13.798666746670392 30.730881975741944 9.3013163851637728 #
edge $-1 $397 1 $397 0 $233 $-1 forward 7 unknown #
vertex $-1 $234 $398 #
ellipse-curve $-1 19.274851523503912 29.892820539927925 0.56295675412737722 0 0.73135370988377701 0.68199835119979291 2 0 0 1 I I #
point $-1 21.274851523503912 34.699618078932723 5.0453678663557593 #
edge $-1 $399 1 $399 0 $237 $-1 forward 7 unknown #
vertex $-1 $238 $400 #
ellipse-curve $-1 27.489128688754192 29.892820539927925 0.56295675412737722 0 0.73135370988377701 0.68199835119979291 2 0 0 1 I I #
point $-1 29.489128688754192 34.699618078932723 5.0453678663557593 #
plane-surface $-1 60.591448713644823 0 0 -1 0 0 0 0 1 forward_v I I I I #
coedge $-1 $246 $244 $248 $346 reversed $161 $-1 #
edge $-1 $259 -9.3013163851637639 $348 9.3013163851637639 $258 $401 forward 7 unknown #
vertex $-1 $346 $402 #
straight-curve $-1 -60.591448713644823 -38.668354182123508 0 0 0 -1 I I #
edge $-1 $344 -38.668354182123508 $348 38.668354182123508 $342 $403 forward 7 unknown #
straight-curve $-1 0 -38.668354182123508 -9.3013163851637639 -1 0 0 I I #
vertex $-1 $251 $404 #
straight-curve $-1 0 38.668354182123508 -9.3013163851637639 1 0 0 I I #
point $-1 60.591448713644823 38.668354182123508 -9.3013163851637639 #
point $-1 60.591448713644823 -38.668354182123508 -9.3013163851637639 #
straight-curve $-1 -60.591448713644823 0 9.3013163851637639 0 -1 0 I I #
point $-1 -60.591448713644823 38.668354182123508 9.3013163851637639 #
point $-1 -60.591448713644823 -38.668354182123508 9.3013163851637639 #
straight-curve $-1 60.591448713644823 -38.668354182123508 0 0 0 -1 I I #
straight-curve $-1 60.591448713644823 38.668354182123508 0 0 0 -1 I I #
plane-surface $-1 0 -38.668354182123508 0 0 1 0 0 0 1 forward_v I I I I #
coedge $-1 $405 $271 $281 $369 reversed $180 $-1 #
coedge $-1 $271 $405 $284 $371 forward $180 $-1 #
coedge $-1 $406 $274 $272 $361 forward $269 $-1 #
edge $-1 $362 51.664637554265354 $407 60.591448713644823 $272 $408 forward 7 unknown #
vertex $-1 $361 $409 #
straight-curve $-1 -51.664637554265354 38.668354182123508 3.900658192581882 0 0 -1 I I #
coedge $-1 $274 $406 $276 $366 forward $269 $-1 #
straight-curve $-1 -51.664637554265354 0 9.3013163851637639 0 1 0 I I #
edge $-1 $410 -60.591448713644823 $278 -51.664637554265354 $276 $411 forward 7 unknown #
point $-1 -51.664637554265354 -38.668354182123508 9.3013163851637639 #
straight-curve $-1 -60.591448713644823 0 6.3013163851637639 0 -1 0 I I #
edge $-1 $410 -9.3013163851637639 $282 -6.3013163851637639 $358 $412 forward 7 unknown #
point $-1 -60.591448713644823 -38.668354182123508 6.3013163851637639 #
edge $-1 $407 -9.3013163851637639 $285 -6.3013163851637639 $284 $413 forward 7 unknown #
point $-1 -60.591448713644823 38.668354182123508 6.3013163851637639 #
coedge $-1 $300 $299 $292 $374 forward $289 $-1 #
edge $-1 $375 60.696905694318581 $378 69.208802731934597 $373 $414 forward 7 unknown #
vertex $-1 $304 $415 #
straight-curve $-1 -4.8718555872909377 37.276204099200662 9.3013163851637586 0 1 0 I I #
edge $-1 $378 -2.3557338860838613 $301 16.810912832833459 $300 $416 forward 7 unknown #
vertex $-1 $377 $417 #
straight-curve $-1 -4.8718555872909377 -14.075153409512183 57.349907919939525 0 -0.68199835119979291 0.73135370988377701 I I #
point $-1 -4.8718555872909377 30.730881975741944 9.3013163851637728 #
point $-1 -24.038502306208258 38.668354182123508 0.78941934754774934 #
straight-curve $-1 0 38.668354182123508 9.3013163851637639 -1 0 0 I I #
vertex $-1 $307 $418 #
point $-1 -16.562317529374738 29.892820539927925 0.56295675412737722 #
vertex $-1 $311 $419 #
point $-1 -8.3480403641244578 29.892820539927925 0.56295675412737722 #
coedge $-1 $326 $325 $318 $388 forward $315 $-1 #
edge $-1 $389 60.696905694318581 $392 69.208802731934597 $387 $420 forward 7 unknown #
vertex $-1 $330 $421 #
straight-curve $-1 32.965313465587712 37.276204099200662 9.3013163851637586 0 1 0 I I #
edge $-1 $392 -21.274318412523186 $327 -2.1076716936058659 $326 $422 forward 7 unknown #
vertex $-1 $391 $423 #
straight-curve $-1 32.965313465587712 -14.075153409512183 57.349907919939525 0 -0.68199835119979291 0.73135370988377701 I I #
point $-1 32.965313465587712 30.730881975741944 9.3013163851637728 #
point $-1 13.798666746670392 38.668354182123508 0.78941934754774934 #
straight-curve $-1 0 38.668354182123508 9.3013163851637639 -1 0 0 I I #
vertex $-1 $333 $424 #
point $-1 21.274851523503912 29.892820539927925 0.56295675412737722 #
vertex $-1 $337 $425 #
point $-1 29.489128688754192 29.892820539927925 0.56295675412737722 #
straight-curve $-1 -60.591448713644823 38.668354182123508 0 0 0 -1 I I #
point $-1 -60.591448713644823 -38.668354182123508 -9.3013163851637639 #
straight-curve $-1 -60.591448713644823 0 -9.3013163851637639 0 1 0 I I #
point $-1 -60.591448713644823 38.668354182123508 -9.3013163851637639 #
coedge $-1 $359 $358 $406 $426 reversed $180 $-1 #
coedge $-1 $364 $360 $405 $426 forward $269 $-1 #
vertex $-1 $361 $427 #
straight-curve $-1 0 38.668354182123508 9.3013163851637639 -1 0 0 I I #
point $-1 -51.664637554265354 38.668354182123508 9.3013163851637639 #
vertex $-1 $426 $428 #
straight-curve $-1 0 -38.668354182123508 9.3013163851637639 1 0 0 I I #
straight-curve $-1 -60.591448713644823 -38.668354182123508 0 0 0 -1 I I #
straight-curve $-1 -60.591448713644823 38.668354182123508 0 0 0 -1 I I #
straight-curve $-1 -4.8718555872909377 38.668354182123508 69.998222079482346 0 0 -1 I I #
point $-1 -4.8718555872909377 38.668354182123508 9.3013163851637639 #
straight-curve $-1 -7.227589473374799 38.668354182123501 0.78941934754775289 -1 0 0 I I #
point $-1 -4.8718555872909377 38.668354182123508 0.78941934754774934 #
point $-1 -18.562317529374738 28.430113120160371 -0.80103994827220859 #
point $-1 -10.348040364124458 28.430113120160371 -0.80103994827220859 #
straight-curve $-1 32.965313465587712 38.668354182123508 69.998222079482346 0 0 -1 I I #
point $-1 32.965313465587712 38.668354182123508 9.3013163851637639 #
straight-curve $-1 11.690995053064526 38.668354182123501 0.78941934754775289 -1 0 0 I I #
point $-1 32.965313465587712 38.668354182123508 0.78941934754774934 #
point $-1 19.274851523503912 28.430113120160371 -0.80103994827220859 #
point $-1 27.489128688754192 28.430113120160371 -0.80103994827220859 #
edge $-1 $407 -38.668354182123508 $410 38.668354182123508 $405 $429 forward 7 unknown #
point $-1 -60.591448713644823 38.668354182123508 9.3013163851637639 #
point $-1 -60.591448713644823 -38.668354182123508 9.3013163851637639 #
straight-curve $-1 -60.591448713644823 0 9.3013163851637639 0 -1 0 I I #
End-of-ACIS-data 