500 0 6 0           
7 Unknown 11 ACIS 5.0 NT 24 Thu Mar 25 18:31:00 1999 
-1 9.9999999999999995e-007 1e-010 
body $-1 $6 $-1 $7 #
body $-1 $8 $-1 $9 #
body $-1 $10 $-1 $11 #
body $-1 $12 $-1 $13 #
body $-1 $14 $-1 $15 #
body $-1 $16 $-1 $17 #
lump $-1 $-1 $18 $0 #
transform $-1 1 0 0 0 1 0 0 0 1 79.460432752464371 50.639626722724429 13.389588975585564 1 rotate no_reflect no_shear #
lump $-1 $-1 $19 $1 #
transform $-1 1 0 0 0 1 0 0 0 1 79.460432752464371 50.639626722724429 13.389588975585564 1 rotate no_reflect no_shear #
lump $-1 $-1 $20 $2 #
transform $-1 1 0 0 0 1 0 0 0 1 79.460432752464371 50.639626722724429 13.389588975585564 1 rotate no_reflect no_shear #
lump $-1 $-1 $21 $3 #
transform $-1 1 0 0 0 1 0 0 0 1 79.460432752464371 50.639626722724429 13.389588975585564 1 rotate no_reflect no_shear #
lump $-1 $-1 $22 $4 #
transform $-1 1 0 0 0 1 0 0 0 1 79.460432752464371 50.639626722724429 13.389588975585564 1 rotate no_reflect no_shear #
lump $-1 $-1 $23 $5 #
transform $-1 1 0 0 0 1 0 0 0 1 79.460432752464371 50.639626722724429 13.389588975585564 1 rotate no_reflect no_shear #
shell $-1 $-1 $-1 $24 $-1 $6 #
shell $-1 $-1 $-1 $25 $-1 $8 #
shell $-1 $-1 $-1 $26 $-1 $10 #
shell $-1 $-1 $-1 $27 $-1 $12 #
shell $-1 $-1 $-1 $28 $-1 $14 #
shell $-1 $-1 $-1 $29 $-1 $16 #
face $-1 $30 $31 $18 $-1 $32 forward single #
face $-1 $33 $34 $19 $-1 $35 forward single #
face $-1 $36 $37 $20 $-1 $38 reversed single #
face $-1 $39 $40 $21 $-1 $41 forward single #
face $-1 $42 $43 $22 $-1 $44 forward single #
face $-1 $45 $46 $23 $-1 $47 forward single #
face $-1 $48 $49 $18 $-1 $50 reversed single #
loop $-1 $-1 $51 $24 #
plane-surface $-1 0 0 13.389588975585564 0 0 1 1 0 0 forward_v I I I I #
face $-1 $52 $53 $19 $-1 $54 forward single #
loop $-1 $-1 $55 $25 #
plane-surface $-1 0 -50.639626722724429 0 0 1 0 0 0 1 forward_v I I I I #
face $-1 $56 $57 $20 $-1 $58 reversed single #
loop $-1 $-1 $59 $26 #
plane-surface $-1 48.181552749173107 -1.4475378009194007 226.82895460490255 0 -1 0 -0.6018150307709319 0 -0.79863550430605224 forward_v I I I I #
face $-1 $60 $61 $21 $-1 $62 forward single #
loop $-1 $63 $64 $27 #
cone-surface $-1 72.498052668070301 -22.396989487586179 7.6211271423173201 -0.6018150307709319 0 -0.79863550430605224 1.5972710086121045 0 -1.2036300615418638 1 I I 0 1 2 forward I I I I #
face $-1 $65 $66 $22 $-1 $67 forward single #
loop $-1 $68 $69 $28 #
cone-surface $-1 72.498052668070301 -14.540945105086138 7.6211271423173201 -0.6018150307709319 0 -0.79863550430605224 1.5972710086121045 0 -1.2036300615418638 1 I I 0 1 2 forward I I I I #
face $-1 $70 $71 $23 $-1 $72 forward single #
loop $-1 $73 $74 $29 #
cone-surface $-1 72.498052668070301 -6.684900722586093 7.6211271423173201 -0.6018150307709319 0 -0.79863550430605224 1.5972710086121045 0 -1.2036300615418638 1 I I 0 1 2 forward I I I I #
face $-1 $75 $76 $18 $-1 $77 reversed single #
loop $-1 $-1 $78 $30 #
plane-surface $-1 0 0 -13.389588975585564 0 0 1 1 0 0 forward_v I I I I #
coedge $-1 $79 $80 $81 $82 forward $31 $-1 #
face $-1 $83 $84 $19 $-1 $85 reversed single #
loop $-1 $-1 $86 $33 #
plane-surface $-1 0 0 13.389588975585564 0 0 1 1 0 0 forward_v I I I I #
coedge $-1 $87 $88 $89 $90 forward $34 $-1 #
face $-1 $91 $92 $20 $-1 $93 reversed single #
loop $-1 $-1 $94 $36 #
plane-surface $-1 -47.45941281481872 -14.540945105086138 99.909109037619487 0.6018150307709319 0 0.79863550430605224 0.79863550430605224 0 -0.6018150307709319 forward_v I I I I #
coedge $-1 $95 $96 $97 $98 reversed $37 $-1 #
face $-1 $-1 $99 $21 $-1 $100 forward single #
loop $-1 $101 $102 $39 #
cone-surface $-1 70.986140942308637 -22.396989487586179 5.6147525557219673 -0.6018150307709319 0 -0.79863550430605224 0.79863550430605224 0 -0.6018150307709319 1 I I -0.70710678118654746 0.70710678118654746 1 forward I I I I #
loop $-1 $-1 $103 $27 #
coedge $-1 $64 $64 $104 $105 reversed $40 $-1 #
face $-1 $-1 $106 $22 $-1 $107 forward single #
loop $-1 $108 $109 $42 #
cone-surface $-1 70.986140942308637 -14.540945105086138 5.6147525557219673 -0.6018150307709319 0 -0.79863550430605224 0.79863550430605224 0 -0.6018150307709319 1 I I -0.70710678118654746 0.70710678118654746 1 forward I I I I #
loop $-1 $-1 $110 $28 #
coedge $-1 $69 $69 $111 $112 reversed $43 $-1 #
face $-1 $-1 $113 $23 $-1 $114 forward single #
loop $-1 $115 $116 $45 #
cone-surface $-1 70.986140942308637 -6.684900722586093 5.6147525557219673 -0.6018150307709319 0 -0.79863550430605224 0.79863550430605224 0 -0.6018150307709319 1 I I -0.70710678118654746 0.70710678118654746 1 forward I I I I #
loop $-1 $-1 $117 $29 #
coedge $-1 $74 $74 $118 $119 reversed $46 $-1 #
face $-1 $120 $121 $18 $-1 $122 reversed single #
loop $-1 $-1 $123 $48 #
plane-surface $-1 0 -50.639626722724429 0 0 1 0 0 0 1 forward_v I I I I #
coedge $-1 $124 $125 $126 $127 forward $49 $-1 #
coedge $-1 $128 $51 $129 $130 forward $31 $-1 #
coedge $-1 $51 $128 $131 $132 forward $31 $-1 #
coedge $-1 $133 $134 $51 $82 reversed $135 $-1 #
edge $-1 $136 -50.639626722724429 $137 50.639626722724429 $81 $138 forward 7 unknown #
face $-1 $139 $140 $19 $-1 $141 reversed single #
loop $-1 $-1 $142 $52 #
plane-surface $-1 -79.460432752464371 0 0 1 0 0 0 0 -1 forward_v I I I I #
coedge $-1 $143 $144 $145 $146 forward $53 $-1 #
coedge $-1 $145 $55 $142 $147 reversed $34 $-1 #
coedge $-1 $55 $145 $148 $149 reversed $34 $-1 #
coedge $-1 $150 $151 $55 $90 reversed $140 $-1 #
edge $-1 $152 -79.460432752464371 $153 79.460432752464371 $89 $154 forward 7 unknown #
face $-1 $155 $156 $20 $-1 $157 reversed single #
loop $-1 $-1 $158 $56 #
plane-surface $-1 48.181552749173107 -27.634352409252877 226.82895460490255 0 1 0 0.6018150307709319 0 0.79863550430605224 forward_v I I I I #
coedge $-1 $159 $160 $161 $162 reversed $57 $-1 #
coedge $-1 $96 $59 $163 $164 reversed $37 $-1 #
coedge $-1 $59 $95 $159 $165 reversed $37 $-1 #
coedge $-1 $161 $166 $59 $98 forward $167 $-1 #
edge $-1 $168 -55.369656377877817 $169 -43.265089599071146 $97 $170 forward 7 unknown #
loop $-1 $-1 $104 $60 #
plane-surface $-1 -47.45941281481872 -14.540945105086138 99.909109037619487 0.6018150307709319 0 0.79863550430605224 0.79863550430605224 0 -0.6018150307709319 forward_v I I I I #
loop $-1 $-1 $171 $39 #
coedge $-1 $102 $102 $103 $172 reversed $61 $-1 #
coedge $-1 $103 $103 $102 $172 forward $63 $-1 #
coedge $-1 $104 $104 $64 $105 forward $99 $-1 #
edge $-1 $173 0 $173 6.2831853071796004 $104 $174 forward 7 unknown #
loop $-1 $-1 $111 $65 #
plane-surface $-1 -47.45941281481872 -14.540945105086138 99.909109037619487 0.6018150307709319 0 0.79863550430605224 0.79863550430605224 0 -0.6018150307709319 forward_v I I I I #
loop $-1 $-1 $175 $42 #
coedge $-1 $109 $109 $110 $176 reversed $66 $-1 #
coedge $-1 $110 $110 $109 $176 forward $68 $-1 #
coedge $-1 $111 $111 $69 $112 forward $106 $-1 #
edge $-1 $177 0 $177 6.2831853071796004 $111 $178 forward 7 unknown #
loop $-1 $-1 $118 $70 #
plane-surface $-1 -47.45941281481872 -14.540945105086138 99.909109037619487 0.6018150307709319 0 0.79863550430605224 0.79863550430605224 0 -0.6018150307709319 forward_v I I I I #
loop $-1 $-1 $179 $45 #
coedge $-1 $116 $116 $117 $180 reversed $71 $-1 #
coedge $-1 $117 $117 $116 $180 forward $73 $-1 #
coedge $-1 $118 $118 $74 $119 forward $113 $-1 #
edge $-1 $181 0 $181 6.2831853071796004 $118 $182 forward 7 unknown #
face $-1 $183 $184 $18 $-1 $185 reversed single #
loop $-1 $-1 $186 $75 #
plane-surface $-1 -79.460432752464371 0 0 1 0 0 0 0 -1 forward_v I I I I #
coedge $-1 $187 $131 $188 $189 forward $76 $-1 #
coedge $-1 $190 $78 $187 $191 forward $49 $-1 #
coedge $-1 $78 $190 $192 $193 forward $49 $-1 #
coedge $-1 $134 $133 $78 $127 reversed $135 $-1 #
edge $-1 $194 -50.639626722724429 $195 50.639626722724429 $126 $196 forward 7 unknown #
coedge $-1 $80 $79 $197 $198 forward $31 $-1 #
coedge $-1 $199 $200 $79 $130 reversed $184 $-1 #
edge $-1 $137 -79.460432752464371 $201 79.460432752464371 $129 $202 forward 7 unknown #
coedge $-1 $123 $203 $80 $132 reversed $76 $-1 #
edge $-1 $204 -79.460432752464371 $136 79.460432752464371 $131 $205 forward 7 unknown #
coedge $-1 $126 $81 $203 $206 forward $135 $-1 #
coedge $-1 $81 $126 $199 $207 reversed $135 $-1 #
loop $-1 $-1 $133 $183 #
vertex $-1 $82 $208 #
vertex $-1 $82 $209 #
straight-curve $-1 79.460432752464371 0 13.389588975585564 0 1 0 I I #
face $-1 $210 $211 $19 $-1 $212 reversed single #
loop $-1 $-1 $150 $83 #
plane-surface $-1 0 -56.322930461194829 9.7088924291000929 0 0 1 1 0 0 forward_v I I I I #
coedge $-1 $213 $214 $87 $147 forward $84 $-1 #
coedge $-1 $215 $86 $214 $216 forward $53 $-1 #
coedge $-1 $86 $215 $217 $218 forward $53 $-1 #
coedge $-1 $88 $87 $86 $146 reversed $34 $-1 #
edge $-1 $219 -79.460432752464371 $220 79.460432752464371 $86 $221 forward 7 unknown #
edge $-1 $220 -13.389588975585564 $153 -9.7088924291000929 $142 $222 forward 7 unknown #
coedge $-1 $217 $223 $88 $149 forward $224 $-1 #
edge $-1 $152 9.7088924291000929 $219 13.389588975585564 $148 $225 forward 7 unknown #
coedge $-1 $226 $89 $223 $227 forward $140 $-1 #
coedge $-1 $89 $226 $213 $228 forward $140 $-1 #
vertex $-1 $149 $229 #
vertex $-1 $147 $230 #
straight-curve $-1 0 -50.639626722724429 9.7088924291000929 -1 0 0 I I #
face $-1 $-1 $167 $20 $-1 $231 forward single #
loop $-1 $-1 $232 $91 #
plane-surface $-1 79.460432752464371 0 0 -1 0 0 0 0 1 forward_v I I I I #
coedge $-1 $233 $234 $235 $236 reversed $92 $-1 #
coedge $-1 $237 $94 $96 $165 forward $57 $-1 #
coedge $-1 $94 $237 $233 $238 forward $57 $-1 #
coedge $-1 $235 $97 $94 $162 forward $167 $-1 #
edge $-1 $169 -5.8229347516236682 $239 20.363879856709808 $161 $240 forward 7 unknown #
coedge $-1 $241 $242 $95 $164 forward $156 $-1 #
edge $-1 $243 -109.14633382882363 $168 -100.02488832686571 $163 $244 forward 7 unknown #
edge $-1 $169 143.76430570569406 $243 158.9208655049288 $96 $245 forward 7 unknown #
coedge $-1 $97 $235 $241 $246 forward $167 $-1 #
loop $-1 $-1 $235 $155 #
vertex $-1 $164 $247 #
vertex $-1 $98 $248 #
straight-curve $-1 24.090776374586554 -1.4475378009194007 13.389588975585568 -1 0 0 I I #
coedge $-1 $171 $171 $-1 $249 reversed $101 $-1 #
edge $-1 $250 0 $250 6.2831853071796004 $102 $251 forward 7 unknown #
vertex $-1 $105 $252 #
ellipse-curve $-1 73.408149363061028 -22.396989487586179 8.828866224606621 0.6018150307709319 0 0.79863550430605224 1.5972710086121045 0 -1.2036300615418638 1 I I #
coedge $-1 $175 $175 $-1 $253 reversed $108 $-1 #
edge $-1 $254 0 $254 6.2831853071796004 $109 $255 forward 7 unknown #
vertex $-1 $112 $256 #
ellipse-curve $-1 73.408149363061028 -14.540945105086138 8.828866224606621 0.6018150307709319 0 0.79863550430605224 1.5972710086121045 0 -1.2036300615418638 1 I I #
coedge $-1 $179 $179 $-1 $257 reversed $115 $-1 #
edge $-1 $258 0 $258 6.2831853071796004 $116 $259 forward 7 unknown #
vertex $-1 $119 $260 #
ellipse-curve $-1 73.408149363061028 -6.684900722586093 8.828866224606621 0.6018150307709319 0 0.79863550430605224 1.5972710086121045 0 -1.2036300615418638 1 I I #
face $-1 $-1 $135 $18 $-1 $261 reversed single #
loop $-1 $-1 $199 $120 #
plane-surface $-1 0 50.639626722724429 0 0 -1 0 0 0 -1 forward_v I I I I #
coedge $-1 $262 $197 $200 $263 forward $121 $-1 #
coedge $-1 $203 $123 $124 $191 reversed $76 $-1 #
coedge $-1 $197 $262 $123 $189 reversed $121 $-1 #
edge $-1 $204 -13.389588975585564 $264 13.389588975585564 $188 $265 forward 7 unknown #
coedge $-1 $125 $124 $262 $266 forward $49 $-1 #
edge $-1 $195 -79.460432752464371 $264 79.460432752464371 $187 $267 forward 7 unknown #
coedge $-1 $200 $199 $125 $193 reversed $184 $-1 #
edge $-1 $268 -79.460432752464371 $194 79.460432752464371 $192 $269 forward 7 unknown #
vertex $-1 $127 $270 #
vertex $-1 $206 $271 #
straight-curve $-1 79.460432752464371 0 -13.389588975585564 0 -1 0 I I #
coedge $-1 $186 $188 $128 $198 reversed $121 $-1 #
edge $-1 $201 -50.639626722724429 $204 50.639626722724429 $197 $272 forward 7 unknown #
coedge $-1 $192 $129 $134 $207 forward $184 $-1 #
coedge $-1 $129 $192 $186 $263 reversed $184 $-1 #
vertex $-1 $130 $273 #
straight-curve $-1 0 50.639626722724429 13.389588975585564 -1 0 0 I I #
coedge $-1 $131 $187 $133 $206 reversed $76 $-1 #
vertex $-1 $198 $274 #
straight-curve $-1 0 -50.639626722724429 13.389588975585564 1 0 0 I I #
edge $-1 $136 -13.389588975585564 $195 13.389588975585564 $133 $275 forward 7 unknown #
edge $-1 $137 -13.389588975585564 $194 13.389588975585564 $134 $276 forward 7 unknown #
point $-1 79.460432752464371 -50.639626722724429 13.389588975585564 #
point $-1 79.460432752464371 50.639626722724429 13.389588975585564 #
face $-1 $-1 $224 $19 $-1 $277 reversed single #
loop $-1 $-1 $278 $139 #
plane-surface $-1 0 -62.006234199665229 11.549240702342829 0 1 0 0 0 1 forward_v I I I I #
coedge $-1 $279 $142 $151 $228 reversed $84 $-1 #
coedge $-1 $142 $279 $143 $216 reversed $84 $-1 #
coedge $-1 $144 $143 $280 $281 forward $53 $-1 #
edge $-1 $220 50.639626722724429 $282 62.006234199665229 $214 $283 forward 7 unknown #
coedge $-1 $284 $148 $144 $218 reversed $224 $-1 #
edge $-1 $285 -62.006234199665229 $219 -50.639626722724429 $217 $286 forward 7 unknown #
vertex $-1 $149 $287 #
vertex $-1 $216 $288 #
straight-curve $-1 0 -50.639626722724429 13.389588975585564 -1 0 0 I I #
straight-curve $-1 -79.460432752464371 -50.639626722724429 0 0 0 -1 I I #
coedge $-1 $148 $284 $150 $227 reversed $224 $-1 #
loop $-1 $-1 $148 $210 #
straight-curve $-1 79.460432752464371 -50.639626722724429 0 0 0 1 I I #
coedge $-1 $151 $150 $289 $290 forward $140 $-1 #
edge $-1 $152 -5.6833037384703999 $291 5.6833037384703999 $223 $292 forward 7 unknown #
edge $-1 $293 -5.6833037384703999 $153 5.6833037384703999 $213 $294 forward 7 unknown #
point $-1 79.460432752464371 -50.639626722724429 9.7088924291000929 #
point $-1 -79.460432752464371 -50.639626722724429 9.7088924291000929 #
plane-surface $-1 0 0 13.389588975585564 0 0 1 1 0 0 forward_v I I I I #
coedge $-1 $242 $241 $234 $295 forward $156 $-1 #
coedge $-1 $234 $158 $160 $238 reversed $92 $-1 #
coedge $-1 $158 $233 $232 $295 reversed $92 $-1 #
coedge $-1 $166 $161 $158 $236 forward $167 $-1 #
edge $-1 $239 43.265089599071146 $296 55.369656377877817 $235 $297 forward 7 unknown #
coedge $-1 $160 $159 $242 $298 reversed $57 $-1 #
edge $-1 $299 -158.9208655049288 $239 -143.76430570569406 $233 $300 forward 7 unknown #
vertex $-1 $162 $301 #
straight-curve $-1 67.3558659736577 -7.2704725525430689 13.389588975585568 0 -1 0 I I #
coedge $-1 $232 $163 $166 $246 reversed $156 $-1 #
coedge $-1 $163 $232 $237 $298 forward $156 $-1 #
vertex $-1 $164 $302 #
straight-curve $-1 79.460432752464371 -1.4475378009194007 113.41447730245127 0 0 1 I I #
straight-curve $-1 -47.45941281481872 -1.4475378009194007 99.909109037619487 0.79863550430605224 0 -0.6018150307709319 I I #
edge $-1 $296 -27.634352409252877 $168 -1.4475378009194007 $241 $303 forward 7 unknown #
point $-1 79.460432752464371 -1.4475378009194007 13.389588975585564 #
point $-1 67.3558659736577 -1.4475378009194007 13.389588975585568 #
edge $-1 $304 1 $304 0 $171 $-1 forward 7 unknown #
vertex $-1 $172 $305 #
ellipse-curve $-1 71.587955973079573 -22.396989487586179 6.4133880600280193 0.6018150307709319 0 0.79863550430605224 1.5972710086121045 0 -1.2036300615418638 1 I I #
point $-1 75.005420371673125 -22.396989487586179 7.6252361630647556 #
edge $-1 $306 1 $306 0 $175 $-1 forward 7 unknown #
vertex $-1 $176 $307 #
ellipse-curve $-1 71.587955973079573 -14.540945105086138 6.4133880600280193 0.6018150307709319 0 0.79863550430605224 1.5972710086121045 0 -1.2036300615418638 1 I I #
point $-1 75.005420371673125 -14.540945105086138 7.6252361630647556 #
edge $-1 $308 1 $308 0 $179 $-1 forward 7 unknown #
vertex $-1 $180 $309 #
ellipse-curve $-1 71.587955973079573 -6.684900722586093 6.4133880600280193 0.6018150307709319 0 0.79863550430605224 1.5972710086121045 0 -1.2036300615418638 1 I I #
point $-1 75.005420371673125 -6.684900722586093 7.6252361630647556 #
plane-surface $-1 79.460432752464371 0 0 -1 0 0 0 0 1 forward_v I I I I #
coedge $-1 $188 $186 $190 $266 reversed $121 $-1 #
edge $-1 $201 -13.389588975585564 $268 13.389588975585564 $200 $310 forward 7 unknown #
vertex $-1 $266 $311 #
straight-curve $-1 -79.460432752464371 -50.639626722724429 0 0 0 -1 I I #
edge $-1 $264 -50.639626722724429 $268 50.639626722724429 $262 $312 forward 7 unknown #
straight-curve $-1 0 -50.639626722724429 -13.389588975585564 -1 0 0 I I #
vertex $-1 $193 $313 #
straight-curve $-1 0 50.639626722724429 -13.389588975585564 1 0 0 I I #
point $-1 79.460432752464371 50.639626722724429 -13.389588975585564 #
point $-1 79.460432752464371 -50.639626722724429 -13.389588975585564 #
straight-curve $-1 -79.460432752464371 0 13.389588975585564 0 -1 0 I I #
point $-1 -79.460432752464371 50.639626722724429 13.389588975585564 #
point $-1 -79.460432752464371 -50.639626722724429 13.389588975585564 #
straight-curve $-1 79.460432752464371 -50.639626722724429 0 0 0 -1 I I #
straight-curve $-1 79.460432752464371 50.639626722724429 0 0 0 -1 I I #
plane-surface $-1 79.460432752464371 0 0 -1 0 0 0 0 1 forward_v I I I I #
coedge $-1 $289 $280 $279 $314 forward $211 $-1 #
coedge $-1 $214 $213 $278 $314 reversed $84 $-1 #
coedge $-1 $278 $315 $215 $281 reversed $211 $-1 #
edge $-1 $282 -79.460432752464371 $285 79.460432752464371 $280 $316 forward 7 unknown #
vertex $-1 $216 $317 #
straight-curve $-1 -79.460432752464371 0 13.389588975585564 0 -1 0 I I #
coedge $-1 $223 $217 $315 $318 forward $224 $-1 #
vertex $-1 $218 $319 #
straight-curve $-1 79.460432752464371 0 13.389588975585564 0 1 0 I I #
point $-1 79.460432752464371 -50.639626722724429 13.389588975585564 #
point $-1 -79.460432752464371 -50.639626722724429 13.389588975585564 #
coedge $-1 $315 $278 $226 $290 reversed $211 $-1 #
edge $-1 $291 -79.460432752464371 $293 79.460432752464371 $289 $320 forward 7 unknown #
vertex $-1 $318 $321 #
straight-curve $-1 79.460432752464371 -56.322930461194829 9.7088924291000929 0 -1 0 I I #
vertex $-1 $228 $322 #
straight-curve $-1 -79.460432752464371 -56.322930461194829 9.7088924291000929 0 1 0 I I #
edge $-1 $296 100.02488832686571 $299 109.14633382882363 $232 $323 forward 7 unknown #
vertex $-1 $246 $324 #
straight-curve $-1 24.090776374586554 -27.634352409252877 13.389588975585568 1 0 0 I I #
edge $-1 $299 -20.363879856709808 $243 5.8229347516236682 $242 $325 forward 7 unknown #
vertex $-1 $298 $326 #
straight-curve $-1 -47.45941281481872 -27.634352409252877 99.909109037619487 -0.79863550430605224 0 0.6018150307709319 I I #
point $-1 67.3558659736577 -27.634352409252877 13.389588975585568 #
point $-1 79.460432752464371 -1.4475378009194007 4.2681434736276458 #
straight-curve $-1 79.460432752464371 0 13.389588975585564 0 1 0 I I #
vertex $-1 $249 $327 #
point $-1 73.18522698169167 -22.396989487586179 5.2097579984861557 #
vertex $-1 $253 $328 #
point $-1 73.18522698169167 -14.540945105086138 5.2097579984861557 #
vertex $-1 $257 $329 #
point $-1 73.18522698169167 -6.684900722586093 5.2097579984861557 #
straight-curve $-1 -79.460432752464371 50.639626722724429 0 0 0 -1 I I #
point $-1 -79.460432752464371 -50.639626722724429 -13.389588975585564 #
straight-curve $-1 -79.460432752464371 0 -13.389588975585564 0 1 0 I I #
point $-1 -79.460432752464371 50.639626722724429 -13.389588975585564 #
edge $-1 $282 -1.8403482732427356 $293 1.8403482732427356 $279 $330 forward 7 unknown #
coedge $-1 $280 $289 $284 $318 reversed $211 $-1 #
straight-curve $-1 0 -62.006234199665229 13.389588975585564 1 0 0 I I #
point $-1 -79.460432752464371 -62.006234199665229 13.389588975585564 #
edge $-1 $285 -1.8403482732427356 $291 1.8403482732427356 $284 $331 forward 7 unknown #
point $-1 79.460432752464371 -62.006234199665229 13.389588975585564 #
straight-curve $-1 0 -62.006234199665229 9.7088924291000929 -1 0 0 I I #
point $-1 79.460432752464371 -62.006234199665229 9.7088924291000929 #
point $-1 -79.460432752464371 -62.006234199665229 9.7088924291000929 #
straight-curve $-1 79.460432752464371 -27.634352409252877 113.41447730245127 0 0 -1 I I #
point $-1 79.460432752464371 -27.634352409252877 13.389588975585564 #
straight-curve $-1 79.460432752464357 -7.2704725525430689 4.2681434736276458 0 1 0 I I #
point $-1 79.460432752464371 -27.634352409252877 4.2681434736276458 #
point $-1 70.384325911537701 -22.396989487586179 4.8161170514159153 #
point $-1 70.384325911537701 -14.540945105086138 4.8161170514159153 #
point $-1 70.384325911537701 -6.684900722586093 4.8161170514159153 #
straight-curve $-1 -79.460432752464371 -62.006234199665229 11.549240702342829 0 0 -1 I I #
straight-curve $-1 79.460432752464371 -62.006234199665229 11.549240702342829 0 0 -1 I I #
End-of-ACIS-data 