500 0 13 0           
7 Unknown 11 ACIS 5.0 NT 24 Fri Mar 26 03:14:49 1999 
-1 9.9999999999999995e-007 1e-010 
body $-1 $13 $-1 $14 #
body $-1 $15 $-1 $16 #
body $-1 $17 $-1 $18 #
body $-1 $19 $-1 $20 #
body $-1 $21 $-1 $22 #
body $-1 $23 $-1 $24 #
body $-1 $25 $-1 $26 #
body $-1 $27 $-1 $28 #
body $-1 $29 $-1 $30 #
body $-1 $31 $-1 $32 #
body $-1 $33 $-1 $34 #
body $-1 $35 $-1 $36 #
body $-1 $37 $-1 $38 #
lump $-1 $-1 $39 $0 #
transform $-1 1 0 0 0 1 0 0 0 1 67.958616901150549 43.913747824228984 11.923600402605221 1 rotate no_reflect no_shear #
lump $-1 $-1 $40 $1 #
transform $-1 1 0 0 0 1 0 0 0 1 67.958616901150549 43.913747824228984 11.923600402605221 1 rotate no_reflect no_shear #
lump $-1 $-1 $41 $2 #
transform $-1 1 0 0 0 1 0 0 0 1 67.958616901150549 43.913747824228984 11.923600402605221 1 rotate no_reflect no_shear #
lump $-1 $-1 $42 $3 #
transform $-1 1 0 0 0 1 0 0 0 1 67.958616901150549 43.913747824228984 11.923600402605221 1 rotate no_reflect no_shear #
lump $-1 $-1 $43 $4 #
transform $-1 1 0 0 0 1 0 0 0 1 67.958616901150549 43.913747824228984 11.923600402605221 1 rotate no_reflect no_shear #
lump $-1 $-1 $44 $5 #
transform $-1 1 0 0 0 1 0 0 0 1 67.958616901150549 43.913747824228984 11.923600402605221 1 rotate no_reflect no_shear #
lump $-1 $-1 $45 $6 #
transform $-1 1 0 0 0 1 0 0 0 1 67.958616901150549 43.913747824228984 11.923600402605221 1 rotate no_reflect no_shear #
lump $-1 $-1 $46 $7 #
transform $-1 1 0 0 0 1 0 0 0 1 67.958616901150549 43.913747824228984 11.923600402605221 1 rotate no_reflect no_shear #
lump $-1 $-1 $47 $8 #
transform $-1 1 0 0 0 1 0 0 0 1 67.958616901150549 43.913747824228984 11.923600402605221 1 rotate no_reflect no_shear #
lump $-1 $-1 $48 $9 #
transform $-1 1 0 0 0 1 0 0 0 1 67.958616901150549 43.913747824228984 11.923600402605221 1 rotate no_reflect no_shear #
lump $-1 $-1 $49 $10 #
transform $-1 1 0 0 0 1 0 0 0 1 67.958616901150549 43.913747824228984 11.923600402605221 1 rotate no_reflect no_shear #
lump $-1 $-1 $50 $11 #
transform $-1 1 0 0 0 1 0 0 0 1 67.958616901150549 43.913747824228984 11.923600402605221 1 rotate no_reflect no_shear #
lump $-1 $-1 $51 $12 #
transform $-1 1 0 0 0 1 0 0 0 1 67.958616901150549 43.913747824228984 11.923600402605221 1 rotate no_reflect no_shear #
shell $-1 $-1 $-1 $52 $-1 $13 #
shell $-1 $-1 $-1 $53 $-1 $15 #
shell $-1 $-1 $-1 $54 $-1 $17 #
shell $-1 $-1 $-1 $55 $-1 $19 #
shell $-1 $-1 $-1 $56 $-1 $21 #
shell $-1 $-1 $-1 $57 $-1 $23 #
shell $-1 $-1 $-1 $58 $-1 $25 #
shell $-1 $-1 $-1 $59 $-1 $27 #
shell $-1 $-1 $-1 $60 $-1 $29 #
shell $-1 $-1 $-1 $61 $-1 $31 #
shell $-1 $-1 $-1 $62 $-1 $33 #
shell $-1 $-1 $-1 $63 $-1 $35 #
shell $-1 $-1 $-1 $64 $-1 $37 #
face $-1 $65 $66 $39 $-1 $67 forward single #
face $-1 $68 $69 $40 $-1 $70 reversed single #
face $-1 $71 $72 $41 $-1 $73 reversed single #
face $-1 $74 $75 $42 $-1 $76 reversed single #
face $-1 $77 $78 $43 $-1 $79 forward single #
face $-1 $80 $81 $44 $-1 $82 forward single #
face $-1 $83 $84 $45 $-1 $85 forward single #
face $-1 $86 $87 $46 $-1 $88 reversed single #
face $-1 $89 $90 $47 $-1 $91 forward single #
face $-1 $92 $93 $48 $-1 $94 forward single #
face $-1 $95 $96 $49 $-1 $97 forward single #
face $-1 $98 $99 $50 $-1 $100 reversed single #
face $-1 $101 $102 $51 $-1 $103 forward single #
face $-1 $104 $105 $39 $-1 $106 reversed single #
loop $-1 $-1 $107 $52 #
plane-surface $-1 0 0 11.923600402605221 0 0 1 1 0 0 forward_v I I I I #
face $-1 $108 $109 $40 $-1 $110 reversed single #
loop $-1 $-1 $111 $53 #
plane-surface $-1 0 -39.744916230846677 8.9236004026052207 0 0 1 1 0 0 forward_v I I I I #
face $-1 $112 $113 $41 $-1 $114 reversed single #
loop $-1 $-1 $115 $54 #
plane-surface $-1 0 39.744916230846677 8.9236004026052207 0 0 1 1 0 0 forward_v I I I I #
face $-1 $116 $117 $42 $-1 $118 reversed single #
loop $-1 $-1 $119 $55 #
plane-surface $-1 -151.63762263543401 -7.3262826598920228 110.83441328510213 0 1 0 -0.61566148304635926 0 0.78801074757464917 forward_v I I I I #
face $-1 $120 $121 $43 $-1 $122 forward single #
loop $-1 $123 $124 $56 #
cone-surface $-1 -62.407231375765292 -5.8610261279136182 7.4328809616515157 0.61566148304635926 0 -0.78801074757464917 0.39400537378732459 0 0.30783074152317963 1 I I 0 1 0.5 forward I I I I #
face $-1 $125 $126 $44 $-1 $127 forward single #
loop $-1 $128 $129 $57 #
cone-surface $-1 -62.407231375765292 -3.6631413299460078 7.4328809616515157 0.61566148304635926 0 -0.78801074757464917 0.39400537378732459 0 0.30783074152317963 1 I I 0 1 0.5 forward I I I I #
face $-1 $130 $131 $45 $-1 $132 forward single #
loop $-1 $133 $134 $58 #
cone-surface $-1 -62.407231375765292 -1.4652565319783974 7.4328809616515157 0.61566148304635926 0 -0.78801074757464917 0.39400537378732459 0 0.30783074152317963 1 I I 0 1 0.5 forward I I I I #
face $-1 $135 $136 $46 $-1 $137 reversed single #
loop $-1 $-1 $138 $59 #
plane-surface $-1 -151.63762263543401 28.249801977572339 110.83441328510213 0 1 0 -0.61566148304635926 0 0.78801074757464917 forward_v I I I I #
face $-1 $139 $140 $47 $-1 $141 forward single #
loop $-1 $142 $143 $60 #
cone-surface $-1 -62.407231375765292 29.715058509550751 7.4328809616515157 0.61566148304635926 0 -0.78801074757464917 0.39400537378732459 0 0.30783074152317963 1 I I 0 1 0.5 forward I I I I #
face $-1 $144 $145 $48 $-1 $146 forward single #
loop $-1 $147 $148 $61 #
cone-surface $-1 -62.407231375765292 31.912943307518354 7.4328809616515157 0.61566148304635926 0 -0.78801074757464917 0.39400537378732459 0 0.30783074152317963 1 I I 0 1 0.5 forward I I I I #
face $-1 $149 $150 $49 $-1 $151 forward single #
loop $-1 $152 $153 $62 #
cone-surface $-1 -62.407231375765292 34.110828105485972 7.4328809616515157 0.61566148304635926 0 -0.78801074757464917 0.39400537378732459 0 0.30783074152317963 1 I I 0 1 0.5 forward I I I I #
face $-1 $154 $155 $50 $-1 $156 reversed single #
loop $-1 $-1 $157 $63 #
plane-surface $-1 34.580661289151038 26.210127141886922 190.87725207636146 0 -1 0 -0.57357644374324357 0 -0.81915203911291934 forward_v I I I I #
face $-1 $158 $159 $51 $-1 $160 forward single #
loop $-1 $161 $162 $64 #
cone-surface $-1 59.503301016595863 19.63788332536533 5.2240426691990089 -0.57357644374324357 0 -0.81915203911291934 1.6383040782258387 0 -1.1471528874864871 1 I I 0 1 2 forward I I I I #
face $-1 $163 $164 $39 $-1 $165 reversed single #
loop $-1 $-1 $166 $65 #
plane-surface $-1 0 0 -11.923600402605221 0 0 1 1 0 0 forward_v I I I I #
coedge $-1 $167 $168 $169 $170 forward $66 $-1 #
face $-1 $171 $172 $40 $-1 $173 reversed single #
loop $-1 $-1 $174 $68 #
plane-surface $-1 0 -35.576084637464369 10.423600402605221 0 -1 0 0 0 -1 forward_v I I I I #
coedge $-1 $175 $176 $177 $178 reversed $69 $-1 #
face $-1 $179 $180 $41 $-1 $181 forward single #
loop $-1 $-1 $182 $71 #
plane-surface $-1 0 35.576084637464369 10.423600402605221 0 1 0 0 0 1 forward_v I I I I #
coedge $-1 $183 $184 $185 $186 reversed $72 $-1 #
face $-1 $187 $188 $42 $-1 $189 reversed single #
loop $-1 $-1 $190 $74 #
plane-surface $-1 -67.958616901150563 -3.6631413299460078 3.7301722682724687 -0.61566148304635926 0 0.78801074757464917 0.78801074757464917 0 0.61566148304635926 forward_v I I I I #
coedge $-1 $191 $192 $193 $194 reversed $75 $-1 #
face $-1 $-1 $195 $43 $-1 $196 forward single #
loop $-1 $197 $198 $77 #
cone-surface $-1 -61.945485263480521 -5.8610261279136182 6.8418729009705288 0.61566148304635926 0 -0.78801074757464917 0.19700268689366229 0 0.15391537076158981 1 I I -0.70710678118654746 0.70710678118654746 0.25 forward I I I I #
loop $-1 $-1 $199 $56 #
coedge $-1 $124 $124 $200 $201 reversed $78 $-1 #
face $-1 $-1 $202 $44 $-1 $203 forward single #
loop $-1 $204 $205 $80 #
cone-surface $-1 -61.945485263480521 -3.6631413299460078 6.8418729009705288 0.61566148304635926 0 -0.78801074757464917 0.19700268689366229 0 0.15391537076158981 1 I I -0.70710678118654746 0.70710678118654746 0.25 forward I I I I #
loop $-1 $-1 $206 $57 #
coedge $-1 $129 $129 $207 $208 reversed $81 $-1 #
face $-1 $-1 $209 $45 $-1 $210 forward single #
loop $-1 $211 $212 $83 #
cone-surface $-1 -61.945485263480521 -1.4652565319783974 6.8418729009705288 0.61566148304635926 0 -0.78801074757464917 0.19700268689366229 0 0.15391537076158981 1 I I -0.70710678118654746 0.70710678118654746 0.25 forward I I I I #
loop $-1 $-1 $213 $58 #
coedge $-1 $134 $134 $214 $215 reversed $84 $-1 #
face $-1 $216 $217 $46 $-1 $218 forward single #
loop $-1 $-1 $219 $86 #
plane-surface $-1 -67.958616901150563 31.912943307518354 3.7301722682724687 -0.61566148304635926 0 0.78801074757464917 0.78801074757464917 0 0.61566148304635926 forward_v I I I I #
coedge $-1 $220 $221 $222 $223 reversed $87 $-1 #
face $-1 $-1 $224 $47 $-1 $225 forward single #
loop $-1 $226 $227 $89 #
cone-surface $-1 -61.945485263480521 29.715058509550751 6.8418729009705288 0.61566148304635926 0 -0.78801074757464917 0.19700268689366229 0 0.15391537076158981 1 I I -0.70710678118654746 0.70710678118654746 0.25 forward I I I I #
loop $-1 $-1 $228 $60 #
coedge $-1 $143 $143 $229 $230 reversed $90 $-1 #
face $-1 $-1 $231 $48 $-1 $232 forward single #
loop $-1 $233 $234 $92 #
cone-surface $-1 -61.945485263480521 31.912943307518354 6.8418729009705288 0.61566148304635926 0 -0.78801074757464917 0.19700268689366229 0 0.15391537076158981 1 I I -0.70710678118654746 0.70710678118654746 0.25 forward I I I I #
loop $-1 $-1 $235 $61 #
coedge $-1 $148 $148 $236 $237 reversed $93 $-1 #
face $-1 $-1 $238 $49 $-1 $239 forward single #
loop $-1 $240 $241 $95 #
cone-surface $-1 -61.945485263480521 34.110828105485972 6.8418729009705288 0.61566148304635926 0 -0.78801074757464917 0.19700268689366229 0 0.15391537076158981 1 I I -0.70710678118654746 0.70710678118654746 0.25 forward I I I I #
loop $-1 $-1 $242 $62 #
coedge $-1 $153 $153 $243 $244 reversed $96 $-1 #
face $-1 $245 $246 $50 $-1 $247 reversed single #
loop $-1 $-1 $248 $98 #
plane-surface $-1 -43.378262318591794 19.63788332536533 79.540372856619101 0.57357644374324357 0 0.81915203911291934 0.81915203911291934 0 -0.57357644374324357 forward_v I I I I #
coedge $-1 $249 $250 $251 $252 reversed $99 $-1 #
face $-1 $-1 $253 $51 $-1 $254 forward single #
loop $-1 $255 $256 $101 #
cone-surface $-1 57.859469824266981 19.63788332536533 2.8764084735443554 -0.57357644374324357 0 -0.81915203911291934 0.81915203911291934 0 -0.57357644374324357 1 I I -0.70710678118654746 0.70710678118654746 1 forward I I I I #
loop $-1 $-1 $257 $64 #
coedge $-1 $162 $162 $258 $259 reversed $102 $-1 #
face $-1 $260 $261 $39 $-1 $262 reversed single #
loop $-1 $-1 $263 $104 #
plane-surface $-1 0 -43.913747824228984 0 0 1 0 0 0 1 forward_v I I I I #
coedge $-1 $264 $265 $266 $267 forward $105 $-1 #
coedge $-1 $268 $107 $269 $270 forward $66 $-1 #
coedge $-1 $107 $268 $271 $272 forward $66 $-1 #
coedge $-1 $273 $274 $107 $170 reversed $275 $-1 #
edge $-1 $276 -43.913747824228984 $277 43.913747824228984 $169 $278 forward 7 unknown #
face $-1 $279 $280 $40 $-1 $281 reversed single #
loop $-1 $-1 $282 $108 #
plane-surface $-1 -67.958616901150549 0 0 1 0 0 0 0 -1 forward_v I I I I #
coedge $-1 $283 $284 $285 $286 reversed $109 $-1 #
coedge $-1 $287 $111 $288 $289 reversed $69 $-1 #
coedge $-1 $111 $287 $283 $290 forward $69 $-1 #
coedge $-1 $285 $291 $111 $178 forward $292 $-1 #
edge $-1 $293 -24.041289708805646 $294 -15.703626522041031 $177 $295 forward 7 unknown #
face $-1 $296 $297 $41 $-1 $298 reversed single #
loop $-1 $-1 $299 $112 #
plane-surface $-1 0 0 11.923600402605221 0 0 1 1 0 0 forward_v I I I I #
coedge $-1 $300 $301 $302 $303 reversed $113 $-1 #
coedge $-1 $304 $115 $300 $305 forward $72 $-1 #
coedge $-1 $115 $304 $306 $307 reversed $72 $-1 #
coedge $-1 $308 $309 $115 $186 forward $297 $-1 #
edge $-1 $310 15.703626522041031 $311 24.041289708805646 $185 $312 forward 7 unknown #
face $-1 $313 $314 $42 $-1 $315 reversed single #
loop $-1 $-1 $316 $116 #
plane-surface $-1 -151.63762263543401 7.1054273576010019e-015 110.83441328510213 0 -1 0 0.61566148304635926 0 -0.78801074757464917 forward_v I I I I #
coedge $-1 $317 $318 $319 $320 reversed $117 $-1 #
coedge $-1 $192 $119 $321 $322 reversed $75 $-1 #
coedge $-1 $119 $191 $317 $323 reversed $75 $-1 #
coedge $-1 $319 $324 $119 $194 forward $325 $-1 #
edge $-1 $326 7.8601944165664577 $327 18.347303984290598 $193 $328 forward 7 unknown #
loop $-1 $-1 $200 $120 #
plane-surface $-1 -67.958616901150563 -3.6631413299460078 3.7301722682724687 -0.61566148304635926 0 0.78801074757464917 0.78801074757464917 0 0.61566148304635926 forward_v I I I I #
loop $-1 $-1 $329 $77 #
coedge $-1 $198 $198 $199 $330 reversed $121 $-1 #
coedge $-1 $199 $199 $198 $330 forward $123 $-1 #
coedge $-1 $200 $200 $124 $201 forward $195 $-1 #
edge $-1 $331 0 $331 6.2831853071796004 $200 $332 forward 7 unknown #
loop $-1 $-1 $207 $125 #
plane-surface $-1 -67.958616901150563 -3.6631413299460078 3.7301722682724687 -0.61566148304635926 0 0.78801074757464917 0.78801074757464917 0 0.61566148304635926 forward_v I I I I #
loop $-1 $-1 $333 $80 #
coedge $-1 $205 $205 $206 $334 reversed $126 $-1 #
coedge $-1 $206 $206 $205 $334 forward $128 $-1 #
coedge $-1 $207 $207 $129 $208 forward $202 $-1 #
edge $-1 $335 0 $335 6.2831853071796004 $207 $336 forward 7 unknown #
loop $-1 $-1 $214 $130 #
plane-surface $-1 -67.958616901150563 -3.6631413299460078 3.7301722682724687 -0.61566148304635926 0 0.78801074757464917 0.78801074757464917 0 0.61566148304635926 forward_v I I I I #
loop $-1 $-1 $337 $83 #
coedge $-1 $212 $212 $213 $338 reversed $131 $-1 #
coedge $-1 $213 $213 $212 $338 forward $133 $-1 #
coedge $-1 $214 $214 $134 $215 forward $209 $-1 #
edge $-1 $339 0 $339 6.2831853071796004 $214 $340 forward 7 unknown #
face $-1 $341 $342 $46 $-1 $343 forward single #
loop $-1 $-1 $222 $135 #
plane-surface $-1 0 0 11.923600402605221 0 0 1 1 0 0 forward_v I I I I #
coedge $-1 $344 $345 $346 $347 reversed $136 $-1 #
coedge $-1 $221 $138 $348 $349 reversed $87 $-1 #
coedge $-1 $138 $220 $344 $350 reversed $87 $-1 #
coedge $-1 $346 $351 $138 $223 forward $217 $-1 #
edge $-1 $352 7.8601944165664577 $353 18.347303984290598 $222 $354 forward 7 unknown #
loop $-1 $-1 $229 $139 #
plane-surface $-1 -67.958616901150563 31.912943307518354 3.7301722682724687 -0.61566148304635926 0 0.78801074757464917 0.78801074757464917 0 0.61566148304635926 forward_v I I I I #
loop $-1 $-1 $355 $89 #
coedge $-1 $227 $227 $228 $356 reversed $140 $-1 #
coedge $-1 $228 $228 $227 $356 forward $142 $-1 #
coedge $-1 $229 $229 $143 $230 forward $224 $-1 #
edge $-1 $357 0 $357 6.2831853071796004 $229 $358 forward 7 unknown #
loop $-1 $-1 $236 $144 #
plane-surface $-1 -67.958616901150563 31.912943307518354 3.7301722682724687 -0.61566148304635926 0 0.78801074757464917 0.78801074757464917 0 0.61566148304635926 forward_v I I I I #
loop $-1 $-1 $359 $92 #
coedge $-1 $234 $234 $235 $360 reversed $145 $-1 #
coedge $-1 $235 $235 $234 $360 forward $147 $-1 #
coedge $-1 $236 $236 $148 $237 forward $231 $-1 #
edge $-1 $361 0 $361 6.2831853071796004 $236 $362 forward 7 unknown #
loop $-1 $-1 $243 $149 #
plane-surface $-1 -67.958616901150563 31.912943307518354 3.7301722682724687 -0.61566148304635926 0 0.78801074757464917 0.78801074757464917 0 0.61566148304635926 forward_v I I I I #
loop $-1 $-1 $363 $95 #
coedge $-1 $241 $241 $242 $364 reversed $150 $-1 #
coedge $-1 $242 $242 $241 $364 forward $152 $-1 #
coedge $-1 $243 $243 $153 $244 forward $238 $-1 #
edge $-1 $365 0 $365 6.2831853071796004 $243 $366 forward 7 unknown #
face $-1 $367 $368 $50 $-1 $369 forward single #
loop $-1 $-1 $370 $154 #
plane-surface $-1 34.580661289151038 13.065639508843738 190.87725207636146 0 1 0 0.57357644374324357 0 0.81915203911291934 forward_v I I I I #
coedge $-1 $371 $372 $373 $374 reversed $155 $-1 #
coedge $-1 $250 $157 $375 $376 reversed $99 $-1 #
coedge $-1 $157 $249 $371 $377 reversed $99 $-1 #
coedge $-1 $373 $378 $157 $252 forward $368 $-1 #
edge $-1 $379 -50.66828625657503 $380 -35.89816398463698 $251 $381 forward 7 unknown #
loop $-1 $-1 $258 $158 #
plane-surface $-1 -43.378262318591794 19.63788332536533 79.540372856619101 0.57357644374324357 0 0.81915203911291934 0.81915203911291934 0 -0.57357644374324357 forward_v I I I I #
loop $-1 $-1 $382 $101 #
coedge $-1 $256 $256 $257 $383 reversed $159 $-1 #
coedge $-1 $257 $257 $256 $383 forward $161 $-1 #
coedge $-1 $258 $258 $162 $259 forward $253 $-1 #
edge $-1 $384 0 $384 6.2831853071796004 $258 $385 forward 7 unknown #
face $-1 $386 $387 $39 $-1 $388 reversed single #
loop $-1 $-1 $389 $163 #
plane-surface $-1 -67.958616901150549 0 0 1 0 0 0 0 -1 forward_v I I I I #
coedge $-1 $390 $271 $391 $392 forward $164 $-1 #
coedge $-1 $393 $166 $390 $394 forward $105 $-1 #
coedge $-1 $166 $393 $395 $396 forward $105 $-1 #
coedge $-1 $274 $273 $166 $267 reversed $275 $-1 #
edge $-1 $397 -43.913747824228984 $398 43.913747824228984 $266 $399 forward 7 unknown #
coedge $-1 $168 $167 $400 $401 forward $66 $-1 #
coedge $-1 $402 $403 $167 $270 reversed $387 $-1 #
edge $-1 $277 -67.958616901150549 $404 67.958616901150549 $269 $405 forward 7 unknown #
coedge $-1 $263 $406 $168 $272 reversed $164 $-1 #
edge $-1 $407 -67.958616901150549 $276 67.958616901150549 $271 $408 forward 7 unknown #
coedge $-1 $266 $169 $406 $409 forward $275 $-1 #
coedge $-1 $169 $266 $402 $410 reversed $275 $-1 #
loop $-1 $-1 $273 $386 #
vertex $-1 $170 $411 #
vertex $-1 $170 $412 #
straight-curve $-1 67.958616901150549 0 11.923600402605221 0 1 0 I I #
face $-1 $413 $414 $40 $-1 $415 forward single #
loop $-1 $-1 $288 $171 #
plane-surface $-1 0 -43.913747824228984 0 0 1 0 0 0 1 forward_v I I I I #
coedge $-1 $416 $417 $418 $419 forward $172 $-1 #
coedge $-1 $418 $174 $176 $290 reversed $109 $-1 #
coedge $-1 $174 $418 $420 $421 reversed $109 $-1 #
coedge $-1 $422 $177 $174 $286 forward $292 $-1 #
edge $-1 $294 3.7118002013026103 $423 6.7118002013026103 $285 $424 forward 7 unknown #
coedge $-1 $176 $175 $416 $425 reversed $69 $-1 #
coedge $-1 $426 $427 $175 $289 forward $280 $-1 #
edge $-1 $428 -67.958616901150549 $293 67.958616901150549 $288 $429 forward 7 unknown #
edge $-1 $430 -67.958616901150549 $294 67.958616901150549 $283 $431 forward 7 unknown #
coedge $-1 $177 $422 $426 $432 forward $292 $-1 #
loop $-1 $-1 $285 $413 #
vertex $-1 $289 $433 #
vertex $-1 $178 $434 #
straight-curve $-1 67.958616901150549 -19.872458115423338 8.9236004026052207 0 1 0 I I #
face $-1 $435 $436 $41 $-1 $437 reversed single #
loop $-1 $-1 $309 $179 #
plane-surface $-1 67.958616901150549 0 0 -1 0 0 0 0 1 forward_v I I I I #
coedge $-1 $438 $439 $301 $440 forward $180 $-1 #
coedge $-1 $441 $182 $183 $305 reversed $113 $-1 #
coedge $-1 $182 $441 $299 $440 reversed $113 $-1 #
coedge $-1 $442 $443 $182 $303 forward $436 $-1 #
edge $-1 $444 3.7118002013026103 $445 6.7118002013026103 $302 $446 forward 7 unknown #
coedge $-1 $184 $183 $443 $447 reversed $72 $-1 #
edge $-1 $310 -67.958616901150549 $444 67.958616901150549 $300 $448 forward 7 unknown #
coedge $-1 $449 $450 $184 $307 forward $451 $-1 #
edge $-1 $311 -67.958616901150549 $452 67.958616901150549 $306 $453 forward 7 unknown #
coedge $-1 $454 $185 $450 $455 reversed $297 $-1 #
coedge $-1 $185 $454 $441 $456 forward $297 $-1 #
vertex $-1 $186 $457 #
vertex $-1 $307 $458 #
straight-curve $-1 67.958616901150549 19.872458115423338 8.9236004026052207 0 1 0 I I #
face $-1 $-1 $325 $42 $-1 $459 forward single #
loop $-1 $-1 $460 $187 #
plane-surface $-1 -67.958616901150549 0 0 1 0 0 0 0 -1 forward_v I I I I #
coedge $-1 $461 $462 $463 $464 reversed $188 $-1 #
coedge $-1 $465 $190 $192 $323 forward $117 $-1 #
coedge $-1 $190 $465 $461 $466 forward $117 $-1 #
coedge $-1 $463 $193 $190 $320 forward $325 $-1 #
edge $-1 $327 -5.4947119949190188 $467 1.831570664973011 $319 $468 forward 7 unknown #
coedge $-1 $469 $470 $191 $322 forward $314 $-1 #
edge $-1 $471 -51.687034374278582 $326 -43.493606239945848 $321 $472 forward 7 unknown #
edge $-1 $327 -13.308333166776633 $471 -1.8033521786330445e-014 $192 $473 forward 7 unknown #
coedge $-1 $193 $463 $469 $474 forward $325 $-1 #
loop $-1 $-1 $463 $313 #
vertex $-1 $322 $475 #
vertex $-1 $194 $476 #
straight-curve $-1 -75.818811317717007 -7.3262826598920228 11.923600402605217 1 0 0 I I #
coedge $-1 $329 $329 $-1 $477 reversed $197 $-1 #
edge $-1 $478 0 $478 6.2831853071796004 $198 $479 forward 7 unknown #
vertex $-1 $201 $480 #
ellipse-curve $-1 -62.715062117288483 -5.8610261279136182 7.82688633543885 -0.61566148304635926 0 0.78801074757464917 0.39400537378732459 0 0.30783074152317963 1 I I #
coedge $-1 $333 $333 $-1 $481 reversed $204 $-1 #
edge $-1 $482 0 $482 6.2831853071796004 $205 $483 forward 7 unknown #
vertex $-1 $208 $484 #
ellipse-curve $-1 -62.715062117288483 -3.6631413299460078 7.82688633543885 -0.61566148304635926 0 0.78801074757464917 0.39400537378732459 0 0.30783074152317963 1 I I #
coedge $-1 $337 $337 $-1 $485 reversed $211 $-1 #
edge $-1 $486 0 $486 6.2831853071796004 $212 $487 forward 7 unknown #
vertex $-1 $215 $488 #
ellipse-curve $-1 -62.715062117288483 -1.4652565319783974 7.82688633543885 -0.61566148304635926 0 0.78801074757464917 0.39400537378732459 0 0.30783074152317963 1 I I #
face $-1 $-1 $489 $46 $-1 $490 reversed single #
loop $-1 $-1 $491 $216 #
plane-surface $-1 0 35.576084637464369 10.423600402605221 0 1 0 0 0 1 forward_v I I I I #
coedge $-1 $492 $219 $221 $350 forward $136 $-1 #
coedge $-1 $219 $492 $491 $493 forward $136 $-1 #
coedge $-1 $494 $222 $219 $347 forward $217 $-1 #
edge $-1 $353 12.293330323813162 $495 19.619612983705192 $346 $496 forward 7 unknown #
coedge $-1 $497 $498 $220 $349 forward $489 $-1 #
edge $-1 $499 -51.687034374278582 $352 -43.493606239945848 $348 $500 forward 7 unknown #
edge $-1 $353 -13.308333166776633 $499 -1.8033521786330445e-014 $221 $501 forward 7 unknown #
coedge $-1 $222 $494 $497 $502 forward $217 $-1 #
vertex $-1 $349 $503 #
vertex $-1 $223 $504 #
straight-curve $-1 -75.818811317717007 28.249801977572339 11.923600402605217 1 0 0 I I #
coedge $-1 $355 $355 $-1 $505 reversed $226 $-1 #
edge $-1 $506 0 $506 6.2831853071796004 $227 $507 forward 7 unknown #
vertex $-1 $230 $508 #
ellipse-curve $-1 -62.715062117288483 29.715058509550751 7.82688633543885 -0.61566148304635926 0 0.78801074757464917 0.39400537378732459 0 0.30783074152317963 1 I I #
coedge $-1 $359 $359 $-1 $509 reversed $233 $-1 #
edge $-1 $510 0 $510 6.2831853071796004 $234 $511 forward 7 unknown #
vertex $-1 $237 $512 #
ellipse-curve $-1 -62.715062117288483 31.912943307518354 7.82688633543885 -0.61566148304635926 0 0.78801074757464917 0.39400537378732459 0 0.30783074152317963 1 I I #
coedge $-1 $363 $363 $-1 $513 reversed $240 $-1 #
edge $-1 $514 0 $514 6.2831853071796004 $241 $515 forward 7 unknown #
vertex $-1 $244 $516 #
ellipse-curve $-1 -62.715062117288483 34.110828105485972 7.82688633543885 -0.61566148304635926 0 0.78801074757464917 0.39400537378732459 0 0.30783074152317963 1 I I #
face $-1 $-1 $517 $50 $-1 $518 reversed single #
loop $-1 $-1 $251 $245 #
plane-surface $-1 0 0 11.923600402605221 0 0 1 1 0 0 forward_v I I I I #
coedge $-1 $519 $520 $521 $522 reversed $246 $-1 #
coedge $-1 $523 $248 $250 $377 forward $155 $-1 #
coedge $-1 $248 $523 $519 $524 forward $155 $-1 #
coedge $-1 $521 $251 $248 $374 forward $368 $-1 #
edge $-1 $380 -16.391185479204257 $525 -3.2466978461610729 $373 $526 forward 7 unknown #
coedge $-1 $527 $528 $249 $376 forward $517 $-1 #
edge $-1 $529 -93.857176789304461 $379 -83.515025635575512 $375 $530 forward 7 unknown #
edge $-1 $380 117.88624374588495 $529 135.9172338023011 $250 $531 forward 7 unknown #
coedge $-1 $251 $521 $527 $532 forward $368 $-1 #
vertex $-1 $376 $533 #
vertex $-1 $252 $534 #
straight-curve $-1 17.290330644575519 26.210127141886922 11.923600402605217 -1 0 0 I I #
coedge $-1 $382 $382 $-1 $535 reversed $255 $-1 #
edge $-1 $536 0 $536 6.2831853071796004 $256 $537 forward 7 unknown #
vertex $-1 $259 $538 #
ellipse-curve $-1 60.57355576518151 19.63788332536533 6.7525248257407577 0.57357644374324357 0 0.81915203911291934 1.6383040782258387 0 -1.1471528874864871 1 I I #
face $-1 $-1 $275 $39 $-1 $539 reversed single #
loop $-1 $-1 $402 $260 #
plane-surface $-1 0 43.913747824228984 0 0 -1 0 0 0 -1 forward_v I I I I #
coedge $-1 $540 $400 $403 $541 forward $261 $-1 #
coedge $-1 $406 $263 $264 $394 reversed $164 $-1 #
coedge $-1 $400 $540 $263 $392 reversed $261 $-1 #
edge $-1 $407 -11.923600402605221 $542 11.923600402605221 $391 $543 forward 7 unknown #
coedge $-1 $265 $264 $540 $544 forward $105 $-1 #
edge $-1 $398 -67.958616901150549 $542 67.958616901150549 $390 $545 forward 7 unknown #
coedge $-1 $403 $402 $265 $396 reversed $387 $-1 #
edge $-1 $546 -67.958616901150549 $397 67.958616901150549 $395 $547 forward 7 unknown #
vertex $-1 $267 $548 #
vertex $-1 $409 $549 #
straight-curve $-1 67.958616901150549 0 -11.923600402605221 0 -1 0 I I #
coedge $-1 $389 $391 $268 $401 reversed $261 $-1 #
edge $-1 $404 -43.913747824228984 $407 43.913747824228984 $400 $550 forward 7 unknown #
coedge $-1 $395 $269 $274 $410 forward $387 $-1 #
coedge $-1 $269 $395 $389 $541 reversed $387 $-1 #
vertex $-1 $270 $551 #
straight-curve $-1 0 43.913747824228984 11.923600402605221 -1 0 0 I I #
coedge $-1 $271 $390 $273 $409 reversed $164 $-1 #
vertex $-1 $401 $552 #
straight-curve $-1 0 -43.913747824228984 11.923600402605221 1 0 0 I I #
edge $-1 $276 -11.923600402605221 $398 11.923600402605221 $273 $553 forward 7 unknown #
edge $-1 $277 -11.923600402605221 $397 11.923600402605221 $274 $554 forward 7 unknown #
point $-1 67.958616901150549 -43.913747824228984 11.923600402605221 #
point $-1 67.958616901150549 43.913747824228984 11.923600402605221 #
face $-1 $-1 $292 $40 $-1 $555 reversed single #
loop $-1 $-1 $420 $279 #
plane-surface $-1 0 0 11.923600402605221 0 0 1 1 0 0 forward_v I I I I #
coedge $-1 $556 $282 $287 $425 forward $172 $-1 #
coedge $-1 $282 $556 $557 $558 reversed $172 $-1 #
coedge $-1 $284 $283 $282 $419 reversed $109 $-1 #
edge $-1 $559 -6.7118002013026103 $430 -3.7118002013026103 $282 $560 forward 7 unknown #
coedge $-1 $557 $561 $284 $421 forward $414 $-1 #
edge $-1 $423 -67.958616901150549 $559 67.958616901150549 $420 $562 forward 7 unknown #
coedge $-1 $291 $285 $561 $563 reversed $292 $-1 #
vertex $-1 $286 $564 #
straight-curve $-1 67.958616901150549 -35.576084637464369 5.2118002013026103 0 0 1 I I #
edge $-1 $430 15.703626522041031 $428 24.041289708805646 $416 $565 forward 7 unknown #
coedge $-1 $566 $288 $291 $432 reversed $280 $-1 #
coedge $-1 $288 $566 $556 $567 forward $280 $-1 #
vertex $-1 $289 $568 #
straight-curve $-1 0 -43.913747824228984 8.9236004026052207 1 0 0 I I #
vertex $-1 $425 $569 #
straight-curve $-1 0 -35.576084637464369 8.9236004026052207 1 0 0 I I #
edge $-1 $570 -11.923600402605221 $293 -8.9236004026052207 $291 $571 forward 7 unknown #
point $-1 67.958616901150549 -43.913747824228984 8.9236004026052207 #
point $-1 67.958616901150549 -35.576084637464369 8.9236004026052207 #
face $-1 $-1 $451 $41 $-1 $572 reversed single #
loop $-1 $-1 $302 $296 #
plane-surface $-1 -67.958616901150549 0 0 1 0 0 0 0 -1 forward_v I I I I #
coedge $-1 $573 $299 $454 $574 forward $180 $-1 #
coedge $-1 $299 $573 $442 $575 forward $180 $-1 #
edge $-1 $445 -67.958616901150549 $576 67.958616901150549 $299 $577 forward 7 unknown #
coedge $-1 $301 $300 $309 $456 reversed $113 $-1 #
coedge $-1 $578 $302 $439 $575 reversed $436 $-1 #
coedge $-1 $302 $578 $304 $447 forward $436 $-1 #
vertex $-1 $447 $579 #
vertex $-1 $303 $580 #
straight-curve $-1 -67.958616901150549 35.576084637464369 5.2118002013026103 0 0 1 I I #
edge $-1 $452 -24.041289708805646 $444 -15.703626522041031 $443 $581 forward 7 unknown #
straight-curve $-1 0 35.576084637464369 8.9236004026052207 -1 0 0 I I #
coedge $-1 $582 $306 $578 $583 reversed $451 $-1 #
coedge $-1 $306 $582 $308 $455 forward $451 $-1 #
loop $-1 $-1 $306 $435 #
vertex $-1 $307 $584 #
straight-curve $-1 0 43.913747824228984 8.9236004026052207 -1 0 0 I I #
coedge $-1 $309 $308 $438 $574 reversed $297 $-1 #
edge $-1 $585 -11.923600402605221 $311 -8.9236004026052207 $308 $586 forward 7 unknown #
edge $-1 $576 -6.7118002013026103 $310 -3.7118002013026103 $309 $587 forward 7 unknown #
point $-1 67.958616901150549 35.576084637464369 8.9236004026052207 #
point $-1 67.958616901150549 43.913747824228984 8.9236004026052207 #
plane-surface $-1 0 0 11.923600402605221 0 0 1 1 0 0 forward_v I I I I #
coedge $-1 $470 $469 $462 $588 forward $314 $-1 #
coedge $-1 $462 $316 $318 $466 reversed $188 $-1 #
coedge $-1 $316 $461 $460 $588 reversed $188 $-1 #
coedge $-1 $324 $319 $316 $464 forward $325 $-1 #
edge $-1 $467 -18.347303984290598 $589 -7.8601944165664577 $463 $590 forward 7 unknown #
coedge $-1 $318 $317 $470 $591 reversed $117 $-1 #
edge $-1 $592 1.8033521786330445e-014 $467 13.308333166776633 $461 $593 forward 7 unknown #
vertex $-1 $320 $594 #
straight-curve $-1 -57.471507333426416 -1.8315706649730039 11.923600402605219 0 1 0 I I #
coedge $-1 $460 $321 $324 $474 reversed $314 $-1 #
coedge $-1 $321 $460 $465 $591 forward $314 $-1 #
vertex $-1 $322 $595 #
straight-curve $-1 -67.958616901150549 -7.3262826598920228 55.417206642551065 0 0 1 I I #
straight-curve $-1 -67.958616901150563 -7.3262826598920228 3.7301722682724687 -0.78801074757464917 0 -0.61566148304635926 I I #
edge $-1 $589 -7.1054273576010019e-015 $326 7.3262826598920228 $469 $596 forward 7 unknown #
point $-1 -67.958616901150549 -7.3262826598920228 11.923600402605221 #
point $-1 -57.471507333426409 -7.3262826598920228 11.923600402605221 #
edge $-1 $597 1 $597 0 $329 $-1 forward 7 unknown #
vertex $-1 $330 $598 #
ellipse-curve $-1 -62.099400634242109 -5.8610261279136182 7.0388755878641911 -0.61566148304635926 0 0.78801074757464917 0.39400537378732459 0 0.30783074152317963 1 I I #
point $-1 -62.321056743501146 -5.8610261279136182 8.1347170769620192 #
edge $-1 $599 1 $599 0 $333 $-1 forward 7 unknown #
vertex $-1 $334 $600 #
ellipse-curve $-1 -62.099400634242109 -3.6631413299460078 7.0388755878641911 -0.61566148304635926 0 0.78801074757464917 0.39400537378732459 0 0.30783074152317963 1 I I #
point $-1 -62.321056743501146 -3.6631413299460078 8.1347170769620192 #
edge $-1 $601 1 $601 0 $337 $-1 forward 7 unknown #
vertex $-1 $338 $602 #
ellipse-curve $-1 -62.099400634242109 -1.4652565319783974 7.0388755878641911 -0.61566148304635926 0 0.78801074757464917 0.39400537378732459 0 0.30783074152317963 1 I I #
point $-1 -62.321056743501146 -1.4652565319783974 8.1347170769620192 #
loop $-1 $-1 $348 $341 #
plane-surface $-1 -67.958616901150549 0 0 1 0 0 0 0 -1 forward_v I I I I #
coedge $-1 $603 $604 $345 $493 reversed $342 $-1 #
coedge $-1 $345 $344 $498 $605 reversed $136 $-1 #
edge $-1 $606 1.8033521786330445e-014 $495 13.308333166776633 $491 $607 forward 7 unknown #
coedge $-1 $351 $346 $604 $608 forward $217 $-1 #
vertex $-1 $608 $609 #
straight-curve $-1 -57.471507333426416 15.956471653759177 11.923600402605219 0 1 0 I I #
coedge $-1 $610 $348 $351 $502 reversed $489 $-1 #
coedge $-1 $348 $610 $492 $605 forward $489 $-1 #
vertex $-1 $349 $611 #
straight-curve $-1 -67.958616901150549 28.249801977572339 55.417206642551065 0 0 1 I I #
straight-curve $-1 -67.958616901150563 28.249801977572339 3.7301722682724687 -0.78801074757464917 0 -0.61566148304635926 I I #
edge $-1 $612 -35.576084637464369 $352 -28.249801977572339 $497 $613 forward 7 unknown #
point $-1 -67.958616901150549 28.249801977572339 11.923600402605221 #
point $-1 -57.471507333426409 28.249801977572339 11.923600402605221 #
edge $-1 $614 1 $614 0 $355 $-1 forward 7 unknown #
vertex $-1 $356 $615 #
ellipse-curve $-1 -62.099400634242109 29.715058509550751 7.0388755878641911 -0.61566148304635926 0 0.78801074757464917 0.39400537378732459 0 0.30783074152317963 1 I I #
point $-1 -62.321056743501146 29.715058509550751 8.1347170769620192 #
edge $-1 $616 1 $616 0 $359 $-1 forward 7 unknown #
vertex $-1 $360 $617 #
ellipse-curve $-1 -62.099400634242109 31.912943307518354 7.0388755878641911 -0.61566148304635926 0 0.78801074757464917 0.39400537378732459 0 0.30783074152317963 1 I I #
point $-1 -62.321056743501146 31.912943307518354 8.1347170769620192 #
edge $-1 $618 1 $618 0 $363 $-1 forward 7 unknown #
vertex $-1 $364 $619 #
ellipse-curve $-1 -62.099400634242109 34.110828105485972 7.0388755878641911 -0.61566148304635926 0 0.78801074757464917 0.39400537378732459 0 0.30783074152317963 1 I I #
point $-1 -62.321056743501146 34.110828105485972 8.1347170769620192 #
loop $-1 $-1 $375 $367 #
plane-surface $-1 67.958616901150549 0 0 -1 0 0 0 0 1 forward_v I I I I #
coedge $-1 $520 $370 $372 $524 reversed $246 $-1 #
coedge $-1 $370 $519 $620 $621 reversed $246 $-1 #
coedge $-1 $378 $373 $370 $522 forward $368 $-1 #
edge $-1 $525 35.89816398463698 $622 50.66828625657503 $521 $623 forward 7 unknown #
coedge $-1 $372 $371 $528 $624 reversed $155 $-1 #
edge $-1 $625 -135.9172338023011 $525 -117.88624374588495 $519 $626 forward 7 unknown #
vertex $-1 $374 $627 #
straight-curve $-1 53.188494629212492 9.8189416626826649 11.923600402605224 0 -1 0 I I #
coedge $-1 $620 $375 $378 $532 reversed $517 $-1 #
coedge $-1 $375 $620 $523 $624 forward $517 $-1 #
vertex $-1 $376 $628 #
straight-curve $-1 67.958616901150549 26.210127141886922 95.438626038180729 0 0 1 I I #
straight-curve $-1 -43.378262318591794 26.210127141886922 79.540372856619101 0.81915203911291934 0 -0.57357644374324357 I I #
edge $-1 $622 13.065639508843738 $379 26.210127141886922 $527 $629 forward 7 unknown #
point $-1 67.958616901150549 26.210127141886922 11.923600402605221 #
point $-1 53.188494629212499 26.210127141886922 11.923600402605217 #
edge $-1 $630 1 $630 0 $382 $-1 forward 7 unknown #
vertex $-1 $383 $631 #
ellipse-curve $-1 58.433046268010223 19.63788332536533 3.6955605126572748 0.57357644374324357 0 0.81915203911291934 1.6383040782258387 0 -1.1471528874864871 1 I I #
point $-1 62.211859843407339 19.63788332536533 5.6053719382542564 #
plane-surface $-1 67.958616901150549 0 0 -1 0 0 0 0 1 forward_v I I I I #
coedge $-1 $391 $389 $393 $544 reversed $261 $-1 #
edge $-1 $404 -11.923600402605221 $546 11.923600402605221 $403 $632 forward 7 unknown #
vertex $-1 $544 $633 #
straight-curve $-1 -67.958616901150549 -43.913747824228984 0 0 0 -1 I I #
edge $-1 $542 -43.913747824228984 $546 43.913747824228984 $540 $634 forward 7 unknown #
straight-curve $-1 0 -43.913747824228984 -11.923600402605221 -1 0 0 I I #
vertex $-1 $396 $635 #
straight-curve $-1 0 43.913747824228984 -11.923600402605221 1 0 0 I I #
point $-1 67.958616901150549 43.913747824228984 -11.923600402605221 #
point $-1 67.958616901150549 -43.913747824228984 -11.923600402605221 #
straight-curve $-1 -67.958616901150549 0 11.923600402605221 0 -1 0 I I #
point $-1 -67.958616901150549 43.913747824228984 11.923600402605221 #
point $-1 -67.958616901150549 -43.913747824228984 11.923600402605221 #
straight-curve $-1 67.958616901150549 -43.913747824228984 0 0 0 -1 I I #
straight-curve $-1 67.958616901150549 43.913747824228984 0 0 0 -1 I I #
plane-surface $-1 67.958616901150549 0 0 -1 0 0 0 0 1 forward_v I I I I #
coedge $-1 $417 $416 $427 $567 reversed $172 $-1 #
coedge $-1 $636 $420 $417 $558 forward $414 $-1 #
edge $-1 $559 35.576084637464369 $637 43.913747824228984 $417 $638 forward 7 unknown #
vertex $-1 $558 $639 #
straight-curve $-1 -67.958616901150549 -35.576084637464369 5.2118002013026103 0 0 -1 I I #
coedge $-1 $420 $636 $422 $563 forward $414 $-1 #
straight-curve $-1 0 -35.576084637464369 11.923600402605221 -1 0 0 I I #
edge $-1 $570 -43.913747824228984 $423 -35.576084637464369 $422 $640 forward 7 unknown #
point $-1 67.958616901150549 -35.576084637464369 11.923600402605221 #
straight-curve $-1 -67.958616901150549 -19.872458115423338 8.9236004026052207 0 -1 0 I I #
coedge $-1 $427 $426 $636 $641 reversed $280 $-1 #
edge $-1 $637 -11.923600402605221 $428 -8.9236004026052207 $556 $642 forward 7 unknown #
point $-1 -67.958616901150549 -43.913747824228984 8.9236004026052207 #
point $-1 -67.958616901150549 -35.576084637464369 8.9236004026052207 #
vertex $-1 $563 $643 #
straight-curve $-1 67.958616901150549 -43.913747824228984 0 0 0 -1 I I #
plane-surface $-1 0 43.913747824228984 0 0 -1 0 0 0 -1 forward_v I I I I #
coedge $-1 $439 $438 $582 $644 forward $180 $-1 #
edge $-1 $576 35.576084637464369 $585 43.913747824228984 $454 $645 forward 7 unknown #
edge $-1 $646 -43.913747824228984 $445 -35.576084637464369 $442 $647 forward 7 unknown #
vertex $-1 $574 $648 #
straight-curve $-1 0 35.576084637464369 11.923600402605221 1 0 0 I I #
coedge $-1 $443 $442 $449 $583 forward $436 $-1 #
point $-1 -67.958616901150549 35.576084637464369 8.9236004026052207 #
point $-1 -67.958616901150549 35.576084637464369 11.923600402605221 #
straight-curve $-1 -67.958616901150549 19.872458115423338 8.9236004026052207 0 -1 0 I I #
coedge $-1 $450 $449 $573 $644 reversed $451 $-1 #
edge $-1 $646 -11.923600402605221 $452 -8.9236004026052207 $449 $649 forward 7 unknown #
point $-1 -67.958616901150549 43.913747824228984 8.9236004026052207 #
vertex $-1 $574 $650 #
straight-curve $-1 67.958616901150549 43.913747824228984 0 0 0 -1 I I #
straight-curve $-1 67.958616901150549 35.576084637464369 5.2118002013026103 0 0 -1 I I #
edge $-1 $589 43.493606239945848 $592 51.687034374278582 $460 $651 forward 7 unknown #
vertex $-1 $474 $652 #
straight-curve $-1 -75.818811317717007 7.1054273576010019e-015 11.923600402605217 -1 0 0 I I #
edge $-1 $592 -1.831570664973011 $471 5.4947119949190188 $470 $653 forward 7 unknown #
vertex $-1 $591 $654 #
straight-curve $-1 -67.958616901150563 7.1054273576010019e-015 3.7301722682724687 0.78801074757464917 0 0.61566148304635926 I I #
point $-1 -57.471507333426409 7.1054273576010019e-015 11.923600402605221 #
point $-1 -67.958616901150549 -7.3262826598920228 3.7301722682724798 #
straight-curve $-1 -67.958616901150549 0 11.923600402605221 0 -1 0 I I #
vertex $-1 $477 $655 #
point $-1 -61.705395260454786 -5.8610261279136182 7.3467063293873709 #
vertex $-1 $481 $656 #
point $-1 -61.705395260454786 -3.6631413299460078 7.3467063293873709 #
vertex $-1 $485 $657 #
point $-1 -61.705395260454786 -1.4652565319783974 7.3467063293873709 #
coedge $-1 $604 $491 $610 $658 reversed $342 $-1 #
coedge $-1 $491 $603 $494 $608 reversed $342 $-1 #
edge $-1 $606 -19.619612983705192 $499 -12.293330323813162 $498 $659 forward 7 unknown #
vertex $-1 $658 $660 #
straight-curve $-1 -67.958616901150563 35.576084637464369 3.7301722682724687 0.78801074757464917 0 0.61566148304635926 I I #
edge $-1 $495 57.471507333426409 $612 67.958616901150549 $494 $661 forward 7 unknown #
point $-1 -57.471507333426409 35.576084637464369 11.923600402605221 #
coedge $-1 $498 $497 $603 $658 forward $489 $-1 #
point $-1 -67.958616901150549 28.249801977572339 3.7301722682724798 #
vertex $-1 $502 $662 #
straight-curve $-1 -67.958616901150549 0 11.923600402605221 0 -1 0 I I #
vertex $-1 $505 $663 #
point $-1 -61.705395260454786 29.715058509550751 7.3467063293873709 #
vertex $-1 $509 $664 #
point $-1 -61.705395260454786 31.912943307518354 7.3467063293873709 #
vertex $-1 $513 $665 #
point $-1 -61.705395260454786 34.110828105485972 7.3467063293873709 #
coedge $-1 $528 $527 $520 $621 forward $517 $-1 #
edge $-1 $622 83.515025635575512 $625 93.857176789304461 $620 $666 forward 7 unknown #
vertex $-1 $532 $667 #
straight-curve $-1 17.290330644575519 13.065639508843738 11.923600402605217 1 0 0 I I #
edge $-1 $625 3.2466978461610729 $529 16.391185479204257 $528 $668 forward 7 unknown #
vertex $-1 $624 $669 #
straight-curve $-1 -43.378262318591794 13.065639508843738 79.540372856619101 -0.81915203911291934 0 0.57357644374324357 I I #
point $-1 53.188494629212499 13.065639508843738 11.923600402605217 #
point $-1 67.958616901150563 26.210127141886922 1.5814492488762681 #
straight-curve $-1 67.958616901150549 0 11.923600402605221 0 1 0 I I #
vertex $-1 $535 $670 #
point $-1 60.071350346236059 19.63788332536533 2.5484076251707877 #
straight-curve $-1 -67.958616901150549 43.913747824228984 0 0 0 -1 I I #
point $-1 -67.958616901150549 -43.913747824228984 -11.923600402605221 #
straight-curve $-1 -67.958616901150549 0 -11.923600402605221 0 1 0 I I #
point $-1 -67.958616901150549 43.913747824228984 -11.923600402605221 #
coedge $-1 $561 $557 $566 $641 forward $414 $-1 #
vertex $-1 $558 $671 #
straight-curve $-1 -67.958616901150549 0 11.923600402605221 0 -1 0 I I #
point $-1 -67.958616901150549 -35.576084637464369 11.923600402605221 #
straight-curve $-1 67.958616901150549 0 11.923600402605221 0 1 0 I I #
edge $-1 $637 -67.958616901150549 $570 67.958616901150549 $566 $672 forward 7 unknown #
straight-curve $-1 -67.958616901150549 -43.913747824228984 0 0 0 -1 I I #
point $-1 67.958616901150549 -43.913747824228984 11.923600402605221 #
edge $-1 $585 -67.958616901150549 $646 67.958616901150549 $582 $673 forward 7 unknown #
straight-curve $-1 67.958616901150549 0 11.923600402605221 0 1 0 I I #
vertex $-1 $644 $674 #
straight-curve $-1 -67.958616901150549 0 11.923600402605221 0 -1 0 I I #
point $-1 67.958616901150549 35.576084637464369 11.923600402605221 #
straight-curve $-1 -67.958616901150549 43.913747824228984 0 0 0 -1 I I #
point $-1 67.958616901150549 43.913747824228984 11.923600402605221 #
straight-curve $-1 -67.958616901150549 7.1054273576010019e-015 55.417206642551065 0 0 -1 I I #
point $-1 -67.958616901150549 7.1054273576010019e-015 11.923600402605221 #
straight-curve $-1 -67.958616901150549 -1.8315706649730039 3.7301722682724692 0 -1 0 I I #
point $-1 -67.958616901150549 7.1054273576010019e-015 3.7301722682724798 #
point $-1 -61.791569892718933 -5.8610261279136182 6.6448702140768665 #
point $-1 -61.791569892718933 -3.6631413299460078 6.6448702140768665 #
point $-1 -61.791569892718933 -1.4652565319783974 6.6448702140768665 #
edge $-1 $612 43.493606239945848 $606 51.687034374278582 $610 $675 forward 7 unknown #
straight-curve $-1 -67.958616901150549 15.956471653759177 3.7301722682724692 0 -1 0 I I #
point $-1 -67.958616901150549 35.576084637464369 3.7301722682724798 #
straight-curve $-1 0 35.576084637464369 11.923600402605221 -1 0 0 I I #
point $-1 -67.958616901150549 35.576084637464369 11.923600402605221 #
point $-1 -61.791569892718933 29.715058509550751 6.6448702140768665 #
point $-1 -61.791569892718933 31.912943307518354 6.6448702140768665 #
point $-1 -61.791569892718933 34.110828105485972 6.6448702140768665 #
straight-curve $-1 67.958616901150549 13.065639508843738 95.438626038180729 0 0 -1 I I #
point $-1 67.958616901150549 13.065639508843738 11.923600402605221 #
straight-curve $-1 67.958616901150549 9.8189416626826649 1.5814492488762681 0 1 0 I I #
point $-1 67.958616901150563 13.065639508843738 1.5814492488762681 #
point $-1 57.285893380523738 19.63788332536533 2.0572564344314359 #
point $-1 -67.958616901150549 -43.913747824228984 11.923600402605221 #
straight-curve $-1 0 -43.913747824228984 11.923600402605221 1 0 0 I I #
straight-curve $-1 0 43.913747824228984 11.923600402605221 -1 0 0 I I #
point $-1 -67.958616901150549 43.913747824228984 11.923600402605221 #
straight-curve $-1 -67.958616901150549 35.576084637464369 55.417206642551065 0 0 -1 I I #
End-of-ACIS-data 