500 0 13 0           
7 Unknown 11 ACIS 5.0 NT 24 Thu Mar 25 17:40:26 1999 
-1 9.9999999999999995e-007 1e-010 
body $-1 $13 $-1 $14 #
body $-1 $15 $-1 $16 #
body $-1 $17 $-1 $18 #
body $-1 $19 $-1 $20 #
body $-1 $21 $-1 $22 #
body $-1 $23 $-1 $24 #
body $-1 $25 $-1 $26 #
body $-1 $27 $-1 $28 #
body $-1 $29 $-1 $30 #
body $-1 $31 $-1 $32 #
body $-1 $33 $-1 $34 #
body $-1 $35 $-1 $36 #
body $-1 $37 $-1 $38 #
lump $-1 $-1 $39 $0 #
transform $-1 1 0 0 0 1 0 0 0 1 53.11685537278359 32.641569611862778 7.8262264882863111 1 rotate no_reflect no_shear #
lump $-1 $-1 $40 $1 #
transform $-1 1 0 0 0 1 0 0 0 1 53.11685537278359 32.641569611862778 7.8262264882863111 1 rotate no_reflect no_shear #
lump $-1 $-1 $41 $2 #
transform $-1 1 0 0 0 1 0 0 0 1 53.11685537278359 32.641569611862778 7.8262264882863111 1 rotate no_reflect no_shear #
lump $-1 $-1 $42 $3 #
transform $-1 1 0 0 0 1 0 0 0 1 53.11685537278359 32.641569611862778 7.8262264882863111 1 rotate no_reflect no_shear #
lump $-1 $-1 $43 $4 #
transform $-1 1 0 0 0 1 0 0 0 1 53.11685537278359 32.641569611862778 7.8262264882863111 1 rotate no_reflect no_shear #
lump $-1 $-1 $44 $5 #
transform $-1 1 0 0 0 1 0 0 0 1 53.11685537278359 32.641569611862778 7.8262264882863111 1 rotate no_reflect no_shear #
lump $-1 $-1 $45 $6 #
transform $-1 1 0 0 0 1 0 0 0 1 53.11685537278359 32.641569611862778 7.8262264882863111 1 rotate no_reflect no_shear #
lump $-1 $-1 $46 $7 #
transform $-1 1 0 0 0 1 0 0 0 1 53.11685537278359 32.641569611862778 7.8262264882863111 1 rotate no_reflect no_shear #
lump $-1 $-1 $47 $8 #
transform $-1 1 0 0 0 1 0 0 0 1 53.11685537278359 32.641569611862778 7.8262264882863111 1 rotate no_reflect no_shear #
lump $-1 $-1 $48 $9 #
transform $-1 1 0 0 0 1 0 0 0 1 53.11685537278359 32.641569611862778 7.8262264882863111 1 rotate no_reflect no_shear #
lump $-1 $-1 $49 $10 #
transform $-1 1 0 0 0 1 0 0 0 1 53.11685537278359 32.641569611862778 7.8262264882863111 1 rotate no_reflect no_shear #
lump $-1 $-1 $50 $11 #
transform $-1 1 0 0 0 1 0 0 0 1 53.11685537278359 32.641569611862778 7.8262264882863111 1 rotate no_reflect no_shear #
lump $-1 $-1 $51 $12 #
transform $-1 1 0 0 0 1 0 0 0 1 53.11685537278359 32.641569611862778 7.8262264882863111 1 rotate no_reflect no_shear #
shell $-1 $-1 $-1 $52 $-1 $13 #
shell $-1 $-1 $-1 $53 $-1 $15 #
shell $-1 $-1 $-1 $54 $-1 $17 #
shell $-1 $-1 $-1 $55 $-1 $19 #
shell $-1 $-1 $-1 $56 $-1 $21 #
shell $-1 $-1 $-1 $57 $-1 $23 #
shell $-1 $-1 $-1 $58 $-1 $25 #
shell $-1 $-1 $-1 $59 $-1 $27 #
shell $-1 $-1 $-1 $60 $-1 $29 #
shell $-1 $-1 $-1 $61 $-1 $31 #
shell $-1 $-1 $-1 $62 $-1 $33 #
shell $-1 $-1 $-1 $63 $-1 $35 #
shell $-1 $-1 $-1 $64 $-1 $37 #
face $-1 $65 $66 $39 $-1 $67 forward single #
face $-1 $68 $69 $40 $-1 $70 forward single #
face $-1 $71 $72 $41 $-1 $73 reversed single #
face $-1 $74 $75 $42 $-1 $76 forward single #
face $-1 $77 $78 $43 $-1 $79 forward single #
face $-1 $80 $81 $44 $-1 $82 reversed single #
face $-1 $83 $84 $45 $-1 $85 forward single #
face $-1 $86 $87 $46 $-1 $88 forward single #
face $-1 $89 $90 $47 $-1 $91 forward single #
face $-1 $92 $93 $48 $-1 $94 reversed single #
face $-1 $95 $96 $49 $-1 $97 forward single #
face $-1 $98 $99 $50 $-1 $100 forward single #
face $-1 $101 $102 $51 $-1 $103 forward single #
face $-1 $104 $105 $39 $-1 $106 reversed single #
loop $-1 $-1 $107 $52 #
plane-surface $-1 0 0 7.8262264882863111 0 0 1 1 0 0 forward_v I I I I #
face $-1 $108 $109 $40 $-1 $110 reversed single #
loop $-1 $-1 $111 $53 #
plane-surface $-1 0 -28.153865122712901 -4.8262264882863111 0 0 1 1 0 0 forward_v I I I I #
face $-1 $112 $113 $41 $-1 $114 reversed single #
loop $-1 $-1 $115 $54 #
plane-surface $-1 74.0258280794597 8.68240174425571 151.73969437053822 0 -1 0 -0.79863551827123203 0 -0.60181501223851219 forward_v I I I I #
face $-1 $116 $117 $42 $-1 $118 forward single #
loop $-1 $119 $120 $55 #
cone-surface $-1 50.860235291565104 4.1917759107616348 5.0752581819545473 -0.79863551827123203 0 -0.60181501223851219 0.3009075061192561 0 -0.39931775913561601 1 I I 0 1 0.5 forward I I I I #
face $-1 $121 $122 $43 $-1 $123 forward single #
loop $-1 $124 $125 $56 #
cone-surface $-1 50.860235291565104 6.8861514108580835 5.0752581819545473 -0.79863551827123203 0 -0.60181501223851219 0.3009075061192561 0 -0.39931775913561601 1 I I 0 1 0.5 forward I I I I #
face $-1 $126 $127 $44 $-1 $128 reversed single #
loop $-1 $-1 $129 $57 #
plane-surface $-1 -146.03095316343899 -20.647694245796608 52.199065155979639 0 1 0 -0.87461971476443456 0 0.48480960649040278 forward_v I I I I #
face $-1 $130 $131 $45 $-1 $132 forward single #
loop $-1 $133 $134 $58 #
cone-surface $-1 -50.703354876996954 -19.096733322280283 4.0186792676009295 0.87461971476443456 0 -0.48480960649040278 0.12120240162260069 0 0.21865492869110864 1 I I 0 1 0.25 forward I I I I #
face $-1 $135 $136 $46 $-1 $137 forward single #
loop $-1 $138 $139 $59 #
cone-surface $-1 -50.703354876996954 -16.770291937005801 4.0186792676009295 0.87461971476443456 0 -0.48480960649040278 0.12120240162260069 0 0.21865492869110864 1 I I 0 1 0.25 forward I I I I #
face $-1 $140 $141 $47 $-1 $142 forward single #
loop $-1 $143 $144 $60 #
cone-surface $-1 -50.703354876996954 -14.44385055173132 4.0186792676009295 0.87461971476443456 0 -0.48480960649040278 0.12120240162260069 0 0.21865492869110864 1 I I 0 1 0.25 forward I I I I #
face $-1 $145 $146 $48 $-1 $147 reversed single #
loop $-1 $-1 $148 $61 #
plane-surface $-1 -146.03095316343899 21.868298606514756 52.199065155979639 0 1 0 -0.87461971476443456 0 0.48480960649040278 forward_v I I I I #
face $-1 $149 $150 $49 $-1 $151 forward single #
loop $-1 $152 $153 $62 #
cone-surface $-1 -50.703354876996954 23.419259530031084 4.0186792676009295 0.87461971476443456 0 -0.48480960649040278 0.12120240162260069 0 0.21865492869110864 1 I I 0 1 0.25 forward I I I I #
face $-1 $154 $155 $50 $-1 $156 forward single #
loop $-1 $157 $158 $63 #
cone-surface $-1 -50.703354876996954 25.745700915305562 4.0186792676009295 0.87461971476443456 0 -0.48480960649040278 0.12120240162260069 0 0.21865492869110864 1 I I 0 1 0.25 forward I I I I #
face $-1 $159 $160 $51 $-1 $161 forward single #
loop $-1 $162 $163 $64 #
cone-surface $-1 -50.703354876996954 28.07214230058004 4.0186792676009295 0.87461971476443456 0 -0.48480960649040278 0.12120240162260069 0 0.21865492869110864 1 I I 0 1 0.25 forward I I I I #
face $-1 $164 $165 $39 $-1 $166 reversed single #
loop $-1 $-1 $167 $65 #
plane-surface $-1 0 0 -7.8262264882863111 0 0 1 1 0 0 forward_v I I I I #
coedge $-1 $168 $169 $170 $171 forward $66 $-1 #
face $-1 $172 $173 $40 $-1 $174 reversed single #
loop $-1 $-1 $175 $68 #
plane-surface $-1 0 -23.666160633563024 -6.3262264882863111 0 -1 0 0 0 -1 forward_v I I I I #
coedge $-1 $176 $177 $178 $179 reversed $69 $-1 #
face $-1 $180 $181 $41 $-1 $182 reversed single #
loop $-1 $-1 $183 $71 #
plane-surface $-1 -10.816186559702501 5.5389636608098556 87.80665243805214 0.79863551827123203 0 0.60181501223851219 0.60181501223851219 0 -0.79863551827123203 forward_v I I I I #
coedge $-1 $184 $185 $186 $187 reversed $72 $-1 #
face $-1 $-1 $188 $42 $-1 $189 forward single #
loop $-1 $190 $191 $74 #
cone-surface $-1 50.235691202113472 4.1917759107616348 4.6046304672613285 -0.79863551827123203 0 -0.60181501223851219 0.15045375305962805 0 -0.19965887956780801 1 I I -0.70710678118654746 0.70710678118654746 0.25 forward I I I I #
loop $-1 $-1 $192 $55 #
coedge $-1 $120 $120 $193 $194 reversed $75 $-1 #
face $-1 $-1 $195 $43 $-1 $196 forward single #
loop $-1 $197 $198 $77 #
cone-surface $-1 50.235691202113472 6.8861514108580835 4.6046304672613285 -0.79863551827123203 0 -0.60181501223851219 0.15045375305962805 0 -0.19965887956780801 1 I I -0.70710678118654746 0.70710678118654746 0.25 forward I I I I #
loop $-1 $-1 $199 $56 #
coedge $-1 $125 $125 $200 $201 reversed $78 $-1 #
face $-1 $202 $203 $44 $-1 $204 reversed single #
loop $-1 $-1 $205 $80 #
plane-surface $-1 -53.116855372783576 -16.770291937005801 0.69594165340593861 -0.87461971476443456 0 0.48480960649040278 0.48480960649040278 0 0.87461971476443456 forward_v I I I I #
coedge $-1 $206 $207 $208 $209 reversed $81 $-1 #
face $-1 $-1 $210 $45 $-1 $211 forward single #
loop $-1 $212 $213 $83 #
cone-surface $-1 -50.156717555269182 -19.096733322280283 3.7156732635444278 0.87461971476443456 0 -0.48480960649040278 0.060601200811300347 0 0.10932746434555432 1 I I -0.70710678118654746 0.70710678118654746 0.125 forward I I I I #
loop $-1 $-1 $214 $58 #
coedge $-1 $134 $134 $215 $216 reversed $84 $-1 #
face $-1 $-1 $217 $46 $-1 $218 forward single #
loop $-1 $219 $220 $86 #
cone-surface $-1 -50.156717555269182 -16.770291937005801 3.7156732635444278 0.87461971476443456 0 -0.48480960649040278 0.060601200811300347 0 0.10932746434555432 1 I I -0.70710678118654746 0.70710678118654746 0.125 forward I I I I #
loop $-1 $-1 $221 $59 #
coedge $-1 $139 $139 $222 $223 reversed $87 $-1 #
face $-1 $-1 $224 $47 $-1 $225 forward single #
loop $-1 $226 $227 $89 #
cone-surface $-1 -50.156717555269182 -14.44385055173132 3.7156732635444278 0.87461971476443456 0 -0.48480960649040278 0.060601200811300347 0 0.10932746434555432 1 I I -0.70710678118654746 0.70710678118654746 0.125 forward I I I I #
loop $-1 $-1 $228 $60 #
coedge $-1 $144 $144 $229 $230 reversed $90 $-1 #
face $-1 $231 $232 $48 $-1 $233 reversed single #
loop $-1 $-1 $234 $92 #
plane-surface $-1 -53.116855372783576 25.745700915305562 0.69594165340593861 -0.87461971476443456 0 0.48480960649040278 0.48480960649040278 0 0.87461971476443456 forward_v I I I I #
coedge $-1 $235 $236 $237 $238 reversed $93 $-1 #
face $-1 $-1 $239 $49 $-1 $240 forward single #
loop $-1 $241 $242 $95 #
cone-surface $-1 -50.156717555269182 23.419259530031084 3.7156732635444278 0.87461971476443456 0 -0.48480960649040278 0.060601200811300347 0 0.10932746434555432 1 I I -0.70710678118654746 0.70710678118654746 0.125 forward I I I I #
loop $-1 $-1 $243 $62 #
coedge $-1 $153 $153 $244 $245 reversed $96 $-1 #
face $-1 $-1 $246 $50 $-1 $247 forward single #
loop $-1 $248 $249 $98 #
cone-surface $-1 -50.156717555269182 25.745700915305562 3.7156732635444278 0.87461971476443456 0 -0.48480960649040278 0.060601200811300347 0 0.10932746434555432 1 I I -0.70710678118654746 0.70710678118654746 0.125 forward I I I I #
loop $-1 $-1 $250 $63 #
coedge $-1 $158 $158 $251 $252 reversed $99 $-1 #
face $-1 $-1 $253 $51 $-1 $254 forward single #
loop $-1 $255 $256 $101 #
cone-surface $-1 -50.156717555269182 28.07214230058004 3.7156732635444278 0.87461971476443456 0 -0.48480960649040278 0.060601200811300347 0 0.10932746434555432 1 I I -0.70710678118654746 0.70710678118654746 0.125 forward I I I I #
loop $-1 $-1 $257 $64 #
coedge $-1 $163 $163 $258 $259 reversed $102 $-1 #
face $-1 $260 $261 $39 $-1 $262 reversed single #
loop $-1 $-1 $263 $104 #
plane-surface $-1 0 -32.641569611862778 0 0 1 0 0 0 1 forward_v I I I I #
coedge $-1 $264 $265 $266 $267 forward $105 $-1 #
coedge $-1 $268 $107 $269 $270 forward $66 $-1 #
coedge $-1 $107 $268 $271 $272 forward $66 $-1 #
coedge $-1 $273 $274 $107 $171 reversed $275 $-1 #
edge $-1 $276 -32.641569611862778 $277 32.641569611862778 $170 $278 forward 7 unknown #
face $-1 $279 $280 $40 $-1 $281 reversed single #
loop $-1 $-1 $282 $108 #
plane-surface $-1 0 0 -7.8262264882863111 0 0 1 1 0 0 forward_v I I I I #
coedge $-1 $283 $284 $285 $286 reversed $109 $-1 #
coedge $-1 $287 $111 $284 $288 forward $69 $-1 #
coedge $-1 $111 $287 $289 $290 reversed $69 $-1 #
coedge $-1 $291 $285 $111 $179 forward $280 $-1 #
edge $-1 $292 9.5892280722065735 $293 18.564637050506327 $178 $294 forward 7 unknown #
face $-1 $295 $296 $41 $-1 $297 reversed single #
loop $-1 $-1 $298 $112 #
plane-surface $-1 74.0258280794597 2.3955255773640012 151.73969437053822 0 1 0 0.79863551827123203 0 0.60181501223851219 forward_v I I I I #
coedge $-1 $299 $300 $301 $302 reversed $113 $-1 #
coedge $-1 $185 $115 $303 $304 reversed $72 $-1 #
coedge $-1 $115 $184 $299 $305 reversed $72 $-1 #
coedge $-1 $301 $306 $115 $187 forward $307 $-1 #
edge $-1 $308 -16.10394133305374 $309 -12.440471590384405 $186 $310 forward 7 unknown #
loop $-1 $-1 $193 $116 #
plane-surface $-1 -10.816186559702501 5.5389636608098556 87.80665243805214 0.79863551827123203 0 0.60181501223851219 0.60181501223851219 0 -0.79863551827123203 forward_v I I I I #
loop $-1 $-1 $311 $74 #
coedge $-1 $191 $191 $192 $312 reversed $117 $-1 #
coedge $-1 $192 $192 $191 $312 forward $119 $-1 #
coedge $-1 $193 $193 $120 $194 forward $188 $-1 #
edge $-1 $313 0 $313 6.2831853071796004 $193 $314 forward 7 unknown #
loop $-1 $-1 $200 $121 #
plane-surface $-1 -10.816186559702501 5.5389636608098556 87.80665243805214 0.79863551827123203 0 0.60181501223851219 0.60181501223851219 0 -0.79863551827123203 forward_v I I I I #
loop $-1 $-1 $315 $77 #
coedge $-1 $198 $198 $199 $316 reversed $122 $-1 #
coedge $-1 $199 $199 $198 $316 forward $124 $-1 #
coedge $-1 $200 $200 $125 $201 forward $195 $-1 #
edge $-1 $317 0 $317 6.2831853071796004 $200 $318 forward 7 unknown #
face $-1 $319 $320 $44 $-1 $321 forward single #
loop $-1 $-1 $322 $126 #
plane-surface $-1 -146.03095316343899 -12.892889628214997 52.199065155979639 0 -1 0 0.87461971476443456 0 -0.48480960649040278 forward_v I I I I #
coedge $-1 $323 $324 $325 $326 reversed $127 $-1 #
coedge $-1 $207 $129 $327 $328 reversed $81 $-1 #
coedge $-1 $129 $206 $323 $329 reversed $81 $-1 #
coedge $-1 $325 $330 $129 $209 forward $320 $-1 #
edge $-1 $331 19.898621208935907 $332 23.851002485744765 $208 $333 forward 7 unknown #
loop $-1 $-1 $215 $130 #
plane-surface $-1 -53.116855372783576 -16.770291937005801 0.69594165340593861 -0.87461971476443456 0 0.48480960649040278 0.48480960649040278 0 0.87461971476443456 forward_v I I I I #
loop $-1 $-1 $334 $83 #
coedge $-1 $213 $213 $214 $335 reversed $131 $-1 #
coedge $-1 $214 $214 $213 $335 forward $133 $-1 #
coedge $-1 $215 $215 $134 $216 forward $210 $-1 #
edge $-1 $336 0 $336 6.2831853071796004 $215 $337 forward 7 unknown #
loop $-1 $-1 $222 $135 #
plane-surface $-1 -53.116855372783576 -16.770291937005801 0.69594165340593861 -0.87461971476443456 0 0.48480960649040278 0.48480960649040278 0 0.87461971476443456 forward_v I I I I #
loop $-1 $-1 $338 $86 #
coedge $-1 $220 $220 $221 $339 reversed $136 $-1 #
coedge $-1 $221 $221 $220 $339 forward $138 $-1 #
coedge $-1 $222 $222 $139 $223 forward $217 $-1 #
edge $-1 $340 0 $340 6.2831853071796004 $222 $341 forward 7 unknown #
loop $-1 $-1 $229 $140 #
plane-surface $-1 -53.116855372783576 -16.770291937005801 0.69594165340593861 -0.87461971476443456 0 0.48480960649040278 0.48480960649040278 0 0.87461971476443456 forward_v I I I I #
loop $-1 $-1 $342 $89 #
coedge $-1 $227 $227 $228 $343 reversed $141 $-1 #
coedge $-1 $228 $228 $227 $343 forward $143 $-1 #
coedge $-1 $229 $229 $144 $230 forward $224 $-1 #
edge $-1 $344 0 $344 6.2831853071796004 $229 $345 forward 7 unknown #
face $-1 $346 $347 $48 $-1 $348 forward single #
loop $-1 $-1 $349 $145 #
plane-surface $-1 -146.03095316343899 29.623103224096369 52.199065155979639 0 -1 0 0.87461971476443456 0 -0.48480960649040278 forward_v I I I I #
coedge $-1 $350 $351 $352 $353 reversed $146 $-1 #
coedge $-1 $236 $148 $354 $355 reversed $93 $-1 #
coedge $-1 $148 $235 $350 $356 reversed $93 $-1 #
coedge $-1 $352 $357 $148 $238 forward $347 $-1 #
edge $-1 $358 19.898621208935907 $359 23.851002485744765 $237 $360 forward 7 unknown #
loop $-1 $-1 $244 $149 #
plane-surface $-1 -53.116855372783576 25.745700915305562 0.69594165340593861 -0.87461971476443456 0 0.48480960649040278 0.48480960649040278 0 0.87461971476443456 forward_v I I I I #
loop $-1 $-1 $361 $95 #
coedge $-1 $242 $242 $243 $362 reversed $150 $-1 #
coedge $-1 $243 $243 $242 $362 forward $152 $-1 #
coedge $-1 $244 $244 $153 $245 forward $239 $-1 #
edge $-1 $363 0 $363 6.2831853071796004 $244 $364 forward 7 unknown #
loop $-1 $-1 $251 $154 #
plane-surface $-1 -53.116855372783576 25.745700915305562 0.69594165340593861 -0.87461971476443456 0 0.48480960649040278 0.48480960649040278 0 0.87461971476443456 forward_v I I I I #
loop $-1 $-1 $365 $98 #
coedge $-1 $249 $249 $250 $366 reversed $155 $-1 #
coedge $-1 $250 $250 $249 $366 forward $157 $-1 #
coedge $-1 $251 $251 $158 $252 forward $246 $-1 #
edge $-1 $367 0 $367 6.2831853071796004 $251 $368 forward 7 unknown #
loop $-1 $-1 $258 $159 #
plane-surface $-1 -53.116855372783576 25.745700915305562 0.69594165340593861 -0.87461971476443456 0 0.48480960649040278 0.48480960649040278 0 0.87461971476443456 forward_v I I I I #
loop $-1 $-1 $369 $101 #
coedge $-1 $256 $256 $257 $370 reversed $160 $-1 #
coedge $-1 $257 $257 $256 $370 forward $162 $-1 #
coedge $-1 $258 $258 $163 $259 forward $253 $-1 #
edge $-1 $371 0 $371 6.2831853071796004 $258 $372 forward 7 unknown #
face $-1 $373 $374 $39 $-1 $375 reversed single #
loop $-1 $-1 $376 $164 #
plane-surface $-1 -53.11685537278359 0 0 1 0 0 0 0 -1 forward_v I I I I #
coedge $-1 $377 $271 $378 $379 forward $165 $-1 #
coedge $-1 $380 $167 $377 $381 forward $105 $-1 #
coedge $-1 $167 $380 $382 $383 forward $105 $-1 #
coedge $-1 $274 $273 $167 $267 reversed $275 $-1 #
edge $-1 $384 -32.641569611862778 $385 32.641569611862778 $266 $386 forward 7 unknown #
coedge $-1 $169 $168 $387 $388 forward $66 $-1 #
coedge $-1 $389 $390 $168 $270 reversed $374 $-1 #
edge $-1 $277 -53.11685537278359 $391 53.11685537278359 $269 $392 forward 7 unknown #
coedge $-1 $263 $393 $169 $272 reversed $165 $-1 #
edge $-1 $394 -53.11685537278359 $276 53.11685537278359 $271 $395 forward 7 unknown #
coedge $-1 $266 $170 $393 $396 forward $275 $-1 #
coedge $-1 $170 $266 $389 $397 reversed $275 $-1 #
loop $-1 $-1 $273 $373 #
vertex $-1 $171 $398 #
vertex $-1 $171 $399 #
straight-curve $-1 53.11685537278359 0 7.8262264882863111 0 1 0 I I #
face $-1 $400 $401 $40 $-1 $402 reversed single #
loop $-1 $-1 $285 $172 #
plane-surface $-1 53.11685537278359 0 0 -1 0 0 0 0 1 forward_v I I I I #
coedge $-1 $403 $404 $283 $405 forward $173 $-1 #
coedge $-1 $406 $175 $282 $405 reversed $109 $-1 #
coedge $-1 $175 $406 $176 $288 reversed $109 $-1 #
coedge $-1 $178 $407 $175 $286 forward $280 $-1 #
edge $-1 $408 -4.6631132441431555 $292 -1.6631132441431555 $285 $409 forward 7 unknown #
coedge $-1 $177 $176 $410 $411 reversed $69 $-1 #
edge $-1 $292 -53.11685537278359 $412 53.11685537278359 $284 $413 forward 7 unknown #
coedge $-1 $414 $415 $177 $290 forward $401 $-1 #
edge $-1 $293 -53.11685537278359 $416 53.11685537278359 $289 $417 forward 7 unknown #
coedge $-1 $407 $178 $415 $418 forward $280 $-1 #
vertex $-1 $179 $419 #
vertex $-1 $418 $420 #
straight-curve $-1 53.11685537278359 -14.07693256135645 -4.8262264882863111 0 -1 0 I I #
face $-1 $-1 $307 $41 $-1 $421 forward single #
loop $-1 $-1 $422 $180 #
plane-surface $-1 53.11685537278359 0 0 -1 0 0 0 0 1 forward_v I I I I #
coedge $-1 $423 $424 $425 $426 reversed $181 $-1 #
coedge $-1 $427 $183 $185 $305 forward $113 $-1 #
coedge $-1 $183 $427 $423 $428 forward $113 $-1 #
coedge $-1 $425 $186 $183 $302 forward $307 $-1 #
edge $-1 $309 -5.9129199138507822 $429 0.37395625304092661 $301 $430 forward 7 unknown #
coedge $-1 $431 $432 $184 $304 forward $296 $-1 #
edge $-1 $433 -72.905209386379184 $308 -68.043620696982799 $303 $434 forward 7 unknown #
edge $-1 $309 100.1463422549696 $433 106.23371074556721 $185 $435 forward 7 unknown #
coedge $-1 $186 $425 $431 $436 forward $307 $-1 #
loop $-1 $-1 $425 $295 #
vertex $-1 $304 $437 #
vertex $-1 $187 $438 #
straight-curve $-1 37.01291403972985 8.68240174425571 7.8262264882863093 -1 0 0 I I #
coedge $-1 $311 $311 $-1 $439 reversed $190 $-1 #
edge $-1 $440 0 $440 6.2831853071796004 $191 $441 forward 7 unknown #
vertex $-1 $194 $442 #
ellipse-curve $-1 51.285120501448915 4.1917759107616348 5.3954321435881285 0.79863551827123203 0 0.60181501223851219 0.3009075061192561 0 -0.39931775913561601 1 I I #
coedge $-1 $315 $315 $-1 $443 reversed $197 $-1 #
edge $-1 $444 0 $444 6.2831853071796004 $198 $445 forward 7 unknown #
vertex $-1 $201 $446 #
ellipse-curve $-1 51.285120501448915 6.8861514108580835 5.3954321435881285 0.79863551827123203 0 0.60181501223851219 0.3009075061192561 0 -0.39931775913561601 1 I I #
face $-1 $-1 $447 $44 $-1 $448 reversed single #
loop $-1 $-1 $208 $202 #
plane-surface $-1 0 0 7.8262264882863111 0 0 1 1 0 0 forward_v I I I I #
coedge $-1 $449 $450 $451 $452 reversed $203 $-1 #
coedge $-1 $453 $205 $207 $329 forward $127 $-1 #
coedge $-1 $205 $453 $449 $454 forward $127 $-1 #
coedge $-1 $451 $208 $205 $326 forward $320 $-1 #
edge $-1 $332 -12.262548277293707 $455 -4.5077436597120961 $325 $456 forward 7 unknown #
coedge $-1 $457 $458 $206 $328 forward $447 $-1 #
edge $-1 $459 -25.403590924583906 $331 -18.27330608970351 $327 $460 forward 7 unknown #
edge $-1 $332 -8.1524400999819751 $459 2.9320188914700558e-014 $207 $461 forward 7 unknown #
coedge $-1 $208 $451 $457 $462 forward $320 $-1 #
vertex $-1 $328 $463 #
vertex $-1 $209 $464 #
straight-curve $-1 -73.015476581719497 -20.647694245796608 7.8262264882863093 1 0 0 I I #
coedge $-1 $334 $334 $-1 $465 reversed $212 $-1 #
edge $-1 $466 0 $466 6.2831853071796004 $213 $467 forward 7 unknown #
vertex $-1 $216 $468 #
ellipse-curve $-1 -51.140664734379158 -19.096733322280283 4.2610840708461231 -0.87461971476443456 0 0.48480960649040278 0.12120240162260069 0 0.21865492869110864 1 I I #
coedge $-1 $338 $338 $-1 $469 reversed $219 $-1 #
edge $-1 $470 0 $470 6.2831853071796004 $220 $471 forward 7 unknown #
vertex $-1 $223 $472 #
ellipse-curve $-1 -51.140664734379158 -16.770291937005801 4.2610840708461231 -0.87461971476443456 0 0.48480960649040278 0.12120240162260069 0 0.21865492869110864 1 I I #
coedge $-1 $342 $342 $-1 $473 reversed $226 $-1 #
edge $-1 $474 0 $474 6.2831853071796004 $227 $475 forward 7 unknown #
vertex $-1 $230 $476 #
ellipse-curve $-1 -51.140664734379158 -14.44385055173132 4.2610840708461231 -0.87461971476443456 0 0.48480960649040278 0.12120240162260069 0 0.21865492869110864 1 I I #
face $-1 $-1 $477 $48 $-1 $478 reversed single #
loop $-1 $-1 $237 $231 #
plane-surface $-1 0 0 7.8262264882863111 0 0 1 1 0 0 forward_v I I I I #
coedge $-1 $479 $480 $481 $482 reversed $232 $-1 #
coedge $-1 $483 $234 $236 $356 forward $146 $-1 #
coedge $-1 $234 $483 $479 $484 forward $146 $-1 #
coedge $-1 $481 $237 $234 $353 forward $347 $-1 #
edge $-1 $359 8.9954481488619749 $485 16.750252766443587 $352 $486 forward 7 unknown #
coedge $-1 $487 $488 $235 $355 forward $477 $-1 #
edge $-1 $489 -25.403590924583906 $358 -18.27330608970351 $354 $490 forward 7 unknown #
edge $-1 $359 -8.1524400999819751 $489 2.9320188914700558e-014 $236 $491 forward 7 unknown #
coedge $-1 $237 $481 $487 $492 forward $347 $-1 #
vertex $-1 $238 $493 #
vertex $-1 $238 $494 #
straight-curve $-1 -73.015476581719497 21.868298606514756 7.8262264882863093 1 0 0 I I #
coedge $-1 $361 $361 $-1 $495 reversed $241 $-1 #
edge $-1 $496 0 $496 6.2831853071796004 $242 $497 forward 7 unknown #
vertex $-1 $245 $498 #
ellipse-curve $-1 -51.140664734379158 23.419259530031084 4.2610840708461231 -0.87461971476443456 0 0.48480960649040278 0.12120240162260069 0 0.21865492869110864 1 I I #
coedge $-1 $365 $365 $-1 $499 reversed $248 $-1 #
edge $-1 $500 0 $500 6.2831853071796004 $249 $501 forward 7 unknown #
vertex $-1 $252 $502 #
ellipse-curve $-1 -51.140664734379158 25.745700915305562 4.2610840708461231 -0.87461971476443456 0 0.48480960649040278 0.12120240162260069 0 0.21865492869110864 1 I I #
coedge $-1 $369 $369 $-1 $503 reversed $255 $-1 #
edge $-1 $504 0 $504 6.2831853071796004 $256 $505 forward 7 unknown #
vertex $-1 $259 $506 #
ellipse-curve $-1 -51.140664734379158 28.07214230058004 4.2610840708461231 -0.87461971476443456 0 0.48480960649040278 0.12120240162260069 0 0.21865492869110864 1 I I #
face $-1 $-1 $275 $39 $-1 $507 reversed single #
loop $-1 $-1 $389 $260 #
plane-surface $-1 0 32.641569611862778 0 0 -1 0 0 0 -1 forward_v I I I I #
coedge $-1 $508 $387 $390 $509 forward $261 $-1 #
coedge $-1 $393 $263 $264 $381 reversed $165 $-1 #
coedge $-1 $387 $508 $263 $379 reversed $261 $-1 #
edge $-1 $394 -7.8262264882863111 $510 7.8262264882863111 $378 $511 forward 7 unknown #
coedge $-1 $265 $264 $508 $512 forward $105 $-1 #
edge $-1 $385 -53.11685537278359 $510 53.11685537278359 $377 $513 forward 7 unknown #
coedge $-1 $390 $389 $265 $383 reversed $374 $-1 #
edge $-1 $514 -53.11685537278359 $384 53.11685537278359 $382 $515 forward 7 unknown #
vertex $-1 $267 $516 #
vertex $-1 $396 $517 #
straight-curve $-1 53.11685537278359 0 -7.8262264882863111 0 -1 0 I I #
coedge $-1 $376 $378 $268 $388 reversed $261 $-1 #
edge $-1 $391 -32.641569611862778 $394 32.641569611862778 $387 $518 forward 7 unknown #
coedge $-1 $382 $269 $274 $397 forward $374 $-1 #
coedge $-1 $269 $382 $376 $509 reversed $374 $-1 #
vertex $-1 $270 $519 #
straight-curve $-1 0 32.641569611862778 7.8262264882863111 -1 0 0 I I #
coedge $-1 $271 $377 $273 $396 reversed $165 $-1 #
vertex $-1 $388 $520 #
straight-curve $-1 0 -32.641569611862778 7.8262264882863111 1 0 0 I I #
edge $-1 $276 -7.8262264882863111 $385 7.8262264882863111 $273 $521 forward 7 unknown #
edge $-1 $277 -7.8262264882863111 $384 7.8262264882863111 $274 $522 forward 7 unknown #
point $-1 53.11685537278359 -32.641569611862778 7.8262264882863111 #
point $-1 53.11685537278359 32.641569611862778 7.8262264882863111 #
face $-1 $-1 $523 $40 $-1 $524 reversed single #
loop $-1 $-1 $289 $279 #
plane-surface $-1 0 -32.641569611862778 0 0 1 0 0 0 1 forward_v I I I I #
coedge $-1 $525 $282 $407 $526 forward $173 $-1 #
coedge $-1 $282 $525 $527 $528 forward $173 $-1 #
edge $-1 $529 -53.11685537278359 $408 53.11685537278359 $282 $530 forward 7 unknown #
coedge $-1 $284 $283 $531 $532 reversed $109 $-1 #
coedge $-1 $285 $291 $403 $526 reversed $280 $-1 #
vertex $-1 $526 $533 #
straight-curve $-1 53.11685537278359 -23.666160633563024 -3.1631132441431555 0 0 1 I I #
coedge $-1 $531 $534 $287 $411 forward $523 $-1 #
edge $-1 $416 -18.564637050506327 $412 -9.5892280722065735 $410 $535 forward 7 unknown #
vertex $-1 $411 $536 #
straight-curve $-1 0 -23.666160633563024 -4.8262264882863111 -1 0 0 I I #
coedge $-1 $537 $289 $534 $538 forward $401 $-1 #
coedge $-1 $289 $537 $291 $418 reversed $401 $-1 #
vertex $-1 $538 $539 #
straight-curve $-1 0 -32.641569611862778 -4.8262264882863111 -1 0 0 I I #
edge $-1 $293 4.8262264882863111 $540 7.8262264882863111 $291 $541 forward 7 unknown #
point $-1 53.11685537278359 -23.666160633563024 -4.8262264882863111 #
point $-1 53.11685537278359 -32.641569611862778 -4.8262264882863111 #
plane-surface $-1 0 0 7.8262264882863111 0 0 1 1 0 0 forward_v I I I I #
coedge $-1 $432 $431 $424 $542 forward $296 $-1 #
coedge $-1 $424 $298 $300 $428 reversed $181 $-1 #
coedge $-1 $298 $423 $422 $542 reversed $181 $-1 #
coedge $-1 $306 $301 $298 $426 forward $307 $-1 #
edge $-1 $429 12.440471590384405 $543 16.10394133305374 $425 $544 forward 7 unknown #
coedge $-1 $300 $299 $432 $545 reversed $113 $-1 #
edge $-1 $546 -106.23371074556721 $429 -100.1463422549696 $423 $547 forward 7 unknown #
vertex $-1 $302 $548 #
straight-curve $-1 49.453385630114248 2.7694818304049278 7.8262264882863235 0 -1 0 I I #
coedge $-1 $422 $303 $306 $436 reversed $296 $-1 #
coedge $-1 $303 $422 $427 $545 forward $296 $-1 #
vertex $-1 $304 $549 #
straight-curve $-1 53.11685537278359 8.68240174425571 75.869847185269109 0 0 1 I I #
straight-curve $-1 -10.816186559702501 8.68240174425571 87.80665243805214 0.60181501223851219 0 -0.79863551827123203 I I #
edge $-1 $543 2.3955255773640012 $308 8.68240174425571 $431 $550 forward 7 unknown #
point $-1 53.11685537278359 8.68240174425571 7.8262264882863111 #
point $-1 49.453385630114255 8.68240174425571 7.8262264882863093 #
edge $-1 $551 1 $551 0 $311 $-1 forward 7 unknown #
vertex $-1 $312 $552 #
ellipse-curve $-1 50.435350081681278 4.1917759107616348 4.7550842203209562 0.79863551827123203 0 0.60181501223851219 0.3009075061192561 0 -0.39931775913561601 1 I I #
point $-1 51.586028007568181 4.1917759107616348 4.9961143844525226 #
edge $-1 $553 1 $553 0 $315 $-1 forward 7 unknown #
vertex $-1 $316 $554 #
ellipse-curve $-1 50.435350081681278 6.8861514108580835 4.7550842203209562 0.79863551827123203 0 0.60181501223851219 0.3009075061192561 0 -0.39931775913561601 1 I I #
point $-1 51.586028007568181 6.8861514108580835 4.9961143844525226 #
loop $-1 $-1 $327 $319 #
plane-surface $-1 -53.11685537278359 0 0 1 0 0 0 0 -1 forward_v I I I I #
coedge $-1 $450 $322 $324 $454 reversed $203 $-1 #
coedge $-1 $322 $449 $555 $556 reversed $203 $-1 #
coedge $-1 $330 $325 $322 $452 forward $320 $-1 #
edge $-1 $455 -23.851002485744765 $557 -19.898621208935907 $451 $558 forward 7 unknown #
coedge $-1 $324 $323 $458 $559 reversed $127 $-1 #
edge $-1 $560 -2.9320188914700558e-014 $455 8.1524400999819751 $449 $561 forward 7 unknown #
vertex $-1 $326 $562 #
straight-curve $-1 -49.164474095974739 -8.3851459685029006 7.826226488286312 0 1 0 I I #
coedge $-1 $555 $327 $330 $462 reversed $447 $-1 #
coedge $-1 $327 $555 $453 $559 forward $447 $-1 #
vertex $-1 $328 $563 #
straight-curve $-1 -53.11685537278359 -20.647694245796608 26.09953257798982 0 0 1 I I #
straight-curve $-1 -53.116855372783576 -20.647694245796608 0.69594165340593861 -0.48480960649040278 0 -0.87461971476443456 I I #
edge $-1 $557 12.892889628214997 $331 20.647694245796608 $457 $564 forward 7 unknown #
point $-1 -53.11685537278359 -20.647694245796608 7.8262264882863111 #
point $-1 -49.164474095974732 -20.647694245796608 7.8262264882863102 #
edge $-1 $565 1 $565 0 $334 $-1 forward 7 unknown #
vertex $-1 $335 $566 #
ellipse-curve $-1 -50.266045019614737 -19.096733322280283 3.776274464355728 -0.87461971476443456 0 0.48480960649040278 0.12120240162260069 0 0.21865492869110864 1 I I #
point $-1 -51.019462332756568 -19.096733322280283 4.4797389995372399 #
edge $-1 $567 1 $567 0 $338 $-1 forward 7 unknown #
vertex $-1 $339 $568 #
ellipse-curve $-1 -50.266045019614737 -16.770291937005801 3.776274464355728 -0.87461971476443456 0 0.48480960649040278 0.12120240162260069 0 0.21865492869110864 1 I I #
point $-1 -51.019462332756568 -16.770291937005801 4.4797389995372399 #
edge $-1 $569 1 $569 0 $342 $-1 forward 7 unknown #
vertex $-1 $343 $570 #
ellipse-curve $-1 -50.266045019614737 -14.44385055173132 3.776274464355728 -0.87461971476443456 0 0.48480960649040278 0.12120240162260069 0 0.21865492869110864 1 I I #
point $-1 -51.019462332756568 -14.44385055173132 4.4797389995372399 #
loop $-1 $-1 $354 $346 #
plane-surface $-1 -53.11685537278359 0 0 1 0 0 0 0 -1 forward_v I I I I #
coedge $-1 $480 $349 $351 $484 reversed $232 $-1 #
coedge $-1 $349 $479 $571 $572 reversed $232 $-1 #
coedge $-1 $357 $352 $349 $482 forward $347 $-1 #
edge $-1 $485 -23.851002485744765 $573 -19.898621208935907 $481 $574 forward 7 unknown #
coedge $-1 $351 $350 $488 $575 reversed $146 $-1 #
edge $-1 $576 -2.9320188914700558e-014 $485 8.1524400999819751 $479 $577 forward 7 unknown #
vertex $-1 $353 $578 #
straight-curve $-1 -49.164474095974739 12.872850457652781 7.826226488286312 0 1 0 I I #
coedge $-1 $571 $354 $357 $492 reversed $477 $-1 #
coedge $-1 $354 $571 $483 $575 forward $477 $-1 #
vertex $-1 $355 $579 #
straight-curve $-1 -53.11685537278359 21.868298606514756 26.09953257798982 0 0 1 I I #
straight-curve $-1 -53.116855372783576 21.868298606514756 0.69594165340593861 -0.48480960649040278 0 -0.87461971476443456 I I #
edge $-1 $573 -29.623103224096369 $358 -21.868298606514756 $487 $580 forward 7 unknown #
point $-1 -53.11685537278359 21.868298606514756 7.8262264882863111 #
point $-1 -49.164474095974732 21.868298606514756 7.8262264882863102 #
edge $-1 $581 1 $581 0 $361 $-1 forward 7 unknown #
vertex $-1 $362 $582 #
ellipse-curve $-1 -50.266045019614737 23.419259530031084 3.776274464355728 -0.87461971476443456 0 0.48480960649040278 0.12120240162260069 0 0.21865492869110864 1 I I #
point $-1 -51.019462332756568 23.419259530031084 4.4797389995372399 #
edge $-1 $583 1 $583 0 $365 $-1 forward 7 unknown #
vertex $-1 $366 $584 #
ellipse-curve $-1 -50.266045019614737 25.745700915305562 3.776274464355728 -0.87461971476443456 0 0.48480960649040278 0.12120240162260069 0 0.21865492869110864 1 I I #
point $-1 -51.019462332756568 25.745700915305562 4.4797389995372399 #
edge $-1 $585 1 $585 0 $369 $-1 forward 7 unknown #
vertex $-1 $370 $586 #
ellipse-curve $-1 -50.266045019614737 28.07214230058004 3.776274464355728 -0.87461971476443456 0 0.48480960649040278 0.12120240162260069 0 0.21865492869110864 1 I I #
point $-1 -51.019462332756568 28.07214230058004 4.4797389995372399 #
plane-surface $-1 53.11685537278359 0 0 -1 0 0 0 0 1 forward_v I I I I #
coedge $-1 $378 $376 $380 $512 reversed $261 $-1 #
edge $-1 $391 -7.8262264882863111 $514 7.8262264882863111 $390 $587 forward 7 unknown #
vertex $-1 $512 $588 #
straight-curve $-1 -53.11685537278359 -32.641569611862778 0 0 0 -1 I I #
edge $-1 $510 -32.641569611862778 $514 32.641569611862778 $508 $589 forward 7 unknown #
straight-curve $-1 0 -32.641569611862778 -7.8262264882863111 -1 0 0 I I #
vertex $-1 $383 $590 #
straight-curve $-1 0 32.641569611862778 -7.8262264882863111 1 0 0 I I #
point $-1 53.11685537278359 32.641569611862778 -7.8262264882863111 #
point $-1 53.11685537278359 -32.641569611862778 -7.8262264882863111 #
straight-curve $-1 -53.11685537278359 0 7.8262264882863111 0 -1 0 I I #
point $-1 -53.11685537278359 32.641569611862778 7.8262264882863111 #
point $-1 -53.11685537278359 -32.641569611862778 7.8262264882863111 #
straight-curve $-1 53.11685537278359 -32.641569611862778 0 0 0 -1 I I #
straight-curve $-1 53.11685537278359 32.641569611862778 0 0 0 -1 I I #
loop $-1 $-1 $531 $400 #
plane-surface $-1 -53.11685537278359 0 0 1 0 0 0 0 -1 forward_v I I I I #
coedge $-1 $404 $403 $537 $591 forward $173 $-1 #
edge $-1 $408 23.666160633563024 $540 32.641569611862778 $407 $592 forward 7 unknown #
coedge $-1 $534 $531 $404 $528 reversed $523 $-1 #
edge $-1 $593 -32.641569611862778 $529 -23.666160633563024 $527 $594 forward 7 unknown #
vertex $-1 $532 $595 #
straight-curve $-1 0 -23.666160633563024 -7.8262264882863111 1 0 0 I I #
coedge $-1 $527 $410 $406 $532 forward $523 $-1 #
edge $-1 $412 1.6631132441431555 $529 4.6631132441431555 $531 $596 forward 7 unknown #
point $-1 53.11685537278359 -23.666160633563024 -7.8262264882863111 #
coedge $-1 $410 $527 $414 $538 reversed $523 $-1 #
straight-curve $-1 -53.11685537278359 -14.07693256135645 -4.8262264882863111 0 1 0 I I #
point $-1 -53.11685537278359 -23.666160633563024 -4.8262264882863111 #
coedge $-1 $415 $414 $525 $591 reversed $401 $-1 #
edge $-1 $416 4.8262264882863111 $593 7.8262264882863111 $534 $597 forward 7 unknown #
point $-1 -53.11685537278359 -32.641569611862778 -4.8262264882863111 #
vertex $-1 $418 $598 #
straight-curve $-1 53.11685537278359 -32.641569611862778 0 0 0 -1 I I #
edge $-1 $543 68.043620696982799 $546 72.905209386379184 $422 $599 forward 7 unknown #
vertex $-1 $436 $600 #
straight-curve $-1 37.01291403972985 2.3955255773640012 7.8262264882863093 1 0 0 I I #
edge $-1 $546 -0.37395625304092661 $433 5.9129199138507822 $432 $601 forward 7 unknown #
vertex $-1 $545 $602 #
straight-curve $-1 -10.816186559702501 2.3955255773640012 87.80665243805214 -0.60181501223851219 0 0.79863551827123203 I I #
point $-1 49.453385630114255 2.3955255773640012 7.8262264882863093 #
point $-1 53.11685537278359 8.68240174425571 2.9646377988899246 #
straight-curve $-1 53.11685537278359 0 7.8262264882863111 0 1 0 I I #
vertex $-1 $439 $603 #
point $-1 50.736257587800537 4.1917759107616348 4.3557664611853406 #
vertex $-1 $443 $604 #
point $-1 50.736257587800537 6.8861514108580835 4.3557664611853406 #
coedge $-1 $458 $457 $450 $556 forward $447 $-1 #
edge $-1 $557 18.27330608970351 $560 25.403590924583906 $555 $605 forward 7 unknown #
vertex $-1 $462 $606 #
straight-curve $-1 -73.015476581719497 -12.892889628214997 7.8262264882863093 -1 0 0 I I #
edge $-1 $560 4.5077436597120961 $459 12.262548277293707 $458 $607 forward 7 unknown #
vertex $-1 $559 $608 #
straight-curve $-1 -53.116855372783576 -12.892889628214997 0.69594165340593861 0.48480960649040278 0 0.87461971476443456 I I #
point $-1 -49.164474095974732 -12.892889628214997 7.8262264882863102 #
point $-1 -53.11685537278359 -20.647694245796608 0.69594165340591296 #
straight-curve $-1 -53.11685537278359 0 7.8262264882863111 0 -1 0 I I #
vertex $-1 $465 $609 #
point $-1 -50.144842617992133 -19.096733322280283 3.9949293930468368 #
vertex $-1 $469 $610 #
point $-1 -50.144842617992133 -16.770291937005801 3.9949293930468368 #
vertex $-1 $473 $611 #
point $-1 -50.144842617992133 -14.44385055173132 3.9949293930468368 #
coedge $-1 $488 $487 $480 $572 forward $477 $-1 #
edge $-1 $573 18.27330608970351 $576 25.403590924583906 $571 $612 forward 7 unknown #
vertex $-1 $492 $613 #
straight-curve $-1 -73.015476581719497 29.623103224096369 7.8262264882863093 -1 0 0 I I #
edge $-1 $576 -16.750252766443587 $489 -8.9954481488619749 $488 $614 forward 7 unknown #
vertex $-1 $575 $615 #
straight-curve $-1 -53.116855372783576 29.623103224096369 0.69594165340593861 0.48480960649040278 0 0.87461971476443456 I I #
point $-1 -49.164474095974732 29.623103224096369 7.8262264882863102 #
point $-1 -53.11685537278359 21.868298606514756 0.69594165340591296 #
straight-curve $-1 -53.11685537278359 0 7.8262264882863111 0 -1 0 I I #
vertex $-1 $495 $616 #
point $-1 -50.144842617992133 23.419259530031084 3.9949293930468368 #
vertex $-1 $499 $617 #
point $-1 -50.144842617992133 25.745700915305562 3.9949293930468368 #
vertex $-1 $503 $618 #
point $-1 -50.144842617992133 28.07214230058004 3.9949293930468368 #
straight-curve $-1 -53.11685537278359 32.641569611862778 0 0 0 -1 I I #
point $-1 -53.11685537278359 -32.641569611862778 -7.8262264882863111 #
straight-curve $-1 -53.11685537278359 0 -7.8262264882863111 0 1 0 I I #
point $-1 -53.11685537278359 32.641569611862778 -7.8262264882863111 #
edge $-1 $540 -53.11685537278359 $593 53.11685537278359 $537 $619 forward 7 unknown #
straight-curve $-1 53.11685537278359 0 -7.8262264882863111 0 -1 0 I I #
vertex $-1 $528 $620 #
straight-curve $-1 -53.11685537278359 0 -7.8262264882863111 0 1 0 I I #
point $-1 -53.11685537278359 -23.666160633563024 -7.8262264882863111 #
straight-curve $-1 -53.11685537278359 -23.666160633563024 -3.1631132441431555 0 0 -1 I I #
straight-curve $-1 -53.11685537278359 -32.641569611862778 0 0 0 -1 I I #
point $-1 53.11685537278359 -32.641569611862778 -7.8262264882863111 #
straight-curve $-1 53.11685537278359 2.3955255773640012 75.869847185269109 0 0 -1 I I #
point $-1 53.11685537278359 2.3955255773640012 7.8262264882863111 #
straight-curve $-1 53.11685537278359 2.7694818304049278 2.9646377988899246 0 1 0 I I #
point $-1 53.11685537278359 2.3955255773640012 2.9646377988899246 #
point $-1 50.036032322545665 4.1917759107616348 4.4541767142017008 #
point $-1 50.036032322545665 6.8861514108580835 4.4541767142017008 #
straight-curve $-1 -53.11685537278359 -12.892889628214997 26.09953257798982 0 0 -1 I I #
point $-1 -53.11685537278359 -12.892889628214997 7.8262264882863111 #
straight-curve $-1 -53.11685537278359 -8.3851459685029006 0.6959416534059174 0 -1 0 I I #
point $-1 -53.11685537278359 -12.892889628214997 0.69594165340591296 #
point $-1 -50.047390090923628 -19.096733322280283 3.6550720627331277 #
point $-1 -50.047390090923628 -16.770291937005801 3.6550720627331277 #
point $-1 -50.047390090923628 -14.44385055173132 3.6550720627331277 #
straight-curve $-1 -53.11685537278359 29.623103224096369 26.09953257798982 0 0 -1 I I #
point $-1 -53.11685537278359 29.623103224096369 7.8262264882863111 #
straight-curve $-1 -53.11685537278359 12.872850457652781 0.6959416534059174 0 -1 0 I I #
point $-1 -53.11685537278359 29.623103224096369 0.69594165340591296 #
point $-1 -50.047390090923628 23.419259530031084 3.6550720627331277 #
point $-1 -50.047390090923628 25.745700915305562 3.6550720627331277 #
point $-1 -50.047390090923628 28.07214230058004 3.6550720627331277 #
straight-curve $-1 0 -32.641569611862778 -7.8262264882863111 -1 0 0 I I #
point $-1 -53.11685537278359 -32.641569611862778 -7.8262264882863111 #
End-of-ACIS-data 