500 0 9 0           
7 Unknown 11 ACIS 5.0 NT 24 Thu Mar 25 23:38:04 1999 
-1 9.9999999999999995e-007 1e-010 
body $-1 $9 $-1 $10 #
body $-1 $11 $-1 $12 #
body $-1 $13 $-1 $14 #
body $-1 $15 $-1 $16 #
body $-1 $17 $-1 $18 #
body $-1 $19 $-1 $20 #
body $-1 $21 $-1 $22 #
body $-1 $23 $-1 $24 #
body $-1 $25 $-1 $26 #
lump $-1 $-1 $27 $0 #
transform $-1 1 0 0 0 1 0 0 0 1 64.204840235602887 44.596567988473097 13.994560096581187 1 rotate no_reflect no_shear #
lump $-1 $-1 $28 $1 #
transform $-1 1 0 0 0 1 0 0 0 1 64.204840235602887 44.596567988473097 13.994560096581187 1 rotate no_reflect no_shear #
lump $-1 $-1 $29 $2 #
transform $-1 1 0 0 0 1 0 0 0 1 64.204840235602887 44.596567988473097 13.994560096581187 1 rotate no_reflect no_shear #
lump $-1 $-1 $30 $3 #
transform $-1 1 0 0 0 1 0 0 0 1 64.204840235602887 44.596567988473097 13.994560096581187 1 rotate no_reflect no_shear #
lump $-1 $-1 $31 $4 #
transform $-1 1 0 0 0 1 0 0 0 1 64.204840235602887 44.596567988473097 13.994560096581187 1 rotate no_reflect no_shear #
lump $-1 $-1 $32 $5 #
transform $-1 1 0 0 0 1 0 0 0 1 64.204840235602887 44.596567988473097 13.994560096581187 1 rotate no_reflect no_shear #
lump $-1 $-1 $33 $6 #
transform $-1 1 0 0 0 1 0 0 0 1 64.204840235602887 44.596567988473097 13.994560096581187 1 rotate no_reflect no_shear #
lump $-1 $-1 $34 $7 #
transform $-1 1 0 0 0 1 0 0 0 1 64.204840235602887 44.596567988473097 13.994560096581187 1 rotate no_reflect no_shear #
lump $-1 $-1 $35 $8 #
transform $-1 1 0 0 0 1 0 0 0 1 64.204840235602887 44.596567988473097 13.994560096581187 1 rotate no_reflect no_shear #
shell $-1 $-1 $-1 $36 $-1 $9 #
shell $-1 $-1 $-1 $37 $-1 $11 #
shell $-1 $-1 $-1 $38 $-1 $13 #
shell $-1 $-1 $-1 $39 $-1 $15 #
shell $-1 $-1 $-1 $40 $-1 $17 #
shell $-1 $-1 $-1 $41 $-1 $19 #
shell $-1 $-1 $-1 $42 $-1 $21 #
shell $-1 $-1 $-1 $43 $-1 $23 #
shell $-1 $-1 $-1 $44 $-1 $25 #
face $-1 $45 $46 $27 $-1 $47 forward single #
face $-1 $48 $49 $28 $-1 $50 forward single #
face $-1 $51 $52 $29 $-1 $53 reversed single #
face $-1 $54 $55 $30 $-1 $56 forward single #
face $-1 $57 $58 $31 $-1 $59 forward single #
face $-1 $60 $61 $32 $-1 $62 forward single #
face $-1 $63 $64 $33 $-1 $65 reversed single #
face $-1 $66 $67 $34 $-1 $68 forward single #
face $-1 $69 $70 $35 $-1 $71 forward single #
face $-1 $72 $73 $27 $-1 $74 reversed single #
loop $-1 $-1 $75 $36 #
plane-surface $-1 0 0 13.994560096581187 0 0 1 1 0 0 forward_v I I I I #
face $-1 $76 $77 $28 $-1 $78 reversed single #
loop $-1 $-1 $79 $37 #
plane-surface $-1 -56.461133821297892 0 6.8769772920468553 0 0 1 1 0 0 forward_v I I I I #
face $-1 $80 $81 $29 $-1 $82 reversed single #
loop $-1 $-1 $83 $38 #
plane-surface $-1 41.563524088714559 -112.64333228267708 119.10363125855253 1 0 0 0 0.52991927123019833 -0.84804809178421925 forward_v I I I I #
face $-1 $84 $85 $30 $-1 $86 forward single #
loop $-1 $87 $88 $39 #
cone-surface $-1 46.09178731809223 -40.878583338680798 11.00160921057207 0 0.52991927123019833 -0.84804809178421925 1.5 0 0 1 I I 0 1 1.5 forward I I I I #
face $-1 $89 $90 $31 $-1 $91 forward single #
loop $-1 $92 $93 $40 #
cone-surface $-1 52.884182162158723 -40.878583338680798 11.00160921057207 0 0.52991927123019833 -0.84804809178421925 1.5 0 0 1 I I 0 1 1.5 forward I I I I #
face $-1 $94 $95 $32 $-1 $96 forward single #
loop $-1 $97 $98 $41 #
cone-surface $-1 59.676577006225216 -40.878583338680798 11.00160921057207 0 0.52991927123019833 -0.84804809178421925 1.5 0 0 1 I I 0 1 1.5 forward I I I I #
face $-1 $99 $100 $33 $-1 $101 reversed single #
loop $-1 $-1 $102 $42 #
plane-surface $-1 -42.222600628862054 113.66451694056302 148.88361132771055 1 0 0 0 -0.87461971476443456 -0.48480960649040278 forward_v I I I I #
face $-1 $103 $104 $34 $-1 $105 forward single #
loop $-1 $106 $107 $43 #
cone-surface $-1 -36.776491045108692 42.003203013690424 10.695197974867439 0 -0.87461971476443456 -0.48480960649040278 1 0 0 1 I I 0 1 1 forward I I I I #
face $-1 $108 $109 $35 $-1 $110 forward single #
loop $-1 $111 $112 $44 #
cone-surface $-1 -28.60732666947866 42.003203013690424 10.695197974867439 0 -0.87461971476443456 -0.48480960649040278 1 0 0 1 I I 0 1 1 forward I I I I #
face $-1 $113 $114 $27 $-1 $115 reversed single #
loop $-1 $-1 $116 $45 #
plane-surface $-1 0 0 -13.994560096581187 0 0 1 1 0 0 forward_v I I I I #
coedge $-1 $117 $118 $119 $120 forward $46 $-1 #
face $-1 $121 $122 $28 $-1 $123 reversed single #
loop $-1 $-1 $124 $48 #
plane-surface $-1 -56.461133821297892 0 1.4126625611383483 0 0 1 1 0 0 forward_v I I I I #
coedge $-1 $125 $126 $127 $128 forward $49 $-1 #
face $-1 $129 $130 $29 $-1 $131 forward single #
loop $-1 $-1 $132 $51 #
plane-surface $-1 52.884182162158723 -44.596567988473083 10.206046768325137 0 -0.52991927123019833 0.84804809178421925 1 0 0 forward_v I I I I #
coedge $-1 $133 $134 $135 $136 reversed $52 $-1 #
face $-1 $-1 $137 $30 $-1 $138 forward single #
loop $-1 $139 $140 $54 #
cone-surface $-1 46.09178731809223 -39.794603526280255 9.2668789198528128 0 0.52991927123019833 -0.84804809178421925 0.75 0 0 1 I I -0.70710678118654757 0.70710678118654757 0.75 forward I I I I #
loop $-1 $-1 $141 $39 #
coedge $-1 $88 $88 $142 $143 reversed $55 $-1 #
face $-1 $-1 $144 $31 $-1 $145 forward single #
loop $-1 $146 $147 $57 #
cone-surface $-1 52.884182162158723 -39.794603526280255 9.2668789198528128 0 0.52991927123019833 -0.84804809178421925 0.75 0 0 1 I I -0.70710678118654757 0.70710678118654757 0.75 forward I I I I #
loop $-1 $-1 $148 $40 #
coedge $-1 $93 $93 $149 $150 reversed $58 $-1 #
face $-1 $-1 $151 $32 $-1 $152 forward single #
loop $-1 $153 $154 $60 #
cone-surface $-1 59.676577006225216 -39.794603526280255 9.2668789198528128 0 0.52991927123019833 -0.84804809178421925 0.75 0 0 1 I I -0.70710678118654757 0.70710678118654757 0.75 forward I I I I #
loop $-1 $-1 $155 $41 #
coedge $-1 $98 $98 $156 $157 reversed $61 $-1 #
face $-1 $158 $159 $33 $-1 $160 reversed single #
loop $-1 $-1 $161 $63 #
plane-surface $-1 -32.691908857293683 1.3548788338448361 86.629364668906931 0 0.87461971476443456 0.48480960649040278 1 0 0 forward_v I I I I #
coedge $-1 $162 $163 $164 $165 reversed $64 $-1 #
face $-1 $-1 $166 $34 $-1 $167 forward single #
loop $-1 $168 $169 $66 #
cone-surface $-1 -36.776491045108692 40.462308693069716 9.8410663372966756 0 -0.87461971476443456 -0.48480960649040278 0.5 0 0 1 I I -0.70710678118654746 0.70710678118654746 0.5 forward I I I I #
loop $-1 $-1 $170 $43 #
coedge $-1 $107 $107 $171 $172 reversed $67 $-1 #
face $-1 $-1 $173 $35 $-1 $174 forward single #
loop $-1 $175 $176 $69 #
cone-surface $-1 -28.60732666947866 40.462308693069716 9.8410663372966756 0 -0.87461971476443456 -0.48480960649040278 0.5 0 0 1 I I -0.70710678118654746 0.70710678118654746 0.5 forward I I I I #
loop $-1 $-1 $177 $44 #
coedge $-1 $112 $112 $178 $179 reversed $70 $-1 #
face $-1 $180 $181 $27 $-1 $182 reversed single #
loop $-1 $-1 $183 $72 #
plane-surface $-1 0 -44.596567988473097 0 0 1 0 0 0 1 forward_v I I I I #
coedge $-1 $184 $185 $186 $187 forward $73 $-1 #
coedge $-1 $188 $75 $189 $190 forward $46 $-1 #
coedge $-1 $75 $188 $191 $192 forward $46 $-1 #
coedge $-1 $193 $194 $75 $120 reversed $195 $-1 #
edge $-1 $196 -44.596567988473097 $197 44.596567988473097 $119 $198 forward 7 unknown #
face $-1 $199 $200 $28 $-1 $201 reversed single #
loop $-1 $-1 $202 $76 #
plane-surface $-1 -48.717427406992897 0 4.1448199265926018 -1 0 0 0 0 1 forward_v I I I I #
coedge $-1 $203 $204 $205 $206 forward $77 $-1 #
coedge $-1 $207 $79 $208 $209 reversed $49 $-1 #
coedge $-1 $79 $207 $210 $211 reversed $49 $-1 #
coedge $-1 $202 $212 $79 $128 reversed $122 $-1 #
edge $-1 $213 -44.596567988473097 $214 44.596567988473097 $127 $215 forward 7 unknown #
face $-1 $216 $217 $29 $-1 $218 reversed single #
loop $-1 $-1 $219 $80 #
plane-surface $-1 0 0 13.994560096581187 0 0 1 1 0 0 forward_v I I I I #
coedge $-1 $220 $221 $222 $223 reversed $81 $-1 #
coedge $-1 $134 $83 $224 $225 reversed $52 $-1 #
coedge $-1 $83 $133 $220 $226 reversed $52 $-1 #
coedge $-1 $222 $227 $83 $136 forward $217 $-1 #
edge $-1 $228 45.557255532695073 $229 49.345768860951132 $135 $230 forward 7 unknown #
loop $-1 $-1 $142 $84 #
plane-surface $-1 52.884182162158723 -44.596567988473083 10.206046768325137 0 -0.52991927123019833 0.84804809178421925 1 0 0 forward_v I I I I #
loop $-1 $-1 $231 $54 #
coedge $-1 $140 $140 $141 $232 reversed $85 $-1 #
coedge $-1 $141 $141 $140 $232 forward $87 $-1 #
coedge $-1 $142 $142 $88 $143 forward $137 $-1 #
edge $-1 $233 -2.1345112977237594e-015 $233 6.2831853071795987 $142 $234 forward 7 unknown #
loop $-1 $-1 $149 $89 #
plane-surface $-1 52.884182162158723 -44.596567988473083 10.206046768325137 0 -0.52991927123019833 0.84804809178421925 1 0 0 forward_v I I I I #
loop $-1 $-1 $235 $57 #
coedge $-1 $147 $147 $148 $236 reversed $90 $-1 #
coedge $-1 $148 $148 $147 $236 forward $92 $-1 #
coedge $-1 $149 $149 $93 $150 forward $144 $-1 #
edge $-1 $237 -2.1345112977237594e-015 $237 6.2831853071795987 $149 $238 forward 7 unknown #
loop $-1 $-1 $156 $94 #
plane-surface $-1 52.884182162158723 -44.596567988473083 10.206046768325137 0 -0.52991927123019833 0.84804809178421925 1 0 0 forward_v I I I I #
loop $-1 $-1 $239 $60 #
coedge $-1 $154 $154 $155 $240 reversed $95 $-1 #
coedge $-1 $155 $155 $154 $240 forward $97 $-1 #
coedge $-1 $156 $156 $98 $157 forward $151 $-1 #
edge $-1 $241 -2.1345112977237594e-015 $241 6.2831853071795987 $156 $242 forward 7 unknown #
face $-1 $243 $244 $33 $-1 $245 reversed single #
loop $-1 $-1 $246 $99 #
plane-surface $-1 -23.161217085725315 113.66451694056302 148.88361132771055 -1 0 0 0 0.87461971476443456 0.48480960649040278 forward_v I I I I #
coedge $-1 $247 $248 $249 $250 reversed $100 $-1 #
coedge $-1 $163 $102 $251 $252 reversed $64 $-1 #
coedge $-1 $102 $162 $247 $253 reversed $64 $-1 #
coedge $-1 $249 $254 $102 $165 forward $255 $-1 #
edge $-1 $256 12.235690481808412 $257 15.215251504896763 $164 $258 forward 7 unknown #
loop $-1 $-1 $171 $103 #
plane-surface $-1 -32.691908857293683 1.3548788338448361 86.629364668906931 0 0.87461971476443456 0.48480960649040278 1 0 0 forward_v I I I I #
loop $-1 $-1 $259 $66 #
coedge $-1 $169 $169 $170 $260 reversed $104 $-1 #
coedge $-1 $170 $170 $169 $260 forward $106 $-1 #
coedge $-1 $171 $171 $107 $172 forward $166 $-1 #
edge $-1 $261 -6.7501203358497052e-016 $261 6.2831853071795996 $171 $262 forward 7 unknown #
loop $-1 $-1 $178 $108 #
plane-surface $-1 -32.691908857293683 1.3548788338448361 86.629364668906931 0 0.87461971476443456 0.48480960649040278 1 0 0 forward_v I I I I #
loop $-1 $-1 $263 $69 #
coedge $-1 $176 $176 $177 $264 reversed $109 $-1 #
coedge $-1 $177 $177 $176 $264 forward $111 $-1 #
coedge $-1 $178 $178 $112 $179 forward $173 $-1 #
edge $-1 $265 -6.7501203358497052e-016 $265 6.2831853071795996 $178 $266 forward 7 unknown #
face $-1 $267 $268 $27 $-1 $269 reversed single #
loop $-1 $-1 $270 $113 #
plane-surface $-1 -64.204840235602887 0 0 1 0 0 0 0 -1 forward_v I I I I #
coedge $-1 $271 $191 $272 $273 forward $114 $-1 #
coedge $-1 $274 $116 $271 $275 forward $73 $-1 #
coedge $-1 $116 $274 $276 $277 forward $73 $-1 #
coedge $-1 $194 $193 $116 $187 reversed $195 $-1 #
edge $-1 $278 -44.596567988473097 $279 44.596567988473097 $186 $280 forward 7 unknown #
coedge $-1 $118 $117 $281 $282 forward $46 $-1 #
coedge $-1 $283 $284 $117 $190 reversed $268 $-1 #
edge $-1 $197 -64.204840235602887 $285 64.204840235602887 $189 $286 forward 7 unknown #
coedge $-1 $183 $287 $118 $192 reversed $114 $-1 #
edge $-1 $288 -64.204840235602887 $196 64.204840235602887 $191 $289 forward 7 unknown #
coedge $-1 $186 $119 $287 $290 forward $195 $-1 #
coedge $-1 $119 $186 $283 $291 reversed $195 $-1 #
loop $-1 $-1 $193 $267 #
vertex $-1 $120 $292 #
vertex $-1 $120 $293 #
straight-curve $-1 64.204840235602887 0 13.994560096581187 0 1 0 I I #
face $-1 $294 $295 $28 $-1 $296 reversed single #
loop $-1 $-1 $297 $121 #
plane-surface $-1 0 -44.596567988473097 0 0 1 0 0 0 1 forward_v I I I I #
coedge $-1 $205 $127 $298 $299 reversed $122 $-1 #
coedge $-1 $300 $124 $297 $301 reversed $77 $-1 #
coedge $-1 $124 $300 $302 $303 reversed $77 $-1 #
coedge $-1 $212 $202 $124 $206 reversed $122 $-1 #
edge $-1 $304 -44.596567988473097 $305 44.596567988473097 $205 $306 forward 7 unknown #
coedge $-1 $126 $125 $307 $308 reversed $49 $-1 #
coedge $-1 $309 $310 $125 $209 forward $311 $-1 #
edge $-1 $312 -35.974273324953941 $214 -20.486860496343951 $208 $313 forward 7 unknown #
coedge $-1 $314 $298 $126 $211 forward $200 $-1 #
edge $-1 $213 20.486860496343951 $315 35.974273324953941 $210 $316 forward 7 unknown #
coedge $-1 $127 $205 $309 $317 reversed $122 $-1 #
vertex $-1 $211 $318 #
vertex $-1 $209 $319 #
straight-curve $-1 -48.717427406992897 0 6.8769772920468553 0 1 0 I I #
face $-1 $-1 $320 $29 $-1 $321 reversed single #
loop $-1 $-1 $135 $129 #
plane-surface $-1 0 -44.596567988473097 0 0 1 0 0 0 1 forward_v I I I I #
coedge $-1 $224 $322 $323 $324 forward $130 $-1 #
coedge $-1 $323 $132 $134 $226 forward $81 $-1 #
coedge $-1 $132 $323 $325 $326 reversed $81 $-1 #
coedge $-1 $327 $135 $132 $223 forward $217 $-1 #
edge $-1 $229 15.121433007635197 $328 37.762749154523526 $222 $329 forward 7 unknown #
coedge $-1 $330 $219 $133 $225 forward $130 $-1 #
edge $-1 $331 -17.787986734494254 $228 -11.725098152865442 $224 $332 forward 7 unknown #
edge $-1 $229 -1.675811683274863e-014 $331 7.149227314305973 $134 $333 forward 7 unknown #
coedge $-1 $135 $327 $330 $334 reversed $217 $-1 #
vertex $-1 $334 $335 #
vertex $-1 $136 $336 #
straight-curve $-1 41.563524088714559 -44.596567988473097 59.551815629276263 0 0 -1 I I #
coedge $-1 $231 $231 $-1 $337 reversed $139 $-1 #
edge $-1 $338 0 $338 6.2831853071796004 $140 $339 forward 7 unknown #
vertex $-1 $143 $340 #
ellipse-curve $-1 46.09178731809223 -41.565123697658692 12.100303432453158 0 -0.52991927123019833 0.84804809178421925 1.5 0 0 1 I I #
coedge $-1 $235 $235 $-1 $341 reversed $146 $-1 #
edge $-1 $342 0 $342 6.2831853071796004 $147 $343 forward 7 unknown #
vertex $-1 $150 $344 #
ellipse-curve $-1 52.884182162158723 -41.565123697658692 12.100303432453158 0 -0.52991927123019833 0.84804809178421925 1.5 0 0 1 I I #
coedge $-1 $239 $239 $-1 $345 reversed $153 $-1 #
edge $-1 $346 0 $346 6.2831853071796004 $154 $347 forward 7 unknown #
vertex $-1 $157 $348 #
ellipse-curve $-1 59.676577006225216 -41.565123697658692 12.100303432453158 0 -0.52991927123019833 0.84804809178421925 1.5 0 0 1 I I #
face $-1 $-1 $255 $33 $-1 $349 forward single #
loop $-1 $-1 $350 $158 #
plane-surface $-1 0 44.596567988473097 0 0 -1 0 0 0 -1 forward_v I I I I #
coedge $-1 $351 $352 $353 $354 reversed $159 $-1 #
coedge $-1 $355 $161 $163 $253 forward $100 $-1 #
coedge $-1 $161 $355 $351 $356 forward $100 $-1 #
coedge $-1 $353 $164 $161 $250 forward $255 $-1 #
edge $-1 $257 -25.876646200215212 $357 -6.815262657078474 $249 $358 forward 7 unknown #
coedge $-1 $359 $360 $162 $252 forward $244 $-1 #
edge $-1 $361 -65.822516142050446 $256 -60.447245567274088 $251 $362 forward 7 unknown #
edge $-1 $257 83.047298552936041 $361 89.193135976946195 $163 $363 forward 7 unknown #
coedge $-1 $164 $353 $359 $364 forward $255 $-1 #
loop $-1 $-1 $353 $243 #
vertex $-1 $252 $365 #
vertex $-1 $165 $366 #
straight-curve $-1 -42.222600628862054 56.832258470281509 13.994560096581182 0 -1 0 I I #
coedge $-1 $259 $259 $-1 $367 reversed $168 $-1 #
edge $-1 $368 0 $368 6.2831853071796004 $169 $369 forward 7 unknown #
vertex $-1 $172 $370 #
ellipse-curve $-1 -36.776491045108692 43.106787476928922 11.306924809193008 0 0.87461971476443456 0.48480960649040278 1 0 0 1 I I #
coedge $-1 $263 $263 $-1 $371 reversed $175 $-1 #
edge $-1 $372 0 $372 6.2831853071796004 $176 $373 forward 7 unknown #
vertex $-1 $179 $374 #
ellipse-curve $-1 -28.60732666947866 43.106787476928922 11.306924809193008 0 0.87461971476443456 0.48480960649040278 1 0 0 1 I I #
face $-1 $-1 $195 $27 $-1 $375 reversed single #
loop $-1 $-1 $283 $180 #
plane-surface $-1 0 44.596567988473097 0 0 -1 0 0 0 -1 forward_v I I I I #
coedge $-1 $376 $281 $284 $377 forward $181 $-1 #
coedge $-1 $287 $183 $184 $275 reversed $114 $-1 #
coedge $-1 $281 $376 $183 $273 reversed $181 $-1 #
edge $-1 $288 -13.994560096581187 $378 13.994560096581187 $272 $379 forward 7 unknown #
coedge $-1 $185 $184 $376 $380 forward $73 $-1 #
edge $-1 $279 -64.204840235602887 $378 64.204840235602887 $271 $381 forward 7 unknown #
coedge $-1 $284 $283 $185 $277 reversed $268 $-1 #
edge $-1 $382 -64.204840235602887 $278 64.204840235602887 $276 $383 forward 7 unknown #
vertex $-1 $187 $384 #
vertex $-1 $290 $385 #
straight-curve $-1 64.204840235602887 0 -13.994560096581187 0 -1 0 I I #
coedge $-1 $270 $272 $188 $282 reversed $181 $-1 #
edge $-1 $285 -44.596567988473097 $288 44.596567988473097 $281 $386 forward 7 unknown #
coedge $-1 $276 $189 $194 $291 forward $268 $-1 #
coedge $-1 $189 $276 $270 $377 reversed $268 $-1 #
vertex $-1 $190 $387 #
straight-curve $-1 0 44.596567988473097 13.994560096581187 -1 0 0 I I #
coedge $-1 $191 $271 $193 $290 reversed $114 $-1 #
vertex $-1 $282 $388 #
straight-curve $-1 0 -44.596567988473097 13.994560096581187 1 0 0 I I #
edge $-1 $196 -13.994560096581187 $279 13.994560096581187 $193 $389 forward 7 unknown #
edge $-1 $197 -13.994560096581187 $278 13.994560096581187 $194 $390 forward 7 unknown #
point $-1 64.204840235602887 -44.596567988473097 13.994560096581187 #
point $-1 64.204840235602887 44.596567988473097 13.994560096581187 #
face $-1 $-1 $311 $28 $-1 $391 reversed single #
loop $-1 $-1 $392 $199 #
plane-surface $-1 -64.204840235602887 0 0 1 0 0 0 0 -1 forward_v I I I I #
coedge $-1 $298 $314 $203 $301 forward $200 $-1 #
coedge $-1 $210 $297 $202 $299 forward $200 $-1 #
edge $-1 $305 -0.65974740215795258 $213 4.8045673287505544 $298 $393 forward 7 unknown #
coedge $-1 $204 $203 $392 $394 reversed $77 $-1 #
edge $-1 $395 -35.974273324953941 $305 -20.486860496343951 $297 $396 forward 7 unknown #
coedge $-1 $310 $309 $204 $303 forward $311 $-1 #
edge $-1 $304 20.486860496343951 $397 35.974273324953941 $302 $398 forward 7 unknown #
vertex $-1 $303 $399 #
vertex $-1 $301 $400 #
straight-curve $-1 -48.717427406992897 0 1.4126625611383483 0 -1 0 I I #
coedge $-1 $401 $402 $207 $308 forward $295 $-1 #
edge $-1 $315 -44.596567988473097 $312 44.596567988473097 $307 $403 forward 7 unknown #
coedge $-1 $302 $208 $212 $317 forward $311 $-1 #
coedge $-1 $208 $302 $401 $404 reversed $311 $-1 #
loop $-1 $-1 $302 $294 #
vertex $-1 $404 $405 #
straight-curve $-1 -28.230566910648946 44.596567988473097 6.8769772920468553 1 0 0 I I #
coedge $-1 $297 $210 $402 $406 forward $200 $-1 #
vertex $-1 $406 $407 #
straight-curve $-1 -28.230566910648946 -44.596567988473097 6.8769772920468553 -1 0 0 I I #
edge $-1 $214 -4.8045673287505544 $304 0.65974740215795258 $309 $408 forward 7 unknown #
point $-1 -48.717427406992897 -44.596567988473097 6.8769772920468553 #
point $-1 -48.717427406992897 44.596567988473097 6.8769772920468553 #
loop $-1 $-1 $325 $216 #
plane-surface $-1 64.204840235602887 0 0 -1 0 0 0 0 1 forward_v I I I I #
coedge $-1 $219 $330 $409 $410 forward $130 $-1 #
coedge $-1 $221 $220 $219 $324 reversed $81 $-1 #
edge $-1 $411 -37.762749154523526 $331 -15.121433007635197 $219 $412 forward 7 unknown #
coedge $-1 $409 $413 $221 $326 forward $320 $-1 #
edge $-1 $328 -16.205826758568826 $411 -9.0565994442628366 $325 $414 forward 7 unknown #
coedge $-1 $227 $222 $413 $415 reversed $217 $-1 #
vertex $-1 $223 $416 #
straight-curve $-1 26.442091081079361 -44.596567988473097 10.20604676832513 1 0 0 I I #
coedge $-1 $322 $224 $227 $334 forward $130 $-1 #
vertex $-1 $225 $417 #
straight-curve $-1 41.563524088714559 -56.32166614133854 13.994560096581189 0 -1 0 I I #
straight-curve $-1 41.563524088714559 -44.596567988473083 10.206046768325137 0 0.84804809178421925 0.52991927123019833 I I #
edge $-1 $228 41.563524088714559 $418 64.204840235602887 $227 $419 forward 7 unknown #
point $-1 41.563524088714559 -44.596567988473097 13.994560096581187 #
point $-1 41.563524088714559 -44.596567988473097 10.206046768325129 #
edge $-1 $420 1 $420 0 $231 $-1 forward 7 unknown #
vertex $-1 $232 $421 #
ellipse-curve $-1 46.09178731809223 -40.192042979702904 9.9029149886909771 0 -0.52991927123019833 0.84804809178421925 1.5 0 0 1 I I #
point $-1 47.59178731809223 -41.565123697658699 12.100303432453163 #
edge $-1 $422 1 $422 0 $235 $-1 forward 7 unknown #
vertex $-1 $236 $423 #
ellipse-curve $-1 52.884182162158723 -40.192042979702904 9.9029149886909771 0 -0.52991927123019833 0.84804809178421925 1.5 0 0 1 I I #
point $-1 54.384182162158723 -41.565123697658699 12.100303432453163 #
edge $-1 $424 1 $424 0 $239 $-1 forward 7 unknown #
vertex $-1 $240 $425 #
ellipse-curve $-1 59.676577006225216 -40.192042979702904 9.9029149886909771 0 -0.52991927123019833 0.84804809178421925 1.5 0 0 1 I I #
point $-1 61.176577006225216 -41.565123697658699 12.100303432453163 #
plane-surface $-1 0 0 13.994560096581187 0 0 1 1 0 0 forward_v I I I I #
coedge $-1 $360 $359 $352 $426 forward $244 $-1 #
coedge $-1 $352 $246 $248 $356 reversed $159 $-1 #
coedge $-1 $246 $351 $350 $426 reversed $159 $-1 #
coedge $-1 $254 $249 $246 $354 forward $255 $-1 #
edge $-1 $357 -15.215251504896763 $427 -12.235690481808412 $353 $428 forward 7 unknown #
coedge $-1 $248 $247 $360 $429 reversed $100 $-1 #
edge $-1 $430 -89.193135976946195 $357 -83.047298552936041 $351 $431 forward 7 unknown #
vertex $-1 $250 $432 #
straight-curve $-1 -16.345954428646841 41.617006965384746 13.994560096581189 1 0 0 I I #
coedge $-1 $350 $251 $254 $364 reversed $244 $-1 #
coedge $-1 $251 $350 $355 $429 forward $244 $-1 #
vertex $-1 $252 $433 #
straight-curve $-1 -42.222600628862054 44.596567988473097 74.441805663855277 0 0 1 I I #
straight-curve $-1 -42.222600628862054 1.3548788338448361 86.629364668906931 0 0.48480960649040278 -0.87461971476443456 I I #
edge $-1 $427 23.161217085725315 $256 42.222600628862054 $359 $434 forward 7 unknown #
point $-1 -42.222600628862054 44.596567988473097 13.994560096581187 #
point $-1 -42.222600628862054 41.617006965384746 13.994560096581182 #
edge $-1 $435 1 $435 0 $259 $-1 forward 7 unknown #
vertex $-1 $260 $436 #
ellipse-curve $-1 -36.776491045108692 40.899618550451933 10.083471140541876 0 0.87461971476443456 0.48480960649040278 1 0 0 1 I I #
point $-1 -35.776491045108692 43.106787476928908 11.306924809193001 #
edge $-1 $437 1 $437 0 $263 $-1 forward 7 unknown #
vertex $-1 $264 $438 #
ellipse-curve $-1 -28.60732666947866 40.899618550451933 10.083471140541876 0 0.87461971476443456 0.48480960649040278 1 0 0 1 I I #
point $-1 -27.60732666947866 43.106787476928908 11.306924809193001 #
plane-surface $-1 64.204840235602887 0 0 -1 0 0 0 0 1 forward_v I I I I #
coedge $-1 $272 $270 $274 $380 reversed $181 $-1 #
edge $-1 $285 -13.994560096581187 $382 13.994560096581187 $284 $439 forward 7 unknown #
vertex $-1 $380 $440 #
straight-curve $-1 -64.204840235602887 -44.596567988473097 0 0 0 -1 I I #
edge $-1 $378 -44.596567988473097 $382 44.596567988473097 $376 $441 forward 7 unknown #
straight-curve $-1 0 -44.596567988473097 -13.994560096581187 -1 0 0 I I #
vertex $-1 $277 $442 #
straight-curve $-1 0 44.596567988473097 -13.994560096581187 1 0 0 I I #
point $-1 64.204840235602887 44.596567988473097 -13.994560096581187 #
point $-1 64.204840235602887 -44.596567988473097 -13.994560096581187 #
straight-curve $-1 -64.204840235602887 0 13.994560096581187 0 -1 0 I I #
point $-1 -64.204840235602887 44.596567988473097 13.994560096581187 #
point $-1 -64.204840235602887 -44.596567988473097 13.994560096581187 #
straight-curve $-1 64.204840235602887 -44.596567988473097 0 0 0 -1 I I #
straight-curve $-1 64.204840235602887 44.596567988473097 0 0 0 -1 I I #
plane-surface $-1 0 44.596567988473097 0 0 -1 0 0 0 -1 forward_v I I I I #
coedge $-1 $402 $401 $300 $394 forward $295 $-1 #
straight-curve $-1 -48.717427406992897 -44.596567988473097 2.0724099632963009 0 0 1 I I #
edge $-1 $397 -44.596567988473097 $395 44.596567988473097 $392 $443 forward 7 unknown #
vertex $-1 $301 $444 #
straight-curve $-1 -28.230566910648946 -44.596567988473097 1.4126625611383483 1 0 0 I I #
vertex $-1 $303 $445 #
straight-curve $-1 -28.230566910648946 44.596567988473097 1.4126625611383483 -1 0 0 I I #
point $-1 -48.717427406992897 44.596567988473097 1.4126625611383483 #
point $-1 -48.717427406992897 -44.596567988473097 1.4126625611383483 #
coedge $-1 $392 $307 $310 $404 forward $295 $-1 #
coedge $-1 $307 $392 $314 $406 reversed $295 $-1 #
straight-curve $-1 -64.204840235602887 0 6.8769772920468553 0 1 0 I I #
edge $-1 $312 -6.8769772920468553 $397 -1.4126625611383483 $310 $446 forward 7 unknown #
point $-1 -64.204840235602887 44.596567988473097 6.8769772920468553 #
edge $-1 $315 -6.8769772920468553 $395 -1.4126625611383483 $402 $447 forward 7 unknown #
point $-1 -64.204840235602887 -44.596567988473097 6.8769772920468553 #
straight-curve $-1 -48.717427406992897 44.596567988473097 2.0724099632963009 0 0 -1 I I #
coedge $-1 $413 $325 $322 $410 reversed $320 $-1 #
edge $-1 $418 -44.596567988473097 $411 -38.533679406844286 $409 $448 forward 7 unknown #
vertex $-1 $326 $449 #
straight-curve $-1 26.442091081079361 -38.533679406844286 13.994560096581186 -1 0 0 I I #
coedge $-1 $325 $409 $327 $415 forward $320 $-1 #
straight-curve $-1 64.204840235602887 -30.853247530083166 18.793826673908768 0 0.84804809178421925 0.52991927123019833 I I #
edge $-1 $418 -13.994560096581187 $328 -10.206046768325129 $413 $450 forward 7 unknown #
point $-1 64.204840235602887 -44.596567988473097 10.206046768325129 #
point $-1 41.563524088714559 -38.533679406844286 13.994560096581187 #
vertex $-1 $410 $451 #
straight-curve $-1 0 -44.596567988473097 13.994560096581187 1 0 0 I I #
vertex $-1 $337 $452 #
point $-1 47.59178731809223 -40.192042979702904 9.9029149886909771 #
vertex $-1 $341 $453 #
point $-1 54.384182162158723 -40.192042979702904 9.9029149886909771 #
vertex $-1 $345 $454 #
point $-1 61.176577006225216 -40.192042979702904 9.9029149886909771 #
edge $-1 $427 60.447245567274088 $430 65.822516142050446 $350 $455 forward 7 unknown #
vertex $-1 $364 $456 #
straight-curve $-1 -23.161217085725315 56.832258470281509 13.994560096581182 0 1 0 I I #
edge $-1 $430 6.815262657078474 $361 25.876646200215212 $360 $457 forward 7 unknown #
vertex $-1 $429 $458 #
straight-curve $-1 -23.161217085725315 1.3548788338448361 86.629364668906931 0 -0.48480960649040278 0.87461971476443456 I I #
point $-1 -23.161217085725315 41.617006965384746 13.994560096581182 #
point $-1 -42.222600628862054 44.596567988473097 8.6192895218048307 #
straight-curve $-1 0 44.596567988473097 13.994560096581187 -1 0 0 I I #
vertex $-1 $367 $459 #
point $-1 -35.776491045108692 40.899618550451933 10.083471140541876 #
vertex $-1 $371 $460 #
point $-1 -27.60732666947866 40.899618550451933 10.083471140541876 #
straight-curve $-1 -64.204840235602887 44.596567988473097 0 0 0 -1 I I #
point $-1 -64.204840235602887 -44.596567988473097 -13.994560096581187 #
straight-curve $-1 -64.204840235602887 0 -13.994560096581187 0 1 0 I I #
point $-1 -64.204840235602887 44.596567988473097 -13.994560096581187 #
straight-curve $-1 -64.204840235602887 0 1.4126625611383483 0 -1 0 I I #
point $-1 -64.204840235602887 -44.596567988473097 1.4126625611383483 #
point $-1 -64.204840235602887 44.596567988473097 1.4126625611383483 #
straight-curve $-1 -64.204840235602887 44.596567988473097 0 0 0 -1 I I #
straight-curve $-1 -64.204840235602887 -44.596567988473097 0 0 0 -1 I I #
straight-curve $-1 64.204840235602887 0 13.994560096581187 0 1 0 I I #
point $-1 64.204840235602887 -38.533679406844286 13.994560096581187 #
straight-curve $-1 64.204840235602887 -44.596567988473097 0 0 0 -1 I I #
point $-1 64.204840235602887 -44.596567988473097 13.994560096581187 #
point $-1 46.09178731809223 -39.397164072857606 8.6308428510146484 #
point $-1 52.884182162158723 -39.397164072857606 8.6308428510146484 #
point $-1 59.676577006225216 -39.397164072857606 8.6308428510146484 #
straight-curve $-1 -23.161217085725315 44.596567988473097 74.441805663855277 0 0 -1 I I #
point $-1 -23.161217085725315 44.596567988473097 13.994560096581187 #
straight-curve $-1 -16.345954428646841 44.596567988473097 8.619289521804852 -1 0 0 I I #
point $-1 -23.161217085725315 44.596567988473097 8.6192895218048307 #
point $-1 -36.776491045108692 40.024998835687498 9.5986615340514749 #
point $-1 -28.60732666947866 40.024998835687498 9.5986615340514749 #
End-of-ACIS-data 