500 0 4 0           
7 Unknown 11 ACIS 5.0 NT 24 Thu Mar 25 21:36:02 1999 
-1 9.9999999999999995e-007 1e-010 
body $-1 $4 $-1 $5 #
body $-1 $6 $-1 $7 #
body $-1 $8 $-1 $9 #
body $-1 $10 $-1 $11 #
lump $-1 $-1 $12 $0 #
transform $-1 1 0 0 0 1 0 0 0 1 57.824030274361398 31.711893259477577 14.72971810146174 1 rotate no_reflect no_shear #
lump $-1 $-1 $13 $1 #
transform $-1 1 0 0 0 1 0 0 0 1 57.824030274361398 31.711893259477577 14.72971810146174 1 rotate no_reflect no_shear #
lump $-1 $-1 $14 $2 #
transform $-1 1 0 0 0 1 0 0 0 1 57.824030274361398 31.711893259477577 14.72971810146174 1 rotate no_reflect no_shear #
lump $-1 $-1 $15 $3 #
transform $-1 1 0 0 0 1 0 0 0 1 57.824030274361398 31.711893259477577 14.72971810146174 1 rotate no_reflect no_shear #
shell $-1 $-1 $-1 $16 $-1 $4 #
shell $-1 $-1 $-1 $17 $-1 $6 #
shell $-1 $-1 $-1 $18 $-1 $8 #
shell $-1 $-1 $-1 $19 $-1 $10 #
face $-1 $20 $21 $12 $-1 $22 forward single #
face $-1 $23 $24 $13 $-1 $25 reversed single #
face $-1 $26 $27 $14 $-1 $28 forward single #
face $-1 $29 $30 $15 $-1 $31 forward single #
face $-1 $32 $33 $12 $-1 $34 reversed single #
loop $-1 $-1 $35 $16 #
plane-surface $-1 0 0 14.72971810146174 0 0 1 1 0 0 forward_v I I I I #
face $-1 $36 $37 $13 $-1 $38 reversed single #
loop $-1 $-1 $39 $17 #
plane-surface $-1 -28.637990178099301 66.424534059324273 127.83662503788383 1 0 0 0 -0.69465837861970381 -0.71933979245794832 forward_v I I I I #
face $-1 $40 $41 $14 $-1 $42 forward single #
loop $-1 $43 $44 $18 #
cone-surface $-1 -23.794535311734883 23.922280555845855 7.1747054232679002 0 -0.69465837861970381 -0.71933979245794832 1 0 0 1 I I 0 1 1 forward I I I I #
face $-1 $45 $46 $15 $-1 $47 forward single #
loop $-1 $48 $49 $19 #
cone-surface $-1 -16.529353012188245 23.922280555845855 7.1747054232679002 0 -0.69465837861970381 -0.71933979245794832 1 0 0 1 I I 0 1 1 forward I I I I #
face $-1 $50 $51 $12 $-1 $52 reversed single #
loop $-1 $-1 $53 $20 #
plane-surface $-1 0 0 -14.72971810146174 0 0 1 1 0 0 forward_v I I I I #
coedge $-1 $54 $55 $56 $57 forward $21 $-1 #
face $-1 $58 $59 $13 $-1 $60 reversed single #
loop $-1 $-1 $61 $23 #
plane-surface $-1 -20.161944161961564 -13.911360171964844 44.646373164601343 0 0.69465837861970381 0.71933979245794832 1 0 0 forward_v I I I I #
coedge $-1 $62 $63 $64 $65 reversed $24 $-1 #
face $-1 $-1 $66 $14 $-1 $67 forward single #
loop $-1 $68 $69 $26 #
cone-surface $-1 -23.794535311734883 23.107164127745968 6.3306276718650967 0 -0.69465837861970381 -0.71933979245794832 0.5 0 0 1 I I -0.70710678118654746 0.70710678118654746 0.5 forward I I I I #
loop $-1 $-1 $70 $18 #
coedge $-1 $44 $44 $71 $72 reversed $27 $-1 #
face $-1 $-1 $73 $15 $-1 $74 forward single #
loop $-1 $75 $76 $29 #
cone-surface $-1 -16.529353012188245 23.107164127745968 6.3306276718650967 0 -0.69465837861970381 -0.71933979245794832 0.5 0 0 1 I I -0.70710678118654746 0.70710678118654746 0.5 forward I I I I #
loop $-1 $-1 $77 $19 #
coedge $-1 $49 $49 $78 $79 reversed $30 $-1 #
face $-1 $80 $81 $12 $-1 $82 reversed single #
loop $-1 $-1 $83 $32 #
plane-surface $-1 0 -31.711893259477577 0 0 1 0 0 0 1 forward_v I I I I #
coedge $-1 $84 $85 $86 $87 forward $33 $-1 #
coedge $-1 $88 $35 $89 $90 forward $21 $-1 #
coedge $-1 $35 $88 $91 $92 forward $21 $-1 #
coedge $-1 $93 $94 $35 $57 reversed $95 $-1 #
edge $-1 $96 -31.711893259477577 $97 31.711893259477577 $56 $98 forward 7 unknown #
face $-1 $99 $100 $13 $-1 $101 reversed single #
loop $-1 $-1 $102 $36 #
plane-surface $-1 -11.685898145823826 66.424534059324273 127.83662503788383 -1 0 0 0 0.69465837861970381 0.71933979245794832 forward_v I I I I #
coedge $-1 $103 $104 $105 $106 reversed $37 $-1 #
coedge $-1 $63 $39 $107 $108 reversed $24 $-1 #
coedge $-1 $39 $62 $103 $109 reversed $24 $-1 #
coedge $-1 $105 $110 $39 $65 forward $111 $-1 #
edge $-1 $112 1.5003737701845594 $113 16.14402469986792 $64 $114 forward 7 unknown #
loop $-1 $-1 $71 $40 #
plane-surface $-1 -20.161944161961564 -13.911360171964844 44.646373164601343 0 0.69465837861970381 0.71933979245794832 1 0 0 forward_v I I I I #
loop $-1 $-1 $115 $26 #
coedge $-1 $69 $69 $70 $116 reversed $41 $-1 #
coedge $-1 $70 $70 $69 $116 forward $43 $-1 #
coedge $-1 $71 $71 $44 $72 forward $66 $-1 #
edge $-1 $117 -1.9386277394169668e-015 $117 6.2831853071795987 $71 $118 forward 7 unknown #
loop $-1 $-1 $78 $45 #
plane-surface $-1 -20.161944161961564 -13.911360171964844 44.646373164601343 0 0.69465837861970381 0.71933979245794832 1 0 0 forward_v I I I I #
loop $-1 $-1 $119 $29 #
coedge $-1 $76 $76 $77 $120 reversed $46 $-1 #
coedge $-1 $77 $77 $76 $120 forward $48 $-1 #
coedge $-1 $78 $78 $49 $79 forward $73 $-1 #
edge $-1 $121 -1.9386277394169668e-015 $121 6.2831853071795987 $78 $122 forward 7 unknown #
face $-1 $123 $124 $12 $-1 $125 reversed single #
loop $-1 $-1 $126 $50 #
plane-surface $-1 -57.824030274361398 0 0 1 0 0 0 0 -1 forward_v I I I I #
coedge $-1 $127 $91 $128 $129 forward $51 $-1 #
coedge $-1 $130 $53 $127 $131 forward $33 $-1 #
coedge $-1 $53 $130 $132 $133 forward $33 $-1 #
coedge $-1 $94 $93 $53 $87 reversed $95 $-1 #
edge $-1 $134 -31.711893259477577 $135 31.711893259477577 $86 $136 forward 7 unknown #
coedge $-1 $55 $54 $137 $138 forward $21 $-1 #
coedge $-1 $139 $140 $54 $90 reversed $124 $-1 #
edge $-1 $97 -57.824030274361398 $141 57.824030274361398 $89 $142 forward 7 unknown #
coedge $-1 $83 $143 $55 $92 reversed $51 $-1 #
edge $-1 $144 -57.824030274361398 $96 57.824030274361398 $91 $145 forward 7 unknown #
coedge $-1 $86 $56 $143 $146 forward $95 $-1 #
coedge $-1 $56 $86 $139 $147 reversed $95 $-1 #
loop $-1 $-1 $93 $123 #
vertex $-1 $57 $148 #
vertex $-1 $57 $149 #
straight-curve $-1 57.824030274361398 0 14.72971810146174 0 1 0 I I #
face $-1 $-1 $111 $13 $-1 $150 forward single #
loop $-1 $-1 $151 $58 #
plane-surface $-1 0 31.711893259477577 0 0 -1 0 0 0 -1 forward_v I I I I #
coedge $-1 $152 $153 $154 $155 reversed $59 $-1 #
coedge $-1 $156 $61 $63 $109 forward $37 $-1 #
coedge $-1 $61 $156 $152 $157 forward $37 $-1 #
coedge $-1 $154 $64 $61 $106 forward $111 $-1 #
edge $-1 $113 -18.557018097118519 $158 -1.6049260648430437 $105 $159 forward 7 unknown #
coedge $-1 $160 $161 $62 $108 forward $100 $-1 #
edge $-1 $162 -63.329804063520193 $112 -49.188594417480175 $107 $163 forward 7 unknown #
edge $-1 $113 43.06671593393061 $162 63.423786518955154 $63 $164 forward 7 unknown #
coedge $-1 $64 $154 $160 $165 forward $111 $-1 #
loop $-1 $-1 $154 $99 #
vertex $-1 $108 $166 #
vertex $-1 $65 $167 #
straight-curve $-1 -28.637990178099301 33.212267029662137 14.729718101461742 0 -1 0 I I #
coedge $-1 $115 $115 $-1 $168 reversed $68 $-1 #
edge $-1 $169 0 $169 6.2831853071796004 $69 $170 forward 7 unknown #
vertex $-1 $72 $171 #
ellipse-curve $-1 -23.794535311734883 24.390067794635893 7.6591132784417306 0 0.69465837861970381 0.71933979245794832 1 0 0 1 I I #
coedge $-1 $119 $119 $-1 $172 reversed $75 $-1 #
edge $-1 $173 0 $173 6.2831853071796004 $76 $174 forward 7 unknown #
vertex $-1 $79 $175 #
ellipse-curve $-1 -16.529353012188245 24.390067794635893 7.6591132784417306 0 0.69465837861970381 0.71933979245794832 1 0 0 1 I I #
face $-1 $-1 $95 $12 $-1 $176 reversed single #
loop $-1 $-1 $139 $80 #
plane-surface $-1 0 31.711893259477577 0 0 -1 0 0 0 -1 forward_v I I I I #
coedge $-1 $177 $137 $140 $178 forward $81 $-1 #
coedge $-1 $143 $83 $84 $131 reversed $51 $-1 #
coedge $-1 $137 $177 $83 $129 reversed $81 $-1 #
edge $-1 $144 -14.72971810146174 $179 14.72971810146174 $128 $180 forward 7 unknown #
coedge $-1 $85 $84 $177 $181 forward $33 $-1 #
edge $-1 $135 -57.824030274361398 $179 57.824030274361398 $127 $182 forward 7 unknown #
coedge $-1 $140 $139 $85 $133 reversed $124 $-1 #
edge $-1 $183 -57.824030274361398 $134 57.824030274361398 $132 $184 forward 7 unknown #
vertex $-1 $87 $185 #
vertex $-1 $146 $186 #
straight-curve $-1 57.824030274361398 0 -14.72971810146174 0 -1 0 I I #
coedge $-1 $126 $128 $88 $138 reversed $81 $-1 #
edge $-1 $141 -31.711893259477577 $144 31.711893259477577 $137 $187 forward 7 unknown #
coedge $-1 $132 $89 $94 $147 forward $124 $-1 #
coedge $-1 $89 $132 $126 $178 reversed $124 $-1 #
vertex $-1 $90 $188 #
straight-curve $-1 0 31.711893259477577 14.72971810146174 -1 0 0 I I #
coedge $-1 $91 $127 $93 $146 reversed $51 $-1 #
vertex $-1 $138 $189 #
straight-curve $-1 0 -31.711893259477577 14.72971810146174 1 0 0 I I #
edge $-1 $96 -14.72971810146174 $135 14.72971810146174 $93 $190 forward 7 unknown #
edge $-1 $97 -14.72971810146174 $134 14.72971810146174 $94 $191 forward 7 unknown #
point $-1 57.824030274361398 -31.711893259477577 14.72971810146174 #
point $-1 57.824030274361398 31.711893259477577 14.72971810146174 #
plane-surface $-1 0 0 14.72971810146174 0 0 1 1 0 0 forward_v I I I I #
coedge $-1 $161 $160 $153 $192 forward $100 $-1 #
coedge $-1 $153 $102 $104 $157 reversed $59 $-1 #
coedge $-1 $102 $152 $151 $192 reversed $59 $-1 #
coedge $-1 $110 $105 $102 $155 forward $111 $-1 #
edge $-1 $158 -16.14402469986792 $193 -1.5003737701845594 $154 $194 forward 7 unknown #
coedge $-1 $104 $103 $161 $195 reversed $37 $-1 #
edge $-1 $196 -63.423786518955154 $158 -43.06671593393061 $152 $197 forward 7 unknown #
vertex $-1 $106 $198 #
straight-curve $-1 -10.080972080980782 17.068242329794217 14.729718101461742 1 0 0 I I #
coedge $-1 $151 $107 $110 $165 reversed $100 $-1 #
coedge $-1 $107 $151 $156 $195 forward $100 $-1 #
vertex $-1 $108 $199 #
straight-curve $-1 -28.637990178099301 31.711893259477577 63.918312518941917 0 0 1 I I #
straight-curve $-1 -28.637990178099301 -13.911360171964844 44.646373164601343 0 0.71933979245794832 -0.69465837861970381 I I #
edge $-1 $193 11.685898145823826 $112 28.637990178099301 $160 $200 forward 7 unknown #
point $-1 -28.637990178099301 31.711893259477577 14.72971810146174 #
point $-1 -28.637990178099301 17.068242329794217 14.729718101461742 #
edge $-1 $201 1 $201 0 $115 $-1 forward 7 unknown #
vertex $-1 $116 $202 #
ellipse-curve $-1 -23.794535311734883 23.454493317055821 6.6902975680940706 0 0.69465837861970381 0.71933979245794832 1 0 0 1 I I #
point $-1 -22.794535311734883 24.39006779463589 7.6591132784417297 #
edge $-1 $203 1 $203 0 $119 $-1 forward 7 unknown #
vertex $-1 $120 $204 #
ellipse-curve $-1 -16.529353012188245 23.454493317055821 6.6902975680940706 0 0.69465837861970381 0.71933979245794832 1 0 0 1 I I #
point $-1 -15.529353012188245 24.39006779463589 7.6591132784417297 #
plane-surface $-1 57.824030274361398 0 0 -1 0 0 0 0 1 forward_v I I I I #
coedge $-1 $128 $126 $130 $181 reversed $81 $-1 #
edge $-1 $141 -14.72971810146174 $183 14.72971810146174 $140 $205 forward 7 unknown #
vertex $-1 $181 $206 #
straight-curve $-1 -57.824030274361398 -31.711893259477577 0 0 0 -1 I I #
edge $-1 $179 -31.711893259477577 $183 31.711893259477577 $177 $207 forward 7 unknown #
straight-curve $-1 0 -31.711893259477577 -14.72971810146174 -1 0 0 I I #
vertex $-1 $133 $208 #
straight-curve $-1 0 31.711893259477577 -14.72971810146174 1 0 0 I I #
point $-1 57.824030274361398 31.711893259477577 -14.72971810146174 #
point $-1 57.824030274361398 -31.711893259477577 -14.72971810146174 #
straight-curve $-1 -57.824030274361398 0 14.72971810146174 0 -1 0 I I #
point $-1 -57.824030274361398 31.711893259477577 14.72971810146174 #
point $-1 -57.824030274361398 -31.711893259477577 14.72971810146174 #
straight-curve $-1 57.824030274361398 -31.711893259477577 0 0 0 -1 I I #
straight-curve $-1 57.824030274361398 31.711893259477577 0 0 0 -1 I I #
edge $-1 $193 49.188594417480175 $196 63.329804063520193 $151 $209 forward 7 unknown #
vertex $-1 $165 $210 #
straight-curve $-1 -11.685898145823826 33.212267029662137 14.729718101461742 0 1 0 I I #
edge $-1 $196 1.6049260648430437 $162 18.557018097118519 $161 $211 forward 7 unknown #
vertex $-1 $195 $212 #
straight-curve $-1 -11.685898145823826 -13.911360171964844 44.646373164601343 0 -0.71933979245794832 0.69465837861970381 I I #
point $-1 -11.685898145823826 17.068242329794217 14.729718101461742 #
point $-1 -28.637990178099301 31.711893259477577 0.58850845542172436 #
straight-curve $-1 0 31.711893259477577 14.72971810146174 -1 0 0 I I #
vertex $-1 $168 $213 #
point $-1 -22.794535311734883 23.454493317055821 6.6902975680940706 #
vertex $-1 $172 $214 #
point $-1 -15.529353012188245 23.454493317055821 6.6902975680940706 #
straight-curve $-1 -57.824030274361398 31.711893259477577 0 0 0 -1 I I #
point $-1 -57.824030274361398 -31.711893259477577 -14.72971810146174 #
straight-curve $-1 -57.824030274361398 0 -14.72971810146174 0 1 0 I I #
point $-1 -57.824030274361398 31.711893259477577 -14.72971810146174 #
straight-curve $-1 -11.685898145823826 31.711893259477577 63.918312518941917 0 0 -1 I I #
point $-1 -11.685898145823826 31.711893259477577 14.72971810146174 #
straight-curve $-1 -10.080972080980782 31.711893259477577 0.58850845542172792 -1 0 0 I I #
point $-1 -11.685898145823826 31.711893259477577 0.58850845542172436 #
point $-1 -23.794535311734883 22.759834938436114 5.9709577756361227 #
point $-1 -16.529353012188245 22.759834938436114 5.9709577756361227 #
End-of-ACIS-data 