500 0 18 0           
7 Unknown 11 ACIS 5.0 NT 24 Fri Mar 26 19:31:50 1999 
-1 9.9999999999999995e-007 1e-010 
body $-1 $18 $-1 $19 #
body $-1 $20 $-1 $21 #
body $-1 $22 $-1 $23 #
body $-1 $24 $-1 $25 #
body $-1 $26 $-1 $27 #
body $-1 $28 $-1 $29 #
body $-1 $30 $-1 $31 #
body $-1 $32 $-1 $33 #
body $-1 $34 $-1 $35 #
body $-1 $36 $-1 $37 #
body $-1 $38 $-1 $39 #
body $-1 $40 $-1 $41 #
body $-1 $42 $-1 $43 #
body $-1 $44 $-1 $45 #
body $-1 $46 $-1 $47 #
body $-1 $48 $-1 $49 #
body $-1 $50 $-1 $51 #
body $-1 $52 $-1 $53 #
lump $-1 $-1 $54 $0 #
transform $-1 1 0 0 0 1 0 0 0 1 47.590563676870019 31.902104229108105 11.429632026051046 1 rotate no_reflect no_shear #
lump $-1 $-1 $55 $1 #
transform $-1 1 0 0 0 1 0 0 0 1 47.590563676870019 31.902104229108105 11.429632026051046 1 rotate no_reflect no_shear #
lump $-1 $-1 $56 $2 #
transform $-1 1 0 0 0 1 0 0 0 1 47.590563676870019 31.902104229108105 11.429632026051046 1 rotate no_reflect no_shear #
lump $-1 $-1 $57 $3 #
transform $-1 1 0 0 0 1 0 0 0 1 47.590563676870019 31.902104229108105 11.429632026051046 1 rotate no_reflect no_shear #
lump $-1 $-1 $58 $4 #
transform $-1 1 0 0 0 1 0 0 0 1 47.590563676870019 31.902104229108105 11.429632026051046 1 rotate no_reflect no_shear #
lump $-1 $-1 $59 $5 #
transform $-1 1 0 0 0 1 0 0 0 1 47.590563676870019 31.902104229108105 11.429632026051046 1 rotate no_reflect no_shear #
lump $-1 $-1 $60 $6 #
transform $-1 1 0 0 0 1 0 0 0 1 47.590563676870019 31.902104229108105 11.429632026051046 1 rotate no_reflect no_shear #
lump $-1 $-1 $61 $7 #
transform $-1 1 0 0 0 1 0 0 0 1 47.590563676870019 31.902104229108105 11.429632026051046 1 rotate no_reflect no_shear #
lump $-1 $-1 $62 $8 #
transform $-1 1 0 0 0 1 0 0 0 1 47.590563676870019 31.902104229108105 11.429632026051046 1 rotate no_reflect no_shear #
lump $-1 $-1 $63 $9 #
transform $-1 1 0 0 0 1 0 0 0 1 47.590563676870019 31.902104229108105 11.429632026051046 1 rotate no_reflect no_shear #
lump $-1 $-1 $64 $10 #
transform $-1 1 0 0 0 1 0 0 0 1 47.590563676870019 31.902104229108105 11.429632026051046 1 rotate no_reflect no_shear #
lump $-1 $-1 $65 $11 #
transform $-1 1 0 0 0 1 0 0 0 1 47.590563676870019 31.902104229108105 11.429632026051046 1 rotate no_reflect no_shear #
lump $-1 $-1 $66 $12 #
transform $-1 1 0 0 0 1 0 0 0 1 47.590563676870019 31.902104229108105 11.429632026051046 1 rotate no_reflect no_shear #
lump $-1 $-1 $67 $13 #
transform $-1 1 0 0 0 1 0 0 0 1 47.590563676870019 31.902104229108105 11.429632026051046 1 rotate no_reflect no_shear #
lump $-1 $-1 $68 $14 #
transform $-1 1 0 0 0 1 0 0 0 1 47.590563676870019 31.902104229108105 11.429632026051046 1 rotate no_reflect no_shear #
lump $-1 $-1 $69 $15 #
transform $-1 1 0 0 0 1 0 0 0 1 47.590563676870019 31.902104229108105 11.429632026051046 1 rotate no_reflect no_shear #
lump $-1 $-1 $70 $16 #
transform $-1 1 0 0 0 1 0 0 0 1 47.590563676870019 31.902104229108105 11.429632026051046 1 rotate no_reflect no_shear #
lump $-1 $-1 $71 $17 #
transform $-1 1 0 0 0 1 0 0 0 1 47.590563676870019 31.902104229108105 11.429632026051046 1 rotate no_reflect no_shear #
shell $-1 $-1 $-1 $72 $-1 $18 #
shell $-1 $-1 $-1 $73 $-1 $20 #
shell $-1 $-1 $-1 $74 $-1 $22 #
shell $-1 $-1 $-1 $75 $-1 $24 #
shell $-1 $-1 $-1 $76 $-1 $26 #
shell $-1 $-1 $-1 $77 $-1 $28 #
shell $-1 $-1 $-1 $78 $-1 $30 #
shell $-1 $-1 $-1 $79 $-1 $32 #
shell $-1 $-1 $-1 $80 $-1 $34 #
shell $-1 $-1 $-1 $81 $-1 $36 #
shell $-1 $-1 $-1 $82 $-1 $38 #
shell $-1 $-1 $-1 $83 $-1 $40 #
shell $-1 $-1 $-1 $84 $-1 $42 #
shell $-1 $-1 $-1 $85 $-1 $44 #
shell $-1 $-1 $-1 $86 $-1 $46 #
shell $-1 $-1 $-1 $87 $-1 $48 #
shell $-1 $-1 $-1 $88 $-1 $50 #
shell $-1 $-1 $-1 $89 $-1 $52 #
face $-1 $90 $91 $54 $-1 $92 forward single #
face $-1 $93 $94 $55 $-1 $95 forward single #
face $-1 $96 $97 $56 $-1 $98 reversed single #
face $-1 $99 $100 $57 $-1 $101 forward single #
face $-1 $102 $103 $58 $-1 $104 forward single #
face $-1 $105 $106 $59 $-1 $107 forward single #
face $-1 $108 $109 $60 $-1 $110 reversed single #
face $-1 $111 $112 $61 $-1 $113 forward single #
face $-1 $114 $115 $62 $-1 $116 forward single #
face $-1 $117 $118 $63 $-1 $119 forward single #
face $-1 $120 $121 $64 $-1 $122 reversed single #
face $-1 $123 $124 $65 $-1 $125 forward single #
face $-1 $126 $127 $66 $-1 $128 reversed single #
face $-1 $129 $130 $67 $-1 $131 forward single #
face $-1 $132 $133 $68 $-1 $134 reversed single #
face $-1 $135 $136 $69 $-1 $137 forward single #
face $-1 $138 $139 $70 $-1 $140 reversed single #
face $-1 $141 $142 $71 $-1 $143 forward single #
face $-1 $144 $145 $54 $-1 $146 reversed single #
loop $-1 $-1 $147 $72 #
plane-surface $-1 0 0 11.429632026051046 0 0 1 1 0 0 forward_v I I I I #
face $-1 $148 $149 $55 $-1 $150 reversed single #
loop $-1 $-1 $151 $73 #
plane-surface $-1 0 -31.902104229108105 0 0 1 0 0 0 1 forward_v I I I I #
face $-1 $152 $153 $56 $-1 $154 reversed single #
loop $-1 $-1 $155 $74 #
plane-surface $-1 47.590565238648196 1.1755536387925787 138.85045618649775 0 -1 0 -0.70710678939079041 0 -0.70710677298230451 forward_v I I I I #
face $-1 $156 $157 $57 $-1 $158 forward single #
loop $-1 $159 $160 $75 #
cone-surface $-1 43.644201852959498 -7.9600929246409109 7.4832701269732924 -0.70710678939079041 0 -0.70710677298230451 0.17677669324557613 0 -0.1767766973476976 1 I I 0 1 0.25 forward I I I I #
face $-1 $161 $162 $58 $-1 $163 forward single #
loop $-1 $164 $165 $76 #
cone-surface $-1 43.644201852959498 -4.5342254633533514 7.4832701269732924 -0.70710678939079041 0 -0.70710677298230451 0.17677669324557613 0 -0.1767766973476976 1 I I 0 1 0.25 forward I I I I #
face $-1 $166 $167 $59 $-1 $168 forward single #
loop $-1 $169 $170 $77 #
cone-surface $-1 43.644201852959498 -1.1083580020657919 7.4832701269732924 -0.70710678939079041 0 -0.70710677298230451 0.17677669324557613 0 -0.1767766973476976 1 I I 0 1 0.25 forward I I I I #
face $-1 $171 $172 $60 $-1 $173 reversed single #
loop $-1 $-1 $174 $78 #
plane-surface $-1 47.590565238648196 25.231434393937846 138.85045618649775 0 -1 0 -0.70710678939079041 0 -0.70710677298230451 forward_v I I I I #
face $-1 $175 $176 $61 $-1 $177 forward single #
loop $-1 $178 $179 $79 #
cone-surface $-1 43.644201852959498 16.095787830504356 7.4832701269732924 -0.70710678939079041 0 -0.70710677298230451 0.17677669324557613 0 -0.1767766973476976 1 I I 0 1 0.25 forward I I I I #
face $-1 $180 $181 $62 $-1 $182 forward single #
loop $-1 $183 $184 $80 #
cone-surface $-1 43.644201852959498 19.521655291791916 7.4832701269732924 -0.70710678939079041 0 -0.70710677298230451 0.17677669324557613 0 -0.1767766973476976 1 I I 0 1 0.25 forward I I I I #
face $-1 $185 $186 $63 $-1 $187 forward single #
loop $-1 $188 $189 $81 #
cone-surface $-1 43.644201852959498 22.947522753079475 7.4832701269732924 -0.70710678939079041 0 -0.70710677298230451 0.17677669324557613 0 -0.1767766973476976 1 I I 0 1 0.25 forward I I I I #
face $-1 $190 $191 $64 $-1 $192 reversed single #
loop $-1 $-1 $193 $82 #
plane-surface $-1 -128.30873827350626 -16.91467440066954 55.615150822411756 0 1 0 -0.84804810408105047 0 0.52991925155115449 forward_v I I I I #
face $-1 $194 $195 $65 $-1 $196 forward single #
loop $-1 $197 $198 $83 #
cone-surface $-1 -43.914783503766401 -13.21077435197731 7.2270912690325675 0.84804810408105047 0 -0.52991925155115449 0.79487887732673168 0 1.2720721561215758 1 I I 0 1 1.5 forward I I I I #
face $-1 $199 $200 $66 $-1 $201 reversed single #
loop $-1 $-1 $202 $84 #
plane-surface $-1 -128.30873827350626 -3.1116815565384819 55.615150822411756 0 1 0 -0.84804810408105047 0 0.52991925155115449 forward_v I I I I #
face $-1 $203 $204 $67 $-1 $205 forward single #
loop $-1 $206 $207 $85 #
cone-surface $-1 -43.914783503766401 0.59221849215374789 7.2270912690325675 0.84804810408105047 0 -0.52991925155115449 0.79487887732673168 0 1.2720721561215758 1 I I 0 1 1.5 forward I I I I #
face $-1 $208 $209 $68 $-1 $210 reversed single #
loop $-1 $-1 $211 $86 #
plane-surface $-1 -128.30873827350626 10.69131128759258 55.615150822411756 0 1 0 -0.84804810408105047 0 0.52991925155115449 forward_v I I I I #
face $-1 $212 $213 $69 $-1 $214 forward single #
loop $-1 $215 $216 $87 #
cone-surface $-1 -43.914783503766401 14.39521133628481 7.2270912690325675 0.84804810408105047 0 -0.52991925155115449 0.79487887732673168 0 1.2720721561215758 1 I I 0 1 1.5 forward I I I I #
face $-1 $217 $218 $70 $-1 $219 reversed single #
loop $-1 $-1 $220 $88 #
plane-surface $-1 -128.30873827350626 24.494304131723641 55.615150822411756 0 1 0 -0.84804810408105047 0 0.52991925155115449 forward_v I I I I #
face $-1 $221 $222 $71 $-1 $223 forward single #
loop $-1 $224 $225 $89 #
cone-surface $-1 -43.914783503766401 28.198204180415871 7.2270912690325675 0.84804810408105047 0 -0.52991925155115449 0.79487887732673168 0 1.2720721561215758 1 I I 0 1 1.5 forward I I I I #
face $-1 $226 $227 $54 $-1 $228 reversed single #
loop $-1 $-1 $229 $90 #
plane-surface $-1 0 0 -11.429632026051046 0 0 1 1 0 0 forward_v I I I I #
coedge $-1 $230 $231 $232 $233 forward $91 $-1 #
face $-1 $234 $235 $55 $-1 $236 reversed single #
loop $-1 $-1 $237 $93 #
plane-surface $-1 0 0 -11.429632026051046 0 0 1 1 0 0 forward_v I I I I #
coedge $-1 $238 $239 $240 $241 forward $94 $-1 #
face $-1 $242 $243 $56 $-1 $244 reversed single #
loop $-1 $-1 $245 $96 #
plane-surface $-1 -19.712656135050864 -4.5342254633533514 71.547236374576883 0.70710678939079041 0 0.70710677298230451 0.70710677298230451 0 -0.70710678939079041 forward_v I I I I #
coedge $-1 $246 $247 $248 $249 reversed $97 $-1 #
face $-1 $-1 $250 $57 $-1 $251 forward single #
loop $-1 $252 $253 $99 #
cone-surface $-1 43.202260109590256 -7.9600929246409109 7.0413283938593523 -0.70710678939079041 0 -0.70710677298230451 0.088388346622788064 0 -0.088388348673848802 1 I I -0.70710678118654746 0.70710678118654746 0.125 forward I I I I #
loop $-1 $-1 $254 $75 #
coedge $-1 $160 $160 $255 $256 reversed $100 $-1 #
face $-1 $-1 $257 $58 $-1 $258 forward single #
loop $-1 $259 $260 $102 #
cone-surface $-1 43.202260109590256 -4.5342254633533514 7.0413283938593523 -0.70710678939079041 0 -0.70710677298230451 0.088388346622788064 0 -0.088388348673848802 1 I I -0.70710678118654746 0.70710678118654746 0.125 forward I I I I #
loop $-1 $-1 $261 $76 #
coedge $-1 $165 $165 $262 $263 reversed $103 $-1 #
face $-1 $-1 $264 $59 $-1 $265 forward single #
loop $-1 $266 $267 $105 #
cone-surface $-1 43.202260109590256 -1.1083580020657919 7.0413283938593523 -0.70710678939079041 0 -0.70710677298230451 0.088388346622788064 0 -0.088388348673848802 1 I I -0.70710678118654746 0.70710678118654746 0.125 forward I I I I #
loop $-1 $-1 $268 $77 #
coedge $-1 $170 $170 $269 $270 reversed $106 $-1 #
face $-1 $271 $272 $60 $-1 $273 reversed single #
loop $-1 $-1 $274 $108 #
plane-surface $-1 -19.712656135050864 19.521655291791916 71.547236374576883 0.70710678939079041 0 0.70710677298230451 0.70710677298230451 0 -0.70710678939079041 forward_v I I I I #
coedge $-1 $275 $276 $277 $278 reversed $109 $-1 #
face $-1 $-1 $279 $61 $-1 $280 forward single #
loop $-1 $281 $282 $111 #
cone-surface $-1 43.202260109590256 16.095787830504356 7.0413283938593523 -0.70710678939079041 0 -0.70710677298230451 0.088388346622788064 0 -0.088388348673848802 1 I I -0.70710678118654746 0.70710678118654746 0.125 forward I I I I #
loop $-1 $-1 $283 $79 #
coedge $-1 $179 $179 $284 $285 reversed $112 $-1 #
face $-1 $-1 $286 $62 $-1 $287 forward single #
loop $-1 $288 $289 $114 #
cone-surface $-1 43.202260109590256 19.521655291791916 7.0413283938593523 -0.70710678939079041 0 -0.70710677298230451 0.088388346622788064 0 -0.088388348673848802 1 I I -0.70710678118654746 0.70710678118654746 0.125 forward I I I I #
loop $-1 $-1 $290 $80 #
coedge $-1 $184 $184 $291 $292 reversed $115 $-1 #
face $-1 $-1 $293 $63 $-1 $294 forward single #
loop $-1 $295 $296 $117 #
cone-surface $-1 43.202260109590256 22.947522753079475 7.0413283938593523 -0.70710678939079041 0 -0.70710677298230451 0.088388346622788064 0 -0.088388348673848802 1 I I -0.70710678118654746 0.70710678118654746 0.125 forward I I I I #
loop $-1 $-1 $297 $81 #
coedge $-1 $189 $189 $298 $299 reversed $118 $-1 #
face $-1 $300 $301 $64 $-1 $302 reversed single #
loop $-1 $-1 $303 $120 #
plane-surface $-1 -47.590563676870019 -13.21077435197731 5.1768390533227162 -0.84804810408105047 0 0.52991925155115449 0.52991925155115449 0 0.84804810408105047 forward_v I I I I #
coedge $-1 $304 $305 $306 $307 reversed $121 $-1 #
face $-1 $-1 $308 $65 $-1 $309 forward single #
loop $-1 $310 $311 $123 #
cone-surface $-1 -41.556556533839185 -13.21077435197731 5.7535075597148904 0.84804810408105047 0 -0.52991925155115449 0.39743943866336584 0 0.63603607806078788 1 I I -0.70710678118654757 0.70710678118654757 0.75 forward I I I I #
loop $-1 $-1 $312 $83 #
coedge $-1 $198 $198 $313 $314 reversed $124 $-1 #
face $-1 $315 $316 $66 $-1 $317 reversed single #
loop $-1 $-1 $318 $126 #
plane-surface $-1 -47.590563676870019 0.59221849215374789 5.1768390533227162 -0.84804810408105047 0 0.52991925155115449 0.52991925155115449 0 0.84804810408105047 forward_v I I I I #
coedge $-1 $319 $320 $321 $322 reversed $127 $-1 #
face $-1 $-1 $323 $67 $-1 $324 forward single #
loop $-1 $325 $326 $129 #
cone-surface $-1 -41.556556533839185 0.59221849215374789 5.7535075597148904 0.84804810408105047 0 -0.52991925155115449 0.39743943866336584 0 0.63603607806078788 1 I I -0.70710678118654757 0.70710678118654757 0.75 forward I I I I #
loop $-1 $-1 $327 $85 #
coedge $-1 $207 $207 $328 $329 reversed $130 $-1 #
face $-1 $330 $331 $68 $-1 $332 reversed single #
loop $-1 $-1 $333 $132 #
plane-surface $-1 -47.590563676870019 14.39521133628481 5.1768390533227162 -0.84804810408105047 0 0.52991925155115449 0.52991925155115449 0 0.84804810408105047 forward_v I I I I #
coedge $-1 $334 $335 $336 $337 reversed $133 $-1 #
face $-1 $-1 $338 $69 $-1 $339 forward single #
loop $-1 $340 $341 $135 #
cone-surface $-1 -41.556556533839185 14.39521133628481 5.7535075597148904 0.84804810408105047 0 -0.52991925155115449 0.39743943866336584 0 0.63603607806078788 1 I I -0.70710678118654757 0.70710678118654757 0.75 forward I I I I #
loop $-1 $-1 $342 $87 #
coedge $-1 $216 $216 $343 $344 reversed $136 $-1 #
face $-1 $345 $346 $70 $-1 $347 forward single #
loop $-1 $-1 $348 $138 #
plane-surface $-1 -47.590563676870019 28.198204180415871 5.1768390533227162 -0.84804810408105047 0 0.52991925155115449 0.52991925155115449 0 0.84804810408105047 forward_v I I I I #
coedge $-1 $349 $350 $351 $352 reversed $139 $-1 #
face $-1 $-1 $353 $71 $-1 $354 forward single #
loop $-1 $355 $356 $141 #
cone-surface $-1 -41.556556533839185 28.198204180415871 5.7535075597148904 0.84804810408105047 0 -0.52991925155115449 0.39743943866336584 0 0.63603607806078788 1 I I -0.70710678118654757 0.70710678118654757 0.75 forward I I I I #
loop $-1 $-1 $357 $89 #
coedge $-1 $225 $225 $358 $359 reversed $142 $-1 #
face $-1 $360 $361 $54 $-1 $362 reversed single #
loop $-1 $-1 $363 $144 #
plane-surface $-1 0 -31.902104229108105 0 0 1 0 0 0 1 forward_v I I I I #
coedge $-1 $364 $365 $366 $367 forward $145 $-1 #
coedge $-1 $368 $147 $369 $370 forward $91 $-1 #
coedge $-1 $147 $368 $371 $372 forward $91 $-1 #
coedge $-1 $373 $374 $147 $233 reversed $375 $-1 #
edge $-1 $376 -31.902104229108105 $377 31.902104229108105 $232 $378 forward 7 unknown #
face $-1 $379 $380 $55 $-1 $381 forward single #
loop $-1 $-1 $382 $148 #
plane-surface $-1 47.590563676870019 0 0 -1 0 0 0 0 1 forward_v I I I I #
coedge $-1 $383 $384 $385 $386 forward $149 $-1 #
coedge $-1 $385 $151 $382 $387 reversed $94 $-1 #
coedge $-1 $151 $385 $388 $389 reversed $94 $-1 #
coedge $-1 $390 $391 $151 $241 reversed $380 $-1 #
edge $-1 $392 -47.590563676870019 $393 47.590563676870019 $240 $394 forward 7 unknown #
face $-1 $395 $396 $56 $-1 $397 reversed single #
loop $-1 $-1 $398 $152 #
plane-surface $-1 47.590565238648196 -10.244004565499282 138.85045618649775 0 1 0 0.70710678939079041 0 0.70710677298230451 forward_v I I I I #
coedge $-1 $399 $400 $401 $402 reversed $153 $-1 #
coedge $-1 $247 $155 $403 $404 reversed $97 $-1 #
coedge $-1 $155 $246 $399 $405 reversed $97 $-1 #
coedge $-1 $401 $406 $155 $249 forward $407 $-1 #
edge $-1 $408 -23.795281057545921 $409 -16.609664199115677 $248 $410 forward 7 unknown #
loop $-1 $-1 $255 $156 #
plane-surface $-1 -19.712656135050864 -4.5342254633533514 71.547236374576883 0.70710678939079041 0 0.70710677298230451 0.70710677298230451 0 -0.70710678939079041 forward_v I I I I #
loop $-1 $-1 $411 $99 #
coedge $-1 $253 $253 $254 $412 reversed $157 $-1 #
coedge $-1 $254 $254 $253 $412 forward $159 $-1 #
coedge $-1 $255 $255 $160 $256 forward $250 $-1 #
edge $-1 $413 0 $413 6.2831853071796004 $255 $414 forward 7 unknown #
loop $-1 $-1 $262 $161 #
plane-surface $-1 -19.712656135050864 -4.5342254633533514 71.547236374576883 0.70710678939079041 0 0.70710677298230451 0.70710677298230451 0 -0.70710678939079041 forward_v I I I I #
loop $-1 $-1 $415 $102 #
coedge $-1 $260 $260 $261 $416 reversed $162 $-1 #
coedge $-1 $261 $261 $260 $416 forward $164 $-1 #
coedge $-1 $262 $262 $165 $263 forward $257 $-1 #
edge $-1 $417 0 $417 6.2831853071796004 $262 $418 forward 7 unknown #
loop $-1 $-1 $269 $166 #
plane-surface $-1 -19.712656135050864 -4.5342254633533514 71.547236374576883 0.70710678939079041 0 0.70710677298230451 0.70710677298230451 0 -0.70710678939079041 forward_v I I I I #
loop $-1 $-1 $419 $105 #
coedge $-1 $267 $267 $268 $420 reversed $167 $-1 #
coedge $-1 $268 $268 $267 $420 forward $169 $-1 #
coedge $-1 $269 $269 $170 $270 forward $264 $-1 #
edge $-1 $421 0 $421 6.2831853071796004 $269 $422 forward 7 unknown #
face $-1 $423 $424 $60 $-1 $425 reversed single #
loop $-1 $-1 $426 $171 #
plane-surface $-1 47.590565238648196 13.811876189645986 138.85045618649775 0 1 0 0.70710678939079041 0 0.70710677298230451 forward_v I I I I #
coedge $-1 $427 $428 $429 $430 reversed $172 $-1 #
coedge $-1 $276 $174 $431 $432 reversed $109 $-1 #
coedge $-1 $174 $275 $427 $433 reversed $109 $-1 #
coedge $-1 $429 $434 $174 $278 forward $435 $-1 #
edge $-1 $436 -23.795281057545921 $437 -16.609664199115677 $277 $438 forward 7 unknown #
loop $-1 $-1 $284 $175 #
plane-surface $-1 -19.712656135050864 19.521655291791916 71.547236374576883 0.70710678939079041 0 0.70710677298230451 0.70710677298230451 0 -0.70710678939079041 forward_v I I I I #
loop $-1 $-1 $439 $111 #
coedge $-1 $282 $282 $283 $440 reversed $176 $-1 #
coedge $-1 $283 $283 $282 $440 forward $178 $-1 #
coedge $-1 $284 $284 $179 $285 forward $279 $-1 #
edge $-1 $441 0 $441 6.2831853071796004 $284 $442 forward 7 unknown #
loop $-1 $-1 $291 $180 #
plane-surface $-1 -19.712656135050864 19.521655291791916 71.547236374576883 0.70710678939079041 0 0.70710677298230451 0.70710677298230451 0 -0.70710678939079041 forward_v I I I I #
loop $-1 $-1 $443 $114 #
coedge $-1 $289 $289 $290 $444 reversed $181 $-1 #
coedge $-1 $290 $290 $289 $444 forward $183 $-1 #
coedge $-1 $291 $291 $184 $292 forward $286 $-1 #
edge $-1 $445 0 $445 6.2831853071796004 $291 $446 forward 7 unknown #
loop $-1 $-1 $298 $185 #
plane-surface $-1 -19.712656135050864 19.521655291791916 71.547236374576883 0.70710678939079041 0 0.70710677298230451 0.70710677298230451 0 -0.70710678939079041 forward_v I I I I #
loop $-1 $-1 $447 $117 #
coedge $-1 $296 $296 $297 $448 reversed $186 $-1 #
coedge $-1 $297 $297 $296 $448 forward $188 $-1 #
coedge $-1 $298 $298 $189 $299 forward $293 $-1 #
edge $-1 $449 0 $449 6.2831853071796004 $298 $450 forward 7 unknown #
face $-1 $451 $452 $64 $-1 $453 forward single #
loop $-1 $-1 $454 $190 #
plane-surface $-1 -128.30873827350626 -9.5068743032850804 55.615150822411756 0 -1 0 0.84804810408105047 0 -0.52991925155115449 forward_v I I I I #
coedge $-1 $455 $456 $457 $458 reversed $191 $-1 #
coedge $-1 $305 $193 $459 $460 reversed $121 $-1 #
coedge $-1 $193 $304 $455 $461 reversed $121 $-1 #
coedge $-1 $457 $462 $193 $307 forward $452 $-1 #
edge $-1 $463 16.563805459883113 $464 20.470984022357484 $306 $465 forward 7 unknown #
loop $-1 $-1 $313 $194 #
plane-surface $-1 -47.590563676870019 -13.21077435197731 5.1768390533227162 -0.84804810408105047 0 0.52991925155115449 0.52991925155115449 0 0.84804810408105047 forward_v I I I I #
loop $-1 $-1 $466 $123 #
coedge $-1 $311 $311 $312 $467 reversed $195 $-1 #
coedge $-1 $312 $312 $311 $467 forward $197 $-1 #
coedge $-1 $313 $313 $198 $314 forward $308 $-1 #
edge $-1 $468 0 $468 6.2831853071796004 $313 $469 forward 7 unknown #
face $-1 $470 $471 $66 $-1 $472 forward single #
loop $-1 $-1 $473 $199 #
plane-surface $-1 -128.30873827350626 4.2961185408459777 55.615150822411756 0 -1 0 0.84804810408105047 0 -0.52991925155115449 forward_v I I I I #
coedge $-1 $474 $475 $476 $477 reversed $200 $-1 #
coedge $-1 $320 $202 $478 $479 reversed $127 $-1 #
coedge $-1 $202 $319 $474 $480 reversed $127 $-1 #
coedge $-1 $476 $481 $202 $322 forward $471 $-1 #
edge $-1 $482 16.563805459883113 $483 20.470984022357484 $321 $484 forward 7 unknown #
loop $-1 $-1 $328 $203 #
plane-surface $-1 -47.590563676870019 0.59221849215374789 5.1768390533227162 -0.84804810408105047 0 0.52991925155115449 0.52991925155115449 0 0.84804810408105047 forward_v I I I I #
loop $-1 $-1 $485 $129 #
coedge $-1 $326 $326 $327 $486 reversed $204 $-1 #
coedge $-1 $327 $327 $326 $486 forward $206 $-1 #
coedge $-1 $328 $328 $207 $329 forward $323 $-1 #
edge $-1 $487 0 $487 6.2831853071796004 $328 $488 forward 7 unknown #
face $-1 $489 $490 $68 $-1 $491 forward single #
loop $-1 $-1 $492 $208 #
plane-surface $-1 -128.30873827350626 18.099111384977039 55.615150822411756 0 -1 0 0.84804810408105047 0 -0.52991925155115449 forward_v I I I I #
coedge $-1 $493 $494 $495 $496 reversed $209 $-1 #
coedge $-1 $335 $211 $497 $498 reversed $133 $-1 #
coedge $-1 $211 $334 $493 $499 reversed $133 $-1 #
coedge $-1 $495 $500 $211 $337 forward $490 $-1 #
edge $-1 $501 16.563805459883113 $502 20.470984022357484 $336 $503 forward 7 unknown #
loop $-1 $-1 $343 $212 #
plane-surface $-1 -47.590563676870019 14.39521133628481 5.1768390533227162 -0.84804810408105047 0 0.52991925155115449 0.52991925155115449 0 0.84804810408105047 forward_v I I I I #
loop $-1 $-1 $504 $135 #
coedge $-1 $341 $341 $342 $505 reversed $213 $-1 #
coedge $-1 $342 $342 $341 $505 forward $215 $-1 #
coedge $-1 $343 $343 $216 $344 forward $338 $-1 #
edge $-1 $506 0 $506 6.2831853071796004 $343 $507 forward 7 unknown #
face $-1 $508 $509 $70 $-1 $510 reversed single #
loop $-1 $-1 $351 $217 #
plane-surface $-1 0 0 11.429632026051046 0 0 1 1 0 0 forward_v I I I I #
coedge $-1 $511 $512 $513 $514 reversed $218 $-1 #
coedge $-1 $350 $220 $515 $516 reversed $139 $-1 #
coedge $-1 $220 $349 $511 $517 reversed $139 $-1 #
coedge $-1 $513 $518 $220 $352 forward $346 $-1 #
edge $-1 $519 16.563805459883113 $520 20.470984022357484 $351 $521 forward 7 unknown #
loop $-1 $-1 $358 $221 #
plane-surface $-1 -47.590563676870019 28.198204180415871 5.1768390533227162 -0.84804810408105047 0 0.52991925155115449 0.52991925155115449 0 0.84804810408105047 forward_v I I I I #
loop $-1 $-1 $522 $141 #
coedge $-1 $356 $356 $357 $523 reversed $222 $-1 #
coedge $-1 $357 $357 $356 $523 forward $224 $-1 #
coedge $-1 $358 $358 $225 $359 forward $353 $-1 #
edge $-1 $524 0 $524 6.2831853071796004 $358 $525 forward 7 unknown #
face $-1 $526 $527 $54 $-1 $528 reversed single #
loop $-1 $-1 $529 $226 #
plane-surface $-1 -47.590563676870019 0 0 1 0 0 0 0 -1 forward_v I I I I #
coedge $-1 $371 $530 $373 $531 reversed $227 $-1 #
coedge $-1 $532 $229 $530 $533 forward $145 $-1 #
coedge $-1 $229 $532 $534 $535 forward $145 $-1 #
coedge $-1 $374 $373 $229 $367 reversed $375 $-1 #
edge $-1 $536 -31.902104229108105 $537 31.902104229108105 $366 $538 forward 7 unknown #
coedge $-1 $231 $230 $539 $540 forward $91 $-1 #
coedge $-1 $541 $542 $230 $370 reversed $527 $-1 #
edge $-1 $377 -47.590563676870019 $543 47.590563676870019 $369 $544 forward 7 unknown #
coedge $-1 $545 $363 $231 $372 reversed $227 $-1 #
edge $-1 $546 -47.590563676870019 $376 47.590563676870019 $371 $547 forward 7 unknown #
coedge $-1 $366 $232 $363 $531 forward $375 $-1 #
coedge $-1 $232 $366 $541 $548 reversed $375 $-1 #
loop $-1 $-1 $373 $526 #
vertex $-1 $233 $549 #
vertex $-1 $233 $550 #
straight-curve $-1 47.590563676870019 0 11.429632026051046 0 1 0 I I #
face $-1 $551 $552 $55 $-1 $553 reversed single #
loop $-1 $-1 $391 $234 #
plane-surface $-1 0 -39.395819143327387 -6.5602397363306757 0 0 1 1 0 0 forward_v I I I I #
coedge $-1 $554 $555 $238 $387 forward $235 $-1 #
coedge $-1 $556 $237 $555 $557 forward $149 $-1 #
coedge $-1 $237 $556 $558 $559 forward $149 $-1 #
coedge $-1 $239 $238 $237 $386 reversed $94 $-1 #
edge $-1 $560 -47.590563676870019 $561 47.590563676870019 $237 $562 forward 7 unknown #
edge $-1 $561 -11.429632026051046 $393 -6.5602397363306757 $382 $563 forward 7 unknown #
coedge $-1 $558 $564 $239 $389 forward $565 $-1 #
edge $-1 $392 6.5602397363306757 $560 11.429632026051046 $388 $566 forward 7 unknown #
coedge $-1 $567 $240 $564 $568 forward $380 $-1 #
coedge $-1 $240 $567 $554 $569 forward $380 $-1 #
vertex $-1 $389 $570 #
vertex $-1 $569 $571 #
straight-curve $-1 0 -31.902104229108105 -6.5602397363306757 1 0 0 I I #
face $-1 $-1 $407 $56 $-1 $572 forward single #
loop $-1 $-1 $573 $242 #
plane-surface $-1 47.590563676870019 0 0 -1 0 0 0 0 1 forward_v I I I I #
coedge $-1 $574 $575 $576 $577 reversed $243 $-1 #
coedge $-1 $578 $245 $247 $405 forward $153 $-1 #
coedge $-1 $245 $578 $574 $579 forward $153 $-1 #
coedge $-1 $576 $248 $245 $402 forward $407 $-1 #
edge $-1 $409 -3.4426663704692544 $580 7.9768918338226058 $401 $581 forward 7 unknown #
coedge $-1 $582 $583 $246 $404 forward $396 $-1 #
edge $-1 $584 -65.181213092371067 $408 -57.99559606719783 $403 $585 forward 7 unknown #
edge $-1 $409 85.019130420626183 $584 95.181127353740081 $247 $586 forward 7 unknown #
coedge $-1 $248 $576 $582 $587 forward $407 $-1 #
loop $-1 $-1 $576 $395 #
vertex $-1 $404 $588 #
vertex $-1 $249 $589 #
straight-curve $-1 23.795282619324098 1.1755536387925787 11.429632026051046 -1 0 0 I I #
coedge $-1 $411 $411 $-1 $590 reversed $252 $-1 #
edge $-1 $591 0 $591 6.2831853071796004 $253 $592 forward 7 unknown #
vertex $-1 $256 $593 #
ellipse-curve $-1 43.997755247654879 -7.9600929246409109 7.8368235134644344 0.70710678939079041 0 0.70710677298230451 0.17677669324557613 0 -0.1767766973476976 1 I I #
coedge $-1 $415 $415 $-1 $594 reversed $259 $-1 #
edge $-1 $595 0 $595 6.2831853071796004 $260 $596 forward 7 unknown #
vertex $-1 $263 $597 #
ellipse-curve $-1 43.997755247654879 -4.5342254633533514 7.8368235134644344 0.70710678939079041 0 0.70710677298230451 0.17677669324557613 0 -0.1767766973476976 1 I I #
coedge $-1 $419 $419 $-1 $598 reversed $266 $-1 #
edge $-1 $599 0 $599 6.2831853071796004 $267 $600 forward 7 unknown #
vertex $-1 $270 $601 #
ellipse-curve $-1 43.997755247654879 -1.1083580020657919 7.8368235134644344 0.70710678939079041 0 0.70710677298230451 0.17677669324557613 0 -0.1767766973476976 1 I I #
face $-1 $-1 $435 $60 $-1 $602 forward single #
loop $-1 $-1 $603 $271 #
plane-surface $-1 47.590563676870019 0 0 -1 0 0 0 0 1 forward_v I I I I #
coedge $-1 $604 $605 $606 $607 reversed $272 $-1 #
coedge $-1 $608 $274 $276 $433 forward $172 $-1 #
coedge $-1 $274 $608 $604 $609 forward $172 $-1 #
coedge $-1 $606 $277 $274 $430 forward $435 $-1 #
edge $-1 $437 -15.470606748041888 $610 -4.0510485437500279 $429 $611 forward 7 unknown #
coedge $-1 $612 $613 $275 $432 forward $424 $-1 #
edge $-1 $614 -65.181213092371067 $436 -57.99559606719783 $431 $615 forward 7 unknown #
edge $-1 $437 85.019130420626183 $614 95.181127353740081 $276 $616 forward 7 unknown #
coedge $-1 $277 $606 $612 $617 forward $435 $-1 #
loop $-1 $-1 $606 $423 #
vertex $-1 $432 $618 #
vertex $-1 $278 $619 #
straight-curve $-1 23.795282619324098 25.231434393937846 11.429632026051046 -1 0 0 I I #
coedge $-1 $439 $439 $-1 $620 reversed $281 $-1 #
edge $-1 $621 0 $621 6.2831853071796004 $282 $622 forward 7 unknown #
vertex $-1 $285 $623 #
ellipse-curve $-1 43.997755247654879 16.095787830504356 7.8368235134644344 0.70710678939079041 0 0.70710677298230451 0.17677669324557613 0 -0.1767766973476976 1 I I #
coedge $-1 $443 $443 $-1 $624 reversed $288 $-1 #
edge $-1 $625 0 $625 6.2831853071796004 $289 $626 forward 7 unknown #
vertex $-1 $292 $627 #
ellipse-curve $-1 43.997755247654879 19.521655291791916 7.8368235134644344 0.70710678939079041 0 0.70710677298230451 0.17677669324557613 0 -0.1767766973476976 1 I I #
coedge $-1 $447 $447 $-1 $628 reversed $295 $-1 #
edge $-1 $629 0 $629 6.2831853071796004 $296 $630 forward 7 unknown #
vertex $-1 $299 $631 #
ellipse-curve $-1 43.997755247654879 22.947522753079475 7.8368235134644344 0.70710678939079041 0 0.70710677298230451 0.17677669324557613 0 -0.1767766973476976 1 I I #
face $-1 $-1 $632 $64 $-1 $633 reversed single #
loop $-1 $-1 $306 $300 #
plane-surface $-1 0 0 11.429632026051046 0 0 1 1 0 0 forward_v I I I I #
coedge $-1 $634 $635 $636 $637 reversed $301 $-1 #
coedge $-1 $638 $303 $305 $461 forward $191 $-1 #
coedge $-1 $303 $638 $634 $639 forward $191 $-1 #
coedge $-1 $636 $306 $303 $458 forward $452 $-1 #
edge $-1 $464 -10.309287224680885 $640 -2.9014871272964253 $457 $641 forward 7 unknown #
coedge $-1 $642 $643 $304 $460 forward $632 $-1 #
edge $-1 $644 -22.630736357883162 $463 -16.377943385154833 $459 $645 forward 7 unknown #
edge $-1 $464 -7.3731583652367094 $644 0 $305 $646 forward 7 unknown #
coedge $-1 $306 $636 $642 $647 forward $452 $-1 #
vertex $-1 $460 $648 #
vertex $-1 $307 $649 #
straight-curve $-1 -64.154369136753132 -16.91467440066954 11.429632026051046 1 0 0 I I #
coedge $-1 $466 $466 $-1 $650 reversed $310 $-1 #
edge $-1 $651 0 $651 6.2831853071796004 $311 $652 forward 7 unknown #
vertex $-1 $314 $653 #
ellipse-curve $-1 -45.636974395632834 -13.21077435197731 8.3032355396868809 -0.84804810408105047 0 0.52991925155115449 0.79487887732673168 0 1.2720721561215758 1 I I #
face $-1 $-1 $654 $66 $-1 $655 reversed single #
loop $-1 $-1 $321 $315 #
plane-surface $-1 0 0 11.429632026051046 0 0 1 1 0 0 forward_v I I I I #
coedge $-1 $656 $657 $658 $659 reversed $316 $-1 #
coedge $-1 $660 $318 $320 $480 forward $200 $-1 #
coedge $-1 $318 $660 $656 $661 forward $200 $-1 #
coedge $-1 $658 $321 $318 $477 forward $471 $-1 #
edge $-1 $483 -3.4077908026153558 $662 4.0000092947691037 $476 $663 forward 7 unknown #
coedge $-1 $664 $665 $319 $479 forward $654 $-1 #
edge $-1 $666 -22.630736357883162 $482 -16.377943385154833 $478 $667 forward 7 unknown #
edge $-1 $483 -7.3731583652367094 $666 0 $320 $668 forward 7 unknown #
coedge $-1 $321 $658 $664 $669 forward $471 $-1 #
vertex $-1 $322 $670 #
vertex $-1 $322 $671 #
straight-curve $-1 -64.154369136753132 -3.1116815565384819 11.429632026051046 1 0 0 I I #
coedge $-1 $485 $485 $-1 $672 reversed $325 $-1 #
edge $-1 $673 0 $673 6.2831853071796004 $326 $674 forward 7 unknown #
vertex $-1 $329 $675 #
ellipse-curve $-1 -45.636974395632834 0.59221849215374789 8.3032355396868809 -0.84804810408105047 0 0.52991925155115449 0.79487887732673168 0 1.2720721561215758 1 I I #
face $-1 $-1 $676 $68 $-1 $677 reversed single #
loop $-1 $-1 $336 $330 #
plane-surface $-1 0 0 11.429632026051046 0 0 1 1 0 0 forward_v I I I I #
coedge $-1 $678 $679 $680 $681 reversed $331 $-1 #
coedge $-1 $682 $333 $335 $499 forward $209 $-1 #
coedge $-1 $333 $682 $678 $683 forward $209 $-1 #
coedge $-1 $680 $336 $333 $496 forward $490 $-1 #
edge $-1 $502 3.493705619450175 $684 10.901505716834635 $495 $685 forward 7 unknown #
coedge $-1 $686 $687 $334 $498 forward $676 $-1 #
edge $-1 $688 -22.630736357883162 $501 -16.377943385154833 $497 $689 forward 7 unknown #
edge $-1 $502 -7.3731583652367094 $688 0 $335 $690 forward 7 unknown #
coedge $-1 $336 $680 $686 $691 forward $490 $-1 #
vertex $-1 $337 $692 #
vertex $-1 $337 $693 #
straight-curve $-1 -64.154369136753132 10.69131128759258 11.429632026051046 1 0 0 I I #
coedge $-1 $504 $504 $-1 $694 reversed $340 $-1 #
edge $-1 $695 0 $695 6.2831853071796004 $341 $696 forward 7 unknown #
vertex $-1 $344 $697 #
ellipse-curve $-1 -45.636974395632834 14.39521133628481 8.3032355396868809 -0.84804810408105047 0 0.52991925155115449 0.79487887732673168 0 1.2720721561215758 1 I I #
face $-1 $-1 $698 $70 $-1 $699 reversed single #
loop $-1 $-1 $700 $345 #
plane-surface $-1 0 31.902104229108105 0 0 -1 0 0 0 -1 forward_v I I I I #
coedge $-1 $701 $348 $350 $517 forward $218 $-1 #
coedge $-1 $348 $701 $700 $702 reversed $218 $-1 #
coedge $-1 $703 $351 $348 $514 forward $346 $-1 #
edge $-1 $520 10.395202041515706 $704 17.803002138900165 $513 $705 forward 7 unknown #
coedge $-1 $706 $707 $349 $516 forward $698 $-1 #
edge $-1 $708 -22.630736357883162 $519 -16.377943385154833 $515 $709 forward 7 unknown #
edge $-1 $520 -7.3731583652367094 $708 0 $350 $710 forward 7 unknown #
coedge $-1 $351 $703 $706 $711 forward $346 $-1 #
vertex $-1 $516 $712 #
vertex $-1 $352 $713 #
straight-curve $-1 -64.154369136753132 24.494304131723641 11.429632026051046 1 0 0 I I #
coedge $-1 $522 $522 $-1 $714 reversed $355 $-1 #
edge $-1 $715 0 $715 6.2831853071796004 $356 $716 forward 7 unknown #
vertex $-1 $359 $717 #
ellipse-curve $-1 -45.636974395632834 28.198204180415871 8.3032355396868809 -0.84804810408105047 0 0.52991925155115449 0.79487887732673168 0 1.2720721561215758 1 I I #
face $-1 $-1 $375 $54 $-1 $718 reversed single #
loop $-1 $-1 $541 $360 #
plane-surface $-1 0 31.902104229108105 0 0 -1 0 0 0 -1 forward_v I I I I #
coedge $-1 $719 $539 $542 $720 forward $361 $-1 #
coedge $-1 $363 $545 $364 $533 reversed $227 $-1 #
edge $-1 $376 -11.429632026051046 $537 11.429632026051046 $373 $721 forward 7 unknown #
coedge $-1 $365 $364 $719 $722 forward $145 $-1 #
edge $-1 $537 -47.590563676870019 $723 47.590563676870019 $530 $724 forward 7 unknown #
coedge $-1 $542 $541 $365 $535 reversed $527 $-1 #
edge $-1 $725 -47.590563676870019 $536 47.590563676870019 $534 $726 forward 7 unknown #
vertex $-1 $367 $727 #
vertex $-1 $531 $728 #
straight-curve $-1 47.590563676870019 0 -11.429632026051046 0 -1 0 I I #
coedge $-1 $529 $729 $368 $540 reversed $361 $-1 #
edge $-1 $543 -31.902104229108105 $546 31.902104229108105 $539 $730 forward 7 unknown #
coedge $-1 $534 $369 $374 $548 forward $527 $-1 #
coedge $-1 $369 $534 $529 $720 reversed $527 $-1 #
vertex $-1 $370 $731 #
straight-curve $-1 0 31.902104229108105 11.429632026051046 -1 0 0 I I #
coedge $-1 $530 $371 $729 $732 forward $227 $-1 #
vertex $-1 $540 $733 #
straight-curve $-1 0 -31.902104229108105 11.429632026051046 1 0 0 I I #
edge $-1 $377 -11.429632026051046 $536 11.429632026051046 $374 $734 forward 7 unknown #
point $-1 47.590563676870019 -31.902104229108105 11.429632026051046 #
point $-1 47.590563676870019 31.902104229108105 11.429632026051046 #
face $-1 $-1 $565 $55 $-1 $735 reversed single #
loop $-1 $-1 $736 $379 #
plane-surface $-1 0 -46.889534057546669 -8.9949358811908606 0 1 0 0 0 1 forward_v I I I I #
coedge $-1 $737 $382 $391 $569 reversed $235 $-1 #
coedge $-1 $382 $737 $383 $557 reversed $235 $-1 #
coedge $-1 $384 $383 $738 $739 forward $149 $-1 #
edge $-1 $561 31.902104229108105 $740 46.889534057546669 $555 $741 forward 7 unknown #
coedge $-1 $742 $388 $384 $559 reversed $565 $-1 #
edge $-1 $743 -46.889534057546669 $560 -31.902104229108105 $558 $744 forward 7 unknown #
vertex $-1 $389 $745 #
vertex $-1 $557 $746 #
straight-curve $-1 0 -31.902104229108105 -11.429632026051046 1 0 0 I I #
straight-curve $-1 47.590563676870019 -31.902104229108105 0 0 0 1 I I #
coedge $-1 $388 $742 $390 $568 reversed $565 $-1 #
loop $-1 $-1 $388 $551 #
straight-curve $-1 -47.590563676870019 -31.902104229108105 0 0 0 -1 I I #
coedge $-1 $391 $390 $747 $748 forward $380 $-1 #
edge $-1 $392 -7.4937149142192823 $749 7.4937149142192823 $564 $750 forward 7 unknown #
edge $-1 $751 -7.4937149142192823 $393 7.4937149142192823 $554 $752 forward 7 unknown #
point $-1 -47.590563676870019 -31.902104229108105 -6.5602397363306757 #
point $-1 47.590563676870019 -31.902104229108105 -6.5602397363306757 #
plane-surface $-1 0 0 11.429632026051046 0 0 1 1 0 0 forward_v I I I I #
coedge $-1 $583 $582 $575 $753 forward $396 $-1 #
coedge $-1 $575 $398 $400 $579 reversed $243 $-1 #
coedge $-1 $398 $574 $573 $753 reversed $243 $-1 #
coedge $-1 $406 $401 $398 $577 forward $407 $-1 #
edge $-1 $580 16.609664199115677 $754 23.795281057545921 $576 $755 forward 7 unknown #
coedge $-1 $400 $399 $583 $756 reversed $153 $-1 #
edge $-1 $757 -95.181127353740081 $580 -85.019130420626183 $574 $758 forward 7 unknown #
vertex $-1 $402 $759 #
straight-curve $-1 40.404946818439775 -2.2671127316766757 11.429632026051038 0 -1 0 I I #
coedge $-1 $573 $403 $406 $587 reversed $396 $-1 #
coedge $-1 $403 $573 $578 $756 forward $396 $-1 #
vertex $-1 $404 $760 #
straight-curve $-1 47.590563676870019 1.1755536387925787 69.425228093248876 0 0 1 I I #
straight-curve $-1 -19.712656135050864 1.1755536387925787 71.547236374576883 0.70710677298230451 0 -0.70710678939079041 I I #
edge $-1 $754 -10.244004565499282 $408 1.1755536387925787 $582 $761 forward 7 unknown #
point $-1 47.590563676870019 1.1755536387925787 11.429632026051046 #
point $-1 40.404946818439775 1.1755536387925787 11.429632026051046 #
edge $-1 $762 1 $762 0 $411 $-1 forward 7 unknown #
vertex $-1 $412 $763 #
ellipse-curve $-1 43.290648458264101 -7.9600929246409109 7.1297167404821407 0.70710678939079041 0 0.70710677298230451 0.17677669324557613 0 -0.1767766973476976 1 I I #
point $-1 44.174531940900472 -7.9600929246409109 7.660046816116747 #
edge $-1 $764 1 $764 0 $415 $-1 forward 7 unknown #
vertex $-1 $416 $765 #
ellipse-curve $-1 43.290648458264101 -4.5342254633533514 7.1297167404821407 0.70710678939079041 0 0.70710677298230451 0.17677669324557613 0 -0.1767766973476976 1 I I #
point $-1 44.174531940900472 -4.5342254633533514 7.660046816116747 #
edge $-1 $766 1 $766 0 $419 $-1 forward 7 unknown #
vertex $-1 $420 $767 #
ellipse-curve $-1 43.290648458264101 -1.1083580020657919 7.1297167404821407 0.70710678939079041 0 0.70710677298230451 0.17677669324557613 0 -0.1767766973476976 1 I I #
point $-1 44.174531940900472 -1.1083580020657919 7.660046816116747 #
plane-surface $-1 0 0 11.429632026051046 0 0 1 1 0 0 forward_v I I I I #
coedge $-1 $613 $612 $605 $768 forward $424 $-1 #
coedge $-1 $605 $426 $428 $609 reversed $272 $-1 #
coedge $-1 $426 $604 $603 $768 reversed $272 $-1 #
coedge $-1 $434 $429 $426 $607 forward $435 $-1 #
edge $-1 $610 16.609664199115677 $769 23.795281057545921 $606 $770 forward 7 unknown #
coedge $-1 $428 $427 $613 $771 reversed $172 $-1 #
edge $-1 $772 -95.181127353740081 $610 -85.019130420626183 $604 $773 forward 7 unknown #
vertex $-1 $430 $774 #
straight-curve $-1 40.404946818439775 9.760827645895958 11.429632026051038 0 -1 0 I I #
coedge $-1 $603 $431 $434 $617 reversed $424 $-1 #
coedge $-1 $431 $603 $608 $771 forward $424 $-1 #
vertex $-1 $432 $775 #
straight-curve $-1 47.590563676870019 25.231434393937846 69.425228093248876 0 0 1 I I #
straight-curve $-1 -19.712656135050864 25.231434393937846 71.547236374576883 0.70710677298230451 0 -0.70710678939079041 I I #
edge $-1 $769 13.811876189645986 $436 25.231434393937846 $612 $776 forward 7 unknown #
point $-1 47.590563676870019 25.231434393937846 11.429632026051046 #
point $-1 40.404946818439775 25.231434393937846 11.429632026051046 #
edge $-1 $777 1 $777 0 $439 $-1 forward 7 unknown #
vertex $-1 $440 $778 #
ellipse-curve $-1 43.290648458264101 16.095787830504356 7.1297167404821407 0.70710678939079041 0 0.70710677298230451 0.17677669324557613 0 -0.1767766973476976 1 I I #
point $-1 44.174531940900472 16.095787830504356 7.660046816116747 #
edge $-1 $779 1 $779 0 $443 $-1 forward 7 unknown #
vertex $-1 $444 $780 #
ellipse-curve $-1 43.290648458264101 19.521655291791916 7.1297167404821407 0.70710678939079041 0 0.70710677298230451 0.17677669324557613 0 -0.1767766973476976 1 I I #
point $-1 44.174531940900472 19.521655291791916 7.660046816116747 #
edge $-1 $781 1 $781 0 $447 $-1 forward 7 unknown #
vertex $-1 $448 $782 #
ellipse-curve $-1 43.290648458264101 22.947522753079475 7.1297167404821407 0.70710678939079041 0 0.70710677298230451 0.17677669324557613 0 -0.1767766973476976 1 I I #
point $-1 44.174531940900472 22.947522753079475 7.660046816116747 #
loop $-1 $-1 $459 $451 #
plane-surface $-1 -47.590563676870019 0 0 1 0 0 0 0 -1 forward_v I I I I #
coedge $-1 $635 $454 $456 $639 reversed $301 $-1 #
coedge $-1 $454 $634 $783 $784 reversed $301 $-1 #
coedge $-1 $462 $457 $454 $637 forward $452 $-1 #
edge $-1 $640 -20.470984022357484 $785 -16.563805459883113 $636 $786 forward 7 unknown #
coedge $-1 $456 $455 $643 $787 reversed $191 $-1 #
edge $-1 $788 0 $640 7.3731583652367094 $634 $789 forward 7 unknown #
vertex $-1 $458 $790 #
straight-curve $-1 -43.683385114395641 -6.6053871759886551 11.429632026051046 0 1 0 I I #
coedge $-1 $783 $459 $462 $647 reversed $632 $-1 #
coedge $-1 $459 $783 $638 $787 forward $632 $-1 #
vertex $-1 $460 $791 #
straight-curve $-1 -47.590563676870019 -16.91467440066954 27.807575411205878 0 0 1 I I #
straight-curve $-1 -47.590563676870019 -16.91467440066954 5.1768390533227162 -0.52991925155115449 0 -0.84804810408105047 I I #
edge $-1 $785 9.5068743032850804 $463 16.91467440066954 $642 $792 forward 7 unknown #
point $-1 -47.590563676870019 -16.91467440066954 11.429632026051046 #
point $-1 -43.683385114395648 -16.91467440066954 11.429632026051046 #
edge $-1 $793 1 $793 0 $466 $-1 forward 7 unknown #
vertex $-1 $467 $794 #
ellipse-curve $-1 -42.192592611899975 -13.21077435197731 6.1509469983782559 -0.84804810408105047 0 0.52991925155115449 0.79487887732673168 0 1.2720721561215758 1 I I #
point $-1 -44.842095518306103 -13.21077435197731 9.5753076958084549 #
loop $-1 $-1 $478 $470 #
plane-surface $-1 -47.590563676870019 0 0 1 0 0 0 0 -1 forward_v I I I I #
coedge $-1 $657 $473 $475 $661 reversed $316 $-1 #
coedge $-1 $473 $656 $795 $796 reversed $316 $-1 #
coedge $-1 $481 $476 $473 $659 forward $471 $-1 #
edge $-1 $662 -20.470984022357484 $797 -16.563805459883113 $658 $798 forward 7 unknown #
coedge $-1 $475 $474 $665 $799 reversed $200 $-1 #
edge $-1 $800 0 $662 7.3731583652367094 $656 $801 forward 7 unknown #
vertex $-1 $477 $802 #
straight-curve $-1 -43.683385114395641 0.29610924607687394 11.429632026051046 0 1 0 I I #
coedge $-1 $795 $478 $481 $669 reversed $654 $-1 #
coedge $-1 $478 $795 $660 $799 forward $654 $-1 #
vertex $-1 $479 $803 #
straight-curve $-1 -47.590563676870019 -3.1116815565384819 27.807575411205878 0 0 1 I I #
straight-curve $-1 -47.590563676870019 -3.1116815565384819 5.1768390533227162 -0.52991925155115449 0 -0.84804810408105047 I I #
edge $-1 $797 -4.2961185408459777 $482 3.1116815565384819 $664 $804 forward 7 unknown #
point $-1 -47.590563676870019 -3.1116815565384819 11.429632026051046 #
point $-1 -43.683385114395648 -3.1116815565384819 11.429632026051046 #
edge $-1 $805 1 $805 0 $485 $-1 forward 7 unknown #
vertex $-1 $486 $806 #
ellipse-curve $-1 -42.192592611899975 0.59221849215374789 6.1509469983782559 -0.84804810408105047 0 0.52991925155115449 0.79487887732673168 0 1.2720721561215758 1 I I #
point $-1 -44.842095518306103 0.59221849215374789 9.5753076958084549 #
loop $-1 $-1 $497 $489 #
plane-surface $-1 -47.590563676870019 0 0 1 0 0 0 0 -1 forward_v I I I I #
coedge $-1 $679 $492 $494 $683 reversed $331 $-1 #
coedge $-1 $492 $678 $807 $808 reversed $331 $-1 #
coedge $-1 $500 $495 $492 $681 forward $490 $-1 #
edge $-1 $684 -20.470984022357484 $809 -16.563805459883113 $680 $810 forward 7 unknown #
coedge $-1 $494 $493 $687 $811 reversed $209 $-1 #
edge $-1 $812 0 $684 7.3731583652367094 $678 $813 forward 7 unknown #
vertex $-1 $496 $814 #
straight-curve $-1 -43.683385114395641 7.1976056681424048 11.429632026051046 0 1 0 I I #
coedge $-1 $807 $497 $500 $691 reversed $676 $-1 #
coedge $-1 $497 $807 $682 $811 forward $676 $-1 #
vertex $-1 $498 $815 #
straight-curve $-1 -47.590563676870019 10.69131128759258 27.807575411205878 0 0 1 I I #
straight-curve $-1 -47.590563676870019 10.69131128759258 5.1768390533227162 -0.52991925155115449 0 -0.84804810408105047 I I #
edge $-1 $809 -18.099111384977039 $501 -10.69131128759258 $686 $816 forward 7 unknown #
point $-1 -47.590563676870019 10.69131128759258 11.429632026051046 #
point $-1 -43.683385114395648 10.69131128759258 11.429632026051046 #
edge $-1 $817 1 $817 0 $504 $-1 forward 7 unknown #
vertex $-1 $505 $818 #
ellipse-curve $-1 -42.192592611899975 14.39521133628481 6.1509469983782559 -0.84804810408105047 0 0.52991925155115449 0.79487887732673168 0 1.2720721561215758 1 I I #
point $-1 -44.842095518306103 14.39521133628481 9.5753076958084549 #
loop $-1 $-1 $515 $508 #
plane-surface $-1 -47.590563676870019 0 0 1 0 0 0 0 -1 forward_v I I I I #
coedge $-1 $819 $820 $512 $702 forward $509 $-1 #
coedge $-1 $512 $511 $707 $821 reversed $218 $-1 #
edge $-1 $704 3.0413153048840154 $822 10.414473670120724 $700 $823 forward 7 unknown #
coedge $-1 $518 $513 $820 $824 forward $346 $-1 #
vertex $-1 $824 $825 #
straight-curve $-1 -43.683385114395641 14.099102090207936 11.429632026051046 0 1 0 I I #
coedge $-1 $826 $515 $518 $711 reversed $698 $-1 #
coedge $-1 $515 $826 $701 $821 forward $698 $-1 #
vertex $-1 $516 $827 #
straight-curve $-1 -47.590563676870019 24.494304131723641 27.807575411205878 0 0 1 I I #
straight-curve $-1 -47.590563676870019 24.494304131723641 5.1768390533227162 -0.52991925155115449 0 -0.84804810408105047 I I #
edge $-1 $828 -31.902104229108105 $519 -24.494304131723641 $706 $829 forward 7 unknown #
point $-1 -47.590563676870019 24.494304131723641 11.429632026051046 #
point $-1 -43.683385114395648 24.494304131723641 11.429632026051046 #
edge $-1 $830 1 $830 0 $522 $-1 forward 7 unknown #
vertex $-1 $523 $831 #
ellipse-curve $-1 -42.192592611899975 28.198204180415871 6.1509469983782559 -0.84804810408105047 0 0.52991925155115449 0.79487887732673168 0 1.2720721561215758 1 I I #
point $-1 -44.842095518306103 28.198204180415871 9.5753076958084549 #
plane-surface $-1 47.590563676870019 0 0 -1 0 0 0 0 1 forward_v I I I I #
coedge $-1 $729 $529 $532 $722 reversed $361 $-1 #
edge $-1 $543 -11.429632026051046 $725 11.429632026051046 $542 $832 forward 7 unknown #
straight-curve $-1 47.590563676870019 -31.902104229108105 0 0 0 -1 I I #
edge $-1 $723 -31.902104229108105 $725 31.902104229108105 $719 $833 forward 7 unknown #
vertex $-1 $722 $834 #
straight-curve $-1 0 -31.902104229108105 -11.429632026051046 -1 0 0 I I #
vertex $-1 $535 $835 #
straight-curve $-1 0 31.902104229108105 -11.429632026051046 1 0 0 I I #
point $-1 47.590563676870019 31.902104229108105 -11.429632026051046 #
point $-1 47.590563676870019 -31.902104229108105 -11.429632026051046 #
coedge $-1 $539 $719 $545 $732 reversed $361 $-1 #
straight-curve $-1 -47.590563676870019 0 11.429632026051046 0 -1 0 I I #
point $-1 -47.590563676870019 31.902104229108105 11.429632026051046 #
edge $-1 $546 -11.429632026051046 $723 11.429632026051046 $729 $836 forward 7 unknown #
point $-1 -47.590563676870019 -31.902104229108105 11.429632026051046 #
straight-curve $-1 47.590563676870019 31.902104229108105 0 0 0 -1 I I #
plane-surface $-1 -47.590563676870019 0 0 1 0 0 0 0 -1 forward_v I I I I #
coedge $-1 $738 $747 $742 $837 forward $552 $-1 #
coedge $-1 $555 $554 $838 $839 forward $235 $-1 #
coedge $-1 $838 $736 $556 $739 reversed $552 $-1 #
edge $-1 $740 -47.590563676870019 $743 47.590563676870019 $738 $840 forward 7 unknown #
vertex $-1 $839 $841 #
straight-curve $-1 47.590563676870019 0 -11.429632026051046 0 -1 0 I I #
coedge $-1 $564 $558 $736 $837 reversed $565 $-1 #
vertex $-1 $559 $842 #
straight-curve $-1 -47.590563676870019 0 -11.429632026051046 0 1 0 I I #
point $-1 -47.590563676870019 -31.902104229108105 -11.429632026051046 #
point $-1 47.590563676870019 -31.902104229108105 -11.429632026051046 #
coedge $-1 $736 $838 $567 $748 reversed $552 $-1 #
edge $-1 $749 -47.590563676870019 $751 47.590563676870019 $747 $843 forward 7 unknown #
vertex $-1 $568 $844 #
straight-curve $-1 -47.590563676870019 -39.395819143327387 -6.5602397363306757 0 -1 0 I I #
vertex $-1 $569 $845 #
straight-curve $-1 47.590563676870019 -39.395819143327387 -6.5602397363306757 0 1 0 I I #
edge $-1 $754 57.99559606719783 $757 65.181213092371067 $573 $846 forward 7 unknown #
vertex $-1 $587 $847 #
straight-curve $-1 23.795282619324098 -10.244004565499282 11.429632026051046 1 0 0 I I #
edge $-1 $757 -7.9768918338226058 $584 3.4426663704692544 $583 $848 forward 7 unknown #
vertex $-1 $756 $849 #
straight-curve $-1 -19.712656135050864 -10.244004565499282 71.547236374576883 -0.70710677298230451 0 0.70710678939079041 I I #
point $-1 40.404946818439775 -10.244004565499282 11.429632026051046 #
point $-1 47.590563676870019 1.1755536387925787 4.244015000877809 #
straight-curve $-1 47.590563676870019 0 11.429632026051046 0 1 0 I I #
vertex $-1 $590 $850 #
point $-1 43.46742515150968 -7.9600929246409109 6.9529400431344426 #
vertex $-1 $594 $851 #
point $-1 43.46742515150968 -4.5342254633533514 6.9529400431344426 #
vertex $-1 $598 $852 #
point $-1 43.46742515150968 -1.1083580020657919 6.9529400431344426 #
edge $-1 $769 57.99559606719783 $772 65.181213092371067 $603 $853 forward 7 unknown #
vertex $-1 $617 $854 #
straight-curve $-1 23.795282619324098 13.811876189645986 11.429632026051046 1 0 0 I I #
edge $-1 $772 4.0510485437500279 $614 15.470606748041888 $613 $855 forward 7 unknown #
vertex $-1 $771 $856 #
straight-curve $-1 -19.712656135050864 13.811876189645986 71.547236374576883 -0.70710677298230451 0 0.70710678939079041 I I #
point $-1 40.404946818439775 13.811876189645986 11.429632026051046 #
point $-1 47.590563676870019 25.231434393937846 4.244015000877809 #
straight-curve $-1 47.590563676870019 0 11.429632026051046 0 1 0 I I #
vertex $-1 $620 $857 #
point $-1 43.46742515150968 16.095787830504356 6.9529400431344426 #
vertex $-1 $624 $858 #
point $-1 43.46742515150968 19.521655291791916 6.9529400431344426 #
vertex $-1 $628 $859 #
point $-1 43.46742515150968 22.947522753079475 6.9529400431344426 #
coedge $-1 $643 $642 $635 $784 forward $632 $-1 #
edge $-1 $785 16.377943385154833 $788 22.630736357883162 $783 $860 forward 7 unknown #
vertex $-1 $647 $861 #
straight-curve $-1 -64.154369136753132 -9.5068743032850804 11.429632026051046 -1 0 0 I I #
edge $-1 $788 2.9014871272964253 $644 10.309287224680885 $643 $862 forward 7 unknown #
vertex $-1 $787 $863 #
straight-curve $-1 -47.590563676870019 -9.5068743032850804 5.1768390533227162 0.52991925155115449 0 0.84804810408105047 I I #
point $-1 -43.683385114395648 -9.5068743032850804 11.429632026051046 #
point $-1 -47.590563676870019 -16.91467440066954 5.1768390533227162 #
straight-curve $-1 -47.590563676870019 0 11.429632026051046 0 -1 0 I I #
vertex $-1 $650 $864 #
point $-1 -41.397713734573244 -13.21077435197731 7.4230191544998316 #
coedge $-1 $665 $664 $657 $796 forward $654 $-1 #
edge $-1 $797 16.377943385154833 $800 22.630736357883162 $795 $865 forward 7 unknown #
vertex $-1 $669 $866 #
straight-curve $-1 -64.154369136753132 4.2961185408459777 11.429632026051046 -1 0 0 I I #
edge $-1 $800 -4.0000092947691037 $666 3.4077908026153558 $665 $867 forward 7 unknown #
vertex $-1 $799 $868 #
straight-curve $-1 -47.590563676870019 4.2961185408459777 5.1768390533227162 0.52991925155115449 0 0.84804810408105047 I I #
point $-1 -43.683385114395648 4.2961185408459777 11.429632026051046 #
point $-1 -47.590563676870019 -3.1116815565384819 5.1768390533227162 #
straight-curve $-1 -47.590563676870019 0 11.429632026051046 0 -1 0 I I #
vertex $-1 $672 $869 #
point $-1 -41.397713734573244 0.59221849215374789 7.4230191544998316 #
coedge $-1 $687 $686 $679 $808 forward $676 $-1 #
edge $-1 $809 16.377943385154833 $812 22.630736357883162 $807 $870 forward 7 unknown #
vertex $-1 $691 $871 #
straight-curve $-1 -64.154369136753132 18.099111384977039 11.429632026051046 -1 0 0 I I #
edge $-1 $812 -10.901505716834635 $688 -3.493705619450175 $687 $872 forward 7 unknown #
vertex $-1 $811 $873 #
straight-curve $-1 -47.590563676870019 18.099111384977039 5.1768390533227162 0.52991925155115449 0 0.84804810408105047 I I #
point $-1 -43.683385114395648 18.099111384977039 11.429632026051046 #
point $-1 -47.590563676870019 10.69131128759258 5.1768390533227162 #
straight-curve $-1 -47.590563676870019 0 11.429632026051046 0 -1 0 I I #
vertex $-1 $694 $874 #
point $-1 -41.397713734573244 14.39521133628481 7.4230191544998316 #
coedge $-1 $820 $700 $826 $875 reversed $509 $-1 #
coedge $-1 $700 $819 $703 $824 reversed $509 $-1 #
edge $-1 $822 -17.803002138900165 $708 -10.395202041515706 $707 $876 forward 7 unknown #
vertex $-1 $702 $877 #
straight-curve $-1 -42.071733584300439 31.902104229108105 14.008813704270617 -0.52991925155115449 0 -0.84804810408105047 I I #
edge $-1 $704 43.683385114395648 $828 47.590563676870019 $820 $878 forward 7 unknown #
point $-1 -43.683385114395648 31.902104229108101 11.429632026051046 #
coedge $-1 $707 $706 $819 $875 forward $698 $-1 #
point $-1 -47.590563676870019 24.494304131723641 5.1768390533227162 #
vertex $-1 $824 $879 #
straight-curve $-1 -47.590563676870019 0 11.429632026051046 0 -1 0 I I #
vertex $-1 $714 $880 #
point $-1 -41.397713734573244 28.198204180415871 7.4230191544998316 #
straight-curve $-1 -47.590563676870019 31.902104229108105 0 0 0 -1 I I #
straight-curve $-1 -47.590563676870019 0 -11.429632026051046 0 1 0 I I #
point $-1 -47.590563676870019 -31.902104229108105 -11.429632026051046 #
point $-1 -47.590563676870019 31.902104229108105 -11.429632026051046 #
straight-curve $-1 -47.590563676870019 -31.902104229108105 0 0 0 -1 I I #
edge $-1 $749 -2.4346961448601849 $743 2.4346961448601849 $742 $881 forward 7 unknown #
coedge $-1 $747 $738 $737 $839 reversed $552 $-1 #
edge $-1 $751 -2.4346961448601849 $740 2.4346961448601849 $737 $882 forward 7 unknown #
straight-curve $-1 0 -46.889534057546669 -11.429632026051046 -1 0 0 I I #
point $-1 47.590563676870019 -46.889534057546669 -11.429632026051046 #
point $-1 -47.590563676870019 -46.889534057546669 -11.429632026051046 #
straight-curve $-1 0 -46.889534057546669 -6.5602397363306757 1 0 0 I I #
point $-1 -47.590563676870019 -46.889534057546669 -6.5602397363306757 #
point $-1 47.590563676870019 -46.889534057546669 -6.5602397363306757 #
straight-curve $-1 47.590563676870019 -10.244004565499282 69.425228093248876 0 0 -1 I I #
point $-1 47.590563676870019 -10.244004565499282 11.429632026051046 #
straight-curve $-1 47.590563676870019 -2.2671127316766757 4.2440150008778161 0 1 0 I I #
point $-1 47.590563676870019 -10.244004565499282 4.244015000877809 #
point $-1 43.11387176091641 -7.9600929246409109 6.9529400472365639 #
point $-1 43.11387176091641 -4.5342254633533514 6.9529400472365639 #
point $-1 43.11387176091641 -1.1083580020657919 6.9529400472365639 #
straight-curve $-1 47.590563676870019 13.811876189645986 69.425228093248876 0 0 -1 I I #
point $-1 47.590563676870019 13.811876189645986 11.429632026051046 #
straight-curve $-1 47.590563676870019 9.760827645895958 4.2440150008778161 0 1 0 I I #
point $-1 47.590563676870019 13.811876189645986 4.244015000877809 #
point $-1 43.11387176091641 16.095787830504356 6.9529400472365639 #
point $-1 43.11387176091641 19.521655291791916 6.9529400472365639 #
point $-1 43.11387176091641 22.947522753079475 6.9529400472365639 #
straight-curve $-1 -47.590563676870019 -9.5068743032850804 27.807575411205878 0 0 -1 I I #
point $-1 -47.590563676870019 -9.5068743032850804 11.429632026051046 #
straight-curve $-1 -47.590563676870019 -6.6053871759886551 5.1768390533227127 0 -1 0 I I #
point $-1 -47.590563676870019 -9.5068743032850804 5.1768390533227162 #
point $-1 -40.920520455778394 -13.21077435197731 5.3560681210515249 #
straight-curve $-1 -47.590563676870019 4.2961185408459777 27.807575411205878 0 0 -1 I I #
point $-1 -47.590563676870019 4.2961185408459777 11.429632026051046 #
straight-curve $-1 -47.590563676870019 0.29610924607687394 5.1768390533227127 0 -1 0 I I #
point $-1 -47.590563676870019 4.2961185408459777 5.1768390533227162 #
point $-1 -40.920520455778394 0.59221849215374789 5.3560681210515249 #
straight-curve $-1 -47.590563676870019 18.099111384977039 27.807575411205878 0 0 -1 I I #
point $-1 -47.590563676870019 18.099111384977039 11.429632026051046 #
straight-curve $-1 -47.590563676870019 7.1976056681424048 5.1768390533227127 0 -1 0 I I #
point $-1 -47.590563676870019 18.099111384977039 5.1768390533227162 #
point $-1 -40.920520455778394 14.39521133628481 5.3560681210515249 #
edge $-1 $828 -11.429632026051046 $822 -5.1768390533227162 $819 $883 forward 7 unknown #
straight-curve $-1 -47.590563676870019 14.099102090207936 5.1768390533227127 0 -1 0 I I #
point $-1 -47.590563676870019 31.902104229108101 5.1768390533227162 #
straight-curve $-1 0 31.902104229108105 11.429632026051046 -1 0 0 I I #
point $-1 -47.590563676870019 31.902104229108105 11.429632026051046 #
point $-1 -40.920520455778394 28.198204180415871 5.3560681210515249 #
straight-curve $-1 -47.590563676870019 -46.889534057546669 -8.9949358811908606 0 0 -1 I I #
straight-curve $-1 47.590563676870019 -46.889534057546669 -8.9949358811908606 0 0 -1 I I #
straight-curve $-1 -47.590563676870019 31.902104229108105 0 0 0 -1 I I #
End-of-ACIS-data 