500 0 5 0           
7 Unknown 11 ACIS 5.0 NT 24 Thu Mar 25 15:28:15 1999 
-1 9.9999999999999995e-007 1e-010 
body $-1 $5 $-1 $6 #
body $-1 $7 $-1 $8 #
body $-1 $9 $-1 $10 #
body $-1 $11 $-1 $12 #
body $-1 $13 $-1 $14 #
lump $-1 $-1 $15 $0 #
transform $-1 1 0 0 0 1 0 0 0 1 45.420087282937104 25.540152965043269 5.7587912275041715 1 rotate no_reflect no_shear #
lump $-1 $-1 $16 $1 #
transform $-1 1 0 0 0 1 0 0 0 1 45.420087282937104 25.540152965043269 5.7587912275041715 1 rotate no_reflect no_shear #
lump $-1 $-1 $17 $2 #
transform $-1 1 0 0 0 1 0 0 0 1 45.420087282937104 25.540152965043269 5.7587912275041715 1 rotate no_reflect no_shear #
lump $-1 $-1 $18 $3 #
transform $-1 1 0 0 0 1 0 0 0 1 45.420087282937104 25.540152965043269 5.7587912275041715 1 rotate no_reflect no_shear #
lump $-1 $-1 $19 $4 #
transform $-1 1 0 0 0 1 0 0 0 1 45.420087282937104 25.540152965043269 5.7587912275041715 1 rotate no_reflect no_shear #
shell $-1 $-1 $-1 $20 $-1 $5 #
shell $-1 $-1 $-1 $21 $-1 $7 #
shell $-1 $-1 $-1 $22 $-1 $9 #
shell $-1 $-1 $-1 $23 $-1 $11 #
shell $-1 $-1 $-1 $24 $-1 $13 #
face $-1 $25 $26 $15 $-1 $27 forward single #
face $-1 $28 $29 $16 $-1 $30 forward single #
face $-1 $31 $32 $17 $-1 $33 forward single #
face $-1 $34 $35 $18 $-1 $36 reversed single #
face $-1 $37 $38 $19 $-1 $39 reversed single #
face $-1 $40 $41 $15 $-1 $42 reversed single #
loop $-1 $-1 $43 $20 #
plane-surface $-1 0 0 5.7587912275041715 0 0 1 1 0 0 forward_v I I I I #
face $-1 $44 $45 $16 $-1 $46 forward single #
loop $-1 $-1 $47 $21 #
plane-surface $-1 0 -22.625435171631654 2.7587912275041715 0 0 1 1 0 0 forward_v I I I I #
face $-1 $48 $49 $17 $-1 $50 forward single #
loop $-1 $-1 $51 $22 #
plane-surface $-1 20.907351543150966 -19.710717378220039 126.27430866842774 0 1 0 0.55919291073839883 0 0.82903756765294845 forward_v I I I I #
face $-1 $52 $53 $18 $-1 $54 reversed single #
loop $-1 $55 $56 $23 #
cone-surface $-1 40.318170438548734 -17.29052271017391 1.5442094363913605 -0.55919291073839883 0 -0.82903756765294845 0.82903756765294845 0 -0.55919291073839883 1 I I 0 1 1 forward I I I I #
face $-1 $57 $58 $19 $-1 $59 reversed single #
loop $-1 $60 $61 $24 #
cone-surface $-1 40.318170438548734 -13.660230708104713 1.5442094363913605 -0.55919291073839883 0 -0.82903756765294845 0.82903756765294845 0 -0.55919291073839883 1 I I 0 1 1 forward I I I I #
face $-1 $62 $63 $15 $-1 $64 reversed single #
loop $-1 $-1 $65 $25 #
plane-surface $-1 0 0 -5.7587912275041715 0 0 1 1 0 0 forward_v I I I I #
coedge $-1 $66 $67 $68 $69 forward $26 $-1 #
face $-1 $70 $71 $16 $-1 $72 forward single #
loop $-1 $-1 $73 $28 #
plane-surface $-1 0 -19.710717378220039 4.2587912275041715 0 -1 0 0 0 -1 forward_v I I I I #
coedge $-1 $74 $75 $76 $77 reversed $29 $-1 #
face $-1 $78 $79 $17 $-1 $80 forward single #
loop $-1 $-1 $81 $31 #
plane-surface $-1 20.907351543150966 -11.240036040058584 126.27430866842774 0 -1 0 -0.55919291073839883 0 -0.82903756765294845 forward_v I I I I #
coedge $-1 $82 $83 $84 $85 forward $32 $-1 #
face $-1 $86 $87 $18 $-1 $88 forward single #
loop $-1 $89 $90 $34 #
cone-surface $-1 39.081587342381724 -17.29052271017391 -0.28910036164119202 -0.55919291073839883 0 -0.82903756765294845 0.41451878382647422 0 -0.27959645536919941 1 I I -0.70710678118654735 0.70710678118654768 0.5 forward I I I I #
loop $-1 $-1 $91 $23 #
coedge $-1 $56 $56 $92 $93 reversed $35 $-1 #
face $-1 $94 $95 $19 $-1 $96 reversed single #
loop $-1 $97 $98 $37 #
cone-surface $-1 39.081587342381724 -13.660230708104713 -0.28910036164119202 -0.55919291073839883 0 -0.82903756765294845 0.41451878382647422 0 -0.27959645536919941 1 I I -0.70710678118654735 0.70710678118654768 0.5 forward I I I I #
loop $-1 $-1 $99 $24 #
coedge $-1 $61 $61 $100 $101 reversed $38 $-1 #
face $-1 $102 $103 $15 $-1 $104 reversed single #
loop $-1 $-1 $105 $40 #
plane-surface $-1 0 -25.540152965043269 0 0 1 0 0 0 1 forward_v I I I I #
coedge $-1 $106 $107 $108 $109 forward $41 $-1 #
coedge $-1 $110 $43 $111 $112 forward $26 $-1 #
coedge $-1 $43 $110 $113 $114 forward $26 $-1 #
coedge $-1 $115 $116 $43 $69 reversed $117 $-1 #
edge $-1 $118 -25.540152965043269 $119 25.540152965043269 $68 $120 forward 7 unknown #
face $-1 $121 $122 $16 $-1 $123 reversed single #
loop $-1 $-1 $124 $44 #
plane-surface $-1 0 0 5.7587912275041715 0 0 1 1 0 0 forward_v I I I I #
coedge $-1 $125 $126 $127 $128 reversed $45 $-1 #
coedge $-1 $129 $47 $126 $130 reversed $29 $-1 #
coedge $-1 $47 $129 $131 $132 reversed $29 $-1 #
coedge $-1 $133 $127 $47 $77 forward $122 $-1 #
edge $-1 $134 8.397999792404212 $135 14.227435379227442 $76 $136 forward 7 unknown #
face $-1 $137 $138 $17 $-1 $139 forward single #
loop $-1 $-1 $140 $48 #
plane-surface $-1 -29.889830084324494 -15.475376709139312 50.964391301166145 0.55919291073839883 0 0.82903756765294845 0.82903756765294845 0 -0.55919291073839883 forward_v I I I I #
coedge $-1 $141 $142 $143 $144 reversed $49 $-1 #
coedge $-1 $83 $51 $145 $146 reversed $32 $-1 #
coedge $-1 $51 $82 $147 $148 forward $32 $-1 #
coedge $-1 $149 $150 $51 $85 reversed $151 $-1 #
edge $-1 $152 41.577909697189945 $153 45.420087282937104 $84 $154 forward 7 unknown #
face $-1 $155 $156 $18 $-1 $157 forward single #
loop $-1 $-1 $158 $52 #
plane-surface $-1 20.907351543150966 -19.710717378220039 126.27430866842774 0 1 0 0.55919291073839883 0 0.82903756765294845 forward_v I I I I #
loop $-1 $-1 $159 $34 #
coedge $-1 $90 $90 $91 $160 forward $53 $-1 #
coedge $-1 $91 $91 $90 $160 reversed $55 $-1 #
coedge $-1 $92 $92 $56 $93 forward $161 $-1 #
edge $-1 $162 0 $162 6.2831853071796004 $92 $163 forward 7 unknown #
face $-1 $164 $165 $19 $-1 $166 reversed single #
loop $-1 $167 $168 $57 #
cone-surface $-1 40.318170438548734 -17.29052271017391 1.5442094363913605 -0.55919291073839883 0 -0.82903756765294845 0.82903756765294845 0 -0.55919291073839883 1 I I 0 1 1 forward I I I I #
loop $-1 $-1 $169 $37 #
coedge $-1 $98 $98 $99 $170 forward $58 $-1 #
coedge $-1 $99 $99 $98 $170 reversed $60 $-1 #
coedge $-1 $100 $100 $61 $101 forward $171 $-1 #
edge $-1 $172 0 $172 6.2831853071796004 $100 $173 forward 7 unknown #
face $-1 $174 $175 $15 $-1 $176 reversed single #
loop $-1 $-1 $177 $62 #
plane-surface $-1 -45.420087282937104 0 0 1 0 0 0 0 -1 forward_v I I I I #
coedge $-1 $178 $113 $179 $180 forward $63 $-1 #
coedge $-1 $181 $65 $178 $182 forward $41 $-1 #
coedge $-1 $65 $181 $183 $184 forward $41 $-1 #
coedge $-1 $116 $115 $65 $109 reversed $117 $-1 #
edge $-1 $185 -25.540152965043269 $186 25.540152965043269 $108 $187 forward 7 unknown #
coedge $-1 $67 $66 $188 $189 forward $26 $-1 #
coedge $-1 $190 $191 $66 $112 reversed $175 $-1 #
edge $-1 $119 -45.420087282937104 $192 45.420087282937104 $111 $193 forward 7 unknown #
coedge $-1 $105 $194 $67 $114 reversed $63 $-1 #
edge $-1 $195 -45.420087282937104 $118 45.420087282937104 $113 $196 forward 7 unknown #
coedge $-1 $108 $68 $194 $197 forward $117 $-1 #
coedge $-1 $68 $108 $190 $198 reversed $117 $-1 #
loop $-1 $-1 $115 $174 #
vertex $-1 $69 $199 #
vertex $-1 $69 $200 #
straight-curve $-1 45.420087282937104 0 5.7587912275041715 0 1 0 I I #
face $-1 $201 $202 $16 $-1 $203 reversed single #
loop $-1 $-1 $127 $70 #
plane-surface $-1 45.420087282937104 0 0 -1 0 0 0 0 1 forward_v I I I I #
coedge $-1 $204 $205 $125 $206 forward $71 $-1 #
coedge $-1 $207 $73 $124 $206 reversed $45 $-1 #
coedge $-1 $73 $207 $74 $130 forward $45 $-1 #
coedge $-1 $76 $208 $73 $128 forward $122 $-1 #
edge $-1 $209 -3.6293956137520857 $134 -0.62939561375208575 $127 $210 forward 7 unknown #
coedge $-1 $75 $74 $211 $212 reversed $29 $-1 #
edge $-1 $213 -45.420087282937104 $134 45.420087282937104 $126 $214 forward 7 unknown #
coedge $-1 $215 $216 $75 $132 forward $217 $-1 #
edge $-1 $135 -45.420087282937104 $218 45.420087282937104 $131 $219 forward 7 unknown #
coedge $-1 $220 $76 $216 $221 forward $122 $-1 #
vertex $-1 $77 $222 #
vertex $-1 $221 $223 #
straight-curve $-1 45.420087282937104 -11.312717585815827 2.7587912275041715 0 -1 0 I I #
face $-1 $224 $151 $17 $-1 $225 forward single #
loop $-1 $-1 $226 $78 #
plane-surface $-1 0 0 5.7587912275041715 0 0 1 1 0 0 forward_v I I I I #
coedge $-1 $227 $228 $226 $229 reversed $79 $-1 #
coedge $-1 $142 $81 $228 $230 forward $49 $-1 #
coedge $-1 $81 $141 $231 $232 reversed $49 $-1 #
coedge $-1 $233 $226 $81 $144 forward $138 $-1 #
edge $-1 $234 26.676551104180476 $235 34.966411511361621 $143 $236 forward 7 unknown #
coedge $-1 $237 $238 $82 $146 forward $239 $-1 #
edge $-1 $240 -62.969944660523183 $153 -60.378363106709699 $145 $241 forward 7 unknown #
coedge $-1 $242 $227 $83 $148 reversed $79 $-1 #
edge $-1 $240 -90.840174565874207 $152 -86.205670973202814 $83 $243 forward 7 unknown #
coedge $-1 $244 $84 $245 $246 reversed $151 $-1 #
coedge $-1 $84 $247 $237 $248 reversed $151 $-1 #
loop $-1 $-1 $150 $137 #
vertex $-1 $85 $249 #
vertex $-1 $248 $250 #
straight-curve $-1 0 -19.710717378220039 2.7587912275041715 1 0 0 I I #
face $-1 $251 $161 $18 $-1 $252 forward single #
loop $-1 $-1 $253 $86 #
plane-surface $-1 20.907351543150966 -11.240036040058584 126.27430866842774 0 -1 0 -0.55919291073839883 0 -0.82903756765294845 forward_v I I I I #
coedge $-1 $254 $255 $256 $257 forward $87 $-1 #
coedge $-1 $159 $159 $-1 $258 forward $89 $-1 #
edge $-1 $259 0 $259 6.2831853071796004 $90 $260 forward 7 unknown #
loop $-1 $261 $92 $155 #
vertex $-1 $93 $262 #
ellipse-curve $-1 41.275157079346535 -17.29052271017391 2.9630004505974217 -0.55919291073839883 0 -0.82903756765294845 0.82903756765294845 0 -0.55919291073839883 1 I I #
face $-1 $263 $264 $19 $-1 $265 forward single #
loop $-1 $266 $267 $94 #
cone-surface $-1 39.081587342381724 -17.29052271017391 -0.28910036164119202 -0.55919291073839883 0 -0.82903756765294845 0.41451878382647422 0 -0.27959645536919941 1 I I -0.70710678118654735 0.70710678118654768 0.5 forward I I I I #
loop $-1 $-1 $268 $57 #
coedge $-1 $168 $168 $269 $270 reversed $95 $-1 #
coedge $-1 $169 $169 $-1 $271 forward $97 $-1 #
edge $-1 $272 0 $272 6.2831853071796004 $98 $273 forward 7 unknown #
loop $-1 $274 $100 $275 #
vertex $-1 $101 $276 #
ellipse-curve $-1 41.275157079346535 -13.660230708104713 2.9630004505974217 -0.55919291073839883 0 -0.82903756765294845 0.82903756765294845 0 -0.55919291073839883 1 I I #
face $-1 $-1 $117 $15 $-1 $277 reversed single #
loop $-1 $-1 $190 $102 #
plane-surface $-1 0 25.540152965043269 0 0 -1 0 0 0 -1 forward_v I I I I #
coedge $-1 $278 $188 $191 $279 forward $103 $-1 #
coedge $-1 $194 $105 $106 $182 reversed $63 $-1 #
coedge $-1 $188 $278 $105 $180 reversed $103 $-1 #
edge $-1 $195 -5.7587912275041715 $280 5.7587912275041715 $179 $281 forward 7 unknown #
coedge $-1 $107 $106 $278 $282 forward $41 $-1 #
edge $-1 $186 -45.420087282937104 $280 45.420087282937104 $178 $283 forward 7 unknown #
coedge $-1 $191 $190 $107 $184 reversed $175 $-1 #
edge $-1 $284 -45.420087282937104 $185 45.420087282937104 $183 $285 forward 7 unknown #
vertex $-1 $109 $286 #
vertex $-1 $197 $287 #
straight-curve $-1 45.420087282937104 0 -5.7587912275041715 0 -1 0 I I #
coedge $-1 $177 $179 $110 $189 reversed $103 $-1 #
edge $-1 $192 -25.540152965043269 $195 25.540152965043269 $188 $288 forward 7 unknown #
coedge $-1 $183 $111 $116 $198 forward $175 $-1 #
coedge $-1 $111 $183 $177 $279 reversed $175 $-1 #
vertex $-1 $112 $289 #
straight-curve $-1 0 25.540152965043269 5.7587912275041715 -1 0 0 I I #
coedge $-1 $113 $178 $115 $197 reversed $63 $-1 #
vertex $-1 $189 $290 #
straight-curve $-1 0 -25.540152965043269 5.7587912275041715 1 0 0 I I #
edge $-1 $118 -5.7587912275041715 $186 5.7587912275041715 $115 $291 forward 7 unknown #
edge $-1 $119 -5.7587912275041715 $185 5.7587912275041715 $116 $292 forward 7 unknown #
point $-1 45.420087282937104 -25.540152965043269 5.7587912275041715 #
point $-1 45.420087282937104 25.540152965043269 5.7587912275041715 #
face $-1 $293 $217 $16 $-1 $294 reversed single #
loop $-1 $-1 $295 $121 #
plane-surface $-1 0 0 -5.7587912275041715 0 0 1 1 0 0 forward_v I I I I #
coedge $-1 $296 $124 $208 $297 forward $71 $-1 #
coedge $-1 $124 $296 $298 $299 forward $71 $-1 #
edge $-1 $300 -45.420087282937104 $209 45.420087282937104 $124 $301 forward 7 unknown #
coedge $-1 $126 $125 $302 $303 reversed $45 $-1 #
coedge $-1 $127 $304 $204 $297 reversed $122 $-1 #
vertex $-1 $297 $305 #
straight-curve $-1 45.420087282937104 -19.710717378220039 2.1293956137520857 0 0 -1 I I #
coedge $-1 $302 $306 $129 $212 forward $307 $-1 #
edge $-1 $218 -14.227435379227442 $213 -8.397999792404212 $211 $308 forward 7 unknown #
vertex $-1 $212 $309 #
straight-curve $-1 0 -19.710717378220039 2.7587912275041715 1 0 0 I I #
coedge $-1 $310 $131 $306 $311 forward $217 $-1 #
coedge $-1 $131 $310 $133 $221 reversed $217 $-1 #
loop $-1 $-1 $131 $201 #
vertex $-1 $311 $312 #
straight-curve $-1 0 -25.540152965043269 2.7587912275041715 -1 0 0 I I #
coedge $-1 $304 $133 $295 $313 reversed $122 $-1 #
edge $-1 $135 -2.7587912275041715 $314 5.7587912275041715 $133 $315 forward 7 unknown #
point $-1 45.420087282937104 -19.710717378220039 2.7587912275041715 #
point $-1 45.420087282937104 -25.540152965043269 2.7587912275041715 #
face $-1 $316 $317 $17 $-1 $318 forward single #
plane-surface $-1 0 -22.625435171631654 2.7587912275041715 0 0 1 1 0 0 forward_v I I I I #
coedge $-1 $143 $319 $140 $229 forward $138 $-1 #
coedge $-1 $147 $140 $320 $321 reversed $79 $-1 #
coedge $-1 $140 $242 $141 $230 reversed $79 $-1 #
edge $-1 $322 -11.973029023650383 $234 -3.5023476854889282 $226 $323 forward 7 unknown #
edge $-1 $234 80.840796093014177 $324 90.840174565874207 $141 $325 forward 7 unknown #
coedge $-1 $238 $326 $142 $232 forward $239 $-1 #
edge $-1 $235 57.378363106709699 $324 62.969944660523183 $231 $327 forward 7 unknown #
coedge $-1 $328 $143 $326 $329 forward $138 $-1 #
vertex $-1 $229 $330 #
vertex $-1 $329 $331 #
straight-curve $-1 10.453675771575483 -11.240036040058584 5.7587912275041688 1 0 0 I I #
coedge $-1 $332 $145 $150 $248 forward $239 $-1 #
coedge $-1 $145 $231 $242 $333 forward $239 $-1 #
loop $-1 $-1 $145 $316 #
vertex $-1 $333 $334 #
straight-curve $-1 45.420087282937104 -19.710717378220039 63.137154334213868 0 0 1 I I #
coedge $-1 $228 $147 $238 $333 reversed $79 $-1 #
straight-curve $-1 -29.889830084324494 -19.710717378220039 50.964391301166145 -0.82903756765294845 0 0.55919291073839883 I I #
coedge $-1 $247 $149 $335 $336 reversed $151 $-1 #
coedge $-1 $320 $337 $149 $246 forward $317 $-1 #
edge $-1 $338 -45.420087282937104 $152 41.577909697189945 $245 $154 forward 7 unknown #
coedge $-1 $150 $244 $339 $340 reversed $151 $-1 #
edge $-1 $153 8.397999792404212 $341 14.227435379227442 $237 $342 forward 7 unknown #
point $-1 41.577909697189945 -19.710717378220039 2.7587912275041617 #
point $-1 45.420087282937104 -19.710717378220039 2.7587912275041715 #
face $-1 $343 $344 $18 $-1 $345 forward single #
plane-surface $-1 -29.889830084324494 -15.475376709139312 50.964391301166145 0.55919291073839883 0 0.82903756765294845 0.82903756765294845 0 -0.55919291073839883 forward_v I I I I #
coedge $-1 $346 $347 $348 $349 reversed $156 $-1 #
coedge $-1 $255 $158 $350 $351 reversed $87 $-1 #
coedge $-1 $158 $254 $352 $353 forward $87 $-1 #
coedge $-1 $354 $355 $158 $257 reversed $356 $-1 #
edge $-1 $357 41.577909697189945 $358 45.420087282937104 $256 $359 forward 7 unknown #
edge $-1 $360 1 $360 0 $159 $-1 forward 7 unknown #
vertex $-1 $160 $361 #
ellipse-curve $-1 39.361183797750925 -17.29052271017391 0.12541842218528237 0.55919291073839883 0 0.82903756765294845 0.82903756765294845 0 -0.55919291073839883 1 I I #
loop $-1 $-1 $362 $155 #
point $-1 42.104194646999488 -17.29052271017391 2.4038075398590402 #
face $-1 $275 $363 $19 $-1 $364 forward single #
loop $-1 $-1 $365 $164 #
plane-surface $-1 20.907351543150966 -19.710717378220039 126.27430866842774 0 1 0 0.55919291073839883 0 0.82903756765294845 forward_v I I I I #
loop $-1 $-1 $366 $94 #
coedge $-1 $267 $267 $268 $367 forward $165 $-1 #
coedge $-1 $268 $268 $267 $367 reversed $167 $-1 #
coedge $-1 $269 $269 $168 $270 forward $274 $-1 #
edge $-1 $368 0 $368 6.2831853071796004 $269 $369 forward 7 unknown #
edge $-1 $370 1 $370 0 $169 $-1 forward 7 unknown #
vertex $-1 $170 $371 #
ellipse-curve $-1 39.361183797750925 -13.660230708104713 0.12541842218528237 0.55919291073839883 0 0.82903756765294845 0.82903756765294845 0 -0.55919291073839883 1 I I #
loop $-1 $372 $269 $275 #
face $-1 $373 $171 $19 $-1 $374 forward single #
point $-1 42.104194646999488 -13.660230708104713 2.4038075398590402 #
plane-surface $-1 45.420087282937104 0 0 -1 0 0 0 0 1 forward_v I I I I #
coedge $-1 $179 $177 $181 $282 reversed $103 $-1 #
edge $-1 $192 -5.7587912275041715 $284 5.7587912275041715 $191 $375 forward 7 unknown #
vertex $-1 $282 $376 #
straight-curve $-1 -45.420087282937104 -25.540152965043269 0 0 0 -1 I I #
edge $-1 $280 -25.540152965043269 $284 25.540152965043269 $278 $377 forward 7 unknown #
straight-curve $-1 0 -25.540152965043269 -5.7587912275041715 -1 0 0 I I #
vertex $-1 $184 $378 #
straight-curve $-1 0 25.540152965043269 -5.7587912275041715 1 0 0 I I #
point $-1 45.420087282937104 25.540152965043269 -5.7587912275041715 #
point $-1 45.420087282937104 -25.540152965043269 -5.7587912275041715 #
straight-curve $-1 -45.420087282937104 0 5.7587912275041715 0 -1 0 I I #
point $-1 -45.420087282937104 25.540152965043269 5.7587912275041715 #
point $-1 -45.420087282937104 -25.540152965043269 5.7587912275041715 #
straight-curve $-1 45.420087282937104 -25.540152965043269 0 0 0 -1 I I #
straight-curve $-1 45.420087282937104 25.540152965043269 0 0 0 -1 I I #
face $-1 $379 $307 $16 $-1 $380 reversed single #
plane-surface $-1 0 -25.540152965043269 0 0 1 0 0 0 1 forward_v I I I I #
coedge $-1 $381 $382 $220 $313 forward $202 $-1 #
coedge $-1 $205 $204 $383 $384 forward $71 $-1 #
edge $-1 $209 -19.710717378220039 $385 25.540152965043269 $208 $386 forward 7 unknown #
coedge $-1 $387 $302 $205 $299 reversed $307 $-1 #
edge $-1 $388 -25.540152965043269 $300 19.710717378220039 $298 $389 forward 7 unknown #
vertex $-1 $303 $390 #
straight-curve $-1 0 -19.710717378220039 5.7587912275041715 1 0 0 I I #
coedge $-1 $298 $211 $207 $303 forward $307 $-1 #
edge $-1 $213 0.62939561375208575 $300 3.6293956137520857 $302 $391 forward 7 unknown #
coedge $-1 $208 $220 $392 $393 reversed $122 $-1 #
point $-1 45.420087282937104 -19.710717378220039 5.7587912275041715 #
coedge $-1 $211 $394 $215 $311 reversed $307 $-1 #
loop $-1 $-1 $302 $293 #
straight-curve $-1 -45.420087282937104 -11.312717585815827 2.7587912275041715 0 1 0 I I #
point $-1 -45.420087282937104 -19.710717378220039 2.7587912275041715 #
coedge $-1 $216 $215 $381 $395 reversed $217 $-1 #
edge $-1 $218 -2.7587912275041715 $396 5.7587912275041715 $306 $397 forward 7 unknown #
point $-1 -45.420087282937104 -25.540152965043269 2.7587912275041715 #
edge $-1 $398 -25.540152965043269 $314 25.540152965043269 $220 $399 forward 7 unknown #
vertex $-1 $221 $400 #
straight-curve $-1 45.420087282937104 -25.540152965043269 0 0 0 -1 I I #
face $-1 $401 $239 $17 $-1 $402 reversed single #
loop $-1 $-1 $320 $224 #
plane-surface $-1 0 -19.710717378220039 4.2587912275041715 0 -1 0 0 0 -1 forward_v I I I I #
coedge $-1 $226 $403 $404 $405 forward $138 $-1 #
coedge $-1 $404 $245 $227 $321 forward $317 $-1 #
edge $-1 $152 -60.757054731381352 $322 -55.392179851192708 $320 $406 forward 7 unknown #
vertex $-1 $229 $407 #
straight-curve $-1 37.130226875755959 -7.7376883545696558 5.7587912275041724 0 1 0 I I #
vertex $-1 $333 $408 #
straight-curve $-1 -29.889830084324494 -11.240036040058584 50.964391301166145 0.82903756765294845 0 -0.55919291073839883 I I #
coedge $-1 $231 $409 $233 $329 reversed $239 $-1 #
straight-curve $-1 45.420087282937104 -11.240036040058584 63.137154334213868 0 0 -1 I I #
coedge $-1 $403 $233 $410 $411 forward $138 $-1 #
edge $-1 $235 -11.240036040058584 $412 25.540152965043269 $326 $413 forward 7 unknown #
point $-1 37.130226875755959 -11.240036040058584 5.7587912275041688 #
point $-1 45.420087282937104 -11.240036040058584 5.7587912275041715 #
coedge $-1 $414 $237 $415 $416 forward $239 $-1 #
edge $-1 $324 3.5023476854889282 $240 11.973029023650383 $238 $417 forward 7 unknown #
point $-1 45.420087282937097 -19.710717378220039 0.16720967369068518 #
coedge $-1 $418 $419 $244 $336 forward $420 $-1 #
edge $-1 $421 -14.227435379227442 $338 -8.397999792404212 $335 $422 forward 7 unknown #
coedge $-1 $245 $404 $418 $423 reversed $317 $-1 #
vertex $-1 $336 $424 #
coedge $-1 $425 $415 $247 $340 forward $426 $-1 #
edge $-1 $341 -45.420087282937104 $421 45.420087282937104 $339 $427 forward 7 unknown #
vertex $-1 $416 $428 #
straight-curve $-1 45.420087282937104 -11.312717585815827 2.7587912275041715 0 -1 0 I I #
face $-1 $429 $356 $18 $-1 $430 forward single #
loop $-1 $-1 $431 $251 #
plane-surface $-1 0 0 5.7587912275041715 0 0 1 1 0 0 forward_v I I I I #
coedge $-1 $347 $253 $432 $433 forward $156 $-1 #
coedge $-1 $253 $346 $434 $435 reversed $156 $-1 #
coedge $-1 $436 $431 $253 $349 forward $344 $-1 #
edge $-1 $437 26.676551104180476 $438 34.966411511361621 $348 $439 forward 7 unknown #
coedge $-1 $440 $441 $254 $351 forward $442 $-1 #
edge $-1 $443 -62.969944660523183 $358 -60.378363106709699 $350 $444 forward 7 unknown #
coedge $-1 $445 $446 $255 $353 reversed $261 $-1 #
edge $-1 $443 -90.840174565874207 $357 -86.205670973202814 $255 $447 forward 7 unknown #
coedge $-1 $448 $256 $449 $450 reversed $356 $-1 #
coedge $-1 $256 $451 $440 $452 reversed $356 $-1 #
loop $-1 $-1 $355 $343 #
vertex $-1 $257 $453 #
vertex $-1 $452 $454 #
straight-curve $-1 0 -19.710717378220039 2.7587912275041715 1 0 0 I I #
vertex $-1 $258 $455 #
point $-1 40.190221365403872 -17.29052271017391 -0.43377448855311646 #
coedge $-1 $446 $432 $431 $456 reversed $261 $-1 #
loop $-1 $-1 $457 $263 #
plane-surface $-1 20.907351543150966 -11.240036040058584 126.27430866842774 0 -1 0 -0.55919291073839883 0 -0.82903756765294845 forward_v I I I I #
coedge $-1 $458 $459 $460 $461 forward $264 $-1 #
coedge $-1 $366 $366 $-1 $462 forward $266 $-1 #
edge $-1 $463 0 $463 6.2831853071796004 $267 $464 forward 7 unknown #
vertex $-1 $270 $465 #
ellipse-curve $-1 41.275157079346535 -17.29052271017391 2.9630004505974217 -0.55919291073839883 0 -0.82903756765294845 0.82903756765294845 0 -0.55919291073839883 1 I I #
vertex $-1 $271 $466 #
point $-1 40.190221365403872 -13.660230708104713 -0.43377448855311646 #
loop $-1 $-1 $467 $275 #
face $-1 $468 $469 $19 $-1 $470 forward single #
plane-surface $-1 -29.889830084324494 -15.475376709139312 50.964391301166145 0.55919291073839883 0 0.82903756765294845 0.82903756765294845 0 -0.55919291073839883 forward_v I I I I #
straight-curve $-1 -45.420087282937104 25.540152965043269 0 0 0 -1 I I #
point $-1 -45.420087282937104 -25.540152965043269 -5.7587912275041715 #
straight-curve $-1 -45.420087282937104 0 -5.7587912275041715 0 1 0 I I #
point $-1 -45.420087282937104 25.540152965043269 -5.7587912275041715 #
face $-1 $-1 $471 $16 $-1 $472 reversed single #
plane-surface $-1 -45.420087282937104 0 0 1 0 0 0 0 -1 forward_v I I I I #
coedge $-1 $473 $295 $310 $395 forward $202 $-1 #
coedge $-1 $295 $473 $474 $475 forward $202 $-1 #
coedge $-1 $392 $476 $296 $384 reversed $471 $-1 #
edge $-1 $385 -45.420087282937104 $388 45.420087282937104 $383 $477 forward 7 unknown #
vertex $-1 $297 $478 #
straight-curve $-1 45.420087282937104 0 5.7587912275041715 0 1 0 I I #
coedge $-1 $394 $298 $476 $479 forward $307 $-1 #
vertex $-1 $384 $480 #
straight-curve $-1 -45.420087282937104 0 5.7587912275041715 0 -1 0 I I #
point $-1 -45.420087282937104 -19.710717378220039 5.7587912275041715 #
straight-curve $-1 -45.420087282937104 -19.710717378220039 2.1293956137520857 0 0 1 I I #
coedge $-1 $474 $383 $304 $393 forward $471 $-1 #
edge $-1 $385 -5.7587912275041715 $398 5.7587912275041715 $304 $481 forward 7 unknown #
coedge $-1 $306 $387 $473 $482 reversed $307 $-1 #
edge $-1 $314 -45.420087282937104 $396 45.420087282937104 $310 $483 forward 7 unknown #
vertex $-1 $482 $484 #
straight-curve $-1 -45.420087282937104 -25.540152965043269 0 0 0 -1 I I #
vertex $-1 $313 $485 #
straight-curve $-1 45.420087282937104 0 -5.7587912275041715 0 -1 0 I I #
point $-1 45.420087282937104 -25.540152965043269 -5.7587912275041715 #
face $-1 $486 $487 $17 $-1 $488 reversed single #
plane-surface $-1 45.420087282937104 0 0 -1 0 0 0 0 1 forward_v I I I I #
coedge $-1 $319 $328 $489 $490 forward $138 $-1 #
coedge $-1 $337 $320 $319 $405 reversed $317 $-1 #
edge $-1 $491 -45.420087282937104 $322 37.130226875755952 $319 $492 forward 7 unknown #
straight-curve $-1 -8.791971175071513 -19.710717378220039 36.733705510637513 -0.82903756765294845 0 0.55919291073839883 I I #
point $-1 37.130226875755952 -19.710717378220039 5.7587912275041715 #
point $-1 45.420087282937097 -11.240036040058584 0.16720967369068518 #
coedge $-1 $326 $414 $493 $494 reversed $239 $-1 #
coedge $-1 $493 $495 $328 $411 reversed $496 $-1 #
edge $-1 $412 -45.420087282937104 $497 45.420087282937104 $410 $498 forward 7 unknown #
vertex $-1 $329 $499 #
straight-curve $-1 45.420087282937104 0 5.7587912275041715 0 1 0 I I #
coedge $-1 $409 $332 $500 $501 reversed $239 $-1 #
coedge $-1 $339 $502 $332 $416 reversed $426 $-1 #
edge $-1 $341 -2.7587912275041715 $503 5.7587912275041715 $332 $504 forward 7 unknown #
straight-curve $-1 45.420087282937104 -7.7376883545696558 0.16720967369067452 0 -1 0 I I #
coedge $-1 $489 $335 $337 $423 forward $420 $-1 #
coedge $-1 $335 $505 $425 $506 reversed $420 $-1 #
loop $-1 $-1 $418 $507 #
vertex $-1 $506 $508 #
straight-curve $-1 -45.420087282937104 -11.312717585815827 2.7587912275041715 0 1 0 I I #
edge $-1 $338 0.62939561375208575 $491 3.6293956137520857 $418 $509 forward 7 unknown #
point $-1 -45.420087282937104 -19.710717378220039 2.7587912275041715 #
coedge $-1 $502 $339 $419 $506 forward $426 $-1 #
loop $-1 $-1 $339 $486 #
straight-curve $-1 0 -25.540152965043269 2.7587912275041715 -1 0 0 I I #
point $-1 45.420087282937104 -25.540152965043269 2.7587912275041715 #
face $-1 $510 $511 $18 $-1 $512 forward single #
plane-surface $-1 0 -22.625435171631654 2.7587912275041715 0 0 1 1 0 0 forward_v I I I I #
coedge $-1 $348 $513 $362 $456 forward $344 $-1 #
coedge $-1 $362 $445 $346 $433 reversed $261 $-1 #
edge $-1 $437 80.840796093014177 $514 90.840174565874207 $346 $515 forward 7 unknown #
coedge $-1 $441 $516 $347 $435 forward $442 $-1 #
edge $-1 $438 57.378363106709699 $514 62.969944660523183 $434 $517 forward 7 unknown #
coedge $-1 $518 $348 $516 $519 forward $344 $-1 #
vertex $-1 $456 $520 #
vertex $-1 $519 $521 #
straight-curve $-1 10.453675771575483 -11.240036040058584 5.7587912275041688 1 0 0 I I #
coedge $-1 $522 $350 $355 $452 forward $442 $-1 #
coedge $-1 $350 $434 $445 $523 forward $442 $-1 #
loop $-1 $-1 $350 $510 #
vertex $-1 $523 $524 #
straight-curve $-1 45.420087282937104 -19.710717378220039 63.137154334213868 0 0 1 I I #
coedge $-1 $432 $352 $441 $523 reversed $261 $-1 #
coedge $-1 $352 $362 $525 $526 reversed $261 $-1 #
straight-curve $-1 -29.889830084324494 -19.710717378220039 50.964391301166145 -0.82903756765294845 0 0.55919291073839883 I I #
coedge $-1 $451 $354 $527 $528 reversed $356 $-1 #
coedge $-1 $525 $529 $354 $450 forward $511 $-1 #
edge $-1 $530 -45.420087282937104 $357 41.577909697189945 $449 $359 forward 7 unknown #
coedge $-1 $355 $448 $531 $532 reversed $356 $-1 #
edge $-1 $358 8.397999792404212 $533 14.227435379227442 $440 $534 forward 7 unknown #
point $-1 41.577909697189945 -19.710717378220039 2.7587912275041617 #
point $-1 45.420087282937104 -19.710717378220039 2.7587912275041715 #
point $-1 38.801990887012522 -17.29052271017391 -0.70361914546766635 #
edge $-1 $535 -11.973029023650383 $437 -3.5023476854889282 $431 $536 forward 7 unknown #
coedge $-1 $537 $538 $539 $540 reversed $363 $-1 #
coedge $-1 $459 $365 $541 $542 reversed $264 $-1 #
coedge $-1 $365 $458 $543 $544 forward $264 $-1 #
coedge $-1 $545 $546 $365 $461 reversed $547 $-1 #
edge $-1 $548 41.577909697189945 $549 45.420087282937104 $460 $550 forward 7 unknown #
edge $-1 $551 1 $551 0 $366 $-1 forward 7 unknown #
vertex $-1 $367 $552 #
ellipse-curve $-1 39.361183797750925 -17.29052271017391 0.12541842218528237 0.55919291073839883 0 0.82903756765294845 0.82903756765294845 0 -0.55919291073839883 1 I I #
point $-1 42.104194646999488 -17.29052271017391 2.4038075398590402 #
point $-1 38.801990887012522 -13.660230708104713 -0.70361914546766635 #
coedge $-1 $553 $554 $555 $556 reversed $372 $-1 #
face $-1 $557 $547 $19 $-1 $558 forward single #
loop $-1 $-1 $555 $373 #
plane-surface $-1 0 0 5.7587912275041715 0 0 1 1 0 0 forward_v I I I I #
loop $-1 $-1 $392 $379 #
plane-surface $-1 0 25.540152965043269 0 0 -1 0 0 0 -1 forward_v I I I I #
coedge $-1 $382 $381 $394 $482 forward $202 $-1 #
coedge $-1 $476 $392 $382 $475 reversed $471 $-1 #
edge $-1 $559 -45.420087282937104 $398 45.420087282937104 $474 $560 forward 7 unknown #
coedge $-1 $383 $474 $387 $479 reversed $471 $-1 #
straight-curve $-1 0 25.540152965043269 5.7587912275041715 -1 0 0 I I #
point $-1 45.420087282937104 25.540152965043269 5.7587912275041715 #
edge $-1 $388 -5.7587912275041715 $559 5.7587912275041715 $476 $561 forward 7 unknown #
point $-1 -45.420087282937104 25.540152965043269 5.7587912275041715 #
straight-curve $-1 45.420087282937104 25.540152965043269 0 0 0 -1 I I #
edge $-1 $396 -25.540152965043269 $559 25.540152965043269 $394 $562 forward 7 unknown #
straight-curve $-1 0 -25.540152965043269 -5.7587912275041715 -1 0 0 I I #
point $-1 -45.420087282937104 -25.540152965043269 -5.7587912275041715 #
point $-1 45.420087282937104 25.540152965043269 -5.7587912275041715 #
face $-1 $507 $426 $17 $-1 $563 reversed single #
loop $-1 $-1 $500 $401 #
plane-surface $-1 0 0 -5.7587912275041715 0 0 1 1 0 0 forward_v I I I I #
coedge $-1 $564 $418 $403 $490 reversed $420 $-1 #
edge $-1 $497 -25.540152965043269 $491 19.710717378220039 $489 $565 forward 7 unknown #
vertex $-1 $423 $566 #
straight-curve $-1 0 -19.710717378220039 5.7587912275041715 1 0 0 I I #
coedge $-1 $567 $410 $409 $494 forward $496 $-1 #
edge $-1 $412 -5.7587912275041715 $568 5.7587912275041715 $409 $569 forward 7 unknown #
coedge $-1 $410 $567 $564 $570 reversed $496 $-1 #
loop $-1 $-1 $493 $571 #
vertex $-1 $411 $572 #
straight-curve $-1 0 25.540152965043269 5.7587912275041715 -1 0 0 I I #
point $-1 45.420087282937104 25.540152965043269 5.7587912275041715 #
coedge $-1 $573 $574 $414 $501 forward $487 $-1 #
edge $-1 $568 -25.540152965043269 $503 25.540152965043269 $414 $575 forward 7 unknown #
coedge $-1 $415 $425 $573 $576 reversed $426 $-1 #
vertex $-1 $416 $577 #
straight-curve $-1 45.420087282937104 -25.540152965043269 0 0 0 -1 I I #
coedge $-1 $419 $564 $578 $579 reversed $420 $-1 #
edge $-1 $421 -2.7587912275041715 $580 5.7587912275041715 $419 $581 forward 7 unknown #
face $-1 $571 $420 $17 $-1 $582 reversed single #
point $-1 -45.420087282937104 -25.540152965043269 2.7587912275041715 #
straight-curve $-1 -45.420087282937104 -19.710717378220039 2.1293956137520857 0 0 1 I I #
face $-1 $583 $442 $18 $-1 $584 reversed single #
loop $-1 $-1 $525 $429 #
plane-surface $-1 0 -19.710717378220039 4.2587912275041715 0 -1 0 0 0 -1 forward_v I I I I #
coedge $-1 $431 $585 $586 $587 forward $344 $-1 #
vertex $-1 $523 $588 #
straight-curve $-1 -29.889830084324494 -11.240036040058584 50.964391301166145 0.82903756765294845 0 -0.55919291073839883 I I #
coedge $-1 $434 $589 $436 $519 reversed $442 $-1 #
straight-curve $-1 45.420087282937104 -11.240036040058584 63.137154334213868 0 0 -1 I I #
coedge $-1 $585 $436 $590 $591 forward $344 $-1 #
edge $-1 $438 -11.240036040058584 $592 25.540152965043269 $516 $593 forward 7 unknown #
point $-1 37.130226875755959 -11.240036040058584 5.7587912275041688 #
point $-1 45.420087282937104 -11.240036040058584 5.7587912275041715 #
coedge $-1 $594 $440 $595 $596 forward $442 $-1 #
edge $-1 $514 3.5023476854889282 $443 11.973029023650383 $441 $597 forward 7 unknown #
point $-1 45.420087282937097 -19.710717378220039 0.16720967369068518 #
coedge $-1 $586 $449 $446 $526 forward $511 $-1 #
edge $-1 $357 -60.757054731381352 $535 -55.392179851192708 $525 $598 forward 7 unknown #
coedge $-1 $599 $600 $448 $528 forward $601 $-1 #
edge $-1 $602 -14.227435379227442 $530 -8.397999792404212 $527 $603 forward 7 unknown #
coedge $-1 $449 $586 $599 $604 reversed $511 $-1 #
vertex $-1 $528 $605 #
coedge $-1 $606 $595 $451 $532 forward $607 $-1 #
edge $-1 $533 -45.420087282937104 $602 45.420087282937104 $531 $608 forward 7 unknown #
vertex $-1 $596 $609 #
straight-curve $-1 45.420087282937104 -11.312717585815827 2.7587912275041715 0 -1 0 I I #
vertex $-1 $456 $610 #
straight-curve $-1 37.130226875755959 -7.7376883545696558 5.7587912275041724 0 1 0 I I #
coedge $-1 $538 $457 $554 $611 forward $363 $-1 #
coedge $-1 $457 $537 $612 $613 reversed $363 $-1 #
coedge $-1 $614 $555 $457 $540 forward $469 $-1 #
edge $-1 $615 26.676551104180476 $616 34.966411511361621 $539 $617 forward 7 unknown #
coedge $-1 $618 $619 $458 $542 forward $620 $-1 #
edge $-1 $621 -62.969944660523183 $549 -60.378363106709699 $541 $622 forward 7 unknown #
coedge $-1 $623 $553 $459 $544 reversed $372 $-1 #
edge $-1 $621 -90.840174565874207 $548 -86.205670973202814 $459 $624 forward 7 unknown #
coedge $-1 $625 $460 $626 $627 reversed $547 $-1 #
coedge $-1 $460 $628 $618 $629 reversed $547 $-1 #
loop $-1 $-1 $546 $468 #
vertex $-1 $461 $630 #
vertex $-1 $629 $631 #
straight-curve $-1 0 -19.710717378220039 2.7587912275041715 1 0 0 I I #
vertex $-1 $462 $632 #
point $-1 40.190221365403872 -17.29052271017391 -0.43377448855311646 #
coedge $-1 $543 $467 $633 $634 reversed $372 $-1 #
coedge $-1 $467 $623 $537 $611 reversed $372 $-1 #
coedge $-1 $539 $635 $467 $556 forward $469 $-1 #
edge $-1 $636 -11.973029023650383 $615 -3.5023476854889282 $555 $637 forward 7 unknown #
face $-1 $638 $639 $19 $-1 $640 forward single #
plane-surface $-1 0 -22.625435171631654 2.7587912275041715 0 0 1 1 0 0 forward_v I I I I #
vertex $-1 $475 $641 #
straight-curve $-1 0 25.540152965043269 -5.7587912275041715 1 0 0 I I #
straight-curve $-1 -45.420087282937104 25.540152965043269 0 0 0 -1 I I #
straight-curve $-1 -45.420087282937104 0 -5.7587912275041715 0 1 0 I I #
plane-surface $-1 0 -25.540152965043269 0 0 1 0 0 0 1 forward_v I I I I #
coedge $-1 $505 $489 $495 $570 forward $420 $-1 #
straight-curve $-1 -45.420087282937104 0 5.7587912275041715 0 -1 0 I I #
point $-1 -45.420087282937104 -19.710717378220039 5.7587912275041715 #
coedge $-1 $495 $493 $574 $642 reversed $496 $-1 #
vertex $-1 $501 $643 #
straight-curve $-1 45.420087282937104 25.540152965043269 0 0 0 -1 I I #
edge $-1 $497 -5.7587912275041715 $644 5.7587912275041715 $495 $645 forward 7 unknown #
face $-1 $-1 $496 $17 $-1 $646 reversed single #
point $-1 -45.420087282937104 25.540152965043269 5.7587912275041715 #
coedge $-1 $578 $500 $502 $576 forward $487 $-1 #
coedge $-1 $500 $578 $567 $642 forward $487 $-1 #
straight-curve $-1 45.420087282937104 0 -5.7587912275041715 0 -1 0 I I #
edge $-1 $503 -45.420087282937104 $580 45.420087282937104 $502 $647 forward 7 unknown #
point $-1 45.420087282937104 -25.540152965043269 -5.7587912275041715 #
coedge $-1 $574 $573 $505 $579 forward $487 $-1 #
edge $-1 $580 -25.540152965043269 $644 25.540152965043269 $505 $648 forward 7 unknown #
vertex $-1 $579 $649 #
straight-curve $-1 -45.420087282937104 -25.540152965043269 0 0 0 -1 I I #
plane-surface $-1 -45.420087282937104 0 0 1 0 0 0 0 -1 forward_v I I I I #
face $-1 $650 $651 $18 $-1 $652 reversed single #
plane-surface $-1 45.420087282937104 0 0 -1 0 0 0 0 1 forward_v I I I I #
coedge $-1 $513 $518 $653 $654 forward $344 $-1 #
coedge $-1 $529 $525 $513 $587 reversed $511 $-1 #
edge $-1 $655 -45.420087282937104 $535 37.130226875755952 $513 $656 forward 7 unknown #
point $-1 45.420087282937097 -11.240036040058584 0.16720967369068518 #
coedge $-1 $516 $594 $657 $658 reversed $442 $-1 #
coedge $-1 $657 $659 $518 $591 reversed $660 $-1 #
edge $-1 $592 -45.420087282937104 $661 45.420087282937104 $590 $662 forward 7 unknown #
vertex $-1 $519 $663 #
straight-curve $-1 45.420087282937104 0 5.7587912275041715 0 1 0 I I #
coedge $-1 $589 $522 $664 $665 reversed $442 $-1 #
coedge $-1 $531 $666 $522 $596 reversed $607 $-1 #
edge $-1 $533 -2.7587912275041715 $667 5.7587912275041715 $522 $668 forward 7 unknown #
straight-curve $-1 45.420087282937104 -7.7376883545696558 0.16720967369067452 0 -1 0 I I #
straight-curve $-1 -8.791971175071513 -19.710717378220039 36.733705510637513 -0.82903756765294845 0 0.55919291073839883 I I #
coedge $-1 $653 $527 $529 $604 forward $601 $-1 #
coedge $-1 $527 $669 $606 $670 reversed $601 $-1 #
loop $-1 $-1 $599 $671 #
vertex $-1 $670 $672 #
straight-curve $-1 -45.420087282937104 -11.312717585815827 2.7587912275041715 0 1 0 I I #
edge $-1 $530 0.62939561375208575 $655 3.6293956137520857 $599 $673 forward 7 unknown #
point $-1 -45.420087282937104 -19.710717378220039 2.7587912275041715 #
coedge $-1 $666 $531 $600 $670 forward $607 $-1 #
loop $-1 $-1 $531 $650 #
straight-curve $-1 0 -25.540152965043269 2.7587912275041715 -1 0 0 I I #
point $-1 45.420087282937104 -25.540152965043269 2.7587912275041715 #
point $-1 37.130226875755952 -19.710717378220039 5.7587912275041715 #
edge $-1 $615 80.840796093014177 $674 90.840174565874207 $537 $675 forward 7 unknown #
coedge $-1 $619 $676 $538 $613 forward $620 $-1 #
edge $-1 $616 57.378363106709699 $674 62.969944660523183 $612 $677 forward 7 unknown #
coedge $-1 $678 $539 $676 $679 forward $469 $-1 #
vertex $-1 $556 $680 #
vertex $-1 $679 $681 #
straight-curve $-1 10.453675771575483 -11.240036040058584 5.7587912275041688 1 0 0 I I #
coedge $-1 $682 $541 $546 $629 forward $620 $-1 #
coedge $-1 $541 $612 $623 $683 forward $620 $-1 #
loop $-1 $-1 $541 $638 #
vertex $-1 $683 $684 #
straight-curve $-1 45.420087282937104 -19.710717378220039 63.137154334213868 0 0 1 I I #
coedge $-1 $554 $543 $619 $683 reversed $372 $-1 #
straight-curve $-1 -29.889830084324494 -19.710717378220039 50.964391301166145 -0.82903756765294845 0 0.55919291073839883 I I #
coedge $-1 $628 $545 $685 $686 reversed $547 $-1 #
coedge $-1 $633 $687 $545 $627 forward $639 $-1 #
edge $-1 $688 -45.420087282937104 $548 41.577909697189945 $626 $550 forward 7 unknown #
coedge $-1 $546 $625 $689 $690 reversed $547 $-1 #
edge $-1 $549 8.397999792404212 $691 14.227435379227442 $618 $692 forward 7 unknown #
point $-1 41.577909697189945 -19.710717378220039 2.7587912275041617 #
point $-1 45.420087282937104 -19.710717378220039 2.7587912275041715 #
point $-1 38.801990887012522 -17.29052271017391 -0.70361914546766635 #
coedge $-1 $693 $626 $553 $634 forward $639 $-1 #
edge $-1 $548 -60.757054731381352 $636 -55.392179851192708 $633 $694 forward 7 unknown #
coedge $-1 $555 $695 $693 $696 forward $469 $-1 #
vertex $-1 $556 $697 #
straight-curve $-1 37.130226875755959 -7.7376883545696558 5.7587912275041724 0 1 0 I I #
face $-1 $698 $620 $19 $-1 $699 reversed single #
loop $-1 $-1 $633 $557 #
plane-surface $-1 0 -19.710717378220039 4.2587912275041715 0 -1 0 0 0 -1 forward_v I I I I #
point $-1 -45.420087282937104 25.540152965043269 -5.7587912275041715 #
edge $-1 $644 -45.420087282937104 $568 45.420087282937104 $567 $700 forward 7 unknown #
point $-1 45.420087282937104 25.540152965043269 -5.7587912275041715 #
vertex $-1 $642 $701 #
straight-curve $-1 -45.420087282937104 25.540152965043269 0 0 0 -1 I I #
plane-surface $-1 0 25.540152965043269 0 0 -1 0 0 0 -1 forward_v I I I I #
straight-curve $-1 0 -25.540152965043269 -5.7587912275041715 -1 0 0 I I #
straight-curve $-1 -45.420087282937104 0 -5.7587912275041715 0 1 0 I I #
point $-1 -45.420087282937104 -25.540152965043269 -5.7587912275041715 #
face $-1 $671 $607 $18 $-1 $702 reversed single #
loop $-1 $-1 $664 $583 #
plane-surface $-1 0 0 -5.7587912275041715 0 0 1 1 0 0 forward_v I I I I #
coedge $-1 $703 $599 $585 $654 reversed $601 $-1 #
edge $-1 $661 -25.540152965043269 $655 19.710717378220039 $653 $704 forward 7 unknown #
vertex $-1 $604 $705 #
straight-curve $-1 0 -19.710717378220039 5.7587912275041715 1 0 0 I I #
coedge $-1 $706 $590 $589 $658 forward $660 $-1 #
edge $-1 $592 -5.7587912275041715 $707 5.7587912275041715 $589 $708 forward 7 unknown #
coedge $-1 $590 $706 $703 $709 reversed $660 $-1 #
loop $-1 $-1 $657 $710 #
vertex $-1 $591 $711 #
straight-curve $-1 0 25.540152965043269 5.7587912275041715 -1 0 0 I I #
point $-1 45.420087282937104 25.540152965043269 5.7587912275041715 #
coedge $-1 $712 $713 $594 $665 forward $651 $-1 #
edge $-1 $707 -25.540152965043269 $667 25.540152965043269 $594 $714 forward 7 unknown #
coedge $-1 $595 $606 $712 $715 reversed $607 $-1 #
vertex $-1 $596 $716 #
straight-curve $-1 45.420087282937104 -25.540152965043269 0 0 0 -1 I I #
coedge $-1 $600 $703 $717 $718 reversed $601 $-1 #
edge $-1 $602 -2.7587912275041715 $719 5.7587912275041715 $600 $720 forward 7 unknown #
face $-1 $710 $601 $18 $-1 $721 reversed single #
point $-1 -45.420087282937104 -25.540152965043269 2.7587912275041715 #
straight-curve $-1 -45.420087282937104 -19.710717378220039 2.1293956137520857 0 0 1 I I #
vertex $-1 $683 $722 #
straight-curve $-1 -29.889830084324494 -11.240036040058584 50.964391301166145 0.82903756765294845 0 -0.55919291073839883 I I #
coedge $-1 $612 $723 $614 $679 reversed $620 $-1 #
straight-curve $-1 45.420087282937104 -11.240036040058584 63.137154334213868 0 0 -1 I I #
coedge $-1 $695 $614 $724 $725 forward $469 $-1 #
edge $-1 $616 -11.240036040058584 $726 25.540152965043269 $676 $727 forward 7 unknown #
point $-1 37.130226875755959 -11.240036040058584 5.7587912275041688 #
point $-1 45.420087282937104 -11.240036040058584 5.7587912275041715 #
coedge $-1 $728 $618 $729 $730 forward $620 $-1 #
edge $-1 $674 3.5023476854889282 $621 11.973029023650383 $619 $731 forward 7 unknown #
point $-1 45.420087282937097 -19.710717378220039 0.16720967369068518 #
coedge $-1 $732 $733 $625 $686 forward $734 $-1 #
edge $-1 $735 -14.227435379227442 $688 -8.397999792404212 $685 $736 forward 7 unknown #
coedge $-1 $626 $693 $732 $737 reversed $639 $-1 #
vertex $-1 $686 $738 #
coedge $-1 $739 $729 $628 $690 forward $740 $-1 #
edge $-1 $691 -45.420087282937104 $735 45.420087282937104 $689 $741 forward 7 unknown #
vertex $-1 $730 $742 #
straight-curve $-1 45.420087282937104 -11.312717585815827 2.7587912275041715 0 -1 0 I I #
coedge $-1 $687 $633 $635 $696 reversed $639 $-1 #
straight-curve $-1 -8.791971175071513 -19.710717378220039 36.733705510637513 -0.82903756765294845 0 0.55919291073839883 I I #
coedge $-1 $635 $678 $743 $744 forward $469 $-1 #
edge $-1 $745 -45.420087282937104 $636 37.130226875755952 $635 $746 forward 7 unknown #
point $-1 37.130226875755952 -19.710717378220039 5.7587912275041715 #
face $-1 $747 $748 $19 $-1 $749 reversed single #
plane-surface $-1 45.420087282937104 0 0 -1 0 0 0 0 1 forward_v I I I I #
straight-curve $-1 0 25.540152965043269 -5.7587912275041715 1 0 0 I I #
point $-1 -45.420087282937104 25.540152965043269 -5.7587912275041715 #
plane-surface $-1 0 -25.540152965043269 0 0 1 0 0 0 1 forward_v I I I I #
coedge $-1 $669 $653 $659 $709 forward $601 $-1 #
straight-curve $-1 -45.420087282937104 0 5.7587912275041715 0 -1 0 I I #
point $-1 -45.420087282937104 -19.710717378220039 5.7587912275041715 #
coedge $-1 $659 $657 $713 $750 reversed $660 $-1 #
vertex $-1 $665 $751 #
straight-curve $-1 45.420087282937104 25.540152965043269 0 0 0 -1 I I #
edge $-1 $661 -5.7587912275041715 $752 5.7587912275041715 $659 $753 forward 7 unknown #
face $-1 $-1 $660 $18 $-1 $754 reversed single #
point $-1 -45.420087282937104 25.540152965043269 5.7587912275041715 #
coedge $-1 $717 $664 $666 $715 forward $651 $-1 #
coedge $-1 $664 $717 $706 $750 forward $651 $-1 #
straight-curve $-1 45.420087282937104 0 -5.7587912275041715 0 -1 0 I I #
edge $-1 $667 -45.420087282937104 $719 45.420087282937104 $666 $755 forward 7 unknown #
point $-1 45.420087282937104 -25.540152965043269 -5.7587912275041715 #
coedge $-1 $713 $712 $669 $718 forward $651 $-1 #
edge $-1 $719 -25.540152965043269 $752 25.540152965043269 $669 $756 forward 7 unknown #
vertex $-1 $718 $757 #
straight-curve $-1 -45.420087282937104 -25.540152965043269 0 0 0 -1 I I #
plane-surface $-1 -45.420087282937104 0 0 1 0 0 0 0 -1 forward_v I I I I #
point $-1 45.420087282937097 -11.240036040058584 0.16720967369068518 #
coedge $-1 $676 $728 $758 $759 reversed $620 $-1 #
coedge $-1 $758 $760 $678 $725 reversed $761 $-1 #
edge $-1 $726 -45.420087282937104 $762 45.420087282937104 $724 $763 forward 7 unknown #
vertex $-1 $679 $764 #
straight-curve $-1 45.420087282937104 0 5.7587912275041715 0 1 0 I I #
coedge $-1 $723 $682 $765 $766 reversed $620 $-1 #
coedge $-1 $689 $767 $682 $730 reversed $740 $-1 #
edge $-1 $691 -2.7587912275041715 $768 5.7587912275041715 $682 $769 forward 7 unknown #
straight-curve $-1 45.420087282937104 -7.7376883545696558 0.16720967369067452 0 -1 0 I I #
coedge $-1 $743 $685 $687 $737 forward $734 $-1 #
coedge $-1 $685 $770 $739 $771 reversed $734 $-1 #
loop $-1 $-1 $732 $772 #
vertex $-1 $771 $773 #
straight-curve $-1 -45.420087282937104 -11.312717585815827 2.7587912275041715 0 1 0 I I #
edge $-1 $688 0.62939561375208575 $745 3.6293956137520857 $732 $774 forward 7 unknown #
point $-1 -45.420087282937104 -19.710717378220039 2.7587912275041715 #
coedge $-1 $767 $689 $733 $771 forward $740 $-1 #
loop $-1 $-1 $689 $747 #
straight-curve $-1 0 -25.540152965043269 2.7587912275041715 -1 0 0 I I #
point $-1 45.420087282937104 -25.540152965043269 2.7587912275041715 #
coedge $-1 $775 $732 $695 $744 reversed $734 $-1 #
edge $-1 $762 -25.540152965043269 $745 19.710717378220039 $743 $776 forward 7 unknown #
vertex $-1 $737 $777 #
straight-curve $-1 0 -19.710717378220039 5.7587912275041715 1 0 0 I I #
face $-1 $772 $740 $19 $-1 $778 reversed single #
loop $-1 $-1 $765 $698 #
plane-surface $-1 0 0 -5.7587912275041715 0 0 1 1 0 0 forward_v I I I I #
edge $-1 $752 -45.420087282937104 $707 45.420087282937104 $706 $779 forward 7 unknown #
point $-1 45.420087282937104 25.540152965043269 -5.7587912275041715 #
vertex $-1 $750 $780 #
straight-curve $-1 -45.420087282937104 25.540152965043269 0 0 0 -1 I I #
plane-surface $-1 0 25.540152965043269 0 0 -1 0 0 0 -1 forward_v I I I I #
straight-curve $-1 0 -25.540152965043269 -5.7587912275041715 -1 0 0 I I #
straight-curve $-1 -45.420087282937104 0 -5.7587912275041715 0 1 0 I I #
point $-1 -45.420087282937104 -25.540152965043269 -5.7587912275041715 #
coedge $-1 $781 $724 $723 $759 forward $761 $-1 #
edge $-1 $726 -5.7587912275041715 $782 5.7587912275041715 $723 $783 forward 7 unknown #
coedge $-1 $724 $781 $775 $784 reversed $761 $-1 #
loop $-1 $-1 $758 $785 #
vertex $-1 $725 $786 #
straight-curve $-1 0 25.540152965043269 5.7587912275041715 -1 0 0 I I #
point $-1 45.420087282937104 25.540152965043269 5.7587912275041715 #
coedge $-1 $787 $788 $728 $766 forward $748 $-1 #
edge $-1 $782 -25.540152965043269 $768 25.540152965043269 $728 $789 forward 7 unknown #
coedge $-1 $729 $739 $787 $790 reversed $740 $-1 #
vertex $-1 $730 $791 #
straight-curve $-1 45.420087282937104 -25.540152965043269 0 0 0 -1 I I #
coedge $-1 $733 $775 $792 $793 reversed $734 $-1 #
edge $-1 $735 -2.7587912275041715 $794 5.7587912275041715 $733 $795 forward 7 unknown #
face $-1 $785 $734 $19 $-1 $796 reversed single #
point $-1 -45.420087282937104 -25.540152965043269 2.7587912275041715 #
straight-curve $-1 -45.420087282937104 -19.710717378220039 2.1293956137520857 0 0 1 I I #
coedge $-1 $770 $743 $760 $784 forward $734 $-1 #
straight-curve $-1 -45.420087282937104 0 5.7587912275041715 0 -1 0 I I #
point $-1 -45.420087282937104 -19.710717378220039 5.7587912275041715 #
plane-surface $-1 0 -25.540152965043269 0 0 1 0 0 0 1 forward_v I I I I #
straight-curve $-1 0 25.540152965043269 -5.7587912275041715 1 0 0 I I #
point $-1 -45.420087282937104 25.540152965043269 -5.7587912275041715 #
coedge $-1 $760 $758 $788 $797 reversed $761 $-1 #
vertex $-1 $766 $798 #
straight-curve $-1 45.420087282937104 25.540152965043269 0 0 0 -1 I I #
edge $-1 $762 -5.7587912275041715 $799 5.7587912275041715 $760 $800 forward 7 unknown #
face $-1 $-1 $761 $19 $-1 $801 reversed single #
point $-1 -45.420087282937104 25.540152965043269 5.7587912275041715 #
coedge $-1 $792 $765 $767 $790 forward $748 $-1 #
coedge $-1 $765 $792 $781 $797 forward $748 $-1 #
straight-curve $-1 45.420087282937104 0 -5.7587912275041715 0 -1 0 I I #
edge $-1 $768 -45.420087282937104 $794 45.420087282937104 $767 $802 forward 7 unknown #
point $-1 45.420087282937104 -25.540152965043269 -5.7587912275041715 #
coedge $-1 $788 $787 $770 $793 forward $748 $-1 #
edge $-1 $794 -25.540152965043269 $799 25.540152965043269 $770 $803 forward 7 unknown #
vertex $-1 $793 $804 #
straight-curve $-1 -45.420087282937104 -25.540152965043269 0 0 0 -1 I I #
plane-surface $-1 -45.420087282937104 0 0 1 0 0 0 0 -1 forward_v I I I I #
edge $-1 $799 -45.420087282937104 $782 45.420087282937104 $781 $805 forward 7 unknown #
point $-1 45.420087282937104 25.540152965043269 -5.7587912275041715 #
vertex $-1 $797 $806 #
straight-curve $-1 -45.420087282937104 25.540152965043269 0 0 0 -1 I I #
plane-surface $-1 0 25.540152965043269 0 0 -1 0 0 0 -1 forward_v I I I I #
straight-curve $-1 0 -25.540152965043269 -5.7587912275041715 -1 0 0 I I #
straight-curve $-1 -45.420087282937104 0 -5.7587912275041715 0 1 0 I I #
point $-1 -45.420087282937104 -25.540152965043269 -5.7587912275041715 #
straight-curve $-1 0 25.540152965043269 -5.7587912275041715 1 0 0 I I #
point $-1 -45.420087282937104 25.540152965043269 -5.7587912275041715 #
End-of-ACIS-data 