500 0 6 0           
7 Unknown 11 ACIS 5.0 NT 24 Fri Mar 26 19:02:18 1999 
-1 9.9999999999999995e-007 1e-010 
body $-1 $6 $-1 $7 #
body $-1 $8 $-1 $9 #
body $-1 $10 $-1 $11 #
body $-1 $12 $-1 $13 #
body $-1 $14 $-1 $15 #
body $-1 $16 $-1 $17 #
lump $-1 $-1 $18 $0 #
transform $-1 1 0 0 0 1 0 0 0 1 64.854274117252118 37.519762178523813 15.977759864701852 1 rotate no_reflect no_shear #
lump $-1 $-1 $19 $1 #
transform $-1 1 0 0 0 1 0 0 0 1 64.854274117252118 37.519762178523813 15.977759864701852 1 rotate no_reflect no_shear #
lump $-1 $-1 $20 $2 #
transform $-1 1 0 0 0 1 0 0 0 1 64.854274117252118 37.519762178523813 15.977759864701852 1 rotate no_reflect no_shear #
lump $-1 $-1 $21 $3 #
transform $-1 1 0 0 0 1 0 0 0 1 64.854274117252118 37.519762178523813 15.977759864701852 1 rotate no_reflect no_shear #
lump $-1 $-1 $22 $4 #
transform $-1 1 0 0 0 1 0 0 0 1 64.854274117252118 37.519762178523813 15.977759864701852 1 rotate no_reflect no_shear #
lump $-1 $-1 $23 $5 #
transform $-1 1 0 0 0 1 0 0 0 1 64.854274117252118 37.519762178523813 15.977759864701852 1 rotate no_reflect no_shear #
shell $-1 $-1 $-1 $24 $-1 $6 #
shell $-1 $-1 $-1 $25 $-1 $8 #
shell $-1 $-1 $-1 $26 $-1 $10 #
shell $-1 $-1 $-1 $27 $-1 $12 #
shell $-1 $-1 $-1 $28 $-1 $14 #
shell $-1 $-1 $-1 $29 $-1 $16 #
face $-1 $30 $31 $18 $-1 $32 forward single #
face $-1 $33 $34 $19 $-1 $35 forward single #
face $-1 $36 $37 $20 $-1 $38 reversed single #
face $-1 $39 $40 $21 $-1 $41 forward single #
face $-1 $42 $43 $22 $-1 $44 reversed single #
face $-1 $45 $46 $23 $-1 $47 forward single #
face $-1 $48 $49 $18 $-1 $50 reversed single #
loop $-1 $-1 $51 $24 #
plane-surface $-1 0 0 15.977759864701852 0 0 1 1 0 0 forward_v I I I I #
face $-1 $52 $53 $19 $-1 $54 reversed single #
loop $-1 $-1 $55 $25 #
plane-surface $-1 0 -37.519762178523813 0 0 1 0 0 0 1 forward_v I I I I #
face $-1 $56 $57 $20 $-1 $58 reversed single #
loop $-1 $-1 $59 $26 #
plane-surface $-1 -13.762359209555015 81.205758247144161 144.86510063975058 1 0 0 0 -0.73135370988377701 -0.68199835119979291 forward_v I I I I #
face $-1 $60 $61 $21 $-1 $62 forward single #
loop $-1 $63 $64 $27 #
cone-surface $-1 -6.8811796047775076 28.648568850171667 6.7627173475325737 0 -0.73135370988377701 -0.68199835119979291 3 0 0 1 I I 0 1 3 forward I I I I #
face $-1 $65 $66 $22 $-1 $67 reversed single #
loop $-1 $-1 $68 $28 #
plane-surface $-1 -6.8811796047775076 -13.657069707799351 56.404084607299879 0 0.73135370988377701 0.68199835119979291 1 0 0 forward_v I I I I #
face $-1 $69 $70 $23 $-1 $71 forward single #
loop $-1 $72 $73 $29 #
cone-surface $-1 6.8811796047775147 28.648568850171667 6.7627173475325737 0 -0.73135370988377701 -0.68199835119979291 3 0 0 1 I I 0 1 3 forward I I I I #
face $-1 $74 $75 $18 $-1 $76 reversed single #
loop $-1 $-1 $77 $30 #
plane-surface $-1 0 0 -15.977759864701852 0 0 1 1 0 0 forward_v I I I I #
coedge $-1 $78 $79 $80 $81 forward $31 $-1 #
face $-1 $82 $83 $19 $-1 $84 reversed single #
loop $-1 $-1 $85 $33 #
plane-surface $-1 0 0 -15.977759864701852 0 0 1 1 0 0 forward_v I I I I #
coedge $-1 $86 $87 $88 $89 forward $34 $-1 #
face $-1 $90 $91 $20 $-1 $92 reversed single #
loop $-1 $-1 $93 $36 #
plane-surface $-1 -6.8811796047775076 -13.657069707799351 56.404084607299879 0 0.73135370988377701 0.68199835119979291 1 0 0 forward_v I I I I #
coedge $-1 $94 $95 $96 $97 reversed $37 $-1 #
face $-1 $-1 $98 $21 $-1 $99 forward single #
loop $-1 $100 $101 $39 #
cone-surface $-1 -6.8811796047775076 25.419682508319141 3.7517321954850118 0 -0.73135370988377701 -0.68199835119979291 1.5 0 0 1 I I -0.70710678118654757 0.70710678118654757 1.5 forward I I I I #
loop $-1 $-1 $102 $27 #
coedge $-1 $64 $64 $103 $104 reversed $40 $-1 #
face $-1 $105 $106 $22 $-1 $107 forward single #
loop $-1 $-1 $108 $42 #
plane-surface $-1 13.762359209555022 81.205758247144161 144.86510063975058 -1 0 0 0 0.73135370988377701 0.68199835119979291 forward_v I I I I #
coedge $-1 $109 $110 $111 $112 reversed $43 $-1 #
face $-1 $-1 $113 $23 $-1 $114 forward single #
loop $-1 $115 $116 $45 #
cone-surface $-1 6.8811796047775147 25.419682508319141 3.7517321954850118 0 -0.73135370988377701 -0.68199835119979291 1.5 0 0 1 I I -0.70710678118654757 0.70710678118654757 1.5 forward I I I I #
loop $-1 $-1 $117 $29 #
coedge $-1 $73 $73 $118 $119 reversed $46 $-1 #
face $-1 $120 $121 $18 $-1 $122 reversed single #
loop $-1 $-1 $123 $48 #
plane-surface $-1 0 -37.519762178523813 0 0 1 0 0 0 1 forward_v I I I I #
coedge $-1 $124 $125 $126 $127 forward $49 $-1 #
coedge $-1 $128 $51 $129 $130 forward $31 $-1 #
coedge $-1 $51 $128 $131 $132 forward $31 $-1 #
coedge $-1 $133 $134 $51 $81 reversed $135 $-1 #
edge $-1 $136 -37.519762178523813 $137 37.519762178523813 $80 $138 forward 7 unknown #
face $-1 $139 $140 $19 $-1 $141 forward single #
loop $-1 $-1 $142 $52 #
plane-surface $-1 64.854274117252118 0 0 -1 0 0 0 0 1 forward_v I I I I #
coedge $-1 $143 $144 $145 $146 forward $53 $-1 #
coedge $-1 $145 $55 $142 $147 reversed $34 $-1 #
coedge $-1 $55 $145 $148 $149 reversed $34 $-1 #
coedge $-1 $150 $151 $55 $89 reversed $140 $-1 #
edge $-1 $152 -64.854274117252118 $153 64.854274117252118 $88 $154 forward 7 unknown #
face $-1 $155 $156 $20 $-1 $157 forward single #
loop $-1 $-1 $158 $56 #
plane-surface $-1 0 81.205758247144161 144.86510063975058 -1 0 0 0 0.73135370988377701 0.68199835119979291 forward_v I I I I #
coedge $-1 $159 $160 $161 $162 reversed $57 $-1 #
coedge $-1 $95 $59 $163 $164 reversed $37 $-1 #
coedge $-1 $59 $94 $159 $165 reversed $37 $-1 #
coedge $-1 $161 $166 $59 $97 forward $156 $-1 #
edge $-1 $167 3.0831169450482676 $168 16.561792047698816 $96 $169 forward 7 unknown #
loop $-1 $-1 $103 $60 #
plane-surface $-1 -6.8811796047775076 -13.657069707799351 56.404084607299879 0 0.73135370988377701 0.68199835119979291 1 0 0 forward_v I I I I #
loop $-1 $-1 $170 $39 #
coedge $-1 $101 $101 $102 $171 reversed $61 $-1 #
coedge $-1 $102 $102 $101 $171 forward $63 $-1 #
coedge $-1 $103 $103 $64 $104 forward $98 $-1 #
edge $-1 $172 -1.0069027347083011e-015 $172 6.2831853071795996 $103 $173 forward 7 unknown #
face $-1 $174 $175 $22 $-1 $176 forward single #
loop $-1 $-1 $177 $65 #
plane-surface $-1 0 0 15.977759864701852 0 0 1 1 0 0 forward_v I I I I #
coedge $-1 $178 $179 $180 $181 reversed $66 $-1 #
coedge $-1 $182 $68 $183 $184 reversed $43 $-1 #
coedge $-1 $68 $182 $177 $185 reversed $43 $-1 #
coedge $-1 $186 $187 $68 $112 forward $175 $-1 #
edge $-1 $188 -75.039524357047597 $189 -55.276023347201402 $111 $190 forward 7 unknown #
loop $-1 $-1 $118 $69 #
plane-surface $-1 -6.8811796047775076 -13.657069707799351 56.404084607299879 0 0.73135370988377701 0.68199835119979291 1 0 0 forward_v I I I I #
loop $-1 $-1 $191 $45 #
coedge $-1 $116 $116 $117 $192 reversed $70 $-1 #
coedge $-1 $117 $117 $116 $192 forward $72 $-1 #
coedge $-1 $118 $118 $73 $119 forward $113 $-1 #
edge $-1 $193 -1.0069027347083011e-015 $193 6.2831853071795996 $118 $194 forward 7 unknown #
face $-1 $195 $196 $18 $-1 $197 reversed single #
loop $-1 $-1 $198 $74 #
plane-surface $-1 -64.854274117252118 0 0 1 0 0 0 0 -1 forward_v I I I I #
coedge $-1 $199 $131 $200 $201 forward $75 $-1 #
coedge $-1 $202 $77 $199 $203 forward $49 $-1 #
coedge $-1 $77 $202 $204 $205 forward $49 $-1 #
coedge $-1 $134 $133 $77 $127 reversed $135 $-1 #
edge $-1 $206 -37.519762178523813 $207 37.519762178523813 $126 $208 forward 7 unknown #
coedge $-1 $79 $78 $209 $210 forward $31 $-1 #
coedge $-1 $211 $212 $78 $130 reversed $196 $-1 #
edge $-1 $137 -64.854274117252118 $213 64.854274117252118 $129 $214 forward 7 unknown #
coedge $-1 $123 $215 $79 $132 reversed $75 $-1 #
edge $-1 $216 -64.854274117252118 $136 64.854274117252118 $131 $217 forward 7 unknown #
coedge $-1 $126 $80 $215 $218 forward $135 $-1 #
coedge $-1 $80 $126 $211 $219 reversed $135 $-1 #
loop $-1 $-1 $133 $195 #
vertex $-1 $81 $220 #
vertex $-1 $81 $221 #
straight-curve $-1 64.854274117252118 0 15.977759864701852 0 1 0 I I #
face $-1 $222 $223 $19 $-1 $224 reversed single #
loop $-1 $-1 $151 $82 #
plane-surface $-1 0 -47.208861640237934 -11.494507820021479 0 0 1 1 0 0 forward_v I I I I #
coedge $-1 $225 $226 $86 $147 forward $83 $-1 #
coedge $-1 $227 $85 $226 $228 forward $53 $-1 #
coedge $-1 $85 $227 $229 $230 forward $53 $-1 #
coedge $-1 $87 $86 $85 $146 reversed $34 $-1 #
edge $-1 $231 -64.854274117252118 $232 64.854274117252118 $85 $233 forward 7 unknown #
edge $-1 $232 -15.977759864701852 $153 -11.494507820021479 $142 $234 forward 7 unknown #
coedge $-1 $229 $235 $87 $149 forward $236 $-1 #
edge $-1 $152 11.494507820021479 $231 15.977759864701852 $148 $237 forward 7 unknown #
coedge $-1 $238 $88 $235 $239 forward $140 $-1 #
coedge $-1 $88 $238 $225 $240 forward $140 $-1 #
vertex $-1 $149 $241 #
vertex $-1 $240 $242 #
straight-curve $-1 0 -37.519762178523813 -11.494507820021479 1 0 0 I I #
face $-1 $-1 $243 $20 $-1 $244 reversed single #
loop $-1 $-1 $96 $90 #
plane-surface $-1 0 0 15.977759864701852 0 0 1 1 0 0 forward_v I I I I #
coedge $-1 $245 $246 $247 $248 reversed $91 $-1 #
coedge $-1 $249 $93 $95 $165 forward $57 $-1 #
coedge $-1 $93 $249 $245 $250 forward $57 $-1 #
coedge $-1 $247 $96 $93 $162 forward $156 $-1 #
edge $-1 $168 -10.321769407166261 $251 3.4405898023887538 $161 $252 forward 7 unknown #
coedge $-1 $253 $254 $94 $164 forward $243 $-1 #
edge $-1 $255 -70.908900239016219 $167 -56.454790455173438 $163 $256 forward 7 unknown #
edge $-1 $168 55.276023347201402 $255 75.039524357047597 $95 $257 forward 7 unknown #
coedge $-1 $96 $247 $253 $258 forward $156 $-1 #
vertex $-1 $164 $259 #
vertex $-1 $97 $260 #
straight-curve $-1 -13.762359209555015 40.60287912357208 15.977759864701852 0 -1 0 I I #
coedge $-1 $170 $170 $-1 $261 reversed $100 $-1 #
edge $-1 $262 0 $262 6.2831853071796004 $101 $263 forward 7 unknown #
vertex $-1 $104 $264 #
ellipse-curve $-1 -6.8811796047775076 30.780424627198542 8.7507049727804596 0 0.73135370988377701 0.68199835119979291 3 0 0 1 I I #
face $-1 $-1 $265 $22 $-1 $266 reversed single #
loop $-1 $-1 $186 $105 #
plane-surface $-1 0 81.205758247144161 144.86510063975058 -1 0 0 0 0.73135370988377701 0.68199835119979291 forward_v I I I I #
coedge $-1 $180 $267 $110 $185 forward $106 $-1 #
coedge $-1 $179 $108 $182 $268 reversed $66 $-1 #
coedge $-1 $108 $178 $269 $270 reversed $66 $-1 #
coedge $-1 $271 $177 $108 $181 forward $106 $-1 #
edge $-1 $272 -16.561792047698816 $273 -3.0831169450482676 $180 $274 forward 7 unknown #
coedge $-1 $110 $109 $178 $268 forward $43 $-1 #
coedge $-1 $275 $269 $109 $184 forward $265 $-1 #
edge $-1 $276 -17.202949011943776 $188 -3.4405898023887538 $183 $277 forward 7 unknown #
edge $-1 $189 3.4405898023887538 $272 17.202949011943776 $177 $278 forward 7 unknown #
coedge $-1 $187 $111 $267 $279 reversed $175 $-1 #
coedge $-1 $111 $186 $275 $280 reversed $175 $-1 #
vertex $-1 $184 $281 #
vertex $-1 $185 $282 #
straight-curve $-1 0 -13.657069707799351 56.404084607299879 0 -0.68199835119979291 0.73135370988377701 I I #
coedge $-1 $191 $191 $-1 $283 reversed $115 $-1 #
edge $-1 $284 0 $284 6.2831853071796004 $116 $285 forward 7 unknown #
vertex $-1 $119 $286 #
ellipse-curve $-1 6.8811796047775147 30.780424627198542 8.7507049727804596 0 0.73135370988377701 0.68199835119979291 3 0 0 1 I I #
face $-1 $-1 $135 $18 $-1 $287 reversed single #
loop $-1 $-1 $211 $120 #
plane-surface $-1 0 37.519762178523813 0 0 -1 0 0 0 -1 forward_v I I I I #
coedge $-1 $288 $209 $212 $289 forward $121 $-1 #
coedge $-1 $215 $123 $124 $203 reversed $75 $-1 #
coedge $-1 $209 $288 $123 $201 reversed $121 $-1 #
edge $-1 $216 -15.977759864701852 $290 15.977759864701852 $200 $291 forward 7 unknown #
coedge $-1 $125 $124 $288 $292 forward $49 $-1 #
edge $-1 $207 -64.854274117252118 $290 64.854274117252118 $199 $293 forward 7 unknown #
coedge $-1 $212 $211 $125 $205 reversed $196 $-1 #
edge $-1 $294 -64.854274117252118 $206 64.854274117252118 $204 $295 forward 7 unknown #
vertex $-1 $127 $296 #
vertex $-1 $218 $297 #
straight-curve $-1 64.854274117252118 0 -15.977759864701852 0 -1 0 I I #
coedge $-1 $198 $200 $128 $210 reversed $121 $-1 #
edge $-1 $213 -37.519762178523813 $216 37.519762178523813 $209 $298 forward 7 unknown #
coedge $-1 $204 $129 $134 $219 forward $196 $-1 #
coedge $-1 $129 $204 $198 $289 reversed $196 $-1 #
vertex $-1 $130 $299 #
straight-curve $-1 0 37.519762178523813 15.977759864701852 -1 0 0 I I #
coedge $-1 $131 $199 $133 $218 reversed $75 $-1 #
vertex $-1 $210 $300 #
straight-curve $-1 0 -37.519762178523813 15.977759864701852 1 0 0 I I #
edge $-1 $136 -15.977759864701852 $207 15.977759864701852 $133 $301 forward 7 unknown #
edge $-1 $137 -15.977759864701852 $206 15.977759864701852 $134 $302 forward 7 unknown #
point $-1 64.854274117252118 -37.519762178523813 15.977759864701852 #
point $-1 64.854274117252118 37.519762178523813 15.977759864701852 #
face $-1 $-1 $236 $19 $-1 $303 reversed single #
loop $-1 $-1 $304 $139 #
plane-surface $-1 0 -56.897961101952056 -13.736133842361665 0 1 0 0 0 1 forward_v I I I I #
coedge $-1 $305 $142 $151 $240 reversed $83 $-1 #
coedge $-1 $142 $305 $143 $228 reversed $83 $-1 #
coedge $-1 $144 $143 $306 $307 forward $53 $-1 #
edge $-1 $232 37.519762178523813 $308 56.897961101952056 $226 $309 forward 7 unknown #
coedge $-1 $310 $148 $144 $230 reversed $236 $-1 #
edge $-1 $311 -56.897961101952056 $231 -37.519762178523813 $229 $312 forward 7 unknown #
vertex $-1 $149 $313 #
vertex $-1 $228 $314 #
straight-curve $-1 0 -37.519762178523813 -15.977759864701852 1 0 0 I I #
straight-curve $-1 64.854274117252118 -37.519762178523813 0 0 0 1 I I #
coedge $-1 $148 $310 $150 $239 reversed $236 $-1 #
loop $-1 $-1 $148 $222 #
straight-curve $-1 -64.854274117252118 -37.519762178523813 0 0 0 -1 I I #
coedge $-1 $151 $150 $315 $316 forward $140 $-1 #
edge $-1 $152 -9.6890994617141217 $317 9.6890994617141217 $235 $318 forward 7 unknown #
edge $-1 $319 -9.6890994617141217 $153 9.6890994617141217 $225 $320 forward 7 unknown #
point $-1 -64.854274117252118 -37.519762178523813 -11.494507820021479 #
point $-1 64.854274117252118 -37.519762178523813 -11.494507820021479 #
loop $-1 $-1 $163 $155 #
plane-surface $-1 0 37.519762178523813 0 0 -1 0 0 0 -1 forward_v I I I I #
coedge $-1 $246 $158 $160 $250 reversed $91 $-1 #
coedge $-1 $158 $245 $321 $322 reversed $91 $-1 #
coedge $-1 $166 $161 $158 $248 forward $156 $-1 #
edge $-1 $251 -16.561792047698816 $323 -3.0831169450482676 $247 $324 forward 7 unknown #
coedge $-1 $160 $159 $254 $325 reversed $57 $-1 #
edge $-1 $326 -75.039524357047597 $251 -55.276023347201402 $245 $327 forward 7 unknown #
vertex $-1 $162 $328 #
straight-curve $-1 -3.4405898023887538 24.041087075873271 15.977759864701849 1 0 0 I I #
coedge $-1 $321 $163 $166 $258 reversed $243 $-1 #
coedge $-1 $163 $321 $249 $325 forward $243 $-1 #
vertex $-1 $164 $329 #
straight-curve $-1 -13.762359209555015 37.519762178523813 72.43255031987529 0 0 1 I I #
straight-curve $-1 -13.762359209555015 -13.657069707799351 56.404084607299879 0 0.68199835119979291 -0.73135370988377701 I I #
edge $-1 $323 0 $167 13.762359209555015 $253 $330 forward 7 unknown #
point $-1 -13.762359209555015 37.519762178523813 15.977759864701852 #
point $-1 -13.762359209555015 24.041087075873264 15.977759864701852 #
edge $-1 $331 1 $331 0 $170 $-1 forward 7 unknown #
vertex $-1 $171 $332 #
ellipse-curve $-1 -6.8811796047775076 26.516713073144807 4.7747297222847012 0 0.73135370988377701 0.68199835119979291 3 0 0 1 I I #
point $-1 -3.8811796047775076 30.780424627198524 8.7507049727804471 #
loop $-1 $-1 $183 $174 #
plane-surface $-1 0 37.519762178523813 0 0 -1 0 0 0 -1 forward_v I I I I #
coedge $-1 $177 $271 $186 $279 forward $106 $-1 #
edge $-1 $276 -75.039524357047597 $272 -55.276023347201402 $178 $333 forward 7 unknown #
coedge $-1 $183 $334 $179 $270 forward $265 $-1 #
edge $-1 $273 56.454790455173438 $276 70.908900239016219 $269 $335 forward 7 unknown #
coedge $-1 $267 $180 $334 $336 forward $106 $-1 #
vertex $-1 $181 $337 #
vertex $-1 $336 $338 #
straight-curve $-1 13.762359209555022 40.60287912357208 15.977759864701852 0 1 0 I I #
coedge $-1 $334 $183 $187 $280 forward $265 $-1 #
vertex $-1 $270 $339 #
straight-curve $-1 -3.4405898023887538 37.519762178523813 1.5236500808590741 -1 0 0 I I #
straight-curve $-1 -3.4405898023887538 24.041087075873271 15.977759864701849 1 0 0 I I #
edge $-1 $340 3.0831169450482676 $189 16.561792047698816 $267 $341 forward 7 unknown #
edge $-1 $188 -70.908900239016219 $340 -56.454790455173438 $275 $342 forward 7 unknown #
point $-1 0 37.519762178523813 1.5236500808590705 #
point $-1 0 24.041087075873264 15.977759864701852 #
edge $-1 $343 1 $343 0 $191 $-1 forward 7 unknown #
vertex $-1 $192 $344 #
ellipse-curve $-1 6.8811796047775147 26.516713073144807 4.7747297222847012 0 0.73135370988377701 0.68199835119979291 3 0 0 1 I I #
point $-1 9.8811796047775147 30.780424627198524 8.7507049727804471 #
plane-surface $-1 64.854274117252118 0 0 -1 0 0 0 0 1 forward_v I I I I #
coedge $-1 $200 $198 $202 $292 reversed $121 $-1 #
edge $-1 $213 -15.977759864701852 $294 15.977759864701852 $212 $345 forward 7 unknown #
vertex $-1 $292 $346 #
straight-curve $-1 -64.854274117252118 -37.519762178523813 0 0 0 -1 I I #
edge $-1 $290 -37.519762178523813 $294 37.519762178523813 $288 $347 forward 7 unknown #
straight-curve $-1 0 -37.519762178523813 -15.977759864701852 -1 0 0 I I #
vertex $-1 $205 $348 #
straight-curve $-1 0 37.519762178523813 -15.977759864701852 1 0 0 I I #
point $-1 64.854274117252118 37.519762178523813 -15.977759864701852 #
point $-1 64.854274117252118 -37.519762178523813 -15.977759864701852 #
straight-curve $-1 -64.854274117252118 0 15.977759864701852 0 -1 0 I I #
point $-1 -64.854274117252118 37.519762178523813 15.977759864701852 #
point $-1 -64.854274117252118 -37.519762178523813 15.977759864701852 #
straight-curve $-1 64.854274117252118 -37.519762178523813 0 0 0 -1 I I #
straight-curve $-1 64.854274117252118 37.519762178523813 0 0 0 -1 I I #
plane-surface $-1 -64.854274117252118 0 0 1 0 0 0 0 -1 forward_v I I I I #
coedge $-1 $306 $315 $310 $349 forward $223 $-1 #
coedge $-1 $226 $225 $350 $351 forward $83 $-1 #
coedge $-1 $350 $304 $227 $307 reversed $223 $-1 #
edge $-1 $308 -64.854274117252118 $311 64.854274117252118 $306 $352 forward 7 unknown #
vertex $-1 $351 $353 #
straight-curve $-1 64.854274117252118 0 -15.977759864701852 0 -1 0 I I #
coedge $-1 $235 $229 $304 $349 reversed $236 $-1 #
vertex $-1 $230 $354 #
straight-curve $-1 -64.854274117252118 0 -15.977759864701852 0 1 0 I I #
point $-1 -64.854274117252118 -37.519762178523813 -15.977759864701852 #
point $-1 64.854274117252118 -37.519762178523813 -15.977759864701852 #
coedge $-1 $304 $350 $238 $316 reversed $223 $-1 #
edge $-1 $317 -64.854274117252118 $319 64.854274117252118 $315 $355 forward 7 unknown #
vertex $-1 $239 $356 #
straight-curve $-1 -64.854274117252118 -47.208861640237934 -11.494507820021479 0 -1 0 I I #
vertex $-1 $240 $357 #
straight-curve $-1 64.854274117252118 -47.208861640237934 -11.494507820021479 0 1 0 I I #
coedge $-1 $254 $253 $246 $322 forward $243 $-1 #
edge $-1 $323 56.454790455173438 $326 70.908900239016219 $321 $358 forward 7 unknown #
vertex $-1 $258 $359 #
straight-curve $-1 0 40.60287912357208 15.977759864701852 0 1 0 I I #
edge $-1 $326 -3.4405898023887538 $255 10.321769407166261 $254 $360 forward 7 unknown #
vertex $-1 $325 $361 #
straight-curve $-1 0 -13.657069707799351 56.404084607299879 0 -0.68199835119979291 0.73135370988377701 I I #
point $-1 0 24.041087075873264 15.977759864701852 #
point $-1 -13.762359209555015 37.519762178523813 1.5236500808590705 #
straight-curve $-1 0 37.519762178523813 15.977759864701852 -1 0 0 I I #
vertex $-1 $261 $362 #
point $-1 -3.8811796047775076 26.516713073144807 4.7747297222847012 #
straight-curve $-1 13.762359209555022 -13.657069707799351 56.404084607299879 0 -0.68199835119979291 0.73135370988377701 I I #
coedge $-1 $269 $275 $271 $336 reversed $265 $-1 #
straight-curve $-1 13.762359209555022 37.519762178523813 72.43255031987529 0 0 -1 I I #
edge $-1 $273 -13.762359209555022 $340 0 $334 $363 forward 7 unknown #
point $-1 13.762359209555022 24.041087075873264 15.977759864701852 #
point $-1 13.762359209555022 37.519762178523813 15.977759864701852 #
point $-1 13.762359209555022 37.519762178523813 1.5236500808590705 #
vertex $-1 $280 $364 #
straight-curve $-1 0 40.60287912357208 15.977759864701852 0 -1 0 I I #
straight-curve $-1 0 37.519762178523813 72.43255031987529 0 0 1 I I #
vertex $-1 $283 $365 #
point $-1 9.8811796047775147 26.516713073144807 4.7747297222847012 #
straight-curve $-1 -64.854274117252118 37.519762178523813 0 0 0 -1 I I #
point $-1 -64.854274117252118 -37.519762178523813 -15.977759864701852 #
straight-curve $-1 -64.854274117252118 0 -15.977759864701852 0 1 0 I I #
point $-1 -64.854274117252118 37.519762178523813 -15.977759864701852 #
edge $-1 $317 -2.2416260223401867 $311 2.2416260223401867 $310 $366 forward 7 unknown #
coedge $-1 $315 $306 $305 $351 reversed $223 $-1 #
edge $-1 $319 -2.2416260223401867 $308 2.2416260223401867 $305 $367 forward 7 unknown #
straight-curve $-1 0 -56.897961101952056 -15.977759864701852 -1 0 0 I I #
point $-1 64.854274117252118 -56.897961101952056 -15.977759864701852 #
point $-1 -64.854274117252118 -56.897961101952056 -15.977759864701852 #
straight-curve $-1 0 -56.897961101952056 -11.494507820021479 1 0 0 I I #
point $-1 -64.854274117252118 -56.897961101952056 -11.494507820021479 #
point $-1 64.854274117252118 -56.897961101952056 -11.494507820021479 #
straight-curve $-1 0 37.519762178523813 72.43255031987529 0 0 -1 I I #
point $-1 0 37.519762178523813 15.977759864701852 #
straight-curve $-1 -3.4405898023887538 37.519762178523813 1.5236500808590741 -1 0 0 I I #
point $-1 0 37.519762178523813 1.5236500808590705 #
point $-1 -6.8811796047775076 24.322651943493476 2.7287346686853224 #
straight-curve $-1 0 37.519762178523813 15.977759864701852 -1 0 0 I I #
point $-1 0 37.519762178523813 15.977759864701852 #
point $-1 6.8811796047775147 24.322651943493476 2.7287346686853224 #
straight-curve $-1 -64.854274117252118 -56.897961101952056 -13.736133842361665 0 0 -1 I I #
straight-curve $-1 64.854274117252118 -56.897961101952056 -13.736133842361665 0 0 -1 I I #
End-of-ACIS-data 