500 0 19 0           
7 Unknown 11 ACIS 5.0 NT 24 Fri Mar 26 14:34:18 1999 
-1 9.9999999999999995e-007 1e-010 
body $-1 $19 $-1 $20 #
body $-1 $21 $-1 $22 #
body $-1 $23 $-1 $24 #
body $-1 $25 $-1 $26 #
body $-1 $27 $-1 $28 #
body $-1 $29 $-1 $30 #
body $-1 $31 $-1 $32 #
body $-1 $33 $-1 $34 #
body $-1 $35 $-1 $36 #
body $-1 $37 $-1 $38 #
body $-1 $39 $-1 $40 #
body $-1 $41 $-1 $42 #
body $-1 $43 $-1 $44 #
body $-1 $45 $-1 $46 #
body $-1 $47 $-1 $48 #
body $-1 $49 $-1 $50 #
body $-1 $51 $-1 $52 #
body $-1 $53 $-1 $54 #
body $-1 $55 $-1 $56 #
lump $-1 $-1 $57 $0 #
transform $-1 1 0 0 0 1 0 0 0 1 59.716177861873227 27.922466124237936 12.077124886189218 1 rotate no_reflect no_shear #
lump $-1 $-1 $58 $1 #
transform $-1 1 0 0 0 1 0 0 0 1 59.716177861873227 27.922466124237936 12.077124886189218 1 rotate no_reflect no_shear #
lump $-1 $-1 $59 $2 #
transform $-1 1 0 0 0 1 0 0 0 1 59.716177861873227 27.922466124237936 12.077124886189218 1 rotate no_reflect no_shear #
lump $-1 $-1 $60 $3 #
transform $-1 1 0 0 0 1 0 0 0 1 59.716177861873227 27.922466124237936 12.077124886189218 1 rotate no_reflect no_shear #
lump $-1 $-1 $61 $4 #
transform $-1 1 0 0 0 1 0 0 0 1 59.716177861873227 27.922466124237936 12.077124886189218 1 rotate no_reflect no_shear #
lump $-1 $-1 $62 $5 #
transform $-1 1 0 0 0 1 0 0 0 1 59.716177861873227 27.922466124237936 12.077124886189218 1 rotate no_reflect no_shear #
lump $-1 $-1 $63 $6 #
transform $-1 1 0 0 0 1 0 0 0 1 59.716177861873227 27.922466124237936 12.077124886189218 1 rotate no_reflect no_shear #
lump $-1 $-1 $64 $7 #
transform $-1 1 0 0 0 1 0 0 0 1 59.716177861873227 27.922466124237936 12.077124886189218 1 rotate no_reflect no_shear #
lump $-1 $-1 $65 $8 #
transform $-1 1 0 0 0 1 0 0 0 1 59.716177861873227 27.922466124237936 12.077124886189218 1 rotate no_reflect no_shear #
lump $-1 $-1 $66 $9 #
transform $-1 1 0 0 0 1 0 0 0 1 59.716177861873227 27.922466124237936 12.077124886189218 1 rotate no_reflect no_shear #
lump $-1 $-1 $67 $10 #
transform $-1 1 0 0 0 1 0 0 0 1 59.716177861873227 27.922466124237936 12.077124886189218 1 rotate no_reflect no_shear #
lump $-1 $-1 $68 $11 #
transform $-1 1 0 0 0 1 0 0 0 1 59.716177861873227 27.922466124237936 12.077124886189218 1 rotate no_reflect no_shear #
lump $-1 $-1 $69 $12 #
transform $-1 1 0 0 0 1 0 0 0 1 59.716177861873227 27.922466124237936 12.077124886189218 1 rotate no_reflect no_shear #
lump $-1 $-1 $70 $13 #
transform $-1 1 0 0 0 1 0 0 0 1 59.716177861873227 27.922466124237936 12.077124886189218 1 rotate no_reflect no_shear #
lump $-1 $-1 $71 $14 #
transform $-1 1 0 0 0 1 0 0 0 1 59.716177861873227 27.922466124237936 12.077124886189218 1 rotate no_reflect no_shear #
lump $-1 $-1 $72 $15 #
transform $-1 1 0 0 0 1 0 0 0 1 59.716177861873227 27.922466124237936 12.077124886189218 1 rotate no_reflect no_shear #
lump $-1 $-1 $73 $16 #
transform $-1 1 0 0 0 1 0 0 0 1 59.716177861873227 27.922466124237936 12.077124886189218 1 rotate no_reflect no_shear #
lump $-1 $-1 $74 $17 #
transform $-1 1 0 0 0 1 0 0 0 1 59.716177861873227 27.922466124237936 12.077124886189218 1 rotate no_reflect no_shear #
lump $-1 $-1 $75 $18 #
transform $-1 1 0 0 0 1 0 0 0 1 59.716177861873227 27.922466124237936 12.077124886189218 1 rotate no_reflect no_shear #
shell $-1 $-1 $-1 $76 $-1 $19 #
shell $-1 $-1 $-1 $77 $-1 $21 #
shell $-1 $-1 $-1 $78 $-1 $23 #
shell $-1 $-1 $-1 $79 $-1 $25 #
shell $-1 $-1 $-1 $80 $-1 $27 #
shell $-1 $-1 $-1 $81 $-1 $29 #
shell $-1 $-1 $-1 $82 $-1 $31 #
shell $-1 $-1 $-1 $83 $-1 $33 #
shell $-1 $-1 $-1 $84 $-1 $35 #
shell $-1 $-1 $-1 $85 $-1 $37 #
shell $-1 $-1 $-1 $86 $-1 $39 #
shell $-1 $-1 $-1 $87 $-1 $41 #
shell $-1 $-1 $-1 $88 $-1 $43 #
shell $-1 $-1 $-1 $89 $-1 $45 #
shell $-1 $-1 $-1 $90 $-1 $47 #
shell $-1 $-1 $-1 $91 $-1 $49 #
shell $-1 $-1 $-1 $92 $-1 $51 #
shell $-1 $-1 $-1 $93 $-1 $53 #
shell $-1 $-1 $-1 $94 $-1 $55 #
face $-1 $95 $96 $57 $-1 $97 forward single #
face $-1 $98 $99 $58 $-1 $100 forward single #
face $-1 $101 $102 $59 $-1 $103 forward single #
face $-1 $104 $105 $60 $-1 $106 reversed single #
face $-1 $107 $108 $61 $-1 $109 forward single #
face $-1 $110 $111 $62 $-1 $112 forward single #
face $-1 $113 $114 $63 $-1 $115 forward single #
face $-1 $116 $117 $64 $-1 $118 reversed single #
face $-1 $119 $120 $65 $-1 $121 forward single #
face $-1 $122 $123 $66 $-1 $124 forward single #
face $-1 $125 $126 $67 $-1 $127 forward single #
face $-1 $128 $129 $68 $-1 $130 reversed single #
face $-1 $131 $132 $69 $-1 $133 forward single #
face $-1 $134 $135 $70 $-1 $136 forward single #
face $-1 $137 $138 $71 $-1 $139 forward single #
face $-1 $140 $141 $72 $-1 $142 reversed single #
face $-1 $143 $144 $73 $-1 $145 forward single #
face $-1 $146 $147 $74 $-1 $148 forward single #
face $-1 $149 $150 $75 $-1 $151 forward single #
face $-1 $152 $153 $57 $-1 $154 reversed single #
loop $-1 $-1 $155 $76 #
plane-surface $-1 0 0 12.077124886189218 0 0 1 1 0 0 forward_v I I I I #
face $-1 $156 $157 $58 $-1 $158 reversed single #
loop $-1 $-1 $159 $77 #
plane-surface $-1 0 -22.963123256836951 5.4565955543106703 0 0 1 1 0 0 forward_v I I I I #
face $-1 $160 $161 $59 $-1 $162 reversed single #
loop $-1 $-1 $163 $78 #
plane-surface $-1 0 22.963123256836951 5.4565955543106703 0 0 1 1 0 0 forward_v I I I I #
face $-1 $164 $165 $60 $-1 $166 reversed single #
loop $-1 $-1 $167 $79 #
plane-surface $-1 68.555872495739834 -9.8179907349259015 169.12458689212752 0 1 0 0.74314483375859142 0 0.66913059716165679 forward_v I I I I #
face $-1 $168 $169 $61 $-1 $170 forward single #
loop $-1 $171 $172 $80 #
cone-surface $-1 54.111493448177271 -8.2725905941707012 5.9305997677903282 -0.74314483375859142 0 -0.66913059716165679 0.1672826492904142 0 -0.18578620843964785 1 I I 0 1 0.25 forward I I I I #
face $-1 $173 $174 $62 $-1 $175 forward single #
loop $-1 $176 $177 $81 #
cone-surface $-1 54.111493448177271 -5.9544903830378964 5.9305997677903282 -0.74314483375859142 0 -0.66913059716165679 0.1672826492904142 0 -0.18578620843964785 1 I I 0 1 0.25 forward I I I I #
face $-1 $178 $179 $63 $-1 $180 forward single #
loop $-1 $181 $182 $82 #
cone-surface $-1 54.111493448177271 -3.6363901719050915 5.9305997677903282 -0.74314483375859142 0 -0.66913059716165679 0.1672826492904142 0 -0.18578620843964785 1 I I 0 1 0.25 forward I I I I #
face $-1 $183 $184 $64 $-1 $185 reversed single #
loop $-1 $-1 $186 $83 #
plane-surface $-1 68.555872495739834 8.1857896545100655 169.12458689212752 0 1 0 0.74314483375859142 0 0.66913059716165679 forward_v I I I I #
face $-1 $187 $188 $65 $-1 $189 forward single #
loop $-1 $190 $191 $84 #
cone-surface $-1 54.111493448177271 9.7311897952652657 5.9305997677903282 -0.74314483375859142 0 -0.66913059716165679 0.1672826492904142 0 -0.18578620843964785 1 I I 0 1 0.25 forward I I I I #
face $-1 $192 $193 $66 $-1 $194 forward single #
loop $-1 $195 $196 $85 #
cone-surface $-1 54.111493448177271 12.049290006398074 5.9305997677903282 -0.74314483375859142 0 -0.66913059716165679 0.1672826492904142 0 -0.18578620843964785 1 I I 0 1 0.25 forward I I I I #
face $-1 $197 $198 $67 $-1 $199 forward single #
loop $-1 $200 $201 $86 #
cone-surface $-1 54.111493448177271 14.367390217530875 5.9305997677903282 -0.74314483375859142 0 -0.66913059716165679 0.1672826492904142 0 -0.18578620843964785 1 I I 0 1 0.25 forward I I I I #
face $-1 $202 $203 $68 $-1 $204 reversed single #
loop $-1 $-1 $205 $87 #
plane-surface $-1 -148.47171600159373 -2.0909900311498841 80.369048752406997 0 -1 0 0.74314483375859142 0 -0.66913059716165679 forward_v I I I I #
face $-1 $206 $207 $69 $-1 $208 forward single #
loop $-1 $209 $210 $88 #
cone-surface $-1 -54.111493448177264 -8.2725905941707012 5.9305997677903317 0.74314483375859142 0 -0.66913059716165679 0.1672826492904142 0 0.18578620843964785 1 I I 0 1 0.25 forward I I I I #
face $-1 $211 $212 $70 $-1 $213 forward single #
loop $-1 $214 $215 $89 #
cone-surface $-1 -54.111493448177264 -5.9544903830378964 5.9305997677903317 0.74314483375859142 0 -0.66913059716165679 0.1672826492904142 0 0.18578620843964785 1 I I 0 1 0.25 forward I I I I #
face $-1 $216 $217 $71 $-1 $218 forward single #
loop $-1 $219 $220 $90 #
cone-surface $-1 -54.111493448177264 -3.6363901719050915 5.9305997677903317 0.74314483375859142 0 -0.66913059716165679 0.1672826492904142 0 0.18578620843964785 1 I I 0 1 0.25 forward I I I I #
face $-1 $221 $222 $72 $-1 $223 reversed single #
loop $-1 $-1 $224 $91 #
plane-surface $-1 -148.47171600159373 15.912790358286083 80.369048752406997 0 -1 0 0.74314483375859142 0 -0.66913059716165679 forward_v I I I I #
face $-1 $225 $226 $73 $-1 $227 forward single #
loop $-1 $228 $229 $92 #
cone-surface $-1 -54.111493448177264 9.7311897952652657 5.9305997677903317 0.74314483375859142 0 -0.66913059716165679 0.1672826492904142 0 0.18578620843964785 1 I I 0 1 0.25 forward I I I I #
face $-1 $230 $231 $74 $-1 $232 forward single #
loop $-1 $233 $234 $93 #
cone-surface $-1 -54.111493448177264 12.049290006398074 5.9305997677903317 0.74314483375859142 0 -0.66913059716165679 0.1672826492904142 0 0.18578620843964785 1 I I 0 1 0.25 forward I I I I #
face $-1 $235 $236 $75 $-1 $237 forward single #
loop $-1 $238 $239 $94 #
cone-surface $-1 -54.111493448177264 14.367390217530875 5.9305997677903317 0.74314483375859142 0 -0.66913059716165679 0.1672826492904142 0 0.18578620843964785 1 I I 0 1 0.25 forward I I I I #
face $-1 $240 $241 $57 $-1 $242 reversed single #
loop $-1 $-1 $243 $95 #
plane-surface $-1 0 0 -12.077124886189218 0 0 1 1 0 0 forward_v I I I I #
coedge $-1 $244 $245 $246 $247 forward $96 $-1 #
face $-1 $248 $249 $58 $-1 $250 reversed single #
loop $-1 $-1 $251 $98 #
plane-surface $-1 0 -22.963123256836951 0.67845194642530515 0 0 1 1 0 0 forward_v I I I I #
coedge $-1 $252 $253 $254 $255 reversed $99 $-1 #
face $-1 $256 $257 $59 $-1 $258 reversed single #
loop $-1 $-1 $259 $101 #
plane-surface $-1 0 22.963123256836951 0.67845194642530515 0 0 1 1 0 0 forward_v I I I I #
coedge $-1 $260 $261 $262 $263 reversed $102 $-1 #
face $-1 $264 $265 $60 $-1 $266 reversed single #
loop $-1 $-1 $267 $104 #
plane-surface $-1 -20.199665643980666 -5.9544903830378928 89.208743386273653 0.74314483375859142 0 0.66913059716165679 0.66913059716165679 0 -0.74314483375859142 forward_v I I I I #
coedge $-1 $268 $269 $270 $271 reversed $105 $-1 #
face $-1 $-1 $272 $61 $-1 $273 forward single #
loop $-1 $274 $275 $107 #
cone-surface $-1 53.647027927078149 -8.2725905941707012 5.5123931445642924 -0.74314483375859142 0 -0.66913059716165679 0.083641324645207099 0 -0.092893104219823927 1 I I -0.70710678118654746 0.70710678118654746 0.125 forward I I I I #
loop $-1 $-1 $276 $80 #
coedge $-1 $172 $172 $277 $278 reversed $108 $-1 #
face $-1 $-1 $279 $62 $-1 $280 forward single #
loop $-1 $281 $282 $110 #
cone-surface $-1 53.647027927078149 -5.9544903830378964 5.5123931445642924 -0.74314483375859142 0 -0.66913059716165679 0.083641324645207099 0 -0.092893104219823927 1 I I -0.70710678118654746 0.70710678118654746 0.125 forward I I I I #
loop $-1 $-1 $283 $81 #
coedge $-1 $177 $177 $284 $285 reversed $111 $-1 #
face $-1 $-1 $286 $63 $-1 $287 forward single #
loop $-1 $288 $289 $113 #
cone-surface $-1 53.647027927078149 -3.6363901719050915 5.5123931445642924 -0.74314483375859142 0 -0.66913059716165679 0.083641324645207099 0 -0.092893104219823927 1 I I -0.70710678118654746 0.70710678118654746 0.125 forward I I I I #
loop $-1 $-1 $290 $82 #
coedge $-1 $182 $182 $291 $292 reversed $114 $-1 #
face $-1 $293 $294 $64 $-1 $295 reversed single #
loop $-1 $-1 $296 $116 #
plane-surface $-1 -20.199665643980666 12.049290006398074 89.208743386273653 0.74314483375859142 0 0.66913059716165679 0.66913059716165679 0 -0.74314483375859142 forward_v I I I I #
coedge $-1 $297 $298 $299 $300 reversed $117 $-1 #
face $-1 $-1 $301 $65 $-1 $302 forward single #
loop $-1 $303 $304 $119 #
cone-surface $-1 53.647027927078149 9.7311897952652657 5.5123931445642924 -0.74314483375859142 0 -0.66913059716165679 0.083641324645207099 0 -0.092893104219823927 1 I I -0.70710678118654746 0.70710678118654746 0.125 forward I I I I #
loop $-1 $-1 $305 $84 #
coedge $-1 $191 $191 $306 $307 reversed $120 $-1 #
face $-1 $-1 $308 $66 $-1 $309 forward single #
loop $-1 $310 $311 $122 #
cone-surface $-1 53.647027927078149 12.049290006398074 5.5123931445642924 -0.74314483375859142 0 -0.66913059716165679 0.083641324645207099 0 -0.092893104219823927 1 I I -0.70710678118654746 0.70710678118654746 0.125 forward I I I I #
loop $-1 $-1 $312 $85 #
coedge $-1 $196 $196 $313 $314 reversed $123 $-1 #
face $-1 $-1 $315 $67 $-1 $316 forward single #
loop $-1 $317 $318 $125 #
cone-surface $-1 53.647027927078149 14.367390217530875 5.5123931445642924 -0.74314483375859142 0 -0.66913059716165679 0.083641324645207099 0 -0.092893104219823927 1 I I -0.70710678118654746 0.70710678118654746 0.125 forward I I I I #
loop $-1 $-1 $319 $86 #
coedge $-1 $201 $201 $320 $321 reversed $126 $-1 #
face $-1 $322 $323 $68 $-1 $324 reversed single #
loop $-1 $-1 $325 $128 #
plane-surface $-1 -59.716177861873234 -5.9544903830378928 0.45320524655312511 -0.74314483375859142 0 0.66913059716165679 0.66913059716165679 0 0.74314483375859142 forward_v I I I I #
coedge $-1 $326 $327 $328 $329 reversed $129 $-1 #
face $-1 $-1 $330 $69 $-1 $331 forward single #
loop $-1 $332 $333 $131 #
cone-surface $-1 -53.647027927078142 -8.2725905941707012 5.512393144564296 0.74314483375859142 0 -0.66913059716165679 0.083641324645207099 0 0.092893104219823927 1 I I -0.70710678118654746 0.70710678118654746 0.125 forward I I I I #
loop $-1 $-1 $334 $88 #
coedge $-1 $210 $210 $335 $336 reversed $132 $-1 #
face $-1 $-1 $337 $70 $-1 $338 forward single #
loop $-1 $339 $340 $134 #
cone-surface $-1 -53.647027927078142 -5.9544903830378964 5.512393144564296 0.74314483375859142 0 -0.66913059716165679 0.083641324645207099 0 0.092893104219823927 1 I I -0.70710678118654746 0.70710678118654746 0.125 forward I I I I #
loop $-1 $-1 $341 $89 #
coedge $-1 $215 $215 $342 $343 reversed $135 $-1 #
face $-1 $-1 $344 $71 $-1 $345 forward single #
loop $-1 $346 $347 $137 #
cone-surface $-1 -53.647027927078142 -3.6363901719050915 5.512393144564296 0.74314483375859142 0 -0.66913059716165679 0.083641324645207099 0 0.092893104219823927 1 I I -0.70710678118654746 0.70710678118654746 0.125 forward I I I I #
loop $-1 $-1 $348 $90 #
coedge $-1 $220 $220 $349 $350 reversed $138 $-1 #
face $-1 $351 $352 $72 $-1 $353 reversed single #
loop $-1 $-1 $354 $140 #
plane-surface $-1 -59.716177861873234 12.049290006398074 0.45320524655312511 -0.74314483375859142 0 0.66913059716165679 0.66913059716165679 0 0.74314483375859142 forward_v I I I I #
coedge $-1 $355 $356 $357 $358 reversed $141 $-1 #
face $-1 $-1 $359 $73 $-1 $360 forward single #
loop $-1 $361 $362 $143 #
cone-surface $-1 -53.647027927078142 9.7311897952652657 5.512393144564296 0.74314483375859142 0 -0.66913059716165679 0.083641324645207099 0 0.092893104219823927 1 I I -0.70710678118654746 0.70710678118654746 0.125 forward I I I I #
loop $-1 $-1 $363 $92 #
coedge $-1 $229 $229 $364 $365 reversed $144 $-1 #
face $-1 $-1 $366 $74 $-1 $367 forward single #
loop $-1 $368 $369 $146 #
cone-surface $-1 -53.647027927078142 12.049290006398074 5.512393144564296 0.74314483375859142 0 -0.66913059716165679 0.083641324645207099 0 0.092893104219823927 1 I I -0.70710678118654746 0.70710678118654746 0.125 forward I I I I #
loop $-1 $-1 $370 $93 #
coedge $-1 $234 $234 $371 $372 reversed $147 $-1 #
face $-1 $-1 $373 $75 $-1 $374 forward single #
loop $-1 $375 $376 $149 #
cone-surface $-1 -53.647027927078142 14.367390217530875 5.512393144564296 0.74314483375859142 0 -0.66913059716165679 0.083641324645207099 0 0.092893104219823927 1 I I -0.70710678118654746 0.70710678118654746 0.125 forward I I I I #
loop $-1 $-1 $377 $94 #
coedge $-1 $239 $239 $378 $379 reversed $150 $-1 #
face $-1 $380 $381 $57 $-1 $382 reversed single #
loop $-1 $-1 $383 $152 #
plane-surface $-1 0 -27.922466124237936 0 0 1 0 0 0 1 forward_v I I I I #
coedge $-1 $384 $385 $386 $387 forward $153 $-1 #
coedge $-1 $388 $155 $389 $390 forward $96 $-1 #
coedge $-1 $155 $388 $391 $392 forward $96 $-1 #
coedge $-1 $393 $394 $155 $247 reversed $395 $-1 #
edge $-1 $396 -27.922466124237936 $397 27.922466124237936 $246 $398 forward 7 unknown #
face $-1 $399 $400 $58 $-1 $401 reversed single #
loop $-1 $-1 $402 $156 #
plane-surface $-1 0 -18.003780389435967 3.0675237503679877 0 -1 0 0 0 -1 forward_v I I I I #
coedge $-1 $403 $404 $405 $406 reversed $157 $-1 #
coedge $-1 $407 $159 $408 $409 forward $99 $-1 #
coedge $-1 $159 $407 $410 $411 reversed $99 $-1 #
coedge $-1 $412 $413 $159 $255 forward $414 $-1 #
edge $-1 $415 6.5222187610174913 $416 16.44090449581946 $254 $417 forward 7 unknown #
face $-1 $418 $419 $59 $-1 $420 reversed single #
loop $-1 $-1 $421 $160 #
plane-surface $-1 0 18.003780389435967 3.0675237503679877 0 1 0 0 0 1 forward_v I I I I #
coedge $-1 $422 $423 $424 $425 reversed $161 $-1 #
coedge $-1 $426 $163 $427 $428 reversed $102 $-1 #
coedge $-1 $163 $426 $429 $430 forward $102 $-1 #
coedge $-1 $431 $432 $163 $263 forward $419 $-1 #
edge $-1 $433 -16.44090449581946 $434 -6.5222187610174913 $262 $435 forward 7 unknown #
face $-1 $436 $437 $60 $-1 $438 forward single #
loop $-1 $-1 $439 $164 #
plane-surface $-1 68.555872495739834 -2.0909900311498841 169.12458689212752 0 -1 0 -0.74314483375859142 0 -0.66913059716165679 forward_v I I I I #
coedge $-1 $440 $441 $442 $443 reversed $165 $-1 #
coedge $-1 $269 $167 $444 $445 reversed $105 $-1 #
coedge $-1 $167 $268 $440 $446 reversed $105 $-1 #
coedge $-1 $442 $447 $167 $271 forward $448 $-1 #
edge $-1 $449 72.485168559874552 $450 84.109088199510637 $270 $451 forward 7 unknown #
loop $-1 $-1 $277 $168 #
plane-surface $-1 -20.199665643980666 -5.9544903830378928 89.208743386273653 0.74314483375859142 0 0.66913059716165679 0.66913059716165679 0 -0.74314483375859142 forward_v I I I I #
loop $-1 $-1 $452 $107 #
coedge $-1 $275 $275 $276 $453 reversed $169 $-1 #
coedge $-1 $276 $276 $275 $453 forward $171 $-1 #
coedge $-1 $277 $277 $172 $278 forward $272 $-1 #
edge $-1 $454 0 $454 6.2831853071796004 $277 $455 forward 7 unknown #
loop $-1 $-1 $284 $173 #
plane-surface $-1 -20.199665643980666 -5.9544903830378928 89.208743386273653 0.74314483375859142 0 0.66913059716165679 0.66913059716165679 0 -0.74314483375859142 forward_v I I I I #
loop $-1 $-1 $456 $110 #
coedge $-1 $282 $282 $283 $457 reversed $174 $-1 #
coedge $-1 $283 $283 $282 $457 forward $176 $-1 #
coedge $-1 $284 $284 $177 $285 forward $279 $-1 #
edge $-1 $458 0 $458 6.2831853071796004 $284 $459 forward 7 unknown #
loop $-1 $-1 $291 $178 #
plane-surface $-1 -20.199665643980666 -5.9544903830378928 89.208743386273653 0.74314483375859142 0 0.66913059716165679 0.66913059716165679 0 -0.74314483375859142 forward_v I I I I #
loop $-1 $-1 $460 $113 #
coedge $-1 $289 $289 $290 $461 reversed $179 $-1 #
coedge $-1 $290 $290 $289 $461 forward $181 $-1 #
coedge $-1 $291 $291 $182 $292 forward $286 $-1 #
edge $-1 $462 0 $462 6.2831853071796004 $291 $463 forward 7 unknown #
face $-1 $464 $465 $64 $-1 $466 reversed single #
loop $-1 $-1 $467 $183 #
plane-surface $-1 68.555872495739834 15.912790358286083 169.12458689212752 0 -1 0 -0.74314483375859142 0 -0.66913059716165679 forward_v I I I I #
coedge $-1 $468 $469 $470 $471 reversed $184 $-1 #
coedge $-1 $298 $186 $472 $473 reversed $117 $-1 #
coedge $-1 $186 $297 $468 $474 reversed $117 $-1 #
coedge $-1 $470 $475 $186 $300 forward $465 $-1 #
edge $-1 $476 72.485168559874552 $477 84.109088199510637 $299 $478 forward 7 unknown #
loop $-1 $-1 $306 $187 #
plane-surface $-1 -20.199665643980666 12.049290006398074 89.208743386273653 0.74314483375859142 0 0.66913059716165679 0.66913059716165679 0 -0.74314483375859142 forward_v I I I I #
loop $-1 $-1 $479 $119 #
coedge $-1 $304 $304 $305 $480 reversed $188 $-1 #
coedge $-1 $305 $305 $304 $480 forward $190 $-1 #
coedge $-1 $306 $306 $191 $307 forward $301 $-1 #
edge $-1 $481 0 $481 6.2831853071796004 $306 $482 forward 7 unknown #
loop $-1 $-1 $313 $192 #
plane-surface $-1 -20.199665643980666 12.049290006398074 89.208743386273653 0.74314483375859142 0 0.66913059716165679 0.66913059716165679 0 -0.74314483375859142 forward_v I I I I #
loop $-1 $-1 $483 $122 #
coedge $-1 $311 $311 $312 $484 reversed $193 $-1 #
coedge $-1 $312 $312 $311 $484 forward $195 $-1 #
coedge $-1 $313 $313 $196 $314 forward $308 $-1 #
edge $-1 $485 0 $485 6.2831853071796004 $313 $486 forward 7 unknown #
loop $-1 $-1 $320 $197 #
plane-surface $-1 -20.199665643980666 12.049290006398074 89.208743386273653 0.74314483375859142 0 0.66913059716165679 0.66913059716165679 0 -0.74314483375859142 forward_v I I I I #
loop $-1 $-1 $487 $125 #
coedge $-1 $318 $318 $319 $488 reversed $198 $-1 #
coedge $-1 $319 $319 $318 $488 forward $200 $-1 #
coedge $-1 $320 $320 $201 $321 forward $315 $-1 #
edge $-1 $489 0 $489 6.2831853071796004 $320 $490 forward 7 unknown #
face $-1 $491 $492 $68 $-1 $493 reversed single #
loop $-1 $-1 $494 $202 #
plane-surface $-1 -148.47171600159373 -9.8179907349259015 80.369048752406997 0 1 0 -0.74314483375859142 0 0.66913059716165679 forward_v I I I I #
coedge $-1 $495 $496 $497 $498 reversed $203 $-1 #
coedge $-1 $327 $205 $499 $500 reversed $129 $-1 #
coedge $-1 $205 $326 $495 $501 reversed $129 $-1 #
coedge $-1 $497 $502 $205 $329 forward $492 $-1 #
edge $-1 $503 28.107399490014281 $504 39.731319129650366 $328 $505 forward 7 unknown #
loop $-1 $-1 $335 $206 #
plane-surface $-1 -59.716177861873234 -5.9544903830378928 0.45320524655312511 -0.74314483375859142 0 0.66913059716165679 0.66913059716165679 0 0.74314483375859142 forward_v I I I I #
loop $-1 $-1 $506 $131 #
coedge $-1 $333 $333 $334 $507 reversed $207 $-1 #
coedge $-1 $334 $334 $333 $507 forward $209 $-1 #
coedge $-1 $335 $335 $210 $336 forward $330 $-1 #
edge $-1 $508 0 $508 6.2831853071796004 $335 $509 forward 7 unknown #
loop $-1 $-1 $342 $211 #
plane-surface $-1 -59.716177861873234 -5.9544903830378928 0.45320524655312511 -0.74314483375859142 0 0.66913059716165679 0.66913059716165679 0 0.74314483375859142 forward_v I I I I #
loop $-1 $-1 $510 $134 #
coedge $-1 $340 $340 $341 $511 reversed $212 $-1 #
coedge $-1 $341 $341 $340 $511 forward $214 $-1 #
coedge $-1 $342 $342 $215 $343 forward $337 $-1 #
edge $-1 $512 0 $512 6.2831853071796004 $342 $513 forward 7 unknown #
loop $-1 $-1 $349 $216 #
plane-surface $-1 -59.716177861873234 -5.9544903830378928 0.45320524655312511 -0.74314483375859142 0 0.66913059716165679 0.66913059716165679 0 0.74314483375859142 forward_v I I I I #
loop $-1 $-1 $514 $137 #
coedge $-1 $347 $347 $348 $515 reversed $217 $-1 #
coedge $-1 $348 $348 $347 $515 forward $219 $-1 #
coedge $-1 $349 $349 $220 $350 forward $344 $-1 #
edge $-1 $516 0 $516 6.2831853071796004 $349 $517 forward 7 unknown #
face $-1 $518 $519 $72 $-1 $520 reversed single #
loop $-1 $-1 $521 $221 #
plane-surface $-1 -148.47171600159373 8.1857896545100655 80.369048752406997 0 1 0 -0.74314483375859142 0 0.66913059716165679 forward_v I I I I #
coedge $-1 $522 $523 $524 $525 reversed $222 $-1 #
coedge $-1 $356 $224 $526 $527 reversed $141 $-1 #
coedge $-1 $224 $355 $522 $528 reversed $141 $-1 #
coedge $-1 $524 $529 $224 $358 forward $519 $-1 #
edge $-1 $530 28.107399490014281 $531 39.731319129650366 $357 $532 forward 7 unknown #
loop $-1 $-1 $364 $225 #
plane-surface $-1 -59.716177861873234 12.049290006398074 0.45320524655312511 -0.74314483375859142 0 0.66913059716165679 0.66913059716165679 0 0.74314483375859142 forward_v I I I I #
loop $-1 $-1 $533 $143 #
coedge $-1 $362 $362 $363 $534 reversed $226 $-1 #
coedge $-1 $363 $363 $362 $534 forward $228 $-1 #
coedge $-1 $364 $364 $229 $365 forward $359 $-1 #
edge $-1 $535 0 $535 6.2831853071796004 $364 $536 forward 7 unknown #
loop $-1 $-1 $371 $230 #
plane-surface $-1 -59.716177861873234 12.049290006398074 0.45320524655312511 -0.74314483375859142 0 0.66913059716165679 0.66913059716165679 0 0.74314483375859142 forward_v I I I I #
loop $-1 $-1 $537 $146 #
coedge $-1 $369 $369 $370 $538 reversed $231 $-1 #
coedge $-1 $370 $370 $369 $538 forward $233 $-1 #
coedge $-1 $371 $371 $234 $372 forward $366 $-1 #
edge $-1 $539 0 $539 6.2831853071796004 $371 $540 forward 7 unknown #
loop $-1 $-1 $378 $235 #
plane-surface $-1 -59.716177861873234 12.049290006398074 0.45320524655312511 -0.74314483375859142 0 0.66913059716165679 0.66913059716165679 0 0.74314483375859142 forward_v I I I I #
loop $-1 $-1 $541 $149 #
coedge $-1 $376 $376 $377 $542 reversed $236 $-1 #
coedge $-1 $377 $377 $376 $542 forward $238 $-1 #
coedge $-1 $378 $378 $239 $379 forward $373 $-1 #
edge $-1 $543 0 $543 6.2831853071796004 $378 $544 forward 7 unknown #
face $-1 $545 $546 $57 $-1 $547 reversed single #
loop $-1 $-1 $548 $240 #
plane-surface $-1 -59.716177861873227 0 0 1 0 0 0 0 -1 forward_v I I I I #
coedge $-1 $549 $391 $550 $551 forward $241 $-1 #
coedge $-1 $552 $243 $549 $553 forward $153 $-1 #
coedge $-1 $243 $552 $554 $555 forward $153 $-1 #
coedge $-1 $394 $393 $243 $387 reversed $395 $-1 #
edge $-1 $556 -27.922466124237936 $557 27.922466124237936 $386 $558 forward 7 unknown #
coedge $-1 $245 $244 $559 $560 forward $96 $-1 #
coedge $-1 $561 $562 $244 $390 reversed $546 $-1 #
edge $-1 $397 -59.716177861873227 $563 59.716177861873227 $389 $564 forward 7 unknown #
coedge $-1 $383 $565 $245 $392 reversed $241 $-1 #
edge $-1 $566 -59.716177861873227 $396 59.716177861873227 $391 $567 forward 7 unknown #
coedge $-1 $386 $246 $565 $568 forward $395 $-1 #
coedge $-1 $246 $386 $561 $569 reversed $395 $-1 #
loop $-1 $-1 $393 $545 #
vertex $-1 $247 $570 #
vertex $-1 $247 $571 #
straight-curve $-1 59.716177861873227 0 12.077124886189218 0 1 0 I I #
face $-1 $572 $573 $58 $-1 $574 reversed single #
loop $-1 $-1 $575 $248 #
plane-surface $-1 -59.716177861873227 0 0 1 0 0 0 0 -1 forward_v I I I I #
coedge $-1 $576 $408 $413 $577 reversed $249 $-1 #
coedge $-1 $578 $251 $579 $580 reversed $157 $-1 #
coedge $-1 $251 $578 $576 $581 forward $157 $-1 #
coedge $-1 $413 $412 $251 $406 forward $414 $-1 #
edge $-1 $582 -16.44090449581946 $583 -6.5222187610174913 $405 $584 forward 7 unknown #
coedge $-1 $253 $252 $575 $585 reversed $99 $-1 #
coedge $-1 $402 $586 $252 $409 reversed $249 $-1 #
edge $-1 $415 -59.716177861873227 $587 59.716177861873227 $408 $588 forward 7 unknown #
coedge $-1 $589 $590 $253 $411 forward $573 $-1 #
edge $-1 $416 -59.716177861873227 $591 59.716177861873227 $410 $592 forward 7 unknown #
coedge $-1 $405 $254 $590 $593 forward $414 $-1 #
coedge $-1 $254 $405 $402 $577 forward $414 $-1 #
loop $-1 $-1 $254 $572 #
vertex $-1 $255 $594 #
vertex $-1 $593 $595 #
straight-curve $-1 59.716177861873227 -11.481561628418476 5.4565955543106703 0 -1 0 I I #
face $-1 $596 $597 $59 $-1 $598 reversed single #
loop $-1 $-1 $262 $256 #
plane-surface $-1 59.716177861873227 0 0 -1 0 0 0 0 1 forward_v I I I I #
coedge $-1 $599 $429 $600 $601 reversed $257 $-1 #
coedge $-1 $602 $259 $599 $603 forward $161 $-1 #
coedge $-1 $259 $602 $604 $605 reversed $161 $-1 #
coedge $-1 $432 $431 $259 $425 forward $419 $-1 #
edge $-1 $606 6.5222187610174913 $607 16.44090449581946 $424 $608 forward 7 unknown #
coedge $-1 $261 $260 $609 $610 reversed $102 $-1 #
coedge $-1 $611 $612 $260 $428 forward $613 $-1 #
edge $-1 $614 -59.716177861873227 $433 59.716177861873227 $427 $615 forward 7 unknown #
coedge $-1 $421 $616 $261 $430 reversed $257 $-1 #
edge $-1 $617 -59.716177861873227 $434 59.716177861873227 $429 $618 forward 7 unknown #
coedge $-1 $424 $262 $616 $619 forward $419 $-1 #
coedge $-1 $262 $424 $611 $620 reversed $419 $-1 #
vertex $-1 $620 $621 #
vertex $-1 $263 $622 #
straight-curve $-1 59.716177861873227 11.481561628418476 5.4565955543106703 0 -1 0 I I #
face $-1 $-1 $448 $60 $-1 $623 reversed single #
loop $-1 $-1 $624 $264 #
plane-surface $-1 0 0 12.077124886189218 0 0 1 1 0 0 forward_v I I I I #
coedge $-1 $625 $626 $627 $628 reversed $265 $-1 #
coedge $-1 $629 $267 $269 $446 forward $165 $-1 #
coedge $-1 $267 $629 $625 $630 forward $165 $-1 #
coedge $-1 $627 $270 $267 $443 forward $448 $-1 #
edge $-1 $450 -6.8407455434069551 $631 0.88625516036906227 $442 $632 forward 7 unknown #
coedge $-1 $633 $634 $268 $445 forward $437 $-1 #
edge $-1 $635 14.972017620370011 $449 25.43824161400331 $444 $636 forward 7 unknown #
edge $-1 $450 -119.43235572374647 $635 -103.79082918463837 $269 $637 forward 7 unknown #
coedge $-1 $270 $627 $633 $638 reversed $448 $-1 #
loop $-1 $-1 $627 $436 #
vertex $-1 $638 $639 #
vertex $-1 $271 $640 #
straight-curve $-1 59.716177861873227 -9.8179907349259015 84.562293446063762 0 0 -1 I I #
coedge $-1 $452 $452 $-1 $641 reversed $274 $-1 #
edge $-1 $642 0 $642 6.2831853071796004 $275 $643 forward 7 unknown #
vertex $-1 $278 $644 #
ellipse-curve $-1 54.483065865056581 -8.2725905941707012 6.2651650663711704 0.74314483375859142 0 0.66913059716165679 0.1672826492904142 0 -0.18578620843964785 1 I I #
coedge $-1 $456 $456 $-1 $645 reversed $281 $-1 #
edge $-1 $646 0 $646 6.2831853071796004 $282 $647 forward 7 unknown #
vertex $-1 $285 $648 #
ellipse-curve $-1 54.483065865056581 -5.9544903830378964 6.2651650663711704 0.74314483375859142 0 0.66913059716165679 0.1672826492904142 0 -0.18578620843964785 1 I I #
coedge $-1 $460 $460 $-1 $649 reversed $288 $-1 #
edge $-1 $650 0 $650 6.2831853071796004 $289 $651 forward 7 unknown #
vertex $-1 $292 $652 #
ellipse-curve $-1 54.483065865056581 -3.6363901719050915 6.2651650663711704 0.74314483375859142 0 0.66913059716165679 0.1672826492904142 0 -0.18578620843964785 1 I I #
face $-1 $-1 $653 $64 $-1 $654 forward single #
loop $-1 $-1 $299 $293 #
plane-surface $-1 59.716177861873227 0 0 -1 0 0 0 0 1 forward_v I I I I #
coedge $-1 $655 $656 $657 $658 reversed $294 $-1 #
coedge $-1 $659 $296 $298 $474 forward $184 $-1 #
coedge $-1 $296 $659 $655 $660 forward $184 $-1 #
coedge $-1 $657 $299 $296 $471 forward $465 $-1 #
edge $-1 $477 2.1611446513110284 $661 9.8881453550870457 $470 $662 forward 7 unknown #
coedge $-1 $663 $664 $297 $473 forward $653 $-1 #
edge $-1 $665 14.972017620370011 $476 25.43824161400331 $472 $666 forward 7 unknown #
edge $-1 $477 -119.43235572374647 $665 -103.79082918463837 $298 $667 forward 7 unknown #
coedge $-1 $299 $657 $663 $668 reversed $465 $-1 #
vertex $-1 $668 $669 #
vertex $-1 $300 $670 #
straight-curve $-1 59.716177861873227 8.1857896545100655 84.562293446063762 0 0 -1 I I #
coedge $-1 $479 $479 $-1 $671 reversed $303 $-1 #
edge $-1 $672 0 $672 6.2831853071796004 $304 $673 forward 7 unknown #
vertex $-1 $307 $674 #
ellipse-curve $-1 54.483065865056581 9.7311897952652657 6.2651650663711704 0.74314483375859142 0 0.66913059716165679 0.1672826492904142 0 -0.18578620843964785 1 I I #
coedge $-1 $483 $483 $-1 $675 reversed $310 $-1 #
edge $-1 $676 0 $676 6.2831853071796004 $311 $677 forward 7 unknown #
vertex $-1 $314 $678 #
ellipse-curve $-1 54.483065865056581 12.049290006398074 6.2651650663711704 0.74314483375859142 0 0.66913059716165679 0.1672826492904142 0 -0.18578620843964785 1 I I #
coedge $-1 $487 $487 $-1 $679 reversed $317 $-1 #
edge $-1 $680 0 $680 6.2831853071796004 $318 $681 forward 7 unknown #
vertex $-1 $321 $682 #
ellipse-curve $-1 54.483065865056581 14.367390217530875 6.2651650663711704 0.74314483375859142 0 0.66913059716165679 0.1672826492904142 0 -0.18578620843964785 1 I I #
face $-1 $-1 $683 $68 $-1 $684 forward single #
loop $-1 $-1 $328 $322 #
plane-surface $-1 -59.716177861873227 0 0 1 0 0 0 0 -1 forward_v I I I I #
coedge $-1 $685 $686 $687 $688 reversed $323 $-1 #
coedge $-1 $689 $325 $327 $501 forward $203 $-1 #
coedge $-1 $325 $689 $685 $690 forward $203 $-1 #
coedge $-1 $687 $328 $325 $498 forward $492 $-1 #
edge $-1 $504 -0.88625516036906227 $691 6.8407455434069551 $497 $692 forward 7 unknown #
coedge $-1 $693 $694 $326 $500 forward $683 $-1 #
edge $-1 $695 -24.985904132556946 $503 -14.51968013892364 $499 $696 forward 7 unknown #
edge $-1 $504 1.0612360036877491e-014 $695 15.64152653910811 $327 $697 forward 7 unknown #
coedge $-1 $328 $687 $693 $698 reversed $492 $-1 #
vertex $-1 $698 $699 #
vertex $-1 $329 $700 #
straight-curve $-1 -59.716177861873227 -2.0909900311498841 40.184524376203498 0 0 -1 I I #
coedge $-1 $506 $506 $-1 $701 reversed $332 $-1 #
edge $-1 $702 0 $702 6.2831853071796004 $333 $703 forward 7 unknown #
vertex $-1 $336 $704 #
ellipse-curve $-1 -54.483065865056574 -8.2725905941707012 6.2651650663711749 -0.74314483375859142 0 0.66913059716165679 0.1672826492904142 0 0.18578620843964785 1 I I #
coedge $-1 $510 $510 $-1 $705 reversed $339 $-1 #
edge $-1 $706 0 $706 6.2831853071796004 $340 $707 forward 7 unknown #
vertex $-1 $343 $708 #
ellipse-curve $-1 -54.483065865056574 -5.9544903830378964 6.2651650663711749 -0.74314483375859142 0 0.66913059716165679 0.1672826492904142 0 0.18578620843964785 1 I I #
coedge $-1 $514 $514 $-1 $709 reversed $346 $-1 #
edge $-1 $710 0 $710 6.2831853071796004 $347 $711 forward 7 unknown #
vertex $-1 $350 $712 #
ellipse-curve $-1 -54.483065865056574 -3.6363901719050915 6.2651650663711749 -0.74314483375859142 0 0.66913059716165679 0.1672826492904142 0 0.18578620843964785 1 I I #
face $-1 $-1 $713 $72 $-1 $714 forward single #
loop $-1 $-1 $357 $351 #
plane-surface $-1 -59.716177861873227 0 0 1 0 0 0 0 -1 forward_v I I I I #
coedge $-1 $715 $716 $717 $718 reversed $352 $-1 #
coedge $-1 $719 $354 $356 $528 forward $222 $-1 #
coedge $-1 $354 $719 $715 $720 forward $222 $-1 #
coedge $-1 $717 $357 $354 $525 forward $519 $-1 #
edge $-1 $531 -9.8881453550870457 $721 -2.1611446513110284 $524 $722 forward 7 unknown #
coedge $-1 $723 $724 $355 $527 forward $713 $-1 #
edge $-1 $725 -24.985904132556946 $530 -14.51968013892364 $526 $726 forward 7 unknown #
edge $-1 $531 1.0612360036877491e-014 $725 15.64152653910811 $356 $727 forward 7 unknown #
coedge $-1 $357 $717 $723 $728 reversed $519 $-1 #
vertex $-1 $728 $729 #
vertex $-1 $358 $730 #
straight-curve $-1 -59.716177861873227 15.912790358286083 40.184524376203498 0 0 -1 I I #
coedge $-1 $533 $533 $-1 $731 reversed $361 $-1 #
edge $-1 $732 0 $732 6.2831853071796004 $362 $733 forward 7 unknown #
vertex $-1 $365 $734 #
ellipse-curve $-1 -54.483065865056574 9.7311897952652657 6.2651650663711749 -0.74314483375859142 0 0.66913059716165679 0.1672826492904142 0 0.18578620843964785 1 I I #
coedge $-1 $537 $537 $-1 $735 reversed $368 $-1 #
edge $-1 $736 0 $736 6.2831853071796004 $369 $737 forward 7 unknown #
vertex $-1 $372 $738 #
ellipse-curve $-1 -54.483065865056574 12.049290006398074 6.2651650663711749 -0.74314483375859142 0 0.66913059716165679 0.1672826492904142 0 0.18578620843964785 1 I I #
coedge $-1 $541 $541 $-1 $739 reversed $375 $-1 #
edge $-1 $740 0 $740 6.2831853071796004 $376 $741 forward 7 unknown #
vertex $-1 $379 $742 #
ellipse-curve $-1 -54.483065865056574 14.367390217530875 6.2651650663711749 -0.74314483375859142 0 0.66913059716165679 0.1672826492904142 0 0.18578620843964785 1 I I #
face $-1 $-1 $395 $57 $-1 $743 reversed single #
loop $-1 $-1 $561 $380 #
plane-surface $-1 0 27.922466124237936 0 0 -1 0 0 0 -1 forward_v I I I I #
coedge $-1 $744 $559 $562 $745 forward $381 $-1 #
coedge $-1 $565 $383 $384 $553 reversed $241 $-1 #
coedge $-1 $559 $744 $383 $551 reversed $381 $-1 #
edge $-1 $566 -12.077124886189218 $746 12.077124886189218 $550 $747 forward 7 unknown #
coedge $-1 $385 $384 $744 $748 forward $153 $-1 #
edge $-1 $557 -59.716177861873227 $746 59.716177861873227 $549 $749 forward 7 unknown #
coedge $-1 $562 $561 $385 $555 reversed $546 $-1 #
edge $-1 $750 -59.716177861873227 $556 59.716177861873227 $554 $751 forward 7 unknown #
vertex $-1 $387 $752 #
vertex $-1 $568 $753 #
straight-curve $-1 59.716177861873227 0 -12.077124886189218 0 -1 0 I I #
coedge $-1 $548 $550 $388 $560 reversed $381 $-1 #
edge $-1 $563 -27.922466124237936 $566 27.922466124237936 $559 $754 forward 7 unknown #
coedge $-1 $554 $389 $394 $569 forward $546 $-1 #
coedge $-1 $389 $554 $548 $745 reversed $546 $-1 #
vertex $-1 $390 $755 #
straight-curve $-1 0 27.922466124237936 12.077124886189218 -1 0 0 I I #
coedge $-1 $391 $549 $393 $568 reversed $241 $-1 #
vertex $-1 $560 $756 #
straight-curve $-1 0 -27.922466124237936 12.077124886189218 1 0 0 I I #
edge $-1 $396 -12.077124886189218 $557 12.077124886189218 $393 $757 forward 7 unknown #
edge $-1 $397 -12.077124886189218 $556 12.077124886189218 $394 $758 forward 7 unknown #
point $-1 59.716177861873227 -27.922466124237936 12.077124886189218 #
point $-1 59.716177861873227 27.922466124237936 12.077124886189218 #
face $-1 $-1 $414 $58 $-1 $759 reversed single #
loop $-1 $-1 $410 $399 #
plane-surface $-1 0 -27.922466124237936 0 0 1 0 0 0 1 forward_v I I I I #
coedge $-1 $760 $761 $407 $585 forward $400 $-1 #
coedge $-1 $586 $402 $404 $581 reversed $249 $-1 #
edge $-1 $583 -0.85530992875868872 $415 3.9228336791266765 $413 $762 forward 7 unknown #
coedge $-1 $404 $403 $763 $764 reversed $157 $-1 #
coedge $-1 $590 $589 $403 $580 forward $573 $-1 #
edge $-1 $765 -59.716177861873227 $582 59.716177861873227 $579 $766 forward 7 unknown #
edge $-1 $767 -59.716177861873227 $583 59.716177861873227 $576 $768 forward 7 unknown #
vertex $-1 $580 $769 #
vertex $-1 $406 $770 #
straight-curve $-1 59.716177861873227 -11.481561628418476 0.67845194642530515 0 1 0 I I #
edge $-1 $591 -16.44090449581946 $587 -6.5222187610174913 $575 $771 forward 7 unknown #
coedge $-1 $408 $576 $760 $772 reversed $249 $-1 #
vertex $-1 $585 $773 #
straight-curve $-1 0 -18.003780389435967 5.4565955543106703 -1 0 0 I I #
coedge $-1 $579 $410 $761 $774 forward $573 $-1 #
coedge $-1 $410 $579 $412 $593 reversed $573 $-1 #
vertex $-1 $774 $775 #
straight-curve $-1 0 -27.922466124237936 5.4565955543106703 -1 0 0 I I #
edge $-1 $416 -5.4565955543106703 $582 -0.67845194642530515 $412 $776 forward 7 unknown #
point $-1 59.716177861873227 -18.003780389435967 5.4565955543106703 #
point $-1 59.716177861873227 -27.922466124237936 5.4565955543106703 #
face $-1 $-1 $613 $59 $-1 $777 reversed single #
loop $-1 $-1 $609 $418 #
plane-surface $-1 -59.716177861873227 0 0 1 0 0 0 0 -1 forward_v I I I I #
coedge $-1 $616 $421 $422 $603 reversed $257 $-1 #
coedge $-1 $609 $778 $421 $601 forward $597 $-1 #
edge $-1 $779 -0.85530992875868872 $617 3.9228336791266765 $600 $780 forward 7 unknown #
coedge $-1 $423 $422 $778 $781 reversed $161 $-1 #
edge $-1 $606 -59.716177861873227 $779 59.716177861873227 $599 $782 forward 7 unknown #
coedge $-1 $612 $611 $423 $605 forward $613 $-1 #
edge $-1 $607 -59.716177861873227 $783 59.716177861873227 $604 $784 forward 7 unknown #
vertex $-1 $425 $785 #
vertex $-1 $605 $786 #
straight-curve $-1 59.716177861873227 11.481561628418476 0.67845194642530515 0 1 0 I I #
coedge $-1 $787 $600 $426 $610 forward $597 $-1 #
edge $-1 $617 6.5222187610174913 $614 16.44090449581946 $609 $788 forward 7 unknown #
coedge $-1 $604 $427 $432 $620 forward $613 $-1 #
coedge $-1 $427 $604 $787 $789 reversed $613 $-1 #
loop $-1 $-1 $427 $596 #
vertex $-1 $789 $790 #
straight-curve $-1 0 27.922466124237936 5.4565955543106703 1 0 0 I I #
coedge $-1 $429 $599 $431 $619 reversed $257 $-1 #
vertex $-1 $610 $791 #
straight-curve $-1 0 18.003780389435967 5.4565955543106703 1 0 0 I I #
edge $-1 $434 -3.9228336791266765 $606 0.85530992875868872 $431 $792 forward 7 unknown #
edge $-1 $433 -5.4565955543106703 $607 -0.67845194642530515 $432 $793 forward 7 unknown #
point $-1 59.716177861873227 27.922466124237936 5.4565955543106703 #
point $-1 59.716177861873227 18.003780389435967 5.4565955543106703 #
plane-surface $-1 59.716177861873227 0 0 -1 0 0 0 0 1 forward_v I I I I #
coedge $-1 $634 $633 $626 $794 forward $437 $-1 #
coedge $-1 $626 $439 $441 $630 reversed $265 $-1 #
coedge $-1 $439 $625 $624 $794 reversed $265 $-1 #
coedge $-1 $447 $442 $439 $628 forward $448 $-1 #
edge $-1 $631 -84.109088199510637 $795 -72.485168559874552 $627 $796 forward 7 unknown #
coedge $-1 $441 $440 $634 $797 reversed $165 $-1 #
edge $-1 $798 103.79082918463837 $631 119.43235572374647 $625 $799 forward 7 unknown #
vertex $-1 $443 $800 #
straight-curve $-1 59.71617786187322 -2.9772451915189464 0.45320524655312511 0 1 0 I I #
coedge $-1 $624 $444 $447 $638 forward $437 $-1 #
coedge $-1 $444 $624 $629 $797 forward $437 $-1 #
vertex $-1 $445 $801 #
straight-curve $-1 34.277936247869917 -9.8179907349259015 12.07712488618921 1 0 0 I I #
straight-curve $-1 -20.199665643980666 -9.8179907349259015 89.208743386273653 -0.66913059716165679 0 0.74314483375859142 I I #
edge $-1 $449 -9.8179907349259015 $795 -2.0909900311498841 $447 $802 forward 7 unknown #
point $-1 59.716177861873227 -9.8179907349259015 12.077124886189218 #
point $-1 59.716177861873234 -9.8179907349259015 0.45320524655312511 #
edge $-1 $803 1 $803 0 $452 $-1 forward 7 unknown #
vertex $-1 $453 $804 #
ellipse-curve $-1 53.739921031297975 -8.2725905941707012 5.5960344692094992 0.74314483375859142 0 0.66913059716165679 0.1672826492904142 0 -0.18578620843964785 1 I I #
point $-1 54.65034851434698 -8.2725905941707012 6.0793788579315082 #
edge $-1 $805 1 $805 0 $456 $-1 forward 7 unknown #
vertex $-1 $457 $806 #
ellipse-curve $-1 53.739921031297975 -5.9544903830378964 5.5960344692094992 0.74314483375859142 0 0.66913059716165679 0.1672826492904142 0 -0.18578620843964785 1 I I #
point $-1 54.65034851434698 -5.9544903830378964 6.0793788579315082 #
edge $-1 $807 1 $807 0 $460 $-1 forward 7 unknown #
vertex $-1 $461 $808 #
ellipse-curve $-1 53.739921031297975 -3.6363901719050915 5.5960344692094992 0.74314483375859142 0 0.66913059716165679 0.1672826492904142 0 -0.18578620843964785 1 I I #
point $-1 54.65034851434698 -3.6363901719050915 6.0793788579315082 #
loop $-1 $-1 $472 $464 #
plane-surface $-1 0 0 12.077124886189218 0 0 1 1 0 0 forward_v I I I I #
coedge $-1 $656 $467 $469 $660 reversed $294 $-1 #
coedge $-1 $467 $655 $809 $810 reversed $294 $-1 #
coedge $-1 $475 $470 $467 $658 forward $465 $-1 #
edge $-1 $661 -84.109088199510637 $811 -72.485168559874552 $657 $812 forward 7 unknown #
coedge $-1 $469 $468 $664 $813 reversed $184 $-1 #
edge $-1 $814 103.79082918463837 $661 119.43235572374647 $655 $815 forward 7 unknown #
vertex $-1 $471 $816 #
straight-curve $-1 59.71617786187322 6.0246450031990371 0.45320524655312511 0 1 0 I I #
coedge $-1 $809 $472 $475 $668 forward $653 $-1 #
coedge $-1 $472 $809 $659 $813 forward $653 $-1 #
vertex $-1 $473 $817 #
straight-curve $-1 34.277936247869917 8.1857896545100655 12.07712488618921 1 0 0 I I #
straight-curve $-1 -20.199665643980666 8.1857896545100655 89.208743386273653 -0.66913059716165679 0 0.74314483375859142 I I #
edge $-1 $476 8.1857896545100655 $811 15.912790358286083 $475 $818 forward 7 unknown #
point $-1 59.716177861873227 8.1857896545100655 12.077124886189218 #
point $-1 59.716177861873234 8.1857896545100655 0.45320524655312511 #
edge $-1 $819 1 $819 0 $479 $-1 forward 7 unknown #
vertex $-1 $480 $820 #
ellipse-curve $-1 53.739921031297975 9.7311897952652657 5.5960344692094992 0.74314483375859142 0 0.66913059716165679 0.1672826492904142 0 -0.18578620843964785 1 I I #
point $-1 54.65034851434698 9.7311897952652657 6.0793788579315082 #
edge $-1 $821 1 $821 0 $483 $-1 forward 7 unknown #
vertex $-1 $484 $822 #
ellipse-curve $-1 53.739921031297975 12.049290006398074 5.5960344692094992 0.74314483375859142 0 0.66913059716165679 0.1672826492904142 0 -0.18578620843964785 1 I I #
point $-1 54.65034851434698 12.049290006398074 6.0793788579315082 #
edge $-1 $823 1 $823 0 $487 $-1 forward 7 unknown #
vertex $-1 $488 $824 #
ellipse-curve $-1 53.739921031297975 14.367390217530875 5.5960344692094992 0.74314483375859142 0 0.66913059716165679 0.1672826492904142 0 -0.18578620843964785 1 I I #
point $-1 54.65034851434698 14.367390217530875 6.0793788579315082 #
loop $-1 $-1 $499 $491 #
plane-surface $-1 0 0 12.077124886189218 0 0 1 1 0 0 forward_v I I I I #
coedge $-1 $686 $494 $496 $690 reversed $323 $-1 #
coedge $-1 $494 $685 $825 $826 reversed $323 $-1 #
coedge $-1 $502 $497 $494 $688 forward $492 $-1 #
edge $-1 $691 -39.731319129650366 $827 -28.107399490014281 $687 $828 forward 7 unknown #
coedge $-1 $496 $495 $694 $829 reversed $203 $-1 #
edge $-1 $830 -15.64152653910811 $691 -1.0612360036877491e-014 $685 $831 forward 7 unknown #
vertex $-1 $498 $832 #
straight-curve $-1 -59.716177861873227 -2.9772451915189464 0.45320524655314021 0 -1 0 I I #
coedge $-1 $825 $499 $502 $698 forward $683 $-1 #
coedge $-1 $499 $825 $689 $829 forward $683 $-1 #
vertex $-1 $500 $833 #
straight-curve $-1 -74.235858000796867 -2.0909900311498841 12.077124886189218 -1 0 0 I I #
straight-curve $-1 -59.716177861873234 -2.0909900311498841 0.45320524655312511 0.66913059716165679 0 0.74314483375859142 I I #
edge $-1 $503 2.0909900311498841 $827 9.8179907349259015 $502 $834 forward 7 unknown #
point $-1 -59.716177861873227 -2.0909900311498841 12.077124886189218 #
point $-1 -59.716177861873227 -2.0909900311498841 0.45320524655313299 #
edge $-1 $835 1 $835 0 $506 $-1 forward 7 unknown #
vertex $-1 $507 $836 #
ellipse-curve $-1 -53.739921031297968 -8.2725905941707012 5.5960344692095028 -0.74314483375859142 0 0.66913059716165679 0.1672826492904142 0 0.18578620843964785 1 I I #
point $-1 -54.315783215766146 -8.2725905941707012 6.4509512748108078 #
edge $-1 $837 1 $837 0 $510 $-1 forward 7 unknown #
vertex $-1 $511 $838 #
ellipse-curve $-1 -53.739921031297968 -5.9544903830378964 5.5960344692095028 -0.74314483375859142 0 0.66913059716165679 0.1672826492904142 0 0.18578620843964785 1 I I #
point $-1 -54.315783215766146 -5.9544903830378964 6.4509512748108078 #
edge $-1 $839 1 $839 0 $514 $-1 forward 7 unknown #
vertex $-1 $515 $840 #
ellipse-curve $-1 -53.739921031297968 -3.6363901719050915 5.5960344692095028 -0.74314483375859142 0 0.66913059716165679 0.1672826492904142 0 0.18578620843964785 1 I I #
point $-1 -54.315783215766146 -3.6363901719050915 6.4509512748108078 #
loop $-1 $-1 $526 $518 #
plane-surface $-1 0 0 12.077124886189218 0 0 1 1 0 0 forward_v I I I I #
coedge $-1 $716 $521 $523 $720 reversed $352 $-1 #
coedge $-1 $521 $715 $841 $842 reversed $352 $-1 #
coedge $-1 $529 $524 $521 $718 forward $519 $-1 #
edge $-1 $721 -39.731319129650366 $843 -28.107399490014281 $717 $844 forward 7 unknown #
coedge $-1 $523 $522 $724 $845 reversed $222 $-1 #
edge $-1 $846 -15.64152653910811 $721 -1.0612360036877491e-014 $715 $847 forward 7 unknown #
vertex $-1 $525 $848 #
straight-curve $-1 -59.716177861873227 6.0246450031990371 0.45320524655314021 0 -1 0 I I #
coedge $-1 $841 $526 $529 $728 forward $713 $-1 #
coedge $-1 $526 $841 $719 $845 forward $713 $-1 #
vertex $-1 $527 $849 #
straight-curve $-1 -74.235858000796867 15.912790358286083 12.077124886189218 -1 0 0 I I #
straight-curve $-1 -59.716177861873234 15.912790358286083 0.45320524655312511 0.66913059716165679 0 0.74314483375859142 I I #
edge $-1 $530 -15.912790358286083 $843 -8.1857896545100655 $529 $850 forward 7 unknown #
point $-1 -59.716177861873227 15.912790358286083 12.077124886189218 #
point $-1 -59.716177861873227 15.912790358286083 0.45320524655313299 #
edge $-1 $851 1 $851 0 $533 $-1 forward 7 unknown #
vertex $-1 $534 $852 #
ellipse-curve $-1 -53.739921031297968 9.7311897952652657 5.5960344692095028 -0.74314483375859142 0 0.66913059716165679 0.1672826492904142 0 0.18578620843964785 1 I I #
point $-1 -54.315783215766146 9.7311897952652657 6.4509512748108078 #
edge $-1 $853 1 $853 0 $537 $-1 forward 7 unknown #
vertex $-1 $538 $854 #
ellipse-curve $-1 -53.739921031297968 12.049290006398074 5.5960344692095028 -0.74314483375859142 0 0.66913059716165679 0.1672826492904142 0 0.18578620843964785 1 I I #
point $-1 -54.315783215766146 12.049290006398074 6.4509512748108078 #
edge $-1 $855 1 $855 0 $541 $-1 forward 7 unknown #
vertex $-1 $542 $856 #
ellipse-curve $-1 -53.739921031297968 14.367390217530875 5.5960344692095028 -0.74314483375859142 0 0.66913059716165679 0.1672826492904142 0 0.18578620843964785 1 I I #
point $-1 -54.315783215766146 14.367390217530875 6.4509512748108078 #
plane-surface $-1 59.716177861873227 0 0 -1 0 0 0 0 1 forward_v I I I I #
coedge $-1 $550 $548 $552 $748 reversed $381 $-1 #
edge $-1 $563 -12.077124886189218 $750 12.077124886189218 $562 $857 forward 7 unknown #
vertex $-1 $748 $858 #
straight-curve $-1 -59.716177861873227 -27.922466124237936 0 0 0 -1 I I #
edge $-1 $746 -27.922466124237936 $750 27.922466124237936 $744 $859 forward 7 unknown #
straight-curve $-1 0 -27.922466124237936 -12.077124886189218 -1 0 0 I I #
vertex $-1 $555 $860 #
straight-curve $-1 0 27.922466124237936 -12.077124886189218 1 0 0 I I #
point $-1 59.716177861873227 27.922466124237936 -12.077124886189218 #
point $-1 59.716177861873227 -27.922466124237936 -12.077124886189218 #
straight-curve $-1 -59.716177861873227 0 12.077124886189218 0 -1 0 I I #
point $-1 -59.716177861873227 27.922466124237936 12.077124886189218 #
point $-1 -59.716177861873227 -27.922466124237936 12.077124886189218 #
straight-curve $-1 59.716177861873227 -27.922466124237936 0 0 0 -1 I I #
straight-curve $-1 59.716177861873227 27.922466124237936 0 0 0 -1 I I #
plane-surface $-1 59.716177861873227 0 0 -1 0 0 0 0 1 forward_v I I I I #
coedge $-1 $763 $575 $586 $772 forward $400 $-1 #
coedge $-1 $575 $763 $589 $774 reversed $400 $-1 #
straight-curve $-1 59.716177861873227 -18.003780389435967 1.5337618751839939 0 0 1 I I #
coedge $-1 $761 $760 $578 $764 forward $400 $-1 #
edge $-1 $767 6.5222187610174913 $765 16.44090449581946 $763 $861 forward 7 unknown #
vertex $-1 $580 $862 #
straight-curve $-1 0 -27.922466124237936 0.67845194642530515 1 0 0 I I #
vertex $-1 $764 $863 #
straight-curve $-1 0 -18.003780389435967 0.67845194642530515 1 0 0 I I #
point $-1 59.716177861873227 -27.922466124237936 0.67845194642530515 #
point $-1 59.716177861873227 -18.003780389435967 0.67845194642530515 #
straight-curve $-1 -59.716177861873227 -11.481561628418476 5.4565955543106703 0 1 0 I I #
edge $-1 $587 -3.9228336791266765 $767 0.85530992875868872 $760 $864 forward 7 unknown #
point $-1 -59.716177861873227 -18.003780389435967 5.4565955543106703 #
edge $-1 $591 -5.4565955543106703 $765 -0.67845194642530515 $761 $865 forward 7 unknown #
point $-1 -59.716177861873227 -27.922466124237936 5.4565955543106703 #
straight-curve $-1 59.716177861873227 -27.922466124237936 0 0 0 -1 I I #
plane-surface $-1 0 27.922466124237936 0 0 -1 0 0 0 -1 forward_v I I I I #
coedge $-1 $600 $787 $602 $781 forward $597 $-1 #
vertex $-1 $781 $866 #
straight-curve $-1 -59.716177861873227 18.003780389435967 1.5337618751839939 0 0 1 I I #
edge $-1 $783 -16.44090449581946 $779 -6.5222187610174913 $778 $867 forward 7 unknown #
straight-curve $-1 0 18.003780389435967 0.67845194642530515 -1 0 0 I I #
vertex $-1 $605 $868 #
straight-curve $-1 0 27.922466124237936 0.67845194642530515 -1 0 0 I I #
point $-1 59.716177861873227 18.003780389435967 0.67845194642530515 #
point $-1 59.716177861873227 27.922466124237936 0.67845194642530515 #
coedge $-1 $778 $609 $612 $789 forward $597 $-1 #
straight-curve $-1 -59.716177861873227 11.481561628418476 5.4565955543106703 0 1 0 I I #
edge $-1 $614 -5.4565955543106703 $783 -0.67845194642530515 $612 $869 forward 7 unknown #
point $-1 -59.716177861873227 27.922466124237936 5.4565955543106703 #
point $-1 -59.716177861873227 18.003780389435967 5.4565955543106703 #
straight-curve $-1 59.716177861873227 18.003780389435967 1.5337618751839939 0 0 -1 I I #
straight-curve $-1 59.716177861873227 27.922466124237936 0 0 0 -1 I I #
edge $-1 $795 -25.43824161400331 $798 -14.972017620370011 $624 $870 forward 7 unknown #
vertex $-1 $794 $871 #
straight-curve $-1 59.716177861873227 -2.0909900311498841 84.562293446063762 0 0 1 I I #
edge $-1 $798 -0.88625516036906227 $635 6.8407455434069551 $634 $872 forward 7 unknown #
vertex $-1 $797 $873 #
straight-curve $-1 -20.199665643980666 -2.0909900311498841 89.208743386273653 0.66913059716165679 0 -0.74314483375859142 I I #
point $-1 59.716177861873234 -2.0909900311498841 0.45320524655312511 #
point $-1 49.249953868239928 -9.8179907349259015 12.07712488618921 #
straight-curve $-1 59.716177861873227 0 12.077124886189218 0 1 0 I I #
vertex $-1 $641 $874 #
point $-1 53.907203680588388 -8.2725905941707012 5.4102482607698512 #
vertex $-1 $645 $875 #
point $-1 53.907203680588388 -5.9544903830378964 5.4102482607698512 #
vertex $-1 $649 $876 #
point $-1 53.907203680588388 -3.6363901719050915 5.4102482607698512 #
coedge $-1 $664 $663 $656 $810 forward $653 $-1 #
edge $-1 $811 -25.43824161400331 $814 -14.972017620370011 $809 $877 forward 7 unknown #
vertex $-1 $810 $878 #
straight-curve $-1 59.716177861873227 15.912790358286083 84.562293446063762 0 0 1 I I #
edge $-1 $814 -9.8881453550870457 $665 -2.1611446513110284 $664 $879 forward 7 unknown #
vertex $-1 $813 $880 #
straight-curve $-1 -20.199665643980666 15.912790358286083 89.208743386273653 0.66913059716165679 0 -0.74314483375859142 I I #
point $-1 59.716177861873234 15.912790358286083 0.45320524655312511 #
point $-1 49.249953868239928 8.1857896545100655 12.07712488618921 #
straight-curve $-1 59.716177861873227 0 12.077124886189218 0 1 0 I I #
vertex $-1 $671 $881 #
point $-1 53.907203680588388 9.7311897952652657 5.4102482607698512 #
vertex $-1 $675 $882 #
point $-1 53.907203680588388 12.049290006398074 5.4102482607698512 #
vertex $-1 $679 $883 #
point $-1 53.907203680588388 14.367390217530875 5.4102482607698512 #
coedge $-1 $694 $693 $686 $826 forward $683 $-1 #
edge $-1 $827 14.51968013892364 $830 24.985904132556946 $825 $884 forward 7 unknown #
vertex $-1 $826 $885 #
straight-curve $-1 -59.716177861873227 -9.8179907349259015 40.184524376203498 0 0 1 I I #
edge $-1 $830 -6.8407455434069551 $695 0.88625516036906227 $694 $886 forward 7 unknown #
vertex $-1 $829 $887 #
straight-curve $-1 -59.716177861873234 -9.8179907349259015 0.45320524655312511 -0.66913059716165679 0 -0.74314483375859142 I I #
point $-1 -59.716177861873227 -9.8179907349259015 0.45320524655313299 #
point $-1 -49.24995386823992 -2.0909900311498841 12.077124886189218 #
straight-curve $-1 -59.716177861873227 0 12.077124886189218 0 -1 0 I I #
vertex $-1 $701 $888 #
point $-1 -53.572638382007554 -8.2725905941707012 5.7818206776491508 #
vertex $-1 $705 $889 #
point $-1 -53.572638382007554 -5.9544903830378964 5.7818206776491508 #
vertex $-1 $709 $890 #
point $-1 -53.572638382007554 -3.6363901719050915 5.7818206776491508 #
coedge $-1 $724 $723 $716 $842 forward $713 $-1 #
edge $-1 $843 14.51968013892364 $846 24.985904132556946 $841 $891 forward 7 unknown #
vertex $-1 $842 $892 #
straight-curve $-1 -59.716177861873227 8.1857896545100655 40.184524376203498 0 0 1 I I #
edge $-1 $846 2.1611446513110284 $725 9.8881453550870457 $724 $893 forward 7 unknown #
vertex $-1 $845 $894 #
straight-curve $-1 -59.716177861873234 8.1857896545100655 0.45320524655312511 -0.66913059716165679 0 -0.74314483375859142 I I #
point $-1 -59.716177861873227 8.1857896545100655 0.45320524655313299 #
point $-1 -49.24995386823992 15.912790358286083 12.077124886189218 #
straight-curve $-1 -59.716177861873227 0 12.077124886189218 0 -1 0 I I #
vertex $-1 $731 $895 #
point $-1 -53.572638382007554 9.7311897952652657 5.7818206776491508 #
vertex $-1 $735 $896 #
point $-1 -53.572638382007554 12.049290006398074 5.7818206776491508 #
vertex $-1 $739 $897 #
point $-1 -53.572638382007554 14.367390217530875 5.7818206776491508 #
straight-curve $-1 -59.716177861873227 27.922466124237936 0 0 0 -1 I I #
point $-1 -59.716177861873227 -27.922466124237936 -12.077124886189218 #
straight-curve $-1 -59.716177861873227 0 -12.077124886189218 0 1 0 I I #
point $-1 -59.716177861873227 27.922466124237936 -12.077124886189218 #
straight-curve $-1 -59.716177861873227 -11.481561628418476 0.67845194642530515 0 -1 0 I I #
point $-1 -59.716177861873227 -27.922466124237936 0.67845194642530515 #
point $-1 -59.716177861873227 -18.003780389435967 0.67845194642530515 #
straight-curve $-1 -59.716177861873227 -18.003780389435967 1.5337618751839939 0 0 -1 I I #
straight-curve $-1 -59.716177861873227 -27.922466124237936 0 0 0 -1 I I #
point $-1 -59.716177861873227 18.003780389435967 0.67845194642530515 #
straight-curve $-1 -59.716177861873227 11.481561628418476 0.67845194642530515 0 -1 0 I I #
point $-1 -59.716177861873227 27.922466124237936 0.67845194642530515 #
straight-curve $-1 -59.716177861873227 27.922466124237936 0 0 0 -1 I I #
straight-curve $-1 34.277936247869917 -2.0909900311498841 12.07712488618921 -1 0 0 I I #
point $-1 59.716177861873227 -2.0909900311498841 12.077124886189218 #
straight-curve $-1 49.249953868239913 -2.9772451915189464 12.077124886189225 0 -1 0 I I #
point $-1 49.249953868239928 -2.0909900311498841 12.07712488618921 #
point $-1 53.554134822858323 -8.2725905941707012 5.4287518199190856 #
point $-1 53.554134822858323 -5.9544903830378964 5.4287518199190856 #
point $-1 53.554134822858323 -3.6363901719050915 5.4287518199190856 #
straight-curve $-1 34.277936247869917 15.912790358286083 12.07712488618921 -1 0 0 I I #
point $-1 59.716177861873227 15.912790358286083 12.077124886189218 #
straight-curve $-1 49.249953868239913 6.0246450031990371 12.077124886189225 0 -1 0 I I #
point $-1 49.249953868239928 15.912790358286083 12.07712488618921 #
point $-1 53.554134822858323 9.7311897952652657 5.4287518199190856 #
point $-1 53.554134822858323 12.049290006398074 5.4287518199190856 #
point $-1 53.554134822858323 14.367390217530875 5.4287518199190856 #
straight-curve $-1 -74.235858000796867 -9.8179907349259015 12.077124886189218 1 0 0 I I #
point $-1 -59.716177861873227 -9.8179907349259015 12.077124886189218 #
straight-curve $-1 -49.24995386823992 -2.9772451915189464 12.077124886189218 0 1 0 I I #
point $-1 -49.24995386823992 -9.8179907349259015 12.077124886189218 #
point $-1 -53.554134822858316 -8.2725905941707012 5.4287518199190892 #
point $-1 -53.554134822858316 -5.9544903830378964 5.4287518199190892 #
point $-1 -53.554134822858316 -3.6363901719050915 5.4287518199190892 #
straight-curve $-1 -74.235858000796867 8.1857896545100655 12.077124886189218 1 0 0 I I #
point $-1 -59.716177861873227 8.1857896545100655 12.077124886189218 #
straight-curve $-1 -49.24995386823992 6.0246450031990371 12.077124886189218 0 1 0 I I #
point $-1 -49.24995386823992 8.1857896545100655 12.077124886189218 #
point $-1 -53.554134822858316 9.7311897952652657 5.4287518199190892 #
point $-1 -53.554134822858316 12.049290006398074 5.4287518199190892 #
point $-1 -53.554134822858316 14.367390217530875 5.4287518199190892 #
End-of-ACIS-data 