500 0 8 0           
7 Unknown 11 ACIS 5.0 NT 24 Thu Mar 25 15:21:25 1999 
-1 9.9999999999999995e-007 1e-010 
body $-1 $8 $-1 $9 #
body $-1 $10 $-1 $11 #
body $-1 $12 $-1 $13 #
body $-1 $14 $-1 $15 #
body $-1 $16 $-1 $17 #
body $-1 $18 $-1 $19 #
body $-1 $20 $-1 $21 #
body $-1 $22 $-1 $23 #
lump $-1 $-1 $24 $0 #
transform $-1 1 0 0 0 1 0 0 0 1 74.122135074922937 35.704940337003194 17.377486694491168 1 rotate no_reflect no_shear #
lump $-1 $-1 $25 $1 #
transform $-1 1 0 0 0 1 0 0 0 1 74.122135074922937 35.704940337003194 17.377486694491168 1 rotate no_reflect no_shear #
lump $-1 $-1 $26 $2 #
transform $-1 1 0 0 0 1 0 0 0 1 74.122135074922937 35.704940337003194 17.377486694491168 1 rotate no_reflect no_shear #
lump $-1 $-1 $27 $3 #
transform $-1 1 0 0 0 1 0 0 0 1 74.122135074922937 35.704940337003194 17.377486694491168 1 rotate no_reflect no_shear #
lump $-1 $-1 $28 $4 #
transform $-1 1 0 0 0 1 0 0 0 1 74.122135074922937 35.704940337003194 17.377486694491168 1 rotate no_reflect no_shear #
lump $-1 $-1 $29 $5 #
transform $-1 1 0 0 0 1 0 0 0 1 74.122135074922937 35.704940337003194 17.377486694491168 1 rotate no_reflect no_shear #
lump $-1 $-1 $30 $6 #
transform $-1 1 0 0 0 1 0 0 0 1 74.122135074922937 35.704940337003194 17.377486694491168 1 rotate no_reflect no_shear #
lump $-1 $-1 $31 $7 #
transform $-1 1 0 0 0 1 0 0 0 1 74.122135074922937 35.704940337003194 17.377486694491168 1 rotate no_reflect no_shear #
shell $-1 $-1 $-1 $32 $-1 $8 #
shell $-1 $-1 $-1 $33 $-1 $10 #
shell $-1 $-1 $-1 $34 $-1 $12 #
shell $-1 $-1 $-1 $35 $-1 $14 #
shell $-1 $-1 $-1 $36 $-1 $16 #
shell $-1 $-1 $-1 $37 $-1 $18 #
shell $-1 $-1 $-1 $38 $-1 $20 #
shell $-1 $-1 $-1 $39 $-1 $22 #
face $-1 $40 $41 $24 $-1 $42 forward single #
face $-1 $43 $44 $25 $-1 $45 reversed single #
face $-1 $46 $47 $26 $-1 $48 reversed single #
face $-1 $49 $50 $27 $-1 $51 forward single #
face $-1 $52 $53 $28 $-1 $54 forward single #
face $-1 $55 $56 $29 $-1 $57 forward single #
face $-1 $58 $59 $30 $-1 $60 reversed single #
face $-1 $61 $62 $31 $-1 $63 forward single #
face $-1 $64 $65 $24 $-1 $66 reversed single #
loop $-1 $-1 $67 $32 #
plane-surface $-1 0 0 17.377486694491168 0 0 1 1 0 0 forward_v I I I I #
face $-1 $68 $69 $25 $-1 $70 reversed single #
loop $-1 $-1 $71 $33 #
plane-surface $-1 -62.864931629553531 0 9.4047486204238595 0 0 1 1 0 0 forward_v I I I I #
face $-1 $72 $73 $26 $-1 $74 reversed single #
loop $-1 $-1 $75 $34 #
plane-surface $-1 50.779967581044041 -138.68406467895647 109.99115518599915 -1 0 0 0 -0.69465837861970381 0.71933979245794832 forward_v I I I I #
face $-1 $76 $77 $27 $-1 $78 forward single #
loop $-1 $79 $80 $35 #
cone-surface $-1 39.718410227506837 -27.642546922923767 9.5357749315237399 0 0.69465837861970381 -0.71933979245794832 1 0 0 1 I I 0 1 1 forward I I I I #
face $-1 $81 $82 $28 $-1 $83 forward single #
loop $-1 $84 $85 $36 #
cone-surface $-1 43.866494235083294 -27.642546922923767 9.5357749315237399 0 0.69465837861970381 -0.71933979245794832 1 0 0 1 I I 0 1 1 forward I I I I #
face $-1 $86 $87 $29 $-1 $88 forward single #
loop $-1 $89 $90 $37 #
cone-surface $-1 48.014578242659752 -27.642546922923767 9.5357749315237399 0 0.69465837861970381 -0.71933979245794832 1 0 0 1 I I 0 1 1 forward I I I I #
face $-1 $91 $92 $30 $-1 $93 reversed single #
loop $-1 $-1 $94 $38 #
plane-surface $-1 -35.712399193308734 -22.790609029919395 43.066921949830544 0 0.57357644374324357 0.81915203911291934 1 0 0 forward_v I I I I #
face $-1 $95 $96 $31 $-1 $97 forward single #
loop $-1 $98 $99 $39 #
cone-surface $-1 -35.712399193308734 22.274082385295959 6.1334177877875975 0 -0.57357644374324357 -0.81915203911291934 3 0 0 1 I I 0 1 3 forward I I I I #
face $-1 $100 $101 $24 $-1 $102 reversed single #
loop $-1 $-1 $103 $40 #
plane-surface $-1 0 0 -17.377486694491168 0 0 1 1 0 0 forward_v I I I I #
coedge $-1 $104 $105 $106 $107 forward $41 $-1 #
face $-1 $108 $109 $25 $-1 $110 reversed single #
loop $-1 $-1 $111 $43 #
plane-surface $-1 -51.607728184184126 0 13.391117657457514 -1 0 0 0 0 1 forward_v I I I I #
coedge $-1 $112 $113 $114 $115 forward $44 $-1 #
face $-1 $116 $117 $26 $-1 $118 reversed single #
loop $-1 $-1 $119 $46 #
plane-surface $-1 43.86649423508328 -35.70494033700318 3.3531526633289985 0 -0.69465837861970381 0.71933979245794832 1 0 0 forward_v I I I I #
coedge $-1 $120 $121 $122 $123 reversed $47 $-1 #
face $-1 $-1 $124 $27 $-1 $125 forward single #
loop $-1 $126 $127 $49 #
cone-surface $-1 39.718410227506837 -26.494135664675571 8.3465602879084173 0 0.69465837861970381 -0.71933979245794832 0.5 0 0 1 I I -0.70710678118654746 0.70710678118654746 0.5 forward I I I I #
loop $-1 $-1 $128 $35 #
coedge $-1 $80 $80 $129 $130 reversed $50 $-1 #
face $-1 $-1 $131 $28 $-1 $132 forward single #
loop $-1 $133 $134 $52 #
cone-surface $-1 43.866494235083294 -26.494135664675571 8.3465602879084173 0 0.69465837861970381 -0.71933979245794832 0.5 0 0 1 I I -0.70710678118654746 0.70710678118654746 0.5 forward I I I I #
loop $-1 $-1 $135 $36 #
coedge $-1 $85 $85 $136 $137 reversed $53 $-1 #
face $-1 $-1 $138 $29 $-1 $139 forward single #
loop $-1 $140 $141 $55 #
cone-surface $-1 48.014578242659752 -26.494135664675571 8.3465602879084173 0 0.69465837861970381 -0.71933979245794832 0.5 0 0 1 I I -0.70710678118654746 0.70710678118654746 0.5 forward I I I I #
loop $-1 $-1 $142 $37 #
coedge $-1 $90 $90 $143 $144 reversed $56 $-1 #
face $-1 $145 $146 $30 $-1 $147 forward single #
loop $-1 $-1 $148 $58 #
plane-surface $-1 -19.817070202433342 62.23881224794188 164.50151812988327 -1 0 0 0 0.57357644374324357 0.81915203911291934 forward_v I I I I #
coedge $-1 $149 $150 $151 $152 reversed $59 $-1 #
face $-1 $-1 $153 $31 $-1 $154 forward single #
loop $-1 $155 $156 $61 #
cone-surface $-1 -35.712399193308734 18.886476926644477 1.2954158973079295 0 -0.57357644374324357 -0.81915203911291934 1.5 0 0 1 I I -0.70710678118654757 0.70710678118654757 1.5 forward I I I I #
loop $-1 $-1 $157 $39 #
coedge $-1 $99 $99 $158 $159 reversed $62 $-1 #
face $-1 $160 $161 $24 $-1 $162 reversed single #
loop $-1 $-1 $163 $64 #
plane-surface $-1 0 -35.704940337003194 0 0 1 0 0 0 1 forward_v I I I I #
coedge $-1 $164 $165 $166 $167 forward $65 $-1 #
coedge $-1 $168 $67 $169 $170 forward $41 $-1 #
coedge $-1 $67 $168 $171 $172 forward $41 $-1 #
coedge $-1 $173 $174 $67 $107 reversed $175 $-1 #
edge $-1 $176 -35.704940337003194 $177 35.704940337003194 $106 $178 forward 7 unknown #
face $-1 $179 $180 $25 $-1 $181 reversed single #
loop $-1 $-1 $182 $68 #
plane-surface $-1 0 35.704940337003194 0 0 -1 0 0 0 -1 forward_v I I I I #
coedge $-1 $114 $183 $184 $185 reversed $69 $-1 #
coedge $-1 $186 $71 $187 $188 reversed $44 $-1 #
coedge $-1 $71 $186 $189 $190 reversed $44 $-1 #
coedge $-1 $191 $111 $71 $115 reversed $69 $-1 #
edge $-1 $192 -35.704940337003194 $193 35.704940337003194 $114 $194 forward 7 unknown #
face $-1 $195 $196 $26 $-1 $197 reversed single #
loop $-1 $-1 $198 $72 #
plane-surface $-1 36.95302088912252 -138.68406467895647 109.99115518599915 1 0 0 0 0.69465837861970381 -0.71933979245794832 forward_v I I I I #
coedge $-1 $199 $200 $201 $202 reversed $73 $-1 #
coedge $-1 $121 $75 $203 $204 reversed $47 $-1 #
coedge $-1 $75 $120 $199 $205 reversed $47 $-1 #
coedge $-1 $201 $206 $75 $123 forward $207 $-1 #
edge $-1 $208 33.637092002475043 $209 48.159714692757234 $122 $210 forward 7 unknown #
loop $-1 $-1 $129 $76 #
plane-surface $-1 43.86649423508328 -35.70494033700318 3.3531526633289985 0 -0.69465837861970381 0.71933979245794832 1 0 0 forward_v I I I I #
loop $-1 $-1 $211 $49 #
coedge $-1 $127 $127 $128 $212 reversed $77 $-1 #
coedge $-1 $128 $128 $127 $212 forward $79 $-1 #
coedge $-1 $129 $129 $80 $130 forward $124 $-1 #
edge $-1 $213 -1.5847051481288678e-015 $213 6.2831853071795987 $129 $214 forward 7 unknown #
loop $-1 $-1 $136 $81 #
plane-surface $-1 43.86649423508328 -35.70494033700318 3.3531526633289985 0 -0.69465837861970381 0.71933979245794832 1 0 0 forward_v I I I I #
loop $-1 $-1 $215 $52 #
coedge $-1 $134 $134 $135 $216 reversed $82 $-1 #
coedge $-1 $135 $135 $134 $216 forward $84 $-1 #
coedge $-1 $136 $136 $85 $137 forward $131 $-1 #
edge $-1 $217 -1.5847051481288678e-015 $217 6.2831853071795987 $136 $218 forward 7 unknown #
loop $-1 $-1 $143 $86 #
plane-surface $-1 43.86649423508328 -35.70494033700318 3.3531526633289985 0 -0.69465837861970381 0.71933979245794832 1 0 0 forward_v I I I I #
loop $-1 $-1 $219 $55 #
coedge $-1 $141 $141 $142 $220 reversed $87 $-1 #
coedge $-1 $142 $142 $141 $220 forward $89 $-1 #
coedge $-1 $143 $143 $90 $144 forward $138 $-1 #
edge $-1 $221 -1.5847051481288678e-015 $221 6.2831853071795987 $143 $222 forward 7 unknown #
face $-1 $223 $224 $30 $-1 $225 reversed single #
loop $-1 $-1 $151 $91 #
plane-surface $-1 0 0 17.377486694491168 0 0 1 1 0 0 forward_v I I I I #
coedge $-1 $226 $227 $228 $229 reversed $92 $-1 #
coedge $-1 $230 $94 $231 $232 reversed $59 $-1 #
coedge $-1 $94 $230 $226 $233 forward $59 $-1 #
coedge $-1 $228 $234 $94 $152 forward $146 $-1 #
edge $-1 $235 -33.751528587529762 $236 -1.9608706057789753 $151 $237 forward 7 unknown #
loop $-1 $-1 $158 $95 #
plane-surface $-1 -35.712399193308734 -22.790609029919395 43.066921949830544 0 0.57357644374324357 0.81915203911291934 1 0 0 forward_v I I I I #
loop $-1 $-1 $238 $61 #
coedge $-1 $156 $156 $157 $239 reversed $96 $-1 #
coedge $-1 $157 $157 $156 $239 forward $98 $-1 #
coedge $-1 $158 $158 $99 $159 forward $153 $-1 #
edge $-1 $240 -8.2566762108754879e-016 $240 6.2831853071795996 $158 $241 forward 7 unknown #
face $-1 $242 $243 $24 $-1 $244 reversed single #
loop $-1 $-1 $245 $100 #
plane-surface $-1 -74.122135074922937 0 0 1 0 0 0 0 -1 forward_v I I I I #
coedge $-1 $246 $171 $247 $248 forward $101 $-1 #
coedge $-1 $249 $103 $246 $250 forward $65 $-1 #
coedge $-1 $103 $249 $251 $252 forward $65 $-1 #
coedge $-1 $174 $173 $103 $167 reversed $175 $-1 #
edge $-1 $253 -35.704940337003194 $254 35.704940337003194 $166 $255 forward 7 unknown #
coedge $-1 $105 $104 $256 $257 forward $41 $-1 #
coedge $-1 $258 $259 $104 $170 reversed $243 $-1 #
edge $-1 $177 -74.122135074922937 $260 74.122135074922937 $169 $261 forward 7 unknown #
coedge $-1 $163 $262 $105 $172 reversed $101 $-1 #
edge $-1 $263 -74.122135074922937 $176 74.122135074922937 $171 $264 forward 7 unknown #
coedge $-1 $166 $106 $262 $265 forward $175 $-1 #
coedge $-1 $106 $166 $258 $266 reversed $175 $-1 #
loop $-1 $-1 $173 $242 #
vertex $-1 $107 $267 #
vertex $-1 $107 $268 #
straight-curve $-1 74.122135074922937 0 17.377486694491168 0 1 0 I I #
face $-1 $269 $270 $25 $-1 $271 forward single #
loop $-1 $-1 $272 $108 #
plane-surface $-1 -74.122135074922937 0 0 1 0 0 0 0 -1 forward_v I I I I #
coedge $-1 $189 $273 $191 $274 forward $109 $-1 #
coedge $-1 $111 $191 $275 $276 reversed $69 $-1 #
coedge $-1 $277 $187 $111 $185 forward $278 $-1 #
edge $-1 $193 2.7091897916951027 $279 10.681927865762411 $184 $280 forward 7 unknown #
coedge $-1 $113 $112 $272 $281 reversed $44 $-1 #
coedge $-1 $184 $282 $112 $188 forward $278 $-1 #
edge $-1 $283 -42.689669260146175 $193 -20.17526236940736 $187 $284 forward 7 unknown #
coedge $-1 $285 $182 $113 $190 forward $109 $-1 #
edge $-1 $192 20.17526236940736 $286 42.689669260146175 $189 $287 forward 7 unknown #
coedge $-1 $183 $114 $182 $274 reversed $69 $-1 #
vertex $-1 $190 $288 #
vertex $-1 $188 $289 #
straight-curve $-1 -51.607728184184126 0 9.4047486204238595 0 -1 0 I I #
face $-1 $-1 $207 $26 $-1 $290 forward single #
loop $-1 $-1 $291 $116 #
plane-surface $-1 0 -35.704940337003194 0 0 1 0 0 0 1 forward_v I I I I #
coedge $-1 $292 $293 $294 $295 reversed $117 $-1 #
coedge $-1 $296 $119 $121 $205 forward $73 $-1 #
coedge $-1 $119 $296 $292 $297 forward $73 $-1 #
coedge $-1 $294 $122 $119 $202 forward $207 $-1 #
edge $-1 $209 -28.8467204635024 $298 -15.01977377158088 $201 $299 forward 7 unknown #
coedge $-1 $300 $301 $120 $204 forward $196 $-1 #
edge $-1 $302 -51.64242492967059 $208 -37.618090898508406 $203 $303 forward 7 unknown #
edge $-1 $209 -20.188821531280919 $302 1.9785632286268914e-014 $121 $304 forward 7 unknown #
coedge $-1 $122 $294 $300 $305 forward $207 $-1 #
loop $-1 $-1 $294 $195 #
vertex $-1 $204 $306 #
vertex $-1 $123 $307 #
straight-curve $-1 50.779967581044041 -69.342032339478237 17.377486694491168 0 1 0 I I #
coedge $-1 $211 $211 $-1 $308 reversed $126 $-1 #
edge $-1 $309 0 $309 6.2831853071796004 $127 $310 forward 7 unknown #
vertex $-1 $130 $311 #
ellipse-curve $-1 39.718410227506837 -28.443628991862099 10.365319678910076 0 -0.69465837861970381 0.71933979245794832 1 0 0 1 I I #
coedge $-1 $215 $215 $-1 $312 reversed $133 $-1 #
edge $-1 $313 0 $313 6.2831853071796004 $134 $314 forward 7 unknown #
vertex $-1 $137 $315 #
ellipse-curve $-1 43.866494235083294 -28.443628991862099 10.365319678910076 0 -0.69465837861970381 0.71933979245794832 1 0 0 1 I I #
coedge $-1 $219 $219 $-1 $316 reversed $140 $-1 #
edge $-1 $317 0 $317 6.2831853071796004 $141 $318 forward 7 unknown #
vertex $-1 $144 $319 #
ellipse-curve $-1 48.014578242659752 -28.443628991862099 10.365319678910076 0 -0.69465837861970381 0.71933979245794832 1 0 0 1 I I #
face $-1 $-1 $320 $30 $-1 $321 forward single #
loop $-1 $-1 $322 $145 #
plane-surface $-1 0 35.704940337003194 0 0 -1 0 0 0 -1 forward_v I I I I #
coedge $-1 $227 $148 $150 $233 reversed $92 $-1 #
coedge $-1 $148 $226 $322 $323 reversed $92 $-1 #
coedge $-1 $324 $151 $148 $229 forward $146 $-1 #
edge $-1 $236 -17.221700104309022 $325 4.5855342130322541 $228 $326 forward 7 unknown #
coedge $-1 $150 $149 $327 $328 reversed $59 $-1 #
coedge $-1 $329 $330 $149 $232 forward $320 $-1 #
edge $-1 $331 -53.564722598644593 $235 -26.943004924649809 $231 $332 forward 7 unknown #
edge $-1 $333 -71.409880674006388 $236 -44.7881630000116 $226 $334 forward 7 unknown #
coedge $-1 $151 $324 $329 $335 forward $146 $-1 #
vertex $-1 $232 $336 #
vertex $-1 $152 $337 #
straight-curve $-1 -17.856199596654367 13.897706019661904 17.377486694491168 1 0 0 I I #
coedge $-1 $238 $238 $-1 $338 reversed $155 $-1 #
edge $-1 $339 0 $339 6.2831853071796004 $156 $340 forward 7 unknown #
vertex $-1 $159 $341 #
ellipse-curve $-1 -35.712399193308734 24.801323178332563 9.742691619597867 0 0.57357644374324357 0.81915203911291934 3 0 0 1 I I #
face $-1 $-1 $175 $24 $-1 $342 reversed single #
loop $-1 $-1 $258 $160 #
plane-surface $-1 0 35.704940337003194 0 0 -1 0 0 0 -1 forward_v I I I I #
coedge $-1 $343 $256 $259 $344 forward $161 $-1 #
coedge $-1 $262 $163 $164 $250 reversed $101 $-1 #
coedge $-1 $256 $343 $163 $248 reversed $161 $-1 #
edge $-1 $263 -17.377486694491168 $345 17.377486694491168 $247 $346 forward 7 unknown #
coedge $-1 $165 $164 $343 $347 forward $65 $-1 #
edge $-1 $254 -74.122135074922937 $345 74.122135074922937 $246 $348 forward 7 unknown #
coedge $-1 $259 $258 $165 $252 reversed $243 $-1 #
edge $-1 $349 -74.122135074922937 $253 74.122135074922937 $251 $350 forward 7 unknown #
vertex $-1 $167 $351 #
vertex $-1 $265 $352 #
straight-curve $-1 74.122135074922937 0 -17.377486694491168 0 -1 0 I I #
coedge $-1 $245 $247 $168 $257 reversed $161 $-1 #
edge $-1 $260 -35.704940337003194 $263 35.704940337003194 $256 $353 forward 7 unknown #
coedge $-1 $251 $169 $174 $266 forward $243 $-1 #
coedge $-1 $169 $251 $245 $344 reversed $243 $-1 #
vertex $-1 $170 $354 #
straight-curve $-1 0 35.704940337003194 17.377486694491168 -1 0 0 I I #
coedge $-1 $171 $246 $173 $265 reversed $101 $-1 #
vertex $-1 $257 $355 #
straight-curve $-1 0 -35.704940337003194 17.377486694491168 1 0 0 I I #
edge $-1 $176 -17.377486694491168 $254 17.377486694491168 $173 $356 forward 7 unknown #
edge $-1 $177 -17.377486694491168 $253 17.377486694491168 $174 $357 forward 7 unknown #
point $-1 74.122135074922937 -35.704940337003194 17.377486694491168 #
point $-1 74.122135074922937 35.704940337003194 17.377486694491168 #
face $-1 $-1 $278 $25 $-1 $358 reversed single #
loop $-1 $-1 $275 $179 #
plane-surface $-1 0 0 17.377486694491168 0 0 1 1 0 0 forward_v I I I I #
coedge $-1 $359 $360 $186 $281 forward $180 $-1 #
coedge $-1 $182 $285 $361 $362 reversed $109 $-1 #
edge $-1 $363 -10.681927865762411 $192 -2.7091897916951027 $182 $364 forward 7 unknown #
coedge $-1 $361 $365 $183 $276 forward $270 $-1 #
edge $-1 $279 -35.704940337003194 $363 35.704940337003194 $275 $366 forward 7 unknown #
coedge $-1 $282 $184 $365 $367 reversed $278 $-1 #
loop $-1 $-1 $184 $269 #
vertex $-1 $185 $368 #
straight-curve $-1 -51.607728184184126 -35.704940337003194 6.6955588287287569 0 0 1 I I #
edge $-1 $286 -35.704940337003194 $283 35.704940337003194 $272 $369 forward 7 unknown #
coedge $-1 $187 $277 $359 $370 forward $278 $-1 #
vertex $-1 $281 $371 #
straight-curve $-1 -31.432465814776766 -35.704940337003194 9.4047486204238595 1 0 0 I I #
coedge $-1 $273 $189 $360 $372 reversed $109 $-1 #
vertex $-1 $281 $373 #
straight-curve $-1 -31.432465814776766 35.704940337003194 9.4047486204238595 -1 0 0 I I #
point $-1 -51.607728184184126 35.704940337003194 9.4047486204238595 #
point $-1 -51.607728184184126 -35.704940337003194 9.4047486204238595 #
plane-surface $-1 0 0 17.377486694491168 0 0 1 1 0 0 forward_v I I I I #
coedge $-1 $301 $300 $293 $374 forward $196 $-1 #
coedge $-1 $293 $198 $200 $297 reversed $117 $-1 #
coedge $-1 $198 $292 $291 $374 reversed $117 $-1 #
coedge $-1 $206 $201 $198 $295 forward $207 $-1 #
edge $-1 $298 -48.159714692757234 $375 -33.637092002475043 $294 $376 forward 7 unknown #
coedge $-1 $200 $199 $301 $377 reversed $73 $-1 #
edge $-1 $378 -1.9785632286268914e-014 $298 20.188821531280919 $292 $379 forward 7 unknown #
vertex $-1 $202 $380 #
straight-curve $-1 21.93324711754164 -21.182317646721003 17.377486694491168 -1 0 0 I I #
coedge $-1 $291 $203 $206 $305 reversed $196 $-1 #
coedge $-1 $203 $291 $296 $377 forward $196 $-1 #
vertex $-1 $204 $381 #
straight-curve $-1 50.779967581044041 -35.704940337003194 54.995577592999574 0 0 1 I I #
straight-curve $-1 50.779967581044041 -35.70494033700318 3.3531526633289985 0 -0.71933979245794832 -0.69465837861970381 I I #
edge $-1 $375 36.95302088912252 $208 50.779967581044041 $300 $382 forward 7 unknown #
point $-1 50.779967581044041 -35.704940337003194 17.377486694491168 #
point $-1 50.779967581044041 -21.182317646721003 17.377486694491168 #
edge $-1 $383 1 $383 0 $211 $-1 forward 7 unknown #
vertex $-1 $212 $384 #
ellipse-curve $-1 39.718410227506837 -26.841464853985425 8.7062301841373912 0 -0.69465837861970381 0.71933979245794832 1 0 0 1 I I #
point $-1 40.718410227506837 -28.443628991862113 10.365319678910089 #
edge $-1 $385 1 $385 0 $215 $-1 forward 7 unknown #
vertex $-1 $216 $386 #
ellipse-curve $-1 43.866494235083294 -26.841464853985425 8.7062301841373912 0 -0.69465837861970381 0.71933979245794832 1 0 0 1 I I #
point $-1 44.866494235083294 -28.443628991862113 10.365319678910089 #
edge $-1 $387 1 $387 0 $219 $-1 forward 7 unknown #
vertex $-1 $220 $388 #
ellipse-curve $-1 48.014578242659752 -26.841464853985425 8.7062301841373912 0 -0.69465837861970381 0.71933979245794832 1 0 0 1 I I #
point $-1 49.014578242659752 -28.443628991862113 10.365319678910089 #
loop $-1 $-1 $231 $223 #
plane-surface $-1 -51.607728184184126 0 13.391117657457514 -1 0 0 0 0 1 forward_v I I I I #
coedge $-1 $327 $389 $227 $323 forward $224 $-1 #
edge $-1 $325 64.873272370450465 $333 80.14286252023706 $322 $390 forward 7 unknown #
coedge $-1 $234 $228 $389 $391 forward $146 $-1 #
vertex $-1 $391 $392 #
straight-curve $-1 -19.817070202433342 31.11940612397094 17.377486694491168 0 1 0 I I #
coedge $-1 $393 $322 $230 $328 forward $224 $-1 #
edge $-1 $333 1.9608706057789753 $331 33.751528587529762 $327 $394 forward 7 unknown #
coedge $-1 $330 $231 $234 $335 reversed $320 $-1 #
coedge $-1 $231 $329 $393 $395 reversed $320 $-1 #
vertex $-1 $395 $396 #
straight-curve $-1 -51.607728184184126 -8.1727114041944002 32.831359642928504 0 -0.81915203911291934 0.57357644374324357 I I #
vertex $-1 $328 $397 #
straight-curve $-1 -19.817070202433342 -22.790609029919395 43.066921949830544 0 -0.81915203911291934 0.57357644374324357 I I #
edge $-1 $398 -35.704940337003194 $235 -13.897706019661918 $234 $399 forward 7 unknown #
point $-1 -51.607728184184126 13.897706019661918 17.377486694491168 #
point $-1 -19.817070202433342 13.897706019661918 17.377486694491168 #
edge $-1 $400 1 $400 0 $238 $-1 forward 7 unknown #
vertex $-1 $239 $401 #
ellipse-curve $-1 -35.712399193308734 19.746841592259344 2.5241439559773085 0 0.57357644374324357 0.81915203911291934 3 0 0 1 I I #
point $-1 -32.712399193308734 24.801323178332574 9.7426916195978865 #
plane-surface $-1 74.122135074922937 0 0 -1 0 0 0 0 1 forward_v I I I I #
coedge $-1 $247 $245 $249 $347 reversed $161 $-1 #
edge $-1 $260 -17.377486694491168 $349 17.377486694491168 $259 $402 forward 7 unknown #
vertex $-1 $347 $403 #
straight-curve $-1 -74.122135074922937 -35.704940337003194 0 0 0 -1 I I #
edge $-1 $345 -35.704940337003194 $349 35.704940337003194 $343 $404 forward 7 unknown #
straight-curve $-1 0 -35.704940337003194 -17.377486694491168 -1 0 0 I I #
vertex $-1 $252 $405 #
straight-curve $-1 0 35.704940337003194 -17.377486694491168 1 0 0 I I #
point $-1 74.122135074922937 35.704940337003194 -17.377486694491168 #
point $-1 74.122135074922937 -35.704940337003194 -17.377486694491168 #
straight-curve $-1 -74.122135074922937 0 17.377486694491168 0 -1 0 I I #
point $-1 -74.122135074922937 35.704940337003194 17.377486694491168 #
point $-1 -74.122135074922937 -35.704940337003194 17.377486694491168 #
straight-curve $-1 74.122135074922937 -35.704940337003194 0 0 0 -1 I I #
straight-curve $-1 74.122135074922937 35.704940337003194 0 0 0 -1 I I #
plane-surface $-1 0 -35.704940337003194 0 0 1 0 0 0 1 forward_v I I I I #
coedge $-1 $406 $272 $282 $370 reversed $180 $-1 #
coedge $-1 $272 $406 $285 $372 forward $180 $-1 #
coedge $-1 $407 $275 $273 $362 forward $270 $-1 #
edge $-1 $363 51.607728184184126 $408 74.122135074922937 $273 $409 forward 7 unknown #
vertex $-1 $362 $410 #
straight-curve $-1 -51.607728184184126 35.704940337003194 6.6955588287287569 0 0 -1 I I #
coedge $-1 $275 $407 $277 $367 forward $270 $-1 #
straight-curve $-1 -51.607728184184126 0 17.377486694491168 0 1 0 I I #
edge $-1 $411 -74.122135074922937 $279 -51.607728184184126 $277 $412 forward 7 unknown #
point $-1 -51.607728184184126 -35.704940337003194 17.377486694491168 #
straight-curve $-1 -74.122135074922937 0 9.4047486204238595 0 -1 0 I I #
edge $-1 $411 -17.377486694491168 $283 -9.4047486204238595 $359 $413 forward 7 unknown #
point $-1 -74.122135074922937 -35.704940337003194 9.4047486204238595 #
edge $-1 $408 -17.377486694491168 $286 -9.4047486204238595 $285 $414 forward 7 unknown #
point $-1 -74.122135074922937 35.704940337003194 9.4047486204238595 #
edge $-1 $375 37.618090898508406 $378 51.64242492967059 $291 $415 forward 7 unknown #
vertex $-1 $305 $416 #
straight-curve $-1 36.95302088912252 -69.342032339478237 17.377486694491168 0 -1 0 I I #
edge $-1 $378 15.01977377158088 $302 28.8467204635024 $301 $417 forward 7 unknown #
vertex $-1 $377 $418 #
straight-curve $-1 36.95302088912252 -35.70494033700318 3.3531526633289985 0 0.71933979245794832 0.69465837861970381 I I #
point $-1 36.95302088912252 -21.182317646721003 17.377486694491168 #
point $-1 50.779967581044041 -35.704940337003194 3.3531526633289848 #
straight-curve $-1 0 -35.704940337003194 17.377486694491168 1 0 0 I I #
vertex $-1 $308 $419 #
point $-1 40.718410227506837 -26.841464853985425 8.7062301841373912 #
vertex $-1 $312 $420 #
point $-1 44.866494235083294 -26.841464853985425 8.7062301841373912 #
vertex $-1 $316 $421 #
point $-1 49.014578242659752 -26.841464853985425 8.7062301841373912 #
coedge $-1 $322 $393 $324 $391 reversed $224 $-1 #
straight-curve $-1 -19.817070202433342 35.704940337003194 82.250759064941633 0 0 -1 I I #
edge $-1 $325 19.817070202433342 $398 51.607728184184126 $389 $422 forward 7 unknown #
point $-1 -19.817070202433342 35.704940337003194 17.377486694491168 #
coedge $-1 $389 $327 $330 $395 forward $224 $-1 #
straight-curve $-1 -17.856199596654367 35.704940337003194 2.1078965447045732 -1 0 0 I I #
edge $-1 $331 -80.14286252023706 $398 -64.873272370450465 $393 $423 forward 7 unknown #
point $-1 -51.607728184184126 35.704940337003187 2.1078965447045803 #
point $-1 -19.817070202433342 35.704940337003187 2.1078965447045803 #
vertex $-1 $335 $424 #
straight-curve $-1 -51.607728184184126 0 17.377486694491168 0 -1 0 I I #
vertex $-1 $338 $425 #
point $-1 -32.712399193308734 19.746841592259344 2.5241439559773085 #
straight-curve $-1 -74.122135074922937 35.704940337003194 0 0 0 -1 I I #
point $-1 -74.122135074922937 -35.704940337003194 -17.377486694491168 #
straight-curve $-1 -74.122135074922937 0 -17.377486694491168 0 1 0 I I #
point $-1 -74.122135074922937 35.704940337003194 -17.377486694491168 #
coedge $-1 $360 $359 $407 $426 reversed $180 $-1 #
coedge $-1 $365 $361 $406 $426 forward $270 $-1 #
vertex $-1 $362 $427 #
straight-curve $-1 0 35.704940337003194 17.377486694491168 -1 0 0 I I #
point $-1 -51.607728184184126 35.704940337003194 17.377486694491168 #
vertex $-1 $426 $428 #
straight-curve $-1 0 -35.704940337003194 17.377486694491168 1 0 0 I I #
straight-curve $-1 -74.122135074922937 -35.704940337003194 0 0 0 -1 I I #
straight-curve $-1 -74.122135074922937 35.704940337003194 0 0 0 -1 I I #
straight-curve $-1 36.95302088912252 -35.704940337003194 54.995577592999574 0 0 -1 I I #
point $-1 36.95302088912252 -35.704940337003194 17.377486694491168 #
straight-curve $-1 21.93324711754164 -35.704940337003194 3.353152663328983 1 0 0 I I #
point $-1 36.95302088912252 -35.704940337003194 3.3531526633289848 #
point $-1 39.718410227506837 -26.146806475365718 7.9868903916794434 #
point $-1 43.866494235083294 -26.146806475365718 7.9868903916794434 #
point $-1 48.014578242659752 -26.146806475365718 7.9868903916794434 #
straight-curve $-1 0 35.704940337003194 17.377486694491168 -1 0 0 I I #
straight-curve $-1 -51.607728184184126 35.704940337003194 82.250759064941633 0 0 1 I I #
point $-1 -51.607728184184126 35.704940337003194 17.377486694491168 #
point $-1 -35.712399193308734 18.02611226102961 0.066687838638550545 #
edge $-1 $408 -35.704940337003194 $411 35.704940337003194 $406 $429 forward 7 unknown #
point $-1 -74.122135074922937 35.704940337003194 17.377486694491168 #
point $-1 -74.122135074922937 -35.704940337003194 17.377486694491168 #
straight-curve $-1 -74.122135074922937 0 17.377486694491168 0 -1 0 I I #
End-of-ACIS-data 