500 0 8 0           
7 Unknown 11 ACIS 5.0 NT 24 Thu Mar 25 22:28:35 1999 
-1 9.9999999999999995e-007 1e-010 
body $-1 $8 $-1 $9 #
body $-1 $10 $-1 $11 #
body $-1 $12 $-1 $13 #
body $-1 $14 $-1 $15 #
body $-1 $16 $-1 $17 #
body $-1 $18 $-1 $19 #
body $-1 $20 $-1 $21 #
body $-1 $22 $-1 $23 #
lump $-1 $-1 $24 $0 #
transform $-1 1 0 0 0 1 0 0 0 1 78.804895168919955 38.129476881835103 17.681967440255768 1 rotate no_reflect no_shear #
lump $-1 $-1 $25 $1 #
transform $-1 1 0 0 0 1 0 0 0 1 78.804895168919955 38.129476881835103 17.681967440255768 1 rotate no_reflect no_shear #
lump $-1 $-1 $26 $2 #
transform $-1 1 0 0 0 1 0 0 0 1 78.804895168919955 38.129476881835103 17.681967440255768 1 rotate no_reflect no_shear #
lump $-1 $-1 $27 $3 #
transform $-1 1 0 0 0 1 0 0 0 1 78.804895168919955 38.129476881835103 17.681967440255768 1 rotate no_reflect no_shear #
lump $-1 $-1 $28 $4 #
transform $-1 1 0 0 0 1 0 0 0 1 78.804895168919955 38.129476881835103 17.681967440255768 1 rotate no_reflect no_shear #
lump $-1 $-1 $29 $5 #
transform $-1 1 0 0 0 1 0 0 0 1 78.804895168919955 38.129476881835103 17.681967440255768 1 rotate no_reflect no_shear #
lump $-1 $-1 $30 $6 #
transform $-1 1 0 0 0 1 0 0 0 1 78.804895168919955 38.129476881835103 17.681967440255768 1 rotate no_reflect no_shear #
lump $-1 $-1 $31 $7 #
transform $-1 1 0 0 0 1 0 0 0 1 78.804895168919955 38.129476881835103 17.681967440255768 1 rotate no_reflect no_shear #
shell $-1 $-1 $-1 $32 $-1 $8 #
shell $-1 $-1 $-1 $33 $-1 $10 #
shell $-1 $-1 $-1 $34 $-1 $12 #
shell $-1 $-1 $-1 $35 $-1 $14 #
shell $-1 $-1 $-1 $36 $-1 $16 #
shell $-1 $-1 $-1 $37 $-1 $18 #
shell $-1 $-1 $-1 $38 $-1 $20 #
shell $-1 $-1 $-1 $39 $-1 $22 #
face $-1 $40 $41 $24 $-1 $42 forward single #
face $-1 $43 $44 $25 $-1 $45 forward single #
face $-1 $46 $47 $26 $-1 $48 reversed single #
face $-1 $49 $50 $27 $-1 $51 forward single #
face $-1 $52 $53 $28 $-1 $54 forward single #
face $-1 $55 $56 $29 $-1 $57 reversed single #
face $-1 $58 $59 $30 $-1 $60 forward single #
face $-1 $61 $62 $31 $-1 $63 forward single #
face $-1 $64 $65 $24 $-1 $66 reversed single #
loop $-1 $-1 $67 $32 #
plane-surface $-1 0 0 17.681967440255768 0 0 1 1 0 0 forward_v I I I I #
face $-1 $68 $69 $25 $-1 $70 reversed single #
loop $-1 $-1 $71 $33 #
plane-surface $-1 -72.631499602253967 0 14.056890674061869 0 0 1 1 0 0 forward_v I I I I #
face $-1 $72 $73 $26 $-1 $74 reversed single #
loop $-1 $-1 $75 $34 #
plane-surface $-1 40.099777070615147 -17.098672893460893 230.56426299075656 0 -1 0 -0.57357644374324357 0 -0.81915203911291934 forward_v I I I I #
face $-1 $76 $77 $27 $-1 $78 forward single #
loop $-1 $79 $80 $35 #
cone-surface $-1 73.725650070468163 -24.004216076758858 13.871932066321435 -0.57357644374324357 0 -0.81915203911291934 0.81915203911291934 0 -0.57357644374324357 1 I I 0 1 1 forward I I I I #
face $-1 $81 $82 $28 $-1 $83 forward single #
loop $-1 $84 $85 $36 #
cone-surface $-1 73.725650070468163 -19.860890166780081 13.871932066321435 -0.57357644374324357 0 -0.81915203911291934 0.81915203911291934 0 -0.57357644374324357 1 I I 0 1 1 forward I I I I #
face $-1 $86 $87 $29 $-1 $88 reversed single #
loop $-1 $-1 $89 $37 #
plane-surface $-1 40.099777070615147 21.030803988374206 230.56426299075656 0 -1 0 -0.57357644374324357 0 -0.81915203911291934 forward_v I I I I #
face $-1 $90 $91 $30 $-1 $92 forward single #
loop $-1 $93 $94 $38 #
cone-surface $-1 73.725650070468163 14.125260805076245 13.871932066321435 -0.57357644374324357 0 -0.81915203911291934 0.81915203911291934 0 -0.57357644374324357 1 I I 0 1 1 forward I I I I #
face $-1 $95 $96 $31 $-1 $97 forward single #
loop $-1 $98 $99 $39 #
cone-surface $-1 73.725650070468163 18.268586715055022 13.871932066321435 -0.57357644374324357 0 -0.81915203911291934 0.81915203911291934 0 -0.57357644374324357 1 I I 0 1 1 forward I I I I #
face $-1 $100 $101 $24 $-1 $102 reversed single #
loop $-1 $-1 $103 $40 #
plane-surface $-1 0 0 -17.681967440255768 0 0 1 1 0 0 forward_v I I I I #
coedge $-1 $104 $105 $106 $107 forward $41 $-1 #
face $-1 $108 $109 $25 $-1 $110 reversed single #
loop $-1 $-1 $111 $43 #
plane-surface $-1 -72.631499602253967 0 8.7874301786214062 0 0 1 1 0 0 forward_v I I I I #
coedge $-1 $112 $113 $114 $115 forward $44 $-1 #
face $-1 $116 $117 $26 $-1 $118 reversed single #
loop $-1 $-1 $119 $46 #
plane-surface $-1 -50.301485970481295 -21.93255312176947 101.4578818513553 0.57357644374324357 0 0.81915203911291934 0.81915203911291934 0 -0.57357644374324357 forward_v I I I I #
coedge $-1 $120 $121 $122 $123 reversed $47 $-1 #
face $-1 $-1 $124 $27 $-1 $125 forward single #
loop $-1 $126 $127 $49 #
cone-surface $-1 73.090605879228832 -24.004216076758858 12.964994987829108 -0.57357644374324357 0 -0.81915203911291934 0.40957601955645967 0 -0.28678822187162178 1 I I -0.70710678118654746 0.70710678118654746 0.5 forward I I I I #
loop $-1 $-1 $128 $35 #
coedge $-1 $80 $80 $129 $130 reversed $50 $-1 #
face $-1 $-1 $131 $28 $-1 $132 forward single #
loop $-1 $133 $134 $52 #
cone-surface $-1 73.090605879228832 -19.860890166780081 12.964994987829108 -0.57357644374324357 0 -0.81915203911291934 0.40957601955645967 0 -0.28678822187162178 1 I I -0.70710678118654746 0.70710678118654746 0.5 forward I I I I #
loop $-1 $-1 $135 $36 #
coedge $-1 $85 $85 $136 $137 reversed $53 $-1 #
face $-1 $138 $139 $29 $-1 $140 reversed single #
loop $-1 $-1 $141 $55 #
plane-surface $-1 -50.301485970481295 16.19692376006563 101.4578818513553 0.57357644374324357 0 0.81915203911291934 0.81915203911291934 0 -0.57357644374324357 forward_v I I I I #
coedge $-1 $142 $143 $144 $145 reversed $56 $-1 #
face $-1 $-1 $146 $30 $-1 $147 forward single #
loop $-1 $148 $149 $58 #
cone-surface $-1 73.090605879228832 14.125260805076245 12.964994987829108 -0.57357644374324357 0 -0.81915203911291934 0.40957601955645967 0 -0.28678822187162178 1 I I -0.70710678118654746 0.70710678118654746 0.5 forward I I I I #
loop $-1 $-1 $150 $38 #
coedge $-1 $94 $94 $151 $152 reversed $59 $-1 #
face $-1 $-1 $153 $31 $-1 $154 forward single #
loop $-1 $155 $156 $61 #
cone-surface $-1 73.090605879228832 18.268586715055022 12.964994987829108 -0.57357644374324357 0 -0.81915203911291934 0.40957601955645967 0 -0.28678822187162178 1 I I -0.70710678118654746 0.70710678118654746 0.5 forward I I I I #
loop $-1 $-1 $157 $39 #
coedge $-1 $99 $99 $158 $159 reversed $62 $-1 #
face $-1 $160 $161 $24 $-1 $162 reversed single #
loop $-1 $-1 $163 $64 #
plane-surface $-1 0 -38.129476881835103 0 0 1 0 0 0 1 forward_v I I I I #
coedge $-1 $164 $165 $166 $167 forward $65 $-1 #
coedge $-1 $168 $67 $169 $170 forward $41 $-1 #
coedge $-1 $67 $168 $171 $172 forward $41 $-1 #
coedge $-1 $173 $174 $67 $107 reversed $175 $-1 #
edge $-1 $176 -38.129476881835103 $177 38.129476881835103 $106 $178 forward 7 unknown #
face $-1 $179 $180 $25 $-1 $181 reversed single #
loop $-1 $-1 $182 $68 #
plane-surface $-1 -66.458104035587979 0 11.422160426341637 -1 0 0 0 0 1 forward_v I I I I #
coedge $-1 $183 $184 $185 $186 forward $69 $-1 #
coedge $-1 $187 $71 $188 $189 reversed $44 $-1 #
coedge $-1 $71 $187 $190 $191 reversed $44 $-1 #
coedge $-1 $182 $192 $71 $115 reversed $109 $-1 #
edge $-1 $193 -38.129476881835103 $194 38.129476881835103 $114 $195 forward 7 unknown #
face $-1 $196 $197 $26 $-1 $198 reversed single #
loop $-1 $-1 $199 $72 #
plane-surface $-1 40.099777070615147 -26.766433350078046 230.56426299075656 0 1 0 0.57357644374324357 0 0.81915203911291934 forward_v I I I I #
coedge $-1 $200 $201 $202 $203 reversed $73 $-1 #
coedge $-1 $121 $75 $204 $205 reversed $47 $-1 #
coedge $-1 $75 $120 $200 $206 reversed $47 $-1 #
coedge $-1 $202 $207 $75 $123 forward $208 $-1 #
edge $-1 $209 -58.755006633612382 $210 -49.29302837544428 $122 $211 forward 7 unknown #
loop $-1 $-1 $129 $76 #
plane-surface $-1 -50.301485970481295 -21.93255312176947 101.4578818513553 0.57357644374324357 0 0.81915203911291934 0.81915203911291934 0 -0.57357644374324357 forward_v I I I I #
loop $-1 $-1 $212 $49 #
coedge $-1 $127 $127 $128 $213 reversed $77 $-1 #
coedge $-1 $128 $128 $127 $213 forward $79 $-1 #
coedge $-1 $129 $129 $80 $130 forward $124 $-1 #
edge $-1 $214 0 $214 6.2831853071796004 $129 $215 forward 7 unknown #
loop $-1 $-1 $136 $81 #
plane-surface $-1 -50.301485970481295 -21.93255312176947 101.4578818513553 0.57357644374324357 0 0.81915203911291934 0.81915203911291934 0 -0.57357644374324357 forward_v I I I I #
loop $-1 $-1 $216 $52 #
coedge $-1 $134 $134 $135 $217 reversed $82 $-1 #
coedge $-1 $135 $135 $134 $217 forward $84 $-1 #
coedge $-1 $136 $136 $85 $137 forward $131 $-1 #
edge $-1 $218 0 $218 6.2831853071796004 $136 $219 forward 7 unknown #
face $-1 $220 $221 $29 $-1 $222 reversed single #
loop $-1 $-1 $223 $86 #
plane-surface $-1 40.099777070615147 11.363043531757054 230.56426299075656 0 1 0 0.57357644374324357 0 0.81915203911291934 forward_v I I I I #
coedge $-1 $224 $225 $226 $227 reversed $87 $-1 #
coedge $-1 $143 $89 $228 $229 reversed $56 $-1 #
coedge $-1 $89 $142 $224 $230 reversed $56 $-1 #
coedge $-1 $226 $231 $89 $145 forward $232 $-1 #
edge $-1 $233 -58.755006633612382 $234 -49.29302837544428 $144 $235 forward 7 unknown #
loop $-1 $-1 $151 $90 #
plane-surface $-1 -50.301485970481295 16.19692376006563 101.4578818513553 0.57357644374324357 0 0.81915203911291934 0.81915203911291934 0 -0.57357644374324357 forward_v I I I I #
loop $-1 $-1 $236 $58 #
coedge $-1 $149 $149 $150 $237 reversed $91 $-1 #
coedge $-1 $150 $150 $149 $237 forward $93 $-1 #
coedge $-1 $151 $151 $94 $152 forward $146 $-1 #
edge $-1 $238 0 $238 6.2831853071796004 $151 $239 forward 7 unknown #
loop $-1 $-1 $158 $95 #
plane-surface $-1 -50.301485970481295 16.19692376006563 101.4578818513553 0.57357644374324357 0 0.81915203911291934 0.81915203911291934 0 -0.57357644374324357 forward_v I I I I #
loop $-1 $-1 $240 $61 #
coedge $-1 $156 $156 $157 $241 reversed $96 $-1 #
coedge $-1 $157 $157 $156 $241 forward $98 $-1 #
coedge $-1 $158 $158 $99 $159 forward $153 $-1 #
edge $-1 $242 0 $242 6.2831853071796004 $158 $243 forward 7 unknown #
face $-1 $244 $245 $24 $-1 $246 reversed single #
loop $-1 $-1 $247 $100 #
plane-surface $-1 -78.804895168919955 0 0 1 0 0 0 0 -1 forward_v I I I I #
coedge $-1 $248 $171 $249 $250 forward $101 $-1 #
coedge $-1 $251 $103 $248 $252 forward $65 $-1 #
coedge $-1 $103 $251 $253 $254 forward $65 $-1 #
coedge $-1 $174 $173 $103 $167 reversed $175 $-1 #
edge $-1 $255 -38.129476881835103 $256 38.129476881835103 $166 $257 forward 7 unknown #
coedge $-1 $105 $104 $258 $259 forward $41 $-1 #
coedge $-1 $260 $261 $104 $170 reversed $245 $-1 #
edge $-1 $177 -78.804895168919955 $262 78.804895168919955 $169 $263 forward 7 unknown #
coedge $-1 $163 $264 $105 $172 reversed $101 $-1 #
edge $-1 $265 -78.804895168919955 $176 78.804895168919955 $171 $266 forward 7 unknown #
coedge $-1 $166 $106 $264 $267 forward $175 $-1 #
coedge $-1 $106 $166 $260 $268 reversed $175 $-1 #
loop $-1 $-1 $173 $244 #
vertex $-1 $107 $269 #
vertex $-1 $107 $270 #
straight-curve $-1 78.804895168919955 0 17.681967440255768 0 1 0 I I #
face $-1 $271 $272 $25 $-1 $273 reversed single #
loop $-1 $-1 $274 $108 #
plane-surface $-1 0 -38.129476881835103 0 0 1 0 0 0 1 forward_v I I I I #
coedge $-1 $185 $114 $275 $276 reversed $109 $-1 #
coedge $-1 $277 $111 $274 $278 reversed $69 $-1 #
coedge $-1 $111 $277 $279 $280 reversed $69 $-1 #
coedge $-1 $192 $182 $111 $186 reversed $109 $-1 #
edge $-1 $281 -38.129476881835103 $282 38.129476881835103 $185 $283 forward 7 unknown #
coedge $-1 $113 $112 $284 $285 reversed $44 $-1 #
coedge $-1 $286 $287 $112 $189 forward $288 $-1 #
edge $-1 $289 -42.489145367792972 $194 -30.142354234460996 $188 $290 forward 7 unknown #
coedge $-1 $291 $275 $113 $191 forward $180 $-1 #
edge $-1 $193 30.142354234460996 $292 42.489145367792972 $190 $293 forward 7 unknown #
coedge $-1 $114 $185 $286 $294 reversed $109 $-1 #
vertex $-1 $191 $295 #
vertex $-1 $189 $296 #
straight-curve $-1 -66.458104035587979 0 14.056890674061869 0 1 0 I I #
face $-1 $-1 $208 $26 $-1 $297 forward single #
loop $-1 $-1 $298 $116 #
plane-surface $-1 78.804895168919955 0 0 -1 0 0 0 0 1 forward_v I I I I #
coedge $-1 $299 $300 $301 $302 reversed $117 $-1 #
coedge $-1 $303 $119 $121 $206 forward $73 $-1 #
coedge $-1 $119 $303 $299 $304 forward $73 $-1 #
coedge $-1 $301 $122 $119 $203 forward $208 $-1 #
edge $-1 $210 6.1323963325761586 $305 15.800156789193311 $202 $306 forward 7 unknown #
coedge $-1 $307 $308 $120 $205 forward $197 $-1 #
edge $-1 $309 -104.22551268511943 $209 -97.600164055122519 $204 $310 forward 7 unknown #
edge $-1 $210 146.0588476478666 $309 157.60979033783991 $121 $311 forward 7 unknown #
coedge $-1 $122 $301 $307 $312 forward $208 $-1 #
loop $-1 $-1 $301 $196 #
vertex $-1 $205 $313 #
vertex $-1 $123 $314 #
straight-curve $-1 20.049888535307574 -17.098672893460893 17.681967440255775 -1 0 0 I I #
coedge $-1 $212 $212 $-1 $315 reversed $126 $-1 #
edge $-1 $316 0 $316 6.2831853071796004 $127 $317 forward 7 unknown #
vertex $-1 $130 $318 #
ellipse-curve $-1 74.07390603983589 -24.004216076758858 14.369293125257322 0.57357644374324357 0 0.81915203911291934 0.81915203911291934 0 -0.57357644374324357 1 I I #
coedge $-1 $216 $216 $-1 $319 reversed $133 $-1 #
edge $-1 $320 0 $320 6.2831853071796004 $134 $321 forward 7 unknown #
vertex $-1 $137 $322 #
ellipse-curve $-1 74.07390603983589 -19.860890166780081 14.369293125257322 0.57357644374324357 0 0.81915203911291934 0.81915203911291934 0 -0.57357644374324357 1 I I #
face $-1 $-1 $232 $29 $-1 $323 forward single #
loop $-1 $-1 $324 $138 #
plane-surface $-1 78.804895168919955 0 0 -1 0 0 0 0 1 forward_v I I I I #
coedge $-1 $325 $326 $327 $328 reversed $139 $-1 #
coedge $-1 $329 $141 $143 $230 forward $87 $-1 #
coedge $-1 $141 $329 $325 $330 forward $87 $-1 #
coedge $-1 $327 $144 $141 $227 forward $232 $-1 #
edge $-1 $234 -12.932342108341391 $331 -3.2645816517242388 $226 $332 forward 7 unknown #
coedge $-1 $333 $334 $142 $229 forward $221 $-1 #
edge $-1 $335 -104.22551268511943 $233 -97.600164055122519 $228 $336 forward 7 unknown #
edge $-1 $234 146.0588476478666 $335 157.60979033783991 $143 $337 forward 7 unknown #
coedge $-1 $144 $327 $333 $338 forward $232 $-1 #
loop $-1 $-1 $327 $220 #
vertex $-1 $229 $339 #
vertex $-1 $145 $340 #
straight-curve $-1 20.049888535307574 21.030803988374206 17.681967440255775 -1 0 0 I I #
coedge $-1 $236 $236 $-1 $341 reversed $148 $-1 #
edge $-1 $342 0 $342 6.2831853071796004 $149 $343 forward 7 unknown #
vertex $-1 $152 $344 #
ellipse-curve $-1 74.07390603983589 14.125260805076245 14.369293125257322 0.57357644374324357 0 0.81915203911291934 0.81915203911291934 0 -0.57357644374324357 1 I I #
coedge $-1 $240 $240 $-1 $345 reversed $155 $-1 #
edge $-1 $346 0 $346 6.2831853071796004 $156 $347 forward 7 unknown #
vertex $-1 $159 $348 #
ellipse-curve $-1 74.07390603983589 18.268586715055022 14.369293125257322 0.57357644374324357 0 0.81915203911291934 0.81915203911291934 0 -0.57357644374324357 1 I I #
face $-1 $-1 $175 $24 $-1 $349 reversed single #
loop $-1 $-1 $260 $160 #
plane-surface $-1 0 38.129476881835103 0 0 -1 0 0 0 -1 forward_v I I I I #
coedge $-1 $350 $258 $261 $351 forward $161 $-1 #
coedge $-1 $264 $163 $164 $252 reversed $101 $-1 #
coedge $-1 $258 $350 $163 $250 reversed $161 $-1 #
edge $-1 $265 -17.681967440255768 $352 17.681967440255768 $249 $353 forward 7 unknown #
coedge $-1 $165 $164 $350 $354 forward $65 $-1 #
edge $-1 $256 -78.804895168919955 $352 78.804895168919955 $248 $355 forward 7 unknown #
coedge $-1 $261 $260 $165 $254 reversed $245 $-1 #
edge $-1 $356 -78.804895168919955 $255 78.804895168919955 $253 $357 forward 7 unknown #
vertex $-1 $167 $358 #
vertex $-1 $267 $359 #
straight-curve $-1 78.804895168919955 0 -17.681967440255768 0 -1 0 I I #
coedge $-1 $247 $249 $168 $259 reversed $161 $-1 #
edge $-1 $262 -38.129476881835103 $265 38.129476881835103 $258 $360 forward 7 unknown #
coedge $-1 $253 $169 $174 $268 forward $245 $-1 #
coedge $-1 $169 $253 $247 $351 reversed $245 $-1 #
vertex $-1 $170 $361 #
straight-curve $-1 0 38.129476881835103 17.681967440255768 -1 0 0 I I #
coedge $-1 $171 $248 $173 $267 reversed $101 $-1 #
vertex $-1 $259 $362 #
straight-curve $-1 0 -38.129476881835103 17.681967440255768 1 0 0 I I #
edge $-1 $176 -17.681967440255768 $256 17.681967440255768 $173 $363 forward 7 unknown #
edge $-1 $177 -17.681967440255768 $255 17.681967440255768 $174 $364 forward 7 unknown #
point $-1 78.804895168919955 -38.129476881835103 17.681967440255768 #
point $-1 78.804895168919955 38.129476881835103 17.681967440255768 #
face $-1 $-1 $288 $25 $-1 $365 reversed single #
loop $-1 $-1 $366 $179 #
plane-surface $-1 -78.804895168919955 0 0 1 0 0 0 0 -1 forward_v I I I I #
coedge $-1 $275 $291 $183 $278 forward $180 $-1 #
coedge $-1 $190 $274 $182 $276 forward $180 $-1 #
edge $-1 $282 3.0763499654505875 $193 8.3458104608910499 $275 $367 forward 7 unknown #
coedge $-1 $184 $183 $366 $368 reversed $69 $-1 #
edge $-1 $369 -42.489145367792972 $282 -30.142354234460996 $274 $370 forward 7 unknown #
coedge $-1 $287 $286 $184 $280 forward $288 $-1 #
edge $-1 $281 30.142354234460996 $371 42.489145367792972 $279 $372 forward 7 unknown #
vertex $-1 $280 $373 #
vertex $-1 $278 $374 #
straight-curve $-1 -66.458104035587979 0 8.7874301786214062 0 -1 0 I I #
coedge $-1 $375 $376 $187 $285 forward $272 $-1 #
edge $-1 $292 -38.129476881835103 $289 38.129476881835103 $284 $377 forward 7 unknown #
coedge $-1 $279 $188 $192 $294 forward $288 $-1 #
coedge $-1 $188 $279 $375 $378 reversed $288 $-1 #
loop $-1 $-1 $279 $271 #
vertex $-1 $378 $379 #
straight-curve $-1 -36.315749801126984 38.129476881835103 14.056890674061869 1 0 0 I I #
coedge $-1 $274 $190 $376 $380 forward $180 $-1 #
vertex $-1 $380 $381 #
straight-curve $-1 -36.315749801126984 -38.129476881835103 14.056890674061869 -1 0 0 I I #
edge $-1 $194 -8.3458104608910499 $281 -3.0763499654505875 $286 $382 forward 7 unknown #
point $-1 -66.458104035587979 -38.129476881835103 14.056890674061869 #
point $-1 -66.458104035587979 38.129476881835103 14.056890674061869 #
plane-surface $-1 0 0 17.681967440255768 0 0 1 1 0 0 forward_v I I I I #
coedge $-1 $308 $307 $300 $383 forward $197 $-1 #
coedge $-1 $300 $199 $201 $304 reversed $117 $-1 #
coedge $-1 $199 $299 $298 $383 reversed $117 $-1 #
coedge $-1 $207 $202 $199 $302 forward $208 $-1 #
edge $-1 $305 49.29302837544428 $384 58.755006633612382 $301 $385 forward 7 unknown #
coedge $-1 $201 $200 $308 $386 reversed $73 $-1 #
edge $-1 $387 -157.60979033783991 $305 -146.0588476478666 $299 $388 forward 7 unknown #
vertex $-1 $203 $389 #
straight-curve $-1 69.342916910751839 -10.966276560884735 17.681967440255782 0 -1 0 I I #
coedge $-1 $298 $204 $207 $312 reversed $197 $-1 #
coedge $-1 $204 $298 $303 $386 forward $197 $-1 #
vertex $-1 $205 $390 #
straight-curve $-1 78.804895168919955 -17.098672893460893 115.28213149537828 0 0 1 I I #
straight-curve $-1 -50.301485970481295 -17.098672893460893 101.4578818513553 0.81915203911291934 0 -0.57357644374324357 I I #
edge $-1 $384 -26.766433350078046 $209 -17.098672893460893 $307 $391 forward 7 unknown #
point $-1 78.804895168919955 -17.098672893460893 17.681967440255768 #
point $-1 69.342916910751853 -17.098672893460893 17.681967440255761 #
edge $-1 $392 1 $392 0 $212 $-1 forward 7 unknown #
vertex $-1 $213 $393 #
ellipse-curve $-1 73.37739410110045 -24.004216076758858 13.374571007385567 0.57357644374324357 0 0.81915203911291934 0.81915203911291934 0 -0.57357644374324357 1 I I #
point $-1 74.893058078948798 -24.004216076758858 13.795716681514058 #
edge $-1 $394 1 $394 0 $216 $-1 forward 7 unknown #
vertex $-1 $217 $395 #
ellipse-curve $-1 73.37739410110045 -19.860890166780081 13.374571007385567 0.57357644374324357 0 0.81915203911291934 0.81915203911291934 0 -0.57357644374324357 1 I I #
point $-1 74.893058078948798 -19.860890166780081 13.795716681514058 #
plane-surface $-1 0 0 17.681967440255768 0 0 1 1 0 0 forward_v I I I I #
coedge $-1 $334 $333 $326 $396 forward $221 $-1 #
coedge $-1 $326 $223 $225 $330 reversed $139 $-1 #
coedge $-1 $223 $325 $324 $396 reversed $139 $-1 #
coedge $-1 $231 $226 $223 $328 forward $232 $-1 #
edge $-1 $331 49.29302837544428 $397 58.755006633612382 $327 $398 forward 7 unknown #
coedge $-1 $225 $224 $334 $399 reversed $87 $-1 #
edge $-1 $400 -157.60979033783991 $331 -146.0588476478666 $325 $401 forward 7 unknown #
vertex $-1 $227 $402 #
straight-curve $-1 69.342916910751839 8.098461880032815 17.681967440255782 0 -1 0 I I #
coedge $-1 $324 $228 $231 $338 reversed $221 $-1 #
coedge $-1 $228 $324 $329 $399 forward $221 $-1 #
vertex $-1 $229 $403 #
straight-curve $-1 78.804895168919955 21.030803988374206 115.28213149537828 0 0 1 I I #
straight-curve $-1 -50.301485970481295 21.030803988374206 101.4578818513553 0.81915203911291934 0 -0.57357644374324357 I I #
edge $-1 $397 11.363043531757054 $233 21.030803988374206 $333 $404 forward 7 unknown #
point $-1 78.804895168919955 21.030803988374206 17.681967440255768 #
point $-1 69.342916910751853 21.030803988374206 17.681967440255761 #
edge $-1 $405 1 $405 0 $236 $-1 forward 7 unknown #
vertex $-1 $237 $406 #
ellipse-curve $-1 73.37739410110045 14.125260805076245 13.374571007385567 0.57357644374324357 0 0.81915203911291934 0.81915203911291934 0 -0.57357644374324357 1 I I #
point $-1 74.893058078948798 14.125260805076245 13.795716681514058 #
edge $-1 $407 1 $407 0 $240 $-1 forward 7 unknown #
vertex $-1 $241 $408 #
ellipse-curve $-1 73.37739410110045 18.268586715055022 13.374571007385567 0.57357644374324357 0 0.81915203911291934 0.81915203911291934 0 -0.57357644374324357 1 I I #
point $-1 74.893058078948798 18.268586715055022 13.795716681514058 #
plane-surface $-1 78.804895168919955 0 0 -1 0 0 0 0 1 forward_v I I I I #
coedge $-1 $249 $247 $251 $354 reversed $161 $-1 #
edge $-1 $262 -17.681967440255768 $356 17.681967440255768 $261 $409 forward 7 unknown #
vertex $-1 $354 $410 #
straight-curve $-1 -78.804895168919955 -38.129476881835103 0 0 0 -1 I I #
edge $-1 $352 -38.129476881835103 $356 38.129476881835103 $350 $411 forward 7 unknown #
straight-curve $-1 0 -38.129476881835103 -17.681967440255768 -1 0 0 I I #
vertex $-1 $254 $412 #
straight-curve $-1 0 38.129476881835103 -17.681967440255768 1 0 0 I I #
point $-1 78.804895168919955 38.129476881835103 -17.681967440255768 #
point $-1 78.804895168919955 -38.129476881835103 -17.681967440255768 #
straight-curve $-1 -78.804895168919955 0 17.681967440255768 0 -1 0 I I #
point $-1 -78.804895168919955 38.129476881835103 17.681967440255768 #
point $-1 -78.804895168919955 -38.129476881835103 17.681967440255768 #
straight-curve $-1 78.804895168919955 -38.129476881835103 0 0 0 -1 I I #
straight-curve $-1 78.804895168919955 38.129476881835103 0 0 0 -1 I I #
plane-surface $-1 0 38.129476881835103 0 0 -1 0 0 0 -1 forward_v I I I I #
coedge $-1 $376 $375 $277 $368 forward $272 $-1 #
straight-curve $-1 -66.458104035587979 -38.129476881835103 5.7110802131708187 0 0 1 I I #
edge $-1 $371 -38.129476881835103 $369 38.129476881835103 $366 $413 forward 7 unknown #
vertex $-1 $278 $414 #
straight-curve $-1 -36.315749801126984 -38.129476881835103 8.7874301786214062 1 0 0 I I #
vertex $-1 $280 $415 #
straight-curve $-1 -36.315749801126984 38.129476881835103 8.7874301786214062 -1 0 0 I I #
point $-1 -66.458104035587979 38.129476881835103 8.7874301786214062 #
point $-1 -66.458104035587979 -38.129476881835103 8.7874301786214062 #
coedge $-1 $366 $284 $287 $378 forward $272 $-1 #
coedge $-1 $284 $366 $291 $380 reversed $272 $-1 #
straight-curve $-1 -78.804895168919955 0 14.056890674061869 0 1 0 I I #
edge $-1 $289 -14.056890674061869 $371 -8.7874301786214062 $287 $416 forward 7 unknown #
point $-1 -78.804895168919955 38.129476881835103 14.056890674061869 #
edge $-1 $292 -14.056890674061869 $369 -8.7874301786214062 $376 $417 forward 7 unknown #
point $-1 -78.804895168919955 -38.129476881835103 14.056890674061869 #
straight-curve $-1 -66.458104035587979 38.129476881835103 5.7110802131708187 0 0 -1 I I #
edge $-1 $384 97.600164055122519 $387 104.22551268511943 $298 $418 forward 7 unknown #
vertex $-1 $312 $419 #
straight-curve $-1 20.049888535307574 -26.766433350078046 17.681967440255775 1 0 0 I I #
edge $-1 $387 -15.800156789193311 $309 -6.1323963325761586 $308 $420 forward 7 unknown #
vertex $-1 $386 $421 #
straight-curve $-1 -50.301485970481295 -26.766433350078046 101.4578818513553 -0.81915203911291934 0 0.57357644374324357 I I #
point $-1 69.342916910751853 -26.766433350078046 17.681967440255761 #
point $-1 78.80489516891997 -17.098672893460893 11.056618810258854 #
straight-curve $-1 78.804895168919955 0 17.681967440255768 0 1 0 I I #
vertex $-1 $315 $422 #
point $-1 74.196546140213371 -24.004216076758858 12.800994563642325 #
vertex $-1 $319 $423 #
point $-1 74.196546140213371 -19.860890166780081 12.800994563642325 #
edge $-1 $397 97.600164055122519 $400 104.22551268511943 $324 $424 forward 7 unknown #
vertex $-1 $338 $425 #
straight-curve $-1 20.049888535307574 11.363043531757054 17.681967440255775 1 0 0 I I #
edge $-1 $400 3.2645816517242388 $335 12.932342108341391 $334 $426 forward 7 unknown #
vertex $-1 $399 $427 #
straight-curve $-1 -50.301485970481295 11.363043531757054 101.4578818513553 -0.81915203911291934 0 0.57357644374324357 I I #
point $-1 69.342916910751853 11.363043531757054 17.681967440255761 #
point $-1 78.80489516891997 21.030803988374206 11.056618810258854 #
straight-curve $-1 78.804895168919955 0 17.681967440255768 0 1 0 I I #
vertex $-1 $341 $428 #
point $-1 74.196546140213371 14.125260805076245 12.800994563642325 #
vertex $-1 $345 $429 #
point $-1 74.196546140213371 18.268586715055022 12.800994563642325 #
straight-curve $-1 -78.804895168919955 38.129476881835103 0 0 0 -1 I I #
point $-1 -78.804895168919955 -38.129476881835103 -17.681967440255768 #
straight-curve $-1 -78.804895168919955 0 -17.681967440255768 0 1 0 I I #
point $-1 -78.804895168919955 38.129476881835103 -17.681967440255768 #
straight-curve $-1 -78.804895168919955 0 8.7874301786214062 0 -1 0 I I #
point $-1 -78.804895168919955 -38.129476881835103 8.7874301786214062 #
point $-1 -78.804895168919955 38.129476881835103 8.7874301786214062 #
straight-curve $-1 -78.804895168919955 38.129476881835103 0 0 0 -1 I I #
straight-curve $-1 -78.804895168919955 -38.129476881835103 0 0 0 -1 I I #
straight-curve $-1 78.804895168919955 -26.766433350078046 115.28213149537828 0 0 -1 I I #
point $-1 78.804895168919955 -26.766433350078046 17.681967440255768 #
straight-curve $-1 78.80489516891997 -10.966276560884735 11.056618810258833 0 1 0 I I #
point $-1 78.80489516891997 -26.766433350078046 11.056618810258854 #
point $-1 72.803817657357214 -24.004216076758858 12.555418968272649 #
point $-1 72.803817657357214 -19.860890166780081 12.555418968272649 #
straight-curve $-1 78.804895168919955 11.363043531757054 115.28213149537828 0 0 -1 I I #
point $-1 78.804895168919955 11.363043531757054 17.681967440255768 #
straight-curve $-1 78.80489516891997 8.098461880032815 11.056618810258833 0 1 0 I I #
point $-1 78.80489516891997 11.363043531757054 11.056618810258854 #
point $-1 72.803817657357214 14.125260805076245 12.555418968272649 #
point $-1 72.803817657357214 18.268586715055022 12.555418968272649 #
End-of-ACIS-data 