500 0 14 0           
7 Unknown 11 ACIS 5.0 NT 24 Fri Mar 26 18:54:48 1999 
-1 9.9999999999999995e-007 1e-010 
body $-1 $14 $-1 $15 #
body $-1 $16 $-1 $17 #
body $-1 $18 $-1 $19 #
body $-1 $20 $-1 $21 #
body $-1 $22 $-1 $23 #
body $-1 $24 $-1 $25 #
body $-1 $26 $-1 $27 #
body $-1 $28 $-1 $29 #
body $-1 $30 $-1 $31 #
body $-1 $32 $-1 $33 #
body $-1 $34 $-1 $35 #
body $-1 $36 $-1 $37 #
body $-1 $38 $-1 $39 #
body $-1 $40 $-1 $41 #
lump $-1 $-1 $42 $0 #
transform $-1 1 0 0 0 1 0 0 0 1 46.961882381664481 19.308876625476081 5.962139379057569 1 rotate no_reflect no_shear #
lump $-1 $-1 $43 $1 #
transform $-1 1 0 0 0 1 0 0 0 1 46.961882381664481 19.308876625476081 5.962139379057569 1 rotate no_reflect no_shear #
lump $-1 $-1 $44 $2 #
transform $-1 1 0 0 0 1 0 0 0 1 46.961882381664481 19.308876625476081 5.962139379057569 1 rotate no_reflect no_shear #
lump $-1 $-1 $45 $3 #
transform $-1 1 0 0 0 1 0 0 0 1 46.961882381664481 19.308876625476081 5.962139379057569 1 rotate no_reflect no_shear #
lump $-1 $-1 $46 $4 #
transform $-1 1 0 0 0 1 0 0 0 1 46.961882381664481 19.308876625476081 5.962139379057569 1 rotate no_reflect no_shear #
lump $-1 $-1 $47 $5 #
transform $-1 1 0 0 0 1 0 0 0 1 46.961882381664481 19.308876625476081 5.962139379057569 1 rotate no_reflect no_shear #
lump $-1 $-1 $48 $6 #
transform $-1 1 0 0 0 1 0 0 0 1 46.961882381664481 19.308876625476081 5.962139379057569 1 rotate no_reflect no_shear #
lump $-1 $-1 $49 $7 #
transform $-1 1 0 0 0 1 0 0 0 1 46.961882381664481 19.308876625476081 5.962139379057569 1 rotate no_reflect no_shear #
lump $-1 $-1 $50 $8 #
transform $-1 1 0 0 0 1 0 0 0 1 46.961882381664481 19.308876625476081 5.962139379057569 1 rotate no_reflect no_shear #
lump $-1 $-1 $51 $9 #
transform $-1 1 0 0 0 1 0 0 0 1 46.961882381664481 19.308876625476081 5.962139379057569 1 rotate no_reflect no_shear #
lump $-1 $-1 $52 $10 #
transform $-1 1 0 0 0 1 0 0 0 1 46.961882381664481 19.308876625476081 5.962139379057569 1 rotate no_reflect no_shear #
lump $-1 $-1 $53 $11 #
transform $-1 1 0 0 0 1 0 0 0 1 46.961882381664481 19.308876625476081 5.962139379057569 1 rotate no_reflect no_shear #
lump $-1 $-1 $54 $12 #
transform $-1 1 0 0 0 1 0 0 0 1 46.961882381664481 19.308876625476081 5.962139379057569 1 rotate no_reflect no_shear #
lump $-1 $-1 $55 $13 #
transform $-1 1 0 0 0 1 0 0 0 1 46.961882381664481 19.308876625476081 5.962139379057569 1 rotate no_reflect no_shear #
shell $-1 $-1 $-1 $56 $-1 $14 #
shell $-1 $-1 $-1 $57 $-1 $16 #
shell $-1 $-1 $-1 $58 $-1 $18 #
shell $-1 $-1 $-1 $59 $-1 $20 #
shell $-1 $-1 $-1 $60 $-1 $22 #
shell $-1 $-1 $-1 $61 $-1 $24 #
shell $-1 $-1 $-1 $62 $-1 $26 #
shell $-1 $-1 $-1 $63 $-1 $28 #
shell $-1 $-1 $-1 $64 $-1 $30 #
shell $-1 $-1 $-1 $65 $-1 $32 #
shell $-1 $-1 $-1 $66 $-1 $34 #
shell $-1 $-1 $-1 $67 $-1 $36 #
shell $-1 $-1 $-1 $68 $-1 $38 #
shell $-1 $-1 $-1 $69 $-1 $40 #
face $-1 $70 $71 $42 $-1 $72 forward single #
face $-1 $73 $74 $43 $-1 $75 reversed single #
face $-1 $76 $77 $44 $-1 $78 reversed single #
face $-1 $79 $80 $45 $-1 $81 reversed single #
face $-1 $82 $83 $46 $-1 $84 forward single #
face $-1 $85 $86 $47 $-1 $87 forward single #
face $-1 $88 $89 $48 $-1 $90 reversed single #
face $-1 $91 $92 $49 $-1 $93 forward single #
face $-1 $94 $95 $50 $-1 $96 forward single #
face $-1 $97 $98 $51 $-1 $99 reversed single #
face $-1 $100 $101 $52 $-1 $102 forward single #
face $-1 $103 $104 $53 $-1 $105 forward single #
face $-1 $106 $107 $54 $-1 $108 reversed single #
face $-1 $109 $110 $55 $-1 $111 forward single #
face $-1 $112 $113 $42 $-1 $114 reversed single #
loop $-1 $-1 $115 $56 #
plane-surface $-1 0 0 5.962139379057569 0 0 1 1 0 0 forward_v I I I I #
face $-1 $116 $117 $43 $-1 $118 reversed single #
loop $-1 $-1 $119 $57 #
plane-surface $-1 0 -16.43354497836674 2.962139379057569 0 0 1 1 0 0 forward_v I I I I #
face $-1 $120 $121 $44 $-1 $122 reversed single #
loop $-1 $-1 $123 $58 #
plane-surface $-1 0 13.558213331257399 4.462139379057569 0 1 0 0 0 1 forward_v I I I I #
face $-1 $124 $125 $45 $-1 $126 reversed single #
loop $-1 $-1 $127 $59 #
plane-surface $-1 67.740802309807464 -7.8658695826032146 133.25151593993522 0 -1 0 -0.80901700255871778 0 -0.5877852410284794 forward_v I I I I #
face $-1 $128 $129 $46 $-1 $130 forward single #
loop $-1 $131 $132 $60 #
cone-surface $-1 44.845497385170134 -11.931829403070489 3.5029927910147114 -0.80901700255871778 0 -0.5877852410284794 0.2938926205142397 0 -0.40450850127935889 1 I I 0 1 0.5 forward I I I I #
face $-1 $133 $134 $47 $-1 $135 forward single #
loop $-1 $136 $137 $61 #
cone-surface $-1 44.845497385170134 -9.4922535107901247 3.5029927910147114 -0.80901700255871778 0 -0.5877852410284794 0.2938926205142397 0 -0.40450850127935889 1 I I 0 1 0.5 forward I I I I #
face $-1 $138 $139 $48 $-1 $140 reversed single #
loop $-1 $-1 $141 $62 #
plane-surface $-1 67.740802309807464 2.8461718743270898 133.25151593993522 0 -1 0 -0.80901700255871778 0 -0.5877852410284794 forward_v I I I I #
face $-1 $142 $143 $49 $-1 $144 forward single #
loop $-1 $145 $146 $63 #
cone-surface $-1 44.845497385170134 -1.2197879461401868 3.5029927910147114 -0.80901700255871778 0 -0.5877852410284794 0.2938926205142397 0 -0.40450850127935889 1 I I 0 1 0.5 forward I I I I #
face $-1 $147 $148 $50 $-1 $149 forward single #
loop $-1 $150 $151 $64 #
cone-surface $-1 44.845497385170134 1.2197879461401797 3.5029927910147114 -0.80901700255871778 0 -0.5877852410284794 0.2938926205142397 0 -0.40450850127935889 1 I I 0 1 0.5 forward I I I I #
face $-1 $152 $153 $51 $-1 $154 reversed single #
loop $-1 $-1 $155 $65 #
plane-surface $-1 -8.2451203280510441 10.712041456930301 78.044513230219707 0.80901700255871778 0 0.5877852410284794 0.5877852410284794 0 -0.80901700255871778 forward_v I I I I #
face $-1 $156 $157 $52 $-1 $158 forward single #
loop $-1 $159 $160 $66 #
cone-surface $-1 44.845497385170134 9.4922535107901176 3.5029927910147114 -0.80901700255871778 0 -0.5877852410284794 0.2938926205142397 0 -0.40450850127935889 1 I I 0 1 0.5 forward I I I I #
face $-1 $161 $162 $53 $-1 $163 forward single #
loop $-1 $164 $165 $67 #
cone-surface $-1 44.845497385170134 11.931829403070484 3.5029927910147114 -0.80901700255871778 0 -0.5877852410284794 0.2938926205142397 0 -0.40450850127935889 1 I I 0 1 0.5 forward I I I I #
face $-1 $166 $167 $54 $-1 $168 reversed single #
loop $-1 $-1 $169 $68 #
plane-surface $-1 -126.61375301736018 -7.8621681433326032 50.55939581180531 0 1 0 -0.84804810408105047 0 0.52991925155115449 forward_v I I I I #
face $-1 $170 $171 $55 $-1 $172 forward single #
loop $-1 $173 $174 $69 #
cone-surface $-1 -43.754414462293099 -4.8303074361762892 2.3807854070672971 0.84804810408105047 0 -0.52991925155115449 0.52991925155115449 0 0.84804810408105047 1 I I 0 1 1 forward I I I I #
face $-1 $175 $176 $42 $-1 $177 reversed single #
loop $-1 $-1 $178 $70 #
plane-surface $-1 0 0 -5.962139379057569 0 0 1 1 0 0 forward_v I I I I #
coedge $-1 $179 $180 $181 $182 forward $71 $-1 #
face $-1 $183 $184 $43 $-1 $185 reversed single #
loop $-1 $-1 $186 $73 #
plane-surface $-1 0 -13.558213331257399 4.462139379057569 0 -1 0 0 0 -1 forward_v I I I I #
coedge $-1 $187 $188 $189 $190 reversed $74 $-1 #
face $-1 $191 $192 $44 $-1 $193 forward single #
loop $-1 $-1 $194 $76 #
plane-surface $-1 0 16.43354497836674 2.962139379057569 0 0 1 1 0 0 forward_v I I I I #
coedge $-1 $195 $196 $197 $198 reversed $77 $-1 #
face $-1 $199 $200 $45 $-1 $201 forward single #
loop $-1 $-1 $202 $79 #
plane-surface $-1 -8.2451203280510441 -10.712041456930308 78.044513230219707 0.80901700255871778 0 0.5877852410284794 0.5877852410284794 0 -0.80901700255871778 forward_v I I I I #
coedge $-1 $203 $204 $205 $206 reversed $80 $-1 #
face $-1 $-1 $207 $46 $-1 $208 forward single #
loop $-1 $209 $210 $82 #
cone-surface $-1 43.94490519835621 -11.931829403070489 2.8486742860629368 -0.80901700255871778 0 -0.5877852410284794 0.14694631025711985 0 -0.20225425063967944 1 I I -0.70710678118654746 0.70710678118654746 0.25 forward I I I I #
loop $-1 $-1 $211 $60 #
coedge $-1 $132 $132 $212 $213 reversed $83 $-1 #
face $-1 $-1 $214 $47 $-1 $215 forward single #
loop $-1 $216 $217 $85 #
cone-surface $-1 43.94490519835621 -9.4922535107901247 2.8486742860629368 -0.80901700255871778 0 -0.5877852410284794 0.14694631025711985 0 -0.20225425063967944 1 I I -0.70710678118654746 0.70710678118654746 0.25 forward I I I I #
loop $-1 $-1 $218 $61 #
coedge $-1 $137 $137 $219 $220 reversed $86 $-1 #
face $-1 $221 $222 $48 $-1 $223 reversed single #
loop $-1 $-1 $224 $88 #
plane-surface $-1 -8.2451203280510441 -3.5527136788005009e-015 78.044513230219707 0.80901700255871778 0 0.5877852410284794 0.5877852410284794 0 -0.80901700255871778 forward_v I I I I #
coedge $-1 $225 $226 $227 $228 reversed $89 $-1 #
face $-1 $-1 $229 $49 $-1 $230 forward single #
loop $-1 $231 $232 $91 #
cone-surface $-1 43.94490519835621 -1.2197879461401868 2.8486742860629368 -0.80901700255871778 0 -0.5877852410284794 0.14694631025711985 0 -0.20225425063967944 1 I I -0.70710678118654746 0.70710678118654746 0.25 forward I I I I #
loop $-1 $-1 $233 $63 #
coedge $-1 $146 $146 $234 $235 reversed $92 $-1 #
face $-1 $-1 $236 $50 $-1 $237 forward single #
loop $-1 $238 $239 $94 #
cone-surface $-1 43.94490519835621 1.2197879461401797 2.8486742860629368 -0.80901700255871778 0 -0.5877852410284794 0.14694631025711985 0 -0.20225425063967944 1 I I -0.70710678118654746 0.70710678118654746 0.25 forward I I I I #
loop $-1 $-1 $240 $64 #
coedge $-1 $151 $151 $241 $242 reversed $95 $-1 #
face $-1 $243 $244 $51 $-1 $245 reversed single #
loop $-1 $-1 $246 $97 #
plane-surface $-1 67.740802309807464 7.8658695826032075 133.25151593993522 0 1 0 0.80901700255871778 0 0.5877852410284794 forward_v I I I I #
coedge $-1 $247 $248 $249 $250 reversed $98 $-1 #
face $-1 $-1 $251 $52 $-1 $252 forward single #
loop $-1 $253 $254 $100 #
cone-surface $-1 43.94490519835621 9.4922535107901176 2.8486742860629368 -0.80901700255871778 0 -0.5877852410284794 0.14694631025711985 0 -0.20225425063967944 1 I I -0.70710678118654746 0.70710678118654746 0.25 forward I I I I #
loop $-1 $-1 $255 $66 #
coedge $-1 $160 $160 $256 $257 reversed $101 $-1 #
face $-1 $-1 $258 $53 $-1 $259 forward single #
loop $-1 $260 $261 $103 #
cone-surface $-1 43.94490519835621 11.931829403070484 2.8486742860629368 -0.80901700255871778 0 -0.5877852410284794 0.14694631025711985 0 -0.20225425063967944 1 I I -0.70710678118654746 0.70710678118654746 0.25 forward I I I I #
loop $-1 $-1 $262 $67 #
coedge $-1 $165 $165 $263 $264 reversed $104 $-1 #
face $-1 $265 $266 $54 $-1 $267 reversed single #
loop $-1 $-1 $268 $106 #
plane-surface $-1 -46.961882381664481 -4.8303074361762892 0.78738468555533103 -0.84804810408105047 0 0.52991925155115449 0.52991925155115449 0 0.84804810408105047 forward_v I I I I #
coedge $-1 $269 $270 $271 $272 reversed $107 $-1 #
face $-1 $-1 $273 $55 $-1 $274 forward single #
loop $-1 $275 $276 $109 #
cone-surface $-1 -41.739695242889752 -4.8303074361762892 1.1218491560525683 0.84804810408105047 0 -0.52991925155115449 0.26495962577557725 0 0.42402405204052523 1 I I -0.70710678118654746 0.70710678118654746 0.5 forward I I I I #
loop $-1 $-1 $277 $69 #
coedge $-1 $174 $174 $278 $279 reversed $110 $-1 #
face $-1 $280 $281 $42 $-1 $282 reversed single #
loop $-1 $-1 $283 $112 #
plane-surface $-1 0 -19.308876625476081 0 0 1 0 0 0 1 forward_v I I I I #
coedge $-1 $284 $285 $286 $287 forward $113 $-1 #
coedge $-1 $288 $115 $289 $290 forward $71 $-1 #
coedge $-1 $115 $288 $291 $292 forward $71 $-1 #
coedge $-1 $293 $294 $115 $182 reversed $295 $-1 #
edge $-1 $296 -19.308876625476081 $297 19.308876625476081 $181 $298 forward 7 unknown #
face $-1 $299 $300 $43 $-1 $301 reversed single #
loop $-1 $-1 $302 $116 #
plane-surface $-1 -46.961882381664481 0 0 1 0 0 0 0 -1 forward_v I I I I #
coedge $-1 $303 $304 $188 $305 reversed $117 $-1 #
coedge $-1 $306 $119 $307 $308 reversed $74 $-1 #
coedge $-1 $119 $306 $186 $305 forward $74 $-1 #
coedge $-1 $309 $310 $119 $190 forward $311 $-1 #
edge $-1 $312 -11.092104136292711 $313 -5.3414408420740287 $189 $314 forward 7 unknown #
face $-1 $315 $316 $44 $-1 $317 reversed single #
loop $-1 $-1 $197 $120 #
plane-surface $-1 0 0 5.962139379057569 0 0 1 1 0 0 forward_v I I I I #
coedge $-1 $318 $319 $320 $321 reversed $121 $-1 #
coedge $-1 $322 $123 $323 $324 reversed $77 $-1 #
coedge $-1 $123 $322 $325 $326 reversed $77 $-1 #
coedge $-1 $327 $328 $123 $198 forward $192 $-1 #
edge $-1 $329 -46.961882381664481 $330 46.961882381664481 $197 $331 forward 7 unknown #
face $-1 $332 $333 $45 $-1 $334 forward single #
loop $-1 $-1 $205 $124 #
plane-surface $-1 0 0 5.962139379057569 0 0 1 1 0 0 forward_v I I I I #
coedge $-1 $335 $336 $337 $338 reversed $125 $-1 #
coedge $-1 $204 $127 $339 $340 reversed $80 $-1 #
coedge $-1 $127 $203 $335 $341 reversed $80 $-1 #
coedge $-1 $337 $342 $127 $206 forward $200 $-1 #
edge $-1 $343 -13.091481226760749 $344 -10.255387106120509 $205 $345 forward 7 unknown #
loop $-1 $-1 $212 $128 #
plane-surface $-1 -8.2451203280510441 -10.712041456930308 78.044513230219707 0.80901700255871778 0 0.5877852410284794 0.5877852410284794 0 -0.80901700255871778 forward_v I I I I #
loop $-1 $-1 $346 $82 #
coedge $-1 $210 $210 $211 $347 reversed $129 $-1 #
coedge $-1 $211 $211 $210 $347 forward $131 $-1 #
coedge $-1 $212 $212 $132 $213 forward $207 $-1 #
edge $-1 $348 0 $348 6.2831853071796004 $212 $349 forward 7 unknown #
loop $-1 $-1 $219 $133 #
plane-surface $-1 -8.2451203280510441 -10.712041456930308 78.044513230219707 0.80901700255871778 0 0.5877852410284794 0.5877852410284794 0 -0.80901700255871778 forward_v I I I I #
loop $-1 $-1 $350 $85 #
coedge $-1 $217 $217 $218 $351 reversed $134 $-1 #
coedge $-1 $218 $218 $217 $351 forward $136 $-1 #
coedge $-1 $219 $219 $137 $220 forward $214 $-1 #
edge $-1 $352 0 $352 6.2831853071796004 $219 $353 forward 7 unknown #
face $-1 $354 $355 $48 $-1 $356 reversed single #
loop $-1 $-1 $357 $138 #
plane-surface $-1 67.740802309807464 -2.846171874327097 133.25151593993522 0 1 0 0.80901700255871778 0 0.5877852410284794 forward_v I I I I #
coedge $-1 $358 $359 $360 $361 reversed $139 $-1 #
coedge $-1 $226 $141 $362 $363 reversed $89 $-1 #
coedge $-1 $141 $225 $358 $364 reversed $89 $-1 #
coedge $-1 $360 $365 $141 $228 forward $366 $-1 #
edge $-1 $367 -13.091481226760749 $368 -10.255387106120509 $227 $369 forward 7 unknown #
loop $-1 $-1 $234 $142 #
plane-surface $-1 -8.2451203280510441 -3.5527136788005009e-015 78.044513230219707 0.80901700255871778 0 0.5877852410284794 0.5877852410284794 0 -0.80901700255871778 forward_v I I I I #
loop $-1 $-1 $370 $91 #
coedge $-1 $232 $232 $233 $371 reversed $143 $-1 #
coedge $-1 $233 $233 $232 $371 forward $145 $-1 #
coedge $-1 $234 $234 $146 $235 forward $229 $-1 #
edge $-1 $372 0 $372 6.2831853071796004 $234 $373 forward 7 unknown #
loop $-1 $-1 $241 $147 #
plane-surface $-1 -8.2451203280510441 -3.5527136788005009e-015 78.044513230219707 0.80901700255871778 0 0.5877852410284794 0.5877852410284794 0 -0.80901700255871778 forward_v I I I I #
loop $-1 $-1 $374 $94 #
coedge $-1 $239 $239 $240 $375 reversed $148 $-1 #
coedge $-1 $240 $240 $239 $375 forward $150 $-1 #
coedge $-1 $241 $241 $151 $242 forward $236 $-1 #
edge $-1 $376 0 $376 6.2831853071796004 $241 $377 forward 7 unknown #
face $-1 $378 $379 $51 $-1 $380 forward single #
loop $-1 $-1 $381 $152 #
plane-surface $-1 46.961882381664481 0 0 -1 0 0 0 0 1 forward_v I I I I #
coedge $-1 $382 $383 $384 $385 reversed $153 $-1 #
coedge $-1 $386 $155 $387 $388 reversed $98 $-1 #
coedge $-1 $155 $386 $382 $389 forward $98 $-1 #
coedge $-1 $384 $390 $155 $250 forward $379 $-1 #
edge $-1 $391 -8.2021926027922447 $392 -2.509848854138057 $249 $393 forward 7 unknown #
loop $-1 $-1 $256 $156 #
plane-surface $-1 -8.2451203280510441 10.712041456930301 78.044513230219707 0.80901700255871778 0 0.5877852410284794 0.5877852410284794 0 -0.80901700255871778 forward_v I I I I #
loop $-1 $-1 $394 $100 #
coedge $-1 $254 $254 $255 $395 reversed $157 $-1 #
coedge $-1 $255 $255 $254 $395 forward $159 $-1 #
coedge $-1 $256 $256 $160 $257 forward $251 $-1 #
edge $-1 $396 0 $396 6.2831853071796004 $256 $397 forward 7 unknown #
loop $-1 $-1 $263 $161 #
plane-surface $-1 -8.2451203280510441 10.712041456930301 78.044513230219707 0.80901700255871778 0 0.5877852410284794 0.5877852410284794 0 -0.80901700255871778 forward_v I I I I #
loop $-1 $-1 $398 $103 #
coedge $-1 $261 $261 $262 $399 reversed $162 $-1 #
coedge $-1 $262 $262 $261 $399 forward $164 $-1 #
coedge $-1 $263 $263 $165 $264 forward $258 $-1 #
edge $-1 $400 0 $400 6.2831853071796004 $263 $401 forward 7 unknown #
face $-1 $402 $403 $54 $-1 $404 reversed single #
loop $-1 $-1 $405 $166 #
plane-surface $-1 -126.61375301736018 -1.7984467290199753 50.55939581180531 0 -1 0 0.84804810408105047 0 -0.52991925155115449 forward_v I I I I #
coedge $-1 $406 $407 $408 $409 reversed $167 $-1 #
coedge $-1 $270 $169 $410 $411 reversed $107 $-1 #
coedge $-1 $169 $269 $406 $412 reversed $107 $-1 #
coedge $-1 $408 $413 $169 $272 forward $414 $-1 #
edge $-1 $415 16.34499412701561 $416 19.57853963103274 $271 $417 forward 7 unknown #
loop $-1 $-1 $278 $170 #
plane-surface $-1 -46.961882381664481 -4.8303074361762892 0.78738468555533103 -0.84804810408105047 0 0.52991925155115449 0.52991925155115449 0 0.84804810408105047 forward_v I I I I #
loop $-1 $-1 $418 $109 #
coedge $-1 $276 $276 $277 $419 reversed $171 $-1 #
coedge $-1 $277 $277 $276 $419 forward $173 $-1 #
coedge $-1 $278 $278 $174 $279 forward $273 $-1 #
edge $-1 $420 0 $420 6.2831853071796004 $278 $421 forward 7 unknown #
face $-1 $422 $423 $42 $-1 $424 reversed single #
loop $-1 $-1 $425 $175 #
plane-surface $-1 -46.961882381664481 0 0 1 0 0 0 0 -1 forward_v I I I I #
coedge $-1 $426 $291 $427 $428 forward $176 $-1 #
coedge $-1 $429 $178 $426 $430 forward $113 $-1 #
coedge $-1 $178 $429 $431 $432 forward $113 $-1 #
coedge $-1 $294 $293 $178 $287 reversed $295 $-1 #
edge $-1 $433 -19.308876625476081 $434 19.308876625476081 $286 $435 forward 7 unknown #
coedge $-1 $180 $179 $436 $437 forward $71 $-1 #
coedge $-1 $438 $439 $179 $290 reversed $423 $-1 #
edge $-1 $297 -46.961882381664481 $440 46.961882381664481 $289 $441 forward 7 unknown #
coedge $-1 $283 $442 $180 $292 reversed $176 $-1 #
edge $-1 $443 -46.961882381664481 $296 46.961882381664481 $291 $444 forward 7 unknown #
coedge $-1 $286 $181 $442 $445 forward $295 $-1 #
coedge $-1 $181 $286 $438 $446 reversed $295 $-1 #
loop $-1 $-1 $293 $422 #
vertex $-1 $182 $447 #
vertex $-1 $182 $448 #
straight-curve $-1 46.961882381664481 0 5.962139379057569 0 1 0 I I #
face $-1 $449 $450 $43 $-1 $451 forward single #
loop $-1 $-1 $307 $183 #
plane-surface $-1 0 -19.308876625476081 0 0 1 0 0 0 1 forward_v I I I I #
coedge $-1 $452 $453 $303 $454 forward $184 $-1 #
coedge $-1 $455 $186 $302 $454 reversed $117 $-1 #
coedge $-1 $186 $455 $309 $456 reversed $117 $-1 #
edge $-1 $457 -46.961882381664481 $313 46.961882381664481 $186 $458 forward 7 unknown #
coedge $-1 $188 $187 $452 $459 reversed $74 $-1 #
coedge $-1 $460 $461 $187 $308 forward $300 $-1 #
edge $-1 $462 -46.961882381664481 $312 46.961882381664481 $307 $463 forward 7 unknown #
coedge $-1 $464 $189 $304 $456 forward $311 $-1 #
coedge $-1 $189 $464 $460 $465 forward $311 $-1 #
loop $-1 $-1 $309 $449 #
vertex $-1 $308 $466 #
vertex $-1 $190 $467 #
straight-curve $-1 46.961882381664481 -8.21677248918337 2.962139379057569 0 1 0 I I #
face $-1 $468 $469 $44 $-1 $470 reversed single #
loop $-1 $-1 $325 $191 #
plane-surface $-1 46.961882381664481 0 0 -1 0 0 0 0 1 forward_v I I I I #
coedge $-1 $471 $194 $322 $472 forward $121 $-1 #
coedge $-1 $194 $471 $473 $474 reversed $121 $-1 #
coedge $-1 $475 $325 $194 $321 forward $316 $-1 #
edge $-1 $476 5.3414408420740287 $477 11.092104136292711 $320 $478 forward 7 unknown #
coedge $-1 $196 $195 $318 $472 reversed $77 $-1 #
coedge $-1 $479 $480 $195 $324 forward $469 $-1 #
edge $-1 $481 0.73106968952878448 $329 3.7310696895287845 $323 $482 forward 7 unknown #
coedge $-1 $320 $483 $196 $326 forward $316 $-1 #
edge $-1 $330 -3.7310696895287845 $476 -0.73106968952878448 $325 $484 forward 7 unknown #
coedge $-1 $485 $197 $483 $486 forward $192 $-1 #
coedge $-1 $197 $485 $479 $487 forward $192 $-1 #
vertex $-1 $324 $488 #
vertex $-1 $486 $489 #
straight-curve $-1 0 13.558213331257399 5.962139379057569 1 0 0 I I #
face $-1 $-1 $490 $45 $-1 $491 reversed single #
loop $-1 $-1 $492 $199 #
plane-surface $-1 0 -13.558213331257399 4.462139379057569 0 -1 0 0 0 -1 forward_v I I I I #
coedge $-1 $493 $202 $204 $341 forward $125 $-1 #
coedge $-1 $202 $493 $492 $494 forward $125 $-1 #
coedge $-1 $495 $205 $202 $338 forward $200 $-1 #
edge $-1 $344 2.5098488541380606 $496 8.2021926027922483 $337 $497 forward 7 unknown #
coedge $-1 $498 $499 $203 $340 forward $490 $-1 #
edge $-1 $500 -64.567167377606424 $343 -60.66361859091004 $339 $501 forward 7 unknown #
edge $-1 $344 89.09871315829416 $500 93.923764763328961 $204 $502 forward 7 unknown #
coedge $-1 $205 $495 $498 $503 forward $200 $-1 #
vertex $-1 $340 $504 #
vertex $-1 $206 $505 #
straight-curve $-1 33.870401154903732 -7.8658695826032146 5.9621393790575681 -1 0 0 I I #
coedge $-1 $346 $346 $-1 $506 reversed $209 $-1 #
edge $-1 $507 0 $507 6.2831853071796004 $210 $508 forward 7 unknown #
vertex $-1 $213 $509 #
ellipse-curve $-1 45.543835321344375 -11.931829403070489 4.0103649857093648 0.80901700255871778 0 0.5877852410284794 0.2938926205142397 0 -0.40450850127935889 1 I I #
coedge $-1 $350 $350 $-1 $510 reversed $216 $-1 #
edge $-1 $511 0 $511 6.2831853071796004 $217 $512 forward 7 unknown #
vertex $-1 $220 $513 #
ellipse-curve $-1 45.543835321344375 -9.4922535107901247 4.0103649857093648 0.80901700255871778 0 0.5877852410284794 0.2938926205142397 0 -0.40450850127935889 1 I I #
face $-1 $-1 $366 $48 $-1 $514 forward single #
loop $-1 $-1 $515 $221 #
plane-surface $-1 46.961882381664481 0 0 -1 0 0 0 0 1 forward_v I I I I #
coedge $-1 $516 $517 $518 $519 reversed $222 $-1 #
coedge $-1 $520 $224 $226 $364 forward $139 $-1 #
coedge $-1 $224 $520 $516 $521 forward $139 $-1 #
coedge $-1 $518 $227 $224 $361 forward $366 $-1 #
edge $-1 $368 -2.8461718743270916 $522 2.8461718743270952 $360 $523 forward 7 unknown #
coedge $-1 $524 $525 $225 $363 forward $355 $-1 #
edge $-1 $526 -64.567167377606424 $367 -60.66361859091004 $362 $527 forward 7 unknown #
edge $-1 $368 89.09871315829416 $526 93.923764763328961 $226 $528 forward 7 unknown #
coedge $-1 $227 $518 $524 $529 forward $366 $-1 #
loop $-1 $-1 $518 $354 #
vertex $-1 $363 $530 #
vertex $-1 $228 $531 #
straight-curve $-1 33.870401154903732 2.8461718743270898 5.9621393790575681 -1 0 0 I I #
coedge $-1 $370 $370 $-1 $532 reversed $231 $-1 #
edge $-1 $533 0 $533 6.2831853071796004 $232 $534 forward 7 unknown #
vertex $-1 $235 $535 #
ellipse-curve $-1 45.543835321344375 -1.2197879461401868 4.0103649857093648 0.80901700255871778 0 0.5877852410284794 0.2938926205142397 0 -0.40450850127935889 1 I I #
coedge $-1 $374 $374 $-1 $536 reversed $238 $-1 #
edge $-1 $537 0 $537 6.2831853071796004 $239 $538 forward 7 unknown #
vertex $-1 $242 $539 #
ellipse-curve $-1 45.543835321344375 1.2197879461401797 4.0103649857093648 0.80901700255871778 0 0.5877852410284794 0.2938926205142397 0 -0.40450850127935889 1 I I #
face $-1 $-1 $540 $51 $-1 $541 forward single #
loop $-1 $-1 $384 $243 #
plane-surface $-1 0 0 5.962139379057569 0 0 1 1 0 0 forward_v I I I I #
coedge $-1 $542 $543 $383 $544 forward $244 $-1 #
coedge $-1 $383 $246 $248 $389 reversed $153 $-1 #
coedge $-1 $246 $382 $381 $544 reversed $153 $-1 #
coedge $-1 $545 $249 $246 $385 forward $379 $-1 #
edge $-1 $392 10.255387106120509 $546 13.091481226760749 $384 $547 forward 7 unknown #
coedge $-1 $248 $247 $542 $548 reversed $98 $-1 #
coedge $-1 $549 $550 $247 $388 forward $540 $-1 #
edge $-1 $551 -61.735888976551742 $391 -56.910837371516934 $387 $552 forward 7 unknown #
edge $-1 $553 -93.923764763328961 $392 -89.09871315829416 $382 $554 forward 7 unknown #
coedge $-1 $249 $545 $549 $555 forward $379 $-1 #
vertex $-1 $388 $556 #
vertex $-1 $250 $557 #
straight-curve $-1 44.125788261024255 5.3560207284651504 5.9621393790575681 0 -1 0 I I #
coedge $-1 $394 $394 $-1 $558 reversed $253 $-1 #
edge $-1 $559 0 $559 6.2831853071796004 $254 $560 forward 7 unknown #
vertex $-1 $257 $561 #
ellipse-curve $-1 45.543835321344375 9.4922535107901176 4.0103649857093648 0.80901700255871778 0 0.5877852410284794 0.2938926205142397 0 -0.40450850127935889 1 I I #
coedge $-1 $398 $398 $-1 $562 reversed $260 $-1 #
edge $-1 $563 0 $563 6.2831853071796004 $261 $564 forward 7 unknown #
vertex $-1 $264 $565 #
ellipse-curve $-1 45.543835321344375 11.931829403070484 4.0103649857093648 0.80901700255871778 0 0.5877852410284794 0.2938926205142397 0 -0.40450850127935889 1 I I #
face $-1 $-1 $414 $54 $-1 $566 forward single #
loop $-1 $-1 $567 $265 #
plane-surface $-1 -46.961882381664481 0 0 1 0 0 0 0 -1 forward_v I I I I #
coedge $-1 $568 $569 $570 $571 reversed $266 $-1 #
coedge $-1 $572 $268 $270 $412 forward $167 $-1 #
coedge $-1 $268 $572 $568 $573 forward $167 $-1 #
coedge $-1 $570 $271 $268 $409 forward $414 $-1 #
edge $-1 $416 -5.4470144252444586 $574 0.61670698906816934 $408 $575 forward 7 unknown #
coedge $-1 $576 $577 $269 $411 forward $403 $-1 #
edge $-1 $578 -24.492313220347324 $415 -19.317558526845087 $410 $579 forward 7 unknown #
edge $-1 $416 -6.1019589202544484 $578 0 $270 $580 forward 7 unknown #
coedge $-1 $271 $570 $576 $581 forward $414 $-1 #
loop $-1 $-1 $570 $402 #
vertex $-1 $411 $582 #
vertex $-1 $272 $583 #
straight-curve $-1 -63.306876508680091 -7.8621681433326032 5.9621393790575681 1 0 0 I I #
coedge $-1 $418 $418 $-1 $584 reversed $275 $-1 #
edge $-1 $585 0 $585 6.2831853071796004 $276 $586 forward 7 unknown #
vertex $-1 $279 $587 #
ellipse-curve $-1 -45.345109629655916 -4.8303074361762892 3.3747620323064487 -0.84804810408105047 0 0.52991925155115449 0.52991925155115449 0 0.84804810408105047 1 I I #
face $-1 $-1 $295 $42 $-1 $588 reversed single #
loop $-1 $-1 $438 $280 #
plane-surface $-1 0 19.308876625476081 0 0 -1 0 0 0 -1 forward_v I I I I #
coedge $-1 $589 $436 $439 $590 forward $281 $-1 #
coedge $-1 $442 $283 $284 $430 reversed $176 $-1 #
coedge $-1 $436 $589 $283 $428 reversed $281 $-1 #
edge $-1 $443 -5.962139379057569 $591 5.962139379057569 $427 $592 forward 7 unknown #
coedge $-1 $285 $284 $589 $593 forward $113 $-1 #
edge $-1 $434 -46.961882381664481 $591 46.961882381664481 $426 $594 forward 7 unknown #
coedge $-1 $439 $438 $285 $432 reversed $423 $-1 #
edge $-1 $595 -46.961882381664481 $433 46.961882381664481 $431 $596 forward 7 unknown #
vertex $-1 $287 $597 #
vertex $-1 $445 $598 #
straight-curve $-1 46.961882381664481 0 -5.962139379057569 0 -1 0 I I #
coedge $-1 $425 $427 $288 $437 reversed $281 $-1 #
edge $-1 $440 -19.308876625476081 $443 19.308876625476081 $436 $599 forward 7 unknown #
coedge $-1 $431 $289 $294 $446 forward $423 $-1 #
coedge $-1 $289 $431 $425 $590 reversed $423 $-1 #
vertex $-1 $290 $600 #
straight-curve $-1 0 19.308876625476081 5.962139379057569 -1 0 0 I I #
coedge $-1 $291 $426 $293 $445 reversed $176 $-1 #
vertex $-1 $437 $601 #
straight-curve $-1 0 -19.308876625476081 5.962139379057569 1 0 0 I I #
edge $-1 $296 -5.962139379057569 $434 5.962139379057569 $293 $602 forward 7 unknown #
edge $-1 $297 -5.962139379057569 $433 5.962139379057569 $294 $603 forward 7 unknown #
point $-1 46.961882381664481 -19.308876625476081 5.962139379057569 #
point $-1 46.961882381664481 19.308876625476081 5.962139379057569 #
face $-1 $-1 $311 $43 $-1 $604 reversed single #
loop $-1 $-1 $605 $299 #
plane-surface $-1 0 0 5.962139379057569 0 0 1 1 0 0 forward_v I I I I #
coedge $-1 $606 $302 $306 $459 forward $184 $-1 #
coedge $-1 $302 $606 $607 $608 reversed $184 $-1 #
edge $-1 $609 -3.7310696895287845 $457 -0.73106968952878448 $302 $610 forward 7 unknown #
coedge $-1 $304 $303 $605 $611 reversed $117 $-1 #
edge $-1 $313 0.73106968952878448 $612 3.7310696895287845 $309 $613 forward 7 unknown #
vertex $-1 $459 $614 #
straight-curve $-1 0 -13.558213331257399 2.962139379057569 1 0 0 I I #
edge $-1 $457 5.3414408420740287 $462 11.092104136292711 $452 $615 forward 7 unknown #
coedge $-1 $616 $307 $310 $465 reversed $300 $-1 #
coedge $-1 $307 $616 $606 $617 forward $300 $-1 #
vertex $-1 $308 $618 #
straight-curve $-1 0 -19.308876625476081 2.962139379057569 1 0 0 I I #
coedge $-1 $310 $309 $619 $620 reversed $311 $-1 #
edge $-1 $621 -5.962139379057569 $312 -2.962139379057569 $310 $622 forward 7 unknown #
point $-1 46.961882381664481 -19.308876625476081 2.962139379057569 #
point $-1 46.961882381664481 -13.558213331257399 2.962139379057569 #
face $-1 $-1 $623 $44 $-1 $624 reversed single #
loop $-1 $-1 $323 $315 #
plane-surface $-1 -46.961882381664481 0 0 1 0 0 0 0 -1 forward_v I I I I #
coedge $-1 $319 $318 $480 $625 reversed $121 $-1 #
edge $-1 $476 -46.961882381664481 $481 46.961882381664481 $322 $626 forward 7 unknown #
coedge $-1 $627 $628 $319 $474 forward $623 $-1 #
edge $-1 $477 -46.961882381664481 $629 46.961882381664481 $473 $630 forward 7 unknown #
coedge $-1 $483 $320 $628 $631 reversed $316 $-1 #
vertex $-1 $321 $632 #
vertex $-1 $474 $633 #
straight-curve $-1 46.961882381664481 8.21677248918337 2.962139379057569 0 1 0 I I #
coedge $-1 $634 $323 $328 $487 reversed $469 $-1 #
coedge $-1 $323 $634 $471 $625 forward $469 $-1 #
vertex $-1 $625 $635 #
straight-curve $-1 -46.961882381664481 13.558213331257399 2.2310696895287845 0 0 1 I I #
coedge $-1 $325 $475 $327 $486 reversed $316 $-1 #
straight-curve $-1 46.961882381664481 13.558213331257399 2.2310696895287845 0 0 -1 I I #
coedge $-1 $328 $327 $636 $637 forward $192 $-1 #
edge $-1 $330 13.558213331257399 $638 19.308876625476081 $483 $639 forward 7 unknown #
edge $-1 $640 -19.308876625476081 $329 -13.558213331257399 $479 $641 forward 7 unknown #
point $-1 -46.961882381664481 13.558213331257399 5.962139379057569 #
point $-1 46.961882381664481 13.558213331257399 5.962139379057569 #
loop $-1 $-1 $339 $332 #
plane-surface $-1 46.961882381664481 0 0 -1 0 0 0 0 1 forward_v I I I I #
coedge $-1 $642 $643 $336 $494 reversed $333 $-1 #
coedge $-1 $336 $335 $499 $644 reversed $125 $-1 #
edge $-1 $645 -93.923764763328961 $496 -89.09871315829416 $492 $646 forward 7 unknown #
coedge $-1 $342 $337 $643 $647 forward $200 $-1 #
vertex $-1 $647 $648 #
straight-curve $-1 44.125788261024255 -5.356020728465154 5.9621393790575681 0 -1 0 I I #
coedge $-1 $649 $339 $342 $503 reversed $490 $-1 #
coedge $-1 $339 $649 $493 $644 forward $490 $-1 #
vertex $-1 $340 $650 #
straight-curve $-1 46.961882381664481 -7.8658695826032146 66.625757969967609 0 0 1 I I #
straight-curve $-1 -8.2451203280510441 -7.8658695826032146 78.044513230219707 0.5877852410284794 0 -0.80901700255871778 I I #
edge $-1 $651 -13.558213331257399 $343 -7.8658695826032146 $498 $652 forward 7 unknown #
point $-1 46.961882381664481 -7.8658695826032146 5.962139379057569 #
point $-1 44.12578826102424 -7.8658695826032146 5.9621393790575752 #
edge $-1 $653 1 $653 0 $346 $-1 forward 7 unknown #
vertex $-1 $347 $654 #
ellipse-curve $-1 44.147159448995886 -11.931829403070489 2.9956205963200566 0.80901700255871778 0 0.5877852410284794 0.2938926205142397 0 -0.40450850127935889 1 I I #
point $-1 45.837727941858617 -11.931829403070489 3.6058564844300078 #
edge $-1 $655 1 $655 0 $350 $-1 forward 7 unknown #
vertex $-1 $351 $656 #
ellipse-curve $-1 44.147159448995886 -9.4922535107901247 2.9956205963200566 0.80901700255871778 0 0.5877852410284794 0.2938926205142397 0 -0.40450850127935889 1 I I #
point $-1 45.837727941858617 -9.4922535107901247 3.6058564844300078 #
plane-surface $-1 0 0 5.962139379057569 0 0 1 1 0 0 forward_v I I I I #
coedge $-1 $525 $524 $517 $657 forward $355 $-1 #
coedge $-1 $517 $357 $359 $521 reversed $222 $-1 #
coedge $-1 $357 $516 $515 $657 reversed $222 $-1 #
coedge $-1 $365 $360 $357 $519 forward $366 $-1 #
edge $-1 $522 10.255387106120509 $658 13.091481226760749 $518 $659 forward 7 unknown #
coedge $-1 $359 $358 $525 $660 reversed $139 $-1 #
edge $-1 $661 -93.923764763328961 $522 -89.09871315829416 $516 $662 forward 7 unknown #
vertex $-1 $361 $663 #
straight-curve $-1 44.125788261024255 -1.7763568394002505e-015 5.9621393790575681 0 -1 0 I I #
coedge $-1 $515 $362 $365 $529 reversed $355 $-1 #
coedge $-1 $362 $515 $520 $660 forward $355 $-1 #
vertex $-1 $363 $664 #
straight-curve $-1 46.961882381664481 2.8461718743270898 66.625757969967609 0 0 1 I I #
straight-curve $-1 -8.2451203280510441 2.8461718743270898 78.044513230219707 0.5877852410284794 0 -0.80901700255871778 I I #
edge $-1 $658 -2.846171874327097 $367 2.8461718743270898 $524 $665 forward 7 unknown #
point $-1 46.961882381664481 2.8461718743270898 5.962139379057569 #
point $-1 44.12578826102424 2.8461718743270898 5.9621393790575752 #
edge $-1 $666 1 $666 0 $370 $-1 forward 7 unknown #
vertex $-1 $371 $667 #
ellipse-curve $-1 44.147159448995886 -1.2197879461401868 2.9956205963200566 0.80901700255871778 0 0.5877852410284794 0.2938926205142397 0 -0.40450850127935889 1 I I #
point $-1 45.837727941858617 -1.2197879461401868 3.6058564844300078 #
edge $-1 $668 1 $668 0 $374 $-1 forward 7 unknown #
vertex $-1 $375 $669 #
ellipse-curve $-1 44.147159448995886 1.2197879461401797 2.9956205963200566 0.80901700255871778 0 0.5877852410284794 0.2938926205142397 0 -0.40450850127935889 1 I I #
point $-1 45.837727941858617 1.2197879461401797 3.6058564844300078 #
loop $-1 $-1 $387 $378 #
plane-surface $-1 0 13.558213331257399 4.462139379057569 0 1 0 0 0 1 forward_v I I I I #
coedge $-1 $670 $381 $386 $548 forward $244 $-1 #
coedge $-1 $381 $670 $545 $671 reversed $244 $-1 #
edge $-1 $546 60.66361859091004 $553 64.567167377606424 $381 $672 forward 7 unknown #
coedge $-1 $390 $384 $543 $671 forward $379 $-1 #
vertex $-1 $671 $673 #
straight-curve $-1 33.870401154903732 7.8658695826032075 5.9621393790575681 1 0 0 I I #
edge $-1 $553 2.509848854138057 $551 8.2021926027922447 $542 $674 forward 7 unknown #
coedge $-1 $550 $387 $390 $555 reversed $540 $-1 #
coedge $-1 $387 $549 $670 $675 reversed $540 $-1 #
vertex $-1 $675 $676 #
straight-curve $-1 10.674437999474566 13.558213331257399 52.003974442468859 -0.5877852410284794 0 0.80901700255871778 I I #
vertex $-1 $548 $677 #
straight-curve $-1 -8.2451203280510441 7.8658695826032075 78.044513230219707 -0.5877852410284794 0 0.80901700255871778 I I #
edge $-1 $678 -46.961882381664481 $391 -44.12578826102424 $390 $679 forward 7 unknown #
point $-1 44.12578826102424 13.558213331257395 5.9621393790575752 #
point $-1 44.12578826102424 7.8658695826032075 5.9621393790575752 #
edge $-1 $680 1 $680 0 $394 $-1 forward 7 unknown #
vertex $-1 $395 $681 #
ellipse-curve $-1 44.147159448995886 9.4922535107901176 2.9956205963200566 0.80901700255871778 0 0.5877852410284794 0.2938926205142397 0 -0.40450850127935889 1 I I #
point $-1 45.837727941858617 9.4922535107901176 3.6058564844300078 #
edge $-1 $682 1 $682 0 $398 $-1 forward 7 unknown #
vertex $-1 $399 $683 #
ellipse-curve $-1 44.147159448995886 11.931829403070484 2.9956205963200566 0.80901700255871778 0 0.5877852410284794 0.2938926205142397 0 -0.40450850127935889 1 I I #
point $-1 45.837727941858617 11.931829403070484 3.6058564844300078 #
plane-surface $-1 0 0 5.962139379057569 0 0 1 1 0 0 forward_v I I I I #
coedge $-1 $577 $576 $569 $684 forward $403 $-1 #
coedge $-1 $569 $405 $407 $573 reversed $266 $-1 #
coedge $-1 $405 $568 $567 $684 reversed $266 $-1 #
coedge $-1 $413 $408 $405 $571 forward $414 $-1 #
edge $-1 $574 -19.57853963103274 $685 -16.34499412701561 $570 $686 forward 7 unknown #
coedge $-1 $407 $406 $577 $687 reversed $167 $-1 #
edge $-1 $688 0 $574 6.1019589202544484 $568 $689 forward 7 unknown #
vertex $-1 $409 $690 #
straight-curve $-1 -43.728336877647351 -2.4151537180881446 5.962139379057569 0 1 0 I I #
coedge $-1 $567 $410 $413 $581 reversed $403 $-1 #
coedge $-1 $410 $567 $572 $687 forward $403 $-1 #
vertex $-1 $411 $691 #
straight-curve $-1 -46.961882381664481 -7.8621681433326032 25.279697905902655 0 0 1 I I #
straight-curve $-1 -46.961882381664481 -7.8621681433326032 0.78738468555533103 -0.52991925155115449 0 -0.84804810408105047 I I #
edge $-1 $685 1.7984467290199753 $415 7.8621681433326032 $576 $692 forward 7 unknown #
point $-1 -46.961882381664481 -7.8621681433326032 5.962139379057569 #
point $-1 -43.728336877647351 -7.8621681433326032 5.962139379057569 #
edge $-1 $693 1 $693 0 $418 $-1 forward 7 unknown #
vertex $-1 $419 $694 #
ellipse-curve $-1 -42.163719294930274 -4.8303074361762892 1.3868087818281456 -0.84804810408105047 0 0.52991925155115449 0.52991925155115449 0 0.84804810408105047 1 I I #
point $-1 -44.815190378104759 -4.8303074361762892 4.2228101363874995 #
plane-surface $-1 46.961882381664481 0 0 -1 0 0 0 0 1 forward_v I I I I #
coedge $-1 $427 $425 $429 $593 reversed $281 $-1 #
edge $-1 $440 -5.962139379057569 $595 5.962139379057569 $439 $695 forward 7 unknown #
vertex $-1 $593 $696 #
straight-curve $-1 -46.961882381664481 -19.308876625476081 0 0 0 -1 I I #
edge $-1 $591 -19.308876625476081 $595 19.308876625476081 $589 $697 forward 7 unknown #
straight-curve $-1 0 -19.308876625476081 -5.962139379057569 -1 0 0 I I #
vertex $-1 $432 $698 #
straight-curve $-1 0 19.308876625476081 -5.962139379057569 1 0 0 I I #
point $-1 46.961882381664481 19.308876625476081 -5.962139379057569 #
point $-1 46.961882381664481 -19.308876625476081 -5.962139379057569 #
straight-curve $-1 -46.961882381664481 0 5.962139379057569 0 -1 0 I I #
point $-1 -46.961882381664481 19.308876625476081 5.962139379057569 #
point $-1 -46.961882381664481 -19.308876625476081 5.962139379057569 #
straight-curve $-1 46.961882381664481 -19.308876625476081 0 0 0 -1 I I #
straight-curve $-1 46.961882381664481 19.308876625476081 0 0 0 -1 I I #
plane-surface $-1 46.961882381664481 0 0 -1 0 0 0 0 1 forward_v I I I I #
coedge $-1 $607 $619 $455 $611 forward $450 $-1 #
coedge $-1 $453 $452 $461 $617 reversed $184 $-1 #
coedge $-1 $699 $605 $453 $608 forward $450 $-1 #
edge $-1 $609 13.558213331257399 $700 19.308876625476081 $453 $701 forward 7 unknown #
vertex $-1 $608 $702 #
straight-curve $-1 -46.961882381664481 -13.558213331257399 2.2310696895287845 0 0 -1 I I #
edge $-1 $612 -46.961882381664481 $609 46.961882381664481 $605 $703 forward 7 unknown #
vertex $-1 $456 $704 #
straight-curve $-1 46.961882381664481 -13.558213331257399 2.2310696895287845 0 0 1 I I #
point $-1 -46.961882381664481 -13.558213331257399 2.962139379057569 #
straight-curve $-1 -46.961882381664481 -8.21677248918337 2.962139379057569 0 -1 0 I I #
coedge $-1 $461 $460 $699 $705 reversed $300 $-1 #
edge $-1 $700 -5.962139379057569 $462 -2.962139379057569 $606 $706 forward 7 unknown #
point $-1 -46.961882381664481 -19.308876625476081 2.962139379057569 #
coedge $-1 $605 $699 $464 $620 forward $450 $-1 #
edge $-1 $621 -19.308876625476081 $612 -13.558213331257399 $464 $707 forward 7 unknown #
vertex $-1 $620 $708 #
straight-curve $-1 46.961882381664481 -19.308876625476081 0 0 0 -1 I I #
loop $-1 $-1 $473 $468 #
plane-surface $-1 0 19.308876625476081 0 0 -1 0 0 0 -1 forward_v I I I I #
edge $-1 $629 -11.092104136292711 $481 -5.3414408420740287 $480 $709 forward 7 unknown #
straight-curve $-1 0 13.558213331257399 2.962139379057569 -1 0 0 I I #
coedge $-1 $636 $473 $634 $710 reversed $623 $-1 #
coedge $-1 $473 $636 $475 $631 forward $623 $-1 #
vertex $-1 $474 $711 #
straight-curve $-1 0 19.308876625476081 2.962139379057569 -1 0 0 I I #
edge $-1 $638 -5.962139379057569 $477 -2.962139379057569 $475 $712 forward 7 unknown #
point $-1 46.961882381664481 13.558213331257399 2.962139379057569 #
point $-1 46.961882381664481 19.308876625476081 2.962139379057569 #
coedge $-1 $480 $479 $627 $710 forward $469 $-1 #
point $-1 -46.961882381664481 13.558213331257399 2.962139379057569 #
coedge $-1 $628 $627 $485 $637 reversed $623 $-1 #
edge $-1 $638 -46.961882381664481 $640 46.961882381664481 $636 $713 forward 7 unknown #
vertex $-1 $486 $714 #
straight-curve $-1 46.961882381664481 0 5.962139379057569 0 1 0 I I #
vertex $-1 $637 $715 #
straight-curve $-1 -46.961882381664481 0 5.962139379057569 0 -1 0 I I #
coedge $-1 $643 $492 $649 $716 reversed $333 $-1 #
coedge $-1 $492 $642 $495 $647 reversed $333 $-1 #
edge $-1 $645 -8.2021926027922483 $500 -2.5098488541380606 $499 $717 forward 7 unknown #
vertex $-1 $716 $718 #
straight-curve $-1 -8.2451203280510441 -13.558213331257402 78.044513230219707 -0.5877852410284794 0 0.80901700255871778 I I #
edge $-1 $496 44.12578826102424 $651 46.961882381664481 $495 $719 forward 7 unknown #
point $-1 44.12578826102424 -13.558213331257402 5.9621393790575752 #
coedge $-1 $499 $498 $642 $716 forward $490 $-1 #
point $-1 46.961882381664481 -7.8658695826032146 2.0585905923611847 #
vertex $-1 $503 $720 #
straight-curve $-1 46.961882381664481 0 5.962139379057569 0 1 0 I I #
vertex $-1 $506 $721 #
point $-1 44.441052069510128 -11.931829403070489 2.5911120950406978 #
vertex $-1 $510 $722 #
point $-1 44.441052069510128 -9.4922535107901247 2.5911120950406978 #
edge $-1 $658 60.66361859091004 $661 64.567167377606424 $515 $723 forward 7 unknown #
vertex $-1 $529 $724 #
straight-curve $-1 33.870401154903732 -2.846171874327097 5.9621393790575681 1 0 0 I I #
edge $-1 $661 -2.8461718743270952 $526 2.8461718743270916 $525 $725 forward 7 unknown #
vertex $-1 $660 $726 #
straight-curve $-1 -8.2451203280510441 -2.846171874327097 78.044513230219707 -0.5877852410284794 0 0.80901700255871778 I I #
point $-1 44.12578826102424 -2.846171874327097 5.9621393790575752 #
point $-1 46.961882381664481 2.8461718743270898 2.0585905923611847 #
straight-curve $-1 46.961882381664481 0 5.962139379057569 0 1 0 I I #
vertex $-1 $532 $727 #
point $-1 44.441052069510128 -1.2197879461401868 2.5911120950406978 #
vertex $-1 $536 $728 #
point $-1 44.441052069510128 1.2197879461401797 2.5911120950406978 #
coedge $-1 $543 $542 $550 $675 forward $244 $-1 #
edge $-1 $546 7.8658695826032075 $678 13.558213331257399 $543 $729 forward 7 unknown #
straight-curve $-1 46.961882381664481 7.8658695826032075 66.625757969967609 0 0 -1 I I #
point $-1 46.961882381664481 7.8658695826032075 5.962139379057569 #
straight-curve $-1 46.961882381664481 5.3560207284651504 2.0585905923611776 0 1 0 I I #
edge $-1 $551 -64.567167377606424 $678 -60.66361859091004 $670 $730 forward 7 unknown #
point $-1 46.961882381664481 13.558213331257395 2.0585905923611847 #
point $-1 46.961882381664481 7.8658695826032075 2.0585905923611847 #
vertex $-1 $555 $731 #
straight-curve $-1 0 13.558213331257399 5.962139379057569 -1 0 0 I I #
vertex $-1 $558 $732 #
point $-1 44.441052069510128 9.4922535107901176 2.5911120950406978 #
vertex $-1 $562 $733 #
point $-1 44.441052069510128 11.931829403070484 2.5911120950406978 #
edge $-1 $685 19.317558526845087 $688 24.492313220347324 $567 $734 forward 7 unknown #
vertex $-1 $581 $735 #
straight-curve $-1 -63.306876508680091 -1.7984467290199753 5.9621393790575681 -1 0 0 I I #
edge $-1 $688 -0.61670698906816934 $578 5.4470144252444586 $577 $736 forward 7 unknown #
vertex $-1 $687 $737 #
straight-curve $-1 -46.961882381664481 -1.7984467290199753 0.78738468555533103 0.52991925155115449 0 0.84804810408105047 I I #
point $-1 -43.728336877647351 -1.7984467290199753 5.962139379057569 #
point $-1 -46.961882381664481 -7.8621681433326032 0.78738468555533103 #
straight-curve $-1 -46.961882381664481 0 5.962139379057569 0 -1 0 I I #
vertex $-1 $584 $738 #
point $-1 -41.633800043379125 -4.8303074361762892 2.234856885909196 #
straight-curve $-1 -46.961882381664481 19.308876625476081 0 0 0 -1 I I #
point $-1 -46.961882381664481 -19.308876625476081 -5.962139379057569 #
straight-curve $-1 -46.961882381664481 0 -5.962139379057569 0 1 0 I I #
point $-1 -46.961882381664481 19.308876625476081 -5.962139379057569 #
coedge $-1 $619 $607 $616 $705 forward $450 $-1 #
vertex $-1 $608 $739 #
straight-curve $-1 -46.961882381664481 0 5.962139379057569 0 -1 0 I I #
point $-1 -46.961882381664481 -13.558213331257399 5.962139379057569 #
straight-curve $-1 0 -13.558213331257399 5.962139379057569 -1 0 0 I I #
point $-1 46.961882381664481 -13.558213331257399 5.962139379057569 #
edge $-1 $700 -46.961882381664481 $621 46.961882381664481 $616 $740 forward 7 unknown #
straight-curve $-1 -46.961882381664481 -19.308876625476081 0 0 0 -1 I I #
straight-curve $-1 46.961882381664481 0 5.962139379057569 0 1 0 I I #
point $-1 46.961882381664481 -19.308876625476081 5.962139379057569 #
straight-curve $-1 -46.961882381664481 8.21677248918337 2.962139379057569 0 -1 0 I I #
edge $-1 $640 -5.962139379057569 $629 -2.962139379057569 $627 $741 forward 7 unknown #
point $-1 -46.961882381664481 19.308876625476081 2.962139379057569 #
straight-curve $-1 46.961882381664481 19.308876625476081 0 0 0 -1 I I #
straight-curve $-1 0 19.308876625476081 5.962139379057569 -1 0 0 I I #
point $-1 46.961882381664481 19.308876625476081 5.962139379057569 #
point $-1 -46.961882381664481 19.308876625476081 5.962139379057569 #
edge $-1 $651 60.66361859091004 $645 64.567167377606424 $649 $742 forward 7 unknown #
straight-curve $-1 46.961882381664481 -5.356020728465154 2.0585905923611776 0 1 0 I I #
point $-1 46.961882381664481 -13.558213331257402 2.0585905923611847 #
straight-curve $-1 0 -13.558213331257399 5.962139379057569 1 0 0 I I #
point $-1 46.961882381664481 -13.558213331257399 5.962139379057569 #
point $-1 43.742650947716534 -11.931829403070489 2.701727975805817 #
point $-1 43.742650947716534 -9.4922535107901247 2.701727975805817 #
straight-curve $-1 46.961882381664481 -2.846171874327097 66.625757969967609 0 0 -1 I I #
point $-1 46.961882381664481 -2.846171874327097 5.962139379057569 #
straight-curve $-1 46.961882381664481 -1.7763568394002505e-015 2.0585905923611776 0 1 0 I I #
point $-1 46.961882381664481 -2.846171874327097 2.0585905923611847 #
point $-1 43.742650947716534 -1.2197879461401868 2.701727975805817 #
point $-1 43.742650947716534 1.2197879461401797 2.701727975805817 #
straight-curve $-1 46.961882381664481 0 5.962139379057569 0 1 0 I I #
straight-curve $-1 46.961882381664481 13.558213331257395 66.625757969967609 0 0 1 I I #
point $-1 46.961882381664481 13.558213331257399 5.962139379057569 #
point $-1 43.742650947716534 9.4922535107901176 2.701727975805817 #
point $-1 43.742650947716534 11.931829403070484 2.701727975805817 #
straight-curve $-1 -46.961882381664481 -1.7984467290199753 25.279697905902655 0 0 -1 I I #
point $-1 -46.961882381664481 -1.7984467290199753 5.962139379057569 #
straight-curve $-1 -46.961882381664481 -2.4151537180881446 0.78738468555533347 0 -1 0 I I #
point $-1 -46.961882381664481 -1.7984467290199753 0.78738468555533103 #
point $-1 -41.31567119084923 -4.8303074361762892 0.856889530276991 #
point $-1 -46.961882381664481 -19.308876625476081 5.962139379057569 #
straight-curve $-1 0 -19.308876625476081 5.962139379057569 1 0 0 I I #
straight-curve $-1 -46.961882381664481 19.308876625476081 0 0 0 -1 I I #
straight-curve $-1 46.961882381664481 -13.558213331257402 66.625757969967609 0 0 -1 I I #
End-of-ACIS-data 