500 0 5 0           
7 Unknown 11 ACIS 5.0 NT 24 Thu Mar 25 19:31:57 1999 
-1 9.9999999999999995e-007 1e-010 
body $-1 $5 $-1 $6 #
body $-1 $7 $-1 $8 #
body $-1 $9 $-1 $10 #
body $-1 $11 $-1 $12 #
body $-1 $13 $-1 $14 #
lump $-1 $-1 $15 $0 #
transform $-1 1 0 0 0 1 0 0 0 1 66.642658772545559 32.803108326815256 6.8651568853409932 1 rotate no_reflect no_shear #
lump $-1 $-1 $16 $1 #
transform $-1 1 0 0 0 1 0 0 0 1 66.642658772545559 32.803108326815256 6.8651568853409932 1 rotate no_reflect no_shear #
lump $-1 $-1 $17 $2 #
transform $-1 1 0 0 0 1 0 0 0 1 66.642658772545559 32.803108326815256 6.8651568853409932 1 rotate no_reflect no_shear #
lump $-1 $-1 $18 $3 #
transform $-1 1 0 0 0 1 0 0 0 1 66.642658772545559 32.803108326815256 6.8651568853409932 1 rotate no_reflect no_shear #
lump $-1 $-1 $19 $4 #
transform $-1 1 0 0 0 1 0 0 0 1 66.642658772545559 32.803108326815256 6.8651568853409932 1 rotate no_reflect no_shear #
shell $-1 $-1 $-1 $20 $-1 $5 #
shell $-1 $-1 $-1 $21 $-1 $7 #
shell $-1 $-1 $-1 $22 $-1 $9 #
shell $-1 $-1 $-1 $23 $-1 $11 #
shell $-1 $-1 $-1 $24 $-1 $13 #
face $-1 $25 $26 $15 $-1 $27 forward single #
face $-1 $28 $29 $16 $-1 $30 forward single #
face $-1 $31 $32 $17 $-1 $33 reversed single #
face $-1 $34 $35 $18 $-1 $36 forward single #
face $-1 $37 $38 $19 $-1 $39 forward single #
face $-1 $40 $41 $15 $-1 $42 reversed single #
loop $-1 $-1 $43 $20 #
plane-surface $-1 0 0 6.8651568853409932 0 0 1 1 0 0 forward_v I I I I #
face $-1 $44 $45 $16 $-1 $46 reversed single #
loop $-1 $-1 $47 $21 #
plane-surface $-1 0 -28.752280258050025 -2.9809702494775747 0 0 1 1 0 0 forward_v I I I I #
face $-1 $48 $49 $17 $-1 $50 reversed single #
loop $-1 $-1 $51 $22 #
plane-surface $-1 -175.82360019743419 -24.701452189284794 79.966730170399444 0 1 0 -0.81915205242281985 0 0.57357642473473569 forward_v I I I I #
face $-1 $52 $53 $18 $-1 $54 forward single #
loop $-1 $55 $56 $23 #
cone-surface $-1 -64.727141075099894 -22.687056737540004 4.6707089975793714 0.81915205242281985 0 -0.57357642473473569 0.28678821236736785 0 0.40957602621140993 1 I I 0 1 0.5 forward I I I I #
face $-1 $57 $58 $19 $-1 $59 forward single #
loop $-1 $60 $61 $24 #
cone-surface $-1 -64.727141075099894 -19.665463559922824 4.6707089975793714 0.81915205242281985 0 -0.57357642473473569 0.28678821236736785 0 0.40957602621140993 1 I I 0 1 0.5 forward I I I I #
face $-1 $62 $63 $15 $-1 $64 reversed single #
loop $-1 $-1 $65 $25 #
plane-surface $-1 0 0 -6.8651568853409932 0 0 1 1 0 0 forward_v I I I I #
coedge $-1 $66 $67 $68 $69 forward $26 $-1 #
face $-1 $70 $71 $16 $-1 $72 reversed single #
loop $-1 $-1 $73 $28 #
plane-surface $-1 0 -24.701452189284794 -4.923063567409284 0 -1 0 0 0 -1 forward_v I I I I #
coedge $-1 $74 $75 $76 $77 reversed $29 $-1 #
face $-1 $78 $79 $17 $-1 $80 reversed single #
loop $-1 $-1 $81 $31 #
plane-surface $-1 -66.642658772545516 -21.176260148731416 3.5174142632521352 -0.81915205242281985 0 0.57357642473473569 0.57357642473473569 0 0.81915205242281985 forward_v I I I I #
coedge $-1 $82 $83 $84 $85 reversed $32 $-1 #
face $-1 $-1 $86 $18 $-1 $87 forward single #
loop $-1 $88 $89 $34 #
cone-surface $-1 -63.778892639159764 -22.687056737540004 4.0067383146784872 0.81915205242281985 0 -0.57357642473473569 0.14339410618368392 0 0.20478801310570496 1 I I -0.70710678118654746 0.70710678118654746 0.25 forward I I I I #
loop $-1 $-1 $90 $23 #
coedge $-1 $56 $56 $91 $92 reversed $35 $-1 #
face $-1 $-1 $93 $19 $-1 $94 forward single #
loop $-1 $95 $96 $37 #
cone-surface $-1 -63.778892639159764 -19.665463559922824 4.0067383146784872 0.81915205242281985 0 -0.57357642473473569 0.14339410618368392 0 0.20478801310570496 1 I I -0.70710678118654746 0.70710678118654746 0.25 forward I I I I #
loop $-1 $-1 $97 $24 #
coedge $-1 $61 $61 $98 $99 reversed $38 $-1 #
face $-1 $100 $101 $15 $-1 $102 reversed single #
loop $-1 $-1 $103 $40 #
plane-surface $-1 0 -32.803108326815256 0 0 1 0 0 0 1 forward_v I I I I #
coedge $-1 $104 $105 $106 $107 forward $41 $-1 #
coedge $-1 $108 $43 $109 $110 forward $26 $-1 #
coedge $-1 $43 $108 $111 $112 forward $26 $-1 #
coedge $-1 $113 $114 $43 $69 reversed $115 $-1 #
edge $-1 $116 -32.803108326815256 $117 32.803108326815256 $68 $118 forward 7 unknown #
face $-1 $119 $120 $16 $-1 $121 reversed single #
loop $-1 $-1 $122 $44 #
plane-surface $-1 0 0 -6.8651568853409932 0 0 1 1 0 0 forward_v I I I I #
coedge $-1 $123 $124 $125 $126 reversed $45 $-1 #
coedge $-1 $127 $47 $124 $128 forward $29 $-1 #
coedge $-1 $47 $127 $129 $130 reversed $29 $-1 #
coedge $-1 $131 $125 $47 $77 forward $120 $-1 #
edge $-1 $132 10.325312060259781 $133 18.426968197790245 $76 $134 forward 7 unknown #
face $-1 $135 $136 $17 $-1 $137 forward single #
loop $-1 $-1 $138 $48 #
plane-surface $-1 -175.82360019743419 -17.651068108178038 79.966730170399444 0 -1 0 0.81915205242281985 0 -0.57357642473473569 forward_v I I I I #
coedge $-1 $139 $140 $141 $142 reversed $49 $-1 #
coedge $-1 $83 $51 $143 $144 reversed $32 $-1 #
coedge $-1 $51 $82 $139 $145 reversed $32 $-1 #
coedge $-1 $141 $146 $51 $85 forward $136 $-1 #
edge $-1 $147 21.269141326171535 $148 23.613255875394088 $84 $149 forward 7 unknown #
loop $-1 $-1 $91 $52 #
plane-surface $-1 -66.642658772545516 -21.176260148731416 3.5174142632521352 -0.81915205242281985 0 0.57357642473473569 0.57357642473473569 0 0.81915205242281985 forward_v I I I I #
loop $-1 $-1 $150 $34 #
coedge $-1 $89 $89 $90 $151 reversed $53 $-1 #
coedge $-1 $90 $90 $89 $151 forward $55 $-1 #
coedge $-1 $91 $91 $56 $92 forward $86 $-1 #
edge $-1 $152 0 $152 6.2831853071796004 $91 $153 forward 7 unknown #
loop $-1 $-1 $98 $57 #
plane-surface $-1 -66.642658772545516 -21.176260148731416 3.5174142632521352 -0.81915205242281985 0 0.57357642473473569 0.57357642473473569 0 0.81915205242281985 forward_v I I I I #
loop $-1 $-1 $154 $37 #
coedge $-1 $96 $96 $97 $155 reversed $58 $-1 #
coedge $-1 $97 $97 $96 $155 forward $60 $-1 #
coedge $-1 $98 $98 $61 $99 forward $93 $-1 #
edge $-1 $156 0 $156 6.2831853071796004 $98 $157 forward 7 unknown #
face $-1 $158 $159 $15 $-1 $160 reversed single #
loop $-1 $-1 $161 $62 #
plane-surface $-1 -66.642658772545559 0 0 1 0 0 0 0 -1 forward_v I I I I #
coedge $-1 $162 $111 $163 $164 forward $63 $-1 #
coedge $-1 $165 $65 $162 $166 forward $41 $-1 #
coedge $-1 $65 $165 $167 $168 forward $41 $-1 #
coedge $-1 $114 $113 $65 $107 reversed $115 $-1 #
edge $-1 $169 -32.803108326815256 $170 32.803108326815256 $106 $171 forward 7 unknown #
coedge $-1 $67 $66 $172 $173 forward $26 $-1 #
coedge $-1 $174 $175 $66 $110 reversed $159 $-1 #
edge $-1 $117 -66.642658772545559 $176 66.642658772545559 $109 $177 forward 7 unknown #
coedge $-1 $103 $178 $67 $112 reversed $63 $-1 #
edge $-1 $179 -66.642658772545559 $116 66.642658772545559 $111 $180 forward 7 unknown #
coedge $-1 $106 $68 $178 $181 forward $115 $-1 #
coedge $-1 $68 $106 $174 $182 reversed $115 $-1 #
loop $-1 $-1 $113 $158 #
vertex $-1 $69 $183 #
vertex $-1 $69 $184 #
straight-curve $-1 66.642658772545559 0 6.8651568853409932 0 1 0 I I #
face $-1 $185 $186 $16 $-1 $187 reversed single #
loop $-1 $-1 $125 $70 #
plane-surface $-1 66.642658772545559 0 0 -1 0 0 0 0 1 forward_v I I I I #
coedge $-1 $188 $189 $123 $190 forward $71 $-1 #
coedge $-1 $191 $73 $122 $190 reversed $45 $-1 #
coedge $-1 $73 $191 $74 $128 reversed $45 $-1 #
coedge $-1 $76 $192 $73 $126 forward $120 $-1 #
edge $-1 $193 -4.4036251016363508 $132 -0.51943846577293273 $125 $194 forward 7 unknown #
coedge $-1 $75 $74 $195 $196 reversed $29 $-1 #
edge $-1 $132 -66.642658772545559 $197 66.642658772545559 $124 $198 forward 7 unknown #
coedge $-1 $199 $200 $75 $130 forward $186 $-1 #
edge $-1 $133 -66.642658772545559 $201 66.642658772545559 $129 $202 forward 7 unknown #
coedge $-1 $192 $76 $200 $203 forward $120 $-1 #
vertex $-1 $77 $204 #
vertex $-1 $203 $205 #
straight-curve $-1 66.642658772545559 -14.376140129025012 -2.9809702494775747 0 -1 0 I I #
face $-1 $-1 $206 $17 $-1 $207 reversed single #
loop $-1 $-1 $84 $78 #
plane-surface $-1 0 0 6.8651568853409932 0 0 1 1 0 0 forward_v I I I I #
coedge $-1 $208 $209 $210 $211 reversed $79 $-1 #
coedge $-1 $212 $81 $83 $145 forward $49 $-1 #
coedge $-1 $81 $212 $208 $213 forward $49 $-1 #
coedge $-1 $210 $84 $81 $142 forward $136 $-1 #
edge $-1 $148 -14.113322114919086 $214 -7.0629380338123298 $141 $215 forward 7 unknown #
coedge $-1 $216 $217 $82 $144 forward $206 $-1 #
edge $-1 $218 -36.465950821947651 $147 -33.118208199858728 $143 $219 forward 7 unknown #
edge $-1 $148 -4.0868390821791643 $218 7.429042623583945e-014 $83 $220 forward 7 unknown #
coedge $-1 $84 $210 $216 $221 forward $136 $-1 #
vertex $-1 $144 $222 #
vertex $-1 $85 $223 #
straight-curve $-1 -87.911800098717094 -24.701452189284794 6.8651568853409941 1 0 0 I I #
coedge $-1 $150 $150 $-1 $224 reversed $88 $-1 #
edge $-1 $225 0 $225 6.2831853071796004 $89 $226 forward 7 unknown #
vertex $-1 $92 $227 #
ellipse-curve $-1 -65.470601497934268 -22.687056737540004 5.1912855742965442 -0.81915205242281985 0 0.57357642473473569 0.28678821236736785 0 0.40957602621140993 1 I I #
coedge $-1 $154 $154 $-1 $228 reversed $95 $-1 #
edge $-1 $229 0 $229 6.2831853071796004 $96 $230 forward 7 unknown #
vertex $-1 $99 $231 #
ellipse-curve $-1 -65.470601497934268 -19.665463559922824 5.1912855742965442 -0.81915205242281985 0 0.57357642473473569 0.28678821236736785 0 0.40957602621140993 1 I I #
face $-1 $-1 $115 $15 $-1 $232 reversed single #
loop $-1 $-1 $174 $100 #
plane-surface $-1 0 32.803108326815256 0 0 -1 0 0 0 -1 forward_v I I I I #
coedge $-1 $233 $172 $175 $234 forward $101 $-1 #
coedge $-1 $178 $103 $104 $166 reversed $63 $-1 #
coedge $-1 $172 $233 $103 $164 reversed $101 $-1 #
edge $-1 $179 -6.8651568853409932 $235 6.8651568853409932 $163 $236 forward 7 unknown #
coedge $-1 $105 $104 $233 $237 forward $41 $-1 #
edge $-1 $170 -66.642658772545559 $235 66.642658772545559 $162 $238 forward 7 unknown #
coedge $-1 $175 $174 $105 $168 reversed $159 $-1 #
edge $-1 $239 -66.642658772545559 $169 66.642658772545559 $167 $240 forward 7 unknown #
vertex $-1 $107 $241 #
vertex $-1 $181 $242 #
straight-curve $-1 66.642658772545559 0 -6.8651568853409932 0 -1 0 I I #
coedge $-1 $161 $163 $108 $173 reversed $101 $-1 #
edge $-1 $176 -32.803108326815256 $179 32.803108326815256 $172 $243 forward 7 unknown #
coedge $-1 $167 $109 $114 $182 forward $159 $-1 #
coedge $-1 $109 $167 $161 $234 reversed $159 $-1 #
vertex $-1 $110 $244 #
straight-curve $-1 0 32.803108326815256 6.8651568853409932 -1 0 0 I I #
coedge $-1 $111 $162 $113 $181 reversed $63 $-1 #
vertex $-1 $173 $245 #
straight-curve $-1 0 -32.803108326815256 6.8651568853409932 1 0 0 I I #
edge $-1 $116 -6.8651568853409932 $170 6.8651568853409932 $113 $246 forward 7 unknown #
edge $-1 $117 -6.8651568853409932 $169 6.8651568853409932 $114 $247 forward 7 unknown #
point $-1 66.642658772545559 -32.803108326815256 6.8651568853409932 #
point $-1 66.642658772545559 32.803108326815256 6.8651568853409932 #
face $-1 $-1 $248 $16 $-1 $249 reversed single #
loop $-1 $-1 $129 $119 #
plane-surface $-1 0 -32.803108326815256 0 0 1 0 0 0 1 forward_v I I I I #
coedge $-1 $250 $122 $192 $251 forward $71 $-1 #
coedge $-1 $122 $250 $252 $253 forward $71 $-1 #
edge $-1 $254 -66.642658772545559 $193 66.642658772545559 $122 $255 forward 7 unknown #
coedge $-1 $124 $123 $256 $257 reversed $45 $-1 #
coedge $-1 $125 $131 $188 $251 reversed $120 $-1 #
vertex $-1 $251 $258 #
straight-curve $-1 66.642658772545559 -24.701452189284794 -2.461531783704642 0 0 1 I I #
coedge $-1 $256 $259 $127 $196 forward $248 $-1 #
edge $-1 $201 -18.426968197790245 $197 -10.325312060259781 $195 $260 forward 7 unknown #
vertex $-1 $196 $261 #
straight-curve $-1 0 -24.701452189284794 -2.9809702494775747 -1 0 0 I I #
coedge $-1 $262 $129 $259 $263 forward $186 $-1 #
coedge $-1 $129 $262 $131 $203 reversed $186 $-1 #
vertex $-1 $263 $264 #
straight-curve $-1 0 -32.803108326815256 -2.9809702494775747 -1 0 0 I I #
edge $-1 $133 2.9809702494775747 $265 6.8651568853409932 $131 $266 forward 7 unknown #
point $-1 66.642658772545559 -24.701452189284794 -2.9809702494775747 #
point $-1 66.642658772545559 -32.803108326815256 -2.9809702494775747 #
loop $-1 $-1 $143 $135 #
plane-surface $-1 -66.642658772545559 0 0 1 0 0 0 0 -1 forward_v I I I I #
coedge $-1 $209 $138 $140 $213 reversed $79 $-1 #
coedge $-1 $138 $208 $267 $268 reversed $79 $-1 #
coedge $-1 $146 $141 $138 $211 forward $136 $-1 #
edge $-1 $214 -23.613255875394088 $269 -21.269141326171535 $210 $270 forward 7 unknown #
coedge $-1 $140 $139 $217 $271 reversed $49 $-1 #
edge $-1 $272 -7.429042623583945e-014 $214 4.0868390821791643 $208 $273 forward 7 unknown #
vertex $-1 $142 $274 #
straight-curve $-1 -64.298544223323006 -10.588130074365708 6.8651568853409941 0 1 0 I I #
coedge $-1 $267 $143 $146 $221 reversed $206 $-1 #
coedge $-1 $143 $267 $212 $271 forward $206 $-1 #
vertex $-1 $144 $275 #
straight-curve $-1 -66.642658772545559 -24.701452189284794 39.983365085199722 0 0 1 I I #
straight-curve $-1 -66.642658772545516 -24.701452189284794 3.5174142632521352 -0.57357642473473569 0 -0.81915205242281985 I I #
edge $-1 $269 17.651068108178038 $147 24.701452189284794 $216 $276 forward 7 unknown #
point $-1 -66.642658772545559 -24.701452189284794 6.8651568853409932 #
point $-1 -64.298544223323006 -24.701452189284794 6.8651568853409932 #
edge $-1 $277 1 $277 0 $150 $-1 forward 7 unknown #
vertex $-1 $151 $278 #
ellipse-curve $-1 -63.98368065226547 -22.687056737540004 4.150132420862171 -0.81915205242281985 0 0.57357642473473569 0.28678821236736785 0 0.40957602621140993 1 I I #
point $-1 -65.183813285566941 -22.687056737540004 5.6008616005079812 #
edge $-1 $279 1 $279 0 $154 $-1 forward 7 unknown #
vertex $-1 $155 $280 #
ellipse-curve $-1 -63.98368065226547 -19.665463559922824 4.150132420862171 -0.81915205242281985 0 0.57357642473473569 0.28678821236736785 0 0.40957602621140993 1 I I #
point $-1 -65.183813285566941 -19.665463559922824 5.6008616005079812 #
plane-surface $-1 66.642658772545559 0 0 -1 0 0 0 0 1 forward_v I I I I #
coedge $-1 $163 $161 $165 $237 reversed $101 $-1 #
edge $-1 $176 -6.8651568853409932 $239 6.8651568853409932 $175 $281 forward 7 unknown #
vertex $-1 $237 $282 #
straight-curve $-1 -66.642658772545559 -32.803108326815256 0 0 0 -1 I I #
edge $-1 $235 -32.803108326815256 $239 32.803108326815256 $233 $283 forward 7 unknown #
straight-curve $-1 0 -32.803108326815256 -6.8651568853409932 -1 0 0 I I #
vertex $-1 $168 $284 #
straight-curve $-1 0 32.803108326815256 -6.8651568853409932 1 0 0 I I #
point $-1 66.642658772545559 32.803108326815256 -6.8651568853409932 #
point $-1 66.642658772545559 -32.803108326815256 -6.8651568853409932 #
straight-curve $-1 -66.642658772545559 0 6.8651568853409932 0 -1 0 I I #
point $-1 -66.642658772545559 32.803108326815256 6.8651568853409932 #
point $-1 -66.642658772545559 -32.803108326815256 6.8651568853409932 #
straight-curve $-1 66.642658772545559 -32.803108326815256 0 0 0 -1 I I #
straight-curve $-1 66.642658772545559 32.803108326815256 0 0 0 -1 I I #
loop $-1 $-1 $256 $185 #
plane-surface $-1 -66.642658772545559 0 0 1 0 0 0 0 -1 forward_v I I I I #
coedge $-1 $189 $188 $262 $285 forward $71 $-1 #
edge $-1 $193 24.701452189284794 $265 32.803108326815256 $192 $286 forward 7 unknown #
coedge $-1 $259 $256 $189 $253 reversed $248 $-1 #
edge $-1 $287 -32.803108326815256 $254 -24.701452189284794 $252 $288 forward 7 unknown #
vertex $-1 $257 $289 #
straight-curve $-1 0 -24.701452189284794 -6.8651568853409932 1 0 0 I I #
coedge $-1 $252 $195 $191 $257 forward $248 $-1 #
edge $-1 $197 0.51943846577293273 $254 4.4036251016363508 $256 $290 forward 7 unknown #
point $-1 66.642658772545559 -24.701452189284794 -6.8651568853409932 #
coedge $-1 $195 $252 $199 $263 reversed $248 $-1 #
straight-curve $-1 -66.642658772545559 -14.376140129025012 -2.9809702494775747 0 1 0 I I #
point $-1 -66.642658772545559 -24.701452189284794 -2.9809702494775747 #
coedge $-1 $200 $199 $250 $285 reversed $186 $-1 #
edge $-1 $201 2.9809702494775747 $287 6.8651568853409932 $259 $291 forward 7 unknown #
point $-1 -66.642658772545559 -32.803108326815256 -2.9809702494775747 #
vertex $-1 $203 $292 #
straight-curve $-1 66.642658772545559 -32.803108326815256 0 0 0 -1 I I #
coedge $-1 $217 $216 $209 $268 forward $206 $-1 #
edge $-1 $269 33.118208199858728 $272 36.465950821947651 $267 $293 forward 7 unknown #
vertex $-1 $221 $294 #
straight-curve $-1 -87.911800098717094 -17.651068108178038 6.8651568853409941 -1 0 0 I I #
edge $-1 $272 7.0629380338123298 $218 14.113322114919086 $217 $295 forward 7 unknown #
vertex $-1 $271 $296 #
straight-curve $-1 -66.642658772545516 -17.651068108178038 3.5174142632521352 0.57357642473473569 0 0.81915205242281985 I I #
point $-1 -64.298544223323006 -17.651068108178038 6.8651568853409932 #
point $-1 -66.642658772545559 -24.701452189284794 3.5174142632520744 #
straight-curve $-1 -66.642658772545559 0 6.8651568853409932 0 -1 0 I I #
vertex $-1 $224 $297 #
point $-1 -63.6968924398981 -22.687056737540004 4.5597084470735814 #
vertex $-1 $228 $298 #
point $-1 -63.6968924398981 -19.665463559922824 4.5597084470735814 #
straight-curve $-1 -66.642658772545559 32.803108326815256 0 0 0 -1 I I #
point $-1 -66.642658772545559 -32.803108326815256 -6.8651568853409932 #
straight-curve $-1 -66.642658772545559 0 -6.8651568853409932 0 1 0 I I #
point $-1 -66.642658772545559 32.803108326815256 -6.8651568853409932 #
edge $-1 $265 -66.642658772545559 $287 66.642658772545559 $262 $299 forward 7 unknown #
straight-curve $-1 66.642658772545559 0 -6.8651568853409932 0 -1 0 I I #
vertex $-1 $253 $300 #
straight-curve $-1 -66.642658772545559 0 -6.8651568853409932 0 1 0 I I #
point $-1 -66.642658772545559 -24.701452189284794 -6.8651568853409932 #
straight-curve $-1 -66.642658772545559 -24.701452189284794 -2.461531783704642 0 0 -1 I I #
straight-curve $-1 -66.642658772545559 -32.803108326815256 0 0 0 -1 I I #
point $-1 66.642658772545559 -32.803108326815256 -6.8651568853409932 #
straight-curve $-1 -66.642658772545559 -17.651068108178038 39.983365085199722 0 0 -1 I I #
point $-1 -66.642658772545559 -17.651068108178038 6.8651568853409932 #
straight-curve $-1 -66.642658772545559 -10.588130074365708 3.51741426325207 0 -1 0 I I #
point $-1 -66.642658772545559 -17.651068108178038 3.5174142632520744 #
point $-1 -63.574104626054059 -22.687056737540004 3.8633442084948033 #
point $-1 -63.574104626054059 -19.665463559922824 3.8633442084948033 #
straight-curve $-1 0 -32.803108326815256 -6.8651568853409932 -1 0 0 I I #
point $-1 -66.642658772545559 -32.803108326815256 -6.8651568853409932 #
End-of-ACIS-data 