500 0 16 0           
7 Unknown 11 ACIS 5.0 NT 24 Fri Mar 26 03:11:39 1999 
-1 9.9999999999999995e-007 1e-010 
body $-1 $16 $-1 $17 #
body $-1 $18 $-1 $19 #
body $-1 $20 $-1 $21 #
body $-1 $22 $-1 $23 #
body $-1 $24 $-1 $25 #
body $-1 $26 $-1 $27 #
body $-1 $28 $-1 $29 #
body $-1 $30 $-1 $31 #
body $-1 $32 $-1 $33 #
body $-1 $34 $-1 $35 #
body $-1 $36 $-1 $37 #
body $-1 $38 $-1 $39 #
body $-1 $40 $-1 $41 #
body $-1 $42 $-1 $43 #
body $-1 $44 $-1 $45 #
body $-1 $46 $-1 $47 #
lump $-1 $-1 $48 $0 #
transform $-1 1 0 0 0 1 0 0 0 1 73.39701528977325 49.529265519618832 23.57700057136481 1 rotate no_reflect no_shear #
lump $-1 $-1 $49 $1 #
transform $-1 1 0 0 0 1 0 0 0 1 73.39701528977325 49.529265519618832 23.57700057136481 1 rotate no_reflect no_shear #
lump $-1 $-1 $50 $2 #
transform $-1 1 0 0 0 1 0 0 0 1 73.39701528977325 49.529265519618832 23.57700057136481 1 rotate no_reflect no_shear #
lump $-1 $-1 $51 $3 #
transform $-1 1 0 0 0 1 0 0 0 1 73.39701528977325 49.529265519618832 23.57700057136481 1 rotate no_reflect no_shear #
lump $-1 $-1 $52 $4 #
transform $-1 1 0 0 0 1 0 0 0 1 73.39701528977325 49.529265519618832 23.57700057136481 1 rotate no_reflect no_shear #
lump $-1 $-1 $53 $5 #
transform $-1 1 0 0 0 1 0 0 0 1 73.39701528977325 49.529265519618832 23.57700057136481 1 rotate no_reflect no_shear #
lump $-1 $-1 $54 $6 #
transform $-1 1 0 0 0 1 0 0 0 1 73.39701528977325 49.529265519618832 23.57700057136481 1 rotate no_reflect no_shear #
lump $-1 $-1 $55 $7 #
transform $-1 1 0 0 0 1 0 0 0 1 73.39701528977325 49.529265519618832 23.57700057136481 1 rotate no_reflect no_shear #
lump $-1 $-1 $56 $8 #
transform $-1 1 0 0 0 1 0 0 0 1 73.39701528977325 49.529265519618832 23.57700057136481 1 rotate no_reflect no_shear #
lump $-1 $-1 $57 $9 #
transform $-1 1 0 0 0 1 0 0 0 1 73.39701528977325 49.529265519618832 23.57700057136481 1 rotate no_reflect no_shear #
lump $-1 $-1 $58 $10 #
transform $-1 1 0 0 0 1 0 0 0 1 73.39701528977325 49.529265519618832 23.57700057136481 1 rotate no_reflect no_shear #
lump $-1 $-1 $59 $11 #
transform $-1 1 0 0 0 1 0 0 0 1 73.39701528977325 49.529265519618832 23.57700057136481 1 rotate no_reflect no_shear #
lump $-1 $-1 $60 $12 #
transform $-1 1 0 0 0 1 0 0 0 1 73.39701528977325 49.529265519618832 23.57700057136481 1 rotate no_reflect no_shear #
lump $-1 $-1 $61 $13 #
transform $-1 1 0 0 0 1 0 0 0 1 73.39701528977325 49.529265519618832 23.57700057136481 1 rotate no_reflect no_shear #
lump $-1 $-1 $62 $14 #
transform $-1 1 0 0 0 1 0 0 0 1 73.39701528977325 49.529265519618832 23.57700057136481 1 rotate no_reflect no_shear #
lump $-1 $-1 $63 $15 #
transform $-1 1 0 0 0 1 0 0 0 1 73.39701528977325 49.529265519618832 23.57700057136481 1 rotate no_reflect no_shear #
shell $-1 $-1 $-1 $64 $-1 $16 #
shell $-1 $-1 $-1 $65 $-1 $18 #
shell $-1 $-1 $-1 $66 $-1 $20 #
shell $-1 $-1 $-1 $67 $-1 $22 #
shell $-1 $-1 $-1 $68 $-1 $24 #
shell $-1 $-1 $-1 $69 $-1 $26 #
shell $-1 $-1 $-1 $70 $-1 $28 #
shell $-1 $-1 $-1 $71 $-1 $30 #
shell $-1 $-1 $-1 $72 $-1 $32 #
shell $-1 $-1 $-1 $73 $-1 $34 #
shell $-1 $-1 $-1 $74 $-1 $36 #
shell $-1 $-1 $-1 $75 $-1 $38 #
shell $-1 $-1 $-1 $76 $-1 $40 #
shell $-1 $-1 $-1 $77 $-1 $42 #
shell $-1 $-1 $-1 $78 $-1 $44 #
shell $-1 $-1 $-1 $79 $-1 $46 #
face $-1 $80 $81 $48 $-1 $82 forward single #
face $-1 $83 $84 $49 $-1 $85 forward single #
face $-1 $86 $87 $50 $-1 $88 reversed single #
face $-1 $89 $90 $51 $-1 $91 forward single #
face $-1 $92 $93 $52 $-1 $94 reversed single #
face $-1 $95 $96 $53 $-1 $97 forward single #
face $-1 $98 $99 $54 $-1 $100 forward single #
face $-1 $101 $102 $55 $-1 $103 reversed single #
face $-1 $104 $105 $56 $-1 $106 forward single #
face $-1 $107 $108 $57 $-1 $109 forward single #
face $-1 $110 $111 $58 $-1 $112 reversed single #
face $-1 $113 $114 $59 $-1 $115 forward single #
face $-1 $116 $117 $60 $-1 $118 forward single #
face $-1 $119 $120 $61 $-1 $121 reversed single #
face $-1 $122 $123 $62 $-1 $124 forward single #
face $-1 $125 $126 $63 $-1 $127 forward single #
face $-1 $128 $129 $48 $-1 $130 reversed single #
loop $-1 $-1 $131 $64 #
plane-surface $-1 0 0 23.57700057136481 0 0 1 1 0 0 forward_v I I I I #
face $-1 $132 $133 $49 $-1 $134 reversed single #
loop $-1 $-1 $135 $65 #
plane-surface $-1 0 -38.697192629470813 -17.674943474692032 0 0 1 1 0 0 forward_v I I I I #
face $-1 $136 $137 $50 $-1 $138 reversed single #
loop $-1 $-1 $139 $66 #
plane-surface $-1 80.64208732169449 29.145775870089103 207.71655763526729 0 1 0 0.73135370988377701 0 0.68199835119979291 forward_v I I I I #
face $-1 $140 $141 $51 $-1 $142 forward single #
loop $-1 $143 $144 $67 #
cone-surface $-1 59.246970394222096 39.337520694853964 8.8604357318987148 -0.73135370988377701 0 -0.68199835119979291 2.7279934047991716 0 -2.9254148395351081 1 I I 0 1 4 forward I I I I #
face $-1 $145 $146 $52 $-1 $147 reversed single #
loop $-1 $-1 $148 $68 #
plane-surface $-1 -187.47740453542139 -24.562162306644723 101.70973700015003 0 1 0 -0.77714596973225614 0 0.62932038083071107 forward_v I I I I #
face $-1 $149 $150 $53 $-1 $151 forward single #
loop $-1 $152 $153 $69 #
cone-surface $-1 -66.230106472830045 -20.844334025148108 15.320961393336693 0.77714596973225614 0 -0.62932038083071107 0.62932038083071107 0 0.77714596973225614 1 I I 0 1 1 forward I I I I #
face $-1 $154 $155 $54 $-1 $156 forward single #
loop $-1 $157 $158 $70 #
cone-surface $-1 -66.230106472830045 -15.267591602903188 15.320961393336693 0.77714596973225614 0 -0.62932038083071107 0.62932038083071107 0 0.77714596973225614 1 I I 0 1 1 forward I I I I #
face $-1 $159 $160 $55 $-1 $161 reversed single #
loop $-1 $-1 $162 $71 #
plane-surface $-1 -187.47740453542139 -5.3034718371956142 101.70973700015003 0 1 0 -0.77714596973225614 0 0.62932038083071107 forward_v I I I I #
face $-1 $163 $164 $56 $-1 $165 forward single #
loop $-1 $166 $167 $72 #
cone-surface $-1 -66.230106472830045 -1.5856435556989936 15.320961393336693 0.77714596973225614 0 -0.62932038083071107 0.62932038083071107 0 0.77714596973225614 1 I I 0 1 1 forward I I I I #
face $-1 $168 $169 $57 $-1 $170 forward single #
loop $-1 $171 $172 $73 #
cone-surface $-1 -66.230106472830045 3.9910988665459257 15.320961393336693 0.77714596973225614 0 -0.62932038083071107 0.62932038083071107 0 0.77714596973225614 1 I I 0 1 1 forward I I I I #
face $-1 $173 $174 $58 $-1 $175 reversed single #
loop $-1 $-1 $176 $74 #
plane-surface $-1 -187.47740453542139 13.955218632253493 101.70973700015003 0 1 0 -0.77714596973225614 0 0.62932038083071107 forward_v I I I I #
face $-1 $177 $178 $59 $-1 $179 forward single #
loop $-1 $180 $181 $75 #
cone-surface $-1 -66.230106472830045 17.673046913750113 15.320961393336693 0.77714596973225614 0 -0.62932038083071107 0.62932038083071107 0 0.77714596973225614 1 I I 0 1 1 forward I I I I #
face $-1 $182 $183 $60 $-1 $184 forward single #
loop $-1 $185 $186 $76 #
cone-surface $-1 -66.230106472830045 23.249789335995033 15.320961393336693 0.77714596973225614 0 -0.62932038083071107 0.62932038083071107 0 0.77714596973225614 1 I I 0 1 1 forward I I I I #
face $-1 $187 $188 $61 $-1 $189 reversed single #
loop $-1 $-1 $190 $77 #
plane-surface $-1 -187.47740453542139 33.213909101702598 101.70973700015003 0 1 0 -0.77714596973225614 0 0.62932038083071107 forward_v I I I I #
face $-1 $191 $192 $62 $-1 $193 forward single #
loop $-1 $194 $195 $78 #
cone-surface $-1 -66.230106472830045 36.93173738319922 15.320961393336693 0.77714596973225614 0 -0.62932038083071107 0.62932038083071107 0 0.77714596973225614 1 I I 0 1 1 forward I I I I #
face $-1 $196 $197 $63 $-1 $198 forward single #
loop $-1 $199 $200 $79 #
cone-surface $-1 -66.230106472830045 42.508479805444139 15.320961393336693 0.77714596973225614 0 -0.62932038083071107 0.62932038083071107 0 0.77714596973225614 1 I I 0 1 1 forward I I I I #
face $-1 $201 $202 $48 $-1 $203 reversed single #
loop $-1 $-1 $204 $80 #
plane-surface $-1 0 0 -23.57700057136481 0 0 1 1 0 0 forward_v I I I I #
coedge $-1 $205 $206 $207 $208 forward $81 $-1 #
face $-1 $209 $210 $49 $-1 $211 reversed single #
loop $-1 $-1 $212 $83 #
plane-surface $-1 0 -27.865119739322793 -20.625972023028421 0 -1 0 0 0 -1 forward_v I I I I #
coedge $-1 $213 $214 $215 $216 reversed $84 $-1 #
face $-1 $217 $218 $50 $-1 $219 forward single #
loop $-1 $-1 $220 $86 #
plane-surface $-1 -26.716271531449451 39.337520694853964 107.60327081404459 0.73135370988377701 0 0.68199835119979291 0.68199835119979291 0 -0.73135370988377701 forward_v I I I I #
coedge $-1 $221 $222 $223 $224 reversed $87 $-1 #
face $-1 $-1 $225 $51 $-1 $226 forward single #
loop $-1 $227 $228 $89 #
cone-surface $-1 54.512980124776334 39.337520694853964 4.4459184952651007 -0.73135370988377701 0 -0.68199835119979291 1.3639967023995858 0 -1.462707419767554 1 I I -0.70710678118654746 0.70710678118654746 2 forward I I I I #
loop $-1 $-1 $229 $67 #
coedge $-1 $144 $144 $230 $231 reversed $90 $-1 #
face $-1 $232 $233 $52 $-1 $234 reversed single #
loop $-1 $-1 $235 $92 #
plane-surface $-1 -73.397015289773265 -18.055962814025648 9.3292617721547799 -0.77714596973225614 0 0.62932038083071107 0.62932038083071107 0 0.77714596973225614 forward_v I I I I #
coedge $-1 $236 $237 $238 $239 reversed $93 $-1 #
face $-1 $-1 $240 $53 $-1 $241 forward single #
loop $-1 $242 $243 $95 #
cone-surface $-1 -64.443420210283719 -20.844334025148108 13.874131424498241 0.77714596973225614 0 -0.62932038083071107 0.31466019041535553 0 0.38857298486612807 1 I I -0.70710678118654746 0.70710678118654746 0.5 forward I I I I #
loop $-1 $-1 $244 $69 #
coedge $-1 $153 $153 $245 $246 reversed $96 $-1 #
face $-1 $-1 $247 $54 $-1 $248 forward single #
loop $-1 $249 $250 $98 #
cone-surface $-1 -64.443420210283719 -15.267591602903188 13.874131424498241 0.77714596973225614 0 -0.62932038083071107 0.31466019041535553 0 0.38857298486612807 1 I I -0.70710678118654746 0.70710678118654746 0.5 forward I I I I #
loop $-1 $-1 $251 $70 #
coedge $-1 $158 $158 $252 $253 reversed $99 $-1 #
face $-1 $254 $255 $55 $-1 $256 reversed single #
loop $-1 $-1 $257 $101 #
plane-surface $-1 -73.397015289773265 1.2027276554234589 9.3292617721547799 -0.77714596973225614 0 0.62932038083071107 0.62932038083071107 0 0.77714596973225614 forward_v I I I I #
coedge $-1 $258 $259 $260 $261 reversed $102 $-1 #
face $-1 $-1 $262 $56 $-1 $263 forward single #
loop $-1 $264 $265 $104 #
cone-surface $-1 -64.443420210283719 -1.5856435556989936 13.874131424498241 0.77714596973225614 0 -0.62932038083071107 0.31466019041535553 0 0.38857298486612807 1 I I -0.70710678118654746 0.70710678118654746 0.5 forward I I I I #
loop $-1 $-1 $266 $72 #
coedge $-1 $167 $167 $267 $268 reversed $105 $-1 #
face $-1 $-1 $269 $57 $-1 $270 forward single #
loop $-1 $271 $272 $107 #
cone-surface $-1 -64.443420210283719 3.9910988665459257 13.874131424498241 0.77714596973225614 0 -0.62932038083071107 0.31466019041535553 0 0.38857298486612807 1 I I -0.70710678118654746 0.70710678118654746 0.5 forward I I I I #
loop $-1 $-1 $273 $73 #
coedge $-1 $172 $172 $274 $275 reversed $108 $-1 #
face $-1 $276 $277 $58 $-1 $278 reversed single #
loop $-1 $-1 $279 $110 #
plane-surface $-1 -73.397015289773265 20.461418124872566 9.3292617721547799 -0.77714596973225614 0 0.62932038083071107 0.62932038083071107 0 0.77714596973225614 forward_v I I I I #
coedge $-1 $280 $281 $282 $283 reversed $111 $-1 #
face $-1 $-1 $284 $59 $-1 $285 forward single #
loop $-1 $286 $287 $113 #
cone-surface $-1 -64.443420210283719 17.673046913750113 13.874131424498241 0.77714596973225614 0 -0.62932038083071107 0.31466019041535553 0 0.38857298486612807 1 I I -0.70710678118654746 0.70710678118654746 0.5 forward I I I I #
loop $-1 $-1 $288 $75 #
coedge $-1 $181 $181 $289 $290 reversed $114 $-1 #
face $-1 $-1 $291 $60 $-1 $292 forward single #
loop $-1 $293 $294 $116 #
cone-surface $-1 -64.443420210283719 23.249789335995033 13.874131424498241 0.77714596973225614 0 -0.62932038083071107 0.31466019041535553 0 0.38857298486612807 1 I I -0.70710678118654746 0.70710678118654746 0.5 forward I I I I #
loop $-1 $-1 $295 $76 #
coedge $-1 $186 $186 $296 $297 reversed $117 $-1 #
face $-1 $298 $299 $61 $-1 $300 reversed single #
loop $-1 $-1 $301 $119 #
plane-surface $-1 -73.397015289773265 39.720108594321673 9.3292617721547799 -0.77714596973225614 0 0.62932038083071107 0.62932038083071107 0 0.77714596973225614 forward_v I I I I #
coedge $-1 $302 $303 $304 $305 reversed $120 $-1 #
face $-1 $-1 $306 $62 $-1 $307 forward single #
loop $-1 $308 $309 $122 #
cone-surface $-1 -64.443420210283719 36.93173738319922 13.874131424498241 0.77714596973225614 0 -0.62932038083071107 0.31466019041535553 0 0.38857298486612807 1 I I -0.70710678118654746 0.70710678118654746 0.5 forward I I I I #
loop $-1 $-1 $310 $78 #
coedge $-1 $195 $195 $311 $312 reversed $123 $-1 #
face $-1 $-1 $313 $63 $-1 $314 forward single #
loop $-1 $315 $316 $125 #
cone-surface $-1 -64.443420210283719 42.508479805444139 13.874131424498241 0.77714596973225614 0 -0.62932038083071107 0.31466019041535553 0 0.38857298486612807 1 I I -0.70710678118654746 0.70710678118654746 0.5 forward I I I I #
loop $-1 $-1 $317 $79 #
coedge $-1 $200 $200 $318 $319 reversed $126 $-1 #
face $-1 $320 $321 $48 $-1 $322 reversed single #
loop $-1 $-1 $323 $128 #
plane-surface $-1 0 -49.529265519618832 0 0 1 0 0 0 1 forward_v I I I I #
coedge $-1 $324 $325 $326 $327 forward $129 $-1 #
coedge $-1 $328 $131 $329 $330 forward $81 $-1 #
coedge $-1 $131 $328 $331 $332 forward $81 $-1 #
coedge $-1 $333 $334 $131 $208 reversed $335 $-1 #
edge $-1 $336 -49.529265519618832 $337 49.529265519618832 $207 $338 forward 7 unknown #
face $-1 $339 $340 $49 $-1 $341 reversed single #
loop $-1 $-1 $342 $132 #
plane-surface $-1 0 0 -23.57700057136481 0 0 1 1 0 0 forward_v I I I I #
coedge $-1 $343 $344 $345 $346 reversed $133 $-1 #
coedge $-1 $347 $135 $344 $348 forward $84 $-1 #
coedge $-1 $135 $347 $349 $350 reversed $84 $-1 #
coedge $-1 $351 $345 $135 $216 forward $340 $-1 #
edge $-1 $352 8.5165234245873869 $353 30.180669204883426 $215 $354 forward 7 unknown #
face $-1 $355 $356 $50 $-1 $357 reversed single #
loop $-1 $-1 $358 $136 #
plane-surface $-1 0 0 23.57700057136481 0 0 1 1 0 0 forward_v I I I I #
coedge $-1 $359 $360 $361 $362 reversed $137 $-1 #
coedge $-1 $222 $139 $363 $364 reversed $87 $-1 #
coedge $-1 $139 $221 $359 $365 reversed $87 $-1 #
coedge $-1 $361 $366 $139 $224 forward $367 $-1 #
edge $-1 $368 80.28127824626884 $369 103.61336685673299 $223 $370 forward 7 unknown #
loop $-1 $-1 $230 $140 #
plane-surface $-1 -26.716271531449451 39.337520694853964 107.60327081404459 0.73135370988377701 0 0.68199835119979291 0.68199835119979291 0 -0.73135370988377701 forward_v I I I I #
loop $-1 $-1 $371 $89 #
coedge $-1 $228 $228 $229 $372 reversed $141 $-1 #
coedge $-1 $229 $229 $228 $372 forward $143 $-1 #
coedge $-1 $230 $230 $144 $231 forward $225 $-1 #
edge $-1 $373 0 $373 6.2831853071796004 $230 $374 forward 7 unknown #
face $-1 $375 $376 $52 $-1 $377 reversed single #
loop $-1 $-1 $378 $145 #
plane-surface $-1 -187.47740453542139 -11.549763321406575 101.70973700015003 0 -1 0 0.77714596973225614 0 -0.62932038083071107 forward_v I I I I #
coedge $-1 $379 $380 $381 $382 reversed $146 $-1 #
coedge $-1 $237 $148 $383 $384 reversed $93 $-1 #
coedge $-1 $148 $236 $379 $385 reversed $93 $-1 #
coedge $-1 $381 $386 $148 $239 forward $387 $-1 #
edge $-1 $388 20.341686977937442 $389 31.879278056463477 $238 $390 forward 7 unknown #
loop $-1 $-1 $245 $149 #
plane-surface $-1 -73.397015289773265 -18.055962814025648 9.3292617721547799 -0.77714596973225614 0 0.62932038083071107 0.62932038083071107 0 0.77714596973225614 forward_v I I I I #
loop $-1 $-1 $391 $95 #
coedge $-1 $243 $243 $244 $392 reversed $150 $-1 #
coedge $-1 $244 $244 $243 $392 forward $152 $-1 #
coedge $-1 $245 $245 $153 $246 forward $240 $-1 #
edge $-1 $393 0 $393 6.2831853071796004 $245 $394 forward 7 unknown #
loop $-1 $-1 $252 $154 #
plane-surface $-1 -73.397015289773265 -18.055962814025648 9.3292617721547799 -0.77714596973225614 0 0.62932038083071107 0.62932038083071107 0 0.77714596973225614 forward_v I I I I #
loop $-1 $-1 $395 $98 #
coedge $-1 $250 $250 $251 $396 reversed $155 $-1 #
coedge $-1 $251 $251 $250 $396 forward $157 $-1 #
coedge $-1 $252 $252 $158 $253 forward $247 $-1 #
edge $-1 $397 0 $397 6.2831853071796004 $252 $398 forward 7 unknown #
face $-1 $399 $400 $55 $-1 $401 forward single #
loop $-1 $-1 $402 $159 #
plane-surface $-1 -187.47740453542139 7.7089271480425321 101.70973700015003 0 -1 0 0.77714596973225614 0 -0.62932038083071107 forward_v I I I I #
coedge $-1 $403 $404 $405 $406 reversed $160 $-1 #
coedge $-1 $259 $162 $407 $408 reversed $102 $-1 #
coedge $-1 $162 $258 $403 $409 reversed $102 $-1 #
coedge $-1 $405 $410 $162 $261 forward $400 $-1 #
edge $-1 $411 20.341686977937442 $412 31.879278056463477 $260 $413 forward 7 unknown #
loop $-1 $-1 $267 $163 #
plane-surface $-1 -73.397015289773265 1.2027276554234589 9.3292617721547799 -0.77714596973225614 0 0.62932038083071107 0.62932038083071107 0 0.77714596973225614 forward_v I I I I #
loop $-1 $-1 $414 $104 #
coedge $-1 $265 $265 $266 $415 reversed $164 $-1 #
coedge $-1 $266 $266 $265 $415 forward $166 $-1 #
coedge $-1 $267 $267 $167 $268 forward $262 $-1 #
edge $-1 $416 0 $416 6.2831853071796004 $267 $417 forward 7 unknown #
loop $-1 $-1 $274 $168 #
plane-surface $-1 -73.397015289773265 1.2027276554234589 9.3292617721547799 -0.77714596973225614 0 0.62932038083071107 0.62932038083071107 0 0.77714596973225614 forward_v I I I I #
loop $-1 $-1 $418 $107 #
coedge $-1 $272 $272 $273 $419 reversed $169 $-1 #
coedge $-1 $273 $273 $272 $419 forward $171 $-1 #
coedge $-1 $274 $274 $172 $275 forward $269 $-1 #
edge $-1 $420 0 $420 6.2831853071796004 $274 $421 forward 7 unknown #
face $-1 $422 $423 $58 $-1 $424 forward single #
loop $-1 $-1 $425 $173 #
plane-surface $-1 -187.47740453542139 26.967617617491641 101.70973700015003 0 -1 0 0.77714596973225614 0 -0.62932038083071107 forward_v I I I I #
coedge $-1 $426 $427 $428 $429 reversed $174 $-1 #
coedge $-1 $281 $176 $430 $431 reversed $111 $-1 #
coedge $-1 $176 $280 $426 $432 reversed $111 $-1 #
coedge $-1 $428 $433 $176 $283 forward $423 $-1 #
edge $-1 $434 20.341686977937442 $435 31.879278056463477 $282 $436 forward 7 unknown #
loop $-1 $-1 $289 $177 #
plane-surface $-1 -73.397015289773265 20.461418124872566 9.3292617721547799 -0.77714596973225614 0 0.62932038083071107 0.62932038083071107 0 0.77714596973225614 forward_v I I I I #
loop $-1 $-1 $437 $113 #
coedge $-1 $287 $287 $288 $438 reversed $178 $-1 #
coedge $-1 $288 $288 $287 $438 forward $180 $-1 #
coedge $-1 $289 $289 $181 $290 forward $284 $-1 #
edge $-1 $439 0 $439 6.2831853071796004 $289 $440 forward 7 unknown #
loop $-1 $-1 $296 $182 #
plane-surface $-1 -73.397015289773265 20.461418124872566 9.3292617721547799 -0.77714596973225614 0 0.62932038083071107 0.62932038083071107 0 0.77714596973225614 forward_v I I I I #
loop $-1 $-1 $441 $116 #
coedge $-1 $294 $294 $295 $442 reversed $183 $-1 #
coedge $-1 $295 $295 $294 $442 forward $185 $-1 #
coedge $-1 $296 $296 $186 $297 forward $291 $-1 #
edge $-1 $443 0 $443 6.2831853071796004 $296 $444 forward 7 unknown #
face $-1 $445 $446 $61 $-1 $447 forward single #
loop $-1 $-1 $448 $187 #
plane-surface $-1 -187.47740453542139 46.226308086940747 101.70973700015003 0 -1 0 0.77714596973225614 0 -0.62932038083071107 forward_v I I I I #
coedge $-1 $449 $450 $451 $452 reversed $188 $-1 #
coedge $-1 $303 $190 $453 $454 reversed $120 $-1 #
coedge $-1 $190 $302 $449 $455 reversed $120 $-1 #
coedge $-1 $451 $456 $190 $305 forward $446 $-1 #
edge $-1 $457 20.341686977937442 $458 31.879278056463477 $304 $459 forward 7 unknown #
loop $-1 $-1 $311 $191 #
plane-surface $-1 -73.397015289773265 39.720108594321673 9.3292617721547799 -0.77714596973225614 0 0.62932038083071107 0.62932038083071107 0 0.77714596973225614 forward_v I I I I #
loop $-1 $-1 $460 $122 #
coedge $-1 $309 $309 $310 $461 reversed $192 $-1 #
coedge $-1 $310 $310 $309 $461 forward $194 $-1 #
coedge $-1 $311 $311 $195 $312 forward $306 $-1 #
edge $-1 $462 0 $462 6.2831853071796004 $311 $463 forward 7 unknown #
loop $-1 $-1 $318 $196 #
plane-surface $-1 -73.397015289773265 39.720108594321673 9.3292617721547799 -0.77714596973225614 0 0.62932038083071107 0.62932038083071107 0 0.77714596973225614 forward_v I I I I #
loop $-1 $-1 $464 $125 #
coedge $-1 $316 $316 $317 $465 reversed $197 $-1 #
coedge $-1 $317 $317 $316 $465 forward $199 $-1 #
coedge $-1 $318 $318 $200 $319 forward $313 $-1 #
edge $-1 $466 0 $466 6.2831853071796004 $318 $467 forward 7 unknown #
face $-1 $468 $469 $48 $-1 $470 reversed single #
loop $-1 $-1 $471 $201 #
plane-surface $-1 -73.39701528977325 0 0 1 0 0 0 0 -1 forward_v I I I I #
coedge $-1 $472 $331 $473 $474 forward $202 $-1 #
coedge $-1 $475 $204 $472 $476 forward $129 $-1 #
coedge $-1 $204 $475 $477 $478 forward $129 $-1 #
coedge $-1 $334 $333 $204 $327 reversed $335 $-1 #
edge $-1 $479 -49.529265519618832 $480 49.529265519618832 $326 $481 forward 7 unknown #
coedge $-1 $206 $205 $482 $483 forward $81 $-1 #
coedge $-1 $484 $485 $205 $330 reversed $469 $-1 #
edge $-1 $337 -73.39701528977325 $486 73.39701528977325 $329 $487 forward 7 unknown #
coedge $-1 $323 $488 $206 $332 reversed $202 $-1 #
edge $-1 $489 -73.39701528977325 $336 73.39701528977325 $331 $490 forward 7 unknown #
coedge $-1 $326 $207 $488 $491 forward $335 $-1 #
coedge $-1 $207 $326 $484 $492 reversed $335 $-1 #
loop $-1 $-1 $333 $468 #
vertex $-1 $208 $493 #
vertex $-1 $208 $494 #
straight-curve $-1 73.39701528977325 0 23.57700057136481 0 1 0 I I #
face $-1 $495 $496 $49 $-1 $497 reversed single #
loop $-1 $-1 $345 $209 #
plane-surface $-1 73.39701528977325 0 0 -1 0 0 0 0 1 forward_v I I I I #
coedge $-1 $498 $499 $343 $500 forward $210 $-1 #
coedge $-1 $501 $212 $342 $500 reversed $133 $-1 #
coedge $-1 $212 $501 $213 $348 reversed $133 $-1 #
coedge $-1 $215 $502 $212 $346 forward $340 $-1 #
edge $-1 $503 -13.264014559850599 $352 -7.3619574631778217 $345 $504 forward 7 unknown #
coedge $-1 $214 $213 $505 $506 reversed $84 $-1 #
edge $-1 $352 -73.39701528977325 $507 73.39701528977325 $344 $508 forward 7 unknown #
coedge $-1 $509 $510 $214 $350 forward $496 $-1 #
edge $-1 $353 -73.39701528977325 $511 73.39701528977325 $349 $512 forward 7 unknown #
coedge $-1 $502 $215 $510 $513 forward $340 $-1 #
vertex $-1 $216 $514 #
vertex $-1 $513 $515 #
straight-curve $-1 73.39701528977325 -19.348596314735406 -17.674943474692032 0 -1 0 I I #
face $-1 $-1 $367 $50 $-1 $516 reversed single #
loop $-1 $-1 $517 $217 #
plane-surface $-1 0 49.529265519618832 0 0 -1 0 0 0 -1 forward_v I I I I #
coedge $-1 $363 $518 $519 $520 forward $218 $-1 #
coedge $-1 $519 $220 $222 $365 forward $137 $-1 #
coedge $-1 $220 $519 $517 $521 reversed $137 $-1 #
coedge $-1 $522 $223 $220 $362 forward $367 $-1 #
edge $-1 $369 9.4770155226621213 $523 29.86050517219185 $361 $524 forward 7 unknown #
coedge $-1 $525 $358 $221 $364 forward $218 $-1 #
edge $-1 $526 11.318447537180099 $368 33.075971628926006 $363 $527 forward 7 unknown #
edge $-1 $369 -146.79403057954647 $526 -114.89142545818603 $222 $528 forward 7 unknown #
coedge $-1 $223 $522 $525 $529 reversed $367 $-1 #
loop $-1 $-1 $361 $355 #
vertex $-1 $529 $530 #
vertex $-1 $224 $531 #
straight-curve $-1 73.39701528977325 29.145775870089103 103.85827881763365 0 0 -1 I I #
coedge $-1 $371 $371 $-1 $532 reversed $227 $-1 #
edge $-1 $533 0 $533 6.2831853071796004 $228 $534 forward 7 unknown #
vertex $-1 $231 $535 #
ellipse-curve $-1 62.518253243900283 39.337520694853964 11.910956266132722 0.73135370988377701 0 0.68199835119979291 2.7279934047991716 0 -2.9254148395351081 1 I I #
face $-1 $-1 $387 $52 $-1 $536 forward single #
loop $-1 $-1 $537 $232 #
plane-surface $-1 -73.39701528977325 0 0 1 0 0 0 0 -1 forward_v I I I I #
coedge $-1 $538 $539 $540 $541 reversed $233 $-1 #
coedge $-1 $542 $235 $237 $385 forward $146 $-1 #
coedge $-1 $235 $542 $538 $543 forward $146 $-1 #
coedge $-1 $540 $238 $235 $382 forward $387 $-1 #
edge $-1 $389 -15.534180899631899 $544 -2.5217819143937508 $381 $545 forward 7 unknown #
coedge $-1 $546 $547 $236 $384 forward $376 $-1 #
edge $-1 $548 -41.52560672792022 $388 -27.277867928710204 $383 $549 forward 7 unknown #
edge $-1 $389 -18.333413997010997 $548 -2.2748066086763162e-014 $237 $550 forward 7 unknown #
coedge $-1 $238 $540 $546 $551 forward $387 $-1 #
loop $-1 $-1 $540 $375 #
vertex $-1 $384 $552 #
vertex $-1 $239 $553 #
straight-curve $-1 -93.738702267710693 -24.562162306644723 23.577000571364806 1 0 0 I I #
coedge $-1 $391 $391 $-1 $554 reversed $242 $-1 #
edge $-1 $555 0 $555 6.2831853071796004 $243 $556 forward 7 unknown #
vertex $-1 $246 $557 #
ellipse-curve $-1 -67.62821975051024 -20.844334025148108 16.453131171759793 -0.77714596973225614 0 0.62932038083071107 0.62932038083071107 0 0.77714596973225614 1 I I #
coedge $-1 $395 $395 $-1 $558 reversed $249 $-1 #
edge $-1 $559 0 $559 6.2831853071796004 $250 $560 forward 7 unknown #
vertex $-1 $253 $561 #
ellipse-curve $-1 -67.62821975051024 -15.267591602903188 16.453131171759793 -0.77714596973225614 0 0.62932038083071107 0.62932038083071107 0 0.77714596973225614 1 I I #
face $-1 $-1 $562 $55 $-1 $563 reversed single #
loop $-1 $-1 $260 $254 #
plane-surface $-1 0 0 23.57700057136481 0 0 1 1 0 0 forward_v I I I I #
coedge $-1 $564 $565 $566 $567 reversed $255 $-1 #
coedge $-1 $568 $257 $259 $409 forward $160 $-1 #
coedge $-1 $257 $568 $564 $569 forward $160 $-1 #
coedge $-1 $566 $260 $257 $406 forward $400 $-1 #
edge $-1 $412 -5.9048356649073437 $570 7.1075633203308026 $405 $571 forward 7 unknown #
coedge $-1 $572 $573 $258 $408 forward $562 $-1 #
edge $-1 $574 -41.52560672792022 $411 -27.277867928710204 $407 $575 forward 7 unknown #
edge $-1 $412 -18.333413997010997 $574 -2.2748066086763162e-014 $259 $576 forward 7 unknown #
coedge $-1 $260 $566 $572 $577 forward $400 $-1 #
vertex $-1 $408 $578 #
vertex $-1 $261 $579 #
straight-curve $-1 -93.738702267710693 -5.3034718371956142 23.577000571364806 1 0 0 I I #
coedge $-1 $414 $414 $-1 $580 reversed $264 $-1 #
edge $-1 $581 0 $581 6.2831853071796004 $265 $582 forward 7 unknown #
vertex $-1 $268 $583 #
ellipse-curve $-1 -67.62821975051024 -1.5856435556989936 16.453131171759793 -0.77714596973225614 0 0.62932038083071107 0.62932038083071107 0 0.77714596973225614 1 I I #
coedge $-1 $418 $418 $-1 $584 reversed $271 $-1 #
edge $-1 $585 0 $585 6.2831853071796004 $272 $586 forward 7 unknown #
vertex $-1 $275 $587 #
ellipse-curve $-1 -67.62821975051024 3.9910988665459257 16.453131171759793 -0.77714596973225614 0 0.62932038083071107 0.62932038083071107 0 0.77714596973225614 1 I I #
face $-1 $-1 $588 $58 $-1 $589 reversed single #
loop $-1 $-1 $282 $276 #
plane-surface $-1 0 0 23.57700057136481 0 0 1 1 0 0 forward_v I I I I #
coedge $-1 $590 $591 $592 $593 reversed $277 $-1 #
coedge $-1 $594 $279 $281 $432 forward $174 $-1 #
coedge $-1 $279 $594 $590 $595 forward $174 $-1 #
coedge $-1 $592 $282 $279 $429 forward $423 $-1 #
edge $-1 $435 3.7245095698172097 $596 16.736908555055358 $428 $597 forward 7 unknown #
coedge $-1 $598 $599 $280 $431 forward $588 $-1 #
edge $-1 $600 -41.52560672792022 $434 -27.277867928710204 $430 $601 forward 7 unknown #
edge $-1 $435 -18.333413997010997 $600 -2.2748066086763162e-014 $281 $602 forward 7 unknown #
coedge $-1 $282 $592 $598 $603 forward $423 $-1 #
vertex $-1 $283 $604 #
vertex $-1 $283 $605 #
straight-curve $-1 -93.738702267710693 13.955218632253493 23.577000571364806 1 0 0 I I #
coedge $-1 $437 $437 $-1 $606 reversed $286 $-1 #
edge $-1 $607 0 $607 6.2831853071796004 $287 $608 forward 7 unknown #
vertex $-1 $290 $609 #
ellipse-curve $-1 -67.62821975051024 17.673046913750113 16.453131171759793 -0.77714596973225614 0 0.62932038083071107 0.62932038083071107 0 0.77714596973225614 1 I I #
coedge $-1 $441 $441 $-1 $610 reversed $293 $-1 #
edge $-1 $611 0 $611 6.2831853071796004 $294 $612 forward 7 unknown #
vertex $-1 $297 $613 #
ellipse-curve $-1 -67.62821975051024 23.249789335995033 16.453131171759793 -0.77714596973225614 0 0.62932038083071107 0.62932038083071107 0 0.77714596973225614 1 I I #
face $-1 $-1 $614 $61 $-1 $615 reversed single #
loop $-1 $-1 $304 $298 #
plane-surface $-1 0 0 23.57700057136481 0 0 1 1 0 0 forward_v I I I I #
coedge $-1 $616 $617 $618 $619 reversed $299 $-1 #
coedge $-1 $620 $301 $303 $455 forward $188 $-1 #
coedge $-1 $301 $620 $616 $621 forward $188 $-1 #
coedge $-1 $618 $304 $301 $452 forward $446 $-1 #
edge $-1 $458 13.353854804541761 $622 26.366253789779911 $451 $623 forward 7 unknown #
coedge $-1 $624 $625 $302 $454 forward $614 $-1 #
edge $-1 $626 -41.52560672792022 $457 -27.277867928710204 $453 $627 forward 7 unknown #
edge $-1 $458 -18.333413997010997 $626 -2.2748066086763162e-014 $303 $628 forward 7 unknown #
coedge $-1 $304 $618 $624 $629 forward $446 $-1 #
vertex $-1 $305 $630 #
vertex $-1 $305 $631 #
straight-curve $-1 -93.738702267710693 33.213909101702598 23.577000571364806 1 0 0 I I #
coedge $-1 $460 $460 $-1 $632 reversed $308 $-1 #
edge $-1 $633 0 $633 6.2831853071796004 $309 $634 forward 7 unknown #
vertex $-1 $312 $635 #
ellipse-curve $-1 -67.62821975051024 36.93173738319922 16.453131171759793 -0.77714596973225614 0 0.62932038083071107 0.62932038083071107 0 0.77714596973225614 1 I I #
coedge $-1 $464 $464 $-1 $636 reversed $315 $-1 #
edge $-1 $637 0 $637 6.2831853071796004 $316 $638 forward 7 unknown #
vertex $-1 $319 $639 #
ellipse-curve $-1 -67.62821975051024 42.508479805444139 16.453131171759793 -0.77714596973225614 0 0.62932038083071107 0.62932038083071107 0 0.77714596973225614 1 I I #
face $-1 $-1 $335 $48 $-1 $640 reversed single #
loop $-1 $-1 $484 $320 #
plane-surface $-1 0 49.529265519618832 0 0 -1 0 0 0 -1 forward_v I I I I #
coedge $-1 $641 $482 $485 $642 forward $321 $-1 #
coedge $-1 $488 $323 $324 $476 reversed $202 $-1 #
coedge $-1 $482 $641 $323 $474 reversed $321 $-1 #
edge $-1 $489 -23.57700057136481 $643 23.57700057136481 $473 $644 forward 7 unknown #
coedge $-1 $325 $324 $641 $645 forward $129 $-1 #
edge $-1 $480 -73.39701528977325 $643 73.39701528977325 $472 $646 forward 7 unknown #
coedge $-1 $485 $484 $325 $478 reversed $469 $-1 #
edge $-1 $647 -73.39701528977325 $479 73.39701528977325 $477 $648 forward 7 unknown #
vertex $-1 $327 $649 #
vertex $-1 $491 $650 #
straight-curve $-1 73.39701528977325 0 -23.57700057136481 0 -1 0 I I #
coedge $-1 $471 $473 $328 $483 reversed $321 $-1 #
edge $-1 $486 -49.529265519618832 $489 49.529265519618832 $482 $651 forward 7 unknown #
coedge $-1 $477 $329 $334 $492 forward $469 $-1 #
coedge $-1 $329 $477 $471 $642 reversed $469 $-1 #
vertex $-1 $330 $652 #
straight-curve $-1 0 49.529265519618832 23.57700057136481 -1 0 0 I I #
coedge $-1 $331 $472 $333 $491 reversed $202 $-1 #
vertex $-1 $483 $653 #
straight-curve $-1 0 -49.529265519618832 23.57700057136481 1 0 0 I I #
edge $-1 $336 -23.57700057136481 $480 23.57700057136481 $333 $654 forward 7 unknown #
edge $-1 $337 -23.57700057136481 $479 23.57700057136481 $334 $655 forward 7 unknown #
point $-1 73.39701528977325 -49.529265519618832 23.57700057136481 #
point $-1 73.39701528977325 49.529265519618832 23.57700057136481 #
face $-1 $-1 $656 $49 $-1 $657 reversed single #
loop $-1 $-1 $349 $339 #
plane-surface $-1 0 -49.529265519618832 0 0 1 0 0 0 1 forward_v I I I I #
coedge $-1 $658 $342 $502 $659 forward $210 $-1 #
coedge $-1 $342 $658 $660 $661 forward $210 $-1 #
edge $-1 $662 -73.39701528977325 $503 73.39701528977325 $342 $663 forward 7 unknown #
coedge $-1 $344 $343 $664 $665 reversed $133 $-1 #
coedge $-1 $345 $351 $498 $659 reversed $340 $-1 #
vertex $-1 $659 $666 #
straight-curve $-1 73.39701528977325 -27.865119739322793 -10.31298601151421 0 0 1 I I #
coedge $-1 $664 $667 $347 $506 forward $656 $-1 #
edge $-1 $511 -30.180669204883426 $507 -8.5165234245873869 $505 $668 forward 7 unknown #
vertex $-1 $506 $669 #
straight-curve $-1 0 -27.865119739322793 -17.674943474692032 -1 0 0 I I #
coedge $-1 $670 $349 $667 $671 forward $496 $-1 #
coedge $-1 $349 $670 $351 $513 reversed $496 $-1 #
vertex $-1 $671 $672 #
straight-curve $-1 0 -49.529265519618832 -17.674943474692032 -1 0 0 I I #
edge $-1 $353 17.674943474692032 $673 23.57700057136481 $351 $674 forward 7 unknown #
point $-1 73.39701528977325 -27.865119739322793 -17.674943474692032 #
point $-1 73.39701528977325 -49.529265519618832 -17.674943474692032 #
plane-surface $-1 73.39701528977325 0 0 -1 0 0 0 0 1 forward_v I I I I #
coedge $-1 $675 $676 $360 $521 forward $356 $-1 #
coedge $-1 $358 $525 $675 $677 forward $218 $-1 #
coedge $-1 $360 $359 $358 $520 reversed $137 $-1 #
edge $-1 $678 -29.860505172191843 $526 -9.4770155226621213 $358 $679 forward 7 unknown #
edge $-1 $523 -98.335778359479121 $678 -66.433173238118655 $517 $680 forward 7 unknown #
coedge $-1 $366 $361 $676 $681 reversed $367 $-1 #
vertex $-1 $362 $682 #
straight-curve $-1 73.397015289773236 19.668760347426982 0.24491196090065159 0 1 0 I I #
coedge $-1 $518 $363 $366 $529 forward $218 $-1 #
vertex $-1 $364 $683 #
straight-curve $-1 40.321043660847245 29.145775870089103 23.577000571364806 1 0 0 I I #
straight-curve $-1 -26.716271531449451 29.145775870089103 107.60327081404459 -0.68199835119979291 0 0.73135370988377701 I I #
edge $-1 $368 29.145775870089103 $684 49.529265519618832 $366 $685 forward 7 unknown #
point $-1 73.39701528977325 29.145775870089103 23.57700057136481 #
point $-1 73.39701528977325 29.145775870089103 0.24491196090065159 #
edge $-1 $686 1 $686 0 $371 $-1 forward 7 unknown #
vertex $-1 $372 $687 #
ellipse-curve $-1 55.975687544543888 39.337520694853964 5.8099151976646866 0.73135370988377701 0 0.68199835119979291 2.7279934047991716 0 -2.9254148395351081 1 I I #
point $-1 65.246246648699483 39.337520694853964 8.985541426597635 #
plane-surface $-1 0 0 23.57700057136481 0 0 1 1 0 0 forward_v I I I I #
coedge $-1 $547 $546 $539 $688 forward $376 $-1 #
coedge $-1 $539 $378 $380 $543 reversed $233 $-1 #
coedge $-1 $378 $538 $537 $688 reversed $233 $-1 #
coedge $-1 $386 $381 $378 $541 forward $387 $-1 #
edge $-1 $544 -31.879278056463477 $689 -20.341686977937442 $540 $690 forward 7 unknown #
coedge $-1 $380 $379 $547 $691 reversed $146 $-1 #
edge $-1 $692 2.2748066086763162e-014 $544 18.333413997010997 $538 $693 forward 7 unknown #
vertex $-1 $382 $694 #
straight-curve $-1 -61.859424211247209 -9.0279814070128239 23.57700057136481 0 1 0 I I #
coedge $-1 $537 $383 $386 $551 reversed $376 $-1 #
coedge $-1 $383 $537 $542 $691 forward $376 $-1 #
vertex $-1 $384 $695 #
straight-curve $-1 -73.39701528977325 -24.562162306644723 50.854868500075014 0 0 1 I I #
straight-curve $-1 -73.397015289773265 -24.562162306644723 9.3292617721547799 -0.62932038083071107 0 -0.77714596973225614 I I #
edge $-1 $689 11.549763321406575 $388 24.562162306644723 $546 $696 forward 7 unknown #
point $-1 -73.39701528977325 -24.562162306644723 23.57700057136481 #
point $-1 -61.859424211247216 -24.562162306644723 23.57700057136481 #
edge $-1 $697 1 $697 0 $391 $-1 forward 7 unknown #
vertex $-1 $392 $698 #
ellipse-curve $-1 -64.831993195149849 -20.844334025148108 14.188791614913598 -0.77714596973225614 0 0.62932038083071107 0.62932038083071107 0 0.77714596973225614 1 I I #
point $-1 -66.998899369679521 -20.844334025148108 17.230277141492046 #
edge $-1 $699 1 $699 0 $395 $-1 forward 7 unknown #
vertex $-1 $396 $700 #
ellipse-curve $-1 -64.831993195149849 -15.267591602903188 14.188791614913598 -0.77714596973225614 0 0.62932038083071107 0.62932038083071107 0 0.77714596973225614 1 I I #
point $-1 -66.998899369679521 -15.267591602903188 17.230277141492046 #
loop $-1 $-1 $407 $399 #
plane-surface $-1 -73.39701528977325 0 0 1 0 0 0 0 -1 forward_v I I I I #
coedge $-1 $565 $402 $404 $569 reversed $255 $-1 #
coedge $-1 $402 $564 $701 $702 reversed $255 $-1 #
coedge $-1 $410 $405 $402 $567 forward $400 $-1 #
edge $-1 $570 -31.879278056463477 $703 -20.341686977937442 $566 $704 forward 7 unknown #
coedge $-1 $404 $403 $573 $705 reversed $160 $-1 #
edge $-1 $706 2.2748066086763162e-014 $570 18.333413997010997 $564 $707 forward 7 unknown #
vertex $-1 $406 $708 #
straight-curve $-1 -61.859424211247209 0.60136382771172947 23.57700057136481 0 1 0 I I #
coedge $-1 $701 $407 $410 $577 reversed $562 $-1 #
coedge $-1 $407 $701 $568 $705 forward $562 $-1 #
vertex $-1 $408 $709 #
straight-curve $-1 -73.39701528977325 -5.3034718371956142 50.854868500075014 0 0 1 I I #
straight-curve $-1 -73.397015289773265 -5.3034718371956142 9.3292617721547799 -0.62932038083071107 0 -0.77714596973225614 I I #
edge $-1 $703 -7.7089271480425321 $411 5.3034718371956142 $572 $710 forward 7 unknown #
point $-1 -73.39701528977325 -5.3034718371956142 23.57700057136481 #
point $-1 -61.859424211247216 -5.3034718371956142 23.57700057136481 #
edge $-1 $711 1 $711 0 $414 $-1 forward 7 unknown #
vertex $-1 $415 $712 #
ellipse-curve $-1 -64.831993195149849 -1.5856435556989936 14.188791614913598 -0.77714596973225614 0 0.62932038083071107 0.62932038083071107 0 0.77714596973225614 1 I I #
point $-1 -66.998899369679521 -1.5856435556989936 17.230277141492046 #
edge $-1 $713 1 $713 0 $418 $-1 forward 7 unknown #
vertex $-1 $419 $714 #
ellipse-curve $-1 -64.831993195149849 3.9910988665459257 14.188791614913598 -0.77714596973225614 0 0.62932038083071107 0.62932038083071107 0 0.77714596973225614 1 I I #
point $-1 -66.998899369679521 3.9910988665459257 17.230277141492046 #
loop $-1 $-1 $430 $422 #
plane-surface $-1 -73.39701528977325 0 0 1 0 0 0 0 -1 forward_v I I I I #
coedge $-1 $591 $425 $427 $595 reversed $277 $-1 #
coedge $-1 $425 $590 $715 $716 reversed $277 $-1 #
coedge $-1 $433 $428 $425 $593 forward $423 $-1 #
edge $-1 $596 -31.879278056463477 $717 -20.341686977937442 $592 $718 forward 7 unknown #
coedge $-1 $427 $426 $599 $719 reversed $174 $-1 #
edge $-1 $720 2.2748066086763162e-014 $596 18.333413997010997 $590 $721 forward 7 unknown #
vertex $-1 $429 $722 #
straight-curve $-1 -61.859424211247209 10.230709062436283 23.57700057136481 0 1 0 I I #
coedge $-1 $715 $430 $433 $603 reversed $588 $-1 #
coedge $-1 $430 $715 $594 $719 forward $588 $-1 #
vertex $-1 $431 $723 #
straight-curve $-1 -73.39701528977325 13.955218632253493 50.854868500075014 0 0 1 I I #
straight-curve $-1 -73.397015289773265 13.955218632253493 9.3292617721547799 -0.62932038083071107 0 -0.77714596973225614 I I #
edge $-1 $717 -26.967617617491641 $434 -13.955218632253493 $598 $724 forward 7 unknown #
point $-1 -73.39701528977325 13.955218632253493 23.57700057136481 #
point $-1 -61.859424211247216 13.955218632253493 23.57700057136481 #
edge $-1 $725 1 $725 0 $437 $-1 forward 7 unknown #
vertex $-1 $438 $726 #
ellipse-curve $-1 -64.831993195149849 17.673046913750113 14.188791614913598 -0.77714596973225614 0 0.62932038083071107 0.62932038083071107 0 0.77714596973225614 1 I I #
point $-1 -66.998899369679521 17.673046913750113 17.230277141492046 #
edge $-1 $727 1 $727 0 $441 $-1 forward 7 unknown #
vertex $-1 $442 $728 #
ellipse-curve $-1 -64.831993195149849 23.249789335995033 14.188791614913598 -0.77714596973225614 0 0.62932038083071107 0.62932038083071107 0 0.77714596973225614 1 I I #
point $-1 -66.998899369679521 23.249789335995033 17.230277141492046 #
loop $-1 $-1 $453 $445 #
plane-surface $-1 -73.39701528977325 0 0 1 0 0 0 0 -1 forward_v I I I I #
coedge $-1 $617 $448 $450 $621 reversed $299 $-1 #
coedge $-1 $448 $616 $729 $730 reversed $299 $-1 #
coedge $-1 $456 $451 $448 $619 forward $446 $-1 #
edge $-1 $622 -31.879278056463477 $731 -20.341686977937442 $618 $732 forward 7 unknown #
coedge $-1 $450 $449 $625 $733 reversed $188 $-1 #
edge $-1 $734 2.2748066086763162e-014 $622 18.333413997010997 $616 $735 forward 7 unknown #
vertex $-1 $452 $736 #
straight-curve $-1 -61.859424211247209 19.860054297160836 23.57700057136481 0 1 0 I I #
coedge $-1 $729 $453 $456 $629 reversed $614 $-1 #
coedge $-1 $453 $729 $620 $733 forward $614 $-1 #
vertex $-1 $454 $737 #
straight-curve $-1 -73.39701528977325 33.213909101702598 50.854868500075014 0 0 1 I I #
straight-curve $-1 -73.397015289773265 33.213909101702598 9.3292617721547799 -0.62932038083071107 0 -0.77714596973225614 I I #
edge $-1 $731 -46.226308086940747 $457 -33.213909101702598 $624 $738 forward 7 unknown #
point $-1 -73.39701528977325 33.213909101702598 23.57700057136481 #
point $-1 -61.859424211247216 33.213909101702598 23.57700057136481 #
edge $-1 $739 1 $739 0 $460 $-1 forward 7 unknown #
vertex $-1 $461 $740 #
ellipse-curve $-1 -64.831993195149849 36.93173738319922 14.188791614913598 -0.77714596973225614 0 0.62932038083071107 0.62932038083071107 0 0.77714596973225614 1 I I #
point $-1 -66.998899369679521 36.93173738319922 17.230277141492046 #
edge $-1 $741 1 $741 0 $464 $-1 forward 7 unknown #
vertex $-1 $465 $742 #
ellipse-curve $-1 -64.831993195149849 42.508479805444139 14.188791614913598 -0.77714596973225614 0 0.62932038083071107 0.62932038083071107 0 0.77714596973225614 1 I I #
point $-1 -66.998899369679521 42.508479805444139 17.230277141492046 #
plane-surface $-1 73.39701528977325 0 0 -1 0 0 0 0 1 forward_v I I I I #
coedge $-1 $473 $471 $475 $645 reversed $321 $-1 #
edge $-1 $486 -23.57700057136481 $647 23.57700057136481 $485 $743 forward 7 unknown #
vertex $-1 $645 $744 #
straight-curve $-1 -73.39701528977325 -49.529265519618832 0 0 0 -1 I I #
edge $-1 $643 -49.529265519618832 $647 49.529265519618832 $641 $745 forward 7 unknown #
straight-curve $-1 0 -49.529265519618832 -23.57700057136481 -1 0 0 I I #
vertex $-1 $478 $746 #
straight-curve $-1 0 49.529265519618832 -23.57700057136481 1 0 0 I I #
point $-1 73.39701528977325 49.529265519618832 -23.57700057136481 #
point $-1 73.39701528977325 -49.529265519618832 -23.57700057136481 #
straight-curve $-1 -73.39701528977325 0 23.57700057136481 0 -1 0 I I #
point $-1 -73.39701528977325 49.529265519618832 23.57700057136481 #
point $-1 -73.39701528977325 -49.529265519618832 23.57700057136481 #
straight-curve $-1 73.39701528977325 -49.529265519618832 0 0 0 -1 I I #
straight-curve $-1 73.39701528977325 49.529265519618832 0 0 0 -1 I I #
loop $-1 $-1 $664 $495 #
plane-surface $-1 -73.39701528977325 0 0 1 0 0 0 0 -1 forward_v I I I I #
coedge $-1 $499 $498 $670 $747 forward $210 $-1 #
edge $-1 $503 27.865119739322793 $673 49.529265519618832 $502 $748 forward 7 unknown #
coedge $-1 $667 $664 $499 $661 reversed $656 $-1 #
edge $-1 $749 -49.529265519618832 $662 -27.865119739322793 $660 $750 forward 7 unknown #
vertex $-1 $665 $751 #
straight-curve $-1 0 -27.865119739322793 -23.57700057136481 1 0 0 I I #
coedge $-1 $660 $505 $501 $665 forward $656 $-1 #
edge $-1 $507 7.3619574631778217 $662 13.264014559850599 $664 $752 forward 7 unknown #
point $-1 73.39701528977325 -27.865119739322793 -23.57700057136481 #
coedge $-1 $505 $660 $509 $671 reversed $656 $-1 #
straight-curve $-1 -73.39701528977325 -19.348596314735406 -17.674943474692032 0 1 0 I I #
point $-1 -73.39701528977325 -27.865119739322793 -17.674943474692032 #
coedge $-1 $510 $509 $658 $747 reversed $496 $-1 #
edge $-1 $511 17.674943474692032 $749 23.57700057136481 $667 $753 forward 7 unknown #
point $-1 -73.39701528977325 -49.529265519618832 -17.674943474692032 #
vertex $-1 $513 $754 #
straight-curve $-1 73.39701528977325 -49.529265519618832 0 0 0 -1 I I #
coedge $-1 $676 $517 $518 $677 reversed $356 $-1 #
coedge $-1 $517 $675 $522 $681 forward $356 $-1 #
edge $-1 $684 -73.39701528977325 $678 -51.639491198027343 $675 $755 forward 7 unknown #
vertex $-1 $520 $756 #
straight-curve $-1 51.639491198027351 19.668760347426982 23.577000571364799 0 -1 0 I I #
straight-curve $-1 6.3321765846602034 49.529265519618832 72.163148278414539 -0.68199835119979291 0 0.73135370988377701 I I #
edge $-1 $684 -23.57700057136481 $523 -0.24491196090064679 $522 $757 forward 7 unknown #
point $-1 73.39701528977325 49.529265519618832 0.24491196090064679 #
point $-1 51.639491198027343 29.145775870089103 23.577000571364806 #
vertex $-1 $529 $758 #
straight-curve $-1 73.39701528977325 0 23.57700057136481 0 1 0 I I #
vertex $-1 $532 $759 #
point $-1 58.70368094934306 39.337520694853964 2.8845003581295785 #
edge $-1 $689 27.277867928710204 $692 41.52560672792022 $537 $760 forward 7 unknown #
vertex $-1 $551 $761 #
straight-curve $-1 -93.738702267710693 -11.549763321406575 23.577000571364806 -1 0 0 I I #
edge $-1 $692 2.5217819143937508 $548 15.534180899631899 $547 $762 forward 7 unknown #
vertex $-1 $691 $763 #
straight-curve $-1 -73.397015289773265 -11.549763321406575 9.3292617721547799 0.62932038083071107 0 0.77714596973225614 I I #
point $-1 -61.859424211247216 -11.549763321406575 23.57700057136481 #
point $-1 -73.39701528977325 -24.562162306644723 9.3292617721547977 #
straight-curve $-1 -73.39701528977325 0 23.57700057136481 0 -1 0 I I #
vertex $-1 $554 $764 #
point $-1 -64.202672814319129 -20.844334025148108 14.965937584645854 #
vertex $-1 $558 $765 #
point $-1 -64.202672814319129 -15.267591602903188 14.965937584645854 #
coedge $-1 $573 $572 $565 $702 forward $562 $-1 #
edge $-1 $703 27.277867928710204 $706 41.52560672792022 $701 $766 forward 7 unknown #
vertex $-1 $577 $767 #
straight-curve $-1 -93.738702267710693 7.7089271480425321 23.577000571364806 -1 0 0 I I #
edge $-1 $706 -7.1075633203308026 $574 5.9048356649073437 $573 $768 forward 7 unknown #
vertex $-1 $705 $769 #
straight-curve $-1 -73.397015289773265 7.7089271480425321 9.3292617721547799 0.62932038083071107 0 0.77714596973225614 I I #
point $-1 -61.859424211247216 7.7089271480425321 23.57700057136481 #
point $-1 -73.39701528977325 -5.3034718371956142 9.3292617721547977 #
straight-curve $-1 -73.39701528977325 0 23.57700057136481 0 -1 0 I I #
vertex $-1 $580 $770 #
point $-1 -64.202672814319129 -1.5856435556989936 14.965937584645854 #
vertex $-1 $584 $771 #
point $-1 -64.202672814319129 3.9910988665459257 14.965937584645854 #
coedge $-1 $599 $598 $591 $716 forward $588 $-1 #
edge $-1 $717 27.277867928710204 $720 41.52560672792022 $715 $772 forward 7 unknown #
vertex $-1 $603 $773 #
straight-curve $-1 -93.738702267710693 26.967617617491641 23.577000571364806 -1 0 0 I I #
edge $-1 $720 -16.736908555055358 $600 -3.7245095698172097 $599 $774 forward 7 unknown #
vertex $-1 $719 $775 #
straight-curve $-1 -73.397015289773265 26.967617617491641 9.3292617721547799 0.62932038083071107 0 0.77714596973225614 I I #
point $-1 -61.859424211247216 26.967617617491641 23.57700057136481 #
point $-1 -73.39701528977325 13.955218632253493 9.3292617721547977 #
straight-curve $-1 -73.39701528977325 0 23.57700057136481 0 -1 0 I I #
vertex $-1 $606 $776 #
point $-1 -64.202672814319129 17.673046913750113 14.965937584645854 #
vertex $-1 $610 $777 #
point $-1 -64.202672814319129 23.249789335995033 14.965937584645854 #
coedge $-1 $625 $624 $617 $730 forward $614 $-1 #
edge $-1 $731 27.277867928710204 $734 41.52560672792022 $729 $778 forward 7 unknown #
vertex $-1 $629 $779 #
straight-curve $-1 -93.738702267710693 46.226308086940747 23.577000571364806 -1 0 0 I I #
edge $-1 $734 -26.366253789779911 $626 -13.353854804541761 $625 $780 forward 7 unknown #
vertex $-1 $733 $781 #
straight-curve $-1 -73.397015289773265 46.226308086940747 9.3292617721547799 0.62932038083071107 0 0.77714596973225614 I I #
point $-1 -61.859424211247216 46.226308086940747 23.57700057136481 #
point $-1 -73.39701528977325 33.213909101702598 9.3292617721547977 #
straight-curve $-1 -73.39701528977325 0 23.57700057136481 0 -1 0 I I #
vertex $-1 $632 $782 #
point $-1 -64.202672814319129 36.93173738319922 14.965937584645854 #
vertex $-1 $636 $783 #
point $-1 -64.202672814319129 42.508479805444139 14.965937584645854 #
straight-curve $-1 -73.39701528977325 49.529265519618832 0 0 0 -1 I I #
point $-1 -73.39701528977325 -49.529265519618832 -23.57700057136481 #
straight-curve $-1 -73.39701528977325 0 -23.57700057136481 0 1 0 I I #
point $-1 -73.39701528977325 49.529265519618832 -23.57700057136481 #
edge $-1 $673 -73.39701528977325 $749 73.39701528977325 $670 $784 forward 7 unknown #
straight-curve $-1 73.39701528977325 0 -23.57700057136481 0 -1 0 I I #
vertex $-1 $661 $785 #
straight-curve $-1 -73.39701528977325 0 -23.57700057136481 0 1 0 I I #
point $-1 -73.39701528977325 -27.865119739322793 -23.57700057136481 #
straight-curve $-1 -73.39701528977325 -27.865119739322793 -10.31298601151421 0 0 -1 I I #
straight-curve $-1 -73.39701528977325 -49.529265519618832 0 0 0 -1 I I #
point $-1 73.39701528977325 -49.529265519618832 -23.57700057136481 #
straight-curve $-1 0 49.529265519618832 23.57700057136481 -1 0 0 I I #
point $-1 51.639491198027343 49.529265519618825 23.577000571364806 #
straight-curve $-1 73.39701528977325 49.529265519618832 0 0 0 -1 I I #
point $-1 73.39701528977325 49.529265519618832 23.57700057136481 #
point $-1 53.05027270500878 39.337520694853964 3.0819217928655149 #
straight-curve $-1 -73.39701528977325 -11.549763321406575 50.854868500075014 0 0 -1 I I #
point $-1 -73.39701528977325 -11.549763321406575 23.57700057136481 #
straight-curve $-1 -73.39701528977325 -9.0279814070128239 9.3292617721548083 0 -1 0 I I #
point $-1 -73.39701528977325 -11.549763321406575 9.3292617721547977 #
point $-1 -64.054847225417589 -20.844334025148108 13.559471234082885 #
point $-1 -64.054847225417589 -15.267591602903188 13.559471234082885 #
straight-curve $-1 -73.39701528977325 7.7089271480425321 50.854868500075014 0 0 -1 I I #
point $-1 -73.39701528977325 7.7089271480425321 23.57700057136481 #
straight-curve $-1 -73.39701528977325 0.60136382771172947 9.3292617721548083 0 -1 0 I I #
point $-1 -73.39701528977325 7.7089271480425321 9.3292617721547977 #
point $-1 -64.054847225417589 -1.5856435556989936 13.559471234082885 #
point $-1 -64.054847225417589 3.9910988665459257 13.559471234082885 #
straight-curve $-1 -73.39701528977325 26.967617617491641 50.854868500075014 0 0 -1 I I #
point $-1 -73.39701528977325 26.967617617491641 23.57700057136481 #
straight-curve $-1 -73.39701528977325 10.230709062436283 9.3292617721548083 0 -1 0 I I #
point $-1 -73.39701528977325 26.967617617491641 9.3292617721547977 #
point $-1 -64.054847225417589 17.673046913750113 13.559471234082885 #
point $-1 -64.054847225417589 23.249789335995033 13.559471234082885 #
straight-curve $-1 -73.39701528977325 46.226308086940747 50.854868500075014 0 0 -1 I I #
point $-1 -73.39701528977325 46.226308086940747 23.57700057136481 #
straight-curve $-1 -73.39701528977325 19.860054297160836 9.3292617721548083 0 -1 0 I I #
point $-1 -73.39701528977325 46.226308086940747 9.3292617721547977 #
point $-1 -64.054847225417589 36.93173738319922 13.559471234082885 #
point $-1 -64.054847225417589 42.508479805444139 13.559471234082885 #
straight-curve $-1 0 -49.529265519618832 -23.57700057136481 -1 0 0 I I #
point $-1 -73.39701528977325 -49.529265519618832 -23.57700057136481 #
End-of-ACIS-data 