500 0 6 0           
7 Unknown 11 ACIS 5.0 NT 24 Fri Mar 26 19:47:37 1999 
-1 9.9999999999999995e-007 1e-010 
body $-1 $6 $-1 $7 #
body $-1 $8 $-1 $9 #
body $-1 $10 $-1 $11 #
body $-1 $12 $-1 $13 #
body $-1 $14 $-1 $15 #
body $-1 $16 $-1 $17 #
lump $-1 $-1 $18 $0 #
transform $-1 1 0 0 0 1 0 0 0 1 65.581835383159884 34.576420036784477 13.887338893890373 1 rotate no_reflect no_shear #
lump $-1 $-1 $19 $1 #
transform $-1 1 0 0 0 1 0 0 0 1 65.581835383159884 34.576420036784477 13.887338893890373 1 rotate no_reflect no_shear #
lump $-1 $-1 $20 $2 #
transform $-1 1 0 0 0 1 0 0 0 1 65.581835383159884 34.576420036784477 13.887338893890373 1 rotate no_reflect no_shear #
lump $-1 $-1 $21 $3 #
transform $-1 1 0 0 0 1 0 0 0 1 65.581835383159884 34.576420036784477 13.887338893890373 1 rotate no_reflect no_shear #
lump $-1 $-1 $22 $4 #
transform $-1 1 0 0 0 1 0 0 0 1 65.581835383159884 34.576420036784477 13.887338893890373 1 rotate no_reflect no_shear #
lump $-1 $-1 $23 $5 #
transform $-1 1 0 0 0 1 0 0 0 1 65.581835383159884 34.576420036784477 13.887338893890373 1 rotate no_reflect no_shear #
shell $-1 $-1 $-1 $24 $-1 $6 #
shell $-1 $-1 $-1 $25 $-1 $8 #
shell $-1 $-1 $-1 $26 $-1 $10 #
shell $-1 $-1 $-1 $27 $-1 $12 #
shell $-1 $-1 $-1 $28 $-1 $14 #
shell $-1 $-1 $-1 $29 $-1 $16 #
face $-1 $30 $31 $18 $-1 $32 forward single #
face $-1 $33 $34 $19 $-1 $35 forward single #
face $-1 $36 $37 $20 $-1 $38 reversed single #
face $-1 $39 $40 $21 $-1 $41 forward single #
face $-1 $42 $43 $22 $-1 $44 forward single #
face $-1 $45 $46 $23 $-1 $47 forward single #
face $-1 $48 $49 $18 $-1 $50 reversed single #
loop $-1 $-1 $51 $24 #
plane-surface $-1 0 0 13.887338893890373 0 0 1 1 0 0 forward_v I I I I #
face $-1 $52 $53 $19 $-1 $54 forward single #
loop $-1 $-1 $55 $25 #
plane-surface $-1 0 -34.576420036784477 0 0 1 0 0 0 1 forward_v I I I I #
face $-1 $56 $57 $20 $-1 $58 reversed single #
loop $-1 $-1 $59 $26 #
plane-surface $-1 -34.676493030014186 115.76879116611855 133.0662680356586 -1 0 0 0 0.87461971476443456 0.48480960649040278 forward_v I I I I #
face $-1 $60 $61 $21 $-1 $62 forward single #
loop $-1 $63 $64 $27 #
cone-surface $-1 -59.400766912530742 32.129033593140889 10.83596759972847 0 -0.87461971476443456 -0.48480960649040278 1 0 0 1 I I 0 1 1 forward I I I I #
face $-1 $65 $66 $22 $-1 $67 forward single #
loop $-1 $68 $69 $28 #
cone-surface $-1 -50.129164206587035 32.129033593140889 10.83596759972847 0 -0.87461971476443456 -0.48480960649040278 1 0 0 1 I I 0 1 1 forward I I I I #
face $-1 $70 $71 $23 $-1 $72 forward single #
loop $-1 $73 $74 $29 #
cone-surface $-1 -40.857561500643328 32.129033593140889 10.83596759972847 0 -0.87461971476443456 -0.48480960649040278 1 0 0 1 I I 0 1 1 forward I I I I #
face $-1 $75 $76 $18 $-1 $77 reversed single #
loop $-1 $-1 $78 $30 #
plane-surface $-1 0 0 -13.887338893890373 0 0 1 1 0 0 forward_v I I I I #
coedge $-1 $79 $80 $81 $82 forward $31 $-1 #
face $-1 $83 $84 $19 $-1 $85 reversed single #
loop $-1 $-1 $86 $33 #
plane-surface $-1 0 0 13.887338893890373 0 0 1 1 0 0 forward_v I I I I #
coedge $-1 $87 $88 $89 $90 forward $34 $-1 #
face $-1 $91 $92 $20 $-1 $93 reversed single #
loop $-1 $-1 $94 $36 #
plane-surface $-1 -50.129164206587035 1.0504588530237413 69.476860425602354 0 0.87461971476443456 0.48480960649040278 1 0 0 forward_v I I I I #
coedge $-1 $95 $96 $97 $98 reversed $37 $-1 #
face $-1 $-1 $99 $21 $-1 $100 forward single #
loop $-1 $101 $102 $39 #
cone-surface $-1 -59.400766912530742 30.600430979989561 9.9886493666130676 0 -0.87461971476443456 -0.48480960649040278 0.5 0 0 1 I I -0.70710678118654746 0.70710678118654746 0.5 forward I I I I #
loop $-1 $-1 $103 $27 #
coedge $-1 $64 $64 $104 $105 reversed $40 $-1 #
face $-1 $-1 $106 $22 $-1 $107 forward single #
loop $-1 $108 $109 $42 #
cone-surface $-1 -50.129164206587035 30.600430979989561 9.9886493666130676 0 -0.87461971476443456 -0.48480960649040278 0.5 0 0 1 I I -0.70710678118654746 0.70710678118654746 0.5 forward I I I I #
loop $-1 $-1 $110 $28 #
coedge $-1 $69 $69 $111 $112 reversed $43 $-1 #
face $-1 $-1 $113 $23 $-1 $114 forward single #
loop $-1 $115 $116 $45 #
cone-surface $-1 -40.857561500643328 30.600430979989561 9.9886493666130676 0 -0.87461971476443456 -0.48480960649040278 0.5 0 0 1 I I -0.70710678118654746 0.70710678118654746 0.5 forward I I I I #
loop $-1 $-1 $117 $29 #
coedge $-1 $74 $74 $118 $119 reversed $46 $-1 #
face $-1 $120 $121 $18 $-1 $122 reversed single #
loop $-1 $-1 $123 $48 #
plane-surface $-1 0 -34.576420036784477 0 0 1 0 0 0 1 forward_v I I I I #
coedge $-1 $124 $125 $126 $127 forward $49 $-1 #
coedge $-1 $128 $51 $129 $130 forward $31 $-1 #
coedge $-1 $51 $128 $131 $132 forward $31 $-1 #
coedge $-1 $133 $134 $51 $82 reversed $135 $-1 #
edge $-1 $136 -34.576420036784477 $137 34.576420036784477 $81 $138 forward 7 unknown #
face $-1 $139 $140 $19 $-1 $141 reversed single #
loop $-1 $-1 $142 $52 #
plane-surface $-1 -65.581835383159884 0 0 1 0 0 0 0 -1 forward_v I I I I #
coedge $-1 $143 $144 $145 $146 forward $53 $-1 #
coedge $-1 $145 $55 $142 $147 reversed $34 $-1 #
coedge $-1 $55 $145 $148 $149 reversed $34 $-1 #
coedge $-1 $150 $151 $55 $90 reversed $140 $-1 #
edge $-1 $152 -65.581835383159884 $153 65.581835383159884 $89 $154 forward 7 unknown #
face $-1 $155 $156 $20 $-1 $157 forward single #
loop $-1 $-1 $97 $56 #
plane-surface $-1 0 34.576420036784477 0 0 -1 0 0 0 -1 forward_v I I I I #
coedge $-1 $158 $159 $160 $161 reversed $57 $-1 #
coedge $-1 $96 $59 $162 $163 reversed $37 $-1 #
coedge $-1 $59 $95 $158 $164 reversed $37 $-1 #
coedge $-1 $160 $165 $59 $98 forward $92 $-1 #
edge $-1 $166 52.645795123938925 $167 57.538710852522406 $97 $168 forward 7 unknown #
loop $-1 $-1 $104 $60 #
plane-surface $-1 -50.129164206587035 1.0504588530237413 69.476860425602354 0 0.87461971476443456 0.48480960649040278 1 0 0 forward_v I I I I #
loop $-1 $-1 $169 $39 #
coedge $-1 $102 $102 $103 $170 reversed $61 $-1 #
coedge $-1 $103 $103 $102 $170 forward $63 $-1 #
coedge $-1 $104 $104 $64 $105 forward $99 $-1 #
edge $-1 $171 1.350024067169941e-015 $171 6.2831853071796022 $104 $172 forward 7 unknown #
loop $-1 $-1 $111 $65 #
plane-surface $-1 -50.129164206587035 1.0504588530237413 69.476860425602354 0 0.87461971476443456 0.48480960649040278 1 0 0 forward_v I I I I #
loop $-1 $-1 $173 $42 #
coedge $-1 $109 $109 $110 $174 reversed $66 $-1 #
coedge $-1 $110 $110 $109 $174 forward $68 $-1 #
coedge $-1 $111 $111 $69 $112 forward $106 $-1 #
edge $-1 $175 1.350024067169941e-015 $175 6.2831853071796022 $111 $176 forward 7 unknown #
loop $-1 $-1 $118 $70 #
plane-surface $-1 -50.129164206587035 1.0504588530237413 69.476860425602354 0 0.87461971476443456 0.48480960649040278 1 0 0 forward_v I I I I #
loop $-1 $-1 $177 $45 #
coedge $-1 $116 $116 $117 $178 reversed $71 $-1 #
coedge $-1 $117 $117 $116 $178 forward $73 $-1 #
coedge $-1 $118 $118 $74 $119 forward $113 $-1 #
edge $-1 $179 1.350024067169941e-015 $179 6.2831853071796022 $118 $180 forward 7 unknown #
face $-1 $181 $182 $18 $-1 $183 reversed single #
loop $-1 $-1 $184 $75 #
plane-surface $-1 -65.581835383159884 0 0 1 0 0 0 0 -1 forward_v I I I I #
coedge $-1 $185 $131 $186 $187 forward $76 $-1 #
coedge $-1 $188 $78 $185 $189 forward $49 $-1 #
coedge $-1 $78 $188 $190 $191 forward $49 $-1 #
coedge $-1 $134 $133 $78 $127 reversed $135 $-1 #
edge $-1 $192 -34.576420036784477 $193 34.576420036784477 $126 $194 forward 7 unknown #
coedge $-1 $80 $79 $195 $196 forward $31 $-1 #
coedge $-1 $197 $198 $79 $130 reversed $182 $-1 #
edge $-1 $137 -65.581835383159884 $199 65.581835383159884 $129 $200 forward 7 unknown #
coedge $-1 $123 $201 $80 $132 reversed $76 $-1 #
edge $-1 $202 -65.581835383159884 $136 65.581835383159884 $131 $203 forward 7 unknown #
coedge $-1 $126 $81 $201 $204 forward $135 $-1 #
coedge $-1 $81 $126 $197 $205 reversed $135 $-1 #
loop $-1 $-1 $133 $181 #
vertex $-1 $82 $206 #
vertex $-1 $82 $207 #
straight-curve $-1 65.581835383159884 0 13.887338893890373 0 1 0 I I #
face $-1 $208 $209 $19 $-1 $210 reversed single #
loop $-1 $-1 $150 $83 #
plane-surface $-1 0 -43.71101458881742 9.1914882674513763 0 0 1 1 0 0 forward_v I I I I #
coedge $-1 $211 $212 $87 $147 forward $84 $-1 #
coedge $-1 $213 $86 $212 $214 forward $53 $-1 #
coedge $-1 $86 $213 $215 $216 forward $53 $-1 #
coedge $-1 $88 $87 $86 $146 reversed $34 $-1 #
edge $-1 $217 -65.581835383159884 $218 65.581835383159884 $86 $219 forward 7 unknown #
edge $-1 $218 -13.887338893890373 $153 -9.1914882674513763 $142 $220 forward 7 unknown #
coedge $-1 $215 $221 $88 $149 forward $222 $-1 #
edge $-1 $152 9.1914882674513763 $217 13.887338893890373 $148 $223 forward 7 unknown #
coedge $-1 $224 $89 $221 $225 forward $140 $-1 #
coedge $-1 $89 $224 $211 $226 forward $140 $-1 #
vertex $-1 $149 $227 #
vertex $-1 $147 $228 #
straight-curve $-1 0 -34.576420036784477 9.1914882674513763 -1 0 0 I I #
face $-1 $-1 $229 $20 $-1 $230 reversed single #
loop $-1 $-1 $162 $91 #
plane-surface $-1 0 0 13.887338893890373 0 0 1 1 0 0 forward_v I I I I #
coedge $-1 $231 $94 $96 $164 forward $57 $-1 #
coedge $-1 $94 $231 $232 $233 reversed $57 $-1 #
coedge $-1 $234 $97 $94 $161 forward $92 $-1 #
edge $-1 $167 9.6119109267206682 $235 40.517253279866367 $160 $236 forward 7 unknown #
coedge $-1 $237 $238 $95 $163 forward $156 $-1 #
edge $-1 $239 -26.020162922023765 $166 -23.307975546274797 $162 $240 forward 7 unknown #
edge $-1 $167 -69.152840073568996 $239 -63.558505020303791 $96 $241 forward 7 unknown #
coedge $-1 $97 $234 $237 $242 reversed $92 $-1 #
vertex $-1 $242 $243 #
vertex $-1 $98 $244 #
straight-curve $-1 -34.676493030014186 34.576420036784477 66.533134017829298 0 0 -1 I I #
coedge $-1 $169 $169 $-1 $245 reversed $101 $-1 #
edge $-1 $246 0 $246 6.2831853071796004 $102 $247 forward 7 unknown #
vertex $-1 $105 $248 #
ellipse-curve $-1 -59.400766912530742 33.220326348909978 11.440881029598657 0 0.87461971476443456 0.48480960649040278 1 0 0 1 I I #
coedge $-1 $173 $173 $-1 $249 reversed $108 $-1 #
edge $-1 $250 0 $250 6.2831853071796004 $109 $251 forward 7 unknown #
vertex $-1 $112 $252 #
ellipse-curve $-1 -50.129164206587035 33.220326348909978 11.440881029598657 0 0.87461971476443456 0.48480960649040278 1 0 0 1 I I #
coedge $-1 $177 $177 $-1 $253 reversed $115 $-1 #
edge $-1 $254 0 $254 6.2831853071796004 $116 $255 forward 7 unknown #
vertex $-1 $119 $256 #
ellipse-curve $-1 -40.857561500643328 33.220326348909978 11.440881029598657 0 0.87461971476443456 0.48480960649040278 1 0 0 1 I I #
face $-1 $-1 $135 $18 $-1 $257 reversed single #
loop $-1 $-1 $197 $120 #
plane-surface $-1 0 34.576420036784477 0 0 -1 0 0 0 -1 forward_v I I I I #
coedge $-1 $258 $195 $198 $259 forward $121 $-1 #
coedge $-1 $201 $123 $124 $189 reversed $76 $-1 #
coedge $-1 $195 $258 $123 $187 reversed $121 $-1 #
edge $-1 $202 -13.887338893890373 $260 13.887338893890373 $186 $261 forward 7 unknown #
coedge $-1 $125 $124 $258 $262 forward $49 $-1 #
edge $-1 $193 -65.581835383159884 $260 65.581835383159884 $185 $263 forward 7 unknown #
coedge $-1 $198 $197 $125 $191 reversed $182 $-1 #
edge $-1 $264 -65.581835383159884 $192 65.581835383159884 $190 $265 forward 7 unknown #
vertex $-1 $127 $266 #
vertex $-1 $204 $267 #
straight-curve $-1 65.581835383159884 0 -13.887338893890373 0 -1 0 I I #
coedge $-1 $184 $186 $128 $196 reversed $121 $-1 #
edge $-1 $199 -34.576420036784477 $202 34.576420036784477 $195 $268 forward 7 unknown #
coedge $-1 $190 $129 $134 $205 forward $182 $-1 #
coedge $-1 $129 $190 $184 $259 reversed $182 $-1 #
vertex $-1 $130 $269 #
straight-curve $-1 0 34.576420036784477 13.887338893890373 -1 0 0 I I #
coedge $-1 $131 $185 $133 $204 reversed $76 $-1 #
vertex $-1 $196 $270 #
straight-curve $-1 0 -34.576420036784477 13.887338893890373 1 0 0 I I #
edge $-1 $136 -13.887338893890373 $193 13.887338893890373 $133 $271 forward 7 unknown #
edge $-1 $137 -13.887338893890373 $192 13.887338893890373 $134 $272 forward 7 unknown #
point $-1 65.581835383159884 -34.576420036784477 13.887338893890373 #
point $-1 65.581835383159884 34.576420036784477 13.887338893890373 #
face $-1 $-1 $222 $19 $-1 $273 reversed single #
loop $-1 $-1 $274 $139 #
plane-surface $-1 0 -52.845609140850364 11.539413580670875 0 1 0 0 0 1 forward_v I I I I #
coedge $-1 $275 $142 $151 $226 reversed $84 $-1 #
coedge $-1 $142 $275 $143 $214 reversed $84 $-1 #
coedge $-1 $144 $143 $276 $277 forward $53 $-1 #
edge $-1 $218 34.576420036784477 $278 52.845609140850364 $212 $279 forward 7 unknown #
coedge $-1 $280 $148 $144 $216 reversed $222 $-1 #
edge $-1 $281 -52.845609140850364 $217 -34.576420036784477 $215 $282 forward 7 unknown #
vertex $-1 $149 $283 #
vertex $-1 $214 $284 #
straight-curve $-1 0 -34.576420036784477 13.887338893890373 -1 0 0 I I #
straight-curve $-1 -65.581835383159884 -34.576420036784477 0 0 0 -1 I I #
coedge $-1 $148 $280 $150 $225 reversed $222 $-1 #
loop $-1 $-1 $148 $208 #
straight-curve $-1 65.581835383159884 -34.576420036784477 0 0 0 1 I I #
coedge $-1 $151 $150 $285 $286 forward $140 $-1 #
edge $-1 $152 -9.1345945520329437 $287 9.1345945520329437 $221 $288 forward 7 unknown #
edge $-1 $289 -9.1345945520329437 $153 9.1345945520329437 $211 $290 forward 7 unknown #
point $-1 65.581835383159884 -34.576420036784477 9.1914882674513763 #
point $-1 -65.581835383159884 -34.576420036784477 9.1914882674513763 #
loop $-1 $-1 $232 $155 #
plane-surface $-1 -65.581835383159884 0 0 1 0 0 0 0 -1 forward_v I I I I #
coedge $-1 $159 $158 $238 $291 reversed $57 $-1 #
coedge $-1 $292 $293 $159 $233 forward $229 $-1 #
edge $-1 $235 -39.024560421069012 $294 -33.430225367803807 $232 $295 forward 7 unknown #
coedge $-1 $165 $160 $293 $296 reversed $92 $-1 #
vertex $-1 $161 $297 #
straight-curve $-1 -25.064582103293517 34.576420036784477 8.9944231653068876 -1 0 0 I I #
coedge $-1 $298 $162 $165 $242 forward $156 $-1 #
coedge $-1 $162 $298 $231 $291 forward $156 $-1 #
vertex $-1 $163 $299 #
straight-curve $-1 -34.676493030014186 57.884395583059273 13.887338893890373 0 1 0 I I #
straight-curve $-1 -34.676493030014186 1.0504588530237413 69.476860425602354 0 -0.48480960649040278 0.87461971476443456 I I #
edge $-1 $166 34.676493030014186 $300 65.581835383159884 $165 $301 forward 7 unknown #
point $-1 -34.676493030014186 34.576420036784477 13.887338893890373 #
point $-1 -34.676493030014186 34.576420036784477 8.9944231653068911 #
edge $-1 $302 1 $302 0 $169 $-1 forward 7 unknown #
vertex $-1 $170 $303 #
ellipse-curve $-1 -59.400766912530742 31.037740837371778 10.231054169858268 0 0.87461971476443456 0.48480960649040278 1 0 0 1 I I #
point $-1 -58.400766912530742 33.220326348910007 11.440881029598671 #
edge $-1 $304 1 $304 0 $173 $-1 forward 7 unknown #
vertex $-1 $174 $305 #
ellipse-curve $-1 -50.129164206587035 31.037740837371778 10.231054169858268 0 0.87461971476443456 0.48480960649040278 1 0 0 1 I I #
point $-1 -49.129164206587035 33.220326348910007 11.440881029598671 #
edge $-1 $306 1 $306 0 $177 $-1 forward 7 unknown #
vertex $-1 $178 $307 #
ellipse-curve $-1 -40.857561500643328 31.037740837371778 10.231054169858268 0 0.87461971476443456 0.48480960649040278 1 0 0 1 I I #
point $-1 -39.857561500643328 33.220326348910007 11.440881029598671 #
plane-surface $-1 65.581835383159884 0 0 -1 0 0 0 0 1 forward_v I I I I #
coedge $-1 $186 $184 $188 $262 reversed $121 $-1 #
edge $-1 $199 -13.887338893890373 $264 13.887338893890373 $198 $308 forward 7 unknown #
vertex $-1 $262 $309 #
straight-curve $-1 -65.581835383159884 -34.576420036784477 0 0 0 -1 I I #
edge $-1 $260 -34.576420036784477 $264 34.576420036784477 $258 $310 forward 7 unknown #
straight-curve $-1 0 -34.576420036784477 -13.887338893890373 -1 0 0 I I #
vertex $-1 $191 $311 #
straight-curve $-1 0 34.576420036784477 -13.887338893890373 1 0 0 I I #
point $-1 65.581835383159884 34.576420036784477 -13.887338893890373 #
point $-1 65.581835383159884 -34.576420036784477 -13.887338893890373 #
straight-curve $-1 -65.581835383159884 0 13.887338893890373 0 -1 0 I I #
point $-1 -65.581835383159884 34.576420036784477 13.887338893890373 #
point $-1 -65.581835383159884 -34.576420036784477 13.887338893890373 #
straight-curve $-1 65.581835383159884 -34.576420036784477 0 0 0 -1 I I #
straight-curve $-1 65.581835383159884 34.576420036784477 0 0 0 -1 I I #
plane-surface $-1 65.581835383159884 0 0 -1 0 0 0 0 1 forward_v I I I I #
coedge $-1 $285 $276 $275 $312 forward $209 $-1 #
coedge $-1 $212 $211 $274 $312 reversed $84 $-1 #
coedge $-1 $274 $313 $213 $277 reversed $209 $-1 #
edge $-1 $278 -65.581835383159884 $281 65.581835383159884 $276 $314 forward 7 unknown #
vertex $-1 $214 $315 #
straight-curve $-1 -65.581835383159884 0 13.887338893890373 0 -1 0 I I #
coedge $-1 $221 $215 $313 $316 forward $222 $-1 #
vertex $-1 $216 $317 #
straight-curve $-1 65.581835383159884 0 13.887338893890373 0 1 0 I I #
point $-1 65.581835383159884 -34.576420036784477 13.887338893890373 #
point $-1 -65.581835383159884 -34.576420036784477 13.887338893890373 #
coedge $-1 $313 $274 $224 $286 reversed $209 $-1 #
edge $-1 $287 -65.581835383159884 $289 65.581835383159884 $285 $318 forward 7 unknown #
vertex $-1 $316 $319 #
straight-curve $-1 65.581835383159884 -43.71101458881742 9.1914882674513763 0 -1 0 I I #
vertex $-1 $226 $320 #
straight-curve $-1 -65.581835383159884 -43.71101458881742 9.1914882674513763 0 1 0 I I #
edge $-1 $294 -40.517253279866367 $239 -9.6119109267206682 $238 $321 forward 7 unknown #
coedge $-1 $293 $232 $298 $322 reversed $229 $-1 #
coedge $-1 $232 $292 $234 $296 forward $229 $-1 #
vertex $-1 $233 $323 #
straight-curve $-1 -65.581835383159884 15.656938255585068 43.126073069589708 0 -0.48480960649040278 0.87461971476443456 I I #
edge $-1 $300 -13.887338893890373 $235 -8.9944231653068929 $234 $324 forward 7 unknown #
point $-1 -65.581835383159884 34.576420036784477 8.9944231653068929 #
coedge $-1 $238 $237 $292 $322 forward $156 $-1 #
point $-1 -34.676493030014186 31.864232661035508 13.887338893890373 #
vertex $-1 $242 $325 #
straight-curve $-1 0 34.576420036784477 13.887338893890373 -1 0 0 I I #
vertex $-1 $245 $326 #
point $-1 -58.400766912530742 31.037740837371778 10.231054169858268 #
vertex $-1 $249 $327 #
point $-1 -49.129164206587035 31.037740837371778 10.231054169858268 #
vertex $-1 $253 $328 #
point $-1 -39.857561500643328 31.037740837371778 10.231054169858268 #
straight-curve $-1 -65.581835383159884 34.576420036784477 0 0 0 -1 I I #
point $-1 -65.581835383159884 -34.576420036784477 -13.887338893890373 #
straight-curve $-1 -65.581835383159884 0 -13.887338893890373 0 1 0 I I #
point $-1 -65.581835383159884 34.576420036784477 -13.887338893890373 #
edge $-1 $278 -2.3479253132194984 $289 2.3479253132194984 $275 $329 forward 7 unknown #
coedge $-1 $276 $285 $280 $316 reversed $209 $-1 #
straight-curve $-1 0 -52.845609140850364 13.887338893890373 1 0 0 I I #
point $-1 -65.581835383159884 -52.845609140850364 13.887338893890373 #
edge $-1 $281 -2.3479253132194984 $287 2.3479253132194984 $280 $330 forward 7 unknown #
point $-1 65.581835383159884 -52.845609140850364 13.887338893890373 #
straight-curve $-1 0 -52.845609140850364 9.1914882674513763 -1 0 0 I I #
point $-1 65.581835383159884 -52.845609140850364 9.1914882674513763 #
point $-1 -65.581835383159884 -52.845609140850364 9.1914882674513763 #
straight-curve $-1 -25.064582103293517 31.864232661035508 13.887338893890373 1 0 0 I I #
edge $-1 $300 -34.576420036784477 $294 -31.864232661035508 $292 $331 forward 7 unknown #
point $-1 -65.581835383159884 31.864232661035508 13.887338893890373 #
straight-curve $-1 -65.581835383159884 34.576420036784477 0 0 0 -1 I I #
point $-1 -65.581835383159884 34.576420036784477 13.887338893890373 #
point $-1 -59.400766912530742 30.163121122607343 9.7462445633678669 #
point $-1 -50.129164206587035 30.163121122607343 9.7462445633678669 #
point $-1 -40.857561500643328 30.163121122607343 9.7462445633678669 #
straight-curve $-1 -65.581835383159884 -52.845609140850364 11.539413580670875 0 0 -1 I I #
straight-curve $-1 65.581835383159884 -52.845609140850364 11.539413580670875 0 0 -1 I I #
straight-curve $-1 -65.581835383159884 0 13.887338893890373 0 -1 0 I I #
End-of-ACIS-data 