500 0 18 0           
7 Unknown 11 ACIS 5.0 NT 24 Fri Mar 26 03:19:49 1999 
-1 9.9999999999999995e-007 1e-010 
body $-1 $18 $-1 $19 #
body $-1 $20 $-1 $21 #
body $-1 $22 $-1 $23 #
body $-1 $24 $-1 $25 #
body $-1 $26 $-1 $27 #
body $-1 $28 $-1 $29 #
body $-1 $30 $-1 $31 #
body $-1 $32 $-1 $33 #
body $-1 $34 $-1 $35 #
body $-1 $36 $-1 $37 #
body $-1 $38 $-1 $39 #
body $-1 $40 $-1 $41 #
body $-1 $42 $-1 $43 #
body $-1 $44 $-1 $45 #
body $-1 $46 $-1 $47 #
body $-1 $48 $-1 $49 #
body $-1 $50 $-1 $51 #
body $-1 $52 $-1 $53 #
lump $-1 $-1 $54 $0 #
transform $-1 1 0 0 0 1 0 0 0 1 61.973326822717979 28.954047232387005 6.0540441237602796 1 rotate no_reflect no_shear #
lump $-1 $-1 $55 $1 #
transform $-1 1 0 0 0 1 0 0 0 1 61.973326822717979 28.954047232387005 6.0540441237602796 1 rotate no_reflect no_shear #
lump $-1 $-1 $56 $2 #
transform $-1 1 0 0 0 1 0 0 0 1 61.973326822717979 28.954047232387005 6.0540441237602796 1 rotate no_reflect no_shear #
lump $-1 $-1 $57 $3 #
transform $-1 1 0 0 0 1 0 0 0 1 61.973326822717979 28.954047232387005 6.0540441237602796 1 rotate no_reflect no_shear #
lump $-1 $-1 $58 $4 #
transform $-1 1 0 0 0 1 0 0 0 1 61.973326822717979 28.954047232387005 6.0540441237602796 1 rotate no_reflect no_shear #
lump $-1 $-1 $59 $5 #
transform $-1 1 0 0 0 1 0 0 0 1 61.973326822717979 28.954047232387005 6.0540441237602796 1 rotate no_reflect no_shear #
lump $-1 $-1 $60 $6 #
transform $-1 1 0 0 0 1 0 0 0 1 61.973326822717979 28.954047232387005 6.0540441237602796 1 rotate no_reflect no_shear #
lump $-1 $-1 $61 $7 #
transform $-1 1 0 0 0 1 0 0 0 1 61.973326822717979 28.954047232387005 6.0540441237602796 1 rotate no_reflect no_shear #
lump $-1 $-1 $62 $8 #
transform $-1 1 0 0 0 1 0 0 0 1 61.973326822717979 28.954047232387005 6.0540441237602796 1 rotate no_reflect no_shear #
lump $-1 $-1 $63 $9 #
transform $-1 1 0 0 0 1 0 0 0 1 61.973326822717979 28.954047232387005 6.0540441237602796 1 rotate no_reflect no_shear #
lump $-1 $-1 $64 $10 #
transform $-1 1 0 0 0 1 0 0 0 1 61.973326822717979 28.954047232387005 6.0540441237602796 1 rotate no_reflect no_shear #
lump $-1 $-1 $65 $11 #
transform $-1 1 0 0 0 1 0 0 0 1 61.973326822717979 28.954047232387005 6.0540441237602796 1 rotate no_reflect no_shear #
lump $-1 $-1 $66 $12 #
transform $-1 1 0 0 0 1 0 0 0 1 61.973326822717979 28.954047232387005 6.0540441237602796 1 rotate no_reflect no_shear #
lump $-1 $-1 $67 $13 #
transform $-1 1 0 0 0 1 0 0 0 1 61.973326822717979 28.954047232387005 6.0540441237602796 1 rotate no_reflect no_shear #
lump $-1 $-1 $68 $14 #
transform $-1 1 0 0 0 1 0 0 0 1 61.973326822717979 28.954047232387005 6.0540441237602796 1 rotate no_reflect no_shear #
lump $-1 $-1 $69 $15 #
transform $-1 1 0 0 0 1 0 0 0 1 61.973326822717979 28.954047232387005 6.0540441237602796 1 rotate no_reflect no_shear #
lump $-1 $-1 $70 $16 #
transform $-1 1 0 0 0 1 0 0 0 1 61.973326822717979 28.954047232387005 6.0540441237602796 1 rotate no_reflect no_shear #
lump $-1 $-1 $71 $17 #
transform $-1 1 0 0 0 1 0 0 0 1 61.973326822717979 28.954047232387005 6.0540441237602796 1 rotate no_reflect no_shear #
shell $-1 $-1 $-1 $72 $-1 $18 #
shell $-1 $-1 $-1 $73 $-1 $20 #
shell $-1 $-1 $-1 $74 $-1 $22 #
shell $-1 $-1 $-1 $75 $-1 $24 #
shell $-1 $-1 $-1 $76 $-1 $26 #
shell $-1 $-1 $-1 $77 $-1 $28 #
shell $-1 $-1 $-1 $78 $-1 $30 #
shell $-1 $-1 $-1 $79 $-1 $32 #
shell $-1 $-1 $-1 $80 $-1 $34 #
shell $-1 $-1 $-1 $81 $-1 $36 #
shell $-1 $-1 $-1 $82 $-1 $38 #
shell $-1 $-1 $-1 $83 $-1 $40 #
shell $-1 $-1 $-1 $84 $-1 $42 #
shell $-1 $-1 $-1 $85 $-1 $44 #
shell $-1 $-1 $-1 $86 $-1 $46 #
shell $-1 $-1 $-1 $87 $-1 $48 #
shell $-1 $-1 $-1 $88 $-1 $50 #
shell $-1 $-1 $-1 $89 $-1 $52 #
face $-1 $90 $91 $54 $-1 $92 forward single #
face $-1 $93 $94 $55 $-1 $95 forward single #
face $-1 $96 $97 $56 $-1 $98 reversed single #
face $-1 $99 $100 $57 $-1 $101 forward single #
face $-1 $102 $103 $58 $-1 $104 forward single #
face $-1 $105 $106 $59 $-1 $107 reversed single #
face $-1 $108 $109 $60 $-1 $110 forward single #
face $-1 $111 $112 $61 $-1 $113 forward single #
face $-1 $114 $115 $62 $-1 $116 reversed single #
face $-1 $117 $118 $63 $-1 $119 forward single #
face $-1 $120 $121 $64 $-1 $122 forward single #
face $-1 $123 $124 $65 $-1 $125 reversed single #
face $-1 $126 $127 $66 $-1 $128 forward single #
face $-1 $129 $130 $67 $-1 $131 forward single #
face $-1 $132 $133 $68 $-1 $134 reversed single #
face $-1 $135 $136 $69 $-1 $137 forward single #
face $-1 $138 $139 $70 $-1 $140 reversed single #
face $-1 $141 $142 $71 $-1 $143 forward single #
face $-1 $144 $145 $54 $-1 $146 reversed single #
loop $-1 $-1 $147 $72 #
plane-surface $-1 0 0 6.0540441237602796 0 0 1 1 0 0 forward_v I I I I #
face $-1 $148 $149 $55 $-1 $150 reversed single #
loop $-1 $-1 $151 $73 #
plane-surface $-1 -61.973326822717979 0 0 1 0 0 0 0 -1 forward_v I I I I #
face $-1 $152 $153 $56 $-1 $154 reversed single #
loop $-1 $-1 $155 $74 #
plane-surface $-1 -47.089861146169333 88.835945512985035 124.3353242674451 1 0 0 0 -0.77714596973225614 -0.62932038083071107 forward_v I I I I #
face $-1 $156 $157 $57 $-1 $158 forward single #
loop $-1 $159 $160 $75 #
cone-surface $-1 -41.597637222087791 25.807227387145453 2.6926957936338805 0 -0.77714596973225614 -0.62932038083071107 1 0 0 1 I I 0 1 1 forward I I I I #
face $-1 $161 $162 $58 $-1 $163 forward single #
loop $-1 $164 $165 $76 #
cone-surface $-1 -33.359301335965483 25.807227387145453 2.6926957936338805 0 -0.77714596973225614 -0.62932038083071107 1 0 0 1 I I 0 1 1 forward I I I I #
face $-1 $166 $167 $59 $-1 $168 reversed single #
loop $-1 $-1 $169 $77 #
plane-surface $-1 -18.012807355634244 88.835945512985035 124.3353242674451 1 0 0 0 -0.77714596973225614 -0.62932038083071107 forward_v I I I I #
face $-1 $170 $171 $60 $-1 $172 forward single #
loop $-1 $173 $174 $78 #
cone-surface $-1 -12.520583431552701 25.807227387145453 2.6926957936338805 0 -0.77714596973225614 -0.62932038083071107 1 0 0 1 I I 0 1 1 forward I I I I #
face $-1 $175 $176 $61 $-1 $177 forward single #
loop $-1 $178 $179 $79 #
cone-surface $-1 -4.2822475454303941 25.807227387145453 2.6926957936338805 0 -0.77714596973225614 -0.62932038083071107 1 0 0 1 I I 0 1 1 forward I I I I #
face $-1 $180 $181 $62 $-1 $182 reversed single #
loop $-1 $-1 $183 $80 #
plane-surface $-1 11.064246434900847 88.835945512985035 124.3353242674451 1 0 0 0 -0.77714596973225614 -0.62932038083071107 forward_v I I I I #
face $-1 $184 $185 $63 $-1 $186 forward single #
loop $-1 $187 $188 $81 #
cone-surface $-1 16.556470358982381 25.807227387145453 2.6926957936338805 0 -0.77714596973225614 -0.62932038083071107 1 0 0 1 I I 0 1 1 forward I I I I #
face $-1 $189 $190 $64 $-1 $191 forward single #
loop $-1 $192 $193 $82 #
cone-surface $-1 24.794806245104695 25.807227387145453 2.6926957936338805 0 -0.77714596973225614 -0.62932038083071107 1 0 0 1 I I 0 1 1 forward I I I I #
face $-1 $194 $195 $65 $-1 $196 reversed single #
loop $-1 $-1 $197 $83 #
plane-surface $-1 40.141300225435934 88.835945512985035 124.3353242674451 1 0 0 0 -0.77714596973225614 -0.62932038083071107 forward_v I I I I #
face $-1 $198 $199 $66 $-1 $200 forward single #
loop $-1 $201 $202 $84 #
cone-surface $-1 45.63352414951747 25.807227387145453 2.6926957936338805 0 -0.77714596973225614 -0.62932038083071107 1 0 0 1 I I 0 1 1 forward I I I I #
face $-1 $203 $204 $67 $-1 $205 forward single #
loop $-1 $206 $207 $85 #
cone-surface $-1 53.871860035639784 25.807227387145453 2.6926957936338805 0 -0.77714596973225614 -0.62932038083071107 1 0 0 1 I I 0 1 1 forward I I I I #
face $-1 $208 $209 $68 $-1 $210 reversed single #
loop $-1 $-1 $211 $86 #
plane-surface $-1 -17.426424675737728 -123.90269352776718 80.792347027328844 -1 0 0 0 -0.7660444514056185 0.64278759981090561 forward_v I I I I #
face $-1 $212 $213 $69 $-1 $214 forward single #
loop $-1 $215 $216 $87 #
cone-surface $-1 -24.862827717519494 -25.939255027965014 2.7944563720298929 0 0.7660444514056185 -0.64278759981090561 1 0 0 1 I I 0 1 1 forward I I I I #
face $-1 $217 $218 $70 $-1 $219 reversed single #
loop $-1 $-1 $220 $88 #
plane-surface $-1 39.937669242596861 -123.90269352776718 80.792347027328844 -1 0 0 0 -0.7660444514056185 0.64278759981090561 forward_v I I I I #
face $-1 $221 $222 $71 $-1 $223 forward single #
loop $-1 $224 $225 $89 #
cone-surface $-1 32.501266200815095 -25.939255027965014 2.7944563720298929 0 0.7660444514056185 -0.64278759981090561 1 0 0 1 I I 0 1 1 forward I I I I #
face $-1 $226 $227 $54 $-1 $228 reversed single #
loop $-1 $-1 $229 $90 #
plane-surface $-1 0 0 -6.0540441237602796 0 0 1 1 0 0 forward_v I I I I #
coedge $-1 $230 $231 $232 $233 forward $91 $-1 #
face $-1 $234 $235 $55 $-1 $236 forward single #
loop $-1 $-1 $237 $93 #
plane-surface $-1 0 28.954047232387005 0 0 -1 0 0 0 -1 forward_v I I I I #
coedge $-1 $238 $239 $240 $241 forward $94 $-1 #
face $-1 $242 $243 $56 $-1 $244 reversed single #
loop $-1 $-1 $245 $96 #
plane-surface $-1 -37.47846927902664 -7.4886968293653666 46.333168992607099 0 0.77714596973225614 0.62932038083071107 1 0 0 forward_v I I I I #
coedge $-1 $246 $247 $248 $249 reversed $97 $-1 #
face $-1 $-1 $250 $57 $-1 $251 forward single #
loop $-1 $252 $253 $99 #
cone-surface $-1 -41.597637222087791 24.184510931470193 1.3786459527556669 0 -0.77714596973225614 -0.62932038083071107 0.5 0 0 1 I I -0.70710678118654746 0.70710678118654746 0.5 forward I I I I #
loop $-1 $-1 $254 $75 #
coedge $-1 $160 $160 $255 $256 reversed $100 $-1 #
face $-1 $-1 $257 $58 $-1 $258 forward single #
loop $-1 $259 $260 $102 #
cone-surface $-1 -33.359301335965483 24.184510931470193 1.3786459527556669 0 -0.77714596973225614 -0.62932038083071107 0.5 0 0 1 I I -0.70710678118654746 0.70710678118654746 0.5 forward I I I I #
loop $-1 $-1 $261 $76 #
coedge $-1 $165 $165 $262 $263 reversed $103 $-1 #
face $-1 $264 $265 $59 $-1 $266 reversed single #
loop $-1 $-1 $267 $105 #
plane-surface $-1 -8.4014154884915513 -7.4886968293653666 46.333168992607099 0 0.77714596973225614 0.62932038083071107 1 0 0 forward_v I I I I #
coedge $-1 $268 $269 $270 $271 reversed $106 $-1 #
face $-1 $-1 $272 $60 $-1 $273 forward single #
loop $-1 $274 $275 $108 #
cone-surface $-1 -12.520583431552701 24.184510931470193 1.3786459527556669 0 -0.77714596973225614 -0.62932038083071107 0.5 0 0 1 I I -0.70710678118654746 0.70710678118654746 0.5 forward I I I I #
loop $-1 $-1 $276 $78 #
coedge $-1 $174 $174 $277 $278 reversed $109 $-1 #
face $-1 $-1 $279 $61 $-1 $280 forward single #
loop $-1 $281 $282 $111 #
cone-surface $-1 -4.2822475454303941 24.184510931470193 1.3786459527556669 0 -0.77714596973225614 -0.62932038083071107 0.5 0 0 1 I I -0.70710678118654746 0.70710678118654746 0.5 forward I I I I #
loop $-1 $-1 $283 $79 #
coedge $-1 $179 $179 $284 $285 reversed $112 $-1 #
face $-1 $286 $287 $62 $-1 $288 reversed single #
loop $-1 $-1 $289 $114 #
plane-surface $-1 20.675638302043538 -7.4886968293653666 46.333168992607099 0 0.77714596973225614 0.62932038083071107 1 0 0 forward_v I I I I #
coedge $-1 $290 $291 $292 $293 reversed $115 $-1 #
face $-1 $-1 $294 $63 $-1 $295 forward single #
loop $-1 $296 $297 $117 #
cone-surface $-1 16.556470358982381 24.184510931470193 1.3786459527556669 0 -0.77714596973225614 -0.62932038083071107 0.5 0 0 1 I I -0.70710678118654746 0.70710678118654746 0.5 forward I I I I #
loop $-1 $-1 $298 $81 #
coedge $-1 $188 $188 $299 $300 reversed $118 $-1 #
face $-1 $-1 $301 $64 $-1 $302 forward single #
loop $-1 $303 $304 $120 #
cone-surface $-1 24.794806245104695 24.184510931470193 1.3786459527556669 0 -0.77714596973225614 -0.62932038083071107 0.5 0 0 1 I I -0.70710678118654746 0.70710678118654746 0.5 forward I I I I #
loop $-1 $-1 $305 $82 #
coedge $-1 $193 $193 $306 $307 reversed $121 $-1 #
face $-1 $308 $309 $65 $-1 $310 reversed single #
loop $-1 $-1 $311 $123 #
plane-surface $-1 49.752692092578627 -7.4886968293653666 46.333168992607099 0 0.77714596973225614 0.62932038083071107 1 0 0 forward_v I I I I #
coedge $-1 $312 $313 $314 $315 reversed $124 $-1 #
face $-1 $-1 $316 $66 $-1 $317 forward single #
loop $-1 $318 $319 $126 #
cone-surface $-1 45.63352414951747 24.184510931470193 1.3786459527556669 0 -0.77714596973225614 -0.62932038083071107 0.5 0 0 1 I I -0.70710678118654746 0.70710678118654746 0.5 forward I I I I #
loop $-1 $-1 $320 $84 #
coedge $-1 $202 $202 $321 $322 reversed $127 $-1 #
face $-1 $-1 $323 $67 $-1 $324 forward single #
loop $-1 $325 $326 $129 #
cone-surface $-1 53.871860035639784 24.184510931470193 1.3786459527556669 0 -0.77714596973225614 -0.62932038083071107 0.5 0 0 1 I I -0.70710678118654746 0.70710678118654746 0.5 forward I I I I #
loop $-1 $-1 $327 $85 #
coedge $-1 $207 $207 $328 $329 reversed $130 $-1 #
face $-1 $330 $331 $68 $-1 $332 reversed single #
loop $-1 $-1 $333 $132 #
plane-surface $-1 -24.862827717519494 -28.954047232386998 1.1209750259854303 0 -0.7660444514056185 0.64278759981090561 1 0 0 forward_v I I I I #
coedge $-1 $334 $335 $336 $337 reversed $133 $-1 #
face $-1 $-1 $338 $69 $-1 $339 forward single #
loop $-1 $340 $341 $135 #
cone-surface $-1 -24.862827717519494 -24.611108773911276 1.6800093692814739 0 0.7660444514056185 -0.64278759981090561 0.5 0 0 1 I I -0.70710678118654746 0.70710678118654746 0.5 forward I I I I #
loop $-1 $-1 $342 $87 #
coedge $-1 $216 $216 $343 $344 reversed $136 $-1 #
face $-1 $345 $346 $70 $-1 $347 reversed single #
loop $-1 $-1 $348 $138 #
plane-surface $-1 32.501266200815095 -28.954047232386998 1.1209750259854303 0 -0.7660444514056185 0.64278759981090561 1 0 0 forward_v I I I I #
coedge $-1 $349 $350 $351 $352 reversed $139 $-1 #
face $-1 $-1 $353 $71 $-1 $354 forward single #
loop $-1 $355 $356 $141 #
cone-surface $-1 32.501266200815095 -24.611108773911276 1.6800093692814739 0 0.7660444514056185 -0.64278759981090561 0.5 0 0 1 I I -0.70710678118654746 0.70710678118654746 0.5 forward I I I I #
loop $-1 $-1 $357 $89 #
coedge $-1 $225 $225 $358 $359 reversed $142 $-1 #
face $-1 $360 $361 $54 $-1 $362 reversed single #
loop $-1 $-1 $363 $144 #
plane-surface $-1 0 -28.954047232387005 0 0 1 0 0 0 1 forward_v I I I I #
coedge $-1 $364 $365 $366 $367 forward $145 $-1 #
coedge $-1 $368 $147 $369 $370 forward $91 $-1 #
coedge $-1 $147 $368 $371 $372 forward $91 $-1 #
coedge $-1 $373 $374 $147 $233 reversed $375 $-1 #
edge $-1 $376 -28.954047232387005 $377 28.954047232387005 $232 $378 forward 7 unknown #
face $-1 $379 $380 $55 $-1 $381 reversed single #
loop $-1 $-1 $240 $148 #
plane-surface $-1 -65.79254606436578 0 3.7650000636286904 0 0 1 1 0 0 forward_v I I I I #
coedge $-1 $382 $383 $239 $384 forward $149 $-1 #
coedge $-1 $385 $151 $386 $387 reversed $94 $-1 #
coedge $-1 $151 $385 $237 $384 reversed $94 $-1 #
coedge $-1 $388 $389 $151 $241 reversed $235 $-1 #
edge $-1 $390 -28.954047232387005 $391 28.954047232387005 $240 $392 forward 7 unknown #
face $-1 $393 $394 $56 $-1 $395 forward single #
loop $-1 $-1 $396 $152 #
plane-surface $-1 -27.867077411883947 88.835945512985035 124.3353242674451 -1 0 0 0 0.77714596973225614 0.62932038083071107 forward_v I I I I #
coedge $-1 $397 $398 $399 $400 reversed $153 $-1 #
coedge $-1 $247 $155 $401 $402 reversed $97 $-1 #
coedge $-1 $155 $246 $397 $403 reversed $97 $-1 #
coedge $-1 $399 $404 $155 $249 forward $394 $-1 #
edge $-1 $405 15.463925524105512 $406 19.289278272970357 $248 $407 forward 7 unknown #
loop $-1 $-1 $255 $156 #
plane-surface $-1 -37.47846927902664 -7.4886968293653666 46.333168992607099 0 0.77714596973225614 0.62932038083071107 1 0 0 forward_v I I I I #
loop $-1 $-1 $408 $99 #
coedge $-1 $253 $253 $254 $409 reversed $157 $-1 #
coedge $-1 $254 $254 $253 $409 forward $159 $-1 #
coedge $-1 $255 $255 $160 $256 forward $250 $-1 #
edge $-1 $410 -1.8906729856886494e-015 $410 6.2831853071795987 $255 $411 forward 7 unknown #
loop $-1 $-1 $262 $161 #
plane-surface $-1 -37.47846927902664 -7.4886968293653666 46.333168992607099 0 0.77714596973225614 0.62932038083071107 1 0 0 forward_v I I I I #
loop $-1 $-1 $412 $102 #
coedge $-1 $260 $260 $261 $413 reversed $162 $-1 #
coedge $-1 $261 $261 $260 $413 forward $164 $-1 #
coedge $-1 $262 $262 $165 $263 forward $257 $-1 #
edge $-1 $414 -1.8906729856886494e-015 $414 6.2831853071795987 $262 $415 forward 7 unknown #
face $-1 $416 $417 $59 $-1 $418 forward single #
loop $-1 $-1 $419 $166 #
plane-surface $-1 1.2099763786511399 88.835945512985035 124.3353242674451 -1 0 0 0 0.77714596973225614 0.62932038083071107 forward_v I I I I #
coedge $-1 $420 $421 $422 $423 reversed $167 $-1 #
coedge $-1 $269 $169 $424 $425 reversed $106 $-1 #
coedge $-1 $169 $268 $420 $426 reversed $106 $-1 #
coedge $-1 $422 $427 $169 $271 forward $417 $-1 #
edge $-1 $428 15.463925524105512 $429 19.289278272970357 $270 $430 forward 7 unknown #
loop $-1 $-1 $277 $170 #
plane-surface $-1 -8.4014154884915513 -7.4886968293653666 46.333168992607099 0 0.77714596973225614 0.62932038083071107 1 0 0 forward_v I I I I #
loop $-1 $-1 $431 $108 #
coedge $-1 $275 $275 $276 $432 reversed $171 $-1 #
coedge $-1 $276 $276 $275 $432 forward $173 $-1 #
coedge $-1 $277 $277 $174 $278 forward $272 $-1 #
edge $-1 $433 -1.8906729856886494e-015 $433 6.2831853071795987 $277 $434 forward 7 unknown #
loop $-1 $-1 $284 $175 #
plane-surface $-1 -8.4014154884915513 -7.4886968293653666 46.333168992607099 0 0.77714596973225614 0.62932038083071107 1 0 0 forward_v I I I I #
loop $-1 $-1 $435 $111 #
coedge $-1 $282 $282 $283 $436 reversed $176 $-1 #
coedge $-1 $283 $283 $282 $436 forward $178 $-1 #
coedge $-1 $284 $284 $179 $285 forward $279 $-1 #
edge $-1 $437 -1.8906729856886494e-015 $437 6.2831853071795987 $284 $438 forward 7 unknown #
face $-1 $439 $440 $62 $-1 $441 forward single #
loop $-1 $-1 $442 $180 #
plane-surface $-1 30.287030169186231 88.835945512985035 124.3353242674451 -1 0 0 0 0.77714596973225614 0.62932038083071107 forward_v I I I I #
coedge $-1 $443 $444 $445 $446 reversed $181 $-1 #
coedge $-1 $291 $183 $447 $448 reversed $115 $-1 #
coedge $-1 $183 $290 $443 $449 reversed $115 $-1 #
coedge $-1 $445 $450 $183 $293 forward $440 $-1 #
edge $-1 $451 15.463925524105512 $452 19.289278272970357 $292 $453 forward 7 unknown #
loop $-1 $-1 $299 $184 #
plane-surface $-1 20.675638302043538 -7.4886968293653666 46.333168992607099 0 0.77714596973225614 0.62932038083071107 1 0 0 forward_v I I I I #
loop $-1 $-1 $454 $117 #
coedge $-1 $297 $297 $298 $455 reversed $185 $-1 #
coedge $-1 $298 $298 $297 $455 forward $187 $-1 #
coedge $-1 $299 $299 $188 $300 forward $294 $-1 #
edge $-1 $456 -1.8906729856886494e-015 $456 6.2831853071795987 $299 $457 forward 7 unknown #
loop $-1 $-1 $306 $189 #
plane-surface $-1 20.675638302043538 -7.4886968293653666 46.333168992607099 0 0.77714596973225614 0.62932038083071107 1 0 0 forward_v I I I I #
loop $-1 $-1 $458 $120 #
coedge $-1 $304 $304 $305 $459 reversed $190 $-1 #
coedge $-1 $305 $305 $304 $459 forward $192 $-1 #
coedge $-1 $306 $306 $193 $307 forward $301 $-1 #
edge $-1 $460 -1.8906729856886494e-015 $460 6.2831853071795987 $306 $461 forward 7 unknown #
face $-1 $462 $463 $65 $-1 $464 forward single #
loop $-1 $-1 $465 $194 #
plane-surface $-1 59.36408395972132 88.835945512985035 124.3353242674451 -1 0 0 0 0.77714596973225614 0.62932038083071107 forward_v I I I I #
coedge $-1 $466 $467 $468 $469 reversed $195 $-1 #
coedge $-1 $313 $197 $470 $471 reversed $124 $-1 #
coedge $-1 $197 $312 $466 $472 reversed $124 $-1 #
coedge $-1 $468 $473 $197 $315 forward $463 $-1 #
edge $-1 $474 15.463925524105512 $475 19.289278272970357 $314 $476 forward 7 unknown #
loop $-1 $-1 $321 $198 #
plane-surface $-1 49.752692092578627 -7.4886968293653666 46.333168992607099 0 0.77714596973225614 0.62932038083071107 1 0 0 forward_v I I I I #
loop $-1 $-1 $477 $126 #
coedge $-1 $319 $319 $320 $478 reversed $199 $-1 #
coedge $-1 $320 $320 $319 $478 forward $201 $-1 #
coedge $-1 $321 $321 $202 $322 forward $316 $-1 #
edge $-1 $479 -1.8906729856886494e-015 $479 6.2831853071795987 $321 $480 forward 7 unknown #
loop $-1 $-1 $328 $203 #
plane-surface $-1 49.752692092578627 -7.4886968293653666 46.333168992607099 0 0.77714596973225614 0.62932038083071107 1 0 0 forward_v I I I I #
loop $-1 $-1 $481 $129 #
coedge $-1 $326 $326 $327 $482 reversed $204 $-1 #
coedge $-1 $327 $327 $326 $482 forward $206 $-1 #
coedge $-1 $328 $328 $207 $329 forward $323 $-1 #
edge $-1 $483 -1.8906729856886494e-015 $483 6.2831853071795987 $328 $484 forward 7 unknown #
face $-1 $485 $486 $68 $-1 $487 reversed single #
loop $-1 $-1 $488 $208 #
plane-surface $-1 -32.29923075930126 -123.90269352776718 80.792347027328844 1 0 0 0 0.7660444514056185 -0.64278759981090561 forward_v I I I I #
coedge $-1 $489 $490 $491 $492 reversed $209 $-1 #
coedge $-1 $335 $211 $493 $494 reversed $133 $-1 #
coedge $-1 $211 $334 $489 $495 reversed $133 $-1 #
coedge $-1 $491 $496 $211 $337 forward $497 $-1 #
edge $-1 $498 32.997299531496587 $499 37.136635883638718 $336 $500 forward 7 unknown #
loop $-1 $-1 $343 $212 #
plane-surface $-1 -24.862827717519494 -28.954047232386998 1.1209750259854303 0 -0.7660444514056185 0.64278759981090561 1 0 0 forward_v I I I I #
loop $-1 $-1 $501 $135 #
coedge $-1 $341 $341 $342 $502 reversed $213 $-1 #
coedge $-1 $342 $342 $341 $502 forward $215 $-1 #
coedge $-1 $343 $343 $216 $344 forward $338 $-1 #
edge $-1 $503 -1.4478362007139763e-016 $503 6.2831853071796004 $343 $504 forward 7 unknown #
face $-1 $505 $506 $70 $-1 $507 reversed single #
loop $-1 $-1 $508 $217 #
plane-surface $-1 25.06486315903333 -123.90269352776718 80.792347027328844 1 0 0 0 0.7660444514056185 -0.64278759981090561 forward_v I I I I #
coedge $-1 $509 $510 $511 $512 reversed $218 $-1 #
coedge $-1 $350 $220 $513 $514 reversed $139 $-1 #
coedge $-1 $220 $349 $509 $515 reversed $139 $-1 #
coedge $-1 $511 $516 $220 $352 forward $517 $-1 #
edge $-1 $518 32.997299531496587 $519 37.136635883638718 $351 $520 forward 7 unknown #
loop $-1 $-1 $358 $221 #
plane-surface $-1 32.501266200815095 -28.954047232386998 1.1209750259854303 0 -0.7660444514056185 0.64278759981090561 1 0 0 forward_v I I I I #
loop $-1 $-1 $521 $141 #
coedge $-1 $356 $356 $357 $522 reversed $222 $-1 #
coedge $-1 $357 $357 $356 $522 forward $224 $-1 #
coedge $-1 $358 $358 $225 $359 forward $353 $-1 #
edge $-1 $523 -1.4478362007139763e-016 $523 6.2831853071796004 $358 $524 forward 7 unknown #
face $-1 $525 $526 $54 $-1 $527 reversed single #
loop $-1 $-1 $528 $226 #
plane-surface $-1 -61.973326822717979 0 0 1 0 0 0 0 -1 forward_v I I I I #
coedge $-1 $529 $371 $528 $530 forward $227 $-1 #
coedge $-1 $531 $229 $529 $532 forward $145 $-1 #
coedge $-1 $229 $531 $533 $534 forward $145 $-1 #
coedge $-1 $374 $373 $229 $367 reversed $375 $-1 #
edge $-1 $535 -28.954047232387005 $536 28.954047232387005 $366 $537 forward 7 unknown #
coedge $-1 $231 $230 $538 $539 forward $91 $-1 #
coedge $-1 $540 $541 $230 $370 reversed $526 $-1 #
edge $-1 $377 -61.973326822717979 $542 61.973326822717979 $369 $543 forward 7 unknown #
coedge $-1 $363 $544 $231 $372 reversed $227 $-1 #
edge $-1 $545 -61.973326822717979 $376 61.973326822717979 $371 $546 forward 7 unknown #
coedge $-1 $366 $232 $544 $547 forward $375 $-1 #
coedge $-1 $232 $366 $540 $548 reversed $375 $-1 #
loop $-1 $-1 $373 $525 #
vertex $-1 $233 $549 #
vertex $-1 $233 $550 #
straight-curve $-1 61.973326822717979 0 6.0540441237602796 0 1 0 I I #
face $-1 $551 $552 $55 $-1 $553 reversed single #
loop $-1 $-1 $554 $234 #
plane-surface $-1 -65.79254606436578 0 0.76500006362869044 0 0 1 1 0 0 forward_v I I I I #
coedge $-1 $555 $237 $556 $557 reversed $149 $-1 #
coedge $-1 $237 $555 $388 $558 reversed $149 $-1 #
edge $-1 $390 -3.7650000636286904 $559 -0.76500006362869044 $237 $560 forward 7 unknown #
coedge $-1 $239 $238 $554 $561 forward $94 $-1 #
coedge $-1 $562 $563 $238 $387 forward $564 $-1 #
edge $-1 $565 0.76500006362869044 $391 3.7650000636286904 $386 $566 forward 7 unknown #
coedge $-1 $567 $240 $383 $558 forward $235 $-1 #
coedge $-1 $240 $567 $562 $568 forward $235 $-1 #
vertex $-1 $384 $569 #
vertex $-1 $568 $570 #
straight-curve $-1 -61.973326822717979 0 3.7650000636286904 0 -1 0 I I #
face $-1 $-1 $571 $56 $-1 $572 reversed single #
loop $-1 $-1 $248 $242 #
plane-surface $-1 0 0 6.0540441237602796 0 0 1 1 0 0 forward_v I I I I #
coedge $-1 $573 $574 $575 $576 reversed $243 $-1 #
coedge $-1 $577 $245 $247 $403 forward $153 $-1 #
coedge $-1 $245 $577 $573 $578 forward $153 $-1 #
coedge $-1 $575 $248 $245 $400 forward $394 $-1 #
edge $-1 $406 -28.350626506656013 $579 -9.1278427723706272 $399 $580 forward 7 unknown #
coedge $-1 $581 $582 $246 $402 forward $571 $-1 #
edge $-1 $583 -60.837535369289341 $405 -56.113618009962273 $401 $584 forward 7 unknown #
edge $-1 $406 51.829548678897304 $583 57.90809446477401 $247 $585 forward 7 unknown #
coedge $-1 $248 $575 $581 $586 forward $394 $-1 #
vertex $-1 $402 $587 #
vertex $-1 $249 $588 #
straight-curve $-1 -47.089861146169333 44.417972756492517 6.0540441237602778 0 -1 0 I I #
coedge $-1 $408 $408 $-1 $589 reversed $252 $-1 #
edge $-1 $590 0 $590 6.2831853071796004 $253 $591 forward 7 unknown #
vertex $-1 $256 $592 #
ellipse-curve $-1 -41.597637222087791 27.041370857954586 3.692085444096739 0 0.77714596973225614 0.62932038083071107 1 0 0 1 I I #
coedge $-1 $412 $412 $-1 $593 reversed $259 $-1 #
edge $-1 $594 0 $594 6.2831853071796004 $260 $595 forward 7 unknown #
vertex $-1 $263 $596 #
ellipse-curve $-1 -33.359301335965483 27.041370857954586 3.692085444096739 0 0.77714596973225614 0.62932038083071107 1 0 0 1 I I #
face $-1 $-1 $597 $59 $-1 $598 reversed single #
loop $-1 $-1 $270 $264 #
plane-surface $-1 0 0 6.0540441237602796 0 0 1 1 0 0 forward_v I I I I #
coedge $-1 $599 $600 $601 $602 reversed $265 $-1 #
coedge $-1 $603 $267 $269 $426 forward $167 $-1 #
coedge $-1 $267 $603 $599 $604 forward $167 $-1 #
coedge $-1 $601 $270 $267 $423 forward $417 $-1 #
edge $-1 $429 -13.812099611388469 $605 5.4106841228969156 $422 $606 forward 7 unknown #
coedge $-1 $607 $608 $268 $425 forward $597 $-1 #
edge $-1 $609 -60.837535369289341 $428 -56.113618009962273 $424 $610 forward 7 unknown #
edge $-1 $429 51.829548678897304 $609 57.90809446477401 $269 $611 forward 7 unknown #
coedge $-1 $270 $601 $607 $612 forward $417 $-1 #
vertex $-1 $271 $613 #
vertex $-1 $271 $614 #
straight-curve $-1 -18.012807355634244 44.417972756492517 6.0540441237602778 0 -1 0 I I #
coedge $-1 $431 $431 $-1 $615 reversed $274 $-1 #
edge $-1 $616 0 $616 6.2831853071796004 $275 $617 forward 7 unknown #
vertex $-1 $278 $618 #
ellipse-curve $-1 -12.520583431552701 27.041370857954586 3.692085444096739 0 0.77714596973225614 0.62932038083071107 1 0 0 1 I I #
coedge $-1 $435 $435 $-1 $619 reversed $281 $-1 #
edge $-1 $620 0 $620 6.2831853071796004 $282 $621 forward 7 unknown #
vertex $-1 $285 $622 #
ellipse-curve $-1 -4.2822475454303941 27.041370857954586 3.692085444096739 0 0.77714596973225614 0.62932038083071107 1 0 0 1 I I #
face $-1 $-1 $623 $62 $-1 $624 reversed single #
loop $-1 $-1 $292 $286 #
plane-surface $-1 0 0 6.0540441237602796 0 0 1 1 0 0 forward_v I I I I #
coedge $-1 $625 $626 $627 $628 reversed $287 $-1 #
coedge $-1 $629 $289 $291 $449 forward $181 $-1 #
coedge $-1 $289 $629 $625 $630 forward $181 $-1 #
coedge $-1 $627 $292 $289 $446 forward $440 $-1 #
edge $-1 $452 0.72642728387907773 $631 19.949211018164462 $445 $632 forward 7 unknown #
coedge $-1 $633 $634 $290 $448 forward $623 $-1 #
edge $-1 $635 -60.837535369289341 $451 -56.113618009962273 $447 $636 forward 7 unknown #
edge $-1 $452 51.829548678897304 $635 57.90809446477401 $291 $637 forward 7 unknown #
coedge $-1 $292 $627 $633 $638 forward $440 $-1 #
vertex $-1 $293 $639 #
vertex $-1 $293 $640 #
straight-curve $-1 11.064246434900847 44.417972756492517 6.0540441237602778 0 -1 0 I I #
coedge $-1 $454 $454 $-1 $641 reversed $296 $-1 #
edge $-1 $642 0 $642 6.2831853071796004 $297 $643 forward 7 unknown #
vertex $-1 $300 $644 #
ellipse-curve $-1 16.556470358982381 27.041370857954586 3.692085444096739 0 0.77714596973225614 0.62932038083071107 1 0 0 1 I I #
coedge $-1 $458 $458 $-1 $645 reversed $303 $-1 #
edge $-1 $646 0 $646 6.2831853071796004 $304 $647 forward 7 unknown #
vertex $-1 $307 $648 #
ellipse-curve $-1 24.794806245104695 27.041370857954586 3.692085444096739 0 0.77714596973225614 0.62932038083071107 1 0 0 1 I I #
face $-1 $-1 $649 $65 $-1 $650 reversed single #
loop $-1 $-1 $314 $308 #
plane-surface $-1 0 0 6.0540441237602796 0 0 1 1 0 0 forward_v I I I I #
coedge $-1 $651 $652 $653 $654 reversed $309 $-1 #
coedge $-1 $655 $311 $313 $472 forward $195 $-1 #
coedge $-1 $311 $655 $651 $656 forward $195 $-1 #
coedge $-1 $653 $314 $311 $469 forward $463 $-1 #
edge $-1 $475 15.264954179146621 $657 34.487737913432007 $468 $658 forward 7 unknown #
coedge $-1 $659 $660 $312 $471 forward $649 $-1 #
edge $-1 $661 -60.837535369289341 $474 -56.113618009962273 $470 $662 forward 7 unknown #
edge $-1 $475 51.829548678897304 $661 57.90809446477401 $313 $663 forward 7 unknown #
coedge $-1 $314 $653 $659 $664 forward $463 $-1 #
vertex $-1 $315 $665 #
vertex $-1 $315 $666 #
straight-curve $-1 40.141300225435934 44.417972756492517 6.0540441237602778 0 -1 0 I I #
coedge $-1 $477 $477 $-1 $667 reversed $318 $-1 #
edge $-1 $668 0 $668 6.2831853071796004 $319 $669 forward 7 unknown #
vertex $-1 $322 $670 #
ellipse-curve $-1 45.63352414951747 27.041370857954586 3.692085444096739 0 0.77714596973225614 0.62932038083071107 1 0 0 1 I I #
coedge $-1 $481 $481 $-1 $671 reversed $325 $-1 #
edge $-1 $672 0 $672 6.2831853071796004 $326 $673 forward 7 unknown #
vertex $-1 $329 $674 #
ellipse-curve $-1 53.871860035639784 27.041370857954586 3.692085444096739 0 0.77714596973225614 0.62932038083071107 1 0 0 1 I I #
face $-1 $-1 $497 $68 $-1 $675 forward single #
loop $-1 $-1 $676 $330 #
plane-surface $-1 0 -28.954047232387005 0 0 1 0 0 0 1 forward_v I I I I #
coedge $-1 $677 $678 $679 $680 reversed $331 $-1 #
coedge $-1 $681 $333 $335 $495 forward $209 $-1 #
coedge $-1 $333 $681 $677 $682 forward $209 $-1 #
coedge $-1 $679 $336 $333 $492 forward $497 $-1 #
edge $-1 $499 4.995010816977981 $683 19.867816900541513 $491 $684 forward 7 unknown #
coedge $-1 $685 $686 $334 $494 forward $486 $-1 #
edge $-1 $687 -39.275198487678999 $498 -34.342129389904144 $493 $688 forward 7 unknown #
edge $-1 $499 -6.4396642893544085 $687 1.1030930024383267e-014 $335 $689 forward 7 unknown #
coedge $-1 $336 $679 $685 $690 forward $497 $-1 #
loop $-1 $-1 $679 $485 #
vertex $-1 $494 $691 #
vertex $-1 $337 $692 #
straight-curve $-1 -17.426424675737728 -61.951346763883592 6.0540441237602778 0 1 0 I I #
coedge $-1 $501 $501 $-1 $693 reversed $340 $-1 #
edge $-1 $694 0 $694 6.2831853071796004 $341 $695 forward 7 unknown #
vertex $-1 $344 $696 #
ellipse-curve $-1 -24.862827717519494 -26.884379056315939 3.5875095748728536 0 -0.7660444514056185 0.64278759981090561 1 0 0 1 I I #
face $-1 $-1 $517 $70 $-1 $697 forward single #
loop $-1 $-1 $698 $345 #
plane-surface $-1 0 -28.954047232387005 0 0 1 0 0 0 1 forward_v I I I I #
coedge $-1 $699 $700 $701 $702 reversed $346 $-1 #
coedge $-1 $703 $348 $350 $515 forward $218 $-1 #
coedge $-1 $348 $703 $699 $704 forward $218 $-1 #
coedge $-1 $701 $351 $348 $512 forward $517 $-1 #
edge $-1 $519 -23.687036142189314 $705 -8.8142300586257818 $511 $706 forward 7 unknown #
coedge $-1 $707 $708 $349 $514 forward $506 $-1 #
edge $-1 $709 -39.275198487678999 $518 -34.342129389904144 $513 $710 forward 7 unknown #
edge $-1 $519 -6.4396642893544085 $709 1.1030930024383267e-014 $350 $711 forward 7 unknown #
coedge $-1 $351 $701 $707 $712 forward $517 $-1 #
loop $-1 $-1 $701 $505 #
vertex $-1 $514 $713 #
vertex $-1 $352 $714 #
straight-curve $-1 39.937669242596861 -61.951346763883592 6.0540441237602778 0 1 0 I I #
coedge $-1 $521 $521 $-1 $715 reversed $355 $-1 #
edge $-1 $716 0 $716 6.2831853071796004 $356 $717 forward 7 unknown #
vertex $-1 $359 $718 #
ellipse-curve $-1 32.501266200815095 -26.884379056315939 3.5875095748728536 0 -0.7660444514056185 0.64278759981090561 1 0 0 1 I I #
face $-1 $-1 $375 $54 $-1 $719 reversed single #
loop $-1 $-1 $540 $360 #
plane-surface $-1 0 28.954047232387005 0 0 -1 0 0 0 -1 forward_v I I I I #
coedge $-1 $538 $720 $363 $530 reversed $361 $-1 #
coedge $-1 $544 $363 $364 $532 reversed $227 $-1 #
edge $-1 $545 -6.0540441237602796 $721 6.0540441237602796 $528 $722 forward 7 unknown #
coedge $-1 $365 $364 $720 $723 forward $145 $-1 #
edge $-1 $536 -61.973326822717979 $721 61.973326822717979 $529 $724 forward 7 unknown #
coedge $-1 $541 $540 $365 $534 reversed $526 $-1 #
edge $-1 $725 -61.973326822717979 $535 61.973326822717979 $533 $726 forward 7 unknown #
vertex $-1 $367 $727 #
vertex $-1 $547 $728 #
straight-curve $-1 61.973326822717979 0 -6.0540441237602796 0 -1 0 I I #
coedge $-1 $729 $528 $368 $539 reversed $361 $-1 #
edge $-1 $542 -28.954047232387005 $545 28.954047232387005 $538 $730 forward 7 unknown #
coedge $-1 $533 $369 $374 $548 forward $526 $-1 #
coedge $-1 $369 $533 $729 $731 reversed $526 $-1 #
vertex $-1 $370 $732 #
straight-curve $-1 0 28.954047232387005 6.0540441237602796 -1 0 0 I I #
coedge $-1 $371 $529 $373 $547 reversed $227 $-1 #
vertex $-1 $539 $733 #
straight-curve $-1 0 -28.954047232387005 6.0540441237602796 1 0 0 I I #
edge $-1 $376 -6.0540441237602796 $536 6.0540441237602796 $373 $734 forward 7 unknown #
edge $-1 $377 -6.0540441237602796 $535 6.0540441237602796 $374 $735 forward 7 unknown #
point $-1 61.973326822717979 -28.954047232387005 6.0540441237602796 #
point $-1 61.973326822717979 28.954047232387005 6.0540441237602796 #
face $-1 $-1 $564 $55 $-1 $736 reversed single #
loop $-1 $-1 $737 $379 #
plane-surface $-1 -69.611765306013581 0 2.2650000636286904 1 0 0 0 0 -1 forward_v I I I I #
coedge $-1 $738 $556 $385 $561 reversed $380 $-1 #
coedge $-1 $383 $382 $737 $739 reversed $149 $-1 #
coedge $-1 $554 $740 $382 $557 forward $380 $-1 #
edge $-1 $741 -3.8192192416478008 $559 3.8192192416478008 $382 $742 forward 7 unknown #
edge $-1 $390 -3.8192192416478008 $743 3.8192192416478008 $383 $744 forward 7 unknown #
vertex $-1 $384 $745 #
straight-curve $-1 -61.973326822717979 28.954047232387005 0 0 0 -1 I I #
edge $-1 $565 -28.954047232387005 $559 28.954047232387005 $554 $746 forward 7 unknown #
coedge $-1 $747 $386 $389 $568 reversed $564 $-1 #
coedge $-1 $386 $747 $738 $748 reversed $564 $-1 #
loop $-1 $-1 $386 $551 #
vertex $-1 $387 $749 #
straight-curve $-1 -61.973326822717979 -28.954047232387005 0 0 0 1 I I #
coedge $-1 $389 $388 $750 $751 forward $235 $-1 #
edge $-1 $752 -3.8192192416478008 $391 3.8192192416478008 $562 $753 forward 7 unknown #
point $-1 -61.973326822717979 28.954047232387005 3.7650000636286904 #
point $-1 -61.973326822717979 -28.954047232387005 3.7650000636286904 #
loop $-1 $-1 $401 $393 #
plane-surface $-1 0 28.954047232387005 0 0 -1 0 0 0 -1 forward_v I I I I #
coedge $-1 $574 $396 $398 $578 reversed $243 $-1 #
coedge $-1 $396 $573 $754 $755 reversed $243 $-1 #
coedge $-1 $404 $399 $396 $576 forward $394 $-1 #
edge $-1 $579 -19.289278272970357 $756 -15.463925524105512 $575 $757 forward 7 unknown #
coedge $-1 $398 $397 $582 $758 reversed $153 $-1 #
edge $-1 $759 -57.90809446477401 $579 -51.829548678897304 $573 $760 forward 7 unknown #
vertex $-1 $400 $761 #
straight-curve $-1 -18.73923463951332 25.12869448352216 6.0540441237602778 1 0 0 I I #
coedge $-1 $754 $401 $404 $586 reversed $571 $-1 #
coedge $-1 $401 $754 $577 $758 forward $571 $-1 #
vertex $-1 $402 $762 #
straight-curve $-1 -47.089861146169333 28.954047232387005 62.167662133722551 0 0 1 I I #
straight-curve $-1 -47.089861146169333 -7.4886968293653666 46.333168992607099 0 0.62932038083071107 -0.77714596973225614 I I #
edge $-1 $756 27.867077411883947 $405 47.089861146169333 $581 $763 forward 7 unknown #
point $-1 -47.089861146169333 28.954047232387005 6.0540441237602796 #
point $-1 -47.089861146169333 25.12869448352216 6.0540441237602778 #
edge $-1 $764 1 $764 0 $408 $-1 forward 7 unknown #
vertex $-1 $409 $765 #
ellipse-curve $-1 -41.597637222087791 24.573083916336319 1.6933061431710223 0 0.77714596973225614 0.62932038083071107 1 0 0 1 I I #
point $-1 -40.597637222087791 27.041370857954583 3.6920854440967386 #
edge $-1 $766 1 $766 0 $412 $-1 forward 7 unknown #
vertex $-1 $413 $767 #
ellipse-curve $-1 -33.359301335965483 24.573083916336319 1.6933061431710223 0 0.77714596973225614 0.62932038083071107 1 0 0 1 I I #
point $-1 -32.359301335965483 27.041370857954583 3.6920854440967386 #
loop $-1 $-1 $424 $416 #
plane-surface $-1 0 28.954047232387005 0 0 -1 0 0 0 -1 forward_v I I I I #
coedge $-1 $600 $419 $421 $604 reversed $265 $-1 #
coedge $-1 $419 $599 $768 $769 reversed $265 $-1 #
coedge $-1 $427 $422 $419 $602 forward $417 $-1 #
edge $-1 $605 -19.289278272970357 $770 -15.463925524105512 $601 $771 forward 7 unknown #
coedge $-1 $421 $420 $608 $772 reversed $167 $-1 #
edge $-1 $773 -57.90809446477401 $605 -51.829548678897304 $599 $774 forward 7 unknown #
vertex $-1 $423 $775 #
straight-curve $-1 -4.2007077442457756 25.12869448352216 6.0540441237602778 1 0 0 I I #
coedge $-1 $768 $424 $427 $612 reversed $597 $-1 #
coedge $-1 $424 $768 $603 $772 forward $597 $-1 #
vertex $-1 $425 $776 #
straight-curve $-1 -18.012807355634244 28.954047232387005 62.167662133722551 0 0 1 I I #
straight-curve $-1 -18.012807355634244 -7.4886968293653666 46.333168992607099 0 0.62932038083071107 -0.77714596973225614 I I #
edge $-1 $770 -1.2099763786511399 $428 18.012807355634244 $607 $777 forward 7 unknown #
point $-1 -18.012807355634244 28.954047232387005 6.0540441237602796 #
point $-1 -18.012807355634244 25.12869448352216 6.0540441237602778 #
edge $-1 $778 1 $778 0 $431 $-1 forward 7 unknown #
vertex $-1 $432 $779 #
ellipse-curve $-1 -12.520583431552701 24.573083916336319 1.6933061431710223 0 0.77714596973225614 0.62932038083071107 1 0 0 1 I I #
point $-1 -11.520583431552701 27.041370857954583 3.6920854440967386 #
edge $-1 $780 1 $780 0 $435 $-1 forward 7 unknown #
vertex $-1 $436 $781 #
ellipse-curve $-1 -4.2822475454303941 24.573083916336319 1.6933061431710223 0 0.77714596973225614 0.62932038083071107 1 0 0 1 I I #
point $-1 -3.2822475454303941 27.041370857954583 3.6920854440967386 #
loop $-1 $-1 $447 $439 #
plane-surface $-1 0 28.954047232387005 0 0 -1 0 0 0 -1 forward_v I I I I #
coedge $-1 $626 $442 $444 $630 reversed $287 $-1 #
coedge $-1 $442 $625 $782 $783 reversed $287 $-1 #
coedge $-1 $450 $445 $442 $628 forward $440 $-1 #
edge $-1 $631 -19.289278272970357 $784 -15.463925524105512 $627 $785 forward 7 unknown #
coedge $-1 $444 $443 $634 $786 reversed $181 $-1 #
edge $-1 $787 -57.90809446477401 $631 -51.829548678897304 $625 $788 forward 7 unknown #
vertex $-1 $446 $789 #
straight-curve $-1 10.337819151021769 25.12869448352216 6.0540441237602778 1 0 0 I I #
coedge $-1 $782 $447 $450 $638 reversed $623 $-1 #
coedge $-1 $447 $782 $629 $786 forward $623 $-1 #
vertex $-1 $448 $790 #
straight-curve $-1 11.064246434900847 28.954047232387005 62.167662133722551 0 0 1 I I #
straight-curve $-1 11.064246434900847 -7.4886968293653666 46.333168992607099 0 0.62932038083071107 -0.77714596973225614 I I #
edge $-1 $784 -30.287030169186231 $451 -11.064246434900847 $633 $791 forward 7 unknown #
point $-1 11.064246434900847 28.954047232387005 6.0540441237602796 #
point $-1 11.064246434900847 25.12869448352216 6.0540441237602778 #
edge $-1 $792 1 $792 0 $454 $-1 forward 7 unknown #
vertex $-1 $455 $793 #
ellipse-curve $-1 16.556470358982381 24.573083916336319 1.6933061431710223 0 0.77714596973225614 0.62932038083071107 1 0 0 1 I I #
point $-1 17.556470358982381 27.041370857954583 3.6920854440967386 #
edge $-1 $794 1 $794 0 $458 $-1 forward 7 unknown #
vertex $-1 $459 $795 #
ellipse-curve $-1 24.794806245104695 24.573083916336319 1.6933061431710223 0 0.77714596973225614 0.62932038083071107 1 0 0 1 I I #
point $-1 25.794806245104695 27.041370857954583 3.6920854440967386 #
loop $-1 $-1 $470 $462 #
plane-surface $-1 0 28.954047232387005 0 0 -1 0 0 0 -1 forward_v I I I I #
coedge $-1 $652 $465 $467 $656 reversed $309 $-1 #
coedge $-1 $465 $651 $796 $797 reversed $309 $-1 #
coedge $-1 $473 $468 $465 $654 forward $463 $-1 #
edge $-1 $657 -19.289278272970357 $798 -15.463925524105512 $653 $799 forward 7 unknown #
coedge $-1 $467 $466 $660 $800 reversed $195 $-1 #
edge $-1 $801 -57.90809446477401 $657 -51.829548678897304 $651 $802 forward 7 unknown #
vertex $-1 $469 $803 #
straight-curve $-1 24.876346046289314 25.12869448352216 6.0540441237602778 1 0 0 I I #
coedge $-1 $796 $470 $473 $664 reversed $649 $-1 #
coedge $-1 $470 $796 $655 $800 forward $649 $-1 #
vertex $-1 $471 $804 #
straight-curve $-1 40.141300225435934 28.954047232387005 62.167662133722551 0 0 1 I I #
straight-curve $-1 40.141300225435934 -7.4886968293653666 46.333168992607099 0 0.62932038083071107 -0.77714596973225614 I I #
edge $-1 $798 -59.36408395972132 $474 -40.141300225435934 $659 $805 forward 7 unknown #
point $-1 40.141300225435934 28.954047232387005 6.0540441237602796 #
point $-1 40.141300225435934 25.12869448352216 6.0540441237602778 #
edge $-1 $806 1 $806 0 $477 $-1 forward 7 unknown #
vertex $-1 $478 $807 #
ellipse-curve $-1 45.63352414951747 24.573083916336319 1.6933061431710223 0 0.77714596973225614 0.62932038083071107 1 0 0 1 I I #
point $-1 46.63352414951747 27.041370857954583 3.6920854440967386 #
edge $-1 $808 1 $808 0 $481 $-1 forward 7 unknown #
vertex $-1 $482 $809 #
ellipse-curve $-1 53.871860035639784 24.573083916336319 1.6933061431710223 0 0.77714596973225614 0.62932038083071107 1 0 0 1 I I #
point $-1 54.871860035639784 27.041370857954583 3.6920854440967386 #
plane-surface $-1 0 0 6.0540441237602796 0 0 1 1 0 0 forward_v I I I I #
coedge $-1 $686 $685 $678 $810 forward $486 $-1 #
coedge $-1 $678 $488 $490 $682 reversed $331 $-1 #
coedge $-1 $488 $677 $676 $810 reversed $331 $-1 #
coedge $-1 $496 $491 $488 $680 forward $497 $-1 #
edge $-1 $683 -37.136635883638718 $811 -32.997299531496587 $679 $812 forward 7 unknown #
coedge $-1 $490 $489 $686 $813 reversed $209 $-1 #
edge $-1 $814 -1.1030930024383267e-014 $683 6.4396642893544085 $677 $815 forward 7 unknown #
vertex $-1 $492 $816 #
straight-curve $-1 -12.431413858759747 -24.814710880244878 6.0540441237602796 -1 0 0 I I #
coedge $-1 $676 $493 $496 $690 reversed $486 $-1 #
coedge $-1 $493 $676 $681 $813 forward $486 $-1 #
vertex $-1 $494 $817 #
straight-curve $-1 -17.426424675737728 -28.954047232387005 40.396173513664422 0 0 1 I I #
straight-curve $-1 -17.426424675737728 -28.954047232386998 1.1209750259854303 0 -0.64278759981090561 -0.7660444514056185 I I #
edge $-1 $811 -32.29923075930126 $498 -17.426424675737728 $685 $818 forward 7 unknown #
point $-1 -17.426424675737728 -28.954047232387005 6.0540441237602796 #
point $-1 -17.426424675737728 -24.814710880244878 6.0540441237602796 #
edge $-1 $819 1 $819 0 $501 $-1 forward 7 unknown #
vertex $-1 $502 $820 #
ellipse-curve $-1 -24.862827717519494 -24.994130999614086 2.0014031691869265 0 -0.7660444514056185 0.64278759981090561 1 0 0 1 I I #
point $-1 -23.862827717519494 -26.884379056315947 3.5875095748728594 #
plane-surface $-1 0 0 6.0540441237602796 0 0 1 1 0 0 forward_v I I I I #
coedge $-1 $708 $707 $700 $821 forward $506 $-1 #
coedge $-1 $700 $508 $510 $704 reversed $346 $-1 #
coedge $-1 $508 $699 $698 $821 reversed $346 $-1 #
coedge $-1 $516 $511 $508 $702 forward $517 $-1 #
edge $-1 $705 -37.136635883638718 $822 -32.997299531496587 $701 $823 forward 7 unknown #
coedge $-1 $510 $509 $708 $824 reversed $218 $-1 #
edge $-1 $825 -1.1030930024383267e-014 $705 6.4396642893544085 $699 $826 forward 7 unknown #
vertex $-1 $512 $827 #
straight-curve $-1 16.250633100407548 -24.814710880244878 6.0540441237602796 -1 0 0 I I #
coedge $-1 $698 $513 $516 $712 reversed $506 $-1 #
coedge $-1 $513 $698 $703 $824 forward $506 $-1 #
vertex $-1 $514 $828 #
straight-curve $-1 39.937669242596861 -28.954047232387005 40.396173513664422 0 0 1 I I #
straight-curve $-1 39.937669242596861 -28.954047232386998 1.1209750259854303 0 -0.64278759981090561 -0.7660444514056185 I I #
edge $-1 $822 25.06486315903333 $518 39.937669242596861 $707 $829 forward 7 unknown #
point $-1 39.937669242596861 -28.954047232387005 6.0540441237602796 #
point $-1 39.937669242596861 -24.814710880244878 6.0540441237602796 #
edge $-1 $830 1 $830 0 $521 $-1 forward 7 unknown #
vertex $-1 $522 $831 #
ellipse-curve $-1 32.501266200815095 -24.994130999614086 2.0014031691869265 0 -0.7660444514056185 0.64278759981090561 1 0 0 1 I I #
point $-1 33.501266200815095 -26.884379056315947 3.5875095748728594 #
plane-surface $-1 61.973326822717979 0 0 -1 0 0 0 0 1 forward_v I I I I #
coedge $-1 $528 $729 $531 $723 reversed $361 $-1 #
vertex $-1 $723 $832 #
straight-curve $-1 -61.973326822717979 -28.954047232387005 0 0 0 -1 I I #
edge $-1 $721 -28.954047232387005 $725 28.954047232387005 $720 $833 forward 7 unknown #
straight-curve $-1 0 -28.954047232387005 -6.0540441237602796 -1 0 0 I I #
vertex $-1 $534 $834 #
straight-curve $-1 0 28.954047232387005 -6.0540441237602796 1 0 0 I I #
point $-1 61.973326822717979 28.954047232387005 -6.0540441237602796 #
point $-1 61.973326822717979 -28.954047232387005 -6.0540441237602796 #
coedge $-1 $720 $538 $541 $731 forward $361 $-1 #
straight-curve $-1 -61.973326822717979 0 6.0540441237602796 0 -1 0 I I #
edge $-1 $542 -6.0540441237602796 $725 6.0540441237602796 $541 $835 forward 7 unknown #
point $-1 -61.973326822717979 28.954047232387005 6.0540441237602796 #
point $-1 -61.973326822717979 -28.954047232387005 6.0540441237602796 #
straight-curve $-1 61.973326822717979 -28.954047232387005 0 0 0 -1 I I #
straight-curve $-1 61.973326822717979 28.954047232387005 0 0 0 -1 I I #
plane-surface $-1 0 -28.954047232387005 0 0 1 0 0 0 1 forward_v I I I I #
coedge $-1 $836 $750 $555 $739 forward $552 $-1 #
coedge $-1 $740 $554 $563 $748 forward $380 $-1 #
edge $-1 $743 -1.5 $741 1.5 $555 $837 forward 7 unknown #
coedge $-1 $556 $738 $836 $838 forward $380 $-1 #
vertex $-1 $557 $839 #
straight-curve $-1 -65.79254606436578 28.954047232387005 0.76500006362869044 1 0 0 I I #
vertex $-1 $558 $840 #
straight-curve $-1 -65.79254606436578 28.954047232387005 3.7650000636286904 -1 0 0 I I #
point $-1 -61.973326822717979 28.954047232387005 0.76500006362869044 #
straight-curve $-1 -61.973326822717979 0 0.76500006362869044 0 1 0 I I #
coedge $-1 $563 $562 $841 $842 forward $564 $-1 #
edge $-1 $565 -3.8192192416478008 $843 3.8192192416478008 $563 $844 forward 7 unknown #
point $-1 -61.973326822717979 -28.954047232387005 0.76500006362869044 #
coedge $-1 $737 $841 $567 $751 reversed $552 $-1 #
edge $-1 $743 -28.954047232387005 $752 28.954047232387005 $750 $845 forward 7 unknown #
vertex $-1 $751 $846 #
straight-curve $-1 -65.79254606436578 -28.954047232387005 3.7650000636286904 1 0 0 I I #
coedge $-1 $582 $581 $574 $755 forward $571 $-1 #
edge $-1 $756 56.113618009962273 $759 60.837535369289341 $754 $847 forward 7 unknown #
vertex $-1 $586 $848 #
straight-curve $-1 -27.867077411883947 44.417972756492517 6.0540441237602778 0 1 0 I I #
edge $-1 $759 9.1278427723706272 $583 28.350626506656013 $582 $849 forward 7 unknown #
vertex $-1 $758 $850 #
straight-curve $-1 -27.867077411883947 -7.4886968293653666 46.333168992607099 0 -0.62932038083071107 0.77714596973225614 I I #
point $-1 -27.867077411883947 25.12869448352216 6.0540441237602778 #
point $-1 -47.089861146169333 28.954047232387005 1.33012676443321 #
straight-curve $-1 0 28.954047232387005 6.0540441237602796 -1 0 0 I I #
vertex $-1 $589 $851 #
point $-1 -40.597637222087791 24.573083916336319 1.6933061431710223 #
vertex $-1 $593 $852 #
point $-1 -32.359301335965483 24.573083916336319 1.6933061431710223 #
coedge $-1 $608 $607 $600 $769 forward $597 $-1 #
edge $-1 $770 56.113618009962273 $773 60.837535369289341 $768 $853 forward 7 unknown #
vertex $-1 $612 $854 #
straight-curve $-1 1.2099763786511399 44.417972756492517 6.0540441237602778 0 1 0 I I #
edge $-1 $773 -5.4106841228969156 $609 13.812099611388469 $608 $855 forward 7 unknown #
vertex $-1 $772 $856 #
straight-curve $-1 1.2099763786511399 -7.4886968293653666 46.333168992607099 0 -0.62932038083071107 0.77714596973225614 I I #
point $-1 1.2099763786511399 25.12869448352216 6.0540441237602778 #
point $-1 -18.012807355634244 28.954047232387005 1.33012676443321 #
straight-curve $-1 0 28.954047232387005 6.0540441237602796 -1 0 0 I I #
vertex $-1 $615 $857 #
point $-1 -11.520583431552701 24.573083916336319 1.6933061431710223 #
vertex $-1 $619 $858 #
point $-1 -3.2822475454303941 24.573083916336319 1.6933061431710223 #
coedge $-1 $634 $633 $626 $783 forward $623 $-1 #
edge $-1 $784 56.113618009962273 $787 60.837535369289341 $782 $859 forward 7 unknown #
vertex $-1 $638 $860 #
straight-curve $-1 30.287030169186231 44.417972756492517 6.0540441237602778 0 1 0 I I #
edge $-1 $787 -19.949211018164462 $635 -0.72642728387907773 $634 $861 forward 7 unknown #
vertex $-1 $786 $862 #
straight-curve $-1 30.287030169186231 -7.4886968293653666 46.333168992607099 0 -0.62932038083071107 0.77714596973225614 I I #
point $-1 30.287030169186231 25.12869448352216 6.0540441237602778 #
point $-1 11.064246434900847 28.954047232387005 1.33012676443321 #
straight-curve $-1 0 28.954047232387005 6.0540441237602796 -1 0 0 I I #
vertex $-1 $641 $863 #
point $-1 17.556470358982381 24.573083916336319 1.6933061431710223 #
vertex $-1 $645 $864 #
point $-1 25.794806245104695 24.573083916336319 1.6933061431710223 #
coedge $-1 $660 $659 $652 $797 forward $649 $-1 #
edge $-1 $798 56.113618009962273 $801 60.837535369289341 $796 $865 forward 7 unknown #
vertex $-1 $664 $866 #
straight-curve $-1 59.36408395972132 44.417972756492517 6.0540441237602778 0 1 0 I I #
edge $-1 $801 -34.487737913432007 $661 -15.264954179146621 $660 $867 forward 7 unknown #
vertex $-1 $800 $868 #
straight-curve $-1 59.36408395972132 -7.4886968293653666 46.333168992607099 0 -0.62932038083071107 0.77714596973225614 I I #
point $-1 59.36408395972132 25.12869448352216 6.0540441237602778 #
point $-1 40.141300225435934 28.954047232387005 1.33012676443321 #
straight-curve $-1 0 28.954047232387005 6.0540441237602796 -1 0 0 I I #
vertex $-1 $667 $869 #
point $-1 46.63352414951747 24.573083916336319 1.6933061431710223 #
vertex $-1 $671 $870 #
point $-1 54.871860035639784 24.573083916336319 1.6933061431710223 #
edge $-1 $811 34.342129389904144 $814 39.275198487678999 $676 $871 forward 7 unknown #
vertex $-1 $690 $872 #
straight-curve $-1 -32.29923075930126 -61.951346763883592 6.0540441237602778 0 -1 0 I I #
edge $-1 $814 -19.867816900541513 $687 -4.995010816977981 $686 $873 forward 7 unknown #
vertex $-1 $813 $874 #
straight-curve $-1 -32.29923075930126 -28.954047232386998 1.1209750259854303 0 0.64278759981090561 0.7660444514056185 I I #
point $-1 -32.29923075930126 -24.814710880244878 6.0540441237602796 #
point $-1 -17.426424675737728 -28.954047232387005 1.1209750259854219 #
straight-curve $-1 0 -28.954047232387005 6.0540441237602796 1 0 0 I I #
vertex $-1 $693 $875 #
point $-1 -23.862827717519494 -24.994130999614086 2.0014031691869265 #
edge $-1 $822 34.342129389904144 $825 39.275198487678999 $698 $876 forward 7 unknown #
vertex $-1 $712 $877 #
straight-curve $-1 25.06486315903333 -61.951346763883592 6.0540441237602778 0 -1 0 I I #
edge $-1 $825 8.8142300586257818 $709 23.687036142189314 $708 $878 forward 7 unknown #
vertex $-1 $824 $879 #
straight-curve $-1 25.06486315903333 -28.954047232386998 1.1209750259854303 0 0.64278759981090561 0.7660444514056185 I I #
point $-1 25.06486315903333 -24.814710880244878 6.0540441237602796 #
point $-1 39.937669242596861 -28.954047232387005 1.1209750259854219 #
straight-curve $-1 0 -28.954047232387005 6.0540441237602796 1 0 0 I I #
vertex $-1 $715 $880 #
point $-1 33.501266200815095 -24.994130999614086 2.0014031691869265 #
point $-1 -61.973326822717979 -28.954047232387005 -6.0540441237602796 #
straight-curve $-1 -61.973326822717979 0 -6.0540441237602796 0 1 0 I I #
point $-1 -61.973326822717979 28.954047232387005 -6.0540441237602796 #
straight-curve $-1 -61.973326822717979 28.954047232387005 0 0 0 -1 I I #
coedge $-1 $841 $737 $740 $838 reversed $552 $-1 #
straight-curve $-1 -69.611765306013581 28.954047232387005 2.2650000636286904 0 0 -1 I I #
edge $-1 $843 -28.954047232387005 $741 28.954047232387005 $836 $881 forward 7 unknown #
point $-1 -69.611765306013581 28.954047232387005 0.76500006362869044 #
point $-1 -69.611765306013581 28.954047232387005 3.7650000636286904 #
coedge $-1 $750 $836 $747 $842 reversed $552 $-1 #
edge $-1 $752 -1.5 $843 1.5 $841 $882 forward 7 unknown #
vertex $-1 $838 $883 #
straight-curve $-1 -65.79254606436578 -28.954047232387005 0.76500006362869044 -1 0 0 I I #
straight-curve $-1 -69.611765306013581 0 3.7650000636286904 0 -1 0 I I #
point $-1 -69.611765306013581 -28.954047232387005 3.7650000636286904 #
straight-curve $-1 -27.867077411883947 28.954047232387005 62.167662133722551 0 0 -1 I I #
point $-1 -27.867077411883947 28.954047232387005 6.0540441237602796 #
straight-curve $-1 -18.73923463951332 28.954047232387005 1.33012676443321 -1 0 0 I I #
point $-1 -27.867077411883947 28.954047232387005 1.33012676443321 #
point $-1 -41.597637222087791 23.795937946604067 1.0639857623403115 #
point $-1 -33.359301335965483 23.795937946604067 1.0639857623403115 #
straight-curve $-1 1.2099763786511399 28.954047232387005 62.167662133722551 0 0 -1 I I #
point $-1 1.2099763786511399 28.954047232387005 6.0540441237602796 #
straight-curve $-1 -4.2007077442457756 28.954047232387005 1.33012676443321 -1 0 0 I I #
point $-1 1.2099763786511399 28.954047232387005 1.33012676443321 #
point $-1 -12.520583431552701 23.795937946604067 1.0639857623403115 #
point $-1 -4.2822475454303941 23.795937946604067 1.0639857623403115 #
straight-curve $-1 30.287030169186231 28.954047232387005 62.167662133722551 0 0 -1 I I #
point $-1 30.287030169186231 28.954047232387005 6.0540441237602796 #
straight-curve $-1 10.337819151021769 28.954047232387005 1.33012676443321 -1 0 0 I I #
point $-1 30.287030169186231 28.954047232387005 1.33012676443321 #
point $-1 16.556470358982381 23.795937946604067 1.0639857623403115 #
point $-1 24.794806245104695 23.795937946604067 1.0639857623403115 #
straight-curve $-1 59.36408395972132 28.954047232387005 62.167662133722551 0 0 -1 I I #
point $-1 59.36408395972132 28.954047232387005 6.0540441237602796 #
straight-curve $-1 24.876346046289314 28.954047232387005 1.33012676443321 -1 0 0 I I #
point $-1 59.36408395972132 28.954047232387005 1.33012676443321 #
point $-1 45.63352414951747 23.795937946604067 1.0639857623403115 #
point $-1 53.871860035639784 23.795937946604067 1.0639857623403115 #
straight-curve $-1 -32.29923075930126 -28.954047232387005 40.396173513664422 0 0 -1 I I #
point $-1 -32.29923075930126 -28.954047232387005 6.0540441237602796 #
straight-curve $-1 -12.431413858759747 -28.954047232387005 1.1209750259854232 1 0 0 I I #
point $-1 -32.29923075930126 -28.954047232387005 1.1209750259854219 #
point $-1 -24.862827717519494 -24.228086548208466 1.3586155693760211 #
straight-curve $-1 25.06486315903333 -28.954047232387005 40.396173513664422 0 0 -1 I I #
point $-1 25.06486315903333 -28.954047232387005 6.0540441237602796 #
straight-curve $-1 16.250633100407548 -28.954047232387005 1.1209750259854232 1 0 0 I I #
point $-1 25.06486315903333 -28.954047232387005 1.1209750259854219 #
point $-1 32.501266200815095 -24.228086548208466 1.3586155693760211 #
straight-curve $-1 -69.611765306013581 0 0.76500006362869044 0 1 0 I I #
straight-curve $-1 -69.611765306013581 -28.954047232387005 2.2650000636286904 0 0 -1 I I #
point $-1 -69.611765306013581 -28.954047232387005 0.76500006362869044 #
End-of-ACIS-data 