500 0 7 0           
7 Unknown 11 ACIS 5.0 NT 24 Thu Mar 25 15:17:56 1999 
-1 9.9999999999999995e-007 1e-010 
body $-1 $7 $-1 $8 #
body $-1 $9 $-1 $10 #
body $-1 $11 $-1 $12 #
body $-1 $13 $-1 $14 #
body $-1 $15 $-1 $16 #
body $-1 $17 $-1 $18 #
body $-1 $19 $-1 $20 #
lump $-1 $-1 $21 $0 #
transform $-1 1 0 0 0 1 0 0 0 1 56.038087099826043 26.819339027053804 9.9410884737964249 1 rotate no_reflect no_shear #
lump $-1 $-1 $22 $1 #
transform $-1 1 0 0 0 1 0 0 0 1 56.038087099826043 26.819339027053804 9.9410884737964249 1 rotate no_reflect no_shear #
lump $-1 $-1 $23 $2 #
transform $-1 1 0 0 0 1 0 0 0 1 56.038087099826043 26.819339027053804 9.9410884737964249 1 rotate no_reflect no_shear #
lump $-1 $-1 $24 $3 #
transform $-1 1 0 0 0 1 0 0 0 1 56.038087099826043 26.819339027053804 9.9410884737964249 1 rotate no_reflect no_shear #
lump $-1 $-1 $25 $4 #
transform $-1 1 0 0 0 1 0 0 0 1 56.038087099826043 26.819339027053804 9.9410884737964249 1 rotate no_reflect no_shear #
lump $-1 $-1 $26 $5 #
transform $-1 1 0 0 0 1 0 0 0 1 56.038087099826043 26.819339027053804 9.9410884737964249 1 rotate no_reflect no_shear #
lump $-1 $-1 $27 $6 #
transform $-1 1 0 0 0 1 0 0 0 1 56.038087099826043 26.819339027053804 9.9410884737964249 1 rotate no_reflect no_shear #
shell $-1 $-1 $-1 $28 $-1 $7 #
shell $-1 $-1 $-1 $29 $-1 $9 #
shell $-1 $-1 $-1 $30 $-1 $11 #
shell $-1 $-1 $-1 $31 $-1 $13 #
shell $-1 $-1 $-1 $32 $-1 $15 #
shell $-1 $-1 $-1 $33 $-1 $17 #
shell $-1 $-1 $-1 $34 $-1 $19 #
face $-1 $35 $36 $21 $-1 $37 forward single #
face $-1 $38 $39 $22 $-1 $40 forward single #
face $-1 $41 $42 $23 $-1 $43 forward single #
face $-1 $44 $45 $24 $-1 $46 reversed single #
face $-1 $47 $48 $25 $-1 $49 forward single #
face $-1 $50 $51 $26 $-1 $52 reversed single #
face $-1 $53 $54 $27 $-1 $55 forward single #
face $-1 $56 $57 $21 $-1 $58 reversed single #
loop $-1 $-1 $59 $28 #
plane-surface $-1 0 0 9.9410884737964249 0 0 1 1 0 0 forward_v I I I I #
face $-1 $60 $61 $22 $-1 $62 reversed single #
loop $-1 $-1 $63 $29 #
plane-surface $-1 -51.946073321532864 0 -6.8878603423656424 0 0 1 1 0 0 forward_v I I I I #
face $-1 $64 $65 $23 $-1 $66 reversed single #
loop $-1 $-1 $67 $30 #
plane-surface $-1 51.946073321532864 0 -6.8878603423656424 0 0 1 1 0 0 forward_v I I I I #
face $-1 $68 $69 $24 $-1 $70 reversed single #
loop $-1 $-1 $71 $31 #
plane-surface $-1 -47.854059543239693 -84.542836797985686 100.39829433765266 1 0 0 0 0.51503808176128008 -0.85716729658548041 forward_v I I I I #
face $-1 $72 $73 $25 $-1 $74 forward single #
loop $-1 $75 $76 $32 #
cone-surface $-1 -39.405007427528624 -20.82906510174756 4.9366912587258245 0 0.51503808176128008 -0.85716729658548041 1.5 0 0 1 I I 0 1 1.5 forward I I I I #
face $-1 $77 $78 $26 $-1 $79 reversed single #
loop $-1 $-1 $80 $33 #
plane-surface $-1 -30.955955311817554 38.565516137927332 128.02425619085113 -1 0 0 0 0.51503808176128008 0.85716729658548041 forward_v I I I I #
face $-1 $81 $82 $27 $-1 $83 forward single #
loop $-1 $84 $85 $34 #
cone-surface $-1 -39.405007427528624 20.82906510174756 4.9366912587258263 0 -0.51503808176128008 -0.85716729658548041 1.5 0 0 1 I I 0 1 1.5 forward I I I I #
face $-1 $86 $87 $21 $-1 $88 reversed single #
loop $-1 $-1 $89 $35 #
plane-surface $-1 0 0 -9.9410884737964249 0 0 1 1 0 0 forward_v I I I I #
coedge $-1 $90 $91 $92 $93 forward $36 $-1 #
face $-1 $94 $95 $22 $-1 $96 reversed single #
loop $-1 $-1 $97 $38 #
plane-surface $-1 -47.854059543239686 0 -8.4144744080810341 -1 0 0 0 0 1 forward_v I I I I #
coedge $-1 $98 $99 $100 $101 forward $39 $-1 #
face $-1 $102 $103 $23 $-1 $104 reversed single #
loop $-1 $-1 $105 $41 #
plane-surface $-1 47.854059543239686 0 -8.4144744080810341 1 0 0 0 0 -1 forward_v I I I I #
coedge $-1 $106 $107 $108 $109 reversed $42 $-1 #
face $-1 $110 $111 $24 $-1 $112 reversed single #
loop $-1 $-1 $113 $44 #
plane-surface $-1 -39.405007427528624 -26.819339027053807 4.3302630872935168 0 -0.51503808176128008 0.85716729658548041 1 0 0 forward_v I I I I #
coedge $-1 $114 $115 $116 $117 reversed $45 $-1 #
face $-1 $-1 $118 $25 $-1 $119 forward single #
loop $-1 $120 $121 $47 #
cone-surface $-1 -39.405007427528624 -19.121503315492536 2.0948312644675688 0 0.51503808176128008 -0.85716729658548041 0.75 0 0 1 I I -0.70710678118654757 0.70710678118654757 0.75 forward I I I I #
loop $-1 $-1 $122 $32 #
coedge $-1 $76 $76 $123 $124 reversed $48 $-1 #
face $-1 $125 $126 $26 $-1 $127 reversed single #
loop $-1 $-1 $128 $50 #
plane-surface $-1 -39.405007427528624 -19.157981633004546 31.956224940491992 0 0.51503808176128008 0.85716729658548041 1 0 0 forward_v I I I I #
coedge $-1 $129 $130 $131 $132 reversed $51 $-1 #
face $-1 $-1 $133 $27 $-1 $134 forward single #
loop $-1 $135 $136 $53 #
cone-surface $-1 -39.405007427528624 19.121503315492536 2.0948312644675706 0 -0.51503808176128008 -0.85716729658548041 0.75 0 0 1 I I -0.70710678118654757 0.70710678118654757 0.75 forward I I I I #
loop $-1 $-1 $137 $34 #
coedge $-1 $85 $85 $138 $139 reversed $54 $-1 #
face $-1 $140 $141 $21 $-1 $142 reversed single #
loop $-1 $-1 $143 $56 #
plane-surface $-1 0 -26.819339027053804 0 0 1 0 0 0 1 forward_v I I I I #
coedge $-1 $144 $145 $146 $147 forward $57 $-1 #
coedge $-1 $148 $59 $149 $150 forward $36 $-1 #
coedge $-1 $59 $148 $151 $152 forward $36 $-1 #
coedge $-1 $153 $154 $59 $93 reversed $155 $-1 #
edge $-1 $156 -26.819339027053804 $157 26.819339027053804 $92 $158 forward 7 unknown #
face $-1 $159 $160 $22 $-1 $161 reversed single #
loop $-1 $-1 $162 $60 #
plane-surface $-1 0 0 -9.9410884737964249 0 0 1 1 0 0 forward_v I I I I #
coedge $-1 $163 $100 $164 $165 reversed $61 $-1 #
coedge $-1 $166 $63 $167 $168 reversed $39 $-1 #
coedge $-1 $63 $166 $169 $170 reversed $39 $-1 #
coedge $-1 $97 $171 $63 $101 reversed $61 $-1 #
edge $-1 $172 -26.819339027053804 $173 26.819339027053804 $100 $174 forward 7 unknown #
face $-1 $175 $176 $23 $-1 $177 reversed single #
loop $-1 $-1 $178 $64 #
plane-surface $-1 0 -26.819339027053804 0 0 1 0 0 0 1 forward_v I I I I #
coedge $-1 $179 $180 $181 $182 reversed $65 $-1 #
coedge $-1 $183 $67 $184 $185 reversed $42 $-1 #
coedge $-1 $67 $183 $178 $186 reversed $42 $-1 #
coedge $-1 $187 $188 $67 $109 forward $189 $-1 #
edge $-1 $190 -26.819339027053804 $191 26.819339027053804 $108 $192 forward 7 unknown #
face $-1 $193 $194 $24 $-1 $195 forward single #
loop $-1 $-1 $196 $68 #
plane-surface $-1 -30.955955311817554 -84.542836797985686 100.39829433765266 -1 0 0 0 -0.51503808176128008 0.85716729658548041 forward_v I I I I #
coedge $-1 $197 $198 $199 $200 reversed $69 $-1 #
coedge $-1 $115 $71 $201 $202 reversed $45 $-1 #
coedge $-1 $71 $114 $197 $203 reversed $45 $-1 #
coedge $-1 $199 $204 $71 $117 forward $205 $-1 #
edge $-1 $206 40.258058695029902 $207 45.868884081532812 $116 $208 forward 7 unknown #
loop $-1 $-1 $123 $72 #
plane-surface $-1 -39.405007427528624 -26.819339027053807 4.3302630872935168 0 -0.51503808176128008 0.85716729658548041 1 0 0 forward_v I I I I #
loop $-1 $-1 $209 $47 #
coedge $-1 $121 $121 $122 $210 reversed $73 $-1 #
coedge $-1 $122 $122 $121 $210 forward $75 $-1 #
coedge $-1 $123 $123 $76 $124 forward $118 $-1 #
edge $-1 $211 -1.5248190318137257e-015 $211 6.2831853071795987 $123 $212 forward 7 unknown #
face $-1 $213 $214 $26 $-1 $215 reversed single #
loop $-1 $-1 $216 $77 #
plane-surface $-1 -47.854059543239693 38.565516137927332 128.02425619085113 1 0 0 0 -0.51503808176128008 -0.85716729658548041 forward_v I I I I #
coedge $-1 $217 $218 $219 $220 reversed $78 $-1 #
coedge $-1 $130 $80 $221 $222 reversed $51 $-1 #
coedge $-1 $80 $129 $217 $223 reversed $51 $-1 #
coedge $-1 $219 $224 $80 $132 forward $214 $-1 #
edge $-1 $225 54.07103962162914 $226 59.681865008132029 $131 $227 forward 7 unknown #
loop $-1 $-1 $138 $81 #
plane-surface $-1 -39.405007427528624 -19.157981633004546 31.956224940491992 0 0.51503808176128008 0.85716729658548041 1 0 0 forward_v I I I I #
loop $-1 $-1 $228 $53 #
coedge $-1 $136 $136 $137 $229 reversed $82 $-1 #
coedge $-1 $137 $137 $136 $229 forward $84 $-1 #
coedge $-1 $138 $138 $85 $139 forward $133 $-1 #
edge $-1 $230 9.2362758714377213e-016 $230 6.2831853071796013 $138 $231 forward 7 unknown #
face $-1 $232 $233 $21 $-1 $234 reversed single #
loop $-1 $-1 $235 $86 #
plane-surface $-1 -56.038087099826043 0 0 1 0 0 0 0 -1 forward_v I I I I #
coedge $-1 $236 $151 $237 $238 forward $87 $-1 #
coedge $-1 $239 $89 $236 $240 forward $57 $-1 #
coedge $-1 $89 $239 $241 $242 forward $57 $-1 #
coedge $-1 $154 $153 $89 $147 reversed $155 $-1 #
edge $-1 $243 -26.819339027053804 $244 26.819339027053804 $146 $245 forward 7 unknown #
coedge $-1 $91 $90 $246 $247 forward $36 $-1 #
coedge $-1 $248 $249 $90 $150 reversed $233 $-1 #
edge $-1 $157 -56.038087099826043 $250 56.038087099826043 $149 $251 forward 7 unknown #
coedge $-1 $143 $252 $91 $152 reversed $87 $-1 #
edge $-1 $253 -56.038087099826043 $156 56.038087099826043 $151 $254 forward 7 unknown #
coedge $-1 $146 $92 $252 $255 forward $155 $-1 #
coedge $-1 $92 $146 $248 $256 reversed $155 $-1 #
loop $-1 $-1 $153 $232 #
vertex $-1 $93 $257 #
vertex $-1 $93 $258 #
straight-curve $-1 56.038087099826043 0 9.9410884737964249 0 1 0 I I #
face $-1 $259 $260 $22 $-1 $261 reversed single #
loop $-1 $-1 $164 $94 #
plane-surface $-1 0 -26.819339027053804 0 0 1 0 0 0 1 forward_v I I I I #
coedge $-1 $262 $263 $163 $264 forward $95 $-1 #
coedge $-1 $171 $97 $162 $264 reversed $61 $-1 #
coedge $-1 $169 $265 $97 $165 forward $160 $-1 #
edge $-1 $266 -5.7338512697559079 $172 -2.6806231383251253 $164 $267 forward 7 unknown #
coedge $-1 $99 $98 $268 $269 reversed $39 $-1 #
coedge $-1 $270 $271 $98 $168 forward $272 $-1 #
edge $-1 $273 -30.065050439059611 $173 -21.881022882473253 $167 $274 forward 7 unknown #
coedge $-1 $275 $164 $99 $170 forward $160 $-1 #
edge $-1 $172 21.881022882473253 $276 30.065050439059611 $169 $277 forward 7 unknown #
coedge $-1 $100 $163 $270 $278 reversed $61 $-1 #
vertex $-1 $170 $279 #
vertex $-1 $168 $280 #
straight-curve $-1 -47.854059543239686 0 -6.8878603423656424 0 1 0 I I #
face $-1 $281 $282 $23 $-1 $283 reversed single #
loop $-1 $-1 $284 $102 #
plane-surface $-1 0 0 -9.9410884737964249 0 0 1 1 0 0 forward_v I I I I #
coedge $-1 $285 $286 $107 $186 forward $103 $-1 #
coedge $-1 $287 $105 $284 $288 reversed $65 $-1 #
coedge $-1 $105 $287 $183 $289 reversed $65 $-1 #
coedge $-1 $184 $290 $105 $182 forward $282 $-1 #
edge $-1 $291 -5.7338512697559079 $292 -2.6806231383251253 $181 $293 forward 7 unknown #
coedge $-1 $107 $106 $180 $289 forward $42 $-1 #
coedge $-1 $294 $181 $106 $185 forward $282 $-1 #
edge $-1 $292 21.881022882473253 $190 30.065050439059611 $184 $295 forward 7 unknown #
edge $-1 $191 -30.065050439059611 $296 -21.881022882473253 $178 $297 forward 7 unknown #
coedge $-1 $298 $108 $286 $299 forward $189 $-1 #
coedge $-1 $108 $298 $294 $300 reversed $189 $-1 #
loop $-1 $-1 $108 $281 #
vertex $-1 $300 $301 #
vertex $-1 $299 $302 #
straight-curve $-1 56.038087099826043 0 -6.8878603423656424 0 -1 0 I I #
face $-1 $-1 $205 $24 $-1 $303 reversed single #
loop $-1 $-1 $304 $110 #
plane-surface $-1 0 0 9.9410884737964249 0 0 1 1 0 0 forward_v I I I I #
coedge $-1 $305 $306 $307 $308 reversed $111 $-1 #
coedge $-1 $309 $113 $115 $203 forward $69 $-1 #
coedge $-1 $113 $309 $305 $310 forward $69 $-1 #
coedge $-1 $307 $116 $113 $200 forward $205 $-1 #
edge $-1 $207 -28.151555829475381 $311 -11.253451598053243 $199 $312 forward 7 unknown #
coedge $-1 $313 $314 $114 $202 forward $194 $-1 #
edge $-1 $315 -24.790060772683383 $206 -15.452079371939039 $201 $316 forward 7 unknown #
edge $-1 $207 3.9601613986879174e-015 $315 10.894001017003481 $115 $317 forward 7 unknown #
coedge $-1 $116 $307 $313 $318 reversed $205 $-1 #
loop $-1 $-1 $307 $193 #
vertex $-1 $318 $319 #
vertex $-1 $117 $320 #
straight-curve $-1 -47.854059543239693 -26.819339027053804 50.199147168826329 0 0 -1 I I #
coedge $-1 $209 $209 $-1 $321 reversed $120 $-1 #
edge $-1 $322 0 $322 6.2831853071796004 $121 $323 forward 7 unknown #
vertex $-1 $124 $324 #
ellipse-curve $-1 -39.405007427528624 -22.150348326681627 7.1356757805449735 0 -0.51503808176128008 0.85716729658548041 1.5 0 0 1 I I #
face $-1 $-1 $325 $26 $-1 $326 forward single #
loop $-1 $-1 $131 $125 #
plane-surface $-1 0 26.819339027053804 0 0 -1 0 0 0 -1 forward_v I I I I #
coedge $-1 $327 $328 $329 $330 reversed $126 $-1 #
coedge $-1 $331 $128 $130 $223 forward $78 $-1 #
coedge $-1 $128 $331 $327 $332 forward $78 $-1 #
coedge $-1 $329 $131 $128 $220 forward $214 $-1 #
edge $-1 $226 11.253451598053243 $333 28.151555829475381 $219 $334 forward 7 unknown #
coedge $-1 $335 $336 $129 $222 forward $325 $-1 #
edge $-1 $337 -1.8014004426541703 $225 7.5365809580901377 $221 $338 forward 7 unknown #
edge $-1 $226 -53.638678054107601 $337 -42.744677037104168 $130 $339 forward 7 unknown #
coedge $-1 $131 $329 $335 $340 reversed $214 $-1 #
vertex $-1 $340 $341 #
vertex $-1 $132 $342 #
straight-curve $-1 -30.955955311817554 26.819339027053804 64.012128095425567 0 0 -1 I I #
coedge $-1 $228 $228 $-1 $343 reversed $135 $-1 #
edge $-1 $344 0 $344 6.2831853071796004 $136 $345 forward 7 unknown #
vertex $-1 $139 $346 #
ellipse-curve $-1 -39.405007427528624 22.150348326681637 7.1356757805449913 0 0.51503808176128008 0.85716729658548041 1.5 0 0 1 I I #
face $-1 $-1 $155 $21 $-1 $347 reversed single #
loop $-1 $-1 $248 $140 #
plane-surface $-1 0 26.819339027053804 0 0 -1 0 0 0 -1 forward_v I I I I #
coedge $-1 $348 $246 $249 $349 forward $141 $-1 #
coedge $-1 $252 $143 $144 $240 reversed $87 $-1 #
coedge $-1 $246 $348 $143 $238 reversed $141 $-1 #
edge $-1 $253 -9.9410884737964249 $350 9.9410884737964249 $237 $351 forward 7 unknown #
coedge $-1 $145 $144 $348 $352 forward $57 $-1 #
edge $-1 $244 -56.038087099826043 $350 56.038087099826043 $236 $353 forward 7 unknown #
coedge $-1 $249 $248 $145 $242 reversed $233 $-1 #
edge $-1 $354 -56.038087099826043 $243 56.038087099826043 $241 $355 forward 7 unknown #
vertex $-1 $147 $356 #
vertex $-1 $255 $357 #
straight-curve $-1 56.038087099826043 0 -9.9410884737964249 0 -1 0 I I #
coedge $-1 $235 $237 $148 $247 reversed $141 $-1 #
edge $-1 $250 -26.819339027053804 $253 26.819339027053804 $246 $358 forward 7 unknown #
coedge $-1 $241 $149 $154 $256 forward $233 $-1 #
coedge $-1 $149 $241 $235 $349 reversed $233 $-1 #
vertex $-1 $150 $359 #
straight-curve $-1 0 26.819339027053804 9.9410884737964249 -1 0 0 I I #
coedge $-1 $151 $236 $153 $255 reversed $87 $-1 #
vertex $-1 $247 $360 #
straight-curve $-1 0 -26.819339027053804 9.9410884737964249 1 0 0 I I #
edge $-1 $156 -9.9410884737964249 $244 9.9410884737964249 $153 $361 forward 7 unknown #
edge $-1 $157 -9.9410884737964249 $243 9.9410884737964249 $154 $362 forward 7 unknown #
point $-1 56.038087099826043 -26.819339027053804 9.9410884737964249 #
point $-1 56.038087099826043 26.819339027053804 9.9410884737964249 #
face $-1 $-1 $272 $22 $-1 $363 reversed single #
loop $-1 $-1 $268 $159 #
plane-surface $-1 -56.038087099826043 0 0 1 0 0 0 0 -1 forward_v I I I I #
coedge $-1 $364 $162 $265 $365 forward $95 $-1 #
coedge $-1 $162 $364 $366 $367 forward $95 $-1 #
edge $-1 $368 -26.819339027053804 $266 26.819339027053804 $162 $369 forward 7 unknown #
coedge $-1 $164 $275 $262 $365 reversed $160 $-1 #
vertex $-1 $365 $370 #
straight-curve $-1 -47.854059543239686 -26.819339027053804 -4.207237204040517 0 0 1 I I #
coedge $-1 $371 $372 $166 $269 forward $260 $-1 #
edge $-1 $276 -26.819339027053804 $273 26.819339027053804 $268 $373 forward 7 unknown #
coedge $-1 $366 $167 $171 $278 forward $272 $-1 #
coedge $-1 $167 $366 $371 $374 reversed $272 $-1 #
loop $-1 $-1 $270 $259 #
vertex $-1 $374 $375 #
straight-curve $-1 -25.973036660766432 26.819339027053804 -6.8878603423656424 1 0 0 I I #
coedge $-1 $265 $169 $372 $376 forward $160 $-1 #
vertex $-1 $376 $377 #
straight-curve $-1 -25.973036660766432 -26.819339027053804 -6.8878603423656424 -1 0 0 I I #
edge $-1 $173 2.6806231383251253 $368 5.7338512697559079 $270 $378 forward 7 unknown #
point $-1 -47.854059543239686 -26.819339027053804 -6.8878603423656424 #
point $-1 -47.854059543239686 26.819339027053804 -6.8878603423656424 #
face $-1 $-1 $189 $23 $-1 $379 reversed single #
loop $-1 $-1 $184 $175 #
plane-surface $-1 0 26.819339027053804 0 0 -1 0 0 0 -1 forward_v I I I I #
coedge $-1 $380 $381 $179 $288 forward $176 $-1 #
coedge $-1 $382 $178 $287 $383 forward $103 $-1 #
coedge $-1 $178 $382 $187 $299 reversed $103 $-1 #
coedge $-1 $180 $179 $285 $383 reversed $65 $-1 #
edge $-1 $384 -26.819339027053804 $291 26.819339027053804 $284 $385 forward 7 unknown #
edge $-1 $292 -26.819339027053804 $296 26.819339027053804 $180 $386 forward 7 unknown #
coedge $-1 $181 $294 $380 $387 reversed $282 $-1 #
vertex $-1 $387 $388 #
vertex $-1 $185 $389 #
straight-curve $-1 47.854059543239686 26.819339027053804 -4.207237204040517 0 0 1 I I #
coedge $-1 $290 $184 $188 $300 forward $282 $-1 #
straight-curve $-1 25.973036660766432 26.819339027053804 -6.8878603423656424 1 0 0 I I #
vertex $-1 $186 $390 #
straight-curve $-1 25.973036660766432 -26.819339027053804 -6.8878603423656424 -1 0 0 I I #
coedge $-1 $188 $187 $391 $392 reversed $189 $-1 #
edge $-1 $191 6.8878603423656424 $393 9.9410884737964249 $187 $394 forward 7 unknown #
edge $-1 $190 6.8878603423656424 $395 9.9410884737964249 $188 $396 forward 7 unknown #
point $-1 56.038087099826043 26.819339027053804 -6.8878603423656424 #
point $-1 56.038087099826043 -26.819339027053804 -6.8878603423656424 #
plane-surface $-1 0 -26.819339027053804 0 0 1 0 0 0 1 forward_v I I I I #
coedge $-1 $314 $313 $306 $397 forward $194 $-1 #
coedge $-1 $306 $196 $198 $310 reversed $111 $-1 #
coedge $-1 $196 $305 $304 $397 reversed $111 $-1 #
coedge $-1 $204 $199 $196 $308 forward $205 $-1 #
edge $-1 $311 -45.868884081532812 $398 -40.258058695029902 $307 $399 forward 7 unknown #
coedge $-1 $198 $197 $314 $400 reversed $69 $-1 #
edge $-1 $401 -10.894001017003481 $311 -3.9601613986879174e-015 $305 $402 forward 7 unknown #
vertex $-1 $200 $403 #
straight-curve $-1 -19.702503713764312 -26.819339027053804 4.3302630872935195 1 0 0 I I #
coedge $-1 $304 $201 $204 $318 forward $194 $-1 #
coedge $-1 $201 $304 $309 $400 forward $194 $-1 #
vertex $-1 $202 $404 #
straight-curve $-1 -47.854059543239693 -42.271418398992843 9.9410884737964267 0 -1 0 I I #
straight-curve $-1 -47.854059543239693 -26.819339027053807 4.3302630872935168 0 0.85716729658548041 0.51503808176128008 I I #
edge $-1 $206 -47.854059543239693 $398 -30.955955311817554 $204 $405 forward 7 unknown #
point $-1 -47.854059543239693 -26.819339027053804 9.9410884737964249 #
point $-1 -47.854059543239693 -26.819339027053804 4.3302630872935186 #
edge $-1 $406 1 $406 0 $209 $-1 forward 7 unknown #
vertex $-1 $210 $407 #
ellipse-curve $-1 -39.405007427528624 -19.507781876813496 2.737706736906679 0 -0.51503808176128008 0.85716729658548041 1.5 0 0 1 I I #
point $-1 -37.905007427528624 -22.150348326681627 7.1356757805449691 #
loop $-1 $-1 $221 $213 #
plane-surface $-1 0 0 9.9410884737964249 0 0 1 1 0 0 forward_v I I I I #
coedge $-1 $328 $216 $218 $332 reversed $126 $-1 #
coedge $-1 $216 $327 $408 $409 reversed $126 $-1 #
coedge $-1 $224 $219 $216 $330 forward $214 $-1 #
edge $-1 $333 -59.681865008132029 $410 -54.07103962162914 $329 $411 forward 7 unknown #
coedge $-1 $218 $217 $336 $412 reversed $78 $-1 #
edge $-1 $413 42.744677037104168 $333 53.638678054107601 $327 $414 forward 7 unknown #
vertex $-1 $220 $415 #
straight-curve $-1 -19.702503713764312 26.8193390270538 4.3302630872935417 -1 0 0 I I #
coedge $-1 $408 $221 $224 $340 forward $325 $-1 #
coedge $-1 $221 $408 $331 $412 forward $325 $-1 #
vertex $-1 $222 $416 #
straight-curve $-1 -30.955955311817554 19.282758068963666 9.9410884737964267 0 1 0 I I #
straight-curve $-1 -30.955955311817554 -19.157981633004546 31.956224940491992 0 -0.85716729658548041 0.51503808176128008 I I #
edge $-1 $225 30.955955311817554 $410 47.854059543239693 $224 $417 forward 7 unknown #
point $-1 -30.955955311817554 26.819339027053804 9.9410884737964249 #
point $-1 -30.955955311817554 26.819339027053807 4.3302630872935381 #
edge $-1 $418 1 $418 0 $228 $-1 forward 7 unknown #
vertex $-1 $229 $419 #
ellipse-curve $-1 -39.405007427528624 19.507781876813496 2.7377067369066808 0 0.51503808176128008 0.85716729658548041 1.5 0 0 1 I I #
point $-1 -37.905007427528624 22.150348326681627 7.1356757805449709 #
plane-surface $-1 56.038087099826043 0 0 -1 0 0 0 0 1 forward_v I I I I #
coedge $-1 $237 $235 $239 $352 reversed $141 $-1 #
edge $-1 $250 -9.9410884737964249 $354 9.9410884737964249 $249 $420 forward 7 unknown #
vertex $-1 $352 $421 #
straight-curve $-1 -56.038087099826043 -26.819339027053804 0 0 0 -1 I I #
edge $-1 $350 -26.819339027053804 $354 26.819339027053804 $348 $422 forward 7 unknown #
straight-curve $-1 0 -26.819339027053804 -9.9410884737964249 -1 0 0 I I #
vertex $-1 $242 $423 #
straight-curve $-1 0 26.819339027053804 -9.9410884737964249 1 0 0 I I #
point $-1 56.038087099826043 26.819339027053804 -9.9410884737964249 #
point $-1 56.038087099826043 -26.819339027053804 -9.9410884737964249 #
straight-curve $-1 -56.038087099826043 0 9.9410884737964249 0 -1 0 I I #
point $-1 -56.038087099826043 26.819339027053804 9.9410884737964249 #
point $-1 -56.038087099826043 -26.819339027053804 9.9410884737964249 #
straight-curve $-1 56.038087099826043 -26.819339027053804 0 0 0 -1 I I #
straight-curve $-1 56.038087099826043 26.819339027053804 0 0 0 -1 I I #
plane-surface $-1 0 26.819339027053804 0 0 -1 0 0 0 -1 forward_v I I I I #
coedge $-1 $263 $262 $424 $425 forward $95 $-1 #
edge $-1 $266 47.854059543239686 $426 56.038087099826043 $265 $427 forward 7 unknown #
coedge $-1 $271 $270 $263 $367 reversed $272 $-1 #
edge $-1 $428 -56.038087099826043 $368 -47.854059543239686 $366 $429 forward 7 unknown #
vertex $-1 $278 $430 #
straight-curve $-1 -47.854059543239686 0 -9.9410884737964249 0 -1 0 I I #
point $-1 -47.854059543239686 -26.819339027053804 -9.9410884737964249 #
coedge $-1 $424 $268 $271 $374 forward $260 $-1 #
coedge $-1 $268 $424 $275 $376 reversed $260 $-1 #
straight-curve $-1 -56.038087099826043 0 -6.8878603423656424 0 1 0 I I #
edge $-1 $273 6.8878603423656424 $428 9.9410884737964249 $271 $431 forward 7 unknown #
point $-1 -56.038087099826043 26.819339027053804 -6.8878603423656424 #
edge $-1 $276 6.8878603423656424 $426 9.9410884737964249 $372 $432 forward 7 unknown #
point $-1 -56.038087099826043 -26.819339027053804 -6.8878603423656424 #
straight-curve $-1 -47.854059543239686 26.819339027053804 -4.207237204040517 0 0 -1 I I #
plane-surface $-1 56.038087099826043 0 0 -1 0 0 0 0 1 forward_v I I I I #
coedge $-1 $391 $284 $290 $387 forward $176 $-1 #
coedge $-1 $284 $391 $382 $433 forward $176 $-1 #
coedge $-1 $286 $285 $381 $433 reversed $103 $-1 #
edge $-1 $296 2.6806231383251253 $384 5.7338512697559079 $285 $434 forward 7 unknown #
vertex $-1 $288 $435 #
straight-curve $-1 47.854059543239686 0 -9.9410884737964249 0 1 0 I I #
straight-curve $-1 47.854059543239686 0 -6.8878603423656424 0 -1 0 I I #
edge $-1 $291 47.854059543239686 $395 56.038087099826043 $290 $436 forward 7 unknown #
point $-1 47.854059543239686 26.819339027053804 -9.9410884737964249 #
point $-1 47.854059543239686 26.819339027053804 -6.8878603423656424 #
point $-1 47.854059543239686 -26.819339027053804 -6.8878603423656424 #
coedge $-1 $381 $380 $298 $392 forward $176 $-1 #
edge $-1 $395 -26.819339027053804 $393 26.819339027053804 $298 $437 forward 7 unknown #
vertex $-1 $299 $438 #
straight-curve $-1 56.038087099826043 -26.819339027053804 0 0 0 -1 I I #
vertex $-1 $392 $439 #
straight-curve $-1 56.038087099826043 26.819339027053804 0 0 0 -1 I I #
edge $-1 $398 15.452079371939039 $401 24.790060772683383 $304 $440 forward 7 unknown #
vertex $-1 $397 $441 #
straight-curve $-1 -30.955955311817554 -26.819339027053804 50.199147168826329 0 0 1 I I #
edge $-1 $401 11.253451598053243 $315 28.151555829475381 $314 $442 forward 7 unknown #
vertex $-1 $400 $443 #
straight-curve $-1 -30.955955311817554 -26.819339027053807 4.3302630872935168 0 -0.85716729658548041 -0.51503808176128008 I I #
point $-1 -30.955955311817554 -26.819339027053804 4.3302630872935186 #
point $-1 -47.854059543239693 -17.48135762630946 9.9410884737964249 #
straight-curve $-1 0 -26.819339027053804 9.9410884737964249 1 0 0 I I #
vertex $-1 $321 $444 #
point $-1 -37.905007427528624 -19.507781876813496 2.737706736906679 #
coedge $-1 $336 $335 $328 $409 forward $325 $-1 #
edge $-1 $410 -7.5365809580901377 $413 1.8014004426541703 $408 $445 forward 7 unknown #
vertex $-1 $409 $446 #
straight-curve $-1 -47.854059543239693 26.819339027053804 64.012128095425567 0 0 1 I I #
edge $-1 $413 -28.151555829475381 $337 -11.253451598053243 $336 $447 forward 7 unknown #
vertex $-1 $412 $448 #
straight-curve $-1 -47.854059543239693 -19.157981633004546 31.956224940491992 0 0.85716729658548041 -0.51503808176128008 I I #
point $-1 -47.854059543239693 26.819339027053807 4.3302630872935381 #
point $-1 -30.955955311817554 17.481357626309496 9.9410884737964267 #
straight-curve $-1 0 26.819339027053804 9.9410884737964249 -1 0 0 I I #
vertex $-1 $343 $449 #
point $-1 -37.905007427528624 19.507781876813496 2.7377067369066808 #
straight-curve $-1 -56.038087099826043 26.819339027053804 0 0 0 -1 I I #
point $-1 -56.038087099826043 -26.819339027053804 -9.9410884737964249 #
straight-curve $-1 -56.038087099826043 0 -9.9410884737964249 0 1 0 I I #
point $-1 -56.038087099826043 26.819339027053804 -9.9410884737964249 #
coedge $-1 $372 $371 $364 $425 reversed $260 $-1 #
edge $-1 $426 -26.819339027053804 $428 26.819339027053804 $424 $450 forward 7 unknown #
vertex $-1 $425 $451 #
straight-curve $-1 0 -26.819339027053804 -9.9410884737964249 -1 0 0 I I #
vertex $-1 $367 $452 #
straight-curve $-1 0 26.819339027053804 -9.9410884737964249 1 0 0 I I #
point $-1 -47.854059543239686 26.819339027053804 -9.9410884737964249 #
straight-curve $-1 -56.038087099826043 26.819339027053804 0 0 0 -1 I I #
straight-curve $-1 -56.038087099826043 -26.819339027053804 0 0 0 -1 I I #
edge $-1 $393 -56.038087099826043 $384 -47.854059543239686 $382 $453 forward 7 unknown #
straight-curve $-1 47.854059543239686 -26.819339027053804 -4.207237204040517 0 0 -1 I I #
point $-1 47.854059543239686 -26.819339027053804 -9.9410884737964249 #
straight-curve $-1 0 26.819339027053804 -9.9410884737964249 1 0 0 I I #
straight-curve $-1 56.038087099826043 0 -9.9410884737964249 0 -1 0 I I #
point $-1 56.038087099826043 -26.819339027053804 -9.9410884737964249 #
point $-1 56.038087099826043 26.819339027053804 -9.9410884737964249 #
straight-curve $-1 -30.955955311817554 -42.271418398992843 9.9410884737964267 0 1 0 I I #
point $-1 -30.955955311817554 -26.819339027053804 9.9410884737964249 #
straight-curve $-1 -19.702503713764312 -17.48135762630946 9.9410884737964249 -1 0 0 I I #
point $-1 -30.955955311817554 -17.48135762630946 9.9410884737964249 #
point $-1 -39.405007427528624 -18.735224754171576 1.4519557920284585 #
straight-curve $-1 -47.854059543239693 19.282758068963666 9.9410884737964267 0 -1 0 I I #
point $-1 -47.854059543239693 26.819339027053804 9.9410884737964249 #
straight-curve $-1 -19.702503713764312 17.481357626309499 9.9410884737964231 1 0 0 I I #
point $-1 -47.854059543239693 17.481357626309496 9.9410884737964267 #
point $-1 -39.405007427528624 18.735224754171576 1.4519557920284603 #
straight-curve $-1 -56.038087099826043 0 -9.9410884737964249 0 1 0 I I #
point $-1 -56.038087099826043 -26.819339027053804 -9.9410884737964249 #
point $-1 -56.038087099826043 26.819339027053804 -9.9410884737964249 #
straight-curve $-1 0 -26.819339027053804 -9.9410884737964249 -1 0 0 I I #
End-of-ACIS-data 