500 0 10 0           
7 Unknown 11 ACIS 5.0 NT 24 Fri Mar 26 03:08:45 1999 
-1 9.9999999999999995e-007 1e-010 
body $-1 $10 $-1 $11 #
body $-1 $12 $-1 $13 #
body $-1 $14 $-1 $15 #
body $-1 $16 $-1 $17 #
body $-1 $18 $-1 $19 #
body $-1 $20 $-1 $21 #
body $-1 $22 $-1 $23 #
body $-1 $24 $-1 $25 #
body $-1 $26 $-1 $27 #
body $-1 $28 $-1 $29 #
lump $-1 $-1 $30 $0 #
transform $-1 1 0 0 0 1 0 0 0 1 63.190404980620741 39.588161001104119 18.363846881572385 1 rotate no_reflect no_shear #
lump $-1 $-1 $31 $1 #
transform $-1 1 0 0 0 1 0 0 0 1 63.190404980620741 39.588161001104119 18.363846881572385 1 rotate no_reflect no_shear #
lump $-1 $-1 $32 $2 #
transform $-1 1 0 0 0 1 0 0 0 1 63.190404980620741 39.588161001104119 18.363846881572385 1 rotate no_reflect no_shear #
lump $-1 $-1 $33 $3 #
transform $-1 1 0 0 0 1 0 0 0 1 63.190404980620741 39.588161001104119 18.363846881572385 1 rotate no_reflect no_shear #
lump $-1 $-1 $34 $4 #
transform $-1 1 0 0 0 1 0 0 0 1 63.190404980620741 39.588161001104119 18.363846881572385 1 rotate no_reflect no_shear #
lump $-1 $-1 $35 $5 #
transform $-1 1 0 0 0 1 0 0 0 1 63.190404980620741 39.588161001104119 18.363846881572385 1 rotate no_reflect no_shear #
lump $-1 $-1 $36 $6 #
transform $-1 1 0 0 0 1 0 0 0 1 63.190404980620741 39.588161001104119 18.363846881572385 1 rotate no_reflect no_shear #
lump $-1 $-1 $37 $7 #
transform $-1 1 0 0 0 1 0 0 0 1 63.190404980620741 39.588161001104119 18.363846881572385 1 rotate no_reflect no_shear #
lump $-1 $-1 $38 $8 #
transform $-1 1 0 0 0 1 0 0 0 1 63.190404980620741 39.588161001104119 18.363846881572385 1 rotate no_reflect no_shear #
lump $-1 $-1 $39 $9 #
transform $-1 1 0 0 0 1 0 0 0 1 63.190404980620741 39.588161001104119 18.363846881572385 1 rotate no_reflect no_shear #
shell $-1 $-1 $-1 $40 $-1 $10 #
shell $-1 $-1 $-1 $41 $-1 $12 #
shell $-1 $-1 $-1 $42 $-1 $14 #
shell $-1 $-1 $-1 $43 $-1 $16 #
shell $-1 $-1 $-1 $44 $-1 $18 #
shell $-1 $-1 $-1 $45 $-1 $20 #
shell $-1 $-1 $-1 $46 $-1 $22 #
shell $-1 $-1 $-1 $47 $-1 $24 #
shell $-1 $-1 $-1 $48 $-1 $26 #
shell $-1 $-1 $-1 $49 $-1 $28 #
face $-1 $50 $51 $30 $-1 $52 forward single #
face $-1 $53 $54 $31 $-1 $55 reversed single #
face $-1 $56 $57 $32 $-1 $58 reversed single #
face $-1 $59 $60 $33 $-1 $61 forward single #
face $-1 $62 $63 $34 $-1 $64 reversed single #
face $-1 $65 $66 $35 $-1 $67 forward single #
face $-1 $68 $69 $36 $-1 $70 reversed single #
face $-1 $71 $72 $37 $-1 $73 forward single #
face $-1 $74 $75 $38 $-1 $76 reversed single #
face $-1 $77 $78 $39 $-1 $79 forward single #
face $-1 $80 $81 $30 $-1 $82 reversed single #
loop $-1 $-1 $83 $40 #
plane-surface $-1 0 0 18.363846881572385 0 0 1 1 0 0 forward_v I I I I #
face $-1 $84 $85 $31 $-1 $86 reversed single #
loop $-1 $-1 $87 $41 #
plane-surface $-1 0 -29.559557007434371 14.191615841362605 0 0 1 1 0 0 forward_v I I I I #
face $-1 $88 $89 $32 $-1 $90 reversed single #
loop $-1 $-1 $91 $42 #
plane-surface $-1 -63.190404980620755 -14.98019181779614 6.4930738735927775 -0.68199836817093118 0 0.7313536940579346 0.7313536940579346 0 0.68199836817093118 forward_v I I I I #
face $-1 $92 $93 $33 $-1 $94 forward single #
loop $-1 $95 $96 $43 #
cone-surface $-1 -55.695346930638536 -14.98019181779614 11.216538539148853 0.68199836817093118 0 -0.7313536940579346 1.4627073881158692 0 1.3639967363418624 1 I I 0 1 2 forward I I I I #
face $-1 $97 $98 $34 $-1 $99 reversed single #
loop $-1 $-1 $100 $44 #
plane-surface $-1 -149.38191114230801 -4.7511745100474325 98.922146096780551 0 1 0 -0.68199836817093118 0 0.7313536940579346 forward_v I I I I #
face $-1 $101 $102 $35 $-1 $103 forward single #
loop $-1 $104 $105 $45 #
cone-surface $-1 -55.695346930638536 -0.20041331407895058 11.216538539148853 0.68199836817093118 0 -0.7313536940579346 1.4627073881158692 0 1.3639967363418624 1 I I 0 1 2 forward I I I I #
face $-1 $106 $107 $36 $-1 $108 reversed single #
loop $-1 $-1 $109 $46 #
plane-surface $-1 -149.38191114230801 10.028603993669757 98.922146096780551 0 1 0 -0.68199836817093118 0 0.7313536940579346 forward_v I I I I #
face $-1 $110 $111 $37 $-1 $112 forward single #
loop $-1 $113 $114 $47 #
cone-surface $-1 -55.695346930638536 14.579365189638239 11.216538539148853 0.68199836817093118 0 -0.7313536940579346 1.4627073881158692 0 1.3639967363418624 1 I I 0 1 2 forward I I I I #
face $-1 $115 $116 $38 $-1 $117 reversed single #
loop $-1 $-1 $118 $48 #
plane-surface $-1 -149.38191114230801 24.808382497386944 98.922146096780551 0 1 0 -0.68199836817093118 0 0.7313536940579346 forward_v I I I I #
face $-1 $119 $120 $39 $-1 $121 forward single #
loop $-1 $122 $123 $49 #
cone-surface $-1 -55.695346930638536 29.359143693355428 11.216538539148853 0.68199836817093118 0 -0.7313536940579346 1.4627073881158692 0 1.3639967363418624 1 I I 0 1 2 forward I I I I #
face $-1 $124 $125 $30 $-1 $126 reversed single #
loop $-1 $-1 $127 $50 #
plane-surface $-1 0 0 -18.363846881572385 0 0 1 1 0 0 forward_v I I I I #
coedge $-1 $128 $129 $130 $131 forward $51 $-1 #
face $-1 $132 $133 $31 $-1 $134 reversed single #
loop $-1 $-1 $135 $53 #
plane-surface $-1 0 -19.530953013764623 16.277731361467495 0 -1 0 0 0 -1 forward_v I I I I #
coedge $-1 $136 $137 $138 $139 reversed $54 $-1 #
face $-1 $140 $141 $32 $-1 $142 forward single #
loop $-1 $-1 $143 $56 #
plane-surface $-1 -149.38191114230801 -10.429430621827658 98.922146096780551 0 -1 0 0.68199836817093118 0 -0.7313536940579346 forward_v I I I I #
coedge $-1 $144 $145 $146 $147 reversed $57 $-1 #
face $-1 $-1 $148 $33 $-1 $149 forward single #
loop $-1 $150 $151 $59 #
cone-surface $-1 -53.883213139787919 -14.98019181779614 9.2732630066571993 0.68199836817093118 0 -0.7313536940579346 0.7313536940579346 0 0.68199836817093118 1 I I -0.70710678118654746 0.70710678118654746 1 forward I I I I #
loop $-1 $-1 $152 $43 #
coedge $-1 $96 $96 $153 $154 reversed $60 $-1 #
face $-1 $155 $156 $34 $-1 $157 reversed single #
loop $-1 $-1 $158 $62 #
plane-surface $-1 -63.190404980620755 -0.20041331407895058 6.4930738735927775 -0.68199836817093118 0 0.7313536940579346 0.7313536940579346 0 0.68199836817093118 forward_v I I I I #
coedge $-1 $159 $160 $161 $162 reversed $63 $-1 #
face $-1 $-1 $163 $35 $-1 $164 forward single #
loop $-1 $165 $166 $65 #
cone-surface $-1 -53.883213139787919 -0.20041331407895058 9.2732630066571993 0.68199836817093118 0 -0.7313536940579346 0.7313536940579346 0 0.68199836817093118 1 I I -0.70710678118654746 0.70710678118654746 1 forward I I I I #
loop $-1 $-1 $167 $45 #
coedge $-1 $105 $105 $168 $169 reversed $66 $-1 #
face $-1 $170 $171 $36 $-1 $172 reversed single #
loop $-1 $-1 $173 $68 #
plane-surface $-1 -63.190404980620755 14.579365189638239 6.4930738735927775 -0.68199836817093118 0 0.7313536940579346 0.7313536940579346 0 0.68199836817093118 forward_v I I I I #
coedge $-1 $174 $175 $176 $177 reversed $69 $-1 #
face $-1 $-1 $178 $37 $-1 $179 forward single #
loop $-1 $180 $181 $71 #
cone-surface $-1 -53.883213139787919 14.579365189638239 9.2732630066571993 0.68199836817093118 0 -0.7313536940579346 0.7313536940579346 0 0.68199836817093118 1 I I -0.70710678118654746 0.70710678118654746 1 forward I I I I #
loop $-1 $-1 $182 $47 #
coedge $-1 $114 $114 $183 $184 reversed $72 $-1 #
face $-1 $185 $186 $38 $-1 $187 reversed single #
loop $-1 $-1 $188 $74 #
plane-surface $-1 -63.190404980620755 29.359143693355428 6.4930738735927775 -0.68199836817093118 0 0.7313536940579346 0.7313536940579346 0 0.68199836817093118 forward_v I I I I #
coedge $-1 $189 $190 $191 $192 reversed $75 $-1 #
face $-1 $-1 $193 $39 $-1 $194 forward single #
loop $-1 $195 $196 $77 #
cone-surface $-1 -53.883213139787919 29.359143693355428 9.2732630066571993 0.68199836817093118 0 -0.7313536940579346 0.7313536940579346 0 0.68199836817093118 1 I I -0.70710678118654746 0.70710678118654746 1 forward I I I I #
loop $-1 $-1 $197 $49 #
coedge $-1 $123 $123 $198 $199 reversed $78 $-1 #
face $-1 $200 $201 $30 $-1 $202 reversed single #
loop $-1 $-1 $203 $80 #
plane-surface $-1 0 -39.588161001104119 0 0 1 0 0 0 1 forward_v I I I I #
coedge $-1 $204 $205 $206 $207 forward $81 $-1 #
coedge $-1 $208 $83 $209 $210 forward $51 $-1 #
coedge $-1 $83 $208 $211 $212 forward $51 $-1 #
coedge $-1 $213 $214 $83 $131 reversed $215 $-1 #
edge $-1 $216 -39.588161001104119 $217 39.588161001104119 $130 $218 forward 7 unknown #
face $-1 $219 $220 $31 $-1 $221 reversed single #
loop $-1 $-1 $222 $84 #
plane-surface $-1 -63.190404980620741 0 0 1 0 0 0 0 -1 forward_v I I I I #
coedge $-1 $223 $224 $225 $226 reversed $85 $-1 #
coedge $-1 $227 $87 $228 $229 reversed $54 $-1 #
coedge $-1 $87 $227 $230 $231 forward $54 $-1 #
coedge $-1 $232 $233 $87 $139 forward $234 $-1 #
edge $-1 $235 -24.808382497386933 $236 -4.7511745100474378 $138 $237 forward 7 unknown #
face $-1 $238 $239 $32 $-1 $240 reversed single #
loop $-1 $-1 $146 $88 #
plane-surface $-1 0 0 18.363846881572385 0 0 1 1 0 0 forward_v I I I I #
coedge $-1 $241 $242 $243 $244 reversed $89 $-1 #
coedge $-1 $245 $91 $246 $247 reversed $57 $-1 #
coedge $-1 $91 $245 $241 $248 forward $57 $-1 #
coedge $-1 $243 $249 $91 $147 forward $141 $-1 #
edge $-1 $250 -12.040857104866554 $251 -2.9393347129295879 $146 $252 forward 7 unknown #
loop $-1 $-1 $153 $92 #
plane-surface $-1 -63.190404980620755 -14.98019181779614 6.4930738735927775 -0.68199836817093118 0 0.7313536940579346 0.7313536940579346 0 0.68199836817093118 forward_v I I I I #
loop $-1 $-1 $253 $59 #
coedge $-1 $151 $151 $152 $254 reversed $93 $-1 #
coedge $-1 $152 $152 $151 $254 forward $95 $-1 #
coedge $-1 $153 $153 $96 $154 forward $148 $-1 #
edge $-1 $255 0 $255 6.2831853071796004 $153 $256 forward 7 unknown #
face $-1 $257 $258 $34 $-1 $259 forward single #
loop $-1 $-1 $260 $97 #
plane-surface $-1 -149.38191114230801 4.3503478818895314 98.922146096780551 0 -1 0 0.68199836817093118 0 -0.7313536940579346 forward_v I I I I #
coedge $-1 $261 $262 $263 $264 reversed $98 $-1 #
coedge $-1 $160 $100 $265 $266 reversed $63 $-1 #
coedge $-1 $100 $159 $261 $267 reversed $63 $-1 #
coedge $-1 $263 $268 $100 $162 forward $258 $-1 #
edge $-1 $269 11.500550590533265 $270 24.23039584513829 $161 $271 forward 7 unknown #
loop $-1 $-1 $168 $101 #
plane-surface $-1 -63.190404980620755 -0.20041331407895058 6.4930738735927775 -0.68199836817093118 0 0.7313536940579346 0.7313536940579346 0 0.68199836817093118 forward_v I I I I #
loop $-1 $-1 $272 $65 #
coedge $-1 $166 $166 $167 $273 reversed $102 $-1 #
coedge $-1 $167 $167 $166 $273 forward $104 $-1 #
coedge $-1 $168 $168 $105 $169 forward $163 $-1 #
edge $-1 $274 0 $274 6.2831853071796004 $168 $275 forward 7 unknown #
face $-1 $276 $277 $36 $-1 $278 forward single #
loop $-1 $-1 $279 $106 #
plane-surface $-1 -149.38191114230801 19.130126385606722 98.922146096780551 0 -1 0 0.68199836817093118 0 -0.7313536940579346 forward_v I I I I #
coedge $-1 $280 $281 $282 $283 reversed $107 $-1 #
coedge $-1 $175 $109 $284 $285 reversed $69 $-1 #
coedge $-1 $109 $174 $280 $286 reversed $69 $-1 #
coedge $-1 $282 $287 $109 $177 forward $277 $-1 #
edge $-1 $288 11.500550590533265 $289 24.23039584513829 $176 $290 forward 7 unknown #
loop $-1 $-1 $183 $110 #
plane-surface $-1 -63.190404980620755 14.579365189638239 6.4930738735927775 -0.68199836817093118 0 0.7313536940579346 0.7313536940579346 0 0.68199836817093118 forward_v I I I I #
loop $-1 $-1 $291 $71 #
coedge $-1 $181 $181 $182 $292 reversed $111 $-1 #
coedge $-1 $182 $182 $181 $292 forward $113 $-1 #
coedge $-1 $183 $183 $114 $184 forward $178 $-1 #
edge $-1 $293 0 $293 6.2831853071796004 $183 $294 forward 7 unknown #
face $-1 $295 $296 $38 $-1 $297 forward single #
loop $-1 $-1 $298 $115 #
plane-surface $-1 -149.38191114230801 33.909904889323911 98.922146096780551 0 -1 0 0.68199836817093118 0 -0.7313536940579346 forward_v I I I I #
coedge $-1 $299 $300 $301 $302 reversed $116 $-1 #
coedge $-1 $190 $118 $303 $304 reversed $75 $-1 #
coedge $-1 $118 $189 $299 $305 reversed $75 $-1 #
coedge $-1 $301 $306 $118 $192 forward $296 $-1 #
edge $-1 $307 11.500550590533265 $308 24.23039584513829 $191 $309 forward 7 unknown #
loop $-1 $-1 $198 $119 #
plane-surface $-1 -63.190404980620755 29.359143693355428 6.4930738735927775 -0.68199836817093118 0 0.7313536940579346 0.7313536940579346 0 0.68199836817093118 forward_v I I I I #
loop $-1 $-1 $310 $77 #
coedge $-1 $196 $196 $197 $311 reversed $120 $-1 #
coedge $-1 $197 $197 $196 $311 forward $122 $-1 #
coedge $-1 $198 $198 $123 $199 forward $193 $-1 #
edge $-1 $312 0 $312 6.2831853071796004 $198 $313 forward 7 unknown #
face $-1 $314 $315 $30 $-1 $316 reversed single #
loop $-1 $-1 $317 $124 #
plane-surface $-1 -63.190404980620741 0 0 1 0 0 0 0 -1 forward_v I I I I #
coedge $-1 $318 $211 $319 $320 forward $125 $-1 #
coedge $-1 $321 $127 $318 $322 forward $81 $-1 #
coedge $-1 $127 $321 $323 $324 forward $81 $-1 #
coedge $-1 $214 $213 $127 $207 reversed $215 $-1 #
edge $-1 $325 -39.588161001104119 $326 39.588161001104119 $206 $327 forward 7 unknown #
coedge $-1 $129 $128 $328 $329 forward $51 $-1 #
coedge $-1 $330 $331 $128 $210 reversed $315 $-1 #
edge $-1 $217 -63.190404980620741 $332 63.190404980620741 $209 $333 forward 7 unknown #
coedge $-1 $203 $334 $129 $212 reversed $125 $-1 #
edge $-1 $335 -63.190404980620741 $216 63.190404980620741 $211 $336 forward 7 unknown #
coedge $-1 $206 $130 $334 $337 forward $215 $-1 #
coedge $-1 $130 $206 $330 $338 reversed $215 $-1 #
loop $-1 $-1 $213 $314 #
vertex $-1 $131 $339 #
vertex $-1 $131 $340 #
straight-curve $-1 63.190404980620741 0 18.363846881572385 0 1 0 I I #
face $-1 $341 $342 $31 $-1 $343 forward single #
loop $-1 $-1 $228 $132 #
plane-surface $-1 0 -39.588161001104119 0 0 1 0 0 0 1 forward_v I I I I #
coedge $-1 $344 $345 $224 $346 forward $133 $-1 #
coedge $-1 $230 $135 $232 $347 reversed $85 $-1 #
coedge $-1 $135 $230 $222 $346 reversed $85 $-1 #
coedge $-1 $348 $349 $135 $226 forward $342 $-1 #
edge $-1 $350 -63.190404980620741 $351 63.190404980620741 $225 $352 forward 7 unknown #
coedge $-1 $137 $136 $344 $353 reversed $54 $-1 #
coedge $-1 $354 $355 $136 $229 forward $220 $-1 #
edge $-1 $356 -63.190404980620741 $235 63.190404980620741 $228 $357 forward 7 unknown #
coedge $-1 $224 $223 $137 $231 reversed $85 $-1 #
edge $-1 $358 -63.190404980620741 $236 63.190404980620741 $230 $359 forward 7 unknown #
coedge $-1 $360 $138 $223 $347 forward $234 $-1 #
coedge $-1 $138 $360 $354 $361 forward $234 $-1 #
loop $-1 $-1 $232 $341 #
vertex $-1 $229 $362 #
vertex $-1 $139 $363 #
straight-curve $-1 63.190404980620741 -14.779778503717186 14.191615841362605 0 1 0 I I #
face $-1 $-1 $364 $32 $-1 $365 forward single #
loop $-1 $-1 $366 $140 #
plane-surface $-1 -63.190404980620741 0 0 1 0 0 0 0 -1 forward_v I I I I #
coedge $-1 $242 $143 $145 $248 reversed $89 $-1 #
coedge $-1 $143 $241 $366 $367 reversed $89 $-1 #
coedge $-1 $368 $146 $143 $244 forward $141 $-1 #
edge $-1 $251 -24.23039584513829 $369 -11.500550590533265 $243 $370 forward 7 unknown #
coedge $-1 $145 $144 $371 $372 reversed $57 $-1 #
coedge $-1 $373 $374 $144 $247 forward $364 $-1 #
edge $-1 $375 -26.443828275717948 $250 -9.0379611036070742 $246 $376 forward 7 unknown #
edge $-1 $377 1.9479204584885432e-014 $251 17.405867172110895 $241 $378 forward 7 unknown #
coedge $-1 $146 $368 $373 $379 forward $141 $-1 #
vertex $-1 $247 $380 #
vertex $-1 $147 $381 #
straight-curve $-1 -50.460559726015717 -7.4900959088980699 18.363846881572385 0 1 0 I I #
coedge $-1 $253 $253 $-1 $382 reversed $150 $-1 #
edge $-1 $383 0 $383 6.2831853071796004 $151 $384 forward 7 unknown #
vertex $-1 $154 $385 #
ellipse-curve $-1 -56.825482353318229 -14.98019181779614 12.428460377582587 -0.68199836817093118 0 0.7313536940579346 1.4627073881158692 0 1.3639967363418624 1 I I #
face $-1 $-1 $386 $34 $-1 $387 reversed single #
loop $-1 $-1 $161 $155 #
plane-surface $-1 0 0 18.363846881572385 0 0 1 1 0 0 forward_v I I I I #
coedge $-1 $388 $389 $390 $391 reversed $156 $-1 #
coedge $-1 $392 $158 $160 $267 forward $98 $-1 #
coedge $-1 $158 $392 $388 $393 forward $98 $-1 #
coedge $-1 $390 $161 $158 $264 forward $258 $-1 #
edge $-1 $270 -4.6509678530079572 $394 4.4505545389290067 $263 $395 forward 7 unknown #
coedge $-1 $396 $397 $159 $266 forward $386 $-1 #
edge $-1 $398 -42.967999174797484 $269 -31.09722616681789 $265 $399 forward 7 unknown #
edge $-1 $270 -17.405867172110895 $398 -1.9479204584885432e-014 $160 $400 forward 7 unknown #
coedge $-1 $161 $390 $396 $401 forward $258 $-1 #
vertex $-1 $162 $402 #
vertex $-1 $162 $403 #
straight-curve $-1 -74.690955571154007 -4.7511745100474325 18.363846881572385 1 0 0 I I #
coedge $-1 $272 $272 $-1 $404 reversed $165 $-1 #
edge $-1 $405 0 $405 6.2831853071796004 $166 $406 forward 7 unknown #
vertex $-1 $169 $407 #
ellipse-curve $-1 -56.825482353318229 -0.20041331407895058 12.428460377582587 -0.68199836817093118 0 0.7313536940579346 1.4627073881158692 0 1.3639967363418624 1 I I #
face $-1 $-1 $408 $36 $-1 $409 reversed single #
loop $-1 $-1 $176 $170 #
plane-surface $-1 0 0 18.363846881572385 0 0 1 1 0 0 forward_v I I I I #
coedge $-1 $410 $411 $412 $413 reversed $171 $-1 #
coedge $-1 $414 $173 $175 $286 forward $107 $-1 #
coedge $-1 $173 $414 $410 $415 forward $107 $-1 #
coedge $-1 $412 $176 $173 $283 forward $277 $-1 #
edge $-1 $289 2.7389213988506373 $416 11.840443790787603 $282 $417 forward 7 unknown #
coedge $-1 $418 $419 $174 $285 forward $408 $-1 #
edge $-1 $420 -42.967999174797484 $288 -31.09722616681789 $284 $421 forward 7 unknown #
edge $-1 $289 -17.405867172110895 $420 -1.9479204584885432e-014 $175 $422 forward 7 unknown #
coedge $-1 $176 $412 $418 $423 forward $277 $-1 #
vertex $-1 $177 $424 #
vertex $-1 $177 $425 #
straight-curve $-1 -74.690955571154007 10.028603993669757 18.363846881572385 1 0 0 I I #
coedge $-1 $291 $291 $-1 $426 reversed $180 $-1 #
edge $-1 $427 0 $427 6.2831853071796004 $181 $428 forward 7 unknown #
vertex $-1 $184 $429 #
ellipse-curve $-1 -56.825482353318229 14.579365189638239 12.428460377582587 -0.68199836817093118 0 0.7313536940579346 1.4627073881158692 0 1.3639967363418624 1 I I #
face $-1 $-1 $430 $38 $-1 $431 reversed single #
loop $-1 $-1 $191 $185 #
plane-surface $-1 0 0 18.363846881572385 0 0 1 1 0 0 forward_v I I I I #
coedge $-1 $432 $433 $434 $435 reversed $186 $-1 #
coedge $-1 $436 $188 $190 $305 forward $116 $-1 #
coedge $-1 $188 $436 $432 $437 forward $116 $-1 #
coedge $-1 $434 $191 $188 $302 forward $296 $-1 #
edge $-1 $308 10.12881065070923 $438 19.230333042646198 $301 $439 forward 7 unknown #
coedge $-1 $440 $441 $189 $304 forward $430 $-1 #
edge $-1 $442 -42.967999174797484 $307 -31.09722616681789 $303 $443 forward 7 unknown #
edge $-1 $308 -17.405867172110895 $442 -1.9479204584885432e-014 $190 $444 forward 7 unknown #
coedge $-1 $191 $434 $440 $445 forward $296 $-1 #
vertex $-1 $192 $446 #
vertex $-1 $192 $447 #
straight-curve $-1 -74.690955571154007 24.808382497386944 18.363846881572385 1 0 0 I I #
coedge $-1 $310 $310 $-1 $448 reversed $195 $-1 #
edge $-1 $449 0 $449 6.2831853071796004 $196 $450 forward 7 unknown #
vertex $-1 $199 $451 #
ellipse-curve $-1 -56.825482353318229 29.359143693355428 12.428460377582587 -0.68199836817093118 0 0.7313536940579346 1.4627073881158692 0 1.3639967363418624 1 I I #
face $-1 $-1 $215 $30 $-1 $452 reversed single #
loop $-1 $-1 $330 $200 #
plane-surface $-1 0 39.588161001104119 0 0 -1 0 0 0 -1 forward_v I I I I #
coedge $-1 $453 $328 $331 $454 forward $201 $-1 #
coedge $-1 $334 $203 $204 $322 reversed $125 $-1 #
coedge $-1 $328 $453 $203 $320 reversed $201 $-1 #
edge $-1 $335 -18.363846881572385 $455 18.363846881572385 $319 $456 forward 7 unknown #
coedge $-1 $205 $204 $453 $457 forward $81 $-1 #
edge $-1 $326 -63.190404980620741 $455 63.190404980620741 $318 $458 forward 7 unknown #
coedge $-1 $331 $330 $205 $324 reversed $315 $-1 #
edge $-1 $459 -63.190404980620741 $325 63.190404980620741 $323 $460 forward 7 unknown #
vertex $-1 $207 $461 #
vertex $-1 $337 $462 #
straight-curve $-1 63.190404980620741 0 -18.363846881572385 0 -1 0 I I #
coedge $-1 $317 $319 $208 $329 reversed $201 $-1 #
edge $-1 $332 -39.588161001104119 $335 39.588161001104119 $328 $463 forward 7 unknown #
coedge $-1 $323 $209 $214 $338 forward $315 $-1 #
coedge $-1 $209 $323 $317 $454 reversed $315 $-1 #
vertex $-1 $210 $464 #
straight-curve $-1 0 39.588161001104119 18.363846881572385 -1 0 0 I I #
coedge $-1 $211 $318 $213 $337 reversed $125 $-1 #
vertex $-1 $329 $465 #
straight-curve $-1 0 -39.588161001104119 18.363846881572385 1 0 0 I I #
edge $-1 $216 -18.363846881572385 $326 18.363846881572385 $213 $466 forward 7 unknown #
edge $-1 $217 -18.363846881572385 $325 18.363846881572385 $214 $467 forward 7 unknown #
point $-1 63.190404980620741 -39.588161001104119 18.363846881572385 #
point $-1 63.190404980620741 39.588161001104119 18.363846881572385 #
face $-1 $-1 $234 $31 $-1 $468 reversed single #
loop $-1 $-1 $225 $219 #
plane-surface $-1 0 0 18.363846881572385 0 0 1 1 0 0 forward_v I I I I #
coedge $-1 $469 $222 $227 $353 forward $133 $-1 #
coedge $-1 $222 $469 $348 $470 reversed $133 $-1 #
edge $-1 $351 -10.224981200838638 $358 -6.0527501606288574 $222 $471 forward 7 unknown #
edge $-1 $236 6.0527501606288574 $350 10.224981200838638 $232 $472 forward 7 unknown #
coedge $-1 $473 $225 $345 $470 forward $342 $-1 #
coedge $-1 $225 $473 $360 $474 forward $342 $-1 #
vertex $-1 $347 $475 #
vertex $-1 $470 $476 #
straight-curve $-1 0 -19.530953013764623 18.363846881572385 -1 0 0 I I #
edge $-1 $358 4.7511745100474378 $356 24.808382497386933 $344 $477 forward 7 unknown #
coedge $-1 $478 $228 $233 $361 reversed $220 $-1 #
coedge $-1 $228 $478 $469 $479 forward $220 $-1 #
vertex $-1 $229 $480 #
straight-curve $-1 0 -39.588161001104119 14.191615841362605 1 0 0 I I #
vertex $-1 $353 $481 #
straight-curve $-1 0 -19.530953013764623 14.191615841362605 1 0 0 I I #
coedge $-1 $233 $232 $349 $474 reversed $234 $-1 #
edge $-1 $482 -18.363846881572385 $235 -14.191615841362605 $233 $483 forward 7 unknown #
point $-1 63.190404980620741 -39.588161001104119 14.191615841362605 #
point $-1 63.190404980620741 -19.530953013764623 14.191615841362605 #
loop $-1 $-1 $246 $238 #
plane-surface $-1 0 -19.530953013764623 16.277731361467495 0 -1 0 0 0 -1 forward_v I I I I #
coedge $-1 $371 $484 $242 $367 forward $239 $-1 #
edge $-1 $369 31.09722616681789 $377 42.967999174797484 $366 $485 forward 7 unknown #
coedge $-1 $249 $243 $484 $486 forward $141 $-1 #
vertex $-1 $486 $487 #
straight-curve $-1 -74.690955571154007 -10.429430621827658 18.363846881572385 -1 0 0 I I #
coedge $-1 $488 $366 $245 $372 forward $239 $-1 #
edge $-1 $377 2.9393347129295879 $375 12.040857104866554 $371 $489 forward 7 unknown #
coedge $-1 $374 $246 $249 $379 reversed $364 $-1 #
coedge $-1 $246 $373 $488 $490 reversed $364 $-1 #
vertex $-1 $490 $491 #
straight-curve $-1 -43.850613486140759 -19.530953013764623 24.527721605824762 0.7313536940579346 0 0.68199836817093118 I I #
vertex $-1 $372 $492 #
straight-curve $-1 -63.190404980620755 -10.429430621827658 6.4930738735927775 0.7313536940579346 0 0.68199836817093118 I I #
edge $-1 $493 -63.190404980620741 $250 -50.460559726015717 $249 $494 forward 7 unknown #
point $-1 -50.460559726015717 -19.530953013764623 18.363846881572385 #
point $-1 -50.460559726015717 -10.429430621827658 18.363846881572385 #
edge $-1 $495 1 $495 0 $253 $-1 forward 7 unknown #
vertex $-1 $254 $496 #
ellipse-curve $-1 -54.56521150795885 -14.98019181779614 10.004616700715134 -0.68199836817093118 0 0.7313536940579346 1.4627073881158692 0 1.3639967363418624 1 I I #
point $-1 -55.362774965202348 -14.98019181779614 13.792457113924437 #
loop $-1 $-1 $265 $257 #
plane-surface $-1 -63.190404980620741 0 0 1 0 0 0 0 -1 forward_v I I I I #
coedge $-1 $389 $260 $262 $393 reversed $156 $-1 #
coedge $-1 $260 $388 $497 $498 reversed $156 $-1 #
coedge $-1 $268 $263 $260 $391 forward $258 $-1 #
edge $-1 $394 -24.23039584513829 $499 -11.500550590533265 $390 $500 forward 7 unknown #
coedge $-1 $262 $261 $397 $501 reversed $98 $-1 #
edge $-1 $502 1.9479204584885432e-014 $394 17.405867172110895 $388 $503 forward 7 unknown #
vertex $-1 $264 $504 #
straight-curve $-1 -50.460559726015717 -0.10020665703947529 18.363846881572385 0 1 0 I I #
coedge $-1 $497 $265 $268 $401 reversed $386 $-1 #
coedge $-1 $265 $497 $392 $501 forward $386 $-1 #
vertex $-1 $266 $505 #
straight-curve $-1 -63.190404980620741 -4.7511745100474325 49.461073048390276 0 0 1 I I #
straight-curve $-1 -63.190404980620755 -4.7511745100474325 6.4930738735927775 -0.7313536940579346 0 -0.68199836817093118 I I #
edge $-1 $499 -4.3503478818895314 $269 4.7511745100474325 $396 $506 forward 7 unknown #
point $-1 -63.190404980620741 -4.7511745100474325 18.363846881572385 #
point $-1 -50.460559726015717 -4.7511745100474325 18.363846881572385 #
edge $-1 $507 1 $507 0 $272 $-1 forward 7 unknown #
vertex $-1 $273 $508 #
ellipse-curve $-1 -54.56521150795885 -0.20041331407895058 10.004616700715134 -0.68199836817093118 0 0.7313536940579346 1.4627073881158692 0 1.3639967363418624 1 I I #
point $-1 -55.362774965202348 -0.20041331407895058 13.792457113924437 #
loop $-1 $-1 $284 $276 #
plane-surface $-1 -63.190404980620741 0 0 1 0 0 0 0 -1 forward_v I I I I #
coedge $-1 $411 $279 $281 $415 reversed $171 $-1 #
coedge $-1 $279 $410 $509 $510 reversed $171 $-1 #
coedge $-1 $287 $282 $279 $413 forward $277 $-1 #
edge $-1 $416 -24.23039584513829 $511 -11.500550590533265 $412 $512 forward 7 unknown #
coedge $-1 $281 $280 $419 $513 reversed $107 $-1 #
edge $-1 $514 1.9479204584885432e-014 $416 17.405867172110895 $410 $515 forward 7 unknown #
vertex $-1 $283 $516 #
straight-curve $-1 -50.460559726015717 7.2896825948191193 18.363846881572385 0 1 0 I I #
coedge $-1 $509 $284 $287 $423 reversed $408 $-1 #
coedge $-1 $284 $509 $414 $513 forward $408 $-1 #
vertex $-1 $285 $517 #
straight-curve $-1 -63.190404980620741 10.028603993669757 49.461073048390276 0 0 1 I I #
straight-curve $-1 -63.190404980620755 10.028603993669757 6.4930738735927775 -0.7313536940579346 0 -0.68199836817093118 I I #
edge $-1 $511 -19.130126385606722 $288 -10.028603993669757 $418 $518 forward 7 unknown #
point $-1 -63.190404980620741 10.028603993669757 18.363846881572385 #
point $-1 -50.460559726015717 10.028603993669757 18.363846881572385 #
edge $-1 $519 1 $519 0 $291 $-1 forward 7 unknown #
vertex $-1 $292 $520 #
ellipse-curve $-1 -54.56521150795885 14.579365189638239 10.004616700715134 -0.68199836817093118 0 0.7313536940579346 1.4627073881158692 0 1.3639967363418624 1 I I #
point $-1 -55.362774965202348 14.579365189638239 13.792457113924437 #
loop $-1 $-1 $303 $295 #
plane-surface $-1 -63.190404980620741 0 0 1 0 0 0 0 -1 forward_v I I I I #
coedge $-1 $433 $298 $300 $437 reversed $186 $-1 #
coedge $-1 $298 $432 $521 $522 reversed $186 $-1 #
coedge $-1 $306 $301 $298 $435 forward $296 $-1 #
edge $-1 $438 -24.23039584513829 $523 -11.500550590533265 $434 $524 forward 7 unknown #
coedge $-1 $300 $299 $441 $525 reversed $116 $-1 #
edge $-1 $526 1.9479204584885432e-014 $438 17.405867172110895 $432 $527 forward 7 unknown #
vertex $-1 $302 $528 #
straight-curve $-1 -50.460559726015717 14.679571846677714 18.363846881572385 0 1 0 I I #
coedge $-1 $521 $303 $306 $445 reversed $430 $-1 #
coedge $-1 $303 $521 $436 $525 forward $430 $-1 #
vertex $-1 $304 $529 #
straight-curve $-1 -63.190404980620741 24.808382497386944 49.461073048390276 0 0 1 I I #
straight-curve $-1 -63.190404980620755 24.808382497386944 6.4930738735927775 -0.7313536940579346 0 -0.68199836817093118 I I #
edge $-1 $523 -33.909904889323911 $307 -24.808382497386944 $440 $530 forward 7 unknown #
point $-1 -63.190404980620741 24.808382497386944 18.363846881572385 #
point $-1 -50.460559726015717 24.808382497386944 18.363846881572385 #
edge $-1 $531 1 $531 0 $310 $-1 forward 7 unknown #
vertex $-1 $311 $532 #
ellipse-curve $-1 -54.56521150795885 29.359143693355428 10.004616700715134 -0.68199836817093118 0 0.7313536940579346 1.4627073881158692 0 1.3639967363418624 1 I I #
point $-1 -55.362774965202348 29.359143693355428 13.792457113924437 #
plane-surface $-1 63.190404980620741 0 0 -1 0 0 0 0 1 forward_v I I I I #
coedge $-1 $319 $317 $321 $457 reversed $201 $-1 #
edge $-1 $332 -18.363846881572385 $459 18.363846881572385 $331 $533 forward 7 unknown #
vertex $-1 $457 $534 #
straight-curve $-1 -63.190404980620741 -39.588161001104119 0 0 0 -1 I I #
edge $-1 $455 -39.588161001104119 $459 39.588161001104119 $453 $535 forward 7 unknown #
straight-curve $-1 0 -39.588161001104119 -18.363846881572385 -1 0 0 I I #
vertex $-1 $324 $536 #
straight-curve $-1 0 39.588161001104119 -18.363846881572385 1 0 0 I I #
point $-1 63.190404980620741 39.588161001104119 -18.363846881572385 #
point $-1 63.190404980620741 -39.588161001104119 -18.363846881572385 #
straight-curve $-1 -63.190404980620741 0 18.363846881572385 0 -1 0 I I #
point $-1 -63.190404980620741 39.588161001104119 18.363846881572385 #
point $-1 -63.190404980620741 -39.588161001104119 18.363846881572385 #
straight-curve $-1 63.190404980620741 -39.588161001104119 0 0 0 -1 I I #
straight-curve $-1 63.190404980620741 39.588161001104119 0 0 0 -1 I I #
plane-surface $-1 63.190404980620741 0 0 -1 0 0 0 0 1 forward_v I I I I #
coedge $-1 $345 $344 $355 $479 reversed $133 $-1 #
edge $-1 $351 19.530953013764623 $537 39.588161001104119 $345 $538 forward 7 unknown #
straight-curve $-1 -63.190404980620741 -19.530953013764623 8.1388656807337476 0 0 -1 I I #
straight-curve $-1 63.190404980620741 -19.530953013764623 8.1388656807337476 0 0 1 I I #
coedge $-1 $349 $348 $478 $539 forward $342 $-1 #
edge $-1 $482 -39.588161001104119 $350 -19.530953013764623 $360 $540 forward 7 unknown #
point $-1 63.190404980620741 -19.530953013764623 18.363846881572385 #
point $-1 -63.190404980620741 -19.530953013764623 18.363846881572385 #
straight-curve $-1 -63.190404980620741 -14.779778503717186 14.191615841362605 0 -1 0 I I #
coedge $-1 $355 $354 $473 $539 reversed $220 $-1 #
edge $-1 $537 -18.363846881572385 $356 -14.191615841362605 $469 $541 forward 7 unknown #
point $-1 -63.190404980620741 -39.588161001104119 14.191615841362605 #
point $-1 -63.190404980620741 -19.530953013764623 14.191615841362605 #
vertex $-1 $474 $542 #
straight-curve $-1 63.190404980620741 -39.588161001104119 0 0 0 -1 I I #
coedge $-1 $366 $488 $368 $486 reversed $239 $-1 #
straight-curve $-1 -63.190404980620741 -10.429430621827658 49.461073048390276 0 0 -1 I I #
edge $-1 $369 10.429430621827658 $493 19.530953013764623 $484 $543 forward 7 unknown #
point $-1 -63.190404980620741 -10.429430621827658 18.363846881572385 #
coedge $-1 $484 $371 $374 $490 forward $239 $-1 #
straight-curve $-1 -63.190404980620741 -7.4900959088980699 6.4930738735927891 0 -1 0 I I #
edge $-1 $375 -42.967999174797484 $493 -31.09722616681789 $488 $544 forward 7 unknown #
point $-1 -63.190404980620741 -19.530953013764623 6.4930738735927909 #
point $-1 -63.190404980620741 -10.429430621827658 6.4930738735927909 #
vertex $-1 $490 $545 #
straight-curve $-1 0 -19.530953013764623 18.363846881572385 1 0 0 I I #
vertex $-1 $382 $546 #
point $-1 -53.102504119842983 -14.98019181779614 11.368613437056997 #
coedge $-1 $397 $396 $389 $498 forward $386 $-1 #
edge $-1 $499 31.09722616681789 $502 42.967999174797484 $497 $547 forward 7 unknown #
vertex $-1 $401 $548 #
straight-curve $-1 -74.690955571154007 4.3503478818895314 18.363846881572385 -1 0 0 I I #
edge $-1 $502 -4.4505545389290067 $398 4.6509678530079572 $397 $549 forward 7 unknown #
vertex $-1 $501 $550 #
straight-curve $-1 -63.190404980620755 4.3503478818895314 6.4930738735927775 0.7313536940579346 0 0.68199836817093118 I I #
point $-1 -50.460559726015717 4.3503478818895314 18.363846881572385 #
point $-1 -63.190404980620741 -4.7511745100474325 6.4930738735927909 #
straight-curve $-1 -63.190404980620741 0 18.363846881572385 0 -1 0 I I #
vertex $-1 $404 $551 #
point $-1 -53.102504119842983 -0.20041331407895058 11.368613437056997 #
coedge $-1 $419 $418 $411 $510 forward $408 $-1 #
edge $-1 $511 31.09722616681789 $514 42.967999174797484 $509 $552 forward 7 unknown #
vertex $-1 $423 $553 #
straight-curve $-1 -74.690955571154007 19.130126385606722 18.363846881572385 -1 0 0 I I #
edge $-1 $514 -11.840443790787603 $420 -2.7389213988506373 $419 $554 forward 7 unknown #
vertex $-1 $513 $555 #
straight-curve $-1 -63.190404980620755 19.130126385606722 6.4930738735927775 0.7313536940579346 0 0.68199836817093118 I I #
point $-1 -50.460559726015717 19.130126385606722 18.363846881572385 #
point $-1 -63.190404980620741 10.028603993669757 6.4930738735927909 #
straight-curve $-1 -63.190404980620741 0 18.363846881572385 0 -1 0 I I #
vertex $-1 $426 $556 #
point $-1 -53.102504119842983 14.579365189638239 11.368613437056997 #
coedge $-1 $441 $440 $433 $522 forward $430 $-1 #
edge $-1 $523 31.09722616681789 $526 42.967999174797484 $521 $557 forward 7 unknown #
vertex $-1 $445 $558 #
straight-curve $-1 -74.690955571154007 33.909904889323911 18.363846881572385 -1 0 0 I I #
edge $-1 $526 -19.230333042646198 $442 -10.12881065070923 $441 $559 forward 7 unknown #
vertex $-1 $525 $560 #
straight-curve $-1 -63.190404980620755 33.909904889323911 6.4930738735927775 0.7313536940579346 0 0.68199836817093118 I I #
point $-1 -50.460559726015717 33.909904889323911 18.363846881572385 #
point $-1 -63.190404980620741 24.808382497386944 6.4930738735927909 #
straight-curve $-1 -63.190404980620741 0 18.363846881572385 0 -1 0 I I #
vertex $-1 $448 $561 #
point $-1 -53.102504119842983 29.359143693355428 11.368613437056997 #
straight-curve $-1 -63.190404980620741 39.588161001104119 0 0 0 -1 I I #
point $-1 -63.190404980620741 -39.588161001104119 -18.363846881572385 #
straight-curve $-1 -63.190404980620741 0 -18.363846881572385 0 1 0 I I #
point $-1 -63.190404980620741 39.588161001104119 -18.363846881572385 #
vertex $-1 $470 $562 #
straight-curve $-1 -63.190404980620741 0 18.363846881572385 0 -1 0 I I #
edge $-1 $537 -63.190404980620741 $482 63.190404980620741 $478 $563 forward 7 unknown #
straight-curve $-1 63.190404980620741 0 18.363846881572385 0 1 0 I I #
straight-curve $-1 -63.190404980620741 -39.588161001104119 0 0 0 -1 I I #
point $-1 63.190404980620741 -39.588161001104119 18.363846881572385 #
straight-curve $-1 -63.190404980620741 0 18.363846881572385 0 -1 0 I I #
straight-curve $-1 -63.190404980620741 -19.530953013764623 49.461073048390276 0 0 1 I I #
point $-1 -63.190404980620741 -19.530953013764623 18.363846881572385 #
point $-1 -53.201214771616989 -14.98019181779614 8.5419093125992642 #
straight-curve $-1 -63.190404980620741 4.3503478818895314 49.461073048390276 0 0 -1 I I #
point $-1 -63.190404980620741 4.3503478818895314 18.363846881572385 #
straight-curve $-1 -63.190404980620741 -0.10020665703947529 6.4930738735927891 0 -1 0 I I #
point $-1 -63.190404980620741 4.3503478818895314 6.4930738735927909 #
point $-1 -53.201214771616989 -0.20041331407895058 8.5419093125992642 #
straight-curve $-1 -63.190404980620741 19.130126385606722 49.461073048390276 0 0 -1 I I #
point $-1 -63.190404980620741 19.130126385606722 18.363846881572385 #
straight-curve $-1 -63.190404980620741 7.2896825948191193 6.4930738735927891 0 -1 0 I I #
point $-1 -63.190404980620741 19.130126385606722 6.4930738735927909 #
point $-1 -53.201214771616989 14.579365189638239 8.5419093125992642 #
straight-curve $-1 -63.190404980620741 33.909904889323911 49.461073048390276 0 0 -1 I I #
point $-1 -63.190404980620741 33.909904889323911 18.363846881572385 #
straight-curve $-1 -63.190404980620741 14.679571846677714 6.4930738735927891 0 -1 0 I I #
point $-1 -63.190404980620741 33.909904889323911 6.4930738735927909 #
point $-1 -53.201214771616989 29.359143693355428 8.5419093125992642 #
point $-1 -63.190404980620741 -39.588161001104119 18.363846881572385 #
straight-curve $-1 0 -39.588161001104119 18.363846881572385 1 0 0 I I #
End-of-ACIS-data 