500 0 12 0           
7 Unknown 11 ACIS 5.0 NT 24 Fri Mar 26 16:51:21 1999 
-1 9.9999999999999995e-007 1e-010 
body $-1 $12 $-1 $13 #
body $-1 $14 $-1 $15 #
body $-1 $16 $-1 $17 #
body $-1 $18 $-1 $19 #
body $-1 $20 $-1 $21 #
body $-1 $22 $-1 $23 #
body $-1 $24 $-1 $25 #
body $-1 $26 $-1 $27 #
body $-1 $28 $-1 $29 #
body $-1 $30 $-1 $31 #
body $-1 $32 $-1 $33 #
body $-1 $34 $-1 $35 #
lump $-1 $-1 $36 $0 #
transform $-1 1 0 0 0 1 0 0 0 1 50.066225165562912 20.439494023323821 5.8254460504293597 1 rotate no_reflect no_shear #
lump $-1 $-1 $37 $1 #
transform $-1 1 0 0 0 1 0 0 0 1 50.066225165562912 20.439494023323821 5.8254460504293597 1 rotate no_reflect no_shear #
lump $-1 $-1 $38 $2 #
transform $-1 1 0 0 0 1 0 0 0 1 50.066225165562912 20.439494023323821 5.8254460504293597 1 rotate no_reflect no_shear #
lump $-1 $-1 $39 $3 #
transform $-1 1 0 0 0 1 0 0 0 1 50.066225165562912 20.439494023323821 5.8254460504293597 1 rotate no_reflect no_shear #
lump $-1 $-1 $40 $4 #
transform $-1 1 0 0 0 1 0 0 0 1 50.066225165562912 20.439494023323821 5.8254460504293597 1 rotate no_reflect no_shear #
lump $-1 $-1 $41 $5 #
transform $-1 1 0 0 0 1 0 0 0 1 50.066225165562912 20.439494023323821 5.8254460504293597 1 rotate no_reflect no_shear #
lump $-1 $-1 $42 $6 #
transform $-1 1 0 0 0 1 0 0 0 1 50.066225165562912 20.439494023323821 5.8254460504293597 1 rotate no_reflect no_shear #
lump $-1 $-1 $43 $7 #
transform $-1 1 0 0 0 1 0 0 0 1 50.066225165562912 20.439494023323821 5.8254460504293597 1 rotate no_reflect no_shear #
lump $-1 $-1 $44 $8 #
transform $-1 1 0 0 0 1 0 0 0 1 50.066225165562912 20.439494023323821 5.8254460504293597 1 rotate no_reflect no_shear #
lump $-1 $-1 $45 $9 #
transform $-1 1 0 0 0 1 0 0 0 1 50.066225165562912 20.439494023323821 5.8254460504293597 1 rotate no_reflect no_shear #
lump $-1 $-1 $46 $10 #
transform $-1 1 0 0 0 1 0 0 0 1 50.066225165562912 20.439494023323821 5.8254460504293597 1 rotate no_reflect no_shear #
lump $-1 $-1 $47 $11 #
transform $-1 1 0 0 0 1 0 0 0 1 50.066225165562912 20.439494023323821 5.8254460504293597 1 rotate no_reflect no_shear #
shell $-1 $-1 $-1 $48 $-1 $12 #
shell $-1 $-1 $-1 $49 $-1 $14 #
shell $-1 $-1 $-1 $50 $-1 $16 #
shell $-1 $-1 $-1 $51 $-1 $18 #
shell $-1 $-1 $-1 $52 $-1 $20 #
shell $-1 $-1 $-1 $53 $-1 $22 #
shell $-1 $-1 $-1 $54 $-1 $24 #
shell $-1 $-1 $-1 $55 $-1 $26 #
shell $-1 $-1 $-1 $56 $-1 $28 #
shell $-1 $-1 $-1 $57 $-1 $30 #
shell $-1 $-1 $-1 $58 $-1 $32 #
shell $-1 $-1 $-1 $59 $-1 $34 #
face $-1 $60 $61 $36 $-1 $62 forward single #
face $-1 $63 $64 $37 $-1 $65 forward single #
face $-1 $66 $67 $38 $-1 $68 forward single #
face $-1 $69 $70 $39 $-1 $71 reversed single #
face $-1 $72 $73 $40 $-1 $74 forward single #
face $-1 $75 $76 $41 $-1 $77 forward single #
face $-1 $78 $79 $42 $-1 $80 reversed single #
face $-1 $81 $82 $43 $-1 $83 forward single #
face $-1 $84 $85 $44 $-1 $86 forward single #
face $-1 $87 $88 $45 $-1 $89 reversed single #
face $-1 $90 $91 $46 $-1 $92 forward single #
face $-1 $93 $94 $47 $-1 $95 forward single #
face $-1 $96 $97 $36 $-1 $98 reversed single #
loop $-1 $-1 $99 $48 #
plane-surface $-1 0 0 5.8254460504293597 0 0 1 1 0 0 forward_v I I I I #
face $-1 $100 $101 $37 $-1 $102 reversed single #
loop $-1 $-1 $103 $49 #
plane-surface $-1 0 -16.764780182824168 -2.8254460504293597 0 0 1 1 0 0 forward_v I I I I #
face $-1 $104 $105 $38 $-1 $106 reversed single #
loop $-1 $-1 $107 $50 #
plane-surface $-1 0 16.764780182824165 -2.8254460504293597 0 0 1 1 0 0 forward_v I I I I #
face $-1 $108 $109 $39 $-1 $110 reversed single #
loop $-1 $-1 $111 $51 #
plane-surface $-1 -100.13245100188672 -5.6716455455751174 88.299364063743823 0 -1 0 0.50000000669873634 0 -0.8660253999169214 forward_v I I I I #
face $-1 $112 $113 $40 $-1 $114 forward single #
loop $-1 $115 $116 $52 #
cone-surface $-1 -46.141395964059527 -9.9122280112762304 3.2707696857908708 0.50000000669873634 0 -0.8660253999169214 0.4330126999584607 0 0.25000000334936817 1 I I 0 1 0.5 forward I I I I #
face $-1 $117 $118 $41 $-1 $119 forward single #
loop $-1 $120 $121 $53 #
cone-surface $-1 -46.141395964059527 -7.3678785318555615 3.2707696857908708 0.50000000669873634 0 -0.8660253999169214 0.4330126999584607 0 0.25000000334936817 1 I I 0 1 0.5 forward I I I I #
face $-1 $122 $123 $42 $-1 $124 reversed single #
loop $-1 $-1 $125 $54 #
plane-surface $-1 -100.13245100188672 2.9684077259907831 88.299364063743823 0 -1 0 0.50000000669873634 0 -0.8660253999169214 forward_v I I I I #
face $-1 $126 $127 $43 $-1 $128 forward single #
loop $-1 $129 $130 $55 #
cone-surface $-1 -46.141395964059527 -1.27217473971033 3.2707696857908708 0.50000000669873634 0 -0.8660253999169214 0.4330126999584607 0 0.25000000334936817 1 I I 0 1 0.5 forward I I I I #
face $-1 $131 $132 $44 $-1 $133 forward single #
loop $-1 $134 $135 $56 #
cone-surface $-1 -46.141395964059527 1.2721747397103407 3.2707696857908708 0.50000000669873634 0 -0.8660253999169214 0.4330126999584607 0 0.25000000334936817 1 I I 0 1 0.5 forward I I I I #
face $-1 $136 $137 $45 $-1 $138 reversed single #
loop $-1 $-1 $139 $57 #
plane-surface $-1 -100.13245100188672 11.608460997556683 88.299364063743823 0 -1 0 0.50000000669873634 0 -0.8660253999169214 forward_v I I I I #
face $-1 $140 $141 $46 $-1 $142 forward single #
loop $-1 $143 $144 $58 #
cone-surface $-1 -46.141395964059527 7.3678785318555704 3.2707696857908708 0.50000000669873634 0 -0.8660253999169214 0.4330126999584607 0 0.25000000334936817 1 I I 0 1 0.5 forward I I I I #
face $-1 $145 $146 $47 $-1 $147 forward single #
loop $-1 $148 $149 $59 #
cone-surface $-1 -46.141395964059527 9.9122280112762411 3.2707696857908708 0.50000000669873634 0 -0.8660253999169214 0.4330126999584607 0 0.25000000334936817 1 I I 0 1 0.5 forward I I I I #
face $-1 $150 $151 $36 $-1 $152 reversed single #
loop $-1 $-1 $153 $60 #
plane-surface $-1 0 0 -5.8254460504293597 0 0 1 1 0 0 forward_v I I I I #
coedge $-1 $154 $155 $156 $157 forward $61 $-1 #
face $-1 $158 $159 $37 $-1 $160 reversed single #
loop $-1 $-1 $161 $63 #
plane-surface $-1 0 -13.090066342324514 -4.3254460504293597 0 -1 0 0 0 -1 forward_v I I I I #
coedge $-1 $162 $163 $164 $165 reversed $64 $-1 #
face $-1 $166 $167 $38 $-1 $168 reversed single #
loop $-1 $-1 $169 $66 #
plane-surface $-1 0 13.090066342324512 -4.3254460504293597 0 1 0 0 0 1 forward_v I I I I #
coedge $-1 $170 $171 $172 $173 reversed $67 $-1 #
face $-1 $174 $175 $39 $-1 $176 reversed single #
loop $-1 $-1 $177 $69 #
plane-surface $-1 -50.066225165562926 -8.6400532715658969 1.5821187210693068 -0.50000000669873634 0 0.8660253999169214 0.8660253999169214 0 0.50000000669873634 forward_v I I I I #
coedge $-1 $178 $179 $180 $181 reversed $70 $-1 #
face $-1 $-1 $182 $40 $-1 $183 forward single #
loop $-1 $184 $185 $72 #
cone-surface $-1 -45.766395959035471 -9.9122280112762304 2.6212506358531797 0.50000000669873634 0 -0.8660253999169214 0.21650634997923035 0 0.12500000167468409 1 I I -0.70710678118654746 0.70710678118654746 0.25 forward I I I I #
loop $-1 $-1 $186 $52 #
coedge $-1 $116 $116 $187 $188 reversed $73 $-1 #
face $-1 $-1 $189 $41 $-1 $190 forward single #
loop $-1 $191 $192 $75 #
cone-surface $-1 -45.766395959035471 -7.3678785318555615 2.6212506358531797 0.50000000669873634 0 -0.8660253999169214 0.21650634997923035 0 0.12500000167468409 1 I I -0.70710678118654746 0.70710678118654746 0.25 forward I I I I #
loop $-1 $-1 $193 $53 #
coedge $-1 $121 $121 $194 $195 reversed $76 $-1 #
face $-1 $196 $197 $42 $-1 $198 reversed single #
loop $-1 $-1 $199 $78 #
plane-surface $-1 -50.066225165562926 3.5527136788005009e-015 1.5821187210693068 -0.50000000669873634 0 0.8660253999169214 0.8660253999169214 0 0.50000000669873634 forward_v I I I I #
coedge $-1 $200 $201 $202 $203 reversed $79 $-1 #
face $-1 $-1 $204 $43 $-1 $205 forward single #
loop $-1 $206 $207 $81 #
cone-surface $-1 -45.766395959035471 -1.27217473971033 2.6212506358531797 0.50000000669873634 0 -0.8660253999169214 0.21650634997923035 0 0.12500000167468409 1 I I -0.70710678118654746 0.70710678118654746 0.25 forward I I I I #
loop $-1 $-1 $208 $55 #
coedge $-1 $130 $130 $209 $210 reversed $82 $-1 #
face $-1 $-1 $211 $44 $-1 $212 forward single #
loop $-1 $213 $214 $84 #
cone-surface $-1 -45.766395959035471 1.2721747397103407 2.6212506358531797 0.50000000669873634 0 -0.8660253999169214 0.21650634997923035 0 0.12500000167468409 1 I I -0.70710678118654746 0.70710678118654746 0.25 forward I I I I #
loop $-1 $-1 $215 $56 #
coedge $-1 $135 $135 $216 $217 reversed $85 $-1 #
face $-1 $218 $219 $45 $-1 $220 reversed single #
loop $-1 $-1 $221 $87 #
plane-surface $-1 -50.066225165562926 8.640053271565904 1.5821187210693068 -0.50000000669873634 0 0.8660253999169214 0.8660253999169214 0 0.50000000669873634 forward_v I I I I #
coedge $-1 $222 $223 $224 $225 reversed $88 $-1 #
face $-1 $-1 $226 $46 $-1 $227 forward single #
loop $-1 $228 $229 $90 #
cone-surface $-1 -45.766395959035471 7.3678785318555704 2.6212506358531797 0.50000000669873634 0 -0.8660253999169214 0.21650634997923035 0 0.12500000167468409 1 I I -0.70710678118654746 0.70710678118654746 0.25 forward I I I I #
loop $-1 $-1 $230 $58 #
coedge $-1 $144 $144 $231 $232 reversed $91 $-1 #
face $-1 $-1 $233 $47 $-1 $234 forward single #
loop $-1 $235 $236 $93 #
cone-surface $-1 -45.766395959035471 9.9122280112762411 2.6212506358531797 0.50000000669873634 0 -0.8660253999169214 0.21650634997923035 0 0.12500000167468409 1 I I -0.70710678118654746 0.70710678118654746 0.25 forward I I I I #
loop $-1 $-1 $237 $59 #
coedge $-1 $149 $149 $238 $239 reversed $94 $-1 #
face $-1 $240 $241 $36 $-1 $242 reversed single #
loop $-1 $-1 $243 $96 #
plane-surface $-1 0 -20.439494023323821 0 0 1 0 0 0 1 forward_v I I I I #
coedge $-1 $244 $245 $246 $247 forward $97 $-1 #
coedge $-1 $248 $99 $249 $250 forward $61 $-1 #
coedge $-1 $99 $248 $251 $252 forward $61 $-1 #
coedge $-1 $253 $254 $99 $157 reversed $255 $-1 #
edge $-1 $256 -20.439494023323821 $257 20.439494023323821 $156 $258 forward 7 unknown #
face $-1 $259 $260 $37 $-1 $261 reversed single #
loop $-1 $-1 $262 $100 #
plane-surface $-1 0 0 -5.8254460504293597 0 0 1 1 0 0 forward_v I I I I #
coedge $-1 $263 $264 $265 $266 reversed $101 $-1 #
coedge $-1 $267 $103 $264 $268 forward $64 $-1 #
coedge $-1 $103 $267 $269 $270 reversed $64 $-1 #
coedge $-1 $271 $265 $103 $165 forward $260 $-1 #
edge $-1 $272 4.7076762509124297 $273 12.05710393191174 $164 $274 forward 7 unknown #
face $-1 $275 $276 $38 $-1 $277 reversed single #
loop $-1 $-1 $172 $104 #
plane-surface $-1 50.066225165562912 0 0 -1 0 0 0 0 1 forward_v I I I I #
coedge $-1 $278 $279 $280 $281 reversed $105 $-1 #
coedge $-1 $282 $107 $283 $284 reversed $67 $-1 #
coedge $-1 $107 $282 $279 $285 forward $67 $-1 #
coedge $-1 $286 $287 $107 $173 forward $167 $-1 #
edge $-1 $288 -12.057103931911735 $289 -4.7076762509124297 $172 $290 forward 7 unknown #
face $-1 $291 $292 $39 $-1 $293 reversed single #
loop $-1 $-1 $294 $108 #
plane-surface $-1 -100.13245100188672 -11.608460997556676 88.299364063743823 0 1 0 -0.50000000669873634 0 0.8660253999169214 forward_v I I I I #
coedge $-1 $295 $296 $297 $298 reversed $109 $-1 #
coedge $-1 $179 $111 $299 $300 reversed $70 $-1 #
coedge $-1 $111 $178 $295 $301 reversed $70 $-1 #
coedge $-1 $297 $302 $111 $181 forward $292 $-1 #
edge $-1 $303 38.324235981442555 $304 42.567563310802598 $180 $305 forward 7 unknown #
loop $-1 $-1 $187 $112 #
plane-surface $-1 -50.066225165562926 -8.6400532715658969 1.5821187210693068 -0.50000000669873634 0 0.8660253999169214 0.8660253999169214 0 0.50000000669873634 forward_v I I I I #
loop $-1 $-1 $306 $72 #
coedge $-1 $185 $185 $186 $307 reversed $113 $-1 #
coedge $-1 $186 $186 $185 $307 forward $115 $-1 #
coedge $-1 $187 $187 $116 $188 forward $182 $-1 #
edge $-1 $308 0 $308 6.2831853071796004 $187 $309 forward 7 unknown #
loop $-1 $-1 $194 $117 #
plane-surface $-1 -50.066225165562926 -8.6400532715658969 1.5821187210693068 -0.50000000669873634 0 0.8660253999169214 0.8660253999169214 0 0.50000000669873634 forward_v I I I I #
loop $-1 $-1 $310 $75 #
coedge $-1 $192 $192 $193 $311 reversed $118 $-1 #
coedge $-1 $193 $193 $192 $311 forward $120 $-1 #
coedge $-1 $194 $194 $121 $195 forward $189 $-1 #
edge $-1 $312 0 $312 6.2831853071796004 $194 $313 forward 7 unknown #
face $-1 $314 $315 $42 $-1 $316 forward single #
loop $-1 $-1 $317 $122 #
plane-surface $-1 -100.13245100188672 -2.968407725990776 88.299364063743823 0 1 0 -0.50000000669873634 0 0.8660253999169214 forward_v I I I I #
coedge $-1 $318 $319 $320 $321 reversed $123 $-1 #
coedge $-1 $201 $125 $322 $323 reversed $79 $-1 #
coedge $-1 $125 $200 $318 $324 reversed $79 $-1 #
coedge $-1 $320 $325 $125 $203 forward $326 $-1 #
edge $-1 $327 38.324235981442555 $328 42.567563310802598 $202 $329 forward 7 unknown #
loop $-1 $-1 $209 $126 #
plane-surface $-1 -50.066225165562926 3.5527136788005009e-015 1.5821187210693068 -0.50000000669873634 0 0.8660253999169214 0.8660253999169214 0 0.50000000669873634 forward_v I I I I #
loop $-1 $-1 $330 $81 #
coedge $-1 $207 $207 $208 $331 reversed $127 $-1 #
coedge $-1 $208 $208 $207 $331 forward $129 $-1 #
coedge $-1 $209 $209 $130 $210 forward $204 $-1 #
edge $-1 $332 0 $332 6.2831853071796004 $209 $333 forward 7 unknown #
loop $-1 $-1 $216 $131 #
plane-surface $-1 -50.066225165562926 3.5527136788005009e-015 1.5821187210693068 -0.50000000669873634 0 0.8660253999169214 0.8660253999169214 0 0.50000000669873634 forward_v I I I I #
loop $-1 $-1 $334 $84 #
coedge $-1 $214 $214 $215 $335 reversed $132 $-1 #
coedge $-1 $215 $215 $214 $335 forward $134 $-1 #
coedge $-1 $216 $216 $135 $217 forward $211 $-1 #
edge $-1 $336 0 $336 6.2831853071796004 $216 $337 forward 7 unknown #
face $-1 $338 $339 $45 $-1 $340 forward single #
loop $-1 $-1 $341 $136 #
plane-surface $-1 -100.13245100188672 5.6716455455751245 88.299364063743823 0 1 0 -0.50000000669873634 0 0.8660253999169214 forward_v I I I I #
coedge $-1 $342 $343 $344 $345 reversed $137 $-1 #
coedge $-1 $223 $139 $346 $347 reversed $88 $-1 #
coedge $-1 $139 $222 $342 $348 reversed $88 $-1 #
coedge $-1 $344 $349 $139 $225 forward $350 $-1 #
edge $-1 $351 38.324235981442555 $352 42.567563310802598 $224 $353 forward 7 unknown #
loop $-1 $-1 $231 $140 #
plane-surface $-1 -50.066225165562926 8.640053271565904 1.5821187210693068 -0.50000000669873634 0 0.8660253999169214 0.8660253999169214 0 0.50000000669873634 forward_v I I I I #
loop $-1 $-1 $354 $90 #
coedge $-1 $229 $229 $230 $355 reversed $141 $-1 #
coedge $-1 $230 $230 $229 $355 forward $143 $-1 #
coedge $-1 $231 $231 $144 $232 forward $226 $-1 #
edge $-1 $356 0 $356 6.2831853071796004 $231 $357 forward 7 unknown #
loop $-1 $-1 $238 $145 #
plane-surface $-1 -50.066225165562926 8.640053271565904 1.5821187210693068 -0.50000000669873634 0 0.8660253999169214 0.8660253999169214 0 0.50000000669873634 forward_v I I I I #
loop $-1 $-1 $358 $93 #
coedge $-1 $236 $236 $237 $359 reversed $146 $-1 #
coedge $-1 $237 $237 $236 $359 forward $148 $-1 #
coedge $-1 $238 $238 $149 $239 forward $233 $-1 #
edge $-1 $360 0 $360 6.2831853071796004 $238 $361 forward 7 unknown #
face $-1 $362 $363 $36 $-1 $364 reversed single #
loop $-1 $-1 $365 $150 #
plane-surface $-1 -50.066225165562912 0 0 1 0 0 0 0 -1 forward_v I I I I #
coedge $-1 $366 $251 $367 $368 forward $151 $-1 #
coedge $-1 $369 $153 $366 $370 forward $97 $-1 #
coedge $-1 $153 $369 $371 $372 forward $97 $-1 #
coedge $-1 $254 $253 $153 $247 reversed $255 $-1 #
edge $-1 $373 -20.439494023323821 $374 20.439494023323821 $246 $375 forward 7 unknown #
coedge $-1 $155 $154 $376 $377 forward $61 $-1 #
coedge $-1 $378 $379 $154 $250 reversed $363 $-1 #
edge $-1 $257 -50.066225165562912 $380 50.066225165562912 $249 $381 forward 7 unknown #
coedge $-1 $243 $382 $155 $252 reversed $151 $-1 #
edge $-1 $383 -50.066225165562912 $256 50.066225165562912 $251 $384 forward 7 unknown #
coedge $-1 $246 $156 $382 $385 forward $255 $-1 #
coedge $-1 $156 $246 $378 $386 reversed $255 $-1 #
loop $-1 $-1 $253 $362 #
vertex $-1 $157 $387 #
vertex $-1 $157 $388 #
straight-curve $-1 50.066225165562912 0 5.8254460504293597 0 1 0 I I #
face $-1 $389 $390 $37 $-1 $391 reversed single #
loop $-1 $-1 $265 $158 #
plane-surface $-1 50.066225165562912 0 0 -1 0 0 0 0 1 forward_v I I I I #
coedge $-1 $392 $393 $263 $394 forward $159 $-1 #
coedge $-1 $395 $161 $262 $394 reversed $101 $-1 #
coedge $-1 $161 $395 $162 $268 reversed $101 $-1 #
coedge $-1 $164 $396 $161 $266 forward $260 $-1 #
edge $-1 $397 -3.6627230252146799 $272 -0.66272302521467985 $265 $398 forward 7 unknown #
coedge $-1 $163 $162 $399 $400 reversed $64 $-1 #
edge $-1 $272 -50.066225165562912 $401 50.066225165562912 $264 $402 forward 7 unknown #
coedge $-1 $403 $404 $163 $270 forward $390 $-1 #
edge $-1 $273 -50.066225165562912 $405 50.066225165562912 $269 $406 forward 7 unknown #
coedge $-1 $396 $164 $404 $407 forward $260 $-1 #
vertex $-1 $165 $408 #
vertex $-1 $407 $409 #
straight-curve $-1 50.066225165562912 -8.3823900914120841 -2.8254460504293597 0 -1 0 I I #
face $-1 $410 $411 $38 $-1 $412 reversed single #
loop $-1 $-1 $413 $166 #
plane-surface $-1 0 0 -5.8254460504293597 0 0 1 1 0 0 forward_v I I I I #
coedge $-1 $414 $169 $413 $415 reversed $105 $-1 #
coedge $-1 $169 $414 $171 $285 reversed $105 $-1 #
coedge $-1 $416 $417 $169 $281 forward $411 $-1 #
edge $-1 $418 -3.6627230252146799 $419 -0.66272302521467985 $280 $420 forward 7 unknown #
coedge $-1 $171 $170 $416 $421 reversed $67 $-1 #
coedge $-1 $422 $423 $170 $284 forward $424 $-1 #
edge $-1 $425 -50.066225165562912 $288 50.066225165562912 $283 $426 forward 7 unknown #
edge $-1 $419 -50.066225165562912 $289 50.066225165562912 $279 $427 forward 7 unknown #
coedge $-1 $428 $172 $414 $429 forward $167 $-1 #
coedge $-1 $172 $428 $422 $430 reversed $167 $-1 #
vertex $-1 $430 $431 #
vertex $-1 $173 $432 #
straight-curve $-1 50.066225165562912 8.3823900914120824 -2.8254460504293597 0 -1 0 I I #
face $-1 $-1 $433 $39 $-1 $434 forward single #
loop $-1 $-1 $180 $174 #
plane-surface $-1 -50.066225165562912 0 0 1 0 0 0 0 -1 forward_v I I I I #
coedge $-1 $435 $436 $437 $438 reversed $175 $-1 #
coedge $-1 $439 $177 $179 $301 forward $109 $-1 #
coedge $-1 $177 $439 $435 $440 forward $109 $-1 #
coedge $-1 $437 $180 $177 $298 forward $292 $-1 #
edge $-1 $304 1.3516189097921689 $441 7.2884343617737279 $297 $442 forward 7 unknown #
coedge $-1 $443 $444 $178 $300 forward $433 $-1 #
edge $-1 $445 -7.3496587316884714 $303 -3.3538044874603656e-007 $299 $446 forward 7 unknown #
edge $-1 $304 1.641478638404164e-014 $445 8.4866545450203841 $179 $447 forward 7 unknown #
coedge $-1 $180 $437 $443 $448 reversed $292 $-1 #
vertex $-1 $448 $449 #
vertex $-1 $181 $450 #
straight-curve $-1 -50.066225165562912 -5.6716455455751174 44.149682031871912 0 0 -1 I I #
coedge $-1 $306 $306 $-1 $451 reversed $184 $-1 #
edge $-1 $452 0 $452 6.2831853071796004 $185 $453 forward 7 unknown #
vertex $-1 $188 $454 #
ellipse-curve $-1 -46.391395967408897 -9.9122280112762304 3.7037823857493386 -0.50000000669873634 0 0.8660253999169214 0.4330126999584607 0 0.25000000334936817 1 I I #
coedge $-1 $310 $310 $-1 $455 reversed $191 $-1 #
edge $-1 $456 0 $456 6.2831853071796004 $192 $457 forward 7 unknown #
vertex $-1 $195 $458 #
ellipse-curve $-1 -46.391395967408897 -7.3678785318555615 3.7037823857493386 -0.50000000669873634 0 0.8660253999169214 0.4330126999584607 0 0.25000000334936817 1 I I #
face $-1 $-1 $326 $42 $-1 $459 reversed single #
loop $-1 $-1 $460 $196 #
plane-surface $-1 0 0 5.8254460504293597 0 0 1 1 0 0 forward_v I I I I #
coedge $-1 $461 $462 $463 $464 reversed $197 $-1 #
coedge $-1 $465 $199 $201 $324 forward $123 $-1 #
coedge $-1 $199 $465 $461 $466 forward $123 $-1 #
coedge $-1 $463 $202 $199 $321 forward $326 $-1 #
edge $-1 $328 -2.9684077259907813 $467 2.9684077259907777 $320 $468 forward 7 unknown #
coedge $-1 $469 $470 $200 $323 forward $315 $-1 #
edge $-1 $471 -7.3496587316884714 $327 -3.3538044874603656e-007 $322 $472 forward 7 unknown #
edge $-1 $328 1.641478638404164e-014 $471 8.4866545450203841 $201 $473 forward 7 unknown #
coedge $-1 $202 $463 $469 $474 reversed $326 $-1 #
loop $-1 $-1 $463 $314 #
vertex $-1 $474 $475 #
vertex $-1 $203 $476 #
straight-curve $-1 -50.066225165562912 2.9684077259907831 44.149682031871912 0 0 -1 I I #
coedge $-1 $330 $330 $-1 $477 reversed $206 $-1 #
edge $-1 $478 0 $478 6.2831853071796004 $207 $479 forward 7 unknown #
vertex $-1 $210 $480 #
ellipse-curve $-1 -46.391395967408897 -1.27217473971033 3.7037823857493386 -0.50000000669873634 0 0.8660253999169214 0.4330126999584607 0 0.25000000334936817 1 I I #
coedge $-1 $334 $334 $-1 $481 reversed $213 $-1 #
edge $-1 $482 0 $482 6.2831853071796004 $214 $483 forward 7 unknown #
vertex $-1 $217 $484 #
ellipse-curve $-1 -46.391395967408897 1.2721747397103407 3.7037823857493386 -0.50000000669873634 0 0.8660253999169214 0.4330126999584607 0 0.25000000334936817 1 I I #
face $-1 $-1 $350 $45 $-1 $485 reversed single #
loop $-1 $-1 $486 $218 #
plane-surface $-1 0 0 5.8254460504293597 0 0 1 1 0 0 forward_v I I I I #
coedge $-1 $487 $488 $489 $490 reversed $219 $-1 #
coedge $-1 $491 $221 $223 $348 forward $137 $-1 #
coedge $-1 $221 $491 $487 $492 forward $137 $-1 #
coedge $-1 $489 $224 $221 $345 forward $350 $-1 #
edge $-1 $352 -7.2884343617737315 $493 -1.3516189097921725 $344 $494 forward 7 unknown #
coedge $-1 $495 $496 $222 $347 forward $339 $-1 #
edge $-1 $497 -7.3496587316884714 $351 -3.3538044874603656e-007 $346 $498 forward 7 unknown #
edge $-1 $352 1.641478638404164e-014 $497 8.4866545450203841 $223 $499 forward 7 unknown #
coedge $-1 $224 $489 $495 $500 reversed $350 $-1 #
loop $-1 $-1 $489 $338 #
vertex $-1 $500 $501 #
vertex $-1 $225 $502 #
straight-curve $-1 -50.066225165562912 11.608460997556683 44.149682031871912 0 0 -1 I I #
coedge $-1 $354 $354 $-1 $503 reversed $228 $-1 #
edge $-1 $504 0 $504 6.2831853071796004 $229 $505 forward 7 unknown #
vertex $-1 $232 $506 #
ellipse-curve $-1 -46.391395967408897 7.3678785318555704 3.7037823857493386 -0.50000000669873634 0 0.8660253999169214 0.4330126999584607 0 0.25000000334936817 1 I I #
coedge $-1 $358 $358 $-1 $507 reversed $235 $-1 #
edge $-1 $508 0 $508 6.2831853071796004 $236 $509 forward 7 unknown #
vertex $-1 $239 $510 #
ellipse-curve $-1 -46.391395967408897 9.9122280112762411 3.7037823857493386 -0.50000000669873634 0 0.8660253999169214 0.4330126999584607 0 0.25000000334936817 1 I I #
face $-1 $-1 $255 $36 $-1 $511 reversed single #
loop $-1 $-1 $378 $240 #
plane-surface $-1 0 20.439494023323821 0 0 -1 0 0 0 -1 forward_v I I I I #
coedge $-1 $512 $376 $379 $513 forward $241 $-1 #
coedge $-1 $382 $243 $244 $370 reversed $151 $-1 #
coedge $-1 $376 $512 $243 $368 reversed $241 $-1 #
edge $-1 $383 -5.8254460504293597 $514 5.8254460504293597 $367 $515 forward 7 unknown #
coedge $-1 $245 $244 $512 $516 forward $97 $-1 #
edge $-1 $374 -50.066225165562912 $514 50.066225165562912 $366 $517 forward 7 unknown #
coedge $-1 $379 $378 $245 $372 reversed $363 $-1 #
edge $-1 $518 -50.066225165562912 $373 50.066225165562912 $371 $519 forward 7 unknown #
vertex $-1 $247 $520 #
vertex $-1 $385 $521 #
straight-curve $-1 50.066225165562912 0 -5.8254460504293597 0 -1 0 I I #
coedge $-1 $365 $367 $248 $377 reversed $241 $-1 #
edge $-1 $380 -20.439494023323821 $383 20.439494023323821 $376 $522 forward 7 unknown #
coedge $-1 $371 $249 $254 $386 forward $363 $-1 #
coedge $-1 $249 $371 $365 $513 reversed $363 $-1 #
vertex $-1 $250 $523 #
straight-curve $-1 0 20.439494023323821 5.8254460504293597 -1 0 0 I I #
coedge $-1 $251 $366 $253 $385 reversed $151 $-1 #
vertex $-1 $377 $524 #
straight-curve $-1 0 -20.439494023323821 5.8254460504293597 1 0 0 I I #
edge $-1 $256 -5.8254460504293597 $374 5.8254460504293597 $253 $525 forward 7 unknown #
edge $-1 $257 -5.8254460504293597 $373 5.8254460504293597 $254 $526 forward 7 unknown #
point $-1 50.066225165562912 -20.439494023323821 5.8254460504293597 #
point $-1 50.066225165562912 20.439494023323821 5.8254460504293597 #
face $-1 $-1 $527 $37 $-1 $528 reversed single #
loop $-1 $-1 $269 $259 #
plane-surface $-1 0 -20.439494023323821 0 0 1 0 0 0 1 forward_v I I I I #
coedge $-1 $529 $262 $396 $530 forward $159 $-1 #
coedge $-1 $262 $529 $531 $532 forward $159 $-1 #
edge $-1 $533 -50.066225165562912 $397 50.066225165562912 $262 $534 forward 7 unknown #
coedge $-1 $264 $263 $535 $536 reversed $101 $-1 #
coedge $-1 $265 $271 $392 $530 reversed $260 $-1 #
vertex $-1 $530 $537 #
straight-curve $-1 50.066225165562912 -13.090066342324514 -2.1627230252146799 0 0 1 I I #
coedge $-1 $535 $538 $267 $400 forward $527 $-1 #
edge $-1 $405 -12.05710393191174 $401 -4.7076762509124297 $399 $539 forward 7 unknown #
vertex $-1 $400 $540 #
straight-curve $-1 0 -13.090066342324514 -2.8254460504293597 -1 0 0 I I #
coedge $-1 $541 $269 $538 $542 forward $390 $-1 #
coedge $-1 $269 $541 $271 $407 reversed $390 $-1 #
vertex $-1 $542 $543 #
straight-curve $-1 0 -20.439494023323821 -2.8254460504293597 -1 0 0 I I #
edge $-1 $273 2.8254460504293597 $544 5.8254460504293597 $271 $545 forward 7 unknown #
point $-1 50.066225165562912 -13.090066342324514 -2.8254460504293597 #
point $-1 50.066225165562912 -20.439494023323824 -2.8254460504293597 #
face $-1 $-1 $424 $38 $-1 $546 reversed single #
loop $-1 $-1 $416 $275 #
plane-surface $-1 -50.066225165562912 0 0 1 0 0 0 0 -1 forward_v I I I I #
coedge $-1 $547 $548 $278 $415 forward $276 $-1 #
coedge $-1 $279 $278 $286 $429 reversed $105 $-1 #
edge $-1 $549 -50.066225165562912 $418 50.066225165562912 $413 $550 forward 7 unknown #
coedge $-1 $551 $280 $282 $421 forward $411 $-1 #
coedge $-1 $280 $551 $547 $552 reversed $411 $-1 #
vertex $-1 $552 $553 #
vertex $-1 $421 $554 #
straight-curve $-1 -50.066225165562912 13.090066342324512 -2.1627230252146799 0 0 1 I I #
edge $-1 $419 4.7076762509124297 $425 12.057103931911735 $416 $555 forward 7 unknown #
coedge $-1 $556 $283 $287 $430 forward $424 $-1 #
coedge $-1 $283 $556 $551 $557 reversed $424 $-1 #
loop $-1 $-1 $283 $410 #
vertex $-1 $557 $558 #
straight-curve $-1 0 20.439494023323821 -2.8254460504293597 1 0 0 I I #
straight-curve $-1 0 13.090066342324512 -2.8254460504293597 1 0 0 I I #
coedge $-1 $287 $286 $548 $559 reversed $167 $-1 #
edge $-1 $289 0.66272302521467985 $549 3.6627230252146799 $286 $560 forward 7 unknown #
edge $-1 $288 2.8254460504293597 $561 5.8254460504293597 $287 $562 forward 7 unknown #
point $-1 50.066225165562912 20.439494023323817 -2.8254460504293597 #
point $-1 50.066225165562912 13.090066342324512 -2.8254460504293597 #
loop $-1 $-1 $299 $291 #
plane-surface $-1 0 0 5.8254460504293597 0 0 1 1 0 0 forward_v I I I I #
coedge $-1 $436 $294 $296 $440 reversed $175 $-1 #
coedge $-1 $294 $435 $563 $564 reversed $175 $-1 #
coedge $-1 $302 $297 $294 $438 forward $292 $-1 #
edge $-1 $441 -42.567563310802598 $565 -38.324235981442555 $437 $566 forward 7 unknown #
coedge $-1 $296 $295 $444 $567 reversed $109 $-1 #
edge $-1 $568 -8.4866545450203841 $441 -1.641478638404164e-014 $435 $569 forward 7 unknown #
vertex $-1 $298 $570 #
straight-curve $-1 -50.066225165562912 -4.3200266357829484 1.5821187210693137 0 -1 0 I I #
coedge $-1 $563 $299 $302 $448 forward $433 $-1 #
coedge $-1 $299 $563 $439 $567 forward $433 $-1 #
vertex $-1 $300 $571 #
straight-curve $-1 -50.066225500943361 -5.6716455455751174 5.8254460504293633 -1 0 0 I I #
straight-curve $-1 -50.066225165562926 -5.6716455455751174 1.5821187210693068 0.8660253999169214 0 0.50000000669873634 I I #
edge $-1 $303 5.6716455455751174 $565 11.608460997556676 $302 $572 forward 7 unknown #
point $-1 -50.066225165562912 -5.6716455455751174 5.8254460504293597 #
point $-1 -50.066225165562912 -5.6716455455751174 1.5821187210693151 #
edge $-1 $573 1 $573 0 $306 $-1 forward 7 unknown #
vertex $-1 $307 $574 #
ellipse-curve $-1 -45.891395960710156 -9.9122280112762304 2.8377569858324101 -0.50000000669873634 0 0.8660253999169214 0.4330126999584607 0 0.25000000334936817 1 I I #
point $-1 -45.958383267450429 -9.9122280112762304 3.9537823890986994 #
edge $-1 $575 1 $575 0 $310 $-1 forward 7 unknown #
vertex $-1 $311 $576 #
ellipse-curve $-1 -45.891395960710156 -7.3678785318555615 2.8377569858324101 -0.50000000669873634 0 0.8660253999169214 0.4330126999584607 0 0.25000000334936817 1 I I #
point $-1 -45.958383267450429 -7.3678785318555615 3.9537823890986994 #
plane-surface $-1 -50.066225165562912 0 0 1 0 0 0 0 -1 forward_v I I I I #
coedge $-1 $470 $469 $462 $577 forward $315 $-1 #
coedge $-1 $462 $317 $319 $466 reversed $197 $-1 #
coedge $-1 $317 $461 $460 $577 reversed $197 $-1 #
coedge $-1 $325 $320 $317 $464 forward $326 $-1 #
edge $-1 $467 -42.567563310802598 $578 -38.324235981442555 $463 $579 forward 7 unknown #
coedge $-1 $319 $318 $470 $580 reversed $123 $-1 #
edge $-1 $581 -8.4866545450203841 $467 -1.641478638404164e-014 $461 $582 forward 7 unknown #
vertex $-1 $321 $583 #
straight-curve $-1 -50.066225165562912 1.7763568394002505e-015 1.5821187210693137 0 -1 0 I I #
coedge $-1 $460 $322 $325 $474 forward $315 $-1 #
coedge $-1 $322 $460 $465 $580 forward $315 $-1 #
vertex $-1 $323 $584 #
straight-curve $-1 -50.066225500943361 2.9684077259907831 5.8254460504293633 -1 0 0 I I #
straight-curve $-1 -50.066225165562926 2.9684077259907831 1.5821187210693068 0.8660253999169214 0 0.50000000669873634 I I #
edge $-1 $327 -2.9684077259907831 $578 2.968407725990776 $325 $585 forward 7 unknown #
point $-1 -50.066225165562912 2.9684077259907831 5.8254460504293597 #
point $-1 -50.066225165562912 2.9684077259907831 1.5821187210693151 #
edge $-1 $586 1 $586 0 $330 $-1 forward 7 unknown #
vertex $-1 $331 $587 #
ellipse-curve $-1 -45.891395960710156 -1.27217473971033 2.8377569858324101 -0.50000000669873634 0 0.8660253999169214 0.4330126999584607 0 0.25000000334936817 1 I I #
point $-1 -45.958383267450429 -1.27217473971033 3.9537823890986994 #
edge $-1 $588 1 $588 0 $334 $-1 forward 7 unknown #
vertex $-1 $335 $589 #
ellipse-curve $-1 -45.891395960710156 1.2721747397103407 2.8377569858324101 -0.50000000669873634 0 0.8660253999169214 0.4330126999584607 0 0.25000000334936817 1 I I #
point $-1 -45.958383267450429 1.2721747397103407 3.9537823890986994 #
plane-surface $-1 -50.066225165562912 0 0 1 0 0 0 0 -1 forward_v I I I I #
coedge $-1 $496 $495 $488 $590 forward $339 $-1 #
coedge $-1 $488 $341 $343 $492 reversed $219 $-1 #
coedge $-1 $341 $487 $486 $590 reversed $219 $-1 #
coedge $-1 $349 $344 $341 $490 forward $350 $-1 #
edge $-1 $493 -42.567563310802598 $591 -38.324235981442555 $489 $592 forward 7 unknown #
coedge $-1 $343 $342 $496 $593 reversed $137 $-1 #
edge $-1 $594 -8.4866545450203841 $493 -1.641478638404164e-014 $487 $595 forward 7 unknown #
vertex $-1 $345 $596 #
straight-curve $-1 -50.066225165562912 4.320026635782952 1.5821187210693137 0 -1 0 I I #
coedge $-1 $486 $346 $349 $500 forward $339 $-1 #
coedge $-1 $346 $486 $491 $593 forward $339 $-1 #
vertex $-1 $347 $597 #
straight-curve $-1 -50.066225500943361 11.608460997556683 5.8254460504293633 -1 0 0 I I #
straight-curve $-1 -50.066225165562926 11.608460997556683 1.5821187210693068 0.8660253999169214 0 0.50000000669873634 I I #
edge $-1 $351 -11.608460997556683 $591 -5.6716455455751245 $349 $598 forward 7 unknown #
point $-1 -50.066225165562912 11.608460997556683 5.8254460504293597 #
point $-1 -50.066225165562912 11.608460997556683 1.5821187210693151 #
edge $-1 $599 1 $599 0 $354 $-1 forward 7 unknown #
vertex $-1 $355 $600 #
ellipse-curve $-1 -45.891395960710156 7.3678785318555704 2.8377569858324101 -0.50000000669873634 0 0.8660253999169214 0.4330126999584607 0 0.25000000334936817 1 I I #
point $-1 -45.958383267450429 7.3678785318555704 3.9537823890986994 #
edge $-1 $601 1 $601 0 $358 $-1 forward 7 unknown #
vertex $-1 $359 $602 #
ellipse-curve $-1 -45.891395960710156 9.9122280112762411 2.8377569858324101 -0.50000000669873634 0 0.8660253999169214 0.4330126999584607 0 0.25000000334936817 1 I I #
point $-1 -45.958383267450429 9.9122280112762411 3.9537823890986994 #
plane-surface $-1 50.066225165562912 0 0 -1 0 0 0 0 1 forward_v I I I I #
coedge $-1 $367 $365 $369 $516 reversed $241 $-1 #
edge $-1 $380 -5.8254460504293597 $518 5.8254460504293597 $379 $603 forward 7 unknown #
vertex $-1 $516 $604 #
straight-curve $-1 -50.066225165562912 -20.439494023323821 0 0 0 -1 I I #
edge $-1 $514 -20.439494023323821 $518 20.439494023323821 $512 $605 forward 7 unknown #
straight-curve $-1 0 -20.439494023323821 -5.8254460504293597 -1 0 0 I I #
vertex $-1 $372 $606 #
straight-curve $-1 0 20.439494023323821 -5.8254460504293597 1 0 0 I I #
point $-1 50.066225165562912 20.439494023323821 -5.8254460504293597 #
point $-1 50.066225165562912 -20.439494023323821 -5.8254460504293597 #
straight-curve $-1 -50.066225165562912 0 5.8254460504293597 0 -1 0 I I #
point $-1 -50.066225165562912 20.439494023323821 5.8254460504293597 #
point $-1 -50.066225165562912 -20.439494023323821 5.8254460504293597 #
straight-curve $-1 50.066225165562912 -20.439494023323821 0 0 0 -1 I I #
straight-curve $-1 50.066225165562912 20.439494023323821 0 0 0 -1 I I #
loop $-1 $-1 $535 $389 #
plane-surface $-1 -50.066225165562912 0 0 1 0 0 0 0 -1 forward_v I I I I #
coedge $-1 $393 $392 $541 $607 forward $159 $-1 #
edge $-1 $397 13.090066342324514 $544 20.439494023323821 $396 $608 forward 7 unknown #
coedge $-1 $538 $535 $393 $532 reversed $527 $-1 #
edge $-1 $609 -20.439494023323821 $533 -13.090066342324514 $531 $610 forward 7 unknown #
vertex $-1 $536 $611 #
straight-curve $-1 0 -13.090066342324514 -5.8254460504293597 1 0 0 I I #
coedge $-1 $531 $399 $395 $536 forward $527 $-1 #
edge $-1 $401 0.66272302521467985 $533 3.6627230252146799 $535 $612 forward 7 unknown #
point $-1 50.066225165562912 -13.090066342324514 -5.8254460504293597 #
coedge $-1 $399 $531 $403 $542 reversed $527 $-1 #
straight-curve $-1 -50.066225165562912 -8.3823900914120841 -2.8254460504293597 0 1 0 I I #
point $-1 -50.066225165562912 -13.090066342324514 -2.8254460504293597 #
coedge $-1 $404 $403 $529 $607 reversed $390 $-1 #
edge $-1 $405 2.8254460504293597 $609 5.8254460504293597 $538 $613 forward 7 unknown #
point $-1 -50.066225165562912 -20.439494023323824 -2.8254460504293597 #
vertex $-1 $407 $614 #
straight-curve $-1 50.066225165562912 -20.439494023323821 0 0 0 -1 I I #
plane-surface $-1 0 20.439494023323821 0 0 -1 0 0 0 -1 forward_v I I I I #
coedge $-1 $615 $413 $417 $552 forward $276 $-1 #
coedge $-1 $413 $615 $428 $559 forward $276 $-1 #
vertex $-1 $415 $616 #
straight-curve $-1 0 13.090066342324512 -5.8254460504293597 -1 0 0 I I #
coedge $-1 $417 $416 $423 $557 forward $411 $-1 #
edge $-1 $418 13.090066342324512 $617 20.439494023323821 $417 $618 forward 7 unknown #
point $-1 -50.066225165562912 13.090066342324512 -5.8254460504293597 #
point $-1 -50.066225165562912 13.090066342324512 -2.8254460504293597 #
straight-curve $-1 -50.066225165562912 8.3823900914120824 -2.8254460504293597 0 1 0 I I #
coedge $-1 $423 $422 $615 $619 reversed $424 $-1 #
edge $-1 $425 2.8254460504293597 $617 5.8254460504293597 $423 $620 forward 7 unknown #
point $-1 -50.066225165562912 20.439494023323817 -2.8254460504293597 #
edge $-1 $561 -20.439494023323821 $549 -13.090066342324512 $428 $621 forward 7 unknown #
straight-curve $-1 50.066225165562912 13.090066342324512 -2.1627230252146799 0 0 -1 I I #
vertex $-1 $559 $622 #
straight-curve $-1 50.066225165562912 20.439494023323821 0 0 0 -1 I I #
coedge $-1 $444 $443 $436 $564 forward $433 $-1 #
edge $-1 $565 3.3538044874603656e-007 $568 7.3496587316884714 $563 $623 forward 7 unknown #
vertex $-1 $564 $624 #
straight-curve $-1 -50.066225165562912 -11.608460997556676 44.149682031871912 0 0 1 I I #
edge $-1 $568 -7.2884343617737279 $445 -1.3516189097921689 $444 $625 forward 7 unknown #
vertex $-1 $567 $626 #
straight-curve $-1 -50.066225165562926 -11.608460997556676 1.5821187210693068 -0.8660253999169214 0 -0.50000000669873634 I I #
point $-1 -50.066225165562912 -11.608460997556676 1.5821187210693151 #
point $-1 -42.716566769254889 -5.6716455455751174 5.8254460504293597 #
straight-curve $-1 -50.066225165562912 0 5.8254460504293597 0 -1 0 I I #
vertex $-1 $451 $627 #
point $-1 -45.458383260751695 -9.9122280112762304 3.0877569891817784 #
vertex $-1 $455 $628 #
point $-1 -45.458383260751695 -7.3678785318555615 3.0877569891817784 #
edge $-1 $578 3.3538044874603656e-007 $581 7.3496587316884714 $460 $629 forward 7 unknown #
vertex $-1 $577 $630 #
straight-curve $-1 -50.066225165562912 -2.968407725990776 44.149682031871912 0 0 1 I I #
edge $-1 $581 -2.9684077259907777 $471 2.9684077259907813 $470 $631 forward 7 unknown #
vertex $-1 $580 $632 #
straight-curve $-1 -50.066225165562926 -2.968407725990776 1.5821187210693068 -0.8660253999169214 0 -0.50000000669873634 I I #
point $-1 -50.066225165562912 -2.968407725990776 1.5821187210693151 #
point $-1 -42.716566769254889 2.9684077259907831 5.8254460504293597 #
straight-curve $-1 -50.066225165562912 0 5.8254460504293597 0 -1 0 I I #
vertex $-1 $477 $633 #
point $-1 -45.458383260751695 -1.27217473971033 3.0877569891817784 #
vertex $-1 $481 $634 #
point $-1 -45.458383260751695 1.2721747397103407 3.0877569891817784 #
edge $-1 $591 3.3538044874603656e-007 $594 7.3496587316884714 $486 $635 forward 7 unknown #
vertex $-1 $490 $636 #
straight-curve $-1 -50.066225165562912 5.6716455455751245 44.149682031871912 0 0 1 I I #
edge $-1 $594 1.3516189097921725 $497 7.2884343617737315 $496 $637 forward 7 unknown #
vertex $-1 $593 $638 #
straight-curve $-1 -50.066225165562926 5.6716455455751245 1.5821187210693068 -0.8660253999169214 0 -0.50000000669873634 I I #
point $-1 -50.066225165562912 5.6716455455751245 1.5821187210693151 #
point $-1 -42.716566769254889 11.608460997556683 5.8254460504293597 #
straight-curve $-1 -50.066225165562912 0 5.8254460504293597 0 -1 0 I I #
vertex $-1 $503 $639 #
point $-1 -45.458383260751695 7.3678785318555704 3.0877569891817784 #
vertex $-1 $507 $640 #
point $-1 -45.458383260751695 9.9122280112762411 3.0877569891817784 #
straight-curve $-1 -50.066225165562912 20.439494023323821 0 0 0 -1 I I #
point $-1 -50.066225165562912 -20.439494023323821 -5.8254460504293597 #
straight-curve $-1 -50.066225165562912 0 -5.8254460504293597 0 1 0 I I #
point $-1 -50.066225165562912 20.439494023323821 -5.8254460504293597 #
edge $-1 $544 -50.066225165562912 $609 50.066225165562912 $541 $641 forward 7 unknown #
straight-curve $-1 50.066225165562912 0 -5.8254460504293597 0 -1 0 I I #
vertex $-1 $532 $642 #
straight-curve $-1 -50.066225165562912 0 -5.8254460504293597 0 1 0 I I #
point $-1 -50.066225165562912 -13.090066342324514 -5.8254460504293597 #
straight-curve $-1 -50.066225165562912 -13.090066342324514 -2.1627230252146799 0 0 -1 I I #
straight-curve $-1 -50.066225165562912 -20.439494023323821 0 0 0 -1 I I #
point $-1 50.066225165562912 -20.439494023323821 -5.8254460504293597 #
coedge $-1 $548 $547 $556 $619 forward $276 $-1 #
point $-1 50.066225165562912 13.090066342324512 -5.8254460504293597 #
vertex $-1 $619 $643 #
straight-curve $-1 -50.066225165562912 0 -5.8254460504293597 0 1 0 I I #
edge $-1 $617 -50.066225165562912 $561 50.066225165562912 $556 $644 forward 7 unknown #
straight-curve $-1 -50.066225165562912 20.439494023323821 0 0 0 -1 I I #
straight-curve $-1 50.066225165562912 0 -5.8254460504293597 0 -1 0 I I #
point $-1 50.066225165562912 20.439494023323821 -5.8254460504293597 #
straight-curve $-1 -50.066225500943361 -11.608460997556676 5.8254460504293633 1 0 0 I I #
point $-1 -50.066225165562912 -11.608460997556676 5.8254460504293597 #
straight-curve $-1 -42.716566769254889 -4.3200266357829484 5.8254460504293597 0 1 0 I I #
point $-1 -42.716566769254889 -11.608460997556676 5.8254460504293597 #
point $-1 -45.641395957360785 -9.9122280112762304 2.4047442858739494 #
point $-1 -45.641395957360785 -7.3678785318555615 2.4047442858739494 #
straight-curve $-1 -50.066225500943361 -2.968407725990776 5.8254460504293633 1 0 0 I I #
point $-1 -50.066225165562912 -2.968407725990776 5.8254460504293597 #
straight-curve $-1 -42.716566769254889 1.7763568394002505e-015 5.8254460504293597 0 1 0 I I #
point $-1 -42.716566769254889 -2.968407725990776 5.8254460504293597 #
point $-1 -45.641395957360785 -1.27217473971033 2.4047442858739494 #
point $-1 -45.641395957360785 1.2721747397103407 2.4047442858739494 #
straight-curve $-1 -50.066225500943361 5.6716455455751245 5.8254460504293633 1 0 0 I I #
point $-1 -50.066225165562912 5.6716455455751245 5.8254460504293597 #
straight-curve $-1 -42.716566769254889 4.320026635782952 5.8254460504293597 0 1 0 I I #
point $-1 -42.716566769254889 5.6716455455751245 5.8254460504293597 #
point $-1 -45.641395957360785 7.3678785318555704 2.4047442858739494 #
point $-1 -45.641395957360785 9.9122280112762411 2.4047442858739494 #
straight-curve $-1 0 -20.439494023323821 -5.8254460504293597 -1 0 0 I I #
point $-1 -50.066225165562912 -20.439494023323821 -5.8254460504293597 #
point $-1 -50.066225165562912 20.439494023323821 -5.8254460504293597 #
straight-curve $-1 0 20.439494023323821 -5.8254460504293597 1 0 0 I I #
End-of-ACIS-data 