500 0 14 0           
7 Unknown 11 ACIS 5.0 NT 24 Fri Mar 26 19:40:22 1999 
-1 9.9999999999999995e-007 1e-010 
body $-1 $14 $-1 $15 #
body $-1 $16 $-1 $17 #
body $-1 $18 $-1 $19 #
body $-1 $20 $-1 $21 #
body $-1 $22 $-1 $23 #
body $-1 $24 $-1 $25 #
body $-1 $26 $-1 $27 #
body $-1 $28 $-1 $29 #
body $-1 $30 $-1 $31 #
body $-1 $32 $-1 $33 #
body $-1 $34 $-1 $35 #
body $-1 $36 $-1 $37 #
body $-1 $38 $-1 $39 #
body $-1 $40 $-1 $41 #
lump $-1 $-1 $42 $0 #
transform $-1 1 0 0 0 1 0 0 0 1 65.402386547441026 27.145972403978462 10.4424218988747 1 rotate no_reflect no_shear #
lump $-1 $-1 $43 $1 #
transform $-1 1 0 0 0 1 0 0 0 1 65.402386547441026 27.145972403978462 10.4424218988747 1 rotate no_reflect no_shear #
lump $-1 $-1 $44 $2 #
transform $-1 1 0 0 0 1 0 0 0 1 65.402386547441026 27.145972403978462 10.4424218988747 1 rotate no_reflect no_shear #
lump $-1 $-1 $45 $3 #
transform $-1 1 0 0 0 1 0 0 0 1 65.402386547441026 27.145972403978462 10.4424218988747 1 rotate no_reflect no_shear #
lump $-1 $-1 $46 $4 #
transform $-1 1 0 0 0 1 0 0 0 1 65.402386547441026 27.145972403978462 10.4424218988747 1 rotate no_reflect no_shear #
lump $-1 $-1 $47 $5 #
transform $-1 1 0 0 0 1 0 0 0 1 65.402386547441026 27.145972403978462 10.4424218988747 1 rotate no_reflect no_shear #
lump $-1 $-1 $48 $6 #
transform $-1 1 0 0 0 1 0 0 0 1 65.402386547441026 27.145972403978462 10.4424218988747 1 rotate no_reflect no_shear #
lump $-1 $-1 $49 $7 #
transform $-1 1 0 0 0 1 0 0 0 1 65.402386547441026 27.145972403978462 10.4424218988747 1 rotate no_reflect no_shear #
lump $-1 $-1 $50 $8 #
transform $-1 1 0 0 0 1 0 0 0 1 65.402386547441026 27.145972403978462 10.4424218988747 1 rotate no_reflect no_shear #
lump $-1 $-1 $51 $9 #
transform $-1 1 0 0 0 1 0 0 0 1 65.402386547441026 27.145972403978462 10.4424218988747 1 rotate no_reflect no_shear #
lump $-1 $-1 $52 $10 #
transform $-1 1 0 0 0 1 0 0 0 1 65.402386547441026 27.145972403978462 10.4424218988747 1 rotate no_reflect no_shear #
lump $-1 $-1 $53 $11 #
transform $-1 1 0 0 0 1 0 0 0 1 65.402386547441026 27.145972403978462 10.4424218988747 1 rotate no_reflect no_shear #
lump $-1 $-1 $54 $12 #
transform $-1 1 0 0 0 1 0 0 0 1 65.402386547441026 27.145972403978462 10.4424218988747 1 rotate no_reflect no_shear #
lump $-1 $-1 $55 $13 #
transform $-1 1 0 0 0 1 0 0 0 1 65.402386547441026 27.145972403978462 10.4424218988747 1 rotate no_reflect no_shear #
shell $-1 $-1 $-1 $56 $-1 $14 #
shell $-1 $-1 $-1 $57 $-1 $16 #
shell $-1 $-1 $-1 $58 $-1 $18 #
shell $-1 $-1 $-1 $59 $-1 $20 #
shell $-1 $-1 $-1 $60 $-1 $22 #
shell $-1 $-1 $-1 $61 $-1 $24 #
shell $-1 $-1 $-1 $62 $-1 $26 #
shell $-1 $-1 $-1 $63 $-1 $28 #
shell $-1 $-1 $-1 $64 $-1 $30 #
shell $-1 $-1 $-1 $65 $-1 $32 #
shell $-1 $-1 $-1 $66 $-1 $34 #
shell $-1 $-1 $-1 $67 $-1 $36 #
shell $-1 $-1 $-1 $68 $-1 $38 #
shell $-1 $-1 $-1 $69 $-1 $40 #
face $-1 $70 $71 $42 $-1 $72 forward single #
face $-1 $73 $74 $43 $-1 $75 forward single #
face $-1 $76 $77 $44 $-1 $78 reversed single #
face $-1 $79 $80 $45 $-1 $81 forward single #
face $-1 $82 $83 $46 $-1 $84 forward single #
face $-1 $85 $86 $47 $-1 $87 reversed single #
face $-1 $88 $89 $48 $-1 $90 forward single #
face $-1 $91 $92 $49 $-1 $93 forward single #
face $-1 $94 $95 $50 $-1 $96 reversed single #
face $-1 $97 $98 $51 $-1 $99 forward single #
face $-1 $100 $101 $52 $-1 $102 forward single #
face $-1 $103 $104 $53 $-1 $105 reversed single #
face $-1 $106 $107 $54 $-1 $108 forward single #
face $-1 $109 $110 $55 $-1 $111 forward single #
face $-1 $112 $113 $42 $-1 $114 reversed single #
loop $-1 $-1 $115 $56 #
plane-surface $-1 0 0 10.4424218988747 0 0 1 1 0 0 forward_v I I I I #
face $-1 $116 $117 $43 $-1 $118 reversed single #
loop $-1 $-1 $119 $57 #
plane-surface $-1 0 -27.145972403978462 0 0 1 0 0 0 1 forward_v I I I I #
face $-1 $120 $121 $44 $-1 $122 reversed single #
loop $-1 $-1 $123 $58 #
plane-surface $-1 107.01515891754927 -10.022634063563508 182.23824154284813 0 -1 0 -0.84804810408105047 0 -0.52991925155115449 forward_v I I I I #
face $-1 $124 $125 $45 $-1 $126 forward single #
loop $-1 $127 $128 $59 #
cone-surface $-1 61.993712366486335 -14.596510414028113 5.7374855580431969 -0.84804810408105047 0 -0.52991925155115449 0.26495962577557725 0 -0.42402405204052523 1 I I 0 1 0.5 forward I I I I #
face $-1 $129 $130 $46 $-1 $131 forward single #
loop $-1 $132 $133 $60 #
cone-surface $-1 61.993712366486335 -11.85218460374935 5.7374855580431969 -0.84804810408105047 0 -0.52991925155115449 0.26495962577557725 0 -0.42402405204052523 1 I I 0 1 0.5 forward I I I I #
face $-1 $134 $135 $47 $-1 $136 reversed single #
loop $-1 $-1 $137 $61 #
plane-surface $-1 107.01515891754927 1.3855995495123619 182.23824154284813 0 -1 0 -0.84804810408105047 0 -0.52991925155115449 forward_v I I I I #
face $-1 $138 $139 $48 $-1 $140 forward single #
loop $-1 $141 $142 $62 #
cone-surface $-1 61.993712366486335 -3.1882768009522451 5.7374855580431969 -0.84804810408105047 0 -0.52991925155115449 0.26495962577557725 0 -0.42402405204052523 1 I I 0 1 0.5 forward I I I I #
face $-1 $143 $144 $49 $-1 $145 forward single #
loop $-1 $146 $147 $63 #
cone-surface $-1 61.993712366486335 -0.44395099067348198 5.7374855580431969 -0.84804810408105047 0 -0.52991925155115449 0.26495962577557725 0 -0.42402405204052523 1 I I 0 1 0.5 forward I I I I #
face $-1 $148 $149 $50 $-1 $150 reversed single #
loop $-1 $-1 $151 $64 #
plane-surface $-1 107.01515891754927 12.793833162588227 182.23824154284813 0 -1 0 -0.84804810408105047 0 -0.52991925155115449 forward_v I I I I #
face $-1 $152 $153 $51 $-1 $154 forward single #
loop $-1 $155 $156 $65 #
cone-surface $-1 61.993712366486335 8.2199568121236268 5.7374855580431969 -0.84804810408105047 0 -0.52991925155115449 0.26495962577557725 0 -0.42402405204052523 1 I I 0 1 0.5 forward I I I I #
face $-1 $157 $158 $52 $-1 $159 forward single #
loop $-1 $160 $161 $66 #
cone-surface $-1 61.993712366486335 10.964282622402386 5.7374855580431969 -0.84804810408105047 0 -0.52991925155115449 0.26495962577557725 0 -0.42402405204052523 1 I I 0 1 0.5 forward I I I I #
face $-1 $162 $163 $53 $-1 $164 reversed single #
loop $-1 $-1 $165 $67 #
plane-surface $-1 107.01515891754927 24.202066775664093 182.23824154284813 0 -1 0 -0.84804810408105047 0 -0.52991925155115449 forward_v I I I I #
face $-1 $166 $167 $54 $-1 $168 forward single #
loop $-1 $169 $170 $68 #
cone-surface $-1 61.993712366486335 19.628190425199492 5.7374855580431969 -0.84804810408105047 0 -0.52991925155115449 0.26495962577557725 0 -0.42402405204052523 1 I I 0 1 0.5 forward I I I I #
face $-1 $171 $172 $55 $-1 $173 forward single #
loop $-1 $174 $175 $69 #
cone-surface $-1 61.993712366486335 22.372516235478258 5.7374855580431969 -0.84804810408105047 0 -0.52991925155115449 0.26495962577557725 0 -0.42402405204052523 1 I I 0 1 0.5 forward I I I I #
face $-1 $176 $177 $42 $-1 $178 reversed single #
loop $-1 $-1 $179 $70 #
plane-surface $-1 0 0 -10.4424218988747 0 0 1 1 0 0 forward_v I I I I #
coedge $-1 $180 $181 $182 $183 forward $71 $-1 #
face $-1 $184 $185 $43 $-1 $186 forward single #
loop $-1 $-1 $187 $73 #
plane-surface $-1 -65.402386547441026 0 0 1 0 0 0 0 -1 forward_v I I I I #
coedge $-1 $188 $189 $190 $191 forward $74 $-1 #
face $-1 $192 $193 $44 $-1 $194 reversed single #
loop $-1 $-1 $195 $76 #
plane-surface $-1 -3.9135809103174495 -13.224347508888732 112.92227408508964 0.84804810408105047 0 0.52991925155115449 0.52991925155115449 0 -0.84804810408105047 forward_v I I I I #
coedge $-1 $196 $197 $198 $199 reversed $77 $-1 #
face $-1 $-1 $200 $45 $-1 $201 forward single #
loop $-1 $202 $203 $79 #
cone-surface $-1 61.012751544167173 -14.596510414028113 5.1245132251498102 -0.84804810408105047 0 -0.52991925155115449 0.13247981288778862 0 -0.21201202602026262 1 I I -0.70710678118654746 0.70710678118654746 0.25 forward I I I I #
loop $-1 $-1 $204 $59 #
coedge $-1 $128 $128 $205 $206 reversed $80 $-1 #
face $-1 $-1 $207 $46 $-1 $208 forward single #
loop $-1 $209 $210 $82 #
cone-surface $-1 61.012751544167173 -11.85218460374935 5.1245132251498102 -0.84804810408105047 0 -0.52991925155115449 0.13247981288778862 0 -0.21201202602026262 1 I I -0.70710678118654746 0.70710678118654746 0.25 forward I I I I #
loop $-1 $-1 $211 $60 #
coedge $-1 $133 $133 $212 $213 reversed $83 $-1 #
face $-1 $214 $215 $47 $-1 $216 reversed single #
loop $-1 $-1 $217 $85 #
plane-surface $-1 -3.9135809103174495 -1.8161138958128618 112.92227408508964 0.84804810408105047 0 0.52991925155115449 0.52991925155115449 0 -0.84804810408105047 forward_v I I I I #
coedge $-1 $218 $219 $220 $221 reversed $86 $-1 #
face $-1 $-1 $222 $48 $-1 $223 forward single #
loop $-1 $224 $225 $88 #
cone-surface $-1 61.012751544167173 -3.1882768009522451 5.1245132251498102 -0.84804810408105047 0 -0.52991925155115449 0.13247981288778862 0 -0.21201202602026262 1 I I -0.70710678118654746 0.70710678118654746 0.25 forward I I I I #
loop $-1 $-1 $226 $62 #
coedge $-1 $142 $142 $227 $228 reversed $89 $-1 #
face $-1 $-1 $229 $49 $-1 $230 forward single #
loop $-1 $231 $232 $91 #
cone-surface $-1 61.012751544167173 -0.44395099067348198 5.1245132251498102 -0.84804810408105047 0 -0.52991925155115449 0.13247981288778862 0 -0.21201202602026262 1 I I -0.70710678118654746 0.70710678118654746 0.25 forward I I I I #
loop $-1 $-1 $233 $63 #
coedge $-1 $147 $147 $234 $235 reversed $92 $-1 #
face $-1 $236 $237 $50 $-1 $238 reversed single #
loop $-1 $-1 $239 $94 #
plane-surface $-1 -3.9135809103174495 9.5921197172630031 112.92227408508964 0.84804810408105047 0 0.52991925155115449 0.52991925155115449 0 -0.84804810408105047 forward_v I I I I #
coedge $-1 $240 $241 $242 $243 reversed $95 $-1 #
face $-1 $-1 $244 $51 $-1 $245 forward single #
loop $-1 $246 $247 $97 #
cone-surface $-1 61.012751544167173 8.2199568121236268 5.1245132251498102 -0.84804810408105047 0 -0.52991925155115449 0.13247981288778862 0 -0.21201202602026262 1 I I -0.70710678118654746 0.70710678118654746 0.25 forward I I I I #
loop $-1 $-1 $248 $65 #
coedge $-1 $156 $156 $249 $250 reversed $98 $-1 #
face $-1 $-1 $251 $52 $-1 $252 forward single #
loop $-1 $253 $254 $100 #
cone-surface $-1 61.012751544167173 10.964282622402386 5.1245132251498102 -0.84804810408105047 0 -0.52991925155115449 0.13247981288778862 0 -0.21201202602026262 1 I I -0.70710678118654746 0.70710678118654746 0.25 forward I I I I #
loop $-1 $-1 $255 $66 #
coedge $-1 $161 $161 $256 $257 reversed $101 $-1 #
face $-1 $258 $259 $53 $-1 $260 reversed single #
loop $-1 $-1 $261 $103 #
plane-surface $-1 -3.9135809103174495 21.000353330338868 112.92227408508964 0.84804810408105047 0 0.52991925155115449 0.52991925155115449 0 -0.84804810408105047 forward_v I I I I #
coedge $-1 $262 $263 $264 $265 reversed $104 $-1 #
face $-1 $-1 $266 $54 $-1 $267 forward single #
loop $-1 $268 $269 $106 #
cone-surface $-1 61.012751544167173 19.628190425199492 5.1245132251498102 -0.84804810408105047 0 -0.52991925155115449 0.13247981288778862 0 -0.21201202602026262 1 I I -0.70710678118654746 0.70710678118654746 0.25 forward I I I I #
loop $-1 $-1 $270 $68 #
coedge $-1 $170 $170 $271 $272 reversed $107 $-1 #
face $-1 $-1 $273 $55 $-1 $274 forward single #
loop $-1 $275 $276 $109 #
cone-surface $-1 61.012751544167173 22.372516235478258 5.1245132251498102 -0.84804810408105047 0 -0.52991925155115449 0.13247981288778862 0 -0.21201202602026262 1 I I -0.70710678118654746 0.70710678118654746 0.25 forward I I I I #
loop $-1 $-1 $277 $69 #
coedge $-1 $175 $175 $278 $279 reversed $110 $-1 #
face $-1 $280 $281 $42 $-1 $282 reversed single #
loop $-1 $-1 $283 $112 #
plane-surface $-1 0 -27.145972403978462 0 0 1 0 0 0 1 forward_v I I I I #
coedge $-1 $284 $285 $286 $287 forward $113 $-1 #
coedge $-1 $288 $115 $289 $290 forward $71 $-1 #
coedge $-1 $115 $288 $291 $292 forward $71 $-1 #
coedge $-1 $293 $294 $115 $183 reversed $295 $-1 #
edge $-1 $296 -27.145972403978462 $297 27.145972403978462 $182 $298 forward 7 unknown #
face $-1 $299 $300 $43 $-1 $301 reversed single #
loop $-1 $-1 $302 $116 #
plane-surface $-1 0 -31.475477581805187 0.73434770007955885 0 0 1 1 0 0 forward_v I I I I #
coedge $-1 $303 $304 $189 $305 forward $117 $-1 #
coedge $-1 $306 $119 $307 $308 reversed $74 $-1 #
coedge $-1 $119 $306 $187 $305 reversed $74 $-1 #
coedge $-1 $309 $302 $119 $191 reversed $185 $-1 #
edge $-1 $310 -65.402386547441026 $311 65.402386547441026 $190 $312 forward 7 unknown #
face $-1 $313 $314 $44 $-1 $315 reversed single #
loop $-1 $-1 $316 $120 #
plane-surface $-1 107.01515891754927 -16.426060954213956 182.23824154284813 0 1 0 0.84804810408105047 0 0.52991925155115449 forward_v I I I I #
coedge $-1 $317 $318 $319 $320 reversed $121 $-1 #
coedge $-1 $197 $123 $321 $322 reversed $77 $-1 #
coedge $-1 $123 $196 $317 $323 reversed $77 $-1 #
coedge $-1 $319 $324 $123 $199 forward $325 $-1 #
edge $-1 $326 -11.89480708866639 $327 -6.6153563193548521 $198 $328 forward 7 unknown #
loop $-1 $-1 $205 $124 #
plane-surface $-1 -3.9135809103174495 -13.224347508888732 112.92227408508964 0.84804810408105047 0 0.52991925155115449 0.52991925155115449 0 -0.84804810408105047 forward_v I I I I #
loop $-1 $-1 $329 $79 #
coedge $-1 $203 $203 $204 $330 reversed $125 $-1 #
coedge $-1 $204 $204 $203 $330 forward $127 $-1 #
coedge $-1 $205 $205 $128 $206 forward $200 $-1 #
edge $-1 $331 0 $331 6.2831853071796004 $205 $332 forward 7 unknown #
loop $-1 $-1 $212 $129 #
plane-surface $-1 -3.9135809103174495 -13.224347508888732 112.92227408508964 0.84804810408105047 0 0.52991925155115449 0.52991925155115449 0 -0.84804810408105047 forward_v I I I I #
loop $-1 $-1 $333 $82 #
coedge $-1 $210 $210 $211 $334 reversed $130 $-1 #
coedge $-1 $211 $211 $210 $334 forward $132 $-1 #
coedge $-1 $212 $212 $133 $213 forward $207 $-1 #
edge $-1 $335 0 $335 6.2831853071796004 $212 $336 forward 7 unknown #
face $-1 $337 $338 $47 $-1 $339 reversed single #
loop $-1 $-1 $340 $134 #
plane-surface $-1 107.01515891754927 -5.0178273411380854 182.23824154284813 0 1 0 0.84804810408105047 0 0.52991925155115449 forward_v I I I I #
coedge $-1 $341 $342 $343 $344 reversed $135 $-1 #
coedge $-1 $219 $137 $345 $346 reversed $86 $-1 #
coedge $-1 $137 $218 $341 $347 reversed $86 $-1 #
coedge $-1 $343 $348 $137 $221 forward $349 $-1 #
edge $-1 $350 -11.89480708866639 $351 -6.6153563193548521 $220 $352 forward 7 unknown #
loop $-1 $-1 $227 $138 #
plane-surface $-1 -3.9135809103174495 -1.8161138958128618 112.92227408508964 0.84804810408105047 0 0.52991925155115449 0.52991925155115449 0 -0.84804810408105047 forward_v I I I I #
loop $-1 $-1 $353 $88 #
coedge $-1 $225 $225 $226 $354 reversed $139 $-1 #
coedge $-1 $226 $226 $225 $354 forward $141 $-1 #
coedge $-1 $227 $227 $142 $228 forward $222 $-1 #
edge $-1 $355 0 $355 6.2831853071796004 $227 $356 forward 7 unknown #
loop $-1 $-1 $234 $143 #
plane-surface $-1 -3.9135809103174495 -1.8161138958128618 112.92227408508964 0.84804810408105047 0 0.52991925155115449 0.52991925155115449 0 -0.84804810408105047 forward_v I I I I #
loop $-1 $-1 $357 $91 #
coedge $-1 $232 $232 $233 $358 reversed $144 $-1 #
coedge $-1 $233 $233 $232 $358 forward $146 $-1 #
coedge $-1 $234 $234 $147 $235 forward $229 $-1 #
edge $-1 $359 0 $359 6.2831853071796004 $234 $360 forward 7 unknown #
face $-1 $361 $362 $50 $-1 $363 reversed single #
loop $-1 $-1 $364 $148 #
plane-surface $-1 107.01515891754927 6.3904062719377794 182.23824154284813 0 1 0 0.84804810408105047 0 0.52991925155115449 forward_v I I I I #
coedge $-1 $365 $366 $367 $368 reversed $149 $-1 #
coedge $-1 $241 $151 $369 $370 reversed $95 $-1 #
coedge $-1 $151 $240 $365 $371 reversed $95 $-1 #
coedge $-1 $367 $372 $151 $243 forward $373 $-1 #
edge $-1 $374 -11.89480708866639 $375 -6.6153563193548521 $242 $376 forward 7 unknown #
loop $-1 $-1 $249 $152 #
plane-surface $-1 -3.9135809103174495 9.5921197172630031 112.92227408508964 0.84804810408105047 0 0.52991925155115449 0.52991925155115449 0 -0.84804810408105047 forward_v I I I I #
loop $-1 $-1 $377 $97 #
coedge $-1 $247 $247 $248 $378 reversed $153 $-1 #
coedge $-1 $248 $248 $247 $378 forward $155 $-1 #
coedge $-1 $249 $249 $156 $250 forward $244 $-1 #
edge $-1 $379 0 $379 6.2831853071796004 $249 $380 forward 7 unknown #
loop $-1 $-1 $256 $157 #
plane-surface $-1 -3.9135809103174495 9.5921197172630031 112.92227408508964 0.84804810408105047 0 0.52991925155115449 0.52991925155115449 0 -0.84804810408105047 forward_v I I I I #
loop $-1 $-1 $381 $100 #
coedge $-1 $254 $254 $255 $382 reversed $158 $-1 #
coedge $-1 $255 $255 $254 $382 forward $160 $-1 #
coedge $-1 $256 $256 $161 $257 forward $251 $-1 #
edge $-1 $383 0 $383 6.2831853071796004 $256 $384 forward 7 unknown #
face $-1 $385 $386 $53 $-1 $387 reversed single #
loop $-1 $-1 $388 $162 #
plane-surface $-1 107.01515891754927 17.798639885013642 182.23824154284813 0 1 0 0.84804810408105047 0 0.52991925155115449 forward_v I I I I #
coedge $-1 $389 $390 $391 $392 reversed $163 $-1 #
coedge $-1 $263 $165 $393 $394 reversed $104 $-1 #
coedge $-1 $165 $262 $389 $395 reversed $104 $-1 #
coedge $-1 $391 $396 $165 $265 forward $397 $-1 #
edge $-1 $398 -11.89480708866639 $399 -6.6153563193548521 $264 $400 forward 7 unknown #
loop $-1 $-1 $271 $166 #
plane-surface $-1 -3.9135809103174495 21.000353330338868 112.92227408508964 0.84804810408105047 0 0.52991925155115449 0.52991925155115449 0 -0.84804810408105047 forward_v I I I I #
loop $-1 $-1 $401 $106 #
coedge $-1 $269 $269 $270 $402 reversed $167 $-1 #
coedge $-1 $270 $270 $269 $402 forward $169 $-1 #
coedge $-1 $271 $271 $170 $272 forward $266 $-1 #
edge $-1 $403 0 $403 6.2831853071796004 $271 $404 forward 7 unknown #
loop $-1 $-1 $278 $171 #
plane-surface $-1 -3.9135809103174495 21.000353330338868 112.92227408508964 0.84804810408105047 0 0.52991925155115449 0.52991925155115449 0 -0.84804810408105047 forward_v I I I I #
loop $-1 $-1 $405 $109 #
coedge $-1 $276 $276 $277 $406 reversed $172 $-1 #
coedge $-1 $277 $277 $276 $406 forward $174 $-1 #
coedge $-1 $278 $278 $175 $279 forward $273 $-1 #
edge $-1 $407 0 $407 6.2831853071796004 $278 $408 forward 7 unknown #
face $-1 $409 $410 $42 $-1 $411 reversed single #
loop $-1 $-1 $412 $176 #
plane-surface $-1 -65.402386547441026 0 0 1 0 0 0 0 -1 forward_v I I I I #
coedge $-1 $413 $291 $414 $415 forward $177 $-1 #
coedge $-1 $416 $179 $413 $417 forward $113 $-1 #
coedge $-1 $179 $416 $418 $419 forward $113 $-1 #
coedge $-1 $294 $293 $179 $287 reversed $295 $-1 #
edge $-1 $420 -27.145972403978462 $421 27.145972403978462 $286 $422 forward 7 unknown #
coedge $-1 $181 $180 $423 $424 forward $71 $-1 #
coedge $-1 $425 $426 $180 $290 reversed $410 $-1 #
edge $-1 $297 -65.402386547441026 $427 65.402386547441026 $289 $428 forward 7 unknown #
coedge $-1 $283 $429 $181 $292 reversed $177 $-1 #
edge $-1 $430 -65.402386547441026 $296 65.402386547441026 $291 $431 forward 7 unknown #
coedge $-1 $286 $182 $429 $432 forward $295 $-1 #
coedge $-1 $182 $286 $425 $433 reversed $295 $-1 #
loop $-1 $-1 $293 $409 #
vertex $-1 $183 $434 #
vertex $-1 $183 $435 #
straight-curve $-1 65.402386547441026 0 10.4424218988747 0 1 0 I I #
face $-1 $436 $437 $43 $-1 $438 reversed single #
loop $-1 $-1 $439 $184 #
plane-surface $-1 0 -31.475477581805187 -3.6084021157707036 0 0 1 1 0 0 forward_v I I I I #
coedge $-1 $190 $440 $441 $442 forward $185 $-1 #
coedge $-1 $443 $187 $444 $445 reversed $117 $-1 #
coedge $-1 $187 $443 $309 $446 reversed $117 $-1 #
edge $-1 $310 -0.73434770007955885 $447 3.6084021157707036 $187 $448 forward 7 unknown #
coedge $-1 $189 $188 $449 $450 forward $74 $-1 #
coedge $-1 $441 $451 $188 $308 forward $452 $-1 #
edge $-1 $453 -3.6084021157707036 $311 0.73434770007955885 $307 $454 forward 7 unknown #
coedge $-1 $440 $190 $304 $446 forward $185 $-1 #
vertex $-1 $305 $455 #
vertex $-1 $442 $456 #
straight-curve $-1 0 -27.145972403978462 0.73434770007955885 1 0 0 I I #
face $-1 $-1 $325 $44 $-1 $457 forward single #
loop $-1 $-1 $458 $192 #
plane-surface $-1 65.402386547441026 0 0 -1 0 0 0 0 1 forward_v I I I I #
coedge $-1 $459 $460 $461 $462 reversed $193 $-1 #
coedge $-1 $463 $195 $197 $323 forward $121 $-1 #
coedge $-1 $195 $463 $459 $464 forward $121 $-1 #
coedge $-1 $461 $198 $195 $320 forward $325 $-1 #
edge $-1 $327 3.4104603091191423 $465 9.8138871997695887 $319 $466 forward 7 unknown #
coedge $-1 $467 $468 $196 $322 forward $314 $-1 #
edge $-1 $469 -89.125586514201132 $326 -80.676698872549366 $321 $470 forward 7 unknown #
edge $-1 $327 120.8420273485107 $469 130.80477309488202 $197 $471 forward 7 unknown #
coedge $-1 $198 $461 $467 $472 forward $325 $-1 #
loop $-1 $-1 $461 $313 #
vertex $-1 $322 $473 #
vertex $-1 $199 $474 #
straight-curve $-1 53.507579458774636 -10.022634063563508 10.442421898874699 -1 0 0 I I #
coedge $-1 $329 $329 $-1 $475 reversed $202 $-1 #
edge $-1 $476 0 $476 6.2831853071796004 $203 $477 forward 7 unknown #
vertex $-1 $206 $478 #
ellipse-curve $-1 62.762661162785257 -14.596510414028113 6.2179780780488088 0.84804810408105047 0 0.52991925155115449 0.26495962577557725 0 -0.42402405204052523 1 I I #
coedge $-1 $333 $333 $-1 $479 reversed $209 $-1 #
edge $-1 $480 0 $480 6.2831853071796004 $210 $481 forward 7 unknown #
vertex $-1 $213 $482 #
ellipse-curve $-1 62.762661162785257 -11.85218460374935 6.2179780780488088 0.84804810408105047 0 0.52991925155115449 0.26495962577557725 0 -0.42402405204052523 1 I I #
face $-1 $-1 $349 $47 $-1 $483 forward single #
loop $-1 $-1 $484 $214 #
plane-surface $-1 65.402386547441026 0 0 -1 0 0 0 0 1 forward_v I I I I #
coedge $-1 $485 $486 $487 $488 reversed $215 $-1 #
coedge $-1 $489 $217 $219 $347 forward $135 $-1 #
coedge $-1 $217 $489 $485 $490 forward $135 $-1 #
coedge $-1 $487 $220 $217 $344 forward $349 $-1 #
edge $-1 $351 -2.2936564974187927 $491 4.1097703932316545 $343 $492 forward 7 unknown #
coedge $-1 $493 $494 $218 $346 forward $338 $-1 #
edge $-1 $495 -89.125586514201132 $350 -80.676698872549366 $345 $496 forward 7 unknown #
edge $-1 $351 120.8420273485107 $495 130.80477309488202 $219 $497 forward 7 unknown #
coedge $-1 $220 $487 $493 $498 forward $349 $-1 #
loop $-1 $-1 $487 $337 #
vertex $-1 $346 $499 #
vertex $-1 $221 $500 #
straight-curve $-1 53.507579458774636 1.3855995495123619 10.442421898874699 -1 0 0 I I #
coedge $-1 $353 $353 $-1 $501 reversed $224 $-1 #
edge $-1 $502 0 $502 6.2831853071796004 $225 $503 forward 7 unknown #
vertex $-1 $228 $504 #
ellipse-curve $-1 62.762661162785257 -3.1882768009522451 6.2179780780488088 0.84804810408105047 0 0.52991925155115449 0.26495962577557725 0 -0.42402405204052523 1 I I #
coedge $-1 $357 $357 $-1 $505 reversed $231 $-1 #
edge $-1 $506 0 $506 6.2831853071796004 $232 $507 forward 7 unknown #
vertex $-1 $235 $508 #
ellipse-curve $-1 62.762661162785257 -0.44395099067348198 6.2179780780488088 0.84804810408105047 0 0.52991925155115449 0.26495962577557725 0 -0.42402405204052523 1 I I #
face $-1 $-1 $373 $50 $-1 $509 forward single #
loop $-1 $-1 $510 $236 #
plane-surface $-1 65.402386547441026 0 0 -1 0 0 0 0 1 forward_v I I I I #
coedge $-1 $511 $512 $513 $514 reversed $237 $-1 #
coedge $-1 $515 $239 $241 $371 forward $149 $-1 #
coedge $-1 $239 $515 $511 $516 forward $149 $-1 #
coedge $-1 $513 $242 $239 $368 forward $373 $-1 #
edge $-1 $375 -7.9977733039567251 $517 -1.5943464133062779 $367 $518 forward 7 unknown #
coedge $-1 $519 $520 $240 $370 forward $362 $-1 #
edge $-1 $521 -89.125586514201132 $374 -80.676698872549366 $369 $522 forward 7 unknown #
edge $-1 $375 120.8420273485107 $521 130.80477309488202 $241 $523 forward 7 unknown #
coedge $-1 $242 $513 $519 $524 forward $373 $-1 #
loop $-1 $-1 $513 $361 #
vertex $-1 $370 $525 #
vertex $-1 $243 $526 #
straight-curve $-1 53.507579458774636 12.793833162588227 10.442421898874699 -1 0 0 I I #
coedge $-1 $377 $377 $-1 $527 reversed $246 $-1 #
edge $-1 $528 0 $528 6.2831853071796004 $247 $529 forward 7 unknown #
vertex $-1 $250 $530 #
ellipse-curve $-1 62.762661162785257 8.2199568121236268 6.2179780780488088 0.84804810408105047 0 0.52991925155115449 0.26495962577557725 0 -0.42402405204052523 1 I I #
coedge $-1 $381 $381 $-1 $531 reversed $253 $-1 #
edge $-1 $532 0 $532 6.2831853071796004 $254 $533 forward 7 unknown #
vertex $-1 $257 $534 #
ellipse-curve $-1 62.762661162785257 10.964282622402386 6.2179780780488088 0.84804810408105047 0 0.52991925155115449 0.26495962577557725 0 -0.42402405204052523 1 I I #
face $-1 $-1 $397 $53 $-1 $535 forward single #
loop $-1 $-1 $536 $258 #
plane-surface $-1 65.402386547441026 0 0 -1 0 0 0 0 1 forward_v I I I I #
coedge $-1 $537 $538 $539 $540 reversed $259 $-1 #
coedge $-1 $541 $261 $263 $395 forward $163 $-1 #
coedge $-1 $261 $541 $537 $542 forward $163 $-1 #
coedge $-1 $539 $264 $261 $392 forward $397 $-1 #
edge $-1 $399 -13.701890110494659 $543 -7.2984632198442085 $391 $544 forward 7 unknown #
coedge $-1 $545 $546 $262 $394 forward $386 $-1 #
edge $-1 $547 -89.125586514201132 $398 -80.676698872549366 $393 $548 forward 7 unknown #
edge $-1 $399 120.8420273485107 $547 130.80477309488202 $263 $549 forward 7 unknown #
coedge $-1 $264 $539 $545 $550 forward $397 $-1 #
loop $-1 $-1 $539 $385 #
vertex $-1 $394 $551 #
vertex $-1 $265 $552 #
straight-curve $-1 53.507579458774636 24.202066775664093 10.442421898874699 -1 0 0 I I #
coedge $-1 $401 $401 $-1 $553 reversed $268 $-1 #
edge $-1 $554 0 $554 6.2831853071796004 $269 $555 forward 7 unknown #
vertex $-1 $272 $556 #
ellipse-curve $-1 62.762661162785257 19.628190425199492 6.2179780780488088 0.84804810408105047 0 0.52991925155115449 0.26495962577557725 0 -0.42402405204052523 1 I I #
coedge $-1 $405 $405 $-1 $557 reversed $275 $-1 #
edge $-1 $558 0 $558 6.2831853071796004 $276 $559 forward 7 unknown #
vertex $-1 $279 $560 #
ellipse-curve $-1 62.762661162785257 22.372516235478258 6.2179780780488088 0.84804810408105047 0 0.52991925155115449 0.26495962577557725 0 -0.42402405204052523 1 I I #
face $-1 $-1 $295 $42 $-1 $561 reversed single #
loop $-1 $-1 $425 $280 #
plane-surface $-1 0 27.145972403978462 0 0 -1 0 0 0 -1 forward_v I I I I #
coedge $-1 $562 $423 $426 $563 forward $281 $-1 #
coedge $-1 $429 $283 $284 $417 reversed $177 $-1 #
coedge $-1 $423 $562 $283 $415 reversed $281 $-1 #
edge $-1 $430 -10.4424218988747 $564 10.4424218988747 $414 $565 forward 7 unknown #
coedge $-1 $285 $284 $562 $566 forward $113 $-1 #
edge $-1 $421 -65.402386547441026 $564 65.402386547441026 $413 $567 forward 7 unknown #
coedge $-1 $426 $425 $285 $419 reversed $410 $-1 #
edge $-1 $568 -65.402386547441026 $420 65.402386547441026 $418 $569 forward 7 unknown #
vertex $-1 $287 $570 #
vertex $-1 $432 $571 #
straight-curve $-1 65.402386547441026 0 -10.4424218988747 0 -1 0 I I #
coedge $-1 $412 $414 $288 $424 reversed $281 $-1 #
edge $-1 $427 -27.145972403978462 $430 27.145972403978462 $423 $572 forward 7 unknown #
coedge $-1 $418 $289 $294 $433 forward $410 $-1 #
coedge $-1 $289 $418 $412 $563 reversed $410 $-1 #
vertex $-1 $290 $573 #
straight-curve $-1 0 27.145972403978462 10.4424218988747 -1 0 0 I I #
coedge $-1 $291 $413 $293 $432 reversed $177 $-1 #
vertex $-1 $424 $574 #
straight-curve $-1 0 -27.145972403978462 10.4424218988747 1 0 0 I I #
edge $-1 $296 -10.4424218988747 $421 10.4424218988747 $293 $575 forward 7 unknown #
edge $-1 $297 -10.4424218988747 $420 10.4424218988747 $294 $576 forward 7 unknown #
point $-1 65.402386547441026 -27.145972403978462 10.4424218988747 #
point $-1 65.402386547441026 27.145972403978462 10.4424218988747 #
face $-1 $-1 $452 $43 $-1 $577 reversed single #
loop $-1 $-1 $578 $299 #
plane-surface $-1 0 -35.804982759631912 -1.4370272078455724 0 1 0 0 0 1 forward_v I I I I #
coedge $-1 $579 $449 $451 $580 forward $300 $-1 #
coedge $-1 $302 $309 $581 $582 forward $185 $-1 #
coedge $-1 $583 $307 $302 $442 reversed $452 $-1 #
edge $-1 $584 -4.3295051778267251 $311 4.3295051778267251 $441 $585 forward 7 unknown #
coedge $-1 $304 $303 $578 $586 reversed $117 $-1 #
coedge $-1 $449 $579 $303 $445 forward $300 $-1 #
edge $-1 $587 -4.3295051778267251 $447 4.3295051778267251 $303 $588 forward 7 unknown #
edge $-1 $310 -4.3295051778267251 $589 4.3295051778267251 $304 $590 forward 7 unknown #
vertex $-1 $305 $591 #
straight-curve $-1 -65.402386547441026 -27.145972403978462 0 0 0 -1 I I #
coedge $-1 $439 $444 $306 $450 reversed $300 $-1 #
edge $-1 $453 -65.402386547441026 $447 65.402386547441026 $449 $592 forward 7 unknown #
coedge $-1 $307 $583 $439 $580 reversed $452 $-1 #
loop $-1 $-1 $307 $436 #
vertex $-1 $308 $593 #
straight-curve $-1 65.402386547441026 -27.145972403978462 0 0 0 1 I I #
point $-1 -65.402386547441026 -27.145972403978462 0.73434770007955885 #
point $-1 65.402386547441026 -27.145972403978462 0.73434770007955885 #
plane-surface $-1 0 0 10.4424218988747 0 0 1 1 0 0 forward_v I I I I #
coedge $-1 $468 $467 $460 $594 forward $314 $-1 #
coedge $-1 $460 $316 $318 $464 reversed $193 $-1 #
coedge $-1 $316 $459 $458 $594 reversed $193 $-1 #
coedge $-1 $324 $319 $316 $462 forward $325 $-1 #
edge $-1 $465 6.6153563193548521 $595 11.89480708866639 $461 $596 forward 7 unknown #
coedge $-1 $318 $317 $468 $597 reversed $121 $-1 #
edge $-1 $598 -130.80477309488202 $465 -120.8420273485107 $459 $599 forward 7 unknown #
vertex $-1 $320 $600 #
straight-curve $-1 60.122935778129481 -6.6121737544443659 10.442421898874699 0 -1 0 I I #
coedge $-1 $458 $321 $324 $472 reversed $314 $-1 #
coedge $-1 $321 $458 $463 $597 forward $314 $-1 #
vertex $-1 $322 $601 #
straight-curve $-1 65.402386547441026 -10.022634063563508 91.119120771424065 0 0 1 I I #
straight-curve $-1 -3.9135809103174495 -10.022634063563508 112.92227408508964 0.52991925155115449 0 -0.84804810408105047 I I #
edge $-1 $595 -16.426060954213956 $326 -10.022634063563508 $467 $602 forward 7 unknown #
point $-1 65.402386547441026 -10.022634063563508 10.4424218988747 #
point $-1 60.122935778129488 -10.022634063563508 10.442421898874699 #
edge $-1 $603 1 $603 0 $329 $-1 forward 7 unknown #
vertex $-1 $330 $604 #
ellipse-curve $-1 61.224763570187434 -14.596510414028113 5.2569930380375984 0.84804810408105047 0 0.52991925155115449 0.26495962577557725 0 -0.42402405204052523 1 I I #
point $-1 63.02762078856081 -14.596510414028113 5.7939540260082714 #
edge $-1 $605 1 $605 0 $333 $-1 forward 7 unknown #
vertex $-1 $334 $606 #
ellipse-curve $-1 61.224763570187434 -11.85218460374935 5.2569930380375984 0.84804810408105047 0 0.52991925155115449 0.26495962577557725 0 -0.42402405204052523 1 I I #
point $-1 63.02762078856081 -11.85218460374935 5.7939540260082714 #
plane-surface $-1 0 0 10.4424218988747 0 0 1 1 0 0 forward_v I I I I #
coedge $-1 $494 $493 $486 $607 forward $338 $-1 #
coedge $-1 $486 $340 $342 $490 reversed $215 $-1 #
coedge $-1 $340 $485 $484 $607 reversed $215 $-1 #
coedge $-1 $348 $343 $340 $488 forward $349 $-1 #
edge $-1 $491 6.6153563193548521 $608 11.89480708866639 $487 $609 forward 7 unknown #
coedge $-1 $342 $341 $494 $610 reversed $135 $-1 #
edge $-1 $611 -130.80477309488202 $491 -120.8420273485107 $485 $612 forward 7 unknown #
vertex $-1 $344 $613 #
straight-curve $-1 60.122935778129481 -0.90805694790643088 10.442421898874699 0 -1 0 I I #
coedge $-1 $484 $345 $348 $498 reversed $338 $-1 #
coedge $-1 $345 $484 $489 $610 forward $338 $-1 #
vertex $-1 $346 $614 #
straight-curve $-1 65.402386547441026 1.3855995495123619 91.119120771424065 0 0 1 I I #
straight-curve $-1 -3.9135809103174495 1.3855995495123619 112.92227408508964 0.52991925155115449 0 -0.84804810408105047 I I #
edge $-1 $608 -5.0178273411380854 $350 1.3855995495123619 $493 $615 forward 7 unknown #
point $-1 65.402386547441026 1.3855995495123619 10.4424218988747 #
point $-1 60.122935778129488 1.3855995495123619 10.442421898874699 #
edge $-1 $616 1 $616 0 $353 $-1 forward 7 unknown #
vertex $-1 $354 $617 #
ellipse-curve $-1 61.224763570187434 -3.1882768009522451 5.2569930380375984 0.84804810408105047 0 0.52991925155115449 0.26495962577557725 0 -0.42402405204052523 1 I I #
point $-1 63.02762078856081 -3.1882768009522451 5.7939540260082714 #
edge $-1 $618 1 $618 0 $357 $-1 forward 7 unknown #
vertex $-1 $358 $619 #
ellipse-curve $-1 61.224763570187434 -0.44395099067348198 5.2569930380375984 0.84804810408105047 0 0.52991925155115449 0.26495962577557725 0 -0.42402405204052523 1 I I #
point $-1 63.02762078856081 -0.44395099067348198 5.7939540260082714 #
plane-surface $-1 0 0 10.4424218988747 0 0 1 1 0 0 forward_v I I I I #
coedge $-1 $520 $519 $512 $620 forward $362 $-1 #
coedge $-1 $512 $364 $366 $516 reversed $237 $-1 #
coedge $-1 $364 $511 $510 $620 reversed $237 $-1 #
coedge $-1 $372 $367 $364 $514 forward $373 $-1 #
edge $-1 $517 6.6153563193548521 $621 11.89480708866639 $513 $622 forward 7 unknown #
coedge $-1 $366 $365 $520 $623 reversed $149 $-1 #
edge $-1 $624 -130.80477309488202 $517 -120.8420273485107 $511 $625 forward 7 unknown #
vertex $-1 $368 $626 #
straight-curve $-1 60.122935778129481 4.7960598586315015 10.442421898874699 0 -1 0 I I #
coedge $-1 $510 $369 $372 $524 reversed $362 $-1 #
coedge $-1 $369 $510 $515 $623 forward $362 $-1 #
vertex $-1 $370 $627 #
straight-curve $-1 65.402386547441026 12.793833162588227 91.119120771424065 0 0 1 I I #
straight-curve $-1 -3.9135809103174495 12.793833162588227 112.92227408508964 0.52991925155115449 0 -0.84804810408105047 I I #
edge $-1 $621 6.3904062719377794 $374 12.793833162588227 $519 $628 forward 7 unknown #
point $-1 65.402386547441026 12.793833162588227 10.4424218988747 #
point $-1 60.122935778129488 12.793833162588227 10.442421898874699 #
edge $-1 $629 1 $629 0 $377 $-1 forward 7 unknown #
vertex $-1 $378 $630 #
ellipse-curve $-1 61.224763570187434 8.2199568121236268 5.2569930380375984 0.84804810408105047 0 0.52991925155115449 0.26495962577557725 0 -0.42402405204052523 1 I I #
point $-1 63.02762078856081 8.2199568121236268 5.7939540260082714 #
edge $-1 $631 1 $631 0 $381 $-1 forward 7 unknown #
vertex $-1 $382 $632 #
ellipse-curve $-1 61.224763570187434 10.964282622402386 5.2569930380375984 0.84804810408105047 0 0.52991925155115449 0.26495962577557725 0 -0.42402405204052523 1 I I #
point $-1 63.02762078856081 10.964282622402386 5.7939540260082714 #
plane-surface $-1 0 0 10.4424218988747 0 0 1 1 0 0 forward_v I I I I #
coedge $-1 $546 $545 $538 $633 forward $386 $-1 #
coedge $-1 $538 $388 $390 $542 reversed $259 $-1 #
coedge $-1 $388 $537 $536 $633 reversed $259 $-1 #
coedge $-1 $396 $391 $388 $540 forward $397 $-1 #
edge $-1 $543 6.6153563193548521 $634 11.89480708866639 $539 $635 forward 7 unknown #
coedge $-1 $390 $389 $546 $636 reversed $163 $-1 #
edge $-1 $637 -130.80477309488202 $543 -120.8420273485107 $537 $638 forward 7 unknown #
vertex $-1 $392 $639 #
straight-curve $-1 60.122935778129481 10.500176665169434 10.442421898874699 0 -1 0 I I #
coedge $-1 $536 $393 $396 $550 reversed $386 $-1 #
coedge $-1 $393 $536 $541 $636 forward $386 $-1 #
vertex $-1 $394 $640 #
straight-curve $-1 65.402386547441026 24.202066775664093 91.119120771424065 0 0 1 I I #
straight-curve $-1 -3.9135809103174495 24.202066775664093 112.92227408508964 0.52991925155115449 0 -0.84804810408105047 I I #
edge $-1 $634 17.798639885013642 $398 24.202066775664093 $545 $641 forward 7 unknown #
point $-1 65.402386547441026 24.202066775664093 10.4424218988747 #
point $-1 60.122935778129488 24.202066775664093 10.442421898874699 #
edge $-1 $642 1 $642 0 $401 $-1 forward 7 unknown #
vertex $-1 $402 $643 #
ellipse-curve $-1 61.224763570187434 19.628190425199492 5.2569930380375984 0.84804810408105047 0 0.52991925155115449 0.26495962577557725 0 -0.42402405204052523 1 I I #
point $-1 63.02762078856081 19.628190425199492 5.7939540260082714 #
edge $-1 $644 1 $644 0 $405 $-1 forward 7 unknown #
vertex $-1 $406 $645 #
ellipse-curve $-1 61.224763570187434 22.372516235478258 5.2569930380375984 0.84804810408105047 0 0.52991925155115449 0.26495962577557725 0 -0.42402405204052523 1 I I #
point $-1 63.02762078856081 22.372516235478258 5.7939540260082714 #
plane-surface $-1 65.402386547441026 0 0 -1 0 0 0 0 1 forward_v I I I I #
coedge $-1 $414 $412 $416 $566 reversed $281 $-1 #
edge $-1 $427 -10.4424218988747 $568 10.4424218988747 $426 $646 forward 7 unknown #
vertex $-1 $566 $647 #
straight-curve $-1 -65.402386547441026 -27.145972403978462 0 0 0 -1 I I #
edge $-1 $564 -27.145972403978462 $568 27.145972403978462 $562 $648 forward 7 unknown #
straight-curve $-1 0 -27.145972403978462 -10.4424218988747 -1 0 0 I I #
vertex $-1 $419 $649 #
straight-curve $-1 0 27.145972403978462 -10.4424218988747 1 0 0 I I #
point $-1 65.402386547441026 27.145972403978462 -10.4424218988747 #
point $-1 65.402386547441026 -27.145972403978462 -10.4424218988747 #
straight-curve $-1 -65.402386547441026 0 10.4424218988747 0 -1 0 I I #
point $-1 -65.402386547441026 27.145972403978462 10.4424218988747 #
point $-1 -65.402386547441026 -27.145972403978462 10.4424218988747 #
straight-curve $-1 65.402386547441026 -27.145972403978462 0 0 0 -1 I I #
straight-curve $-1 65.402386547441026 27.145972403978462 0 0 0 -1 I I #
plane-surface $-1 65.402386547441026 0 0 -1 0 0 0 0 1 forward_v I I I I #
coedge $-1 $650 $581 $443 $586 forward $437 $-1 #
coedge $-1 $444 $439 $650 $651 forward $300 $-1 #
edge $-1 $453 -4.3295051778267251 $652 4.3295051778267251 $451 $653 forward 7 unknown #
coedge $-1 $578 $654 $440 $582 reversed $437 $-1 #
edge $-1 $589 -65.402386547441026 $584 65.402386547441026 $581 $655 forward 7 unknown #
coedge $-1 $451 $441 $654 $656 forward $452 $-1 #
vertex $-1 $442 $657 #
straight-curve $-1 65.402386547441026 -31.475477581805187 0.73434770007955885 0 1 0 I I #
edge $-1 $589 -2.1713749079251312 $587 2.1713749079251312 $443 $658 forward 7 unknown #
vertex $-1 $445 $659 #
straight-curve $-1 -65.402386547441026 -31.475477581805187 -3.6084021157707036 0 1 0 I I #
vertex $-1 $446 $660 #
straight-curve $-1 -65.402386547441026 -31.475477581805187 0.73434770007955885 0 -1 0 I I #
point $-1 -65.402386547441026 -27.145972403978462 -3.6084021157707036 #
straight-curve $-1 0 -27.145972403978462 -3.6084021157707036 -1 0 0 I I #
point $-1 65.402386547441026 -27.145972403978462 -3.6084021157707036 #
edge $-1 $595 80.676698872549366 $598 89.125586514201132 $458 $661 forward 7 unknown #
vertex $-1 $472 $662 #
straight-curve $-1 53.507579458774636 -16.426060954213956 10.442421898874699 1 0 0 I I #
edge $-1 $598 -9.8138871997695887 $469 -3.4104603091191423 $468 $663 forward 7 unknown #
vertex $-1 $597 $664 #
straight-curve $-1 -3.9135809103174495 -16.426060954213956 112.92227408508964 -0.52991925155115449 0 0.84804810408105047 I I #
point $-1 60.122935778129488 -16.426060954213956 10.442421898874699 #
point $-1 65.402386547441026 -10.022634063563508 1.9935342572229331 #
straight-curve $-1 65.402386547441026 0 10.4424218988747 0 1 0 I I #
vertex $-1 $475 $665 #
point $-1 61.489723195963016 -14.596510414028113 4.8329689859970735 #
vertex $-1 $479 $666 #
point $-1 61.489723195963016 -11.85218460374935 4.8329689859970735 #
edge $-1 $608 80.676698872549366 $611 89.125586514201132 $484 $667 forward 7 unknown #
vertex $-1 $498 $668 #
straight-curve $-1 53.507579458774636 -5.0178273411380854 10.442421898874699 1 0 0 I I #
edge $-1 $611 -4.1097703932316545 $495 2.2936564974187927 $494 $669 forward 7 unknown #
vertex $-1 $610 $670 #
straight-curve $-1 -3.9135809103174495 -5.0178273411380854 112.92227408508964 -0.52991925155115449 0 0.84804810408105047 I I #
point $-1 60.122935778129488 -5.0178273411380854 10.442421898874699 #
point $-1 65.402386547441026 1.3855995495123619 1.9935342572229331 #
straight-curve $-1 65.402386547441026 0 10.4424218988747 0 1 0 I I #
vertex $-1 $501 $671 #
point $-1 61.489723195963016 -3.1882768009522451 4.8329689859970735 #
vertex $-1 $505 $672 #
point $-1 61.489723195963016 -0.44395099067348198 4.8329689859970735 #
edge $-1 $621 80.676698872549366 $624 89.125586514201132 $510 $673 forward 7 unknown #
vertex $-1 $524 $674 #
straight-curve $-1 53.507579458774636 6.3904062719377794 10.442421898874699 1 0 0 I I #
edge $-1 $624 1.5943464133062779 $521 7.9977733039567251 $520 $675 forward 7 unknown #
vertex $-1 $623 $676 #
straight-curve $-1 -3.9135809103174495 6.3904062719377794 112.92227408508964 -0.52991925155115449 0 0.84804810408105047 I I #
point $-1 60.122935778129488 6.3904062719377794 10.442421898874699 #
point $-1 65.402386547441026 12.793833162588227 1.9935342572229331 #
straight-curve $-1 65.402386547441026 0 10.4424218988747 0 1 0 I I #
vertex $-1 $527 $677 #
point $-1 61.489723195963016 8.2199568121236268 4.8329689859970735 #
vertex $-1 $531 $678 #
point $-1 61.489723195963016 10.964282622402386 4.8329689859970735 #
edge $-1 $634 80.676698872549366 $637 89.125586514201132 $536 $679 forward 7 unknown #
vertex $-1 $550 $680 #
straight-curve $-1 53.507579458774636 17.798639885013642 10.442421898874699 1 0 0 I I #
edge $-1 $637 7.2984632198442085 $547 13.701890110494659 $546 $681 forward 7 unknown #
vertex $-1 $636 $682 #
straight-curve $-1 -3.9135809103174495 17.798639885013642 112.92227408508964 -0.52991925155115449 0 0.84804810408105047 I I #
point $-1 60.122935778129488 17.798639885013642 10.442421898874699 #
point $-1 65.402386547441026 24.202066775664093 1.9935342572229331 #
straight-curve $-1 65.402386547441026 0 10.4424218988747 0 1 0 I I #
vertex $-1 $553 $683 #
point $-1 61.489723195963016 19.628190425199492 4.8329689859970735 #
vertex $-1 $557 $684 #
point $-1 61.489723195963016 22.372516235478258 4.8329689859970735 #
straight-curve $-1 -65.402386547441026 27.145972403978462 0 0 0 -1 I I #
point $-1 -65.402386547441026 -27.145972403978462 -10.4424218988747 #
straight-curve $-1 -65.402386547441026 0 -10.4424218988747 0 1 0 I I #
point $-1 -65.402386547441026 27.145972403978462 -10.4424218988747 #
coedge $-1 $654 $578 $579 $651 reversed $437 $-1 #
edge $-1 $652 -65.402386547441026 $587 65.402386547441026 $650 $685 forward 7 unknown #
vertex $-1 $656 $686 #
straight-curve $-1 65.402386547441026 -31.475477581805187 -3.6084021157707036 0 -1 0 I I #
coedge $-1 $581 $650 $583 $656 reversed $437 $-1 #
straight-curve $-1 0 -35.804982759631912 0.73434770007955885 1 0 0 I I #
edge $-1 $584 -2.1713749079251312 $652 2.1713749079251312 $583 $687 forward 7 unknown #
point $-1 65.402386547441026 -35.804982759631912 0.73434770007955885 #
straight-curve $-1 -65.402386547441026 -35.804982759631912 -1.4370272078455724 0 0 -1 I I #
point $-1 -65.402386547441026 -35.804982759631912 -3.6084021157707036 #
point $-1 -65.402386547441026 -35.804982759631912 0.73434770007955885 #
straight-curve $-1 65.402386547441026 -16.426060954213956 91.119120771424065 0 0 -1 I I #
point $-1 65.402386547441026 -16.426060954213956 10.4424218988747 #
straight-curve $-1 65.402386547441012 -6.6121737544443659 1.9935342572229402 0 1 0 I I #
point $-1 65.402386547441026 -16.426060954213956 1.9935342572229331 #
point $-1 60.800739518146912 -14.596510414028113 4.992033412262022 #
point $-1 60.800739518146912 -11.85218460374935 4.992033412262022 #
straight-curve $-1 65.402386547441026 -5.0178273411380854 91.119120771424065 0 0 -1 I I #
point $-1 65.402386547441026 -5.0178273411380854 10.4424218988747 #
straight-curve $-1 65.402386547441012 -0.90805694790643088 1.9935342572229402 0 1 0 I I #
point $-1 65.402386547441026 -5.0178273411380854 1.9935342572229331 #
point $-1 60.800739518146912 -3.1882768009522451 4.992033412262022 #
point $-1 60.800739518146912 -0.44395099067348198 4.992033412262022 #
straight-curve $-1 65.402386547441026 6.3904062719377794 91.119120771424065 0 0 -1 I I #
point $-1 65.402386547441026 6.3904062719377794 10.4424218988747 #
straight-curve $-1 65.402386547441012 4.7960598586315015 1.9935342572229402 0 1 0 I I #
point $-1 65.402386547441026 6.3904062719377794 1.9935342572229331 #
point $-1 60.800739518146912 8.2199568121236268 4.992033412262022 #
point $-1 60.800739518146912 10.964282622402386 4.992033412262022 #
straight-curve $-1 65.402386547441026 17.798639885013642 91.119120771424065 0 0 -1 I I #
point $-1 65.402386547441026 17.798639885013642 10.4424218988747 #
straight-curve $-1 65.402386547441012 10.500176665169434 1.9935342572229402 0 1 0 I I #
point $-1 65.402386547441026 17.798639885013642 1.9935342572229331 #
point $-1 60.800739518146912 19.628190425199492 4.992033412262022 #
point $-1 60.800739518146912 22.372516235478258 4.992033412262022 #
straight-curve $-1 0 -35.804982759631912 -3.6084021157707036 -1 0 0 I I #
point $-1 65.402386547441026 -35.804982759631912 -3.6084021157707036 #
straight-curve $-1 65.402386547441026 -35.804982759631912 -1.4370272078455724 0 0 -1 I I #
End-of-ACIS-data 