500 0 8 0           
7 Unknown 11 ACIS 5.0 NT 24 Thu Mar 25 21:27:40 1999 
-1 9.9999999999999995e-007 1e-010 
body $-1 $8 $-1 $9 #
body $-1 $10 $-1 $11 #
body $-1 $12 $-1 $13 #
body $-1 $14 $-1 $15 #
body $-1 $16 $-1 $17 #
body $-1 $18 $-1 $19 #
body $-1 $20 $-1 $21 #
body $-1 $22 $-1 $23 #
lump $-1 $-1 $24 $0 #
transform $-1 1 0 0 0 1 0 0 0 1 68.894924771874145 43.813572554362331 9.1285518914954569 1 rotate no_reflect no_shear #
lump $-1 $-1 $25 $1 #
transform $-1 1 0 0 0 1 0 0 0 1 68.894924771874145 43.813572554362331 9.1285518914954569 1 rotate no_reflect no_shear #
lump $-1 $-1 $26 $2 #
transform $-1 1 0 0 0 1 0 0 0 1 68.894924771874145 43.813572554362331 9.1285518914954569 1 rotate no_reflect no_shear #
lump $-1 $-1 $27 $3 #
transform $-1 1 0 0 0 1 0 0 0 1 68.894924771874145 43.813572554362331 9.1285518914954569 1 rotate no_reflect no_shear #
lump $-1 $-1 $28 $4 #
transform $-1 1 0 0 0 1 0 0 0 1 68.894924771874145 43.813572554362331 9.1285518914954569 1 rotate no_reflect no_shear #
lump $-1 $-1 $29 $5 #
transform $-1 1 0 0 0 1 0 0 0 1 68.894924771874145 43.813572554362331 9.1285518914954569 1 rotate no_reflect no_shear #
lump $-1 $-1 $30 $6 #
transform $-1 1 0 0 0 1 0 0 0 1 68.894924771874145 43.813572554362331 9.1285518914954569 1 rotate no_reflect no_shear #
lump $-1 $-1 $31 $7 #
transform $-1 1 0 0 0 1 0 0 0 1 68.894924771874145 43.813572554362331 9.1285518914954569 1 rotate no_reflect no_shear #
shell $-1 $-1 $-1 $32 $-1 $8 #
shell $-1 $-1 $-1 $33 $-1 $10 #
shell $-1 $-1 $-1 $34 $-1 $12 #
shell $-1 $-1 $-1 $35 $-1 $14 #
shell $-1 $-1 $-1 $36 $-1 $16 #
shell $-1 $-1 $-1 $37 $-1 $18 #
shell $-1 $-1 $-1 $38 $-1 $20 #
shell $-1 $-1 $-1 $39 $-1 $22 #
face $-1 $40 $41 $24 $-1 $42 forward single #
face $-1 $43 $44 $25 $-1 $45 forward single #
face $-1 $46 $47 $26 $-1 $48 reversed single #
face $-1 $49 $50 $27 $-1 $51 forward single #
face $-1 $52 $53 $28 $-1 $54 forward single #
face $-1 $55 $56 $29 $-1 $57 reversed single #
face $-1 $58 $59 $30 $-1 $60 forward single #
face $-1 $61 $62 $31 $-1 $63 forward single #
face $-1 $64 $65 $24 $-1 $66 reversed single #
loop $-1 $-1 $67 $32 #
plane-surface $-1 0 0 9.1285518914954569 0 0 1 1 0 0 forward_v I I I I #
face $-1 $68 $69 $25 $-1 $70 reversed single #
loop $-1 $-1 $71 $33 #
plane-surface $-1 0 -43.813572554362331 0 0 1 0 0 0 1 forward_v I I I I #
face $-1 $72 $73 $26 $-1 $74 reversed single #
loop $-1 $-1 $75 $34 #
plane-surface $-1 62.094261843721256 23.840588254965986 200.79668771100168 0 1 0 0.68199836817093118 0 0.7313536940579346 forward_v I I I I #
face $-1 $76 $77 $27 $-1 $78 forward single #
loop $-1 $79 $80 $35 #
cone-surface $-1 66.903854631994861 29.54715519765066 7.2241589507887145 -0.68199836817093118 0 -0.7313536940579346 0.3656768470289673 0 -0.34099918408546559 1 I I 0 1 0.5 forward I I I I #
face $-1 $81 $82 $28 $-1 $83 forward single #
loop $-1 $84 $85 $36 #
cone-surface $-1 66.903854631994861 38.107005611677657 7.2241589507887145 -0.68199836817093118 0 -0.7313536940579346 0.3656768470289673 0 -0.34099918408546559 1 I I 0 1 0.5 forward I I I I #
face $-1 $86 $87 $29 $-1 $88 reversed single #
loop $-1 $-1 $89 $37 #
plane-surface $-1 -162.86737731122858 23.840588254965986 106.8242351716472 0 1 0 -0.68199836817093118 0 0.7313536940579346 forward_v I I I I #
face $-1 $90 $91 $30 $-1 $92 forward single #
loop $-1 $93 $94 $38 #
cone-surface $-1 -66.903854631994861 29.54715519765066 7.2241589507887163 0.68199836817093118 0 -0.7313536940579346 0.3656768470289673 0 0.34099918408546559 1 I I 0 1 0.5 forward I I I I #
face $-1 $95 $96 $31 $-1 $97 forward single #
loop $-1 $98 $99 $39 #
cone-surface $-1 -66.903854631994861 38.107005611677657 7.2241589507887163 0.68199836817093118 0 -0.7313536940579346 0.3656768470289673 0 0.34099918408546559 1 I I 0 1 0.5 forward I I I I #
face $-1 $100 $101 $24 $-1 $102 reversed single #
loop $-1 $-1 $103 $40 #
plane-surface $-1 0 0 -9.1285518914954569 0 0 1 1 0 0 forward_v I I I I #
coedge $-1 $104 $105 $106 $107 forward $41 $-1 #
face $-1 $108 $109 $25 $-1 $110 reversed single #
loop $-1 $-1 $111 $43 #
plane-surface $-1 0 0 -9.1285518914954569 0 0 1 1 0 0 forward_v I I I I #
coedge $-1 $112 $113 $114 $115 forward $44 $-1 #
face $-1 $116 $117 $26 $-1 $118 reversed single #
loop $-1 $-1 $119 $46 #
plane-surface $-1 -31.878190695633208 33.827080404664152 100.02357224349436 0.68199836817093118 0 0.7313536940579346 0.7313536940579346 0 -0.68199836817093118 forward_v I I I I #
coedge $-1 $120 $121 $122 $123 reversed $47 $-1 #
face $-1 $-1 $124 $27 $-1 $125 forward single #
loop $-1 $126 $127 $49 #
cone-surface $-1 66.392355855866668 29.54715519765066 6.6756436802452637 -0.68199836817093118 0 -0.7313536940579346 0.18283842351448365 0 -0.17049959204273279 1 I I -0.70710678118654746 0.70710678118654746 0.25 forward I I I I #
loop $-1 $-1 $128 $35 #
coedge $-1 $80 $80 $129 $130 reversed $50 $-1 #
face $-1 $-1 $131 $28 $-1 $132 forward single #
loop $-1 $133 $134 $52 #
cone-surface $-1 66.392355855866668 38.107005611677657 6.6756436802452637 -0.68199836817093118 0 -0.7313536940579346 0.18283842351448365 0 -0.17049959204273279 1 I I -0.70710678118654746 0.70710678118654746 0.25 forward I I I I #
loop $-1 $-1 $135 $36 #
coedge $-1 $85 $85 $136 $137 reversed $53 $-1 #
face $-1 $138 $139 $29 $-1 $140 reversed single #
loop $-1 $-1 $141 $55 #
plane-surface $-1 -68.894924771874116 33.827080404664152 6.0511197041398788 -0.68199836817093118 0 0.7313536940579346 0.7313536940579346 0 0.68199836817093118 forward_v I I I I #
coedge $-1 $142 $143 $144 $145 reversed $56 $-1 #
face $-1 $-1 $146 $30 $-1 $147 forward single #
loop $-1 $148 $149 $58 #
cone-surface $-1 -66.392355855866668 29.54715519765066 6.6756436802452654 0.68199836817093118 0 -0.7313536940579346 0.18283842351448365 0 0.17049959204273279 1 I I -0.70710678118654746 0.70710678118654746 0.25 forward I I I I #
loop $-1 $-1 $150 $38 #
coedge $-1 $94 $94 $151 $152 reversed $59 $-1 #
face $-1 $-1 $153 $31 $-1 $154 forward single #
loop $-1 $155 $156 $61 #
cone-surface $-1 -66.392355855866668 38.107005611677657 6.6756436802452654 0.68199836817093118 0 -0.7313536940579346 0.18283842351448365 0 0.17049959204273279 1 I I -0.70710678118654746 0.70710678118654746 0.25 forward I I I I #
loop $-1 $-1 $157 $39 #
coedge $-1 $99 $99 $158 $159 reversed $62 $-1 #
face $-1 $160 $161 $24 $-1 $162 reversed single #
loop $-1 $-1 $163 $64 #
plane-surface $-1 0 -43.813572554362331 0 0 1 0 0 0 1 forward_v I I I I #
coedge $-1 $164 $165 $166 $167 forward $65 $-1 #
coedge $-1 $168 $67 $169 $170 forward $41 $-1 #
coedge $-1 $67 $168 $171 $172 forward $41 $-1 #
coedge $-1 $173 $174 $67 $107 reversed $175 $-1 #
edge $-1 $176 -43.813572554362331 $177 43.813572554362331 $106 $178 forward 7 unknown #
face $-1 $179 $180 $25 $-1 $181 reversed single #
loop $-1 $-1 $182 $68 #
plane-surface $-1 -65.92568407367493 -53.732032385617565 0 0 1 0 0 0 1 forward_v I I I I #
coedge $-1 $183 $184 $113 $185 forward $69 $-1 #
coedge $-1 $186 $71 $187 $188 reversed $44 $-1 #
coedge $-1 $71 $186 $111 $185 reversed $44 $-1 #
coedge $-1 $189 $190 $71 $115 reversed $180 $-1 #
edge $-1 $191 -9.1285518914954569 $192 9.1285518914954569 $114 $193 forward 7 unknown #
face $-1 $194 $195 $26 $-1 $196 forward single #
loop $-1 $-1 $197 $72 #
plane-surface $-1 0 43.813572554362331 0 0 -1 0 0 0 -1 forward_v I I I I #
coedge $-1 $198 $199 $200 $201 reversed $73 $-1 #
coedge $-1 $121 $75 $202 $203 reversed $47 $-1 #
coedge $-1 $75 $120 $198 $204 reversed $47 $-1 #
coedge $-1 $200 $205 $75 $123 forward $206 $-1 #
edge $-1 $207 91.269791964005378 $208 94.347224151360962 $122 $209 forward 7 unknown #
loop $-1 $-1 $129 $76 #
plane-surface $-1 -31.878190695633208 33.827080404664152 100.02357224349436 0.68199836817093118 0 0.7313536940579346 0.7313536940579346 0 -0.68199836817093118 forward_v I I I I #
loop $-1 $-1 $210 $49 #
coedge $-1 $127 $127 $128 $211 reversed $77 $-1 #
coedge $-1 $128 $128 $127 $211 forward $79 $-1 #
coedge $-1 $129 $129 $80 $130 forward $124 $-1 #
edge $-1 $212 0 $212 6.2831853071796004 $129 $213 forward 7 unknown #
loop $-1 $-1 $136 $81 #
plane-surface $-1 -31.878190695633208 33.827080404664152 100.02357224349436 0.68199836817093118 0 0.7313536940579346 0.7313536940579346 0 -0.68199836817093118 forward_v I I I I #
loop $-1 $-1 $214 $52 #
coedge $-1 $134 $134 $135 $215 reversed $82 $-1 #
coedge $-1 $135 $135 $134 $215 forward $84 $-1 #
coedge $-1 $136 $136 $85 $137 forward $131 $-1 #
edge $-1 $216 0 $216 6.2831853071796004 $136 $217 forward 7 unknown #
face $-1 $218 $219 $29 $-1 $220 reversed single #
loop $-1 $-1 $221 $86 #
plane-surface $-1 0 43.813572554362331 0 0 -1 0 0 0 -1 forward_v I I I I #
coedge $-1 $222 $223 $224 $225 reversed $87 $-1 #
coedge $-1 $143 $89 $226 $227 reversed $56 $-1 #
coedge $-1 $89 $142 $222 $228 reversed $56 $-1 #
coedge $-1 $224 $229 $89 $145 forward $230 $-1 #
edge $-1 $231 12.538763883740145 $232 15.838905795327847 $144 $233 forward 7 unknown #
loop $-1 $-1 $151 $90 #
plane-surface $-1 -68.894924771874116 33.827080404664152 6.0511197041398788 -0.68199836817093118 0 0.7313536940579346 0.7313536940579346 0 0.68199836817093118 forward_v I I I I #
loop $-1 $-1 $234 $58 #
coedge $-1 $149 $149 $150 $235 reversed $91 $-1 #
coedge $-1 $150 $150 $149 $235 forward $93 $-1 #
coedge $-1 $151 $151 $94 $152 forward $146 $-1 #
edge $-1 $236 0 $236 6.2831853071796004 $151 $237 forward 7 unknown #
loop $-1 $-1 $158 $95 #
plane-surface $-1 -68.894924771874116 33.827080404664152 6.0511197041398788 -0.68199836817093118 0 0.7313536940579346 0.7313536940579346 0 0.68199836817093118 forward_v I I I I #
loop $-1 $-1 $238 $61 #
coedge $-1 $156 $156 $157 $239 reversed $96 $-1 #
coedge $-1 $157 $157 $156 $239 forward $98 $-1 #
coedge $-1 $158 $158 $99 $159 forward $153 $-1 #
edge $-1 $240 0 $240 6.2831853071796004 $158 $241 forward 7 unknown #
face $-1 $242 $243 $24 $-1 $244 reversed single #
loop $-1 $-1 $245 $100 #
plane-surface $-1 -68.894924771874145 0 0 1 0 0 0 0 -1 forward_v I I I I #
coedge $-1 $246 $171 $247 $248 forward $101 $-1 #
coedge $-1 $249 $103 $246 $250 forward $65 $-1 #
coedge $-1 $103 $249 $251 $252 forward $65 $-1 #
coedge $-1 $174 $173 $103 $167 reversed $175 $-1 #
edge $-1 $253 -43.813572554362331 $254 43.813572554362331 $166 $255 forward 7 unknown #
coedge $-1 $105 $104 $256 $257 forward $41 $-1 #
coedge $-1 $258 $259 $104 $170 reversed $243 $-1 #
edge $-1 $177 -68.894924771874145 $260 68.894924771874145 $169 $261 forward 7 unknown #
coedge $-1 $163 $262 $105 $172 reversed $101 $-1 #
edge $-1 $263 -68.894924771874145 $176 68.894924771874145 $171 $264 forward 7 unknown #
coedge $-1 $166 $106 $262 $265 forward $175 $-1 #
coedge $-1 $106 $166 $258 $266 reversed $175 $-1 #
loop $-1 $-1 $173 $242 #
vertex $-1 $107 $267 #
vertex $-1 $107 $268 #
straight-curve $-1 68.894924771874145 0 9.1285518914954569 0 1 0 I I #
face $-1 $269 $270 $25 $-1 $271 reversed single #
loop $-1 $-1 $114 $108 #
plane-surface $-1 -68.318073958870926 -48.772802469989948 0 1 0 0 0 0 -1 forward_v I I I I #
coedge $-1 $272 $273 $274 $275 forward $109 $-1 #
coedge $-1 $276 $111 $277 $278 forward $69 $-1 #
coedge $-1 $111 $276 $189 $279 forward $69 $-1 #
edge $-1 $191 -68.318073958870926 $280 -63.533294188478934 $111 $281 forward 7 unknown #
coedge $-1 $113 $112 $282 $283 forward $44 $-1 #
coedge $-1 $284 $285 $112 $188 forward $286 $-1 #
edge $-1 $287 63.533294188478934 $192 68.318073958870926 $187 $288 forward 7 unknown #
coedge $-1 $274 $114 $184 $279 reversed $180 $-1 #
coedge $-1 $114 $274 $284 $289 reversed $180 $-1 #
vertex $-1 $185 $290 #
vertex $-1 $289 $291 #
straight-curve $-1 -68.318073958870926 -43.813572554362331 0 0 0 1 I I #
face $-1 $-1 $206 $26 $-1 $292 reversed single #
loop $-1 $-1 $293 $116 #
plane-surface $-1 0 0 9.1285518914954569 0 0 1 1 0 0 forward_v I I I I #
coedge $-1 $294 $295 $199 $296 forward $117 $-1 #
coedge $-1 $297 $119 $121 $204 forward $73 $-1 #
coedge $-1 $119 $297 $197 $296 reversed $73 $-1 #
coedge $-1 $298 $122 $119 $201 forward $206 $-1 #
edge $-1 $208 6.9270480526339107 $299 26.900032352030255 $200 $300 forward 7 unknown #
coedge $-1 $301 $293 $120 $203 forward $195 $-1 #
edge $-1 $302 34.547651938425815 $207 37.847793850013517 $202 $303 forward 7 unknown #
edge $-1 $208 -137.78984954374832 $302 -133.27747483586003 $121 $304 forward 7 unknown #
coedge $-1 $122 $298 $301 $305 reversed $206 $-1 #
loop $-1 $-1 $200 $194 #
vertex $-1 $305 $306 #
vertex $-1 $123 $307 #
straight-curve $-1 68.894924771874145 23.840588254965986 100.39834385550084 0 0 -1 I I #
coedge $-1 $210 $210 $-1 $308 reversed $126 $-1 #
edge $-1 $309 0 $309 6.2831853071796004 $127 $310 forward 7 unknown #
vertex $-1 $130 $311 #
ellipse-curve $-1 67.244853816080308 29.54715519765066 7.5898357978176607 0.68199836817093118 0 0.7313536940579346 0.3656768470289673 0 -0.34099918408546559 1 I I #
coedge $-1 $214 $214 $-1 $312 reversed $133 $-1 #
edge $-1 $313 0 $313 6.2831853071796004 $134 $314 forward 7 unknown #
vertex $-1 $137 $315 #
ellipse-curve $-1 67.244853816080308 38.107005611677657 7.5898357978176607 0.68199836817093118 0 0.7313536940579346 0.3656768470289673 0 -0.34099918408546559 1 I I #
face $-1 $-1 $230 $29 $-1 $316 forward single #
loop $-1 $-1 $317 $138 #
plane-surface $-1 -68.894924771874145 0 0 1 0 0 0 0 -1 forward_v I I I I #
coedge $-1 $318 $319 $223 $320 forward $139 $-1 #
coedge $-1 $321 $141 $143 $228 forward $87 $-1 #
coedge $-1 $141 $321 $221 $320 reversed $87 $-1 #
coedge $-1 $322 $144 $141 $225 forward $230 $-1 #
edge $-1 $232 6.9270480526339107 $323 26.900032352030241 $224 $324 forward 7 unknown #
coedge $-1 $325 $317 $142 $227 forward $219 $-1 #
edge $-1 $326 -47.360997881683751 $231 -44.283565694328146 $226 $327 forward 7 unknown #
edge $-1 $232 -4.5123747078882612 $326 3.8958409169770864e-014 $143 $328 forward 7 unknown #
coedge $-1 $144 $322 $325 $329 forward $230 $-1 #
loop $-1 $-1 $224 $218 #
vertex $-1 $227 $330 #
vertex $-1 $145 $331 #
straight-curve $-1 -81.43368865561429 23.840588254965986 9.1285518914954551 1 0 0 I I #
coedge $-1 $234 $234 $-1 $332 reversed $148 $-1 #
edge $-1 $333 0 $333 6.2831853071796004 $149 $334 forward 7 unknown #
vertex $-1 $152 $335 #
ellipse-curve $-1 -67.244853816080294 29.54715519765066 7.5898357978176509 -0.68199836817093118 0 0.7313536940579346 0.3656768470289673 0 0.34099918408546559 1 I I #
coedge $-1 $238 $238 $-1 $336 reversed $155 $-1 #
edge $-1 $337 0 $337 6.2831853071796004 $156 $338 forward 7 unknown #
vertex $-1 $159 $339 #
ellipse-curve $-1 -67.244853816080294 38.107005611677657 7.5898357978176509 -0.68199836817093118 0 0.7313536940579346 0.3656768470289673 0 0.34099918408546559 1 I I #
face $-1 $-1 $175 $24 $-1 $340 reversed single #
loop $-1 $-1 $258 $160 #
plane-surface $-1 0 43.813572554362331 0 0 -1 0 0 0 -1 forward_v I I I I #
coedge $-1 $341 $256 $259 $342 forward $161 $-1 #
coedge $-1 $262 $163 $164 $250 reversed $101 $-1 #
coedge $-1 $256 $341 $163 $248 reversed $161 $-1 #
edge $-1 $263 -9.1285518914954569 $343 9.1285518914954569 $247 $344 forward 7 unknown #
coedge $-1 $165 $164 $341 $345 forward $65 $-1 #
edge $-1 $254 -68.894924771874145 $343 68.894924771874145 $246 $346 forward 7 unknown #
coedge $-1 $259 $258 $165 $252 reversed $243 $-1 #
edge $-1 $347 -68.894924771874145 $253 68.894924771874145 $251 $348 forward 7 unknown #
vertex $-1 $167 $349 #
vertex $-1 $265 $350 #
straight-curve $-1 68.894924771874145 0 -9.1285518914954569 0 -1 0 I I #
coedge $-1 $245 $247 $168 $257 reversed $161 $-1 #
edge $-1 $260 -43.813572554362331 $263 43.813572554362331 $256 $351 forward 7 unknown #
coedge $-1 $251 $169 $174 $266 forward $243 $-1 #
coedge $-1 $169 $251 $245 $342 reversed $243 $-1 #
vertex $-1 $170 $352 #
straight-curve $-1 0 43.813572554362331 9.1285518914954569 -1 0 0 I I #
coedge $-1 $171 $246 $173 $265 reversed $101 $-1 #
vertex $-1 $257 $353 #
straight-curve $-1 0 -43.813572554362331 9.1285518914954569 1 0 0 I I #
edge $-1 $176 -9.1285518914954569 $254 9.1285518914954569 $173 $354 forward 7 unknown #
edge $-1 $177 -9.1285518914954569 $253 9.1285518914954569 $174 $355 forward 7 unknown #
point $-1 68.894924771874145 -43.813572554362331 9.1285518914954569 #
point $-1 68.894924771874145 43.813572554362331 9.1285518914954569 #
face $-1 $-1 $286 $25 $-1 $356 forward single #
loop $-1 $-1 $357 $179 #
plane-surface $-1 -63.533294188478934 -48.772802469989948 0 -1 0 0 0 0 1 forward_v I I I I #
coedge $-1 $358 $182 $276 $359 reversed $109 $-1 #
coedge $-1 $182 $358 $360 $361 reversed $109 $-1 #
coedge $-1 $190 $189 $182 $275 reversed $180 $-1 #
edge $-1 $362 -9.1285518914954569 $363 9.1285518914954569 $274 $364 forward 7 unknown #
coedge $-1 $184 $183 $272 $359 forward $69 $-1 #
coedge $-1 $282 $357 $183 $278 reversed $270 $-1 #
edge $-1 $280 -4.9592299156276169 $365 4.9592299156276169 $277 $366 forward 7 unknown #
edge $-1 $363 -4.9592299156276169 $191 4.9592299156276169 $189 $367 forward 7 unknown #
vertex $-1 $278 $368 #
straight-curve $-1 0 -43.813572554362331 -9.1285518914954569 1 0 0 I I #
coedge $-1 $369 $277 $186 $283 reversed $270 $-1 #
edge $-1 $287 -9.1285518914954569 $280 9.1285518914954569 $282 $370 forward 7 unknown #
coedge $-1 $360 $187 $190 $289 forward $286 $-1 #
coedge $-1 $187 $360 $369 $371 forward $286 $-1 #
loop $-1 $-1 $187 $269 #
vertex $-1 $188 $372 #
straight-curve $-1 0 -43.813572554362331 9.1285518914954569 -1 0 0 I I #
edge $-1 $192 -4.9592299156276169 $362 4.9592299156276169 $190 $373 forward 7 unknown #
point $-1 -68.318073958870926 -43.813572554362331 -9.1285518914954569 #
point $-1 -68.318073958870926 -43.813572554362331 9.1285518914954569 #
plane-surface $-1 68.894924771874145 0 0 -1 0 0 0 0 1 forward_v I I I I #
coedge $-1 $202 $374 $297 $375 forward $195 $-1 #
coedge $-1 $295 $197 $374 $376 reversed $117 $-1 #
coedge $-1 $197 $294 $298 $377 forward $117 $-1 #
edge $-1 $299 -92.02477675683582 $378 -87.512402048947521 $197 $379 forward 7 unknown #
coedge $-1 $199 $198 $293 $375 reversed $73 $-1 #
coedge $-1 $205 $200 $295 $377 reversed $206 $-1 #
vertex $-1 $201 $380 #
straight-curve $-1 68.894924771874145 16.913540202332076 6.0511197041398788 0 1 0 I I #
coedge $-1 $374 $202 $205 $305 forward $195 $-1 #
vertex $-1 $203 $381 #
straight-curve $-1 31.047130921860628 23.840588254965986 9.1285518914954622 1 0 0 I I #
straight-curve $-1 -31.878190695633208 23.840588254965986 100.02357224349436 -0.7313536940579346 0 0.68199836817093118 I I #
edge $-1 $207 23.840588254965986 $382 43.813572554362331 $205 $383 forward 7 unknown #
point $-1 68.894924771874145 23.840588254965986 9.1285518914954569 #
point $-1 68.894924771874145 23.840588254965986 6.0511197041398788 #
edge $-1 $384 1 $384 0 $210 $-1 forward 7 unknown #
vertex $-1 $211 $385 #
ellipse-curve $-1 66.562855447909399 29.54715519765066 6.858482103759747 0.68199836817093118 0 0.7313536940579346 0.3656768470289673 0 -0.34099918408546559 1 I I #
point $-1 67.610530663109301 29.54715519765066 7.248836613732216 #
edge $-1 $386 1 $386 0 $214 $-1 forward 7 unknown #
vertex $-1 $215 $387 #
ellipse-curve $-1 66.562855447909399 38.107005611677657 6.858482103759747 0.68199836817093118 0 0.7313536940579346 0.3656768470289673 0 -0.34099918408546559 1 I I #
point $-1 67.610530663109301 38.107005611677657 7.248836613732216 #
plane-surface $-1 0 0 9.1285518914954569 0 0 1 1 0 0 forward_v I I I I #
coedge $-1 $226 $388 $321 $389 forward $219 $-1 #
coedge $-1 $319 $221 $388 $390 reversed $139 $-1 #
coedge $-1 $221 $318 $322 $391 reversed $139 $-1 #
edge $-1 $323 18.61747727707338 $392 23.129851984961682 $221 $393 forward 7 unknown #
coedge $-1 $223 $222 $317 $389 reversed $87 $-1 #
coedge $-1 $229 $224 $319 $391 forward $230 $-1 #
vertex $-1 $391 $394 #
straight-curve $-1 -65.594782860286443 16.913540202332076 9.1285518914954569 0 1 0 I I #
coedge $-1 $388 $226 $229 $329 reversed $219 $-1 #
vertex $-1 $227 $395 #
straight-curve $-1 -68.894924771874145 23.840588254965986 53.412117585823601 0 0 1 I I #
straight-curve $-1 -68.894924771874116 23.840588254965986 6.0511197041398788 -0.7313536940579346 0 -0.68199836817093118 I I #
edge $-1 $396 -43.813572554362331 $231 -23.840588254965986 $325 $397 forward 7 unknown #
point $-1 -68.894924771874145 23.840588254965986 9.1285518914954569 #
point $-1 -65.594782860286443 23.840588254965986 9.1285518914954569 #
edge $-1 $398 1 $398 0 $234 $-1 forward 7 unknown #
vertex $-1 $235 $399 #
ellipse-curve $-1 -66.562855447909399 29.54715519765066 6.8584821037597488 -0.68199836817093118 0 0.7313536940579346 0.3656768470289673 0 0.34099918408546559 1 I I #
point $-1 -66.879176969051372 29.54715519765066 7.9308349819031498 #
edge $-1 $400 1 $400 0 $238 $-1 forward 7 unknown #
vertex $-1 $239 $401 #
ellipse-curve $-1 -66.562855447909399 38.107005611677657 6.8584821037597488 -0.68199836817093118 0 0.7313536940579346 0.3656768470289673 0 0.34099918408546559 1 I I #
point $-1 -66.879176969051372 38.107005611677657 7.9308349819031498 #
plane-surface $-1 68.894924771874145 0 0 -1 0 0 0 0 1 forward_v I I I I #
coedge $-1 $247 $245 $249 $345 reversed $161 $-1 #
edge $-1 $260 -9.1285518914954569 $347 9.1285518914954569 $259 $402 forward 7 unknown #
vertex $-1 $345 $403 #
straight-curve $-1 -68.894924771874145 -43.813572554362331 0 0 0 -1 I I #
edge $-1 $343 -43.813572554362331 $347 43.813572554362331 $341 $404 forward 7 unknown #
straight-curve $-1 0 -43.813572554362331 -9.1285518914954569 -1 0 0 I I #
vertex $-1 $252 $405 #
straight-curve $-1 0 43.813572554362331 -9.1285518914954569 1 0 0 I I #
point $-1 68.894924771874145 43.813572554362331 -9.1285518914954569 #
point $-1 68.894924771874145 -43.813572554362331 -9.1285518914954569 #
straight-curve $-1 -68.894924771874145 0 9.1285518914954569 0 -1 0 I I #
point $-1 -68.894924771874145 43.813572554362331 9.1285518914954569 #
point $-1 -68.894924771874145 -43.813572554362331 9.1285518914954569 #
straight-curve $-1 68.894924771874145 -43.813572554362331 0 0 0 -1 I I #
straight-curve $-1 68.894924771874145 43.813572554362331 0 0 0 -1 I I #
plane-surface $-1 0 0 9.1285518914954569 0 0 1 1 0 0 forward_v I I I I #
coedge $-1 $277 $369 $358 $406 forward $270 $-1 #
coedge $-1 $273 $272 $357 $406 reversed $109 $-1 #
edge $-1 $365 -2.3923898851959962 $363 2.3923898851959962 $272 $407 forward 7 unknown #
coedge $-1 $285 $284 $273 $361 forward $286 $-1 #
edge $-1 $362 -2.3923898851959962 $408 2.3923898851959962 $273 $409 forward 7 unknown #
vertex $-1 $289 $410 #
vertex $-1 $279 $411 #
straight-curve $-1 -68.318073958870926 -53.732032385617565 0 0 0 -1 I I #
vertex $-1 $406 $412 #
straight-curve $-1 -63.533294188478934 -48.772802469989948 -9.1285518914954569 0 -1 0 I I #
straight-curve $-1 -68.318073958870926 -48.772802469989948 -9.1285518914954569 0 1 0 I I #
point $-1 -63.533294188478934 -43.813572554362331 -9.1285518914954569 #
coedge $-1 $357 $282 $285 $371 reversed $270 $-1 #
straight-curve $-1 -63.533294188478934 -43.813572554362331 0 0 0 -1 I I #
edge $-1 $408 -4.9592299156276169 $287 4.9592299156276169 $369 $413 forward 7 unknown #
point $-1 -63.533294188478934 -43.813572554362331 9.1285518914954569 #
straight-curve $-1 -68.318073958870926 -48.772802469989948 9.1285518914954569 0 -1 0 I I #
coedge $-1 $293 $301 $294 $376 forward $195 $-1 #
edge $-1 $378 -26.900032352030241 $302 -6.9270480526339107 $293 $414 forward 7 unknown #
edge $-1 $382 -68.894924771874145 $378 -65.594782860286443 $294 $415 forward 7 unknown #
edge $-1 $382 -9.1285518914954569 $299 -6.0511197041398681 $298 $416 forward 7 unknown #
vertex $-1 $375 $417 #
straight-curve $-1 1.5922643459055124 43.813572554362331 68.811867283596129 -0.7313536940579346 0 0.68199836817093118 I I #
point $-1 68.894924771874145 43.813572554362331 6.0511197041398681 #
point $-1 65.594782860286443 23.840588254965986 9.1285518914954764 #
vertex $-1 $305 $418 #
straight-curve $-1 68.894924771874145 0 9.1285518914954569 0 1 0 I I #
vertex $-1 $308 $419 #
point $-1 66.928532294938364 29.54715519765066 6.5174829196742818 #
vertex $-1 $312 $420 #
point $-1 66.928532294938364 38.107005611677657 6.5174829196742818 #
coedge $-1 $317 $325 $318 $390 forward $219 $-1 #
edge $-1 $392 -26.900032352030241 $326 -6.9270480526339107 $317 $421 forward 7 unknown #
edge $-1 $396 -9.1285518914954569 $392 -6.0511197041398521 $318 $422 forward 7 unknown #
edge $-1 $323 65.594782860286443 $396 68.894924771874145 $319 $423 forward 7 unknown #
vertex $-1 $389 $424 #
straight-curve $-1 -51.978822079659167 43.813572554362331 21.82564101391889 -0.7313536940579346 0 -0.68199836817093118 I I #
point $-1 -65.594782860286443 43.813572554362317 9.1285518914954569 #
point $-1 -68.894924771874145 23.840588254965986 6.0511197041398521 #
vertex $-1 $391 $425 #
straight-curve $-1 -68.894924771874145 0 9.1285518914954569 0 -1 0 I I #
vertex $-1 $332 $426 #
point $-1 -66.197178600880434 29.54715519765066 7.1994812878452148 #
vertex $-1 $336 $427 #
point $-1 -66.197178600880434 38.107005611677657 7.1994812878452148 #
straight-curve $-1 -68.894924771874145 43.813572554362331 0 0 0 -1 I I #
point $-1 -68.894924771874145 -43.813572554362331 -9.1285518914954569 #
straight-curve $-1 -68.894924771874145 0 -9.1285518914954569 0 1 0 I I #
point $-1 -68.894924771874145 43.813572554362331 -9.1285518914954569 #
edge $-1 $408 -9.1285518914954569 $365 9.1285518914954569 $357 $428 forward 7 unknown #
straight-curve $-1 -65.92568407367493 -53.732032385617565 -9.1285518914954569 -1 0 0 I I #
vertex $-1 $371 $429 #
straight-curve $-1 -65.92568407367493 -53.732032385617565 9.1285518914954569 1 0 0 I I #
point $-1 -68.318073958870926 -53.732032385617565 9.1285518914954569 #
point $-1 -68.318073958870926 -53.732032385617565 -9.1285518914954569 #
point $-1 -63.533294188478934 -53.732032385617565 -9.1285518914954569 #
straight-curve $-1 -63.533294188478934 -48.772802469989948 9.1285518914954569 0 1 0 I I #
straight-curve $-1 65.594782860286472 16.913540202332076 9.1285518914954622 0 -1 0 I I #
straight-curve $-1 0 43.813572554362331 9.1285518914954569 -1 0 0 I I #
straight-curve $-1 68.894924771874145 43.813572554362331 0 0 0 -1 I I #
point $-1 65.594782860286443 43.813572554362317 9.1285518914954764 #
point $-1 68.894924771874145 43.813572554362331 9.1285518914954569 #
point $-1 66.221856263823938 29.54715519765066 6.4928052567307803 #
point $-1 66.221856263823938 38.107005611677657 6.4928052567307803 #
straight-curve $-1 -68.894924771874145 16.913540202332076 6.0511197041398503 0 -1 0 I I #
straight-curve $-1 -68.894924771874145 43.813572554362331 0 0 0 -1 I I #
straight-curve $-1 0 43.813572554362331 9.1285518914954569 -1 0 0 I I #
point $-1 -68.894924771874145 43.813572554362317 6.0511197041398521 #
point $-1 -68.894924771874145 43.813572554362331 9.1285518914954569 #
point $-1 -66.221856263823938 29.54715519765066 6.4928052567307821 #
point $-1 -66.221856263823938 38.107005611677657 6.4928052567307821 #
straight-curve $-1 -63.533294188478934 -53.732032385617565 0 0 0 -1 I I #
point $-1 -63.533294188478934 -53.732032385617565 9.1285518914954569 #
End-of-ACIS-data 