500 0 8 0           
7 Unknown 11 ACIS 5.0 NT 24 Fri Mar 26 20:01:54 1999 
-1 9.9999999999999995e-007 1e-010 
body $-1 $8 $-1 $9 #
body $-1 $10 $-1 $11 #
body $-1 $12 $-1 $13 #
body $-1 $14 $-1 $15 #
body $-1 $16 $-1 $17 #
body $-1 $18 $-1 $19 #
body $-1 $20 $-1 $21 #
body $-1 $22 $-1 $23 #
lump $-1 $-1 $24 $0 #
transform $-1 1 0 0 0 1 0 0 0 1 60.787987914670246 29.816668543380676 7.0948693187012788 1 rotate no_reflect no_shear #
lump $-1 $-1 $25 $1 #
transform $-1 1 0 0 0 1 0 0 0 1 60.787987914670246 29.816668543380676 7.0948693187012788 1 rotate no_reflect no_shear #
lump $-1 $-1 $26 $2 #
transform $-1 1 0 0 0 1 0 0 0 1 60.787987914670246 29.816668543380676 7.0948693187012788 1 rotate no_reflect no_shear #
lump $-1 $-1 $27 $3 #
transform $-1 1 0 0 0 1 0 0 0 1 60.787987914670246 29.816668543380676 7.0948693187012788 1 rotate no_reflect no_shear #
lump $-1 $-1 $28 $4 #
transform $-1 1 0 0 0 1 0 0 0 1 60.787987914670246 29.816668543380676 7.0948693187012788 1 rotate no_reflect no_shear #
lump $-1 $-1 $29 $5 #
transform $-1 1 0 0 0 1 0 0 0 1 60.787987914670246 29.816668543380676 7.0948693187012788 1 rotate no_reflect no_shear #
lump $-1 $-1 $30 $6 #
transform $-1 1 0 0 0 1 0 0 0 1 60.787987914670246 29.816668543380676 7.0948693187012788 1 rotate no_reflect no_shear #
lump $-1 $-1 $31 $7 #
transform $-1 1 0 0 0 1 0 0 0 1 60.787987914670246 29.816668543380676 7.0948693187012788 1 rotate no_reflect no_shear #
shell $-1 $-1 $-1 $32 $-1 $8 #
shell $-1 $-1 $-1 $33 $-1 $10 #
shell $-1 $-1 $-1 $34 $-1 $12 #
shell $-1 $-1 $-1 $35 $-1 $14 #
shell $-1 $-1 $-1 $36 $-1 $16 #
shell $-1 $-1 $-1 $37 $-1 $18 #
shell $-1 $-1 $-1 $38 $-1 $20 #
shell $-1 $-1 $-1 $39 $-1 $22 #
face $-1 $40 $41 $24 $-1 $42 forward single #
face $-1 $43 $44 $25 $-1 $45 reversed single #
face $-1 $46 $47 $26 $-1 $48 reversed single #
face $-1 $49 $50 $27 $-1 $51 forward single #
face $-1 $52 $53 $28 $-1 $54 forward single #
face $-1 $55 $56 $29 $-1 $57 reversed single #
face $-1 $58 $59 $30 $-1 $60 forward single #
face $-1 $61 $62 $31 $-1 $63 forward single #
face $-1 $64 $65 $24 $-1 $66 reversed single #
loop $-1 $-1 $67 $32 #
plane-surface $-1 0 0 7.0948693187012788 0 0 1 1 0 0 forward_v I I I I #
face $-1 $68 $69 $25 $-1 $70 reversed single #
loop $-1 $-1 $71 $33 #
plane-surface $-1 -59.169053364391075 -23.641254621033031 0 0 -1 0 0 0 -1 forward_v I I I I #
face $-1 $72 $73 $26 $-1 $74 reversed single #
loop $-1 $-1 $75 $34 #
plane-surface $-1 57.787320942437908 -12.005166529641865 175.02744139998794 0 -1 0 -0.69465837861970381 0 -0.71933979245794832 forward_v I I I I #
face $-1 $76 $77 $27 $-1 $78 forward single #
loop $-1 $79 $80 $35 #
cone-surface $-1 58.305660314230813 -20.316658023492696 4.6681088015391632 -0.69465837861970381 0 -0.71933979245794832 0.35966989622897416 0 -0.3473291893098519 1 I I 0 1 0.5 forward I I I I #
face $-1 $81 $82 $28 $-1 $83 forward single #
loop $-1 $84 $85 $36 #
cone-surface $-1 58.305660314230813 -15.329763127182197 4.6681088015391632 -0.69465837861970381 0 -0.71933979245794832 0.35966989622897416 0 -0.3473291893098519 1 I I 0 1 0.5 forward I I I I #
face $-1 $86 $87 $29 $-1 $88 reversed single #
loop $-1 $-1 $89 $37 #
plane-surface $-1 -60.787987914670254 -17.823210575337448 3.1192339303196661 -0.69465837861970381 0 0.71933979245794832 0.71933979245794832 0 0.69465837861970381 forward_v I I I I #
face $-1 $90 $91 $30 $-1 $92 forward single #
loop $-1 $93 $94 $38 #
cone-surface $-1 -58.305660314230799 -20.316658023492696 4.6681088015391667 0.69465837861970381 0 -0.71933979245794832 0.35966989622897416 0 0.3473291893098519 1 I I 0 1 0.5 forward I I I I #
face $-1 $95 $96 $31 $-1 $97 forward single #
loop $-1 $98 $99 $39 #
cone-surface $-1 -58.305660314230799 -15.329763127182197 4.6681088015391667 0.69465837861970381 0 -0.71933979245794832 0.35966989622897416 0 0.3473291893098519 1 I I 0 1 0.5 forward I I I I #
face $-1 $100 $101 $24 $-1 $102 reversed single #
loop $-1 $-1 $103 $40 #
plane-surface $-1 0 0 -7.0948693187012788 0 0 1 1 0 0 forward_v I I I I #
coedge $-1 $104 $105 $106 $107 forward $41 $-1 #
face $-1 $108 $109 $25 $-1 $110 forward single #
loop $-1 $-1 $111 $43 #
plane-surface $-1 -57.550118814111904 -26.728961582206853 0 -1 0 0 0 0 1 forward_v I I I I #
coedge $-1 $112 $113 $114 $115 forward $44 $-1 #
face $-1 $116 $117 $26 $-1 $118 reversed single #
loop $-1 $-1 $119 $46 #
plane-surface $-1 -26.666449306280064 -17.823210575337448 87.573004179037611 0.69465837861970381 0 0.71933979245794832 0.71933979245794832 0 -0.69465837861970381 forward_v I I I I #
coedge $-1 $120 $121 $122 $123 reversed $47 $-1 #
face $-1 $-1 $124 $27 $-1 $125 forward single #
loop $-1 $126 $127 $49 #
cone-surface $-1 57.70811355302687 -20.316658023492696 4.0493310304533798 -0.69465837861970381 0 -0.71933979245794832 0.17983494811448708 0 -0.17366459465492595 1 I I -0.70710678118654746 0.70710678118654746 0.25 forward I I I I #
loop $-1 $-1 $128 $35 #
coedge $-1 $80 $80 $129 $130 reversed $50 $-1 #
face $-1 $-1 $131 $28 $-1 $132 forward single #
loop $-1 $133 $134 $52 #
cone-surface $-1 57.70811355302687 -15.329763127182197 4.0493310304533798 -0.69465837861970381 0 -0.71933979245794832 0.17983494811448708 0 -0.17366459465492595 1 I I -0.70710678118654746 0.70710678118654746 0.25 forward I I I I #
loop $-1 $-1 $135 $36 #
coedge $-1 $85 $85 $136 $137 reversed $53 $-1 #
face $-1 $138 $139 $29 $-1 $140 forward single #
loop $-1 $-1 $141 $55 #
plane-surface $-1 -145.24175816338823 -12.005166529641865 90.573671151269991 0 -1 0 0.69465837861970381 0 -0.71933979245794832 forward_v I I I I #
coedge $-1 $142 $143 $144 $145 reversed $56 $-1 #
face $-1 $-1 $146 $30 $-1 $147 forward single #
loop $-1 $148 $149 $58 #
cone-surface $-1 -57.708113553026855 -20.316658023492696 4.0493310304533834 0.69465837861970381 0 -0.71933979245794832 0.17983494811448708 0 0.17366459465492595 1 I I -0.70710678118654746 0.70710678118654746 0.25 forward I I I I #
loop $-1 $-1 $150 $38 #
coedge $-1 $94 $94 $151 $152 reversed $59 $-1 #
face $-1 $-1 $153 $31 $-1 $154 forward single #
loop $-1 $155 $156 $61 #
cone-surface $-1 -57.708113553026855 -15.329763127182197 4.0493310304533834 0.69465837861970381 0 -0.71933979245794832 0.17983494811448708 0 0.17366459465492595 1 I I -0.70710678118654746 0.70710678118654746 0.25 forward I I I I #
loop $-1 $-1 $157 $39 #
coedge $-1 $99 $99 $158 $159 reversed $62 $-1 #
face $-1 $160 $161 $24 $-1 $162 reversed single #
loop $-1 $-1 $163 $64 #
plane-surface $-1 0 -29.816668543380676 0 0 1 0 0 0 1 forward_v I I I I #
coedge $-1 $164 $165 $166 $167 forward $65 $-1 #
coedge $-1 $168 $67 $169 $170 forward $41 $-1 #
coedge $-1 $67 $168 $171 $172 forward $41 $-1 #
coedge $-1 $173 $174 $67 $107 reversed $175 $-1 #
edge $-1 $176 -29.816668543380676 $177 29.816668543380676 $106 $178 forward 7 unknown #
face $-1 $179 $180 $25 $-1 $181 reversed single #
loop $-1 $-1 $182 $68 #
plane-surface $-1 0 0 7.0948693187012788 0 0 1 1 0 0 forward_v I I I I #
coedge $-1 $183 $184 $185 $186 reversed $69 $-1 #
coedge $-1 $187 $71 $188 $189 reversed $44 $-1 #
coedge $-1 $71 $187 $190 $191 reversed $44 $-1 #
coedge $-1 $184 $183 $71 $115 reversed $69 $-1 #
edge $-1 $192 -7.0948693187012788 $193 7.0948693187012788 $114 $194 forward 7 unknown #
face $-1 $195 $196 $26 $-1 $197 reversed single #
loop $-1 $-1 $198 $72 #
plane-surface $-1 57.787320942437908 -23.641254621033031 175.02744139998794 0 1 0 0.69465837861970381 0 0.71933979245794832 forward_v I I I I #
coedge $-1 $199 $200 $201 $202 reversed $73 $-1 #
coedge $-1 $121 $75 $203 $204 reversed $47 $-1 #
coedge $-1 $75 $120 $199 $205 reversed $47 $-1 #
coedge $-1 $201 $206 $75 $123 forward $207 $-1 #
edge $-1 $208 -31.894327443451292 $209 -27.777436575670439 $122 $210 forward 7 unknown #
loop $-1 $-1 $129 $76 #
plane-surface $-1 -26.666449306280064 -17.823210575337448 87.573004179037611 0.69465837861970381 0 0.71933979245794832 0.71933979245794832 0 -0.69465837861970381 forward_v I I I I #
loop $-1 $-1 $211 $49 #
coedge $-1 $127 $127 $128 $212 reversed $77 $-1 #
coedge $-1 $128 $128 $127 $212 forward $79 $-1 #
coedge $-1 $129 $129 $80 $130 forward $124 $-1 #
edge $-1 $213 0 $213 6.2831853071796004 $129 $214 forward 7 unknown #
loop $-1 $-1 $136 $81 #
plane-surface $-1 -26.666449306280064 -17.823210575337448 87.573004179037611 0.69465837861970381 0 0.71933979245794832 0.71933979245794832 0 -0.69465837861970381 forward_v I I I I #
loop $-1 $-1 $215 $52 #
coedge $-1 $134 $134 $135 $216 reversed $82 $-1 #
coedge $-1 $135 $135 $134 $216 forward $84 $-1 #
coedge $-1 $136 $136 $85 $137 forward $131 $-1 #
edge $-1 $217 0 $217 6.2831853071796004 $136 $218 forward 7 unknown #
face $-1 $219 $220 $29 $-1 $221 forward single #
loop $-1 $-1 $222 $86 #
plane-surface $-1 0 0 7.0948693187012788 0 0 1 1 0 0 forward_v I I I I #
coedge $-1 $223 $224 $225 $226 reversed $87 $-1 #
coedge $-1 $227 $89 $228 $229 reversed $56 $-1 #
coedge $-1 $89 $227 $223 $230 forward $56 $-1 #
coedge $-1 $225 $222 $89 $145 forward $139 $-1 #
edge $-1 $231 -14.729649333364307 $232 -3.0935612419731413 $144 $233 forward 7 unknown #
loop $-1 $-1 $151 $90 #
plane-surface $-1 -60.787987914670254 -17.823210575337448 3.1192339303196661 -0.69465837861970381 0 0.71933979245794832 0.71933979245794832 0 0.69465837861970381 forward_v I I I I #
loop $-1 $-1 $234 $58 #
coedge $-1 $149 $149 $150 $235 reversed $91 $-1 #
coedge $-1 $150 $150 $149 $235 forward $93 $-1 #
coedge $-1 $151 $151 $94 $152 forward $146 $-1 #
edge $-1 $236 0 $236 6.2831853071796004 $151 $237 forward 7 unknown #
loop $-1 $-1 $158 $95 #
plane-surface $-1 -60.787987914670254 -17.823210575337448 3.1192339303196661 -0.69465837861970381 0 0.71933979245794832 0.71933979245794832 0 0.69465837861970381 forward_v I I I I #
loop $-1 $-1 $238 $61 #
coedge $-1 $156 $156 $157 $239 reversed $96 $-1 #
coedge $-1 $157 $157 $156 $239 forward $98 $-1 #
coedge $-1 $158 $158 $99 $159 forward $153 $-1 #
edge $-1 $240 0 $240 6.2831853071796004 $158 $241 forward 7 unknown #
face $-1 $242 $243 $24 $-1 $244 reversed single #
loop $-1 $-1 $245 $100 #
plane-surface $-1 -60.787987914670246 0 0 1 0 0 0 0 -1 forward_v I I I I #
coedge $-1 $246 $171 $247 $248 forward $101 $-1 #
coedge $-1 $249 $103 $246 $250 forward $65 $-1 #
coedge $-1 $103 $249 $251 $252 forward $65 $-1 #
coedge $-1 $174 $173 $103 $167 reversed $175 $-1 #
edge $-1 $253 -29.816668543380676 $254 29.816668543380676 $166 $255 forward 7 unknown #
coedge $-1 $105 $104 $256 $257 forward $41 $-1 #
coedge $-1 $258 $259 $104 $170 reversed $243 $-1 #
edge $-1 $177 -60.787987914670246 $260 60.787987914670246 $169 $261 forward 7 unknown #
coedge $-1 $163 $262 $105 $172 reversed $101 $-1 #
edge $-1 $263 -60.787987914670246 $176 60.787987914670246 $171 $264 forward 7 unknown #
coedge $-1 $166 $106 $262 $265 forward $175 $-1 #
coedge $-1 $106 $166 $258 $266 reversed $175 $-1 #
loop $-1 $-1 $173 $242 #
vertex $-1 $107 $267 #
vertex $-1 $107 $268 #
straight-curve $-1 60.787987914670246 0 7.0948693187012788 0 1 0 I I #
face $-1 $269 $270 $25 $-1 $271 reversed single #
loop $-1 $-1 $272 $108 #
plane-surface $-1 -60.787987914670246 0 0 1 0 0 0 0 -1 forward_v I I I I #
coedge $-1 $190 $273 $184 $274 forward $109 $-1 #
coedge $-1 $114 $111 $275 $276 reversed $69 $-1 #
coedge $-1 $111 $114 $182 $274 reversed $69 $-1 #
coedge $-1 $277 $278 $111 $186 forward $279 $-1 #
edge $-1 $280 -7.0948693187012788 $281 7.0948693187012788 $185 $282 forward 7 unknown #
coedge $-1 $113 $112 $272 $283 reversed $44 $-1 #
coedge $-1 $275 $284 $112 $189 forward $270 $-1 #
edge $-1 $285 -31.203461232474709 $193 -27.965592131916367 $188 $286 forward 7 unknown #
coedge $-1 $287 $182 $113 $191 forward $109 $-1 #
edge $-1 $192 27.965592131916367 $288 31.203461232474709 $190 $289 forward 7 unknown #
vertex $-1 $191 $290 #
vertex $-1 $189 $291 #
straight-curve $-1 -57.550118814111904 -23.641254621033031 0 0 0 -1 I I #
face $-1 $-1 $207 $26 $-1 $292 forward single #
loop $-1 $-1 $293 $116 #
plane-surface $-1 60.787987914670246 0 0 -1 0 0 0 0 1 forward_v I I I I #
coedge $-1 $294 $295 $296 $297 reversed $117 $-1 #
coedge $-1 $298 $119 $121 $205 forward $73 $-1 #
coedge $-1 $119 $298 $294 $299 forward $73 $-1 #
coedge $-1 $296 $122 $119 $202 forward $207 $-1 #
edge $-1 $209 3.0935612419731413 $300 14.729649333364307 $201 $301 forward 7 unknown #
coedge $-1 $302 $303 $120 $204 forward $196 $-1 #
edge $-1 $304 -84.394486769674302 $208 -80.418851381292683 $203 $305 forward 7 unknown #
edge $-1 $209 115.85282397406266 $304 121.57597582934045 $121 $306 forward 7 unknown #
coedge $-1 $122 $296 $302 $307 forward $207 $-1 #
loop $-1 $-1 $296 $195 #
vertex $-1 $204 $308 #
vertex $-1 $123 $309 #
straight-curve $-1 28.893660471218954 -12.005166529641865 7.094869318701285 -1 0 0 I I #
coedge $-1 $211 $211 $-1 $310 reversed $126 $-1 #
edge $-1 $311 0 $311 6.2831853071796004 $127 $312 forward 7 unknown #
vertex $-1 $130 $313 #
ellipse-curve $-1 58.729542480779834 -20.316658023492696 5.1070516245104614 0.69465837861970381 0 0.71933979245794832 0.35966989622897416 0 -0.3473291893098519 1 I I #
coedge $-1 $215 $215 $-1 $314 reversed $133 $-1 #
edge $-1 $315 0 $315 6.2831853071796004 $134 $316 forward 7 unknown #
vertex $-1 $137 $317 #
ellipse-curve $-1 58.729542480779834 -15.329763127182197 5.1070516245104614 0.69465837861970381 0 0.71933979245794832 0.35966989622897416 0 -0.3473291893098519 1 I I #
face $-1 $-1 $318 $29 $-1 $319 reversed single #
loop $-1 $-1 $228 $138 #
plane-surface $-1 -59.169053364391075 -23.641254621033031 0 0 -1 0 0 0 -1 forward_v I I I I #
coedge $-1 $144 $320 $321 $322 forward $139 $-1 #
coedge $-1 $224 $141 $143 $230 reversed $87 $-1 #
coedge $-1 $141 $223 $323 $324 reversed $87 $-1 #
coedge $-1 $320 $144 $141 $226 forward $139 $-1 #
edge $-1 $232 -15.949782034804699 $325 -11.832891167023867 $225 $326 forward 7 unknown #
coedge $-1 $143 $142 $327 $328 reversed $56 $-1 #
coedge $-1 $321 $329 $142 $229 forward $220 $-1 #
edge $-1 $330 0.50111897058530819 $231 6.2242708258630772 $228 $331 forward 7 unknown #
edge $-1 $332 9.7385709978959816e-015 $232 5.7231518552777789 $223 $333 forward 7 unknown #
vertex $-1 $145 $334 #
vertex $-1 $145 $335 #
straight-curve $-1 -56.671097046889415 -8.9116052876687242 7.0948693187012779 0 1 0 I I #
coedge $-1 $234 $234 $-1 $336 reversed $148 $-1 #
edge $-1 $337 0 $337 6.2831853071796004 $149 $338 forward 7 unknown #
vertex $-1 $152 $339 #
ellipse-curve $-1 -58.729542480779827 -20.316658023492696 5.1070516245104756 -0.69465837861970381 0 0.71933979245794832 0.35966989622897416 0 0.3473291893098519 1 I I #
coedge $-1 $238 $238 $-1 $340 reversed $155 $-1 #
edge $-1 $341 0 $341 6.2831853071796004 $156 $342 forward 7 unknown #
vertex $-1 $159 $343 #
ellipse-curve $-1 -58.729542480779827 -15.329763127182197 5.1070516245104756 -0.69465837861970381 0 0.71933979245794832 0.35966989622897416 0 0.3473291893098519 1 I I #
face $-1 $-1 $175 $24 $-1 $344 reversed single #
loop $-1 $-1 $258 $160 #
plane-surface $-1 0 29.816668543380676 0 0 -1 0 0 0 -1 forward_v I I I I #
coedge $-1 $345 $256 $259 $346 forward $161 $-1 #
coedge $-1 $262 $163 $164 $250 reversed $101 $-1 #
coedge $-1 $256 $345 $163 $248 reversed $161 $-1 #
edge $-1 $263 -7.0948693187012788 $347 7.0948693187012788 $247 $348 forward 7 unknown #
coedge $-1 $165 $164 $345 $349 forward $65 $-1 #
edge $-1 $254 -60.787987914670246 $347 60.787987914670246 $246 $350 forward 7 unknown #
coedge $-1 $259 $258 $165 $252 reversed $243 $-1 #
edge $-1 $351 -60.787987914670246 $253 60.787987914670246 $251 $352 forward 7 unknown #
vertex $-1 $167 $353 #
vertex $-1 $265 $354 #
straight-curve $-1 60.787987914670246 0 -7.0948693187012788 0 -1 0 I I #
coedge $-1 $245 $247 $168 $257 reversed $161 $-1 #
edge $-1 $260 -29.816668543380676 $263 29.816668543380676 $256 $355 forward 7 unknown #
coedge $-1 $251 $169 $174 $266 forward $243 $-1 #
coedge $-1 $169 $251 $245 $346 reversed $243 $-1 #
vertex $-1 $170 $356 #
straight-curve $-1 0 29.816668543380676 7.0948693187012788 -1 0 0 I I #
coedge $-1 $171 $246 $173 $265 reversed $101 $-1 #
vertex $-1 $257 $357 #
straight-curve $-1 0 -29.816668543380676 7.0948693187012788 1 0 0 I I #
edge $-1 $176 -7.0948693187012788 $254 7.0948693187012788 $173 $358 forward 7 unknown #
edge $-1 $177 -7.0948693187012788 $253 7.0948693187012788 $174 $359 forward 7 unknown #
point $-1 60.787987914670246 -29.816668543380676 7.0948693187012788 #
point $-1 60.787987914670246 29.816668543380676 7.0948693187012788 #
face $-1 $-1 $279 $25 $-1 $360 reversed single #
loop $-1 $-1 $275 $179 #
plane-surface $-1 0 0 -7.0948693187012788 0 0 1 1 0 0 forward_v I I I I #
coedge $-1 $361 $362 $187 $283 forward $180 $-1 #
coedge $-1 $182 $287 $277 $363 forward $109 $-1 #
edge $-1 $281 -16.452187752277247 $192 -10.276773829929605 $182 $364 forward 7 unknown #
coedge $-1 $365 $188 $183 $276 forward $270 $-1 #
edge $-1 $193 10.276773829929605 $280 16.452187752277247 $275 $366 forward 7 unknown #
coedge $-1 $367 $185 $273 $363 reversed $279 $-1 #
coedge $-1 $185 $367 $365 $368 reversed $279 $-1 #
loop $-1 $-1 $185 $269 #
vertex $-1 $368 $369 #
vertex $-1 $186 $370 #
straight-curve $-1 -57.550118814111904 -29.816668543380676 0 0 0 1 I I #
edge $-1 $288 -7.0948693187012788 $285 7.0948693187012788 $272 $371 forward 7 unknown #
coedge $-1 $188 $365 $361 $372 forward $270 $-1 #
vertex $-1 $189 $373 #
straight-curve $-1 -29.584526682195538 -23.641254621033031 -7.0948693187012788 1 0 0 I I #
coedge $-1 $273 $190 $362 $374 forward $109 $-1 #
vertex $-1 $374 $375 #
straight-curve $-1 -29.584526682195538 -23.641254621033031 7.0948693187012788 -1 0 0 I I #
point $-1 -57.550118814111904 -23.641254621033031 7.0948693187012788 #
point $-1 -57.550118814111904 -23.641254621033031 -7.0948693187012788 #
plane-surface $-1 0 0 7.0948693187012788 0 0 1 1 0 0 forward_v I I I I #
coedge $-1 $303 $302 $295 $376 forward $196 $-1 #
coedge $-1 $295 $198 $200 $299 reversed $117 $-1 #
coedge $-1 $198 $294 $293 $376 reversed $117 $-1 #
coedge $-1 $206 $201 $198 $297 forward $207 $-1 #
edge $-1 $300 27.777436575670439 $377 31.894327443451292 $296 $378 forward 7 unknown #
coedge $-1 $200 $199 $303 $379 reversed $73 $-1 #
edge $-1 $380 -121.57597582934045 $300 -115.85282397406266 $294 $381 forward 7 unknown #
vertex $-1 $202 $382 #
straight-curve $-1 56.671097046889408 -8.9116052876687242 7.0948693187012779 0 -1 0 I I #
coedge $-1 $293 $203 $206 $307 reversed $196 $-1 #
coedge $-1 $203 $293 $298 $379 forward $196 $-1 #
vertex $-1 $204 $383 #
straight-curve $-1 60.787987914670246 -12.005166529641865 87.513720699993968 0 0 1 I I #
straight-curve $-1 -26.666449306280064 -12.005166529641865 87.573004179037611 0.71933979245794832 0 -0.69465837861970381 I I #
edge $-1 $377 -23.641254621033031 $208 -12.005166529641865 $302 $384 forward 7 unknown #
point $-1 60.787987914670246 -12.005166529641865 7.0948693187012788 #
point $-1 56.671097046889393 -12.005166529641865 7.094869318701285 #
edge $-1 $385 1 $385 0 $211 $-1 forward 7 unknown #
vertex $-1 $212 $386 #
ellipse-curve $-1 57.881778147681793 -20.316658023492696 4.2291659785678668 0.69465837861970381 0 0.71933979245794832 0.35966989622897416 0 -0.3473291893098519 1 I I #
point $-1 59.089212377008806 -20.316658023492696 4.7597224352006071 #
edge $-1 $387 1 $387 0 $215 $-1 forward 7 unknown #
vertex $-1 $216 $388 #
ellipse-curve $-1 57.881778147681793 -15.329763127182197 4.2291659785678668 0.69465837861970381 0 0.71933979245794832 0.35966989622897416 0 -0.3473291893098519 1 I I #
point $-1 59.089212377008806 -15.329763127182197 4.7597224352006071 #
loop $-1 $-1 $327 $219 #
plane-surface $-1 -60.787987914670246 0 0 1 0 0 0 0 -1 forward_v I I I I #
coedge $-1 $222 $225 $389 $390 forward $139 $-1 #
coedge $-1 $329 $228 $222 $322 reversed $220 $-1 #
edge $-1 $391 -31.203461232474709 $231 -27.086570364693877 $222 $392 forward 7 unknown #
coedge $-1 $327 $389 $224 $324 forward $318 $-1 #
edge $-1 $325 38.191966256933718 $332 42.167601645315322 $323 $393 forward 7 unknown #
vertex $-1 $390 $394 #
straight-curve $-1 -72.620879081694113 -12.005166529641865 7.0948693187012779 -1 0 0 I I #
coedge $-1 $395 $323 $227 $328 forward $318 $-1 #
edge $-1 $332 3.0935612419731413 $330 14.729649333364307 $327 $396 forward 7 unknown #
coedge $-1 $228 $321 $395 $397 reversed $220 $-1 #
vertex $-1 $397 $398 #
straight-curve $-1 -61.148462730967822 -23.641254621033031 2.7711274387173068 0.71933979245794832 0 0.69465837861970381 I I #
vertex $-1 $328 $399 #
straight-curve $-1 -60.787987914670254 -12.005166529641865 3.1192339303196661 0.71933979245794832 0 0.69465837861970381 I I #
point $-1 -56.671097046889415 -23.641254621033031 7.0948693187012788 #
point $-1 -56.671097046889415 -12.005166529641865 7.0948693187012788 #
edge $-1 $400 1 $400 0 $234 $-1 forward 7 unknown #
vertex $-1 $235 $401 #
ellipse-curve $-1 -57.881778147681779 -20.316658023492696 4.2291659785678704 -0.69465837861970381 0 0.71933979245794832 0.35966989622897416 0 0.3473291893098519 1 I I #
point $-1 -58.369872584550841 -20.316658023492696 5.4543808138203147 #
edge $-1 $402 1 $402 0 $238 $-1 forward 7 unknown #
vertex $-1 $239 $403 #
ellipse-curve $-1 -57.881778147681779 -15.329763127182197 4.2291659785678704 -0.69465837861970381 0 0.71933979245794832 0.35966989622897416 0 0.3473291893098519 1 I I #
point $-1 -58.369872584550841 -15.329763127182197 5.4543808138203147 #
plane-surface $-1 60.787987914670246 0 0 -1 0 0 0 0 1 forward_v I I I I #
coedge $-1 $247 $245 $249 $349 reversed $161 $-1 #
edge $-1 $260 -7.0948693187012788 $351 7.0948693187012788 $259 $404 forward 7 unknown #
vertex $-1 $349 $405 #
straight-curve $-1 -60.787987914670246 -29.816668543380676 0 0 0 -1 I I #
edge $-1 $347 -29.816668543380676 $351 29.816668543380676 $345 $406 forward 7 unknown #
straight-curve $-1 0 -29.816668543380676 -7.0948693187012788 -1 0 0 I I #
vertex $-1 $252 $407 #
straight-curve $-1 0 29.816668543380676 -7.0948693187012788 1 0 0 I I #
point $-1 60.787987914670246 29.816668543380676 -7.0948693187012788 #
point $-1 60.787987914670246 -29.816668543380676 -7.0948693187012788 #
straight-curve $-1 -60.787987914670246 0 7.0948693187012788 0 -1 0 I I #
point $-1 -60.787987914670246 29.816668543380676 7.0948693187012788 #
point $-1 -60.787987914670246 -29.816668543380676 7.0948693187012788 #
straight-curve $-1 60.787987914670246 -29.816668543380676 0 0 0 -1 I I #
straight-curve $-1 60.787987914670246 29.816668543380676 0 0 0 -1 I I #
plane-surface $-1 0 -29.816668543380676 0 0 1 0 0 0 1 forward_v I I I I #
coedge $-1 $408 $272 $284 $372 reversed $180 $-1 #
coedge $-1 $272 $408 $287 $374 reversed $180 $-1 #
edge $-1 $409 -60.787987914670246 $281 -57.550118814111904 $277 $410 forward 7 unknown #
straight-curve $-1 -57.550118814111904 -13.364480791103427 7.0948693187012788 0 1 0 I I #
coedge $-1 $284 $275 $278 $368 forward $270 $-1 #
straight-curve $-1 -57.550118814111904 -13.364480791103427 -7.0948693187012788 0 -1 0 I I #
coedge $-1 $278 $277 $408 $411 forward $279 $-1 #
edge $-1 $280 57.550118814111904 $412 60.787987914670246 $278 $413 forward 7 unknown #
point $-1 -57.550118814111904 -29.816668543380676 -7.0948693187012788 #
point $-1 -57.550118814111904 -29.816668543380676 7.0948693187012788 #
straight-curve $-1 -60.787987914670246 -23.641254621033031 0 0 0 -1 I I #
edge $-1 $412 -29.816668543380676 $285 -23.641254621033031 $361 $414 forward 7 unknown #
point $-1 -60.787987914670246 -23.641254621033031 -7.0948693187012788 #
edge $-1 $288 23.641254621033031 $409 29.816668543380676 $362 $415 forward 7 unknown #
point $-1 -60.787987914670246 -23.641254621033031 7.0948693187012788 #
edge $-1 $377 80.418851381292683 $380 84.394486769674302 $293 $416 forward 7 unknown #
vertex $-1 $307 $417 #
straight-curve $-1 28.893660471218954 -23.641254621033031 7.094869318701285 1 0 0 I I #
edge $-1 $380 -14.729649333364307 $304 -3.0935612419731413 $303 $418 forward 7 unknown #
vertex $-1 $379 $419 #
straight-curve $-1 -26.666449306280064 -23.641254621033031 87.573004179037611 -0.71933979245794832 0 0.69465837861970381 I I #
point $-1 56.671097046889393 -23.641254621033031 7.094869318701285 #
point $-1 60.787987914670246 -12.005166529641865 3.1192339303196661 #
straight-curve $-1 60.787987914670246 0 7.0948693187012788 0 1 0 I I #
vertex $-1 $310 $420 #
point $-1 58.241448043910772 -20.316658023492696 3.8818367892580152 #
vertex $-1 $314 $421 #
point $-1 58.241448043910772 -15.329763127182197 3.8818367892580152 #
coedge $-1 $323 $395 $320 $390 reversed $318 $-1 #
edge $-1 $325 12.005166529641865 $391 23.641254621033031 $389 $422 forward 7 unknown #
vertex $-1 $397 $423 #
straight-curve $-1 -29.584526682195538 -23.641254621033031 7.0948693187012788 1 0 0 I I #
straight-curve $-1 -60.787987914670246 -12.005166529641865 45.286835575634996 0 0 -1 I I #
point $-1 -60.787987914670246 -12.005166529641865 7.0948693187012788 #
coedge $-1 $389 $327 $329 $397 forward $318 $-1 #
straight-curve $-1 -60.787987914670246 -8.9116052876687242 3.1192339303196737 0 -1 0 I I #
edge $-1 $330 3.1192339303196732 $391 7.0948693187012788 $395 $424 forward 7 unknown #
point $-1 -60.787987914670246 -23.641254621033031 3.1192339303196732 #
point $-1 -60.787987914670246 -12.005166529641865 3.1192339303196728 #
vertex $-1 $336 $425 #
point $-1 -57.522108251452806 -20.316658023492696 4.5764951678777219 #
vertex $-1 $340 $426 #
point $-1 -57.522108251452806 -15.329763127182197 4.5764951678777219 #
straight-curve $-1 -60.787987914670246 29.816668543380676 0 0 0 -1 I I #
point $-1 -60.787987914670246 -29.816668543380676 -7.0948693187012788 #
straight-curve $-1 -60.787987914670246 0 -7.0948693187012788 0 1 0 I I #
point $-1 -60.787987914670246 29.816668543380676 -7.0948693187012788 #
coedge $-1 $362 $361 $367 $411 reversed $180 $-1 #
vertex $-1 $374 $427 #
straight-curve $-1 0 -29.816668543380676 7.0948693187012788 1 0 0 I I #
edge $-1 $409 -7.0948693187012788 $412 7.0948693187012788 $408 $428 forward 7 unknown #
vertex $-1 $372 $429 #
straight-curve $-1 0 -29.816668543380676 -7.0948693187012788 -1 0 0 I I #
straight-curve $-1 -60.787987914670246 0 -7.0948693187012788 0 1 0 I I #
straight-curve $-1 -60.787987914670246 0 7.0948693187012788 0 -1 0 I I #
straight-curve $-1 60.787987914670246 -23.641254621033031 87.513720699993968 0 0 -1 I I #
point $-1 60.787987914670246 -23.641254621033031 7.0948693187012788 #
straight-curve $-1 60.787987914670239 -8.9116052876687242 3.1192339303196661 0 1 0 I I #
point $-1 60.787987914670246 -23.641254621033031 3.1192339303196661 #
point $-1 57.534448958371947 -20.316658023492696 3.8694960823388929 #
point $-1 57.534448958371947 -15.329763127182197 3.8694960823388929 #
straight-curve $-1 -60.787987914670246 0 7.0948693187012788 0 -1 0 I I #
point $-1 -60.787987914670246 -23.641254621033031 7.0948693187012788 #
straight-curve $-1 -60.787987914670246 -23.641254621033031 0 0 0 1 I I #
point $-1 -57.534448958371932 -20.316658023492696 3.8694960823388964 #
point $-1 -57.534448958371932 -15.329763127182197 3.8694960823388964 #
point $-1 -60.787987914670246 -29.816668543380676 7.0948693187012788 #
straight-curve $-1 -60.787987914670246 -29.816668543380676 0 0 0 -1 I I #
point $-1 -60.787987914670246 -29.816668543380676 -7.0948693187012788 #
End-of-ACIS-data 