500 0 6 0           
7 Unknown 11 ACIS 5.0 NT 24 Thu Mar 25 20:11:53 1999 
-1 9.9999999999999995e-007 1e-010 
body $-1 $6 $-1 $7 #
body $-1 $8 $-1 $9 #
body $-1 $10 $-1 $11 #
body $-1 $12 $-1 $13 #
body $-1 $14 $-1 $15 #
body $-1 $16 $-1 $17 #
lump $-1 $-1 $18 $0 #
transform $-1 1 0 0 0 1 0 0 0 1 58.307443464461194 23.492203676670744 7.275363483069909 1 rotate no_reflect no_shear #
lump $-1 $-1 $19 $1 #
transform $-1 1 0 0 0 1 0 0 0 1 58.307443464461194 23.492203676670744 7.275363483069909 1 rotate no_reflect no_shear #
lump $-1 $-1 $20 $2 #
transform $-1 1 0 0 0 1 0 0 0 1 58.307443464461194 23.492203676670744 7.275363483069909 1 rotate no_reflect no_shear #
lump $-1 $-1 $21 $3 #
transform $-1 1 0 0 0 1 0 0 0 1 58.307443464461194 23.492203676670744 7.275363483069909 1 rotate no_reflect no_shear #
lump $-1 $-1 $22 $4 #
transform $-1 1 0 0 0 1 0 0 0 1 58.307443464461194 23.492203676670744 7.275363483069909 1 rotate no_reflect no_shear #
lump $-1 $-1 $23 $5 #
transform $-1 1 0 0 0 1 0 0 0 1 58.307443464461194 23.492203676670744 7.275363483069909 1 rotate no_reflect no_shear #
shell $-1 $-1 $-1 $24 $-1 $6 #
shell $-1 $-1 $-1 $25 $-1 $8 #
shell $-1 $-1 $-1 $26 $-1 $10 #
shell $-1 $-1 $-1 $27 $-1 $12 #
shell $-1 $-1 $-1 $28 $-1 $14 #
shell $-1 $-1 $-1 $29 $-1 $16 #
face $-1 $30 $31 $18 $-1 $32 forward single #
face $-1 $33 $34 $19 $-1 $35 forward single #
face $-1 $36 $37 $20 $-1 $38 reversed single #
face $-1 $39 $40 $21 $-1 $41 forward single #
face $-1 $42 $43 $22 $-1 $44 reversed single #
face $-1 $45 $46 $23 $-1 $47 forward single #
face $-1 $48 $49 $18 $-1 $50 reversed single #
loop $-1 $-1 $51 $24 #
plane-surface $-1 0 0 7.275363483069909 0 0 1 1 0 0 forward_v I I I I #
face $-1 $52 $53 $19 $-1 $54 reversed single #
loop $-1 $-1 $55 $25 #
plane-surface $-1 0 -19.880970535804245 1.5767964846306346 0 0 1 1 0 0 forward_v I I I I #
face $-1 $56 $57 $20 $-1 $58 reversed single #
loop $-1 $-1 $59 $26 #
plane-surface $-1 -137.83860605442391 12.33696695952445 88.073732457564873 0 1 0 -0.68199836817093118 0 0.7313536940579346 forward_v I I I I #
face $-1 $60 $61 $21 $-1 $62 forward single #
loop $-1 $63 $64 $27 #
cone-surface $-1 -54.932103271875356 16.342493747196169 3.9923243033969058 0.68199836817093118 0 -0.7313536940579346 1.0970305410869019 0 1.0229975522563968 1 I I 0 1 1.5 forward I I I I #
face $-1 $65 $66 $22 $-1 $67 reversed single #
loop $-1 $-1 $68 $28 #
plane-surface $-1 -11.87314613986095 20.379211957570252 94.470970166903754 0.79863551827123203 0 0.60181501223851219 0.60181501223851219 0 -0.79863551827123203 forward_v I I I I #
face $-1 $69 $70 $23 $-1 $71 forward single #
loop $-1 $72 $73 $29 #
cone-surface $-1 55.642468410187284 20.379211957570252 3.9842649879041896 -0.79863551827123203 0 -0.60181501223851219 0.60181501223851219 0 -0.79863551827123203 1 I I 0 1 1 forward I I I I #
face $-1 $74 $75 $18 $-1 $76 reversed single #
loop $-1 $-1 $77 $30 #
plane-surface $-1 0 0 -7.275363483069909 0 0 1 1 0 0 forward_v I I I I #
coedge $-1 $78 $79 $80 $81 forward $31 $-1 #
face $-1 $82 $83 $19 $-1 $84 reversed single #
loop $-1 $-1 $85 $33 #
plane-surface $-1 0 -19.880970535804245 -1.8241756097196267 0 0 1 1 0 0 forward_v I I I I #
coedge $-1 $86 $87 $88 $89 reversed $34 $-1 #
face $-1 $90 $91 $20 $-1 $92 reversed single #
loop $-1 $-1 $93 $36 #
plane-surface $-1 -58.307443464461173 16.342493747196169 2.7870041199491169 -0.68199836817093118 0 0.7313536940579346 0.7313536940579346 0 0.68199836817093118 forward_v I I I I #
coedge $-1 $94 $95 $96 $97 reversed $37 $-1 #
face $-1 $-1 $98 $21 $-1 $99 forward single #
loop $-1 $100 $101 $39 #
cone-surface $-1 -53.45185231984641 16.342493747196169 2.4049495347408412 0.68199836817093118 0 -0.7313536940579346 0.54851527054345095 0 0.51149877612819838 1 I I -0.70710678118654757 0.70710678118654757 0.75 forward I I I I #
loop $-1 $-1 $102 $27 #
coedge $-1 $64 $64 $103 $104 reversed $40 $-1 #
face $-1 $105 $106 $22 $-1 $107 forward single #
loop $-1 $-1 $108 $42 #
plane-surface $-1 81.259644520760105 17.26622023846976 164.65155977122589 0 1 0 0.79863551827123203 0 0.60181501223851219 forward_v I I I I #
coedge $-1 $109 $110 $111 $112 reversed $43 $-1 #
face $-1 $-1 $113 $23 $-1 $114 forward single #
loop $-1 $115 $116 $45 #
cone-surface $-1 54.815170049132554 20.379211957570252 3.3608509750128102 -0.79863551827123203 0 -0.60181501223851219 0.3009075061192561 0 -0.39931775913561601 1 I I -0.70710678118654746 0.70710678118654746 0.5 forward I I I I #
loop $-1 $-1 $117 $29 #
coedge $-1 $73 $73 $118 $119 reversed $46 $-1 #
face $-1 $120 $121 $18 $-1 $122 reversed single #
loop $-1 $-1 $123 $48 #
plane-surface $-1 0 -23.492203676670744 0 0 1 0 0 0 1 forward_v I I I I #
coedge $-1 $124 $125 $126 $127 forward $49 $-1 #
coedge $-1 $128 $51 $129 $130 forward $31 $-1 #
coedge $-1 $51 $128 $131 $132 forward $31 $-1 #
coedge $-1 $133 $134 $51 $81 reversed $135 $-1 #
edge $-1 $136 -23.492203676670744 $137 23.492203676670744 $80 $138 forward 7 unknown #
face $-1 $139 $140 $19 $-1 $141 reversed single #
loop $-1 $-1 $142 $52 #
plane-surface $-1 0 -16.269737394937746 -0.12368956254449603 0 -1 0 0 0 -1 forward_v I I I I #
coedge $-1 $143 $144 $145 $146 reversed $53 $-1 #
coedge $-1 $147 $55 $148 $149 forward $34 $-1 #
coedge $-1 $55 $147 $150 $151 reversed $34 $-1 #
coedge $-1 $152 $153 $55 $89 forward $154 $-1 #
edge $-1 $155 6.3292521270356232 $156 13.551718408768622 $88 $157 forward 7 unknown #
face $-1 $158 $159 $20 $-1 $160 reversed single #
loop $-1 $-1 $161 $56 #
plane-surface $-1 -137.83860605442391 20.348020534867889 88.073732457564873 0 -1 0 0.68199836817093118 0 -0.7313536940579346 forward_v I I I I #
coedge $-1 $162 $163 $164 $165 reversed $57 $-1 #
coedge $-1 $95 $59 $166 $167 reversed $37 $-1 #
coedge $-1 $59 $94 $162 $168 reversed $37 $-1 #
coedge $-1 $164 $169 $59 $97 forward $170 $-1 #
edge $-1 $171 10.611859562750759 $172 15.425035596120978 $96 $173 forward 7 unknown #
loop $-1 $-1 $103 $60 #
plane-surface $-1 -58.307443464461173 16.342493747196169 2.7870041199491169 -0.68199836817093118 0 0.7313536940579346 0.7313536940579346 0 0.68199836817093118 forward_v I I I I #
loop $-1 $-1 $174 $39 #
coedge $-1 $101 $101 $102 $175 reversed $61 $-1 #
coedge $-1 $102 $102 $101 $175 forward $63 $-1 #
coedge $-1 $103 $103 $64 $104 forward $98 $-1 #
edge $-1 $176 0 $176 6.2831853071796004 $103 $177 forward 7 unknown #
face $-1 $178 $179 $22 $-1 $180 reversed single #
loop $-1 $-1 $111 $65 #
plane-surface $-1 0 0 7.275363483069909 0 0 1 1 0 0 forward_v I I I I #
coedge $-1 $181 $182 $183 $184 reversed $66 $-1 #
coedge $-1 $185 $68 $186 $187 reversed $43 $-1 #
coedge $-1 $68 $185 $181 $188 forward $43 $-1 #
coedge $-1 $183 $189 $68 $112 forward $106 $-1 #
edge $-1 $190 -13.302597697885618 $191 -7.076614259684634 $111 $192 forward 7 unknown #
loop $-1 $-1 $118 $69 #
plane-surface $-1 -11.87314613986095 20.379211957570252 94.470970166903754 0.79863551827123203 0 0.60181501223851219 0.60181501223851219 0 -0.79863551827123203 forward_v I I I I #
loop $-1 $-1 $193 $45 #
coedge $-1 $116 $116 $117 $194 reversed $70 $-1 #
coedge $-1 $117 $117 $116 $194 forward $72 $-1 #
coedge $-1 $118 $118 $73 $119 forward $113 $-1 #
edge $-1 $195 0 $195 6.2831853071796004 $118 $196 forward 7 unknown #
face $-1 $197 $198 $18 $-1 $199 reversed single #
loop $-1 $-1 $200 $74 #
plane-surface $-1 -58.307443464461194 0 0 1 0 0 0 0 -1 forward_v I I I I #
coedge $-1 $201 $131 $202 $203 forward $75 $-1 #
coedge $-1 $204 $77 $201 $205 forward $49 $-1 #
coedge $-1 $77 $204 $206 $207 forward $49 $-1 #
coedge $-1 $134 $133 $77 $127 reversed $135 $-1 #
edge $-1 $208 -23.492203676670744 $209 23.492203676670744 $126 $210 forward 7 unknown #
coedge $-1 $79 $78 $211 $212 forward $31 $-1 #
coedge $-1 $213 $214 $78 $130 reversed $198 $-1 #
edge $-1 $137 -58.307443464461194 $215 58.307443464461194 $129 $216 forward 7 unknown #
coedge $-1 $123 $217 $79 $132 reversed $75 $-1 #
edge $-1 $218 -58.307443464461194 $136 58.307443464461194 $131 $219 forward 7 unknown #
coedge $-1 $126 $80 $217 $220 forward $135 $-1 #
coedge $-1 $80 $126 $213 $221 reversed $135 $-1 #
loop $-1 $-1 $133 $197 #
vertex $-1 $81 $222 #
vertex $-1 $81 $223 #
straight-curve $-1 58.307443464461194 0 7.275363483069909 0 1 0 I I #
face $-1 $224 $225 $19 $-1 $226 reversed single #
loop $-1 $-1 $227 $82 #
plane-surface $-1 -58.307443464461194 0 0 1 0 0 0 0 -1 forward_v I I I I #
coedge $-1 $228 $148 $153 $229 reversed $83 $-1 #
coedge $-1 $230 $85 $231 $232 reversed $53 $-1 #
coedge $-1 $85 $230 $228 $233 forward $53 $-1 #
coedge $-1 $153 $152 $85 $146 forward $154 $-1 #
edge $-1 $234 -13.551718408768622 $235 -6.3292521270356232 $145 $236 forward 7 unknown #
coedge $-1 $87 $86 $227 $237 reversed $34 $-1 #
coedge $-1 $142 $238 $86 $149 reversed $83 $-1 #
edge $-1 $155 -58.307443464461194 $239 58.307443464461194 $148 $240 forward 7 unknown #
coedge $-1 $241 $242 $87 $151 forward $225 $-1 #
edge $-1 $156 -58.307443464461194 $243 58.307443464461194 $150 $244 forward 7 unknown #
coedge $-1 $145 $88 $242 $245 forward $154 $-1 #
coedge $-1 $88 $145 $142 $229 forward $154 $-1 #
loop $-1 $-1 $88 $224 #
vertex $-1 $89 $246 #
vertex $-1 $245 $247 #
straight-curve $-1 58.307443464461194 -9.9404852679021225 1.5767964846306346 0 -1 0 I I #
face $-1 $-1 $170 $20 $-1 $248 forward single #
loop $-1 $-1 $249 $90 #
plane-surface $-1 -58.307443464461194 0 0 1 0 0 0 0 -1 forward_v I I I I #
coedge $-1 $250 $251 $252 $253 reversed $91 $-1 #
coedge $-1 $254 $93 $95 $168 forward $57 $-1 #
coedge $-1 $93 $254 $250 $255 forward $57 $-1 #
coedge $-1 $252 $96 $93 $165 forward $170 $-1 #
edge $-1 $172 4.165720085926365 $256 12.176773661269804 $164 $257 forward 7 unknown #
coedge $-1 $258 $259 $94 $167 forward $159 $-1 #
edge $-1 $260 -41.249862108833341 $171 -36.761502745712527 $166 $261 forward 7 unknown #
edge $-1 $172 -6.5811878335695111 $260 2.9218806877328148e-014 $95 $262 forward 7 unknown #
coedge $-1 $96 $252 $258 $263 forward $170 $-1 #
loop $-1 $-1 $252 $158 #
vertex $-1 $167 $264 #
vertex $-1 $97 $265 #
straight-curve $-1 -68.919303027211953 12.33696695952445 7.2753634830699099 1 0 0 I I #
coedge $-1 $174 $174 $-1 $266 reversed $100 $-1 #
edge $-1 $267 0 $267 6.2831853071796004 $101 $268 forward 7 unknown #
vertex $-1 $104 $269 #
ellipse-curve $-1 -55.900855447776088 16.342493747196169 5.031183801509501 -0.68199836817093118 0 0.7313536940579346 1.0970305410869019 0 1.0229975522563968 1 I I #
face $-1 $-1 $270 $22 $-1 $271 reversed single #
loop $-1 $-1 $272 $105 #
plane-surface $-1 58.307443464461194 0 0 -1 0 0 0 0 1 forward_v I I I I #
coedge $-1 $182 $108 $110 $188 reversed $66 $-1 #
coedge $-1 $108 $181 $273 $274 reversed $66 $-1 #
coedge $-1 $275 $111 $108 $184 forward $106 $-1 #
edge $-1 $191 13.203632299371534 $276 17.677621204081142 $183 $277 forward 7 unknown #
coedge $-1 $110 $109 $272 $278 reversed $43 $-1 #
coedge $-1 $279 $280 $109 $187 forward $270 $-1 #
edge $-1 $281 -75.318232023771699 $190 -67.884072333955828 $186 $282 forward 7 unknown #
edge $-1 $283 -116.61488692892237 $191 -109.18072723910649 $181 $284 forward 7 unknown #
coedge $-1 $111 $275 $279 $285 forward $106 $-1 #
vertex $-1 $187 $286 #
vertex $-1 $112 $287 #
straight-curve $-1 53.833454559751587 10.189605978785126 7.2753634830699099 0 -1 0 I I #
coedge $-1 $193 $193 $-1 $288 reversed $115 $-1 #
edge $-1 $289 0 $289 6.2831853071796004 $116 $290 forward 7 unknown #
vertex $-1 $119 $291 #
ellipse-curve $-1 56.070449012106394 20.379211957570252 4.3067714946763074 0.79863551827123203 0 0.60181501223851219 0.60181501223851219 0 -0.79863551827123203 1 I I #
face $-1 $-1 $135 $18 $-1 $292 reversed single #
loop $-1 $-1 $213 $120 #
plane-surface $-1 0 23.492203676670744 0 0 -1 0 0 0 -1 forward_v I I I I #
coedge $-1 $293 $211 $214 $294 forward $121 $-1 #
coedge $-1 $217 $123 $124 $205 reversed $75 $-1 #
coedge $-1 $211 $293 $123 $203 reversed $121 $-1 #
edge $-1 $218 -7.275363483069909 $295 7.275363483069909 $202 $296 forward 7 unknown #
coedge $-1 $125 $124 $293 $297 forward $49 $-1 #
edge $-1 $209 -58.307443464461194 $295 58.307443464461194 $201 $298 forward 7 unknown #
coedge $-1 $214 $213 $125 $207 reversed $198 $-1 #
edge $-1 $299 -58.307443464461194 $208 58.307443464461194 $206 $300 forward 7 unknown #
vertex $-1 $127 $301 #
vertex $-1 $220 $302 #
straight-curve $-1 58.307443464461194 0 -7.275363483069909 0 -1 0 I I #
coedge $-1 $200 $202 $128 $212 reversed $121 $-1 #
edge $-1 $215 -23.492203676670744 $218 23.492203676670744 $211 $303 forward 7 unknown #
coedge $-1 $206 $129 $134 $221 forward $198 $-1 #
coedge $-1 $129 $206 $200 $294 reversed $198 $-1 #
vertex $-1 $130 $304 #
straight-curve $-1 0 23.492203676670744 7.275363483069909 -1 0 0 I I #
coedge $-1 $131 $201 $133 $220 reversed $75 $-1 #
vertex $-1 $212 $305 #
straight-curve $-1 0 -23.492203676670744 7.275363483069909 1 0 0 I I #
edge $-1 $136 -7.275363483069909 $209 7.275363483069909 $133 $306 forward 7 unknown #
edge $-1 $137 -7.275363483069909 $208 7.275363483069909 $134 $307 forward 7 unknown #
point $-1 58.307443464461194 -23.492203676670744 7.275363483069909 #
point $-1 58.307443464461194 23.492203676670744 7.275363483069909 #
face $-1 $-1 $154 $19 $-1 $308 reversed single #
loop $-1 $-1 $150 $139 #
plane-surface $-1 0 -23.492203676670744 0 0 1 0 0 0 1 forward_v I I I I #
coedge $-1 $309 $310 $147 $237 forward $140 $-1 #
coedge $-1 $238 $142 $144 $233 reversed $83 $-1 #
edge $-1 $235 -1.7623308284473787 $155 1.6386412659028826 $153 $311 forward 7 unknown #
coedge $-1 $144 $143 $312 $313 reversed $53 $-1 #
coedge $-1 $242 $241 $143 $232 forward $225 $-1 #
edge $-1 $314 -58.307443464461194 $234 58.307443464461194 $231 $315 forward 7 unknown #
edge $-1 $316 -58.307443464461194 $235 58.307443464461194 $228 $317 forward 7 unknown #
vertex $-1 $232 $318 #
vertex $-1 $146 $319 #
straight-curve $-1 58.307443464461194 -9.9404852679021225 -1.8241756097196267 0 1 0 I I #
edge $-1 $243 -13.551718408768622 $239 -6.3292521270356232 $227 $320 forward 7 unknown #
coedge $-1 $148 $228 $309 $321 reversed $83 $-1 #
vertex $-1 $237 $322 #
straight-curve $-1 0 -16.269737394937746 1.5767964846306346 -1 0 0 I I #
coedge $-1 $231 $150 $310 $323 forward $225 $-1 #
coedge $-1 $150 $231 $152 $245 reversed $225 $-1 #
vertex $-1 $323 $324 #
straight-curve $-1 0 -23.492203676670744 1.5767964846306346 -1 0 0 I I #
edge $-1 $156 -1.5767964846306346 $234 1.8241756097196267 $152 $325 forward 7 unknown #
point $-1 58.307443464461194 -16.269737394937746 1.5767964846306346 #
point $-1 58.307443464461194 -23.492203676670744 1.5767964846306346 #
plane-surface $-1 0 0 7.275363483069909 0 0 1 1 0 0 forward_v I I I I #
coedge $-1 $259 $258 $251 $326 forward $159 $-1 #
coedge $-1 $251 $161 $163 $255 reversed $91 $-1 #
coedge $-1 $161 $250 $249 $326 reversed $91 $-1 #
coedge $-1 $169 $164 $161 $253 forward $170 $-1 #
edge $-1 $256 -15.425035596120978 $327 -10.611859562750759 $252 $328 forward 7 unknown #
coedge $-1 $163 $162 $259 $329 reversed $57 $-1 #
edge $-1 $330 -2.9218806877328148e-014 $256 6.5811878335695111 $250 $331 forward 7 unknown #
vertex $-1 $165 $332 #
straight-curve $-1 -53.494267431090975 8.1712468735980845 7.2753634830699099 0 1 0 I I #
coedge $-1 $249 $166 $169 $263 reversed $159 $-1 #
coedge $-1 $166 $249 $254 $329 forward $159 $-1 #
vertex $-1 $167 $333 #
straight-curve $-1 -58.307443464461194 12.33696695952445 44.036866228782436 0 0 1 I I #
straight-curve $-1 -58.307443464461173 12.33696695952445 2.7870041199491169 -0.7313536940579346 0 -0.68199836817093118 I I #
edge $-1 $327 -20.348020534867889 $171 -12.33696695952445 $258 $334 forward 7 unknown #
point $-1 -58.307443464461194 12.33696695952445 7.275363483069909 #
point $-1 -53.494267431090975 12.33696695952445 7.275363483069909 #
edge $-1 $335 1 $335 0 $174 $-1 forward 7 unknown #
vertex $-1 $175 $336 #
ellipse-curve $-1 -53.963351095974609 16.342493747196169 2.953464805284292 -0.68199836817093118 0 0.7313536940579346 1.0970305410869019 0 1.0229975522563968 1 I I #
point $-1 -54.803824906689208 16.342493747196169 6.0541813537659159 #
loop $-1 $-1 $186 $178 #
plane-surface $-1 0 23.492203676670744 0 0 -1 0 0 0 -1 forward_v I I I I #
coedge $-1 $337 $273 $185 $278 forward $179 $-1 #
coedge $-1 $272 $338 $182 $274 forward $179 $-1 #
edge $-1 $276 75.050416402543036 $283 80.987600379330232 $273 $339 forward 7 unknown #
coedge $-1 $189 $183 $338 $340 forward $106 $-1 #
vertex $-1 $340 $341 #
straight-curve $-1 40.629822260380053 17.26622023846976 7.2753634830699099 1 0 0 I I #
edge $-1 $283 7.076614259684634 $281 13.302597697885618 $272 $342 forward 7 unknown #
coedge $-1 $280 $186 $189 $285 reversed $270 $-1 #
coedge $-1 $186 $279 $337 $343 forward $270 $-1 #
vertex $-1 $187 $344 #
straight-curve $-1 12.979800737291917 23.492203676670744 61.489994773860531 -0.60181501223851219 0 0.79863551827123203 I I #
vertex $-1 $278 $345 #
straight-curve $-1 -11.87314613986095 17.26622023846976 94.470970166903754 -0.60181501223851219 0 0.79863551827123203 I I #
edge $-1 $346 -58.307443464461194 $190 -53.833454559751587 $279 $347 forward 7 unknown #
point $-1 53.833454559751587 23.492203676670744 7.2753634830699099 #
point $-1 53.833454559751587 17.26622023846976 7.2753634830699099 #
edge $-1 $348 1 $348 0 $193 $-1 forward 7 unknown #
vertex $-1 $194 $349 #
ellipse-curve $-1 55.214487808268167 20.379211957570252 3.6617584811320665 0.79863551827123203 0 0.60181501223851219 0.60181501223851219 0 -0.79863551827123203 1 I I #
point $-1 56.672264024344919 20.379211957570252 3.5081359764050806 #
plane-surface $-1 58.307443464461194 0 0 -1 0 0 0 0 1 forward_v I I I I #
coedge $-1 $202 $200 $204 $297 reversed $121 $-1 #
edge $-1 $215 -7.275363483069909 $299 7.275363483069909 $214 $350 forward 7 unknown #
vertex $-1 $297 $351 #
straight-curve $-1 -58.307443464461194 -23.492203676670744 0 0 0 -1 I I #
edge $-1 $295 -23.492203676670744 $299 23.492203676670744 $293 $352 forward 7 unknown #
straight-curve $-1 0 -23.492203676670744 -7.275363483069909 -1 0 0 I I #
vertex $-1 $207 $353 #
straight-curve $-1 0 23.492203676670744 -7.275363483069909 1 0 0 I I #
point $-1 58.307443464461194 23.492203676670744 -7.275363483069909 #
point $-1 58.307443464461194 -23.492203676670744 -7.275363483069909 #
straight-curve $-1 -58.307443464461194 0 7.275363483069909 0 -1 0 I I #
point $-1 -58.307443464461194 23.492203676670744 7.275363483069909 #
point $-1 -58.307443464461194 -23.492203676670744 7.275363483069909 #
straight-curve $-1 58.307443464461194 -23.492203676670744 0 0 0 -1 I I #
straight-curve $-1 58.307443464461194 23.492203676670744 0 0 0 -1 I I #
plane-surface $-1 58.307443464461194 0 0 -1 0 0 0 0 1 forward_v I I I I #
coedge $-1 $312 $227 $238 $321 forward $140 $-1 #
coedge $-1 $227 $312 $241 $323 reversed $140 $-1 #
straight-curve $-1 58.307443464461194 -16.269737394937746 -0.061844781272248017 0 0 1 I I #
coedge $-1 $310 $309 $230 $313 forward $140 $-1 #
edge $-1 $316 6.3292521270356232 $314 13.551718408768622 $312 $354 forward 7 unknown #
vertex $-1 $232 $355 #
straight-curve $-1 0 -23.492203676670744 -1.8241756097196267 1 0 0 I I #
vertex $-1 $313 $356 #
straight-curve $-1 0 -16.269737394937746 -1.8241756097196267 1 0 0 I I #
point $-1 58.307443464461194 -23.492203676670744 -1.8241756097196267 #
point $-1 58.307443464461194 -16.269737394937746 -1.8241756097196267 #
straight-curve $-1 -58.307443464461194 -9.9404852679021225 1.5767964846306346 0 1 0 I I #
edge $-1 $239 -1.6386412659028826 $316 1.7623308284473787 $309 $357 forward 7 unknown #
point $-1 -58.307443464461194 -16.269737394937746 1.5767964846306346 #
edge $-1 $243 -1.5767964846306346 $314 1.8241756097196267 $310 $358 forward 7 unknown #
point $-1 -58.307443464461194 -23.492203676670744 1.5767964846306346 #
straight-curve $-1 58.307443464461194 -23.492203676670744 0 0 0 -1 I I #
edge $-1 $327 36.761502745712527 $330 41.249862108833341 $249 $359 forward 7 unknown #
vertex $-1 $263 $360 #
straight-curve $-1 -68.919303027211953 20.348020534867889 7.2753634830699099 -1 0 0 I I #
edge $-1 $330 -12.176773661269804 $260 -4.165720085926365 $259 $361 forward 7 unknown #
vertex $-1 $329 $362 #
straight-curve $-1 -58.307443464461173 20.348020534867889 2.7870041199491169 0.7313536940579346 0 0.68199836817093118 I I #
point $-1 -53.494267431090975 20.348020534867889 7.275363483069909 #
point $-1 -58.307443464461194 12.33696695952445 2.7870041199490969 #
straight-curve $-1 -58.307443464461194 0 7.275363483069909 0 -1 0 I I #
vertex $-1 $266 $363 #
point $-1 -52.866320554887707 16.342493747196169 3.9764623575406888 #
coedge $-1 $338 $272 $280 $343 reversed $179 $-1 #
coedge $-1 $273 $337 $275 $340 reversed $179 $-1 #
straight-curve $-1 58.307443464461194 17.26622023846976 82.325779885612945 0 0 -1 I I #
edge $-1 $276 17.26622023846976 $346 23.492203676670744 $338 $364 forward 7 unknown #
point $-1 58.307443464461194 17.26622023846976 7.275363483069909 #
straight-curve $-1 58.307443464461201 10.189605978785126 1.3381795062826995 0 1 0 I I #
edge $-1 $346 -7.275363483069909 $281 -1.3381795062827138 $337 $365 forward 7 unknown #
point $-1 58.307443464461187 23.492203676670744 1.3381795062827138 #
point $-1 58.307443464461187 17.26622023846976 1.3381795062827138 #
vertex $-1 $340 $366 #
straight-curve $-1 0 23.492203676670744 7.275363483069909 -1 0 0 I I #
vertex $-1 $288 $367 #
point $-1 55.816302820506685 20.379211957570252 2.8631229628608343 #
straight-curve $-1 -58.307443464461194 23.492203676670744 0 0 0 -1 I I #
point $-1 -58.307443464461194 -23.492203676670744 -7.275363483069909 #
straight-curve $-1 -58.307443464461194 0 -7.275363483069909 0 1 0 I I #
point $-1 -58.307443464461194 23.492203676670744 -7.275363483069909 #
straight-curve $-1 -58.307443464461194 -9.9404852679021225 -1.8241756097196267 0 -1 0 I I #
point $-1 -58.307443464461194 -23.492203676670744 -1.8241756097196267 #
point $-1 -58.307443464461194 -16.269737394937746 -1.8241756097196267 #
straight-curve $-1 -58.307443464461194 -16.269737394937746 -0.061844781272248017 0 0 -1 I I #
straight-curve $-1 -58.307443464461194 -23.492203676670744 0 0 0 -1 I I #
straight-curve $-1 -58.307443464461194 20.348020534867889 44.036866228782436 0 0 -1 I I #
point $-1 -58.307443464461194 20.348020534867889 7.275363483069909 #
straight-curve $-1 -58.307443464461194 8.1712468735980845 2.7870041199491 0 -1 0 I I #
point $-1 -58.307443464461194 20.348020534867889 2.7870041199490969 #
point $-1 -52.94035354371821 16.342493747196169 1.8564342641973903 #
straight-curve $-1 58.307443464461194 0 7.275363483069909 0 1 0 I I #
straight-curve $-1 58.307443464461194 23.492203676670744 0 0 0 -1 I I #
point $-1 58.307443464461194 23.492203676670744 7.275363483069909 #
point $-1 54.415852289996941 20.379211957570252 3.0599434688935538 #
End-of-ACIS-data 