500 0 17 0           
7 Unknown 11 ACIS 5.0 NT 24 Fri Mar 26 15:18:21 1999 
-1 9.9999999999999995e-007 1e-010 
body $-1 $17 $-1 $18 #
body $-1 $19 $-1 $20 #
body $-1 $21 $-1 $22 #
body $-1 $23 $-1 $24 #
body $-1 $25 $-1 $26 #
body $-1 $27 $-1 $28 #
body $-1 $29 $-1 $30 #
body $-1 $31 $-1 $32 #
body $-1 $33 $-1 $34 #
body $-1 $35 $-1 $36 #
body $-1 $37 $-1 $38 #
body $-1 $39 $-1 $40 #
body $-1 $41 $-1 $42 #
body $-1 $43 $-1 $44 #
body $-1 $45 $-1 $46 #
body $-1 $47 $-1 $48 #
body $-1 $49 $-1 $50 #
lump $-1 $-1 $51 $0 #
transform $-1 1 0 0 0 1 0 0 0 1 65.705130161442924 31.677504615173639 6.9642752692278167 1 rotate no_reflect no_shear #
lump $-1 $-1 $52 $1 #
transform $-1 1 0 0 0 1 0 0 0 1 65.705130161442924 31.677504615173639 6.9642752692278167 1 rotate no_reflect no_shear #
lump $-1 $-1 $53 $2 #
transform $-1 1 0 0 0 1 0 0 0 1 65.705130161442924 31.677504615173639 6.9642752692278167 1 rotate no_reflect no_shear #
lump $-1 $-1 $54 $3 #
transform $-1 1 0 0 0 1 0 0 0 1 65.705130161442924 31.677504615173639 6.9642752692278167 1 rotate no_reflect no_shear #
lump $-1 $-1 $55 $4 #
transform $-1 1 0 0 0 1 0 0 0 1 65.705130161442924 31.677504615173639 6.9642752692278167 1 rotate no_reflect no_shear #
lump $-1 $-1 $56 $5 #
transform $-1 1 0 0 0 1 0 0 0 1 65.705130161442924 31.677504615173639 6.9642752692278167 1 rotate no_reflect no_shear #
lump $-1 $-1 $57 $6 #
transform $-1 1 0 0 0 1 0 0 0 1 65.705130161442924 31.677504615173639 6.9642752692278167 1 rotate no_reflect no_shear #
lump $-1 $-1 $58 $7 #
transform $-1 1 0 0 0 1 0 0 0 1 65.705130161442924 31.677504615173639 6.9642752692278167 1 rotate no_reflect no_shear #
lump $-1 $-1 $59 $8 #
transform $-1 1 0 0 0 1 0 0 0 1 65.705130161442924 31.677504615173639 6.9642752692278167 1 rotate no_reflect no_shear #
lump $-1 $-1 $60 $9 #
transform $-1 1 0 0 0 1 0 0 0 1 65.705130161442924 31.677504615173639 6.9642752692278167 1 rotate no_reflect no_shear #
lump $-1 $-1 $61 $10 #
transform $-1 1 0 0 0 1 0 0 0 1 65.705130161442924 31.677504615173639 6.9642752692278167 1 rotate no_reflect no_shear #
lump $-1 $-1 $62 $11 #
transform $-1 1 0 0 0 1 0 0 0 1 65.705130161442924 31.677504615173639 6.9642752692278167 1 rotate no_reflect no_shear #
lump $-1 $-1 $63 $12 #
transform $-1 1 0 0 0 1 0 0 0 1 65.705130161442924 31.677504615173639 6.9642752692278167 1 rotate no_reflect no_shear #
lump $-1 $-1 $64 $13 #
transform $-1 1 0 0 0 1 0 0 0 1 65.705130161442924 31.677504615173639 6.9642752692278167 1 rotate no_reflect no_shear #
lump $-1 $-1 $65 $14 #
transform $-1 1 0 0 0 1 0 0 0 1 65.705130161442924 31.677504615173639 6.9642752692278167 1 rotate no_reflect no_shear #
lump $-1 $-1 $66 $15 #
transform $-1 1 0 0 0 1 0 0 0 1 65.705130161442924 31.677504615173639 6.9642752692278167 1 rotate no_reflect no_shear #
lump $-1 $-1 $67 $16 #
transform $-1 1 0 0 0 1 0 0 0 1 65.705130161442924 31.677504615173639 6.9642752692278167 1 rotate no_reflect no_shear #
shell $-1 $-1 $-1 $68 $-1 $17 #
shell $-1 $-1 $-1 $69 $-1 $19 #
shell $-1 $-1 $-1 $70 $-1 $21 #
shell $-1 $-1 $-1 $71 $-1 $23 #
shell $-1 $-1 $-1 $72 $-1 $25 #
shell $-1 $-1 $-1 $73 $-1 $27 #
shell $-1 $-1 $-1 $74 $-1 $29 #
shell $-1 $-1 $-1 $75 $-1 $31 #
shell $-1 $-1 $-1 $76 $-1 $33 #
shell $-1 $-1 $-1 $77 $-1 $35 #
shell $-1 $-1 $-1 $78 $-1 $37 #
shell $-1 $-1 $-1 $79 $-1 $39 #
shell $-1 $-1 $-1 $80 $-1 $41 #
shell $-1 $-1 $-1 $81 $-1 $43 #
shell $-1 $-1 $-1 $82 $-1 $45 #
shell $-1 $-1 $-1 $83 $-1 $47 #
shell $-1 $-1 $-1 $84 $-1 $49 #
face $-1 $85 $86 $51 $-1 $87 forward single #
face $-1 $88 $89 $52 $-1 $90 reversed single #
face $-1 $91 $92 $53 $-1 $93 forward single #
face $-1 $94 $95 $54 $-1 $96 forward single #
face $-1 $97 $98 $55 $-1 $99 forward single #
face $-1 $100 $101 $56 $-1 $102 reversed single #
face $-1 $103 $104 $57 $-1 $105 forward single #
face $-1 $106 $107 $58 $-1 $108 forward single #
face $-1 $109 $110 $59 $-1 $111 forward single #
face $-1 $112 $113 $60 $-1 $114 reversed single #
face $-1 $115 $116 $61 $-1 $117 forward single #
face $-1 $118 $119 $62 $-1 $120 forward single #
face $-1 $121 $122 $63 $-1 $123 forward single #
face $-1 $124 $125 $64 $-1 $126 reversed single #
face $-1 $127 $128 $65 $-1 $129 forward single #
face $-1 $130 $131 $66 $-1 $132 forward single #
face $-1 $133 $134 $67 $-1 $135 forward single #
face $-1 $136 $137 $51 $-1 $138 reversed single #
loop $-1 $-1 $139 $68 #
plane-surface $-1 0 0 6.9642752692278167 0 0 1 1 0 0 forward_v I I I I #
face $-1 $140 $141 $52 $-1 $142 reversed single #
loop $-1 $-1 $143 $69 #
plane-surface $-1 -11.535881376059749 -26.875825430009911 108.61049576540427 0.80901700255871778 0 0.5877852410284794 0.5877852410284794 0 -0.80901700255871778 forward_v I I I I #
face $-1 $144 $145 $53 $-1 $146 forward single #
loop $-1 $147 $148 $70 #
cone-surface $-1 63.605265811016466 -29.756832941108147 4.3369254408608517 -0.80901700255871778 0 -0.5877852410284794 0.14694631025711985 0 -0.20225425063967944 1 I I 0 1 0.25 forward I I I I #
face $-1 $149 $150 $54 $-1 $151 forward single #
loop $-1 $152 $153 $71 #
cone-surface $-1 63.605265811016466 -26.875825430009911 4.3369254408608517 -0.80901700255871778 0 -0.5877852410284794 0.14694631025711985 0 -0.20225425063967944 1 I I 0 1 0.25 forward I I I I #
face $-1 $154 $155 $55 $-1 $156 forward single #
loop $-1 $157 $158 $72 #
cone-surface $-1 63.605265811016466 -23.994817918911679 4.3369254408608517 -0.80901700255871778 0 -0.5877852410284794 0.14694631025711985 0 -0.20225425063967944 1 I I 0 1 0.25 forward I I I I #
face $-1 $159 $160 $56 $-1 $161 reversed single #
loop $-1 $-1 $162 $73 #
plane-surface $-1 94.777253535822155 -13.760287661833699 185.85150730290695 0 1 0 0.80901700255871778 0 0.5877852410284794 forward_v I I I I #
face $-1 $163 $164 $57 $-1 $165 forward single #
loop $-1 $166 $167 $74 #
cone-surface $-1 63.605265811016466 -11.839615987768205 4.3369254408608517 -0.80901700255871778 0 -0.5877852410284794 0.14694631025711985 0 -0.20225425063967944 1 I I 0 1 0.25 forward I I I I #
face $-1 $168 $169 $58 $-1 $170 forward single #
loop $-1 $171 $172 $75 #
cone-surface $-1 63.605265811016466 -8.9586084766699727 4.3369254408608517 -0.80901700255871778 0 -0.5877852410284794 0.14694631025711985 0 -0.20225425063967944 1 I I 0 1 0.25 forward I I I I #
face $-1 $173 $174 $59 $-1 $175 forward single #
loop $-1 $176 $177 $76 #
cone-surface $-1 63.605265811016466 -6.0776009655717331 4.3369254408608517 -0.80901700255871778 0 -0.5877852410284794 0.14694631025711985 0 -0.20225425063967944 1 I I 0 1 0.25 forward I I I I #
face $-1 $178 $179 $60 $-1 $180 reversed single #
loop $-1 $-1 $181 $77 #
plane-surface $-1 94.777253535822155 4.1569292915062466 185.85150730290695 0 1 0 0.80901700255871778 0 0.5877852410284794 forward_v I I I I #
face $-1 $182 $183 $61 $-1 $184 forward single #
loop $-1 $185 $186 $78 #
cone-surface $-1 63.605265811016466 6.0776009655717402 4.3369254408608517 -0.80901700255871778 0 -0.5877852410284794 0.14694631025711985 0 -0.20225425063967944 1 I I 0 1 0.25 forward I I I I #
face $-1 $187 $188 $62 $-1 $189 forward single #
loop $-1 $190 $191 $79 #
cone-surface $-1 63.605265811016466 8.9586084766699727 4.3369254408608517 -0.80901700255871778 0 -0.5877852410284794 0.14694631025711985 0 -0.20225425063967944 1 I I 0 1 0.25 forward I I I I #
face $-1 $192 $193 $63 $-1 $194 forward single #
loop $-1 $195 $196 $80 #
cone-surface $-1 63.605265811016466 11.839615987768205 4.3369254408608517 -0.80901700255871778 0 -0.5877852410284794 0.14694631025711985 0 -0.20225425063967944 1 I I 0 1 0.25 forward I I I I #
face $-1 $197 $198 $64 $-1 $199 reversed single #
loop $-1 $-1 $200 $81 #
plane-surface $-1 94.777253535822155 22.07414624484619 185.85150730290695 0 1 0 0.80901700255871778 0 0.5877852410284794 forward_v I I I I #
face $-1 $201 $202 $65 $-1 $203 forward single #
loop $-1 $204 $205 $82 #
cone-surface $-1 63.605265811016466 23.994817918911686 4.3369254408608517 -0.80901700255871778 0 -0.5877852410284794 0.14694631025711985 0 -0.20225425063967944 1 I I 0 1 0.25 forward I I I I #
face $-1 $206 $207 $66 $-1 $208 forward single #
loop $-1 $209 $210 $83 #
cone-surface $-1 63.605265811016466 26.875825430009918 4.3369254408608517 -0.80901700255871778 0 -0.5877852410284794 0.14694631025711985 0 -0.20225425063967944 1 I I 0 1 0.25 forward I I I I #
face $-1 $211 $212 $67 $-1 $213 forward single #
loop $-1 $214 $215 $84 #
cone-surface $-1 63.605265811016466 29.756832941108151 4.3369254408608517 -0.80901700255871778 0 -0.5877852410284794 0.14694631025711985 0 -0.20225425063967944 1 I I 0 1 0.25 forward I I I I #
face $-1 $216 $217 $51 $-1 $218 reversed single #
loop $-1 $-1 $219 $85 #
plane-surface $-1 0 0 -6.9642752692278167 0 0 1 1 0 0 forward_v I I I I #
coedge $-1 $220 $221 $222 $223 forward $86 $-1 #
face $-1 $224 $225 $52 $-1 $226 forward single #
loop $-1 $-1 $227 $88 #
plane-surface $-1 94.777253535822155 -22.074146244846183 185.85150730290695 0 -1 0 -0.80901700255871778 0 -0.5877852410284794 forward_v I I I I #
coedge $-1 $228 $229 $230 $231 reversed $89 $-1 #
face $-1 $-1 $232 $53 $-1 $233 forward single #
loop $-1 $234 $235 $91 #
cone-surface $-1 63.099630184417265 -29.756832941108147 3.9695596652180525 -0.80901700255871778 0 -0.5877852410284794 0.073473155128559925 0 -0.10112712531983972 1 I I -0.70710678118654746 0.70710678118654746 0.125 forward I I I I #
loop $-1 $-1 $236 $70 #
coedge $-1 $148 $148 $237 $238 reversed $92 $-1 #
face $-1 $-1 $239 $54 $-1 $240 forward single #
loop $-1 $241 $242 $94 #
cone-surface $-1 63.099630184417265 -26.875825430009911 3.9695596652180525 -0.80901700255871778 0 -0.5877852410284794 0.073473155128559925 0 -0.10112712531983972 1 I I -0.70710678118654746 0.70710678118654746 0.125 forward I I I I #
loop $-1 $-1 $243 $71 #
coedge $-1 $153 $153 $244 $245 reversed $95 $-1 #
face $-1 $-1 $246 $55 $-1 $247 forward single #
loop $-1 $248 $249 $97 #
cone-surface $-1 63.099630184417265 -23.994817918911679 3.9695596652180525 -0.80901700255871778 0 -0.5877852410284794 0.073473155128559925 0 -0.10112712531983972 1 I I -0.70710678118654746 0.70710678118654746 0.125 forward I I I I #
loop $-1 $-1 $250 $72 #
coedge $-1 $158 $158 $251 $252 reversed $98 $-1 #
face $-1 $253 $254 $56 $-1 $255 reversed single #
loop $-1 $-1 $256 $100 #
plane-surface $-1 -11.535881376059749 -8.9586084766699727 108.61049576540427 0.80901700255871778 0 0.5877852410284794 0.5877852410284794 0 -0.80901700255871778 forward_v I I I I #
coedge $-1 $257 $258 $259 $260 reversed $101 $-1 #
face $-1 $-1 $261 $57 $-1 $262 forward single #
loop $-1 $263 $264 $103 #
cone-surface $-1 63.099630184417265 -11.839615987768205 3.9695596652180525 -0.80901700255871778 0 -0.5877852410284794 0.073473155128559925 0 -0.10112712531983972 1 I I -0.70710678118654746 0.70710678118654746 0.125 forward I I I I #
loop $-1 $-1 $265 $74 #
coedge $-1 $167 $167 $266 $267 reversed $104 $-1 #
face $-1 $-1 $268 $58 $-1 $269 forward single #
loop $-1 $270 $271 $106 #
cone-surface $-1 63.099630184417265 -8.9586084766699727 3.9695596652180525 -0.80901700255871778 0 -0.5877852410284794 0.073473155128559925 0 -0.10112712531983972 1 I I -0.70710678118654746 0.70710678118654746 0.125 forward I I I I #
loop $-1 $-1 $272 $75 #
coedge $-1 $172 $172 $273 $274 reversed $107 $-1 #
face $-1 $-1 $275 $59 $-1 $276 forward single #
loop $-1 $277 $278 $109 #
cone-surface $-1 63.099630184417265 -6.0776009655717331 3.9695596652180525 -0.80901700255871778 0 -0.5877852410284794 0.073473155128559925 0 -0.10112712531983972 1 I I -0.70710678118654746 0.70710678118654746 0.125 forward I I I I #
loop $-1 $-1 $279 $76 #
coedge $-1 $177 $177 $280 $281 reversed $110 $-1 #
face $-1 $282 $283 $60 $-1 $284 reversed single #
loop $-1 $-1 $285 $112 #
plane-surface $-1 -11.535881376059749 8.9586084766699727 108.61049576540427 0.80901700255871778 0 0.5877852410284794 0.5877852410284794 0 -0.80901700255871778 forward_v I I I I #
coedge $-1 $286 $287 $288 $289 reversed $113 $-1 #
face $-1 $-1 $290 $61 $-1 $291 forward single #
loop $-1 $292 $293 $115 #
cone-surface $-1 63.099630184417265 6.0776009655717402 3.9695596652180525 -0.80901700255871778 0 -0.5877852410284794 0.073473155128559925 0 -0.10112712531983972 1 I I -0.70710678118654746 0.70710678118654746 0.125 forward I I I I #
loop $-1 $-1 $294 $78 #
coedge $-1 $186 $186 $295 $296 reversed $116 $-1 #
face $-1 $-1 $297 $62 $-1 $298 forward single #
loop $-1 $299 $300 $118 #
cone-surface $-1 63.099630184417265 8.9586084766699727 3.9695596652180525 -0.80901700255871778 0 -0.5877852410284794 0.073473155128559925 0 -0.10112712531983972 1 I I -0.70710678118654746 0.70710678118654746 0.125 forward I I I I #
loop $-1 $-1 $301 $79 #
coedge $-1 $191 $191 $302 $303 reversed $119 $-1 #
face $-1 $-1 $304 $63 $-1 $305 forward single #
loop $-1 $306 $307 $121 #
cone-surface $-1 63.099630184417265 11.839615987768205 3.9695596652180525 -0.80901700255871778 0 -0.5877852410284794 0.073473155128559925 0 -0.10112712531983972 1 I I -0.70710678118654746 0.70710678118654746 0.125 forward I I I I #
loop $-1 $-1 $308 $80 #
coedge $-1 $196 $196 $309 $310 reversed $122 $-1 #
face $-1 $311 $312 $64 $-1 $313 reversed single #
loop $-1 $-1 $314 $124 #
plane-surface $-1 -11.535881376059749 26.875825430009918 108.61049576540427 0.80901700255871778 0 0.5877852410284794 0.5877852410284794 0 -0.80901700255871778 forward_v I I I I #
coedge $-1 $315 $316 $317 $318 reversed $125 $-1 #
face $-1 $-1 $319 $65 $-1 $320 forward single #
loop $-1 $321 $322 $127 #
cone-surface $-1 63.099630184417265 23.994817918911686 3.9695596652180525 -0.80901700255871778 0 -0.5877852410284794 0.073473155128559925 0 -0.10112712531983972 1 I I -0.70710678118654746 0.70710678118654746 0.125 forward I I I I #
loop $-1 $-1 $323 $82 #
coedge $-1 $205 $205 $324 $325 reversed $128 $-1 #
face $-1 $-1 $326 $66 $-1 $327 forward single #
loop $-1 $328 $329 $130 #
cone-surface $-1 63.099630184417265 26.875825430009918 3.9695596652180525 -0.80901700255871778 0 -0.5877852410284794 0.073473155128559925 0 -0.10112712531983972 1 I I -0.70710678118654746 0.70710678118654746 0.125 forward I I I I #
loop $-1 $-1 $330 $83 #
coedge $-1 $210 $210 $331 $332 reversed $131 $-1 #
face $-1 $-1 $333 $67 $-1 $334 forward single #
loop $-1 $335 $336 $133 #
cone-surface $-1 63.099630184417265 29.756832941108151 3.9695596652180525 -0.80901700255871778 0 -0.5877852410284794 0.073473155128559925 0 -0.10112712531983972 1 I I -0.70710678118654746 0.70710678118654746 0.125 forward I I I I #
loop $-1 $-1 $337 $84 #
coedge $-1 $215 $215 $338 $339 reversed $134 $-1 #
face $-1 $340 $341 $51 $-1 $342 reversed single #
loop $-1 $-1 $343 $136 #
plane-surface $-1 0 -31.677504615173639 0 0 1 0 0 0 1 forward_v I I I I #
coedge $-1 $344 $345 $346 $347 forward $137 $-1 #
coedge $-1 $348 $139 $349 $350 forward $86 $-1 #
coedge $-1 $139 $348 $351 $352 forward $86 $-1 #
coedge $-1 $353 $354 $139 $223 reversed $355 $-1 #
edge $-1 $356 -31.677504615173639 $357 31.677504615173639 $222 $358 forward 7 unknown #
face $-1 $359 $360 $52 $-1 $361 reversed single #
loop $-1 $-1 $362 $140 #
plane-surface $-1 0 0 6.9642752692278167 0 0 1 1 0 0 forward_v I I I I #
coedge $-1 $363 $364 $365 $366 reversed $141 $-1 #
coedge $-1 $367 $143 $368 $369 reversed $89 $-1 #
coedge $-1 $143 $367 $363 $370 forward $89 $-1 #
coedge $-1 $365 $371 $143 $231 forward $372 $-1 #
edge $-1 $373 -18.239591900168683 $374 -8.6362335298412276 $230 $375 forward 7 unknown #
loop $-1 $-1 $237 $144 #
plane-surface $-1 -11.535881376059749 -26.875825430009911 108.61049576540427 0.80901700255871778 0 0.5877852410284794 0.5877852410284794 0 -0.80901700255871778 forward_v I I I I #
loop $-1 $-1 $376 $91 #
coedge $-1 $235 $235 $236 $377 reversed $145 $-1 #
coedge $-1 $236 $236 $235 $377 forward $147 $-1 #
coedge $-1 $237 $237 $148 $238 forward $232 $-1 #
edge $-1 $378 0 $378 6.2831853071796004 $237 $379 forward 7 unknown #
loop $-1 $-1 $244 $149 #
plane-surface $-1 -11.535881376059749 -26.875825430009911 108.61049576540427 0.80901700255871778 0 0.5877852410284794 0.5877852410284794 0 -0.80901700255871778 forward_v I I I I #
loop $-1 $-1 $380 $94 #
coedge $-1 $242 $242 $243 $381 reversed $150 $-1 #
coedge $-1 $243 $243 $242 $381 forward $152 $-1 #
coedge $-1 $244 $244 $153 $245 forward $239 $-1 #
edge $-1 $382 0 $382 6.2831853071796004 $244 $383 forward 7 unknown #
loop $-1 $-1 $251 $154 #
plane-surface $-1 -11.535881376059749 -26.875825430009911 108.61049576540427 0.80901700255871778 0 0.5877852410284794 0.5877852410284794 0 -0.80901700255871778 forward_v I I I I #
loop $-1 $-1 $384 $97 #
coedge $-1 $249 $249 $250 $385 reversed $155 $-1 #
coedge $-1 $250 $250 $249 $385 forward $157 $-1 #
coedge $-1 $251 $251 $158 $252 forward $246 $-1 #
edge $-1 $386 0 $386 6.2831853071796004 $251 $387 forward 7 unknown #
face $-1 $388 $389 $56 $-1 $390 forward single #
loop $-1 $-1 $391 $159 #
plane-surface $-1 94.777253535822155 -4.1569292915062466 185.85150730290695 0 -1 0 -0.80901700255871778 0 -0.5877852410284794 forward_v I I I I #
coedge $-1 $392 $393 $394 $395 reversed $160 $-1 #
coedge $-1 $258 $162 $396 $397 reversed $101 $-1 #
coedge $-1 $162 $257 $392 $398 reversed $101 $-1 #
coedge $-1 $394 $399 $162 $260 forward $400 $-1 #
edge $-1 $401 85.961478382225664 $402 90.628392797931099 $259 $403 forward 7 unknown #
loop $-1 $-1 $266 $163 #
plane-surface $-1 -11.535881376059749 -8.9586084766699727 108.61049576540427 0.80901700255871778 0 0.5877852410284794 0.5877852410284794 0 -0.80901700255871778 forward_v I I I I #
loop $-1 $-1 $404 $103 #
coedge $-1 $264 $264 $265 $405 reversed $164 $-1 #
coedge $-1 $265 $265 $264 $405 forward $166 $-1 #
coedge $-1 $266 $266 $167 $267 forward $261 $-1 #
edge $-1 $406 0 $406 6.2831853071796004 $266 $407 forward 7 unknown #
loop $-1 $-1 $273 $168 #
plane-surface $-1 -11.535881376059749 -8.9586084766699727 108.61049576540427 0.80901700255871778 0 0.5877852410284794 0.5877852410284794 0 -0.80901700255871778 forward_v I I I I #
loop $-1 $-1 $408 $106 #
coedge $-1 $271 $271 $272 $409 reversed $169 $-1 #
coedge $-1 $272 $272 $271 $409 forward $171 $-1 #
coedge $-1 $273 $273 $172 $274 forward $268 $-1 #
edge $-1 $410 0 $410 6.2831853071796004 $273 $411 forward 7 unknown #
loop $-1 $-1 $280 $173 #
plane-surface $-1 -11.535881376059749 -8.9586084766699727 108.61049576540427 0.80901700255871778 0 0.5877852410284794 0.5877852410284794 0 -0.80901700255871778 forward_v I I I I #
loop $-1 $-1 $412 $109 #
coedge $-1 $278 $278 $279 $413 reversed $174 $-1 #
coedge $-1 $279 $279 $278 $413 forward $176 $-1 #
coedge $-1 $280 $280 $177 $281 forward $275 $-1 #
edge $-1 $414 0 $414 6.2831853071796004 $280 $415 forward 7 unknown #
face $-1 $416 $417 $60 $-1 $418 reversed single #
loop $-1 $-1 $419 $178 #
plane-surface $-1 94.777253535822155 13.760287661833699 185.85150730290695 0 -1 0 -0.80901700255871778 0 -0.5877852410284794 forward_v I I I I #
coedge $-1 $420 $421 $422 $423 reversed $179 $-1 #
coedge $-1 $287 $181 $424 $425 reversed $113 $-1 #
coedge $-1 $181 $286 $420 $426 reversed $113 $-1 #
coedge $-1 $422 $427 $181 $289 forward $417 $-1 #
edge $-1 $428 85.961478382225664 $429 90.628392797931099 $288 $430 forward 7 unknown #
loop $-1 $-1 $295 $182 #
plane-surface $-1 -11.535881376059749 8.9586084766699727 108.61049576540427 0.80901700255871778 0 0.5877852410284794 0.5877852410284794 0 -0.80901700255871778 forward_v I I I I #
loop $-1 $-1 $431 $115 #
coedge $-1 $293 $293 $294 $432 reversed $183 $-1 #
coedge $-1 $294 $294 $293 $432 forward $185 $-1 #
coedge $-1 $295 $295 $186 $296 forward $290 $-1 #
edge $-1 $433 0 $433 6.2831853071796004 $295 $434 forward 7 unknown #
loop $-1 $-1 $302 $187 #
plane-surface $-1 -11.535881376059749 8.9586084766699727 108.61049576540427 0.80901700255871778 0 0.5877852410284794 0.5877852410284794 0 -0.80901700255871778 forward_v I I I I #
loop $-1 $-1 $435 $118 #
coedge $-1 $300 $300 $301 $436 reversed $188 $-1 #
coedge $-1 $301 $301 $300 $436 forward $190 $-1 #
coedge $-1 $302 $302 $191 $303 forward $297 $-1 #
edge $-1 $437 0 $437 6.2831853071796004 $302 $438 forward 7 unknown #
loop $-1 $-1 $309 $192 #
plane-surface $-1 -11.535881376059749 8.9586084766699727 108.61049576540427 0.80901700255871778 0 0.5877852410284794 0.5877852410284794 0 -0.80901700255871778 forward_v I I I I #
loop $-1 $-1 $439 $121 #
coedge $-1 $307 $307 $308 $440 reversed $193 $-1 #
coedge $-1 $308 $308 $307 $440 forward $195 $-1 #
coedge $-1 $309 $309 $196 $310 forward $304 $-1 #
edge $-1 $441 0 $441 6.2831853071796004 $309 $442 forward 7 unknown #
face $-1 $443 $444 $64 $-1 $445 reversed single #
loop $-1 $-1 $317 $197 #
plane-surface $-1 65.705130161442924 0 0 -1 0 0 0 0 1 forward_v I I I I #
coedge $-1 $446 $447 $448 $449 reversed $198 $-1 #
coedge $-1 $316 $200 $450 $451 reversed $125 $-1 #
coedge $-1 $200 $315 $446 $452 reversed $125 $-1 #
coedge $-1 $448 $453 $200 $318 forward $312 $-1 #
edge $-1 $454 85.961478382225664 $455 90.628392797931099 $317 $456 forward 7 unknown #
loop $-1 $-1 $324 $201 #
plane-surface $-1 -11.535881376059749 26.875825430009918 108.61049576540427 0.80901700255871778 0 0.5877852410284794 0.5877852410284794 0 -0.80901700255871778 forward_v I I I I #
loop $-1 $-1 $457 $127 #
coedge $-1 $322 $322 $323 $458 reversed $202 $-1 #
coedge $-1 $323 $323 $322 $458 forward $204 $-1 #
coedge $-1 $324 $324 $205 $325 forward $319 $-1 #
edge $-1 $459 0 $459 6.2831853071796004 $324 $460 forward 7 unknown #
loop $-1 $-1 $331 $206 #
plane-surface $-1 -11.535881376059749 26.875825430009918 108.61049576540427 0.80901700255871778 0 0.5877852410284794 0.5877852410284794 0 -0.80901700255871778 forward_v I I I I #
loop $-1 $-1 $461 $130 #
coedge $-1 $329 $329 $330 $462 reversed $207 $-1 #
coedge $-1 $330 $330 $329 $462 forward $209 $-1 #
coedge $-1 $331 $331 $210 $332 forward $326 $-1 #
edge $-1 $463 0 $463 6.2831853071796004 $331 $464 forward 7 unknown #
loop $-1 $-1 $338 $211 #
plane-surface $-1 -11.535881376059749 26.875825430009918 108.61049576540427 0.80901700255871778 0 0.5877852410284794 0.5877852410284794 0 -0.80901700255871778 forward_v I I I I #
loop $-1 $-1 $465 $133 #
coedge $-1 $336 $336 $337 $466 reversed $212 $-1 #
coedge $-1 $337 $337 $336 $466 forward $214 $-1 #
coedge $-1 $338 $338 $215 $339 forward $333 $-1 #
edge $-1 $467 0 $467 6.2831853071796004 $338 $468 forward 7 unknown #
face $-1 $469 $470 $51 $-1 $471 reversed single #
loop $-1 $-1 $472 $216 #
plane-surface $-1 -65.705130161442924 0 0 1 0 0 0 0 -1 forward_v I I I I #
coedge $-1 $473 $351 $474 $475 forward $217 $-1 #
coedge $-1 $476 $219 $473 $477 forward $137 $-1 #
coedge $-1 $219 $476 $478 $479 forward $137 $-1 #
coedge $-1 $354 $353 $219 $347 reversed $355 $-1 #
edge $-1 $480 -31.677504615173639 $481 31.677504615173639 $346 $482 forward 7 unknown #
coedge $-1 $221 $220 $483 $484 forward $86 $-1 #
coedge $-1 $485 $486 $220 $350 reversed $470 $-1 #
edge $-1 $357 -65.705130161442924 $487 65.705130161442924 $349 $488 forward 7 unknown #
coedge $-1 $343 $489 $221 $352 reversed $217 $-1 #
edge $-1 $490 -65.705130161442924 $356 65.705130161442924 $351 $491 forward 7 unknown #
coedge $-1 $346 $222 $489 $492 forward $355 $-1 #
coedge $-1 $222 $346 $485 $493 reversed $355 $-1 #
loop $-1 $-1 $353 $469 #
vertex $-1 $223 $494 #
vertex $-1 $223 $495 #
straight-curve $-1 65.705130161442924 0 6.9642752692278167 0 1 0 I I #
face $-1 $-1 $372 $52 $-1 $496 reversed single #
loop $-1 $-1 $368 $224 #
plane-surface $-1 0 -31.677504615173639 0 0 1 0 0 0 1 forward_v I I I I #
coedge $-1 $497 $498 $364 $499 forward $225 $-1 #
coedge $-1 $364 $227 $229 $370 reversed $141 $-1 #
coedge $-1 $227 $363 $362 $499 reversed $141 $-1 #
coedge $-1 $500 $230 $227 $366 forward $372 $-1 #
edge $-1 $374 -90.628392797931099 $501 -85.961478382225664 $365 $502 forward 7 unknown #
coedge $-1 $229 $228 $497 $503 reversed $89 $-1 #
coedge $-1 $504 $505 $228 $369 forward $360 $-1 #
edge $-1 $506 78.317457645430409 $373 84.08608105006239 $368 $507 forward 7 unknown #
edge $-1 $508 125.64163691825382 $374 131.41026032288582 $363 $509 forward 7 unknown #
coedge $-1 $230 $500 $504 $510 forward $372 $-1 #
loop $-1 $-1 $365 $359 #
vertex $-1 $369 $511 #
vertex $-1 $231 $512 #
straight-curve $-1 65.705130161442924 -13.437912715004956 2.2973608535223633 0 1 0 I I #
coedge $-1 $376 $376 $-1 $513 reversed $234 $-1 #
edge $-1 $514 0 $514 6.2831853071796004 $235 $515 forward 7 unknown #
vertex $-1 $238 $516 #
ellipse-curve $-1 64.009774312295846 -29.756832941108147 4.6308180613751038 0.80901700255871778 0 0.5877852410284794 0.14694631025711985 0 -0.20225425063967944 1 I I #
coedge $-1 $380 $380 $-1 $517 reversed $241 $-1 #
edge $-1 $518 0 $518 6.2831853071796004 $242 $519 forward 7 unknown #
vertex $-1 $245 $520 #
ellipse-curve $-1 64.009774312295846 -26.875825430009911 4.6308180613751038 0.80901700255871778 0 0.5877852410284794 0.14694631025711985 0 -0.20225425063967944 1 I I #
coedge $-1 $384 $384 $-1 $521 reversed $248 $-1 #
edge $-1 $522 0 $522 6.2831853071796004 $249 $523 forward 7 unknown #
vertex $-1 $252 $524 #
ellipse-curve $-1 64.009774312295846 -23.994817918911679 4.6308180613751038 0.80901700255871778 0 0.5877852410284794 0.14694631025711985 0 -0.20225425063967944 1 I I #
face $-1 $-1 $400 $56 $-1 $525 reversed single #
loop $-1 $-1 $526 $253 #
plane-surface $-1 0 0 6.9642752692278167 0 0 1 1 0 0 forward_v I I I I #
coedge $-1 $527 $528 $529 $530 reversed $254 $-1 #
coedge $-1 $531 $256 $258 $398 forward $160 $-1 #
coedge $-1 $256 $531 $527 $532 forward $160 $-1 #
coedge $-1 $529 $259 $256 $395 forward $400 $-1 #
edge $-1 $402 -9.2809834234987125 $533 0.32237494682873979 $394 $534 forward 7 unknown #
coedge $-1 $535 $536 $257 $397 forward $389 $-1 #
edge $-1 $537 14.925791695237706 $401 18.316503393531846 $396 $538 forward 7 unknown #
edge $-1 $402 -131.41026032288582 $537 -125.64163691825382 $258 $539 forward 7 unknown #
coedge $-1 $259 $529 $535 $540 reversed $400 $-1 #
loop $-1 $-1 $529 $388 #
vertex $-1 $540 $541 #
vertex $-1 $260 $542 #
straight-curve $-1 65.705130161442924 -13.760287661833699 92.925753651453476 0 0 -1 I I #
coedge $-1 $404 $404 $-1 $543 reversed $263 $-1 #
edge $-1 $544 0 $544 6.2831853071796004 $264 $545 forward 7 unknown #
vertex $-1 $267 $546 #
ellipse-curve $-1 64.009774312295846 -11.839615987768205 4.6308180613751038 0.80901700255871778 0 0.5877852410284794 0.14694631025711985 0 -0.20225425063967944 1 I I #
coedge $-1 $408 $408 $-1 $547 reversed $270 $-1 #
edge $-1 $548 0 $548 6.2831853071796004 $271 $549 forward 7 unknown #
vertex $-1 $274 $550 #
ellipse-curve $-1 64.009774312295846 -8.9586084766699727 4.6308180613751038 0.80901700255871778 0 0.5877852410284794 0.14694631025711985 0 -0.20225425063967944 1 I I #
coedge $-1 $412 $412 $-1 $551 reversed $277 $-1 #
edge $-1 $552 0 $552 6.2831853071796004 $278 $553 forward 7 unknown #
vertex $-1 $281 $554 #
ellipse-curve $-1 64.009774312295846 -6.0776009655717331 4.6308180613751038 0.80901700255871778 0 0.5877852410284794 0.14694631025711985 0 -0.20225425063967944 1 I I #
face $-1 $-1 $555 $60 $-1 $556 forward single #
loop $-1 $-1 $288 $282 #
plane-surface $-1 65.705130161442924 0 0 -1 0 0 0 0 1 forward_v I I I I #
coedge $-1 $557 $558 $559 $560 reversed $283 $-1 #
coedge $-1 $561 $285 $287 $426 forward $179 $-1 #
coedge $-1 $285 $561 $557 $562 forward $179 $-1 #
coedge $-1 $559 $288 $285 $423 forward $417 $-1 #
edge $-1 $429 -0.32237494682873979 $563 9.2809834234987125 $422 $564 forward 7 unknown #
coedge $-1 $565 $566 $286 $425 forward $555 $-1 #
edge $-1 $567 14.925791695237706 $428 18.316503393531846 $424 $568 forward 7 unknown #
edge $-1 $429 -131.41026032288582 $567 -125.64163691825382 $287 $569 forward 7 unknown #
coedge $-1 $288 $559 $565 $570 reversed $417 $-1 #
vertex $-1 $570 $571 #
vertex $-1 $289 $572 #
straight-curve $-1 65.705130161442924 4.1569292915062466 92.925753651453476 0 0 -1 I I #
coedge $-1 $431 $431 $-1 $573 reversed $292 $-1 #
edge $-1 $574 0 $574 6.2831853071796004 $293 $575 forward 7 unknown #
vertex $-1 $296 $576 #
ellipse-curve $-1 64.009774312295846 6.0776009655717402 4.6308180613751038 0.80901700255871778 0 0.5877852410284794 0.14694631025711985 0 -0.20225425063967944 1 I I #
coedge $-1 $435 $435 $-1 $577 reversed $299 $-1 #
edge $-1 $578 0 $578 6.2831853071796004 $300 $579 forward 7 unknown #
vertex $-1 $303 $580 #
ellipse-curve $-1 64.009774312295846 8.9586084766699727 4.6308180613751038 0.80901700255871778 0 0.5877852410284794 0.14694631025711985 0 -0.20225425063967944 1 I I #
coedge $-1 $439 $439 $-1 $581 reversed $306 $-1 #
edge $-1 $582 0 $582 6.2831853071796004 $307 $583 forward 7 unknown #
vertex $-1 $310 $584 #
ellipse-curve $-1 64.009774312295846 11.839615987768205 4.6308180613751038 0.80901700255871778 0 0.5877852410284794 0.14694631025711985 0 -0.20225425063967944 1 I I #
face $-1 $-1 $585 $64 $-1 $586 forward single #
loop $-1 $-1 $587 $311 #
plane-surface $-1 0 31.677504615173639 0 0 -1 0 0 0 -1 forward_v I I I I #
coedge $-1 $588 $314 $316 $452 forward $198 $-1 #
coedge $-1 $314 $588 $587 $589 reversed $198 $-1 #
coedge $-1 $590 $317 $314 $449 forward $312 $-1 #
edge $-1 $455 8.6362335298412312 $591 18.239591900168687 $448 $592 forward 7 unknown #
coedge $-1 $593 $594 $315 $451 forward $585 $-1 #
edge $-1 $595 14.925791695237706 $454 18.316503393531846 $450 $596 forward 7 unknown #
edge $-1 $455 -131.41026032288582 $595 -125.64163691825382 $316 $597 forward 7 unknown #
coedge $-1 $317 $590 $593 $598 reversed $312 $-1 #
vertex $-1 $598 $599 #
vertex $-1 $318 $600 #
straight-curve $-1 65.705130161442924 22.07414624484619 92.925753651453476 0 0 -1 I I #
coedge $-1 $457 $457 $-1 $601 reversed $321 $-1 #
edge $-1 $602 0 $602 6.2831853071796004 $322 $603 forward 7 unknown #
vertex $-1 $325 $604 #
ellipse-curve $-1 64.009774312295846 23.994817918911686 4.6308180613751038 0.80901700255871778 0 0.5877852410284794 0.14694631025711985 0 -0.20225425063967944 1 I I #
coedge $-1 $461 $461 $-1 $605 reversed $328 $-1 #
edge $-1 $606 0 $606 6.2831853071796004 $329 $607 forward 7 unknown #
vertex $-1 $332 $608 #
ellipse-curve $-1 64.009774312295846 26.875825430009918 4.6308180613751038 0.80901700255871778 0 0.5877852410284794 0.14694631025711985 0 -0.20225425063967944 1 I I #
coedge $-1 $465 $465 $-1 $609 reversed $335 $-1 #
edge $-1 $610 0 $610 6.2831853071796004 $336 $611 forward 7 unknown #
vertex $-1 $339 $612 #
ellipse-curve $-1 64.009774312295846 29.756832941108151 4.6308180613751038 0.80901700255871778 0 0.5877852410284794 0.14694631025711985 0 -0.20225425063967944 1 I I #
face $-1 $-1 $355 $51 $-1 $613 reversed single #
loop $-1 $-1 $485 $340 #
plane-surface $-1 0 31.677504615173639 0 0 -1 0 0 0 -1 forward_v I I I I #
coedge $-1 $614 $483 $486 $615 forward $341 $-1 #
coedge $-1 $489 $343 $344 $477 reversed $217 $-1 #
coedge $-1 $483 $614 $343 $475 reversed $341 $-1 #
edge $-1 $490 -6.9642752692278167 $616 6.9642752692278167 $474 $617 forward 7 unknown #
coedge $-1 $345 $344 $614 $618 forward $137 $-1 #
edge $-1 $481 -65.705130161442924 $616 65.705130161442924 $473 $619 forward 7 unknown #
coedge $-1 $486 $485 $345 $479 reversed $470 $-1 #
edge $-1 $620 -65.705130161442924 $480 65.705130161442924 $478 $621 forward 7 unknown #
vertex $-1 $347 $622 #
vertex $-1 $492 $623 #
straight-curve $-1 65.705130161442924 0 -6.9642752692278167 0 -1 0 I I #
coedge $-1 $472 $474 $348 $484 reversed $341 $-1 #
edge $-1 $487 -31.677504615173639 $490 31.677504615173639 $483 $624 forward 7 unknown #
coedge $-1 $478 $349 $354 $493 forward $470 $-1 #
coedge $-1 $349 $478 $472 $615 reversed $470 $-1 #
vertex $-1 $350 $625 #
straight-curve $-1 0 31.677504615173639 6.9642752692278167 -1 0 0 I I #
coedge $-1 $351 $473 $353 $492 reversed $217 $-1 #
vertex $-1 $484 $626 #
straight-curve $-1 0 -31.677504615173639 6.9642752692278167 1 0 0 I I #
edge $-1 $356 -6.9642752692278167 $481 6.9642752692278167 $353 $627 forward 7 unknown #
edge $-1 $357 -6.9642752692278167 $480 6.9642752692278167 $354 $628 forward 7 unknown #
point $-1 65.705130161442924 -31.677504615173639 6.9642752692278167 #
point $-1 65.705130161442924 31.677504615173639 6.9642752692278167 #
plane-surface $-1 65.705130161442924 0 0 -1 0 0 0 0 1 forward_v I I I I #
coedge $-1 $629 $362 $367 $503 forward $225 $-1 #
coedge $-1 $362 $629 $500 $630 forward $225 $-1 #
edge $-1 $501 -18.316503393531846 $508 -14.925791695237706 $362 $631 forward 7 unknown #
coedge $-1 $371 $365 $498 $630 reversed $372 $-1 #
vertex $-1 $366 $632 #
straight-curve $-1 65.705130161442924 -22.074146244846183 92.925753651453476 0 0 1 I I #
edge $-1 $508 8.6362335298412276 $506 18.239591900168683 $497 $633 forward 7 unknown #
coedge $-1 $505 $368 $371 $510 reversed $360 $-1 #
coedge $-1 $368 $504 $629 $634 reversed $360 $-1 #
vertex $-1 $634 $635 #
straight-curve $-1 16.280572744291749 -31.677504615173639 70.324430101553247 0.5877852410284794 0 -0.80901700255871778 I I #
vertex $-1 $503 $636 #
straight-curve $-1 -11.535881376059749 -22.074146244846183 108.61049576540427 0.5877852410284794 0 -0.80901700255871778 I I #
edge $-1 $637 -6.9642752692278167 $373 -2.2973608535223722 $371 $638 forward 7 unknown #
point $-1 65.705130161442924 -31.677504615173639 2.2973608535223722 #
point $-1 65.705130161442909 -22.074146244846183 2.2973608535223775 #
edge $-1 $639 1 $639 0 $376 $-1 forward 7 unknown #
vertex $-1 $377 $640 #
ellipse-curve $-1 63.200757309737106 -29.756832941108147 4.0430328203466122 0.80901700255871778 0 0.5877852410284794 0.14694631025711985 0 -0.20225425063967944 1 I I #
point $-1 64.156720622552939 -29.756832941108147 4.4285638107354126 #
edge $-1 $641 1 $641 0 $380 $-1 forward 7 unknown #
vertex $-1 $381 $642 #
ellipse-curve $-1 63.200757309737106 -26.875825430009911 4.0430328203466122 0.80901700255871778 0 0.5877852410284794 0.14694631025711985 0 -0.20225425063967944 1 I I #
point $-1 64.156720622552939 -26.875825430009911 4.4285638107354126 #
edge $-1 $643 1 $643 0 $384 $-1 forward 7 unknown #
vertex $-1 $385 $644 #
ellipse-curve $-1 63.200757309737106 -23.994817918911679 4.0430328203466122 0.80901700255871778 0 0.5877852410284794 0.14694631025711985 0 -0.20225425063967944 1 I I #
point $-1 64.156720622552939 -23.994817918911679 4.4285638107354126 #
plane-surface $-1 65.705130161442924 0 0 -1 0 0 0 0 1 forward_v I I I I #
coedge $-1 $536 $535 $528 $645 forward $389 $-1 #
coedge $-1 $528 $391 $393 $532 reversed $254 $-1 #
coedge $-1 $391 $527 $526 $645 reversed $254 $-1 #
coedge $-1 $399 $394 $391 $530 forward $400 $-1 #
edge $-1 $533 -90.628392797931099 $646 -85.961478382225664 $529 $647 forward 7 unknown #
coedge $-1 $393 $392 $536 $648 reversed $160 $-1 #
edge $-1 $649 125.64163691825382 $533 131.41026032288582 $527 $650 forward 7 unknown #
vertex $-1 $395 $651 #
straight-curve $-1 65.705130161442924 -4.4793042383349864 2.2973608535223633 0 1 0 I I #
coedge $-1 $526 $396 $399 $540 forward $389 $-1 #
coedge $-1 $396 $526 $531 $648 forward $389 $-1 #
vertex $-1 $397 $652 #
straight-curve $-1 47.388626767911077 -13.760287661833699 6.9642752692278123 1 0 0 I I #
straight-curve $-1 -11.535881376059749 -13.760287661833699 108.61049576540427 -0.5877852410284794 0 0.80901700255871778 I I #
edge $-1 $401 -13.760287661833699 $646 -4.1569292915062466 $399 $653 forward 7 unknown #
point $-1 65.705130161442924 -13.760287661833699 6.9642752692278167 #
point $-1 65.705130161442909 -13.760287661833699 2.2973608535223775 #
edge $-1 $654 1 $654 0 $404 $-1 forward 7 unknown #
vertex $-1 $405 $655 #
ellipse-curve $-1 63.200757309737106 -11.839615987768205 4.0430328203466122 0.80901700255871778 0 0.5877852410284794 0.14694631025711985 0 -0.20225425063967944 1 I I #
point $-1 64.156720622552939 -11.839615987768205 4.4285638107354126 #
edge $-1 $656 1 $656 0 $408 $-1 forward 7 unknown #
vertex $-1 $409 $657 #
ellipse-curve $-1 63.200757309737106 -8.9586084766699727 4.0430328203466122 0.80901700255871778 0 0.5877852410284794 0.14694631025711985 0 -0.20225425063967944 1 I I #
point $-1 64.156720622552939 -8.9586084766699727 4.4285638107354126 #
edge $-1 $658 1 $658 0 $412 $-1 forward 7 unknown #
vertex $-1 $413 $659 #
ellipse-curve $-1 63.200757309737106 -6.0776009655717331 4.0430328203466122 0.80901700255871778 0 0.5877852410284794 0.14694631025711985 0 -0.20225425063967944 1 I I #
point $-1 64.156720622552939 -6.0776009655717331 4.4285638107354126 #
loop $-1 $-1 $424 $416 #
plane-surface $-1 0 0 6.9642752692278167 0 0 1 1 0 0 forward_v I I I I #
coedge $-1 $558 $419 $421 $562 reversed $283 $-1 #
coedge $-1 $419 $557 $660 $661 reversed $283 $-1 #
coedge $-1 $427 $422 $419 $560 forward $417 $-1 #
edge $-1 $563 -90.628392797931099 $662 -85.961478382225664 $559 $663 forward 7 unknown #
coedge $-1 $421 $420 $566 $664 reversed $179 $-1 #
edge $-1 $665 125.64163691825382 $563 131.41026032288582 $557 $666 forward 7 unknown #
vertex $-1 $423 $667 #
straight-curve $-1 65.705130161442924 4.4793042383349864 2.2973608535223633 0 1 0 I I #
coedge $-1 $660 $424 $427 $570 forward $555 $-1 #
coedge $-1 $424 $660 $561 $664 forward $555 $-1 #
vertex $-1 $425 $668 #
straight-curve $-1 47.388626767911077 4.1569292915062466 6.9642752692278123 1 0 0 I I #
straight-curve $-1 -11.535881376059749 4.1569292915062466 108.61049576540427 -0.5877852410284794 0 0.80901700255871778 I I #
edge $-1 $428 4.1569292915062466 $662 13.760287661833699 $427 $669 forward 7 unknown #
point $-1 65.705130161442924 4.1569292915062466 6.9642752692278167 #
point $-1 65.705130161442909 4.1569292915062466 2.2973608535223775 #
edge $-1 $670 1 $670 0 $431 $-1 forward 7 unknown #
vertex $-1 $432 $671 #
ellipse-curve $-1 63.200757309737106 6.0776009655717402 4.0430328203466122 0.80901700255871778 0 0.5877852410284794 0.14694631025711985 0 -0.20225425063967944 1 I I #
point $-1 64.156720622552939 6.0776009655717402 4.4285638107354126 #
edge $-1 $672 1 $672 0 $435 $-1 forward 7 unknown #
vertex $-1 $436 $673 #
ellipse-curve $-1 63.200757309737106 8.9586084766699727 4.0430328203466122 0.80901700255871778 0 0.5877852410284794 0.14694631025711985 0 -0.20225425063967944 1 I I #
point $-1 64.156720622552939 8.9586084766699727 4.4285638107354126 #
edge $-1 $674 1 $674 0 $439 $-1 forward 7 unknown #
vertex $-1 $440 $675 #
ellipse-curve $-1 63.200757309737106 11.839615987768205 4.0430328203466122 0.80901700255871778 0 0.5877852410284794 0.14694631025711985 0 -0.20225425063967944 1 I I #
point $-1 64.156720622552939 11.839615987768205 4.4285638107354126 #
loop $-1 $-1 $450 $443 #
plane-surface $-1 0 0 6.9642752692278167 0 0 1 1 0 0 forward_v I I I I #
coedge $-1 $676 $677 $447 $589 forward $444 $-1 #
coedge $-1 $447 $446 $594 $678 reversed $198 $-1 #
edge $-1 $591 -84.086081050062376 $679 -78.317457645430409 $587 $680 forward 7 unknown #
coedge $-1 $453 $448 $677 $681 reversed $312 $-1 #
vertex $-1 $589 $682 #
straight-curve $-1 65.705130161442924 13.437912715004959 2.2973608535223633 0 1 0 I I #
coedge $-1 $683 $450 $453 $598 forward $585 $-1 #
coedge $-1 $450 $683 $588 $678 forward $585 $-1 #
vertex $-1 $451 $684 #
straight-curve $-1 47.388626767911077 22.07414624484619 6.9642752692278123 1 0 0 I I #
straight-curve $-1 -11.535881376059749 22.07414624484619 108.61049576540427 -0.5877852410284794 0 0.80901700255871778 I I #
edge $-1 $454 22.07414624484619 $685 31.677504615173639 $453 $686 forward 7 unknown #
point $-1 65.705130161442924 22.07414624484619 6.9642752692278167 #
point $-1 65.705130161442909 22.07414624484619 2.2973608535223775 #
edge $-1 $687 1 $687 0 $457 $-1 forward 7 unknown #
vertex $-1 $458 $688 #
ellipse-curve $-1 63.200757309737106 23.994817918911686 4.0430328203466122 0.80901700255871778 0 0.5877852410284794 0.14694631025711985 0 -0.20225425063967944 1 I I #
point $-1 64.156720622552939 23.994817918911686 4.4285638107354126 #
edge $-1 $689 1 $689 0 $461 $-1 forward 7 unknown #
vertex $-1 $462 $690 #
ellipse-curve $-1 63.200757309737106 26.875825430009918 4.0430328203466122 0.80901700255871778 0 0.5877852410284794 0.14694631025711985 0 -0.20225425063967944 1 I I #
point $-1 64.156720622552939 26.875825430009918 4.4285638107354126 #
edge $-1 $691 1 $691 0 $465 $-1 forward 7 unknown #
vertex $-1 $466 $692 #
ellipse-curve $-1 63.200757309737106 29.756832941108151 4.0430328203466122 0.80901700255871778 0 0.5877852410284794 0.14694631025711985 0 -0.20225425063967944 1 I I #
point $-1 64.156720622552939 29.756832941108151 4.4285638107354126 #
plane-surface $-1 65.705130161442924 0 0 -1 0 0 0 0 1 forward_v I I I I #
coedge $-1 $474 $472 $476 $618 reversed $341 $-1 #
edge $-1 $487 -6.9642752692278167 $620 6.9642752692278167 $486 $693 forward 7 unknown #
vertex $-1 $618 $694 #
straight-curve $-1 -65.705130161442924 -31.677504615173639 0 0 0 -1 I I #
edge $-1 $616 -31.677504615173639 $620 31.677504615173639 $614 $695 forward 7 unknown #
straight-curve $-1 0 -31.677504615173639 -6.9642752692278167 -1 0 0 I I #
vertex $-1 $479 $696 #
straight-curve $-1 0 31.677504615173639 -6.9642752692278167 1 0 0 I I #
point $-1 65.705130161442924 31.677504615173639 -6.9642752692278167 #
point $-1 65.705130161442924 -31.677504615173639 -6.9642752692278167 #
straight-curve $-1 -65.705130161442924 0 6.9642752692278167 0 -1 0 I I #
point $-1 -65.705130161442924 31.677504615173639 6.9642752692278167 #
point $-1 -65.705130161442924 -31.677504615173639 6.9642752692278167 #
straight-curve $-1 65.705130161442924 -31.677504615173639 0 0 0 -1 I I #
straight-curve $-1 65.705130161442924 31.677504615173639 0 0 0 -1 I I #
coedge $-1 $498 $497 $505 $634 forward $225 $-1 #
edge $-1 $637 -31.677504615173639 $501 -22.074146244846183 $500 $697 forward 7 unknown #
straight-curve $-1 47.388626767911077 -22.074146244846183 6.9642752692278123 -1 0 0 I I #
point $-1 65.705130161442924 -22.074146244846183 6.9642752692278167 #
straight-curve $-1 62.314418463148776 -13.437912715004956 6.9642752692278123 0 -1 0 I I #
edge $-1 $506 62.314418463148783 $637 65.705130161442924 $505 $698 forward 7 unknown #
point $-1 62.314418463148783 -31.677504615173639 6.9642752692278123 #
point $-1 62.314418463148783 -22.074146244846183 6.9642752692278123 #
vertex $-1 $630 $699 #
straight-curve $-1 65.705130161442924 -31.677504615173639 0 0 0 -1 I I #
vertex $-1 $513 $700 #
point $-1 63.347703619994228 -29.756832941108147 3.840778569706933 #
vertex $-1 $517 $701 #
point $-1 63.347703619994228 -26.875825430009911 3.840778569706933 #
vertex $-1 $521 $702 #
point $-1 63.347703619994228 -23.994817918911679 3.840778569706933 #
edge $-1 $646 -18.316503393531846 $649 -14.925791695237706 $526 $703 forward 7 unknown #
vertex $-1 $530 $704 #
straight-curve $-1 65.705130161442924 -4.1569292915062466 92.925753651453476 0 0 1 I I #
edge $-1 $649 -0.32237494682873979 $537 9.2809834234987125 $536 $705 forward 7 unknown #
vertex $-1 $648 $706 #
straight-curve $-1 -11.535881376059749 -4.1569292915062466 108.61049576540427 0.5877852410284794 0 -0.80901700255871778 I I #
point $-1 65.705130161442909 -4.1569292915062466 2.2973608535223775 #
point $-1 62.314418463148783 -13.760287661833699 6.9642752692278123 #
straight-curve $-1 65.705130161442924 0 6.9642752692278167 0 1 0 I I #
vertex $-1 $543 $707 #
point $-1 63.347703619994228 -11.839615987768205 3.840778569706933 #
vertex $-1 $547 $708 #
point $-1 63.347703619994228 -8.9586084766699727 3.840778569706933 #
vertex $-1 $551 $709 #
point $-1 63.347703619994228 -6.0776009655717331 3.840778569706933 #
coedge $-1 $566 $565 $558 $661 forward $555 $-1 #
edge $-1 $662 -18.316503393531846 $665 -14.925791695237706 $660 $710 forward 7 unknown #
vertex $-1 $661 $711 #
straight-curve $-1 65.705130161442924 13.760287661833699 92.925753651453476 0 0 1 I I #
edge $-1 $665 -9.2809834234987125 $567 0.32237494682873979 $566 $712 forward 7 unknown #
vertex $-1 $664 $713 #
straight-curve $-1 -11.535881376059749 13.760287661833699 108.61049576540427 0.5877852410284794 0 -0.80901700255871778 I I #
point $-1 65.705130161442909 13.760287661833699 2.2973608535223775 #
point $-1 62.314418463148783 4.1569292915062466 6.9642752692278123 #
straight-curve $-1 65.705130161442924 0 6.9642752692278167 0 1 0 I I #
vertex $-1 $573 $714 #
point $-1 63.347703619994228 6.0776009655717402 3.840778569706933 #
vertex $-1 $577 $715 #
point $-1 63.347703619994228 8.9586084766699727 3.840778569706933 #
vertex $-1 $581 $716 #
point $-1 63.347703619994228 11.839615987768205 3.840778569706933 #
coedge $-1 $677 $587 $683 $717 reversed $444 $-1 #
coedge $-1 $587 $676 $590 $681 forward $444 $-1 #
edge $-1 $679 -18.239591900168687 $595 -8.6362335298412312 $594 $718 forward 7 unknown #
vertex $-1 $589 $719 #
straight-curve $-1 16.280572744291749 31.677504615173639 70.324430101553247 -0.5877852410284794 0 0.80901700255871778 I I #
edge $-1 $685 -6.9642752692278167 $591 -2.2973608535223775 $590 $720 forward 7 unknown #
point $-1 65.705130161442909 31.677504615173646 2.2973608535223775 #
coedge $-1 $594 $593 $676 $717 forward $585 $-1 #
point $-1 62.314418463148783 22.07414624484619 6.9642752692278123 #
vertex $-1 $598 $721 #
straight-curve $-1 65.705130161442924 0 6.9642752692278167 0 1 0 I I #
vertex $-1 $601 $722 #
point $-1 63.347703619994228 23.994817918911686 3.840778569706933 #
vertex $-1 $605 $723 #
point $-1 63.347703619994228 26.875825430009918 3.840778569706933 #
vertex $-1 $609 $724 #
point $-1 63.347703619994228 29.756832941108151 3.840778569706933 #
straight-curve $-1 -65.705130161442924 31.677504615173639 0 0 0 -1 I I #
point $-1 -65.705130161442924 -31.677504615173639 -6.9642752692278167 #
straight-curve $-1 -65.705130161442924 0 -6.9642752692278167 0 1 0 I I #
point $-1 -65.705130161442924 31.677504615173639 -6.9642752692278167 #
straight-curve $-1 65.705130161442924 0 6.9642752692278167 0 1 0 I I #
straight-curve $-1 0 -31.677504615173639 6.9642752692278167 1 0 0 I I #
point $-1 65.705130161442924 -31.677504615173639 6.9642752692278167 #
point $-1 62.998503059097423 -29.756832941108147 3.8960865100894924 #
point $-1 62.998503059097423 -26.875825430009911 3.8960865100894924 #
point $-1 62.998503059097423 -23.994817918911679 3.8960865100894924 #
straight-curve $-1 47.388626767911077 -4.1569292915062466 6.9642752692278123 -1 0 0 I I #
point $-1 65.705130161442924 -4.1569292915062466 6.9642752692278167 #
straight-curve $-1 62.314418463148776 -4.4793042383349864 6.9642752692278123 0 -1 0 I I #
point $-1 62.314418463148783 -4.1569292915062466 6.9642752692278123 #
point $-1 62.998503059097423 -11.839615987768205 3.8960865100894924 #
point $-1 62.998503059097423 -8.9586084766699727 3.8960865100894924 #
point $-1 62.998503059097423 -6.0776009655717331 3.8960865100894924 #
straight-curve $-1 47.388626767911077 13.760287661833699 6.9642752692278123 -1 0 0 I I #
point $-1 65.705130161442924 13.760287661833699 6.9642752692278167 #
straight-curve $-1 62.314418463148776 4.4793042383349864 6.9642752692278123 0 -1 0 I I #
point $-1 62.314418463148783 13.760287661833699 6.9642752692278123 #
point $-1 62.998503059097423 6.0776009655717402 3.8960865100894924 #
point $-1 62.998503059097423 8.9586084766699727 3.8960865100894924 #
point $-1 62.998503059097423 11.839615987768205 3.8960865100894924 #
edge $-1 $685 -65.705130161442924 $679 -62.314418463148783 $676 $725 forward 7 unknown #
straight-curve $-1 62.314418463148776 13.437912715004959 6.9642752692278123 0 -1 0 I I #
point $-1 62.314418463148783 31.677504615173646 6.9642752692278123 #
straight-curve $-1 65.705130161442924 31.677504615173639 0 0 0 -1 I I #
point $-1 65.705130161442924 31.677504615173639 6.9642752692278167 #
point $-1 62.998503059097423 23.994817918911686 3.8960865100894924 #
point $-1 62.998503059097423 26.875825430009918 3.8960865100894924 #
point $-1 62.998503059097423 29.756832941108151 3.8960865100894924 #
straight-curve $-1 0 31.677504615173639 6.9642752692278167 -1 0 0 I I #
End-of-ACIS-data 