500 0 3 0           
7 Unknown 11 ACIS 5.0 NT 24 Fri Mar 26 18:47:56 1999 
-1 9.9999999999999995e-007 1e-010 
body $-1 $3 $-1 $4 #
body $-1 $5 $-1 $6 #
body $-1 $7 $-1 $8 #
lump $-1 $-1 $9 $0 #
transform $-1 1 0 0 0 1 0 0 0 1 75.511337626270333 51.619731995404067 17.110112954352953 1 rotate no_reflect no_shear #
lump $-1 $-1 $10 $1 #
transform $-1 1 0 0 0 1 0 0 0 1 75.511337626270333 51.619731995404067 17.110112954352953 1 rotate no_reflect no_shear #
lump $-1 $-1 $11 $2 #
transform $-1 1 0 0 0 1 0 0 0 1 75.511337626270333 51.619731995404067 17.110112954352953 1 rotate no_reflect no_shear #
shell $-1 $-1 $-1 $12 $-1 $3 #
shell $-1 $-1 $-1 $13 $-1 $5 #
shell $-1 $-1 $-1 $14 $-1 $7 #
face $-1 $15 $16 $9 $-1 $17 forward single #
face $-1 $18 $19 $10 $-1 $20 reversed single #
face $-1 $21 $22 $11 $-1 $23 reversed single #
face $-1 $24 $25 $9 $-1 $26 reversed single #
loop $-1 $-1 $27 $12 #
plane-surface $-1 0 0 17.110112954352953 0 0 1 1 0 0 forward_v I I I I #
face $-1 $28 $29 $10 $-1 $30 reversed single #
loop $-1 $-1 $31 $13 #
plane-surface $-1 -81.410120474734498 0 9.7187237863221281 0 0 1 1 0 0 forward_v I I I I #
face $-1 $32 $33 $11 $-1 $34 reversed single #
loop $-1 $-1 $35 $14 #
plane-surface $-1 81.410120474734484 0 9.7187237863221281 0 0 1 1 0 0 forward_v I I I I #
face $-1 $36 $37 $9 $-1 $38 reversed single #
loop $-1 $-1 $39 $15 #
plane-surface $-1 0 0 -17.110112954352953 0 0 1 1 0 0 forward_v I I I I #
coedge $-1 $40 $41 $42 $43 forward $16 $-1 #
face $-1 $44 $45 $10 $-1 $46 forward single #
loop $-1 $-1 $47 $18 #
plane-surface $-1 -87.308903323198663 0 13.41441837033754 1 0 0 0 0 -1 forward_v I I I I #
coedge $-1 $48 $49 $50 $51 reversed $19 $-1 #
face $-1 $52 $53 $11 $-1 $54 reversed single #
loop $-1 $-1 $55 $21 #
plane-surface $-1 87.308903323198649 0 13.41441837033754 -1 0 0 0 0 1 forward_v I I I I #
coedge $-1 $56 $57 $58 $59 forward $22 $-1 #
face $-1 $60 $61 $9 $-1 $62 reversed single #
loop $-1 $-1 $63 $24 #
plane-surface $-1 0 -51.619731995404067 0 0 1 0 0 0 1 forward_v I I I I #
coedge $-1 $64 $65 $66 $67 forward $25 $-1 #
coedge $-1 $68 $27 $69 $70 forward $16 $-1 #
coedge $-1 $27 $68 $71 $72 forward $16 $-1 #
coedge $-1 $73 $74 $27 $43 reversed $75 $-1 #
edge $-1 $76 -51.619731995404067 $77 51.619731995404067 $42 $78 forward 7 unknown #
face $-1 $79 $80 $10 $-1 $81 reversed single #
loop $-1 $-1 $82 $28 #
plane-surface $-1 0 0 17.110112954352953 0 0 1 1 0 0 forward_v I I I I #
coedge $-1 $83 $84 $85 $86 forward $29 $-1 #
coedge $-1 $87 $31 $88 $89 forward $19 $-1 #
coedge $-1 $31 $87 $90 $91 forward $19 $-1 #
coedge $-1 $92 $93 $31 $51 forward $94 $-1 #
edge $-1 $95 -51.619731995404067 $96 51.619731995404067 $50 $97 forward 7 unknown #
face $-1 $98 $99 $11 $-1 $100 reversed single #
loop $-1 $-1 $101 $32 #
plane-surface $-1 -81.410120474734498 0 9.7187237863221281 0 0 1 1 0 0 forward_v I I I I #
coedge $-1 $58 $102 $103 $104 forward $33 $-1 #
coedge $-1 $105 $35 $106 $107 forward $22 $-1 #
coedge $-1 $35 $105 $108 $109 forward $22 $-1 #
coedge $-1 $110 $55 $35 $59 reversed $33 $-1 #
edge $-1 $111 -51.619731995404067 $112 51.619731995404067 $58 $113 forward 7 unknown #
face $-1 $114 $115 $9 $-1 $116 reversed single #
loop $-1 $-1 $117 $36 #
plane-surface $-1 -75.511337626270333 0 0 1 0 0 0 0 -1 forward_v I I I I #
coedge $-1 $118 $71 $119 $120 forward $37 $-1 #
coedge $-1 $121 $39 $118 $122 forward $25 $-1 #
coedge $-1 $39 $121 $123 $124 forward $25 $-1 #
coedge $-1 $74 $73 $39 $67 reversed $75 $-1 #
edge $-1 $125 -51.619731995404067 $126 51.619731995404067 $66 $127 forward 7 unknown #
coedge $-1 $41 $40 $128 $129 forward $16 $-1 #
coedge $-1 $130 $131 $40 $70 reversed $115 $-1 #
edge $-1 $77 -75.511337626270333 $132 75.511337626270333 $69 $133 forward 7 unknown #
coedge $-1 $63 $134 $41 $72 reversed $37 $-1 #
edge $-1 $135 -75.511337626270333 $76 75.511337626270333 $71 $136 forward 7 unknown #
coedge $-1 $66 $42 $134 $137 forward $75 $-1 #
coedge $-1 $42 $66 $130 $138 reversed $75 $-1 #
loop $-1 $-1 $73 $114 #
vertex $-1 $43 $139 #
vertex $-1 $43 $140 #
straight-curve $-1 75.511337626270333 0 17.110112954352953 0 1 0 I I #
face $-1 $141 $142 $10 $-1 $143 reversed single #
loop $-1 $-1 $144 $44 #
plane-surface $-1 0 0 -17.110112954352953 0 0 1 1 0 0 forward_v I I I I #
coedge $-1 $145 $146 $147 $148 forward $45 $-1 #
coedge $-1 $149 $47 $87 $150 reversed $29 $-1 #
coedge $-1 $47 $149 $151 $152 reversed $29 $-1 #
coedge $-1 $153 $90 $47 $86 reversed $154 $-1 #
edge $-1 $155 -3.6956945840154098 $156 3.6956945840154116 $85 $157 forward 7 unknown #
coedge $-1 $49 $48 $83 $150 forward $19 $-1 #
coedge $-1 $158 $159 $48 $89 reversed $142 $-1 #
edge $-1 $95 -5.8987828484641653 $160 5.8987828484641653 $88 $161 forward 7 unknown #
coedge $-1 $85 $162 $49 $91 reversed $154 $-1 #
edge $-1 $156 -5.8987828484641653 $96 5.8987828484641653 $90 $163 forward 7 unknown #
coedge $-1 $164 $50 $162 $165 forward $94 $-1 #
coedge $-1 $50 $164 $158 $166 reversed $94 $-1 #
loop $-1 $-1 $50 $141 #
vertex $-1 $166 $167 #
vertex $-1 $165 $168 #
straight-curve $-1 -75.511337626270333 0 9.7187237863221281 0 1 0 I I #
face $-1 $169 $170 $11 $-1 $171 forward single #
loop $-1 $-1 $172 $52 #
plane-surface $-1 -87.308903323198663 0 13.41441837033754 1 0 0 0 0 -1 forward_v I I I I #
coedge $-1 $173 $174 $175 $176 reversed $53 $-1 #
coedge $-1 $55 $110 $177 $178 reversed $33 $-1 #
coedge $-1 $179 $106 $55 $104 reversed $180 $-1 #
edge $-1 $181 -3.6956945840154098 $112 3.6956945840154116 $55 $182 forward 7 unknown #
coedge $-1 $57 $56 $183 $184 reversed $22 $-1 #
coedge $-1 $103 $185 $56 $107 reversed $180 $-1 #
edge $-1 $112 -5.8987828484641653 $186 5.8987828484641653 $106 $187 forward 7 unknown #
coedge $-1 $188 $189 $57 $109 reversed $190 $-1 #
edge $-1 $191 -5.8987828484641653 $111 5.8987828484641653 $108 $192 forward 7 unknown #
coedge $-1 $102 $58 $189 $193 reversed $33 $-1 #
vertex $-1 $59 $194 #
vertex $-1 $104 $195 #
straight-curve $-1 87.308903323198649 0 9.7187237863221281 0 -1 0 I I #
face $-1 $-1 $75 $9 $-1 $196 reversed single #
loop $-1 $-1 $130 $60 #
plane-surface $-1 0 51.619731995404067 0 0 -1 0 0 0 -1 forward_v I I I I #
coedge $-1 $197 $128 $131 $198 forward $61 $-1 #
coedge $-1 $134 $63 $64 $122 reversed $37 $-1 #
coedge $-1 $128 $197 $63 $120 reversed $61 $-1 #
edge $-1 $135 -17.110112954352953 $199 17.110112954352953 $119 $200 forward 7 unknown #
coedge $-1 $65 $64 $197 $201 forward $25 $-1 #
edge $-1 $126 -75.511337626270333 $199 75.511337626270333 $118 $202 forward 7 unknown #
coedge $-1 $131 $130 $65 $124 reversed $115 $-1 #
edge $-1 $203 -75.511337626270333 $125 75.511337626270333 $123 $204 forward 7 unknown #
vertex $-1 $67 $205 #
vertex $-1 $137 $206 #
straight-curve $-1 75.511337626270333 0 -17.110112954352953 0 -1 0 I I #
coedge $-1 $117 $119 $68 $129 reversed $61 $-1 #
edge $-1 $132 -51.619731995404067 $135 51.619731995404067 $128 $207 forward 7 unknown #
coedge $-1 $123 $69 $74 $138 forward $115 $-1 #
coedge $-1 $69 $123 $117 $198 reversed $115 $-1 #
vertex $-1 $70 $208 #
straight-curve $-1 0 51.619731995404067 17.110112954352953 -1 0 0 I I #
coedge $-1 $71 $118 $73 $137 reversed $37 $-1 #
vertex $-1 $129 $209 #
straight-curve $-1 0 -51.619731995404067 17.110112954352953 1 0 0 I I #
edge $-1 $76 -17.110112954352953 $126 17.110112954352953 $73 $210 forward 7 unknown #
edge $-1 $77 -17.110112954352953 $125 17.110112954352953 $74 $211 forward 7 unknown #
point $-1 75.511337626270333 -51.619731995404067 17.110112954352953 #
point $-1 75.511337626270333 51.619731995404067 17.110112954352953 #
face $-1 $212 $94 $10 $-1 $213 reversed single #
loop $-1 $-1 $158 $79 #
plane-surface $-1 0 -51.619731995404067 0 0 1 0 0 0 1 forward_v I I I I #
coedge $-1 $214 $215 $216 $217 forward $80 $-1 #
coedge $-1 $151 $82 $153 $218 forward $45 $-1 #
coedge $-1 $82 $151 $219 $220 forward $45 $-1 #
coedge $-1 $221 $222 $82 $148 reversed $223 $-1 #
edge $-1 $224 -51.619731995404067 $225 51.619731995404067 $147 $226 forward 7 unknown #
coedge $-1 $84 $83 $159 $227 reversed $29 $-1 #
edge $-1 $160 -51.619731995404067 $156 51.619731995404067 $83 $228 forward 7 unknown #
coedge $-1 $146 $145 $84 $152 forward $45 $-1 #
edge $-1 $155 -51.619731995404067 $229 51.619731995404067 $84 $230 forward 7 unknown #
coedge $-1 $231 $85 $145 $218 reversed $154 $-1 #
loop $-1 $-1 $231 $212 #
vertex $-1 $218 $232 #
vertex $-1 $91 $233 #
straight-curve $-1 -87.308903323198663 51.619731995404067 13.41441837033754 0 0 -1 I I #
coedge $-1 $234 $88 $93 $166 forward $142 $-1 #
coedge $-1 $88 $219 $149 $227 forward $142 $-1 #
vertex $-1 $150 $235 #
straight-curve $-1 -81.410120474734498 -51.619731995404067 9.7187237863221281 -1 0 0 I I #
coedge $-1 $90 $236 $92 $165 reversed $154 $-1 #
straight-curve $-1 -81.410120474734498 51.619731995404067 9.7187237863221281 1 0 0 I I #
coedge $-1 $93 $92 $237 $238 reversed $94 $-1 #
edge $-1 $96 -9.7187237863221281 $239 17.110112954352953 $162 $240 forward 7 unknown #
edge $-1 $95 -9.7187237863221281 $241 17.110112954352953 $93 $242 forward 7 unknown #
point $-1 -75.511337626270333 -51.619731995404067 9.7187237863221281 #
point $-1 -75.511337626270333 51.619731995404067 9.7187237863221281 #
face $-1 $243 $244 $11 $-1 $245 reversed single #
loop $-1 $-1 $246 $98 #
plane-surface $-1 0 0 17.110112954352953 0 0 1 1 0 0 forward_v I I I I #
coedge $-1 $247 $248 $249 $250 forward $99 $-1 #
coedge $-1 $251 $101 $252 $253 forward $53 $-1 #
coedge $-1 $101 $251 $254 $255 forward $53 $-1 #
coedge $-1 $256 $257 $101 $176 forward $258 $-1 #
edge $-1 $259 -51.619731995404067 $260 51.619731995404067 $175 $261 forward 7 unknown #
coedge $-1 $246 $262 $102 $178 forward $170 $-1 #
edge $-1 $181 -51.619731995404067 $263 51.619731995404067 $102 $264 forward 7 unknown #
coedge $-1 $265 $103 $262 $266 reversed $180 $-1 #
loop $-1 $-1 $267 $243 #
vertex $-1 $178 $268 #
straight-curve $-1 87.308903323198649 -51.619731995404067 13.41441837033754 0 0 -1 I I #
coedge $-1 $269 $270 $105 $184 forward $271 $-1 #
edge $-1 $191 -51.619731995404067 $186 51.619731995404067 $183 $272 forward 7 unknown #
coedge $-1 $106 $273 $269 $274 reversed $180 $-1 #
vertex $-1 $274 $275 #
straight-curve $-1 81.410120474734484 -51.619731995404067 9.7187237863221281 -1 0 0 I I #
coedge $-1 $276 $108 $270 $277 forward $190 $-1 #
coedge $-1 $108 $278 $110 $193 forward $190 $-1 #
loop $-1 $-1 $188 $279 #
vertex $-1 $277 $280 #
straight-curve $-1 81.410120474734484 51.619731995404067 9.7187237863221281 1 0 0 I I #
edge $-1 $263 -3.6956945840154098 $111 3.6956945840154116 $110 $281 forward 7 unknown #
point $-1 87.308903323198649 51.619731995404067 9.7187237863221281 #
point $-1 87.308903323198649 -51.619731995404067 9.7187237863221281 #
plane-surface $-1 75.511337626270333 0 0 -1 0 0 0 0 1 forward_v I I I I #
coedge $-1 $119 $117 $121 $201 reversed $61 $-1 #
edge $-1 $132 -17.110112954352953 $203 17.110112954352953 $131 $282 forward 7 unknown #
vertex $-1 $201 $283 #
straight-curve $-1 -75.511337626270333 -51.619731995404067 0 0 0 -1 I I #
edge $-1 $199 -51.619731995404067 $203 51.619731995404067 $197 $284 forward 7 unknown #
straight-curve $-1 0 -51.619731995404067 -17.110112954352953 -1 0 0 I I #
vertex $-1 $124 $285 #
straight-curve $-1 0 51.619731995404067 -17.110112954352953 1 0 0 I I #
point $-1 75.511337626270333 51.619731995404067 -17.110112954352953 #
point $-1 75.511337626270333 -51.619731995404067 -17.110112954352953 #
straight-curve $-1 -75.511337626270333 0 17.110112954352953 0 -1 0 I I #
point $-1 -75.511337626270333 51.619731995404067 17.110112954352953 #
point $-1 -75.511337626270333 -51.619731995404067 17.110112954352953 #
straight-curve $-1 75.511337626270333 -51.619731995404067 0 0 0 -1 I I #
straight-curve $-1 75.511337626270333 51.619731995404067 0 0 0 -1 I I #
face $-1 $286 $154 $10 $-1 $287 reversed single #
plane-surface $-1 -75.511337626270333 0 0 1 0 0 0 0 -1 forward_v I I I I #
coedge $-1 $237 $144 $234 $288 forward $80 $-1 #
coedge $-1 $144 $237 $236 $289 forward $80 $-1 #
coedge $-1 $222 $221 $144 $217 reversed $223 $-1 #
edge $-1 $290 -51.619731995404067 $291 51.619731995404067 $216 $292 forward 7 unknown #
edge $-1 $225 -75.511337626270333 $155 87.308903323198663 $153 $293 forward 7 unknown #
coedge $-1 $159 $294 $146 $220 reversed $142 $-1 #
edge $-1 $229 -87.308903323198663 $224 75.511337626270333 $219 $295 forward 7 unknown #
coedge $-1 $216 $147 $294 $296 forward $223 $-1 #
coedge $-1 $147 $216 $231 $297 reversed $223 $-1 #
loop $-1 $-1 $221 $286 #
vertex $-1 $148 $298 #
vertex $-1 $148 $299 #
straight-curve $-1 75.511337626270333 0 17.110112954352953 0 1 0 I I #
edge $-1 $229 -3.6956945840154098 $160 3.6956945840154116 $149 $300 forward 7 unknown #
straight-curve $-1 -87.308903323198663 0 9.7187237863221281 0 1 0 I I #
vertex $-1 $152 $301 #
straight-curve $-1 -87.308903323198663 0 17.11011295435295 0 -1 0 I I #
coedge $-1 $236 $153 $222 $297 forward $154 $-1 #
point $-1 -87.308903323198663 51.619731995404067 17.11011295435295 #
point $-1 -87.308903323198663 51.619731995404067 9.7187237863221281 #
coedge $-1 $294 $158 $214 $288 reversed $142 $-1 #
point $-1 -87.308903323198663 -51.619731995404067 9.7187237863221281 #
coedge $-1 $162 $231 $215 $289 reversed $154 $-1 #
coedge $-1 $215 $214 $164 $238 forward $80 $-1 #
edge $-1 $241 -51.619731995404067 $239 51.619731995404067 $164 $302 forward 7 unknown #
vertex $-1 $289 $303 #
straight-curve $-1 -75.511337626270333 51.619731995404067 0 0 0 -1 I I #
vertex $-1 $238 $304 #
straight-curve $-1 -75.511337626270333 -51.619731995404067 0 0 0 -1 I I #
face $-1 $305 $180 $11 $-1 $306 reversed single #
loop $-1 $-1 $307 $169 #
plane-surface $-1 0 0 -17.110112954352953 0 0 1 1 0 0 forward_v I I I I #
coedge $-1 $308 $177 $278 $309 forward $170 $-1 #
coedge $-1 $310 $172 $251 $311 reversed $99 $-1 #
coedge $-1 $172 $310 $308 $312 reversed $99 $-1 #
coedge $-1 $278 $254 $172 $250 reversed $190 $-1 #
edge $-1 $313 -3.6956945840154098 $314 3.6956945840154116 $249 $315 forward 7 unknown #
coedge $-1 $174 $173 $247 $311 forward $53 $-1 #
coedge $-1 $267 $265 $173 $253 reversed $180 $-1 #
edge $-1 $259 -5.8987828484641653 $316 5.8987828484641653 $252 $317 forward 7 unknown #
coedge $-1 $249 $318 $174 $255 reversed $190 $-1 #
edge $-1 $314 -5.8987828484641653 $260 5.8987828484641653 $254 $319 forward 7 unknown #
coedge $-1 $320 $175 $318 $321 forward $258 $-1 #
coedge $-1 $175 $320 $267 $322 reversed $258 $-1 #
loop $-1 $-1 $175 $305 #
vertex $-1 $322 $323 #
vertex $-1 $321 $324 #
straight-curve $-1 -75.511337626270333 0 9.7187237863221281 0 1 0 I I #
coedge $-1 $177 $308 $179 $266 forward $170 $-1 #
vertex $-1 $178 $325 #
straight-curve $-1 87.308903323198649 0 17.11011295435295 0 1 0 I I #
coedge $-1 $252 $179 $310 $326 forward $180 $-1 #
edge $-1 $327 -168.71902379793315 $181 5.8987828484641653 $179 $328 forward 7 unknown #
coedge $-1 $273 $252 $257 $322 forward $180 $-1 #
point $-1 87.308903323198649 -51.619731995404067 17.11011295435295 #
coedge $-1 $329 $183 $185 $274 forward $271 $-1 #
coedge $-1 $183 $329 $188 $277 reversed $271 $-1 #
loop $-1 $-1 $183 $330 #
straight-curve $-1 75.511337626270333 0 9.7187237863221281 0 -1 0 I I #
coedge $-1 $185 $267 $331 $332 reversed $180 $-1 #
edge $-1 $186 -9.7187237863221281 $333 17.110112954352953 $269 $334 forward 7 unknown #
point $-1 75.511337626270318 -51.619731995404067 9.7187237863221281 #
coedge $-1 $318 $188 $335 $336 reversed $190 $-1 #
edge $-1 $191 -9.7187237863221281 $337 17.110112954352953 $270 $338 forward 7 unknown #
coedge $-1 $189 $249 $246 $309 reversed $190 $-1 #
face $-1 $330 $190 $11 $-1 $339 reversed single #
point $-1 75.511337626270318 51.619731995404067 9.7187237863221281 #
straight-curve $-1 87.308903323198649 51.619731995404067 13.41441837033754 0 0 -1 I I #
straight-curve $-1 -75.511337626270333 51.619731995404067 0 0 0 -1 I I #
point $-1 -75.511337626270333 -51.619731995404067 -17.110112954352953 #
straight-curve $-1 -75.511337626270333 0 -17.110112954352953 0 1 0 I I #
point $-1 -75.511337626270333 51.619731995404067 -17.110112954352953 #
face $-1 $-1 $223 $10 $-1 $340 reversed single #
plane-surface $-1 0 51.619731995404067 0 0 -1 0 0 0 -1 forward_v I I I I #
edge $-1 $291 -75.511337626270333 $241 75.511337626270333 $234 $341 forward 7 unknown #
edge $-1 $239 -75.511337626270333 $290 75.511337626270333 $236 $342 forward 7 unknown #
vertex $-1 $217 $343 #
vertex $-1 $296 $344 #
straight-curve $-1 75.511337626270333 0 -17.110112954352953 0 -1 0 I I #
straight-curve $-1 0 51.619731995404067 17.110112954352953 -1 0 0 I I #
coedge $-1 $219 $234 $221 $296 reversed $142 $-1 #
straight-curve $-1 0 -51.619731995404067 17.110112954352953 1 0 0 I I #
edge $-1 $224 -17.110112954352953 $291 17.110112954352953 $221 $345 forward 7 unknown #
edge $-1 $225 -17.110112954352953 $290 17.110112954352953 $222 $346 forward 7 unknown #
point $-1 75.511337626270333 -51.619731995404067 17.110112954352953 #
point $-1 75.511337626270333 51.619731995404067 17.110112954352953 #
straight-curve $-1 -87.308903323198663 -51.619731995404067 13.41441837033754 0 0 -1 I I #
point $-1 -87.308903323198663 -51.619731995404067 17.11011295435295 #
straight-curve $-1 -75.511337626270333 0 -17.110112954352953 0 1 0 I I #
point $-1 -75.511337626270333 51.619731995404067 -17.110112954352953 #
point $-1 -75.511337626270333 -51.619731995404067 -17.110112954352953 #
face $-1 $279 $258 $11 $-1 $347 reversed single #
plane-surface $-1 0 -51.619731995404067 0 0 1 0 0 0 1 forward_v I I I I #
coedge $-1 $331 $335 $329 $348 forward $244 $-1 #
coedge $-1 $262 $246 $248 $312 forward $170 $-1 #
edge $-1 $263 -87.308903323198649 $313 87.308903323198663 $278 $349 forward 7 unknown #
coedge $-1 $248 $247 $265 $326 reversed $99 $-1 #
edge $-1 $316 -51.619731995404067 $314 51.619731995404067 $247 $350 forward 7 unknown #
edge $-1 $313 -51.619731995404067 $327 51.619731995404067 $248 $351 forward 7 unknown #
vertex $-1 $309 $352 #
vertex $-1 $255 $353 #
straight-curve $-1 -87.308903323198663 51.619731995404067 13.41441837033754 0 0 -1 I I #
vertex $-1 $311 $354 #
straight-curve $-1 -81.410120474734498 -51.619731995404067 9.7187237863221281 -1 0 0 I I #
coedge $-1 $254 $276 $256 $321 reversed $190 $-1 #
straight-curve $-1 -81.410120474734498 51.619731995404067 9.7187237863221281 1 0 0 I I #
coedge $-1 $257 $256 $355 $356 reversed $258 $-1 #
edge $-1 $260 -9.7187237863221281 $357 17.110112954352953 $318 $358 forward 7 unknown #
edge $-1 $259 -9.7187237863221281 $359 17.110112954352953 $257 $360 forward 7 unknown #
point $-1 -75.511337626270333 -51.619731995404067 9.7187237863221281 #
point $-1 -75.511337626270333 51.619731995404067 9.7187237863221281 #
point $-1 87.308903323198649 51.619731995404067 17.11011295435295 #
edge $-1 $327 -3.6956945840154098 $316 3.6956945840154116 $310 $361 forward 7 unknown #
vertex $-1 $312 $362 #
straight-curve $-1 81.410120474734484 -51.619731995404067 17.11011295435295 1 0 0 I I #
coedge $-1 $270 $269 $307 $348 reversed $271 $-1 #
face $-1 $-1 $271 $11 $-1 $363 reversed single #
coedge $-1 $355 $307 $273 $332 forward $244 $-1 #
edge $-1 $333 -75.511337626270333 $359 75.511337626270333 $273 $364 forward 7 unknown #
vertex $-1 $274 $365 #
straight-curve $-1 75.511337626270333 -51.619731995404067 0 0 0 -1 I I #
coedge $-1 $307 $355 $276 $336 forward $244 $-1 #
edge $-1 $357 -75.511337626270333 $337 75.511337626270333 $276 $366 forward 7 unknown #
vertex $-1 $348 $367 #
straight-curve $-1 75.511337626270333 51.619731995404067 0 0 0 -1 I I #
plane-surface $-1 0 51.619731995404067 0 0 -1 0 0 0 -1 forward_v I I I I #
plane-surface $-1 75.511337626270333 0 0 -1 0 0 0 0 1 forward_v I I I I #
straight-curve $-1 0 -51.619731995404067 -17.110112954352953 -1 0 0 I I #
straight-curve $-1 0 51.619731995404067 -17.110112954352953 1 0 0 I I #
point $-1 75.511337626270333 51.619731995404067 -17.110112954352953 #
point $-1 75.511337626270333 -51.619731995404067 -17.110112954352953 #
straight-curve $-1 75.511337626270333 -51.619731995404067 0 0 0 -1 I I #
straight-curve $-1 75.511337626270333 51.619731995404067 0 0 0 -1 I I #
plane-surface $-1 -75.511337626270333 0 0 1 0 0 0 0 -1 forward_v I I I I #
edge $-1 $337 -51.619731995404067 $333 51.619731995404067 $329 $368 forward 7 unknown #
straight-curve $-1 0 51.619731995404067 17.110112954352953 -1 0 0 I I #
straight-curve $-1 -87.308903323198663 0 9.7187237863221281 0 1 0 I I #
straight-curve $-1 -87.308903323198663 0 17.11011295435295 0 -1 0 I I #
point $-1 -87.308903323198663 51.619731995404067 17.11011295435295 #
point $-1 -87.308903323198663 51.619731995404067 9.7187237863221281 #
point $-1 -87.308903323198663 -51.619731995404067 9.7187237863221281 #
coedge $-1 $335 $331 $320 $356 forward $244 $-1 #
edge $-1 $359 -51.619731995404067 $357 51.619731995404067 $320 $369 forward 7 unknown #
vertex $-1 $336 $370 #
straight-curve $-1 -75.511337626270333 51.619731995404067 0 0 0 -1 I I #
vertex $-1 $356 $371 #
straight-curve $-1 -75.511337626270333 -51.619731995404067 0 0 0 -1 I I #
straight-curve $-1 -87.308903323198663 -51.619731995404067 13.41441837033754 0 0 -1 I I #
point $-1 -87.308903323198663 -51.619731995404067 17.11011295435295 #
plane-surface $-1 75.511337626270333 0 0 -1 0 0 0 0 1 forward_v I I I I #
straight-curve $-1 0 -51.619731995404067 -17.110112954352953 -1 0 0 I I #
point $-1 75.511337626270333 -51.619731995404067 -17.110112954352953 #
straight-curve $-1 0 51.619731995404067 -17.110112954352953 1 0 0 I I #
point $-1 75.511337626270333 51.619731995404067 -17.110112954352953 #
straight-curve $-1 75.511337626270333 0 -17.110112954352953 0 -1 0 I I #
straight-curve $-1 -75.511337626270333 0 -17.110112954352953 0 1 0 I I #
point $-1 -75.511337626270333 51.619731995404067 -17.110112954352953 #
point $-1 -75.511337626270333 -51.619731995404067 -17.110112954352953 #
End-of-ACIS-data 