500 0 5 0           
7 Unknown 11 ACIS 5.0 NT 24 Thu Mar 25 19:47:37 1999 
-1 9.9999999999999995e-007 1e-010 
body $-1 $5 $-1 $6 #
body $-1 $7 $-1 $8 #
body $-1 $9 $-1 $10 #
body $-1 $11 $-1 $12 #
body $-1 $13 $-1 $14 #
lump $-1 $-1 $15 $0 #
transform $-1 1 0 0 0 1 0 0 0 1 58.903164769432664 26.807258663416381 9.8185562951483298 1 rotate no_reflect no_shear #
lump $-1 $-1 $16 $1 #
transform $-1 1 0 0 0 1 0 0 0 1 58.903164769432664 26.807258663416381 9.8185562951483298 1 rotate no_reflect no_shear #
lump $-1 $-1 $17 $2 #
transform $-1 1 0 0 0 1 0 0 0 1 58.903164769432664 26.807258663416381 9.8185562951483298 1 rotate no_reflect no_shear #
lump $-1 $-1 $18 $3 #
transform $-1 1 0 0 0 1 0 0 0 1 58.903164769432664 26.807258663416381 9.8185562951483298 1 rotate no_reflect no_shear #
lump $-1 $-1 $19 $4 #
transform $-1 1 0 0 0 1 0 0 0 1 58.903164769432664 26.807258663416381 9.8185562951483298 1 rotate no_reflect no_shear #
shell $-1 $-1 $-1 $20 $-1 $5 #
shell $-1 $-1 $-1 $21 $-1 $7 #
shell $-1 $-1 $-1 $22 $-1 $9 #
shell $-1 $-1 $-1 $23 $-1 $11 #
shell $-1 $-1 $-1 $24 $-1 $13 #
face $-1 $25 $26 $15 $-1 $27 forward single #
face $-1 $28 $29 $16 $-1 $30 reversed single #
face $-1 $31 $32 $17 $-1 $33 reversed single #
face $-1 $34 $35 $18 $-1 $36 forward single #
face $-1 $37 $38 $19 $-1 $39 forward single #
face $-1 $40 $41 $15 $-1 $42 reversed single #
loop $-1 $-1 $43 $20 #
plane-surface $-1 0 0 9.8185562951483298 0 0 1 1 0 0 forward_v I I I I #
face $-1 $44 $45 $16 $-1 $46 reversed single #
loop $-1 $-1 $47 $21 #
plane-surface $-1 0 -22.755497330858564 4.4880034414567582 0 0 1 1 0 0 forward_v I I I I #
face $-1 $48 $49 $17 $-1 $50 reversed single #
loop $-1 $-1 $51 $22 #
plane-surface $-1 46.294360545387804 -12.40391663869589 43.054783985968768 0 0.68199836817093118 0.7313536940579346 1 0 0 forward_v I I I I #
face $-1 $52 $53 $18 $-1 $54 forward single #
loop $-1 $55 $56 $23 #
cone-surface $-1 40.890587306511449 24.681416739602685 7.7884866299435451 0 -0.68199836817093118 -0.7313536940579346 0.5 0 0 1 I I 0 1 0.5 forward I I I I #
face $-1 $57 $58 $19 $-1 $59 forward single #
loop $-1 $60 $61 $24 #
cone-surface $-1 51.698133784264172 24.681416739602685 7.7884866299435451 0 -0.68199836817093118 -0.7313536940579346 0.5 0 0 1 I I 0 1 0.5 forward I I I I #
face $-1 $62 $63 $15 $-1 $64 reversed single #
loop $-1 $-1 $65 $25 #
plane-surface $-1 0 0 -9.8185562951483298 0 0 1 1 0 0 forward_v I I I I #
coedge $-1 $66 $67 $68 $69 forward $26 $-1 #
face $-1 $70 $71 $16 $-1 $72 reversed single #
loop $-1 $-1 $73 $28 #
plane-surface $-1 0 -18.703735998300747 7.153279868302544 0 -1 0 0 0 -1 forward_v I I I I #
coedge $-1 $74 $75 $76 $77 reversed $29 $-1 #
face $-1 $78 $79 $17 $-1 $80 forward single #
loop $-1 $-1 $81 $31 #
plane-surface $-1 33.685556321342951 67.939807867017237 129.2128782776243 1 0 0 0 -0.68199836817093118 -0.7313536940579346 forward_v I I I I #
coedge $-1 $82 $83 $84 $85 reversed $32 $-1 #
face $-1 $-1 $86 $18 $-1 $87 forward single #
loop $-1 $88 $89 $34 #
cone-surface $-1 40.890587306511449 24.169917963474486 7.2399713594000943 0 -0.68199836817093118 -0.7313536940579346 0.25 0 0 1 I I -0.70710678118654746 0.70710678118654746 0.25 forward I I I I #
loop $-1 $-1 $90 $23 #
coedge $-1 $56 $56 $91 $92 reversed $35 $-1 #
face $-1 $-1 $93 $19 $-1 $94 forward single #
loop $-1 $95 $96 $37 #
cone-surface $-1 51.698133784264172 24.169917963474486 7.2399713594000943 0 -0.68199836817093118 -0.7313536940579346 0.25 0 0 1 I I -0.70710678118654746 0.70710678118654746 0.25 forward I I I I #
loop $-1 $-1 $97 $24 #
coedge $-1 $61 $61 $98 $99 reversed $38 $-1 #
face $-1 $100 $101 $15 $-1 $102 reversed single #
loop $-1 $-1 $103 $40 #
plane-surface $-1 0 -26.807258663416381 0 0 1 0 0 0 1 forward_v I I I I #
coedge $-1 $104 $105 $106 $107 forward $41 $-1 #
coedge $-1 $108 $43 $109 $110 forward $26 $-1 #
coedge $-1 $43 $108 $111 $112 forward $26 $-1 #
coedge $-1 $113 $114 $43 $69 reversed $115 $-1 #
edge $-1 $116 -26.807258663416381 $117 26.807258663416381 $68 $118 forward 7 unknown #
face $-1 $119 $120 $16 $-1 $121 reversed single #
loop $-1 $-1 $122 $44 #
plane-surface $-1 -58.903164769432664 0 0 1 0 0 0 0 -1 forward_v I I I I #
coedge $-1 $123 $124 $125 $126 reversed $45 $-1 #
coedge $-1 $127 $47 $128 $129 reversed $29 $-1 #
coedge $-1 $47 $127 $123 $130 forward $29 $-1 #
coedge $-1 $125 $131 $47 $77 forward $132 $-1 #
edge $-1 $133 -15.429509997987099 $134 -7.3259873328714651 $76 $135 forward 7 unknown #
face $-1 $136 $137 $17 $-1 $138 reversed single #
loop $-1 $-1 $139 $48 #
plane-surface $-1 0 0 9.8185562951483298 0 0 1 1 0 0 forward_v I I I I #
coedge $-1 $140 $141 $142 $143 reversed $49 $-1 #
coedge $-1 $144 $51 $145 $146 reversed $32 $-1 #
coedge $-1 $51 $144 $140 $147 forward $32 $-1 #
coedge $-1 $142 $148 $51 $85 forward $149 $-1 #
edge $-1 $150 -35.755984496738762 $151 -10.538376048649049 $84 $152 forward 7 unknown #
loop $-1 $-1 $91 $52 #
plane-surface $-1 46.294360545387804 -12.40391663869589 43.054783985968768 0 0.68199836817093118 0.7313536940579346 1 0 0 forward_v I I I I #
loop $-1 $-1 $153 $34 #
coedge $-1 $89 $89 $90 $154 reversed $53 $-1 #
coedge $-1 $90 $90 $89 $154 forward $55 $-1 #
coedge $-1 $91 $91 $56 $92 forward $86 $-1 #
edge $-1 $155 6.6949151751635336e-016 $155 6.2831853071796013 $91 $156 forward 7 unknown #
loop $-1 $-1 $98 $57 #
plane-surface $-1 46.294360545387804 -12.40391663869589 43.054783985968768 0 0.68199836817093118 0.7313536940579346 1 0 0 forward_v I I I I #
loop $-1 $-1 $157 $37 #
coedge $-1 $96 $96 $97 $158 reversed $58 $-1 #
coedge $-1 $97 $97 $96 $158 forward $60 $-1 #
coedge $-1 $98 $98 $61 $99 forward $93 $-1 #
edge $-1 $159 6.6949151751635336e-016 $159 6.2831853071796013 $98 $160 forward 7 unknown #
face $-1 $161 $162 $15 $-1 $163 reversed single #
loop $-1 $-1 $164 $62 #
plane-surface $-1 -58.903164769432664 0 0 1 0 0 0 0 -1 forward_v I I I I #
coedge $-1 $165 $111 $166 $167 forward $63 $-1 #
coedge $-1 $168 $65 $165 $169 forward $41 $-1 #
coedge $-1 $65 $168 $170 $171 forward $41 $-1 #
coedge $-1 $114 $113 $65 $107 reversed $115 $-1 #
edge $-1 $172 -26.807258663416381 $173 26.807258663416381 $106 $174 forward 7 unknown #
coedge $-1 $67 $66 $175 $176 forward $26 $-1 #
coedge $-1 $177 $178 $66 $110 reversed $162 $-1 #
edge $-1 $117 -58.903164769432664 $179 58.903164769432664 $109 $180 forward 7 unknown #
coedge $-1 $103 $181 $67 $112 reversed $63 $-1 #
edge $-1 $182 -58.903164769432664 $116 58.903164769432664 $111 $183 forward 7 unknown #
coedge $-1 $106 $68 $181 $184 forward $115 $-1 #
coedge $-1 $68 $106 $177 $185 reversed $115 $-1 #
loop $-1 $-1 $113 $161 #
vertex $-1 $69 $186 #
vertex $-1 $69 $187 #
straight-curve $-1 58.903164769432664 0 9.8185562951483298 0 1 0 I I #
face $-1 $188 $189 $16 $-1 $190 forward single #
loop $-1 $-1 $128 $70 #
plane-surface $-1 0 -26.807258663416381 0 0 1 0 0 0 1 forward_v I I I I #
coedge $-1 $191 $192 $193 $194 forward $71 $-1 #
coedge $-1 $193 $73 $75 $130 reversed $45 $-1 #
coedge $-1 $73 $193 $195 $196 reversed $45 $-1 #
coedge $-1 $197 $76 $73 $126 forward $132 $-1 #
edge $-1 $134 0.91136350730548621 $198 6.2419163609970578 $125 $199 forward 7 unknown #
coedge $-1 $75 $74 $191 $200 reversed $29 $-1 #
coedge $-1 $201 $202 $74 $129 forward $120 $-1 #
edge $-1 $203 -58.903164769432664 $133 58.903164769432664 $128 $204 forward 7 unknown #
edge $-1 $205 -58.903164769432664 $134 58.903164769432664 $123 $206 forward 7 unknown #
coedge $-1 $76 $197 $201 $207 forward $132 $-1 #
loop $-1 $-1 $125 $188 #
vertex $-1 $129 $208 #
vertex $-1 $77 $209 #
straight-curve $-1 58.903164769432664 -11.377748665429282 4.4880034414567582 0 1 0 I I #
face $-1 $-1 $149 $17 $-1 $210 reversed single #
loop $-1 $-1 $145 $78 #
plane-surface $-1 58.903164769432664 0 0 -1 0 0 0 0 1 forward_v I I I I #
coedge $-1 $211 $212 $141 $213 forward $79 $-1 #
coedge $-1 $141 $81 $83 $147 reversed $49 $-1 #
coedge $-1 $81 $140 $139 $213 reversed $49 $-1 #
coedge $-1 $214 $84 $81 $143 forward $149 $-1 #
edge $-1 $151 -58.116668480015427 $215 -54.787882843663823 $142 $216 forward 7 unknown #
coedge $-1 $83 $82 $211 $217 reversed $32 $-1 #
coedge $-1 $218 $219 $82 $146 forward $137 $-1 #
edge $-1 $220 29.516116955384916 $150 34.397045989392964 $145 $221 forward 7 unknown #
edge $-1 $222 48.733588292824699 $151 53.61451732683274 $140 $223 forward 7 unknown #
coedge $-1 $84 $214 $218 $224 forward $149 $-1 #
loop $-1 $-1 $142 $136 #
vertex $-1 $146 $225 #
vertex $-1 $85 $226 #
straight-curve $-1 23.147180272693902 26.807258663416377 6.4897706587967257 -1 0 0 I I #
coedge $-1 $153 $153 $-1 $227 reversed $88 $-1 #
edge $-1 $228 0 $228 6.2831853071796004 $89 $229 forward 7 unknown #
vertex $-1 $92 $230 #
ellipse-curve $-1 40.890587306511449 25.022415923688168 8.1541634769725313 0 0.68199836817093118 0.7313536940579346 0.5 0 0 1 I I #
coedge $-1 $157 $157 $-1 $231 reversed $95 $-1 #
edge $-1 $232 0 $232 6.2831853071796004 $96 $233 forward 7 unknown #
vertex $-1 $99 $234 #
ellipse-curve $-1 51.698133784264172 25.022415923688168 8.1541634769725313 0 0.68199836817093118 0.7313536940579346 0.5 0 0 1 I I #
face $-1 $-1 $115 $15 $-1 $235 reversed single #
loop $-1 $-1 $177 $100 #
plane-surface $-1 0 26.807258663416381 0 0 -1 0 0 0 -1 forward_v I I I I #
coedge $-1 $236 $175 $178 $237 forward $101 $-1 #
coedge $-1 $181 $103 $104 $169 reversed $63 $-1 #
coedge $-1 $175 $236 $103 $167 reversed $101 $-1 #
edge $-1 $182 -9.8185562951483298 $238 9.8185562951483298 $166 $239 forward 7 unknown #
coedge $-1 $105 $104 $236 $240 forward $41 $-1 #
edge $-1 $173 -58.903164769432664 $238 58.903164769432664 $165 $241 forward 7 unknown #
coedge $-1 $178 $177 $105 $171 reversed $162 $-1 #
edge $-1 $242 -58.903164769432664 $172 58.903164769432664 $170 $243 forward 7 unknown #
vertex $-1 $107 $244 #
vertex $-1 $184 $245 #
straight-curve $-1 58.903164769432664 0 -9.8185562951483298 0 -1 0 I I #
coedge $-1 $164 $166 $108 $176 reversed $101 $-1 #
edge $-1 $179 -26.807258663416381 $182 26.807258663416381 $175 $246 forward 7 unknown #
coedge $-1 $170 $109 $114 $185 forward $162 $-1 #
coedge $-1 $109 $170 $164 $237 reversed $162 $-1 #
vertex $-1 $110 $247 #
straight-curve $-1 0 26.807258663416381 9.8185562951483298 -1 0 0 I I #
coedge $-1 $111 $165 $113 $184 reversed $63 $-1 #
vertex $-1 $176 $248 #
straight-curve $-1 0 -26.807258663416381 9.8185562951483298 1 0 0 I I #
edge $-1 $116 -9.8185562951483298 $173 9.8185562951483298 $113 $249 forward 7 unknown #
edge $-1 $117 -9.8185562951483298 $172 9.8185562951483298 $114 $250 forward 7 unknown #
point $-1 58.903164769432664 -26.807258663416381 9.8185562951483298 #
point $-1 58.903164769432664 26.807258663416381 9.8185562951483298 #
face $-1 $-1 $132 $16 $-1 $251 reversed single #
loop $-1 $-1 $195 $119 #
plane-surface $-1 0 0 9.8185562951483298 0 0 1 1 0 0 forward_v I I I I #
coedge $-1 $252 $122 $127 $200 forward $71 $-1 #
coedge $-1 $122 $252 $253 $254 reversed $71 $-1 #
coedge $-1 $124 $123 $122 $194 reversed $45 $-1 #
edge $-1 $255 -6.2419163609970578 $205 -0.91136350730548621 $122 $256 forward 7 unknown #
coedge $-1 $253 $257 $124 $196 forward $189 $-1 #
edge $-1 $198 -58.903164769432664 $255 58.903164769432664 $195 $258 forward 7 unknown #
coedge $-1 $131 $125 $257 $259 reversed $132 $-1 #
vertex $-1 $126 $260 #
straight-curve $-1 58.903164769432664 -18.703735998300747 3.576639934151272 0 0 1 I I #
edge $-1 $205 7.3259873328714651 $203 15.429509997987099 $191 $261 forward 7 unknown #
coedge $-1 $262 $128 $131 $207 reversed $120 $-1 #
coedge $-1 $128 $262 $252 $263 forward $120 $-1 #
vertex $-1 $129 $264 #
straight-curve $-1 0 -26.807258663416381 4.4880034414567582 1 0 0 I I #
vertex $-1 $200 $265 #
straight-curve $-1 0 -18.703735998300747 4.4880034414567582 1 0 0 I I #
edge $-1 $266 -9.8185562951483298 $133 -4.4880034414567582 $131 $267 forward 7 unknown #
point $-1 58.903164769432664 -26.807258663416381 4.4880034414567582 #
point $-1 58.903164769432664 -18.703735998300747 4.4880034414567582 #
plane-surface $-1 0 26.807258663416381 0 0 -1 0 0 0 -1 forward_v I I I I #
coedge $-1 $268 $139 $144 $217 forward $79 $-1 #
coedge $-1 $139 $268 $214 $269 forward $79 $-1 #
edge $-1 $215 7.1626452700922378 $222 10.732330749548652 $139 $270 forward 7 unknown #
coedge $-1 $148 $142 $212 $269 reversed $149 $-1 #
vertex $-1 $213 $271 #
straight-curve $-1 33.685556321342951 26.807258663416381 64.606439138812149 0 0 1 I I #
edge $-1 $222 10.538376048649049 $220 35.755984496738755 $211 $272 forward 7 unknown #
coedge $-1 $219 $145 $148 $224 reversed $137 $-1 #
coedge $-1 $145 $218 $268 $273 reversed $137 $-1 #
vertex $-1 $273 $274 #
straight-curve $-1 58.903164769432664 1.6508520143931689 29.948499893463193 0 0.7313536940579346 -0.68199836817093118 I I #
vertex $-1 $217 $275 #
straight-curve $-1 33.685556321342951 -12.40391663869589 43.054783985968768 0 0.7313536940579346 -0.68199836817093118 I I #
edge $-1 $276 -9.8185562951483298 $150 -6.4897706587967248 $218 $277 forward 7 unknown #
point $-1 58.903164769432664 26.807258663416381 6.4897706587967248 #
point $-1 33.685556321342951 26.807258663416377 6.4897706587967221 #
edge $-1 $278 1 $278 0 $153 $-1 forward 7 unknown #
vertex $-1 $154 $279 #
ellipse-curve $-1 40.890587306511449 24.34041755551722 7.4228097829145776 0 0.68199836817093118 0.7313536940579346 0.5 0 0 1 I I #
point $-1 41.390587306511449 25.02241592368815 8.1541634769725118 #
edge $-1 $280 1 $280 0 $157 $-1 forward 7 unknown #
vertex $-1 $158 $281 #
ellipse-curve $-1 51.698133784264172 24.34041755551722 7.4228097829145776 0 0.68199836817093118 0.7313536940579346 0.5 0 0 1 I I #
point $-1 52.198133784264172 25.02241592368815 8.1541634769725118 #
plane-surface $-1 58.903164769432664 0 0 -1 0 0 0 0 1 forward_v I I I I #
coedge $-1 $166 $164 $168 $240 reversed $101 $-1 #
edge $-1 $179 -9.8185562951483298 $242 9.8185562951483298 $178 $282 forward 7 unknown #
vertex $-1 $240 $283 #
straight-curve $-1 -58.903164769432664 -26.807258663416381 0 0 0 -1 I I #
edge $-1 $238 -26.807258663416381 $242 26.807258663416381 $236 $284 forward 7 unknown #
straight-curve $-1 0 -26.807258663416381 -9.8185562951483298 -1 0 0 I I #
vertex $-1 $171 $285 #
straight-curve $-1 0 26.807258663416381 -9.8185562951483298 1 0 0 I I #
point $-1 58.903164769432664 26.807258663416381 -9.8185562951483298 #
point $-1 58.903164769432664 -26.807258663416381 -9.8185562951483298 #
straight-curve $-1 -58.903164769432664 0 9.8185562951483298 0 -1 0 I I #
point $-1 -58.903164769432664 26.807258663416381 9.8185562951483298 #
point $-1 -58.903164769432664 -26.807258663416381 9.8185562951483298 #
straight-curve $-1 58.903164769432664 -26.807258663416381 0 0 0 -1 I I #
straight-curve $-1 58.903164769432664 26.807258663416381 0 0 0 -1 I I #
plane-surface $-1 58.903164769432664 0 0 -1 0 0 0 0 1 forward_v I I I I #
coedge $-1 $192 $191 $202 $263 reversed $71 $-1 #
coedge $-1 $286 $195 $192 $254 forward $189 $-1 #
edge $-1 $255 18.703735998300747 $287 26.807258663416381 $192 $288 forward 7 unknown #
vertex $-1 $254 $289 #
straight-curve $-1 -58.903164769432664 -18.703735998300747 3.576639934151272 0 0 -1 I I #
coedge $-1 $195 $286 $197 $259 forward $189 $-1 #
straight-curve $-1 0 -18.703735998300747 9.8185562951483298 -1 0 0 I I #
edge $-1 $266 -26.807258663416381 $198 -18.703735998300747 $197 $290 forward 7 unknown #
point $-1 58.903164769432664 -18.703735998300747 9.8185562951483298 #
straight-curve $-1 -58.903164769432664 -11.377748665429282 4.4880034414567582 0 -1 0 I I #
coedge $-1 $202 $201 $286 $291 reversed $120 $-1 #
edge $-1 $287 -9.8185562951483298 $203 -4.4880034414567582 $252 $292 forward 7 unknown #
point $-1 -58.903164769432664 -26.807258663416381 4.4880034414567582 #
point $-1 -58.903164769432664 -18.703735998300747 4.4880034414567582 #
vertex $-1 $259 $293 #
straight-curve $-1 58.903164769432664 -26.807258663416381 0 0 0 -1 I I #
coedge $-1 $212 $211 $219 $273 forward $79 $-1 #
edge $-1 $276 -58.903164769432664 $215 -33.685556321342951 $214 $294 forward 7 unknown #
straight-curve $-1 33.685556321342951 33.969903933508618 9.8185562951483263 0 -1 0 I I #
point $-1 33.685556321342951 26.807258663416381 9.8185562951483298 #
straight-curve $-1 23.147180272693902 23.23757318395997 9.8185562951483298 1 0 0 I I #
edge $-1 $220 23.237573183959967 $276 26.807258663416381 $219 $295 forward 7 unknown #
point $-1 58.903164769432657 23.237573183959967 9.8185562951483263 #
point $-1 33.685556321342951 23.237573183959967 9.8185562951483263 #
vertex $-1 $273 $296 #
straight-curve $-1 58.903164769432664 26.807258663416381 0 0 0 -1 I I #
vertex $-1 $227 $297 #
point $-1 41.390587306511449 24.34041755551722 7.4228097829145776 #
vertex $-1 $231 $298 #
point $-1 52.198133784264172 24.34041755551722 7.4228097829145776 #
straight-curve $-1 -58.903164769432664 26.807258663416381 0 0 0 -1 I I #
point $-1 -58.903164769432664 -26.807258663416381 -9.8185562951483298 #
straight-curve $-1 -58.903164769432664 0 -9.8185562951483298 0 1 0 I I #
point $-1 -58.903164769432664 26.807258663416381 -9.8185562951483298 #
coedge $-1 $257 $253 $262 $291 forward $189 $-1 #
vertex $-1 $254 $299 #
straight-curve $-1 -58.903164769432664 0 9.8185562951483298 0 -1 0 I I #
point $-1 -58.903164769432664 -18.703735998300747 9.8185562951483298 #
straight-curve $-1 58.903164769432664 0 9.8185562951483298 0 1 0 I I #
edge $-1 $287 -58.903164769432664 $266 58.903164769432664 $262 $300 forward 7 unknown #
straight-curve $-1 -58.903164769432664 -26.807258663416381 0 0 0 -1 I I #
point $-1 58.903164769432664 -26.807258663416381 9.8185562951483298 #
straight-curve $-1 0 26.807258663416381 9.8185562951483298 -1 0 0 I I #
straight-curve $-1 58.903164769432664 0 9.8185562951483298 0 1 0 I I #
point $-1 58.903164769432664 26.807258663416381 9.8185562951483298 #
point $-1 40.890587306511449 23.999418371431751 7.057132935885611 #
point $-1 51.698133784264172 23.999418371431751 7.057132935885611 #
point $-1 -58.903164769432664 -26.807258663416381 9.8185562951483298 #
straight-curve $-1 0 -26.807258663416381 9.8185562951483298 1 0 0 I I #
End-of-ACIS-data 