500 0 9 0           
7 Unknown 11 ACIS 5.0 NT 24 Thu Mar 25 21:09:27 1999 
-1 9.9999999999999995e-007 1e-010 
body $-1 $9 $-1 $10 #
body $-1 $11 $-1 $12 #
body $-1 $13 $-1 $14 #
body $-1 $15 $-1 $16 #
body $-1 $17 $-1 $18 #
body $-1 $19 $-1 $20 #
body $-1 $21 $-1 $22 #
body $-1 $23 $-1 $24 #
body $-1 $25 $-1 $26 #
lump $-1 $-1 $27 $0 #
transform $-1 1 0 0 0 1 0 0 0 1 69.278237250892658 48.492863233938841 9.8055715790004765 1 rotate no_reflect no_shear #
lump $-1 $-1 $28 $1 #
transform $-1 1 0 0 0 1 0 0 0 1 69.278237250892658 48.492863233938841 9.8055715790004765 1 rotate no_reflect no_shear #
lump $-1 $-1 $29 $2 #
transform $-1 1 0 0 0 1 0 0 0 1 69.278237250892658 48.492863233938841 9.8055715790004765 1 rotate no_reflect no_shear #
lump $-1 $-1 $30 $3 #
transform $-1 1 0 0 0 1 0 0 0 1 69.278237250892658 48.492863233938841 9.8055715790004765 1 rotate no_reflect no_shear #
lump $-1 $-1 $31 $4 #
transform $-1 1 0 0 0 1 0 0 0 1 69.278237250892658 48.492863233938841 9.8055715790004765 1 rotate no_reflect no_shear #
lump $-1 $-1 $32 $5 #
transform $-1 1 0 0 0 1 0 0 0 1 69.278237250892658 48.492863233938841 9.8055715790004765 1 rotate no_reflect no_shear #
lump $-1 $-1 $33 $6 #
transform $-1 1 0 0 0 1 0 0 0 1 69.278237250892658 48.492863233938841 9.8055715790004765 1 rotate no_reflect no_shear #
lump $-1 $-1 $34 $7 #
transform $-1 1 0 0 0 1 0 0 0 1 69.278237250892658 48.492863233938841 9.8055715790004765 1 rotate no_reflect no_shear #
lump $-1 $-1 $35 $8 #
transform $-1 1 0 0 0 1 0 0 0 1 69.278237250892658 48.492863233938841 9.8055715790004765 1 rotate no_reflect no_shear #
shell $-1 $-1 $-1 $36 $-1 $9 #
shell $-1 $-1 $-1 $37 $-1 $11 #
shell $-1 $-1 $-1 $38 $-1 $13 #
shell $-1 $-1 $-1 $39 $-1 $15 #
shell $-1 $-1 $-1 $40 $-1 $17 #
shell $-1 $-1 $-1 $41 $-1 $19 #
shell $-1 $-1 $-1 $42 $-1 $21 #
shell $-1 $-1 $-1 $43 $-1 $23 #
shell $-1 $-1 $-1 $44 $-1 $25 #
face $-1 $45 $46 $27 $-1 $47 forward single #
face $-1 $48 $49 $28 $-1 $50 reversed single #
face $-1 $51 $52 $29 $-1 $53 forward single #
face $-1 $54 $55 $30 $-1 $56 reversed single #
face $-1 $57 $58 $31 $-1 $59 forward single #
face $-1 $60 $61 $32 $-1 $62 forward single #
face $-1 $63 $64 $33 $-1 $65 reversed single #
face $-1 $66 $67 $34 $-1 $68 forward single #
face $-1 $69 $70 $35 $-1 $71 forward single #
face $-1 $72 $73 $27 $-1 $74 reversed single #
loop $-1 $-1 $75 $36 #
plane-surface $-1 0 0 9.8055715790004765 0 0 1 1 0 0 forward_v I I I I #
face $-1 $76 $77 $28 $-1 $78 reversed single #
loop $-1 $-1 $79 $37 #
plane-surface $-1 -10.229433365816703 60.317214002915769 172.55192002626191 1 0 0 0 -0.62932039886446345 -0.77714595512881146 forward_v I I I I #
face $-1 $80 $81 $29 $-1 $82 forward single #
loop $-1 $83 $84 $38 #
cone-surface $-1 0.56369610414031968 43.528102460285155 5.2409457160418214 0 -0.62932039886446345 -0.77714595512881146 2 0 0 1 I I 0 1 2 forward I I I I #
face $-1 $85 $86 $30 $-1 $87 reversed single #
loop $-1 $-1 $88 $39 #
plane-surface $-1 -28.576309846833841 -135.68927903265623 112.58583476236024 -1 0 0 0 -0.62932039886446345 0.77714595512881146 forward_v I I I I #
face $-1 $89 $90 $31 $-1 $91 forward single #
loop $-1 $92 $93 $40 #
cone-surface $-1 -42.261215010487462 -44.884712369729627 6.6356196070355633 0 0.62932039886446345 -0.77714595512881146 1 0 0 1 I I 0 1 1 forward I I I I #
face $-1 $94 $95 $32 $-1 $96 forward single #
loop $-1 $97 $98 $41 #
cone-surface $-1 -34.050271912295287 -44.884712369729627 6.6356196070355633 0 0.62932039886446345 -0.77714595512881146 1 0 0 1 I I 0 1 1 forward I I I I #
face $-1 $99 $100 $33 $-1 $101 reversed single #
loop $-1 $-1 $102 $42 #
plane-surface $-1 47.735177075948911 -135.68927903265623 112.58583476236024 -1 0 0 0 -0.62932039886446345 0.77714595512881146 forward_v I I I I #
face $-1 $103 $104 $34 $-1 $105 forward single #
loop $-1 $106 $107 $43 #
cone-surface $-1 34.050271912295287 -44.884712369729627 6.6356196070355633 0 0.62932039886446345 -0.77714595512881146 1 0 0 1 I I 0 1 1 forward I I I I #
face $-1 $108 $109 $35 $-1 $110 forward single #
loop $-1 $111 $112 $44 #
cone-surface $-1 42.261215010487462 -44.884712369729627 6.6356196070355633 0 0.62932039886446345 -0.77714595512881146 1 0 0 1 I I 0 1 1 forward I I I I #
face $-1 $113 $114 $27 $-1 $115 reversed single #
loop $-1 $-1 $116 $45 #
plane-surface $-1 0 0 -9.8055715790004765 0 0 1 1 0 0 forward_v I I I I #
coedge $-1 $117 $118 $119 $120 forward $46 $-1 #
face $-1 $121 $122 $28 $-1 $123 reversed single #
loop $-1 $-1 $124 $48 #
plane-surface $-1 0.56369610414031968 -26.879201795801627 64.873316310291145 0 0.62932039886446345 0.77714595512881146 1 0 0 forward_v I I I I #
coedge $-1 $125 $126 $127 $128 reversed $49 $-1 #
face $-1 $-1 $129 $29 $-1 $130 forward single #
loop $-1 $131 $132 $51 #
cone-surface $-1 0.56369610414031968 41.618553808986611 2.8828495647712717 0 -0.62932039886446345 -0.77714595512881146 1 0 0 1 I I -0.70710678118654746 0.70710678118654746 1 forward I I I I #
loop $-1 $-1 $133 $38 #
coedge $-1 $84 $84 $134 $135 reversed $52 $-1 #
face $-1 $136 $137 $30 $-1 $138 reversed single #
loop $-1 $-1 $139 $54 #
plane-surface $-1 -38.155743461391381 -48.492863233938834 4.9072310463894695 0 -0.62932039886446345 0.77714595512881146 1 0 0 forward_v I I I I #
coedge $-1 $140 $141 $142 $143 reversed $55 $-1 #
face $-1 $-1 $144 $31 $-1 $145 forward single #
loop $-1 $146 $147 $57 #
cone-surface $-1 -42.261215010487462 -43.986374641634704 5.5262649238117394 0 0.62932039886446345 -0.77714595512881146 0.5 0 0 1 I I -0.70710678118654746 0.70710678118654746 0.5 forward I I I I #
loop $-1 $-1 $148 $40 #
coedge $-1 $93 $93 $149 $150 reversed $58 $-1 #
face $-1 $-1 $151 $32 $-1 $152 forward single #
loop $-1 $153 $154 $60 #
cone-surface $-1 -34.050271912295287 -43.986374641634704 5.5262649238117394 0 0.62932039886446345 -0.77714595512881146 0.5 0 0 1 I I -0.70710678118654746 0.70710678118654746 0.5 forward I I I I #
loop $-1 $-1 $155 $41 #
coedge $-1 $98 $98 $156 $157 reversed $61 $-1 #
face $-1 $158 $159 $33 $-1 $160 reversed single #
loop $-1 $-1 $161 $63 #
plane-surface $-1 38.155743461391367 -48.492863233938834 4.9072310463894695 0 -0.62932039886446345 0.77714595512881146 1 0 0 forward_v I I I I #
coedge $-1 $162 $163 $164 $165 reversed $64 $-1 #
face $-1 $-1 $166 $34 $-1 $167 forward single #
loop $-1 $168 $169 $66 #
cone-surface $-1 34.050271912295287 -43.986374641634704 5.5262649238117394 0 0.62932039886446345 -0.77714595512881146 0.5 0 0 1 I I -0.70710678118654746 0.70710678118654746 0.5 forward I I I I #
loop $-1 $-1 $170 $43 #
coedge $-1 $107 $107 $171 $172 reversed $67 $-1 #
face $-1 $-1 $173 $35 $-1 $174 forward single #
loop $-1 $175 $176 $69 #
cone-surface $-1 42.261215010487462 -43.986374641634704 5.5262649238117394 0 0.62932039886446345 -0.77714595512881146 0.5 0 0 1 I I -0.70710678118654746 0.70710678118654746 0.5 forward I I I I #
loop $-1 $-1 $177 $44 #
coedge $-1 $112 $112 $178 $179 reversed $70 $-1 #
face $-1 $180 $181 $27 $-1 $182 reversed single #
loop $-1 $-1 $183 $72 #
plane-surface $-1 0 -48.492863233938841 0 0 1 0 0 0 1 forward_v I I I I #
coedge $-1 $184 $185 $186 $187 forward $73 $-1 #
coedge $-1 $188 $75 $189 $190 forward $46 $-1 #
coedge $-1 $75 $188 $191 $192 forward $46 $-1 #
coedge $-1 $193 $194 $75 $120 reversed $195 $-1 #
edge $-1 $196 -48.492863233938841 $197 48.492863233938841 $119 $198 forward 7 unknown #
face $-1 $199 $200 $28 $-1 $201 reversed single #
loop $-1 $-1 $202 $76 #
plane-surface $-1 11.356825574097343 60.317214002915769 172.55192002626191 -1 0 0 0 0.62932039886446345 0.77714595512881146 forward_v I I I I #
coedge $-1 $203 $204 $205 $206 reversed $77 $-1 #
coedge $-1 $126 $79 $207 $208 reversed $49 $-1 #
coedge $-1 $79 $125 $203 $209 reversed $49 $-1 #
coedge $-1 $205 $210 $79 $128 forward $211 $-1 #
edge $-1 $212 -18.334256232480957 $213 -10.965191190041626 $127 $214 forward 7 unknown #
loop $-1 $-1 $134 $80 #
plane-surface $-1 0.56369610414031968 -26.879201795801627 64.873316310291145 0 0.62932039886446345 0.77714595512881146 1 0 0 forward_v I I I I #
loop $-1 $-1 $215 $51 #
coedge $-1 $132 $132 $133 $216 reversed $81 $-1 #
coedge $-1 $133 $133 $132 $216 forward $83 $-1 #
coedge $-1 $134 $134 $84 $135 forward $129 $-1 #
edge $-1 $217 4.2388111122109436e-016 $217 6.2831853071796004 $134 $218 forward 7 unknown #
face $-1 $219 $220 $30 $-1 $221 reversed single #
loop $-1 $-1 $222 $85 #
plane-surface $-1 -47.735177075948926 -135.68927903265623 112.58583476236024 1 0 0 0 0.62932039886446345 -0.77714595512881146 forward_v I I I I #
coedge $-1 $223 $224 $225 $226 reversed $86 $-1 #
coedge $-1 $141 $88 $227 $228 reversed $55 $-1 #
coedge $-1 $88 $140 $223 $229 reversed $55 $-1 #
coedge $-1 $225 $230 $88 $143 forward $231 $-1 #
edge $-1 $232 19.351776282389274 $233 25.400722953482344 $142 $234 forward 7 unknown #
loop $-1 $-1 $149 $89 #
plane-surface $-1 -38.155743461391381 -48.492863233938834 4.9072310463894695 0 -0.62932039886446345 0.77714595512881146 1 0 0 forward_v I I I I #
loop $-1 $-1 $235 $57 #
coedge $-1 $147 $147 $148 $236 reversed $90 $-1 #
coedge $-1 $148 $148 $147 $236 forward $92 $-1 #
coedge $-1 $149 $149 $93 $150 forward $144 $-1 #
edge $-1 $237 -3.2186250979635525e-015 $237 6.2831853071795969 $149 $238 forward 7 unknown #
loop $-1 $-1 $156 $94 #
plane-surface $-1 -38.155743461391381 -48.492863233938834 4.9072310463894695 0 -0.62932039886446345 0.77714595512881146 1 0 0 forward_v I I I I #
loop $-1 $-1 $239 $60 #
coedge $-1 $154 $154 $155 $240 reversed $95 $-1 #
coedge $-1 $155 $155 $154 $240 forward $97 $-1 #
coedge $-1 $156 $156 $98 $157 forward $151 $-1 #
edge $-1 $241 -3.2186250979635525e-015 $241 6.2831853071795969 $156 $242 forward 7 unknown #
face $-1 $243 $244 $33 $-1 $245 reversed single #
loop $-1 $-1 $246 $99 #
plane-surface $-1 28.576309846833826 -135.68927903265623 112.58583476236024 1 0 0 0 0.62932039886446345 -0.77714595512881146 forward_v I I I I #
coedge $-1 $247 $248 $249 $250 reversed $100 $-1 #
coedge $-1 $163 $102 $251 $252 reversed $64 $-1 #
coedge $-1 $102 $162 $247 $253 reversed $64 $-1 #
coedge $-1 $249 $254 $102 $165 forward $255 $-1 #
edge $-1 $256 19.351776282389274 $257 25.400722953482344 $164 $258 forward 7 unknown #
loop $-1 $-1 $171 $103 #
plane-surface $-1 38.155743461391367 -48.492863233938834 4.9072310463894695 0 -0.62932039886446345 0.77714595512881146 1 0 0 forward_v I I I I #
loop $-1 $-1 $259 $66 #
coedge $-1 $169 $169 $170 $260 reversed $104 $-1 #
coedge $-1 $170 $170 $169 $260 forward $106 $-1 #
coedge $-1 $171 $171 $107 $172 forward $166 $-1 #
edge $-1 $261 -3.2186250979635525e-015 $261 6.2831853071795969 $171 $262 forward 7 unknown #
loop $-1 $-1 $178 $108 #
plane-surface $-1 38.155743461391367 -48.492863233938834 4.9072310463894695 0 -0.62932039886446345 0.77714595512881146 1 0 0 forward_v I I I I #
loop $-1 $-1 $263 $69 #
coedge $-1 $176 $176 $177 $264 reversed $109 $-1 #
coedge $-1 $177 $177 $176 $264 forward $111 $-1 #
coedge $-1 $178 $178 $112 $179 forward $173 $-1 #
edge $-1 $265 -3.2186250979635525e-015 $265 6.2831853071795969 $178 $266 forward 7 unknown #
face $-1 $267 $268 $27 $-1 $269 reversed single #
loop $-1 $-1 $270 $113 #
plane-surface $-1 -69.278237250892658 0 0 1 0 0 0 0 -1 forward_v I I I I #
coedge $-1 $271 $191 $272 $273 forward $114 $-1 #
coedge $-1 $274 $116 $271 $275 forward $73 $-1 #
coedge $-1 $116 $274 $276 $277 forward $73 $-1 #
coedge $-1 $194 $193 $116 $187 reversed $195 $-1 #
edge $-1 $278 -48.492863233938841 $279 48.492863233938841 $186 $280 forward 7 unknown #
coedge $-1 $118 $117 $281 $282 forward $46 $-1 #
coedge $-1 $283 $284 $117 $190 reversed $268 $-1 #
edge $-1 $197 -69.278237250892658 $285 69.278237250892658 $189 $286 forward 7 unknown #
coedge $-1 $183 $287 $118 $192 reversed $114 $-1 #
edge $-1 $288 -69.278237250892658 $196 69.278237250892658 $191 $289 forward 7 unknown #
coedge $-1 $186 $119 $287 $290 forward $195 $-1 #
coedge $-1 $119 $186 $283 $291 reversed $195 $-1 #
loop $-1 $-1 $193 $267 #
vertex $-1 $120 $292 #
vertex $-1 $120 $293 #
straight-curve $-1 69.278237250892658 0 9.8055715790004765 0 1 0 I I #
face $-1 $-1 $211 $28 $-1 $294 forward single #
loop $-1 $-1 $295 $121 #
plane-surface $-1 0 48.492863233938841 0 0 -1 0 0 0 -1 forward_v I I I I #
coedge $-1 $296 $297 $298 $299 reversed $122 $-1 #
coedge $-1 $300 $124 $126 $209 forward $77 $-1 #
coedge $-1 $124 $300 $296 $301 forward $77 $-1 #
coedge $-1 $298 $127 $124 $206 forward $211 $-1 #
edge $-1 $213 -10.511281417886863 $302 11.074977522027183 $205 $303 forward 7 unknown #
coedge $-1 $304 $305 $125 $208 forward $200 $-1 #
edge $-1 $306 -82.437739767764356 $212 -76.470388434130484 $207 $307 forward 7 unknown #
edge $-1 $213 87.503511455617996 $306 96.985726467877697 $126 $308 forward 7 unknown #
coedge $-1 $127 $298 $304 $309 forward $211 $-1 #
loop $-1 $-1 $298 $199 #
vertex $-1 $208 $310 #
vertex $-1 $128 $311 #
straight-curve $-1 -10.229433365816703 30.158607001457884 9.8055715790004712 0 -1 0 I I #
coedge $-1 $215 $215 $-1 $312 reversed $131 $-1 #
edge $-1 $313 0 $313 6.2831853071796004 $132 $314 forward 7 unknown #
vertex $-1 $135 $315 #
ellipse-curve $-1 0.56369610414031968 44.808330712719204 6.8218959121835248 0 0.62932039886446345 0.77714595512881146 2 0 0 1 I I #
face $-1 $-1 $231 $30 $-1 $316 forward single #
loop $-1 $-1 $317 $136 #
plane-surface $-1 0 -48.492863233938841 0 0 1 0 0 0 1 forward_v I I I I #
coedge $-1 $318 $319 $320 $321 reversed $137 $-1 #
coedge $-1 $322 $139 $141 $229 forward $86 $-1 #
coedge $-1 $139 $322 $318 $323 forward $86 $-1 #
coedge $-1 $320 $142 $139 $226 forward $231 $-1 #
edge $-1 $233 9.4984381161381499 $324 28.657305345253235 $225 $325 forward 7 unknown #
coedge $-1 $326 $327 $140 $228 forward $220 $-1 #
edge $-1 $328 -51.385686334790655 $232 -46.48734580217964 $227 $329 forward 7 unknown #
edge $-1 $233 -7.7835400559865899 $328 8.8756469145121664e-015 $141 $330 forward 7 unknown #
coedge $-1 $142 $320 $326 $331 forward $231 $-1 #
loop $-1 $-1 $320 $219 #
vertex $-1 $228 $332 #
vertex $-1 $143 $333 #
straight-curve $-1 -28.576309846833841 -67.844639516328115 9.8055715790004783 0 1 0 I I #
coedge $-1 $235 $235 $-1 $334 reversed $146 $-1 #
edge $-1 $335 0 $335 6.2831853071796004 $147 $336 forward 7 unknown #
vertex $-1 $150 $337 #
ellipse-curve $-1 -42.261215010487462 -45.46838989839231 7.3564013126949686 0 -0.62932039886446345 0.77714595512881146 1 0 0 1 I I #
coedge $-1 $239 $239 $-1 $338 reversed $153 $-1 #
edge $-1 $339 0 $339 6.2831853071796004 $154 $340 forward 7 unknown #
vertex $-1 $157 $341 #
ellipse-curve $-1 -34.050271912295287 -45.46838989839231 7.3564013126949686 0 -0.62932039886446345 0.77714595512881146 1 0 0 1 I I #
face $-1 $-1 $255 $33 $-1 $342 forward single #
loop $-1 $-1 $343 $158 #
plane-surface $-1 0 -48.492863233938841 0 0 1 0 0 0 1 forward_v I I I I #
coedge $-1 $344 $345 $346 $347 reversed $159 $-1 #
coedge $-1 $348 $161 $163 $253 forward $100 $-1 #
coedge $-1 $161 $348 $344 $349 forward $100 $-1 #
coedge $-1 $346 $164 $161 $250 forward $255 $-1 #
edge $-1 $257 -28.657305345253228 $350 -9.4984381161381428 $249 $351 forward 7 unknown #
coedge $-1 $352 $353 $162 $252 forward $244 $-1 #
edge $-1 $354 -51.385686334790655 $256 -46.48734580217964 $251 $355 forward 7 unknown #
edge $-1 $257 -7.7835400559865899 $354 8.8756469145121664e-015 $163 $356 forward 7 unknown #
coedge $-1 $164 $346 $352 $357 forward $255 $-1 #
loop $-1 $-1 $346 $243 #
vertex $-1 $252 $358 #
vertex $-1 $165 $359 #
straight-curve $-1 47.735177075948911 -67.844639516328115 9.8055715790004783 0 1 0 I I #
coedge $-1 $259 $259 $-1 $360 reversed $168 $-1 #
edge $-1 $361 0 $361 6.2831853071796004 $169 $362 forward 7 unknown #
vertex $-1 $172 $363 #
ellipse-curve $-1 34.050271912295287 -45.46838989839231 7.3564013126949686 0 -0.62932039886446345 0.77714595512881146 1 0 0 1 I I #
coedge $-1 $263 $263 $-1 $364 reversed $175 $-1 #
edge $-1 $365 0 $365 6.2831853071796004 $176 $366 forward 7 unknown #
vertex $-1 $179 $367 #
ellipse-curve $-1 42.261215010487462 -45.46838989839231 7.3564013126949686 0 -0.62932039886446345 0.77714595512881146 1 0 0 1 I I #
face $-1 $-1 $195 $27 $-1 $368 reversed single #
loop $-1 $-1 $283 $180 #
plane-surface $-1 0 48.492863233938841 0 0 -1 0 0 0 -1 forward_v I I I I #
coedge $-1 $369 $281 $284 $370 forward $181 $-1 #
coedge $-1 $287 $183 $184 $275 reversed $114 $-1 #
coedge $-1 $281 $369 $183 $273 reversed $181 $-1 #
edge $-1 $288 -9.8055715790004765 $371 9.8055715790004765 $272 $372 forward 7 unknown #
coedge $-1 $185 $184 $369 $373 forward $73 $-1 #
edge $-1 $279 -69.278237250892658 $371 69.278237250892658 $271 $374 forward 7 unknown #
coedge $-1 $284 $283 $185 $277 reversed $268 $-1 #
edge $-1 $375 -69.278237250892658 $278 69.278237250892658 $276 $376 forward 7 unknown #
vertex $-1 $187 $377 #
vertex $-1 $290 $378 #
straight-curve $-1 69.278237250892658 0 -9.8055715790004765 0 -1 0 I I #
coedge $-1 $270 $272 $188 $282 reversed $181 $-1 #
edge $-1 $285 -48.492863233938841 $288 48.492863233938841 $281 $379 forward 7 unknown #
coedge $-1 $276 $189 $194 $291 forward $268 $-1 #
coedge $-1 $189 $276 $270 $370 reversed $268 $-1 #
vertex $-1 $190 $380 #
straight-curve $-1 0 48.492863233938841 9.8055715790004765 -1 0 0 I I #
coedge $-1 $191 $271 $193 $290 reversed $114 $-1 #
vertex $-1 $282 $381 #
straight-curve $-1 0 -48.492863233938841 9.8055715790004765 1 0 0 I I #
edge $-1 $196 -9.8055715790004765 $279 9.8055715790004765 $193 $382 forward 7 unknown #
edge $-1 $197 -9.8055715790004765 $278 9.8055715790004765 $194 $383 forward 7 unknown #
point $-1 69.278237250892658 -48.492863233938841 9.8055715790004765 #
point $-1 69.278237250892658 48.492863233938841 9.8055715790004765 #
plane-surface $-1 0 0 9.8055715790004765 0 0 1 1 0 0 forward_v I I I I #
coedge $-1 $305 $304 $297 $384 forward $200 $-1 #
coedge $-1 $297 $202 $204 $301 reversed $122 $-1 #
coedge $-1 $202 $296 $295 $384 reversed $122 $-1 #
coedge $-1 $210 $205 $202 $299 forward $211 $-1 #
edge $-1 $302 10.965191190041626 $385 18.334256232480957 $298 $386 forward 7 unknown #
coedge $-1 $204 $203 $305 $387 reversed $77 $-1 #
edge $-1 $388 -96.985726467877697 $302 -87.503511455617996 $296 $389 forward 7 unknown #
vertex $-1 $206 $390 #
straight-curve $-1 0.28184805207015984 41.123798191499525 9.8055715790004712 1 0 0 I I #
coedge $-1 $295 $207 $210 $309 reversed $200 $-1 #
coedge $-1 $207 $295 $300 $387 forward $200 $-1 #
vertex $-1 $208 $391 #
straight-curve $-1 -10.229433365816703 48.492863233938841 86.275960013130955 0 0 1 I I #
straight-curve $-1 -10.229433365816703 -26.879201795801627 64.873316310291145 0 0.77714595512881146 -0.62932039886446345 I I #
edge $-1 $385 -11.356825574097343 $212 10.229433365816703 $304 $392 forward 7 unknown #
point $-1 -10.229433365816703 48.492863233938841 9.8055715790004765 #
point $-1 -10.229433365816703 41.12379819149951 9.8055715790004783 #
edge $-1 $393 1 $393 0 $215 $-1 forward 7 unknown #
vertex $-1 $216 $394 #
ellipse-curve $-1 0.56369610414031968 42.247874207851076 3.6599955199000833 0 0.62932039886446345 0.77714595512881146 2 0 0 1 I I #
point $-1 2.5636961041403197 44.808330712719233 6.8218959121835585 #
plane-surface $-1 0 0 9.8055715790004765 0 0 1 1 0 0 forward_v I I I I #
coedge $-1 $327 $326 $319 $395 forward $220 $-1 #
coedge $-1 $319 $222 $224 $323 reversed $137 $-1 #
coedge $-1 $222 $318 $317 $395 reversed $137 $-1 #
coedge $-1 $230 $225 $222 $321 forward $231 $-1 #
edge $-1 $324 -25.400722953482344 $396 -19.351776282389274 $320 $397 forward 7 unknown #
coedge $-1 $224 $223 $327 $398 reversed $86 $-1 #
edge $-1 $399 -8.8756469145121664e-015 $324 7.7835400559865899 $318 $400 forward 7 unknown #
vertex $-1 $226 $401 #
straight-curve $-1 -19.077871730695691 -42.443916562845779 9.8055715790004747 -1 0 0 I I #
coedge $-1 $317 $227 $230 $331 reversed $220 $-1 #
coedge $-1 $227 $317 $322 $398 forward $220 $-1 #
vertex $-1 $228 $402 #
straight-curve $-1 -28.576309846833841 -48.492863233938841 56.292917381180118 0 0 1 I I #
straight-curve $-1 -28.576309846833841 -48.492863233938834 4.9072310463894695 0 -0.77714595512881146 -0.62932039886446345 I I #
edge $-1 $396 -47.735177075948926 $232 -28.576309846833841 $326 $403 forward 7 unknown #
point $-1 -28.576309846833841 -48.492863233938841 9.8055715790004765 #
point $-1 -28.576309846833841 -42.443916562845772 9.8055715790004765 #
edge $-1 $404 1 $404 0 $235 $-1 forward 7 unknown #
vertex $-1 $236 $405 #
ellipse-curve $-1 -42.261215010487462 -44.301034841066937 5.9148379013761447 0 -0.62932039886446345 0.77714595512881146 1 0 0 1 I I #
point $-1 -41.261215010487462 -45.468389898392324 7.356401312694981 #
edge $-1 $406 1 $406 0 $239 $-1 forward 7 unknown #
vertex $-1 $240 $407 #
ellipse-curve $-1 -34.050271912295287 -44.301034841066937 5.9148379013761447 0 -0.62932039886446345 0.77714595512881146 1 0 0 1 I I #
point $-1 -33.050271912295287 -45.468389898392324 7.356401312694981 #
plane-surface $-1 0 0 9.8055715790004765 0 0 1 1 0 0 forward_v I I I I #
coedge $-1 $353 $352 $345 $408 forward $244 $-1 #
coedge $-1 $345 $246 $248 $349 reversed $159 $-1 #
coedge $-1 $246 $344 $343 $408 reversed $159 $-1 #
coedge $-1 $254 $249 $246 $347 forward $255 $-1 #
edge $-1 $350 -25.400722953482344 $409 -19.351776282389274 $346 $410 forward 7 unknown #
coedge $-1 $248 $247 $353 $411 reversed $100 $-1 #
edge $-1 $412 -8.8756469145121664e-015 $350 7.7835400559865899 $344 $413 forward 7 unknown #
vertex $-1 $250 $414 #
straight-curve $-1 19.077871730695684 -42.443916562845779 9.8055715790004747 -1 0 0 I I #
coedge $-1 $343 $251 $254 $357 reversed $244 $-1 #
coedge $-1 $251 $343 $348 $411 forward $244 $-1 #
vertex $-1 $252 $415 #
straight-curve $-1 47.735177075948911 -48.492863233938841 56.292917381180118 0 0 1 I I #
straight-curve $-1 47.735177075948911 -48.492863233938834 4.9072310463894695 0 -0.77714595512881146 -0.62932039886446345 I I #
edge $-1 $409 28.576309846833826 $256 47.735177075948911 $352 $416 forward 7 unknown #
point $-1 47.735177075948911 -48.492863233938841 9.8055715790004765 #
point $-1 47.735177075948911 -42.443916562845772 9.8055715790004765 #
edge $-1 $417 1 $417 0 $259 $-1 forward 7 unknown #
vertex $-1 $260 $418 #
ellipse-curve $-1 34.050271912295287 -44.301034841066937 5.9148379013761447 0 -0.62932039886446345 0.77714595512881146 1 0 0 1 I I #
point $-1 35.050271912295287 -45.468389898392324 7.356401312694981 #
edge $-1 $419 1 $419 0 $263 $-1 forward 7 unknown #
vertex $-1 $264 $420 #
ellipse-curve $-1 42.261215010487462 -44.301034841066937 5.9148379013761447 0 -0.62932039886446345 0.77714595512881146 1 0 0 1 I I #
point $-1 43.261215010487462 -45.468389898392324 7.356401312694981 #
plane-surface $-1 69.278237250892658 0 0 -1 0 0 0 0 1 forward_v I I I I #
coedge $-1 $272 $270 $274 $373 reversed $181 $-1 #
edge $-1 $285 -9.8055715790004765 $375 9.8055715790004765 $284 $421 forward 7 unknown #
vertex $-1 $373 $422 #
straight-curve $-1 -69.278237250892658 -48.492863233938841 0 0 0 -1 I I #
edge $-1 $371 -48.492863233938841 $375 48.492863233938841 $369 $423 forward 7 unknown #
straight-curve $-1 0 -48.492863233938841 -9.8055715790004765 -1 0 0 I I #
vertex $-1 $277 $424 #
straight-curve $-1 0 48.492863233938841 -9.8055715790004765 1 0 0 I I #
point $-1 69.278237250892658 48.492863233938841 -9.8055715790004765 #
point $-1 69.278237250892658 -48.492863233938841 -9.8055715790004765 #
straight-curve $-1 -69.278237250892658 0 9.8055715790004765 0 -1 0 I I #
point $-1 -69.278237250892658 48.492863233938841 9.8055715790004765 #
point $-1 -69.278237250892658 -48.492863233938841 9.8055715790004765 #
straight-curve $-1 69.278237250892658 -48.492863233938841 0 0 0 -1 I I #
straight-curve $-1 69.278237250892658 48.492863233938841 0 0 0 -1 I I #
edge $-1 $385 76.470388434130484 $388 82.437739767764356 $295 $425 forward 7 unknown #
vertex $-1 $309 $426 #
straight-curve $-1 11.356825574097343 30.158607001457884 9.8055715790004712 0 1 0 I I #
edge $-1 $388 -11.074977522027183 $306 10.511281417886863 $305 $427 forward 7 unknown #
vertex $-1 $387 $428 #
straight-curve $-1 11.356825574097343 -26.879201795801627 64.873316310291145 0 -0.77714595512881146 0.62932039886446345 I I #
point $-1 11.356825574097343 41.12379819149951 9.8055715790004783 #
point $-1 -10.229433365816703 48.492863233938841 3.8382202453665926 #
straight-curve $-1 0 48.492863233938841 9.8055715790004765 -1 0 0 I I #
vertex $-1 $312 $429 #
point $-1 2.5636961041403197 42.247874207851076 3.6599955199000833 #
edge $-1 $396 46.48734580217964 $399 51.385686334790655 $317 $430 forward 7 unknown #
vertex $-1 $331 $431 #
straight-curve $-1 -47.735177075948926 -67.844639516328115 9.8055715790004783 0 -1 0 I I #
edge $-1 $399 -28.657305345253235 $328 -9.4984381161381499 $327 $432 forward 7 unknown #
vertex $-1 $398 $433 #
straight-curve $-1 -47.735177075948926 -48.492863233938834 4.9072310463894695 0 0.77714595512881146 0.62932039886446345 I I #
point $-1 -47.735177075948926 -42.443916562845772 9.8055715790004765 #
point $-1 -28.576309846833841 -48.492863233938841 4.9072310463894642 #
straight-curve $-1 0 -48.492863233938841 9.8055715790004765 1 0 0 I I #
vertex $-1 $334 $434 #
point $-1 -41.261215010487462 -44.301034841066937 5.9148379013761447 #
vertex $-1 $338 $435 #
point $-1 -33.050271912295287 -44.301034841066937 5.9148379013761447 #
edge $-1 $409 46.48734580217964 $412 51.385686334790655 $343 $436 forward 7 unknown #
vertex $-1 $357 $437 #
straight-curve $-1 28.576309846833826 -67.844639516328115 9.8055715790004783 0 -1 0 I I #
edge $-1 $412 9.4984381161381428 $354 28.657305345253228 $353 $438 forward 7 unknown #
vertex $-1 $411 $439 #
straight-curve $-1 28.576309846833826 -48.492863233938834 4.9072310463894695 0 0.77714595512881146 0.62932039886446345 I I #
point $-1 28.576309846833826 -42.443916562845772 9.8055715790004765 #
point $-1 47.735177075948911 -48.492863233938841 4.9072310463894642 #
straight-curve $-1 0 -48.492863233938841 9.8055715790004765 1 0 0 I I #
vertex $-1 $360 $440 #
point $-1 35.050271912295287 -44.301034841066937 5.9148379013761447 #
vertex $-1 $364 $441 #
point $-1 43.261215010487462 -44.301034841066937 5.9148379013761447 #
straight-curve $-1 -69.278237250892658 48.492863233938841 0 0 0 -1 I I #
point $-1 -69.278237250892658 -48.492863233938841 -9.8055715790004765 #
straight-curve $-1 -69.278237250892658 0 -9.8055715790004765 0 1 0 I I #
point $-1 -69.278237250892658 48.492863233938841 -9.8055715790004765 #
straight-curve $-1 11.356825574097343 48.492863233938841 86.275960013130955 0 0 -1 I I #
point $-1 11.356825574097343 48.492863233938841 9.8055715790004765 #
straight-curve $-1 0.28184805207015984 48.492863233938841 3.8382202453666032 -1 0 0 I I #
point $-1 11.356825574097343 48.492863233938841 3.8382202453665926 #
point $-1 0.56369610414031968 40.989233410122146 2.1057036096424602 #
straight-curve $-1 -47.735177075948926 -48.492863233938841 56.292917381180118 0 0 -1 I I #
point $-1 -47.735177075948926 -48.492863233938841 9.8055715790004765 #
straight-curve $-1 -19.077871730695691 -48.492863233938841 4.9072310463894588 1 0 0 I I #
point $-1 -47.735177075948926 -48.492863233938841 4.9072310463894642 #
point $-1 -42.261215010487462 -43.671714442202472 5.1376919462473341 #
point $-1 -34.050271912295287 -43.671714442202472 5.1376919462473341 #
straight-curve $-1 28.576309846833826 -48.492863233938841 56.292917381180118 0 0 -1 I I #
point $-1 28.576309846833826 -48.492863233938841 9.8055715790004765 #
straight-curve $-1 19.077871730695684 -48.492863233938841 4.9072310463894588 1 0 0 I I #
point $-1 28.576309846833826 -48.492863233938841 4.9072310463894642 #
point $-1 34.050271912295287 -43.671714442202472 5.1376919462473341 #
point $-1 42.261215010487462 -43.671714442202472 5.1376919462473341 #
End-of-ACIS-data 