500 0 4 0           
7 Unknown 11 ACIS 5.0 NT 24 Fri Mar 26 15:25:51 1999 
-1 9.9999999999999995e-007 1e-010 
body $-1 $4 $-1 $5 #
body $-1 $6 $-1 $7 #
body $-1 $8 $-1 $9 #
body $-1 $10 $-1 $11 #
lump $-1 $-1 $12 $0 #
transform $-1 1 0 0 0 1 0 0 0 1 73.582567827387308 33.332339572602777 11.672880134332091 1 rotate no_reflect no_shear #
lump $-1 $-1 $13 $1 #
transform $-1 1 0 0 0 1 0 0 0 1 73.582567827387308 33.332339572602777 11.672880134332091 1 rotate no_reflect no_shear #
lump $-1 $-1 $14 $2 #
transform $-1 1 0 0 0 1 0 0 0 1 73.582567827387308 33.332339572602777 11.672880134332091 1 rotate no_reflect no_shear #
lump $-1 $-1 $15 $3 #
transform $-1 1 0 0 0 1 0 0 0 1 73.582567827387308 33.332339572602777 11.672880134332091 1 rotate no_reflect no_shear #
shell $-1 $-1 $-1 $16 $-1 $4 #
shell $-1 $-1 $-1 $17 $-1 $6 #
shell $-1 $-1 $-1 $18 $-1 $8 #
shell $-1 $-1 $-1 $19 $-1 $10 #
face $-1 $20 $21 $12 $-1 $22 forward single #
face $-1 $23 $24 $13 $-1 $25 forward single #
face $-1 $26 $27 $14 $-1 $28 forward single #
face $-1 $29 $30 $15 $-1 $31 reversed single #
face $-1 $32 $33 $12 $-1 $34 reversed single #
loop $-1 $-1 $35 $16 #
plane-surface $-1 0 0 11.672880134332091 0 0 1 1 0 0 forward_v I I I I #
face $-1 $36 $37 $13 $-1 $38 forward single #
loop $-1 $-1 $39 $17 #
plane-surface $-1 0 -28.222292002971177 5.7452785318904454 0 0 1 1 0 0 forward_v I I I I #
face $-1 $40 $41 $14 $-1 $42 forward single #
loop $-1 $-1 $43 $18 #
plane-surface $-1 -201.03131499413257 22.575201895921481 80.059897398071769 0 1 0 -0.86602541151947299 0 0.49999998660252726 forward_v I I I I #
face $-1 $44 $45 $15 $-1 $46 reversed single #
loop $-1 $47 $48 $19 #
cone-surface $-1 -71.021360878713693 27.953770734262129 8.4623170733524482 0.86602541151947299 0 -0.49999998660252726 0.49999998660252726 0 0.86602541151947299 1 I I 0 1 1 forward I I I I #
face $-1 $49 $50 $12 $-1 $51 reversed single #
loop $-1 $-1 $52 $20 #
plane-surface $-1 0 0 -11.672880134332091 0 0 1 1 0 0 forward_v I I I I #
coedge $-1 $53 $54 $55 $56 forward $21 $-1 #
face $-1 $57 $58 $13 $-1 $59 forward single #
loop $-1 $-1 $60 $23 #
plane-surface $-1 0 -23.112244433339576 8.7090793331112675 0 -1 0 0 0 -1 forward_v I I I I #
coedge $-1 $61 $62 $63 $64 reversed $24 $-1 #
face $-1 $65 $66 $14 $-1 $67 forward single #
loop $-1 $-1 $68 $26 #
plane-surface $-1 -73.582567827387336 27.953770734262129 6.4773315423253734 -0.86602541151947299 0 0.49999998660252726 0.49999998660252726 0 0.86602541151947299 forward_v I I I I #
coedge $-1 $69 $70 $71 $72 reversed $27 $-1 #
face $-1 $73 $74 $15 $-1 $75 forward single #
loop $-1 $76 $77 $29 #
cone-surface $-1 -69.526966859788132 27.953770734262129 7.5995283150749113 0.86602541151947299 0 -0.49999998660252726 0.24999999330126363 0 0.43301270575973649 1 I I -0.70710678118654746 0.70710678118654746 0.5 forward I I I I #
loop $-1 $-1 $78 $19 #
coedge $-1 $48 $48 $79 $80 reversed $30 $-1 #
face $-1 $81 $82 $12 $-1 $83 reversed single #
loop $-1 $-1 $84 $32 #
plane-surface $-1 0 -33.332339572602777 0 0 1 0 0 0 1 forward_v I I I I #
coedge $-1 $85 $86 $87 $88 forward $33 $-1 #
coedge $-1 $89 $35 $90 $91 forward $21 $-1 #
coedge $-1 $35 $89 $92 $93 forward $21 $-1 #
coedge $-1 $94 $95 $35 $56 reversed $96 $-1 #
edge $-1 $97 -33.332339572602777 $98 33.332339572602777 $55 $99 forward 7 unknown #
face $-1 $100 $101 $13 $-1 $102 reversed single #
loop $-1 $-1 $103 $36 #
plane-surface $-1 0 0 11.672880134332091 0 0 1 1 0 0 forward_v I I I I #
coedge $-1 $104 $105 $106 $107 reversed $37 $-1 #
coedge $-1 $108 $39 $105 $109 reversed $24 $-1 #
coedge $-1 $39 $108 $110 $111 reversed $24 $-1 #
coedge $-1 $112 $106 $39 $64 forward $101 $-1 #
edge $-1 $113 9.0010984318539879 $114 19.22119357111719 $63 $115 forward 7 unknown #
face $-1 $116 $117 $14 $-1 $118 reversed single #
loop $-1 $-1 $119 $40 #
plane-surface $-1 0 0 11.672880134332091 0 0 1 1 0 0 forward_v I I I I #
coedge $-1 $120 $121 $119 $122 reversed $41 $-1 #
coedge $-1 $70 $43 $121 $123 forward $27 $-1 #
coedge $-1 $43 $69 $124 $125 reversed $27 $-1 #
coedge $-1 $126 $119 $43 $72 forward $66 $-1 #
edge $-1 $127 -29.932740940694487 $128 -26.933089669678978 $71 $129 forward 7 unknown #
face $-1 $130 $131 $15 $-1 $132 forward single #
loop $-1 $-1 $133 $44 #
plane-surface $-1 -201.03131499413257 22.575201895921481 80.059897398071769 0 1 0 -0.86602541151947299 0 0.49999998660252726 forward_v I I I I #
loop $-1 $-1 $134 $29 #
coedge $-1 $77 $77 $78 $135 forward $45 $-1 #
coedge $-1 $78 $78 $77 $135 reversed $47 $-1 #
coedge $-1 $79 $79 $48 $80 forward $131 $-1 #
edge $-1 $136 0 $136 6.2831853071796004 $79 $137 forward 7 unknown #
face $-1 $138 $139 $12 $-1 $140 reversed single #
loop $-1 $-1 $141 $49 #
plane-surface $-1 -73.582567827387308 0 0 1 0 0 0 0 -1 forward_v I I I I #
coedge $-1 $142 $92 $143 $144 forward $50 $-1 #
coedge $-1 $145 $52 $142 $146 forward $33 $-1 #
coedge $-1 $52 $145 $147 $148 forward $33 $-1 #
coedge $-1 $95 $94 $52 $88 reversed $96 $-1 #
edge $-1 $149 -33.332339572602777 $150 33.332339572602777 $87 $151 forward 7 unknown #
coedge $-1 $54 $53 $152 $153 forward $21 $-1 #
coedge $-1 $154 $155 $53 $91 reversed $139 $-1 #
edge $-1 $98 -73.582567827387308 $156 73.582567827387308 $90 $157 forward 7 unknown #
coedge $-1 $84 $158 $54 $93 reversed $50 $-1 #
edge $-1 $159 -73.582567827387308 $97 73.582567827387308 $92 $160 forward 7 unknown #
coedge $-1 $87 $55 $158 $161 forward $96 $-1 #
coedge $-1 $55 $87 $154 $162 reversed $96 $-1 #
loop $-1 $-1 $94 $138 #
vertex $-1 $56 $163 #
vertex $-1 $56 $164 #
straight-curve $-1 73.582567827387308 0 11.672880134332091 0 1 0 I I #
face $-1 $165 $166 $13 $-1 $167 reversed single #
loop $-1 $-1 $106 $57 #
plane-surface $-1 73.582567827387308 0 0 -1 0 0 0 0 1 forward_v I I I I #
coedge $-1 $168 $169 $104 $170 forward $58 $-1 #
coedge $-1 $171 $60 $103 $170 reversed $37 $-1 #
coedge $-1 $60 $171 $61 $109 forward $37 $-1 #
coedge $-1 $63 $172 $60 $107 forward $101 $-1 #
edge $-1 $173 -7.3183404677764559 $113 -1.3907388653348116 $106 $174 forward 7 unknown #
coedge $-1 $62 $61 $175 $176 reversed $24 $-1 #
edge $-1 $177 -73.582567827387308 $113 73.582567827387308 $105 $178 forward 7 unknown #
coedge $-1 $179 $180 $62 $111 forward $181 $-1 #
edge $-1 $114 -73.582567827387308 $182 73.582567827387308 $110 $183 forward 7 unknown #
coedge $-1 $184 $63 $180 $185 forward $101 $-1 #
vertex $-1 $64 $186 #
vertex $-1 $185 $187 #
straight-curve $-1 73.582567827387308 -14.111146001485588 5.7452785318904454 0 -1 0 I I #
face $-1 $188 $189 $14 $-1 $190 forward single #
loop $-1 $-1 $124 $65 #
plane-surface $-1 -73.582567827387308 0 0 1 0 0 0 0 -1 forward_v I I I I #
coedge $-1 $71 $191 $68 $122 forward $66 $-1 #
coedge $-1 $192 $68 $193 $194 reversed $41 $-1 #
coedge $-1 $68 $192 $69 $123 reversed $41 $-1 #
edge $-1 $195 -19.355454205471712 $127 -8.5983165287904164 $119 $196 forward 7 unknown #
edge $-1 $127 -5.9993027027820585 $197 -5.6516033812716314e-014 $69 $198 forward 7 unknown #
coedge $-1 $199 $200 $70 $125 forward $117 $-1 #
edge $-1 $128 28.357068564703795 $197 33.552617156710461 $124 $201 forward 7 unknown #
coedge $-1 $202 $71 $200 $203 forward $66 $-1 #
vertex $-1 $122 $204 #
vertex $-1 $203 $205 #
straight-curve $-1 -100.51565749706629 22.575201895921481 11.67288013433209 -1 0 0 I I #
face $-1 $206 $207 $15 $-1 $208 forward single #
loop $-1 $209 $79 $73 #
plane-surface $-1 -73.582567827387336 27.953770734262129 6.4773315423253734 -0.86602541151947299 0 0.49999998660252726 0.49999998660252726 0 0.86602541151947299 forward_v I I I I #
coedge $-1 $210 $211 $212 $213 reversed $74 $-1 #
coedge $-1 $134 $134 $-1 $214 forward $76 $-1 #
edge $-1 $215 0 $215 6.2831853071796004 $77 $216 forward 7 unknown #
vertex $-1 $80 $217 #
ellipse-curve $-1 -72.082742191879561 27.953770734262129 9.0751058383287457 0.86602541151947299 0 -0.49999998660252726 0.49999998660252726 0 0.86602541151947299 1 I I #
face $-1 $-1 $96 $12 $-1 $218 reversed single #
loop $-1 $-1 $154 $81 #
plane-surface $-1 0 33.332339572602777 0 0 -1 0 0 0 -1 forward_v I I I I #
coedge $-1 $219 $152 $155 $220 forward $82 $-1 #
coedge $-1 $158 $84 $85 $146 reversed $50 $-1 #
coedge $-1 $152 $219 $84 $144 reversed $82 $-1 #
edge $-1 $159 -11.672880134332091 $221 11.672880134332091 $143 $222 forward 7 unknown #
coedge $-1 $86 $85 $219 $223 forward $33 $-1 #
edge $-1 $150 -73.582567827387308 $221 73.582567827387308 $142 $224 forward 7 unknown #
coedge $-1 $155 $154 $86 $148 reversed $139 $-1 #
edge $-1 $225 -73.582567827387308 $149 73.582567827387308 $147 $226 forward 7 unknown #
vertex $-1 $88 $227 #
vertex $-1 $161 $228 #
straight-curve $-1 73.582567827387308 0 -11.672880134332091 0 -1 0 I I #
coedge $-1 $141 $143 $89 $153 reversed $82 $-1 #
edge $-1 $156 -33.332339572602777 $159 33.332339572602777 $152 $229 forward 7 unknown #
coedge $-1 $147 $90 $95 $162 forward $139 $-1 #
coedge $-1 $90 $147 $141 $220 reversed $139 $-1 #
vertex $-1 $91 $230 #
straight-curve $-1 0 33.332339572602777 11.672880134332091 -1 0 0 I I #
coedge $-1 $92 $142 $94 $161 reversed $50 $-1 #
vertex $-1 $153 $231 #
straight-curve $-1 0 -33.332339572602777 11.672880134332091 1 0 0 I I #
edge $-1 $97 -11.672880134332091 $150 11.672880134332091 $94 $232 forward 7 unknown #
edge $-1 $98 -11.672880134332091 $149 11.672880134332091 $95 $233 forward 7 unknown #
point $-1 73.582567827387308 -33.332339572602777 11.672880134332091 #
point $-1 73.582567827387308 33.332339572602777 11.672880134332091 #
face $-1 $234 $181 $13 $-1 $235 reversed single #
loop $-1 $-1 $236 $100 #
plane-surface $-1 0 0 -11.672880134332091 0 0 1 1 0 0 forward_v I I I I #
coedge $-1 $237 $103 $172 $238 forward $58 $-1 #
coedge $-1 $103 $237 $239 $240 forward $58 $-1 #
edge $-1 $241 -73.582567827387308 $173 73.582567827387308 $103 $242 forward 7 unknown #
coedge $-1 $105 $104 $243 $244 reversed $37 $-1 #
coedge $-1 $106 $245 $168 $238 reversed $101 $-1 #
vertex $-1 $238 $246 #
straight-curve $-1 73.582567827387308 -23.112244433339576 4.3545396665556337 0 0 -1 I I #
coedge $-1 $243 $247 $108 $176 forward $248 $-1 #
edge $-1 $182 -19.22119357111719 $177 -9.0010984318539879 $175 $249 forward 7 unknown #
vertex $-1 $176 $250 #
straight-curve $-1 0 -23.112244433339576 5.7452785318904454 1 0 0 I I #
coedge $-1 $251 $110 $247 $252 forward $181 $-1 #
coedge $-1 $110 $251 $112 $185 reversed $181 $-1 #
loop $-1 $-1 $110 $165 #
vertex $-1 $252 $253 #
straight-curve $-1 0 -33.332339572602777 5.7452785318904454 -1 0 0 I I #
coedge $-1 $245 $112 $236 $254 reversed $101 $-1 #
edge $-1 $114 -5.7452785318904454 $255 11.672880134332091 $112 $256 forward 7 unknown #
point $-1 73.582567827387308 -23.112244433339576 5.7452785318904454 #
point $-1 73.582567827387308 -33.332339572602777 5.7452785318904454 #
face $-1 $257 $258 $14 $-1 $259 forward single #
loop $-1 $-1 $260 $116 #
plane-surface $-1 0 -28.222292002971177 5.7452785318904454 0 0 1 1 0 0 forward_v I I I I #
coedge $-1 $119 $261 $262 $263 forward $66 $-1 #
coedge $-1 $121 $120 $199 $264 reversed $41 $-1 #
coedge $-1 $262 $265 $120 $194 forward $266 $-1 #
edge $-1 $267 -15.590874606691354 $195 -9.5915719039093528 $193 $268 forward 7 unknown #
vertex $-1 $194 $269 #
straight-curve $-1 -70.582916556371799 13.976885367131064 11.672880134332091 0 -1 0 I I #
vertex $-1 $264 $270 #
straight-curve $-1 -73.582567827387336 22.575201895921481 6.4773315423253734 -0.49999998660252726 0 -0.86602541151947299 I I #
coedge $-1 $271 $124 $192 $264 forward $117 $-1 #
coedge $-1 $124 $272 $126 $203 reversed $117 $-1 #
straight-curve $-1 -73.582567827387308 22.575201895921481 40.029948699035884 0 0 -1 I I #
coedge $-1 $261 $126 $273 $274 forward $66 $-1 #
edge $-1 $128 -22.575201895921481 $275 23.112244433339576 $200 $276 forward 7 unknown #
point $-1 -70.582916556371799 22.575201895921481 11.672880134332091 #
point $-1 -73.582567827387308 22.575201895921481 11.672880134332091 #
face $-1 $277 $278 $15 $-1 $279 reversed single #
loop $-1 $-1 $280 $130 #
plane-surface $-1 0 0 11.672880134332091 0 0 1 1 0 0 forward_v I I I I #
loop $-1 $-1 $281 $73 #
coedge $-1 $211 $133 $282 $283 forward $74 $-1 #
coedge $-1 $133 $210 $284 $285 reversed $74 $-1 #
coedge $-1 $286 $280 $133 $213 forward $207 $-1 #
edge $-1 $287 -29.932740940694487 $288 -26.933089669678978 $212 $289 forward 7 unknown #
edge $-1 $290 1 $290 0 $134 $-1 forward 7 unknown #
vertex $-1 $135 $291 #
ellipse-curve $-1 -69.959979565547869 27.953770734262129 7.8495283083761747 -0.86602541151947299 0 0.49999998660252726 0.49999998660252726 0 0.86602541151947299 1 I I #
point $-1 -71.582742205277 27.953770734262129 9.9411312498481976 #
plane-surface $-1 73.582567827387308 0 0 -1 0 0 0 0 1 forward_v I I I I #
coedge $-1 $143 $141 $145 $223 reversed $82 $-1 #
edge $-1 $156 -11.672880134332091 $225 11.672880134332091 $155 $292 forward 7 unknown #
vertex $-1 $223 $293 #
straight-curve $-1 -73.582567827387308 -33.332339572602777 0 0 0 -1 I I #
edge $-1 $221 -33.332339572602777 $225 33.332339572602777 $219 $294 forward 7 unknown #
straight-curve $-1 0 -33.332339572602777 -11.672880134332091 -1 0 0 I I #
vertex $-1 $148 $295 #
straight-curve $-1 0 33.332339572602777 -11.672880134332091 1 0 0 I I #
point $-1 73.582567827387308 33.332339572602777 -11.672880134332091 #
point $-1 73.582567827387308 -33.332339572602777 -11.672880134332091 #
straight-curve $-1 -73.582567827387308 0 11.672880134332091 0 -1 0 I I #
point $-1 -73.582567827387308 33.332339572602777 11.672880134332091 #
point $-1 -73.582567827387308 -33.332339572602777 11.672880134332091 #
straight-curve $-1 73.582567827387308 -33.332339572602777 0 0 0 -1 I I #
straight-curve $-1 73.582567827387308 33.332339572602777 0 0 0 -1 I I #
face $-1 $296 $248 $13 $-1 $297 reversed single #
plane-surface $-1 0 -33.332339572602777 0 0 1 0 0 0 1 forward_v I I I I #
coedge $-1 $298 $299 $184 $254 forward $166 $-1 #
coedge $-1 $169 $168 $300 $301 forward $58 $-1 #
edge $-1 $173 -23.112244433339576 $302 33.332339572602777 $172 $303 forward 7 unknown #
coedge $-1 $304 $243 $169 $240 reversed $248 $-1 #
edge $-1 $305 -33.332339572602777 $241 23.112244433339576 $239 $306 forward 7 unknown #
vertex $-1 $244 $307 #
straight-curve $-1 0 -23.112244433339576 11.672880134332091 1 0 0 I I #
coedge $-1 $239 $175 $171 $244 forward $248 $-1 #
edge $-1 $177 1.3907388653348116 $241 7.3183404677764559 $243 $308 forward 7 unknown #
coedge $-1 $172 $184 $309 $310 reversed $101 $-1 #
point $-1 73.582567827387308 -23.112244433339576 11.67288013433209 #
coedge $-1 $175 $311 $179 $252 reversed $248 $-1 #
loop $-1 $-1 $243 $234 #
straight-curve $-1 -73.582567827387308 -14.111146001485588 5.7452785318904454 0 1 0 I I #
point $-1 -73.582567827387308 -23.112244433339576 5.7452785318904454 #
coedge $-1 $180 $179 $298 $312 reversed $181 $-1 #
edge $-1 $182 -5.7452785318904454 $313 11.672880134332091 $247 $314 forward 7 unknown #
point $-1 -73.582567827387308 -33.332339572602777 5.7452785318904454 #
edge $-1 $315 -33.332339572602777 $255 33.332339572602777 $184 $316 forward 7 unknown #
vertex $-1 $185 $317 #
straight-curve $-1 73.582567827387308 -33.332339572602777 0 0 0 -1 I I #
face $-1 $318 $319 $14 $-1 $320 reversed single #
loop $-1 $-1 $321 $188 #
plane-surface $-1 0 -23.112244433339576 8.7090793331112675 0 -1 0 0 0 -1 forward_v I I I I #
coedge $-1 $322 $323 $324 $325 reversed $189 $-1 #
coedge $-1 $191 $202 $326 $327 forward $66 $-1 #
coedge $-1 $328 $193 $191 $263 reversed $266 $-1 #
edge $-1 $329 -73.582567827387308 $195 70.582916556371799 $262 $330 forward 7 unknown #
edge $-1 $197 8.5983165287904164 $267 19.355454205471712 $199 $331 forward 7 unknown #
coedge $-1 $193 $332 $271 $333 reversed $266 $-1 #
loop $-1 $-1 $193 $334 #
vertex $-1 $333 $335 #
straight-curve $-1 -65.787130732919948 33.332339572602777 19.979425139533806 0.49999998660252726 0 0.86602541151947299 I I #
point $-1 -70.582916556371799 33.332339572602777 11.672880134332091 #
point $-1 -73.582567827387308 22.575201895921481 6.4773315423254223 #
coedge $-1 $336 $199 $265 $333 forward $117 $-1 #
coedge $-1 $200 $337 $338 $339 forward $117 $-1 #
coedge $-1 $338 $321 $202 $274 reversed $258 $-1 #
edge $-1 $275 -73.582567827387308 $340 73.582567827387308 $202 $341 forward 7 unknown #
vertex $-1 $339 $342 #
straight-curve $-1 -73.582567827387308 0 11.672880134332091 0 -1 0 I I #
face $-1 $343 $344 $15 $-1 $345 forward single #
loop $-1 $-1 $284 $206 #
plane-surface $-1 -73.582567827387308 0 0 1 0 0 0 0 -1 forward_v I I I I #
coedge $-1 $212 $346 $281 $347 forward $207 $-1 #
coedge $-1 $348 $282 $280 $347 reversed $209 $-1 #
coedge $-1 $281 $349 $210 $283 reversed $209 $-1 #
edge $-1 $287 -5.9993027027820585 $350 -5.6516033812716314e-014 $210 $351 forward 7 unknown #
coedge $-1 $352 $353 $211 $285 forward $278 $-1 #
edge $-1 $288 28.357068564703795 $350 33.552617156710461 $284 $354 forward 7 unknown #
coedge $-1 $355 $212 $353 $356 forward $207 $-1 #
vertex $-1 $347 $357 #
vertex $-1 $356 $358 #
straight-curve $-1 -100.51565749706629 22.575201895921481 11.67288013433209 -1 0 0 I I #
vertex $-1 $214 $359 #
point $-1 -69.459979578945337 27.953770734262129 8.7155537198956488 #
straight-curve $-1 -73.582567827387308 33.332339572602777 0 0 0 -1 I I #
point $-1 -73.582567827387308 -33.332339572602777 -11.672880134332091 #
straight-curve $-1 -73.582567827387308 0 -11.672880134332091 0 1 0 I I #
point $-1 -73.582567827387308 33.332339572602777 -11.672880134332091 #
face $-1 $-1 $360 $13 $-1 $361 reversed single #
plane-surface $-1 -73.582567827387308 0 0 1 0 0 0 0 -1 forward_v I I I I #
coedge $-1 $362 $236 $251 $312 forward $166 $-1 #
coedge $-1 $236 $362 $363 $364 forward $166 $-1 #
coedge $-1 $309 $365 $237 $301 reversed $360 $-1 #
edge $-1 $302 -73.582567827387308 $305 73.582567827387308 $300 $366 forward 7 unknown #
vertex $-1 $238 $367 #
straight-curve $-1 73.582567827387308 0 11.672880134332091 0 1 0 I I #
coedge $-1 $311 $239 $365 $368 forward $248 $-1 #
vertex $-1 $301 $369 #
straight-curve $-1 -73.582567827387308 0 11.672880134332091 0 -1 0 I I #
point $-1 -73.582567827387308 -23.112244433339576 11.67288013433209 #
straight-curve $-1 -73.582567827387308 -23.112244433339576 4.3545396665556337 0 0 1 I I #
coedge $-1 $363 $300 $245 $310 forward $360 $-1 #
edge $-1 $302 -11.672880134332091 $315 11.672880134332091 $245 $370 forward 7 unknown #
coedge $-1 $247 $304 $362 $371 reversed $248 $-1 #
edge $-1 $255 -73.582567827387308 $313 73.582567827387308 $251 $372 forward 7 unknown #
vertex $-1 $371 $373 #
straight-curve $-1 -73.582567827387308 -33.332339572602777 0 0 0 -1 I I #
vertex $-1 $254 $374 #
straight-curve $-1 73.582567827387308 0 -11.672880134332091 0 -1 0 I I #
point $-1 73.582567827387308 -33.332339572602777 -11.672880134332091 #
face $-1 $375 $376 $14 $-1 $377 reversed single #
loop $-1 $-1 $378 $257 #
plane-surface $-1 73.582567827387308 0 0 -1 0 0 0 0 1 forward_v I I I I #
coedge $-1 $273 $379 $378 $380 reversed $258 $-1 #
coedge $-1 $381 $260 $379 $382 reversed $189 $-1 #
coedge $-1 $260 $381 $383 $384 reversed $189 $-1 #
coedge $-1 $385 $378 $260 $325 forward $319 $-1 #
edge $-1 $386 9.0010984318539879 $387 19.22119357111719 $324 $388 forward 7 unknown #
coedge $-1 $378 $389 $261 $327 reversed $319 $-1 #
edge $-1 $340 -23.112244433339576 $329 33.332339572602777 $326 $390 forward 7 unknown #
coedge $-1 $332 $262 $389 $391 forward $266 $-1 #
vertex $-1 $327 $392 #
straight-curve $-1 0 33.332339572602777 11.672880134332091 -1 0 0 I I #
straight-curve $-1 -73.582567827387308 13.976885367131064 6.4773315423254143 0 1 0 I I #
coedge $-1 $265 $328 $393 $394 reversed $266 $-1 #
edge $-1 $267 -6.4773315423254223 $395 11.672880134332091 $265 $396 forward 7 unknown #
face $-1 $-1 $266 $14 $-1 $397 reversed single #
point $-1 -73.582567827387308 33.332339572602777 6.4773315423254223 #
coedge $-1 $398 $271 $399 $400 reversed $117 $-1 #
coedge $-1 $272 $398 $381 $401 forward $117 $-1 #
coedge $-1 $379 $273 $272 $339 reversed $258 $-1 #
edge $-1 $402 1.3907388653348116 $275 7.3183404677764559 $272 $403 forward 7 unknown #
vertex $-1 $327 $404 #
straight-curve $-1 0 -23.112244433339576 11.672880134332091 1 0 0 I I #
point $-1 -73.582567827387308 -23.112244433339576 11.67288013433209 #
face $-1 $405 $406 $15 $-1 $407 forward single #
loop $-1 $-1 $408 $277 #
plane-surface $-1 0 -28.222292002971177 5.7452785318904454 0 0 1 1 0 0 forward_v I I I I #
coedge $-1 $280 $409 $410 $411 forward $207 $-1 #
edge $-1 $412 -19.355454205471712 $287 -8.5983165287904164 $280 $413 forward 7 unknown #
coedge $-1 $349 $281 $414 $415 reversed $209 $-1 #
coedge $-1 $282 $348 $352 $416 reversed $209 $-1 #
vertex $-1 $416 $417 #
straight-curve $-1 -73.582567827387336 22.575201895921481 6.4773315423253734 -0.49999998660252726 0 -0.86602541151947299 I I #
coedge $-1 $418 $284 $349 $416 forward $278 $-1 #
coedge $-1 $284 $419 $286 $356 reversed $278 $-1 #
straight-curve $-1 -73.582567827387308 22.575201895921481 40.029948699035884 0 0 -1 I I #
coedge $-1 $409 $286 $420 $421 forward $207 $-1 #
edge $-1 $288 -22.575201895921481 $422 23.112244433339576 $353 $423 forward 7 unknown #
point $-1 -70.582916556371799 22.575201895921481 11.672880134332091 #
point $-1 -73.582567827387308 22.575201895921481 11.672880134332091 #
point $-1 -69.093954154028395 27.953770734262129 7.349528321773648 #
loop $-1 $-1 $309 $296 #
plane-surface $-1 0 33.332339572602777 0 0 -1 0 0 0 -1 forward_v I I I I #
coedge $-1 $299 $298 $311 $371 forward $166 $-1 #
coedge $-1 $365 $309 $299 $364 reversed $360 $-1 #
edge $-1 $424 -73.582567827387308 $315 73.582567827387308 $363 $425 forward 7 unknown #
coedge $-1 $300 $363 $304 $368 reversed $360 $-1 #
straight-curve $-1 0 33.332339572602777 11.672880134332091 -1 0 0 I I #
point $-1 73.582567827387308 33.332339572602777 11.672880134332091 #
edge $-1 $305 -11.672880134332091 $424 11.672880134332091 $365 $426 forward 7 unknown #
point $-1 -73.582567827387308 33.332339572602777 11.672880134332091 #
straight-curve $-1 73.582567827387308 33.332339572602777 0 0 0 -1 I I #
edge $-1 $313 -33.332339572602777 $424 33.332339572602777 $311 $427 forward 7 unknown #
straight-curve $-1 0 -33.332339572602777 -11.672880134332091 -1 0 0 I I #
point $-1 -73.582567827387308 -33.332339572602777 -11.672880134332091 #
point $-1 73.582567827387308 33.332339572602777 -11.672880134332091 #
face $-1 $334 $428 $14 $-1 $429 reversed single #
loop $-1 $-1 $430 $318 #
plane-surface $-1 0 0 -11.672880134332091 0 0 1 1 0 0 forward_v I I I I #
coedge $-1 $324 $326 $321 $380 forward $319 $-1 #
coedge $-1 $321 $338 $322 $382 forward $258 $-1 #
edge $-1 $340 -7.3183404677764559 $386 -1.3907388653348116 $378 $431 forward 7 unknown #
coedge $-1 $323 $322 $337 $401 reversed $189 $-1 #
edge $-1 $402 -73.582567827387308 $386 73.582567827387308 $379 $432 forward 7 unknown #
coedge $-1 $433 $434 $323 $384 forward $428 $-1 #
edge $-1 $387 -73.582567827387308 $435 73.582567827387308 $383 $436 forward 7 unknown #
coedge $-1 $437 $324 $434 $438 forward $319 $-1 #
vertex $-1 $325 $439 #
vertex $-1 $438 $440 #
straight-curve $-1 73.582567827387308 -14.111146001485588 5.7452785318904454 0 -1 0 I I #
coedge $-1 $326 $437 $328 $391 reversed $319 $-1 #
straight-curve $-1 73.582567827387308 0 11.672880134332091 0 1 0 I I #
edge $-1 $329 -11.672880134332091 $441 11.672880134332091 $389 $442 forward 7 unknown #
point $-1 73.582567827387308 33.332339572602777 11.672880134332091 #
coedge $-1 $430 $399 $332 $394 forward $376 $-1 #
edge $-1 $395 -73.582567827387308 $441 73.582567827387308 $332 $443 forward 7 unknown #
vertex $-1 $394 $444 #
straight-curve $-1 -73.582567827387308 33.332339572602777 0 0 0 -1 I I #
plane-surface $-1 0 33.332339572602777 0 0 -1 0 0 0 -1 forward_v I I I I #
coedge $-1 $337 $336 $433 $445 reversed $117 $-1 #
coedge $-1 $393 $446 $336 $400 forward $376 $-1 #
edge $-1 $447 -33.332339572602777 $395 33.332339572602777 $336 $448 forward 7 unknown #
edge $-1 $435 -19.22119357111719 $402 -9.0010984318539879 $337 $449 forward 7 unknown #
vertex $-1 $401 $450 #
straight-curve $-1 -73.582567827387308 -23.112244433339576 4.3545396665556337 0 0 1 I I #
point $-1 73.582567827387308 -23.112244433339576 11.67288013433209 #
face $-1 $451 $452 $15 $-1 $453 reversed single #
loop $-1 $-1 $454 $343 #
plane-surface $-1 0 -23.112244433339576 8.7090793331112675 0 -1 0 0 0 -1 forward_v I I I I #
coedge $-1 $455 $456 $457 $458 reversed $344 $-1 #
coedge $-1 $346 $355 $459 $460 forward $207 $-1 #
coedge $-1 $461 $414 $346 $411 reversed $462 $-1 #
edge $-1 $463 -73.582567827387308 $412 70.582916556371799 $410 $464 forward 7 unknown #
vertex $-1 $415 $465 #
straight-curve $-1 -70.582916556371799 13.976885367131064 11.672880134332091 0 -1 0 I I #
coedge $-1 $410 $466 $348 $415 forward $462 $-1 #
edge $-1 $467 -15.590874606691354 $412 -9.5915719039093528 $414 $468 forward 7 unknown #
edge $-1 $350 8.5983165287904164 $467 19.355454205471712 $352 $469 forward 7 unknown #
point $-1 -73.582567827387308 22.575201895921481 6.4773315423254223 #
coedge $-1 $470 $352 $466 $471 forward $278 $-1 #
coedge $-1 $353 $472 $473 $474 forward $278 $-1 #
coedge $-1 $473 $454 $355 $421 reversed $406 $-1 #
edge $-1 $422 -73.582567827387308 $475 73.582567827387308 $355 $476 forward 7 unknown #
vertex $-1 $474 $477 #
straight-curve $-1 -73.582567827387308 0 11.672880134332091 0 -1 0 I I #
vertex $-1 $364 $478 #
straight-curve $-1 0 33.332339572602777 -11.672880134332091 1 0 0 I I #
straight-curve $-1 -73.582567827387308 33.332339572602777 0 0 0 -1 I I #
straight-curve $-1 -73.582567827387308 0 -11.672880134332091 0 1 0 I I #
loop $-1 $-1 $383 $375 #
plane-surface $-1 0 -33.332339572602777 0 0 1 0 0 0 1 forward_v I I I I #
coedge $-1 $446 $393 $437 $479 forward $376 $-1 #
straight-curve $-1 73.582567827387308 -23.112244433339576 4.3545396665556337 0 0 -1 I I #
straight-curve $-1 0 -23.112244433339576 5.7452785318904454 1 0 0 I I #
coedge $-1 $480 $383 $398 $445 forward $428 $-1 #
coedge $-1 $383 $480 $385 $438 reversed $428 $-1 #
vertex $-1 $445 $481 #
straight-curve $-1 0 -33.332339572602777 5.7452785318904454 -1 0 0 I I #
coedge $-1 $389 $385 $430 $479 reversed $319 $-1 #
edge $-1 $387 -5.7452785318904454 $482 11.672880134332091 $385 $483 forward 7 unknown #
point $-1 73.582567827387308 -23.112244433339576 5.7452785318904454 #
point $-1 73.582567827387308 -33.332339572602777 5.7452785318904454 #
vertex $-1 $479 $484 #
straight-curve $-1 73.582567827387308 33.332339572602777 0 0 0 -1 I I #
straight-curve $-1 0 33.332339572602777 -11.672880134332091 1 0 0 I I #
point $-1 -73.582567827387308 33.332339572602777 -11.672880134332091 #
edge $-1 $435 -5.7452785318904454 $447 11.672880134332091 $398 $485 forward 7 unknown #
coedge $-1 $399 $430 $480 $486 forward $376 $-1 #
vertex $-1 $400 $487 #
straight-curve $-1 -73.582567827387308 0 -11.672880134332091 0 1 0 I I #
straight-curve $-1 -73.582567827387308 -14.111146001485588 5.7452785318904454 0 1 0 I I #
point $-1 -73.582567827387308 -23.112244433339576 5.7452785318904454 #
face $-1 $488 $489 $15 $-1 $490 reversed single #
loop $-1 $-1 $491 $405 #
plane-surface $-1 73.582567827387308 0 0 -1 0 0 0 0 1 forward_v I I I I #
coedge $-1 $420 $492 $491 $493 reversed $406 $-1 #
coedge $-1 $494 $408 $492 $495 reversed $344 $-1 #
coedge $-1 $408 $494 $496 $497 reversed $344 $-1 #
coedge $-1 $498 $491 $408 $458 forward $452 $-1 #
edge $-1 $499 9.0010984318539879 $500 19.22119357111719 $457 $501 forward 7 unknown #
coedge $-1 $491 $502 $409 $460 reversed $452 $-1 #
edge $-1 $475 -23.112244433339576 $463 33.332339572602777 $459 $503 forward 7 unknown #
coedge $-1 $504 $410 $502 $505 forward $462 $-1 #
loop $-1 $-1 $414 $506 #
vertex $-1 $460 $507 #
straight-curve $-1 0 33.332339572602777 11.672880134332091 -1 0 0 I I #
point $-1 -70.582916556371799 33.332339572602777 11.672880134332091 #
coedge $-1 $414 $504 $418 $471 reversed $462 $-1 #
vertex $-1 $471 $508 #
straight-curve $-1 -65.787130732919948 33.332339572602777 19.979425139533806 0.49999998660252726 0 0.86602541151947299 I I #
straight-curve $-1 -73.582567827387308 13.976885367131064 6.4773315423254143 0 1 0 I I #
coedge $-1 $509 $418 $510 $511 reversed $278 $-1 #
edge $-1 $467 -6.4773315423254223 $512 11.672880134332091 $466 $513 forward 7 unknown #
coedge $-1 $419 $509 $494 $514 forward $278 $-1 #
coedge $-1 $492 $420 $419 $474 reversed $406 $-1 #
edge $-1 $515 1.3907388653348116 $422 7.3183404677764559 $419 $516 forward 7 unknown #
vertex $-1 $460 $517 #
straight-curve $-1 0 -23.112244433339576 11.672880134332091 1 0 0 I I #
point $-1 -73.582567827387308 -23.112244433339576 11.67288013433209 #
point $-1 -73.582567827387308 33.332339572602777 -11.672880134332091 #
edge $-1 $441 -33.332339572602777 $482 33.332339572602777 $437 $518 forward 7 unknown #
coedge $-1 $434 $433 $446 $486 reversed $428 $-1 #
point $-1 -73.582567827387308 -33.332339572602777 5.7452785318904454 #
vertex $-1 $438 $519 #
straight-curve $-1 73.582567827387308 -33.332339572602777 0 0 0 -1 I I #
point $-1 73.582567827387308 33.332339572602777 -11.672880134332091 #
straight-curve $-1 -73.582567827387308 -33.332339572602777 0 0 0 -1 I I #
edge $-1 $482 -73.582567827387308 $447 73.582567827387308 $480 $520 forward 7 unknown #
point $-1 -73.582567827387308 -33.332339572602777 -11.672880134332091 #
face $-1 $506 $521 $15 $-1 $522 reversed single #
loop $-1 $-1 $523 $451 #
plane-surface $-1 0 0 -11.672880134332091 0 0 1 1 0 0 forward_v I I I I #
coedge $-1 $457 $459 $454 $493 forward $452 $-1 #
coedge $-1 $454 $473 $455 $495 forward $406 $-1 #
edge $-1 $475 -7.3183404677764559 $499 -1.3907388653348116 $491 $524 forward 7 unknown #
coedge $-1 $456 $455 $472 $514 reversed $344 $-1 #
edge $-1 $515 -73.582567827387308 $499 73.582567827387308 $492 $525 forward 7 unknown #
coedge $-1 $526 $527 $456 $497 forward $521 $-1 #
edge $-1 $500 -73.582567827387308 $528 73.582567827387308 $496 $529 forward 7 unknown #
coedge $-1 $530 $457 $527 $531 forward $452 $-1 #
vertex $-1 $458 $532 #
vertex $-1 $531 $533 #
straight-curve $-1 73.582567827387308 -14.111146001485588 5.7452785318904454 0 -1 0 I I #
coedge $-1 $459 $530 $461 $505 reversed $452 $-1 #
straight-curve $-1 73.582567827387308 0 11.672880134332091 0 1 0 I I #
coedge $-1 $466 $461 $534 $535 reversed $462 $-1 #
edge $-1 $463 -11.672880134332091 $536 11.672880134332091 $502 $537 forward 7 unknown #
face $-1 $-1 $462 $15 $-1 $538 reversed single #
point $-1 73.582567827387308 33.332339572602777 11.672880134332091 #
point $-1 -73.582567827387308 33.332339572602777 6.4773315423254223 #
coedge $-1 $472 $470 $526 $539 reversed $278 $-1 #
coedge $-1 $534 $540 $470 $511 forward $489 $-1 #
edge $-1 $541 -33.332339572602777 $512 33.332339572602777 $470 $542 forward 7 unknown #
vertex $-1 $535 $543 #
straight-curve $-1 -73.582567827387308 33.332339572602777 0 0 0 -1 I I #
edge $-1 $528 -19.22119357111719 $515 -9.0010984318539879 $472 $544 forward 7 unknown #
vertex $-1 $514 $545 #
straight-curve $-1 -73.582567827387308 -23.112244433339576 4.3545396665556337 0 0 1 I I #
point $-1 73.582567827387308 -23.112244433339576 11.67288013433209 #
straight-curve $-1 73.582567827387308 0 -11.672880134332091 0 -1 0 I I #
point $-1 73.582567827387308 -33.332339572602777 -11.672880134332091 #
straight-curve $-1 0 -33.332339572602777 -11.672880134332091 -1 0 0 I I #
loop $-1 $-1 $496 $488 #
plane-surface $-1 0 -33.332339572602777 0 0 1 0 0 0 1 forward_v I I I I #
coedge $-1 $540 $534 $530 $546 forward $489 $-1 #
straight-curve $-1 73.582567827387308 -23.112244433339576 4.3545396665556337 0 0 -1 I I #
straight-curve $-1 0 -23.112244433339576 5.7452785318904454 1 0 0 I I #
coedge $-1 $547 $496 $509 $539 forward $521 $-1 #
coedge $-1 $496 $547 $498 $531 reversed $521 $-1 #
vertex $-1 $539 $548 #
straight-curve $-1 0 -33.332339572602777 5.7452785318904454 -1 0 0 I I #
coedge $-1 $502 $498 $523 $546 reversed $452 $-1 #
edge $-1 $500 -5.7452785318904454 $549 11.672880134332091 $498 $550 forward 7 unknown #
point $-1 73.582567827387308 -23.112244433339576 5.7452785318904454 #
point $-1 73.582567827387308 -33.332339572602777 5.7452785318904454 #
coedge $-1 $523 $510 $504 $535 forward $489 $-1 #
edge $-1 $512 -73.582567827387308 $536 73.582567827387308 $504 $551 forward 7 unknown #
vertex $-1 $546 $552 #
straight-curve $-1 73.582567827387308 33.332339572602777 0 0 0 -1 I I #
plane-surface $-1 0 33.332339572602777 0 0 -1 0 0 0 -1 forward_v I I I I #
edge $-1 $528 -5.7452785318904454 $541 11.672880134332091 $509 $553 forward 7 unknown #
coedge $-1 $510 $523 $547 $554 forward $489 $-1 #
vertex $-1 $511 $555 #
straight-curve $-1 -73.582567827387308 0 -11.672880134332091 0 1 0 I I #
point $-1 -73.582567827387308 33.332339572602777 -11.672880134332091 #
straight-curve $-1 -73.582567827387308 -14.111146001485588 5.7452785318904454 0 1 0 I I #
point $-1 -73.582567827387308 -23.112244433339576 5.7452785318904454 #
edge $-1 $536 -33.332339572602777 $549 33.332339572602777 $530 $556 forward 7 unknown #
coedge $-1 $527 $526 $540 $554 reversed $521 $-1 #
point $-1 -73.582567827387308 -33.332339572602777 5.7452785318904454 #
vertex $-1 $531 $557 #
straight-curve $-1 73.582567827387308 -33.332339572602777 0 0 0 -1 I I #
straight-curve $-1 0 33.332339572602777 -11.672880134332091 1 0 0 I I #
point $-1 73.582567827387308 33.332339572602777 -11.672880134332091 #
straight-curve $-1 -73.582567827387308 -33.332339572602777 0 0 0 -1 I I #
edge $-1 $549 -73.582567827387308 $541 73.582567827387308 $547 $558 forward 7 unknown #
point $-1 -73.582567827387308 -33.332339572602777 -11.672880134332091 #
straight-curve $-1 73.582567827387308 0 -11.672880134332091 0 -1 0 I I #
point $-1 73.582567827387308 -33.332339572602777 -11.672880134332091 #
straight-curve $-1 0 -33.332339572602777 -11.672880134332091 -1 0 0 I I #
End-of-ACIS-data 