500 0 5 0           
7 Unknown 11 ACIS 5.0 NT 24 Thu Mar 25 16:23:22 1999 
-1 9.9999999999999995e-007 1e-010 
body $-1 $5 $-1 $6 #
body $-1 $7 $-1 $8 #
body $-1 $9 $-1 $10 #
body $-1 $11 $-1 $12 #
body $-1 $13 $-1 $14 #
lump $-1 $-1 $15 $0 #
transform $-1 1 0 0 0 1 0 0 0 1 46.631061738944666 30.094660045156306 13.190235915357288 1 rotate no_reflect no_shear #
lump $-1 $-1 $16 $1 #
transform $-1 1 0 0 0 1 0 0 0 1 46.631061738944666 30.094660045156306 13.190235915357288 1 rotate no_reflect no_shear #
lump $-1 $-1 $17 $2 #
transform $-1 1 0 0 0 1 0 0 0 1 46.631061738944666 30.094660045156306 13.190235915357288 1 rotate no_reflect no_shear #
lump $-1 $-1 $18 $3 #
transform $-1 1 0 0 0 1 0 0 0 1 46.631061738944666 30.094660045156306 13.190235915357288 1 rotate no_reflect no_shear #
lump $-1 $-1 $19 $4 #
transform $-1 1 0 0 0 1 0 0 0 1 46.631061738944666 30.094660045156306 13.190235915357288 1 rotate no_reflect no_shear #
shell $-1 $-1 $-1 $20 $-1 $5 #
shell $-1 $-1 $-1 $21 $-1 $7 #
shell $-1 $-1 $-1 $22 $-1 $9 #
shell $-1 $-1 $-1 $23 $-1 $11 #
shell $-1 $-1 $-1 $24 $-1 $13 #
face $-1 $25 $26 $15 $-1 $27 forward single #
face $-1 $28 $29 $16 $-1 $30 reversed single #
face $-1 $31 $32 $17 $-1 $33 forward single #
face $-1 $34 $35 $18 $-1 $36 reversed single #
face $-1 $37 $38 $19 $-1 $39 forward single #
face $-1 $40 $41 $15 $-1 $42 reversed single #
loop $-1 $-1 $43 $20 #
plane-surface $-1 0 0 13.190235915357288 0 0 1 1 0 0 forward_v I I I I #
face $-1 $44 $45 $16 $-1 $46 reversed single #
loop $-1 $-1 $47 $21 #
plane-surface $-1 -39.77477574148439 -22.258129430250261 0 0 -1 0 0 0 -1 forward_v I I I I #
face $-1 $48 $49 $17 $-1 $50 reversed single #
loop $-1 $-1 $51 $22 #
plane-surface $-1 46.631061738944666 0 0 -1 0 0 0 0 1 forward_v I I I I #
face $-1 $52 $53 $18 $-1 $54 reversed single #
loop $-1 $-1 $55 $23 #
plane-surface $-1 3.9178302578044111 -110.03590341514331 51.073167512081653 -1 0 0 0 -0.85716730853699208 0.51503806187062418 forward_v I I I I #
face $-1 $56 $57 $19 $-1 $58 forward single #
loop $-1 $59 $60 $24 #
cone-surface $-1 -0.32993430350519759 -25.452572596719676 7.1580378401149733 0 0.85716730853699208 -0.51503806187062418 1 0 0 1 I I 0 1 1 forward I I I I #
face $-1 $61 $62 $15 $-1 $63 reversed single #
loop $-1 $-1 $64 $25 #
plane-surface $-1 0 0 -13.190235915357288 0 0 1 1 0 0 forward_v I I I I #
coedge $-1 $65 $66 $67 $68 forward $26 $-1 #
face $-1 $69 $70 $16 $-1 $71 forward single #
loop $-1 $-1 $72 $28 #
plane-surface $-1 -32.918489744024114 -26.176394737703284 0 -1 0 0 0 0 1 forward_v I I I I #
coedge $-1 $73 $74 $75 $76 forward $29 $-1 #
face $-1 $77 $78 $17 $-1 $79 forward single #
loop $-1 $-1 $80 $31 #
plane-surface $-1 0 -30.094660045156306 0 0 1 0 0 0 1 forward_v I I I I #
coedge $-1 $81 $82 $83 $84 forward $32 $-1 #
face $-1 $85 $86 $18 $-1 $87 reversed single #
loop $-1 $-1 $88 $34 #
plane-surface $-1 -0.32993430350519759 -30.094660045156289 3.0396241900906986 0 -0.85716730853699208 0.51503806187062418 1 0 0 forward_v I I I I #
coedge $-1 $89 $90 $91 $92 reversed $35 $-1 #
face $-1 $-1 $93 $19 $-1 $94 forward single #
loop $-1 $95 $96 $37 #
cone-surface $-1 -0.32993430350519759 -23.431452811309633 5.9436265965706383 0 0.85716730853699208 -0.51503806187062418 0.5 0 0 1 I I -0.70710678118654746 0.70710678118654746 0.5 forward I I I I #
loop $-1 $-1 $97 $24 #
coedge $-1 $60 $60 $98 $99 reversed $38 $-1 #
face $-1 $100 $101 $15 $-1 $102 reversed single #
loop $-1 $-1 $103 $40 #
plane-surface $-1 0 -30.094660045156306 0 0 1 0 0 0 1 forward_v I I I I #
coedge $-1 $104 $105 $106 $107 forward $41 $-1 #
coedge $-1 $108 $43 $109 $110 forward $26 $-1 #
coedge $-1 $43 $108 $111 $112 forward $26 $-1 #
coedge $-1 $113 $114 $43 $68 reversed $115 $-1 #
edge $-1 $116 -30.094660045156306 $117 30.094660045156306 $67 $118 forward 7 unknown #
face $-1 $119 $120 $16 $-1 $121 reversed single #
loop $-1 $-1 $122 $44 #
plane-surface $-1 0 0 13.190235915357288 0 0 1 1 0 0 forward_v I I I I #
coedge $-1 $123 $124 $125 $126 reversed $45 $-1 #
coedge $-1 $127 $47 $128 $129 reversed $29 $-1 #
coedge $-1 $47 $127 $130 $131 reversed $29 $-1 #
coedge $-1 $124 $123 $47 $76 reversed $45 $-1 #
edge $-1 $132 -13.190235915357288 $133 13.190235915357288 $75 $134 forward 7 unknown #
face $-1 $135 $136 $17 $-1 $137 reversed single #
loop $-1 $-1 $138 $48 #
plane-surface $-1 52.802954551375677 0 -7.8870099259136417 0 0 1 1 0 0 forward_v I I I I #
coedge $-1 $139 $140 $82 $141 forward $49 $-1 #
coedge $-1 $142 $51 $143 $144 reversed $32 $-1 #
coedge $-1 $51 $142 $80 $141 reversed $32 $-1 #
coedge $-1 $145 $146 $51 $84 reversed $78 $-1 #
edge $-1 $147 -30.094660045156306 $148 30.094660045156306 $83 $149 forward 7 unknown #
face $-1 $150 $151 $18 $-1 $152 reversed single #
loop $-1 $-1 $153 $52 #
plane-surface $-1 -4.5776988648148063 -110.03590341514331 51.073167512081653 1 0 0 0 0.85716730853699208 -0.51503806187062418 forward_v I I I I #
coedge $-1 $154 $155 $156 $157 reversed $53 $-1 #
coedge $-1 $90 $55 $158 $159 reversed $35 $-1 #
coedge $-1 $55 $89 $154 $160 reversed $35 $-1 #
coedge $-1 $156 $161 $55 $92 forward $162 $-1 #
edge $-1 $163 24.923291662415348 $164 31.02239429700554 $91 $165 forward 7 unknown #
loop $-1 $-1 $98 $56 #
plane-surface $-1 -0.32993430350519759 -30.094660045156289 3.0396241900906986 0 -0.85716730853699208 0.51503806187062418 1 0 0 forward_v I I I I #
loop $-1 $-1 $166 $37 #
coedge $-1 $96 $96 $97 $167 reversed $57 $-1 #
coedge $-1 $97 $97 $96 $167 forward $59 $-1 #
coedge $-1 $98 $98 $60 $99 forward $93 $-1 #
edge $-1 $168 1.8166789961372826e-015 $168 6.2831853071796022 $98 $169 forward 7 unknown #
face $-1 $170 $171 $15 $-1 $172 reversed single #
loop $-1 $-1 $173 $61 #
plane-surface $-1 -46.631061738944666 0 0 1 0 0 0 0 -1 forward_v I I I I #
coedge $-1 $174 $111 $175 $176 forward $62 $-1 #
coedge $-1 $177 $64 $174 $178 forward $41 $-1 #
coedge $-1 $64 $177 $179 $180 forward $41 $-1 #
coedge $-1 $114 $113 $64 $107 reversed $115 $-1 #
edge $-1 $181 -30.094660045156306 $182 30.094660045156306 $106 $183 forward 7 unknown #
coedge $-1 $66 $65 $184 $185 forward $26 $-1 #
coedge $-1 $186 $187 $65 $110 reversed $171 $-1 #
edge $-1 $117 -46.631061738944666 $188 46.631061738944666 $109 $189 forward 7 unknown #
coedge $-1 $103 $190 $66 $112 reversed $62 $-1 #
edge $-1 $191 -46.631061738944666 $116 46.631061738944666 $111 $192 forward 7 unknown #
coedge $-1 $106 $67 $190 $193 forward $115 $-1 #
coedge $-1 $67 $106 $186 $194 reversed $115 $-1 #
loop $-1 $-1 $114 $170 #
vertex $-1 $68 $195 #
vertex $-1 $68 $196 #
straight-curve $-1 46.631061738944666 0 13.190235915357288 0 1 0 I I #
face $-1 $197 $198 $16 $-1 $199 reversed single #
loop $-1 $-1 $200 $69 #
plane-surface $-1 -46.631061738944666 0 0 1 0 0 0 0 -1 forward_v I I I I #
coedge $-1 $130 $201 $124 $202 forward $70 $-1 #
coedge $-1 $75 $72 $203 $204 reversed $45 $-1 #
coedge $-1 $72 $75 $122 $202 reversed $45 $-1 #
coedge $-1 $205 $206 $72 $126 forward $207 $-1 #
edge $-1 $208 -13.190235915357288 $209 13.190235915357288 $125 $210 forward 7 unknown #
coedge $-1 $74 $73 $200 $211 reversed $29 $-1 #
coedge $-1 $203 $212 $73 $129 forward $198 $-1 #
edge $-1 $213 -26.743673868202471 $133 -13.031101873281919 $128 $214 forward 7 unknown #
coedge $-1 $215 $122 $74 $131 forward $70 $-1 #
edge $-1 $132 13.031101873281919 $216 26.743673868202471 $130 $217 forward 7 unknown #
vertex $-1 $131 $218 #
vertex $-1 $129 $219 #
straight-curve $-1 -32.918489744024114 -22.258129430250261 0 0 0 -1 I I #
face $-1 $220 $221 $17 $-1 $222 reversed single #
loop $-1 $-1 $223 $77 #
plane-surface $-1 58.974847363806688 0 -10.538622920635465 -1 0 0 0 0 1 forward_v I I I I #
coedge $-1 $146 $145 $224 $225 forward $78 $-1 #
coedge $-1 $226 $80 $227 $228 reversed $49 $-1 #
coedge $-1 $80 $226 $145 $229 reversed $49 $-1 #
edge $-1 $147 7.8870099259136417 $230 13.190235915357288 $80 $231 forward 7 unknown #
coedge $-1 $82 $81 $232 $233 reversed $32 $-1 #
coedge $-1 $234 $235 $81 $144 forward $236 $-1 #
edge $-1 $237 -13.190235915357288 $148 -7.8870099259136417 $143 $238 forward 7 unknown #
coedge $-1 $138 $83 $140 $229 forward $78 $-1 #
coedge $-1 $83 $138 $234 $239 forward $78 $-1 #
vertex $-1 $141 $240 #
vertex $-1 $239 $241 #
straight-curve $-1 46.631061738944666 0 -7.8870099259136417 0 1 0 I I #
face $-1 $-1 $162 $18 $-1 $242 forward single #
loop $-1 $-1 $243 $85 #
plane-surface $-1 0 -30.094660045156306 0 0 1 0 0 0 1 forward_v I I I I #
coedge $-1 $244 $245 $246 $247 reversed $86 $-1 #
coedge $-1 $248 $88 $90 $160 forward $53 $-1 #
coedge $-1 $88 $248 $244 $249 forward $53 $-1 #
coedge $-1 $246 $91 $88 $157 forward $162 $-1 #
edge $-1 $164 -4.0827974095570099 $250 4.4127317130622075 $156 $251 forward 7 unknown #
coedge $-1 $252 $253 $89 $159 forward $151 $-1 #
edge $-1 $254 -22.496959565950156 $163 -12.346347840683539 $158 $255 forward 7 unknown #
edge $-1 $164 -11.842042532620141 $254 3.465305027230568e-014 $90 $256 forward 7 unknown #
coedge $-1 $91 $246 $252 $257 forward $162 $-1 #
loop $-1 $-1 $246 $150 #
vertex $-1 $159 $258 #
vertex $-1 $92 $259 #
straight-curve $-1 3.9178302578044111 -55.017951707571655 13.190235915357288 0 1 0 I I #
coedge $-1 $166 $166 $-1 $260 reversed $95 $-1 #
edge $-1 $261 0 $261 6.2831853071796004 $96 $262 forward 7 unknown #
vertex $-1 $99 $263 #
ellipse-curve $-1 -0.32993430350519759 -27.045108727861205 8.1149300527239863 0 -0.85716730853699208 0.51503806187062418 1 0 0 1 I I #
face $-1 $-1 $115 $15 $-1 $264 reversed single #
loop $-1 $-1 $186 $100 #
plane-surface $-1 0 30.094660045156306 0 0 -1 0 0 0 -1 forward_v I I I I #
coedge $-1 $265 $184 $187 $266 forward $101 $-1 #
coedge $-1 $190 $103 $104 $178 reversed $62 $-1 #
coedge $-1 $184 $265 $103 $176 reversed $101 $-1 #
edge $-1 $191 -13.190235915357288 $267 13.190235915357288 $175 $268 forward 7 unknown #
coedge $-1 $105 $104 $265 $269 forward $41 $-1 #
edge $-1 $182 -46.631061738944666 $267 46.631061738944666 $174 $270 forward 7 unknown #
coedge $-1 $187 $186 $105 $180 reversed $171 $-1 #
edge $-1 $271 -46.631061738944666 $181 46.631061738944666 $179 $272 forward 7 unknown #
vertex $-1 $107 $273 #
vertex $-1 $193 $274 #
straight-curve $-1 46.631061738944666 0 -13.190235915357288 0 -1 0 I I #
coedge $-1 $173 $175 $108 $185 reversed $101 $-1 #
edge $-1 $188 -30.094660045156306 $191 30.094660045156306 $184 $275 forward 7 unknown #
coedge $-1 $179 $109 $114 $194 forward $171 $-1 #
coedge $-1 $109 $179 $173 $266 reversed $171 $-1 #
vertex $-1 $110 $276 #
straight-curve $-1 0 30.094660045156306 13.190235915357288 -1 0 0 I I #
coedge $-1 $111 $174 $113 $193 reversed $62 $-1 #
vertex $-1 $185 $277 #
straight-curve $-1 0 -30.094660045156306 13.190235915357288 1 0 0 I I #
edge $-1 $116 -13.190235915357288 $182 13.190235915357288 $113 $278 forward 7 unknown #
edge $-1 $117 -13.190235915357288 $181 13.190235915357288 $114 $279 forward 7 unknown #
point $-1 46.631061738944666 -30.094660045156306 13.190235915357288 #
point $-1 46.631061738944666 30.094660045156306 13.190235915357288 #
face $-1 $-1 $207 $16 $-1 $280 reversed single #
loop $-1 $-1 $203 $119 #
plane-surface $-1 0 0 -13.190235915357288 0 0 1 1 0 0 forward_v I I I I #
coedge $-1 $281 $282 $127 $211 forward $120 $-1 #
coedge $-1 $122 $215 $205 $283 forward $70 $-1 #
edge $-1 $209 -17.006462676304665 $132 -9.1699320613986188 $122 $284 forward 7 unknown #
coedge $-1 $285 $128 $123 $204 forward $198 $-1 #
edge $-1 $133 9.1699320613986188 $208 17.006462676304665 $203 $286 forward 7 unknown #
coedge $-1 $287 $125 $201 $283 reversed $207 $-1 #
coedge $-1 $125 $287 $285 $288 reversed $207 $-1 #
loop $-1 $-1 $125 $197 #
vertex $-1 $288 $289 #
vertex $-1 $126 $290 #
straight-curve $-1 -32.918489744024114 -30.094660045156306 0 0 0 1 I I #
edge $-1 $216 -13.190235915357288 $213 13.190235915357288 $200 $291 forward 7 unknown #
coedge $-1 $128 $285 $281 $292 forward $198 $-1 #
vertex $-1 $129 $293 #
straight-curve $-1 -19.887387870742195 -22.258129430250261 -13.190235915357288 1 0 0 I I #
coedge $-1 $201 $130 $282 $294 forward $70 $-1 #
vertex $-1 $294 $295 #
straight-curve $-1 -19.887387870742195 -22.258129430250261 13.190235915357288 -1 0 0 I I #
point $-1 -32.918489744024114 -22.258129430250261 13.190235915357288 #
point $-1 -32.918489744024114 -22.258129430250261 -13.190235915357288 #
face $-1 $-1 $236 $17 $-1 $296 reversed single #
loop $-1 $-1 $232 $135 #
plane-surface $-1 0 0 -13.190235915357288 0 0 1 1 0 0 forward_v I I I I #
coedge $-1 $297 $224 $226 $298 forward $136 $-1 #
coedge $-1 $223 $299 $138 $225 reversed $136 $-1 #
edge $-1 $300 -30.094660045156306 $301 30.094660045156306 $224 $302 forward 7 unknown #
coedge $-1 $140 $139 $223 $298 reversed $49 $-1 #
coedge $-1 $232 $303 $139 $228 forward $221 $-1 #
edge $-1 $304 -6.1718928124310111 $230 6.1718928124310111 $139 $305 forward 7 unknown #
edge $-1 $147 -6.1718928124310111 $300 6.1718928124310111 $140 $306 forward 7 unknown #
vertex $-1 $233 $307 #
straight-curve $-1 46.631061738944666 -30.094660045156306 0 0 0 -1 I I #
coedge $-1 $308 $227 $142 $233 forward $221 $-1 #
edge $-1 $230 -30.094660045156306 $237 30.094660045156306 $232 $309 forward 7 unknown #
coedge $-1 $310 $143 $146 $239 reversed $236 $-1 #
coedge $-1 $143 $310 $308 $311 reversed $236 $-1 #
loop $-1 $-1 $143 $220 #
vertex $-1 $311 $312 #
straight-curve $-1 46.631061738944666 30.094660045156306 0 0 0 1 I I #
edge $-1 $301 -6.1718928124310111 $148 6.1718928124310111 $234 $313 forward 7 unknown #
point $-1 46.631061738944666 -30.094660045156306 -7.8870099259136417 #
point $-1 46.631061738944666 30.094660045156306 -7.8870099259136417 #
plane-surface $-1 0 0 13.190235915357288 0 0 1 1 0 0 forward_v I I I I #
coedge $-1 $253 $252 $245 $314 forward $151 $-1 #
coedge $-1 $245 $153 $155 $249 reversed $86 $-1 #
coedge $-1 $153 $244 $243 $314 reversed $86 $-1 #
coedge $-1 $161 $156 $153 $247 forward $162 $-1 #
edge $-1 $250 -31.02239429700554 $315 -24.923291662415348 $246 $316 forward 7 unknown #
coedge $-1 $155 $154 $253 $317 reversed $53 $-1 #
edge $-1 $318 -3.465305027230568e-014 $250 11.842042532620141 $244 $319 forward 7 unknown #
vertex $-1 $157 $320 #
straight-curve $-1 -0.1649671517525988 -23.995557410566114 13.190235915357288 -1 0 0 I I #
coedge $-1 $243 $158 $161 $257 reversed $151 $-1 #
coedge $-1 $158 $243 $248 $317 forward $151 $-1 #
vertex $-1 $159 $321 #
straight-curve $-1 3.9178302578044111 -30.094660045156303 25.536583756040827 0 0 1 I I #
straight-curve $-1 3.9178302578044111 -30.094660045156289 3.0396241900906986 0 -0.51503806187062418 -0.85716730853699208 I I #
edge $-1 $315 -4.5776988648148063 $163 3.9178302578044111 $252 $322 forward 7 unknown #
point $-1 3.9178302578044111 -30.094660045156306 13.190235915357288 #
point $-1 3.9178302578044111 -23.995557410566114 13.190235915357288 #
edge $-1 $323 1 $323 0 $166 $-1 forward 7 unknown #
vertex $-1 $167 $324 #
ellipse-curve $-1 -0.32993430350519759 -23.86003646557813 6.2011456275059507 0 -0.85716730853699208 0.51503806187062418 1 0 0 1 I I #
point $-1 0.67006569649480241 -27.045108727861219 8.1149300527239969 #
plane-surface $-1 46.631061738944666 0 0 -1 0 0 0 0 1 forward_v I I I I #
coedge $-1 $175 $173 $177 $269 reversed $101 $-1 #
edge $-1 $188 -13.190235915357288 $271 13.190235915357288 $187 $325 forward 7 unknown #
vertex $-1 $269 $326 #
straight-curve $-1 -46.631061738944666 -30.094660045156306 0 0 0 -1 I I #
edge $-1 $267 -30.094660045156306 $271 30.094660045156306 $265 $327 forward 7 unknown #
straight-curve $-1 0 -30.094660045156306 -13.190235915357288 -1 0 0 I I #
vertex $-1 $180 $328 #
straight-curve $-1 0 30.094660045156306 -13.190235915357288 1 0 0 I I #
point $-1 46.631061738944666 30.094660045156306 -13.190235915357288 #
point $-1 46.631061738944666 -30.094660045156306 -13.190235915357288 #
straight-curve $-1 -46.631061738944666 0 13.190235915357288 0 -1 0 I I #
point $-1 -46.631061738944666 30.094660045156306 13.190235915357288 #
point $-1 -46.631061738944666 -30.094660045156306 13.190235915357288 #
straight-curve $-1 46.631061738944666 -30.094660045156306 0 0 0 -1 I I #
straight-curve $-1 46.631061738944666 30.094660045156306 0 0 0 -1 I I #
plane-surface $-1 0 -30.094660045156306 0 0 1 0 0 0 1 forward_v I I I I #
coedge $-1 $329 $200 $212 $292 reversed $120 $-1 #
coedge $-1 $200 $329 $215 $294 reversed $120 $-1 #
edge $-1 $330 -46.631061738944666 $209 -32.918489744024114 $205 $331 forward 7 unknown #
straight-curve $-1 -32.918489744024114 -13.088197368851642 13.190235915357288 0 1 0 I I #
coedge $-1 $212 $203 $206 $288 forward $198 $-1 #
straight-curve $-1 -32.918489744024114 -13.088197368851642 -13.190235915357288 0 -1 0 I I #
coedge $-1 $206 $205 $329 $332 forward $207 $-1 #
edge $-1 $208 32.918489744024114 $333 46.631061738944666 $206 $334 forward 7 unknown #
point $-1 -32.918489744024114 -30.094660045156306 -13.190235915357288 #
point $-1 -32.918489744024114 -30.094660045156306 13.190235915357288 #
straight-curve $-1 -46.631061738944666 -22.258129430250261 0 0 0 -1 I I #
edge $-1 $333 -30.094660045156306 $213 -22.258129430250261 $281 $335 forward 7 unknown #
point $-1 -46.631061738944666 -22.258129430250261 -13.190235915357288 #
edge $-1 $216 22.258129430250261 $330 30.094660045156306 $282 $336 forward 7 unknown #
point $-1 -46.631061738944666 -22.258129430250261 13.190235915357288 #
plane-surface $-1 0 30.094660045156306 0 0 -1 0 0 0 -1 forward_v I I I I #
coedge $-1 $299 $223 $303 $337 reversed $136 $-1 #
edge $-1 $300 -2.6516129947218232 $304 2.6516129947218232 $223 $338 forward 7 unknown #
coedge $-1 $224 $297 $310 $339 reversed $136 $-1 #
vertex $-1 $225 $340 #
vertex $-1 $225 $341 #
straight-curve $-1 58.974847363806688 0 -7.8870099259136417 0 1 0 I I #
coedge $-1 $227 $308 $297 $337 forward $221 $-1 #
vertex $-1 $298 $342 #
straight-curve $-1 52.802954551375677 -30.094660045156306 -13.190235915357288 -1 0 0 I I #
straight-curve $-1 52.802954551375677 -30.094660045156306 -7.8870099259136417 1 0 0 I I #
point $-1 46.631061738944666 -30.094660045156306 -13.190235915357288 #
coedge $-1 $303 $232 $235 $311 forward $221 $-1 #
straight-curve $-1 46.631061738944666 0 -13.190235915357288 0 1 0 I I #
coedge $-1 $235 $234 $299 $339 forward $236 $-1 #
edge $-1 $237 -6.1718928124310111 $343 6.1718928124310111 $235 $344 forward 7 unknown #
point $-1 46.631061738944666 30.094660045156306 -13.190235915357288 #
straight-curve $-1 52.802954551375677 30.094660045156306 -7.8870099259136417 -1 0 0 I I #
edge $-1 $315 12.346347840683539 $318 22.496959565950156 $243 $345 forward 7 unknown #
vertex $-1 $257 $346 #
straight-curve $-1 -4.5776988648148063 -55.017951707571655 13.190235915357288 0 -1 0 I I #
edge $-1 $318 -4.4127317130622075 $254 4.0827974095570099 $253 $347 forward 7 unknown #
vertex $-1 $317 $348 #
straight-curve $-1 -4.5776988648148063 -30.094660045156289 3.0396241900906986 0 0.51503806187062418 0.85716730853699208 I I #
point $-1 -4.5776988648148063 -23.995557410566114 13.190235915357288 #
point $-1 3.9178302578044111 -30.094660045156306 3.0396241900906689 #
straight-curve $-1 0 -30.094660045156306 13.190235915357288 1 0 0 I I #
vertex $-1 $260 $349 #
point $-1 0.67006569649480241 -23.86003646557813 6.2011456275059507 #
straight-curve $-1 -46.631061738944666 30.094660045156306 0 0 0 -1 I I #
point $-1 -46.631061738944666 -30.094660045156306 -13.190235915357288 #
straight-curve $-1 -46.631061738944666 0 -13.190235915357288 0 1 0 I I #
point $-1 -46.631061738944666 30.094660045156306 -13.190235915357288 #
coedge $-1 $282 $281 $287 $332 reversed $120 $-1 #
vertex $-1 $294 $350 #
straight-curve $-1 0 -30.094660045156306 13.190235915357288 1 0 0 I I #
edge $-1 $330 -13.190235915357288 $333 13.190235915357288 $329 $351 forward 7 unknown #
vertex $-1 $292 $352 #
straight-curve $-1 0 -30.094660045156306 -13.190235915357288 -1 0 0 I I #
straight-curve $-1 -46.631061738944666 0 -13.190235915357288 0 1 0 I I #
straight-curve $-1 -46.631061738944666 0 13.190235915357288 0 -1 0 I I #
edge $-1 $343 -30.094660045156306 $304 30.094660045156306 $297 $353 forward 7 unknown #
straight-curve $-1 58.974847363806688 -30.094660045156306 -10.538622920635465 0 0 -1 I I #
edge $-1 $301 -2.6516129947218232 $343 2.6516129947218232 $299 $354 forward 7 unknown #
point $-1 58.974847363806688 -30.094660045156306 -7.8870099259136417 #
point $-1 58.974847363806688 30.094660045156306 -7.8870099259136417 #
point $-1 58.974847363806688 -30.094660045156306 -13.190235915357288 #
vertex $-1 $337 $355 #
straight-curve $-1 52.802954551375677 30.094660045156306 -13.190235915357288 1 0 0 I I #
straight-curve $-1 -4.5776988648148063 -30.094660045156303 25.536583756040827 0 0 -1 I I #
point $-1 -4.5776988648148063 -30.094660045156306 13.190235915357288 #
straight-curve $-1 -0.1649671517525988 -30.094660045156306 3.0396241900906658 1 0 0 I I #
point $-1 -4.5776988648148063 -30.094660045156306 3.0396241900906689 #
point $-1 -0.32993430350519759 -23.002869157041136 5.6861075656353259 #
point $-1 -46.631061738944666 -30.094660045156306 13.190235915357288 #
straight-curve $-1 -46.631061738944666 -30.094660045156306 0 0 0 -1 I I #
point $-1 -46.631061738944666 -30.094660045156306 -13.190235915357288 #
straight-curve $-1 58.974847363806688 0 -13.190235915357288 0 -1 0 I I #
straight-curve $-1 58.974847363806688 30.094660045156306 -10.538622920635465 0 0 -1 I I #
point $-1 58.974847363806688 30.094660045156306 -13.190235915357288 #
End-of-ACIS-data 