500 0 12 0           
7 Unknown 11 ACIS 5.0 NT 24 Thu Mar 25 18:23:10 1999 
-1 9.9999999999999995e-007 1e-010 
body $-1 $12 $-1 $13 #
body $-1 $14 $-1 $15 #
body $-1 $16 $-1 $17 #
body $-1 $18 $-1 $19 #
body $-1 $20 $-1 $21 #
body $-1 $22 $-1 $23 #
body $-1 $24 $-1 $25 #
body $-1 $26 $-1 $27 #
body $-1 $28 $-1 $29 #
body $-1 $30 $-1 $31 #
body $-1 $32 $-1 $33 #
body $-1 $34 $-1 $35 #
lump $-1 $-1 $36 $0 #
transform $-1 1 0 0 0 1 0 0 0 1 43.658558915982546 27.418406413182886 10.384804059921493 1 rotate no_reflect no_shear #
lump $-1 $-1 $37 $1 #
transform $-1 1 0 0 0 1 0 0 0 1 43.658558915982546 27.418406413182886 10.384804059921493 1 rotate no_reflect no_shear #
lump $-1 $-1 $38 $2 #
transform $-1 1 0 0 0 1 0 0 0 1 43.658558915982546 27.418406413182886 10.384804059921493 1 rotate no_reflect no_shear #
lump $-1 $-1 $39 $3 #
transform $-1 1 0 0 0 1 0 0 0 1 43.658558915982546 27.418406413182886 10.384804059921493 1 rotate no_reflect no_shear #
lump $-1 $-1 $40 $4 #
transform $-1 1 0 0 0 1 0 0 0 1 43.658558915982546 27.418406413182886 10.384804059921493 1 rotate no_reflect no_shear #
lump $-1 $-1 $41 $5 #
transform $-1 1 0 0 0 1 0 0 0 1 43.658558915982546 27.418406413182886 10.384804059921493 1 rotate no_reflect no_shear #
lump $-1 $-1 $42 $6 #
transform $-1 1 0 0 0 1 0 0 0 1 43.658558915982546 27.418406413182886 10.384804059921493 1 rotate no_reflect no_shear #
lump $-1 $-1 $43 $7 #
transform $-1 1 0 0 0 1 0 0 0 1 43.658558915982546 27.418406413182886 10.384804059921493 1 rotate no_reflect no_shear #
lump $-1 $-1 $44 $8 #
transform $-1 1 0 0 0 1 0 0 0 1 43.658558915982546 27.418406413182886 10.384804059921493 1 rotate no_reflect no_shear #
lump $-1 $-1 $45 $9 #
transform $-1 1 0 0 0 1 0 0 0 1 43.658558915982546 27.418406413182886 10.384804059921493 1 rotate no_reflect no_shear #
lump $-1 $-1 $46 $10 #
transform $-1 1 0 0 0 1 0 0 0 1 43.658558915982546 27.418406413182886 10.384804059921493 1 rotate no_reflect no_shear #
lump $-1 $-1 $47 $11 #
transform $-1 1 0 0 0 1 0 0 0 1 43.658558915982546 27.418406413182886 10.384804059921493 1 rotate no_reflect no_shear #
shell $-1 $-1 $-1 $48 $-1 $12 #
shell $-1 $-1 $-1 $49 $-1 $14 #
shell $-1 $-1 $-1 $50 $-1 $16 #
shell $-1 $-1 $-1 $51 $-1 $18 #
shell $-1 $-1 $-1 $52 $-1 $20 #
shell $-1 $-1 $-1 $53 $-1 $22 #
shell $-1 $-1 $-1 $54 $-1 $24 #
shell $-1 $-1 $-1 $55 $-1 $26 #
shell $-1 $-1 $-1 $56 $-1 $28 #
shell $-1 $-1 $-1 $57 $-1 $30 #
shell $-1 $-1 $-1 $58 $-1 $32 #
shell $-1 $-1 $-1 $59 $-1 $34 #
face $-1 $60 $61 $36 $-1 $62 forward single #
face $-1 $63 $64 $37 $-1 $65 reversed single #
face $-1 $66 $67 $38 $-1 $68 forward single #
face $-1 $69 $70 $39 $-1 $71 forward single #
face $-1 $72 $73 $40 $-1 $74 forward single #
face $-1 $75 $76 $41 $-1 $77 reversed single #
face $-1 $78 $79 $42 $-1 $80 forward single #
face $-1 $81 $82 $43 $-1 $83 forward single #
face $-1 $84 $85 $44 $-1 $86 forward single #
face $-1 $87 $88 $45 $-1 $89 reversed single #
face $-1 $90 $91 $46 $-1 $92 forward single #
face $-1 $93 $94 $47 $-1 $95 forward single #
face $-1 $96 $97 $36 $-1 $98 reversed single #
loop $-1 $-1 $99 $48 #
plane-surface $-1 0 0 10.384804059921493 0 0 1 1 0 0 forward_v I I I I #
face $-1 $100 $101 $37 $-1 $102 reversed single #
loop $-1 $-1 $103 $49 #
plane-surface $-1 -22.30400877633091 -84.703590648904736 70.305561793991572 -1 0 0 0 -0.6560590369687036 0.75470957328743171 forward_v I I I I #
face $-1 $104 $105 $38 $-1 $106 forward single #
loop $-1 $107 $108 $50 #
cone-surface $-1 -32.080051089583478 -23.632347950495404 6.9959771701726154 0 0.6560590369687036 -0.75470957328743171 1 0 0 1 I I 0 1 1 forward I I I I #
face $-1 $109 $110 $39 $-1 $111 forward single #
loop $-1 $112 $113 $51 #
cone-surface $-1 -28.414035222113768 -23.632347950495404 6.9959771701726154 0 0.6560590369687036 -0.75470957328743171 1 0 0 1 I I 0 1 1 forward I I I I #
face $-1 $114 $115 $40 $-1 $116 forward single #
loop $-1 $117 $118 $52 #
cone-surface $-1 -24.74801935464405 -23.632347950495404 6.9959771701726154 0 0.6560590369687036 -0.75470957328743171 1 0 0 1 I I 0 1 1 forward I I I I #
face $-1 $119 $120 $41 $-1 $121 reversed single #
loop $-1 $-1 $122 $53 #
plane-surface $-1 21.354550139651636 -84.703590648904736 70.305561793991572 -1 0 0 0 -0.6560590369687036 0.75470957328743171 forward_v I I I I #
face $-1 $123 $124 $42 $-1 $125 forward single #
loop $-1 $126 $127 $54 #
cone-surface $-1 11.578507826399068 -23.632347950495404 6.9959771701726154 0 0.6560590369687036 -0.75470957328743171 1 0 0 1 I I 0 1 1 forward I I I I #
face $-1 $128 $129 $43 $-1 $130 forward single #
loop $-1 $131 $132 $55 #
cone-surface $-1 15.244523693868778 -23.632347950495404 6.9959771701726154 0 0.6560590369687036 -0.75470957328743171 1 0 0 1 I I 0 1 1 forward I I I I #
face $-1 $133 $134 $44 $-1 $135 forward single #
loop $-1 $136 $137 $56 #
cone-surface $-1 18.910539561338496 -23.632347950495404 6.9959771701726154 0 0.6560590369687036 -0.75470957328743171 1 0 0 1 I I 0 1 1 forward I I I I #
face $-1 $138 $139 $45 $-1 $140 reversed single #
loop $-1 $-1 $141 $57 #
plane-surface $-1 -1.951231058290567 39.752642554724609 105.86653823741058 1 0 0 0 -0.62932039886446345 -0.77714595512881146 forward_v I I I I #
face $-1 $142 $143 $46 $-1 $144 forward single #
loop $-1 $145 $146 $58 #
cone-surface $-1 1.7953851377892605 22.581877721872775 6.2197516583925507 0 -0.62932039886446345 -0.77714595512881146 1 0 0 1 I I 0 1 1 forward I I I I #
face $-1 $147 $148 $47 $-1 $149 forward single #
loop $-1 $150 $151 $59 #
cone-surface $-1 7.4153094319090016 22.581877721872775 6.2197516583925507 0 -0.62932039886446345 -0.77714595512881146 1 0 0 1 I I 0 1 1 forward I I I I #
face $-1 $152 $153 $36 $-1 $154 reversed single #
loop $-1 $-1 $155 $60 #
plane-surface $-1 0 0 -10.384804059921493 0 0 1 1 0 0 forward_v I I I I #
coedge $-1 $156 $157 $158 $159 forward $61 $-1 #
face $-1 $160 $161 $37 $-1 $162 reversed single #
loop $-1 $-1 $163 $63 #
plane-surface $-1 -28.414035222113768 -27.4184064131829 4.4064970543408037 0 -0.6560590369687036 0.75470957328743171 1 0 0 forward_v I I I I #
coedge $-1 $164 $165 $166 $167 reversed $64 $-1 #
face $-1 $-1 $168 $38 $-1 $169 forward single #
loop $-1 $170 $171 $66 #
cone-surface $-1 -32.080051089583478 -22.956887649852192 6.2189489965703686 0 0.6560590369687036 -0.75470957328743171 0.5 0 0 1 I I -0.70710678118654746 0.70710678118654746 0.5 forward I I I I #
loop $-1 $-1 $172 $50 #
coedge $-1 $108 $108 $173 $174 reversed $67 $-1 #
face $-1 $-1 $175 $39 $-1 $176 forward single #
loop $-1 $177 $178 $69 #
cone-surface $-1 -28.414035222113768 -22.956887649852192 6.2189489965703686 0 0.6560590369687036 -0.75470957328743171 0.5 0 0 1 I I -0.70710678118654746 0.70710678118654746 0.5 forward I I I I #
loop $-1 $-1 $179 $51 #
coedge $-1 $113 $113 $180 $181 reversed $70 $-1 #
face $-1 $-1 $182 $40 $-1 $183 forward single #
loop $-1 $184 $185 $72 #
cone-surface $-1 -24.74801935464405 -22.956887649852192 6.2189489965703686 0 0.6560590369687036 -0.75470957328743171 0.5 0 0 1 I I -0.70710678118654746 0.70710678118654746 0.5 forward I I I I #
loop $-1 $-1 $186 $52 #
coedge $-1 $118 $118 $187 $188 reversed $73 $-1 #
face $-1 $189 $190 $41 $-1 $191 reversed single #
loop $-1 $-1 $192 $75 #
plane-surface $-1 15.244523693868778 -27.4184064131829 4.4064970543408037 0 -0.6560590369687036 0.75470957328743171 1 0 0 forward_v I I I I #
coedge $-1 $193 $194 $195 $196 reversed $76 $-1 #
face $-1 $-1 $197 $42 $-1 $198 forward single #
loop $-1 $199 $200 $78 #
cone-surface $-1 11.578507826399068 -22.956887649852192 6.2189489965703686 0 0.6560590369687036 -0.75470957328743171 0.5 0 0 1 I I -0.70710678118654746 0.70710678118654746 0.5 forward I I I I #
loop $-1 $-1 $201 $54 #
coedge $-1 $127 $127 $202 $203 reversed $79 $-1 #
face $-1 $-1 $204 $43 $-1 $205 forward single #
loop $-1 $206 $207 $81 #
cone-surface $-1 15.244523693868778 -22.956887649852192 6.2189489965703686 0 0.6560590369687036 -0.75470957328743171 0.5 0 0 1 I I -0.70710678118654746 0.70710678118654746 0.5 forward I I I I #
loop $-1 $-1 $208 $55 #
coedge $-1 $132 $132 $209 $210 reversed $82 $-1 #
face $-1 $-1 $211 $44 $-1 $212 forward single #
loop $-1 $213 $214 $84 #
cone-surface $-1 18.910539561338496 -22.956887649852192 6.2189489965703686 0 0.6560590369687036 -0.75470957328743171 0.5 0 0 1 I I -0.70710678118654746 0.70710678118654746 0.5 forward I I I I #
loop $-1 $-1 $215 $56 #
coedge $-1 $137 $137 $216 $217 reversed $85 $-1 #
face $-1 $218 $219 $45 $-1 $220 reversed single #
loop $-1 $-1 $221 $87 #
plane-surface $-1 4.605347284849131 -15.197800866983016 38.008393300793088 0 0.62932039886446345 0.77714595512881146 1 0 0 forward_v I I I I #
coedge $-1 $222 $223 $224 $225 reversed $88 $-1 #
face $-1 $-1 $226 $46 $-1 $227 forward single #
loop $-1 $228 $229 $90 #
cone-surface $-1 1.7953851377892605 21.682646918471988 5.1092941190356207 0 -0.62932039886446345 -0.77714595512881146 0.5 0 0 1 I I -0.70710678118654746 0.70710678118654746 0.5 forward I I I I #
loop $-1 $-1 $230 $58 #
coedge $-1 $146 $146 $231 $232 reversed $91 $-1 #
face $-1 $-1 $233 $47 $-1 $234 forward single #
loop $-1 $235 $236 $93 #
cone-surface $-1 7.4153094319090016 21.682646918471988 5.1092941190356207 0 -0.62932039886446345 -0.77714595512881146 0.5 0 0 1 I I -0.70710678118654746 0.70710678118654746 0.5 forward I I I I #
loop $-1 $-1 $237 $59 #
coedge $-1 $151 $151 $238 $239 reversed $94 $-1 #
face $-1 $240 $241 $36 $-1 $242 reversed single #
loop $-1 $-1 $243 $96 #
plane-surface $-1 0 -27.418406413182886 0 0 1 0 0 0 1 forward_v I I I I #
coedge $-1 $244 $245 $246 $247 forward $97 $-1 #
coedge $-1 $248 $99 $249 $250 forward $61 $-1 #
coedge $-1 $99 $248 $251 $252 forward $61 $-1 #
coedge $-1 $253 $254 $99 $159 reversed $255 $-1 #
edge $-1 $256 -27.418406413182886 $257 27.418406413182886 $158 $258 forward 7 unknown #
face $-1 $259 $260 $37 $-1 $261 reversed single #
loop $-1 $-1 $262 $100 #
plane-surface $-1 -34.524061667896625 -84.703590648904736 70.305561793991572 1 0 0 0 0.6560590369687036 -0.75470957328743171 forward_v I I I I #
coedge $-1 $263 $264 $265 $266 reversed $101 $-1 #
coedge $-1 $165 $103 $267 $268 reversed $64 $-1 #
coedge $-1 $103 $164 $263 $269 reversed $64 $-1 #
coedge $-1 $265 $270 $103 $167 forward $271 $-1 #
edge $-1 $272 14.933388911269482 $273 21.810644272326705 $166 $274 forward 7 unknown #
loop $-1 $-1 $173 $104 #
plane-surface $-1 -28.414035222113768 -27.4184064131829 4.4064970543408037 0 -0.6560590369687036 0.75470957328743171 1 0 0 forward_v I I I I #
loop $-1 $-1 $275 $66 #
coedge $-1 $171 $171 $172 $276 reversed $105 $-1 #
coedge $-1 $172 $172 $171 $276 forward $107 $-1 #
coedge $-1 $173 $173 $108 $174 forward $168 $-1 #
edge $-1 $277 -4.6444073776859686e-016 $277 6.2831853071795996 $173 $278 forward 7 unknown #
loop $-1 $-1 $180 $109 #
plane-surface $-1 -28.414035222113768 -27.4184064131829 4.4064970543408037 0 -0.6560590369687036 0.75470957328743171 1 0 0 forward_v I I I I #
loop $-1 $-1 $279 $69 #
coedge $-1 $178 $178 $179 $280 reversed $110 $-1 #
coedge $-1 $179 $179 $178 $280 forward $112 $-1 #
coedge $-1 $180 $180 $113 $181 forward $175 $-1 #
edge $-1 $281 -4.6444073776859686e-016 $281 6.2831853071795996 $180 $282 forward 7 unknown #
loop $-1 $-1 $187 $114 #
plane-surface $-1 -28.414035222113768 -27.4184064131829 4.4064970543408037 0 -0.6560590369687036 0.75470957328743171 1 0 0 forward_v I I I I #
loop $-1 $-1 $283 $72 #
coedge $-1 $185 $185 $186 $284 reversed $115 $-1 #
coedge $-1 $186 $186 $185 $284 forward $117 $-1 #
coedge $-1 $187 $187 $118 $188 forward $182 $-1 #
edge $-1 $285 -4.6444073776859686e-016 $285 6.2831853071795996 $187 $286 forward 7 unknown #
face $-1 $287 $288 $41 $-1 $289 reversed single #
loop $-1 $-1 $290 $119 #
plane-surface $-1 9.1344972480859195 -84.703590648904736 70.305561793991572 1 0 0 0 0.6560590369687036 -0.75470957328743171 forward_v I I I I #
coedge $-1 $291 $292 $293 $294 reversed $120 $-1 #
coedge $-1 $194 $122 $295 $296 reversed $76 $-1 #
coedge $-1 $122 $193 $291 $297 reversed $76 $-1 #
coedge $-1 $293 $298 $122 $196 forward $299 $-1 #
edge $-1 $300 14.933388911269482 $301 21.810644272326705 $195 $302 forward 7 unknown #
loop $-1 $-1 $202 $123 #
plane-surface $-1 15.244523693868778 -27.4184064131829 4.4064970543408037 0 -0.6560590369687036 0.75470957328743171 1 0 0 forward_v I I I I #
loop $-1 $-1 $303 $78 #
coedge $-1 $200 $200 $201 $304 reversed $124 $-1 #
coedge $-1 $201 $201 $200 $304 forward $126 $-1 #
coedge $-1 $202 $202 $127 $203 forward $197 $-1 #
edge $-1 $305 -4.6444073776859686e-016 $305 6.2831853071795996 $202 $306 forward 7 unknown #
loop $-1 $-1 $209 $128 #
plane-surface $-1 15.244523693868778 -27.4184064131829 4.4064970543408037 0 -0.6560590369687036 0.75470957328743171 1 0 0 forward_v I I I I #
loop $-1 $-1 $307 $81 #
coedge $-1 $207 $207 $208 $308 reversed $129 $-1 #
coedge $-1 $208 $208 $207 $308 forward $131 $-1 #
coedge $-1 $209 $209 $132 $210 forward $204 $-1 #
edge $-1 $309 -4.6444073776859686e-016 $309 6.2831853071795996 $209 $310 forward 7 unknown #
loop $-1 $-1 $216 $133 #
plane-surface $-1 15.244523693868778 -27.4184064131829 4.4064970543408037 0 -0.6560590369687036 0.75470957328743171 1 0 0 forward_v I I I I #
loop $-1 $-1 $311 $84 #
coedge $-1 $214 $214 $215 $312 reversed $134 $-1 #
coedge $-1 $215 $215 $214 $312 forward $136 $-1 #
coedge $-1 $216 $216 $137 $217 forward $211 $-1 #
edge $-1 $313 -4.6444073776859686e-016 $313 6.2831853071795996 $216 $314 forward 7 unknown #
face $-1 $315 $316 $45 $-1 $317 reversed single #
loop $-1 $-1 $318 $138 #
plane-surface $-1 11.161925627988829 39.752642554724609 105.86653823741058 -1 0 0 0 0.62932039886446345 0.77714595512881146 forward_v I I I I #
coedge $-1 $319 $320 $321 $322 reversed $139 $-1 #
coedge $-1 $223 $141 $323 $324 reversed $88 $-1 #
coedge $-1 $141 $222 $319 $325 reversed $88 $-1 #
coedge $-1 $321 $326 $141 $225 forward $327 $-1 #
edge $-1 $328 -7.5420851358205816 $329 0.96183103886253107 $224 $330 forward 7 unknown #
loop $-1 $-1 $231 $142 #
plane-surface $-1 4.605347284849131 -15.197800866983016 38.008393300793088 0 0.62932039886446345 0.77714595512881146 1 0 0 forward_v I I I I #
loop $-1 $-1 $331 $90 #
coedge $-1 $229 $229 $230 $332 reversed $143 $-1 #
coedge $-1 $230 $230 $229 $332 forward $145 $-1 #
coedge $-1 $231 $231 $146 $232 forward $226 $-1 #
edge $-1 $333 2.2020282678621171e-015 $333 6.2831853071796022 $231 $334 forward 7 unknown #
loop $-1 $-1 $238 $147 #
plane-surface $-1 4.605347284849131 -15.197800866983016 38.008393300793088 0 0.62932039886446345 0.77714595512881146 1 0 0 forward_v I I I I #
loop $-1 $-1 $335 $93 #
coedge $-1 $236 $236 $237 $336 reversed $148 $-1 #
coedge $-1 $237 $237 $236 $336 forward $150 $-1 #
coedge $-1 $238 $238 $151 $239 forward $233 $-1 #
edge $-1 $337 2.2020282678621171e-015 $337 6.2831853071796022 $238 $338 forward 7 unknown #
face $-1 $339 $340 $36 $-1 $341 reversed single #
loop $-1 $-1 $342 $152 #
plane-surface $-1 -43.658558915982546 0 0 1 0 0 0 0 -1 forward_v I I I I #
coedge $-1 $343 $251 $344 $345 forward $153 $-1 #
coedge $-1 $346 $155 $343 $347 forward $97 $-1 #
coedge $-1 $155 $346 $348 $349 forward $97 $-1 #
coedge $-1 $254 $253 $155 $247 reversed $255 $-1 #
edge $-1 $350 -27.418406413182886 $351 27.418406413182886 $246 $352 forward 7 unknown #
coedge $-1 $157 $156 $353 $354 forward $61 $-1 #
coedge $-1 $355 $356 $156 $250 reversed $340 $-1 #
edge $-1 $257 -43.658558915982546 $357 43.658558915982546 $249 $358 forward 7 unknown #
coedge $-1 $243 $359 $157 $252 reversed $153 $-1 #
edge $-1 $360 -43.658558915982546 $256 43.658558915982546 $251 $361 forward 7 unknown #
coedge $-1 $246 $158 $359 $362 forward $255 $-1 #
coedge $-1 $158 $246 $355 $363 reversed $255 $-1 #
loop $-1 $-1 $253 $339 #
vertex $-1 $159 $364 #
vertex $-1 $159 $365 #
straight-curve $-1 43.658558915982546 0 10.384804059921493 0 1 0 I I #
face $-1 $-1 $271 $37 $-1 $366 forward single #
loop $-1 $-1 $367 $160 #
plane-surface $-1 0 -27.418406413182886 0 0 1 0 0 0 1 forward_v I I I I #
coedge $-1 $368 $369 $370 $371 reversed $161 $-1 #
coedge $-1 $372 $163 $165 $269 forward $101 $-1 #
coedge $-1 $163 $372 $368 $373 forward $101 $-1 #
coedge $-1 $370 $166 $163 $266 forward $271 $-1 #
edge $-1 $273 8.0969911652740265 $374 20.317044056839741 $265 $375 forward 7 unknown #
coedge $-1 $376 $377 $164 $268 forward $260 $-1 #
edge $-1 $378 -30.746283842654968 $272 -24.767976837074293 $267 $379 forward 7 unknown #
edge $-1 $273 -9.1124527957167309 $378 -1.888283279974768e-014 $165 $380 forward 7 unknown #
coedge $-1 $166 $370 $376 $381 forward $271 $-1 #
loop $-1 $-1 $370 $259 #
vertex $-1 $268 $382 #
vertex $-1 $167 $383 #
straight-curve $-1 -22.30400877633091 -42.351795324452368 10.384804059921493 0 1 0 I I #
coedge $-1 $275 $275 $-1 $384 reversed $170 $-1 #
edge $-1 $385 0 $385 6.2831853071796004 $171 $386 forward 7 unknown #
vertex $-1 $174 $387 #
ellipse-curve $-1 -32.080051089583478 -23.979778732654275 7.3956505571311544 0 -0.6560590369687036 0.75470957328743171 1 0 0 1 I I #
coedge $-1 $279 $279 $-1 $388 reversed $177 $-1 #
edge $-1 $389 0 $389 6.2831853071796004 $178 $390 forward 7 unknown #
vertex $-1 $181 $391 #
ellipse-curve $-1 -28.414035222113768 -23.979778732654275 7.3956505571311544 0 -0.6560590369687036 0.75470957328743171 1 0 0 1 I I #
coedge $-1 $283 $283 $-1 $392 reversed $184 $-1 #
edge $-1 $393 0 $393 6.2831853071796004 $185 $394 forward 7 unknown #
vertex $-1 $188 $395 #
ellipse-curve $-1 -24.74801935464405 -23.979778732654275 7.3956505571311544 0 -0.6560590369687036 0.75470957328743171 1 0 0 1 I I #
face $-1 $-1 $299 $41 $-1 $396 forward single #
loop $-1 $-1 $397 $189 #
plane-surface $-1 0 -27.418406413182886 0 0 1 0 0 0 1 forward_v I I I I #
coedge $-1 $398 $399 $400 $401 reversed $190 $-1 #
coedge $-1 $402 $192 $194 $297 forward $120 $-1 #
coedge $-1 $192 $402 $398 $403 forward $120 $-1 #
coedge $-1 $400 $195 $192 $294 forward $299 $-1 #
edge $-1 $301 -13.732288292717246 $404 -1.5122354011515302 $293 $405 forward 7 unknown #
coedge $-1 $406 $407 $193 $296 forward $288 $-1 #
edge $-1 $408 -30.746283842654968 $300 -24.767976837074293 $295 $409 forward 7 unknown #
edge $-1 $301 -9.1124527957167309 $408 -1.888283279974768e-014 $194 $410 forward 7 unknown #
coedge $-1 $195 $400 $406 $411 forward $299 $-1 #
loop $-1 $-1 $400 $287 #
vertex $-1 $296 $412 #
vertex $-1 $196 $413 #
straight-curve $-1 21.354550139651636 -42.351795324452368 10.384804059921493 0 1 0 I I #
coedge $-1 $303 $303 $-1 $414 reversed $199 $-1 #
edge $-1 $415 0 $415 6.2831853071796004 $200 $416 forward 7 unknown #
vertex $-1 $203 $417 #
ellipse-curve $-1 11.578507826399068 -23.979778732654275 7.3956505571311544 0 -0.6560590369687036 0.75470957328743171 1 0 0 1 I I #
coedge $-1 $307 $307 $-1 $418 reversed $206 $-1 #
edge $-1 $419 0 $419 6.2831853071796004 $207 $420 forward 7 unknown #
vertex $-1 $210 $421 #
ellipse-curve $-1 15.244523693868778 -23.979778732654275 7.3956505571311544 0 -0.6560590369687036 0.75470957328743171 1 0 0 1 I I #
coedge $-1 $311 $311 $-1 $422 reversed $213 $-1 #
edge $-1 $423 0 $423 6.2831853071796004 $214 $424 forward 7 unknown #
vertex $-1 $217 $425 #
ellipse-curve $-1 18.910539561338496 -23.979778732654275 7.3956505571311544 0 -0.6560590369687036 0.75470957328743171 1 0 0 1 I I #
face $-1 $-1 $327 $45 $-1 $426 forward single #
loop $-1 $-1 $427 $218 #
plane-surface $-1 0 27.418406413182886 0 0 -1 0 0 0 -1 forward_v I I I I #
coedge $-1 $428 $429 $430 $431 reversed $219 $-1 #
coedge $-1 $432 $221 $223 $325 forward $139 $-1 #
coedge $-1 $221 $432 $428 $433 forward $139 $-1 #
coedge $-1 $430 $224 $221 $322 forward $327 $-1 #
edge $-1 $329 -4.2539047007151325 $434 8.8592519855642635 $321 $435 forward 7 unknown #
coedge $-1 $436 $437 $222 $324 forward $316 $-1 #
edge $-1 $438 -49.434800738256648 $328 -42.548465058783798 $323 $439 forward 7 unknown #
edge $-1 $329 43.894317251935895 $438 54.836812826365794 $223 $440 forward 7 unknown #
coedge $-1 $224 $430 $436 $441 forward $327 $-1 #
loop $-1 $-1 $430 $315 #
vertex $-1 $324 $442 #
vertex $-1 $225 $443 #
straight-curve $-1 -1.951231058290567 19.876321277362305 10.384804059921493 0 -1 0 I I #
coedge $-1 $331 $331 $-1 $444 reversed $228 $-1 #
edge $-1 $445 0 $445 6.2831853071796004 $229 $446 forward 7 unknown #
vertex $-1 $232 $447 #
ellipse-curve $-1 1.7953851377892605 23.16644832584133 6.9416362201850736 0 0.62932039886446345 0.77714595512881146 1 0 0 1 I I #
coedge $-1 $335 $335 $-1 $448 reversed $235 $-1 #
edge $-1 $449 0 $449 6.2831853071796004 $236 $450 forward 7 unknown #
vertex $-1 $239 $451 #
ellipse-curve $-1 7.4153094319090016 23.16644832584133 6.9416362201850736 0 0.62932039886446345 0.77714595512881146 1 0 0 1 I I #
face $-1 $-1 $255 $36 $-1 $452 reversed single #
loop $-1 $-1 $355 $240 #
plane-surface $-1 0 27.418406413182886 0 0 -1 0 0 0 -1 forward_v I I I I #
coedge $-1 $453 $353 $356 $454 forward $241 $-1 #
coedge $-1 $359 $243 $244 $347 reversed $153 $-1 #
coedge $-1 $353 $453 $243 $345 reversed $241 $-1 #
edge $-1 $360 -10.384804059921493 $455 10.384804059921493 $344 $456 forward 7 unknown #
coedge $-1 $245 $244 $453 $457 forward $97 $-1 #
edge $-1 $351 -43.658558915982546 $455 43.658558915982546 $343 $458 forward 7 unknown #
coedge $-1 $356 $355 $245 $349 reversed $340 $-1 #
edge $-1 $459 -43.658558915982546 $350 43.658558915982546 $348 $460 forward 7 unknown #
vertex $-1 $247 $461 #
vertex $-1 $362 $462 #
straight-curve $-1 43.658558915982546 0 -10.384804059921493 0 -1 0 I I #
coedge $-1 $342 $344 $248 $354 reversed $241 $-1 #
edge $-1 $357 -27.418406413182886 $360 27.418406413182886 $353 $463 forward 7 unknown #
coedge $-1 $348 $249 $254 $363 forward $340 $-1 #
coedge $-1 $249 $348 $342 $454 reversed $340 $-1 #
vertex $-1 $250 $464 #
straight-curve $-1 0 27.418406413182886 10.384804059921493 -1 0 0 I I #
coedge $-1 $251 $343 $253 $362 reversed $153 $-1 #
vertex $-1 $354 $465 #
straight-curve $-1 0 -27.418406413182886 10.384804059921493 1 0 0 I I #
edge $-1 $256 -10.384804059921493 $351 10.384804059921493 $253 $466 forward 7 unknown #
edge $-1 $257 -10.384804059921493 $350 10.384804059921493 $254 $467 forward 7 unknown #
point $-1 43.658558915982546 -27.418406413182886 10.384804059921493 #
point $-1 43.658558915982546 27.418406413182886 10.384804059921493 #
plane-surface $-1 0 0 10.384804059921493 0 0 1 1 0 0 forward_v I I I I #
coedge $-1 $377 $376 $369 $468 forward $260 $-1 #
coedge $-1 $369 $262 $264 $373 reversed $161 $-1 #
coedge $-1 $262 $368 $367 $468 reversed $161 $-1 #
coedge $-1 $270 $265 $262 $371 forward $271 $-1 #
edge $-1 $374 -21.810644272326705 $469 -14.933388911269482 $370 $470 forward 7 unknown #
coedge $-1 $264 $263 $377 $471 reversed $101 $-1 #
edge $-1 $472 1.888283279974768e-014 $374 9.1124527957167309 $368 $473 forward 7 unknown #
vertex $-1 $266 $474 #
straight-curve $-1 -14.207017611056884 -20.541151052125663 10.384804059921493 -1 0 0 I I #
coedge $-1 $367 $267 $270 $381 reversed $260 $-1 #
coedge $-1 $267 $367 $372 $471 forward $260 $-1 #
vertex $-1 $268 $475 #
straight-curve $-1 -22.30400877633091 -27.418406413182886 35.152780896995786 0 0 1 I I #
straight-curve $-1 -22.30400877633091 -27.4184064131829 4.4064970543408037 0 -0.75470957328743171 -0.6560590369687036 I I #
edge $-1 $469 -34.524061667896625 $272 -22.30400877633091 $376 $476 forward 7 unknown #
point $-1 -22.30400877633091 -27.418406413182886 10.384804059921493 #
point $-1 -22.30400877633091 -20.541151052125663 10.384804059921493 #
edge $-1 $477 1 $477 0 $275 $-1 forward 7 unknown #
vertex $-1 $276 $478 #
ellipse-curve $-1 -32.080051089583478 -23.284917168336545 6.5963037832140845 0 -0.6560590369687036 0.75470957328743171 1 0 0 1 I I #
point $-1 -31.080051089583478 -23.979778732654268 7.3956505571311455 #
edge $-1 $479 1 $479 0 $279 $-1 forward 7 unknown #
vertex $-1 $280 $480 #
ellipse-curve $-1 -28.414035222113768 -23.284917168336545 6.5963037832140845 0 -0.6560590369687036 0.75470957328743171 1 0 0 1 I I #
point $-1 -27.414035222113768 -23.979778732654268 7.3956505571311455 #
edge $-1 $481 1 $481 0 $283 $-1 forward 7 unknown #
vertex $-1 $284 $482 #
ellipse-curve $-1 -24.74801935464405 -23.284917168336545 6.5963037832140845 0 -0.6560590369687036 0.75470957328743171 1 0 0 1 I I #
point $-1 -23.74801935464405 -23.979778732654268 7.3956505571311455 #
plane-surface $-1 0 0 10.384804059921493 0 0 1 1 0 0 forward_v I I I I #
coedge $-1 $407 $406 $399 $483 forward $288 $-1 #
coedge $-1 $399 $290 $292 $403 reversed $190 $-1 #
coedge $-1 $290 $398 $397 $483 reversed $190 $-1 #
coedge $-1 $298 $293 $290 $401 forward $299 $-1 #
edge $-1 $404 -21.810644272326705 $484 -14.933388911269482 $400 $485 forward 7 unknown #
coedge $-1 $292 $291 $407 $486 reversed $120 $-1 #
edge $-1 $487 1.888283279974768e-014 $404 9.1124527957167309 $398 $488 forward 7 unknown #
vertex $-1 $294 $489 #
straight-curve $-1 7.6222618469343892 -20.541151052125663 10.384804059921493 -1 0 0 I I #
coedge $-1 $397 $295 $298 $411 reversed $288 $-1 #
coedge $-1 $295 $397 $402 $486 forward $288 $-1 #
vertex $-1 $296 $490 #
straight-curve $-1 21.354550139651636 -27.418406413182886 35.152780896995786 0 0 1 I I #
straight-curve $-1 21.354550139651636 -27.4184064131829 4.4064970543408037 0 -0.75470957328743171 -0.6560590369687036 I I #
edge $-1 $484 9.1344972480859195 $300 21.354550139651636 $406 $491 forward 7 unknown #
point $-1 21.354550139651636 -27.418406413182886 10.384804059921493 #
point $-1 21.354550139651636 -20.541151052125663 10.384804059921493 #
edge $-1 $492 1 $492 0 $303 $-1 forward 7 unknown #
vertex $-1 $304 $493 #
ellipse-curve $-1 11.578507826399068 -23.284917168336545 6.5963037832140845 0 -0.6560590369687036 0.75470957328743171 1 0 0 1 I I #
point $-1 12.578507826399068 -23.979778732654268 7.3956505571311455 #
edge $-1 $494 1 $494 0 $307 $-1 forward 7 unknown #
vertex $-1 $308 $495 #
ellipse-curve $-1 15.244523693868778 -23.284917168336545 6.5963037832140845 0 -0.6560590369687036 0.75470957328743171 1 0 0 1 I I #
point $-1 16.244523693868778 -23.979778732654268 7.3956505571311455 #
edge $-1 $496 1 $496 0 $311 $-1 forward 7 unknown #
vertex $-1 $312 $497 #
ellipse-curve $-1 18.910539561338496 -23.284917168336545 6.5963037832140845 0 -0.6560590369687036 0.75470957328743171 1 0 0 1 I I #
point $-1 19.910539561338496 -23.979778732654268 7.3956505571311455 #
plane-surface $-1 0 0 10.384804059921493 0 0 1 1 0 0 forward_v I I I I #
coedge $-1 $437 $436 $429 $498 forward $316 $-1 #
coedge $-1 $429 $318 $320 $433 reversed $219 $-1 #
coedge $-1 $318 $428 $427 $498 reversed $219 $-1 #
coedge $-1 $326 $321 $318 $431 forward $327 $-1 #
edge $-1 $434 -0.96183103886253107 $499 7.5420851358205816 $430 $500 forward 7 unknown #
coedge $-1 $320 $319 $437 $501 reversed $139 $-1 #
edge $-1 $502 -54.836812826365794 $434 -43.894317251935895 $428 $503 forward 7 unknown #
vertex $-1 $322 $504 #
straight-curve $-1 2.3026736424245655 18.91449023849977 10.384804059921489 1 0 0 I I #
coedge $-1 $427 $323 $326 $441 reversed $316 $-1 #
coedge $-1 $323 $427 $432 $501 forward $316 $-1 #
vertex $-1 $324 $505 #
straight-curve $-1 -1.951231058290567 27.418406413182886 52.93326911870529 0 0 1 I I #
straight-curve $-1 -1.951231058290567 -15.197800866983016 38.008393300793088 0 0.77714595512881146 -0.62932039886446345 I I #
edge $-1 $499 -11.161925627988829 $328 1.951231058290567 $436 $506 forward 7 unknown #
point $-1 -1.951231058290567 27.418406413182886 10.384804059921493 #
point $-1 -1.951231058290567 18.914490238499774 10.384804059921493 #
edge $-1 $507 1 $507 0 $331 $-1 forward 7 unknown #
vertex $-1 $332 $508 #
ellipse-curve $-1 1.7953851377892605 21.997307117904221 5.497867096600026 0 0.62932039886446345 0.77714595512881146 1 0 0 1 I I #
point $-1 2.7953851377892605 23.166448325841333 6.9416362201850745 #
edge $-1 $509 1 $509 0 $335 $-1 forward 7 unknown #
vertex $-1 $336 $510 #
ellipse-curve $-1 7.4153094319090016 21.997307117904221 5.497867096600026 0 0.62932039886446345 0.77714595512881146 1 0 0 1 I I #
point $-1 8.4153094319090016 23.166448325841333 6.9416362201850745 #
plane-surface $-1 43.658558915982546 0 0 -1 0 0 0 0 1 forward_v I I I I #
coedge $-1 $344 $342 $346 $457 reversed $241 $-1 #
edge $-1 $357 -10.384804059921493 $459 10.384804059921493 $356 $511 forward 7 unknown #
vertex $-1 $457 $512 #
straight-curve $-1 -43.658558915982546 -27.418406413182886 0 0 0 -1 I I #
edge $-1 $455 -27.418406413182886 $459 27.418406413182886 $453 $513 forward 7 unknown #
straight-curve $-1 0 -27.418406413182886 -10.384804059921493 -1 0 0 I I #
vertex $-1 $349 $514 #
straight-curve $-1 0 27.418406413182886 -10.384804059921493 1 0 0 I I #
point $-1 43.658558915982546 27.418406413182886 -10.384804059921493 #
point $-1 43.658558915982546 -27.418406413182886 -10.384804059921493 #
straight-curve $-1 -43.658558915982546 0 10.384804059921493 0 -1 0 I I #
point $-1 -43.658558915982546 27.418406413182886 10.384804059921493 #
point $-1 -43.658558915982546 -27.418406413182886 10.384804059921493 #
straight-curve $-1 43.658558915982546 -27.418406413182886 0 0 0 -1 I I #
straight-curve $-1 43.658558915982546 27.418406413182886 0 0 0 -1 I I #
edge $-1 $469 24.767976837074293 $472 30.746283842654968 $367 $515 forward 7 unknown #
vertex $-1 $381 $516 #
straight-curve $-1 -34.524061667896625 -42.351795324452368 10.384804059921493 0 -1 0 I I #
edge $-1 $472 -20.317044056839741 $378 -8.0969911652740265 $377 $517 forward 7 unknown #
vertex $-1 $471 $518 #
straight-curve $-1 -34.524061667896625 -27.4184064131829 4.4064970543408037 0 0.75470957328743171 0.6560590369687036 I I #
point $-1 -34.524061667896625 -20.541151052125663 10.384804059921493 #
point $-1 -22.30400877633091 -27.418406413182886 4.4064970543408162 #
straight-curve $-1 0 -27.418406413182886 10.384804059921493 1 0 0 I I #
vertex $-1 $384 $519 #
point $-1 -31.080051089583478 -23.284917168336545 6.5963037832140845 #
vertex $-1 $388 $520 #
point $-1 -27.414035222113768 -23.284917168336545 6.5963037832140845 #
vertex $-1 $392 $521 #
point $-1 -23.74801935464405 -23.284917168336545 6.5963037832140845 #
edge $-1 $484 24.767976837074293 $487 30.746283842654968 $397 $522 forward 7 unknown #
vertex $-1 $411 $523 #
straight-curve $-1 9.1344972480859195 -42.351795324452368 10.384804059921493 0 -1 0 I I #
edge $-1 $487 1.5122354011515302 $408 13.732288292717246 $407 $524 forward 7 unknown #
vertex $-1 $486 $525 #
straight-curve $-1 9.1344972480859195 -27.4184064131829 4.4064970543408037 0 0.75470957328743171 0.6560590369687036 I I #
point $-1 9.1344972480859195 -20.541151052125663 10.384804059921493 #
point $-1 21.354550139651636 -27.418406413182886 4.4064970543408162 #
straight-curve $-1 0 -27.418406413182886 10.384804059921493 1 0 0 I I #
vertex $-1 $414 $526 #
point $-1 12.578507826399068 -23.284917168336545 6.5963037832140845 #
vertex $-1 $418 $527 #
point $-1 16.244523693868778 -23.284917168336545 6.5963037832140845 #
vertex $-1 $422 $528 #
point $-1 19.910539561338496 -23.284917168336545 6.5963037832140845 #
edge $-1 $499 42.548465058783798 $502 49.434800738256648 $427 $529 forward 7 unknown #
vertex $-1 $441 $530 #
straight-curve $-1 11.161925627988829 19.876321277362305 10.384804059921493 0 1 0 I I #
edge $-1 $502 -8.8592519855642635 $438 4.2539047007151325 $437 $531 forward 7 unknown #
vertex $-1 $501 $532 #
straight-curve $-1 11.161925627988829 -15.197800866983016 38.008393300793088 0 -0.77714595512881146 0.62932039886446345 I I #
point $-1 11.161925627988829 18.914490238499774 10.384804059921493 #
point $-1 -1.951231058290567 27.418406413182886 3.4984683804486423 #
straight-curve $-1 0 27.418406413182886 10.384804059921493 -1 0 0 I I #
vertex $-1 $444 $533 #
point $-1 2.7953851377892605 21.997307117904221 5.497867096600026 #
vertex $-1 $448 $534 #
point $-1 8.4153094319090016 21.997307117904221 5.497867096600026 #
straight-curve $-1 -43.658558915982546 27.418406413182886 0 0 0 -1 I I #
point $-1 -43.658558915982546 -27.418406413182886 -10.384804059921493 #
straight-curve $-1 -43.658558915982546 0 -10.384804059921493 0 1 0 I I #
point $-1 -43.658558915982546 27.418406413182886 -10.384804059921493 #
straight-curve $-1 -34.524061667896625 -27.418406413182886 35.152780896995786 0 0 -1 I I #
point $-1 -34.524061667896625 -27.418406413182886 10.384804059921493 #
straight-curve $-1 -14.207017611056884 -27.418406413182886 4.4064970543408171 1 0 0 I I #
point $-1 -34.524061667896625 -27.418406413182886 4.4064970543408162 #
point $-1 -32.080051089583478 -22.628858131367839 5.8415942099266527 #
point $-1 -28.414035222113768 -22.628858131367839 5.8415942099266527 #
point $-1 -24.74801935464405 -22.628858131367839 5.8415942099266527 #
straight-curve $-1 9.1344972480859195 -27.418406413182886 35.152780896995786 0 0 -1 I I #
point $-1 9.1344972480859195 -27.418406413182886 10.384804059921493 #
straight-curve $-1 7.6222618469343892 -27.418406413182886 4.4064970543408171 1 0 0 I I #
point $-1 9.1344972480859195 -27.418406413182886 4.4064970543408162 #
point $-1 11.578507826399068 -22.628858131367839 5.8415942099266527 #
point $-1 15.244523693868778 -22.628858131367839 5.8415942099266527 #
point $-1 18.910539561338496 -22.628858131367839 5.8415942099266527 #
straight-curve $-1 11.161925627988829 27.418406413182886 52.93326911870529 0 0 -1 I I #
point $-1 11.161925627988829 27.418406413182886 10.384804059921493 #
straight-curve $-1 2.3026736424245655 27.418406413182886 3.4984683804486423 -1 0 0 I I #
point $-1 11.161925627988829 27.418406413182886 3.4984683804486423 #
point $-1 1.7953851377892605 21.367986719039756 4.7207211414712154 #
point $-1 7.4153094319090016 21.367986719039756 4.7207211414712154 #
End-of-ACIS-data 