500 0 5 0           
7 Unknown 11 ACIS 5.0 NT 24 Thu Mar 25 23:47:28 1999 
-1 9.9999999999999995e-007 1e-010 
body $-1 $5 $-1 $6 #
body $-1 $7 $-1 $8 #
body $-1 $9 $-1 $10 #
body $-1 $11 $-1 $12 #
body $-1 $13 $-1 $14 #
lump $-1 $-1 $15 $0 #
transform $-1 1 0 0 0 1 0 0 0 1 42.628254036072882 18.238549291461538 4 1 rotate no_reflect no_shear #
lump $-1 $-1 $16 $1 #
transform $-1 1 0 0 0 1 0 0 0 1 42.628254036072882 18.238549291461538 4 1 rotate no_reflect no_shear #
lump $-1 $-1 $17 $2 #
transform $-1 1 0 0 0 1 0 0 0 1 42.628254036072882 18.238549291461538 4 1 rotate no_reflect no_shear #
lump $-1 $-1 $18 $3 #
transform $-1 1 0 0 0 1 0 0 0 1 42.628254036072882 18.238549291461538 4 1 rotate no_reflect no_shear #
lump $-1 $-1 $19 $4 #
transform $-1 1 0 0 0 1 0 0 0 1 42.628254036072882 18.238549291461538 4 1 rotate no_reflect no_shear #
shell $-1 $-1 $-1 $20 $-1 $5 #
shell $-1 $-1 $-1 $21 $-1 $7 #
shell $-1 $-1 $-1 $22 $-1 $9 #
shell $-1 $-1 $-1 $23 $-1 $11 #
shell $-1 $-1 $-1 $24 $-1 $13 #
face $-1 $25 $26 $15 $-1 $27 forward single #
face $-1 $28 $29 $16 $-1 $30 reversed single #
face $-1 $31 $32 $17 $-1 $33 forward single #
face $-1 $34 $35 $18 $-1 $36 reversed single #
face $-1 $37 $38 $19 $-1 $39 forward single #
face $-1 $40 $41 $15 $-1 $42 reversed single #
loop $-1 $-1 $43 $20 #
plane-surface $-1 0 0 4 0 0 1 1 0 0 forward_v I I I I #
face $-1 $44 $45 $16 $-1 $46 reversed single #
loop $-1 $-1 $47 $21 #
plane-surface $-1 -37.628254036072882 -16.738549291461538 0 1 0 0 0 0 -1 forward_v I I I I #
face $-1 $48 $49 $17 $-1 $50 reversed single #
loop $-1 $-1 $51 $22 #
plane-surface $-1 0 18.238549291461538 0 0 -1 0 0 0 -1 forward_v I I I I #
face $-1 $52 $53 $18 $-1 $54 reversed single #
loop $-1 $-1 $55 $23 #
plane-surface $-1 48.93844939595315 -8.9464127097331563 121.24236713213922 0 -1 0 -0.74314483375859142 0 -0.66913059716165679 forward_v I I I I #
face $-1 $56 $57 $19 $-1 $58 forward single #
loop $-1 $59 $60 $24 #
cone-surface $-1 40.832555552163448 -12.092481000597347 2.0837824293161393 -0.74314483375859142 0 -0.66913059716165679 0.3345652985808284 0 -0.37157241687929571 1 I I 0 1 0.5 forward I I I I #
face $-1 $61 $62 $15 $-1 $63 reversed single #
loop $-1 $-1 $64 $25 #
plane-surface $-1 0 0 -4 0 0 1 1 0 0 forward_v I I I I #
coedge $-1 $65 $66 $67 $68 forward $26 $-1 #
face $-1 $69 $70 $16 $-1 $71 reversed single #
loop $-1 $-1 $72 $28 #
plane-surface $-1 -36.128254036072882 -15.238549291461538 0 0 -1 0 0 0 -1 forward_v I I I I #
coedge $-1 $73 $74 $75 $76 forward $29 $-1 #
face $-1 $77 $78 $17 $-1 $79 reversed single #
loop $-1 $-1 $80 $31 #
plane-surface $-1 0 0 -4 0 0 1 1 0 0 forward_v I I I I #
coedge $-1 $81 $82 $83 $84 forward $32 $-1 #
face $-1 $85 $86 $18 $-1 $87 reversed single #
loop $-1 $-1 $88 $34 #
plane-surface $-1 -14.419484122159623 -12.092481000597347 64.194628973906717 0.74314483375859142 0 0.66913059716165679 0.66913059716165679 0 -0.74314483375859142 forward_v I I I I #
coedge $-1 $89 $90 $91 $92 reversed $35 $-1 #
face $-1 $-1 $93 $19 $-1 $94 forward single #
loop $-1 $95 $96 $37 #
cone-surface $-1 40.275196926844508 -12.092481000597347 1.5819344814448968 -0.74314483375859142 0 -0.66913059716165679 0.1672826492904142 0 -0.18578620843964785 1 I I -0.70710678118654746 0.70710678118654746 0.25 forward I I I I #
loop $-1 $-1 $97 $24 #
coedge $-1 $60 $60 $98 $99 reversed $38 $-1 #
face $-1 $100 $101 $15 $-1 $102 reversed single #
loop $-1 $-1 $103 $40 #
plane-surface $-1 0 -18.238549291461538 0 0 1 0 0 0 1 forward_v I I I I #
coedge $-1 $104 $105 $106 $107 forward $41 $-1 #
coedge $-1 $108 $43 $109 $110 forward $26 $-1 #
coedge $-1 $43 $108 $111 $112 forward $26 $-1 #
coedge $-1 $113 $114 $43 $68 reversed $115 $-1 #
edge $-1 $116 -18.238549291461538 $117 18.238549291461538 $67 $118 forward 7 unknown #
face $-1 $119 $120 $16 $-1 $121 forward single #
loop $-1 $-1 $122 $44 #
plane-surface $-1 -34.628254036072882 -16.738549291461538 0 -1 0 0 0 0 1 forward_v I I I I #
coedge $-1 $123 $124 $125 $126 forward $45 $-1 #
coedge $-1 $127 $47 $128 $129 reversed $29 $-1 #
coedge $-1 $47 $127 $130 $131 reversed $29 $-1 #
coedge $-1 $124 $123 $47 $76 reversed $45 $-1 #
edge $-1 $132 -4 $133 4 $75 $134 forward 7 unknown #
face $-1 $135 $136 $17 $-1 $137 reversed single #
loop $-1 $-1 $138 $48 #
plane-surface $-1 -37.628254036072882 20.193270810062572 0 1 0 0 0 0 -1 forward_v I I I I #
coedge $-1 $139 $140 $82 $141 forward $49 $-1 #
coedge $-1 $142 $51 $143 $144 reversed $32 $-1 #
coedge $-1 $51 $142 $80 $141 reversed $32 $-1 #
coedge $-1 $145 $146 $51 $84 reversed $147 $-1 #
edge $-1 $148 -4 $149 4 $83 $150 forward 7 unknown #
face $-1 $151 $152 $18 $-1 $153 forward single #
loop $-1 $-1 $154 $52 #
plane-surface $-1 48.93844939595315 -15.238549291461538 121.24236713213922 0 1 0 0.74314483375859142 0 0.66913059716165679 forward_v I I I I #
coedge $-1 $155 $156 $157 $158 reversed $53 $-1 #
coedge $-1 $90 $55 $159 $160 reversed $35 $-1 #
coedge $-1 $55 $89 $155 $161 reversed $35 $-1 #
coedge $-1 $157 $162 $55 $92 forward $152 $-1 #
edge $-1 $163 -18.159029338096307 $164 -15.310777204036025 $91 $165 forward 7 unknown #
loop $-1 $-1 $98 $56 #
plane-surface $-1 -14.419484122159623 -12.092481000597347 64.194628973906717 0.74314483375859142 0 0.66913059716165679 0.66913059716165679 0 -0.74314483375859142 forward_v I I I I #
loop $-1 $-1 $166 $37 #
coedge $-1 $96 $96 $97 $167 reversed $57 $-1 #
coedge $-1 $97 $97 $96 $167 forward $59 $-1 #
coedge $-1 $98 $98 $60 $99 forward $93 $-1 #
edge $-1 $168 0 $168 6.2831853071796004 $98 $169 forward 7 unknown #
face $-1 $170 $171 $15 $-1 $172 reversed single #
loop $-1 $-1 $173 $61 #
plane-surface $-1 -42.628254036072882 0 0 1 0 0 0 0 -1 forward_v I I I I #
coedge $-1 $174 $111 $175 $176 forward $62 $-1 #
coedge $-1 $177 $64 $174 $178 forward $41 $-1 #
coedge $-1 $64 $177 $179 $180 forward $41 $-1 #
coedge $-1 $114 $113 $64 $107 reversed $115 $-1 #
edge $-1 $181 -18.238549291461538 $182 18.238549291461538 $106 $183 forward 7 unknown #
coedge $-1 $66 $65 $184 $185 forward $26 $-1 #
coedge $-1 $186 $187 $65 $110 reversed $171 $-1 #
edge $-1 $117 -42.628254036072882 $188 42.628254036072882 $109 $189 forward 7 unknown #
coedge $-1 $103 $190 $66 $112 reversed $62 $-1 #
edge $-1 $191 -42.628254036072882 $116 42.628254036072882 $111 $192 forward 7 unknown #
coedge $-1 $106 $67 $190 $193 forward $115 $-1 #
coedge $-1 $67 $106 $186 $194 reversed $115 $-1 #
loop $-1 $-1 $113 $170 #
vertex $-1 $68 $195 #
vertex $-1 $68 $196 #
straight-curve $-1 42.628254036072882 0 4 0 1 0 I I #
face $-1 $197 $198 $16 $-1 $199 reversed single #
loop $-1 $-1 $200 $69 #
plane-surface $-1 0 0 4 0 0 1 1 0 0 forward_v I I I I #
coedge $-1 $201 $202 $203 $204 reversed $70 $-1 #
coedge $-1 $75 $72 $205 $206 reversed $45 $-1 #
coedge $-1 $72 $75 $207 $208 reversed $45 $-1 #
coedge $-1 $202 $201 $72 $126 reversed $70 $-1 #
edge $-1 $209 -4 $210 4 $125 $211 forward 7 unknown #
coedge $-1 $74 $73 $212 $213 reversed $29 $-1 #
coedge $-1 $205 $214 $73 $129 forward $198 $-1 #
edge $-1 $215 -9.8692746457307692 $133 -6.8692746457307692 $128 $216 forward 7 unknown #
coedge $-1 $217 $207 $74 $131 forward $120 $-1 #
edge $-1 $132 6.8692746457307692 $218 9.8692746457307692 $130 $219 forward 7 unknown #
vertex $-1 $131 $220 #
vertex $-1 $129 $221 #
straight-curve $-1 -37.628254036072882 -15.238549291461538 0 0 0 -1 I I #
face $-1 $222 $147 $17 $-1 $223 reversed single #
loop $-1 $-1 $224 $77 #
plane-surface $-1 -36.128254036072882 22.147992328663605 0 0 -1 0 0 0 -1 forward_v I I I I #
coedge $-1 $225 $226 $227 $228 forward $78 $-1 #
coedge $-1 $229 $80 $225 $230 forward $49 $-1 #
coedge $-1 $80 $229 $145 $231 forward $49 $-1 #
edge $-1 $148 34.628254036072882 $232 37.628254036072882 $80 $233 forward 7 unknown #
coedge $-1 $82 $81 $234 $235 forward $32 $-1 #
coedge $-1 $236 $237 $81 $144 forward $238 $-1 #
edge $-1 $239 -37.628254036072882 $149 -34.628254036072882 $143 $240 forward 7 unknown #
coedge $-1 $241 $83 $140 $231 reversed $147 $-1 #
coedge $-1 $83 $241 $236 $242 reversed $147 $-1 #
loop $-1 $-1 $83 $135 #
vertex $-1 $141 $243 #
vertex $-1 $242 $244 #
straight-curve $-1 -34.628254036072882 18.238549291461538 0 0 0 1 I I #
face $-1 $-1 $245 $18 $-1 $246 reversed single #
loop $-1 $-1 $91 $85 #
plane-surface $-1 0 0 4 0 0 1 1 0 0 forward_v I I I I #
coedge $-1 $247 $248 $249 $250 reversed $86 $-1 #
coedge $-1 $251 $88 $90 $161 forward $53 $-1 #
coedge $-1 $88 $251 $247 $252 forward $53 $-1 #
coedge $-1 $249 $91 $88 $158 forward $152 $-1 #
edge $-1 $164 2.9001722094344826 $253 9.1923087911628656 $157 $254 forward 7 unknown #
coedge $-1 $255 $256 $89 $160 forward $245 $-1 #
edge $-1 $257 -59.784488110275667 $163 -56.621183566069611 $159 $258 forward 7 unknown #
edge $-1 $164 80.999861991183224 $257 85.256508072145749 $90 $259 forward 7 unknown #
coedge $-1 $91 $249 $255 $260 forward $152 $-1 #
vertex $-1 $92 $261 #
vertex $-1 $92 $262 #
straight-curve $-1 24.469224697976575 -8.9464127097331563 4 -1 0 0 I I #
coedge $-1 $166 $166 $-1 $263 reversed $95 $-1 #
edge $-1 $264 0 $264 6.2831853071796004 $96 $265 forward 7 unknown #
vertex $-1 $99 $266 #
ellipse-curve $-1 41.204127969042752 -12.092481000597347 2.4183477278969727 0.74314483375859142 0 0.66913059716165679 0.3345652985808284 0 -0.37157241687929571 1 I I #
face $-1 $-1 $115 $15 $-1 $267 reversed single #
loop $-1 $-1 $186 $100 #
plane-surface $-1 0 18.238549291461538 0 0 -1 0 0 0 -1 forward_v I I I I #
coedge $-1 $268 $184 $187 $269 forward $101 $-1 #
coedge $-1 $190 $103 $104 $178 reversed $62 $-1 #
coedge $-1 $184 $268 $103 $176 reversed $101 $-1 #
edge $-1 $191 -4 $270 4 $175 $271 forward 7 unknown #
coedge $-1 $105 $104 $268 $272 forward $41 $-1 #
edge $-1 $182 -42.628254036072882 $270 42.628254036072882 $174 $273 forward 7 unknown #
coedge $-1 $187 $186 $105 $180 reversed $171 $-1 #
edge $-1 $274 -42.628254036072882 $181 42.628254036072882 $179 $275 forward 7 unknown #
vertex $-1 $107 $276 #
vertex $-1 $193 $277 #
straight-curve $-1 42.628254036072882 0 -4 0 -1 0 I I #
coedge $-1 $173 $175 $108 $185 reversed $101 $-1 #
edge $-1 $188 -18.238549291461538 $191 18.238549291461538 $184 $278 forward 7 unknown #
coedge $-1 $179 $109 $114 $194 forward $171 $-1 #
coedge $-1 $109 $179 $173 $269 reversed $171 $-1 #
vertex $-1 $110 $279 #
straight-curve $-1 0 18.238549291461538 4 -1 0 0 I I #
coedge $-1 $111 $174 $113 $193 reversed $62 $-1 #
vertex $-1 $185 $280 #
straight-curve $-1 0 -18.238549291461538 4 1 0 0 I I #
edge $-1 $116 -4 $182 4 $113 $281 forward 7 unknown #
edge $-1 $117 -4 $181 4 $114 $282 forward 7 unknown #
point $-1 42.628254036072882 -18.238549291461538 4 #
point $-1 42.628254036072882 18.238549291461538 4 #
face $-1 $-1 $283 $16 $-1 $284 reversed single #
loop $-1 $-1 $285 $119 #
plane-surface $-1 0 0 -4 0 0 1 1 0 0 forward_v I I I I #
coedge $-1 $207 $217 $202 $286 forward $120 $-1 #
coedge $-1 $125 $122 $285 $287 reversed $70 $-1 #
coedge $-1 $122 $125 $200 $286 reversed $70 $-1 #
coedge $-1 $288 $289 $122 $204 forward $283 $-1 #
edge $-1 $290 -4 $291 4 $203 $292 forward 7 unknown #
coedge $-1 $285 $128 $123 $206 forward $198 $-1 #
edge $-1 $133 -19.564127018036441 $210 -16.564127018036441 $205 $293 forward 7 unknown #
coedge $-1 $130 $200 $124 $208 forward $120 $-1 #
edge $-1 $209 16.564127018036441 $132 19.564127018036441 $207 $294 forward 7 unknown #
vertex $-1 $208 $295 #
vertex $-1 $206 $296 #
straight-curve $-1 -34.628254036072882 -15.238549291461538 0 0 0 -1 I I #
coedge $-1 $289 $288 $127 $213 forward $283 $-1 #
edge $-1 $218 -4 $215 4 $212 $297 forward 7 unknown #
coedge $-1 $128 $285 $289 $298 forward $198 $-1 #
vertex $-1 $129 $299 #
straight-curve $-1 -37.628254036072882 -8.3692746457307692 -4 0 1 0 I I #
coedge $-1 $200 $130 $288 $300 forward $120 $-1 #
vertex $-1 $300 $301 #
straight-curve $-1 -37.628254036072882 -8.3692746457307692 4 0 -1 0 I I #
point $-1 -37.628254036072882 -15.238549291461538 4 #
point $-1 -37.628254036072882 -15.238549291461538 -4 #
face $-1 $-1 $238 $17 $-1 $302 forward single #
plane-surface $-1 -34.628254036072882 20.193270810062572 0 -1 0 0 0 0 1 forward_v I I I I #
coedge $-1 $303 $304 $241 $305 forward $136 $-1 #
coedge $-1 $234 $138 $139 $230 reversed $78 $-1 #
coedge $-1 $138 $234 $237 $306 reversed $78 $-1 #
coedge $-1 $304 $303 $138 $228 reversed $136 $-1 #
edge $-1 $307 -4 $308 4 $227 $309 forward 7 unknown #
coedge $-1 $140 $139 $303 $310 forward $49 $-1 #
edge $-1 $232 -1.9547215186010334 $308 1.9547215186010334 $225 $311 forward 7 unknown #
edge $-1 $312 -1.9547215186010334 $148 1.9547215186010334 $145 $313 forward 7 unknown #
vertex $-1 $230 $314 #
straight-curve $-1 0 18.238549291461538 -4 -1 0 0 I I #
coedge $-1 $226 $225 $142 $235 reversed $78 $-1 #
edge $-1 $239 -4 $232 4 $234 $315 forward 7 unknown #
coedge $-1 $316 $143 $146 $242 forward $238 $-1 #
coedge $-1 $143 $316 $226 $306 forward $238 $-1 #
loop $-1 $-1 $143 $222 #
vertex $-1 $144 $317 #
straight-curve $-1 0 18.238549291461538 4 1 0 0 I I #
coedge $-1 $146 $145 $224 $305 reversed $147 $-1 #
edge $-1 $149 -1.9547215186010334 $318 1.9547215186010334 $146 $319 forward 7 unknown #
point $-1 -34.628254036072882 18.238549291461538 -4 #
point $-1 -34.628254036072882 18.238549291461538 4 #
loop $-1 $-1 $159 $151 #
plane-surface $-1 42.628254036072882 0 0 -1 0 0 0 0 1 forward_v I I I I #
coedge $-1 $248 $154 $156 $252 reversed $86 $-1 #
coedge $-1 $154 $247 $320 $321 reversed $86 $-1 #
coedge $-1 $162 $157 $154 $250 forward $152 $-1 #
edge $-1 $253 15.310777204036025 $322 18.159029338096307 $249 $323 forward 7 unknown #
coedge $-1 $156 $155 $256 $324 reversed $53 $-1 #
edge $-1 $325 -85.256508072145749 $253 -80.999861991183224 $247 $326 forward 7 unknown #
vertex $-1 $158 $327 #
straight-curve $-1 39.780001902012607 -6.0462405002986737 4 0 -1 0 I I #
coedge $-1 $320 $159 $162 $260 reversed $245 $-1 #
coedge $-1 $159 $320 $251 $324 forward $245 $-1 #
vertex $-1 $160 $328 #
straight-curve $-1 42.628254036072882 -8.9464127097331563 60.621183566069611 0 0 1 I I #
straight-curve $-1 -14.419484122159623 -8.9464127097331563 64.194628973906717 0.66913059716165679 0 -0.74314483375859142 I I #
edge $-1 $322 -15.238549291461538 $163 -8.9464127097331563 $255 $329 forward 7 unknown #
point $-1 42.628254036072882 -8.9464127097331563 4 #
point $-1 39.7800019020126 -8.9464127097331563 4 #
edge $-1 $330 1 $330 0 $166 $-1 forward 7 unknown #
vertex $-1 $167 $331 #
ellipse-curve $-1 40.460983135284152 -12.092481000597347 1.749217130735311 0.74314483375859142 0 0.66913059716165679 0.3345652985808284 0 -0.37157241687929571 1 I I #
point $-1 41.538693267623579 -12.092481000597347 2.0467753110176723 #
plane-surface $-1 42.628254036072882 0 0 -1 0 0 0 0 1 forward_v I I I I #
coedge $-1 $175 $173 $177 $272 reversed $101 $-1 #
edge $-1 $188 -4 $274 4 $187 $332 forward 7 unknown #
vertex $-1 $272 $333 #
straight-curve $-1 -42.628254036072882 -18.238549291461538 0 0 0 -1 I I #
edge $-1 $270 -18.238549291461538 $274 18.238549291461538 $268 $334 forward 7 unknown #
straight-curve $-1 0 -18.238549291461538 -4 -1 0 0 I I #
vertex $-1 $180 $335 #
straight-curve $-1 0 18.238549291461538 -4 1 0 0 I I #
point $-1 42.628254036072882 18.238549291461538 -4 #
point $-1 42.628254036072882 -18.238549291461538 -4 #
straight-curve $-1 -42.628254036072882 0 4 0 -1 0 I I #
point $-1 -42.628254036072882 18.238549291461538 4 #
point $-1 -42.628254036072882 -18.238549291461538 4 #
straight-curve $-1 42.628254036072882 -18.238549291461538 0 0 0 -1 I I #
straight-curve $-1 42.628254036072882 18.238549291461538 0 0 0 -1 I I #
loop $-1 $-1 $203 $197 #
plane-surface $-1 0 -18.238549291461538 0 0 1 0 0 0 1 forward_v I I I I #
coedge $-1 $214 $205 $201 $287 forward $198 $-1 #
edge $-1 $291 -9.8692746457307692 $209 -6.8692746457307692 $200 $336 forward 7 unknown #
edge $-1 $210 6.8692746457307692 $290 9.8692746457307692 $285 $337 forward 7 unknown #
coedge $-1 $212 $203 $217 $300 reversed $283 $-1 #
coedge $-1 $203 $212 $214 $298 reversed $283 $-1 #
vertex $-1 $298 $338 #
vertex $-1 $204 $339 #
straight-curve $-1 -34.628254036072882 -18.238549291461538 0 0 0 1 I I #
straight-curve $-1 -18.064127018036441 -15.238549291461538 -4 1 0 0 I I #
straight-curve $-1 -18.064127018036441 -15.238549291461538 4 -1 0 0 I I #
point $-1 -34.628254036072882 -15.238549291461538 4 #
point $-1 -34.628254036072882 -15.238549291461538 -4 #
straight-curve $-1 -37.628254036072882 -18.238549291461538 0 0 0 -1 I I #
edge $-1 $290 34.628254036072882 $215 37.628254036072882 $289 $340 forward 7 unknown #
point $-1 -37.628254036072882 -18.238549291461538 -4 #
edge $-1 $218 -37.628254036072882 $291 -34.628254036072882 $288 $341 forward 7 unknown #
point $-1 -37.628254036072882 -18.238549291461538 4 #
plane-surface $-1 0 0 4 0 0 1 1 0 0 forward_v I I I I #
coedge $-1 $227 $224 $229 $310 reversed $136 $-1 #
coedge $-1 $224 $227 $316 $342 reversed $136 $-1 #
edge $-1 $318 -4 $312 4 $241 $343 forward 7 unknown #
edge $-1 $307 -1.9547215186010334 $239 1.9547215186010334 $226 $344 forward 7 unknown #
vertex $-1 $342 $345 #
vertex $-1 $310 $346 #
straight-curve $-1 -37.628254036072882 22.147992328663605 0 0 0 -1 I I #
edge $-1 $308 -1.5 $312 1.5 $303 $347 forward 7 unknown #
straight-curve $-1 -37.628254036072882 20.193270810062572 -4 0 1 0 I I #
vertex $-1 $231 $348 #
straight-curve $-1 -34.628254036072882 20.193270810062572 -4 0 -1 0 I I #
point $-1 -37.628254036072882 18.238549291461538 -4 #
straight-curve $-1 -37.628254036072882 18.238549291461538 0 0 0 -1 I I #
coedge $-1 $237 $236 $304 $342 forward $238 $-1 #
point $-1 -37.628254036072882 18.238549291461538 4 #
vertex $-1 $242 $349 #
straight-curve $-1 -34.628254036072882 20.193270810062572 4 0 1 0 I I #
coedge $-1 $256 $255 $248 $321 forward $245 $-1 #
edge $-1 $322 56.621183566069611 $325 59.784488110275667 $320 $350 forward 7 unknown #
vertex $-1 $260 $351 #
straight-curve $-1 24.469224697976575 -15.238549291461538 4 1 0 0 I I #
edge $-1 $325 -9.1923087911628656 $257 -2.9001722094344826 $256 $352 forward 7 unknown #
vertex $-1 $324 $353 #
straight-curve $-1 -14.419484122159623 -15.238549291461538 64.194628973906717 -0.66913059716165679 0 0.74314483375859142 I I #
point $-1 39.7800019020126 -15.238549291461538 4 #
point $-1 42.628254036072882 -8.9464127097331563 0.83669545579394367 #
straight-curve $-1 42.628254036072882 0 4 0 1 0 I I #
vertex $-1 $263 $354 #
point $-1 40.795548433864987 -12.092481000597347 1.3776447138560153 #
straight-curve $-1 -42.628254036072882 18.238549291461538 0 0 0 -1 I I #
point $-1 -42.628254036072882 -18.238549291461538 -4 #
straight-curve $-1 -42.628254036072882 0 -4 0 1 0 I I #
point $-1 -42.628254036072882 18.238549291461538 -4 #
straight-curve $-1 -34.628254036072882 -8.3692746457307692 4 0 1 0 I I #
straight-curve $-1 -34.628254036072882 -8.3692746457307692 -4 0 -1 0 I I #
point $-1 -34.628254036072882 -18.238549291461538 -4 #
point $-1 -34.628254036072882 -18.238549291461538 4 #
straight-curve $-1 0 -18.238549291461538 -4 -1 0 0 I I #
straight-curve $-1 0 -18.238549291461538 4 1 0 0 I I #
edge $-1 $318 -1.5 $307 1.5 $304 $355 forward 7 unknown #
straight-curve $-1 -34.628254036072882 22.147992328663605 0 0 0 -1 I I #
straight-curve $-1 -37.628254036072882 20.193270810062572 4 0 -1 0 I I #
point $-1 -37.628254036072882 22.147992328663605 4 #
point $-1 -37.628254036072882 22.147992328663605 -4 #
straight-curve $-1 -36.128254036072882 22.147992328663605 -4 1 0 0 I I #
point $-1 -34.628254036072882 22.147992328663605 -4 #
point $-1 -34.628254036072882 22.147992328663605 4 #
straight-curve $-1 42.628254036072882 -15.238549291461538 60.621183566069611 0 0 -1 I I #
point $-1 42.628254036072882 -15.238549291461538 4 #
straight-curve $-1 42.628254036072882 -6.0462405002986737 0.83669545579395077 0 1 0 I I #
point $-1 42.628254036072882 -15.238549291461538 0.83669545579394367 #
point $-1 40.089410718404864 -12.092481000597347 1.4146518321544825 #
straight-curve $-1 -36.128254036072882 22.147992328663605 4 -1 0 0 I I #
End-of-ACIS-data 