500 0 7 0           
7 Unknown 11 ACIS 5.0 NT 24 Fri Mar 26 02:47:42 1999 
-1 9.9999999999999995e-007 1e-010 
body $-1 $7 $-1 $8 #
body $-1 $9 $-1 $10 #
body $-1 $11 $-1 $12 #
body $-1 $13 $-1 $14 #
body $-1 $15 $-1 $16 #
body $-1 $17 $-1 $18 #
body $-1 $19 $-1 $20 #
lump $-1 $-1 $21 $0 #
transform $-1 1 0 0 0 1 0 0 0 1 61.300698873866999 33.541118805502464 15.915320755270617 1 rotate no_reflect no_shear #
lump $-1 $-1 $22 $1 #
transform $-1 1 0 0 0 1 0 0 0 1 61.300698873866999 33.541118805502464 15.915320755270617 1 rotate no_reflect no_shear #
lump $-1 $-1 $23 $2 #
transform $-1 1 0 0 0 1 0 0 0 1 61.300698873866999 33.541118805502464 15.915320755270617 1 rotate no_reflect no_shear #
lump $-1 $-1 $24 $3 #
transform $-1 1 0 0 0 1 0 0 0 1 61.300698873866999 33.541118805502464 15.915320755270617 1 rotate no_reflect no_shear #
lump $-1 $-1 $25 $4 #
transform $-1 1 0 0 0 1 0 0 0 1 61.300698873866999 33.541118805502464 15.915320755270617 1 rotate no_reflect no_shear #
lump $-1 $-1 $26 $5 #
transform $-1 1 0 0 0 1 0 0 0 1 61.300698873866999 33.541118805502464 15.915320755270617 1 rotate no_reflect no_shear #
lump $-1 $-1 $27 $6 #
transform $-1 1 0 0 0 1 0 0 0 1 61.300698873866999 33.541118805502464 15.915320755270617 1 rotate no_reflect no_shear #
shell $-1 $-1 $-1 $28 $-1 $7 #
shell $-1 $-1 $-1 $29 $-1 $9 #
shell $-1 $-1 $-1 $30 $-1 $11 #
shell $-1 $-1 $-1 $31 $-1 $13 #
shell $-1 $-1 $-1 $32 $-1 $15 #
shell $-1 $-1 $-1 $33 $-1 $17 #
shell $-1 $-1 $-1 $34 $-1 $19 #
face $-1 $35 $36 $21 $-1 $37 forward single #
face $-1 $38 $39 $22 $-1 $40 reversed single #
face $-1 $41 $42 $23 $-1 $43 forward single #
face $-1 $44 $45 $24 $-1 $46 forward single #
face $-1 $47 $48 $25 $-1 $49 reversed single #
face $-1 $50 $51 $26 $-1 $52 forward single #
face $-1 $53 $54 $27 $-1 $55 forward single #
face $-1 $56 $57 $21 $-1 $58 reversed single #
loop $-1 $-1 $59 $28 #
plane-surface $-1 0 0 15.915320755270617 0 0 1 1 0 0 forward_v I I I I #
face $-1 $60 $61 $22 $-1 $62 reversed single #
loop $-1 $-1 $63 $29 #
plane-surface $-1 55.249666933825473 0 181.62125725077306 0 -1 0 -0.68199836817093118 0 -0.7313536940579346 forward_v I I I I #
face $-1 $64 $65 $23 $-1 $66 forward single #
loop $-1 $67 $68 $30 #
cone-surface $-1 56.841229682054447 -8.5082243697297812 11.701004594737759 -0.68199836817093118 0 -0.7313536940579346 0.7313536940579346 0 -0.68199836817093118 1 I I 0 1 1 forward I I I I #
face $-1 $69 $70 $24 $-1 $71 forward single #
loop $-1 $72 $73 $31 #
cone-surface $-1 56.841229682054447 -3.4032897478919111 11.701004594737759 -0.68199836817093118 0 -0.7313536940579346 0.7313536940579346 0 -0.68199836817093118 1 I I 0 1 1 forward I I I I #
face $-1 $74 $75 $25 $-1 $76 reversed single #
loop $-1 $-1 $77 $32 #
plane-surface $-1 55.249666933825473 21.629604687880772 181.62125725077306 0 1 0 0.68199836817093118 0 0.7313536940579346 forward_v I I I I #
face $-1 $78 $79 $26 $-1 $80 forward single #
loop $-1 $81 $82 $33 #
cone-surface $-1 56.841229682054447 25.032894435772683 11.701004594737759 -0.68199836817093118 0 -0.7313536940579346 0.7313536940579346 0 -0.68199836817093118 1 I I 0 1 1 forward I I I I #
face $-1 $83 $84 $27 $-1 $85 forward single #
loop $-1 $86 $87 $34 #
cone-surface $-1 56.841229682054447 30.137829057610553 11.701004594737759 -0.68199836817093118 0 -0.7313536940579346 0.7313536940579346 0 -0.68199836817093118 1 I I 0 1 1 forward I I I I #
face $-1 $88 $89 $21 $-1 $90 reversed single #
loop $-1 $-1 $91 $35 #
plane-surface $-1 0 0 -15.915320755270617 0 0 1 1 0 0 forward_v I I I I #
coedge $-1 $92 $93 $94 $95 forward $36 $-1 #
face $-1 $96 $97 $22 $-1 $98 reversed single #
loop $-1 $-1 $99 $38 #
plane-surface $-1 -28.364286265604385 -5.9557570588108462 91.956272111301658 0.68199836817093118 0 0.7313536940579346 0.7313536940579346 0 -0.68199836817093118 forward_v I I I I #
coedge $-1 $100 $101 $102 $103 reversed $39 $-1 #
face $-1 $-1 $104 $23 $-1 $105 forward single #
loop $-1 $106 $107 $41 #
cone-surface $-1 56.101286324809514 -8.5082243697297812 10.907512508875346 -0.68199836817093118 0 -0.7313536940579346 0.3656768470289673 0 -0.34099918408546559 1 I I -0.70710678118654746 0.70710678118654746 0.5 forward I I I I #
loop $-1 $-1 $108 $30 #
coedge $-1 $68 $68 $109 $110 reversed $42 $-1 #
face $-1 $-1 $111 $24 $-1 $112 forward single #
loop $-1 $113 $114 $44 #
cone-surface $-1 56.101286324809514 -3.4032897478919111 10.907512508875346 -0.68199836817093118 0 -0.7313536940579346 0.3656768470289673 0 -0.34099918408546559 1 I I -0.70710678118654746 0.70710678118654746 0.5 forward I I I I #
loop $-1 $-1 $115 $31 #
coedge $-1 $73 $73 $116 $117 reversed $45 $-1 #
face $-1 $118 $119 $25 $-1 $120 reversed single #
loop $-1 $-1 $121 $47 #
plane-surface $-1 -28.364286265604385 27.585361746691618 91.956272111301658 0.68199836817093118 0 0.7313536940579346 0.7313536940579346 0 -0.68199836817093118 forward_v I I I I #
coedge $-1 $122 $123 $124 $125 reversed $48 $-1 #
face $-1 $-1 $126 $26 $-1 $127 forward single #
loop $-1 $128 $129 $50 #
cone-surface $-1 56.101286324809514 25.032894435772683 10.907512508875346 -0.68199836817093118 0 -0.7313536940579346 0.3656768470289673 0 -0.34099918408546559 1 I I -0.70710678118654746 0.70710678118654746 0.5 forward I I I I #
loop $-1 $-1 $130 $33 #
coedge $-1 $82 $82 $131 $132 reversed $51 $-1 #
face $-1 $-1 $133 $27 $-1 $134 forward single #
loop $-1 $135 $136 $53 #
cone-surface $-1 56.101286324809514 30.137829057610553 10.907512508875346 -0.68199836817093118 0 -0.7313536940579346 0.3656768470289673 0 -0.34099918408546559 1 I I -0.70710678118654746 0.70710678118654746 0.5 forward I I I I #
loop $-1 $-1 $137 $34 #
coedge $-1 $87 $87 $138 $139 reversed $54 $-1 #
face $-1 $140 $141 $21 $-1 $142 reversed single #
loop $-1 $-1 $143 $56 #
plane-surface $-1 0 -33.541118805502464 0 0 1 0 0 0 1 forward_v I I I I #
coedge $-1 $144 $145 $146 $147 forward $57 $-1 #
coedge $-1 $148 $59 $149 $150 forward $36 $-1 #
coedge $-1 $59 $148 $151 $152 forward $36 $-1 #
coedge $-1 $153 $154 $59 $95 reversed $155 $-1 #
edge $-1 $156 -33.541118805502464 $157 33.541118805502464 $94 $158 forward 7 unknown #
face $-1 $159 $160 $22 $-1 $161 forward single #
loop $-1 $-1 $162 $60 #
plane-surface $-1 55.249666933825473 -11.911514117621692 181.62125725077306 0 1 0 0.68199836817093118 0 0.7313536940579346 forward_v I I I I #
coedge $-1 $163 $164 $165 $166 reversed $61 $-1 #
coedge $-1 $101 $63 $167 $168 reversed $39 $-1 #
coedge $-1 $63 $100 $163 $169 reversed $39 $-1 #
coedge $-1 $165 $170 $63 $103 forward $160 $-1 #
edge $-1 $171 -33.675865406954259 $172 -25.554815369648129 $102 $173 forward 7 unknown #
loop $-1 $-1 $109 $64 #
plane-surface $-1 -28.364286265604385 -5.9557570588108462 91.956272111301658 0.68199836817093118 0 0.7313536940579346 0.7313536940579346 0 -0.68199836817093118 forward_v I I I I #
loop $-1 $-1 $174 $41 #
coedge $-1 $107 $107 $108 $175 reversed $65 $-1 #
coedge $-1 $108 $108 $107 $175 forward $67 $-1 #
coedge $-1 $109 $109 $68 $110 forward $104 $-1 #
edge $-1 $176 0 $176 6.2831853071796004 $109 $177 forward 7 unknown #
loop $-1 $-1 $116 $69 #
plane-surface $-1 -28.364286265604385 -5.9557570588108462 91.956272111301658 0.68199836817093118 0 0.7313536940579346 0.7313536940579346 0 -0.68199836817093118 forward_v I I I I #
loop $-1 $-1 $178 $44 #
coedge $-1 $114 $114 $115 $179 reversed $70 $-1 #
coedge $-1 $115 $115 $114 $179 forward $72 $-1 #
coedge $-1 $116 $116 $73 $117 forward $111 $-1 #
edge $-1 $180 0 $180 6.2831853071796004 $116 $181 forward 7 unknown #
face $-1 $182 $183 $25 $-1 $184 forward single #
loop $-1 $-1 $124 $74 #
plane-surface $-1 61.300698873866999 0 0 -1 0 0 0 0 1 forward_v I I I I #
coedge $-1 $185 $186 $187 $188 reversed $75 $-1 #
coedge $-1 $123 $77 $189 $190 reversed $48 $-1 #
coedge $-1 $77 $122 $185 $191 reversed $48 $-1 #
coedge $-1 $187 $192 $77 $125 forward $119 $-1 #
edge $-1 $193 74.895307870115914 $194 82.468309713514714 $124 $195 forward 7 unknown #
loop $-1 $-1 $131 $78 #
plane-surface $-1 -28.364286265604385 27.585361746691618 91.956272111301658 0.68199836817093118 0 0.7313536940579346 0.7313536940579346 0 -0.68199836817093118 forward_v I I I I #
loop $-1 $-1 $196 $50 #
coedge $-1 $129 $129 $130 $197 reversed $79 $-1 #
coedge $-1 $130 $130 $129 $197 forward $81 $-1 #
coedge $-1 $131 $131 $82 $132 forward $126 $-1 #
edge $-1 $198 0 $198 6.2831853071796004 $131 $199 forward 7 unknown #
loop $-1 $-1 $138 $83 #
plane-surface $-1 -28.364286265604385 27.585361746691618 91.956272111301658 0.68199836817093118 0 0.7313536940579346 0.7313536940579346 0 -0.68199836817093118 forward_v I I I I #
loop $-1 $-1 $200 $53 #
coedge $-1 $136 $136 $137 $201 reversed $84 $-1 #
coedge $-1 $137 $137 $136 $201 forward $86 $-1 #
coedge $-1 $138 $138 $87 $139 forward $133 $-1 #
edge $-1 $202 0 $202 6.2831853071796004 $138 $203 forward 7 unknown #
face $-1 $204 $205 $21 $-1 $206 reversed single #
loop $-1 $-1 $207 $88 #
plane-surface $-1 -61.300698873866999 0 0 1 0 0 0 0 -1 forward_v I I I I #
coedge $-1 $208 $151 $209 $210 forward $89 $-1 #
coedge $-1 $211 $91 $208 $212 forward $57 $-1 #
coedge $-1 $91 $211 $213 $214 forward $57 $-1 #
coedge $-1 $154 $153 $91 $147 reversed $155 $-1 #
edge $-1 $215 -33.541118805502464 $216 33.541118805502464 $146 $217 forward 7 unknown #
coedge $-1 $93 $92 $218 $219 forward $36 $-1 #
coedge $-1 $220 $221 $92 $150 reversed $205 $-1 #
edge $-1 $157 -61.300698873866999 $222 61.300698873866999 $149 $223 forward 7 unknown #
coedge $-1 $143 $224 $93 $152 reversed $89 $-1 #
edge $-1 $225 -61.300698873866999 $156 61.300698873866999 $151 $226 forward 7 unknown #
coedge $-1 $146 $94 $224 $227 forward $155 $-1 #
coedge $-1 $94 $146 $220 $228 reversed $155 $-1 #
loop $-1 $-1 $153 $204 #
vertex $-1 $95 $229 #
vertex $-1 $95 $230 #
straight-curve $-1 61.300698873866999 0 15.915320755270617 0 1 0 I I #
face $-1 $-1 $231 $22 $-1 $232 reversed single #
loop $-1 $-1 $102 $96 #
plane-surface $-1 0 0 15.915320755270617 0 0 1 1 0 0 forward_v I I I I #
coedge $-1 $233 $234 $235 $236 reversed $97 $-1 #
coedge $-1 $237 $99 $101 $169 forward $61 $-1 #
coedge $-1 $99 $237 $233 $238 forward $61 $-1 #
coedge $-1 $235 $102 $99 $166 forward $160 $-1 #
edge $-1 $172 -2.9778785294054231 $239 8.9336355882162692 $165 $240 forward 7 unknown #
coedge $-1 $241 $242 $100 $168 forward $231 $-1 #
edge $-1 $243 -82.468309713514714 $171 -74.895307870115914 $167 $244 forward 7 unknown #
edge $-1 $172 111.49726290396737 $243 122.60139774773398 $101 $245 forward 7 unknown #
coedge $-1 $102 $235 $241 $246 forward $160 $-1 #
vertex $-1 $168 $247 #
vertex $-1 $103 $248 #
straight-curve $-1 27.624833466912737 0 15.915320755270614 -1 0 0 I I #
coedge $-1 $174 $174 $-1 $249 reversed $106 $-1 #
edge $-1 $250 0 $250 6.2831853071796004 $107 $251 forward 7 unknown #
vertex $-1 $110 $252 #
ellipse-curve $-1 57.240173855213932 -8.5082243697297812 12.128819833571221 0.68199836817093118 0 0.7313536940579346 0.7313536940579346 0 -0.68199836817093118 1 I I #
coedge $-1 $178 $178 $-1 $253 reversed $113 $-1 #
edge $-1 $254 0 $254 6.2831853071796004 $114 $255 forward 7 unknown #
vertex $-1 $117 $256 #
ellipse-curve $-1 57.240173855213932 -3.4032897478919111 12.128819833571221 0.68199836817093118 0 0.7313536940579346 0.7313536940579346 0 -0.68199836817093118 1 I I #
face $-1 $-1 $257 $25 $-1 $258 reversed single #
loop $-1 $-1 $189 $118 #
plane-surface $-1 0 0 15.915320755270617 0 0 1 1 0 0 forward_v I I I I #
coedge $-1 $259 $121 $123 $191 forward $75 $-1 #
coedge $-1 $121 $259 $260 $261 reversed $75 $-1 #
coedge $-1 $262 $124 $121 $188 forward $119 $-1 #
edge $-1 $194 7.8369238145349627 $263 19.748437932156655 $187 $264 forward 7 unknown #
coedge $-1 $265 $266 $122 $190 forward $183 $-1 #
edge $-1 $267 25.554815369648129 $193 33.675865406954259 $189 $268 forward 7 unknown #
edge $-1 $194 -122.60139774773398 $267 -111.49726290396737 $123 $269 forward 7 unknown #
coedge $-1 $124 $262 $265 $270 reversed $119 $-1 #
vertex $-1 $270 $271 #
vertex $-1 $125 $272 #
straight-curve $-1 61.300698873866999 21.629604687880772 90.810628625386528 0 0 -1 I I #
coedge $-1 $196 $196 $-1 $273 reversed $128 $-1 #
edge $-1 $274 0 $274 6.2831853071796004 $129 $275 forward 7 unknown #
vertex $-1 $132 $276 #
ellipse-curve $-1 57.240173855213932 25.032894435772683 12.128819833571221 0.68199836817093118 0 0.7313536940579346 0.7313536940579346 0 -0.68199836817093118 1 I I #
coedge $-1 $200 $200 $-1 $277 reversed $135 $-1 #
edge $-1 $278 0 $278 6.2831853071796004 $136 $279 forward 7 unknown #
vertex $-1 $139 $280 #
ellipse-curve $-1 57.240173855213932 30.137829057610553 12.128819833571221 0.68199836817093118 0 0.7313536940579346 0.7313536940579346 0 -0.68199836817093118 1 I I #
face $-1 $-1 $155 $21 $-1 $281 reversed single #
loop $-1 $-1 $220 $140 #
plane-surface $-1 0 33.541118805502464 0 0 -1 0 0 0 -1 forward_v I I I I #
coedge $-1 $282 $218 $221 $283 forward $141 $-1 #
coedge $-1 $224 $143 $144 $212 reversed $89 $-1 #
coedge $-1 $218 $282 $143 $210 reversed $141 $-1 #
edge $-1 $225 -15.915320755270617 $284 15.915320755270617 $209 $285 forward 7 unknown #
coedge $-1 $145 $144 $282 $286 forward $57 $-1 #
edge $-1 $216 -61.300698873866999 $284 61.300698873866999 $208 $287 forward 7 unknown #
coedge $-1 $221 $220 $145 $214 reversed $205 $-1 #
edge $-1 $288 -61.300698873866999 $215 61.300698873866999 $213 $289 forward 7 unknown #
vertex $-1 $147 $290 #
vertex $-1 $227 $291 #
straight-curve $-1 61.300698873866999 0 -15.915320755270617 0 -1 0 I I #
coedge $-1 $207 $209 $148 $219 reversed $141 $-1 #
edge $-1 $222 -33.541118805502464 $225 33.541118805502464 $218 $292 forward 7 unknown #
coedge $-1 $213 $149 $154 $228 forward $205 $-1 #
coedge $-1 $149 $213 $207 $283 reversed $205 $-1 #
vertex $-1 $150 $293 #
straight-curve $-1 0 33.541118805502464 15.915320755270617 -1 0 0 I I #
coedge $-1 $151 $208 $153 $227 reversed $89 $-1 #
vertex $-1 $219 $294 #
straight-curve $-1 0 -33.541118805502464 15.915320755270617 1 0 0 I I #
edge $-1 $156 -15.915320755270617 $216 15.915320755270617 $153 $295 forward 7 unknown #
edge $-1 $157 -15.915320755270617 $215 15.915320755270617 $154 $296 forward 7 unknown #
point $-1 61.300698873866999 -33.541118805502464 15.915320755270617 #
point $-1 61.300698873866999 33.541118805502464 15.915320755270617 #
loop $-1 $-1 $167 $159 #
plane-surface $-1 61.300698873866999 0 0 -1 0 0 0 0 1 forward_v I I I I #
coedge $-1 $234 $162 $164 $238 reversed $97 $-1 #
coedge $-1 $162 $233 $297 $298 reversed $97 $-1 #
coedge $-1 $170 $165 $162 $236 forward $160 $-1 #
edge $-1 $239 25.554815369648129 $299 33.675865406954259 $235 $300 forward 7 unknown #
coedge $-1 $164 $163 $242 $301 reversed $61 $-1 #
edge $-1 $302 -122.60139774773398 $239 -111.49726290396737 $233 $303 forward 7 unknown #
vertex $-1 $166 $304 #
straight-curve $-1 53.179648836560865 -2.9778785294054231 15.915320755270621 0 -1 0 I I #
coedge $-1 $297 $167 $170 $246 reversed $231 $-1 #
coedge $-1 $167 $297 $237 $301 forward $231 $-1 #
vertex $-1 $168 $305 #
straight-curve $-1 61.300698873866999 0 90.810628625386528 0 0 1 I I #
straight-curve $-1 -28.364286265604385 0 91.956272111301658 0.7313536940579346 0 -0.68199836817093118 I I #
edge $-1 $299 -11.911514117621692 $171 0 $241 $306 forward 7 unknown #
point $-1 61.300698873866999 0 15.915320755270617 #
point $-1 53.179648836560865 0 15.915320755270614 #
edge $-1 $307 1 $307 0 $174 $-1 forward 7 unknown #
vertex $-1 $175 $308 #
ellipse-curve $-1 56.442285508894983 -8.5082243697297812 11.273189355904313 0.68199836817093118 0 0.7313536940579346 0.7313536940579346 0 -0.68199836817093118 1 I I #
point $-1 57.971527549271855 -8.5082243697297812 11.446821465400271 #
edge $-1 $309 1 $309 0 $178 $-1 forward 7 unknown #
vertex $-1 $179 $310 #
ellipse-curve $-1 56.442285508894983 -3.4032897478919111 11.273189355904313 0.68199836817093118 0 0.7313536940579346 0.7313536940579346 0 -0.68199836817093118 1 I I #
point $-1 57.971527549271855 -3.4032897478919111 11.446821465400271 #
loop $-1 $-1 $260 $182 #
plane-surface $-1 0 33.541118805502464 0 0 -1 0 0 0 -1 forward_v I I I I #
coedge $-1 $186 $185 $266 $311 reversed $75 $-1 #
coedge $-1 $312 $313 $186 $261 forward $257 $-1 #
edge $-1 $263 -80.872221216405791 $314 -69.768086372639203 $260 $315 forward 7 unknown #
coedge $-1 $192 $187 $313 $316 reversed $119 $-1 #
vertex $-1 $188 $317 #
straight-curve $-1 61.300698873866999 13.792680873345809 8.3423189118718142 0 1 0 I I #
coedge $-1 $318 $189 $192 $270 forward $183 $-1 #
coedge $-1 $189 $318 $259 $311 forward $183 $-1 #
vertex $-1 $190 $319 #
straight-curve $-1 27.624833466912737 21.629604687880772 15.915320755270614 1 0 0 I I #
straight-curve $-1 -28.364286265604385 21.629604687880772 91.956272111301658 -0.7313536940579346 0 0.68199836817093118 I I #
edge $-1 $193 21.629604687880772 $320 33.541118805502464 $192 $321 forward 7 unknown #
point $-1 61.300698873866999 21.629604687880772 15.915320755270617 #
point $-1 61.300698873866999 21.629604687880772 8.3423189118718142 #
edge $-1 $322 1 $322 0 $196 $-1 forward 7 unknown #
vertex $-1 $197 $323 #
ellipse-curve $-1 56.442285508894983 25.032894435772683 11.273189355904313 0.68199836817093118 0 0.7313536940579346 0.7313536940579346 0 -0.68199836817093118 1 I I #
point $-1 57.971527549271855 25.032894435772683 11.446821465400271 #
edge $-1 $324 1 $324 0 $200 $-1 forward 7 unknown #
vertex $-1 $201 $325 #
ellipse-curve $-1 56.442285508894983 30.137829057610553 11.273189355904313 0.68199836817093118 0 0.7313536940579346 0.7313536940579346 0 -0.68199836817093118 1 I I #
point $-1 57.971527549271855 30.137829057610553 11.446821465400271 #
plane-surface $-1 61.300698873866999 0 0 -1 0 0 0 0 1 forward_v I I I I #
coedge $-1 $209 $207 $211 $286 reversed $141 $-1 #
edge $-1 $222 -15.915320755270617 $288 15.915320755270617 $221 $326 forward 7 unknown #
vertex $-1 $286 $327 #
straight-curve $-1 -61.300698873866999 -33.541118805502464 0 0 0 -1 I I #
edge $-1 $284 -33.541118805502464 $288 33.541118805502464 $282 $328 forward 7 unknown #
straight-curve $-1 0 -33.541118805502464 -15.915320755270617 -1 0 0 I I #
vertex $-1 $214 $329 #
straight-curve $-1 0 33.541118805502464 -15.915320755270617 1 0 0 I I #
point $-1 61.300698873866999 33.541118805502464 -15.915320755270617 #
point $-1 61.300698873866999 -33.541118805502464 -15.915320755270617 #
straight-curve $-1 -61.300698873866999 0 15.915320755270617 0 -1 0 I I #
point $-1 -61.300698873866999 33.541118805502464 15.915320755270617 #
point $-1 -61.300698873866999 -33.541118805502464 15.915320755270617 #
straight-curve $-1 61.300698873866999 -33.541118805502464 0 0 0 -1 I I #
straight-curve $-1 61.300698873866999 33.541118805502464 0 0 0 -1 I I #
coedge $-1 $242 $241 $234 $298 forward $231 $-1 #
edge $-1 $299 74.895307870115914 $302 82.468309713514714 $297 $330 forward 7 unknown #
vertex $-1 $246 $331 #
straight-curve $-1 27.624833466912737 -11.911514117621692 15.915320755270614 1 0 0 I I #
edge $-1 $302 -8.9336355882162692 $243 2.9778785294054231 $242 $332 forward 7 unknown #
vertex $-1 $301 $333 #
straight-curve $-1 -28.364286265604385 -11.911514117621692 91.956272111301658 -0.7313536940579346 0 0.68199836817093118 I I #
point $-1 53.179648836560865 -11.911514117621692 15.915320755270614 #
point $-1 61.300698873866999 0 8.3423189118718142 #
straight-curve $-1 61.300698873866999 0 15.915320755270617 0 1 0 I I #
vertex $-1 $249 $334 #
point $-1 57.173639202952913 -8.5082243697297812 10.591190987733382 #
vertex $-1 $253 $335 #
point $-1 57.173639202952913 -3.4032897478919111 10.591190987733382 #
edge $-1 $314 -19.748437932156655 $267 -7.8369238145349627 $266 $336 forward 7 unknown #
coedge $-1 $313 $260 $318 $337 reversed $257 $-1 #
coedge $-1 $260 $312 $262 $316 forward $257 $-1 #
vertex $-1 $261 $338 #
straight-curve $-1 2.1545011405781445 33.541118805502464 63.49704181181913 -0.7313536940579346 0 0.68199836817093118 I I #
edge $-1 $320 -15.915320755270617 $263 -8.3423189118718142 $262 $339 forward 7 unknown #
point $-1 61.300698873866999 33.541118805502464 8.3423189118718142 #
coedge $-1 $266 $265 $312 $337 forward $183 $-1 #
point $-1 53.179648836560865 21.629604687880772 15.915320755270614 #
vertex $-1 $270 $340 #
straight-curve $-1 61.300698873866999 0 15.915320755270617 0 1 0 I I #
vertex $-1 $273 $341 #
point $-1 57.173639202952913 25.032894435772683 10.591190987733382 #
vertex $-1 $277 $342 #
point $-1 57.173639202952913 30.137829057610553 10.591190987733382 #
straight-curve $-1 -61.300698873866999 33.541118805502464 0 0 0 -1 I I #
point $-1 -61.300698873866999 -33.541118805502464 -15.915320755270617 #
straight-curve $-1 -61.300698873866999 0 -15.915320755270617 0 1 0 I I #
point $-1 -61.300698873866999 33.541118805502464 -15.915320755270617 #
straight-curve $-1 61.300698873866999 -11.911514117621692 90.810628625386528 0 0 -1 I I #
point $-1 61.300698873866999 -11.911514117621692 15.915320755270617 #
straight-curve $-1 61.300698873866999 -2.9778785294054231 8.3423189118718142 0 1 0 I I #
point $-1 61.300698873866999 -11.911514117621692 8.3423189118718142 #
point $-1 55.760287140724046 -8.5082243697297812 10.541835661846379 #
point $-1 55.760287140724046 -3.4032897478919111 10.541835661846379 #
straight-curve $-1 53.179648836560865 13.792680873345809 15.915320755270621 0 -1 0 I I #
edge $-1 $320 -61.300698873866999 $314 -53.179648836560865 $312 $343 forward 7 unknown #
point $-1 53.179648836560865 33.541118805502464 15.915320755270614 #
straight-curve $-1 61.300698873866999 33.541118805502464 0 0 0 -1 I I #
point $-1 61.300698873866999 33.541118805502464 15.915320755270617 #
point $-1 55.760287140724046 25.032894435772683 10.541835661846379 #
point $-1 55.760287140724046 30.137829057610553 10.541835661846379 #
straight-curve $-1 0 33.541118805502464 15.915320755270617 -1 0 0 I I #
End-of-ACIS-data 