500 0 9 0           
7 Unknown 11 ACIS 5.0 NT 24 Fri Mar 26 16:46:03 1999 
-1 9.9999999999999995e-007 1e-010 
body $-1 $9 $-1 $10 #
body $-1 $11 $-1 $12 #
body $-1 $13 $-1 $14 #
body $-1 $15 $-1 $16 #
body $-1 $17 $-1 $18 #
body $-1 $19 $-1 $20 #
body $-1 $21 $-1 $22 #
body $-1 $23 $-1 $24 #
body $-1 $25 $-1 $26 #
lump $-1 $-1 $27 $0 #
transform $-1 1 0 0 0 1 0 0 0 1 55.205542161320842 26.121165996988875 12.563621577475642 1 rotate no_reflect no_shear #
lump $-1 $-1 $28 $1 #
transform $-1 1 0 0 0 1 0 0 0 1 55.205542161320842 26.121165996988875 12.563621577475642 1 rotate no_reflect no_shear #
lump $-1 $-1 $29 $2 #
transform $-1 1 0 0 0 1 0 0 0 1 55.205542161320842 26.121165996988875 12.563621577475642 1 rotate no_reflect no_shear #
lump $-1 $-1 $30 $3 #
transform $-1 1 0 0 0 1 0 0 0 1 55.205542161320842 26.121165996988875 12.563621577475642 1 rotate no_reflect no_shear #
lump $-1 $-1 $31 $4 #
transform $-1 1 0 0 0 1 0 0 0 1 55.205542161320842 26.121165996988875 12.563621577475642 1 rotate no_reflect no_shear #
lump $-1 $-1 $32 $5 #
transform $-1 1 0 0 0 1 0 0 0 1 55.205542161320842 26.121165996988875 12.563621577475642 1 rotate no_reflect no_shear #
lump $-1 $-1 $33 $6 #
transform $-1 1 0 0 0 1 0 0 0 1 55.205542161320842 26.121165996988875 12.563621577475642 1 rotate no_reflect no_shear #
lump $-1 $-1 $34 $7 #
transform $-1 1 0 0 0 1 0 0 0 1 55.205542161320842 26.121165996988875 12.563621577475642 1 rotate no_reflect no_shear #
lump $-1 $-1 $35 $8 #
transform $-1 1 0 0 0 1 0 0 0 1 55.205542161320842 26.121165996988875 12.563621577475642 1 rotate no_reflect no_shear #
shell $-1 $-1 $-1 $36 $-1 $9 #
shell $-1 $-1 $-1 $37 $-1 $11 #
shell $-1 $-1 $-1 $38 $-1 $13 #
shell $-1 $-1 $-1 $39 $-1 $15 #
shell $-1 $-1 $-1 $40 $-1 $17 #
shell $-1 $-1 $-1 $41 $-1 $19 #
shell $-1 $-1 $-1 $42 $-1 $21 #
shell $-1 $-1 $-1 $43 $-1 $23 #
shell $-1 $-1 $-1 $44 $-1 $25 #
face $-1 $45 $46 $27 $-1 $47 forward single #
face $-1 $48 $49 $28 $-1 $50 reversed single #
face $-1 $51 $52 $29 $-1 $53 reversed single #
face $-1 $54 $55 $30 $-1 $56 reversed single #
face $-1 $57 $58 $31 $-1 $59 forward single #
face $-1 $60 $61 $32 $-1 $62 forward single #
face $-1 $63 $64 $33 $-1 $65 reversed single #
face $-1 $66 $67 $34 $-1 $68 forward single #
face $-1 $69 $70 $35 $-1 $71 forward single #
face $-1 $72 $73 $27 $-1 $74 reversed single #
loop $-1 $-1 $75 $36 #
plane-surface $-1 0 0 12.563621577475642 0 0 1 1 0 0 forward_v I I I I #
face $-1 $76 $77 $28 $-1 $78 reversed single #
loop $-1 $-1 $79 $37 #
plane-surface $-1 -47.085758694047563 -3.9939228420375912 0 0 1 0 0 0 1 forward_v I I I I #
face $-1 $80 $81 $29 $-1 $82 reversed single #
loop $-1 $-1 $83 $38 #
plane-surface $-1 47.085758694047563 -3.9939228420375912 0 0 1 0 0 0 1 forward_v I I I I #
face $-1 $84 $85 $30 $-1 $86 reversed single #
loop $-1 $-1 $87 $39 #
plane-surface $-1 -4.23132981088715 -119.75507672633816 61.272652294959741 -1 0 0 0 -0.84804810408105047 0.52991925155115449 forward_v I I I I #
face $-1 $88 $89 $31 $-1 $90 forward single #
loop $-1 $91 $92 $40 #
cone-surface $-1 -11.764807183292774 -22.228996182054466 7.1448080716953219 0 0.84804810408105047 -0.52991925155115449 1 0 0 1 I I 0 1 1 forward I I I I #
face $-1 $93 $94 $32 $-1 $95 forward single #
loop $-1 $96 $97 $41 #
cone-surface $-1 -7.2447207598494003 -22.228996182054466 7.1448080716953219 0 0.84804810408105047 -0.52991925155115449 1 0 0 1 I I 0 1 1 forward I I I I #
face $-1 $98 $99 $33 $-1 $100 reversed single #
loop $-1 $-1 $101 $42 #
plane-surface $-1 11.470680080701428 63.213722843016939 124.59013911602891 1 0 0 0 -0.68199836817093118 -0.7313536940579346 forward_v I I I I #
face $-1 $102 $103 $34 $-1 $104 forward single #
loop $-1 $105 $106 $43 #
cone-surface $-1 14.827914939952286 22.494664719327851 9.0010365428810868 0 -0.68199836817093118 -0.7313536940579346 1 0 0 1 I I 0 1 1 forward I I I I #
face $-1 $107 $108 $35 $-1 $109 forward single #
loop $-1 $110 $111 $44 #
cone-surface $-1 19.8637672288286 22.494664719327851 9.0010365428810868 0 -0.68199836817093118 -0.7313536940579346 1 0 0 1 I I 0 1 1 forward I I I I #
face $-1 $112 $113 $27 $-1 $114 reversed single #
loop $-1 $-1 $115 $45 #
plane-surface $-1 0 0 -12.563621577475642 0 0 1 1 0 0 forward_v I I I I #
coedge $-1 $116 $117 $118 $119 forward $46 $-1 #
face $-1 $120 $121 $28 $-1 $122 reversed single #
loop $-1 $-1 $123 $48 #
plane-surface $-1 -47.085758694047563 -0.99392284203759118 0 0 -1 0 0 0 -1 forward_v I I I I #
coedge $-1 $124 $125 $126 $127 reversed $49 $-1 #
face $-1 $128 $129 $29 $-1 $130 reversed single #
loop $-1 $-1 $131 $51 #
plane-surface $-1 38.965975226774283 -2.4939228420375912 0 1 0 0 0 0 -1 forward_v I I I I #
coedge $-1 $132 $133 $134 $135 forward $52 $-1 #
face $-1 $136 $137 $30 $-1 $138 reversed single #
loop $-1 $-1 $139 $54 #
plane-surface $-1 -9.5047639715710872 -26.121165996988879 2.7636931277540526 0 -0.84804810408105047 0.52991925155115449 1 0 0 forward_v I I I I #
coedge $-1 $140 $141 $142 $143 reversed $55 $-1 #
face $-1 $-1 $144 $31 $-1 $145 forward single #
loop $-1 $146 $147 $57 #
cone-surface $-1 -11.764807183292774 -20.97463968275968 6.3609991650002247 0 0.84804810408105047 -0.52991925155115449 0.5 0 0 1 I I -0.70710678118654691 0.70710678118654813 0.5 forward I I I I #
loop $-1 $-1 $148 $40 #
coedge $-1 $92 $92 $149 $150 reversed $58 $-1 #
face $-1 $-1 $151 $32 $-1 $152 forward single #
loop $-1 $153 $154 $60 #
cone-surface $-1 -7.2447207598494003 -20.97463968275968 6.3609991650002247 0 0.84804810408105047 -0.52991925155115449 0.5 0 0 1 I I -0.70710678118654691 0.70710678118654813 0.5 forward I I I I #
loop $-1 $-1 $155 $41 #
coedge $-1 $97 $97 $156 $157 reversed $61 $-1 #
face $-1 $158 $159 $33 $-1 $160 reversed single #
loop $-1 $-1 $161 $63 #
plane-surface $-1 17.34584108439045 -12.086456493007773 43.840584731722799 0 0.68199836817093118 0.7313536940579346 1 0 0 forward_v I I I I #
coedge $-1 $162 $163 $164 $165 reversed $64 $-1 #
face $-1 $-1 $166 $34 $-1 $167 forward single #
loop $-1 $168 $169 $66 #
cone-surface $-1 14.827914939952286 20.860757559741852 7.2488856688024104 0 -0.68199836817093118 -0.7313536940579346 0.5 0 0 1 I I -0.70710678118654746 0.70710678118654746 0.5 forward I I I I #
loop $-1 $-1 $170 $43 #
coedge $-1 $106 $106 $171 $172 reversed $67 $-1 #
face $-1 $-1 $173 $35 $-1 $174 forward single #
loop $-1 $175 $176 $69 #
cone-surface $-1 19.8637672288286 20.860757559741852 7.2488856688024104 0 -0.68199836817093118 -0.7313536940579346 0.5 0 0 1 I I -0.70710678118654746 0.70710678118654746 0.5 forward I I I I #
loop $-1 $-1 $177 $44 #
coedge $-1 $111 $111 $178 $179 reversed $70 $-1 #
face $-1 $180 $181 $27 $-1 $182 reversed single #
loop $-1 $-1 $183 $72 #
plane-surface $-1 0 -26.121165996988875 0 0 1 0 0 0 1 forward_v I I I I #
coedge $-1 $184 $185 $186 $187 forward $73 $-1 #
coedge $-1 $188 $75 $189 $190 forward $46 $-1 #
coedge $-1 $75 $188 $191 $192 forward $46 $-1 #
coedge $-1 $193 $194 $75 $119 reversed $195 $-1 #
edge $-1 $196 -26.121165996988875 $197 26.121165996988875 $118 $198 forward 7 unknown #
face $-1 $199 $200 $28 $-1 $201 reversed single #
loop $-1 $-1 $202 $76 #
plane-surface $-1 -38.965975226774283 -2.4939228420375912 0 -1 0 0 0 0 1 forward_v I I I I #
coedge $-1 $203 $204 $205 $206 forward $77 $-1 #
coedge $-1 $207 $79 $208 $209 reversed $49 $-1 #
coedge $-1 $79 $207 $210 $211 reversed $49 $-1 #
coedge $-1 $212 $213 $79 $127 forward $214 $-1 #
edge $-1 $215 -12.563621577475642 $216 12.563621577475642 $126 $217 forward 7 unknown #
face $-1 $218 $219 $29 $-1 $220 reversed single #
loop $-1 $-1 $221 $80 #
plane-surface $-1 47.085758694047563 -0.99392284203759118 0 0 -1 0 0 0 -1 forward_v I I I I #
coedge $-1 $222 $223 $224 $225 forward $81 $-1 #
coedge $-1 $226 $83 $227 $228 reversed $52 $-1 #
coedge $-1 $83 $226 $229 $230 reversed $52 $-1 #
coedge $-1 $223 $222 $83 $135 reversed $81 $-1 #
edge $-1 $231 -12.563621577475642 $232 12.563621577475642 $134 $233 forward 7 unknown #
face $-1 $234 $235 $30 $-1 $236 forward single #
loop $-1 $-1 $237 $84 #
plane-surface $-1 -14.778198132255024 -119.75507672633816 61.272652294959741 1 0 0 0 0.84804810408105047 -0.52991925155115449 forward_v I I I I #
coedge $-1 $238 $239 $240 $241 reversed $85 $-1 #
coedge $-1 $141 $87 $242 $243 reversed $55 $-1 #
coedge $-1 $87 $140 $238 $244 reversed $55 $-1 #
coedge $-1 $240 $245 $87 $143 forward $235 $-1 #
edge $-1 $246 33.756372366180202 $247 39.880047101540498 $142 $248 forward 7 unknown #
loop $-1 $-1 $149 $88 #
plane-surface $-1 -9.5047639715710872 -26.121165996988879 2.7636931277540526 0 -0.84804810408105047 0.52991925155115449 1 0 0 forward_v I I I I #
loop $-1 $-1 $249 $57 #
coedge $-1 $147 $147 $148 $250 reversed $89 $-1 #
coedge $-1 $148 $148 $147 $250 forward $91 $-1 #
coedge $-1 $149 $149 $92 $150 forward $144 $-1 #
edge $-1 $251 7.5243064764144144e-016 $251 6.2831853071796013 $149 $252 forward 7 unknown #
loop $-1 $-1 $156 $93 #
plane-surface $-1 -9.5047639715710872 -26.121165996988879 2.7636931277540526 0 -0.84804810408105047 0.52991925155115449 1 0 0 forward_v I I I I #
loop $-1 $-1 $253 $60 #
coedge $-1 $154 $154 $155 $254 reversed $94 $-1 #
coedge $-1 $155 $155 $154 $254 forward $96 $-1 #
coedge $-1 $156 $156 $97 $157 forward $151 $-1 #
edge $-1 $255 7.5243064764144144e-016 $255 6.2831853071796013 $156 $256 forward 7 unknown #
face $-1 $257 $258 $33 $-1 $259 reversed single #
loop $-1 $-1 $260 $98 #
plane-surface $-1 23.221002088079473 63.213722843016939 124.59013911602891 -1 0 0 0 0.68199836817093118 0.7313536940579346 forward_v I I I I #
coedge $-1 $261 $262 $263 $264 reversed $99 $-1 #
coedge $-1 $163 $101 $265 $266 reversed $64 $-1 #
coedge $-1 $101 $162 $261 $267 reversed $64 $-1 #
coedge $-1 $263 $268 $101 $165 forward $269 $-1 #
edge $-1 $270 5.4856954245195944 $271 10.152882028840544 $164 $272 forward 7 unknown #
loop $-1 $-1 $171 $102 #
plane-surface $-1 17.34584108439045 -12.086456493007773 43.840584731722799 0 0.68199836817093118 0.7313536940579346 1 0 0 forward_v I I I I #
loop $-1 $-1 $273 $66 #
coedge $-1 $169 $169 $170 $274 reversed $103 $-1 #
coedge $-1 $170 $170 $169 $274 forward $105 $-1 #
coedge $-1 $171 $171 $106 $172 forward $166 $-1 #
edge $-1 $275 8.6078178295941704e-016 $275 6.2831853071796013 $171 $276 forward 7 unknown #
loop $-1 $-1 $178 $107 #
plane-surface $-1 17.34584108439045 -12.086456493007773 43.840584731722799 0 0.68199836817093118 0.7313536940579346 1 0 0 forward_v I I I I #
loop $-1 $-1 $277 $69 #
coedge $-1 $176 $176 $177 $278 reversed $108 $-1 #
coedge $-1 $177 $177 $176 $278 forward $110 $-1 #
coedge $-1 $178 $178 $111 $179 forward $173 $-1 #
edge $-1 $279 8.6078178295941704e-016 $279 6.2831853071796013 $178 $280 forward 7 unknown #
face $-1 $281 $282 $27 $-1 $283 reversed single #
loop $-1 $-1 $284 $112 #
plane-surface $-1 -55.205542161320842 0 0 1 0 0 0 0 -1 forward_v I I I I #
coedge $-1 $285 $191 $286 $287 forward $113 $-1 #
coedge $-1 $288 $115 $285 $289 forward $73 $-1 #
coedge $-1 $115 $288 $290 $291 forward $73 $-1 #
coedge $-1 $194 $193 $115 $187 reversed $195 $-1 #
edge $-1 $292 -26.121165996988875 $293 26.121165996988875 $186 $294 forward 7 unknown #
coedge $-1 $117 $116 $295 $296 forward $46 $-1 #
coedge $-1 $297 $298 $116 $190 reversed $282 $-1 #
edge $-1 $197 -55.205542161320842 $299 55.205542161320842 $189 $300 forward 7 unknown #
coedge $-1 $183 $301 $117 $192 reversed $113 $-1 #
edge $-1 $302 -55.205542161320842 $196 55.205542161320842 $191 $303 forward 7 unknown #
coedge $-1 $186 $118 $301 $304 forward $195 $-1 #
coedge $-1 $118 $186 $297 $305 reversed $195 $-1 #
loop $-1 $-1 $193 $281 #
vertex $-1 $119 $306 #
vertex $-1 $119 $307 #
straight-curve $-1 55.205542161320842 0 12.563621577475642 0 1 0 I I #
face $-1 $308 $309 $28 $-1 $310 forward single #
loop $-1 $-1 $311 $120 #
plane-surface $-1 0 0 -12.563621577475642 0 0 1 1 0 0 forward_v I I I I #
coedge $-1 $312 $313 $207 $314 forward $121 $-1 #
coedge $-1 $315 $123 $311 $316 reversed $77 $-1 #
coedge $-1 $123 $315 $317 $318 reversed $77 $-1 #
coedge $-1 $313 $312 $123 $206 reversed $121 $-1 #
edge $-1 $319 -12.563621577475642 $320 12.563621577475642 $205 $321 forward 7 unknown #
coedge $-1 $125 $124 $202 $314 reversed $49 $-1 #
coedge $-1 $322 $323 $124 $209 forward $200 $-1 #
edge $-1 $324 15.423095879750502 $215 31.662662814297061 $208 $325 forward 7 unknown #
coedge $-1 $326 $327 $125 $211 forward $309 $-1 #
edge $-1 $216 -31.662662814297061 $328 -15.423095879750502 $210 $329 forward 7 unknown #
coedge $-1 $330 $126 $327 $331 reversed $214 $-1 #
coedge $-1 $126 $330 $322 $332 reversed $214 $-1 #
loop $-1 $-1 $330 $308 #
vertex $-1 $332 $333 #
vertex $-1 $127 $334 #
straight-curve $-1 -55.205542161320842 -3.9939228420375912 0 0 0 1 I I #
face $-1 $335 $336 $29 $-1 $337 forward single #
loop $-1 $-1 $227 $128 #
plane-surface $-1 0 0 -12.563621577475642 0 0 1 1 0 0 forward_v I I I I #
coedge $-1 $338 $339 $340 $341 reversed $129 $-1 #
coedge $-1 $134 $131 $342 $343 reversed $81 $-1 #
coedge $-1 $131 $134 $344 $345 reversed $81 $-1 #
coedge $-1 $339 $338 $131 $225 reversed $129 $-1 #
edge $-1 $346 -12.563621577475642 $347 12.563621577475642 $224 $348 forward 7 unknown #
coedge $-1 $133 $132 $349 $350 reversed $52 $-1 #
coedge $-1 $342 $351 $132 $228 forward $219 $-1 #
edge $-1 $352 -31.662662814297061 $232 -15.423095879750502 $227 $353 forward 7 unknown #
coedge $-1 $354 $344 $133 $230 forward $336 $-1 #
edge $-1 $231 15.423095879750502 $355 31.662662814297061 $229 $356 forward 7 unknown #
vertex $-1 $230 $357 #
vertex $-1 $228 $358 #
straight-curve $-1 38.965975226774283 -3.9939228420375912 0 0 0 -1 I I #
face $-1 $-1 $359 $30 $-1 $360 reversed single #
loop $-1 $-1 $142 $136 #
plane-surface $-1 0 0 12.563621577475642 0 0 1 1 0 0 forward_v I I I I #
coedge $-1 $361 $362 $363 $364 reversed $137 $-1 #
coedge $-1 $365 $139 $141 $244 forward $85 $-1 #
coedge $-1 $139 $365 $361 $366 forward $85 $-1 #
coedge $-1 $363 $142 $139 $241 forward $235 $-1 #
edge $-1 $247 -0.52105217489839362 $367 10.025816146469481 $240 $368 forward 7 unknown #
coedge $-1 $369 $370 $140 $243 forward $359 $-1 #
edge $-1 $371 -27.872633019725811 $246 -18.072704570004227 $242 $372 forward 7 unknown #
edge $-1 $247 -11.555863874421187 $371 -6.7785685355760754e-015 $141 $373 forward 7 unknown #
coedge $-1 $142 $363 $369 $374 forward $235 $-1 #
vertex $-1 $143 $375 #
vertex $-1 $143 $376 #
straight-curve $-1 -4.23132981088715 -59.87753836316908 12.563621577475644 0 1 0 I I #
coedge $-1 $249 $249 $-1 $377 reversed $146 $-1 #
edge $-1 $378 0 $378 6.2831853071796004 $147 $379 forward 7 unknown #
vertex $-1 $150 $380 #
ellipse-curve $-1 -11.764807183292774 -23.05932862930873 7.6636573526148455 0 -0.84804810408105047 0.52991925155115449 1 0 0 1 I I #
coedge $-1 $253 $253 $-1 $381 reversed $153 $-1 #
edge $-1 $382 0 $382 6.2831853071796004 $154 $383 forward 7 unknown #
vertex $-1 $157 $384 #
ellipse-curve $-1 -7.2447207598494003 -23.05932862930873 7.6636573526148455 0 -0.84804810408105047 0.52991925155115449 1 0 0 1 I I #
face $-1 $-1 $269 $33 $-1 $385 forward single #
loop $-1 $-1 $386 $158 #
plane-surface $-1 0 26.121165996988875 0 0 -1 0 0 0 -1 forward_v I I I I #
coedge $-1 $387 $388 $389 $390 reversed $159 $-1 #
coedge $-1 $391 $161 $163 $267 forward $99 $-1 #
coedge $-1 $161 $391 $387 $392 forward $99 $-1 #
coedge $-1 $389 $164 $161 $264 forward $269 $-1 #
edge $-1 $271 2.7977595385062024 $393 14.548081545884248 $263 $394 forward 7 unknown #
coedge $-1 $395 $396 $162 $266 forward $258 $-1 #
edge $-1 $397 -54.083669995628512 $270 -49.73144798053881 $265 $398 forward 7 unknown #
edge $-1 $271 45.860759517841132 $397 52.24233199397775 $163 $399 forward 7 unknown #
coedge $-1 $164 $389 $395 $400 forward $269 $-1 #
loop $-1 $-1 $389 $257 #
vertex $-1 $266 $401 #
vertex $-1 $165 $402 #
straight-curve $-1 11.470680080701428 31.606861421508469 12.563621577475644 0 -1 0 I I #
coedge $-1 $273 $273 $-1 $403 reversed $168 $-1 #
edge $-1 $404 0 $404 6.2831853071796004 $169 $405 forward 7 unknown #
vertex $-1 $172 $406 #
ellipse-curve $-1 14.827914939952286 23.787572694828391 10.387510569930804 0 0.68199836817093118 0.7313536940579346 1 0 0 1 I I #
coedge $-1 $277 $277 $-1 $407 reversed $175 $-1 #
edge $-1 $408 0 $408 6.2831853071796004 $176 $409 forward 7 unknown #
vertex $-1 $179 $410 #
ellipse-curve $-1 19.8637672288286 23.787572694828391 10.387510569930804 0 0.68199836817093118 0.7313536940579346 1 0 0 1 I I #
face $-1 $-1 $195 $27 $-1 $411 reversed single #
loop $-1 $-1 $297 $180 #
plane-surface $-1 0 26.121165996988875 0 0 -1 0 0 0 -1 forward_v I I I I #
coedge $-1 $412 $295 $298 $413 forward $181 $-1 #
coedge $-1 $301 $183 $184 $289 reversed $113 $-1 #
coedge $-1 $295 $412 $183 $287 reversed $181 $-1 #
edge $-1 $302 -12.563621577475642 $414 12.563621577475642 $286 $415 forward 7 unknown #
coedge $-1 $185 $184 $412 $416 forward $73 $-1 #
edge $-1 $293 -55.205542161320842 $414 55.205542161320842 $285 $417 forward 7 unknown #
coedge $-1 $298 $297 $185 $291 reversed $282 $-1 #
edge $-1 $418 -55.205542161320842 $292 55.205542161320842 $290 $419 forward 7 unknown #
vertex $-1 $187 $420 #
vertex $-1 $304 $421 #
straight-curve $-1 55.205542161320842 0 -12.563621577475642 0 -1 0 I I #
coedge $-1 $284 $286 $188 $296 reversed $181 $-1 #
edge $-1 $299 -26.121165996988875 $302 26.121165996988875 $295 $422 forward 7 unknown #
coedge $-1 $290 $189 $194 $305 forward $282 $-1 #
coedge $-1 $189 $290 $284 $413 reversed $282 $-1 #
vertex $-1 $190 $423 #
straight-curve $-1 0 26.121165996988875 12.563621577475642 -1 0 0 I I #
coedge $-1 $191 $285 $193 $304 reversed $113 $-1 #
vertex $-1 $296 $424 #
straight-curve $-1 0 -26.121165996988875 12.563621577475642 1 0 0 I I #
edge $-1 $196 -12.563621577475642 $293 12.563621577475642 $193 $425 forward 7 unknown #
edge $-1 $197 -12.563621577475642 $292 12.563621577475642 $194 $426 forward 7 unknown #
point $-1 55.205542161320842 -26.121165996988875 12.563621577475642 #
point $-1 55.205542161320842 26.121165996988875 12.563621577475642 #
face $-1 $-1 $214 $28 $-1 $427 reversed single #
loop $-1 $-1 $317 $199 #
plane-surface $-1 0 0 12.563621577475642 0 0 1 1 0 0 forward_v I I I I #
coedge $-1 $323 $322 $203 $316 forward $200 $-1 #
coedge $-1 $205 $202 $323 $428 reversed $121 $-1 #
coedge $-1 $202 $205 $326 $429 reversed $121 $-1 #
edge $-1 $328 -12.563621577475642 $324 12.563621577475642 $202 $430 forward 7 unknown #
coedge $-1 $204 $203 $330 $431 reversed $77 $-1 #
edge $-1 $432 -31.662662814297061 $320 -15.423095879750502 $311 $433 forward 7 unknown #
coedge $-1 $327 $326 $204 $318 forward $309 $-1 #
edge $-1 $319 15.423095879750502 $434 31.662662814297061 $317 $435 forward 7 unknown #
vertex $-1 $318 $436 #
vertex $-1 $316 $437 #
straight-curve $-1 -38.965975226774283 -0.99392284203759118 0 0 0 -1 I I #
coedge $-1 $311 $208 $213 $332 forward $200 $-1 #
coedge $-1 $208 $311 $312 $428 forward $200 $-1 #
vertex $-1 $209 $438 #
straight-curve $-1 -23.542879347023781 -3.9939228420375912 -12.563621577475642 -1 0 0 I I #
coedge $-1 $317 $210 $313 $429 forward $309 $-1 #
coedge $-1 $210 $317 $212 $331 forward $309 $-1 #
vertex $-1 $211 $439 #
straight-curve $-1 -23.542879347023781 -3.9939228420375912 12.563621577475642 1 0 0 I I #
coedge $-1 $213 $212 $315 $431 forward $214 $-1 #
edge $-1 $434 0.99392284203759118 $216 3.9939228420375912 $212 $440 forward 7 unknown #
edge $-1 $215 -3.9939228420375912 $432 -0.99392284203759118 $213 $441 forward 7 unknown #
point $-1 -55.205542161320842 -3.9939228420375912 -12.563621577475642 #
point $-1 -55.205542161320842 -3.9939228420375912 12.563621577475642 #
face $-1 $-1 $442 $29 $-1 $443 reversed single #
loop $-1 $-1 $229 $218 #
plane-surface $-1 0 0 12.563621577475642 0 0 1 1 0 0 forward_v I I I I #
coedge $-1 $224 $221 $444 $445 reversed $129 $-1 #
coedge $-1 $221 $224 $446 $447 reversed $129 $-1 #
coedge $-1 $448 $449 $221 $341 forward $442 $-1 #
edge $-1 $450 -12.563621577475642 $451 12.563621577475642 $340 $452 forward 7 unknown #
coedge $-1 $444 $227 $222 $343 forward $219 $-1 #
edge $-1 $232 -2.7469614210187956 $347 0.25303857898120441 $342 $453 forward 7 unknown #
coedge $-1 $229 $446 $223 $345 forward $336 $-1 #
edge $-1 $346 -0.25303857898120441 $231 2.7469614210187956 $344 $454 forward 7 unknown #
vertex $-1 $345 $455 #
vertex $-1 $343 $456 #
straight-curve $-1 38.965975226774283 -0.99392284203759118 0 0 0 -1 I I #
coedge $-1 $449 $448 $226 $350 forward $442 $-1 #
edge $-1 $355 -12.563621577475642 $352 12.563621577475642 $349 $457 forward 7 unknown #
coedge $-1 $227 $444 $449 $458 forward $219 $-1 #
vertex $-1 $350 $459 #
straight-curve $-1 23.542879347023781 -3.9939228420375912 -12.563621577475642 -1 0 0 I I #
coedge $-1 $446 $229 $448 $460 forward $336 $-1 #
vertex $-1 $460 $461 #
straight-curve $-1 23.542879347023781 -3.9939228420375912 12.563621577475642 1 0 0 I I #
point $-1 38.965975226774283 -3.9939228420375912 12.563621577475642 #
point $-1 38.965975226774283 -3.9939228420375912 -12.563621577475642 #
loop $-1 $-1 $242 $234 #
plane-surface $-1 0 -26.121165996988875 0 0 1 0 0 0 1 forward_v I I I I #
coedge $-1 $362 $237 $239 $366 reversed $137 $-1 #
coedge $-1 $237 $361 $462 $463 reversed $137 $-1 #
coedge $-1 $245 $240 $237 $364 forward $235 $-1 #
edge $-1 $367 -39.880047101540498 $464 -33.756372366180202 $363 $465 forward 7 unknown #
coedge $-1 $239 $238 $370 $466 reversed $85 $-1 #
edge $-1 $467 6.7785685355760754e-015 $367 11.555863874421187 $361 $468 forward 7 unknown #
vertex $-1 $241 $469 #
straight-curve $-1 -4.7523819857855436 -19.997491261628578 12.563621577475642 -1 0 0 I I #
coedge $-1 $462 $242 $245 $374 reversed $359 $-1 #
coedge $-1 $242 $462 $365 $466 forward $359 $-1 #
vertex $-1 $243 $470 #
straight-curve $-1 -4.23132981088715 -26.121165996988879 30.63632614747987 0 0 1 I I #
straight-curve $-1 -4.23132981088715 -26.121165996988879 2.7636931277540526 0 -0.52991925155115449 -0.84804810408105047 I I #
edge $-1 $464 -14.778198132255024 $246 -4.23132981088715 $369 $471 forward 7 unknown #
point $-1 -4.23132981088715 -26.121165996988875 12.563621577475642 #
point $-1 -4.23132981088715 -19.997491261628578 12.563621577475642 #
edge $-1 $472 1 $472 0 $249 $-1 forward 7 unknown #
vertex $-1 $250 $473 #
ellipse-curve $-1 -11.764807183292774 -21.398663734800206 6.625958790775802 0 -0.84804810408105047 0.52991925155115449 1 0 0 1 I I #
point $-1 -10.764807183292774 -23.059328629308723 7.6636573526148419 #
edge $-1 $474 1 $474 0 $253 $-1 forward 7 unknown #
vertex $-1 $254 $475 #
ellipse-curve $-1 -7.2447207598494003 -21.398663734800206 6.625958790775802 0 -0.84804810408105047 0.52991925155115449 1 0 0 1 I I #
point $-1 -6.2447207598494003 -23.059328629308723 7.6636573526148419 #
plane-surface $-1 0 0 12.563621577475642 0 0 1 1 0 0 forward_v I I I I #
coedge $-1 $396 $395 $388 $476 forward $258 $-1 #
coedge $-1 $388 $260 $262 $392 reversed $159 $-1 #
coedge $-1 $260 $387 $386 $476 reversed $159 $-1 #
coedge $-1 $268 $263 $260 $390 forward $269 $-1 #
edge $-1 $393 -10.152882028840544 $477 -5.4856954245195944 $389 $478 forward 7 unknown #
coedge $-1 $262 $261 $396 $479 reversed $99 $-1 #
edge $-1 $480 -52.24233199397775 $393 -45.860759517841132 $387 $481 forward 7 unknown #
vertex $-1 $264 $482 #
straight-curve $-1 8.6729205421952251 21.453979392667925 12.563621577475647 1 0 0 I I #
coedge $-1 $386 $265 $268 $400 reversed $258 $-1 #
coedge $-1 $265 $386 $391 $479 forward $258 $-1 #
vertex $-1 $266 $483 #
straight-curve $-1 11.470680080701428 26.121165996988875 62.295069558014454 0 0 1 I I #
straight-curve $-1 11.470680080701428 -12.086456493007773 43.840584731722799 0 0.7313536940579346 -0.68199836817093118 I I #
edge $-1 $477 -23.221002088079473 $270 -11.470680080701428 $395 $484 forward 7 unknown #
point $-1 11.470680080701428 26.121165996988875 12.563621577475642 #
point $-1 11.470680080701428 21.453979392667925 12.563621577475644 #
edge $-1 $485 1 $485 0 $273 $-1 forward 7 unknown #
vertex $-1 $274 $486 #
ellipse-curve $-1 14.827914939952286 21.201756743827318 7.6145625158313779 0 0.68199836817093118 0.7313536940579346 1 0 0 1 I I #
point $-1 15.827914939952286 23.787572694828384 10.387510569930795 #
edge $-1 $487 1 $487 0 $277 $-1 forward 7 unknown #
vertex $-1 $278 $488 #
ellipse-curve $-1 19.8637672288286 21.201756743827318 7.6145625158313779 0 0.68199836817093118 0.7313536940579346 1 0 0 1 I I #
point $-1 20.8637672288286 23.787572694828384 10.387510569930795 #
plane-surface $-1 55.205542161320842 0 0 -1 0 0 0 0 1 forward_v I I I I #
coedge $-1 $286 $284 $288 $416 reversed $181 $-1 #
edge $-1 $299 -12.563621577475642 $418 12.563621577475642 $298 $489 forward 7 unknown #
vertex $-1 $416 $490 #
straight-curve $-1 -55.205542161320842 -26.121165996988875 0 0 0 -1 I I #
edge $-1 $414 -26.121165996988875 $418 26.121165996988875 $412 $491 forward 7 unknown #
straight-curve $-1 0 -26.121165996988875 -12.563621577475642 -1 0 0 I I #
vertex $-1 $291 $492 #
straight-curve $-1 0 26.121165996988875 -12.563621577475642 1 0 0 I I #
point $-1 55.205542161320842 26.121165996988875 -12.563621577475642 #
point $-1 55.205542161320842 -26.121165996988875 -12.563621577475642 #
straight-curve $-1 -55.205542161320842 0 12.563621577475642 0 -1 0 I I #
point $-1 -55.205542161320842 26.121165996988875 12.563621577475642 #
point $-1 -55.205542161320842 -26.121165996988875 12.563621577475642 #
straight-curve $-1 55.205542161320842 -26.121165996988875 0 0 0 -1 I I #
straight-curve $-1 55.205542161320842 26.121165996988875 0 0 0 -1 I I #
plane-surface $-1 -55.205542161320842 0 0 1 0 0 0 0 -1 forward_v I I I I #
edge $-1 $320 -0.25303857898120441 $324 2.7469614210187956 $323 $493 forward 7 unknown #
edge $-1 $328 -2.7469614210187956 $319 0.25303857898120441 $326 $494 forward 7 unknown #
straight-curve $-1 -38.965975226774283 -3.9939228420375912 0 0 0 -1 I I #
edge $-1 $434 -12.563621577475642 $432 12.563621577475642 $330 $495 forward 7 unknown #
vertex $-1 $431 $496 #
straight-curve $-1 -23.542879347023781 -0.99392284203759118 -12.563621577475642 1 0 0 I I #
vertex $-1 $331 $497 #
straight-curve $-1 -23.542879347023781 -0.99392284203759118 12.563621577475642 -1 0 0 I I #
point $-1 -38.965975226774283 -0.99392284203759118 12.563621577475642 #
point $-1 -38.965975226774283 -0.99392284203759118 -12.563621577475642 #
point $-1 -38.965975226774283 -3.9939228420375912 -12.563621577475642 #
point $-1 -38.965975226774283 -3.9939228420375912 12.563621577475642 #
straight-curve $-1 -55.205542161320842 0 12.563621577475642 0 -1 0 I I #
straight-curve $-1 -55.205542161320842 0 -12.563621577475642 0 1 0 I I #
loop $-1 $-1 $349 $335 #
plane-surface $-1 55.205542161320842 0 0 -1 0 0 0 0 1 forward_v I I I I #
coedge $-1 $351 $342 $338 $445 forward $219 $-1 #
edge $-1 $347 15.423095879750502 $450 31.662662814297061 $444 $498 forward 7 unknown #
coedge $-1 $344 $354 $339 $447 forward $336 $-1 #
edge $-1 $451 -31.662662814297061 $346 -15.423095879750502 $446 $499 forward 7 unknown #
coedge $-1 $349 $340 $354 $460 reversed $442 $-1 #
coedge $-1 $340 $349 $351 $458 reversed $442 $-1 #
vertex $-1 $458 $500 #
vertex $-1 $341 $501 #
straight-curve $-1 55.205542161320842 -0.99392284203759118 0 0 0 1 I I #
straight-curve $-1 38.965975226774283 -1.2469614210187956 -12.563621577475642 0 1 0 I I #
straight-curve $-1 38.965975226774283 -1.2469614210187956 12.563621577475642 0 -1 0 I I #
point $-1 38.965975226774283 -0.99392284203759118 12.563621577475642 #
point $-1 38.965975226774283 -0.99392284203759118 -12.563621577475642 #
straight-curve $-1 55.205542161320842 -3.9939228420375912 0 0 0 -1 I I #
edge $-1 $450 0.99392284203759118 $352 3.9939228420375912 $449 $502 forward 7 unknown #
point $-1 55.205542161320842 -3.9939228420375912 -12.563621577475642 #
edge $-1 $355 -3.9939228420375912 $451 -0.99392284203759118 $448 $503 forward 7 unknown #
point $-1 55.205542161320842 -3.9939228420375912 12.563621577475642 #
coedge $-1 $370 $369 $362 $463 forward $359 $-1 #
edge $-1 $464 18.072704570004227 $467 27.872633019725811 $462 $504 forward 7 unknown #
vertex $-1 $374 $505 #
straight-curve $-1 -14.778198132255024 -59.87753836316908 12.563621577475644 0 -1 0 I I #
edge $-1 $467 -10.025816146469481 $371 0.52105217489839362 $370 $506 forward 7 unknown #
vertex $-1 $466 $507 #
straight-curve $-1 -14.778198132255024 -26.121165996988879 2.7636931277540526 0 0.52991925155115449 0.84804810408105047 I I #
point $-1 -14.778198132255024 -19.997491261628578 12.563621577475642 #
point $-1 -4.23132981088715 -26.121165996988875 2.7636931277540584 #
straight-curve $-1 0 -26.121165996988875 12.563621577475642 1 0 0 I I #
vertex $-1 $377 $508 #
point $-1 -10.764807183292774 -21.398663734800206 6.625958790775802 #
vertex $-1 $381 $509 #
point $-1 -6.2447207598494003 -21.398663734800206 6.625958790775802 #
edge $-1 $477 49.73144798053881 $480 54.083669995628512 $386 $510 forward 7 unknown #
vertex $-1 $400 $511 #
straight-curve $-1 23.221002088079473 31.606861421508469 12.563621577475644 0 1 0 I I #
edge $-1 $480 -14.548081545884248 $397 -2.7977595385062024 $396 $512 forward 7 unknown #
vertex $-1 $479 $513 #
straight-curve $-1 23.221002088079473 -12.086456493007773 43.840584731722799 0 -0.7313536940579346 0.68199836817093118 I I #
point $-1 23.221002088079473 21.453979392667925 12.563621577475644 #
point $-1 11.470680080701428 26.121165996988879 8.2113995623859424 #
straight-curve $-1 0 26.121165996988875 12.563621577475642 -1 0 0 I I #
vertex $-1 $403 $514 #
point $-1 15.827914939952286 21.201756743827318 7.6145625158313779 #
vertex $-1 $407 $515 #
point $-1 20.8637672288286 21.201756743827318 7.6145625158313779 #
straight-curve $-1 -55.205542161320842 26.121165996988875 0 0 0 -1 I I #
point $-1 -55.205542161320842 -26.121165996988875 -12.563621577475642 #
straight-curve $-1 -55.205542161320842 0 -12.563621577475642 0 1 0 I I #
point $-1 -55.205542161320842 26.121165996988875 -12.563621577475642 #
straight-curve $-1 -38.965975226774283 -1.2469614210187956 -12.563621577475642 0 -1 0 I I #
straight-curve $-1 -38.965975226774283 -1.2469614210187956 12.563621577475642 0 1 0 I I #
straight-curve $-1 -55.205542161320842 -0.99392284203759118 0 0 0 -1 I I #
point $-1 -55.205542161320842 -0.99392284203759118 -12.563621577475642 #
point $-1 -55.205542161320842 -0.99392284203759118 12.563621577475642 #
straight-curve $-1 23.542879347023781 -0.99392284203759118 -12.563621577475642 1 0 0 I I #
straight-curve $-1 23.542879347023781 -0.99392284203759118 12.563621577475642 -1 0 0 I I #
point $-1 55.205542161320842 -0.99392284203759118 -12.563621577475642 #
point $-1 55.205542161320842 -0.99392284203759118 12.563621577475642 #
straight-curve $-1 55.205542161320842 0 -12.563621577475642 0 -1 0 I I #
straight-curve $-1 55.205542161320842 0 12.563621577475642 0 1 0 I I #
straight-curve $-1 -14.778198132255024 -26.121165996988879 30.63632614747987 0 0 -1 I I #
point $-1 -14.778198132255024 -26.121165996988875 12.563621577475642 #
straight-curve $-1 -4.7523819857855436 -26.121165996988875 2.7636931277540597 1 0 0 I I #
point $-1 -14.778198132255024 -26.121165996988875 2.7636931277540584 #
point $-1 -11.764807183292774 -20.550615630719154 6.0960395392246474 #
point $-1 -7.2447207598494003 -20.550615630719154 6.0960395392246474 #
straight-curve $-1 23.221002088079473 26.121165996988875 62.295069558014454 0 0 -1 I I #
point $-1 23.221002088079473 26.121165996988875 12.563621577475642 #
straight-curve $-1 8.6729205421952251 26.121165996988875 8.2113995623859442 -1 0 0 I I #
point $-1 23.221002088079473 26.121165996988879 8.2113995623859424 #
point $-1 14.827914939952286 20.519758375656387 6.8832088217734428 #
point $-1 19.8637672288286 20.519758375656387 6.8832088217734428 #
End-of-ACIS-data 