500 0 10 0           
7 Unknown 11 ACIS 5.0 NT 24 Thu Mar 25 16:08:17 1999 
-1 9.9999999999999995e-007 1e-010 
body $-1 $10 $-1 $11 #
body $-1 $12 $-1 $13 #
body $-1 $14 $-1 $15 #
body $-1 $16 $-1 $17 #
body $-1 $18 $-1 $19 #
body $-1 $20 $-1 $21 #
body $-1 $22 $-1 $23 #
body $-1 $24 $-1 $25 #
body $-1 $26 $-1 $27 #
body $-1 $28 $-1 $29 #
lump $-1 $-1 $30 $0 #
transform $-1 1 0 0 0 1 0 0 0 1 71.133762627033292 37.797911552836759 8.2759281180661048 1 rotate no_reflect no_shear #
lump $-1 $-1 $31 $1 #
transform $-1 1 0 0 0 1 0 0 0 1 71.133762627033292 37.797911552836759 8.2759281180661048 1 rotate no_reflect no_shear #
lump $-1 $-1 $32 $2 #
transform $-1 1 0 0 0 1 0 0 0 1 71.133762627033292 37.797911552836759 8.2759281180661048 1 rotate no_reflect no_shear #
lump $-1 $-1 $33 $3 #
transform $-1 1 0 0 0 1 0 0 0 1 71.133762627033292 37.797911552836759 8.2759281180661048 1 rotate no_reflect no_shear #
lump $-1 $-1 $34 $4 #
transform $-1 1 0 0 0 1 0 0 0 1 71.133762627033292 37.797911552836759 8.2759281180661048 1 rotate no_reflect no_shear #
lump $-1 $-1 $35 $5 #
transform $-1 1 0 0 0 1 0 0 0 1 71.133762627033292 37.797911552836759 8.2759281180661048 1 rotate no_reflect no_shear #
lump $-1 $-1 $36 $6 #
transform $-1 1 0 0 0 1 0 0 0 1 71.133762627033292 37.797911552836759 8.2759281180661048 1 rotate no_reflect no_shear #
lump $-1 $-1 $37 $7 #
transform $-1 1 0 0 0 1 0 0 0 1 71.133762627033292 37.797911552836759 8.2759281180661048 1 rotate no_reflect no_shear #
lump $-1 $-1 $38 $8 #
transform $-1 1 0 0 0 1 0 0 0 1 71.133762627033292 37.797911552836759 8.2759281180661048 1 rotate no_reflect no_shear #
lump $-1 $-1 $39 $9 #
transform $-1 1 0 0 0 1 0 0 0 1 71.133762627033292 37.797911552836759 8.2759281180661048 1 rotate no_reflect no_shear #
shell $-1 $-1 $-1 $40 $-1 $10 #
shell $-1 $-1 $-1 $41 $-1 $12 #
shell $-1 $-1 $-1 $42 $-1 $14 #
shell $-1 $-1 $-1 $43 $-1 $16 #
shell $-1 $-1 $-1 $44 $-1 $18 #
shell $-1 $-1 $-1 $45 $-1 $20 #
shell $-1 $-1 $-1 $46 $-1 $22 #
shell $-1 $-1 $-1 $47 $-1 $24 #
shell $-1 $-1 $-1 $48 $-1 $26 #
shell $-1 $-1 $-1 $49 $-1 $28 #
face $-1 $50 $51 $30 $-1 $52 forward single #
face $-1 $53 $54 $31 $-1 $55 forward single #
face $-1 $56 $57 $32 $-1 $58 forward single #
face $-1 $59 $60 $33 $-1 $61 reversed single #
face $-1 $62 $63 $34 $-1 $64 forward single #
face $-1 $65 $66 $35 $-1 $67 forward single #
face $-1 $68 $69 $36 $-1 $70 reversed single #
face $-1 $71 $72 $37 $-1 $73 forward single #
face $-1 $74 $75 $38 $-1 $76 reversed single #
face $-1 $77 $78 $39 $-1 $79 forward single #
face $-1 $80 $81 $30 $-1 $82 reversed single #
loop $-1 $-1 $83 $40 #
plane-surface $-1 0 0 8.2759281180661048 0 0 1 1 0 0 forward_v I I I I #
face $-1 $84 $85 $31 $-1 $86 reversed single #
loop $-1 $-1 $87 $41 #
plane-surface $-1 0 -33.609852960189485 -3.8505658045224957 0 0 1 1 0 0 forward_v I I I I #
face $-1 $88 $89 $32 $-1 $90 reversed single #
loop $-1 $-1 $91 $42 #
plane-surface $-1 0 33.609852960189492 -3.8505658045224957 0 0 1 1 0 0 forward_v I I I I #
face $-1 $92 $93 $33 $-1 $94 reversed single #
loop $-1 $-1 $95 $43 #
plane-surface $-1 106.07119944093105 14.008337583004174 199.18790940849658 0 -1 0 -0.81915205242281985 0 -0.57357642473473569 forward_v I I I I #
face $-1 $96 $97 $34 $-1 $98 forward single #
loop $-1 $99 $100 $44 #
cone-surface $-1 67.852827798529219 7.4076965364188254 4.1364896158299 -0.81915205242281985 0 -0.57357642473473569 0.57357642473473569 0 -0.81915205242281985 1 I I 0 1 1 forward I I I I #
face $-1 $101 $102 $35 $-1 $103 forward single #
loop $-1 $104 $105 $45 #
cone-surface $-1 67.852827798529219 11.368081164370039 4.1364896158299 -0.81915205242281985 0 -0.57357642473473569 0.57357642473473569 0 -0.81915205242281985 1 I I 0 1 1 forward I I I I #
face $-1 $106 $107 $36 $-1 $108 reversed single #
loop $-1 $-1 $109 $46 #
plane-surface $-1 -184.75366139148036 -24.872127219445701 90.257047259412147 0 1 0 -0.79863551827123203 0 0.60181501223851219 forward_v I I I I #
face $-1 $110 $111 $37 $-1 $112 forward single #
loop $-1 $113 $114 $47 #
cone-surface $-1 -69.143207237077689 -17.880352669962534 5.989928283054204 0.79863551827123203 0 -0.60181501223851219 0.3009075061192561 0 0.39931775913561601 1 I I 0 1 0.5 forward I I I I #
face $-1 $115 $116 $38 $-1 $117 reversed single #
loop $-1 $-1 $118 $48 #
plane-surface $-1 -184.75366139148036 10.888578120479371 90.257047259412147 0 1 0 -0.79863551827123203 0 0.60181501223851219 forward_v I I I I #
face $-1 $119 $120 $39 $-1 $121 forward single #
loop $-1 $122 $123 $49 #
cone-surface $-1 -69.143207237077689 17.880352669962541 5.989928283054204 0.79863551827123203 0 -0.60181501223851219 0.3009075061192561 0 0.39931775913561601 1 I I 0 1 0.5 forward I I I I #
face $-1 $124 $125 $30 $-1 $126 reversed single #
loop $-1 $-1 $127 $50 #
plane-surface $-1 0 0 -8.2759281180661048 0 0 1 1 0 0 forward_v I I I I #
coedge $-1 $128 $129 $130 $131 forward $51 $-1 #
face $-1 $132 $133 $31 $-1 $134 reversed single #
loop $-1 $-1 $135 $53 #
plane-surface $-1 0 -29.421794367542212 -6.0632469612943005 0 -1 0 0 0 -1 forward_v I I I I #
coedge $-1 $136 $137 $138 $139 reversed $54 $-1 #
face $-1 $140 $141 $32 $-1 $142 reversed single #
loop $-1 $-1 $143 $56 #
plane-surface $-1 0 29.421794367542219 -6.0632469612943005 0 1 0 0 0 1 forward_v I I I I #
coedge $-1 $144 $145 $146 $147 reversed $57 $-1 #
face $-1 $148 $149 $33 $-1 $150 reversed single #
loop $-1 $-1 $151 $59 #
plane-surface $-1 -10.467535864052948 9.3878888503944253 117.58661091741035 0.81915205242281985 0 0.57357642473473569 0.57357642473473569 0 -0.81915205242281985 forward_v I I I I #
coedge $-1 $152 $153 $154 $155 reversed $60 $-1 #
face $-1 $-1 $156 $34 $-1 $157 forward single #
loop $-1 $158 $159 $62 #
cone-surface $-1 66.692885292948404 7.4076965364188254 3.3242891540461841 -0.81915205242281985 0 -0.57357642473473569 0.28678821236736785 0 -0.40957602621140993 1 I I -0.70710678118654746 0.70710678118654746 0.5 forward I I I I #
loop $-1 $-1 $160 $44 #
coedge $-1 $100 $100 $161 $162 reversed $63 $-1 #
face $-1 $-1 $163 $35 $-1 $164 forward single #
loop $-1 $165 $166 $65 #
cone-surface $-1 66.692885292948404 11.368081164370039 3.3242891540461841 -0.81915205242281985 0 -0.57357642473473569 0.28678821236736785 0 -0.40957602621140993 1 I I -0.70710678118654746 0.70710678118654746 0.5 forward I I I I #
loop $-1 $-1 $167 $45 #
coedge $-1 $105 $105 $168 $169 reversed $66 $-1 #
face $-1 $170 $171 $36 $-1 $172 reversed single #
loop $-1 $-1 $173 $68 #
plane-surface $-1 -71.133762627033306 -17.880352669962534 4.6383148074932166 -0.79863551827123203 0 0.60181501223851219 0.60181501223851219 0 0.79863551827123203 forward_v I I I I #
coedge $-1 $174 $175 $176 $177 reversed $69 $-1 #
face $-1 $-1 $178 $37 $-1 $179 forward single #
loop $-1 $180 $181 $71 #
cone-surface $-1 -68.323562050031484 -17.880352669962534 5.3722813502691178 0.79863551827123203 0 -0.60181501223851219 0.15045375305962805 0 0.19965887956780801 1 I I -0.70710678118654746 0.70710678118654746 0.25 forward I I I I #
loop $-1 $-1 $182 $47 #
coedge $-1 $114 $114 $183 $184 reversed $72 $-1 #
face $-1 $185 $186 $38 $-1 $187 reversed single #
loop $-1 $-1 $188 $74 #
plane-surface $-1 -71.133762627033306 17.880352669962541 4.6383148074932166 -0.79863551827123203 0 0.60181501223851219 0.60181501223851219 0 0.79863551827123203 forward_v I I I I #
coedge $-1 $189 $190 $191 $192 reversed $75 $-1 #
face $-1 $-1 $193 $39 $-1 $194 forward single #
loop $-1 $195 $196 $77 #
cone-surface $-1 -68.323562050031484 17.880352669962541 5.3722813502691178 0.79863551827123203 0 -0.60181501223851219 0.15045375305962805 0 0.19965887956780801 1 I I -0.70710678118654746 0.70710678118654746 0.25 forward I I I I #
loop $-1 $-1 $197 $49 #
coedge $-1 $123 $123 $198 $199 reversed $78 $-1 #
face $-1 $200 $201 $30 $-1 $202 reversed single #
loop $-1 $-1 $203 $80 #
plane-surface $-1 0 -37.797911552836759 0 0 1 0 0 0 1 forward_v I I I I #
coedge $-1 $204 $205 $206 $207 forward $81 $-1 #
coedge $-1 $208 $83 $209 $210 forward $51 $-1 #
coedge $-1 $83 $208 $211 $212 forward $51 $-1 #
coedge $-1 $213 $214 $83 $131 reversed $215 $-1 #
edge $-1 $216 -37.797911552836759 $217 37.797911552836759 $130 $218 forward 7 unknown #
face $-1 $219 $220 $31 $-1 $221 reversed single #
loop $-1 $-1 $222 $84 #
plane-surface $-1 0 0 -8.2759281180661048 0 0 1 1 0 0 forward_v I I I I #
coedge $-1 $223 $224 $225 $226 reversed $85 $-1 #
coedge $-1 $227 $87 $224 $228 forward $54 $-1 #
coedge $-1 $87 $227 $229 $230 reversed $54 $-1 #
coedge $-1 $231 $225 $87 $139 forward $220 $-1 #
edge $-1 $232 12.616867887447469 $233 20.992985072742016 $138 $234 forward 7 unknown #
face $-1 $235 $236 $32 $-1 $237 reversed single #
loop $-1 $-1 $146 $88 #
plane-surface $-1 71.133762627033292 0 0 -1 0 0 0 0 1 forward_v I I I I #
coedge $-1 $238 $239 $240 $241 reversed $89 $-1 #
coedge $-1 $242 $91 $243 $244 reversed $57 $-1 #
coedge $-1 $91 $242 $239 $245 forward $57 $-1 #
coedge $-1 $246 $247 $91 $147 forward $141 $-1 #
edge $-1 $248 -20.99298507274202 $249 -12.616867887447473 $146 $250 forward 7 unknown #
face $-1 $251 $252 $33 $-1 $253 forward single #
loop $-1 $-1 $254 $92 #
plane-surface $-1 106.07119944093105 4.7674401177846768 199.18790940849658 0 1 0 0.81915205242281985 0 0.57357642473473569 forward_v I I I I #
coedge $-1 $255 $256 $257 $258 reversed $93 $-1 #
coedge $-1 $153 $95 $259 $260 reversed $60 $-1 #
coedge $-1 $95 $152 $255 $261 reversed $60 $-1 #
coedge $-1 $257 $262 $95 $155 forward $252 $-1 #
edge $-1 $263 -18.098162906567765 $264 -13.0370262082984 $154 $265 forward 7 unknown #
loop $-1 $-1 $161 $96 #
plane-surface $-1 -10.467535864052948 9.3878888503944253 117.58661091741035 0.81915205242281985 0 0.57357642473473569 0.57357642473473569 0 -0.81915205242281985 forward_v I I I I #
loop $-1 $-1 $266 $62 #
coedge $-1 $159 $159 $160 $267 reversed $97 $-1 #
coedge $-1 $160 $160 $159 $267 forward $99 $-1 #
coedge $-1 $161 $161 $100 $162 forward $156 $-1 #
edge $-1 $268 0 $268 6.2831853071796004 $161 $269 forward 7 unknown #
loop $-1 $-1 $168 $101 #
plane-surface $-1 -10.467535864052948 9.3878888503944253 117.58661091741035 0.81915205242281985 0 0.57357642473473569 0.57357642473473569 0 -0.81915205242281985 forward_v I I I I #
loop $-1 $-1 $270 $65 #
coedge $-1 $166 $166 $167 $271 reversed $102 $-1 #
coedge $-1 $167 $167 $166 $271 forward $104 $-1 #
coedge $-1 $168 $168 $105 $169 forward $163 $-1 #
edge $-1 $272 0 $272 6.2831853071796004 $168 $273 forward 7 unknown #
face $-1 $274 $275 $36 $-1 $276 reversed single #
loop $-1 $-1 $277 $106 #
plane-surface $-1 -184.75366139148036 -10.888578120479364 90.257047259412147 0 -1 0 0.79863551827123203 0 -0.60181501223851219 forward_v I I I I #
coedge $-1 $278 $279 $280 $281 reversed $107 $-1 #
coedge $-1 $175 $109 $282 $283 reversed $69 $-1 #
coedge $-1 $109 $174 $278 $284 reversed $69 $-1 #
coedge $-1 $280 $285 $109 $177 forward $286 $-1 #
edge $-1 $287 21.24306806870689 $288 23.984206233661254 $176 $289 forward 7 unknown #
loop $-1 $-1 $183 $110 #
plane-surface $-1 -71.133762627033306 -17.880352669962534 4.6383148074932166 -0.79863551827123203 0 0.60181501223851219 0.60181501223851219 0 0.79863551827123203 forward_v I I I I #
loop $-1 $-1 $290 $71 #
coedge $-1 $181 $181 $182 $291 reversed $111 $-1 #
coedge $-1 $182 $182 $181 $291 forward $113 $-1 #
coedge $-1 $183 $183 $114 $184 forward $178 $-1 #
edge $-1 $292 0 $292 6.2831853071796004 $183 $293 forward 7 unknown #
face $-1 $294 $295 $38 $-1 $296 forward single #
loop $-1 $-1 $297 $115 #
plane-surface $-1 -184.75366139148036 24.872127219445709 90.257047259412147 0 -1 0 0.79863551827123203 0 -0.60181501223851219 forward_v I I I I #
coedge $-1 $298 $299 $300 $301 reversed $116 $-1 #
coedge $-1 $190 $118 $302 $303 reversed $75 $-1 #
coedge $-1 $118 $189 $298 $304 reversed $75 $-1 #
coedge $-1 $300 $305 $118 $192 forward $295 $-1 #
edge $-1 $306 21.24306806870689 $307 23.984206233661254 $191 $308 forward 7 unknown #
loop $-1 $-1 $198 $119 #
plane-surface $-1 -71.133762627033306 17.880352669962541 4.6383148074932166 -0.79863551827123203 0 0.60181501223851219 0.60181501223851219 0 0.79863551827123203 forward_v I I I I #
loop $-1 $-1 $309 $77 #
coedge $-1 $196 $196 $197 $310 reversed $120 $-1 #
coedge $-1 $197 $197 $196 $310 forward $122 $-1 #
coedge $-1 $198 $198 $123 $199 forward $193 $-1 #
edge $-1 $311 0 $311 6.2831853071796004 $198 $312 forward 7 unknown #
face $-1 $313 $314 $30 $-1 $315 reversed single #
loop $-1 $-1 $316 $124 #
plane-surface $-1 -71.133762627033292 0 0 1 0 0 0 0 -1 forward_v I I I I #
coedge $-1 $317 $211 $318 $319 forward $125 $-1 #
coedge $-1 $320 $127 $317 $321 forward $81 $-1 #
coedge $-1 $127 $320 $322 $323 forward $81 $-1 #
coedge $-1 $214 $213 $127 $207 reversed $215 $-1 #
edge $-1 $324 -37.797911552836759 $325 37.797911552836759 $206 $326 forward 7 unknown #
coedge $-1 $129 $128 $327 $328 forward $51 $-1 #
coedge $-1 $329 $330 $128 $210 reversed $314 $-1 #
edge $-1 $217 -71.133762627033292 $331 71.133762627033292 $209 $332 forward 7 unknown #
coedge $-1 $203 $333 $129 $212 reversed $125 $-1 #
edge $-1 $334 -71.133762627033292 $216 71.133762627033292 $211 $335 forward 7 unknown #
coedge $-1 $206 $130 $333 $336 forward $215 $-1 #
coedge $-1 $130 $206 $329 $337 reversed $215 $-1 #
loop $-1 $-1 $213 $313 #
vertex $-1 $131 $338 #
vertex $-1 $131 $339 #
straight-curve $-1 71.133762627033292 0 8.2759281180661048 0 1 0 I I #
face $-1 $340 $341 $31 $-1 $342 reversed single #
loop $-1 $-1 $225 $132 #
plane-surface $-1 71.133762627033292 0 0 -1 0 0 0 0 1 forward_v I I I I #
coedge $-1 $343 $344 $223 $345 forward $133 $-1 #
coedge $-1 $346 $135 $222 $345 reversed $85 $-1 #
coedge $-1 $135 $346 $136 $228 reversed $85 $-1 #
coedge $-1 $138 $347 $135 $226 forward $220 $-1 #
edge $-1 $348 -5.2443046374189546 $232 -0.81894232387534549 $225 $349 forward 7 unknown #
coedge $-1 $137 $136 $350 $351 reversed $54 $-1 #
edge $-1 $232 -71.133762627033292 $352 71.133762627033292 $224 $353 forward 7 unknown #
coedge $-1 $354 $355 $137 $230 forward $341 $-1 #
edge $-1 $233 -71.133762627033292 $356 71.133762627033292 $229 $357 forward 7 unknown #
coedge $-1 $347 $138 $355 $358 forward $220 $-1 #
vertex $-1 $139 $359 #
vertex $-1 $358 $360 #
straight-curve $-1 71.133762627033292 -16.804926480094743 -3.8505658045224957 0 -1 0 I I #
face $-1 $361 $362 $32 $-1 $363 reversed single #
loop $-1 $-1 $364 $140 #
plane-surface $-1 0 0 -8.2759281180661048 0 0 1 1 0 0 forward_v I I I I #
coedge $-1 $365 $143 $364 $366 reversed $89 $-1 #
coedge $-1 $143 $365 $145 $245 reversed $89 $-1 #
coedge $-1 $367 $368 $143 $241 forward $362 $-1 #
edge $-1 $369 -5.2443046374189546 $370 -0.81894232387534549 $240 $371 forward 7 unknown #
coedge $-1 $145 $144 $367 $372 reversed $57 $-1 #
coedge $-1 $373 $374 $144 $244 forward $375 $-1 #
edge $-1 $376 -71.133762627033292 $248 71.133762627033292 $243 $377 forward 7 unknown #
edge $-1 $370 -71.133762627033292 $249 71.133762627033292 $239 $378 forward 7 unknown #
coedge $-1 $379 $146 $365 $380 forward $141 $-1 #
coedge $-1 $146 $379 $373 $381 reversed $141 $-1 #
vertex $-1 $381 $382 #
vertex $-1 $147 $383 #
straight-curve $-1 71.133762627033292 16.804926480094746 -3.8505658045224957 0 -1 0 I I #
face $-1 $-1 $384 $33 $-1 $385 reversed single #
loop $-1 $-1 $154 $148 #
plane-surface $-1 0 0 8.2759281180661048 0 0 1 1 0 0 forward_v I I I I #
coedge $-1 $386 $387 $388 $389 reversed $149 $-1 #
coedge $-1 $390 $151 $153 $261 forward $93 $-1 #
coedge $-1 $151 $390 $386 $391 forward $93 $-1 #
coedge $-1 $388 $154 $151 $258 forward $252 $-1 #
edge $-1 $264 -9.3143931578069612 $392 -0.073495692587464134 $257 $393 forward 7 unknown #
coedge $-1 $394 $395 $152 $260 forward $384 $-1 #
edge $-1 $396 -98.546079091821952 $263 -91.318026586182185 $259 $397 forward 7 unknown #
edge $-1 $264 133.4437025165648 $396 142.26752525406664 $153 $398 forward 7 unknown #
coedge $-1 $154 $388 $394 $399 forward $252 $-1 #
vertex $-1 $260 $400 #
vertex $-1 $155 $401 #
straight-curve $-1 53.035599720465527 14.008337583004174 8.2759281180661048 -1 0 0 I I #
coedge $-1 $266 $266 $-1 $402 reversed $158 $-1 #
edge $-1 $403 0 $403 6.2831853071796004 $159 $404 forward 7 unknown #
vertex $-1 $162 $405 #
ellipse-curve $-1 68.603194277898595 7.4076965364188254 4.6619018652462323 0.81915205242281985 0 0.57357642473473569 0.57357642473473569 0 -0.81915205242281985 1 I I #
coedge $-1 $270 $270 $-1 $406 reversed $165 $-1 #
edge $-1 $407 0 $407 6.2831853071796004 $166 $408 forward 7 unknown #
vertex $-1 $169 $409 #
ellipse-curve $-1 68.603194277898595 11.368081164370039 4.6619018652462323 0.81915205242281985 0 0.57357642473473569 0.57357642473473569 0 -0.81915205242281985 1 I I #
face $-1 $-1 $286 $36 $-1 $410 forward single #
loop $-1 $-1 $411 $170 #
plane-surface $-1 -71.133762627033292 0 0 1 0 0 0 0 -1 forward_v I I I I #
coedge $-1 $412 $413 $414 $415 reversed $171 $-1 #
coedge $-1 $416 $173 $175 $284 forward $107 $-1 #
coedge $-1 $173 $416 $412 $417 forward $107 $-1 #
coedge $-1 $414 $176 $173 $281 forward $286 $-1 #
edge $-1 $288 -15.931950884464435 $418 -1.9484017854980973 $280 $419 forward 7 unknown #
coedge $-1 $420 $421 $174 $283 forward $275 $-1 #
edge $-1 $422 -40.490208822212836 $287 -36.852595511639969 $282 $423 forward 7 unknown #
edge $-1 $288 -4.5547852898491827 $422 -2.3448253187574213e-014 $175 $424 forward 7 unknown #
coedge $-1 $176 $414 $420 $425 forward $286 $-1 #
loop $-1 $-1 $414 $274 #
vertex $-1 $283 $426 #
vertex $-1 $177 $427 #
straight-curve $-1 -92.376830695740182 -24.872127219445701 8.2759281180661048 1 0 0 I I #
coedge $-1 $290 $290 $-1 $428 reversed $180 $-1 #
edge $-1 $429 0 $429 6.2831853071796004 $181 $430 forward 7 unknown #
vertex $-1 $184 $431 #
ellipse-curve $-1 -69.763193544556103 -17.880352669962534 6.4571214627796714 -0.79863551827123203 0 0.60181501223851219 0.3009075061192561 0 0.39931775913561601 1 I I #
face $-1 $-1 $432 $38 $-1 $433 reversed single #
loop $-1 $-1 $191 $185 #
plane-surface $-1 0 0 8.2759281180661048 0 0 1 1 0 0 forward_v I I I I #
coedge $-1 $434 $435 $436 $437 reversed $186 $-1 #
coedge $-1 $438 $188 $190 $304 forward $116 $-1 #
coedge $-1 $188 $438 $434 $439 forward $116 $-1 #
coedge $-1 $436 $191 $188 $301 forward $295 $-1 #
edge $-1 $307 1.9484017854981008 $440 15.931950884464438 $300 $441 forward 7 unknown #
coedge $-1 $442 $443 $189 $303 forward $432 $-1 #
edge $-1 $444 -40.490208822212836 $306 -36.852595511639969 $302 $445 forward 7 unknown #
edge $-1 $307 -4.5547852898491827 $444 -2.3448253187574213e-014 $190 $446 forward 7 unknown #
coedge $-1 $191 $436 $442 $447 forward $295 $-1 #
vertex $-1 $303 $448 #
vertex $-1 $192 $449 #
straight-curve $-1 -92.376830695740182 10.888578120479371 8.2759281180661048 1 0 0 I I #
coedge $-1 $309 $309 $-1 $450 reversed $195 $-1 #
edge $-1 $451 0 $451 6.2831853071796004 $196 $452 forward 7 unknown #
vertex $-1 $199 $453 #
ellipse-curve $-1 -69.763193544556103 17.880352669962541 6.4571214627796714 -0.79863551827123203 0 0.60181501223851219 0.3009075061192561 0 0.39931775913561601 1 I I #
face $-1 $-1 $215 $30 $-1 $454 reversed single #
loop $-1 $-1 $329 $200 #
plane-surface $-1 0 37.797911552836759 0 0 -1 0 0 0 -1 forward_v I I I I #
coedge $-1 $455 $327 $330 $456 forward $201 $-1 #
coedge $-1 $333 $203 $204 $321 reversed $125 $-1 #
coedge $-1 $327 $455 $203 $319 reversed $201 $-1 #
edge $-1 $334 -8.2759281180661048 $457 8.2759281180661048 $318 $458 forward 7 unknown #
coedge $-1 $205 $204 $455 $459 forward $81 $-1 #
edge $-1 $325 -71.133762627033292 $457 71.133762627033292 $317 $460 forward 7 unknown #
coedge $-1 $330 $329 $205 $323 reversed $314 $-1 #
edge $-1 $461 -71.133762627033292 $324 71.133762627033292 $322 $462 forward 7 unknown #
vertex $-1 $207 $463 #
vertex $-1 $336 $464 #
straight-curve $-1 71.133762627033292 0 -8.2759281180661048 0 -1 0 I I #
coedge $-1 $316 $318 $208 $328 reversed $201 $-1 #
edge $-1 $331 -37.797911552836759 $334 37.797911552836759 $327 $465 forward 7 unknown #
coedge $-1 $322 $209 $214 $337 forward $314 $-1 #
coedge $-1 $209 $322 $316 $456 reversed $314 $-1 #
vertex $-1 $210 $466 #
straight-curve $-1 0 37.797911552836759 8.2759281180661048 -1 0 0 I I #
coedge $-1 $211 $317 $213 $336 reversed $125 $-1 #
vertex $-1 $328 $467 #
straight-curve $-1 0 -37.797911552836759 8.2759281180661048 1 0 0 I I #
edge $-1 $216 -8.2759281180661048 $325 8.2759281180661048 $213 $468 forward 7 unknown #
edge $-1 $217 -8.2759281180661048 $324 8.2759281180661048 $214 $469 forward 7 unknown #
point $-1 71.133762627033292 -37.797911552836759 8.2759281180661048 #
point $-1 71.133762627033292 37.797911552836759 8.2759281180661048 #
face $-1 $-1 $470 $31 $-1 $471 reversed single #
loop $-1 $-1 $229 $219 #
plane-surface $-1 0 -37.797911552836759 0 0 1 0 0 0 1 forward_v I I I I #
coedge $-1 $472 $222 $347 $473 forward $133 $-1 #
coedge $-1 $222 $472 $474 $475 forward $133 $-1 #
edge $-1 $476 -71.133762627033292 $348 71.133762627033292 $222 $477 forward 7 unknown #
coedge $-1 $224 $223 $478 $479 reversed $85 $-1 #
coedge $-1 $225 $231 $343 $473 reversed $220 $-1 #
vertex $-1 $473 $480 #
straight-curve $-1 71.133762627033292 -29.421794367542212 -3.0316234806471503 0 0 1 I I #
coedge $-1 $478 $481 $227 $351 forward $470 $-1 #
edge $-1 $356 -20.992985072742016 $352 -12.616867887447469 $350 $482 forward 7 unknown #
vertex $-1 $351 $483 #
straight-curve $-1 0 -29.421794367542212 -3.8505658045224957 -1 0 0 I I #
coedge $-1 $484 $229 $481 $485 forward $341 $-1 #
coedge $-1 $229 $484 $231 $358 reversed $341 $-1 #
vertex $-1 $485 $486 #
straight-curve $-1 0 -37.797911552836759 -3.8505658045224957 -1 0 0 I I #
edge $-1 $233 3.8505658045224957 $487 8.2759281180661048 $231 $488 forward 7 unknown #
point $-1 71.133762627033292 -29.421794367542212 -3.8505658045224957 #
point $-1 71.133762627033292 -37.797911552836759 -3.8505658045224957 #
face $-1 $-1 $375 $32 $-1 $489 reversed single #
loop $-1 $-1 $367 $235 #
plane-surface $-1 -71.133762627033292 0 0 1 0 0 0 0 -1 forward_v I I I I #
coedge $-1 $490 $491 $238 $366 forward $236 $-1 #
coedge $-1 $239 $238 $246 $380 reversed $89 $-1 #
edge $-1 $492 -71.133762627033292 $369 71.133762627033292 $364 $493 forward 7 unknown #
coedge $-1 $494 $240 $242 $372 forward $362 $-1 #
coedge $-1 $240 $494 $490 $495 reversed $362 $-1 #
vertex $-1 $495 $496 #
vertex $-1 $372 $497 #
straight-curve $-1 -71.133762627033292 29.421794367542219 -3.0316234806471503 0 0 1 I I #
edge $-1 $370 12.616867887447473 $376 20.99298507274202 $367 $498 forward 7 unknown #
coedge $-1 $499 $243 $247 $381 forward $375 $-1 #
coedge $-1 $243 $499 $494 $500 reversed $375 $-1 #
loop $-1 $-1 $243 $361 #
vertex $-1 $500 $501 #
straight-curve $-1 0 37.797911552836759 -3.8505658045224957 1 0 0 I I #
straight-curve $-1 0 29.421794367542219 -3.8505658045224957 1 0 0 I I #
coedge $-1 $247 $246 $491 $502 reversed $141 $-1 #
edge $-1 $249 0.81894232387534549 $492 5.2443046374189546 $246 $503 forward 7 unknown #
edge $-1 $248 3.8505658045224957 $504 8.2759281180661048 $247 $505 forward 7 unknown #
point $-1 71.133762627033292 37.797911552836766 -3.8505658045224957 #
point $-1 71.133762627033292 29.421794367542219 -3.8505658045224957 #
loop $-1 $-1 $259 $251 #
plane-surface $-1 71.133762627033292 0 0 -1 0 0 0 0 1 forward_v I I I I #
coedge $-1 $387 $254 $256 $391 reversed $149 $-1 #
coedge $-1 $254 $386 $506 $507 reversed $149 $-1 #
coedge $-1 $262 $257 $254 $389 forward $252 $-1 #
edge $-1 $392 13.0370262082984 $508 18.098162906567765 $388 $509 forward 7 unknown #
coedge $-1 $256 $255 $395 $510 reversed $93 $-1 #
edge $-1 $511 -142.26752525406664 $392 -133.4437025165648 $386 $512 forward 7 unknown #
vertex $-1 $258 $513 #
straight-curve $-1 66.072625928763941 4.6939444251972127 8.2759281180661048 0 -1 0 I I #
coedge $-1 $506 $259 $262 $399 reversed $384 $-1 #
coedge $-1 $259 $506 $390 $510 forward $384 $-1 #
vertex $-1 $260 $514 #
straight-curve $-1 71.133762627033292 14.008337583004174 99.59395470424829 0 0 1 I I #
straight-curve $-1 -10.467535864052948 14.008337583004174 117.58661091741035 0.57357642473473569 0 -0.81915205242281985 I I #
edge $-1 $508 4.7674401177846768 $263 14.008337583004174 $394 $515 forward 7 unknown #
point $-1 71.133762627033292 14.008337583004174 8.2759281180661048 #
point $-1 66.072625928763927 14.008337583004174 8.2759281180661191 #
edge $-1 $516 1 $516 0 $266 $-1 forward 7 unknown #
vertex $-1 $267 $517 #
ellipse-curve $-1 67.102461319159815 7.4076965364188254 3.6110773664135518 0.81915205242281985 0 0.57357642473473569 0.57357642473473569 0 -0.81915205242281985 1 I I #
point $-1 69.176770702633348 7.4076965364188254 3.8427498128234272 #
edge $-1 $518 1 $518 0 $270 $-1 forward 7 unknown #
vertex $-1 $271 $519 #
ellipse-curve $-1 67.102461319159815 11.368081164370039 3.6110773664135518 0.81915205242281985 0 0.57357642473473569 0.57357642473473569 0 -0.81915205242281985 1 I I #
point $-1 69.176770702633348 11.368081164370039 3.8427498128234272 #
plane-surface $-1 0 0 8.2759281180661048 0 0 1 1 0 0 forward_v I I I I #
coedge $-1 $421 $420 $413 $520 forward $275 $-1 #
coedge $-1 $413 $277 $279 $417 reversed $171 $-1 #
coedge $-1 $277 $412 $411 $520 reversed $171 $-1 #
coedge $-1 $285 $280 $277 $415 forward $286 $-1 #
edge $-1 $418 -23.984206233661254 $521 -21.24306806870689 $414 $522 forward 7 unknown #
coedge $-1 $279 $278 $421 $523 reversed $107 $-1 #
edge $-1 $524 2.3448253187574213e-014 $418 4.5547852898491827 $412 $525 forward 7 unknown #
vertex $-1 $281 $526 #
straight-curve $-1 -68.392624462078928 -8.9401763349812668 8.2759281180661066 0 1 0 I I #
coedge $-1 $411 $282 $285 $425 reversed $275 $-1 #
coedge $-1 $282 $411 $416 $523 forward $275 $-1 #
vertex $-1 $283 $527 #
straight-curve $-1 -71.133762627033292 -24.872127219445701 45.128523629706073 0 0 1 I I #
straight-curve $-1 -71.133762627033306 -24.872127219445701 4.6383148074932166 -0.60181501223851219 0 -0.79863551827123203 I I #
edge $-1 $521 10.888578120479364 $287 24.872127219445701 $420 $528 forward 7 unknown #
point $-1 -71.133762627033292 -24.872127219445701 8.2759281180661048 #
point $-1 -68.392624462078928 -24.872127219445701 8.2759281180661048 #
edge $-1 $529 1 $529 0 $290 $-1 forward 7 unknown #
vertex $-1 $291 $530 #
ellipse-curve $-1 -68.52322092959929 -17.880352669962534 5.5227351033287455 -0.79863551827123203 0 0.60181501223851219 0.3009075061192561 0 0.39931775913561601 1 I I #
point $-1 -69.462286038436844 -17.880352669962534 6.8564392219152781 #
loop $-1 $-1 $302 $294 #
plane-surface $-1 -71.133762627033292 0 0 1 0 0 0 0 -1 forward_v I I I I #
coedge $-1 $435 $297 $299 $439 reversed $186 $-1 #
coedge $-1 $297 $434 $531 $532 reversed $186 $-1 #
coedge $-1 $305 $300 $297 $437 forward $295 $-1 #
edge $-1 $440 -23.984206233661254 $533 -21.24306806870689 $436 $534 forward 7 unknown #
coedge $-1 $299 $298 $443 $535 reversed $116 $-1 #
edge $-1 $536 2.3448253187574213e-014 $440 4.5547852898491827 $434 $537 forward 7 unknown #
vertex $-1 $301 $538 #
straight-curve $-1 -68.392624462078928 8.9401763349812704 8.2759281180661066 0 1 0 I I #
coedge $-1 $531 $302 $305 $447 reversed $432 $-1 #
coedge $-1 $302 $531 $438 $535 forward $432 $-1 #
vertex $-1 $303 $539 #
straight-curve $-1 -71.133762627033292 10.888578120479371 45.128523629706073 0 0 1 I I #
straight-curve $-1 -71.133762627033306 10.888578120479371 4.6383148074932166 -0.60181501223851219 0 -0.79863551827123203 I I #
edge $-1 $533 -24.872127219445709 $306 -10.888578120479371 $442 $540 forward 7 unknown #
point $-1 -71.133762627033292 10.888578120479371 8.2759281180661048 #
point $-1 -68.392624462078928 10.888578120479371 8.2759281180661048 #
edge $-1 $541 1 $541 0 $309 $-1 forward 7 unknown #
vertex $-1 $310 $542 #
ellipse-curve $-1 -68.52322092959929 17.880352669962541 5.5227351033287455 -0.79863551827123203 0 0.60181501223851219 0.3009075061192561 0 0.39931775913561601 1 I I #
point $-1 -69.462286038436844 17.880352669962541 6.8564392219152781 #
plane-surface $-1 71.133762627033292 0 0 -1 0 0 0 0 1 forward_v I I I I #
coedge $-1 $318 $316 $320 $459 reversed $201 $-1 #
edge $-1 $331 -8.2759281180661048 $461 8.2759281180661048 $330 $543 forward 7 unknown #
vertex $-1 $459 $544 #
straight-curve $-1 -71.133762627033292 -37.797911552836759 0 0 0 -1 I I #
edge $-1 $457 -37.797911552836759 $461 37.797911552836759 $455 $545 forward 7 unknown #
straight-curve $-1 0 -37.797911552836759 -8.2759281180661048 -1 0 0 I I #
vertex $-1 $323 $546 #
straight-curve $-1 0 37.797911552836759 -8.2759281180661048 1 0 0 I I #
point $-1 71.133762627033292 37.797911552836759 -8.2759281180661048 #
point $-1 71.133762627033292 -37.797911552836759 -8.2759281180661048 #
straight-curve $-1 -71.133762627033292 0 8.2759281180661048 0 -1 0 I I #
point $-1 -71.133762627033292 37.797911552836759 8.2759281180661048 #
point $-1 -71.133762627033292 -37.797911552836759 8.2759281180661048 #
straight-curve $-1 71.133762627033292 -37.797911552836759 0 0 0 -1 I I #
straight-curve $-1 71.133762627033292 37.797911552836759 0 0 0 -1 I I #
loop $-1 $-1 $478 $340 #
plane-surface $-1 -71.133762627033292 0 0 1 0 0 0 0 -1 forward_v I I I I #
coedge $-1 $344 $343 $484 $547 forward $133 $-1 #
edge $-1 $348 29.421794367542212 $487 37.797911552836759 $347 $548 forward 7 unknown #
coedge $-1 $481 $478 $344 $475 reversed $470 $-1 #
edge $-1 $549 -37.797911552836759 $476 -29.421794367542212 $474 $550 forward 7 unknown #
vertex $-1 $479 $551 #
straight-curve $-1 0 -29.421794367542212 -8.2759281180661048 1 0 0 I I #
coedge $-1 $474 $350 $346 $479 forward $470 $-1 #
edge $-1 $352 0.81894232387534549 $476 5.2443046374189546 $478 $552 forward 7 unknown #
point $-1 71.133762627033292 -29.421794367542212 -8.2759281180661048 #
coedge $-1 $350 $474 $354 $485 reversed $470 $-1 #
straight-curve $-1 -71.133762627033292 -16.804926480094743 -3.8505658045224957 0 1 0 I I #
point $-1 -71.133762627033292 -29.421794367542212 -3.8505658045224957 #
coedge $-1 $355 $354 $472 $547 reversed $341 $-1 #
edge $-1 $356 3.8505658045224957 $549 8.2759281180661048 $481 $553 forward 7 unknown #
point $-1 -71.133762627033292 -37.797911552836759 -3.8505658045224957 #
vertex $-1 $358 $554 #
straight-curve $-1 71.133762627033292 -37.797911552836759 0 0 0 -1 I I #
plane-surface $-1 0 37.797911552836759 0 0 -1 0 0 0 -1 forward_v I I I I #
coedge $-1 $555 $364 $368 $495 forward $236 $-1 #
coedge $-1 $364 $555 $379 $502 forward $236 $-1 #
vertex $-1 $366 $556 #
straight-curve $-1 0 29.421794367542219 -8.2759281180661048 -1 0 0 I I #
coedge $-1 $368 $367 $374 $500 forward $362 $-1 #
edge $-1 $369 29.421794367542219 $557 37.797911552836759 $368 $558 forward 7 unknown #
point $-1 -71.133762627033292 29.421794367542219 -8.2759281180661048 #
point $-1 -71.133762627033292 29.421794367542219 -3.8505658045224957 #
straight-curve $-1 -71.133762627033292 16.804926480094746 -3.8505658045224957 0 1 0 I I #
coedge $-1 $374 $373 $555 $559 reversed $375 $-1 #
edge $-1 $376 3.8505658045224957 $557 8.2759281180661048 $374 $560 forward 7 unknown #
point $-1 -71.133762627033292 37.797911552836766 -3.8505658045224957 #
edge $-1 $504 -37.797911552836759 $492 -29.421794367542219 $379 $561 forward 7 unknown #
straight-curve $-1 71.133762627033292 29.421794367542219 -3.0316234806471503 0 0 -1 I I #
vertex $-1 $502 $562 #
straight-curve $-1 71.133762627033292 37.797911552836759 0 0 0 -1 I I #
coedge $-1 $395 $394 $387 $507 forward $384 $-1 #
edge $-1 $508 91.318026586182185 $511 98.546079091821952 $506 $563 forward 7 unknown #
vertex $-1 $399 $564 #
straight-curve $-1 53.035599720465527 4.7674401177846768 8.2759281180661048 1 0 0 I I #
edge $-1 $511 0.073495692587464134 $396 9.3143931578069612 $395 $565 forward 7 unknown #
vertex $-1 $510 $566 #
straight-curve $-1 -10.467535864052948 4.7674401177846768 117.58661091741035 -0.57357642473473569 0 0.81915205242281985 I I #
point $-1 66.072625928763927 4.7674401177846768 8.2759281180661191 #
point $-1 71.133762627033306 14.008337583004174 1.0478756124263384 #
straight-curve $-1 71.133762627033292 0 8.2759281180661048 0 1 0 I I #
vertex $-1 $402 $567 #
point $-1 67.676037743894554 7.4076965364188254 2.7919253139907321 #
vertex $-1 $406 $568 #
point $-1 67.676037743894554 11.368081164370039 2.7919253139907321 #
edge $-1 $521 36.852595511639969 $524 40.490208822212836 $411 $569 forward 7 unknown #
vertex $-1 $425 $570 #
straight-curve $-1 -92.376830695740182 -10.888578120479364 8.2759281180661048 -1 0 0 I I #
edge $-1 $524 1.9484017854980973 $422 15.931950884464435 $421 $571 forward 7 unknown #
vertex $-1 $523 $572 #
straight-curve $-1 -71.133762627033306 -10.888578120479364 4.6383148074932166 0.60181501223851219 0 0.79863551827123203 I I #
point $-1 -68.392624462078928 -10.888578120479364 8.2759281180661048 #
point $-1 -71.133762627033292 -24.872127219445701 4.6383148074932352 #
straight-curve $-1 -71.133762627033292 0 8.2759281180661048 0 -1 0 I I #
vertex $-1 $428 $573 #
point $-1 -68.222313423480031 -17.880352669962534 5.922052862464362 #
coedge $-1 $443 $442 $435 $532 forward $432 $-1 #
edge $-1 $533 36.852595511639969 $536 40.490208822212836 $531 $574 forward 7 unknown #
vertex $-1 $447 $575 #
straight-curve $-1 -92.376830695740182 24.872127219445709 8.2759281180661048 -1 0 0 I I #
edge $-1 $536 -15.931950884464438 $444 -1.9484017854981008 $443 $576 forward 7 unknown #
vertex $-1 $535 $577 #
straight-curve $-1 -71.133762627033306 24.872127219445709 4.6383148074932166 0.60181501223851219 0 0.79863551827123203 I I #
point $-1 -68.392624462078928 24.872127219445709 8.2759281180661048 #
point $-1 -71.133762627033292 10.888578120479371 4.6383148074932352 #
straight-curve $-1 -71.133762627033292 0 8.2759281180661048 0 -1 0 I I #
vertex $-1 $450 $578 #
point $-1 -68.222313423480031 17.880352669962541 5.922052862464362 #
straight-curve $-1 -71.133762627033292 37.797911552836759 0 0 0 -1 I I #
point $-1 -71.133762627033292 -37.797911552836759 -8.2759281180661048 #
straight-curve $-1 -71.133762627033292 0 -8.2759281180661048 0 1 0 I I #
point $-1 -71.133762627033292 37.797911552836759 -8.2759281180661048 #
edge $-1 $487 -71.133762627033292 $549 71.133762627033292 $484 $579 forward 7 unknown #
straight-curve $-1 71.133762627033292 0 -8.2759281180661048 0 -1 0 I I #
vertex $-1 $475 $580 #
straight-curve $-1 -71.133762627033292 0 -8.2759281180661048 0 1 0 I I #
point $-1 -71.133762627033292 -29.421794367542212 -8.2759281180661048 #
straight-curve $-1 -71.133762627033292 -29.421794367542212 -3.0316234806471503 0 0 -1 I I #
straight-curve $-1 -71.133762627033292 -37.797911552836759 0 0 0 -1 I I #
point $-1 71.133762627033292 -37.797911552836759 -8.2759281180661048 #
coedge $-1 $491 $490 $499 $559 forward $236 $-1 #
point $-1 71.133762627033292 29.421794367542219 -8.2759281180661048 #
vertex $-1 $559 $581 #
straight-curve $-1 -71.133762627033292 0 -8.2759281180661048 0 1 0 I I #
edge $-1 $557 -71.133762627033292 $504 71.133762627033292 $499 $582 forward 7 unknown #
straight-curve $-1 -71.133762627033292 37.797911552836759 0 0 0 -1 I I #
straight-curve $-1 71.133762627033292 0 -8.2759281180661048 0 -1 0 I I #
point $-1 71.133762627033292 37.797911552836759 -8.2759281180661048 #
straight-curve $-1 71.133762627033292 4.7674401177846768 99.59395470424829 0 0 -1 I I #
point $-1 71.133762627033292 4.7674401177846768 8.2759281180661048 #
straight-curve $-1 71.133762627033292 4.6939444251972127 1.0478756124263313 0 1 0 I I #
point $-1 71.133762627033306 4.7674401177846768 1.0478756124263384 #
point $-1 66.283309266736993 7.4076965364188254 3.0375009416788163 #
point $-1 66.283309266736993 11.368081164370039 3.0375009416788163 #
straight-curve $-1 -71.133762627033292 -10.888578120479364 45.128523629706073 0 0 -1 I I #
point $-1 -71.133762627033292 -10.888578120479364 8.2759281180661048 #
straight-curve $-1 -71.133762627033292 -8.9401763349812668 4.6383148074932317 0 -1 0 I I #
point $-1 -71.133762627033292 -10.888578120479364 4.6383148074932352 #
point $-1 -68.123903170463677 -17.880352669962534 5.2218275972094901 #
straight-curve $-1 -71.133762627033292 24.872127219445709 45.128523629706073 0 0 -1 I I #
point $-1 -71.133762627033292 24.872127219445709 8.2759281180661048 #
straight-curve $-1 -71.133762627033292 8.9401763349812704 4.6383148074932317 0 -1 0 I I #
point $-1 -71.133762627033292 24.872127219445709 4.6383148074932352 #
point $-1 -68.123903170463677 17.880352669962541 5.2218275972094901 #
straight-curve $-1 0 -37.797911552836759 -8.2759281180661048 -1 0 0 I I #
point $-1 -71.133762627033292 -37.797911552836759 -8.2759281180661048 #
point $-1 -71.133762627033292 37.797911552836759 -8.2759281180661048 #
straight-curve $-1 0 37.797911552836759 -8.2759281180661048 1 0 0 I I #
End-of-ACIS-data 