500 0 13 0           
7 Unknown 11 ACIS 5.0 NT 24 Fri Mar 26 17:50:36 1999 
-1 9.9999999999999995e-007 1e-010 
body $-1 $13 $-1 $14 #
body $-1 $15 $-1 $16 #
body $-1 $17 $-1 $18 #
body $-1 $19 $-1 $20 #
body $-1 $21 $-1 $22 #
body $-1 $23 $-1 $24 #
body $-1 $25 $-1 $26 #
body $-1 $27 $-1 $28 #
body $-1 $29 $-1 $30 #
body $-1 $31 $-1 $32 #
body $-1 $33 $-1 $34 #
body $-1 $35 $-1 $36 #
body $-1 $37 $-1 $38 #
lump $-1 $-1 $39 $0 #
transform $-1 1 0 0 0 1 0 0 0 1 71.325418866542549 36.379511717055337 10.365834868809692 1 rotate no_reflect no_shear #
lump $-1 $-1 $40 $1 #
transform $-1 1 0 0 0 1 0 0 0 1 4.3214493957379219 36.379511717055337 8.4902105491468749 1 rotate no_reflect no_shear #
lump $-1 $-1 $41 $2 #
transform $-1 1 0 0 0 0.77714595512881146 -0.62932039886446345 0 0.62932039886446345 0.77714595512881146 110.08082517546418 105.98772477370413 172.45421697021769 1 rotate no_reflect no_shear #
lump $-1 $-1 $42 $3 #
transform $-1 1 0 0 0 -0.77714595512881146 0.62932039886446345 0 -0.62932039886446345 -0.77714595512881146 104.57468563889056 68.520873067241581 16.79118027336655 1 rotate no_reflect no_shear #
lump $-1 $-1 $43 $4 #
transform $-1 1 0 0 0 -0.77714595512881146 0.62932039886446345 0 -0.62932039886446345 -0.77714595512881146 115.5869647120378 68.520873067241581 16.79118027336655 1 rotate no_reflect no_shear #
lump $-1 $-1 $44 $5 #
transform $-1 1 0 0 0 0.60181501223851219 0.79863551827123203 0 -0.79863551827123203 0.60181501223851219 36.813049764752577 -113.92602572478782 101.84904530271731 1 rotate no_reflect no_shear #
lump $-1 $-1 $45 $6 #
transform $-1 1 0 0 0 -0.60181501223851219 -0.79863551827123203 0 0.79863551827123203 -0.60181501223851219 27.235430757553832 4.1989749134552028 16.545024745469888 1 rotate no_reflect no_shear #
lump $-1 $-1 $46 $7 #
transform $-1 1 0 0 0 -0.60181501223851219 -0.79863551827123203 0 0.79863551827123203 -0.60181501223851219 36.813049764752577 4.1989749134552028 16.545024745469888 1 rotate no_reflect no_shear #
lump $-1 $-1 $47 $8 #
transform $-1 1 0 0 0 -0.60181501223851219 -0.79863551827123203 0 0.79863551827123203 -0.60181501223851219 46.390668771951319 4.1989749134552028 16.545024745469888 1 rotate no_reflect no_shear #
lump $-1 $-1 $48 $9 #
transform $-1 1 0 0 0 0.60181501223851219 0.79863551827123203 0 -0.79863551827123203 0.60181501223851219 103.81701923555721 -113.92602572478782 101.84904530271731 1 rotate no_reflect no_shear #
lump $-1 $-1 $49 $10 #
transform $-1 1 0 0 0 -0.60181501223851219 -0.79863551827123203 0 0.79863551827123203 -0.60181501223851219 94.239400228358463 4.1989749134552028 16.545024745469888 1 rotate no_reflect no_shear #
lump $-1 $-1 $50 $11 #
transform $-1 1 0 0 0 -0.60181501223851219 -0.79863551827123203 0 0.79863551827123203 -0.60181501223851219 103.81701923555721 4.1989749134552028 16.545024745469888 1 rotate no_reflect no_shear #
lump $-1 $-1 $51 $12 #
transform $-1 1 0 0 0 -0.60181501223851219 -0.79863551827123203 0 0.79863551827123203 -0.60181501223851219 113.39463824275595 4.1989749134552028 16.545024745469888 1 rotate no_reflect no_shear #
shell $-1 $-1 $-1 $52 $-1 $13 #
shell $-1 $-1 $-1 $53 $-1 $15 #
shell $-1 $-1 $-1 $54 $-1 $17 #
shell $-1 $-1 $-1 $55 $-1 $19 #
shell $-1 $-1 $-1 $56 $-1 $21 #
shell $-1 $-1 $-1 $57 $-1 $23 #
shell $-1 $-1 $-1 $58 $-1 $25 #
shell $-1 $-1 $-1 $59 $-1 $27 #
shell $-1 $-1 $-1 $60 $-1 $29 #
shell $-1 $-1 $-1 $61 $-1 $31 #
shell $-1 $-1 $-1 $62 $-1 $33 #
shell $-1 $-1 $-1 $63 $-1 $35 #
shell $-1 $-1 $-1 $64 $-1 $37 #
face $-1 $65 $66 $39 $-1 $67 forward single #
face $-1 $68 $69 $40 $-1 $70 forward single #
face $-1 $71 $72 $41 $-1 $73 forward single #
face $-1 $74 $75 $42 $-1 $76 forward single #
face $-1 $77 $78 $43 $-1 $79 forward single #
face $-1 $80 $81 $44 $-1 $82 forward single #
face $-1 $83 $84 $45 $-1 $85 forward single #
face $-1 $86 $87 $46 $-1 $88 forward single #
face $-1 $89 $90 $47 $-1 $91 forward single #
face $-1 $92 $93 $48 $-1 $94 forward single #
face $-1 $95 $96 $49 $-1 $97 forward single #
face $-1 $98 $99 $50 $-1 $100 forward single #
face $-1 $101 $102 $51 $-1 $103 forward single #
face $-1 $104 $105 $39 $-1 $106 reversed single #
loop $-1 $-1 $107 $52 #
plane-surface $-1 0 0 10.365834868809692 0 0 1 1 0 0 forward_v I I I I #
face $-1 $108 $109 $40 $-1 $110 reversed single #
loop $-1 $-1 $111 $53 #
plane-surface $-1 0 0 1.6048110509349249 0 0 1 1 0 0 forward_v I I I I #
face $-1 $112 $113 $41 $-1 $114 reversed single #
loop $-1 $-1 $115 $54 #
plane-surface $-1 0 0 142.6508377330851 0 0 1 1 0 0 forward_v I I I I #
face $-1 $116 $117 $42 $-1 $118 forward single #
loop $-1 $119 $120 $55 #
cone-surface $-1 0 0 -1.0753578295236075 0 0 1 0.5 0 0 1 I I 0 1 0.5 forward I I I I #
face $-1 $121 $122 $43 $-1 $123 forward single #
loop $-1 $124 $125 $56 #
cone-surface $-1 0 0 -1.0753578295236075 0 0 1 0.5 0 0 1 I I 0 1 0.5 forward I I I I #
face $-1 $126 $127 $44 $-1 $128 reversed single #
loop $-1 $-1 $129 $57 #
plane-surface $-1 0 0 142.6508377330851 0 0 1 1 0 0 forward_v I I I I #
face $-1 $130 $131 $45 $-1 $132 forward single #
loop $-1 $133 $134 $58 #
cone-surface $-1 0 0 -1.7626117740409555 0 0 1 1 0 0 1 I I 0 1 1 forward I I I I #
face $-1 $135 $136 $46 $-1 $137 forward single #
loop $-1 $138 $139 $59 #
cone-surface $-1 0 0 -1.7626117740409555 0 0 1 1 0 0 1 I I 0 1 1 forward I I I I #
face $-1 $140 $141 $47 $-1 $142 forward single #
loop $-1 $143 $144 $60 #
cone-surface $-1 0 0 -1.7626117740409555 0 0 1 1 0 0 1 I I 0 1 1 forward I I I I #
face $-1 $145 $146 $48 $-1 $147 reversed single #
loop $-1 $-1 $148 $61 #
plane-surface $-1 0 0 142.6508377330851 0 0 1 1 0 0 forward_v I I I I #
face $-1 $149 $150 $49 $-1 $151 forward single #
loop $-1 $152 $153 $62 #
cone-surface $-1 0 0 -1.7626117740409555 0 0 1 1 0 0 1 I I 0 1 1 forward I I I I #
face $-1 $154 $155 $50 $-1 $156 forward single #
loop $-1 $157 $158 $63 #
cone-surface $-1 0 0 -1.7626117740409555 0 0 1 1 0 0 1 I I 0 1 1 forward I I I I #
face $-1 $159 $160 $51 $-1 $161 forward single #
loop $-1 $162 $163 $64 #
cone-surface $-1 0 0 -1.7626117740409555 0 0 1 1 0 0 1 I I 0 1 1 forward I I I I #
face $-1 $164 $165 $39 $-1 $166 reversed single #
loop $-1 $-1 $167 $65 #
plane-surface $-1 0 0 -10.365834868809692 0 0 1 1 0 0 forward_v I I I I #
coedge $-1 $168 $169 $170 $171 forward $66 $-1 #
face $-1 $172 $173 $40 $-1 $174 reversed single #
loop $-1 $-1 $175 $68 #
plane-surface $-1 0 0 -1.6048110509349249 0 0 1 1 0 0 forward_v I I I I #
coedge $-1 $176 $177 $178 $179 forward $69 $-1 #
face $-1 $180 $181 $41 $-1 $182 reversed single #
loop $-1 $-1 $183 $71 #
plane-surface $-1 0 0 -142.6508377330851 0 0 1 1 0 0 forward_v I I I I #
coedge $-1 $184 $185 $186 $187 forward $72 $-1 #
face $-1 $-1 $188 $42 $-1 $189 forward single #
loop $-1 $-1 $190 $74 #
plane-surface $-1 0 0 -1.9007156590472132 0 0 -1 -1 0 0 forward_v I I I I #
loop $-1 $-1 $191 $55 #
coedge $-1 $120 $120 $190 $192 reversed $75 $-1 #
face $-1 $-1 $193 $43 $-1 $194 forward single #
loop $-1 $-1 $195 $77 #
plane-surface $-1 0 0 -1.9007156590472132 0 0 -1 -1 0 0 forward_v I I I I #
loop $-1 $-1 $196 $56 #
coedge $-1 $125 $125 $195 $197 reversed $78 $-1 #
face $-1 $198 $199 $44 $-1 $200 reversed single #
loop $-1 $-1 $201 $80 #
plane-surface $-1 0 0 -142.6508377330851 0 0 1 1 0 0 forward_v I I I I #
coedge $-1 $202 $203 $204 $205 forward $81 $-1 #
face $-1 $-1 $206 $45 $-1 $207 forward single #
loop $-1 $-1 $208 $83 #
plane-surface $-1 0 0 -3.0252235480819119 0 0 -1 -1 0 0 forward_v I I I I #
loop $-1 $-1 $209 $58 #
coedge $-1 $134 $134 $208 $210 reversed $84 $-1 #
face $-1 $-1 $211 $46 $-1 $212 forward single #
loop $-1 $-1 $213 $86 #
plane-surface $-1 0 0 -3.0252235480819119 0 0 -1 -1 0 0 forward_v I I I I #
loop $-1 $-1 $214 $59 #
coedge $-1 $139 $139 $213 $215 reversed $87 $-1 #
face $-1 $-1 $216 $47 $-1 $217 forward single #
loop $-1 $-1 $218 $89 #
plane-surface $-1 0 0 -3.0252235480819119 0 0 -1 -1 0 0 forward_v I I I I #
loop $-1 $-1 $219 $60 #
coedge $-1 $144 $144 $218 $220 reversed $90 $-1 #
face $-1 $221 $222 $48 $-1 $223 reversed single #
loop $-1 $-1 $224 $92 #
plane-surface $-1 0 0 -142.6508377330851 0 0 1 1 0 0 forward_v I I I I #
coedge $-1 $225 $226 $227 $228 forward $93 $-1 #
face $-1 $-1 $229 $49 $-1 $230 forward single #
loop $-1 $-1 $231 $95 #
plane-surface $-1 0 0 -3.0252235480819119 0 0 -1 -1 0 0 forward_v I I I I #
loop $-1 $-1 $232 $62 #
coedge $-1 $153 $153 $231 $233 reversed $96 $-1 #
face $-1 $-1 $234 $50 $-1 $235 forward single #
loop $-1 $-1 $236 $98 #
plane-surface $-1 0 0 -3.0252235480819119 0 0 -1 -1 0 0 forward_v I I I I #
loop $-1 $-1 $237 $63 #
coedge $-1 $158 $158 $236 $238 reversed $99 $-1 #
face $-1 $-1 $239 $51 $-1 $240 forward single #
loop $-1 $-1 $241 $101 #
plane-surface $-1 0 0 -3.0252235480819119 0 0 -1 -1 0 0 forward_v I I I I #
loop $-1 $-1 $242 $64 #
coedge $-1 $163 $163 $241 $243 reversed $102 $-1 #
face $-1 $244 $245 $39 $-1 $246 reversed single #
loop $-1 $-1 $247 $104 #
plane-surface $-1 0 -36.379511717055337 0 0 1 0 0 0 1 forward_v I I I I #
coedge $-1 $248 $249 $250 $251 forward $105 $-1 #
coedge $-1 $252 $107 $253 $254 forward $66 $-1 #
coedge $-1 $107 $252 $255 $256 forward $66 $-1 #
coedge $-1 $257 $258 $107 $171 reversed $259 $-1 #
edge $-1 $260 -36.379511717055337 $261 36.379511717055337 $170 $262 forward 7 unknown #
face $-1 $263 $264 $40 $-1 $265 reversed single #
loop $-1 $-1 $266 $108 #
plane-surface $-1 0 -36.379511717055337 0 0 1 0 0 0 1 forward_v I I I I #
coedge $-1 $267 $268 $269 $270 forward $109 $-1 #
coedge $-1 $271 $111 $272 $273 forward $69 $-1 #
coedge $-1 $111 $271 $274 $275 forward $69 $-1 #
coedge $-1 $276 $277 $111 $179 reversed $278 $-1 #
edge $-1 $279 -36.379511717055337 $280 36.379511717055337 $178 $281 forward 7 unknown #
face $-1 $282 $283 $41 $-1 $284 reversed single #
loop $-1 $-1 $285 $112 #
plane-surface $-1 0 -285.3016754661702 0 0 1 0 0 0 1 forward_v I I I I #
coedge $-1 $286 $287 $288 $289 forward $113 $-1 #
coedge $-1 $290 $115 $291 $292 forward $72 $-1 #
coedge $-1 $115 $290 $293 $294 forward $72 $-1 #
coedge $-1 $295 $296 $115 $187 reversed $297 $-1 #
edge $-1 $298 -285.3016754661702 $299 285.3016754661702 $186 $300 forward 7 unknown #
loop $-1 $301 $302 $116 #
cone-surface $-1 0 0 0 0 0 1 0.25 0 0 1 I I -0.70710678118654624 0.70710678118654879 0.25 forward I I I I #
coedge $-1 $190 $190 $120 $192 forward $117 $-1 #
coedge $-1 $191 $191 $302 $303 forward $119 $-1 #
edge $-1 $304 0 $304 6.2831853071796004 $190 $305 forward 7 unknown #
loop $-1 $306 $307 $121 #
cone-surface $-1 0 0 0 0 0 1 0.25 0 0 1 I I -0.70710678118654624 0.70710678118654879 0.25 forward I I I I #
coedge $-1 $195 $195 $125 $197 forward $122 $-1 #
coedge $-1 $196 $196 $307 $308 forward $124 $-1 #
edge $-1 $309 0 $309 6.2831853071796004 $195 $310 forward 7 unknown #
face $-1 $311 $312 $44 $-1 $313 reversed single #
loop $-1 $-1 $314 $126 #
plane-surface $-1 0 -285.3016754661702 0 0 1 0 0 0 1 forward_v I I I I #
coedge $-1 $315 $316 $317 $318 forward $127 $-1 #
coedge $-1 $319 $129 $320 $321 forward $81 $-1 #
coedge $-1 $129 $319 $322 $323 forward $81 $-1 #
coedge $-1 $324 $325 $129 $205 reversed $326 $-1 #
edge $-1 $327 -285.3016754661702 $328 285.3016754661702 $204 $329 forward 7 unknown #
loop $-1 $330 $331 $130 #
cone-surface $-1 0 0 0 0 0 1 0.5 0 0 1 I I -0.70710678118654746 0.70710678118654746 0.5 forward I I I I #
coedge $-1 $208 $208 $134 $210 forward $131 $-1 #
coedge $-1 $209 $209 $331 $332 forward $133 $-1 #
edge $-1 $333 0 $333 6.2831853071796004 $208 $334 forward 7 unknown #
loop $-1 $335 $336 $135 #
cone-surface $-1 0 0 0 0 0 1 0.5 0 0 1 I I -0.70710678118654746 0.70710678118654746 0.5 forward I I I I #
coedge $-1 $213 $213 $139 $215 forward $136 $-1 #
coedge $-1 $214 $214 $336 $337 forward $138 $-1 #
edge $-1 $338 0 $338 6.2831853071796004 $213 $339 forward 7 unknown #
loop $-1 $340 $341 $140 #
cone-surface $-1 0 0 0 0 0 1 0.5 0 0 1 I I -0.70710678118654746 0.70710678118654746 0.5 forward I I I I #
coedge $-1 $218 $218 $144 $220 forward $141 $-1 #
coedge $-1 $219 $219 $341 $342 forward $143 $-1 #
edge $-1 $343 0 $343 6.2831853071796004 $218 $344 forward 7 unknown #
face $-1 $345 $346 $48 $-1 $347 reversed single #
loop $-1 $-1 $348 $145 #
plane-surface $-1 0 -285.3016754661702 0 0 1 0 0 0 1 forward_v I I I I #
coedge $-1 $349 $350 $351 $352 forward $146 $-1 #
coedge $-1 $353 $148 $354 $355 forward $93 $-1 #
coedge $-1 $148 $353 $356 $357 forward $93 $-1 #
coedge $-1 $358 $359 $148 $228 reversed $360 $-1 #
edge $-1 $361 -285.3016754661702 $362 285.3016754661702 $227 $363 forward 7 unknown #
loop $-1 $364 $365 $149 #
cone-surface $-1 0 0 0 0 0 1 0.5 0 0 1 I I -0.70710678118654746 0.70710678118654746 0.5 forward I I I I #
coedge $-1 $231 $231 $153 $233 forward $150 $-1 #
coedge $-1 $232 $232 $365 $366 forward $152 $-1 #
edge $-1 $367 0 $367 6.2831853071796004 $231 $368 forward 7 unknown #
loop $-1 $369 $370 $154 #
cone-surface $-1 0 0 0 0 0 1 0.5 0 0 1 I I -0.70710678118654746 0.70710678118654746 0.5 forward I I I I #
coedge $-1 $236 $236 $158 $238 forward $155 $-1 #
coedge $-1 $237 $237 $370 $371 forward $157 $-1 #
edge $-1 $372 0 $372 6.2831853071796004 $236 $373 forward 7 unknown #
loop $-1 $374 $375 $159 #
cone-surface $-1 0 0 0 0 0 1 0.5 0 0 1 I I -0.70710678118654746 0.70710678118654746 0.5 forward I I I I #
coedge $-1 $241 $241 $163 $243 forward $160 $-1 #
coedge $-1 $242 $242 $375 $376 forward $162 $-1 #
edge $-1 $377 0 $377 6.2831853071796004 $241 $378 forward 7 unknown #
face $-1 $379 $380 $39 $-1 $381 reversed single #
loop $-1 $-1 $382 $164 #
plane-surface $-1 -71.325418866542549 0 0 1 0 0 0 0 -1 forward_v I I I I #
coedge $-1 $383 $255 $384 $385 forward $165 $-1 #
coedge $-1 $386 $167 $383 $387 forward $105 $-1 #
coedge $-1 $167 $386 $388 $389 forward $105 $-1 #
coedge $-1 $258 $257 $167 $251 reversed $259 $-1 #
edge $-1 $390 -36.379511717055337 $391 36.379511717055337 $250 $392 forward 7 unknown #
coedge $-1 $169 $168 $393 $394 forward $66 $-1 #
coedge $-1 $395 $396 $168 $254 reversed $380 $-1 #
edge $-1 $261 -71.325418866542549 $397 71.325418866542549 $253 $398 forward 7 unknown #
coedge $-1 $247 $399 $169 $256 reversed $165 $-1 #
edge $-1 $400 -71.325418866542549 $260 71.325418866542549 $255 $401 forward 7 unknown #
coedge $-1 $250 $170 $399 $402 forward $259 $-1 #
coedge $-1 $170 $250 $395 $403 reversed $259 $-1 #
loop $-1 $-1 $257 $379 #
vertex $-1 $171 $404 #
vertex $-1 $171 $405 #
straight-curve $-1 71.325418866542549 0 10.365834868809692 0 1 0 I I #
face $-1 $406 $407 $40 $-1 $408 reversed single #
loop $-1 $-1 $409 $172 #
plane-surface $-1 -4.3214493957379219 0 0 1 0 0 0 0 -1 forward_v I I I I #
coedge $-1 $410 $274 $411 $412 forward $173 $-1 #
coedge $-1 $413 $175 $410 $414 forward $109 $-1 #
coedge $-1 $175 $413 $415 $416 forward $109 $-1 #
coedge $-1 $277 $276 $175 $270 reversed $278 $-1 #
edge $-1 $417 -36.379511717055337 $418 36.379511717055337 $269 $419 forward 7 unknown #
coedge $-1 $177 $176 $420 $421 forward $69 $-1 #
coedge $-1 $422 $423 $176 $273 reversed $407 $-1 #
edge $-1 $280 -4.3214493957379219 $424 4.3214493957379219 $272 $425 forward 7 unknown #
coedge $-1 $266 $426 $177 $275 reversed $173 $-1 #
edge $-1 $427 -4.3214493957379219 $279 4.3214493957379219 $274 $428 forward 7 unknown #
coedge $-1 $269 $178 $426 $429 forward $278 $-1 #
coedge $-1 $178 $269 $422 $430 reversed $278 $-1 #
loop $-1 $-1 $276 $406 #
vertex $-1 $179 $431 #
vertex $-1 $179 $432 #
straight-curve $-1 4.3214493957379219 0 1.6048110509349249 0 1 0 I I #
face $-1 $433 $434 $41 $-1 $435 reversed single #
loop $-1 $-1 $436 $180 #
plane-surface $-1 -12.84765891867179 0 0 1 0 0 0 0 -1 forward_v I I I I #
coedge $-1 $437 $293 $438 $439 forward $181 $-1 #
coedge $-1 $440 $183 $437 $441 forward $113 $-1 #
coedge $-1 $183 $440 $442 $443 forward $113 $-1 #
coedge $-1 $296 $295 $183 $289 reversed $297 $-1 #
edge $-1 $444 -285.3016754661702 $445 285.3016754661702 $288 $446 forward 7 unknown #
coedge $-1 $185 $184 $447 $448 forward $72 $-1 #
coedge $-1 $449 $450 $184 $292 reversed $434 $-1 #
edge $-1 $299 -12.84765891867179 $451 12.84765891867179 $291 $452 forward 7 unknown #
coedge $-1 $285 $453 $185 $294 reversed $181 $-1 #
edge $-1 $454 -12.84765891867179 $298 12.84765891867179 $293 $455 forward 7 unknown #
coedge $-1 $288 $186 $453 $456 forward $297 $-1 #
coedge $-1 $186 $288 $449 $457 reversed $297 $-1 #
loop $-1 $-1 $295 $433 #
vertex $-1 $187 $458 #
vertex $-1 $187 $459 #
straight-curve $-1 12.84765891867179 0 142.6508377330851 0 1 0 I I #
loop $-1 $-1 $460 $116 #
coedge $-1 $302 $302 $191 $303 reversed $188 $-1 #
edge $-1 $461 0 $461 6.2831853071796004 $302 $462 forward 7 unknown #
vertex $-1 $192 $463 #
ellipse-curve $-1 0 0 -1.9007156590472132 0 0 -1 0.5 0 0 1 I I #
loop $-1 $-1 $464 $121 #
coedge $-1 $307 $307 $196 $308 reversed $193 $-1 #
edge $-1 $465 0 $465 6.2831853071796004 $307 $466 forward 7 unknown #
vertex $-1 $197 $467 #
ellipse-curve $-1 0 0 -1.9007156590472132 0 0 -1 0.5 0 0 1 I I #
face $-1 $468 $469 $44 $-1 $470 reversed single #
loop $-1 $-1 $471 $198 #
plane-surface $-1 -15.962698345331237 0 0 1 0 0 0 0 -1 forward_v I I I I #
coedge $-1 $472 $322 $473 $474 forward $199 $-1 #
coedge $-1 $475 $201 $472 $476 forward $127 $-1 #
coedge $-1 $201 $475 $477 $478 forward $127 $-1 #
coedge $-1 $325 $324 $201 $318 reversed $326 $-1 #
edge $-1 $479 -285.3016754661702 $480 285.3016754661702 $317 $481 forward 7 unknown #
coedge $-1 $203 $202 $482 $483 forward $81 $-1 #
coedge $-1 $484 $485 $202 $321 reversed $469 $-1 #
edge $-1 $328 -15.962698345331237 $486 15.962698345331237 $320 $487 forward 7 unknown #
coedge $-1 $314 $488 $203 $323 reversed $199 $-1 #
edge $-1 $489 -15.962698345331237 $327 15.962698345331237 $322 $490 forward 7 unknown #
coedge $-1 $317 $204 $488 $491 forward $326 $-1 #
coedge $-1 $204 $317 $484 $492 reversed $326 $-1 #
loop $-1 $-1 $324 $468 #
vertex $-1 $205 $493 #
vertex $-1 $205 $494 #
straight-curve $-1 15.962698345331237 0 142.6508377330851 0 1 0 I I #
loop $-1 $-1 $495 $130 #
coedge $-1 $331 $331 $209 $332 reversed $206 $-1 #
edge $-1 $496 0 $496 6.2831853071796004 $331 $497 forward 7 unknown #
vertex $-1 $210 $498 #
ellipse-curve $-1 0 0 -3.0252235480819119 0 0 -1 1 0 0 1 I I #
loop $-1 $-1 $499 $135 #
coedge $-1 $336 $336 $214 $337 reversed $211 $-1 #
edge $-1 $500 0 $500 6.2831853071796004 $336 $501 forward 7 unknown #
vertex $-1 $215 $502 #
ellipse-curve $-1 0 0 -3.0252235480819119 0 0 -1 1 0 0 1 I I #
loop $-1 $-1 $503 $140 #
coedge $-1 $341 $341 $219 $342 reversed $216 $-1 #
edge $-1 $504 0 $504 6.2831853071796004 $341 $505 forward 7 unknown #
vertex $-1 $220 $506 #
ellipse-curve $-1 0 0 -3.0252235480819119 0 0 -1 1 0 0 1 I I #
face $-1 $507 $508 $48 $-1 $509 reversed single #
loop $-1 $-1 $510 $221 #
plane-surface $-1 -15.962698345331237 0 0 1 0 0 0 0 -1 forward_v I I I I #
coedge $-1 $511 $356 $512 $513 forward $222 $-1 #
coedge $-1 $514 $224 $511 $515 forward $146 $-1 #
coedge $-1 $224 $514 $516 $517 forward $146 $-1 #
coedge $-1 $359 $358 $224 $352 reversed $360 $-1 #
edge $-1 $518 -285.3016754661702 $519 285.3016754661702 $351 $520 forward 7 unknown #
coedge $-1 $226 $225 $521 $522 forward $93 $-1 #
coedge $-1 $523 $524 $225 $355 reversed $508 $-1 #
edge $-1 $362 -15.962698345331237 $525 15.962698345331237 $354 $526 forward 7 unknown #
coedge $-1 $348 $527 $226 $357 reversed $222 $-1 #
edge $-1 $528 -15.962698345331237 $361 15.962698345331237 $356 $529 forward 7 unknown #
coedge $-1 $351 $227 $527 $530 forward $360 $-1 #
coedge $-1 $227 $351 $523 $531 reversed $360 $-1 #
loop $-1 $-1 $358 $507 #
vertex $-1 $228 $532 #
vertex $-1 $228 $533 #
straight-curve $-1 15.962698345331237 0 142.6508377330851 0 1 0 I I #
loop $-1 $-1 $534 $149 #
coedge $-1 $365 $365 $232 $366 reversed $229 $-1 #
edge $-1 $535 0 $535 6.2831853071796004 $365 $536 forward 7 unknown #
vertex $-1 $233 $537 #
ellipse-curve $-1 0 0 -3.0252235480819119 0 0 -1 1 0 0 1 I I #
loop $-1 $-1 $538 $154 #
coedge $-1 $370 $370 $237 $371 reversed $234 $-1 #
edge $-1 $539 0 $539 6.2831853071796004 $370 $540 forward 7 unknown #
vertex $-1 $238 $541 #
ellipse-curve $-1 0 0 -3.0252235480819119 0 0 -1 1 0 0 1 I I #
loop $-1 $-1 $542 $159 #
coedge $-1 $375 $375 $242 $376 reversed $239 $-1 #
edge $-1 $543 0 $543 6.2831853071796004 $375 $544 forward 7 unknown #
vertex $-1 $243 $545 #
ellipse-curve $-1 0 0 -3.0252235480819119 0 0 -1 1 0 0 1 I I #
face $-1 $-1 $259 $39 $-1 $546 reversed single #
loop $-1 $-1 $395 $244 #
plane-surface $-1 0 36.379511717055337 0 0 -1 0 0 0 -1 forward_v I I I I #
coedge $-1 $547 $393 $396 $548 forward $245 $-1 #
coedge $-1 $399 $247 $248 $387 reversed $165 $-1 #
coedge $-1 $393 $547 $247 $385 reversed $245 $-1 #
edge $-1 $400 -10.365834868809692 $549 10.365834868809692 $384 $550 forward 7 unknown #
coedge $-1 $249 $248 $547 $551 forward $105 $-1 #
edge $-1 $391 -71.325418866542549 $549 71.325418866542549 $383 $552 forward 7 unknown #
coedge $-1 $396 $395 $249 $389 reversed $380 $-1 #
edge $-1 $553 -71.325418866542549 $390 71.325418866542549 $388 $554 forward 7 unknown #
vertex $-1 $251 $555 #
vertex $-1 $402 $556 #
straight-curve $-1 71.325418866542549 0 -10.365834868809692 0 -1 0 I I #
coedge $-1 $382 $384 $252 $394 reversed $245 $-1 #
edge $-1 $397 -36.379511717055337 $400 36.379511717055337 $393 $557 forward 7 unknown #
coedge $-1 $388 $253 $258 $403 forward $380 $-1 #
coedge $-1 $253 $388 $382 $548 reversed $380 $-1 #
vertex $-1 $254 $558 #
straight-curve $-1 0 36.379511717055337 10.365834868809692 -1 0 0 I I #
coedge $-1 $255 $383 $257 $402 reversed $165 $-1 #
vertex $-1 $394 $559 #
straight-curve $-1 0 -36.379511717055337 10.365834868809692 1 0 0 I I #
edge $-1 $260 -10.365834868809692 $391 10.365834868809692 $257 $560 forward 7 unknown #
edge $-1 $261 -10.365834868809692 $390 10.365834868809692 $258 $561 forward 7 unknown #
point $-1 71.325418866542549 -36.379511717055337 10.365834868809692 #
point $-1 71.325418866542549 36.379511717055337 10.365834868809692 #
face $-1 $-1 $278 $40 $-1 $562 reversed single #
loop $-1 $-1 $422 $263 #
plane-surface $-1 0 36.379511717055337 0 0 -1 0 0 0 -1 forward_v I I I I #
coedge $-1 $563 $420 $423 $564 forward $264 $-1 #
coedge $-1 $426 $266 $267 $414 reversed $173 $-1 #
coedge $-1 $420 $563 $266 $412 reversed $264 $-1 #
edge $-1 $427 -1.6048110509349249 $565 1.6048110509349249 $411 $566 forward 7 unknown #
coedge $-1 $268 $267 $563 $567 forward $109 $-1 #
edge $-1 $418 -4.3214493957379219 $565 4.3214493957379219 $410 $568 forward 7 unknown #
coedge $-1 $423 $422 $268 $416 reversed $407 $-1 #
edge $-1 $569 -4.3214493957379219 $417 4.3214493957379219 $415 $570 forward 7 unknown #
vertex $-1 $270 $571 #
vertex $-1 $429 $572 #
straight-curve $-1 4.3214493957379219 0 -1.6048110509349249 0 -1 0 I I #
coedge $-1 $409 $411 $271 $421 reversed $264 $-1 #
edge $-1 $424 -36.379511717055337 $427 36.379511717055337 $420 $573 forward 7 unknown #
coedge $-1 $415 $272 $277 $430 forward $407 $-1 #
coedge $-1 $272 $415 $409 $564 reversed $407 $-1 #
vertex $-1 $273 $574 #
straight-curve $-1 0 36.379511717055337 1.6048110509349249 -1 0 0 I I #
coedge $-1 $274 $410 $276 $429 reversed $173 $-1 #
vertex $-1 $421 $575 #
straight-curve $-1 0 -36.379511717055337 1.6048110509349249 1 0 0 I I #
edge $-1 $279 -1.6048110509349249 $418 1.6048110509349249 $276 $576 forward 7 unknown #
edge $-1 $280 -1.6048110509349249 $417 1.6048110509349249 $277 $577 forward 7 unknown #
point $-1 4.3214493957379219 -36.379511717055337 1.6048110509349249 #
point $-1 4.3214493957379219 36.379511717055337 1.6048110509349249 #
face $-1 $-1 $297 $41 $-1 $578 reversed single #
loop $-1 $-1 $449 $282 #
plane-surface $-1 0 285.3016754661702 0 0 -1 0 0 0 -1 forward_v I I I I #
coedge $-1 $579 $447 $450 $580 forward $283 $-1 #
coedge $-1 $453 $285 $286 $441 reversed $181 $-1 #
coedge $-1 $447 $579 $285 $439 reversed $283 $-1 #
edge $-1 $454 -142.6508377330851 $581 142.6508377330851 $438 $582 forward 7 unknown #
coedge $-1 $287 $286 $579 $583 forward $113 $-1 #
edge $-1 $445 -12.84765891867179 $581 12.84765891867179 $437 $584 forward 7 unknown #
coedge $-1 $450 $449 $287 $443 reversed $434 $-1 #
edge $-1 $585 -12.84765891867179 $444 12.84765891867179 $442 $586 forward 7 unknown #
vertex $-1 $289 $587 #
vertex $-1 $456 $588 #
straight-curve $-1 12.84765891867179 0 -142.6508377330851 0 -1 0 I I #
coedge $-1 $436 $438 $290 $448 reversed $283 $-1 #
edge $-1 $451 -285.3016754661702 $454 285.3016754661702 $447 $589 forward 7 unknown #
coedge $-1 $442 $291 $296 $457 forward $434 $-1 #
coedge $-1 $291 $442 $436 $580 reversed $434 $-1 #
vertex $-1 $292 $590 #
straight-curve $-1 0 285.3016754661702 142.6508377330851 -1 0 0 I I #
coedge $-1 $293 $437 $295 $456 reversed $181 $-1 #
vertex $-1 $448 $591 #
straight-curve $-1 0 -285.3016754661702 142.6508377330851 1 0 0 I I #
edge $-1 $298 -142.6508377330851 $445 142.6508377330851 $295 $592 forward 7 unknown #
edge $-1 $299 -142.6508377330851 $444 142.6508377330851 $296 $593 forward 7 unknown #
point $-1 12.84765891867179 -285.3016754661702 142.6508377330851 #
point $-1 12.84765891867179 285.3016754661702 142.6508377330851 #
coedge $-1 $460 $460 $-1 $594 reversed $301 $-1 #
vertex $-1 $303 $595 #
ellipse-curve $-1 0 0 -0.25000000000000089 0 0 -1 0.5 0 0 1 I I #
point $-1 0.5 0 -1.9007156590472132 #
coedge $-1 $464 $464 $-1 $596 reversed $306 $-1 #
vertex $-1 $308 $597 #
ellipse-curve $-1 0 0 -0.25000000000000089 0 0 -1 0.5 0 0 1 I I #
point $-1 0.5 0 -1.9007156590472132 #
face $-1 $-1 $326 $44 $-1 $598 reversed single #
loop $-1 $-1 $484 $311 #
plane-surface $-1 0 285.3016754661702 0 0 -1 0 0 0 -1 forward_v I I I I #
coedge $-1 $599 $482 $485 $600 forward $312 $-1 #
coedge $-1 $488 $314 $315 $476 reversed $199 $-1 #
coedge $-1 $482 $599 $314 $474 reversed $312 $-1 #
edge $-1 $489 -142.6508377330851 $601 142.6508377330851 $473 $602 forward 7 unknown #
coedge $-1 $316 $315 $599 $603 forward $127 $-1 #
edge $-1 $480 -15.962698345331237 $601 15.962698345331237 $472 $604 forward 7 unknown #
coedge $-1 $485 $484 $316 $478 reversed $469 $-1 #
edge $-1 $605 -15.962698345331237 $479 15.962698345331237 $477 $606 forward 7 unknown #
vertex $-1 $318 $607 #
vertex $-1 $491 $608 #
straight-curve $-1 15.962698345331237 0 -142.6508377330851 0 -1 0 I I #
coedge $-1 $471 $473 $319 $483 reversed $312 $-1 #
edge $-1 $486 -285.3016754661702 $489 285.3016754661702 $482 $609 forward 7 unknown #
coedge $-1 $477 $320 $325 $492 forward $469 $-1 #
coedge $-1 $320 $477 $471 $600 reversed $469 $-1 #
vertex $-1 $321 $610 #
straight-curve $-1 0 285.3016754661702 142.6508377330851 -1 0 0 I I #
coedge $-1 $322 $472 $324 $491 reversed $199 $-1 #
vertex $-1 $483 $611 #
straight-curve $-1 0 -285.3016754661702 142.6508377330851 1 0 0 I I #
edge $-1 $327 -142.6508377330851 $480 142.6508377330851 $324 $612 forward 7 unknown #
edge $-1 $328 -142.6508377330851 $479 142.6508377330851 $325 $613 forward 7 unknown #
point $-1 15.962698345331237 -285.3016754661702 142.6508377330851 #
point $-1 15.962698345331237 285.3016754661702 142.6508377330851 #
coedge $-1 $495 $495 $-1 $614 reversed $330 $-1 #
vertex $-1 $332 $615 #
ellipse-curve $-1 0 0 -0.5 0 0 -1 1 0 0 1 I I #
point $-1 1 0 -3.0252235480819119 #
coedge $-1 $499 $499 $-1 $616 reversed $335 $-1 #
vertex $-1 $337 $617 #
ellipse-curve $-1 0 0 -0.5 0 0 -1 1 0 0 1 I I #
point $-1 1 0 -3.0252235480819119 #
coedge $-1 $503 $503 $-1 $618 reversed $340 $-1 #
vertex $-1 $342 $619 #
ellipse-curve $-1 0 0 -0.5 0 0 -1 1 0 0 1 I I #
point $-1 1 0 -3.0252235480819119 #
face $-1 $-1 $360 $48 $-1 $620 reversed single #
loop $-1 $-1 $523 $345 #
plane-surface $-1 0 285.3016754661702 0 0 -1 0 0 0 -1 forward_v I I I I #
coedge $-1 $621 $521 $524 $622 forward $346 $-1 #
coedge $-1 $527 $348 $349 $515 reversed $222 $-1 #
coedge $-1 $521 $621 $348 $513 reversed $346 $-1 #
edge $-1 $528 -142.6508377330851 $623 142.6508377330851 $512 $624 forward 7 unknown #
coedge $-1 $350 $349 $621 $625 forward $146 $-1 #
edge $-1 $519 -15.962698345331237 $623 15.962698345331237 $511 $626 forward 7 unknown #
coedge $-1 $524 $523 $350 $517 reversed $508 $-1 #
edge $-1 $627 -15.962698345331237 $518 15.962698345331237 $516 $628 forward 7 unknown #
vertex $-1 $352 $629 #
vertex $-1 $530 $630 #
straight-curve $-1 15.962698345331237 0 -142.6508377330851 0 -1 0 I I #
coedge $-1 $510 $512 $353 $522 reversed $346 $-1 #
edge $-1 $525 -285.3016754661702 $528 285.3016754661702 $521 $631 forward 7 unknown #
coedge $-1 $516 $354 $359 $531 forward $508 $-1 #
coedge $-1 $354 $516 $510 $622 reversed $508 $-1 #
vertex $-1 $355 $632 #
straight-curve $-1 0 285.3016754661702 142.6508377330851 -1 0 0 I I #
coedge $-1 $356 $511 $358 $530 reversed $222 $-1 #
vertex $-1 $522 $633 #
straight-curve $-1 0 -285.3016754661702 142.6508377330851 1 0 0 I I #
edge $-1 $361 -142.6508377330851 $519 142.6508377330851 $358 $634 forward 7 unknown #
edge $-1 $362 -142.6508377330851 $518 142.6508377330851 $359 $635 forward 7 unknown #
point $-1 15.962698345331237 -285.3016754661702 142.6508377330851 #
point $-1 15.962698345331237 285.3016754661702 142.6508377330851 #
coedge $-1 $534 $534 $-1 $636 reversed $364 $-1 #
vertex $-1 $366 $637 #
ellipse-curve $-1 0 0 -0.5 0 0 -1 1 0 0 1 I I #
point $-1 1 0 -3.0252235480819119 #
coedge $-1 $538 $538 $-1 $638 reversed $369 $-1 #
vertex $-1 $371 $639 #
ellipse-curve $-1 0 0 -0.5 0 0 -1 1 0 0 1 I I #
point $-1 1 0 -3.0252235480819119 #
coedge $-1 $542 $542 $-1 $640 reversed $374 $-1 #
vertex $-1 $376 $641 #
ellipse-curve $-1 0 0 -0.5 0 0 -1 1 0 0 1 I I #
point $-1 1 0 -3.0252235480819119 #
plane-surface $-1 71.325418866542549 0 0 -1 0 0 0 0 1 forward_v I I I I #
coedge $-1 $384 $382 $386 $551 reversed $245 $-1 #
edge $-1 $397 -10.365834868809692 $553 10.365834868809692 $396 $642 forward 7 unknown #
vertex $-1 $551 $643 #
straight-curve $-1 -71.325418866542549 -36.379511717055337 0 0 0 -1 I I #
edge $-1 $549 -36.379511717055337 $553 36.379511717055337 $547 $644 forward 7 unknown #
straight-curve $-1 0 -36.379511717055337 -10.365834868809692 -1 0 0 I I #
vertex $-1 $389 $645 #
straight-curve $-1 0 36.379511717055337 -10.365834868809692 1 0 0 I I #
point $-1 71.325418866542549 36.379511717055337 -10.365834868809692 #
point $-1 71.325418866542549 -36.379511717055337 -10.365834868809692 #
straight-curve $-1 -71.325418866542549 0 10.365834868809692 0 -1 0 I I #
point $-1 -71.325418866542549 36.379511717055337 10.365834868809692 #
point $-1 -71.325418866542549 -36.379511717055337 10.365834868809692 #
straight-curve $-1 71.325418866542549 -36.379511717055337 0 0 0 -1 I I #
straight-curve $-1 71.325418866542549 36.379511717055337 0 0 0 -1 I I #
plane-surface $-1 4.3214493957379219 0 0 -1 0 0 0 0 1 forward_v I I I I #
coedge $-1 $411 $409 $413 $567 reversed $264 $-1 #
edge $-1 $424 -1.6048110509349249 $569 1.6048110509349249 $423 $646 forward 7 unknown #
vertex $-1 $567 $647 #
straight-curve $-1 -4.3214493957379219 -36.379511717055337 0 0 0 -1 I I #
edge $-1 $565 -36.379511717055337 $569 36.379511717055337 $563 $648 forward 7 unknown #
straight-curve $-1 0 -36.379511717055337 -1.6048110509349249 -1 0 0 I I #
vertex $-1 $416 $649 #
straight-curve $-1 0 36.379511717055337 -1.6048110509349249 1 0 0 I I #
point $-1 4.3214493957379219 36.379511717055337 -1.6048110509349249 #
point $-1 4.3214493957379219 -36.379511717055337 -1.6048110509349249 #
straight-curve $-1 -4.3214493957379219 0 1.6048110509349249 0 -1 0 I I #
point $-1 -4.3214493957379219 36.379511717055337 1.6048110509349249 #
point $-1 -4.3214493957379219 -36.379511717055337 1.6048110509349249 #
straight-curve $-1 4.3214493957379219 -36.379511717055337 0 0 0 -1 I I #
straight-curve $-1 4.3214493957379219 36.379511717055337 0 0 0 -1 I I #
plane-surface $-1 12.84765891867179 0 0 -1 0 0 0 0 1 forward_v I I I I #
coedge $-1 $438 $436 $440 $583 reversed $283 $-1 #
edge $-1 $451 -142.6508377330851 $585 142.6508377330851 $450 $650 forward 7 unknown #
vertex $-1 $583 $651 #
straight-curve $-1 -12.84765891867179 -285.3016754661702 0 0 0 -1 I I #
edge $-1 $581 -285.3016754661702 $585 285.3016754661702 $579 $652 forward 7 unknown #
straight-curve $-1 0 -285.3016754661702 -142.6508377330851 -1 0 0 I I #
vertex $-1 $443 $653 #
straight-curve $-1 0 285.3016754661702 -142.6508377330851 1 0 0 I I #
point $-1 12.84765891867179 285.3016754661702 -142.6508377330851 #
point $-1 12.84765891867179 -285.3016754661702 -142.6508377330851 #
straight-curve $-1 -12.84765891867179 0 142.6508377330851 0 -1 0 I I #
point $-1 -12.84765891867179 285.3016754661702 142.6508377330851 #
point $-1 -12.84765891867179 -285.3016754661702 142.6508377330851 #
straight-curve $-1 12.84765891867179 -285.3016754661702 0 0 0 -1 I I #
straight-curve $-1 12.84765891867179 285.3016754661702 0 0 0 -1 I I #
edge $-1 $654 1 $654 0 $460 $-1 forward 7 unknown #
point $-1 0.5 0 -0.25000000000000089 #
edge $-1 $655 1 $655 0 $464 $-1 forward 7 unknown #
point $-1 0.5 0 -0.25000000000000089 #
plane-surface $-1 15.962698345331237 0 0 -1 0 0 0 0 1 forward_v I I I I #
coedge $-1 $473 $471 $475 $603 reversed $312 $-1 #
edge $-1 $486 -142.6508377330851 $605 142.6508377330851 $485 $656 forward 7 unknown #
vertex $-1 $603 $657 #
straight-curve $-1 -15.962698345331237 -285.3016754661702 0 0 0 -1 I I #
edge $-1 $601 -285.3016754661702 $605 285.3016754661702 $599 $658 forward 7 unknown #
straight-curve $-1 0 -285.3016754661702 -142.6508377330851 -1 0 0 I I #
vertex $-1 $478 $659 #
straight-curve $-1 0 285.3016754661702 -142.6508377330851 1 0 0 I I #
point $-1 15.962698345331237 285.3016754661702 -142.6508377330851 #
point $-1 15.962698345331237 -285.3016754661702 -142.6508377330851 #
straight-curve $-1 -15.962698345331237 0 142.6508377330851 0 -1 0 I I #
point $-1 -15.962698345331237 285.3016754661702 142.6508377330851 #
point $-1 -15.962698345331237 -285.3016754661702 142.6508377330851 #
straight-curve $-1 15.962698345331237 -285.3016754661702 0 0 0 -1 I I #
straight-curve $-1 15.962698345331237 285.3016754661702 0 0 0 -1 I I #
edge $-1 $660 1 $660 0 $495 $-1 forward 7 unknown #
point $-1 1 0 -0.5 #
edge $-1 $661 1 $661 0 $499 $-1 forward 7 unknown #
point $-1 1 0 -0.5 #
edge $-1 $662 1 $662 0 $503 $-1 forward 7 unknown #
point $-1 1 0 -0.5 #
plane-surface $-1 15.962698345331237 0 0 -1 0 0 0 0 1 forward_v I I I I #
coedge $-1 $512 $510 $514 $625 reversed $346 $-1 #
edge $-1 $525 -142.6508377330851 $627 142.6508377330851 $524 $663 forward 7 unknown #
vertex $-1 $625 $664 #
straight-curve $-1 -15.962698345331237 -285.3016754661702 0 0 0 -1 I I #
edge $-1 $623 -285.3016754661702 $627 285.3016754661702 $621 $665 forward 7 unknown #
straight-curve $-1 0 -285.3016754661702 -142.6508377330851 -1 0 0 I I #
vertex $-1 $517 $666 #
straight-curve $-1 0 285.3016754661702 -142.6508377330851 1 0 0 I I #
point $-1 15.962698345331237 285.3016754661702 -142.6508377330851 #
point $-1 15.962698345331237 -285.3016754661702 -142.6508377330851 #
straight-curve $-1 -15.962698345331237 0 142.6508377330851 0 -1 0 I I #
point $-1 -15.962698345331237 285.3016754661702 142.6508377330851 #
point $-1 -15.962698345331237 -285.3016754661702 142.6508377330851 #
straight-curve $-1 15.962698345331237 -285.3016754661702 0 0 0 -1 I I #
straight-curve $-1 15.962698345331237 285.3016754661702 0 0 0 -1 I I #
edge $-1 $667 1 $667 0 $534 $-1 forward 7 unknown #
point $-1 1 0 -0.5 #
edge $-1 $668 1 $668 0 $538 $-1 forward 7 unknown #
point $-1 1 0 -0.5 #
edge $-1 $669 1 $669 0 $542 $-1 forward 7 unknown #
point $-1 1 0 -0.5 #
straight-curve $-1 -71.325418866542549 36.379511717055337 0 0 0 -1 I I #
point $-1 -71.325418866542549 -36.379511717055337 -10.365834868809692 #
straight-curve $-1 -71.325418866542549 0 -10.365834868809692 0 1 0 I I #
point $-1 -71.325418866542549 36.379511717055337 -10.365834868809692 #
straight-curve $-1 -4.3214493957379219 36.379511717055337 0 0 0 -1 I I #
point $-1 -4.3214493957379219 -36.379511717055337 -1.6048110509349249 #
straight-curve $-1 -4.3214493957379219 0 -1.6048110509349249 0 1 0 I I #
point $-1 -4.3214493957379219 36.379511717055337 -1.6048110509349249 #
straight-curve $-1 -12.84765891867179 285.3016754661702 0 0 0 -1 I I #
point $-1 -12.84765891867179 -285.3016754661702 -142.6508377330851 #
straight-curve $-1 -12.84765891867179 0 -142.6508377330851 0 1 0 I I #
point $-1 -12.84765891867179 285.3016754661702 -142.6508377330851 #
vertex $-1 $594 $670 #
vertex $-1 $596 $671 #
straight-curve $-1 -15.962698345331237 285.3016754661702 0 0 0 -1 I I #
point $-1 -15.962698345331237 -285.3016754661702 -142.6508377330851 #
straight-curve $-1 -15.962698345331237 0 -142.6508377330851 0 1 0 I I #
point $-1 -15.962698345331237 285.3016754661702 -142.6508377330851 #
vertex $-1 $614 $672 #
vertex $-1 $616 $673 #
vertex $-1 $618 $674 #
straight-curve $-1 -15.962698345331237 285.3016754661702 0 0 0 -1 I I #
point $-1 -15.962698345331237 -285.3016754661702 -142.6508377330851 #
straight-curve $-1 -15.962698345331237 0 -142.6508377330851 0 1 0 I I #
point $-1 -15.962698345331237 285.3016754661702 -142.6508377330851 #
vertex $-1 $636 $675 #
vertex $-1 $638 $676 #
vertex $-1 $640 $677 #
point $-1 0 0 0.25000000000000089 #
point $-1 0 0 0.25000000000000089 #
point $-1 0 0 0.5 #
point $-1 0 0 0.5 #
point $-1 0 0 0.5 #
point $-1 0 0 0.5 #
point $-1 0 0 0.5 #
point $-1 0 0 0.5 #
End-of-ACIS-data 