500 0 14 0           
7 Unknown 11 ACIS 5.0 NT 24 Fri Mar 26 16:01:41 1999 
-1 9.9999999999999995e-007 1e-010 
body $-1 $14 $-1 $15 #
body $-1 $16 $-1 $17 #
body $-1 $18 $-1 $19 #
body $-1 $20 $-1 $21 #
body $-1 $22 $-1 $23 #
body $-1 $24 $-1 $25 #
body $-1 $26 $-1 $27 #
body $-1 $28 $-1 $29 #
body $-1 $30 $-1 $31 #
body $-1 $32 $-1 $33 #
body $-1 $34 $-1 $35 #
body $-1 $36 $-1 $37 #
body $-1 $38 $-1 $39 #
body $-1 $40 $-1 $41 #
lump $-1 $-1 $42 $0 #
transform $-1 1 0 0 0 1 0 0 0 1 66.96737571337016 30.225959139160985 13.712975352364859 1 rotate no_reflect no_shear #
lump $-1 $-1 $43 $1 #
transform $-1 1 0 0 0 1 0 0 0 1 66.96737571337016 30.225959139160985 13.712975352364859 1 rotate no_reflect no_shear #
lump $-1 $-1 $44 $2 #
transform $-1 1 0 0 0 1 0 0 0 1 66.96737571337016 30.225959139160985 13.712975352364859 1 rotate no_reflect no_shear #
lump $-1 $-1 $45 $3 #
transform $-1 1 0 0 0 1 0 0 0 1 66.96737571337016 30.225959139160985 13.712975352364859 1 rotate no_reflect no_shear #
lump $-1 $-1 $46 $4 #
transform $-1 1 0 0 0 1 0 0 0 1 66.96737571337016 30.225959139160985 13.712975352364859 1 rotate no_reflect no_shear #
lump $-1 $-1 $47 $5 #
transform $-1 1 0 0 0 1 0 0 0 1 66.96737571337016 30.225959139160985 13.712975352364859 1 rotate no_reflect no_shear #
lump $-1 $-1 $48 $6 #
transform $-1 1 0 0 0 1 0 0 0 1 66.96737571337016 30.225959139160985 13.712975352364859 1 rotate no_reflect no_shear #
lump $-1 $-1 $49 $7 #
transform $-1 1 0 0 0 1 0 0 0 1 66.96737571337016 30.225959139160985 13.712975352364859 1 rotate no_reflect no_shear #
lump $-1 $-1 $50 $8 #
transform $-1 1 0 0 0 1 0 0 0 1 66.96737571337016 30.225959139160985 13.712975352364859 1 rotate no_reflect no_shear #
lump $-1 $-1 $51 $9 #
transform $-1 1 0 0 0 1 0 0 0 1 66.96737571337016 30.225959139160985 13.712975352364859 1 rotate no_reflect no_shear #
lump $-1 $-1 $52 $10 #
transform $-1 1 0 0 0 1 0 0 0 1 66.96737571337016 30.225959139160985 13.712975352364859 1 rotate no_reflect no_shear #
lump $-1 $-1 $53 $11 #
transform $-1 1 0 0 0 1 0 0 0 1 66.96737571337016 30.225959139160985 13.712975352364859 1 rotate no_reflect no_shear #
lump $-1 $-1 $54 $12 #
transform $-1 1 0 0 0 1 0 0 0 1 66.96737571337016 30.225959139160985 13.712975352364859 1 rotate no_reflect no_shear #
lump $-1 $-1 $55 $13 #
transform $-1 1 0 0 0 1 0 0 0 1 66.96737571337016 30.225959139160985 13.712975352364859 1 rotate no_reflect no_shear #
shell $-1 $-1 $-1 $56 $-1 $14 #
shell $-1 $-1 $-1 $57 $-1 $16 #
shell $-1 $-1 $-1 $58 $-1 $18 #
shell $-1 $-1 $-1 $59 $-1 $20 #
shell $-1 $-1 $-1 $60 $-1 $22 #
shell $-1 $-1 $-1 $61 $-1 $24 #
shell $-1 $-1 $-1 $62 $-1 $26 #
shell $-1 $-1 $-1 $63 $-1 $28 #
shell $-1 $-1 $-1 $64 $-1 $30 #
shell $-1 $-1 $-1 $65 $-1 $32 #
shell $-1 $-1 $-1 $66 $-1 $34 #
shell $-1 $-1 $-1 $67 $-1 $36 #
shell $-1 $-1 $-1 $68 $-1 $38 #
shell $-1 $-1 $-1 $69 $-1 $40 #
face $-1 $70 $71 $42 $-1 $72 reversed single #
face $-1 $73 $74 $43 $-1 $75 forward single #
face $-1 $76 $77 $44 $-1 $78 reversed single #
face $-1 $79 $80 $45 $-1 $81 forward single #
face $-1 $82 $83 $46 $-1 $84 reversed single #
face $-1 $85 $86 $47 $-1 $87 forward single #
face $-1 $88 $89 $48 $-1 $90 reversed single #
face $-1 $91 $92 $49 $-1 $93 forward single #
face $-1 $94 $95 $50 $-1 $96 reversed single #
face $-1 $97 $98 $51 $-1 $99 forward single #
face $-1 $100 $101 $52 $-1 $102 reversed single #
face $-1 $103 $104 $53 $-1 $105 forward single #
face $-1 $106 $107 $54 $-1 $108 reversed single #
face $-1 $109 $110 $55 $-1 $111 forward single #
face $-1 $112 $113 $42 $-1 $114 forward single #
loop $-1 $-1 $115 $56 #
plane-surface $-1 0 -30.225959139160985 0 0 1 0 0 0 1 forward_v I I I I #
face $-1 $116 $117 $43 $-1 $118 reversed single #
loop $-1 $-1 $119 $57 #
plane-surface $-1 0 -30.225959139160985 0 0 1 0 0 0 1 forward_v I I I I #
face $-1 $120 $121 $44 $-1 $122 reversed single #
loop $-1 $-1 $123 $58 #
plane-surface $-1 -151.25524690305915 -14.662469664161502 105.78336294503397 0 1 0 -0.62932039886446345 0 0.77714595512881146 forward_v I I I I #
face $-1 $124 $125 $45 $-1 $126 forward single #
loop $-1 $127 $128 $59 #
cone-surface $-1 -58.765225186772781 -11.4539078561507 6.7383099721546511 0.62932039886446345 0 -0.77714595512881146 0.77714595512881146 0 0.62932039886446345 1 I I 0 1 1 forward I I I I #
face $-1 $129 $130 $46 $-1 $131 reversed single #
loop $-1 $-1 $132 $60 #
plane-surface $-1 -151.25524690305915 -2.9463611828933081 105.78336294503397 0 1 0 -0.62932039886446345 0 0.77714595512881146 forward_v I I I I #
face $-1 $133 $134 $47 $-1 $135 forward single #
loop $-1 $136 $137 $61 #
cone-surface $-1 -58.765225186772781 0.26220062511749376 6.7383099721546511 0.62932039886446345 0 -0.77714595512881146 0.77714595512881146 0 0.62932039886446345 1 I I 0 1 1 forward I I I I #
face $-1 $138 $139 $48 $-1 $140 reversed single #
loop $-1 $-1 $141 $62 #
plane-surface $-1 -151.25524690305915 8.7697472983748845 105.78336294503397 0 1 0 -0.62932039886446345 0 0.77714595512881146 forward_v I I I I #
face $-1 $142 $143 $49 $-1 $144 forward single #
loop $-1 $145 $146 $63 #
cone-surface $-1 -58.765225186772781 11.978309106385687 6.7383099721546511 0.62932039886446345 0 -0.77714595512881146 0.77714595512881146 0 0.62932039886446345 1 I I 0 1 1 forward I I I I #
face $-1 $147 $148 $50 $-1 $149 reversed single #
loop $-1 $-1 $150 $64 #
plane-surface $-1 -151.25524690305915 20.485855779643078 105.78336294503397 0 1 0 -0.62932039886446345 0 0.77714595512881146 forward_v I I I I #
face $-1 $151 $152 $51 $-1 $153 forward single #
loop $-1 $154 $155 $65 #
cone-surface $-1 -58.765225186772781 23.694417587653881 6.7383099721546511 0.62932039886446345 0 -0.77714595512881146 0.77714595512881146 0 0.62932039886446345 1 I I 0 1 1 forward I I I I #
face $-1 $156 $157 $52 $-1 $158 reversed single #
loop $-1 $-1 $159 $66 #
plane-surface $-1 70.273079135319477 -11.855218969827767 191.72637447370059 0 -1 0 -0.71933980857756763 0 -0.69465836192734942 forward_v I I I I #
face $-1 $160 $161 $53 $-1 $162 forward single #
loop $-1 $163 $164 $67 #
cone-surface $-1 60.333398474192563 -14.920334188742785 6.9231888120297258 -0.71933980857756763 0 -0.69465836192734942 0.69465836192734942 0 -0.71933980857756763 1 I I 0 1 1 forward I I I I #
face $-1 $165 $166 $54 $-1 $167 reversed single #
loop $-1 $-1 $168 $68 #
plane-surface $-1 70.273079135319477 12.250485303581627 191.72637447370059 0 -1 0 -0.71933980857756763 0 -0.69465836192734942 forward_v I I I I #
face $-1 $169 $170 $55 $-1 $171 forward single #
loop $-1 $172 $173 $69 #
cone-surface $-1 60.333398474192563 9.1853700846666086 6.9231888120297258 -0.71933980857756763 0 -0.69465836192734942 0.69465836192734942 0 -0.71933980857756763 1 I I 0 1 1 forward I I I I #
face $-1 $174 $175 $42 $-1 $176 reversed single #
loop $-1 $-1 $177 $70 #
plane-surface $-1 0 0 13.712975352364859 0 0 1 1 0 0 forward_v I I I I #
coedge $-1 $178 $179 $180 $181 reversed $71 $-1 #
face $-1 $182 $183 $43 $-1 $184 reversed single #
loop $-1 $-1 $185 $73 #
plane-surface $-1 0 0 -13.712975352364859 0 0 1 1 0 0 forward_v I I I I #
coedge $-1 $186 $187 $188 $189 forward $74 $-1 #
face $-1 $190 $191 $44 $-1 $192 reversed single #
loop $-1 $-1 $193 $76 #
plane-surface $-1 -66.96737571337016 -11.4539078561507 1.6965126225599221 -0.62932039886446345 0 0.77714595512881146 0.77714595512881146 0 0.62932039886446345 forward_v I I I I #
coedge $-1 $194 $195 $196 $197 reversed $77 $-1 #
face $-1 $-1 $198 $45 $-1 $199 forward single #
loop $-1 $200 $201 $79 #
cone-surface $-1 -57.667962136517183 -11.4539078561507 5.3833029792825027 0.62932039886446345 0 -0.77714595512881146 0.38857297756440573 0 0.31466019943223172 1 I I -0.70710678118654746 0.70710678118654746 0.5 forward I I I I #
loop $-1 $-1 $202 $59 #
coedge $-1 $128 $128 $203 $204 reversed $80 $-1 #
face $-1 $205 $206 $46 $-1 $207 reversed single #
loop $-1 $-1 $208 $82 #
plane-surface $-1 -66.96737571337016 0.26220062511749376 1.6965126225599221 -0.62932039886446345 0 0.77714595512881146 0.77714595512881146 0 0.62932039886446345 forward_v I I I I #
coedge $-1 $209 $210 $211 $212 reversed $83 $-1 #
face $-1 $-1 $213 $47 $-1 $214 forward single #
loop $-1 $215 $216 $85 #
cone-surface $-1 -57.667962136517183 0.26220062511749376 5.3833029792825027 0.62932039886446345 0 -0.77714595512881146 0.38857297756440573 0 0.31466019943223172 1 I I -0.70710678118654746 0.70710678118654746 0.5 forward I I I I #
loop $-1 $-1 $217 $61 #
coedge $-1 $137 $137 $218 $219 reversed $86 $-1 #
face $-1 $220 $221 $48 $-1 $222 reversed single #
loop $-1 $-1 $223 $88 #
plane-surface $-1 -66.96737571337016 11.978309106385687 1.6965126225599221 -0.62932039886446345 0 0.77714595512881146 0.77714595512881146 0 0.62932039886446345 forward_v I I I I #
coedge $-1 $224 $225 $226 $227 reversed $89 $-1 #
face $-1 $-1 $228 $49 $-1 $229 forward single #
loop $-1 $230 $231 $91 #
cone-surface $-1 -57.667962136517183 11.978309106385687 5.3833029792825027 0.62932039886446345 0 -0.77714595512881146 0.38857297756440573 0 0.31466019943223172 1 I I -0.70710678118654746 0.70710678118654746 0.5 forward I I I I #
loop $-1 $-1 $232 $63 #
coedge $-1 $146 $146 $233 $234 reversed $92 $-1 #
face $-1 $235 $236 $50 $-1 $237 reversed single #
loop $-1 $-1 $238 $94 #
plane-surface $-1 -66.96737571337016 23.694417587653881 1.6965126225599221 -0.62932039886446345 0 0.77714595512881146 0.77714595512881146 0 0.62932039886446345 forward_v I I I I #
coedge $-1 $239 $240 $241 $242 reversed $95 $-1 #
face $-1 $-1 $243 $51 $-1 $244 forward single #
loop $-1 $245 $246 $97 #
cone-surface $-1 -57.667962136517183 23.694417587653881 5.3833029792825027 0.62932039886446345 0 -0.77714595512881146 0.38857297756440573 0 0.31466019943223172 1 I I -0.70710678118654746 0.70710678118654746 0.5 forward I I I I #
loop $-1 $-1 $247 $65 #
coedge $-1 $155 $155 $248 $249 reversed $98 $-1 #
face $-1 $250 $251 $52 $-1 $252 reversed single #
loop $-1 $-1 $253 $100 #
plane-surface $-1 -26.07151931787601 -14.920334188742785 98.687479442454432 0.71933980857756763 0 0.69465836192734942 0.69465836192734942 0 -0.71933980857756763 forward_v I I I I #
coedge $-1 $254 $255 $256 $257 reversed $101 $-1 #
face $-1 $-1 $258 $53 $-1 $259 forward single #
loop $-1 $260 $261 $103 #
cone-surface $-1 58.829737447894402 -14.920334188742785 5.4711202722838888 -0.71933980857756763 0 -0.69465836192734942 0.34732918096367471 0 -0.35966990428878381 1 I I -0.70710678118654746 0.70710678118654746 0.5 forward I I I I #
loop $-1 $-1 $262 $67 #
coedge $-1 $164 $164 $263 $264 reversed $104 $-1 #
face $-1 $265 $266 $54 $-1 $267 reversed single #
loop $-1 $-1 $268 $106 #
plane-surface $-1 -26.07151931787601 9.1853700846666086 98.687479442454432 0.71933980857756763 0 0.69465836192734942 0.69465836192734942 0 -0.71933980857756763 forward_v I I I I #
coedge $-1 $269 $270 $271 $272 reversed $107 $-1 #
face $-1 $-1 $273 $55 $-1 $274 forward single #
loop $-1 $275 $276 $109 #
cone-surface $-1 58.829737447894402 9.1853700846666086 5.4711202722838888 -0.71933980857756763 0 -0.69465836192734942 0.34732918096367471 0 -0.35966990428878381 1 I I -0.70710678118654746 0.70710678118654746 0.5 forward I I I I #
loop $-1 $-1 $277 $69 #
coedge $-1 $173 $173 $278 $279 reversed $110 $-1 #
face $-1 $280 $281 $42 $-1 $282 reversed single #
loop $-1 $-1 $283 $112 #
plane-surface $-1 0 0 -13.712975352364859 0 0 1 1 0 0 forward_v I I I I #
coedge $-1 $284 $285 $286 $287 forward $113 $-1 #
coedge $-1 $288 $115 $289 $290 reversed $71 $-1 #
coedge $-1 $115 $288 $291 $292 forward $71 $-1 #
coedge $-1 $293 $283 $115 $181 forward $175 $-1 #
edge $-1 $294 -66.96737571337016 $295 66.96737571337016 $115 $296 forward 7 unknown #
face $-1 $297 $298 $43 $-1 $299 reversed single #
loop $-1 $-1 $300 $116 #
plane-surface $-1 -43.491698674640404 -42.466468870664166 0 0 1 0 0 0 1 forward_v I I I I #
coedge $-1 $301 $302 $187 $303 forward $117 $-1 #
coedge $-1 $304 $119 $305 $306 reversed $74 $-1 #
coedge $-1 $119 $304 $185 $303 reversed $74 $-1 #
coedge $-1 $307 $308 $119 $189 reversed $298 $-1 #
edge $-1 $309 -13.712975352364859 $310 13.712975352364859 $188 $311 forward 7 unknown #
face $-1 $312 $313 $44 $-1 $314 reversed single #
loop $-1 $-1 $315 $120 #
plane-surface $-1 -151.25524690305915 -8.245346048139897 105.78336294503397 0 -1 0 0.62932039886446345 0 -0.77714595512881146 forward_v I I I I #
coedge $-1 $316 $317 $318 $319 reversed $121 $-1 #
coedge $-1 $195 $123 $320 $321 reversed $77 $-1 #
coedge $-1 $123 $194 $316 $322 reversed $77 $-1 #
coedge $-1 $318 $323 $123 $197 forward $324 $-1 #
edge $-1 $325 8.6602477381594127 $326 23.499343089707459 $196 $327 forward 7 unknown #
loop $-1 $-1 $203 $124 #
plane-surface $-1 -66.96737571337016 -11.4539078561507 1.6965126225599221 -0.62932039886446345 0 0.77714595512881146 0.77714595512881146 0 0.62932039886446345 forward_v I I I I #
loop $-1 $-1 $328 $79 #
coedge $-1 $201 $201 $202 $329 reversed $125 $-1 #
coedge $-1 $202 $202 $201 $329 forward $127 $-1 #
coedge $-1 $203 $203 $128 $204 forward $198 $-1 #
edge $-1 $330 0 $330 6.2831853071796004 $203 $331 forward 7 unknown #
face $-1 $332 $333 $46 $-1 $334 forward single #
loop $-1 $-1 $335 $129 #
plane-surface $-1 -151.25524690305915 3.4707624331282956 105.78336294503397 0 -1 0 0.62932039886446345 0 -0.77714595512881146 forward_v I I I I #
coedge $-1 $336 $337 $338 $339 reversed $130 $-1 #
coedge $-1 $210 $132 $340 $341 reversed $83 $-1 #
coedge $-1 $132 $209 $336 $342 reversed $83 $-1 #
coedge $-1 $338 $343 $132 $212 forward $333 $-1 #
edge $-1 $344 8.6602477381594127 $345 23.499343089707459 $211 $346 forward 7 unknown #
loop $-1 $-1 $218 $133 #
plane-surface $-1 -66.96737571337016 0.26220062511749376 1.6965126225599221 -0.62932039886446345 0 0.77714595512881146 0.77714595512881146 0 0.62932039886446345 forward_v I I I I #
loop $-1 $-1 $347 $85 #
coedge $-1 $216 $216 $217 $348 reversed $134 $-1 #
coedge $-1 $217 $217 $216 $348 forward $136 $-1 #
coedge $-1 $218 $218 $137 $219 forward $213 $-1 #
edge $-1 $349 0 $349 6.2831853071796004 $218 $350 forward 7 unknown #
face $-1 $351 $352 $48 $-1 $353 forward single #
loop $-1 $-1 $354 $138 #
plane-surface $-1 -151.25524690305915 15.18687091439649 105.78336294503397 0 -1 0 0.62932039886446345 0 -0.77714595512881146 forward_v I I I I #
coedge $-1 $355 $356 $357 $358 reversed $139 $-1 #
coedge $-1 $225 $141 $359 $360 reversed $89 $-1 #
coedge $-1 $141 $224 $355 $361 reversed $89 $-1 #
coedge $-1 $357 $362 $141 $227 forward $352 $-1 #
edge $-1 $363 8.6602477381594127 $364 23.499343089707459 $226 $365 forward 7 unknown #
loop $-1 $-1 $233 $142 #
plane-surface $-1 -66.96737571337016 11.978309106385687 1.6965126225599221 -0.62932039886446345 0 0.77714595512881146 0.77714595512881146 0 0.62932039886446345 forward_v I I I I #
loop $-1 $-1 $366 $91 #
coedge $-1 $231 $231 $232 $367 reversed $143 $-1 #
coedge $-1 $232 $232 $231 $367 forward $145 $-1 #
coedge $-1 $233 $233 $146 $234 forward $228 $-1 #
edge $-1 $368 0 $368 6.2831853071796004 $233 $369 forward 7 unknown #
face $-1 $370 $371 $50 $-1 $372 forward single #
loop $-1 $-1 $373 $147 #
plane-surface $-1 -151.25524690305915 26.902979395664683 105.78336294503397 0 -1 0 0.62932039886446345 0 -0.77714595512881146 forward_v I I I I #
coedge $-1 $374 $375 $376 $377 reversed $148 $-1 #
coedge $-1 $240 $150 $378 $379 reversed $95 $-1 #
coedge $-1 $150 $239 $374 $380 reversed $95 $-1 #
coedge $-1 $376 $381 $150 $242 forward $371 $-1 #
edge $-1 $382 8.6602477381594127 $383 23.499343089707459 $241 $384 forward 7 unknown #
loop $-1 $-1 $248 $151 #
plane-surface $-1 -66.96737571337016 23.694417587653881 1.6965126225599221 -0.62932039886446345 0 0.77714595512881146 0.77714595512881146 0 0.62932039886446345 forward_v I I I I #
loop $-1 $-1 $385 $97 #
coedge $-1 $246 $246 $247 $386 reversed $152 $-1 #
coedge $-1 $247 $247 $246 $386 forward $154 $-1 #
coedge $-1 $248 $248 $155 $249 forward $243 $-1 #
edge $-1 $387 0 $387 6.2831853071796004 $248 $388 forward 7 unknown #
face $-1 $389 $390 $52 $-1 $391 forward single #
loop $-1 $-1 $392 $156 #
plane-surface $-1 70.273079135319477 -17.985449407657804 191.72637447370059 0 1 0 0.71933980857756763 0 0.69465836192734942 forward_v I I I I #
coedge $-1 $393 $394 $395 $396 reversed $157 $-1 #
coedge $-1 $255 $159 $397 $398 reversed $101 $-1 #
coedge $-1 $159 $254 $393 $399 reversed $101 $-1 #
coedge $-1 $395 $400 $159 $257 forward $390 $-1 #
edge $-1 $401 -31.830836145710421 $402 -20.85086391137402 $256 $403 forward 7 unknown #
loop $-1 $-1 $263 $160 #
plane-surface $-1 -26.07151931787601 -14.920334188742785 98.687479442454432 0.71933980857756763 0 0.69465836192734942 0.69465836192734942 0 -0.71933980857756763 forward_v I I I I #
loop $-1 $-1 $404 $103 #
coedge $-1 $261 $261 $262 $405 reversed $161 $-1 #
coedge $-1 $262 $262 $261 $405 forward $163 $-1 #
coedge $-1 $263 $263 $164 $264 forward $258 $-1 #
edge $-1 $406 0 $406 6.2831853071796004 $263 $407 forward 7 unknown #
face $-1 $408 $409 $54 $-1 $410 reversed single #
loop $-1 $-1 $411 $165 #
plane-surface $-1 70.273079135319477 6.1202548657515905 191.72637447370059 0 1 0 0.71933980857756763 0 0.69465836192734942 forward_v I I I I #
coedge $-1 $412 $413 $414 $415 reversed $166 $-1 #
coedge $-1 $270 $168 $416 $417 reversed $107 $-1 #
coedge $-1 $168 $269 $412 $418 reversed $107 $-1 #
coedge $-1 $414 $419 $168 $272 forward $420 $-1 #
edge $-1 $421 -31.830836145710421 $422 -20.85086391137402 $271 $423 forward 7 unknown #
loop $-1 $-1 $278 $169 #
plane-surface $-1 -26.07151931787601 9.1853700846666086 98.687479442454432 0.71933980857756763 0 0.69465836192734942 0.69465836192734942 0 -0.71933980857756763 forward_v I I I I #
loop $-1 $-1 $424 $109 #
coedge $-1 $276 $276 $277 $425 reversed $170 $-1 #
coedge $-1 $277 $277 $276 $425 forward $172 $-1 #
coedge $-1 $278 $278 $173 $279 forward $273 $-1 #
edge $-1 $426 0 $426 6.2831853071796004 $278 $427 forward 7 unknown #
face $-1 $428 $429 $42 $-1 $430 reversed single #
loop $-1 $-1 $431 $174 #
plane-surface $-1 -66.96737571337016 0 0 1 0 0 0 0 -1 forward_v I I I I #
coedge $-1 $180 $432 $433 $434 forward $175 $-1 #
coedge $-1 $435 $177 $436 $437 forward $113 $-1 #
coedge $-1 $177 $435 $288 $438 forward $113 $-1 #
coedge $-1 $289 $439 $177 $287 reversed $440 $-1 #
edge $-1 $441 -30.225959139160985 $442 30.225959139160985 $286 $443 forward 7 unknown #
coedge $-1 $179 $178 $285 $438 reversed $71 $-1 #
coedge $-1 $433 $286 $178 $290 forward $440 $-1 #
edge $-1 $441 -13.712975352364859 $294 13.712975352364859 $289 $444 forward 7 unknown #
coedge $-1 $445 $446 $179 $292 reversed $281 $-1 #
edge $-1 $447 -13.712975352364859 $295 13.712975352364859 $291 $448 forward 7 unknown #
coedge $-1 $432 $180 $446 $449 forward $175 $-1 #
vertex $-1 $290 $450 #
vertex $-1 $449 $451 #
straight-curve $-1 0 -30.225959139160985 -13.712975352364859 -1 0 0 I I #
face $-1 $452 $453 $43 $-1 $454 reversed single #
loop $-1 $-1 $188 $182 #
plane-surface $-1 -46.742059271253218 -36.346214004912575 0 1 0 0 0 0 -1 forward_v I I I I #
coedge $-1 $455 $456 $457 $458 forward $183 $-1 #
coedge $-1 $459 $185 $460 $461 forward $117 $-1 #
coedge $-1 $185 $459 $307 $462 forward $117 $-1 #
edge $-1 $309 -46.742059271253218 $463 -40.241338078027589 $185 $464 forward 7 unknown #
coedge $-1 $187 $186 $465 $466 forward $74 $-1 #
coedge $-1 $467 $468 $186 $306 forward $469 $-1 #
edge $-1 $470 40.241338078027589 $310 46.742059271253218 $305 $471 forward 7 unknown #
coedge $-1 $457 $188 $302 $462 reversed $298 $-1 #
coedge $-1 $188 $457 $467 $472 reversed $298 $-1 #
vertex $-1 $303 $473 #
vertex $-1 $472 $474 #
straight-curve $-1 -46.742059271253218 -30.225959139160985 0 0 0 1 I I #
face $-1 $-1 $324 $44 $-1 $475 forward single #
loop $-1 $-1 $476 $190 #
plane-surface $-1 -66.96737571337016 0 0 1 0 0 0 0 -1 forward_v I I I I #
coedge $-1 $477 $478 $479 $480 reversed $191 $-1 #
coedge $-1 $481 $193 $195 $322 forward $121 $-1 #
coedge $-1 $193 $481 $477 $482 forward $121 $-1 #
coedge $-1 $479 $196 $193 $319 forward $324 $-1 #
edge $-1 $326 -8.9355157360861526 $483 -2.5183921200645472 $318 $484 forward 7 unknown #
coedge $-1 $485 $486 $194 $321 forward $313 $-1 #
edge $-1 $487 -51.195168849957064 $325 -39.178706120152128 $320 $488 forward 7 unknown #
edge $-1 $326 -19.094348048287117 $487 0 $195 $489 forward 7 unknown #
coedge $-1 $196 $479 $485 $490 forward $324 $-1 #
loop $-1 $-1 $479 $312 #
vertex $-1 $321 $491 #
vertex $-1 $197 $492 #
straight-curve $-1 -75.627623451529573 -14.662469664161502 13.712975352364857 1 0 0 I I #
coedge $-1 $328 $328 $-1 $493 reversed $200 $-1 #
edge $-1 $494 0 $494 6.2831853071796004 $201 $495 forward 7 unknown #
vertex $-1 $204 $496 #
ellipse-curve $-1 -59.54782803759614 -11.4539078561507 7.704743987462388 -0.62932039886446345 0 0.77714595512881146 0.77714595512881146 0 0.62932039886446345 1 I I #
face $-1 $-1 $497 $46 $-1 $498 reversed single #
loop $-1 $-1 $211 $205 #
plane-surface $-1 0 0 13.712975352364859 0 0 1 1 0 0 forward_v I I I I #
coedge $-1 $499 $500 $501 $502 reversed $206 $-1 #
coedge $-1 $503 $208 $210 $342 forward $130 $-1 #
coedge $-1 $208 $503 $499 $504 forward $130 $-1 #
coedge $-1 $501 $211 $208 $339 forward $333 $-1 #
edge $-1 $345 -3.0774614954520549 $505 3.3396621205695487 $338 $506 forward 7 unknown #
coedge $-1 $507 $508 $209 $341 forward $497 $-1 #
edge $-1 $509 -51.195168849957064 $344 -39.178706120152128 $340 $510 forward 7 unknown #
edge $-1 $345 -19.094348048287117 $509 0 $210 $511 forward 7 unknown #
coedge $-1 $211 $501 $507 $512 forward $333 $-1 #
vertex $-1 $212 $513 #
vertex $-1 $212 $514 #
straight-curve $-1 -75.627623451529573 -2.9463611828933081 13.712975352364857 1 0 0 I I #
coedge $-1 $347 $347 $-1 $515 reversed $215 $-1 #
edge $-1 $516 0 $516 6.2831853071796004 $216 $517 forward 7 unknown #
vertex $-1 $219 $518 #
ellipse-curve $-1 -59.54782803759614 0.26220062511749376 7.704743987462388 -0.62932039886446345 0 0.77714595512881146 0.77714595512881146 0 0.62932039886446345 1 I I #
face $-1 $-1 $519 $48 $-1 $520 reversed single #
loop $-1 $-1 $226 $220 #
plane-surface $-1 0 0 13.712975352364859 0 0 1 1 0 0 forward_v I I I I #
coedge $-1 $521 $522 $523 $524 reversed $221 $-1 #
coedge $-1 $525 $223 $225 $361 forward $139 $-1 #
coedge $-1 $223 $525 $521 $526 forward $139 $-1 #
coedge $-1 $523 $226 $223 $358 forward $352 $-1 #
edge $-1 $364 2.7805927451820409 $527 9.1977163612036463 $357 $528 forward 7 unknown #
coedge $-1 $529 $530 $224 $360 forward $519 $-1 #
edge $-1 $531 -51.195168849957064 $363 -39.178706120152128 $359 $532 forward 7 unknown #
edge $-1 $364 -19.094348048287117 $531 0 $225 $533 forward 7 unknown #
coedge $-1 $226 $523 $529 $534 forward $352 $-1 #
vertex $-1 $227 $535 #
vertex $-1 $227 $536 #
straight-curve $-1 -75.627623451529573 8.7697472983748845 13.712975352364857 1 0 0 I I #
coedge $-1 $366 $366 $-1 $537 reversed $230 $-1 #
edge $-1 $538 0 $538 6.2831853071796004 $231 $539 forward 7 unknown #
vertex $-1 $234 $540 #
ellipse-curve $-1 -59.54782803759614 11.978309106385687 7.704743987462388 -0.62932039886446345 0 0.77714595512881146 0.77714595512881146 0 0.62932039886446345 1 I I #
face $-1 $-1 $541 $50 $-1 $542 reversed single #
loop $-1 $-1 $241 $235 #
plane-surface $-1 0 0 13.712975352364859 0 0 1 1 0 0 forward_v I I I I #
coedge $-1 $543 $544 $545 $546 reversed $236 $-1 #
coedge $-1 $547 $238 $240 $380 forward $148 $-1 #
coedge $-1 $238 $547 $543 $548 forward $148 $-1 #
coedge $-1 $545 $241 $238 $377 forward $371 $-1 #
edge $-1 $383 8.6386469858161377 $549 15.055770601837743 $376 $550 forward 7 unknown #
coedge $-1 $551 $552 $239 $379 forward $541 $-1 #
edge $-1 $553 -51.195168849957064 $382 -39.178706120152128 $378 $554 forward 7 unknown #
edge $-1 $383 -19.094348048287117 $553 0 $240 $555 forward 7 unknown #
coedge $-1 $241 $545 $551 $556 forward $371 $-1 #
vertex $-1 $242 $557 #
vertex $-1 $242 $558 #
straight-curve $-1 -75.627623451529573 20.485855779643078 13.712975352364857 1 0 0 I I #
coedge $-1 $385 $385 $-1 $559 reversed $245 $-1 #
edge $-1 $560 0 $560 6.2831853071796004 $246 $561 forward 7 unknown #
vertex $-1 $249 $562 #
ellipse-curve $-1 -59.54782803759614 23.694417587653881 7.704743987462388 -0.62932039886446345 0 0.77714595512881146 0.77714595512881146 0 0.62932039886446345 1 I I #
face $-1 $-1 $563 $52 $-1 $564 reversed single #
loop $-1 $-1 $256 $250 #
plane-surface $-1 0 0 13.712975352364859 0 0 1 1 0 0 forward_v I I I I #
coedge $-1 $565 $566 $567 $568 reversed $251 $-1 #
coedge $-1 $569 $253 $255 $399 forward $157 $-1 #
coedge $-1 $253 $569 $565 $570 forward $157 $-1 #
coedge $-1 $567 $256 $253 $396 forward $390 $-1 #
edge $-1 $402 4.3950518754563745 $571 10.525282313286411 $395 $572 forward 7 unknown #
coedge $-1 $573 $574 $254 $398 forward $563 $-1 #
edge $-1 $575 -93.520306247591364 $401 -82.150211884485429 $397 $576 forward 7 unknown #
edge $-1 $402 118.12846039776294 $575 133.93475142674035 $255 $577 forward 7 unknown #
coedge $-1 $256 $567 $573 $578 forward $390 $-1 #
vertex $-1 $257 $579 #
vertex $-1 $257 $580 #
straight-curve $-1 35.136539567659739 -11.855218969827767 13.712975352364865 -1 0 0 I I #
coedge $-1 $404 $404 $-1 $581 reversed $260 $-1 #
edge $-1 $582 0 $582 6.2831853071796004 $261 $583 forward 7 unknown #
vertex $-1 $264 $584 #
ellipse-curve $-1 61.477389596201959 -14.920334188742785 8.0279281708119026 0.71933980857756763 0 0.69465836192734942 0.69465836192734942 0 -0.71933980857756763 1 I I #
face $-1 $-1 $420 $54 $-1 $585 forward single #
loop $-1 $-1 $586 $265 #
plane-surface $-1 66.96737571337016 0 0 -1 0 0 0 0 1 forward_v I I I I #
coedge $-1 $587 $588 $589 $590 reversed $266 $-1 #
coedge $-1 $591 $268 $270 $418 forward $166 $-1 #
coedge $-1 $268 $591 $587 $592 forward $166 $-1 #
coedge $-1 $589 $271 $268 $415 forward $420 $-1 #
edge $-1 $422 -7.6578002612483225 $593 -1.5275698234182862 $414 $594 forward 7 unknown #
coedge $-1 $595 $596 $269 $417 forward $409 $-1 #
edge $-1 $597 -93.520306247591364 $421 -82.150211884485429 $416 $598 forward 7 unknown #
edge $-1 $422 118.12846039776294 $597 133.93475142674035 $270 $599 forward 7 unknown #
coedge $-1 $271 $589 $595 $600 forward $420 $-1 #
loop $-1 $-1 $589 $408 #
vertex $-1 $417 $601 #
vertex $-1 $272 $602 #
straight-curve $-1 35.136539567659739 12.250485303581627 13.712975352364865 -1 0 0 I I #
coedge $-1 $424 $424 $-1 $603 reversed $275 $-1 #
edge $-1 $604 0 $604 6.2831853071796004 $276 $605 forward 7 unknown #
vertex $-1 $279 $606 #
ellipse-curve $-1 61.477389596201959 9.1853700846666086 8.0279281708119026 0.71933980857756763 0 0.69465836192734942 0.69465836192734942 0 -0.71933980857756763 1 I I #
face $-1 $-1 $440 $42 $-1 $607 reversed single #
loop $-1 $-1 $608 $280 #
plane-surface $-1 0 30.225959139160985 0 0 -1 0 0 0 -1 forward_v I I I I #
coedge $-1 $446 $445 $609 $610 forward $281 $-1 #
coedge $-1 $283 $293 $611 $612 forward $175 $-1 #
coedge $-1 $439 $289 $283 $434 reversed $440 $-1 #
edge $-1 $613 -30.225959139160985 $294 30.225959139160985 $433 $614 forward 7 unknown #
coedge $-1 $285 $284 $445 $615 forward $113 $-1 #
coedge $-1 $608 $609 $284 $437 reversed $429 $-1 #
edge $-1 $442 -66.96737571337016 $616 66.96737571337016 $436 $617 forward 7 unknown #
edge $-1 $447 -66.96737571337016 $441 66.96737571337016 $288 $618 forward 7 unknown #
coedge $-1 $286 $433 $608 $619 reversed $440 $-1 #
loop $-1 $-1 $289 $428 #
vertex $-1 $287 $620 #
vertex $-1 $287 $621 #
straight-curve $-1 66.96737571337016 0 13.712975352364859 0 1 0 I I #
straight-curve $-1 66.96737571337016 -30.225959139160985 0 0 0 -1 I I #
coedge $-1 $431 $291 $435 $615 reversed $281 $-1 #
coedge $-1 $291 $431 $293 $449 reversed $281 $-1 #
vertex $-1 $615 $622 #
straight-curve $-1 -66.96737571337016 -30.225959139160985 0 0 0 -1 I I #
edge $-1 $295 -30.225959139160985 $623 30.225959139160985 $446 $624 forward 7 unknown #
point $-1 66.96737571337016 -30.225959139160985 -13.712975352364859 #
point $-1 -66.96737571337016 -30.225959139160985 -13.712975352364859 #
face $-1 $-1 $469 $43 $-1 $625 forward single #
loop $-1 $-1 $626 $297 #
plane-surface $-1 -40.241338078027589 -36.346214004912575 0 -1 0 0 0 0 1 forward_v I I I I #
coedge $-1 $627 $300 $459 $628 reversed $183 $-1 #
coedge $-1 $300 $627 $629 $630 reversed $183 $-1 #
coedge $-1 $308 $307 $300 $458 reversed $298 $-1 #
edge $-1 $631 -13.712975352364859 $632 13.712975352364859 $457 $633 forward 7 unknown #
coedge $-1 $302 $301 $455 $628 forward $117 $-1 #
coedge $-1 $465 $626 $301 $461 reversed $453 $-1 #
edge $-1 $463 -6.1202548657515905 $634 6.1202548657515905 $460 $635 forward 7 unknown #
edge $-1 $632 -6.1202548657515905 $309 6.1202548657515905 $307 $636 forward 7 unknown #
vertex $-1 $461 $637 #
straight-curve $-1 0 -30.225959139160985 -13.712975352364859 1 0 0 I I #
coedge $-1 $638 $460 $304 $466 reversed $453 $-1 #
edge $-1 $470 -13.712975352364859 $463 13.712975352364859 $465 $639 forward 7 unknown #
coedge $-1 $629 $305 $308 $472 forward $469 $-1 #
coedge $-1 $305 $629 $638 $640 forward $469 $-1 #
loop $-1 $-1 $305 $452 #
vertex $-1 $306 $641 #
straight-curve $-1 0 -30.225959139160985 13.712975352364859 -1 0 0 I I #
edge $-1 $310 -6.1202548657515905 $631 6.1202548657515905 $308 $642 forward 7 unknown #
point $-1 -46.742059271253218 -30.225959139160985 -13.712975352364859 #
point $-1 -46.742059271253218 -30.225959139160985 13.712975352364859 #
plane-surface $-1 0 0 13.712975352364859 0 0 1 1 0 0 forward_v I I I I #
coedge $-1 $486 $485 $478 $643 forward $313 $-1 #
coedge $-1 $478 $315 $317 $482 reversed $191 $-1 #
coedge $-1 $315 $477 $476 $643 reversed $191 $-1 #
coedge $-1 $323 $318 $315 $480 forward $324 $-1 #
edge $-1 $483 -23.499343089707459 $644 -8.6602477381594127 $479 $645 forward 7 unknown #
coedge $-1 $317 $316 $486 $646 reversed $121 $-1 #
edge $-1 $647 0 $483 19.094348048287117 $477 $648 forward 7 unknown #
vertex $-1 $319 $649 #
straight-curve $-1 -52.128280361822114 -5.7269539280753499 13.712975352364857 0 1 0 I I #
coedge $-1 $476 $320 $323 $490 reversed $313 $-1 #
coedge $-1 $320 $476 $481 $646 forward $313 $-1 #
vertex $-1 $321 $650 #
straight-curve $-1 -66.96737571337016 -14.662469664161502 52.891681472516986 0 0 1 I I #
straight-curve $-1 -66.96737571337016 -14.662469664161502 1.6965126225599221 -0.77714595512881146 0 -0.62932039886446345 I I #
edge $-1 $644 8.245346048139897 $325 14.662469664161502 $485 $651 forward 7 unknown #
point $-1 -66.96737571337016 -14.662469664161502 13.712975352364859 #
point $-1 -52.128280361822114 -14.662469664161502 13.712975352364859 #
edge $-1 $652 1 $652 0 $328 $-1 forward 7 unknown #
vertex $-1 $329 $653 #
ellipse-curve $-1 -57.982622335949415 -11.4539078561507 5.771875956846908 -0.62932039886446345 0 0.77714595512881146 0.77714595512881146 0 0.62932039886446345 1 I I #
point $-1 -58.770682082467331 -11.4539078561507 8.3340643863268582 #
loop $-1 $-1 $340 $332 #
plane-surface $-1 -66.96737571337016 0 0 1 0 0 0 0 -1 forward_v I I I I #
coedge $-1 $500 $335 $337 $504 reversed $206 $-1 #
coedge $-1 $335 $499 $654 $655 reversed $206 $-1 #
coedge $-1 $343 $338 $335 $502 forward $333 $-1 #
edge $-1 $505 -23.499343089707459 $656 -8.6602477381594127 $501 $657 forward 7 unknown #
coedge $-1 $337 $336 $508 $658 reversed $130 $-1 #
edge $-1 $659 0 $505 19.094348048287117 $499 $660 forward 7 unknown #
vertex $-1 $339 $661 #
straight-curve $-1 -52.128280361822114 0.13110031255874688 13.712975352364857 0 1 0 I I #
coedge $-1 $654 $340 $343 $512 reversed $497 $-1 #
coedge $-1 $340 $654 $503 $658 forward $497 $-1 #
vertex $-1 $341 $662 #
straight-curve $-1 -66.96737571337016 -2.9463611828933081 52.891681472516986 0 0 1 I I #
straight-curve $-1 -66.96737571337016 -2.9463611828933081 1.6965126225599221 -0.77714595512881146 0 -0.62932039886446345 I I #
edge $-1 $656 -3.4707624331282956 $344 2.9463611828933081 $507 $663 forward 7 unknown #
point $-1 -66.96737571337016 -2.9463611828933081 13.712975352364859 #
point $-1 -52.128280361822114 -2.9463611828933081 13.712975352364859 #
edge $-1 $664 1 $664 0 $347 $-1 forward 7 unknown #
vertex $-1 $348 $665 #
ellipse-curve $-1 -57.982622335949415 0.26220062511749376 5.771875956846908 -0.62932039886446345 0 0.77714595512881146 0.77714595512881146 0 0.62932039886446345 1 I I #
point $-1 -58.770682082467331 0.26220062511749376 8.3340643863268582 #
loop $-1 $-1 $359 $351 #
plane-surface $-1 -66.96737571337016 0 0 1 0 0 0 0 -1 forward_v I I I I #
coedge $-1 $522 $354 $356 $526 reversed $221 $-1 #
coedge $-1 $354 $521 $666 $667 reversed $221 $-1 #
coedge $-1 $362 $357 $354 $524 forward $352 $-1 #
edge $-1 $527 -23.499343089707459 $668 -8.6602477381594127 $523 $669 forward 7 unknown #
coedge $-1 $356 $355 $530 $670 reversed $139 $-1 #
edge $-1 $671 0 $527 19.094348048287117 $521 $672 forward 7 unknown #
vertex $-1 $358 $673 #
straight-curve $-1 -52.128280361822114 5.9891545531928436 13.712975352364857 0 1 0 I I #
coedge $-1 $666 $359 $362 $534 reversed $519 $-1 #
coedge $-1 $359 $666 $525 $670 forward $519 $-1 #
vertex $-1 $360 $674 #
straight-curve $-1 -66.96737571337016 8.7697472983748845 52.891681472516986 0 0 1 I I #
straight-curve $-1 -66.96737571337016 8.7697472983748845 1.6965126225599221 -0.77714595512881146 0 -0.62932039886446345 I I #
edge $-1 $668 -15.18687091439649 $363 -8.7697472983748845 $529 $675 forward 7 unknown #
point $-1 -66.96737571337016 8.7697472983748845 13.712975352364859 #
point $-1 -52.128280361822114 8.7697472983748845 13.712975352364859 #
edge $-1 $676 1 $676 0 $366 $-1 forward 7 unknown #
vertex $-1 $367 $677 #
ellipse-curve $-1 -57.982622335949415 11.978309106385687 5.771875956846908 -0.62932039886446345 0 0.77714595512881146 0.77714595512881146 0 0.62932039886446345 1 I I #
point $-1 -58.770682082467331 11.978309106385687 8.3340643863268582 #
loop $-1 $-1 $378 $370 #
plane-surface $-1 -66.96737571337016 0 0 1 0 0 0 0 -1 forward_v I I I I #
coedge $-1 $544 $373 $375 $548 reversed $236 $-1 #
coedge $-1 $373 $543 $678 $679 reversed $236 $-1 #
coedge $-1 $381 $376 $373 $546 forward $371 $-1 #
edge $-1 $549 -23.499343089707459 $680 -8.6602477381594127 $545 $681 forward 7 unknown #
coedge $-1 $375 $374 $552 $682 reversed $148 $-1 #
edge $-1 $683 0 $549 19.094348048287117 $543 $684 forward 7 unknown #
vertex $-1 $377 $685 #
straight-curve $-1 -52.128280361822114 11.84720879382694 13.712975352364857 0 1 0 I I #
coedge $-1 $678 $378 $381 $556 reversed $541 $-1 #
coedge $-1 $378 $678 $547 $682 forward $541 $-1 #
vertex $-1 $379 $686 #
straight-curve $-1 -66.96737571337016 20.485855779643078 52.891681472516986 0 0 1 I I #
straight-curve $-1 -66.96737571337016 20.485855779643078 1.6965126225599221 -0.77714595512881146 0 -0.62932039886446345 I I #
edge $-1 $680 -26.902979395664683 $382 -20.485855779643078 $551 $687 forward 7 unknown #
point $-1 -66.96737571337016 20.485855779643078 13.712975352364859 #
point $-1 -52.128280361822114 20.485855779643078 13.712975352364859 #
edge $-1 $688 1 $688 0 $385 $-1 forward 7 unknown #
vertex $-1 $386 $689 #
ellipse-curve $-1 -57.982622335949415 23.694417587653881 5.771875956846908 -0.62932039886446345 0 0.77714595512881146 0.77714595512881146 0 0.62932039886446345 1 I I #
point $-1 -58.770682082467331 23.694417587653881 8.3340643863268582 #
loop $-1 $-1 $397 $389 #
plane-surface $-1 66.96737571337016 0 0 -1 0 0 0 0 1 forward_v I I I I #
coedge $-1 $566 $392 $394 $570 reversed $251 $-1 #
coedge $-1 $392 $565 $690 $691 reversed $251 $-1 #
coedge $-1 $400 $395 $392 $568 forward $390 $-1 #
edge $-1 $571 20.85086391137402 $692 31.830836145710421 $567 $693 forward 7 unknown #
coedge $-1 $394 $393 $574 $694 reversed $157 $-1 #
edge $-1 $695 -133.93475142674035 $571 -118.12846039776294 $565 $696 forward 7 unknown #
vertex $-1 $396 $697 #
straight-curve $-1 55.987403479033759 -7.4601670943713927 13.712975352364857 0 -1 0 I I #
coedge $-1 $690 $397 $400 $578 reversed $563 $-1 #
coedge $-1 $397 $690 $569 $694 forward $563 $-1 #
vertex $-1 $398 $698 #
straight-curve $-1 66.96737571337016 -11.855218969827767 95.863187236850294 0 0 1 I I #
straight-curve $-1 -26.07151931787601 -11.855218969827767 98.687479442454432 0.69465836192734942 0 -0.71933980857756763 I I #
edge $-1 $692 -17.985449407657804 $401 -11.855218969827767 $573 $699 forward 7 unknown #
point $-1 66.96737571337016 -11.855218969827767 13.712975352364859 #
point $-1 55.987403479033759 -11.855218969827767 13.712975352364865 #
edge $-1 $700 1 $700 0 $404 $-1 forward 7 unknown #
vertex $-1 $405 $701 #
ellipse-curve $-1 59.189407352183188 -14.920334188742785 5.8184494532475632 0.71933980857756763 0 0.69465836192734942 0.69465836192734942 0 -0.71933980857756763 1 I I #
point $-1 62.172047958129291 -14.920334188742785 7.3085883622343211 #
plane-surface $-1 0 0 13.712975352364859 0 0 1 1 0 0 forward_v I I I I #
coedge $-1 $596 $595 $588 $702 forward $409 $-1 #
coedge $-1 $588 $411 $413 $592 reversed $266 $-1 #
coedge $-1 $411 $587 $586 $702 reversed $266 $-1 #
coedge $-1 $419 $414 $411 $590 forward $420 $-1 #
edge $-1 $593 20.85086391137402 $703 31.830836145710421 $589 $704 forward 7 unknown #
coedge $-1 $413 $412 $596 $705 reversed $166 $-1 #
edge $-1 $706 -133.93475142674035 $593 -118.12846039776294 $587 $707 forward 7 unknown #
vertex $-1 $415 $708 #
straight-curve $-1 55.987403479033759 4.5926850423333043 13.712975352364857 0 -1 0 I I #
coedge $-1 $586 $416 $419 $600 reversed $409 $-1 #
coedge $-1 $416 $586 $591 $705 forward $409 $-1 #
vertex $-1 $417 $709 #
straight-curve $-1 66.96737571337016 12.250485303581627 95.863187236850294 0 0 1 I I #
straight-curve $-1 -26.07151931787601 12.250485303581627 98.687479442454432 0.69465836192734942 0 -0.71933980857756763 I I #
edge $-1 $703 6.1202548657515905 $421 12.250485303581627 $595 $710 forward 7 unknown #
point $-1 66.96737571337016 12.250485303581627 13.712975352364859 #
point $-1 55.987403479033759 12.250485303581627 13.712975352364865 #
edge $-1 $711 1 $711 0 $424 $-1 forward 7 unknown #
vertex $-1 $425 $712 #
ellipse-curve $-1 59.189407352183188 9.1853700846666086 5.8184494532475632 0.71933980857756763 0 0.69465836192734942 0.69465836192734942 0 -0.71933980857756763 1 I I #
point $-1 62.172047958129291 9.1853700846666086 7.3085883622343211 #
plane-surface $-1 66.96737571337016 0 0 -1 0 0 0 0 1 forward_v I I I I #
coedge $-1 $611 $436 $439 $619 forward $429 $-1 #
coedge $-1 $436 $611 $431 $610 reversed $429 $-1 #
edge $-1 $616 -13.712975352364859 $623 13.712975352364859 $609 $713 forward 7 unknown #
coedge $-1 $609 $608 $432 $612 reversed $429 $-1 #
edge $-1 $623 -66.96737571337016 $613 66.96737571337016 $611 $714 forward 7 unknown #
vertex $-1 $434 $715 #
straight-curve $-1 66.96737571337016 0 -13.712975352364859 0 -1 0 I I #
edge $-1 $616 -30.225959139160985 $447 30.225959139160985 $445 $716 forward 7 unknown #
vertex $-1 $437 $717 #
straight-curve $-1 0 30.225959139160985 13.712975352364859 -1 0 0 I I #
straight-curve $-1 0 -30.225959139160985 13.712975352364859 1 0 0 I I #
edge $-1 $442 -13.712975352364859 $613 13.712975352364859 $439 $718 forward 7 unknown #
point $-1 66.96737571337016 -30.225959139160985 13.712975352364859 #
point $-1 66.96737571337016 30.225959139160985 13.712975352364859 #
point $-1 -66.96737571337016 -30.225959139160985 13.712975352364859 #
vertex $-1 $612 $719 #
straight-curve $-1 -66.96737571337016 0 -13.712975352364859 0 1 0 I I #
plane-surface $-1 0 0 13.712975352364859 0 0 1 1 0 0 forward_v I I I I #
coedge $-1 $460 $638 $627 $720 forward $453 $-1 #
coedge $-1 $456 $455 $626 $720 reversed $183 $-1 #
edge $-1 $634 -3.2503605966128148 $632 3.2503605966128148 $455 $721 forward 7 unknown #
coedge $-1 $468 $467 $456 $630 forward $469 $-1 #
edge $-1 $631 -3.2503605966128148 $722 3.2503605966128148 $456 $723 forward 7 unknown #
vertex $-1 $472 $724 #
vertex $-1 $462 $725 #
straight-curve $-1 -46.742059271253218 -42.466468870664166 0 0 0 -1 I I #
vertex $-1 $720 $726 #
straight-curve $-1 -40.241338078027589 -36.346214004912575 -13.712975352364859 0 -1 0 I I #
straight-curve $-1 -46.742059271253218 -36.346214004912575 -13.712975352364859 0 1 0 I I #
point $-1 -40.241338078027589 -30.225959139160985 -13.712975352364859 #
coedge $-1 $626 $465 $468 $640 reversed $453 $-1 #
straight-curve $-1 -40.241338078027589 -30.225959139160985 0 0 0 -1 I I #
edge $-1 $722 -6.1202548657515905 $470 6.1202548657515905 $638 $727 forward 7 unknown #
point $-1 -40.241338078027589 -30.225959139160985 13.712975352364859 #
straight-curve $-1 -46.742059271253218 -36.346214004912575 13.712975352364859 0 -1 0 I I #
edge $-1 $644 39.178706120152128 $647 51.195168849957064 $476 $728 forward 7 unknown #
vertex $-1 $490 $729 #
straight-curve $-1 -75.627623451529573 -8.245346048139897 13.712975352364857 -1 0 0 I I #
edge $-1 $647 2.5183921200645472 $487 8.9355157360861526 $486 $730 forward 7 unknown #
vertex $-1 $646 $731 #
straight-curve $-1 -66.96737571337016 -8.245346048139897 1.6965126225599221 0.77714595512881146 0 0.62932039886446345 I I #
point $-1 -52.128280361822114 -8.245346048139897 13.712975352364859 #
point $-1 -66.96737571337016 -14.662469664161502 1.6965126225599221 #
straight-curve $-1 -66.96737571337016 0 13.712975352364859 0 -1 0 I I #
vertex $-1 $493 $732 #
point $-1 -57.205476380820606 -11.4539078561507 6.401196355711372 #
coedge $-1 $508 $507 $500 $655 forward $497 $-1 #
edge $-1 $656 39.178706120152128 $659 51.195168849957064 $654 $733 forward 7 unknown #
vertex $-1 $512 $734 #
straight-curve $-1 -75.627623451529573 3.4707624331282956 13.712975352364857 -1 0 0 I I #
edge $-1 $659 -3.3396621205695487 $509 3.0774614954520549 $508 $735 forward 7 unknown #
vertex $-1 $658 $736 #
straight-curve $-1 -66.96737571337016 3.4707624331282956 1.6965126225599221 0.77714595512881146 0 0.62932039886446345 I I #
point $-1 -52.128280361822114 3.4707624331282956 13.712975352364859 #
point $-1 -66.96737571337016 -2.9463611828933081 1.6965126225599221 #
straight-curve $-1 -66.96737571337016 0 13.712975352364859 0 -1 0 I I #
vertex $-1 $515 $737 #
point $-1 -57.205476380820606 0.26220062511749376 6.401196355711372 #
coedge $-1 $530 $529 $522 $667 forward $519 $-1 #
edge $-1 $668 39.178706120152128 $671 51.195168849957064 $666 $738 forward 7 unknown #
vertex $-1 $534 $739 #
straight-curve $-1 -75.627623451529573 15.18687091439649 13.712975352364857 -1 0 0 I I #
edge $-1 $671 -9.1977163612036463 $531 -2.7805927451820409 $530 $740 forward 7 unknown #
vertex $-1 $670 $741 #
straight-curve $-1 -66.96737571337016 15.18687091439649 1.6965126225599221 0.77714595512881146 0 0.62932039886446345 I I #
point $-1 -52.128280361822114 15.18687091439649 13.712975352364859 #
point $-1 -66.96737571337016 8.7697472983748845 1.6965126225599221 #
straight-curve $-1 -66.96737571337016 0 13.712975352364859 0 -1 0 I I #
vertex $-1 $537 $742 #
point $-1 -57.205476380820606 11.978309106385687 6.401196355711372 #
coedge $-1 $552 $551 $544 $679 forward $541 $-1 #
edge $-1 $680 39.178706120152128 $683 51.195168849957064 $678 $743 forward 7 unknown #
vertex $-1 $556 $744 #
straight-curve $-1 -75.627623451529573 26.902979395664683 13.712975352364857 -1 0 0 I I #
edge $-1 $683 -15.055770601837743 $553 -8.6386469858161377 $552 $745 forward 7 unknown #
vertex $-1 $682 $746 #
straight-curve $-1 -66.96737571337016 26.902979395664683 1.6965126225599221 0.77714595512881146 0 0.62932039886446345 I I #
point $-1 -52.128280361822114 26.902979395664683 13.712975352364859 #
point $-1 -66.96737571337016 20.485855779643078 1.6965126225599221 #
straight-curve $-1 -66.96737571337016 0 13.712975352364859 0 -1 0 I I #
vertex $-1 $559 $747 #
point $-1 -57.205476380820606 23.694417587653881 6.401196355711372 #
coedge $-1 $574 $573 $566 $691 forward $563 $-1 #
edge $-1 $692 82.150211884485429 $695 93.520306247591364 $690 $748 forward 7 unknown #
vertex $-1 $578 $749 #
straight-curve $-1 35.136539567659739 -17.985449407657804 13.712975352364865 1 0 0 I I #
edge $-1 $695 -10.525282313286411 $575 -4.3950518754563745 $574 $750 forward 7 unknown #
vertex $-1 $694 $751 #
straight-curve $-1 -26.07151931787601 -17.985449407657804 98.687479442454432 -0.69465836192734942 0 0.71933980857756763 I I #
point $-1 55.987403479033759 -17.985449407657804 13.712975352364865 #
point $-1 66.96737571337016 -11.855218969827767 2.34288098925893 #
straight-curve $-1 66.96737571337016 0 13.712975352364859 0 1 0 I I #
vertex $-1 $581 $752 #
point $-1 59.884065714110534 -14.920334188742785 5.0991096446699959 #
edge $-1 $703 82.150211884485429 $706 93.520306247591364 $586 $753 forward 7 unknown #
vertex $-1 $600 $754 #
straight-curve $-1 35.136539567659739 6.1202548657515905 13.712975352364865 1 0 0 I I #
edge $-1 $706 1.5275698234182862 $597 7.6578002612483225 $596 $755 forward 7 unknown #
vertex $-1 $705 $756 #
straight-curve $-1 -26.07151931787601 6.1202548657515905 98.687479442454432 -0.69465836192734942 0 0.71933980857756763 I I #
point $-1 55.987403479033759 6.1202548657515905 13.712975352364865 #
point $-1 66.96737571337016 12.250485303581627 2.34288098925893 #
straight-curve $-1 66.96737571337016 0 13.712975352364859 0 1 0 I I #
vertex $-1 $603 $757 #
point $-1 59.884065714110534 9.1853700846666086 5.0991096446699959 #
straight-curve $-1 -66.96737571337016 30.225959139160985 0 0 0 -1 I I #
straight-curve $-1 0 30.225959139160985 -13.712975352364859 1 0 0 I I #
point $-1 66.96737571337016 30.225959139160985 -13.712975352364859 #
straight-curve $-1 -66.96737571337016 0 13.712975352364859 0 -1 0 I I #
point $-1 -66.96737571337016 30.225959139160985 13.712975352364859 #
straight-curve $-1 66.96737571337016 30.225959139160985 0 0 0 -1 I I #
point $-1 -66.96737571337016 30.225959139160985 -13.712975352364859 #
edge $-1 $722 -13.712975352364859 $634 13.712975352364859 $626 $758 forward 7 unknown #
straight-curve $-1 -43.491698674640404 -42.466468870664166 -13.712975352364859 -1 0 0 I I #
vertex $-1 $640 $759 #
straight-curve $-1 -43.491698674640404 -42.466468870664166 13.712975352364859 1 0 0 I I #
point $-1 -46.742059271253218 -42.466468870664166 13.712975352364859 #
point $-1 -46.742059271253218 -42.466468870664166 -13.712975352364859 #
point $-1 -40.241338078027589 -42.466468870664166 -13.712975352364859 #
straight-curve $-1 -40.241338078027589 -36.346214004912575 13.712975352364859 0 1 0 I I #
straight-curve $-1 -66.96737571337016 -8.245346048139897 52.891681472516986 0 0 -1 I I #
point $-1 -66.96737571337016 -8.245346048139897 13.712975352364859 #
straight-curve $-1 -66.96737571337016 -5.7269539280753499 1.6965126225599216 0 -1 0 I I #
point $-1 -66.96737571337016 -8.245346048139897 1.6965126225599221 #
point $-1 -57.35330193708495 -11.4539078561507 4.9947300017180973 #
straight-curve $-1 -66.96737571337016 3.4707624331282956 52.891681472516986 0 0 -1 I I #
point $-1 -66.96737571337016 3.4707624331282956 13.712975352364859 #
straight-curve $-1 -66.96737571337016 0.13110031255874688 1.6965126225599216 0 -1 0 I I #
point $-1 -66.96737571337016 3.4707624331282956 1.6965126225599221 #
point $-1 -57.35330193708495 0.26220062511749376 4.9947300017180973 #
straight-curve $-1 -66.96737571337016 15.18687091439649 52.891681472516986 0 0 -1 I I #
point $-1 -66.96737571337016 15.18687091439649 13.712975352364859 #
straight-curve $-1 -66.96737571337016 5.9891545531928436 1.6965126225599216 0 -1 0 I I #
point $-1 -66.96737571337016 15.18687091439649 1.6965126225599221 #
point $-1 -57.35330193708495 11.978309106385687 4.9947300017180973 #
straight-curve $-1 -66.96737571337016 26.902979395664683 52.891681472516986 0 0 -1 I I #
point $-1 -66.96737571337016 26.902979395664683 13.712975352364859 #
straight-curve $-1 -66.96737571337016 11.84720879382694 1.6965126225599216 0 -1 0 I I #
point $-1 -66.96737571337016 26.902979395664683 1.6965126225599221 #
point $-1 -57.35330193708495 23.694417587653881 4.9947300017180973 #
straight-curve $-1 66.96737571337016 -17.985449407657804 95.863187236850294 0 0 -1 I I #
point $-1 66.96737571337016 -17.985449407657804 13.712975352364859 #
straight-curve $-1 66.96737571337016 -7.4601670943713927 2.3428809892589371 0 1 0 I I #
point $-1 66.96737571337016 -17.985449407657804 2.34288098925893 #
point $-1 58.470067543605616 -14.920334188742785 5.1237910913202143 #
straight-curve $-1 66.96737571337016 6.1202548657515905 95.863187236850294 0 0 -1 I I #
point $-1 66.96737571337016 6.1202548657515905 13.712975352364859 #
straight-curve $-1 66.96737571337016 4.5926850423333043 2.3428809892589371 0 1 0 I I #
point $-1 66.96737571337016 6.1202548657515905 2.34288098925893 #
point $-1 58.470067543605616 9.1853700846666086 5.1237910913202143 #
straight-curve $-1 -40.241338078027589 -42.466468870664166 0 0 0 -1 I I #
point $-1 -40.241338078027589 -42.466468870664166 13.712975352364859 #
End-of-ACIS-data 