500 0 9 0           
7 Unknown 11 ACIS 5.0 NT 24 Fri Mar 26 00:41:33 1999 
-1 9.9999999999999995e-007 1e-010 
body $-1 $9 $-1 $10 #
body $-1 $11 $-1 $12 #
body $-1 $13 $-1 $14 #
body $-1 $15 $-1 $16 #
body $-1 $17 $-1 $18 #
body $-1 $19 $-1 $20 #
body $-1 $21 $-1 $22 #
body $-1 $23 $-1 $24 #
body $-1 $25 $-1 $26 #
lump $-1 $-1 $27 $0 #
transform $-1 1 0 0 0 1 0 0 0 1 49.842829676198619 28.866766787656985 6.3143574617917855 1 rotate no_reflect no_shear #
lump $-1 $-1 $28 $1 #
transform $-1 1 0 0 0 1 0 0 0 1 49.842829676198619 28.866766787656985 6.3143574617917855 1 rotate no_reflect no_shear #
lump $-1 $-1 $29 $2 #
transform $-1 1 0 0 0 1 0 0 0 1 49.842829676198619 28.866766787656985 6.3143574617917855 1 rotate no_reflect no_shear #
lump $-1 $-1 $30 $3 #
transform $-1 1 0 0 0 1 0 0 0 1 49.842829676198619 28.866766787656985 6.3143574617917855 1 rotate no_reflect no_shear #
lump $-1 $-1 $31 $4 #
transform $-1 1 0 0 0 1 0 0 0 1 49.842829676198619 28.866766787656985 6.3143574617917855 1 rotate no_reflect no_shear #
lump $-1 $-1 $32 $5 #
transform $-1 1 0 0 0 1 0 0 0 1 49.842829676198619 28.866766787656985 6.3143574617917855 1 rotate no_reflect no_shear #
lump $-1 $-1 $33 $6 #
transform $-1 1 0 0 0 1 0 0 0 1 49.842829676198619 28.866766787656985 6.3143574617917855 1 rotate no_reflect no_shear #
lump $-1 $-1 $34 $7 #
transform $-1 1 0 0 0 1 0 0 0 1 49.842829676198619 28.866766787656985 6.3143574617917855 1 rotate no_reflect no_shear #
lump $-1 $-1 $35 $8 #
transform $-1 1 0 0 0 1 0 0 0 1 49.842829676198619 28.866766787656985 6.3143574617917855 1 rotate no_reflect no_shear #
shell $-1 $-1 $-1 $36 $-1 $9 #
shell $-1 $-1 $-1 $37 $-1 $11 #
shell $-1 $-1 $-1 $38 $-1 $13 #
shell $-1 $-1 $-1 $39 $-1 $15 #
shell $-1 $-1 $-1 $40 $-1 $17 #
shell $-1 $-1 $-1 $41 $-1 $19 #
shell $-1 $-1 $-1 $42 $-1 $21 #
shell $-1 $-1 $-1 $43 $-1 $23 #
shell $-1 $-1 $-1 $44 $-1 $25 #
face $-1 $45 $46 $27 $-1 $47 forward single #
face $-1 $48 $49 $28 $-1 $50 reversed single #
face $-1 $51 $52 $29 $-1 $53 forward single #
face $-1 $54 $55 $30 $-1 $56 reversed single #
face $-1 $57 $58 $31 $-1 $59 forward single #
face $-1 $60 $61 $32 $-1 $62 reversed single #
face $-1 $63 $64 $33 $-1 $65 forward single #
face $-1 $66 $67 $34 $-1 $68 reversed single #
face $-1 $69 $70 $35 $-1 $71 forward single #
face $-1 $72 $73 $27 $-1 $74 reversed single #
loop $-1 $-1 $75 $36 #
plane-surface $-1 0 0 6.3143574617917855 0 0 1 1 0 0 forward_v I I I I #
face $-1 $76 $77 $28 $-1 $78 reversed single #
loop $-1 $-1 $79 $37 #
plane-surface $-1 -10.135366617784781 -101.77224357724315 68.87374802662616 -1 0 0 0 -0.73135370988377701 0.68199835119979291 forward_v I I I I #
face $-1 $80 $81 $29 $-1 $82 forward single #
loop $-1 $83 $84 $38 #
cone-surface $-1 -18.393879477613801 -24.16209664829686 1.5733597900457608 0 0.73135370988377701 -0.68199835119979291 1.5 0 0 1 I I 0 1 1.5 forward I I I I #
face $-1 $85 $86 $30 $-1 $87 reversed single #
loop $-1 $-1 $88 $39 #
plane-surface $-1 39.707463058413829 -101.77224357724315 68.87374802662616 -1 0 0 0 -0.73135370988377701 0.68199835119979291 forward_v I I I I #
face $-1 $89 $90 $31 $-1 $91 forward single #
loop $-1 $92 $93 $40 #
cone-surface $-1 31.448950198584811 -24.16209664829686 1.5733597900457608 0 0.73135370988377701 -0.68199835119979291 1.5 0 0 1 I I 0 1 1.5 forward I I I I #
face $-1 $94 $95 $32 $-1 $96 reversed single #
loop $-1 $-1 $97 $41 #
plane-surface $-1 -26.652392337442819 62.398068869941142 111.09738199163164 1 0 0 0 -0.73135370988377701 -0.68199835119979291 forward_v I I I I #
face $-1 $98 $99 $33 $-1 $100 forward single #
loop $-1 $101 $102 $42 #
cone-surface $-1 -18.393879477613801 24.162096648296867 1.573359790045759 0 -0.73135370988377701 -0.68199835119979291 1.5 0 0 1 I I 0 1 1.5 forward I I I I #
face $-1 $103 $104 $34 $-1 $105 reversed single #
loop $-1 $-1 $106 $43 #
plane-surface $-1 23.190437338755792 62.398068869941142 111.09738199163164 1 0 0 0 -0.73135370988377701 -0.68199835119979291 forward_v I I I I #
face $-1 $107 $108 $35 $-1 $109 forward single #
loop $-1 $110 $111 $44 #
cone-surface $-1 31.448950198584811 24.162096648296867 1.573359790045759 0 -0.73135370988377701 -0.68199835119979291 1.5 0 0 1 I I 0 1 1.5 forward I I I I #
face $-1 $112 $113 $27 $-1 $114 reversed single #
loop $-1 $-1 $115 $45 #
plane-surface $-1 0 0 -6.3143574617917855 0 0 1 1 0 0 forward_v I I I I #
coedge $-1 $116 $117 $118 $119 forward $46 $-1 #
face $-1 $120 $121 $28 $-1 $122 reversed single #
loop $-1 $-1 $123 $48 #
plane-surface $-1 -18.393879477613801 -28.866766787656999 0.88829271002703081 0 -0.73135370988377701 0.68199835119979291 1 0 0 forward_v I I I I #
coedge $-1 $124 $125 $126 $127 reversed $49 $-1 #
face $-1 $-1 $128 $29 $-1 $129 forward single #
loop $-1 $130 $131 $51 #
cone-surface $-1 -18.393879477613801 -21.438854784747569 -0.96610426921772774 0 0.73135370988377701 -0.68199835119979291 0.75 0 0 1 I I -0.70710678118654757 0.70710678118654757 0.75 forward I I I I #
loop $-1 $-1 $132 $38 #
coedge $-1 $84 $84 $133 $134 reversed $52 $-1 #
face $-1 $135 $136 $30 $-1 $137 reversed single #
loop $-1 $-1 $138 $54 #
plane-surface $-1 31.448950198584811 -28.866766787656999 0.88829271002703081 0 -0.73135370988377701 0.68199835119979291 1 0 0 forward_v I I I I #
coedge $-1 $139 $140 $141 $142 reversed $55 $-1 #
face $-1 $-1 $143 $31 $-1 $144 forward single #
loop $-1 $145 $146 $57 #
cone-surface $-1 31.448950198584811 -21.438854784747569 -0.96610426921772774 0 0.73135370988377701 -0.68199835119979291 0.75 0 0 1 I I -0.70710678118654757 0.70710678118654757 0.75 forward I I I I #
loop $-1 $-1 $147 $40 #
coedge $-1 $93 $93 $148 $149 reversed $58 $-1 #
face $-1 $150 $151 $32 $-1 $152 reversed single #
loop $-1 $-1 $153 $60 #
plane-surface $-1 -18.393879477613801 -10.507407919645004 43.111926675032507 0 0.73135370988377701 0.68199835119979291 1 0 0 forward_v I I I I #
coedge $-1 $154 $155 $156 $157 reversed $61 $-1 #
face $-1 $-1 $158 $33 $-1 $159 forward single #
loop $-1 $160 $161 $63 #
cone-surface $-1 -18.393879477613801 21.438854784747576 -0.96610426921772952 0 -0.73135370988377701 -0.68199835119979291 0.75 0 0 1 I I -0.70710678118654757 0.70710678118654757 0.75 forward I I I I #
loop $-1 $-1 $162 $42 #
coedge $-1 $102 $102 $163 $164 reversed $64 $-1 #
face $-1 $165 $166 $34 $-1 $167 reversed single #
loop $-1 $-1 $168 $66 #
plane-surface $-1 31.448950198584811 -10.507407919645004 43.111926675032507 0 0.73135370988377701 0.68199835119979291 1 0 0 forward_v I I I I #
coedge $-1 $169 $170 $171 $172 reversed $67 $-1 #
face $-1 $-1 $173 $35 $-1 $174 forward single #
loop $-1 $175 $176 $69 #
cone-surface $-1 31.448950198584811 21.438854784747576 -0.96610426921772952 0 -0.73135370988377701 -0.68199835119979291 0.75 0 0 1 I I -0.70710678118654757 0.70710678118654757 0.75 forward I I I I #
loop $-1 $-1 $177 $44 #
coedge $-1 $111 $111 $178 $179 reversed $70 $-1 #
face $-1 $180 $181 $27 $-1 $182 reversed single #
loop $-1 $-1 $183 $72 #
plane-surface $-1 0 -28.866766787656985 0 0 1 0 0 0 1 forward_v I I I I #
coedge $-1 $184 $185 $186 $187 forward $73 $-1 #
coedge $-1 $188 $75 $189 $190 forward $46 $-1 #
coedge $-1 $75 $188 $191 $192 forward $46 $-1 #
coedge $-1 $193 $194 $75 $119 reversed $195 $-1 #
edge $-1 $196 -28.866766787656985 $197 28.866766787656985 $118 $198 forward 7 unknown #
face $-1 $199 $200 $28 $-1 $201 reversed single #
loop $-1 $-1 $202 $76 #
plane-surface $-1 -26.652392337442819 -101.77224357724315 68.87374802662616 1 0 0 0 0.73135370988377701 -0.68199835119979291 forward_v I I I I #
coedge $-1 $203 $204 $205 $206 reversed $77 $-1 #
coedge $-1 $125 $79 $207 $208 reversed $49 $-1 #
coedge $-1 $79 $124 $203 $209 reversed $49 $-1 #
coedge $-1 $205 $210 $79 $127 forward $211 $-1 #
edge $-1 $212 22.019355000964588 $213 27.079242117411894 $126 $214 forward 7 unknown #
loop $-1 $-1 $133 $80 #
plane-surface $-1 -18.393879477613801 -28.866766787656999 0.88829271002703081 0 -0.73135370988377701 0.68199835119979291 1 0 0 forward_v I I I I #
loop $-1 $-1 $215 $51 #
coedge $-1 $131 $131 $132 $216 reversed $81 $-1 #
coedge $-1 $132 $132 $131 $216 forward $83 $-1 #
coedge $-1 $133 $133 $84 $134 forward $128 $-1 #
edge $-1 $217 -3.5069091583739076e-016 $217 6.2831853071796004 $133 $218 forward 7 unknown #
face $-1 $219 $220 $30 $-1 $221 reversed single #
loop $-1 $-1 $222 $85 #
plane-surface $-1 23.190437338755792 -101.77224357724315 68.87374802662616 1 0 0 0 0.73135370988377701 -0.68199835119979291 forward_v I I I I #
coedge $-1 $223 $224 $225 $226 reversed $86 $-1 #
coedge $-1 $140 $88 $227 $228 reversed $55 $-1 #
coedge $-1 $88 $139 $223 $229 reversed $55 $-1 #
coedge $-1 $225 $230 $88 $142 forward $231 $-1 #
edge $-1 $232 22.019355000964588 $233 27.079242117411894 $141 $234 forward 7 unknown #
loop $-1 $-1 $148 $89 #
plane-surface $-1 31.448950198584811 -28.866766787656999 0.88829271002703081 0 -0.73135370988377701 0.68199835119979291 1 0 0 forward_v I I I I #
loop $-1 $-1 $235 $57 #
coedge $-1 $146 $146 $147 $236 reversed $90 $-1 #
coedge $-1 $147 $147 $146 $236 forward $92 $-1 #
coedge $-1 $148 $148 $93 $149 forward $143 $-1 #
edge $-1 $237 -3.5069091583739076e-016 $237 6.2831853071796004 $148 $238 forward 7 unknown #
face $-1 $239 $240 $32 $-1 $241 reversed single #
loop $-1 $-1 $242 $94 #
plane-surface $-1 -10.135366617784781 62.398068869941142 111.09738199163164 -1 0 0 0 0.73135370988377701 0.68199835119979291 forward_v I I I I #
coedge $-1 $243 $244 $245 $246 reversed $95 $-1 #
coedge $-1 $155 $97 $247 $248 reversed $61 $-1 #
coedge $-1 $97 $154 $243 $249 reversed $61 $-1 #
coedge $-1 $245 $250 $97 $157 forward $251 $-1 #
edge $-1 $252 2.3322676473135857 $253 7.3921547637608853 $156 $254 forward 7 unknown #
loop $-1 $-1 $163 $98 #
plane-surface $-1 -18.393879477613801 -10.507407919645004 43.111926675032507 0 0.73135370988377701 0.68199835119979291 1 0 0 forward_v I I I I #
loop $-1 $-1 $255 $63 #
coedge $-1 $161 $161 $162 $256 reversed $99 $-1 #
coedge $-1 $162 $162 $161 $256 forward $101 $-1 #
coedge $-1 $163 $163 $102 $164 forward $158 $-1 #
edge $-1 $257 6.8411208187865312e-016 $257 6.2831853071796013 $163 $258 forward 7 unknown #
face $-1 $259 $260 $34 $-1 $261 forward single #
loop $-1 $-1 $262 $103 #
plane-surface $-1 39.707463058413829 62.398068869941142 111.09738199163164 -1 0 0 0 0.73135370988377701 0.68199835119979291 forward_v I I I I #
coedge $-1 $263 $264 $265 $266 reversed $104 $-1 #
coedge $-1 $170 $106 $267 $268 reversed $67 $-1 #
coedge $-1 $106 $169 $263 $269 reversed $67 $-1 #
coedge $-1 $265 $270 $106 $172 forward $260 $-1 #
edge $-1 $271 2.3322676473135857 $272 7.3921547637608853 $171 $273 forward 7 unknown #
loop $-1 $-1 $178 $107 #
plane-surface $-1 31.448950198584811 -10.507407919645004 43.111926675032507 0 0.73135370988377701 0.68199835119979291 1 0 0 forward_v I I I I #
loop $-1 $-1 $274 $69 #
coedge $-1 $176 $176 $177 $275 reversed $108 $-1 #
coedge $-1 $177 $177 $176 $275 forward $110 $-1 #
coedge $-1 $178 $178 $111 $179 forward $173 $-1 #
edge $-1 $276 6.8411208187865312e-016 $276 6.2831853071796013 $178 $277 forward 7 unknown #
face $-1 $278 $279 $27 $-1 $280 reversed single #
loop $-1 $-1 $281 $112 #
plane-surface $-1 -49.842829676198619 0 0 1 0 0 0 0 -1 forward_v I I I I #
coedge $-1 $282 $191 $283 $284 forward $113 $-1 #
coedge $-1 $285 $115 $282 $286 forward $73 $-1 #
coedge $-1 $115 $285 $287 $288 forward $73 $-1 #
coedge $-1 $194 $193 $115 $187 reversed $195 $-1 #
edge $-1 $289 -28.866766787656985 $290 28.866766787656985 $186 $291 forward 7 unknown #
coedge $-1 $117 $116 $292 $293 forward $46 $-1 #
coedge $-1 $294 $295 $116 $190 reversed $279 $-1 #
edge $-1 $197 -49.842829676198619 $296 49.842829676198619 $189 $297 forward 7 unknown #
coedge $-1 $183 $298 $117 $192 reversed $113 $-1 #
edge $-1 $299 -49.842829676198619 $196 49.842829676198619 $191 $300 forward 7 unknown #
coedge $-1 $186 $118 $298 $301 forward $195 $-1 #
coedge $-1 $118 $186 $294 $302 reversed $195 $-1 #
loop $-1 $-1 $193 $278 #
vertex $-1 $119 $303 #
vertex $-1 $119 $304 #
straight-curve $-1 49.842829676198619 0 6.3143574617917855 0 1 0 I I #
face $-1 $-1 $211 $28 $-1 $305 forward single #
loop $-1 $-1 $306 $120 #
plane-surface $-1 0 -28.866766787656985 0 0 1 0 0 0 1 forward_v I I I I #
coedge $-1 $307 $308 $309 $310 reversed $121 $-1 #
coedge $-1 $311 $123 $125 $209 forward $77 $-1 #
coedge $-1 $123 $311 $307 $312 forward $77 $-1 #
coedge $-1 $309 $126 $123 $206 forward $211 $-1 #
edge $-1 $213 0.93842687897788046 $313 17.455452598635919 $205 $314 forward 7 unknown #
coedge $-1 $315 $316 $124 $208 forward $200 $-1 #
edge $-1 $317 -33.548581303286035 $212 -28.122516551521294 $207 $318 forward 7 unknown #
edge $-1 $213 -7.4192072569468959 $317 -2.0815709956562115e-014 $125 $319 forward 7 unknown #
coedge $-1 $126 $309 $315 $320 forward $211 $-1 #
loop $-1 $-1 $309 $199 #
vertex $-1 $208 $321 #
vertex $-1 $127 $322 #
straight-curve $-1 -10.135366617784781 -50.886121788621573 6.3143574617917864 0 1 0 I I #
coedge $-1 $215 $215 $-1 $323 reversed $130 $-1 #
edge $-1 $324 0 $324 6.2831853071796004 $131 $325 forward 7 unknown #
vertex $-1 $134 $326 #
ellipse-curve $-1 -18.393879477613801 -26.336823229433332 3.6013250859094157 0 -0.73135370988377701 0.68199835119979291 1.5 0 0 1 I I #
face $-1 $-1 $231 $30 $-1 $327 forward single #
loop $-1 $-1 $328 $135 #
plane-surface $-1 0 -28.866766787656985 0 0 1 0 0 0 1 forward_v I I I I #
coedge $-1 $329 $330 $331 $332 reversed $136 $-1 #
coedge $-1 $333 $138 $140 $229 forward $86 $-1 #
coedge $-1 $138 $333 $329 $334 forward $86 $-1 #
coedge $-1 $331 $141 $138 $226 forward $231 $-1 #
edge $-1 $233 -23.982987959121424 $335 -7.4659622394633871 $225 $336 forward 7 unknown #
coedge $-1 $337 $338 $139 $228 forward $220 $-1 #
edge $-1 $339 -33.548581303286035 $232 -28.122516551521294 $227 $340 forward 7 unknown #
edge $-1 $233 -7.4192072569468959 $339 -2.0815709956562115e-014 $140 $341 forward 7 unknown #
coedge $-1 $141 $331 $337 $342 forward $231 $-1 #
loop $-1 $-1 $331 $219 #
vertex $-1 $228 $343 #
vertex $-1 $142 $344 #
straight-curve $-1 39.707463058413829 -50.886121788621573 6.3143574617917864 0 1 0 I I #
coedge $-1 $235 $235 $-1 $345 reversed $145 $-1 #
edge $-1 $346 0 $346 6.2831853071796004 $146 $347 forward 7 unknown #
vertex $-1 $149 $348 #
ellipse-curve $-1 31.448950198584811 -26.336823229433332 3.6013250859094157 0 -0.73135370988377701 0.68199835119979291 1.5 0 0 1 I I #
face $-1 $-1 $251 $32 $-1 $349 forward single #
loop $-1 $-1 $350 $150 #
plane-surface $-1 0 28.866766787656985 0 0 -1 0 0 0 -1 forward_v I I I I #
coedge $-1 $351 $352 $353 $354 reversed $151 $-1 #
coedge $-1 $355 $153 $155 $249 forward $95 $-1 #
coedge $-1 $153 $355 $351 $356 forward $95 $-1 #
coedge $-1 $353 $156 $153 $246 forward $251 $-1 #
edge $-1 $253 -17.455452598635919 $357 -0.93842687897788046 $245 $358 forward 7 unknown #
coedge $-1 $359 $360 $154 $248 forward $240 $-1 #
edge $-1 $361 -54.660398285788759 $252 -49.234333534024032 $247 $362 forward 7 unknown #
edge $-1 $253 50.314326318367073 $361 57.733533575313935 $155 $363 forward 7 unknown #
coedge $-1 $156 $353 $359 $364 forward $251 $-1 #
loop $-1 $-1 $353 $239 #
vertex $-1 $248 $365 #
vertex $-1 $157 $366 #
straight-curve $-1 -26.652392337442819 31.199034434970571 6.3143574617917864 0 -1 0 I I #
coedge $-1 $255 $255 $-1 $367 reversed $160 $-1 #
edge $-1 $368 0 $368 6.2831853071796004 $161 $369 forward 7 unknown #
vertex $-1 $164 $370 #
ellipse-curve $-1 -18.393879477613801 26.336823229433342 3.6013250859094179 0 0.73135370988377701 0.68199835119979291 1.5 0 0 1 I I #
face $-1 $-1 $371 $34 $-1 $372 reversed single #
loop $-1 $-1 $171 $165 #
plane-surface $-1 0 0 6.3143574617917855 0 0 1 1 0 0 forward_v I I I I #
coedge $-1 $373 $374 $375 $376 reversed $166 $-1 #
coedge $-1 $377 $168 $170 $269 forward $104 $-1 #
coedge $-1 $168 $377 $373 $378 forward $104 $-1 #
coedge $-1 $375 $171 $168 $266 forward $260 $-1 #
edge $-1 $272 7.4659622394633871 $379 23.982987959121424 $265 $380 forward 7 unknown #
coedge $-1 $381 $382 $169 $268 forward $371 $-1 #
edge $-1 $383 -54.660398285788759 $271 -49.234333534024032 $267 $384 forward 7 unknown #
edge $-1 $272 50.314326318367073 $383 57.733533575313935 $170 $385 forward 7 unknown #
coedge $-1 $171 $375 $381 $386 forward $260 $-1 #
vertex $-1 $172 $387 #
vertex $-1 $172 $388 #
straight-curve $-1 23.190437338755792 31.199034434970571 6.3143574617917864 0 -1 0 I I #
coedge $-1 $274 $274 $-1 $389 reversed $175 $-1 #
edge $-1 $390 0 $390 6.2831853071796004 $176 $391 forward 7 unknown #
vertex $-1 $179 $392 #
ellipse-curve $-1 31.448950198584811 26.336823229433342 3.6013250859094179 0 0.73135370988377701 0.68199835119979291 1.5 0 0 1 I I #
face $-1 $-1 $195 $27 $-1 $393 reversed single #
loop $-1 $-1 $294 $180 #
plane-surface $-1 0 28.866766787656985 0 0 -1 0 0 0 -1 forward_v I I I I #
coedge $-1 $394 $292 $295 $395 forward $181 $-1 #
coedge $-1 $298 $183 $184 $286 reversed $113 $-1 #
coedge $-1 $292 $394 $183 $284 reversed $181 $-1 #
edge $-1 $299 -6.3143574617917855 $396 6.3143574617917855 $283 $397 forward 7 unknown #
coedge $-1 $185 $184 $394 $398 forward $73 $-1 #
edge $-1 $290 -49.842829676198619 $396 49.842829676198619 $282 $399 forward 7 unknown #
coedge $-1 $295 $294 $185 $288 reversed $279 $-1 #
edge $-1 $400 -49.842829676198619 $289 49.842829676198619 $287 $401 forward 7 unknown #
vertex $-1 $187 $402 #
vertex $-1 $301 $403 #
straight-curve $-1 49.842829676198619 0 -6.3143574617917855 0 -1 0 I I #
coedge $-1 $281 $283 $188 $293 reversed $181 $-1 #
edge $-1 $296 -28.866766787656985 $299 28.866766787656985 $292 $404 forward 7 unknown #
coedge $-1 $287 $189 $194 $302 forward $279 $-1 #
coedge $-1 $189 $287 $281 $395 reversed $279 $-1 #
vertex $-1 $190 $405 #
straight-curve $-1 0 28.866766787656985 6.3143574617917855 -1 0 0 I I #
coedge $-1 $191 $282 $193 $301 reversed $113 $-1 #
vertex $-1 $293 $406 #
straight-curve $-1 0 -28.866766787656985 6.3143574617917855 1 0 0 I I #
edge $-1 $196 -6.3143574617917855 $290 6.3143574617917855 $193 $407 forward 7 unknown #
edge $-1 $197 -6.3143574617917855 $289 6.3143574617917855 $194 $408 forward 7 unknown #
point $-1 49.842829676198619 -28.866766787656985 6.3143574617917855 #
point $-1 49.842829676198619 28.866766787656985 6.3143574617917855 #
plane-surface $-1 0 0 6.3143574617917855 0 0 1 1 0 0 forward_v I I I I #
coedge $-1 $316 $315 $308 $409 forward $200 $-1 #
coedge $-1 $308 $202 $204 $312 reversed $121 $-1 #
coedge $-1 $202 $307 $306 $409 reversed $121 $-1 #
coedge $-1 $210 $205 $202 $310 forward $211 $-1 #
edge $-1 $313 -27.079242117411894 $410 -22.019355000964588 $309 $411 forward 7 unknown #
coedge $-1 $204 $203 $316 $412 reversed $77 $-1 #
edge $-1 $413 2.0815709956562115e-014 $313 7.4192072569468959 $307 $414 forward 7 unknown #
vertex $-1 $206 $415 #
straight-curve $-1 -9.1969397388069005 -23.806879671209675 6.3143574617917855 -1 0 0 I I #
coedge $-1 $306 $207 $210 $320 reversed $200 $-1 #
coedge $-1 $207 $306 $311 $412 forward $200 $-1 #
vertex $-1 $208 $416 #
straight-curve $-1 -10.135366617784781 -28.866766787656985 34.43687401331308 0 0 1 I I #
straight-curve $-1 -10.135366617784781 -28.866766787656999 0.88829271002703081 0 -0.68199835119979291 -0.73135370988377701 I I #
edge $-1 $410 -26.652392337442819 $212 -10.135366617784781 $315 $417 forward 7 unknown #
point $-1 -10.135366617784781 -28.866766787656985 6.3143574617917855 #
point $-1 -10.135366617784781 -23.806879671209678 6.3143574617917855 #
edge $-1 $418 1 $418 0 $215 $-1 forward 7 unknown #
vertex $-1 $216 $419 #
ellipse-curve $-1 -18.393879477613801 -21.987370067160402 -0.45460550581788306 0 -0.73135370988377701 0.68199835119979291 1.5 0 0 1 I I #
point $-1 -16.893879477613801 -26.336823229433321 3.601325085909405 #
plane-surface $-1 0 0 6.3143574617917855 0 0 1 1 0 0 forward_v I I I I #
coedge $-1 $338 $337 $330 $420 forward $220 $-1 #
coedge $-1 $330 $222 $224 $334 reversed $136 $-1 #
coedge $-1 $222 $329 $328 $420 reversed $136 $-1 #
coedge $-1 $230 $225 $222 $332 forward $231 $-1 #
edge $-1 $335 -27.079242117411894 $421 -22.019355000964588 $331 $422 forward 7 unknown #
coedge $-1 $224 $223 $338 $423 reversed $86 $-1 #
edge $-1 $424 2.0815709956562115e-014 $335 7.4192072569468959 $329 $425 forward 7 unknown #
vertex $-1 $226 $426 #
straight-curve $-1 15.724475099292405 -23.806879671209675 6.3143574617917855 -1 0 0 I I #
coedge $-1 $328 $227 $230 $342 reversed $220 $-1 #
coedge $-1 $227 $328 $333 $423 forward $220 $-1 #
vertex $-1 $228 $427 #
straight-curve $-1 39.707463058413829 -28.866766787656985 34.43687401331308 0 0 1 I I #
straight-curve $-1 39.707463058413829 -28.866766787656999 0.88829271002703081 0 -0.68199835119979291 -0.73135370988377701 I I #
edge $-1 $421 23.190437338755792 $232 39.707463058413829 $337 $428 forward 7 unknown #
point $-1 39.707463058413829 -28.866766787656985 6.3143574617917855 #
point $-1 39.707463058413829 -23.806879671209678 6.3143574617917855 #
edge $-1 $429 1 $429 0 $235 $-1 forward 7 unknown #
vertex $-1 $236 $430 #
ellipse-curve $-1 31.448950198584811 -21.987370067160402 -0.45460550581788306 0 -0.73135370988377701 0.68199835119979291 1.5 0 0 1 I I #
point $-1 32.948950198584811 -26.336823229433321 3.601325085909405 #
plane-surface $-1 0 0 6.3143574617917855 0 0 1 1 0 0 forward_v I I I I #
coedge $-1 $360 $359 $352 $431 forward $240 $-1 #
coedge $-1 $352 $242 $244 $356 reversed $151 $-1 #
coedge $-1 $242 $351 $350 $431 reversed $151 $-1 #
coedge $-1 $250 $245 $242 $354 forward $251 $-1 #
edge $-1 $357 -7.3921547637608853 $432 -2.3322676473135857 $353 $433 forward 7 unknown #
coedge $-1 $244 $243 $360 $434 reversed $95 $-1 #
edge $-1 $435 -57.733533575313935 $357 -50.314326318367073 $351 $436 forward 7 unknown #
vertex $-1 $246 $437 #
straight-curve $-1 -9.1969397388069005 23.806879671209686 6.3143574617917864 1 0 0 I I #
coedge $-1 $350 $247 $250 $364 reversed $240 $-1 #
coedge $-1 $247 $350 $355 $434 forward $240 $-1 #
vertex $-1 $248 $438 #
straight-curve $-1 -26.652392337442819 28.866766787656985 55.548690995815818 0 0 1 I I #
straight-curve $-1 -26.652392337442819 -10.507407919645004 43.111926675032507 0 0.68199835119979291 -0.73135370988377701 I I #
edge $-1 $432 10.135366617784781 $252 26.652392337442819 $359 $439 forward 7 unknown #
point $-1 -26.652392337442819 28.866766787656985 6.3143574617917855 #
point $-1 -26.652392337442819 23.806879671209686 6.3143574617917864 #
edge $-1 $440 1 $440 0 $255 $-1 forward 7 unknown #
vertex $-1 $256 $441 #
ellipse-curve $-1 -18.393879477613801 21.987370067160409 -0.45460550581788484 0 0.73135370988377701 0.68199835119979291 1.5 0 0 1 I I #
point $-1 -16.893879477613801 26.336823229433328 3.6013250859094033 #
loop $-1 $-1 $267 $259 #
plane-surface $-1 0 28.866766787656985 0 0 -1 0 0 0 -1 forward_v I I I I #
coedge $-1 $374 $262 $264 $378 reversed $166 $-1 #
coedge $-1 $262 $373 $442 $443 reversed $166 $-1 #
coedge $-1 $270 $265 $262 $376 forward $260 $-1 #
edge $-1 $379 -7.3921547637608853 $444 -2.3322676473135857 $375 $445 forward 7 unknown #
coedge $-1 $264 $263 $382 $446 reversed $104 $-1 #
edge $-1 $447 -57.733533575313935 $379 -50.314326318367073 $373 $448 forward 7 unknown #
vertex $-1 $266 $449 #
straight-curve $-1 15.724475099292405 23.806879671209686 6.3143574617917864 1 0 0 I I #
coedge $-1 $442 $267 $270 $386 reversed $371 $-1 #
coedge $-1 $267 $442 $377 $446 forward $371 $-1 #
vertex $-1 $268 $450 #
straight-curve $-1 23.190437338755792 28.866766787656985 55.548690995815818 0 0 1 I I #
straight-curve $-1 23.190437338755792 -10.507407919645004 43.111926675032507 0 0.68199835119979291 -0.73135370988377701 I I #
edge $-1 $444 -39.707463058413829 $271 -23.190437338755792 $381 $451 forward 7 unknown #
point $-1 23.190437338755792 28.866766787656985 6.3143574617917855 #
point $-1 23.190437338755792 23.806879671209686 6.3143574617917864 #
edge $-1 $452 1 $452 0 $274 $-1 forward 7 unknown #
vertex $-1 $275 $453 #
ellipse-curve $-1 31.448950198584811 21.987370067160409 -0.45460550581788484 0 0.73135370988377701 0.68199835119979291 1.5 0 0 1 I I #
point $-1 32.948950198584811 26.336823229433328 3.6013250859094033 #
plane-surface $-1 49.842829676198619 0 0 -1 0 0 0 0 1 forward_v I I I I #
coedge $-1 $283 $281 $285 $398 reversed $181 $-1 #
edge $-1 $296 -6.3143574617917855 $400 6.3143574617917855 $295 $454 forward 7 unknown #
vertex $-1 $398 $455 #
straight-curve $-1 -49.842829676198619 -28.866766787656985 0 0 0 -1 I I #
edge $-1 $396 -28.866766787656985 $400 28.866766787656985 $394 $456 forward 7 unknown #
straight-curve $-1 0 -28.866766787656985 -6.3143574617917855 -1 0 0 I I #
vertex $-1 $288 $457 #
straight-curve $-1 0 28.866766787656985 -6.3143574617917855 1 0 0 I I #
point $-1 49.842829676198619 28.866766787656985 -6.3143574617917855 #
point $-1 49.842829676198619 -28.866766787656985 -6.3143574617917855 #
straight-curve $-1 -49.842829676198619 0 6.3143574617917855 0 -1 0 I I #
point $-1 -49.842829676198619 28.866766787656985 6.3143574617917855 #
point $-1 -49.842829676198619 -28.866766787656985 6.3143574617917855 #
straight-curve $-1 49.842829676198619 -28.866766787656985 0 0 0 -1 I I #
straight-curve $-1 49.842829676198619 28.866766787656985 0 0 0 -1 I I #
edge $-1 $410 28.122516551521294 $413 33.548581303286035 $306 $458 forward 7 unknown #
vertex $-1 $320 $459 #
straight-curve $-1 -26.652392337442819 -50.886121788621573 6.3143574617917864 0 -1 0 I I #
edge $-1 $413 -17.455452598635919 $317 -0.93842687897788046 $316 $460 forward 7 unknown #
vertex $-1 $412 $461 #
straight-curve $-1 -26.652392337442819 -28.866766787656999 0.88829271002703081 0 0.68199835119979291 0.73135370988377701 I I #
point $-1 -26.652392337442819 -23.806879671209678 6.3143574617917855 #
point $-1 -10.135366617784781 -28.866766787656985 0.88829271002704602 #
straight-curve $-1 0 -28.866766787656985 6.3143574617917855 1 0 0 I I #
vertex $-1 $323 $462 #
point $-1 -16.893879477613801 -21.987370067160402 -0.45460550581788306 #
edge $-1 $421 28.122516551521294 $424 33.548581303286035 $328 $463 forward 7 unknown #
vertex $-1 $342 $464 #
straight-curve $-1 23.190437338755792 -50.886121788621573 6.3143574617917864 0 -1 0 I I #
edge $-1 $424 7.4659622394633871 $339 23.982987959121424 $338 $465 forward 7 unknown #
vertex $-1 $423 $466 #
straight-curve $-1 23.190437338755792 -28.866766787656999 0.88829271002703081 0 0.68199835119979291 0.73135370988377701 I I #
point $-1 23.190437338755792 -23.806879671209678 6.3143574617917855 #
point $-1 39.707463058413829 -28.866766787656985 0.88829271002704602 #
straight-curve $-1 0 -28.866766787656985 6.3143574617917855 1 0 0 I I #
vertex $-1 $345 $467 #
point $-1 32.948950198584811 -21.987370067160402 -0.45460550581788306 #
edge $-1 $432 49.234333534024032 $435 54.660398285788759 $350 $468 forward 7 unknown #
vertex $-1 $364 $469 #
straight-curve $-1 -10.135366617784781 31.199034434970571 6.3143574617917864 0 1 0 I I #
edge $-1 $435 0.93842687897788046 $361 17.455452598635919 $360 $470 forward 7 unknown #
vertex $-1 $434 $471 #
straight-curve $-1 -10.135366617784781 -10.507407919645004 43.111926675032507 0 -0.68199835119979291 0.73135370988377701 I I #
point $-1 -10.135366617784781 23.806879671209686 6.3143574617917864 #
point $-1 -26.652392337442819 28.866766787656985 0.88829271002705923 #
straight-curve $-1 0 28.866766787656985 6.3143574617917855 -1 0 0 I I #
vertex $-1 $367 $472 #
point $-1 -16.893879477613801 21.987370067160409 -0.45460550581788484 #
coedge $-1 $382 $381 $374 $443 forward $371 $-1 #
edge $-1 $444 49.234333534024032 $447 54.660398285788759 $442 $473 forward 7 unknown #
vertex $-1 $386 $474 #
straight-curve $-1 39.707463058413829 31.199034434970571 6.3143574617917864 0 1 0 I I #
edge $-1 $447 -23.982987959121424 $383 -7.4659622394633871 $382 $475 forward 7 unknown #
vertex $-1 $446 $476 #
straight-curve $-1 39.707463058413829 -10.507407919645004 43.111926675032507 0 -0.68199835119979291 0.73135370988377701 I I #
point $-1 39.707463058413829 23.806879671209686 6.3143574617917864 #
point $-1 23.190437338755792 28.866766787656985 0.88829271002705923 #
straight-curve $-1 0 28.866766787656985 6.3143574617917855 -1 0 0 I I #
vertex $-1 $389 $477 #
point $-1 32.948950198584811 21.987370067160409 -0.45460550581788484 #
straight-curve $-1 -49.842829676198619 28.866766787656985 0 0 0 -1 I I #
point $-1 -49.842829676198619 -28.866766787656985 -6.3143574617917855 #
straight-curve $-1 -49.842829676198619 0 -6.3143574617917855 0 1 0 I I #
point $-1 -49.842829676198619 28.866766787656985 -6.3143574617917855 #
straight-curve $-1 -26.652392337442819 -28.866766787656985 34.43687401331308 0 0 -1 I I #
point $-1 -26.652392337442819 -28.866766787656985 6.3143574617917855 #
straight-curve $-1 -9.1969397388069005 -28.866766787656985 0.88829271002704568 1 0 0 I I #
point $-1 -26.652392337442819 -28.866766787656985 0.88829271002704602 #
point $-1 -18.393879477613801 -20.890339502334736 -1.4776030326175724 #
straight-curve $-1 23.190437338755792 -28.866766787656985 34.43687401331308 0 0 -1 I I #
point $-1 23.190437338755792 -28.866766787656985 6.3143574617917855 #
straight-curve $-1 15.724475099292405 -28.866766787656985 0.88829271002704568 1 0 0 I I #
point $-1 23.190437338755792 -28.866766787656985 0.88829271002704602 #
point $-1 31.448950198584811 -20.890339502334736 -1.4776030326175724 #
straight-curve $-1 -10.135366617784781 28.866766787656985 55.548690995815818 0 0 -1 I I #
point $-1 -10.135366617784781 28.866766787656985 6.3143574617917855 #
straight-curve $-1 -9.1969397388069005 28.866766787656982 0.88829271002705923 -1 0 0 I I #
point $-1 -10.135366617784781 28.866766787656985 0.88829271002705923 #
point $-1 -18.393879477613801 20.890339502334744 -1.4776030326175742 #
straight-curve $-1 39.707463058413829 28.866766787656985 55.548690995815818 0 0 -1 I I #
point $-1 39.707463058413829 28.866766787656985 6.3143574617917855 #
straight-curve $-1 15.724475099292405 28.866766787656982 0.88829271002705923 -1 0 0 I I #
point $-1 39.707463058413829 28.866766787656985 0.88829271002705923 #
point $-1 31.448950198584811 20.890339502334744 -1.4776030326175742 #
End-of-ACIS-data 