500 0 8 0           
7 Unknown 11 ACIS 5.0 NT 24 Thu Mar 25 15:24:05 1999 
-1 9.9999999999999995e-007 1e-010 
body $-1 $8 $-1 $9 #
body $-1 $10 $-1 $11 #
body $-1 $12 $-1 $13 #
body $-1 $14 $-1 $15 #
body $-1 $16 $-1 $17 #
body $-1 $18 $-1 $19 #
body $-1 $20 $-1 $21 #
body $-1 $22 $-1 $23 #
lump $-1 $-1 $24 $0 #
transform $-1 1 0 0 0 1 0 0 0 1 44.458143864253671 27.123985888823146 12.436041663977685 1 rotate no_reflect no_shear #
lump $-1 $-1 $25 $1 #
transform $-1 1 0 0 0 1 0 0 0 1 44.458143864253671 27.123985888823146 12.436041663977685 1 rotate no_reflect no_shear #
lump $-1 $-1 $26 $2 #
transform $-1 1 0 0 0 1 0 0 0 1 44.458143864253671 27.123985888823146 12.436041663977685 1 rotate no_reflect no_shear #
lump $-1 $-1 $27 $3 #
transform $-1 1 0 0 0 1 0 0 0 1 44.458143864253671 27.123985888823146 12.436041663977685 1 rotate no_reflect no_shear #
lump $-1 $-1 $28 $4 #
transform $-1 1 0 0 0 1 0 0 0 1 44.458143864253671 27.123985888823146 12.436041663977685 1 rotate no_reflect no_shear #
lump $-1 $-1 $29 $5 #
transform $-1 1 0 0 0 1 0 0 0 1 44.458143864253671 27.123985888823146 12.436041663977685 1 rotate no_reflect no_shear #
lump $-1 $-1 $30 $6 #
transform $-1 1 0 0 0 1 0 0 0 1 44.458143864253671 27.123985888823146 12.436041663977685 1 rotate no_reflect no_shear #
lump $-1 $-1 $31 $7 #
transform $-1 1 0 0 0 1 0 0 0 1 44.458143864253671 27.123985888823146 12.436041663977685 1 rotate no_reflect no_shear #
shell $-1 $-1 $-1 $32 $-1 $8 #
shell $-1 $-1 $-1 $33 $-1 $10 #
shell $-1 $-1 $-1 $34 $-1 $12 #
shell $-1 $-1 $-1 $35 $-1 $14 #
shell $-1 $-1 $-1 $36 $-1 $16 #
shell $-1 $-1 $-1 $37 $-1 $18 #
shell $-1 $-1 $-1 $38 $-1 $20 #
shell $-1 $-1 $-1 $39 $-1 $22 #
face $-1 $40 $41 $24 $-1 $42 forward single #
face $-1 $43 $44 $25 $-1 $45 forward single #
face $-1 $46 $47 $26 $-1 $48 reversed single #
face $-1 $49 $50 $27 $-1 $51 forward single #
face $-1 $52 $53 $28 $-1 $54 forward single #
face $-1 $55 $56 $29 $-1 $57 reversed single #
face $-1 $58 $59 $30 $-1 $60 forward single #
face $-1 $61 $62 $31 $-1 $63 forward single #
face $-1 $64 $65 $24 $-1 $66 reversed single #
loop $-1 $-1 $67 $32 #
plane-surface $-1 0 0 12.436041663977685 0 0 1 1 0 0 forward_v I I I I #
face $-1 $68 $69 $25 $-1 $70 reversed single #
loop $-1 $-1 $71 $33 #
plane-surface $-1 -44.458143864253671 0 0 1 0 0 0 0 -1 forward_v I I I I #
face $-1 $72 $73 $26 $-1 $74 reversed single #
loop $-1 $-1 $75 $34 #
plane-surface $-1 -29.456080780779146 40.922227706735043 104.42558927325241 1 0 0 0 -0.62932039886446345 -0.77714595512881146 forward_v I I I I #
face $-1 $76 $77 $27 $-1 $78 forward single #
loop $-1 $79 $80 $35 #
cone-surface $-1 -25.207984229782237 19.623314053900259 6.1266394804032922 0 -0.62932039886446345 -0.77714595512881146 1 0 0 1 I I 0 1 1 forward I I I I #
face $-1 $81 $82 $28 $-1 $83 forward single #
loop $-1 $84 $85 $36 #
cone-surface $-1 -18.835839403286876 19.623314053900259 6.1266394804032922 0 -0.62932039886446345 -0.77714595512881146 1 0 0 1 I I 0 1 1 forward I I I I #
face $-1 $86 $87 $29 $-1 $88 reversed single #
loop $-1 $-1 $89 $37 #
plane-surface $-1 37.916124802261677 -27.123985888823142 3.1256690029851413 0 -0.79863551827123203 0.60181501223851219 1 0 0 forward_v I I I I #
face $-1 $90 $91 $30 $-1 $92 forward single #
loop $-1 $93 $94 $38 #
cone-surface $-1 35.112402347122242 -22.578802665420856 6.9992323141072088 0 0.79863551827123203 -0.60181501223851219 1 0 0 1 I I 0 1 1 forward I I I I #
face $-1 $95 $96 $31 $-1 $97 forward single #
loop $-1 $98 $99 $39 #
cone-surface $-1 40.719847257401099 -22.578802665420856 6.9992323141072088 0 0.79863551827123203 -0.60181501223851219 1 0 0 1 I I 0 1 1 forward I I I I #
face $-1 $100 $101 $24 $-1 $102 reversed single #
loop $-1 $-1 $103 $40 #
plane-surface $-1 0 0 -12.436041663977685 0 0 1 1 0 0 forward_v I I I I #
coedge $-1 $104 $105 $106 $107 forward $41 $-1 #
face $-1 $108 $109 $25 $-1 $110 forward single #
loop $-1 $-1 $111 $43 #
plane-surface $-1 0 27.123985888823146 0 0 -1 0 0 0 -1 forward_v I I I I #
coedge $-1 $112 $113 $114 $115 forward $44 $-1 #
face $-1 $116 $117 $26 $-1 $118 reversed single #
loop $-1 $-1 $119 $46 #
plane-surface $-1 -22.021911816534558 -15.034605952116593 35.324655919973353 0 0.62932039886446345 0.77714595512881146 1 0 0 forward_v I I I I #
coedge $-1 $120 $121 $122 $123 reversed $47 $-1 #
face $-1 $-1 $124 $27 $-1 $125 forward single #
loop $-1 $126 $127 $49 #
cone-surface $-1 -25.207984229782237 18.754735899707139 5.0540348096149099 0 -0.62932039886446345 -0.77714595512881146 0.5 0 0 1 I I -0.70710678118654746 0.70710678118654746 0.5 forward I I I I #
loop $-1 $-1 $128 $35 #
coedge $-1 $80 $80 $129 $130 reversed $50 $-1 #
face $-1 $-1 $131 $28 $-1 $132 forward single #
loop $-1 $133 $134 $52 #
cone-surface $-1 -18.835839403286876 18.754735899707139 5.0540348096149099 0 -0.62932039886446345 -0.77714595512881146 0.5 0 0 1 I I -0.70710678118654746 0.70710678118654746 0.5 forward I I I I #
loop $-1 $-1 $135 $36 #
coedge $-1 $85 $85 $136 $137 reversed $53 $-1 #
face $-1 $138 $139 $29 $-1 $140 reversed single #
loop $-1 $-1 $141 $55 #
plane-surface $-1 31.374105740269677 -98.135691421633595 56.636825790519858 1 0 0 0 0.79863551827123203 -0.60181501223851219 forward_v I I I I #
coedge $-1 $142 $143 $144 $145 reversed $56 $-1 #
face $-1 $-1 $146 $30 $-1 $147 forward single #
loop $-1 $148 $149 $58 #
cone-surface $-1 35.112402347122242 -21.142236096474491 5.9167017886137554 0 0.79863551827123203 -0.60181501223851219 0.5 0 0 1 I I -0.70710678118654746 0.70710678118654746 0.5 forward I I I I #
loop $-1 $-1 $150 $38 #
coedge $-1 $94 $94 $151 $152 reversed $59 $-1 #
face $-1 $-1 $153 $31 $-1 $154 forward single #
loop $-1 $155 $156 $61 #
cone-surface $-1 40.719847257401099 -21.142236096474491 5.9167017886137554 0 0.79863551827123203 -0.60181501223851219 0.5 0 0 1 I I -0.70710678118654746 0.70710678118654746 0.5 forward I I I I #
loop $-1 $-1 $157 $39 #
coedge $-1 $99 $99 $158 $159 reversed $62 $-1 #
face $-1 $160 $161 $24 $-1 $162 reversed single #
loop $-1 $-1 $163 $64 #
plane-surface $-1 0 -27.123985888823146 0 0 1 0 0 0 1 forward_v I I I I #
coedge $-1 $164 $165 $166 $167 forward $65 $-1 #
coedge $-1 $168 $67 $169 $170 forward $41 $-1 #
coedge $-1 $67 $168 $171 $172 forward $41 $-1 #
coedge $-1 $173 $174 $67 $107 reversed $175 $-1 #
edge $-1 $176 -27.123985888823146 $177 27.123985888823146 $106 $178 forward 7 unknown #
face $-1 $179 $180 $25 $-1 $181 reversed single #
loop $-1 $-1 $114 $68 #
plane-surface $-1 -51.959175405990933 0 0.46476620904149213 0 0 1 1 0 0 forward_v I I I I #
coedge $-1 $182 $183 $113 $184 forward $69 $-1 #
coedge $-1 $185 $71 $186 $187 reversed $44 $-1 #
coedge $-1 $71 $185 $111 $184 reversed $44 $-1 #
coedge $-1 $188 $189 $71 $115 reversed $109 $-1 #
edge $-1 $190 -27.123985888823146 $191 27.123985888823146 $114 $192 forward 7 unknown #
face $-1 $193 $194 $26 $-1 $195 forward single #
loop $-1 $-1 $196 $72 #
plane-surface $-1 -14.587742852289971 40.922227706735043 104.42558927325241 -1 0 0 0 0.62932039886446345 0.77714595512881146 forward_v I I I I #
coedge $-1 $197 $198 $199 $200 reversed $73 $-1 #
coedge $-1 $121 $75 $201 $202 reversed $47 $-1 #
coedge $-1 $75 $120 $197 $203 reversed $47 $-1 #
coedge $-1 $199 $204 $75 $123 forward $194 $-1 #
edge $-1 $205 -6.6628720354556243 $206 7.2306357248683852 $122 $207 forward 7 unknown #
loop $-1 $-1 $129 $76 #
plane-surface $-1 -22.021911816534558 -15.034605952116593 35.324655919973353 0 0.62932039886446345 0.77714595512881146 1 0 0 forward_v I I I I #
loop $-1 $-1 $208 $49 #
coedge $-1 $127 $127 $128 $209 reversed $77 $-1 #
coedge $-1 $128 $128 $127 $209 forward $79 $-1 #
coedge $-1 $129 $129 $80 $130 forward $124 $-1 #
edge $-1 $210 4.9141495428479309e-016 $210 6.2831853071796013 $129 $211 forward 7 unknown #
loop $-1 $-1 $136 $81 #
plane-surface $-1 -22.021911816534558 -15.034605952116593 35.324655919973353 0 0.62932039886446345 0.77714595512881146 1 0 0 forward_v I I I I #
loop $-1 $-1 $212 $52 #
coedge $-1 $134 $134 $135 $213 reversed $82 $-1 #
coedge $-1 $135 $135 $134 $213 forward $84 $-1 #
coedge $-1 $136 $136 $85 $137 forward $131 $-1 #
edge $-1 $214 4.9141495428479309e-016 $214 6.2831853071796013 $136 $215 forward 7 unknown #
face $-1 $216 $217 $29 $-1 $218 forward single #
loop $-1 $-1 $219 $86 #
plane-surface $-1 0 -27.123985888823146 0 0 1 0 0 0 1 forward_v I I I I #
coedge $-1 $220 $221 $222 $223 reversed $87 $-1 #
coedge $-1 $224 $89 $225 $226 reversed $56 $-1 #
coedge $-1 $89 $224 $220 $227 forward $56 $-1 #
coedge $-1 $222 $228 $89 $145 forward $217 $-1 #
edge $-1 $229 -25.500081463122839 $230 -12.416043339138838 $144 $231 forward 7 unknown #
loop $-1 $-1 $151 $90 #
plane-surface $-1 37.916124802261677 -27.123985888823142 3.1256690029851413 0 -0.79863551827123203 0.60181501223851219 1 0 0 forward_v I I I I #
loop $-1 $-1 $232 $58 #
coedge $-1 $149 $149 $150 $233 reversed $91 $-1 #
coedge $-1 $150 $150 $149 $233 forward $93 $-1 #
coedge $-1 $151 $151 $94 $152 forward $146 $-1 #
edge $-1 $234 7.1941476101818644e-016 $234 6.2831853071796013 $151 $235 forward 7 unknown #
loop $-1 $-1 $158 $95 #
plane-surface $-1 37.916124802261677 -27.123985888823142 3.1256690029851413 0 -0.79863551827123203 0.60181501223851219 1 0 0 forward_v I I I I #
loop $-1 $-1 $236 $61 #
coedge $-1 $156 $156 $157 $237 reversed $96 $-1 #
coedge $-1 $157 $157 $156 $237 forward $98 $-1 #
coedge $-1 $158 $158 $99 $159 forward $153 $-1 #
edge $-1 $238 7.1941476101818644e-016 $238 6.2831853071796013 $158 $239 forward 7 unknown #
face $-1 $240 $241 $24 $-1 $242 reversed single #
loop $-1 $-1 $243 $100 #
plane-surface $-1 -44.458143864253671 0 0 1 0 0 0 0 -1 forward_v I I I I #
coedge $-1 $244 $171 $243 $245 forward $101 $-1 #
coedge $-1 $246 $103 $244 $247 forward $65 $-1 #
coedge $-1 $103 $246 $248 $249 forward $65 $-1 #
coedge $-1 $174 $173 $103 $167 reversed $175 $-1 #
edge $-1 $250 -27.123985888823146 $251 27.123985888823146 $166 $252 forward 7 unknown #
coedge $-1 $105 $104 $253 $254 forward $41 $-1 #
coedge $-1 $255 $256 $104 $170 reversed $241 $-1 #
edge $-1 $177 -44.458143864253671 $257 44.458143864253671 $169 $258 forward 7 unknown #
coedge $-1 $163 $259 $105 $172 reversed $101 $-1 #
edge $-1 $260 -44.458143864253671 $176 44.458143864253671 $171 $261 forward 7 unknown #
coedge $-1 $166 $106 $259 $262 forward $175 $-1 #
coedge $-1 $106 $166 $255 $263 reversed $175 $-1 #
loop $-1 $-1 $173 $240 #
vertex $-1 $107 $264 #
vertex $-1 $107 $265 #
straight-curve $-1 44.458143864253671 0 12.436041663977685 0 1 0 I I #
face $-1 $266 $267 $25 $-1 $268 reversed single #
loop $-1 $-1 $269 $108 #
plane-surface $-1 -51.959175405990933 0 -6.0764239541914975 0 0 1 1 0 0 forward_v I I I I #
coedge $-1 $270 $111 $271 $272 reversed $69 $-1 #
coedge $-1 $111 $270 $188 $273 reversed $69 $-1 #
edge $-1 $190 -0.46476620904149213 $274 6.0764239541914975 $111 $275 forward 7 unknown #
coedge $-1 $113 $112 $269 $276 forward $44 $-1 #
coedge $-1 $277 $278 $112 $187 forward $279 $-1 #
edge $-1 $280 -6.0764239541914975 $191 0.46476620904149213 $186 $281 forward 7 unknown #
coedge $-1 $282 $114 $183 $273 forward $109 $-1 #
coedge $-1 $114 $282 $277 $283 forward $109 $-1 #
vertex $-1 $184 $284 #
vertex $-1 $283 $285 #
straight-curve $-1 -44.458143864253671 0 0.46476620904149213 0 -1 0 I I #
face $-1 $-1 $286 $26 $-1 $287 reversed single #
loop $-1 $-1 $122 $116 #
plane-surface $-1 0 0 12.436041663977685 0 0 1 1 0 0 forward_v I I I I #
coedge $-1 $288 $289 $290 $291 reversed $117 $-1 #
coedge $-1 $292 $119 $121 $203 forward $73 $-1 #
coedge $-1 $119 $292 $288 $293 forward $73 $-1 #
coedge $-1 $290 $122 $119 $200 forward $194 $-1 #
edge $-1 $206 -18.445124872511869 $294 -3.5767869440226914 $199 $295 forward 7 unknown #
coedge $-1 $296 $297 $120 $202 forward $286 $-1 #
edge $-1 $298 -51.027493953349378 $205 -39.776752972648524 $201 $299 forward 7 unknown #
edge $-1 $206 36.370367617664314 $298 54.247971777646292 $121 $300 forward 7 unknown #
coedge $-1 $122 $290 $296 $301 forward $194 $-1 #
vertex $-1 $202 $302 #
vertex $-1 $123 $303 #
straight-curve $-1 -29.456080780779146 20.461113853367522 12.436041663977683 0 -1 0 I I #
coedge $-1 $208 $208 $-1 $304 reversed $126 $-1 #
edge $-1 $305 0 $305 6.2831853071796004 $127 $306 forward 7 unknown #
vertex $-1 $130 $307 #
ellipse-curve $-1 -25.207984229782237 20.177232008661139 6.8106711736272612 0 0.62932039886446345 0.77714595512881146 1 0 0 1 I I #
coedge $-1 $212 $212 $-1 $308 reversed $133 $-1 #
edge $-1 $309 0 $309 6.2831853071796004 $134 $310 forward 7 unknown #
vertex $-1 $137 $311 #
ellipse-curve $-1 -18.835839403286876 20.177232008661139 6.8106711736272612 0 0.62932039886446345 0.77714595512881146 1 0 0 1 I I #
face $-1 $-1 $312 $29 $-1 $313 reversed single #
loop $-1 $-1 $222 $138 #
plane-surface $-1 0 0 12.436041663977685 0 0 1 1 0 0 forward_v I I I I #
coedge $-1 $314 $315 $221 $316 forward $139 $-1 #
coedge $-1 $221 $141 $143 $227 reversed $87 $-1 #
coedge $-1 $141 $220 $219 $316 reversed $87 $-1 #
coedge $-1 $317 $144 $141 $223 forward $217 $-1 #
edge $-1 $230 -28.959728649176732 $318 -21.943859821993652 $222 $319 forward 7 unknown #
coedge $-1 $143 $142 $314 $320 reversed $56 $-1 #
coedge $-1 $321 $322 $142 $226 forward $312 $-1 #
edge $-1 $323 -6.9136758077479907 $229 4.7441736717570855 $225 $324 forward 7 unknown #
edge $-1 $325 -6.0393960050271867e-015 $230 11.657849479505069 $220 $326 forward 7 unknown #
coedge $-1 $144 $317 $321 $327 forward $217 $-1 #
vertex $-1 $226 $328 #
vertex $-1 $145 $329 #
straight-curve $-1 18.958062401130839 -20.108117061640069 12.436041663977685 -1 0 0 I I #
coedge $-1 $232 $232 $-1 $330 reversed $148 $-1 #
edge $-1 $331 0 $331 6.2831853071796004 $149 $332 forward 7 unknown #
vertex $-1 $152 $333 #
ellipse-curve $-1 35.112402347122242 -23.616051475231608 7.7808553334814095 0 -0.79863551827123203 0.60181501223851219 1 0 0 1 I I #
coedge $-1 $236 $236 $-1 $334 reversed $155 $-1 #
edge $-1 $335 0 $335 6.2831853071796004 $156 $336 forward 7 unknown #
vertex $-1 $159 $337 #
ellipse-curve $-1 40.719847257401099 -23.616051475231608 7.7808553334814095 0 -0.79863551827123203 0.60181501223851219 1 0 0 1 I I #
face $-1 $-1 $175 $24 $-1 $338 reversed single #
loop $-1 $-1 $255 $160 #
plane-surface $-1 0 27.123985888823146 0 0 -1 0 0 0 -1 forward_v I I I I #
coedge $-1 $253 $339 $163 $245 reversed $161 $-1 #
coedge $-1 $259 $163 $164 $247 reversed $101 $-1 #
edge $-1 $260 -12.436041663977685 $340 12.436041663977685 $243 $341 forward 7 unknown #
coedge $-1 $165 $164 $339 $342 forward $65 $-1 #
edge $-1 $251 -44.458143864253671 $340 44.458143864253671 $244 $343 forward 7 unknown #
coedge $-1 $256 $255 $165 $249 reversed $241 $-1 #
edge $-1 $344 -44.458143864253671 $250 44.458143864253671 $248 $345 forward 7 unknown #
vertex $-1 $167 $346 #
vertex $-1 $262 $347 #
straight-curve $-1 44.458143864253671 0 -12.436041663977685 0 -1 0 I I #
coedge $-1 $348 $243 $168 $254 reversed $161 $-1 #
edge $-1 $257 -27.123985888823146 $260 27.123985888823146 $253 $349 forward 7 unknown #
coedge $-1 $248 $169 $174 $263 forward $241 $-1 #
coedge $-1 $169 $248 $348 $350 reversed $241 $-1 #
vertex $-1 $170 $351 #
straight-curve $-1 0 27.123985888823146 12.436041663977685 -1 0 0 I I #
coedge $-1 $171 $244 $173 $262 reversed $101 $-1 #
vertex $-1 $254 $352 #
straight-curve $-1 0 -27.123985888823146 12.436041663977685 1 0 0 I I #
edge $-1 $176 -12.436041663977685 $251 12.436041663977685 $173 $353 forward 7 unknown #
edge $-1 $177 -12.436041663977685 $250 12.436041663977685 $174 $354 forward 7 unknown #
point $-1 44.458143864253671 -27.123985888823146 12.436041663977685 #
point $-1 44.458143864253671 27.123985888823146 12.436041663977685 #
face $-1 $-1 $279 $25 $-1 $355 reversed single #
loop $-1 $-1 $356 $179 #
plane-surface $-1 -59.460206947728196 0 -2.8058288725750025 1 0 0 0 0 -1 forward_v I I I I #
coedge $-1 $357 $271 $185 $276 reversed $180 $-1 #
coedge $-1 $183 $182 $356 $358 reversed $69 $-1 #
coedge $-1 $269 $359 $182 $272 forward $180 $-1 #
edge $-1 $360 -7.5010315417372624 $274 7.5010315417372624 $182 $361 forward 7 unknown #
edge $-1 $190 -7.5010315417372624 $362 7.5010315417372624 $183 $363 forward 7 unknown #
vertex $-1 $184 $364 #
straight-curve $-1 -44.458143864253671 27.123985888823146 0 0 0 -1 I I #
edge $-1 $280 -27.123985888823146 $274 27.123985888823146 $269 $365 forward 7 unknown #
coedge $-1 $366 $186 $189 $283 reversed $279 $-1 #
coedge $-1 $186 $366 $357 $367 reversed $279 $-1 #
loop $-1 $-1 $186 $266 #
vertex $-1 $187 $368 #
straight-curve $-1 -44.458143864253671 -27.123985888823146 0 0 0 1 I I #
coedge $-1 $189 $188 $369 $370 forward $109 $-1 #
edge $-1 $371 -7.5010315417372624 $191 7.5010315417372624 $277 $372 forward 7 unknown #
point $-1 -44.458143864253671 27.123985888823146 0.46476620904149213 #
point $-1 -44.458143864253671 -27.123985888823146 0.46476620904149213 #
loop $-1 $-1 $201 $193 #
plane-surface $-1 0 27.123985888823146 0 0 -1 0 0 0 -1 forward_v I I I I #
coedge $-1 $289 $196 $198 $293 reversed $117 $-1 #
coedge $-1 $196 $288 $373 $374 reversed $117 $-1 #
coedge $-1 $204 $199 $196 $291 forward $194 $-1 #
edge $-1 $294 -7.2306357248683852 $375 6.6628720354556243 $290 $376 forward 7 unknown #
coedge $-1 $198 $197 $297 $377 reversed $73 $-1 #
edge $-1 $378 -54.247971777646292 $294 -36.370367617664314 $288 $379 forward 7 unknown #
vertex $-1 $200 $380 #
straight-curve $-1 -11.010955908267279 13.230478128499129 12.436041663977685 1 0 0 I I #
coedge $-1 $373 $201 $204 $301 reversed $286 $-1 #
coedge $-1 $201 $373 $292 $377 forward $286 $-1 #
vertex $-1 $202 $381 #
straight-curve $-1 -29.456080780779146 27.123985888823146 52.212794636626207 0 0 1 I I #
straight-curve $-1 -29.456080780779146 -15.034605952116593 35.324655919973353 0 0.77714595512881146 -0.62932039886446345 I I #
edge $-1 $375 14.587742852289971 $205 29.456080780779146 $296 $382 forward 7 unknown #
point $-1 -29.456080780779146 27.123985888823146 12.436041663977685 #
point $-1 -29.456080780779146 13.230478128499136 12.436041663977679 #
edge $-1 $383 1 $383 0 $208 $-1 forward 7 unknown #
vertex $-1 $209 $384 #
ellipse-curve $-1 -25.207984229782237 19.069396099139372 5.4426077871793153 0 0.62932039886446345 0.77714595512881146 1 0 0 1 I I #
point $-1 -24.207984229782237 20.177232008661147 6.8106711736272691 #
edge $-1 $385 1 $385 0 $212 $-1 forward 7 unknown #
vertex $-1 $213 $386 #
ellipse-curve $-1 -18.835839403286876 19.069396099139372 5.4426077871793153 0 0.62932039886446345 0.77714595512881146 1 0 0 1 I I #
point $-1 -17.835839403286876 20.177232008661147 6.8106711736272691 #
loop $-1 $-1 $225 $216 #
plane-surface $-1 44.458143864253671 0 0 -1 0 0 0 0 1 forward_v I I I I #
coedge $-1 $387 $219 $224 $320 forward $139 $-1 #
coedge $-1 $219 $387 $317 $388 reversed $139 $-1 #
edge $-1 $318 15.882371231282244 $325 25.192743892274791 $219 $389 forward 7 unknown #
coedge $-1 $228 $222 $315 $388 forward $217 $-1 #
vertex $-1 $388 $390 #
straight-curve $-1 31.374105740269677 -49.067845710816798 12.436041663977683 0 -1 0 I I #
edge $-1 $325 12.416043339138838 $323 25.500081463122839 $314 $391 forward 7 unknown #
coedge $-1 $322 $225 $228 $327 reversed $312 $-1 #
coedge $-1 $225 $321 $387 $392 forward $312 $-1 #
vertex $-1 $320 $393 #
straight-curve $-1 44.458143864253671 -22.963231997970183 8.6471760648652314 0 0.60181501223851219 0.79863551827123203 I I #
vertex $-1 $320 $394 #
straight-curve $-1 31.374105740269677 -27.123985888823142 3.1256690029851413 0 0.60181501223851219 0.79863551827123203 I I #
edge $-1 $395 -27.123985888823146 $229 -20.108117061640066 $321 $396 forward 7 unknown #
point $-1 44.458143864253678 -20.108117061640066 12.436041663977685 #
point $-1 31.374105740269677 -20.108117061640066 12.436041663977685 #
edge $-1 $397 1 $397 0 $232 $-1 forward 7 unknown #
vertex $-1 $233 $398 #
ellipse-curve $-1 35.112402347122242 -21.541553855610108 6.2176092947330117 0 -0.79863551827123203 0.60181501223851219 1 0 0 1 I I #
point $-1 36.112402347122242 -23.616051475231604 7.7808553334814077 #
edge $-1 $399 1 $399 0 $236 $-1 forward 7 unknown #
vertex $-1 $237 $400 #
ellipse-curve $-1 40.719847257401099 -21.541553855610108 6.2176092947330117 0 -0.79863551827123203 0.60181501223851219 1 0 0 1 I I #
point $-1 41.719847257401099 -23.616051475231604 7.7808553334814077 #
plane-surface $-1 44.458143864253671 0 0 -1 0 0 0 0 1 forward_v I I I I #
coedge $-1 $243 $348 $246 $342 reversed $161 $-1 #
vertex $-1 $342 $401 #
straight-curve $-1 -44.458143864253671 -27.123985888823146 0 0 0 -1 I I #
edge $-1 $340 -27.123985888823146 $344 27.123985888823146 $339 $402 forward 7 unknown #
straight-curve $-1 0 -27.123985888823146 -12.436041663977685 -1 0 0 I I #
vertex $-1 $249 $403 #
straight-curve $-1 0 27.123985888823146 -12.436041663977685 1 0 0 I I #
point $-1 44.458143864253671 27.123985888823146 -12.436041663977685 #
point $-1 44.458143864253671 -27.123985888823146 -12.436041663977685 #
coedge $-1 $339 $253 $256 $350 forward $161 $-1 #
straight-curve $-1 -44.458143864253671 0 12.436041663977685 0 -1 0 I I #
edge $-1 $257 -12.436041663977685 $344 12.436041663977685 $256 $404 forward 7 unknown #
point $-1 -44.458143864253671 27.123985888823146 12.436041663977685 #
point $-1 -44.458143864253671 -27.123985888823146 12.436041663977685 #
straight-curve $-1 44.458143864253671 -27.123985888823146 0 0 0 -1 I I #
straight-curve $-1 44.458143864253671 27.123985888823146 0 0 0 -1 I I #
plane-surface $-1 0 -27.123985888823146 0 0 1 0 0 0 1 forward_v I I I I #
coedge $-1 $405 $369 $270 $358 forward $267 $-1 #
coedge $-1 $359 $269 $278 $367 forward $180 $-1 #
edge $-1 $362 -3.2705950816164946 $360 3.270595081616495 $270 $406 forward 7 unknown #
coedge $-1 $271 $357 $405 $407 forward $180 $-1 #
vertex $-1 $272 $408 #
straight-curve $-1 -51.959175405990933 27.123985888823146 -6.0764239541914975 1 0 0 I I #
vertex $-1 $273 $409 #
straight-curve $-1 -51.959175405990933 27.123985888823146 0.46476620904149213 -1 0 0 I I #
point $-1 -44.458143864253671 27.123985888823146 -6.0764239541914975 #
straight-curve $-1 -44.458143864253671 0 -6.0764239541914975 0 1 0 I I #
coedge $-1 $278 $277 $410 $411 forward $279 $-1 #
edge $-1 $280 -7.5010315417372624 $412 7.5010315417372624 $278 $413 forward 7 unknown #
point $-1 -44.458143864253671 -27.123985888823146 -6.0764239541914975 #
coedge $-1 $356 $410 $282 $370 reversed $267 $-1 #
edge $-1 $362 -27.123985888823146 $371 27.123985888823146 $369 $414 forward 7 unknown #
vertex $-1 $370 $415 #
straight-curve $-1 -51.959175405990933 -27.123985888823146 0.46476620904149213 1 0 0 I I #
coedge $-1 $297 $296 $289 $374 forward $286 $-1 #
edge $-1 $375 39.776752972648524 $378 51.027493953349378 $373 $416 forward 7 unknown #
vertex $-1 $301 $417 #
straight-curve $-1 -14.587742852289971 20.461113853367522 12.436041663977683 0 1 0 I I #
edge $-1 $378 3.5767869440226914 $298 18.445124872511869 $297 $418 forward 7 unknown #
vertex $-1 $377 $419 #
straight-curve $-1 -14.587742852289971 -15.034605952116593 35.324655919973353 0 -0.77714595512881146 0.62932039886446345 I I #
point $-1 -14.587742852289971 13.230478128499136 12.436041663977679 #
point $-1 -29.456080780779146 27.123985888823142 1.1853006832768287 #
straight-curve $-1 0 27.123985888823146 12.436041663977685 -1 0 0 I I #
vertex $-1 $304 $420 #
point $-1 -24.207984229782237 19.069396099139372 5.4426077871793153 #
vertex $-1 $308 $421 #
point $-1 -17.835839403286876 19.069396099139372 5.4426077871793153 #
coedge $-1 $315 $314 $322 $392 reversed $139 $-1 #
edge $-1 $318 31.374105740269677 $395 44.458143864253671 $315 $422 forward 7 unknown #
straight-curve $-1 31.374105740269677 -27.123985888823142 28.318412895259929 0 0 -1 I I #
point $-1 31.374105740269677 -27.123985888823146 12.436041663977685 #
straight-curve $-1 18.958062401130839 -27.123985888823146 3.1256690029851337 1 0 0 I I #
edge $-1 $395 -12.436041663977685 $323 -3.1256690029851364 $322 $423 forward 7 unknown #
point $-1 44.458143864253678 -27.123985888823146 3.1256690029851364 #
point $-1 31.374105740269677 -27.123985888823146 3.1256690029851364 #
vertex $-1 $327 $424 #
straight-curve $-1 44.458143864253671 0 12.436041663977685 0 1 0 I I #
vertex $-1 $330 $425 #
point $-1 36.112402347122242 -21.541553855610108 6.2176092947330117 #
vertex $-1 $334 $426 #
point $-1 41.719847257401099 -21.541553855610108 6.2176092947330117 #
point $-1 -44.458143864253671 -27.123985888823146 -12.436041663977685 #
straight-curve $-1 -44.458143864253671 0 -12.436041663977685 0 1 0 I I #
point $-1 -44.458143864253671 27.123985888823146 -12.436041663977685 #
straight-curve $-1 -44.458143864253671 27.123985888823146 0 0 0 -1 I I #
coedge $-1 $410 $356 $359 $407 reversed $267 $-1 #
straight-curve $-1 -59.460206947728196 27.123985888823146 -2.8058288725750025 0 0 -1 I I #
edge $-1 $412 -27.123985888823146 $360 27.123985888823146 $405 $427 forward 7 unknown #
point $-1 -59.460206947728196 27.123985888823146 -6.0764239541914975 #
point $-1 -59.460206947728196 27.123985888823146 0.46476620904149213 #
coedge $-1 $369 $405 $366 $411 reversed $267 $-1 #
edge $-1 $371 -3.2705950816164946 $412 3.270595081616495 $410 $428 forward 7 unknown #
vertex $-1 $407 $429 #
straight-curve $-1 -51.959175405990933 -27.123985888823146 -6.0764239541914975 -1 0 0 I I #
straight-curve $-1 -59.460206947728196 0 0.46476620904149213 0 -1 0 I I #
point $-1 -59.460206947728196 -27.123985888823146 0.46476620904149213 #
straight-curve $-1 -14.587742852289971 27.123985888823146 52.212794636626207 0 0 -1 I I #
point $-1 -14.587742852289971 27.123985888823146 12.436041663977685 #
straight-curve $-1 -11.010955908267279 27.123985888823146 1.1853006832768287 -1 0 0 I I #
point $-1 -14.587742852289971 27.123985888823142 1.1853006832768287 #
point $-1 -25.207984229782237 18.440075700274907 4.6654618320505046 #
point $-1 -18.835839403286876 18.440075700274907 4.6654618320505046 #
straight-curve $-1 0 -27.123985888823146 12.436041663977685 1 0 0 I I #
straight-curve $-1 44.458143864253671 -27.123985888823146 0 0 0 -1 I I #
point $-1 44.458143864253671 -27.123985888823146 12.436041663977685 #
point $-1 35.112402347122242 -20.742918337338875 5.6157942824944991 #
point $-1 40.719847257401099 -20.742918337338875 5.6157942824944991 #
straight-curve $-1 -59.460206947728196 0 -6.0764239541914975 0 1 0 I I #
straight-curve $-1 -59.460206947728196 -27.123985888823146 -2.8058288725750025 0 0 -1 I I #
point $-1 -59.460206947728196 -27.123985888823146 -6.0764239541914975 #
End-of-ACIS-data 