500 0 8 0           
7 Unknown 11 ACIS 5.0 NT 24 Thu Mar 25 20:54:04 1999 
-1 9.9999999999999995e-007 1e-010 
body $-1 $8 $-1 $9 #
body $-1 $10 $-1 $11 #
body $-1 $12 $-1 $13 #
body $-1 $14 $-1 $15 #
body $-1 $16 $-1 $17 #
body $-1 $18 $-1 $19 #
body $-1 $20 $-1 $21 #
body $-1 $22 $-1 $23 #
lump $-1 $-1 $24 $0 #
transform $-1 1 0 0 0 1 0 0 0 1 75.869014557329024 50.270776166875002 23.257080296300899 1 rotate no_reflect no_shear #
lump $-1 $-1 $25 $1 #
transform $-1 1 0 0 0 1 0 0 0 1 75.869014557329024 50.270776166875002 23.257080296300899 1 rotate no_reflect no_shear #
lump $-1 $-1 $26 $2 #
transform $-1 1 0 0 0 1 0 0 0 1 75.869014557329024 50.270776166875002 23.257080296300899 1 rotate no_reflect no_shear #
lump $-1 $-1 $27 $3 #
transform $-1 1 0 0 0 1 0 0 0 1 75.869014557329024 50.270776166875002 23.257080296300899 1 rotate no_reflect no_shear #
lump $-1 $-1 $28 $4 #
transform $-1 1 0 0 0 1 0 0 0 1 75.869014557329024 50.270776166875002 23.257080296300899 1 rotate no_reflect no_shear #
lump $-1 $-1 $29 $5 #
transform $-1 1 0 0 0 1 0 0 0 1 75.869014557329024 50.270776166875002 23.257080296300899 1 rotate no_reflect no_shear #
lump $-1 $-1 $30 $6 #
transform $-1 1 0 0 0 1 0 0 0 1 75.869014557329024 50.270776166875002 23.257080296300899 1 rotate no_reflect no_shear #
lump $-1 $-1 $31 $7 #
transform $-1 1 0 0 0 1 0 0 0 1 75.869014557329024 50.270776166875002 23.257080296300899 1 rotate no_reflect no_shear #
shell $-1 $-1 $-1 $32 $-1 $8 #
shell $-1 $-1 $-1 $33 $-1 $10 #
shell $-1 $-1 $-1 $34 $-1 $12 #
shell $-1 $-1 $-1 $35 $-1 $14 #
shell $-1 $-1 $-1 $36 $-1 $16 #
shell $-1 $-1 $-1 $37 $-1 $18 #
shell $-1 $-1 $-1 $38 $-1 $20 #
shell $-1 $-1 $-1 $39 $-1 $22 #
face $-1 $40 $41 $24 $-1 $42 reversed single #
face $-1 $43 $44 $25 $-1 $45 forward single #
face $-1 $46 $47 $26 $-1 $48 reversed single #
face $-1 $49 $50 $27 $-1 $51 forward single #
face $-1 $52 $53 $28 $-1 $54 forward single #
face $-1 $55 $56 $29 $-1 $57 reversed single #
face $-1 $58 $59 $30 $-1 $60 forward single #
face $-1 $61 $62 $31 $-1 $63 forward single #
face $-1 $64 $65 $24 $-1 $66 forward single #
loop $-1 $-1 $67 $32 #
plane-surface $-1 0 -50.270776166875002 0 0 1 0 0 0 1 forward_v I I I I #
face $-1 $68 $69 $25 $-1 $70 forward single #
loop $-1 $-1 $71 $33 #
plane-surface $-1 0 -50.270776166875002 0 0 1 0 0 0 1 forward_v I I I I #
face $-1 $72 $73 $26 $-1 $74 reversed single #
loop $-1 $-1 $75 $34 #
plane-surface $-1 -192.10708982783703 -2.4112239876488211 106.12172412778546 0 1 0 -0.7660444514056185 0 0.64278759981090561 forward_v I I I I #
face $-1 $76 $77 $27 $-1 $78 forward single #
loop $-1 $79 $80 $35 #
cone-surface $-1 -69.193270404826237 1.9735246686080714 15.484852031517038 0.7660444514056185 0 -0.64278759981090561 0.64278759981090561 0 0.7660444514056185 1 I I 0 1 1 forward I I I I #
face $-1 $81 $82 $28 $-1 $83 forward single #
loop $-1 $84 $85 $36 #
cone-surface $-1 -69.193270404826237 8.5506476529934119 15.484852031517038 0.7660444514056185 0 -0.64278759981090561 0.64278759981090561 0 0.7660444514056185 1 I I 0 1 1 forward I I I I #
face $-1 $86 $87 $29 $-1 $88 reversed single #
loop $-1 $-1 $89 $37 #
plane-surface $-1 127.78303214896638 37.309060697007411 216.41328124013853 0 -1 0 -0.85716730853699208 0 -0.51503806187062418 forward_v I I I I #
face $-1 $90 $91 $30 $-1 $92 forward single #
loop $-1 $93 $94 $38 #
cone-surface $-1 68.276919614905438 23.630015063916495 13.884019290315742 -0.85716730853699208 0 -0.51503806187062418 1.2875951546765605 0 -2.1429182713424804 1 I I 0 1 2.5 forward I I I I #
face $-1 $95 $96 $31 $-1 $97 forward single #
loop $-1 $98 $99 $39 #
cone-surface $-1 68.276919614905438 31.837442443771046 13.884019290315742 -0.85716730853699208 0 -0.51503806187062418 1.2875951546765605 0 -2.1429182713424804 1 I I 0 1 2.5 forward I I I I #
face $-1 $100 $101 $24 $-1 $102 reversed single #
loop $-1 $-1 $103 $40 #
plane-surface $-1 0 0 23.257080296300899 0 0 1 1 0 0 forward_v I I I I #
coedge $-1 $104 $105 $106 $107 reversed $41 $-1 #
face $-1 $108 $109 $25 $-1 $110 reversed single #
loop $-1 $-1 $111 $43 #
plane-surface $-1 0 0 23.257080296300899 0 0 1 1 0 0 forward_v I I I I #
coedge $-1 $112 $113 $114 $115 forward $44 $-1 #
face $-1 $116 $117 $26 $-1 $118 reversed single #
loop $-1 $-1 $119 $46 #
plane-surface $-1 -75.869014557329038 5.2620861608007417 8.5864005931370997 -0.7660444514056185 0 0.64278759981090561 0.64278759981090561 0 0.7660444514056185 forward_v I I I I #
coedge $-1 $120 $121 $122 $123 reversed $47 $-1 #
face $-1 $-1 $124 $27 $-1 $125 forward single #
loop $-1 $126 $127 $49 #
cone-surface $-1 -68.28958482949561 1.9735246686080714 14.726569818409622 0.7660444514056185 0 -0.64278759981090561 0.3213937999054528 0 0.38302222570280925 1 I I -0.70710678118654746 0.70710678118654746 0.5 forward I I I I #
loop $-1 $-1 $128 $35 #
coedge $-1 $80 $80 $129 $130 reversed $50 $-1 #
face $-1 $-1 $131 $28 $-1 $132 forward single #
loop $-1 $133 $134 $52 #
cone-surface $-1 -68.28958482949561 8.5506476529934119 14.726569818409622 0.7660444514056185 0 -0.64278759981090561 0.3213937999054528 0 0.38302222570280925 1 I I -0.70710678118654746 0.70710678118654746 0.5 forward I I I I #
loop $-1 $-1 $135 $36 #
coedge $-1 $85 $85 $136 $137 reversed $53 $-1 #
face $-1 $138 $139 $29 $-1 $140 reversed single #
loop $-1 $-1 $141 $55 #
plane-surface $-1 -2.2818458699528037 27.733728753843771 138.2624208128567 0.85716730853699208 0 0.51503806187062418 0.51503806187062418 0 -0.85716730853699208 forward_v I I I I #
coedge $-1 $142 $143 $144 $145 reversed $56 $-1 #
face $-1 $-1 $146 $30 $-1 $147 forward single #
loop $-1 $148 $149 $58 #
cone-surface $-1 64.137706893880988 23.630015063916495 11.396929458173986 -0.85716730853699208 0 -0.51503806187062418 0.64379757733828025 0 -1.0714591356712402 1 I I -0.70710678118654746 0.70710678118654746 1.25 forward I I I I #
loop $-1 $-1 $150 $38 #
coedge $-1 $94 $94 $151 $152 reversed $59 $-1 #
face $-1 $-1 $153 $31 $-1 $154 forward single #
loop $-1 $155 $156 $61 #
cone-surface $-1 64.137706893880988 31.837442443771046 11.396929458173986 -0.85716730853699208 0 -0.51503806187062418 0.64379757733828025 0 -1.0714591356712402 1 I I -0.70710678118654746 0.70710678118654746 1.25 forward I I I I #
loop $-1 $-1 $157 $39 #
coedge $-1 $99 $99 $158 $159 reversed $62 $-1 #
face $-1 $160 $161 $24 $-1 $162 reversed single #
loop $-1 $-1 $163 $64 #
plane-surface $-1 0 0 -23.257080296300899 0 0 1 1 0 0 forward_v I I I I #
coedge $-1 $164 $165 $166 $167 forward $65 $-1 #
coedge $-1 $168 $67 $169 $170 reversed $41 $-1 #
coedge $-1 $67 $168 $171 $172 forward $41 $-1 #
coedge $-1 $173 $163 $67 $107 forward $101 $-1 #
edge $-1 $174 -75.869014557329024 $175 75.869014557329024 $67 $176 forward 7 unknown #
face $-1 $177 $178 $25 $-1 $179 reversed single #
loop $-1 $-1 $180 $68 #
plane-surface $-1 -75.869014557329024 0 0 1 0 0 0 0 -1 forward_v I I I I #
coedge $-1 $181 $182 $113 $183 forward $69 $-1 #
coedge $-1 $184 $71 $185 $186 reversed $44 $-1 #
coedge $-1 $71 $184 $111 $183 reversed $44 $-1 #
coedge $-1 $187 $188 $71 $115 reversed $189 $-1 #
edge $-1 $190 -23.257080296300899 $191 23.257080296300899 $114 $192 forward 7 unknown #
face $-1 $193 $194 $26 $-1 $195 reversed single #
loop $-1 $-1 $196 $72 #
plane-surface $-1 -192.10708982783703 12.935396309250304 106.12172412778546 0 -1 0 0.7660444514056185 0 -0.64278759981090561 forward_v I I I I #
coedge $-1 $197 $198 $199 $200 reversed $73 $-1 #
coedge $-1 $121 $75 $201 $202 reversed $47 $-1 #
coedge $-1 $75 $120 $197 $203 reversed $47 $-1 #
coedge $-1 $199 $204 $75 $123 forward $205 $-1 #
edge $-1 $206 20.184530356589491 $207 32.494691962339431 $122 $208 forward 7 unknown #
loop $-1 $-1 $129 $76 #
plane-surface $-1 -75.869014557329038 5.2620861608007417 8.5864005931370997 -0.7660444514056185 0 0.64278759981090561 0.64278759981090561 0 0.7660444514056185 forward_v I I I I #
loop $-1 $-1 $209 $49 #
coedge $-1 $127 $127 $128 $210 reversed $77 $-1 #
coedge $-1 $128 $128 $127 $210 forward $79 $-1 #
coedge $-1 $129 $129 $80 $130 forward $124 $-1 #
edge $-1 $211 0 $211 6.2831853071796004 $129 $212 forward 7 unknown #
loop $-1 $-1 $136 $81 #
plane-surface $-1 -75.869014557329038 5.2620861608007417 8.5864005931370997 -0.7660444514056185 0 0.64278759981090561 0.64278759981090561 0 0.7660444514056185 forward_v I I I I #
loop $-1 $-1 $213 $52 #
coedge $-1 $134 $134 $135 $214 reversed $82 $-1 #
coedge $-1 $135 $135 $134 $214 forward $84 $-1 #
coedge $-1 $136 $136 $85 $137 forward $131 $-1 #
edge $-1 $215 0 $215 6.2831853071796004 $136 $216 forward 7 unknown #
face $-1 $217 $218 $29 $-1 $219 forward single #
loop $-1 $-1 $220 $86 #
plane-surface $-1 127.78303214896638 18.158396810680131 216.41328124013853 0 1 0 0.85716730853699208 0 0.51503806187062418 forward_v I I I I #
coedge $-1 $221 $222 $223 $224 reversed $87 $-1 #
coedge $-1 $143 $89 $225 $226 reversed $56 $-1 #
coedge $-1 $89 $142 $221 $227 reversed $56 $-1 #
coedge $-1 $223 $228 $89 $145 forward $218 $-1 #
edge $-1 $229 -11.977498482845832 $230 -2.9288157687051068 $144 $231 forward 7 unknown #
loop $-1 $-1 $151 $90 #
plane-surface $-1 -2.2818458699528037 27.733728753843771 138.2624208128567 0.85716730853699208 0 0.51503806187062418 0.51503806187062418 0 -0.85716730853699208 forward_v I I I I #
loop $-1 $-1 $232 $58 #
coedge $-1 $149 $149 $150 $233 reversed $91 $-1 #
coedge $-1 $150 $150 $149 $233 forward $93 $-1 #
coedge $-1 $151 $151 $94 $152 forward $146 $-1 #
edge $-1 $234 0 $234 6.2831853071796004 $151 $235 forward 7 unknown #
loop $-1 $-1 $158 $95 #
plane-surface $-1 -2.2818458699528037 27.733728753843771 138.2624208128567 0.85716730853699208 0 0.51503806187062418 0.51503806187062418 0 -0.85716730853699208 forward_v I I I I #
loop $-1 $-1 $236 $61 #
coedge $-1 $156 $156 $157 $237 reversed $96 $-1 #
coedge $-1 $157 $157 $156 $237 forward $98 $-1 #
coedge $-1 $158 $158 $99 $159 forward $153 $-1 #
edge $-1 $238 0 $238 6.2831853071796004 $158 $239 forward 7 unknown #
face $-1 $240 $241 $24 $-1 $242 reversed single #
loop $-1 $-1 $243 $100 #
plane-surface $-1 -75.869014557329024 0 0 1 0 0 0 0 -1 forward_v I I I I #
coedge $-1 $106 $244 $245 $246 forward $101 $-1 #
coedge $-1 $247 $103 $248 $249 forward $65 $-1 #
coedge $-1 $103 $247 $168 $250 forward $65 $-1 #
coedge $-1 $169 $251 $103 $167 reversed $252 $-1 #
edge $-1 $253 -50.270776166875002 $254 50.270776166875002 $166 $255 forward 7 unknown #
coedge $-1 $105 $104 $165 $250 reversed $41 $-1 #
coedge $-1 $245 $166 $104 $170 forward $252 $-1 #
edge $-1 $253 -23.257080296300899 $174 23.257080296300899 $169 $256 forward 7 unknown #
coedge $-1 $257 $258 $105 $172 reversed $161 $-1 #
edge $-1 $259 -23.257080296300899 $175 23.257080296300899 $171 $260 forward 7 unknown #
coedge $-1 $244 $106 $258 $261 forward $101 $-1 #
vertex $-1 $170 $262 #
vertex $-1 $261 $263 #
straight-curve $-1 0 -50.270776166875002 -23.257080296300899 -1 0 0 I I #
face $-1 $264 $189 $25 $-1 $265 reversed single #
loop $-1 $-1 $266 $108 #
plane-surface $-1 -73.232710551940968 -77.995938563253532 0 0 1 0 0 0 1 forward_v I I I I #
coedge $-1 $267 $268 $184 $269 forward $109 $-1 #
coedge $-1 $270 $111 $268 $271 forward $69 $-1 #
coedge $-1 $111 $270 $187 $272 forward $69 $-1 #
edge $-1 $190 70.596406546552913 $273 75.869014557329024 $111 $274 forward 7 unknown #
coedge $-1 $113 $112 $180 $269 reversed $44 $-1 #
coedge $-1 $275 $276 $112 $186 forward $277 $-1 #
edge $-1 $278 -75.869014557329024 $191 -70.596406546552913 $185 $279 forward 7 unknown #
coedge $-1 $280 $114 $182 $272 reversed $189 $-1 #
coedge $-1 $114 $280 $275 $281 reversed $189 $-1 #
loop $-1 $-1 $280 $177 #
vertex $-1 $183 $282 #
vertex $-1 $281 $283 #
straight-curve $-1 -70.596406546552913 -50.270776166875002 0 0 0 -1 I I #
face $-1 $-1 $205 $26 $-1 $284 forward single #
loop $-1 $-1 $285 $116 #
plane-surface $-1 -75.869014557329024 0 0 1 0 0 0 0 -1 forward_v I I I I #
coedge $-1 $286 $287 $288 $289 reversed $117 $-1 #
coedge $-1 $290 $119 $121 $203 forward $73 $-1 #
coedge $-1 $119 $290 $286 $291 forward $73 $-1 #
coedge $-1 $288 $122 $119 $200 forward $205 $-1 #
edge $-1 $207 -5.0422670680491919 $292 10.304353228849934 $199 $293 forward 7 unknown #
coedge $-1 $294 $295 $120 $202 forward $194 $-1 #
edge $-1 $296 -44.474461470755614 $206 -29.803781767591829 $201 $297 forward 7 unknown #
edge $-1 $207 -19.151212016802038 $296 -2.2742244199036027e-014 $121 $298 forward 7 unknown #
coedge $-1 $122 $288 $294 $299 forward $205 $-1 #
loop $-1 $-1 $288 $193 #
vertex $-1 $202 $300 #
vertex $-1 $123 $301 #
straight-curve $-1 -96.053544913918515 -2.4112239876488211 23.257080296300899 1 0 0 I I #
coedge $-1 $209 $209 $-1 $302 reversed $126 $-1 #
edge $-1 $303 0 $303 6.2831853071796004 $127 $304 forward 7 unknown #
vertex $-1 $130 $305 #
ellipse-curve $-1 -69.713933754454061 1.9735246686080714 15.921740444719006 -0.7660444514056185 0 0.64278759981090561 0.64278759981090561 0 0.7660444514056185 1 I I #
coedge $-1 $213 $213 $-1 $306 reversed $133 $-1 #
edge $-1 $307 0 $307 6.2831853071796004 $134 $308 forward 7 unknown #
vertex $-1 $137 $309 #
ellipse-curve $-1 -69.713933754454061 8.5506476529934119 15.921740444719006 -0.7660444514056185 0 0.64278759981090561 0.64278759981090561 0 0.7660444514056185 1 I I #
face $-1 $-1 $310 $29 $-1 $311 reversed single #
loop $-1 $-1 $144 $138 #
plane-surface $-1 0 0 23.257080296300899 0 0 1 1 0 0 forward_v I I I I #
coedge $-1 $312 $313 $314 $315 reversed $139 $-1 #
coedge $-1 $316 $141 $143 $227 forward $87 $-1 #
coedge $-1 $141 $316 $312 $317 forward $87 $-1 #
coedge $-1 $314 $144 $141 $224 forward $218 $-1 #
edge $-1 $230 -23.442196320085525 $318 -4.2915324337582454 $223 $319 forward 7 unknown #
coedge $-1 $320 $321 $142 $226 forward $310 $-1 #
edge $-1 $322 -100.00909782613175 $229 -84.949560323768367 $225 $323 forward 7 unknown #
edge $-1 $230 134.16906987837211 $322 151.73802911465808 $143 $324 forward 7 unknown #
coedge $-1 $144 $314 $320 $325 forward $218 $-1 #
vertex $-1 $145 $326 #
vertex $-1 $145 $327 #
straight-curve $-1 63.891516074483192 37.309060697007411 23.257080296300899 -1 0 0 I I #
coedge $-1 $232 $232 $-1 $328 reversed $148 $-1 #
edge $-1 $329 0 $329 6.2831853071796004 $149 $330 forward 7 unknown #
vertex $-1 $152 $331 #
ellipse-curve $-1 71.344673200258654 23.630015063916495 15.727311545119218 0.85716730853699208 0 0.51503806187062418 1.2875951546765605 0 -2.1429182713424804 1 I I #
coedge $-1 $236 $236 $-1 $332 reversed $155 $-1 #
edge $-1 $333 0 $333 6.2831853071796004 $156 $334 forward 7 unknown #
vertex $-1 $159 $335 #
ellipse-curve $-1 71.344673200258654 31.837442443771046 15.727311545119218 0.85716730853699208 0 0.51503806187062418 1.2875951546765605 0 -2.1429182713424804 1 I I #
face $-1 $-1 $252 $24 $-1 $336 reversed single #
loop $-1 $-1 $337 $160 #
plane-surface $-1 0 50.270776166875002 0 0 -1 0 0 0 -1 forward_v I I I I #
coedge $-1 $258 $257 $338 $339 forward $161 $-1 #
coedge $-1 $163 $173 $340 $341 forward $101 $-1 #
coedge $-1 $251 $169 $163 $246 reversed $252 $-1 #
edge $-1 $342 -50.270776166875002 $174 50.270776166875002 $245 $343 forward 7 unknown #
coedge $-1 $165 $164 $257 $344 forward $65 $-1 #
coedge $-1 $337 $338 $164 $249 reversed $241 $-1 #
edge $-1 $254 -75.869014557329024 $345 75.869014557329024 $248 $346 forward 7 unknown #
edge $-1 $259 -75.869014557329024 $253 75.869014557329024 $168 $347 forward 7 unknown #
coedge $-1 $166 $245 $337 $348 reversed $252 $-1 #
loop $-1 $-1 $169 $240 #
vertex $-1 $167 $349 #
vertex $-1 $167 $350 #
straight-curve $-1 75.869014557329024 0 23.257080296300899 0 1 0 I I #
straight-curve $-1 75.869014557329024 -50.270776166875002 0 0 0 -1 I I #
coedge $-1 $243 $171 $247 $344 reversed $161 $-1 #
coedge $-1 $171 $243 $173 $261 reversed $161 $-1 #
vertex $-1 $344 $351 #
straight-curve $-1 -75.869014557329024 -50.270776166875002 0 0 0 -1 I I #
edge $-1 $175 -50.270776166875002 $352 50.270776166875002 $258 $353 forward 7 unknown #
point $-1 75.869014557329024 -50.270776166875002 -23.257080296300899 #
point $-1 -75.869014557329024 -50.270776166875002 -23.257080296300899 #
face $-1 $-1 $277 $25 $-1 $354 reversed single #
plane-surface $-1 -70.596406546552913 -64.133357365064271 0 -1 0 0 0 0 1 forward_v I I I I #
coedge $-1 $355 $356 $357 $358 forward $178 $-1 #
coedge $-1 $357 $180 $276 $359 reversed $109 $-1 #
coedge $-1 $180 $357 $181 $271 reversed $109 $-1 #
edge $-1 $273 -23.257080296300899 $278 23.257080296300899 $180 $360 forward 7 unknown #
coedge $-1 $182 $181 $356 $361 forward $69 $-1 #
edge $-1 $273 50.270776166875002 $362 77.995938563253532 $268 $363 forward 7 unknown #
edge $-1 $364 -13.862581198189261 $190 13.862581198189268 $187 $365 forward 7 unknown #
vertex $-1 $271 $366 #
straight-curve $-1 0 -50.270776166875002 23.257080296300899 -1 0 0 I I #
coedge $-1 $367 $185 $188 $281 forward $277 $-1 #
coedge $-1 $185 $367 $267 $359 forward $277 $-1 #
loop $-1 $-1 $185 $264 #
vertex $-1 $269 $368 #
straight-curve $-1 0 -50.270776166875002 -23.257080296300899 1 0 0 I I #
coedge $-1 $188 $187 $369 $370 forward $189 $-1 #
edge $-1 $191 -13.862581198189268 $371 13.862581198189261 $188 $372 forward 7 unknown #
point $-1 -70.596406546552913 -50.270776166875002 23.257080296300899 #
point $-1 -70.596406546552913 -50.270776166875002 -23.257080296300899 #
plane-surface $-1 0 0 23.257080296300899 0 0 1 1 0 0 forward_v I I I I #
coedge $-1 $295 $294 $287 $373 forward $194 $-1 #
coedge $-1 $287 $196 $198 $291 reversed $117 $-1 #
coedge $-1 $196 $286 $285 $373 reversed $117 $-1 #
coedge $-1 $204 $199 $196 $289 forward $205 $-1 #
edge $-1 $292 -32.494691962339431 $374 -20.184530356589491 $288 $375 forward 7 unknown #
coedge $-1 $198 $197 $295 $376 reversed $73 $-1 #
edge $-1 $377 2.2742244199036027e-014 $292 19.151212016802038 $286 $378 forward 7 unknown #
vertex $-1 $200 $379 #
straight-curve $-1 -63.558852951579091 2.6310430804003708 23.257080296300899 0 1 0 I I #
coedge $-1 $285 $201 $204 $299 reversed $194 $-1 #
coedge $-1 $201 $285 $290 $376 forward $194 $-1 #
vertex $-1 $202 $380 #
straight-curve $-1 -75.869014557329024 -2.4112239876488211 53.060862063892728 0 0 1 I I #
straight-curve $-1 -75.869014557329038 -2.4112239876488211 8.5864005931370997 -0.64278759981090561 0 -0.7660444514056185 I I #
edge $-1 $374 -12.935396309250304 $206 2.4112239876488211 $294 $381 forward 7 unknown #
point $-1 -75.869014557329024 -2.4112239876488211 23.257080296300899 #
point $-1 -63.558852951579084 -2.4112239876488211 23.257080296300899 #
edge $-1 $382 1 $382 0 $209 $-1 forward 7 unknown #
vertex $-1 $210 $383 #
ellipse-curve $-1 -68.672607055198412 1.9735246686080714 15.047963618315075 -0.7660444514056185 0 0.64278759981090561 0.64278759981090561 0 0.7660444514056185 1 I I #
point $-1 -69.071146154643145 1.9735246686080714 16.687784896124619 #
edge $-1 $384 1 $384 0 $213 $-1 forward 7 unknown #
vertex $-1 $214 $385 #
ellipse-curve $-1 -68.672607055198412 8.5506476529934119 15.047963618315075 -0.7660444514056185 0 0.64278759981090561 0.64278759981090561 0 0.7660444514056185 1 I I #
point $-1 -69.071146154643145 8.5506476529934119 16.687784896124619 #
loop $-1 $-1 $225 $217 #
plane-surface $-1 75.869014557329024 0 0 -1 0 0 0 0 1 forward_v I I I I #
coedge $-1 $313 $220 $222 $317 reversed $139 $-1 #
coedge $-1 $220 $312 $386 $387 reversed $139 $-1 #
coedge $-1 $228 $223 $220 $315 forward $218 $-1 #
edge $-1 $318 2.9288157687051068 $388 11.977498482845832 $314 $389 forward 7 unknown #
coedge $-1 $222 $221 $321 $390 reversed $87 $-1 #
edge $-1 $391 -151.73802911465808 $318 -134.16906987837211 $312 $392 forward 7 unknown #
vertex $-1 $224 $393 #
straight-curve $-1 66.820331843188285 13.866864376921885 23.257080296300899 0 -1 0 I I #
coedge $-1 $386 $225 $228 $325 reversed $310 $-1 #
coedge $-1 $225 $386 $316 $390 forward $310 $-1 #
vertex $-1 $226 $394 #
straight-curve $-1 75.869014557329024 37.309060697007411 108.20664062006927 0 0 1 I I #
straight-curve $-1 -2.2818458699528037 37.309060697007411 138.2624208128567 0.51503806187062418 0 -0.85716730853699208 I I #
edge $-1 $388 18.158396810680131 $229 37.309060697007411 $320 $395 forward 7 unknown #
point $-1 75.869014557329024 37.309060697007411 23.257080296300899 #
point $-1 66.820331843188299 37.309060697007411 23.257080296300899 #
edge $-1 $396 1 $396 0 $232 $-1 forward 7 unknown #
vertex $-1 $233 $397 #
ellipse-curve $-1 65.209166029552222 23.630015063916495 12.040727035512266 0.85716730853699208 0 0.51503806187062418 1.2875951546765605 0 -2.1429182713424804 1 I I #
point $-1 72.632268354935221 23.630015063916495 13.584393273776735 #
edge $-1 $398 1 $398 0 $236 $-1 forward 7 unknown #
vertex $-1 $237 $399 #
ellipse-curve $-1 65.209166029552222 31.837442443771046 12.040727035512266 0.85716730853699208 0 0.51503806187062418 1.2875951546765605 0 -2.1429182713424804 1 I I #
point $-1 72.632268354935221 31.837442443771046 13.584393273776735 #
plane-surface $-1 75.869014557329024 0 0 -1 0 0 0 0 1 forward_v I I I I #
coedge $-1 $340 $248 $251 $348 forward $241 $-1 #
coedge $-1 $248 $340 $243 $339 reversed $241 $-1 #
edge $-1 $345 -23.257080296300899 $352 23.257080296300899 $338 $400 forward 7 unknown #
coedge $-1 $338 $337 $244 $341 reversed $241 $-1 #
edge $-1 $352 -75.869014557329024 $342 75.869014557329024 $340 $401 forward 7 unknown #
vertex $-1 $246 $402 #
straight-curve $-1 75.869014557329024 0 -23.257080296300899 0 -1 0 I I #
edge $-1 $345 -50.270776166875002 $259 50.270776166875002 $257 $403 forward 7 unknown #
vertex $-1 $249 $404 #
straight-curve $-1 0 50.270776166875002 23.257080296300899 -1 0 0 I I #
straight-curve $-1 0 -50.270776166875002 23.257080296300899 1 0 0 I I #
edge $-1 $254 -23.257080296300899 $342 23.257080296300899 $251 $405 forward 7 unknown #
point $-1 75.869014557329024 -50.270776166875002 23.257080296300899 #
point $-1 75.869014557329024 50.270776166875002 23.257080296300899 #
point $-1 -75.869014557329024 -50.270776166875002 23.257080296300899 #
vertex $-1 $341 $406 #
straight-curve $-1 -75.869014557329024 0 -23.257080296300899 0 1 0 I I #
plane-surface $-1 0 0 -23.257080296300899 0 0 1 1 0 0 forward_v I I I I #
coedge $-1 $369 $266 $367 $407 reversed $178 $-1 #
coedge $-1 $266 $369 $270 $361 reversed $178 $-1 #
coedge $-1 $268 $267 $266 $358 reversed $109 $-1 #
edge $-1 $362 -23.257080296300899 $408 23.257080296300899 $357 $409 forward 7 unknown #
edge $-1 $408 -77.995938563253532 $278 -50.270776166875002 $267 $410 forward 7 unknown #
straight-curve $-1 -75.869014557329024 -50.270776166875002 0 0 0 -1 I I #
edge $-1 $362 -2.6363040053880553 $364 2.6363040053880553 $356 $411 forward 7 unknown #
vertex $-1 $271 $412 #
straight-curve $-1 -75.869014557329024 0 23.257080296300899 0 -1 0 I I #
vertex $-1 $272 $413 #
straight-curve $-1 -70.596406546552913 -64.133357365064271 23.257080296300899 0 1 0 I I #
point $-1 -75.869014557329024 -50.270776166875002 23.257080296300899 #
coedge $-1 $276 $275 $355 $407 forward $277 $-1 #
point $-1 -75.869014557329024 -50.270776166875002 -23.257080296300899 #
coedge $-1 $356 $355 $280 $370 reversed $178 $-1 #
edge $-1 $364 -23.257080296300899 $371 23.257080296300899 $280 $414 forward 7 unknown #
vertex $-1 $370 $415 #
straight-curve $-1 -70.596406546552913 -64.133357365064271 -23.257080296300899 0 -1 0 I I #
edge $-1 $374 29.803781767591829 $377 44.474461470755614 $285 $416 forward 7 unknown #
vertex $-1 $299 $417 #
straight-curve $-1 -96.053544913918515 12.935396309250304 23.257080296300899 -1 0 0 I I #
edge $-1 $377 -10.304353228849934 $296 5.0422670680491919 $295 $418 forward 7 unknown #
vertex $-1 $376 $419 #
straight-curve $-1 -75.869014557329038 12.935396309250304 8.5864005931370997 0.64278759981090561 0 0.7660444514056185 I I #
point $-1 -63.558852951579084 12.935396309250304 23.257080296300899 #
point $-1 -75.869014557329024 -2.4112239876488211 8.5864005931371175 #
straight-curve $-1 -75.869014557329024 0 23.257080296300899 0 -1 0 I I #
vertex $-1 $302 $420 #
point $-1 -68.029819455387511 1.9735246686080714 15.814008069720693 #
vertex $-1 $306 $421 #
point $-1 -68.029819455387511 8.5506476529934119 15.814008069720693 #
coedge $-1 $321 $320 $313 $387 forward $310 $-1 #
edge $-1 $388 84.949560323768367 $391 100.00909782613175 $386 $422 forward 7 unknown #
vertex $-1 $325 $423 #
straight-curve $-1 63.891516074483192 18.158396810680131 23.257080296300899 1 0 0 I I #
edge $-1 $391 4.2915324337582454 $322 23.442196320085525 $321 $424 forward 7 unknown #
vertex $-1 $390 $425 #
straight-curve $-1 -2.2818458699528037 18.158396810680131 138.2624208128567 -0.51503806187062418 0 0.85716730853699208 I I #
point $-1 66.820331843188299 18.158396810680131 23.257080296300899 #
point $-1 75.869014557329024 37.309060697007411 8.1975427939375152 #
straight-curve $-1 75.869014557329024 0 23.257080296300899 0 1 0 I I #
vertex $-1 $328 $426 #
point $-1 66.496761184228788 23.630015063916495 9.8978087641697865 #
vertex $-1 $332 $427 #
point $-1 66.496761184228788 31.837442443771046 9.8978087641697865 #
straight-curve $-1 -75.869014557329024 50.270776166875002 0 0 0 -1 I I #
straight-curve $-1 0 50.270776166875002 -23.257080296300899 1 0 0 I I #
point $-1 75.869014557329024 50.270776166875002 -23.257080296300899 #
straight-curve $-1 -75.869014557329024 0 23.257080296300899 0 -1 0 I I #
point $-1 -75.869014557329024 50.270776166875002 23.257080296300899 #
straight-curve $-1 75.869014557329024 50.270776166875002 0 0 0 -1 I I #
point $-1 -75.869014557329024 50.270776166875002 -23.257080296300899 #
edge $-1 $371 -2.6363040053880553 $408 2.6363040053880553 $355 $428 forward 7 unknown #
vertex $-1 $359 $429 #
straight-curve $-1 -75.869014557329024 -77.995938563253532 0 0 0 -1 I I #
straight-curve $-1 -75.869014557329024 0 -23.257080296300899 0 1 0 I I #
straight-curve $-1 -73.232710551940968 -77.995938563253532 23.257080296300899 1 0 0 I I #
point $-1 -75.869014557329024 -77.995938563253532 23.257080296300899 #
point $-1 -70.596406546552913 -77.995938563253532 23.257080296300899 #
straight-curve $-1 -70.596406546552913 -77.995938563253532 0 0 0 -1 I I #
point $-1 -70.596406546552913 -77.995938563253532 -23.257080296300899 #
straight-curve $-1 -75.869014557329024 12.935396309250304 53.060862063892728 0 0 -1 I I #
point $-1 -75.869014557329024 12.935396309250304 23.257080296300899 #
straight-curve $-1 -75.869014557329024 2.6310430804003708 8.586400593137105 0 -1 0 I I #
point $-1 -75.869014557329024 12.935396309250304 8.5864005931371175 #
point $-1 -67.906562603792807 1.9735246686080714 14.40517601850417 #
point $-1 -67.906562603792807 8.5506476529934119 14.40517601850417 #
straight-curve $-1 75.869014557329024 18.158396810680131 108.20664062006927 0 0 -1 I I #
point $-1 75.869014557329024 18.158396810680131 23.257080296300899 #
straight-curve $-1 75.869014557329024 13.866864376921885 8.1975427939375223 0 1 0 I I #
point $-1 75.869014557329024 18.158396810680131 8.1975427939375152 #
point $-1 63.066247758209748 23.630015063916495 10.753131880835706 #
point $-1 63.066247758209748 31.837442443771046 10.753131880835706 #
straight-curve $-1 -73.232710551940968 -77.995938563253532 -23.257080296300899 -1 0 0 I I #
point $-1 -75.869014557329024 -77.995938563253532 -23.257080296300899 #
End-of-ACIS-data 