500 0 9 0           
7 Unknown 11 ACIS 5.0 NT 24 Fri Mar 26 03:34:11 1999 
-1 9.9999999999999995e-007 1e-010 
body $-1 $9 $-1 $10 #
body $-1 $11 $-1 $12 #
body $-1 $13 $-1 $14 #
body $-1 $15 $-1 $16 #
body $-1 $17 $-1 $18 #
body $-1 $19 $-1 $20 #
body $-1 $21 $-1 $22 #
body $-1 $23 $-1 $24 #
body $-1 $25 $-1 $26 #
lump $-1 $-1 $27 $0 #
transform $-1 1 0 0 0 1 0 0 0 1 66.795251319925541 29.665759251948984 13.83825689230369 1 rotate no_reflect no_shear #
lump $-1 $-1 $28 $1 #
transform $-1 1 0 0 0 1 0 0 0 1 66.795251319925541 29.665759251948984 13.83825689230369 1 rotate no_reflect no_shear #
lump $-1 $-1 $29 $2 #
transform $-1 1 0 0 0 1 0 0 0 1 66.795251319925541 29.665759251948984 13.83825689230369 1 rotate no_reflect no_shear #
lump $-1 $-1 $30 $3 #
transform $-1 1 0 0 0 1 0 0 0 1 66.795251319925541 29.665759251948984 13.83825689230369 1 rotate no_reflect no_shear #
lump $-1 $-1 $31 $4 #
transform $-1 1 0 0 0 1 0 0 0 1 66.795251319925541 29.665759251948984 13.83825689230369 1 rotate no_reflect no_shear #
lump $-1 $-1 $32 $5 #
transform $-1 1 0 0 0 1 0 0 0 1 66.795251319925541 29.665759251948984 13.83825689230369 1 rotate no_reflect no_shear #
lump $-1 $-1 $33 $6 #
transform $-1 1 0 0 0 1 0 0 0 1 66.795251319925541 29.665759251948984 13.83825689230369 1 rotate no_reflect no_shear #
lump $-1 $-1 $34 $7 #
transform $-1 1 0 0 0 1 0 0 0 1 66.795251319925541 29.665759251948984 13.83825689230369 1 rotate no_reflect no_shear #
lump $-1 $-1 $35 $8 #
transform $-1 1 0 0 0 1 0 0 0 1 66.795251319925541 29.665759251948984 13.83825689230369 1 rotate no_reflect no_shear #
shell $-1 $-1 $-1 $36 $-1 $9 #
shell $-1 $-1 $-1 $37 $-1 $11 #
shell $-1 $-1 $-1 $38 $-1 $13 #
shell $-1 $-1 $-1 $39 $-1 $15 #
shell $-1 $-1 $-1 $40 $-1 $17 #
shell $-1 $-1 $-1 $41 $-1 $19 #
shell $-1 $-1 $-1 $42 $-1 $21 #
shell $-1 $-1 $-1 $43 $-1 $23 #
shell $-1 $-1 $-1 $44 $-1 $25 #
face $-1 $45 $46 $27 $-1 $47 forward single #
face $-1 $48 $49 $28 $-1 $50 forward single #
face $-1 $51 $52 $29 $-1 $53 forward single #
face $-1 $54 $55 $30 $-1 $56 reversed single #
face $-1 $57 $58 $31 $-1 $59 forward single #
face $-1 $60 $61 $32 $-1 $62 forward single #
face $-1 $63 $64 $33 $-1 $65 reversed single #
face $-1 $66 $67 $34 $-1 $68 forward single #
face $-1 $69 $70 $35 $-1 $71 forward single #
face $-1 $72 $73 $27 $-1 $74 reversed single #
loop $-1 $-1 $75 $36 #
plane-surface $-1 0 0 13.83825689230369 0 0 1 1 0 0 forward_v I I I I #
face $-1 $76 $77 $28 $-1 $78 forward single #
loop $-1 $-1 $79 $37 #
plane-surface $-1 -66.795251319925541 0 0 1 0 0 0 0 -1 forward_v I I I I #
face $-1 $80 $81 $29 $-1 $82 reversed single #
loop $-1 $-1 $83 $38 #
plane-surface $-1 66.795251319925541 0 0 -1 0 0 0 0 1 forward_v I I I I #
face $-1 $84 $85 $30 $-1 $86 reversed single #
loop $-1 $-1 $87 $39 #
plane-surface $-1 25.252863615484962 77.381938823569399 138.74971093908258 1 0 0 0 -0.68199836817093118 -0.7313536940579346 forward_v I I I I #
face $-1 $88 $89 $31 $-1 $90 forward single #
loop $-1 $91 $92 $40 #
cone-surface $-1 33.078176879847405 21.197617639880644 5.7512025862195548 0 -0.68199836817093118 -0.7313536940579346 2.5 0 0 1 I I 0 1 2.5 forward I I I I #
face $-1 $93 $94 $32 $-1 $95 forward single #
loop $-1 $96 $97 $41 #
cone-surface $-1 44.816146776391051 21.197617639880644 5.7512025862195548 0 -0.68199836817093118 -0.7313536940579346 2.5 0 0 1 I I 0 1 2.5 forward I I I I #
face $-1 $98 $99 $33 $-1 $100 reversed single #
loop $-1 $-1 $101 $42 #
plane-surface $-1 52.641460040753479 -120.77426405546187 98.285712138320747 -1 0 0 0 -0.68199836817093118 0.7313536940579346 forward_v I I I I #
face $-1 $102 $103 $34 $-1 $104 forward single #
loop $-1 $105 $106 $43 #
cone-surface $-1 33.078176879847405 -21.197617639880644 5.7512025862195584 0 0.68199836817093118 -0.7313536940579346 2.5 0 0 1 I I 0 1 2.5 forward I I I I #
face $-1 $107 $108 $35 $-1 $109 forward single #
loop $-1 $110 $111 $44 #
cone-surface $-1 44.816146776391051 -21.197617639880644 5.7512025862195584 0 0.68199836817093118 -0.7313536940579346 2.5 0 0 1 I I 0 1 2.5 forward I I I I #
face $-1 $112 $113 $27 $-1 $114 reversed single #
loop $-1 $-1 $115 $45 #
plane-surface $-1 0 0 -13.83825689230369 0 0 1 1 0 0 forward_v I I I I #
coedge $-1 $116 $117 $118 $119 forward $46 $-1 #
face $-1 $120 $121 $28 $-1 $122 reversed single #
loop $-1 $-1 $123 $48 #
plane-surface $-1 0 0 13.83825689230369 0 0 1 1 0 0 forward_v I I I I #
coedge $-1 $124 $125 $126 $127 forward $49 $-1 #
face $-1 $128 $129 $29 $-1 $130 reversed single #
loop $-1 $-1 $131 $51 #
plane-surface $-1 0 -29.665759251948984 0 0 1 0 0 0 1 forward_v I I I I #
coedge $-1 $132 $133 $134 $135 forward $52 $-1 #
face $-1 $136 $137 $30 $-1 $138 reversed single #
loop $-1 $-1 $139 $54 #
plane-surface $-1 38.947161828119221 -13.726565979943516 41.047803342371225 0 0.68199836817093118 0.7313536940579346 1 0 0 forward_v I I I I #
coedge $-1 $140 $141 $142 $143 reversed $55 $-1 #
face $-1 $-1 $144 $31 $-1 $145 forward single #
loop $-1 $146 $147 $57 #
cone-surface $-1 33.078176879847405 18.98380789432747 3.3771823379101384 0 -0.68199836817093118 -0.7313536940579346 1.25 0 0 1 I I -0.70710678118654746 0.70710678118654746 1.25 forward I I I I #
loop $-1 $-1 $148 $40 #
coedge $-1 $92 $92 $149 $150 reversed $58 $-1 #
face $-1 $-1 $151 $32 $-1 $152 forward single #
loop $-1 $153 $154 $60 #
cone-surface $-1 44.816146776391051 18.98380789432747 3.3771823379101384 0 -0.68199836817093118 -0.7313536940579346 1.25 0 0 1 I I -0.70710678118654746 0.70710678118654746 1.25 forward I I I I #
loop $-1 $-1 $155 $41 #
coedge $-1 $97 $97 $156 $157 reversed $61 $-1 #
face $-1 $158 $159 $33 $-1 $160 reversed single #
loop $-1 $-1 $161 $63 #
plane-surface $-1 38.947161828119221 -29.665759251948955 0.58380454160939621 0 -0.68199836817093118 0.7313536940579346 1 0 0 forward_v I I I I #
coedge $-1 $162 $163 $164 $165 reversed $64 $-1 #
face $-1 $-1 $166 $34 $-1 $167 forward single #
loop $-1 $168 $169 $66 #
cone-surface $-1 33.078176879847405 -18.98380789432747 3.377182337910142 0 0.68199836817093118 -0.7313536940579346 1.25 0 0 1 I I -0.70710678118654746 0.70710678118654746 1.25 forward I I I I #
loop $-1 $-1 $170 $43 #
coedge $-1 $106 $106 $171 $172 reversed $67 $-1 #
face $-1 $-1 $173 $35 $-1 $174 forward single #
loop $-1 $175 $176 $69 #
cone-surface $-1 44.816146776391051 -18.98380789432747 3.377182337910142 0 0.68199836817093118 -0.7313536940579346 1.25 0 0 1 I I -0.70710678118654746 0.70710678118654746 1.25 forward I I I I #
loop $-1 $-1 $177 $44 #
coedge $-1 $111 $111 $178 $179 reversed $70 $-1 #
face $-1 $180 $181 $27 $-1 $182 reversed single #
loop $-1 $-1 $183 $72 #
plane-surface $-1 0 -29.665759251948984 0 0 1 0 0 0 1 forward_v I I I I #
coedge $-1 $184 $185 $186 $187 forward $73 $-1 #
coedge $-1 $188 $75 $189 $190 forward $46 $-1 #
coedge $-1 $75 $188 $191 $192 forward $46 $-1 #
coedge $-1 $193 $194 $75 $119 reversed $195 $-1 #
edge $-1 $196 -29.665759251948984 $197 29.665759251948984 $118 $198 forward 7 unknown #
face $-1 $199 $200 $28 $-1 $201 reversed single #
loop $-1 $-1 $202 $76 #
plane-surface $-1 -80.949042599097595 -27.15095263808135 0 1 0 0 0 0 -1 forward_v I I I I #
coedge $-1 $203 $204 $124 $205 forward $77 $-1 #
coedge $-1 $206 $79 $123 $205 reversed $49 $-1 #
coedge $-1 $79 $206 $207 $208 reversed $49 $-1 #
coedge $-1 $209 $210 $79 $127 reversed $200 $-1 #
edge $-1 $211 -13.83825689230369 $212 13.83825689230369 $126 $213 forward 7 unknown #
face $-1 $214 $215 $29 $-1 $216 reversed single #
loop $-1 $-1 $217 $80 #
plane-surface $-1 0 0 -13.83825689230369 0 0 1 1 0 0 forward_v I I I I #
coedge $-1 $218 $219 $220 $221 forward $81 $-1 #
coedge $-1 $220 $83 $217 $222 reversed $52 $-1 #
coedge $-1 $83 $220 $223 $224 reversed $52 $-1 #
coedge $-1 $225 $226 $83 $135 reversed $215 $-1 #
edge $-1 $227 -13.83825689230369 $228 13.83825689230369 $134 $229 forward 7 unknown #
face $-1 $230 $231 $30 $-1 $232 reversed single #
loop $-1 $-1 $233 $84 #
plane-surface $-1 52.641460040753479 77.381938823569399 138.74971093908258 -1 0 0 0 0.68199836817093118 0.7313536940579346 forward_v I I I I #
coedge $-1 $234 $235 $236 $237 reversed $85 $-1 #
coedge $-1 $141 $87 $238 $239 reversed $55 $-1 #
coedge $-1 $87 $140 $234 $240 reversed $55 $-1 #
coedge $-1 $236 $241 $87 $143 forward $242 $-1 #
edge $-1 $243 9.0252101598357157 $244 23.238869813293416 $142 $245 forward 7 unknown #
loop $-1 $-1 $149 $88 #
plane-surface $-1 38.947161828119221 -13.726565979943516 41.047803342371225 0 0.68199836817093118 0.7313536940579346 1 0 0 forward_v I I I I #
loop $-1 $-1 $246 $57 #
coedge $-1 $147 $147 $148 $247 reversed $89 $-1 #
coedge $-1 $148 $148 $147 $247 forward $91 $-1 #
coedge $-1 $149 $149 $92 $150 forward $144 $-1 #
edge $-1 $248 6.6312331251304087e-016 $248 6.2831853071796013 $149 $249 forward 7 unknown #
loop $-1 $-1 $156 $93 #
plane-surface $-1 38.947161828119221 -13.726565979943516 41.047803342371225 0 0.68199836817093118 0.7313536940579346 1 0 0 forward_v I I I I #
loop $-1 $-1 $250 $60 #
coedge $-1 $154 $154 $155 $251 reversed $94 $-1 #
coedge $-1 $155 $155 $154 $251 forward $96 $-1 #
coedge $-1 $156 $156 $97 $157 forward $151 $-1 #
edge $-1 $252 6.6312331251304087e-016 $252 6.2831853071796013 $156 $253 forward 7 unknown #
face $-1 $254 $255 $33 $-1 $256 forward single #
loop $-1 $-1 $257 $98 #
plane-surface $-1 25.252863615484962 -120.77426405546187 98.285712138320747 1 0 0 0 0.68199836817093118 -0.7313536940579346 forward_v I I I I #
coedge $-1 $258 $259 $260 $261 reversed $99 $-1 #
coedge $-1 $163 $101 $262 $263 reversed $64 $-1 #
coedge $-1 $101 $162 $258 $264 reversed $64 $-1 #
coedge $-1 $260 $265 $101 $165 forward $255 $-1 #
edge $-1 $266 30.721372775781951 $267 44.935032429239669 $164 $268 forward 7 unknown #
loop $-1 $-1 $171 $102 #
plane-surface $-1 38.947161828119221 -29.665759251948955 0.58380454160939621 0 -0.68199836817093118 0.7313536940579346 1 0 0 forward_v I I I I #
loop $-1 $-1 $269 $66 #
coedge $-1 $169 $169 $170 $270 reversed $103 $-1 #
coedge $-1 $170 $170 $169 $270 forward $105 $-1 #
coedge $-1 $171 $171 $106 $172 forward $166 $-1 #
edge $-1 $271 -3.1881059932927416e-016 $271 6.2831853071796004 $171 $272 forward 7 unknown #
loop $-1 $-1 $178 $107 #
plane-surface $-1 38.947161828119221 -29.665759251948955 0.58380454160939621 0 -0.68199836817093118 0.7313536940579346 1 0 0 forward_v I I I I #
loop $-1 $-1 $273 $69 #
coedge $-1 $176 $176 $177 $274 reversed $108 $-1 #
coedge $-1 $177 $177 $176 $274 forward $110 $-1 #
coedge $-1 $178 $178 $111 $179 forward $173 $-1 #
edge $-1 $275 -3.1881059932927416e-016 $275 6.2831853071796004 $178 $276 forward 7 unknown #
face $-1 $277 $278 $27 $-1 $279 reversed single #
loop $-1 $-1 $280 $112 #
plane-surface $-1 -66.795251319925541 0 0 1 0 0 0 0 -1 forward_v I I I I #
coedge $-1 $281 $191 $282 $283 forward $113 $-1 #
coedge $-1 $284 $115 $281 $285 forward $73 $-1 #
coedge $-1 $115 $284 $286 $287 forward $73 $-1 #
coedge $-1 $194 $193 $115 $187 reversed $195 $-1 #
edge $-1 $288 -29.665759251948984 $289 29.665759251948984 $186 $290 forward 7 unknown #
coedge $-1 $117 $116 $291 $292 forward $46 $-1 #
coedge $-1 $293 $294 $116 $190 reversed $278 $-1 #
edge $-1 $197 -66.795251319925541 $295 66.795251319925541 $189 $296 forward 7 unknown #
coedge $-1 $183 $297 $117 $192 reversed $113 $-1 #
edge $-1 $298 -66.795251319925541 $196 66.795251319925541 $191 $299 forward 7 unknown #
coedge $-1 $186 $118 $297 $300 forward $195 $-1 #
coedge $-1 $118 $186 $293 $301 reversed $195 $-1 #
loop $-1 $-1 $193 $277 #
vertex $-1 $119 $302 #
vertex $-1 $119 $303 #
straight-curve $-1 66.795251319925541 0 13.83825689230369 0 1 0 I I #
face $-1 $304 $305 $28 $-1 $306 reversed single #
loop $-1 $-1 $126 $120 #
plane-surface $-1 -73.872146959511568 -24.636146024213716 0 0 -1 0 0 0 -1 forward_v I I I I #
coedge $-1 $307 $308 $309 $310 forward $121 $-1 #
coedge $-1 $311 $123 $210 $312 forward $77 $-1 #
coedge $-1 $123 $311 $313 $314 forward $77 $-1 #
edge $-1 $315 -29.665759251948984 $212 -24.636146024213716 $123 $316 forward 7 unknown #
coedge $-1 $125 $124 $317 $318 reversed $49 $-1 #
coedge $-1 $319 $320 $125 $208 forward $305 $-1 #
edge $-1 $211 24.636146024213716 $321 29.665759251948984 $207 $322 forward 7 unknown #
coedge $-1 $309 $126 $320 $323 reversed $200 $-1 #
coedge $-1 $126 $309 $203 $312 reversed $200 $-1 #
vertex $-1 $208 $324 #
vertex $-1 $312 $325 #
straight-curve $-1 -66.795251319925541 -24.636146024213716 0 0 0 1 I I #
face $-1 $326 $327 $29 $-1 $328 reversed single #
loop $-1 $-1 $329 $128 #
plane-surface $-1 73.872146959511582 -24.636146024213716 0 0 -1 0 0 0 -1 forward_v I I I I #
coedge $-1 $330 $331 $132 $222 forward $129 $-1 #
coedge $-1 $332 $131 $331 $333 reversed $81 $-1 #
coedge $-1 $131 $332 $334 $335 reversed $81 $-1 #
coedge $-1 $133 $132 $131 $221 reversed $52 $-1 #
edge $-1 $336 -13.83825689230369 $337 13.83825689230369 $131 $338 forward 7 unknown #
edge $-1 $337 -29.665759251948984 $228 -24.636146024213716 $217 $339 forward 7 unknown #
coedge $-1 $334 $340 $133 $224 forward $341 $-1 #
edge $-1 $227 24.636146024213716 $336 29.665759251948984 $223 $342 forward 7 unknown #
coedge $-1 $329 $134 $340 $343 reversed $215 $-1 #
coedge $-1 $134 $329 $330 $344 reversed $215 $-1 #
vertex $-1 $224 $345 #
vertex $-1 $344 $346 #
straight-curve $-1 66.795251319925541 -24.636146024213716 0 0 0 -1 I I #
face $-1 $-1 $242 $30 $-1 $347 forward single #
loop $-1 $-1 $348 $136 #
plane-surface $-1 0 29.665759251948984 0 0 -1 0 0 0 -1 forward_v I I I I #
coedge $-1 $349 $350 $351 $352 reversed $137 $-1 #
coedge $-1 $353 $139 $141 $240 forward $85 $-1 #
coedge $-1 $139 $353 $349 $354 forward $85 $-1 #
coedge $-1 $351 $142 $139 $237 forward $242 $-1 #
edge $-1 $244 5.7792827014253518 $355 33.167879126693869 $236 $356 forward 7 unknown #
coedge $-1 $357 $358 $140 $239 forward $231 $-1 #
edge $-1 $359 -68.791050927931906 $243 -55.536598577237598 $238 $360 forward 7 unknown #
edge $-1 $244 39.896791136086605 $359 59.331518503897996 $141 $361 forward 7 unknown #
coedge $-1 $142 $351 $357 $362 forward $242 $-1 #
loop $-1 $-1 $351 $230 #
vertex $-1 $239 $363 #
vertex $-1 $143 $364 #
straight-curve $-1 25.252863615484962 38.6909694117847 13.83825689230369 0 -1 0 I I #
coedge $-1 $246 $246 $-1 $365 reversed $146 $-1 #
edge $-1 $366 0 $366 6.2831853071796004 $147 $367 forward 7 unknown #
vertex $-1 $150 $368 #
ellipse-curve $-1 33.078176879847405 22.558929425220136 7.2110307169565324 0 0.68199836817093118 0.7313536940579346 2.5 0 0 1 I I #
coedge $-1 $250 $250 $-1 $369 reversed $153 $-1 #
edge $-1 $370 0 $370 6.2831853071796004 $154 $371 forward 7 unknown #
vertex $-1 $157 $372 #
ellipse-curve $-1 44.816146776391051 22.558929425220136 7.2110307169565324 0 0.68199836817093118 0.7313536940579346 2.5 0 0 1 I I #
face $-1 $-1 $373 $33 $-1 $374 reversed single #
loop $-1 $-1 $164 $158 #
plane-surface $-1 0 0 13.83825689230369 0 0 1 1 0 0 forward_v I I I I #
coedge $-1 $375 $376 $377 $378 reversed $159 $-1 #
coedge $-1 $379 $161 $163 $264 forward $99 $-1 #
coedge $-1 $161 $379 $375 $380 forward $99 $-1 #
coedge $-1 $377 $164 $161 $261 forward $255 $-1 #
edge $-1 $267 -33.167879126693869 $381 -5.7792827014253518 $260 $382 forward 7 unknown #
coedge $-1 $383 $384 $162 $263 forward $373 $-1 #
edge $-1 $385 -48.559051527551006 $266 -35.304599176856684 $262 $386 forward 7 unknown #
edge $-1 $267 -19.434727367811377 $385 3.8882692140660843e-014 $163 $387 forward 7 unknown #
coedge $-1 $164 $377 $383 $388 forward $255 $-1 #
vertex $-1 $165 $389 #
vertex $-1 $165 $390 #
straight-curve $-1 52.641460040753479 -60.387132027730935 13.83825689230369 0 1 0 I I #
coedge $-1 $269 $269 $-1 $391 reversed $168 $-1 #
edge $-1 $392 0 $392 6.2831853071796004 $169 $393 forward 7 unknown #
vertex $-1 $172 $394 #
ellipse-curve $-1 33.078176879847405 -22.558929425220128 7.2110307169565271 0 -0.68199836817093118 0.7313536940579346 2.5 0 0 1 I I #
coedge $-1 $273 $273 $-1 $395 reversed $175 $-1 #
edge $-1 $396 0 $396 6.2831853071796004 $176 $397 forward 7 unknown #
vertex $-1 $179 $398 #
ellipse-curve $-1 44.816146776391051 -22.558929425220128 7.2110307169565271 0 -0.68199836817093118 0.7313536940579346 2.5 0 0 1 I I #
face $-1 $-1 $195 $27 $-1 $399 reversed single #
loop $-1 $-1 $293 $180 #
plane-surface $-1 0 29.665759251948984 0 0 -1 0 0 0 -1 forward_v I I I I #
coedge $-1 $400 $291 $294 $401 forward $181 $-1 #
coedge $-1 $297 $183 $184 $285 reversed $113 $-1 #
coedge $-1 $291 $400 $183 $283 reversed $181 $-1 #
edge $-1 $298 -13.83825689230369 $402 13.83825689230369 $282 $403 forward 7 unknown #
coedge $-1 $185 $184 $400 $404 forward $73 $-1 #
edge $-1 $289 -66.795251319925541 $402 66.795251319925541 $281 $405 forward 7 unknown #
coedge $-1 $294 $293 $185 $287 reversed $278 $-1 #
edge $-1 $406 -66.795251319925541 $288 66.795251319925541 $286 $407 forward 7 unknown #
vertex $-1 $187 $408 #
vertex $-1 $300 $409 #
straight-curve $-1 66.795251319925541 0 -13.83825689230369 0 -1 0 I I #
coedge $-1 $280 $282 $188 $292 reversed $181 $-1 #
edge $-1 $295 -29.665759251948984 $298 29.665759251948984 $291 $410 forward 7 unknown #
coedge $-1 $286 $189 $194 $301 forward $278 $-1 #
coedge $-1 $189 $286 $280 $401 reversed $278 $-1 #
vertex $-1 $190 $411 #
straight-curve $-1 0 29.665759251948984 13.83825689230369 -1 0 0 I I #
coedge $-1 $191 $281 $193 $300 reversed $113 $-1 #
vertex $-1 $292 $412 #
straight-curve $-1 0 -29.665759251948984 13.83825689230369 1 0 0 I I #
edge $-1 $196 -13.83825689230369 $289 13.83825689230369 $193 $413 forward 7 unknown #
edge $-1 $197 -13.83825689230369 $288 13.83825689230369 $194 $414 forward 7 unknown #
point $-1 66.795251319925541 -29.665759251948984 13.83825689230369 #
point $-1 66.795251319925541 29.665759251948984 13.83825689230369 #
face $-1 $-1 $415 $28 $-1 $416 reversed single #
loop $-1 $-1 $207 $199 #
plane-surface $-1 0 0 -13.83825689230369 0 0 1 1 0 0 forward_v I I I I #
coedge $-1 $417 $202 $418 $419 reversed $121 $-1 #
coedge $-1 $202 $417 $311 $420 reversed $121 $-1 #
coedge $-1 $210 $209 $202 $310 reversed $200 $-1 #
edge $-1 $421 -13.83825689230369 $422 13.83825689230369 $309 $423 forward 7 unknown #
coedge $-1 $204 $203 $308 $420 forward $77 $-1 #
edge $-1 $212 -7.0768956395860272 $421 7.0768956395860272 $210 $424 forward 7 unknown #
coedge $-1 $425 $317 $204 $314 reversed $415 $-1 #
edge $-1 $426 -80.949042599097595 $315 -66.795251319925541 $313 $427 forward 7 unknown #
vertex $-1 $318 $428 #
straight-curve $-1 -66.795251319925541 0 13.83825689230369 0 1 0 I I #
coedge $-1 $313 $429 $206 $318 forward $415 $-1 #
edge $-1 $321 -13.83825689230369 $315 13.83825689230369 $317 $430 forward 7 unknown #
coedge $-1 $418 $207 $429 $431 forward $305 $-1 #
coedge $-1 $207 $418 $209 $323 forward $305 $-1 #
vertex $-1 $431 $432 #
straight-curve $-1 -66.795251319925541 0 -13.83825689230369 0 -1 0 I I #
edge $-1 $422 -7.0768956395860272 $211 7.0768956395860272 $209 $433 forward 7 unknown #
point $-1 -66.795251319925541 -24.636146024213716 -13.83825689230369 #
point $-1 -66.795251319925541 -24.636146024213716 13.83825689230369 #
face $-1 $-1 $341 $29 $-1 $434 forward single #
loop $-1 $-1 $435 $214 #
plane-surface $-1 80.949042599097609 -27.15095263808135 0 -1 0 0 0 0 1 forward_v I I I I #
coedge $-1 $226 $225 $436 $437 forward $215 $-1 #
coedge $-1 $438 $217 $226 $344 forward $129 $-1 #
coedge $-1 $217 $438 $218 $333 forward $129 $-1 #
coedge $-1 $219 $218 $435 $439 reversed $81 $-1 #
edge $-1 $440 -7.0768956395860272 $337 7.0768956395860414 $218 $441 forward 7 unknown #
coedge $-1 $442 $223 $219 $335 forward $341 $-1 #
edge $-1 $336 -7.0768956395860414 $443 7.0768956395860272 $219 $444 forward 7 unknown #
vertex $-1 $335 $445 #
vertex $-1 $222 $446 #
straight-curve $-1 66.795251319925541 -29.665759251948984 0 0 0 -1 I I #
straight-curve $-1 66.795251319925541 0 -13.83825689230369 0 1 0 I I #
coedge $-1 $223 $442 $225 $343 forward $341 $-1 #
loop $-1 $-1 $223 $326 #
straight-curve $-1 66.795251319925541 0 13.83825689230369 0 -1 0 I I #
edge $-1 $447 -7.0768956395860272 $227 7.0768956395860272 $225 $448 forward 7 unknown #
edge $-1 $228 -7.0768956395860272 $449 7.0768956395860272 $226 $450 forward 7 unknown #
point $-1 66.795251319925555 -24.636146024213716 13.83825689230369 #
point $-1 66.795251319925555 -24.636146024213716 -13.83825689230369 #
plane-surface $-1 0 0 13.83825689230369 0 0 1 1 0 0 forward_v I I I I #
coedge $-1 $358 $357 $350 $451 forward $231 $-1 #
coedge $-1 $350 $233 $235 $354 reversed $137 $-1 #
coedge $-1 $233 $349 $348 $451 reversed $137 $-1 #
coedge $-1 $241 $236 $233 $352 forward $242 $-1 #
edge $-1 $355 -23.238869813293416 $452 -9.0252101598357157 $351 $453 forward 7 unknown #
coedge $-1 $235 $234 $358 $454 reversed $85 $-1 #
edge $-1 $455 -59.331518503897996 $355 -39.896791136086605 $349 $456 forward 7 unknown #
vertex $-1 $237 $457 #
straight-curve $-1 19.47358091405961 15.452099598491278 13.83825689230369 1 0 0 I I #
coedge $-1 $348 $238 $241 $362 reversed $231 $-1 #
coedge $-1 $238 $348 $353 $454 forward $231 $-1 #
vertex $-1 $239 $458 #
straight-curve $-1 25.252863615484962 29.665759251948984 69.374855469541288 0 0 1 I I #
straight-curve $-1 25.252863615484962 -13.726565979943516 41.047803342371225 0 0.7313536940579346 -0.68199836817093118 I I #
edge $-1 $452 -52.641460040753479 $243 -25.252863615484962 $357 $459 forward 7 unknown #
point $-1 25.252863615484962 29.665759251948984 13.83825689230369 #
point $-1 25.252863615484962 15.452099598491284 13.83825689230369 #
edge $-1 $460 1 $460 0 $246 $-1 forward 7 unknown #
vertex $-1 $247 $461 #
ellipse-curve $-1 33.078176879847405 19.836305854541134 4.2913744554825568 0 0.68199836817093118 0.7313536940579346 2.5 0 0 1 I I #
point $-1 35.578176879847405 22.558929425220157 7.2110307169565528 #
edge $-1 $462 1 $462 0 $250 $-1 forward 7 unknown #
vertex $-1 $251 $463 #
ellipse-curve $-1 44.816146776391051 19.836305854541134 4.2913744554825568 0 0.68199836817093118 0.7313536940579346 2.5 0 0 1 I I #
point $-1 47.316146776391051 22.558929425220157 7.2110307169565528 #
loop $-1 $-1 $262 $254 #
plane-surface $-1 0 -29.665759251948984 0 0 1 0 0 0 1 forward_v I I I I #
coedge $-1 $376 $257 $259 $380 reversed $159 $-1 #
coedge $-1 $257 $375 $464 $465 reversed $159 $-1 #
coedge $-1 $265 $260 $257 $378 forward $255 $-1 #
edge $-1 $381 -44.935032429239669 $466 -30.721372775781951 $377 $467 forward 7 unknown #
coedge $-1 $259 $258 $384 $468 reversed $99 $-1 #
edge $-1 $469 -3.8882692140660843e-014 $381 19.434727367811377 $375 $470 forward 7 unknown #
vertex $-1 $261 $471 #
straight-curve $-1 19.47358091405961 -15.452099598491269 13.83825689230369 -1 0 0 I I #
coedge $-1 $464 $262 $265 $388 reversed $373 $-1 #
coedge $-1 $262 $464 $379 $468 forward $373 $-1 #
vertex $-1 $263 $472 #
straight-curve $-1 52.641460040753479 -29.665759251948984 49.142856069160374 0 0 1 I I #
straight-curve $-1 52.641460040753479 -29.665759251948955 0.58380454160939621 0 -0.7313536940579346 -0.68199836817093118 I I #
edge $-1 $466 -48.61928334402662 $266 -21.230686918758103 $383 $473 forward 7 unknown #
point $-1 52.641460040753479 -29.665759251948984 13.83825689230369 #
point $-1 52.641460040753479 -15.452099598491268 13.83825689230369 #
edge $-1 $474 1 $474 0 $269 $-1 forward 7 unknown #
vertex $-1 $270 $475 #
ellipse-curve $-1 33.078176879847405 -19.836305854541134 4.2913744554825604 0 -0.68199836817093118 0.7313536940579346 2.5 0 0 1 I I #
point $-1 35.578176879847405 -22.558929425220157 7.2110307169565564 #
edge $-1 $476 1 $476 0 $273 $-1 forward 7 unknown #
vertex $-1 $274 $477 #
ellipse-curve $-1 44.816146776391051 -19.836305854541134 4.2913744554825604 0 -0.68199836817093118 0.7313536940579346 2.5 0 0 1 I I #
point $-1 47.316146776391051 -22.558929425220157 7.2110307169565564 #
plane-surface $-1 66.795251319925541 0 0 -1 0 0 0 0 1 forward_v I I I I #
coedge $-1 $282 $280 $284 $404 reversed $181 $-1 #
edge $-1 $295 -13.83825689230369 $406 13.83825689230369 $294 $478 forward 7 unknown #
vertex $-1 $404 $479 #
straight-curve $-1 -66.795251319925541 -29.665759251948984 0 0 0 -1 I I #
edge $-1 $402 -29.665759251948984 $406 29.665759251948984 $400 $480 forward 7 unknown #
straight-curve $-1 0 -29.665759251948984 -13.83825689230369 -1 0 0 I I #
vertex $-1 $287 $481 #
straight-curve $-1 0 29.665759251948984 -13.83825689230369 1 0 0 I I #
point $-1 66.795251319925541 29.665759251948984 -13.83825689230369 #
point $-1 66.795251319925541 -29.665759251948984 -13.83825689230369 #
straight-curve $-1 -66.795251319925541 0 13.83825689230369 0 -1 0 I I #
point $-1 -66.795251319925541 29.665759251948984 13.83825689230369 #
point $-1 -66.795251319925541 -29.665759251948984 13.83825689230369 #
straight-curve $-1 66.795251319925541 -29.665759251948984 0 0 0 -1 I I #
straight-curve $-1 66.795251319925541 29.665759251948984 0 0 0 -1 I I #
loop $-1 $-1 $317 $304 #
plane-surface $-1 0 -29.665759251948984 0 0 1 0 0 0 1 forward_v I I I I #
coedge $-1 $308 $307 $425 $482 reversed $121 $-1 #
coedge $-1 $320 $319 $307 $419 forward $305 $-1 #
edge $-1 $483 -2.5148066138676342 $422 2.5148066138676342 $307 $484 forward 7 unknown #
edge $-1 $421 -2.5148066138676342 $426 2.5148066138676342 $308 $485 forward 7 unknown #
vertex $-1 $312 $486 #
vertex $-1 $323 $487 #
straight-curve $-1 -80.949042599097595 -24.636146024213716 0 0 0 -1 I I #
straight-curve $-1 -73.872146959511568 -24.636146024213716 13.83825689230369 -1 0 0 I I #
coedge $-1 $429 $313 $417 $482 forward $415 $-1 #
vertex $-1 $420 $488 #
straight-curve $-1 0 -29.665759251948984 13.83825689230369 1 0 0 I I #
point $-1 -66.795251319925541 -29.665759251948984 13.83825689230369 #
coedge $-1 $317 $425 $319 $431 reversed $415 $-1 #
straight-curve $-1 -66.795251319925541 -29.665759251948984 0 0 0 1 I I #
edge $-1 $321 -7.0768956395860272 $483 7.0768956395860272 $429 $489 forward 7 unknown #
point $-1 -66.795251319925541 -29.665759251948984 -13.83825689230369 #
straight-curve $-1 -73.872146959511568 -24.636146024213716 -13.83825689230369 1 0 0 I I #
plane-surface $-1 0 0 13.83825689230369 0 0 1 1 0 0 forward_v I I I I #
coedge $-1 $490 $491 $332 $439 forward $327 $-1 #
coedge $-1 $491 $490 $329 $437 reversed $327 $-1 #
edge $-1 $447 -13.83825689230369 $449 13.83825689230369 $436 $492 forward 7 unknown #
coedge $-1 $331 $330 $490 $493 forward $129 $-1 #
edge $-1 $443 -13.83825689230369 $440 13.83825689230369 $435 $494 forward 7 unknown #
vertex $-1 $439 $495 #
straight-curve $-1 73.872146959511582 -29.665759251948984 -13.83825689230369 -1 0 0 I I #
coedge $-1 $340 $334 $491 $496 forward $341 $-1 #
vertex $-1 $496 $497 #
straight-curve $-1 73.872146959511582 -29.665759251948984 13.83825689230369 1 0 0 I I #
point $-1 66.795251319925541 -29.665759251948984 13.83825689230369 #
point $-1 66.795251319925541 -29.665759251948984 -13.83825689230369 #
vertex $-1 $496 $498 #
straight-curve $-1 73.872146959511582 -24.636146024213716 13.83825689230369 -1 0 0 I I #
vertex $-1 $493 $499 #
straight-curve $-1 73.872146959511582 -24.636146024213716 -13.83825689230369 1 0 0 I I #
edge $-1 $452 55.536598577237598 $455 68.791050927931906 $348 $500 forward 7 unknown #
vertex $-1 $362 $501 #
straight-curve $-1 52.641460040753479 38.6909694117847 13.83825689230369 0 1 0 I I #
edge $-1 $455 -33.167879126693869 $359 -5.7792827014253518 $358 $502 forward 7 unknown #
vertex $-1 $454 $503 #
straight-curve $-1 52.641460040753479 -13.726565979943516 41.047803342371225 0 -0.7313536940579346 0.68199836817093118 I I #
point $-1 52.641460040753479 15.452099598491284 13.83825689230369 #
point $-1 25.252863615484962 29.665759251948984 0.583804541609382 #
straight-curve $-1 0 29.665759251948984 13.83825689230369 -1 0 0 I I #
vertex $-1 $365 $504 #
point $-1 35.578176879847405 19.836305854541134 4.2913744554825568 #
vertex $-1 $369 $505 #
point $-1 47.316146776391051 19.836305854541134 4.2913744554825568 #
coedge $-1 $384 $383 $376 $465 forward $373 $-1 #
edge $-1 $466 35.304599176856684 $469 48.559051527551006 $464 $506 forward 7 unknown #
vertex $-1 $388 $507 #
straight-curve $-1 25.252863615484962 -60.387132027730935 13.83825689230369 0 -1 0 I I #
edge $-1 $469 5.7792827014253518 $385 33.167879126693869 $384 $508 forward 7 unknown #
vertex $-1 $468 $509 #
straight-curve $-1 25.252863615484962 -29.665759251948955 0.58380454160939621 0 0.7313536940579346 0.68199836817093118 I I #
point $-1 25.252863615484962 -15.452099598491268 13.83825689230369 #
point $-1 52.641460040753479 -29.665759251948984 0.58380454160936968 #
straight-curve $-1 73.872146959511582 -29.665759251948984 13.83825689230369 1 0 0 I I #
vertex $-1 $391 $510 #
point $-1 35.578176879847405 -19.836305854541134 4.2913744554825604 #
vertex $-1 $395 $511 #
point $-1 47.316146776391051 -19.836305854541134 4.2913744554825604 #
straight-curve $-1 -66.795251319925541 29.665759251948984 0 0 0 -1 I I #
point $-1 -66.795251319925541 -29.665759251948984 -13.83825689230369 #
straight-curve $-1 -66.795251319925541 0 -13.83825689230369 0 1 0 I I #
point $-1 -66.795251319925541 29.665759251948984 -13.83825689230369 #
edge $-1 $426 -13.83825689230369 $483 13.83825689230369 $417 $512 forward 7 unknown #
vertex $-1 $419 $513 #
straight-curve $-1 -80.949042599097595 -27.15095263808135 -13.83825689230369 0 1 0 I I #
straight-curve $-1 -80.949042599097595 -27.15095263808135 13.83825689230369 0 -1 0 I I #
point $-1 -80.949042599097595 -24.636146024213716 13.83825689230369 #
point $-1 -80.949042599097595 -24.636146024213716 -13.83825689230369 #
point $-1 -80.949042599097595 -29.665759251948984 13.83825689230369 #
straight-curve $-1 -73.872146959511568 -29.665759251948984 -13.83825689230369 -1 0 0 I I #
coedge $-1 $436 $435 $438 $493 reversed $327 $-1 #
coedge $-1 $435 $436 $442 $496 reversed $327 $-1 #
straight-curve $-1 80.949042599097609 -24.636146024213716 0 0 0 -1 I I #
edge $-1 $449 -2.5148066138676342 $440 2.5148066138676342 $490 $514 forward 7 unknown #
straight-curve $-1 80.949042599097609 -29.665759251948984 0 0 0 -1 I I #
point $-1 80.949042599097609 -29.665759251948984 -13.83825689230369 #
edge $-1 $443 -2.5148066138676342 $447 2.5148066138676342 $491 $515 forward 7 unknown #
point $-1 80.949042599097609 -29.665759251948984 13.83825689230369 #
point $-1 80.949042599097609 -24.636146024213716 13.83825689230369 #
point $-1 80.949042599097609 -24.636146024213716 -13.83825689230369 #
straight-curve $-1 52.641460040753479 29.665759251948984 69.374855469541288 0 0 -1 I I #
point $-1 52.641460040753479 29.665759251948984 13.83825689230369 #
straight-curve $-1 19.47358091405961 29.66575925194898 0.58380454160938555 -1 0 0 I I #
point $-1 52.641460040753479 29.665759251948984 0.583804541609382 #
point $-1 33.078176879847405 18.131309934113805 2.4629902203377201 #
point $-1 44.816146776391051 18.131309934113805 2.4629902203377201 #
straight-curve $-1 25.252863615484962 -29.665759251948984 49.142856069160374 0 0 -1 I I #
point $-1 25.252863615484962 -29.665759251948984 13.83825689230369 #
straight-curve $-1 19.47358091405961 -29.665759251948984 0.5838045416093709 1 0 0 I I #
point $-1 25.252863615484962 -29.665759251948984 0.58380454160936968 #
point $-1 33.078176879847405 -18.131309934113805 2.4629902203377236 #
point $-1 44.816146776391051 -18.131309934113805 2.4629902203377236 #
straight-curve $-1 -80.949042599097595 -29.665759251948984 0 0 0 -1 I I #
point $-1 -80.949042599097595 -29.665759251948984 -13.83825689230369 #
straight-curve $-1 80.949042599097609 -27.15095263808135 -13.83825689230369 0 -1 0 I I #
straight-curve $-1 80.949042599097609 -27.15095263808135 13.83825689230369 0 1 0 I I #
End-of-ACIS-data 