500 0 6 0           
7 Unknown 11 ACIS 5.0 NT 24 Thu Mar 25 22:14:56 1999 
-1 9.9999999999999995e-007 1e-010 
body $-1 $6 $-1 $7 #
body $-1 $8 $-1 $9 #
body $-1 $10 $-1 $11 #
body $-1 $12 $-1 $13 #
body $-1 $14 $-1 $15 #
body $-1 $16 $-1 $17 #
lump $-1 $-1 $18 $0 #
transform $-1 1 0 0 0 1 0 0 0 1 59.974974822229683 35.43551477273985 11.841001065131396 1 rotate no_reflect no_shear #
lump $-1 $-1 $19 $1 #
transform $-1 1 0 0 0 1 0 0 0 1 59.974974822229683 35.43551477273985 11.841001065131396 1 rotate no_reflect no_shear #
lump $-1 $-1 $20 $2 #
transform $-1 1 0 0 0 1 0 0 0 1 59.974974822229683 35.43551477273985 11.841001065131396 1 rotate no_reflect no_shear #
lump $-1 $-1 $21 $3 #
transform $-1 1 0 0 0 1 0 0 0 1 59.974974822229683 35.43551477273985 11.841001065131396 1 rotate no_reflect no_shear #
lump $-1 $-1 $22 $4 #
transform $-1 1 0 0 0 1 0 0 0 1 59.974974822229683 35.43551477273985 11.841001065131396 1 rotate no_reflect no_shear #
lump $-1 $-1 $23 $5 #
transform $-1 1 0 0 0 1 0 0 0 1 59.974974822229683 35.43551477273985 11.841001065131396 1 rotate no_reflect no_shear #
shell $-1 $-1 $-1 $24 $-1 $6 #
shell $-1 $-1 $-1 $25 $-1 $8 #
shell $-1 $-1 $-1 $26 $-1 $10 #
shell $-1 $-1 $-1 $27 $-1 $12 #
shell $-1 $-1 $-1 $28 $-1 $14 #
shell $-1 $-1 $-1 $29 $-1 $16 #
face $-1 $30 $31 $18 $-1 $32 forward single #
face $-1 $33 $34 $19 $-1 $35 reversed single #
face $-1 $36 $37 $20 $-1 $38 reversed single #
face $-1 $39 $40 $21 $-1 $41 forward single #
face $-1 $42 $43 $22 $-1 $44 reversed single #
face $-1 $45 $46 $23 $-1 $47 forward single #
face $-1 $48 $49 $18 $-1 $50 reversed single #
loop $-1 $-1 $51 $24 #
plane-surface $-1 0 0 11.841001065131396 0 0 1 1 0 0 forward_v I I I I #
face $-1 $52 $53 $19 $-1 $54 reversed single #
loop $-1 $-1 $55 $25 #
plane-surface $-1 -52.376475754983552 -16.073318131364644 0 0 1 0 0 0 1 forward_v I I I I #
face $-1 $56 $57 $20 $-1 $58 reversed single #
loop $-1 $-1 $59 $26 #
plane-surface $-1 -16.129561380682517 -97.214306744984356 109.97912151775934 -1 0 0 0 -0.51503808176128008 0.85716729658548041 forward_v I I I I #
face $-1 $60 $61 $21 $-1 $62 forward single #
loop $-1 $63 $64 $27 #
cone-surface $-1 -30.453769034209969 -29.631121777762523 6.3214246603255333 0 0.51503808176128008 -0.85716729658548041 2 0 0 1 I I 0 1 2 forward I I I I #
face $-1 $65 $66 $22 $-1 $67 reversed single #
loop $-1 $-1 $68 $28 #
plane-surface $-1 -44.777976687737421 36.465977943255808 146.48040062731022 1 0 0 0 -0.51503808176128008 -0.85716729658548041 forward_v I I I I #
face $-1 $69 $70 $23 $-1 $71 forward single #
loop $-1 $72 $73 $29 #
cone-surface $-1 -30.453769034209969 29.631121777762516 6.3214246603255333 0 -0.51503808176128008 -0.85716729658548041 2 0 0 1 I I 0 1 2 forward I I I I #
face $-1 $74 $75 $18 $-1 $76 reversed single #
loop $-1 $-1 $77 $30 #
plane-surface $-1 0 0 -11.841001065131396 0 0 1 1 0 0 forward_v I I I I #
coedge $-1 $78 $79 $80 $81 forward $31 $-1 #
face $-1 $82 $83 $19 $-1 $84 reversed single #
loop $-1 $-1 $85 $33 #
plane-surface $-1 -52.376475754983552 -13.073318131364644 0 0 -1 0 0 0 -1 forward_v I I I I #
coedge $-1 $86 $87 $88 $89 reversed $34 $-1 #
face $-1 $90 $91 $20 $-1 $92 reversed single #
loop $-1 $-1 $93 $36 #
plane-surface $-1 -30.453769034209969 -35.435514772739864 7.1619474554535998 0 -0.51503808176128008 0.85716729658548041 1 0 0 forward_v I I I I #
coedge $-1 $94 $95 $96 $97 reversed $37 $-1 #
face $-1 $-1 $98 $21 $-1 $99 forward single #
loop $-1 $100 $101 $39 #
cone-surface $-1 -30.453769034209969 -27.205317090232384 2.2842077637730949 0 0.51503808176128008 -0.85716729658548041 1 0 0 1 I I -0.70710678118654746 0.70710678118654746 1 forward I I I I #
loop $-1 $-1 $102 $27 #
coedge $-1 $64 $64 $103 $104 reversed $40 $-1 #
face $-1 $105 $106 $22 $-1 $107 reversed single #
loop $-1 $-1 $108 $42 #
plane-surface $-1 -30.453769034209969 -25.312814028988683 43.663226565004479 0 0.51503808176128008 0.85716729658548041 1 0 0 forward_v I I I I #
coedge $-1 $109 $110 $111 $112 reversed $43 $-1 #
face $-1 $-1 $113 $23 $-1 $114 forward single #
loop $-1 $115 $116 $45 #
cone-surface $-1 -30.453769034209969 27.205317090232377 2.2842077637730949 0 -0.51503808176128008 -0.85716729658548041 1 0 0 1 I I -0.70710678118654746 0.70710678118654746 1 forward I I I I #
loop $-1 $-1 $117 $29 #
coedge $-1 $73 $73 $118 $119 reversed $46 $-1 #
face $-1 $120 $121 $18 $-1 $122 reversed single #
loop $-1 $-1 $123 $48 #
plane-surface $-1 0 -35.43551477273985 0 0 1 0 0 0 1 forward_v I I I I #
coedge $-1 $124 $125 $126 $127 forward $49 $-1 #
coedge $-1 $128 $51 $129 $130 forward $31 $-1 #
coedge $-1 $51 $128 $131 $132 forward $31 $-1 #
coedge $-1 $133 $134 $51 $81 reversed $135 $-1 #
edge $-1 $136 -35.43551477273985 $137 35.43551477273985 $80 $138 forward 7 unknown #
face $-1 $139 $140 $19 $-1 $141 reversed single #
loop $-1 $-1 $142 $52 #
plane-surface $-1 -44.777976687737421 -14.573318131364644 0 -1 0 0 0 0 1 forward_v I I I I #
coedge $-1 $143 $144 $145 $146 forward $53 $-1 #
coedge $-1 $147 $55 $148 $149 reversed $34 $-1 #
coedge $-1 $55 $147 $150 $151 reversed $34 $-1 #
coedge $-1 $152 $153 $55 $89 forward $154 $-1 #
edge $-1 $155 -11.841001065131396 $156 11.841001065131396 $88 $157 forward 7 unknown #
face $-1 $158 $159 $20 $-1 $160 reversed single #
loop $-1 $-1 $161 $56 #
plane-surface $-1 -44.777976687737421 -97.214306744984356 109.97912151775934 1 0 0 0 0.51503808176128008 -0.85716729658548041 forward_v I I I I #
coedge $-1 $162 $163 $164 $165 reversed $57 $-1 #
coedge $-1 $95 $59 $166 $167 reversed $37 $-1 #
coedge $-1 $59 $94 $162 $168 reversed $37 $-1 #
coedge $-1 $164 $169 $59 $97 forward $170 $-1 #
edge $-1 $171 13.171638599752328 $172 20.958891378169234 $96 $173 forward 7 unknown #
loop $-1 $-1 $103 $60 #
plane-surface $-1 -30.453769034209969 -35.435514772739864 7.1619474554535998 0 -0.51503808176128008 0.85716729658548041 1 0 0 forward_v I I I I #
loop $-1 $-1 $174 $39 #
coedge $-1 $101 $101 $102 $175 reversed $61 $-1 #
coedge $-1 $102 $102 $101 $175 forward $63 $-1 #
coedge $-1 $103 $103 $64 $104 forward $98 $-1 #
edge $-1 $176 -1.6794849770089823e-015 $176 6.2831853071795987 $103 $177 forward 7 unknown #
face $-1 $178 $179 $22 $-1 $180 reversed single #
loop $-1 $-1 $181 $65 #
plane-surface $-1 -16.129561380682517 36.465977943255808 146.48040062731022 -1 0 0 0 0.51503808176128008 0.85716729658548041 forward_v I I I I #
coedge $-1 $182 $183 $184 $185 reversed $66 $-1 #
coedge $-1 $110 $68 $186 $187 reversed $43 $-1 #
coedge $-1 $68 $109 $182 $188 reversed $43 $-1 #
coedge $-1 $184 $189 $68 $112 forward $190 $-1 #
edge $-1 $191 -17.202525801111946 $192 -9.4152730226950538 $111 $193 forward 7 unknown #
loop $-1 $-1 $118 $69 #
plane-surface $-1 -30.453769034209969 -25.312814028988683 43.663226565004479 0 0.51503808176128008 0.85716729658548041 1 0 0 forward_v I I I I #
loop $-1 $-1 $194 $45 #
coedge $-1 $116 $116 $117 $195 reversed $70 $-1 #
coedge $-1 $117 $117 $116 $195 forward $72 $-1 #
coedge $-1 $118 $118 $73 $119 forward $113 $-1 #
edge $-1 $196 1.3788892546740063e-015 $196 6.2831853071796022 $118 $197 forward 7 unknown #
face $-1 $198 $199 $18 $-1 $200 reversed single #
loop $-1 $-1 $201 $74 #
plane-surface $-1 -59.974974822229683 0 0 1 0 0 0 0 -1 forward_v I I I I #
coedge $-1 $202 $131 $203 $204 forward $75 $-1 #
coedge $-1 $205 $77 $202 $206 forward $49 $-1 #
coedge $-1 $77 $205 $207 $208 forward $49 $-1 #
coedge $-1 $134 $133 $77 $127 reversed $135 $-1 #
edge $-1 $209 -35.43551477273985 $210 35.43551477273985 $126 $211 forward 7 unknown #
coedge $-1 $79 $78 $212 $213 forward $31 $-1 #
coedge $-1 $214 $215 $78 $130 reversed $199 $-1 #
edge $-1 $137 -59.974974822229683 $216 59.974974822229683 $129 $217 forward 7 unknown #
coedge $-1 $123 $218 $79 $132 reversed $75 $-1 #
edge $-1 $219 -59.974974822229683 $136 59.974974822229683 $131 $220 forward 7 unknown #
coedge $-1 $126 $80 $218 $221 forward $135 $-1 #
coedge $-1 $80 $126 $214 $222 reversed $135 $-1 #
loop $-1 $-1 $133 $198 #
vertex $-1 $81 $223 #
vertex $-1 $81 $224 #
straight-curve $-1 59.974974822229683 0 11.841001065131396 0 1 0 I I #
face $-1 $225 $226 $19 $-1 $227 forward single #
loop $-1 $-1 $228 $82 #
plane-surface $-1 0 0 -11.841001065131396 0 0 1 1 0 0 forward_v I I I I #
coedge $-1 $229 $230 $147 $231 forward $83 $-1 #
coedge $-1 $232 $85 $228 $233 reversed $53 $-1 #
coedge $-1 $85 $232 $234 $235 reversed $53 $-1 #
coedge $-1 $230 $229 $85 $146 reversed $83 $-1 #
edge $-1 $236 -11.841001065131396 $237 11.841001065131396 $145 $238 forward 7 unknown #
coedge $-1 $87 $86 $142 $231 reversed $34 $-1 #
coedge $-1 $239 $240 $86 $149 forward $140 $-1 #
edge $-1 $241 18.589738810245645 $155 33.78673694473791 $148 $242 forward 7 unknown #
coedge $-1 $243 $244 $87 $151 forward $226 $-1 #
edge $-1 $156 -33.78673694473791 $245 -18.589738810245645 $150 $246 forward 7 unknown #
coedge $-1 $247 $88 $244 $248 reversed $154 $-1 #
coedge $-1 $88 $247 $239 $249 reversed $154 $-1 #
loop $-1 $-1 $247 $225 #
vertex $-1 $249 $250 #
vertex $-1 $89 $251 #
straight-curve $-1 -59.974974822229683 -16.073318131364644 0 0 0 1 I I #
face $-1 $-1 $170 $20 $-1 $252 forward single #
loop $-1 $-1 $253 $90 #
plane-surface $-1 0 -35.43551477273985 0 0 1 0 0 0 1 forward_v I I I I #
coedge $-1 $254 $255 $256 $257 reversed $91 $-1 #
coedge $-1 $258 $93 $95 $168 forward $57 $-1 #
coedge $-1 $93 $258 $254 $259 forward $57 $-1 #
coedge $-1 $256 $96 $93 $165 forward $170 $-1 #
edge $-1 $172 0.90267686357753263 $260 29.551092170632437 $164 $261 forward 7 unknown #
coedge $-1 $262 $263 $94 $167 forward $159 $-1 #
edge $-1 $264 -47.827613303426062 $171 -43.148559693748275 $166 $265 forward 7 unknown #
edge $-1 $172 -9.0848692074900477 $264 -1.6755537013839907e-014 $95 $266 forward 7 unknown #
coedge $-1 $96 $256 $262 $267 forward $170 $-1 #
loop $-1 $-1 $256 $158 #
vertex $-1 $167 $268 #
vertex $-1 $97 $269 #
straight-curve $-1 -16.129561380682517 -48.607153372492178 11.841001065131394 0 1 0 I I #
coedge $-1 $174 $174 $-1 $270 reversed $100 $-1 #
edge $-1 $271 0 $271 6.2831853071796004 $101 $272 forward 7 unknown #
vertex $-1 $104 $273 #
ellipse-curve $-1 -30.453769034209969 -31.54188838353139 9.501474260292504 0 -0.51503808176128008 0.85716729658548041 2 0 0 1 I I #
face $-1 $-1 $190 $22 $-1 $274 forward single #
loop $-1 $-1 $275 $105 #
plane-surface $-1 0 35.43551477273985 0 0 -1 0 0 0 -1 forward_v I I I I #
coedge $-1 $276 $277 $278 $279 reversed $106 $-1 #
coedge $-1 $280 $108 $110 $188 forward $66 $-1 #
coedge $-1 $108 $280 $276 $281 forward $66 $-1 #
coedge $-1 $278 $111 $108 $185 forward $190 $-1 #
edge $-1 $192 -29.551092170632437 $282 -0.90267686357753263 $184 $283 forward 7 unknown #
coedge $-1 $284 $285 $109 $187 forward $179 $-1 #
edge $-1 $286 -66.078252858201495 $191 -61.399199248523715 $186 $287 forward 7 unknown #
edge $-1 $192 61.786160337989671 $286 70.871029545479686 $110 $288 forward 7 unknown #
coedge $-1 $111 $278 $284 $289 forward $190 $-1 #
loop $-1 $-1 $278 $178 #
vertex $-1 $187 $290 #
vertex $-1 $112 $291 #
straight-curve $-1 -44.777976687737421 18.232988971627904 11.841001065131394 0 -1 0 I I #
coedge $-1 $194 $194 $-1 $292 reversed $115 $-1 #
edge $-1 $293 0 $293 6.2831853071796004 $116 $294 forward 7 unknown #
vertex $-1 $119 $295 #
ellipse-curve $-1 -30.453769034209969 31.54188838353139 9.5014742602925146 0 0.51503808176128008 0.85716729658548041 2 0 0 1 I I #
face $-1 $-1 $135 $18 $-1 $296 reversed single #
loop $-1 $-1 $214 $120 #
plane-surface $-1 0 35.43551477273985 0 0 -1 0 0 0 -1 forward_v I I I I #
coedge $-1 $297 $212 $215 $298 forward $121 $-1 #
coedge $-1 $218 $123 $124 $206 reversed $75 $-1 #
coedge $-1 $212 $297 $123 $204 reversed $121 $-1 #
edge $-1 $219 -11.841001065131396 $299 11.841001065131396 $203 $300 forward 7 unknown #
coedge $-1 $125 $124 $297 $301 forward $49 $-1 #
edge $-1 $210 -59.974974822229683 $299 59.974974822229683 $202 $302 forward 7 unknown #
coedge $-1 $215 $214 $125 $208 reversed $199 $-1 #
edge $-1 $303 -59.974974822229683 $209 59.974974822229683 $207 $304 forward 7 unknown #
vertex $-1 $127 $305 #
vertex $-1 $221 $306 #
straight-curve $-1 59.974974822229683 0 -11.841001065131396 0 -1 0 I I #
coedge $-1 $201 $203 $128 $213 reversed $121 $-1 #
edge $-1 $216 -35.43551477273985 $219 35.43551477273985 $212 $307 forward 7 unknown #
coedge $-1 $207 $129 $134 $222 forward $199 $-1 #
coedge $-1 $129 $207 $201 $298 reversed $199 $-1 #
vertex $-1 $130 $308 #
straight-curve $-1 0 35.43551477273985 11.841001065131396 -1 0 0 I I #
coedge $-1 $131 $202 $133 $221 reversed $75 $-1 #
vertex $-1 $213 $309 #
straight-curve $-1 0 -35.43551477273985 11.841001065131396 1 0 0 I I #
edge $-1 $136 -11.841001065131396 $210 11.841001065131396 $133 $310 forward 7 unknown #
edge $-1 $137 -11.841001065131396 $209 11.841001065131396 $134 $311 forward 7 unknown #
point $-1 59.974974822229683 -35.43551477273985 11.841001065131396 #
point $-1 59.974974822229683 35.43551477273985 11.841001065131396 #
face $-1 $-1 $154 $19 $-1 $312 reversed single #
loop $-1 $-1 $234 $139 #
plane-surface $-1 0 0 11.841001065131396 0 0 1 1 0 0 forward_v I I I I #
coedge $-1 $240 $239 $143 $233 forward $140 $-1 #
coedge $-1 $145 $142 $240 $313 reversed $83 $-1 #
coedge $-1 $142 $145 $243 $314 reversed $83 $-1 #
edge $-1 $245 -11.841001065131396 $241 11.841001065131396 $142 $315 forward 7 unknown #
coedge $-1 $144 $143 $247 $316 reversed $53 $-1 #
edge $-1 $317 -33.78673694473791 $237 -18.589738810245645 $228 $318 forward 7 unknown #
coedge $-1 $244 $243 $144 $235 forward $226 $-1 #
edge $-1 $236 18.589738810245645 $319 33.78673694473791 $234 $320 forward 7 unknown #
vertex $-1 $235 $321 #
vertex $-1 $233 $322 #
straight-curve $-1 -44.777976687737421 -13.073318131364644 0 0 0 -1 I I #
coedge $-1 $228 $148 $153 $249 forward $140 $-1 #
coedge $-1 $148 $228 $229 $313 forward $140 $-1 #
vertex $-1 $149 $323 #
straight-curve $-1 -26.188237877491776 -16.073318131364644 -11.841001065131396 -1 0 0 I I #
coedge $-1 $234 $150 $230 $314 forward $226 $-1 #
coedge $-1 $150 $234 $152 $248 forward $226 $-1 #
vertex $-1 $151 $324 #
straight-curve $-1 -26.188237877491776 -16.073318131364644 11.841001065131396 1 0 0 I I #
coedge $-1 $153 $152 $232 $316 forward $154 $-1 #
edge $-1 $319 13.073318131364644 $156 16.073318131364644 $152 $325 forward 7 unknown #
edge $-1 $155 -16.073318131364644 $317 -13.073318131364644 $153 $326 forward 7 unknown #
point $-1 -59.974974822229683 -16.073318131364644 -11.841001065131396 #
point $-1 -59.974974822229683 -16.073318131364644 11.841001065131396 #
plane-surface $-1 0 0 11.841001065131396 0 0 1 1 0 0 forward_v I I I I #
coedge $-1 $263 $262 $255 $327 forward $159 $-1 #
coedge $-1 $255 $161 $163 $259 reversed $91 $-1 #
coedge $-1 $161 $254 $253 $327 reversed $91 $-1 #
coedge $-1 $169 $164 $161 $257 forward $170 $-1 #
edge $-1 $260 -20.958891378169234 $328 -13.171638599752328 $256 $329 forward 7 unknown #
coedge $-1 $163 $162 $263 $330 reversed $57 $-1 #
edge $-1 $331 1.6755537013839907e-014 $260 9.0848692074900477 $254 $332 forward 7 unknown #
vertex $-1 $165 $333 #
straight-curve $-1 -15.226884517104985 -27.648261994322944 11.841001065131396 -1 0 0 I I #
coedge $-1 $253 $166 $169 $267 reversed $159 $-1 #
coedge $-1 $166 $253 $258 $330 forward $159 $-1 #
vertex $-1 $167 $334 #
straight-curve $-1 -16.129561380682517 -35.43551477273985 54.989560758879669 0 0 1 I I #
straight-curve $-1 -16.129561380682517 -35.435514772739864 7.1619474554535998 0 -0.85716729658548041 -0.51503808176128008 I I #
edge $-1 $328 -44.777976687737421 $171 -16.129561380682517 $262 $335 forward 7 unknown #
point $-1 -16.129561380682517 -35.43551477273985 11.841001065131396 #
point $-1 -16.129561380682517 -27.648261994322944 11.841001065131396 #
edge $-1 $336 1 $336 0 $174 $-1 forward 7 unknown #
vertex $-1 $175 $337 #
ellipse-curve $-1 -30.453769034209969 -27.720355171993663 3.1413750603585751 0 -0.51503808176128008 0.85716729658548041 2 0 0 1 I I #
point $-1 -28.453769034209969 -31.541888383531386 9.5014742602924915 #
plane-surface $-1 0 0 11.841001065131396 0 0 1 1 0 0 forward_v I I I I #
coedge $-1 $285 $284 $277 $338 forward $179 $-1 #
coedge $-1 $277 $181 $183 $281 reversed $106 $-1 #
coedge $-1 $181 $276 $275 $338 reversed $106 $-1 #
coedge $-1 $189 $184 $181 $279 forward $190 $-1 #
edge $-1 $282 9.4152730226950538 $339 17.202525801111946 $278 $340 forward 7 unknown #
coedge $-1 $183 $182 $285 $341 reversed $66 $-1 #
edge $-1 $342 -70.871029545479686 $282 -61.786160337989671 $276 $343 forward 7 unknown #
vertex $-1 $185 $344 #
straight-curve $-1 -15.226884517104985 27.648261994322958 11.841001065131394 1 0 0 I I #
coedge $-1 $275 $186 $189 $289 reversed $179 $-1 #
coedge $-1 $186 $275 $280 $341 forward $179 $-1 #
vertex $-1 $187 $345 #
straight-curve $-1 -44.777976687737421 35.43551477273985 73.240200313655109 0 0 1 I I #
straight-curve $-1 -44.777976687737421 -25.312814028988683 43.663226565004479 0 0.85716729658548041 -0.51503808176128008 I I #
edge $-1 $339 16.129561380682517 $191 44.777976687737421 $284 $346 forward 7 unknown #
point $-1 -44.777976687737421 35.43551477273985 11.841001065131396 #
point $-1 -44.777976687737421 27.648261994322958 11.841001065131394 #
edge $-1 $347 1 $347 0 $194 $-1 forward 7 unknown #
vertex $-1 $195 $348 #
ellipse-curve $-1 -30.453769034209969 27.720355171993656 3.1413750603585751 0 0.51503808176128008 0.85716729658548041 2 0 0 1 I I #
point $-1 -28.453769034209969 31.541888383531379 9.5014742602924915 #
plane-surface $-1 59.974974822229683 0 0 -1 0 0 0 0 1 forward_v I I I I #
coedge $-1 $203 $201 $205 $301 reversed $121 $-1 #
edge $-1 $216 -11.841001065131396 $303 11.841001065131396 $215 $349 forward 7 unknown #
vertex $-1 $301 $350 #
straight-curve $-1 -59.974974822229683 -35.43551477273985 0 0 0 -1 I I #
edge $-1 $299 -35.43551477273985 $303 35.43551477273985 $297 $351 forward 7 unknown #
straight-curve $-1 0 -35.43551477273985 -11.841001065131396 -1 0 0 I I #
vertex $-1 $208 $352 #
straight-curve $-1 0 35.43551477273985 -11.841001065131396 1 0 0 I I #
point $-1 59.974974822229683 35.43551477273985 -11.841001065131396 #
point $-1 59.974974822229683 -35.43551477273985 -11.841001065131396 #
straight-curve $-1 -59.974974822229683 0 11.841001065131396 0 -1 0 I I #
point $-1 -59.974974822229683 35.43551477273985 11.841001065131396 #
point $-1 -59.974974822229683 -35.43551477273985 11.841001065131396 #
straight-curve $-1 59.974974822229683 -35.43551477273985 0 0 0 -1 I I #
straight-curve $-1 59.974974822229683 35.43551477273985 0 0 0 -1 I I #
plane-surface $-1 -59.974974822229683 0 0 1 0 0 0 0 -1 forward_v I I I I #
edge $-1 $237 5.786659065682322 $241 8.786659065682322 $240 $353 forward 7 unknown #
edge $-1 $245 -8.786659065682322 $236 -5.786659065682322 $243 $354 forward 7 unknown #
straight-curve $-1 -44.777976687737421 -16.073318131364644 0 0 0 -1 I I #
edge $-1 $319 -11.841001065131396 $317 11.841001065131396 $247 $355 forward 7 unknown #
vertex $-1 $316 $356 #
straight-curve $-1 -26.188237877491776 -13.073318131364644 -11.841001065131396 1 0 0 I I #
vertex $-1 $248 $357 #
straight-curve $-1 -26.188237877491776 -13.073318131364644 11.841001065131396 -1 0 0 I I #
point $-1 -44.777976687737421 -13.073318131364644 11.841001065131396 #
point $-1 -44.777976687737421 -13.073318131364644 -11.841001065131396 #
point $-1 -44.777976687737421 -16.073318131364644 -11.841001065131396 #
point $-1 -44.777976687737421 -16.073318131364644 11.841001065131396 #
straight-curve $-1 -59.974974822229683 0 11.841001065131396 0 -1 0 I I #
straight-curve $-1 -59.974974822229683 0 -11.841001065131396 0 1 0 I I #
edge $-1 $328 43.148559693748275 $331 47.827613303426062 $253 $358 forward 7 unknown #
vertex $-1 $267 $359 #
straight-curve $-1 -44.777976687737421 -48.607153372492178 11.841001065131394 0 -1 0 I I #
edge $-1 $331 -29.551092170632437 $264 -0.90267686357753263 $263 $360 forward 7 unknown #
vertex $-1 $330 $361 #
straight-curve $-1 -44.777976687737421 -35.435514772739864 7.1619474554535998 0 0.85716729658548041 0.51503808176128008 I I #
point $-1 -44.777976687737421 -27.648261994322944 11.841001065131396 #
point $-1 -16.129561380682517 -35.43551477273985 7.1619474554536087 #
straight-curve $-1 0 -35.43551477273985 11.841001065131396 1 0 0 I I #
vertex $-1 $270 $362 #
point $-1 -28.453769034209969 -27.720355171993663 3.1413750603585751 #
edge $-1 $339 61.399199248523715 $342 66.078252858201495 $275 $363 forward 7 unknown #
vertex $-1 $289 $364 #
straight-curve $-1 -16.129561380682517 18.232988971627904 11.841001065131394 0 1 0 I I #
edge $-1 $342 0.90267686357753263 $286 29.551092170632437 $285 $365 forward 7 unknown #
vertex $-1 $341 $366 #
straight-curve $-1 -16.129561380682517 -25.312814028988683 43.663226565004479 0 -0.85716729658548041 0.51503808176128008 I I #
point $-1 -16.129561380682517 27.648261994322958 11.841001065131394 #
point $-1 -44.777976687737421 35.43551477273985 7.161947455453614 #
straight-curve $-1 0 35.43551477273985 11.841001065131396 -1 0 0 I I #
vertex $-1 $292 $367 #
point $-1 -28.453769034209969 27.720355171993656 3.1413750603585751 #
straight-curve $-1 -59.974974822229683 35.43551477273985 0 0 0 -1 I I #
point $-1 -59.974974822229683 -35.43551477273985 -11.841001065131396 #
straight-curve $-1 -59.974974822229683 0 -11.841001065131396 0 1 0 I I #
point $-1 -59.974974822229683 35.43551477273985 -11.841001065131396 #
straight-curve $-1 -44.777976687737421 -7.286659065682322 -11.841001065131396 0 -1 0 I I #
straight-curve $-1 -44.777976687737421 -7.286659065682322 11.841001065131396 0 1 0 I I #
straight-curve $-1 -59.974974822229683 -13.073318131364644 0 0 0 -1 I I #
point $-1 -59.974974822229683 -13.073318131364644 -11.841001065131396 #
point $-1 -59.974974822229683 -13.073318131364644 11.841001065131396 #
straight-curve $-1 -44.777976687737421 -35.43551477273985 54.989560758879669 0 0 -1 I I #
point $-1 -44.777976687737421 -35.43551477273985 11.841001065131396 #
straight-curve $-1 -15.226884517104985 -35.43551477273985 7.1619474554536078 1 0 0 I I #
point $-1 -44.777976687737421 -35.43551477273985 7.1619474554536087 #
point $-1 -30.453769034209969 -26.690279008471105 1.4270404671876145 #
straight-curve $-1 -16.129561380682517 35.43551477273985 73.240200313655109 0 0 -1 I I #
point $-1 -16.129561380682517 35.43551477273985 11.841001065131396 #
straight-curve $-1 -15.226884517104985 35.43551477273985 7.1619474554536176 -1 0 0 I I #
point $-1 -16.129561380682517 35.43551477273985 7.161947455453614 #
point $-1 -30.453769034209969 26.690279008471098 1.4270404671876145 #
End-of-ACIS-data 