500 0 17 0           
7 Unknown 11 ACIS 5.0 NT 24 Fri Mar 26 15:25:36 1999 
-1 9.9999999999999995e-007 1e-010 
body $-1 $17 $-1 $18 #
body $-1 $19 $-1 $20 #
body $-1 $21 $-1 $22 #
body $-1 $23 $-1 $24 #
body $-1 $25 $-1 $26 #
body $-1 $27 $-1 $28 #
body $-1 $29 $-1 $30 #
body $-1 $31 $-1 $32 #
body $-1 $33 $-1 $34 #
body $-1 $35 $-1 $36 #
body $-1 $37 $-1 $38 #
body $-1 $39 $-1 $40 #
body $-1 $41 $-1 $42 #
body $-1 $43 $-1 $44 #
body $-1 $45 $-1 $46 #
body $-1 $47 $-1 $48 #
body $-1 $49 $-1 $50 #
lump $-1 $-1 $51 $0 #
transform $-1 1 0 0 0 1 0 0 0 1 47.27683339945677 23.002422310175465 6.2865472051784819 1 rotate no_reflect no_shear #
lump $-1 $-1 $52 $1 #
transform $-1 1 0 0 0 1 0 0 0 1 47.27683339945677 23.002422310175465 6.2865472051784819 1 rotate no_reflect no_shear #
lump $-1 $-1 $53 $2 #
transform $-1 1 0 0 0 1 0 0 0 1 47.27683339945677 23.002422310175465 6.2865472051784819 1 rotate no_reflect no_shear #
lump $-1 $-1 $54 $3 #
transform $-1 1 0 0 0 1 0 0 0 1 47.27683339945677 23.002422310175465 6.2865472051784819 1 rotate no_reflect no_shear #
lump $-1 $-1 $55 $4 #
transform $-1 1 0 0 0 1 0 0 0 1 47.27683339945677 23.002422310175465 6.2865472051784819 1 rotate no_reflect no_shear #
lump $-1 $-1 $56 $5 #
transform $-1 1 0 0 0 1 0 0 0 1 47.27683339945677 23.002422310175465 6.2865472051784819 1 rotate no_reflect no_shear #
lump $-1 $-1 $57 $6 #
transform $-1 1 0 0 0 1 0 0 0 1 47.27683339945677 23.002422310175465 6.2865472051784819 1 rotate no_reflect no_shear #
lump $-1 $-1 $58 $7 #
transform $-1 1 0 0 0 1 0 0 0 1 47.27683339945677 23.002422310175465 6.2865472051784819 1 rotate no_reflect no_shear #
lump $-1 $-1 $59 $8 #
transform $-1 1 0 0 0 1 0 0 0 1 47.27683339945677 23.002422310175465 6.2865472051784819 1 rotate no_reflect no_shear #
lump $-1 $-1 $60 $9 #
transform $-1 1 0 0 0 1 0 0 0 1 47.27683339945677 23.002422310175465 6.2865472051784819 1 rotate no_reflect no_shear #
lump $-1 $-1 $61 $10 #
transform $-1 1 0 0 0 1 0 0 0 1 47.27683339945677 23.002422310175465 6.2865472051784819 1 rotate no_reflect no_shear #
lump $-1 $-1 $62 $11 #
transform $-1 1 0 0 0 1 0 0 0 1 47.27683339945677 23.002422310175465 6.2865472051784819 1 rotate no_reflect no_shear #
lump $-1 $-1 $63 $12 #
transform $-1 1 0 0 0 1 0 0 0 1 47.27683339945677 23.002422310175465 6.2865472051784819 1 rotate no_reflect no_shear #
lump $-1 $-1 $64 $13 #
transform $-1 1 0 0 0 1 0 0 0 1 47.27683339945677 23.002422310175465 6.2865472051784819 1 rotate no_reflect no_shear #
lump $-1 $-1 $65 $14 #
transform $-1 1 0 0 0 1 0 0 0 1 47.27683339945677 23.002422310175465 6.2865472051784819 1 rotate no_reflect no_shear #
lump $-1 $-1 $66 $15 #
transform $-1 1 0 0 0 1 0 0 0 1 47.27683339945677 23.002422310175465 6.2865472051784819 1 rotate no_reflect no_shear #
lump $-1 $-1 $67 $16 #
transform $-1 1 0 0 0 1 0 0 0 1 47.27683339945677 23.002422310175465 6.2865472051784819 1 rotate no_reflect no_shear #
shell $-1 $-1 $-1 $68 $-1 $17 #
shell $-1 $-1 $-1 $69 $-1 $19 #
shell $-1 $-1 $-1 $70 $-1 $21 #
shell $-1 $-1 $-1 $71 $-1 $23 #
shell $-1 $-1 $-1 $72 $-1 $25 #
shell $-1 $-1 $-1 $73 $-1 $27 #
shell $-1 $-1 $-1 $74 $-1 $29 #
shell $-1 $-1 $-1 $75 $-1 $31 #
shell $-1 $-1 $-1 $76 $-1 $33 #
shell $-1 $-1 $-1 $77 $-1 $35 #
shell $-1 $-1 $-1 $78 $-1 $37 #
shell $-1 $-1 $-1 $79 $-1 $39 #
shell $-1 $-1 $-1 $80 $-1 $41 #
shell $-1 $-1 $-1 $81 $-1 $43 #
shell $-1 $-1 $-1 $82 $-1 $45 #
shell $-1 $-1 $-1 $83 $-1 $47 #
shell $-1 $-1 $-1 $84 $-1 $49 #
face $-1 $85 $86 $51 $-1 $87 forward single #
face $-1 $88 $89 $52 $-1 $90 reversed single #
face $-1 $91 $92 $53 $-1 $93 reversed single #
face $-1 $94 $95 $54 $-1 $96 forward single #
face $-1 $97 $98 $55 $-1 $99 forward single #
face $-1 $100 $101 $56 $-1 $102 reversed single #
face $-1 $103 $104 $57 $-1 $105 forward single #
face $-1 $106 $107 $58 $-1 $108 forward single #
face $-1 $109 $110 $59 $-1 $111 reversed single #
face $-1 $112 $113 $60 $-1 $114 forward single #
face $-1 $115 $116 $61 $-1 $117 forward single #
face $-1 $118 $119 $62 $-1 $120 reversed single #
face $-1 $121 $122 $63 $-1 $123 forward single #
face $-1 $124 $125 $64 $-1 $126 forward single #
face $-1 $127 $128 $65 $-1 $129 reversed single #
face $-1 $130 $131 $66 $-1 $132 forward single #
face $-1 $133 $134 $67 $-1 $135 forward single #
face $-1 $136 $137 $51 $-1 $138 reversed single #
loop $-1 $-1 $139 $68 #
plane-surface $-1 0 0 6.2865472051784819 0 0 1 1 0 0 forward_v I I I I #
face $-1 $140 $141 $52 $-1 $142 reversed single #
loop $-1 $-1 $143 $69 #
plane-surface $-1 -44.886849963440859 -19.418973371032951 0 0 -1 0 0 0 -1 forward_v I I I I #
face $-1 $144 $145 $53 $-1 $146 reversed single #
loop $-1 $-1 $147 $70 #
plane-surface $-1 19.523806337792404 -104.88830051037968 49.969800848513778 -1 0 0 0 -0.86602541151947299 0.49999998660252726 forward_v I I I I #
face $-1 $148 $149 $54 $-1 $150 forward single #
loop $-1 $151 $152 $71 #
cone-surface $-1 5.9465366822872312 -21.414849740677667 4.1721022483248005 0 0.86602541151947299 -0.49999998660252726 0.5 0 0 1 I I 0 1 0.5 forward I I I I #
face $-1 $153 $154 $55 $-1 $155 forward single #
loop $-1 $156 $157 $72 #
cone-surface $-1 14.092898475590324 -21.414849740677667 4.1721022483248005 0 0.86602541151947299 -0.49999998660252726 0.5 0 0 1 I I 0 1 0.5 forward I I I I #
face $-1 $158 $159 $56 $-1 $160 reversed single #
loop $-1 $-1 $161 $73 #
plane-surface $-1 -36.898287277366144 39.551215975746402 105.48123827238042 1 0 0 0 -0.57357644374324357 -0.81915203911291934 forward_v I I I I #
face $-1 $162 $163 $57 $-1 $164 forward single #
loop $-1 $165 $166 $74 #
cone-surface $-1 -33.400025344578921 19.200389122271627 3.2719125511586493 0 -0.57357644374324357 -0.81915203911291934 1 0 0 1 I I 0 1 1 forward I I I I #
face $-1 $167 $168 $58 $-1 $169 forward single #
loop $-1 $170 $171 $75 #
cone-surface $-1 -28.152632445398083 19.200389122271627 3.2719125511586493 0 -0.57357644374324357 -0.81915203911291934 1 0 0 1 I I 0 1 1 forward I I I I #
face $-1 $172 $173 $59 $-1 $174 reversed single #
loop $-1 $-1 $175 $76 #
plane-surface $-1 -14.454862295645716 39.551215975746402 105.48123827238042 1 0 0 0 -0.57357644374324357 -0.81915203911291934 forward_v I I I I #
face $-1 $176 $177 $60 $-1 $178 forward single #
loop $-1 $179 $180 $77 #
cone-surface $-1 -10.956600362858488 19.200389122271627 3.2719125511586493 0 -0.57357644374324357 -0.81915203911291934 1 0 0 1 I I 0 1 1 forward I I I I #
face $-1 $181 $182 $61 $-1 $183 forward single #
loop $-1 $184 $185 $78 #
cone-surface $-1 -5.7092074636776502 19.200389122271627 3.2719125511586493 0 -0.57357644374324357 -0.81915203911291934 1 0 0 1 I I 0 1 1 forward I I I I #
face $-1 $186 $187 $62 $-1 $188 reversed single #
loop $-1 $-1 $189 $79 #
plane-surface $-1 7.9885626860747099 39.551215975746402 105.48123827238042 1 0 0 0 -0.57357644374324357 -0.81915203911291934 forward_v I I I I #
face $-1 $190 $191 $63 $-1 $192 forward single #
loop $-1 $193 $194 $80 #
cone-surface $-1 11.486824618861938 19.200389122271627 3.2719125511586493 0 -0.57357644374324357 -0.81915203911291934 1 0 0 1 I I 0 1 1 forward I I I I #
face $-1 $195 $196 $64 $-1 $197 forward single #
loop $-1 $198 $199 $81 #
cone-surface $-1 16.734217518042776 19.200389122271627 3.2719125511586493 0 -0.57357644374324357 -0.81915203911291934 1 0 0 1 I I 0 1 1 forward I I I I #
face $-1 $200 $201 $65 $-1 $202 reversed single #
loop $-1 $-1 $203 $82 #
plane-surface $-1 30.431987667795134 39.551215975746402 105.48123827238042 1 0 0 0 -0.57357644374324357 -0.81915203911291934 forward_v I I I I #
face $-1 $204 $205 $66 $-1 $206 forward single #
loop $-1 $207 $208 $83 #
cone-surface $-1 33.930249600582364 19.200389122271627 3.2719125511586493 0 -0.57357644374324357 -0.81915203911291934 1 0 0 1 I I 0 1 1 forward I I I I #
face $-1 $209 $210 $67 $-1 $211 forward single #
loop $-1 $212 $213 $84 #
cone-surface $-1 39.177642499763202 19.200389122271627 3.2719125511586493 0 -0.57357644374324357 -0.81915203911291934 1 0 0 1 I I 0 1 1 forward I I I I #
face $-1 $214 $215 $51 $-1 $216 reversed single #
loop $-1 $-1 $217 $85 #
plane-surface $-1 0 0 -6.2865472051784819 0 0 1 1 0 0 forward_v I I I I #
coedge $-1 $218 $219 $220 $221 forward $86 $-1 #
face $-1 $222 $223 $52 $-1 $224 forward single #
loop $-1 $-1 $225 $88 #
plane-surface $-1 -42.496866527424949 -21.210697840604208 0 -1 0 0 0 0 1 forward_v I I I I #
coedge $-1 $226 $227 $228 $229 forward $89 $-1 #
face $-1 $230 $231 $53 $-1 $232 reversed single #
loop $-1 $-1 $233 $91 #
plane-surface $-1 10.019717578938788 -23.002422310175447 2.692968715837182 0 -0.86602541151947299 0.49999998660252726 1 0 0 forward_v I I I I #
coedge $-1 $234 $235 $236 $237 reversed $92 $-1 #
face $-1 $-1 $238 $54 $-1 $239 forward single #
loop $-1 $240 $241 $94 #
cone-surface $-1 5.9465366822872312 -20.648147535325684 3.7294465394911347 0 0.86602541151947299 -0.49999998660252726 0.25 0 0 1 I I -0.70710678118654746 0.70710678118654746 0.25 forward I I I I #
loop $-1 $-1 $242 $71 #
coedge $-1 $152 $152 $243 $244 reversed $95 $-1 #
face $-1 $-1 $245 $55 $-1 $246 forward single #
loop $-1 $247 $248 $97 #
cone-surface $-1 14.092898475590324 -20.648147535325684 3.7294465394911347 0 0.86602541151947299 -0.49999998660252726 0.25 0 0 1 I I -0.70710678118654746 0.70710678118654746 0.25 forward I I I I #
loop $-1 $-1 $249 $72 #
coedge $-1 $157 $157 $250 $251 reversed $98 $-1 #
face $-1 $252 $253 $56 $-1 $254 reversed single #
loop $-1 $-1 $255 $100 #
plane-surface $-1 -30.776328894988502 -14.682539969658031 28.027409308446863 0 0.57357644374324357 0.81915203911291934 1 0 0 forward_v I I I I #
coedge $-1 $256 $257 $258 $259 reversed $101 $-1 #
face $-1 $-1 $260 $57 $-1 $261 forward single #
loop $-1 $262 $263 $103 #
cone-surface $-1 -33.400025344578921 18.429464711770326 2.1709184120988612 0 -0.57357644374324357 -0.81915203911291934 0.5 0 0 1 I I -0.70710678118654746 0.70710678118654746 0.5 forward I I I I #
loop $-1 $-1 $264 $74 #
coedge $-1 $166 $166 $265 $266 reversed $104 $-1 #
face $-1 $-1 $267 $58 $-1 $268 forward single #
loop $-1 $269 $270 $106 #
cone-surface $-1 -28.152632445398083 18.429464711770326 2.1709184120988612 0 -0.57357644374324357 -0.81915203911291934 0.5 0 0 1 I I -0.70710678118654746 0.70710678118654746 0.5 forward I I I I #
loop $-1 $-1 $271 $75 #
coedge $-1 $171 $171 $272 $273 reversed $107 $-1 #
face $-1 $274 $275 $59 $-1 $276 reversed single #
loop $-1 $-1 $277 $109 #
plane-surface $-1 -8.3329039132680762 -14.682539969658031 28.027409308446863 0 0.57357644374324357 0.81915203911291934 1 0 0 forward_v I I I I #
coedge $-1 $278 $279 $280 $281 reversed $110 $-1 #
face $-1 $-1 $282 $60 $-1 $283 forward single #
loop $-1 $284 $285 $112 #
cone-surface $-1 -10.956600362858488 18.429464711770326 2.1709184120988612 0 -0.57357644374324357 -0.81915203911291934 0.5 0 0 1 I I -0.70710678118654746 0.70710678118654746 0.5 forward I I I I #
loop $-1 $-1 $286 $77 #
coedge $-1 $180 $180 $287 $288 reversed $113 $-1 #
face $-1 $-1 $289 $61 $-1 $290 forward single #
loop $-1 $291 $292 $115 #
cone-surface $-1 -5.7092074636776502 18.429464711770326 2.1709184120988612 0 -0.57357644374324357 -0.81915203911291934 0.5 0 0 1 I I -0.70710678118654746 0.70710678118654746 0.5 forward I I I I #
loop $-1 $-1 $293 $78 #
coedge $-1 $185 $185 $294 $295 reversed $116 $-1 #
face $-1 $296 $297 $62 $-1 $298 reversed single #
loop $-1 $-1 $299 $118 #
plane-surface $-1 14.11052106845235 -14.682539969658031 28.027409308446863 0 0.57357644374324357 0.81915203911291934 1 0 0 forward_v I I I I #
coedge $-1 $300 $301 $302 $303 reversed $119 $-1 #
face $-1 $-1 $304 $63 $-1 $305 forward single #
loop $-1 $306 $307 $121 #
cone-surface $-1 11.486824618861938 18.429464711770326 2.1709184120988612 0 -0.57357644374324357 -0.81915203911291934 0.5 0 0 1 I I -0.70710678118654746 0.70710678118654746 0.5 forward I I I I #
loop $-1 $-1 $308 $80 #
coedge $-1 $194 $194 $309 $310 reversed $122 $-1 #
face $-1 $-1 $311 $64 $-1 $312 forward single #
loop $-1 $313 $314 $124 #
cone-surface $-1 16.734217518042776 18.429464711770326 2.1709184120988612 0 -0.57357644374324357 -0.81915203911291934 0.5 0 0 1 I I -0.70710678118654746 0.70710678118654746 0.5 forward I I I I #
loop $-1 $-1 $315 $81 #
coedge $-1 $199 $199 $316 $317 reversed $125 $-1 #
face $-1 $318 $319 $65 $-1 $320 reversed single #
loop $-1 $-1 $321 $127 #
plane-surface $-1 36.553946050172776 -14.682539969658031 28.027409308446863 0 0.57357644374324357 0.81915203911291934 1 0 0 forward_v I I I I #
coedge $-1 $322 $323 $324 $325 reversed $128 $-1 #
face $-1 $-1 $326 $66 $-1 $327 forward single #
loop $-1 $328 $329 $130 #
cone-surface $-1 33.930249600582364 18.429464711770326 2.1709184120988612 0 -0.57357644374324357 -0.81915203911291934 0.5 0 0 1 I I -0.70710678118654746 0.70710678118654746 0.5 forward I I I I #
loop $-1 $-1 $330 $83 #
coedge $-1 $208 $208 $331 $332 reversed $131 $-1 #
face $-1 $-1 $333 $67 $-1 $334 forward single #
loop $-1 $335 $336 $133 #
cone-surface $-1 39.177642499763202 18.429464711770326 2.1709184120988612 0 -0.57357644374324357 -0.81915203911291934 0.5 0 0 1 I I -0.70710678118654746 0.70710678118654746 0.5 forward I I I I #
loop $-1 $-1 $337 $84 #
coedge $-1 $213 $213 $338 $339 reversed $134 $-1 #
face $-1 $340 $341 $51 $-1 $342 reversed single #
loop $-1 $-1 $343 $136 #
plane-surface $-1 0 -23.002422310175465 0 0 1 0 0 0 1 forward_v I I I I #
coedge $-1 $344 $345 $346 $347 forward $137 $-1 #
coedge $-1 $348 $139 $349 $350 forward $86 $-1 #
coedge $-1 $139 $348 $351 $352 forward $86 $-1 #
coedge $-1 $353 $354 $139 $221 reversed $355 $-1 #
edge $-1 $356 -23.002422310175465 $357 23.002422310175465 $220 $358 forward 7 unknown #
face $-1 $359 $360 $52 $-1 $361 reversed single #
loop $-1 $-1 $362 $140 #
plane-surface $-1 0 0 6.2865472051784819 0 0 1 1 0 0 forward_v I I I I #
coedge $-1 $363 $364 $365 $366 reversed $141 $-1 #
coedge $-1 $367 $143 $368 $369 reversed $89 $-1 #
coedge $-1 $143 $367 $370 $371 reversed $89 $-1 #
coedge $-1 $364 $363 $143 $229 reversed $141 $-1 #
edge $-1 $372 -6.2865472051784819 $373 6.2865472051784819 $228 $374 forward 7 unknown #
face $-1 $375 $376 $53 $-1 $377 forward single #
loop $-1 $-1 $378 $144 #
plane-surface $-1 0.51562882008517263 -104.88830051037968 49.969800848513778 1 0 0 0 0.86602541151947299 -0.49999998660252726 forward_v I I I I #
coedge $-1 $379 $380 $381 $382 reversed $145 $-1 #
coedge $-1 $235 $147 $383 $384 reversed $92 $-1 #
coedge $-1 $147 $234 $379 $385 reversed $92 $-1 #
coedge $-1 $381 $386 $147 $237 forward $376 $-1 #
edge $-1 $387 29.441727945014375 $388 31.516481379065766 $236 $389 forward 7 unknown #
loop $-1 $-1 $243 $148 #
plane-surface $-1 10.019717578938788 -23.002422310175447 2.692968715837182 0 -0.86602541151947299 0.49999998660252726 1 0 0 forward_v I I I I #
loop $-1 $-1 $390 $94 #
coedge $-1 $241 $241 $242 $391 reversed $149 $-1 #
coedge $-1 $242 $242 $241 $391 forward $151 $-1 #
coedge $-1 $243 $243 $152 $244 forward $238 $-1 #
edge $-1 $392 -2.3798662895583357e-015 $392 6.2831853071795978 $243 $393 forward 7 unknown #
loop $-1 $-1 $250 $153 #
plane-surface $-1 10.019717578938788 -23.002422310175447 2.692968715837182 0 -0.86602541151947299 0.49999998660252726 1 0 0 forward_v I I I I #
loop $-1 $-1 $394 $97 #
coedge $-1 $248 $248 $249 $395 reversed $154 $-1 #
coedge $-1 $249 $249 $248 $395 forward $156 $-1 #
coedge $-1 $250 $250 $157 $251 forward $245 $-1 #
edge $-1 $396 -2.3798662895583357e-015 $396 6.2831853071795978 $250 $397 forward 7 unknown #
face $-1 $398 $399 $56 $-1 $400 reversed single #
loop $-1 $-1 $401 $158 #
plane-surface $-1 -24.654370512610861 39.551215975746402 105.48123827238042 -1 0 0 0 0.57357644374324357 0.81915203911291934 forward_v I I I I #
coedge $-1 $402 $403 $404 $405 reversed $159 $-1 #
coedge $-1 $257 $161 $406 $407 reversed $101 $-1 #
coedge $-1 $161 $256 $402 $408 reversed $101 $-1 #
coedge $-1 $404 $409 $161 $259 forward $410 $-1 #
edge $-1 $411 -3.2268143223022641 $412 3.4089796762460267 $258 $413 forward 7 unknown #
loop $-1 $-1 $265 $162 #
plane-surface $-1 -30.776328894988502 -14.682539969658031 28.027409308446863 0 0.57357644374324357 0.81915203911291934 1 0 0 forward_v I I I I #
loop $-1 $-1 $414 $103 #
coedge $-1 $263 $263 $264 $415 reversed $163 $-1 #
coedge $-1 $264 $264 $263 $415 forward $165 $-1 #
coedge $-1 $265 $265 $166 $266 forward $260 $-1 #
edge $-1 $416 9.1057399098439723e-016 $416 6.2831853071796013 $265 $417 forward 7 unknown #
loop $-1 $-1 $272 $167 #
plane-surface $-1 -30.776328894988502 -14.682539969658031 28.027409308446863 0 0.57357644374324357 0.81915203911291934 1 0 0 forward_v I I I I #
loop $-1 $-1 $418 $106 #
coedge $-1 $270 $270 $271 $419 reversed $168 $-1 #
coedge $-1 $271 $271 $270 $419 forward $170 $-1 #
coedge $-1 $272 $272 $171 $273 forward $267 $-1 #
edge $-1 $420 9.1057399098439723e-016 $420 6.2831853071796013 $272 $421 forward 7 unknown #
face $-1 $422 $423 $59 $-1 $424 forward single #
loop $-1 $-1 $425 $172 #
plane-surface $-1 -2.2109455308904362 39.551215975746402 105.48123827238042 -1 0 0 0 0.57357644374324357 0.81915203911291934 forward_v I I I I #
coedge $-1 $426 $427 $428 $429 reversed $173 $-1 #
coedge $-1 $279 $175 $430 $431 reversed $110 $-1 #
coedge $-1 $175 $278 $426 $432 reversed $110 $-1 #
coedge $-1 $428 $433 $175 $281 forward $423 $-1 #
edge $-1 $434 -3.2268143223022641 $435 3.4089796762460267 $280 $436 forward 7 unknown #
loop $-1 $-1 $287 $176 #
plane-surface $-1 -8.3329039132680762 -14.682539969658031 28.027409308446863 0 0.57357644374324357 0.81915203911291934 1 0 0 forward_v I I I I #
loop $-1 $-1 $437 $112 #
coedge $-1 $285 $285 $286 $438 reversed $177 $-1 #
coedge $-1 $286 $286 $285 $438 forward $179 $-1 #
coedge $-1 $287 $287 $180 $288 forward $282 $-1 #
edge $-1 $439 9.1057399098439723e-016 $439 6.2831853071796013 $287 $440 forward 7 unknown #
loop $-1 $-1 $294 $181 #
plane-surface $-1 -8.3329039132680762 -14.682539969658031 28.027409308446863 0 0.57357644374324357 0.81915203911291934 1 0 0 forward_v I I I I #
loop $-1 $-1 $441 $115 #
coedge $-1 $292 $292 $293 $442 reversed $182 $-1 #
coedge $-1 $293 $293 $292 $442 forward $184 $-1 #
coedge $-1 $294 $294 $185 $295 forward $289 $-1 #
edge $-1 $443 9.1057399098439723e-016 $443 6.2831853071796013 $294 $444 forward 7 unknown #
face $-1 $445 $446 $62 $-1 $447 forward single #
loop $-1 $-1 $448 $186 #
plane-surface $-1 20.232479450829992 39.551215975746402 105.48123827238042 -1 0 0 0 0.57357644374324357 0.81915203911291934 forward_v I I I I #
coedge $-1 $449 $450 $451 $452 reversed $187 $-1 #
coedge $-1 $301 $189 $453 $454 reversed $119 $-1 #
coedge $-1 $189 $300 $449 $455 reversed $119 $-1 #
coedge $-1 $451 $456 $189 $303 forward $446 $-1 #
edge $-1 $457 -3.2268143223022641 $458 3.4089796762460267 $302 $459 forward 7 unknown #
loop $-1 $-1 $309 $190 #
plane-surface $-1 14.11052106845235 -14.682539969658031 28.027409308446863 0 0.57357644374324357 0.81915203911291934 1 0 0 forward_v I I I I #
loop $-1 $-1 $460 $121 #
coedge $-1 $307 $307 $308 $461 reversed $191 $-1 #
coedge $-1 $308 $308 $307 $461 forward $193 $-1 #
coedge $-1 $309 $309 $194 $310 forward $304 $-1 #
edge $-1 $462 9.1057399098439723e-016 $462 6.2831853071796013 $309 $463 forward 7 unknown #
loop $-1 $-1 $316 $195 #
plane-surface $-1 14.11052106845235 -14.682539969658031 28.027409308446863 0 0.57357644374324357 0.81915203911291934 1 0 0 forward_v I I I I #
loop $-1 $-1 $464 $124 #
coedge $-1 $314 $314 $315 $465 reversed $196 $-1 #
coedge $-1 $315 $315 $314 $465 forward $198 $-1 #
coedge $-1 $316 $316 $199 $317 forward $311 $-1 #
edge $-1 $466 9.1057399098439723e-016 $466 6.2831853071796013 $316 $467 forward 7 unknown #
face $-1 $468 $469 $65 $-1 $470 forward single #
loop $-1 $-1 $471 $200 #
plane-surface $-1 42.675904432550418 39.551215975746402 105.48123827238042 -1 0 0 0 0.57357644374324357 0.81915203911291934 forward_v I I I I #
coedge $-1 $472 $473 $474 $475 reversed $201 $-1 #
coedge $-1 $323 $203 $476 $477 reversed $128 $-1 #
coedge $-1 $203 $322 $472 $478 reversed $128 $-1 #
coedge $-1 $474 $479 $203 $325 forward $469 $-1 #
edge $-1 $480 -3.2268143223022641 $481 3.4089796762460267 $324 $482 forward 7 unknown #
loop $-1 $-1 $331 $204 #
plane-surface $-1 36.553946050172776 -14.682539969658031 28.027409308446863 0 0.57357644374324357 0.81915203911291934 1 0 0 forward_v I I I I #
loop $-1 $-1 $483 $130 #
coedge $-1 $329 $329 $330 $484 reversed $205 $-1 #
coedge $-1 $330 $330 $329 $484 forward $207 $-1 #
coedge $-1 $331 $331 $208 $332 forward $326 $-1 #
edge $-1 $485 9.1057399098439723e-016 $485 6.2831853071796013 $331 $486 forward 7 unknown #
loop $-1 $-1 $338 $209 #
plane-surface $-1 36.553946050172776 -14.682539969658031 28.027409308446863 0 0.57357644374324357 0.81915203911291934 1 0 0 forward_v I I I I #
loop $-1 $-1 $487 $133 #
coedge $-1 $336 $336 $337 $488 reversed $210 $-1 #
coedge $-1 $337 $337 $336 $488 forward $212 $-1 #
coedge $-1 $338 $338 $213 $339 forward $333 $-1 #
edge $-1 $489 9.1057399098439723e-016 $489 6.2831853071796013 $338 $490 forward 7 unknown #
face $-1 $491 $492 $51 $-1 $493 reversed single #
loop $-1 $-1 $494 $214 #
plane-surface $-1 -47.27683339945677 0 0 1 0 0 0 0 -1 forward_v I I I I #
coedge $-1 $495 $351 $496 $497 forward $215 $-1 #
coedge $-1 $498 $217 $495 $499 forward $137 $-1 #
coedge $-1 $217 $498 $500 $501 forward $137 $-1 #
coedge $-1 $354 $353 $217 $347 reversed $355 $-1 #
edge $-1 $502 -23.002422310175465 $503 23.002422310175465 $346 $504 forward 7 unknown #
coedge $-1 $219 $218 $505 $506 forward $86 $-1 #
coedge $-1 $507 $508 $218 $350 reversed $492 $-1 #
edge $-1 $357 -47.27683339945677 $509 47.27683339945677 $349 $510 forward 7 unknown #
coedge $-1 $343 $511 $219 $352 reversed $215 $-1 #
edge $-1 $512 -47.27683339945677 $356 47.27683339945677 $351 $513 forward 7 unknown #
coedge $-1 $346 $220 $511 $514 forward $355 $-1 #
coedge $-1 $220 $346 $507 $515 reversed $355 $-1 #
loop $-1 $-1 $353 $491 #
vertex $-1 $221 $516 #
vertex $-1 $221 $517 #
straight-curve $-1 47.27683339945677 0 6.2865472051784819 0 1 0 I I #
face $-1 $518 $519 $52 $-1 $520 reversed single #
loop $-1 $-1 $521 $222 #
plane-surface $-1 -47.27683339945677 0 0 1 0 0 0 0 -1 forward_v I I I I #
coedge $-1 $370 $522 $364 $523 forward $223 $-1 #
coedge $-1 $228 $225 $524 $525 reversed $141 $-1 #
coedge $-1 $225 $228 $362 $523 reversed $141 $-1 #
coedge $-1 $526 $527 $225 $366 forward $528 $-1 #
edge $-1 $529 -6.2865472051784819 $530 6.2865472051784819 $365 $531 forward 7 unknown #
coedge $-1 $227 $226 $521 $532 reversed $89 $-1 #
coedge $-1 $524 $533 $226 $369 forward $519 $-1 #
edge $-1 $534 -24.83340841773634 $373 -20.053441545704519 $368 $535 forward 7 unknown #
coedge $-1 $536 $362 $227 $371 forward $223 $-1 #
edge $-1 $372 20.053441545704519 $537 24.83340841773634 $370 $538 forward 7 unknown #
vertex $-1 $371 $539 #
vertex $-1 $369 $540 #
straight-curve $-1 -42.496866527424949 -19.418973371032951 0 0 0 -1 I I #
face $-1 $-1 $541 $53 $-1 $542 reversed single #
loop $-1 $-1 $236 $230 #
plane-surface $-1 0 0 6.2865472051784819 0 0 1 1 0 0 forward_v I I I I #
coedge $-1 $543 $544 $545 $546 reversed $231 $-1 #
coedge $-1 $547 $233 $235 $385 forward $145 $-1 #
coedge $-1 $233 $547 $543 $548 forward $145 $-1 #
coedge $-1 $545 $236 $233 $382 forward $376 $-1 #
edge $-1 $388 -14.51394754832301 $549 4.4942299693842216 $381 $550 forward 7 unknown #
coedge $-1 $551 $552 $234 $384 forward $541 $-1 #
edge $-1 $553 -22.291931708419739 $387 -18.698353219078406 $383 $554 forward 7 unknown #
edge $-1 $388 -4.1495069792885593 $553 3.5418669268125638e-014 $235 $555 forward 7 unknown #
coedge $-1 $236 $545 $551 $556 forward $376 $-1 #
vertex $-1 $384 $557 #
vertex $-1 $237 $558 #
straight-curve $-1 19.523806337792404 -52.44415025518984 6.2865472051784828 0 1 0 I I #
coedge $-1 $390 $390 $-1 $559 reversed $240 $-1 #
edge $-1 $560 0 $560 6.2831853071796004 $241 $561 forward 7 unknown #
vertex $-1 $244 $562 #
ellipse-curve $-1 5.9465366822872312 -21.965045593149764 4.4897579605078253 0 -0.86602541151947299 0.49999998660252726 0.5 0 0 1 I I #
coedge $-1 $394 $394 $-1 $563 reversed $247 $-1 #
edge $-1 $564 0 $564 6.2831853071796004 $248 $565 forward 7 unknown #
vertex $-1 $251 $566 #
ellipse-curve $-1 14.092898475590324 -21.965045593149764 4.4897579605078253 0 -0.86602541151947299 0.49999998660252726 0.5 0 0 1 I I #
face $-1 $-1 $410 $56 $-1 $567 forward single #
loop $-1 $-1 $568 $252 #
plane-surface $-1 0 23.002422310175465 0 0 -1 0 0 0 -1 forward_v I I I I #
coedge $-1 $569 $570 $571 $572 reversed $253 $-1 #
coedge $-1 $573 $255 $257 $408 forward $159 $-1 #
coedge $-1 $255 $573 $569 $574 forward $159 $-1 #
coedge $-1 $571 $258 $255 $405 forward $410 $-1 #
edge $-1 $412 -21.510122829871893 $575 -9.2662060651166094 $404 $576 forward 7 unknown #
coedge $-1 $577 $578 $256 $407 forward $399 $-1 #
edge $-1 $579 -51.100505000044734 $411 -46.454071931011732 $406 $580 forward 7 unknown #
edge $-1 $412 37.904035879479885 $579 46.004844620350951 $257 $581 forward 7 unknown #
coedge $-1 $258 $571 $577 $582 forward $410 $-1 #
loop $-1 $-1 $571 $398 #
vertex $-1 $407 $583 #
vertex $-1 $259 $584 #
straight-curve $-1 -36.898287277366144 19.775607987873201 6.2865472051784792 0 -1 0 I I #
coedge $-1 $414 $414 $-1 $585 reversed $262 $-1 #
edge $-1 $586 0 $586 6.2831853071796004 $263 $587 forward 7 unknown #
vertex $-1 $266 $588 #
ellipse-curve $-1 -33.400025344578921 19.684525310901314 3.9633306706619846 0 0.57357644374324357 0.81915203911291934 1 0 0 1 I I #
coedge $-1 $418 $418 $-1 $589 reversed $269 $-1 #
edge $-1 $590 0 $590 6.2831853071796004 $270 $591 forward 7 unknown #
vertex $-1 $273 $592 #
ellipse-curve $-1 -28.152632445398083 19.684525310901314 3.9633306706619846 0 0.57357644374324357 0.81915203911291934 1 0 0 1 I I #
face $-1 $-1 $593 $59 $-1 $594 reversed single #
loop $-1 $-1 $280 $274 #
plane-surface $-1 0 0 6.2865472051784819 0 0 1 1 0 0 forward_v I I I I #
coedge $-1 $595 $596 $597 $598 reversed $275 $-1 #
coedge $-1 $599 $277 $279 $432 forward $173 $-1 #
coedge $-1 $277 $599 $595 $600 forward $173 $-1 #
coedge $-1 $597 $280 $277 $429 forward $423 $-1 #
edge $-1 $435 -10.288410339011678 $601 1.9555064257436019 $428 $602 forward 7 unknown #
coedge $-1 $603 $604 $278 $431 forward $593 $-1 #
edge $-1 $605 -51.100505000044734 $434 -46.454071931011732 $430 $606 forward 7 unknown #
edge $-1 $435 37.904035879479885 $605 46.004844620350951 $279 $607 forward 7 unknown #
coedge $-1 $280 $597 $603 $608 forward $423 $-1 #
vertex $-1 $431 $609 #
vertex $-1 $281 $610 #
straight-curve $-1 -14.454862295645716 19.775607987873201 6.2865472051784792 0 -1 0 I I #
coedge $-1 $437 $437 $-1 $611 reversed $284 $-1 #
edge $-1 $612 0 $612 6.2831853071796004 $285 $613 forward 7 unknown #
vertex $-1 $288 $614 #
ellipse-curve $-1 -10.956600362858488 19.684525310901314 3.9633306706619846 0 0.57357644374324357 0.81915203911291934 1 0 0 1 I I #
coedge $-1 $441 $441 $-1 $615 reversed $291 $-1 #
edge $-1 $616 0 $616 6.2831853071796004 $292 $617 forward 7 unknown #
vertex $-1 $295 $618 #
ellipse-curve $-1 -5.7092074636776502 19.684525310901314 3.9633306706619846 0 0.57357644374324357 0.81915203911291934 1 0 0 1 I I #
face $-1 $-1 $619 $62 $-1 $620 reversed single #
loop $-1 $-1 $302 $296 #
plane-surface $-1 0 0 6.2865472051784819 0 0 1 1 0 0 forward_v I I I I #
coedge $-1 $621 $622 $623 $624 reversed $297 $-1 #
coedge $-1 $625 $299 $301 $455 forward $187 $-1 #
coedge $-1 $299 $625 $621 $626 forward $187 $-1 #
coedge $-1 $623 $302 $299 $452 forward $446 $-1 #
edge $-1 $458 0.93330215184853493 $627 13.177218916603817 $451 $628 forward 7 unknown #
coedge $-1 $629 $630 $300 $454 forward $619 $-1 #
edge $-1 $631 -51.100505000044734 $457 -46.454071931011732 $453 $632 forward 7 unknown #
edge $-1 $458 37.904035879479885 $631 46.004844620350951 $301 $633 forward 7 unknown #
coedge $-1 $302 $623 $629 $634 forward $446 $-1 #
vertex $-1 $303 $635 #
vertex $-1 $303 $636 #
straight-curve $-1 7.9885626860747099 19.775607987873201 6.2865472051784792 0 -1 0 I I #
coedge $-1 $460 $460 $-1 $637 reversed $306 $-1 #
edge $-1 $638 0 $638 6.2831853071796004 $307 $639 forward 7 unknown #
vertex $-1 $310 $640 #
ellipse-curve $-1 11.486824618861938 19.684525310901314 3.9633306706619846 0 0.57357644374324357 0.81915203911291934 1 0 0 1 I I #
coedge $-1 $464 $464 $-1 $641 reversed $313 $-1 #
edge $-1 $642 0 $642 6.2831853071796004 $314 $643 forward 7 unknown #
vertex $-1 $317 $644 #
ellipse-curve $-1 16.734217518042776 19.684525310901314 3.9633306706619846 0 0.57357644374324357 0.81915203911291934 1 0 0 1 I I #
face $-1 $-1 $645 $65 $-1 $646 reversed single #
loop $-1 $-1 $324 $318 #
plane-surface $-1 0 0 6.2865472051784819 0 0 1 1 0 0 forward_v I I I I #
coedge $-1 $647 $648 $649 $650 reversed $319 $-1 #
coedge $-1 $651 $321 $323 $478 forward $201 $-1 #
coedge $-1 $321 $651 $647 $652 forward $201 $-1 #
coedge $-1 $649 $324 $321 $475 forward $469 $-1 #
edge $-1 $481 12.155014642708746 $653 24.39893140746403 $474 $654 forward 7 unknown #
coedge $-1 $655 $656 $322 $477 forward $645 $-1 #
edge $-1 $657 -51.100505000044734 $480 -46.454071931011732 $476 $658 forward 7 unknown #
edge $-1 $481 37.904035879479885 $657 46.004844620350951 $323 $659 forward 7 unknown #
coedge $-1 $324 $649 $655 $660 forward $469 $-1 #
vertex $-1 $325 $661 #
vertex $-1 $325 $662 #
straight-curve $-1 30.431987667795134 19.775607987873201 6.2865472051784792 0 -1 0 I I #
coedge $-1 $483 $483 $-1 $663 reversed $328 $-1 #
edge $-1 $664 0 $664 6.2831853071796004 $329 $665 forward 7 unknown #
vertex $-1 $332 $666 #
ellipse-curve $-1 33.930249600582364 19.684525310901314 3.9633306706619846 0 0.57357644374324357 0.81915203911291934 1 0 0 1 I I #
coedge $-1 $487 $487 $-1 $667 reversed $335 $-1 #
edge $-1 $668 0 $668 6.2831853071796004 $336 $669 forward 7 unknown #
vertex $-1 $339 $670 #
ellipse-curve $-1 39.177642499763202 19.684525310901314 3.9633306706619846 0 0.57357644374324357 0.81915203911291934 1 0 0 1 I I #
face $-1 $-1 $355 $51 $-1 $671 reversed single #
loop $-1 $-1 $507 $340 #
plane-surface $-1 0 23.002422310175465 0 0 -1 0 0 0 -1 forward_v I I I I #
coedge $-1 $672 $505 $508 $673 forward $341 $-1 #
coedge $-1 $511 $343 $344 $499 reversed $215 $-1 #
coedge $-1 $505 $672 $343 $497 reversed $341 $-1 #
edge $-1 $512 -6.2865472051784819 $674 6.2865472051784819 $496 $675 forward 7 unknown #
coedge $-1 $345 $344 $672 $676 forward $137 $-1 #
edge $-1 $503 -47.27683339945677 $674 47.27683339945677 $495 $677 forward 7 unknown #
coedge $-1 $508 $507 $345 $501 reversed $492 $-1 #
edge $-1 $678 -47.27683339945677 $502 47.27683339945677 $500 $679 forward 7 unknown #
vertex $-1 $347 $680 #
vertex $-1 $514 $681 #
straight-curve $-1 47.27683339945677 0 -6.2865472051784819 0 -1 0 I I #
coedge $-1 $494 $496 $348 $506 reversed $341 $-1 #
edge $-1 $509 -23.002422310175465 $512 23.002422310175465 $505 $682 forward 7 unknown #
coedge $-1 $500 $349 $354 $515 forward $492 $-1 #
coedge $-1 $349 $500 $494 $673 reversed $492 $-1 #
vertex $-1 $350 $683 #
straight-curve $-1 0 23.002422310175465 6.2865472051784819 -1 0 0 I I #
coedge $-1 $351 $495 $353 $514 reversed $215 $-1 #
vertex $-1 $506 $684 #
straight-curve $-1 0 -23.002422310175465 6.2865472051784819 1 0 0 I I #
edge $-1 $356 -6.2865472051784819 $503 6.2865472051784819 $353 $685 forward 7 unknown #
edge $-1 $357 -6.2865472051784819 $502 6.2865472051784819 $354 $686 forward 7 unknown #
point $-1 47.27683339945677 -23.002422310175465 6.2865472051784819 #
point $-1 47.27683339945677 23.002422310175465 6.2865472051784819 #
face $-1 $-1 $528 $52 $-1 $687 reversed single #
loop $-1 $-1 $524 $359 #
plane-surface $-1 0 0 -6.2865472051784819 0 0 1 1 0 0 forward_v I I I I #
coedge $-1 $688 $689 $367 $532 forward $360 $-1 #
coedge $-1 $362 $536 $526 $690 forward $223 $-1 #
edge $-1 $530 -12.397073389873361 $372 -8.8136244507308472 $362 $691 forward 7 unknown #
coedge $-1 $692 $368 $363 $525 forward $519 $-1 #
edge $-1 $373 8.8136244507308472 $529 12.397073389873361 $524 $693 forward 7 unknown #
coedge $-1 $694 $365 $522 $690 reversed $528 $-1 #
coedge $-1 $365 $694 $692 $695 reversed $528 $-1 #
loop $-1 $-1 $365 $518 #
vertex $-1 $695 $696 #
vertex $-1 $366 $697 #
straight-curve $-1 -42.496866527424949 -23.002422310175465 0 0 0 1 I I #
edge $-1 $537 -6.2865472051784819 $534 6.2865472051784819 $521 $698 forward 7 unknown #
coedge $-1 $368 $692 $688 $699 forward $519 $-1 #
vertex $-1 $369 $700 #
straight-curve $-1 -22.44342498172043 -19.418973371032951 -6.2865472051784819 1 0 0 I I #
coedge $-1 $522 $370 $689 $701 forward $223 $-1 #
vertex $-1 $701 $702 #
straight-curve $-1 -22.44342498172043 -19.418973371032951 6.2865472051784819 -1 0 0 I I #
point $-1 -42.496866527424949 -19.418973371032951 6.2865472051784819 #
point $-1 -42.496866527424949 -19.418973371032951 -6.2865472051784819 #
loop $-1 $-1 $383 $375 #
plane-surface $-1 0 -23.002422310175465 0 0 1 0 0 0 1 forward_v I I I I #
coedge $-1 $544 $378 $380 $548 reversed $231 $-1 #
coedge $-1 $378 $543 $703 $704 reversed $231 $-1 #
coedge $-1 $386 $381 $378 $546 forward $376 $-1 #
edge $-1 $549 -31.516481379065766 $705 -29.441727945014375 $545 $706 forward 7 unknown #
coedge $-1 $380 $379 $552 $707 reversed $145 $-1 #
edge $-1 $708 -3.5418669268125638e-014 $549 4.1495069792885593 $543 $709 forward 7 unknown #
vertex $-1 $382 $710 #
straight-curve $-1 5.0098587894693942 -20.927668876124077 6.2865472051784828 -1 0 0 I I #
coedge $-1 $703 $383 $386 $556 reversed $541 $-1 #
coedge $-1 $383 $703 $547 $707 forward $541 $-1 #
vertex $-1 $384 $711 #
straight-curve $-1 19.523806337792404 -23.002422310175461 24.984900424256889 0 0 1 I I #
straight-curve $-1 19.523806337792404 -23.002422310175447 2.692968715837182 0 -0.49999998660252726 -0.86602541151947299 I I #
edge $-1 $705 0.51562882008517263 $387 19.523806337792404 $551 $712 forward 7 unknown #
point $-1 19.523806337792404 -23.002422310175465 6.2865472051784819 #
point $-1 19.523806337792404 -20.927668876124073 6.2865472051784819 #
edge $-1 $713 1 $713 0 $390 $-1 forward 7 unknown #
vertex $-1 $391 $714 #
ellipse-curve $-1 5.9465366822872312 -20.864653888205552 3.8544465361417664 0 -0.86602541151947299 0.49999998660252726 0.5 0 0 1 I I #
point $-1 6.4465366822872312 -21.965045593149782 4.4897579605078342 #
edge $-1 $715 1 $715 0 $394 $-1 forward 7 unknown #
vertex $-1 $395 $716 #
ellipse-curve $-1 14.092898475590324 -20.864653888205552 3.8544465361417664 0 -0.86602541151947299 0.49999998660252726 0.5 0 0 1 I I #
point $-1 14.592898475590324 -21.965045593149782 4.4897579605078342 #
plane-surface $-1 0 0 6.2865472051784819 0 0 1 1 0 0 forward_v I I I I #
coedge $-1 $578 $577 $570 $717 forward $399 $-1 #
coedge $-1 $570 $401 $403 $574 reversed $253 $-1 #
coedge $-1 $401 $569 $568 $717 reversed $253 $-1 #
coedge $-1 $409 $404 $401 $572 forward $410 $-1 #
edge $-1 $575 -3.4089796762460267 $718 3.2268143223022641 $571 $719 forward 7 unknown #
coedge $-1 $403 $402 $578 $720 reversed $159 $-1 #
edge $-1 $721 -46.004844620350951 $575 -37.904035879479885 $569 $722 forward 7 unknown #
vertex $-1 $405 $723 #
straight-curve $-1 -15.388164447494251 16.366628311627171 6.2865472051784845 1 0 0 I I #
coedge $-1 $568 $406 $409 $582 reversed $399 $-1 #
coedge $-1 $406 $568 $573 $720 forward $399 $-1 #
vertex $-1 $407 $724 #
straight-curve $-1 -36.898287277366144 23.002422310175465 52.740619136190212 0 0 1 I I #
straight-curve $-1 -36.898287277366144 -14.682539969658031 28.027409308446863 0 0.81915203911291934 -0.57357644374324357 I I #
edge $-1 $718 24.654370512610861 $411 36.898287277366144 $577 $725 forward 7 unknown #
point $-1 -36.898287277366144 23.002422310175465 6.2865472051784819 #
point $-1 -36.898287277366144 16.366628311627174 6.2865472051784828 #
edge $-1 $726 1 $726 0 $414 $-1 forward 7 unknown #
vertex $-1 $415 $727 #
ellipse-curve $-1 -33.400025344578921 18.716252933641947 2.5804944316553207 0 0.57357644374324357 0.81915203911291934 1 0 0 1 I I #
point $-1 -32.400025344578921 19.684525310901311 3.963330670661978 #
edge $-1 $728 1 $728 0 $418 $-1 forward 7 unknown #
vertex $-1 $419 $729 #
ellipse-curve $-1 -28.152632445398083 18.716252933641947 2.5804944316553207 0 0.57357644374324357 0.81915203911291934 1 0 0 1 I I #
point $-1 -27.152632445398083 19.684525310901311 3.963330670661978 #
loop $-1 $-1 $430 $422 #
plane-surface $-1 0 23.002422310175465 0 0 -1 0 0 0 -1 forward_v I I I I #
coedge $-1 $596 $425 $427 $600 reversed $275 $-1 #
coedge $-1 $425 $595 $730 $731 reversed $275 $-1 #
coedge $-1 $433 $428 $425 $598 forward $423 $-1 #
edge $-1 $601 -3.4089796762460267 $732 3.2268143223022641 $597 $733 forward 7 unknown #
coedge $-1 $427 $426 $604 $734 reversed $173 $-1 #
edge $-1 $735 -46.004844620350951 $601 -37.904035879479885 $595 $736 forward 7 unknown #
vertex $-1 $429 $737 #
straight-curve $-1 -4.1664519566340381 16.366628311627171 6.2865472051784845 1 0 0 I I #
coedge $-1 $730 $430 $433 $608 reversed $593 $-1 #
coedge $-1 $430 $730 $599 $734 forward $593 $-1 #
vertex $-1 $431 $738 #
straight-curve $-1 -14.454862295645716 23.002422310175465 52.740619136190212 0 0 1 I I #
straight-curve $-1 -14.454862295645716 -14.682539969658031 28.027409308446863 0 0.81915203911291934 -0.57357644374324357 I I #
edge $-1 $732 2.2109455308904362 $434 14.454862295645716 $603 $739 forward 7 unknown #
point $-1 -14.454862295645716 23.002422310175465 6.2865472051784819 #
point $-1 -14.454862295645716 16.366628311627174 6.2865472051784828 #
edge $-1 $740 1 $740 0 $437 $-1 forward 7 unknown #
vertex $-1 $438 $741 #
ellipse-curve $-1 -10.956600362858488 18.716252933641947 2.5804944316553207 0 0.57357644374324357 0.81915203911291934 1 0 0 1 I I #
point $-1 -9.956600362858488 19.684525310901311 3.963330670661978 #
edge $-1 $742 1 $742 0 $441 $-1 forward 7 unknown #
vertex $-1 $442 $743 #
ellipse-curve $-1 -5.7092074636776502 18.716252933641947 2.5804944316553207 0 0.57357644374324357 0.81915203911291934 1 0 0 1 I I #
point $-1 -4.7092074636776502 19.684525310901311 3.963330670661978 #
loop $-1 $-1 $453 $445 #
plane-surface $-1 0 23.002422310175465 0 0 -1 0 0 0 -1 forward_v I I I I #
coedge $-1 $622 $448 $450 $626 reversed $297 $-1 #
coedge $-1 $448 $621 $744 $745 reversed $297 $-1 #
coedge $-1 $456 $451 $448 $624 forward $446 $-1 #
edge $-1 $627 -3.4089796762460267 $746 3.2268143223022641 $623 $747 forward 7 unknown #
coedge $-1 $450 $449 $630 $748 reversed $187 $-1 #
edge $-1 $749 -46.004844620350951 $627 -37.904035879479885 $621 $750 forward 7 unknown #
vertex $-1 $452 $751 #
straight-curve $-1 7.0552605342261749 16.366628311627171 6.2865472051784845 1 0 0 I I #
coedge $-1 $744 $453 $456 $634 reversed $619 $-1 #
coedge $-1 $453 $744 $625 $748 forward $619 $-1 #
vertex $-1 $454 $752 #
straight-curve $-1 7.9885626860747099 23.002422310175465 52.740619136190212 0 0 1 I I #
straight-curve $-1 7.9885626860747099 -14.682539969658031 28.027409308446863 0 0.81915203911291934 -0.57357644374324357 I I #
edge $-1 $746 -20.232479450829992 $457 -7.9885626860747099 $629 $753 forward 7 unknown #
point $-1 7.9885626860747099 23.002422310175465 6.2865472051784819 #
point $-1 7.9885626860747099 16.366628311627174 6.2865472051784828 #
edge $-1 $754 1 $754 0 $460 $-1 forward 7 unknown #
vertex $-1 $461 $755 #
ellipse-curve $-1 11.486824618861938 18.716252933641947 2.5804944316553207 0 0.57357644374324357 0.81915203911291934 1 0 0 1 I I #
point $-1 12.486824618861938 19.684525310901311 3.963330670661978 #
edge $-1 $756 1 $756 0 $464 $-1 forward 7 unknown #
vertex $-1 $465 $757 #
ellipse-curve $-1 16.734217518042776 18.716252933641947 2.5804944316553207 0 0.57357644374324357 0.81915203911291934 1 0 0 1 I I #
point $-1 17.734217518042776 19.684525310901311 3.963330670661978 #
loop $-1 $-1 $476 $468 #
plane-surface $-1 0 23.002422310175465 0 0 -1 0 0 0 -1 forward_v I I I I #
coedge $-1 $648 $471 $473 $652 reversed $319 $-1 #
coedge $-1 $471 $647 $758 $759 reversed $319 $-1 #
coedge $-1 $479 $474 $471 $650 forward $469 $-1 #
edge $-1 $653 -3.4089796762460267 $760 3.2268143223022641 $649 $761 forward 7 unknown #
coedge $-1 $473 $472 $656 $762 reversed $201 $-1 #
edge $-1 $763 -46.004844620350951 $653 -37.904035879479885 $647 $764 forward 7 unknown #
vertex $-1 $475 $765 #
straight-curve $-1 18.276973025086388 16.366628311627171 6.2865472051784845 1 0 0 I I #
coedge $-1 $758 $476 $479 $660 reversed $645 $-1 #
coedge $-1 $476 $758 $651 $762 forward $645 $-1 #
vertex $-1 $477 $766 #
straight-curve $-1 30.431987667795134 23.002422310175465 52.740619136190212 0 0 1 I I #
straight-curve $-1 30.431987667795134 -14.682539969658031 28.027409308446863 0 0.81915203911291934 -0.57357644374324357 I I #
edge $-1 $760 -42.675904432550418 $480 -30.431987667795134 $655 $767 forward 7 unknown #
point $-1 30.431987667795134 23.002422310175465 6.2865472051784819 #
point $-1 30.431987667795134 16.366628311627174 6.2865472051784828 #
edge $-1 $768 1 $768 0 $483 $-1 forward 7 unknown #
vertex $-1 $484 $769 #
ellipse-curve $-1 33.930249600582364 18.716252933641947 2.5804944316553207 0 0.57357644374324357 0.81915203911291934 1 0 0 1 I I #
point $-1 34.930249600582364 19.684525310901311 3.963330670661978 #
edge $-1 $770 1 $770 0 $487 $-1 forward 7 unknown #
vertex $-1 $488 $771 #
ellipse-curve $-1 39.177642499763202 18.716252933641947 2.5804944316553207 0 0.57357644374324357 0.81915203911291934 1 0 0 1 I I #
point $-1 40.177642499763202 19.684525310901311 3.963330670661978 #
plane-surface $-1 47.27683339945677 0 0 -1 0 0 0 0 1 forward_v I I I I #
coedge $-1 $496 $494 $498 $676 reversed $341 $-1 #
edge $-1 $509 -6.2865472051784819 $678 6.2865472051784819 $508 $772 forward 7 unknown #
vertex $-1 $676 $773 #
straight-curve $-1 -47.27683339945677 -23.002422310175465 0 0 0 -1 I I #
edge $-1 $674 -23.002422310175465 $678 23.002422310175465 $672 $774 forward 7 unknown #
straight-curve $-1 0 -23.002422310175465 -6.2865472051784819 -1 0 0 I I #
vertex $-1 $501 $775 #
straight-curve $-1 0 23.002422310175465 -6.2865472051784819 1 0 0 I I #
point $-1 47.27683339945677 23.002422310175465 -6.2865472051784819 #
point $-1 47.27683339945677 -23.002422310175465 -6.2865472051784819 #
straight-curve $-1 -47.27683339945677 0 6.2865472051784819 0 -1 0 I I #
point $-1 -47.27683339945677 23.002422310175465 6.2865472051784819 #
point $-1 -47.27683339945677 -23.002422310175465 6.2865472051784819 #
straight-curve $-1 47.27683339945677 -23.002422310175465 0 0 0 -1 I I #
straight-curve $-1 47.27683339945677 23.002422310175465 0 0 0 -1 I I #
plane-surface $-1 0 -23.002422310175465 0 0 1 0 0 0 1 forward_v I I I I #
coedge $-1 $776 $521 $533 $699 reversed $360 $-1 #
coedge $-1 $521 $776 $536 $701 reversed $360 $-1 #
edge $-1 $777 -47.27683339945677 $530 -42.496866527424949 $526 $778 forward 7 unknown #
straight-curve $-1 -42.496866527424949 -10.605348920302104 6.2865472051784819 0 1 0 I I #
coedge $-1 $533 $524 $527 $695 forward $519 $-1 #
straight-curve $-1 -42.496866527424949 -10.605348920302104 -6.2865472051784819 0 -1 0 I I #
coedge $-1 $527 $526 $776 $779 forward $528 $-1 #
edge $-1 $529 42.496866527424949 $780 47.27683339945677 $527 $781 forward 7 unknown #
point $-1 -42.496866527424949 -23.002422310175465 -6.2865472051784819 #
point $-1 -42.496866527424949 -23.002422310175465 6.2865472051784819 #
straight-curve $-1 -47.27683339945677 -19.418973371032951 0 0 0 -1 I I #
edge $-1 $780 -23.002422310175465 $534 -19.418973371032951 $688 $782 forward 7 unknown #
point $-1 -47.27683339945677 -19.418973371032951 -6.2865472051784819 #
edge $-1 $537 19.418973371032951 $777 23.002422310175465 $689 $783 forward 7 unknown #
point $-1 -47.27683339945677 -19.418973371032951 6.2865472051784819 #
coedge $-1 $552 $551 $544 $704 forward $541 $-1 #
edge $-1 $705 18.698353219078406 $708 22.291931708419739 $703 $784 forward 7 unknown #
vertex $-1 $556 $785 #
straight-curve $-1 0.51562882008517263 -52.44415025518984 6.2865472051784828 0 -1 0 I I #
edge $-1 $708 -4.4942299693842216 $553 14.51394754832301 $552 $786 forward 7 unknown #
vertex $-1 $707 $787 #
straight-curve $-1 0.51562882008517263 -23.002422310175447 2.692968715837182 0 0.49999998660252726 0.86602541151947299 I I #
point $-1 0.51562882008517263 -20.927668876124073 6.2865472051784819 #
point $-1 19.523806337792404 -23.002422310175465 2.6929687158371514 #
straight-curve $-1 0 -23.002422310175465 6.2865472051784819 1 0 0 I I #
vertex $-1 $559 $788 #
point $-1 6.4465366822872312 -20.864653888205552 3.8544465361417664 #
vertex $-1 $563 $789 #
point $-1 14.592898475590324 -20.864653888205552 3.8544465361417664 #
edge $-1 $718 46.454071931011732 $721 51.100505000044734 $568 $790 forward 7 unknown #
vertex $-1 $582 $791 #
straight-curve $-1 -24.654370512610861 19.775607987873201 6.2865472051784792 0 1 0 I I #
edge $-1 $721 9.2662060651166094 $579 21.510122829871893 $578 $792 forward 7 unknown #
vertex $-1 $720 $793 #
straight-curve $-1 -24.654370512610861 -14.682539969658031 28.027409308446863 0 -0.81915203911291934 0.57357644374324357 I I #
point $-1 -24.654370512610861 16.366628311627174 6.2865472051784828 #
point $-1 -36.898287277366144 23.002422310175469 1.6401141361454741 #
straight-curve $-1 0 23.002422310175465 6.2865472051784819 -1 0 0 I I #
vertex $-1 $585 $794 #
point $-1 -32.400025344578921 18.716252933641947 2.5804944316553207 #
vertex $-1 $589 $795 #
point $-1 -27.152632445398083 18.716252933641947 2.5804944316553207 #
coedge $-1 $604 $603 $596 $731 forward $593 $-1 #
edge $-1 $732 46.454071931011732 $735 51.100505000044734 $730 $796 forward 7 unknown #
vertex $-1 $608 $797 #
straight-curve $-1 -2.2109455308904362 19.775607987873201 6.2865472051784792 0 1 0 I I #
edge $-1 $735 -1.9555064257436019 $605 10.288410339011678 $604 $798 forward 7 unknown #
vertex $-1 $734 $799 #
straight-curve $-1 -2.2109455308904362 -14.682539969658031 28.027409308446863 0 -0.81915203911291934 0.57357644374324357 I I #
point $-1 -2.2109455308904362 16.366628311627174 6.2865472051784828 #
point $-1 -14.454862295645716 23.002422310175469 1.6401141361454741 #
straight-curve $-1 0 23.002422310175465 6.2865472051784819 -1 0 0 I I #
vertex $-1 $611 $800 #
point $-1 -9.956600362858488 18.716252933641947 2.5804944316553207 #
vertex $-1 $615 $801 #
point $-1 -4.7092074636776502 18.716252933641947 2.5804944316553207 #
coedge $-1 $630 $629 $622 $745 forward $619 $-1 #
edge $-1 $746 46.454071931011732 $749 51.100505000044734 $744 $802 forward 7 unknown #
vertex $-1 $634 $803 #
straight-curve $-1 20.232479450829992 19.775607987873201 6.2865472051784792 0 1 0 I I #
edge $-1 $749 -13.177218916603817 $631 -0.93330215184853493 $630 $804 forward 7 unknown #
vertex $-1 $748 $805 #
straight-curve $-1 20.232479450829992 -14.682539969658031 28.027409308446863 0 -0.81915203911291934 0.57357644374324357 I I #
point $-1 20.232479450829992 16.366628311627174 6.2865472051784828 #
point $-1 7.9885626860747099 23.002422310175469 1.6401141361454741 #
straight-curve $-1 0 23.002422310175465 6.2865472051784819 -1 0 0 I I #
vertex $-1 $637 $806 #
point $-1 12.486824618861938 18.716252933641947 2.5804944316553207 #
vertex $-1 $641 $807 #
point $-1 17.734217518042776 18.716252933641947 2.5804944316553207 #
coedge $-1 $656 $655 $648 $759 forward $645 $-1 #
edge $-1 $760 46.454071931011732 $763 51.100505000044734 $758 $808 forward 7 unknown #
vertex $-1 $660 $809 #
straight-curve $-1 42.675904432550418 19.775607987873201 6.2865472051784792 0 1 0 I I #
edge $-1 $763 -24.39893140746403 $657 -12.155014642708746 $656 $810 forward 7 unknown #
vertex $-1 $762 $811 #
straight-curve $-1 42.675904432550418 -14.682539969658031 28.027409308446863 0 -0.81915203911291934 0.57357644374324357 I I #
point $-1 42.675904432550418 16.366628311627174 6.2865472051784828 #
point $-1 30.431987667795134 23.002422310175469 1.6401141361454741 #
straight-curve $-1 0 23.002422310175465 6.2865472051784819 -1 0 0 I I #
vertex $-1 $663 $812 #
point $-1 34.930249600582364 18.716252933641947 2.5804944316553207 #
vertex $-1 $667 $813 #
point $-1 40.177642499763202 18.716252933641947 2.5804944316553207 #
straight-curve $-1 -47.27683339945677 23.002422310175465 0 0 0 -1 I I #
point $-1 -47.27683339945677 -23.002422310175465 -6.2865472051784819 #
straight-curve $-1 -47.27683339945677 0 -6.2865472051784819 0 1 0 I I #
point $-1 -47.27683339945677 23.002422310175465 -6.2865472051784819 #
coedge $-1 $689 $688 $694 $779 reversed $360 $-1 #
vertex $-1 $701 $814 #
straight-curve $-1 0 -23.002422310175465 6.2865472051784819 1 0 0 I I #
edge $-1 $777 -6.2865472051784819 $780 6.2865472051784819 $776 $815 forward 7 unknown #
vertex $-1 $699 $816 #
straight-curve $-1 0 -23.002422310175465 -6.2865472051784819 -1 0 0 I I #
straight-curve $-1 -47.27683339945677 0 -6.2865472051784819 0 1 0 I I #
straight-curve $-1 -47.27683339945677 0 6.2865472051784819 0 -1 0 I I #
straight-curve $-1 0.51562882008517263 -23.002422310175461 24.984900424256889 0 0 -1 I I #
point $-1 0.51562882008517263 -23.002422310175465 6.2865472051784819 #
straight-curve $-1 5.0098587894693942 -23.002422310175465 2.6929687158371514 1 0 0 I I #
point $-1 0.51562882008517263 -23.002422310175465 2.6929687158371514 #
point $-1 5.9465366822872312 -20.431641182445816 3.604446542840503 #
point $-1 14.092898475590324 -20.431641182445816 3.604446542840503 #
straight-curve $-1 -24.654370512610861 23.002422310175465 52.740619136190212 0 0 -1 I I #
point $-1 -24.654370512610861 23.002422310175465 6.2865472051784819 #
straight-curve $-1 -15.388164447494251 23.002422310175461 1.6401141361454741 -1 0 0 I I #
point $-1 -24.654370512610861 23.002422310175469 1.6401141361454741 #
point $-1 -33.400025344578921 18.142676489898705 1.7613423925424014 #
point $-1 -28.152632445398083 18.142676489898705 1.7613423925424014 #
straight-curve $-1 -2.2109455308904362 23.002422310175465 52.740619136190212 0 0 -1 I I #
point $-1 -2.2109455308904362 23.002422310175465 6.2865472051784819 #
straight-curve $-1 -4.1664519566340381 23.002422310175461 1.6401141361454741 -1 0 0 I I #
point $-1 -2.2109455308904362 23.002422310175469 1.6401141361454741 #
point $-1 -10.956600362858488 18.142676489898705 1.7613423925424014 #
point $-1 -5.7092074636776502 18.142676489898705 1.7613423925424014 #
straight-curve $-1 20.232479450829992 23.002422310175465 52.740619136190212 0 0 -1 I I #
point $-1 20.232479450829992 23.002422310175465 6.2865472051784819 #
straight-curve $-1 7.0552605342261749 23.002422310175461 1.6401141361454741 -1 0 0 I I #
point $-1 20.232479450829992 23.002422310175469 1.6401141361454741 #
point $-1 11.486824618861938 18.142676489898705 1.7613423925424014 #
point $-1 16.734217518042776 18.142676489898705 1.7613423925424014 #
straight-curve $-1 42.675904432550418 23.002422310175465 52.740619136190212 0 0 -1 I I #
point $-1 42.675904432550418 23.002422310175465 6.2865472051784819 #
straight-curve $-1 18.276973025086388 23.002422310175461 1.6401141361454741 -1 0 0 I I #
point $-1 42.675904432550418 23.002422310175469 1.6401141361454741 #
point $-1 33.930249600582364 18.142676489898705 1.7613423925424014 #
point $-1 39.177642499763202 18.142676489898705 1.7613423925424014 #
point $-1 -47.27683339945677 -23.002422310175465 6.2865472051784819 #
straight-curve $-1 -47.27683339945677 -23.002422310175465 0 0 0 -1 I I #
point $-1 -47.27683339945677 -23.002422310175465 -6.2865472051784819 #
End-of-ACIS-data 