500 0 3 0           
7 Unknown 11 ACIS 5.0 NT 24 Fri Mar 26 15:04:10 1999 
-1 9.9999999999999995e-007 1e-010 
body $-1 $3 $-1 $4 #
body $-1 $5 $-1 $6 #
body $-1 $7 $-1 $8 #
lump $-1 $-1 $9 $0 #
transform $-1 1 0 0 0 1 0 0 0 1 58.192693868831448 24.366625497864565 11.568253819238267 1 rotate no_reflect no_shear #
lump $-1 $-1 $10 $1 #
transform $-1 1 0 0 0 1 0 0 0 1 58.192693868831448 24.366625497864565 11.568253819238267 1 rotate no_reflect no_shear #
lump $-1 $-1 $11 $2 #
transform $-1 1 0 0 0 1 0 0 0 1 58.192693868831448 24.366625497864565 11.568253819238267 1 rotate no_reflect no_shear #
shell $-1 $-1 $-1 $12 $-1 $3 #
shell $-1 $-1 $-1 $13 $-1 $5 #
shell $-1 $-1 $-1 $14 $-1 $7 #
face $-1 $15 $16 $9 $-1 $17 reversed single #
face $-1 $18 $19 $10 $-1 $20 forward single #
face $-1 $21 $22 $11 $-1 $23 forward single #
face $-1 $24 $25 $9 $-1 $26 forward single #
loop $-1 $-1 $27 $12 #
plane-surface $-1 0 -24.366625497864565 0 0 1 0 0 0 1 forward_v I I I I #
face $-1 $28 $29 $10 $-1 $30 forward single #
loop $-1 $-1 $31 $13 #
plane-surface $-1 0 -24.366625497864565 0 0 1 0 0 0 1 forward_v I I I I #
face $-1 $32 $33 $11 $-1 $34 reversed single #
loop $-1 $-1 $35 $14 #
plane-surface $-1 0 17.091345834217289 -5.8573133171855281 0 0 1 1 0 0 forward_v I I I I #
face $-1 $36 $37 $9 $-1 $38 reversed single #
loop $-1 $-1 $39 $15 #
plane-surface $-1 0 0 11.568253819238267 0 0 1 1 0 0 forward_v I I I I #
coedge $-1 $40 $41 $42 $43 reversed $16 $-1 #
face $-1 $44 $45 $10 $-1 $46 reversed single #
loop $-1 $-1 $47 $18 #
plane-surface $-1 0 0 11.568253819238267 0 0 1 1 0 0 forward_v I I I I #
coedge $-1 $48 $49 $50 $51 forward $19 $-1 #
face $-1 $52 $53 $11 $-1 $54 reversed single #
loop $-1 $-1 $55 $21 #
plane-surface $-1 0 9.8160661705700107 -8.712783568211897 0 1 0 0 0 1 forward_v I I I I #
coedge $-1 $56 $57 $58 $59 reversed $22 $-1 #
face $-1 $60 $61 $9 $-1 $62 reversed single #
loop $-1 $-1 $63 $24 #
plane-surface $-1 0 0 -11.568253819238267 0 0 1 1 0 0 forward_v I I I I #
coedge $-1 $64 $65 $66 $67 forward $25 $-1 #
coedge $-1 $68 $27 $69 $70 reversed $16 $-1 #
coedge $-1 $27 $68 $71 $72 forward $16 $-1 #
coedge $-1 $73 $63 $27 $43 forward $37 $-1 #
edge $-1 $74 -58.192693868831448 $75 58.192693868831448 $27 $76 forward 7 unknown #
face $-1 $77 $78 $10 $-1 $79 reversed single #
loop $-1 $-1 $80 $28 #
plane-surface $-1 -58.192693868831448 0 0 1 0 0 0 0 -1 forward_v I I I I #
coedge $-1 $81 $82 $49 $83 forward $29 $-1 #
coedge $-1 $84 $31 $85 $86 reversed $19 $-1 #
coedge $-1 $31 $84 $47 $83 reversed $19 $-1 #
coedge $-1 $87 $88 $31 $51 reversed $89 $-1 #
edge $-1 $90 -11.568253819238267 $91 11.568253819238267 $50 $92 forward 7 unknown #
face $-1 $93 $94 $11 $-1 $95 reversed single #
loop $-1 $-1 $96 $32 #
plane-surface $-1 0 24.366625497864565 0 0 -1 0 0 0 -1 forward_v I I I I #
coedge $-1 $97 $98 $99 $100 reversed $33 $-1 #
coedge $-1 $101 $35 $96 $102 reversed $22 $-1 #
coedge $-1 $35 $101 $98 $103 forward $22 $-1 #
coedge $-1 $104 $105 $35 $59 forward $94 $-1 #
edge $-1 $106 -15.820952580755923 $107 -1.270393253461366 $58 $108 forward 7 unknown #
face $-1 $109 $110 $9 $-1 $111 reversed single #
loop $-1 $-1 $112 $36 #
plane-surface $-1 -58.192693868831448 0 0 1 0 0 0 0 -1 forward_v I I I I #
coedge $-1 $42 $113 $114 $115 forward $37 $-1 #
coedge $-1 $116 $39 $117 $118 forward $25 $-1 #
coedge $-1 $39 $116 $68 $119 forward $25 $-1 #
coedge $-1 $69 $120 $39 $67 reversed $121 $-1 #
edge $-1 $122 -24.366625497864565 $123 24.366625497864565 $66 $124 forward 7 unknown #
coedge $-1 $41 $40 $65 $119 reversed $16 $-1 #
coedge $-1 $114 $66 $40 $70 forward $121 $-1 #
edge $-1 $122 -11.568253819238267 $74 11.568253819238267 $69 $125 forward 7 unknown #
coedge $-1 $126 $127 $41 $72 reversed $61 $-1 #
edge $-1 $128 -11.568253819238267 $75 11.568253819238267 $71 $129 forward 7 unknown #
coedge $-1 $113 $42 $127 $130 forward $37 $-1 #
vertex $-1 $70 $131 #
vertex $-1 $130 $132 #
straight-curve $-1 0 -24.366625497864565 -11.568253819238267 -1 0 0 I I #
face $-1 $133 $89 $10 $-1 $134 reversed single #
loop $-1 $-1 $135 $44 #
plane-surface $-1 -56.07798444923688 -34.386766143408686 0 0 1 0 0 0 1 forward_v I I I I #
coedge $-1 $136 $137 $84 $138 forward $45 $-1 #
coedge $-1 $139 $47 $137 $140 forward $29 $-1 #
coedge $-1 $47 $139 $87 $141 forward $29 $-1 #
edge $-1 $90 53.963275029642311 $142 58.192693868831448 $47 $143 forward 7 unknown #
coedge $-1 $49 $48 $80 $138 reversed $19 $-1 #
coedge $-1 $144 $145 $48 $86 forward $146 $-1 #
edge $-1 $147 -58.192693868831448 $91 -53.963275029642311 $85 $148 forward 7 unknown #
coedge $-1 $149 $50 $82 $141 reversed $89 $-1 #
coedge $-1 $50 $149 $144 $150 reversed $89 $-1 #
loop $-1 $-1 $149 $77 #
vertex $-1 $83 $151 #
vertex $-1 $150 $152 #
straight-curve $-1 -53.963275029642311 -24.366625497864565 0 0 0 -1 I I #
face $-1 $153 $154 $11 $-1 $155 reversed single #
loop $-1 $-1 $58 $52 #
plane-surface $-1 58.192693868831448 0 0 -1 0 0 0 0 1 forward_v I I I I #
coedge $-1 $156 $157 $56 $102 forward $53 $-1 #
coedge $-1 $158 $55 $159 $160 reversed $33 $-1 #
coedge $-1 $55 $158 $57 $103 reversed $33 $-1 #
coedge $-1 $161 $162 $55 $100 forward $163 $-1 #
edge $-1 $164 -7.2118620351323166 $165 -1.5009215330795795 $99 $166 forward 7 unknown #
coedge $-1 $57 $56 $161 $167 reversed $22 $-1 #
edge $-1 $168 -58.192693868831448 $106 58.192693868831448 $96 $169 forward 7 unknown #
edge $-1 $165 -58.192693868831448 $107 58.192693868831448 $98 $170 forward 7 unknown #
coedge $-1 $171 $58 $158 $172 forward $94 $-1 #
coedge $-1 $58 $171 $156 $173 reversed $94 $-1 #
vertex $-1 $173 $174 #
vertex $-1 $59 $175 #
straight-curve $-1 58.192693868831448 8.5456729171086447 -5.8573133171855281 0 -1 0 I I #
face $-1 $-1 $121 $9 $-1 $176 reversed single #
loop $-1 $-1 $177 $60 #
plane-surface $-1 0 24.366625497864565 0 0 -1 0 0 0 -1 forward_v I I I I #
coedge $-1 $127 $126 $178 $179 forward $61 $-1 #
coedge $-1 $63 $73 $180 $181 forward $37 $-1 #
coedge $-1 $120 $69 $63 $115 reversed $121 $-1 #
edge $-1 $182 -24.366625497864565 $74 24.366625497864565 $114 $183 forward 7 unknown #
coedge $-1 $65 $64 $126 $184 forward $25 $-1 #
coedge $-1 $177 $178 $64 $118 reversed $110 $-1 #
edge $-1 $123 -58.192693868831448 $185 58.192693868831448 $117 $186 forward 7 unknown #
edge $-1 $128 -58.192693868831448 $122 58.192693868831448 $68 $187 forward 7 unknown #
coedge $-1 $66 $114 $177 $188 reversed $121 $-1 #
loop $-1 $-1 $69 $109 #
vertex $-1 $67 $189 #
vertex $-1 $67 $190 #
straight-curve $-1 58.192693868831448 0 11.568253819238267 0 1 0 I I #
straight-curve $-1 58.192693868831448 -24.366625497864565 0 0 0 -1 I I #
coedge $-1 $112 $71 $116 $184 reversed $61 $-1 #
coedge $-1 $71 $112 $73 $130 reversed $61 $-1 #
vertex $-1 $184 $191 #
straight-curve $-1 -58.192693868831448 -24.366625497864565 0 0 0 -1 I I #
edge $-1 $75 -24.366625497864565 $192 24.366625497864565 $127 $193 forward 7 unknown #
point $-1 58.192693868831448 -24.366625497864565 -11.568253819238267 #
point $-1 -58.192693868831448 -24.366625497864565 -11.568253819238267 #
face $-1 $-1 $146 $10 $-1 $194 reversed single #
plane-surface $-1 -53.963275029642311 -29.376695820636623 0 -1 0 0 0 0 1 forward_v I I I I #
coedge $-1 $195 $196 $197 $198 forward $78 $-1 #
coedge $-1 $197 $80 $145 $199 reversed $45 $-1 #
coedge $-1 $80 $197 $81 $140 reversed $45 $-1 #
edge $-1 $142 -11.568253819238267 $147 11.568253819238267 $80 $200 forward 7 unknown #
coedge $-1 $82 $81 $196 $201 forward $29 $-1 #
edge $-1 $142 24.366625497864565 $202 34.386766143408686 $137 $203 forward 7 unknown #
edge $-1 $204 -5.0100703227720622 $90 5.0100703227720587 $87 $205 forward 7 unknown #
vertex $-1 $140 $206 #
straight-curve $-1 0 -24.366625497864565 11.568253819238267 -1 0 0 I I #
coedge $-1 $207 $85 $88 $150 forward $146 $-1 #
coedge $-1 $85 $207 $136 $199 forward $146 $-1 #
loop $-1 $-1 $85 $133 #
vertex $-1 $138 $208 #
straight-curve $-1 0 -24.366625497864565 -11.568253819238267 1 0 0 I I #
coedge $-1 $88 $87 $209 $210 forward $89 $-1 #
edge $-1 $91 -5.0100703227720587 $211 5.0100703227720622 $88 $212 forward 7 unknown #
point $-1 -53.963275029642311 -24.366625497864565 11.568253819238267 #
point $-1 -53.963275029642311 -24.366625497864565 -11.568253819238267 #
face $-1 $-1 $163 $11 $-1 $213 reversed single #
loop $-1 $-1 $159 $93 #
plane-surface $-1 0 0 -11.568253819238267 0 0 1 1 0 0 forward_v I I I I #
coedge $-1 $214 $96 $105 $173 forward $53 $-1 #
coedge $-1 $96 $214 $215 $216 reversed $53 $-1 #
coedge $-1 $98 $97 $104 $172 reversed $33 $-1 #
coedge $-1 $217 $218 $97 $160 forward $154 $-1 #
edge $-1 $219 -58.192693868831448 $164 58.192693868831448 $159 $220 forward 7 unknown #
coedge $-1 $215 $99 $101 $167 forward $163 $-1 #
coedge $-1 $99 $215 $217 $221 reversed $163 $-1 #
loop $-1 $-1 $161 $153 #
vertex $-1 $221 $222 #
vertex $-1 $167 $223 #
straight-curve $-1 -58.192693868831448 9.8160661705700107 -4.3563917841059485 0 0 1 I I #
edge $-1 $165 1.270393253461366 $168 15.820952580755923 $161 $224 forward 7 unknown #
vertex $-1 $216 $225 #
straight-curve $-1 0 24.366625497864565 -5.8573133171855281 1 0 0 I I #
straight-curve $-1 0 9.8160661705700107 -5.8573133171855281 1 0 0 I I #
coedge $-1 $105 $104 $218 $226 reversed $94 $-1 #
edge $-1 $107 1.5009215330795795 $219 7.2118620351323166 $104 $227 forward 7 unknown #
edge $-1 $106 5.8573133171855281 $228 11.568253819238267 $105 $229 forward 7 unknown #
point $-1 58.192693868831448 24.366625497864568 -5.8573133171855281 #
point $-1 58.192693868831448 9.8160661705700107 -5.8573133171855281 #
plane-surface $-1 58.192693868831448 0 0 -1 0 0 0 0 1 forward_v I I I I #
coedge $-1 $180 $117 $120 $188 forward $110 $-1 #
coedge $-1 $117 $180 $112 $179 reversed $110 $-1 #
edge $-1 $185 -11.568253819238267 $192 11.568253819238267 $178 $230 forward 7 unknown #
coedge $-1 $178 $177 $113 $181 reversed $110 $-1 #
edge $-1 $192 -58.192693868831448 $182 58.192693868831448 $180 $231 forward 7 unknown #
vertex $-1 $115 $232 #
straight-curve $-1 58.192693868831448 0 -11.568253819238267 0 -1 0 I I #
edge $-1 $185 -24.366625497864565 $128 24.366625497864565 $126 $233 forward 7 unknown #
vertex $-1 $118 $234 #
straight-curve $-1 0 24.366625497864565 11.568253819238267 -1 0 0 I I #
straight-curve $-1 0 -24.366625497864565 11.568253819238267 1 0 0 I I #
edge $-1 $123 -11.568253819238267 $182 11.568253819238267 $120 $235 forward 7 unknown #
point $-1 58.192693868831448 -24.366625497864565 11.568253819238267 #
point $-1 58.192693868831448 24.366625497864565 11.568253819238267 #
point $-1 -58.192693868831448 -24.366625497864565 11.568253819238267 #
vertex $-1 $181 $236 #
straight-curve $-1 -58.192693868831448 0 -11.568253819238267 0 1 0 I I #
plane-surface $-1 0 0 -11.568253819238267 0 0 1 1 0 0 forward_v I I I I #
coedge $-1 $209 $135 $207 $237 reversed $78 $-1 #
coedge $-1 $135 $209 $139 $201 reversed $78 $-1 #
coedge $-1 $137 $136 $135 $198 reversed $45 $-1 #
edge $-1 $202 -11.568253819238267 $238 11.568253819238267 $197 $239 forward 7 unknown #
edge $-1 $238 -34.386766143408686 $147 -24.366625497864565 $136 $240 forward 7 unknown #
straight-curve $-1 -58.192693868831448 -24.366625497864565 0 0 0 -1 I I #
edge $-1 $202 -2.1147094195945684 $204 2.1147094195945684 $196 $241 forward 7 unknown #
vertex $-1 $140 $242 #
straight-curve $-1 -58.192693868831448 0 11.568253819238267 0 -1 0 I I #
vertex $-1 $141 $243 #
straight-curve $-1 -53.963275029642311 -29.376695820636623 11.568253819238267 0 1 0 I I #
point $-1 -58.192693868831448 -24.366625497864565 11.568253819238267 #
coedge $-1 $145 $144 $195 $237 forward $146 $-1 #
point $-1 -58.192693868831448 -24.366625497864565 -11.568253819238267 #
coedge $-1 $196 $195 $149 $210 reversed $78 $-1 #
edge $-1 $204 -11.568253819238267 $211 11.568253819238267 $149 $244 forward 7 unknown #
vertex $-1 $210 $245 #
straight-curve $-1 -53.963275029642311 -29.376695820636623 -11.568253819238267 0 -1 0 I I #
plane-surface $-1 -58.192693868831448 0 0 1 0 0 0 0 -1 forward_v I I I I #
coedge $-1 $157 $156 $246 $247 reversed $53 $-1 #
coedge $-1 $162 $161 $157 $216 forward $163 $-1 #
edge $-1 $168 5.8573133171855281 $248 11.568253819238267 $157 $249 forward 7 unknown #
coedge $-1 $246 $159 $162 $221 forward $154 $-1 #
coedge $-1 $159 $246 $171 $226 forward $154 $-1 #
vertex $-1 $172 $250 #
straight-curve $-1 0 9.8160661705700107 -11.568253819238267 -1 0 0 I I #
edge $-1 $164 9.8160661705700107 $248 24.366625497864565 $162 $251 forward 7 unknown #
point $-1 -58.192693868831448 9.8160661705700107 -11.568253819238265 #
point $-1 -58.192693868831448 9.8160661705700107 -5.8573133171855281 #
straight-curve $-1 -58.192693868831448 8.5456729171086447 -5.8573133171855281 0 1 0 I I #
point $-1 -58.192693868831448 24.366625497864568 -5.8573133171855281 #
edge $-1 $228 -24.366625497864565 $219 -9.8160661705700107 $171 $252 forward 7 unknown #
straight-curve $-1 58.192693868831448 9.8160661705700107 -4.3563917841059485 0 0 -1 I I #
vertex $-1 $226 $253 #
straight-curve $-1 58.192693868831448 24.366625497864565 0 0 0 -1 I I #
straight-curve $-1 -58.192693868831448 24.366625497864565 0 0 0 -1 I I #
straight-curve $-1 0 24.366625497864565 -11.568253819238267 1 0 0 I I #
point $-1 58.192693868831448 24.366625497864565 -11.568253819238267 #
straight-curve $-1 -58.192693868831448 0 11.568253819238267 0 -1 0 I I #
point $-1 -58.192693868831448 24.366625497864565 11.568253819238267 #
straight-curve $-1 58.192693868831448 24.366625497864565 0 0 0 -1 I I #
point $-1 -58.192693868831448 24.366625497864565 -11.568253819238267 #
edge $-1 $211 -2.1147094195945684 $238 2.1147094195945684 $195 $254 forward 7 unknown #
vertex $-1 $199 $255 #
straight-curve $-1 -58.192693868831448 -34.386766143408686 0 0 0 -1 I I #
straight-curve $-1 -58.192693868831448 0 -11.568253819238267 0 1 0 I I #
straight-curve $-1 -56.07798444923688 -34.386766143408686 11.568253819238267 1 0 0 I I #
point $-1 -58.192693868831448 -34.386766143408686 11.568253819238267 #
point $-1 -53.963275029642311 -34.386766143408686 11.568253819238267 #
straight-curve $-1 -53.963275029642311 -34.386766143408686 0 0 0 -1 I I #
point $-1 -53.963275029642311 -34.386766143408686 -11.568253819238267 #
coedge $-1 $218 $217 $214 $247 forward $154 $-1 #
edge $-1 $248 -58.192693868831448 $228 58.192693868831448 $214 $256 forward 7 unknown #
vertex $-1 $247 $257 #
straight-curve $-1 -58.192693868831448 24.366625497864565 0 0 0 -1 I I #
point $-1 58.192693868831448 9.8160661705700107 -11.568253819238265 #
straight-curve $-1 -58.192693868831448 0 -11.568253819238267 0 1 0 I I #
straight-curve $-1 58.192693868831448 0 -11.568253819238267 0 -1 0 I I #
point $-1 58.192693868831448 24.366625497864565 -11.568253819238267 #
straight-curve $-1 -56.07798444923688 -34.386766143408686 -11.568253819238267 -1 0 0 I I #
point $-1 -58.192693868831448 -34.386766143408686 -11.568253819238267 #
straight-curve $-1 0 24.366625497864565 -11.568253819238267 1 0 0 I I #
point $-1 -58.192693868831448 24.366625497864565 -11.568253819238267 #
End-of-ACIS-data 