500 0 18 0           
7 Unknown 11 ACIS 5.0 NT 24 Fri Mar 26 18:56:44 1999 
-1 9.9999999999999995e-007 1e-010 
body $-1 $18 $-1 $19 #
body $-1 $20 $-1 $21 #
body $-1 $22 $-1 $23 #
body $-1 $24 $-1 $25 #
body $-1 $26 $-1 $27 #
body $-1 $28 $-1 $29 #
body $-1 $30 $-1 $31 #
body $-1 $32 $-1 $33 #
body $-1 $34 $-1 $35 #
body $-1 $36 $-1 $37 #
body $-1 $38 $-1 $39 #
body $-1 $40 $-1 $41 #
body $-1 $42 $-1 $43 #
body $-1 $44 $-1 $45 #
body $-1 $46 $-1 $47 #
body $-1 $48 $-1 $49 #
body $-1 $50 $-1 $51 #
body $-1 $52 $-1 $53 #
lump $-1 $-1 $54 $0 #
transform $-1 1 0 0 0 1 0 0 0 1 66.637775811029385 42.505045727055254 11.763703045148269 1 rotate no_reflect no_shear #
lump $-1 $-1 $55 $1 #
transform $-1 1 0 0 0 1 0 0 0 1 66.637775811029385 42.505045727055254 11.763703045148269 1 rotate no_reflect no_shear #
lump $-1 $-1 $56 $2 #
transform $-1 1 0 0 0 1 0 0 0 1 66.637775811029385 42.505045727055254 11.763703045148269 1 rotate no_reflect no_shear #
lump $-1 $-1 $57 $3 #
transform $-1 1 0 0 0 1 0 0 0 1 66.637775811029385 42.505045727055254 11.763703045148269 1 rotate no_reflect no_shear #
lump $-1 $-1 $58 $4 #
transform $-1 1 0 0 0 1 0 0 0 1 66.637775811029385 42.505045727055254 11.763703045148269 1 rotate no_reflect no_shear #
lump $-1 $-1 $59 $5 #
transform $-1 1 0 0 0 1 0 0 0 1 66.637775811029385 42.505045727055254 11.763703045148269 1 rotate no_reflect no_shear #
lump $-1 $-1 $60 $6 #
transform $-1 1 0 0 0 1 0 0 0 1 66.637775811029385 42.505045727055254 11.763703045148269 1 rotate no_reflect no_shear #
lump $-1 $-1 $61 $7 #
transform $-1 1 0 0 0 1 0 0 0 1 66.637775811029385 42.505045727055254 11.763703045148269 1 rotate no_reflect no_shear #
lump $-1 $-1 $62 $8 #
transform $-1 1 0 0 0 1 0 0 0 1 66.637775811029385 42.505045727055254 11.763703045148269 1 rotate no_reflect no_shear #
lump $-1 $-1 $63 $9 #
transform $-1 1 0 0 0 1 0 0 0 1 66.637775811029385 42.505045727055254 11.763703045148269 1 rotate no_reflect no_shear #
lump $-1 $-1 $64 $10 #
transform $-1 1 0 0 0 1 0 0 0 1 66.637775811029385 42.505045727055254 11.763703045148269 1 rotate no_reflect no_shear #
lump $-1 $-1 $65 $11 #
transform $-1 1 0 0 0 1 0 0 0 1 66.637775811029385 42.505045727055254 11.763703045148269 1 rotate no_reflect no_shear #
lump $-1 $-1 $66 $12 #
transform $-1 1 0 0 0 1 0 0 0 1 66.637775811029385 42.505045727055254 11.763703045148269 1 rotate no_reflect no_shear #
lump $-1 $-1 $67 $13 #
transform $-1 1 0 0 0 1 0 0 0 1 66.637775811029385 42.505045727055254 11.763703045148269 1 rotate no_reflect no_shear #
lump $-1 $-1 $68 $14 #
transform $-1 1 0 0 0 1 0 0 0 1 66.637775811029385 42.505045727055254 11.763703045148269 1 rotate no_reflect no_shear #
lump $-1 $-1 $69 $15 #
transform $-1 1 0 0 0 1 0 0 0 1 66.637775811029385 42.505045727055254 11.763703045148269 1 rotate no_reflect no_shear #
lump $-1 $-1 $70 $16 #
transform $-1 1 0 0 0 1 0 0 0 1 66.637775811029385 42.505045727055254 11.763703045148269 1 rotate no_reflect no_shear #
lump $-1 $-1 $71 $17 #
transform $-1 1 0 0 0 1 0 0 0 1 66.637775811029385 42.505045727055254 11.763703045148269 1 rotate no_reflect no_shear #
shell $-1 $-1 $-1 $72 $-1 $18 #
shell $-1 $-1 $-1 $73 $-1 $20 #
shell $-1 $-1 $-1 $74 $-1 $22 #
shell $-1 $-1 $-1 $75 $-1 $24 #
shell $-1 $-1 $-1 $76 $-1 $26 #
shell $-1 $-1 $-1 $77 $-1 $28 #
shell $-1 $-1 $-1 $78 $-1 $30 #
shell $-1 $-1 $-1 $79 $-1 $32 #
shell $-1 $-1 $-1 $80 $-1 $34 #
shell $-1 $-1 $-1 $81 $-1 $36 #
shell $-1 $-1 $-1 $82 $-1 $38 #
shell $-1 $-1 $-1 $83 $-1 $40 #
shell $-1 $-1 $-1 $84 $-1 $42 #
shell $-1 $-1 $-1 $85 $-1 $44 #
shell $-1 $-1 $-1 $86 $-1 $46 #
shell $-1 $-1 $-1 $87 $-1 $48 #
shell $-1 $-1 $-1 $88 $-1 $50 #
shell $-1 $-1 $-1 $89 $-1 $52 #
face $-1 $90 $91 $54 $-1 $92 forward single #
face $-1 $93 $94 $55 $-1 $95 forward single #
face $-1 $96 $97 $56 $-1 $98 reversed single #
face $-1 $99 $100 $57 $-1 $101 forward single #
face $-1 $102 $103 $58 $-1 $104 forward single #
face $-1 $105 $106 $59 $-1 $107 forward single #
face $-1 $108 $109 $60 $-1 $110 reversed single #
face $-1 $111 $112 $61 $-1 $113 forward single #
face $-1 $114 $115 $62 $-1 $116 forward single #
face $-1 $117 $118 $63 $-1 $119 forward single #
face $-1 $120 $121 $64 $-1 $122 reversed single #
face $-1 $123 $124 $65 $-1 $125 forward single #
face $-1 $126 $127 $66 $-1 $128 forward single #
face $-1 $129 $130 $67 $-1 $131 forward single #
face $-1 $132 $133 $68 $-1 $134 reversed single #
face $-1 $135 $136 $69 $-1 $137 forward single #
face $-1 $138 $139 $70 $-1 $140 forward single #
face $-1 $141 $142 $71 $-1 $143 forward single #
face $-1 $144 $145 $54 $-1 $146 reversed single #
loop $-1 $-1 $147 $72 #
plane-surface $-1 0 0 11.763703045148269 0 0 1 1 0 0 forward_v I I I I #
face $-1 $148 $149 $55 $-1 $150 reversed single #
loop $-1 $-1 $151 $73 #
plane-surface $-1 -60.792292070628584 0 1.5593073461999594 0 0 1 1 0 0 forward_v I I I I #
face $-1 $152 $153 $56 $-1 $154 reversed single #
loop $-1 $-1 $155 $74 #
plane-surface $-1 -50.488435188482086 -147.52761469821712 89.237001686648625 1 0 0 0 0.78801076186113728 -0.61566146476048833 forward_v I I I I #
face $-1 $156 $157 $57 $-1 $158 forward single #
loop $-1 $159 $160 $75 #
cone-surface $-1 -46.93176977538117 -40.0031640798897 8.9169833470367763 0 0.78801076186113728 -0.61566146476048833 1 0 0 1 I I 0 1 1 forward I I I I #
face $-1 $161 $162 $58 $-1 $163 forward single #
loop $-1 $164 $165 $76 #
cone-surface $-1 -41.596771655729789 -40.0031640798897 8.9169833470367763 0 0.78801076186113728 -0.61566146476048833 1 0 0 1 I I 0 1 1 forward I I I I #
face $-1 $166 $167 $59 $-1 $168 forward single #
loop $-1 $169 $170 $77 #
cone-surface $-1 -36.261773536078408 -40.0031640798897 8.9169833470367763 0 0.78801076186113728 -0.61566146476048833 1 0 0 1 I I 0 1 1 forward I I I I #
face $-1 $171 $172 $60 $-1 $173 reversed single #
loop $-1 $-1 $174 $78 #
plane-surface $-1 44.396075603779117 -147.52761469821712 89.237001686648625 1 0 0 0 0.78801076186113728 -0.61566146476048833 forward_v I I I I #
face $-1 $175 $176 $61 $-1 $177 forward single #
loop $-1 $178 $179 $79 #
cone-surface $-1 47.952741016880026 -40.0031640798897 8.9169833470367763 0 0.78801076186113728 -0.61566146476048833 1 0 0 1 I I 0 1 1 forward I I I I #
face $-1 $180 $181 $62 $-1 $182 forward single #
loop $-1 $183 $184 $80 #
cone-surface $-1 53.287739136531414 -40.0031640798897 8.9169833470367763 0 0.78801076186113728 -0.61566146476048833 1 0 0 1 I I 0 1 1 forward I I I I #
face $-1 $185 $186 $63 $-1 $187 forward single #
loop $-1 $188 $189 $81 #
cone-surface $-1 58.622737256182788 -40.0031640798897 8.9169833470367763 0 0.78801076186113728 -0.61566146476048833 1 0 0 1 I I 0 1 1 forward I I I I #
face $-1 $190 $191 $64 $-1 $192 reversed single #
loop $-1 $-1 $193 $82 #
plane-surface $-1 -50.488435188482086 95.190177274156355 156.22586861928718 1 0 0 0 -0.78801076186113728 -0.61566146476048833 forward_v I I I I #
face $-1 $194 $195 $65 $-1 $196 forward single #
loop $-1 $197 $198 $83 #
cone-surface $-1 -46.93176977538117 40.003164079889693 8.9169833470367728 0 -0.78801076186113728 -0.61566146476048833 1 0 0 1 I I 0 1 1 forward I I I I #
face $-1 $199 $200 $66 $-1 $201 forward single #
loop $-1 $202 $203 $84 #
cone-surface $-1 -41.596771655729789 40.003164079889693 8.9169833470367728 0 -0.78801076186113728 -0.61566146476048833 1 0 0 1 I I 0 1 1 forward I I I I #
face $-1 $204 $205 $67 $-1 $206 forward single #
loop $-1 $207 $208 $85 #
cone-surface $-1 -36.261773536078408 40.003164079889693 8.9169833470367728 0 -0.78801076186113728 -0.61566146476048833 1 0 0 1 I I 0 1 1 forward I I I I #
face $-1 $209 $210 $68 $-1 $211 reversed single #
loop $-1 $-1 $212 $86 #
plane-surface $-1 44.396075603779117 95.190177274156355 156.22586861928718 1 0 0 0 -0.78801076186113728 -0.61566146476048833 forward_v I I I I #
face $-1 $213 $214 $69 $-1 $215 forward single #
loop $-1 $216 $217 $87 #
cone-surface $-1 47.952741016880026 40.003164079889693 8.9169833470367728 0 -0.78801076186113728 -0.61566146476048833 1 0 0 1 I I 0 1 1 forward I I I I #
face $-1 $218 $219 $70 $-1 $220 forward single #
loop $-1 $221 $222 $88 #
cone-surface $-1 53.287739136531414 40.003164079889693 8.9169833470367728 0 -0.78801076186113728 -0.61566146476048833 1 0 0 1 I I 0 1 1 forward I I I I #
face $-1 $223 $224 $71 $-1 $225 forward single #
loop $-1 $226 $227 $89 #
cone-surface $-1 58.622737256182788 40.003164079889693 8.9169833470367728 0 -0.78801076186113728 -0.61566146476048833 1 0 0 1 I I 0 1 1 forward I I I I #
face $-1 $228 $229 $54 $-1 $230 reversed single #
loop $-1 $-1 $231 $90 #
plane-surface $-1 0 0 -11.763703045148269 0 0 1 1 0 0 forward_v I I I I #
coedge $-1 $232 $233 $234 $235 forward $91 $-1 #
face $-1 $236 $237 $55 $-1 $238 reversed single #
loop $-1 $-1 $239 $93 #
plane-surface $-1 -60.792292070628584 0 -3.9690981591022712 0 0 1 1 0 0 forward_v I I I I #
coedge $-1 $240 $241 $242 $243 forward $94 $-1 #
face $-1 $244 $245 $56 $-1 $246 reversed single #
loop $-1 $-1 $247 $96 #
plane-surface $-1 -41.596771655729789 -42.505045727055261 7.1843803582498396 0 -0.78801076186113728 0.61566146476048833 1 0 0 forward_v I I I I #
coedge $-1 $248 $249 $250 $251 reversed $97 $-1 #
face $-1 $-1 $252 $57 $-1 $253 forward single #
loop $-1 $254 $255 $99 #
cone-surface $-1 -46.93176977538117 -38.896156499561599 8.0520942599942522 0 0.78801076186113728 -0.61566146476048833 0.5 0 0 1 I I -0.70710678118654746 0.70710678118654746 0.5 forward I I I I #
loop $-1 $-1 $256 $75 #
coedge $-1 $160 $160 $257 $258 reversed $100 $-1 #
face $-1 $-1 $259 $58 $-1 $260 forward single #
loop $-1 $261 $262 $102 #
cone-surface $-1 -41.596771655729789 -38.896156499561599 8.0520942599942522 0 0.78801076186113728 -0.61566146476048833 0.5 0 0 1 I I -0.70710678118654746 0.70710678118654746 0.5 forward I I I I #
loop $-1 $-1 $263 $76 #
coedge $-1 $165 $165 $264 $265 reversed $103 $-1 #
face $-1 $-1 $266 $59 $-1 $267 forward single #
loop $-1 $268 $269 $105 #
cone-surface $-1 -36.261773536078408 -38.896156499561599 8.0520942599942522 0 0.78801076186113728 -0.61566146476048833 0.5 0 0 1 I I -0.70710678118654746 0.70710678118654746 0.5 forward I I I I #
loop $-1 $-1 $270 $77 #
coedge $-1 $170 $170 $271 $272 reversed $106 $-1 #
face $-1 $273 $274 $60 $-1 $275 reversed single #
loop $-1 $-1 $276 $108 #
plane-surface $-1 53.287739136531414 -42.505045727055261 7.1843803582498396 0 -0.78801076186113728 0.61566146476048833 1 0 0 forward_v I I I I #
coedge $-1 $277 $278 $279 $280 reversed $109 $-1 #
face $-1 $-1 $281 $61 $-1 $282 forward single #
loop $-1 $283 $284 $111 #
cone-surface $-1 47.952741016880026 -38.896156499561599 8.0520942599942522 0 0.78801076186113728 -0.61566146476048833 0.5 0 0 1 I I -0.70710678118654746 0.70710678118654746 0.5 forward I I I I #
loop $-1 $-1 $285 $79 #
coedge $-1 $179 $179 $286 $287 reversed $112 $-1 #
face $-1 $-1 $288 $62 $-1 $289 forward single #
loop $-1 $290 $291 $114 #
cone-surface $-1 53.287739136531414 -38.896156499561599 8.0520942599942522 0 0.78801076186113728 -0.61566146476048833 0.5 0 0 1 I I -0.70710678118654746 0.70710678118654746 0.5 forward I I I I #
loop $-1 $-1 $292 $80 #
coedge $-1 $184 $184 $293 $294 reversed $115 $-1 #
face $-1 $-1 $295 $63 $-1 $296 forward single #
loop $-1 $297 $298 $117 #
cone-surface $-1 58.622737256182788 -38.896156499561599 8.0520942599942522 0 0.78801076186113728 -0.61566146476048833 0.5 0 0 1 I I -0.70710678118654746 0.70710678118654746 0.5 forward I I I I #
loop $-1 $-1 $299 $81 #
coedge $-1 $189 $189 $300 $301 reversed $118 $-1 #
face $-1 $302 $303 $64 $-1 $304 reversed single #
loop $-1 $-1 $305 $120 #
plane-surface $-1 -41.596771655729789 -9.8323916970055052 74.173247290888398 0 0.78801076186113728 0.61566146476048833 1 0 0 forward_v I I I I #
coedge $-1 $306 $307 $308 $309 reversed $121 $-1 #
face $-1 $-1 $310 $65 $-1 $311 forward single #
loop $-1 $312 $313 $123 #
cone-surface $-1 -46.93176977538117 38.896156499561592 8.0520942599942487 0 -0.78801076186113728 -0.61566146476048833 0.5 0 0 1 I I -0.70710678118654746 0.70710678118654746 0.5 forward I I I I #
loop $-1 $-1 $314 $83 #
coedge $-1 $198 $198 $315 $316 reversed $124 $-1 #
face $-1 $-1 $317 $66 $-1 $318 forward single #
loop $-1 $319 $320 $126 #
cone-surface $-1 -41.596771655729789 38.896156499561592 8.0520942599942487 0 -0.78801076186113728 -0.61566146476048833 0.5 0 0 1 I I -0.70710678118654746 0.70710678118654746 0.5 forward I I I I #
loop $-1 $-1 $321 $84 #
coedge $-1 $203 $203 $322 $323 reversed $127 $-1 #
face $-1 $-1 $324 $67 $-1 $325 forward single #
loop $-1 $326 $327 $129 #
cone-surface $-1 -36.261773536078408 38.896156499561592 8.0520942599942487 0 -0.78801076186113728 -0.61566146476048833 0.5 0 0 1 I I -0.70710678118654746 0.70710678118654746 0.5 forward I I I I #
loop $-1 $-1 $328 $85 #
coedge $-1 $208 $208 $329 $330 reversed $130 $-1 #
face $-1 $331 $332 $68 $-1 $333 reversed single #
loop $-1 $-1 $334 $132 #
plane-surface $-1 53.287739136531414 -9.8323916970055052 74.173247290888398 0 0.78801076186113728 0.61566146476048833 1 0 0 forward_v I I I I #
coedge $-1 $335 $336 $337 $338 reversed $133 $-1 #
face $-1 $-1 $339 $69 $-1 $340 forward single #
loop $-1 $341 $342 $135 #
cone-surface $-1 47.952741016880026 38.896156499561592 8.0520942599942487 0 -0.78801076186113728 -0.61566146476048833 0.5 0 0 1 I I -0.70710678118654746 0.70710678118654746 0.5 forward I I I I #
loop $-1 $-1 $343 $87 #
coedge $-1 $217 $217 $344 $345 reversed $136 $-1 #
face $-1 $-1 $346 $70 $-1 $347 forward single #
loop $-1 $348 $349 $138 #
cone-surface $-1 53.287739136531414 38.896156499561592 8.0520942599942487 0 -0.78801076186113728 -0.61566146476048833 0.5 0 0 1 I I -0.70710678118654746 0.70710678118654746 0.5 forward I I I I #
loop $-1 $-1 $350 $88 #
coedge $-1 $222 $222 $351 $352 reversed $139 $-1 #
face $-1 $-1 $353 $71 $-1 $354 forward single #
loop $-1 $355 $356 $141 #
cone-surface $-1 58.622737256182788 38.896156499561592 8.0520942599942487 0 -0.78801076186113728 -0.61566146476048833 0.5 0 0 1 I I -0.70710678118654746 0.70710678118654746 0.5 forward I I I I #
loop $-1 $-1 $357 $89 #
coedge $-1 $227 $227 $358 $359 reversed $142 $-1 #
face $-1 $360 $361 $54 $-1 $362 reversed single #
loop $-1 $-1 $363 $144 #
plane-surface $-1 0 -42.505045727055254 0 0 1 0 0 0 1 forward_v I I I I #
coedge $-1 $364 $365 $366 $367 forward $145 $-1 #
coedge $-1 $368 $147 $369 $370 forward $91 $-1 #
coedge $-1 $147 $368 $371 $372 forward $91 $-1 #
coedge $-1 $373 $374 $147 $235 reversed $375 $-1 #
edge $-1 $376 -42.505045727055254 $377 42.505045727055254 $234 $378 forward 7 unknown #
face $-1 $379 $380 $55 $-1 $381 reversed single #
loop $-1 $-1 $382 $148 #
plane-surface $-1 -54.946808330227782 0 -1.2048954064511559 -1 0 0 0 0 1 forward_v I I I I #
coedge $-1 $383 $384 $385 $386 forward $149 $-1 #
coedge $-1 $387 $151 $388 $389 reversed $94 $-1 #
coedge $-1 $151 $387 $390 $391 reversed $94 $-1 #
coedge $-1 $382 $392 $151 $243 reversed $237 $-1 #
edge $-1 $393 -42.505045727055254 $394 42.505045727055254 $242 $395 forward 7 unknown #
face $-1 $396 $397 $56 $-1 $398 forward single #
loop $-1 $-1 $399 $152 #
plane-surface $-1 -32.705108122977492 -147.52761469821712 89.237001686648625 -1 0 0 0 -0.78801076186113728 0.61566146476048833 forward_v I I I I #
coedge $-1 $400 $401 $402 $403 reversed $153 $-1 #
coedge $-1 $249 $155 $404 $405 reversed $97 $-1 #
coedge $-1 $155 $248 $400 $406 reversed $97 $-1 #
coedge $-1 $402 $407 $155 $251 forward $408 $-1 #
edge $-1 $409 32.854797798176044 $410 37.434120485074466 $250 $411 forward 7 unknown #
loop $-1 $-1 $257 $156 #
plane-surface $-1 -41.596771655729789 -42.505045727055261 7.1843803582498396 0 -0.78801076186113728 0.61566146476048833 1 0 0 forward_v I I I I #
loop $-1 $-1 $412 $99 #
coedge $-1 $255 $255 $256 $413 reversed $157 $-1 #
coedge $-1 $256 $256 $255 $413 forward $159 $-1 #
coedge $-1 $257 $257 $160 $258 forward $252 $-1 #
edge $-1 $414 0 $414 6.2831853071796004 $257 $415 forward 7 unknown #
loop $-1 $-1 $264 $161 #
plane-surface $-1 -41.596771655729789 -42.505045727055261 7.1843803582498396 0 -0.78801076186113728 0.61566146476048833 1 0 0 forward_v I I I I #
loop $-1 $-1 $416 $102 #
coedge $-1 $262 $262 $263 $417 reversed $162 $-1 #
coedge $-1 $263 $263 $262 $417 forward $164 $-1 #
coedge $-1 $264 $264 $165 $265 forward $259 $-1 #
edge $-1 $418 0 $418 6.2831853071796004 $264 $419 forward 7 unknown #
loop $-1 $-1 $271 $166 #
plane-surface $-1 -41.596771655729789 -42.505045727055261 7.1843803582498396 0 -0.78801076186113728 0.61566146476048833 1 0 0 forward_v I I I I #
loop $-1 $-1 $420 $105 #
coedge $-1 $269 $269 $270 $421 reversed $167 $-1 #
coedge $-1 $270 $270 $269 $421 forward $169 $-1 #
coedge $-1 $271 $271 $170 $272 forward $266 $-1 #
edge $-1 $422 0 $422 6.2831853071796004 $271 $423 forward 7 unknown #
face $-1 $424 $425 $60 $-1 $426 reversed single #
loop $-1 $-1 $427 $171 #
plane-surface $-1 62.179402669283711 -147.52761469821712 89.237001686648625 -1 0 0 0 -0.78801076186113728 0.61566146476048833 forward_v I I I I #
coedge $-1 $428 $429 $430 $431 reversed $172 $-1 #
coedge $-1 $278 $174 $432 $433 reversed $109 $-1 #
coedge $-1 $174 $277 $428 $434 reversed $109 $-1 #
coedge $-1 $430 $435 $174 $280 forward $425 $-1 #
edge $-1 $436 32.854797798176044 $437 37.434120485074466 $279 $438 forward 7 unknown #
loop $-1 $-1 $286 $175 #
plane-surface $-1 53.287739136531414 -42.505045727055261 7.1843803582498396 0 -0.78801076186113728 0.61566146476048833 1 0 0 forward_v I I I I #
loop $-1 $-1 $439 $111 #
coedge $-1 $284 $284 $285 $440 reversed $176 $-1 #
coedge $-1 $285 $285 $284 $440 forward $178 $-1 #
coedge $-1 $286 $286 $179 $287 forward $281 $-1 #
edge $-1 $441 0 $441 6.2831853071796004 $286 $442 forward 7 unknown #
loop $-1 $-1 $293 $180 #
plane-surface $-1 53.287739136531414 -42.505045727055261 7.1843803582498396 0 -0.78801076186113728 0.61566146476048833 1 0 0 forward_v I I I I #
loop $-1 $-1 $443 $114 #
coedge $-1 $291 $291 $292 $444 reversed $181 $-1 #
coedge $-1 $292 $292 $291 $444 forward $183 $-1 #
coedge $-1 $293 $293 $184 $294 forward $288 $-1 #
edge $-1 $445 0 $445 6.2831853071796004 $293 $446 forward 7 unknown #
loop $-1 $-1 $300 $185 #
plane-surface $-1 53.287739136531414 -42.505045727055261 7.1843803582498396 0 -0.78801076186113728 0.61566146476048833 1 0 0 forward_v I I I I #
loop $-1 $-1 $447 $117 #
coedge $-1 $298 $298 $299 $448 reversed $186 $-1 #
coedge $-1 $299 $299 $298 $448 forward $188 $-1 #
coedge $-1 $300 $300 $189 $301 forward $295 $-1 #
edge $-1 $449 0 $449 6.2831853071796004 $300 $450 forward 7 unknown #
face $-1 $451 $452 $64 $-1 $453 reversed single #
loop $-1 $-1 $454 $190 #
plane-surface $-1 -32.705108122977492 95.190177274156355 156.22586861928718 -1 0 0 0 0.78801076186113728 0.61566146476048833 forward_v I I I I #
coedge $-1 $455 $456 $457 $458 reversed $191 $-1 #
coedge $-1 $307 $193 $459 $460 reversed $121 $-1 #
coedge $-1 $193 $306 $455 $461 reversed $121 $-1 #
coedge $-1 $457 $462 $193 $309 forward $463 $-1 #
edge $-1 $464 5.0900429100229232 $465 8.6678018055589945 $308 $466 forward 7 unknown #
loop $-1 $-1 $315 $194 #
plane-surface $-1 -41.596771655729789 -9.8323916970055052 74.173247290888398 0 0.78801076186113728 0.61566146476048833 1 0 0 forward_v I I I I #
loop $-1 $-1 $467 $123 #
coedge $-1 $313 $313 $314 $468 reversed $195 $-1 #
coedge $-1 $314 $314 $313 $468 forward $197 $-1 #
coedge $-1 $315 $315 $198 $316 forward $310 $-1 #
edge $-1 $469 5.2551868701233767e-016 $469 6.2831853071796013 $315 $470 forward 7 unknown #
loop $-1 $-1 $322 $199 #
plane-surface $-1 -41.596771655729789 -9.8323916970055052 74.173247290888398 0 0.78801076186113728 0.61566146476048833 1 0 0 forward_v I I I I #
loop $-1 $-1 $471 $126 #
coedge $-1 $320 $320 $321 $472 reversed $200 $-1 #
coedge $-1 $321 $321 $320 $472 forward $202 $-1 #
coedge $-1 $322 $322 $203 $323 forward $317 $-1 #
edge $-1 $473 5.2551868701233767e-016 $473 6.2831853071796013 $322 $474 forward 7 unknown #
loop $-1 $-1 $329 $204 #
plane-surface $-1 -41.596771655729789 -9.8323916970055052 74.173247290888398 0 0.78801076186113728 0.61566146476048833 1 0 0 forward_v I I I I #
loop $-1 $-1 $475 $129 #
coedge $-1 $327 $327 $328 $476 reversed $205 $-1 #
coedge $-1 $328 $328 $327 $476 forward $207 $-1 #
coedge $-1 $329 $329 $208 $330 forward $324 $-1 #
edge $-1 $477 5.2551868701233767e-016 $477 6.2831853071796013 $329 $478 forward 7 unknown #
face $-1 $479 $480 $68 $-1 $481 forward single #
loop $-1 $-1 $482 $209 #
plane-surface $-1 62.179402669283711 95.190177274156355 156.22586861928718 -1 0 0 0 0.78801076186113728 0.61566146476048833 forward_v I I I I #
coedge $-1 $483 $484 $485 $486 reversed $210 $-1 #
coedge $-1 $336 $212 $487 $488 reversed $133 $-1 #
coedge $-1 $212 $335 $483 $489 reversed $133 $-1 #
coedge $-1 $485 $490 $212 $338 forward $480 $-1 #
edge $-1 $491 5.0900429100229232 $492 8.6678018055589945 $337 $493 forward 7 unknown #
loop $-1 $-1 $344 $213 #
plane-surface $-1 53.287739136531414 -9.8323916970055052 74.173247290888398 0 0.78801076186113728 0.61566146476048833 1 0 0 forward_v I I I I #
loop $-1 $-1 $494 $135 #
coedge $-1 $342 $342 $343 $495 reversed $214 $-1 #
coedge $-1 $343 $343 $342 $495 forward $216 $-1 #
coedge $-1 $344 $344 $217 $345 forward $339 $-1 #
edge $-1 $496 5.2551868701233767e-016 $496 6.2831853071796013 $344 $497 forward 7 unknown #
loop $-1 $-1 $351 $218 #
plane-surface $-1 53.287739136531414 -9.8323916970055052 74.173247290888398 0 0.78801076186113728 0.61566146476048833 1 0 0 forward_v I I I I #
loop $-1 $-1 $498 $138 #
coedge $-1 $349 $349 $350 $499 reversed $219 $-1 #
coedge $-1 $350 $350 $349 $499 forward $221 $-1 #
coedge $-1 $351 $351 $222 $352 forward $346 $-1 #
edge $-1 $500 5.2551868701233767e-016 $500 6.2831853071796013 $351 $501 forward 7 unknown #
loop $-1 $-1 $358 $223 #
plane-surface $-1 53.287739136531414 -9.8323916970055052 74.173247290888398 0 0.78801076186113728 0.61566146476048833 1 0 0 forward_v I I I I #
loop $-1 $-1 $502 $141 #
coedge $-1 $356 $356 $357 $503 reversed $224 $-1 #
coedge $-1 $357 $357 $356 $503 forward $226 $-1 #
coedge $-1 $358 $358 $227 $359 forward $353 $-1 #
edge $-1 $504 5.2551868701233767e-016 $504 6.2831853071796013 $358 $505 forward 7 unknown #
face $-1 $506 $507 $54 $-1 $508 reversed single #
loop $-1 $-1 $509 $228 #
plane-surface $-1 -66.637775811029385 0 0 1 0 0 0 0 -1 forward_v I I I I #
coedge $-1 $510 $371 $511 $512 forward $229 $-1 #
coedge $-1 $513 $231 $510 $514 forward $145 $-1 #
coedge $-1 $231 $513 $515 $516 forward $145 $-1 #
coedge $-1 $374 $373 $231 $367 reversed $375 $-1 #
edge $-1 $517 -42.505045727055254 $518 42.505045727055254 $366 $519 forward 7 unknown #
coedge $-1 $233 $232 $520 $521 forward $91 $-1 #
coedge $-1 $522 $523 $232 $370 reversed $507 $-1 #
edge $-1 $377 -66.637775811029385 $524 66.637775811029385 $369 $525 forward 7 unknown #
coedge $-1 $363 $526 $233 $372 reversed $229 $-1 #
edge $-1 $527 -66.637775811029385 $376 66.637775811029385 $371 $528 forward 7 unknown #
coedge $-1 $366 $234 $526 $529 forward $375 $-1 #
coedge $-1 $234 $366 $522 $530 reversed $375 $-1 #
loop $-1 $-1 $373 $506 #
vertex $-1 $235 $531 #
vertex $-1 $235 $532 #
straight-curve $-1 66.637775811029385 0 11.763703045148269 0 1 0 I I #
face $-1 $533 $534 $55 $-1 $535 reversed single #
loop $-1 $-1 $536 $236 #
plane-surface $-1 0 -42.505045727055254 0 0 1 0 0 0 1 forward_v I I I I #
coedge $-1 $385 $242 $537 $538 reversed $237 $-1 #
coedge $-1 $539 $239 $536 $540 reversed $149 $-1 #
coedge $-1 $239 $539 $541 $542 reversed $149 $-1 #
coedge $-1 $392 $382 $239 $386 reversed $237 $-1 #
edge $-1 $543 -42.505045727055254 $544 42.505045727055254 $385 $545 forward 7 unknown #
coedge $-1 $241 $240 $546 $547 reversed $94 $-1 #
coedge $-1 $548 $549 $240 $389 forward $550 $-1 #
edge $-1 $551 -36.241629775715097 $394 -24.55066229491349 $388 $552 forward 7 unknown #
coedge $-1 $553 $537 $241 $391 forward $380 $-1 #
edge $-1 $393 24.55066229491349 $554 36.241629775715097 $390 $555 forward 7 unknown #
coedge $-1 $242 $385 $548 $556 reversed $237 $-1 #
vertex $-1 $391 $557 #
vertex $-1 $389 $558 #
straight-curve $-1 -54.946808330227782 0 1.5593073461999594 0 1 0 I I #
face $-1 $-1 $408 $56 $-1 $559 reversed single #
loop $-1 $-1 $560 $244 #
plane-surface $-1 0 0 11.763703045148269 0 0 1 1 0 0 forward_v I I I I #
coedge $-1 $561 $562 $563 $564 reversed $245 $-1 #
coedge $-1 $565 $247 $249 $406 forward $153 $-1 #
coedge $-1 $247 $565 $561 $566 forward $153 $-1 #
coedge $-1 $563 $250 $247 $403 forward $408 $-1 #
edge $-1 $410 -29.690049360617191 $567 -11.906722295112598 $402 $568 forward 7 unknown #
coedge $-1 $569 $570 $248 $405 forward $397 $-1 #
edge $-1 $571 -34.836520517589349 $409 -31.258761622053306 $404 $572 forward 7 unknown #
edge $-1 $410 1.1373479346495045e-014 $571 5.8112438414964132 $249 $573 forward 7 unknown #
coedge $-1 $250 $563 $569 $574 reversed $408 $-1 #
loop $-1 $-1 $563 $396 #
vertex $-1 $574 $575 #
vertex $-1 $251 $576 #
straight-curve $-1 -50.488435188482086 -42.505045727055254 44.618500843324313 0 0 -1 I I #
coedge $-1 $412 $412 $-1 $577 reversed $254 $-1 #
edge $-1 $578 0 $578 6.2831853071796004 $255 $579 forward 7 unknown #
vertex $-1 $258 $580 #
ellipse-curve $-1 -46.93176977538117 -40.716166279287236 9.4740417016990577 0 -0.78801076186113728 0.61566146476048833 1 0 0 1 I I #
coedge $-1 $416 $416 $-1 $581 reversed $261 $-1 #
edge $-1 $582 0 $582 6.2831853071796004 $262 $583 forward 7 unknown #
vertex $-1 $265 $584 #
ellipse-curve $-1 -41.596771655729789 -40.716166279287236 9.4740417016990577 0 -0.78801076186113728 0.61566146476048833 1 0 0 1 I I #
coedge $-1 $420 $420 $-1 $585 reversed $268 $-1 #
edge $-1 $586 0 $586 6.2831853071796004 $269 $587 forward 7 unknown #
vertex $-1 $272 $588 #
ellipse-curve $-1 -36.261773536078408 -40.716166279287236 9.4740417016990577 0 -0.78801076186113728 0.61566146476048833 1 0 0 1 I I #
face $-1 $-1 $589 $60 $-1 $590 forward single #
loop $-1 $-1 $279 $273 #
plane-surface $-1 0 -42.505045727055254 0 0 1 0 0 0 1 forward_v I I I I #
coedge $-1 $591 $592 $593 $594 reversed $274 $-1 #
coedge $-1 $595 $276 $278 $434 forward $172 $-1 #
coedge $-1 $276 $595 $591 $596 forward $172 $-1 #
coedge $-1 $593 $279 $276 $431 forward $425 $-1 #
edge $-1 $437 17.75220603551341 $597 35.535533101018004 $430 $598 forward 7 unknown #
coedge $-1 $599 $600 $277 $433 forward $589 $-1 #
edge $-1 $601 -34.836520517589349 $436 -31.258761622053306 $432 $602 forward 7 unknown #
edge $-1 $437 1.1373479346495045e-014 $601 5.8112438414964132 $278 $603 forward 7 unknown #
coedge $-1 $279 $593 $599 $604 reversed $425 $-1 #
vertex $-1 $604 $605 #
vertex $-1 $280 $606 #
straight-curve $-1 44.396075603779117 -42.505045727055254 44.618500843324313 0 0 -1 I I #
coedge $-1 $439 $439 $-1 $607 reversed $283 $-1 #
edge $-1 $608 0 $608 6.2831853071796004 $284 $609 forward 7 unknown #
vertex $-1 $287 $610 #
ellipse-curve $-1 47.952741016880026 -40.716166279287236 9.4740417016990577 0 -0.78801076186113728 0.61566146476048833 1 0 0 1 I I #
coedge $-1 $443 $443 $-1 $611 reversed $290 $-1 #
edge $-1 $612 0 $612 6.2831853071796004 $291 $613 forward 7 unknown #
vertex $-1 $294 $614 #
ellipse-curve $-1 53.287739136531414 -40.716166279287236 9.4740417016990577 0 -0.78801076186113728 0.61566146476048833 1 0 0 1 I I #
coedge $-1 $447 $447 $-1 $615 reversed $297 $-1 #
edge $-1 $616 0 $616 6.2831853071796004 $298 $617 forward 7 unknown #
vertex $-1 $301 $618 #
ellipse-curve $-1 58.622737256182788 -40.716166279287236 9.4740417016990577 0 -0.78801076186113728 0.61566146476048833 1 0 0 1 I I #
face $-1 $-1 $463 $64 $-1 $619 forward single #
loop $-1 $-1 $620 $302 #
plane-surface $-1 0 42.505045727055254 0 0 -1 0 0 0 -1 forward_v I I I I #
coedge $-1 $621 $622 $623 $624 reversed $303 $-1 #
coedge $-1 $625 $305 $307 $461 forward $191 $-1 #
coedge $-1 $305 $625 $621 $626 forward $191 $-1 #
coedge $-1 $623 $308 $305 $458 forward $463 $-1 #
edge $-1 $465 -29.690049360617191 $627 -11.906722295112598 $457 $628 forward 7 unknown #
coedge $-1 $629 $630 $306 $460 forward $452 $-1 #
edge $-1 $631 -70.928553951393781 $464 -66.34923126449533 $459 $632 forward 7 unknown #
edge $-1 $465 79.198847612614074 $631 85.010091454110523 $307 $633 forward 7 unknown #
coedge $-1 $308 $623 $629 $634 forward $463 $-1 #
loop $-1 $-1 $623 $451 #
vertex $-1 $460 $635 #
vertex $-1 $309 $636 #
straight-curve $-1 -50.488435188482086 47.595088637078177 11.763703045148276 0 -1 0 I I #
coedge $-1 $467 $467 $-1 $637 reversed $312 $-1 #
edge $-1 $638 0 $638 6.2831853071796004 $313 $639 forward 7 unknown #
vertex $-1 $316 $640 #
ellipse-curve $-1 -46.93176977538117 40.716166279287208 9.4740417016990381 0 0.78801076186113728 0.61566146476048833 1 0 0 1 I I #
coedge $-1 $471 $471 $-1 $641 reversed $319 $-1 #
edge $-1 $642 0 $642 6.2831853071796004 $320 $643 forward 7 unknown #
vertex $-1 $323 $644 #
ellipse-curve $-1 -41.596771655729789 40.716166279287208 9.4740417016990381 0 0.78801076186113728 0.61566146476048833 1 0 0 1 I I #
coedge $-1 $475 $475 $-1 $645 reversed $326 $-1 #
edge $-1 $646 0 $646 6.2831853071796004 $327 $647 forward 7 unknown #
vertex $-1 $330 $648 #
ellipse-curve $-1 -36.261773536078408 40.716166279287208 9.4740417016990381 0 0.78801076186113728 0.61566146476048833 1 0 0 1 I I #
face $-1 $-1 $649 $68 $-1 $650 reversed single #
loop $-1 $-1 $337 $331 #
plane-surface $-1 0 0 11.763703045148269 0 0 1 1 0 0 forward_v I I I I #
coedge $-1 $651 $652 $653 $654 reversed $332 $-1 #
coedge $-1 $655 $334 $336 $489 forward $210 $-1 #
coedge $-1 $334 $655 $651 $656 forward $210 $-1 #
coedge $-1 $653 $337 $334 $486 forward $480 $-1 #
edge $-1 $492 17.75220603551341 $657 35.535533101018004 $485 $658 forward 7 unknown #
coedge $-1 $659 $660 $335 $488 forward $649 $-1 #
edge $-1 $661 -70.928553951393781 $491 -66.34923126449533 $487 $662 forward 7 unknown #
edge $-1 $492 79.198847612614074 $661 85.010091454110523 $336 $663 forward 7 unknown #
coedge $-1 $337 $653 $659 $664 forward $480 $-1 #
vertex $-1 $338 $665 #
vertex $-1 $338 $666 #
straight-curve $-1 44.396075603779117 47.595088637078177 11.763703045148276 0 -1 0 I I #
coedge $-1 $494 $494 $-1 $667 reversed $341 $-1 #
edge $-1 $668 0 $668 6.2831853071796004 $342 $669 forward 7 unknown #
vertex $-1 $345 $670 #
ellipse-curve $-1 47.952741016880026 40.716166279287208 9.4740417016990381 0 0.78801076186113728 0.61566146476048833 1 0 0 1 I I #
coedge $-1 $498 $498 $-1 $671 reversed $348 $-1 #
edge $-1 $672 0 $672 6.2831853071796004 $349 $673 forward 7 unknown #
vertex $-1 $352 $674 #
ellipse-curve $-1 53.287739136531414 40.716166279287208 9.4740417016990381 0 0.78801076186113728 0.61566146476048833 1 0 0 1 I I #
coedge $-1 $502 $502 $-1 $675 reversed $355 $-1 #
edge $-1 $676 0 $676 6.2831853071796004 $356 $677 forward 7 unknown #
vertex $-1 $359 $678 #
ellipse-curve $-1 58.622737256182788 40.716166279287208 9.4740417016990381 0 0.78801076186113728 0.61566146476048833 1 0 0 1 I I #
face $-1 $-1 $375 $54 $-1 $679 reversed single #
loop $-1 $-1 $522 $360 #
plane-surface $-1 0 42.505045727055254 0 0 -1 0 0 0 -1 forward_v I I I I #
coedge $-1 $680 $520 $523 $681 forward $361 $-1 #
coedge $-1 $526 $363 $364 $514 reversed $229 $-1 #
coedge $-1 $520 $680 $363 $512 reversed $361 $-1 #
edge $-1 $527 -11.763703045148269 $682 11.763703045148269 $511 $683 forward 7 unknown #
coedge $-1 $365 $364 $680 $684 forward $145 $-1 #
edge $-1 $518 -66.637775811029385 $682 66.637775811029385 $510 $685 forward 7 unknown #
coedge $-1 $523 $522 $365 $516 reversed $507 $-1 #
edge $-1 $686 -66.637775811029385 $517 66.637775811029385 $515 $687 forward 7 unknown #
vertex $-1 $367 $688 #
vertex $-1 $529 $689 #
straight-curve $-1 66.637775811029385 0 -11.763703045148269 0 -1 0 I I #
coedge $-1 $509 $511 $368 $521 reversed $361 $-1 #
edge $-1 $524 -42.505045727055254 $527 42.505045727055254 $520 $690 forward 7 unknown #
coedge $-1 $515 $369 $374 $530 forward $507 $-1 #
coedge $-1 $369 $515 $509 $681 reversed $507 $-1 #
vertex $-1 $370 $691 #
straight-curve $-1 0 42.505045727055254 11.763703045148269 -1 0 0 I I #
coedge $-1 $371 $510 $373 $529 reversed $229 $-1 #
vertex $-1 $521 $692 #
straight-curve $-1 0 -42.505045727055254 11.763703045148269 1 0 0 I I #
edge $-1 $376 -11.763703045148269 $518 11.763703045148269 $373 $693 forward 7 unknown #
edge $-1 $377 -11.763703045148269 $517 11.763703045148269 $374 $694 forward 7 unknown #
point $-1 66.637775811029385 -42.505045727055254 11.763703045148269 #
point $-1 66.637775811029385 42.505045727055254 11.763703045148269 #
face $-1 $-1 $550 $55 $-1 $695 reversed single #
loop $-1 $-1 $696 $379 #
plane-surface $-1 -66.637775811029385 0 0 1 0 0 0 0 -1 forward_v I I I I #
coedge $-1 $537 $553 $383 $540 forward $380 $-1 #
coedge $-1 $390 $536 $382 $538 forward $380 $-1 #
edge $-1 $544 -3.3666504558766932 $393 2.1617550494255373 $537 $697 forward 7 unknown #
coedge $-1 $384 $383 $696 $698 reversed $149 $-1 #
edge $-1 $699 -36.241629775715097 $544 -24.55066229491349 $536 $700 forward 7 unknown #
coedge $-1 $549 $548 $384 $542 forward $550 $-1 #
edge $-1 $543 24.55066229491349 $701 36.241629775715097 $541 $702 forward 7 unknown #
vertex $-1 $542 $703 #
vertex $-1 $540 $704 #
straight-curve $-1 -54.946808330227782 0 -3.9690981591022712 0 -1 0 I I #
coedge $-1 $705 $706 $387 $547 forward $534 $-1 #
edge $-1 $554 -42.505045727055254 $551 42.505045727055254 $546 $707 forward 7 unknown #
coedge $-1 $541 $388 $392 $556 forward $550 $-1 #
coedge $-1 $388 $541 $705 $708 reversed $550 $-1 #
loop $-1 $-1 $541 $533 #
vertex $-1 $708 $709 #
straight-curve $-1 -30.396146035314292 42.505045727055254 1.5593073461999594 1 0 0 I I #
coedge $-1 $536 $390 $706 $710 forward $380 $-1 #
vertex $-1 $710 $711 #
straight-curve $-1 -30.396146035314292 -42.505045727055254 1.5593073461999594 -1 0 0 I I #
edge $-1 $394 -2.1617550494255373 $543 3.3666504558766932 $548 $712 forward 7 unknown #
point $-1 -54.946808330227782 -42.505045727055254 1.5593073461999594 #
point $-1 -54.946808330227782 42.505045727055254 1.5593073461999594 #
plane-surface $-1 0 -42.505045727055254 0 0 1 0 0 0 1 forward_v I I I I #
coedge $-1 $570 $569 $562 $713 forward $397 $-1 #
coedge $-1 $562 $399 $401 $566 reversed $245 $-1 #
coedge $-1 $399 $561 $560 $713 reversed $245 $-1 #
coedge $-1 $407 $402 $399 $564 forward $408 $-1 #
edge $-1 $567 -37.434120485074466 $714 -32.854797798176044 $563 $715 forward 7 unknown #
coedge $-1 $401 $400 $570 $716 reversed $153 $-1 #
edge $-1 $717 -5.8112438414964132 $567 -1.1373479346495045e-014 $561 $718 forward 7 unknown #
vertex $-1 $403 $719 #
straight-curve $-1 -20.798385827864895 -42.505045727055254 7.184380358249852 1 0 0 I I #
coedge $-1 $560 $404 $407 $574 forward $397 $-1 #
coedge $-1 $404 $560 $565 $716 forward $397 $-1 #
vertex $-1 $405 $720 #
straight-curve $-1 -50.488435188482086 -73.763807349108561 11.763703045148269 0 -1 0 I I #
straight-curve $-1 -50.488435188482086 -42.505045727055261 7.1843803582498396 0 0.61566146476048833 0.78801076186113728 I I #
edge $-1 $409 -50.488435188482086 $714 -32.705108122977492 $407 $721 forward 7 unknown #
point $-1 -50.488435188482086 -42.505045727055254 11.763703045148269 #
point $-1 -50.488435188482086 -42.505045727055254 7.1843803582498484 #
edge $-1 $722 1 $722 0 $412 $-1 forward 7 unknown #
vertex $-1 $413 $723 #
ellipse-curve $-1 -46.93176977538117 -39.290161880492164 8.3599249923744967 0 -0.78801076186113728 0.61566146476048833 1 0 0 1 I I #
point $-1 -45.93176977538117 -40.716166279287236 9.4740417016990577 #
edge $-1 $724 1 $724 0 $416 $-1 forward 7 unknown #
vertex $-1 $417 $725 #
ellipse-curve $-1 -41.596771655729789 -39.290161880492164 8.3599249923744967 0 -0.78801076186113728 0.61566146476048833 1 0 0 1 I I #
point $-1 -40.596771655729789 -40.716166279287236 9.4740417016990577 #
edge $-1 $726 1 $726 0 $420 $-1 forward 7 unknown #
vertex $-1 $421 $727 #
ellipse-curve $-1 -36.261773536078408 -39.290161880492164 8.3599249923744967 0 -0.78801076186113728 0.61566146476048833 1 0 0 1 I I #
point $-1 -35.261773536078408 -40.716166279287236 9.4740417016990577 #
loop $-1 $-1 $432 $424 #
plane-surface $-1 0 0 11.763703045148269 0 0 1 1 0 0 forward_v I I I I #
coedge $-1 $592 $427 $429 $596 reversed $274 $-1 #
coedge $-1 $427 $591 $728 $729 reversed $274 $-1 #
coedge $-1 $435 $430 $427 $594 forward $425 $-1 #
edge $-1 $597 -37.434120485074466 $730 -32.854797798176044 $593 $731 forward 7 unknown #
coedge $-1 $429 $428 $600 $732 reversed $172 $-1 #
edge $-1 $733 -5.8112438414964132 $597 -1.1373479346495045e-014 $591 $734 forward 7 unknown #
vertex $-1 $431 $735 #
straight-curve $-1 26.643869568265707 -42.505045727055254 7.184380358249852 1 0 0 I I #
coedge $-1 $728 $432 $435 $604 forward $589 $-1 #
coedge $-1 $432 $728 $595 $732 forward $589 $-1 #
vertex $-1 $433 $736 #
straight-curve $-1 44.396075603779117 -73.763807349108561 11.763703045148269 0 -1 0 I I #
straight-curve $-1 44.396075603779117 -42.505045727055261 7.1843803582498396 0 0.61566146476048833 0.78801076186113728 I I #
edge $-1 $436 44.396075603779117 $730 62.179402669283711 $435 $737 forward 7 unknown #
point $-1 44.396075603779117 -42.505045727055254 11.763703045148269 #
point $-1 44.396075603779117 -42.505045727055254 7.1843803582498484 #
edge $-1 $738 1 $738 0 $439 $-1 forward 7 unknown #
vertex $-1 $440 $739 #
ellipse-curve $-1 47.952741016880026 -39.290161880492164 8.3599249923744967 0 -0.78801076186113728 0.61566146476048833 1 0 0 1 I I #
point $-1 48.952741016880026 -40.716166279287236 9.4740417016990577 #
edge $-1 $740 1 $740 0 $443 $-1 forward 7 unknown #
vertex $-1 $444 $741 #
ellipse-curve $-1 53.287739136531414 -39.290161880492164 8.3599249923744967 0 -0.78801076186113728 0.61566146476048833 1 0 0 1 I I #
point $-1 54.287739136531414 -40.716166279287236 9.4740417016990577 #
edge $-1 $742 1 $742 0 $447 $-1 forward 7 unknown #
vertex $-1 $448 $743 #
ellipse-curve $-1 58.622737256182788 -39.290161880492164 8.3599249923744967 0 -0.78801076186113728 0.61566146476048833 1 0 0 1 I I #
point $-1 59.622737256182788 -40.716166279287236 9.4740417016990577 #
plane-surface $-1 0 0 11.763703045148269 0 0 1 1 0 0 forward_v I I I I #
coedge $-1 $630 $629 $622 $744 forward $452 $-1 #
coedge $-1 $622 $454 $456 $626 reversed $303 $-1 #
coedge $-1 $454 $621 $620 $744 reversed $303 $-1 #
coedge $-1 $462 $457 $454 $624 forward $463 $-1 #
edge $-1 $627 -8.6678018055589945 $745 -5.0900429100229232 $623 $746 forward 7 unknown #
coedge $-1 $456 $455 $630 $747 reversed $191 $-1 #
edge $-1 $748 -85.010091454110523 $627 -79.198847612614074 $621 $749 forward 7 unknown #
vertex $-1 $458 $750 #
straight-curve $-1 -20.798385827864895 38.927286831519183 11.763703045148269 1 0 0 I I #
coedge $-1 $620 $459 $462 $634 reversed $452 $-1 #
coedge $-1 $459 $620 $625 $747 forward $452 $-1 #
vertex $-1 $460 $751 #
straight-curve $-1 -50.488435188482086 42.505045727055254 78.112934309643592 0 0 1 I I #
straight-curve $-1 -50.488435188482086 -9.8323916970055052 74.173247290888398 0 0.61566146476048833 -0.78801076186113728 I I #
edge $-1 $745 32.705108122977492 $464 50.488435188482086 $629 $752 forward 7 unknown #
point $-1 -50.488435188482086 42.505045727055254 11.763703045148269 #
point $-1 -50.488435188482086 38.927286831519183 11.763703045148269 #
edge $-1 $753 1 $753 0 $467 $-1 forward 7 unknown #
vertex $-1 $468 $754 #
ellipse-curve $-1 -46.93176977538117 39.290161880492157 8.3599249923744932 0 0.78801076186113728 0.61566146476048833 1 0 0 1 I I #
point $-1 -45.93176977538117 40.716166279287229 9.4740417016990541 #
edge $-1 $755 1 $755 0 $471 $-1 forward 7 unknown #
vertex $-1 $472 $756 #
ellipse-curve $-1 -41.596771655729789 39.290161880492157 8.3599249923744932 0 0.78801076186113728 0.61566146476048833 1 0 0 1 I I #
point $-1 -40.596771655729789 40.716166279287229 9.4740417016990541 #
edge $-1 $757 1 $757 0 $475 $-1 forward 7 unknown #
vertex $-1 $476 $758 #
ellipse-curve $-1 -36.261773536078408 39.290161880492157 8.3599249923744932 0 0.78801076186113728 0.61566146476048833 1 0 0 1 I I #
point $-1 -35.261773536078408 40.716166279287229 9.4740417016990541 #
loop $-1 $-1 $487 $479 #
plane-surface $-1 0 42.505045727055254 0 0 -1 0 0 0 -1 forward_v I I I I #
coedge $-1 $652 $482 $484 $656 reversed $332 $-1 #
coedge $-1 $482 $651 $759 $760 reversed $332 $-1 #
coedge $-1 $490 $485 $482 $654 forward $480 $-1 #
edge $-1 $657 -8.6678018055589945 $761 -5.0900429100229232 $653 $762 forward 7 unknown #
coedge $-1 $484 $483 $660 $763 reversed $210 $-1 #
edge $-1 $764 -85.010091454110523 $657 -79.198847612614074 $651 $765 forward 7 unknown #
vertex $-1 $486 $766 #
straight-curve $-1 26.643869568265707 38.927286831519183 11.763703045148269 1 0 0 I I #
coedge $-1 $759 $487 $490 $664 reversed $649 $-1 #
coedge $-1 $487 $759 $655 $763 forward $649 $-1 #
vertex $-1 $488 $767 #
straight-curve $-1 44.396075603779117 42.505045727055254 78.112934309643592 0 0 1 I I #
straight-curve $-1 44.396075603779117 -9.8323916970055052 74.173247290888398 0 0.61566146476048833 -0.78801076186113728 I I #
edge $-1 $761 -62.179402669283711 $491 -44.396075603779117 $659 $768 forward 7 unknown #
point $-1 44.396075603779117 42.505045727055254 11.763703045148269 #
point $-1 44.396075603779117 38.927286831519183 11.763703045148269 #
edge $-1 $769 1 $769 0 $494 $-1 forward 7 unknown #
vertex $-1 $495 $770 #
ellipse-curve $-1 47.952741016880026 39.290161880492157 8.3599249923744932 0 0.78801076186113728 0.61566146476048833 1 0 0 1 I I #
point $-1 48.952741016880026 40.716166279287229 9.4740417016990541 #
edge $-1 $771 1 $771 0 $498 $-1 forward 7 unknown #
vertex $-1 $499 $772 #
ellipse-curve $-1 53.287739136531414 39.290161880492157 8.3599249923744932 0 0.78801076186113728 0.61566146476048833 1 0 0 1 I I #
point $-1 54.287739136531414 40.716166279287229 9.4740417016990541 #
edge $-1 $773 1 $773 0 $502 $-1 forward 7 unknown #
vertex $-1 $503 $774 #
ellipse-curve $-1 58.622737256182788 39.290161880492157 8.3599249923744932 0 0.78801076186113728 0.61566146476048833 1 0 0 1 I I #
point $-1 59.622737256182788 40.716166279287229 9.4740417016990541 #
plane-surface $-1 66.637775811029385 0 0 -1 0 0 0 0 1 forward_v I I I I #
coedge $-1 $511 $509 $513 $684 reversed $361 $-1 #
edge $-1 $524 -11.763703045148269 $686 11.763703045148269 $523 $775 forward 7 unknown #
vertex $-1 $684 $776 #
straight-curve $-1 -66.637775811029385 -42.505045727055254 0 0 0 -1 I I #
edge $-1 $682 -42.505045727055254 $686 42.505045727055254 $680 $777 forward 7 unknown #
straight-curve $-1 0 -42.505045727055254 -11.763703045148269 -1 0 0 I I #
vertex $-1 $516 $778 #
straight-curve $-1 0 42.505045727055254 -11.763703045148269 1 0 0 I I #
point $-1 66.637775811029385 42.505045727055254 -11.763703045148269 #
point $-1 66.637775811029385 -42.505045727055254 -11.763703045148269 #
straight-curve $-1 -66.637775811029385 0 11.763703045148269 0 -1 0 I I #
point $-1 -66.637775811029385 42.505045727055254 11.763703045148269 #
point $-1 -66.637775811029385 -42.505045727055254 11.763703045148269 #
straight-curve $-1 66.637775811029385 -42.505045727055254 0 0 0 -1 I I #
straight-curve $-1 66.637775811029385 42.505045727055254 0 0 0 -1 I I #
plane-surface $-1 0 42.505045727055254 0 0 -1 0 0 0 -1 forward_v I I I I #
coedge $-1 $706 $705 $539 $698 forward $534 $-1 #
straight-curve $-1 -54.946808330227782 -42.505045727055254 -0.60244770322557795 0 0 1 I I #
edge $-1 $701 -42.505045727055254 $699 42.505045727055254 $696 $779 forward 7 unknown #
vertex $-1 $540 $780 #
straight-curve $-1 -30.396146035314292 -42.505045727055254 -3.9690981591022712 1 0 0 I I #
vertex $-1 $542 $781 #
straight-curve $-1 -30.396146035314292 42.505045727055254 -3.9690981591022712 -1 0 0 I I #
point $-1 -54.946808330227782 42.505045727055254 -3.9690981591022712 #
point $-1 -54.946808330227782 -42.505045727055254 -3.9690981591022712 #
coedge $-1 $696 $546 $549 $708 forward $534 $-1 #
coedge $-1 $546 $696 $553 $710 reversed $534 $-1 #
straight-curve $-1 -66.637775811029385 0 1.5593073461999594 0 1 0 I I #
edge $-1 $551 -1.5593073461999594 $701 3.9690981591022712 $549 $782 forward 7 unknown #
point $-1 -66.637775811029385 42.505045727055254 1.5593073461999594 #
edge $-1 $554 -1.5593073461999594 $699 3.9690981591022712 $706 $783 forward 7 unknown #
point $-1 -66.637775811029385 -42.505045727055254 1.5593073461999594 #
straight-curve $-1 -54.946808330227782 42.505045727055254 -0.60244770322557795 0 0 -1 I I #
edge $-1 $714 31.258761622053306 $717 34.836520517589349 $560 $784 forward 7 unknown #
vertex $-1 $713 $785 #
straight-curve $-1 -32.705108122977492 -42.505045727055254 44.618500843324313 0 0 1 I I #
edge $-1 $717 11.906722295112598 $571 29.690049360617191 $570 $786 forward 7 unknown #
vertex $-1 $716 $787 #
straight-curve $-1 -32.705108122977492 -42.505045727055261 7.1843803582498396 0 -0.61566146476048833 -0.78801076186113728 I I #
point $-1 -32.705108122977492 -42.505045727055254 7.1843803582498484 #
point $-1 -50.488435188482086 -38.927286831519211 11.763703045148269 #
straight-curve $-1 0 -42.505045727055254 11.763703045148269 1 0 0 I I #
vertex $-1 $577 $788 #
point $-1 -45.93176977538117 -39.290161880492164 8.3599249923744967 #
vertex $-1 $581 $789 #
point $-1 -40.596771655729789 -39.290161880492164 8.3599249923744967 #
vertex $-1 $585 $790 #
point $-1 -35.261773536078408 -39.290161880492164 8.3599249923744967 #
coedge $-1 $600 $599 $592 $729 forward $589 $-1 #
edge $-1 $730 31.258761622053306 $733 34.836520517589349 $728 $791 forward 7 unknown #
vertex $-1 $729 $792 #
straight-curve $-1 62.179402669283711 -42.505045727055254 44.618500843324313 0 0 1 I I #
edge $-1 $733 -35.535533101018004 $601 -17.75220603551341 $600 $793 forward 7 unknown #
vertex $-1 $732 $794 #
straight-curve $-1 62.179402669283711 -42.505045727055261 7.1843803582498396 0 -0.61566146476048833 -0.78801076186113728 I I #
point $-1 62.179402669283711 -42.505045727055254 7.1843803582498484 #
point $-1 44.396075603779117 -38.927286831519211 11.763703045148269 #
straight-curve $-1 0 -42.505045727055254 11.763703045148269 1 0 0 I I #
vertex $-1 $607 $795 #
point $-1 48.952741016880026 -39.290161880492164 8.3599249923744967 #
vertex $-1 $611 $796 #
point $-1 54.287739136531414 -39.290161880492164 8.3599249923744967 #
vertex $-1 $615 $797 #
point $-1 59.622737256182788 -39.290161880492164 8.3599249923744967 #
edge $-1 $745 66.34923126449533 $748 70.928553951393781 $620 $798 forward 7 unknown #
vertex $-1 $634 $799 #
straight-curve $-1 -32.705108122977492 47.595088637078177 11.763703045148276 0 1 0 I I #
edge $-1 $748 11.906722295112598 $631 29.690049360617191 $630 $800 forward 7 unknown #
vertex $-1 $747 $801 #
straight-curve $-1 -32.705108122977492 -9.8323916970055052 74.173247290888398 0 -0.61566146476048833 0.78801076186113728 I I #
point $-1 -32.705108122977492 38.927286831519183 11.763703045148269 #
point $-1 -50.488435188482086 42.505045727055247 7.1843803582498111 #
straight-curve $-1 0 42.505045727055254 11.763703045148269 -1 0 0 I I #
vertex $-1 $637 $802 #
point $-1 -45.93176977538117 39.290161880492157 8.3599249923744932 #
vertex $-1 $641 $803 #
point $-1 -40.596771655729789 39.290161880492157 8.3599249923744932 #
vertex $-1 $645 $804 #
point $-1 -35.261773536078408 39.290161880492157 8.3599249923744932 #
coedge $-1 $660 $659 $652 $760 forward $649 $-1 #
edge $-1 $761 66.34923126449533 $764 70.928553951393781 $759 $805 forward 7 unknown #
vertex $-1 $664 $806 #
straight-curve $-1 62.179402669283711 47.595088637078177 11.763703045148276 0 1 0 I I #
edge $-1 $764 -35.535533101018004 $661 -17.75220603551341 $660 $807 forward 7 unknown #
vertex $-1 $763 $808 #
straight-curve $-1 62.179402669283711 -9.8323916970055052 74.173247290888398 0 -0.61566146476048833 0.78801076186113728 I I #
point $-1 62.179402669283711 38.927286831519183 11.763703045148269 #
point $-1 44.396075603779117 42.505045727055247 7.1843803582498111 #
straight-curve $-1 0 42.505045727055254 11.763703045148269 -1 0 0 I I #
vertex $-1 $667 $809 #
point $-1 48.952741016880026 39.290161880492157 8.3599249923744932 #
vertex $-1 $671 $810 #
point $-1 54.287739136531414 39.290161880492157 8.3599249923744932 #
vertex $-1 $675 $811 #
point $-1 59.622737256182788 39.290161880492157 8.3599249923744932 #
straight-curve $-1 -66.637775811029385 42.505045727055254 0 0 0 -1 I I #
point $-1 -66.637775811029385 -42.505045727055254 -11.763703045148269 #
straight-curve $-1 -66.637775811029385 0 -11.763703045148269 0 1 0 I I #
point $-1 -66.637775811029385 42.505045727055254 -11.763703045148269 #
straight-curve $-1 -66.637775811029385 0 -3.9690981591022712 0 -1 0 I I #
point $-1 -66.637775811029385 -42.505045727055254 -3.9690981591022712 #
point $-1 -66.637775811029385 42.505045727055254 -3.9690981591022712 #
straight-curve $-1 -66.637775811029385 42.505045727055254 0 0 0 -1 I I #
straight-curve $-1 -66.637775811029385 -42.505045727055254 0 0 0 -1 I I #
straight-curve $-1 -32.705108122977492 -73.763807349108561 11.763703045148269 0 1 0 I I #
point $-1 -32.705108122977492 -42.505045727055254 11.763703045148269 #
straight-curve $-1 -20.798385827864895 -38.927286831519211 11.763703045148269 -1 0 0 I I #
point $-1 -32.705108122977492 -38.927286831519211 11.763703045148269 #
point $-1 -46.93176977538117 -38.502151118631033 7.7442635276140077 #
point $-1 -41.596771655729789 -38.502151118631033 7.7442635276140077 #
point $-1 -36.261773536078408 -38.502151118631033 7.7442635276140077 #
straight-curve $-1 62.179402669283711 -73.763807349108561 11.763703045148269 0 1 0 I I #
point $-1 62.179402669283711 -42.505045727055254 11.763703045148269 #
straight-curve $-1 26.643869568265707 -38.927286831519211 11.763703045148269 -1 0 0 I I #
point $-1 62.179402669283711 -38.927286831519211 11.763703045148269 #
point $-1 47.952741016880026 -38.502151118631033 7.7442635276140077 #
point $-1 53.287739136531414 -38.502151118631033 7.7442635276140077 #
point $-1 58.622737256182788 -38.502151118631033 7.7442635276140077 #
straight-curve $-1 -32.705108122977492 42.505045727055254 78.112934309643592 0 0 -1 I I #
point $-1 -32.705108122977492 42.505045727055254 11.763703045148269 #
straight-curve $-1 -20.798385827864895 42.505045727055261 7.1843803582498005 -1 0 0 I I #
point $-1 -32.705108122977492 42.505045727055247 7.1843803582498111 #
point $-1 -46.93176977538117 38.502151118631026 7.7442635276140042 #
point $-1 -41.596771655729789 38.502151118631026 7.7442635276140042 #
point $-1 -36.261773536078408 38.502151118631026 7.7442635276140042 #
straight-curve $-1 62.179402669283711 42.505045727055254 78.112934309643592 0 0 -1 I I #
point $-1 62.179402669283711 42.505045727055254 11.763703045148269 #
straight-curve $-1 26.643869568265707 42.505045727055261 7.1843803582498005 -1 0 0 I I #
point $-1 62.179402669283711 42.505045727055247 7.1843803582498111 #
point $-1 47.952741016880026 38.502151118631026 7.7442635276140042 #
point $-1 53.287739136531414 38.502151118631026 7.7442635276140042 #
point $-1 58.622737256182788 38.502151118631026 7.7442635276140042 #
End-of-ACIS-data 