500 0 5 0           
7 Unknown 11 ACIS 5.0 NT 24 Thu Mar 25 17:07:52 1999 
-1 9.9999999999999995e-007 1e-010 
body $-1 $5 $-1 $6 #
body $-1 $7 $-1 $8 #
body $-1 $9 $-1 $10 #
body $-1 $11 $-1 $12 #
body $-1 $13 $-1 $14 #
lump $-1 $-1 $15 $0 #
transform $-1 1 0 0 0 1 0 0 0 1 50.08453627124851 28.990244719840316 11.862669766169958 1 rotate no_reflect no_shear #
lump $-1 $-1 $16 $1 #
transform $-1 1 0 0 0 1 0 0 0 1 50.08453627124851 28.990244719840316 11.862669766169958 1 rotate no_reflect no_shear #
lump $-1 $-1 $17 $2 #
transform $-1 1 0 0 0 1 0 0 0 1 50.08453627124851 28.990244719840316 11.862669766169958 1 rotate no_reflect no_shear #
lump $-1 $-1 $18 $3 #
transform $-1 1 0 0 0 1 0 0 0 1 50.08453627124851 28.990244719840316 11.862669766169958 1 rotate no_reflect no_shear #
lump $-1 $-1 $19 $4 #
transform $-1 1 0 0 0 1 0 0 0 1 50.08453627124851 28.990244719840316 11.862669766169958 1 rotate no_reflect no_shear #
shell $-1 $-1 $-1 $20 $-1 $5 #
shell $-1 $-1 $-1 $21 $-1 $7 #
shell $-1 $-1 $-1 $22 $-1 $9 #
shell $-1 $-1 $-1 $23 $-1 $11 #
shell $-1 $-1 $-1 $24 $-1 $13 #
face $-1 $25 $26 $15 $-1 $27 forward single #
face $-1 $28 $29 $16 $-1 $30 reversed single #
face $-1 $31 $32 $17 $-1 $33 forward single #
face $-1 $34 $35 $18 $-1 $36 reversed single #
face $-1 $37 $38 $19 $-1 $39 reversed single #
face $-1 $40 $41 $15 $-1 $42 reversed single #
loop $-1 $-1 $43 $20 #
plane-surface $-1 0 0 11.862669766169958 0 0 1 1 0 0 forward_v I I I I #
face $-1 $44 $45 $16 $-1 $46 reversed single #
loop $-1 $-1 $47 $21 #
plane-surface $-1 -56.179907400283732 -16.854377367721519 0 0 1 0 0 0 1 forward_v I I I I #
face $-1 $48 $49 $17 $-1 $50 forward single #
loop $-1 $-1 $51 $22 #
plane-surface $-1 39.040459426894984 44.971235648625594 119.2341523747901 1 0 0 0 -0.61566148304635926 -0.78801074757464917 forward_v I I I I #
face $-1 $52 $53 $18 $-1 $54 reversed single #
loop $-1 $55 $56 $23 #
cone-surface $-1 42.195909953853132 22.748968362196372 6.1907872894449767 0 -0.61566148304635926 -0.78801074757464917 1.5 0 0 1 I I 0 1 1.5 forward I I I I #
face $-1 $57 $58 $19 $-1 $59 reversed single #
loop $-1 $60 $61 $24 #
cone-surface $-1 46.929085744290362 22.748968362196372 6.1907872894449767 0 -0.61566148304635926 -0.78801074757464917 1.5 0 0 1 I I 0 1 1.5 forward I I I I #
face $-1 $62 $63 $15 $-1 $64 reversed single #
loop $-1 $-1 $65 $25 #
plane-surface $-1 0 0 -11.862669766169958 0 0 1 1 0 0 forward_v I I I I #
coedge $-1 $66 $67 $68 $69 forward $26 $-1 #
face $-1 $70 $71 $16 $-1 $72 reversed single #
loop $-1 $-1 $73 $28 #
plane-surface $-1 -62.275278529318953 -13.964899350059472 0 1 0 0 0 0 -1 forward_v I I I I #
coedge $-1 $74 $75 $76 $77 forward $29 $-1 #
face $-1 $78 $79 $17 $-1 $80 forward single #
loop $-1 $-1 $81 $31 #
plane-surface $-1 44.562497849071747 -16.699004108266465 40.29984663671776 0 0.61566148304635926 0.78801074757464917 1 0 0 forward_v I I I I #
coedge $-1 $82 $83 $84 $85 reversed $32 $-1 #
face $-1 $86 $87 $18 $-1 $88 forward single #
loop $-1 $89 $90 $34 #
cone-surface $-1 42.195909953853132 20.691607384528613 3.5574853748588993 0 -0.61566148304635926 -0.78801074757464917 0.75 0 0 1 I I -0.70710678118654757 0.70710678118654757 0.75 forward I I I I #
loop $-1 $-1 $91 $23 #
coedge $-1 $56 $56 $92 $93 reversed $35 $-1 #
face $-1 $94 $95 $19 $-1 $96 reversed single #
loop $-1 $97 $98 $37 #
cone-surface $-1 46.929085744290362 20.691607384528613 3.5574853748588993 0 -0.61566148304635926 -0.78801074757464917 0.75 0 0 1 I I -0.70710678118654757 0.70710678118654757 0.75 forward I I I I #
loop $-1 $-1 $99 $24 #
coedge $-1 $61 $61 $100 $101 reversed $38 $-1 #
face $-1 $102 $103 $15 $-1 $104 reversed single #
loop $-1 $-1 $105 $40 #
plane-surface $-1 0 -28.990244719840316 0 0 1 0 0 0 1 forward_v I I I I #
coedge $-1 $106 $107 $108 $109 forward $41 $-1 #
coedge $-1 $110 $43 $111 $112 forward $26 $-1 #
coedge $-1 $43 $110 $113 $114 forward $26 $-1 #
coedge $-1 $115 $116 $43 $69 reversed $117 $-1 #
edge $-1 $118 -28.990244719840316 $119 28.990244719840316 $68 $120 forward 7 unknown #
face $-1 $121 $122 $16 $-1 $123 reversed single #
loop $-1 $-1 $124 $44 #
plane-surface $-1 -56.179907400283732 -11.075421332397426 0 0 -1 0 0 0 -1 forward_v I I I I #
coedge $-1 $125 $126 $127 $128 forward $45 $-1 #
coedge $-1 $129 $47 $130 $131 reversed $29 $-1 #
coedge $-1 $47 $129 $132 $133 reversed $29 $-1 #
coedge $-1 $126 $125 $47 $77 reversed $45 $-1 #
edge $-1 $134 -11.862669766169958 $135 11.862669766169958 $76 $136 forward 7 unknown #
face $-1 $137 $138 $17 $-1 $139 reversed single #
loop $-1 $-1 $140 $48 #
plane-surface $-1 0 0 11.862669766169958 0 0 1 1 0 0 forward_v I I I I #
coedge $-1 $141 $142 $140 $143 reversed $49 $-1 #
coedge $-1 $83 $51 $142 $144 forward $32 $-1 #
coedge $-1 $51 $82 $145 $146 reversed $32 $-1 #
coedge $-1 $147 $140 $51 $85 forward $79 $-1 #
edge $-1 $148 -2.7866960889943471 $149 6.5046268955275188 $84 $150 forward 7 unknown #
face $-1 $151 $152 $18 $-1 $153 forward single #
loop $-1 $-1 $154 $52 #
plane-surface $-1 39.040459426894984 44.971235648625594 119.2341523747901 1 0 0 0 -0.61566148304635926 -0.78801074757464917 forward_v I I I I #
loop $-1 $-1 $155 $34 #
coedge $-1 $90 $90 $91 $156 forward $53 $-1 #
coedge $-1 $91 $91 $90 $156 reversed $55 $-1 #
coedge $-1 $92 $92 $56 $93 forward $152 $-1 #
edge $-1 $157 5.8284598384993736e-016 $157 6.2831853071796013 $92 $158 forward 7 unknown #
face $-1 $159 $160 $19 $-1 $161 reversed single #
loop $-1 $162 $163 $57 #
cone-surface $-1 42.195909953853132 22.748968362196372 6.1907872894449767 0 -0.61566148304635926 -0.78801074757464917 1.5 0 0 1 I I 0 1 1.5 forward I I I I #
loop $-1 $-1 $164 $37 #
coedge $-1 $98 $98 $99 $165 forward $58 $-1 #
coedge $-1 $99 $99 $98 $165 reversed $60 $-1 #
coedge $-1 $100 $100 $61 $101 forward $166 $-1 #
edge $-1 $167 5.8284598384993736e-016 $167 6.2831853071796013 $100 $168 forward 7 unknown #
face $-1 $169 $170 $15 $-1 $171 reversed single #
loop $-1 $-1 $172 $62 #
plane-surface $-1 -50.08453627124851 0 0 1 0 0 0 0 -1 forward_v I I I I #
coedge $-1 $173 $113 $174 $175 forward $63 $-1 #
coedge $-1 $176 $65 $173 $177 forward $41 $-1 #
coedge $-1 $65 $176 $178 $179 forward $41 $-1 #
coedge $-1 $116 $115 $65 $109 reversed $117 $-1 #
edge $-1 $180 -28.990244719840316 $181 28.990244719840316 $108 $182 forward 7 unknown #
coedge $-1 $67 $66 $183 $184 forward $26 $-1 #
coedge $-1 $185 $186 $66 $112 reversed $170 $-1 #
edge $-1 $119 -50.08453627124851 $187 50.08453627124851 $111 $188 forward 7 unknown #
coedge $-1 $105 $189 $67 $114 reversed $63 $-1 #
edge $-1 $190 -50.08453627124851 $118 50.08453627124851 $113 $191 forward 7 unknown #
coedge $-1 $108 $68 $189 $192 forward $117 $-1 #
coedge $-1 $68 $108 $185 $193 reversed $117 $-1 #
loop $-1 $-1 $115 $169 #
vertex $-1 $69 $194 #
vertex $-1 $69 $195 #
straight-curve $-1 50.08453627124851 0 11.862669766169958 0 1 0 I I #
face $-1 $196 $197 $16 $-1 $123 reversed single #
loop $-1 $-1 $198 $70 #
plane-surface $-1 -50.08453627124851 0 0 1 0 0 0 0 -1 forward_v I I I I #
coedge $-1 $199 $200 $198 $201 reversed $71 $-1 #
coedge $-1 $76 $73 $202 $203 reversed $45 $-1 #
coedge $-1 $73 $76 $204 $205 reversed $45 $-1 #
coedge $-1 $200 $199 $73 $128 reversed $71 $-1 #
edge $-1 $206 -11.862669766169958 $207 11.862669766169958 $127 $208 forward 7 unknown #
coedge $-1 $75 $74 $209 $210 reversed $29 $-1 #
coedge $-1 $202 $211 $74 $131 forward $212 $-1 #
edge $-1 $213 -6.0953711290352217 $135 6.0953711290352217 $74 $214 forward 7 unknown #
coedge $-1 $215 $204 $75 $133 forward $216 $-1 #
edge $-1 $134 -6.0953711290352217 $217 6.0953711290352217 $75 $218 forward 7 unknown #
vertex $-1 $205 $219 #
vertex $-1 $203 $220 #
straight-curve $-1 -62.275278529318953 -16.854377367721519 0 0 0 -1 I I #
face $-1 $221 $222 $17 $-1 $223 reversed single #
loop $-1 $-1 $145 $78 #
plane-surface $-1 0 28.990244719840316 0 0 -1 0 0 0 -1 forward_v I I I I #
coedge $-1 $84 $224 $81 $143 forward $79 $-1 #
coedge $-1 $225 $81 $226 $227 reversed $49 $-1 #
coedge $-1 $81 $225 $82 $144 reversed $49 $-1 #
edge $-1 $228 -27.803287346712636 $148 -16.75921050235911 $140 $229 forward 7 unknown #
edge $-1 $148 46.189631239943076 $230 57.980489439680625 $82 $231 forward 7 unknown #
coedge $-1 $232 $233 $83 $146 forward $138 $-1 #
edge $-1 $149 47.754406421225092 $230 55.013583666864839 $145 $234 forward 7 unknown #
coedge $-1 $235 $84 $233 $236 forward $79 $-1 #
vertex $-1 $143 $237 #
vertex $-1 $236 $238 #
straight-curve $-1 39.040459426894984 22.485617824312797 11.862669766169958 0 1 0 I I #
face $-1 $239 $240 $18 $-1 $241 forward single #
loop $-1 $242 $92 $86 #
plane-surface $-1 44.562497849071747 -16.699004108266465 40.29984663671776 0 0.61566148304635926 0.78801074757464917 1 0 0 forward_v I I I I #
coedge $-1 $243 $244 $245 $246 reversed $87 $-1 #
coedge $-1 $155 $155 $-1 $247 forward $89 $-1 #
edge $-1 $248 0 $248 6.2831853071796004 $90 $249 forward 7 unknown #
vertex $-1 $93 $250 #
ellipse-curve $-1 42.195909953853132 24.344583227579381 8.2330811433500912 0 -0.61566148304635926 -0.78801074757464917 1.5 0 0 1 I I #
face $-1 $251 $252 $19 $-1 $253 forward single #
loop $-1 $254 $255 $94 #
cone-surface $-1 42.195909953853132 20.691607384528613 3.5574853748588993 0 -0.61566148304635926 -0.78801074757464917 0.75 0 0 1 I I -0.70710678118654757 0.70710678118654757 0.75 forward I I I I #
loop $-1 $-1 $256 $57 #
coedge $-1 $163 $163 $257 $258 reversed $95 $-1 #
coedge $-1 $164 $164 $-1 $259 forward $97 $-1 #
edge $-1 $260 0 $260 6.2831853071796004 $98 $261 forward 7 unknown #
loop $-1 $262 $100 $251 #
vertex $-1 $101 $263 #
ellipse-curve $-1 46.929085744290362 24.344583227579381 8.2330811433500912 0 -0.61566148304635926 -0.78801074757464917 1.5 0 0 1 I I #
face $-1 $-1 $117 $15 $-1 $264 reversed single #
loop $-1 $-1 $185 $102 #
plane-surface $-1 0 28.990244719840316 0 0 -1 0 0 0 -1 forward_v I I I I #
coedge $-1 $265 $183 $186 $266 forward $103 $-1 #
coedge $-1 $189 $105 $106 $177 reversed $63 $-1 #
coedge $-1 $183 $265 $105 $175 reversed $103 $-1 #
edge $-1 $190 -11.862669766169958 $267 11.862669766169958 $174 $268 forward 7 unknown #
coedge $-1 $107 $106 $265 $269 forward $41 $-1 #
edge $-1 $181 -50.08453627124851 $267 50.08453627124851 $173 $270 forward 7 unknown #
coedge $-1 $186 $185 $107 $179 reversed $170 $-1 #
edge $-1 $271 -50.08453627124851 $180 50.08453627124851 $178 $272 forward 7 unknown #
vertex $-1 $109 $273 #
vertex $-1 $192 $274 #
straight-curve $-1 50.08453627124851 0 -11.862669766169958 0 -1 0 I I #
coedge $-1 $172 $174 $110 $184 reversed $103 $-1 #
edge $-1 $187 -28.990244719840316 $190 28.990244719840316 $183 $275 forward 7 unknown #
coedge $-1 $178 $111 $116 $193 forward $170 $-1 #
coedge $-1 $111 $178 $172 $266 reversed $170 $-1 #
vertex $-1 $112 $276 #
straight-curve $-1 0 28.990244719840316 11.862669766169958 -1 0 0 I I #
coedge $-1 $113 $173 $115 $192 reversed $63 $-1 #
vertex $-1 $184 $277 #
straight-curve $-1 0 -28.990244719840316 11.862669766169958 1 0 0 I I #
edge $-1 $118 -11.862669766169958 $181 11.862669766169958 $115 $278 forward 7 unknown #
edge $-1 $119 -11.862669766169958 $180 11.862669766169958 $116 $279 forward 7 unknown #
point $-1 50.08453627124851 -28.990244719840316 11.862669766169958 #
point $-1 50.08453627124851 28.990244719840316 11.862669766169958 #
face $-1 $280 $216 $16 $-1 $281 forward single #
loop $-1 $-1 $209 $121 #
coedge $-1 $282 $283 $124 $201 forward $122 $-1 #
coedge $-1 $127 $124 $284 $285 reversed $71 $-1 #
coedge $-1 $124 $127 $286 $287 reversed $71 $-1 #
edge $-1 $288 -11.862669766169958 $289 11.862669766169958 $198 $290 forward 7 unknown #
coedge $-1 $284 $130 $125 $203 forward $212 $-1 #
edge $-1 $135 -2.8894780176620465 $207 2.8894780176620465 $125 $291 forward 7 unknown #
coedge $-1 $132 $286 $126 $205 forward $216 $-1 #
edge $-1 $206 -2.8894780176620465 $134 2.8894780176620465 $126 $292 forward 7 unknown #
vertex $-1 $287 $293 #
vertex $-1 $285 $294 #
straight-curve $-1 -62.275278529318953 -11.075421332397426 0 0 0 -1 I I #
coedge $-1 $295 $296 $129 $210 forward $197 $-1 #
edge $-1 $217 -11.862669766169958 $213 11.862669766169958 $209 $297 forward 7 unknown #
coedge $-1 $130 $298 $295 $299 forward $212 $-1 #
loop $-1 $-1 $300 $280 #
vertex $-1 $131 $301 #
straight-curve $-1 -56.179907400283732 -16.854377367721519 -11.862669766169958 -1 0 0 I I #
coedge $-1 $302 $132 $296 $303 forward $216 $-1 #
loop $-1 $-1 $304 $196 #
vertex $-1 $303 $305 #
straight-curve $-1 -56.179907400283732 -16.854377367721519 11.862669766169958 1 0 0 I I #
point $-1 -62.275278529318953 -16.854377367721519 11.862669766169958 #
point $-1 -62.275278529318953 -16.854377367721519 -11.862669766169958 #
face $-1 $306 $307 $17 $-1 $308 reversed single #
loop $-1 $-1 $309 $137 #
plane-surface $-1 -56.179907400283732 -16.854377367721519 0 0 1 0 0 0 1 forward_v I I I I #
coedge $-1 $140 $310 $311 $312 forward $79 $-1 #
coedge $-1 $142 $141 $232 $313 reversed $49 $-1 #
coedge $-1 $311 $314 $141 $227 forward $315 $-1 #
edge $-1 $316 -38.995460410675783 $228 -27.204602210938233 $226 $317 forward 7 unknown #
vertex $-1 $227 $318 #
straight-curve $-1 22.281248924535873 19.69892173531845 11.862669766169954 -1 0 0 I I #
vertex $-1 $313 $319 #
straight-curve $-1 39.040459426894984 -16.699004108266465 40.29984663671776 0 0.78801074757464917 -0.61566148304635926 I I #
coedge $-1 $320 $145 $225 $313 forward $138 $-1 #
coedge $-1 $145 $321 $147 $236 reversed $138 $-1 #
straight-curve $-1 39.040459426894984 28.990244719840316 59.61707618739505 0 0 -1 I I #
coedge $-1 $322 $147 $323 $324 forward $79 $-1 #
edge $-1 $149 -39.040459426894984 $325 50.08453627124851 $233 $326 forward 7 unknown #
point $-1 39.040459426894984 19.69892173531845 11.862669766169962 #
point $-1 39.040459426894984 28.990244719840316 11.862669766169958 #
face $-1 $327 $328 $18 $-1 $329 reversed single #
loop $-1 $-1 $330 $151 #
plane-surface $-1 0 0 11.862669766169958 0 0 1 1 0 0 forward_v I I I I #
loop $-1 $-1 $331 $86 #
coedge $-1 $244 $154 $332 $333 forward $87 $-1 #
coedge $-1 $154 $243 $334 $335 reversed $87 $-1 #
coedge $-1 $336 $330 $154 $246 forward $240 $-1 #
edge $-1 $337 -2.7866960889943471 $338 6.5046268955275188 $245 $339 forward 7 unknown #
edge $-1 $340 1 $340 0 $155 $-1 forward 7 unknown #
vertex $-1 $156 $341 #
ellipse-curve $-1 42.195909953853132 21.153353496813381 4.1484934355398861 0 0.61566148304635926 0.78801074757464917 1.5 0 0 1 I I #
point $-1 43.695909953853132 24.344583227579363 8.2330811433500699 #
face $-1 $342 $166 $19 $-1 $343 forward single #
loop $-1 $-1 $344 $159 #
plane-surface $-1 39.040459426894984 44.971235648625594 119.2341523747901 1 0 0 0 -0.61566148304635926 -0.78801074757464917 forward_v I I I I #
loop $-1 $-1 $345 $94 #
coedge $-1 $255 $255 $256 $346 forward $160 $-1 #
coedge $-1 $256 $256 $255 $346 reversed $162 $-1 #
coedge $-1 $257 $257 $163 $258 forward $262 $-1 #
edge $-1 $347 5.8284598384993736e-016 $347 6.2831853071796013 $257 $348 forward 7 unknown #
edge $-1 $349 1 $349 0 $164 $-1 forward 7 unknown #
vertex $-1 $165 $350 #
ellipse-curve $-1 46.929085744290362 21.153353496813381 4.1484934355398861 0 0.61566148304635926 0.78801074757464917 1.5 0 0 1 I I #
loop $-1 $351 $257 $251 #
point $-1 48.429085744290362 24.344583227579363 8.2330811433500699 #
plane-surface $-1 50.08453627124851 0 0 -1 0 0 0 0 1 forward_v I I I I #
coedge $-1 $174 $172 $176 $269 reversed $103 $-1 #
edge $-1 $187 -11.862669766169958 $271 11.862669766169958 $186 $352 forward 7 unknown #
vertex $-1 $269 $353 #
straight-curve $-1 -50.08453627124851 -28.990244719840316 0 0 0 -1 I I #
edge $-1 $267 -28.990244719840316 $271 28.990244719840316 $265 $354 forward 7 unknown #
straight-curve $-1 0 -28.990244719840316 -11.862669766169958 -1 0 0 I I #
vertex $-1 $179 $355 #
straight-curve $-1 0 28.990244719840316 -11.862669766169958 1 0 0 I I #
point $-1 50.08453627124851 28.990244719840316 -11.862669766169958 #
point $-1 50.08453627124851 -28.990244719840316 -11.862669766169958 #
straight-curve $-1 -50.08453627124851 0 11.862669766169958 0 -1 0 I I #
point $-1 -50.08453627124851 28.990244719840316 11.862669766169958 #
point $-1 -50.08453627124851 -28.990244719840316 11.862669766169958 #
straight-curve $-1 50.08453627124851 -28.990244719840316 0 0 0 -1 I I #
straight-curve $-1 50.08453627124851 28.990244719840316 0 0 0 -1 I I #
face $-1 $356 $212 $16 $-1 $357 reversed single #
plane-surface $-1 0 0 11.862669766169958 0 0 1 1 0 0 forward_v I I I I #
coedge $-1 $358 $198 $359 $360 reversed $122 $-1 #
coedge $-1 $198 $358 $361 $362 reversed $122 $-1 #
coedge $-1 $361 $202 $199 $285 forward $212 $-1 #
edge $-1 $207 -6.0953711290352217 $288 6.0953711290352217 $199 $363 forward 7 unknown #
coedge $-1 $204 $359 $200 $287 forward $216 $-1 #
edge $-1 $289 -6.0953711290352217 $206 6.0953711290352217 $200 $364 forward 7 unknown #
vertex $-1 $362 $365 #
vertex $-1 $287 $366 #
straight-curve $-1 -50.08453627124851 -11.075421332397426 0 0 0 1 I I #
straight-curve $-1 -62.275278529318953 -13.964899350059472 -11.862669766169958 0 1 0 I I #
straight-curve $-1 -62.275278529318953 -13.964899350059472 11.862669766169958 0 -1 0 I I #
point $-1 -62.275278529318953 -11.075421332397426 11.862669766169958 #
point $-1 -62.275278529318953 -11.075421332397426 -11.862669766169958 #
coedge $-1 $367 $209 $211 $299 reversed $197 $-1 #
coedge $-1 $209 $367 $215 $303 reversed $197 $-1 #
straight-curve $-1 -50.08453627124851 -16.854377367721519 0 0 0 -1 I I #
coedge $-1 $211 $300 $368 $369 forward $212 $-1 #
edge $-1 $370 -28.990244719840316 $213 -16.854377367721519 $295 $371 forward 7 unknown #
coedge $-1 $298 $372 $373 $374 forward $212 $-1 #
point $-1 -50.08453627124851 -16.854377367721519 -11.862669766169958 #
coedge $-1 $304 $215 $375 $376 forward $216 $-1 #
edge $-1 $217 16.854377367721519 $377 28.990244719840316 $296 $378 forward 7 unknown #
coedge $-1 $379 $302 $380 $381 forward $216 $-1 #
point $-1 -50.08453627124851 -16.854377367721519 11.862669766169958 #
face $-1 $382 $383 $17 $-1 $384 reversed single #
loop $-1 $-1 $385 $221 #
plane-surface $-1 -62.275278529318953 -13.964899350059472 0 1 0 0 0 0 -1 forward_v I I I I #
coedge $-1 $386 $387 $388 $389 forward $222 $-1 #
coedge $-1 $224 $390 $391 $392 forward $79 $-1 #
coedge $-1 $393 $226 $224 $312 reversed $315 $-1 #
edge $-1 $394 -28.990244719840316 $228 19.69892173531845 $311 $395 forward 7 unknown #
edge $-1 $230 16.75921050235911 $316 27.803287346712636 $232 $396 forward 7 unknown #
coedge $-1 $226 $397 $320 $398 reversed $315 $-1 #
loop $-1 $-1 $226 $399 #
vertex $-1 $398 $400 #
straight-curve $-1 50.08453627124851 -1.7385971903939428 28.611495509042456 0 -0.78801074757464917 0.61566148304635926 I I #
point $-1 50.08453627124851 19.69892173531845 11.862669766169962 #
point $-1 39.040459426894984 28.990244719840319 4.6034925205302102 #
coedge $-1 $401 $232 $314 $398 forward $138 $-1 #
coedge $-1 $233 $401 $402 $403 reversed $138 $-1 #
coedge $-1 $404 $235 $405 $406 forward $79 $-1 #
coedge $-1 $402 $407 $235 $324 reversed $408 $-1 #
edge $-1 $325 -28.990244719840316 $409 11.075421332397426 $323 $410 forward 7 unknown #
vertex $-1 $236 $411 #
straight-curve $-1 0 28.990244719840316 11.862669766169958 -1 0 0 I I #
face $-1 $412 $413 $18 $-1 $414 reversed single #
loop $-1 $-1 $334 $239 #
plane-surface $-1 0 28.990244719840316 0 0 -1 0 0 0 -1 forward_v I I I I #
coedge $-1 $245 $415 $331 $416 forward $240 $-1 #
coedge $-1 $417 $332 $330 $416 reversed $242 $-1 #
coedge $-1 $331 $418 $243 $333 reversed $242 $-1 #
edge $-1 $337 46.189631239943076 $419 57.980489439680625 $243 $420 forward 7 unknown #
coedge $-1 $421 $422 $244 $335 forward $328 $-1 #
edge $-1 $338 47.754406421225092 $419 55.013583666864839 $334 $423 forward 7 unknown #
coedge $-1 $424 $245 $422 $425 forward $240 $-1 #
vertex $-1 $416 $426 #
vertex $-1 $425 $427 #
straight-curve $-1 39.040459426894984 22.485617824312797 11.862669766169958 0 1 0 I I #
vertex $-1 $247 $428 #
point $-1 43.695909953853132 21.153353496813381 4.1484934355398861 #
face $-1 $429 $430 $19 $-1 $431 forward single #
plane-surface $-1 44.562497849071747 -16.699004108266465 40.29984663671776 0 0.61566148304635926 0.78801074757464917 1 0 0 forward_v I I I I #
coedge $-1 $432 $433 $434 $435 reversed $252 $-1 #
coedge $-1 $345 $345 $-1 $436 forward $254 $-1 #
edge $-1 $437 0 $437 6.2831853071796004 $255 $438 forward 7 unknown #
vertex $-1 $258 $439 #
ellipse-curve $-1 42.195909953853132 24.344583227579381 8.2330811433500912 0 -0.61566148304635926 -0.78801074757464917 1.5 0 0 1 I I #
vertex $-1 $259 $440 #
point $-1 48.429085744290362 21.153353496813381 4.1484934355398861 #
loop $-1 $-1 $441 $251 #
straight-curve $-1 -50.08453627124851 28.990244719840316 0 0 0 -1 I I #
point $-1 -50.08453627124851 -28.990244719840316 -11.862669766169958 #
straight-curve $-1 -50.08453627124851 0 -11.862669766169958 0 1 0 I I #
point $-1 -50.08453627124851 28.990244719840316 -11.862669766169958 #
face $-1 $442 $443 $16 $-1 $444 reversed single #
plane-surface $-1 0 0 -11.862669766169958 0 0 1 1 0 0 forward_v I I I I #
coedge $-1 $283 $282 $445 $446 forward $122 $-1 #
coedge $-1 $286 $379 $282 $360 forward $216 $-1 #
edge $-1 $447 -28.990244719840316 $289 11.075421332397426 $282 $378 forward 7 unknown #
coedge $-1 $372 $284 $283 $362 forward $212 $-1 #
edge $-1 $288 -11.075421332397426 $448 28.990244719840316 $283 $371 forward 7 unknown #
straight-curve $-1 -56.179907400283732 -11.075421332397426 -11.862669766169958 1 0 0 I I #
straight-curve $-1 -56.179907400283732 -11.075421332397426 11.862669766169958 -1 0 0 I I #
point $-1 -50.08453627124851 -11.075421332397426 -11.862669766169958 #
point $-1 -50.08453627124851 -11.075421332397426 11.862669766169958 #
coedge $-1 $296 $295 $449 $450 reversed $197 $-1 #
coedge $-1 $451 $449 $298 $369 reversed $443 $-1 #
edge $-1 $452 -50.08453627124851 $370 50.08453627124851 $368 $453 forward 7 unknown #
vertex $-1 $299 $454 #
straight-curve $-1 -50.08453627124851 0 -11.862669766169958 0 1 0 I I #
coedge $-1 $300 $361 $455 $456 forward $212 $-1 #
coedge $-1 $457 $458 $300 $374 reversed $459 $-1 #
edge $-1 $460 -28.990244719840316 $452 28.990244719840316 $373 $461 forward 7 unknown #
coedge $-1 $449 $451 $302 $376 reversed $443 $-1 #
edge $-1 $377 -50.08453627124851 $462 50.08453627124851 $375 $463 forward 7 unknown #
vertex $-1 $303 $464 #
straight-curve $-1 -50.08453627124851 0 11.862669766169958 0 -1 0 I I #
coedge $-1 $359 $304 $465 $466 forward $216 $-1 #
coedge $-1 $458 $457 $304 $381 reversed $459 $-1 #
edge $-1 $462 -28.990244719840316 $467 28.990244719840316 $380 $468 forward 7 unknown #
face $-1 $469 $408 $17 $-1 $470 reversed single #
loop $-1 $-1 $471 $306 #
plane-surface $-1 -56.179907400283732 -11.075421332397426 0 0 -1 0 0 0 -1 forward_v I I I I #
coedge $-1 $472 $473 $474 $475 forward $307 $-1 #
coedge $-1 $476 $309 $477 $478 reversed $222 $-1 #
coedge $-1 $309 $476 $479 $480 reversed $222 $-1 #
coedge $-1 $473 $472 $309 $389 reversed $307 $-1 #
edge $-1 $481 -11.862669766169958 $482 11.862669766169958 $388 $483 forward 7 unknown #
coedge $-1 $310 $479 $484 $485 forward $79 $-1 #
coedge $-1 $486 $487 $310 $392 reversed $488 $-1 #
edge $-1 $489 -50.08453627124851 $394 50.08453627124851 $391 $490 forward 7 unknown #
coedge $-1 $397 $311 $487 $491 forward $315 $-1 #
vertex $-1 $312 $492 #
straight-curve $-1 50.08453627124851 0 11.862669766169958 0 1 0 I I #
straight-curve $-1 22.281248924535873 28.990244719840319 4.6034925205302137 1 0 0 I I #
coedge $-1 $314 $393 $493 $494 reversed $315 $-1 #
edge $-1 $316 -4.6034925205302102 $495 11.862669766169958 $314 $496 forward 7 unknown #
face $-1 $-1 $315 $17 $-1 $497 reversed single #
point $-1 50.08453627124851 28.990244719840319 4.6034925205302102 #
coedge $-1 $321 $320 $498 $499 reversed $138 $-1 #
coedge $-1 $500 $323 $321 $403 forward $408 $-1 #
edge $-1 $325 -11.862669766169958 $501 11.862669766169958 $321 $502 forward 7 unknown #
coedge $-1 $479 $322 $473 $503 forward $79 $-1 #
coedge $-1 $471 $474 $322 $406 reversed $383 $-1 #
edge $-1 $409 -6.0953711290352217 $504 6.0953711290352217 $405 $505 forward 7 unknown #
coedge $-1 $323 $500 $471 $506 forward $408 $-1 #
loop $-1 $-1 $407 $382 #
vertex $-1 $406 $507 #
straight-curve $-1 -50.08453627124851 0 11.862669766169958 0 -1 0 I I #
point $-1 -50.08453627124851 28.990244719840316 11.862669766169958 #
face $-1 $508 $509 $18 $-1 $510 reversed single #
loop $-1 $-1 $511 $327 #
plane-surface $-1 -56.179907400283732 -16.854377367721519 0 0 1 0 0 0 1 forward_v I I I I #
coedge $-1 $330 $512 $513 $514 forward $240 $-1 #
edge $-1 $515 -27.803287346712636 $337 -16.75921050235911 $330 $516 forward 7 unknown #
coedge $-1 $418 $331 $517 $518 reversed $242 $-1 #
coedge $-1 $332 $417 $421 $519 reversed $242 $-1 #
vertex $-1 $519 $520 #
straight-curve $-1 39.040459426894984 -16.699004108266465 40.29984663671776 0 0.78801074757464917 -0.61566148304635926 I I #
coedge $-1 $521 $334 $418 $519 forward $328 $-1 #
coedge $-1 $334 $522 $336 $425 reversed $328 $-1 #
straight-curve $-1 39.040459426894984 28.990244719840316 59.61707618739505 0 0 -1 I I #
coedge $-1 $523 $336 $524 $525 forward $240 $-1 #
edge $-1 $338 -39.040459426894984 $526 50.08453627124851 $422 $527 forward 7 unknown #
point $-1 39.040459426894984 19.69892173531845 11.862669766169962 #
point $-1 39.040459426894984 28.990244719840316 11.862669766169958 #
point $-1 42.195909953853132 20.229861272243845 2.9664773141779124 #
face $-1 $528 $529 $19 $-1 $530 reversed single #
loop $-1 $-1 $531 $342 #
plane-surface $-1 0 0 11.862669766169958 0 0 1 1 0 0 forward_v I I I I #
coedge $-1 $433 $344 $532 $533 forward $252 $-1 #
coedge $-1 $344 $432 $534 $535 reversed $252 $-1 #
coedge $-1 $536 $531 $344 $435 forward $430 $-1 #
edge $-1 $537 -2.7866960889943471 $538 6.5046268955275188 $434 $539 forward 7 unknown #
edge $-1 $540 1 $540 0 $345 $-1 forward 7 unknown #
vertex $-1 $346 $541 #
ellipse-curve $-1 42.195909953853132 21.153353496813381 4.1484934355398861 0 0.61566148304635926 0.78801074757464917 1.5 0 0 1 I I #
point $-1 43.695909953853132 24.344583227579363 8.2330811433500699 #
point $-1 46.929085744290362 20.229861272243845 2.9664773141779124 #
coedge $-1 $542 $532 $531 $543 reversed $351 $-1 #
face $-1 $544 $545 $16 $-1 $546 reversed single #
loop $-1 $-1 $449 $356 #
plane-surface $-1 0 -28.990244719840316 0 0 1 0 0 0 1 forward_v I I I I #
coedge $-1 $465 $455 $358 $446 reversed $545 $-1 #
edge $-1 $447 -11.862669766169958 $448 11.862669766169958 $445 $547 forward 7 unknown #
vertex $-1 $466 $548 #
vertex $-1 $456 $549 #
coedge $-1 $368 $375 $367 $450 forward $443 $-1 #
edge $-1 $377 -11.862669766169958 $370 11.862669766169958 $367 $550 forward 7 unknown #
coedge $-1 $375 $368 $458 $551 reversed $443 $-1 #
vertex $-1 $551 $552 #
straight-curve $-1 0 -28.990244719840316 -11.862669766169958 -1 0 0 I I #
point $-1 -50.08453627124851 -28.990244719840316 -11.862669766169958 #
coedge $-1 $445 $553 $372 $456 reversed $545 $-1 #
edge $-1 $448 -50.08453627124851 $460 50.08453627124851 $455 $554 forward 7 unknown #
coedge $-1 $380 $373 $553 $555 reversed $459 $-1 #
coedge $-1 $373 $380 $451 $551 forward $459 $-1 #
loop $-1 $-1 $458 $544 #
vertex $-1 $374 $556 #
straight-curve $-1 50.08453627124851 0 -11.862669766169958 0 -1 0 I I #
vertex $-1 $381 $557 #
straight-curve $-1 0 -28.990244719840316 11.862669766169958 1 0 0 I I #
point $-1 -50.08453627124851 -28.990244719840316 11.862669766169958 #
coedge $-1 $553 $445 $379 $466 reversed $545 $-1 #
edge $-1 $467 -50.08453627124851 $447 50.08453627124851 $465 $558 forward 7 unknown #
vertex $-1 $381 $559 #
straight-curve $-1 50.08453627124851 0 11.862669766169958 0 1 0 I I #
face $-1 $560 $561 $17 $-1 $470 reversed single #
plane-surface $-1 -50.08453627124851 0 0 1 0 0 0 0 -1 forward_v I I I I #
coedge $-1 $562 $405 $407 $506 reversed $383 $-1 #
coedge $-1 $388 $385 $563 $564 reversed $307 $-1 #
coedge $-1 $385 $388 $404 $503 reversed $307 $-1 #
coedge $-1 $405 $562 $385 $475 reversed $383 $-1 #
edge $-1 $504 -11.862669766169958 $565 11.862669766169958 $474 $566 forward 7 unknown #
coedge $-1 $387 $386 $567 $568 reversed $222 $-1 #
coedge $-1 $563 $569 $386 $478 forward $570 $-1 #
edge $-1 $571 -6.0953711290352217 $482 6.0953711290352217 $386 $572 forward 7 unknown #
coedge $-1 $390 $404 $387 $480 forward $79 $-1 #
edge $-1 $481 -6.0953711290352217 $573 6.0953711290352217 $387 $574 forward 7 unknown #
vertex $-1 $503 $575 #
vertex $-1 $564 $576 #
straight-curve $-1 -62.275278529318953 -16.854377367721519 0 0 0 -1 I I #
coedge $-1 $567 $577 $390 $485 reversed $561 $-1 #
edge $-1 $573 16.854377367721519 $489 28.990244719840316 $484 $410 forward 7 unknown #
coedge $-1 $578 $391 $577 $579 forward $488 $-1 #
coedge $-1 $391 $578 $393 $491 reversed $488 $-1 #
loop $-1 $-1 $486 $580 #
vertex $-1 $485 $581 #
straight-curve $-1 0 -28.990244719840316 11.862669766169958 1 0 0 I I #
edge $-1 $394 -11.862669766169958 $582 11.862669766169958 $393 $583 forward 7 unknown #
point $-1 50.08453627124851 -28.990244719840316 11.862669766169958 #
coedge $-1 $584 $498 $397 $494 forward $570 $-1 #
edge $-1 $495 -28.990244719840316 $582 28.990244719840316 $397 $585 forward 7 unknown #
vertex $-1 $494 $586 #
straight-curve $-1 50.08453627124851 28.990244719840316 0 0 0 -1 I I #
plane-surface $-1 50.08453627124851 0 0 -1 0 0 0 0 1 forward_v I I I I #
coedge $-1 $493 $587 $401 $499 forward $570 $-1 #
edge $-1 $501 -50.08453627124851 $495 50.08453627124851 $401 $588 forward 7 unknown #
coedge $-1 $407 $402 $587 $589 reversed $408 $-1 #
vertex $-1 $499 $590 #
straight-curve $-1 -50.08453627124851 28.990244719840316 0 0 0 -1 I I #
edge $-1 $504 -2.8894780176620465 $481 2.8894780176620465 $473 $591 forward 7 unknown #
vertex $-1 $406 $592 #
straight-curve $-1 -56.179907400283732 -11.075421332397426 11.862669766169958 -1 0 0 I I #
edge $-1 $593 -11.862669766169958 $409 11.862669766169958 $407 $594 forward 7 unknown #
point $-1 -50.08453627124851 -11.075421332397426 11.862669766169958 #
face $-1 $595 $596 $18 $-1 $597 reversed single #
loop $-1 $-1 $598 $412 #
plane-surface $-1 -62.275278529318953 -13.964899350059472 0 1 0 0 0 0 -1 forward_v I I I I #
coedge $-1 $599 $600 $601 $602 forward $413 $-1 #
coedge $-1 $415 $603 $604 $605 forward $240 $-1 #
coedge $-1 $606 $517 $415 $514 reversed $607 $-1 #
edge $-1 $608 -28.990244719840316 $515 19.69892173531845 $513 $609 forward 7 unknown #
vertex $-1 $518 $610 #
straight-curve $-1 22.281248924535873 19.69892173531845 11.862669766169954 -1 0 0 I I #
coedge $-1 $513 $611 $417 $518 forward $607 $-1 #
edge $-1 $612 -38.995460410675783 $515 -27.204602210938233 $517 $613 forward 7 unknown #
edge $-1 $419 16.75921050235911 $612 27.803287346712636 $421 $614 forward 7 unknown #
point $-1 39.040459426894984 28.990244719840319 4.6034925205302102 #
coedge $-1 $615 $421 $611 $616 forward $328 $-1 #
coedge $-1 $422 $615 $617 $618 reversed $328 $-1 #
coedge $-1 $619 $424 $620 $621 forward $240 $-1 #
coedge $-1 $617 $622 $424 $525 reversed $623 $-1 #
edge $-1 $526 -28.990244719840316 $624 11.075421332397426 $524 $625 forward 7 unknown #
vertex $-1 $425 $626 #
straight-curve $-1 0 28.990244719840316 11.862669766169958 -1 0 0 I I #
face $-1 $627 $628 $19 $-1 $629 reversed single #
loop $-1 $-1 $534 $429 #
plane-surface $-1 0 28.990244719840316 0 0 -1 0 0 0 -1 forward_v I I I I #
coedge $-1 $434 $630 $441 $543 forward $430 $-1 #
coedge $-1 $441 $631 $432 $533 reversed $351 $-1 #
edge $-1 $537 46.189631239943076 $632 57.980489439680625 $432 $633 forward 7 unknown #
coedge $-1 $634 $635 $433 $535 forward $529 $-1 #
edge $-1 $538 47.754406421225092 $632 55.013583666864839 $534 $636 forward 7 unknown #
coedge $-1 $637 $434 $635 $638 forward $430 $-1 #
vertex $-1 $543 $639 #
vertex $-1 $638 $640 #
straight-curve $-1 39.040459426894984 22.485617824312797 11.862669766169958 0 1 0 I I #
vertex $-1 $436 $641 #
point $-1 43.695909953853132 21.153353496813381 4.1484934355398861 #
coedge $-1 $631 $441 $642 $643 reversed $351 $-1 #
edge $-1 $644 -27.803287346712636 $537 -16.75921050235911 $531 $645 forward 7 unknown #
face $-1 $-1 $459 $16 $-1 $646 reversed single #
loop $-1 $-1 $553 $442 #
plane-surface $-1 0 28.990244719840316 0 0 -1 0 0 0 -1 forward_v I I I I #
straight-curve $-1 -50.08453627124851 28.990244719840316 0 0 0 -1 I I #
point $-1 -50.08453627124851 28.990244719840316 11.862669766169958 #
point $-1 -50.08453627124851 28.990244719840316 -11.862669766169958 #
straight-curve $-1 -50.08453627124851 -28.990244719840316 0 0 0 -1 I I #
edge $-1 $462 -11.862669766169958 $452 11.862669766169958 $458 $647 forward 7 unknown #
point $-1 50.08453627124851 -28.990244719840316 -11.862669766169958 #
coedge $-1 $455 $465 $457 $555 forward $545 $-1 #
straight-curve $-1 0 28.990244719840316 -11.862669766169958 1 0 0 I I #
edge $-1 $467 -11.862669766169958 $460 11.862669766169958 $457 $648 forward 7 unknown #
point $-1 50.08453627124851 28.990244719840316 -11.862669766169958 #
point $-1 50.08453627124851 -28.990244719840316 11.862669766169958 #
straight-curve $-1 0 28.990244719840316 11.862669766169958 -1 0 0 I I #
point $-1 50.08453627124851 28.990244719840316 11.862669766169958 #
face $-1 $580 $570 $17 $-1 $649 reversed single #
loop $-1 $-1 $567 $469 #
coedge $-1 $474 $471 $650 $651 reversed $383 $-1 #
coedge $-1 $650 $477 $472 $564 forward $570 $-1 #
edge $-1 $482 -2.8894780176620465 $565 2.8894780176620465 $472 $652 forward 7 unknown #
vertex $-1 $651 $653 #
straight-curve $-1 -62.275278529318953 -11.075421332397426 0 0 0 -1 I I #
coedge $-1 $654 $484 $476 $568 forward $561 $-1 #
edge $-1 $573 -11.862669766169958 $571 11.862669766169958 $567 $655 forward 7 unknown #
coedge $-1 $477 $584 $654 $656 forward $570 $-1 #
loop $-1 $-1 $493 $560 #
vertex $-1 $478 $657 #
straight-curve $-1 -56.179907400283732 -16.854377367721519 -11.862669766169958 -1 0 0 I I #
vertex $-1 $485 $658 #
straight-curve $-1 -56.179907400283732 -16.854377367721519 11.862669766169958 1 0 0 I I #
point $-1 -62.275278529318953 -16.854377367721519 11.862669766169958 #
point $-1 -62.275278529318953 -16.854377367721519 -11.862669766169958 #
coedge $-1 $484 $654 $486 $579 reversed $561 $-1 #
coedge $-1 $487 $486 $584 $659 reversed $488 $-1 #
edge $-1 $489 -11.862669766169958 $660 11.862669766169958 $577 $661 forward 7 unknown #
face $-1 $399 $488 $17 $-1 $662 reversed single #
point $-1 -50.08453627124851 -28.990244719840316 11.862669766169958 #
vertex $-1 $491 $663 #
straight-curve $-1 50.08453627124851 -28.990244719840316 0 0 0 -1 I I #
coedge $-1 $569 $493 $578 $659 forward $570 $-1 #
straight-curve $-1 50.08453627124851 0 -11.862669766169958 0 -1 0 I I #
point $-1 50.08453627124851 28.990244719840316 -11.862669766169958 #
coedge $-1 $498 $650 $500 $589 forward $570 $-1 #
straight-curve $-1 0 28.990244719840316 -11.862669766169958 1 0 0 I I #
edge $-1 $593 -11.075421332397426 $501 28.990244719840316 $500 $664 forward 7 unknown #
point $-1 -50.08453627124851 28.990244719840316 -11.862669766169958 #
straight-curve $-1 -62.275278529318953 -13.964899350059472 11.862669766169958 0 -1 0 I I #
point $-1 -62.275278529318953 -11.075421332397426 11.862669766169958 #
vertex $-1 $589 $665 #
straight-curve $-1 -50.08453627124851 -11.075421332397426 0 0 0 1 I I #
face $-1 $666 $623 $18 $-1 $667 reversed single #
loop $-1 $-1 $668 $508 #
plane-surface $-1 -56.179907400283732 -11.075421332397426 0 0 -1 0 0 0 -1 forward_v I I I I #
coedge $-1 $669 $670 $671 $672 forward $509 $-1 #
coedge $-1 $673 $511 $674 $675 reversed $413 $-1 #
coedge $-1 $511 $673 $676 $677 reversed $413 $-1 #
coedge $-1 $670 $669 $511 $602 reversed $509 $-1 #
edge $-1 $678 -11.862669766169958 $679 11.862669766169958 $601 $680 forward 7 unknown #
coedge $-1 $512 $676 $681 $682 forward $240 $-1 #
coedge $-1 $683 $684 $512 $605 reversed $685 $-1 #
edge $-1 $686 -50.08453627124851 $608 50.08453627124851 $604 $687 forward 7 unknown #
coedge $-1 $688 $513 $684 $689 forward $607 $-1 #
loop $-1 $-1 $517 $690 #
vertex $-1 $514 $691 #
straight-curve $-1 50.08453627124851 0 11.862669766169958 0 1 0 I I #
point $-1 50.08453627124851 19.69892173531845 11.862669766169962 #
coedge $-1 $517 $688 $521 $616 reversed $607 $-1 #
vertex $-1 $616 $692 #
straight-curve $-1 50.08453627124851 -1.7385971903939428 28.611495509042456 0 -0.78801074757464917 0.61566148304635926 I I #
straight-curve $-1 22.281248924535873 28.990244719840319 4.6034925205302137 1 0 0 I I #
coedge $-1 $522 $521 $693 $694 reversed $328 $-1 #
edge $-1 $612 -4.6034925205302102 $695 11.862669766169958 $611 $696 forward 7 unknown #
coedge $-1 $697 $524 $522 $618 forward $623 $-1 #
edge $-1 $526 -11.862669766169958 $698 11.862669766169958 $522 $699 forward 7 unknown #
coedge $-1 $676 $523 $670 $700 forward $240 $-1 #
coedge $-1 $668 $671 $523 $621 reversed $596 $-1 #
edge $-1 $624 -6.0953711290352217 $701 6.0953711290352217 $620 $702 forward 7 unknown #
coedge $-1 $524 $697 $668 $703 forward $623 $-1 #
loop $-1 $-1 $622 $595 #
vertex $-1 $621 $704 #
straight-curve $-1 -50.08453627124851 0 11.862669766169958 0 -1 0 I I #
point $-1 -50.08453627124851 28.990244719840316 11.862669766169958 #
face $-1 $705 $706 $19 $-1 $707 reversed single #
loop $-1 $-1 $708 $528 #
plane-surface $-1 -56.179907400283732 -16.854377367721519 0 0 1 0 0 0 1 forward_v I I I I #
coedge $-1 $531 $709 $710 $711 forward $430 $-1 #
coedge $-1 $532 $542 $634 $712 reversed $351 $-1 #
vertex $-1 $712 $713 #
straight-curve $-1 39.040459426894984 -16.699004108266465 40.29984663671776 0 0.78801074757464917 -0.61566148304635926 I I #
coedge $-1 $714 $534 $631 $712 forward $529 $-1 #
coedge $-1 $534 $715 $536 $638 reversed $529 $-1 #
straight-curve $-1 39.040459426894984 28.990244719840316 59.61707618739505 0 0 -1 I I #
coedge $-1 $716 $536 $717 $718 forward $430 $-1 #
edge $-1 $538 -39.040459426894984 $719 50.08453627124851 $635 $720 forward 7 unknown #
point $-1 39.040459426894984 19.69892173531845 11.862669766169962 #
point $-1 39.040459426894984 28.990244719840316 11.862669766169958 #
point $-1 42.195909953853132 20.229861272243845 2.9664773141779124 #
coedge $-1 $710 $721 $542 $643 forward $722 $-1 #
edge $-1 $723 -38.995460410675783 $644 -27.204602210938233 $642 $724 forward 7 unknown #
vertex $-1 $643 $725 #
straight-curve $-1 22.281248924535873 19.69892173531845 11.862669766169954 -1 0 0 I I #
plane-surface $-1 50.08453627124851 0 0 -1 0 0 0 0 1 forward_v I I I I #
straight-curve $-1 50.08453627124851 -28.990244719840316 0 0 0 -1 I I #
straight-curve $-1 50.08453627124851 28.990244719840316 0 0 0 -1 I I #
plane-surface $-1 0 0 -11.862669766169958 0 0 1 1 0 0 forward_v I I I I #
coedge $-1 $587 $563 $562 $651 forward $570 $-1 #
edge $-1 $565 -6.0953711290352217 $593 6.0953711290352217 $562 $726 forward 7 unknown #
straight-curve $-1 -62.275278529318953 -13.964899350059472 -11.862669766169958 0 1 0 I I #
point $-1 -62.275278529318953 -11.075421332397426 -11.862669766169958 #
coedge $-1 $577 $567 $569 $656 reversed $561 $-1 #
straight-curve $-1 -50.08453627124851 -16.854377367721519 0 0 0 -1 I I #
edge $-1 $660 -28.990244719840316 $571 -16.854377367721519 $654 $664 forward 7 unknown #
point $-1 -50.08453627124851 -16.854377367721519 -11.862669766169958 #
point $-1 -50.08453627124851 -16.854377367721519 11.862669766169958 #
edge $-1 $582 -50.08453627124851 $660 50.08453627124851 $578 $727 forward 7 unknown #
vertex $-1 $656 $728 #
straight-curve $-1 -50.08453627124851 -28.990244719840316 0 0 0 -1 I I #
plane-surface $-1 0 -28.990244719840316 0 0 1 0 0 0 1 forward_v I I I I #
point $-1 50.08453627124851 -28.990244719840316 -11.862669766169958 #
straight-curve $-1 -50.08453627124851 0 -11.862669766169958 0 1 0 I I #
point $-1 -50.08453627124851 -11.075421332397426 -11.862669766169958 #
face $-1 $729 $730 $18 $-1 $667 reversed single #
plane-surface $-1 -50.08453627124851 0 0 1 0 0 0 0 -1 forward_v I I I I #
coedge $-1 $731 $620 $622 $703 reversed $596 $-1 #
coedge $-1 $601 $598 $732 $733 reversed $509 $-1 #
coedge $-1 $598 $601 $619 $700 reversed $509 $-1 #
coedge $-1 $620 $731 $598 $672 reversed $596 $-1 #
edge $-1 $701 -11.862669766169958 $734 11.862669766169958 $671 $735 forward 7 unknown #
coedge $-1 $600 $599 $736 $737 reversed $413 $-1 #
coedge $-1 $732 $738 $599 $675 forward $739 $-1 #
edge $-1 $740 -6.0953711290352217 $679 6.0953711290352217 $599 $741 forward 7 unknown #
coedge $-1 $603 $619 $600 $677 forward $240 $-1 #
edge $-1 $678 -6.0953711290352217 $742 6.0953711290352217 $600 $743 forward 7 unknown #
vertex $-1 $700 $744 #
vertex $-1 $733 $745 #
straight-curve $-1 -62.275278529318953 -16.854377367721519 0 0 0 -1 I I #
coedge $-1 $736 $746 $603 $682 reversed $730 $-1 #
edge $-1 $742 16.854377367721519 $686 28.990244719840316 $681 $625 forward 7 unknown #
coedge $-1 $747 $604 $746 $748 forward $685 $-1 #
coedge $-1 $604 $747 $606 $689 reversed $685 $-1 #
loop $-1 $-1 $683 $749 #
vertex $-1 $682 $750 #
straight-curve $-1 0 -28.990244719840316 11.862669766169958 1 0 0 I I #
coedge $-1 $611 $606 $751 $752 reversed $607 $-1 #
edge $-1 $608 -11.862669766169958 $753 11.862669766169958 $606 $754 forward 7 unknown #
face $-1 $-1 $607 $18 $-1 $755 reversed single #
point $-1 50.08453627124851 -28.990244719840316 11.862669766169958 #
point $-1 50.08453627124851 28.990244719840319 4.6034925205302102 #
coedge $-1 $751 $756 $615 $694 forward $739 $-1 #
edge $-1 $698 -50.08453627124851 $695 50.08453627124851 $615 $757 forward 7 unknown #
vertex $-1 $752 $758 #
straight-curve $-1 50.08453627124851 28.990244719840316 0 0 0 -1 I I #
coedge $-1 $622 $617 $756 $759 reversed $623 $-1 #
vertex $-1 $694 $760 #
straight-curve $-1 -50.08453627124851 28.990244719840316 0 0 0 -1 I I #
edge $-1 $701 -2.8894780176620465 $678 2.8894780176620465 $670 $761 forward 7 unknown #
vertex $-1 $621 $762 #
straight-curve $-1 -56.179907400283732 -11.075421332397426 11.862669766169958 -1 0 0 I I #
edge $-1 $763 -11.862669766169958 $624 11.862669766169958 $622 $764 forward 7 unknown #
point $-1 -50.08453627124851 -11.075421332397426 11.862669766169958 #
face $-1 $765 $766 $19 $-1 $767 reversed single #
loop $-1 $-1 $768 $627 #
plane-surface $-1 -62.275278529318953 -13.964899350059472 0 1 0 0 0 0 -1 forward_v I I I I #
coedge $-1 $769 $770 $771 $772 forward $628 $-1 #
coedge $-1 $630 $773 $774 $775 forward $430 $-1 #
coedge $-1 $776 $642 $630 $711 reversed $722 $-1 #
edge $-1 $777 -28.990244719840316 $644 19.69892173531845 $710 $778 forward 7 unknown #
edge $-1 $632 16.75921050235911 $723 27.803287346712636 $634 $779 forward 7 unknown #
point $-1 39.040459426894984 28.990244719840319 4.6034925205302102 #
coedge $-1 $780 $634 $721 $781 forward $529 $-1 #
coedge $-1 $635 $780 $782 $783 reversed $529 $-1 #
coedge $-1 $784 $637 $785 $786 forward $430 $-1 #
coedge $-1 $782 $787 $637 $718 reversed $788 $-1 #
edge $-1 $719 -28.990244719840316 $789 11.075421332397426 $717 $790 forward 7 unknown #
vertex $-1 $638 $791 #
straight-curve $-1 0 28.990244719840316 11.862669766169958 -1 0 0 I I #
coedge $-1 $642 $792 $714 $781 reversed $722 $-1 #
loop $-1 $-1 $642 $793 #
vertex $-1 $781 $794 #
straight-curve $-1 50.08453627124851 -1.7385971903939428 28.611495509042456 0 -0.78801074757464917 0.61566148304635926 I I #
point $-1 50.08453627124851 19.69892173531845 11.862669766169962 #
straight-curve $-1 -56.179907400283732 -11.075421332397426 -11.862669766169958 1 0 0 I I #
straight-curve $-1 0 -28.990244719840316 -11.862669766169958 -1 0 0 I I #
point $-1 -50.08453627124851 -28.990244719840316 -11.862669766169958 #
face $-1 $749 $739 $18 $-1 $795 reversed single #
loop $-1 $-1 $736 $666 #
coedge $-1 $671 $668 $796 $797 reversed $596 $-1 #
coedge $-1 $796 $674 $669 $733 forward $739 $-1 #
edge $-1 $679 -2.8894780176620465 $734 2.8894780176620465 $669 $798 forward 7 unknown #
vertex $-1 $797 $799 #
straight-curve $-1 -62.275278529318953 -11.075421332397426 0 0 0 -1 I I #
coedge $-1 $800 $681 $673 $737 forward $730 $-1 #
edge $-1 $742 -11.862669766169958 $740 11.862669766169958 $736 $801 forward 7 unknown #
coedge $-1 $674 $802 $800 $803 forward $739 $-1 #
loop $-1 $-1 $751 $729 #
vertex $-1 $675 $804 #
straight-curve $-1 -56.179907400283732 -16.854377367721519 -11.862669766169958 -1 0 0 I I #
vertex $-1 $682 $805 #
straight-curve $-1 -56.179907400283732 -16.854377367721519 11.862669766169958 1 0 0 I I #
point $-1 -62.275278529318953 -16.854377367721519 11.862669766169958 #
point $-1 -62.275278529318953 -16.854377367721519 -11.862669766169958 #
coedge $-1 $681 $800 $683 $748 reversed $730 $-1 #
coedge $-1 $684 $683 $802 $806 reversed $685 $-1 #
edge $-1 $686 -11.862669766169958 $807 11.862669766169958 $746 $808 forward 7 unknown #
face $-1 $690 $685 $18 $-1 $809 reversed single #
point $-1 -50.08453627124851 -28.990244719840316 11.862669766169958 #
coedge $-1 $802 $693 $688 $752 forward $739 $-1 #
edge $-1 $695 -28.990244719840316 $753 28.990244719840316 $688 $810 forward 7 unknown #
vertex $-1 $689 $811 #
straight-curve $-1 50.08453627124851 -28.990244719840316 0 0 0 -1 I I #
plane-surface $-1 50.08453627124851 0 0 -1 0 0 0 0 1 forward_v I I I I #
coedge $-1 $693 $796 $697 $759 forward $739 $-1 #
straight-curve $-1 0 28.990244719840316 -11.862669766169958 1 0 0 I I #
point $-1 50.08453627124851 28.990244719840316 -11.862669766169958 #
edge $-1 $763 -11.075421332397426 $698 28.990244719840316 $697 $812 forward 7 unknown #
point $-1 -50.08453627124851 28.990244719840316 -11.862669766169958 #
straight-curve $-1 -62.275278529318953 -13.964899350059472 11.862669766169958 0 -1 0 I I #
point $-1 -62.275278529318953 -11.075421332397426 11.862669766169958 #
vertex $-1 $759 $813 #
straight-curve $-1 -50.08453627124851 -11.075421332397426 0 0 0 1 I I #
face $-1 $814 $788 $19 $-1 $815 reversed single #
loop $-1 $-1 $816 $705 #
plane-surface $-1 -56.179907400283732 -11.075421332397426 0 0 -1 0 0 0 -1 forward_v I I I I #
coedge $-1 $817 $818 $819 $820 forward $706 $-1 #
coedge $-1 $821 $708 $822 $823 reversed $628 $-1 #
coedge $-1 $708 $821 $824 $825 reversed $628 $-1 #
coedge $-1 $818 $817 $708 $772 reversed $706 $-1 #
edge $-1 $826 -11.862669766169958 $827 11.862669766169958 $771 $828 forward 7 unknown #
coedge $-1 $709 $824 $829 $830 forward $430 $-1 #
coedge $-1 $831 $832 $709 $775 reversed $833 $-1 #
edge $-1 $834 -50.08453627124851 $777 50.08453627124851 $774 $835 forward 7 unknown #
coedge $-1 $792 $710 $832 $836 forward $722 $-1 #
vertex $-1 $711 $837 #
straight-curve $-1 50.08453627124851 0 11.862669766169958 0 1 0 I I #
straight-curve $-1 22.281248924535873 28.990244719840319 4.6034925205302137 1 0 0 I I #
coedge $-1 $715 $714 $838 $839 reversed $529 $-1 #
edge $-1 $723 -4.6034925205302102 $840 11.862669766169958 $721 $841 forward 7 unknown #
coedge $-1 $842 $717 $715 $783 forward $788 $-1 #
edge $-1 $719 -11.862669766169958 $843 11.862669766169958 $715 $844 forward 7 unknown #
coedge $-1 $824 $716 $818 $845 forward $430 $-1 #
coedge $-1 $816 $819 $716 $786 reversed $766 $-1 #
edge $-1 $789 -6.0953711290352217 $846 6.0953711290352217 $785 $847 forward 7 unknown #
coedge $-1 $717 $842 $816 $848 forward $788 $-1 #
loop $-1 $-1 $787 $765 #
vertex $-1 $786 $849 #
straight-curve $-1 -50.08453627124851 0 11.862669766169958 0 -1 0 I I #
point $-1 -50.08453627124851 28.990244719840316 11.862669766169958 #
coedge $-1 $721 $776 $850 $851 reversed $722 $-1 #
face $-1 $-1 $722 $19 $-1 $852 reversed single #
point $-1 50.08453627124851 28.990244719840319 4.6034925205302102 #
plane-surface $-1 0 0 -11.862669766169958 0 0 1 1 0 0 forward_v I I I I #
coedge $-1 $756 $732 $731 $797 forward $739 $-1 #
edge $-1 $734 -6.0953711290352217 $763 6.0953711290352217 $731 $853 forward 7 unknown #
straight-curve $-1 -62.275278529318953 -13.964899350059472 -11.862669766169958 0 1 0 I I #
point $-1 -62.275278529318953 -11.075421332397426 -11.862669766169958 #
coedge $-1 $746 $736 $738 $803 reversed $730 $-1 #
straight-curve $-1 -50.08453627124851 -16.854377367721519 0 0 0 -1 I I #
coedge $-1 $738 $751 $747 $806 forward $739 $-1 #
edge $-1 $807 -28.990244719840316 $740 -16.854377367721519 $800 $812 forward 7 unknown #
point $-1 -50.08453627124851 -16.854377367721519 -11.862669766169958 #
point $-1 -50.08453627124851 -16.854377367721519 11.862669766169958 #
edge $-1 $753 -50.08453627124851 $807 50.08453627124851 $747 $854 forward 7 unknown #
vertex $-1 $803 $855 #
straight-curve $-1 -50.08453627124851 -28.990244719840316 0 0 0 -1 I I #
plane-surface $-1 0 -28.990244719840316 0 0 1 0 0 0 1 forward_v I I I I #
straight-curve $-1 50.08453627124851 0 -11.862669766169958 0 -1 0 I I #
point $-1 50.08453627124851 -28.990244719840316 -11.862669766169958 #
straight-curve $-1 -50.08453627124851 0 -11.862669766169958 0 1 0 I I #
point $-1 -50.08453627124851 -11.075421332397426 -11.862669766169958 #
face $-1 $856 $857 $19 $-1 $815 reversed single #
plane-surface $-1 -50.08453627124851 0 0 1 0 0 0 0 -1 forward_v I I I I #
coedge $-1 $858 $785 $787 $848 reversed $766 $-1 #
coedge $-1 $771 $768 $859 $860 reversed $706 $-1 #
coedge $-1 $768 $771 $784 $845 reversed $706 $-1 #
coedge $-1 $785 $858 $768 $820 reversed $766 $-1 #
edge $-1 $846 -11.862669766169958 $861 11.862669766169958 $819 $862 forward 7 unknown #
coedge $-1 $770 $769 $863 $864 reversed $628 $-1 #
coedge $-1 $859 $865 $769 $823 forward $866 $-1 #
edge $-1 $867 -6.0953711290352217 $827 6.0953711290352217 $769 $868 forward 7 unknown #
coedge $-1 $773 $784 $770 $825 forward $430 $-1 #
edge $-1 $826 -6.0953711290352217 $869 6.0953711290352217 $770 $870 forward 7 unknown #
vertex $-1 $845 $871 #
vertex $-1 $860 $872 #
straight-curve $-1 -62.275278529318953 -16.854377367721519 0 0 0 -1 I I #
coedge $-1 $863 $873 $773 $830 reversed $857 $-1 #
edge $-1 $869 16.854377367721519 $834 28.990244719840316 $829 $790 forward 7 unknown #
coedge $-1 $874 $774 $873 $875 forward $833 $-1 #
coedge $-1 $774 $874 $776 $836 reversed $833 $-1 #
loop $-1 $-1 $831 $876 #
vertex $-1 $830 $877 #
straight-curve $-1 0 -28.990244719840316 11.862669766169958 1 0 0 I I #
edge $-1 $777 -11.862669766169958 $878 11.862669766169958 $776 $879 forward 7 unknown #
point $-1 50.08453627124851 -28.990244719840316 11.862669766169958 #
coedge $-1 $850 $880 $780 $839 forward $866 $-1 #
edge $-1 $843 -50.08453627124851 $840 50.08453627124851 $780 $881 forward 7 unknown #
vertex $-1 $851 $882 #
straight-curve $-1 50.08453627124851 28.990244719840316 0 0 0 -1 I I #
coedge $-1 $787 $782 $880 $883 reversed $788 $-1 #
vertex $-1 $839 $884 #
straight-curve $-1 -50.08453627124851 28.990244719840316 0 0 0 -1 I I #
edge $-1 $846 -2.8894780176620465 $826 2.8894780176620465 $818 $885 forward 7 unknown #
vertex $-1 $786 $886 #
straight-curve $-1 -56.179907400283732 -11.075421332397426 11.862669766169958 -1 0 0 I I #
edge $-1 $887 -11.862669766169958 $789 11.862669766169958 $787 $888 forward 7 unknown #
point $-1 -50.08453627124851 -11.075421332397426 11.862669766169958 #
coedge $-1 $889 $838 $792 $851 forward $866 $-1 #
edge $-1 $840 -28.990244719840316 $878 28.990244719840316 $792 $890 forward 7 unknown #
plane-surface $-1 50.08453627124851 0 0 -1 0 0 0 0 1 forward_v I I I I #
straight-curve $-1 -56.179907400283732 -11.075421332397426 -11.862669766169958 1 0 0 I I #
straight-curve $-1 0 -28.990244719840316 -11.862669766169958 -1 0 0 I I #
point $-1 -50.08453627124851 -28.990244719840316 -11.862669766169958 #
face $-1 $876 $866 $19 $-1 $891 reversed single #
loop $-1 $-1 $863 $814 #
coedge $-1 $819 $816 $892 $893 reversed $766 $-1 #
coedge $-1 $892 $822 $817 $860 forward $866 $-1 #
edge $-1 $827 -2.8894780176620465 $861 2.8894780176620465 $817 $894 forward 7 unknown #
vertex $-1 $893 $895 #
straight-curve $-1 -62.275278529318953 -11.075421332397426 0 0 0 -1 I I #
coedge $-1 $896 $829 $821 $864 forward $857 $-1 #
edge $-1 $869 -11.862669766169958 $867 11.862669766169958 $863 $897 forward 7 unknown #
coedge $-1 $822 $889 $896 $898 forward $866 $-1 #
loop $-1 $-1 $850 $856 #
vertex $-1 $823 $899 #
straight-curve $-1 -56.179907400283732 -16.854377367721519 -11.862669766169958 -1 0 0 I I #
vertex $-1 $830 $900 #
straight-curve $-1 -56.179907400283732 -16.854377367721519 11.862669766169958 1 0 0 I I #
point $-1 -62.275278529318953 -16.854377367721519 11.862669766169958 #
point $-1 -62.275278529318953 -16.854377367721519 -11.862669766169958 #
coedge $-1 $829 $896 $831 $875 reversed $857 $-1 #
coedge $-1 $832 $831 $889 $901 reversed $833 $-1 #
edge $-1 $834 -11.862669766169958 $902 11.862669766169958 $873 $903 forward 7 unknown #
face $-1 $793 $833 $19 $-1 $904 reversed single #
point $-1 -50.08453627124851 -28.990244719840316 11.862669766169958 #
vertex $-1 $836 $905 #
straight-curve $-1 50.08453627124851 -28.990244719840316 0 0 0 -1 I I #
coedge $-1 $838 $892 $842 $883 forward $866 $-1 #
straight-curve $-1 0 28.990244719840316 -11.862669766169958 1 0 0 I I #
point $-1 50.08453627124851 28.990244719840316 -11.862669766169958 #
edge $-1 $887 -11.075421332397426 $843 28.990244719840316 $842 $906 forward 7 unknown #
point $-1 -50.08453627124851 28.990244719840316 -11.862669766169958 #
straight-curve $-1 -62.275278529318953 -13.964899350059472 11.862669766169958 0 -1 0 I I #
point $-1 -62.275278529318953 -11.075421332397426 11.862669766169958 #
vertex $-1 $883 $907 #
straight-curve $-1 -50.08453627124851 -11.075421332397426 0 0 0 1 I I #
coedge $-1 $865 $850 $874 $901 forward $866 $-1 #
straight-curve $-1 50.08453627124851 0 -11.862669766169958 0 -1 0 I I #
plane-surface $-1 0 0 -11.862669766169958 0 0 1 1 0 0 forward_v I I I I #
coedge $-1 $880 $859 $858 $893 forward $866 $-1 #
edge $-1 $861 -6.0953711290352217 $887 6.0953711290352217 $858 $908 forward 7 unknown #
straight-curve $-1 -62.275278529318953 -13.964899350059472 -11.862669766169958 0 1 0 I I #
point $-1 -62.275278529318953 -11.075421332397426 -11.862669766169958 #
coedge $-1 $873 $863 $865 $898 reversed $857 $-1 #
straight-curve $-1 -50.08453627124851 -16.854377367721519 0 0 0 -1 I I #
edge $-1 $902 -28.990244719840316 $867 -16.854377367721519 $896 $906 forward 7 unknown #
point $-1 -50.08453627124851 -16.854377367721519 -11.862669766169958 #
point $-1 -50.08453627124851 -16.854377367721519 11.862669766169958 #
edge $-1 $878 -50.08453627124851 $902 50.08453627124851 $874 $909 forward 7 unknown #
vertex $-1 $898 $910 #
straight-curve $-1 -50.08453627124851 -28.990244719840316 0 0 0 -1 I I #
plane-surface $-1 0 -28.990244719840316 0 0 1 0 0 0 1 forward_v I I I I #
point $-1 50.08453627124851 -28.990244719840316 -11.862669766169958 #
straight-curve $-1 -50.08453627124851 0 -11.862669766169958 0 1 0 I I #
point $-1 -50.08453627124851 -11.075421332397426 -11.862669766169958 #
straight-curve $-1 -56.179907400283732 -11.075421332397426 -11.862669766169958 1 0 0 I I #
straight-curve $-1 0 -28.990244719840316 -11.862669766169958 -1 0 0 I I #
point $-1 -50.08453627124851 -28.990244719840316 -11.862669766169958 #
End-of-ACIS-data 