500 0 10 0           
7 Unknown 11 ACIS 5.0 NT 24 Fri Mar 26 19:19:41 1999 
-1 9.9999999999999995e-007 1e-010 
body $-1 $10 $-1 $11 #
body $-1 $12 $-1 $13 #
body $-1 $14 $-1 $15 #
body $-1 $16 $-1 $17 #
body $-1 $18 $-1 $19 #
body $-1 $20 $-1 $21 #
body $-1 $22 $-1 $23 #
body $-1 $24 $-1 $25 #
body $-1 $26 $-1 $27 #
body $-1 $28 $-1 $29 #
lump $-1 $-1 $30 $0 #
transform $-1 1 0 0 0 1 0 0 0 1 41.495406964323863 28.816937273353528 8.1529409769775647 1 rotate no_reflect no_shear #
lump $-1 $-1 $31 $1 #
transform $-1 1 0 0 0 1 0 0 0 1 41.495406964323863 28.816937273353528 8.1529409769775647 1 rotate no_reflect no_shear #
lump $-1 $-1 $32 $2 #
transform $-1 1 0 0 0 1 0 0 0 1 41.495406964323863 28.816937273353528 8.1529409769775647 1 rotate no_reflect no_shear #
lump $-1 $-1 $33 $3 #
transform $-1 1 0 0 0 1 0 0 0 1 41.495406964323863 28.816937273353528 8.1529409769775647 1 rotate no_reflect no_shear #
lump $-1 $-1 $34 $4 #
transform $-1 1 0 0 0 1 0 0 0 1 41.495406964323863 28.816937273353528 8.1529409769775647 1 rotate no_reflect no_shear #
lump $-1 $-1 $35 $5 #
transform $-1 1 0 0 0 1 0 0 0 1 41.495406964323863 28.816937273353528 8.1529409769775647 1 rotate no_reflect no_shear #
lump $-1 $-1 $36 $6 #
transform $-1 1 0 0 0 1 0 0 0 1 41.495406964323863 28.816937273353528 8.1529409769775647 1 rotate no_reflect no_shear #
lump $-1 $-1 $37 $7 #
transform $-1 1 0 0 0 1 0 0 0 1 41.495406964323863 28.816937273353528 8.1529409769775647 1 rotate no_reflect no_shear #
lump $-1 $-1 $38 $8 #
transform $-1 1 0 0 0 1 0 0 0 1 41.495406964323863 28.816937273353528 8.1529409769775647 1 rotate no_reflect no_shear #
lump $-1 $-1 $39 $9 #
transform $-1 1 0 0 0 1 0 0 0 1 41.495406964323863 28.816937273353528 8.1529409769775647 1 rotate no_reflect no_shear #
shell $-1 $-1 $-1 $40 $-1 $10 #
shell $-1 $-1 $-1 $41 $-1 $12 #
shell $-1 $-1 $-1 $42 $-1 $14 #
shell $-1 $-1 $-1 $43 $-1 $16 #
shell $-1 $-1 $-1 $44 $-1 $18 #
shell $-1 $-1 $-1 $45 $-1 $20 #
shell $-1 $-1 $-1 $46 $-1 $22 #
shell $-1 $-1 $-1 $47 $-1 $24 #
shell $-1 $-1 $-1 $48 $-1 $26 #
shell $-1 $-1 $-1 $49 $-1 $28 #
face $-1 $50 $51 $30 $-1 $52 forward single #
face $-1 $53 $54 $31 $-1 $55 reversed single #
face $-1 $56 $57 $32 $-1 $58 reversed single #
face $-1 $59 $60 $33 $-1 $61 reversed single #
face $-1 $62 $63 $34 $-1 $64 forward single #
face $-1 $65 $66 $35 $-1 $67 forward single #
face $-1 $68 $69 $36 $-1 $70 forward single #
face $-1 $71 $72 $37 $-1 $73 reversed single #
face $-1 $74 $75 $38 $-1 $76 forward single #
face $-1 $77 $78 $39 $-1 $79 forward single #
face $-1 $80 $81 $30 $-1 $82 reversed single #
loop $-1 $-1 $83 $40 #
plane-surface $-1 0 0 8.1529409769775647 0 0 1 1 0 0 forward_v I I I I #
face $-1 $84 $85 $31 $-1 $86 reversed single #
loop $-1 $-1 $87 $41 #
plane-surface $-1 -39.825829363395577 -18.853156123034296 0 0 -1 0 0 0 -1 forward_v I I I I #
face $-1 $88 $89 $32 $-1 $90 reversed single #
loop $-1 $-1 $91 $42 #
plane-surface $-1 0 23.869943087000369 4.4521074095661781 0 0 1 1 0 0 forward_v I I I I #
face $-1 $92 $93 $33 $-1 $94 reversed single #
loop $-1 $-1 $95 $43 #
plane-surface $-1 -2.4830230383662837 15.349010782729668 73.246896370835557 0.84804810408105047 0 0.52991925155115449 0.52991925155115449 0 -0.84804810408105047 forward_v I I I I #
face $-1 $96 $97 $34 $-1 $98 forward single #
loop $-1 $99 $100 $44 #
cone-surface $-1 39.119981629901268 13.204647911979148 5.0575254775488334 -0.84804810408105047 0 -0.52991925155115449 0.26495962577557725 0 -0.42402405204052523 1 I I 0 1 0.5 forward I I I I #
face $-1 $101 $102 $35 $-1 $103 forward single #
loop $-1 $104 $105 $45 #
cone-surface $-1 39.119981629901268 15.349010782729668 5.0575254775488334 -0.84804810408105047 0 -0.52991925155115449 0.26495962577557725 0 -0.42402405204052523 1 I I 0 1 0.5 forward I I I I #
face $-1 $106 $107 $36 $-1 $108 forward single #
loop $-1 $109 $110 $46 #
cone-surface $-1 39.119981629901268 17.493373653480187 5.0575254775488334 -0.84804810408105047 0 -0.52991925155115449 0.26495962577557725 0 -0.42402405204052523 1 I I 0 1 0.5 forward I I I I #
face $-1 $111 $112 $37 $-1 $113 reversed single #
loop $-1 $-1 $114 $47 #
plane-surface $-1 -110.29791055816791 -0.78707622296003699 49.0256244677132 0 1 0 -0.82903758062907751 0 0.55919289150049634 forward_v I I I I #
face $-1 $115 $116 $38 $-1 $117 forward single #
loop $-1 $118 $119 $48 #
cone-surface $-1 -37.42622105592104 2.4169771218652194 3.899795343903695 0.82903758062907751 0 -0.55919289150049634 0.83878933725074445 0 1.2435563709436162 1 I I 0 1 1.5 forward I I I I #
face $-1 $120 $121 $39 $-1 $122 forward single #
loop $-1 $123 $124 $49 #
cone-surface $-1 -37.42622105592104 7.2230571391031084 3.899795343903695 0.82903758062907751 0 -0.55919289150049634 0.83878933725074445 0 1.2435563709436162 1 I I 0 1 1.5 forward I I I I #
face $-1 $125 $126 $30 $-1 $127 reversed single #
loop $-1 $-1 $128 $50 #
plane-surface $-1 0 0 -8.1529409769775647 0 0 1 1 0 0 forward_v I I I I #
coedge $-1 $129 $130 $131 $132 forward $51 $-1 #
face $-1 $133 $134 $31 $-1 $135 forward single #
loop $-1 $-1 $136 $53 #
plane-surface $-1 -38.156251762467292 -23.835046698193914 0 -1 0 0 0 0 1 forward_v I I I I #
coedge $-1 $137 $138 $139 $140 forward $54 $-1 #
face $-1 $141 $142 $32 $-1 $143 reversed single #
loop $-1 $-1 $144 $56 #
plane-surface $-1 0 18.922948900647206 6.3025241932718714 0 1 0 0 0 1 forward_v I I I I #
coedge $-1 $145 $146 $147 $148 reversed $57 $-1 #
face $-1 $149 $150 $33 $-1 $151 reversed single #
loop $-1 $-1 $152 $59 #
plane-surface $-1 67.897179369966651 11.775072664812132 117.22532637352569 0 1 0 0.84804810408105047 0 0.52991925155115449 forward_v I I I I #
coedge $-1 $153 $154 $155 $156 reversed $60 $-1 #
face $-1 $-1 $157 $34 $-1 $158 forward single #
loop $-1 $159 $160 $62 #
cone-surface $-1 38.184151087482348 13.204647911979148 4.4727536724697821 -0.84804810408105047 0 -0.52991925155115449 0.13247981288778862 0 -0.21201202602026262 1 I I -0.70710678118654746 0.70710678118654746 0.25 forward I I I I #
loop $-1 $-1 $161 $44 #
coedge $-1 $100 $100 $162 $163 reversed $63 $-1 #
face $-1 $-1 $164 $35 $-1 $165 forward single #
loop $-1 $166 $167 $65 #
cone-surface $-1 38.184151087482348 15.349010782729668 4.4727536724697821 -0.84804810408105047 0 -0.52991925155115449 0.13247981288778862 0 -0.21201202602026262 1 I I -0.70710678118654746 0.70710678118654746 0.25 forward I I I I #
loop $-1 $-1 $168 $45 #
coedge $-1 $105 $105 $169 $170 reversed $66 $-1 #
face $-1 $-1 $171 $36 $-1 $172 forward single #
loop $-1 $173 $174 $68 #
cone-surface $-1 38.184151087482348 17.493373653480187 4.4727536724697821 -0.84804810408105047 0 -0.52991925155115449 0.13247981288778862 0 -0.21201202602026262 1 I I -0.70710678118654746 0.70710678118654746 0.25 forward I I I I #
loop $-1 $-1 $175 $46 #
coedge $-1 $110 $110 $176 $177 reversed $69 $-1 #
face $-1 $178 $179 $37 $-1 $180 reversed single #
loop $-1 $-1 $181 $71 #
plane-surface $-1 -41.495406964323863 4.8200171304841639 2.6177512589730156 -0.82903758062907751 0 0.55919289150049634 0.55919289150049634 0 0.82903758062907751 forward_v I I I I #
coedge $-1 $182 $183 $184 $185 reversed $72 $-1 #
face $-1 $-1 $186 $38 $-1 $187 forward single #
loop $-1 $188 $189 $74 #
cone-surface $-1 -34.602023207471682 2.4169771218652194 1.9948499012067309 0.82903758062907751 0 -0.55919289150049634 0.41939466862537222 0 0.62177818547180808 1 I I -0.70710678118654757 0.70710678118654757 0.75 forward I I I I #
loop $-1 $-1 $190 $48 #
coedge $-1 $119 $119 $191 $192 reversed $75 $-1 #
face $-1 $-1 $193 $39 $-1 $194 forward single #
loop $-1 $195 $196 $77 #
cone-surface $-1 -34.602023207471682 7.2230571391031084 1.9948499012067309 0.82903758062907751 0 -0.55919289150049634 0.41939466862537222 0 0.62177818547180808 1 I I -0.70710678118654757 0.70710678118654757 0.75 forward I I I I #
loop $-1 $-1 $197 $49 #
coedge $-1 $124 $124 $198 $199 reversed $78 $-1 #
face $-1 $200 $201 $30 $-1 $202 reversed single #
loop $-1 $-1 $203 $80 #
plane-surface $-1 0 -28.816937273353528 0 0 1 0 0 0 1 forward_v I I I I #
coedge $-1 $204 $205 $206 $207 forward $81 $-1 #
coedge $-1 $208 $83 $209 $210 forward $51 $-1 #
coedge $-1 $83 $208 $211 $212 forward $51 $-1 #
coedge $-1 $213 $214 $83 $132 reversed $215 $-1 #
edge $-1 $216 -28.816937273353528 $217 28.816937273353528 $131 $218 forward 7 unknown #
face $-1 $219 $220 $31 $-1 $221 reversed single #
loop $-1 $-1 $222 $84 #
plane-surface $-1 0 0 8.1529409769775647 0 0 1 1 0 0 forward_v I I I I #
coedge $-1 $223 $224 $225 $226 reversed $85 $-1 #
coedge $-1 $227 $87 $228 $229 reversed $54 $-1 #
coedge $-1 $87 $227 $230 $231 reversed $54 $-1 #
coedge $-1 $224 $223 $87 $140 reversed $85 $-1 #
edge $-1 $232 -8.1529409769775647 $233 8.1529409769775647 $139 $234 forward 7 unknown #
face $-1 $235 $236 $32 $-1 $237 reversed single #
loop $-1 $-1 $238 $88 #
plane-surface $-1 0 28.816937273353528 0 0 -1 0 0 0 -1 forward_v I I I I #
coedge $-1 $239 $240 $241 $242 reversed $89 $-1 #
coedge $-1 $243 $91 $239 $244 forward $57 $-1 #
coedge $-1 $91 $243 $238 $245 reversed $57 $-1 #
coedge $-1 $246 $247 $91 $148 forward $248 $-1 #
edge $-1 $249 6.9879773571470221 $250 16.881965729853349 $147 $251 forward 7 unknown #
face $-1 $252 $253 $33 $-1 $254 forward single #
loop $-1 $-1 $255 $92 #
plane-surface $-1 41.495406964323863 0 0 -1 0 0 0 0 1 forward_v I I I I #
coedge $-1 $256 $257 $258 $259 reversed $93 $-1 #
coedge $-1 $260 $95 $261 $262 reversed $60 $-1 #
coedge $-1 $95 $260 $256 $263 forward $60 $-1 #
coedge $-1 $258 $264 $95 $156 forward $265 $-1 #
edge $-1 $266 -11.248443509282373 $267 -4.1005672734472984 $155 $268 forward 7 unknown #
loop $-1 $-1 $162 $96 #
plane-surface $-1 -2.4830230383662837 15.349010782729668 73.246896370835557 0.84804810408105047 0 0.52991925155115449 0.52991925155115449 0 -0.84804810408105047 forward_v I I I I #
loop $-1 $-1 $269 $62 #
coedge $-1 $160 $160 $161 $270 reversed $97 $-1 #
coedge $-1 $161 $161 $160 $270 forward $99 $-1 #
coedge $-1 $162 $162 $100 $163 forward $157 $-1 #
edge $-1 $271 0 $271 6.2831853071796004 $162 $272 forward 7 unknown #
loop $-1 $-1 $169 $101 #
plane-surface $-1 -2.4830230383662837 15.349010782729668 73.246896370835557 0.84804810408105047 0 0.52991925155115449 0.52991925155115449 0 -0.84804810408105047 forward_v I I I I #
loop $-1 $-1 $273 $65 #
coedge $-1 $167 $167 $168 $274 reversed $102 $-1 #
coedge $-1 $168 $168 $167 $274 forward $104 $-1 #
coedge $-1 $169 $169 $105 $170 forward $164 $-1 #
edge $-1 $275 0 $275 6.2831853071796004 $169 $276 forward 7 unknown #
loop $-1 $-1 $176 $106 #
plane-surface $-1 -2.4830230383662837 15.349010782729668 73.246896370835557 0.84804810408105047 0 0.52991925155115449 0.52991925155115449 0 -0.84804810408105047 forward_v I I I I #
loop $-1 $-1 $277 $68 #
coedge $-1 $174 $174 $175 $278 reversed $107 $-1 #
coedge $-1 $175 $175 $174 $278 forward $109 $-1 #
coedge $-1 $176 $176 $110 $177 forward $171 $-1 #
edge $-1 $279 0 $279 6.2831853071796004 $176 $280 forward 7 unknown #
face $-1 $281 $282 $37 $-1 $283 forward single #
loop $-1 $-1 $284 $111 #
plane-surface $-1 -110.29791055816791 10.427110483928365 49.0256244677132 0 -1 0 0.82903758062907751 0 -0.55919289150049634 forward_v I I I I #
coedge $-1 $285 $286 $287 $288 reversed $112 $-1 #
coedge $-1 $183 $114 $289 $290 reversed $72 $-1 #
coedge $-1 $114 $182 $285 $291 reversed $72 $-1 #
coedge $-1 $287 $292 $114 $185 forward $282 $-1 #
edge $-1 $293 13.653548314760094 $294 17.38708080561063 $184 $295 forward 7 unknown #
loop $-1 $-1 $191 $115 #
plane-surface $-1 -41.495406964323863 4.8200171304841639 2.6177512589730156 -0.82903758062907751 0 0.55919289150049634 0.55919289150049634 0 0.82903758062907751 forward_v I I I I #
loop $-1 $-1 $296 $74 #
coedge $-1 $189 $189 $190 $297 reversed $116 $-1 #
coedge $-1 $190 $190 $189 $297 forward $118 $-1 #
coedge $-1 $191 $191 $119 $192 forward $186 $-1 #
edge $-1 $298 0 $298 6.2831853071796004 $191 $299 forward 7 unknown #
loop $-1 $-1 $198 $120 #
plane-surface $-1 -41.495406964323863 4.8200171304841639 2.6177512589730156 -0.82903758062907751 0 0.55919289150049634 0.55919289150049634 0 0.82903758062907751 forward_v I I I I #
loop $-1 $-1 $300 $77 #
coedge $-1 $196 $196 $197 $301 reversed $121 $-1 #
coedge $-1 $197 $197 $196 $301 forward $123 $-1 #
coedge $-1 $198 $198 $124 $199 forward $193 $-1 #
edge $-1 $302 0 $302 6.2831853071796004 $198 $303 forward 7 unknown #
face $-1 $304 $305 $30 $-1 $306 reversed single #
loop $-1 $-1 $307 $125 #
plane-surface $-1 -41.495406964323863 0 0 1 0 0 0 0 -1 forward_v I I I I #
coedge $-1 $308 $211 $309 $310 forward $126 $-1 #
coedge $-1 $311 $128 $308 $312 forward $81 $-1 #
coedge $-1 $128 $311 $313 $314 forward $81 $-1 #
coedge $-1 $214 $213 $128 $207 reversed $215 $-1 #
edge $-1 $315 -28.816937273353528 $316 28.816937273353528 $206 $317 forward 7 unknown #
coedge $-1 $130 $129 $318 $319 forward $51 $-1 #
coedge $-1 $320 $321 $129 $210 reversed $305 $-1 #
edge $-1 $217 -41.495406964323863 $322 41.495406964323863 $209 $323 forward 7 unknown #
coedge $-1 $203 $324 $130 $212 reversed $126 $-1 #
edge $-1 $325 -41.495406964323863 $216 41.495406964323863 $211 $326 forward 7 unknown #
coedge $-1 $206 $131 $324 $327 forward $215 $-1 #
coedge $-1 $131 $206 $320 $328 reversed $215 $-1 #
loop $-1 $-1 $213 $304 #
vertex $-1 $132 $329 #
vertex $-1 $132 $330 #
straight-curve $-1 41.495406964323863 0 8.1529409769775647 0 1 0 I I #
face $-1 $331 $332 $31 $-1 $333 reversed single #
loop $-1 $-1 $334 $133 #
plane-surface $-1 -41.495406964323863 0 0 1 0 0 0 0 -1 forward_v I I I I #
coedge $-1 $230 $335 $224 $336 forward $134 $-1 #
coedge $-1 $139 $136 $337 $338 reversed $85 $-1 #
coedge $-1 $136 $139 $222 $336 reversed $85 $-1 #
coedge $-1 $339 $340 $136 $226 forward $341 $-1 #
edge $-1 $342 -8.1529409769775647 $343 8.1529409769775647 $225 $344 forward 7 unknown #
coedge $-1 $138 $137 $334 $345 reversed $54 $-1 #
coedge $-1 $337 $346 $137 $229 forward $332 $-1 #
edge $-1 $347 -21.582492282626074 $233 -18.243337080769503 $228 $348 forward 7 unknown #
coedge $-1 $349 $222 $138 $231 forward $134 $-1 #
edge $-1 $232 18.243337080769503 $350 21.582492282626074 $230 $351 forward 7 unknown #
vertex $-1 $231 $352 #
vertex $-1 $229 $353 #
straight-curve $-1 -38.156251762467292 -18.853156123034296 0 0 0 -1 I I #
face $-1 $354 $355 $32 $-1 $356 forward single #
loop $-1 $-1 $357 $141 #
plane-surface $-1 -41.495406964323863 0 0 1 0 0 0 0 -1 forward_v I I I I #
coedge $-1 $358 $359 $146 $245 forward $142 $-1 #
coedge $-1 $360 $144 $145 $244 reversed $89 $-1 #
coedge $-1 $144 $360 $361 $362 reversed $89 $-1 #
coedge $-1 $363 $357 $144 $242 forward $236 $-1 #
edge $-1 $364 1.3008453129302424 $365 5.001678880341629 $241 $366 forward 7 unknown #
coedge $-1 $146 $145 $357 $367 reversed $57 $-1 #
edge $-1 $249 -41.495406964323863 $364 41.495406964323863 $239 $368 forward 7 unknown #
edge $-1 $250 -41.495406964323863 $369 41.495406964323863 $238 $370 forward 7 unknown #
coedge $-1 $371 $147 $359 $372 reversed $248 $-1 #
coedge $-1 $147 $371 $360 $373 forward $248 $-1 #
loop $-1 $-1 $147 $354 #
vertex $-1 $148 $374 #
vertex $-1 $245 $375 #
straight-curve $-1 41.495406964323863 11.934971543500184 4.4521074095661781 0 1 0 I I #
face $-1 $-1 $265 $33 $-1 $376 forward single #
loop $-1 $-1 $261 $149 #
plane-surface $-1 0 18.922948900647206 6.3025241932718714 0 1 0 0 0 1 forward_v I I I I #
coedge $-1 $377 $378 $257 $379 forward $150 $-1 #
coedge $-1 $257 $152 $154 $263 reversed $93 $-1 #
coedge $-1 $152 $256 $255 $379 reversed $93 $-1 #
coedge $-1 $380 $155 $152 $259 forward $265 $-1 #
edge $-1 $267 4.2436036432926301 $381 7.5468172793405373 $258 $382 forward 7 unknown #
coedge $-1 $154 $153 $377 $383 reversed $60 $-1 #
coedge $-1 $384 $385 $153 $262 forward $253 $-1 #
edge $-1 $386 -53.946889121570536 $266 -47.71346086551285 $261 $387 forward 7 unknown #
edge $-1 $388 -82.990813928647754 $267 -76.757385672590061 $256 $389 forward 7 unknown #
coedge $-1 $155 $380 $384 $390 forward $265 $-1 #
loop $-1 $-1 $258 $252 #
vertex $-1 $262 $391 #
vertex $-1 $156 $392 #
straight-curve $-1 38.192193328275948 7.6745053913648338 8.1529409769775683 0 -1 0 I I #
coedge $-1 $269 $269 $-1 $393 reversed $159 $-1 #
edge $-1 $394 0 $394 6.2831853071796004 $160 $395 forward 7 unknown #
vertex $-1 $163 $396 #
ellipse-curve $-1 39.843800146299905 13.204647911979148 5.5098174697400841 0.84804810408105047 0 0.52991925155115449 0.26495962577557725 0 -0.42402405204052523 1 I I #
coedge $-1 $273 $273 $-1 $397 reversed $166 $-1 #
edge $-1 $398 0 $398 6.2831853071796004 $167 $399 forward 7 unknown #
vertex $-1 $170 $400 #
ellipse-curve $-1 39.843800146299905 15.349010782729668 5.5098174697400841 0.84804810408105047 0 0.52991925155115449 0.26495962577557725 0 -0.42402405204052523 1 I I #
coedge $-1 $277 $277 $-1 $401 reversed $173 $-1 #
edge $-1 $402 0 $402 6.2831853071796004 $174 $403 forward 7 unknown #
vertex $-1 $177 $404 #
ellipse-curve $-1 39.843800146299905 17.493373653480187 5.5098174697400841 0.84804810408105047 0 0.52991925155115449 0.26495962577557725 0 -0.42402405204052523 1 I I #
face $-1 $-1 $405 $37 $-1 $406 reversed single #
loop $-1 $-1 $184 $178 #
plane-surface $-1 0 0 8.1529409769775647 0 0 1 1 0 0 forward_v I I I I #
coedge $-1 $407 $408 $409 $410 reversed $179 $-1 #
coedge $-1 $411 $181 $183 $291 forward $112 $-1 #
coedge $-1 $181 $411 $407 $412 forward $112 $-1 #
coedge $-1 $409 $184 $181 $288 forward $282 $-1 #
edge $-1 $294 -3.1970847882021189 $413 8.0171019186862829 $287 $414 forward 7 unknown #
coedge $-1 $415 $416 $182 $290 forward $405 $-1 #
edge $-1 $417 -21.895060974883584 $293 -16.359871256879035 $289 $418 forward 7 unknown #
edge $-1 $294 -6.6766451212071987 $417 0 $183 $419 forward 7 unknown #
coedge $-1 $184 $409 $415 $420 forward $282 $-1 #
vertex $-1 $185 $421 #
vertex $-1 $185 $422 #
straight-curve $-1 -55.148955279083957 -0.78707622296003699 8.1529409769775647 1 0 0 I I #
coedge $-1 $296 $296 $-1 $423 reversed $188 $-1 #
edge $-1 $424 0 $424 6.2831853071796004 $189 $425 forward 7 unknown #
vertex $-1 $192 $426 #
ellipse-curve $-1 -39.628640718898595 2.4169771218652194 5.3853461179752893 -0.82903758062907751 0 0.55919289150049634 0.83878933725074445 0 1.2435563709436162 1 I I #
coedge $-1 $300 $300 $-1 $427 reversed $195 $-1 #
edge $-1 $428 0 $428 6.2831853071796004 $196 $429 forward 7 unknown #
vertex $-1 $199 $430 #
ellipse-curve $-1 -39.628640718898595 7.2230571391031084 5.3853461179752893 -0.82903758062907751 0 0.55919289150049634 0.83878933725074445 0 1.2435563709436162 1 I I #
face $-1 $-1 $215 $30 $-1 $431 reversed single #
loop $-1 $-1 $320 $200 #
plane-surface $-1 0 28.816937273353528 0 0 -1 0 0 0 -1 forward_v I I I I #
coedge $-1 $432 $318 $321 $433 forward $201 $-1 #
coedge $-1 $324 $203 $204 $312 reversed $126 $-1 #
coedge $-1 $318 $432 $203 $310 reversed $201 $-1 #
edge $-1 $325 -8.1529409769775647 $434 8.1529409769775647 $309 $435 forward 7 unknown #
coedge $-1 $205 $204 $432 $436 forward $81 $-1 #
edge $-1 $316 -41.495406964323863 $434 41.495406964323863 $308 $437 forward 7 unknown #
coedge $-1 $321 $320 $205 $314 reversed $305 $-1 #
edge $-1 $438 -41.495406964323863 $315 41.495406964323863 $313 $439 forward 7 unknown #
vertex $-1 $207 $440 #
vertex $-1 $327 $441 #
straight-curve $-1 41.495406964323863 0 -8.1529409769775647 0 -1 0 I I #
coedge $-1 $307 $309 $208 $319 reversed $201 $-1 #
edge $-1 $322 -28.816937273353528 $325 28.816937273353528 $318 $442 forward 7 unknown #
coedge $-1 $313 $209 $214 $328 forward $305 $-1 #
coedge $-1 $209 $313 $307 $433 reversed $305 $-1 #
vertex $-1 $210 $443 #
straight-curve $-1 0 28.816937273353528 8.1529409769775647 -1 0 0 I I #
coedge $-1 $211 $308 $213 $327 reversed $126 $-1 #
vertex $-1 $319 $444 #
straight-curve $-1 0 -28.816937273353528 8.1529409769775647 1 0 0 I I #
edge $-1 $216 -8.1529409769775647 $316 8.1529409769775647 $213 $445 forward 7 unknown #
edge $-1 $217 -8.1529409769775647 $315 8.1529409769775647 $214 $446 forward 7 unknown #
point $-1 41.495406964323863 -28.816937273353528 8.1529409769775647 #
point $-1 41.495406964323863 28.816937273353528 8.1529409769775647 #
face $-1 $-1 $341 $31 $-1 $447 reversed single #
loop $-1 $-1 $337 $219 #
plane-surface $-1 0 0 -8.1529409769775647 0 0 1 1 0 0 forward_v I I I I #
coedge $-1 $448 $449 $227 $345 forward $220 $-1 #
coedge $-1 $222 $349 $339 $450 forward $134 $-1 #
edge $-1 $343 -16.899413924256574 $232 -6.9356327739373391 $222 $451 forward 7 unknown #
coedge $-1 $452 $228 $223 $338 forward $332 $-1 #
edge $-1 $233 6.9356327739373391 $342 16.899413924256574 $337 $453 forward 7 unknown #
coedge $-1 $454 $225 $335 $450 reversed $341 $-1 #
coedge $-1 $225 $454 $452 $455 reversed $341 $-1 #
loop $-1 $-1 $225 $331 #
vertex $-1 $455 $456 #
vertex $-1 $226 $457 #
straight-curve $-1 -38.156251762467292 -28.816937273353528 0 0 0 1 I I #
edge $-1 $350 -8.1529409769775647 $347 8.1529409769775647 $334 $458 forward 7 unknown #
coedge $-1 $228 $452 $448 $459 forward $332 $-1 #
vertex $-1 $229 $460 #
straight-curve $-1 -19.912914681697789 -18.853156123034296 -8.1529409769775647 1 0 0 I I #
coedge $-1 $335 $230 $449 $461 forward $134 $-1 #
vertex $-1 $461 $462 #
straight-curve $-1 -19.912914681697789 -18.853156123034296 8.1529409769775647 -1 0 0 I I #
point $-1 -38.156251762467292 -18.853156123034296 8.1529409769775647 #
point $-1 -38.156251762467292 -18.853156123034296 -8.1529409769775647 #
face $-1 $-1 $248 $32 $-1 $463 reversed single #
loop $-1 $-1 $361 $235 #
plane-surface $-1 0 0 8.1529409769775647 0 0 1 1 0 0 forward_v I I I I #
coedge $-1 $241 $464 $243 $367 forward $236 $-1 #
coedge $-1 $465 $238 $464 $466 reversed $142 $-1 #
coedge $-1 $238 $465 $246 $372 forward $142 $-1 #
coedge $-1 $240 $239 $247 $373 reversed $89 $-1 #
coedge $-1 $467 $468 $240 $362 forward $355 $-1 #
edge $-1 $365 -41.495406964323863 $469 41.495406964323863 $361 $470 forward 7 unknown #
coedge $-1 $464 $241 $468 $471 reversed $236 $-1 #
vertex $-1 $367 $472 #
vertex $-1 $242 $473 #
straight-curve $-1 -41.495406964323863 18.922948900647206 3.1512620966359357 0 0 1 I I #
edge $-1 $369 -16.881965729853349 $364 -6.9879773571470221 $357 $474 forward 7 unknown #
straight-curve $-1 0 18.922948900647206 4.4521074095661781 -1 0 0 I I #
vertex $-1 $367 $475 #
straight-curve $-1 0 28.816937273353528 4.4521074095661781 -1 0 0 I I #
coedge $-1 $247 $246 $467 $476 reversed $248 $-1 #
edge $-1 $477 -8.1529409769775647 $250 -4.4521074095661781 $246 $478 forward 7 unknown #
edge $-1 $469 -5.001678880341629 $249 -1.3008453129302424 $247 $479 forward 7 unknown #
point $-1 41.495406964323863 18.922948900647206 4.4521074095661781 #
point $-1 41.495406964323863 28.816937273353531 4.4521074095661781 #
plane-surface $-1 0 0 8.1529409769775647 0 0 1 1 0 0 forward_v I I I I #
coedge $-1 $480 $255 $260 $383 forward $150 $-1 #
coedge $-1 $255 $480 $380 $481 reversed $150 $-1 #
edge $-1 $381 50.459722209785284 $388 55.74596922426025 $255 $482 forward 7 unknown #
coedge $-1 $264 $258 $378 $481 forward $265 $-1 #
vertex $-1 $481 $483 #
straight-curve $-1 33.948589684983325 11.775072664812132 8.1529409769775611 1 0 0 I I #
edge $-1 $388 4.1005672734472984 $386 11.248443509282369 $377 $484 forward 7 unknown #
coedge $-1 $385 $261 $264 $390 reversed $253 $-1 #
coedge $-1 $261 $384 $480 $485 reversed $253 $-1 #
vertex $-1 $485 $486 #
straight-curve $-1 12.907911857508084 18.922948900647206 48.616251003121135 -0.52991925155115449 0 0.84804810408105047 I I #
vertex $-1 $383 $487 #
straight-curve $-1 -2.4830230383662837 11.775072664812132 73.246896370835557 -0.52991925155115449 0 0.84804810408105047 I I #
edge $-1 $488 -41.495406964323863 $266 -38.192193328275955 $264 $489 forward 7 unknown #
point $-1 38.192193328275955 18.922948900647206 8.1529409769775647 #
point $-1 38.192193328275955 11.775072664812132 8.1529409769775611 #
edge $-1 $490 1 $490 0 $269 $-1 forward 7 unknown #
vertex $-1 $270 $491 #
ellipse-curve $-1 38.39616311350261 13.204647911979148 4.6052334853575703 0.84804810408105047 0 0.52991925155115449 0.26495962577557725 0 -0.42402405204052523 1 I I #
point $-1 40.108759772075501 13.204647911979148 5.0857934176995716 #
edge $-1 $492 1 $492 0 $273 $-1 forward 7 unknown #
vertex $-1 $274 $493 #
ellipse-curve $-1 38.39616311350261 15.349010782729668 4.6052334853575703 0.84804810408105047 0 0.52991925155115449 0.26495962577557725 0 -0.42402405204052523 1 I I #
point $-1 40.108759772075501 15.349010782729668 5.0857934176995716 #
edge $-1 $494 1 $494 0 $277 $-1 forward 7 unknown #
vertex $-1 $278 $495 #
ellipse-curve $-1 38.39616311350261 17.493373653480187 4.6052334853575703 0.84804810408105047 0 0.52991925155115449 0.26495962577557725 0 -0.42402405204052523 1 I I #
point $-1 40.108759772075501 17.493373653480187 5.0857934176995716 #
loop $-1 $-1 $289 $281 #
plane-surface $-1 -41.495406964323863 0 0 1 0 0 0 0 -1 forward_v I I I I #
coedge $-1 $408 $284 $286 $412 reversed $179 $-1 #
coedge $-1 $284 $407 $496 $497 reversed $179 $-1 #
coedge $-1 $292 $287 $284 $410 forward $282 $-1 #
edge $-1 $413 -17.38708080561063 $498 -13.653548314760094 $409 $499 forward 7 unknown #
coedge $-1 $286 $285 $416 $500 reversed $112 $-1 #
edge $-1 $501 0 $413 6.6766451212071987 $407 $502 forward 7 unknown #
vertex $-1 $288 $503 #
straight-curve $-1 -37.761874473473327 2.410008565242082 8.1529409769775647 0 1 0 I I #
coedge $-1 $496 $289 $292 $420 reversed $405 $-1 #
coedge $-1 $289 $496 $411 $500 forward $405 $-1 #
vertex $-1 $290 $504 #
straight-curve $-1 -41.495406964323863 -0.78707622296003699 24.5128122338566 0 0 1 I I #
straight-curve $-1 -41.495406964323863 -0.78707622296003699 2.6177512589730156 -0.55919289150049634 0 -0.82903758062907751 I I #
edge $-1 $498 -10.427110483928365 $293 0.78707622296003699 $415 $505 forward 7 unknown #
point $-1 -41.495406964323863 -0.78707622296003699 8.1529409769775647 #
point $-1 -37.761874473473327 -0.78707622296003699 8.1529409769775647 #
edge $-1 $506 1 $506 0 $296 $-1 forward 7 unknown #
vertex $-1 $297 $507 #
ellipse-curve $-1 -35.223801392943493 2.4169771218652194 2.4142445698321033 -0.82903758062907751 0 0.55919289150049634 0.83878933725074445 0 1.2435563709436162 1 I I #
point $-1 -38.78985138164785 2.4169771218652194 6.6289024889189019 #
edge $-1 $508 1 $508 0 $300 $-1 forward 7 unknown #
vertex $-1 $301 $509 #
ellipse-curve $-1 -35.223801392943493 7.2230571391031084 2.4142445698321033 -0.82903758062907751 0 0.55919289150049634 0.83878933725074445 0 1.2435563709436162 1 I I #
point $-1 -38.78985138164785 7.2230571391031084 6.6289024889189019 #
plane-surface $-1 41.495406964323863 0 0 -1 0 0 0 0 1 forward_v I I I I #
coedge $-1 $309 $307 $311 $436 reversed $201 $-1 #
edge $-1 $322 -8.1529409769775647 $438 8.1529409769775647 $321 $510 forward 7 unknown #
vertex $-1 $436 $511 #
straight-curve $-1 -41.495406964323863 -28.816937273353528 0 0 0 -1 I I #
edge $-1 $434 -28.816937273353528 $438 28.816937273353528 $432 $512 forward 7 unknown #
straight-curve $-1 0 -28.816937273353528 -8.1529409769775647 -1 0 0 I I #
vertex $-1 $314 $513 #
straight-curve $-1 0 28.816937273353528 -8.1529409769775647 1 0 0 I I #
point $-1 41.495406964323863 28.816937273353528 -8.1529409769775647 #
point $-1 41.495406964323863 -28.816937273353528 -8.1529409769775647 #
straight-curve $-1 -41.495406964323863 0 8.1529409769775647 0 -1 0 I I #
point $-1 -41.495406964323863 28.816937273353528 8.1529409769775647 #
point $-1 -41.495406964323863 -28.816937273353528 8.1529409769775647 #
straight-curve $-1 41.495406964323863 -28.816937273353528 0 0 0 -1 I I #
straight-curve $-1 41.495406964323863 28.816937273353528 0 0 0 -1 I I #
plane-surface $-1 0 -28.816937273353528 0 0 1 0 0 0 1 forward_v I I I I #
coedge $-1 $514 $334 $346 $459 reversed $220 $-1 #
coedge $-1 $334 $514 $349 $461 reversed $220 $-1 #
edge $-1 $515 -41.495406964323863 $343 -38.156251762467292 $339 $516 forward 7 unknown #
straight-curve $-1 -38.156251762467292 -11.917523349096957 8.1529409769775647 0 1 0 I I #
coedge $-1 $346 $337 $340 $455 forward $332 $-1 #
straight-curve $-1 -38.156251762467292 -11.917523349096957 -8.1529409769775647 0 -1 0 I I #
coedge $-1 $340 $339 $514 $517 forward $341 $-1 #
edge $-1 $342 38.156251762467292 $518 41.495406964323863 $340 $519 forward 7 unknown #
point $-1 -38.156251762467292 -28.816937273353531 -8.1529409769775647 #
point $-1 -38.156251762467292 -28.816937273353531 8.1529409769775647 #
straight-curve $-1 -41.495406964323863 -18.853156123034296 0 0 0 -1 I I #
edge $-1 $518 -28.816937273353528 $347 -18.853156123034296 $448 $520 forward 7 unknown #
point $-1 -41.495406964323863 -18.853156123034296 -8.1529409769775647 #
edge $-1 $350 18.853156123034296 $515 28.816937273353528 $449 $521 forward 7 unknown #
point $-1 -41.495406964323863 -18.853156123034296 8.1529409769775647 #
plane-surface $-1 41.495406964323863 0 0 -1 0 0 0 0 1 forward_v I I I I #
coedge $-1 $357 $363 $358 $466 forward $236 $-1 #
coedge $-1 $359 $358 $522 $523 reversed $142 $-1 #
edge $-1 $524 -8.1529409769775647 $369 -4.4521074095661781 $358 $525 forward 7 unknown #
coedge $-1 $522 $361 $371 $476 forward $355 $-1 #
coedge $-1 $361 $522 $363 $471 forward $355 $-1 #
vertex $-1 $476 $526 #
straight-curve $-1 0 18.922948900647206 8.1529409769775647 1 0 0 I I #
edge $-1 $524 -28.816937273353528 $365 -18.922948900647206 $363 $527 forward 7 unknown #
point $-1 -41.495406964323863 18.922948900647206 4.4521074095661781 #
point $-1 -41.495406964323863 18.922948900647206 8.1529409769775647 #
straight-curve $-1 -41.495406964323863 11.934971543500184 4.4521074095661781 0 -1 0 I I #
point $-1 -41.495406964323863 28.816937273353531 4.4521074095661781 #
edge $-1 $469 18.922948900647206 $477 28.816937273353528 $371 $528 forward 7 unknown #
vertex $-1 $476 $529 #
straight-curve $-1 41.495406964323863 28.816937273353528 0 0 0 -1 I I #
straight-curve $-1 41.495406964323863 18.922948900647206 3.1512620966359357 0 0 -1 I I #
coedge $-1 $378 $377 $385 $485 forward $150 $-1 #
edge $-1 $381 11.775072664812132 $488 18.922948900647206 $378 $530 forward 7 unknown #
straight-curve $-1 41.495406964323863 11.775072664812132 58.612663186762845 0 0 -1 I I #
point $-1 41.495406964323863 11.775072664812132 8.1529409769775647 #
straight-curve $-1 41.495406964323863 7.6745053913648338 2.8666939625025876 0 1 0 I I #
edge $-1 $386 -55.74596922426025 $488 -50.459722209785284 $480 $531 forward 7 unknown #
point $-1 41.495406964323863 18.922948900647203 2.8666939625025947 #
point $-1 41.495406964323863 11.775072664812132 2.8666939625025947 #
vertex $-1 $390 $532 #
straight-curve $-1 0 18.922948900647206 8.1529409769775647 -1 0 0 I I #
vertex $-1 $393 $533 #
point $-1 38.661122739278191 13.204647911979148 4.1812094333170453 #
vertex $-1 $397 $534 #
point $-1 38.661122739278191 15.349010782729668 4.1812094333170453 #
vertex $-1 $401 $535 #
point $-1 38.661122739278191 17.493373653480187 4.1812094333170453 #
coedge $-1 $416 $415 $408 $497 forward $405 $-1 #
edge $-1 $498 16.359871256879035 $501 21.895060974883584 $496 $536 forward 7 unknown #
vertex $-1 $420 $537 #
straight-curve $-1 -55.148955279083957 10.427110483928365 8.1529409769775647 -1 0 0 I I #
edge $-1 $501 -8.0171019186862829 $417 3.1970847882021189 $416 $538 forward 7 unknown #
vertex $-1 $500 $539 #
straight-curve $-1 -41.495406964323863 10.427110483928365 2.6177512589730156 0.55919289150049634 0 0.82903758062907751 I I #
point $-1 -37.761874473473327 10.427110483928365 8.1529409769775647 #
point $-1 -41.495406964323863 -0.78707622296003699 2.6177512589730156 #
straight-curve $-1 -41.495406964323863 0 8.1529409769775647 0 -1 0 I I #
vertex $-1 $423 $540 #
point $-1 -34.385012055692748 2.4169771218652194 3.6578009407757195 #
vertex $-1 $427 $541 #
point $-1 -34.385012055692748 7.2230571391031084 3.6578009407757195 #
straight-curve $-1 -41.495406964323863 28.816937273353528 0 0 0 -1 I I #
point $-1 -41.495406964323863 -28.816937273353528 -8.1529409769775647 #
straight-curve $-1 -41.495406964323863 0 -8.1529409769775647 0 1 0 I I #
point $-1 -41.495406964323863 28.816937273353528 -8.1529409769775647 #
coedge $-1 $449 $448 $454 $517 reversed $220 $-1 #
vertex $-1 $461 $542 #
straight-curve $-1 0 -28.816937273353528 8.1529409769775647 1 0 0 I I #
edge $-1 $515 -8.1529409769775647 $518 8.1529409769775647 $514 $543 forward 7 unknown #
vertex $-1 $459 $544 #
straight-curve $-1 0 -28.816937273353528 -8.1529409769775647 -1 0 0 I I #
straight-curve $-1 -41.495406964323863 0 -8.1529409769775647 0 1 0 I I #
straight-curve $-1 -41.495406964323863 0 8.1529409769775647 0 -1 0 I I #
coedge $-1 $468 $467 $465 $523 forward $355 $-1 #
edge $-1 $477 -41.495406964323863 $524 41.495406964323863 $465 $545 forward 7 unknown #
vertex $-1 $523 $546 #
straight-curve $-1 -41.495406964323863 28.816937273353528 0 0 0 -1 I I #
point $-1 41.495406964323863 18.922948900647206 8.1529409769775647 #
straight-curve $-1 -41.495406964323863 0 8.1529409769775647 0 -1 0 I I #
straight-curve $-1 41.495406964323863 0 8.1529409769775647 0 1 0 I I #
point $-1 41.495406964323863 28.816937273353528 8.1529409769775647 #
straight-curve $-1 41.495406964323863 0 8.1529409769775647 0 1 0 I I #
straight-curve $-1 41.495406964323863 18.922948900647203 58.612663186762845 0 0 1 I I #
point $-1 41.495406964323863 18.922948900647206 8.1529409769775647 #
point $-1 37.972139061462087 13.204647911979148 4.3402738595819939 #
point $-1 37.972139061462087 15.349010782729668 4.3402738595819939 #
point $-1 37.972139061462087 17.493373653480187 4.3402738595819939 #
straight-curve $-1 -41.495406964323863 10.427110483928365 24.5128122338566 0 0 -1 I I #
point $-1 -41.495406964323863 10.427110483928365 8.1529409769775647 #
straight-curve $-1 -41.495406964323863 2.410008565242082 2.6177512589730143 0 -1 0 I I #
point $-1 -41.495406964323863 10.427110483928365 2.6177512589730156 #
point $-1 -33.98024502199987 2.4169771218652194 1.5754552325813587 #
point $-1 -33.98024502199987 7.2230571391031084 1.5754552325813587 #
point $-1 -41.495406964323863 -28.816937273353528 8.1529409769775647 #
straight-curve $-1 -41.495406964323863 -28.816937273353528 0 0 0 -1 I I #
point $-1 -41.495406964323863 -28.816937273353528 -8.1529409769775647 #
straight-curve $-1 0 28.816937273353528 8.1529409769775647 -1 0 0 I I #
point $-1 -41.495406964323863 28.816937273353528 8.1529409769775647 #
End-of-ACIS-data 