500 0 5 0           
7 Unknown 11 ACIS 5.0 NT 24 Fri Mar 26 19:37:31 1999 
-1 9.9999999999999995e-007 1e-010 
body $-1 $5 $-1 $6 #
body $-1 $7 $-1 $8 #
body $-1 $9 $-1 $10 #
body $-1 $11 $-1 $12 #
body $-1 $13 $-1 $14 #
lump $-1 $-1 $15 $0 #
transform $-1 1 0 0 0 1 0 0 0 1 55.248268074587237 34.407630607552704 11.03287128108874 1 rotate no_reflect no_shear #
lump $-1 $-1 $16 $1 #
transform $-1 1 0 0 0 1 0 0 0 1 55.248268074587237 34.407630607552704 11.03287128108874 1 rotate no_reflect no_shear #
lump $-1 $-1 $17 $2 #
transform $-1 1 0 0 0 1 0 0 0 1 55.248268074587237 34.407630607552704 11.03287128108874 1 rotate no_reflect no_shear #
lump $-1 $-1 $18 $3 #
transform $-1 1 0 0 0 1 0 0 0 1 55.248268074587237 34.407630607552704 11.03287128108874 1 rotate no_reflect no_shear #
lump $-1 $-1 $19 $4 #
transform $-1 1 0 0 0 1 0 0 0 1 55.248268074587237 34.407630607552704 11.03287128108874 1 rotate no_reflect no_shear #
shell $-1 $-1 $-1 $20 $-1 $5 #
shell $-1 $-1 $-1 $21 $-1 $7 #
shell $-1 $-1 $-1 $22 $-1 $9 #
shell $-1 $-1 $-1 $23 $-1 $11 #
shell $-1 $-1 $-1 $24 $-1 $13 #
face $-1 $25 $26 $15 $-1 $27 forward single #
face $-1 $28 $29 $16 $-1 $30 reversed single #
face $-1 $31 $32 $17 $-1 $33 reversed single #
face $-1 $34 $35 $18 $-1 $36 reversed single #
face $-1 $37 $38 $19 $-1 $39 forward single #
face $-1 $40 $41 $15 $-1 $42 reversed single #
loop $-1 $-1 $43 $20 #
plane-surface $-1 0 0 11.03287128108874 0 0 1 1 0 0 forward_v I I I I #
face $-1 $44 $45 $16 $-1 $46 reversed single #
loop $-1 $-1 $47 $21 #
plane-surface $-1 -49.563048055986158 0 5.4188243430686249 0 0 1 1 0 0 forward_v I I I I #
face $-1 $48 $49 $17 $-1 $50 reversed single #
loop $-1 $-1 $51 $22 #
plane-surface $-1 49.563048055986165 0 5.4188243430686249 0 0 1 1 0 0 forward_v I I I I #
face $-1 $52 $53 $18 $-1 $54 reversed single #
loop $-1 $-1 $55 $23 #
plane-surface $-1 28.752828181715863 -124.92109497976129 64.742229751260439 -1 0 0 0 -0.81915205242281985 0.57357642473473569 forward_v I I I I #
face $-1 $56 $57 $19 $-1 $58 forward single #
loop $-1 $59 $60 $24 #
cone-surface $-1 22.785727454844569 -28.92489500666651 4.7296666550239639 0 0.81915205242281985 -0.57357642473473569 1.5 0 0 1 I I 0 1 1.5 forward I I I I #
face $-1 $61 $62 $15 $-1 $63 reversed single #
loop $-1 $-1 $64 $25 #
plane-surface $-1 0 0 -11.03287128108874 0 0 1 1 0 0 forward_v I I I I #
coedge $-1 $65 $66 $67 $68 forward $26 $-1 #
face $-1 $69 $70 $16 $-1 $71 reversed single #
loop $-1 $-1 $72 $28 #
plane-surface $-1 -43.877828037385079 0 8.2258478120786815 -1 0 0 0 0 1 forward_v I I I I #
coedge $-1 $73 $74 $75 $76 forward $29 $-1 #
face $-1 $77 $78 $17 $-1 $79 forward single #
loop $-1 $-1 $80 $31 #
plane-surface $-1 43.877828037385086 0 8.2258478120786815 1 0 0 0 0 -1 forward_v I I I I #
coedge $-1 $81 $82 $83 $84 reversed $32 $-1 #
face $-1 $85 $86 $18 $-1 $87 reversed single #
loop $-1 $-1 $88 $34 #
plane-surface $-1 22.785727454844569 -34.407630607552719 1.3640216012444668 0 -0.81915205242281985 0.57357642473473569 1 0 0 forward_v I I I I #
coedge $-1 $89 $90 $91 $92 reversed $35 $-1 #
face $-1 $-1 $93 $19 $-1 $94 forward single #
loop $-1 $95 $96 $37 #
cone-surface $-1 22.785727454844569 -26.212895980115871 2.8307045503302675 0 0.81915205242281985 -0.57357642473473569 0.75 0 0 1 I I -0.70710678118654757 0.70710678118654757 0.75 forward I I I I #
loop $-1 $-1 $97 $24 #
coedge $-1 $60 $60 $98 $99 reversed $38 $-1 #
face $-1 $100 $101 $15 $-1 $102 reversed single #
loop $-1 $-1 $103 $40 #
plane-surface $-1 0 -34.407630607552704 0 0 1 0 0 0 1 forward_v I I I I #
coedge $-1 $104 $105 $106 $107 forward $41 $-1 #
coedge $-1 $108 $43 $109 $110 forward $26 $-1 #
coedge $-1 $43 $108 $111 $112 forward $26 $-1 #
coedge $-1 $113 $114 $43 $68 reversed $115 $-1 #
edge $-1 $116 -34.407630607552704 $117 34.407630607552704 $67 $118 forward 7 unknown #
face $-1 $119 $120 $16 $-1 $121 reversed single #
loop $-1 $-1 $122 $44 #
plane-surface $-1 0 34.407630607552704 0 0 -1 0 0 0 -1 forward_v I I I I #
coedge $-1 $75 $123 $124 $125 reversed $45 $-1 #
coedge $-1 $126 $47 $127 $128 reversed $29 $-1 #
coedge $-1 $47 $126 $129 $130 reversed $29 $-1 #
coedge $-1 $131 $72 $47 $76 reversed $45 $-1 #
edge $-1 $132 -34.407630607552704 $133 34.407630607552704 $75 $134 forward 7 unknown #
face $-1 $135 $136 $17 $-1 $137 reversed single #
loop $-1 $-1 $138 $48 #
plane-surface $-1 0 0 11.03287128108874 0 0 1 1 0 0 forward_v I I I I #
coedge $-1 $139 $140 $141 $142 reversed $49 $-1 #
coedge $-1 $143 $51 $144 $145 reversed $32 $-1 #
coedge $-1 $51 $143 $146 $147 reversed $32 $-1 #
coedge $-1 $148 $149 $51 $84 forward $150 $-1 #
edge $-1 $151 -34.407630607552704 $152 34.407630607552704 $83 $153 forward 7 unknown #
face $-1 $154 $155 $18 $-1 $156 forward single #
loop $-1 $-1 $157 $52 #
plane-surface $-1 16.818626727973275 -124.92109497976129 64.742229751260439 1 0 0 0 0.81915205242281985 -0.57357642473473569 forward_v I I I I #
coedge $-1 $158 $159 $160 $161 reversed $53 $-1 #
coedge $-1 $90 $55 $162 $163 reversed $35 $-1 #
coedge $-1 $55 $89 $158 $164 reversed $35 $-1 #
coedge $-1 $160 $165 $55 $92 forward $155 $-1 #
edge $-1 $166 28.052916882327942 $167 34.823118109633278 $91 $168 forward 7 unknown #
loop $-1 $-1 $98 $56 #
plane-surface $-1 22.785727454844569 -34.407630607552719 1.3640216012444668 0 -0.81915205242281985 0.57357642473473569 1 0 0 forward_v I I I I #
loop $-1 $-1 $169 $37 #
coedge $-1 $96 $96 $97 $170 reversed $57 $-1 #
coedge $-1 $97 $97 $96 $170 forward $59 $-1 #
coedge $-1 $98 $98 $60 $99 forward $93 $-1 #
edge $-1 $171 -9.6604477501640931e-017 $171 6.2831853071796004 $98 $172 forward 7 unknown #
face $-1 $173 $174 $15 $-1 $175 reversed single #
loop $-1 $-1 $176 $61 #
plane-surface $-1 -55.248268074587237 0 0 1 0 0 0 0 -1 forward_v I I I I #
coedge $-1 $177 $111 $178 $179 forward $62 $-1 #
coedge $-1 $180 $64 $177 $181 forward $41 $-1 #
coedge $-1 $64 $180 $182 $183 forward $41 $-1 #
coedge $-1 $114 $113 $64 $107 reversed $115 $-1 #
edge $-1 $184 -34.407630607552704 $185 34.407630607552704 $106 $186 forward 7 unknown #
coedge $-1 $66 $65 $187 $188 forward $26 $-1 #
coedge $-1 $189 $190 $65 $110 reversed $174 $-1 #
edge $-1 $117 -55.248268074587237 $191 55.248268074587237 $109 $192 forward 7 unknown #
coedge $-1 $103 $193 $66 $112 reversed $62 $-1 #
edge $-1 $194 -55.248268074587237 $116 55.248268074587237 $111 $195 forward 7 unknown #
coedge $-1 $106 $67 $193 $196 forward $115 $-1 #
coedge $-1 $67 $106 $189 $197 reversed $115 $-1 #
loop $-1 $-1 $113 $173 #
vertex $-1 $68 $198 #
vertex $-1 $68 $199 #
straight-curve $-1 55.248268074587237 0 11.03287128108874 0 1 0 I I #
face $-1 $200 $201 $16 $-1 $202 forward single #
loop $-1 $-1 $203 $69 #
plane-surface $-1 -55.248268074587237 0 0 1 0 0 0 0 -1 forward_v I I I I #
coedge $-1 $129 $204 $131 $205 forward $70 $-1 #
coedge $-1 $72 $131 $206 $207 reversed $45 $-1 #
coedge $-1 $208 $127 $72 $125 forward $209 $-1 #
edge $-1 $133 1.3059004370292842 $210 6.9199473750493974 $124 $211 forward 7 unknown #
coedge $-1 $74 $73 $203 $212 reversed $29 $-1 #
coedge $-1 $124 $213 $73 $128 forward $209 $-1 #
edge $-1 $214 -30.466744046594158 $133 -19.096304009392 $127 $215 forward 7 unknown #
coedge $-1 $216 $122 $74 $130 forward $70 $-1 #
edge $-1 $132 19.096304009392 $217 30.466744046594158 $129 $218 forward 7 unknown #
coedge $-1 $123 $75 $122 $205 reversed $45 $-1 #
vertex $-1 $130 $219 #
vertex $-1 $128 $220 #
straight-curve $-1 -43.877828037385079 0 5.4188243430686249 0 -1 0 I I #
face $-1 $221 $222 $17 $-1 $223 reversed single #
loop $-1 $-1 $224 $77 #
plane-surface $-1 0 -34.407630607552704 0 0 1 0 0 0 1 forward_v I I I I #
coedge $-1 $225 $226 $140 $227 forward $78 $-1 #
coedge $-1 $228 $80 $143 $229 reversed $49 $-1 #
coedge $-1 $80 $228 $138 $227 reversed $49 $-1 #
coedge $-1 $230 $146 $80 $142 forward $222 $-1 #
edge $-1 $231 1.3059004370292842 $232 6.9199473750493974 $141 $233 forward 7 unknown #
coedge $-1 $82 $81 $139 $229 forward $32 $-1 #
coedge $-1 $234 $224 $81 $145 forward $136 $-1 #
edge $-1 $235 19.096304009392004 $151 30.466744046594162 $144 $236 forward 7 unknown #
coedge $-1 $141 $237 $82 $147 forward $222 $-1 #
edge $-1 $152 -30.466744046594162 $231 -19.096304009392004 $146 $238 forward 7 unknown #
coedge $-1 $239 $83 $237 $240 reversed $150 $-1 #
coedge $-1 $83 $239 $234 $241 forward $150 $-1 #
loop $-1 $-1 $83 $221 #
vertex $-1 $145 $242 #
vertex $-1 $84 $243 #
straight-curve $-1 55.248268074587237 0 5.4188243430686249 0 1 0 I I #
face $-1 $-1 $244 $18 $-1 $245 reversed single #
loop $-1 $-1 $91 $85 #
plane-surface $-1 0 0 11.03287128108874 0 0 1 1 0 0 forward_v I I I I #
coedge $-1 $246 $247 $248 $249 reversed $86 $-1 #
coedge $-1 $250 $88 $90 $164 forward $53 $-1 #
coedge $-1 $88 $250 $246 $251 forward $53 $-1 #
coedge $-1 $248 $91 $88 $161 forward $155 $-1 #
edge $-1 $167 -17.359964454293578 $252 -5.4257630005509903 $160 $253 forward 7 unknown #
coedge $-1 $254 $255 $89 $163 forward $244 $-1 #
edge $-1 $256 -31.007093274385731 $166 -21.338243594541481 $162 $257 forward 7 unknown #
edge $-1 $167 -11.803485874504684 $256 -2.4702845980661902e-014 $90 $258 forward 7 unknown #
coedge $-1 $91 $248 $254 $259 forward $155 $-1 #
vertex $-1 $163 $260 #
vertex $-1 $92 $261 #
straight-curve $-1 28.752828181715863 -62.460547489880646 11.032871281088738 0 1 0 I I #
coedge $-1 $169 $169 $-1 $262 reversed $95 $-1 #
edge $-1 $263 0 $263 6.2831853071796004 $96 $264 forward 7 unknown #
vertex $-1 $99 $265 #
ellipse-curve $-1 22.785727454844569 -31.022529993900037 6.1984464411666105 0 -0.81915205242281985 0.57357642473473569 1.5 0 0 1 I I #
face $-1 $-1 $115 $15 $-1 $266 reversed single #
loop $-1 $-1 $189 $100 #
plane-surface $-1 0 34.407630607552704 0 0 -1 0 0 0 -1 forward_v I I I I #
coedge $-1 $267 $187 $190 $268 forward $101 $-1 #
coedge $-1 $193 $103 $104 $181 reversed $62 $-1 #
coedge $-1 $187 $267 $103 $179 reversed $101 $-1 #
edge $-1 $194 -11.03287128108874 $269 11.03287128108874 $178 $270 forward 7 unknown #
coedge $-1 $105 $104 $267 $271 forward $41 $-1 #
edge $-1 $185 -55.248268074587237 $269 55.248268074587237 $177 $272 forward 7 unknown #
coedge $-1 $190 $189 $105 $183 reversed $174 $-1 #
edge $-1 $273 -55.248268074587237 $184 55.248268074587237 $182 $274 forward 7 unknown #
vertex $-1 $107 $275 #
vertex $-1 $196 $276 #
straight-curve $-1 55.248268074587237 0 -11.03287128108874 0 -1 0 I I #
coedge $-1 $176 $178 $108 $188 reversed $101 $-1 #
edge $-1 $191 -34.407630607552704 $194 34.407630607552704 $187 $277 forward 7 unknown #
coedge $-1 $182 $109 $114 $197 forward $174 $-1 #
coedge $-1 $109 $182 $176 $268 reversed $174 $-1 #
vertex $-1 $110 $278 #
straight-curve $-1 0 34.407630607552704 11.03287128108874 -1 0 0 I I #
coedge $-1 $111 $177 $113 $196 reversed $62 $-1 #
vertex $-1 $188 $279 #
straight-curve $-1 0 -34.407630607552704 11.03287128108874 1 0 0 I I #
edge $-1 $116 -11.03287128108874 $185 11.03287128108874 $113 $280 forward 7 unknown #
edge $-1 $117 -11.03287128108874 $184 11.03287128108874 $114 $281 forward 7 unknown #
point $-1 55.248268074587237 -34.407630607552704 11.03287128108874 #
point $-1 55.248268074587237 34.407630607552704 11.03287128108874 #
face $-1 $-1 $209 $16 $-1 $282 reversed single #
loop $-1 $-1 $206 $119 #
plane-surface $-1 0 0 11.03287128108874 0 0 1 1 0 0 forward_v I I I I #
coedge $-1 $283 $284 $126 $212 forward $120 $-1 #
coedge $-1 $122 $216 $285 $286 reversed $70 $-1 #
edge $-1 $287 -6.9199473750493974 $132 -1.3059004370292842 $122 $288 forward 7 unknown #
coedge $-1 $285 $289 $123 $207 forward $201 $-1 #
edge $-1 $210 -34.407630607552704 $287 34.407630607552704 $206 $290 forward 7 unknown #
coedge $-1 $213 $124 $289 $291 reversed $209 $-1 #
loop $-1 $-1 $124 $200 #
vertex $-1 $125 $292 #
straight-curve $-1 -43.877828037385079 -34.407630607552704 4.1129239060393408 0 0 1 I I #
edge $-1 $217 -34.407630607552704 $214 34.407630607552704 $203 $293 forward 7 unknown #
coedge $-1 $127 $208 $283 $294 forward $209 $-1 #
vertex $-1 $212 $295 #
straight-curve $-1 -24.781524027993079 -34.407630607552704 5.4188243430686249 1 0 0 I I #
coedge $-1 $204 $129 $284 $296 reversed $70 $-1 #
vertex $-1 $212 $297 #
straight-curve $-1 -24.781524027993079 34.407630607552704 5.4188243430686249 -1 0 0 I I #
point $-1 -43.877828037385079 34.407630607552704 5.4188243430686249 #
point $-1 -43.877828037385079 -34.407630607552704 5.4188243430686249 #
face $-1 $-1 $150 $17 $-1 $298 reversed single #
loop $-1 $-1 $141 $135 #
plane-surface $-1 0 34.407630607552704 0 0 -1 0 0 0 -1 forward_v I I I I #
coedge $-1 $144 $299 $228 $300 forward $136 $-1 #
coedge $-1 $301 $138 $299 $302 forward $78 $-1 #
coedge $-1 $138 $301 $230 $303 forward $78 $-1 #
edge $-1 $232 -34.407630607552704 $304 34.407630607552704 $138 $305 forward 7 unknown #
coedge $-1 $140 $139 $224 $300 reversed $49 $-1 #
edge $-1 $235 -34.407630607552704 $231 34.407630607552704 $139 $306 forward 7 unknown #
coedge $-1 $237 $141 $226 $303 reversed $222 $-1 #
vertex $-1 $147 $307 #
vertex $-1 $142 $308 #
straight-curve $-1 43.877828037385086 34.407630607552704 4.1129239060393408 0 0 1 I I #
coedge $-1 $299 $144 $149 $241 reversed $136 $-1 #
vertex $-1 $145 $309 #
straight-curve $-1 24.781524027993083 -34.407630607552704 5.4188243430686249 1 0 0 I I #
coedge $-1 $146 $230 $148 $240 forward $222 $-1 #
straight-curve $-1 24.781524027993083 34.407630607552704 5.4188243430686249 -1 0 0 I I #
coedge $-1 $149 $148 $301 $310 reversed $150 $-1 #
edge $-1 $311 -11.03287128108874 $152 -5.4188243430686249 $148 $312 forward 7 unknown #
edge $-1 $313 -11.03287128108874 $151 -5.4188243430686249 $149 $314 forward 7 unknown #
point $-1 55.248268074587244 -34.407630607552704 5.4188243430686249 #
point $-1 55.248268074587244 34.407630607552704 5.4188243430686249 #
loop $-1 $-1 $162 $154 #
plane-surface $-1 0 -34.407630607552704 0 0 1 0 0 0 1 forward_v I I I I #
coedge $-1 $247 $157 $159 $251 reversed $86 $-1 #
coedge $-1 $157 $246 $315 $316 reversed $86 $-1 #
coedge $-1 $165 $160 $157 $249 forward $155 $-1 #
edge $-1 $252 -34.823118109633278 $317 -28.052916882327942 $248 $318 forward 7 unknown #
coedge $-1 $159 $158 $255 $319 reversed $53 $-1 #
edge $-1 $320 2.4702845980661902e-014 $252 11.803485874504684 $246 $321 forward 7 unknown #
vertex $-1 $161 $322 #
straight-curve $-1 11.392863727422284 -27.637429380247369 11.03287128108874 -1 0 0 I I #
coedge $-1 $315 $162 $165 $259 reversed $244 $-1 #
coedge $-1 $162 $315 $250 $319 forward $244 $-1 #
vertex $-1 $163 $323 #
straight-curve $-1 28.752828181715863 -34.407630607552704 32.371114875630219 0 0 1 I I #
straight-curve $-1 28.752828181715863 -34.407630607552719 1.3640216012444668 0 -0.57357642473473569 -0.81915205242281985 I I #
edge $-1 $317 16.818626727973275 $166 28.752828181715863 $254 $324 forward 7 unknown #
point $-1 28.752828181715863 -34.407630607552704 11.03287128108874 #
point $-1 28.752828181715863 -27.637429380247369 11.03287128108874 #
edge $-1 $325 1 $325 0 $169 $-1 forward 7 unknown #
vertex $-1 $170 $326 #
ellipse-curve $-1 22.785727454844569 -26.827260019432984 3.2608868688813191 0 -0.81915205242281985 0.57357642473473569 1.5 0 0 1 I I #
point $-1 24.285727454844569 -31.022529993900033 6.1984464411666078 #
plane-surface $-1 55.248268074587237 0 0 -1 0 0 0 0 1 forward_v I I I I #
coedge $-1 $178 $176 $180 $271 reversed $101 $-1 #
edge $-1 $191 -11.03287128108874 $273 11.03287128108874 $190 $327 forward 7 unknown #
vertex $-1 $271 $328 #
straight-curve $-1 -55.248268074587237 -34.407630607552704 0 0 0 -1 I I #
edge $-1 $269 -34.407630607552704 $273 34.407630607552704 $267 $329 forward 7 unknown #
straight-curve $-1 0 -34.407630607552704 -11.03287128108874 -1 0 0 I I #
vertex $-1 $183 $330 #
straight-curve $-1 0 34.407630607552704 -11.03287128108874 1 0 0 I I #
point $-1 55.248268074587237 34.407630607552704 -11.03287128108874 #
point $-1 55.248268074587237 -34.407630607552704 -11.03287128108874 #
straight-curve $-1 -55.248268074587237 0 11.03287128108874 0 -1 0 I I #
point $-1 -55.248268074587237 34.407630607552704 11.03287128108874 #
point $-1 -55.248268074587237 -34.407630607552704 11.03287128108874 #
straight-curve $-1 55.248268074587237 -34.407630607552704 0 0 0 -1 I I #
straight-curve $-1 55.248268074587237 34.407630607552704 0 0 0 -1 I I #
plane-surface $-1 0 -34.407630607552704 0 0 1 0 0 0 1 forward_v I I I I #
coedge $-1 $331 $203 $213 $294 reversed $120 $-1 #
coedge $-1 $203 $331 $216 $296 forward $120 $-1 #
coedge $-1 $332 $206 $204 $286 forward $201 $-1 #
edge $-1 $287 43.877828037385079 $333 55.248268074587237 $204 $334 forward 7 unknown #
vertex $-1 $286 $335 #
straight-curve $-1 -43.877828037385079 34.407630607552704 4.1129239060393408 0 0 -1 I I #
coedge $-1 $206 $332 $208 $291 forward $201 $-1 #
straight-curve $-1 -43.877828037385079 0 11.03287128108874 0 1 0 I I #
edge $-1 $336 -55.248268074587237 $210 -43.877828037385079 $208 $337 forward 7 unknown #
point $-1 -43.877828037385079 -34.407630607552704 11.032871281088738 #
straight-curve $-1 -55.248268074587237 0 5.4188243430686249 0 -1 0 I I #
edge $-1 $336 -11.03287128108874 $214 -5.4188243430686249 $283 $338 forward 7 unknown #
point $-1 -55.248268074587237 -34.407630607552704 5.4188243430686249 #
edge $-1 $333 -11.03287128108874 $217 -5.4188243430686249 $216 $339 forward 7 unknown #
point $-1 -55.248268074587237 34.407630607552704 5.4188243430686249 #
plane-surface $-1 55.248268074587237 0 0 -1 0 0 0 0 1 forward_v I I I I #
coedge $-1 $224 $234 $225 $302 reversed $136 $-1 #
edge $-1 $304 -6.9199473750493974 $235 -1.3059004370292842 $224 $340 forward 7 unknown #
coedge $-1 $226 $225 $239 $310 forward $78 $-1 #
edge $-1 $304 43.877828037385086 $313 55.248268074587237 $299 $341 forward 7 unknown #
edge $-1 $311 -55.248268074587237 $232 -43.877828037385086 $230 $342 forward 7 unknown #
vertex $-1 $302 $343 #
straight-curve $-1 43.877828037385086 0 11.03287128108874 0 -1 0 I I #
straight-curve $-1 43.877828037385086 0 5.4188243430686249 0 1 0 I I #
point $-1 43.877828037385086 34.407630607552704 5.4188243430686249 #
point $-1 43.877828037385086 34.407630607552704 11.032871281088738 #
point $-1 43.877828037385086 -34.407630607552704 5.4188243430686249 #
edge $-1 $313 -34.407630607552704 $311 34.407630607552704 $239 $344 forward 7 unknown #
vertex $-1 $310 $345 #
straight-curve $-1 55.248268074587237 34.407630607552704 0 0 0 -1 I I #
vertex $-1 $310 $346 #
straight-curve $-1 55.248268074587237 -34.407630607552704 0 0 0 -1 I I #
coedge $-1 $255 $254 $247 $316 forward $244 $-1 #
edge $-1 $317 21.338243594541481 $320 31.007093274385731 $315 $347 forward 7 unknown #
vertex $-1 $259 $348 #
straight-curve $-1 16.818626727973275 -62.460547489880646 11.032871281088738 0 -1 0 I I #
edge $-1 $320 5.4257630005509903 $256 17.359964454293578 $255 $349 forward 7 unknown #
vertex $-1 $319 $350 #
straight-curve $-1 16.818626727973275 -34.407630607552719 1.3640216012444668 0 0.57357642473473569 0.81915205242281985 I I #
point $-1 16.818626727973275 -27.637429380247369 11.03287128108874 #
point $-1 28.752828181715863 -34.407630607552704 1.364021601244487 #
straight-curve $-1 0 -34.407630607552704 11.03287128108874 1 0 0 I I #
vertex $-1 $262 $351 #
point $-1 24.285727454844569 -26.827260019432984 3.2608868688813191 #
straight-curve $-1 -55.248268074587237 34.407630607552704 0 0 0 -1 I I #
point $-1 -55.248268074587237 -34.407630607552704 -11.03287128108874 #
straight-curve $-1 -55.248268074587237 0 -11.03287128108874 0 1 0 I I #
point $-1 -55.248268074587237 34.407630607552704 -11.03287128108874 #
coedge $-1 $284 $283 $332 $352 reversed $120 $-1 #
coedge $-1 $289 $285 $331 $352 forward $201 $-1 #
vertex $-1 $286 $353 #
straight-curve $-1 0 34.407630607552704 11.03287128108874 -1 0 0 I I #
point $-1 -43.877828037385079 34.407630607552704 11.032871281088738 #
vertex $-1 $352 $354 #
straight-curve $-1 0 -34.407630607552704 11.03287128108874 1 0 0 I I #
straight-curve $-1 -55.248268074587237 -34.407630607552704 0 0 0 -1 I I #
straight-curve $-1 -55.248268074587237 34.407630607552704 0 0 0 -1 I I #
straight-curve $-1 43.877828037385086 -34.407630607552704 4.1129239060393408 0 0 -1 I I #
straight-curve $-1 0 -34.407630607552704 11.03287128108874 1 0 0 I I #
straight-curve $-1 0 34.407630607552704 11.03287128108874 -1 0 0 I I #
point $-1 43.877828037385086 -34.407630607552704 11.032871281088738 #
straight-curve $-1 55.248268074587237 0 11.03287128108874 0 1 0 I I #
point $-1 55.248268074587237 34.407630607552704 11.03287128108874 #
point $-1 55.248268074587237 -34.407630607552704 11.03287128108874 #
straight-curve $-1 16.818626727973275 -34.407630607552704 32.371114875630219 0 0 -1 I I #
point $-1 16.818626727973275 -34.407630607552704 11.03287128108874 #
straight-curve $-1 11.392863727422284 -34.407630607552704 1.3640216012444863 1 0 0 I I #
point $-1 16.818626727973275 -34.407630607552704 1.364021601244487 #
point $-1 22.785727454844569 -25.598531940798757 2.4005222317792159 #
edge $-1 $333 -34.407630607552704 $336 34.407630607552704 $331 $355 forward 7 unknown #
point $-1 -55.248268074587237 34.407630607552704 11.03287128108874 #
point $-1 -55.248268074587237 -34.407630607552704 11.03287128108874 #
straight-curve $-1 -55.248268074587237 0 11.03287128108874 0 -1 0 I I #
End-of-ACIS-data 