500 0 6 0           
7 Unknown 11 ACIS 5.0 NT 24 Fri Mar 26 15:32:15 1999 
-1 9.9999999999999995e-007 1e-010 
body $-1 $6 $-1 $7 #
body $-1 $8 $-1 $9 #
body $-1 $10 $-1 $11 #
body $-1 $12 $-1 $13 #
body $-1 $14 $-1 $15 #
body $-1 $16 $-1 $17 #
lump $-1 $-1 $18 $0 #
transform $-1 1 0 0 0 1 0 0 0 1 73.439741203039645 35.554409453853552 11.443882265296098 1 rotate no_reflect no_shear #
lump $-1 $-1 $19 $1 #
transform $-1 1 0 0 0 1 0 0 0 1 73.439741203039645 35.554409453853552 11.443882265296098 1 rotate no_reflect no_shear #
lump $-1 $-1 $20 $2 #
transform $-1 1 0 0 0 1 0 0 0 1 73.439741203039645 35.554409453853552 11.443882265296098 1 rotate no_reflect no_shear #
lump $-1 $-1 $21 $3 #
transform $-1 1 0 0 0 1 0 0 0 1 73.439741203039645 35.554409453853552 11.443882265296098 1 rotate no_reflect no_shear #
lump $-1 $-1 $22 $4 #
transform $-1 1 0 0 0 1 0 0 0 1 73.439741203039645 35.554409453853552 11.443882265296098 1 rotate no_reflect no_shear #
lump $-1 $-1 $23 $5 #
transform $-1 1 0 0 0 1 0 0 0 1 73.439741203039645 35.554409453853552 11.443882265296098 1 rotate no_reflect no_shear #
shell $-1 $-1 $-1 $24 $-1 $6 #
shell $-1 $-1 $-1 $25 $-1 $8 #
shell $-1 $-1 $-1 $26 $-1 $10 #
shell $-1 $-1 $-1 $27 $-1 $12 #
shell $-1 $-1 $-1 $28 $-1 $14 #
shell $-1 $-1 $-1 $29 $-1 $16 #
face $-1 $30 $31 $18 $-1 $32 forward single #
face $-1 $33 $34 $19 $-1 $35 forward single #
face $-1 $36 $37 $20 $-1 $38 forward single #
face $-1 $39 $40 $21 $-1 $41 reversed single #
face $-1 $42 $43 $22 $-1 $44 forward single #
face $-1 $45 $46 $23 $-1 $47 forward single #
face $-1 $48 $49 $18 $-1 $50 reversed single #
loop $-1 $-1 $51 $24 #
plane-surface $-1 0 0 11.443882265296098 0 0 1 1 0 0 forward_v I I I I #
face $-1 $52 $53 $19 $-1 $54 reversed single #
loop $-1 $-1 $55 $25 #
plane-surface $-1 -73.439741203039645 0 0 1 0 0 0 0 -1 forward_v I I I I #
face $-1 $56 $57 $20 $-1 $58 reversed single #
loop $-1 $-1 $59 $26 #
plane-surface $-1 73.439741203039645 0 0 -1 0 0 0 0 1 forward_v I I I I #
face $-1 $60 $61 $21 $-1 $62 reversed single #
loop $-1 $-1 $63 $27 #
plane-surface $-1 30.433325470992742 -154.38240804739576 92.550476628075018 -1 0 0 0 -0.80901700255871778 0.5877852410284794 forward_v I I I I #
face $-1 $64 $65 $22 $-1 $66 forward single #
loop $-1 $67 $68 $28 #
cone-surface $-1 8.1005892964949737 -32.25613798582301 7.8136210111355204 0 0.80901700255871778 -0.5877852410284794 1 0 0 1 I I 0 1 1 forward I I I I #
face $-1 $69 $70 $23 $-1 $71 forward single #
loop $-1 $72 $73 $29 #
cone-surface $-1 21.500231001193626 -32.25613798582301 7.8136210111355204 0 0.80901700255871778 -0.5877852410284794 1 0 0 1 I I 0 1 1 forward I I I I #
face $-1 $74 $75 $18 $-1 $76 reversed single #
loop $-1 $-1 $77 $30 #
plane-surface $-1 0 0 -11.443882265296098 0 0 1 1 0 0 forward_v I I I I #
coedge $-1 $78 $79 $80 $81 forward $31 $-1 #
face $-1 $82 $83 $19 $-1 $84 forward single #
loop $-1 $-1 $85 $33 #
plane-surface $-1 0 35.554409453853552 0 0 -1 0 0 0 -1 forward_v I I I I #
coedge $-1 $86 $87 $88 $89 forward $34 $-1 #
face $-1 $90 $91 $20 $-1 $92 forward single #
loop $-1 $-1 $93 $36 #
plane-surface $-1 0 35.554409453853552 0 0 -1 0 0 0 -1 forward_v I I I I #
coedge $-1 $94 $95 $96 $97 forward $37 $-1 #
face $-1 $98 $99 $21 $-1 $100 reversed single #
loop $-1 $-1 $101 $39 #
plane-surface $-1 14.800410148844307 -35.554409453853566 6.2168846598793976 0 -0.80901700255871778 0.5877852410284794 1 0 0 forward_v I I I I #
coedge $-1 $102 $103 $104 $105 reversed $40 $-1 #
face $-1 $-1 $106 $22 $-1 $107 forward single #
loop $-1 $108 $109 $42 #
cone-surface $-1 8.1005892964949737 -30.452175987976048 6.5029659391690497 0 0.80901700255871778 -0.5877852410284794 0.5 0 0 1 I I -0.70710678118654746 0.70710678118654746 0.5 forward I I I I #
loop $-1 $-1 $110 $28 #
coedge $-1 $68 $68 $111 $112 reversed $43 $-1 #
face $-1 $-1 $113 $23 $-1 $114 forward single #
loop $-1 $115 $116 $45 #
cone-surface $-1 21.500231001193626 -30.452175987976048 6.5029659391690497 0 0.80901700255871778 -0.5877852410284794 0.5 0 0 1 I I -0.70710678118654746 0.70710678118654746 0.5 forward I I I I #
loop $-1 $-1 $117 $29 #
coedge $-1 $73 $73 $118 $119 reversed $46 $-1 #
face $-1 $120 $121 $18 $-1 $122 reversed single #
loop $-1 $-1 $123 $48 #
plane-surface $-1 0 -35.554409453853552 0 0 1 0 0 0 1 forward_v I I I I #
coedge $-1 $124 $125 $126 $127 forward $49 $-1 #
coedge $-1 $128 $51 $129 $130 forward $31 $-1 #
coedge $-1 $51 $128 $131 $132 forward $31 $-1 #
coedge $-1 $133 $134 $51 $81 reversed $135 $-1 #
edge $-1 $136 -35.554409453853552 $137 35.554409453853552 $80 $138 forward 7 unknown #
face $-1 $139 $140 $19 $-1 $141 reversed single #
loop $-1 $-1 $88 $52 #
plane-surface $-1 -79.168255225004174 0 -8.1922927799492644 0 0 1 1 0 0 forward_v I I I I #
coedge $-1 $142 $143 $87 $144 forward $53 $-1 #
coedge $-1 $145 $55 $146 $147 reversed $34 $-1 #
coedge $-1 $55 $145 $85 $144 reversed $34 $-1 #
coedge $-1 $148 $149 $55 $89 reversed $83 $-1 #
edge $-1 $150 -35.554409453853552 $151 35.554409453853552 $88 $152 forward 7 unknown #
face $-1 $153 $154 $20 $-1 $155 reversed single #
loop $-1 $-1 $156 $56 #
plane-surface $-1 79.16825522500416 0 -8.1922927799492644 0 0 1 1 0 0 forward_v I I I I #
coedge $-1 $157 $158 $94 $159 forward $57 $-1 #
coedge $-1 $160 $59 $93 $159 reversed $37 $-1 #
coedge $-1 $59 $160 $161 $162 reversed $37 $-1 #
coedge $-1 $163 $164 $59 $97 reversed $91 $-1 #
edge $-1 $165 -35.554409453853552 $166 35.554409453853552 $96 $167 forward 7 unknown #
face $-1 $168 $169 $21 $-1 $170 forward single #
loop $-1 $-1 $171 $60 #
plane-surface $-1 -0.83250517330412777 -154.38240804739576 92.550476628075018 1 0 0 0 0.80901700255871778 -0.5877852410284794 forward_v I I I I #
coedge $-1 $172 $173 $174 $175 reversed $61 $-1 #
coedge $-1 $103 $63 $176 $177 reversed $40 $-1 #
coedge $-1 $63 $102 $172 $178 reversed $40 $-1 #
coedge $-1 $174 $179 $63 $105 forward $169 $-1 #
edge $-1 $180 41.636794569844326 $181 45.434430512770184 $104 $182 forward 7 unknown #
loop $-1 $-1 $111 $64 #
plane-surface $-1 14.800410148844307 -35.554409453853566 6.2168846598793976 0 -0.80901700255871778 0.5877852410284794 1 0 0 forward_v I I I I #
loop $-1 $-1 $183 $42 #
coedge $-1 $109 $109 $110 $184 reversed $65 $-1 #
coedge $-1 $110 $110 $109 $184 forward $67 $-1 #
coedge $-1 $111 $111 $68 $112 forward $106 $-1 #
edge $-1 $185 -5.748411542745073e-015 $185 6.2831853071795951 $111 $186 forward 7 unknown #
loop $-1 $-1 $118 $69 #
plane-surface $-1 14.800410148844307 -35.554409453853566 6.2168846598793976 0 -0.80901700255871778 0.5877852410284794 1 0 0 forward_v I I I I #
loop $-1 $-1 $187 $45 #
coedge $-1 $116 $116 $117 $188 reversed $70 $-1 #
coedge $-1 $117 $117 $116 $188 forward $72 $-1 #
coedge $-1 $118 $118 $73 $119 forward $113 $-1 #
edge $-1 $189 -5.748411542745073e-015 $189 6.2831853071795951 $118 $190 forward 7 unknown #
face $-1 $191 $192 $18 $-1 $193 reversed single #
loop $-1 $-1 $194 $74 #
plane-surface $-1 -73.439741203039645 0 0 1 0 0 0 0 -1 forward_v I I I I #
coedge $-1 $195 $131 $194 $196 forward $75 $-1 #
coedge $-1 $197 $77 $195 $198 forward $49 $-1 #
coedge $-1 $77 $197 $199 $200 forward $49 $-1 #
coedge $-1 $134 $133 $77 $127 reversed $135 $-1 #
edge $-1 $201 -35.554409453853552 $202 35.554409453853552 $126 $203 forward 7 unknown #
coedge $-1 $79 $78 $204 $205 forward $31 $-1 #
coedge $-1 $206 $207 $78 $130 reversed $192 $-1 #
edge $-1 $137 -73.439741203039645 $208 73.439741203039645 $129 $209 forward 7 unknown #
coedge $-1 $123 $210 $79 $132 reversed $75 $-1 #
edge $-1 $211 -73.439741203039645 $136 73.439741203039645 $131 $212 forward 7 unknown #
coedge $-1 $126 $80 $210 $213 forward $135 $-1 #
coedge $-1 $80 $126 $206 $214 reversed $135 $-1 #
loop $-1 $-1 $134 $191 #
vertex $-1 $81 $215 #
vertex $-1 $81 $216 #
straight-curve $-1 73.439741203039645 0 11.443882265296098 0 1 0 I I #
face $-1 $217 $218 $19 $-1 $219 reversed single #
loop $-1 $-1 $220 $82 #
plane-surface $-1 -84.896769246968702 0 -9.8180875226226814 1 0 0 0 0 -1 forward_v I I I I #
coedge $-1 $221 $85 $222 $223 reversed $53 $-1 #
coedge $-1 $85 $221 $148 $224 reversed $53 $-1 #
edge $-1 $150 8.1922927799492644 $225 11.443882265296098 $85 $226 forward 7 unknown #
coedge $-1 $87 $86 $227 $228 reversed $34 $-1 #
coedge $-1 $229 $230 $86 $147 forward $231 $-1 #
edge $-1 $232 -11.443882265296098 $151 -8.1922927799492644 $146 $233 forward 7 unknown #
coedge $-1 $234 $88 $143 $224 forward $83 $-1 #
coedge $-1 $88 $234 $229 $235 forward $83 $-1 #
vertex $-1 $144 $236 #
vertex $-1 $235 $237 #
straight-curve $-1 -73.439741203039645 0 -8.1922927799492644 0 -1 0 I I #
face $-1 $238 $239 $20 $-1 $240 reversed single #
loop $-1 $-1 $241 $90 #
plane-surface $-1 84.896769246968688 0 -9.8180875226226814 -1 0 0 0 0 1 forward_v I I I I #
coedge $-1 $164 $163 $242 $243 forward $91 $-1 #
coedge $-1 $244 $93 $164 $245 reversed $57 $-1 #
coedge $-1 $93 $244 $246 $247 reversed $57 $-1 #
edge $-1 $248 -11.443882265296098 $166 -8.1922927799492644 $93 $249 forward 7 unknown #
coedge $-1 $95 $94 $250 $251 reversed $37 $-1 #
coedge $-1 $252 $253 $95 $162 forward $254 $-1 #
edge $-1 $165 8.1922927799492644 $255 11.443882265296098 $161 $256 forward 7 unknown #
coedge $-1 $156 $96 $253 $257 forward $91 $-1 #
coedge $-1 $96 $156 $157 $245 forward $91 $-1 #
vertex $-1 $162 $258 #
vertex $-1 $245 $259 #
straight-curve $-1 73.439741203039645 0 -8.1922927799492644 0 1 0 I I #
face $-1 $-1 $260 $21 $-1 $261 reversed single #
loop $-1 $-1 $104 $98 #
plane-surface $-1 0 0 11.443882265296098 0 0 1 1 0 0 forward_v I I I I #
coedge $-1 $262 $263 $264 $265 reversed $99 $-1 #
coedge $-1 $266 $101 $103 $178 forward $61 $-1 #
coedge $-1 $101 $266 $262 $267 forward $61 $-1 #
coedge $-1 $264 $104 $101 $175 forward $169 $-1 #
edge $-1 $181 -23.033120396570588 $268 8.2327102477262812 $174 $269 forward 7 unknown #
coedge $-1 $270 $271 $102 $177 forward $260 $-1 #
edge $-1 $272 -40.05835365415809 $180 -34.831356048741412 $176 $273 forward 7 unknown #
edge $-1 $181 -6.4609242931669151 $272 -2.4161062406544664e-014 $103 $274 forward 7 unknown #
coedge $-1 $104 $264 $270 $275 forward $169 $-1 #
vertex $-1 $177 $276 #
vertex $-1 $105 $277 #
straight-curve $-1 30.433325470992742 -77.191204023697878 11.443882265296097 0 1 0 I I #
coedge $-1 $183 $183 $-1 $278 reversed $108 $-1 #
edge $-1 $279 0 $279 6.2831853071796004 $109 $280 forward 7 unknown #
vertex $-1 $112 $281 #
ellipse-curve $-1 8.1005892964949737 -33.655591482390619 8.8303834625877577 0 -0.80901700255871778 0.5877852410284794 1 0 0 1 I I #
coedge $-1 $187 $187 $-1 $282 reversed $115 $-1 #
edge $-1 $283 0 $283 6.2831853071796004 $116 $284 forward 7 unknown #
vertex $-1 $119 $285 #
ellipse-curve $-1 21.500231001193626 -33.655591482390619 8.8303834625877577 0 -0.80901700255871778 0.5877852410284794 1 0 0 1 I I #
face $-1 $-1 $135 $18 $-1 $286 reversed single #
loop $-1 $-1 $206 $120 #
plane-surface $-1 0 35.554409453853552 0 0 -1 0 0 0 -1 forward_v I I I I #
coedge $-1 $204 $287 $123 $196 reversed $121 $-1 #
coedge $-1 $210 $123 $124 $198 reversed $75 $-1 #
edge $-1 $211 -11.443882265296098 $288 11.443882265296098 $194 $289 forward 7 unknown #
coedge $-1 $125 $124 $287 $290 forward $49 $-1 #
edge $-1 $202 -73.439741203039645 $288 73.439741203039645 $195 $291 forward 7 unknown #
coedge $-1 $207 $206 $125 $200 reversed $192 $-1 #
edge $-1 $292 -73.439741203039645 $201 73.439741203039645 $199 $293 forward 7 unknown #
vertex $-1 $127 $294 #
vertex $-1 $213 $295 #
straight-curve $-1 73.439741203039645 0 -11.443882265296098 0 -1 0 I I #
coedge $-1 $296 $194 $128 $205 reversed $121 $-1 #
edge $-1 $208 -35.554409453853552 $211 35.554409453853552 $204 $297 forward 7 unknown #
coedge $-1 $199 $129 $134 $214 forward $192 $-1 #
coedge $-1 $129 $199 $296 $298 reversed $192 $-1 #
vertex $-1 $130 $299 #
straight-curve $-1 0 35.554409453853552 11.443882265296098 -1 0 0 I I #
coedge $-1 $131 $195 $133 $213 reversed $75 $-1 #
vertex $-1 $205 $300 #
straight-curve $-1 0 -35.554409453853552 11.443882265296098 1 0 0 I I #
edge $-1 $136 -11.443882265296098 $202 11.443882265296098 $133 $301 forward 7 unknown #
edge $-1 $137 -11.443882265296098 $201 11.443882265296098 $134 $302 forward 7 unknown #
point $-1 73.439741203039645 -35.554409453853552 11.443882265296098 #
point $-1 73.439741203039645 35.554409453853552 11.443882265296098 #
face $-1 $-1 $231 $19 $-1 $303 reversed single #
loop $-1 $-1 $227 $139 #
plane-surface $-1 0 0 -11.443882265296098 0 0 1 1 0 0 forward_v I I I I #
coedge $-1 $304 $305 $221 $306 forward $140 $-1 #
coedge $-1 $143 $142 $220 $306 reversed $53 $-1 #
coedge $-1 $227 $307 $142 $223 forward $218 $-1 #
edge $-1 $308 -84.896769246968702 $225 -73.439741203039645 $142 $309 forward 7 unknown #
edge $-1 $150 -5.7285140219645285 $310 5.7285140219645285 $143 $311 forward 7 unknown #
vertex $-1 $144 $312 #
straight-curve $-1 -73.439741203039645 35.554409453853552 0 0 0 -1 I I #
coedge $-1 $313 $222 $145 $228 forward $218 $-1 #
edge $-1 $225 -35.554409453853552 $232 35.554409453853552 $227 $314 forward 7 unknown #
coedge $-1 $315 $146 $149 $235 reversed $231 $-1 #
coedge $-1 $146 $315 $313 $316 reversed $231 $-1 #
loop $-1 $-1 $146 $217 #
vertex $-1 $316 $317 #
straight-curve $-1 -73.439741203039645 -35.554409453853552 0 0 0 1 I I #
coedge $-1 $149 $148 $305 $318 forward $83 $-1 #
edge $-1 $319 -5.7285140219645285 $151 5.7285140219645285 $229 $320 forward 7 unknown #
point $-1 -73.439741203039645 35.554409453853552 -8.1922927799492644 #
point $-1 -73.439741203039645 -35.554409453853552 -8.1922927799492644 #
face $-1 $-1 $254 $20 $-1 $321 reversed single #
loop $-1 $-1 $250 $153 #
plane-surface $-1 0 0 -11.443882265296098 0 0 1 1 0 0 forward_v I I I I #
coedge $-1 $322 $242 $323 $324 forward $154 $-1 #
coedge $-1 $241 $325 $156 $243 reversed $154 $-1 #
edge $-1 $326 -35.554409453853552 $327 35.554409453853552 $242 $328 forward 7 unknown #
coedge $-1 $158 $157 $325 $329 forward $57 $-1 #
edge $-1 $327 -5.7285140219645285 $166 5.7285140219645285 $157 $330 forward 7 unknown #
coedge $-1 $331 $250 $158 $247 forward $239 $-1 #
edge $-1 $248 -5.7285140219645143 $332 5.7285140219645285 $158 $333 forward 7 unknown #
vertex $-1 $247 $334 #
straight-curve $-1 73.439741203039645 35.554409453853552 0 0 0 1 I I #
coedge $-1 $246 $335 $160 $251 forward $239 $-1 #
edge $-1 $255 -35.554409453853552 $248 35.554409453853552 $250 $336 forward 7 unknown #
coedge $-1 $323 $161 $335 $337 reversed $254 $-1 #
coedge $-1 $161 $323 $163 $257 reversed $254 $-1 #
loop $-1 $-1 $161 $238 #
vertex $-1 $162 $338 #
straight-curve $-1 73.439741203039645 -35.554409453853552 0 0 0 -1 I I #
edge $-1 $165 -5.7285140219645285 $326 5.7285140219645285 $253 $339 forward 7 unknown #
point $-1 73.439741203039631 -35.554409453853552 -8.1922927799492644 #
point $-1 73.439741203039631 35.554409453853552 -8.1922927799492644 #
loop $-1 $-1 $176 $168 #
plane-surface $-1 0 -35.554409453853552 0 0 1 0 0 0 1 forward_v I I I I #
coedge $-1 $263 $171 $173 $267 reversed $99 $-1 #
coedge $-1 $171 $262 $340 $341 reversed $99 $-1 #
coedge $-1 $179 $174 $171 $265 forward $169 $-1 #
edge $-1 $268 -45.434430512770184 $342 -41.636794569844326 $264 $343 forward 7 unknown #
coedge $-1 $173 $172 $271 $344 reversed $61 $-1 #
edge $-1 $345 2.4161062406544664e-014 $268 6.4609242931669151 $262 $346 forward 7 unknown #
vertex $-1 $175 $347 #
straight-curve $-1 7.4002050744221535 -31.756773510927694 11.443882265296098 -1 0 0 I I #
coedge $-1 $340 $176 $179 $275 reversed $260 $-1 #
coedge $-1 $176 $340 $266 $344 forward $260 $-1 #
vertex $-1 $177 $348 #
straight-curve $-1 30.433325470992742 -35.554409453853552 46.275238314037509 0 0 1 I I #
straight-curve $-1 30.433325470992742 -35.554409453853566 6.2168846598793976 0 -0.5877852410284794 -0.80901700255871778 I I #
edge $-1 $342 -0.83250517330412777 $180 30.433325470992742 $270 $349 forward 7 unknown #
point $-1 30.433325470992742 -35.554409453853552 11.443882265296098 #
point $-1 30.433325470992742 -31.756773510927694 11.443882265296098 #
edge $-1 $350 1 $350 0 $183 $-1 forward 7 unknown #
vertex $-1 $184 $351 #
ellipse-curve $-1 8.1005892964949737 -30.856684489255407 6.7968585596832893 0 -0.80901700255871778 0.5877852410284794 1 0 0 1 I I #
point $-1 9.1005892964949737 -33.655591482390619 8.8303834625877506 #
edge $-1 $352 1 $352 0 $187 $-1 forward 7 unknown #
vertex $-1 $188 $353 #
ellipse-curve $-1 21.500231001193626 -30.856684489255407 6.7968585596832893 0 -0.80901700255871778 0.5877852410284794 1 0 0 1 I I #
point $-1 22.500231001193626 -33.655591482390619 8.8303834625877506 #
plane-surface $-1 73.439741203039645 0 0 -1 0 0 0 0 1 forward_v I I I I #
coedge $-1 $194 $296 $197 $290 reversed $121 $-1 #
vertex $-1 $290 $354 #
straight-curve $-1 -73.439741203039645 -35.554409453853552 0 0 0 -1 I I #
edge $-1 $288 -35.554409453853552 $292 35.554409453853552 $287 $355 forward 7 unknown #
straight-curve $-1 0 -35.554409453853552 -11.443882265296098 -1 0 0 I I #
vertex $-1 $200 $356 #
straight-curve $-1 0 35.554409453853552 -11.443882265296098 1 0 0 I I #
point $-1 73.439741203039645 35.554409453853552 -11.443882265296098 #
point $-1 73.439741203039645 -35.554409453853552 -11.443882265296098 #
coedge $-1 $287 $204 $207 $298 forward $121 $-1 #
straight-curve $-1 -73.439741203039645 0 11.443882265296098 0 -1 0 I I #
edge $-1 $208 -11.443882265296098 $292 11.443882265296098 $207 $357 forward 7 unknown #
point $-1 -73.439741203039645 35.554409453853552 11.443882265296098 #
point $-1 -73.439741203039645 -35.554409453853552 11.443882265296098 #
straight-curve $-1 73.439741203039645 -35.554409453853552 0 0 0 -1 I I #
straight-curve $-1 73.439741203039645 35.554409453853552 0 0 0 -1 I I #
plane-surface $-1 0 -35.554409453853552 0 0 1 0 0 0 1 forward_v I I I I #
coedge $-1 $358 $220 $307 $359 reversed $140 $-1 #
coedge $-1 $220 $358 $234 $318 reversed $140 $-1 #
edge $-1 $310 -1.6257947426734169 $308 1.6257947426734169 $221 $360 forward 7 unknown #
coedge $-1 $222 $313 $304 $359 forward $218 $-1 #
vertex $-1 $223 $361 #
straight-curve $-1 0 35.554409453853552 -11.443882265296098 1 0 0 I I #
vertex $-1 $224 $362 #
straight-curve $-1 -79.168255225004174 35.554409453853552 -8.1922927799492644 -1 0 0 I I #
point $-1 -73.439741203039645 35.554409453853552 -11.443882265296098 #
coedge $-1 $307 $227 $230 $316 forward $218 $-1 #
straight-curve $-1 -73.439741203039645 0 -11.443882265296098 0 -1 0 I I #
coedge $-1 $230 $229 $358 $363 forward $231 $-1 #
edge $-1 $232 -5.7285140219645285 $364 5.7285140219645285 $230 $365 forward 7 unknown #
point $-1 -73.439741203039645 -35.554409453853552 -11.443882265296098 #
edge $-1 $310 -35.554409453853552 $319 35.554409453853552 $305 $366 forward 7 unknown #
vertex $-1 $318 $367 #
straight-curve $-1 -79.168255225004174 -35.554409453853552 -8.1922927799492644 1 0 0 I I #
plane-surface $-1 0 -35.554409453853552 0 0 1 0 0 0 1 forward_v I I I I #
coedge $-1 $325 $241 $331 $368 reversed $154 $-1 #
coedge $-1 $253 $252 $241 $324 reversed $254 $-1 #
edge $-1 $326 -1.6257947426734169 $369 1.6257947426734169 $241 $370 forward 7 unknown #
coedge $-1 $242 $322 $244 $329 reversed $154 $-1 #
vertex $-1 $243 $371 #
vertex $-1 $243 $372 #
straight-curve $-1 84.896769246968688 0 -8.1922927799492644 0 1 0 I I #
edge $-1 $327 -1.6257947426734169 $332 1.6257947426734169 $325 $373 forward 7 unknown #
straight-curve $-1 79.16825522500416 35.554409453853552 -8.1922927799492644 -1 0 0 I I #
coedge $-1 $335 $246 $322 $368 forward $239 $-1 #
vertex $-1 $368 $374 #
straight-curve $-1 79.16825522500416 35.554409453853552 -11.443882265296098 1 0 0 I I #
point $-1 73.439741203039645 35.554409453853552 -11.443882265296098 #
coedge $-1 $250 $331 $252 $337 forward $239 $-1 #
straight-curve $-1 73.439741203039645 0 -11.443882265296098 0 1 0 I I #
edge $-1 $369 -5.7285140219645285 $255 5.7285140219645143 $252 $375 forward 7 unknown #
point $-1 73.439741203039645 -35.554409453853552 -11.443882265296098 #
straight-curve $-1 79.16825522500416 -35.554409453853552 -8.1922927799492644 1 0 0 I I #
coedge $-1 $271 $270 $263 $341 forward $260 $-1 #
edge $-1 $342 34.831356048741412 $345 40.05835365415809 $340 $376 forward 7 unknown #
vertex $-1 $275 $377 #
straight-curve $-1 -0.83250517330412777 -77.191204023697878 11.443882265296097 0 -1 0 I I #
edge $-1 $345 -8.2327102477262812 $272 23.033120396570588 $271 $378 forward 7 unknown #
vertex $-1 $344 $379 #
straight-curve $-1 -0.83250517330412777 -35.554409453853566 6.2168846598793976 0 0.5877852410284794 0.80901700255871778 I I #
point $-1 -0.83250517330412777 -31.756773510927694 11.443882265296098 #
point $-1 30.433325470992742 -35.554409453853552 6.2168846598794172 #
straight-curve $-1 0 -35.554409453853552 11.443882265296098 1 0 0 I I #
vertex $-1 $278 $380 #
point $-1 9.1005892964949737 -30.856684489255407 6.7968585596832893 #
vertex $-1 $282 $381 #
point $-1 22.500231001193626 -30.856684489255407 6.7968585596832893 #
point $-1 -73.439741203039645 -35.554409453853552 -11.443882265296098 #
straight-curve $-1 -73.439741203039645 0 -11.443882265296098 0 1 0 I I #
point $-1 -73.439741203039645 35.554409453853552 -11.443882265296098 #
straight-curve $-1 -73.439741203039645 35.554409453853552 0 0 0 -1 I I #
coedge $-1 $305 $304 $315 $363 reversed $140 $-1 #
edge $-1 $364 -35.554409453853552 $308 35.554409453853552 $304 $382 forward 7 unknown #
straight-curve $-1 -84.896769246968702 35.554409453853552 -9.8180875226226814 0 0 -1 I I #
point $-1 -84.896769246968702 35.554409453853552 -11.443882265296098 #
point $-1 -84.896769246968702 35.554409453853552 -8.1922927799492644 #
edge $-1 $319 -1.6257947426734169 $364 1.6257947426734169 $358 $383 forward 7 unknown #
vertex $-1 $359 $384 #
straight-curve $-1 -79.168255225004174 -35.554409453853552 -11.443882265296098 -1 0 0 I I #
straight-curve $-1 -84.896769246968702 0 -8.1922927799492644 0 -1 0 I I #
point $-1 -84.896769246968702 -35.554409453853552 -8.1922927799492644 #
edge $-1 $332 -35.554409453853552 $369 35.554409453853552 $322 $385 forward 7 unknown #
vertex $-1 $324 $386 #
straight-curve $-1 84.896769246968688 -35.554409453853552 -9.8180875226226814 0 0 -1 I I #
point $-1 84.896769246968688 -35.554409453853552 -8.1922927799492644 #
point $-1 84.896769246968688 35.554409453853552 -8.1922927799492644 #
straight-curve $-1 84.896769246968688 35.554409453853552 -9.8180875226226814 0 0 -1 I I #
point $-1 84.896769246968688 35.554409453853552 -11.443882265296098 #
straight-curve $-1 79.16825522500416 -35.554409453853552 -11.443882265296098 -1 0 0 I I #
straight-curve $-1 -0.83250517330412777 -35.554409453853552 46.275238314037509 0 0 -1 I I #
point $-1 -0.83250517330412777 -35.554409453853552 11.443882265296098 #
straight-curve $-1 7.4002050744221535 -35.554409453853552 6.2168846598794225 1 0 0 I I #
point $-1 -0.83250517330412777 -35.554409453853552 6.2168846598794172 #
point $-1 8.1005892964949737 -30.047667486696689 6.2090733186548102 #
point $-1 21.500231001193626 -30.047667486696689 6.2090733186548102 #
straight-curve $-1 -84.896769246968702 0 -11.443882265296098 0 1 0 I I #
straight-curve $-1 -84.896769246968702 -35.554409453853552 -9.8180875226226814 0 0 -1 I I #
point $-1 -84.896769246968702 -35.554409453853552 -11.443882265296098 #
straight-curve $-1 84.896769246968688 0 -11.443882265296098 0 -1 0 I I #
point $-1 84.896769246968688 -35.554409453853552 -11.443882265296098 #
End-of-ACIS-data 