500 0 9 0           
7 Unknown 11 ACIS 5.0 NT 24 Thu Mar 25 18:48:10 1999 
-1 9.9999999999999995e-007 1e-010 
body $-1 $9 $-1 $10 #
body $-1 $11 $-1 $12 #
body $-1 $13 $-1 $14 #
body $-1 $15 $-1 $16 #
body $-1 $17 $-1 $18 #
body $-1 $19 $-1 $20 #
body $-1 $21 $-1 $22 #
body $-1 $23 $-1 $24 #
body $-1 $25 $-1 $26 #
lump $-1 $-1 $27 $0 #
transform $-1 1 0 0 0 1 0 0 0 1 70.53559984130375 37.710617349769933 17.180790157965038 1 rotate no_reflect no_shear #
lump $-1 $-1 $28 $1 #
transform $-1 1 0 0 0 1 0 0 0 1 70.53559984130375 37.710617349769933 17.180790157965038 1 rotate no_reflect no_shear #
lump $-1 $-1 $29 $2 #
transform $-1 1 0 0 0 1 0 0 0 1 70.53559984130375 37.710617349769933 17.180790157965038 1 rotate no_reflect no_shear #
lump $-1 $-1 $30 $3 #
transform $-1 1 0 0 0 1 0 0 0 1 70.53559984130375 37.710617349769933 17.180790157965038 1 rotate no_reflect no_shear #
lump $-1 $-1 $31 $4 #
transform $-1 1 0 0 0 1 0 0 0 1 70.53559984130375 37.710617349769933 17.180790157965038 1 rotate no_reflect no_shear #
lump $-1 $-1 $32 $5 #
transform $-1 1 0 0 0 1 0 0 0 1 70.53559984130375 37.710617349769933 17.180790157965038 1 rotate no_reflect no_shear #
lump $-1 $-1 $33 $6 #
transform $-1 1 0 0 0 1 0 0 0 1 70.53559984130375 37.710617349769933 17.180790157965038 1 rotate no_reflect no_shear #
lump $-1 $-1 $34 $7 #
transform $-1 1 0 0 0 1 0 0 0 1 70.53559984130375 37.710617349769933 17.180790157965038 1 rotate no_reflect no_shear #
lump $-1 $-1 $35 $8 #
transform $-1 1 0 0 0 1 0 0 0 1 70.53559984130375 37.710617349769933 17.180790157965038 1 rotate no_reflect no_shear #
shell $-1 $-1 $-1 $36 $-1 $9 #
shell $-1 $-1 $-1 $37 $-1 $11 #
shell $-1 $-1 $-1 $38 $-1 $13 #
shell $-1 $-1 $-1 $39 $-1 $15 #
shell $-1 $-1 $-1 $40 $-1 $17 #
shell $-1 $-1 $-1 $41 $-1 $19 #
shell $-1 $-1 $-1 $42 $-1 $21 #
shell $-1 $-1 $-1 $43 $-1 $23 #
shell $-1 $-1 $-1 $44 $-1 $25 #
face $-1 $45 $46 $27 $-1 $47 forward single #
face $-1 $48 $49 $28 $-1 $50 reversed single #
face $-1 $51 $52 $29 $-1 $53 forward single #
face $-1 $54 $55 $30 $-1 $56 reversed single #
face $-1 $57 $58 $31 $-1 $59 forward single #
face $-1 $60 $61 $32 $-1 $62 forward single #
face $-1 $63 $64 $33 $-1 $65 reversed single #
face $-1 $66 $67 $34 $-1 $68 forward single #
face $-1 $69 $70 $35 $-1 $71 forward single #
face $-1 $72 $73 $27 $-1 $74 reversed single #
loop $-1 $-1 $75 $36 #
plane-surface $-1 0 0 17.180790157965038 0 0 1 1 0 0 forward_v I I I I #
face $-1 $76 $77 $28 $-1 $78 reversed single #
loop $-1 $-1 $79 $37 #
plane-surface $-1 29.95887582275278 -130.26165275756111 115.85644001637566 -1 0 0 0 -0.6560590369687036 0.75470957328743171 forward_v I I I I #
face $-1 $80 $81 $29 $-1 $82 forward single #
loop $-1 $83 $84 $38 #
cone-surface $-1 21.256823075828422 -31.870140469776622 11.721873582812432 0 0.6560590369687036 -0.75470957328743171 2.5 0 0 1 I I 0 1 2.5 forward I I I I #
face $-1 $85 $86 $30 $-1 $87 reversed single #
loop $-1 $-1 $88 $39 #
plane-surface $-1 -38.204071745943253 51.28993102888181 172.27380305725526 1 0 0 0 -0.54463904215088732 -0.83867056331134215 forward_v I I I I #
face $-1 $89 $90 $31 $-1 $91 forward single #
loop $-1 $92 $93 $40 #
cone-surface $-1 -32.911956692605642 33.363732348894075 13.432888055720104 0 -0.54463904215088732 -0.83867056331134215 1.5 0 0 1 I I 0 1 1.5 forward I I I I #
face $-1 $94 $95 $32 $-1 $96 forward single #
loop $-1 $97 $98 $41 #
cone-surface $-1 -24.973784112599212 33.363732348894075 13.432888055720104 0 -0.54463904215088732 -0.83867056331134215 1.5 0 0 1 I I 0 1 1.5 forward I I I I #
face $-1 $99 $100 $33 $-1 $101 reversed single #
loop $-1 $-1 $102 $42 #
plane-surface $-1 19.681669059261605 51.28993102888181 172.27380305725526 1 0 0 0 -0.54463904215088732 -0.83867056331134215 forward_v I I I I #
face $-1 $103 $104 $34 $-1 $105 forward single #
loop $-1 $106 $107 $43 #
cone-surface $-1 24.973784112599219 33.363732348894075 13.432888055720104 0 -0.54463904215088732 -0.83867056331134215 1.5 0 0 1 I I 0 1 1.5 forward I I I I #
face $-1 $108 $109 $35 $-1 $110 forward single #
loop $-1 $111 $112 $44 #
cone-surface $-1 32.911956692605642 33.363732348894075 13.432888055720104 0 -0.54463904215088732 -0.83867056331134215 1.5 0 0 1 I I 0 1 1.5 forward I I I I #
face $-1 $113 $114 $27 $-1 $115 reversed single #
loop $-1 $-1 $116 $45 #
plane-surface $-1 0 0 -17.180790157965038 0 0 1 1 0 0 forward_v I I I I #
coedge $-1 $117 $118 $119 $120 forward $46 $-1 #
face $-1 $121 $122 $28 $-1 $123 reversed single #
loop $-1 $-1 $124 $48 #
plane-surface $-1 21.256823075828422 -37.710617349769961 9.3886551007689008 0 -0.6560590369687036 0.75470957328743171 1 0 0 forward_v I I I I #
coedge $-1 $125 $126 $127 $128 reversed $49 $-1 #
face $-1 $-1 $129 $29 $-1 $130 forward single #
loop $-1 $131 $132 $51 #
cone-surface $-1 21.256823075828422 -29.691502695181541 9.2156375696486172 0 0.6560590369687036 -0.75470957328743171 1.25 0 0 1 I I -0.70710678118654746 0.70710678118654746 1.25 forward I I I I #
loop $-1 $-1 $133 $38 #
coedge $-1 $84 $84 $134 $135 reversed $52 $-1 #
face $-1 $136 $137 $30 $-1 $138 reversed single #
loop $-1 $-1 $139 $54 #
plane-surface $-1 -28.942870402602423 -25.542952041330096 53.961540552436006 0 0.54463904215088732 0.83867056331134215 1 0 0 forward_v I I I I #
coedge $-1 $140 $141 $142 $143 reversed $55 $-1 #
face $-1 $-1 $144 $31 $-1 $145 forward single #
loop $-1 $146 $147 $57 #
cone-surface $-1 -32.911956692605642 31.916458851834165 11.204282346053514 0 -0.54463904215088732 -0.83867056331134215 0.75 0 0 1 I I -0.70710678118654757 0.70710678118654757 0.75 forward I I I I #
loop $-1 $-1 $148 $40 #
coedge $-1 $93 $93 $149 $150 reversed $58 $-1 #
face $-1 $-1 $151 $32 $-1 $152 forward single #
loop $-1 $153 $154 $60 #
cone-surface $-1 -24.973784112599212 31.916458851834165 11.204282346053514 0 -0.54463904215088732 -0.83867056331134215 0.75 0 0 1 I I -0.70710678118654757 0.70710678118654757 0.75 forward I I I I #
loop $-1 $-1 $155 $41 #
coedge $-1 $98 $98 $156 $157 reversed $61 $-1 #
face $-1 $158 $159 $33 $-1 $160 reversed single #
loop $-1 $-1 $161 $63 #
plane-surface $-1 28.942870402602438 -25.542952041330096 53.961540552436006 0 0.54463904215088732 0.83867056331134215 1 0 0 forward_v I I I I #
coedge $-1 $162 $163 $164 $165 reversed $64 $-1 #
face $-1 $-1 $166 $34 $-1 $167 forward single #
loop $-1 $168 $169 $66 #
cone-surface $-1 24.973784112599219 31.916458851834165 11.204282346053514 0 -0.54463904215088732 -0.83867056331134215 0.75 0 0 1 I I -0.70710678118654757 0.70710678118654757 0.75 forward I I I I #
loop $-1 $-1 $170 $43 #
coedge $-1 $107 $107 $171 $172 reversed $67 $-1 #
face $-1 $-1 $173 $35 $-1 $174 forward single #
loop $-1 $175 $176 $69 #
cone-surface $-1 32.911956692605642 31.916458851834165 11.204282346053514 0 -0.54463904215088732 -0.83867056331134215 0.75 0 0 1 I I -0.70710678118654757 0.70710678118654757 0.75 forward I I I I #
loop $-1 $-1 $177 $44 #
coedge $-1 $112 $112 $178 $179 reversed $70 $-1 #
face $-1 $180 $181 $27 $-1 $182 reversed single #
loop $-1 $-1 $183 $72 #
plane-surface $-1 0 -37.710617349769933 0 0 1 0 0 0 1 forward_v I I I I #
coedge $-1 $184 $185 $186 $187 forward $73 $-1 #
coedge $-1 $188 $75 $189 $190 forward $46 $-1 #
coedge $-1 $75 $188 $191 $192 forward $46 $-1 #
coedge $-1 $193 $194 $75 $120 reversed $195 $-1 #
edge $-1 $196 -37.710617349769933 $197 37.710617349769933 $119 $198 forward 7 unknown #
face $-1 $199 $200 $28 $-1 $201 reversed single #
loop $-1 $-1 $202 $76 #
plane-surface $-1 12.554770328904063 -130.26165275756111 115.85644001637566 1 0 0 0 0.6560590369687036 -0.75470957328743171 forward_v I I I I #
coedge $-1 $203 $204 $205 $206 reversed $77 $-1 #
coedge $-1 $126 $79 $207 $208 reversed $49 $-1 #
coedge $-1 $79 $125 $203 $209 reversed $49 $-1 #
coedge $-1 $205 $210 $79 $128 forward $211 $-1 #
edge $-1 $212 27.420209029010621 $213 36.384034832228771 $127 $214 forward 7 unknown #
loop $-1 $-1 $134 $80 #
plane-surface $-1 21.256823075828422 -37.710617349769961 9.3886551007689008 0 -0.6560590369687036 0.75470957328743171 1 0 0 forward_v I I I I #
loop $-1 $-1 $215 $51 #
coedge $-1 $132 $132 $133 $216 reversed $81 $-1 #
coedge $-1 $133 $133 $132 $216 forward $83 $-1 #
coedge $-1 $134 $134 $84 $135 forward $129 $-1 #
edge $-1 $217 1.8921078546600447e-016 $217 6.2831853071796004 $134 $218 forward 7 unknown #
face $-1 $219 $220 $30 $-1 $221 reversed single #
loop $-1 $-1 $222 $85 #
plane-surface $-1 -19.681669059261591 51.28993102888181 172.27380305725526 -1 0 0 0 0.54463904215088732 0.83867056331134215 forward_v I I I I #
coedge $-1 $223 $224 $225 $226 reversed $86 $-1 #
coedge $-1 $141 $88 $227 $228 reversed $55 $-1 #
coedge $-1 $88 $140 $223 $229 reversed $55 $-1 #
coedge $-1 $225 $230 $88 $143 forward $231 $-1 #
edge $-1 $232 -12.065651835329028 $233 -5.4494702644708255 $142 $234 forward 7 unknown #
loop $-1 $-1 $149 $89 #
plane-surface $-1 -28.942870402602423 -25.542952041330096 53.961540552436006 0 0.54463904215088732 0.83867056331134215 1 0 0 forward_v I I I I #
loop $-1 $-1 $235 $57 #
coedge $-1 $147 $147 $148 $236 reversed $90 $-1 #
coedge $-1 $148 $148 $147 $236 forward $92 $-1 #
coedge $-1 $149 $149 $93 $150 forward $144 $-1 #
edge $-1 $237 -2.1406439609146251e-015 $237 6.2831853071795987 $149 $238 forward 7 unknown #
loop $-1 $-1 $156 $94 #
plane-surface $-1 -28.942870402602423 -25.542952041330096 53.961540552436006 0 0.54463904215088732 0.83867056331134215 1 0 0 forward_v I I I I #
loop $-1 $-1 $239 $60 #
coedge $-1 $154 $154 $155 $240 reversed $95 $-1 #
coedge $-1 $155 $155 $154 $240 forward $97 $-1 #
coedge $-1 $156 $156 $98 $157 forward $151 $-1 #
edge $-1 $241 -2.1406439609146251e-015 $241 6.2831853071795987 $156 $242 forward 7 unknown #
face $-1 $243 $244 $33 $-1 $245 forward single #
loop $-1 $-1 $246 $99 #
plane-surface $-1 38.204071745943267 51.28993102888181 172.27380305725526 -1 0 0 0 0.54463904215088732 0.83867056331134215 forward_v I I I I #
coedge $-1 $247 $248 $249 $250 reversed $100 $-1 #
coedge $-1 $163 $102 $251 $252 reversed $64 $-1 #
coedge $-1 $102 $162 $247 $253 reversed $64 $-1 #
coedge $-1 $249 $254 $102 $165 forward $244 $-1 #
edge $-1 $255 -12.065651835329028 $256 -5.4494702644708255 $164 $257 forward 7 unknown #
loop $-1 $-1 $171 $103 #
plane-surface $-1 28.942870402602438 -25.542952041330096 53.961540552436006 0 0.54463904215088732 0.83867056331134215 1 0 0 forward_v I I I I #
loop $-1 $-1 $258 $66 #
coedge $-1 $169 $169 $170 $259 reversed $104 $-1 #
coedge $-1 $170 $170 $169 $259 forward $106 $-1 #
coedge $-1 $171 $171 $107 $172 forward $166 $-1 #
edge $-1 $260 -2.1406439609146251e-015 $260 6.2831853071795987 $171 $261 forward 7 unknown #
loop $-1 $-1 $178 $108 #
plane-surface $-1 28.942870402602438 -25.542952041330096 53.961540552436006 0 0.54463904215088732 0.83867056331134215 1 0 0 forward_v I I I I #
loop $-1 $-1 $262 $69 #
coedge $-1 $176 $176 $177 $263 reversed $109 $-1 #
coedge $-1 $177 $177 $176 $263 forward $111 $-1 #
coedge $-1 $178 $178 $112 $179 forward $173 $-1 #
edge $-1 $264 -2.1406439609146251e-015 $264 6.2831853071795987 $178 $265 forward 7 unknown #
face $-1 $266 $267 $27 $-1 $268 reversed single #
loop $-1 $-1 $269 $113 #
plane-surface $-1 -70.53559984130375 0 0 1 0 0 0 0 -1 forward_v I I I I #
coedge $-1 $270 $191 $271 $272 forward $114 $-1 #
coedge $-1 $273 $116 $270 $274 forward $73 $-1 #
coedge $-1 $116 $273 $275 $276 forward $73 $-1 #
coedge $-1 $194 $193 $116 $187 reversed $195 $-1 #
edge $-1 $277 -37.710617349769933 $278 37.710617349769933 $186 $279 forward 7 unknown #
coedge $-1 $118 $117 $280 $281 forward $46 $-1 #
coedge $-1 $282 $283 $117 $190 reversed $267 $-1 #
edge $-1 $197 -70.53559984130375 $284 70.53559984130375 $189 $285 forward 7 unknown #
coedge $-1 $183 $286 $118 $192 reversed $114 $-1 #
edge $-1 $287 -70.53559984130375 $196 70.53559984130375 $191 $288 forward 7 unknown #
coedge $-1 $186 $119 $286 $289 forward $195 $-1 #
coedge $-1 $119 $186 $282 $290 reversed $195 $-1 #
loop $-1 $-1 $193 $266 #
vertex $-1 $120 $291 #
vertex $-1 $120 $292 #
straight-curve $-1 70.53559984130375 0 17.180790157965038 0 1 0 I I #
face $-1 $-1 $211 $28 $-1 $293 forward single #
loop $-1 $-1 $294 $121 #
plane-surface $-1 0 -37.710617349769933 0 0 1 0 0 0 1 forward_v I I I I #
coedge $-1 $295 $296 $297 $298 reversed $122 $-1 #
coedge $-1 $299 $124 $126 $209 forward $77 $-1 #
coedge $-1 $124 $299 $295 $300 forward $77 $-1 #
coedge $-1 $297 $127 $124 $206 forward $211 $-1 #
edge $-1 $213 -19.33046428483857 $301 -1.9263587909898519 $205 $302 forward 7 unknown #
coedge $-1 $303 $304 $125 $208 forward $200 $-1 #
edge $-1 $305 -48.539564907418907 $212 -40.747429850222787 $207 $306 forward 7 unknown #
edge $-1 $213 -11.877185768523834 $305 -3.776566559949536e-014 $126 $307 forward 7 unknown #
coedge $-1 $127 $297 $303 $308 forward $211 $-1 #
loop $-1 $-1 $297 $199 #
vertex $-1 $208 $309 #
vertex $-1 $128 $310 #
straight-curve $-1 29.95887582275278 -65.130826378780554 17.180790157965035 0 1 0 I I #
coedge $-1 $215 $215 $-1 $311 reversed $131 $-1 #
edge $-1 $312 0 $312 6.2831853071796004 $132 $313 forward 7 unknown #
vertex $-1 $135 $314 #
ellipse-curve $-1 21.256823075828422 -33.228704448160855 13.284722629366986 0 -0.6560590369687036 0.75470957328743171 2.5 0 0 1 I I #
face $-1 $-1 $231 $30 $-1 $315 forward single #
loop $-1 $-1 $316 $136 #
plane-surface $-1 0 37.710617349769933 0 0 -1 0 0 0 -1 forward_v I I I I #
coedge $-1 $317 $318 $319 $320 reversed $137 $-1 #
coedge $-1 $321 $139 $141 $229 forward $86 $-1 #
coedge $-1 $139 $321 $317 $322 forward $86 $-1 #
coedge $-1 $319 $142 $139 $226 forward $231 $-1 #
edge $-1 $233 -23.732636544642041 $323 -5.2102338579603789 $225 $324 forward 7 unknown #
coedge $-1 $325 $326 $140 $228 forward $220 $-1 #
edge $-1 $327 -73.25271000078628 $232 -68.956111370662597 $227 $328 forward 7 unknown #
edge $-1 $233 67.532342612120701 $327 75.421234699539852 $141 $329 forward 7 unknown #
coedge $-1 $142 $319 $325 $330 forward $231 $-1 #
loop $-1 $-1 $319 $219 #
vertex $-1 $228 $331 #
vertex $-1 $143 $332 #
straight-curve $-1 -38.204071745943253 25.644965514440905 17.180790157965035 0 -1 0 I I #
coedge $-1 $235 $235 $-1 $333 reversed $146 $-1 #
edge $-1 $334 0 $334 6.2831853071796004 $147 $335 forward 7 unknown #
vertex $-1 $150 $336 #
ellipse-curve $-1 -32.911956692605642 34.402526564340832 15.032490842903202 0 0.54463904215088732 0.83867056331134215 1.5 0 0 1 I I #
coedge $-1 $239 $239 $-1 $337 reversed $153 $-1 #
edge $-1 $338 0 $338 6.2831853071796004 $154 $339 forward 7 unknown #
vertex $-1 $157 $340 #
ellipse-curve $-1 -24.973784112599212 34.402526564340832 15.032490842903202 0 0.54463904215088732 0.83867056331134215 1.5 0 0 1 I I #
face $-1 $-1 $341 $33 $-1 $342 reversed single #
loop $-1 $-1 $164 $158 #
plane-surface $-1 0 0 17.180790157965038 0 0 1 1 0 0 forward_v I I I I #
coedge $-1 $343 $344 $345 $346 reversed $159 $-1 #
coedge $-1 $347 $161 $163 $253 forward $100 $-1 #
coedge $-1 $161 $347 $343 $348 forward $100 $-1 #
coedge $-1 $345 $164 $161 $250 forward $244 $-1 #
edge $-1 $256 5.210233857960386 $349 23.732636544642048 $249 $350 forward 7 unknown #
coedge $-1 $351 $352 $162 $252 forward $341 $-1 #
edge $-1 $353 -73.25271000078628 $255 -68.956111370662597 $251 $354 forward 7 unknown #
edge $-1 $256 67.532342612120701 $353 75.421234699539852 $163 $355 forward 7 unknown #
coedge $-1 $164 $345 $351 $356 forward $244 $-1 #
vertex $-1 $165 $357 #
vertex $-1 $165 $358 #
straight-curve $-1 19.681669059261605 25.644965514440905 17.180790157965035 0 -1 0 I I #
coedge $-1 $258 $258 $-1 $359 reversed $168 $-1 #
edge $-1 $360 0 $360 6.2831853071796004 $169 $361 forward 7 unknown #
vertex $-1 $172 $362 #
ellipse-curve $-1 24.973784112599219 34.402526564340832 15.032490842903202 0 0.54463904215088732 0.83867056331134215 1.5 0 0 1 I I #
coedge $-1 $262 $262 $-1 $363 reversed $175 $-1 #
edge $-1 $364 0 $364 6.2831853071796004 $176 $365 forward 7 unknown #
vertex $-1 $179 $366 #
ellipse-curve $-1 32.911956692605642 34.402526564340832 15.032490842903202 0 0.54463904215088732 0.83867056331134215 1.5 0 0 1 I I #
face $-1 $-1 $195 $27 $-1 $367 reversed single #
loop $-1 $-1 $282 $180 #
plane-surface $-1 0 37.710617349769933 0 0 -1 0 0 0 -1 forward_v I I I I #
coedge $-1 $368 $280 $283 $369 forward $181 $-1 #
coedge $-1 $286 $183 $184 $274 reversed $114 $-1 #
coedge $-1 $280 $368 $183 $272 reversed $181 $-1 #
edge $-1 $287 -17.180790157965038 $370 17.180790157965038 $271 $371 forward 7 unknown #
coedge $-1 $185 $184 $368 $372 forward $73 $-1 #
edge $-1 $278 -70.53559984130375 $370 70.53559984130375 $270 $373 forward 7 unknown #
coedge $-1 $283 $282 $185 $276 reversed $267 $-1 #
edge $-1 $374 -70.53559984130375 $277 70.53559984130375 $275 $375 forward 7 unknown #
vertex $-1 $187 $376 #
vertex $-1 $289 $377 #
straight-curve $-1 70.53559984130375 0 -17.180790157965038 0 -1 0 I I #
coedge $-1 $269 $271 $188 $281 reversed $181 $-1 #
edge $-1 $284 -37.710617349769933 $287 37.710617349769933 $280 $378 forward 7 unknown #
coedge $-1 $275 $189 $194 $290 forward $267 $-1 #
coedge $-1 $189 $275 $269 $369 reversed $267 $-1 #
vertex $-1 $190 $379 #
straight-curve $-1 0 37.710617349769933 17.180790157965038 -1 0 0 I I #
coedge $-1 $191 $270 $193 $289 reversed $114 $-1 #
vertex $-1 $281 $380 #
straight-curve $-1 0 -37.710617349769933 17.180790157965038 1 0 0 I I #
edge $-1 $196 -17.180790157965038 $278 17.180790157965038 $193 $381 forward 7 unknown #
edge $-1 $197 -17.180790157965038 $277 17.180790157965038 $194 $382 forward 7 unknown #
point $-1 70.53559984130375 -37.710617349769933 17.180790157965038 #
point $-1 70.53559984130375 37.710617349769933 17.180790157965038 #
plane-surface $-1 0 0 17.180790157965038 0 0 1 1 0 0 forward_v I I I I #
coedge $-1 $304 $303 $296 $383 forward $200 $-1 #
coedge $-1 $296 $202 $204 $300 reversed $122 $-1 #
coedge $-1 $202 $295 $294 $383 reversed $122 $-1 #
coedge $-1 $210 $205 $202 $298 forward $211 $-1 #
edge $-1 $301 -36.384034832228771 $384 -27.420209029010621 $297 $385 forward 7 unknown #
coedge $-1 $204 $203 $304 $386 reversed $77 $-1 #
edge $-1 $387 3.776566559949536e-014 $301 11.877185768523834 $295 $388 forward 7 unknown #
vertex $-1 $206 $389 #
straight-curve $-1 10.628411537914211 -28.74679154655178 17.180790157965038 -1 0 0 I I #
coedge $-1 $294 $207 $210 $308 reversed $200 $-1 #
coedge $-1 $207 $294 $299 $386 forward $200 $-1 #
vertex $-1 $208 $390 #
straight-curve $-1 29.95887582275278 -37.710617349769933 57.928220008187829 0 0 1 I I #
straight-curve $-1 29.95887582275278 -37.710617349769961 9.3886551007689008 0 -0.75470957328743171 -0.6560590369687036 I I #
edge $-1 $384 12.554770328904063 $212 29.95887582275278 $303 $391 forward 7 unknown #
point $-1 29.95887582275278 -37.710617349769933 17.180790157965038 #
point $-1 29.95887582275278 -28.746791546551783 17.180790157965038 #
edge $-1 $392 1 $392 0 $215 $-1 forward 7 unknown #
vertex $-1 $216 $393 #
ellipse-curve $-1 21.256823075828422 -30.511576491392422 10.159024536257906 0 -0.6560590369687036 0.75470957328743171 2.5 0 0 1 I I #
point $-1 23.756823075828422 -33.228704448160826 13.284722629366954 #
plane-surface $-1 0 0 17.180790157965038 0 0 1 1 0 0 forward_v I I I I #
coedge $-1 $326 $325 $318 $394 forward $220 $-1 #
coedge $-1 $318 $222 $224 $322 reversed $137 $-1 #
coedge $-1 $222 $317 $316 $394 reversed $137 $-1 #
coedge $-1 $230 $225 $222 $320 forward $231 $-1 #
edge $-1 $323 5.4494702644708255 $395 12.065651835329028 $319 $396 forward 7 unknown #
coedge $-1 $224 $223 $326 $397 reversed $86 $-1 #
edge $-1 $398 -75.421234699539852 $323 -67.532342612120701 $317 $399 forward 7 unknown #
vertex $-1 $226 $400 #
straight-curve $-1 -14.471435201301212 31.094435778911734 17.180790157965035 1 0 0 I I #
coedge $-1 $316 $227 $230 $330 reversed $220 $-1 #
coedge $-1 $227 $316 $321 $397 forward $220 $-1 #
vertex $-1 $228 $401 #
straight-curve $-1 -38.204071745943253 37.710617349769933 86.136901528627632 0 0 1 I I #
straight-curve $-1 -38.204071745943253 -25.542952041330096 53.961540552436006 0 0.83867056331134215 -0.54463904215088732 I I #
edge $-1 $395 19.681669059261591 $232 38.204071745943253 $325 $402 forward 7 unknown #
point $-1 -38.204071745943253 37.710617349769933 17.180790157965038 #
point $-1 -38.204071745943253 31.09443577891173 17.180790157965035 #
edge $-1 $403 1 $403 0 $235 $-1 forward 7 unknown #
vertex $-1 $236 $404 #
ellipse-curve $-1 -32.911956692605642 32.324938133447333 11.83328526853702 0 0.54463904215088732 0.83867056331134215 1.5 0 0 1 I I #
point $-1 -31.411956692605642 34.402526564340818 15.032490842903186 #
edge $-1 $405 1 $405 0 $239 $-1 forward 7 unknown #
vertex $-1 $240 $406 #
ellipse-curve $-1 -24.973784112599212 32.324938133447333 11.83328526853702 0 0.54463904215088732 0.83867056331134215 1.5 0 0 1 I I #
point $-1 -23.473784112599212 34.402526564340818 15.032490842903186 #
loop $-1 $-1 $251 $243 #
plane-surface $-1 0 37.710617349769933 0 0 -1 0 0 0 -1 forward_v I I I I #
coedge $-1 $344 $246 $248 $348 reversed $159 $-1 #
coedge $-1 $246 $343 $407 $408 reversed $159 $-1 #
coedge $-1 $254 $249 $246 $346 forward $244 $-1 #
edge $-1 $349 5.4494702644708255 $409 12.065651835329028 $345 $410 forward 7 unknown #
coedge $-1 $248 $247 $352 $411 reversed $100 $-1 #
edge $-1 $412 -75.421234699539852 $349 -67.532342612120701 $343 $413 forward 7 unknown #
vertex $-1 $250 $414 #
straight-curve $-1 14.471435201301219 31.094435778911734 17.180790157965035 1 0 0 I I #
coedge $-1 $407 $251 $254 $356 reversed $341 $-1 #
coedge $-1 $251 $407 $347 $411 forward $341 $-1 #
vertex $-1 $252 $415 #
straight-curve $-1 19.681669059261605 37.710617349769933 86.136901528627632 0 0 1 I I #
straight-curve $-1 19.681669059261605 -25.542952041330096 53.961540552436006 0 0.83867056331134215 -0.54463904215088732 I I #
edge $-1 $409 -38.204071745943267 $255 -19.681669059261605 $351 $416 forward 7 unknown #
point $-1 19.681669059261605 37.710617349769933 17.180790157965038 #
point $-1 19.681669059261605 31.09443577891173 17.180790157965035 #
edge $-1 $417 1 $417 0 $258 $-1 forward 7 unknown #
vertex $-1 $259 $418 #
ellipse-curve $-1 24.973784112599219 32.324938133447333 11.83328526853702 0 0.54463904215088732 0.83867056331134215 1.5 0 0 1 I I #
point $-1 26.473784112599219 34.402526564340818 15.032490842903186 #
edge $-1 $419 1 $419 0 $262 $-1 forward 7 unknown #
vertex $-1 $263 $420 #
ellipse-curve $-1 32.911956692605642 32.324938133447333 11.83328526853702 0 0.54463904215088732 0.83867056331134215 1.5 0 0 1 I I #
point $-1 34.411956692605642 34.402526564340818 15.032490842903186 #
plane-surface $-1 70.53559984130375 0 0 -1 0 0 0 0 1 forward_v I I I I #
coedge $-1 $271 $269 $273 $372 reversed $181 $-1 #
edge $-1 $284 -17.180790157965038 $374 17.180790157965038 $283 $421 forward 7 unknown #
vertex $-1 $372 $422 #
straight-curve $-1 -70.53559984130375 -37.710617349769933 0 0 0 -1 I I #
edge $-1 $370 -37.710617349769933 $374 37.710617349769933 $368 $423 forward 7 unknown #
straight-curve $-1 0 -37.710617349769933 -17.180790157965038 -1 0 0 I I #
vertex $-1 $276 $424 #
straight-curve $-1 0 37.710617349769933 -17.180790157965038 1 0 0 I I #
point $-1 70.53559984130375 37.710617349769933 -17.180790157965038 #
point $-1 70.53559984130375 -37.710617349769933 -17.180790157965038 #
straight-curve $-1 -70.53559984130375 0 17.180790157965038 0 -1 0 I I #
point $-1 -70.53559984130375 37.710617349769933 17.180790157965038 #
point $-1 -70.53559984130375 -37.710617349769933 17.180790157965038 #
straight-curve $-1 70.53559984130375 -37.710617349769933 0 0 0 -1 I I #
straight-curve $-1 70.53559984130375 37.710617349769933 0 0 0 -1 I I #
edge $-1 $384 40.747429850222787 $387 48.539564907418907 $294 $425 forward 7 unknown #
vertex $-1 $308 $426 #
straight-curve $-1 12.554770328904063 -65.130826378780554 17.180790157965035 0 -1 0 I I #
edge $-1 $387 1.9263587909898519 $305 19.33046428483857 $304 $427 forward 7 unknown #
vertex $-1 $386 $428 #
straight-curve $-1 12.554770328904063 -37.710617349769961 9.3886551007689008 0 0.75470957328743171 0.6560590369687036 I I #
point $-1 12.554770328904063 -28.746791546551783 17.180790157965038 #
point $-1 29.95887582275278 -37.710617349769933 9.3886551007689256 #
straight-curve $-1 0 -37.710617349769933 17.180790157965038 1 0 0 I I #
vertex $-1 $311 $429 #
point $-1 23.756823075828422 -30.511576491392422 10.159024536257906 #
edge $-1 $395 68.956111370662597 $398 73.25271000078628 $316 $430 forward 7 unknown #
vertex $-1 $330 $431 #
straight-curve $-1 -19.681669059261591 25.644965514440905 17.180790157965035 0 1 0 I I #
edge $-1 $398 5.2102338579603789 $327 23.732636544642041 $326 $432 forward 7 unknown #
vertex $-1 $397 $433 #
straight-curve $-1 -19.681669059261591 -25.542952041330096 53.961540552436006 0 -0.83867056331134215 0.54463904215088732 I I #
point $-1 -19.681669059261591 31.09443577891173 17.180790157965035 #
point $-1 -38.204071745943253 37.71061734976994 12.884191527841352 #
straight-curve $-1 0 37.710617349769933 17.180790157965038 -1 0 0 I I #
vertex $-1 $333 $434 #
point $-1 -31.411956692605642 32.324938133447333 11.83328526853702 #
vertex $-1 $337 $435 #
point $-1 -23.473784112599212 32.324938133447333 11.83328526853702 #
coedge $-1 $352 $351 $344 $408 forward $341 $-1 #
edge $-1 $409 68.956111370662597 $412 73.25271000078628 $407 $436 forward 7 unknown #
vertex $-1 $356 $437 #
straight-curve $-1 38.204071745943267 25.644965514440905 17.180790157965035 0 1 0 I I #
edge $-1 $412 -23.732636544642048 $353 -5.210233857960386 $352 $438 forward 7 unknown #
vertex $-1 $411 $439 #
straight-curve $-1 38.204071745943267 -25.542952041330096 53.961540552436006 0 -0.83867056331134215 0.54463904215088732 I I #
point $-1 38.204071745943267 31.09443577891173 17.180790157965035 #
point $-1 19.681669059261605 37.71061734976994 12.884191527841352 #
straight-curve $-1 0 37.710617349769933 17.180790157965038 -1 0 0 I I #
vertex $-1 $359 $440 #
point $-1 26.473784112599219 32.324938133447333 11.83328526853702 #
vertex $-1 $363 $441 #
point $-1 34.411956692605642 32.324938133447333 11.83328526853702 #
straight-curve $-1 -70.53559984130375 37.710617349769933 0 0 0 -1 I I #
point $-1 -70.53559984130375 -37.710617349769933 -17.180790157965038 #
straight-curve $-1 -70.53559984130375 0 -17.180790157965038 0 1 0 I I #
point $-1 -70.53559984130375 37.710617349769933 -17.180790157965038 #
straight-curve $-1 12.554770328904063 -37.710617349769933 57.928220008187829 0 0 -1 I I #
point $-1 12.554770328904063 -37.710617349769933 17.180790157965038 #
straight-curve $-1 10.628411537914211 -37.710617349769933 9.3886551007689256 1 0 0 I I #
point $-1 12.554770328904063 -37.710617349769933 9.3886551007689256 #
point $-1 21.256823075828422 -28.87142889897066 8.2722506030393284 #
straight-curve $-1 -19.681669059261591 37.710617349769933 86.136901528627632 0 0 -1 I I #
point $-1 -19.681669059261591 37.710617349769933 17.180790157965038 #
straight-curve $-1 -14.471435201301212 37.710617349769933 12.884191527841356 -1 0 0 I I #
point $-1 -19.681669059261591 37.71061734976994 12.884191527841352 #
point $-1 -32.911956692605642 31.507979570221 10.575279423570008 #
point $-1 -24.973784112599212 31.507979570221 10.575279423570008 #
straight-curve $-1 38.204071745943267 37.710617349769933 86.136901528627632 0 0 -1 I I #
point $-1 38.204071745943267 37.710617349769933 17.180790157965038 #
straight-curve $-1 14.471435201301219 37.710617349769933 12.884191527841356 -1 0 0 I I #
point $-1 38.204071745943267 37.71061734976994 12.884191527841352 #
point $-1 24.973784112599219 31.507979570221 10.575279423570008 #
point $-1 32.911956692605642 31.507979570221 10.575279423570008 #
End-of-ACIS-data 