500 0 9 0           
7 Unknown 11 ACIS 5.0 NT 24 Fri Mar 26 15:06:54 1999 
-1 9.9999999999999995e-007 1e-010 
body $-1 $9 $-1 $10 #
body $-1 $11 $-1 $12 #
body $-1 $13 $-1 $14 #
body $-1 $15 $-1 $16 #
body $-1 $17 $-1 $18 #
body $-1 $19 $-1 $20 #
body $-1 $21 $-1 $22 #
body $-1 $23 $-1 $24 #
body $-1 $25 $-1 $26 #
lump $-1 $-1 $27 $0 #
transform $-1 1 0 0 0 1 0 0 0 1 72.607196264534451 31.330314301091924 8.9572552987038545 1 rotate no_reflect no_shear #
lump $-1 $-1 $28 $1 #
transform $-1 1 0 0 0 1 0 0 0 1 72.607196264534451 31.330314301091924 8.9572552987038545 1 rotate no_reflect no_shear #
lump $-1 $-1 $29 $2 #
transform $-1 1 0 0 0 1 0 0 0 1 72.607196264534451 31.330314301091924 8.9572552987038545 1 rotate no_reflect no_shear #
lump $-1 $-1 $30 $3 #
transform $-1 1 0 0 0 1 0 0 0 1 72.607196264534451 31.330314301091924 8.9572552987038545 1 rotate no_reflect no_shear #
lump $-1 $-1 $31 $4 #
transform $-1 1 0 0 0 1 0 0 0 1 72.607196264534451 31.330314301091924 8.9572552987038545 1 rotate no_reflect no_shear #
lump $-1 $-1 $32 $5 #
transform $-1 1 0 0 0 1 0 0 0 1 72.607196264534451 31.330314301091924 8.9572552987038545 1 rotate no_reflect no_shear #
lump $-1 $-1 $33 $6 #
transform $-1 1 0 0 0 1 0 0 0 1 72.607196264534451 31.330314301091924 8.9572552987038545 1 rotate no_reflect no_shear #
lump $-1 $-1 $34 $7 #
transform $-1 1 0 0 0 1 0 0 0 1 72.607196264534451 31.330314301091924 8.9572552987038545 1 rotate no_reflect no_shear #
lump $-1 $-1 $35 $8 #
transform $-1 1 0 0 0 1 0 0 0 1 72.607196264534451 31.330314301091924 8.9572552987038545 1 rotate no_reflect no_shear #
shell $-1 $-1 $-1 $36 $-1 $9 #
shell $-1 $-1 $-1 $37 $-1 $11 #
shell $-1 $-1 $-1 $38 $-1 $13 #
shell $-1 $-1 $-1 $39 $-1 $15 #
shell $-1 $-1 $-1 $40 $-1 $17 #
shell $-1 $-1 $-1 $41 $-1 $19 #
shell $-1 $-1 $-1 $42 $-1 $21 #
shell $-1 $-1 $-1 $43 $-1 $23 #
shell $-1 $-1 $-1 $44 $-1 $25 #
face $-1 $45 $46 $27 $-1 $47 forward single #
face $-1 $48 $49 $28 $-1 $50 forward single #
face $-1 $51 $52 $29 $-1 $53 forward single #
face $-1 $54 $55 $30 $-1 $56 reversed single #
face $-1 $57 $58 $31 $-1 $59 forward single #
face $-1 $60 $61 $32 $-1 $62 reversed single #
face $-1 $63 $64 $33 $-1 $65 forward single #
face $-1 $66 $67 $34 $-1 $68 forward single #
face $-1 $69 $70 $35 $-1 $71 forward single #
face $-1 $72 $73 $27 $-1 $74 reversed single #
loop $-1 $-1 $75 $36 #
plane-surface $-1 0 0 8.9572552987038545 0 0 1 1 0 0 forward_v I I I I #
face $-1 $76 $77 $28 $-1 $78 reversed single #
loop $-1 $-1 $79 $37 #
plane-surface $-1 0 -25.844224371378409 -4.8414611390815221 0 0 1 1 0 0 forward_v I I I I #
face $-1 $80 $81 $29 $-1 $82 reversed single #
loop $-1 $-1 $83 $38 #
plane-surface $-1 0 25.844224371378409 -4.8414611390815221 0 0 1 1 0 0 forward_v I I I I #
face $-1 $84 $85 $30 $-1 $86 reversed single #
loop $-1 $-1 $87 $39 #
plane-surface $-1 -199.61456683799932 20.358134441664891 74.012737853338649 0 -1 0 0.87461971476443456 0 -0.48480960649040278 forward_v I I I I #
face $-1 $88 $89 $31 $-1 $90 forward single #
loop $-1 $91 $92 $40 #
cone-surface $-1 -70.077431494446259 16.308222276343024 5.7033377906972795 0.87461971476443456 0 -0.48480960649040278 0.72721440973560414 0 1.311929572146652 1 I I 0 1 1.5 forward I I I I #
face $-1 $93 $94 $32 $-1 $95 reversed single #
loop $-1 $-1 $96 $41 #
plane-surface $-1 111.79252887353684 -9.776492626920966 203.53073880696115 0 -1 0 -0.82903758062907751 0 -0.55919289150049634 forward_v I I I I #
face $-1 $97 $98 $33 $-1 $99 forward single #
loop $-1 $100 $101 $42 #
cone-surface $-1 69.825975152069645 -18.24180607871611 5.1688782567629534 -0.82903758062907751 0 -0.55919289150049634 0.27959644575024817 0 -0.41451879031453875 1 I I 0 1 0.5 forward I I I I #
face $-1 $102 $103 $34 $-1 $104 forward single #
loop $-1 $105 $106 $43 #
cone-surface $-1 69.825975152069645 -15.067313534292932 5.1688782567629534 -0.82903758062907751 0 -0.55919289150049634 0.27959644575024817 0 -0.41451879031453875 1 I I 0 1 0.5 forward I I I I #
face $-1 $107 $108 $35 $-1 $109 forward single #
loop $-1 $110 $111 $44 #
cone-surface $-1 69.825975152069645 -11.892820989869755 5.1688782567629534 -0.82903758062907751 0 -0.55919289150049634 0.27959644575024817 0 -0.41451879031453875 1 I I 0 1 0.5 forward I I I I #
face $-1 $112 $113 $27 $-1 $114 reversed single #
loop $-1 $-1 $115 $45 #
plane-surface $-1 0 0 -8.9572552987038545 0 0 1 1 0 0 forward_v I I I I #
coedge $-1 $116 $117 $118 $119 forward $46 $-1 #
face $-1 $120 $121 $28 $-1 $122 reversed single #
loop $-1 $-1 $123 $48 #
plane-surface $-1 0 -20.358134441664895 -6.8993582188926883 0 -1 0 0 0 -1 forward_v I I I I #
coedge $-1 $124 $125 $126 $127 reversed $49 $-1 #
face $-1 $128 $129 $29 $-1 $130 reversed single #
loop $-1 $-1 $131 $51 #
plane-surface $-1 0 20.358134441664895 -6.8993582188926883 0 1 0 0 0 1 forward_v I I I I #
coedge $-1 $132 $133 $134 $135 reversed $52 $-1 #
face $-1 $136 $137 $30 $-1 $138 reversed single #
loop $-1 $-1 $139 $54 #
plane-surface $-1 -72.607196264534437 16.308222276343024 3.6114053545778688 -0.87461971476443456 0 0.48480960649040278 0.48480960649040278 0 0.87461971476443456 forward_v I I I I #
coedge $-1 $140 $141 $142 $143 reversed $55 $-1 #
face $-1 $-1 $144 $31 $-1 $145 forward single #
loop $-1 $146 $147 $57 #
cone-surface $-1 -68.373328389196899 16.308222276343024 4.7587380498858902 0.87461971476443456 0 -0.48480960649040278 0.36360720486780207 0 0.65596478607332598 1 I I -0.70710678118654757 0.70710678118654757 0.75 forward I I I I #
loop $-1 $-1 $148 $40 #
coedge $-1 $92 $92 $149 $150 reversed $58 $-1 #
face $-1 $151 $152 $32 $-1 $153 reversed single #
loop $-1 $-1 $154 $60 #
plane-surface $-1 -8.5956597812836293 -15.067313534292932 122.32788276114304 0.82903758062907751 0 0.55919289150049634 0.55919289150049634 0 -0.82903758062907751 forward_v I I I I #
coedge $-1 $155 $156 $157 $158 reversed $61 $-1 #
face $-1 $-1 $159 $33 $-1 $160 forward single #
loop $-1 $161 $162 $63 #
cone-surface $-1 69.204196966597834 -18.24180607871611 4.749483588137581 -0.82903758062907751 0 -0.55919289150049634 0.13979822287512408 0 -0.20725939515726938 1 I I -0.70710678118654746 0.70710678118654746 0.25 forward I I I I #
loop $-1 $-1 $163 $42 #
coedge $-1 $101 $101 $164 $165 reversed $64 $-1 #
face $-1 $-1 $166 $34 $-1 $167 forward single #
loop $-1 $168 $169 $66 #
cone-surface $-1 69.204196966597834 -15.067313534292932 4.749483588137581 -0.82903758062907751 0 -0.55919289150049634 0.13979822287512408 0 -0.20725939515726938 1 I I -0.70710678118654746 0.70710678118654746 0.25 forward I I I I #
loop $-1 $-1 $170 $43 #
coedge $-1 $106 $106 $171 $172 reversed $67 $-1 #
face $-1 $-1 $173 $35 $-1 $174 forward single #
loop $-1 $175 $176 $69 #
cone-surface $-1 69.204196966597834 -11.892820989869755 4.749483588137581 -0.82903758062907751 0 -0.55919289150049634 0.13979822287512408 0 -0.20725939515726938 1 I I -0.70710678118654746 0.70710678118654746 0.25 forward I I I I #
loop $-1 $-1 $177 $44 #
coedge $-1 $111 $111 $178 $179 reversed $70 $-1 #
face $-1 $180 $181 $27 $-1 $182 reversed single #
loop $-1 $-1 $183 $72 #
plane-surface $-1 0 -31.330314301091924 0 0 1 0 0 0 1 forward_v I I I I #
coedge $-1 $184 $185 $186 $187 forward $73 $-1 #
coedge $-1 $188 $75 $189 $190 forward $46 $-1 #
coedge $-1 $75 $188 $191 $192 forward $46 $-1 #
coedge $-1 $193 $194 $75 $119 reversed $195 $-1 #
edge $-1 $196 -31.330314301091924 $197 31.330314301091924 $118 $198 forward 7 unknown #
face $-1 $199 $200 $28 $-1 $201 reversed single #
loop $-1 $-1 $202 $76 #
plane-surface $-1 0 0 -8.9572552987038545 0 0 1 1 0 0 forward_v I I I I #
coedge $-1 $203 $204 $205 $206 reversed $77 $-1 #
coedge $-1 $207 $79 $204 $208 forward $49 $-1 #
coedge $-1 $79 $207 $209 $210 reversed $49 $-1 #
coedge $-1 $211 $205 $79 $127 forward $200 $-1 #
edge $-1 $212 7.4360222559756899 $213 18.40820211540272 $126 $214 forward 7 unknown #
face $-1 $215 $216 $29 $-1 $217 reversed single #
loop $-1 $-1 $134 $80 #
plane-surface $-1 72.607196264534451 0 0 -1 0 0 0 0 1 forward_v I I I I #
coedge $-1 $218 $219 $220 $221 reversed $81 $-1 #
coedge $-1 $222 $83 $223 $224 reversed $52 $-1 #
coedge $-1 $83 $222 $219 $225 forward $52 $-1 #
coedge $-1 $226 $227 $83 $135 forward $129 $-1 #
edge $-1 $228 -18.40820211540272 $229 -7.4360222559756899 $134 $230 forward 7 unknown #
face $-1 $231 $232 $30 $-1 $233 reversed single #
loop $-1 $-1 $234 $84 #
plane-surface $-1 -199.61456683799932 12.258310111021157 74.012737853338649 0 1 0 -0.87461971476443456 0 0.48480960649040278 forward_v I I I I #
coedge $-1 $235 $236 $237 $238 reversed $85 $-1 #
coedge $-1 $141 $87 $239 $240 reversed $55 $-1 #
coedge $-1 $87 $140 $235 $241 reversed $55 $-1 #
coedge $-1 $237 $242 $87 $143 forward $232 $-1 #
edge $-1 $243 28.049113627965468 $244 33.394963572091484 $142 $245 forward 7 unknown #
loop $-1 $-1 $149 $88 #
plane-surface $-1 -72.607196264534437 16.308222276343024 3.6114053545778688 -0.87461971476443456 0 0.48480960649040278 0.48480960649040278 0 0.87461971476443456 forward_v I I I I #
loop $-1 $-1 $246 $57 #
coedge $-1 $147 $147 $148 $247 reversed $89 $-1 #
coedge $-1 $148 $148 $147 $247 forward $91 $-1 #
coedge $-1 $149 $149 $92 $150 forward $144 $-1 #
edge $-1 $248 0 $248 6.2831853071796004 $149 $249 forward 7 unknown #
face $-1 $250 $251 $32 $-1 $252 forward single #
loop $-1 $-1 $253 $93 #
plane-surface $-1 111.79252887353684 -20.358134441664898 203.53073880696115 0 1 0 0.82903758062907751 0 0.55919289150049634 forward_v I I I I #
coedge $-1 $254 $255 $256 $257 reversed $94 $-1 #
coedge $-1 $156 $96 $258 $259 reversed $61 $-1 #
coedge $-1 $96 $155 $254 $260 reversed $61 $-1 #
coedge $-1 $256 $261 $96 $158 forward $251 $-1 #
edge $-1 $262 -16.710931827766032 $263 -11.977527183465526 $157 $264 forward 7 unknown #
loop $-1 $-1 $164 $97 #
plane-surface $-1 -8.5956597812836293 -15.067313534292932 122.32788276114304 0.82903758062907751 0 0.55919289150049634 0.55919289150049634 0 -0.82903758062907751 forward_v I I I I #
loop $-1 $-1 $265 $63 #
coedge $-1 $162 $162 $163 $266 reversed $98 $-1 #
coedge $-1 $163 $163 $162 $266 forward $100 $-1 #
coedge $-1 $164 $164 $101 $165 forward $159 $-1 #
edge $-1 $267 0 $267 6.2831853071796004 $164 $268 forward 7 unknown #
loop $-1 $-1 $171 $102 #
plane-surface $-1 -8.5956597812836293 -15.067313534292932 122.32788276114304 0.82903758062907751 0 0.55919289150049634 0.55919289150049634 0 -0.82903758062907751 forward_v I I I I #
loop $-1 $-1 $269 $66 #
coedge $-1 $169 $169 $170 $270 reversed $103 $-1 #
coedge $-1 $170 $170 $169 $270 forward $105 $-1 #
coedge $-1 $171 $171 $106 $172 forward $166 $-1 #
edge $-1 $271 0 $271 6.2831853071796004 $171 $272 forward 7 unknown #
loop $-1 $-1 $178 $107 #
plane-surface $-1 -8.5956597812836293 -15.067313534292932 122.32788276114304 0.82903758062907751 0 0.55919289150049634 0.55919289150049634 0 -0.82903758062907751 forward_v I I I I #
loop $-1 $-1 $273 $69 #
coedge $-1 $176 $176 $177 $274 reversed $108 $-1 #
coedge $-1 $177 $177 $176 $274 forward $110 $-1 #
coedge $-1 $178 $178 $111 $179 forward $173 $-1 #
edge $-1 $275 0 $275 6.2831853071796004 $178 $276 forward 7 unknown #
face $-1 $277 $278 $27 $-1 $279 reversed single #
loop $-1 $-1 $280 $112 #
plane-surface $-1 -72.607196264534451 0 0 1 0 0 0 0 -1 forward_v I I I I #
coedge $-1 $281 $191 $282 $283 forward $113 $-1 #
coedge $-1 $284 $115 $281 $285 forward $73 $-1 #
coedge $-1 $115 $284 $286 $287 forward $73 $-1 #
coedge $-1 $194 $193 $115 $187 reversed $195 $-1 #
edge $-1 $288 -31.330314301091924 $289 31.330314301091924 $186 $290 forward 7 unknown #
coedge $-1 $117 $116 $291 $292 forward $46 $-1 #
coedge $-1 $293 $294 $116 $190 reversed $278 $-1 #
edge $-1 $197 -72.607196264534451 $295 72.607196264534451 $189 $296 forward 7 unknown #
coedge $-1 $183 $297 $117 $192 reversed $113 $-1 #
edge $-1 $298 -72.607196264534451 $196 72.607196264534451 $191 $299 forward 7 unknown #
coedge $-1 $186 $118 $297 $300 forward $195 $-1 #
coedge $-1 $118 $186 $293 $301 reversed $195 $-1 #
loop $-1 $-1 $193 $277 #
vertex $-1 $119 $302 #
vertex $-1 $119 $303 #
straight-curve $-1 72.607196264534451 0 8.9572552987038545 0 1 0 I I #
face $-1 $304 $305 $28 $-1 $306 reversed single #
loop $-1 $-1 $205 $120 #
plane-surface $-1 72.607196264534451 0 0 -1 0 0 0 0 1 forward_v I I I I #
coedge $-1 $307 $308 $203 $309 forward $121 $-1 #
coedge $-1 $310 $123 $202 $309 reversed $77 $-1 #
coedge $-1 $123 $310 $124 $208 reversed $77 $-1 #
coedge $-1 $126 $311 $123 $206 forward $200 $-1 #
edge $-1 $312 -5.5075761892575104 $212 -1.3917820296351779 $205 $313 forward 7 unknown #
coedge $-1 $125 $124 $314 $315 reversed $49 $-1 #
edge $-1 $212 -72.607196264534451 $316 72.607196264534451 $204 $317 forward 7 unknown #
coedge $-1 $318 $319 $125 $210 forward $305 $-1 #
edge $-1 $213 -72.607196264534451 $320 72.607196264534451 $209 $321 forward 7 unknown #
coedge $-1 $311 $126 $319 $322 forward $200 $-1 #
vertex $-1 $127 $323 #
vertex $-1 $322 $324 #
straight-curve $-1 72.607196264534451 -12.922112185689205 -4.8414611390815221 0 -1 0 I I #
face $-1 $325 $326 $29 $-1 $327 reversed single #
loop $-1 $-1 $328 $128 #
plane-surface $-1 0 0 -8.9572552987038545 0 0 1 1 0 0 forward_v I I I I #
coedge $-1 $329 $131 $328 $330 reversed $81 $-1 #
coedge $-1 $131 $329 $133 $225 reversed $81 $-1 #
coedge $-1 $331 $332 $131 $221 forward $326 $-1 #
edge $-1 $333 -5.5075761892575104 $334 -1.3917820296351779 $220 $335 forward 7 unknown #
coedge $-1 $133 $132 $331 $336 reversed $52 $-1 #
coedge $-1 $337 $338 $132 $224 forward $339 $-1 #
edge $-1 $340 -72.607196264534451 $228 72.607196264534451 $223 $341 forward 7 unknown #
edge $-1 $334 -72.607196264534451 $229 72.607196264534451 $219 $342 forward 7 unknown #
coedge $-1 $343 $134 $329 $344 forward $129 $-1 #
coedge $-1 $134 $343 $337 $345 reversed $129 $-1 #
vertex $-1 $345 $346 #
vertex $-1 $135 $347 #
straight-curve $-1 72.607196264534451 12.922112185689205 -4.8414611390815221 0 -1 0 I I #
face $-1 $-1 $348 $30 $-1 $349 forward single #
loop $-1 $-1 $142 $136 #
plane-surface $-1 -72.607196264534451 0 0 1 0 0 0 0 -1 forward_v I I I I #
coedge $-1 $350 $351 $352 $353 reversed $137 $-1 #
coedge $-1 $354 $139 $141 $241 forward $85 $-1 #
coedge $-1 $139 $354 $350 $355 forward $85 $-1 #
coedge $-1 $352 $142 $139 $238 forward $232 $-1 #
edge $-1 $244 -12.204023303493379 $356 -4.1041989728496446 $237 $357 forward 7 unknown #
coedge $-1 $358 $359 $140 $240 forward $348 $-1 #
edge $-1 $360 -30.163340056289528 $243 -27.200087154465209 $239 $361 forward 7 unknown #
edge $-1 $244 -2.9417291209212814e-014 $360 6.1121992265699241 $141 $362 forward 7 unknown #
coedge $-1 $142 $352 $358 $363 reversed $232 $-1 #
vertex $-1 $363 $364 #
vertex $-1 $143 $365 #
straight-curve $-1 -72.607196264534451 20.358134441664891 37.006368926669325 0 0 -1 I I #
coedge $-1 $246 $246 $-1 $366 reversed $146 $-1 #
edge $-1 $367 0 $367 6.2831853071796004 $147 $368 forward 7 unknown #
vertex $-1 $150 $369 #
ellipse-curve $-1 -71.125569813622278 16.308222276343024 6.2843303266408608 -0.87461971476443456 0 0.48480960649040278 0.72721440973560414 0 1.311929572146652 1 I I #
face $-1 $-1 $370 $32 $-1 $371 reversed single #
loop $-1 $-1 $157 $151 #
plane-surface $-1 0 0 8.9572552987038545 0 0 1 1 0 0 forward_v I I I I #
coedge $-1 $372 $373 $374 $375 reversed $152 $-1 #
coedge $-1 $376 $154 $156 $260 forward $94 $-1 #
coedge $-1 $154 $376 $372 $377 forward $94 $-1 #
coedge $-1 $374 $157 $154 $257 forward $251 $-1 #
edge $-1 $263 2.2428358597745 $378 12.824477674518432 $256 $379 forward 7 unknown #
coedge $-1 $380 $381 $155 $259 forward $370 $-1 #
edge $-1 $382 -99.825675297157957 $262 -92.80811410477672 $258 $383 forward 7 unknown #
edge $-1 $263 136.74968434653232 $382 145.21439252906885 $156 $384 forward 7 unknown #
coedge $-1 $157 $374 $380 $385 forward $251 $-1 #
vertex $-1 $158 $386 #
vertex $-1 $158 $387 #
straight-curve $-1 55.896264436768419 -9.776492626920966 8.9572552987038563 -1 0 0 I I #
coedge $-1 $265 $265 $-1 $388 reversed $161 $-1 #
edge $-1 $389 0 $389 6.2831853071796004 $162 $390 forward 7 unknown #
vertex $-1 $165 $391 #
ellipse-curve $-1 70.240493942384205 -18.24180607871611 5.4484747025132174 0.82903758062907751 0 0.55919289150049634 0.27959644575024817 0 -0.41451879031453875 1 I I #
coedge $-1 $269 $269 $-1 $392 reversed $168 $-1 #
edge $-1 $393 0 $393 6.2831853071796004 $169 $394 forward 7 unknown #
vertex $-1 $172 $395 #
ellipse-curve $-1 70.240493942384205 -15.067313534292932 5.4484747025132174 0.82903758062907751 0 0.55919289150049634 0.27959644575024817 0 -0.41451879031453875 1 I I #
coedge $-1 $273 $273 $-1 $396 reversed $175 $-1 #
edge $-1 $397 0 $397 6.2831853071796004 $176 $398 forward 7 unknown #
vertex $-1 $179 $399 #
ellipse-curve $-1 70.240493942384205 -11.892820989869755 5.4484747025132174 0.82903758062907751 0 0.55919289150049634 0.27959644575024817 0 -0.41451879031453875 1 I I #
face $-1 $-1 $195 $27 $-1 $400 reversed single #
loop $-1 $-1 $293 $180 #
plane-surface $-1 0 31.330314301091924 0 0 -1 0 0 0 -1 forward_v I I I I #
coedge $-1 $401 $291 $294 $402 forward $181 $-1 #
coedge $-1 $297 $183 $184 $285 reversed $113 $-1 #
coedge $-1 $291 $401 $183 $283 reversed $181 $-1 #
edge $-1 $298 -8.9572552987038545 $403 8.9572552987038545 $282 $404 forward 7 unknown #
coedge $-1 $185 $184 $401 $405 forward $73 $-1 #
edge $-1 $289 -72.607196264534451 $403 72.607196264534451 $281 $406 forward 7 unknown #
coedge $-1 $294 $293 $185 $287 reversed $278 $-1 #
edge $-1 $407 -72.607196264534451 $288 72.607196264534451 $286 $408 forward 7 unknown #
vertex $-1 $187 $409 #
vertex $-1 $300 $410 #
straight-curve $-1 72.607196264534451 0 -8.9572552987038545 0 -1 0 I I #
coedge $-1 $280 $282 $188 $292 reversed $181 $-1 #
edge $-1 $295 -31.330314301091924 $298 31.330314301091924 $291 $411 forward 7 unknown #
coedge $-1 $286 $189 $194 $301 forward $278 $-1 #
coedge $-1 $189 $286 $280 $402 reversed $278 $-1 #
vertex $-1 $190 $412 #
straight-curve $-1 0 31.330314301091924 8.9572552987038545 -1 0 0 I I #
coedge $-1 $191 $281 $193 $300 reversed $113 $-1 #
vertex $-1 $292 $413 #
straight-curve $-1 0 -31.330314301091924 8.9572552987038545 1 0 0 I I #
edge $-1 $196 -8.9572552987038545 $289 8.9572552987038545 $193 $414 forward 7 unknown #
edge $-1 $197 -8.9572552987038545 $288 8.9572552987038545 $194 $415 forward 7 unknown #
point $-1 72.607196264534451 -31.330314301091924 8.9572552987038545 #
point $-1 72.607196264534451 31.330314301091924 8.9572552987038545 #
face $-1 $-1 $416 $28 $-1 $417 reversed single #
loop $-1 $-1 $209 $199 #
plane-surface $-1 0 -31.330314301091924 0 0 1 0 0 0 1 forward_v I I I I #
coedge $-1 $418 $202 $311 $419 forward $121 $-1 #
coedge $-1 $202 $418 $420 $421 forward $121 $-1 #
edge $-1 $422 -72.607196264534451 $312 72.607196264534451 $202 $423 forward 7 unknown #
coedge $-1 $204 $203 $424 $425 reversed $77 $-1 #
coedge $-1 $205 $211 $307 $419 reversed $200 $-1 #
vertex $-1 $419 $426 #
straight-curve $-1 72.607196264534451 -20.358134441664895 -3.4496791094463441 0 0 1 I I #
coedge $-1 $424 $427 $207 $315 forward $416 $-1 #
edge $-1 $320 -18.40820211540272 $316 -7.4360222559756899 $314 $428 forward 7 unknown #
vertex $-1 $315 $429 #
straight-curve $-1 0 -20.358134441664895 -4.8414611390815221 -1 0 0 I I #
coedge $-1 $430 $209 $427 $431 forward $305 $-1 #
coedge $-1 $209 $430 $211 $322 reversed $305 $-1 #
vertex $-1 $431 $432 #
straight-curve $-1 0 -31.330314301091924 -4.8414611390815221 -1 0 0 I I #
edge $-1 $213 4.8414611390815221 $433 8.9572552987038545 $211 $434 forward 7 unknown #
point $-1 72.607196264534451 -20.358134441664895 -4.8414611390815221 #
point $-1 72.607196264534451 -31.330314301091924 -4.8414611390815221 #
face $-1 $-1 $339 $29 $-1 $435 reversed single #
loop $-1 $-1 $331 $215 #
plane-surface $-1 -72.607196264534451 0 0 1 0 0 0 0 -1 forward_v I I I I #
coedge $-1 $436 $437 $218 $330 forward $216 $-1 #
coedge $-1 $219 $218 $226 $344 reversed $81 $-1 #
edge $-1 $438 -72.607196264534451 $333 72.607196264534451 $328 $439 forward 7 unknown #
coedge $-1 $440 $220 $222 $336 forward $326 $-1 #
coedge $-1 $220 $440 $436 $441 reversed $326 $-1 #
vertex $-1 $441 $442 #
vertex $-1 $336 $443 #
straight-curve $-1 -72.607196264534451 20.358134441664895 -3.4496791094463441 0 0 1 I I #
edge $-1 $334 7.4360222559756899 $340 18.40820211540272 $331 $444 forward 7 unknown #
coedge $-1 $445 $223 $227 $345 forward $339 $-1 #
coedge $-1 $223 $445 $440 $446 reversed $339 $-1 #
loop $-1 $-1 $223 $325 #
vertex $-1 $446 $447 #
straight-curve $-1 0 31.330314301091924 -4.8414611390815221 1 0 0 I I #
straight-curve $-1 0 20.358134441664895 -4.8414611390815221 1 0 0 I I #
coedge $-1 $227 $226 $437 $448 reversed $129 $-1 #
edge $-1 $229 1.3917820296351779 $438 5.5075761892575104 $226 $449 forward 7 unknown #
edge $-1 $228 4.8414611390815221 $450 8.9572552987038545 $227 $451 forward 7 unknown #
point $-1 72.607196264534451 31.330314301091924 -4.8414611390815221 #
point $-1 72.607196264534451 20.358134441664895 -4.8414611390815221 #
loop $-1 $-1 $239 $231 #
plane-surface $-1 0 0 8.9572552987038545 0 0 1 1 0 0 forward_v I I I I #
coedge $-1 $351 $234 $236 $355 reversed $137 $-1 #
coedge $-1 $234 $350 $452 $453 reversed $137 $-1 #
coedge $-1 $242 $237 $234 $353 forward $232 $-1 #
edge $-1 $356 -33.394963572091484 $454 -28.049113627965468 $352 $455 forward 7 unknown #
coedge $-1 $236 $235 $359 $456 reversed $85 $-1 #
edge $-1 $457 -6.1121992265699241 $356 2.9417291209212814e-014 $350 $458 forward 7 unknown #
vertex $-1 $238 $459 #
straight-curve $-1 -72.607196264534451 8.1541111381715119 3.6114053545778484 0 -1 0 I I #
coedge $-1 $452 $239 $242 $363 forward $348 $-1 #
coedge $-1 $239 $452 $354 $456 forward $348 $-1 #
vertex $-1 $240 $460 #
straight-curve $-1 -99.80728341899966 20.358134441664891 8.9572552987038563 -1 0 0 I I #
straight-curve $-1 -72.607196264534437 20.358134441664891 3.6114053545778688 0.48480960649040278 0 0.87461971476443456 I I #
edge $-1 $243 -20.358134441664891 $454 -12.258310111021157 $242 $461 forward 7 unknown #
point $-1 -72.607196264534451 20.358134441664891 8.9572552987038545 #
point $-1 -72.607196264534451 20.358134441664891 3.6114053545778431 #
edge $-1 $462 1 $462 0 $246 $-1 forward 7 unknown #
vertex $-1 $247 $463 #
ellipse-curve $-1 -69.029293175270226 16.308222276343024 5.1223452547536921 -0.87461971476443456 0 0.48480960649040278 0.72721440973560414 0 1.311929572146652 1 I I #
point $-1 -70.398355403886683 16.308222276343024 7.5962598987875181 #
loop $-1 $-1 $258 $250 #
plane-surface $-1 72.607196264534451 0 0 -1 0 0 0 0 1 forward_v I I I I #
coedge $-1 $373 $253 $255 $377 reversed $152 $-1 #
coedge $-1 $253 $372 $464 $465 reversed $152 $-1 #
coedge $-1 $261 $256 $253 $375 forward $251 $-1 #
edge $-1 $378 11.977527183465526 $466 16.710931827766032 $374 $467 forward 7 unknown #
coedge $-1 $255 $254 $381 $468 reversed $94 $-1 #
edge $-1 $469 -145.21439252906885 $378 -136.74968434653232 $372 $470 forward 7 unknown #
vertex $-1 $257 $471 #
straight-curve $-1 67.873791620233931 -7.533656767146466 8.9572552987038563 0 -1 0 I I #
coedge $-1 $464 $258 $261 $385 reversed $370 $-1 #
coedge $-1 $258 $464 $376 $468 forward $370 $-1 #
vertex $-1 $259 $472 #
straight-curve $-1 72.607196264534451 -9.776492626920966 101.76536940348058 0 0 1 I I #
straight-curve $-1 -8.5956597812836293 -9.776492626920966 122.32788276114304 0.55919289150049634 0 -0.82903758062907751 I I #
edge $-1 $466 -20.358134441664898 $262 -9.776492626920966 $380 $473 forward 7 unknown #
point $-1 72.607196264534451 -9.776492626920966 8.9572552987038545 #
point $-1 67.873791620233945 -9.776492626920966 8.9572552987038563 #
edge $-1 $474 1 $474 0 $265 $-1 forward 7 unknown #
vertex $-1 $266 $475 #
ellipse-curve $-1 69.4114563617551 -18.24180607871611 4.8892818110127054 0.82903758062907751 0 0.55919289150049634 0.27959644575024817 0 -0.41451879031453875 1 I I #
point $-1 70.520090388134435 -18.24180607871611 5.033955912198663 #
edge $-1 $476 1 $476 0 $269 $-1 forward 7 unknown #
vertex $-1 $270 $477 #
ellipse-curve $-1 69.4114563617551 -15.067313534292932 4.8892818110127054 0.82903758062907751 0 0.55919289150049634 0.27959644575024817 0 -0.41451879031453875 1 I I #
point $-1 70.520090388134435 -15.067313534292932 5.033955912198663 #
edge $-1 $478 1 $478 0 $273 $-1 forward 7 unknown #
vertex $-1 $274 $479 #
ellipse-curve $-1 69.4114563617551 -11.892820989869755 4.8892818110127054 0.82903758062907751 0 0.55919289150049634 0.27959644575024817 0 -0.41451879031453875 1 I I #
point $-1 70.520090388134435 -11.892820989869755 5.033955912198663 #
plane-surface $-1 72.607196264534451 0 0 -1 0 0 0 0 1 forward_v I I I I #
coedge $-1 $282 $280 $284 $405 reversed $181 $-1 #
edge $-1 $295 -8.9572552987038545 $407 8.9572552987038545 $294 $480 forward 7 unknown #
vertex $-1 $405 $481 #
straight-curve $-1 -72.607196264534451 -31.330314301091924 0 0 0 -1 I I #
edge $-1 $403 -31.330314301091924 $407 31.330314301091924 $401 $482 forward 7 unknown #
straight-curve $-1 0 -31.330314301091924 -8.9572552987038545 -1 0 0 I I #
vertex $-1 $287 $483 #
straight-curve $-1 0 31.330314301091924 -8.9572552987038545 1 0 0 I I #
point $-1 72.607196264534451 31.330314301091924 -8.9572552987038545 #
point $-1 72.607196264534451 -31.330314301091924 -8.9572552987038545 #
straight-curve $-1 -72.607196264534451 0 8.9572552987038545 0 -1 0 I I #
point $-1 -72.607196264534451 31.330314301091924 8.9572552987038545 #
point $-1 -72.607196264534451 -31.330314301091924 8.9572552987038545 #
straight-curve $-1 72.607196264534451 -31.330314301091924 0 0 0 -1 I I #
straight-curve $-1 72.607196264534451 31.330314301091924 0 0 0 -1 I I #
loop $-1 $-1 $424 $304 #
plane-surface $-1 -72.607196264534451 0 0 1 0 0 0 0 -1 forward_v I I I I #
coedge $-1 $308 $307 $430 $484 forward $121 $-1 #
edge $-1 $312 20.358134441664895 $433 31.330314301091924 $311 $485 forward 7 unknown #
coedge $-1 $427 $424 $308 $421 reversed $416 $-1 #
edge $-1 $486 -31.330314301091924 $422 -20.358134441664895 $420 $487 forward 7 unknown #
vertex $-1 $425 $488 #
straight-curve $-1 0 -20.358134441664895 -8.9572552987038545 1 0 0 I I #
coedge $-1 $420 $314 $310 $425 forward $416 $-1 #
edge $-1 $316 1.3917820296351779 $422 5.5075761892575104 $424 $489 forward 7 unknown #
point $-1 72.607196264534451 -20.358134441664895 -8.9572552987038545 #
coedge $-1 $314 $420 $318 $431 reversed $416 $-1 #
straight-curve $-1 -72.607196264534451 -12.922112185689205 -4.8414611390815221 0 1 0 I I #
point $-1 -72.607196264534451 -20.358134441664895 -4.8414611390815221 #
coedge $-1 $319 $318 $418 $484 reversed $305 $-1 #
edge $-1 $320 4.8414611390815221 $486 8.9572552987038545 $427 $490 forward 7 unknown #
point $-1 -72.607196264534451 -31.330314301091924 -4.8414611390815221 #
vertex $-1 $322 $491 #
straight-curve $-1 72.607196264534451 -31.330314301091924 0 0 0 -1 I I #
plane-surface $-1 0 31.330314301091924 0 0 -1 0 0 0 -1 forward_v I I I I #
coedge $-1 $492 $328 $332 $441 forward $216 $-1 #
coedge $-1 $328 $492 $343 $448 forward $216 $-1 #
vertex $-1 $330 $493 #
straight-curve $-1 0 20.358134441664895 -8.9572552987038545 -1 0 0 I I #
coedge $-1 $332 $331 $338 $446 forward $326 $-1 #
edge $-1 $333 20.358134441664895 $494 31.330314301091924 $332 $495 forward 7 unknown #
point $-1 -72.607196264534451 20.358134441664895 -8.9572552987038545 #
point $-1 -72.607196264534451 20.358134441664895 -4.8414611390815221 #
straight-curve $-1 -72.607196264534451 12.922112185689205 -4.8414611390815221 0 1 0 I I #
coedge $-1 $338 $337 $492 $496 reversed $339 $-1 #
edge $-1 $340 4.8414611390815221 $494 8.9572552987038545 $338 $497 forward 7 unknown #
point $-1 -72.607196264534451 31.330314301091924 -4.8414611390815221 #
edge $-1 $450 -31.330314301091924 $438 -20.358134441664895 $343 $498 forward 7 unknown #
straight-curve $-1 72.607196264534451 20.358134441664895 -3.4496791094463441 0 0 -1 I I #
vertex $-1 $448 $499 #
straight-curve $-1 72.607196264534451 31.330314301091924 0 0 0 -1 I I #
coedge $-1 $359 $358 $351 $453 forward $348 $-1 #
edge $-1 $454 27.200087154465209 $457 30.163340056289528 $452 $500 forward 7 unknown #
vertex $-1 $453 $501 #
straight-curve $-1 -72.607196264534451 12.258310111021157 37.006368926669325 0 0 1 I I #
edge $-1 $457 4.1041989728496446 $360 12.204023303493379 $359 $502 forward 7 unknown #
vertex $-1 $456 $503 #
straight-curve $-1 -72.607196264534437 12.258310111021157 3.6114053545778688 -0.48480960649040278 0 -0.87461971476443456 I I #
point $-1 -72.607196264534451 12.258310111021157 3.6114053545778431 #
point $-1 -69.643943362710132 20.358134441664891 8.9572552987038545 #
straight-curve $-1 -72.607196264534451 0 8.9572552987038545 0 -1 0 I I #
vertex $-1 $366 $504 #
point $-1 -68.302078765534617 16.308222276343024 6.434274826900344 #
coedge $-1 $381 $380 $373 $465 forward $370 $-1 #
edge $-1 $466 92.80811410477672 $469 99.825675297157957 $464 $505 forward 7 unknown #
vertex $-1 $385 $506 #
straight-curve $-1 55.896264436768419 -20.358134441664898 8.9572552987038563 1 0 0 I I #
edge $-1 $469 -12.824477674518432 $382 -2.2428358597745 $381 $507 forward 7 unknown #
vertex $-1 $468 $508 #
straight-curve $-1 -8.5956597812836293 -20.358134441664898 122.32788276114304 -0.55919289150049634 0 0.82903758062907751 I I #
point $-1 67.873791620233945 -20.358134441664898 8.9572552987038563 #
point $-1 72.607196264534451 -9.776492626920966 1.9396941063226194 #
straight-curve $-1 72.607196264534451 0 8.9572552987038545 0 1 0 I I #
vertex $-1 $388 $509 #
point $-1 69.691052807505358 -18.24180607871611 4.4747630206981661 #
vertex $-1 $392 $510 #
point $-1 69.691052807505358 -15.067313534292932 4.4747630206981661 #
vertex $-1 $396 $511 #
point $-1 69.691052807505358 -11.892820989869755 4.4747630206981661 #
straight-curve $-1 -72.607196264534451 31.330314301091924 0 0 0 -1 I I #
point $-1 -72.607196264534451 -31.330314301091924 -8.9572552987038545 #
straight-curve $-1 -72.607196264534451 0 -8.9572552987038545 0 1 0 I I #
point $-1 -72.607196264534451 31.330314301091924 -8.9572552987038545 #
edge $-1 $433 -72.607196264534451 $486 72.607196264534451 $430 $512 forward 7 unknown #
straight-curve $-1 72.607196264534451 0 -8.9572552987038545 0 -1 0 I I #
vertex $-1 $421 $513 #
straight-curve $-1 -72.607196264534451 0 -8.9572552987038545 0 1 0 I I #
point $-1 -72.607196264534451 -20.358134441664895 -8.9572552987038545 #
straight-curve $-1 -72.607196264534451 -20.358134441664895 -3.4496791094463441 0 0 -1 I I #
straight-curve $-1 -72.607196264534451 -31.330314301091924 0 0 0 -1 I I #
point $-1 72.607196264534451 -31.330314301091924 -8.9572552987038545 #
coedge $-1 $437 $436 $445 $496 forward $216 $-1 #
point $-1 72.607196264534451 20.358134441664895 -8.9572552987038545 #
vertex $-1 $496 $514 #
straight-curve $-1 -72.607196264534451 0 -8.9572552987038545 0 1 0 I I #
edge $-1 $494 -72.607196264534451 $450 72.607196264534451 $445 $515 forward 7 unknown #
straight-curve $-1 -72.607196264534451 31.330314301091924 0 0 0 -1 I I #
straight-curve $-1 72.607196264534451 0 -8.9572552987038545 0 -1 0 I I #
point $-1 72.607196264534451 31.330314301091924 -8.9572552987038545 #
straight-curve $-1 -99.80728341899966 12.258310111021157 8.9572552987038563 1 0 0 I I #
point $-1 -72.607196264534451 12.258310111021157 8.9572552987038545 #
straight-curve $-1 -69.643943362710132 8.1541111381715119 8.9572552987038563 0 1 0 I I #
point $-1 -69.643943362710132 12.258310111021157 8.9572552987038545 #
point $-1 -67.717363603123573 16.308222276343024 4.3951308450180884 #
straight-curve $-1 72.607196264534451 -20.358134441664898 101.76536940348058 0 0 -1 I I #
point $-1 72.607196264534451 -20.358134441664898 8.9572552987038545 #
straight-curve $-1 72.607196264534451 -7.533656767146466 1.9396941063226194 0 1 0 I I #
point $-1 72.607196264534451 -20.358134441664898 1.9396941063226194 #
point $-1 68.996937571440569 -18.24180607871611 4.6096853652624565 #
point $-1 68.996937571440569 -15.067313534292932 4.6096853652624565 #
point $-1 68.996937571440569 -11.892820989869755 4.6096853652624565 #
straight-curve $-1 0 -31.330314301091924 -8.9572552987038545 -1 0 0 I I #
point $-1 -72.607196264534451 -31.330314301091924 -8.9572552987038545 #
point $-1 -72.607196264534451 31.330314301091924 -8.9572552987038545 #
straight-curve $-1 0 31.330314301091924 -8.9572552987038545 1 0 0 I I #
End-of-ACIS-data 