500 0 13 0           
7 Unknown 11 ACIS 5.0 NT 24 Fri Mar 26 17:36:24 1999 
-1 9.9999999999999995e-007 1e-010 
body $-1 $13 $-1 $14 #
body $-1 $15 $-1 $16 #
body $-1 $17 $-1 $18 #
body $-1 $19 $-1 $20 #
body $-1 $21 $-1 $22 #
body $-1 $23 $-1 $24 #
body $-1 $25 $-1 $26 #
body $-1 $27 $-1 $28 #
body $-1 $29 $-1 $30 #
body $-1 $31 $-1 $32 #
body $-1 $33 $-1 $34 #
body $-1 $35 $-1 $36 #
body $-1 $37 $-1 $38 #
lump $-1 $-1 $39 $0 #
transform $-1 1 0 0 0 1 0 0 0 1 62.556840723899043 30.570319766091064 11.573842642238921 1 rotate no_reflect no_shear #
lump $-1 $-1 $40 $1 #
transform $-1 1 0 0 0 1 0 0 0 1 62.556840723899043 30.570319766091064 11.573842642238921 1 rotate no_reflect no_shear #
lump $-1 $-1 $41 $2 #
transform $-1 1 0 0 0 1 0 0 0 1 62.556840723899043 30.570319766091064 11.573842642238921 1 rotate no_reflect no_shear #
lump $-1 $-1 $42 $3 #
transform $-1 1 0 0 0 1 0 0 0 1 62.556840723899043 30.570319766091064 11.573842642238921 1 rotate no_reflect no_shear #
lump $-1 $-1 $43 $4 #
transform $-1 1 0 0 0 1 0 0 0 1 62.556840723899043 30.570319766091064 11.573842642238921 1 rotate no_reflect no_shear #
lump $-1 $-1 $44 $5 #
transform $-1 1 0 0 0 1 0 0 0 1 62.556840723899043 30.570319766091064 11.573842642238921 1 rotate no_reflect no_shear #
lump $-1 $-1 $45 $6 #
transform $-1 1 0 0 0 1 0 0 0 1 62.556840723899043 30.570319766091064 11.573842642238921 1 rotate no_reflect no_shear #
lump $-1 $-1 $46 $7 #
transform $-1 1 0 0 0 1 0 0 0 1 62.556840723899043 30.570319766091064 11.573842642238921 1 rotate no_reflect no_shear #
lump $-1 $-1 $47 $8 #
transform $-1 1 0 0 0 1 0 0 0 1 62.556840723899043 30.570319766091064 11.573842642238921 1 rotate no_reflect no_shear #
lump $-1 $-1 $48 $9 #
transform $-1 1 0 0 0 1 0 0 0 1 62.556840723899043 30.570319766091064 11.573842642238921 1 rotate no_reflect no_shear #
lump $-1 $-1 $49 $10 #
transform $-1 1 0 0 0 1 0 0 0 1 62.556840723899043 30.570319766091064 11.573842642238921 1 rotate no_reflect no_shear #
lump $-1 $-1 $50 $11 #
transform $-1 1 0 0 0 1 0 0 0 1 62.556840723899043 30.570319766091064 11.573842642238921 1 rotate no_reflect no_shear #
lump $-1 $-1 $51 $12 #
transform $-1 1 0 0 0 1 0 0 0 1 62.556840723899043 30.570319766091064 11.573842642238921 1 rotate no_reflect no_shear #
shell $-1 $-1 $-1 $52 $-1 $13 #
shell $-1 $-1 $-1 $53 $-1 $15 #
shell $-1 $-1 $-1 $54 $-1 $17 #
shell $-1 $-1 $-1 $55 $-1 $19 #
shell $-1 $-1 $-1 $56 $-1 $21 #
shell $-1 $-1 $-1 $57 $-1 $23 #
shell $-1 $-1 $-1 $58 $-1 $25 #
shell $-1 $-1 $-1 $59 $-1 $27 #
shell $-1 $-1 $-1 $60 $-1 $29 #
shell $-1 $-1 $-1 $61 $-1 $31 #
shell $-1 $-1 $-1 $62 $-1 $33 #
shell $-1 $-1 $-1 $63 $-1 $35 #
shell $-1 $-1 $-1 $64 $-1 $37 #
face $-1 $65 $66 $39 $-1 $67 forward single #
face $-1 $68 $69 $40 $-1 $70 forward single #
face $-1 $71 $72 $41 $-1 $73 reversed single #
face $-1 $74 $75 $42 $-1 $76 forward single #
face $-1 $77 $78 $43 $-1 $79 forward single #
face $-1 $80 $81 $44 $-1 $82 reversed single #
face $-1 $83 $84 $45 $-1 $85 forward single #
face $-1 $86 $87 $46 $-1 $88 reversed single #
face $-1 $89 $90 $47 $-1 $91 forward single #
face $-1 $92 $93 $48 $-1 $94 reversed single #
face $-1 $95 $96 $49 $-1 $97 forward single #
face $-1 $98 $99 $50 $-1 $100 reversed single #
face $-1 $101 $102 $51 $-1 $103 forward single #
face $-1 $104 $105 $39 $-1 $106 reversed single #
loop $-1 $-1 $107 $52 #
plane-surface $-1 0 0 11.573842642238921 0 0 1 1 0 0 forward_v I I I I #
face $-1 $108 $109 $40 $-1 $110 reversed single #
loop $-1 $-1 $111 $53 #
plane-surface $-1 0 -30.570319766091064 0 0 1 0 0 0 1 forward_v I I I I #
face $-1 $112 $113 $41 $-1 $114 reversed single #
loop $-1 $-1 $115 $54 #
plane-surface $-1 81.051844363560107 -8.8079692678544284 181.26943274329969 0 -1 0 -0.77714596973225614 0 -0.62932038083071107 forward_v I I I I #
face $-1 $116 $117 $42 $-1 $118 forward single #
loop $-1 $119 $120 $55 #
cone-surface $-1 59.628545038855862 -13.286467982629532 8.1228860266628597 -0.77714596973225614 0 -0.62932038083071107 0.31466019041535553 0 -0.38857298486612807 1 I I 0 1 0.5 forward I I I I #
face $-1 $121 $122 $43 $-1 $123 forward single #
loop $-1 $124 $125 $56 #
cone-surface $-1 59.628545038855862 -10.59936875376447 8.1228860266628597 -0.77714596973225614 0 -0.62932038083071107 0.31466019041535553 0 -0.38857298486612807 1 I I 0 1 0.5 forward I I I I #
face $-1 $126 $127 $44 $-1 $128 reversed single #
loop $-1 $-1 $129 $57 #
plane-surface $-1 -137.85213477427021 -19.330127653211516 108.1806009651763 0 1 0 -0.6018150307709319 0 0.79863550430605224 forward_v I I I I #
face $-1 $130 $131 $45 $-1 $132 forward single #
loop $-1 $133 $134 $58 #
cone-surface $-1 -59.881962575226652 -15.521152700193403 9.2850140979298796 0.6018150307709319 0 -0.79863550430605224 0.79863550430605224 0 0.6018150307709319 1 I I 0 1 1 forward I I I I #
face $-1 $135 $136 $46 $-1 $137 reversed single #
loop $-1 $-1 $138 $59 #
plane-surface $-1 -137.85213477427021 -5.9743506862329934 108.1806009651763 0 1 0 -0.6018150307709319 0 0.79863550430605224 forward_v I I I I #
face $-1 $139 $140 $47 $-1 $141 forward single #
loop $-1 $142 $143 $60 #
cone-surface $-1 -59.881962575226652 -2.16537573321488 9.2850140979298796 0.6018150307709319 0 -0.79863550430605224 0.79863550430605224 0 0.6018150307709319 1 I I 0 1 1 forward I I I I #
face $-1 $144 $145 $48 $-1 $146 reversed single #
loop $-1 $-1 $147 $61 #
plane-surface $-1 -137.85213477427021 7.3814262807455275 108.1806009651763 0 1 0 -0.6018150307709319 0 0.79863550430605224 forward_v I I I I #
face $-1 $148 $149 $49 $-1 $150 forward single #
loop $-1 $151 $152 $62 #
cone-surface $-1 -59.881962575226652 11.190401233763641 9.2850140979298796 0.6018150307709319 0 -0.79863550430605224 0.79863550430605224 0 0.6018150307709319 1 I I 0 1 1 forward I I I I #
face $-1 $153 $154 $50 $-1 $155 reversed single #
loop $-1 $-1 $156 $63 #
plane-surface $-1 -137.85213477427021 20.737203247724054 108.1806009651763 0 1 0 -0.6018150307709319 0 0.79863550430605224 forward_v I I I I #
face $-1 $157 $158 $51 $-1 $159 forward single #
loop $-1 $160 $161 $64 #
cone-surface $-1 -59.881962575226652 24.546178200742165 9.2850140979298796 0.6018150307709319 0 -0.79863550430605224 0.79863550430605224 0 0.6018150307709319 1 I I 0 1 1 forward I I I I #
face $-1 $162 $163 $39 $-1 $164 reversed single #
loop $-1 $-1 $165 $65 #
plane-surface $-1 0 0 -11.573842642238921 0 0 1 1 0 0 forward_v I I I I #
coedge $-1 $166 $167 $168 $169 forward $66 $-1 #
face $-1 $170 $171 $40 $-1 $172 reversed single #
loop $-1 $-1 $173 $68 #
plane-surface $-1 0 0 -11.573842642238921 0 0 1 1 0 0 forward_v I I I I #
coedge $-1 $174 $175 $176 $177 forward $69 $-1 #
face $-1 $178 $179 $41 $-1 $180 reversed single #
loop $-1 $-1 $181 $71 #
plane-surface $-1 -16.179748931961527 -11.942918368196999 102.53284308743912 0.77714596973225614 0 0.62932038083071107 0.62932038083071107 0 -0.77714596973225614 forward_v I I I I #
coedge $-1 $182 $183 $184 $185 reversed $72 $-1 #
face $-1 $-1 $186 $42 $-1 $187 forward single #
loop $-1 $188 $189 $74 #
cone-surface $-1 59.045685561556667 -13.286467982629532 7.6508957410398271 -0.77714596973225614 0 -0.62932038083071107 0.15733009520767777 0 -0.19428649243306403 1 I I -0.70710678118654746 0.70710678118654746 0.25 forward I I I I #
loop $-1 $-1 $190 $55 #
coedge $-1 $120 $120 $191 $192 reversed $75 $-1 #
face $-1 $-1 $193 $43 $-1 $194 forward single #
loop $-1 $195 $196 $77 #
cone-surface $-1 59.045685561556667 -10.59936875376447 7.6508957410398271 -0.77714596973225614 0 -0.62932038083071107 0.15733009520767777 0 -0.19428649243306403 1 I I -0.70710678118654746 0.70710678118654746 0.25 forward I I I I #
loop $-1 $-1 $197 $56 #
coedge $-1 $125 $125 $198 $199 reversed $78 $-1 #
face $-1 $200 $201 $44 $-1 $202 reversed single #
loop $-1 $-1 $203 $80 #
plane-surface $-1 -62.556840723899043 -15.521152700193403 8.2603728865273069 -0.6018150307709319 0 0.79863550430605224 0.79863550430605224 0 0.6018150307709319 forward_v I I I I #
coedge $-1 $204 $205 $206 $207 reversed $81 $-1 #
face $-1 $-1 $208 $45 $-1 $209 forward single #
loop $-1 $210 $211 $83 #
cone-surface $-1 -59.104738307986779 -15.521152700193403 8.2536026793236186 0.6018150307709319 0 -0.79863550430605224 0.39931775215302612 0 0.30090751538546595 1 I I -0.70710678118654746 0.70710678118654746 0.5 forward I I I I #
loop $-1 $-1 $212 $58 #
coedge $-1 $134 $134 $213 $214 reversed $84 $-1 #
face $-1 $215 $216 $46 $-1 $217 reversed single #
loop $-1 $-1 $218 $86 #
plane-surface $-1 -62.556840723899043 -2.16537573321488 8.2603728865273069 -0.6018150307709319 0 0.79863550430605224 0.79863550430605224 0 0.6018150307709319 forward_v I I I I #
coedge $-1 $219 $220 $221 $222 reversed $87 $-1 #
face $-1 $-1 $223 $47 $-1 $224 forward single #
loop $-1 $225 $226 $89 #
cone-surface $-1 -59.104738307986779 -2.16537573321488 8.2536026793236186 0.6018150307709319 0 -0.79863550430605224 0.39931775215302612 0 0.30090751538546595 1 I I -0.70710678118654746 0.70710678118654746 0.5 forward I I I I #
loop $-1 $-1 $227 $60 #
coedge $-1 $143 $143 $228 $229 reversed $90 $-1 #
face $-1 $230 $231 $48 $-1 $232 reversed single #
loop $-1 $-1 $233 $92 #
plane-surface $-1 -62.556840723899043 11.190401233763641 8.2603728865273069 -0.6018150307709319 0 0.79863550430605224 0.79863550430605224 0 0.6018150307709319 forward_v I I I I #
coedge $-1 $234 $235 $236 $237 reversed $93 $-1 #
face $-1 $-1 $238 $49 $-1 $239 forward single #
loop $-1 $240 $241 $95 #
cone-surface $-1 -59.104738307986779 11.190401233763641 8.2536026793236186 0.6018150307709319 0 -0.79863550430605224 0.39931775215302612 0 0.30090751538546595 1 I I -0.70710678118654746 0.70710678118654746 0.5 forward I I I I #
loop $-1 $-1 $242 $62 #
coedge $-1 $152 $152 $243 $244 reversed $96 $-1 #
face $-1 $245 $246 $50 $-1 $247 reversed single #
loop $-1 $-1 $248 $98 #
plane-surface $-1 -62.556840723899043 24.546178200742165 8.2603728865273069 -0.6018150307709319 0 0.79863550430605224 0.79863550430605224 0 0.6018150307709319 forward_v I I I I #
coedge $-1 $249 $250 $251 $252 reversed $99 $-1 #
face $-1 $-1 $253 $51 $-1 $254 forward single #
loop $-1 $255 $256 $101 #
cone-surface $-1 -59.104738307986779 24.546178200742165 8.2536026793236186 0.6018150307709319 0 -0.79863550430605224 0.39931775215302612 0 0.30090751538546595 1 I I -0.70710678118654746 0.70710678118654746 0.5 forward I I I I #
loop $-1 $-1 $257 $64 #
coedge $-1 $161 $161 $258 $259 reversed $102 $-1 #
face $-1 $260 $261 $39 $-1 $262 reversed single #
loop $-1 $-1 $263 $104 #
plane-surface $-1 0 -30.570319766091064 0 0 1 0 0 0 1 forward_v I I I I #
coedge $-1 $264 $265 $266 $267 forward $105 $-1 #
coedge $-1 $268 $107 $269 $270 forward $66 $-1 #
coedge $-1 $107 $268 $271 $272 forward $66 $-1 #
coedge $-1 $273 $274 $107 $169 reversed $275 $-1 #
edge $-1 $276 -30.570319766091064 $277 30.570319766091064 $168 $278 forward 7 unknown #
face $-1 $279 $280 $40 $-1 $281 forward single #
loop $-1 $-1 $282 $108 #
plane-surface $-1 62.556840723899043 0 0 -1 0 0 0 0 1 forward_v I I I I #
coedge $-1 $283 $284 $285 $286 forward $109 $-1 #
coedge $-1 $285 $111 $282 $287 reversed $69 $-1 #
coedge $-1 $111 $285 $288 $289 reversed $69 $-1 #
coedge $-1 $290 $291 $111 $177 reversed $280 $-1 #
edge $-1 $292 -62.556840723899043 $293 62.556840723899043 $176 $294 forward 7 unknown #
face $-1 $295 $296 $41 $-1 $297 reversed single #
loop $-1 $-1 $298 $112 #
plane-surface $-1 81.051844363560107 -15.077867468539569 181.26943274329969 0 1 0 0.77714596973225614 0 0.62932038083071107 forward_v I I I I #
coedge $-1 $299 $300 $301 $302 reversed $113 $-1 #
coedge $-1 $183 $115 $303 $304 reversed $72 $-1 #
coedge $-1 $115 $182 $299 $305 reversed $72 $-1 #
coedge $-1 $301 $306 $115 $185 forward $307 $-1 #
edge $-1 $308 -22.030918542118989 $309 -16.951473141764829 $184 $310 forward 7 unknown #
loop $-1 $-1 $191 $116 #
plane-surface $-1 -16.179748931961527 -11.942918368196999 102.53284308743912 0.77714596973225614 0 0.62932038083071107 0.62932038083071107 0 -0.77714596973225614 forward_v I I I I #
loop $-1 $-1 $311 $74 #
coedge $-1 $189 $189 $190 $312 reversed $117 $-1 #
coedge $-1 $190 $190 $189 $312 forward $119 $-1 #
coedge $-1 $191 $191 $120 $192 forward $186 $-1 #
edge $-1 $313 0 $313 6.2831853071796004 $191 $314 forward 7 unknown #
loop $-1 $-1 $198 $121 #
plane-surface $-1 -16.179748931961527 -11.942918368196999 102.53284308743912 0.77714596973225614 0 0.62932038083071107 0.62932038083071107 0 -0.77714596973225614 forward_v I I I I #
loop $-1 $-1 $315 $77 #
coedge $-1 $196 $196 $197 $316 reversed $122 $-1 #
coedge $-1 $197 $197 $196 $316 forward $124 $-1 #
coedge $-1 $198 $198 $125 $199 forward $193 $-1 #
edge $-1 $317 0 $317 6.2831853071796004 $198 $318 forward 7 unknown #
face $-1 $319 $320 $44 $-1 $321 forward single #
loop $-1 $-1 $322 $126 #
plane-surface $-1 -137.85213477427021 -11.712177747175289 108.1806009651763 0 -1 0 0.6018150307709319 0 -0.79863550430605224 forward_v I I I I #
coedge $-1 $323 $324 $325 $326 reversed $127 $-1 #
coedge $-1 $205 $129 $327 $328 reversed $81 $-1 #
coedge $-1 $129 $204 $323 $329 reversed $81 $-1 #
coedge $-1 $325 $330 $129 $207 forward $320 $-1 #
edge $-1 $331 6.3692266632360628 $332 10.766349456872035 $206 $333 forward 7 unknown #
loop $-1 $-1 $213 $130 #
plane-surface $-1 -62.556840723899043 -15.521152700193403 8.2603728865273069 -0.6018150307709319 0 0.79863550430605224 0.79863550430605224 0 0.6018150307709319 forward_v I I I I #
loop $-1 $-1 $334 $83 #
coedge $-1 $211 $211 $212 $335 reversed $131 $-1 #
coedge $-1 $212 $212 $211 $335 forward $133 $-1 #
coedge $-1 $213 $213 $134 $214 forward $208 $-1 #
edge $-1 $336 0 $336 6.2831853071796004 $213 $337 forward 7 unknown #
face $-1 $338 $339 $46 $-1 $340 forward single #
loop $-1 $-1 $341 $135 #
plane-surface $-1 -137.85213477427021 1.6435992198032334 108.1806009651763 0 -1 0 0.6018150307709319 0 -0.79863550430605224 forward_v I I I I #
coedge $-1 $342 $343 $344 $345 reversed $136 $-1 #
coedge $-1 $220 $138 $346 $347 reversed $87 $-1 #
coedge $-1 $138 $219 $342 $348 reversed $87 $-1 #
coedge $-1 $344 $349 $138 $222 forward $339 $-1 #
edge $-1 $350 6.3692266632360628 $351 10.766349456872035 $221 $352 forward 7 unknown #
loop $-1 $-1 $228 $139 #
plane-surface $-1 -62.556840723899043 -2.16537573321488 8.2603728865273069 -0.6018150307709319 0 0.79863550430605224 0.79863550430605224 0 0.6018150307709319 forward_v I I I I #
loop $-1 $-1 $353 $89 #
coedge $-1 $226 $226 $227 $354 reversed $140 $-1 #
coedge $-1 $227 $227 $226 $354 forward $142 $-1 #
coedge $-1 $228 $228 $143 $229 forward $223 $-1 #
edge $-1 $355 0 $355 6.2831853071796004 $228 $356 forward 7 unknown #
face $-1 $357 $358 $48 $-1 $359 forward single #
loop $-1 $-1 $360 $144 #
plane-surface $-1 -137.85213477427021 14.999376186781754 108.1806009651763 0 -1 0 0.6018150307709319 0 -0.79863550430605224 forward_v I I I I #
coedge $-1 $361 $362 $363 $364 reversed $145 $-1 #
coedge $-1 $235 $147 $365 $366 reversed $93 $-1 #
coedge $-1 $147 $234 $361 $367 reversed $93 $-1 #
coedge $-1 $363 $368 $147 $237 forward $358 $-1 #
edge $-1 $369 6.3692266632360628 $370 10.766349456872035 $236 $371 forward 7 unknown #
loop $-1 $-1 $243 $148 #
plane-surface $-1 -62.556840723899043 11.190401233763641 8.2603728865273069 -0.6018150307709319 0 0.79863550430605224 0.79863550430605224 0 0.6018150307709319 forward_v I I I I #
loop $-1 $-1 $372 $95 #
coedge $-1 $241 $241 $242 $373 reversed $149 $-1 #
coedge $-1 $242 $242 $241 $373 forward $151 $-1 #
coedge $-1 $243 $243 $152 $244 forward $238 $-1 #
edge $-1 $374 0 $374 6.2831853071796004 $243 $375 forward 7 unknown #
face $-1 $376 $377 $50 $-1 $378 forward single #
loop $-1 $-1 $379 $153 #
plane-surface $-1 -137.85213477427021 28.355153153760277 108.1806009651763 0 -1 0 0.6018150307709319 0 -0.79863550430605224 forward_v I I I I #
coedge $-1 $380 $381 $382 $383 reversed $154 $-1 #
coedge $-1 $250 $156 $384 $385 reversed $99 $-1 #
coedge $-1 $156 $249 $380 $386 reversed $99 $-1 #
coedge $-1 $382 $387 $156 $252 forward $377 $-1 #
edge $-1 $388 6.3692266632360628 $389 10.766349456872035 $251 $390 forward 7 unknown #
loop $-1 $-1 $258 $157 #
plane-surface $-1 -62.556840723899043 24.546178200742165 8.2603728865273069 -0.6018150307709319 0 0.79863550430605224 0.79863550430605224 0 0.6018150307709319 forward_v I I I I #
loop $-1 $-1 $391 $101 #
coedge $-1 $256 $256 $257 $392 reversed $158 $-1 #
coedge $-1 $257 $257 $256 $392 forward $160 $-1 #
coedge $-1 $258 $258 $161 $259 forward $253 $-1 #
edge $-1 $393 0 $393 6.2831853071796004 $258 $394 forward 7 unknown #
face $-1 $395 $396 $39 $-1 $397 reversed single #
loop $-1 $-1 $398 $162 #
plane-surface $-1 -62.556840723899043 0 0 1 0 0 0 0 -1 forward_v I I I I #
coedge $-1 $399 $271 $400 $401 forward $163 $-1 #
coedge $-1 $402 $165 $399 $403 forward $105 $-1 #
coedge $-1 $165 $402 $404 $405 forward $105 $-1 #
coedge $-1 $274 $273 $165 $267 reversed $275 $-1 #
edge $-1 $406 -30.570319766091064 $407 30.570319766091064 $266 $408 forward 7 unknown #
coedge $-1 $167 $166 $409 $410 forward $66 $-1 #
coedge $-1 $411 $412 $166 $270 reversed $396 $-1 #
edge $-1 $277 -62.556840723899043 $413 62.556840723899043 $269 $414 forward 7 unknown #
coedge $-1 $263 $415 $167 $272 reversed $163 $-1 #
edge $-1 $416 -62.556840723899043 $276 62.556840723899043 $271 $417 forward 7 unknown #
coedge $-1 $266 $168 $415 $418 forward $275 $-1 #
coedge $-1 $168 $266 $411 $419 reversed $275 $-1 #
loop $-1 $-1 $273 $395 #
vertex $-1 $169 $420 #
vertex $-1 $169 $421 #
straight-curve $-1 62.556840723899043 0 11.573842642238921 0 1 0 I I #
face $-1 $422 $423 $40 $-1 $424 reversed single #
loop $-1 $-1 $291 $170 #
plane-surface $-1 0 -34.429085598225086 -7.1953011779082798 0 0 1 1 0 0 forward_v I I I I #
coedge $-1 $425 $426 $174 $287 forward $171 $-1 #
coedge $-1 $427 $173 $426 $428 forward $109 $-1 #
coedge $-1 $173 $427 $429 $430 forward $109 $-1 #
coedge $-1 $175 $174 $173 $286 reversed $69 $-1 #
edge $-1 $431 -62.556840723899043 $432 62.556840723899043 $173 $433 forward 7 unknown #
edge $-1 $432 -11.573842642238921 $293 -7.1953011779082798 $282 $434 forward 7 unknown #
coedge $-1 $429 $435 $175 $289 forward $436 $-1 #
edge $-1 $292 7.1953011779082798 $431 11.573842642238921 $288 $437 forward 7 unknown #
coedge $-1 $438 $176 $435 $439 forward $280 $-1 #
coedge $-1 $176 $438 $425 $440 forward $280 $-1 #
vertex $-1 $289 $441 #
vertex $-1 $440 $442 #
straight-curve $-1 0 -30.570319766091064 -7.1953011779082798 1 0 0 I I #
face $-1 $-1 $307 $41 $-1 $443 forward single #
loop $-1 $-1 $444 $178 #
plane-surface $-1 62.556840723899043 0 0 -1 0 0 0 0 1 forward_v I I I I #
coedge $-1 $445 $446 $447 $448 reversed $179 $-1 #
coedge $-1 $449 $181 $183 $305 forward $113 $-1 #
coedge $-1 $181 $449 $445 $450 forward $113 $-1 #
coedge $-1 $447 $184 $181 $302 forward $307 $-1 #
edge $-1 $309 2.8365100837559289 $451 9.1064082844410699 $301 $452 forward 7 unknown #
coedge $-1 $453 $454 $182 $304 forward $296 $-1 #
edge $-1 $455 -85.333466579732359 $308 -79.060873729410929 $303 $456 forward 7 unknown #
edge $-1 $309 117.04236268063974 $455 125.11368144779809 $183 $457 forward 7 unknown #
coedge $-1 $184 $447 $453 $458 forward $307 $-1 #
loop $-1 $-1 $447 $295 #
vertex $-1 $304 $459 #
vertex $-1 $185 $460 #
straight-curve $-1 40.525922181780054 -8.8079692678544284 11.573842642238915 -1 0 0 I I #
coedge $-1 $311 $311 $-1 $461 reversed $188 $-1 #
edge $-1 $462 0 $462 6.2831853071796004 $189 $463 forward 7 unknown #
vertex $-1 $192 $464 #
ellipse-curve $-1 60.01711802372197 -13.286467982629532 8.4375462170781965 0.77714596973225614 0 0.62932038083071107 0.31466019041535553 0 -0.38857298486612807 1 I I #
coedge $-1 $315 $315 $-1 $465 reversed $195 $-1 #
edge $-1 $466 0 $466 6.2831853071796004 $196 $467 forward 7 unknown #
vertex $-1 $199 $468 #
ellipse-curve $-1 60.01711802372197 -10.59936875376447 8.4375462170781965 0.77714596973225614 0 0.62932038083071107 0.31466019041535553 0 -0.38857298486612807 1 I I #
face $-1 $-1 $469 $44 $-1 $470 reversed single #
loop $-1 $-1 $206 $200 #
plane-surface $-1 0 0 11.573842642238921 0 0 1 1 0 0 forward_v I I I I #
coedge $-1 $471 $472 $473 $474 reversed $201 $-1 #
coedge $-1 $475 $203 $205 $329 forward $127 $-1 #
coedge $-1 $203 $475 $471 $476 forward $127 $-1 #
coedge $-1 $473 $206 $203 $326 forward $320 $-1 #
edge $-1 $332 -11.569551303114814 $477 -3.9516013970785879 $325 $478 forward 7 unknown #
coedge $-1 $479 $480 $204 $328 forward $469 $-1 #
edge $-1 $481 -45.829927596060841 $331 -42.516457840349226 $327 $482 forward 7 unknown #
edge $-1 $332 -5.5057942827832393 $481 0 $205 $483 forward 7 unknown #
coedge $-1 $206 $473 $479 $484 forward $320 $-1 #
vertex $-1 $328 $485 #
vertex $-1 $207 $486 #
straight-curve $-1 -68.926067387135106 -19.330127653211516 11.573842642238922 1 0 0 I I #
coedge $-1 $334 $334 $-1 $487 reversed $210 $-1 #
edge $-1 $488 0 $488 6.2831853071796004 $211 $489 forward 7 unknown #
vertex $-1 $214 $490 #
ellipse-curve $-1 -60.358279327081057 -15.521152700193403 9.9171077643831147 -0.6018150307709319 0 0.79863550430605224 0.79863550430605224 0 0.6018150307709319 1 I I #
face $-1 $-1 $491 $46 $-1 $492 reversed single #
loop $-1 $-1 $221 $215 #
plane-surface $-1 0 0 11.573842642238921 0 0 1 1 0 0 forward_v I I I I #
coedge $-1 $493 $494 $495 $496 reversed $216 $-1 #
coedge $-1 $497 $218 $220 $348 forward $136 $-1 #
coedge $-1 $218 $497 $493 $498 forward $136 $-1 #
coedge $-1 $495 $221 $218 $345 forward $339 $-1 #
edge $-1 $351 -4.8916628196255534 $499 2.7262870864106734 $344 $500 forward 7 unknown #
coedge $-1 $501 $502 $219 $347 forward $491 $-1 #
edge $-1 $503 -45.829927596060841 $350 -42.516457840349226 $346 $504 forward 7 unknown #
edge $-1 $351 -5.5057942827832393 $503 0 $220 $505 forward 7 unknown #
coedge $-1 $221 $495 $501 $506 forward $339 $-1 #
vertex $-1 $222 $507 #
vertex $-1 $222 $508 #
straight-curve $-1 -68.926067387135106 -5.9743506862329934 11.573842642238922 1 0 0 I I #
coedge $-1 $353 $353 $-1 $509 reversed $225 $-1 #
edge $-1 $510 0 $510 6.2831853071796004 $226 $511 forward 7 unknown #
vertex $-1 $229 $512 #
ellipse-curve $-1 -60.358279327081057 -2.16537573321488 9.9171077643831147 -0.6018150307709319 0 0.79863550430605224 0.79863550430605224 0 0.6018150307709319 1 I I #
face $-1 $-1 $513 $48 $-1 $514 reversed single #
loop $-1 $-1 $236 $230 #
plane-surface $-1 0 0 11.573842642238921 0 0 1 1 0 0 forward_v I I I I #
coedge $-1 $515 $516 $517 $518 reversed $231 $-1 #
coedge $-1 $519 $233 $235 $367 forward $145 $-1 #
coedge $-1 $233 $519 $515 $520 forward $145 $-1 #
coedge $-1 $517 $236 $233 $364 forward $358 $-1 #
edge $-1 $370 1.7862256638637071 $521 9.4041755698999339 $363 $522 forward 7 unknown #
coedge $-1 $523 $524 $234 $366 forward $513 $-1 #
edge $-1 $525 -45.829927596060841 $369 -42.516457840349226 $365 $526 forward 7 unknown #
edge $-1 $370 -5.5057942827832393 $525 0 $235 $527 forward 7 unknown #
coedge $-1 $236 $517 $523 $528 forward $358 $-1 #
vertex $-1 $237 $529 #
vertex $-1 $237 $530 #
straight-curve $-1 -68.926067387135106 7.3814262807455275 11.573842642238922 1 0 0 I I #
coedge $-1 $372 $372 $-1 $531 reversed $240 $-1 #
edge $-1 $532 0 $532 6.2831853071796004 $241 $533 forward 7 unknown #
vertex $-1 $244 $534 #
ellipse-curve $-1 -60.358279327081057 11.190401233763641 9.9171077643831147 -0.6018150307709319 0 0.79863550430605224 0.79863550430605224 0 0.6018150307709319 1 I I #
face $-1 $-1 $535 $50 $-1 $536 reversed single #
loop $-1 $-1 $251 $245 #
plane-surface $-1 0 0 11.573842642238921 0 0 1 1 0 0 forward_v I I I I #
coedge $-1 $537 $538 $539 $540 reversed $246 $-1 #
coedge $-1 $541 $248 $250 $386 forward $154 $-1 #
coedge $-1 $248 $541 $537 $542 forward $154 $-1 #
coedge $-1 $539 $251 $248 $383 forward $377 $-1 #
edge $-1 $389 8.4641141473529711 $543 16.082064053389196 $382 $544 forward 7 unknown #
coedge $-1 $545 $546 $249 $385 forward $535 $-1 #
edge $-1 $547 -45.829927596060841 $388 -42.516457840349226 $384 $548 forward 7 unknown #
edge $-1 $389 -5.5057942827832393 $547 0 $250 $549 forward 7 unknown #
coedge $-1 $251 $539 $545 $550 forward $377 $-1 #
vertex $-1 $252 $551 #
vertex $-1 $252 $552 #
straight-curve $-1 -68.926067387135106 20.737203247724054 11.573842642238922 1 0 0 I I #
coedge $-1 $391 $391 $-1 $553 reversed $255 $-1 #
edge $-1 $554 0 $554 6.2831853071796004 $256 $555 forward 7 unknown #
vertex $-1 $259 $556 #
ellipse-curve $-1 -60.358279327081057 24.546178200742165 9.9171077643831147 -0.6018150307709319 0 0.79863550430605224 0.79863550430605224 0 0.6018150307709319 1 I I #
face $-1 $-1 $275 $39 $-1 $557 reversed single #
loop $-1 $-1 $411 $260 #
plane-surface $-1 0 30.570319766091064 0 0 -1 0 0 0 -1 forward_v I I I I #
coedge $-1 $558 $409 $412 $559 forward $261 $-1 #
coedge $-1 $415 $263 $264 $403 reversed $163 $-1 #
coedge $-1 $409 $558 $263 $401 reversed $261 $-1 #
edge $-1 $416 -11.573842642238921 $560 11.573842642238921 $400 $561 forward 7 unknown #
coedge $-1 $265 $264 $558 $562 forward $105 $-1 #
edge $-1 $407 -62.556840723899043 $560 62.556840723899043 $399 $563 forward 7 unknown #
coedge $-1 $412 $411 $265 $405 reversed $396 $-1 #
edge $-1 $564 -62.556840723899043 $406 62.556840723899043 $404 $565 forward 7 unknown #
vertex $-1 $267 $566 #
vertex $-1 $418 $567 #
straight-curve $-1 62.556840723899043 0 -11.573842642238921 0 -1 0 I I #
coedge $-1 $398 $400 $268 $410 reversed $261 $-1 #
edge $-1 $413 -30.570319766091064 $416 30.570319766091064 $409 $568 forward 7 unknown #
coedge $-1 $404 $269 $274 $419 forward $396 $-1 #
coedge $-1 $269 $404 $398 $559 reversed $396 $-1 #
vertex $-1 $270 $569 #
straight-curve $-1 0 30.570319766091064 11.573842642238921 -1 0 0 I I #
coedge $-1 $271 $399 $273 $418 reversed $163 $-1 #
vertex $-1 $410 $570 #
straight-curve $-1 0 -30.570319766091064 11.573842642238921 1 0 0 I I #
edge $-1 $276 -11.573842642238921 $407 11.573842642238921 $273 $571 forward 7 unknown #
edge $-1 $277 -11.573842642238921 $406 11.573842642238921 $274 $572 forward 7 unknown #
point $-1 62.556840723899043 -30.570319766091064 11.573842642238921 #
point $-1 62.556840723899043 30.570319766091064 11.573842642238921 #
face $-1 $-1 $436 $40 $-1 $573 reversed single #
loop $-1 $-1 $574 $279 #
plane-surface $-1 0 -38.287851430359105 -9.3845719100735998 0 1 0 0 0 1 forward_v I I I I #
coedge $-1 $575 $282 $291 $440 reversed $171 $-1 #
coedge $-1 $282 $575 $283 $428 reversed $171 $-1 #
coedge $-1 $284 $283 $576 $577 forward $109 $-1 #
edge $-1 $432 30.570319766091064 $578 38.287851430359105 $426 $579 forward 7 unknown #
coedge $-1 $580 $288 $284 $430 reversed $436 $-1 #
edge $-1 $581 -38.287851430359105 $431 -30.570319766091064 $429 $582 forward 7 unknown #
vertex $-1 $289 $583 #
vertex $-1 $428 $584 #
straight-curve $-1 0 -30.570319766091064 -11.573842642238921 1 0 0 I I #
straight-curve $-1 62.556840723899043 -30.570319766091064 0 0 0 1 I I #
coedge $-1 $288 $580 $290 $439 reversed $436 $-1 #
loop $-1 $-1 $288 $422 #
straight-curve $-1 -62.556840723899043 -30.570319766091064 0 0 0 -1 I I #
coedge $-1 $291 $290 $585 $586 forward $280 $-1 #
edge $-1 $292 -3.8587658321340186 $587 3.8587658321340186 $435 $588 forward 7 unknown #
edge $-1 $589 -3.8587658321340186 $293 3.8587658321340186 $425 $590 forward 7 unknown #
point $-1 -62.556840723899043 -30.570319766091067 -7.1953011779082798 #
point $-1 62.556840723899043 -30.570319766091067 -7.1953011779082798 #
plane-surface $-1 0 0 11.573842642238921 0 0 1 1 0 0 forward_v I I I I #
coedge $-1 $454 $453 $446 $591 forward $296 $-1 #
coedge $-1 $446 $298 $300 $450 reversed $179 $-1 #
coedge $-1 $298 $445 $444 $591 reversed $179 $-1 #
coedge $-1 $306 $301 $298 $448 forward $307 $-1 #
edge $-1 $451 16.951473141764829 $592 22.030918542118989 $447 $593 forward 7 unknown #
coedge $-1 $300 $299 $454 $594 reversed $113 $-1 #
edge $-1 $595 -125.11368144779809 $451 -117.04236268063974 $445 $596 forward 7 unknown #
vertex $-1 $302 $597 #
straight-curve $-1 57.477395323544869 -5.9714591840984994 11.57384264223893 0 -1 0 I I #
coedge $-1 $444 $303 $306 $458 reversed $296 $-1 #
coedge $-1 $303 $444 $449 $594 forward $296 $-1 #
vertex $-1 $304 $598 #
straight-curve $-1 62.556840723899043 -8.8079692678544284 90.634716371649844 0 0 1 I I #
straight-curve $-1 -16.179748931961527 -8.8079692678544284 102.53284308743912 0.62932038083071107 0 -0.77714596973225614 I I #
edge $-1 $592 -15.077867468539569 $308 -8.8079692678544284 $453 $599 forward 7 unknown #
point $-1 62.556840723899043 -8.8079692678544284 11.573842642238921 #
point $-1 57.477395323544883 -8.8079692678544284 11.573842642238915 #
edge $-1 $600 1 $600 0 $311 $-1 forward 7 unknown #
vertex $-1 $312 $601 #
ellipse-curve $-1 59.239972053989732 -13.286467982629532 7.8082258362475052 0.77714596973225614 0 0.62932038083071107 0.31466019041535553 0 -0.38857298486612807 1 I I #
point $-1 60.331778214137344 -13.286467982629532 8.0489732322120879 #
edge $-1 $602 1 $602 0 $315 $-1 forward 7 unknown #
vertex $-1 $316 $603 #
ellipse-curve $-1 59.239972053989732 -10.59936875376447 7.8082258362475052 0.77714596973225614 0 0.62932038083071107 0.31466019041535553 0 -0.38857298486612807 1 I I #
point $-1 60.331778214137344 -10.59936875376447 8.0489732322120879 #
loop $-1 $-1 $327 $319 #
plane-surface $-1 -62.556840723899043 0 0 1 0 0 0 0 -1 forward_v I I I I #
coedge $-1 $472 $322 $324 $476 reversed $201 $-1 #
coedge $-1 $322 $471 $604 $605 reversed $201 $-1 #
coedge $-1 $330 $325 $322 $474 forward $320 $-1 #
edge $-1 $477 -10.766349456872035 $606 -6.3692266632360628 $473 $607 forward 7 unknown #
coedge $-1 $324 $323 $480 $608 reversed $127 $-1 #
edge $-1 $609 0 $477 5.5057942827832393 $471 $610 forward 7 unknown #
vertex $-1 $326 $611 #
straight-curve $-1 -58.159717930263085 -7.7605763500967013 11.573842642238919 0 1 0 I I #
coedge $-1 $604 $327 $330 $484 reversed $469 $-1 #
coedge $-1 $327 $604 $475 $608 forward $469 $-1 #
vertex $-1 $328 $612 #
straight-curve $-1 -62.556840723899043 -19.330127653211516 54.090300482588148 0 0 1 I I #
straight-curve $-1 -62.556840723899043 -19.330127653211516 8.2603728865273069 -0.79863550430605224 0 -0.6018150307709319 I I #
edge $-1 $606 11.712177747175289 $331 19.330127653211516 $479 $613 forward 7 unknown #
point $-1 -62.556840723899043 -19.330127653211516 11.573842642238921 #
point $-1 -58.159717930263071 -19.330127653211516 11.573842642238921 #
edge $-1 $614 1 $614 0 $334 $-1 forward 7 unknown #
vertex $-1 $335 $615 #
ellipse-curve $-1 -59.405645823372247 -15.521152700193403 8.6529204314766446 -0.6018150307709319 0 0.79863550430605224 0.79863550430605224 0 0.6018150307709319 1 I I #
point $-1 -59.559643822775008 -15.521152700193403 10.518922795154047 #
loop $-1 $-1 $346 $338 #
plane-surface $-1 -62.556840723899043 0 0 1 0 0 0 0 -1 forward_v I I I I #
coedge $-1 $494 $341 $343 $498 reversed $216 $-1 #
coedge $-1 $341 $493 $616 $617 reversed $216 $-1 #
coedge $-1 $349 $344 $341 $496 forward $339 $-1 #
edge $-1 $499 -10.766349456872035 $618 -6.3692266632360628 $495 $619 forward 7 unknown #
coedge $-1 $343 $342 $502 $620 reversed $136 $-1 #
edge $-1 $621 0 $499 5.5057942827832393 $493 $622 forward 7 unknown #
vertex $-1 $345 $623 #
straight-curve $-1 -58.159717930263085 -1.08268786660744 11.573842642238919 0 1 0 I I #
coedge $-1 $616 $346 $349 $506 reversed $491 $-1 #
coedge $-1 $346 $616 $497 $620 forward $491 $-1 #
vertex $-1 $347 $624 #
straight-curve $-1 -62.556840723899043 -5.9743506862329934 54.090300482588148 0 0 1 I I #
straight-curve $-1 -62.556840723899043 -5.9743506862329934 8.2603728865273069 -0.79863550430605224 0 -0.6018150307709319 I I #
edge $-1 $618 -1.6435992198032334 $350 5.9743506862329934 $501 $625 forward 7 unknown #
point $-1 -62.556840723899043 -5.9743506862329934 11.573842642238921 #
point $-1 -58.159717930263071 -5.9743506862329934 11.573842642238921 #
edge $-1 $626 1 $626 0 $353 $-1 forward 7 unknown #
vertex $-1 $354 $627 #
ellipse-curve $-1 -59.405645823372247 -2.16537573321488 8.6529204314766446 -0.6018150307709319 0 0.79863550430605224 0.79863550430605224 0 0.6018150307709319 1 I I #
point $-1 -59.559643822775008 -2.16537573321488 10.518922795154047 #
loop $-1 $-1 $365 $357 #
plane-surface $-1 -62.556840723899043 0 0 1 0 0 0 0 -1 forward_v I I I I #
coedge $-1 $516 $360 $362 $520 reversed $231 $-1 #
coedge $-1 $360 $515 $628 $629 reversed $231 $-1 #
coedge $-1 $368 $363 $360 $518 forward $358 $-1 #
edge $-1 $521 -10.766349456872035 $630 -6.3692266632360628 $517 $631 forward 7 unknown #
coedge $-1 $362 $361 $524 $632 reversed $145 $-1 #
edge $-1 $633 0 $521 5.5057942827832393 $515 $634 forward 7 unknown #
vertex $-1 $364 $635 #
straight-curve $-1 -58.159717930263085 5.5952006168818205 11.573842642238919 0 1 0 I I #
coedge $-1 $628 $365 $368 $528 reversed $513 $-1 #
coedge $-1 $365 $628 $519 $632 forward $513 $-1 #
vertex $-1 $366 $636 #
straight-curve $-1 -62.556840723899043 7.3814262807455275 54.090300482588148 0 0 1 I I #
straight-curve $-1 -62.556840723899043 7.3814262807455275 8.2603728865273069 -0.79863550430605224 0 -0.6018150307709319 I I #
edge $-1 $630 -14.999376186781754 $369 -7.3814262807455275 $523 $637 forward 7 unknown #
point $-1 -62.556840723899043 7.3814262807455275 11.573842642238921 #
point $-1 -58.159717930263071 7.3814262807455275 11.573842642238921 #
edge $-1 $638 1 $638 0 $372 $-1 forward 7 unknown #
vertex $-1 $373 $639 #
ellipse-curve $-1 -59.405645823372247 11.190401233763641 8.6529204314766446 -0.6018150307709319 0 0.79863550430605224 0.79863550430605224 0 0.6018150307709319 1 I I #
point $-1 -59.559643822775008 11.190401233763641 10.518922795154047 #
loop $-1 $-1 $384 $376 #
plane-surface $-1 -62.556840723899043 0 0 1 0 0 0 0 -1 forward_v I I I I #
coedge $-1 $538 $379 $381 $542 reversed $246 $-1 #
coedge $-1 $379 $537 $640 $641 reversed $246 $-1 #
coedge $-1 $387 $382 $379 $540 forward $377 $-1 #
edge $-1 $543 -10.766349456872035 $642 -6.3692266632360628 $539 $643 forward 7 unknown #
coedge $-1 $381 $380 $546 $644 reversed $154 $-1 #
edge $-1 $645 0 $543 5.5057942827832393 $537 $646 forward 7 unknown #
vertex $-1 $383 $647 #
straight-curve $-1 -58.159717930263085 12.273089100371083 11.573842642238919 0 1 0 I I #
coedge $-1 $640 $384 $387 $550 reversed $535 $-1 #
coedge $-1 $384 $640 $541 $644 forward $535 $-1 #
vertex $-1 $385 $648 #
straight-curve $-1 -62.556840723899043 20.737203247724054 54.090300482588148 0 0 1 I I #
straight-curve $-1 -62.556840723899043 20.737203247724054 8.2603728865273069 -0.79863550430605224 0 -0.6018150307709319 I I #
edge $-1 $642 -28.355153153760277 $388 -20.737203247724054 $545 $649 forward 7 unknown #
point $-1 -62.556840723899043 20.737203247724054 11.573842642238921 #
point $-1 -58.159717930263071 20.737203247724054 11.573842642238921 #
edge $-1 $650 1 $650 0 $391 $-1 forward 7 unknown #
vertex $-1 $392 $651 #
ellipse-curve $-1 -59.405645823372247 24.546178200742165 8.6529204314766446 -0.6018150307709319 0 0.79863550430605224 0.79863550430605224 0 0.6018150307709319 1 I I #
point $-1 -59.559643822775008 24.546178200742165 10.518922795154047 #
plane-surface $-1 62.556840723899043 0 0 -1 0 0 0 0 1 forward_v I I I I #
coedge $-1 $400 $398 $402 $562 reversed $261 $-1 #
edge $-1 $413 -11.573842642238921 $564 11.573842642238921 $412 $652 forward 7 unknown #
vertex $-1 $562 $653 #
straight-curve $-1 -62.556840723899043 -30.570319766091064 0 0 0 -1 I I #
edge $-1 $560 -30.570319766091064 $564 30.570319766091064 $558 $654 forward 7 unknown #
straight-curve $-1 0 -30.570319766091064 -11.573842642238921 -1 0 0 I I #
vertex $-1 $405 $655 #
straight-curve $-1 0 30.570319766091064 -11.573842642238921 1 0 0 I I #
point $-1 62.556840723899043 30.570319766091064 -11.573842642238921 #
point $-1 62.556840723899043 -30.570319766091064 -11.573842642238921 #
straight-curve $-1 -62.556840723899043 0 11.573842642238921 0 -1 0 I I #
point $-1 -62.556840723899043 30.570319766091064 11.573842642238921 #
point $-1 -62.556840723899043 -30.570319766091064 11.573842642238921 #
straight-curve $-1 62.556840723899043 -30.570319766091064 0 0 0 -1 I I #
straight-curve $-1 62.556840723899043 30.570319766091064 0 0 0 -1 I I #
plane-surface $-1 -62.556840723899043 0 0 1 0 0 0 0 -1 forward_v I I I I #
coedge $-1 $576 $585 $580 $656 forward $423 $-1 #
coedge $-1 $426 $425 $657 $658 forward $171 $-1 #
coedge $-1 $657 $574 $427 $577 reversed $423 $-1 #
edge $-1 $578 -62.556840723899043 $581 62.556840723899043 $576 $659 forward 7 unknown #
vertex $-1 $658 $660 #
straight-curve $-1 62.556840723899043 0 -11.573842642238921 0 -1 0 I I #
coedge $-1 $435 $429 $574 $656 reversed $436 $-1 #
vertex $-1 $430 $661 #
straight-curve $-1 -62.556840723899043 0 -11.573842642238921 0 1 0 I I #
point $-1 -62.556840723899043 -30.570319766091064 -11.573842642238921 #
point $-1 62.556840723899043 -30.570319766091064 -11.573842642238921 #
coedge $-1 $574 $657 $438 $586 reversed $423 $-1 #
edge $-1 $587 -62.556840723899043 $589 62.556840723899043 $585 $662 forward 7 unknown #
vertex $-1 $439 $663 #
straight-curve $-1 -62.556840723899043 -34.429085598225086 -7.1953011779082798 0 -1 0 I I #
vertex $-1 $440 $664 #
straight-curve $-1 62.556840723899043 -34.429085598225086 -7.1953011779082798 0 1 0 I I #
edge $-1 $592 79.060873729410929 $595 85.333466579732359 $444 $665 forward 7 unknown #
vertex $-1 $458 $666 #
straight-curve $-1 40.525922181780054 -15.077867468539569 11.573842642238915 1 0 0 I I #
edge $-1 $595 -9.1064082844410699 $455 -2.8365100837559289 $454 $667 forward 7 unknown #
vertex $-1 $594 $668 #
straight-curve $-1 -16.179748931961527 -15.077867468539569 102.53284308743912 -0.62932038083071107 0 0.77714596973225614 I I #
point $-1 57.477395323544883 -15.077867468539569 11.573842642238915 #
point $-1 62.556840723899043 -8.8079692678544284 5.3012497919174848 #
straight-curve $-1 62.556840723899043 0 11.573842642238921 0 1 0 I I #
vertex $-1 $461 $669 #
point $-1 59.554632244405084 -13.286467982629532 7.4196528513813771 #
vertex $-1 $465 $670 #
point $-1 59.554632244405084 -10.59936875376447 7.4196528513813771 #
coedge $-1 $480 $479 $472 $605 forward $469 $-1 #
edge $-1 $606 42.516457840349226 $609 45.829927596060841 $604 $671 forward 7 unknown #
vertex $-1 $484 $672 #
straight-curve $-1 -68.926067387135106 -11.712177747175289 11.573842642238922 -1 0 0 I I #
edge $-1 $609 3.9516013970785879 $481 11.569551303114814 $480 $673 forward 7 unknown #
vertex $-1 $608 $674 #
straight-curve $-1 -62.556840723899043 -11.712177747175289 8.2603728865273069 0.79863550430605224 0 0.6018150307709319 I I #
point $-1 -58.159717930263071 -11.712177747175289 11.573842642238921 #
point $-1 -62.556840723899043 -19.330127653211516 8.2603728865273069 #
straight-curve $-1 -62.556840723899043 0 11.573842642238921 0 -1 0 I I #
vertex $-1 $487 $675 #
point $-1 -58.607010319066191 -15.521152700193403 9.2547354622475773 #
coedge $-1 $502 $501 $494 $617 forward $491 $-1 #
edge $-1 $618 42.516457840349226 $621 45.829927596060841 $616 $676 forward 7 unknown #
vertex $-1 $506 $677 #
straight-curve $-1 -68.926067387135106 1.6435992198032334 11.573842642238922 -1 0 0 I I #
edge $-1 $621 -2.7262870864106734 $503 4.8916628196255534 $502 $678 forward 7 unknown #
vertex $-1 $620 $679 #
straight-curve $-1 -62.556840723899043 1.6435992198032334 8.2603728865273069 0.79863550430605224 0 0.6018150307709319 I I #
point $-1 -58.159717930263071 1.6435992198032334 11.573842642238921 #
point $-1 -62.556840723899043 -5.9743506862329934 8.2603728865273069 #
straight-curve $-1 -62.556840723899043 0 11.573842642238921 0 -1 0 I I #
vertex $-1 $509 $680 #
point $-1 -58.607010319066191 -2.16537573321488 9.2547354622475773 #
coedge $-1 $524 $523 $516 $629 forward $513 $-1 #
edge $-1 $630 42.516457840349226 $633 45.829927596060841 $628 $681 forward 7 unknown #
vertex $-1 $528 $682 #
straight-curve $-1 -68.926067387135106 14.999376186781754 11.573842642238922 -1 0 0 I I #
edge $-1 $633 -9.4041755698999339 $525 -1.7862256638637071 $524 $683 forward 7 unknown #
vertex $-1 $632 $684 #
straight-curve $-1 -62.556840723899043 14.999376186781754 8.2603728865273069 0.79863550430605224 0 0.6018150307709319 I I #
point $-1 -58.159717930263071 14.999376186781754 11.573842642238921 #
point $-1 -62.556840723899043 7.3814262807455275 8.2603728865273069 #
straight-curve $-1 -62.556840723899043 0 11.573842642238921 0 -1 0 I I #
vertex $-1 $531 $685 #
point $-1 -58.607010319066191 11.190401233763641 9.2547354622475773 #
coedge $-1 $546 $545 $538 $641 forward $535 $-1 #
edge $-1 $642 42.516457840349226 $645 45.829927596060841 $640 $686 forward 7 unknown #
vertex $-1 $550 $687 #
straight-curve $-1 -68.926067387135106 28.355153153760277 11.573842642238922 -1 0 0 I I #
edge $-1 $645 -16.082064053389196 $547 -8.4641141473529711 $546 $688 forward 7 unknown #
vertex $-1 $644 $689 #
straight-curve $-1 -62.556840723899043 28.355153153760277 8.2603728865273069 0.79863550430605224 0 0.6018150307709319 I I #
point $-1 -58.159717930263071 28.355153153760277 11.573842642238921 #
point $-1 -62.556840723899043 20.737203247724054 8.2603728865273069 #
straight-curve $-1 -62.556840723899043 0 11.573842642238921 0 -1 0 I I #
vertex $-1 $553 $690 #
point $-1 -58.607010319066191 24.546178200742165 9.2547354622475773 #
straight-curve $-1 -62.556840723899043 30.570319766091064 0 0 0 -1 I I #
point $-1 -62.556840723899043 -30.570319766091064 -11.573842642238921 #
straight-curve $-1 -62.556840723899043 0 -11.573842642238921 0 1 0 I I #
point $-1 -62.556840723899043 30.570319766091064 -11.573842642238921 #
edge $-1 $587 -2.18927073216532 $581 2.1892707321653191 $580 $691 forward 7 unknown #
coedge $-1 $585 $576 $575 $658 reversed $423 $-1 #
edge $-1 $589 -2.18927073216532 $578 2.1892707321653191 $575 $692 forward 7 unknown #
straight-curve $-1 0 -38.287851430359105 -11.573842642238919 -1 0 0 I I #
point $-1 62.556840723899043 -38.287851430359105 -11.573842642238919 #
point $-1 -62.556840723899043 -38.287851430359105 -11.573842642238919 #
straight-curve $-1 0 -38.287851430359105 -7.1953011779082798 1 0 0 I I #
point $-1 -62.556840723899043 -38.287851430359105 -7.1953011779082798 #
point $-1 62.556840723899043 -38.287851430359105 -7.1953011779082798 #
straight-curve $-1 62.556840723899043 -15.077867468539569 90.634716371649844 0 0 -1 I I #
point $-1 62.556840723899043 -15.077867468539569 11.573842642238921 #
straight-curve $-1 62.556840723899043 -5.9714591840984994 5.3012497919174919 0 1 0 I I #
point $-1 62.556840723899043 -15.077867468539569 5.3012497919174848 #
point $-1 58.851399069123602 -13.286467982629532 7.4935656458321489 #
point $-1 58.851399069123602 -10.59936875376447 7.4935656458321489 #
straight-curve $-1 -62.556840723899043 -11.712177747175289 54.090300482588148 0 0 -1 I I #
point $-1 -62.556840723899043 -11.712177747175289 11.573842642238921 #
straight-curve $-1 -62.556840723899043 -7.7605763500967013 8.2603728865273034 0 -1 0 I I #
point $-1 -62.556840723899043 -11.712177747175289 8.2603728865273069 #
point $-1 -58.80383079260131 -15.521152700193403 7.8542849271705926 #
straight-curve $-1 -62.556840723899043 1.6435992198032334 54.090300482588148 0 0 -1 I I #
point $-1 -62.556840723899043 1.6435992198032334 11.573842642238921 #
straight-curve $-1 -62.556840723899043 -1.08268786660744 8.2603728865273034 0 -1 0 I I #
point $-1 -62.556840723899043 1.6435992198032334 8.2603728865273069 #
point $-1 -58.80383079260131 -2.16537573321488 7.8542849271705926 #
straight-curve $-1 -62.556840723899043 14.999376186781754 54.090300482588148 0 0 -1 I I #
point $-1 -62.556840723899043 14.999376186781754 11.573842642238921 #
straight-curve $-1 -62.556840723899043 5.5952006168818205 8.2603728865273034 0 -1 0 I I #
point $-1 -62.556840723899043 14.999376186781754 8.2603728865273069 #
point $-1 -58.80383079260131 11.190401233763641 7.8542849271705926 #
straight-curve $-1 -62.556840723899043 28.355153153760277 54.090300482588148 0 0 -1 I I #
point $-1 -62.556840723899043 28.355153153760277 11.573842642238921 #
straight-curve $-1 -62.556840723899043 12.273089100371083 8.2603728865273034 0 -1 0 I I #
point $-1 -62.556840723899043 28.355153153760277 8.2603728865273069 #
point $-1 -58.80383079260131 24.546178200742165 7.8542849271705926 #
straight-curve $-1 -62.556840723899043 -38.287851430359105 -9.3845719100735998 0 0 -1 I I #
straight-curve $-1 62.556840723899043 -38.287851430359105 -9.3845719100735998 0 0 -1 I I #
End-of-ACIS-data 