500 0 4 0           
7 Unknown 11 ACIS 5.0 NT 24 Thu Mar 25 18:01:37 1999 
-1 9.9999999999999995e-007 1e-010 
body $-1 $4 $-1 $5 #
body $-1 $6 $-1 $7 #
body $-1 $8 $-1 $9 #
body $-1 $10 $-1 $11 #
lump $-1 $-1 $12 $0 #
transform $-1 1 0 0 0 1 0 0 0 1 75.678579058198792 47.290624140811211 22.082283842478162 1 rotate no_reflect no_shear #
lump $-1 $-1 $13 $1 #
transform $-1 1 0 0 0 1 0 0 0 1 75.678579058198792 47.290624140811211 22.082283842478162 1 rotate no_reflect no_shear #
lump $-1 $-1 $14 $2 #
transform $-1 1 0 0 0 1 0 0 0 1 75.678579058198792 47.290624140811211 22.082283842478162 1 rotate no_reflect no_shear #
lump $-1 $-1 $15 $3 #
transform $-1 1 0 0 0 1 0 0 0 1 75.678579058198792 47.290624140811211 22.082283842478162 1 rotate no_reflect no_shear #
shell $-1 $-1 $-1 $16 $-1 $4 #
shell $-1 $-1 $-1 $17 $-1 $6 #
shell $-1 $-1 $-1 $18 $-1 $8 #
shell $-1 $-1 $-1 $19 $-1 $10 #
face $-1 $20 $21 $12 $-1 $22 forward single #
face $-1 $23 $24 $13 $-1 $25 reversed single #
face $-1 $26 $27 $14 $-1 $28 forward single #
face $-1 $29 $30 $15 $-1 $31 forward single #
face $-1 $32 $33 $12 $-1 $34 reversed single #
loop $-1 $-1 $35 $16 #
plane-surface $-1 0 0 22.082283842478162 0 0 1 1 0 0 forward_v I I I I #
face $-1 $36 $37 $13 $-1 $38 reversed single #
loop $-1 $-1 $39 $17 #
plane-surface $-1 79.414292681377319 24.323778893996277 226.06142625693997 0 1 0 0.71933980857756763 0 0.69465836192734942 forward_v I I I I #
face $-1 $40 $41 $14 $-1 $42 forward single #
loop $-1 $43 $44 $18 #
cone-surface $-1 68.08978599990003 30.885734678800539 14.415310081599216 -0.71933980857756763 0 -0.69465836192734942 1.3893167238546988 0 -1.4386796171551353 1 I I 0 1 2 forward I I I I #
face $-1 $45 $46 $15 $-1 $47 forward single #
loop $-1 $48 $49 $19 #
cone-surface $-1 68.08978599990003 40.728668356006942 14.415310081599216 -0.71933980857756763 0 -0.69465836192734942 1.3893167238546988 0 -1.4386796171551353 1 I I 0 1 2 forward I I I I #
face $-1 $50 $51 $12 $-1 $52 reversed single #
loop $-1 $-1 $53 $20 #
plane-surface $-1 0 0 -22.082283842478162 0 0 1 1 0 0 forward_v I I I I #
coedge $-1 $54 $55 $56 $57 forward $21 $-1 #
face $-1 $58 $59 $13 $-1 $60 forward single #
loop $-1 $-1 $61 $23 #
plane-surface $-1 -29.462936464916751 35.807201517403747 120.91991073382439 0.71933980857756763 0 0.69465836192734942 0.69465836192734942 0 -0.71933980857756763 forward_v I I I I #
coedge $-1 $62 $63 $64 $65 reversed $24 $-1 #
face $-1 $-1 $66 $14 $-1 $67 forward single #
loop $-1 $68 $69 $26 #
cone-surface $-1 64.629218618531084 30.885734678800539 11.073479086266843 -0.71933980857756763 0 -0.69465836192734942 0.69465836192734942 0 -0.71933980857756763 1 I I -0.70710678118654746 0.70710678118654746 1 forward I I I I #
loop $-1 $-1 $70 $18 #
coedge $-1 $44 $44 $71 $72 reversed $27 $-1 #
face $-1 $-1 $73 $15 $-1 $74 forward single #
loop $-1 $75 $76 $29 #
cone-surface $-1 64.629218618531084 40.728668356006942 11.073479086266843 -0.71933980857756763 0 -0.69465836192734942 0.69465836192734942 0 -0.71933980857756763 1 I I -0.70710678118654746 0.70710678118654746 1 forward I I I I #
loop $-1 $-1 $77 $19 #
coedge $-1 $49 $49 $78 $79 reversed $30 $-1 #
face $-1 $80 $81 $12 $-1 $82 reversed single #
loop $-1 $-1 $83 $32 #
plane-surface $-1 0 -47.290624140811211 0 0 1 0 0 0 1 forward_v I I I I #
coedge $-1 $84 $85 $86 $87 forward $33 $-1 #
coedge $-1 $88 $35 $89 $90 forward $21 $-1 #
coedge $-1 $35 $88 $91 $92 forward $21 $-1 #
coedge $-1 $93 $94 $35 $57 reversed $95 $-1 #
edge $-1 $96 -47.290624140811211 $97 47.290624140811211 $56 $98 forward 7 unknown #
face $-1 $99 $100 $13 $-1 $101 reversed single #
loop $-1 $-1 $102 $36 #
plane-surface $-1 0 0 22.082283842478162 0 0 1 1 0 0 forward_v I I I I #
coedge $-1 $103 $104 $105 $106 reversed $37 $-1 #
coedge $-1 $63 $39 $107 $108 reversed $24 $-1 #
coedge $-1 $39 $62 $103 $109 reversed $24 $-1 #
coedge $-1 $105 $110 $39 $65 forward $100 $-1 #
edge $-1 $111 90.948429285991821 $112 100.98803154093964 $64 $113 forward 7 unknown #
loop $-1 $-1 $71 $40 #
plane-surface $-1 -29.462936464916751 35.807201517403747 120.91991073382439 0.71933980857756763 0 0.69465836192734942 0.69465836192734942 0 -0.71933980857756763 forward_v I I I I #
loop $-1 $-1 $114 $26 #
coedge $-1 $69 $69 $70 $115 reversed $41 $-1 #
coedge $-1 $70 $70 $69 $115 forward $43 $-1 #
coedge $-1 $71 $71 $44 $72 forward $66 $-1 #
edge $-1 $116 0 $116 6.2831853071796004 $71 $117 forward 7 unknown #
loop $-1 $-1 $78 $45 #
plane-surface $-1 -29.462936464916751 35.807201517403747 120.91991073382439 0.71933980857756763 0 0.69465836192734942 0.69465836192734942 0 -0.71933980857756763 forward_v I I I I #
loop $-1 $-1 $118 $29 #
coedge $-1 $76 $76 $77 $119 reversed $46 $-1 #
coedge $-1 $77 $77 $76 $119 forward $48 $-1 #
coedge $-1 $78 $78 $49 $79 forward $73 $-1 #
edge $-1 $120 0 $120 6.2831853071796004 $78 $121 forward 7 unknown #
face $-1 $122 $123 $12 $-1 $124 reversed single #
loop $-1 $-1 $125 $50 #
plane-surface $-1 -75.678579058198792 0 0 1 0 0 0 0 -1 forward_v I I I I #
coedge $-1 $126 $91 $127 $128 forward $51 $-1 #
coedge $-1 $129 $53 $126 $130 forward $33 $-1 #
coedge $-1 $53 $129 $131 $132 forward $33 $-1 #
coedge $-1 $94 $93 $53 $87 reversed $95 $-1 #
edge $-1 $133 -47.290624140811211 $134 47.290624140811211 $86 $135 forward 7 unknown #
coedge $-1 $55 $54 $136 $137 forward $21 $-1 #
coedge $-1 $138 $139 $54 $90 reversed $123 $-1 #
edge $-1 $97 -75.678579058198792 $140 75.678579058198792 $89 $141 forward 7 unknown #
coedge $-1 $83 $142 $55 $92 reversed $51 $-1 #
edge $-1 $143 -75.678579058198792 $96 75.678579058198792 $91 $144 forward 7 unknown #
coedge $-1 $86 $56 $142 $145 forward $95 $-1 #
coedge $-1 $56 $86 $138 $146 reversed $95 $-1 #
loop $-1 $-1 $93 $122 #
vertex $-1 $57 $147 #
vertex $-1 $57 $148 #
straight-curve $-1 75.678579058198792 0 22.082283842478162 0 1 0 I I #
face $-1 $-1 $149 $13 $-1 $150 reversed single #
loop $-1 $-1 $64 $58 #
plane-surface $-1 75.678579058198792 0 0 -1 0 0 0 0 1 forward_v I I I I #
coedge $-1 $107 $151 $152 $153 forward $59 $-1 #
coedge $-1 $152 $61 $63 $109 forward $37 $-1 #
coedge $-1 $61 $152 $154 $155 reversed $37 $-1 #
coedge $-1 $156 $64 $61 $106 forward $100 $-1 #
edge $-1 $112 6.4201781352944032 $157 29.387023382109337 $105 $158 forward 7 unknown #
coedge $-1 $159 $102 $62 $108 forward $59 $-1 #
edge $-1 $160 26.276301746495427 $111 35.971432717510133 $107 $161 forward 7 unknown #
edge $-1 $112 -151.35715811639756 $160 -137.40046875313232 $63 $162 forward 7 unknown #
coedge $-1 $64 $156 $159 $163 reversed $100 $-1 #
vertex $-1 $163 $164 #
vertex $-1 $65 $165 #
straight-curve $-1 75.678579058198792 24.323778893996277 113.03071312846998 0 0 -1 I I #
coedge $-1 $114 $114 $-1 $166 reversed $68 $-1 #
edge $-1 $167 0 $167 6.2831853071796004 $69 $168 forward 7 unknown #
vertex $-1 $72 $169 #
ellipse-curve $-1 70.831013572691433 30.885734678800539 17.062482715004261 0.71933980857756763 0 0.69465836192734942 1.3893167238546988 0 -1.4386796171551353 1 I I #
coedge $-1 $118 $118 $-1 $170 reversed $75 $-1 #
edge $-1 $171 0 $171 6.2831853071796004 $76 $172 forward 7 unknown #
vertex $-1 $79 $173 #
ellipse-curve $-1 70.831013572691433 40.728668356006942 17.062482715004261 0.71933980857756763 0 0.69465836192734942 1.3893167238546988 0 -1.4386796171551353 1 I I #
face $-1 $-1 $95 $12 $-1 $174 reversed single #
loop $-1 $-1 $138 $80 #
plane-surface $-1 0 47.290624140811211 0 0 -1 0 0 0 -1 forward_v I I I I #
coedge $-1 $175 $136 $139 $176 forward $81 $-1 #
coedge $-1 $142 $83 $84 $130 reversed $51 $-1 #
coedge $-1 $136 $175 $83 $128 reversed $81 $-1 #
edge $-1 $143 -22.082283842478162 $177 22.082283842478162 $127 $178 forward 7 unknown #
coedge $-1 $85 $84 $175 $179 forward $33 $-1 #
edge $-1 $134 -75.678579058198792 $177 75.678579058198792 $126 $180 forward 7 unknown #
coedge $-1 $139 $138 $85 $132 reversed $123 $-1 #
edge $-1 $181 -75.678579058198792 $133 75.678579058198792 $131 $182 forward 7 unknown #
vertex $-1 $87 $183 #
vertex $-1 $145 $184 #
straight-curve $-1 75.678579058198792 0 -22.082283842478162 0 -1 0 I I #
coedge $-1 $125 $127 $88 $137 reversed $81 $-1 #
edge $-1 $140 -47.290624140811211 $143 47.290624140811211 $136 $185 forward 7 unknown #
coedge $-1 $131 $89 $94 $146 forward $123 $-1 #
coedge $-1 $89 $131 $125 $176 reversed $123 $-1 #
vertex $-1 $90 $186 #
straight-curve $-1 0 47.290624140811211 22.082283842478162 -1 0 0 I I #
coedge $-1 $91 $126 $93 $145 reversed $51 $-1 #
vertex $-1 $137 $187 #
straight-curve $-1 0 -47.290624140811211 22.082283842478162 1 0 0 I I #
edge $-1 $96 -22.082283842478162 $134 22.082283842478162 $93 $188 forward 7 unknown #
edge $-1 $97 -22.082283842478162 $133 22.082283842478162 $94 $189 forward 7 unknown #
point $-1 75.678579058198792 -47.290624140811211 22.082283842478162 #
point $-1 75.678579058198792 47.290624140811211 22.082283842478162 #
loop $-1 $-1 $154 $99 #
plane-surface $-1 0 47.290624140811211 0 0 -1 0 0 0 -1 forward_v I I I I #
coedge $-1 $102 $159 $190 $191 forward $59 $-1 #
coedge $-1 $104 $103 $102 $153 reversed $37 $-1 #
edge $-1 $192 -29.387023382109344 $160 -6.4201781352944032 $102 $193 forward 7 unknown #
coedge $-1 $190 $194 $104 $155 forward $149 $-1 #
edge $-1 $157 -97.632567805010353 $192 -83.675878441745084 $154 $195 forward 7 unknown #
coedge $-1 $110 $105 $194 $196 reversed $100 $-1 #
vertex $-1 $106 $197 #
straight-curve $-1 75.678579058198778 17.903600758701874 12.042681587530346 0 1 0 I I #
coedge $-1 $151 $107 $110 $163 forward $59 $-1 #
vertex $-1 $108 $198 #
straight-curve $-1 39.707146340688659 24.323778893996277 22.082283842478162 1 0 0 I I #
straight-curve $-1 -29.462936464916751 24.323778893996277 120.91991073382439 -0.69465836192734942 0 0.71933980857756763 I I #
edge $-1 $111 24.323778893996277 $199 47.290624140811211 $110 $200 forward 7 unknown #
point $-1 75.678579058198792 24.323778893996277 22.082283842478162 #
point $-1 75.678579058198792 24.323778893996277 12.042681587530339 #
edge $-1 $201 1 $201 0 $114 $-1 forward 7 unknown #
vertex $-1 $115 $202 #
ellipse-curve $-1 65.348558427108657 30.885734678800539 11.768137448194192 0.71933980857756763 0 0.69465836192734942 1.3893167238546988 0 -1.4386796171551353 1 I I #
point $-1 72.220330296546109 30.885734678800539 15.623803097849102 #
edge $-1 $203 1 $203 0 $118 $-1 forward 7 unknown #
vertex $-1 $119 $204 #
ellipse-curve $-1 65.348558427108657 40.728668356006942 11.768137448194192 0.71933980857756763 0 0.69465836192734942 1.3893167238546988 0 -1.4386796171551353 1 I I #
point $-1 72.220330296546109 40.728668356006942 15.623803097849102 #
plane-surface $-1 75.678579058198792 0 0 -1 0 0 0 0 1 forward_v I I I I #
coedge $-1 $127 $125 $129 $179 reversed $81 $-1 #
edge $-1 $140 -22.082283842478162 $181 22.082283842478162 $139 $205 forward 7 unknown #
vertex $-1 $179 $206 #
straight-curve $-1 -75.678579058198792 -47.290624140811211 0 0 0 -1 I I #
edge $-1 $177 -47.290624140811211 $181 47.290624140811211 $175 $207 forward 7 unknown #
straight-curve $-1 0 -47.290624140811211 -22.082283842478162 -1 0 0 I I #
vertex $-1 $132 $208 #
straight-curve $-1 0 47.290624140811211 -22.082283842478162 1 0 0 I I #
point $-1 75.678579058198792 47.290624140811211 -22.082283842478162 #
point $-1 75.678579058198792 -47.290624140811211 -22.082283842478162 #
straight-curve $-1 -75.678579058198792 0 22.082283842478162 0 -1 0 I I #
point $-1 -75.678579058198792 47.290624140811211 22.082283842478162 #
point $-1 -75.678579058198792 -47.290624140811211 22.082283842478162 #
straight-curve $-1 75.678579058198792 -47.290624140811211 0 0 0 -1 I I #
straight-curve $-1 75.678579058198792 47.290624140811211 0 0 0 -1 I I #
coedge $-1 $194 $154 $151 $191 reversed $149 $-1 #
edge $-1 $199 -75.678579058198792 $192 -65.983448087184087 $190 $209 forward 7 unknown #
vertex $-1 $155 $210 #
straight-curve $-1 65.983448087184058 17.903600758701874 22.082283842478176 0 -1 0 I I #
coedge $-1 $154 $190 $156 $196 forward $149 $-1 #
straight-curve $-1 7.8572994360094413 47.290624140811211 82.273674223322871 -0.69465836192734942 0 0.71933980857756763 I I #
edge $-1 $199 -22.082283842478162 $157 -12.042681587530339 $156 $211 forward 7 unknown #
point $-1 75.678579058198792 47.290624140811211 12.042681587530339 #
point $-1 65.983448087184087 24.323778893996277 22.082283842478148 #
vertex $-1 $163 $212 #
straight-curve $-1 75.678579058198792 0 22.082283842478162 0 1 0 I I #
vertex $-1 $166 $213 #
point $-1 66.737875150963347 30.885734678800539 10.329457831039058 #
vertex $-1 $170 $214 #
point $-1 66.737875150963347 40.728668356006942 10.329457831039058 #
straight-curve $-1 -75.678579058198792 47.290624140811211 0 0 0 -1 I I #
point $-1 -75.678579058198792 -47.290624140811211 -22.082283842478162 #
straight-curve $-1 -75.678579058198792 0 -22.082283842478162 0 1 0 I I #
point $-1 -75.678579058198792 47.290624140811211 -22.082283842478162 #
straight-curve $-1 0 47.290624140811211 22.082283842478162 -1 0 0 I I #
point $-1 65.983448087184087 47.290624140811218 22.082283842478148 #
straight-curve $-1 75.678579058198792 47.290624140811211 0 0 0 -1 I I #
point $-1 75.678579058198792 47.290624140811211 22.082283842478162 #
point $-1 63.909878809953518 30.885734678800539 10.378820724339494 #
point $-1 63.909878809953518 40.728668356006942 10.378820724339494 #
End-of-ACIS-data 