500 0 19 0           
7 Unknown 11 ACIS 5.0 NT 24 Fri Mar 26 15:02:49 1999 
-1 9.9999999999999995e-007 1e-010 
body $-1 $19 $-1 $20 #
body $-1 $21 $-1 $22 #
body $-1 $23 $-1 $24 #
body $-1 $25 $-1 $26 #
body $-1 $27 $-1 $28 #
body $-1 $29 $-1 $30 #
body $-1 $31 $-1 $32 #
body $-1 $33 $-1 $34 #
body $-1 $35 $-1 $36 #
body $-1 $37 $-1 $38 #
body $-1 $39 $-1 $40 #
body $-1 $41 $-1 $42 #
body $-1 $43 $-1 $44 #
body $-1 $45 $-1 $46 #
body $-1 $47 $-1 $48 #
body $-1 $49 $-1 $50 #
body $-1 $51 $-1 $52 #
body $-1 $53 $-1 $54 #
body $-1 $55 $-1 $56 #
lump $-1 $-1 $57 $0 #
transform $-1 1 0 0 0 1 0 0 0 1 61.983092745750298 33.937762595034826 15.433618823240851 1 rotate no_reflect no_shear #
lump $-1 $-1 $58 $1 #
transform $-1 1 0 0 0 1 0 0 0 1 61.983092745750298 33.937762595034826 15.433618823240851 1 rotate no_reflect no_shear #
lump $-1 $-1 $59 $2 #
transform $-1 1 0 0 0 1 0 0 0 1 61.983092745750298 33.937762595034826 15.433618823240851 1 rotate no_reflect no_shear #
lump $-1 $-1 $60 $3 #
transform $-1 1 0 0 0 1 0 0 0 1 61.983092745750298 33.937762595034826 15.433618823240851 1 rotate no_reflect no_shear #
lump $-1 $-1 $61 $4 #
transform $-1 1 0 0 0 1 0 0 0 1 61.983092745750298 33.937762595034826 15.433618823240851 1 rotate no_reflect no_shear #
lump $-1 $-1 $62 $5 #
transform $-1 1 0 0 0 1 0 0 0 1 61.983092745750298 33.937762595034826 15.433618823240851 1 rotate no_reflect no_shear #
lump $-1 $-1 $63 $6 #
transform $-1 1 0 0 0 1 0 0 0 1 61.983092745750298 33.937762595034826 15.433618823240851 1 rotate no_reflect no_shear #
lump $-1 $-1 $64 $7 #
transform $-1 1 0 0 0 1 0 0 0 1 61.983092745750298 33.937762595034826 15.433618823240851 1 rotate no_reflect no_shear #
lump $-1 $-1 $65 $8 #
transform $-1 1 0 0 0 1 0 0 0 1 61.983092745750298 33.937762595034826 15.433618823240851 1 rotate no_reflect no_shear #
lump $-1 $-1 $66 $9 #
transform $-1 1 0 0 0 1 0 0 0 1 61.983092745750298 33.937762595034826 15.433618823240851 1 rotate no_reflect no_shear #
lump $-1 $-1 $67 $10 #
transform $-1 1 0 0 0 1 0 0 0 1 61.983092745750298 33.937762595034826 15.433618823240851 1 rotate no_reflect no_shear #
lump $-1 $-1 $68 $11 #
transform $-1 1 0 0 0 1 0 0 0 1 61.983092745750298 33.937762595034826 15.433618823240851 1 rotate no_reflect no_shear #
lump $-1 $-1 $69 $12 #
transform $-1 1 0 0 0 1 0 0 0 1 61.983092745750298 33.937762595034826 15.433618823240851 1 rotate no_reflect no_shear #
lump $-1 $-1 $70 $13 #
transform $-1 1 0 0 0 1 0 0 0 1 61.983092745750298 33.937762595034826 15.433618823240851 1 rotate no_reflect no_shear #
lump $-1 $-1 $71 $14 #
transform $-1 1 0 0 0 1 0 0 0 1 61.983092745750298 33.937762595034826 15.433618823240851 1 rotate no_reflect no_shear #
lump $-1 $-1 $72 $15 #
transform $-1 1 0 0 0 1 0 0 0 1 61.983092745750298 33.937762595034826 15.433618823240851 1 rotate no_reflect no_shear #
lump $-1 $-1 $73 $16 #
transform $-1 1 0 0 0 1 0 0 0 1 61.983092745750298 33.937762595034826 15.433618823240851 1 rotate no_reflect no_shear #
lump $-1 $-1 $74 $17 #
transform $-1 1 0 0 0 1 0 0 0 1 61.983092745750298 33.937762595034826 15.433618823240851 1 rotate no_reflect no_shear #
lump $-1 $-1 $75 $18 #
transform $-1 1 0 0 0 1 0 0 0 1 61.983092745750298 33.937762595034826 15.433618823240851 1 rotate no_reflect no_shear #
shell $-1 $-1 $-1 $76 $-1 $19 #
shell $-1 $-1 $-1 $77 $-1 $21 #
shell $-1 $-1 $-1 $78 $-1 $23 #
shell $-1 $-1 $-1 $79 $-1 $25 #
shell $-1 $-1 $-1 $80 $-1 $27 #
shell $-1 $-1 $-1 $81 $-1 $29 #
shell $-1 $-1 $-1 $82 $-1 $31 #
shell $-1 $-1 $-1 $83 $-1 $33 #
shell $-1 $-1 $-1 $84 $-1 $35 #
shell $-1 $-1 $-1 $85 $-1 $37 #
shell $-1 $-1 $-1 $86 $-1 $39 #
shell $-1 $-1 $-1 $87 $-1 $41 #
shell $-1 $-1 $-1 $88 $-1 $43 #
shell $-1 $-1 $-1 $89 $-1 $45 #
shell $-1 $-1 $-1 $90 $-1 $47 #
shell $-1 $-1 $-1 $91 $-1 $49 #
shell $-1 $-1 $-1 $92 $-1 $51 #
shell $-1 $-1 $-1 $93 $-1 $53 #
shell $-1 $-1 $-1 $94 $-1 $55 #
face $-1 $95 $96 $57 $-1 $97 forward single #
face $-1 $98 $99 $58 $-1 $100 forward single #
face $-1 $101 $102 $59 $-1 $103 forward single #
face $-1 $104 $105 $60 $-1 $106 reversed single #
face $-1 $107 $108 $61 $-1 $109 forward single #
face $-1 $110 $111 $62 $-1 $112 forward single #
face $-1 $113 $114 $63 $-1 $115 forward single #
face $-1 $116 $117 $64 $-1 $118 reversed single #
face $-1 $119 $120 $65 $-1 $121 forward single #
face $-1 $122 $123 $66 $-1 $124 forward single #
face $-1 $125 $126 $67 $-1 $127 forward single #
face $-1 $128 $129 $68 $-1 $130 reversed single #
face $-1 $131 $132 $69 $-1 $133 forward single #
face $-1 $134 $135 $70 $-1 $136 forward single #
face $-1 $137 $138 $71 $-1 $139 forward single #
face $-1 $140 $141 $72 $-1 $142 reversed single #
face $-1 $143 $144 $73 $-1 $145 forward single #
face $-1 $146 $147 $74 $-1 $148 forward single #
face $-1 $149 $150 $75 $-1 $151 forward single #
face $-1 $152 $153 $57 $-1 $154 reversed single #
loop $-1 $-1 $155 $76 #
plane-surface $-1 0 0 15.433618823240851 0 0 1 1 0 0 forward_v I I I I #
face $-1 $156 $157 $58 $-1 $158 reversed single #
loop $-1 $-1 $159 $77 #
plane-surface $-1 -61.983092745750298 0 0 1 0 0 0 0 -1 forward_v I I I I #
face $-1 $160 $161 $59 $-1 $162 reversed single #
loop $-1 $-1 $163 $78 #
plane-surface $-1 61.983092745750298 0 0 -1 0 0 0 0 1 forward_v I I I I #
face $-1 $164 $165 $60 $-1 $166 reversed single #
loop $-1 $-1 $167 $79 #
plane-surface $-1 -32.55685744117163 80.645002200710366 145.25914371699452 1 0 0 0 -0.74314483375859142 -0.66913059716165679 forward_v I I I I #
face $-1 $168 $169 $61 $-1 $170 forward single #
loop $-1 $171 $172 $80 #
cone-surface $-1 -30.340012869549444 31.630619187787779 13.018842428862056 0 -0.74314483375859142 -0.66913059716165679 0.5 0 0 1 I I 0 1 0.5 forward I I I I #
face $-1 $173 $174 $62 $-1 $175 forward single #
loop $-1 $176 $177 $81 #
cone-surface $-1 -27.014746012116156 31.630619187787779 13.018842428862056 0 -0.74314483375859142 -0.66913059716165679 0.5 0 0 1 I I 0 1 0.5 forward I I I I #
face $-1 $178 $179 $63 $-1 $180 forward single #
loop $-1 $181 $182 $82 #
cone-surface $-1 -23.689479154682871 31.630619187787779 13.018842428862056 0 -0.74314483375859142 -0.66913059716165679 0.5 0 0 1 I I 0 1 0.5 forward I I I I #
face $-1 $183 $184 $64 $-1 $185 reversed single #
loop $-1 $-1 $186 $83 #
plane-surface $-1 -11.08422285811095 80.645002200710366 145.25914371699452 1 0 0 0 -0.74314483375859142 -0.66913059716165679 forward_v I I I I #
face $-1 $187 $188 $65 $-1 $189 forward single #
loop $-1 $190 $191 $84 #
cone-surface $-1 -8.8673782864887585 31.630619187787779 13.018842428862056 0 -0.74314483375859142 -0.66913059716165679 0.5 0 0 1 I I 0 1 0.5 forward I I I I #
face $-1 $192 $193 $66 $-1 $194 forward single #
loop $-1 $195 $196 $85 #
cone-surface $-1 -5.542111429055474 31.630619187787779 13.018842428862056 0 -0.74314483375859142 -0.66913059716165679 0.5 0 0 1 I I 0 1 0.5 forward I I I I #
face $-1 $197 $198 $67 $-1 $199 forward single #
loop $-1 $200 $201 $86 #
cone-surface $-1 -2.2168445716221896 31.630619187787779 13.018842428862056 0 -0.74314483375859142 -0.66913059716165679 0.5 0 0 1 I I 0 1 0.5 forward I I I I #
face $-1 $202 $203 $68 $-1 $204 reversed single #
loop $-1 $-1 $205 $87 #
plane-surface $-1 10.388411724949739 80.645002200710366 145.25914371699452 1 0 0 0 -0.74314483375859142 -0.66913059716165679 forward_v I I I I #
face $-1 $206 $207 $69 $-1 $208 forward single #
loop $-1 $209 $210 $88 #
cone-surface $-1 12.605256296571923 31.630619187787779 13.018842428862056 0 -0.74314483375859142 -0.66913059716165679 0.5 0 0 1 I I 0 1 0.5 forward I I I I #
face $-1 $211 $212 $70 $-1 $213 forward single #
loop $-1 $214 $215 $89 #
cone-surface $-1 15.930523154005215 31.630619187787779 13.018842428862056 0 -0.74314483375859142 -0.66913059716165679 0.5 0 0 1 I I 0 1 0.5 forward I I I I #
face $-1 $216 $217 $71 $-1 $218 forward single #
loop $-1 $219 $220 $90 #
cone-surface $-1 19.255790011438492 31.630619187787779 13.018842428862056 0 -0.74314483375859142 -0.66913059716165679 0.5 0 0 1 I I 0 1 0.5 forward I I I I #
face $-1 $221 $222 $72 $-1 $223 reversed single #
loop $-1 $-1 $224 $91 #
plane-surface $-1 31.861046308010422 80.645002200710366 145.25914371699452 1 0 0 0 -0.74314483375859142 -0.66913059716165679 forward_v I I I I #
face $-1 $225 $226 $73 $-1 $227 forward single #
loop $-1 $228 $229 $92 #
cone-surface $-1 34.077890879632605 31.630619187787779 13.018842428862056 0 -0.74314483375859142 -0.66913059716165679 0.5 0 0 1 I I 0 1 0.5 forward I I I I #
face $-1 $230 $231 $74 $-1 $232 forward single #
loop $-1 $233 $234 $93 #
cone-surface $-1 37.403157737065897 31.630619187787779 13.018842428862056 0 -0.74314483375859142 -0.66913059716165679 0.5 0 0 1 I I 0 1 0.5 forward I I I I #
face $-1 $235 $236 $75 $-1 $237 forward single #
loop $-1 $238 $239 $94 #
cone-surface $-1 40.728424594499174 31.630619187787779 13.018842428862056 0 -0.74314483375859142 -0.66913059716165679 0.5 0 0 1 I I 0 1 0.5 forward I I I I #
face $-1 $240 $241 $57 $-1 $242 reversed single #
loop $-1 $-1 $243 $95 #
plane-surface $-1 0 0 -15.433618823240851 0 0 1 1 0 0 forward_v I I I I #
coedge $-1 $244 $245 $246 $247 forward $96 $-1 #
face $-1 $248 $249 $58 $-1 $250 forward single #
loop $-1 $-1 $251 $98 #
plane-surface $-1 0 33.937762595034826 0 0 -1 0 0 0 -1 forward_v I I I I #
coedge $-1 $252 $253 $254 $255 forward $99 $-1 #
face $-1 $256 $257 $59 $-1 $258 forward single #
loop $-1 $-1 $259 $101 #
plane-surface $-1 0 -33.937762595034826 0 0 1 0 0 0 1 forward_v I I I I #
coedge $-1 $260 $261 $262 $263 forward $102 $-1 #
face $-1 $264 $265 $60 $-1 $266 reversed single #
loop $-1 $-1 $267 $104 #
plane-surface $-1 -27.014746012116156 -11.479828108057561 62.309575991214004 0 0.74314483375859142 0.66913059716165679 1 0 0 forward_v I I I I #
coedge $-1 $268 $269 $270 $271 reversed $105 $-1 #
face $-1 $-1 $272 $61 $-1 $273 forward single #
loop $-1 $274 $275 $107 #
cone-surface $-1 -30.340012869549444 30.742834741696797 12.219477743031968 0 -0.74314483375859142 -0.66913059716165679 0.25 0 0 1 I I -0.70710678118654746 0.70710678118654746 0.25 forward I I I I #
loop $-1 $-1 $276 $80 #
coedge $-1 $172 $172 $277 $278 reversed $108 $-1 #
face $-1 $-1 $279 $62 $-1 $280 forward single #
loop $-1 $281 $282 $110 #
cone-surface $-1 -27.014746012116156 30.742834741696797 12.219477743031968 0 -0.74314483375859142 -0.66913059716165679 0.25 0 0 1 I I -0.70710678118654746 0.70710678118654746 0.25 forward I I I I #
loop $-1 $-1 $283 $81 #
coedge $-1 $177 $177 $284 $285 reversed $111 $-1 #
face $-1 $-1 $286 $63 $-1 $287 forward single #
loop $-1 $288 $289 $113 #
cone-surface $-1 -23.689479154682871 30.742834741696797 12.219477743031968 0 -0.74314483375859142 -0.66913059716165679 0.25 0 0 1 I I -0.70710678118654746 0.70710678118654746 0.25 forward I I I I #
loop $-1 $-1 $290 $82 #
coedge $-1 $182 $182 $291 $292 reversed $114 $-1 #
face $-1 $293 $294 $64 $-1 $295 reversed single #
loop $-1 $-1 $296 $116 #
plane-surface $-1 -5.542111429055474 -11.479828108057561 62.309575991214004 0 0.74314483375859142 0.66913059716165679 1 0 0 forward_v I I I I #
coedge $-1 $297 $298 $299 $300 reversed $117 $-1 #
face $-1 $-1 $301 $65 $-1 $302 forward single #
loop $-1 $303 $304 $119 #
cone-surface $-1 -8.8673782864887585 30.742834741696797 12.219477743031968 0 -0.74314483375859142 -0.66913059716165679 0.25 0 0 1 I I -0.70710678118654746 0.70710678118654746 0.25 forward I I I I #
loop $-1 $-1 $305 $84 #
coedge $-1 $191 $191 $306 $307 reversed $120 $-1 #
face $-1 $-1 $308 $66 $-1 $309 forward single #
loop $-1 $310 $311 $122 #
cone-surface $-1 -5.542111429055474 30.742834741696797 12.219477743031968 0 -0.74314483375859142 -0.66913059716165679 0.25 0 0 1 I I -0.70710678118654746 0.70710678118654746 0.25 forward I I I I #
loop $-1 $-1 $312 $85 #
coedge $-1 $196 $196 $313 $314 reversed $123 $-1 #
face $-1 $-1 $315 $67 $-1 $316 forward single #
loop $-1 $317 $318 $125 #
cone-surface $-1 -2.2168445716221896 30.742834741696797 12.219477743031968 0 -0.74314483375859142 -0.66913059716165679 0.25 0 0 1 I I -0.70710678118654746 0.70710678118654746 0.25 forward I I I I #
loop $-1 $-1 $319 $86 #
coedge $-1 $201 $201 $320 $321 reversed $126 $-1 #
face $-1 $322 $323 $68 $-1 $324 reversed single #
loop $-1 $-1 $325 $128 #
plane-surface $-1 15.930523154005215 -11.479828108057561 62.309575991214004 0 0.74314483375859142 0.66913059716165679 1 0 0 forward_v I I I I #
coedge $-1 $326 $327 $328 $329 reversed $129 $-1 #
face $-1 $-1 $330 $69 $-1 $331 forward single #
loop $-1 $332 $333 $131 #
cone-surface $-1 12.605256296571923 30.742834741696797 12.219477743031968 0 -0.74314483375859142 -0.66913059716165679 0.25 0 0 1 I I -0.70710678118654746 0.70710678118654746 0.25 forward I I I I #
loop $-1 $-1 $334 $88 #
coedge $-1 $210 $210 $335 $336 reversed $132 $-1 #
face $-1 $-1 $337 $70 $-1 $338 forward single #
loop $-1 $339 $340 $134 #
cone-surface $-1 15.930523154005215 30.742834741696797 12.219477743031968 0 -0.74314483375859142 -0.66913059716165679 0.25 0 0 1 I I -0.70710678118654746 0.70710678118654746 0.25 forward I I I I #
loop $-1 $-1 $341 $89 #
coedge $-1 $215 $215 $342 $343 reversed $135 $-1 #
face $-1 $-1 $344 $71 $-1 $345 forward single #
loop $-1 $346 $347 $137 #
cone-surface $-1 19.255790011438492 30.742834741696797 12.219477743031968 0 -0.74314483375859142 -0.66913059716165679 0.25 0 0 1 I I -0.70710678118654746 0.70710678118654746 0.25 forward I I I I #
loop $-1 $-1 $348 $90 #
coedge $-1 $220 $220 $349 $350 reversed $138 $-1 #
face $-1 $351 $352 $72 $-1 $353 reversed single #
loop $-1 $-1 $354 $140 #
plane-surface $-1 37.403157737065897 -11.479828108057561 62.309575991214004 0 0.74314483375859142 0.66913059716165679 1 0 0 forward_v I I I I #
coedge $-1 $355 $356 $357 $358 reversed $141 $-1 #
face $-1 $-1 $359 $73 $-1 $360 forward single #
loop $-1 $361 $362 $143 #
cone-surface $-1 34.077890879632605 30.742834741696797 12.219477743031968 0 -0.74314483375859142 -0.66913059716165679 0.25 0 0 1 I I -0.70710678118654746 0.70710678118654746 0.25 forward I I I I #
loop $-1 $-1 $363 $92 #
coedge $-1 $229 $229 $364 $365 reversed $144 $-1 #
face $-1 $-1 $366 $74 $-1 $367 forward single #
loop $-1 $368 $369 $146 #
cone-surface $-1 37.403157737065897 30.742834741696797 12.219477743031968 0 -0.74314483375859142 -0.66913059716165679 0.25 0 0 1 I I -0.70710678118654746 0.70710678118654746 0.25 forward I I I I #
loop $-1 $-1 $370 $93 #
coedge $-1 $234 $234 $371 $372 reversed $147 $-1 #
face $-1 $-1 $373 $75 $-1 $374 forward single #
loop $-1 $375 $376 $149 #
cone-surface $-1 40.728424594499174 30.742834741696797 12.219477743031968 0 -0.74314483375859142 -0.66913059716165679 0.25 0 0 1 I I -0.70710678118654746 0.70710678118654746 0.25 forward I I I I #
loop $-1 $-1 $377 $94 #
coedge $-1 $239 $239 $378 $379 reversed $150 $-1 #
face $-1 $380 $381 $57 $-1 $382 reversed single #
loop $-1 $-1 $383 $152 #
plane-surface $-1 0 -33.937762595034826 0 0 1 0 0 0 1 forward_v I I I I #
coedge $-1 $384 $385 $386 $387 forward $153 $-1 #
coedge $-1 $388 $155 $389 $390 forward $96 $-1 #
coedge $-1 $155 $388 $391 $392 forward $96 $-1 #
coedge $-1 $393 $394 $155 $247 reversed $395 $-1 #
edge $-1 $396 -33.937762595034826 $397 33.937762595034826 $246 $398 forward 7 unknown #
face $-1 $399 $400 $58 $-1 $401 reversed single #
loop $-1 $-1 $254 $156 #
plane-surface $-1 -71.502004535564765 0 -3.6184902750650991 0 0 1 1 0 0 forward_v I I I I #
coedge $-1 $402 $403 $253 $404 forward $157 $-1 #
coedge $-1 $405 $159 $406 $407 reversed $99 $-1 #
coedge $-1 $159 $405 $251 $404 reversed $99 $-1 #
coedge $-1 $408 $409 $159 $255 reversed $249 $-1 #
edge $-1 $410 -33.937762595034826 $411 33.937762595034826 $254 $412 forward 7 unknown #
face $-1 $413 $414 $59 $-1 $415 reversed single #
loop $-1 $-1 $416 $160 #
plane-surface $-1 71.502004535564765 0 -3.6184902750650991 0 0 1 1 0 0 forward_v I I I I #
coedge $-1 $417 $418 $261 $419 forward $161 $-1 #
coedge $-1 $420 $163 $421 $422 reversed $102 $-1 #
coedge $-1 $163 $420 $259 $419 reversed $102 $-1 #
coedge $-1 $423 $424 $163 $263 reversed $257 $-1 #
edge $-1 $425 -33.937762595034826 $426 33.937762595034826 $262 $427 forward 7 unknown #
face $-1 $428 $429 $60 $-1 $430 reversed single #
loop $-1 $-1 $431 $164 #
plane-surface $-1 -21.472634583060682 80.645002200710366 145.25914371699452 -1 0 0 0 0.74314483375859142 0.66913059716165679 forward_v I I I I #
coedge $-1 $432 $433 $434 $435 reversed $165 $-1 #
coedge $-1 $269 $167 $436 $437 reversed $105 $-1 #
coedge $-1 $167 $268 $432 $438 reversed $105 $-1 #
coedge $-1 $434 $439 $167 $271 forward $440 $-1 #
edge $-1 $441 6.3847385053203567 $442 9.5950288445117664 $270 $443 forward 7 unknown #
loop $-1 $-1 $277 $168 #
plane-surface $-1 -27.014746012116156 -11.479828108057561 62.309575991214004 0 0.74314483375859142 0.66913059716165679 1 0 0 forward_v I I I I #
loop $-1 $-1 $444 $107 #
coedge $-1 $275 $275 $276 $445 reversed $169 $-1 #
coedge $-1 $276 $276 $275 $445 forward $171 $-1 #
coedge $-1 $277 $277 $172 $278 forward $272 $-1 #
edge $-1 $446 -1.5883752530884473e-015 $446 6.2831853071795987 $277 $447 forward 7 unknown #
loop $-1 $-1 $284 $173 #
plane-surface $-1 -27.014746012116156 -11.479828108057561 62.309575991214004 0 0.74314483375859142 0.66913059716165679 1 0 0 forward_v I I I I #
loop $-1 $-1 $448 $110 #
coedge $-1 $282 $282 $283 $449 reversed $174 $-1 #
coedge $-1 $283 $283 $282 $449 forward $176 $-1 #
coedge $-1 $284 $284 $177 $285 forward $279 $-1 #
edge $-1 $450 -1.5883752530884473e-015 $450 6.2831853071795987 $284 $451 forward 7 unknown #
loop $-1 $-1 $291 $178 #
plane-surface $-1 -27.014746012116156 -11.479828108057561 62.309575991214004 0 0.74314483375859142 0.66913059716165679 1 0 0 forward_v I I I I #
loop $-1 $-1 $452 $113 #
coedge $-1 $289 $289 $290 $453 reversed $179 $-1 #
coedge $-1 $290 $290 $289 $453 forward $181 $-1 #
coedge $-1 $291 $291 $182 $292 forward $286 $-1 #
edge $-1 $454 -1.5883752530884473e-015 $454 6.2831853071795987 $291 $455 forward 7 unknown #
face $-1 $456 $457 $64 $-1 $458 forward single #
loop $-1 $-1 $459 $183 #
plane-surface $-1 1.7763568394002505e-015 80.645002200710366 145.25914371699452 -1 0 0 0 0.74314483375859142 0.66913059716165679 forward_v I I I I #
coedge $-1 $460 $461 $462 $463 reversed $184 $-1 #
coedge $-1 $298 $186 $464 $465 reversed $117 $-1 #
coedge $-1 $186 $297 $460 $466 reversed $117 $-1 #
coedge $-1 $462 $467 $186 $300 forward $457 $-1 #
edge $-1 $468 6.3847385053203567 $469 9.5950288445117664 $299 $470 forward 7 unknown #
loop $-1 $-1 $306 $187 #
plane-surface $-1 -5.542111429055474 -11.479828108057561 62.309575991214004 0 0.74314483375859142 0.66913059716165679 1 0 0 forward_v I I I I #
loop $-1 $-1 $471 $119 #
coedge $-1 $304 $304 $305 $472 reversed $188 $-1 #
coedge $-1 $305 $305 $304 $472 forward $190 $-1 #
coedge $-1 $306 $306 $191 $307 forward $301 $-1 #
edge $-1 $473 -1.5883752530884473e-015 $473 6.2831853071795987 $306 $474 forward 7 unknown #
loop $-1 $-1 $313 $192 #
plane-surface $-1 -5.542111429055474 -11.479828108057561 62.309575991214004 0 0.74314483375859142 0.66913059716165679 1 0 0 forward_v I I I I #
loop $-1 $-1 $475 $122 #
coedge $-1 $311 $311 $312 $476 reversed $193 $-1 #
coedge $-1 $312 $312 $311 $476 forward $195 $-1 #
coedge $-1 $313 $313 $196 $314 forward $308 $-1 #
edge $-1 $477 -1.5883752530884473e-015 $477 6.2831853071795987 $313 $478 forward 7 unknown #
loop $-1 $-1 $320 $197 #
plane-surface $-1 -5.542111429055474 -11.479828108057561 62.309575991214004 0 0.74314483375859142 0.66913059716165679 1 0 0 forward_v I I I I #
loop $-1 $-1 $479 $125 #
coedge $-1 $318 $318 $319 $480 reversed $198 $-1 #
coedge $-1 $319 $319 $318 $480 forward $200 $-1 #
coedge $-1 $320 $320 $201 $321 forward $315 $-1 #
edge $-1 $481 -1.5883752530884473e-015 $481 6.2831853071795987 $320 $482 forward 7 unknown #
face $-1 $483 $484 $68 $-1 $485 forward single #
loop $-1 $-1 $486 $202 #
plane-surface $-1 21.472634583060689 80.645002200710366 145.25914371699452 -1 0 0 0 0.74314483375859142 0.66913059716165679 forward_v I I I I #
coedge $-1 $487 $488 $489 $490 reversed $203 $-1 #
coedge $-1 $327 $205 $491 $492 reversed $129 $-1 #
coedge $-1 $205 $326 $487 $493 reversed $129 $-1 #
coedge $-1 $489 $494 $205 $329 forward $484 $-1 #
edge $-1 $495 6.3847385053203567 $496 9.5950288445117664 $328 $497 forward 7 unknown #
loop $-1 $-1 $335 $206 #
plane-surface $-1 15.930523154005215 -11.479828108057561 62.309575991214004 0 0.74314483375859142 0.66913059716165679 1 0 0 forward_v I I I I #
loop $-1 $-1 $498 $131 #
coedge $-1 $333 $333 $334 $499 reversed $207 $-1 #
coedge $-1 $334 $334 $333 $499 forward $209 $-1 #
coedge $-1 $335 $335 $210 $336 forward $330 $-1 #
edge $-1 $500 -1.5883752530884473e-015 $500 6.2831853071795987 $335 $501 forward 7 unknown #
loop $-1 $-1 $342 $211 #
plane-surface $-1 15.930523154005215 -11.479828108057561 62.309575991214004 0 0.74314483375859142 0.66913059716165679 1 0 0 forward_v I I I I #
loop $-1 $-1 $502 $134 #
coedge $-1 $340 $340 $341 $503 reversed $212 $-1 #
coedge $-1 $341 $341 $340 $503 forward $214 $-1 #
coedge $-1 $342 $342 $215 $343 forward $337 $-1 #
edge $-1 $504 -1.5883752530884473e-015 $504 6.2831853071795987 $342 $505 forward 7 unknown #
loop $-1 $-1 $349 $216 #
plane-surface $-1 15.930523154005215 -11.479828108057561 62.309575991214004 0 0.74314483375859142 0.66913059716165679 1 0 0 forward_v I I I I #
loop $-1 $-1 $506 $137 #
coedge $-1 $347 $347 $348 $507 reversed $217 $-1 #
coedge $-1 $348 $348 $347 $507 forward $219 $-1 #
coedge $-1 $349 $349 $220 $350 forward $344 $-1 #
edge $-1 $508 -1.5883752530884473e-015 $508 6.2831853071795987 $349 $509 forward 7 unknown #
face $-1 $510 $511 $72 $-1 $512 forward single #
loop $-1 $-1 $513 $221 #
plane-surface $-1 42.945269166121371 80.645002200710366 145.25914371699452 -1 0 0 0 0.74314483375859142 0.66913059716165679 forward_v I I I I #
coedge $-1 $514 $515 $516 $517 reversed $222 $-1 #
coedge $-1 $356 $224 $518 $519 reversed $141 $-1 #
coedge $-1 $224 $355 $514 $520 reversed $141 $-1 #
coedge $-1 $516 $521 $224 $358 forward $511 $-1 #
edge $-1 $522 6.3847385053203567 $523 9.5950288445117664 $357 $524 forward 7 unknown #
loop $-1 $-1 $364 $225 #
plane-surface $-1 37.403157737065897 -11.479828108057561 62.309575991214004 0 0.74314483375859142 0.66913059716165679 1 0 0 forward_v I I I I #
loop $-1 $-1 $525 $143 #
coedge $-1 $362 $362 $363 $526 reversed $226 $-1 #
coedge $-1 $363 $363 $362 $526 forward $228 $-1 #
coedge $-1 $364 $364 $229 $365 forward $359 $-1 #
edge $-1 $527 -1.5883752530884473e-015 $527 6.2831853071795987 $364 $528 forward 7 unknown #
loop $-1 $-1 $371 $230 #
plane-surface $-1 37.403157737065897 -11.479828108057561 62.309575991214004 0 0.74314483375859142 0.66913059716165679 1 0 0 forward_v I I I I #
loop $-1 $-1 $529 $146 #
coedge $-1 $369 $369 $370 $530 reversed $231 $-1 #
coedge $-1 $370 $370 $369 $530 forward $233 $-1 #
coedge $-1 $371 $371 $234 $372 forward $366 $-1 #
edge $-1 $531 -1.5883752530884473e-015 $531 6.2831853071795987 $371 $532 forward 7 unknown #
loop $-1 $-1 $378 $235 #
plane-surface $-1 37.403157737065897 -11.479828108057561 62.309575991214004 0 0.74314483375859142 0.66913059716165679 1 0 0 forward_v I I I I #
loop $-1 $-1 $533 $149 #
coedge $-1 $376 $376 $377 $534 reversed $236 $-1 #
coedge $-1 $377 $377 $376 $534 forward $238 $-1 #
coedge $-1 $378 $378 $239 $379 forward $373 $-1 #
edge $-1 $535 -1.5883752530884473e-015 $535 6.2831853071795987 $378 $536 forward 7 unknown #
face $-1 $537 $538 $57 $-1 $539 reversed single #
loop $-1 $-1 $540 $240 #
plane-surface $-1 -61.983092745750298 0 0 1 0 0 0 0 -1 forward_v I I I I #
coedge $-1 $541 $391 $542 $543 forward $241 $-1 #
coedge $-1 $544 $243 $541 $545 forward $153 $-1 #
coedge $-1 $243 $544 $546 $547 forward $153 $-1 #
coedge $-1 $394 $393 $243 $387 reversed $395 $-1 #
edge $-1 $548 -33.937762595034826 $549 33.937762595034826 $386 $550 forward 7 unknown #
coedge $-1 $245 $244 $551 $552 forward $96 $-1 #
coedge $-1 $553 $554 $244 $390 reversed $538 $-1 #
edge $-1 $397 -61.983092745750298 $555 61.983092745750298 $389 $556 forward 7 unknown #
coedge $-1 $383 $557 $245 $392 reversed $241 $-1 #
edge $-1 $558 -61.983092745750298 $396 61.983092745750298 $391 $559 forward 7 unknown #
coedge $-1 $386 $246 $557 $560 forward $395 $-1 #
coedge $-1 $246 $386 $553 $561 reversed $395 $-1 #
loop $-1 $-1 $393 $537 #
vertex $-1 $247 $562 #
vertex $-1 $247 $563 #
straight-curve $-1 61.983092745750298 0 15.433618823240851 0 1 0 I I #
face $-1 $564 $565 $58 $-1 $566 reversed single #
loop $-1 $-1 $567 $248 #
plane-surface $-1 -71.502004535564765 0 -12.170072556964456 0 0 1 1 0 0 forward_v I I I I #
coedge $-1 $568 $251 $569 $570 reversed $157 $-1 #
coedge $-1 $251 $568 $408 $571 reversed $157 $-1 #
edge $-1 $410 3.6184902750650991 $572 12.170072556964456 $251 $573 forward 7 unknown #
coedge $-1 $253 $252 $567 $574 forward $99 $-1 #
coedge $-1 $575 $576 $252 $407 forward $577 $-1 #
edge $-1 $578 -12.170072556964456 $411 -3.6184902750650991 $406 $579 forward 7 unknown #
coedge $-1 $580 $254 $403 $571 forward $249 $-1 #
coedge $-1 $254 $580 $575 $581 forward $249 $-1 #
vertex $-1 $404 $582 #
vertex $-1 $581 $583 #
straight-curve $-1 -61.983092745750298 0 -3.6184902750650991 0 -1 0 I I #
face $-1 $584 $585 $59 $-1 $586 reversed single #
loop $-1 $-1 $587 $256 #
plane-surface $-1 71.502004535564765 0 -12.170072556964456 0 0 1 1 0 0 forward_v I I I I #
coedge $-1 $424 $423 $588 $589 forward $257 $-1 #
coedge $-1 $590 $259 $591 $592 reversed $161 $-1 #
coedge $-1 $259 $590 $423 $593 reversed $161 $-1 #
edge $-1 $425 3.6184902750650991 $594 12.170072556964456 $259 $595 forward 7 unknown #
coedge $-1 $261 $260 $596 $597 forward $102 $-1 #
coedge $-1 $598 $599 $260 $422 forward $600 $-1 #
edge $-1 $601 -12.170072556964456 $426 -3.6184902750650991 $421 $602 forward 7 unknown #
coedge $-1 $416 $262 $418 $593 forward $257 $-1 #
coedge $-1 $262 $416 $598 $603 forward $257 $-1 #
vertex $-1 $419 $604 #
vertex $-1 $603 $605 #
straight-curve $-1 61.983092745750298 0 -3.6184902750650991 0 1 0 I I #
face $-1 $-1 $440 $60 $-1 $606 forward single #
loop $-1 $-1 $607 $264 #
plane-surface $-1 0 33.937762595034826 0 0 -1 0 0 0 -1 forward_v I I I I #
coedge $-1 $608 $609 $610 $611 reversed $265 $-1 #
coedge $-1 $612 $267 $269 $438 forward $165 $-1 #
coedge $-1 $267 $612 $608 $613 forward $165 $-1 #
coedge $-1 $610 $270 $267 $435 forward $440 $-1 #
edge $-1 $442 -19.049484435113552 $614 -7.9652615770026038 $434 $615 forward 7 unknown #
coedge $-1 $616 $617 $268 $437 forward $429 $-1 #
edge $-1 $618 -60.761341750934648 $441 -57.195953035256409 $436 $619 forward 7 unknown #
edge $-1 $442 63.077821493946729 $618 67.875525190069652 $269 $620 forward 7 unknown #
coedge $-1 $270 $610 $616 $621 forward $440 $-1 #
loop $-1 $-1 $610 $428 #
vertex $-1 $437 $622 #
vertex $-1 $271 $623 #
straight-curve $-1 -32.55685744117163 40.322501100355183 15.433618823240849 0 -1 0 I I #
coedge $-1 $444 $444 $-1 $624 reversed $274 $-1 #
edge $-1 $625 0 $625 6.2831853071796004 $275 $626 forward 7 unknown #
vertex $-1 $278 $627 #
ellipse-curve $-1 -30.340012869549444 32.332617425439118 13.650924465401735 0 0.74314483375859142 0.66913059716165679 0.5 0 0 1 I I #
coedge $-1 $448 $448 $-1 $628 reversed $281 $-1 #
edge $-1 $629 0 $629 6.2831853071796004 $282 $630 forward 7 unknown #
vertex $-1 $285 $631 #
ellipse-curve $-1 -27.014746012116156 32.332617425439118 13.650924465401735 0 0.74314483375859142 0.66913059716165679 0.5 0 0 1 I I #
coedge $-1 $452 $452 $-1 $632 reversed $288 $-1 #
edge $-1 $633 0 $633 6.2831853071796004 $289 $634 forward 7 unknown #
vertex $-1 $292 $635 #
ellipse-curve $-1 -23.689479154682871 32.332617425439118 13.650924465401735 0 0.74314483375859142 0.66913059716165679 0.5 0 0 1 I I #
face $-1 $-1 $636 $64 $-1 $637 reversed single #
loop $-1 $-1 $299 $293 #
plane-surface $-1 0 0 15.433618823240851 0 0 1 1 0 0 forward_v I I I I #
coedge $-1 $638 $639 $640 $641 reversed $294 $-1 #
coedge $-1 $642 $296 $298 $466 forward $184 $-1 #
coedge $-1 $296 $642 $638 $643 forward $184 $-1 #
coedge $-1 $640 $299 $296 $463 forward $457 $-1 #
edge $-1 $469 -8.3131671435832128 $644 2.7710557145277388 $462 $645 forward 7 unknown #
coedge $-1 $646 $647 $297 $465 forward $636 $-1 #
edge $-1 $648 -60.761341750934648 $468 -57.195953035256409 $464 $649 forward 7 unknown #
edge $-1 $469 63.077821493946729 $648 67.875525190069652 $298 $650 forward 7 unknown #
coedge $-1 $299 $640 $646 $651 forward $457 $-1 #
vertex $-1 $300 $652 #
vertex $-1 $300 $653 #
straight-curve $-1 -11.08422285811095 40.322501100355183 15.433618823240849 0 -1 0 I I #
coedge $-1 $471 $471 $-1 $654 reversed $303 $-1 #
edge $-1 $655 0 $655 6.2831853071796004 $304 $656 forward 7 unknown #
vertex $-1 $307 $657 #
ellipse-curve $-1 -8.8673782864887585 32.332617425439118 13.650924465401735 0 0.74314483375859142 0.66913059716165679 0.5 0 0 1 I I #
coedge $-1 $475 $475 $-1 $658 reversed $310 $-1 #
edge $-1 $659 0 $659 6.2831853071796004 $311 $660 forward 7 unknown #
vertex $-1 $314 $661 #
ellipse-curve $-1 -5.542111429055474 32.332617425439118 13.650924465401735 0 0.74314483375859142 0.66913059716165679 0.5 0 0 1 I I #
coedge $-1 $479 $479 $-1 $662 reversed $317 $-1 #
edge $-1 $663 0 $663 6.2831853071796004 $318 $664 forward 7 unknown #
vertex $-1 $321 $665 #
ellipse-curve $-1 -2.2168445716221896 32.332617425439118 13.650924465401735 0 0.74314483375859142 0.66913059716165679 0.5 0 0 1 I I #
face $-1 $-1 $666 $68 $-1 $667 reversed single #
loop $-1 $-1 $328 $322 #
plane-surface $-1 0 0 15.433618823240851 0 0 1 1 0 0 forward_v I I I I #
coedge $-1 $668 $669 $670 $671 reversed $323 $-1 #
coedge $-1 $672 $325 $327 $493 forward $203 $-1 #
coedge $-1 $325 $672 $668 $673 forward $203 $-1 #
coedge $-1 $670 $328 $325 $490 forward $484 $-1 #
edge $-1 $496 2.4231501479471316 $674 13.507373006058081 $489 $675 forward 7 unknown #
coedge $-1 $676 $677 $326 $492 forward $666 $-1 #
edge $-1 $678 -60.761341750934648 $495 -57.195953035256409 $491 $679 forward 7 unknown #
edge $-1 $496 63.077821493946729 $678 67.875525190069652 $327 $680 forward 7 unknown #
coedge $-1 $328 $670 $676 $681 forward $484 $-1 #
vertex $-1 $329 $682 #
vertex $-1 $329 $683 #
straight-curve $-1 10.388411724949739 40.322501100355183 15.433618823240849 0 -1 0 I I #
coedge $-1 $498 $498 $-1 $684 reversed $332 $-1 #
edge $-1 $685 0 $685 6.2831853071796004 $333 $686 forward 7 unknown #
vertex $-1 $336 $687 #
ellipse-curve $-1 12.605256296571923 32.332617425439118 13.650924465401735 0 0.74314483375859142 0.66913059716165679 0.5 0 0 1 I I #
coedge $-1 $502 $502 $-1 $688 reversed $339 $-1 #
edge $-1 $689 0 $689 6.2831853071796004 $340 $690 forward 7 unknown #
vertex $-1 $343 $691 #
ellipse-curve $-1 15.930523154005215 32.332617425439118 13.650924465401735 0 0.74314483375859142 0.66913059716165679 0.5 0 0 1 I I #
coedge $-1 $506 $506 $-1 $692 reversed $346 $-1 #
edge $-1 $693 0 $693 6.2831853071796004 $347 $694 forward 7 unknown #
vertex $-1 $350 $695 #
ellipse-curve $-1 19.255790011438492 32.332617425439118 13.650924465401735 0 0.74314483375859142 0.66913059716165679 0.5 0 0 1 I I #
face $-1 $-1 $696 $72 $-1 $697 reversed single #
loop $-1 $-1 $357 $351 #
plane-surface $-1 0 0 15.433618823240851 0 0 1 1 0 0 forward_v I I I I #
coedge $-1 $698 $699 $700 $701 reversed $352 $-1 #
coedge $-1 $702 $354 $356 $520 forward $222 $-1 #
coedge $-1 $354 $702 $698 $703 forward $222 $-1 #
coedge $-1 $700 $357 $354 $517 forward $511 $-1 #
edge $-1 $523 13.159467439477474 $704 24.243690297588422 $516 $705 forward 7 unknown #
coedge $-1 $706 $707 $355 $519 forward $696 $-1 #
edge $-1 $708 -60.761341750934648 $522 -57.195953035256409 $518 $709 forward 7 unknown #
edge $-1 $523 63.077821493946729 $708 67.875525190069652 $356 $710 forward 7 unknown #
coedge $-1 $357 $700 $706 $711 forward $511 $-1 #
vertex $-1 $358 $712 #
vertex $-1 $358 $713 #
straight-curve $-1 31.861046308010422 40.322501100355183 15.433618823240849 0 -1 0 I I #
coedge $-1 $525 $525 $-1 $714 reversed $361 $-1 #
edge $-1 $715 0 $715 6.2831853071796004 $362 $716 forward 7 unknown #
vertex $-1 $365 $717 #
ellipse-curve $-1 34.077890879632605 32.332617425439118 13.650924465401735 0 0.74314483375859142 0.66913059716165679 0.5 0 0 1 I I #
coedge $-1 $529 $529 $-1 $718 reversed $368 $-1 #
edge $-1 $719 0 $719 6.2831853071796004 $369 $720 forward 7 unknown #
vertex $-1 $372 $721 #
ellipse-curve $-1 37.403157737065897 32.332617425439118 13.650924465401735 0 0.74314483375859142 0.66913059716165679 0.5 0 0 1 I I #
coedge $-1 $533 $533 $-1 $722 reversed $375 $-1 #
edge $-1 $723 0 $723 6.2831853071796004 $376 $724 forward 7 unknown #
vertex $-1 $379 $725 #
ellipse-curve $-1 40.728424594499174 32.332617425439118 13.650924465401735 0 0.74314483375859142 0.66913059716165679 0.5 0 0 1 I I #
face $-1 $-1 $395 $57 $-1 $726 reversed single #
loop $-1 $-1 $553 $380 #
plane-surface $-1 0 33.937762595034826 0 0 -1 0 0 0 -1 forward_v I I I I #
coedge $-1 $727 $551 $554 $728 forward $381 $-1 #
coedge $-1 $557 $383 $384 $545 reversed $241 $-1 #
coedge $-1 $551 $727 $383 $543 reversed $381 $-1 #
edge $-1 $558 -15.433618823240851 $729 15.433618823240851 $542 $730 forward 7 unknown #
coedge $-1 $385 $384 $727 $731 forward $153 $-1 #
edge $-1 $549 -61.983092745750298 $729 61.983092745750298 $541 $732 forward 7 unknown #
coedge $-1 $554 $553 $385 $547 reversed $538 $-1 #
edge $-1 $733 -61.983092745750298 $548 61.983092745750298 $546 $734 forward 7 unknown #
vertex $-1 $387 $735 #
vertex $-1 $560 $736 #
straight-curve $-1 61.983092745750298 0 -15.433618823240851 0 -1 0 I I #
coedge $-1 $540 $542 $388 $552 reversed $381 $-1 #
edge $-1 $555 -33.937762595034826 $558 33.937762595034826 $551 $737 forward 7 unknown #
coedge $-1 $546 $389 $394 $561 forward $538 $-1 #
coedge $-1 $389 $546 $540 $728 reversed $538 $-1 #
vertex $-1 $390 $738 #
straight-curve $-1 0 33.937762595034826 15.433618823240851 -1 0 0 I I #
coedge $-1 $391 $541 $393 $560 reversed $241 $-1 #
vertex $-1 $552 $739 #
straight-curve $-1 0 -33.937762595034826 15.433618823240851 1 0 0 I I #
edge $-1 $396 -15.433618823240851 $549 15.433618823240851 $393 $740 forward 7 unknown #
edge $-1 $397 -15.433618823240851 $548 15.433618823240851 $394 $741 forward 7 unknown #
point $-1 61.983092745750298 -33.937762595034826 15.433618823240851 #
point $-1 61.983092745750298 33.937762595034826 15.433618823240851 #
face $-1 $-1 $577 $58 $-1 $742 reversed single #
loop $-1 $-1 $743 $399 #
plane-surface $-1 -81.020916325379233 0 -7.8942814160147776 1 0 0 0 0 -1 forward_v I I I I #
coedge $-1 $744 $569 $405 $574 reversed $400 $-1 #
coedge $-1 $403 $402 $743 $745 reversed $157 $-1 #
coedge $-1 $567 $746 $402 $570 forward $400 $-1 #
edge $-1 $747 -9.5189117898144673 $572 9.5189117898144673 $402 $748 forward 7 unknown #
edge $-1 $410 -9.5189117898144673 $749 9.5189117898144673 $403 $750 forward 7 unknown #
vertex $-1 $404 $751 #
straight-curve $-1 -61.983092745750298 33.937762595034826 0 0 0 -1 I I #
edge $-1 $578 -33.937762595034826 $572 33.937762595034826 $567 $752 forward 7 unknown #
coedge $-1 $753 $406 $409 $581 reversed $577 $-1 #
coedge $-1 $406 $753 $744 $754 reversed $577 $-1 #
loop $-1 $-1 $406 $564 #
vertex $-1 $407 $755 #
straight-curve $-1 -61.983092745750298 -33.937762595034826 0 0 0 1 I I #
coedge $-1 $409 $408 $756 $757 forward $249 $-1 #
edge $-1 $758 -9.5189117898144673 $411 9.5189117898144673 $575 $759 forward 7 unknown #
point $-1 -61.983092745750298 33.937762595034826 -3.6184902750650991 #
point $-1 -61.983092745750298 -33.937762595034826 -3.6184902750650991 #
face $-1 $-1 $600 $59 $-1 $760 reversed single #
loop $-1 $-1 $761 $413 #
plane-surface $-1 81.020916325379233 0 -7.8942814160147776 -1 0 0 0 0 1 forward_v I I I I #
coedge $-1 $591 $762 $763 $764 forward $414 $-1 #
coedge $-1 $761 $765 $416 $589 reversed $585 $-1 #
edge $-1 $766 -33.937762595034826 $767 33.937762595034826 $588 $768 forward 7 unknown #
coedge $-1 $418 $417 $761 $769 reversed $161 $-1 #
coedge $-1 $596 $587 $417 $592 forward $414 $-1 #
edge $-1 $770 -9.5189117898144673 $594 9.5189117898144673 $417 $771 forward 7 unknown #
edge $-1 $425 -9.5189117898144673 $766 9.5189117898144673 $418 $772 forward 7 unknown #
vertex $-1 $419 $773 #
straight-curve $-1 61.983092745750298 -33.937762595034826 0 0 0 -1 I I #
coedge $-1 $762 $591 $420 $597 reversed $414 $-1 #
edge $-1 $601 -33.937762595034826 $594 33.937762595034826 $596 $774 forward 7 unknown #
coedge $-1 $775 $421 $424 $603 reversed $600 $-1 #
coedge $-1 $421 $775 $762 $776 reversed $600 $-1 #
loop $-1 $-1 $421 $584 #
vertex $-1 $422 $777 #
straight-curve $-1 61.983092745750298 33.937762595034826 0 0 0 1 I I #
edge $-1 $767 -9.5189117898144673 $426 9.5189117898144673 $598 $778 forward 7 unknown #
point $-1 61.983092745750298 -33.937762595034826 -3.6184902750650991 #
point $-1 61.983092745750298 33.937762595034826 -3.6184902750650991 #
plane-surface $-1 0 0 15.433618823240851 0 0 1 1 0 0 forward_v I I I I #
coedge $-1 $617 $616 $609 $779 forward $429 $-1 #
coedge $-1 $609 $431 $433 $613 reversed $265 $-1 #
coedge $-1 $431 $608 $607 $779 reversed $265 $-1 #
coedge $-1 $439 $434 $431 $611 forward $440 $-1 #
edge $-1 $614 -9.5950288445117664 $780 -6.3847385053203567 $610 $781 forward 7 unknown #
coedge $-1 $433 $432 $617 $782 reversed $165 $-1 #
edge $-1 $783 -67.875525190069652 $614 -63.077821493946729 $608 $784 forward 7 unknown #
vertex $-1 $435 $785 #
straight-curve $-1 -13.507373006058078 30.727472255843409 15.433618823240849 1 0 0 I I #
coedge $-1 $607 $436 $439 $621 reversed $429 $-1 #
coedge $-1 $436 $607 $612 $782 forward $429 $-1 #
vertex $-1 $437 $786 #
straight-curve $-1 -32.55685744117163 33.937762595034826 72.629571858497258 0 0 1 I I #
straight-curve $-1 -32.55685744117163 -11.479828108057561 62.309575991214004 0 0.66913059716165679 -0.74314483375859142 I I #
edge $-1 $780 21.472634583060682 $441 32.55685744117163 $616 $787 forward 7 unknown #
point $-1 -32.55685744117163 33.937762595034826 15.433618823240851 #
point $-1 -32.55685744117163 30.727472255843416 15.433618823240849 #
edge $-1 $788 1 $788 0 $444 $-1 forward 7 unknown #
vertex $-1 $445 $789 #
ellipse-curve $-1 -30.340012869549444 30.928620950136445 12.386760392322381 0 0.74314483375859142 0.66913059716165679 0.5 0 0 1 I I #
point $-1 -29.840012869549444 32.332617425439111 13.650924465401729 #
edge $-1 $790 1 $790 0 $448 $-1 forward 7 unknown #
vertex $-1 $449 $791 #
ellipse-curve $-1 -27.014746012116156 30.928620950136445 12.386760392322381 0 0.74314483375859142 0.66913059716165679 0.5 0 0 1 I I #
point $-1 -26.514746012116156 32.332617425439111 13.650924465401729 #
edge $-1 $792 1 $792 0 $452 $-1 forward 7 unknown #
vertex $-1 $453 $793 #
ellipse-curve $-1 -23.689479154682871 30.928620950136445 12.386760392322381 0 0.74314483375859142 0.66913059716165679 0.5 0 0 1 I I #
point $-1 -23.189479154682871 32.332617425439111 13.650924465401729 #
loop $-1 $-1 $464 $456 #
plane-surface $-1 0 33.937762595034826 0 0 -1 0 0 0 -1 forward_v I I I I #
coedge $-1 $639 $459 $461 $643 reversed $294 $-1 #
coedge $-1 $459 $638 $794 $795 reversed $294 $-1 #
coedge $-1 $467 $462 $459 $641 forward $457 $-1 #
edge $-1 $644 -9.5950288445117664 $796 -6.3847385053203567 $640 $797 forward 7 unknown #
coedge $-1 $461 $460 $647 $798 reversed $184 $-1 #
edge $-1 $799 -67.875525190069652 $644 -63.077821493946729 $638 $800 forward 7 unknown #
vertex $-1 $463 $801 #
straight-curve $-1 -2.771055714527737 30.727472255843409 15.433618823240849 1 0 0 I I #
coedge $-1 $794 $464 $467 $651 reversed $636 $-1 #
coedge $-1 $464 $794 $642 $798 forward $636 $-1 #
vertex $-1 $465 $802 #
straight-curve $-1 -11.08422285811095 33.937762595034826 72.629571858497258 0 0 1 I I #
straight-curve $-1 -11.08422285811095 -11.479828108057561 62.309575991214004 0 0.66913059716165679 -0.74314483375859142 I I #
edge $-1 $796 -1.7763568394002505e-015 $468 11.08422285811095 $646 $803 forward 7 unknown #
point $-1 -11.08422285811095 33.937762595034826 15.433618823240851 #
point $-1 -11.08422285811095 30.727472255843416 15.433618823240849 #
edge $-1 $804 1 $804 0 $471 $-1 forward 7 unknown #
vertex $-1 $472 $805 #
ellipse-curve $-1 -8.8673782864887585 30.928620950136445 12.386760392322381 0 0.74314483375859142 0.66913059716165679 0.5 0 0 1 I I #
point $-1 -8.3673782864887585 32.332617425439111 13.650924465401729 #
edge $-1 $806 1 $806 0 $475 $-1 forward 7 unknown #
vertex $-1 $476 $807 #
ellipse-curve $-1 -5.542111429055474 30.928620950136445 12.386760392322381 0 0.74314483375859142 0.66913059716165679 0.5 0 0 1 I I #
point $-1 -5.042111429055474 32.332617425439111 13.650924465401729 #
edge $-1 $808 1 $808 0 $479 $-1 forward 7 unknown #
vertex $-1 $480 $809 #
ellipse-curve $-1 -2.2168445716221896 30.928620950136445 12.386760392322381 0 0.74314483375859142 0.66913059716165679 0.5 0 0 1 I I #
point $-1 -1.7168445716221896 32.332617425439111 13.650924465401729 #
loop $-1 $-1 $491 $483 #
plane-surface $-1 0 33.937762595034826 0 0 -1 0 0 0 -1 forward_v I I I I #
coedge $-1 $669 $486 $488 $673 reversed $323 $-1 #
coedge $-1 $486 $668 $810 $811 reversed $323 $-1 #
coedge $-1 $494 $489 $486 $671 forward $484 $-1 #
edge $-1 $674 -9.5950288445117664 $812 -6.3847385053203567 $670 $813 forward 7 unknown #
coedge $-1 $488 $487 $677 $814 reversed $203 $-1 #
edge $-1 $815 -67.875525190069652 $674 -63.077821493946729 $668 $816 forward 7 unknown #
vertex $-1 $490 $817 #
straight-curve $-1 7.9652615770026074 30.727472255843409 15.433618823240849 1 0 0 I I #
coedge $-1 $810 $491 $494 $681 reversed $666 $-1 #
coedge $-1 $491 $810 $672 $814 forward $666 $-1 #
vertex $-1 $492 $818 #
straight-curve $-1 10.388411724949739 33.937762595034826 72.629571858497258 0 0 1 I I #
straight-curve $-1 10.388411724949739 -11.479828108057561 62.309575991214004 0 0.66913059716165679 -0.74314483375859142 I I #
edge $-1 $812 -21.472634583060689 $495 -10.388411724949739 $676 $819 forward 7 unknown #
point $-1 10.388411724949739 33.937762595034826 15.433618823240851 #
point $-1 10.388411724949739 30.727472255843416 15.433618823240849 #
edge $-1 $820 1 $820 0 $498 $-1 forward 7 unknown #
vertex $-1 $499 $821 #
ellipse-curve $-1 12.605256296571923 30.928620950136445 12.386760392322381 0 0.74314483375859142 0.66913059716165679 0.5 0 0 1 I I #
point $-1 13.105256296571923 32.332617425439111 13.650924465401729 #
edge $-1 $822 1 $822 0 $502 $-1 forward 7 unknown #
vertex $-1 $503 $823 #
ellipse-curve $-1 15.930523154005215 30.928620950136445 12.386760392322381 0 0.74314483375859142 0.66913059716165679 0.5 0 0 1 I I #
point $-1 16.430523154005215 32.332617425439111 13.650924465401729 #
edge $-1 $824 1 $824 0 $506 $-1 forward 7 unknown #
vertex $-1 $507 $825 #
ellipse-curve $-1 19.255790011438492 30.928620950136445 12.386760392322381 0 0.74314483375859142 0.66913059716165679 0.5 0 0 1 I I #
point $-1 19.755790011438492 32.332617425439111 13.650924465401729 #
loop $-1 $-1 $518 $510 #
plane-surface $-1 0 33.937762595034826 0 0 -1 0 0 0 -1 forward_v I I I I #
coedge $-1 $699 $513 $515 $703 reversed $352 $-1 #
coedge $-1 $513 $698 $826 $827 reversed $352 $-1 #
coedge $-1 $521 $516 $513 $701 forward $511 $-1 #
edge $-1 $704 -9.5950288445117664 $828 -6.3847385053203567 $700 $829 forward 7 unknown #
coedge $-1 $515 $514 $707 $830 reversed $222 $-1 #
edge $-1 $831 -67.875525190069652 $704 -63.077821493946729 $698 $832 forward 7 unknown #
vertex $-1 $517 $833 #
straight-curve $-1 18.701578868532948 30.727472255843409 15.433618823240849 1 0 0 I I #
coedge $-1 $826 $518 $521 $711 reversed $696 $-1 #
coedge $-1 $518 $826 $702 $830 forward $696 $-1 #
vertex $-1 $519 $834 #
straight-curve $-1 31.861046308010422 33.937762595034826 72.629571858497258 0 0 1 I I #
straight-curve $-1 31.861046308010422 -11.479828108057561 62.309575991214004 0 0.66913059716165679 -0.74314483375859142 I I #
edge $-1 $828 -42.945269166121371 $522 -31.861046308010422 $706 $835 forward 7 unknown #
point $-1 31.861046308010422 33.937762595034826 15.433618823240851 #
point $-1 31.861046308010422 30.727472255843416 15.433618823240849 #
edge $-1 $836 1 $836 0 $525 $-1 forward 7 unknown #
vertex $-1 $526 $837 #
ellipse-curve $-1 34.077890879632605 30.928620950136445 12.386760392322381 0 0.74314483375859142 0.66913059716165679 0.5 0 0 1 I I #
point $-1 34.577890879632605 32.332617425439111 13.650924465401729 #
edge $-1 $838 1 $838 0 $529 $-1 forward 7 unknown #
vertex $-1 $530 $839 #
ellipse-curve $-1 37.403157737065897 30.928620950136445 12.386760392322381 0 0.74314483375859142 0.66913059716165679 0.5 0 0 1 I I #
point $-1 37.903157737065897 32.332617425439111 13.650924465401729 #
edge $-1 $840 1 $840 0 $533 $-1 forward 7 unknown #
vertex $-1 $534 $841 #
ellipse-curve $-1 40.728424594499174 30.928620950136445 12.386760392322381 0 0.74314483375859142 0.66913059716165679 0.5 0 0 1 I I #
point $-1 41.228424594499174 32.332617425439111 13.650924465401729 #
plane-surface $-1 61.983092745750298 0 0 -1 0 0 0 0 1 forward_v I I I I #
coedge $-1 $542 $540 $544 $731 reversed $381 $-1 #
edge $-1 $555 -15.433618823240851 $733 15.433618823240851 $554 $842 forward 7 unknown #
vertex $-1 $731 $843 #
straight-curve $-1 -61.983092745750298 -33.937762595034826 0 0 0 -1 I I #
edge $-1 $729 -33.937762595034826 $733 33.937762595034826 $727 $844 forward 7 unknown #
straight-curve $-1 0 -33.937762595034826 -15.433618823240851 -1 0 0 I I #
vertex $-1 $547 $845 #
straight-curve $-1 0 33.937762595034826 -15.433618823240851 1 0 0 I I #
point $-1 61.983092745750298 33.937762595034826 -15.433618823240851 #
point $-1 61.983092745750298 -33.937762595034826 -15.433618823240851 #
straight-curve $-1 -61.983092745750298 0 15.433618823240851 0 -1 0 I I #
point $-1 -61.983092745750298 33.937762595034826 15.433618823240851 #
point $-1 -61.983092745750298 -33.937762595034826 15.433618823240851 #
straight-curve $-1 61.983092745750298 -33.937762595034826 0 0 0 -1 I I #
straight-curve $-1 61.983092745750298 33.937762595034826 0 0 0 -1 I I #
plane-surface $-1 0 -33.937762595034826 0 0 1 0 0 0 1 forward_v I I I I #
coedge $-1 $846 $756 $568 $745 forward $565 $-1 #
coedge $-1 $746 $567 $576 $754 forward $400 $-1 #
edge $-1 $749 -4.2757911409496785 $747 4.2757911409496785 $568 $847 forward 7 unknown #
coedge $-1 $569 $744 $846 $848 forward $400 $-1 #
vertex $-1 $570 $849 #
straight-curve $-1 -71.502004535564765 33.937762595034826 -12.170072556964456 1 0 0 I I #
vertex $-1 $571 $850 #
straight-curve $-1 -71.502004535564765 33.937762595034826 -3.6184902750650991 -1 0 0 I I #
point $-1 -61.983092745750298 33.937762595034826 -12.170072556964456 #
straight-curve $-1 -61.983092745750298 0 -12.170072556964456 0 1 0 I I #
coedge $-1 $576 $575 $851 $852 forward $577 $-1 #
edge $-1 $578 -9.5189117898144673 $853 9.5189117898144673 $576 $854 forward 7 unknown #
point $-1 -61.983092745750298 -33.937762595034826 -12.170072556964456 #
coedge $-1 $743 $851 $580 $757 reversed $565 $-1 #
edge $-1 $749 -33.937762595034826 $758 33.937762595034826 $756 $855 forward 7 unknown #
vertex $-1 $757 $856 #
straight-curve $-1 -71.502004535564765 -33.937762595034826 -3.6184902750650991 1 0 0 I I #
plane-surface $-1 0 33.937762595034826 0 0 -1 0 0 0 -1 forward_v I I I I #
coedge $-1 $763 $588 $590 $769 forward $585 $-1 #
coedge $-1 $587 $596 $599 $776 forward $414 $-1 #
coedge $-1 $765 $761 $587 $764 reversed $585 $-1 #
edge $-1 $857 -33.937762595034826 $770 33.937762595034826 $763 $858 forward 7 unknown #
coedge $-1 $588 $763 $775 $859 reversed $585 $-1 #
vertex $-1 $589 $860 #
vertex $-1 $589 $861 #
straight-curve $-1 81.020916325379233 0 -3.6184902750650991 0 1 0 I I #
edge $-1 $766 -4.2757911409496785 $770 4.2757911409496785 $761 $862 forward 7 unknown #
vertex $-1 $769 $863 #
straight-curve $-1 71.502004535564765 -33.937762595034826 -12.170072556964456 -1 0 0 I I #
straight-curve $-1 71.502004535564765 -33.937762595034826 -3.6184902750650991 1 0 0 I I #
point $-1 61.983092745750298 -33.937762595034826 -12.170072556964456 #
straight-curve $-1 61.983092745750298 0 -12.170072556964456 0 -1 0 I I #
coedge $-1 $599 $598 $765 $859 forward $600 $-1 #
edge $-1 $601 -9.5189117898144673 $857 9.5189117898144673 $599 $864 forward 7 unknown #
point $-1 61.983092745750298 33.937762595034826 -12.170072556964456 #
straight-curve $-1 71.502004535564765 33.937762595034826 -3.6184902750650991 -1 0 0 I I #
edge $-1 $780 57.195953035256409 $783 60.761341750934648 $607 $865 forward 7 unknown #
vertex $-1 $621 $866 #
straight-curve $-1 -21.472634583060682 40.322501100355183 15.433618823240849 0 1 0 I I #
edge $-1 $783 7.9652615770026038 $618 19.049484435113552 $617 $867 forward 7 unknown #
vertex $-1 $782 $868 #
straight-curve $-1 -21.472634583060682 -11.479828108057561 62.309575991214004 0 -0.66913059716165679 0.74314483375859142 I I #
point $-1 -21.472634583060682 30.727472255843416 15.433618823240849 #
point $-1 -32.55685744117163 33.937762595034826 11.86823010756261 #
straight-curve $-1 0 33.937762595034826 15.433618823240851 -1 0 0 I I #
vertex $-1 $624 $869 #
point $-1 -29.840012869549444 30.928620950136445 12.386760392322381 #
vertex $-1 $628 $870 #
point $-1 -26.514746012116156 30.928620950136445 12.386760392322381 #
vertex $-1 $632 $871 #
point $-1 -23.189479154682871 30.928620950136445 12.386760392322381 #
coedge $-1 $647 $646 $639 $795 forward $636 $-1 #
edge $-1 $796 57.195953035256409 $799 60.761341750934648 $794 $872 forward 7 unknown #
vertex $-1 $651 $873 #
straight-curve $-1 1.7763568394002505e-015 40.322501100355183 15.433618823240849 0 1 0 I I #
edge $-1 $799 -2.7710557145277388 $648 8.3131671435832128 $647 $874 forward 7 unknown #
vertex $-1 $798 $875 #
straight-curve $-1 1.7763568394002505e-015 -11.479828108057561 62.309575991214004 0 -0.66913059716165679 0.74314483375859142 I I #
point $-1 1.7763568394002505e-015 30.727472255843416 15.433618823240849 #
point $-1 -11.08422285811095 33.937762595034826 11.86823010756261 #
straight-curve $-1 0 33.937762595034826 15.433618823240851 -1 0 0 I I #
vertex $-1 $654 $876 #
point $-1 -8.3673782864887585 30.928620950136445 12.386760392322381 #
vertex $-1 $658 $877 #
point $-1 -5.042111429055474 30.928620950136445 12.386760392322381 #
vertex $-1 $662 $878 #
point $-1 -1.7168445716221896 30.928620950136445 12.386760392322381 #
coedge $-1 $677 $676 $669 $811 forward $666 $-1 #
edge $-1 $812 57.195953035256409 $815 60.761341750934648 $810 $879 forward 7 unknown #
vertex $-1 $681 $880 #
straight-curve $-1 21.472634583060689 40.322501100355183 15.433618823240849 0 1 0 I I #
edge $-1 $815 -13.507373006058081 $678 -2.4231501479471316 $677 $881 forward 7 unknown #
vertex $-1 $814 $882 #
straight-curve $-1 21.472634583060689 -11.479828108057561 62.309575991214004 0 -0.66913059716165679 0.74314483375859142 I I #
point $-1 21.472634583060689 30.727472255843416 15.433618823240849 #
point $-1 10.388411724949739 33.937762595034826 11.86823010756261 #
straight-curve $-1 0 33.937762595034826 15.433618823240851 -1 0 0 I I #
vertex $-1 $684 $883 #
point $-1 13.105256296571923 30.928620950136445 12.386760392322381 #
vertex $-1 $688 $884 #
point $-1 16.430523154005215 30.928620950136445 12.386760392322381 #
vertex $-1 $692 $885 #
point $-1 19.755790011438492 30.928620950136445 12.386760392322381 #
coedge $-1 $707 $706 $699 $827 forward $696 $-1 #
edge $-1 $828 57.195953035256409 $831 60.761341750934648 $826 $886 forward 7 unknown #
vertex $-1 $711 $887 #
straight-curve $-1 42.945269166121371 40.322501100355183 15.433618823240849 0 1 0 I I #
edge $-1 $831 -24.243690297588422 $708 -13.159467439477474 $707 $888 forward 7 unknown #
vertex $-1 $830 $889 #
straight-curve $-1 42.945269166121371 -11.479828108057561 62.309575991214004 0 -0.66913059716165679 0.74314483375859142 I I #
point $-1 42.945269166121371 30.727472255843416 15.433618823240849 #
point $-1 31.861046308010422 33.937762595034826 11.86823010756261 #
straight-curve $-1 0 33.937762595034826 15.433618823240851 -1 0 0 I I #
vertex $-1 $714 $890 #
point $-1 34.577890879632605 30.928620950136445 12.386760392322381 #
vertex $-1 $718 $891 #
point $-1 37.903157737065897 30.928620950136445 12.386760392322381 #
vertex $-1 $722 $892 #
point $-1 41.228424594499174 30.928620950136445 12.386760392322381 #
straight-curve $-1 -61.983092745750298 33.937762595034826 0 0 0 -1 I I #
point $-1 -61.983092745750298 -33.937762595034826 -15.433618823240851 #
straight-curve $-1 -61.983092745750298 0 -15.433618823240851 0 1 0 I I #
point $-1 -61.983092745750298 33.937762595034826 -15.433618823240851 #
coedge $-1 $851 $743 $746 $848 reversed $565 $-1 #
straight-curve $-1 -81.020916325379233 33.937762595034826 -7.8942814160147776 0 0 -1 I I #
edge $-1 $853 -33.937762595034826 $747 33.937762595034826 $846 $893 forward 7 unknown #
point $-1 -81.020916325379233 33.937762595034826 -12.170072556964456 #
point $-1 -81.020916325379233 33.937762595034826 -3.6184902750650991 #
coedge $-1 $756 $846 $753 $852 reversed $565 $-1 #
edge $-1 $758 -4.2757911409496785 $853 4.2757911409496785 $851 $894 forward 7 unknown #
vertex $-1 $848 $895 #
straight-curve $-1 -71.502004535564765 -33.937762595034826 -12.170072556964456 -1 0 0 I I #
straight-curve $-1 -81.020916325379233 0 -3.6184902750650991 0 -1 0 I I #
point $-1 -81.020916325379233 -33.937762595034826 -3.6184902750650991 #
vertex $-1 $764 $896 #
straight-curve $-1 81.020916325379233 0 -12.170072556964456 0 -1 0 I I #
edge $-1 $767 -4.2757911409496785 $857 4.2757911409496785 $765 $897 forward 7 unknown #
point $-1 81.020916325379233 -33.937762595034826 -3.6184902750650991 #
point $-1 81.020916325379233 33.937762595034826 -3.6184902750650991 #
straight-curve $-1 81.020916325379233 -33.937762595034826 -7.8942814160147776 0 0 -1 I I #
point $-1 81.020916325379233 -33.937762595034826 -12.170072556964456 #
straight-curve $-1 71.502004535564765 33.937762595034826 -12.170072556964456 1 0 0 I I #
straight-curve $-1 -21.472634583060682 33.937762595034826 72.629571858497258 0 0 -1 I I #
point $-1 -21.472634583060682 33.937762595034826 15.433618823240851 #
straight-curve $-1 -13.507373006058078 33.937762595034826 11.868230107562603 -1 0 0 I I #
point $-1 -21.472634583060682 33.937762595034826 11.86823010756261 #
point $-1 -30.340012869549444 30.557048533257149 12.052195093741554 #
point $-1 -27.014746012116156 30.557048533257149 12.052195093741554 #
point $-1 -23.689479154682871 30.557048533257149 12.052195093741554 #
straight-curve $-1 1.7763568394002505e-015 33.937762595034826 72.629571858497258 0 0 -1 I I #
point $-1 1.7763568394002505e-015 33.937762595034826 15.433618823240851 #
straight-curve $-1 -2.771055714527737 33.937762595034826 11.868230107562603 -1 0 0 I I #
point $-1 1.7763568394002505e-015 33.937762595034826 11.86823010756261 #
point $-1 -8.8673782864887585 30.557048533257149 12.052195093741554 #
point $-1 -5.542111429055474 30.557048533257149 12.052195093741554 #
point $-1 -2.2168445716221896 30.557048533257149 12.052195093741554 #
straight-curve $-1 21.472634583060689 33.937762595034826 72.629571858497258 0 0 -1 I I #
point $-1 21.472634583060689 33.937762595034826 15.433618823240851 #
straight-curve $-1 7.9652615770026074 33.937762595034826 11.868230107562603 -1 0 0 I I #
point $-1 21.472634583060689 33.937762595034826 11.86823010756261 #
point $-1 12.605256296571923 30.557048533257149 12.052195093741554 #
point $-1 15.930523154005215 30.557048533257149 12.052195093741554 #
point $-1 19.255790011438492 30.557048533257149 12.052195093741554 #
straight-curve $-1 42.945269166121371 33.937762595034826 72.629571858497258 0 0 -1 I I #
point $-1 42.945269166121371 33.937762595034826 15.433618823240851 #
straight-curve $-1 18.701578868532948 33.937762595034826 11.868230107562603 -1 0 0 I I #
point $-1 42.945269166121371 33.937762595034826 11.86823010756261 #
point $-1 34.077890879632605 30.557048533257149 12.052195093741554 #
point $-1 37.403157737065897 30.557048533257149 12.052195093741554 #
point $-1 40.728424594499174 30.557048533257149 12.052195093741554 #
straight-curve $-1 -81.020916325379233 0 -12.170072556964456 0 1 0 I I #
straight-curve $-1 -81.020916325379233 -33.937762595034826 -7.8942814160147776 0 0 -1 I I #
point $-1 -81.020916325379233 -33.937762595034826 -12.170072556964456 #
point $-1 81.020916325379233 33.937762595034826 -12.170072556964456 #
straight-curve $-1 81.020916325379233 33.937762595034826 -7.8942814160147776 0 0 -1 I I #
End-of-ACIS-data 