500 0 5 0           
7 Unknown 11 ACIS 5.0 NT 24 Fri Mar 26 17:36:33 1999 
-1 9.9999999999999995e-007 1e-010 
body $-1 $5 $-1 $6 #
body $-1 $7 $-1 $8 #
body $-1 $9 $-1 $10 #
body $-1 $11 $-1 $12 #
body $-1 $13 $-1 $14 #
lump $-1 $-1 $15 $0 #
transform $-1 1 0 0 0 1 0 0 0 1 49.306924649800102 25.790469443812036 7.578149322549109 1 rotate no_reflect no_shear #
lump $-1 $-1 $16 $1 #
transform $-1 1 0 0 0 1 0 0 0 1 49.306924649800102 25.790469443812036 7.578149322549109 1 rotate no_reflect no_shear #
lump $-1 $-1 $17 $2 #
transform $-1 1 0 0 0 1 0 0 0 1 49.306924649800102 25.790469443812036 7.578149322549109 1 rotate no_reflect no_shear #
lump $-1 $-1 $18 $3 #
transform $-1 1 0 0 0 1 0 0 0 1 49.306924649800102 25.790469443812036 7.578149322549109 1 rotate no_reflect no_shear #
lump $-1 $-1 $19 $4 #
transform $-1 1 0 0 0 1 0 0 0 1 49.306924649800102 25.790469443812036 7.578149322549109 1 rotate no_reflect no_shear #
shell $-1 $-1 $-1 $20 $-1 $5 #
shell $-1 $-1 $-1 $21 $-1 $7 #
shell $-1 $-1 $-1 $22 $-1 $9 #
shell $-1 $-1 $-1 $23 $-1 $11 #
shell $-1 $-1 $-1 $24 $-1 $13 #
face $-1 $25 $26 $15 $-1 $27 forward single #
face $-1 $28 $29 $16 $-1 $30 forward single #
face $-1 $31 $32 $17 $-1 $33 reversed single #
face $-1 $34 $35 $18 $-1 $36 forward single #
face $-1 $37 $38 $19 $-1 $39 forward single #
face $-1 $40 $41 $15 $-1 $42 reversed single #
loop $-1 $-1 $43 $20 #
plane-surface $-1 0 0 7.578149322549109 0 0 1 1 0 0 forward_v I I I I #
face $-1 $44 $45 $16 $-1 $46 forward single #
loop $-1 $-1 $47 $21 #
plane-surface $-1 0 -25.790469443812036 0 0 1 0 0 0 1 forward_v I I I I #
face $-1 $48 $49 $17 $-1 $50 reversed single #
loop $-1 $-1 $51 $22 #
plane-surface $-1 71.123440241628117 14.756221783942031 139.84568852101879 0 1 0 0.80901700255871778 0 0.5877852410284794 forward_v I I I I #
face $-1 $52 $53 $18 $-1 $54 forward single #
loop $-1 $55 $56 $23 #
cone-surface $-1 46.376321677525077 17.908863972476318 4.1561137354878905 -0.80901700255871778 0 -0.5877852410284794 0.5877852410284794 0 -0.80901700255871778 1 I I 0 1 1 forward I I I I #
face $-1 $57 $58 $19 $-1 $59 forward single #
loop $-1 $60 $61 $24 #
cone-surface $-1 46.376321677525077 22.637827255277749 4.1561137354878905 -0.80901700255871778 0 -0.5877852410284794 0.5877852410284794 0 -0.80901700255871778 1 I I 0 1 1 forward I I I I #
face $-1 $62 $63 $15 $-1 $64 reversed single #
loop $-1 $-1 $65 $25 #
plane-surface $-1 0 0 -7.578149322549109 0 0 1 1 0 0 forward_v I I I I #
coedge $-1 $66 $67 $68 $69 forward $26 $-1 #
face $-1 $70 $71 $16 $-1 $72 reversed single #
loop $-1 $-1 $73 $28 #
plane-surface $-1 0 0 7.578149322549109 0 0 1 1 0 0 forward_v I I I I #
coedge $-1 $74 $75 $76 $77 forward $29 $-1 #
face $-1 $78 $79 $17 $-1 $80 reversed single #
loop $-1 $-1 $81 $31 #
plane-surface $-1 -8.6568405295115554 20.273345613877034 81.881923341707136 0.80901700255871778 0 0.5877852410284794 0.5877852410284794 0 -0.80901700255871778 forward_v I I I I #
coedge $-1 $82 $83 $84 $85 reversed $32 $-1 #
face $-1 $-1 $86 $18 $-1 $87 forward single #
loop $-1 $88 $89 $34 #
cone-surface $-1 45.030667675832667 17.908863972476318 3.1784389039032419 -0.80901700255871778 0 -0.5877852410284794 0.2938926205142397 0 -0.40450850127935889 1 I I -0.70710678118654746 0.70710678118654746 0.5 forward I I I I #
loop $-1 $-1 $90 $23 #
coedge $-1 $56 $56 $91 $92 reversed $35 $-1 #
face $-1 $-1 $93 $19 $-1 $94 forward single #
loop $-1 $95 $96 $37 #
cone-surface $-1 45.030667675832667 22.637827255277749 3.1784389039032419 -0.80901700255871778 0 -0.5877852410284794 0.2938926205142397 0 -0.40450850127935889 1 I I -0.70710678118654746 0.70710678118654746 0.5 forward I I I I #
loop $-1 $-1 $97 $24 #
coedge $-1 $61 $61 $98 $99 reversed $38 $-1 #
face $-1 $100 $101 $15 $-1 $102 reversed single #
loop $-1 $-1 $103 $40 #
plane-surface $-1 0 -25.790469443812036 0 0 1 0 0 0 1 forward_v I I I I #
coedge $-1 $104 $105 $106 $107 forward $41 $-1 #
coedge $-1 $108 $43 $109 $110 forward $26 $-1 #
coedge $-1 $43 $108 $111 $112 forward $26 $-1 #
coedge $-1 $113 $114 $43 $69 reversed $115 $-1 #
edge $-1 $116 -25.790469443812036 $117 25.790469443812036 $68 $118 forward 7 unknown #
face $-1 $119 $120 $16 $-1 $121 reversed single #
loop $-1 $-1 $122 $44 #
plane-surface $-1 -49.306924649800102 0 0 1 0 0 0 0 -1 forward_v I I I I #
coedge $-1 $123 $124 $75 $125 forward $45 $-1 #
coedge $-1 $126 $47 $127 $128 reversed $29 $-1 #
coedge $-1 $47 $126 $73 $125 reversed $29 $-1 #
coedge $-1 $129 $130 $47 $77 reversed $131 $-1 #
edge $-1 $132 -7.578149322549109 $133 7.578149322549109 $76 $134 forward 7 unknown #
face $-1 $135 $136 $17 $-1 $137 forward single #
loop $-1 $-1 $138 $48 #
plane-surface $-1 0 25.790469443812036 0 0 -1 0 0 0 -1 forward_v I I I I #
coedge $-1 $139 $140 $141 $142 reversed $49 $-1 #
coedge $-1 $83 $51 $143 $144 reversed $32 $-1 #
coedge $-1 $51 $82 $139 $145 reversed $32 $-1 #
coedge $-1 $141 $146 $51 $85 forward $147 $-1 #
edge $-1 $148 62.344694937960284 $149 67.82120168994193 $84 $150 forward 7 unknown #
loop $-1 $-1 $91 $52 #
plane-surface $-1 -8.6568405295115554 20.273345613877034 81.881923341707136 0.80901700255871778 0 0.5877852410284794 0.5877852410284794 0 -0.80901700255871778 forward_v I I I I #
loop $-1 $-1 $151 $34 #
coedge $-1 $89 $89 $90 $152 reversed $53 $-1 #
coedge $-1 $90 $90 $89 $152 forward $55 $-1 #
coedge $-1 $91 $91 $56 $92 forward $86 $-1 #
edge $-1 $153 0 $153 6.2831853071796004 $91 $154 forward 7 unknown #
loop $-1 $-1 $98 $57 #
plane-surface $-1 -8.6568405295115554 20.273345613877034 81.881923341707136 0.80901700255871778 0 0.5877852410284794 0.5877852410284794 0 -0.80901700255871778 forward_v I I I I #
loop $-1 $-1 $155 $37 #
coedge $-1 $96 $96 $97 $156 reversed $58 $-1 #
coedge $-1 $97 $97 $96 $156 forward $60 $-1 #
coedge $-1 $98 $98 $61 $99 forward $93 $-1 #
edge $-1 $157 0 $157 6.2831853071796004 $98 $158 forward 7 unknown #
face $-1 $159 $160 $15 $-1 $161 reversed single #
loop $-1 $-1 $162 $62 #
plane-surface $-1 -49.306924649800102 0 0 1 0 0 0 0 -1 forward_v I I I I #
coedge $-1 $163 $111 $164 $165 forward $63 $-1 #
coedge $-1 $166 $65 $163 $167 forward $41 $-1 #
coedge $-1 $65 $166 $168 $169 forward $41 $-1 #
coedge $-1 $114 $113 $65 $107 reversed $115 $-1 #
edge $-1 $170 -25.790469443812036 $171 25.790469443812036 $106 $172 forward 7 unknown #
coedge $-1 $67 $66 $173 $174 forward $26 $-1 #
coedge $-1 $175 $176 $66 $110 reversed $160 $-1 #
edge $-1 $117 -49.306924649800102 $177 49.306924649800102 $109 $178 forward 7 unknown #
coedge $-1 $103 $179 $67 $112 reversed $63 $-1 #
edge $-1 $180 -49.306924649800102 $116 49.306924649800102 $111 $181 forward 7 unknown #
coedge $-1 $106 $68 $179 $182 forward $115 $-1 #
coedge $-1 $68 $106 $175 $183 reversed $115 $-1 #
loop $-1 $-1 $113 $159 #
vertex $-1 $69 $184 #
vertex $-1 $69 $185 #
straight-curve $-1 49.306924649800102 0 7.578149322549109 0 1 0 I I #
face $-1 $186 $131 $16 $-1 $187 reversed single #
loop $-1 $-1 $188 $70 #
plane-surface $-1 -47.53663917998437 -32.906122002780492 0 0 1 0 0 0 1 forward_v I I I I #
coedge $-1 $189 $190 $126 $191 forward $71 $-1 #
coedge $-1 $192 $73 $190 $193 forward $45 $-1 #
coedge $-1 $73 $192 $129 $194 forward $45 $-1 #
edge $-1 $132 45.766353710168637 $195 49.306924649800102 $73 $196 forward 7 unknown #
coedge $-1 $75 $74 $122 $191 reversed $29 $-1 #
coedge $-1 $197 $198 $74 $128 forward $199 $-1 #
edge $-1 $200 -49.306924649800102 $133 -45.766353710168637 $127 $201 forward 7 unknown #
coedge $-1 $202 $76 $124 $194 reversed $131 $-1 #
coedge $-1 $76 $202 $197 $203 reversed $131 $-1 #
loop $-1 $-1 $202 $119 #
vertex $-1 $125 $204 #
vertex $-1 $203 $205 #
straight-curve $-1 -45.766353710168637 -25.790469443812036 0 0 0 -1 I I #
face $-1 $-1 $147 $17 $-1 $206 reversed single #
loop $-1 $-1 $143 $78 #
plane-surface $-1 0 0 7.578149322549109 0 0 1 1 0 0 forward_v I I I I #
coedge $-1 $207 $208 $140 $209 forward $79 $-1 #
coedge $-1 $210 $81 $83 $145 forward $49 $-1 #
coedge $-1 $81 $210 $138 $209 reversed $49 $-1 #
coedge $-1 $211 $84 $81 $142 forward $147 $-1 #
edge $-1 $149 4.6195489770035145 $212 15.653796636873519 $141 $213 forward 7 unknown #
coedge $-1 $214 $215 $82 $144 forward $136 $-1 #
edge $-1 $216 9.7662895852621077 $148 13.745204528986044 $143 $217 forward 7 unknown #
edge $-1 $149 -98.613849299600204 $216 -91.844514743390846 $83 $218 forward 7 unknown #
coedge $-1 $84 $211 $214 $219 reversed $147 $-1 #
loop $-1 $-1 $141 $135 #
vertex $-1 $219 $220 #
vertex $-1 $85 $221 #
straight-curve $-1 49.306924649800102 14.756221783942031 69.922844260509393 0 0 -1 I I #
coedge $-1 $151 $151 $-1 $222 reversed $88 $-1 #
edge $-1 $223 0 $223 6.2831853071796004 $89 $224 forward 7 unknown #
vertex $-1 $92 $225 #
ellipse-curve $-1 47.317467177938127 17.908863972476318 4.8398959465582969 0.80901700255871778 0 0.5877852410284794 0.5877852410284794 0 -0.80901700255871778 1 I I #
coedge $-1 $155 $155 $-1 $226 reversed $95 $-1 #
edge $-1 $227 0 $227 6.2831853071796004 $96 $228 forward 7 unknown #
vertex $-1 $99 $229 #
ellipse-curve $-1 47.317467177938127 22.637827255277749 4.8398959465582969 0.80901700255871778 0 0.5877852410284794 0.5877852410284794 0 -0.80901700255871778 1 I I #
face $-1 $-1 $115 $15 $-1 $230 reversed single #
loop $-1 $-1 $175 $100 #
plane-surface $-1 0 25.790469443812036 0 0 -1 0 0 0 -1 forward_v I I I I #
coedge $-1 $231 $173 $176 $232 forward $101 $-1 #
coedge $-1 $179 $103 $104 $167 reversed $63 $-1 #
coedge $-1 $173 $231 $103 $165 reversed $101 $-1 #
edge $-1 $180 -7.578149322549109 $233 7.578149322549109 $164 $234 forward 7 unknown #
coedge $-1 $105 $104 $231 $235 forward $41 $-1 #
edge $-1 $171 -49.306924649800102 $233 49.306924649800102 $163 $236 forward 7 unknown #
coedge $-1 $176 $175 $105 $169 reversed $160 $-1 #
edge $-1 $237 -49.306924649800102 $170 49.306924649800102 $168 $238 forward 7 unknown #
vertex $-1 $107 $239 #
vertex $-1 $182 $240 #
straight-curve $-1 49.306924649800102 0 -7.578149322549109 0 -1 0 I I #
coedge $-1 $162 $164 $108 $174 reversed $101 $-1 #
edge $-1 $177 -25.790469443812036 $180 25.790469443812036 $173 $241 forward 7 unknown #
coedge $-1 $168 $109 $114 $183 forward $160 $-1 #
coedge $-1 $109 $168 $162 $232 reversed $160 $-1 #
vertex $-1 $110 $242 #
straight-curve $-1 0 25.790469443812036 7.578149322549109 -1 0 0 I I #
coedge $-1 $111 $163 $113 $182 reversed $63 $-1 #
vertex $-1 $174 $243 #
straight-curve $-1 0 -25.790469443812036 7.578149322549109 1 0 0 I I #
edge $-1 $116 -7.578149322549109 $171 7.578149322549109 $113 $244 forward 7 unknown #
edge $-1 $117 -7.578149322549109 $170 7.578149322549109 $114 $245 forward 7 unknown #
point $-1 49.306924649800102 -25.790469443812036 7.578149322549109 #
point $-1 49.306924649800102 25.790469443812036 7.578149322549109 #
face $-1 $-1 $199 $16 $-1 $246 reversed single #
plane-surface $-1 -45.766353710168637 -29.348295723296264 0 -1 0 0 0 0 1 forward_v I I I I #
coedge $-1 $247 $248 $249 $250 forward $120 $-1 #
coedge $-1 $249 $122 $198 $251 reversed $71 $-1 #
coedge $-1 $122 $249 $123 $193 reversed $71 $-1 #
edge $-1 $195 -7.578149322549109 $200 7.578149322549109 $122 $252 forward 7 unknown #
coedge $-1 $124 $123 $248 $253 forward $45 $-1 #
edge $-1 $195 25.790469443812036 $254 32.906122002780492 $190 $255 forward 7 unknown #
edge $-1 $256 -3.5578262794842281 $132 3.5578262794842281 $129 $257 forward 7 unknown #
vertex $-1 $193 $258 #
straight-curve $-1 0 -25.790469443812036 7.578149322549109 -1 0 0 I I #
coedge $-1 $259 $127 $130 $203 forward $199 $-1 #
coedge $-1 $127 $259 $189 $251 forward $199 $-1 #
loop $-1 $-1 $127 $186 #
vertex $-1 $191 $260 #
straight-curve $-1 0 -25.790469443812036 -7.578149322549109 1 0 0 I I #
coedge $-1 $130 $129 $261 $262 forward $131 $-1 #
edge $-1 $133 -3.5578262794842281 $263 3.5578262794842281 $130 $264 forward 7 unknown #
point $-1 -45.766353710168637 -25.790469443812036 7.578149322549109 #
point $-1 -45.766353710168637 -25.790469443812036 -7.578149322549109 #
plane-surface $-1 49.306924649800102 0 0 -1 0 0 0 0 1 forward_v I I I I #
coedge $-1 $208 $138 $265 $266 reversed $79 $-1 #
coedge $-1 $138 $207 $211 $267 forward $79 $-1 #
edge $-1 $212 -62.947733658182877 $268 -56.178399101973518 $138 $269 forward 7 unknown #
coedge $-1 $140 $139 $215 $270 reversed $49 $-1 #
coedge $-1 $146 $141 $208 $267 reversed $147 $-1 #
vertex $-1 $209 $271 #
straight-curve $-1 49.306924649800102 10.136672806938517 2.1016425705674635 0 1 0 I I #
coedge $-1 $265 $143 $146 $219 forward $136 $-1 #
coedge $-1 $143 $265 $210 $270 forward $136 $-1 #
vertex $-1 $144 $272 #
straight-curve $-1 35.561720120814059 14.756221783942031 7.578149322549109 1 0 0 I I #
straight-curve $-1 -8.6568405295115554 14.756221783942031 81.881923341707136 -0.5877852410284794 0 0.80901700255871778 I I #
edge $-1 $148 14.756221783942031 $273 25.790469443812036 $146 $274 forward 7 unknown #
point $-1 49.306924649800102 14.756221783942031 7.578149322549109 #
point $-1 49.306924649800102 14.756221783942031 2.1016425705674635 #
edge $-1 $275 1 $275 0 $151 $-1 forward 7 unknown #
vertex $-1 $152 $276 #
ellipse-curve $-1 45.435176177112027 17.908863972476318 3.4723315244174815 0.80901700255871778 0 0.5877852410284794 0.5877852410284794 0 -0.80901700255871778 1 I I #
point $-1 47.905252418966612 17.908863972476318 4.030878943999582 #
edge $-1 $277 1 $277 0 $155 $-1 forward 7 unknown #
vertex $-1 $156 $278 #
ellipse-curve $-1 45.435176177112027 22.637827255277749 3.4723315244174815 0.80901700255871778 0 0.5877852410284794 0.5877852410284794 0 -0.80901700255871778 1 I I #
point $-1 47.905252418966612 22.637827255277749 4.030878943999582 #
plane-surface $-1 49.306924649800102 0 0 -1 0 0 0 0 1 forward_v I I I I #
coedge $-1 $164 $162 $166 $235 reversed $101 $-1 #
edge $-1 $177 -7.578149322549109 $237 7.578149322549109 $176 $279 forward 7 unknown #
vertex $-1 $235 $280 #
straight-curve $-1 -49.306924649800102 -25.790469443812036 0 0 0 -1 I I #
edge $-1 $233 -25.790469443812036 $237 25.790469443812036 $231 $281 forward 7 unknown #
straight-curve $-1 0 -25.790469443812036 -7.578149322549109 -1 0 0 I I #
vertex $-1 $169 $282 #
straight-curve $-1 0 25.790469443812036 -7.578149322549109 1 0 0 I I #
point $-1 49.306924649800102 25.790469443812036 -7.578149322549109 #
point $-1 49.306924649800102 -25.790469443812036 -7.578149322549109 #
straight-curve $-1 -49.306924649800102 0 7.578149322549109 0 -1 0 I I #
point $-1 -49.306924649800102 25.790469443812036 7.578149322549109 #
point $-1 -49.306924649800102 -25.790469443812036 7.578149322549109 #
straight-curve $-1 49.306924649800102 -25.790469443812036 0 0 0 -1 I I #
straight-curve $-1 49.306924649800102 25.790469443812036 0 0 0 -1 I I #
plane-surface $-1 0 0 -7.578149322549109 0 0 1 1 0 0 forward_v I I I I #
coedge $-1 $261 $188 $259 $283 reversed $120 $-1 #
coedge $-1 $188 $261 $192 $253 reversed $120 $-1 #
coedge $-1 $190 $189 $188 $250 reversed $71 $-1 #
edge $-1 $254 -7.578149322549109 $284 7.578149322549109 $249 $285 forward 7 unknown #
edge $-1 $284 -32.906122002780492 $200 -25.790469443812036 $189 $286 forward 7 unknown #
straight-curve $-1 -49.306924649800102 -25.790469443812036 0 0 0 -1 I I #
edge $-1 $254 -1.7702854698157324 $256 1.7702854698157324 $248 $287 forward 7 unknown #
vertex $-1 $193 $288 #
straight-curve $-1 -49.306924649800102 0 7.578149322549109 0 -1 0 I I #
vertex $-1 $194 $289 #
straight-curve $-1 -45.766353710168637 -29.348295723296264 7.578149322549109 0 1 0 I I #
point $-1 -49.306924649800102 -25.790469443812036 7.578149322549109 #
coedge $-1 $198 $197 $247 $283 forward $199 $-1 #
point $-1 -49.306924649800102 -25.790469443812036 -7.578149322549109 #
coedge $-1 $248 $247 $202 $262 reversed $120 $-1 #
edge $-1 $256 -7.578149322549109 $263 7.578149322549109 $202 $290 forward 7 unknown #
vertex $-1 $262 $291 #
straight-curve $-1 -45.766353710168637 -29.348295723296264 -7.578149322549109 0 -1 0 I I #
coedge $-1 $215 $214 $207 $266 forward $136 $-1 #
edge $-1 $273 -49.306924649800102 $268 -45.328009706076166 $207 $292 forward 7 unknown #
edge $-1 $273 -7.578149322549109 $212 -2.1016425705674675 $211 $293 forward 7 unknown #
vertex $-1 $209 $294 #
straight-curve $-1 12.307175849328555 25.790469443812036 53.027429372575085 -0.5877852410284794 0 0.80901700255871778 I I #
edge $-1 $268 -15.653796636873519 $216 -4.6195489770035145 $215 $295 forward 7 unknown #
point $-1 49.306924649800102 25.790469443812036 2.1016425705674675 #
point $-1 45.328009706076166 14.756221783942031 7.578149322549109 #
vertex $-1 $219 $296 #
straight-curve $-1 49.306924649800102 0 7.578149322549109 0 1 0 I I #
vertex $-1 $222 $297 #
point $-1 46.022961418140504 17.908863972476318 2.6633145218587639 #
vertex $-1 $226 $298 #
point $-1 46.022961418140504 22.637827255277749 2.6633145218587639 #
straight-curve $-1 -49.306924649800102 25.790469443812036 0 0 0 -1 I I #
point $-1 -49.306924649800102 -25.790469443812036 -7.578149322549109 #
straight-curve $-1 -49.306924649800102 0 -7.578149322549109 0 1 0 I I #
point $-1 -49.306924649800102 25.790469443812036 -7.578149322549109 #
edge $-1 $263 -1.7702854698157324 $284 1.7702854698157324 $247 $299 forward 7 unknown #
vertex $-1 $251 $300 #
straight-curve $-1 -49.306924649800102 -32.906122002780492 0 0 0 -1 I I #
straight-curve $-1 -49.306924649800102 0 -7.578149322549109 0 1 0 I I #
straight-curve $-1 -47.53663917998437 -32.906122002780492 7.578149322549109 1 0 0 I I #
point $-1 -49.306924649800102 -32.906122002780492 7.578149322549109 #
point $-1 -45.766353710168637 -32.906122002780492 7.578149322549109 #
straight-curve $-1 -45.766353710168637 -32.906122002780492 0 0 0 -1 I I #
point $-1 -45.766353710168637 -32.906122002780492 -7.578149322549109 #
straight-curve $-1 0 25.790469443812036 7.578149322549109 -1 0 0 I I #
straight-curve $-1 49.306924649800102 25.790469443812036 0 0 0 -1 I I #
point $-1 45.328009706076166 25.790469443812036 7.578149322549109 #
straight-curve $-1 45.328009706076159 10.136672806938517 7.578149322549109 0 -1 0 I I #
point $-1 49.306924649800102 25.790469443812036 7.578149322549109 #
point $-1 44.626159174553308 17.908863972476318 2.8845462833890023 #
point $-1 44.626159174553308 22.637827255277749 2.8845462833890023 #
straight-curve $-1 -47.53663917998437 -32.906122002780492 -7.578149322549109 -1 0 0 I I #
point $-1 -49.306924649800102 -32.906122002780492 -7.578149322549109 #
End-of-ACIS-data 