500 0 10 0           
7 Unknown 11 ACIS 5.0 NT 24 Thu Mar 25 21:29:41 1999 
-1 9.9999999999999995e-007 1e-010 
body $-1 $10 $-1 $11 #
body $-1 $12 $-1 $13 #
body $-1 $14 $-1 $15 #
body $-1 $16 $-1 $17 #
body $-1 $18 $-1 $19 #
body $-1 $20 $-1 $21 #
body $-1 $22 $-1 $23 #
body $-1 $24 $-1 $25 #
body $-1 $26 $-1 $27 #
body $-1 $28 $-1 $29 #
lump $-1 $-1 $30 $0 #
transform $-1 1 0 0 0 1 0 0 0 1 78.753624073000282 33.150452024185476 11.222814548304378 1 rotate no_reflect no_shear #
lump $-1 $-1 $31 $1 #
transform $-1 1 0 0 0 1 0 0 0 1 78.753624073000282 33.150452024185476 11.222814548304378 1 rotate no_reflect no_shear #
lump $-1 $-1 $32 $2 #
transform $-1 1 0 0 0 1 0 0 0 1 78.753624073000282 33.150452024185476 11.222814548304378 1 rotate no_reflect no_shear #
lump $-1 $-1 $33 $3 #
transform $-1 1 0 0 0 1 0 0 0 1 78.753624073000282 33.150452024185476 11.222814548304378 1 rotate no_reflect no_shear #
lump $-1 $-1 $34 $4 #
transform $-1 1 0 0 0 1 0 0 0 1 78.753624073000282 33.150452024185476 11.222814548304378 1 rotate no_reflect no_shear #
lump $-1 $-1 $35 $5 #
transform $-1 1 0 0 0 1 0 0 0 1 78.753624073000282 33.150452024185476 11.222814548304378 1 rotate no_reflect no_shear #
lump $-1 $-1 $36 $6 #
transform $-1 1 0 0 0 1 0 0 0 1 78.753624073000282 33.150452024185476 11.222814548304378 1 rotate no_reflect no_shear #
lump $-1 $-1 $37 $7 #
transform $-1 1 0 0 0 1 0 0 0 1 78.753624073000282 33.150452024185476 11.222814548304378 1 rotate no_reflect no_shear #
lump $-1 $-1 $38 $8 #
transform $-1 1 0 0 0 1 0 0 0 1 78.753624073000282 33.150452024185476 11.222814548304378 1 rotate no_reflect no_shear #
lump $-1 $-1 $39 $9 #
transform $-1 1 0 0 0 1 0 0 0 1 78.753624073000282 33.150452024185476 11.222814548304378 1 rotate no_reflect no_shear #
shell $-1 $-1 $-1 $40 $-1 $10 #
shell $-1 $-1 $-1 $41 $-1 $12 #
shell $-1 $-1 $-1 $42 $-1 $14 #
shell $-1 $-1 $-1 $43 $-1 $16 #
shell $-1 $-1 $-1 $44 $-1 $18 #
shell $-1 $-1 $-1 $45 $-1 $20 #
shell $-1 $-1 $-1 $46 $-1 $22 #
shell $-1 $-1 $-1 $47 $-1 $24 #
shell $-1 $-1 $-1 $48 $-1 $26 #
shell $-1 $-1 $-1 $49 $-1 $28 #
face $-1 $50 $51 $30 $-1 $52 forward single #
face $-1 $53 $54 $31 $-1 $55 forward single #
face $-1 $56 $57 $32 $-1 $58 forward single #
face $-1 $59 $60 $33 $-1 $61 reversed single #
face $-1 $62 $63 $34 $-1 $64 forward single #
face $-1 $65 $66 $35 $-1 $67 forward single #
face $-1 $68 $69 $36 $-1 $70 forward single #
face $-1 $71 $72 $37 $-1 $73 reversed single #
face $-1 $74 $75 $38 $-1 $76 forward single #
face $-1 $77 $78 $39 $-1 $79 forward single #
face $-1 $80 $81 $30 $-1 $82 reversed single #
loop $-1 $-1 $83 $40 #
plane-surface $-1 0 0 11.222814548304378 0 0 1 1 0 0 forward_v I I I I #
face $-1 $84 $85 $31 $-1 $86 reversed single #
loop $-1 $-1 $87 $41 #
plane-surface $-1 0 -33.150452024185476 0 0 1 0 0 0 1 forward_v I I I I #
face $-1 $88 $89 $32 $-1 $90 reversed single #
loop $-1 $-1 $91 $42 #
plane-surface $-1 0 33.150452024185476 0 0 -1 0 0 0 -1 forward_v I I I I #
face $-1 $92 $93 $33 $-1 $94 reversed single #
loop $-1 $-1 $95 $43 #
plane-surface $-1 78.753626657455726 -5.8257036009204057 223.29645513151763 0 -1 0 -0.70710678939079041 0 -0.70710677298230451 forward_v I I I I #
face $-1 $96 $97 $34 $-1 $98 forward single #
loop $-1 $99 $100 $44 #
cone-surface $-1 72.726584527152738 -10.899860716550467 5.1957748945947557 -0.70710678939079041 0 -0.70710677298230451 0.35355338649115226 0 -0.35355339469539521 1 I I 0 1 0.5 forward I I I I #
face $-1 $101 $102 $35 $-1 $103 forward single #
loop $-1 $104 $105 $45 #
cone-surface $-1 72.726584527152738 -8.9970517981891938 5.1957748945947557 -0.70710678939079041 0 -0.70710677298230451 0.35355338649115226 0 -0.35355339469539521 1 I I 0 1 0.5 forward I I I I #
face $-1 $106 $107 $36 $-1 $108 forward single #
loop $-1 $109 $110 $46 #
cone-surface $-1 72.726584527152738 -7.0942428798279202 5.1957748945947557 -0.70710678939079041 0 -0.70710677298230451 0.35355338649115226 0 -0.35355339469539521 1 I I 0 1 0.5 forward I I I I #
face $-1 $111 $112 $37 $-1 $113 reversed single #
loop $-1 $-1 $114 $47 #
plane-surface $-1 -166.83056062615759 2.357136390207291 137.78790844629097 0 1 0 -0.55919291073839883 0 0.82903756765294845 forward_v I I I I #
face $-1 $115 $116 $38 $-1 $117 forward single #
loop $-1 $118 $119 $48 #
cone-surface $-1 -75.49828171039951 4.5314499519407363 8.8011297681363647 0.55919291073839883 0 -0.82903756765294845 0.41451878382647422 0 0.27959645536919941 1 I I 0 1 0.5 forward I I I I #
face $-1 $120 $121 $39 $-1 $122 forward single #
loop $-1 $123 $124 $49 #
cone-surface $-1 -75.49828171039951 7.7929202945408989 8.8011297681363647 0.55919291073839883 0 -0.82903756765294845 0.41451878382647422 0 0.27959645536919941 1 I I 0 1 0.5 forward I I I I #
face $-1 $125 $126 $30 $-1 $127 reversed single #
loop $-1 $-1 $128 $50 #
plane-surface $-1 0 0 -11.222814548304378 0 0 1 1 0 0 forward_v I I I I #
coedge $-1 $129 $130 $131 $132 forward $51 $-1 #
face $-1 $133 $134 $31 $-1 $135 forward single #
loop $-1 $-1 $136 $53 #
plane-surface $-1 -78.753624073000282 0 0 1 0 0 0 0 -1 forward_v I I I I #
coedge $-1 $137 $138 $139 $140 forward $54 $-1 #
face $-1 $141 $142 $32 $-1 $143 forward single #
loop $-1 $-1 $144 $56 #
plane-surface $-1 78.753624073000282 0 0 -1 0 0 0 0 1 forward_v I I I I #
coedge $-1 $145 $146 $147 $148 forward $57 $-1 #
face $-1 $149 $150 $33 $-1 $151 reversed single #
loop $-1 $-1 $152 $59 #
plane-surface $-1 -32.620817884841259 -8.9970517981891938 111.92201317367611 0.70710678939079041 0 0.70710677298230451 0.70710677298230451 0 -0.70710678939079041 forward_v I I I I #
coedge $-1 $153 $154 $155 $156 reversed $60 $-1 #
face $-1 $-1 $157 $34 $-1 $158 forward single #
loop $-1 $159 $160 $62 #
cone-surface $-1 71.860391118560045 -10.899860716550467 4.3295815061021656 -0.70710678939079041 0 -0.70710677298230451 0.17677669324557613 0 -0.1767766973476976 1 I I -0.70710678118654746 0.70710678118654746 0.25 forward I I I I #
loop $-1 $-1 $161 $44 #
coedge $-1 $100 $100 $162 $163 reversed $63 $-1 #
face $-1 $-1 $164 $35 $-1 $165 forward single #
loop $-1 $166 $167 $65 #
cone-surface $-1 71.860391118560045 -8.9970517981891938 4.3295815061021656 -0.70710678939079041 0 -0.70710677298230451 0.17677669324557613 0 -0.1767766973476976 1 I I -0.70710678118654746 0.70710678118654746 0.25 forward I I I I #
loop $-1 $-1 $168 $45 #
coedge $-1 $105 $105 $169 $170 reversed $66 $-1 #
face $-1 $-1 $171 $36 $-1 $172 forward single #
loop $-1 $173 $174 $68 #
cone-surface $-1 71.860391118560045 -7.0942428798279202 4.3295815061021656 -0.70710678939079041 0 -0.70710677298230451 0.17677669324557613 0 -0.1767766973476976 1 I I -0.70710678118654746 0.70710678118654746 0.25 forward I I I I #
loop $-1 $-1 $175 $46 #
coedge $-1 $110 $110 $176 $177 reversed $69 $-1 #
face $-1 $178 $179 $37 $-1 $180 reversed single #
loop $-1 $-1 $181 $71 #
plane-surface $-1 -78.753624073000267 6.1621851232408105 7.2084825556212877 -0.55919291073839883 0 0.82903756765294845 0.82903756765294845 0 0.55919291073839883 forward_v I I I I #
coedge $-1 $182 $183 $184 $185 reversed $72 $-1 #
face $-1 $-1 $186 $38 $-1 $187 forward single #
loop $-1 $188 $189 $74 #
cone-surface $-1 -75.078887027345715 4.5314499519407363 8.1793515923966531 0.55919291073839883 0 -0.82903756765294845 0.20725939191323711 0 0.13979822768459971 1 I I -0.70710678118654746 0.70710678118654746 0.25 forward I I I I #
loop $-1 $-1 $190 $48 #
coedge $-1 $119 $119 $191 $192 reversed $75 $-1 #
face $-1 $-1 $193 $39 $-1 $194 forward single #
loop $-1 $195 $196 $77 #
cone-surface $-1 -75.078887027345715 7.7929202945408989 8.1793515923966531 0.55919291073839883 0 -0.82903756765294845 0.20725939191323711 0 0.13979822768459971 1 I I -0.70710678118654746 0.70710678118654746 0.25 forward I I I I #
loop $-1 $-1 $197 $49 #
coedge $-1 $124 $124 $198 $199 reversed $78 $-1 #
face $-1 $200 $201 $30 $-1 $202 reversed single #
loop $-1 $-1 $203 $80 #
plane-surface $-1 0 -33.150452024185476 0 0 1 0 0 0 1 forward_v I I I I #
coedge $-1 $204 $205 $206 $207 forward $81 $-1 #
coedge $-1 $208 $83 $209 $210 forward $51 $-1 #
coedge $-1 $83 $208 $211 $212 forward $51 $-1 #
coedge $-1 $213 $214 $83 $132 reversed $215 $-1 #
edge $-1 $216 -33.150452024185476 $217 33.150452024185476 $131 $218 forward 7 unknown #
face $-1 $219 $220 $31 $-1 $221 reversed single #
loop $-1 $-1 $222 $84 #
plane-surface $-1 0 -38.680709926990588 -1.6690861771457435 0 0 1 1 0 0 forward_v I I I I #
coedge $-1 $223 $224 $138 $225 forward $85 $-1 #
coedge $-1 $226 $87 $227 $228 reversed $54 $-1 #
coedge $-1 $87 $226 $136 $225 reversed $54 $-1 #
coedge $-1 $229 $222 $87 $140 reversed $134 $-1 #
edge $-1 $230 -78.753624073000282 $231 78.753624073000282 $139 $232 forward 7 unknown #
face $-1 $233 $234 $32 $-1 $235 reversed single #
loop $-1 $-1 $236 $88 #
plane-surface $-1 0 38.680709926990581 -1.6690861771457435 0 0 1 1 0 0 forward_v I I I I #
coedge $-1 $237 $238 $146 $239 forward $89 $-1 #
coedge $-1 $240 $91 $241 $242 reversed $57 $-1 #
coedge $-1 $91 $240 $144 $239 reversed $57 $-1 #
coedge $-1 $236 $243 $91 $148 reversed $142 $-1 #
edge $-1 $244 -78.753624073000282 $245 78.753624073000282 $147 $246 forward 7 unknown #
face $-1 $247 $248 $33 $-1 $249 forward single #
loop $-1 $-1 $250 $92 #
plane-surface $-1 78.753626657455726 -12.168399995457982 223.29645513151763 0 1 0 0.70710678939079041 0 0.70710677298230451 forward_v I I I I #
coedge $-1 $251 $252 $253 $254 reversed $93 $-1 #
coedge $-1 $154 $95 $255 $256 reversed $60 $-1 #
coedge $-1 $95 $153 $251 $257 reversed $60 $-1 #
coedge $-1 $253 $258 $95 $156 forward $248 $-1 #
edge $-1 $259 -39.376810744272419 $260 -28.70156507506735 $155 $261 forward 7 unknown #
loop $-1 $-1 $162 $96 #
plane-surface $-1 -32.620817884841259 -8.9970517981891938 111.92201317367611 0.70710678939079041 0 0.70710677298230451 0.70710677298230451 0 -0.70710678939079041 forward_v I I I I #
loop $-1 $-1 $262 $62 #
coedge $-1 $160 $160 $161 $263 reversed $97 $-1 #
coedge $-1 $161 $161 $160 $263 forward $99 $-1 #
coedge $-1 $162 $162 $100 $163 forward $157 $-1 #
edge $-1 $264 0 $264 6.2831853071796004 $162 $265 forward 7 unknown #
loop $-1 $-1 $169 $101 #
plane-surface $-1 -32.620817884841259 -8.9970517981891938 111.92201317367611 0.70710678939079041 0 0.70710677298230451 0.70710677298230451 0 -0.70710678939079041 forward_v I I I I #
loop $-1 $-1 $266 $65 #
coedge $-1 $167 $167 $168 $267 reversed $102 $-1 #
coedge $-1 $168 $168 $167 $267 forward $104 $-1 #
coedge $-1 $169 $169 $105 $170 forward $164 $-1 #
edge $-1 $268 0 $268 6.2831853071796004 $169 $269 forward 7 unknown #
loop $-1 $-1 $176 $106 #
plane-surface $-1 -32.620817884841259 -8.9970517981891938 111.92201317367611 0.70710678939079041 0 0.70710677298230451 0.70710677298230451 0 -0.70710678939079041 forward_v I I I I #
loop $-1 $-1 $270 $68 #
coedge $-1 $174 $174 $175 $271 reversed $107 $-1 #
coedge $-1 $175 $175 $174 $271 forward $109 $-1 #
coedge $-1 $176 $176 $110 $177 forward $171 $-1 #
edge $-1 $272 0 $272 6.2831853071796004 $176 $273 forward 7 unknown #
face $-1 $274 $275 $37 $-1 $276 reversed single #
loop $-1 $-1 $277 $111 #
plane-surface $-1 -166.83056062615759 9.9672338562743299 137.78790844629097 0 -1 0 0.55919291073839883 0 -0.82903756765294845 forward_v I I I I #
coedge $-1 $278 $279 $280 $281 reversed $112 $-1 #
coedge $-1 $183 $114 $282 $283 reversed $72 $-1 #
coedge $-1 $114 $182 $278 $284 reversed $72 $-1 #
coedge $-1 $280 $285 $114 $185 forward $286 $-1 #
edge $-1 $287 4.6616562400785142 $288 10.613148054541682 $184 $289 forward 7 unknown #
loop $-1 $-1 $191 $115 #
plane-surface $-1 -78.753624073000267 6.1621851232408105 7.2084825556212877 -0.55919291073839883 0 0.82903756765294845 0.82903756765294845 0 0.55919291073839883 forward_v I I I I #
loop $-1 $-1 $290 $74 #
coedge $-1 $189 $189 $190 $291 reversed $116 $-1 #
coedge $-1 $190 $190 $189 $291 forward $118 $-1 #
coedge $-1 $191 $191 $119 $192 forward $186 $-1 #
edge $-1 $292 0 $292 6.2831853071796004 $191 $293 forward 7 unknown #
loop $-1 $-1 $198 $120 #
plane-surface $-1 -78.753624073000267 6.1621851232408105 7.2084825556212877 -0.55919291073839883 0 0.82903756765294845 0.82903756765294845 0 0.55919291073839883 forward_v I I I I #
loop $-1 $-1 $294 $77 #
coedge $-1 $196 $196 $197 $295 reversed $121 $-1 #
coedge $-1 $197 $197 $196 $295 forward $123 $-1 #
coedge $-1 $198 $198 $124 $199 forward $193 $-1 #
edge $-1 $296 0 $296 6.2831853071796004 $198 $297 forward 7 unknown #
face $-1 $298 $299 $30 $-1 $300 reversed single #
loop $-1 $-1 $301 $125 #
plane-surface $-1 -78.753624073000282 0 0 1 0 0 0 0 -1 forward_v I I I I #
coedge $-1 $302 $211 $303 $304 forward $126 $-1 #
coedge $-1 $305 $128 $302 $306 forward $81 $-1 #
coedge $-1 $128 $305 $307 $308 forward $81 $-1 #
coedge $-1 $214 $213 $128 $207 reversed $215 $-1 #
edge $-1 $309 -33.150452024185476 $310 33.150452024185476 $206 $311 forward 7 unknown #
coedge $-1 $130 $129 $312 $313 forward $51 $-1 #
coedge $-1 $314 $315 $129 $210 reversed $299 $-1 #
edge $-1 $217 -78.753624073000282 $316 78.753624073000282 $209 $317 forward 7 unknown #
coedge $-1 $203 $318 $130 $212 reversed $126 $-1 #
edge $-1 $319 -78.753624073000282 $216 78.753624073000282 $211 $320 forward 7 unknown #
coedge $-1 $206 $131 $318 $321 forward $215 $-1 #
coedge $-1 $131 $206 $314 $322 reversed $215 $-1 #
loop $-1 $-1 $213 $298 #
vertex $-1 $132 $323 #
vertex $-1 $132 $324 #
straight-curve $-1 78.753624073000282 0 11.222814548304378 0 1 0 I I #
face $-1 $325 $326 $31 $-1 $327 reversed single #
loop $-1 $-1 $328 $133 #
plane-surface $-1 0 -38.680709926990588 -6.73080946837079 0 0 1 1 0 0 forward_v I I I I #
coedge $-1 $139 $329 $330 $331 forward $134 $-1 #
coedge $-1 $332 $136 $333 $334 reversed $85 $-1 #
coedge $-1 $136 $332 $229 $335 reversed $85 $-1 #
edge $-1 $230 1.6690861771457435 $336 6.73080946837079 $136 $337 forward 7 unknown #
coedge $-1 $138 $137 $338 $339 forward $54 $-1 #
coedge $-1 $330 $340 $137 $228 forward $341 $-1 #
edge $-1 $342 -6.73080946837079 $231 -1.6690861771457435 $227 $343 forward 7 unknown #
coedge $-1 $329 $139 $224 $335 forward $134 $-1 #
vertex $-1 $225 $344 #
vertex $-1 $331 $345 #
straight-curve $-1 0 -33.150452024185476 -1.6690861771457435 1 0 0 I I #
face $-1 $346 $347 $32 $-1 $348 reversed single #
loop $-1 $-1 $349 $141 #
plane-surface $-1 0 38.680709926990581 -6.73080946837079 0 0 1 1 0 0 forward_v I I I I #
coedge $-1 $350 $147 $238 $351 forward $142 $-1 #
coedge $-1 $352 $144 $349 $353 reversed $89 $-1 #
coedge $-1 $144 $352 $236 $351 reversed $89 $-1 #
edge $-1 $244 1.6690861771457435 $354 6.73080946837079 $144 $355 forward 7 unknown #
coedge $-1 $146 $145 $356 $357 forward $57 $-1 #
coedge $-1 $358 $359 $145 $242 forward $360 $-1 #
edge $-1 $361 -6.73080946837079 $245 -1.6690861771457435 $241 $362 forward 7 unknown #
coedge $-1 $147 $350 $358 $363 forward $142 $-1 #
vertex $-1 $239 $364 #
vertex $-1 $363 $365 #
straight-curve $-1 0 33.150452024185476 -1.6690861771457435 -1 0 0 I I #
face $-1 $-1 $366 $33 $-1 $367 reversed single #
loop $-1 $-1 $155 $149 #
plane-surface $-1 0 0 11.222814548304378 0 0 1 1 0 0 forward_v I I I I #
coedge $-1 $368 $369 $370 $371 reversed $150 $-1 #
coedge $-1 $372 $152 $154 $257 forward $93 $-1 #
coedge $-1 $152 $372 $368 $373 forward $93 $-1 #
coedge $-1 $370 $155 $152 $254 forward $248 $-1 #
edge $-1 $260 1.3271777018258089 $374 7.6698740963633849 $253 $375 forward 7 unknown #
coedge $-1 $376 $377 $153 $256 forward $366 $-1 #
edge $-1 $378 -111.10065893437971 $259 -100.42541301745445 $255 $379 forward 7 unknown #
edge $-1 $260 142.41017076378157 $378 157.50724814600065 $154 $380 forward 7 unknown #
coedge $-1 $155 $370 $376 $381 forward $248 $-1 #
vertex $-1 $256 $382 #
vertex $-1 $156 $383 #
straight-curve $-1 39.376813328727863 -5.8257036009204057 11.22281454830437 -1 0 0 I I #
coedge $-1 $262 $262 $-1 $384 reversed $159 $-1 #
edge $-1 $385 0 $385 6.2831853071796004 $160 $386 forward 7 unknown #
vertex $-1 $163 $387 #
ellipse-curve $-1 73.416001238397726 -10.899860716550467 5.8851915898417557 0.70710678939079041 0 0.70710677298230451 0.35355338649115226 0 -0.35355339469539521 1 I I #
coedge $-1 $266 $266 $-1 $388 reversed $166 $-1 #
edge $-1 $389 0 $389 6.2831853071796004 $167 $390 forward 7 unknown #
vertex $-1 $170 $391 #
ellipse-curve $-1 73.416001238397726 -8.9970517981891938 5.8851915898417557 0.70710678939079041 0 0.70710677298230451 0.35355338649115226 0 -0.35355339469539521 1 I I #
coedge $-1 $270 $270 $-1 $392 reversed $173 $-1 #
edge $-1 $393 0 $393 6.2831853071796004 $174 $394 forward 7 unknown #
vertex $-1 $177 $395 #
ellipse-curve $-1 73.416001238397726 -7.0942428798279202 5.8851915898417557 0.70710678939079041 0 0.70710677298230451 0.35355338649115226 0 -0.35355339469539521 1 I I #
face $-1 $-1 $286 $37 $-1 $396 forward single #
loop $-1 $-1 $397 $178 #
plane-surface $-1 -78.753624073000282 0 0 1 0 0 0 0 -1 forward_v I I I I #
coedge $-1 $398 $399 $400 $401 reversed $179 $-1 #
coedge $-1 $402 $181 $183 $284 forward $112 $-1 #
coedge $-1 $181 $402 $398 $403 forward $112 $-1 #
coedge $-1 $400 $184 $181 $281 forward $286 $-1 #
edge $-1 $288 -0.72395617141311419 $404 6.8861412946539247 $280 $405 forward 7 unknown #
coedge $-1 $406 $407 $182 $283 forward $275 $-1 #
edge $-1 $408 -61.685471667524205 $287 -57.671139674841108 $282 $409 forward 7 unknown #
edge $-1 $288 -7.1787962894276998 $408 1.7244626260799089e-014 $183 $410 forward 7 unknown #
coedge $-1 $184 $400 $406 $411 forward $286 $-1 #
loop $-1 $-1 $400 $274 #
vertex $-1 $283 $412 #
vertex $-1 $185 $413 #
straight-curve $-1 -83.415280313078796 2.357136390207291 11.222814548304378 1 0 0 I I #
coedge $-1 $290 $290 $-1 $414 reversed $188 $-1 #
edge $-1 $415 0 $415 6.2831853071796004 $189 $416 forward 7 unknown #
vertex $-1 $192 $417 #
ellipse-curve $-1 -75.777878165768698 4.5314499519407363 9.2156485519628273 -0.55919291073839883 0 0.82903756765294845 0.41451878382647422 0 0.27959645536919941 1 I I #
coedge $-1 $294 $294 $-1 $418 reversed $195 $-1 #
edge $-1 $419 0 $419 6.2831853071796004 $196 $420 forward 7 unknown #
vertex $-1 $199 $421 #
ellipse-curve $-1 -75.777878165768698 7.7929202945408989 9.2156485519628273 -0.55919291073839883 0 0.82903756765294845 0.41451878382647422 0 0.27959645536919941 1 I I #
face $-1 $-1 $215 $30 $-1 $422 reversed single #
loop $-1 $-1 $315 $200 #
plane-surface $-1 0 33.150452024185476 0 0 -1 0 0 0 -1 forward_v I I I I #
coedge $-1 $423 $312 $315 $424 forward $201 $-1 #
coedge $-1 $318 $203 $204 $306 reversed $126 $-1 #
coedge $-1 $312 $423 $203 $304 reversed $201 $-1 #
edge $-1 $319 -11.222814548304378 $425 11.222814548304378 $303 $426 forward 7 unknown #
coedge $-1 $205 $204 $423 $427 forward $81 $-1 #
edge $-1 $310 -78.753624073000282 $425 78.753624073000282 $302 $428 forward 7 unknown #
coedge $-1 $315 $314 $205 $308 reversed $299 $-1 #
edge $-1 $429 -78.753624073000282 $309 78.753624073000282 $307 $430 forward 7 unknown #
vertex $-1 $207 $431 #
vertex $-1 $321 $432 #
straight-curve $-1 78.753624073000282 0 -11.222814548304378 0 -1 0 I I #
coedge $-1 $301 $303 $208 $313 reversed $201 $-1 #
edge $-1 $316 -33.150452024185476 $319 33.150452024185476 $312 $433 forward 7 unknown #
coedge $-1 $307 $209 $214 $322 forward $299 $-1 #
coedge $-1 $209 $307 $301 $424 reversed $299 $-1 #
vertex $-1 $210 $434 #
straight-curve $-1 0 33.150452024185476 11.222814548304378 -1 0 0 I I #
coedge $-1 $211 $302 $213 $321 reversed $126 $-1 #
vertex $-1 $313 $435 #
straight-curve $-1 0 -33.150452024185476 11.222814548304378 1 0 0 I I #
edge $-1 $216 -11.222814548304378 $310 11.222814548304378 $213 $436 forward 7 unknown #
edge $-1 $217 -11.222814548304378 $309 11.222814548304378 $214 $437 forward 7 unknown #
point $-1 78.753624073000282 -33.150452024185476 11.222814548304378 #
point $-1 78.753624073000282 33.150452024185476 11.222814548304378 #
face $-1 $-1 $341 $31 $-1 $438 reversed single #
loop $-1 $-1 $439 $219 #
plane-surface $-1 0 -44.210967829795699 -4.1999478227582667 0 1 0 0 0 1 forward_v I I I I #
coedge $-1 $440 $338 $340 $441 forward $220 $-1 #
coedge $-1 $222 $229 $442 $443 forward $134 $-1 #
coedge $-1 $444 $227 $222 $331 reversed $341 $-1 #
edge $-1 $445 -5.5302579028051113 $231 5.5302579028051113 $330 $446 forward 7 unknown #
coedge $-1 $224 $223 $439 $447 reversed $85 $-1 #
coedge $-1 $338 $440 $223 $334 forward $220 $-1 #
edge $-1 $448 -5.5302579028051113 $336 5.5302579028051113 $223 $449 forward 7 unknown #
edge $-1 $230 -5.5302579028051113 $450 5.5302579028051113 $224 $451 forward 7 unknown #
vertex $-1 $225 $452 #
straight-curve $-1 -78.753624073000282 -33.150452024185476 0 0 0 -1 I I #
coedge $-1 $328 $333 $226 $339 reversed $220 $-1 #
edge $-1 $342 -78.753624073000282 $336 78.753624073000282 $338 $453 forward 7 unknown #
coedge $-1 $227 $444 $328 $441 reversed $341 $-1 #
loop $-1 $-1 $227 $325 #
vertex $-1 $228 $454 #
straight-curve $-1 78.753624073000282 -33.150452024185476 0 0 0 1 I I #
point $-1 -78.753624073000282 -33.150452024185476 -1.6690861771457435 #
point $-1 78.753624073000282 -33.150452024185476 -1.6690861771457435 #
face $-1 $-1 $360 $32 $-1 $455 reversed single #
loop $-1 $-1 $456 $233 #
plane-surface $-1 0 44.210967829795692 -4.1999478227582667 0 -1 0 0 0 -1 forward_v I I I I #
coedge $-1 $356 $457 $237 $353 forward $234 $-1 #
coedge $-1 $243 $236 $458 $459 forward $142 $-1 #
edge $-1 $244 -5.5302579028051113 $460 5.5302579028051113 $238 $461 forward 7 unknown #
coedge $-1 $238 $237 $456 $462 reversed $89 $-1 #
edge $-1 $463 -5.5302579028051113 $354 5.5302579028051113 $237 $464 forward 7 unknown #
vertex $-1 $239 $465 #
straight-curve $-1 78.753624073000282 33.150452024185476 0 0 0 -1 I I #
coedge $-1 $466 $349 $240 $357 reversed $234 $-1 #
edge $-1 $361 -78.753624073000282 $354 78.753624073000282 $356 $467 forward 7 unknown #
coedge $-1 $468 $241 $243 $363 reversed $360 $-1 #
coedge $-1 $241 $468 $466 $469 reversed $360 $-1 #
loop $-1 $-1 $241 $346 #
vertex $-1 $242 $470 #
straight-curve $-1 -78.753624073000282 33.150452024185476 0 0 0 1 I I #
edge $-1 $471 -5.5302579028051113 $245 5.5302579028051113 $358 $472 forward 7 unknown #
point $-1 78.753624073000282 33.150452024185469 -1.6690861771457435 #
point $-1 -78.753624073000282 33.150452024185469 -1.6690861771457435 #
loop $-1 $-1 $255 $247 #
plane-surface $-1 78.753624073000282 0 0 -1 0 0 0 0 1 forward_v I I I I #
coedge $-1 $369 $250 $252 $373 reversed $150 $-1 #
coedge $-1 $250 $368 $473 $474 reversed $150 $-1 #
coedge $-1 $258 $253 $250 $371 forward $248 $-1 #
edge $-1 $374 28.70156507506735 $475 39.376810744272419 $370 $476 forward 7 unknown #
coedge $-1 $252 $251 $377 $477 reversed $93 $-1 #
edge $-1 $478 -157.50724814600065 $374 -142.41017076378157 $368 $479 forward 7 unknown #
vertex $-1 $254 $480 #
straight-curve $-1 68.078378403795199 -4.4985258990945969 11.22281454830437 0 -1 0 I I #
coedge $-1 $473 $255 $258 $381 reversed $366 $-1 #
coedge $-1 $255 $473 $372 $477 forward $366 $-1 #
vertex $-1 $256 $481 #
straight-curve $-1 78.753624073000282 -5.8257036009204057 111.64822756575882 0 0 1 I I #
straight-curve $-1 -32.620817884841259 -5.8257036009204057 111.92201317367611 0.70710677298230451 0 -0.70710678939079041 I I #
edge $-1 $475 -12.168399995457982 $259 -5.8257036009204057 $376 $482 forward 7 unknown #
point $-1 78.753624073000282 -5.8257036009204057 11.222814548304378 #
point $-1 68.078378403795213 -5.8257036009204057 11.222814548304356 #
edge $-1 $483 1 $483 0 $262 $-1 forward 7 unknown #
vertex $-1 $263 $484 #
ellipse-curve $-1 72.037167815907736 -10.899860716550467 4.5063581993477415 0.70710678939079041 0 0.70710677298230451 0.35355338649115226 0 -0.35355339469539521 1 I I #
point $-1 73.769554624888897 -10.899860716550467 5.5316381951463747 #
edge $-1 $485 1 $485 0 $266 $-1 forward 7 unknown #
vertex $-1 $267 $486 #
ellipse-curve $-1 72.037167815907736 -8.9970517981891938 4.5063581993477415 0.70710678939079041 0 0.70710677298230451 0.35355338649115226 0 -0.35355339469539521 1 I I #
point $-1 73.769554624888897 -8.9970517981891938 5.5316381951463747 #
edge $-1 $487 1 $487 0 $270 $-1 forward 7 unknown #
vertex $-1 $271 $488 #
ellipse-curve $-1 72.037167815907736 -7.0942428798279202 4.5063581993477415 0.70710678939079041 0 0.70710677298230451 0.35355338649115226 0 -0.35355339469539521 1 I I #
point $-1 73.769554624888897 -7.0942428798279202 5.5316381951463747 #
plane-surface $-1 0 0 11.222814548304378 0 0 1 1 0 0 forward_v I I I I #
coedge $-1 $407 $406 $399 $489 forward $275 $-1 #
coedge $-1 $399 $277 $279 $403 reversed $179 $-1 #
coedge $-1 $277 $398 $397 $489 reversed $179 $-1 #
coedge $-1 $285 $280 $277 $401 forward $286 $-1 #
edge $-1 $404 -10.613148054541682 $490 -4.6616562400785142 $400 $491 forward 7 unknown #
coedge $-1 $279 $278 $407 $492 reversed $112 $-1 #
edge $-1 $493 -1.7244626260799089e-014 $404 7.1787962894276998 $398 $494 forward 7 unknown #
vertex $-1 $281 $495 #
straight-curve $-1 -72.802132258537114 3.0810925616204052 11.222814548304378 0 1 0 I I #
coedge $-1 $397 $282 $285 $411 reversed $275 $-1 #
coedge $-1 $282 $397 $402 $492 forward $275 $-1 #
vertex $-1 $283 $496 #
straight-curve $-1 -78.753624073000282 2.357136390207291 68.893954223145485 0 0 1 I I #
straight-curve $-1 -78.753624073000267 2.357136390207291 7.2084825556212877 -0.82903756765294845 0 -0.55919291073839883 I I #
edge $-1 $490 -9.9672338562743299 $287 -2.357136390207291 $406 $497 forward 7 unknown #
point $-1 -78.753624073000282 2.357136390207291 11.222814548304378 #
point $-1 -72.802132258537114 2.357136390207291 11.222814548304378 #
edge $-1 $498 1 $498 0 $290 $-1 forward 7 unknown #
vertex $-1 $291 $499 #
ellipse-curve $-1 -75.218685255030309 4.5314499519407363 8.3866109843098897 -0.55919291073839883 0 0.82903756765294845 0.41451878382647422 0 0.27959645536919941 1 I I #
point $-1 -75.363359381942246 4.5314499519407363 9.4952450073320378 #
edge $-1 $500 1 $500 0 $294 $-1 forward 7 unknown #
vertex $-1 $295 $501 #
ellipse-curve $-1 -75.218685255030309 7.7929202945408989 8.3866109843098897 -0.55919291073839883 0 0.82903756765294845 0.41451878382647422 0 0.27959645536919941 1 I I #
point $-1 -75.363359381942246 7.7929202945408989 9.4952450073320378 #
plane-surface $-1 78.753624073000282 0 0 -1 0 0 0 0 1 forward_v I I I I #
coedge $-1 $303 $301 $305 $427 reversed $201 $-1 #
edge $-1 $316 -11.222814548304378 $429 11.222814548304378 $315 $502 forward 7 unknown #
vertex $-1 $427 $503 #
straight-curve $-1 -78.753624073000282 -33.150452024185476 0 0 0 -1 I I #
edge $-1 $425 -33.150452024185476 $429 33.150452024185476 $423 $504 forward 7 unknown #
straight-curve $-1 0 -33.150452024185476 -11.222814548304378 -1 0 0 I I #
vertex $-1 $308 $505 #
straight-curve $-1 0 33.150452024185476 -11.222814548304378 1 0 0 I I #
point $-1 78.753624073000282 33.150452024185476 -11.222814548304378 #
point $-1 78.753624073000282 -33.150452024185476 -11.222814548304378 #
straight-curve $-1 -78.753624073000282 0 11.222814548304378 0 -1 0 I I #
point $-1 -78.753624073000282 33.150452024185476 11.222814548304378 #
point $-1 -78.753624073000282 -33.150452024185476 11.222814548304378 #
straight-curve $-1 78.753624073000282 -33.150452024185476 0 0 0 -1 I I #
straight-curve $-1 78.753624073000282 33.150452024185476 0 0 0 -1 I I #
plane-surface $-1 78.753624073000282 0 0 -1 0 0 0 0 1 forward_v I I I I #
coedge $-1 $506 $442 $332 $447 forward $326 $-1 #
coedge $-1 $333 $328 $506 $507 forward $220 $-1 #
edge $-1 $342 -5.5302579028051113 $508 5.5302579028051113 $340 $509 forward 7 unknown #
coedge $-1 $439 $510 $329 $443 reversed $326 $-1 #
edge $-1 $450 -78.753624073000282 $445 78.753624073000282 $442 $511 forward 7 unknown #
coedge $-1 $340 $330 $510 $512 forward $341 $-1 #
vertex $-1 $331 $513 #
straight-curve $-1 78.753624073000282 -38.680709926990588 -1.6690861771457435 0 1 0 I I #
edge $-1 $450 -2.5308616456125232 $448 2.5308616456125232 $332 $514 forward 7 unknown #
vertex $-1 $334 $515 #
straight-curve $-1 -78.753624073000282 -38.680709926990588 -6.73080946837079 0 1 0 I I #
vertex $-1 $335 $516 #
straight-curve $-1 -78.753624073000282 -38.680709926990588 -1.6690861771457435 0 -1 0 I I #
point $-1 -78.753624073000282 -33.150452024185476 -6.73080946837079 #
straight-curve $-1 0 -33.150452024185476 -6.73080946837079 -1 0 0 I I #
point $-1 78.753624073000282 -33.150452024185476 -6.73080946837079 #
plane-surface $-1 -78.753624073000282 0 0 1 0 0 0 0 -1 forward_v I I I I #
coedge $-1 $517 $458 $352 $462 forward $347 $-1 #
coedge $-1 $349 $466 $517 $518 forward $234 $-1 #
coedge $-1 $456 $519 $350 $459 reversed $347 $-1 #
edge $-1 $460 -78.753624073000282 $471 78.753624073000282 $458 $520 forward 7 unknown #
vertex $-1 $351 $521 #
straight-curve $-1 78.753624073000282 38.680709926990581 -1.6690861771457435 0 1 0 I I #
edge $-1 $460 -2.5308616456125232 $463 2.5308616456125232 $352 $522 forward 7 unknown #
vertex $-1 $353 $523 #
straight-curve $-1 78.753624073000282 38.680709926990581 -6.73080946837079 0 -1 0 I I #
point $-1 78.753624073000282 33.150452024185469 -6.73080946837079 #
coedge $-1 $457 $356 $359 $469 forward $234 $-1 #
straight-curve $-1 0 33.150452024185476 -6.73080946837079 1 0 0 I I #
coedge $-1 $359 $358 $519 $524 forward $360 $-1 #
edge $-1 $361 -5.5302579028051113 $525 5.5302579028051113 $359 $526 forward 7 unknown #
point $-1 -78.753624073000282 33.150452024185469 -6.73080946837079 #
vertex $-1 $459 $527 #
straight-curve $-1 -78.753624073000282 38.680709926990581 -1.6690861771457435 0 -1 0 I I #
coedge $-1 $377 $376 $369 $474 forward $366 $-1 #
edge $-1 $475 100.42541301745445 $478 111.10065893437971 $473 $528 forward 7 unknown #
vertex $-1 $381 $529 #
straight-curve $-1 39.376813328727863 -12.168399995457982 11.22281454830437 1 0 0 I I #
edge $-1 $478 -7.6698740963633849 $378 -1.3271777018258089 $377 $530 forward 7 unknown #
vertex $-1 $477 $531 #
straight-curve $-1 -32.620817884841259 -12.168399995457982 111.92201317367611 -0.70710677298230451 0 0.70710678939079041 I I #
point $-1 68.078378403795213 -12.168399995457982 11.222814548304356 #
point $-1 78.753624073000282 -5.8257036009204057 0.54756863137910727 #
straight-curve $-1 78.753624073000282 0 11.222814548304378 0 1 0 I I #
vertex $-1 $384 $532 #
point $-1 72.390721202398893 -10.899860716550467 4.1528048046523462 #
vertex $-1 $388 $533 #
point $-1 72.390721202398893 -8.9970517981891938 4.1528048046523462 #
vertex $-1 $392 $534 #
point $-1 72.390721202398893 -7.0942428798279202 4.1528048046523462 #
edge $-1 $490 57.671139674841108 $493 61.685471667524205 $397 $535 forward 7 unknown #
vertex $-1 $411 $536 #
straight-curve $-1 -83.415280313078796 9.9672338562743299 11.222814548304378 -1 0 0 I I #
edge $-1 $493 -6.8861412946539247 $408 0.72395617141311419 $407 $537 forward 7 unknown #
vertex $-1 $492 $538 #
straight-curve $-1 -78.753624073000267 9.9672338562743299 7.2084825556212877 0.82903756765294845 0 0.55919291073839883 I I #
point $-1 -72.802132258537114 9.9672338562743299 11.222814548304378 #
point $-1 -78.753624073000282 2.357136390207291 7.2084825556212779 #
straight-curve $-1 -78.753624073000282 0 11.222814548304378 0 -1 0 I I #
vertex $-1 $414 $539 #
point $-1 -74.804166471203843 4.5314499519407363 8.6662074396790896 #
vertex $-1 $418 $540 #
point $-1 -74.804166471203843 7.7929202945408989 8.6662074396790896 #
straight-curve $-1 -78.753624073000282 33.150452024185476 0 0 0 -1 I I #
point $-1 -78.753624073000282 -33.150452024185476 -11.222814548304378 #
straight-curve $-1 -78.753624073000282 0 -11.222814548304378 0 1 0 I I #
point $-1 -78.753624073000282 33.150452024185476 -11.222814548304378 #
coedge $-1 $510 $439 $440 $507 reversed $326 $-1 #
edge $-1 $508 -78.753624073000282 $448 78.753624073000282 $506 $541 forward 7 unknown #
vertex $-1 $512 $542 #
straight-curve $-1 78.753624073000282 -38.680709926990588 -6.73080946837079 0 -1 0 I I #
coedge $-1 $442 $506 $444 $512 reversed $326 $-1 #
straight-curve $-1 0 -44.210967829795699 -1.6690861771457435 1 0 0 I I #
edge $-1 $445 -2.5308616456125232 $508 2.5308616456125232 $444 $543 forward 7 unknown #
point $-1 78.753624073000282 -44.210967829795699 -1.6690861771457435 #
straight-curve $-1 -78.753624073000282 -44.210967829795699 -4.1999478227582667 0 0 -1 I I #
point $-1 -78.753624073000282 -44.210967829795699 -6.73080946837079 #
point $-1 -78.753624073000282 -44.210967829795699 -1.6690861771457435 #
coedge $-1 $519 $456 $457 $518 reversed $347 $-1 #
edge $-1 $525 -78.753624073000282 $463 78.753624073000282 $517 $544 forward 7 unknown #
coedge $-1 $458 $517 $468 $524 reversed $347 $-1 #
straight-curve $-1 0 44.210967829795692 -1.6690861771457435 -1 0 0 I I #
point $-1 78.753624073000282 44.210967829795692 -1.6690861771457435 #
straight-curve $-1 78.753624073000282 44.210967829795692 -4.1999478227582667 0 0 -1 I I #
point $-1 78.753624073000282 44.210967829795692 -6.73080946837079 #
edge $-1 $471 -2.5308616456125232 $525 2.5308616456125232 $519 $545 forward 7 unknown #
vertex $-1 $518 $546 #
straight-curve $-1 -78.753624073000282 38.680709926990581 -6.73080946837079 0 1 0 I I #
point $-1 -78.753624073000282 44.210967829795692 -1.6690861771457435 #
straight-curve $-1 78.753624073000282 -12.168399995457982 111.64822756575882 0 0 -1 I I #
point $-1 78.753624073000282 -12.168399995457982 11.222814548304378 #
straight-curve $-1 78.753624073000282 -4.4985258990945969 0.54756863137910727 0 1 0 I I #
point $-1 78.753624073000282 -12.168399995457982 0.54756863137910727 #
point $-1 71.683614421212354 -10.899860716550467 4.1528048128565898 #
point $-1 71.683614421212354 -8.9970517981891938 4.1528048128565898 #
point $-1 71.683614421212354 -7.0942428798279202 4.1528048128565898 #
straight-curve $-1 -78.753624073000282 9.9672338562743299 68.893954223145485 0 0 -1 I I #
point $-1 -78.753624073000282 9.9672338562743299 11.222814548304378 #
straight-curve $-1 -78.753624073000282 3.0810925616204052 7.2084825556212859 0 -1 0 I I #
point $-1 -78.753624073000282 9.9672338562743299 7.2084825556212779 #
point $-1 -74.939088799661121 4.5314499519407363 7.9720922004834156 #
point $-1 -74.939088799661121 7.7929202945408989 7.9720922004834156 #
straight-curve $-1 0 -44.210967829795699 -6.73080946837079 -1 0 0 I I #
point $-1 78.753624073000282 -44.210967829795699 -6.73080946837079 #
straight-curve $-1 78.753624073000282 -44.210967829795699 -4.1999478227582667 0 0 -1 I I #
straight-curve $-1 0 44.210967829795692 -6.73080946837079 1 0 0 I I #
straight-curve $-1 -78.753624073000282 44.210967829795692 -4.1999478227582667 0 0 -1 I I #
point $-1 -78.753624073000282 44.210967829795692 -6.73080946837079 #
End-of-ACIS-data 