500 0 5 0           
7 Unknown 11 ACIS 5.0 NT 24 Fri Mar 26 00:09:05 1999 
-1 9.9999999999999995e-007 1e-010 
body $-1 $5 $-1 $6 #
body $-1 $7 $-1 $8 #
body $-1 $9 $-1 $10 #
body $-1 $11 $-1 $12 #
body $-1 $13 $-1 $14 #
lump $-1 $-1 $15 $0 #
transform $-1 1 0 0 0 1 0 0 0 1 72.664571062349324 34.150596483927757 9.8554909046088337 1 rotate no_reflect no_shear #
lump $-1 $-1 $16 $1 #
transform $-1 1 0 0 0 1 0 0 0 1 72.664571062349324 34.150596483927757 9.8554909046088337 1 rotate no_reflect no_shear #
lump $-1 $-1 $17 $2 #
transform $-1 1 0 0 0 1 0 0 0 1 72.664571062349324 34.150596483927757 9.8554909046088337 1 rotate no_reflect no_shear #
lump $-1 $-1 $18 $3 #
transform $-1 1 0 0 0 1 0 0 0 1 72.664571062349324 34.150596483927757 9.8554909046088337 1 rotate no_reflect no_shear #
lump $-1 $-1 $19 $4 #
transform $-1 1 0 0 0 1 0 0 0 1 72.664571062349324 34.150596483927757 9.8554909046088337 1 rotate no_reflect no_shear #
shell $-1 $-1 $-1 $20 $-1 $5 #
shell $-1 $-1 $-1 $21 $-1 $7 #
shell $-1 $-1 $-1 $22 $-1 $9 #
shell $-1 $-1 $-1 $23 $-1 $11 #
shell $-1 $-1 $-1 $24 $-1 $13 #
face $-1 $25 $26 $15 $-1 $27 forward single #
face $-1 $28 $29 $16 $-1 $30 reversed single #
face $-1 $31 $32 $17 $-1 $33 forward single #
face $-1 $34 $35 $18 $-1 $36 reversed single #
face $-1 $37 $38 $19 $-1 $39 reversed single #
face $-1 $40 $41 $15 $-1 $42 reversed single #
loop $-1 $-1 $43 $20 #
plane-surface $-1 0 0 9.8554909046088337 0 0 1 1 0 0 forward_v I I I I #
face $-1 $44 $45 $16 $-1 $46 forward single #
loop $-1 $-1 $47 $21 #
plane-surface $-1 -66.822280448471346 0 3.6848374892557931 0 0 1 1 0 0 forward_v I I I I #
face $-1 $48 $49 $17 $-1 $50 forward single #
loop $-1 $-1 $51 $22 #
plane-surface $-1 118.89796428563389 22.074331904952842 202.04052577484083 0 1 0 0.84804810408105047 0 0.52991925155115449 forward_v I I I I #
face $-1 $52 $53 $18 $-1 $54 reversed single #
loop $-1 $55 $56 $23 #
cone-surface $-1 69.062164051785331 25.524693213231387 5.1438184666322027 -0.84804810408105047 0 -0.52991925155115449 0.52991925155115449 0 -0.84804810408105047 1 I I 0 1 1 forward I I I I #
face $-1 $57 $58 $19 $-1 $59 reversed single #
loop $-1 $60 $61 $24 #
cone-surface $-1 69.062164051785331 30.700235175649212 5.1438184666322027 -0.84804810408105047 0 -0.52991925155115449 0.52991925155115449 0 -0.84804810408105047 1 I I 0 1 1 forward I I I I #
face $-1 $62 $63 $15 $-1 $64 reversed single #
loop $-1 $-1 $65 $25 #
plane-surface $-1 0 0 -9.8554909046088337 0 0 1 1 0 0 forward_v I I I I #
coedge $-1 $66 $67 $68 $69 forward $26 $-1 #
face $-1 $70 $71 $16 $-1 $72 forward single #
loop $-1 $-1 $73 $28 #
plane-surface $-1 -66.822280448471346 0 0.2430703936584262 0 0 1 1 0 0 forward_v I I I I #
coedge $-1 $74 $75 $76 $77 reversed $29 $-1 #
face $-1 $78 $79 $17 $-1 $80 reversed single #
loop $-1 $-1 $81 $31 #
plane-surface $-1 -4.3481391609423241 28.1124641944403 125.02781555154917 0.84804810408105047 0 0.52991925155115449 0.52991925155115449 0 -0.84804810408105047 forward_v I I I I #
coedge $-1 $82 $83 $84 $85 reversed $32 $-1 #
face $-1 $86 $87 $18 $-1 $88 forward single #
loop $-1 $89 $90 $34 #
cone-surface $-1 67.558261368233531 25.524693213231387 4.2040758026979237 -0.84804810408105047 0 -0.52991925155115449 0.26495962577557725 0 -0.42402405204052523 1 I I -0.70710678118654746 0.70710678118654746 0.5 forward I I I I #
loop $-1 $-1 $91 $23 #
coedge $-1 $56 $56 $92 $93 reversed $35 $-1 #
face $-1 $94 $95 $19 $-1 $96 reversed single #
loop $-1 $97 $98 $37 #
cone-surface $-1 67.558261368233531 30.700235175649212 4.2040758026979237 -0.84804810408105047 0 -0.52991925155115449 0.26495962577557725 0 -0.42402405204052523 1 I I -0.70710678118654746 0.70710678118654746 0.5 forward I I I I #
loop $-1 $-1 $99 $24 #
coedge $-1 $61 $61 $100 $101 reversed $38 $-1 #
face $-1 $102 $103 $15 $-1 $104 reversed single #
loop $-1 $-1 $105 $40 #
plane-surface $-1 0 -34.150596483927757 0 0 1 0 0 0 1 forward_v I I I I #
coedge $-1 $106 $107 $108 $109 forward $41 $-1 #
coedge $-1 $110 $43 $111 $112 forward $26 $-1 #
coedge $-1 $43 $110 $113 $114 forward $26 $-1 #
coedge $-1 $115 $116 $43 $69 reversed $117 $-1 #
edge $-1 $118 -34.150596483927757 $119 34.150596483927757 $68 $120 forward 7 unknown #
face $-1 $121 $122 $16 $-1 $123 reversed single #
loop $-1 $-1 $124 $44 #
plane-surface $-1 -60.979989834593368 0 1.9639539414571097 -1 0 0 0 0 1 forward_v I I I I #
coedge $-1 $125 $126 $127 $128 reversed $45 $-1 #
coedge $-1 $129 $47 $130 $131 reversed $29 $-1 #
coedge $-1 $47 $129 $132 $133 reversed $29 $-1 #
coedge $-1 $134 $124 $47 $77 forward $71 $-1 #
edge $-1 $135 -34.150596483927757 $136 34.150596483927757 $76 $137 forward 7 unknown #
face $-1 $138 $139 $17 $-1 $140 forward single #
loop $-1 $-1 $141 $48 #
plane-surface $-1 72.664571062349324 0 0 -1 0 0 0 0 1 forward_v I I I I #
coedge $-1 $142 $143 $141 $144 reversed $49 $-1 #
coedge $-1 $83 $51 $143 $145 forward $32 $-1 #
coedge $-1 $51 $82 $146 $147 reversed $32 $-1 #
coedge $-1 $148 $141 $51 $85 forward $79 $-1 #
edge $-1 $149 -99.238550782447433 $150 -91.164771982811587 $84 $151 forward 7 unknown #
face $-1 $152 $153 $18 $-1 $154 forward single #
loop $-1 $-1 $155 $52 #
plane-surface $-1 118.89796428563389 22.074331904952842 202.04052577484083 0 1 0 0.84804810408105047 0 0.52991925155115449 forward_v I I I I #
loop $-1 $-1 $156 $34 #
coedge $-1 $90 $90 $91 $157 forward $53 $-1 #
coedge $-1 $91 $91 $90 $157 reversed $55 $-1 #
coedge $-1 $92 $92 $56 $93 forward $153 $-1 #
edge $-1 $158 0 $158 6.2831853071796004 $92 $159 forward 7 unknown #
face $-1 $160 $161 $19 $-1 $162 reversed single #
loop $-1 $163 $164 $57 #
cone-surface $-1 69.062164051785331 25.524693213231387 5.1438184666322027 -0.84804810408105047 0 -0.52991925155115449 0.52991925155115449 0 -0.84804810408105047 1 I I 0 1 1 forward I I I I #
loop $-1 $-1 $165 $37 #
coedge $-1 $98 $98 $99 $166 forward $58 $-1 #
coedge $-1 $99 $99 $98 $166 reversed $60 $-1 #
coedge $-1 $100 $100 $61 $101 forward $167 $-1 #
edge $-1 $168 0 $168 6.2831853071796004 $100 $169 forward 7 unknown #
face $-1 $170 $171 $15 $-1 $172 reversed single #
loop $-1 $-1 $173 $62 #
plane-surface $-1 -72.664571062349324 0 0 1 0 0 0 0 -1 forward_v I I I I #
coedge $-1 $174 $113 $175 $176 forward $63 $-1 #
coedge $-1 $177 $65 $174 $178 forward $41 $-1 #
coedge $-1 $65 $177 $179 $180 forward $41 $-1 #
coedge $-1 $116 $115 $65 $109 reversed $117 $-1 #
edge $-1 $181 -34.150596483927757 $182 34.150596483927757 $108 $183 forward 7 unknown #
coedge $-1 $67 $66 $184 $185 forward $26 $-1 #
coedge $-1 $186 $187 $66 $112 reversed $171 $-1 #
edge $-1 $119 -72.664571062349324 $188 72.664571062349324 $111 $189 forward 7 unknown #
coedge $-1 $105 $190 $67 $114 reversed $63 $-1 #
edge $-1 $191 -72.664571062349324 $118 72.664571062349324 $113 $192 forward 7 unknown #
coedge $-1 $108 $68 $190 $193 forward $117 $-1 #
coedge $-1 $68 $108 $186 $194 reversed $117 $-1 #
loop $-1 $-1 $115 $170 #
vertex $-1 $69 $195 #
vertex $-1 $69 $196 #
straight-curve $-1 72.664571062349324 0 9.8554909046088337 0 1 0 I I #
face $-1 $197 $198 $16 $-1 $123 reversed single #
loop $-1 $-1 $199 $70 #
plane-surface $-1 -72.664571062349324 0 0 1 0 0 0 0 -1 forward_v I I I I #
coedge $-1 $76 $127 $200 $201 reversed $71 $-1 #
coedge $-1 $202 $73 $203 $204 reversed $45 $-1 #
coedge $-1 $73 $202 $205 $206 reversed $45 $-1 #
coedge $-1 $124 $134 $73 $128 forward $71 $-1 #
edge $-1 $207 -34.150596483927757 $208 34.150596483927757 $127 $209 forward 7 unknown #
coedge $-1 $75 $74 $210 $211 reversed $29 $-1 #
coedge $-1 $200 $212 $74 $131 forward $213 $-1 #
edge $-1 $214 -39.253430838113651 $135 -27.568849610357695 $130 $215 forward 7 unknown #
coedge $-1 $216 $217 $75 $133 forward $218 $-1 #
edge $-1 $136 27.568849610357695 $219 39.253430838113651 $132 $220 forward 7 unknown #
coedge $-1 $127 $76 $217 $221 reversed $71 $-1 #
vertex $-1 $131 $222 #
vertex $-1 $133 $223 #
straight-curve $-1 -60.979989834593368 0 3.6848374892557931 0 1 0 I I #
face $-1 $224 $225 $17 $-1 $226 reversed single #
loop $-1 $-1 $146 $78 #
plane-surface $-1 0 0 9.8554909046088337 0 0 1 1 0 0 forward_v I I I I #
coedge $-1 $84 $227 $81 $144 forward $79 $-1 #
coedge $-1 $228 $81 $229 $230 reversed $49 $-1 #
coedge $-1 $81 $228 $82 $145 reversed $49 $-1 #
edge $-1 $231 -20.094364386707607 $149 -8.0180998077326926 $141 $232 forward 7 unknown #
edge $-1 $149 -145.32914212469859 $233 -135.80871661960933 $82 $234 forward 7 unknown #
coedge $-1 $235 $236 $83 $147 forward $139 $-1 #
edge $-1 $150 -13.215588919532379 $233 -8.1705321614269479 $146 $237 forward 7 unknown #
coedge $-1 $238 $84 $236 $239 reversed $79 $-1 #
vertex $-1 $144 $240 #
vertex $-1 $147 $241 #
straight-curve $-1 72.664571062349324 22.074331904952842 101.02026288742042 0 0 1 I I #
face $-1 $242 $243 $18 $-1 $244 reversed single #
loop $-1 $245 $92 $86 #
plane-surface $-1 -4.3481391609423241 28.1124641944403 125.02781555154917 0.84804810408105047 0 0.52991925155115449 0.52991925155115449 0 -0.84804810408105047 forward_v I I I I #
coedge $-1 $246 $247 $248 $249 reversed $87 $-1 #
coedge $-1 $156 $156 $-1 $250 forward $89 $-1 #
edge $-1 $251 0 $251 6.2831853071796004 $90 $252 forward 7 unknown #
vertex $-1 $93 $253 #
ellipse-curve $-1 70.142042683296609 25.524693213231387 5.818601504790907 -0.84804810408105047 0 -0.52991925155115449 0.52991925155115449 0 -0.84804810408105047 1 I I #
face $-1 $254 $255 $19 $-1 $256 forward single #
loop $-1 $257 $258 $94 #
cone-surface $-1 67.558261368233531 25.524693213231387 4.2040758026979237 -0.84804810408105047 0 -0.52991925155115449 0.26495962577557725 0 -0.42402405204052523 1 I I -0.70710678118654746 0.70710678118654746 0.5 forward I I I I #
loop $-1 $-1 $259 $57 #
coedge $-1 $164 $164 $260 $261 reversed $95 $-1 #
coedge $-1 $165 $165 $-1 $262 forward $97 $-1 #
edge $-1 $263 0 $263 6.2831853071796004 $98 $264 forward 7 unknown #
loop $-1 $265 $100 $254 #
vertex $-1 $101 $266 #
ellipse-curve $-1 70.142042683296609 30.700235175649212 5.818601504790907 -0.84804810408105047 0 -0.52991925155115449 0.52991925155115449 0 -0.84804810408105047 1 I I #
face $-1 $-1 $117 $15 $-1 $267 reversed single #
loop $-1 $-1 $186 $102 #
plane-surface $-1 0 34.150596483927757 0 0 -1 0 0 0 -1 forward_v I I I I #
coedge $-1 $268 $184 $187 $269 forward $103 $-1 #
coedge $-1 $190 $105 $106 $178 reversed $63 $-1 #
coedge $-1 $184 $268 $105 $176 reversed $103 $-1 #
edge $-1 $191 -9.8554909046088337 $270 9.8554909046088337 $175 $271 forward 7 unknown #
coedge $-1 $107 $106 $268 $272 forward $41 $-1 #
edge $-1 $182 -72.664571062349324 $270 72.664571062349324 $174 $273 forward 7 unknown #
coedge $-1 $187 $186 $107 $180 reversed $171 $-1 #
edge $-1 $274 -72.664571062349324 $181 72.664571062349324 $179 $275 forward 7 unknown #
vertex $-1 $109 $276 #
vertex $-1 $193 $277 #
straight-curve $-1 72.664571062349324 0 -9.8554909046088337 0 -1 0 I I #
coedge $-1 $173 $175 $110 $185 reversed $103 $-1 #
edge $-1 $188 -34.150596483927757 $191 34.150596483927757 $184 $278 forward 7 unknown #
coedge $-1 $179 $111 $116 $194 forward $171 $-1 #
coedge $-1 $111 $179 $173 $269 reversed $171 $-1 #
vertex $-1 $112 $279 #
straight-curve $-1 0 34.150596483927757 9.8554909046088337 -1 0 0 I I #
coedge $-1 $113 $174 $115 $193 reversed $63 $-1 #
vertex $-1 $185 $280 #
straight-curve $-1 0 -34.150596483927757 9.8554909046088337 1 0 0 I I #
edge $-1 $118 -9.8554909046088337 $182 9.8554909046088337 $115 $281 forward 7 unknown #
edge $-1 $119 -9.8554909046088337 $181 9.8554909046088337 $116 $282 forward 7 unknown #
point $-1 72.664571062349324 -34.150596483927757 9.8554909046088337 #
point $-1 72.664571062349324 34.150596483927757 9.8554909046088337 #
face $-1 $283 $213 $16 $-1 $284 reversed single #
loop $-1 $-1 $210 $121 #
coedge $-1 $285 $286 $202 $287 forward $122 $-1 #
coedge $-1 $205 $130 $124 $201 forward $213 $-1 #
edge $-1 $135 -2.7028605185272383 $208 0.73890657707012863 $200 $288 forward 7 unknown #
coedge $-1 $126 $125 $199 $287 reversed $45 $-1 #
coedge $-1 $217 $289 $125 $204 forward $218 $-1 #
edge $-1 $290 -39.253430838113651 $207 -27.568849610357695 $203 $291 forward 7 unknown #
coedge $-1 $292 $200 $126 $206 forward $213 $-1 #
edge $-1 $208 27.568849610357695 $293 39.253430838113651 $205 $294 forward 7 unknown #
vertex $-1 $204 $295 #
vertex $-1 $206 $296 #
straight-curve $-1 -60.979989834593368 0 0.2430703936584262 0 -1 0 I I #
coedge $-1 $297 $298 $129 $211 forward $198 $-1 #
edge $-1 $219 -34.150596483927757 $214 34.150596483927757 $210 $299 forward 7 unknown #
coedge $-1 $130 $300 $297 $301 forward $213 $-1 #
loop $-1 $-1 $130 $197 #
vertex $-1 $131 $302 #
straight-curve $-1 -33.411140224235673 -34.150596483927757 3.6848374892557931 1 0 0 I I #
coedge $-1 $303 $132 $298 $304 reversed $218 $-1 #
coedge $-1 $132 $203 $134 $221 forward $218 $-1 #
loop $-1 $-1 $132 $305 #
vertex $-1 $211 $306 #
straight-curve $-1 -33.411140224235673 34.150596483927757 3.6848374892557931 -1 0 0 I I #
edge $-1 $207 -0.73890657707012863 $136 2.7028605185272383 $217 $307 forward 7 unknown #
point $-1 -60.979989834593368 -34.150596483927757 3.6848374892557931 #
point $-1 -60.979989834593368 34.150596483927757 3.6848374892557931 #
face $-1 $308 $309 $17 $-1 $310 forward single #
loop $-1 $-1 $311 $138 #
plane-surface $-1 -66.822280448471346 0 3.6848374892557931 0 0 1 1 0 0 forward_v I I I I #
coedge $-1 $141 $312 $313 $314 reversed $79 $-1 #
coedge $-1 $143 $142 $235 $315 reversed $49 $-1 #
coedge $-1 $313 $316 $142 $230 forward $317 $-1 #
edge $-1 $318 81.641834326762634 $231 91.162259831851927 $229 $319 forward 7 unknown #
vertex $-1 $314 $320 #
straight-curve $-1 72.664571062349324 14.05623209722015 1.781712104972982 0 -1 0 I I #
vertex $-1 $315 $321 #
straight-curve $-1 -4.3481391609423241 22.074331904952842 125.02781555154917 -0.52991925155115449 0 0.84804810408105047 I I #
coedge $-1 $322 $146 $228 $315 forward $139 $-1 #
coedge $-1 $146 $323 $148 $239 forward $139 $-1 #
straight-curve $-1 59.448982142816945 22.074331904952842 9.8554909046088284 -1 0 0 I I #
coedge $-1 $312 $148 $324 $325 forward $79 $-1 #
edge $-1 $326 -34.150596483927757 $150 22.074331904952842 $148 $327 forward 7 unknown #
point $-1 72.664571062349324 22.074331904952842 1.781712104972982 #
point $-1 72.664571062349324 22.074331904952842 9.8554909046088337 #
face $-1 $328 $329 $18 $-1 $330 forward single #
loop $-1 $-1 $331 $152 #
plane-surface $-1 72.664571062349324 0 0 -1 0 0 0 0 1 forward_v I I I I #
loop $-1 $-1 $332 $86 #
coedge $-1 $247 $155 $333 $334 forward $87 $-1 #
coedge $-1 $155 $246 $335 $336 reversed $87 $-1 #
coedge $-1 $337 $331 $155 $249 forward $243 $-1 #
edge $-1 $338 -99.238550782447433 $339 -91.164771982811587 $248 $340 forward 7 unknown #
edge $-1 $341 1 $341 0 $156 $-1 forward 7 unknown #
vertex $-1 $157 $342 #
ellipse-curve $-1 67.982285420274053 25.524693213231387 4.469035428473501 0.84804810408105047 0 0.52991925155115449 0.52991925155115449 0 -0.84804810408105047 1 I I #
point $-1 70.671961934847758 25.524693213231387 4.9705534007098526 #
face $-1 $343 $167 $19 $-1 $344 forward single #
loop $-1 $-1 $345 $160 #
plane-surface $-1 118.89796428563389 22.074331904952842 202.04052577484083 0 1 0 0.84804810408105047 0 0.52991925155115449 forward_v I I I I #
loop $-1 $-1 $346 $94 #
coedge $-1 $258 $258 $259 $347 forward $161 $-1 #
coedge $-1 $259 $259 $258 $347 reversed $163 $-1 #
coedge $-1 $260 $260 $164 $261 forward $265 $-1 #
edge $-1 $348 0 $348 6.2831853071796004 $260 $349 forward 7 unknown #
edge $-1 $350 1 $350 0 $165 $-1 forward 7 unknown #
vertex $-1 $166 $351 #
ellipse-curve $-1 67.982285420274053 30.700235175649212 4.469035428473501 0.84804810408105047 0 0.52991925155115449 0.52991925155115449 0 -0.84804810408105047 1 I I #
loop $-1 $352 $260 $254 #
point $-1 70.671961934847758 30.700235175649212 4.9705534007098526 #
plane-surface $-1 72.664571062349324 0 0 -1 0 0 0 0 1 forward_v I I I I #
coedge $-1 $175 $173 $177 $272 reversed $103 $-1 #
edge $-1 $188 -9.8554909046088337 $274 9.8554909046088337 $187 $353 forward 7 unknown #
vertex $-1 $272 $354 #
straight-curve $-1 -72.664571062349324 -34.150596483927757 0 0 0 -1 I I #
edge $-1 $270 -34.150596483927757 $274 34.150596483927757 $268 $355 forward 7 unknown #
straight-curve $-1 0 -34.150596483927757 -9.8554909046088337 -1 0 0 I I #
vertex $-1 $180 $356 #
straight-curve $-1 0 34.150596483927757 -9.8554909046088337 1 0 0 I I #
point $-1 72.664571062349324 34.150596483927757 -9.8554909046088337 #
point $-1 72.664571062349324 -34.150596483927757 -9.8554909046088337 #
straight-curve $-1 -72.664571062349324 0 9.8554909046088337 0 -1 0 I I #
point $-1 -72.664571062349324 34.150596483927757 9.8554909046088337 #
point $-1 -72.664571062349324 -34.150596483927757 9.8554909046088337 #
straight-curve $-1 72.664571062349324 -34.150596483927757 0 0 0 -1 I I #
straight-curve $-1 72.664571062349324 34.150596483927757 0 0 0 -1 I I #
face $-1 $357 $358 $16 $-1 $359 forward single #
plane-surface $-1 0 -34.150596483927757 0 0 1 0 0 0 1 forward_v I I I I #
coedge $-1 $360 $199 $289 $361 forward $122 $-1 #
coedge $-1 $199 $360 $292 $362 reversed $122 $-1 #
edge $-1 $293 -34.150596483927757 $290 34.150596483927757 $199 $363 forward 7 unknown #
straight-curve $-1 -60.979989834593368 -34.150596483927757 0.98197697072855483 0 0 -1 I I #
coedge $-1 $203 $364 $285 $361 reversed $218 $-1 #
vertex $-1 $361 $365 #
straight-curve $-1 -33.411140224235673 34.150596483927757 0.2430703936584262 1 0 0 I I #
coedge $-1 $366 $205 $286 $362 forward $213 $-1 #
vertex $-1 $362 $367 #
straight-curve $-1 -33.411140224235673 -34.150596483927757 0.2430703936584262 -1 0 0 I I #
point $-1 -60.979989834593368 34.150596483927757 0.2430703936584262 #
point $-1 -60.979989834593368 -34.150596483927757 0.2430703936584262 #
coedge $-1 $368 $210 $212 $301 reversed $198 $-1 #
coedge $-1 $210 $368 $216 $304 forward $198 $-1 #
straight-curve $-1 -72.664571062349324 0 3.6848374892557931 0 -1 0 I I #
coedge $-1 $212 $369 $370 $371 reversed $213 $-1 #
edge $-1 $372 -9.8554909046088337 $214 -3.6848374892557931 $297 $373 forward 7 unknown #
point $-1 -72.664571062349324 -34.150596483927757 3.6848374892557931 #
coedge $-1 $374 $216 $375 $376 reversed $218 $-1 #
edge $-1 $377 -9.8554909046088337 $219 -3.6848374892557931 $216 $378 forward 7 unknown #
face $-1 $379 $218 $16 $-1 $380 reversed single #
point $-1 -72.664571062349324 34.150596483927757 3.6848374892557931 #
straight-curve $-1 -60.979989834593368 34.150596483927757 0.98197697072855483 0 0 1 I I #
face $-1 $381 $382 $17 $-1 $383 forward single #
loop $-1 $-1 $384 $224 #
plane-surface $-1 -66.822280448471346 0 0.2430703936584262 0 0 1 1 0 0 forward_v I I I I #
coedge $-1 $385 $386 $387 $388 reversed $225 $-1 #
coedge $-1 $227 $238 $389 $390 reversed $79 $-1 #
coedge $-1 $391 $229 $227 $314 forward $317 $-1 #
edge $-1 $231 -1.7817121049729672 $392 9.8554909046088337 $227 $393 forward 7 unknown #
edge $-1 $233 8.0180998077326926 $318 20.094364386707607 $235 $394 forward 7 unknown #
coedge $-1 $229 $395 $322 $396 reversed $317 $-1 #
loop $-1 $-1 $229 $397 #
vertex $-1 $396 $398 #
straight-curve $-1 24.355934562542473 34.150596483927757 79.091693719119107 0.52991925155115449 0 -0.84804810408105047 I I #
point $-1 72.664571062349324 34.150596483927757 1.7817121049729672 #
point $-1 67.619514304243893 22.074331904952842 9.8554909046088284 #
coedge $-1 $399 $235 $316 $396 forward $139 $-1 #
coedge $-1 $236 $399 $400 $401 forward $139 $-1 #
coedge $-1 $400 $402 $238 $325 reversed $403 $-1 #
edge $-1 $326 -9.8554909046088337 $404 9.8554909046088337 $238 $405 forward 7 unknown #
vertex $-1 $239 $406 #
straight-curve $-1 72.664571062349324 0 9.8554909046088337 0 1 0 I I #
face $-1 $407 $408 $18 $-1 $409 reversed single #
loop $-1 $-1 $335 $242 #
plane-surface $-1 0 0 9.8554909046088337 0 0 1 1 0 0 forward_v I I I I #
coedge $-1 $248 $410 $332 $411 forward $243 $-1 #
coedge $-1 $412 $333 $331 $411 reversed $245 $-1 #
coedge $-1 $332 $413 $246 $334 reversed $245 $-1 #
edge $-1 $338 -145.32914212469859 $414 -135.80871661960933 $246 $415 forward 7 unknown #
coedge $-1 $416 $417 $247 $336 forward $329 $-1 #
edge $-1 $339 -13.215588919532379 $414 -8.1705321614269479 $335 $418 forward 7 unknown #
coedge $-1 $419 $248 $417 $420 reversed $243 $-1 #
vertex $-1 $411 $421 #
vertex $-1 $336 $422 #
straight-curve $-1 72.664571062349324 22.074331904952842 101.02026288742042 0 0 1 I I #
vertex $-1 $250 $423 #
point $-1 68.512204671825216 25.524693213231387 3.6209873243924502 #
face $-1 $424 $425 $19 $-1 $426 reversed single #
plane-surface $-1 -4.3481391609423241 28.1124641944403 125.02781555154917 0.84804810408105047 0 0.52991925155115449 0.52991925155115449 0 -0.84804810408105047 forward_v I I I I #
coedge $-1 $427 $428 $429 $430 reversed $255 $-1 #
coedge $-1 $346 $346 $-1 $431 forward $257 $-1 #
edge $-1 $432 0 $432 6.2831853071796004 $258 $433 forward 7 unknown #
vertex $-1 $261 $434 #
ellipse-curve $-1 70.142042683296609 25.524693213231387 5.818601504790907 -0.84804810408105047 0 -0.52991925155115449 0.52991925155115449 0 -0.84804810408105047 1 I I #
vertex $-1 $262 $435 #
point $-1 68.512204671825216 30.700235175649212 3.6209873243924502 #
loop $-1 $-1 $436 $254 #
straight-curve $-1 -72.664571062349324 34.150596483927757 0 0 0 -1 I I #
point $-1 -72.664571062349324 -34.150596483927757 -9.8554909046088337 #
straight-curve $-1 -72.664571062349324 0 -9.8554909046088337 0 1 0 I I #
point $-1 -72.664571062349324 34.150596483927757 -9.8554909046088337 #
face $-1 $305 $437 $16 $-1 $438 reversed single #
loop $-1 $-1 $439 $283 #
plane-surface $-1 0 0 9.8554909046088337 0 0 1 1 0 0 forward_v I I I I #
coedge $-1 $286 $285 $440 $441 reversed $122 $-1 #
edge $-1 $290 -0.2430703936584262 $442 9.8554909046088337 $289 $378 forward 7 unknown #
edge $-1 $293 -0.2430703936584262 $443 9.8554909046088337 $286 $373 forward 7 unknown #
straight-curve $-1 -72.664571062349324 0 0.2430703936584262 0 1 0 I I #
coedge $-1 $289 $374 $444 $445 reversed $218 $-1 #
point $-1 -72.664571062349324 34.150596483927757 0.2430703936584262 #
coedge $-1 $369 $292 $446 $447 reversed $213 $-1 #
point $-1 -72.664571062349324 -34.150596483927757 0.2430703936584262 #
coedge $-1 $298 $297 $448 $449 reversed $198 $-1 #
coedge $-1 $300 $366 $450 $451 reversed $213 $-1 #
coedge $-1 $439 $448 $300 $371 forward $358 $-1 #
edge $-1 $372 -72.664571062349324 $452 72.664571062349324 $300 $453 forward 7 unknown #
vertex $-1 $449 $454 #
straight-curve $-1 -72.664571062349324 -34.150596483927757 0 0 0 -1 I I #
coedge $-1 $364 $303 $455 $456 forward $218 $-1 #
coedge $-1 $448 $439 $303 $376 forward $358 $-1 #
edge $-1 $457 -72.664571062349324 $377 72.664571062349324 $303 $458 forward 7 unknown #
vertex $-1 $376 $459 #
straight-curve $-1 -72.664571062349324 34.150596483927757 0 0 0 -1 I I #
face $-1 $-1 $460 $16 $-1 $461 reversed single #
plane-surface $-1 0 34.150596483927757 0 0 -1 0 0 0 -1 forward_v I I I I #
face $-1 $462 $463 $17 $-1 $464 reversed single #
loop $-1 $-1 $465 $308 #
plane-surface $-1 -60.979989834593368 0 1.9639539414571097 -1 0 0 0 0 1 forward_v I I I I #
coedge $-1 $466 $467 $468 $469 reversed $309 $-1 #
coedge $-1 $470 $311 $471 $472 reversed $225 $-1 #
coedge $-1 $311 $470 $473 $474 reversed $225 $-1 #
coedge $-1 $475 $465 $311 $388 forward $382 $-1 #
edge $-1 $476 -34.150596483927757 $477 34.150596483927757 $387 $478 forward 7 unknown #
coedge $-1 $479 $480 $312 $390 forward $481 $-1 #
edge $-1 $392 -34.150596483927757 $404 34.150596483927757 $312 $482 forward 7 unknown #
coedge $-1 $483 $313 $480 $484 reversed $317 $-1 #
vertex $-1 $390 $485 #
straight-curve $-1 72.664571062349324 34.150596483927757 0 0 0 -1 I I #
straight-curve $-1 67.619514304243893 14.05623209722015 9.8554909046088284 0 1 0 I I #
coedge $-1 $316 $473 $486 $487 reversed $317 $-1 #
edge $-1 $318 -67.619514304243893 $488 72.664571062349324 $316 $489 forward 7 unknown #
face $-1 $-1 $317 $17 $-1 $490 reversed single #
point $-1 67.619514304243893 34.150596483927757 9.8554909046088284 #
coedge $-1 $323 $322 $491 $492 forward $139 $-1 #
coedge $-1 $493 $324 $323 $401 reversed $403 $-1 #
edge $-1 $494 -72.664571062349324 $326 72.664571062349324 $400 $495 forward 7 unknown #
coedge $-1 $324 $496 $479 $497 reversed $403 $-1 #
loop $-1 $-1 $471 $498 #
vertex $-1 $325 $499 #
straight-curve $-1 72.664571062349324 -34.150596483927757 0 0 0 -1 I I #
point $-1 72.664571062349324 -34.150596483927757 9.8554909046088337 #
face $-1 $500 $501 $18 $-1 $502 forward single #
loop $-1 $-1 $503 $328 #
plane-surface $-1 -66.822280448471346 0 3.6848374892557931 0 0 1 1 0 0 forward_v I I I I #
coedge $-1 $331 $504 $505 $506 reversed $243 $-1 #
edge $-1 $507 -20.094364386707607 $338 -8.0180998077326926 $331 $508 forward 7 unknown #
coedge $-1 $413 $332 $509 $510 reversed $245 $-1 #
coedge $-1 $333 $412 $416 $511 reversed $245 $-1 #
vertex $-1 $511 $512 #
straight-curve $-1 -4.3481391609423241 22.074331904952842 125.02781555154917 -0.52991925155115449 0 0.84804810408105047 I I #
coedge $-1 $513 $335 $413 $511 forward $329 $-1 #
coedge $-1 $335 $514 $337 $420 forward $329 $-1 #
straight-curve $-1 59.448982142816945 22.074331904952842 9.8554909046088284 -1 0 0 I I #
coedge $-1 $504 $337 $515 $516 forward $243 $-1 #
edge $-1 $517 -34.150596483927757 $339 22.074331904952842 $337 $518 forward 7 unknown #
point $-1 72.664571062349324 22.074331904952842 1.781712104972982 #
point $-1 72.664571062349324 22.074331904952842 9.8554909046088337 #
point $-1 67.134237316193008 25.524693213231387 3.9391161769223464 #
face $-1 $519 $520 $19 $-1 $521 forward single #
loop $-1 $-1 $522 $343 #
plane-surface $-1 72.664571062349324 0 0 -1 0 0 0 0 1 forward_v I I I I #
coedge $-1 $428 $345 $523 $524 forward $255 $-1 #
coedge $-1 $345 $427 $525 $526 reversed $255 $-1 #
coedge $-1 $527 $522 $345 $430 forward $425 $-1 #
edge $-1 $528 -99.238550782447433 $529 -91.164771982811587 $429 $530 forward 7 unknown #
edge $-1 $531 1 $531 0 $346 $-1 forward 7 unknown #
vertex $-1 $347 $532 #
ellipse-curve $-1 67.982285420274053 25.524693213231387 4.469035428473501 0.84804810408105047 0 0.52991925155115449 0.52991925155115449 0 -0.84804810408105047 1 I I #
point $-1 70.671961934847758 25.524693213231387 4.9705534007098526 #
point $-1 67.134237316193008 30.700235175649212 3.9391161769223464 #
coedge $-1 $533 $523 $522 $534 reversed $352 $-1 #
loop $-1 $-1 $535 $357 #
plane-surface $-1 0 0 -9.8554909046088337 0 0 1 1 0 0 forward_v I I I I #
coedge $-1 $375 $370 $536 $537 forward $358 $-1 #
coedge $-1 $444 $446 $360 $441 forward $437 $-1 #
edge $-1 $443 -34.150596483927757 $442 34.150596483927757 $360 $538 forward 7 unknown #
vertex $-1 $445 $539 #
vertex $-1 $441 $540 #
coedge $-1 $535 $440 $364 $445 forward $437 $-1 #
edge $-1 $442 -72.664571062349324 $541 72.664571062349324 $364 $542 forward 7 unknown #
coedge $-1 $440 $535 $366 $447 forward $437 $-1 #
edge $-1 $543 -72.664571062349324 $443 72.664571062349324 $366 $544 forward 7 unknown #
coedge $-1 $370 $375 $368 $449 forward $358 $-1 #
edge $-1 $377 -34.150596483927757 $372 34.150596483927757 $368 $545 forward 7 unknown #
coedge $-1 $546 $536 $369 $451 forward $460 $-1 #
edge $-1 $452 -9.8554909046088337 $543 9.8554909046088337 $450 $547 forward 7 unknown #
vertex $-1 $537 $548 #
straight-curve $-1 0 -34.150596483927757 9.8554909046088337 1 0 0 I I #
point $-1 -72.664571062349324 -34.150596483927757 9.8554909046088337 #
coedge $-1 $536 $546 $374 $456 reversed $460 $-1 #
edge $-1 $457 -9.8554909046088337 $541 9.8554909046088337 $455 $549 forward 7 unknown #
vertex $-1 $537 $550 #
straight-curve $-1 0 34.150596483927757 9.8554909046088337 -1 0 0 I I #
point $-1 -72.664571062349324 34.150596483927757 9.8554909046088337 #
loop $-1 $-1 $450 $379 #
plane-surface $-1 72.664571062349324 0 0 -1 0 0 0 0 1 forward_v I I I I #
face $-1 $498 $551 $17 $-1 $464 reversed single #
loop $-1 $-1 $552 $381 #
plane-surface $-1 -72.664571062349324 0 0 1 0 0 0 0 -1 forward_v I I I I #
coedge $-1 $387 $468 $553 $554 reversed $382 $-1 #
coedge $-1 $555 $384 $556 $557 reversed $309 $-1 #
coedge $-1 $384 $555 $558 $559 reversed $309 $-1 #
coedge $-1 $465 $475 $384 $469 forward $382 $-1 #
edge $-1 $560 -34.150596483927757 $561 34.150596483927757 $468 $562 forward 7 unknown #
coedge $-1 $386 $385 $563 $564 reversed $225 $-1 #
coedge $-1 $553 $493 $385 $472 forward $403 $-1 #
edge $-1 $565 -39.253430838113651 $476 -27.568849610357695 $471 $566 forward 7 unknown #
coedge $-1 $395 $567 $386 $474 forward $317 $-1 #
edge $-1 $477 27.568849610357695 $568 39.253430838113651 $473 $569 forward 7 unknown #
coedge $-1 $468 $387 $567 $570 reversed $382 $-1 #
vertex $-1 $472 $571 #
vertex $-1 $474 $572 #
straight-curve $-1 -60.979989834593368 0 3.6848374892557931 0 1 0 I I #
coedge $-1 $573 $389 $402 $497 forward $481 $-1 #
coedge $-1 $389 $573 $391 $484 forward $481 $-1 #
loop $-1 $-1 $389 $574 #
straight-curve $-1 72.664571062349324 0 -9.8554909046088337 0 -1 0 I I #
coedge $-1 $556 $391 $575 $576 reversed $317 $-1 #
edge $-1 $577 -72.664571062349324 $392 72.664571062349324 $391 $578 forward 7 unknown #
point $-1 72.664571062349324 34.150596483927757 -9.8554909046088337 #
coedge $-1 $563 $491 $395 $487 forward $551 $-1 #
edge $-1 $488 -9.8554909046088337 $568 -3.6848374892557931 $395 $579 forward 7 unknown #
vertex $-1 $396 $580 #
straight-curve $-1 0 34.150596483927757 9.8554909046088337 -1 0 0 I I #
plane-surface $-1 0 34.150596483927757 0 0 -1 0 0 0 -1 forward_v I I I I #
coedge $-1 $486 $581 $399 $492 reversed $551 $-1 #
edge $-1 $488 -34.150596483927757 $494 34.150596483927757 $491 $582 forward 7 unknown #
coedge $-1 $471 $400 $581 $583 forward $403 $-1 #
vertex $-1 $492 $584 #
straight-curve $-1 0 -34.150596483927757 9.8554909046088337 1 0 0 I I #
coedge $-1 $402 $558 $585 $586 forward $403 $-1 #
edge $-1 $404 -72.664571062349324 $587 72.664571062349324 $402 $588 forward 7 unknown #
face $-1 $574 $403 $17 $-1 $589 reversed single #
point $-1 72.664571062349324 -34.150596483927757 -9.8554909046088337 #
face $-1 $590 $591 $18 $-1 $592 forward single #
loop $-1 $-1 $593 $407 #
plane-surface $-1 -66.822280448471346 0 0.2430703936584262 0 0 1 1 0 0 forward_v I I I I #
coedge $-1 $594 $595 $596 $597 reversed $408 $-1 #
coedge $-1 $410 $419 $598 $599 reversed $243 $-1 #
coedge $-1 $600 $509 $410 $506 forward $601 $-1 #
edge $-1 $507 -1.7817121049729672 $602 9.8554909046088337 $410 $603 forward 7 unknown #
vertex $-1 $506 $604 #
straight-curve $-1 72.664571062349324 14.05623209722015 1.781712104972982 0 -1 0 I I #
coedge $-1 $505 $605 $412 $510 forward $601 $-1 #
edge $-1 $606 81.641834326762634 $507 91.162259831851927 $509 $607 forward 7 unknown #
edge $-1 $414 8.0180998077326926 $606 20.094364386707607 $416 $608 forward 7 unknown #
point $-1 67.619514304243893 22.074331904952842 9.8554909046088284 #
coedge $-1 $609 $416 $605 $610 forward $329 $-1 #
coedge $-1 $417 $609 $611 $612 forward $329 $-1 #
coedge $-1 $611 $613 $419 $516 reversed $614 $-1 #
edge $-1 $517 -9.8554909046088337 $615 9.8554909046088337 $419 $616 forward 7 unknown #
vertex $-1 $420 $617 #
straight-curve $-1 72.664571062349324 0 9.8554909046088337 0 1 0 I I #
face $-1 $618 $619 $19 $-1 $620 reversed single #
loop $-1 $-1 $525 $424 #
plane-surface $-1 0 0 9.8554909046088337 0 0 1 1 0 0 forward_v I I I I #
coedge $-1 $429 $621 $436 $534 forward $425 $-1 #
coedge $-1 $436 $622 $427 $524 reversed $352 $-1 #
edge $-1 $528 -145.32914212469859 $623 -135.80871661960933 $427 $624 forward 7 unknown #
coedge $-1 $625 $626 $428 $526 forward $520 $-1 #
edge $-1 $529 -13.215588919532379 $623 -8.1705321614269479 $525 $627 forward 7 unknown #
coedge $-1 $628 $429 $626 $629 reversed $425 $-1 #
vertex $-1 $534 $630 #
vertex $-1 $526 $631 #
straight-curve $-1 72.664571062349324 22.074331904952842 101.02026288742042 0 0 1 I I #
vertex $-1 $431 $632 #
point $-1 68.512204671825216 25.524693213231387 3.6209873243924502 #
coedge $-1 $622 $436 $633 $634 reversed $352 $-1 #
edge $-1 $635 -20.094364386707607 $528 -8.0180998077326926 $522 $636 forward 7 unknown #
coedge $-1 $446 $444 $546 $637 forward $437 $-1 #
coedge $-1 $450 $455 $439 $537 reversed $460 $-1 #
edge $-1 $452 -34.150596483927757 $457 34.150596483927757 $536 $638 forward 7 unknown #
straight-curve $-1 -72.664571062349324 0 -9.8554909046088337 0 1 0 I I #
point $-1 -72.664571062349324 34.150596483927757 -9.8554909046088337 #
point $-1 -72.664571062349324 -34.150596483927757 -9.8554909046088337 #
vertex $-1 $637 $639 #
straight-curve $-1 0 34.150596483927757 -9.8554909046088337 1 0 0 I I #
vertex $-1 $451 $640 #
straight-curve $-1 0 -34.150596483927757 -9.8554909046088337 -1 0 0 I I #
straight-curve $-1 -72.664571062349324 0 9.8554909046088337 0 -1 0 I I #
coedge $-1 $455 $450 $535 $637 reversed $460 $-1 #
straight-curve $-1 72.664571062349324 -34.150596483927757 0 0 0 -1 I I #
point $-1 72.664571062349324 -34.150596483927757 9.8554909046088337 #
straight-curve $-1 72.664571062349324 34.150596483927757 0 0 0 -1 I I #
point $-1 72.664571062349324 34.150596483927757 9.8554909046088337 #
loop $-1 $-1 $563 $462 #
coedge $-1 $575 $585 $555 $641 forward $463 $-1 #
coedge $-1 $558 $471 $465 $554 forward $403 $-1 #
edge $-1 $476 -2.7028605185272383 $561 0.73890657707012863 $553 $642 forward 7 unknown #
coedge $-1 $467 $466 $552 $641 reversed $309 $-1 #
coedge $-1 $567 $483 $466 $557 forward $317 $-1 #
edge $-1 $643 -39.253430838113651 $560 -27.568849610357695 $556 $644 forward 7 unknown #
coedge $-1 $496 $553 $467 $559 forward $403 $-1 #
edge $-1 $561 27.568849610357695 $645 39.253430838113651 $558 $646 forward 7 unknown #
vertex $-1 $557 $647 #
vertex $-1 $559 $648 #
straight-curve $-1 -60.979989834593368 0 0.2430703936584262 0 -1 0 I I #
coedge $-1 $581 $486 $470 $564 forward $551 $-1 #
edge $-1 $568 -34.150596483927757 $565 34.150596483927757 $563 $649 forward 7 unknown #
vertex $-1 $472 $650 #
straight-curve $-1 -33.411140224235673 -34.150596483927757 3.6848374892557931 1 0 0 I I #
coedge $-1 $473 $556 $475 $570 forward $317 $-1 #
vertex $-1 $564 $651 #
straight-curve $-1 -33.411140224235673 34.150596483927757 3.6848374892557931 -1 0 0 I I #
edge $-1 $560 -0.73890657707012863 $477 2.7028605185272383 $567 $652 forward 7 unknown #
point $-1 -60.979989834593368 -34.150596483927757 3.6848374892557931 #
point $-1 -60.979989834593368 34.150596483927757 3.6848374892557931 #
coedge $-1 $480 $479 $653 $654 forward $481 $-1 #
face $-1 $397 $481 $17 $-1 $655 reversed single #
coedge $-1 $653 $552 $483 $576 forward $463 $-1 #
edge $-1 $643 -0.2430703936584262 $577 9.8554909046088337 $483 $579 forward 7 unknown #
vertex $-1 $484 $656 #
straight-curve $-1 0 34.150596483927757 -9.8554909046088337 1 0 0 I I #
straight-curve $-1 -72.664571062349324 34.150596483927757 0 0 0 -1 I I #
point $-1 -72.664571062349324 34.150596483927757 9.8554909046088337 #
coedge $-1 $491 $563 $493 $583 reversed $551 $-1 #
straight-curve $-1 -72.664571062349324 0 9.8554909046088337 0 -1 0 I I #
edge $-1 $494 -9.8554909046088337 $565 -3.6848374892557931 $581 $657 forward 7 unknown #
point $-1 -72.664571062349324 -34.150596483927757 9.8554909046088337 #
coedge $-1 $552 $653 $496 $586 reversed $463 $-1 #
edge $-1 $645 -0.2430703936584262 $587 9.8554909046088337 $585 $657 forward 7 unknown #
vertex $-1 $654 $658 #
straight-curve $-1 0 -34.150596483927757 -9.8554909046088337 -1 0 0 I I #
plane-surface $-1 0 -34.150596483927757 0 0 1 0 0 0 1 forward_v I I I I #
face $-1 $659 $660 $18 $-1 $661 reversed single #
loop $-1 $-1 $662 $500 #
plane-surface $-1 -60.979989834593368 0 1.9639539414571097 -1 0 0 0 0 1 forward_v I I I I #
coedge $-1 $663 $664 $665 $666 reversed $501 $-1 #
coedge $-1 $667 $503 $668 $669 reversed $408 $-1 #
coedge $-1 $503 $667 $670 $671 reversed $408 $-1 #
coedge $-1 $672 $662 $503 $597 forward $591 $-1 #
edge $-1 $673 -34.150596483927757 $674 34.150596483927757 $596 $675 forward 7 unknown #
coedge $-1 $676 $677 $504 $599 forward $678 $-1 #
edge $-1 $602 -34.150596483927757 $615 34.150596483927757 $504 $679 forward 7 unknown #
coedge $-1 $680 $505 $677 $681 reversed $601 $-1 #
loop $-1 $-1 $509 $682 #
vertex $-1 $599 $683 #
straight-curve $-1 72.664571062349324 34.150596483927757 0 0 0 -1 I I #
point $-1 72.664571062349324 34.150596483927757 1.7817121049729672 #
coedge $-1 $509 $684 $513 $610 reversed $601 $-1 #
vertex $-1 $610 $685 #
straight-curve $-1 24.355934562542473 34.150596483927757 79.091693719119107 0.52991925155115449 0 -0.84804810408105047 I I #
straight-curve $-1 67.619514304243893 14.05623209722015 9.8554909046088284 0 1 0 I I #
coedge $-1 $514 $513 $686 $687 forward $329 $-1 #
edge $-1 $606 -67.619514304243893 $688 72.664571062349324 $605 $689 forward 7 unknown #
coedge $-1 $690 $515 $514 $612 reversed $614 $-1 #
edge $-1 $691 -72.664571062349324 $517 72.664571062349324 $611 $692 forward 7 unknown #
coedge $-1 $515 $693 $676 $694 reversed $614 $-1 #
loop $-1 $-1 $668 $695 #
vertex $-1 $516 $696 #
straight-curve $-1 72.664571062349324 -34.150596483927757 0 0 0 -1 I I #
point $-1 72.664571062349324 -34.150596483927757 9.8554909046088337 #
face $-1 $697 $698 $19 $-1 $699 forward single #
loop $-1 $-1 $700 $519 #
plane-surface $-1 -66.822280448471346 0 3.6848374892557931 0 0 1 1 0 0 forward_v I I I I #
coedge $-1 $522 $701 $702 $703 reversed $425 $-1 #
coedge $-1 $523 $533 $625 $704 reversed $352 $-1 #
vertex $-1 $704 $705 #
straight-curve $-1 -4.3481391609423241 22.074331904952842 125.02781555154917 -0.52991925155115449 0 0.84804810408105047 I I #
coedge $-1 $706 $525 $622 $704 forward $520 $-1 #
coedge $-1 $525 $707 $527 $629 forward $520 $-1 #
straight-curve $-1 59.448982142816945 22.074331904952842 9.8554909046088284 -1 0 0 I I #
coedge $-1 $701 $527 $708 $709 forward $425 $-1 #
edge $-1 $710 -34.150596483927757 $529 22.074331904952842 $527 $711 forward 7 unknown #
point $-1 72.664571062349324 22.074331904952842 1.781712104972982 #
point $-1 72.664571062349324 22.074331904952842 9.8554909046088337 #
point $-1 67.134237316193008 25.524693213231387 3.9391161769223464 #
coedge $-1 $702 $712 $533 $634 forward $713 $-1 #
edge $-1 $714 81.641834326762634 $635 91.162259831851927 $633 $715 forward 7 unknown #
vertex $-1 $703 $716 #
straight-curve $-1 72.664571062349324 14.05623209722015 1.781712104972982 0 -1 0 I I #
edge $-1 $541 -34.150596483927757 $543 34.150596483927757 $546 $717 forward 7 unknown #
straight-curve $-1 72.664571062349324 0 9.8554909046088337 0 1 0 I I #
point $-1 72.664571062349324 34.150596483927757 -9.8554909046088337 #
point $-1 72.664571062349324 -34.150596483927757 -9.8554909046088337 #
edge $-1 $645 -34.150596483927757 $643 34.150596483927757 $552 $718 forward 7 unknown #
straight-curve $-1 -60.979989834593368 -34.150596483927757 0.98197697072855483 0 0 -1 I I #
vertex $-1 $576 $719 #
straight-curve $-1 -33.411140224235673 34.150596483927757 0.2430703936584262 1 0 0 I I #
vertex $-1 $586 $720 #
straight-curve $-1 -33.411140224235673 -34.150596483927757 0.2430703936584262 -1 0 0 I I #
point $-1 -60.979989834593368 34.150596483927757 0.2430703936584262 #
point $-1 -60.979989834593368 -34.150596483927757 0.2430703936584262 #
straight-curve $-1 -72.664571062349324 0 3.6848374892557931 0 -1 0 I I #
point $-1 -72.664571062349324 -34.150596483927757 3.6848374892557931 #
point $-1 -72.664571062349324 34.150596483927757 3.6848374892557931 #
straight-curve $-1 -60.979989834593368 34.150596483927757 0.98197697072855483 0 0 1 I I #
coedge $-1 $585 $575 $573 $654 reversed $463 $-1 #
edge $-1 $587 -34.150596483927757 $577 34.150596483927757 $653 $721 forward 7 unknown #
plane-surface $-1 0 0 -9.8554909046088337 0 0 1 1 0 0 forward_v I I I I #
point $-1 -72.664571062349324 34.150596483927757 -9.8554909046088337 #
straight-curve $-1 -72.664571062349324 -34.150596483927757 0 0 0 -1 I I #
point $-1 -72.664571062349324 -34.150596483927757 -9.8554909046088337 #
face $-1 $695 $722 $18 $-1 $661 reversed single #
loop $-1 $-1 $723 $590 #
plane-surface $-1 -72.664571062349324 0 0 1 0 0 0 0 -1 forward_v I I I I #
coedge $-1 $596 $665 $724 $725 reversed $591 $-1 #
coedge $-1 $726 $593 $727 $728 reversed $501 $-1 #
coedge $-1 $593 $726 $729 $730 reversed $501 $-1 #
coedge $-1 $662 $672 $593 $666 forward $591 $-1 #
edge $-1 $731 -34.150596483927757 $732 34.150596483927757 $665 $733 forward 7 unknown #
coedge $-1 $595 $594 $734 $735 reversed $408 $-1 #
coedge $-1 $724 $690 $594 $669 forward $614 $-1 #
edge $-1 $736 -39.253430838113651 $673 -27.568849610357695 $668 $737 forward 7 unknown #
coedge $-1 $684 $738 $595 $671 forward $601 $-1 #
edge $-1 $674 27.568849610357695 $739 39.253430838113651 $670 $740 forward 7 unknown #
coedge $-1 $665 $596 $738 $741 reversed $591 $-1 #
vertex $-1 $669 $742 #
vertex $-1 $671 $743 #
straight-curve $-1 -60.979989834593368 0 3.6848374892557931 0 1 0 I I #
coedge $-1 $744 $598 $613 $694 forward $678 $-1 #
coedge $-1 $598 $744 $600 $681 forward $678 $-1 #
loop $-1 $-1 $598 $745 #
straight-curve $-1 72.664571062349324 0 -9.8554909046088337 0 -1 0 I I #
coedge $-1 $727 $600 $746 $747 reversed $601 $-1 #
edge $-1 $748 -72.664571062349324 $602 72.664571062349324 $600 $749 forward 7 unknown #
face $-1 $-1 $601 $18 $-1 $750 reversed single #
point $-1 72.664571062349324 34.150596483927757 -9.8554909046088337 #
coedge $-1 $605 $670 $751 $752 reversed $601 $-1 #
point $-1 67.619514304243893 34.150596483927757 9.8554909046088284 #
coedge $-1 $751 $753 $609 $687 reversed $722 $-1 #
edge $-1 $688 -34.150596483927757 $691 34.150596483927757 $686 $754 forward 7 unknown #
vertex $-1 $610 $755 #
straight-curve $-1 0 34.150596483927757 9.8554909046088337 -1 0 0 I I #
coedge $-1 $668 $611 $753 $756 forward $614 $-1 #
vertex $-1 $687 $757 #
straight-curve $-1 0 -34.150596483927757 9.8554909046088337 1 0 0 I I #
coedge $-1 $613 $729 $758 $759 forward $614 $-1 #
edge $-1 $615 -72.664571062349324 $760 72.664571062349324 $613 $761 forward 7 unknown #
face $-1 $745 $614 $18 $-1 $762 reversed single #
point $-1 72.664571062349324 -34.150596483927757 -9.8554909046088337 #
face $-1 $763 $764 $19 $-1 $765 forward single #
loop $-1 $-1 $766 $618 #
plane-surface $-1 -66.822280448471346 0 0.2430703936584262 0 0 1 1 0 0 forward_v I I I I #
coedge $-1 $767 $768 $769 $770 reversed $619 $-1 #
coedge $-1 $621 $628 $771 $772 reversed $425 $-1 #
coedge $-1 $773 $633 $621 $703 forward $713 $-1 #
edge $-1 $635 -1.7817121049729672 $774 9.8554909046088337 $621 $775 forward 7 unknown #
edge $-1 $623 8.0180998077326926 $714 20.094364386707607 $625 $776 forward 7 unknown #
point $-1 67.619514304243893 22.074331904952842 9.8554909046088284 #
coedge $-1 $777 $625 $712 $778 forward $520 $-1 #
coedge $-1 $626 $777 $779 $780 forward $520 $-1 #
coedge $-1 $779 $781 $628 $709 reversed $782 $-1 #
edge $-1 $710 -9.8554909046088337 $783 9.8554909046088337 $628 $784 forward 7 unknown #
vertex $-1 $629 $785 #
straight-curve $-1 72.664571062349324 0 9.8554909046088337 0 1 0 I I #
coedge $-1 $633 $786 $706 $778 reversed $713 $-1 #
loop $-1 $-1 $633 $787 #
vertex $-1 $778 $788 #
straight-curve $-1 24.355934562542473 34.150596483927757 79.091693719119107 0.52991925155115449 0 -0.84804810408105047 I I #
point $-1 72.664571062349324 34.150596483927757 1.7817121049729672 #
straight-curve $-1 72.664571062349324 0 -9.8554909046088337 0 -1 0 I I #
straight-curve $-1 -72.664571062349324 0 0.2430703936584262 0 1 0 I I #
point $-1 -72.664571062349324 34.150596483927757 0.2430703936584262 #
point $-1 -72.664571062349324 -34.150596483927757 0.2430703936584262 #
straight-curve $-1 -72.664571062349324 0 -9.8554909046088337 0 1 0 I I #
loop $-1 $-1 $734 $659 #
coedge $-1 $746 $758 $726 $789 forward $660 $-1 #
coedge $-1 $729 $668 $662 $725 forward $614 $-1 #
edge $-1 $673 -2.7028605185272383 $732 0.73890657707012863 $724 $790 forward 7 unknown #
coedge $-1 $664 $663 $723 $789 reversed $501 $-1 #
coedge $-1 $738 $680 $663 $728 forward $601 $-1 #
edge $-1 $791 -39.253430838113651 $731 -27.568849610357695 $727 $792 forward 7 unknown #
coedge $-1 $693 $724 $664 $730 forward $614 $-1 #
edge $-1 $732 27.568849610357695 $793 39.253430838113651 $729 $794 forward 7 unknown #
vertex $-1 $728 $795 #
vertex $-1 $730 $796 #
straight-curve $-1 -60.979989834593368 0 0.2430703936584262 0 -1 0 I I #
coedge $-1 $753 $751 $667 $735 forward $722 $-1 #
edge $-1 $739 -34.150596483927757 $736 34.150596483927757 $734 $797 forward 7 unknown #
vertex $-1 $669 $798 #
straight-curve $-1 -33.411140224235673 -34.150596483927757 3.6848374892557931 1 0 0 I I #
coedge $-1 $670 $727 $672 $741 forward $601 $-1 #
vertex $-1 $735 $799 #
straight-curve $-1 -33.411140224235673 34.150596483927757 3.6848374892557931 -1 0 0 I I #
edge $-1 $731 -0.73890657707012863 $674 2.7028605185272383 $738 $800 forward 7 unknown #
point $-1 -60.979989834593368 -34.150596483927757 3.6848374892557931 #
point $-1 -60.979989834593368 34.150596483927757 3.6848374892557931 #
coedge $-1 $677 $676 $801 $802 forward $678 $-1 #
face $-1 $682 $678 $18 $-1 $803 reversed single #
coedge $-1 $801 $723 $680 $747 forward $660 $-1 #
edge $-1 $791 -0.2430703936584262 $748 9.8554909046088337 $680 $804 forward 7 unknown #
vertex $-1 $681 $805 #
straight-curve $-1 0 34.150596483927757 -9.8554909046088337 1 0 0 I I #
plane-surface $-1 0 34.150596483927757 0 0 -1 0 0 0 -1 forward_v I I I I #
coedge $-1 $734 $686 $684 $752 forward $722 $-1 #
edge $-1 $688 -9.8554909046088337 $739 -3.6848374892557931 $684 $804 forward 7 unknown #
coedge $-1 $686 $734 $690 $756 reversed $722 $-1 #
straight-curve $-1 -72.664571062349324 0 9.8554909046088337 0 -1 0 I I #
point $-1 -72.664571062349324 34.150596483927757 9.8554909046088337 #
edge $-1 $691 -9.8554909046088337 $736 -3.6848374892557931 $753 $806 forward 7 unknown #
point $-1 -72.664571062349324 -34.150596483927757 9.8554909046088337 #
coedge $-1 $723 $801 $693 $759 reversed $660 $-1 #
edge $-1 $793 -0.2430703936584262 $760 9.8554909046088337 $758 $806 forward 7 unknown #
vertex $-1 $802 $807 #
straight-curve $-1 0 -34.150596483927757 -9.8554909046088337 -1 0 0 I I #
plane-surface $-1 0 -34.150596483927757 0 0 1 0 0 0 1 forward_v I I I I #
face $-1 $808 $809 $19 $-1 $810 reversed single #
loop $-1 $-1 $811 $697 #
plane-surface $-1 -60.979989834593368 0 1.9639539414571097 -1 0 0 0 0 1 forward_v I I I I #
coedge $-1 $812 $813 $814 $815 reversed $698 $-1 #
coedge $-1 $816 $700 $817 $818 reversed $619 $-1 #
coedge $-1 $700 $816 $819 $820 reversed $619 $-1 #
coedge $-1 $821 $811 $700 $770 forward $764 $-1 #
edge $-1 $822 -34.150596483927757 $823 34.150596483927757 $769 $824 forward 7 unknown #
coedge $-1 $825 $826 $701 $772 forward $827 $-1 #
edge $-1 $774 -34.150596483927757 $783 34.150596483927757 $701 $828 forward 7 unknown #
coedge $-1 $829 $702 $826 $830 reversed $713 $-1 #
vertex $-1 $772 $831 #
straight-curve $-1 72.664571062349324 34.150596483927757 0 0 0 -1 I I #
straight-curve $-1 67.619514304243893 14.05623209722015 9.8554909046088284 0 1 0 I I #
coedge $-1 $707 $706 $832 $833 forward $520 $-1 #
edge $-1 $714 -67.619514304243893 $834 72.664571062349324 $712 $835 forward 7 unknown #
coedge $-1 $836 $708 $707 $780 reversed $782 $-1 #
edge $-1 $837 -72.664571062349324 $710 72.664571062349324 $779 $838 forward 7 unknown #
coedge $-1 $708 $839 $825 $840 reversed $782 $-1 #
loop $-1 $-1 $817 $841 #
vertex $-1 $709 $842 #
straight-curve $-1 72.664571062349324 -34.150596483927757 0 0 0 -1 I I #
point $-1 72.664571062349324 -34.150596483927757 9.8554909046088337 #
coedge $-1 $712 $819 $843 $844 reversed $713 $-1 #
face $-1 $-1 $713 $19 $-1 $845 reversed single #
point $-1 67.619514304243893 34.150596483927757 9.8554909046088284 #
edge $-1 $793 -34.150596483927757 $791 34.150596483927757 $723 $846 forward 7 unknown #
straight-curve $-1 -60.979989834593368 -34.150596483927757 0.98197697072855483 0 0 -1 I I #
vertex $-1 $747 $847 #
straight-curve $-1 -33.411140224235673 34.150596483927757 0.2430703936584262 1 0 0 I I #
vertex $-1 $759 $848 #
straight-curve $-1 -33.411140224235673 -34.150596483927757 0.2430703936584262 -1 0 0 I I #
point $-1 -60.979989834593368 34.150596483927757 0.2430703936584262 #
point $-1 -60.979989834593368 -34.150596483927757 0.2430703936584262 #
straight-curve $-1 -72.664571062349324 0 3.6848374892557931 0 -1 0 I I #
point $-1 -72.664571062349324 -34.150596483927757 3.6848374892557931 #
point $-1 -72.664571062349324 34.150596483927757 3.6848374892557931 #
straight-curve $-1 -60.979989834593368 34.150596483927757 0.98197697072855483 0 0 1 I I #
coedge $-1 $758 $746 $744 $802 reversed $660 $-1 #
edge $-1 $760 -34.150596483927757 $748 34.150596483927757 $801 $849 forward 7 unknown #
plane-surface $-1 0 0 -9.8554909046088337 0 0 1 1 0 0 forward_v I I I I #
straight-curve $-1 -72.664571062349324 34.150596483927757 0 0 0 -1 I I #
point $-1 -72.664571062349324 34.150596483927757 -9.8554909046088337 #
straight-curve $-1 -72.664571062349324 -34.150596483927757 0 0 0 -1 I I #
point $-1 -72.664571062349324 -34.150596483927757 -9.8554909046088337 #
face $-1 $841 $850 $19 $-1 $810 reversed single #
loop $-1 $-1 $851 $763 #
plane-surface $-1 -72.664571062349324 0 0 1 0 0 0 0 -1 forward_v I I I I #
coedge $-1 $769 $814 $852 $853 reversed $764 $-1 #
coedge $-1 $854 $766 $855 $856 reversed $698 $-1 #
coedge $-1 $766 $854 $857 $858 reversed $698 $-1 #
coedge $-1 $811 $821 $766 $815 forward $764 $-1 #
edge $-1 $859 -34.150596483927757 $860 34.150596483927757 $814 $861 forward 7 unknown #
coedge $-1 $768 $767 $862 $863 reversed $619 $-1 #
coedge $-1 $852 $836 $767 $818 forward $782 $-1 #
edge $-1 $864 -39.253430838113651 $822 -27.568849610357695 $817 $865 forward 7 unknown #
coedge $-1 $786 $866 $768 $820 forward $713 $-1 #
edge $-1 $823 27.568849610357695 $867 39.253430838113651 $819 $868 forward 7 unknown #
coedge $-1 $814 $769 $866 $869 reversed $764 $-1 #
vertex $-1 $818 $870 #
vertex $-1 $820 $871 #
straight-curve $-1 -60.979989834593368 0 3.6848374892557931 0 1 0 I I #
coedge $-1 $872 $771 $781 $840 forward $827 $-1 #
coedge $-1 $771 $872 $773 $830 forward $827 $-1 #
loop $-1 $-1 $771 $873 #
straight-curve $-1 72.664571062349324 0 -9.8554909046088337 0 -1 0 I I #
coedge $-1 $855 $773 $874 $875 reversed $713 $-1 #
edge $-1 $876 -72.664571062349324 $774 72.664571062349324 $773 $877 forward 7 unknown #
point $-1 72.664571062349324 34.150596483927757 -9.8554909046088337 #
coedge $-1 $843 $878 $777 $833 reversed $850 $-1 #
edge $-1 $834 -34.150596483927757 $837 34.150596483927757 $832 $879 forward 7 unknown #
vertex $-1 $778 $880 #
straight-curve $-1 0 34.150596483927757 9.8554909046088337 -1 0 0 I I #
coedge $-1 $817 $779 $878 $881 forward $782 $-1 #
vertex $-1 $833 $882 #
straight-curve $-1 0 -34.150596483927757 9.8554909046088337 1 0 0 I I #
coedge $-1 $781 $857 $883 $884 forward $782 $-1 #
edge $-1 $783 -72.664571062349324 $885 72.664571062349324 $781 $886 forward 7 unknown #
face $-1 $873 $782 $19 $-1 $887 reversed single #
point $-1 72.664571062349324 -34.150596483927757 -9.8554909046088337 #
coedge $-1 $862 $832 $786 $844 forward $850 $-1 #
edge $-1 $834 -9.8554909046088337 $867 -3.6848374892557931 $786 $888 forward 7 unknown #
plane-surface $-1 0 34.150596483927757 0 0 -1 0 0 0 -1 forward_v I I I I #
straight-curve $-1 -72.664571062349324 0 0.2430703936584262 0 1 0 I I #
point $-1 -72.664571062349324 34.150596483927757 0.2430703936584262 #
point $-1 -72.664571062349324 -34.150596483927757 0.2430703936584262 #
straight-curve $-1 -72.664571062349324 0 -9.8554909046088337 0 1 0 I I #
loop $-1 $-1 $862 $808 #
coedge $-1 $874 $883 $854 $889 forward $809 $-1 #
coedge $-1 $857 $817 $811 $853 forward $782 $-1 #
edge $-1 $822 -2.7028605185272383 $860 0.73890657707012863 $852 $890 forward 7 unknown #
coedge $-1 $813 $812 $851 $889 reversed $698 $-1 #
coedge $-1 $866 $829 $812 $856 forward $713 $-1 #
edge $-1 $891 -39.253430838113651 $859 -27.568849610357695 $855 $892 forward 7 unknown #
coedge $-1 $839 $852 $813 $858 forward $782 $-1 #
edge $-1 $860 27.568849610357695 $893 39.253430838113651 $857 $894 forward 7 unknown #
vertex $-1 $856 $895 #
vertex $-1 $858 $896 #
straight-curve $-1 -60.979989834593368 0 0.2430703936584262 0 -1 0 I I #
coedge $-1 $878 $843 $816 $863 forward $850 $-1 #
edge $-1 $867 -34.150596483927757 $864 34.150596483927757 $862 $897 forward 7 unknown #
vertex $-1 $818 $898 #
straight-curve $-1 -33.411140224235673 -34.150596483927757 3.6848374892557931 1 0 0 I I #
coedge $-1 $819 $855 $821 $869 forward $713 $-1 #
vertex $-1 $863 $899 #
straight-curve $-1 -33.411140224235673 34.150596483927757 3.6848374892557931 -1 0 0 I I #
edge $-1 $859 -0.73890657707012863 $823 2.7028605185272383 $866 $900 forward 7 unknown #
point $-1 -60.979989834593368 -34.150596483927757 3.6848374892557931 #
point $-1 -60.979989834593368 34.150596483927757 3.6848374892557931 #
coedge $-1 $826 $825 $901 $902 forward $827 $-1 #
face $-1 $787 $827 $19 $-1 $903 reversed single #
coedge $-1 $901 $851 $829 $875 forward $809 $-1 #
edge $-1 $891 -0.2430703936584262 $876 9.8554909046088337 $829 $888 forward 7 unknown #
vertex $-1 $830 $904 #
straight-curve $-1 0 34.150596483927757 -9.8554909046088337 1 0 0 I I #
coedge $-1 $832 $862 $836 $881 reversed $850 $-1 #
straight-curve $-1 -72.664571062349324 0 9.8554909046088337 0 -1 0 I I #
point $-1 -72.664571062349324 34.150596483927757 9.8554909046088337 #
edge $-1 $837 -9.8554909046088337 $864 -3.6848374892557931 $878 $905 forward 7 unknown #
point $-1 -72.664571062349324 -34.150596483927757 9.8554909046088337 #
coedge $-1 $851 $901 $839 $884 reversed $809 $-1 #
edge $-1 $893 -0.2430703936584262 $885 9.8554909046088337 $883 $905 forward 7 unknown #
vertex $-1 $902 $906 #
straight-curve $-1 0 -34.150596483927757 -9.8554909046088337 -1 0 0 I I #
plane-surface $-1 0 -34.150596483927757 0 0 1 0 0 0 1 forward_v I I I I #
straight-curve $-1 -72.664571062349324 34.150596483927757 0 0 0 -1 I I #
edge $-1 $893 -34.150596483927757 $891 34.150596483927757 $851 $907 forward 7 unknown #
straight-curve $-1 -60.979989834593368 -34.150596483927757 0.98197697072855483 0 0 -1 I I #
vertex $-1 $875 $908 #
straight-curve $-1 -33.411140224235673 34.150596483927757 0.2430703936584262 1 0 0 I I #
vertex $-1 $884 $909 #
straight-curve $-1 -33.411140224235673 -34.150596483927757 0.2430703936584262 -1 0 0 I I #
point $-1 -60.979989834593368 34.150596483927757 0.2430703936584262 #
point $-1 -60.979989834593368 -34.150596483927757 0.2430703936584262 #
straight-curve $-1 -72.664571062349324 0 3.6848374892557931 0 -1 0 I I #
point $-1 -72.664571062349324 -34.150596483927757 3.6848374892557931 #
point $-1 -72.664571062349324 34.150596483927757 3.6848374892557931 #
straight-curve $-1 -60.979989834593368 34.150596483927757 0.98197697072855483 0 0 1 I I #
coedge $-1 $883 $874 $872 $902 reversed $809 $-1 #
edge $-1 $885 -34.150596483927757 $876 34.150596483927757 $901 $910 forward 7 unknown #
plane-surface $-1 0 0 -9.8554909046088337 0 0 1 1 0 0 forward_v I I I I #
point $-1 -72.664571062349324 34.150596483927757 -9.8554909046088337 #
straight-curve $-1 -72.664571062349324 -34.150596483927757 0 0 0 -1 I I #
point $-1 -72.664571062349324 -34.150596483927757 -9.8554909046088337 #
straight-curve $-1 -72.664571062349324 0 0.2430703936584262 0 1 0 I I #
point $-1 -72.664571062349324 34.150596483927757 0.2430703936584262 #
point $-1 -72.664571062349324 -34.150596483927757 0.2430703936584262 #
straight-curve $-1 -72.664571062349324 0 -9.8554909046088337 0 1 0 I I #
End-of-ACIS-data 