500 0 8 0           
7 Unknown 11 ACIS 5.0 NT 24 Fri Mar 26 15:46:58 1999 
-1 9.9999999999999995e-007 1e-010 
body $-1 $8 $-1 $9 #
body $-1 $10 $-1 $11 #
body $-1 $12 $-1 $13 #
body $-1 $14 $-1 $15 #
body $-1 $16 $-1 $17 #
body $-1 $18 $-1 $19 #
body $-1 $20 $-1 $21 #
body $-1 $22 $-1 $23 #
lump $-1 $-1 $24 $0 #
transform $-1 1 0 0 0 1 0 0 0 1 62.306588946195873 41.381866001140686 14.028815030380294 1 rotate no_reflect no_shear #
lump $-1 $-1 $25 $1 #
transform $-1 1 0 0 0 1 0 0 0 1 62.306588946195873 41.381866001140686 14.028815030380294 1 rotate no_reflect no_shear #
lump $-1 $-1 $26 $2 #
transform $-1 1 0 0 0 1 0 0 0 1 62.306588946195873 41.381866001140686 14.028815030380294 1 rotate no_reflect no_shear #
lump $-1 $-1 $27 $3 #
transform $-1 1 0 0 0 1 0 0 0 1 62.306588946195873 41.381866001140686 14.028815030380294 1 rotate no_reflect no_shear #
lump $-1 $-1 $28 $4 #
transform $-1 1 0 0 0 1 0 0 0 1 62.306588946195873 41.381866001140686 14.028815030380294 1 rotate no_reflect no_shear #
lump $-1 $-1 $29 $5 #
transform $-1 1 0 0 0 1 0 0 0 1 62.306588946195873 41.381866001140686 14.028815030380294 1 rotate no_reflect no_shear #
lump $-1 $-1 $30 $6 #
transform $-1 1 0 0 0 1 0 0 0 1 62.306588946195873 41.381866001140686 14.028815030380294 1 rotate no_reflect no_shear #
lump $-1 $-1 $31 $7 #
transform $-1 1 0 0 0 1 0 0 0 1 62.306588946195873 41.381866001140686 14.028815030380294 1 rotate no_reflect no_shear #
shell $-1 $-1 $-1 $32 $-1 $8 #
shell $-1 $-1 $-1 $33 $-1 $10 #
shell $-1 $-1 $-1 $34 $-1 $12 #
shell $-1 $-1 $-1 $35 $-1 $14 #
shell $-1 $-1 $-1 $36 $-1 $16 #
shell $-1 $-1 $-1 $37 $-1 $18 #
shell $-1 $-1 $-1 $38 $-1 $20 #
shell $-1 $-1 $-1 $39 $-1 $22 #
face $-1 $40 $41 $24 $-1 $42 forward single #
face $-1 $43 $44 $25 $-1 $45 forward single #
face $-1 $46 $47 $26 $-1 $48 reversed single #
face $-1 $49 $50 $27 $-1 $51 forward single #
face $-1 $52 $53 $28 $-1 $54 forward single #
face $-1 $55 $56 $29 $-1 $57 reversed single #
face $-1 $58 $59 $30 $-1 $60 forward single #
face $-1 $61 $62 $31 $-1 $63 forward single #
face $-1 $64 $65 $24 $-1 $66 reversed single #
loop $-1 $-1 $67 $32 #
plane-surface $-1 0 0 14.028815030380294 0 0 1 1 0 0 forward_v I I I I #
face $-1 $68 $69 $25 $-1 $70 reversed single #
loop $-1 $-1 $71 $33 #
plane-surface $-1 -62.306588946195873 0 0 1 0 0 0 0 -1 forward_v I I I I #
face $-1 $72 $73 $26 $-1 $74 reversed single #
loop $-1 $-1 $75 $34 #
plane-surface $-1 -27.140205663274052 -140.90237591065619 78.949267964546408 -1 0 0 0 -0.79863551827123203 0.60181501223851219 forward_v I I I I #
face $-1 $76 $77 $27 $-1 $78 forward single #
loop $-1 $79 $80 $35 #
cone-surface $-1 -43.986166855162431 -34.940939776331042 6.9985380401895592 0 0.79863551827123203 -0.60181501223851219 2 0 0 1 I I 0 1 2 forward I I I I #
face $-1 $81 $82 $28 $-1 $83 forward single #
loop $-1 $84 $85 $36 #
cone-surface $-1 -33.878590140029402 -34.940939776331042 6.9985380401895592 0 0.79863551827123203 -0.60181501223851219 2 0 0 1 I I 0 1 2 forward I I I I #
face $-1 $86 $87 $29 $-1 $88 reversed single #
loop $-1 $-1 $89 $37 #
plane-surface $-1 50.514416111873999 -41.381866001140679 3.9551867861567729 0 -0.79863551827123203 0.60181501223851219 1 0 0 forward_v I I I I #
face $-1 $90 $91 $30 $-1 $92 forward single #
loop $-1 $93 $94 $38 #
cone-surface $-1 45.460627754307481 -34.940939776331042 6.9985380401895592 0 0.79863551827123203 -0.60181501223851219 2 0 0 1 I I 0 1 2 forward I I I I #
face $-1 $95 $96 $31 $-1 $97 forward single #
loop $-1 $98 $99 $39 #
cone-surface $-1 55.568204469440516 -34.940939776331042 6.9985380401895592 0 0.79863551827123203 -0.60181501223851219 2 0 0 1 I I 0 1 2 forward I I I I #
face $-1 $100 $101 $24 $-1 $102 reversed single #
loop $-1 $-1 $103 $40 #
plane-surface $-1 0 0 -14.028815030380294 0 0 1 1 0 0 forward_v I I I I #
coedge $-1 $104 $105 $106 $107 forward $41 $-1 #
face $-1 $108 $109 $25 $-1 $110 reversed single #
loop $-1 $-1 $111 $43 #
plane-surface $-1 0 0 -14.028815030380294 0 0 1 1 0 0 forward_v I I I I #
coedge $-1 $112 $113 $114 $115 forward $44 $-1 #
face $-1 $116 $117 $26 $-1 $118 reversed single #
loop $-1 $-1 $119 $46 #
plane-surface $-1 -38.93237849759592 -41.381866001140679 3.9551867861567729 0 -0.79863551827123203 0.60181501223851219 1 0 0 forward_v I I I I #
coedge $-1 $120 $121 $122 $123 reversed $47 $-1 #
face $-1 $-1 $124 $27 $-1 $125 forward single #
loop $-1 $126 $127 $49 #
cone-surface $-1 -43.986166855162431 -31.496889606668994 4.403260159872076 0 0.79863551827123203 -0.60181501223851219 1 0 0 1 I I -0.70710678118654746 0.70710678118654746 1 forward I I I I #
loop $-1 $-1 $128 $35 #
coedge $-1 $80 $80 $129 $130 reversed $50 $-1 #
face $-1 $-1 $131 $28 $-1 $132 forward single #
loop $-1 $133 $134 $52 #
cone-surface $-1 -33.878590140029402 -31.496889606668994 4.403260159872076 0 0.79863551827123203 -0.60181501223851219 1 0 0 1 I I -0.70710678118654746 0.70710678118654746 1 forward I I I I #
loop $-1 $-1 $135 $36 #
coedge $-1 $85 $85 $136 $137 reversed $53 $-1 #
face $-1 $138 $139 $29 $-1 $140 reversed single #
loop $-1 $-1 $141 $55 #
plane-surface $-1 38.722243277552131 -140.90237591065619 78.949267964546408 1 0 0 0 0.79863551827123203 -0.60181501223851219 forward_v I I I I #
coedge $-1 $142 $143 $144 $145 reversed $56 $-1 #
face $-1 $-1 $146 $30 $-1 $147 forward single #
loop $-1 $148 $149 $58 #
cone-surface $-1 45.460627754307481 -31.496889606668994 4.403260159872076 0 0.79863551827123203 -0.60181501223851219 1 0 0 1 I I -0.70710678118654746 0.70710678118654746 1 forward I I I I #
loop $-1 $-1 $150 $38 #
coedge $-1 $94 $94 $151 $152 reversed $59 $-1 #
face $-1 $-1 $153 $31 $-1 $154 forward single #
loop $-1 $155 $156 $61 #
cone-surface $-1 55.568204469440516 -31.496889606668994 4.403260159872076 0 0.79863551827123203 -0.60181501223851219 1 0 0 1 I I -0.70710678118654746 0.70710678118654746 1 forward I I I I #
loop $-1 $-1 $157 $39 #
coedge $-1 $99 $99 $158 $159 reversed $62 $-1 #
face $-1 $160 $161 $24 $-1 $162 reversed single #
loop $-1 $-1 $163 $64 #
plane-surface $-1 0 -41.381866001140686 0 0 1 0 0 0 1 forward_v I I I I #
coedge $-1 $164 $165 $166 $167 forward $65 $-1 #
coedge $-1 $168 $67 $169 $170 forward $41 $-1 #
coedge $-1 $67 $168 $171 $172 forward $41 $-1 #
coedge $-1 $173 $174 $67 $107 reversed $175 $-1 #
edge $-1 $176 -41.381866001140686 $177 41.381866001140686 $106 $178 forward 7 unknown #
face $-1 $179 $180 $25 $-1 $181 reversed single #
loop $-1 $-1 $182 $68 #
plane-surface $-1 -68.097607753334913 -16.580058163349243 0 0 1 0 0 0 1 forward_v I I I I #
coedge $-1 $183 $184 $113 $185 forward $69 $-1 #
coedge $-1 $186 $71 $187 $188 reversed $44 $-1 #
coedge $-1 $71 $186 $111 $185 reversed $44 $-1 #
coedge $-1 $189 $190 $71 $115 reversed $191 $-1 #
edge $-1 $192 -14.028815030380294 $193 14.028815030380294 $114 $194 forward 7 unknown #
face $-1 $195 $196 $26 $-1 $197 forward single #
loop $-1 $-1 $198 $72 #
plane-surface $-1 -50.724551331917787 -140.90237591065619 78.949267964546408 1 0 0 0 0.79863551827123203 -0.60181501223851219 forward_v I I I I #
coedge $-1 $199 $200 $201 $202 reversed $73 $-1 #
coedge $-1 $121 $75 $203 $204 reversed $47 $-1 #
coedge $-1 $75 $120 $199 $205 reversed $47 $-1 #
coedge $-1 $201 $206 $75 $123 forward $196 $-1 #
edge $-1 $207 29.069321954187409 $208 36.660345101025058 $122 $209 forward 7 unknown #
loop $-1 $-1 $129 $76 #
plane-surface $-1 -38.93237849759592 -41.381866001140679 3.9551867861567729 0 -0.79863551827123203 0.60181501223851219 1 0 0 forward_v I I I I #
loop $-1 $-1 $210 $49 #
coedge $-1 $127 $127 $128 $211 reversed $77 $-1 #
coedge $-1 $128 $128 $127 $211 forward $79 $-1 #
coedge $-1 $129 $129 $80 $130 forward $124 $-1 #
edge $-1 $212 -2.1380764260872531e-015 $212 6.2831853071795987 $129 $213 forward 7 unknown #
loop $-1 $-1 $136 $81 #
plane-surface $-1 -38.93237849759592 -41.381866001140679 3.9551867861567729 0 -0.79863551827123203 0.60181501223851219 1 0 0 forward_v I I I I #
loop $-1 $-1 $214 $52 #
coedge $-1 $134 $134 $135 $215 reversed $82 $-1 #
coedge $-1 $135 $135 $134 $215 forward $84 $-1 #
coedge $-1 $136 $136 $85 $137 forward $131 $-1 #
edge $-1 $216 -2.1380764260872531e-015 $216 6.2831853071795987 $136 $217 forward 7 unknown #
face $-1 $218 $219 $29 $-1 $220 forward single #
loop $-1 $-1 $221 $86 #
plane-surface $-1 0 -41.381866001140686 0 0 1 0 0 0 1 forward_v I I I I #
coedge $-1 $222 $223 $224 $225 reversed $87 $-1 #
coedge $-1 $226 $89 $227 $228 reversed $56 $-1 #
coedge $-1 $89 $226 $222 $229 forward $56 $-1 #
coedge $-1 $224 $230 $89 $145 forward $219 $-1 #
edge $-1 $231 -37.049380890258867 $232 -13.465035221615132 $144 $233 forward 7 unknown #
loop $-1 $-1 $151 $90 #
plane-surface $-1 50.514416111873999 -41.381866001140679 3.9551867861567729 0 -0.79863551827123203 0.60181501223851219 1 0 0 forward_v I I I I #
loop $-1 $-1 $234 $58 #
coedge $-1 $149 $149 $150 $235 reversed $91 $-1 #
coedge $-1 $150 $150 $149 $235 forward $93 $-1 #
coedge $-1 $151 $151 $94 $152 forward $146 $-1 #
edge $-1 $236 -2.1380764260872531e-015 $236 6.2831853071795987 $151 $237 forward 7 unknown #
loop $-1 $-1 $158 $95 #
plane-surface $-1 50.514416111873999 -41.381866001140679 3.9551867861567729 0 -0.79863551827123203 0.60181501223851219 1 0 0 forward_v I I I I #
loop $-1 $-1 $238 $61 #
coedge $-1 $156 $156 $157 $239 reversed $96 $-1 #
coedge $-1 $157 $157 $156 $239 forward $98 $-1 #
coedge $-1 $158 $158 $99 $159 forward $153 $-1 #
edge $-1 $240 -2.1380764260872531e-015 $240 6.2831853071795987 $158 $241 forward 7 unknown #
face $-1 $242 $243 $24 $-1 $244 reversed single #
loop $-1 $-1 $245 $100 #
plane-surface $-1 -62.306588946195873 0 0 1 0 0 0 0 -1 forward_v I I I I #
coedge $-1 $246 $171 $247 $248 forward $101 $-1 #
coedge $-1 $249 $103 $246 $250 forward $65 $-1 #
coedge $-1 $103 $249 $251 $252 forward $65 $-1 #
coedge $-1 $174 $173 $103 $167 reversed $175 $-1 #
edge $-1 $253 -41.381866001140686 $254 41.381866001140686 $166 $255 forward 7 unknown #
coedge $-1 $105 $104 $256 $257 forward $41 $-1 #
coedge $-1 $258 $259 $104 $170 reversed $243 $-1 #
edge $-1 $177 -62.306588946195873 $260 62.306588946195873 $169 $261 forward 7 unknown #
coedge $-1 $163 $262 $105 $172 reversed $101 $-1 #
edge $-1 $263 -62.306588946195873 $176 62.306588946195873 $171 $264 forward 7 unknown #
coedge $-1 $166 $106 $262 $265 forward $175 $-1 #
coedge $-1 $106 $166 $258 $266 reversed $175 $-1 #
loop $-1 $-1 $173 $242 #
vertex $-1 $107 $267 #
vertex $-1 $107 $268 #
straight-curve $-1 62.306588946195873 0 14.028815030380294 0 1 0 I I #
face $-1 $269 $191 $25 $-1 $270 reversed single #
loop $-1 $-1 $271 $108 #
plane-surface $-1 -73.888626560473952 -14.952147051864671 0 1 0 0 0 0 -1 forward_v I I I I #
coedge $-1 $272 $273 $274 $275 forward $109 $-1 #
coedge $-1 $276 $111 $272 $277 forward $69 $-1 #
coedge $-1 $111 $276 $189 $278 forward $69 $-1 #
edge $-1 $192 13.324235940380099 $279 16.580058163349243 $111 $280 forward 7 unknown #
coedge $-1 $113 $112 $281 $282 forward $44 $-1 #
coedge $-1 $283 $284 $112 $188 forward $285 $-1 #
edge $-1 $286 -16.580058163349243 $193 -13.324235940380099 $187 $287 forward 7 unknown #
coedge $-1 $288 $114 $184 $278 reversed $191 $-1 #
coedge $-1 $114 $288 $283 $289 reversed $191 $-1 #
loop $-1 $-1 $114 $179 #
vertex $-1 $185 $290 #
vertex $-1 $289 $291 #
straight-curve $-1 -62.306588946195873 -13.324235940380099 0 0 0 1 I I #
face $-1 $-1 $292 $26 $-1 $293 reversed single #
loop $-1 $-1 $122 $116 #
plane-surface $-1 0 0 14.028815030380294 0 0 1 1 0 0 forward_v I I I I #
coedge $-1 $294 $295 $296 $297 reversed $117 $-1 #
coedge $-1 $298 $119 $121 $205 forward $73 $-1 #
coedge $-1 $119 $298 $294 $299 forward $73 $-1 #
coedge $-1 $296 $122 $119 $202 forward $196 $-1 #
edge $-1 $208 7.6740164144760925 $300 31.258362083119827 $201 $301 forward 7 unknown #
coedge $-1 $302 $303 $120 $204 forward $292 $-1 #
edge $-1 $304 -35.519447196116438 $207 -25.44581895189291 $203 $305 forward 7 unknown #
edge $-1 $208 -12.613549001714098 $304 1.1724126593787106e-014 $121 $306 forward 7 unknown #
coedge $-1 $122 $296 $302 $307 forward $196 $-1 #
vertex $-1 $123 $308 #
vertex $-1 $123 $309 #
straight-curve $-1 -27.140205663274052 -70.451187955328095 14.028815030380294 0 1 0 I I #
coedge $-1 $210 $210 $-1 $310 reversed $126 $-1 #
edge $-1 $311 0 $311 6.2831853071796004 $127 $312 forward 7 unknown #
vertex $-1 $130 $313 #
ellipse-curve $-1 -43.986166855162431 -37.586354427721858 8.9920009082685297 0 -0.79863551827123203 0.60181501223851219 2 0 0 1 I I #
coedge $-1 $214 $214 $-1 $314 reversed $133 $-1 #
edge $-1 $315 0 $315 6.2831853071796004 $134 $316 forward 7 unknown #
vertex $-1 $137 $317 #
ellipse-curve $-1 -33.878590140029402 -37.586354427721858 8.9920009082685297 0 -0.79863551827123203 0.60181501223851219 2 0 0 1 I I #
face $-1 $-1 $318 $29 $-1 $319 reversed single #
loop $-1 $-1 $224 $138 #
plane-surface $-1 0 0 14.028815030380294 0 0 1 1 0 0 forward_v I I I I #
coedge $-1 $320 $321 $223 $322 forward $139 $-1 #
coedge $-1 $223 $141 $143 $229 reversed $87 $-1 #
coedge $-1 $141 $222 $221 $322 reversed $87 $-1 #
coedge $-1 $323 $144 $141 $225 forward $219 $-1 #
edge $-1 $232 -36.660345101025058 $324 -29.069321954187409 $224 $325 forward 7 unknown #
coedge $-1 $143 $142 $320 $326 reversed $56 $-1 #
coedge $-1 $327 $328 $142 $228 forward $318 $-1 #
edge $-1 $329 -10.872737772553563 $231 1.740811229160546 $227 $330 forward 7 unknown #
edge $-1 $331 -1.1724126593787106e-014 $232 12.613549001714098 $222 $332 forward 7 unknown #
coedge $-1 $144 $323 $327 $333 forward $219 $-1 #
vertex $-1 $228 $334 #
vertex $-1 $145 $335 #
straight-curve $-1 25.257208055936999 -33.790842854303037 14.028815030380294 -1 0 0 I I #
coedge $-1 $234 $234 $-1 $336 reversed $148 $-1 #
edge $-1 $337 0 $337 6.2831853071796004 $149 $338 forward 7 unknown #
vertex $-1 $152 $339 #
ellipse-curve $-1 45.460627754307481 -37.586354427721858 8.9920009082685297 0 -0.79863551827123203 0.60181501223851219 2 0 0 1 I I #
coedge $-1 $238 $238 $-1 $340 reversed $155 $-1 #
edge $-1 $341 0 $341 6.2831853071796004 $156 $342 forward 7 unknown #
vertex $-1 $159 $343 #
ellipse-curve $-1 55.568204469440516 -37.586354427721858 8.9920009082685297 0 -0.79863551827123203 0.60181501223851219 2 0 0 1 I I #
face $-1 $-1 $175 $24 $-1 $344 reversed single #
loop $-1 $-1 $258 $160 #
plane-surface $-1 0 41.381866001140686 0 0 -1 0 0 0 -1 forward_v I I I I #
coedge $-1 $345 $256 $259 $346 forward $161 $-1 #
coedge $-1 $262 $163 $164 $250 reversed $101 $-1 #
coedge $-1 $256 $345 $163 $248 reversed $161 $-1 #
edge $-1 $263 -14.028815030380294 $347 14.028815030380294 $247 $348 forward 7 unknown #
coedge $-1 $165 $164 $345 $349 forward $65 $-1 #
edge $-1 $254 -62.306588946195873 $347 62.306588946195873 $246 $350 forward 7 unknown #
coedge $-1 $259 $258 $165 $252 reversed $243 $-1 #
edge $-1 $351 -62.306588946195873 $253 62.306588946195873 $251 $352 forward 7 unknown #
vertex $-1 $167 $353 #
vertex $-1 $265 $354 #
straight-curve $-1 62.306588946195873 0 -14.028815030380294 0 -1 0 I I #
coedge $-1 $245 $247 $168 $257 reversed $161 $-1 #
edge $-1 $260 -41.381866001140686 $263 41.381866001140686 $256 $355 forward 7 unknown #
coedge $-1 $251 $169 $174 $266 forward $243 $-1 #
coedge $-1 $169 $251 $245 $346 reversed $243 $-1 #
vertex $-1 $170 $356 #
straight-curve $-1 0 41.381866001140686 14.028815030380294 -1 0 0 I I #
coedge $-1 $171 $246 $173 $265 reversed $101 $-1 #
vertex $-1 $257 $357 #
straight-curve $-1 0 -41.381866001140686 14.028815030380294 1 0 0 I I #
edge $-1 $176 -14.028815030380294 $254 14.028815030380294 $173 $358 forward 7 unknown #
edge $-1 $177 -14.028815030380294 $253 14.028815030380294 $174 $359 forward 7 unknown #
point $-1 62.306588946195873 -41.381866001140686 14.028815030380294 #
point $-1 62.306588946195873 41.381866001140686 14.028815030380294 #
face $-1 $-1 $285 $25 $-1 $360 forward single #
plane-surface $-1 -68.097607753334913 -13.324235940380099 0 0 -1 0 0 0 -1 forward_v I I I I #
coedge $-1 $361 $362 $288 $363 forward $180 $-1 #
coedge $-1 $281 $182 $183 $277 reversed $109 $-1 #
coedge $-1 $182 $281 $284 $364 reversed $109 $-1 #
coedge $-1 $362 $361 $182 $275 reversed $180 $-1 #
edge $-1 $365 -14.028815030380294 $366 14.028815030380294 $274 $367 forward 7 unknown #
coedge $-1 $184 $183 $361 $368 forward $69 $-1 #
edge $-1 $279 -5.7910188071390465 $366 5.7910188071390394 $272 $369 forward 7 unknown #
edge $-1 $370 -5.7910188071390394 $192 5.7910188071390465 $189 $371 forward 7 unknown #
vertex $-1 $277 $372 #
straight-curve $-1 -62.306588946195873 0 -14.028815030380294 0 -1 0 I I #
coedge $-1 $273 $272 $186 $282 reversed $109 $-1 #
edge $-1 $286 -14.028815030380294 $279 14.028815030380294 $281 $373 forward 7 unknown #
coedge $-1 $374 $187 $190 $289 forward $285 $-1 #
coedge $-1 $187 $374 $273 $364 forward $285 $-1 #
loop $-1 $-1 $187 $269 #
vertex $-1 $188 $375 #
straight-curve $-1 -62.306588946195873 0 14.028815030380294 0 1 0 I I #
coedge $-1 $190 $189 $271 $363 reversed $191 $-1 #
edge $-1 $193 -5.7910188071390465 $376 5.7910188071390394 $190 $377 forward 7 unknown #
point $-1 -62.306588946195866 -13.324235940380099 -14.028815030380294 #
point $-1 -62.306588946195866 -13.324235940380099 14.028815030380294 #
loop $-1 $-1 $203 $195 #
plane-surface $-1 0 -41.381866001140686 0 0 1 0 0 0 1 forward_v I I I I #
coedge $-1 $295 $198 $200 $299 reversed $117 $-1 #
coedge $-1 $198 $294 $378 $379 reversed $117 $-1 #
coedge $-1 $206 $201 $198 $297 forward $196 $-1 #
edge $-1 $300 -36.660345101025058 $380 -29.069321954187409 $296 $381 forward 7 unknown #
coedge $-1 $200 $199 $303 $382 reversed $73 $-1 #
edge $-1 $383 -1.1724126593787106e-014 $300 12.613549001714098 $294 $384 forward 7 unknown #
vertex $-1 $202 $385 #
straight-curve $-1 -19.46618924879796 -33.790842854303037 14.028815030380294 -1 0 0 I I #
coedge $-1 $378 $203 $206 $307 reversed $292 $-1 #
coedge $-1 $203 $378 $298 $382 forward $292 $-1 #
vertex $-1 $204 $386 #
straight-curve $-1 -27.140205663274052 -41.381866001140686 39.474633982273204 0 0 1 I I #
straight-curve $-1 -27.140205663274052 -41.381866001140679 3.9551867861567729 0 -0.60181501223851219 -0.79863551827123203 I I #
edge $-1 $380 -50.724551331917787 $207 -27.140205663274052 $302 $387 forward 7 unknown #
point $-1 -27.140205663274052 -41.381866001140686 14.028815030380294 #
point $-1 -27.140205663274052 -33.790842854303037 14.028815030380294 #
edge $-1 $388 1 $388 0 $210 $-1 forward 7 unknown #
vertex $-1 $211 $389 #
ellipse-curve $-1 -43.986166855162431 -32.295525124940227 5.0050751721105886 0 -0.79863551827123203 0.60181501223851219 2 0 0 1 I I #
point $-1 -41.986166855162431 -37.586354427721865 8.9920009082685297 #
edge $-1 $390 1 $390 0 $214 $-1 forward 7 unknown #
vertex $-1 $215 $391 #
ellipse-curve $-1 -33.878590140029402 -32.295525124940227 5.0050751721105886 0 -0.79863551827123203 0.60181501223851219 2 0 0 1 I I #
point $-1 -31.878590140029402 -37.586354427721865 8.9920009082685297 #
loop $-1 $-1 $227 $218 #
plane-surface $-1 62.306588946195873 0 0 -1 0 0 0 0 1 forward_v I I I I #
coedge $-1 $392 $221 $226 $326 forward $139 $-1 #
coedge $-1 $221 $392 $323 $393 reversed $139 $-1 #
edge $-1 $324 25.44581895189291 $331 35.519447196116438 $221 $394 forward 7 unknown #
coedge $-1 $230 $224 $321 $393 forward $219 $-1 #
vertex $-1 $393 $395 #
straight-curve $-1 38.722243277552131 -70.451187955328095 14.028815030380294 0 -1 0 I I #
edge $-1 $331 13.465035221615132 $329 37.049380890258867 $320 $396 forward 7 unknown #
coedge $-1 $328 $227 $230 $333 reversed $318 $-1 #
coedge $-1 $227 $327 $392 $397 forward $318 $-1 #
vertex $-1 $326 $398 #
straight-curve $-1 62.306588946195873 -34.83848918548523 12.63854135216728 0 0.60181501223851219 0.79863551827123203 I I #
vertex $-1 $326 $399 #
straight-curve $-1 38.722243277552131 -41.381866001140679 3.9551867861567729 0 0.60181501223851219 0.79863551827123203 I I #
edge $-1 $400 -41.381866001140686 $231 -33.790842854303037 $327 $401 forward 7 unknown #
point $-1 62.306588946195866 -33.790842854303037 14.028815030380294 #
point $-1 38.722243277552131 -33.790842854303037 14.028815030380294 #
edge $-1 $402 1 $402 0 $234 $-1 forward 7 unknown #
vertex $-1 $235 $403 #
ellipse-curve $-1 45.460627754307481 -32.295525124940227 5.0050751721105886 0 -0.79863551827123203 0.60181501223851219 2 0 0 1 I I #
point $-1 47.460627754307481 -37.586354427721865 8.9920009082685297 #
edge $-1 $404 1 $404 0 $238 $-1 forward 7 unknown #
vertex $-1 $239 $405 #
ellipse-curve $-1 55.568204469440516 -32.295525124940227 5.0050751721105886 0 -0.79863551827123203 0.60181501223851219 2 0 0 1 I I #
point $-1 57.568204469440516 -37.586354427721865 8.9920009082685297 #
plane-surface $-1 62.306588946195873 0 0 -1 0 0 0 0 1 forward_v I I I I #
coedge $-1 $247 $245 $249 $349 reversed $161 $-1 #
edge $-1 $260 -14.028815030380294 $351 14.028815030380294 $259 $406 forward 7 unknown #
vertex $-1 $349 $407 #
straight-curve $-1 -62.306588946195873 -41.381866001140686 0 0 0 -1 I I #
edge $-1 $347 -41.381866001140686 $351 41.381866001140686 $345 $408 forward 7 unknown #
straight-curve $-1 0 -41.381866001140686 -14.028815030380294 -1 0 0 I I #
vertex $-1 $252 $409 #
straight-curve $-1 0 41.381866001140686 -14.028815030380294 1 0 0 I I #
point $-1 62.306588946195873 41.381866001140686 -14.028815030380294 #
point $-1 62.306588946195873 -41.381866001140686 -14.028815030380294 #
straight-curve $-1 -62.306588946195873 0 14.028815030380294 0 -1 0 I I #
point $-1 -62.306588946195873 41.381866001140686 14.028815030380294 #
point $-1 -62.306588946195873 -41.381866001140686 14.028815030380294 #
straight-curve $-1 62.306588946195873 -41.381866001140686 0 0 0 -1 I I #
straight-curve $-1 62.306588946195873 41.381866001140686 0 0 0 -1 I I #
plane-surface $-1 0 0 14.028815030380294 0 0 1 1 0 0 forward_v I I I I #
coedge $-1 $274 $271 $276 $368 reversed $180 $-1 #
coedge $-1 $271 $274 $374 $410 reversed $180 $-1 #
edge $-1 $376 -14.028815030380294 $370 14.028815030380294 $288 $411 forward 7 unknown #
edge $-1 $365 -5.7910188071390394 $286 5.7910188071390465 $273 $412 forward 7 unknown #
vertex $-1 $410 $413 #
vertex $-1 $368 $414 #
straight-curve $-1 -73.888626560473952 -16.580058163349243 0 0 0 -1 I I #
edge $-1 $366 -1.6279111114845719 $370 1.6279111114845719 $361 $415 forward 7 unknown #
straight-curve $-1 -68.097607753334913 -16.580058163349243 -14.028815030380294 -1 0 0 I I #
vertex $-1 $278 $416 #
straight-curve $-1 -68.097607753334913 -13.324235940380099 -14.028815030380294 1 0 0 I I #
point $-1 -62.306588946195866 -16.580058163349243 -14.028815030380294 #
straight-curve $-1 -62.306588946195873 -16.580058163349243 0 0 0 -1 I I #
coedge $-1 $284 $283 $362 $410 forward $285 $-1 #
point $-1 -62.306588946195866 -16.580058163349243 14.028815030380294 #
vertex $-1 $289 $417 #
straight-curve $-1 -68.097607753334913 -13.324235940380099 14.028815030380294 -1 0 0 I I #
coedge $-1 $303 $302 $295 $379 forward $292 $-1 #
edge $-1 $380 25.44581895189291 $383 35.519447196116438 $378 $418 forward 7 unknown #
vertex $-1 $307 $419 #
straight-curve $-1 -50.724551331917787 -70.451187955328095 14.028815030380294 0 -1 0 I I #
edge $-1 $383 -31.258362083119827 $304 -7.6740164144760925 $303 $420 forward 7 unknown #
vertex $-1 $382 $421 #
straight-curve $-1 -50.724551331917787 -41.381866001140679 3.9551867861567729 0 0.60181501223851219 0.79863551827123203 I I #
point $-1 -50.724551331917787 -33.790842854303037 14.028815030380294 #
point $-1 -27.140205663274052 -41.381866001140686 3.9551867861567636 #
straight-curve $-1 0 -41.381866001140686 14.028815030380294 1 0 0 I I #
vertex $-1 $310 $422 #
point $-1 -41.986166855162431 -32.295525124940227 5.0050751721105886 #
vertex $-1 $314 $423 #
point $-1 -31.878590140029402 -32.295525124940227 5.0050751721105886 #
coedge $-1 $321 $320 $328 $397 reversed $139 $-1 #
edge $-1 $324 38.722243277552131 $400 62.306588946195873 $321 $424 forward 7 unknown #
straight-curve $-1 38.722243277552131 -41.381866001140686 39.474633982273204 0 0 -1 I I #
point $-1 38.722243277552131 -41.381866001140686 14.028815030380294 #
straight-curve $-1 25.257208055936999 -41.381866001140686 3.9551867861567631 1 0 0 I I #
edge $-1 $400 -14.028815030380294 $329 -3.9551867861567636 $328 $425 forward 7 unknown #
point $-1 62.306588946195866 -41.381866001140686 3.9551867861567636 #
point $-1 38.722243277552131 -41.381866001140686 3.9551867861567636 #
vertex $-1 $333 $426 #
straight-curve $-1 62.306588946195873 0 14.028815030380294 0 1 0 I I #
vertex $-1 $336 $427 #
point $-1 47.460627754307481 -32.295525124940227 5.0050751721105886 #
vertex $-1 $340 $428 #
point $-1 57.568204469440516 -32.295525124940227 5.0050751721105886 #
straight-curve $-1 -62.306588946195873 41.381866001140686 0 0 0 -1 I I #
point $-1 -62.306588946195873 -41.381866001140686 -14.028815030380294 #
straight-curve $-1 -62.306588946195873 0 -14.028815030380294 0 1 0 I I #
point $-1 -62.306588946195873 41.381866001140686 -14.028815030380294 #
edge $-1 $376 -1.6279111114845719 $365 1.6279111114845719 $362 $429 forward 7 unknown #
straight-curve $-1 -73.888626560473952 -13.324235940380099 0 0 0 -1 I I #
straight-curve $-1 -68.097607753334913 -16.580058163349243 14.028815030380294 1 0 0 I I #
point $-1 -73.888626560473952 -16.580058163349243 14.028815030380294 #
point $-1 -73.888626560473952 -16.580058163349243 -14.028815030380294 #
straight-curve $-1 -73.888626560473952 -14.952147051864671 -14.028815030380294 0 1 0 I I #
point $-1 -73.888626560473952 -13.324235940380099 -14.028815030380294 #
point $-1 -73.888626560473952 -13.324235940380099 14.028815030380294 #
straight-curve $-1 -50.724551331917787 -41.381866001140686 39.474633982273204 0 0 -1 I I #
point $-1 -50.724551331917787 -41.381866001140686 14.028815030380294 #
straight-curve $-1 -19.46618924879796 -41.381866001140686 3.9551867861567631 1 0 0 I I #
point $-1 -50.724551331917787 -41.381866001140686 3.9551867861567636 #
point $-1 -43.986166855162431 -30.698254088397761 3.8014451476335638 #
point $-1 -33.878590140029402 -30.698254088397761 3.8014451476335638 #
straight-curve $-1 0 -41.381866001140686 14.028815030380294 1 0 0 I I #
straight-curve $-1 62.306588946195873 -41.381866001140686 0 0 0 -1 I I #
point $-1 62.306588946195873 -41.381866001140686 14.028815030380294 #
point $-1 45.460627754307481 -30.698254088397761 3.8014451476335638 #
point $-1 55.568204469440516 -30.698254088397761 3.8014451476335638 #
straight-curve $-1 -73.888626560473952 -14.952147051864671 14.028815030380294 0 -1 0 I I #
End-of-ACIS-data 