500 0 4 0           
7 Unknown 11 ACIS 5.0 NT 24 Fri Mar 26 20:46:39 1999 
-1 9.9999999999999995e-007 1e-010 
body $-1 $4 $-1 $5 #
body $-1 $6 $-1 $7 #
body $-1 $8 $-1 $9 #
body $-1 $10 $-1 $11 #
lump $-1 $-1 $12 $0 #
transform $-1 1 0 0 0 1 0 0 0 1 75.45030060731834 37.767748971869118 17.288078457871176 1 rotate no_reflect no_shear #
lump $-1 $-1 $13 $1 #
transform $-1 1 0 0 0 1 0 0 0 1 75.45030060731834 37.767748971869118 17.288078457871176 1 rotate no_reflect no_shear #
lump $-1 $-1 $14 $2 #
transform $-1 1 0 0 0 1 0 0 0 1 75.45030060731834 37.767748971869118 17.288078457871176 1 rotate no_reflect no_shear #
lump $-1 $-1 $15 $3 #
transform $-1 1 0 0 0 1 0 0 0 1 75.45030060731834 37.767748971869118 17.288078457871176 1 rotate no_reflect no_shear #
shell $-1 $-1 $-1 $16 $-1 $4 #
shell $-1 $-1 $-1 $17 $-1 $6 #
shell $-1 $-1 $-1 $18 $-1 $8 #
shell $-1 $-1 $-1 $19 $-1 $10 #
face $-1 $20 $21 $12 $-1 $22 forward single #
face $-1 $23 $24 $13 $-1 $25 reversed single #
face $-1 $26 $27 $14 $-1 $28 reversed single #
face $-1 $29 $30 $15 $-1 $31 forward single #
face $-1 $32 $33 $12 $-1 $34 reversed single #
loop $-1 $-1 $35 $16 #
plane-surface $-1 0 0 17.288078457871176 0 0 1 1 0 0 forward_v I I I I #
face $-1 $36 $37 $13 $-1 $38 reversed single #
loop $-1 $-1 $39 $17 #
plane-surface $-1 -73.553713930707431 -21.614161422070758 0 0 -1 0 0 0 -1 forward_v I I I I #
face $-1 $40 $41 $14 $-1 $42 reversed single #
loop $-1 $-1 $43 $18 #
plane-surface $-1 53.143335292140122 23.172644324168019 217.51414193782168 0 1 0 0.62932039886446345 0 0.77714595512881146 forward_v I I I I #
face $-1 $44 $45 $15 $-1 $46 forward single #
loop $-1 $47 $48 $19 #
cone-surface $-1 65.878958644477962 30.470196648018565 8.6210517883890354 -0.62932039886446345 0 -0.77714595512881146 1.5542919102576229 0 -1.2586407977289269 1 I I 0 1 2 forward I I I I #
face $-1 $49 $50 $12 $-1 $51 reversed single #
loop $-1 $-1 $52 $20 #
plane-surface $-1 0 0 -17.288078457871176 0 0 1 1 0 0 forward_v I I I I #
coedge $-1 $53 $54 $55 $56 forward $21 $-1 #
face $-1 $57 $58 $13 $-1 $59 forward single #
loop $-1 $-1 $60 $23 #
plane-surface $-1 -71.657127254096523 -29.690955196969938 0 -1 0 0 0 0 1 forward_v I I I I #
coedge $-1 $61 $62 $63 $64 forward $24 $-1 #
face $-1 $65 $66 $14 $-1 $67 reversed single #
loop $-1 $-1 $68 $26 #
plane-surface $-1 -41.821491253142369 30.470196648018565 100.24235007736097 0.62932039886446345 0 0.77714595512881146 0.77714595512881146 0 -0.62932039886446345 forward_v I I I I #
coedge $-1 $69 $70 $71 $72 reversed $27 $-1 #
face $-1 $-1 $73 $15 $-1 $74 forward single #
loop $-1 $75 $76 $29 #
cone-surface $-1 63.094196193434144 30.470196648018565 5.1821566266744448 -0.62932039886446345 0 -0.77714595512881146 0.77714595512881146 0 -0.62932039886446345 1 I I -0.70710678118654746 0.70710678118654746 1 forward I I I I #
loop $-1 $-1 $77 $19 #
coedge $-1 $48 $48 $78 $79 reversed $30 $-1 #
face $-1 $80 $81 $12 $-1 $82 reversed single #
loop $-1 $-1 $83 $32 #
plane-surface $-1 0 -37.767748971869118 0 0 1 0 0 0 1 forward_v I I I I #
coedge $-1 $84 $85 $86 $87 forward $33 $-1 #
coedge $-1 $88 $35 $89 $90 forward $21 $-1 #
coedge $-1 $35 $88 $91 $92 forward $21 $-1 #
coedge $-1 $93 $94 $35 $56 reversed $95 $-1 #
edge $-1 $96 -37.767748971869118 $97 37.767748971869118 $55 $98 forward 7 unknown #
face $-1 $99 $100 $13 $-1 $101 reversed single #
loop $-1 $-1 $102 $36 #
plane-surface $-1 0 0 17.288078457871176 0 0 1 1 0 0 forward_v I I I I #
coedge $-1 $103 $104 $105 $106 reversed $37 $-1 #
coedge $-1 $107 $39 $108 $109 reversed $24 $-1 #
coedge $-1 $39 $107 $110 $111 reversed $24 $-1 #
coedge $-1 $104 $103 $39 $64 reversed $37 $-1 #
edge $-1 $112 -17.288078457871176 $113 17.288078457871176 $63 $114 forward 7 unknown #
face $-1 $115 $116 $14 $-1 $117 reversed single #
loop $-1 $-1 $71 $40 #
plane-surface $-1 75.45030060731834 0 0 -1 0 0 0 0 1 forward_v I I I I #
coedge $-1 $118 $119 $120 $121 reversed $41 $-1 #
coedge $-1 $70 $43 $122 $123 reversed $27 $-1 #
coedge $-1 $43 $69 $118 $124 reversed $27 $-1 #
coedge $-1 $120 $125 $43 $72 forward $66 $-1 #
edge $-1 $126 91.468992511039659 $127 103.47954743683236 $71 $128 forward 7 unknown #
loop $-1 $-1 $78 $44 #
plane-surface $-1 -41.821491253142369 30.470196648018565 100.24235007736097 0.62932039886446345 0 0.77714595512881146 0.77714595512881146 0 -0.62932039886446345 forward_v I I I I #
loop $-1 $-1 $129 $29 #
coedge $-1 $76 $76 $77 $130 reversed $45 $-1 #
coedge $-1 $77 $77 $76 $130 forward $47 $-1 #
coedge $-1 $78 $78 $48 $79 forward $73 $-1 #
edge $-1 $131 0 $131 6.2831853071796004 $78 $132 forward 7 unknown #
face $-1 $133 $134 $12 $-1 $135 reversed single #
loop $-1 $-1 $136 $49 #
plane-surface $-1 -75.45030060731834 0 0 1 0 0 0 0 -1 forward_v I I I I #
coedge $-1 $137 $91 $138 $139 forward $50 $-1 #
coedge $-1 $140 $52 $137 $141 forward $33 $-1 #
coedge $-1 $52 $140 $142 $143 forward $33 $-1 #
coedge $-1 $94 $93 $52 $87 reversed $95 $-1 #
edge $-1 $144 -37.767748971869118 $145 37.767748971869118 $86 $146 forward 7 unknown #
coedge $-1 $54 $53 $147 $148 forward $21 $-1 #
coedge $-1 $149 $150 $53 $90 reversed $134 $-1 #
edge $-1 $97 -75.45030060731834 $151 75.45030060731834 $89 $152 forward 7 unknown #
coedge $-1 $83 $153 $54 $92 reversed $50 $-1 #
edge $-1 $154 -75.45030060731834 $96 75.45030060731834 $91 $155 forward 7 unknown #
coedge $-1 $86 $55 $153 $156 forward $95 $-1 #
coedge $-1 $55 $86 $149 $157 reversed $95 $-1 #
loop $-1 $-1 $93 $133 #
vertex $-1 $56 $158 #
vertex $-1 $56 $159 #
straight-curve $-1 75.45030060731834 0 17.288078457871176 0 1 0 I I #
face $-1 $160 $161 $13 $-1 $162 reversed single #
loop $-1 $-1 $163 $57 #
plane-surface $-1 -75.45030060731834 0 0 1 0 0 0 0 -1 forward_v I I I I #
coedge $-1 $110 $164 $104 $165 forward $58 $-1 #
coedge $-1 $63 $60 $166 $167 reversed $37 $-1 #
coedge $-1 $60 $63 $102 $165 reversed $37 $-1 #
coedge $-1 $168 $169 $60 $106 forward $170 $-1 #
edge $-1 $171 -17.288078457871176 $172 17.288078457871176 $105 $173 forward 7 unknown #
coedge $-1 $62 $61 $163 $174 reversed $24 $-1 #
coedge $-1 $166 $175 $61 $109 forward $161 $-1 #
edge $-1 $176 -38.673443641964624 $113 -34.880270288742807 $108 $177 forward 7 unknown #
coedge $-1 $178 $102 $62 $111 forward $58 $-1 #
edge $-1 $112 34.880270288742807 $179 38.673443641964624 $110 $180 forward 7 unknown #
vertex $-1 $111 $181 #
vertex $-1 $109 $182 #
straight-curve $-1 -71.657127254096523 -21.614161422070758 0 0 0 -1 I I #
face $-1 $-1 $183 $14 $-1 $184 forward single #
loop $-1 $-1 $185 $65 #
plane-surface $-1 0 37.767748971869118 0 0 -1 0 0 0 -1 forward_v I I I I #
coedge $-1 $186 $68 $70 $124 forward $41 $-1 #
coedge $-1 $68 $186 $185 $187 reversed $41 $-1 #
coedge $-1 $188 $71 $68 $121 forward $66 $-1 #
edge $-1 $127 7.9375460001587363 $189 22.532650647859835 $120 $190 forward 7 unknown #
coedge $-1 $191 $192 $69 $123 forward $183 $-1 #
edge $-1 $193 34.046833139926314 $126 48.878632961248279 $122 $194 forward 7 unknown #
edge $-1 $127 -150.90060121463668 $193 -131.81564075973267 $70 $195 forward 7 unknown #
coedge $-1 $71 $188 $191 $196 reversed $66 $-1 #
vertex $-1 $196 $197 #
vertex $-1 $72 $198 #
straight-curve $-1 75.45030060731834 23.172644324168019 108.75707096891084 0 0 -1 I I #
coedge $-1 $129 $129 $-1 $199 reversed $75 $-1 #
edge $-1 $200 0 $200 6.2831853071796004 $76 $201 forward 7 unknown #
vertex $-1 $79 $202 #
ellipse-curve $-1 68.034400696657343 30.470196648018565 11.282800994974838 0.62932039886446345 0 0.77714595512881146 1.5542919102576229 0 -1.2586407977289269 1 I I #
face $-1 $-1 $95 $12 $-1 $203 reversed single #
loop $-1 $-1 $149 $80 #
plane-surface $-1 0 37.767748971869118 0 0 -1 0 0 0 -1 forward_v I I I I #
coedge $-1 $204 $147 $150 $205 forward $81 $-1 #
coedge $-1 $153 $83 $84 $141 reversed $50 $-1 #
coedge $-1 $147 $204 $83 $139 reversed $81 $-1 #
edge $-1 $154 -17.288078457871176 $206 17.288078457871176 $138 $207 forward 7 unknown #
coedge $-1 $85 $84 $204 $208 forward $33 $-1 #
edge $-1 $145 -75.45030060731834 $206 75.45030060731834 $137 $209 forward 7 unknown #
coedge $-1 $150 $149 $85 $143 reversed $134 $-1 #
edge $-1 $210 -75.45030060731834 $144 75.45030060731834 $142 $211 forward 7 unknown #
vertex $-1 $87 $212 #
vertex $-1 $156 $213 #
straight-curve $-1 75.45030060731834 0 -17.288078457871176 0 -1 0 I I #
coedge $-1 $136 $138 $88 $148 reversed $81 $-1 #
edge $-1 $151 -37.767748971869118 $154 37.767748971869118 $147 $214 forward 7 unknown #
coedge $-1 $142 $89 $94 $157 forward $134 $-1 #
coedge $-1 $89 $142 $136 $205 reversed $134 $-1 #
vertex $-1 $90 $215 #
straight-curve $-1 0 37.767748971869118 17.288078457871176 -1 0 0 I I #
coedge $-1 $91 $137 $93 $156 reversed $50 $-1 #
vertex $-1 $148 $216 #
straight-curve $-1 0 -37.767748971869118 17.288078457871176 1 0 0 I I #
edge $-1 $96 -17.288078457871176 $145 17.288078457871176 $93 $217 forward 7 unknown #
edge $-1 $97 -17.288078457871176 $144 17.288078457871176 $94 $218 forward 7 unknown #
point $-1 75.45030060731834 -37.767748971869118 17.288078457871176 #
point $-1 75.45030060731834 37.767748971869118 17.288078457871176 #
face $-1 $-1 $170 $13 $-1 $219 reversed single #
loop $-1 $-1 $166 $99 #
plane-surface $-1 0 0 -17.288078457871176 0 0 1 1 0 0 forward_v I I I I #
coedge $-1 $220 $221 $107 $174 forward $100 $-1 #
coedge $-1 $102 $178 $168 $222 forward $58 $-1 #
edge $-1 $172 -22.922271373384149 $112 -6.7686838235857891 $102 $223 forward 7 unknown #
coedge $-1 $224 $108 $103 $167 forward $161 $-1 #
edge $-1 $113 6.7686838235857891 $171 22.922271373384149 $166 $225 forward 7 unknown #
coedge $-1 $226 $105 $164 $222 reversed $170 $-1 #
coedge $-1 $105 $226 $224 $227 reversed $170 $-1 #
loop $-1 $-1 $105 $160 #
vertex $-1 $227 $228 #
vertex $-1 $106 $229 #
straight-curve $-1 -71.657127254096523 -37.767748971869118 0 0 0 1 I I #
edge $-1 $179 -17.288078457871176 $176 17.288078457871176 $163 $230 forward 7 unknown #
coedge $-1 $108 $224 $220 $231 forward $161 $-1 #
vertex $-1 $109 $232 #
straight-curve $-1 -36.776856965353716 -21.614161422070758 -17.288078457871176 1 0 0 I I #
coedge $-1 $164 $110 $221 $233 forward $58 $-1 #
vertex $-1 $233 $234 #
straight-curve $-1 -36.776856965353716 -21.614161422070758 17.288078457871176 -1 0 0 I I #
point $-1 -71.657127254096523 -21.614161422070758 17.288078457871176 #
point $-1 -71.657127254096523 -21.614161422070758 -17.288078457871176 #
loop $-1 $-1 $122 $115 #
plane-surface $-1 0 0 17.288078457871176 0 0 1 1 0 0 forward_v I I I I #
coedge $-1 $235 $236 $119 $187 forward $116 $-1 #
coedge $-1 $119 $118 $192 $237 reversed $41 $-1 #
edge $-1 $189 -103.10762196532141 $238 -84.022661510417407 $185 $239 forward 7 unknown #
coedge $-1 $125 $120 $236 $240 reversed $66 $-1 #
vertex $-1 $187 $241 #
straight-curve $-1 75.45030060731834 15.235098324009282 5.2775235320784688 0 1 0 I I #
coedge $-1 $242 $122 $125 $196 forward $183 $-1 #
coedge $-1 $122 $242 $186 $237 forward $183 $-1 #
vertex $-1 $123 $243 #
straight-curve $-1 26.571667646070061 23.172644324168019 17.28807845787118 1 0 0 I I #
straight-curve $-1 -41.821491253142369 23.172644324168019 100.24235007736097 -0.77714595512881146 0 0.62932039886446345 I I #
edge $-1 $126 23.172644324168019 $244 37.767748971869118 $125 $245 forward 7 unknown #
point $-1 75.45030060731834 23.172644324168019 17.288078457871176 #
point $-1 75.45030060731834 23.172644324168019 5.2775235320784759 #
edge $-1 $246 1 $246 0 $129 $-1 forward 7 unknown #
vertex $-1 $130 $247 #
ellipse-curve $-1 63.723516592298608 30.470196648018565 5.9593025818032563 0.62932039886446345 0 0.77714595512881146 1.5542919102576229 0 -1.2586407977289269 1 I I #
point $-1 69.588692606914947 30.470196648018565 10.024160197245887 #
plane-surface $-1 75.45030060731834 0 0 -1 0 0 0 0 1 forward_v I I I I #
coedge $-1 $138 $136 $140 $208 reversed $81 $-1 #
edge $-1 $151 -17.288078457871176 $210 17.288078457871176 $150 $248 forward 7 unknown #
vertex $-1 $208 $249 #
straight-curve $-1 -75.45030060731834 -37.767748971869118 0 0 0 -1 I I #
edge $-1 $206 -37.767748971869118 $210 37.767748971869118 $204 $250 forward 7 unknown #
straight-curve $-1 0 -37.767748971869118 -17.288078457871176 -1 0 0 I I #
vertex $-1 $143 $251 #
straight-curve $-1 0 37.767748971869118 -17.288078457871176 1 0 0 I I #
point $-1 75.45030060731834 37.767748971869118 -17.288078457871176 #
point $-1 75.45030060731834 -37.767748971869118 -17.288078457871176 #
straight-curve $-1 -75.45030060731834 0 17.288078457871176 0 -1 0 I I #
point $-1 -75.45030060731834 37.767748971869118 17.288078457871176 #
point $-1 -75.45030060731834 -37.767748971869118 17.288078457871176 #
straight-curve $-1 75.45030060731834 -37.767748971869118 0 0 0 -1 I I #
straight-curve $-1 75.45030060731834 37.767748971869118 0 0 0 -1 I I #
plane-surface $-1 0 -37.767748971869118 0 0 1 0 0 0 1 forward_v I I I I #
coedge $-1 $252 $163 $175 $231 reversed $100 $-1 #
coedge $-1 $163 $252 $178 $233 reversed $100 $-1 #
edge $-1 $253 -75.45030060731834 $172 -71.657127254096523 $168 $254 forward 7 unknown #
straight-curve $-1 -71.657127254096523 -14.845477598484969 17.288078457871176 0 1 0 I I #
coedge $-1 $175 $166 $169 $227 forward $161 $-1 #
straight-curve $-1 -71.657127254096523 -14.845477598484969 -17.288078457871176 0 -1 0 I I #
coedge $-1 $169 $168 $252 $255 forward $170 $-1 #
edge $-1 $171 71.657127254096523 $256 75.45030060731834 $169 $257 forward 7 unknown #
point $-1 -71.657127254096523 -37.767748971869118 -17.288078457871176 #
point $-1 -71.657127254096523 -37.767748971869118 17.288078457871176 #
straight-curve $-1 -75.45030060731834 -21.614161422070758 0 0 0 -1 I I #
edge $-1 $256 -37.767748971869118 $176 -21.614161422070758 $220 $258 forward 7 unknown #
point $-1 -75.45030060731834 -21.614161422070758 -17.288078457871176 #
edge $-1 $179 21.614161422070758 $253 37.767748971869118 $221 $259 forward 7 unknown #
point $-1 -75.45030060731834 -21.614161422070758 17.288078457871176 #
coedge $-1 $236 $185 $242 $260 reversed $116 $-1 #
coedge $-1 $185 $235 $188 $240 forward $116 $-1 #
edge $-1 $238 -22.532650647859828 $193 -7.9375460001587363 $192 $261 forward 7 unknown #
vertex $-1 $187 $262 #
straight-curve $-1 -4.6793707459817888 37.767748971869118 70.165253313260848 -0.77714595512881146 0 0.62932039886446345 I I #
edge $-1 $244 -17.288078457871176 $189 -5.2775235320784599 $188 $263 forward 7 unknown #
point $-1 75.45030060731834 37.767748971869118 5.2775235320784599 #
coedge $-1 $192 $191 $235 $260 forward $183 $-1 #
point $-1 60.618500785996375 23.172644324168019 17.28807845787118 #
vertex $-1 $196 $264 #
straight-curve $-1 75.45030060731834 0 17.288078457871176 0 1 0 I I #
vertex $-1 $199 $265 #
point $-1 65.277808502556226 30.470196648018565 4.7006617840743292 #
straight-curve $-1 -75.45030060731834 37.767748971869118 0 0 0 -1 I I #
point $-1 -75.45030060731834 -37.767748971869118 -17.288078457871176 #
straight-curve $-1 -75.45030060731834 0 -17.288078457871176 0 1 0 I I #
point $-1 -75.45030060731834 37.767748971869118 -17.288078457871176 #
coedge $-1 $221 $220 $226 $255 reversed $100 $-1 #
vertex $-1 $233 $266 #
straight-curve $-1 0 -37.767748971869118 17.288078457871176 1 0 0 I I #
edge $-1 $253 -17.288078457871176 $256 17.288078457871176 $252 $267 forward 7 unknown #
vertex $-1 $231 $268 #
straight-curve $-1 0 -37.767748971869118 -17.288078457871176 -1 0 0 I I #
straight-curve $-1 -75.45030060731834 0 -17.288078457871176 0 1 0 I I #
straight-curve $-1 -75.45030060731834 0 17.288078457871176 0 -1 0 I I #
edge $-1 $244 -75.45030060731834 $238 -60.618500785996375 $235 $269 forward 7 unknown #
straight-curve $-1 60.618500785996368 15.235098324009282 17.28807845787118 0 -1 0 I I #
point $-1 60.618500785996375 37.767748971869111 17.28807845787118 #
straight-curve $-1 75.45030060731834 37.767748971869118 0 0 0 -1 I I #
point $-1 75.45030060731834 37.767748971869118 17.288078457871176 #
point $-1 62.464875794569679 30.470196648018565 4.4050106715456332 #
point $-1 -75.45030060731834 -37.767748971869118 17.288078457871176 #
straight-curve $-1 -75.45030060731834 -37.767748971869118 0 0 0 -1 I I #
point $-1 -75.45030060731834 -37.767748971869118 -17.288078457871176 #
straight-curve $-1 0 37.767748971869118 17.288078457871176 -1 0 0 I I #
End-of-ACIS-data 