500 0 9 0           
7 Unknown 11 ACIS 5.0 NT 24 Fri Mar 26 00:43:31 1999 
-1 9.9999999999999995e-007 1e-010 
body $-1 $9 $-1 $10 #
body $-1 $11 $-1 $12 #
body $-1 $13 $-1 $14 #
body $-1 $15 $-1 $16 #
body $-1 $17 $-1 $18 #
body $-1 $19 $-1 $20 #
body $-1 $21 $-1 $22 #
body $-1 $23 $-1 $24 #
body $-1 $25 $-1 $26 #
lump $-1 $-1 $27 $0 #
transform $-1 1 0 0 0 1 0 0 0 1 75.445417645802181 36.1745201322966 8.00063317968546 1 rotate no_reflect no_shear #
lump $-1 $-1 $28 $1 #
transform $-1 1 0 0 0 1 0 0 0 1 75.445417645802181 36.1745201322966 8.00063317968546 1 rotate no_reflect no_shear #
lump $-1 $-1 $29 $2 #
transform $-1 1 0 0 0 1 0 0 0 1 75.445417645802181 36.1745201322966 8.00063317968546 1 rotate no_reflect no_shear #
lump $-1 $-1 $30 $3 #
transform $-1 1 0 0 0 1 0 0 0 1 75.445417645802181 36.1745201322966 8.00063317968546 1 rotate no_reflect no_shear #
lump $-1 $-1 $31 $4 #
transform $-1 1 0 0 0 1 0 0 0 1 75.445417645802181 36.1745201322966 8.00063317968546 1 rotate no_reflect no_shear #
lump $-1 $-1 $32 $5 #
transform $-1 1 0 0 0 1 0 0 0 1 75.445417645802181 36.1745201322966 8.00063317968546 1 rotate no_reflect no_shear #
lump $-1 $-1 $33 $6 #
transform $-1 1 0 0 0 1 0 0 0 1 75.445417645802181 36.1745201322966 8.00063317968546 1 rotate no_reflect no_shear #
lump $-1 $-1 $34 $7 #
transform $-1 1 0 0 0 1 0 0 0 1 75.445417645802181 36.1745201322966 8.00063317968546 1 rotate no_reflect no_shear #
lump $-1 $-1 $35 $8 #
transform $-1 1 0 0 0 1 0 0 0 1 75.445417645802181 36.1745201322966 8.00063317968546 1 rotate no_reflect no_shear #
shell $-1 $-1 $-1 $36 $-1 $9 #
shell $-1 $-1 $-1 $37 $-1 $11 #
shell $-1 $-1 $-1 $38 $-1 $13 #
shell $-1 $-1 $-1 $39 $-1 $15 #
shell $-1 $-1 $-1 $40 $-1 $17 #
shell $-1 $-1 $-1 $41 $-1 $19 #
shell $-1 $-1 $-1 $42 $-1 $21 #
shell $-1 $-1 $-1 $43 $-1 $23 #
shell $-1 $-1 $-1 $44 $-1 $25 #
face $-1 $45 $46 $27 $-1 $47 forward single #
face $-1 $48 $49 $28 $-1 $50 reversed single #
face $-1 $51 $52 $29 $-1 $53 reversed single #
face $-1 $54 $55 $30 $-1 $56 forward single #
face $-1 $57 $58 $31 $-1 $59 forward single #
face $-1 $60 $61 $32 $-1 $62 reversed single #
face $-1 $63 $64 $33 $-1 $65 forward single #
face $-1 $66 $67 $34 $-1 $68 forward single #
face $-1 $69 $70 $35 $-1 $71 forward single #
face $-1 $72 $73 $27 $-1 $74 reversed single #
loop $-1 $-1 $75 $36 #
plane-surface $-1 0 0 8.00063317968546 0 0 1 1 0 0 forward_v I I I I #
face $-1 $76 $77 $28 $-1 $78 reversed single #
loop $-1 $-1 $79 $37 #
plane-surface $-1 -66.059211301652695 -32.214005270247704 0 1 0 0 0 0 -1 forward_v I I I I #
face $-1 $80 $81 $29 $-1 $82 reversed single #
loop $-1 $-1 $83 $38 #
plane-surface $-1 38.390310933238752 17.613276854481136 210.67006536921667 0 -1 0 -0.57357644374324357 0 -0.81915203911291934 forward_v I I I I #
face $-1 $84 $85 $30 $-1 $86 forward single #
loop $-1 $87 $88 $39 #
cone-surface $-1 69.072300033243124 5.7097588695753956 2.7872835087994385 -0.57357644374324357 0 -0.81915203911291934 0.81915203911291934 0 -0.57357644374324357 1 I I 0 1 1 forward I I I I #
face $-1 $89 $90 $31 $-1 $91 forward single #
loop $-1 $92 $93 $40 #
cone-surface $-1 69.072300033243124 12.851869660518837 2.7872835087994385 -0.57357644374324357 0 -0.81915203911291934 0.81915203911291934 0 -0.57357644374324357 1 I I 0 1 1 forward I I I I #
face $-1 $94 $95 $32 $-1 $96 reversed single #
loop $-1 $-1 $97 $41 #
plane-surface $-1 -185.79998982377896 16.470078720676174 107.02537960926225 0 1 0 -0.73135370988377701 0 0.68199835119979291 forward_v I I I I #
face $-1 $98 $99 $33 $-1 $100 forward single #
loop $-1 $101 $102 $42 #
cone-surface $-1 -72.79315430785249 19.459363807034862 5.2741847211838744 0.73135370988377701 0 -0.68199835119979291 0.68199835119979291 0 0.73135370988377701 1 I I 0 1 1 forward I I I I #
face $-1 $103 $104 $34 $-1 $105 forward single #
loop $-1 $106 $107 $43 #
cone-surface $-1 -72.79315430785249 23.943291436572899 5.2741847211838744 0.73135370988377701 0 -0.68199835119979291 0.68199835119979291 0 0.73135370988377701 1 I I 0 1 1 forward I I I I #
face $-1 $108 $109 $35 $-1 $110 forward single #
loop $-1 $111 $112 $44 #
cone-surface $-1 -72.79315430785249 28.427219066110929 5.2741847211838744 0.73135370988377701 0 -0.68199835119979291 0.68199835119979291 0 0.73135370988377701 1 I I 0 1 1 forward I I I I #
face $-1 $113 $114 $27 $-1 $115 reversed single #
loop $-1 $-1 $116 $45 #
plane-surface $-1 0 0 -8.00063317968546 0 0 1 1 0 0 forward_v I I I I #
coedge $-1 $117 $118 $119 $120 forward $46 $-1 #
face $-1 $121 $122 $28 $-1 $123 reversed single #
loop $-1 $-1 $124 $48 #
plane-surface $-1 -63.768261842287032 -28.253490408198807 0 0 -1 0 0 0 -1 forward_v I I I I #
coedge $-1 $125 $126 $127 $128 forward $49 $-1 #
face $-1 $129 $130 $29 $-1 $131 reversed single #
loop $-1 $-1 $132 $51 #
plane-surface $-1 -48.157117766767186 9.2808142650471197 87.067529956647306 0.57357644374324357 0 0.81915203911291934 0.81915203911291934 0 -0.57357644374324357 forward_v I I I I #
coedge $-1 $133 $134 $135 $136 reversed $52 $-1 #
face $-1 $-1 $137 $30 $-1 $138 forward single #
loop $-1 $139 $140 $54 #
cone-surface $-1 67.754047473849894 5.7097588695753956 0.90462377987902265 -0.57357644374324357 0 -0.81915203911291934 0.40957601955645967 0 -0.28678822187162178 1 I I -0.70710678118654746 0.70710678118654746 0.5 forward I I I I #
loop $-1 $-1 $141 $39 #
coedge $-1 $88 $88 $142 $143 reversed $55 $-1 #
face $-1 $-1 $144 $31 $-1 $145 forward single #
loop $-1 $146 $147 $57 #
cone-surface $-1 67.754047473849894 12.851869660518837 0.90462377987902265 -0.57357644374324357 0 -0.81915203911291934 0.40957601955645967 0 -0.28678822187162178 1 I I -0.70710678118654746 0.70710678118654746 0.5 forward I I I I #
loop $-1 $-1 $148 $40 #
coedge $-1 $93 $93 $149 $150 reversed $58 $-1 #
face $-1 $151 $152 $32 $-1 $153 reversed single #
loop $-1 $-1 $154 $60 #
plane-surface $-1 -75.445417645802166 23.943291436572899 4.118078729228543 -0.73135370988377701 0 0.68199835119979291 0.68199835119979291 0 0.73135370988377701 forward_v I I I I #
coedge $-1 $155 $156 $157 $158 reversed $61 $-1 #
face $-1 $-1 $159 $33 $-1 $160 forward single #
loop $-1 $161 $162 $63 #
cone-surface $-1 -71.585484369880248 19.459363807034862 4.1480143123108366 0.73135370988377701 0 -0.68199835119979291 0.34099917559989645 0 0.36567685494188851 1 I I -0.70710678118654746 0.70710678118654746 0.5 forward I I I I #
loop $-1 $-1 $163 $42 #
coedge $-1 $102 $102 $164 $165 reversed $64 $-1 #
face $-1 $-1 $166 $34 $-1 $167 forward single #
loop $-1 $168 $169 $66 #
cone-surface $-1 -71.585484369880248 23.943291436572899 4.1480143123108366 0.73135370988377701 0 -0.68199835119979291 0.34099917559989645 0 0.36567685494188851 1 I I -0.70710678118654746 0.70710678118654746 0.5 forward I I I I #
loop $-1 $-1 $170 $43 #
coedge $-1 $107 $107 $171 $172 reversed $67 $-1 #
face $-1 $-1 $173 $35 $-1 $174 forward single #
loop $-1 $175 $176 $69 #
cone-surface $-1 -71.585484369880248 28.427219066110929 4.1480143123108366 0.73135370988377701 0 -0.68199835119979291 0.34099917559989645 0 0.36567685494188851 1 I I -0.70710678118654746 0.70710678118654746 0.5 forward I I I I #
loop $-1 $-1 $177 $44 #
coedge $-1 $112 $112 $178 $179 reversed $70 $-1 #
face $-1 $180 $181 $27 $-1 $182 reversed single #
loop $-1 $-1 $183 $72 #
plane-surface $-1 0 -36.1745201322966 0 0 1 0 0 0 1 forward_v I I I I #
coedge $-1 $184 $185 $186 $187 forward $73 $-1 #
coedge $-1 $188 $75 $189 $190 forward $46 $-1 #
coedge $-1 $75 $188 $191 $192 forward $46 $-1 #
coedge $-1 $193 $194 $75 $120 reversed $195 $-1 #
edge $-1 $196 -36.1745201322966 $197 36.1745201322966 $119 $198 forward 7 unknown #
face $-1 $199 $200 $28 $-1 $201 forward single #
loop $-1 $-1 $202 $76 #
plane-surface $-1 -61.477312382921369 -32.214005270247704 0 -1 0 0 0 0 1 forward_v I I I I #
coedge $-1 $203 $204 $205 $206 forward $77 $-1 #
coedge $-1 $207 $79 $208 $209 reversed $49 $-1 #
coedge $-1 $79 $207 $210 $211 reversed $49 $-1 #
coedge $-1 $204 $203 $79 $128 reversed $77 $-1 #
edge $-1 $212 -8.00063317968546 $213 8.00063317968546 $127 $214 forward 7 unknown #
face $-1 $215 $216 $29 $-1 $217 reversed single #
loop $-1 $-1 $218 $80 #
plane-surface $-1 38.390310933238752 0.94835167561310385 210.67006536921667 0 1 0 0.57357644374324357 0 0.81915203911291934 forward_v I I I I #
coedge $-1 $219 $220 $221 $222 reversed $81 $-1 #
coedge $-1 $134 $83 $223 $224 reversed $52 $-1 #
coedge $-1 $83 $133 $219 $225 reversed $52 $-1 #
coedge $-1 $221 $226 $83 $136 forward $227 $-1 #
edge $-1 $228 -56.250262179182805 $229 -45.566955629107902 $135 $230 forward 7 unknown #
loop $-1 $-1 $142 $84 #
plane-surface $-1 -48.157117766767186 9.2808142650471197 87.067529956647306 0.57357644374324357 0 0.81915203911291934 0.81915203911291934 0 -0.57357644374324357 forward_v I I I I #
loop $-1 $-1 $231 $54 #
coedge $-1 $140 $140 $141 $232 reversed $85 $-1 #
coedge $-1 $141 $141 $140 $232 forward $87 $-1 #
coedge $-1 $142 $142 $88 $143 forward $137 $-1 #
edge $-1 $233 0 $233 6.2831853071796004 $142 $234 forward 7 unknown #
loop $-1 $-1 $149 $89 #
plane-surface $-1 -48.157117766767186 9.2808142650471197 87.067529956647306 0.57357644374324357 0 0.81915203911291934 0.81915203911291934 0 -0.57357644374324357 forward_v I I I I #
loop $-1 $-1 $235 $57 #
coedge $-1 $147 $147 $148 $236 reversed $90 $-1 #
coedge $-1 $148 $148 $147 $236 forward $92 $-1 #
coedge $-1 $149 $149 $93 $150 forward $144 $-1 #
edge $-1 $237 0 $237 6.2831853071796004 $149 $238 forward 7 unknown #
face $-1 $239 $240 $32 $-1 $241 reversed single #
loop $-1 $-1 $242 $94 #
plane-surface $-1 -185.79998982377896 31.416504152469624 107.02537960926225 0 -1 0 0.73135370988377701 0 -0.68199835119979291 forward_v I I I I #
coedge $-1 $243 $244 $245 $246 reversed $95 $-1 #
coedge $-1 $156 $97 $247 $248 reversed $61 $-1 #
coedge $-1 $97 $155 $243 $249 reversed $61 $-1 #
coedge $-1 $245 $250 $97 $158 forward $251 $-1 #
edge $-1 $252 17.454577266087298 $253 21.075117775926017 $157 $254 forward 7 unknown #
loop $-1 $-1 $164 $98 #
plane-surface $-1 -75.445417645802166 23.943291436572899 4.118078729228543 -0.73135370988377701 0 0.68199835119979291 0.68199835119979291 0 0.73135370988377701 forward_v I I I I #
loop $-1 $-1 $255 $63 #
coedge $-1 $162 $162 $163 $256 reversed $99 $-1 #
coedge $-1 $163 $163 $162 $256 forward $101 $-1 #
coedge $-1 $164 $164 $102 $165 forward $159 $-1 #
edge $-1 $257 0 $257 6.2831853071796004 $164 $258 forward 7 unknown #
loop $-1 $-1 $171 $103 #
plane-surface $-1 -75.445417645802166 23.943291436572899 4.118078729228543 -0.73135370988377701 0 0.68199835119979291 0.68199835119979291 0 0.73135370988377701 forward_v I I I I #
loop $-1 $-1 $259 $66 #
coedge $-1 $169 $169 $170 $260 reversed $104 $-1 #
coedge $-1 $170 $170 $169 $260 forward $106 $-1 #
coedge $-1 $171 $171 $107 $172 forward $166 $-1 #
edge $-1 $261 0 $261 6.2831853071796004 $171 $262 forward 7 unknown #
loop $-1 $-1 $178 $108 #
plane-surface $-1 -75.445417645802166 23.943291436572899 4.118078729228543 -0.73135370988377701 0 0.68199835119979291 0.68199835119979291 0 0.73135370988377701 forward_v I I I I #
loop $-1 $-1 $263 $69 #
coedge $-1 $176 $176 $177 $264 reversed $109 $-1 #
coedge $-1 $177 $177 $176 $264 forward $111 $-1 #
coedge $-1 $178 $178 $112 $179 forward $173 $-1 #
edge $-1 $265 0 $265 6.2831853071796004 $178 $266 forward 7 unknown #
face $-1 $267 $268 $27 $-1 $269 reversed single #
loop $-1 $-1 $270 $113 #
plane-surface $-1 -75.445417645802181 0 0 1 0 0 0 0 -1 forward_v I I I I #
coedge $-1 $271 $191 $272 $273 forward $114 $-1 #
coedge $-1 $274 $116 $271 $275 forward $73 $-1 #
coedge $-1 $116 $274 $276 $277 forward $73 $-1 #
coedge $-1 $194 $193 $116 $187 reversed $195 $-1 #
edge $-1 $278 -36.1745201322966 $279 36.1745201322966 $186 $280 forward 7 unknown #
coedge $-1 $118 $117 $281 $282 forward $46 $-1 #
coedge $-1 $283 $284 $117 $190 reversed $268 $-1 #
edge $-1 $197 -75.445417645802181 $285 75.445417645802181 $189 $286 forward 7 unknown #
coedge $-1 $183 $287 $118 $192 reversed $114 $-1 #
edge $-1 $288 -75.445417645802181 $196 75.445417645802181 $191 $289 forward 7 unknown #
coedge $-1 $186 $119 $287 $290 forward $195 $-1 #
coedge $-1 $119 $186 $283 $291 reversed $195 $-1 #
loop $-1 $-1 $193 $267 #
vertex $-1 $120 $292 #
vertex $-1 $120 $293 #
straight-curve $-1 75.445417645802181 0 8.00063317968546 0 1 0 I I #
face $-1 $294 $295 $28 $-1 $296 reversed single #
loop $-1 $-1 $297 $121 #
plane-surface $-1 0 0 8.00063317968546 0 0 1 1 0 0 forward_v I I I I #
coedge $-1 $298 $299 $300 $301 reversed $122 $-1 #
coedge $-1 $127 $124 $302 $303 reversed $77 $-1 #
coedge $-1 $124 $127 $304 $305 reversed $77 $-1 #
coedge $-1 $299 $298 $124 $206 reversed $122 $-1 #
edge $-1 $306 -8.00063317968546 $307 8.00063317968546 $205 $308 forward 7 unknown #
coedge $-1 $126 $125 $309 $310 reversed $49 $-1 #
coedge $-1 $302 $311 $125 $209 forward $295 $-1 #
edge $-1 $312 -20.067517497172748 $213 -12.146487773074956 $208 $313 forward 7 unknown #
coedge $-1 $314 $304 $126 $211 forward $200 $-1 #
edge $-1 $212 12.146487773074956 $315 20.067517497172748 $210 $316 forward 7 unknown #
vertex $-1 $211 $317 #
vertex $-1 $209 $318 #
straight-curve $-1 -66.059211301652695 -28.253490408198807 0 0 0 -1 I I #
face $-1 $-1 $227 $29 $-1 $319 forward single #
loop $-1 $-1 $320 $129 #
plane-surface $-1 75.445417645802181 0 0 -1 0 0 0 0 1 forward_v I I I I #
coedge $-1 $321 $322 $323 $324 reversed $130 $-1 #
coedge $-1 $325 $132 $134 $225 forward $81 $-1 #
coedge $-1 $132 $325 $321 $326 forward $81 $-1 #
coedge $-1 $323 $135 $132 $222 forward $227 $-1 #
edge $-1 $229 -12.972869721957576 $327 3.692055456910456 $221 $328 forward 7 unknown #
coedge $-1 $329 $330 $133 $224 forward $216 $-1 #
edge $-1 $331 -104.81493142796697 $228 -97.334399504922871 $223 $332 forward 7 unknown #
edge $-1 $229 137.84892604891465 $331 150.89083529160436 $134 $333 forward 7 unknown #
coedge $-1 $135 $323 $329 $334 forward $227 $-1 #
loop $-1 $-1 $323 $215 #
vertex $-1 $224 $335 #
vertex $-1 $136 $336 #
straight-curve $-1 19.195155466619376 17.613276854481136 8.0006331796854653 -1 0 0 I I #
coedge $-1 $231 $231 $-1 $337 reversed $139 $-1 #
edge $-1 $338 0 $338 6.2831853071796004 $140 $339 forward 7 unknown #
vertex $-1 $143 $340 #
ellipse-curve $-1 70.10376437076475 5.7097588695753956 4.2603672181634114 0.57357644374324357 0 0.81915203911291934 0.81915203911291934 0 -0.57357644374324357 1 I I #
coedge $-1 $235 $235 $-1 $341 reversed $146 $-1 #
edge $-1 $342 0 $342 6.2831853071796004 $147 $343 forward 7 unknown #
vertex $-1 $150 $344 #
ellipse-curve $-1 70.10376437076475 12.851869660518837 4.2603672181634114 0.57357644374324357 0 0.81915203911291934 0.81915203911291934 0 -0.57357644374324357 1 I I #
face $-1 $-1 $251 $32 $-1 $345 forward single #
loop $-1 $-1 $346 $151 #
plane-surface $-1 -75.445417645802181 0 0 1 0 0 0 0 -1 forward_v I I I I #
coedge $-1 $347 $348 $349 $350 reversed $152 $-1 #
coedge $-1 $351 $154 $156 $249 forward $95 $-1 #
coedge $-1 $154 $351 $347 $352 forward $95 $-1 #
coedge $-1 $349 $157 $154 $246 forward $251 $-1 #
edge $-1 $253 4.4984330023897243 $353 19.444858434183175 $245 $354 forward 7 unknown #
coedge $-1 $355 $356 $155 $248 forward $240 $-1 #
edge $-1 $357 -49.394611075402594 $252 -45.512056624945664 $247 $358 forward 7 unknown #
edge $-1 $253 -5.30872325932949 $357 2.0734513383776317e-014 $156 $359 forward 7 unknown #
coedge $-1 $157 $349 $355 $360 forward $251 $-1 #
loop $-1 $-1 $349 $239 #
vertex $-1 $248 $361 #
vertex $-1 $158 $362 #
straight-curve $-1 -92.899994911889479 16.470078720676174 8.0006331796854582 1 0 0 I I #
coedge $-1 $255 $255 $-1 $363 reversed $161 $-1 #
edge $-1 $364 0 $364 6.2831853071796004 $162 $365 forward 7 unknown #
vertex $-1 $165 $366 #
ellipse-curve $-1 -73.635147390882821 19.459363807034862 6.0593559544569953 -0.73135370988377701 0 0.68199835119979291 0.68199835119979291 0 0.73135370988377701 1 I I #
coedge $-1 $259 $259 $-1 $367 reversed $168 $-1 #
edge $-1 $368 0 $368 6.2831853071796004 $169 $369 forward 7 unknown #
vertex $-1 $172 $370 #
ellipse-curve $-1 -73.635147390882821 23.943291436572899 6.0593559544569953 -0.73135370988377701 0 0.68199835119979291 0.68199835119979291 0 0.73135370988377701 1 I I #
coedge $-1 $263 $263 $-1 $371 reversed $175 $-1 #
edge $-1 $372 0 $372 6.2831853071796004 $176 $373 forward 7 unknown #
vertex $-1 $179 $374 #
ellipse-curve $-1 -73.635147390882821 28.427219066110929 6.0593559544569953 -0.73135370988377701 0 0.68199835119979291 0.68199835119979291 0 0.73135370988377701 1 I I #
face $-1 $-1 $195 $27 $-1 $375 reversed single #
loop $-1 $-1 $283 $180 #
plane-surface $-1 0 36.1745201322966 0 0 -1 0 0 0 -1 forward_v I I I I #
coedge $-1 $376 $281 $284 $377 forward $181 $-1 #
coedge $-1 $287 $183 $184 $275 reversed $114 $-1 #
coedge $-1 $281 $376 $183 $273 reversed $181 $-1 #
edge $-1 $288 -8.00063317968546 $378 8.00063317968546 $272 $379 forward 7 unknown #
coedge $-1 $185 $184 $376 $380 forward $73 $-1 #
edge $-1 $279 -75.445417645802181 $378 75.445417645802181 $271 $381 forward 7 unknown #
coedge $-1 $284 $283 $185 $277 reversed $268 $-1 #
edge $-1 $382 -75.445417645802181 $278 75.445417645802181 $276 $383 forward 7 unknown #
vertex $-1 $187 $384 #
vertex $-1 $290 $385 #
straight-curve $-1 75.445417645802181 0 -8.00063317968546 0 -1 0 I I #
coedge $-1 $270 $272 $188 $282 reversed $181 $-1 #
edge $-1 $285 -36.1745201322966 $288 36.1745201322966 $281 $386 forward 7 unknown #
coedge $-1 $276 $189 $194 $291 forward $268 $-1 #
coedge $-1 $189 $276 $270 $377 reversed $268 $-1 #
vertex $-1 $190 $387 #
straight-curve $-1 0 36.1745201322966 8.00063317968546 -1 0 0 I I #
coedge $-1 $191 $271 $193 $290 reversed $114 $-1 #
vertex $-1 $282 $388 #
straight-curve $-1 0 -36.1745201322966 8.00063317968546 1 0 0 I I #
edge $-1 $196 -8.00063317968546 $279 8.00063317968546 $193 $389 forward 7 unknown #
edge $-1 $197 -8.00063317968546 $278 8.00063317968546 $194 $390 forward 7 unknown #
point $-1 75.445417645802181 -36.1745201322966 8.00063317968546 #
point $-1 75.445417645802181 36.1745201322966 8.00063317968546 #
face $-1 $-1 $391 $28 $-1 $392 reversed single #
loop $-1 $-1 $393 $199 #
plane-surface $-1 0 0 -8.00063317968546 0 0 1 1 0 0 forward_v I I I I #
coedge $-1 $304 $314 $299 $394 forward $200 $-1 #
coedge $-1 $205 $202 $393 $395 reversed $122 $-1 #
coedge $-1 $202 $205 $297 $394 reversed $122 $-1 #
coedge $-1 $396 $397 $202 $301 forward $391 $-1 #
edge $-1 $398 -8.00063317968546 $399 8.00063317968546 $300 $400 forward 7 unknown #
coedge $-1 $393 $208 $203 $303 forward $295 $-1 #
edge $-1 $213 -34.175080380509179 $307 -29.593181461777853 $302 $401 forward 7 unknown #
coedge $-1 $210 $297 $204 $305 forward $200 $-1 #
edge $-1 $306 29.593181461777853 $212 34.175080380509179 $304 $402 forward 7 unknown #
vertex $-1 $305 $403 #
vertex $-1 $303 $404 #
straight-curve $-1 -61.477312382921369 -28.253490408198807 0 0 0 -1 I I #
coedge $-1 $397 $396 $207 $310 forward $391 $-1 #
edge $-1 $315 -8.00063317968546 $312 8.00063317968546 $309 $405 forward 7 unknown #
coedge $-1 $208 $393 $397 $406 forward $295 $-1 #
vertex $-1 $209 $407 #
straight-curve $-1 -66.059211301652695 -16.107002635123852 -8.00063317968546 0 1 0 I I #
coedge $-1 $297 $210 $396 $408 forward $200 $-1 #
vertex $-1 $408 $409 #
straight-curve $-1 -66.059211301652695 -16.107002635123852 8.00063317968546 0 -1 0 I I #
point $-1 -66.059211301652695 -28.253490408198807 8.00063317968546 #
point $-1 -66.059211301652695 -28.253490408198807 -8.00063317968546 #
plane-surface $-1 0 0 8.00063317968546 0 0 1 1 0 0 forward_v I I I I #
coedge $-1 $330 $329 $322 $410 forward $216 $-1 #
coedge $-1 $322 $218 $220 $326 reversed $130 $-1 #
coedge $-1 $218 $321 $320 $410 reversed $130 $-1 #
coedge $-1 $226 $221 $218 $324 forward $227 $-1 #
edge $-1 $327 45.566955629107902 $411 56.250262179182805 $323 $412 forward 7 unknown #
coedge $-1 $220 $219 $330 $413 reversed $81 $-1 #
edge $-1 $414 -150.89083529160436 $327 -137.84892604891465 $321 $415 forward 7 unknown #
vertex $-1 $222 $416 #
straight-curve $-1 64.762111095727278 4.6404071325235599 8.0006331796854653 0 -1 0 I I #
coedge $-1 $320 $223 $226 $334 reversed $216 $-1 #
coedge $-1 $223 $320 $325 $413 forward $216 $-1 #
vertex $-1 $224 $417 #
straight-curve $-1 75.445417645802181 17.613276854481136 105.33503268460834 0 0 1 I I #
straight-curve $-1 -48.157117766767186 17.613276854481136 87.067529956647306 0.81915203911291934 0 -0.57357644374324357 I I #
edge $-1 $411 0.94835167561310385 $228 17.613276854481136 $329 $418 forward 7 unknown #
point $-1 75.445417645802181 17.613276854481136 8.00063317968546 #
point $-1 64.762111095727278 17.613276854481136 8.0006331796854653 #
edge $-1 $419 1 $419 0 $231 $-1 forward 7 unknown #
vertex $-1 $232 $420 #
ellipse-curve $-1 68.040835695721512 5.7097588695753956 1.3141997994354824 0.57357644374324357 0 0.81915203911291934 0.81915203911291934 0 -0.57357644374324357 1 I I #
point $-1 70.922916409877658 5.7097588695753956 3.6867907744201514 #
edge $-1 $421 1 $421 0 $235 $-1 forward 7 unknown #
vertex $-1 $236 $422 #
ellipse-curve $-1 68.040835695721512 12.851869660518837 1.3141997994354824 0.57357644374324357 0 0.81915203911291934 0.81915203911291934 0 -0.57357644374324357 1 I I #
point $-1 70.922916409877658 12.851869660518837 3.6867907744201514 #
plane-surface $-1 0 0 8.00063317968546 0 0 1 1 0 0 forward_v I I I I #
coedge $-1 $356 $355 $348 $423 forward $240 $-1 #
coedge $-1 $348 $242 $244 $352 reversed $152 $-1 #
coedge $-1 $242 $347 $346 $423 reversed $152 $-1 #
coedge $-1 $250 $245 $242 $350 forward $251 $-1 #
edge $-1 $353 -21.075117775926017 $424 -17.454577266087298 $349 $425 forward 7 unknown #
coedge $-1 $244 $243 $356 $426 reversed $95 $-1 #
edge $-1 $427 -2.0734513383776317e-014 $353 5.30872325932949 $347 $428 forward 7 unknown #
vertex $-1 $246 $429 #
straight-curve $-1 -71.824877135963462 11.97164571828645 8.00063317968546 0 1 0 I I #
coedge $-1 $346 $247 $250 $360 reversed $240 $-1 #
coedge $-1 $247 $346 $351 $426 forward $240 $-1 #
vertex $-1 $248 $430 #
straight-curve $-1 -75.445417645802181 16.470078720676174 53.512689804631123 0 0 1 I I #
straight-curve $-1 -75.445417645802166 16.470078720676174 4.118078729228543 -0.68199835119979291 0 -0.73135370988377701 I I #
edge $-1 $424 -31.416504152469624 $252 -16.470078720676174 $355 $431 forward 7 unknown #
point $-1 -75.445417645802181 16.470078720676174 8.00063317968546 #
point $-1 -71.824877135963462 16.470078720676174 8.00063317968546 #
edge $-1 $432 1 $432 0 $255 $-1 forward 7 unknown #
vertex $-1 $256 $433 #
ellipse-curve $-1 -71.95116122482213 19.459363807034862 4.4890134879107331 -0.73135370988377701 0 0.68199835119979291 0.68199835119979291 0 0.73135370988377701 1 I I #
point $-1 -72.953149039683055 19.459363807034862 6.7907096643407918 #
edge $-1 $434 1 $434 0 $259 $-1 forward 7 unknown #
vertex $-1 $260 $435 #
ellipse-curve $-1 -71.95116122482213 23.943291436572899 4.4890134879107331 -0.73135370988377701 0 0.68199835119979291 0.68199835119979291 0 0.73135370988377701 1 I I #
point $-1 -72.953149039683055 23.943291436572899 6.7907096643407918 #
edge $-1 $436 1 $436 0 $263 $-1 forward 7 unknown #
vertex $-1 $264 $437 #
ellipse-curve $-1 -71.95116122482213 28.427219066110929 4.4890134879107331 -0.73135370988377701 0 0.68199835119979291 0.68199835119979291 0 0.73135370988377701 1 I I #
point $-1 -72.953149039683055 28.427219066110929 6.7907096643407918 #
plane-surface $-1 75.445417645802181 0 0 -1 0 0 0 0 1 forward_v I I I I #
coedge $-1 $272 $270 $274 $380 reversed $181 $-1 #
edge $-1 $285 -8.00063317968546 $382 8.00063317968546 $284 $438 forward 7 unknown #
vertex $-1 $380 $439 #
straight-curve $-1 -75.445417645802181 -36.1745201322966 0 0 0 -1 I I #
edge $-1 $378 -36.1745201322966 $382 36.1745201322966 $376 $440 forward 7 unknown #
straight-curve $-1 0 -36.1745201322966 -8.00063317968546 -1 0 0 I I #
vertex $-1 $277 $441 #
straight-curve $-1 0 36.1745201322966 -8.00063317968546 1 0 0 I I #
point $-1 75.445417645802181 36.1745201322966 -8.00063317968546 #
point $-1 75.445417645802181 -36.1745201322966 -8.00063317968546 #
straight-curve $-1 -75.445417645802181 0 8.00063317968546 0 -1 0 I I #
point $-1 -75.445417645802181 36.1745201322966 8.00063317968546 #
point $-1 -75.445417645802181 -36.1745201322966 8.00063317968546 #
straight-curve $-1 75.445417645802181 -36.1745201322966 0 0 0 -1 I I #
straight-curve $-1 75.445417645802181 36.1745201322966 0 0 0 -1 I I #
loop $-1 $-1 $300 $294 #
plane-surface $-1 0 -36.1745201322966 0 0 1 0 0 0 1 forward_v I I I I #
coedge $-1 $311 $302 $298 $395 forward $295 $-1 #
edge $-1 $399 -20.067517497172748 $306 -12.146487773074956 $297 $442 forward 7 unknown #
edge $-1 $307 12.146487773074956 $398 20.067517497172748 $393 $443 forward 7 unknown #
coedge $-1 $309 $300 $314 $408 reversed $391 $-1 #
coedge $-1 $300 $309 $311 $406 reversed $391 $-1 #
vertex $-1 $406 $444 #
vertex $-1 $301 $445 #
straight-curve $-1 -61.477312382921369 -36.1745201322966 0 0 0 1 I I #
straight-curve $-1 -31.884130921143516 -28.253490408198807 -8.00063317968546 1 0 0 I I #
straight-curve $-1 -31.884130921143516 -28.253490408198807 8.00063317968546 -1 0 0 I I #
point $-1 -61.477312382921369 -28.253490408198807 8.00063317968546 #
point $-1 -61.477312382921369 -28.253490408198807 -8.00063317968546 #
straight-curve $-1 -66.059211301652695 -36.1745201322966 0 0 0 -1 I I #
edge $-1 $398 61.477312382921369 $312 66.059211301652695 $397 $446 forward 7 unknown #
point $-1 -66.059211301652695 -36.1745201322966 -8.00063317968546 #
edge $-1 $315 -66.059211301652695 $399 -61.477312382921369 $396 $447 forward 7 unknown #
point $-1 -66.059211301652695 -36.1745201322966 8.00063317968546 #
edge $-1 $411 97.334399504922871 $414 104.81493142796697 $320 $448 forward 7 unknown #
vertex $-1 $334 $449 #
straight-curve $-1 19.195155466619376 0.94835167561310385 8.0006331796854653 1 0 0 I I #
edge $-1 $414 -3.692055456910456 $331 12.972869721957576 $330 $450 forward 7 unknown #
vertex $-1 $413 $451 #
straight-curve $-1 -48.157117766767186 0.94835167561310385 87.067529956647306 -0.81915203911291934 0 0.57357644374324357 I I #
point $-1 64.762111095727278 0.94835167561310385 8.0006331796854653 #
point $-1 75.445417645802181 17.613276854481136 0.52010125664136808 #
straight-curve $-1 75.445417645802181 0 8.00063317968546 0 1 0 I I #
vertex $-1 $337 $452 #
point $-1 68.859987734834434 5.7097588695753956 0.74062335569223881 #
vertex $-1 $341 $453 #
point $-1 68.859987734834434 12.851869660518837 0.74062335569223881 #
edge $-1 $424 45.512056624945664 $427 49.394611075402594 $346 $454 forward 7 unknown #
vertex $-1 $360 $455 #
straight-curve $-1 -92.899994911889479 31.416504152469624 8.0006331796854582 -1 0 0 I I #
edge $-1 $427 -19.444858434183175 $357 -4.4984330023897243 $356 $456 forward 7 unknown #
vertex $-1 $426 $457 #
straight-curve $-1 -75.445417645802166 31.416504152469624 4.118078729228543 0.68199835119979291 0 0.73135370988377701 I I #
point $-1 -71.824877135963462 31.416504152469624 8.00063317968546 #
point $-1 -75.445417645802181 16.470078720676174 4.1180787292285279 #
straight-curve $-1 -75.445417645802181 0 8.00063317968546 0 -1 0 I I #
vertex $-1 $363 $458 #
point $-1 -71.269162873622349 19.459363807034862 5.2203671977945101 #
vertex $-1 $367 $459 #
point $-1 -71.269162873622349 23.943291436572899 5.2203671977945101 #
vertex $-1 $371 $460 #
point $-1 -71.269162873622349 28.427219066110929 5.2203671977945101 #
straight-curve $-1 -75.445417645802181 36.1745201322966 0 0 0 -1 I I #
point $-1 -75.445417645802181 -36.1745201322966 -8.00063317968546 #
straight-curve $-1 -75.445417645802181 0 -8.00063317968546 0 1 0 I I #
point $-1 -75.445417645802181 36.1745201322966 -8.00063317968546 #
straight-curve $-1 -61.477312382921369 -16.107002635123852 8.00063317968546 0 1 0 I I #
straight-curve $-1 -61.477312382921369 -16.107002635123852 -8.00063317968546 0 -1 0 I I #
point $-1 -61.477312382921369 -36.1745201322966 -8.00063317968546 #
point $-1 -61.477312382921369 -36.1745201322966 8.00063317968546 #
straight-curve $-1 0 -36.1745201322966 -8.00063317968546 -1 0 0 I I #
straight-curve $-1 0 -36.1745201322966 8.00063317968546 1 0 0 I I #
straight-curve $-1 75.445417645802181 0.94835167561310385 105.33503268460834 0 0 -1 I I #
point $-1 75.445417645802181 0.94835167561310385 8.00063317968546 #
straight-curve $-1 75.445417645802195 4.6404071325235599 0.52010125664136098 0 1 0 I I #
point $-1 75.445417645802181 0.94835167561310385 0.52010125664136808 #
point $-1 67.467259251978277 5.7097588695753956 0.49504776032256298 #
point $-1 67.467259251978277 12.851869660518837 0.49504776032256298 #
straight-curve $-1 -75.445417645802181 31.416504152469624 53.512689804631123 0 0 -1 I I #
point $-1 -75.445417645802181 31.416504152469624 8.00063317968546 #
straight-curve $-1 -75.445417645802181 11.97164571828645 4.118078729228527 0 -1 0 I I #
point $-1 -75.445417645802181 31.416504152469624 4.1180787292285279 #
point $-1 -71.219807514938367 19.459363807034862 3.8070151367109402 #
point $-1 -71.219807514938367 23.943291436572899 3.8070151367109402 #
point $-1 -71.219807514938367 28.427219066110929 3.8070151367109402 #
End-of-ACIS-data 