500 0 7 0           
7 Unknown 11 ACIS 5.0 NT 24 Fri Mar 26 15:21:51 1999 
-1 9.9999999999999995e-007 1e-010 
body $-1 $7 $-1 $8 #
body $-1 $9 $-1 $10 #
body $-1 $11 $-1 $12 #
body $-1 $13 $-1 $14 #
body $-1 $15 $-1 $16 #
body $-1 $17 $-1 $18 #
body $-1 $19 $-1 $20 #
lump $-1 $-1 $21 $0 #
transform $-1 1 0 0 0 1 0 0 0 1 64.859157078768277 33.660372443970402 15.659412990551347 1 rotate no_reflect no_shear #
lump $-1 $-1 $22 $1 #
transform $-1 1 0 0 0 1 0 0 0 1 64.859157078768277 33.660372443970402 15.659412990551347 1 rotate no_reflect no_shear #
lump $-1 $-1 $23 $2 #
transform $-1 1 0 0 0 1 0 0 0 1 64.859157078768277 33.660372443970402 15.659412990551347 1 rotate no_reflect no_shear #
lump $-1 $-1 $24 $3 #
transform $-1 1 0 0 0 1 0 0 0 1 64.859157078768277 33.660372443970402 15.659412990551347 1 rotate no_reflect no_shear #
lump $-1 $-1 $25 $4 #
transform $-1 1 0 0 0 1 0 0 0 1 64.859157078768277 33.660372443970402 15.659412990551347 1 rotate no_reflect no_shear #
lump $-1 $-1 $26 $5 #
transform $-1 1 0 0 0 1 0 0 0 1 64.859157078768277 33.660372443970402 15.659412990551347 1 rotate no_reflect no_shear #
lump $-1 $-1 $27 $6 #
transform $-1 1 0 0 0 1 0 0 0 1 64.859157078768277 33.660372443970402 15.659412990551347 1 rotate no_reflect no_shear #
shell $-1 $-1 $-1 $28 $-1 $7 #
shell $-1 $-1 $-1 $29 $-1 $9 #
shell $-1 $-1 $-1 $30 $-1 $11 #
shell $-1 $-1 $-1 $31 $-1 $13 #
shell $-1 $-1 $-1 $32 $-1 $15 #
shell $-1 $-1 $-1 $33 $-1 $17 #
shell $-1 $-1 $-1 $34 $-1 $19 #
face $-1 $35 $36 $21 $-1 $37 forward single #
face $-1 $38 $39 $22 $-1 $40 reversed single #
face $-1 $41 $42 $23 $-1 $43 forward single #
face $-1 $44 $45 $24 $-1 $46 reversed single #
face $-1 $47 $48 $25 $-1 $49 forward single #
face $-1 $50 $51 $26 $-1 $52 reversed single #
face $-1 $53 $54 $27 $-1 $55 forward single #
face $-1 $56 $57 $21 $-1 $58 reversed single #
loop $-1 $-1 $59 $28 #
plane-surface $-1 0 0 15.659412990551347 0 0 1 1 0 0 forward_v I I I I #
face $-1 $60 $61 $22 $-1 $62 reversed single #
loop $-1 $-1 $63 $29 #
plane-surface $-1 -38.240305553577819 -25.494901601061393 0 1 0 0 0 0 -1 forward_v I I I I #
face $-1 $64 $65 $23 $-1 $66 reversed single #
loop $-1 $-1 $67 $30 #
plane-surface $-1 0 33.660372443970402 0 0 -1 0 0 0 -1 forward_v I I I I #
face $-1 $68 $69 $24 $-1 $70 reversed single #
loop $-1 $-1 $71 $31 #
plane-surface $-1 -158.1707043538554 -11.627952910810835 102.19328210997176 0 1 0 -0.71933980857756763 0 0.69465836192734942 forward_v I I I I #
face $-1 $72 $73 $25 $-1 $74 forward single #
loop $-1 $75 $76 $32 #
cone-surface $-1 -62.772815162695068 -7.7866045388241893 13.524062556972051 0.71933980857756763 0 -0.69465836192734942 0.34732918096367471 0 0.35966990428878381 1 I I 0 1 0.5 forward I I I I #
face $-1 $77 $78 $26 $-1 $79 reversed single #
loop $-1 $-1 $80 $33 #
plane-surface $-1 -158.1707043538554 4.6877437427108273 102.19328210997176 0 1 0 -0.71933980857756763 0 0.69465836192734942 forward_v I I I I #
face $-1 $81 $82 $27 $-1 $83 forward single #
loop $-1 $84 $85 $34 #
cone-surface $-1 -62.772815162695068 8.5290921146974767 13.524062556972051 0.71933980857756763 0 -0.69465836192734942 0.34732918096367471 0 0.35966990428878381 1 I I 0 1 0.5 forward I I I I #
face $-1 $86 $87 $21 $-1 $88 reversed single #
loop $-1 $-1 $89 $35 #
plane-surface $-1 0 0 -15.659412990551347 0 0 1 1 0 0 forward_v I I I I #
coedge $-1 $90 $91 $92 $93 forward $36 $-1 #
face $-1 $94 $95 $22 $-1 $96 reversed single #
loop $-1 $-1 $97 $38 #
plane-surface $-1 -35.890318325621699 -17.329430758152384 0 0 -1 0 0 0 -1 forward_v I I I I #
coedge $-1 $98 $99 $100 $101 forward $39 $-1 #
face $-1 $102 $103 $23 $-1 $104 forward single #
loop $-1 $-1 $105 $41 #
plane-surface $-1 -64.859157078768277 0 0 1 0 0 0 0 -1 forward_v I I I I #
coedge $-1 $106 $107 $108 $109 forward $42 $-1 #
face $-1 $110 $111 $24 $-1 $112 reversed single #
loop $-1 $-1 $113 $44 #
plane-surface $-1 -64.859157078768277 -7.7866045388241858 12.083370485320117 -0.71933980857756763 0 0.69465836192734942 0.69465836192734942 0 0.71933980857756763 forward_v I I I I #
coedge $-1 $114 $115 $116 $117 reversed $45 $-1 #
face $-1 $-1 $118 $25 $-1 $119 forward single #
loop $-1 $120 $121 $47 #
cone-surface $-1 -62.233310306261892 -7.7866045388241893 13.003068785526539 0.71933980857756763 0 -0.69465836192734942 0.17366459048183736 0 0.17983495214439191 1 I I -0.70710678118654746 0.70710678118654746 0.25 forward I I I I #
loop $-1 $-1 $122 $32 #
coedge $-1 $76 $76 $123 $124 reversed $48 $-1 #
face $-1 $125 $126 $26 $-1 $127 reversed single #
loop $-1 $-1 $128 $50 #
plane-surface $-1 -64.859157078768277 8.5290921146974767 12.083370485320117 -0.71933980857756763 0 0.69465836192734942 0.69465836192734942 0 0.71933980857756763 forward_v I I I I #
coedge $-1 $129 $130 $131 $132 reversed $51 $-1 #
face $-1 $-1 $133 $27 $-1 $134 forward single #
loop $-1 $135 $136 $53 #
cone-surface $-1 -62.233310306261892 8.5290921146974767 13.003068785526539 0.71933980857756763 0 -0.69465836192734942 0.17366459048183736 0 0.17983495214439191 1 I I -0.70710678118654746 0.70710678118654746 0.25 forward I I I I #
loop $-1 $-1 $137 $34 #
coedge $-1 $85 $85 $138 $139 reversed $54 $-1 #
face $-1 $140 $141 $21 $-1 $142 reversed single #
loop $-1 $-1 $143 $56 #
plane-surface $-1 0 -33.660372443970402 0 0 1 0 0 0 1 forward_v I I I I #
coedge $-1 $144 $145 $146 $147 forward $57 $-1 #
coedge $-1 $148 $59 $149 $150 forward $36 $-1 #
coedge $-1 $59 $148 $151 $152 forward $36 $-1 #
coedge $-1 $153 $154 $59 $93 reversed $155 $-1 #
edge $-1 $156 -33.660372443970402 $157 33.660372443970402 $92 $158 forward 7 unknown #
face $-1 $159 $160 $22 $-1 $161 forward single #
loop $-1 $-1 $162 $60 #
plane-surface $-1 -33.540331097665579 -25.494901601061393 0 -1 0 0 0 0 1 forward_v I I I I #
coedge $-1 $163 $164 $165 $166 forward $61 $-1 #
coedge $-1 $167 $63 $168 $169 reversed $39 $-1 #
coedge $-1 $63 $167 $170 $171 reversed $39 $-1 #
coedge $-1 $164 $163 $63 $101 reversed $61 $-1 #
edge $-1 $172 -15.659412990551347 $173 15.659412990551347 $100 $174 forward 7 unknown #
face $-1 $175 $176 $23 $-1 $177 reversed single #
loop $-1 $-1 $178 $64 #
plane-surface $-1 0 0 15.659412990551347 0 0 1 1 0 0 forward_v I I I I #
coedge $-1 $179 $180 $107 $181 forward $65 $-1 #
coedge $-1 $182 $67 $183 $184 reversed $42 $-1 #
coedge $-1 $67 $182 $105 $181 reversed $42 $-1 #
coedge $-1 $185 $186 $67 $109 reversed $176 $-1 #
edge $-1 $187 -64.859157078768277 $188 64.859157078768277 $108 $189 forward 7 unknown #
face $-1 $190 $191 $24 $-1 $192 forward single #
loop $-1 $-1 $193 $68 #
plane-surface $-1 -158.1707043538554 -3.9452561668375363 102.19328210997176 0 -1 0 0.71933980857756763 0 -0.69465836192734942 forward_v I I I I #
coedge $-1 $194 $195 $196 $197 reversed $69 $-1 #
coedge $-1 $115 $71 $198 $199 reversed $45 $-1 #
coedge $-1 $71 $114 $194 $200 reversed $45 $-1 #
coedge $-1 $196 $201 $71 $117 forward $191 $-1 #
edge $-1 $202 14.226195098159423 $203 17.679539121728268 $116 $204 forward 7 unknown #
loop $-1 $-1 $123 $72 #
plane-surface $-1 -64.859157078768277 -7.7866045388241858 12.083370485320117 -0.71933980857756763 0 0.69465836192734942 0.69465836192734942 0 0.71933980857756763 forward_v I I I I #
loop $-1 $-1 $205 $47 #
coedge $-1 $121 $121 $122 $206 reversed $73 $-1 #
coedge $-1 $122 $122 $121 $206 forward $75 $-1 #
coedge $-1 $123 $123 $76 $124 forward $118 $-1 #
edge $-1 $207 0 $207 6.2831853071796004 $123 $208 forward 7 unknown #
face $-1 $209 $210 $26 $-1 $211 forward single #
loop $-1 $-1 $212 $77 #
plane-surface $-1 -158.1707043538554 12.370440486684126 102.19328210997176 0 -1 0 0.71933980857756763 0 -0.69465836192734942 forward_v I I I I #
coedge $-1 $213 $214 $215 $216 reversed $78 $-1 #
coedge $-1 $130 $80 $217 $218 reversed $51 $-1 #
coedge $-1 $80 $129 $213 $219 reversed $51 $-1 #
coedge $-1 $215 $220 $80 $132 forward $210 $-1 #
edge $-1 $221 14.226195098159423 $222 17.679539121728268 $131 $223 forward 7 unknown #
loop $-1 $-1 $138 $81 #
plane-surface $-1 -64.859157078768277 8.5290921146974767 12.083370485320117 -0.71933980857756763 0 0.69465836192734942 0.69465836192734942 0 0.71933980857756763 forward_v I I I I #
loop $-1 $-1 $224 $53 #
coedge $-1 $136 $136 $137 $225 reversed $82 $-1 #
coedge $-1 $137 $137 $136 $225 forward $84 $-1 #
coedge $-1 $138 $138 $85 $139 forward $133 $-1 #
edge $-1 $226 0 $226 6.2831853071796004 $138 $227 forward 7 unknown #
face $-1 $228 $229 $21 $-1 $230 reversed single #
loop $-1 $-1 $231 $86 #
plane-surface $-1 -64.859157078768277 0 0 1 0 0 0 0 -1 forward_v I I I I #
coedge $-1 $232 $151 $233 $234 forward $87 $-1 #
coedge $-1 $235 $89 $232 $236 forward $57 $-1 #
coedge $-1 $89 $235 $237 $238 forward $57 $-1 #
coedge $-1 $154 $153 $89 $147 reversed $155 $-1 #
edge $-1 $239 -33.660372443970402 $240 33.660372443970402 $146 $241 forward 7 unknown #
coedge $-1 $91 $90 $242 $243 forward $36 $-1 #
coedge $-1 $244 $245 $90 $150 reversed $229 $-1 #
edge $-1 $157 -64.859157078768277 $246 64.859157078768277 $149 $247 forward 7 unknown #
coedge $-1 $143 $248 $91 $152 reversed $87 $-1 #
edge $-1 $249 -64.859157078768277 $156 64.859157078768277 $151 $250 forward 7 unknown #
coedge $-1 $146 $92 $248 $251 forward $155 $-1 #
coedge $-1 $92 $146 $244 $252 reversed $155 $-1 #
loop $-1 $-1 $153 $228 #
vertex $-1 $93 $253 #
vertex $-1 $93 $254 #
straight-curve $-1 64.859157078768277 0 15.659412990551347 0 1 0 I I #
face $-1 $255 $256 $22 $-1 $257 reversed single #
loop $-1 $-1 $258 $94 #
plane-surface $-1 0 0 15.659412990551347 0 0 1 1 0 0 forward_v I I I I #
coedge $-1 $259 $260 $261 $262 reversed $95 $-1 #
coedge $-1 $100 $97 $263 $264 reversed $61 $-1 #
coedge $-1 $97 $100 $265 $266 reversed $61 $-1 #
coedge $-1 $260 $259 $97 $166 reversed $95 $-1 #
edge $-1 $267 -15.659412990551347 $268 15.659412990551347 $165 $269 forward 7 unknown #
coedge $-1 $99 $98 $270 $271 reversed $39 $-1 #
coedge $-1 $263 $272 $98 $169 forward $256 $-1 #
edge $-1 $273 -20.912921643439706 $173 -4.5819799576216873 $168 $274 forward 7 unknown #
coedge $-1 $275 $265 $99 $171 forward $160 $-1 #
edge $-1 $172 4.5819799576216873 $276 20.912921643439706 $170 $277 forward 7 unknown #
vertex $-1 $171 $278 #
vertex $-1 $169 $279 #
straight-curve $-1 -38.240305553577819 -17.329430758152384 0 0 0 -1 I I #
face $-1 $280 $281 $23 $-1 $282 reversed single #
loop $-1 $-1 $186 $102 #
plane-surface $-1 0 41.45459949894277 7.8760151936241485 0 0 1 1 0 0 forward_v I I I I #
coedge $-1 $283 $284 $182 $285 forward $103 $-1 #
coedge $-1 $286 $105 $284 $287 reversed $65 $-1 #
coedge $-1 $105 $286 $185 $288 reversed $65 $-1 #
edge $-1 $187 7.8760151936241485 $289 15.659412990551347 $105 $290 forward 7 unknown #
coedge $-1 $107 $106 $178 $285 reversed $42 $-1 #
coedge $-1 $291 $292 $106 $184 forward $293 $-1 #
edge $-1 $294 -15.659412990551347 $188 -7.8760151936241485 $183 $295 forward 7 unknown #
coedge $-1 $296 $108 $180 $288 forward $176 $-1 #
coedge $-1 $108 $296 $291 $297 forward $176 $-1 #
vertex $-1 $181 $298 #
vertex $-1 $184 $299 #
straight-curve $-1 0 33.660372443970402 7.8760151936241485 1 0 0 I I #
face $-1 $-1 $300 $24 $-1 $301 reversed single #
loop $-1 $-1 $116 $110 #
plane-surface $-1 0 0 15.659412990551347 0 0 1 1 0 0 forward_v I I I I #
coedge $-1 $302 $303 $304 $305 reversed $111 $-1 #
coedge $-1 $306 $113 $115 $200 forward $69 $-1 #
coedge $-1 $113 $306 $302 $307 forward $69 $-1 #
coedge $-1 $304 $116 $113 $197 forward $191 $-1 #
edge $-1 $203 -7.7346506413987424 $308 -0.051953897425443429 $196 $309 forward 7 unknown #
coedge $-1 $310 $311 $114 $199 forward $300 $-1 #
edge $-1 $312 -39.013270569665764 $202 -35.437228064434535 $198 $313 forward 7 unknown #
edge $-1 $203 -4.9712840337622151 $312 0 $115 $314 forward 7 unknown #
coedge $-1 $116 $304 $310 $315 forward $191 $-1 #
vertex $-1 $117 $316 #
vertex $-1 $117 $317 #
straight-curve $-1 -79.085352176927699 -11.627952910810835 15.659412990551346 1 0 0 I I #
coedge $-1 $205 $205 $-1 $318 reversed $120 $-1 #
edge $-1 $319 0 $319 6.2831853071796004 $121 $320 forward 7 unknown #
vertex $-1 $124 $321 #
ellipse-curve $-1 -63.132485066983854 -7.7866045388241893 13.871391737935729 -0.71933980857756763 0 0.69465836192734942 0.34732918096367471 0 0.35966990428878381 1 I I #
face $-1 $-1 $322 $26 $-1 $323 reversed single #
loop $-1 $-1 $131 $125 #
plane-surface $-1 0 0 15.659412990551347 0 0 1 1 0 0 forward_v I I I I #
coedge $-1 $324 $325 $326 $327 reversed $126 $-1 #
coedge $-1 $328 $128 $130 $219 forward $78 $-1 #
coedge $-1 $128 $328 $324 $329 forward $78 $-1 #
coedge $-1 $326 $131 $128 $216 forward $210 $-1 #
edge $-1 $222 0.4231976853620889 $330 8.1058944293353878 $215 $331 forward 7 unknown #
coedge $-1 $332 $333 $129 $218 forward $322 $-1 #
edge $-1 $334 -39.013270569665764 $221 -35.437228064434535 $217 $335 forward 7 unknown #
edge $-1 $222 -4.9712840337622151 $334 0 $130 $336 forward 7 unknown #
coedge $-1 $131 $326 $332 $337 forward $210 $-1 #
vertex $-1 $132 $338 #
vertex $-1 $132 $339 #
straight-curve $-1 -79.085352176927699 4.6877437427108273 15.659412990551346 1 0 0 I I #
coedge $-1 $224 $224 $-1 $340 reversed $135 $-1 #
edge $-1 $341 0 $341 6.2831853071796004 $136 $342 forward 7 unknown #
vertex $-1 $139 $343 #
ellipse-curve $-1 -63.132485066983854 8.5290921146974767 13.871391737935729 -0.71933980857756763 0 0.69465836192734942 0.34732918096367471 0 0.35966990428878381 1 I I #
face $-1 $-1 $155 $21 $-1 $344 reversed single #
loop $-1 $-1 $244 $140 #
plane-surface $-1 0 33.660372443970402 0 0 -1 0 0 0 -1 forward_v I I I I #
coedge $-1 $345 $242 $245 $346 forward $141 $-1 #
coedge $-1 $248 $143 $144 $236 reversed $87 $-1 #
coedge $-1 $242 $345 $143 $234 reversed $141 $-1 #
edge $-1 $249 -15.659412990551347 $347 15.659412990551347 $233 $348 forward 7 unknown #
coedge $-1 $145 $144 $345 $349 forward $57 $-1 #
edge $-1 $240 -64.859157078768277 $347 64.859157078768277 $232 $350 forward 7 unknown #
coedge $-1 $245 $244 $145 $238 reversed $229 $-1 #
edge $-1 $351 -64.859157078768277 $239 64.859157078768277 $237 $352 forward 7 unknown #
vertex $-1 $147 $353 #
vertex $-1 $251 $354 #
straight-curve $-1 64.859157078768277 0 -15.659412990551347 0 -1 0 I I #
coedge $-1 $231 $233 $148 $243 reversed $141 $-1 #
edge $-1 $246 -33.660372443970402 $249 33.660372443970402 $242 $355 forward 7 unknown #
coedge $-1 $237 $149 $154 $252 forward $229 $-1 #
coedge $-1 $149 $237 $231 $346 reversed $229 $-1 #
vertex $-1 $150 $356 #
straight-curve $-1 0 33.660372443970402 15.659412990551347 -1 0 0 I I #
coedge $-1 $151 $232 $153 $251 reversed $87 $-1 #
vertex $-1 $243 $357 #
straight-curve $-1 0 -33.660372443970402 15.659412990551347 1 0 0 I I #
edge $-1 $156 -15.659412990551347 $240 15.659412990551347 $153 $358 forward 7 unknown #
edge $-1 $157 -15.659412990551347 $239 15.659412990551347 $154 $359 forward 7 unknown #
point $-1 64.859157078768277 -33.660372443970402 15.659412990551347 #
point $-1 64.859157078768277 33.660372443970402 15.659412990551347 #
face $-1 $-1 $360 $22 $-1 $361 reversed single #
loop $-1 $-1 $362 $159 #
plane-surface $-1 0 0 -15.659412990551347 0 0 1 1 0 0 forward_v I I I I #
coedge $-1 $265 $275 $260 $363 forward $160 $-1 #
coedge $-1 $165 $162 $362 $364 reversed $95 $-1 #
coedge $-1 $162 $165 $258 $363 reversed $95 $-1 #
coedge $-1 $365 $366 $162 $262 forward $360 $-1 #
edge $-1 $367 -15.659412990551347 $368 15.659412990551347 $261 $369 forward 7 unknown #
coedge $-1 $362 $168 $163 $264 forward $256 $-1 #
edge $-1 $173 -20.29514639076697 $268 -15.595171934854729 $263 $370 forward 7 unknown #
coedge $-1 $170 $258 $164 $266 forward $160 $-1 #
edge $-1 $267 15.595171934854729 $172 20.29514639076697 $265 $371 forward 7 unknown #
vertex $-1 $266 $372 #
vertex $-1 $264 $373 #
straight-curve $-1 -33.540331097665579 -17.329430758152384 0 0 0 -1 I I #
coedge $-1 $366 $365 $167 $271 forward $360 $-1 #
edge $-1 $276 -15.659412990551347 $273 15.659412990551347 $270 $374 forward 7 unknown #
coedge $-1 $168 $362 $366 $375 forward $256 $-1 #
vertex $-1 $169 $376 #
straight-curve $-1 -38.240305553577819 -12.747450800530697 -15.659412990551347 0 1 0 I I #
coedge $-1 $258 $170 $365 $377 forward $160 $-1 #
vertex $-1 $377 $378 #
straight-curve $-1 -38.240305553577819 -12.747450800530697 15.659412990551347 0 -1 0 I I #
point $-1 -38.240305553577819 -17.329430758152384 15.659412990551347 #
point $-1 -38.240305553577819 -17.329430758152384 -15.659412990551347 #
face $-1 $-1 $293 $23 $-1 $379 reversed single #
loop $-1 $-1 $380 $175 #
plane-surface $-1 0 49.248826553915137 11.767714092087749 0 -1 0 0 0 -1 forward_v I I I I #
coedge $-1 $381 $178 $292 $382 forward $103 $-1 #
coedge $-1 $178 $381 $179 $287 forward $103 $-1 #
edge $-1 $289 -64.859157078768277 $294 64.859157078768277 $178 $383 forward 7 unknown #
coedge $-1 $180 $179 $384 $385 forward $65 $-1 #
edge $-1 $386 -49.248826553915137 $289 -33.660372443970402 $179 $387 forward 7 unknown #
edge $-1 $187 -7.7942270549723673 $388 7.7942270549723673 $180 $389 forward 7 unknown #
vertex $-1 $285 $390 #
straight-curve $-1 -64.859157078768277 33.660372443970402 0 0 0 1 I I #
coedge $-1 $391 $183 $186 $297 reversed $293 $-1 #
coedge $-1 $183 $391 $283 $382 reversed $293 $-1 #
loop $-1 $-1 $183 $280 #
vertex $-1 $382 $392 #
straight-curve $-1 64.859157078768277 33.660372443970402 0 0 0 -1 I I #
coedge $-1 $186 $185 $393 $394 forward $176 $-1 #
edge $-1 $395 -7.7942270549723673 $188 7.7942270549723673 $291 $396 forward 7 unknown #
point $-1 -64.859157078768277 33.660372443970402 7.8760151936241485 #
point $-1 64.859157078768277 33.660372443970402 7.8760151936241485 #
loop $-1 $-1 $198 $190 #
plane-surface $-1 -64.859157078768277 0 0 1 0 0 0 0 -1 forward_v I I I I #
coedge $-1 $303 $193 $195 $307 reversed $111 $-1 #
coedge $-1 $193 $302 $397 $398 reversed $111 $-1 #
coedge $-1 $201 $196 $193 $305 forward $191 $-1 #
edge $-1 $308 -17.679539121728268 $399 -14.226195098159423 $304 $400 forward 7 unknown #
coedge $-1 $195 $194 $311 $401 reversed $69 $-1 #
edge $-1 $402 0 $308 4.9712840337622151 $302 $403 forward 7 unknown #
vertex $-1 $197 $404 #
straight-curve $-1 -61.405813055199424 -3.8933022694120929 15.659412990551351 0 1 0 I I #
coedge $-1 $397 $198 $201 $315 reversed $300 $-1 #
coedge $-1 $198 $397 $306 $401 forward $300 $-1 #
vertex $-1 $199 $405 #
straight-curve $-1 -64.859157078768277 -11.627952910810835 51.096641054985881 0 0 1 I I #
straight-curve $-1 -64.859157078768277 -11.627952910810835 12.083370485320117 -0.69465836192734942 0 -0.71933980857756763 I I #
edge $-1 $399 3.9452561668375363 $202 11.627952910810835 $310 $406 forward 7 unknown #
point $-1 -64.859157078768277 -11.627952910810835 15.659412990551347 #
point $-1 -61.405813055199431 -11.627952910810835 15.659412990551347 #
edge $-1 $407 1 $407 0 $205 $-1 forward 7 unknown #
vertex $-1 $206 $408 #
ellipse-curve $-1 -62.413145258406281 -7.7866045388241893 13.176733376008377 -0.71933980857756763 0 0.69465836192734942 0.34732918096367471 0 0.35966990428878381 1 I I #
point $-1 -62.785155886020178 -7.7866045388241893 14.231061642224509 #
loop $-1 $-1 $217 $209 #
plane-surface $-1 -64.859157078768277 0 0 1 0 0 0 0 -1 forward_v I I I I #
coedge $-1 $325 $212 $214 $329 reversed $126 $-1 #
coedge $-1 $212 $324 $409 $410 reversed $126 $-1 #
coedge $-1 $220 $215 $212 $327 forward $210 $-1 #
edge $-1 $330 -17.679539121728268 $411 -14.226195098159423 $326 $412 forward 7 unknown #
coedge $-1 $214 $213 $333 $413 reversed $78 $-1 #
edge $-1 $414 0 $330 4.9712840337622151 $324 $415 forward 7 unknown #
vertex $-1 $216 $416 #
straight-curve $-1 -61.405813055199424 4.2645460573487384 15.659412990551351 0 1 0 I I #
coedge $-1 $409 $217 $220 $337 reversed $322 $-1 #
coedge $-1 $217 $409 $328 $413 forward $322 $-1 #
vertex $-1 $218 $417 #
straight-curve $-1 -64.859157078768277 4.6877437427108273 51.096641054985881 0 0 1 I I #
straight-curve $-1 -64.859157078768277 4.6877437427108273 12.083370485320117 -0.69465836192734942 0 -0.71933980857756763 I I #
edge $-1 $411 -12.370440486684126 $221 -4.6877437427108273 $332 $418 forward 7 unknown #
point $-1 -64.859157078768277 4.6877437427108273 15.659412990551347 #
point $-1 -61.405813055199431 4.6877437427108273 15.659412990551347 #
edge $-1 $419 1 $419 0 $224 $-1 forward 7 unknown #
vertex $-1 $225 $420 #
ellipse-curve $-1 -62.413145258406281 8.5290921146974767 13.176733376008377 -0.71933980857756763 0 0.69465836192734942 0.34732918096367471 0 0.35966990428878381 1 I I #
point $-1 -62.785155886020178 8.5290921146974767 14.231061642224509 #
plane-surface $-1 64.859157078768277 0 0 -1 0 0 0 0 1 forward_v I I I I #
coedge $-1 $233 $231 $235 $349 reversed $141 $-1 #
edge $-1 $246 -15.659412990551347 $351 15.659412990551347 $245 $421 forward 7 unknown #
vertex $-1 $349 $422 #
straight-curve $-1 -64.859157078768277 -33.660372443970402 0 0 0 -1 I I #
edge $-1 $347 -33.660372443970402 $351 33.660372443970402 $345 $423 forward 7 unknown #
straight-curve $-1 0 -33.660372443970402 -15.659412990551347 -1 0 0 I I #
vertex $-1 $238 $424 #
straight-curve $-1 0 33.660372443970402 -15.659412990551347 1 0 0 I I #
point $-1 64.859157078768277 33.660372443970402 -15.659412990551347 #
point $-1 64.859157078768277 -33.660372443970402 -15.659412990551347 #
straight-curve $-1 -64.859157078768277 0 15.659412990551347 0 -1 0 I I #
point $-1 -64.859157078768277 33.660372443970402 15.659412990551347 #
point $-1 -64.859157078768277 -33.660372443970402 15.659412990551347 #
straight-curve $-1 64.859157078768277 -33.660372443970402 0 0 0 -1 I I #
straight-curve $-1 64.859157078768277 33.660372443970402 0 0 0 -1 I I #
loop $-1 $-1 $261 $255 #
plane-surface $-1 0 -33.660372443970402 0 0 1 0 0 0 1 forward_v I I I I #
coedge $-1 $272 $263 $259 $364 forward $256 $-1 #
edge $-1 $368 -20.912921643439706 $267 -4.5819799576216873 $258 $425 forward 7 unknown #
edge $-1 $268 4.5819799576216873 $367 20.912921643439706 $362 $426 forward 7 unknown #
coedge $-1 $270 $261 $275 $377 reversed $360 $-1 #
coedge $-1 $261 $270 $272 $375 reversed $360 $-1 #
vertex $-1 $375 $427 #
vertex $-1 $262 $428 #
straight-curve $-1 -33.540331097665579 -33.660372443970402 0 0 0 1 I I #
straight-curve $-1 -17.94515916281085 -17.329430758152384 -15.659412990551347 1 0 0 I I #
straight-curve $-1 -17.94515916281085 -17.329430758152384 15.659412990551347 -1 0 0 I I #
point $-1 -33.540331097665579 -17.329430758152384 15.659412990551347 #
point $-1 -33.540331097665579 -17.329430758152384 -15.659412990551347 #
straight-curve $-1 -38.240305553577819 -33.660372443970402 0 0 0 -1 I I #
edge $-1 $367 33.540331097665579 $273 38.240305553577819 $366 $429 forward 7 unknown #
point $-1 -38.240305553577819 -33.660372443970402 -15.659412990551347 #
edge $-1 $276 -38.240305553577819 $368 -33.540331097665579 $365 $430 forward 7 unknown #
point $-1 -38.240305553577819 -33.660372443970402 15.659412990551347 #
plane-surface $-1 64.859157078768277 0 0 -1 0 0 0 0 1 forward_v I I I I #
coedge $-1 $393 $431 $391 $432 forward $281 $-1 #
coedge $-1 $284 $283 $431 $433 forward $103 $-1 #
edge $-1 $294 33.660372443970402 $434 49.248826553915137 $292 $435 forward 7 unknown #
straight-curve $-1 0 33.660372443970402 15.659412990551347 1 0 0 I I #
coedge $-1 $431 $393 $286 $385 reversed $281 $-1 #
edge $-1 $386 -3.8916988984636003 $388 3.8916988984636003 $384 $436 forward 7 unknown #
vertex $-1 $433 $437 #
straight-curve $-1 -64.859157078768277 0 15.659412990551347 0 -1 0 I I #
vertex $-1 $394 $438 #
straight-curve $-1 -64.859157078768277 41.45459949894277 7.8760151936241485 0 1 0 I I #
point $-1 -64.859157078768277 33.660372443970402 15.659412990551347 #
coedge $-1 $292 $291 $380 $432 reversed $293 $-1 #
point $-1 64.859157078768277 33.660372443970402 15.659412990551347 #
coedge $-1 $384 $380 $296 $394 reversed $281 $-1 #
edge $-1 $388 -64.859157078768277 $395 64.859157078768277 $393 $439 forward 7 unknown #
vertex $-1 $297 $440 #
straight-curve $-1 64.859157078768277 41.45459949894277 7.8760151936241485 0 -1 0 I I #
coedge $-1 $311 $310 $303 $398 forward $300 $-1 #
edge $-1 $399 35.437228064434535 $402 39.013270569665764 $397 $441 forward 7 unknown #
vertex $-1 $315 $442 #
straight-curve $-1 -79.085352176927699 -3.9452561668375363 15.659412990551346 -1 0 0 I I #
edge $-1 $402 0.051953897425443429 $312 7.7346506413987424 $311 $443 forward 7 unknown #
vertex $-1 $401 $444 #
straight-curve $-1 -64.859157078768277 -3.9452561668375363 12.083370485320117 0.69465836192734942 0 0.71933980857756763 I I #
point $-1 -61.405813055199431 -3.9452561668375363 15.659412990551347 #
point $-1 -64.859157078768277 -11.627952910810835 12.083370485320117 #
straight-curve $-1 -64.859157078768277 0 15.659412990551347 0 -1 0 I I #
vertex $-1 $318 $445 #
point $-1 -62.065816077442612 -7.7866045388241893 13.53640328029716 #
coedge $-1 $333 $332 $325 $410 forward $322 $-1 #
edge $-1 $411 35.437228064434535 $414 39.013270569665764 $409 $446 forward 7 unknown #
vertex $-1 $337 $447 #
straight-curve $-1 -79.085352176927699 12.370440486684126 15.659412990551346 -1 0 0 I I #
edge $-1 $414 -8.1058944293353878 $334 -0.4231976853620889 $333 $448 forward 7 unknown #
vertex $-1 $413 $449 #
straight-curve $-1 -64.859157078768277 12.370440486684126 12.083370485320117 0.69465836192734942 0 0.71933980857756763 I I #
point $-1 -61.405813055199431 12.370440486684126 15.659412990551347 #
point $-1 -64.859157078768277 4.6877437427108273 12.083370485320117 #
straight-curve $-1 -64.859157078768277 0 15.659412990551347 0 -1 0 I I #
vertex $-1 $340 $450 #
point $-1 -62.065816077442612 8.5290921146974767 13.53640328029716 #
straight-curve $-1 -64.859157078768277 33.660372443970402 0 0 0 -1 I I #
point $-1 -64.859157078768277 -33.660372443970402 -15.659412990551347 #
straight-curve $-1 -64.859157078768277 0 -15.659412990551347 0 1 0 I I #
point $-1 -64.859157078768277 33.660372443970402 -15.659412990551347 #
straight-curve $-1 -33.540331097665579 -12.747450800530697 15.659412990551347 0 1 0 I I #
straight-curve $-1 -33.540331097665579 -12.747450800530697 -15.659412990551347 0 -1 0 I I #
point $-1 -33.540331097665579 -33.660372443970402 -15.659412990551347 #
point $-1 -33.540331097665579 -33.660372443970402 15.659412990551347 #
straight-curve $-1 0 -33.660372443970402 -15.659412990551347 -1 0 0 I I #
straight-curve $-1 0 -33.660372443970402 15.659412990551347 1 0 0 I I #
coedge $-1 $380 $384 $381 $433 reversed $281 $-1 #
edge $-1 $434 -3.8916988984636003 $395 3.8916988984636003 $391 $451 forward 7 unknown #
edge $-1 $434 -64.859157078768277 $386 64.859157078768277 $431 $452 forward 7 unknown #
vertex $-1 $382 $453 #
straight-curve $-1 64.859157078768277 0 15.659412990551347 0 1 0 I I #
straight-curve $-1 -64.859157078768277 49.248826553915137 11.767714092087749 0 0 -1 I I #
point $-1 -64.859157078768277 49.248826553915137 15.659412990551349 #
point $-1 -64.859157078768277 49.248826553915137 7.8760151936241485 #
straight-curve $-1 0 49.248826553915137 7.8760151936241485 1 0 0 I I #
point $-1 64.859157078768277 49.248826553915137 7.8760151936241485 #
straight-curve $-1 -64.859157078768277 -3.9452561668375363 51.096641054985881 0 0 -1 I I #
point $-1 -64.859157078768277 -3.9452561668375363 15.659412990551347 #
straight-curve $-1 -64.859157078768277 -3.8933022694120929 12.083370485320124 0 -1 0 I I #
point $-1 -64.859157078768277 -3.9452561668375363 12.083370485320117 #
point $-1 -62.053475354117502 -7.7866045388241893 12.829404195044701 #
straight-curve $-1 -64.859157078768277 12.370440486684126 51.096641054985881 0 0 -1 I I #
point $-1 -64.859157078768277 12.370440486684126 15.659412990551347 #
straight-curve $-1 -64.859157078768277 4.2645460573487384 12.083370485320124 0 -1 0 I I #
point $-1 -64.859157078768277 12.370440486684126 12.083370485320117 #
point $-1 -62.053475354117502 8.5290921146974767 12.829404195044701 #
straight-curve $-1 64.859157078768277 49.248826553915137 11.767714092087749 0 0 -1 I I #
straight-curve $-1 0 49.248826553915137 15.659412990551349 -1 0 0 I I #
point $-1 64.859157078768277 49.248826553915137 15.659412990551349 #
End-of-ACIS-data 