500 0 11 0           
7 Unknown 11 ACIS 5.0 NT 24 Thu Mar 25 23:10:06 1999 
-1 9.9999999999999995e-007 1e-010 
body $-1 $11 $-1 $12 #
body $-1 $13 $-1 $14 #
body $-1 $15 $-1 $16 #
body $-1 $17 $-1 $18 #
body $-1 $19 $-1 $20 #
body $-1 $21 $-1 $22 #
body $-1 $23 $-1 $24 #
body $-1 $25 $-1 $26 #
body $-1 $27 $-1 $28 #
body $-1 $29 $-1 $30 #
body $-1 $31 $-1 $32 #
lump $-1 $-1 $33 $0 #
transform $-1 1 0 0 0 1 0 0 0 1 42.108218634601883 18.119371962772291 7.0814135366454654 1 rotate no_reflect no_shear #
lump $-1 $-1 $34 $1 #
transform $-1 1 0 0 0 1 0 0 0 1 42.108218634601883 18.119371962772291 7.0814135366454654 1 rotate no_reflect no_shear #
lump $-1 $-1 $35 $2 #
transform $-1 1 0 0 0 1 0 0 0 1 42.108218634601883 18.119371962772291 7.0814135366454654 1 rotate no_reflect no_shear #
lump $-1 $-1 $36 $3 #
transform $-1 1 0 0 0 1 0 0 0 1 42.108218634601883 18.119371962772291 7.0814135366454654 1 rotate no_reflect no_shear #
lump $-1 $-1 $37 $4 #
transform $-1 1 0 0 0 1 0 0 0 1 42.108218634601883 18.119371962772291 7.0814135366454654 1 rotate no_reflect no_shear #
lump $-1 $-1 $38 $5 #
transform $-1 1 0 0 0 1 0 0 0 1 42.108218634601883 18.119371962772291 7.0814135366454654 1 rotate no_reflect no_shear #
lump $-1 $-1 $39 $6 #
transform $-1 1 0 0 0 1 0 0 0 1 42.108218634601883 18.119371962772291 7.0814135366454654 1 rotate no_reflect no_shear #
lump $-1 $-1 $40 $7 #
transform $-1 1 0 0 0 1 0 0 0 1 42.108218634601883 18.119371962772291 7.0814135366454654 1 rotate no_reflect no_shear #
lump $-1 $-1 $41 $8 #
transform $-1 1 0 0 0 1 0 0 0 1 42.108218634601883 18.119371962772291 7.0814135366454654 1 rotate no_reflect no_shear #
lump $-1 $-1 $42 $9 #
transform $-1 1 0 0 0 1 0 0 0 1 42.108218634601883 18.119371962772291 7.0814135366454654 1 rotate no_reflect no_shear #
lump $-1 $-1 $43 $10 #
transform $-1 1 0 0 0 1 0 0 0 1 42.108218634601883 18.119371962772291 7.0814135366454654 1 rotate no_reflect no_shear #
shell $-1 $-1 $-1 $44 $-1 $11 #
shell $-1 $-1 $-1 $45 $-1 $13 #
shell $-1 $-1 $-1 $46 $-1 $15 #
shell $-1 $-1 $-1 $47 $-1 $17 #
shell $-1 $-1 $-1 $48 $-1 $19 #
shell $-1 $-1 $-1 $49 $-1 $21 #
shell $-1 $-1 $-1 $50 $-1 $23 #
shell $-1 $-1 $-1 $51 $-1 $25 #
shell $-1 $-1 $-1 $52 $-1 $27 #
shell $-1 $-1 $-1 $53 $-1 $29 #
shell $-1 $-1 $-1 $54 $-1 $31 #
face $-1 $55 $56 $33 $-1 $57 forward single #
face $-1 $58 $59 $34 $-1 $60 forward single #
face $-1 $61 $62 $35 $-1 $63 forward single #
face $-1 $64 $65 $36 $-1 $66 reversed single #
face $-1 $67 $68 $37 $-1 $69 forward single #
face $-1 $70 $71 $38 $-1 $72 forward single #
face $-1 $73 $74 $39 $-1 $75 forward single #
face $-1 $76 $77 $40 $-1 $78 reversed single #
face $-1 $79 $80 $41 $-1 $81 forward single #
face $-1 $82 $83 $42 $-1 $84 forward single #
face $-1 $85 $86 $43 $-1 $87 forward single #
face $-1 $88 $89 $33 $-1 $90 reversed single #
loop $-1 $-1 $91 $44 #
plane-surface $-1 0 0 7.0814135366454654 0 0 1 1 0 0 forward_v I I I I #
face $-1 $92 $93 $34 $-1 $94 reversed single #
loop $-1 $-1 $95 $45 #
plane-surface $-1 0 -13.992788280441427 3.8221964398659494 0 0 1 1 0 0 forward_v I I I I #
face $-1 $96 $97 $35 $-1 $98 reversed single #
loop $-1 $-1 $99 $46 #
plane-surface $-1 0 13.992788280441431 3.8221964398659494 0 0 1 1 0 0 forward_v I I I I #
face $-1 $100 $101 $36 $-1 $102 reversed single #
loop $-1 $-1 $103 $47 #
plane-surface $-1 -42.10821863460189 6.880308912732179 0.61170756793316627 -0.71933980857756763 0 0.69465836192734942 0.69465836192734942 0 0.71933980857756763 forward_v I I I I #
face $-1 $104 $105 $37 $-1 $106 forward single #
loop $-1 $107 $108 $48 #
cone-surface $-1 -38.624687589314767 5.0887715015051498 3.4992313713256369 0.71933980857756763 0 -0.69465836192734942 0.17366459048183736 0 0.17983495214439191 1 I I 0 1 0.25 forward I I I I #
face $-1 $109 $110 $38 $-1 $111 forward single #
loop $-1 $112 $113 $49 #
cone-surface $-1 -38.624687589314767 6.880308912732179 3.4992313713256369 0.71933980857756763 0 -0.69465836192734942 0.17366459048183736 0 0.17983495214439191 1 I I 0 1 0.25 forward I I I I #
face $-1 $114 $115 $39 $-1 $116 forward single #
loop $-1 $117 $118 $50 #
cone-surface $-1 -38.624687589314767 8.6718463239592083 3.4992313713256369 0.71933980857756763 0 -0.69465836192734942 0.17366459048183736 0 0.17983495214439191 1 I I 0 1 0.25 forward I I I I #
face $-1 $119 $120 $40 $-1 $121 reversed single #
loop $-1 $-1 $122 $51 #
plane-surface $-1 44.186802138133189 3.8944132273537946 119.6935957930294 0 1 0 0.71933980857756763 0 0.69465836192734942 forward_v I I I I #
face $-1 $123 $124 $41 $-1 $125 forward single #
loop $-1 $126 $127 $52 #
cone-surface $-1 38.62468758931476 5.0887715015051498 3.4992313713256404 -0.71933980857756763 0 -0.69465836192734942 0.17366459048183736 0 -0.17983495214439191 1 I I 0 1 0.25 forward I I I I #
face $-1 $128 $129 $42 $-1 $130 forward single #
loop $-1 $131 $132 $53 #
cone-surface $-1 38.62468758931476 6.880308912732179 3.4992313713256404 -0.71933980857756763 0 -0.69465836192734942 0.17366459048183736 0 -0.17983495214439191 1 I I 0 1 0.25 forward I I I I #
face $-1 $133 $134 $43 $-1 $135 forward single #
loop $-1 $136 $137 $54 #
cone-surface $-1 38.62468758931476 8.6718463239592083 3.4992313713256404 -0.71933980857756763 0 -0.69465836192734942 0.17366459048183736 0 -0.17983495214439191 1 I I 0 1 0.25 forward I I I I #
face $-1 $138 $139 $33 $-1 $140 reversed single #
loop $-1 $-1 $141 $55 #
plane-surface $-1 0 0 -7.0814135366454654 0 0 1 1 0 0 forward_v I I I I #
coedge $-1 $142 $143 $144 $145 forward $56 $-1 #
face $-1 $146 $147 $34 $-1 $148 reversed single #
loop $-1 $-1 $149 $58 #
plane-surface $-1 0 -13.992788280441427 0.82219643986595026 0 0 1 1 0 0 forward_v I I I I #
coedge $-1 $150 $151 $152 $153 reversed $59 $-1 #
face $-1 $154 $155 $35 $-1 $156 reversed single #
loop $-1 $-1 $157 $61 #
plane-surface $-1 0 13.992788280441431 0.82219643986595026 0 0 1 1 0 0 forward_v I I I I #
coedge $-1 $158 $159 $160 $161 reversed $62 $-1 #
face $-1 $162 $163 $36 $-1 $164 forward single #
loop $-1 $-1 $165 $64 #
plane-surface $-1 -102.68845449891566 3.8944132273537946 59.113359928715631 0 1 0 -0.71933980857756763 0 0.69465836192734942 forward_v I I I I #
coedge $-1 $166 $167 $168 $169 reversed $65 $-1 #
face $-1 $-1 $170 $37 $-1 $171 forward single #
loop $-1 $172 $173 $67 #
cone-surface $-1 -38.175100208953786 5.0887715015051498 3.0650698951210433 0.71933980857756763 0 -0.69465836192734942 0.086832295240918678 0 0.089917476072195954 1 I I -0.70710678118654746 0.70710678118654746 0.125 forward I I I I #
loop $-1 $-1 $174 $48 #
coedge $-1 $108 $108 $175 $176 reversed $68 $-1 #
face $-1 $-1 $177 $38 $-1 $178 forward single #
loop $-1 $179 $180 $70 #
cone-surface $-1 -38.175100208953786 6.880308912732179 3.0650698951210433 0.71933980857756763 0 -0.69465836192734942 0.086832295240918678 0 0.089917476072195954 1 I I -0.70710678118654746 0.70710678118654746 0.125 forward I I I I #
loop $-1 $-1 $181 $49 #
coedge $-1 $113 $113 $182 $183 reversed $71 $-1 #
face $-1 $-1 $184 $39 $-1 $185 forward single #
loop $-1 $186 $187 $73 #
cone-surface $-1 -38.175100208953786 8.6718463239592083 3.0650698951210433 0.71933980857756763 0 -0.69465836192734942 0.086832295240918678 0 0.089917476072195954 1 I I -0.70710678118654746 0.70710678118654746 0.125 forward I I I I #
loop $-1 $-1 $188 $50 #
coedge $-1 $118 $118 $189 $190 reversed $74 $-1 #
face $-1 $191 $192 $40 $-1 $193 forward single #
loop $-1 $-1 $194 $76 #
plane-surface $-1 -16.393433726180582 6.880308912732179 61.191943432246937 0.71933980857756763 0 0.69465836192734942 0.69465836192734942 0 -0.71933980857756763 forward_v I I I I #
coedge $-1 $195 $196 $197 $198 reversed $77 $-1 #
face $-1 $-1 $199 $41 $-1 $200 forward single #
loop $-1 $201 $202 $79 #
cone-surface $-1 38.175100208953779 5.0887715015051498 3.0650698951210469 -0.71933980857756763 0 -0.69465836192734942 0.086832295240918678 0 -0.089917476072195954 1 I I -0.70710678118654746 0.70710678118654746 0.125 forward I I I I #
loop $-1 $-1 $203 $52 #
coedge $-1 $127 $127 $204 $205 reversed $80 $-1 #
face $-1 $-1 $206 $42 $-1 $207 forward single #
loop $-1 $208 $209 $82 #
cone-surface $-1 38.175100208953779 6.880308912732179 3.0650698951210469 -0.71933980857756763 0 -0.69465836192734942 0.086832295240918678 0 -0.089917476072195954 1 I I -0.70710678118654746 0.70710678118654746 0.125 forward I I I I #
loop $-1 $-1 $210 $53 #
coedge $-1 $132 $132 $211 $212 reversed $83 $-1 #
face $-1 $-1 $213 $43 $-1 $214 forward single #
loop $-1 $215 $216 $85 #
cone-surface $-1 38.175100208953779 8.6718463239592083 3.0650698951210469 -0.71933980857756763 0 -0.69465836192734942 0.086832295240918678 0 -0.089917476072195954 1 I I -0.70710678118654746 0.70710678118654746 0.125 forward I I I I #
loop $-1 $-1 $217 $54 #
coedge $-1 $137 $137 $218 $219 reversed $86 $-1 #
face $-1 $220 $221 $33 $-1 $222 reversed single #
loop $-1 $-1 $223 $88 #
plane-surface $-1 0 -18.119371962772291 0 0 1 0 0 0 1 forward_v I I I I #
coedge $-1 $224 $225 $226 $227 forward $89 $-1 #
coedge $-1 $228 $91 $229 $230 forward $56 $-1 #
coedge $-1 $91 $228 $231 $232 forward $56 $-1 #
coedge $-1 $233 $234 $91 $145 reversed $235 $-1 #
edge $-1 $236 -18.119371962772291 $237 18.119371962772291 $144 $238 forward 7 unknown #
face $-1 $239 $240 $34 $-1 $241 reversed single #
loop $-1 $-1 $242 $92 #
plane-surface $-1 0 -9.8662045981105635 2.3221964398659498 0 -1 0 0 0 -1 forward_v I I I I #
coedge $-1 $243 $244 $245 $246 reversed $93 $-1 #
coedge $-1 $247 $95 $248 $249 forward $59 $-1 #
coedge $-1 $95 $247 $250 $251 reversed $59 $-1 #
coedge $-1 $252 $253 $95 $153 forward $254 $-1 #
edge $-1 $255 2.8698104578898498 $256 11.122977822551578 $152 $257 forward 7 unknown #
face $-1 $258 $259 $35 $-1 $260 reversed single #
loop $-1 $-1 $261 $96 #
plane-surface $-1 0 9.866204598110567 2.3221964398659498 0 1 0 0 0 1 forward_v I I I I #
coedge $-1 $262 $263 $264 $265 reversed $97 $-1 #
coedge $-1 $266 $99 $267 $268 reversed $62 $-1 #
coedge $-1 $99 $266 $261 $269 forward $62 $-1 #
coedge $-1 $270 $271 $99 $161 forward $259 $-1 #
edge $-1 $272 -11.122977822551579 $273 -2.8698104578898516 $160 $274 forward 7 unknown #
face $-1 $275 $276 $36 $-1 $277 reversed single #
loop $-1 $-1 $278 $100 #
plane-surface $-1 0 9.866204598110567 2.3221964398659498 0 1 0 0 0 1 forward_v I I I I #
coedge $-1 $279 $280 $281 $282 reversed $101 $-1 #
coedge $-1 $283 $103 $278 $284 forward $65 $-1 #
coedge $-1 $103 $283 $279 $285 forward $65 $-1 #
coedge $-1 $281 $286 $103 $169 forward $276 $-1 #
edge $-1 $287 -6.426050141744474 $288 -0.45425877098770506 $168 $289 forward 7 unknown #
loop $-1 $-1 $175 $104 #
plane-surface $-1 -42.10821863460189 6.880308912732179 0.61170756793316627 -0.71933980857756763 0 0.69465836192734942 0.69465836192734942 0 0.71933980857756763 forward_v I I I I #
loop $-1 $-1 $290 $67 #
coedge $-1 $173 $173 $174 $291 reversed $105 $-1 #
coedge $-1 $174 $174 $173 $291 forward $107 $-1 #
coedge $-1 $175 $175 $108 $176 forward $170 $-1 #
edge $-1 $292 0 $292 6.2831853071796004 $175 $293 forward 7 unknown #
loop $-1 $-1 $182 $109 #
plane-surface $-1 -42.10821863460189 6.880308912732179 0.61170756793316627 -0.71933980857756763 0 0.69465836192734942 0.69465836192734942 0 0.71933980857756763 forward_v I I I I #
loop $-1 $-1 $294 $70 #
coedge $-1 $180 $180 $181 $295 reversed $110 $-1 #
coedge $-1 $181 $181 $180 $295 forward $112 $-1 #
coedge $-1 $182 $182 $113 $183 forward $177 $-1 #
edge $-1 $296 0 $296 6.2831853071796004 $182 $297 forward 7 unknown #
loop $-1 $-1 $189 $114 #
plane-surface $-1 -42.10821863460189 6.880308912732179 0.61170756793316627 -0.71933980857756763 0 0.69465836192734942 0.69465836192734942 0 0.71933980857756763 forward_v I I I I #
loop $-1 $-1 $298 $73 #
coedge $-1 $187 $187 $188 $299 reversed $115 $-1 #
coedge $-1 $188 $188 $187 $299 forward $117 $-1 #
coedge $-1 $189 $189 $118 $190 forward $184 $-1 #
edge $-1 $300 0 $300 6.2831853071796004 $189 $301 forward 7 unknown #
face $-1 $302 $303 $40 $-1 $304 forward single #
loop $-1 $-1 $305 $119 #
plane-surface $-1 0 0 7.0814135366454654 0 0 1 1 0 0 forward_v I I I I #
coedge $-1 $306 $307 $308 $309 reversed $120 $-1 #
coedge $-1 $196 $122 $310 $311 reversed $77 $-1 #
coedge $-1 $122 $195 $306 $312 reversed $77 $-1 #
coedge $-1 $308 $313 $122 $198 forward $314 $-1 #
edge $-1 $315 52.765384359869238 $316 59.235090328581535 $197 $317 forward 7 unknown #
loop $-1 $-1 $204 $123 #
plane-surface $-1 -16.393433726180582 6.880308912732179 61.191943432246937 0.71933980857756763 0 0.69465836192734942 0.69465836192734942 0 -0.71933980857756763 forward_v I I I I #
loop $-1 $-1 $318 $79 #
coedge $-1 $202 $202 $203 $319 reversed $124 $-1 #
coedge $-1 $203 $203 $202 $319 forward $126 $-1 #
coedge $-1 $204 $204 $127 $205 forward $199 $-1 #
edge $-1 $320 0 $320 6.2831853071796004 $204 $321 forward 7 unknown #
loop $-1 $-1 $211 $128 #
plane-surface $-1 -16.393433726180582 6.880308912732179 61.191943432246937 0.71933980857756763 0 0.69465836192734942 0.69465836192734942 0 -0.71933980857756763 forward_v I I I I #
loop $-1 $-1 $322 $82 #
coedge $-1 $209 $209 $210 $323 reversed $129 $-1 #
coedge $-1 $210 $210 $209 $323 forward $131 $-1 #
coedge $-1 $211 $211 $132 $212 forward $206 $-1 #
edge $-1 $324 0 $324 6.2831853071796004 $211 $325 forward 7 unknown #
loop $-1 $-1 $218 $133 #
plane-surface $-1 -16.393433726180582 6.880308912732179 61.191943432246937 0.71933980857756763 0 0.69465836192734942 0.69465836192734942 0 -0.71933980857756763 forward_v I I I I #
loop $-1 $-1 $326 $85 #
coedge $-1 $216 $216 $217 $327 reversed $134 $-1 #
coedge $-1 $217 $217 $216 $327 forward $136 $-1 #
coedge $-1 $218 $218 $137 $219 forward $213 $-1 #
edge $-1 $328 0 $328 6.2831853071796004 $218 $329 forward 7 unknown #
face $-1 $330 $331 $33 $-1 $332 reversed single #
loop $-1 $-1 $333 $138 #
plane-surface $-1 -42.108218634601883 0 0 1 0 0 0 0 -1 forward_v I I I I #
coedge $-1 $334 $231 $335 $336 forward $139 $-1 #
coedge $-1 $337 $141 $334 $338 forward $89 $-1 #
coedge $-1 $141 $337 $339 $340 forward $89 $-1 #
coedge $-1 $234 $233 $141 $227 reversed $235 $-1 #
edge $-1 $341 -18.119371962772291 $342 18.119371962772291 $226 $343 forward 7 unknown #
coedge $-1 $143 $142 $344 $345 forward $56 $-1 #
coedge $-1 $346 $347 $142 $230 reversed $331 $-1 #
edge $-1 $237 -42.108218634601883 $348 42.108218634601883 $229 $349 forward 7 unknown #
coedge $-1 $223 $350 $143 $232 reversed $139 $-1 #
edge $-1 $351 -42.108218634601883 $236 42.108218634601883 $231 $352 forward 7 unknown #
coedge $-1 $226 $144 $350 $353 forward $235 $-1 #
coedge $-1 $144 $226 $346 $354 reversed $235 $-1 #
loop $-1 $-1 $233 $330 #
vertex $-1 $145 $355 #
vertex $-1 $145 $356 #
straight-curve $-1 42.108218634601883 0 7.0814135366454654 0 1 0 I I #
face $-1 $357 $358 $34 $-1 $359 reversed single #
loop $-1 $-1 $360 $146 #
plane-surface $-1 -42.108218634601883 0 0 1 0 0 0 0 -1 forward_v I I I I #
coedge $-1 $361 $248 $253 $362 reversed $147 $-1 #
coedge $-1 $363 $149 $364 $365 reversed $93 $-1 #
coedge $-1 $149 $363 $361 $366 forward $93 $-1 #
coedge $-1 $253 $252 $149 $246 forward $254 $-1 #
edge $-1 $367 -11.122977822551578 $368 -2.8698104578898498 $245 $369 forward 7 unknown #
coedge $-1 $151 $150 $360 $370 reversed $59 $-1 #
coedge $-1 $242 $371 $150 $249 reversed $147 $-1 #
edge $-1 $255 -42.108218634601883 $372 42.108218634601883 $248 $373 forward 7 unknown #
coedge $-1 $374 $375 $151 $251 forward $358 $-1 #
edge $-1 $256 -42.108218634601883 $376 42.108218634601883 $250 $377 forward 7 unknown #
coedge $-1 $245 $152 $375 $378 forward $254 $-1 #
coedge $-1 $152 $245 $242 $362 forward $254 $-1 #
loop $-1 $-1 $152 $357 #
vertex $-1 $153 $379 #
vertex $-1 $378 $380 #
straight-curve $-1 42.108218634601883 -6.9963941402207137 3.8221964398659494 0 -1 0 I I #
face $-1 $381 $382 $35 $-1 $383 reversed single #
loop $-1 $-1 $160 $154 #
plane-surface $-1 42.108218634601883 0 0 -1 0 0 0 0 1 forward_v I I I I #
coedge $-1 $384 $385 $159 $269 reversed $155 $-1 #
coedge $-1 $386 $157 $387 $388 forward $97 $-1 #
coedge $-1 $157 $386 $389 $390 reversed $97 $-1 #
coedge $-1 $271 $270 $157 $265 forward $259 $-1 #
edge $-1 $391 2.8698104578898516 $392 11.122977822551579 $264 $393 forward 7 unknown #
coedge $-1 $159 $158 $394 $395 reversed $62 $-1 #
coedge $-1 $396 $397 $158 $268 forward $398 $-1 #
edge $-1 $399 -42.108218634601883 $272 42.108218634601883 $267 $400 forward 7 unknown #
edge $-1 $401 -42.108218634601883 $273 42.108218634601883 $261 $402 forward 7 unknown #
coedge $-1 $264 $160 $385 $403 forward $259 $-1 #
coedge $-1 $160 $264 $396 $404 reversed $259 $-1 #
vertex $-1 $404 $405 #
vertex $-1 $161 $406 #
straight-curve $-1 42.108218634601883 6.9963941402207155 3.8221964398659494 0 -1 0 I I #
face $-1 $-1 $407 $36 $-1 $408 forward single #
loop $-1 $-1 $286 $162 #
plane-surface $-1 -42.108218634601883 0 0 1 0 0 0 0 -1 forward_v I I I I #
coedge $-1 $409 $410 $166 $284 reversed $163 $-1 #
coedge $-1 $280 $165 $167 $285 reversed $101 $-1 #
coedge $-1 $165 $279 $411 $412 reversed $101 $-1 #
coedge $-1 $413 $168 $165 $282 forward $276 $-1 #
edge $-1 $288 -28.944972396424642 $414 -22.475266427712349 $281 $415 forward 7 unknown #
coedge $-1 $167 $166 $416 $417 reversed $65 $-1 #
edge $-1 $287 1.0206786807905858e-014 $418 8.9939495792754514 $278 $419 forward 7 unknown #
edge $-1 $420 -8.9939495792754514 $288 -1.0206786807905858e-014 $279 $421 forward 7 unknown #
coedge $-1 $168 $413 $409 $422 forward $276 $-1 #
vertex $-1 $169 $423 #
vertex $-1 $169 $424 #
straight-curve $-1 -42.108218634601883 3.4401544563660895 0.61170756793316683 0 -1 0 I I #
coedge $-1 $290 $290 $-1 $425 reversed $172 $-1 #
edge $-1 $426 0 $426 6.2831853071796004 $173 $427 forward 7 unknown #
vertex $-1 $176 $428 #
ellipse-curve $-1 -38.984357493603561 5.0887715015051498 3.846560552289318 -0.71933980857756763 0 0.69465836192734942 0.17366459048183736 0 0.17983495214439191 1 I I #
coedge $-1 $294 $294 $-1 $429 reversed $179 $-1 #
edge $-1 $430 0 $430 6.2831853071796004 $180 $431 forward 7 unknown #
vertex $-1 $183 $432 #
ellipse-curve $-1 -38.984357493603561 6.880308912732179 3.846560552289318 -0.71933980857756763 0 0.69465836192734942 0.17366459048183736 0 0.17983495214439191 1 I I #
coedge $-1 $298 $298 $-1 $433 reversed $186 $-1 #
edge $-1 $434 0 $434 6.2831853071796004 $187 $435 forward 7 unknown #
vertex $-1 $190 $436 #
ellipse-curve $-1 -38.984357493603561 8.6718463239592083 3.846560552289318 -0.71933980857756763 0 0.69465836192734942 0.17366459048183736 0 0.17983495214439191 1 I I #
face $-1 $-1 $314 $40 $-1 $437 reversed single #
loop $-1 $-1 $438 $191 #
plane-surface $-1 0 9.866204598110567 2.3221964398659498 0 1 0 0 0 1 forward_v I I I I #
coedge $-1 $439 $440 $441 $442 forward $192 $-1 #
coedge $-1 $443 $194 $196 $312 forward $120 $-1 #
coedge $-1 $194 $443 $438 $444 forward $120 $-1 #
coedge $-1 $445 $197 $194 $309 forward $314 $-1 #
edge $-1 $316 0.45425877098770506 $446 6.426050141744474 $308 $447 forward 7 unknown #
coedge $-1 $440 $439 $195 $311 forward $192 $-1 #
edge $-1 $448 13.76709528353863 $315 20.014817565535289 $310 $449 forward 7 unknown #
edge $-1 $316 -84.216437269203766 $448 -75.222487689928315 $196 $450 forward 7 unknown #
coedge $-1 $197 $445 $440 $451 reversed $314 $-1 #
loop $-1 $-1 $445 $302 #
vertex $-1 $451 $452 #
vertex $-1 $198 $453 #
straight-curve $-1 42.108218634601883 3.8944132273537946 59.846797896514701 0 0 -1 I I #
coedge $-1 $318 $318 $-1 $454 reversed $201 $-1 #
edge $-1 $455 0 $455 6.2831853071796004 $202 $456 forward 7 unknown #
vertex $-1 $205 $457 #
ellipse-curve $-1 38.984357493603547 5.0887715015051498 3.8465605522893203 0.71933980857756763 0 0.69465836192734942 0.17366459048183736 0 -0.17983495214439191 1 I I #
coedge $-1 $322 $322 $-1 $458 reversed $208 $-1 #
edge $-1 $459 0 $459 6.2831853071796004 $209 $460 forward 7 unknown #
vertex $-1 $212 $461 #
ellipse-curve $-1 38.984357493603547 6.880308912732179 3.8465605522893203 0.71933980857756763 0 0.69465836192734942 0.17366459048183736 0 -0.17983495214439191 1 I I #
coedge $-1 $326 $326 $-1 $462 reversed $215 $-1 #
edge $-1 $463 0 $463 6.2831853071796004 $216 $464 forward 7 unknown #
vertex $-1 $219 $465 #
ellipse-curve $-1 38.984357493603547 8.6718463239592083 3.8465605522893203 0.71933980857756763 0 0.69465836192734942 0.17366459048183736 0 -0.17983495214439191 1 I I #
face $-1 $-1 $235 $33 $-1 $466 reversed single #
loop $-1 $-1 $346 $220 #
plane-surface $-1 0 18.119371962772291 0 0 -1 0 0 0 -1 forward_v I I I I #
coedge $-1 $467 $344 $347 $468 forward $221 $-1 #
coedge $-1 $350 $223 $224 $338 reversed $139 $-1 #
coedge $-1 $344 $467 $223 $336 reversed $221 $-1 #
edge $-1 $351 -7.0814135366454654 $469 7.0814135366454654 $335 $470 forward 7 unknown #
coedge $-1 $225 $224 $467 $471 forward $89 $-1 #
edge $-1 $342 -42.108218634601883 $469 42.108218634601883 $334 $472 forward 7 unknown #
coedge $-1 $347 $346 $225 $340 reversed $331 $-1 #
edge $-1 $473 -42.108218634601883 $341 42.108218634601883 $339 $474 forward 7 unknown #
vertex $-1 $227 $475 #
vertex $-1 $353 $476 #
straight-curve $-1 42.108218634601883 0 -7.0814135366454654 0 -1 0 I I #
coedge $-1 $333 $335 $228 $345 reversed $221 $-1 #
edge $-1 $348 -18.119371962772291 $351 18.119371962772291 $344 $477 forward 7 unknown #
coedge $-1 $339 $229 $234 $354 forward $331 $-1 #
coedge $-1 $229 $339 $333 $468 reversed $331 $-1 #
vertex $-1 $230 $478 #
straight-curve $-1 0 18.119371962772291 7.0814135366454654 -1 0 0 I I #
coedge $-1 $231 $334 $233 $353 reversed $139 $-1 #
vertex $-1 $345 $479 #
straight-curve $-1 0 -18.119371962772291 7.0814135366454654 1 0 0 I I #
edge $-1 $236 -7.0814135366454654 $342 7.0814135366454654 $233 $480 forward 7 unknown #
edge $-1 $237 -7.0814135366454654 $341 7.0814135366454654 $234 $481 forward 7 unknown #
point $-1 42.108218634601883 -18.119371962772291 7.0814135366454654 #
point $-1 42.108218634601883 18.119371962772291 7.0814135366454654 #
face $-1 $-1 $254 $34 $-1 $482 reversed single #
loop $-1 $-1 $250 $239 #
plane-surface $-1 0 -18.119371962772291 0 0 1 0 0 0 1 forward_v I I I I #
coedge $-1 $483 $484 $247 $370 forward $240 $-1 #
coedge $-1 $371 $242 $244 $366 reversed $147 $-1 #
edge $-1 $368 -0.33890178006702465 $255 2.6610982199329745 $253 $485 forward 7 unknown #
coedge $-1 $244 $243 $486 $487 reversed $93 $-1 #
coedge $-1 $375 $374 $243 $365 forward $358 $-1 #
edge $-1 $488 -42.108218634601883 $367 42.108218634601883 $364 $489 forward 7 unknown #
edge $-1 $490 -42.108218634601883 $368 42.108218634601883 $361 $491 forward 7 unknown #
vertex $-1 $365 $492 #
vertex $-1 $246 $493 #
straight-curve $-1 42.108218634601883 -6.9963941402207137 0.82219643986595026 0 1 0 I I #
edge $-1 $376 -11.122977822551578 $372 -2.8698104578898498 $360 $494 forward 7 unknown #
coedge $-1 $248 $361 $483 $495 reversed $147 $-1 #
vertex $-1 $370 $496 #
straight-curve $-1 0 -9.8662045981105635 3.8221964398659494 -1 0 0 I I #
coedge $-1 $364 $250 $484 $497 forward $358 $-1 #
coedge $-1 $250 $364 $252 $378 reversed $358 $-1 #
vertex $-1 $497 $498 #
straight-curve $-1 0 -18.119371962772291 3.8221964398659494 -1 0 0 I I #
edge $-1 $256 -3.8221964398659494 $367 -0.82219643986595026 $252 $499 forward 7 unknown #
point $-1 42.108218634601883 -9.8662045981105635 3.8221964398659494 #
point $-1 42.108218634601883 -18.119371962772291 3.8221964398659494 #
face $-1 $-1 $398 $35 $-1 $500 reversed single #
loop $-1 $-1 $394 $258 #
plane-surface $-1 -42.108218634601883 0 0 1 0 0 0 0 -1 forward_v I I I I #
coedge $-1 $387 $261 $501 $502 reversed $155 $-1 #
coedge $-1 $261 $387 $270 $403 reversed $155 $-1 #
coedge $-1 $263 $262 $503 $504 reversed $97 $-1 #
coedge $-1 $385 $384 $262 $388 reversed $155 $-1 #
edge $-1 $391 -42.108218634601883 $505 42.108218634601883 $387 $506 forward 7 unknown #
coedge $-1 $397 $396 $263 $390 forward $398 $-1 #
edge $-1 $392 -42.108218634601883 $507 42.108218634601883 $389 $508 forward 7 unknown #
vertex $-1 $265 $509 #
vertex $-1 $390 $510 #
straight-curve $-1 42.108218634601883 6.9963941402207155 0.82219643986595026 0 1 0 I I #
coedge $-1 $511 $501 $266 $395 forward $382 $-1 #
edge $-1 $401 2.8698104578898516 $399 11.122977822551579 $394 $512 forward 7 unknown #
coedge $-1 $389 $267 $271 $404 forward $398 $-1 #
coedge $-1 $267 $389 $511 $513 reversed $398 $-1 #
loop $-1 $-1 $267 $381 #
vertex $-1 $513 $514 #
straight-curve $-1 0 18.119371962772291 3.8221964398659494 1 0 0 I I #
vertex $-1 $395 $515 #
straight-curve $-1 0 9.866204598110567 3.8221964398659494 1 0 0 I I #
edge $-1 $273 -2.6610982199329745 $391 0.33890178006702465 $270 $516 forward 7 unknown #
edge $-1 $272 -3.8221964398659494 $392 -0.82219643986595026 $271 $517 forward 7 unknown #
point $-1 42.108218634601883 18.119371962772295 3.8221964398659494 #
point $-1 42.108218634601883 9.866204598110567 3.8221964398659494 #
loop $-1 $-1 $518 $275 #
plane-surface $-1 0 0 7.0814135366454654 0 0 1 1 0 0 forward_v I I I I #
coedge $-1 $410 $278 $286 $422 reversed $163 $-1 #
coedge $-1 $278 $409 $518 $519 reversed $163 $-1 #
coedge $-1 $416 $520 $280 $412 forward $407 $-1 #
edge $-1 $414 9.2360086148559475 $420 15.483730896852599 $411 $521 forward 7 unknown #
coedge $-1 $286 $281 $520 $522 reversed $276 $-1 #
vertex $-1 $412 $523 #
straight-curve $-1 -42.108218634601883 3.8944132273537946 29.556679964357816 0 0 1 I I #
coedge $-1 $518 $411 $283 $417 forward $407 $-1 #
edge $-1 $420 0.45425877098770506 $418 6.426050141744474 $416 $524 forward 7 unknown #
vertex $-1 $519 $525 #
straight-curve $-1 -42.10821863460189 9.8662045981105635 0.61170756793316627 0.69465836192734942 0 0.71933980857756763 I I #
vertex $-1 $417 $526 #
straight-curve $-1 -42.10821863460189 3.8944132273537946 0.61170756793316627 -0.69465836192734942 0 -0.71933980857756763 I I #
edge $-1 $527 22.475266427712349 $287 28.944972396424642 $286 $528 forward 7 unknown #
point $-1 -42.108218634601883 9.8662045981105635 0.6117075679331736 #
point $-1 -42.108218634601883 3.8944132273537946 0.6117075679331736 #
edge $-1 $529 1 $529 0 $290 $-1 forward 7 unknown #
vertex $-1 $291 $530 #
ellipse-curve $-1 -38.265017685025981 5.0887715015051498 3.151902190361962 -0.71933980857756763 0 0.69465836192734942 0.17366459048183736 0 0.17983495214439191 1 I I #
point $-1 -38.810692903121712 5.0887715015051498 4.0263955044337036 #
edge $-1 $531 1 $531 0 $294 $-1 forward 7 unknown #
vertex $-1 $295 $532 #
ellipse-curve $-1 -38.265017685025981 6.880308912732179 3.151902190361962 -0.71933980857756763 0 0.69465836192734942 0.17366459048183736 0 0.17983495214439191 1 I I #
point $-1 -38.810692903121712 6.880308912732179 4.0263955044337036 #
edge $-1 $533 1 $533 0 $298 $-1 forward 7 unknown #
vertex $-1 $299 $534 #
ellipse-curve $-1 -38.265017685025981 8.6718463239592083 3.151902190361962 -0.71933980857756763 0 0.69465836192734942 0.17366459048183736 0 0.17983495214439191 1 I I #
point $-1 -38.810692903121712 8.6718463239592083 4.0263955044337036 #
plane-surface $-1 42.108218634601883 0 0 -1 0 0 0 0 1 forward_v I I I I #
coedge $-1 $441 $535 $307 $444 reversed $303 $-1 #
coedge $-1 $310 $305 $443 $536 forward $192 $-1 #
coedge $-1 $305 $310 $313 $451 forward $192 $-1 #
coedge $-1 $535 $438 $305 $442 reversed $303 $-1 #
edge $-1 $537 -20.014817565535289 $538 -13.76709528353863 $305 $539 forward 7 unknown #
coedge $-1 $307 $306 $439 $536 reversed $120 $-1 #
edge $-1 $538 75.222487689928315 $446 84.216437269203766 $438 $540 forward 7 unknown #
coedge $-1 $313 $308 $535 $541 forward $314 $-1 #
vertex $-1 $541 $542 #
straight-curve $-1 42.108218634601883 3.4401544563660895 0.61170756793317338 0 1 0 I I #
vertex $-1 $311 $543 #
straight-curve $-1 22.093401069066594 3.8944132273537946 7.0814135366454636 1 0 0 I I #
straight-curve $-1 -16.393433726180582 3.8944132273537946 61.191943432246937 -0.69465836192734942 0 0.71933980857756763 I I #
edge $-1 $315 3.8944132273537946 $537 9.8662045981105635 $313 $544 forward 7 unknown #
point $-1 42.108218634601883 3.8944132273537946 7.0814135366454654 #
point $-1 42.108218634601883 3.8944132273537946 0.61170756793316627 #
edge $-1 $545 1 $545 0 $318 $-1 forward 7 unknown #
vertex $-1 $319 $546 #
ellipse-curve $-1 38.265017685025974 5.0887715015051498 3.1519021903619655 0.71933980857756763 0 0.69465836192734942 0.17366459048183736 0 -0.17983495214439191 1 I I #
point $-1 39.158022084085381 5.0887715015051498 3.6667256001449231 #
edge $-1 $547 1 $547 0 $322 $-1 forward 7 unknown #
vertex $-1 $323 $548 #
ellipse-curve $-1 38.265017685025974 6.880308912732179 3.1519021903619655 0.71933980857756763 0 0.69465836192734942 0.17366459048183736 0 -0.17983495214439191 1 I I #
point $-1 39.158022084085381 6.880308912732179 3.6667256001449231 #
edge $-1 $549 1 $549 0 $326 $-1 forward 7 unknown #
vertex $-1 $327 $550 #
ellipse-curve $-1 38.265017685025974 8.6718463239592083 3.1519021903619655 0.71933980857756763 0 0.69465836192734942 0.17366459048183736 0 -0.17983495214439191 1 I I #
point $-1 39.158022084085381 8.6718463239592083 3.6667256001449231 #
plane-surface $-1 42.108218634601883 0 0 -1 0 0 0 0 1 forward_v I I I I #
coedge $-1 $335 $333 $337 $471 reversed $221 $-1 #
edge $-1 $348 -7.0814135366454654 $473 7.0814135366454654 $347 $551 forward 7 unknown #
vertex $-1 $471 $552 #
straight-curve $-1 -42.108218634601883 -18.119371962772291 0 0 0 -1 I I #
edge $-1 $469 -18.119371962772291 $473 18.119371962772291 $467 $553 forward 7 unknown #
straight-curve $-1 0 -18.119371962772291 -7.0814135366454654 -1 0 0 I I #
vertex $-1 $340 $554 #
straight-curve $-1 0 18.119371962772291 -7.0814135366454654 1 0 0 I I #
point $-1 42.108218634601883 18.119371962772291 -7.0814135366454654 #
point $-1 42.108218634601883 -18.119371962772291 -7.0814135366454654 #
straight-curve $-1 -42.108218634601883 0 7.0814135366454654 0 -1 0 I I #
point $-1 -42.108218634601883 18.119371962772291 7.0814135366454654 #
point $-1 -42.108218634601883 -18.119371962772291 7.0814135366454654 #
straight-curve $-1 42.108218634601883 -18.119371962772291 0 0 0 -1 I I #
straight-curve $-1 42.108218634601883 18.119371962772291 0 0 0 -1 I I #
plane-surface $-1 42.108218634601883 0 0 -1 0 0 0 0 1 forward_v I I I I #
coedge $-1 $486 $360 $371 $495 forward $240 $-1 #
coedge $-1 $360 $486 $374 $497 reversed $240 $-1 #
straight-curve $-1 42.108218634601883 -9.8662045981105635 1.1610982199329749 0 0 1 I I #
coedge $-1 $484 $483 $363 $487 forward $240 $-1 #
edge $-1 $490 2.8698104578898498 $488 11.122977822551578 $486 $555 forward 7 unknown #
vertex $-1 $365 $556 #
straight-curve $-1 0 -18.119371962772291 0.82219643986595026 1 0 0 I I #
vertex $-1 $487 $557 #
straight-curve $-1 0 -9.8662045981105635 0.82219643986595026 1 0 0 I I #
point $-1 42.108218634601883 -18.119371962772291 0.82219643986595026 #
point $-1 42.108218634601883 -9.8662045981105635 0.82219643986595026 #
straight-curve $-1 -42.108218634601883 -6.9963941402207137 3.8221964398659494 0 1 0 I I #
edge $-1 $372 -2.6610982199329745 $490 0.33890178006702465 $483 $558 forward 7 unknown #
point $-1 -42.108218634601883 -9.8662045981105635 3.8221964398659494 #
edge $-1 $376 -3.8221964398659494 $488 -0.82219643986595026 $484 $559 forward 7 unknown #
point $-1 -42.108218634601883 -18.119371962772291 3.8221964398659494 #
straight-curve $-1 42.108218634601883 -18.119371962772291 0 0 0 -1 I I #
plane-surface $-1 0 18.119371962772291 0 0 -1 0 0 0 -1 forward_v I I I I #
coedge $-1 $394 $503 $384 $502 forward $382 $-1 #
edge $-1 $505 -0.33890178006702465 $401 2.6610982199329745 $501 $560 forward 7 unknown #
coedge $-1 $501 $511 $386 $504 forward $382 $-1 #
edge $-1 $507 -11.122977822551579 $505 -2.8698104578898516 $503 $561 forward 7 unknown #
vertex $-1 $504 $562 #
straight-curve $-1 0 9.866204598110567 0.82219643986595026 -1 0 0 I I #
vertex $-1 $390 $563 #
straight-curve $-1 0 18.119371962772291 0.82219643986595026 -1 0 0 I I #
point $-1 42.108218634601883 9.866204598110567 0.82219643986595026 #
point $-1 42.108218634601883 18.119371962772295 0.82219643986595026 #
coedge $-1 $503 $394 $397 $513 forward $382 $-1 #
straight-curve $-1 -42.108218634601883 6.9963941402207155 3.8221964398659494 0 1 0 I I #
edge $-1 $399 -3.8221964398659494 $507 -0.82219643986595026 $397 $564 forward 7 unknown #
point $-1 -42.108218634601883 18.119371962772295 3.8221964398659494 #
point $-1 -42.108218634601883 9.866204598110567 3.8221964398659494 #
straight-curve $-1 42.108218634601883 9.866204598110567 1.1610982199329749 0 0 -1 I I #
straight-curve $-1 42.108218634601883 18.119371962772291 0 0 0 -1 I I #
coedge $-1 $520 $416 $410 $519 forward $407 $-1 #
edge $-1 $418 -15.483730896852599 $527 -9.2360086148559475 $518 $565 forward 7 unknown #
coedge $-1 $411 $518 $413 $522 forward $407 $-1 #
straight-curve $-1 -51.34422724945783 3.8944132273537946 7.0814135366454636 1 0 0 I I #
edge $-1 $527 -9.8662045981105635 $414 -3.8944132273537946 $413 $566 forward 7 unknown #
point $-1 -42.108218634601883 3.8944132273537946 7.0814135366454654 #
straight-curve $-1 -35.860496352605225 3.4401544563660895 7.0814135366454662 0 1 0 I I #
point $-1 -35.860496352605232 9.8662045981105635 7.0814135366454654 #
point $-1 -35.860496352605232 3.8944132273537946 7.0814135366454654 #
vertex $-1 $522 $567 #
straight-curve $-1 -42.108218634601883 9.8662045981105635 29.556679964357816 0 0 -1 I I #
vertex $-1 $425 $568 #
point $-1 -38.091353094544147 5.0887715015051498 3.3317371425063538 #
vertex $-1 $429 $569 #
point $-1 -38.091353094544147 6.880308912732179 3.3317371425063538 #
vertex $-1 $433 $570 #
point $-1 -38.091353094544147 8.6718463239592083 3.3317371425063538 #
coedge $-1 $438 $441 $445 $541 reversed $303 $-1 #
edge $-1 $538 -6.426050141744474 $448 -0.45425877098770506 $439 $571 forward 7 unknown #
vertex $-1 $442 $572 #
vertex $-1 $442 $573 #
straight-curve $-1 22.093401069066594 9.8662045981105635 7.0814135366454636 -1 0 0 I I #
straight-curve $-1 -16.393433726180582 9.8662045981105635 61.191943432246937 0.69465836192734942 0 -0.71933980857756763 I I #
edge $-1 $446 -59.235090328581535 $537 -52.765384359869238 $445 $574 forward 7 unknown #
point $-1 42.108218634601883 9.8662045981105635 0.61170756793316627 #
point $-1 35.860496352605225 3.8944132273537946 7.0814135366454636 #
straight-curve $-1 42.108218634601883 0 7.0814135366454654 0 1 0 I I #
vertex $-1 $454 $575 #
point $-1 38.438682275507816 5.0887715015051498 2.9720672382175737 #
vertex $-1 $458 $576 #
point $-1 38.438682275507816 6.880308912732179 2.9720672382175737 #
vertex $-1 $462 $577 #
point $-1 38.438682275507816 8.6718463239592083 2.9720672382175737 #
straight-curve $-1 -42.108218634601883 18.119371962772291 0 0 0 -1 I I #
point $-1 -42.108218634601883 -18.119371962772291 -7.0814135366454654 #
straight-curve $-1 -42.108218634601883 0 -7.0814135366454654 0 1 0 I I #
point $-1 -42.108218634601883 18.119371962772291 -7.0814135366454654 #
straight-curve $-1 -42.108218634601883 -6.9963941402207137 0.82219643986595026 0 -1 0 I I #
point $-1 -42.108218634601883 -18.119371962772291 0.82219643986595026 #
point $-1 -42.108218634601883 -9.8662045981105635 0.82219643986595026 #
straight-curve $-1 -42.108218634601883 -9.8662045981105635 1.1610982199329749 0 0 -1 I I #
straight-curve $-1 -42.108218634601883 -18.119371962772291 0 0 0 -1 I I #
straight-curve $-1 -42.108218634601883 9.866204598110567 1.1610982199329749 0 0 1 I I #
straight-curve $-1 -42.108218634601883 6.9963941402207155 0.82219643986595026 0 -1 0 I I #
point $-1 -42.108218634601883 9.866204598110567 0.82219643986595026 #
point $-1 -42.108218634601883 18.119371962772295 0.82219643986595026 #
straight-curve $-1 -42.108218634601883 18.119371962772291 0 0 0 -1 I I #
straight-curve $-1 -51.34422724945783 9.8662045981105635 7.0814135366454636 -1 0 0 I I #
straight-curve $-1 -42.108218634601883 0 7.0814135366454654 0 -1 0 I I #
point $-1 -42.108218634601883 9.8662045981105635 7.0814135366454654 #
point $-1 -38.085182732881592 5.0887715015051498 2.9782375998801247 #
point $-1 -38.085182732881592 6.880308912732179 2.9782375998801247 #
point $-1 -38.085182732881592 8.6718463239592083 2.9782375998801247 #
straight-curve $-1 35.860496352605225 3.4401544563660895 7.0814135366454707 0 -1 0 I I #
point $-1 42.108218634601883 9.8662045981105635 7.0814135366454654 #
point $-1 35.860496352605225 9.8662045981105635 7.0814135366454636 #
straight-curve $-1 42.108218634601883 9.8662045981105635 59.846797896514701 0 0 1 I I #
point $-1 38.085182732881584 5.0887715015051498 2.9782375998801283 #
point $-1 38.085182732881584 6.880308912732179 2.9782375998801283 #
point $-1 38.085182732881584 8.6718463239592083 2.9782375998801283 #
End-of-ACIS-data 