500 0 20 0           
7 Unknown 11 ACIS 5.0 NT 24 Thu Mar 25 19:12:49 1999 
-1 9.9999999999999995e-007 1e-010 
body $-1 $20 $-1 $21 #
body $-1 $22 $-1 $23 #
body $-1 $24 $-1 $25 #
body $-1 $26 $-1 $27 #
body $-1 $28 $-1 $29 #
body $-1 $30 $-1 $31 #
body $-1 $32 $-1 $33 #
body $-1 $34 $-1 $35 #
body $-1 $36 $-1 $37 #
body $-1 $38 $-1 $39 #
body $-1 $40 $-1 $41 #
body $-1 $42 $-1 $43 #
body $-1 $44 $-1 $45 #
body $-1 $46 $-1 $47 #
body $-1 $48 $-1 $49 #
body $-1 $50 $-1 $51 #
body $-1 $52 $-1 $53 #
body $-1 $54 $-1 $55 #
body $-1 $56 $-1 $57 #
body $-1 $58 $-1 $59 #
lump $-1 $-1 $60 $0 #
transform $-1 1 0 0 0 1 0 0 0 1 78.740195928830843 39.312905769124242 10.845692482428337 1 rotate no_reflect no_shear #
lump $-1 $-1 $61 $1 #
transform $-1 1 0 0 0 1 0 0 0 1 78.740195928830843 39.312905769124242 10.845692482428337 1 rotate no_reflect no_shear #
lump $-1 $-1 $62 $2 #
transform $-1 1 0 0 0 1 0 0 0 1 78.740195928830843 39.312905769124242 10.845692482428337 1 rotate no_reflect no_shear #
lump $-1 $-1 $63 $3 #
transform $-1 1 0 0 0 1 0 0 0 1 78.740195928830843 39.312905769124242 10.845692482428337 1 rotate no_reflect no_shear #
lump $-1 $-1 $64 $4 #
transform $-1 1 0 0 0 1 0 0 0 1 78.740195928830843 39.312905769124242 10.845692482428337 1 rotate no_reflect no_shear #
lump $-1 $-1 $65 $5 #
transform $-1 1 0 0 0 1 0 0 0 1 78.740195928830843 39.312905769124242 10.845692482428337 1 rotate no_reflect no_shear #
lump $-1 $-1 $66 $6 #
transform $-1 1 0 0 0 1 0 0 0 1 78.740195928830843 39.312905769124242 10.845692482428337 1 rotate no_reflect no_shear #
lump $-1 $-1 $67 $7 #
transform $-1 1 0 0 0 1 0 0 0 1 78.740195928830843 39.312905769124242 10.845692482428337 1 rotate no_reflect no_shear #
lump $-1 $-1 $68 $8 #
transform $-1 1 0 0 0 1 0 0 0 1 78.740195928830843 39.312905769124242 10.845692482428337 1 rotate no_reflect no_shear #
lump $-1 $-1 $69 $9 #
transform $-1 1 0 0 0 1 0 0 0 1 78.740195928830843 39.312905769124242 10.845692482428337 1 rotate no_reflect no_shear #
lump $-1 $-1 $70 $10 #
transform $-1 1 0 0 0 1 0 0 0 1 78.740195928830843 39.312905769124242 10.845692482428337 1 rotate no_reflect no_shear #
lump $-1 $-1 $71 $11 #
transform $-1 1 0 0 0 1 0 0 0 1 78.740195928830843 39.312905769124242 10.845692482428337 1 rotate no_reflect no_shear #
lump $-1 $-1 $72 $12 #
transform $-1 1 0 0 0 1 0 0 0 1 78.740195928830843 39.312905769124242 10.845692482428337 1 rotate no_reflect no_shear #
lump $-1 $-1 $73 $13 #
transform $-1 1 0 0 0 1 0 0 0 1 78.740195928830843 39.312905769124242 10.845692482428337 1 rotate no_reflect no_shear #
lump $-1 $-1 $74 $14 #
transform $-1 1 0 0 0 1 0 0 0 1 78.740195928830843 39.312905769124242 10.845692482428337 1 rotate no_reflect no_shear #
lump $-1 $-1 $75 $15 #
transform $-1 1 0 0 0 1 0 0 0 1 78.740195928830843 39.312905769124242 10.845692482428337 1 rotate no_reflect no_shear #
lump $-1 $-1 $76 $16 #
transform $-1 1 0 0 0 1 0 0 0 1 78.740195928830843 39.312905769124242 10.845692482428337 1 rotate no_reflect no_shear #
lump $-1 $-1 $77 $17 #
transform $-1 1 0 0 0 1 0 0 0 1 78.740195928830843 39.312905769124242 10.845692482428337 1 rotate no_reflect no_shear #
lump $-1 $-1 $78 $18 #
transform $-1 1 0 0 0 1 0 0 0 1 78.740195928830843 39.312905769124242 10.845692482428337 1 rotate no_reflect no_shear #
lump $-1 $-1 $79 $19 #
transform $-1 1 0 0 0 1 0 0 0 1 78.740195928830843 39.312905769124242 10.845692482428337 1 rotate no_reflect no_shear #
shell $-1 $-1 $-1 $80 $-1 $20 #
shell $-1 $-1 $-1 $81 $-1 $22 #
shell $-1 $-1 $-1 $82 $-1 $24 #
shell $-1 $-1 $-1 $83 $-1 $26 #
shell $-1 $-1 $-1 $84 $-1 $28 #
shell $-1 $-1 $-1 $85 $-1 $30 #
shell $-1 $-1 $-1 $86 $-1 $32 #
shell $-1 $-1 $-1 $87 $-1 $34 #
shell $-1 $-1 $-1 $88 $-1 $36 #
shell $-1 $-1 $-1 $89 $-1 $38 #
shell $-1 $-1 $-1 $90 $-1 $40 #
shell $-1 $-1 $-1 $91 $-1 $42 #
shell $-1 $-1 $-1 $92 $-1 $44 #
shell $-1 $-1 $-1 $93 $-1 $46 #
shell $-1 $-1 $-1 $94 $-1 $48 #
shell $-1 $-1 $-1 $95 $-1 $50 #
shell $-1 $-1 $-1 $96 $-1 $52 #
shell $-1 $-1 $-1 $97 $-1 $54 #
shell $-1 $-1 $-1 $98 $-1 $56 #
shell $-1 $-1 $-1 $99 $-1 $58 #
face $-1 $100 $101 $60 $-1 $102 forward single #
face $-1 $103 $104 $61 $-1 $105 reversed single #
face $-1 $106 $107 $62 $-1 $108 forward single #
face $-1 $109 $110 $63 $-1 $111 forward single #
face $-1 $112 $113 $64 $-1 $114 forward single #
face $-1 $115 $116 $65 $-1 $117 reversed single #
face $-1 $118 $119 $66 $-1 $120 forward single #
face $-1 $121 $122 $67 $-1 $123 forward single #
face $-1 $124 $125 $68 $-1 $126 forward single #
face $-1 $127 $128 $69 $-1 $129 reversed single #
face $-1 $130 $131 $70 $-1 $132 forward single #
face $-1 $133 $134 $71 $-1 $135 forward single #
face $-1 $136 $137 $72 $-1 $138 forward single #
face $-1 $139 $140 $73 $-1 $141 reversed single #
face $-1 $142 $143 $74 $-1 $144 forward single #
face $-1 $145 $146 $75 $-1 $147 forward single #
face $-1 $148 $149 $76 $-1 $150 forward single #
face $-1 $151 $152 $77 $-1 $153 reversed single #
face $-1 $154 $155 $78 $-1 $156 forward single #
face $-1 $157 $158 $79 $-1 $159 forward single #
face $-1 $160 $161 $60 $-1 $162 reversed single #
loop $-1 $-1 $163 $80 #
plane-surface $-1 0 0 10.845692482428337 0 0 1 1 0 0 forward_v I I I I #
face $-1 $164 $165 $61 $-1 $166 reversed single #
loop $-1 $-1 $167 $81 #
plane-surface $-1 -206.14451051128862 -35.482683024119858 97.61034476844786 0 1 0 -0.80901700255871778 0 0.5877852410284794 forward_v I I I I #
face $-1 $168 $169 $62 $-1 $170 forward single #
loop $-1 $171 $172 $82 #
cone-surface $-1 -76.089981886481425 -32.925826438448411 7.5510054890970109 0.80901700255871778 0 -0.5877852410284794 0.5877852410284794 0 0.80901700255871778 1 I I 0 1 1 forward I I I I #
face $-1 $173 $174 $63 $-1 $175 forward single #
loop $-1 $176 $177 $83 #
cone-surface $-1 -76.089981886481425 -29.090541559941258 7.5510054890970109 0.80901700255871778 0 -0.5877852410284794 0.5877852410284794 0 0.80901700255871778 1 I I 0 1 1 forward I I I I #
face $-1 $178 $179 $64 $-1 $180 forward single #
loop $-1 $181 $182 $84 #
cone-surface $-1 -76.089981886481425 -25.255256681434098 7.5510054890970109 0.80901700255871778 0 -0.5877852410284794 0.5877852410284794 0 0.80901700255871778 1 I I 0 1 1 forward I I I I #
face $-1 $183 $184 $65 $-1 $185 reversed single #
loop $-1 $-1 $186 $85 #
plane-surface $-1 -206.14451051128862 -16.08898865082568 97.61034476844786 0 1 0 -0.80901700255871778 0 0.5877852410284794 forward_v I I I I #
face $-1 $187 $188 $66 $-1 $189 forward single #
loop $-1 $190 $191 $86 #
cone-surface $-1 -76.089981886481425 -13.532132065154244 7.5510054890970109 0.80901700255871778 0 -0.5877852410284794 0.5877852410284794 0 0.80901700255871778 1 I I 0 1 1 forward I I I I #
face $-1 $192 $193 $67 $-1 $194 forward single #
loop $-1 $195 $196 $87 #
cone-surface $-1 -76.089981886481425 -9.6968471866470836 7.5510054890970109 0.80901700255871778 0 -0.5877852410284794 0.5877852410284794 0 0.80901700255871778 1 I I 0 1 1 forward I I I I #
face $-1 $197 $198 $68 $-1 $199 forward single #
loop $-1 $200 $201 $88 #
cone-surface $-1 -76.089981886481425 -5.8615623081399235 7.5510054890970109 0.80901700255871778 0 -0.5877852410284794 0.5877852410284794 0 0.80901700255871778 1 I I 0 1 1 forward I I I I #
face $-1 $202 $203 $69 $-1 $204 reversed single #
loop $-1 $-1 $205 $89 #
plane-surface $-1 -206.14451051128862 3.3047057224684933 97.61034476844786 0 1 0 -0.80901700255871778 0 0.5877852410284794 forward_v I I I I #
face $-1 $206 $207 $70 $-1 $208 forward single #
loop $-1 $209 $210 $90 #
cone-surface $-1 -76.089981886481425 5.8615623081399235 7.5510054890970109 0.80901700255871778 0 -0.5877852410284794 0.5877852410284794 0 0.80901700255871778 1 I I 0 1 1 forward I I I I #
face $-1 $211 $212 $71 $-1 $213 forward single #
loop $-1 $214 $215 $91 #
cone-surface $-1 -76.089981886481425 9.6968471866470907 7.5510054890970109 0.80901700255871778 0 -0.5877852410284794 0.5877852410284794 0 0.80901700255871778 1 I I 0 1 1 forward I I I I #
face $-1 $216 $217 $72 $-1 $218 forward single #
loop $-1 $219 $220 $92 #
cone-surface $-1 -76.089981886481425 13.532132065154244 7.5510054890970109 0.80901700255871778 0 -0.5877852410284794 0.5877852410284794 0 0.80901700255871778 1 I I 0 1 1 forward I I I I #
face $-1 $221 $222 $73 $-1 $223 reversed single #
loop $-1 $-1 $224 $93 #
plane-surface $-1 -206.14451051128862 22.698400095762661 97.61034476844786 0 1 0 -0.80901700255871778 0 0.5877852410284794 forward_v I I I I #
face $-1 $225 $226 $74 $-1 $227 forward single #
loop $-1 $228 $229 $94 #
cone-surface $-1 -76.089981886481425 25.255256681434091 7.5510054890970109 0.80901700255871778 0 -0.5877852410284794 0.5877852410284794 0 0.80901700255871778 1 I I 0 1 1 forward I I I I #
face $-1 $230 $231 $75 $-1 $232 forward single #
loop $-1 $233 $234 $95 #
cone-surface $-1 -76.089981886481425 29.090541559941258 7.5510054890970109 0.80901700255871778 0 -0.5877852410284794 0.5877852410284794 0 0.80901700255871778 1 I I 0 1 1 forward I I I I #
face $-1 $235 $236 $76 $-1 $237 forward single #
loop $-1 $238 $239 $96 #
cone-surface $-1 -76.089981886481425 32.925826438448411 7.5510054890970109 0.80901700255871778 0 -0.5877852410284794 0.5877852410284794 0 0.80901700255871778 1 I I 0 1 1 forward I I I I #
face $-1 $240 $241 $77 $-1 $242 reversed single #
loop $-1 $-1 $243 $97 #
plane-surface $-1 117.41354200784156 22.950184999433088 226.94158145788603 0 1 0 0.81915205242281985 0 0.57357642473473569 forward_v I I I I #
face $-1 $244 $245 $78 $-1 $246 forward single #
loop $-1 $247 $248 $98 #
cone-surface $-1 77.199246527504044 27.625248076487694 8.9431355907416918 -0.81915205242281985 0 -0.57357642473473569 0.28678821236736785 0 -0.40957602621140993 1 I I 0 1 0.5 forward I I I I #
face $-1 $249 $250 $79 $-1 $251 forward single #
loop $-1 $252 $253 $99 #
cone-surface $-1 77.199246527504044 34.637842692069611 8.9431355907416918 -0.81915205242281985 0 -0.57357642473473569 0.28678821236736785 0 -0.40957602621140993 1 I I 0 1 0.5 forward I I I I #
face $-1 $254 $255 $60 $-1 $256 reversed single #
loop $-1 $-1 $257 $100 #
plane-surface $-1 0 0 -10.845692482428337 0 0 1 1 0 0 forward_v I I I I #
coedge $-1 $258 $259 $260 $261 forward $101 $-1 #
face $-1 $262 $263 $61 $-1 $264 reversed single #
loop $-1 $-1 $265 $103 #
plane-surface $-1 -78.740195928830857 -29.090541559941258 5.045694683132794 -0.80901700255871778 0 0.5877852410284794 0.5877852410284794 0 0.80901700255871778 forward_v I I I I #
coedge $-1 $266 $267 $268 $269 reversed $104 $-1 #
face $-1 $-1 $270 $62 $-1 $271 forward single #
loop $-1 $272 $273 $106 #
cone-surface $-1 -75.142231812925132 -32.925826438448411 6.862424774899214 0.80901700255871778 0 -0.5877852410284794 0.2938926205142397 0 0.40450850127935889 1 I I -0.70710678118654746 0.70710678118654746 0.5 forward I I I I #
loop $-1 $-1 $274 $82 #
coedge $-1 $172 $172 $275 $276 reversed $107 $-1 #
face $-1 $-1 $277 $63 $-1 $278 forward single #
loop $-1 $279 $280 $109 #
cone-surface $-1 -75.142231812925132 -29.090541559941258 6.862424774899214 0.80901700255871778 0 -0.5877852410284794 0.2938926205142397 0 0.40450850127935889 1 I I -0.70710678118654746 0.70710678118654746 0.5 forward I I I I #
loop $-1 $-1 $281 $83 #
coedge $-1 $177 $177 $282 $283 reversed $110 $-1 #
face $-1 $-1 $284 $64 $-1 $285 forward single #
loop $-1 $286 $287 $112 #
cone-surface $-1 -75.142231812925132 -25.255256681434098 6.862424774899214 0.80901700255871778 0 -0.5877852410284794 0.2938926205142397 0 0.40450850127935889 1 I I -0.70710678118654746 0.70710678118654746 0.5 forward I I I I #
loop $-1 $-1 $288 $84 #
coedge $-1 $182 $182 $289 $290 reversed $113 $-1 #
face $-1 $291 $292 $65 $-1 $293 reversed single #
loop $-1 $-1 $294 $115 #
plane-surface $-1 -78.740195928830857 -9.6968471866470836 5.045694683132794 -0.80901700255871778 0 0.5877852410284794 0.5877852410284794 0 0.80901700255871778 forward_v I I I I #
coedge $-1 $295 $296 $297 $298 reversed $116 $-1 #
face $-1 $-1 $299 $66 $-1 $300 forward single #
loop $-1 $301 $302 $118 #
cone-surface $-1 -75.142231812925132 -13.532132065154244 6.862424774899214 0.80901700255871778 0 -0.5877852410284794 0.2938926205142397 0 0.40450850127935889 1 I I -0.70710678118654746 0.70710678118654746 0.5 forward I I I I #
loop $-1 $-1 $303 $86 #
coedge $-1 $191 $191 $304 $305 reversed $119 $-1 #
face $-1 $-1 $306 $67 $-1 $307 forward single #
loop $-1 $308 $309 $121 #
cone-surface $-1 -75.142231812925132 -9.6968471866470836 6.862424774899214 0.80901700255871778 0 -0.5877852410284794 0.2938926205142397 0 0.40450850127935889 1 I I -0.70710678118654746 0.70710678118654746 0.5 forward I I I I #
loop $-1 $-1 $310 $87 #
coedge $-1 $196 $196 $311 $312 reversed $122 $-1 #
face $-1 $-1 $313 $68 $-1 $314 forward single #
loop $-1 $315 $316 $124 #
cone-surface $-1 -75.142231812925132 -5.8615623081399235 6.862424774899214 0.80901700255871778 0 -0.5877852410284794 0.2938926205142397 0 0.40450850127935889 1 I I -0.70710678118654746 0.70710678118654746 0.5 forward I I I I #
loop $-1 $-1 $317 $88 #
coedge $-1 $201 $201 $318 $319 reversed $125 $-1 #
face $-1 $320 $321 $69 $-1 $322 reversed single #
loop $-1 $-1 $323 $127 #
plane-surface $-1 -78.740195928830857 9.6968471866470907 5.045694683132794 -0.80901700255871778 0 0.5877852410284794 0.5877852410284794 0 0.80901700255871778 forward_v I I I I #
coedge $-1 $324 $325 $326 $327 reversed $128 $-1 #
face $-1 $-1 $328 $70 $-1 $329 forward single #
loop $-1 $330 $331 $130 #
cone-surface $-1 -75.142231812925132 5.8615623081399235 6.862424774899214 0.80901700255871778 0 -0.5877852410284794 0.2938926205142397 0 0.40450850127935889 1 I I -0.70710678118654746 0.70710678118654746 0.5 forward I I I I #
loop $-1 $-1 $332 $90 #
coedge $-1 $210 $210 $333 $334 reversed $131 $-1 #
face $-1 $-1 $335 $71 $-1 $336 forward single #
loop $-1 $337 $338 $133 #
cone-surface $-1 -75.142231812925132 9.6968471866470907 6.862424774899214 0.80901700255871778 0 -0.5877852410284794 0.2938926205142397 0 0.40450850127935889 1 I I -0.70710678118654746 0.70710678118654746 0.5 forward I I I I #
loop $-1 $-1 $339 $91 #
coedge $-1 $215 $215 $340 $341 reversed $134 $-1 #
face $-1 $-1 $342 $72 $-1 $343 forward single #
loop $-1 $344 $345 $136 #
cone-surface $-1 -75.142231812925132 13.532132065154244 6.862424774899214 0.80901700255871778 0 -0.5877852410284794 0.2938926205142397 0 0.40450850127935889 1 I I -0.70710678118654746 0.70710678118654746 0.5 forward I I I I #
loop $-1 $-1 $346 $92 #
coedge $-1 $220 $220 $347 $348 reversed $137 $-1 #
face $-1 $349 $350 $73 $-1 $351 reversed single #
loop $-1 $-1 $352 $139 #
plane-surface $-1 -78.740195928830857 29.090541559941258 5.045694683132794 -0.80901700255871778 0 0.5877852410284794 0.5877852410284794 0 0.80901700255871778 forward_v I I I I #
coedge $-1 $353 $354 $355 $356 reversed $140 $-1 #
face $-1 $-1 $357 $74 $-1 $358 forward single #
loop $-1 $359 $360 $142 #
cone-surface $-1 -75.142231812925132 25.255256681434091 6.862424774899214 0.80901700255871778 0 -0.5877852410284794 0.2938926205142397 0 0.40450850127935889 1 I I -0.70710678118654746 0.70710678118654746 0.5 forward I I I I #
loop $-1 $-1 $361 $94 #
coedge $-1 $229 $229 $362 $363 reversed $143 $-1 #
face $-1 $-1 $364 $75 $-1 $365 forward single #
loop $-1 $366 $367 $145 #
cone-surface $-1 -75.142231812925132 29.090541559941258 6.862424774899214 0.80901700255871778 0 -0.5877852410284794 0.2938926205142397 0 0.40450850127935889 1 I I -0.70710678118654746 0.70710678118654746 0.5 forward I I I I #
loop $-1 $-1 $368 $95 #
coedge $-1 $234 $234 $369 $370 reversed $146 $-1 #
face $-1 $-1 $371 $76 $-1 $372 forward single #
loop $-1 $373 $374 $148 #
cone-surface $-1 -75.142231812925132 32.925826438448411 6.862424774899214 0.80901700255871778 0 -0.5877852410284794 0.2938926205142397 0 0.40450850127935889 1 I I -0.70710678118654746 0.70710678118654746 0.5 forward I I I I #
loop $-1 $-1 $375 $96 #
coedge $-1 $239 $239 $376 $377 reversed $149 $-1 #
face $-1 $378 $379 $77 $-1 $380 forward single #
loop $-1 $-1 $381 $151 #
plane-surface $-1 -11.58684419871193 31.131545384278667 136.61454133034326 0.81915205242281985 0 0.57357642473473569 0.57357642473473569 0 -0.81915205242281985 forward_v I I I I #
coedge $-1 $382 $383 $384 $385 reversed $152 $-1 #
face $-1 $-1 $386 $78 $-1 $387 forward single #
loop $-1 $388 $389 $154 #
cone-surface $-1 76.584882488186935 27.625248076487694 8.5129532721906394 -0.81915205242281985 0 -0.57357642473473569 0.14339410618368392 0 -0.20478801310570496 1 I I -0.70710678118654746 0.70710678118654746 0.25 forward I I I I #
loop $-1 $-1 $390 $98 #
coedge $-1 $248 $248 $391 $392 reversed $155 $-1 #
face $-1 $-1 $393 $79 $-1 $394 forward single #
loop $-1 $395 $396 $157 #
cone-surface $-1 76.584882488186935 34.637842692069611 8.5129532721906394 -0.81915205242281985 0 -0.57357642473473569 0.14339410618368392 0 -0.20478801310570496 1 I I -0.70710678118654746 0.70710678118654746 0.25 forward I I I I #
loop $-1 $-1 $397 $99 #
coedge $-1 $253 $253 $398 $399 reversed $158 $-1 #
face $-1 $400 $401 $60 $-1 $402 reversed single #
loop $-1 $-1 $403 $160 #
plane-surface $-1 0 -39.312905769124242 0 0 1 0 0 0 1 forward_v I I I I #
coedge $-1 $404 $405 $406 $407 forward $161 $-1 #
coedge $-1 $408 $163 $409 $410 forward $101 $-1 #
coedge $-1 $163 $408 $411 $412 forward $101 $-1 #
coedge $-1 $413 $414 $163 $261 reversed $415 $-1 #
edge $-1 $416 -39.312905769124242 $417 39.312905769124242 $260 $418 forward 7 unknown #
face $-1 $419 $420 $61 $-1 $421 reversed single #
loop $-1 $-1 $422 $164 #
plane-surface $-1 -206.14451051128862 -22.698400095762661 97.61034476844786 0 -1 0 0.80901700255871778 0 -0.5877852410284794 forward_v I I I I #
coedge $-1 $423 $424 $425 $426 reversed $165 $-1 #
coedge $-1 $267 $167 $427 $428 reversed $104 $-1 #
coedge $-1 $167 $266 $423 $429 reversed $104 $-1 #
coedge $-1 $425 $430 $167 $269 forward $431 $-1 #
edge $-1 $432 24.332059326813464 $433 28.546004266958448 $268 $434 forward 7 unknown #
loop $-1 $-1 $275 $168 #
plane-surface $-1 -78.740195928830857 -29.090541559941258 5.045694683132794 -0.80901700255871778 0 0.5877852410284794 0.5877852410284794 0 0.80901700255871778 forward_v I I I I #
loop $-1 $-1 $435 $106 #
coedge $-1 $273 $273 $274 $436 reversed $169 $-1 #
coedge $-1 $274 $274 $273 $436 forward $171 $-1 #
coedge $-1 $275 $275 $172 $276 forward $270 $-1 #
edge $-1 $437 0 $437 6.2831853071796004 $275 $438 forward 7 unknown #
loop $-1 $-1 $282 $173 #
plane-surface $-1 -78.740195928830857 -29.090541559941258 5.045694683132794 -0.80901700255871778 0 0.5877852410284794 0.5877852410284794 0 0.80901700255871778 forward_v I I I I #
loop $-1 $-1 $439 $109 #
coedge $-1 $280 $280 $281 $440 reversed $174 $-1 #
coedge $-1 $281 $281 $280 $440 forward $176 $-1 #
coedge $-1 $282 $282 $177 $283 forward $277 $-1 #
edge $-1 $441 0 $441 6.2831853071796004 $282 $442 forward 7 unknown #
loop $-1 $-1 $289 $178 #
plane-surface $-1 -78.740195928830857 -29.090541559941258 5.045694683132794 -0.80901700255871778 0 0.5877852410284794 0.5877852410284794 0 0.80901700255871778 forward_v I I I I #
loop $-1 $-1 $443 $112 #
coedge $-1 $287 $287 $288 $444 reversed $179 $-1 #
coedge $-1 $288 $288 $287 $444 forward $181 $-1 #
coedge $-1 $289 $289 $182 $290 forward $284 $-1 #
edge $-1 $445 0 $445 6.2831853071796004 $289 $446 forward 7 unknown #
face $-1 $447 $448 $65 $-1 $449 forward single #
loop $-1 $-1 $450 $183 #
plane-surface $-1 -206.14451051128862 -3.3047057224684862 97.61034476844786 0 -1 0 0.80901700255871778 0 -0.5877852410284794 forward_v I I I I #
coedge $-1 $451 $452 $453 $454 reversed $184 $-1 #
coedge $-1 $296 $186 $455 $456 reversed $116 $-1 #
coedge $-1 $186 $295 $451 $457 reversed $116 $-1 #
coedge $-1 $453 $458 $186 $298 forward $448 $-1 #
edge $-1 $459 24.332059326813464 $460 28.546004266958448 $297 $461 forward 7 unknown #
loop $-1 $-1 $304 $187 #
plane-surface $-1 -78.740195928830857 -9.6968471866470836 5.045694683132794 -0.80901700255871778 0 0.5877852410284794 0.5877852410284794 0 0.80901700255871778 forward_v I I I I #
loop $-1 $-1 $462 $118 #
coedge $-1 $302 $302 $303 $463 reversed $188 $-1 #
coedge $-1 $303 $303 $302 $463 forward $190 $-1 #
coedge $-1 $304 $304 $191 $305 forward $299 $-1 #
edge $-1 $464 0 $464 6.2831853071796004 $304 $465 forward 7 unknown #
loop $-1 $-1 $311 $192 #
plane-surface $-1 -78.740195928830857 -9.6968471866470836 5.045694683132794 -0.80901700255871778 0 0.5877852410284794 0.5877852410284794 0 0.80901700255871778 forward_v I I I I #
loop $-1 $-1 $466 $121 #
coedge $-1 $309 $309 $310 $467 reversed $193 $-1 #
coedge $-1 $310 $310 $309 $467 forward $195 $-1 #
coedge $-1 $311 $311 $196 $312 forward $306 $-1 #
edge $-1 $468 0 $468 6.2831853071796004 $311 $469 forward 7 unknown #
loop $-1 $-1 $318 $197 #
plane-surface $-1 -78.740195928830857 -9.6968471866470836 5.045694683132794 -0.80901700255871778 0 0.5877852410284794 0.5877852410284794 0 0.80901700255871778 forward_v I I I I #
loop $-1 $-1 $470 $124 #
coedge $-1 $316 $316 $317 $471 reversed $198 $-1 #
coedge $-1 $317 $317 $316 $471 forward $200 $-1 #
coedge $-1 $318 $318 $201 $319 forward $313 $-1 #
edge $-1 $472 0 $472 6.2831853071796004 $318 $473 forward 7 unknown #
face $-1 $474 $475 $69 $-1 $476 forward single #
loop $-1 $-1 $477 $202 #
plane-surface $-1 -206.14451051128862 16.088988650825687 97.61034476844786 0 -1 0 0.80901700255871778 0 -0.5877852410284794 forward_v I I I I #
coedge $-1 $478 $479 $480 $481 reversed $203 $-1 #
coedge $-1 $325 $205 $482 $483 reversed $128 $-1 #
coedge $-1 $205 $324 $478 $484 reversed $128 $-1 #
coedge $-1 $480 $485 $205 $327 forward $475 $-1 #
edge $-1 $486 24.332059326813464 $487 28.546004266958448 $326 $488 forward 7 unknown #
loop $-1 $-1 $333 $206 #
plane-surface $-1 -78.740195928830857 9.6968471866470907 5.045694683132794 -0.80901700255871778 0 0.5877852410284794 0.5877852410284794 0 0.80901700255871778 forward_v I I I I #
loop $-1 $-1 $489 $130 #
coedge $-1 $331 $331 $332 $490 reversed $207 $-1 #
coedge $-1 $332 $332 $331 $490 forward $209 $-1 #
coedge $-1 $333 $333 $210 $334 forward $328 $-1 #
edge $-1 $491 0 $491 6.2831853071796004 $333 $492 forward 7 unknown #
loop $-1 $-1 $340 $211 #
plane-surface $-1 -78.740195928830857 9.6968471866470907 5.045694683132794 -0.80901700255871778 0 0.5877852410284794 0.5877852410284794 0 0.80901700255871778 forward_v I I I I #
loop $-1 $-1 $493 $133 #
coedge $-1 $338 $338 $339 $494 reversed $212 $-1 #
coedge $-1 $339 $339 $338 $494 forward $214 $-1 #
coedge $-1 $340 $340 $215 $341 forward $335 $-1 #
edge $-1 $495 0 $495 6.2831853071796004 $340 $496 forward 7 unknown #
loop $-1 $-1 $347 $216 #
plane-surface $-1 -78.740195928830857 9.6968471866470907 5.045694683132794 -0.80901700255871778 0 0.5877852410284794 0.5877852410284794 0 0.80901700255871778 forward_v I I I I #
loop $-1 $-1 $497 $136 #
coedge $-1 $345 $345 $346 $498 reversed $217 $-1 #
coedge $-1 $346 $346 $345 $498 forward $219 $-1 #
coedge $-1 $347 $347 $220 $348 forward $342 $-1 #
edge $-1 $499 0 $499 6.2831853071796004 $347 $500 forward 7 unknown #
face $-1 $501 $502 $73 $-1 $503 forward single #
loop $-1 $-1 $504 $221 #
plane-surface $-1 -206.14451051128862 35.482683024119858 97.61034476844786 0 -1 0 0.80901700255871778 0 -0.5877852410284794 forward_v I I I I #
coedge $-1 $505 $506 $507 $508 reversed $222 $-1 #
coedge $-1 $354 $224 $509 $510 reversed $140 $-1 #
coedge $-1 $224 $353 $505 $511 reversed $140 $-1 #
coedge $-1 $507 $512 $224 $356 forward $502 $-1 #
edge $-1 $513 24.332059326813464 $514 28.546004266958448 $355 $515 forward 7 unknown #
loop $-1 $-1 $362 $225 #
plane-surface $-1 -78.740195928830857 29.090541559941258 5.045694683132794 -0.80901700255871778 0 0.5877852410284794 0.5877852410284794 0 0.80901700255871778 forward_v I I I I #
loop $-1 $-1 $516 $142 #
coedge $-1 $360 $360 $361 $517 reversed $226 $-1 #
coedge $-1 $361 $361 $360 $517 forward $228 $-1 #
coedge $-1 $362 $362 $229 $363 forward $357 $-1 #
edge $-1 $518 0 $518 6.2831853071796004 $362 $519 forward 7 unknown #
loop $-1 $-1 $369 $230 #
plane-surface $-1 -78.740195928830857 29.090541559941258 5.045694683132794 -0.80901700255871778 0 0.5877852410284794 0.5877852410284794 0 0.80901700255871778 forward_v I I I I #
loop $-1 $-1 $520 $145 #
coedge $-1 $367 $367 $368 $521 reversed $231 $-1 #
coedge $-1 $368 $368 $367 $521 forward $233 $-1 #
coedge $-1 $369 $369 $234 $370 forward $364 $-1 #
edge $-1 $522 0 $522 6.2831853071796004 $369 $523 forward 7 unknown #
loop $-1 $-1 $376 $235 #
plane-surface $-1 -78.740195928830857 29.090541559941258 5.045694683132794 -0.80901700255871778 0 0.5877852410284794 0.5877852410284794 0 0.80901700255871778 forward_v I I I I #
loop $-1 $-1 $524 $148 #
coedge $-1 $374 $374 $375 $525 reversed $236 $-1 #
coedge $-1 $375 $375 $374 $525 forward $238 $-1 #
coedge $-1 $376 $376 $239 $377 forward $371 $-1 #
edge $-1 $526 0 $526 6.2831853071796004 $376 $527 forward 7 unknown #
face $-1 $528 $529 $77 $-1 $530 reversed single #
loop $-1 $-1 $531 $240 #
plane-surface $-1 0 0 10.845692482428337 0 0 1 1 0 0 forward_v I I I I #
coedge $-1 $532 $533 $534 $535 reversed $241 $-1 #
coedge $-1 $383 $243 $536 $537 reversed $152 $-1 #
coedge $-1 $243 $382 $532 $538 reversed $152 $-1 #
coedge $-1 $534 $539 $243 $385 forward $540 $-1 #
edge $-1 $541 102.62509824651468 $542 105.85663560515324 $384 $543 forward 7 unknown #
loop $-1 $-1 $391 $244 #
plane-surface $-1 -11.58684419871193 31.131545384278667 136.61454133034326 0.81915205242281985 0 0.57357642473473569 0.57357642473473569 0 -0.81915205242281985 forward_v I I I I #
loop $-1 $-1 $544 $154 #
coedge $-1 $389 $389 $390 $545 reversed $245 $-1 #
coedge $-1 $390 $390 $389 $545 forward $247 $-1 #
coedge $-1 $391 $391 $248 $392 forward $386 $-1 #
edge $-1 $546 0 $546 6.2831853071796004 $391 $547 forward 7 unknown #
loop $-1 $-1 $398 $249 #
plane-surface $-1 -11.58684419871193 31.131545384278667 136.61454133034326 0.81915205242281985 0 0.57357642473473569 0.57357642473473569 0 -0.81915205242281985 forward_v I I I I #
loop $-1 $-1 $548 $157 #
coedge $-1 $396 $396 $397 $549 reversed $250 $-1 #
coedge $-1 $397 $397 $396 $549 forward $252 $-1 #
coedge $-1 $398 $398 $253 $399 forward $393 $-1 #
edge $-1 $550 0 $550 6.2831853071796004 $398 $551 forward 7 unknown #
face $-1 $552 $553 $60 $-1 $554 reversed single #
loop $-1 $-1 $555 $254 #
plane-surface $-1 -78.740195928830843 0 0 1 0 0 0 0 -1 forward_v I I I I #
coedge $-1 $556 $411 $557 $558 forward $255 $-1 #
coedge $-1 $559 $257 $556 $560 forward $161 $-1 #
coedge $-1 $257 $559 $561 $562 forward $161 $-1 #
coedge $-1 $414 $413 $257 $407 reversed $415 $-1 #
edge $-1 $563 -39.312905769124242 $564 39.312905769124242 $406 $565 forward 7 unknown #
coedge $-1 $259 $258 $566 $567 forward $101 $-1 #
coedge $-1 $568 $569 $258 $410 reversed $553 $-1 #
edge $-1 $417 -78.740195928830843 $570 78.740195928830843 $409 $571 forward 7 unknown #
coedge $-1 $403 $572 $259 $412 reversed $255 $-1 #
edge $-1 $573 -78.740195928830843 $416 78.740195928830843 $411 $574 forward 7 unknown #
coedge $-1 $406 $260 $572 $575 forward $415 $-1 #
coedge $-1 $260 $406 $568 $576 reversed $415 $-1 #
loop $-1 $-1 $413 $552 #
vertex $-1 $261 $577 #
vertex $-1 $261 $578 #
straight-curve $-1 78.740195928830843 0 10.845692482428337 0 1 0 I I #
face $-1 $-1 $431 $61 $-1 $579 forward single #
loop $-1 $-1 $580 $262 #
plane-surface $-1 -78.740195928830843 0 0 1 0 0 0 0 -1 forward_v I I I I #
coedge $-1 $581 $582 $583 $584 reversed $263 $-1 #
coedge $-1 $585 $265 $267 $429 forward $165 $-1 #
coedge $-1 $265 $585 $581 $586 forward $165 $-1 #
coedge $-1 $583 $268 $265 $426 forward $431 $-1 #
edge $-1 $433 -20.937412244149229 $587 -8.1531293157920324 $425 $588 forward 7 unknown #
coedge $-1 $589 $590 $266 $428 forward $420 $-1 #
edge $-1 $591 -43.759477701091114 $432 -37.959479901795589 $427 $592 forward 7 unknown #
edge $-1 $433 -7.1691914767571081 $591 -2.4161062406544664e-014 $267 $593 forward 7 unknown #
coedge $-1 $268 $583 $589 $594 forward $431 $-1 #
loop $-1 $-1 $583 $419 #
vertex $-1 $428 $595 #
vertex $-1 $269 $596 #
straight-curve $-1 -103.07225525564431 -35.482683024119858 10.845692482428333 1 0 0 I I #
coedge $-1 $435 $435 $-1 $597 reversed $272 $-1 #
edge $-1 $598 0 $598 6.2831853071796004 $273 $599 forward 7 unknown #
vertex $-1 $276 $600 #
ellipse-curve $-1 -76.633223458758351 -32.925826438448411 7.945693582780569 -0.80901700255871778 0 0.5877852410284794 0.5877852410284794 0 0.80901700255871778 1 I I #
coedge $-1 $439 $439 $-1 $601 reversed $279 $-1 #
edge $-1 $602 0 $602 6.2831853071796004 $280 $603 forward 7 unknown #
vertex $-1 $283 $604 #
ellipse-curve $-1 -76.633223458758351 -29.090541559941258 7.945693582780569 -0.80901700255871778 0 0.5877852410284794 0.5877852410284794 0 0.80901700255871778 1 I I #
coedge $-1 $443 $443 $-1 $605 reversed $286 $-1 #
edge $-1 $606 0 $606 6.2831853071796004 $287 $607 forward 7 unknown #
vertex $-1 $290 $608 #
ellipse-curve $-1 -76.633223458758351 -25.255256681434098 7.945693582780569 -0.80901700255871778 0 0.5877852410284794 0.5877852410284794 0 0.80901700255871778 1 I I #
face $-1 $-1 $609 $65 $-1 $610 reversed single #
loop $-1 $-1 $297 $291 #
plane-surface $-1 0 0 10.845692482428337 0 0 1 1 0 0 forward_v I I I I #
coedge $-1 $611 $612 $613 $614 reversed $292 $-1 #
coedge $-1 $615 $294 $296 $457 forward $184 $-1 #
coedge $-1 $294 $615 $611 $616 forward $184 $-1 #
coedge $-1 $613 $297 $294 $454 forward $448 $-1 #
edge $-1 $460 -11.240565057502138 $617 1.5437178708550556 $453 $618 forward 7 unknown #
coedge $-1 $619 $620 $295 $456 forward $609 $-1 #
edge $-1 $621 -43.759477701091114 $459 -37.959479901795589 $455 $622 forward 7 unknown #
edge $-1 $460 -7.1691914767571081 $621 -2.4161062406544664e-014 $296 $623 forward 7 unknown #
coedge $-1 $297 $613 $619 $624 forward $448 $-1 #
vertex $-1 $298 $625 #
vertex $-1 $298 $626 #
straight-curve $-1 -103.07225525564431 -16.08898865082568 10.845692482428333 1 0 0 I I #
coedge $-1 $462 $462 $-1 $627 reversed $301 $-1 #
edge $-1 $628 0 $628 6.2831853071796004 $302 $629 forward 7 unknown #
vertex $-1 $305 $630 #
ellipse-curve $-1 -76.633223458758351 -13.532132065154244 7.945693582780569 -0.80901700255871778 0 0.5877852410284794 0.5877852410284794 0 0.80901700255871778 1 I I #
coedge $-1 $466 $466 $-1 $631 reversed $308 $-1 #
edge $-1 $632 0 $632 6.2831853071796004 $309 $633 forward 7 unknown #
vertex $-1 $312 $634 #
ellipse-curve $-1 -76.633223458758351 -9.6968471866470836 7.945693582780569 -0.80901700255871778 0 0.5877852410284794 0.5877852410284794 0 0.80901700255871778 1 I I #
coedge $-1 $470 $470 $-1 $635 reversed $315 $-1 #
edge $-1 $636 0 $636 6.2831853071796004 $316 $637 forward 7 unknown #
vertex $-1 $319 $638 #
ellipse-curve $-1 -76.633223458758351 -5.8615623081399235 7.945693582780569 -0.80901700255871778 0 0.5877852410284794 0.5877852410284794 0 0.80901700255871778 1 I I #
face $-1 $-1 $639 $69 $-1 $640 reversed single #
loop $-1 $-1 $326 $320 #
plane-surface $-1 0 0 10.845692482428337 0 0 1 1 0 0 forward_v I I I I #
coedge $-1 $641 $642 $643 $644 reversed $321 $-1 #
coedge $-1 $645 $323 $325 $484 forward $203 $-1 #
coedge $-1 $323 $645 $641 $646 forward $203 $-1 #
coedge $-1 $643 $326 $323 $481 forward $475 $-1 #
edge $-1 $487 -1.5437178708550521 $647 11.240565057502142 $480 $648 forward 7 unknown #
coedge $-1 $649 $650 $324 $483 forward $639 $-1 #
edge $-1 $651 -43.759477701091114 $486 -37.959479901795589 $482 $652 forward 7 unknown #
edge $-1 $487 -7.1691914767571081 $651 -2.4161062406544664e-014 $325 $653 forward 7 unknown #
coedge $-1 $326 $643 $649 $654 forward $475 $-1 #
vertex $-1 $327 $655 #
vertex $-1 $327 $656 #
straight-curve $-1 -103.07225525564431 3.3047057224684933 10.845692482428333 1 0 0 I I #
coedge $-1 $489 $489 $-1 $657 reversed $330 $-1 #
edge $-1 $658 0 $658 6.2831853071796004 $331 $659 forward 7 unknown #
vertex $-1 $334 $660 #
ellipse-curve $-1 -76.633223458758351 5.8615623081399235 7.945693582780569 -0.80901700255871778 0 0.5877852410284794 0.5877852410284794 0 0.80901700255871778 1 I I #
coedge $-1 $493 $493 $-1 $661 reversed $337 $-1 #
edge $-1 $662 0 $662 6.2831853071796004 $338 $663 forward 7 unknown #
vertex $-1 $341 $664 #
ellipse-curve $-1 -76.633223458758351 9.6968471866470907 7.945693582780569 -0.80901700255871778 0 0.5877852410284794 0.5877852410284794 0 0.80901700255871778 1 I I #
coedge $-1 $497 $497 $-1 $665 reversed $344 $-1 #
edge $-1 $666 0 $666 6.2831853071796004 $345 $667 forward 7 unknown #
vertex $-1 $348 $668 #
ellipse-curve $-1 -76.633223458758351 13.532132065154244 7.945693582780569 -0.80901700255871778 0 0.5877852410284794 0.5877852410284794 0 0.80901700255871778 1 I I #
face $-1 $-1 $669 $73 $-1 $670 reversed single #
loop $-1 $-1 $355 $349 #
plane-surface $-1 0 0 10.845692482428337 0 0 1 1 0 0 forward_v I I I I #
coedge $-1 $671 $672 $673 $674 reversed $350 $-1 #
coedge $-1 $675 $352 $354 $511 forward $222 $-1 #
coedge $-1 $352 $675 $671 $676 forward $222 $-1 #
coedge $-1 $673 $355 $352 $508 forward $502 $-1 #
edge $-1 $514 8.1531293157920324 $677 20.937412244149229 $507 $678 forward 7 unknown #
coedge $-1 $679 $680 $353 $510 forward $669 $-1 #
edge $-1 $681 -43.759477701091114 $513 -37.959479901795589 $509 $682 forward 7 unknown #
edge $-1 $514 -7.1691914767571081 $681 -2.4161062406544664e-014 $354 $683 forward 7 unknown #
coedge $-1 $355 $673 $679 $684 forward $502 $-1 #
vertex $-1 $356 $685 #
vertex $-1 $356 $686 #
straight-curve $-1 -103.07225525564431 22.698400095762661 10.845692482428333 1 0 0 I I #
coedge $-1 $516 $516 $-1 $687 reversed $359 $-1 #
edge $-1 $688 0 $688 6.2831853071796004 $360 $689 forward 7 unknown #
vertex $-1 $363 $690 #
ellipse-curve $-1 -76.633223458758351 25.255256681434091 7.945693582780569 -0.80901700255871778 0 0.5877852410284794 0.5877852410284794 0 0.80901700255871778 1 I I #
coedge $-1 $520 $520 $-1 $691 reversed $366 $-1 #
edge $-1 $692 0 $692 6.2831853071796004 $367 $693 forward 7 unknown #
vertex $-1 $370 $694 #
ellipse-curve $-1 -76.633223458758351 29.090541559941258 7.945693582780569 -0.80901700255871778 0 0.5877852410284794 0.5877852410284794 0 0.80901700255871778 1 I I #
coedge $-1 $524 $524 $-1 $695 reversed $373 $-1 #
edge $-1 $696 0 $696 6.2831853071796004 $374 $697 forward 7 unknown #
vertex $-1 $377 $698 #
ellipse-curve $-1 -76.633223458758351 32.925826438448411 7.945693582780569 -0.80901700255871778 0 0.5877852410284794 0.5877852410284794 0 0.80901700255871778 1 I I #
face $-1 $-1 $540 $77 $-1 $699 reversed single #
loop $-1 $-1 $700 $378 #
plane-surface $-1 0 39.312905769124242 0 0 -1 0 0 0 -1 forward_v I I I I #
coedge $-1 $536 $701 $702 $703 forward $379 $-1 #
coedge $-1 $702 $381 $383 $538 forward $241 $-1 #
coedge $-1 $381 $702 $700 $704 reversed $241 $-1 #
coedge $-1 $705 $384 $381 $535 forward $540 $-1 #
edge $-1 $542 7.3844123072937542 $706 23.747133076984909 $534 $707 forward 7 unknown #
coedge $-1 $708 $531 $382 $537 forward $379 $-1 #
edge $-1 $709 17.770678174679233 $541 20.033424924910065 $536 $710 forward 7 unknown #
edge $-1 $542 -157.48039185766169 $709 -153.53541320677436 $383 $711 forward 7 unknown #
coedge $-1 $384 $705 $708 $712 reversed $540 $-1 #
loop $-1 $-1 $534 $528 #
vertex $-1 $712 $713 #
vertex $-1 $385 $714 #
straight-curve $-1 78.740195928830843 22.950184999433088 113.47079072894302 0 0 -1 I I #
coedge $-1 $544 $544 $-1 $715 reversed $388 $-1 #
edge $-1 $716 0 $716 6.2831853071796004 $389 $717 forward 7 unknown #
vertex $-1 $392 $718 #
ellipse-curve $-1 77.608822553715427 27.625248076487694 9.2299238031090436 0.81915205242281985 0 0.57357642473473569 0.28678821236736785 0 -0.40957602621140993 1 I I #
coedge $-1 $548 $548 $-1 $719 reversed $395 $-1 #
edge $-1 $720 0 $720 6.2831853071796004 $396 $721 forward 7 unknown #
vertex $-1 $399 $722 #
ellipse-curve $-1 77.608822553715427 34.637842692069611 9.2299238031090436 0.81915205242281985 0 0.57357642473473569 0.28678821236736785 0 -0.40957602621140993 1 I I #
face $-1 $-1 $415 $60 $-1 $723 reversed single #
loop $-1 $-1 $568 $400 #
plane-surface $-1 0 39.312905769124242 0 0 -1 0 0 0 -1 forward_v I I I I #
coedge $-1 $724 $566 $569 $725 forward $401 $-1 #
coedge $-1 $572 $403 $404 $560 reversed $255 $-1 #
coedge $-1 $566 $724 $403 $558 reversed $401 $-1 #
edge $-1 $573 -10.845692482428337 $726 10.845692482428337 $557 $727 forward 7 unknown #
coedge $-1 $405 $404 $724 $728 forward $161 $-1 #
edge $-1 $564 -78.740195928830843 $726 78.740195928830843 $556 $729 forward 7 unknown #
coedge $-1 $569 $568 $405 $562 reversed $553 $-1 #
edge $-1 $730 -78.740195928830843 $563 78.740195928830843 $561 $731 forward 7 unknown #
vertex $-1 $407 $732 #
vertex $-1 $575 $733 #
straight-curve $-1 78.740195928830843 0 -10.845692482428337 0 -1 0 I I #
coedge $-1 $555 $557 $408 $567 reversed $401 $-1 #
edge $-1 $570 -39.312905769124242 $573 39.312905769124242 $566 $734 forward 7 unknown #
coedge $-1 $561 $409 $414 $576 forward $553 $-1 #
coedge $-1 $409 $561 $555 $725 reversed $553 $-1 #
vertex $-1 $410 $735 #
straight-curve $-1 0 39.312905769124242 10.845692482428337 -1 0 0 I I #
coedge $-1 $411 $556 $413 $575 reversed $255 $-1 #
vertex $-1 $567 $736 #
straight-curve $-1 0 -39.312905769124242 10.845692482428337 1 0 0 I I #
edge $-1 $416 -10.845692482428337 $564 10.845692482428337 $413 $737 forward 7 unknown #
edge $-1 $417 -10.845692482428337 $563 10.845692482428337 $414 $738 forward 7 unknown #
point $-1 78.740195928830843 -39.312905769124242 10.845692482428337 #
point $-1 78.740195928830843 39.312905769124242 10.845692482428337 #
plane-surface $-1 0 0 10.845692482428337 0 0 1 1 0 0 forward_v I I I I #
coedge $-1 $590 $589 $582 $739 forward $420 $-1 #
coedge $-1 $582 $422 $424 $586 reversed $263 $-1 #
coedge $-1 $422 $581 $580 $739 reversed $263 $-1 #
coedge $-1 $430 $425 $422 $584 forward $431 $-1 #
edge $-1 $587 -28.546004266958448 $740 -24.332059326813464 $583 $741 forward 7 unknown #
coedge $-1 $424 $423 $590 $742 reversed $165 $-1 #
edge $-1 $743 2.4161062406544664e-014 $587 7.1691914767571081 $581 $744 forward 7 unknown #
vertex $-1 $426 $745 #
straight-curve $-1 -74.52625098868586 -14.545270779970629 10.845692482428339 0 1 0 I I #
coedge $-1 $580 $427 $430 $594 reversed $420 $-1 #
coedge $-1 $427 $580 $585 $742 forward $420 $-1 #
vertex $-1 $428 $746 #
straight-curve $-1 -78.740195928830843 -35.482683024119858 48.80517238422393 0 0 1 I I #
straight-curve $-1 -78.740195928830857 -35.482683024119858 5.045694683132794 -0.5877852410284794 0 -0.80901700255871778 I I #
edge $-1 $740 22.698400095762661 $432 35.482683024119858 $589 $747 forward 7 unknown #
point $-1 -78.740195928830843 -35.482683024119858 10.845692482428337 #
point $-1 -74.52625098868586 -35.482683024119858 10.845692482428337 #
edge $-1 $748 1 $748 0 $435 $-1 forward 7 unknown #
vertex $-1 $436 $749 #
ellipse-curve $-1 -75.546740314204484 -32.925826438448411 7.1563173954134536 -0.80901700255871778 0 0.5877852410284794 0.5877852410284794 0 0.80901700255871778 1 I I #
point $-1 -76.045438217729867 -32.925826438448411 8.7547105853392857 #
edge $-1 $750 1 $750 0 $439 $-1 forward 7 unknown #
vertex $-1 $440 $751 #
ellipse-curve $-1 -75.546740314204484 -29.090541559941258 7.1563173954134536 -0.80901700255871778 0 0.5877852410284794 0.5877852410284794 0 0.80901700255871778 1 I I #
point $-1 -76.045438217729867 -29.090541559941258 8.7547105853392857 #
edge $-1 $752 1 $752 0 $443 $-1 forward 7 unknown #
vertex $-1 $444 $753 #
ellipse-curve $-1 -75.546740314204484 -25.255256681434098 7.1563173954134536 -0.80901700255871778 0 0.5877852410284794 0.5877852410284794 0 0.80901700255871778 1 I I #
point $-1 -76.045438217729867 -25.255256681434098 8.7547105853392857 #
loop $-1 $-1 $455 $447 #
plane-surface $-1 -78.740195928830843 0 0 1 0 0 0 0 -1 forward_v I I I I #
coedge $-1 $612 $450 $452 $616 reversed $292 $-1 #
coedge $-1 $450 $611 $754 $755 reversed $292 $-1 #
coedge $-1 $458 $453 $450 $614 forward $448 $-1 #
edge $-1 $617 -28.546004266958448 $756 -24.332059326813464 $613 $757 forward 7 unknown #
coedge $-1 $452 $451 $620 $758 reversed $184 $-1 #
edge $-1 $759 2.4161062406544664e-014 $617 7.1691914767571081 $611 $760 forward 7 unknown #
vertex $-1 $454 $761 #
straight-curve $-1 -74.52625098868586 -4.8484235933235418 10.845692482428339 0 1 0 I I #
coedge $-1 $754 $455 $458 $624 reversed $609 $-1 #
coedge $-1 $455 $754 $615 $758 forward $609 $-1 #
vertex $-1 $456 $762 #
straight-curve $-1 -78.740195928830843 -16.08898865082568 48.80517238422393 0 0 1 I I #
straight-curve $-1 -78.740195928830857 -16.08898865082568 5.045694683132794 -0.5877852410284794 0 -0.80901700255871778 I I #
edge $-1 $756 3.3047057224684862 $459 16.08898865082568 $619 $763 forward 7 unknown #
point $-1 -78.740195928830843 -16.08898865082568 10.845692482428337 #
point $-1 -74.52625098868586 -16.08898865082568 10.845692482428337 #
edge $-1 $764 1 $764 0 $462 $-1 forward 7 unknown #
vertex $-1 $463 $765 #
ellipse-curve $-1 -75.546740314204484 -13.532132065154244 7.1563173954134536 -0.80901700255871778 0 0.5877852410284794 0.5877852410284794 0 0.80901700255871778 1 I I #
point $-1 -76.045438217729867 -13.532132065154244 8.7547105853392857 #
edge $-1 $766 1 $766 0 $466 $-1 forward 7 unknown #
vertex $-1 $467 $767 #
ellipse-curve $-1 -75.546740314204484 -9.6968471866470836 7.1563173954134536 -0.80901700255871778 0 0.5877852410284794 0.5877852410284794 0 0.80901700255871778 1 I I #
point $-1 -76.045438217729867 -9.6968471866470836 8.7547105853392857 #
edge $-1 $768 1 $768 0 $470 $-1 forward 7 unknown #
vertex $-1 $471 $769 #
ellipse-curve $-1 -75.546740314204484 -5.8615623081399235 7.1563173954134536 -0.80901700255871778 0 0.5877852410284794 0.5877852410284794 0 0.80901700255871778 1 I I #
point $-1 -76.045438217729867 -5.8615623081399235 8.7547105853392857 #
loop $-1 $-1 $482 $474 #
plane-surface $-1 -78.740195928830843 0 0 1 0 0 0 0 -1 forward_v I I I I #
coedge $-1 $642 $477 $479 $646 reversed $321 $-1 #
coedge $-1 $477 $641 $770 $771 reversed $321 $-1 #
coedge $-1 $485 $480 $477 $644 forward $475 $-1 #
edge $-1 $647 -28.546004266958448 $772 -24.332059326813464 $643 $773 forward 7 unknown #
coedge $-1 $479 $478 $650 $774 reversed $203 $-1 #
edge $-1 $775 2.4161062406544664e-014 $647 7.1691914767571081 $641 $776 forward 7 unknown #
vertex $-1 $481 $777 #
straight-curve $-1 -74.52625098868586 4.8484235933235453 10.845692482428339 0 1 0 I I #
coedge $-1 $770 $482 $485 $654 reversed $639 $-1 #
coedge $-1 $482 $770 $645 $774 forward $639 $-1 #
vertex $-1 $483 $778 #
straight-curve $-1 -78.740195928830843 3.3047057224684933 48.80517238422393 0 0 1 I I #
straight-curve $-1 -78.740195928830857 3.3047057224684933 5.045694683132794 -0.5877852410284794 0 -0.80901700255871778 I I #
edge $-1 $772 -16.088988650825687 $486 -3.3047057224684933 $649 $779 forward 7 unknown #
point $-1 -78.740195928830843 3.3047057224684933 10.845692482428337 #
point $-1 -74.52625098868586 3.3047057224684933 10.845692482428337 #
edge $-1 $780 1 $780 0 $489 $-1 forward 7 unknown #
vertex $-1 $490 $781 #
ellipse-curve $-1 -75.546740314204484 5.8615623081399235 7.1563173954134536 -0.80901700255871778 0 0.5877852410284794 0.5877852410284794 0 0.80901700255871778 1 I I #
point $-1 -76.045438217729867 5.8615623081399235 8.7547105853392857 #
edge $-1 $782 1 $782 0 $493 $-1 forward 7 unknown #
vertex $-1 $494 $783 #
ellipse-curve $-1 -75.546740314204484 9.6968471866470907 7.1563173954134536 -0.80901700255871778 0 0.5877852410284794 0.5877852410284794 0 0.80901700255871778 1 I I #
point $-1 -76.045438217729867 9.6968471866470907 8.7547105853392857 #
edge $-1 $784 1 $784 0 $497 $-1 forward 7 unknown #
vertex $-1 $498 $785 #
ellipse-curve $-1 -75.546740314204484 13.532132065154244 7.1563173954134536 -0.80901700255871778 0 0.5877852410284794 0.5877852410284794 0 0.80901700255871778 1 I I #
point $-1 -76.045438217729867 13.532132065154244 8.7547105853392857 #
loop $-1 $-1 $509 $501 #
plane-surface $-1 -78.740195928830843 0 0 1 0 0 0 0 -1 forward_v I I I I #
coedge $-1 $672 $504 $506 $676 reversed $350 $-1 #
coedge $-1 $504 $671 $786 $787 reversed $350 $-1 #
coedge $-1 $512 $507 $504 $674 forward $502 $-1 #
edge $-1 $677 -28.546004266958448 $788 -24.332059326813464 $673 $789 forward 7 unknown #
coedge $-1 $506 $505 $680 $790 reversed $222 $-1 #
edge $-1 $791 2.4161062406544664e-014 $677 7.1691914767571081 $671 $792 forward 7 unknown #
vertex $-1 $508 $793 #
straight-curve $-1 -74.52625098868586 14.545270779970629 10.845692482428339 0 1 0 I I #
coedge $-1 $786 $509 $512 $684 reversed $669 $-1 #
coedge $-1 $509 $786 $675 $790 forward $669 $-1 #
vertex $-1 $510 $794 #
straight-curve $-1 -78.740195928830843 22.698400095762661 48.80517238422393 0 0 1 I I #
straight-curve $-1 -78.740195928830857 22.698400095762661 5.045694683132794 -0.5877852410284794 0 -0.80901700255871778 I I #
edge $-1 $788 -35.482683024119858 $513 -22.698400095762661 $679 $795 forward 7 unknown #
point $-1 -78.740195928830843 22.698400095762661 10.845692482428337 #
point $-1 -74.52625098868586 22.698400095762661 10.845692482428337 #
edge $-1 $796 1 $796 0 $516 $-1 forward 7 unknown #
vertex $-1 $517 $797 #
ellipse-curve $-1 -75.546740314204484 25.255256681434091 7.1563173954134536 -0.80901700255871778 0 0.5877852410284794 0.5877852410284794 0 0.80901700255871778 1 I I #
point $-1 -76.045438217729867 25.255256681434091 8.7547105853392857 #
edge $-1 $798 1 $798 0 $520 $-1 forward 7 unknown #
vertex $-1 $521 $799 #
ellipse-curve $-1 -75.546740314204484 29.090541559941258 7.1563173954134536 -0.80901700255871778 0 0.5877852410284794 0.5877852410284794 0 0.80901700255871778 1 I I #
point $-1 -76.045438217729867 29.090541559941258 8.7547105853392857 #
edge $-1 $800 1 $800 0 $524 $-1 forward 7 unknown #
vertex $-1 $525 $801 #
ellipse-curve $-1 -75.546740314204484 32.925826438448411 7.1563173954134536 -0.80901700255871778 0 0.5877852410284794 0.5877852410284794 0 0.80901700255871778 1 I I #
point $-1 -76.045438217729867 32.925826438448411 8.7547105853392857 #
plane-surface $-1 78.740195928830843 0 0 -1 0 0 0 0 1 forward_v I I I I #
coedge $-1 $802 $803 $533 $704 forward $529 $-1 #
coedge $-1 $531 $708 $802 $804 forward $379 $-1 #
coedge $-1 $533 $532 $531 $703 reversed $241 $-1 #
edge $-1 $805 -23.747133076984909 $709 -7.3844123072937542 $531 $806 forward 7 unknown #
edge $-1 $706 -98.203380562157477 $805 -94.258401911270141 $700 $807 forward 7 unknown #
coedge $-1 $539 $534 $803 $808 reversed $540 $-1 #
vertex $-1 $535 $809 #
straight-curve $-1 78.740195928830843 15.565772692139333 7.6141551237897716 0 1 0 I I #
coedge $-1 $701 $536 $539 $712 forward $379 $-1 #
vertex $-1 $537 $810 #
straight-curve $-1 58.706771003920778 22.950184999433088 10.845692482428333 1 0 0 I I #
straight-curve $-1 -11.58684419871193 22.950184999433088 136.61454133034326 -0.57357642473473569 0 0.81915205242281985 I I #
edge $-1 $541 22.950184999433088 $811 39.312905769124242 $539 $812 forward 7 unknown #
point $-1 78.740195928830843 22.950184999433088 10.845692482428337 #
point $-1 78.740195928830843 22.950184999433088 7.6141551237897716 #
edge $-1 $813 1 $813 0 $544 $-1 forward 7 unknown #
vertex $-1 $545 $814 #
ellipse-curve $-1 76.789670501292633 27.625248076487694 8.6563473783743241 0.81915205242281985 0 0.57357642473473569 0.28678821236736785 0 -0.40957602621140993 1 I I #
point $-1 77.895610766082825 27.625248076487694 8.8203477768976484 #
edge $-1 $815 1 $815 0 $548 $-1 forward 7 unknown #
vertex $-1 $549 $816 #
ellipse-curve $-1 76.789670501292633 34.637842692069611 8.6563473783743241 0.81915205242281985 0 0.57357642473473569 0.28678821236736785 0 -0.40957602621140993 1 I I #
point $-1 77.895610766082825 34.637842692069611 8.8203477768976484 #
plane-surface $-1 78.740195928830843 0 0 -1 0 0 0 0 1 forward_v I I I I #
coedge $-1 $557 $555 $559 $728 reversed $401 $-1 #
edge $-1 $570 -10.845692482428337 $730 10.845692482428337 $569 $817 forward 7 unknown #
vertex $-1 $728 $818 #
straight-curve $-1 -78.740195928830843 -39.312905769124242 0 0 0 -1 I I #
edge $-1 $726 -39.312905769124242 $730 39.312905769124242 $724 $819 forward 7 unknown #
straight-curve $-1 0 -39.312905769124242 -10.845692482428337 -1 0 0 I I #
vertex $-1 $562 $820 #
straight-curve $-1 0 39.312905769124242 -10.845692482428337 1 0 0 I I #
point $-1 78.740195928830843 39.312905769124242 -10.845692482428337 #
point $-1 78.740195928830843 -39.312905769124242 -10.845692482428337 #
straight-curve $-1 -78.740195928830843 0 10.845692482428337 0 -1 0 I I #
point $-1 -78.740195928830843 39.312905769124242 10.845692482428337 #
point $-1 -78.740195928830843 -39.312905769124242 10.845692482428337 #
straight-curve $-1 78.740195928830843 -39.312905769124242 0 0 0 -1 I I #
straight-curve $-1 78.740195928830843 39.312905769124242 0 0 0 -1 I I #
edge $-1 $740 37.959479901795589 $743 43.759477701091114 $580 $821 forward 7 unknown #
vertex $-1 $594 $822 #
straight-curve $-1 -103.07225525564431 -22.698400095762661 10.845692482428333 -1 0 0 I I #
edge $-1 $743 8.1531293157920324 $591 20.937412244149229 $590 $823 forward 7 unknown #
vertex $-1 $742 $824 #
straight-curve $-1 -78.740195928830857 -22.698400095762661 5.045694683132794 0.5877852410284794 0 0.80901700255871778 I I #
point $-1 -74.52625098868586 -22.698400095762661 10.845692482428337 #
point $-1 -78.740195928830843 -35.482683024119858 5.0456946831328136 #
straight-curve $-1 -78.740195928830843 0 10.845692482428337 0 -1 0 I I #
vertex $-1 $597 $825 #
point $-1 -74.958955073176014 -32.925826438448411 7.9653343979721711 #
vertex $-1 $601 $826 #
point $-1 -74.958955073176014 -29.090541559941258 7.9653343979721711 #
vertex $-1 $605 $827 #
point $-1 -74.958955073176014 -25.255256681434098 7.9653343979721711 #
coedge $-1 $620 $619 $612 $755 forward $609 $-1 #
edge $-1 $756 37.959479901795589 $759 43.759477701091114 $754 $828 forward 7 unknown #
vertex $-1 $624 $829 #
straight-curve $-1 -103.07225525564431 -3.3047057224684862 10.845692482428333 -1 0 0 I I #
edge $-1 $759 -1.5437178708550556 $621 11.240565057502138 $620 $830 forward 7 unknown #
vertex $-1 $758 $831 #
straight-curve $-1 -78.740195928830857 -3.3047057224684862 5.045694683132794 0.5877852410284794 0 0.80901700255871778 I I #
point $-1 -74.52625098868586 -3.3047057224684862 10.845692482428337 #
point $-1 -78.740195928830843 -16.08898865082568 5.0456946831328136 #
straight-curve $-1 -78.740195928830843 0 10.845692482428337 0 -1 0 I I #
vertex $-1 $627 $832 #
point $-1 -74.958955073176014 -13.532132065154244 7.9653343979721711 #
vertex $-1 $631 $833 #
point $-1 -74.958955073176014 -9.6968471866470836 7.9653343979721711 #
vertex $-1 $635 $834 #
point $-1 -74.958955073176014 -5.8615623081399235 7.9653343979721711 #
coedge $-1 $650 $649 $642 $771 forward $639 $-1 #
edge $-1 $772 37.959479901795589 $775 43.759477701091114 $770 $835 forward 7 unknown #
vertex $-1 $654 $836 #
straight-curve $-1 -103.07225525564431 16.088988650825687 10.845692482428333 -1 0 0 I I #
edge $-1 $775 -11.240565057502142 $651 1.5437178708550521 $650 $837 forward 7 unknown #
vertex $-1 $774 $838 #
straight-curve $-1 -78.740195928830857 16.088988650825687 5.045694683132794 0.5877852410284794 0 0.80901700255871778 I I #
point $-1 -74.52625098868586 16.088988650825687 10.845692482428337 #
point $-1 -78.740195928830843 3.3047057224684933 5.0456946831328136 #
straight-curve $-1 -78.740195928830843 0 10.845692482428337 0 -1 0 I I #
vertex $-1 $657 $839 #
point $-1 -74.958955073176014 5.8615623081399235 7.9653343979721711 #
vertex $-1 $661 $840 #
point $-1 -74.958955073176014 9.6968471866470907 7.9653343979721711 #
vertex $-1 $665 $841 #
point $-1 -74.958955073176014 13.532132065154244 7.9653343979721711 #
coedge $-1 $680 $679 $672 $787 forward $669 $-1 #
edge $-1 $788 37.959479901795589 $791 43.759477701091114 $786 $842 forward 7 unknown #
vertex $-1 $684 $843 #
straight-curve $-1 -103.07225525564431 35.482683024119858 10.845692482428333 -1 0 0 I I #
edge $-1 $791 -20.937412244149229 $681 -8.1531293157920324 $680 $844 forward 7 unknown #
vertex $-1 $790 $845 #
straight-curve $-1 -78.740195928830857 35.482683024119858 5.045694683132794 0.5877852410284794 0 0.80901700255871778 I I #
point $-1 -74.52625098868586 35.482683024119858 10.845692482428337 #
point $-1 -78.740195928830843 22.698400095762661 5.0456946831328136 #
straight-curve $-1 -78.740195928830843 0 10.845692482428337 0 -1 0 I I #
vertex $-1 $687 $846 #
point $-1 -74.958955073176014 25.255256681434091 7.9653343979721711 #
vertex $-1 $691 $847 #
point $-1 -74.958955073176014 29.090541559941258 7.9653343979721711 #
vertex $-1 $695 $848 #
point $-1 -74.958955073176014 32.925826438448411 7.9653343979721711 #
coedge $-1 $803 $700 $701 $804 reversed $529 $-1 #
coedge $-1 $700 $802 $705 $808 forward $529 $-1 #
edge $-1 $811 -78.740195928830843 $805 -76.477449178600011 $802 $849 forward 7 unknown #
vertex $-1 $703 $850 #
straight-curve $-1 76.477449178600025 15.565772692139333 10.845692482428333 0 -1 0 I I #
straight-curve $-1 22.413052009123923 39.312905769124242 88.057655866140308 -0.57357642473473569 0 0.81915205242281985 I I #
edge $-1 $811 -10.845692482428337 $706 -7.6141551237897769 $705 $851 forward 7 unknown #
point $-1 78.740195928830843 39.312905769124242 7.6141551237897769 #
point $-1 76.477449178600011 22.950184999433088 10.845692482428333 #
vertex $-1 $712 $852 #
straight-curve $-1 78.740195928830843 0 10.845692482428337 0 1 0 I I #
vertex $-1 $715 $853 #
point $-1 77.076458713660003 27.625248076487694 8.2467713521629129 #
vertex $-1 $719 $854 #
point $-1 77.076458713660003 34.637842692069611 8.2467713521629129 #
straight-curve $-1 -78.740195928830843 39.312905769124242 0 0 0 -1 I I #
point $-1 -78.740195928830843 -39.312905769124242 -10.845692482428337 #
straight-curve $-1 -78.740195928830843 0 -10.845692482428337 0 1 0 I I #
point $-1 -78.740195928830843 39.312905769124242 -10.845692482428337 #
straight-curve $-1 -78.740195928830843 -22.698400095762661 48.80517238422393 0 0 -1 I I #
point $-1 -78.740195928830843 -22.698400095762661 10.845692482428337 #
straight-curve $-1 -78.740195928830843 -14.545270779970629 5.0456946831328091 0 -1 0 I I #
point $-1 -78.740195928830843 -22.698400095762661 5.0456946831328136 #
point $-1 -74.73772331164578 -32.925826438448411 6.5685321543849744 #
point $-1 -74.73772331164578 -29.090541559941258 6.5685321543849744 #
point $-1 -74.73772331164578 -25.255256681434098 6.5685321543849744 #
straight-curve $-1 -78.740195928830843 -3.3047057224684862 48.80517238422393 0 0 -1 I I #
point $-1 -78.740195928830843 -3.3047057224684862 10.845692482428337 #
straight-curve $-1 -78.740195928830843 -4.8484235933235418 5.0456946831328091 0 -1 0 I I #
point $-1 -78.740195928830843 -3.3047057224684862 5.0456946831328136 #
point $-1 -74.73772331164578 -13.532132065154244 6.5685321543849744 #
point $-1 -74.73772331164578 -9.6968471866470836 6.5685321543849744 #
point $-1 -74.73772331164578 -5.8615623081399235 6.5685321543849744 #
straight-curve $-1 -78.740195928830843 16.088988650825687 48.80517238422393 0 0 -1 I I #
point $-1 -78.740195928830843 16.088988650825687 10.845692482428337 #
straight-curve $-1 -78.740195928830843 4.8484235933235453 5.0456946831328091 0 -1 0 I I #
point $-1 -78.740195928830843 16.088988650825687 5.0456946831328136 #
point $-1 -74.73772331164578 5.8615623081399235 6.5685321543849744 #
point $-1 -74.73772331164578 9.6968471866470907 6.5685321543849744 #
point $-1 -74.73772331164578 13.532132065154244 6.5685321543849744 #
straight-curve $-1 -78.740195928830843 35.482683024119858 48.80517238422393 0 0 -1 I I #
point $-1 -78.740195928830843 35.482683024119858 10.845692482428337 #
straight-curve $-1 -78.740195928830843 14.545270779970629 5.0456946831328091 0 -1 0 I I #
point $-1 -78.740195928830843 35.482683024119858 5.0456946831328136 #
point $-1 -74.73772331164578 25.255256681434091 6.5685321543849744 #
point $-1 -74.73772331164578 29.090541559941258 6.5685321543849744 #
point $-1 -74.73772331164578 32.925826438448411 6.5685321543849744 #
straight-curve $-1 0 39.312905769124242 10.845692482428337 -1 0 0 I I #
point $-1 76.477449178600011 39.312905769124242 10.845692482428333 #
straight-curve $-1 78.740195928830843 39.312905769124242 0 0 0 -1 I I #
point $-1 78.740195928830843 39.312905769124242 10.845692482428337 #
point $-1 76.380094475081236 27.625248076487694 8.3695591660069546 #
point $-1 76.380094475081236 34.637842692069611 8.3695591660069546 #
End-of-ACIS-data 