500 0 5 0           
7 Unknown 11 ACIS 5.0 NT 24 Thu Mar 25 15:54:07 1999 
-1 9.9999999999999995e-007 1e-010 
body $-1 $5 $-1 $6 #
body $-1 $7 $-1 $8 #
body $-1 $9 $-1 $10 #
body $-1 $11 $-1 $12 #
body $-1 $13 $-1 $14 #
lump $-1 $-1 $15 $0 #
transform $-1 1 0 0 0 1 0 0 0 1 43.313089388714253 25.704052238784236 6.6078876442342258 1 rotate no_reflect no_shear #
lump $-1 $-1 $16 $1 #
transform $-1 1 0 0 0 1 0 0 0 1 43.313089388714253 25.704052238784236 6.6078876442342258 1 rotate no_reflect no_shear #
lump $-1 $-1 $17 $2 #
transform $-1 1 0 0 0 1 0 0 0 1 43.313089388714253 25.704052238784236 6.6078876442342258 1 rotate no_reflect no_shear #
lump $-1 $-1 $18 $3 #
transform $-1 1 0 0 0 1 0 0 0 1 43.313089388714253 25.704052238784236 6.6078876442342258 1 rotate no_reflect no_shear #
lump $-1 $-1 $19 $4 #
transform $-1 1 0 0 0 1 0 0 0 1 43.313089388714253 25.704052238784236 6.6078876442342258 1 rotate no_reflect no_shear #
shell $-1 $-1 $-1 $20 $-1 $5 #
shell $-1 $-1 $-1 $21 $-1 $7 #
shell $-1 $-1 $-1 $22 $-1 $9 #
shell $-1 $-1 $-1 $23 $-1 $11 #
shell $-1 $-1 $-1 $24 $-1 $13 #
face $-1 $25 $26 $15 $-1 $27 forward single #
face $-1 $28 $29 $16 $-1 $30 reversed single #
face $-1 $31 $32 $17 $-1 $33 forward single #
face $-1 $34 $35 $18 $-1 $36 reversed single #
face $-1 $37 $38 $19 $-1 $39 forward single #
face $-1 $40 $41 $15 $-1 $42 reversed single #
loop $-1 $-1 $43 $20 #
plane-surface $-1 0 0 6.6078876442342258 0 0 1 1 0 0 forward_v I I I I #
face $-1 $44 $45 $16 $-1 $46 reversed single #
loop $-1 $-1 $47 $21 #
plane-surface $-1 -105.62674824827585 -13.802447540719584 63.769723674631081 0 -1 0 0.71933980857756763 0 -0.69465836192734942 forward_v I I I I #
face $-1 $48 $49 $17 $-1 $50 forward single #
loop $-1 $51 $52 $22 #
cone-surface $-1 -41.451831747154017 -19.75324988975191 4.7088600851804276 0.71933980857756763 0 -0.69465836192734942 0.34732918096367471 0 0.35966990428878381 1 I I 0 1 0.5 forward I I I I #
face $-1 $53 $54 $18 $-1 $55 reversed single #
loop $-1 $-1 $56 $23 #
plane-surface $-1 -43.313089388714275 19.753249889751906 3.5941242250768752 -0.71933980857756763 0 0.69465836192734942 0.69465836192734942 0 0.71933980857756763 forward_v I I I I #
face $-1 $57 $58 $19 $-1 $59 forward single #
loop $-1 $60 $61 $24 #
cone-surface $-1 -41.451831747154017 19.753249889751906 4.7088600851804276 0.71933980857756763 0 -0.69465836192734942 0.34732918096367471 0 0.35966990428878381 1 I I 0 1 0.5 forward I I I I #
face $-1 $62 $63 $15 $-1 $64 reversed single #
loop $-1 $-1 $65 $25 #
plane-surface $-1 0 0 -6.6078876442342258 0 0 1 1 0 0 forward_v I I I I #
coedge $-1 $66 $67 $68 $69 forward $26 $-1 #
face $-1 $70 $71 $16 $-1 $72 forward single #
loop $-1 $-1 $73 $28 #
plane-surface $-1 -43.313089388714275 -19.75324988975191 3.5941242250768752 -0.71933980857756763 0 0.69465836192734942 0.69465836192734942 0 0.71933980857756763 forward_v I I I I #
coedge $-1 $74 $75 $76 $77 reversed $29 $-1 #
face $-1 $-1 $78 $17 $-1 $79 forward single #
loop $-1 $80 $81 $31 #
cone-surface $-1 -40.865917870812609 -19.75324988975191 4.1430496452234733 0.71933980857756763 0 -0.69465836192734942 0.17366459048183736 0 0.17983495214439191 1 I I -0.70710678118654746 0.70710678118654746 0.25 forward I I I I #
loop $-1 $-1 $82 $22 #
coedge $-1 $52 $52 $83 $84 reversed $32 $-1 #
face $-1 $85 $86 $18 $-1 $87 forward single #
loop $-1 $-1 $88 $34 #
plane-surface $-1 -105.62674824827585 13.80244754071958 63.769723674631081 0 1 0 -0.71933980857756763 0 0.69465836192734942 forward_v I I I I #
coedge $-1 $89 $90 $91 $92 reversed $35 $-1 #
face $-1 $-1 $93 $19 $-1 $94 forward single #
loop $-1 $95 $96 $37 #
cone-surface $-1 -40.865917870812609 19.753249889751906 4.1430496452234733 0.71933980857756763 0 -0.69465836192734942 0.17366459048183736 0 0.17983495214439191 1 I I -0.70710678118654746 0.70710678118654746 0.25 forward I I I I #
loop $-1 $-1 $97 $24 #
coedge $-1 $61 $61 $98 $99 reversed $38 $-1 #
face $-1 $100 $101 $15 $-1 $102 reversed single #
loop $-1 $-1 $103 $40 #
plane-surface $-1 0 -25.704052238784236 0 0 1 0 0 0 1 forward_v I I I I #
coedge $-1 $104 $105 $106 $107 forward $41 $-1 #
coedge $-1 $108 $43 $109 $110 forward $26 $-1 #
coedge $-1 $43 $108 $111 $112 forward $26 $-1 #
coedge $-1 $113 $114 $43 $69 reversed $115 $-1 #
edge $-1 $116 -25.704052238784236 $117 25.704052238784236 $68 $118 forward 7 unknown #
face $-1 $119 $120 $16 $-1 $121 reversed single #
loop $-1 $-1 $122 $44 #
plane-surface $-1 0 0 6.6078876442342258 0 0 1 1 0 0 forward_v I I I I #
coedge $-1 $123 $124 $125 $126 reversed $45 $-1 #
coedge $-1 $75 $47 $127 $128 reversed $29 $-1 #
coedge $-1 $47 $74 $123 $129 reversed $29 $-1 #
coedge $-1 $125 $130 $47 $77 forward $120 $-1 #
edge $-1 $131 25.276974193081315 $132 28.290737612238644 $76 $133 forward 7 unknown #
loop $-1 $-1 $83 $48 #
plane-surface $-1 -43.313089388714275 -19.75324988975191 3.5941242250768752 -0.71933980857756763 0 0.69465836192734942 0.69465836192734942 0 0.71933980857756763 forward_v I I I I #
loop $-1 $-1 $134 $31 #
coedge $-1 $81 $81 $82 $135 reversed $49 $-1 #
coedge $-1 $82 $82 $81 $135 forward $51 $-1 #
coedge $-1 $83 $83 $52 $84 forward $78 $-1 #
edge $-1 $136 0 $136 6.2831853071796004 $83 $137 forward 7 unknown #
face $-1 $138 $139 $18 $-1 $140 reversed single #
loop $-1 $-1 $141 $53 #
plane-surface $-1 0 0 6.6078876442342258 0 0 1 1 0 0 forward_v I I I I #
coedge $-1 $142 $143 $144 $145 reversed $54 $-1 #
coedge $-1 $146 $56 $147 $148 reversed $35 $-1 #
coedge $-1 $56 $146 $142 $149 forward $35 $-1 #
coedge $-1 $144 $150 $56 $92 forward $151 $-1 #
edge $-1 $152 -15.827427293908279 $153 -3.925822595843627 $91 $154 forward 7 unknown #
loop $-1 $-1 $98 $57 #
plane-surface $-1 -43.313089388714275 19.753249889751906 3.5941242250768752 -0.71933980857756763 0 0.69465836192734942 0.69465836192734942 0 0.71933980857756763 forward_v I I I I #
loop $-1 $-1 $155 $37 #
coedge $-1 $96 $96 $97 $156 reversed $58 $-1 #
coedge $-1 $97 $97 $96 $156 forward $60 $-1 #
coedge $-1 $98 $98 $61 $99 forward $93 $-1 #
edge $-1 $157 0 $157 6.2831853071796004 $98 $158 forward 7 unknown #
face $-1 $159 $160 $15 $-1 $161 reversed single #
loop $-1 $-1 $162 $62 #
plane-surface $-1 -43.313089388714253 0 0 1 0 0 0 0 -1 forward_v I I I I #
coedge $-1 $163 $111 $164 $165 forward $63 $-1 #
coedge $-1 $166 $65 $163 $167 forward $41 $-1 #
coedge $-1 $65 $166 $168 $169 forward $41 $-1 #
coedge $-1 $114 $113 $65 $107 reversed $115 $-1 #
edge $-1 $170 -25.704052238784236 $171 25.704052238784236 $106 $172 forward 7 unknown #
coedge $-1 $67 $66 $173 $174 forward $26 $-1 #
coedge $-1 $175 $176 $66 $110 reversed $160 $-1 #
edge $-1 $117 -43.313089388714253 $177 43.313089388714253 $109 $178 forward 7 unknown #
coedge $-1 $103 $179 $67 $112 reversed $63 $-1 #
edge $-1 $180 -43.313089388714253 $116 43.313089388714253 $111 $181 forward 7 unknown #
coedge $-1 $106 $68 $179 $182 forward $115 $-1 #
coedge $-1 $68 $106 $175 $183 reversed $115 $-1 #
loop $-1 $-1 $113 $159 #
vertex $-1 $69 $184 #
vertex $-1 $69 $185 #
straight-curve $-1 43.313089388714253 0 6.6078876442342258 0 1 0 I I #
face $-1 $-1 $186 $16 $-1 $187 reversed single #
loop $-1 $-1 $76 $70 #
plane-surface $-1 -43.313089388714253 0 0 1 0 0 0 0 -1 forward_v I I I I #
coedge $-1 $127 $188 $189 $190 forward $71 $-1 #
coedge $-1 $189 $73 $75 $129 forward $45 $-1 #
coedge $-1 $73 $189 $191 $192 reversed $45 $-1 #
coedge $-1 $193 $76 $73 $126 forward $120 $-1 #
edge $-1 $132 3.9258225958436288 $194 15.827427293908281 $125 $195 forward 7 unknown #
coedge $-1 $196 $122 $74 $128 forward $71 $-1 #
edge $-1 $197 -12.410642170150084 $131 -9.5002847354236692 $127 $198 forward 7 unknown #
edge $-1 $132 3.0780085947320026e-014 $197 4.1896241292648728 $75 $199 forward 7 unknown #
coedge $-1 $76 $193 $196 $200 reversed $120 $-1 #
vertex $-1 $200 $201 #
vertex $-1 $77 $202 #
straight-curve $-1 -43.313089388714253 -13.802447540719584 31.88486183731554 0 0 -1 I I #
coedge $-1 $134 $134 $-1 $203 reversed $80 $-1 #
edge $-1 $204 0 $204 6.2831853071796004 $81 $205 forward 7 unknown #
vertex $-1 $84 $206 #
ellipse-curve $-1 -41.85791067135105 -19.75324988975191 5.1010059346555607 -0.71933980857756763 0 0.69465836192734942 0.34732918096367471 0 0.35966990428878381 1 I I #
face $-1 $-1 $151 $18 $-1 $207 reversed single #
loop $-1 $-1 $147 $85 #
plane-surface $-1 0 25.704052238784236 0 0 -1 0 0 0 -1 forward_v I I I I #
coedge $-1 $208 $209 $143 $210 forward $86 $-1 #
coedge $-1 $143 $88 $90 $149 reversed $54 $-1 #
coedge $-1 $88 $142 $141 $210 reversed $54 $-1 #
coedge $-1 $211 $91 $88 $145 forward $151 $-1 #
edge $-1 $153 -28.290737612238644 $212 -25.276974193081315 $144 $213 forward 7 unknown #
coedge $-1 $90 $89 $208 $214 reversed $35 $-1 #
coedge $-1 $215 $216 $89 $148 forward $139 $-1 #
edge $-1 $217 9.5615774170882872 $152 13.75120154635313 $147 $218 forward 7 unknown #
edge $-1 $219 -4.1896241292648728 $153 -3.0780085947320026e-014 $142 $220 forward 7 unknown #
coedge $-1 $91 $211 $215 $221 forward $151 $-1 #
loop $-1 $-1 $144 $138 #
vertex $-1 $148 $222 #
vertex $-1 $92 $223 #
straight-curve $-1 -43.313089388714253 9.8766249448759531 3.5941242250768921 0 -1 0 I I #
coedge $-1 $155 $155 $-1 $224 reversed $95 $-1 #
edge $-1 $225 0 $225 6.2831853071796004 $96 $226 forward 7 unknown #
vertex $-1 $99 $227 #
ellipse-curve $-1 -41.85791067135105 19.753249889751906 5.1010059346555607 -0.71933980857756763 0 0.69465836192734942 0.34732918096367471 0 0.35966990428878381 1 I I #
face $-1 $-1 $115 $15 $-1 $228 reversed single #
loop $-1 $-1 $175 $100 #
plane-surface $-1 0 25.704052238784236 0 0 -1 0 0 0 -1 forward_v I I I I #
coedge $-1 $229 $173 $176 $230 forward $101 $-1 #
coedge $-1 $179 $103 $104 $167 reversed $63 $-1 #
coedge $-1 $173 $229 $103 $165 reversed $101 $-1 #
edge $-1 $180 -6.6078876442342258 $231 6.6078876442342258 $164 $232 forward 7 unknown #
coedge $-1 $105 $104 $229 $233 forward $41 $-1 #
edge $-1 $171 -43.313089388714253 $231 43.313089388714253 $163 $234 forward 7 unknown #
coedge $-1 $176 $175 $105 $169 reversed $160 $-1 #
edge $-1 $235 -43.313089388714253 $170 43.313089388714253 $168 $236 forward 7 unknown #
vertex $-1 $107 $237 #
vertex $-1 $182 $238 #
straight-curve $-1 43.313089388714253 0 -6.6078876442342258 0 -1 0 I I #
coedge $-1 $162 $164 $108 $174 reversed $101 $-1 #
edge $-1 $177 -25.704052238784236 $180 25.704052238784236 $173 $239 forward 7 unknown #
coedge $-1 $168 $109 $114 $183 forward $160 $-1 #
coedge $-1 $109 $168 $162 $230 reversed $160 $-1 #
vertex $-1 $110 $240 #
straight-curve $-1 0 25.704052238784236 6.6078876442342258 -1 0 0 I I #
coedge $-1 $111 $163 $113 $182 reversed $63 $-1 #
vertex $-1 $174 $241 #
straight-curve $-1 0 -25.704052238784236 6.6078876442342258 1 0 0 I I #
edge $-1 $116 -6.6078876442342258 $171 6.6078876442342258 $113 $242 forward 7 unknown #
edge $-1 $117 -6.6078876442342258 $170 6.6078876442342258 $114 $243 forward 7 unknown #
point $-1 43.313089388714253 -25.704052238784236 6.6078876442342258 #
point $-1 43.313089388714253 25.704052238784236 6.6078876442342258 #
loop $-1 $-1 $191 $119 #
plane-surface $-1 0 -25.704052238784236 0 0 1 0 0 0 1 forward_v I I I I #
coedge $-1 $122 $196 $244 $245 forward $71 $-1 #
coedge $-1 $124 $123 $122 $190 reversed $45 $-1 #
edge $-1 $246 -15.827427293908281 $197 -3.9258225958436288 $122 $247 forward 7 unknown #
coedge $-1 $244 $248 $124 $192 forward $186 $-1 #
edge $-1 $194 -13.75120154635313 $246 -9.5615774170882872 $191 $249 forward 7 unknown #
coedge $-1 $130 $125 $248 $250 reversed $120 $-1 #
vertex $-1 $126 $251 #
straight-curve $-1 -43.313089388714253 -9.8766249448759549 3.5941242250768921 0 -1 0 I I #
coedge $-1 $188 $127 $130 $200 forward $71 $-1 #
vertex $-1 $128 $252 #
straight-curve $-1 -52.813374124137923 -13.802447540719584 6.6078876442342249 -1 0 0 I I #
straight-curve $-1 -43.313089388714275 -13.802447540719584 3.5941242250768752 0.69465836192734942 0 0.71933980857756763 I I #
edge $-1 $131 13.802447540719584 $253 25.704052238784236 $130 $254 forward 7 unknown #
point $-1 -43.313089388714253 -13.802447540719584 6.6078876442342258 #
point $-1 -43.313089388714253 -13.802447540719584 3.5941242250768974 #
edge $-1 $255 1 $255 0 $134 $-1 forward 7 unknown #
vertex $-1 $135 $256 #
ellipse-curve $-1 -41.045752822956999 -19.75324988975191 4.3167142357053105 -0.71933980857756763 0 0.69465836192734942 0.34732918096367471 0 0.35966990428878381 1 I I #
point $-1 -41.510581490387352 -19.75324988975191 5.4606758389443275 #
plane-surface $-1 -43.313089388714253 0 0 1 0 0 0 0 -1 forward_v I I I I #
coedge $-1 $257 $141 $146 $214 forward $86 $-1 #
coedge $-1 $141 $257 $211 $258 forward $86 $-1 #
edge $-1 $212 9.5002847354236692 $219 12.410642170150084 $141 $259 forward 7 unknown #
coedge $-1 $150 $144 $209 $258 reversed $151 $-1 #
vertex $-1 $145 $260 #
straight-curve $-1 -43.313089388714253 13.80244754071958 31.88486183731554 0 0 1 I I #
edge $-1 $219 3.925822595843627 $217 15.827427293908279 $208 $261 forward 7 unknown #
coedge $-1 $216 $147 $150 $221 reversed $139 $-1 #
coedge $-1 $147 $215 $257 $262 reversed $139 $-1 #
vertex $-1 $262 $263 #
straight-curve $-1 -33.760702247991752 25.704052238784236 13.485910913142108 -0.69465836192734942 0 -0.71933980857756763 I I #
vertex $-1 $214 $264 #
straight-curve $-1 -43.313089388714275 13.80244754071958 3.5941242250768752 -0.69465836192734942 0 -0.71933980857756763 I I #
edge $-1 $265 -6.6078876442342258 $152 -3.5941242250768974 $215 $266 forward 7 unknown #
point $-1 -43.313089388714253 25.704052238784232 3.5941242250768974 #
point $-1 -43.313089388714253 13.80244754071958 3.5941242250768974 #
edge $-1 $267 1 $267 0 $155 $-1 forward 7 unknown #
vertex $-1 $156 $268 #
ellipse-curve $-1 -41.045752822956999 19.753249889751906 4.3167142357053105 -0.71933980857756763 0 0.69465836192734942 0.34732918096367471 0 0.35966990428878381 1 I I #
point $-1 -41.510581490387352 19.753249889751906 5.4606758389443275 #
plane-surface $-1 43.313089388714253 0 0 -1 0 0 0 0 1 forward_v I I I I #
coedge $-1 $164 $162 $166 $233 reversed $101 $-1 #
edge $-1 $177 -6.6078876442342258 $235 6.6078876442342258 $176 $269 forward 7 unknown #
vertex $-1 $233 $270 #
straight-curve $-1 -43.313089388714253 -25.704052238784236 0 0 0 -1 I I #
edge $-1 $231 -25.704052238784236 $235 25.704052238784236 $229 $271 forward 7 unknown #
straight-curve $-1 0 -25.704052238784236 -6.6078876442342258 -1 0 0 I I #
vertex $-1 $169 $272 #
straight-curve $-1 0 25.704052238784236 -6.6078876442342258 1 0 0 I I #
point $-1 43.313089388714253 25.704052238784236 -6.6078876442342258 #
point $-1 43.313089388714253 -25.704052238784236 -6.6078876442342258 #
straight-curve $-1 -43.313089388714253 0 6.6078876442342258 0 -1 0 I I #
point $-1 -43.313089388714253 25.704052238784236 6.6078876442342258 #
point $-1 -43.313089388714253 -25.704052238784236 6.6078876442342258 #
straight-curve $-1 43.313089388714253 -25.704052238784236 0 0 0 -1 I I #
straight-curve $-1 43.313089388714253 25.704052238784236 0 0 0 -1 I I #
coedge $-1 $248 $191 $188 $245 reversed $186 $-1 #
edge $-1 $253 -43.313089388714253 $246 -40.402731953987839 $244 $273 forward 7 unknown #
vertex $-1 $192 $274 #
straight-curve $-1 -40.402731953987846 -9.8766249448759549 6.6078876442342249 0 1 0 I I #
coedge $-1 $191 $244 $193 $250 forward $186 $-1 #
straight-curve $-1 -33.760702247991752 -25.704052238784236 13.485910913142108 0.69465836192734942 0 0.71933980857756763 I I #
edge $-1 $253 -6.6078876442342258 $194 -3.5941242250768979 $193 $275 forward 7 unknown #
point $-1 -43.313089388714253 -25.704052238784236 3.5941242250768979 #
point $-1 -40.402731953987839 -13.802447540719584 6.6078876442342258 #
vertex $-1 $200 $276 #
straight-curve $-1 -43.313089388714253 0 6.6078876442342258 0 -1 0 I I #
vertex $-1 $203 $277 #
point $-1 -40.69842364199333 -19.75324988975191 4.6763841399940942 #
coedge $-1 $209 $208 $216 $262 forward $86 $-1 #
edge $-1 $265 -25.704052238784236 $212 -13.80244754071958 $211 $278 forward 7 unknown #
straight-curve $-1 -52.813374124137923 13.80244754071958 6.6078876442342249 1 0 0 I I #
point $-1 -43.313089388714253 13.80244754071958 6.6078876442342258 #
straight-curve $-1 -40.402731953987846 9.8766249448759531 6.6078876442342249 0 1 0 I I #
edge $-1 $217 40.402731953987839 $265 43.313089388714253 $216 $279 forward 7 unknown #
point $-1 -40.402731953987839 25.704052238784232 6.6078876442342258 #
point $-1 -40.402731953987839 13.80244754071958 6.6078876442342258 #
vertex $-1 $262 $280 #
straight-curve $-1 -43.313089388714253 25.704052238784236 0 0 0 -1 I I #
vertex $-1 $224 $281 #
point $-1 -40.69842364199333 19.753249889751906 4.6763841399940942 #
straight-curve $-1 -43.313089388714253 25.704052238784236 0 0 0 -1 I I #
point $-1 -43.313089388714253 -25.704052238784236 -6.6078876442342258 #
straight-curve $-1 -43.313089388714253 0 -6.6078876442342258 0 1 0 I I #
point $-1 -43.313089388714253 25.704052238784236 -6.6078876442342258 #
straight-curve $-1 0 -25.704052238784236 6.6078876442342258 1 0 0 I I #
point $-1 -40.402731953987839 -25.704052238784236 6.6078876442342258 #
straight-curve $-1 -43.313089388714253 -25.704052238784236 0 0 0 -1 I I #
point $-1 -43.313089388714253 -25.704052238784236 6.6078876442342258 #
point $-1 -40.68608291866822 -19.75324988975191 3.9693850547416361 #
straight-curve $-1 -43.313089388714253 0 6.6078876442342258 0 -1 0 I I #
straight-curve $-1 0 25.704052238784236 6.6078876442342258 -1 0 0 I I #
point $-1 -43.313089388714253 25.704052238784236 6.6078876442342258 #
point $-1 -40.68608291866822 19.753249889751906 3.9693850547416361 #
End-of-ACIS-data 