500 0 9 0           
7 Unknown 11 ACIS 5.0 NT 24 Fri Mar 26 18:44:46 1999 
-1 9.9999999999999995e-007 1e-010 
body $-1 $9 $-1 $10 #
body $-1 $11 $-1 $12 #
body $-1 $13 $-1 $14 #
body $-1 $15 $-1 $16 #
body $-1 $17 $-1 $18 #
body $-1 $19 $-1 $20 #
body $-1 $21 $-1 $22 #
body $-1 $23 $-1 $24 #
body $-1 $25 $-1 $26 #
lump $-1 $-1 $27 $0 #
transform $-1 1 0 0 0 1 0 0 0 1 79.351786858729824 48.468595468815458 19.175026605467348 1 rotate no_reflect no_shear #
lump $-1 $-1 $28 $1 #
transform $-1 1 0 0 0 1 0 0 0 1 79.351786858729824 48.468595468815458 19.175026605467348 1 rotate no_reflect no_shear #
lump $-1 $-1 $29 $2 #
transform $-1 1 0 0 0 1 0 0 0 1 79.351786858729824 48.468595468815458 19.175026605467348 1 rotate no_reflect no_shear #
lump $-1 $-1 $30 $3 #
transform $-1 1 0 0 0 1 0 0 0 1 79.351786858729824 48.468595468815458 19.175026605467348 1 rotate no_reflect no_shear #
lump $-1 $-1 $31 $4 #
transform $-1 1 0 0 0 1 0 0 0 1 79.351786858729824 48.468595468815458 19.175026605467348 1 rotate no_reflect no_shear #
lump $-1 $-1 $32 $5 #
transform $-1 1 0 0 0 1 0 0 0 1 79.351786858729824 48.468595468815458 19.175026605467348 1 rotate no_reflect no_shear #
lump $-1 $-1 $33 $6 #
transform $-1 1 0 0 0 1 0 0 0 1 79.351786858729824 48.468595468815458 19.175026605467348 1 rotate no_reflect no_shear #
lump $-1 $-1 $34 $7 #
transform $-1 1 0 0 0 1 0 0 0 1 79.351786858729824 48.468595468815458 19.175026605467348 1 rotate no_reflect no_shear #
lump $-1 $-1 $35 $8 #
transform $-1 1 0 0 0 1 0 0 0 1 79.351786858729824 48.468595468815458 19.175026605467348 1 rotate no_reflect no_shear #
shell $-1 $-1 $-1 $36 $-1 $9 #
shell $-1 $-1 $-1 $37 $-1 $11 #
shell $-1 $-1 $-1 $38 $-1 $13 #
shell $-1 $-1 $-1 $39 $-1 $15 #
shell $-1 $-1 $-1 $40 $-1 $17 #
shell $-1 $-1 $-1 $41 $-1 $19 #
shell $-1 $-1 $-1 $42 $-1 $21 #
shell $-1 $-1 $-1 $43 $-1 $23 #
shell $-1 $-1 $-1 $44 $-1 $25 #
face $-1 $45 $46 $27 $-1 $47 forward single #
face $-1 $48 $49 $28 $-1 $50 forward single #
face $-1 $51 $52 $29 $-1 $53 forward single #
face $-1 $54 $55 $30 $-1 $56 reversed single #
face $-1 $57 $58 $31 $-1 $59 forward single #
face $-1 $60 $61 $32 $-1 $62 forward single #
face $-1 $63 $64 $33 $-1 $65 reversed single #
face $-1 $66 $67 $34 $-1 $68 forward single #
face $-1 $69 $70 $35 $-1 $71 forward single #
face $-1 $72 $73 $27 $-1 $74 reversed single #
loop $-1 $-1 $75 $36 #
plane-surface $-1 0 0 19.175026605467348 0 0 1 1 0 0 forward_v I I I I #
face $-1 $76 $77 $28 $-1 $78 reversed single #
loop $-1 $-1 $79 $37 #
plane-surface $-1 0 -48.468595468815458 0 0 1 0 0 0 1 forward_v I I I I #
face $-1 $80 $81 $29 $-1 $82 reversed single #
loop $-1 $-1 $83 $38 #
plane-surface $-1 0 48.468595468815458 0 0 -1 0 0 0 -1 forward_v I I I I #
face $-1 $84 $85 $30 $-1 $86 reversed single #
loop $-1 $-1 $87 $39 #
plane-surface $-1 -197.29152776588575 20.942347358789483 114.04768654144492 0 1 0 -0.74314483375859142 0 0.66913059716165679 forward_v I I I I #
face $-1 $88 $89 $31 $-1 $90 forward single #
loop $-1 $91 $92 $40 #
cone-surface $-1 -73.333389303564246 24.186494528484225 12.684682689597114 0.74314483375859142 0 -0.66913059716165679 0.66913059716165679 0 0.74314483375859142 1 I I 0 1 1 forward I I I I #
face $-1 $93 $94 $32 $-1 $95 forward single #
loop $-1 $96 $97 $41 #
cone-surface $-1 -73.333389303564246 29.052715283026323 12.684682689597114 0.74314483375859142 0 -0.66913059716165679 0.66913059716165679 0 0.74314483375859142 1 I I 0 1 1 forward I I I I #
face $-1 $98 $99 $33 $-1 $100 reversed single #
loop $-1 $-1 $101 $42 #
plane-surface $-1 91.098110712632931 32.296862452721065 231.98742744860084 0 -1 0 -0.74314483375859142 0 -0.66913059716165679 forward_v I I I I #
face $-1 $102 $103 $34 $-1 $104 forward single #
loop $-1 $105 $106 $43 #
cone-surface $-1 73.33338930356426 24.186494528484225 12.684682689597125 -0.74314483375859142 0 -0.66913059716165679 0.66913059716165679 0 -0.74314483375859142 1 I I 0 1 1 forward I I I I #
face $-1 $107 $108 $35 $-1 $109 forward single #
loop $-1 $110 $111 $44 #
cone-surface $-1 73.33338930356426 29.052715283026323 12.684682689597125 -0.74314483375859142 0 -0.66913059716165679 0.66913059716165679 0 -0.74314483375859142 1 I I 0 1 1 forward I I I I #
face $-1 $112 $113 $27 $-1 $114 reversed single #
loop $-1 $-1 $115 $45 #
plane-surface $-1 0 0 -19.175026605467348 0 0 1 1 0 0 forward_v I I I I #
coedge $-1 $116 $117 $118 $119 forward $46 $-1 #
face $-1 $120 $121 $28 $-1 $122 reversed single #
loop $-1 $-1 $123 $48 #
plane-surface $-1 0 0 -19.175026605467348 0 0 1 1 0 0 forward_v I I I I #
coedge $-1 $124 $125 $126 $127 forward $49 $-1 #
face $-1 $128 $129 $29 $-1 $130 forward single #
loop $-1 $-1 $131 $51 #
plane-surface $-1 -79.351786858729824 0 0 1 0 0 0 0 -1 forward_v I I I I #
coedge $-1 $132 $133 $134 $135 forward $52 $-1 #
face $-1 $136 $137 $30 $-1 $138 reversed single #
loop $-1 $-1 $139 $54 #
plane-surface $-1 -79.351786858729838 26.619604905755274 7.8542694881921307 -0.74314483375859142 0 0.66913059716165679 0.66913059716165679 0 0.74314483375859142 forward_v I I I I #
coedge $-1 $140 $141 $142 $143 reversed $55 $-1 #
face $-1 $-1 $144 $31 $-1 $145 forward single #
loop $-1 $146 $147 $57 #
cone-surface $-1 -72.0400469511263 24.186494528484225 11.520152033783667 0.74314483375859142 0 -0.66913059716165679 0.3345652985808284 0 0.37157241687929571 1 I I -0.70710678118654746 0.70710678118654746 0.5 forward I I I I #
loop $-1 $-1 $148 $40 #
coedge $-1 $92 $92 $149 $150 reversed $58 $-1 #
face $-1 $-1 $151 $32 $-1 $152 forward single #
loop $-1 $153 $154 $60 #
cone-surface $-1 -72.0400469511263 29.052715283026323 11.520152033783667 0.74314483375859142 0 -0.66913059716165679 0.3345652985808284 0 0.37157241687929571 1 I I -0.70710678118654746 0.70710678118654746 0.5 forward I I I I #
loop $-1 $-1 $155 $41 #
coedge $-1 $97 $97 $156 $157 reversed $61 $-1 #
face $-1 $158 $159 $33 $-1 $160 reversed single #
loop $-1 $-1 $161 $63 #
plane-surface $-1 -26.841630194522978 26.619604905755274 125.79401039534805 0.74314483375859142 0 0.66913059716165679 0.66913059716165679 0 -0.74314483375859142 forward_v I I I I #
coedge $-1 $162 $163 $164 $165 reversed $64 $-1 #
face $-1 $-1 $166 $34 $-1 $167 forward single #
loop $-1 $168 $169 $66 #
cone-surface $-1 72.040046951126314 24.186494528484225 11.520152033783678 -0.74314483375859142 0 -0.66913059716165679 0.3345652985808284 0 -0.37157241687929571 1 I I -0.70710678118654746 0.70710678118654746 0.5 forward I I I I #
loop $-1 $-1 $170 $43 #
coedge $-1 $106 $106 $171 $172 reversed $67 $-1 #
face $-1 $-1 $173 $35 $-1 $174 forward single #
loop $-1 $175 $176 $69 #
cone-surface $-1 72.040046951126314 29.052715283026323 11.520152033783678 -0.74314483375859142 0 -0.66913059716165679 0.3345652985808284 0 -0.37157241687929571 1 I I -0.70710678118654746 0.70710678118654746 0.5 forward I I I I #
loop $-1 $-1 $177 $44 #
coedge $-1 $111 $111 $178 $179 reversed $70 $-1 #
face $-1 $180 $181 $27 $-1 $182 reversed single #
loop $-1 $-1 $183 $72 #
plane-surface $-1 0 -48.468595468815458 0 0 1 0 0 0 1 forward_v I I I I #
coedge $-1 $184 $185 $186 $187 forward $73 $-1 #
coedge $-1 $188 $75 $189 $190 forward $46 $-1 #
coedge $-1 $75 $188 $191 $192 forward $46 $-1 #
coedge $-1 $193 $194 $75 $119 reversed $195 $-1 #
edge $-1 $196 -48.468595468815458 $197 48.468595468815458 $118 $198 forward 7 unknown #
face $-1 $199 $200 $28 $-1 $201 forward single #
loop $-1 $-1 $202 $76 #
plane-surface $-1 79.351786858729824 0 0 -1 0 0 0 0 1 forward_v I I I I #
coedge $-1 $203 $204 $205 $206 forward $77 $-1 #
coedge $-1 $205 $79 $202 $207 reversed $49 $-1 #
coedge $-1 $79 $205 $208 $209 reversed $49 $-1 #
coedge $-1 $210 $211 $79 $127 reversed $200 $-1 #
edge $-1 $212 -79.351786858729824 $213 79.351786858729824 $126 $214 forward 7 unknown #
face $-1 $215 $216 $29 $-1 $217 reversed single #
loop $-1 $-1 $218 $80 #
plane-surface $-1 0 56.554461976862662 -15.086515576634735 0 0 1 1 0 0 forward_v I I I I #
coedge $-1 $219 $220 $132 $221 forward $81 $-1 #
coedge $-1 $222 $83 $131 $221 reversed $52 $-1 #
coedge $-1 $83 $222 $223 $224 reversed $52 $-1 #
coedge $-1 $218 $225 $83 $135 reversed $129 $-1 #
edge $-1 $226 -79.351786858729824 $227 79.351786858729824 $134 $228 forward 7 unknown #
face $-1 $229 $230 $30 $-1 $231 reversed single #
loop $-1 $-1 $232 $84 #
plane-surface $-1 -197.29152776588575 32.296862452721065 114.04768654144492 0 -1 0 0.74314483375859142 0 -0.66913059716165679 forward_v I I I I #
coedge $-1 $233 $234 $235 $236 reversed $85 $-1 #
coedge $-1 $141 $87 $237 $238 reversed $55 $-1 #
coedge $-1 $87 $140 $233 $239 reversed $55 $-1 #
coedge $-1 $235 $240 $87 $143 forward $241 $-1 #
edge $-1 $242 19.293977024213049 $243 29.487232263426847 $142 $244 forward 7 unknown #
loop $-1 $-1 $149 $88 #
plane-surface $-1 -79.351786858729838 26.619604905755274 7.8542694881921307 -0.74314483375859142 0 0.66913059716165679 0.66913059716165679 0 0.74314483375859142 forward_v I I I I #
loop $-1 $-1 $245 $57 #
coedge $-1 $147 $147 $148 $246 reversed $89 $-1 #
coedge $-1 $148 $148 $147 $246 forward $91 $-1 #
coedge $-1 $149 $149 $92 $150 forward $144 $-1 #
edge $-1 $247 0 $247 6.2831853071796004 $149 $248 forward 7 unknown #
loop $-1 $-1 $156 $93 #
plane-surface $-1 -79.351786858729838 26.619604905755274 7.8542694881921307 -0.74314483375859142 0 0.66913059716165679 0.66913059716165679 0 0.74314483375859142 forward_v I I I I #
loop $-1 $-1 $249 $60 #
coedge $-1 $154 $154 $155 $250 reversed $94 $-1 #
coedge $-1 $155 $155 $154 $250 forward $96 $-1 #
coedge $-1 $156 $156 $97 $157 forward $151 $-1 #
edge $-1 $251 0 $251 6.2831853071796004 $156 $252 forward 7 unknown #
face $-1 $253 $254 $33 $-1 $255 forward single #
loop $-1 $-1 $256 $98 #
plane-surface $-1 91.098110712632931 20.942347358789483 231.98742744860084 0 1 0 0.74314483375859142 0 0.66913059716165679 forward_v I I I I #
coedge $-1 $257 $258 $259 $260 reversed $99 $-1 #
coedge $-1 $163 $101 $261 $262 reversed $64 $-1 #
coedge $-1 $101 $162 $257 $263 reversed $64 $-1 #
coedge $-1 $259 $264 $101 $165 forward $254 $-1 #
edge $-1 $265 -33.802731502413359 $266 -23.609476263199547 $164 $267 forward 7 unknown #
loop $-1 $-1 $171 $102 #
plane-surface $-1 -26.841630194522978 26.619604905755274 125.79401039534805 0.74314483375859142 0 0.66913059716165679 0.66913059716165679 0 -0.74314483375859142 forward_v I I I I #
loop $-1 $-1 $268 $66 #
coedge $-1 $169 $169 $170 $269 reversed $103 $-1 #
coedge $-1 $170 $170 $169 $269 forward $105 $-1 #
coedge $-1 $171 $171 $106 $172 forward $166 $-1 #
edge $-1 $270 0 $270 6.2831853071796004 $171 $271 forward 7 unknown #
loop $-1 $-1 $178 $107 #
plane-surface $-1 -26.841630194522978 26.619604905755274 125.79401039534805 0.74314483375859142 0 0.66913059716165679 0.66913059716165679 0 -0.74314483375859142 forward_v I I I I #
loop $-1 $-1 $272 $69 #
coedge $-1 $176 $176 $177 $273 reversed $108 $-1 #
coedge $-1 $177 $177 $176 $273 forward $110 $-1 #
coedge $-1 $178 $178 $111 $179 forward $173 $-1 #
edge $-1 $274 0 $274 6.2831853071796004 $178 $275 forward 7 unknown #
face $-1 $276 $277 $27 $-1 $278 reversed single #
loop $-1 $-1 $279 $112 #
plane-surface $-1 -79.351786858729824 0 0 1 0 0 0 0 -1 forward_v I I I I #
coedge $-1 $191 $280 $193 $281 reversed $113 $-1 #
coedge $-1 $282 $115 $280 $283 forward $73 $-1 #
coedge $-1 $115 $282 $284 $285 forward $73 $-1 #
coedge $-1 $194 $193 $115 $187 reversed $195 $-1 #
edge $-1 $286 -48.468595468815458 $287 48.468595468815458 $186 $288 forward 7 unknown #
coedge $-1 $117 $116 $289 $290 forward $46 $-1 #
coedge $-1 $291 $292 $116 $190 reversed $277 $-1 #
edge $-1 $197 -79.351786858729824 $293 79.351786858729824 $189 $294 forward 7 unknown #
coedge $-1 $295 $183 $117 $192 reversed $113 $-1 #
edge $-1 $296 -79.351786858729824 $196 79.351786858729824 $191 $297 forward 7 unknown #
coedge $-1 $186 $118 $183 $281 forward $195 $-1 #
coedge $-1 $118 $186 $291 $298 reversed $195 $-1 #
loop $-1 $-1 $193 $276 #
vertex $-1 $119 $299 #
vertex $-1 $119 $300 #
straight-curve $-1 79.351786858729824 0 19.175026605467348 0 1 0 I I #
face $-1 $301 $302 $28 $-1 $303 reversed single #
loop $-1 $-1 $211 $120 #
plane-surface $-1 0 -56.554461976862662 -15.086515576634735 0 0 1 1 0 0 forward_v I I I I #
coedge $-1 $304 $305 $124 $207 forward $121 $-1 #
coedge $-1 $306 $123 $305 $307 forward $77 $-1 #
coedge $-1 $123 $306 $308 $309 forward $77 $-1 #
coedge $-1 $125 $124 $123 $206 reversed $49 $-1 #
edge $-1 $310 -79.351786858729824 $311 79.351786858729824 $123 $312 forward 7 unknown #
edge $-1 $311 -19.175026605467348 $213 -15.086515576634735 $202 $313 forward 7 unknown #
coedge $-1 $308 $314 $125 $209 forward $315 $-1 #
edge $-1 $212 15.086515576634735 $310 19.175026605467348 $208 $316 forward 7 unknown #
coedge $-1 $317 $126 $314 $318 forward $200 $-1 #
coedge $-1 $126 $317 $304 $319 forward $200 $-1 #
vertex $-1 $209 $320 #
vertex $-1 $319 $321 #
straight-curve $-1 0 -48.468595468815458 -15.086515576634735 1 0 0 I I #
face $-1 $322 $323 $29 $-1 $324 reversed single #
loop $-1 $-1 $325 $128 #
plane-surface $-1 0 64.640328484909872 -17.130771091051042 0 -1 0 0 0 -1 forward_v I I I I #
coedge $-1 $326 $134 $327 $328 forward $129 $-1 #
coedge $-1 $329 $131 $225 $330 reversed $81 $-1 #
coedge $-1 $131 $329 $331 $332 reversed $81 $-1 #
edge $-1 $333 -19.175026605467348 $227 -15.086515576634735 $131 $334 forward 7 unknown #
coedge $-1 $133 $132 $335 $336 reversed $52 $-1 #
coedge $-1 $337 $327 $133 $224 forward $338 $-1 #
edge $-1 $226 15.086515576634735 $339 19.175026605467348 $223 $340 forward 7 unknown #
coedge $-1 $134 $326 $219 $330 forward $129 $-1 #
vertex $-1 $224 $341 #
vertex $-1 $330 $342 #
straight-curve $-1 0 48.468595468815458 -15.086515576634735 -1 0 0 I I #
face $-1 $-1 $241 $30 $-1 $343 forward single #
loop $-1 $-1 $344 $136 #
plane-surface $-1 -79.351786858729824 0 0 1 0 0 0 0 -1 forward_v I I I I #
coedge $-1 $345 $346 $347 $348 reversed $137 $-1 #
coedge $-1 $349 $139 $141 $239 forward $85 $-1 #
coedge $-1 $139 $349 $345 $350 forward $85 $-1 #
coedge $-1 $347 $142 $139 $236 forward $241 $-1 #
edge $-1 $243 7.6325449059118462 $351 18.987059999843428 $235 $352 forward 7 unknown #
coedge $-1 $353 $354 $140 $238 forward $230 $-1 #
edge $-1 $355 -49.169573782530314 $242 -37.848816665255114 $237 $356 forward 7 unknown #
edge $-1 $243 -15.233581131175207 $355 -2.1389731374768986e-014 $141 $357 forward 7 unknown #
coedge $-1 $142 $347 $353 $358 forward $241 $-1 #
loop $-1 $-1 $347 $229 #
vertex $-1 $238 $359 #
vertex $-1 $143 $360 #
straight-curve $-1 -98.645763882942873 20.942347358789483 19.175026605467352 1 0 0 I I #
coedge $-1 $245 $245 $-1 $361 reversed $146 $-1 #
edge $-1 $362 0 $362 6.2831853071796004 $147 $363 forward 7 unknown #
vertex $-1 $150 $364 #
ellipse-curve $-1 -74.255159239122918 24.186494528484225 13.51464804682975 -0.74314483375859142 0 0.66913059716165679 0.66913059716165679 0 0.74314483375859142 1 I I #
coedge $-1 $249 $249 $-1 $365 reversed $153 $-1 #
edge $-1 $366 0 $366 6.2831853071796004 $154 $367 forward 7 unknown #
vertex $-1 $157 $368 #
ellipse-curve $-1 -74.255159239122918 29.052715283026323 13.51464804682975 -0.74314483375859142 0 0.66913059716165679 0.66913059716165679 0 0.74314483375859142 1 I I #
face $-1 $-1 $369 $33 $-1 $370 reversed single #
loop $-1 $-1 $164 $158 #
plane-surface $-1 0 0 19.175026605467348 0 0 1 1 0 0 forward_v I I I I #
coedge $-1 $371 $372 $373 $374 reversed $159 $-1 #
coedge $-1 $375 $161 $163 $263 forward $99 $-1 #
coedge $-1 $161 $375 $371 $376 forward $99 $-1 #
coedge $-1 $373 $164 $161 $260 forward $254 $-1 #
edge $-1 $266 -18.987059999843428 $377 -7.6325449059118462 $259 $378 forward 7 unknown #
coedge $-1 $379 $380 $162 $262 forward $369 $-1 #
edge $-1 $381 -108.13944423610828 $265 -96.818687118833068 $261 $382 forward 7 unknown #
edge $-1 $266 143.46999258628443 $381 158.70357371745962 $163 $383 forward 7 unknown #
coedge $-1 $164 $373 $379 $384 forward $254 $-1 #
vertex $-1 $262 $385 #
vertex $-1 $165 $386 #
straight-curve $-1 45.549055356316465 32.296862452721065 19.175026605467352 -1 0 0 I I #
coedge $-1 $268 $268 $-1 $387 reversed $168 $-1 #
edge $-1 $388 0 $388 6.2831853071796004 $169 $389 forward 7 unknown #
vertex $-1 $172 $390 #
ellipse-curve $-1 74.255159239122904 24.186494528484225 13.514648046829739 0.74314483375859142 0 0.66913059716165679 0.66913059716165679 0 -0.74314483375859142 1 I I #
coedge $-1 $272 $272 $-1 $391 reversed $175 $-1 #
edge $-1 $392 0 $392 6.2831853071796004 $176 $393 forward 7 unknown #
vertex $-1 $179 $394 #
ellipse-curve $-1 74.255159239122904 29.052715283026323 13.514648046829739 0.74314483375859142 0 0.66913059716165679 0.66913059716165679 0 -0.74314483375859142 1 I I #
face $-1 $-1 $195 $27 $-1 $395 reversed single #
loop $-1 $-1 $292 $180 #
plane-surface $-1 0 48.468595468815458 0 0 -1 0 0 0 -1 forward_v I I I I #
coedge $-1 $396 $289 $292 $397 forward $181 $-1 #
coedge $-1 $183 $295 $184 $283 reversed $113 $-1 #
edge $-1 $196 -19.175026605467348 $287 19.175026605467348 $193 $398 forward 7 unknown #
coedge $-1 $185 $184 $396 $399 forward $73 $-1 #
edge $-1 $287 -79.351786858729824 $400 79.351786858729824 $280 $401 forward 7 unknown #
coedge $-1 $292 $291 $185 $285 reversed $277 $-1 #
edge $-1 $402 -79.351786858729824 $286 79.351786858729824 $284 $403 forward 7 unknown #
vertex $-1 $187 $404 #
vertex $-1 $281 $405 #
straight-curve $-1 79.351786858729824 0 -19.175026605467348 0 -1 0 I I #
coedge $-1 $279 $406 $188 $290 reversed $181 $-1 #
edge $-1 $293 -48.468595468815458 $296 48.468595468815458 $289 $407 forward 7 unknown #
coedge $-1 $284 $189 $194 $298 forward $277 $-1 #
coedge $-1 $189 $284 $279 $397 reversed $277 $-1 #
vertex $-1 $190 $408 #
straight-curve $-1 0 48.468595468815458 19.175026605467348 -1 0 0 I I #
coedge $-1 $280 $191 $406 $409 forward $113 $-1 #
vertex $-1 $290 $410 #
straight-curve $-1 0 -48.468595468815458 19.175026605467348 1 0 0 I I #
edge $-1 $197 -19.175026605467348 $286 19.175026605467348 $194 $411 forward 7 unknown #
point $-1 79.351786858729824 -48.468595468815458 19.175026605467348 #
point $-1 79.351786858729824 48.468595468815458 19.175026605467348 #
face $-1 $-1 $315 $28 $-1 $412 reversed single #
loop $-1 $-1 $413 $199 #
plane-surface $-1 0 -64.640328484909872 -17.130771091051042 0 1 0 0 0 1 forward_v I I I I #
coedge $-1 $414 $202 $211 $319 reversed $121 $-1 #
coedge $-1 $202 $414 $203 $307 reversed $121 $-1 #
coedge $-1 $204 $203 $415 $416 forward $77 $-1 #
edge $-1 $311 48.468595468815458 $417 64.640328484909872 $305 $418 forward 7 unknown #
coedge $-1 $419 $208 $204 $309 reversed $315 $-1 #
edge $-1 $420 -64.640328484909872 $310 -48.468595468815458 $308 $421 forward 7 unknown #
vertex $-1 $209 $422 #
vertex $-1 $307 $423 #
straight-curve $-1 0 -48.468595468815458 -19.175026605467348 1 0 0 I I #
straight-curve $-1 79.351786858729824 -48.468595468815458 0 0 0 1 I I #
coedge $-1 $208 $419 $210 $318 reversed $315 $-1 #
loop $-1 $-1 $208 $301 #
straight-curve $-1 -79.351786858729824 -48.468595468815458 0 0 0 -1 I I #
coedge $-1 $211 $210 $424 $425 forward $200 $-1 #
edge $-1 $212 -8.0858665080472036 $426 8.0858665080472107 $314 $427 forward 7 unknown #
edge $-1 $428 -8.0858665080472107 $213 8.0858665080472036 $304 $429 forward 7 unknown #
point $-1 -79.351786858729824 -48.468595468815458 -15.086515576634735 #
point $-1 79.351786858729824 -48.468595468815458 -15.086515576634735 #
face $-1 $-1 $338 $29 $-1 $430 reversed single #
loop $-1 $-1 $335 $215 #
plane-surface $-1 0 0 -19.175026605467348 0 0 1 1 0 0 forward_v I I I I #
coedge $-1 $431 $432 $433 $434 forward $216 $-1 #
coedge $-1 $225 $218 $432 $435 forward $129 $-1 #
coedge $-1 $223 $433 $218 $328 reversed $338 $-1 #
edge $-1 $226 -8.0858665080472036 $436 8.0858665080472107 $327 $437 forward 7 unknown #
coedge $-1 $220 $219 $438 $439 forward $81 $-1 #
edge $-1 $440 -8.0858665080472107 $227 8.0858665080472036 $219 $441 forward 7 unknown #
coedge $-1 $442 $335 $220 $332 forward $323 $-1 #
edge $-1 $333 -8.0858665080472036 $443 8.0858665080472107 $220 $444 forward 7 unknown #
vertex $-1 $332 $445 #
straight-curve $-1 -79.351786858729824 48.468595468815458 0 0 0 1 I I #
coedge $-1 $331 $446 $222 $336 forward $323 $-1 #
edge $-1 $339 -79.351786858729824 $333 79.351786858729824 $335 $447 forward 7 unknown #
coedge $-1 $433 $223 $446 $448 reversed $338 $-1 #
loop $-1 $-1 $223 $322 #
vertex $-1 $224 $449 #
straight-curve $-1 79.351786858729824 48.468595468815458 0 0 0 -1 I I #
point $-1 79.351786858729824 48.468595468815458 -15.086515576634735 #
point $-1 -79.351786858729824 48.468595468815458 -15.086515576634735 #
plane-surface $-1 0 0 19.175026605467348 0 0 1 1 0 0 forward_v I I I I #
coedge $-1 $354 $353 $346 $450 forward $230 $-1 #
coedge $-1 $346 $232 $234 $350 reversed $137 $-1 #
coedge $-1 $232 $345 $344 $450 reversed $137 $-1 #
coedge $-1 $240 $235 $232 $348 forward $241 $-1 #
edge $-1 $351 -29.487232263426847 $451 -19.293977024213049 $347 $452 forward 7 unknown #
coedge $-1 $234 $233 $354 $453 reversed $85 $-1 #
edge $-1 $454 2.1389731374768986e-014 $351 15.233581131175207 $345 $455 forward 7 unknown #
vertex $-1 $236 $456 #
straight-curve $-1 -69.158531619516012 13.309802452877637 19.175026605467348 0 1 0 I I #
coedge $-1 $344 $237 $240 $358 reversed $230 $-1 #
coedge $-1 $237 $344 $349 $453 forward $230 $-1 #
vertex $-1 $238 $457 #
straight-curve $-1 -79.351786858729824 20.942347358789483 57.023843270722459 0 0 1 I I #
straight-curve $-1 -79.351786858729838 20.942347358789483 7.8542694881921307 -0.66913059716165679 0 -0.74314483375859142 I I #
edge $-1 $451 -32.296862452721065 $242 -20.942347358789483 $353 $458 forward 7 unknown #
point $-1 -79.351786858729824 20.942347358789483 19.175026605467348 #
point $-1 -69.158531619516026 20.942347358789483 19.175026605467348 #
edge $-1 $459 1 $459 0 $245 $-1 forward 7 unknown #
vertex $-1 $246 $460 #
ellipse-curve $-1 -72.411619368005589 24.186494528484225 11.854717332364496 -0.74314483375859142 0 0.66913059716165679 0.66913059716165679 0 0.74314483375859142 1 I I #
point $-1 -73.586028641961249 24.186494528484225 14.257792880588324 #
edge $-1 $461 1 $461 0 $249 $-1 forward 7 unknown #
vertex $-1 $250 $462 #
ellipse-curve $-1 -72.411619368005589 29.052715283026323 11.854717332364496 -0.74314483375859142 0 0.66913059716165679 0.66913059716165679 0 0.74314483375859142 1 I I #
point $-1 -73.586028641961249 29.052715283026323 14.257792880588324 #
loop $-1 $-1 $261 $253 #
plane-surface $-1 79.351786858729824 0 0 -1 0 0 0 0 1 forward_v I I I I #
coedge $-1 $372 $256 $258 $376 reversed $159 $-1 #
coedge $-1 $256 $371 $463 $464 reversed $159 $-1 #
coedge $-1 $264 $259 $256 $374 forward $254 $-1 #
edge $-1 $377 23.609476263199547 $465 33.802731502413359 $373 $466 forward 7 unknown #
coedge $-1 $258 $257 $380 $467 reversed $99 $-1 #
edge $-1 $468 -158.70357371745962 $377 -143.46999258628443 $371 $469 forward 7 unknown #
vertex $-1 $260 $470 #
straight-curve $-1 69.158531619516026 13.309802452877637 19.175026605467352 0 -1 0 I I #
coedge $-1 $463 $261 $264 $384 reversed $369 $-1 #
coedge $-1 $261 $463 $375 $467 forward $369 $-1 #
vertex $-1 $262 $471 #
straight-curve $-1 79.351786858729824 32.296862452721065 115.99371372430042 0 0 1 I I #
straight-curve $-1 -26.841630194522978 32.296862452721065 125.79401039534805 0.66913059716165679 0 -0.74314483375859142 I I #
edge $-1 $465 20.942347358789483 $265 32.296862452721065 $379 $472 forward 7 unknown #
point $-1 79.351786858729824 32.296862452721065 19.175026605467348 #
point $-1 69.158531619516012 32.296862452721065 19.175026605467338 #
edge $-1 $473 1 $473 0 $268 $-1 forward 7 unknown #
vertex $-1 $269 $474 #
ellipse-curve $-1 72.411619368005603 24.186494528484225 11.854717332364507 0.74314483375859142 0 0.66913059716165679 0.66913059716165679 0 -0.74314483375859142 1 I I #
point $-1 74.924289836284572 24.186494528484225 12.771503213071153 #
edge $-1 $475 1 $475 0 $272 $-1 forward 7 unknown #
vertex $-1 $273 $476 #
ellipse-curve $-1 72.411619368005603 29.052715283026323 11.854717332364507 0.74314483375859142 0 0.66913059716165679 0.66913059716165679 0 -0.74314483375859142 1 I I #
point $-1 74.924289836284572 29.052715283026323 12.771503213071153 #
plane-surface $-1 79.351786858729824 0 0 -1 0 0 0 0 1 forward_v I I I I #
coedge $-1 $406 $279 $282 $399 reversed $181 $-1 #
edge $-1 $293 -19.175026605467348 $402 19.175026605467348 $292 $477 forward 7 unknown #
straight-curve $-1 79.351786858729824 -48.468595468815458 0 0 0 -1 I I #
edge $-1 $400 -48.468595468815458 $402 48.468595468815458 $396 $478 forward 7 unknown #
vertex $-1 $399 $479 #
straight-curve $-1 0 -48.468595468815458 -19.175026605467348 -1 0 0 I I #
vertex $-1 $285 $480 #
straight-curve $-1 0 48.468595468815458 -19.175026605467348 1 0 0 I I #
point $-1 79.351786858729824 48.468595468815458 -19.175026605467348 #
point $-1 79.351786858729824 -48.468595468815458 -19.175026605467348 #
coedge $-1 $289 $396 $295 $409 reversed $181 $-1 #
straight-curve $-1 -79.351786858729824 0 19.175026605467348 0 -1 0 I I #
point $-1 -79.351786858729824 48.468595468815458 19.175026605467348 #
edge $-1 $296 -19.175026605467348 $400 19.175026605467348 $406 $481 forward 7 unknown #
point $-1 -79.351786858729824 -48.468595468815458 19.175026605467348 #
straight-curve $-1 79.351786858729824 48.468595468815458 0 0 0 -1 I I #
plane-surface $-1 -79.351786858729824 0 0 1 0 0 0 0 -1 forward_v I I I I #
coedge $-1 $415 $424 $419 $482 forward $302 $-1 #
coedge $-1 $305 $304 $483 $484 forward $121 $-1 #
coedge $-1 $483 $413 $306 $416 reversed $302 $-1 #
edge $-1 $417 -79.351786858729824 $420 79.351786858729824 $415 $485 forward 7 unknown #
vertex $-1 $484 $486 #
straight-curve $-1 79.351786858729824 0 -19.175026605467348 0 -1 0 I I #
coedge $-1 $314 $308 $413 $482 reversed $315 $-1 #
vertex $-1 $309 $487 #
straight-curve $-1 -79.351786858729824 0 -19.175026605467348 0 1 0 I I #
point $-1 -79.351786858729824 -48.468595468815458 -19.175026605467348 #
point $-1 79.351786858729824 -48.468595468815458 -19.175026605467348 #
coedge $-1 $413 $483 $317 $425 reversed $302 $-1 #
edge $-1 $426 -79.351786858729824 $428 79.351786858729824 $424 $488 forward 7 unknown #
vertex $-1 $318 $489 #
straight-curve $-1 -79.351786858729824 -56.554461976862662 -15.086515576634735 0 -1 0 I I #
vertex $-1 $319 $490 #
straight-curve $-1 79.351786858729824 -56.554461976862662 -15.086515576634735 0 1 0 I I #
plane-surface $-1 79.351786858729824 0 0 -1 0 0 0 0 1 forward_v I I I I #
coedge $-1 $438 $325 $442 $491 reversed $216 $-1 #
coedge $-1 $325 $438 $326 $435 reversed $216 $-1 #
coedge $-1 $327 $337 $325 $434 reversed $338 $-1 #
edge $-1 $436 -2.0442555144163066 $492 2.0442555144163066 $433 $493 forward 7 unknown #
edge $-1 $436 -79.351786858729824 $440 79.351786858729824 $432 $494 forward 7 unknown #
vertex $-1 $328 $495 #
straight-curve $-1 79.351786858729824 56.554461976862662 -15.086515576634735 0 1 0 I I #
coedge $-1 $432 $431 $329 $439 reversed $216 $-1 #
edge $-1 $440 -2.0442555144163066 $443 2.0442555144163066 $438 $496 forward 7 unknown #
vertex $-1 $435 $497 #
straight-curve $-1 -79.351786858729824 56.554461976862662 -15.086515576634735 0 -1 0 I I #
coedge $-1 $446 $331 $431 $491 forward $323 $-1 #
vertex $-1 $491 $498 #
straight-curve $-1 -79.351786858729824 56.554461976862662 -19.175026605467348 0 1 0 I I #
point $-1 -79.351786858729824 48.468595468815458 -19.175026605467348 #
coedge $-1 $335 $442 $337 $448 forward $323 $-1 #
straight-curve $-1 0 48.468595468815458 -19.175026605467348 -1 0 0 I I #
edge $-1 $492 -64.640328484909872 $339 -48.468595468815458 $337 $499 forward 7 unknown #
point $-1 79.351786858729824 48.468595468815458 -19.175026605467348 #
edge $-1 $451 37.848816665255114 $454 49.169573782530314 $344 $500 forward 7 unknown #
vertex $-1 $358 $501 #
straight-curve $-1 -98.645763882942873 32.296862452721065 19.175026605467352 -1 0 0 I I #
edge $-1 $454 -18.987059999843428 $355 -7.6325449059118462 $354 $502 forward 7 unknown #
vertex $-1 $453 $503 #
straight-curve $-1 -79.351786858729838 32.296862452721065 7.8542694881921307 0.66913059716165679 0 0.74314483375859142 I I #
point $-1 -69.158531619516026 32.296862452721065 19.175026605467348 #
point $-1 -79.351786858729824 20.942347358789483 7.8542694881921467 #
straight-curve $-1 -79.351786858729824 0 19.175026605467348 0 -1 0 I I #
vertex $-1 $361 $504 #
point $-1 -71.742488770843934 24.186494528484225 12.597862166123086 #
vertex $-1 $365 $505 #
point $-1 -71.742488770843934 29.052715283026323 12.597862166123086 #
coedge $-1 $380 $379 $372 $464 forward $369 $-1 #
edge $-1 $465 96.818687118833068 $468 108.13944423610828 $463 $506 forward 7 unknown #
vertex $-1 $384 $507 #
straight-curve $-1 45.549055356316465 20.942347358789483 19.175026605467352 1 0 0 I I #
edge $-1 $468 7.6325449059118462 $381 18.987059999843428 $380 $508 forward 7 unknown #
vertex $-1 $467 $509 #
straight-curve $-1 -26.841630194522978 20.942347358789483 125.79401039534805 -0.66913059716165679 0 0.74314483375859142 I I #
point $-1 69.158531619516012 20.942347358789483 19.175026605467338 #
point $-1 79.35178685872981 32.296862452721065 7.8542694881921449 #
straight-curve $-1 79.351786858729824 0 19.175026605467348 0 1 0 I I #
vertex $-1 $387 $510 #
point $-1 73.080749965167271 24.186494528484225 11.111572498605915 #
vertex $-1 $391 $511 #
point $-1 73.080749965167271 29.052715283026323 11.111572498605915 #
straight-curve $-1 -79.351786858729824 48.468595468815458 0 0 0 -1 I I #
straight-curve $-1 -79.351786858729824 0 -19.175026605467348 0 1 0 I I #
point $-1 -79.351786858729824 -48.468595468815458 -19.175026605467348 #
point $-1 -79.351786858729824 48.468595468815458 -19.175026605467348 #
straight-curve $-1 -79.351786858729824 -48.468595468815458 0 0 0 -1 I I #
edge $-1 $426 -2.0442555144163066 $420 2.0442555144163066 $419 $512 forward 7 unknown #
coedge $-1 $424 $415 $414 $484 reversed $302 $-1 #
edge $-1 $428 -2.0442555144163066 $417 2.0442555144163066 $414 $513 forward 7 unknown #
straight-curve $-1 0 -64.640328484909872 -19.175026605467348 -1 0 0 I I #
point $-1 79.351786858729824 -64.640328484909872 -19.175026605467348 #
point $-1 -79.351786858729824 -64.640328484909872 -19.175026605467348 #
straight-curve $-1 0 -64.640328484909872 -15.086515576634735 1 0 0 I I #
point $-1 -79.351786858729824 -64.640328484909872 -15.086515576634735 #
point $-1 79.351786858729824 -64.640328484909872 -15.086515576634735 #
edge $-1 $443 -79.351786858729824 $492 79.351786858729824 $431 $514 forward 7 unknown #
vertex $-1 $448 $515 #
straight-curve $-1 79.351786858729824 64.640328484909872 -17.130771091051042 0 0 -1 I I #
straight-curve $-1 0 64.640328484909872 -15.086515576634735 -1 0 0 I I #
point $-1 79.351786858729824 64.640328484909872 -15.086515576634735 #
straight-curve $-1 -79.351786858729824 64.640328484909872 -17.130771091051042 0 0 -1 I I #
point $-1 -79.351786858729824 64.640328484909872 -15.086515576634735 #
point $-1 -79.351786858729824 64.640328484909872 -19.175026605467348 #
straight-curve $-1 79.351786858729824 0 -19.175026605467348 0 -1 0 I I #
straight-curve $-1 -79.351786858729824 32.296862452721065 57.023843270722459 0 0 -1 I I #
point $-1 -79.351786858729824 32.296862452721065 19.175026605467348 #
straight-curve $-1 -79.351786858729824 13.309802452877637 7.8542694881921555 0 -1 0 I I #
point $-1 -79.351786858729824 32.296862452721065 7.8542694881921467 #
point $-1 -71.668474534247011 24.186494528484225 11.185586735202838 #
point $-1 -71.668474534247011 29.052715283026323 11.185586735202838 #
straight-curve $-1 79.351786858729824 20.942347358789483 115.99371372430042 0 0 -1 I I #
point $-1 79.351786858729824 20.942347358789483 19.175026605467348 #
straight-curve $-1 79.35178685872981 13.309802452877637 7.8542694881921449 0 1 0 I I #
point $-1 79.35178685872981 20.942347358789483 7.8542694881921449 #
point $-1 71.668474534247025 24.186494528484225 11.185586735202849 #
point $-1 71.668474534247025 29.052715283026323 11.185586735202849 #
straight-curve $-1 -79.351786858729824 -64.640328484909872 -17.130771091051042 0 0 -1 I I #
straight-curve $-1 79.351786858729824 -64.640328484909872 -17.130771091051042 0 0 -1 I I #
straight-curve $-1 0 64.640328484909872 -19.175026605467348 1 0 0 I I #
point $-1 79.351786858729824 64.640328484909872 -19.175026605467348 #
End-of-ACIS-data 