500 0 9 0           
7 Unknown 11 ACIS 5.0 NT 24 Thu Mar 25 15:40:23 1999 
-1 9.9999999999999995e-007 1e-010 
body $-1 $9 $-1 $10 #
body $-1 $11 $-1 $12 #
body $-1 $13 $-1 $14 #
body $-1 $15 $-1 $16 #
body $-1 $17 $-1 $18 #
body $-1 $19 $-1 $20 #
body $-1 $21 $-1 $22 #
body $-1 $23 $-1 $24 #
body $-1 $25 $-1 $26 #
lump $-1 $-1 $27 $0 #
transform $-1 1 0 0 0 1 0 0 0 1 77.772148808252211 51.642871431614523 17.457739746504341 1 rotate no_reflect no_shear #
lump $-1 $-1 $28 $1 #
transform $-1 0.55919289150049634 0 -0.82903758062907751 0 1 0 0.82903758062907751 0 0.55919289150049634 197.51710025255358 39.392149154226516 242.87284244200913 1 rotate no_reflect no_shear #
lump $-1 $-1 $29 $2 #
transform $-1 0.55919289150049634 0 -0.82903758062907751 0 -1 0 -0.82903758062907751 0 -0.55919289150049634 148.07596316396985 39.392149154226516 27.704964762828624 1 rotate no_reflect no_shear #
lump $-1 $-1 $30 $3 #
transform $-1 0.55919289150049634 0 -0.82903758062907751 0 1 0 0.82903758062907751 0 0.55919289150049634 197.51710025255358 91.035020585841039 242.87284244200913 1 rotate no_reflect no_shear #
lump $-1 $-1 $31 $4 #
transform $-1 0.55919289150049634 0 -0.82903758062907751 0 -1 0 -0.82903758062907751 0 -0.55919289150049634 148.07596316396985 91.035020585841039 27.704964762828624 1 rotate no_reflect no_shear #
lump $-1 $-1 $32 $5 #
transform $-1 0.55919289150049634 0 0.82903758062907751 0 1 0 -0.82903758062907751 0 0.55919289150049634 -128.952068176636 39.392149154226516 113.92077426537314 1 rotate no_reflect no_shear #
lump $-1 $-1 $33 $6 #
transform $-1 0.55919289150049634 0 0.82903758062907751 0 -1 0 0.82903758062907751 0 -0.55919289150049634 7.4683344525345881 39.392149154226516 27.704964762828656 1 rotate no_reflect no_shear #
lump $-1 $-1 $34 $7 #
transform $-1 0.55919289150049634 0 0.82903758062907751 0 1 0 -0.82903758062907751 0 0.55919289150049634 -128.952068176636 91.035020585841039 113.92077426537314 1 rotate no_reflect no_shear #
lump $-1 $-1 $35 $8 #
transform $-1 0.55919289150049634 0 0.82903758062907751 0 -1 0 0.82903758062907751 0 -0.55919289150049634 7.4683344525345881 91.035020585841039 27.704964762828656 1 rotate no_reflect no_shear #
shell $-1 $-1 $-1 $36 $-1 $9 #
shell $-1 $-1 $-1 $37 $-1 $11 #
shell $-1 $-1 $-1 $38 $-1 $13 #
shell $-1 $-1 $-1 $39 $-1 $15 #
shell $-1 $-1 $-1 $40 $-1 $17 #
shell $-1 $-1 $-1 $41 $-1 $19 #
shell $-1 $-1 $-1 $42 $-1 $21 #
shell $-1 $-1 $-1 $43 $-1 $23 #
shell $-1 $-1 $-1 $44 $-1 $25 #
face $-1 $45 $46 $27 $-1 $47 forward single #
face $-1 $48 $49 $28 $-1 $50 forward single #
face $-1 $51 $52 $29 $-1 $53 forward single #
face $-1 $54 $55 $30 $-1 $56 forward single #
face $-1 $57 $58 $31 $-1 $59 forward single #
face $-1 $60 $61 $32 $-1 $62 forward single #
face $-1 $63 $64 $33 $-1 $65 forward single #
face $-1 $66 $67 $34 $-1 $68 forward single #
face $-1 $69 $70 $35 $-1 $71 forward single #
face $-1 $72 $73 $27 $-1 $74 reversed single #
loop $-1 $-1 $75 $36 #
plane-surface $-1 0 0 17.457739746504341 0 0 1 1 0 0 forward_v I I I I #
face $-1 $76 $77 $28 $-1 $78 reversed single #
loop $-1 $-1 $79 $37 #
plane-surface $-1 0 0 155.54429761650442 0 0 1 1 0 0 forward_v I I I I #
face $-1 $80 $81 $29 $-1 $82 forward single #
loop $-1 $83 $84 $38 #
cone-surface $-1 0 0 -3.3823053682058166 0 0 1 2 0 0 1 I I 0 1 2 forward I I I I #
face $-1 $85 $86 $30 $-1 $87 reversed single #
loop $-1 $-1 $88 $39 #
plane-surface $-1 0 0 155.54429761650442 0 0 1 1 0 0 forward_v I I I I #
face $-1 $89 $90 $31 $-1 $91 forward single #
loop $-1 $92 $93 $40 #
cone-surface $-1 0 0 -3.3823053682058166 0 0 1 2 0 0 1 I I 0 1 2 forward I I I I #
face $-1 $94 $95 $32 $-1 $96 reversed single #
loop $-1 $-1 $97 $41 #
plane-surface $-1 0 0 155.54429761650442 0 0 1 1 0 0 forward_v I I I I #
face $-1 $98 $99 $33 $-1 $100 forward single #
loop $-1 $101 $102 $42 #
cone-surface $-1 0 0 -3.3823053682058166 0 0 1 2 0 0 1 I I 0 1 2 forward I I I I #
face $-1 $103 $104 $34 $-1 $105 reversed single #
loop $-1 $-1 $106 $43 #
plane-surface $-1 0 0 155.54429761650442 0 0 1 1 0 0 forward_v I I I I #
face $-1 $107 $108 $35 $-1 $109 forward single #
loop $-1 $110 $111 $44 #
cone-surface $-1 0 0 -3.3823053682058166 0 0 1 2 0 0 1 I I 0 1 2 forward I I I I #
face $-1 $112 $113 $27 $-1 $114 reversed single #
loop $-1 $-1 $115 $45 #
plane-surface $-1 0 0 -17.457739746504341 0 0 1 1 0 0 forward_v I I I I #
coedge $-1 $116 $117 $118 $119 forward $46 $-1 #
face $-1 $120 $121 $28 $-1 $122 reversed single #
loop $-1 $-1 $123 $48 #
plane-surface $-1 0 0 -155.54429761650442 0 0 1 1 0 0 forward_v I I I I #
coedge $-1 $124 $125 $126 $127 forward $49 $-1 #
face $-1 $-1 $128 $29 $-1 $129 forward single #
loop $-1 $-1 $130 $51 #
plane-surface $-1 0 0 -5.7646107364116332 0 0 -1 -1 0 0 forward_v I I I I #
loop $-1 $-1 $131 $38 #
coedge $-1 $84 $84 $130 $132 reversed $52 $-1 #
face $-1 $133 $134 $30 $-1 $135 reversed single #
loop $-1 $-1 $136 $54 #
plane-surface $-1 0 0 -155.54429761650442 0 0 1 1 0 0 forward_v I I I I #
coedge $-1 $137 $138 $139 $140 forward $55 $-1 #
face $-1 $-1 $141 $31 $-1 $142 forward single #
loop $-1 $-1 $143 $57 #
plane-surface $-1 0 0 -5.7646107364116332 0 0 -1 -1 0 0 forward_v I I I I #
loop $-1 $-1 $144 $40 #
coedge $-1 $93 $93 $143 $145 reversed $58 $-1 #
face $-1 $146 $147 $32 $-1 $148 reversed single #
loop $-1 $-1 $149 $60 #
plane-surface $-1 0 0 -155.54429761650442 0 0 1 1 0 0 forward_v I I I I #
coedge $-1 $150 $151 $152 $153 forward $61 $-1 #
face $-1 $-1 $154 $33 $-1 $155 forward single #
loop $-1 $-1 $156 $63 #
plane-surface $-1 0 0 -5.7646107364116332 0 0 -1 -1 0 0 forward_v I I I I #
loop $-1 $-1 $157 $42 #
coedge $-1 $102 $102 $156 $158 reversed $64 $-1 #
face $-1 $159 $160 $34 $-1 $161 reversed single #
loop $-1 $-1 $162 $66 #
plane-surface $-1 0 0 -155.54429761650442 0 0 1 1 0 0 forward_v I I I I #
coedge $-1 $163 $164 $165 $166 forward $67 $-1 #
face $-1 $-1 $167 $35 $-1 $168 forward single #
loop $-1 $-1 $169 $69 #
plane-surface $-1 0 0 -5.7646107364116332 0 0 -1 -1 0 0 forward_v I I I I #
loop $-1 $-1 $170 $44 #
coedge $-1 $111 $111 $169 $171 reversed $70 $-1 #
face $-1 $172 $173 $27 $-1 $174 reversed single #
loop $-1 $-1 $175 $72 #
plane-surface $-1 0 -51.642871431614523 0 0 1 0 0 0 1 forward_v I I I I #
coedge $-1 $176 $177 $178 $179 forward $73 $-1 #
coedge $-1 $180 $75 $181 $182 forward $46 $-1 #
coedge $-1 $75 $180 $183 $184 forward $46 $-1 #
coedge $-1 $185 $186 $75 $119 reversed $187 $-1 #
edge $-1 $188 -51.642871431614523 $189 51.642871431614523 $118 $190 forward 7 unknown #
face $-1 $191 $192 $28 $-1 $193 reversed single #
loop $-1 $-1 $194 $76 #
plane-surface $-1 0 -8.7104299307566766 0 0 1 0 0 0 1 forward_v I I I I #
coedge $-1 $195 $196 $197 $198 forward $77 $-1 #
coedge $-1 $199 $79 $200 $201 forward $49 $-1 #
coedge $-1 $79 $199 $202 $203 forward $49 $-1 #
coedge $-1 $204 $205 $79 $127 reversed $206 $-1 #
edge $-1 $207 -8.7104299307566766 $208 8.7104299307566766 $126 $209 forward 7 unknown #
loop $-1 $210 $211 $80 #
cone-surface $-1 0 0 0 0 0 1 1 0 0 1 I I -0.70710678118654746 0.70710678118654746 1 forward I I I I #
coedge $-1 $130 $130 $84 $132 forward $81 $-1 #
coedge $-1 $131 $131 $211 $212 forward $83 $-1 #
edge $-1 $213 0 $213 6.2831853071796004 $130 $214 forward 7 unknown #
face $-1 $215 $216 $30 $-1 $217 reversed single #
loop $-1 $-1 $218 $85 #
plane-surface $-1 0 -8.7104299307566766 0 0 1 0 0 0 1 forward_v I I I I #
coedge $-1 $219 $220 $221 $222 forward $86 $-1 #
coedge $-1 $223 $88 $224 $225 forward $55 $-1 #
coedge $-1 $88 $223 $226 $227 forward $55 $-1 #
coedge $-1 $228 $229 $88 $140 reversed $230 $-1 #
edge $-1 $231 -8.7104299307566766 $232 8.7104299307566766 $139 $233 forward 7 unknown #
loop $-1 $234 $235 $89 #
cone-surface $-1 0 0 0 0 0 1 1 0 0 1 I I -0.70710678118654746 0.70710678118654746 1 forward I I I I #
coedge $-1 $143 $143 $93 $145 forward $90 $-1 #
coedge $-1 $144 $144 $235 $236 forward $92 $-1 #
edge $-1 $237 0 $237 6.2831853071796004 $143 $238 forward 7 unknown #
face $-1 $239 $240 $32 $-1 $241 reversed single #
loop $-1 $-1 $242 $94 #
plane-surface $-1 0 -8.7104299307566766 0 0 1 0 0 0 1 forward_v I I I I #
coedge $-1 $243 $244 $245 $246 forward $95 $-1 #
coedge $-1 $247 $97 $248 $249 forward $61 $-1 #
coedge $-1 $97 $247 $250 $251 forward $61 $-1 #
coedge $-1 $252 $253 $97 $153 reversed $254 $-1 #
edge $-1 $255 -8.7104299307566766 $256 8.7104299307566766 $152 $257 forward 7 unknown #
loop $-1 $258 $259 $98 #
cone-surface $-1 0 0 0 0 0 1 1 0 0 1 I I -0.70710678118654746 0.70710678118654746 1 forward I I I I #
coedge $-1 $156 $156 $102 $158 forward $99 $-1 #
coedge $-1 $157 $157 $259 $260 forward $101 $-1 #
edge $-1 $261 0 $261 6.2831853071796004 $156 $262 forward 7 unknown #
face $-1 $263 $264 $34 $-1 $265 reversed single #
loop $-1 $-1 $266 $103 #
plane-surface $-1 0 -8.7104299307566766 0 0 1 0 0 0 1 forward_v I I I I #
coedge $-1 $267 $268 $269 $270 forward $104 $-1 #
coedge $-1 $271 $106 $272 $273 forward $67 $-1 #
coedge $-1 $106 $271 $274 $275 forward $67 $-1 #
coedge $-1 $276 $277 $106 $166 reversed $278 $-1 #
edge $-1 $279 -8.7104299307566766 $280 8.7104299307566766 $165 $281 forward 7 unknown #
loop $-1 $282 $283 $107 #
cone-surface $-1 0 0 0 0 0 1 1 0 0 1 I I -0.70710678118654746 0.70710678118654746 1 forward I I I I #
coedge $-1 $169 $169 $111 $171 forward $108 $-1 #
coedge $-1 $170 $170 $283 $284 forward $110 $-1 #
edge $-1 $285 0 $285 6.2831853071796004 $169 $286 forward 7 unknown #
face $-1 $287 $288 $27 $-1 $289 reversed single #
loop $-1 $-1 $290 $112 #
plane-surface $-1 -77.772148808252211 0 0 1 0 0 0 0 -1 forward_v I I I I #
coedge $-1 $291 $183 $292 $293 forward $113 $-1 #
coedge $-1 $294 $115 $291 $295 forward $73 $-1 #
coedge $-1 $115 $294 $296 $297 forward $73 $-1 #
coedge $-1 $186 $185 $115 $179 reversed $187 $-1 #
edge $-1 $298 -51.642871431614523 $299 51.642871431614523 $178 $300 forward 7 unknown #
coedge $-1 $117 $116 $301 $302 forward $46 $-1 #
coedge $-1 $303 $304 $116 $182 reversed $288 $-1 #
edge $-1 $189 -77.772148808252211 $305 77.772148808252211 $181 $306 forward 7 unknown #
coedge $-1 $175 $307 $117 $184 reversed $113 $-1 #
edge $-1 $308 -77.772148808252211 $188 77.772148808252211 $183 $309 forward 7 unknown #
coedge $-1 $178 $118 $307 $310 forward $187 $-1 #
coedge $-1 $118 $178 $303 $311 reversed $187 $-1 #
loop $-1 $-1 $185 $287 #
vertex $-1 $119 $312 #
vertex $-1 $119 $313 #
straight-curve $-1 77.772148808252211 0 17.457739746504341 0 1 0 I I #
face $-1 $314 $315 $28 $-1 $316 reversed single #
loop $-1 $-1 $317 $120 #
plane-surface $-1 -311.08859523300885 0 0 1 0 0 0 0 -1 forward_v I I I I #
coedge $-1 $318 $202 $319 $320 forward $121 $-1 #
coedge $-1 $321 $123 $318 $322 forward $77 $-1 #
coedge $-1 $123 $321 $323 $324 forward $77 $-1 #
coedge $-1 $205 $204 $123 $198 reversed $206 $-1 #
edge $-1 $325 -8.7104299307566766 $326 8.7104299307566766 $197 $327 forward 7 unknown #
coedge $-1 $125 $124 $328 $329 forward $49 $-1 #
coedge $-1 $330 $331 $124 $201 reversed $315 $-1 #
edge $-1 $208 -311.08859523300885 $332 311.08859523300885 $200 $333 forward 7 unknown #
coedge $-1 $194 $334 $125 $203 reversed $121 $-1 #
edge $-1 $335 -311.08859523300885 $207 311.08859523300885 $202 $336 forward 7 unknown #
coedge $-1 $197 $126 $334 $337 forward $206 $-1 #
coedge $-1 $126 $197 $330 $338 reversed $206 $-1 #
loop $-1 $-1 $204 $314 #
vertex $-1 $127 $339 #
vertex $-1 $127 $340 #
straight-curve $-1 311.08859523300885 0 155.54429761650442 0 1 0 I I #
loop $-1 $-1 $341 $80 #
coedge $-1 $211 $211 $131 $212 reversed $128 $-1 #
edge $-1 $342 0 $342 6.2831853071796004 $211 $343 forward 7 unknown #
vertex $-1 $132 $344 #
ellipse-curve $-1 0 0 -5.7646107364116332 0 0 -1 2 0 0 1 I I #
face $-1 $345 $346 $30 $-1 $347 reversed single #
loop $-1 $-1 $348 $133 #
plane-surface $-1 -311.08859523300885 0 0 1 0 0 0 0 -1 forward_v I I I I #
coedge $-1 $349 $226 $350 $351 forward $134 $-1 #
coedge $-1 $352 $136 $349 $353 forward $86 $-1 #
coedge $-1 $136 $352 $354 $355 forward $86 $-1 #
coedge $-1 $229 $228 $136 $222 reversed $230 $-1 #
edge $-1 $356 -8.7104299307566766 $357 8.7104299307566766 $221 $358 forward 7 unknown #
coedge $-1 $138 $137 $359 $360 forward $55 $-1 #
coedge $-1 $361 $362 $137 $225 reversed $346 $-1 #
edge $-1 $232 -311.08859523300885 $363 311.08859523300885 $224 $364 forward 7 unknown #
coedge $-1 $218 $365 $138 $227 reversed $134 $-1 #
edge $-1 $366 -311.08859523300885 $231 311.08859523300885 $226 $367 forward 7 unknown #
coedge $-1 $221 $139 $365 $368 forward $230 $-1 #
coedge $-1 $139 $221 $361 $369 reversed $230 $-1 #
loop $-1 $-1 $228 $345 #
vertex $-1 $140 $370 #
vertex $-1 $140 $371 #
straight-curve $-1 311.08859523300885 0 155.54429761650442 0 1 0 I I #
loop $-1 $-1 $372 $89 #
coedge $-1 $235 $235 $144 $236 reversed $141 $-1 #
edge $-1 $373 0 $373 6.2831853071796004 $235 $374 forward 7 unknown #
vertex $-1 $145 $375 #
ellipse-curve $-1 0 0 -5.7646107364116332 0 0 -1 2 0 0 1 I I #
face $-1 $376 $377 $32 $-1 $378 reversed single #
loop $-1 $-1 $379 $146 #
plane-surface $-1 -311.08859523300885 0 0 1 0 0 0 0 -1 forward_v I I I I #
coedge $-1 $380 $250 $381 $382 forward $147 $-1 #
coedge $-1 $383 $149 $380 $384 forward $95 $-1 #
coedge $-1 $149 $383 $385 $386 forward $95 $-1 #
coedge $-1 $253 $252 $149 $246 reversed $254 $-1 #
edge $-1 $387 -8.7104299307566766 $388 8.7104299307566766 $245 $389 forward 7 unknown #
coedge $-1 $151 $150 $390 $391 forward $61 $-1 #
coedge $-1 $392 $393 $150 $249 reversed $377 $-1 #
edge $-1 $256 -311.08859523300885 $394 311.08859523300885 $248 $395 forward 7 unknown #
coedge $-1 $242 $396 $151 $251 reversed $147 $-1 #
edge $-1 $397 -311.08859523300885 $255 311.08859523300885 $250 $398 forward 7 unknown #
coedge $-1 $245 $152 $396 $399 forward $254 $-1 #
coedge $-1 $152 $245 $392 $400 reversed $254 $-1 #
loop $-1 $-1 $252 $376 #
vertex $-1 $153 $401 #
vertex $-1 $153 $402 #
straight-curve $-1 311.08859523300885 0 155.54429761650442 0 1 0 I I #
loop $-1 $-1 $403 $98 #
coedge $-1 $259 $259 $157 $260 reversed $154 $-1 #
edge $-1 $404 0 $404 6.2831853071796004 $259 $405 forward 7 unknown #
vertex $-1 $158 $406 #
ellipse-curve $-1 0 0 -5.7646107364116332 0 0 -1 2 0 0 1 I I #
face $-1 $407 $408 $34 $-1 $409 reversed single #
loop $-1 $-1 $410 $159 #
plane-surface $-1 -311.08859523300885 0 0 1 0 0 0 0 -1 forward_v I I I I #
coedge $-1 $411 $274 $412 $413 forward $160 $-1 #
coedge $-1 $414 $162 $411 $415 forward $104 $-1 #
coedge $-1 $162 $414 $416 $417 forward $104 $-1 #
coedge $-1 $277 $276 $162 $270 reversed $278 $-1 #
edge $-1 $418 -8.7104299307566766 $419 8.7104299307566766 $269 $420 forward 7 unknown #
coedge $-1 $164 $163 $421 $422 forward $67 $-1 #
coedge $-1 $423 $424 $163 $273 reversed $408 $-1 #
edge $-1 $280 -311.08859523300885 $425 311.08859523300885 $272 $426 forward 7 unknown #
coedge $-1 $266 $427 $164 $275 reversed $160 $-1 #
edge $-1 $428 -311.08859523300885 $279 311.08859523300885 $274 $429 forward 7 unknown #
coedge $-1 $269 $165 $427 $430 forward $278 $-1 #
coedge $-1 $165 $269 $423 $431 reversed $278 $-1 #
loop $-1 $-1 $276 $407 #
vertex $-1 $166 $432 #
vertex $-1 $166 $433 #
straight-curve $-1 311.08859523300885 0 155.54429761650442 0 1 0 I I #
loop $-1 $-1 $434 $107 #
coedge $-1 $283 $283 $170 $284 reversed $167 $-1 #
edge $-1 $435 0 $435 6.2831853071796004 $283 $436 forward 7 unknown #
vertex $-1 $171 $437 #
ellipse-curve $-1 0 0 -5.7646107364116332 0 0 -1 2 0 0 1 I I #
face $-1 $-1 $187 $27 $-1 $438 reversed single #
loop $-1 $-1 $303 $172 #
plane-surface $-1 0 51.642871431614523 0 0 -1 0 0 0 -1 forward_v I I I I #
coedge $-1 $439 $301 $304 $440 forward $173 $-1 #
coedge $-1 $307 $175 $176 $295 reversed $113 $-1 #
coedge $-1 $301 $439 $175 $293 reversed $173 $-1 #
edge $-1 $308 -17.457739746504341 $441 17.457739746504341 $292 $442 forward 7 unknown #
coedge $-1 $177 $176 $439 $443 forward $73 $-1 #
edge $-1 $299 -77.772148808252211 $441 77.772148808252211 $291 $444 forward 7 unknown #
coedge $-1 $304 $303 $177 $297 reversed $288 $-1 #
edge $-1 $445 -77.772148808252211 $298 77.772148808252211 $296 $446 forward 7 unknown #
vertex $-1 $179 $447 #
vertex $-1 $310 $448 #
straight-curve $-1 77.772148808252211 0 -17.457739746504341 0 -1 0 I I #
coedge $-1 $290 $292 $180 $302 reversed $173 $-1 #
edge $-1 $305 -51.642871431614523 $308 51.642871431614523 $301 $449 forward 7 unknown #
coedge $-1 $296 $181 $186 $311 forward $288 $-1 #
coedge $-1 $181 $296 $290 $440 reversed $288 $-1 #
vertex $-1 $182 $450 #
straight-curve $-1 0 51.642871431614523 17.457739746504341 -1 0 0 I I #
coedge $-1 $183 $291 $185 $310 reversed $113 $-1 #
vertex $-1 $302 $451 #
straight-curve $-1 0 -51.642871431614523 17.457739746504341 1 0 0 I I #
edge $-1 $188 -17.457739746504341 $299 17.457739746504341 $185 $452 forward 7 unknown #
edge $-1 $189 -17.457739746504341 $298 17.457739746504341 $186 $453 forward 7 unknown #
point $-1 77.772148808252211 -51.642871431614523 17.457739746504341 #
point $-1 77.772148808252211 51.642871431614523 17.457739746504341 #
face $-1 $-1 $206 $28 $-1 $454 reversed single #
loop $-1 $-1 $330 $191 #
plane-surface $-1 0 8.7104299307566766 0 0 -1 0 0 0 -1 forward_v I I I I #
coedge $-1 $455 $328 $331 $456 forward $192 $-1 #
coedge $-1 $334 $194 $195 $322 reversed $121 $-1 #
coedge $-1 $328 $455 $194 $320 reversed $192 $-1 #
edge $-1 $335 -155.54429761650442 $457 155.54429761650442 $319 $458 forward 7 unknown #
coedge $-1 $196 $195 $455 $459 forward $77 $-1 #
edge $-1 $326 -311.08859523300885 $457 311.08859523300885 $318 $460 forward 7 unknown #
coedge $-1 $331 $330 $196 $324 reversed $315 $-1 #
edge $-1 $461 -311.08859523300885 $325 311.08859523300885 $323 $462 forward 7 unknown #
vertex $-1 $198 $463 #
vertex $-1 $337 $464 #
straight-curve $-1 311.08859523300885 0 -155.54429761650442 0 -1 0 I I #
coedge $-1 $317 $319 $199 $329 reversed $192 $-1 #
edge $-1 $332 -8.7104299307566766 $335 8.7104299307566766 $328 $465 forward 7 unknown #
coedge $-1 $323 $200 $205 $338 forward $315 $-1 #
coedge $-1 $200 $323 $317 $456 reversed $315 $-1 #
vertex $-1 $201 $466 #
straight-curve $-1 0 8.7104299307566766 155.54429761650442 -1 0 0 I I #
coedge $-1 $202 $318 $204 $337 reversed $121 $-1 #
vertex $-1 $329 $467 #
straight-curve $-1 0 -8.7104299307566766 155.54429761650442 1 0 0 I I #
edge $-1 $207 -155.54429761650442 $326 155.54429761650442 $204 $468 forward 7 unknown #
edge $-1 $208 -155.54429761650442 $325 155.54429761650442 $205 $469 forward 7 unknown #
point $-1 311.08859523300885 -8.7104299307566766 155.54429761650442 #
point $-1 311.08859523300885 8.7104299307566766 155.54429761650442 #
coedge $-1 $341 $341 $-1 $470 reversed $210 $-1 #
vertex $-1 $212 $471 #
ellipse-curve $-1 0 0 -1 0 0 -1 2 0 0 1 I I #
point $-1 2 0 -5.7646107364116332 #
face $-1 $-1 $230 $30 $-1 $472 reversed single #
loop $-1 $-1 $361 $215 #
plane-surface $-1 0 8.7104299307566766 0 0 -1 0 0 0 -1 forward_v I I I I #
coedge $-1 $473 $359 $362 $474 forward $216 $-1 #
coedge $-1 $365 $218 $219 $353 reversed $134 $-1 #
coedge $-1 $359 $473 $218 $351 reversed $216 $-1 #
edge $-1 $366 -155.54429761650442 $475 155.54429761650442 $350 $476 forward 7 unknown #
coedge $-1 $220 $219 $473 $477 forward $86 $-1 #
edge $-1 $357 -311.08859523300885 $475 311.08859523300885 $349 $478 forward 7 unknown #
coedge $-1 $362 $361 $220 $355 reversed $346 $-1 #
edge $-1 $479 -311.08859523300885 $356 311.08859523300885 $354 $480 forward 7 unknown #
vertex $-1 $222 $481 #
vertex $-1 $368 $482 #
straight-curve $-1 311.08859523300885 0 -155.54429761650442 0 -1 0 I I #
coedge $-1 $348 $350 $223 $360 reversed $216 $-1 #
edge $-1 $363 -8.7104299307566766 $366 8.7104299307566766 $359 $483 forward 7 unknown #
coedge $-1 $354 $224 $229 $369 forward $346 $-1 #
coedge $-1 $224 $354 $348 $474 reversed $346 $-1 #
vertex $-1 $225 $484 #
straight-curve $-1 0 8.7104299307566766 155.54429761650442 -1 0 0 I I #
coedge $-1 $226 $349 $228 $368 reversed $134 $-1 #
vertex $-1 $360 $485 #
straight-curve $-1 0 -8.7104299307566766 155.54429761650442 1 0 0 I I #
edge $-1 $231 -155.54429761650442 $357 155.54429761650442 $228 $486 forward 7 unknown #
edge $-1 $232 -155.54429761650442 $356 155.54429761650442 $229 $487 forward 7 unknown #
point $-1 311.08859523300885 -8.7104299307566766 155.54429761650442 #
point $-1 311.08859523300885 8.7104299307566766 155.54429761650442 #
coedge $-1 $372 $372 $-1 $488 reversed $234 $-1 #
vertex $-1 $236 $489 #
ellipse-curve $-1 0 0 -1 0 0 -1 2 0 0 1 I I #
point $-1 2 0 -5.7646107364116332 #
face $-1 $-1 $254 $32 $-1 $490 reversed single #
loop $-1 $-1 $392 $239 #
plane-surface $-1 0 8.7104299307566766 0 0 -1 0 0 0 -1 forward_v I I I I #
coedge $-1 $491 $390 $393 $492 forward $240 $-1 #
coedge $-1 $396 $242 $243 $384 reversed $147 $-1 #
coedge $-1 $390 $491 $242 $382 reversed $240 $-1 #
edge $-1 $397 -155.54429761650442 $493 155.54429761650442 $381 $494 forward 7 unknown #
coedge $-1 $244 $243 $491 $495 forward $95 $-1 #
edge $-1 $388 -311.08859523300885 $493 311.08859523300885 $380 $496 forward 7 unknown #
coedge $-1 $393 $392 $244 $386 reversed $377 $-1 #
edge $-1 $497 -311.08859523300885 $387 311.08859523300885 $385 $498 forward 7 unknown #
vertex $-1 $246 $499 #
vertex $-1 $399 $500 #
straight-curve $-1 311.08859523300885 0 -155.54429761650442 0 -1 0 I I #
coedge $-1 $379 $381 $247 $391 reversed $240 $-1 #
edge $-1 $394 -8.7104299307566766 $397 8.7104299307566766 $390 $501 forward 7 unknown #
coedge $-1 $385 $248 $253 $400 forward $377 $-1 #
coedge $-1 $248 $385 $379 $492 reversed $377 $-1 #
vertex $-1 $249 $502 #
straight-curve $-1 0 8.7104299307566766 155.54429761650442 -1 0 0 I I #
coedge $-1 $250 $380 $252 $399 reversed $147 $-1 #
vertex $-1 $391 $503 #
straight-curve $-1 0 -8.7104299307566766 155.54429761650442 1 0 0 I I #
edge $-1 $255 -155.54429761650442 $388 155.54429761650442 $252 $504 forward 7 unknown #
edge $-1 $256 -155.54429761650442 $387 155.54429761650442 $253 $505 forward 7 unknown #
point $-1 311.08859523300885 -8.7104299307566766 155.54429761650442 #
point $-1 311.08859523300885 8.7104299307566766 155.54429761650442 #
coedge $-1 $403 $403 $-1 $506 reversed $258 $-1 #
vertex $-1 $260 $507 #
ellipse-curve $-1 0 0 -1 0 0 -1 2 0 0 1 I I #
point $-1 2 0 -5.7646107364116332 #
face $-1 $-1 $278 $34 $-1 $508 reversed single #
loop $-1 $-1 $423 $263 #
plane-surface $-1 0 8.7104299307566766 0 0 -1 0 0 0 -1 forward_v I I I I #
coedge $-1 $509 $421 $424 $510 forward $264 $-1 #
coedge $-1 $427 $266 $267 $415 reversed $160 $-1 #
coedge $-1 $421 $509 $266 $413 reversed $264 $-1 #
edge $-1 $428 -155.54429761650442 $511 155.54429761650442 $412 $512 forward 7 unknown #
coedge $-1 $268 $267 $509 $513 forward $104 $-1 #
edge $-1 $419 -311.08859523300885 $511 311.08859523300885 $411 $514 forward 7 unknown #
coedge $-1 $424 $423 $268 $417 reversed $408 $-1 #
edge $-1 $515 -311.08859523300885 $418 311.08859523300885 $416 $516 forward 7 unknown #
vertex $-1 $270 $517 #
vertex $-1 $430 $518 #
straight-curve $-1 311.08859523300885 0 -155.54429761650442 0 -1 0 I I #
coedge $-1 $410 $412 $271 $422 reversed $264 $-1 #
edge $-1 $425 -8.7104299307566766 $428 8.7104299307566766 $421 $519 forward 7 unknown #
coedge $-1 $416 $272 $277 $431 forward $408 $-1 #
coedge $-1 $272 $416 $410 $510 reversed $408 $-1 #
vertex $-1 $273 $520 #
straight-curve $-1 0 8.7104299307566766 155.54429761650442 -1 0 0 I I #
coedge $-1 $274 $411 $276 $430 reversed $160 $-1 #
vertex $-1 $422 $521 #
straight-curve $-1 0 -8.7104299307566766 155.54429761650442 1 0 0 I I #
edge $-1 $279 -155.54429761650442 $419 155.54429761650442 $276 $522 forward 7 unknown #
edge $-1 $280 -155.54429761650442 $418 155.54429761650442 $277 $523 forward 7 unknown #
point $-1 311.08859523300885 -8.7104299307566766 155.54429761650442 #
point $-1 311.08859523300885 8.7104299307566766 155.54429761650442 #
coedge $-1 $434 $434 $-1 $524 reversed $282 $-1 #
vertex $-1 $284 $525 #
ellipse-curve $-1 0 0 -1 0 0 -1 2 0 0 1 I I #
point $-1 2 0 -5.7646107364116332 #
plane-surface $-1 77.772148808252211 0 0 -1 0 0 0 0 1 forward_v I I I I #
coedge $-1 $292 $290 $294 $443 reversed $173 $-1 #
edge $-1 $305 -17.457739746504341 $445 17.457739746504341 $304 $526 forward 7 unknown #
vertex $-1 $443 $527 #
straight-curve $-1 -77.772148808252211 -51.642871431614523 0 0 0 -1 I I #
edge $-1 $441 -51.642871431614523 $445 51.642871431614523 $439 $528 forward 7 unknown #
straight-curve $-1 0 -51.642871431614523 -17.457739746504341 -1 0 0 I I #
vertex $-1 $297 $529 #
straight-curve $-1 0 51.642871431614523 -17.457739746504341 1 0 0 I I #
point $-1 77.772148808252211 51.642871431614523 -17.457739746504341 #
point $-1 77.772148808252211 -51.642871431614523 -17.457739746504341 #
straight-curve $-1 -77.772148808252211 0 17.457739746504341 0 -1 0 I I #
point $-1 -77.772148808252211 51.642871431614523 17.457739746504341 #
point $-1 -77.772148808252211 -51.642871431614523 17.457739746504341 #
straight-curve $-1 77.772148808252211 -51.642871431614523 0 0 0 -1 I I #
straight-curve $-1 77.772148808252211 51.642871431614523 0 0 0 -1 I I #
plane-surface $-1 311.08859523300885 0 0 -1 0 0 0 0 1 forward_v I I I I #
coedge $-1 $319 $317 $321 $459 reversed $192 $-1 #
edge $-1 $332 -155.54429761650442 $461 155.54429761650442 $331 $530 forward 7 unknown #
vertex $-1 $459 $531 #
straight-curve $-1 -311.08859523300885 -8.7104299307566766 0 0 0 -1 I I #
edge $-1 $457 -8.7104299307566766 $461 8.7104299307566766 $455 $532 forward 7 unknown #
straight-curve $-1 0 -8.7104299307566766 -155.54429761650442 -1 0 0 I I #
vertex $-1 $324 $533 #
straight-curve $-1 0 8.7104299307566766 -155.54429761650442 1 0 0 I I #
point $-1 311.08859523300885 8.7104299307566766 -155.54429761650442 #
point $-1 311.08859523300885 -8.7104299307566766 -155.54429761650442 #
straight-curve $-1 -311.08859523300885 0 155.54429761650442 0 -1 0 I I #
point $-1 -311.08859523300885 8.7104299307566766 155.54429761650442 #
point $-1 -311.08859523300885 -8.7104299307566766 155.54429761650442 #
straight-curve $-1 311.08859523300885 -8.7104299307566766 0 0 0 -1 I I #
straight-curve $-1 311.08859523300885 8.7104299307566766 0 0 0 -1 I I #
edge $-1 $534 1 $534 0 $341 $-1 forward 7 unknown #
point $-1 2 0 -1 #
plane-surface $-1 311.08859523300885 0 0 -1 0 0 0 0 1 forward_v I I I I #
coedge $-1 $350 $348 $352 $477 reversed $216 $-1 #
edge $-1 $363 -155.54429761650442 $479 155.54429761650442 $362 $535 forward 7 unknown #
vertex $-1 $477 $536 #
straight-curve $-1 -311.08859523300885 -8.7104299307566766 0 0 0 -1 I I #
edge $-1 $475 -8.7104299307566766 $479 8.7104299307566766 $473 $537 forward 7 unknown #
straight-curve $-1 0 -8.7104299307566766 -155.54429761650442 -1 0 0 I I #
vertex $-1 $355 $538 #
straight-curve $-1 0 8.7104299307566766 -155.54429761650442 1 0 0 I I #
point $-1 311.08859523300885 8.7104299307566766 -155.54429761650442 #
point $-1 311.08859523300885 -8.7104299307566766 -155.54429761650442 #
straight-curve $-1 -311.08859523300885 0 155.54429761650442 0 -1 0 I I #
point $-1 -311.08859523300885 8.7104299307566766 155.54429761650442 #
point $-1 -311.08859523300885 -8.7104299307566766 155.54429761650442 #
straight-curve $-1 311.08859523300885 -8.7104299307566766 0 0 0 -1 I I #
straight-curve $-1 311.08859523300885 8.7104299307566766 0 0 0 -1 I I #
edge $-1 $539 1 $539 0 $372 $-1 forward 7 unknown #
point $-1 2 0 -1 #
plane-surface $-1 311.08859523300885 0 0 -1 0 0 0 0 1 forward_v I I I I #
coedge $-1 $381 $379 $383 $495 reversed $240 $-1 #
edge $-1 $394 -155.54429761650442 $497 155.54429761650442 $393 $540 forward 7 unknown #
vertex $-1 $495 $541 #
straight-curve $-1 -311.08859523300885 -8.7104299307566766 0 0 0 -1 I I #
edge $-1 $493 -8.7104299307566766 $497 8.7104299307566766 $491 $542 forward 7 unknown #
straight-curve $-1 0 -8.7104299307566766 -155.54429761650442 -1 0 0 I I #
vertex $-1 $386 $543 #
straight-curve $-1 0 8.7104299307566766 -155.54429761650442 1 0 0 I I #
point $-1 311.08859523300885 8.7104299307566766 -155.54429761650442 #
point $-1 311.08859523300885 -8.7104299307566766 -155.54429761650442 #
straight-curve $-1 -311.08859523300885 0 155.54429761650442 0 -1 0 I I #
point $-1 -311.08859523300885 8.7104299307566766 155.54429761650442 #
point $-1 -311.08859523300885 -8.7104299307566766 155.54429761650442 #
straight-curve $-1 311.08859523300885 -8.7104299307566766 0 0 0 -1 I I #
straight-curve $-1 311.08859523300885 8.7104299307566766 0 0 0 -1 I I #
edge $-1 $544 1 $544 0 $403 $-1 forward 7 unknown #
point $-1 2 0 -1 #
plane-surface $-1 311.08859523300885 0 0 -1 0 0 0 0 1 forward_v I I I I #
coedge $-1 $412 $410 $414 $513 reversed $264 $-1 #
edge $-1 $425 -155.54429761650442 $515 155.54429761650442 $424 $545 forward 7 unknown #
vertex $-1 $513 $546 #
straight-curve $-1 -311.08859523300885 -8.7104299307566766 0 0 0 -1 I I #
edge $-1 $511 -8.7104299307566766 $515 8.7104299307566766 $509 $547 forward 7 unknown #
straight-curve $-1 0 -8.7104299307566766 -155.54429761650442 -1 0 0 I I #
vertex $-1 $417 $548 #
straight-curve $-1 0 8.7104299307566766 -155.54429761650442 1 0 0 I I #
point $-1 311.08859523300885 8.7104299307566766 -155.54429761650442 #
point $-1 311.08859523300885 -8.7104299307566766 -155.54429761650442 #
straight-curve $-1 -311.08859523300885 0 155.54429761650442 0 -1 0 I I #
point $-1 -311.08859523300885 8.7104299307566766 155.54429761650442 #
point $-1 -311.08859523300885 -8.7104299307566766 155.54429761650442 #
straight-curve $-1 311.08859523300885 -8.7104299307566766 0 0 0 -1 I I #
straight-curve $-1 311.08859523300885 8.7104299307566766 0 0 0 -1 I I #
edge $-1 $549 1 $549 0 $434 $-1 forward 7 unknown #
point $-1 2 0 -1 #
straight-curve $-1 -77.772148808252211 51.642871431614523 0 0 0 -1 I I #
point $-1 -77.772148808252211 -51.642871431614523 -17.457739746504341 #
straight-curve $-1 -77.772148808252211 0 -17.457739746504341 0 1 0 I I #
point $-1 -77.772148808252211 51.642871431614523 -17.457739746504341 #
straight-curve $-1 -311.08859523300885 8.7104299307566766 0 0 0 -1 I I #
point $-1 -311.08859523300885 -8.7104299307566766 -155.54429761650442 #
straight-curve $-1 -311.08859523300885 0 -155.54429761650442 0 1 0 I I #
point $-1 -311.08859523300885 8.7104299307566766 -155.54429761650442 #
vertex $-1 $470 $550 #
straight-curve $-1 -311.08859523300885 8.7104299307566766 0 0 0 -1 I I #
point $-1 -311.08859523300885 -8.7104299307566766 -155.54429761650442 #
straight-curve $-1 -311.08859523300885 0 -155.54429761650442 0 1 0 I I #
point $-1 -311.08859523300885 8.7104299307566766 -155.54429761650442 #
vertex $-1 $488 $551 #
straight-curve $-1 -311.08859523300885 8.7104299307566766 0 0 0 -1 I I #
point $-1 -311.08859523300885 -8.7104299307566766 -155.54429761650442 #
straight-curve $-1 -311.08859523300885 0 -155.54429761650442 0 1 0 I I #
point $-1 -311.08859523300885 8.7104299307566766 -155.54429761650442 #
vertex $-1 $506 $552 #
straight-curve $-1 -311.08859523300885 8.7104299307566766 0 0 0 -1 I I #
point $-1 -311.08859523300885 -8.7104299307566766 -155.54429761650442 #
straight-curve $-1 -311.08859523300885 0 -155.54429761650442 0 1 0 I I #
point $-1 -311.08859523300885 8.7104299307566766 -155.54429761650442 #
vertex $-1 $524 $553 #
point $-1 0 0 1 #
point $-1 0 0 1 #
point $-1 0 0 1 #
point $-1 0 0 1 #
End-of-ACIS-data 