500 0 4 0           
7 Unknown 11 ACIS 5.0 NT 24 Fri Mar 26 01:25:53 1999 
-1 9.9999999999999995e-007 1e-010 
body $-1 $4 $-1 $5 #
body $-1 $6 $-1 $7 #
body $-1 $8 $-1 $9 #
body $-1 $10 $-1 $11 #
lump $-1 $-1 $12 $0 #
transform $-1 1 0 0 0 1 0 0 0 1 67.964720603045748 28.744635991491101 7.6656164032241803 1 rotate no_reflect no_shear #
lump $-1 $-1 $13 $1 #
transform $-1 1 0 0 0 1 0 0 0 1 67.964720603045748 28.744635991491101 7.6656164032241803 1 rotate no_reflect no_shear #
lump $-1 $-1 $14 $2 #
transform $-1 1 0 0 0 1 0 0 0 1 67.964720603045748 28.744635991491101 7.6656164032241803 1 rotate no_reflect no_shear #
lump $-1 $-1 $15 $3 #
transform $-1 1 0 0 0 1 0 0 0 1 67.964720603045748 28.744635991491101 7.6656164032241803 1 rotate no_reflect no_shear #
shell $-1 $-1 $-1 $16 $-1 $4 #
shell $-1 $-1 $-1 $17 $-1 $6 #
shell $-1 $-1 $-1 $18 $-1 $8 #
shell $-1 $-1 $-1 $19 $-1 $10 #
face $-1 $20 $21 $12 $-1 $22 reversed single #
face $-1 $23 $24 $13 $-1 $25 forward single #
face $-1 $26 $27 $14 $-1 $28 reversed single #
face $-1 $29 $30 $15 $-1 $31 forward single #
face $-1 $32 $33 $12 $-1 $34 forward single #
loop $-1 $-1 $35 $16 #
plane-surface $-1 0 -28.744635991491101 0 0 1 0 0 0 1 forward_v I I I I #
face $-1 $36 $37 $13 $-1 $38 reversed single #
loop $-1 $-1 $39 $17 #
plane-surface $-1 0 -28.744635991491101 0 0 1 0 0 0 1 forward_v I I I I #
face $-1 $40 $41 $14 $-1 $42 reversed single #
loop $-1 $-1 $43 $18 #
plane-surface $-1 6.4926511134124922 74.534670357971891 144.31181956736611 1 0 0 0 -0.6560590369687036 -0.75470957328743171 forward_v I I I I #
face $-1 $44 $45 $15 $-1 $46 forward single #
loop $-1 $47 $48 $19 #
cone-surface $-1 19.911986203152935 25.894356866103049 4.9780514523541548 0 -0.6560590369687036 -0.75470957328743171 1 0 0 1 I I 0 1 1 forward I I I I #
face $-1 $49 $50 $12 $-1 $51 reversed single #
loop $-1 $-1 $52 $20 #
plane-surface $-1 0 0 7.6656164032241803 0 0 1 1 0 0 forward_v I I I I #
coedge $-1 $53 $54 $55 $56 reversed $21 $-1 #
face $-1 $57 $58 $13 $-1 $59 reversed single #
loop $-1 $-1 $60 $23 #
plane-surface $-1 0 0 -7.6656164032241803 0 0 1 1 0 0 forward_v I I I I #
coedge $-1 $61 $62 $63 $64 forward $24 $-1 #
face $-1 $65 $66 $14 $-1 $67 reversed single #
loop $-1 $-1 $68 $26 #
plane-surface $-1 19.911986203152935 -14.643067935390519 41.724568997517764 0 0.6560590369687036 0.75470957328743171 1 0 0 forward_v I I I I #
coedge $-1 $69 $70 $71 $72 reversed $27 $-1 #
face $-1 $-1 $73 $15 $-1 $74 forward single #
loop $-1 $75 $76 $29 #
cone-surface $-1 19.911986203152935 24.819729080168948 3.7418336242872074 0 -0.6560590369687036 -0.75470957328743171 0.5 0 0 1 I I -0.70710678118654746 0.70710678118654746 0.5 forward I I I I #
loop $-1 $-1 $77 $19 #
coedge $-1 $48 $48 $78 $79 reversed $30 $-1 #
face $-1 $80 $81 $12 $-1 $82 reversed single #
loop $-1 $-1 $83 $32 #
plane-surface $-1 0 0 -7.6656164032241803 0 0 1 1 0 0 forward_v I I I I #
coedge $-1 $84 $85 $86 $87 forward $33 $-1 #
coedge $-1 $88 $35 $89 $90 reversed $21 $-1 #
coedge $-1 $35 $88 $91 $92 forward $21 $-1 #
coedge $-1 $93 $83 $35 $56 forward $50 $-1 #
edge $-1 $94 -67.964720603045748 $95 67.964720603045748 $35 $96 forward 7 unknown #
face $-1 $97 $98 $13 $-1 $99 reversed single #
loop $-1 $-1 $100 $36 #
plane-surface $-1 -62.692118671487613 -37.417733407710465 0 0 1 0 0 0 1 forward_v I I I I #
coedge $-1 $101 $102 $62 $103 forward $37 $-1 #
coedge $-1 $104 $39 $105 $106 reversed $24 $-1 #
coedge $-1 $39 $104 $60 $103 reversed $24 $-1 #
coedge $-1 $107 $108 $39 $64 reversed $98 $-1 #
edge $-1 $109 -7.6656164032241803 $110 7.6656164032241803 $63 $111 forward 7 unknown #
face $-1 $112 $113 $14 $-1 $114 forward single #
loop $-1 $-1 $115 $40 #
plane-surface $-1 33.331321292893378 74.534670357971891 144.31181956736611 -1 0 0 0 0.6560590369687036 0.75470957328743171 forward_v I I I I #
coedge $-1 $116 $117 $118 $119 reversed $41 $-1 #
coedge $-1 $70 $43 $120 $121 reversed $27 $-1 #
coedge $-1 $43 $69 $116 $122 reversed $27 $-1 #
coedge $-1 $118 $123 $43 $72 forward $113 $-1 #
edge $-1 $124 8.5226991874948439 $125 12.730060903371481 $71 $126 forward 7 unknown #
loop $-1 $-1 $78 $44 #
plane-surface $-1 19.911986203152935 -14.643067935390519 41.724568997517764 0 0.6560590369687036 0.75470957328743171 1 0 0 forward_v I I I I #
loop $-1 $-1 $127 $29 #
coedge $-1 $76 $76 $77 $128 reversed $45 $-1 #
coedge $-1 $77 $77 $76 $128 forward $47 $-1 #
coedge $-1 $78 $78 $48 $79 forward $73 $-1 #
edge $-1 $129 1.4019084392022037e-015 $129 6.2831853071796022 $78 $130 forward 7 unknown #
face $-1 $131 $132 $12 $-1 $133 reversed single #
loop $-1 $-1 $134 $49 #
plane-surface $-1 -67.964720603045748 0 0 1 0 0 0 0 -1 forward_v I I I I #
coedge $-1 $55 $135 $136 $137 forward $50 $-1 #
coedge $-1 $138 $52 $139 $140 forward $33 $-1 #
coedge $-1 $52 $138 $88 $141 forward $33 $-1 #
coedge $-1 $89 $142 $52 $87 reversed $143 $-1 #
edge $-1 $144 -28.744635991491101 $145 28.744635991491101 $86 $146 forward 7 unknown #
coedge $-1 $54 $53 $85 $141 reversed $21 $-1 #
coedge $-1 $136 $86 $53 $90 forward $143 $-1 #
edge $-1 $144 -7.6656164032241803 $94 7.6656164032241803 $89 $147 forward 7 unknown #
coedge $-1 $148 $149 $54 $92 reversed $81 $-1 #
edge $-1 $150 -7.6656164032241803 $95 7.6656164032241803 $91 $151 forward 7 unknown #
coedge $-1 $135 $55 $149 $152 forward $50 $-1 #
vertex $-1 $90 $153 #
vertex $-1 $152 $154 #
straight-curve $-1 0 -28.744635991491101 -7.6656164032241803 -1 0 0 I I #
face $-1 $155 $156 $13 $-1 $157 reversed single #
loop $-1 $-1 $63 $57 #
plane-surface $-1 -64.388043015855203 -33.081184699600783 0 1 0 0 0 0 -1 forward_v I I I I #
coedge $-1 $158 $159 $160 $161 forward $58 $-1 #
coedge $-1 $162 $60 $163 $164 forward $37 $-1 #
coedge $-1 $60 $162 $107 $165 forward $37 $-1 #
edge $-1 $109 -64.388043015855203 $166 -60.996194327120016 $60 $167 forward 7 unknown #
coedge $-1 $62 $61 $168 $169 forward $24 $-1 #
coedge $-1 $170 $171 $61 $106 forward $172 $-1 #
edge $-1 $173 60.996194327120016 $110 64.388043015855203 $105 $174 forward 7 unknown #
coedge $-1 $160 $63 $102 $165 reversed $98 $-1 #
coedge $-1 $63 $160 $170 $175 reversed $98 $-1 #
vertex $-1 $103 $176 #
vertex $-1 $175 $177 #
straight-curve $-1 -64.388043015855203 -28.744635991491101 0 0 0 1 I I #
face $-1 $-1 $178 $14 $-1 $179 reversed single #
loop $-1 $-1 $71 $65 #
plane-surface $-1 0 0 7.6656164032241803 0 0 1 1 0 0 forward_v I I I I #
coedge $-1 $180 $181 $182 $183 reversed $66 $-1 #
coedge $-1 $184 $68 $70 $122 forward $41 $-1 #
coedge $-1 $68 $184 $180 $185 forward $41 $-1 #
coedge $-1 $182 $71 $68 $119 forward $113 $-1 #
edge $-1 $125 -3.4633419881639753 $186 23.37532819131691 $118 $187 forward 7 unknown #
coedge $-1 $188 $189 $69 $121 forward $178 $-1 #
edge $-1 $190 -68.147697199352493 $124 -64.49029338045888 $120 $191 forward 7 unknown #
edge $-1 $125 51.914462990498102 $190 57.489271982982231 $70 $192 forward 7 unknown #
coedge $-1 $71 $182 $188 $193 forward $113 $-1 #
vertex $-1 $121 $194 #
vertex $-1 $72 $195 #
straight-curve $-1 6.4926511134124922 37.267335178985945 7.6656164032241776 0 -1 0 I I #
coedge $-1 $127 $127 $-1 $196 reversed $75 $-1 #
edge $-1 $197 0 $197 6.2831853071796004 $76 $198 forward 7 unknown #
vertex $-1 $79 $199 #
ellipse-curve $-1 19.911986203152935 26.640955133552787 5.8369144937773729 0 0.6560590369687036 0.75470957328743171 1 0 0 1 I I #
face $-1 $-1 $143 $12 $-1 $200 reversed single #
loop $-1 $-1 $201 $80 #
plane-surface $-1 0 28.744635991491101 0 0 -1 0 0 0 -1 forward_v I I I I #
coedge $-1 $149 $148 $202 $203 forward $81 $-1 #
coedge $-1 $83 $93 $204 $205 forward $50 $-1 #
coedge $-1 $142 $89 $83 $137 reversed $143 $-1 #
edge $-1 $206 -28.744635991491101 $94 28.744635991491101 $136 $207 forward 7 unknown #
coedge $-1 $85 $84 $148 $208 forward $33 $-1 #
coedge $-1 $201 $202 $84 $140 reversed $132 $-1 #
edge $-1 $145 -67.964720603045748 $209 67.964720603045748 $139 $210 forward 7 unknown #
edge $-1 $150 -67.964720603045748 $144 67.964720603045748 $88 $211 forward 7 unknown #
coedge $-1 $86 $136 $201 $212 reversed $143 $-1 #
loop $-1 $-1 $89 $131 #
vertex $-1 $87 $213 #
vertex $-1 $87 $214 #
straight-curve $-1 67.964720603045748 0 7.6656164032241803 0 1 0 I I #
straight-curve $-1 67.964720603045748 -28.744635991491101 0 0 0 -1 I I #
coedge $-1 $134 $91 $138 $208 reversed $81 $-1 #
coedge $-1 $91 $134 $93 $152 reversed $81 $-1 #
vertex $-1 $208 $215 #
straight-curve $-1 -67.964720603045748 -28.744635991491101 0 0 0 -1 I I #
edge $-1 $95 -28.744635991491101 $216 28.744635991491101 $149 $217 forward 7 unknown #
point $-1 67.964720603045748 -28.744635991491101 -7.6656164032241803 #
point $-1 -67.964720603045748 -28.744635991491101 -7.6656164032241803 #
face $-1 $-1 $172 $13 $-1 $218 forward single #
loop $-1 $-1 $219 $97 #
plane-surface $-1 -60.996194327120016 -33.081184699600783 0 -1 0 0 0 0 1 forward_v I I I I #
coedge $-1 $220 $100 $162 $221 reversed $58 $-1 #
coedge $-1 $100 $220 $222 $223 reversed $58 $-1 #
coedge $-1 $108 $107 $100 $161 reversed $98 $-1 #
edge $-1 $224 -7.6656164032241803 $225 7.6656164032241803 $160 $226 forward 7 unknown #
coedge $-1 $102 $101 $158 $221 forward $37 $-1 #
coedge $-1 $168 $219 $101 $164 reversed $156 $-1 #
edge $-1 $166 -4.3365487081096781 $227 4.3365487081096816 $163 $228 forward 7 unknown #
edge $-1 $225 -4.3365487081096816 $109 4.3365487081096781 $107 $229 forward 7 unknown #
vertex $-1 $164 $230 #
straight-curve $-1 0 -28.744635991491101 -7.6656164032241803 1 0 0 I I #
coedge $-1 $231 $163 $104 $169 reversed $156 $-1 #
edge $-1 $173 -7.6656164032241803 $166 7.6656164032241803 $168 $232 forward 7 unknown #
coedge $-1 $222 $105 $108 $175 forward $172 $-1 #
coedge $-1 $105 $222 $231 $233 forward $172 $-1 #
loop $-1 $-1 $105 $155 #
vertex $-1 $106 $234 #
straight-curve $-1 0 -28.744635991491101 7.6656164032241803 -1 0 0 I I #
edge $-1 $110 -4.3365487081096781 $224 4.3365487081096816 $108 $235 forward 7 unknown #
point $-1 -64.388043015855203 -28.744635991491105 -7.6656164032241803 #
point $-1 -64.388043015855203 -28.744635991491105 7.6656164032241803 #
loop $-1 $-1 $120 $112 #
plane-surface $-1 0 28.744635991491101 0 0 -1 0 0 0 -1 forward_v I I I I #
coedge $-1 $181 $115 $117 $185 reversed $66 $-1 #
coedge $-1 $115 $180 $236 $237 reversed $66 $-1 #
coedge $-1 $123 $118 $115 $183 forward $113 $-1 #
edge $-1 $186 -12.730060903371481 $238 -8.5226991874948439 $182 $239 forward 7 unknown #
coedge $-1 $117 $116 $189 $240 reversed $41 $-1 #
edge $-1 $241 -57.489271982982231 $186 -51.914462990498102 $180 $242 forward 7 unknown #
vertex $-1 $119 $243 #
straight-curve $-1 9.9559931015764676 24.537274275614458 7.6656164032241847 1 0 0 I I #
coedge $-1 $236 $120 $123 $193 reversed $178 $-1 #
coedge $-1 $120 $236 $184 $240 forward $178 $-1 #
vertex $-1 $121 $244 #
straight-curve $-1 6.4926511134124922 28.744635991491101 72.155909783683057 0 0 1 I I #
straight-curve $-1 6.4926511134124922 -14.643067935390519 41.724568997517764 0 0.75470957328743171 -0.6560590369687036 I I #
edge $-1 $238 -33.331321292893378 $124 -6.4926511134124922 $188 $245 forward 7 unknown #
point $-1 6.4926511134124922 28.744635991491101 7.6656164032241803 #
point $-1 6.4926511134124922 24.537274275614465 7.6656164032241776 #
edge $-1 $246 1 $246 0 $127 $-1 forward 7 unknown #
vertex $-1 $128 $247 #
ellipse-curve $-1 19.911986203152935 25.147758598653301 4.1191884109309234 0 0.6560590369687036 0.75470957328743171 1 0 0 1 I I #
point $-1 20.911986203152935 26.640955133552801 5.8369144937773871 #
plane-surface $-1 67.964720603045748 0 0 -1 0 0 0 0 1 forward_v I I I I #
coedge $-1 $204 $139 $142 $212 forward $132 $-1 #
coedge $-1 $139 $204 $134 $203 reversed $132 $-1 #
edge $-1 $209 -7.6656164032241803 $216 7.6656164032241803 $202 $248 forward 7 unknown #
coedge $-1 $202 $201 $135 $205 reversed $132 $-1 #
edge $-1 $216 -67.964720603045748 $206 67.964720603045748 $204 $249 forward 7 unknown #
vertex $-1 $137 $250 #
straight-curve $-1 67.964720603045748 0 -7.6656164032241803 0 -1 0 I I #
edge $-1 $209 -28.744635991491101 $150 28.744635991491101 $148 $251 forward 7 unknown #
vertex $-1 $140 $252 #
straight-curve $-1 0 28.744635991491101 7.6656164032241803 -1 0 0 I I #
straight-curve $-1 0 -28.744635991491101 7.6656164032241803 1 0 0 I I #
edge $-1 $145 -7.6656164032241803 $206 7.6656164032241803 $142 $253 forward 7 unknown #
point $-1 67.964720603045748 -28.744635991491101 7.6656164032241803 #
point $-1 67.964720603045748 28.744635991491101 7.6656164032241803 #
point $-1 -67.964720603045748 -28.744635991491101 7.6656164032241803 #
vertex $-1 $205 $254 #
straight-curve $-1 -67.964720603045748 0 -7.6656164032241803 0 1 0 I I #
plane-surface $-1 0 0 7.6656164032241803 0 0 1 1 0 0 forward_v I I I I #
coedge $-1 $163 $231 $220 $255 forward $156 $-1 #
coedge $-1 $159 $158 $219 $255 reversed $58 $-1 #
edge $-1 $227 -1.6959243443675973 $225 1.6959243443675902 $158 $256 forward 7 unknown #
coedge $-1 $171 $170 $159 $223 forward $172 $-1 #
edge $-1 $224 -1.6959243443675902 $257 1.6959243443675973 $159 $258 forward 7 unknown #
vertex $-1 $175 $259 #
vertex $-1 $165 $260 #
straight-curve $-1 -64.388043015855203 -37.417733407710465 0 0 0 -1 I I #
vertex $-1 $255 $261 #
straight-curve $-1 -60.996194327120016 -33.081184699600783 -7.6656164032241803 0 -1 0 I I #
straight-curve $-1 -64.388043015855203 -33.081184699600783 -7.6656164032241803 0 1 0 I I #
point $-1 -60.996194327120016 -28.744635991491105 -7.6656164032241803 #
coedge $-1 $219 $168 $171 $233 reversed $156 $-1 #
straight-curve $-1 -60.996194327120016 -28.744635991491101 0 0 0 -1 I I #
edge $-1 $257 -4.3365487081096816 $173 4.3365487081096781 $231 $262 forward 7 unknown #
point $-1 -60.996194327120016 -28.744635991491105 7.6656164032241803 #
straight-curve $-1 -64.388043015855203 -33.081184699600783 7.6656164032241803 0 -1 0 I I #
coedge $-1 $189 $188 $181 $237 forward $178 $-1 #
edge $-1 $238 64.49029338045888 $241 68.147697199352493 $236 $263 forward 7 unknown #
vertex $-1 $193 $264 #
straight-curve $-1 33.331321292893378 37.267335178985945 7.6656164032241776 0 1 0 I I #
edge $-1 $241 -23.37532819131691 $190 3.4633419881639753 $189 $265 forward 7 unknown #
vertex $-1 $240 $266 #
straight-curve $-1 33.331321292893378 -14.643067935390519 41.724568997517764 0 -0.75470957328743171 0.6560590369687036 I I #
point $-1 33.331321292893378 24.537274275614465 7.6656164032241776 #
point $-1 6.4926511134124922 28.744635991491101 4.0082125843305647 #
straight-curve $-1 0 28.744635991491101 7.6656164032241803 -1 0 0 I I #
vertex $-1 $196 $267 #
point $-1 20.911986203152935 25.147758598653301 4.1191884109309234 #
straight-curve $-1 -67.964720603045748 28.744635991491101 0 0 0 -1 I I #
straight-curve $-1 0 28.744635991491101 -7.6656164032241803 1 0 0 I I #
point $-1 67.964720603045748 28.744635991491101 -7.6656164032241803 #
straight-curve $-1 -67.964720603045748 0 7.6656164032241803 0 -1 0 I I #
point $-1 -67.964720603045748 28.744635991491101 7.6656164032241803 #
straight-curve $-1 67.964720603045748 28.744635991491101 0 0 0 -1 I I #
point $-1 -67.964720603045748 28.744635991491101 -7.6656164032241803 #
edge $-1 $257 -7.6656164032241803 $227 7.6656164032241803 $219 $268 forward 7 unknown #
straight-curve $-1 -62.692118671487613 -37.417733407710465 -7.6656164032241803 -1 0 0 I I #
vertex $-1 $233 $269 #
straight-curve $-1 -62.692118671487613 -37.417733407710465 7.6656164032241803 1 0 0 I I #
point $-1 -64.388043015855203 -37.417733407710465 7.6656164032241803 #
point $-1 -64.388043015855203 -37.417733407710465 -7.6656164032241803 #
point $-1 -60.996194327120016 -37.417733407710465 -7.6656164032241803 #
straight-curve $-1 -60.996194327120016 -33.081184699600783 7.6656164032241803 0 1 0 I I #
straight-curve $-1 33.331321292893378 28.744635991491101 72.155909783683057 0 0 -1 I I #
point $-1 33.331321292893378 28.744635991491101 7.6656164032241803 #
straight-curve $-1 9.9559931015764676 28.744635991491101 4.0082125843305718 -1 0 0 I I #
point $-1 33.331321292893378 28.744635991491101 4.0082125843305647 #
point $-1 19.911986203152935 24.491699561684594 3.3644788376434915 #
straight-curve $-1 -60.996194327120016 -37.417733407710465 0 0 0 -1 I I #
point $-1 -60.996194327120016 -37.417733407710465 7.6656164032241803 #
End-of-ACIS-data 