500 0 10 0           
7 Unknown 11 ACIS 5.0 NT 24 Thu Mar 25 18:50:41 1999 
-1 9.9999999999999995e-007 1e-010 
body $-1 $10 $-1 $11 #
body $-1 $12 $-1 $13 #
body $-1 $14 $-1 $15 #
body $-1 $16 $-1 $17 #
body $-1 $18 $-1 $19 #
body $-1 $20 $-1 $21 #
body $-1 $22 $-1 $23 #
body $-1 $24 $-1 $25 #
body $-1 $26 $-1 $27 #
body $-1 $28 $-1 $29 #
lump $-1 $-1 $30 $0 #
transform $-1 1 0 0 0 1 0 0 0 1 41.389202551347395 19.766069435850234 4.7818722807986207 1 rotate no_reflect no_shear #
lump $-1 $-1 $31 $1 #
transform $-1 1 0 0 0 1 0 0 0 1 41.389202551347395 19.766069435850234 4.7818722807986207 1 rotate no_reflect no_shear #
lump $-1 $-1 $32 $2 #
transform $-1 1 0 0 0 1 0 0 0 1 41.389202551347395 19.766069435850234 4.7818722807986207 1 rotate no_reflect no_shear #
lump $-1 $-1 $33 $3 #
transform $-1 1 0 0 0 1 0 0 0 1 41.389202551347395 19.766069435850234 4.7818722807986207 1 rotate no_reflect no_shear #
lump $-1 $-1 $34 $4 #
transform $-1 1 0 0 0 1 0 0 0 1 41.389202551347395 19.766069435850234 4.7818722807986207 1 rotate no_reflect no_shear #
lump $-1 $-1 $35 $5 #
transform $-1 1 0 0 0 1 0 0 0 1 41.389202551347395 19.766069435850234 4.7818722807986207 1 rotate no_reflect no_shear #
lump $-1 $-1 $36 $6 #
transform $-1 1 0 0 0 1 0 0 0 1 41.389202551347395 19.766069435850234 4.7818722807986207 1 rotate no_reflect no_shear #
lump $-1 $-1 $37 $7 #
transform $-1 1 0 0 0 1 0 0 0 1 41.389202551347395 19.766069435850234 4.7818722807986207 1 rotate no_reflect no_shear #
lump $-1 $-1 $38 $8 #
transform $-1 1 0 0 0 1 0 0 0 1 41.389202551347395 19.766069435850234 4.7818722807986207 1 rotate no_reflect no_shear #
lump $-1 $-1 $39 $9 #
transform $-1 1 0 0 0 1 0 0 0 1 41.389202551347395 19.766069435850234 4.7818722807986207 1 rotate no_reflect no_shear #
shell $-1 $-1 $-1 $40 $-1 $10 #
shell $-1 $-1 $-1 $41 $-1 $12 #
shell $-1 $-1 $-1 $42 $-1 $14 #
shell $-1 $-1 $-1 $43 $-1 $16 #
shell $-1 $-1 $-1 $44 $-1 $18 #
shell $-1 $-1 $-1 $45 $-1 $20 #
shell $-1 $-1 $-1 $46 $-1 $22 #
shell $-1 $-1 $-1 $47 $-1 $24 #
shell $-1 $-1 $-1 $48 $-1 $26 #
shell $-1 $-1 $-1 $49 $-1 $28 #
face $-1 $50 $51 $30 $-1 $52 forward single #
face $-1 $53 $54 $31 $-1 $55 forward single #
face $-1 $56 $57 $32 $-1 $58 reversed single #
face $-1 $59 $60 $33 $-1 $61 forward single #
face $-1 $62 $63 $34 $-1 $64 forward single #
face $-1 $65 $66 $35 $-1 $67 forward single #
face $-1 $68 $69 $36 $-1 $70 reversed single #
face $-1 $71 $72 $37 $-1 $73 forward single #
face $-1 $74 $75 $38 $-1 $76 forward single #
face $-1 $77 $78 $39 $-1 $79 forward single #
face $-1 $80 $81 $30 $-1 $82 reversed single #
loop $-1 $-1 $83 $40 #
plane-surface $-1 0 0 4.7818722807986207 0 0 1 1 0 0 forward_v I I I I #
face $-1 $84 $85 $31 $-1 $86 reversed single #
loop $-1 $-1 $87 $41 #
plane-surface $-1 -38.913023959153982 0 4.2818722807986207 0 0 1 1 0 0 forward_v I I I I #
face $-1 $88 $89 $32 $-1 $90 reversed single #
loop $-1 $-1 $91 $42 #
plane-surface $-1 -29.934082059573889 -7.6952613962497196 29.188356478002866 0 0.71933980857756763 0.69465836192734942 1 0 0 forward_v I I I I #
face $-1 $92 $93 $33 $-1 $94 forward single #
loop $-1 $95 $96 $43 #
cone-surface $-1 -33.835740044005902 17.216115469046258 2.1834894858671605 0 -0.71933980857756763 -0.69465836192734942 0.5 0 0 1 I I 0 1 0.5 forward I I I I #
face $-1 $97 $98 $34 $-1 $99 forward single #
loop $-1 $100 $101 $44 #
cone-surface $-1 -29.934082059573889 17.216115469046258 2.1834894858671605 0 -0.71933980857756763 -0.69465836192734942 0.5 0 0 1 I I 0 1 0.5 forward I I I I #
face $-1 $102 $103 $35 $-1 $104 forward single #
loop $-1 $105 $106 $45 #
cone-surface $-1 -26.032424075141879 17.216115469046258 2.1834894858671605 0 -0.71933980857756763 -0.69465836192734942 0.5 0 0 1 I I 0 1 0.5 forward I I I I #
face $-1 $107 $108 $36 $-1 $109 reversed single #
loop $-1 $-1 $110 $46 #
plane-surface $-1 15.481705206966776 51.850540684679096 86.691067769599371 -1 0 0 0 0.71933980857756763 0.69465836192734942 forward_v I I I I #
face $-1 $111 $112 $37 $-1 $113 forward single #
loop $-1 $114 $115 $47 #
cone-surface $-1 5.0772839151480795 17.216115469046258 2.1834894858671605 0 -0.71933980857756763 -0.69465836192734942 0.5 0 0 1 I I 0 1 0.5 forward I I I I #
face $-1 $116 $117 $38 $-1 $118 forward single #
loop $-1 $119 $120 $48 #
cone-surface $-1 8.9789418995800929 17.216115469046258 2.1834894858671605 0 -0.71933980857756763 -0.69465836192734942 0.5 0 0 1 I I 0 1 0.5 forward I I I I #
face $-1 $121 $122 $39 $-1 $123 forward single #
loop $-1 $124 $125 $49 #
cone-surface $-1 12.880599884012099 17.216115469046258 2.1834894858671605 0 -0.71933980857756763 -0.69465836192734942 0.5 0 0 1 I I 0 1 0.5 forward I I I I #
face $-1 $126 $127 $30 $-1 $128 reversed single #
loop $-1 $-1 $129 $50 #
plane-surface $-1 0 0 -4.7818722807986207 0 0 1 1 0 0 forward_v I I I I #
coedge $-1 $130 $131 $132 $133 forward $51 $-1 #
face $-1 $134 $135 $31 $-1 $136 reversed single #
loop $-1 $-1 $137 $53 #
plane-surface $-1 -38.913023959153982 0 1.2818722807986207 0 0 1 1 0 0 forward_v I I I I #
coedge $-1 $138 $139 $140 $141 forward $54 $-1 #
face $-1 $142 $143 $32 $-1 $144 forward single #
loop $-1 $-1 $145 $56 #
plane-surface $-1 -23.431318752187206 51.850540684679096 86.691067769599371 -1 0 0 0 0.71933980857756763 0.69465836192734942 forward_v I I I I #
coedge $-1 $146 $147 $148 $149 reversed $57 $-1 #
face $-1 $-1 $150 $33 $-1 $151 forward single #
loop $-1 $152 $153 $59 #
cone-surface $-1 -33.835740044005902 16.432458334983288 1.4267206061671542 0 -0.71933980857756763 -0.69465836192734942 0.25 0 0 1 I I -0.70710678118654746 0.70710678118654746 0.25 forward I I I I #
loop $-1 $-1 $154 $43 #
coedge $-1 $96 $96 $155 $156 reversed $60 $-1 #
face $-1 $-1 $157 $34 $-1 $158 forward single #
loop $-1 $159 $160 $62 #
cone-surface $-1 -29.934082059573889 16.432458334983288 1.4267206061671542 0 -0.71933980857756763 -0.69465836192734942 0.25 0 0 1 I I -0.70710678118654746 0.70710678118654746 0.25 forward I I I I #
loop $-1 $-1 $161 $44 #
coedge $-1 $101 $101 $162 $163 reversed $63 $-1 #
face $-1 $-1 $164 $35 $-1 $165 forward single #
loop $-1 $166 $167 $65 #
cone-surface $-1 -26.032424075141879 16.432458334983288 1.4267206061671542 0 -0.71933980857756763 -0.69465836192734942 0.25 0 0 1 I I -0.70710678118654746 0.70710678118654746 0.25 forward I I I I #
loop $-1 $-1 $168 $45 #
coedge $-1 $106 $106 $169 $170 reversed $66 $-1 #
face $-1 $171 $172 $36 $-1 $173 reversed single #
loop $-1 $-1 $174 $68 #
plane-surface $-1 8.9789418995800929 -7.6952613962497196 29.188356478002866 0 0.71933980857756763 0.69465836192734942 1 0 0 forward_v I I I I #
coedge $-1 $175 $176 $177 $178 reversed $69 $-1 #
face $-1 $-1 $179 $37 $-1 $180 forward single #
loop $-1 $181 $182 $71 #
cone-surface $-1 5.0772839151480795 16.432458334983288 1.4267206061671542 0 -0.71933980857756763 -0.69465836192734942 0.25 0 0 1 I I -0.70710678118654746 0.70710678118654746 0.25 forward I I I I #
loop $-1 $-1 $183 $47 #
coedge $-1 $115 $115 $184 $185 reversed $72 $-1 #
face $-1 $-1 $186 $38 $-1 $187 forward single #
loop $-1 $188 $189 $74 #
cone-surface $-1 8.9789418995800929 16.432458334983288 1.4267206061671542 0 -0.71933980857756763 -0.69465836192734942 0.25 0 0 1 I I -0.70710678118654746 0.70710678118654746 0.25 forward I I I I #
loop $-1 $-1 $190 $48 #
coedge $-1 $120 $120 $191 $192 reversed $75 $-1 #
face $-1 $-1 $193 $39 $-1 $194 forward single #
loop $-1 $195 $196 $77 #
cone-surface $-1 12.880599884012099 16.432458334983288 1.4267206061671542 0 -0.71933980857756763 -0.69465836192734942 0.25 0 0 1 I I -0.70710678118654746 0.70710678118654746 0.25 forward I I I I #
loop $-1 $-1 $197 $49 #
coedge $-1 $125 $125 $198 $199 reversed $78 $-1 #
face $-1 $200 $201 $30 $-1 $202 reversed single #
loop $-1 $-1 $203 $80 #
plane-surface $-1 0 -19.766069435850234 0 0 1 0 0 0 1 forward_v I I I I #
coedge $-1 $204 $205 $206 $207 forward $81 $-1 #
coedge $-1 $208 $83 $209 $210 forward $51 $-1 #
coedge $-1 $83 $208 $211 $212 forward $51 $-1 #
coedge $-1 $213 $214 $83 $133 reversed $215 $-1 #
edge $-1 $216 -19.766069435850234 $217 19.766069435850234 $132 $218 forward 7 unknown #
face $-1 $219 $220 $31 $-1 $221 reversed single #
loop $-1 $-1 $140 $84 #
plane-surface $-1 -36.436845366960569 0 2.7818722807986207 -1 0 0 0 0 1 forward_v I I I I #
coedge $-1 $222 $223 $224 $225 forward $85 $-1 #
coedge $-1 $226 $87 $227 $228 reversed $54 $-1 #
coedge $-1 $87 $226 $229 $230 reversed $54 $-1 #
coedge $-1 $231 $232 $87 $141 reversed $135 $-1 #
edge $-1 $233 -19.766069435850234 $234 19.766069435850234 $140 $235 forward 7 unknown #
face $-1 $236 $237 $32 $-1 $238 forward single #
loop $-1 $-1 $239 $88 #
plane-surface $-1 -36.436845366960569 0 2.7818722807986207 -1 0 0 0 0 1 forward_v I I I I #
coedge $-1 $240 $241 $242 $243 reversed $89 $-1 #
coedge $-1 $244 $91 $239 $245 forward $57 $-1 #
coedge $-1 $91 $244 $240 $246 forward $57 $-1 #
coedge $-1 $242 $247 $91 $149 forward $237 $-1 #
edge $-1 $248 -21.469804337173631 $249 -8.4642777224002614 $148 $250 forward 7 unknown #
loop $-1 $-1 $155 $92 #
plane-surface $-1 -29.934082059573889 -7.6952613962497196 29.188356478002866 0 0.71933980857756763 0.69465836192734942 1 0 0 forward_v I I I I #
loop $-1 $-1 $251 $59 #
coedge $-1 $153 $153 $154 $252 reversed $93 $-1 #
coedge $-1 $154 $154 $153 $252 forward $95 $-1 #
coedge $-1 $155 $155 $96 $156 forward $150 $-1 #
edge $-1 $253 -6.2762355284492214e-015 $253 6.2831853071795942 $155 $254 forward 7 unknown #
loop $-1 $-1 $162 $97 #
plane-surface $-1 -29.934082059573889 -7.6952613962497196 29.188356478002866 0 0.71933980857756763 0.69465836192734942 1 0 0 forward_v I I I I #
loop $-1 $-1 $255 $62 #
coedge $-1 $160 $160 $161 $256 reversed $98 $-1 #
coedge $-1 $161 $161 $160 $256 forward $100 $-1 #
coedge $-1 $162 $162 $101 $163 forward $157 $-1 #
edge $-1 $257 -6.2762355284492214e-015 $257 6.2831853071795942 $162 $258 forward 7 unknown #
loop $-1 $-1 $169 $102 #
plane-surface $-1 -29.934082059573889 -7.6952613962497196 29.188356478002866 0 0.71933980857756763 0.69465836192734942 1 0 0 forward_v I I I I #
loop $-1 $-1 $259 $65 #
coedge $-1 $167 $167 $168 $260 reversed $103 $-1 #
coedge $-1 $168 $168 $167 $260 forward $105 $-1 #
coedge $-1 $169 $169 $106 $170 forward $164 $-1 #
edge $-1 $261 -6.2762355284492214e-015 $261 6.2831853071795942 $169 $262 forward 7 unknown #
face $-1 $263 $264 $36 $-1 $265 reversed single #
loop $-1 $-1 $266 $107 #
plane-surface $-1 2.476178592193409 51.850540684679096 86.691067769599371 1 0 0 0 -0.71933980857756763 -0.69465836192734942 forward_v I I I I #
coedge $-1 $267 $268 $269 $270 reversed $108 $-1 #
coedge $-1 $176 $110 $271 $272 reversed $69 $-1 #
coedge $-1 $110 $175 $267 $273 reversed $69 $-1 #
coedge $-1 $269 $274 $110 $178 forward $264 $-1 #
edge $-1 $275 38.563661604001062 $276 42.594218615427664 $177 $277 forward 7 unknown #
loop $-1 $-1 $184 $111 #
plane-surface $-1 8.9789418995800929 -7.6952613962497196 29.188356478002866 0 0.71933980857756763 0.69465836192734942 1 0 0 forward_v I I I I #
loop $-1 $-1 $278 $71 #
coedge $-1 $182 $182 $183 $279 reversed $112 $-1 #
coedge $-1 $183 $183 $182 $279 forward $114 $-1 #
coedge $-1 $184 $184 $115 $185 forward $179 $-1 #
edge $-1 $280 -6.2762355284492214e-015 $280 6.2831853071795942 $184 $281 forward 7 unknown #
loop $-1 $-1 $191 $116 #
plane-surface $-1 8.9789418995800929 -7.6952613962497196 29.188356478002866 0 0.71933980857756763 0.69465836192734942 1 0 0 forward_v I I I I #
loop $-1 $-1 $282 $74 #
coedge $-1 $189 $189 $190 $283 reversed $117 $-1 #
coedge $-1 $190 $190 $189 $283 forward $119 $-1 #
coedge $-1 $191 $191 $120 $192 forward $186 $-1 #
edge $-1 $284 -6.2762355284492214e-015 $284 6.2831853071795942 $191 $285 forward 7 unknown #
loop $-1 $-1 $198 $121 #
plane-surface $-1 8.9789418995800929 -7.6952613962497196 29.188356478002866 0 0.71933980857756763 0.69465836192734942 1 0 0 forward_v I I I I #
loop $-1 $-1 $286 $77 #
coedge $-1 $196 $196 $197 $287 reversed $122 $-1 #
coedge $-1 $197 $197 $196 $287 forward $124 $-1 #
coedge $-1 $198 $198 $125 $199 forward $193 $-1 #
edge $-1 $288 -6.2762355284492214e-015 $288 6.2831853071795942 $198 $289 forward 7 unknown #
face $-1 $290 $291 $30 $-1 $292 reversed single #
loop $-1 $-1 $293 $126 #
plane-surface $-1 -41.389202551347395 0 0 1 0 0 0 0 -1 forward_v I I I I #
coedge $-1 $294 $211 $295 $296 forward $127 $-1 #
coedge $-1 $297 $129 $294 $298 forward $81 $-1 #
coedge $-1 $129 $297 $299 $300 forward $81 $-1 #
coedge $-1 $214 $213 $129 $207 reversed $215 $-1 #
edge $-1 $301 -19.766069435850234 $302 19.766069435850234 $206 $303 forward 7 unknown #
coedge $-1 $131 $130 $304 $305 forward $51 $-1 #
coedge $-1 $306 $307 $130 $210 reversed $291 $-1 #
edge $-1 $217 -41.389202551347395 $308 41.389202551347395 $209 $309 forward 7 unknown #
coedge $-1 $203 $310 $131 $212 reversed $127 $-1 #
edge $-1 $311 -41.389202551347395 $216 41.389202551347395 $211 $312 forward 7 unknown #
coedge $-1 $206 $132 $310 $313 forward $215 $-1 #
coedge $-1 $132 $206 $306 $314 reversed $215 $-1 #
loop $-1 $-1 $213 $290 #
vertex $-1 $133 $315 #
vertex $-1 $133 $316 #
straight-curve $-1 41.389202551347395 0 4.7818722807986207 0 1 0 I I #
face $-1 $317 $318 $31 $-1 $319 reversed single #
loop $-1 $-1 $320 $134 #
plane-surface $-1 0 -19.766069435850234 0 0 1 0 0 0 1 forward_v I I I I #
coedge $-1 $321 $137 $320 $322 reversed $85 $-1 #
coedge $-1 $137 $321 $323 $324 reversed $85 $-1 #
coedge $-1 $232 $231 $137 $225 reversed $135 $-1 #
edge $-1 $325 -19.766069435850234 $326 19.766069435850234 $224 $327 forward 7 unknown #
coedge $-1 $139 $138 $328 $329 reversed $54 $-1 #
coedge $-1 $330 $331 $138 $228 forward $332 $-1 #
edge $-1 $333 -21.932690571770404 $234 -16.980333387383578 $227 $334 forward 7 unknown #
coedge $-1 $335 $336 $139 $230 forward $220 $-1 #
edge $-1 $233 16.980333387383578 $337 21.932690571770404 $229 $338 forward 7 unknown #
coedge $-1 $224 $140 $336 $339 reversed $135 $-1 #
coedge $-1 $140 $224 $330 $340 reversed $135 $-1 #
vertex $-1 $230 $341 #
vertex $-1 $228 $342 #
straight-curve $-1 -36.436845366960569 0 4.2818722807986207 0 1 0 I I #
face $-1 $-1 $343 $32 $-1 $344 reversed single #
loop $-1 $-1 $242 $142 #
plane-surface $-1 0 0 4.7818722807986207 0 0 1 1 0 0 forward_v I I I I #
coedge $-1 $345 $346 $146 $245 reversed $143 $-1 #
coedge $-1 $241 $145 $147 $246 reversed $89 $-1 #
coedge $-1 $145 $240 $347 $348 reversed $89 $-1 #
coedge $-1 $349 $148 $145 $243 forward $237 $-1 #
edge $-1 $249 -10.051464476260154 $350 -6.1592009064893141 $242 $351 forward 7 unknown #
coedge $-1 $147 $146 $352 $353 reversed $57 $-1 #
edge $-1 $248 33.929005327073391 $354 39.532138871700482 $239 $355 forward 7 unknown #
edge $-1 $356 -39.532138871700482 $249 -33.929005327073391 $240 $357 forward 7 unknown #
coedge $-1 $148 $349 $345 $358 forward $237 $-1 #
vertex $-1 $358 $359 #
vertex $-1 $149 $360 #
straight-curve $-1 -14.967041029786945 15.873805866079396 4.7818722807986234 1 0 0 I I #
coedge $-1 $251 $251 $-1 $361 reversed $152 $-1 #
edge $-1 $362 0 $362 6.2831853071796004 $153 $363 forward 7 unknown #
vertex $-1 $156 $364 #
ellipse-curve $-1 -33.835740044005902 17.819937650964821 2.7665937750853153 0 0.71933980857756763 0.69465836192734942 0.5 0 0 1 I I #
coedge $-1 $255 $255 $-1 $365 reversed $159 $-1 #
edge $-1 $366 0 $366 6.2831853071796004 $160 $367 forward 7 unknown #
vertex $-1 $163 $368 #
ellipse-curve $-1 -29.934082059573889 17.819937650964821 2.7665937750853153 0 0.71933980857756763 0.69465836192734942 0.5 0 0 1 I I #
coedge $-1 $259 $259 $-1 $369 reversed $166 $-1 #
edge $-1 $370 0 $370 6.2831853071796004 $167 $371 forward 7 unknown #
vertex $-1 $170 $372 #
ellipse-curve $-1 -26.032424075141879 17.819937650964821 2.7665937750853153 0 0.71933980857756763 0.69465836192734942 0.5 0 0 1 I I #
face $-1 $-1 $373 $36 $-1 $374 forward single #
loop $-1 $-1 $177 $171 #
plane-surface $-1 0 19.766069435850234 0 0 -1 0 0 0 -1 forward_v I I I I #
coedge $-1 $375 $376 $377 $378 reversed $172 $-1 #
coedge $-1 $379 $174 $176 $273 forward $108 $-1 #
coedge $-1 $174 $379 $375 $380 forward $108 $-1 #
coedge $-1 $377 $177 $174 $270 forward $264 $-1 #
edge $-1 $276 -10.99223425717673 $381 2.0132923575966375 $269 $382 forward 7 unknown #
coedge $-1 $383 $384 $175 $272 forward $373 $-1 #
edge $-1 $385 -10.051464476260154 $275 -6.1592009064893141 $271 $386 forward 7 unknown #
edge $-1 $276 -39.532138871700482 $385 -33.929005327073391 $176 $387 forward 7 unknown #
coedge $-1 $177 $377 $383 $388 reversed $264 $-1 #
vertex $-1 $388 $389 #
vertex $-1 $178 $390 #
straight-curve $-1 15.481705206966776 19.766069435850234 43.345533884799686 0 0 -1 I I #
coedge $-1 $278 $278 $-1 $391 reversed $181 $-1 #
edge $-1 $392 0 $392 6.2831853071796004 $182 $393 forward 7 unknown #
vertex $-1 $185 $394 #
ellipse-curve $-1 5.0772839151480795 17.819937650964821 2.7665937750853153 0 0.71933980857756763 0.69465836192734942 0.5 0 0 1 I I #
coedge $-1 $282 $282 $-1 $395 reversed $188 $-1 #
edge $-1 $396 0 $396 6.2831853071796004 $189 $397 forward 7 unknown #
vertex $-1 $192 $398 #
ellipse-curve $-1 8.9789418995800929 17.819937650964821 2.7665937750853153 0 0.71933980857756763 0.69465836192734942 0.5 0 0 1 I I #
coedge $-1 $286 $286 $-1 $399 reversed $195 $-1 #
edge $-1 $400 0 $400 6.2831853071796004 $196 $401 forward 7 unknown #
vertex $-1 $199 $402 #
ellipse-curve $-1 12.880599884012099 17.819937650964821 2.7665937750853153 0 0.71933980857756763 0.69465836192734942 0.5 0 0 1 I I #
face $-1 $-1 $215 $30 $-1 $403 reversed single #
loop $-1 $-1 $306 $200 #
plane-surface $-1 0 19.766069435850234 0 0 -1 0 0 0 -1 forward_v I I I I #
coedge $-1 $404 $304 $307 $405 forward $201 $-1 #
coedge $-1 $310 $203 $204 $298 reversed $127 $-1 #
coedge $-1 $304 $404 $203 $296 reversed $201 $-1 #
edge $-1 $311 -4.7818722807986207 $406 4.7818722807986207 $295 $407 forward 7 unknown #
coedge $-1 $205 $204 $404 $408 forward $81 $-1 #
edge $-1 $302 -41.389202551347395 $406 41.389202551347395 $294 $409 forward 7 unknown #
coedge $-1 $307 $306 $205 $300 reversed $291 $-1 #
edge $-1 $410 -41.389202551347395 $301 41.389202551347395 $299 $411 forward 7 unknown #
vertex $-1 $207 $412 #
vertex $-1 $313 $413 #
straight-curve $-1 41.389202551347395 0 -4.7818722807986207 0 -1 0 I I #
coedge $-1 $293 $295 $208 $305 reversed $201 $-1 #
edge $-1 $308 -19.766069435850234 $311 19.766069435850234 $304 $414 forward 7 unknown #
coedge $-1 $299 $209 $214 $314 forward $291 $-1 #
coedge $-1 $209 $299 $293 $405 reversed $291 $-1 #
vertex $-1 $210 $415 #
straight-curve $-1 0 19.766069435850234 4.7818722807986207 -1 0 0 I I #
coedge $-1 $211 $294 $213 $313 reversed $127 $-1 #
vertex $-1 $305 $416 #
straight-curve $-1 0 -19.766069435850234 4.7818722807986207 1 0 0 I I #
edge $-1 $216 -4.7818722807986207 $302 4.7818722807986207 $213 $417 forward 7 unknown #
edge $-1 $217 -4.7818722807986207 $301 4.7818722807986207 $214 $418 forward 7 unknown #
point $-1 41.389202551347395 -19.766069435850234 4.7818722807986207 #
point $-1 41.389202551347395 19.766069435850234 4.7818722807986207 #
face $-1 $-1 $332 $31 $-1 $419 reversed single #
loop $-1 $-1 $420 $219 #
plane-surface $-1 -41.389202551347395 0 0 1 0 0 0 0 -1 forward_v I I I I #
coedge $-1 $336 $335 $222 $322 forward $220 $-1 #
coedge $-1 $223 $222 $420 $421 reversed $85 $-1 #
edge $-1 $422 -21.932690571770404 $326 -16.980333387383578 $320 $423 forward 7 unknown #
coedge $-1 $331 $330 $223 $324 forward $332 $-1 #
edge $-1 $325 16.980333387383578 $424 21.932690571770404 $323 $425 forward 7 unknown #
vertex $-1 $324 $426 #
vertex $-1 $322 $427 #
straight-curve $-1 -36.436845366960569 0 1.2818722807986207 0 -1 0 I I #
coedge $-1 $428 $429 $226 $329 forward $318 $-1 #
edge $-1 $337 -19.766069435850234 $333 19.766069435850234 $328 $430 forward 7 unknown #
coedge $-1 $323 $227 $232 $340 forward $332 $-1 #
coedge $-1 $227 $323 $428 $431 reversed $332 $-1 #
loop $-1 $-1 $323 $317 #
vertex $-1 $431 $432 #
straight-curve $-1 -19.456511979576991 19.766069435850234 4.2818722807986207 1 0 0 I I #
coedge $-1 $320 $229 $429 $433 forward $220 $-1 #
coedge $-1 $229 $320 $231 $339 forward $220 $-1 #
vertex $-1 $433 $434 #
straight-curve $-1 -19.456511979576991 -19.766069435850234 4.2818722807986207 -1 0 0 I I #
edge $-1 $326 -0.10906385960068965 $233 2.8909361403993104 $336 $435 forward 7 unknown #
edge $-1 $234 -2.8909361403993104 $325 0.10906385960068965 $330 $436 forward 7 unknown #
point $-1 -36.436845366960569 -19.766069435850234 4.2818722807986207 #
point $-1 -36.436845366960569 19.766069435850234 4.2818722807986207 #
loop $-1 $-1 $437 $236 #
plane-surface $-1 0 19.766069435850234 0 0 -1 0 0 0 -1 forward_v I I I I #
coedge $-1 $346 $239 $247 $358 reversed $143 $-1 #
coedge $-1 $239 $345 $437 $438 reversed $143 $-1 #
coedge $-1 $352 $439 $241 $348 forward $343 $-1 #
edge $-1 $350 38.563661604001062 $356 42.594218615427664 $347 $440 forward 7 unknown #
coedge $-1 $247 $242 $439 $441 forward $237 $-1 #
vertex $-1 $441 $442 #
straight-curve $-1 -23.431318752187206 25.925270342339548 4.7818722807986234 0 1 0 I I #
coedge $-1 $437 $347 $244 $353 forward $343 $-1 #
edge $-1 $356 8.4642777224002614 $354 21.469804337173631 $352 $443 forward 7 unknown #
vertex $-1 $438 $444 #
straight-curve $-1 -36.436845366960576 -7.6952613962497196 29.188356478002866 0 0.69465836192734942 -0.71933980857756763 I I #
vertex $-1 $353 $445 #
straight-curve $-1 -23.431318752187206 -7.6952613962497196 29.188356478002866 0 -0.69465836192734942 0.71933980857756763 I I #
edge $-1 $446 6.1592009064893141 $248 10.051464476260154 $247 $447 forward 7 unknown #
point $-1 -36.436845366960576 15.873805866079394 4.7818722807986198 #
point $-1 -23.431318752187206 15.873805866079394 4.7818722807986198 #
edge $-1 $448 1 $448 0 $251 $-1 forward 7 unknown #
vertex $-1 $252 $449 #
ellipse-curve $-1 -33.835740044005902 16.612293287127681 1.6003851966489915 0 0.71933980857756763 0.69465836192734942 0.5 0 0 1 I I #
point $-1 -33.335740044005902 17.819937650964832 2.76659377508533 #
edge $-1 $450 1 $450 0 $255 $-1 forward 7 unknown #
vertex $-1 $256 $451 #
ellipse-curve $-1 -29.934082059573889 16.612293287127681 1.6003851966489915 0 0.71933980857756763 0.69465836192734942 0.5 0 0 1 I I #
point $-1 -29.434082059573889 17.819937650964832 2.76659377508533 #
edge $-1 $452 1 $452 0 $259 $-1 forward 7 unknown #
vertex $-1 $260 $453 #
ellipse-curve $-1 -26.032424075141879 16.612293287127681 1.6003851966489915 0 0.71933980857756763 0.69465836192734942 0.5 0 0 1 I I #
point $-1 -25.532424075141879 17.819937650964832 2.76659377508533 #
loop $-1 $-1 $271 $263 #
plane-surface $-1 0 0 4.7818722807986207 0 0 1 1 0 0 forward_v I I I I #
coedge $-1 $376 $266 $268 $380 reversed $172 $-1 #
coedge $-1 $266 $375 $454 $455 reversed $172 $-1 #
coedge $-1 $274 $269 $266 $378 forward $264 $-1 #
edge $-1 $381 -42.594218615427664 $456 -38.563661604001062 $377 $457 forward 7 unknown #
coedge $-1 $268 $267 $384 $458 reversed $108 $-1 #
edge $-1 $459 33.929005327073391 $381 39.532138871700482 $375 $460 forward 7 unknown #
vertex $-1 $270 $461 #
straight-curve $-1 4.4894709497900465 19.766069435850234 0.75131526937202153 -1 0 0 I I #
coedge $-1 $454 $271 $274 $388 forward $373 $-1 #
coedge $-1 $271 $454 $379 $458 forward $373 $-1 #
vertex $-1 $272 $462 #
straight-curve $-1 15.481705206966776 25.925270342339548 4.7818722807986234 0 1 0 I I #
straight-curve $-1 15.481705206966776 -7.6952613962497196 29.188356478002866 0 -0.69465836192734942 0.71933980857756763 I I #
edge $-1 $275 -15.481705206966776 $456 -2.476178592193409 $274 $463 forward 7 unknown #
point $-1 15.481705206966776 19.766069435850234 4.7818722807986207 #
point $-1 15.481705206966776 19.766069435850234 0.75131526937202153 #
edge $-1 $464 1 $464 0 $278 $-1 forward 7 unknown #
vertex $-1 $279 $465 #
ellipse-curve $-1 5.0772839151480795 16.612293287127681 1.6003851966489915 0 0.71933980857756763 0.69465836192734942 0.5 0 0 1 I I #
point $-1 5.5772839151480795 17.819937650964832 2.76659377508533 #
edge $-1 $466 1 $466 0 $282 $-1 forward 7 unknown #
vertex $-1 $283 $467 #
ellipse-curve $-1 8.9789418995800929 16.612293287127681 1.6003851966489915 0 0.71933980857756763 0.69465836192734942 0.5 0 0 1 I I #
point $-1 9.4789418995800929 17.819937650964832 2.76659377508533 #
edge $-1 $468 1 $468 0 $286 $-1 forward 7 unknown #
vertex $-1 $287 $469 #
ellipse-curve $-1 12.880599884012099 16.612293287127681 1.6003851966489915 0 0.71933980857756763 0.69465836192734942 0.5 0 0 1 I I #
point $-1 13.380599884012099 17.819937650964832 2.76659377508533 #
plane-surface $-1 41.389202551347395 0 0 -1 0 0 0 0 1 forward_v I I I I #
coedge $-1 $295 $293 $297 $408 reversed $201 $-1 #
edge $-1 $308 -4.7818722807986207 $410 4.7818722807986207 $307 $470 forward 7 unknown #
vertex $-1 $408 $471 #
straight-curve $-1 -41.389202551347395 -19.766069435850234 0 0 0 -1 I I #
edge $-1 $406 -19.766069435850234 $410 19.766069435850234 $404 $472 forward 7 unknown #
straight-curve $-1 0 -19.766069435850234 -4.7818722807986207 -1 0 0 I I #
vertex $-1 $300 $473 #
straight-curve $-1 0 19.766069435850234 -4.7818722807986207 1 0 0 I I #
point $-1 41.389202551347395 19.766069435850234 -4.7818722807986207 #
point $-1 41.389202551347395 -19.766069435850234 -4.7818722807986207 #
straight-curve $-1 -41.389202551347395 0 4.7818722807986207 0 -1 0 I I #
point $-1 -41.389202551347395 19.766069435850234 4.7818722807986207 #
point $-1 -41.389202551347395 -19.766069435850234 4.7818722807986207 #
straight-curve $-1 41.389202551347395 -19.766069435850234 0 0 0 -1 I I #
straight-curve $-1 41.389202551347395 19.766069435850234 0 0 0 -1 I I #
plane-surface $-1 0 19.766069435850234 0 0 -1 0 0 0 -1 forward_v I I I I #
coedge $-1 $429 $428 $321 $421 forward $318 $-1 #
edge $-1 $424 -19.766069435850234 $422 19.766069435850234 $420 $474 forward 7 unknown #
vertex $-1 $322 $475 #
straight-curve $-1 -19.456511979576991 -19.766069435850234 1.2818722807986207 1 0 0 I I #
vertex $-1 $324 $476 #
straight-curve $-1 -19.456511979576991 19.766069435850234 1.2818722807986207 -1 0 0 I I #
point $-1 -36.436845366960569 19.766069435850234 1.2818722807986207 #
point $-1 -36.436845366960569 -19.766069435850234 1.2818722807986207 #
coedge $-1 $420 $328 $331 $431 forward $318 $-1 #
coedge $-1 $328 $420 $335 $433 reversed $318 $-1 #
straight-curve $-1 -41.389202551347395 0 4.2818722807986207 0 1 0 I I #
edge $-1 $333 -4.2818722807986207 $424 -1.2818722807986207 $331 $477 forward 7 unknown #
point $-1 -41.389202551347395 19.766069435850234 4.2818722807986207 #
edge $-1 $337 -4.2818722807986207 $422 -1.2818722807986207 $429 $478 forward 7 unknown #
point $-1 -41.389202551347395 -19.766069435850234 4.2818722807986207 #
straight-curve $-1 -36.436845366960569 -19.766069435850234 1.3909361403993104 0 0 1 I I #
straight-curve $-1 -36.436845366960569 19.766069435850234 1.3909361403993104 0 0 -1 I I #
coedge $-1 $439 $352 $346 $438 forward $343 $-1 #
edge $-1 $354 -42.594218615427664 $446 -38.563661604001062 $437 $479 forward 7 unknown #
coedge $-1 $347 $437 $349 $441 reversed $343 $-1 #
straight-curve $-1 -23.431318752187206 19.766069435850234 43.345533884799686 0 0 -1 I I #
edge $-1 $350 23.431318752187206 $446 36.436845366960576 $439 $480 forward 7 unknown #
point $-1 -23.431318752187206 19.766069435850234 4.7818722807986207 #
straight-curve $-1 -14.967041029786945 19.766069435850234 0.75131526937202153 -1 0 0 I I #
point $-1 -36.436845366960576 19.766069435850234 0.75131526937202153 #
point $-1 -23.431318752187206 19.766069435850234 0.75131526937202153 #
vertex $-1 $358 $481 #
straight-curve $-1 -36.436845366960576 25.925270342339548 4.7818722807986234 0 -1 0 I I #
vertex $-1 $361 $482 #
point $-1 -33.335740044005902 16.612293287127681 1.6003851966489915 #
vertex $-1 $365 $483 #
point $-1 -29.434082059573889 16.612293287127681 1.6003851966489915 #
vertex $-1 $369 $484 #
point $-1 -25.532424075141879 16.612293287127681 1.6003851966489915 #
coedge $-1 $384 $383 $376 $455 forward $373 $-1 #
edge $-1 $456 6.1592009064893141 $459 10.051464476260154 $454 $485 forward 7 unknown #
vertex $-1 $455 $486 #
straight-curve $-1 2.476178592193409 19.766069435850234 43.345533884799686 0 0 1 I I #
edge $-1 $459 -2.0132923575966375 $385 10.99223425717673 $384 $487 forward 7 unknown #
vertex $-1 $458 $488 #
straight-curve $-1 2.476178592193409 -7.6952613962497196 29.188356478002866 0 0.69465836192734942 -0.71933980857756763 I I #
point $-1 2.476178592193409 19.766069435850234 0.75131526937202153 #
point $-1 15.481705206966776 15.873805866079394 4.7818722807986198 #
straight-curve $-1 0 19.766069435850234 4.7818722807986207 -1 0 0 I I #
vertex $-1 $391 $489 #
point $-1 5.5772839151480795 16.612293287127681 1.6003851966489915 #
vertex $-1 $395 $490 #
point $-1 9.4789418995800929 16.612293287127681 1.6003851966489915 #
vertex $-1 $399 $491 #
point $-1 13.380599884012099 16.612293287127681 1.6003851966489915 #
straight-curve $-1 -41.389202551347395 19.766069435850234 0 0 0 -1 I I #
point $-1 -41.389202551347395 -19.766069435850234 -4.7818722807986207 #
straight-curve $-1 -41.389202551347395 0 -4.7818722807986207 0 1 0 I I #
point $-1 -41.389202551347395 19.766069435850234 -4.7818722807986207 #
straight-curve $-1 -41.389202551347395 0 1.2818722807986207 0 -1 0 I I #
point $-1 -41.389202551347395 -19.766069435850234 1.2818722807986207 #
point $-1 -41.389202551347395 19.766069435850234 1.2818722807986207 #
straight-curve $-1 -41.389202551347395 19.766069435850234 0 0 0 -1 I I #
straight-curve $-1 -41.389202551347395 -19.766069435850234 0 0 0 -1 I I #
straight-curve $-1 -36.436845366960576 19.766069435850234 43.345533884799686 0 0 1 I I #
straight-curve $-1 0 19.766069435850234 4.7818722807986207 -1 0 0 I I #
point $-1 -36.436845366960576 19.766069435850234 4.7818722807986207 #
point $-1 -33.835740044005902 16.252623382838895 1.253056015685317 #
point $-1 -29.934082059573889 16.252623382838895 1.253056015685317 #
point $-1 -26.032424075141879 16.252623382838895 1.253056015685317 #
straight-curve $-1 2.476178592193409 25.925270342339548 4.7818722807986234 0 -1 0 I I #
point $-1 2.476178592193409 19.766069435850234 4.7818722807986207 #
straight-curve $-1 4.4894709497900465 15.873805866079396 4.7818722807986234 1 0 0 I I #
point $-1 2.476178592193409 15.873805866079394 4.7818722807986198 #
point $-1 5.0772839151480795 16.252623382838895 1.253056015685317 #
point $-1 8.9789418995800929 16.252623382838895 1.253056015685317 #
point $-1 12.880599884012099 16.252623382838895 1.253056015685317 #
End-of-ACIS-data 