500 0 16 0           
7 Unknown 11 ACIS 5.0 NT 24 Fri Mar 26 20:04:18 1999 
-1 9.9999999999999995e-007 1e-010 
body $-1 $16 $-1 $17 #
body $-1 $18 $-1 $19 #
body $-1 $20 $-1 $21 #
body $-1 $22 $-1 $23 #
body $-1 $24 $-1 $25 #
body $-1 $26 $-1 $27 #
body $-1 $28 $-1 $29 #
body $-1 $30 $-1 $31 #
body $-1 $32 $-1 $33 #
body $-1 $34 $-1 $35 #
body $-1 $36 $-1 $37 #
body $-1 $38 $-1 $39 #
body $-1 $40 $-1 $41 #
body $-1 $42 $-1 $43 #
body $-1 $44 $-1 $45 #
body $-1 $46 $-1 $47 #
lump $-1 $-1 $48 $0 #
transform $-1 1 0 0 0 1 0 0 0 1 74.46272164067507 40.968472723718683 13.437814090173385 1 rotate no_reflect no_shear #
lump $-1 $-1 $49 $1 #
transform $-1 1 0 0 0 1 0 0 0 1 74.46272164067507 40.968472723718683 13.437814090173385 1 rotate no_reflect no_shear #
lump $-1 $-1 $50 $2 #
transform $-1 1 0 0 0 1 0 0 0 1 74.46272164067507 40.968472723718683 13.437814090173385 1 rotate no_reflect no_shear #
lump $-1 $-1 $51 $3 #
transform $-1 1 0 0 0 1 0 0 0 1 74.46272164067507 40.968472723718683 13.437814090173385 1 rotate no_reflect no_shear #
lump $-1 $-1 $52 $4 #
transform $-1 1 0 0 0 1 0 0 0 1 74.46272164067507 40.968472723718683 13.437814090173385 1 rotate no_reflect no_shear #
lump $-1 $-1 $53 $5 #
transform $-1 1 0 0 0 1 0 0 0 1 74.46272164067507 40.968472723718683 13.437814090173385 1 rotate no_reflect no_shear #
lump $-1 $-1 $54 $6 #
transform $-1 1 0 0 0 1 0 0 0 1 74.46272164067507 40.968472723718683 13.437814090173385 1 rotate no_reflect no_shear #
lump $-1 $-1 $55 $7 #
transform $-1 1 0 0 0 1 0 0 0 1 74.46272164067507 40.968472723718683 13.437814090173385 1 rotate no_reflect no_shear #
lump $-1 $-1 $56 $8 #
transform $-1 1 0 0 0 1 0 0 0 1 74.46272164067507 40.968472723718683 13.437814090173385 1 rotate no_reflect no_shear #
lump $-1 $-1 $57 $9 #
transform $-1 1 0 0 0 1 0 0 0 1 74.46272164067507 40.968472723718683 13.437814090173385 1 rotate no_reflect no_shear #
lump $-1 $-1 $58 $10 #
transform $-1 1 0 0 0 1 0 0 0 1 74.46272164067507 40.968472723718683 13.437814090173385 1 rotate no_reflect no_shear #
lump $-1 $-1 $59 $11 #
transform $-1 1 0 0 0 1 0 0 0 1 74.46272164067507 40.968472723718683 13.437814090173385 1 rotate no_reflect no_shear #
lump $-1 $-1 $60 $12 #
transform $-1 1 0 0 0 1 0 0 0 1 74.46272164067507 40.968472723718683 13.437814090173385 1 rotate no_reflect no_shear #
lump $-1 $-1 $61 $13 #
transform $-1 1 0 0 0 1 0 0 0 1 74.46272164067507 40.968472723718683 13.437814090173385 1 rotate no_reflect no_shear #
lump $-1 $-1 $62 $14 #
transform $-1 1 0 0 0 1 0 0 0 1 74.46272164067507 40.968472723718683 13.437814090173385 1 rotate no_reflect no_shear #
lump $-1 $-1 $63 $15 #
transform $-1 1 0 0 0 1 0 0 0 1 74.46272164067507 40.968472723718683 13.437814090173385 1 rotate no_reflect no_shear #
shell $-1 $-1 $-1 $64 $-1 $16 #
shell $-1 $-1 $-1 $65 $-1 $18 #
shell $-1 $-1 $-1 $66 $-1 $20 #
shell $-1 $-1 $-1 $67 $-1 $22 #
shell $-1 $-1 $-1 $68 $-1 $24 #
shell $-1 $-1 $-1 $69 $-1 $26 #
shell $-1 $-1 $-1 $70 $-1 $28 #
shell $-1 $-1 $-1 $71 $-1 $30 #
shell $-1 $-1 $-1 $72 $-1 $32 #
shell $-1 $-1 $-1 $73 $-1 $34 #
shell $-1 $-1 $-1 $74 $-1 $36 #
shell $-1 $-1 $-1 $75 $-1 $38 #
shell $-1 $-1 $-1 $76 $-1 $40 #
shell $-1 $-1 $-1 $77 $-1 $42 #
shell $-1 $-1 $-1 $78 $-1 $44 #
shell $-1 $-1 $-1 $79 $-1 $46 #
face $-1 $80 $81 $48 $-1 $82 forward single #
face $-1 $83 $84 $49 $-1 $85 forward single #
face $-1 $86 $87 $50 $-1 $88 reversed single #
face $-1 $89 $90 $51 $-1 $91 forward single #
face $-1 $92 $93 $52 $-1 $94 forward single #
face $-1 $95 $96 $53 $-1 $97 reversed single #
face $-1 $98 $99 $54 $-1 $100 forward single #
face $-1 $101 $102 $55 $-1 $103 forward single #
face $-1 $104 $105 $56 $-1 $106 reversed single #
face $-1 $107 $108 $57 $-1 $109 forward single #
face $-1 $110 $111 $58 $-1 $112 forward single #
face $-1 $113 $114 $59 $-1 $115 forward single #
face $-1 $116 $117 $60 $-1 $118 reversed single #
face $-1 $119 $120 $61 $-1 $121 forward single #
face $-1 $122 $123 $62 $-1 $124 forward single #
face $-1 $125 $126 $63 $-1 $127 forward single #
face $-1 $128 $129 $48 $-1 $130 reversed single #
loop $-1 $-1 $131 $64 #
plane-surface $-1 0 0 13.437814090173385 0 0 1 1 0 0 forward_v I I I I #
face $-1 $132 $133 $49 $-1 $134 reversed single #
loop $-1 $-1 $135 $65 #
plane-surface $-1 -68.364450745057226 0 -7.4545071040955744 0 0 1 1 0 0 forward_v I I I I #
face $-1 $136 $137 $50 $-1 $138 reversed single #
loop $-1 $-1 $139 $66 #
plane-surface $-1 -48.05430115625672 -119.88693509500598 128.0766130856158 1 0 0 0 0.52991927123019833 -0.84804809178421925 forward_v I I I I #
face $-1 $140 $141 $51 $-1 $142 forward single #
loop $-1 $143 $144 $67 #
cone-surface $-1 -38.584455614958173 -29.682615664154554 4.4754756441200501 0 0.52991927123019833 -0.84804809178421925 3 0 0 1 I I 0 1 3 forward I I I I #
face $-1 $145 $146 $52 $-1 $147 forward single #
loop $-1 $148 $149 $68 #
cone-surface $-1 -24.37968730301035 -29.682615664154554 4.4754756441200501 0 0.52991927123019833 -0.84804809178421925 3 0 0 1 I I 0 1 3 forward I I I I #
face $-1 $150 $151 $53 $-1 $152 reversed single #
loop $-1 $-1 $153 $69 #
plane-surface $-1 20.310149588800513 -119.88693509500598 128.0766130856158 1 0 0 0 0.52991927123019833 -0.84804809178421925 forward_v I I I I #
face $-1 $154 $155 $54 $-1 $156 forward single #
loop $-1 $157 $158 $70 #
cone-surface $-1 29.779995130099053 -29.682615664154554 4.4754756441200501 0 0.52991927123019833 -0.84804809178421925 3 0 0 1 I I 0 1 3 forward I I I I #
face $-1 $159 $160 $55 $-1 $161 forward single #
loop $-1 $162 $163 $71 #
cone-surface $-1 43.984763442046884 -29.682615664154554 4.4754756441200501 0 0.52991927123019833 -0.84804809178421925 3 0 0 1 I I 0 1 3 forward I I I I #
face $-1 $164 $165 $56 $-1 $166 reversed single #
loop $-1 $-1 $167 $72 #
plane-surface $-1 -25.634125744806937 76.833758487907517 167.33496871830479 1 0 0 0 -0.6560590369687036 -0.75470957328743171 forward_v I I I I #
face $-1 $168 $169 $57 $-1 $170 forward single #
loop $-1 $171 $172 $73 #
cone-surface $-1 -19.287646416721984 31.975933104955839 5.0741943390191562 0 -0.6560590369687036 -0.75470957328743171 3 0 0 1 I I 0 1 3 forward I I I I #
face $-1 $173 $174 $58 $-1 $175 forward single #
loop $-1 $176 $177 $74 #
cone-surface $-1 -9.7679274245945464 31.975933104955839 5.0741943390191562 0 -0.6560590369687036 -0.75470957328743171 3 0 0 1 I I 0 1 3 forward I I I I #
face $-1 $178 $179 $59 $-1 $180 forward single #
loop $-1 $181 $182 $75 #
cone-surface $-1 -0.24820843246710922 31.975933104955839 5.0741943390191562 0 -0.6560590369687036 -0.75470957328743171 3 0 0 1 I I 0 1 3 forward I I I I #
face $-1 $183 $184 $60 $-1 $185 reversed single #
loop $-1 $-1 $186 $76 #
plane-surface $-1 42.730325000250289 76.833758487907517 167.33496871830479 1 0 0 0 -0.6560590369687036 -0.75470957328743171 forward_v I I I I #
face $-1 $187 $188 $61 $-1 $189 forward single #
loop $-1 $190 $191 $77 #
cone-surface $-1 49.076804328335243 31.975933104955839 5.0741943390191562 0 -0.6560590369687036 -0.75470957328743171 3 0 0 1 I I 0 1 3 forward I I I I #
face $-1 $192 $193 $62 $-1 $194 forward single #
loop $-1 $195 $196 $78 #
cone-surface $-1 58.59652332046268 31.975933104955839 5.0741943390191562 0 -0.6560590369687036 -0.75470957328743171 3 0 0 1 I I 0 1 3 forward I I I I #
face $-1 $197 $198 $63 $-1 $199 forward single #
loop $-1 $200 $201 $79 #
cone-surface $-1 68.116242312590131 31.975933104955839 5.0741943390191562 0 -0.6560590369687036 -0.75470957328743171 3 0 0 1 I I 0 1 3 forward I I I I #
face $-1 $202 $203 $48 $-1 $204 reversed single #
loop $-1 $-1 $205 $80 #
plane-surface $-1 0 0 -13.437814090173385 0 0 1 1 0 0 forward_v I I I I #
coedge $-1 $206 $207 $208 $209 forward $81 $-1 #
face $-1 $210 $211 $49 $-1 $212 reversed single #
loop $-1 $-1 $213 $83 #
plane-surface $-1 -62.266179849439382 0 -10.44616059713448 -1 0 0 0 0 1 forward_v I I I I #
coedge $-1 $214 $215 $216 $217 forward $84 $-1 #
face $-1 $218 $219 $50 $-1 $220 reversed single #
loop $-1 $-1 $221 $86 #
plane-surface $-1 -31.482071458984258 -40.968472723718676 1.7806750927478419 0 -0.52991927123019833 0.84804809178421925 1 0 0 forward_v I I I I #
coedge $-1 $222 $223 $224 $225 reversed $87 $-1 #
face $-1 $-1 $226 $51 $-1 $227 forward single #
loop $-1 $228 $229 $89 #
cone-surface $-1 -38.584455614958173 -26.929540550199476 0.069634559103146643 0 0.52991927123019833 -0.84804809178421925 1.5 0 0 1 I I -0.70710678118654768 0.70710678118654757 1.5 forward I I I I #
loop $-1 $-1 $230 $67 #
coedge $-1 $144 $144 $231 $232 reversed $90 $-1 #
face $-1 $-1 $233 $52 $-1 $234 forward single #
loop $-1 $235 $236 $92 #
cone-surface $-1 -24.37968730301035 -26.929540550199476 0.069634559103146643 0 0.52991927123019833 -0.84804809178421925 1.5 0 0 1 I I -0.70710678118654768 0.70710678118654757 1.5 forward I I I I #
loop $-1 $-1 $237 $68 #
coedge $-1 $149 $149 $238 $239 reversed $93 $-1 #
face $-1 $240 $241 $53 $-1 $242 reversed single #
loop $-1 $-1 $243 $95 #
plane-surface $-1 36.882379286072975 -40.968472723718676 1.7806750927478419 0 -0.52991927123019833 0.84804809178421925 1 0 0 forward_v I I I I #
coedge $-1 $244 $245 $246 $247 reversed $96 $-1 #
face $-1 $-1 $248 $54 $-1 $249 forward single #
loop $-1 $250 $251 $98 #
cone-surface $-1 29.779995130099053 -26.929540550199476 0.069634559103146643 0 0.52991927123019833 -0.84804809178421925 1.5 0 0 1 I I -0.70710678118654768 0.70710678118654757 1.5 forward I I I I #
loop $-1 $-1 $252 $70 #
coedge $-1 $158 $158 $253 $254 reversed $99 $-1 #
face $-1 $-1 $255 $55 $-1 $256 forward single #
loop $-1 $257 $258 $101 #
cone-surface $-1 43.984763442046884 -26.929540550199476 0.069634559103146643 0 0.52991927123019833 -0.84804809178421925 1.5 0 0 1 I I -0.70710678118654768 0.70710678118654757 1.5 forward I I I I #
loop $-1 $-1 $259 $71 #
coedge $-1 $163 $163 $260 $261 reversed $102 $-1 #
face $-1 $262 $263 $56 $-1 $264 reversed single #
loop $-1 $-1 $265 $104 #
plane-surface $-1 -9.7679274245945464 -20.870124411392354 54.939510967795414 0 0.6560590369687036 0.75470957328743171 1 0 0 forward_v I I I I #
coedge $-1 $266 $267 $268 $269 reversed $105 $-1 #
face $-1 $-1 $270 $57 $-1 $271 forward single #
loop $-1 $272 $273 $107 #
cone-surface $-1 -19.287646416721984 29.047483540909191 1.7053985503242384 0 -0.6560590369687036 -0.75470957328743171 1.5 0 0 1 I I -0.70710678118654757 0.70710678118654757 1.5 forward I I I I #
loop $-1 $-1 $274 $73 #
coedge $-1 $172 $172 $275 $276 reversed $108 $-1 #
face $-1 $-1 $277 $58 $-1 $278 forward single #
loop $-1 $279 $280 $110 #
cone-surface $-1 -9.7679274245945464 29.047483540909191 1.7053985503242384 0 -0.6560590369687036 -0.75470957328743171 1.5 0 0 1 I I -0.70710678118654757 0.70710678118654757 1.5 forward I I I I #
loop $-1 $-1 $281 $74 #
coedge $-1 $177 $177 $282 $283 reversed $111 $-1 #
face $-1 $-1 $284 $59 $-1 $285 forward single #
loop $-1 $286 $287 $113 #
cone-surface $-1 -0.24820843246710922 29.047483540909191 1.7053985503242384 0 -0.6560590369687036 -0.75470957328743171 1.5 0 0 1 I I -0.70710678118654757 0.70710678118654757 1.5 forward I I I I #
loop $-1 $-1 $288 $75 #
coedge $-1 $182 $182 $289 $290 reversed $114 $-1 #
face $-1 $291 $292 $60 $-1 $293 forward single #
loop $-1 $-1 $294 $116 #
plane-surface $-1 58.59652332046268 -20.870124411392354 54.939510967795414 0 0.6560590369687036 0.75470957328743171 1 0 0 forward_v I I I I #
coedge $-1 $295 $296 $297 $298 reversed $117 $-1 #
face $-1 $-1 $299 $61 $-1 $300 forward single #
loop $-1 $301 $302 $119 #
cone-surface $-1 49.076804328335243 29.047483540909191 1.7053985503242384 0 -0.6560590369687036 -0.75470957328743171 1.5 0 0 1 I I -0.70710678118654757 0.70710678118654757 1.5 forward I I I I #
loop $-1 $-1 $303 $77 #
coedge $-1 $191 $191 $304 $305 reversed $120 $-1 #
face $-1 $-1 $306 $62 $-1 $307 forward single #
loop $-1 $308 $309 $122 #
cone-surface $-1 58.59652332046268 29.047483540909191 1.7053985503242384 0 -0.6560590369687036 -0.75470957328743171 1.5 0 0 1 I I -0.70710678118654757 0.70710678118654757 1.5 forward I I I I #
loop $-1 $-1 $310 $78 #
coedge $-1 $196 $196 $311 $312 reversed $123 $-1 #
face $-1 $-1 $313 $63 $-1 $314 forward single #
loop $-1 $315 $316 $125 #
cone-surface $-1 68.116242312590131 29.047483540909191 1.7053985503242384 0 -0.6560590369687036 -0.75470957328743171 1.5 0 0 1 I I -0.70710678118654757 0.70710678118654757 1.5 forward I I I I #
loop $-1 $-1 $317 $79 #
coedge $-1 $201 $201 $318 $319 reversed $126 $-1 #
face $-1 $320 $321 $48 $-1 $322 reversed single #
loop $-1 $-1 $323 $128 #
plane-surface $-1 0 -40.968472723718683 0 0 1 0 0 0 1 forward_v I I I I #
coedge $-1 $324 $325 $326 $327 forward $129 $-1 #
coedge $-1 $328 $131 $329 $330 forward $81 $-1 #
coedge $-1 $131 $328 $331 $332 forward $81 $-1 #
coedge $-1 $333 $334 $131 $209 reversed $335 $-1 #
edge $-1 $336 -40.968472723718683 $337 40.968472723718683 $208 $338 forward 7 unknown #
face $-1 $339 $340 $49 $-1 $341 reversed single #
loop $-1 $-1 $342 $132 #
plane-surface $-1 0 0 -13.437814090173385 0 0 1 1 0 0 forward_v I I I I #
coedge $-1 $343 $216 $344 $345 reversed $133 $-1 #
coedge $-1 $346 $135 $347 $348 reversed $84 $-1 #
coedge $-1 $135 $346 $349 $350 reversed $84 $-1 #
coedge $-1 $213 $351 $135 $217 reversed $133 $-1 #
edge $-1 $352 -40.968472723718683 $353 40.968472723718683 $216 $354 forward 7 unknown #
face $-1 $355 $356 $50 $-1 $357 forward single #
loop $-1 $-1 $358 $136 #
plane-surface $-1 -14.909841761711796 -119.88693509500598 128.0766130856158 -1 0 0 0 -0.52991927123019833 0.84804809178421925 forward_v I I I I #
coedge $-1 $359 $360 $361 $362 reversed $137 $-1 #
coedge $-1 $223 $139 $363 $364 reversed $87 $-1 #
coedge $-1 $139 $222 $359 $365 reversed $87 $-1 #
coedge $-1 $361 $366 $139 $225 forward $367 $-1 #
edge $-1 $368 50.600492452634519 $369 62.257631450060067 $224 $370 forward 7 unknown #
loop $-1 $-1 $231 $140 #
plane-surface $-1 -31.482071458984258 -40.968472723718676 1.7806750927478419 0 -0.52991927123019833 0.84804809178421925 1 0 0 forward_v I I I I #
loop $-1 $-1 $371 $89 #
coedge $-1 $229 $229 $230 $372 reversed $141 $-1 #
coedge $-1 $230 $230 $229 $372 forward $143 $-1 #
coedge $-1 $231 $231 $144 $232 forward $226 $-1 #
edge $-1 $373 2.817679702666986e-016 $373 6.2831853071796004 $231 $374 forward 7 unknown #
loop $-1 $-1 $238 $145 #
plane-surface $-1 -31.482071458984258 -40.968472723718676 1.7806750927478419 0 -0.52991927123019833 0.84804809178421925 1 0 0 forward_v I I I I #
loop $-1 $-1 $375 $92 #
coedge $-1 $236 $236 $237 $376 reversed $146 $-1 #
coedge $-1 $237 $237 $236 $376 forward $148 $-1 #
coedge $-1 $238 $238 $149 $239 forward $233 $-1 #
edge $-1 $377 2.817679702666986e-016 $377 6.2831853071796004 $238 $378 forward 7 unknown #
face $-1 $379 $380 $53 $-1 $381 reversed single #
loop $-1 $-1 $382 $150 #
plane-surface $-1 53.454608983345437 -119.88693509500598 128.0766130856158 -1 0 0 0 -0.52991927123019833 0.84804809178421925 forward_v I I I I #
coedge $-1 $383 $384 $385 $386 reversed $151 $-1 #
coedge $-1 $245 $153 $387 $388 reversed $96 $-1 #
coedge $-1 $153 $244 $383 $389 reversed $96 $-1 #
coedge $-1 $385 $390 $153 $247 forward $380 $-1 #
edge $-1 $391 50.600492452634519 $392 62.257631450060067 $246 $393 forward 7 unknown #
loop $-1 $-1 $253 $154 #
plane-surface $-1 36.882379286072975 -40.968472723718676 1.7806750927478419 0 -0.52991927123019833 0.84804809178421925 1 0 0 forward_v I I I I #
loop $-1 $-1 $394 $98 #
coedge $-1 $251 $251 $252 $395 reversed $155 $-1 #
coedge $-1 $252 $252 $251 $395 forward $157 $-1 #
coedge $-1 $253 $253 $158 $254 forward $248 $-1 #
edge $-1 $396 2.817679702666986e-016 $396 6.2831853071796004 $253 $397 forward 7 unknown #
loop $-1 $-1 $260 $159 #
plane-surface $-1 36.882379286072975 -40.968472723718676 1.7806750927478419 0 -0.52991927123019833 0.84804809178421925 1 0 0 forward_v I I I I #
loop $-1 $-1 $398 $101 #
coedge $-1 $258 $258 $259 $399 reversed $160 $-1 #
coedge $-1 $259 $259 $258 $399 forward $162 $-1 #
coedge $-1 $260 $260 $163 $261 forward $255 $-1 #
edge $-1 $400 2.817679702666986e-016 $400 6.2831853071796004 $260 $401 forward 7 unknown #
face $-1 $402 $403 $56 $-1 $404 reversed single #
loop $-1 $-1 $405 $164 #
plane-surface $-1 6.0982708956178442 76.833758487907517 167.33496871830479 -1 0 0 0 0.6560590369687036 0.75470957328743171 forward_v I I I I #
coedge $-1 $406 $407 $408 $409 reversed $165 $-1 #
coedge $-1 $267 $167 $410 $411 reversed $105 $-1 #
coedge $-1 $167 $266 $406 $412 reversed $105 $-1 #
coedge $-1 $408 $413 $167 $269 forward $414 $-1 #
edge $-1 $415 -2.5515934797649251 $416 11.544763740573593 $268 $417 forward 7 unknown #
loop $-1 $-1 $275 $168 #
plane-surface $-1 -9.7679274245945464 -20.870124411392354 54.939510967795414 0 0.6560590369687036 0.75470957328743171 1 0 0 forward_v I I I I #
loop $-1 $-1 $418 $107 #
coedge $-1 $273 $273 $274 $419 reversed $169 $-1 #
coedge $-1 $274 $274 $273 $419 forward $171 $-1 #
coedge $-1 $275 $275 $172 $276 forward $270 $-1 #
edge $-1 $420 2.7307032017245181e-016 $420 6.2831853071796004 $275 $421 forward 7 unknown #
loop $-1 $-1 $282 $173 #
plane-surface $-1 -9.7679274245945464 -20.870124411392354 54.939510967795414 0 0.6560590369687036 0.75470957328743171 1 0 0 forward_v I I I I #
loop $-1 $-1 $422 $110 #
coedge $-1 $280 $280 $281 $423 reversed $174 $-1 #
coedge $-1 $281 $281 $280 $423 forward $176 $-1 #
coedge $-1 $282 $282 $177 $283 forward $277 $-1 #
edge $-1 $424 2.7307032017245181e-016 $424 6.2831853071796004 $282 $425 forward 7 unknown #
loop $-1 $-1 $289 $178 #
plane-surface $-1 -9.7679274245945464 -20.870124411392354 54.939510967795414 0 0.6560590369687036 0.75470957328743171 1 0 0 forward_v I I I I #
loop $-1 $-1 $426 $113 #
coedge $-1 $287 $287 $288 $427 reversed $179 $-1 #
coedge $-1 $288 $288 $287 $427 forward $181 $-1 #
coedge $-1 $289 $289 $182 $290 forward $284 $-1 #
edge $-1 $428 2.7307032017245181e-016 $428 6.2831853071796004 $289 $429 forward 7 unknown #
face $-1 $430 $431 $60 $-1 $432 reversed single #
loop $-1 $-1 $297 $183 #
plane-surface $-1 0 0 13.437814090173385 0 0 1 1 0 0 forward_v I I I I #
coedge $-1 $433 $434 $435 $436 reversed $184 $-1 #
coedge $-1 $296 $186 $437 $438 reversed $117 $-1 #
coedge $-1 $186 $295 $433 $439 reversed $117 $-1 #
coedge $-1 $435 $440 $186 $298 forward $292 $-1 #
edge $-1 $441 -2.5515934797649251 $442 11.544763740573593 $297 $443 forward 7 unknown #
loop $-1 $-1 $304 $187 #
plane-surface $-1 58.59652332046268 -20.870124411392354 54.939510967795414 0 0.6560590369687036 0.75470957328743171 1 0 0 forward_v I I I I #
loop $-1 $-1 $444 $119 #
coedge $-1 $302 $302 $303 $445 reversed $188 $-1 #
coedge $-1 $303 $303 $302 $445 forward $190 $-1 #
coedge $-1 $304 $304 $191 $305 forward $299 $-1 #
edge $-1 $446 2.7307032017245181e-016 $446 6.2831853071796004 $304 $447 forward 7 unknown #
loop $-1 $-1 $311 $192 #
plane-surface $-1 58.59652332046268 -20.870124411392354 54.939510967795414 0 0.6560590369687036 0.75470957328743171 1 0 0 forward_v I I I I #
loop $-1 $-1 $448 $122 #
coedge $-1 $309 $309 $310 $449 reversed $193 $-1 #
coedge $-1 $310 $310 $309 $449 forward $195 $-1 #
coedge $-1 $311 $311 $196 $312 forward $306 $-1 #
edge $-1 $450 2.7307032017245181e-016 $450 6.2831853071796004 $311 $451 forward 7 unknown #
loop $-1 $-1 $318 $197 #
plane-surface $-1 58.59652332046268 -20.870124411392354 54.939510967795414 0 0.6560590369687036 0.75470957328743171 1 0 0 forward_v I I I I #
loop $-1 $-1 $452 $125 #
coedge $-1 $316 $316 $317 $453 reversed $198 $-1 #
coedge $-1 $317 $317 $316 $453 forward $200 $-1 #
coedge $-1 $318 $318 $201 $319 forward $313 $-1 #
edge $-1 $454 2.7307032017245181e-016 $454 6.2831853071796004 $318 $455 forward 7 unknown #
face $-1 $456 $457 $48 $-1 $458 reversed single #
loop $-1 $-1 $459 $202 #
plane-surface $-1 -74.46272164067507 0 0 1 0 0 0 0 -1 forward_v I I I I #
coedge $-1 $460 $331 $461 $462 forward $203 $-1 #
coedge $-1 $463 $205 $460 $464 forward $129 $-1 #
coedge $-1 $205 $463 $465 $466 forward $129 $-1 #
coedge $-1 $334 $333 $205 $327 reversed $335 $-1 #
edge $-1 $467 -40.968472723718683 $468 40.968472723718683 $326 $469 forward 7 unknown #
coedge $-1 $207 $206 $470 $471 forward $81 $-1 #
coedge $-1 $472 $473 $206 $330 reversed $457 $-1 #
edge $-1 $337 -74.46272164067507 $474 74.46272164067507 $329 $475 forward 7 unknown #
coedge $-1 $323 $476 $207 $332 reversed $203 $-1 #
edge $-1 $477 -74.46272164067507 $336 74.46272164067507 $331 $478 forward 7 unknown #
coedge $-1 $326 $208 $476 $479 forward $335 $-1 #
coedge $-1 $208 $326 $472 $480 reversed $335 $-1 #
loop $-1 $-1 $333 $456 #
vertex $-1 $209 $481 #
vertex $-1 $209 $482 #
straight-curve $-1 74.46272164067507 0 13.437814090173385 0 1 0 I I #
face $-1 $483 $484 $49 $-1 $485 reversed single #
loop $-1 $-1 $344 $210 #
plane-surface $-1 0 -40.968472723718683 0 0 1 0 0 0 1 forward_v I I I I #
coedge $-1 $486 $487 $343 $488 forward $211 $-1 #
coedge $-1 $351 $213 $342 $488 reversed $133 $-1 #
coedge $-1 $349 $489 $213 $345 forward $340 $-1 #
edge $-1 $490 -8.2147337916061449 $352 -2.2314268055283346 $344 $491 forward 7 unknown #
coedge $-1 $215 $214 $492 $493 reversed $84 $-1 #
coedge $-1 $494 $495 $214 $348 forward $496 $-1 #
edge $-1 $497 -40.280496268146457 $353 -28.083954476910769 $347 $498 forward 7 unknown #
coedge $-1 $499 $344 $215 $350 forward $340 $-1 #
edge $-1 $352 28.083954476910769 $500 40.280496268146457 $349 $501 forward 7 unknown #
coedge $-1 $216 $343 $494 $502 reversed $133 $-1 #
vertex $-1 $350 $503 #
vertex $-1 $348 $504 #
straight-curve $-1 -62.266179849439382 0 -7.4545071040955744 0 1 0 I I #
face $-1 $-1 $367 $50 $-1 $505 reversed single #
loop $-1 $-1 $506 $218 #
plane-surface $-1 0 0 13.437814090173385 0 0 1 1 0 0 forward_v I I I I #
coedge $-1 $507 $508 $509 $510 reversed $219 $-1 #
coedge $-1 $511 $221 $223 $365 forward $137 $-1 #
coedge $-1 $221 $511 $507 $512 forward $137 $-1 #
coedge $-1 $509 $224 $221 $362 forward $367 $-1 #
edge $-1 $369 -32.313265426764588 $513 0.83119396778033305 $361 $514 forward 7 unknown #
coedge $-1 $515 $516 $222 $364 forward $356 $-1 #
edge $-1 $517 -37.630316528693051 $368 -18.974994823784307 $363 $518 forward 7 unknown #
edge $-1 $369 -8.3790584163743152e-015 $517 21.99795257561345 $223 $519 forward 7 unknown #
coedge $-1 $224 $509 $515 $520 reversed $367 $-1 #
loop $-1 $-1 $509 $355 #
vertex $-1 $520 $521 #
vertex $-1 $225 $522 #
straight-curve $-1 -48.05430115625672 -40.968472723718683 64.038306542807902 0 0 -1 I I #
coedge $-1 $371 $371 $-1 $523 reversed $228 $-1 #
edge $-1 $524 0 $524 6.2831853071796004 $229 $525 forward 7 unknown #
vertex $-1 $232 $526 #
ellipse-curve $-1 -38.584455614958173 -31.640811871264319 7.6092445914606062 0 -0.52991927123019833 0.84804809178421925 3 0 0 1 I I #
coedge $-1 $375 $375 $-1 $527 reversed $235 $-1 #
edge $-1 $528 0 $528 6.2831853071796004 $236 $529 forward 7 unknown #
vertex $-1 $239 $530 #
ellipse-curve $-1 -24.37968730301035 -31.640811871264319 7.6092445914606062 0 -0.52991927123019833 0.84804809178421925 3 0 0 1 I I #
face $-1 $-1 $531 $53 $-1 $532 forward single #
loop $-1 $-1 $246 $240 #
plane-surface $-1 0 -40.968472723718683 0 0 1 0 0 0 1 forward_v I I I I #
coedge $-1 $533 $534 $535 $536 reversed $241 $-1 #
coedge $-1 $537 $243 $245 $389 forward $151 $-1 #
coedge $-1 $243 $537 $533 $538 forward $151 $-1 #
coedge $-1 $535 $246 $243 $386 forward $380 $-1 #
edge $-1 $392 1.8689599457640256 $539 35.01341934030895 $385 $540 forward 7 unknown #
coedge $-1 $541 $542 $244 $388 forward $531 $-1 #
edge $-1 $543 -37.630316528693051 $391 -18.974994823784307 $387 $544 forward 7 unknown #
edge $-1 $392 -8.3790584163743152e-015 $543 21.99795257561345 $245 $545 forward 7 unknown #
coedge $-1 $246 $535 $541 $546 reversed $380 $-1 #
vertex $-1 $546 $547 #
vertex $-1 $247 $548 #
straight-curve $-1 20.310149588800513 -40.968472723718683 64.038306542807902 0 0 -1 I I #
coedge $-1 $394 $394 $-1 $549 reversed $250 $-1 #
edge $-1 $550 0 $550 6.2831853071796004 $251 $551 forward 7 unknown #
vertex $-1 $254 $552 #
ellipse-curve $-1 29.779995130099053 -31.640811871264319 7.6092445914606062 0 -0.52991927123019833 0.84804809178421925 3 0 0 1 I I #
coedge $-1 $398 $398 $-1 $553 reversed $257 $-1 #
edge $-1 $554 0 $554 6.2831853071796004 $258 $555 forward 7 unknown #
vertex $-1 $261 $556 #
ellipse-curve $-1 43.984763442046884 -31.640811871264319 7.6092445914606062 0 -0.52991927123019833 0.84804809178421925 3 0 0 1 I I #
face $-1 $-1 $414 $56 $-1 $557 forward single #
loop $-1 $-1 $558 $262 #
plane-surface $-1 0 40.968472723718683 0 0 -1 0 0 0 -1 forward_v I I I I #
coedge $-1 $559 $560 $561 $562 reversed $263 $-1 #
coedge $-1 $563 $265 $267 $412 forward $165 $-1 #
coedge $-1 $265 $563 $559 $564 forward $165 $-1 #
coedge $-1 $561 $268 $265 $409 forward $414 $-1 #
edge $-1 $416 -20.750162032509664 $565 10.982234607915117 $408 $566 forward 7 unknown #
coedge $-1 $567 $568 $266 $411 forward $403 $-1 #
edge $-1 $569 -82.483446913759963 $415 -70.229670268979007 $410 $570 forward 7 unknown #
edge $-1 $416 63.259088799963919 $569 81.936945447437381 $267 $571 forward 7 unknown #
coedge $-1 $268 $561 $567 $572 forward $414 $-1 #
loop $-1 $-1 $561 $402 #
vertex $-1 $411 $573 #
vertex $-1 $269 $574 #
straight-curve $-1 -25.634125744806937 38.416879243953758 13.43781409017339 0 -1 0 I I #
coedge $-1 $418 $418 $-1 $575 reversed $272 $-1 #
edge $-1 $576 0 $576 6.2831853071796004 $273 $577 forward 7 unknown #
vertex $-1 $276 $578 #
ellipse-curve $-1 -19.287646416721984 33.920294113549417 7.3109257677829103 0 0.6560590369687036 0.75470957328743171 3 0 0 1 I I #
coedge $-1 $422 $422 $-1 $579 reversed $279 $-1 #
edge $-1 $580 0 $580 6.2831853071796004 $280 $581 forward 7 unknown #
vertex $-1 $283 $582 #
ellipse-curve $-1 -9.7679274245945464 33.920294113549417 7.3109257677829103 0 0.6560590369687036 0.75470957328743171 3 0 0 1 I I #
coedge $-1 $426 $426 $-1 $583 reversed $286 $-1 #
edge $-1 $584 0 $584 6.2831853071796004 $287 $585 forward 7 unknown #
vertex $-1 $290 $586 #
ellipse-curve $-1 -0.24820843246710922 33.920294113549417 7.3109257677829103 0 0.6560590369687036 0.75470957328743171 3 0 0 1 I I #
face $-1 $-1 $587 $60 $-1 $588 reversed single #
loop $-1 $-1 $589 $291 #
plane-surface $-1 74.46272164067507 0 0 -1 0 0 0 0 1 forward_v I I I I #
coedge $-1 $590 $294 $296 $439 forward $184 $-1 #
coedge $-1 $294 $590 $589 $591 reversed $184 $-1 #
coedge $-1 $592 $297 $294 $436 forward $292 $-1 #
edge $-1 $442 13.432063340018949 $593 45.164459980443731 $435 $594 forward 7 unknown #
coedge $-1 $595 $596 $295 $438 forward $587 $-1 #
edge $-1 $597 -82.483446913759963 $441 -70.229670268979007 $437 $598 forward 7 unknown #
edge $-1 $442 63.259088799963919 $597 81.936945447437381 $296 $599 forward 7 unknown #
coedge $-1 $297 $592 $595 $600 forward $292 $-1 #
vertex $-1 $438 $601 #
vertex $-1 $298 $602 #
straight-curve $-1 42.730325000250289 38.416879243953758 13.43781409017339 0 -1 0 I I #
coedge $-1 $444 $444 $-1 $603 reversed $301 $-1 #
edge $-1 $604 0 $604 6.2831853071796004 $302 $605 forward 7 unknown #
vertex $-1 $305 $606 #
ellipse-curve $-1 49.076804328335243 33.920294113549417 7.3109257677829103 0 0.6560590369687036 0.75470957328743171 3 0 0 1 I I #
coedge $-1 $448 $448 $-1 $607 reversed $308 $-1 #
edge $-1 $608 0 $608 6.2831853071796004 $309 $609 forward 7 unknown #
vertex $-1 $312 $610 #
ellipse-curve $-1 58.59652332046268 33.920294113549417 7.3109257677829103 0 0.6560590369687036 0.75470957328743171 3 0 0 1 I I #
coedge $-1 $452 $452 $-1 $611 reversed $315 $-1 #
edge $-1 $612 0 $612 6.2831853071796004 $316 $613 forward 7 unknown #
vertex $-1 $319 $614 #
ellipse-curve $-1 68.116242312590131 33.920294113549417 7.3109257677829103 0 0.6560590369687036 0.75470957328743171 3 0 0 1 I I #
face $-1 $-1 $335 $48 $-1 $615 reversed single #
loop $-1 $-1 $472 $320 #
plane-surface $-1 0 40.968472723718683 0 0 -1 0 0 0 -1 forward_v I I I I #
coedge $-1 $616 $470 $473 $617 forward $321 $-1 #
coedge $-1 $476 $323 $324 $464 reversed $203 $-1 #
coedge $-1 $470 $616 $323 $462 reversed $321 $-1 #
edge $-1 $477 -13.437814090173385 $618 13.437814090173385 $461 $619 forward 7 unknown #
coedge $-1 $325 $324 $616 $620 forward $129 $-1 #
edge $-1 $468 -74.46272164067507 $618 74.46272164067507 $460 $621 forward 7 unknown #
coedge $-1 $473 $472 $325 $466 reversed $457 $-1 #
edge $-1 $622 -74.46272164067507 $467 74.46272164067507 $465 $623 forward 7 unknown #
vertex $-1 $327 $624 #
vertex $-1 $479 $625 #
straight-curve $-1 74.46272164067507 0 -13.437814090173385 0 -1 0 I I #
coedge $-1 $459 $461 $328 $471 reversed $321 $-1 #
edge $-1 $474 -40.968472723718683 $477 40.968472723718683 $470 $626 forward 7 unknown #
coedge $-1 $465 $329 $334 $480 forward $457 $-1 #
coedge $-1 $329 $465 $459 $617 reversed $457 $-1 #
vertex $-1 $330 $627 #
straight-curve $-1 0 40.968472723718683 13.437814090173385 -1 0 0 I I #
coedge $-1 $331 $460 $333 $479 reversed $203 $-1 #
vertex $-1 $471 $628 #
straight-curve $-1 0 -40.968472723718683 13.437814090173385 1 0 0 I I #
edge $-1 $336 -13.437814090173385 $468 13.437814090173385 $333 $629 forward 7 unknown #
edge $-1 $337 -13.437814090173385 $467 13.437814090173385 $334 $630 forward 7 unknown #
point $-1 74.46272164067507 -40.968472723718683 13.437814090173385 #
point $-1 74.46272164067507 40.968472723718683 13.437814090173385 #
face $-1 $-1 $496 $49 $-1 $631 reversed single #
loop $-1 $-1 $492 $339 #
plane-surface $-1 -74.46272164067507 0 0 1 0 0 0 0 -1 forward_v I I I I #
coedge $-1 $632 $342 $489 $633 forward $211 $-1 #
coedge $-1 $342 $632 $634 $635 forward $211 $-1 #
edge $-1 $636 -40.968472723718683 $490 40.968472723718683 $342 $637 forward 7 unknown #
coedge $-1 $344 $499 $486 $633 reversed $340 $-1 #
vertex $-1 $633 $638 #
straight-curve $-1 -62.266179849439382 -40.968472723718683 -5.2230802985672398 0 0 1 I I #
coedge $-1 $639 $640 $346 $493 forward $484 $-1 #
edge $-1 $500 -40.968472723718683 $497 40.968472723718683 $492 $641 forward 7 unknown #
coedge $-1 $634 $347 $351 $502 forward $496 $-1 #
coedge $-1 $347 $634 $639 $642 reversed $496 $-1 #
loop $-1 $-1 $494 $483 #
vertex $-1 $642 $643 #
straight-curve $-1 -34.182225372528613 40.968472723718683 -7.4545071040955744 1 0 0 I I #
coedge $-1 $489 $349 $640 $644 forward $340 $-1 #
vertex $-1 $644 $645 #
straight-curve $-1 -34.182225372528613 -40.968472723718683 -7.4545071040955744 -1 0 0 I I #
edge $-1 $353 2.2314268055283346 $636 8.2147337916061449 $494 $646 forward 7 unknown #
point $-1 -62.266179849439382 -40.968472723718683 -7.4545071040955744 #
point $-1 -62.266179849439382 40.968472723718683 -7.4545071040955744 #
plane-surface $-1 0 -40.968472723718683 0 0 1 0 0 0 1 forward_v I I I I #
coedge $-1 $516 $515 $508 $647 forward $356 $-1 #
coedge $-1 $508 $358 $360 $512 reversed $219 $-1 #
coedge $-1 $358 $507 $506 $647 reversed $219 $-1 #
coedge $-1 $366 $361 $358 $510 forward $367 $-1 #
edge $-1 $513 -62.257631450060067 $648 -50.600492452634519 $509 $649 forward 7 unknown #
coedge $-1 $360 $359 $516 $650 reversed $137 $-1 #
edge $-1 $651 -21.99795257561345 $513 8.3790584163743152e-015 $507 $652 forward 7 unknown #
vertex $-1 $362 $653 #
straight-curve $-1 -15.741035729492129 -40.968472723718683 1.7806750927478363 1 0 0 I I #
coedge $-1 $506 $363 $366 $520 forward $356 $-1 #
coedge $-1 $363 $506 $511 $650 forward $356 $-1 #
vertex $-1 $364 $654 #
straight-curve $-1 -48.05430115625672 -59.943467547502991 13.437814090173383 0 -1 0 I I #
straight-curve $-1 -48.05430115625672 -40.968472723718676 1.7806750927478419 0 0.84804809178421925 0.52991927123019833 I I #
edge $-1 $368 -48.05430115625672 $648 -14.909841761711796 $366 $655 forward 7 unknown #
point $-1 -48.05430115625672 -40.968472723718683 13.437814090173385 #
point $-1 -48.05430115625672 -40.968472723718683 1.7806750927478374 #
edge $-1 $656 1 $656 0 $371 $-1 forward 7 unknown #
vertex $-1 $372 $657 #
ellipse-curve $-1 -38.584455614958173 -27.724419457044775 1.3417066967794751 0 -0.52991927123019833 0.84804809178421925 3 0 0 1 I I #
point $-1 -35.584455614958173 -31.640811871264329 7.6092445914606248 #
edge $-1 $658 1 $658 0 $375 $-1 forward 7 unknown #
vertex $-1 $376 $659 #
ellipse-curve $-1 -24.37968730301035 -27.724419457044775 1.3417066967794751 0 -0.52991927123019833 0.84804809178421925 3 0 0 1 I I #
point $-1 -21.37968730301035 -31.640811871264329 7.6092445914606248 #
loop $-1 $-1 $387 $379 #
plane-surface $-1 0 0 13.437814090173385 0 0 1 1 0 0 forward_v I I I I #
coedge $-1 $534 $382 $384 $538 reversed $241 $-1 #
coedge $-1 $382 $533 $660 $661 reversed $241 $-1 #
coedge $-1 $390 $385 $382 $536 forward $380 $-1 #
edge $-1 $539 -62.257631450060067 $662 -50.600492452634519 $535 $663 forward 7 unknown #
coedge $-1 $384 $383 $542 $664 reversed $151 $-1 #
edge $-1 $665 -21.99795257561345 $539 8.3790584163743152e-015 $533 $666 forward 7 unknown #
vertex $-1 $386 $667 #
straight-curve $-1 18.441189643036488 -40.968472723718683 1.7806750927478363 1 0 0 I I #
coedge $-1 $660 $387 $390 $546 forward $531 $-1 #
coedge $-1 $387 $660 $537 $664 forward $531 $-1 #
vertex $-1 $388 $668 #
straight-curve $-1 20.310149588800513 -59.943467547502991 13.437814090173383 0 -1 0 I I #
straight-curve $-1 20.310149588800513 -40.968472723718676 1.7806750927478419 0 0.84804809178421925 0.52991927123019833 I I #
edge $-1 $391 20.310149588800513 $662 53.454608983345437 $390 $669 forward 7 unknown #
point $-1 20.310149588800513 -40.968472723718683 13.437814090173385 #
point $-1 20.310149588800513 -40.968472723718683 1.7806750927478374 #
edge $-1 $670 1 $670 0 $394 $-1 forward 7 unknown #
vertex $-1 $395 $671 #
ellipse-curve $-1 29.779995130099053 -27.724419457044775 1.3417066967794751 0 -0.52991927123019833 0.84804809178421925 3 0 0 1 I I #
point $-1 32.779995130099053 -31.640811871264329 7.6092445914606248 #
edge $-1 $672 1 $672 0 $398 $-1 forward 7 unknown #
vertex $-1 $399 $673 #
ellipse-curve $-1 43.984763442046884 -27.724419457044775 1.3417066967794751 0 -0.52991927123019833 0.84804809178421925 3 0 0 1 I I #
point $-1 46.984763442046884 -31.640811871264329 7.6092445914606248 #
plane-surface $-1 0 0 13.437814090173385 0 0 1 1 0 0 forward_v I I I I #
coedge $-1 $568 $567 $560 $674 forward $403 $-1 #
coedge $-1 $560 $405 $407 $564 reversed $263 $-1 #
coedge $-1 $405 $559 $558 $674 reversed $263 $-1 #
coedge $-1 $413 $408 $405 $562 forward $414 $-1 #
edge $-1 $565 -11.544763740573593 $675 2.5515934797649251 $561 $676 forward 7 unknown #
coedge $-1 $407 $406 $568 $677 reversed $165 $-1 #
edge $-1 $678 -81.936945447437381 $565 -63.259088799963919 $559 $679 forward 7 unknown #
vertex $-1 $409 $680 #
straight-curve $-1 -4.8839637122972732 26.872115503380165 13.437814090173386 1 0 0 I I #
coedge $-1 $558 $410 $413 $572 reversed $403 $-1 #
coedge $-1 $410 $558 $563 $677 forward $403 $-1 #
vertex $-1 $411 $681 #
straight-curve $-1 -25.634125744806937 40.968472723718683 83.667484359152397 0 0 1 I I #
straight-curve $-1 -25.634125744806937 -20.870124411392354 54.939510967795414 0 0.75470957328743171 -0.6560590369687036 I I #
edge $-1 $675 -6.0982708956178442 $415 25.634125744806937 $567 $682 forward 7 unknown #
point $-1 -25.634125744806937 40.968472723718683 13.437814090173385 #
point $-1 -25.634125744806937 26.872115503380165 13.437814090173383 #
edge $-1 $683 1 $683 0 $418 $-1 forward 7 unknown #
vertex $-1 $419 $684 #
ellipse-curve $-1 -19.287646416721984 30.031572096362247 2.8374629102553861 0 0.6560590369687036 0.75470957328743171 3 0 0 1 I I #
point $-1 -16.287646416721984 33.920294113549431 7.3109257677829254 #
edge $-1 $685 1 $685 0 $422 $-1 forward 7 unknown #
vertex $-1 $423 $686 #
ellipse-curve $-1 -9.7679274245945464 30.031572096362247 2.8374629102553861 0 0.6560590369687036 0.75470957328743171 3 0 0 1 I I #
point $-1 -6.7679274245945464 33.920294113549431 7.3109257677829254 #
edge $-1 $687 1 $687 0 $426 $-1 forward 7 unknown #
vertex $-1 $427 $688 #
ellipse-curve $-1 -0.24820843246710922 30.031572096362247 2.8374629102553861 0 0.6560590369687036 0.75470957328743171 3 0 0 1 I I #
point $-1 2.7517915675328908 33.920294113549431 7.3109257677829254 #
loop $-1 $-1 $437 $430 #
plane-surface $-1 0 40.968472723718683 0 0 -1 0 0 0 -1 forward_v I I I I #
coedge $-1 $689 $690 $434 $591 forward $431 $-1 #
coedge $-1 $434 $433 $596 $691 reversed $184 $-1 #
edge $-1 $593 37.361866126943454 $692 56.03972277441693 $589 $693 forward 7 unknown #
coedge $-1 $440 $435 $690 $694 forward $292 $-1 #
vertex $-1 $694 $695 #
straight-curve $-1 29.29826166023134 26.872115503380165 13.437814090173386 1 0 0 I I #
coedge $-1 $696 $437 $440 $600 reversed $587 $-1 #
coedge $-1 $437 $696 $590 $691 forward $587 $-1 #
vertex $-1 $438 $697 #
straight-curve $-1 42.730325000250289 40.968472723718683 83.667484359152397 0 0 1 I I #
straight-curve $-1 42.730325000250289 -20.870124411392354 54.939510967795414 0 0.75470957328743171 -0.6560590369687036 I I #
edge $-1 $698 -74.46272164067507 $441 -42.730325000250289 $595 $699 forward 7 unknown #
point $-1 42.730325000250289 40.968472723718683 13.437814090173385 #
point $-1 42.730325000250289 26.872115503380165 13.437814090173383 #
edge $-1 $700 1 $700 0 $444 $-1 forward 7 unknown #
vertex $-1 $445 $701 #
ellipse-curve $-1 49.076804328335243 30.031572096362247 2.8374629102553861 0 0.6560590369687036 0.75470957328743171 3 0 0 1 I I #
point $-1 52.076804328335243 33.920294113549431 7.3109257677829254 #
edge $-1 $702 1 $702 0 $448 $-1 forward 7 unknown #
vertex $-1 $449 $703 #
ellipse-curve $-1 58.59652332046268 30.031572096362247 2.8374629102553861 0 0.6560590369687036 0.75470957328743171 3 0 0 1 I I #
point $-1 61.59652332046268 33.920294113549431 7.3109257677829254 #
edge $-1 $704 1 $704 0 $452 $-1 forward 7 unknown #
vertex $-1 $453 $705 #
ellipse-curve $-1 68.116242312590131 30.031572096362247 2.8374629102553861 0 0.6560590369687036 0.75470957328743171 3 0 0 1 I I #
point $-1 71.116242312590131 33.920294113549431 7.3109257677829254 #
plane-surface $-1 74.46272164067507 0 0 -1 0 0 0 0 1 forward_v I I I I #
coedge $-1 $461 $459 $463 $620 reversed $321 $-1 #
edge $-1 $474 -13.437814090173385 $622 13.437814090173385 $473 $706 forward 7 unknown #
vertex $-1 $620 $707 #
straight-curve $-1 -74.46272164067507 -40.968472723718683 0 0 0 -1 I I #
edge $-1 $618 -40.968472723718683 $622 40.968472723718683 $616 $708 forward 7 unknown #
straight-curve $-1 0 -40.968472723718683 -13.437814090173385 -1 0 0 I I #
vertex $-1 $466 $709 #
straight-curve $-1 0 40.968472723718683 -13.437814090173385 1 0 0 I I #
point $-1 74.46272164067507 40.968472723718683 -13.437814090173385 #
point $-1 74.46272164067507 -40.968472723718683 -13.437814090173385 #
straight-curve $-1 -74.46272164067507 0 13.437814090173385 0 -1 0 I I #
point $-1 -74.46272164067507 40.968472723718683 13.437814090173385 #
point $-1 -74.46272164067507 -40.968472723718683 13.437814090173385 #
straight-curve $-1 74.46272164067507 -40.968472723718683 0 0 0 -1 I I #
straight-curve $-1 74.46272164067507 40.968472723718683 0 0 0 -1 I I #
plane-surface $-1 0 40.968472723718683 0 0 -1 0 0 0 -1 forward_v I I I I #
coedge $-1 $487 $486 $710 $711 forward $211 $-1 #
edge $-1 $490 62.266179849439382 $712 74.46272164067507 $489 $713 forward 7 unknown #
coedge $-1 $495 $494 $487 $635 reversed $496 $-1 #
edge $-1 $714 -74.46272164067507 $636 -62.266179849439382 $634 $715 forward 7 unknown #
vertex $-1 $502 $716 #
straight-curve $-1 -62.266179849439382 0 -13.437814090173385 0 -1 0 I I #
point $-1 -62.266179849439382 -40.968472723718683 -13.437814090173385 #
coedge $-1 $710 $492 $495 $642 forward $484 $-1 #
coedge $-1 $492 $710 $499 $644 reversed $484 $-1 #
straight-curve $-1 -74.46272164067507 0 -7.4545071040955744 0 1 0 I I #
edge $-1 $497 7.4545071040955744 $714 13.437814090173385 $495 $717 forward 7 unknown #
point $-1 -74.46272164067507 40.968472723718683 -7.4545071040955744 #
edge $-1 $500 7.4545071040955744 $712 13.437814090173385 $640 $718 forward 7 unknown #
point $-1 -74.46272164067507 -40.968472723718683 -7.4545071040955744 #
straight-curve $-1 -62.266179849439382 40.968472723718683 -5.2230802985672398 0 0 -1 I I #
edge $-1 $648 18.974994823784307 $651 37.630316528693051 $506 $719 forward 7 unknown #
vertex $-1 $510 $720 #
straight-curve $-1 -14.909841761711796 -40.968472723718683 64.038306542807902 0 0 1 I I #
edge $-1 $651 -0.83119396778033305 $517 32.313265426764588 $516 $721 forward 7 unknown #
vertex $-1 $650 $722 #
straight-curve $-1 -14.909841761711796 -40.968472723718676 1.7806750927478419 0 -0.84804809178421925 -0.52991927123019833 I I #
point $-1 -14.909841761711796 -40.968472723718683 1.7806750927478374 #
point $-1 -48.05430115625672 -22.31315101880994 13.437814090173386 #
straight-curve $-1 0 -40.968472723718683 13.437814090173385 1 0 0 I I #
vertex $-1 $523 $723 #
point $-1 -35.584455614958173 -27.724419457044775 1.3417066967794751 #
vertex $-1 $527 $724 #
point $-1 -21.37968730301035 -27.724419457044775 1.3417066967794751 #
coedge $-1 $542 $541 $534 $661 forward $531 $-1 #
edge $-1 $662 18.974994823784307 $665 37.630316528693051 $660 $725 forward 7 unknown #
vertex $-1 $661 $726 #
straight-curve $-1 53.454608983345437 -40.968472723718683 64.038306542807902 0 0 1 I I #
edge $-1 $665 -35.01341934030895 $543 -1.8689599457640256 $542 $727 forward 7 unknown #
vertex $-1 $664 $728 #
straight-curve $-1 53.454608983345437 -40.968472723718676 1.7806750927478419 0 -0.84804809178421925 -0.52991927123019833 I I #
point $-1 53.454608983345437 -40.968472723718683 1.7806750927478374 #
point $-1 20.310149588800513 -22.31315101880994 13.437814090173386 #
straight-curve $-1 0 -40.968472723718683 13.437814090173385 1 0 0 I I #
vertex $-1 $549 $729 #
point $-1 32.779995130099053 -27.724419457044775 1.3417066967794751 #
vertex $-1 $553 $730 #
point $-1 46.984763442046884 -27.724419457044775 1.3417066967794751 #
edge $-1 $675 70.229670268979007 $678 82.483446913759963 $558 $731 forward 7 unknown #
vertex $-1 $572 $732 #
straight-curve $-1 6.0982708956178442 38.416879243953758 13.43781409017339 0 1 0 I I #
edge $-1 $678 -10.982234607915117 $569 20.750162032509664 $568 $733 forward 7 unknown #
vertex $-1 $677 $734 #
straight-curve $-1 6.0982708956178442 -20.870124411392354 54.939510967795414 0 -0.75470957328743171 0.6560590369687036 I I #
point $-1 6.0982708956178442 26.872115503380165 13.437814090173383 #
point $-1 -25.634125744806937 40.968472723718683 1.1840374453924412 #
straight-curve $-1 0 40.968472723718683 13.437814090173385 -1 0 0 I I #
vertex $-1 $575 $735 #
point $-1 -16.287646416721984 30.031572096362247 2.8374629102553861 #
vertex $-1 $579 $736 #
point $-1 -6.7679274245945464 30.031572096362247 2.8374629102553861 #
vertex $-1 $583 $737 #
point $-1 2.7517915675328908 30.031572096362247 2.8374629102553861 #
coedge $-1 $690 $589 $696 $738 reversed $431 $-1 #
coedge $-1 $589 $689 $592 $694 reversed $431 $-1 #
edge $-1 $692 -45.164459980443731 $597 -13.432063340018949 $596 $739 forward 7 unknown #
vertex $-1 $591 $740 #
straight-curve $-1 74.46272164067507 -1.3252425385074798 37.949404000769533 0 0.75470957328743171 -0.6560590369687036 I I #
edge $-1 $593 26.872115503380165 $698 40.968472723718683 $690 $741 forward 7 unknown #
point $-1 74.46272164067507 26.872115503380165 13.437814090173383 #
coedge $-1 $596 $595 $689 $738 forward $587 $-1 #
point $-1 42.730325000250289 40.968472723718683 1.1840374453924412 #
vertex $-1 $694 $742 #
straight-curve $-1 0 40.968472723718683 13.437814090173385 -1 0 0 I I #
vertex $-1 $603 $743 #
point $-1 52.076804328335243 30.031572096362247 2.8374629102553861 #
vertex $-1 $607 $744 #
point $-1 61.59652332046268 30.031572096362247 2.8374629102553861 #
vertex $-1 $611 $745 #
point $-1 71.116242312590131 30.031572096362247 2.8374629102553861 #
straight-curve $-1 -74.46272164067507 40.968472723718683 0 0 0 -1 I I #
point $-1 -74.46272164067507 -40.968472723718683 -13.437814090173385 #
straight-curve $-1 -74.46272164067507 0 -13.437814090173385 0 1 0 I I #
point $-1 -74.46272164067507 40.968472723718683 -13.437814090173385 #
coedge $-1 $640 $639 $632 $711 reversed $484 $-1 #
edge $-1 $712 -40.968472723718683 $714 40.968472723718683 $710 $746 forward 7 unknown #
vertex $-1 $711 $747 #
straight-curve $-1 0 -40.968472723718683 -13.437814090173385 -1 0 0 I I #
vertex $-1 $635 $748 #
straight-curve $-1 0 40.968472723718683 -13.437814090173385 1 0 0 I I #
point $-1 -62.266179849439382 40.968472723718683 -13.437814090173385 #
straight-curve $-1 -74.46272164067507 40.968472723718683 0 0 0 -1 I I #
straight-curve $-1 -74.46272164067507 -40.968472723718683 0 0 0 -1 I I #
straight-curve $-1 -14.909841761711796 -59.943467547502991 13.437814090173383 0 1 0 I I #
point $-1 -14.909841761711796 -40.968472723718683 13.437814090173385 #
straight-curve $-1 -15.741035729492129 -22.31315101880994 13.437814090173385 -1 0 0 I I #
point $-1 -14.909841761711796 -22.31315101880994 13.437814090173386 #
point $-1 -38.584455614958173 -26.134661643354178 -1.2024375785731818 #
point $-1 -24.37968730301035 -26.134661643354178 -1.2024375785731818 #
straight-curve $-1 53.454608983345437 -59.943467547502991 13.437814090173383 0 1 0 I I #
point $-1 53.454608983345437 -40.968472723718683 13.437814090173385 #
straight-curve $-1 18.441189643036488 -22.31315101880994 13.437814090173385 -1 0 0 I I #
point $-1 53.454608983345437 -22.31315101880994 13.437814090173386 #
point $-1 29.779995130099053 -26.134661643354178 -1.2024375785731818 #
point $-1 43.984763442046884 -26.134661643354178 -1.2024375785731818 #
straight-curve $-1 6.0982708956178442 40.968472723718683 83.667484359152397 0 0 -1 I I #
point $-1 6.0982708956178442 40.968472723718683 13.437814090173385 #
straight-curve $-1 -4.8839637122972732 40.968472723718683 1.1840374453924376 -1 0 0 I I #
point $-1 6.0982708956178442 40.968472723718683 1.1840374453924412 #
point $-1 -19.287646416721984 28.063394985456135 0.57333419039309086 #
point $-1 -9.7679274245945464 28.063394985456135 0.57333419039309086 #
point $-1 -0.24820843246710922 28.063394985456135 0.57333419039309086 #
edge $-1 $698 -13.437814090173385 $692 -1.1840374453924412 $689 $749 forward 7 unknown #
straight-curve $-1 29.29826166023134 40.968472723718683 1.1840374453924376 -1 0 0 I I #
point $-1 74.46272164067507 40.968472723718683 1.1840374453924412 #
straight-curve $-1 74.46272164067507 0 13.437814090173385 0 1 0 I I #
point $-1 74.46272164067507 40.968472723718683 13.437814090173385 #
point $-1 49.076804328335243 28.063394985456135 0.57333419039309086 #
point $-1 58.59652332046268 28.063394985456135 0.57333419039309086 #
point $-1 68.116242312590131 28.063394985456135 0.57333419039309086 #
straight-curve $-1 -74.46272164067507 0 -13.437814090173385 0 1 0 I I #
point $-1 -74.46272164067507 -40.968472723718683 -13.437814090173385 #
point $-1 -74.46272164067507 40.968472723718683 -13.437814090173385 #
straight-curve $-1 74.46272164067507 40.968472723718683 0 0 0 -1 I I #
End-of-ACIS-data 