500 0 12 0           
7 Unknown 11 ACIS 5.0 NT 24 Thu Mar 25 21:57:04 1999 
-1 9.9999999999999995e-007 1e-010 
body $-1 $12 $-1 $13 #
body $-1 $14 $-1 $15 #
body $-1 $16 $-1 $17 #
body $-1 $18 $-1 $19 #
body $-1 $20 $-1 $21 #
body $-1 $22 $-1 $23 #
body $-1 $24 $-1 $25 #
body $-1 $26 $-1 $27 #
body $-1 $28 $-1 $29 #
body $-1 $30 $-1 $31 #
body $-1 $32 $-1 $33 #
body $-1 $34 $-1 $35 #
lump $-1 $-1 $36 $0 #
transform $-1 1 0 0 0 1 0 0 0 1 53.384197515793332 26.414319111409569 11.06109185532347 1 rotate no_reflect no_shear #
lump $-1 $-1 $37 $1 #
transform $-1 1 0 0 0 1 0 0 0 1 53.384197515793332 26.414319111409569 11.06109185532347 1 rotate no_reflect no_shear #
lump $-1 $-1 $38 $2 #
transform $-1 1 0 0 0 1 0 0 0 1 53.384197515793332 26.414319111409569 11.06109185532347 1 rotate no_reflect no_shear #
lump $-1 $-1 $39 $3 #
transform $-1 1 0 0 0 1 0 0 0 1 53.384197515793332 26.414319111409569 11.06109185532347 1 rotate no_reflect no_shear #
lump $-1 $-1 $40 $4 #
transform $-1 1 0 0 0 1 0 0 0 1 53.384197515793332 26.414319111409569 11.06109185532347 1 rotate no_reflect no_shear #
lump $-1 $-1 $41 $5 #
transform $-1 1 0 0 0 1 0 0 0 1 53.384197515793332 26.414319111409569 11.06109185532347 1 rotate no_reflect no_shear #
lump $-1 $-1 $42 $6 #
transform $-1 1 0 0 0 1 0 0 0 1 53.384197515793332 26.414319111409569 11.06109185532347 1 rotate no_reflect no_shear #
lump $-1 $-1 $43 $7 #
transform $-1 1 0 0 0 1 0 0 0 1 53.384197515793332 26.414319111409569 11.06109185532347 1 rotate no_reflect no_shear #
lump $-1 $-1 $44 $8 #
transform $-1 1 0 0 0 1 0 0 0 1 53.384197515793332 26.414319111409569 11.06109185532347 1 rotate no_reflect no_shear #
lump $-1 $-1 $45 $9 #
transform $-1 1 0 0 0 1 0 0 0 1 53.384197515793332 26.414319111409569 11.06109185532347 1 rotate no_reflect no_shear #
lump $-1 $-1 $46 $10 #
transform $-1 1 0 0 0 1 0 0 0 1 53.384197515793332 26.414319111409569 11.06109185532347 1 rotate no_reflect no_shear #
lump $-1 $-1 $47 $11 #
transform $-1 1 0 0 0 1 0 0 0 1 53.384197515793332 26.414319111409569 11.06109185532347 1 rotate no_reflect no_shear #
shell $-1 $-1 $-1 $48 $-1 $12 #
shell $-1 $-1 $-1 $49 $-1 $14 #
shell $-1 $-1 $-1 $50 $-1 $16 #
shell $-1 $-1 $-1 $51 $-1 $18 #
shell $-1 $-1 $-1 $52 $-1 $20 #
shell $-1 $-1 $-1 $53 $-1 $22 #
shell $-1 $-1 $-1 $54 $-1 $24 #
shell $-1 $-1 $-1 $55 $-1 $26 #
shell $-1 $-1 $-1 $56 $-1 $28 #
shell $-1 $-1 $-1 $57 $-1 $30 #
shell $-1 $-1 $-1 $58 $-1 $32 #
shell $-1 $-1 $-1 $59 $-1 $34 #
face $-1 $60 $61 $36 $-1 $62 forward single #
face $-1 $63 $64 $37 $-1 $65 forward single #
face $-1 $66 $67 $38 $-1 $68 reversed single #
face $-1 $69 $70 $39 $-1 $71 forward single #
face $-1 $72 $73 $40 $-1 $74 forward single #
face $-1 $75 $76 $41 $-1 $77 forward single #
face $-1 $78 $79 $42 $-1 $80 reversed single #
face $-1 $81 $82 $43 $-1 $83 forward single #
face $-1 $84 $85 $44 $-1 $86 forward single #
face $-1 $87 $88 $45 $-1 $89 forward single #
face $-1 $90 $91 $46 $-1 $92 reversed single #
face $-1 $93 $94 $47 $-1 $95 forward single #
face $-1 $96 $97 $36 $-1 $98 reversed single #
loop $-1 $-1 $99 $48 #
plane-surface $-1 0 0 11.06109185532347 0 0 1 1 0 0 forward_v I I I I #
face $-1 $100 $101 $37 $-1 $102 reversed single #
loop $-1 $-1 $103 $49 #
plane-surface $-1 0 -21.73874525277008 6.5051283349670053 0 0 1 1 0 0 forward_v I I I I #
face $-1 $104 $105 $38 $-1 $106 reversed single #
loop $-1 $-1 $107 $50 #
plane-surface $-1 42.851438084037468 -8.4824890631907728 150.82969065977363 0 1 0 0.6560590369687036 0 0.75470957328743171 forward_v I I I I #
face $-1 $108 $109 $39 $-1 $110 forward single #
loop $-1 $111 $112 $51 #
cone-surface $-1 46.263649516795702 -6.3992641946444664 4.6251140877270558 -0.6560590369687036 0 -0.75470957328743171 0.75470957328743171 0 -0.6560590369687036 1 I I 0 1 1 forward I I I I #
face $-1 $113 $114 $40 $-1 $115 forward single #
loop $-1 $116 $117 $52 #
cone-surface $-1 46.263649516795702 -3.274426891825005 4.6251140877270558 -0.6560590369687036 0 -0.75470957328743171 0.75470957328743171 0 -0.6560590369687036 1 I I 0 1 1 forward I I I I #
face $-1 $118 $119 $41 $-1 $120 forward single #
loop $-1 $121 $122 $53 #
cone-surface $-1 46.263649516795702 -0.14958958900554364 4.6251140877270558 -0.6560590369687036 0 -0.75470957328743171 0.75470957328743171 0 -0.6560590369687036 1 I I 0 1 1 forward I I I I #
face $-1 $123 $124 $42 $-1 $125 reversed single #
loop $-1 $-1 $126 $54 #
plane-surface $-1 42.851438084037468 7.4175124377382105 150.82969065977363 0 1 0 0.6560590369687036 0 0.75470957328743171 forward_v I I I I #
face $-1 $127 $128 $43 $-1 $129 forward single #
loop $-1 $130 $131 $55 #
cone-surface $-1 46.263649516795702 9.5007373062845204 4.6251140877270558 -0.6560590369687036 0 -0.75470957328743171 0.75470957328743171 0 -0.6560590369687036 1 I I 0 1 1 forward I I I I #
face $-1 $132 $133 $44 $-1 $134 forward single #
loop $-1 $135 $136 $56 #
cone-surface $-1 46.263649516795702 12.625574609103978 4.6251140877270558 -0.6560590369687036 0 -0.75470957328743171 0.75470957328743171 0 -0.6560590369687036 1 I I 0 1 1 forward I I I I #
face $-1 $137 $138 $45 $-1 $139 forward single #
loop $-1 $140 $141 $57 #
cone-surface $-1 46.263649516795702 15.750411911923443 4.6251140877270558 -0.6560590369687036 0 -0.75470957328743171 0.75470957328743171 0 -0.6560590369687036 1 I I 0 1 1 forward I I I I #
face $-1 $142 $143 $46 $-1 $144 reversed single #
loop $-1 $-1 $145 $58 #
plane-surface $-1 -53.38419751579336 -11.29139881743202 0.19902411911242268 -0.71933980857756763 0 0.69465836192734942 0.69465836192734942 0 0.71933980857756763 forward_v I I I I #
face $-1 $146 $147 $47 $-1 $148 forward single #
loop $-1 $149 $150 $59 #
cone-surface $-1 -46.543255152218386 -11.29139881743202 4.0885734098116853 0.71933980857756763 0 -0.69465836192734942 1.0419875428910241 0 1.0790097128663514 1 I I 0 1 1.5 forward I I I I #
face $-1 $151 $152 $36 $-1 $153 reversed single #
loop $-1 $-1 $154 $60 #
plane-surface $-1 0 0 -11.06109185532347 0 0 1 1 0 0 forward_v I I I I #
coedge $-1 $155 $156 $157 $158 forward $61 $-1 #
face $-1 $159 $160 $37 $-1 $161 reversed single #
loop $-1 $-1 $162 $63 #
plane-surface $-1 0 -21.73874525277008 2.9669427161313662 0 0 1 1 0 0 forward_v I I I I #
coedge $-1 $163 $164 $165 $166 reversed $64 $-1 #
face $-1 $167 $168 $38 $-1 $169 reversed single #
loop $-1 $-1 $170 $66 #
plane-surface $-1 -27.194932339079401 -3.274426891825005 70.250560804900914 0.6560590369687036 0 0.75470957328743171 0.75470957328743171 0 -0.6560590369687036 forward_v I I I I #
coedge $-1 $171 $172 $173 $174 reversed $67 $-1 #
face $-1 $-1 $175 $39 $-1 $176 forward single #
loop $-1 $177 $178 $69 #
cone-surface $-1 45.05979009372318 -6.3992641946444664 3.240232270256632 -0.6560590369687036 0 -0.75470957328743171 0.37735478664371586 0 -0.3280295184843518 1 I I -0.70710678118654746 0.70710678118654746 0.5 forward I I I I #
loop $-1 $-1 $179 $51 #
coedge $-1 $112 $112 $180 $181 reversed $70 $-1 #
face $-1 $-1 $182 $40 $-1 $183 forward single #
loop $-1 $184 $185 $72 #
cone-surface $-1 45.05979009372318 -3.274426891825005 3.240232270256632 -0.6560590369687036 0 -0.75470957328743171 0.37735478664371586 0 -0.3280295184843518 1 I I -0.70710678118654746 0.70710678118654746 0.5 forward I I I I #
loop $-1 $-1 $186 $52 #
coedge $-1 $117 $117 $187 $188 reversed $73 $-1 #
face $-1 $-1 $189 $41 $-1 $190 forward single #
loop $-1 $191 $192 $75 #
cone-surface $-1 45.05979009372318 -0.14958958900554364 3.240232270256632 -0.6560590369687036 0 -0.75470957328743171 0.37735478664371586 0 -0.3280295184843518 1 I I -0.70710678118654746 0.70710678118654746 0.5 forward I I I I #
loop $-1 $-1 $193 $53 #
coedge $-1 $122 $122 $194 $195 reversed $76 $-1 #
face $-1 $196 $197 $42 $-1 $198 reversed single #
loop $-1 $-1 $199 $78 #
plane-surface $-1 -27.194932339079401 12.625574609103978 70.250560804900914 0.6560590369687036 0 0.75470957328743171 0.75470957328743171 0 -0.6560590369687036 forward_v I I I I #
coedge $-1 $200 $201 $202 $203 reversed $79 $-1 #
face $-1 $-1 $204 $43 $-1 $205 forward single #
loop $-1 $206 $207 $81 #
cone-surface $-1 45.05979009372318 9.5007373062845204 3.240232270256632 -0.6560590369687036 0 -0.75470957328743171 0.37735478664371586 0 -0.3280295184843518 1 I I -0.70710678118654746 0.70710678118654746 0.5 forward I I I I #
loop $-1 $-1 $208 $55 #
coedge $-1 $131 $131 $209 $210 reversed $82 $-1 #
face $-1 $-1 $211 $44 $-1 $212 forward single #
loop $-1 $213 $214 $84 #
cone-surface $-1 45.05979009372318 12.625574609103978 3.240232270256632 -0.6560590369687036 0 -0.75470957328743171 0.37735478664371586 0 -0.3280295184843518 1 I I -0.70710678118654746 0.70710678118654746 0.5 forward I I I I #
loop $-1 $-1 $215 $56 #
coedge $-1 $136 $136 $216 $217 reversed $85 $-1 #
face $-1 $-1 $218 $45 $-1 $219 forward single #
loop $-1 $220 $221 $87 #
cone-surface $-1 45.05979009372318 15.750411911923443 3.240232270256632 -0.6560590369687036 0 -0.75470957328743171 0.37735478664371586 0 -0.3280295184843518 1 I I -0.70710678118654746 0.70710678118654746 0.5 forward I I I I #
loop $-1 $-1 $222 $57 #
coedge $-1 $141 $141 $223 $224 reversed $88 $-1 #
face $-1 $225 $226 $46 $-1 $227 forward single #
loop $-1 $-1 $228 $90 #
plane-surface $-1 -130.18695435994903 -5.519626240733448 74.366582517366567 0 -1 0 0.71933980857756763 0 -0.69465836192734942 forward_v I I I I #
coedge $-1 $229 $230 $231 $232 reversed $91 $-1 #
face $-1 $-1 $233 $47 $-1 $234 forward single #
loop $-1 $235 $236 $93 #
cone-surface $-1 -44.407496249752924 -11.29139881743202 2.0260950609599124 0.71933980857756763 0 -0.69465836192734942 0.52099377144551207 0 0.53950485643317569 1 I I -0.70710678118654757 0.70710678118654757 0.75 forward I I I I #
loop $-1 $-1 $237 $59 #
coedge $-1 $150 $150 $238 $239 reversed $94 $-1 #
face $-1 $240 $241 $36 $-1 $242 reversed single #
loop $-1 $-1 $243 $96 #
plane-surface $-1 0 -26.414319111409569 0 0 1 0 0 0 1 forward_v I I I I #
coedge $-1 $244 $245 $246 $247 forward $97 $-1 #
coedge $-1 $248 $99 $249 $250 forward $61 $-1 #
coedge $-1 $99 $248 $251 $252 forward $61 $-1 #
coedge $-1 $253 $254 $99 $158 reversed $255 $-1 #
edge $-1 $256 -26.414319111409569 $257 26.414319111409569 $157 $258 forward 7 unknown #
face $-1 $259 $260 $37 $-1 $261 reversed single #
loop $-1 $-1 $262 $100 #
plane-surface $-1 0 -17.063171394130592 4.7360355255491857 0 -1 0 0 0 -1 forward_v I I I I #
coedge $-1 $263 $264 $265 $266 reversed $101 $-1 #
coedge $-1 $267 $103 $262 $268 forward $64 $-1 #
coedge $-1 $103 $267 $269 $270 reversed $64 $-1 #
coedge $-1 $271 $272 $103 $166 forward $273 $-1 #
edge $-1 $274 6.1937987677455517 $275 15.544946485024528 $165 $276 forward 7 unknown #
face $-1 $277 $278 $38 $-1 $279 forward single #
loop $-1 $-1 $280 $104 #
plane-surface $-1 42.851438084037468 1.9336352795407628 150.82969065977363 0 -1 0 -0.6560590369687036 0 -0.75470957328743171 forward_v I I I I #
coedge $-1 $281 $282 $283 $284 reversed $105 $-1 #
coedge $-1 $172 $107 $285 $286 reversed $67 $-1 #
coedge $-1 $107 $171 $281 $287 reversed $67 $-1 #
coedge $-1 $283 $288 $107 $174 forward $289 $-1 #
edge $-1 $290 64.353753474563348 $291 75.210654948102786 $173 $292 forward 7 unknown #
loop $-1 $-1 $180 $108 #
plane-surface $-1 -27.194932339079401 -3.274426891825005 70.250560804900914 0.6560590369687036 0 0.75470957328743171 0.75470957328743171 0 -0.6560590369687036 forward_v I I I I #
loop $-1 $-1 $293 $69 #
coedge $-1 $178 $178 $179 $294 reversed $109 $-1 #
coedge $-1 $179 $179 $178 $294 forward $111 $-1 #
coedge $-1 $180 $180 $112 $181 forward $175 $-1 #
edge $-1 $295 0 $295 6.2831853071796004 $180 $296 forward 7 unknown #
loop $-1 $-1 $187 $113 #
plane-surface $-1 -27.194932339079401 -3.274426891825005 70.250560804900914 0.6560590369687036 0 0.75470957328743171 0.75470957328743171 0 -0.6560590369687036 forward_v I I I I #
loop $-1 $-1 $297 $72 #
coedge $-1 $185 $185 $186 $298 reversed $114 $-1 #
coedge $-1 $186 $186 $185 $298 forward $116 $-1 #
coedge $-1 $187 $187 $117 $188 forward $182 $-1 #
edge $-1 $299 0 $299 6.2831853071796004 $187 $300 forward 7 unknown #
loop $-1 $-1 $194 $118 #
plane-surface $-1 -27.194932339079401 -3.274426891825005 70.250560804900914 0.6560590369687036 0 0.75470957328743171 0.75470957328743171 0 -0.6560590369687036 forward_v I I I I #
loop $-1 $-1 $301 $75 #
coedge $-1 $192 $192 $193 $302 reversed $119 $-1 #
coedge $-1 $193 $193 $192 $302 forward $121 $-1 #
coedge $-1 $194 $194 $122 $195 forward $189 $-1 #
edge $-1 $303 0 $303 6.2831853071796004 $194 $304 forward 7 unknown #
face $-1 $305 $306 $42 $-1 $307 reversed single #
loop $-1 $-1 $308 $123 #
plane-surface $-1 42.851438084037468 17.833636780469746 150.82969065977363 0 -1 0 -0.6560590369687036 0 -0.75470957328743171 forward_v I I I I #
coedge $-1 $309 $310 $311 $312 reversed $124 $-1 #
coedge $-1 $201 $126 $313 $314 reversed $79 $-1 #
coedge $-1 $126 $200 $309 $315 reversed $79 $-1 #
coedge $-1 $311 $316 $126 $203 forward $306 $-1 #
edge $-1 $317 64.353753474563348 $318 75.210654948102786 $202 $319 forward 7 unknown #
loop $-1 $-1 $209 $127 #
plane-surface $-1 -27.194932339079401 12.625574609103978 70.250560804900914 0.6560590369687036 0 0.75470957328743171 0.75470957328743171 0 -0.6560590369687036 forward_v I I I I #
loop $-1 $-1 $320 $81 #
coedge $-1 $207 $207 $208 $321 reversed $128 $-1 #
coedge $-1 $208 $208 $207 $321 forward $130 $-1 #
coedge $-1 $209 $209 $131 $210 forward $204 $-1 #
edge $-1 $322 0 $322 6.2831853071796004 $209 $323 forward 7 unknown #
loop $-1 $-1 $216 $132 #
plane-surface $-1 -27.194932339079401 12.625574609103978 70.250560804900914 0.6560590369687036 0 0.75470957328743171 0.75470957328743171 0 -0.6560590369687036 forward_v I I I I #
loop $-1 $-1 $324 $84 #
coedge $-1 $214 $214 $215 $325 reversed $133 $-1 #
coedge $-1 $215 $215 $214 $325 forward $135 $-1 #
coedge $-1 $216 $216 $136 $217 forward $211 $-1 #
edge $-1 $326 0 $326 6.2831853071796004 $216 $327 forward 7 unknown #
loop $-1 $-1 $223 $137 #
plane-surface $-1 -27.194932339079401 12.625574609103978 70.250560804900914 0.6560590369687036 0 0.75470957328743171 0.75470957328743171 0 -0.6560590369687036 forward_v I I I I #
loop $-1 $-1 $328 $87 #
coedge $-1 $221 $221 $222 $329 reversed $138 $-1 #
coedge $-1 $222 $222 $221 $329 forward $140 $-1 #
coedge $-1 $223 $223 $141 $224 forward $218 $-1 #
edge $-1 $330 0 $330 6.2831853071796004 $223 $331 forward 7 unknown #
face $-1 $332 $333 $46 $-1 $334 forward single #
loop $-1 $-1 $335 $142 #
plane-surface $-1 0 -17.063171394130592 4.7360355255491857 0 -1 0 0 0 -1 forward_v I I I I #
coedge $-1 $336 $337 $338 $339 reversed $143 $-1 #
coedge $-1 $340 $145 $335 $341 forward $91 $-1 #
coedge $-1 $145 $340 $336 $342 forward $91 $-1 #
coedge $-1 $338 $343 $145 $232 forward $333 $-1 #
edge $-1 $344 -11.417471985414583 $345 0.12607316798256196 $231 $346 forward 7 unknown #
loop $-1 $-1 $238 $146 #
plane-surface $-1 -53.38419751579336 -11.29139881743202 0.19902411911242268 -0.71933980857756763 0 0.69465836192734942 0.69465836192734942 0 0.71933980857756763 forward_v I I I I #
loop $-1 $-1 $347 $93 #
coedge $-1 $236 $236 $237 $348 reversed $147 $-1 #
coedge $-1 $237 $237 $236 $348 forward $149 $-1 #
coedge $-1 $238 $238 $150 $239 forward $233 $-1 #
edge $-1 $349 0 $349 6.2831853071796004 $238 $350 forward 7 unknown #
face $-1 $351 $352 $36 $-1 $353 reversed single #
loop $-1 $-1 $354 $151 #
plane-surface $-1 -53.384197515793332 0 0 1 0 0 0 0 -1 forward_v I I I I #
coedge $-1 $355 $251 $356 $357 forward $152 $-1 #
coedge $-1 $358 $154 $355 $359 forward $97 $-1 #
coedge $-1 $154 $358 $360 $361 forward $97 $-1 #
coedge $-1 $254 $253 $154 $247 reversed $255 $-1 #
edge $-1 $362 -26.414319111409569 $363 26.414319111409569 $246 $364 forward 7 unknown #
coedge $-1 $156 $155 $365 $366 forward $61 $-1 #
coedge $-1 $367 $368 $155 $250 reversed $352 $-1 #
edge $-1 $257 -53.384197515793332 $369 53.384197515793332 $249 $370 forward 7 unknown #
coedge $-1 $243 $371 $156 $252 reversed $152 $-1 #
edge $-1 $372 -53.384197515793332 $256 53.384197515793332 $251 $373 forward 7 unknown #
coedge $-1 $246 $157 $371 $374 forward $255 $-1 #
coedge $-1 $157 $246 $367 $375 reversed $255 $-1 #
loop $-1 $-1 $253 $351 #
vertex $-1 $158 $376 #
vertex $-1 $158 $377 #
straight-curve $-1 53.384197515793332 0 11.06109185532347 0 1 0 I I #
face $-1 $378 $379 $37 $-1 $380 reversed single #
loop $-1 $-1 $381 $159 #
plane-surface $-1 -53.384197515793332 0 0 1 0 0 0 0 -1 forward_v I I I I #
coedge $-1 $382 $383 $163 $268 reversed $160 $-1 #
coedge $-1 $384 $162 $385 $386 reversed $101 $-1 #
coedge $-1 $162 $384 $387 $388 forward $101 $-1 #
coedge $-1 $272 $271 $162 $266 forward $273 $-1 #
edge $-1 $389 -15.544946485024528 $390 -6.1937987677455517 $265 $391 forward 7 unknown #
coedge $-1 $164 $163 $381 $392 reversed $64 $-1 #
edge $-1 $274 -53.384197515793332 $393 53.384197515793332 $262 $394 forward 7 unknown #
coedge $-1 $395 $396 $164 $270 forward $379 $-1 #
edge $-1 $275 -53.384197515793332 $397 53.384197515793332 $269 $398 forward 7 unknown #
coedge $-1 $265 $165 $396 $399 forward $273 $-1 #
coedge $-1 $165 $265 $382 $400 forward $273 $-1 #
loop $-1 $-1 $165 $378 #
vertex $-1 $166 $401 #
vertex $-1 $399 $402 #
straight-curve $-1 53.384197515793332 -10.86937262638504 6.5051283349670053 0 -1 0 I I #
face $-1 $-1 $289 $38 $-1 $403 reversed single #
loop $-1 $-1 $404 $167 #
plane-surface $-1 0 0 11.06109185532347 0 0 1 1 0 0 forward_v I I I I #
coedge $-1 $405 $406 $407 $408 reversed $168 $-1 #
coedge $-1 $409 $170 $172 $287 forward $105 $-1 #
coedge $-1 $170 $409 $405 $410 forward $105 $-1 #
coedge $-1 $407 $173 $170 $284 forward $289 $-1 #
edge $-1 $291 -6.8452756172782703 $411 3.5708487254532653 $283 $412 forward 7 unknown #
coedge $-1 $413 $414 $171 $286 forward $278 $-1 #
edge $-1 $415 19.469042284955655 $290 31.958478473774598 $285 $416 forward 7 unknown #
edge $-1 $291 -106.76839503158669 $415 -90.219729649728151 $172 $417 forward 7 unknown #
coedge $-1 $173 $407 $413 $418 reversed $289 $-1 #
loop $-1 $-1 $407 $277 #
vertex $-1 $418 $419 #
vertex $-1 $174 $420 #
straight-curve $-1 53.384197515793332 -8.4824890631907728 75.414845329886816 0 0 -1 I I #
coedge $-1 $293 $293 $-1 $421 reversed $177 $-1 #
edge $-1 $422 0 $422 6.2831853071796004 $178 $423 forward 7 unknown #
vertex $-1 $181 $424 #
ellipse-curve $-1 47.139479421383854 -6.3992641946444664 5.6326411185537468 0.6560590369687036 0 0.75470957328743171 0.75470957328743171 0 -0.6560590369687036 1 I I #
coedge $-1 $297 $297 $-1 $425 reversed $184 $-1 #
edge $-1 $426 0 $426 6.2831853071796004 $185 $427 forward 7 unknown #
vertex $-1 $188 $428 #
ellipse-curve $-1 47.139479421383854 -3.274426891825005 5.6326411185537468 0.6560590369687036 0 0.75470957328743171 0.75470957328743171 0 -0.6560590369687036 1 I I #
coedge $-1 $301 $301 $-1 $429 reversed $191 $-1 #
edge $-1 $430 0 $430 6.2831853071796004 $192 $431 forward 7 unknown #
vertex $-1 $195 $432 #
ellipse-curve $-1 47.139479421383854 -0.14958958900554364 5.6326411185537468 0.6560590369687036 0 0.75470957328743171 0.75470957328743171 0 -0.6560590369687036 1 I I #
face $-1 $-1 $433 $42 $-1 $434 forward single #
loop $-1 $-1 $202 $196 #
plane-surface $-1 53.384197515793332 0 0 -1 0 0 0 0 1 forward_v I I I I #
coedge $-1 $435 $436 $437 $438 reversed $197 $-1 #
coedge $-1 $439 $199 $201 $315 forward $124 $-1 #
coedge $-1 $199 $439 $435 $440 forward $124 $-1 #
coedge $-1 $437 $202 $199 $312 forward $306 $-1 #
edge $-1 $318 1.1047251331862213 $441 11.520849475917757 $311 $442 forward 7 unknown #
coedge $-1 $443 $444 $200 $314 forward $433 $-1 #
edge $-1 $445 19.469042284955655 $317 31.958478473774598 $313 $446 forward 7 unknown #
edge $-1 $318 -106.76839503158669 $445 -90.219729649728151 $201 $447 forward 7 unknown #
coedge $-1 $202 $437 $443 $448 reversed $306 $-1 #
vertex $-1 $448 $449 #
vertex $-1 $203 $450 #
straight-curve $-1 53.384197515793332 7.4175124377382105 75.414845329886816 0 0 -1 I I #
coedge $-1 $320 $320 $-1 $451 reversed $206 $-1 #
edge $-1 $452 0 $452 6.2831853071796004 $207 $453 forward 7 unknown #
vertex $-1 $210 $454 #
ellipse-curve $-1 47.139479421383854 9.5007373062845204 5.6326411185537468 0.6560590369687036 0 0.75470957328743171 0.75470957328743171 0 -0.6560590369687036 1 I I #
coedge $-1 $324 $324 $-1 $455 reversed $213 $-1 #
edge $-1 $456 0 $456 6.2831853071796004 $214 $457 forward 7 unknown #
vertex $-1 $217 $458 #
ellipse-curve $-1 47.139479421383854 12.625574609103978 5.6326411185537468 0.6560590369687036 0 0.75470957328743171 0.75470957328743171 0 -0.6560590369687036 1 I I #
coedge $-1 $328 $328 $-1 $459 reversed $220 $-1 #
edge $-1 $460 0 $460 6.2831853071796004 $221 $461 forward 7 unknown #
vertex $-1 $224 $462 #
ellipse-curve $-1 47.139479421383854 15.750411911923443 5.6326411185537468 0.6560590369687036 0 0.75470957328743171 0.75470957328743171 0 -0.6560590369687036 1 I I #
face $-1 $-1 $463 $46 $-1 $464 reversed single #
loop $-1 $-1 $338 $225 #
plane-surface $-1 0 0 11.06109185532347 0 0 1 1 0 0 forward_v I I I I #
coedge $-1 $465 $466 $229 $341 reversed $226 $-1 #
coedge $-1 $337 $228 $230 $342 reversed $143 $-1 #
coedge $-1 $228 $336 $467 $468 reversed $143 $-1 #
coedge $-1 $469 $231 $228 $339 forward $333 $-1 #
edge $-1 $345 -22.198656299266467 $470 -11.709279664181182 $338 $471 forward 7 unknown #
coedge $-1 $230 $229 $472 $473 reversed $91 $-1 #
edge $-1 $344 -15.100050917090005 $474 -4.0907009993424656e-014 $335 $475 forward 7 unknown #
edge $-1 $476 4.0907009993424656e-014 $345 15.100050917090005 $336 $477 forward 7 unknown #
coedge $-1 $231 $469 $465 $478 forward $333 $-1 #
vertex $-1 $478 $479 #
vertex $-1 $232 $480 #
straight-curve $-1 -42.894820880708046 -5.6456994087160099 11.06109185532347 0 1 0 I I #
coedge $-1 $347 $347 $-1 $481 reversed $235 $-1 #
edge $-1 $482 0 $482 6.2831853071796004 $236 $483 forward 7 unknown #
vertex $-1 $239 $484 #
ellipse-curve $-1 -48.139509198250693 -11.29139881743202 5.6300579872179615 -0.71933980857756763 0 0.69465836192734942 1.0419875428910241 0 1.0790097128663514 1 I I #
face $-1 $-1 $255 $36 $-1 $485 reversed single #
loop $-1 $-1 $367 $240 #
plane-surface $-1 0 26.414319111409569 0 0 -1 0 0 0 -1 forward_v I I I I #
coedge $-1 $486 $365 $368 $487 forward $241 $-1 #
coedge $-1 $371 $243 $244 $359 reversed $152 $-1 #
coedge $-1 $365 $486 $243 $357 reversed $241 $-1 #
edge $-1 $372 -11.06109185532347 $488 11.06109185532347 $356 $489 forward 7 unknown #
coedge $-1 $245 $244 $486 $490 forward $97 $-1 #
edge $-1 $363 -53.384197515793332 $488 53.384197515793332 $355 $491 forward 7 unknown #
coedge $-1 $368 $367 $245 $361 reversed $352 $-1 #
edge $-1 $492 -53.384197515793332 $362 53.384197515793332 $360 $493 forward 7 unknown #
vertex $-1 $247 $494 #
vertex $-1 $374 $495 #
straight-curve $-1 53.384197515793332 0 -11.06109185532347 0 -1 0 I I #
coedge $-1 $354 $356 $248 $366 reversed $241 $-1 #
edge $-1 $369 -26.414319111409569 $372 26.414319111409569 $365 $496 forward 7 unknown #
coedge $-1 $360 $249 $254 $375 forward $352 $-1 #
coedge $-1 $249 $360 $354 $487 reversed $352 $-1 #
vertex $-1 $250 $497 #
straight-curve $-1 0 26.414319111409569 11.06109185532347 -1 0 0 I I #
coedge $-1 $251 $355 $253 $374 reversed $152 $-1 #
vertex $-1 $366 $498 #
straight-curve $-1 0 -26.414319111409569 11.06109185532347 1 0 0 I I #
edge $-1 $256 -11.06109185532347 $363 11.06109185532347 $253 $499 forward 7 unknown #
edge $-1 $257 -11.06109185532347 $362 11.06109185532347 $254 $500 forward 7 unknown #
point $-1 53.384197515793332 -26.414319111409569 11.06109185532347 #
point $-1 53.384197515793332 26.414319111409569 11.06109185532347 #
face $-1 $-1 $273 $37 $-1 $501 reversed single #
loop $-1 $-1 $269 $259 #
plane-surface $-1 0 -26.414319111409569 0 0 1 0 0 0 1 forward_v I I I I #
coedge $-1 $502 $503 $267 $392 forward $260 $-1 #
coedge $-1 $387 $262 $272 $400 reversed $160 $-1 #
coedge $-1 $262 $387 $502 $504 reversed $160 $-1 #
coedge $-1 $264 $263 $505 $506 reversed $101 $-1 #
coedge $-1 $396 $395 $263 $386 forward $379 $-1 #
edge $-1 $507 -53.384197515793332 $389 53.384197515793332 $385 $508 forward 7 unknown #
coedge $-1 $383 $382 $264 $388 reversed $160 $-1 #
edge $-1 $509 -53.384197515793332 $390 53.384197515793332 $387 $510 forward 7 unknown #
vertex $-1 $386 $511 #
vertex $-1 $266 $512 #
straight-curve $-1 53.384197515793332 -10.86937262638504 2.9669427161313662 0 1 0 I I #
edge $-1 $397 -15.544946485024528 $393 -6.1937987677455517 $381 $513 forward 7 unknown #
vertex $-1 $392 $514 #
straight-curve $-1 0 -17.063171394130592 6.5051283349670053 -1 0 0 I I #
coedge $-1 $385 $269 $503 $515 forward $379 $-1 #
coedge $-1 $269 $385 $271 $399 reversed $379 $-1 #
vertex $-1 $515 $516 #
straight-curve $-1 0 -26.414319111409569 6.5051283349670053 -1 0 0 I I #
edge $-1 $275 -6.5051283349670053 $389 -2.9669427161313662 $271 $517 forward 7 unknown #
edge $-1 $390 0.59892495335677332 $274 4.1371105721924124 $272 $518 forward 7 unknown #
point $-1 53.384197515793332 -17.063171394130592 6.5051283349670053 #
point $-1 53.384197515793332 -26.414319111409569 6.5051283349670053 #
plane-surface $-1 53.384197515793332 0 0 -1 0 0 0 0 1 forward_v I I I I #
coedge $-1 $414 $413 $406 $519 forward $278 $-1 #
coedge $-1 $406 $280 $282 $410 reversed $168 $-1 #
coedge $-1 $280 $405 $404 $519 reversed $168 $-1 #
coedge $-1 $288 $283 $280 $408 forward $289 $-1 #
edge $-1 $411 -75.210654948102786 $520 -64.353753474563348 $407 $521 forward 7 unknown #
coedge $-1 $282 $281 $414 $522 reversed $105 $-1 #
edge $-1 $523 90.219729649728151 $411 106.76839503158669 $405 $524 forward 7 unknown #
vertex $-1 $284 $525 #
straight-curve $-1 53.384197515793332 -1.6372134459125025 0.20419038178403781 0 1 0 I I #
coedge $-1 $404 $285 $288 $418 forward $278 $-1 #
coedge $-1 $285 $404 $409 $522 forward $278 $-1 #
vertex $-1 $286 $526 #
straight-curve $-1 21.425719042018734 -8.4824890631907728 11.061091855323468 1 0 0 I I #
straight-curve $-1 -27.194932339079401 -8.4824890631907728 70.250560804900914 -0.75470957328743171 0 0.6560590369687036 I I #
edge $-1 $290 -8.4824890631907728 $520 1.9336352795407628 $288 $527 forward 7 unknown #
point $-1 53.384197515793332 -8.4824890631907728 11.06109185532347 #
point $-1 53.384197515793332 -8.4824890631907728 0.20419038178403071 #
edge $-1 $528 1 $528 0 $293 $-1 forward 7 unknown #
vertex $-1 $294 $529 #
ellipse-curve $-1 45.387819612207529 -6.3992641946444664 3.6175870569003479 0.6560590369687036 0 0.75470957328743171 0.75470957328743171 0 -0.6560590369687036 1 I I #
point $-1 47.894188994671296 -6.3992641946444664 4.976582081585061 #
edge $-1 $530 1 $530 0 $297 $-1 forward 7 unknown #
vertex $-1 $298 $531 #
ellipse-curve $-1 45.387819612207529 -3.274426891825005 3.6175870569003479 0.6560590369687036 0 0.75470957328743171 0.75470957328743171 0 -0.6560590369687036 1 I I #
point $-1 47.894188994671296 -3.274426891825005 4.976582081585061 #
edge $-1 $532 1 $532 0 $301 $-1 forward 7 unknown #
vertex $-1 $302 $533 #
ellipse-curve $-1 45.387819612207529 -0.14958958900554364 3.6175870569003479 0.6560590369687036 0 0.75470957328743171 0.75470957328743171 0 -0.6560590369687036 1 I I #
point $-1 47.894188994671296 -0.14958958900554364 4.976582081585061 #
loop $-1 $-1 $313 $305 #
plane-surface $-1 0 0 11.06109185532347 0 0 1 1 0 0 forward_v I I I I #
coedge $-1 $436 $308 $310 $440 reversed $197 $-1 #
coedge $-1 $308 $435 $534 $535 reversed $197 $-1 #
coedge $-1 $316 $311 $308 $438 forward $306 $-1 #
edge $-1 $441 -75.210654948102786 $536 -64.353753474563348 $437 $537 forward 7 unknown #
coedge $-1 $310 $309 $444 $538 reversed $124 $-1 #
edge $-1 $539 90.219729649728151 $441 106.76839503158669 $435 $540 forward 7 unknown #
vertex $-1 $312 $541 #
straight-curve $-1 53.384197515793332 6.3127873045519891 0.20419038178403781 0 1 0 I I #
coedge $-1 $534 $313 $316 $448 forward $433 $-1 #
coedge $-1 $313 $534 $439 $538 forward $433 $-1 #
vertex $-1 $314 $542 #
straight-curve $-1 21.425719042018734 7.4175124377382105 11.061091855323468 1 0 0 I I #
straight-curve $-1 -27.194932339079401 7.4175124377382105 70.250560804900914 -0.75470957328743171 0 0.6560590369687036 I I #
edge $-1 $317 7.4175124377382105 $536 17.833636780469746 $316 $543 forward 7 unknown #
point $-1 53.384197515793332 7.4175124377382105 11.06109185532347 #
point $-1 53.384197515793332 7.4175124377382105 0.20419038178403071 #
edge $-1 $544 1 $544 0 $320 $-1 forward 7 unknown #
vertex $-1 $321 $545 #
ellipse-curve $-1 45.387819612207529 9.5007373062845204 3.6175870569003479 0.6560590369687036 0 0.75470957328743171 0.75470957328743171 0 -0.6560590369687036 1 I I #
point $-1 47.894188994671296 9.5007373062845204 4.976582081585061 #
edge $-1 $546 1 $546 0 $324 $-1 forward 7 unknown #
vertex $-1 $325 $547 #
ellipse-curve $-1 45.387819612207529 12.625574609103978 3.6175870569003479 0.6560590369687036 0 0.75470957328743171 0.75470957328743171 0 -0.6560590369687036 1 I I #
point $-1 47.894188994671296 12.625574609103978 4.976582081585061 #
edge $-1 $548 1 $548 0 $328 $-1 forward 7 unknown #
vertex $-1 $329 $549 #
ellipse-curve $-1 45.387819612207529 15.750411911923443 3.6175870569003479 0.6560590369687036 0 0.75470957328743171 0.75470957328743171 0 -0.6560590369687036 1 I I #
point $-1 47.894188994671296 15.750411911923443 4.976582081585061 #
loop $-1 $-1 $550 $332 #
plane-surface $-1 -53.384197515793332 0 0 1 0 0 0 0 -1 forward_v I I I I #
coedge $-1 $466 $335 $343 $478 reversed $226 $-1 #
coedge $-1 $335 $465 $550 $551 reversed $226 $-1 #
coedge $-1 $472 $552 $337 $468 forward $463 $-1 #
edge $-1 $470 26.122199403359815 $476 36.984267139570832 $467 $553 forward 7 unknown #
coedge $-1 $343 $338 $552 $554 forward $333 $-1 #
vertex $-1 $554 $555 #
straight-curve $-1 -65.093477179974514 -5.519626240733448 11.061091855323468 -1 0 0 I I #
coedge $-1 $550 $467 $340 $473 forward $463 $-1 #
edge $-1 $476 -0.12607316798256196 $474 11.417471985414583 $472 $556 forward 7 unknown #
vertex $-1 $551 $557 #
straight-curve $-1 -53.38419751579336 -17.063171394130592 0.19902411911242268 -0.69465836192734942 0 -0.71933980857756763 I I #
vertex $-1 $473 $558 #
straight-curve $-1 -53.38419751579336 -5.519626240733448 0.19902411911242268 0.69465836192734942 0 0.71933980857756763 I I #
edge $-1 $559 11.709279664181182 $344 22.198656299266467 $343 $560 forward 7 unknown #
point $-1 -42.894820880708046 -17.063171394130592 11.06109185532347 #
point $-1 -42.894820880708046 -5.519626240733448 11.06109185532347 #
edge $-1 $561 1 $561 0 $347 $-1 forward 7 unknown #
vertex $-1 $348 $562 #
ellipse-curve $-1 -44.9470011061861 -11.29139881743202 2.5470888324054246 -0.71933980857756763 0 0.69465836192734942 1.0419875428910241 0 1.0790097128663514 1 I I #
point $-1 -47.09752165535965 -11.29139881743202 6.7090677000842973 #
plane-surface $-1 53.384197515793332 0 0 -1 0 0 0 0 1 forward_v I I I I #
coedge $-1 $356 $354 $358 $490 reversed $241 $-1 #
edge $-1 $369 -11.06109185532347 $492 11.06109185532347 $368 $563 forward 7 unknown #
vertex $-1 $490 $564 #
straight-curve $-1 -53.384197515793332 -26.414319111409569 0 0 0 -1 I I #
edge $-1 $488 -26.414319111409569 $492 26.414319111409569 $486 $565 forward 7 unknown #
straight-curve $-1 0 -26.414319111409569 -11.06109185532347 -1 0 0 I I #
vertex $-1 $361 $566 #
straight-curve $-1 0 26.414319111409569 -11.06109185532347 1 0 0 I I #
point $-1 53.384197515793332 26.414319111409569 -11.06109185532347 #
point $-1 53.384197515793332 -26.414319111409569 -11.06109185532347 #
straight-curve $-1 -53.384197515793332 0 11.06109185532347 0 -1 0 I I #
point $-1 -53.384197515793332 26.414319111409569 11.06109185532347 #
point $-1 -53.384197515793332 -26.414319111409569 11.06109185532347 #
straight-curve $-1 53.384197515793332 -26.414319111409569 0 0 0 -1 I I #
straight-curve $-1 53.384197515793332 26.414319111409569 0 0 0 -1 I I #
plane-surface $-1 53.384197515793332 0 0 -1 0 0 0 0 1 forward_v I I I I #
coedge $-1 $505 $381 $383 $504 forward $260 $-1 #
coedge $-1 $381 $505 $395 $515 reversed $260 $-1 #
edge $-1 $393 -4.1371105721924124 $509 -0.59892495335677332 $502 $567 forward 7 unknown #
coedge $-1 $503 $502 $384 $506 forward $260 $-1 #
edge $-1 $509 6.1937987677455517 $507 15.544946485024528 $505 $568 forward 7 unknown #
vertex $-1 $386 $569 #
straight-curve $-1 0 -26.414319111409569 2.9669427161313662 1 0 0 I I #
vertex $-1 $506 $570 #
straight-curve $-1 0 -17.063171394130592 2.9669427161313662 1 0 0 I I #
point $-1 53.384197515793332 -26.414319111409569 2.9669427161313662 #
point $-1 53.384197515793332 -17.063171394130592 2.9669427161313662 #
straight-curve $-1 -53.384197515793332 -10.86937262638504 6.5051283349670053 0 1 0 I I #
point $-1 -53.384197515793332 -17.063171394130592 6.5051283349670053 #
edge $-1 $397 -6.5051283349670053 $507 -2.9669427161313662 $503 $571 forward 7 unknown #
point $-1 -53.384197515793332 -26.414319111409569 6.5051283349670053 #
straight-curve $-1 53.384197515793332 -26.414319111409569 0 0 0 -1 I I #
straight-curve $-1 53.384197515793332 -17.063171394130592 2.3680177627745929 0 0 1 I I #
edge $-1 $520 -31.958478473774598 $523 -19.469042284955655 $404 $572 forward 7 unknown #
vertex $-1 $519 $573 #
straight-curve $-1 53.384197515793332 1.9336352795407628 75.414845329886816 0 0 1 I I #
edge $-1 $523 -3.5708487254532653 $415 6.8452756172782703 $414 $574 forward 7 unknown #
vertex $-1 $522 $575 #
straight-curve $-1 -27.194932339079401 1.9336352795407628 70.250560804900914 0.75470957328743171 0 -0.6560590369687036 I I #
point $-1 53.384197515793332 1.9336352795407628 0.20419038178403071 #
point $-1 40.89476132697439 -8.4824890631907728 11.061091855323468 #
straight-curve $-1 53.384197515793332 0 11.06109185532347 0 1 0 I I #
vertex $-1 $421 $576 #
point $-1 46.142529185494965 -6.3992641946444664 2.9615280199316443 #
vertex $-1 $425 $577 #
point $-1 46.142529185494965 -3.274426891825005 2.9615280199316443 #
vertex $-1 $429 $578 #
point $-1 46.142529185494965 -0.14958958900554364 2.9615280199316443 #
coedge $-1 $444 $443 $436 $535 forward $433 $-1 #
edge $-1 $536 -31.958478473774598 $539 -19.469042284955655 $534 $579 forward 7 unknown #
vertex $-1 $535 $580 #
straight-curve $-1 53.384197515793332 17.833636780469746 75.414845329886816 0 0 1 I I #
edge $-1 $539 -11.520849475917757 $445 -1.1047251331862213 $444 $581 forward 7 unknown #
vertex $-1 $538 $582 #
straight-curve $-1 -27.194932339079401 17.833636780469746 70.250560804900914 0.75470957328743171 0 -0.6560590369687036 I I #
point $-1 53.384197515793332 17.833636780469746 0.20419038178403071 #
point $-1 40.89476132697439 7.4175124377382105 11.061091855323468 #
straight-curve $-1 53.384197515793332 0 11.06109185532347 0 1 0 I I #
vertex $-1 $451 $583 #
point $-1 46.142529185494965 9.5007373062845204 2.9615280199316443 #
vertex $-1 $455 $584 #
point $-1 46.142529185494965 12.625574609103978 2.9615280199316443 #
vertex $-1 $459 $585 #
point $-1 46.142529185494965 15.750411911923443 2.9615280199316443 #
coedge $-1 $552 $472 $466 $551 forward $463 $-1 #
edge $-1 $474 -36.984267139570832 $559 -26.122199403359815 $550 $586 forward 7 unknown #
coedge $-1 $467 $550 $469 $554 reversed $463 $-1 #
straight-curve $-1 -53.384197515793332 -5.519626240733448 37.183291258683283 0 0 -1 I I #
edge $-1 $470 5.519626240733448 $559 17.063171394130592 $552 $587 forward 7 unknown #
point $-1 -53.384197515793332 -5.519626240733448 11.06109185532347 #
straight-curve $-1 -53.384197515793332 -5.6456994087160099 0.1990241191124506 0 -1 0 I I #
point $-1 -53.384197515793332 -17.063171394130592 0.1990241191124521 #
point $-1 -53.384197515793332 -5.519626240733448 0.1990241191124521 #
vertex $-1 $551 $588 #
straight-curve $-1 -65.093477179974514 -17.063171394130592 11.061091855323468 1 0 0 I I #
vertex $-1 $481 $589 #
point $-1 -43.905013563295078 -11.29139881743202 3.626098545271776 #
straight-curve $-1 -53.384197515793332 26.414319111409569 0 0 0 -1 I I #
point $-1 -53.384197515793332 -26.414319111409569 -11.06109185532347 #
straight-curve $-1 -53.384197515793332 0 -11.06109185532347 0 1 0 I I #
point $-1 -53.384197515793332 26.414319111409569 -11.06109185532347 #
straight-curve $-1 -53.384197515793332 -17.063171394130592 2.3680177627745929 0 0 -1 I I #
straight-curve $-1 -53.384197515793332 -10.86937262638504 2.9669427161313662 0 -1 0 I I #
point $-1 -53.384197515793332 -26.414319111409569 2.9669427161313662 #
point $-1 -53.384197515793332 -17.063171394130592 2.9669427161313662 #
straight-curve $-1 -53.384197515793332 -26.414319111409569 0 0 0 -1 I I #
straight-curve $-1 21.425719042018734 1.9336352795407628 11.061091855323468 -1 0 0 I I #
point $-1 53.384197515793332 1.9336352795407628 11.06109185532347 #
straight-curve $-1 40.894761326974383 -1.6372134459125025 11.061091855323475 0 -1 0 I I #
point $-1 40.89476132697439 1.9336352795407628 11.061091855323468 #
point $-1 44.73176057523883 -6.3992641946444664 2.8628774836129161 #
point $-1 44.73176057523883 -3.274426891825005 2.8628774836129161 #
point $-1 44.73176057523883 -0.14958958900554364 2.8628774836129161 #
straight-curve $-1 21.425719042018734 17.833636780469746 11.061091855323468 -1 0 0 I I #
point $-1 53.384197515793332 17.833636780469746 11.06109185532347 #
straight-curve $-1 40.894761326974383 6.3127873045519891 11.061091855323475 0 -1 0 I I #
point $-1 40.89476132697439 17.833636780469746 11.061091855323468 #
point $-1 44.73176057523883 9.5007373062845204 2.8628774836129161 #
point $-1 44.73176057523883 12.625574609103978 2.8628774836129161 #
point $-1 44.73176057523883 15.750411911923443 2.8628774836129161 #
straight-curve $-1 -53.384197515793332 -17.063171394130592 37.183291258683283 0 0 1 I I #
straight-curve $-1 -53.384197515793332 0 11.06109185532347 0 -1 0 I I #
point $-1 -53.384197515793332 -17.063171394130592 11.06109185532347 #
point $-1 -43.867991393319748 -11.29139881743202 1.5051012895144003 #
End-of-ACIS-data 