500 0 5 0           
7 Unknown 11 ACIS 5.0 NT 24 Thu Mar 25 17:20:56 1999 
-1 9.9999999999999995e-007 1e-010 
body $-1 $5 $-1 $6 #
body $-1 $7 $-1 $8 #
body $-1 $9 $-1 $10 #
body $-1 $11 $-1 $12 #
body $-1 $13 $-1 $14 #
lump $-1 $-1 $15 $0 #
transform $-1 1 0 0 0 1 0 0 0 1 79.912106692709131 44.701223364726836 20.89485816655483 1 rotate no_reflect no_shear #
lump $-1 $-1 $16 $1 #
transform $-1 1 0 0 0 1 0 0 0 1 79.912106692709131 44.701223364726836 20.89485816655483 1 rotate no_reflect no_shear #
lump $-1 $-1 $17 $2 #
transform $-1 1 0 0 0 1 0 0 0 1 79.912106692709131 44.701223364726836 20.89485816655483 1 rotate no_reflect no_shear #
lump $-1 $-1 $18 $3 #
transform $-1 1 0 0 0 1 0 0 0 1 79.912106692709131 44.701223364726836 20.89485816655483 1 rotate no_reflect no_shear #
lump $-1 $-1 $19 $4 #
transform $-1 1 0 0 0 1 0 0 0 1 79.912106692709131 44.701223364726836 20.89485816655483 1 rotate no_reflect no_shear #
shell $-1 $-1 $-1 $20 $-1 $5 #
shell $-1 $-1 $-1 $21 $-1 $7 #
shell $-1 $-1 $-1 $22 $-1 $9 #
shell $-1 $-1 $-1 $23 $-1 $11 #
shell $-1 $-1 $-1 $24 $-1 $13 #
face $-1 $25 $26 $15 $-1 $27 forward single #
face $-1 $28 $29 $16 $-1 $30 reversed single #
face $-1 $31 $32 $17 $-1 $33 forward single #
face $-1 $34 $35 $18 $-1 $36 forward single #
face $-1 $37 $38 $19 $-1 $39 reversed single #
face $-1 $40 $41 $15 $-1 $42 reversed single #
loop $-1 $-1 $43 $20 #
plane-surface $-1 0 0 20.89485816655483 0 0 1 1 0 0 forward_v I I I I #
face $-1 $44 $45 $16 $-1 $46 forward single #
loop $-1 $-1 $47 $21 #
plane-surface $-1 0 -37.160517938892689 -9.8184853713210849 0 0 1 1 0 0 forward_v I I I I #
face $-1 $48 $49 $17 $-1 $50 forward single #
loop $-1 $-1 $51 $22 #
plane-surface $-1 -72.47923685302473 21.656554860426517 0 0 1 0 0 0 1 forward_v I I I I #
face $-1 $52 $53 $18 $-1 $36 forward single #
loop $-1 $-1 $54 $23 #
plane-surface $-1 -205.85530684640958 21.656554860426517 99.009268643410422 0 -1 0 0.78801076186113728 0 -0.61566146476048833 forward_v I I I I #
face $-1 $55 $56 $19 $-1 $57 reversed single #
loop $-1 $58 $59 $24 #
cone-surface $-1 -71.594615674034998 16.923406752317582 10.445428014072643 0.78801076186113728 0 -0.61566146476048833 0.30783073238024417 0 0.39400538093056864 1 I I 0 1 0.5 forward I I I I #
face $-1 $60 $61 $15 $-1 $62 reversed single #
loop $-1 $-1 $63 $25 #
plane-surface $-1 0 0 -20.89485816655483 0 0 1 1 0 0 forward_v I I I I #
coedge $-1 $64 $65 $66 $67 forward $26 $-1 #
face $-1 $68 $69 $16 $-1 $70 reversed single #
loop $-1 $-1 $71 $28 #
plane-surface $-1 0 -29.619812513058541 -15.356671768937957 0 -1 0 0 0 -1 forward_v I I I I #
coedge $-1 $72 $73 $74 $75 reversed $29 $-1 #
face $-1 $76 $77 $17 $-1 $78 forward single #
loop $-1 $-1 $79 $31 #
plane-surface $-1 -76.895744259126673 33.178889112576677 0 1 0 0 0 0 -1 forward_v I I I I #
coedge $-1 $80 $81 $82 $83 reversed $32 $-1 #
face $-1 $84 $85 $18 $-1 $86 forward single #
loop $-1 $-1 $87 $34 #
coedge $-1 $88 $89 $90 $91 reversed $35 $-1 #
face $-1 $92 $93 $19 $-1 $94 forward single #
loop $-1 $95 $96 $37 #
cone-surface $-1 -71.00360760263915 16.923406752317582 9.9836819155022773 0.78801076186113728 0 -0.61566146476048833 0.15391536619012208 0 0.19700269046528432 1 I I -0.70710678118654746 0.70710678118654746 0.25 forward I I I I #
loop $-1 $-1 $97 $24 #
coedge $-1 $59 $59 $98 $99 reversed $38 $-1 #
face $-1 $100 $101 $15 $-1 $102 reversed single #
loop $-1 $-1 $103 $40 #
plane-surface $-1 0 -44.701223364726836 0 0 1 0 0 0 1 forward_v I I I I #
coedge $-1 $104 $105 $106 $107 forward $41 $-1 #
coedge $-1 $108 $43 $109 $110 forward $26 $-1 #
coedge $-1 $43 $108 $111 $112 forward $26 $-1 #
coedge $-1 $113 $114 $43 $67 reversed $115 $-1 #
edge $-1 $116 -44.701223364726836 $117 44.701223364726836 $66 $118 forward 7 unknown #
face $-1 $119 $120 $16 $-1 $121 reversed single #
loop $-1 $-1 $122 $44 #
plane-surface $-1 0 -44.701223364726836 0 0 1 0 0 0 1 forward_v I I I I #
coedge $-1 $123 $124 $125 $126 reversed $45 $-1 #
coedge $-1 $127 $47 $122 $128 reversed $29 $-1 #
coedge $-1 $47 $127 $123 $129 reversed $29 $-1 #
coedge $-1 $125 $130 $47 $75 forward $131 $-1 #
edge $-1 $132 -26.120964395280492 $133 -11.039553543612197 $74 $134 forward 7 unknown #
face $-1 $135 $136 $17 $-1 $137 reversed single #
loop $-1 $-1 $138 $48 #
plane-surface $-1 -68.062729446922788 33.178889112576677 0 -1 0 0 0 0 1 forward_v I I I I #
coedge $-1 $139 $140 $141 $142 reversed $49 $-1 #
coedge $-1 $143 $51 $144 $145 reversed $32 $-1 #
coedge $-1 $51 $143 $146 $147 reversed $32 $-1 #
coedge $-1 $140 $139 $51 $83 forward $49 $-1 #
edge $-1 $148 -20.89485816655483 $149 20.89485816655483 $82 $150 forward 7 unknown #
face $-1 $151 $152 $18 $-1 $153 forward single #
loop $-1 $-1 $154 $52 #
plane-surface $-1 -205.85530684640958 12.190258644208647 99.009268643410422 0 1 0 -0.78801076186113728 0 0.61566146476048833 forward_v I I I I #
coedge $-1 $155 $156 $157 $158 forward $53 $-1 #
coedge $-1 $159 $54 $160 $161 reversed $35 $-1 #
coedge $-1 $54 $159 $162 $163 forward $35 $-1 #
coedge $-1 $164 $165 $54 $91 forward $166 $-1 #
edge $-1 $167 -20.89485816655483 $168 -4.4724272895713906 $90 $169 forward 7 unknown #
face $-1 $170 $171 $19 $-1 $94 forward single #
loop $-1 $-1 $172 $55 #
plane-surface $-1 -205.85530684640958 21.656554860426517 99.009268643410422 0 -1 0 0.78801076186113728 0 -0.61566146476048833 forward_v I I I I #
loop $-1 $-1 $173 $37 #
coedge $-1 $96 $96 $97 $174 forward $56 $-1 #
coedge $-1 $97 $97 $96 $174 reversed $58 $-1 #
coedge $-1 $98 $98 $59 $99 forward $175 $-1 #
edge $-1 $176 0 $176 6.2831853071796004 $98 $177 forward 7 unknown #
face $-1 $178 $179 $15 $-1 $180 reversed single #
loop $-1 $-1 $181 $60 #
plane-surface $-1 -79.912106692709131 0 0 1 0 0 0 0 -1 forward_v I I I I #
coedge $-1 $182 $111 $183 $184 forward $61 $-1 #
coedge $-1 $185 $63 $182 $186 forward $41 $-1 #
coedge $-1 $63 $185 $187 $188 forward $41 $-1 #
coedge $-1 $114 $113 $63 $107 reversed $115 $-1 #
edge $-1 $189 -44.701223364726836 $190 44.701223364726836 $106 $191 forward 7 unknown #
coedge $-1 $65 $64 $192 $193 forward $26 $-1 #
coedge $-1 $194 $195 $64 $110 reversed $179 $-1 #
edge $-1 $117 -79.912106692709131 $196 79.912106692709131 $109 $197 forward 7 unknown #
coedge $-1 $103 $198 $65 $112 reversed $61 $-1 #
edge $-1 $199 -79.912106692709131 $116 79.912106692709131 $111 $200 forward 7 unknown #
coedge $-1 $106 $66 $198 $201 forward $115 $-1 #
coedge $-1 $66 $106 $194 $202 reversed $115 $-1 #
loop $-1 $-1 $113 $178 #
vertex $-1 $67 $203 #
vertex $-1 $67 $204 #
straight-curve $-1 79.912106692709131 0 20.89485816655483 0 1 0 I I #
face $-1 $205 $206 $16 $-1 $207 forward single #
loop $-1 $-1 $208 $68 #
plane-surface $-1 0 0 -20.89485816655483 0 0 1 1 0 0 forward_v I I I I #
coedge $-1 $209 $210 $72 $128 forward $69 $-1 #
coedge $-1 $211 $71 $73 $129 forward $45 $-1 #
coedge $-1 $71 $211 $208 $212 reversed $45 $-1 #
coedge $-1 $213 $74 $71 $126 forward $131 $-1 #
edge $-1 $133 2.1401494868521063 $214 13.216522282085851 $125 $215 forward 7 unknown #
coedge $-1 $73 $72 $216 $217 reversed $29 $-1 #
edge $-1 $218 -79.912106692709131 $132 79.912106692709131 $122 $219 forward 7 unknown #
edge $-1 $133 -79.912106692709131 $220 79.912106692709131 $123 $221 forward 7 unknown #
coedge $-1 $74 $222 $209 $223 forward $131 $-1 #
loop $-1 $-1 $125 $224 #
vertex $-1 $128 $225 #
vertex $-1 $75 $226 #
straight-curve $-1 79.912106692709131 -18.580258969446344 -9.8184853713210849 0 1 0 I I #
face $-1 $227 $228 $17 $-1 $229 reversed single #
loop $-1 $-1 $230 $76 #
plane-surface $-1 0 0 -20.89485816655483 0 0 1 1 0 0 forward_v I I I I #
coedge $-1 $231 $232 $143 $233 reversed $77 $-1 #
coedge $-1 $82 $79 $234 $235 reversed $49 $-1 #
coedge $-1 $79 $82 $230 $236 reversed $49 $-1 #
coedge $-1 $237 $238 $79 $142 forward $239 $-1 #
edge $-1 $240 -20.89485816655483 $241 20.89485816655483 $141 $242 forward 7 unknown #
coedge $-1 $81 $80 $138 $233 forward $32 $-1 #
coedge $-1 $234 $243 $80 $145 forward $244 $-1 #
edge $-1 $245 31.823111020410423 $148 40.656125832614308 $144 $246 forward 7 unknown #
coedge $-1 $247 $230 $81 $147 forward $136 $-1 #
edge $-1 $149 -40.656125832614308 $248 -31.823111020410423 $146 $249 forward 7 unknown #
vertex $-1 $145 $250 #
vertex $-1 $147 $251 #
straight-curve $-1 -76.895744259126673 21.656554860426517 0 0 0 -1 I I #
face $-1 $252 $253 $18 $-1 $254 forward single #
loop $-1 $-1 $255 $84 #
plane-surface $-1 -79.912106692709159 16.923406752317582 0.6116593263509742 -0.78801076186113728 0 0.61566146476048833 0.61566146476048833 0 0.78801076186113728 forward_v I I I I #
coedge $-1 $256 $257 $258 $259 reversed $85 $-1 #
coedge $-1 $156 $87 $260 $261 forward $53 $-1 #
coedge $-1 $87 $155 $262 $263 reversed $53 $-1 #
coedge $-1 $264 $265 $87 $158 reversed $266 $-1 #
edge $-1 $267 -20.89485816655483 $268 -15.778170997931232 $157 $269 forward 7 unknown #
coedge $-1 $89 $88 $270 $271 reversed $35 $-1 #
coedge $-1 $272 $273 $88 $161 forward $253 $-1 #
edge $-1 $274 23.015546730495657 $167 26.031909164078115 $160 $275 forward 7 unknown #
coedge $-1 $276 $277 $89 $163 reversed $152 $-1 #
edge $-1 $278 4.6193811539156697e-014 $168 4.8993848181742958 $89 $279 forward 7 unknown #
coedge $-1 $280 $90 $281 $282 forward $166 $-1 #
coedge $-1 $90 $283 $272 $284 reversed $166 $-1 #
loop $-1 $-1 $283 $285 #
vertex $-1 $161 $286 #
vertex $-1 $282 $287 #
straight-curve $-1 -76.895744259126673 21.656554860426517 0 0 0 -1 I I #
face $-1 $288 $289 $19 $-1 $290 forward single #
loop $-1 $-1 $291 $92 #
coedge $-1 $292 $293 $294 $295 reversed $93 $-1 #
coedge $-1 $173 $173 $-1 $296 forward $95 $-1 #
edge $-1 $297 0 $297 6.2831853071796004 $96 $298 forward 7 unknown #
loop $-1 $299 $98 $288 #
vertex $-1 $99 $300 #
ellipse-curve $-1 -71.988621054965606 16.923406752317582 10.753258746452914 0.78801076186113728 0 -0.61566146476048833 0.30783073238024417 0 0.39400538093056864 1 I I #
face $-1 $-1 $115 $15 $-1 $301 reversed single #
loop $-1 $-1 $194 $100 #
plane-surface $-1 0 44.701223364726836 0 0 -1 0 0 0 -1 forward_v I I I I #
coedge $-1 $302 $192 $195 $303 forward $101 $-1 #
coedge $-1 $198 $103 $104 $186 reversed $61 $-1 #
coedge $-1 $192 $302 $103 $184 reversed $101 $-1 #
edge $-1 $199 -20.89485816655483 $304 20.89485816655483 $183 $305 forward 7 unknown #
coedge $-1 $105 $104 $302 $306 forward $41 $-1 #
edge $-1 $190 -79.912106692709131 $304 79.912106692709131 $182 $307 forward 7 unknown #
coedge $-1 $195 $194 $105 $188 reversed $179 $-1 #
edge $-1 $308 -79.912106692709131 $189 79.912106692709131 $187 $309 forward 7 unknown #
vertex $-1 $107 $310 #
vertex $-1 $201 $311 #
straight-curve $-1 79.912106692709131 0 -20.89485816655483 0 -1 0 I I #
coedge $-1 $181 $183 $108 $193 reversed $101 $-1 #
edge $-1 $196 -44.701223364726836 $199 44.701223364726836 $192 $312 forward 7 unknown #
coedge $-1 $187 $109 $114 $202 forward $179 $-1 #
coedge $-1 $109 $187 $181 $303 reversed $179 $-1 #
vertex $-1 $110 $313 #
straight-curve $-1 0 44.701223364726836 20.89485816655483 -1 0 0 I I #
coedge $-1 $111 $182 $113 $201 reversed $61 $-1 #
vertex $-1 $193 $314 #
straight-curve $-1 0 -44.701223364726836 20.89485816655483 1 0 0 I I #
edge $-1 $116 -20.89485816655483 $190 20.89485816655483 $113 $315 forward 7 unknown #
edge $-1 $117 -20.89485816655483 $189 20.89485816655483 $114 $316 forward 7 unknown #
point $-1 79.912106692709131 -44.701223364726836 20.89485816655483 #
point $-1 79.912106692709131 44.701223364726836 20.89485816655483 #
face $-1 $317 $318 $16 $-1 $319 reversed single #
loop $-1 $-1 $320 $119 #
plane-surface $-1 0 0 20.89485816655483 0 0 1 1 0 0 forward_v I I I I #
coedge $-1 $321 $322 $124 $212 forward $120 $-1 #
coedge $-1 $323 $122 $130 $223 reversed $69 $-1 #
coedge $-1 $122 $323 $324 $325 forward $69 $-1 #
coedge $-1 $124 $123 $326 $327 reversed $45 $-1 #
edge $-1 $214 -79.912106692709131 $328 79.912106692709131 $208 $329 forward 7 unknown #
coedge $-1 $330 $125 $322 $331 reversed $131 $-1 #
vertex $-1 $212 $332 #
straight-curve $-1 79.912106692709131 -29.619812513058541 -7.6783358844689786 0 0 -1 I I #
coedge $-1 $324 $326 $127 $217 forward $318 $-1 #
edge $-1 $220 11.039553543612197 $218 26.120964395280492 $216 $333 forward 7 unknown #
vertex $-1 $128 $334 #
straight-curve $-1 0 -44.701223364726836 -9.8184853713210849 1 0 0 I I #
vertex $-1 $217 $335 #
straight-curve $-1 0 -29.619812513058541 -9.8184853713210849 -1 0 0 I I #
coedge $-1 $130 $330 $320 $336 reversed $131 $-1 #
edge $-1 $337 -20.89485816655483 $132 9.8184853713210849 $130 $338 forward 7 unknown #
face $-1 $-1 $131 $16 $-1 $339 reversed single #
point $-1 79.912106692709131 -44.701223364726836 -9.8184853713210849 #
point $-1 79.912106692709131 -29.619812513058541 -9.8184853713210849 #
face $-1 $340 $341 $17 $-1 $342 reversed single #
loop $-1 $-1 $343 $135 #
plane-surface $-1 0 44.701223364726836 0 0 -1 0 0 0 -1 forward_v I I I I #
coedge $-1 $146 $344 $140 $236 forward $136 $-1 #
coedge $-1 $345 $138 $243 $346 reversed $77 $-1 #
coedge $-1 $138 $345 $247 $347 reversed $77 $-1 #
edge $-1 $245 -20.89485816655483 $248 20.89485816655483 $138 $348 forward 7 unknown #
coedge $-1 $349 $144 $139 $235 forward $244 $-1 #
edge $-1 $148 5.0671103041381791 $240 28.111778808438498 $234 $350 forward 7 unknown #
edge $-1 $241 -28.111778808438498 $149 -5.0671103041381791 $230 $351 forward 7 unknown #
coedge $-1 $352 $141 $344 $353 reversed $239 $-1 #
coedge $-1 $141 $352 $349 $354 reversed $239 $-1 #
loop $-1 $-1 $141 $355 #
vertex $-1 $354 $356 #
vertex $-1 $142 $357 #
straight-curve $-1 -76.895744259126673 44.701223364726836 0 0 0 -1 I I #
coedge $-1 $144 $358 $231 $346 forward $244 $-1 #
loop $-1 $-1 $234 $359 #
vertex $-1 $145 $360 #
straight-curve $-1 -36.239618426512365 21.656554860426517 20.89485816655483 -1 0 0 I I #
coedge $-1 $361 $146 $232 $347 forward $136 $-1 #
vertex $-1 $147 $362 #
straight-curve $-1 -36.239618426512365 21.656554860426517 -20.89485816655483 1 0 0 I I #
point $-1 -76.895744259126673 21.656554860426517 20.89485816655483 #
point $-1 -76.895744259126673 21.656554860426517 -20.89485816655483 #
face $-1 $363 $364 $18 $-1 $254 forward single #
loop $-1 $-1 $160 $151 #
plane-surface $-1 0 0 20.89485816655483 0 0 1 1 0 0 forward_v I I I I #
coedge $-1 $260 $365 $366 $367 reversed $152 $-1 #
coedge $-1 $257 $154 $365 $368 forward $85 $-1 #
coedge $-1 $154 $256 $369 $370 reversed $85 $-1 #
coedge $-1 $371 $366 $154 $259 forward $364 $-1 #
edge $-1 $372 -38.862518005982722 $373 -23.015546730495657 $258 $374 forward 7 unknown #
coedge $-1 $277 $255 $155 $261 reversed $152 $-1 #
edge $-1 $268 19.246579368738228 $375 25.739748518533744 $155 $279 forward 7 unknown #
coedge $-1 $366 $376 $156 $263 forward $364 $-1 #
edge $-1 $267 34.864923976282 $375 38.862518005982722 $262 $275 forward 7 unknown #
coedge $-1 $377 $157 $376 $378 reversed $266 $-1 #
coedge $-1 $157 $379 $380 $381 reversed $266 $-1 #
loop $-1 $-1 $157 $382 #
vertex $-1 $263 $383 #
vertex $-1 $381 $384 #
straight-curve $-1 -68.062729446922788 21.656554860426517 0 0 0 -1 I I #
coedge $-1 $385 $386 $159 $271 forward $387 $-1 #
edge $-1 $278 -48.892974995354201 $274 -28.609776155150382 $270 $388 forward 7 unknown #
coedge $-1 $389 $160 $165 $284 forward $253 $-1 #
coedge $-1 $160 $389 $385 $390 forward $253 $-1 #
vertex $-1 $271 $391 #
straight-curve $-1 -102.92765342320479 21.656554860426517 20.894858166554826 1 0 0 I I #
coedge $-1 $365 $162 $386 $392 reversed $152 $-1 #
coedge $-1 $162 $260 $393 $394 reversed $152 $-1 #
vertex $-1 $392 $395 #
straight-curve $-1 -79.912106692709159 21.656554860426517 0.6116593263509742 0.61566146476048833 0 0.78801076186113728 I I #
coedge $-1 $283 $164 $396 $397 reversed $166 $-1 #
coedge $-1 $393 $398 $164 $282 reversed $399 $-1 #
edge $-1 $168 -4.4724272895713906 $400 20.89485816655483 $164 $169 forward 7 unknown #
coedge $-1 $165 $280 $401 $402 reversed $166 $-1 #
edge $-1 $167 5.0671103041381791 $403 28.111778808438498 $272 $404 forward 7 unknown #
face $-1 $382 $166 $18 $-1 $405 forward single #
point $-1 -76.895744259126673 21.656554860426517 20.89485816655483 #
point $-1 -76.895744259126673 21.656554860426517 4.4724272895713906 #
face $-1 $406 $175 $19 $-1 $407 forward single #
loop $-1 $-1 $408 $170 #
plane-surface $-1 -205.85530684640958 12.190258644208647 99.009268643410422 0 1 0 -0.78801076186113728 0 0.61566146476048833 forward_v I I I I #
coedge $-1 $409 $410 $411 $412 forward $171 $-1 #
coedge $-1 $413 $172 $414 $415 reversed $93 $-1 #
coedge $-1 $172 $413 $416 $417 forward $93 $-1 #
coedge $-1 $418 $419 $172 $295 forward $420 $-1 #
edge $-1 $421 -20.89485816655483 $422 -4.4724272895713906 $294 $423 forward 7 unknown #
edge $-1 $424 1 $424 0 $173 $-1 forward 7 unknown #
vertex $-1 $174 $425 #
ellipse-curve $-1 -71.200610293104432 16.923406752317582 10.137597281692399 -0.78801076186113728 0 0.61566146476048833 0.30783073238024417 0 0.39400538093056864 1 I I #
loop $-1 $-1 $426 $288 #
point $-1 -71.680790322585324 16.923406752317582 11.147264127383457 #
plane-surface $-1 79.912106692709131 0 0 -1 0 0 0 0 1 forward_v I I I I #
coedge $-1 $183 $181 $185 $306 reversed $101 $-1 #
edge $-1 $196 -20.89485816655483 $308 20.89485816655483 $195 $427 forward 7 unknown #
vertex $-1 $306 $428 #
straight-curve $-1 -79.912106692709131 -44.701223364726836 0 0 0 -1 I I #
edge $-1 $304 -44.701223364726836 $308 44.701223364726836 $302 $429 forward 7 unknown #
straight-curve $-1 0 -44.701223364726836 -20.89485816655483 -1 0 0 I I #
vertex $-1 $188 $430 #
straight-curve $-1 0 44.701223364726836 -20.89485816655483 1 0 0 I I #
point $-1 79.912106692709131 44.701223364726836 -20.89485816655483 #
point $-1 79.912106692709131 -44.701223364726836 -20.89485816655483 #
straight-curve $-1 -79.912106692709131 0 20.89485816655483 0 -1 0 I I #
point $-1 -79.912106692709131 44.701223364726836 20.89485816655483 #
point $-1 -79.912106692709131 -44.701223364726836 20.89485816655483 #
straight-curve $-1 79.912106692709131 -44.701223364726836 0 0 0 -1 I I #
straight-curve $-1 79.912106692709131 44.701223364726836 0 0 0 -1 I I #
face $-1 $224 $431 $16 $-1 $432 reversed single #
loop $-1 $-1 $216 $205 #
plane-surface $-1 -79.912106692709131 0 0 1 0 0 0 0 -1 forward_v I I I I #
coedge $-1 $433 $434 $222 $336 forward $206 $-1 #
coedge $-1 $435 $208 $436 $437 forward $120 $-1 #
coedge $-1 $208 $435 $213 $331 forward $120 $-1 #
coedge $-1 $210 $209 $434 $438 reversed $69 $-1 #
coedge $-1 $439 $216 $210 $325 reversed $318 $-1 #
edge $-1 $440 -20.89485816655483 $218 9.8184853713210849 $324 $441 forward 7 unknown #
coedge $-1 $216 $436 $211 $327 forward $318 $-1 #
edge $-1 $328 -13.216522282085851 $220 -2.1401494868521063 $326 $442 forward 7 unknown #
vertex $-1 $437 $443 #
straight-curve $-1 0 -29.619812513058541 -20.89485816655483 -1 0 0 I I #
coedge $-1 $222 $213 $444 $445 reversed $131 $-1 #
edge $-1 $446 -44.701223364726836 $214 29.619812513058541 $213 $447 forward 7 unknown #
point $-1 79.912106692709131 -29.619812513058541 -20.89485816655483 #
straight-curve $-1 -79.912106692709131 -18.580258969446344 -9.8184853713210849 0 -1 0 I I #
point $-1 -79.912106692709131 -44.701223364726836 -9.8184853713210849 #
point $-1 -79.912106692709131 -29.619812513058541 -9.8184853713210849 #
edge $-1 $337 -44.701223364726836 $448 44.701223364726836 $222 $449 forward 7 unknown #
vertex $-1 $336 $450 #
straight-curve $-1 79.912106692709131 -44.701223364726836 0 0 0 -1 I I #
plane-surface $-1 79.912106692709131 0 0 -1 0 0 0 0 1 forward_v I I I I #
face $-1 $451 $452 $17 $-1 $453 forward single #
loop $-1 $-1 $454 $227 #
plane-surface $-1 0 -37.160517938892689 -9.8184853713210849 0 0 1 1 0 0 forward_v I I I I #
coedge $-1 $455 $456 $345 $457 forward $228 $-1 #
coedge $-1 $230 $458 $237 $353 forward $136 $-1 #
coedge $-1 $232 $231 $343 $457 reversed $77 $-1 #
edge $-1 $459 -28.111778808438498 $245 -5.0671103041381791 $243 $460 forward 7 unknown #
edge $-1 $248 5.0671103041381791 $461 28.111778808438498 $247 $462 forward 7 unknown #
straight-curve $-1 -68.062729446922788 21.656554860426517 0 0 0 -1 I I #
coedge $-1 $463 $234 $238 $354 forward $244 $-1 #
straight-curve $-1 -76.895744259126673 16.589444556288338 20.89485816655483 0 1 0 I I #
straight-curve $-1 -76.895744259126673 16.589444556288338 -20.89485816655483 0 -1 0 I I #
coedge $-1 $238 $237 $464 $465 reversed $239 $-1 #
edge $-1 $466 -79.912106692709131 $241 -76.895744259126673 $237 $467 forward 7 unknown #
edge $-1 $240 76.895744259126673 $468 79.912106692709131 $238 $469 forward 7 unknown #
face $-1 $470 $239 $17 $-1 $229 reversed single #
point $-1 -76.895744259126673 44.701223364726836 20.89485816655483 #
point $-1 -76.895744259126673 44.701223364726836 -20.89485816655483 #
coedge $-1 $243 $471 $455 $472 forward $244 $-1 #
face $-1 $473 $244 $17 $-1 $474 forward single #
point $-1 -68.062729446922788 21.656554860426517 20.89485816655483 #
coedge $-1 $475 $247 $456 $476 forward $136 $-1 #
point $-1 -68.062729446922788 21.656554860426517 -20.89485816655483 #
face $-1 $285 $399 $18 $-1 $477 forward single #
loop $-1 $-1 $262 $252 #
coedge $-1 $255 $276 $256 $368 reversed $152 $-1 #
coedge $-1 $258 $262 $255 $367 forward $364 $-1 #
edge $-1 $375 -13.194851484267726 $372 -3.7285552680498562 $366 $478 forward 7 unknown #
edge $-1 $372 -25.739748518533744 $479 -4.6193811539156697e-014 $256 $480 forward 7 unknown #
coedge $-1 $386 $481 $257 $370 forward $387 $-1 #
edge $-1 $373 28.609776155150382 $479 48.892974995354201 $369 $482 forward 7 unknown #
coedge $-1 $483 $258 $481 $484 forward $364 $-1 #
vertex $-1 $367 $485 #
vertex $-1 $484 $486 #
straight-curve $-1 -102.92765342320479 12.190258644208647 20.894858166554826 -1 0 0 I I #
vertex $-1 $367 $487 #
coedge $-1 $262 $488 $264 $378 forward $364 $-1 #
coedge $-1 $379 $264 $489 $490 reversed $266 $-1 #
edge $-1 $491 -28.111778808438498 $267 -5.0671103041381791 $376 $492 forward 7 unknown #
coedge $-1 $265 $377 $493 $494 reversed $266 $-1 #
coedge $-1 $398 $393 $265 $381 forward $399 $-1 #
edge $-1 $268 -15.778170997931232 $495 20.89485816655483 $265 $269 forward 7 unknown #
face $-1 $496 $266 $18 $-1 $497 forward single #
point $-1 -68.062729446922788 21.656554860426517 20.89485816655483 #
point $-1 -68.062729446922788 21.656554860426517 15.778170997931232 #
coedge $-1 $498 $270 $273 $390 reversed $387 $-1 #
coedge $-1 $270 $369 $276 $392 forward $387 $-1 #
loop $-1 $-1 $270 $499 #
straight-curve $-1 -79.912106692709131 21.656554860426517 49.504634321705211 0 0 1 I I #
coedge $-1 $273 $272 $500 $501 forward $253 $-1 #
edge $-1 $502 -44.701223364726836 $274 -21.656554860426517 $385 $503 forward 7 unknown #
point $-1 -79.912106692709131 21.656554860426517 20.89485816655483 #
edge $-1 $479 3.7285552680498562 $278 13.194851484267726 $386 $504 forward 7 unknown #
coedge $-1 $380 $281 $277 $394 forward $399 $-1 #
edge $-1 $168 2.8523161176158593 $268 17.199510668179791 $393 $505 forward 7 unknown #
point $-1 -79.912106692709131 21.656554860426517 0.61165932635101061 #
coedge $-1 $506 $507 $280 $397 forward $508 $-1 #
edge $-1 $509 -28.111778808438498 $400 -5.0671103041381791 $396 $510 forward 7 unknown #
coedge $-1 $281 $380 $506 $511 reversed $399 $-1 #
loop $-1 $-1 $393 $363 #
vertex $-1 $511 $512 #
coedge $-1 $513 $500 $283 $402 forward $514 $-1 #
edge $-1 $403 -20.89485816655483 $509 20.89485816655483 $401 $515 forward 7 unknown #
vertex $-1 $501 $516 #
straight-curve $-1 -76.895744259126673 16.589444556288338 20.89485816655483 0 1 0 I I #
plane-surface $-1 -76.895744259126673 33.178889112576677 0 1 0 0 0 0 -1 forward_v I I I I #
face $-1 $517 $518 $19 $-1 $519 forward single #
plane-surface $-1 -79.912106692709159 16.923406752317582 0.6116593263509742 -0.78801076186113728 0 0.61566146476048833 0.61566146476048833 0 0.78801076186113728 forward_v I I I I #
coedge $-1 $520 $521 $522 $523 reversed $289 $-1 #
coedge $-1 $410 $291 $524 $525 forward $171 $-1 #
coedge $-1 $291 $409 $526 $527 reversed $171 $-1 #
coedge $-1 $528 $529 $291 $412 reversed $530 $-1 #
edge $-1 $531 -20.89485816655483 $532 -15.778170997931232 $411 $533 forward 7 unknown #
coedge $-1 $293 $292 $534 $535 reversed $93 $-1 #
coedge $-1 $536 $537 $292 $415 forward $518 $-1 #
edge $-1 $538 23.015546730495657 $421 26.031909164078115 $414 $539 forward 7 unknown #
coedge $-1 $540 $541 $293 $417 reversed $299 $-1 #
edge $-1 $542 4.6193811539156697e-014 $422 4.8993848181742958 $293 $543 forward 7 unknown #
coedge $-1 $544 $294 $545 $546 forward $420 $-1 #
coedge $-1 $294 $547 $536 $548 reversed $420 $-1 #
loop $-1 $-1 $547 $549 #
vertex $-1 $415 $550 #
vertex $-1 $546 $551 #
straight-curve $-1 -76.895744259126673 21.656554860426517 0 0 0 -1 I I #
vertex $-1 $296 $552 #
point $-1 -70.892779560724193 16.923406752317582 10.531602662622968 #
coedge $-1 $524 $553 $554 $555 reversed $299 $-1 #
straight-curve $-1 -79.912106692709131 44.701223364726836 0 0 0 -1 I I #
point $-1 -79.912106692709131 -44.701223364726836 -20.89485816655483 #
straight-curve $-1 -79.912106692709131 0 -20.89485816655483 0 1 0 I I #
point $-1 -79.912106692709131 44.701223364726836 -20.89485816655483 #
loop $-1 $-1 $444 $317 #
plane-surface $-1 0 44.701223364726836 0 0 -1 0 0 0 -1 forward_v I I I I #
coedge $-1 $556 $320 $557 $558 forward $206 $-1 #
coedge $-1 $320 $556 $323 $438 forward $206 $-1 #
coedge $-1 $322 $321 $559 $560 forward $120 $-1 #
coedge $-1 $326 $561 $321 $437 reversed $318 $-1 #
edge $-1 $328 -29.619812513058541 $562 44.701223364726836 $436 $563 forward 7 unknown #
edge $-1 $440 -79.912106692709131 $337 79.912106692709131 $323 $564 forward 7 unknown #
coedge $-1 $561 $324 $556 $565 reversed $318 $-1 #
vertex $-1 $565 $566 #
straight-curve $-1 -79.912106692709131 -44.701223364726836 0 0 0 -1 I I #
straight-curve $-1 -79.912106692709131 -29.619812513058541 -7.6783358844689786 0 0 1 I I #
point $-1 -79.912106692709131 -29.619812513058541 -20.89485816655483 #
coedge $-1 $559 $557 $330 $445 forward $431 $-1 #
edge $-1 $448 -20.89485816655483 $446 20.89485816655483 $330 $567 forward 7 unknown #
vertex $-1 $331 $568 #
straight-curve $-1 79.912106692709131 0 -20.89485816655483 0 -1 0 I I #
vertex $-1 $336 $569 #
straight-curve $-1 79.912106692709131 0 20.89485816655483 0 1 0 I I #
point $-1 79.912106692709131 -44.701223364726836 20.89485816655483 #
face $-1 $359 $570 $17 $-1 $571 reversed single #
loop $-1 $-1 $572 $340 #
plane-surface $-1 0 -29.619812513058541 -15.356671768937957 0 -1 0 0 0 -1 forward_v I I I I #
coedge $-1 $573 $574 $575 $576 reversed $341 $-1 #
coedge $-1 $577 $343 $358 $472 reversed $228 $-1 #
coedge $-1 $343 $577 $361 $476 reversed $228 $-1 #
edge $-1 $461 -20.89485816655483 $459 20.89485816655483 $343 $578 forward 7 unknown #
coedge $-1 $344 $579 $580 $581 forward $136 $-1 #
vertex $-1 $346 $582 #
straight-curve $-1 -68.062729446922788 16.589444556288338 20.89485816655483 0 -1 0 I I #
vertex $-1 $476 $583 #
straight-curve $-1 -68.062729446922788 16.589444556288338 -20.89485816655483 0 1 0 I I #
coedge $-1 $584 $349 $585 $586 forward $244 $-1 #
coedge $-1 $580 $585 $352 $465 forward $587 $-1 #
edge $-1 $468 -20.89485816655483 $466 20.89485816655483 $352 $588 forward 7 unknown #
vertex $-1 $353 $589 #
straight-curve $-1 0 44.701223364726836 -20.89485816655483 1 0 0 I I #
vertex $-1 $354 $590 #
straight-curve $-1 0 44.701223364726836 20.89485816655483 -1 0 0 I I #
face $-1 $-1 $591 $17 $-1 $592 reversed single #
coedge $-1 $358 $584 $593 $594 forward $244 $-1 #
edge $-1 $595 -79.912106692709131 $459 68.062729446922788 $455 $469 forward 7 unknown #
face $-1 $355 $587 $17 $-1 $596 reversed single #
plane-surface $-1 0 0 20.89485816655483 0 0 1 1 0 0 forward_v I I I I #
coedge $-1 $579 $361 $597 $598 forward $136 $-1 #
edge $-1 $461 -68.062729446922788 $599 79.912106692709131 $456 $467 forward 7 unknown #
plane-surface $-1 -72.47923685302473 21.656554860426517 0 0 1 0 0 0 1 forward_v I I I I #
straight-curve $-1 -64.065135417222066 8.4617033761587912 20.89485816655483 0 -1 0 I I #
vertex $-1 $392 $600 #
straight-curve $-1 -79.912106692709159 12.190258644208647 0.6116593263509742 -0.61566146476048833 0 -0.78801076186113728 I I #
coedge $-1 $369 $601 $371 $484 reversed $387 $-1 #
straight-curve $-1 -79.912106692709131 12.190258644208647 49.504634321705211 0 0 -1 I I #
coedge $-1 $602 $371 $603 $604 forward $364 $-1 #
edge $-1 $373 -12.190258644208647 $605 44.701223364726836 $481 $503 forward 7 unknown #
point $-1 -64.065135417222066 12.190258644208647 20.89485816655483 #
point $-1 -79.912106692709131 12.190258644208647 20.89485816655483 #
point $-1 -64.065135417222066 21.656554860426517 20.89485816655483 #
coedge $-1 $376 $602 $606 $607 forward $364 $-1 #
coedge $-1 $606 $608 $377 $490 forward $609 $-1 #
edge $-1 $610 -20.89485816655483 $491 20.89485816655483 $489 $611 forward 7 unknown #
vertex $-1 $378 $612 #
straight-curve $-1 -68.062729446922788 16.589444556288338 20.89485816655483 0 -1 0 I I #
coedge $-1 $613 $506 $379 $494 forward $508 $-1 #
edge $-1 $495 5.0671103041381791 $610 28.111778808438498 $493 $614 forward 7 unknown #
vertex $-1 $511 $615 #
face $-1 $616 $508 $18 $-1 $617 reversed single #
plane-surface $-1 -68.062729446922788 33.178889112576677 0 -1 0 0 0 0 1 forward_v I I I I #
coedge $-1 $618 $385 $619 $620 forward $387 $-1 #
face $-1 $621 $387 $18 $-1 $622 reversed single #
coedge $-1 $401 $619 $389 $501 reversed $514 $-1 #
edge $-1 $403 76.895744259126673 $502 79.912106692709131 $500 $623 forward 7 unknown #
vertex $-1 $501 $624 #
straight-curve $-1 -79.912106692709131 0 20.89485816655483 0 -1 0 I I #
straight-curve $-1 -79.912106692709131 8.4617033761587912 0.61165932635101794 0 1 0 I I #
straight-curve $-1 -78.651805378058 21.656554860426517 2.224771492660115 0.61566146476048833 0 0.78801076186113728 I I #
coedge $-1 $493 $396 $398 $511 forward $508 $-1 #
coedge $-1 $396 $625 $513 $626 forward $508 $-1 #
loop $-1 $-1 $396 $496 #
vertex $-1 $402 $627 #
straight-curve $-1 -76.895744259126673 16.589444556288338 -20.89485816655483 0 -1 0 I I #
edge $-1 $400 -40.656125832614308 $495 -31.823111020410423 $506 $628 forward 7 unknown #
point $-1 -76.895744259126673 21.656554860426517 -20.89485816655483 #
coedge $-1 $619 $401 $507 $626 reversed $514 $-1 #
loop $-1 $-1 $401 $621 #
straight-curve $-1 -76.895744259126673 44.701223364726836 0 0 0 -1 I I #
point $-1 -76.895744259126673 44.701223364726836 20.89485816655483 #
face $-1 $629 $630 $19 $-1 $519 forward single #
loop $-1 $-1 $414 $406 #
plane-surface $-1 0 0 20.89485816655483 0 0 1 1 0 0 forward_v I I I I #
coedge $-1 $521 $408 $553 $631 forward $289 $-1 #
coedge $-1 $408 $520 $632 $633 reversed $289 $-1 #
coedge $-1 $634 $554 $408 $523 forward $630 $-1 #
edge $-1 $635 -38.862518005982722 $636 -23.015546730495657 $522 $637 forward 7 unknown #
coedge $-1 $541 $426 $409 $525 reversed $299 $-1 #
edge $-1 $532 19.246579368738228 $638 25.739748518533744 $409 $543 forward 7 unknown #
coedge $-1 $554 $639 $410 $527 forward $630 $-1 #
edge $-1 $531 34.864923976282 $638 38.862518005982722 $526 $539 forward 7 unknown #
coedge $-1 $640 $411 $639 $641 reversed $530 $-1 #
coedge $-1 $411 $642 $643 $644 reversed $530 $-1 #
loop $-1 $-1 $411 $645 #
vertex $-1 $527 $646 #
vertex $-1 $644 $647 #
straight-curve $-1 -68.062729446922788 21.656554860426517 0 0 0 -1 I I #
coedge $-1 $648 $649 $413 $535 forward $650 $-1 #
edge $-1 $542 -48.892974995354201 $538 -28.609776155150382 $534 $651 forward 7 unknown #
coedge $-1 $652 $414 $419 $548 forward $518 $-1 #
coedge $-1 $414 $652 $648 $653 forward $518 $-1 #
vertex $-1 $535 $654 #
straight-curve $-1 -102.92765342320479 21.656554860426517 20.894858166554826 1 0 0 I I #
coedge $-1 $553 $416 $649 $655 reversed $299 $-1 #
coedge $-1 $416 $524 $656 $657 reversed $299 $-1 #
vertex $-1 $655 $658 #
straight-curve $-1 -79.912106692709159 21.656554860426517 0.6116593263509742 0.61566146476048833 0 0.78801076186113728 I I #
coedge $-1 $547 $418 $659 $660 reversed $420 $-1 #
coedge $-1 $656 $661 $418 $546 reversed $662 $-1 #
edge $-1 $422 -4.4724272895713906 $663 20.89485816655483 $418 $423 forward 7 unknown #
coedge $-1 $419 $544 $664 $665 reversed $420 $-1 #
edge $-1 $421 5.0671103041381791 $666 28.111778808438498 $536 $667 forward 7 unknown #
face $-1 $645 $420 $19 $-1 $668 forward single #
point $-1 -76.895744259126673 21.656554860426517 20.89485816655483 #
point $-1 -76.895744259126673 21.656554860426517 4.4724272895713906 #
point $-1 -70.806604912173867 16.923406752317582 9.829766549312156 #
coedge $-1 $426 $540 $520 $631 reversed $299 $-1 #
coedge $-1 $522 $526 $426 $555 forward $630 $-1 #
edge $-1 $638 -13.194851484267726 $635 -3.7285552680498562 $554 $669 forward 7 unknown #
coedge $-1 $434 $433 $439 $565 forward $206 $-1 #
coedge $-1 $444 $670 $433 $558 reversed $431 $-1 #
edge $-1 $448 -79.912106692709131 $671 79.912106692709131 $557 $672 forward 7 unknown #
coedge $-1 $670 $444 $435 $560 reversed $431 $-1 #
edge $-1 $562 -79.912106692709131 $446 79.912106692709131 $559 $673 forward 7 unknown #
coedge $-1 $436 $439 $670 $674 forward $318 $-1 #
vertex $-1 $560 $675 #
straight-curve $-1 -79.912106692709131 0 -20.89485816655483 0 1 0 I I #
straight-curve $-1 0 -44.701223364726836 20.89485816655483 1 0 0 I I #
edge $-1 $671 -44.701223364726836 $440 44.701223364726836 $439 $676 forward 7 unknown #
point $-1 -79.912106692709131 -44.701223364726836 20.89485816655483 #
straight-curve $-1 79.912106692709131 44.701223364726836 0 0 0 -1 I I #
point $-1 79.912106692709131 44.701223364726836 -20.89485816655483 #
point $-1 79.912106692709131 44.701223364726836 20.89485816655483 #
loop $-1 $-1 $677 $451 #
plane-surface $-1 0 -44.701223364726836 0 0 1 0 0 0 1 forward_v I I I I #
coedge $-1 $678 $679 $680 $681 reversed $452 $-1 #
coedge $-1 $682 $454 $677 $683 reversed $341 $-1 #
coedge $-1 $454 $682 $678 $684 reversed $341 $-1 #
coedge $-1 $680 $685 $454 $576 forward $591 $-1 #
edge $-1 $686 -26.120964395280492 $687 -11.039553543612197 $575 $688 forward 7 unknown #
coedge $-1 $456 $455 $689 $690 forward $228 $-1 #
straight-curve $-1 -68.062729446922788 44.701223364726836 0 0 0 1 I I #
coedge $-1 $458 $475 $679 $691 forward $136 $-1 #
coedge $-1 $692 $464 $458 $581 reversed $587 $-1 #
edge $-1 $693 -29.619812513058541 $466 44.701223364726836 $580 $694 forward 7 unknown #
point $-1 -68.062729446922788 44.701223364726836 20.89485816655483 #
point $-1 -68.062729446922788 44.701223364726836 -20.89485816655483 #
coedge $-1 $471 $463 $695 $696 forward $244 $-1 #
coedge $-1 $464 $697 $463 $586 reversed $587 $-1 #
edge $-1 $468 -44.701223364726836 $698 44.701223364726836 $585 $699 forward 7 unknown #
loop $-1 $-1 $700 $473 #
straight-curve $-1 -79.912106692709131 44.701223364726836 0 0 0 -1 I I #
point $-1 -79.912106692709131 44.701223364726836 -20.89485816655483 #
point $-1 -79.912106692709131 44.701223364726836 20.89485816655483 #
loop $-1 $-1 $680 $470 #
plane-surface $-1 79.912106692709131 0 0 -1 0 0 0 0 1 forward_v I I I I #
coedge $-1 $685 $689 $471 $594 reversed $591 $-1 #
edge $-1 $701 -44.701223364726836 $595 44.701223364726836 $593 $702 forward 7 unknown #
vertex $-1 $594 $703 #
plane-surface $-1 -79.912106692709131 0 0 1 0 0 0 0 -1 forward_v I I I I #
coedge $-1 $689 $680 $475 $598 reversed $591 $-1 #
edge $-1 $599 -44.701223364726836 $704 29.619812513058541 $597 $705 forward 7 unknown #
vertex $-1 $598 $706 #
point $-1 -79.912106692709131 12.190258644208647 0.61165932635101061 #
coedge $-1 $481 $707 $708 $709 reversed $387 $-1 #
coedge $-1 $488 $483 $710 $711 forward $364 $-1 #
coedge $-1 $708 $712 $483 $604 reversed $713 $-1 #
edge $-1 $605 -79.912106692709131 $714 79.912106692709131 $603 $715 forward 7 unknown #
vertex $-1 $484 $716 #
coedge $-1 $717 $489 $488 $607 reversed $609 $-1 #
edge $-1 $718 -79.912106692709131 $491 68.062729446922788 $606 $623 forward 7 unknown #
coedge $-1 $489 $717 $613 $719 reversed $609 $-1 #
loop $-1 $-1 $489 $616 #
vertex $-1 $719 $720 #
straight-curve $-1 -68.062729446922788 44.701223364726836 0 0 0 1 I I #
point $-1 -68.062729446922788 44.701223364726836 20.89485816655483 #
coedge $-1 $721 $493 $608 $719 forward $508 $-1 #
straight-curve $-1 -68.062729446922788 16.589444556288338 -20.89485816655483 0 1 0 I I #
point $-1 -68.062729446922788 21.656554860426517 -20.89485816655483 #
face $-1 $722 $609 $18 $-1 $723 reversed single #
plane-surface $-1 0 0 -20.89485816655483 0 0 1 1 0 0 forward_v I I I I #
coedge $-1 $724 $498 $625 $725 reversed $387 $-1 #
coedge $-1 $500 $513 $498 $620 reversed $514 $-1 #
edge $-1 $502 -20.89485816655483 $726 20.89485816655483 $619 $727 forward 7 unknown #
face $-1 $728 $514 $18 $-1 $723 reversed single #
plane-surface $-1 -79.912106692709131 0 0 1 0 0 0 0 -1 forward_v I I I I #
straight-curve $-1 0 44.701223364726836 20.89485816655483 -1 0 0 I I #
point $-1 -79.912106692709131 44.701223364726836 20.89485816655483 #
coedge $-1 $507 $729 $618 $725 forward $508 $-1 #
edge $-1 $726 -79.912106692709131 $509 -76.895744259126673 $513 $730 forward 7 unknown #
point $-1 -76.895744259126673 44.701223364726836 -20.89485816655483 #
straight-curve $-1 -36.239618426512365 21.656554860426517 -20.89485816655483 1 0 0 I I #
face $-1 $549 $662 $19 $-1 $731 forward single #
loop $-1 $-1 $526 $517 #
edge $-1 $635 -25.739748518533744 $732 -4.6193811539156697e-014 $520 $733 forward 7 unknown #
coedge $-1 $649 $734 $521 $633 forward $650 $-1 #
edge $-1 $636 28.609776155150382 $732 48.892974995354201 $632 $735 forward 7 unknown #
coedge $-1 $736 $522 $734 $737 forward $630 $-1 #
vertex $-1 $555 $738 #
vertex $-1 $737 $739 #
straight-curve $-1 -102.92765342320479 12.190258644208647 20.894858166554826 -1 0 0 I I #
vertex $-1 $555 $740 #
coedge $-1 $526 $741 $528 $641 forward $630 $-1 #
coedge $-1 $642 $528 $742 $743 reversed $530 $-1 #
edge $-1 $744 -28.111778808438498 $531 -5.0671103041381791 $639 $745 forward 7 unknown #
coedge $-1 $529 $640 $746 $747 reversed $530 $-1 #
coedge $-1 $661 $656 $529 $644 forward $662 $-1 #
edge $-1 $532 -15.778170997931232 $748 20.89485816655483 $529 $533 forward 7 unknown #
face $-1 $749 $530 $19 $-1 $750 forward single #
point $-1 -68.062729446922788 21.656554860426517 20.89485816655483 #
point $-1 -68.062729446922788 21.656554860426517 15.778170997931232 #
coedge $-1 $751 $534 $537 $653 reversed $650 $-1 #
coedge $-1 $534 $632 $540 $655 forward $650 $-1 #
loop $-1 $-1 $534 $752 #
straight-curve $-1 -79.912106692709131 21.656554860426517 49.504634321705211 0 0 1 I I #
coedge $-1 $537 $536 $753 $754 forward $518 $-1 #
edge $-1 $755 -44.701223364726836 $538 -21.656554860426517 $648 $756 forward 7 unknown #
point $-1 -79.912106692709131 21.656554860426517 20.89485816655483 #
edge $-1 $732 3.7285552680498562 $542 13.194851484267726 $649 $757 forward 7 unknown #
coedge $-1 $643 $545 $541 $657 forward $662 $-1 #
edge $-1 $422 2.8523161176158593 $532 17.199510668179791 $656 $758 forward 7 unknown #
point $-1 -79.912106692709131 21.656554860426517 0.61165932635101061 #
coedge $-1 $759 $760 $544 $660 forward $761 $-1 #
edge $-1 $762 -28.111778808438498 $663 -5.0671103041381791 $659 $763 forward 7 unknown #
coedge $-1 $545 $643 $759 $764 reversed $662 $-1 #
loop $-1 $-1 $656 $629 #
vertex $-1 $764 $765 #
coedge $-1 $766 $753 $547 $665 forward $767 $-1 #
edge $-1 $666 -20.89485816655483 $762 20.89485816655483 $664 $768 forward 7 unknown #
vertex $-1 $754 $769 #
straight-curve $-1 -76.895744259126673 16.589444556288338 20.89485816655483 0 1 0 I I #
plane-surface $-1 -76.895744259126673 33.178889112576677 0 1 0 0 0 0 -1 forward_v I I I I #
straight-curve $-1 -64.065135417222066 8.4617033761587912 20.89485816655483 0 -1 0 I I #
coedge $-1 $557 $559 $561 $674 reversed $431 $-1 #
vertex $-1 $558 $770 #
straight-curve $-1 0 44.701223364726836 20.89485816655483 -1 0 0 I I #
straight-curve $-1 0 44.701223364726836 -20.89485816655483 1 0 0 I I #
edge $-1 $671 -20.89485816655483 $562 20.89485816655483 $670 $771 forward 7 unknown #
point $-1 -79.912106692709131 44.701223364726836 -20.89485816655483 #
straight-curve $-1 -79.912106692709131 0 20.89485816655483 0 -1 0 I I #
coedge $-1 $772 $773 $573 $683 forward $570 $-1 #
coedge $-1 $774 $572 $574 $684 forward $452 $-1 #
coedge $-1 $572 $774 $579 $691 reversed $452 $-1 #
coedge $-1 $597 $575 $572 $681 forward $591 $-1 #
edge $-1 $687 2.1401494868521063 $704 13.216522282085851 $680 $775 forward 7 unknown #
coedge $-1 $574 $573 $700 $776 reversed $341 $-1 #
edge $-1 $777 -79.912106692709131 $686 79.912106692709131 $677 $778 forward 7 unknown #
edge $-1 $687 -79.912106692709131 $779 79.912106692709131 $678 $780 forward 7 unknown #
coedge $-1 $575 $593 $772 $781 forward $591 $-1 #
vertex $-1 $683 $782 #
vertex $-1 $576 $783 #
straight-curve $-1 79.912106692709131 -18.580258969446344 -9.8184853713210849 0 1 0 I I #
coedge $-1 $593 $597 $577 $690 reversed $591 $-1 #
edge $-1 $595 -20.89485816655483 $599 20.89485816655483 $689 $784 forward 7 unknown #
edge $-1 $704 -79.912106692709131 $693 79.912106692709131 $579 $785 forward 7 unknown #
coedge $-1 $700 $580 $774 $786 forward $587 $-1 #
vertex $-1 $581 $787 #
straight-curve $-1 -79.912106692709131 0 -20.89485816655483 0 1 0 I I #
coedge $-1 $773 $772 $584 $696 reversed $570 $-1 #
edge $-1 $698 -79.912106692709131 $701 79.912106692709131 $695 $788 forward 7 unknown #
coedge $-1 $585 $700 $773 $789 reversed $587 $-1 #
vertex $-1 $586 $790 #
straight-curve $-1 -79.912106692709131 0 20.89485816655483 0 -1 0 I I #
coedge $-1 $697 $692 $682 $776 forward $587 $-1 #
vertex $-1 $594 $791 #
straight-curve $-1 79.912106692709131 0 20.89485816655483 0 1 0 I I #
point $-1 79.912106692709131 44.701223364726836 20.89485816655483 #
vertex $-1 $691 $792 #
straight-curve $-1 79.912106692709131 0 -20.89485816655483 0 -1 0 I I #
point $-1 79.912106692709131 44.701223364726836 -20.89485816655483 #
coedge $-1 $601 $724 $793 $794 forward $387 $-1 #
coedge $-1 $795 $603 $601 $709 forward $713 $-1 #
edge $-1 $605 -20.89485816655483 $796 9.8184853713210849 $601 $797 forward 7 unknown #
coedge $-1 $798 $799 $602 $711 reversed $800 $-1 #
edge $-1 $714 -44.701223364726836 $718 44.701223364726836 $710 $801 forward 7 unknown #
coedge $-1 $603 $795 $798 $802 reversed $713 $-1 #
loop $-1 $-1 $795 $803 #
vertex $-1 $711 $804 #
straight-curve $-1 0 -44.701223364726836 20.89485816655483 1 0 0 I I #
point $-1 -79.912106692709131 -44.701223364726836 20.89485816655483 #
coedge $-1 $608 $606 $799 $805 forward $609 $-1 #
vertex $-1 $711 $806 #
edge $-1 $610 -68.062729446922788 $807 79.912106692709131 $608 $730 forward 7 unknown #
point $-1 -68.062729446922788 44.701223364726836 -20.89485816655483 #
coedge $-1 $729 $613 $808 $809 forward $508 $-1 #
face $-1 $810 $811 $18 $-1 $812 reversed single #
plane-surface $-1 0 44.701223364726836 0 0 -1 0 0 0 -1 forward_v I I I I #
coedge $-1 $707 $618 $813 $814 forward $387 $-1 #
edge $-1 $815 -29.619812513058541 $726 44.701223364726836 $618 $816 forward 7 unknown #
vertex $-1 $626 $817 #
straight-curve $-1 -79.912106692709131 44.701223364726836 0 0 0 -1 I I #
face $-1 $-1 $800 $18 $-1 $818 reversed single #
coedge $-1 $625 $721 $819 $820 forward $508 $-1 #
straight-curve $-1 0 44.701223364726836 -20.89485816655483 1 0 0 I I #
plane-surface $-1 -72.47923685302473 21.656554860426517 0 0 1 0 0 0 1 forward_v I I I I #
vertex $-1 $655 $821 #
straight-curve $-1 -79.912106692709159 12.190258644208647 0.6116593263509742 -0.61566146476048833 0 -0.78801076186113728 I I #
coedge $-1 $632 $822 $634 $737 reversed $650 $-1 #
straight-curve $-1 -79.912106692709131 12.190258644208647 49.504634321705211 0 0 -1 I I #
coedge $-1 $823 $634 $824 $825 forward $630 $-1 #
edge $-1 $636 -12.190258644208647 $826 44.701223364726836 $734 $756 forward 7 unknown #
point $-1 -64.065135417222066 12.190258644208647 20.89485816655483 #
point $-1 -79.912106692709131 12.190258644208647 20.89485816655483 #
point $-1 -64.065135417222066 21.656554860426517 20.89485816655483 #
coedge $-1 $639 $823 $827 $828 forward $630 $-1 #
coedge $-1 $827 $829 $640 $743 forward $830 $-1 #
edge $-1 $831 -20.89485816655483 $744 20.89485816655483 $742 $832 forward 7 unknown #
vertex $-1 $641 $833 #
straight-curve $-1 -68.062729446922788 16.589444556288338 20.89485816655483 0 -1 0 I I #
coedge $-1 $834 $759 $642 $747 forward $761 $-1 #
edge $-1 $748 5.0671103041381791 $831 28.111778808438498 $746 $835 forward 7 unknown #
vertex $-1 $764 $836 #
face $-1 $837 $761 $19 $-1 $838 reversed single #
plane-surface $-1 -68.062729446922788 33.178889112576677 0 -1 0 0 0 0 1 forward_v I I I I #
coedge $-1 $839 $648 $840 $841 forward $650 $-1 #
face $-1 $842 $650 $19 $-1 $843 reversed single #
coedge $-1 $664 $840 $652 $754 reversed $767 $-1 #
edge $-1 $666 76.895744259126673 $755 79.912106692709131 $753 $844 forward 7 unknown #
vertex $-1 $754 $845 #
straight-curve $-1 -79.912106692709131 0 20.89485816655483 0 -1 0 I I #
straight-curve $-1 -79.912106692709131 8.4617033761587912 0.61165932635101794 0 1 0 I I #
straight-curve $-1 -78.651805378058 21.656554860426517 2.224771492660115 0.61566146476048833 0 0.78801076186113728 I I #
coedge $-1 $746 $659 $661 $764 forward $761 $-1 #
coedge $-1 $659 $846 $766 $847 forward $761 $-1 #
loop $-1 $-1 $659 $749 #
vertex $-1 $665 $848 #
straight-curve $-1 -76.895744259126673 16.589444556288338 -20.89485816655483 0 -1 0 I I #
edge $-1 $663 -40.656125832614308 $748 -31.823111020410423 $759 $849 forward 7 unknown #
point $-1 -76.895744259126673 21.656554860426517 -20.89485816655483 #
coedge $-1 $840 $664 $760 $847 reversed $767 $-1 #
loop $-1 $-1 $664 $842 #
straight-curve $-1 -76.895744259126673 44.701223364726836 0 0 0 -1 I I #
point $-1 -76.895744259126673 44.701223364726836 20.89485816655483 #
point $-1 -79.912106692709131 44.701223364726836 20.89485816655483 #
straight-curve $-1 -79.912106692709131 44.701223364726836 0 0 0 -1 I I #
coedge $-1 $695 $677 $685 $781 reversed $570 $-1 #
coedge $-1 $677 $695 $697 $789 forward $570 $-1 #
coedge $-1 $679 $678 $692 $786 reversed $452 $-1 #
straight-curve $-1 79.912106692709131 -29.619812513058541 -7.6783358844689786 0 0 -1 I I #
edge $-1 $779 11.039553543612197 $777 26.120964395280492 $700 $850 forward 7 unknown #
vertex $-1 $683 $851 #
straight-curve $-1 0 -44.701223364726836 -9.8184853713210849 1 0 0 I I #
vertex $-1 $776 $852 #
straight-curve $-1 0 -29.619812513058541 -9.8184853713210849 -1 0 0 I I #
edge $-1 $701 -20.89485816655483 $686 9.8184853713210849 $685 $853 forward 7 unknown #
point $-1 79.912106692709131 -44.701223364726836 -9.8184853713210849 #
point $-1 79.912106692709131 -29.619812513058541 -9.8184853713210849 #
straight-curve $-1 79.912106692709131 44.701223364726836 0 0 0 -1 I I #
straight-curve $-1 0 -29.619812513058541 -20.89485816655483 -1 0 0 I I #
edge $-1 $693 -13.216522282085851 $779 -2.1401494868521063 $692 $854 forward 7 unknown #
point $-1 -79.912106692709131 -29.619812513058541 -20.89485816655483 #
straight-curve $-1 0 -44.701223364726836 20.89485816655483 1 0 0 I I #
edge $-1 $698 -20.89485816655483 $777 9.8184853713210849 $697 $855 forward 7 unknown #
point $-1 -79.912106692709131 -44.701223364726836 20.89485816655483 #
point $-1 79.912106692709131 -44.701223364726836 20.89485816655483 #
point $-1 79.912106692709131 -29.619812513058541 -20.89485816655483 #
coedge $-1 $856 $857 $707 $794 reversed $811 $-1 #
edge $-1 $858 11.039553543612197 $796 26.120964395280492 $707 $859 forward 7 unknown #
coedge $-1 $712 $708 $857 $860 forward $713 $-1 #
vertex $-1 $860 $861 #
straight-curve $-1 -79.912106692709131 -44.701223364726836 0 0 0 -1 I I #
coedge $-1 $862 $710 $712 $802 forward $800 $-1 #
coedge $-1 $710 $808 $717 $805 reversed $800 $-1 #
loop $-1 $-1 $863 $728 #
straight-curve $-1 79.912106692709131 0 20.89485816655483 0 1 0 I I #
edge $-1 $714 -20.89485816655483 $864 9.8184853713210849 $798 $865 forward 7 unknown #
face $-1 $499 $713 $18 $-1 $866 reversed single #
point $-1 79.912106692709131 -44.701223364726836 20.89485816655483 #
edge $-1 $718 -20.89485816655483 $807 20.89485816655483 $799 $867 forward 7 unknown #
point $-1 79.912106692709131 44.701223364726836 20.89485816655483 #
vertex $-1 $809 $868 #
coedge $-1 $799 $863 $721 $809 reversed $800 $-1 #
edge $-1 $807 -44.701223364726836 $869 29.619812513058541 $808 $870 forward 7 unknown #
face $-1 $803 $871 $18 $-1 $872 forward single #
loop $-1 $-1 $873 $722 #
plane-surface $-1 0 -37.160517938892689 -9.8184853713210849 0 0 1 1 0 0 forward_v I I I I #
coedge $-1 $819 $874 $724 $814 reversed $871 $-1 #
edge $-1 $815 -13.216522282085851 $858 -2.1401494868521063 $724 $875 forward 7 unknown #
vertex $-1 $725 $876 #
straight-curve $-1 -79.912106692709131 0 -20.89485816655483 0 1 0 I I #
point $-1 -79.912106692709131 44.701223364726836 -20.89485816655483 #
plane-surface $-1 79.912106692709131 0 0 -1 0 0 0 0 1 forward_v I I I I #
coedge $-1 $877 $813 $729 $820 reversed $871 $-1 #
edge $-1 $869 -79.912106692709131 $815 79.912106692709131 $729 $878 forward 7 unknown #
point $-1 -79.912106692709131 12.190258644208647 0.61165932635101061 #
coedge $-1 $734 $879 $880 $881 reversed $650 $-1 #
coedge $-1 $741 $736 $882 $883 forward $630 $-1 #
coedge $-1 $880 $884 $736 $825 reversed $885 $-1 #
edge $-1 $826 -79.912106692709131 $886 79.912106692709131 $824 $887 forward 7 unknown #
vertex $-1 $737 $888 #
coedge $-1 $889 $742 $741 $828 reversed $830 $-1 #
edge $-1 $890 -79.912106692709131 $744 68.062729446922788 $827 $844 forward 7 unknown #
coedge $-1 $742 $889 $834 $891 reversed $830 $-1 #
loop $-1 $-1 $742 $837 #
vertex $-1 $891 $892 #
straight-curve $-1 -68.062729446922788 44.701223364726836 0 0 0 1 I I #
point $-1 -68.062729446922788 44.701223364726836 20.89485816655483 #
coedge $-1 $893 $746 $829 $891 forward $761 $-1 #
straight-curve $-1 -68.062729446922788 16.589444556288338 -20.89485816655483 0 1 0 I I #
point $-1 -68.062729446922788 21.656554860426517 -20.89485816655483 #
face $-1 $894 $830 $19 $-1 $895 reversed single #
plane-surface $-1 0 0 -20.89485816655483 0 0 1 1 0 0 forward_v I I I I #
coedge $-1 $896 $751 $846 $897 reversed $650 $-1 #
coedge $-1 $753 $766 $751 $841 reversed $767 $-1 #
edge $-1 $755 -20.89485816655483 $898 20.89485816655483 $840 $899 forward 7 unknown #
face $-1 $900 $767 $19 $-1 $895 reversed single #
plane-surface $-1 -79.912106692709131 0 0 1 0 0 0 0 -1 forward_v I I I I #
straight-curve $-1 0 44.701223364726836 20.89485816655483 -1 0 0 I I #
point $-1 -79.912106692709131 44.701223364726836 20.89485816655483 #
coedge $-1 $760 $901 $839 $897 forward $761 $-1 #
edge $-1 $898 -79.912106692709131 $762 -76.895744259126673 $766 $902 forward 7 unknown #
point $-1 -76.895744259126673 44.701223364726836 -20.89485816655483 #
straight-curve $-1 -36.239618426512365 21.656554860426517 -20.89485816655483 1 0 0 I I #
straight-curve $-1 -79.912106692709131 -18.580258969446344 -9.8184853713210849 0 -1 0 I I #
point $-1 -79.912106692709131 -44.701223364726836 -9.8184853713210849 #
point $-1 -79.912106692709131 -29.619812513058541 -9.8184853713210849 #
straight-curve $-1 79.912106692709131 -44.701223364726836 0 0 0 -1 I I #
straight-curve $-1 -79.912106692709131 -29.619812513058541 -7.6783358844689786 0 0 1 I I #
straight-curve $-1 -79.912106692709131 -44.701223364726836 0 0 0 -1 I I #
coedge $-1 $873 $793 $874 $903 reversed $811 $-1 #
coedge $-1 $793 $873 $795 $860 reversed $811 $-1 #
vertex $-1 $794 $904 #
straight-curve $-1 -79.912106692709131 -18.580258969446344 -9.8184853713210849 0 -1 0 I I #
edge $-1 $796 -79.912106692709131 $864 79.912106692709131 $795 $905 forward 7 unknown #
point $-1 -79.912106692709131 -44.701223364726836 -9.8184853713210849 #
coedge $-1 $863 $798 $873 $906 forward $800 $-1 #
coedge $-1 $808 $862 $877 $907 forward $800 $-1 #
vertex $-1 $860 $908 #
straight-curve $-1 79.912106692709131 -44.701223364726836 0 0 0 -1 I I #
plane-surface $-1 0 -44.701223364726836 0 0 1 0 0 0 1 forward_v I I I I #
straight-curve $-1 79.912106692709131 44.701223364726836 0 0 0 -1 I I #
point $-1 79.912106692709131 44.701223364726836 -20.89485816655483 #
vertex $-1 $820 $909 #
straight-curve $-1 79.912106692709131 0 -20.89485816655483 0 -1 0 I I #
loop $-1 $-1 $877 $810 #
plane-surface $-1 0 -29.619812513058541 -15.356671768937957 0 -1 0 0 0 -1 forward_v I I I I #
coedge $-1 $857 $856 $862 $906 reversed $811 $-1 #
coedge $-1 $813 $877 $856 $903 forward $871 $-1 #
straight-curve $-1 -79.912106692709131 -29.619812513058541 -7.6783358844689786 0 0 1 I I #
point $-1 -79.912106692709131 -29.619812513058541 -20.89485816655483 #
coedge $-1 $874 $819 $863 $907 reversed $871 $-1 #
straight-curve $-1 0 -29.619812513058541 -20.89485816655483 -1 0 0 I I #
coedge $-1 $822 $896 $910 $911 forward $650 $-1 #
coedge $-1 $912 $824 $822 $881 forward $885 $-1 #
edge $-1 $826 -20.89485816655483 $913 9.8184853713210849 $822 $914 forward 7 unknown #
coedge $-1 $915 $916 $823 $883 reversed $917 $-1 #
edge $-1 $886 -44.701223364726836 $890 44.701223364726836 $882 $918 forward 7 unknown #
coedge $-1 $824 $912 $915 $919 reversed $885 $-1 #
loop $-1 $-1 $912 $920 #
vertex $-1 $883 $921 #
straight-curve $-1 0 -44.701223364726836 20.89485816655483 1 0 0 I I #
point $-1 -79.912106692709131 -44.701223364726836 20.89485816655483 #
coedge $-1 $829 $827 $916 $922 forward $830 $-1 #
vertex $-1 $883 $923 #
edge $-1 $831 -68.062729446922788 $924 79.912106692709131 $829 $902 forward 7 unknown #
point $-1 -68.062729446922788 44.701223364726836 -20.89485816655483 #
coedge $-1 $901 $834 $925 $926 forward $761 $-1 #
face $-1 $927 $928 $19 $-1 $929 reversed single #
plane-surface $-1 0 44.701223364726836 0 0 -1 0 0 0 -1 forward_v I I I I #
coedge $-1 $879 $839 $930 $931 forward $650 $-1 #
edge $-1 $932 -29.619812513058541 $898 44.701223364726836 $839 $933 forward 7 unknown #
vertex $-1 $847 $934 #
straight-curve $-1 -79.912106692709131 44.701223364726836 0 0 0 -1 I I #
face $-1 $-1 $917 $19 $-1 $935 reversed single #
coedge $-1 $846 $893 $936 $937 forward $761 $-1 #
straight-curve $-1 0 44.701223364726836 -20.89485816655483 1 0 0 I I #
edge $-1 $938 -79.912106692709131 $858 79.912106692709131 $874 $939 forward 7 unknown #
point $-1 -79.912106692709131 -29.619812513058541 -9.8184853713210849 #
straight-curve $-1 0 -44.701223364726836 -9.8184853713210849 1 0 0 I I #
edge $-1 $864 -26.120964395280492 $938 -11.039553543612197 $862 $940 forward 7 unknown #
edge $-1 $938 2.1401494868521063 $869 13.216522282085851 $863 $941 forward 7 unknown #
point $-1 79.912106692709131 -44.701223364726836 -9.8184853713210849 #
point $-1 79.912106692709131 -29.619812513058541 -20.89485816655483 #
coedge $-1 $942 $943 $879 $911 reversed $928 $-1 #
edge $-1 $944 11.039553543612197 $913 26.120964395280492 $879 $945 forward 7 unknown #
coedge $-1 $884 $880 $943 $946 forward $885 $-1 #
vertex $-1 $946 $947 #
straight-curve $-1 -79.912106692709131 -44.701223364726836 0 0 0 -1 I I #
coedge $-1 $948 $882 $884 $919 forward $917 $-1 #
coedge $-1 $882 $925 $889 $922 reversed $917 $-1 #
loop $-1 $-1 $949 $900 #
straight-curve $-1 79.912106692709131 0 20.89485816655483 0 1 0 I I #
edge $-1 $886 -20.89485816655483 $950 9.8184853713210849 $915 $951 forward 7 unknown #
face $-1 $752 $885 $19 $-1 $952 reversed single #
point $-1 79.912106692709131 -44.701223364726836 20.89485816655483 #
edge $-1 $890 -20.89485816655483 $924 20.89485816655483 $916 $953 forward 7 unknown #
point $-1 79.912106692709131 44.701223364726836 20.89485816655483 #
vertex $-1 $926 $954 #
coedge $-1 $916 $949 $893 $926 reversed $917 $-1 #
edge $-1 $924 -44.701223364726836 $955 29.619812513058541 $925 $956 forward 7 unknown #
face $-1 $920 $957 $19 $-1 $958 forward single #
loop $-1 $-1 $959 $894 #
plane-surface $-1 0 -37.160517938892689 -9.8184853713210849 0 0 1 1 0 0 forward_v I I I I #
coedge $-1 $936 $960 $896 $931 reversed $957 $-1 #
edge $-1 $932 -13.216522282085851 $944 -2.1401494868521063 $896 $961 forward 7 unknown #
vertex $-1 $897 $962 #
straight-curve $-1 -79.912106692709131 0 -20.89485816655483 0 1 0 I I #
point $-1 -79.912106692709131 44.701223364726836 -20.89485816655483 #
plane-surface $-1 79.912106692709131 0 0 -1 0 0 0 0 1 forward_v I I I I #
coedge $-1 $963 $930 $901 $937 reversed $957 $-1 #
edge $-1 $955 -79.912106692709131 $932 79.912106692709131 $901 $964 forward 7 unknown #
vertex $-1 $906 $965 #
straight-curve $-1 0 -29.619812513058541 -9.8184853713210849 -1 0 0 I I #
straight-curve $-1 79.912106692709131 -18.580258969446344 -9.8184853713210849 0 1 0 I I #
straight-curve $-1 79.912106692709131 -29.619812513058541 -7.6783358844689786 0 0 -1 I I #
coedge $-1 $959 $910 $960 $966 reversed $928 $-1 #
coedge $-1 $910 $959 $912 $946 reversed $928 $-1 #
vertex $-1 $911 $967 #
straight-curve $-1 -79.912106692709131 -18.580258969446344 -9.8184853713210849 0 -1 0 I I #
edge $-1 $913 -79.912106692709131 $950 79.912106692709131 $912 $968 forward 7 unknown #
point $-1 -79.912106692709131 -44.701223364726836 -9.8184853713210849 #
coedge $-1 $949 $915 $959 $969 forward $917 $-1 #
coedge $-1 $925 $948 $963 $970 forward $917 $-1 #
vertex $-1 $946 $971 #
straight-curve $-1 79.912106692709131 -44.701223364726836 0 0 0 -1 I I #
plane-surface $-1 0 -44.701223364726836 0 0 1 0 0 0 1 forward_v I I I I #
straight-curve $-1 79.912106692709131 44.701223364726836 0 0 0 -1 I I #
point $-1 79.912106692709131 44.701223364726836 -20.89485816655483 #
vertex $-1 $937 $972 #
straight-curve $-1 79.912106692709131 0 -20.89485816655483 0 -1 0 I I #
loop $-1 $-1 $963 $927 #
plane-surface $-1 0 -29.619812513058541 -15.356671768937957 0 -1 0 0 0 -1 forward_v I I I I #
coedge $-1 $943 $942 $948 $969 reversed $928 $-1 #
coedge $-1 $930 $963 $942 $966 forward $957 $-1 #
straight-curve $-1 -79.912106692709131 -29.619812513058541 -7.6783358844689786 0 0 1 I I #
point $-1 -79.912106692709131 -29.619812513058541 -20.89485816655483 #
coedge $-1 $960 $936 $949 $970 reversed $957 $-1 #
straight-curve $-1 0 -29.619812513058541 -20.89485816655483 -1 0 0 I I #
point $-1 79.912106692709131 -29.619812513058541 -9.8184853713210849 #
edge $-1 $973 -79.912106692709131 $944 79.912106692709131 $960 $974 forward 7 unknown #
point $-1 -79.912106692709131 -29.619812513058541 -9.8184853713210849 #
straight-curve $-1 0 -44.701223364726836 -9.8184853713210849 1 0 0 I I #
edge $-1 $950 -26.120964395280492 $973 -11.039553543612197 $948 $975 forward 7 unknown #
edge $-1 $973 2.1401494868521063 $955 13.216522282085851 $949 $976 forward 7 unknown #
point $-1 79.912106692709131 -44.701223364726836 -9.8184853713210849 #
point $-1 79.912106692709131 -29.619812513058541 -20.89485816655483 #
vertex $-1 $969 $977 #
straight-curve $-1 0 -29.619812513058541 -9.8184853713210849 -1 0 0 I I #
straight-curve $-1 79.912106692709131 -18.580258969446344 -9.8184853713210849 0 1 0 I I #
straight-curve $-1 79.912106692709131 -29.619812513058541 -7.6783358844689786 0 0 -1 I I #
point $-1 79.912106692709131 -29.619812513058541 -9.8184853713210849 #
End-of-ACIS-data 