500 0 8 0           
7 Unknown 11 ACIS 5.0 NT 24 Thu Mar 25 18:41:33 1999 
-1 9.9999999999999995e-007 1e-010 
body $-1 $8 $-1 $9 #
body $-1 $10 $-1 $11 #
body $-1 $12 $-1 $13 #
body $-1 $14 $-1 $15 #
body $-1 $16 $-1 $17 #
body $-1 $18 $-1 $19 #
body $-1 $20 $-1 $21 #
body $-1 $22 $-1 $23 #
lump $-1 $-1 $24 $0 #
transform $-1 1 0 0 0 1 0 0 0 1 46.049989318521682 26.146477592558625 12.265791648969213 1 rotate no_reflect no_shear #
lump $-1 $-1 $25 $1 #
transform $-1 1 0 0 0 1 0 0 0 1 46.049989318521682 26.146477592558625 12.265791648969213 1 rotate no_reflect no_shear #
lump $-1 $-1 $26 $2 #
transform $-1 1 0 0 0 1 0 0 0 1 46.049989318521682 26.146477592558625 12.265791648969213 1 rotate no_reflect no_shear #
lump $-1 $-1 $27 $3 #
transform $-1 1 0 0 0 1 0 0 0 1 46.049989318521682 26.146477592558625 12.265791648969213 1 rotate no_reflect no_shear #
lump $-1 $-1 $28 $4 #
transform $-1 1 0 0 0 1 0 0 0 1 46.049989318521682 26.146477592558625 12.265791648969213 1 rotate no_reflect no_shear #
lump $-1 $-1 $29 $5 #
transform $-1 1 0 0 0 1 0 0 0 1 46.049989318521682 26.146477592558625 12.265791648969213 1 rotate no_reflect no_shear #
lump $-1 $-1 $30 $6 #
transform $-1 1 0 0 0 1 0 0 0 1 46.049989318521682 26.146477592558625 12.265791648969213 1 rotate no_reflect no_shear #
lump $-1 $-1 $31 $7 #
transform $-1 1 0 0 0 1 0 0 0 1 46.049989318521682 26.146477592558625 12.265791648969213 1 rotate no_reflect no_shear #
shell $-1 $-1 $-1 $32 $-1 $8 #
shell $-1 $-1 $-1 $33 $-1 $10 #
shell $-1 $-1 $-1 $34 $-1 $12 #
shell $-1 $-1 $-1 $35 $-1 $14 #
shell $-1 $-1 $-1 $36 $-1 $16 #
shell $-1 $-1 $-1 $37 $-1 $18 #
shell $-1 $-1 $-1 $38 $-1 $20 #
shell $-1 $-1 $-1 $39 $-1 $22 #
face $-1 $40 $41 $24 $-1 $42 reversed single #
face $-1 $43 $44 $25 $-1 $45 forward single #
face $-1 $46 $47 $26 $-1 $48 reversed single #
face $-1 $49 $50 $27 $-1 $51 forward single #
face $-1 $52 $53 $28 $-1 $54 reversed single #
face $-1 $55 $56 $29 $-1 $57 forward single #
face $-1 $58 $59 $30 $-1 $60 forward single #
face $-1 $61 $62 $31 $-1 $63 forward single #
face $-1 $64 $65 $24 $-1 $66 forward single #
loop $-1 $-1 $67 $32 #
plane-surface $-1 0 -26.146477592558625 0 0 1 0 0 0 1 forward_v I I I I #
face $-1 $68 $69 $25 $-1 $70 reversed single #
loop $-1 $-1 $71 $33 #
plane-surface $-1 0 -26.146477592558625 0 0 1 0 0 0 1 forward_v I I I I #
face $-1 $72 $73 $26 $-1 $74 reversed single #
loop $-1 $-1 $75 $34 #
plane-surface $-1 77.560085627601907 10.745324912851764 128.14942818623985 0 -1 0 -0.85716730853699208 0 -0.51503806187062418 forward_v I I I I #
face $-1 $76 $77 $27 $-1 $78 forward single #
loop $-1 $79 $80 $35 #
cone-surface $-1 41.746535136320013 7.2770153468419068 6.3265758127774046 -0.85716730853699208 0 -0.51503806187062418 0.77255709280593621 0 -1.2857509628054882 1 I I 0 1 1.5 forward I I I I #
face $-1 $81 $82 $28 $-1 $83 reversed single #
loop $-1 $-1 $84 $36 #
plane-surface $-1 -111.17450951552179 7.9041844259943908 73.556680347835652 0 1 0 -0.70710678939079041 0 0.70710677298230451 forward_v I I I I #
face $-1 $85 $86 $29 $-1 $87 forward single #
loop $-1 $88 $89 $37 #
cone-surface $-1 -43.535606874656565 10.253394153153806 9.7514091744908153 0.70710678939079041 0 -0.70710677298230451 0.35355338649115226 0 0.35355339469539521 1 I I 0 1 0.5 forward I I I I #
face $-1 $90 $91 $30 $-1 $92 forward single #
loop $-1 $93 $94 $38 #
cone-surface $-1 -43.535606874656565 13.777208743892928 9.7514091744908153 0.70710678939079041 0 -0.70710677298230451 0.35355338649115226 0 0.35355339469539521 1 I I 0 1 0.5 forward I I I I #
face $-1 $95 $96 $31 $-1 $97 forward single #
loop $-1 $98 $99 $39 #
cone-surface $-1 -43.535606874656565 17.301023334632049 9.7514091744908153 0.70710678939079041 0 -0.70710677298230451 0.35355338649115226 0 0.35355339469539521 1 I I 0 1 0.5 forward I I I I #
face $-1 $100 $101 $24 $-1 $102 reversed single #
loop $-1 $-1 $103 $40 #
plane-surface $-1 0 0 12.265791648969213 0 0 1 1 0 0 forward_v I I I I #
coedge $-1 $104 $105 $106 $107 reversed $41 $-1 #
face $-1 $108 $109 $25 $-1 $110 reversed single #
loop $-1 $-1 $111 $43 #
plane-surface $-1 0 0 -12.265791648969213 0 0 1 1 0 0 forward_v I I I I #
coedge $-1 $112 $113 $114 $115 forward $44 $-1 #
face $-1 $116 $117 $26 $-1 $118 reversed single #
loop $-1 $-1 $119 $46 #
plane-surface $-1 -1.3850051770270255 7.2770153468419068 80.714433690691138 0.85716730853699208 0 0.51503806187062418 0.51503806187062418 0 -0.85716730853699208 forward_v I I I I #
coedge $-1 $120 $121 $122 $123 reversed $47 $-1 #
face $-1 $-1 $124 $27 $-1 $125 forward single #
loop $-1 $126 $127 $49 #
cone-surface $-1 39.953656714690155 7.2770153468419068 5.249305811636134 -0.85716730853699208 0 -0.51503806187062418 0.3862785464029681 0 -0.64287548140274409 1 I I -0.70710678118654757 0.70710678118654757 0.75 forward I I I I #
loop $-1 $-1 $128 $35 #
coedge $-1 $80 $80 $129 $130 reversed $50 $-1 #
face $-1 $131 $132 $28 $-1 $133 reversed single #
loop $-1 $-1 $134 $52 #
plane-surface $-1 -46.049989318521668 13.777208743892928 8.4321616620567283 -0.70710678939079041 0 0.70710677298230451 0.70710677298230451 0 0.70710678939079041 forward_v I I I I #
coedge $-1 $135 $136 $137 $138 reversed $53 $-1 #
face $-1 $-1 $139 $29 $-1 $140 forward single #
loop $-1 $141 $142 $55 #
cone-surface $-1 -42.761262682420096 10.253394153153806 8.9770650002230852 0.70710678939079041 0 -0.70710677298230451 0.17677669324557613 0 0.1767766973476976 1 I I -0.70710678118654746 0.70710678118654746 0.25 forward I I I I #
loop $-1 $-1 $143 $37 #
coedge $-1 $89 $89 $144 $145 reversed $56 $-1 #
face $-1 $-1 $146 $30 $-1 $147 forward single #
loop $-1 $148 $149 $58 #
cone-surface $-1 -42.761262682420096 13.777208743892928 8.9770650002230852 0.70710678939079041 0 -0.70710677298230451 0.17677669324557613 0 0.1767766973476976 1 I I -0.70710678118654746 0.70710678118654746 0.25 forward I I I I #
loop $-1 $-1 $150 $38 #
coedge $-1 $94 $94 $151 $152 reversed $59 $-1 #
face $-1 $-1 $153 $31 $-1 $154 forward single #
loop $-1 $155 $156 $61 #
cone-surface $-1 -42.761262682420096 17.301023334632049 8.9770650002230852 0.70710678939079041 0 -0.70710677298230451 0.17677669324557613 0 0.1767766973476976 1 I I -0.70710678118654746 0.70710678118654746 0.25 forward I I I I #
loop $-1 $-1 $157 $39 #
coedge $-1 $99 $99 $158 $159 reversed $62 $-1 #
face $-1 $160 $161 $24 $-1 $162 reversed single #
loop $-1 $-1 $163 $64 #
plane-surface $-1 0 0 -12.265791648969213 0 0 1 1 0 0 forward_v I I I I #
coedge $-1 $164 $165 $166 $167 forward $65 $-1 #
coedge $-1 $168 $67 $169 $170 reversed $41 $-1 #
coedge $-1 $67 $168 $171 $172 forward $41 $-1 #
coedge $-1 $173 $163 $67 $107 forward $101 $-1 #
edge $-1 $174 -46.049989318521682 $175 46.049989318521682 $67 $176 forward 7 unknown #
face $-1 $177 $178 $25 $-1 $179 reversed single #
loop $-1 $-1 $180 $68 #
plane-surface $-1 -24.259763849584882 -38.949879784159648 0 0 1 0 0 0 1 forward_v I I I I #
coedge $-1 $181 $182 $113 $183 forward $69 $-1 #
coedge $-1 $184 $71 $185 $186 reversed $44 $-1 #
coedge $-1 $71 $184 $111 $183 reversed $44 $-1 #
coedge $-1 $187 $188 $71 $115 reversed $178 $-1 #
edge $-1 $189 -12.265791648969213 $190 12.265791648969213 $114 $191 forward 7 unknown #
face $-1 $192 $193 $26 $-1 $194 forward single #
loop $-1 $-1 $195 $72 #
plane-surface $-1 77.560085627601907 3.8087057808320495 128.14942818623985 0 1 0 0.85716730853699208 0 0.51503806187062418 forward_v I I I I #
coedge $-1 $196 $197 $198 $199 reversed $73 $-1 #
coedge $-1 $121 $75 $200 $201 reversed $47 $-1 #
coedge $-1 $75 $120 $196 $202 reversed $47 $-1 #
coedge $-1 $198 $203 $75 $123 forward $193 $-1 #
edge $-1 $204 -7.2699465047207283 $205 -0.9630440207716191 $122 $206 forward 7 unknown #
loop $-1 $-1 $129 $76 #
plane-surface $-1 -1.3850051770270255 7.2770153468419068 80.714433690691138 0.85716730853699208 0 0.51503806187062418 0.51503806187062418 0 -0.85716730853699208 forward_v I I I I #
loop $-1 $-1 $207 $49 #
coedge $-1 $127 $127 $128 $208 reversed $77 $-1 #
coedge $-1 $128 $128 $127 $208 forward $79 $-1 #
coedge $-1 $129 $129 $80 $130 forward $124 $-1 #
edge $-1 $209 0 $209 6.2831853071796004 $129 $210 forward 7 unknown #
face $-1 $211 $212 $28 $-1 $213 reversed single #
loop $-1 $-1 $214 $81 #
plane-surface $-1 -111.17450951552179 19.650233061791464 73.556680347835652 0 -1 0 0.70710678939079041 0 -0.70710677298230451 forward_v I I I I #
coedge $-1 $215 $216 $217 $218 reversed $82 $-1 #
coedge $-1 $136 $84 $219 $220 reversed $53 $-1 #
coedge $-1 $84 $135 $215 $221 reversed $53 $-1 #
coedge $-1 $217 $222 $84 $138 forward $223 $-1 #
edge $-1 $224 9.5372654392392135 $225 13.370895337191932 $137 $226 forward 7 unknown #
loop $-1 $-1 $144 $85 #
plane-surface $-1 -46.049989318521668 13.777208743892928 8.4321616620567283 -0.70710678939079041 0 0.70710677298230451 0.70710677298230451 0 0.70710678939079041 forward_v I I I I #
loop $-1 $-1 $227 $55 #
coedge $-1 $142 $142 $143 $228 reversed $86 $-1 #
coedge $-1 $143 $143 $142 $228 forward $88 $-1 #
coedge $-1 $144 $144 $89 $145 forward $139 $-1 #
edge $-1 $229 0 $229 6.2831853071796004 $144 $230 forward 7 unknown #
loop $-1 $-1 $151 $90 #
plane-surface $-1 -46.049989318521668 13.777208743892928 8.4321616620567283 -0.70710678939079041 0 0.70710677298230451 0.70710677298230451 0 0.70710678939079041 forward_v I I I I #
loop $-1 $-1 $231 $58 #
coedge $-1 $149 $149 $150 $232 reversed $91 $-1 #
coedge $-1 $150 $150 $149 $232 forward $93 $-1 #
coedge $-1 $151 $151 $94 $152 forward $146 $-1 #
edge $-1 $233 0 $233 6.2831853071796004 $151 $234 forward 7 unknown #
loop $-1 $-1 $158 $95 #
plane-surface $-1 -46.049989318521668 13.777208743892928 8.4321616620567283 -0.70710678939079041 0 0.70710677298230451 0.70710677298230451 0 0.70710678939079041 forward_v I I I I #
loop $-1 $-1 $235 $61 #
coedge $-1 $156 $156 $157 $236 reversed $96 $-1 #
coedge $-1 $157 $157 $156 $236 forward $98 $-1 #
coedge $-1 $158 $158 $99 $159 forward $153 $-1 #
edge $-1 $237 0 $237 6.2831853071796004 $158 $238 forward 7 unknown #
face $-1 $239 $240 $24 $-1 $241 reversed single #
loop $-1 $-1 $242 $100 #
plane-surface $-1 -46.049989318521682 0 0 1 0 0 0 0 -1 forward_v I I I I #
coedge $-1 $106 $243 $244 $245 forward $101 $-1 #
coedge $-1 $246 $103 $247 $248 forward $65 $-1 #
coedge $-1 $103 $246 $168 $249 forward $65 $-1 #
coedge $-1 $169 $250 $103 $167 reversed $251 $-1 #
edge $-1 $252 -26.146477592558625 $253 26.146477592558625 $166 $254 forward 7 unknown #
coedge $-1 $105 $104 $165 $249 reversed $41 $-1 #
coedge $-1 $244 $166 $104 $170 forward $251 $-1 #
edge $-1 $252 -12.265791648969213 $174 12.265791648969213 $169 $255 forward 7 unknown #
coedge $-1 $256 $257 $105 $172 reversed $161 $-1 #
edge $-1 $258 -12.265791648969213 $175 12.265791648969213 $171 $259 forward 7 unknown #
coedge $-1 $243 $106 $257 $260 forward $101 $-1 #
vertex $-1 $170 $261 #
vertex $-1 $260 $262 #
straight-curve $-1 0 -26.146477592558625 -12.265791648969213 -1 0 0 I I #
face $-1 $263 $264 $25 $-1 $265 reversed single #
loop $-1 $-1 $114 $108 #
plane-surface $-1 -27.001121678586507 -32.548178688359137 0 1 0 0 0 0 -1 forward_v I I I I #
coedge $-1 $266 $267 $268 $269 forward $109 $-1 #
coedge $-1 $270 $111 $271 $272 forward $69 $-1 #
coedge $-1 $111 $270 $187 $273 forward $69 $-1 #
edge $-1 $189 -27.001121678586507 $274 -21.518406020583257 $111 $275 forward 7 unknown #
coedge $-1 $113 $112 $276 $277 forward $44 $-1 #
coedge $-1 $278 $279 $112 $186 forward $280 $-1 #
edge $-1 $281 21.518406020583257 $190 27.001121678586507 $185 $282 forward 7 unknown #
coedge $-1 $268 $114 $182 $273 reversed $178 $-1 #
coedge $-1 $114 $268 $278 $283 reversed $178 $-1 #
vertex $-1 $183 $284 #
vertex $-1 $283 $285 #
straight-curve $-1 -27.001121678586507 -26.146477592558625 0 0 0 1 I I #
face $-1 $-1 $286 $26 $-1 $287 reversed single #
loop $-1 $-1 $122 $116 #
plane-surface $-1 0 0 12.265791648969213 0 0 1 1 0 0 forward_v I I I I #
coedge $-1 $288 $289 $290 $291 reversed $117 $-1 #
coedge $-1 $292 $119 $121 $202 forward $73 $-1 #
coedge $-1 $119 $292 $288 $293 forward $73 $-1 #
coedge $-1 $290 $122 $119 $199 forward $193 $-1 #
edge $-1 $205 -7.1068172394308107 $294 -0.17019810741109609 $198 $295 forward 7 unknown #
coedge $-1 $296 $297 $120 $201 forward $286 $-1 #
edge $-1 $298 -62.305371207057718 $204 -51.80892244415071 $200 $299 forward 7 unknown #
edge $-1 $205 79.854471070005772 $298 92.099978637043392 $121 $300 forward 7 unknown #
coedge $-1 $122 $290 $296 $301 forward $193 $-1 #
vertex $-1 $123 $302 #
vertex $-1 $123 $303 #
straight-curve $-1 38.780042813800954 10.745324912851764 12.265791648969213 -1 0 0 I I #
coedge $-1 $207 $207 $-1 $304 reversed $126 $-1 #
edge $-1 $305 0 $305 6.2831853071796004 $127 $306 forward 7 unknown #
vertex $-1 $130 $307 #
ellipse-curve $-1 42.896538076547117 7.2770153468419068 7.0175672675157026 0.85716730853699208 0 0.51503806187062418 0.77255709280593621 0 -1.2857509628054882 1 I I #
face $-1 $-1 $223 $28 $-1 $308 forward single #
loop $-1 $-1 $309 $131 #
plane-surface $-1 -46.049989318521682 0 0 1 0 0 0 0 -1 forward_v I I I I #
coedge $-1 $310 $311 $312 $313 reversed $132 $-1 #
coedge $-1 $314 $134 $136 $221 forward $82 $-1 #
coedge $-1 $134 $314 $310 $315 forward $82 $-1 #
coedge $-1 $312 $137 $134 $218 forward $223 $-1 #
edge $-1 $225 1.015580054047927 $316 12.761628689845001 $217 $317 forward 7 unknown #
coedge $-1 $318 $319 $135 $220 forward $212 $-1 #
edge $-1 $320 -28.346178511861112 $224 -24.512548524948613 $219 $321 forward 7 unknown #
edge $-1 $225 -5.4215714577077643 $320 2.0097183471152325e-014 $136 $322 forward 7 unknown #
coedge $-1 $137 $312 $318 $323 forward $223 $-1 #
loop $-1 $-1 $312 $211 #
vertex $-1 $220 $324 #
vertex $-1 $138 $325 #
straight-curve $-1 -55.587254757760896 7.9041844259943908 12.265791648969213 1 0 0 I I #
coedge $-1 $227 $227 $-1 $326 reversed $141 $-1 #
edge $-1 $327 0 $327 6.2831853071796004 $142 $328 forward 7 unknown #
vertex $-1 $145 $329 #
ellipse-curve $-1 -44.133174369545323 10.253394153153806 10.34897665551296 -0.70710678939079041 0 0.70710677298230451 0.35355338649115226 0 0.35355339469539521 1 I I #
coedge $-1 $231 $231 $-1 $330 reversed $148 $-1 #
edge $-1 $331 0 $331 6.2831853071796004 $149 $332 forward 7 unknown #
vertex $-1 $152 $333 #
ellipse-curve $-1 -44.133174369545323 13.777208743892928 10.34897665551296 -0.70710678939079041 0 0.70710677298230451 0.35355338649115226 0 0.35355339469539521 1 I I #
coedge $-1 $235 $235 $-1 $334 reversed $155 $-1 #
edge $-1 $335 0 $335 6.2831853071796004 $156 $336 forward 7 unknown #
vertex $-1 $159 $337 #
ellipse-curve $-1 -44.133174369545323 17.301023334632049 10.34897665551296 -0.70710678939079041 0 0.70710677298230451 0.35355338649115226 0 0.35355339469539521 1 I I #
face $-1 $-1 $251 $24 $-1 $338 reversed single #
loop $-1 $-1 $339 $160 #
plane-surface $-1 0 26.146477592558625 0 0 -1 0 0 0 -1 forward_v I I I I #
coedge $-1 $257 $256 $340 $341 forward $161 $-1 #
coedge $-1 $163 $173 $342 $343 forward $101 $-1 #
coedge $-1 $250 $169 $163 $245 reversed $251 $-1 #
edge $-1 $344 -26.146477592558625 $174 26.146477592558625 $244 $345 forward 7 unknown #
coedge $-1 $165 $164 $256 $346 forward $65 $-1 #
coedge $-1 $339 $340 $164 $248 reversed $240 $-1 #
edge $-1 $253 -46.049989318521682 $347 46.049989318521682 $247 $348 forward 7 unknown #
edge $-1 $258 -46.049989318521682 $252 46.049989318521682 $168 $349 forward 7 unknown #
coedge $-1 $166 $244 $339 $350 reversed $251 $-1 #
loop $-1 $-1 $169 $239 #
vertex $-1 $167 $351 #
vertex $-1 $167 $352 #
straight-curve $-1 46.049989318521682 0 12.265791648969213 0 1 0 I I #
straight-curve $-1 46.049989318521682 -26.146477592558625 0 0 0 -1 I I #
coedge $-1 $242 $171 $246 $346 reversed $161 $-1 #
coedge $-1 $171 $242 $173 $260 reversed $161 $-1 #
vertex $-1 $346 $353 #
straight-curve $-1 -46.049989318521682 -26.146477592558625 0 0 0 -1 I I #
edge $-1 $175 -26.146477592558625 $354 26.146477592558625 $257 $355 forward 7 unknown #
point $-1 46.049989318521682 -26.146477592558625 -12.265791648969213 #
point $-1 -46.049989318521682 -26.146477592558625 -12.265791648969213 #
face $-1 $-1 $280 $25 $-1 $356 forward single #
loop $-1 $-1 $357 $177 #
plane-surface $-1 -21.518406020583257 -32.548178688359137 0 -1 0 0 0 0 1 forward_v I I I I #
coedge $-1 $358 $180 $270 $359 reversed $109 $-1 #
coedge $-1 $180 $358 $360 $361 reversed $109 $-1 #
coedge $-1 $188 $187 $180 $269 reversed $178 $-1 #
edge $-1 $362 -12.265791648969213 $363 12.265791648969213 $268 $364 forward 7 unknown #
coedge $-1 $182 $181 $266 $359 forward $69 $-1 #
coedge $-1 $276 $357 $181 $272 reversed $264 $-1 #
edge $-1 $274 -6.4017010958005116 $365 6.4017010958005116 $271 $366 forward 7 unknown #
edge $-1 $363 -6.4017010958005116 $189 6.4017010958005116 $187 $367 forward 7 unknown #
vertex $-1 $272 $368 #
straight-curve $-1 0 -26.146477592558625 -12.265791648969213 1 0 0 I I #
coedge $-1 $369 $271 $184 $277 reversed $264 $-1 #
edge $-1 $281 -12.265791648969213 $274 12.265791648969213 $276 $370 forward 7 unknown #
coedge $-1 $360 $185 $188 $283 forward $280 $-1 #
coedge $-1 $185 $360 $369 $371 forward $280 $-1 #
loop $-1 $-1 $185 $263 #
vertex $-1 $186 $372 #
straight-curve $-1 0 -26.146477592558625 12.265791648969213 -1 0 0 I I #
edge $-1 $190 -6.4017010958005116 $362 6.4017010958005116 $188 $373 forward 7 unknown #
point $-1 -27.001121678586507 -26.146477592558625 -12.265791648969213 #
point $-1 -27.001121678586507 -26.146477592558625 12.265791648969213 #
loop $-1 $-1 $200 $192 #
plane-surface $-1 46.049989318521682 0 0 -1 0 0 0 0 1 forward_v I I I I #
coedge $-1 $289 $195 $197 $293 reversed $117 $-1 #
coedge $-1 $195 $288 $374 $375 reversed $117 $-1 #
coedge $-1 $203 $198 $195 $291 forward $193 $-1 #
edge $-1 $294 0.9630440207716191 $376 7.2699465047207283 $290 $377 forward 7 unknown #
coedge $-1 $197 $196 $297 $378 reversed $73 $-1 #
edge $-1 $379 -92.099978637043392 $294 -79.854471070005772 $288 $380 forward 7 unknown #
vertex $-1 $199 $381 #
straight-curve $-1 39.743086834572551 3.6385076734209534 12.265791648969213 0 -1 0 I I #
coedge $-1 $374 $200 $203 $301 reversed $286 $-1 #
coedge $-1 $200 $374 $292 $378 forward $286 $-1 #
vertex $-1 $201 $382 #
straight-curve $-1 46.049989318521682 10.745324912851764 64.074714093119923 0 0 1 I I #
straight-curve $-1 -1.3850051770270255 10.745324912851764 80.714433690691138 0.51503806187062418 0 -0.85716730853699208 I I #
edge $-1 $376 3.8087057808320495 $204 10.745324912851764 $296 $383 forward 7 unknown #
point $-1 46.049989318521682 10.745324912851764 12.265791648969213 #
point $-1 39.743086834572573 10.745324912851764 12.265791648969213 #
edge $-1 $384 1 $384 0 $207 $-1 forward 7 unknown #
vertex $-1 $208 $385 #
ellipse-curve $-1 40.596532196092902 7.2770153468419068 5.6355843580391021 0.85716730853699208 0 0.51503806187062418 0.77255709280593621 0 -1.2857509628054882 1 I I #
point $-1 43.669095169353064 7.2770153468419068 5.73181630471022 #
plane-surface $-1 0 0 12.265791648969213 0 0 1 1 0 0 forward_v I I I I #
coedge $-1 $319 $318 $311 $386 forward $212 $-1 #
coedge $-1 $311 $214 $216 $315 reversed $132 $-1 #
coedge $-1 $214 $310 $309 $386 reversed $132 $-1 #
coedge $-1 $222 $217 $214 $313 forward $223 $-1 #
edge $-1 $316 -13.370895337191932 $387 -9.5372654392392135 $312 $388 forward 7 unknown #
coedge $-1 $216 $215 $319 $389 reversed $82 $-1 #
edge $-1 $390 -2.0097183471152325e-014 $316 5.4215714577077643 $310 $391 forward 7 unknown #
vertex $-1 $218 $392 #
straight-curve $-1 -42.216359420568963 6.8886043719464638 12.265791648969211 0 1 0 I I #
coedge $-1 $309 $219 $222 $323 reversed $212 $-1 #
coedge $-1 $219 $309 $314 $389 forward $212 $-1 #
vertex $-1 $220 $393 #
straight-curve $-1 -46.049989318521682 7.9041844259943908 36.778340173917826 0 0 1 I I #
straight-curve $-1 -46.049989318521668 7.9041844259943908 8.4321616620567283 -0.70710677298230451 0 -0.70710678939079041 I I #
edge $-1 $387 -19.650233061791464 $224 -7.9041844259943908 $318 $394 forward 7 unknown #
point $-1 -46.049989318521682 7.9041844259943908 12.265791648969213 #
point $-1 -42.216359420568963 7.9041844259943908 12.265791648969213 #
edge $-1 $395 1 $395 0 $227 $-1 forward 7 unknown #
vertex $-1 $228 $396 #
ellipse-curve $-1 -42.938039379767794 10.253394153153806 9.1538416934686619 -0.70710678939079041 0 0.70710677298230451 0.35355338649115226 0 0.35355339469539521 1 I I #
point $-1 -43.77962098305418 10.253394153153806 10.702530050208367 #
edge $-1 $397 1 $397 0 $231 $-1 forward 7 unknown #
vertex $-1 $232 $398 #
ellipse-curve $-1 -42.938039379767794 13.777208743892928 9.1538416934686619 -0.70710678939079041 0 0.70710677298230451 0.35355338649115226 0 0.35355339469539521 1 I I #
point $-1 -43.77962098305418 13.777208743892928 10.702530050208367 #
edge $-1 $399 1 $399 0 $235 $-1 forward 7 unknown #
vertex $-1 $236 $400 #
ellipse-curve $-1 -42.938039379767794 17.301023334632049 9.1538416934686619 -0.70710678939079041 0 0.70710677298230451 0.35355338649115226 0 0.35355339469539521 1 I I #
point $-1 -43.77962098305418 17.301023334632049 10.702530050208367 #
plane-surface $-1 46.049989318521682 0 0 -1 0 0 0 0 1 forward_v I I I I #
coedge $-1 $342 $247 $250 $350 forward $240 $-1 #
coedge $-1 $247 $342 $242 $341 reversed $240 $-1 #
edge $-1 $347 -12.265791648969213 $354 12.265791648969213 $340 $401 forward 7 unknown #
coedge $-1 $340 $339 $243 $343 reversed $240 $-1 #
edge $-1 $354 -46.049989318521682 $344 46.049989318521682 $342 $402 forward 7 unknown #
vertex $-1 $245 $403 #
straight-curve $-1 46.049989318521682 0 -12.265791648969213 0 -1 0 I I #
edge $-1 $347 -26.146477592558625 $258 26.146477592558625 $256 $404 forward 7 unknown #
vertex $-1 $248 $405 #
straight-curve $-1 0 26.146477592558625 12.265791648969213 -1 0 0 I I #
straight-curve $-1 0 -26.146477592558625 12.265791648969213 1 0 0 I I #
edge $-1 $253 -12.265791648969213 $344 12.265791648969213 $250 $406 forward 7 unknown #
point $-1 46.049989318521682 -26.146477592558625 12.265791648969213 #
point $-1 46.049989318521682 26.146477592558625 12.265791648969213 #
point $-1 -46.049989318521682 -26.146477592558625 12.265791648969213 #
vertex $-1 $343 $407 #
straight-curve $-1 -46.049989318521682 0 -12.265791648969213 0 1 0 I I #
plane-surface $-1 0 0 12.265791648969213 0 0 1 1 0 0 forward_v I I I I #
coedge $-1 $271 $369 $358 $408 forward $264 $-1 #
coedge $-1 $267 $266 $357 $408 reversed $109 $-1 #
edge $-1 $365 -2.7413578290016254 $363 2.7413578290016254 $266 $409 forward 7 unknown #
coedge $-1 $279 $278 $267 $361 forward $280 $-1 #
edge $-1 $362 -2.7413578290016254 $410 2.7413578290016254 $267 $411 forward 7 unknown #
vertex $-1 $283 $412 #
vertex $-1 $273 $413 #
straight-curve $-1 -27.001121678586507 -38.949879784159648 0 0 0 -1 I I #
vertex $-1 $408 $414 #
straight-curve $-1 -21.518406020583257 -32.548178688359137 -12.265791648969213 0 -1 0 I I #
straight-curve $-1 -27.001121678586507 -32.548178688359137 -12.265791648969213 0 1 0 I I #
point $-1 -21.518406020583257 -26.146477592558625 -12.265791648969213 #
coedge $-1 $357 $276 $279 $371 reversed $264 $-1 #
straight-curve $-1 -21.518406020583257 -26.146477592558625 0 0 0 -1 I I #
edge $-1 $410 -6.4017010958005116 $281 6.4017010958005116 $369 $415 forward 7 unknown #
point $-1 -21.518406020583257 -26.146477592558625 12.265791648969213 #
straight-curve $-1 -27.001121678586507 -32.548178688359137 12.265791648969213 0 -1 0 I I #
coedge $-1 $297 $296 $289 $375 forward $286 $-1 #
edge $-1 $376 51.80892244415071 $379 62.305371207057718 $374 $416 forward 7 unknown #
vertex $-1 $301 $417 #
straight-curve $-1 38.780042813800954 3.8087057808320495 12.265791648969213 1 0 0 I I #
edge $-1 $379 0.17019810741109609 $298 7.1068172394308107 $297 $418 forward 7 unknown #
vertex $-1 $378 $419 #
straight-curve $-1 -1.3850051770270255 3.8087057808320495 80.714433690691138 -0.51503806187062418 0 0.85716730853699208 I I #
point $-1 39.743086834572573 3.8087057808320495 12.265791648969213 #
point $-1 46.049989318521682 10.745324912851764 1.7693428860622049 #
straight-curve $-1 46.049989318521682 0 12.265791648969213 0 1 0 I I #
vertex $-1 $304 $420 #
point $-1 41.369089288898834 7.2770153468419068 4.3498333952336141 #
edge $-1 $387 24.512548524948613 $390 28.346178511861112 $309 $421 forward 7 unknown #
vertex $-1 $323 $422 #
straight-curve $-1 -55.587254757760896 19.650233061791464 12.265791648969213 -1 0 0 I I #
edge $-1 $390 -12.761628689845001 $320 -1.015580054047927 $319 $423 forward 7 unknown #
vertex $-1 $389 $424 #
straight-curve $-1 -46.049989318521668 19.650233061791464 8.4321616620567283 0.70710677298230451 0 0.70710678939079041 I I #
point $-1 -42.216359420568963 19.650233061791464 12.265791648969213 #
point $-1 -46.049989318521682 7.9041844259943908 8.4321616620567141 #
straight-curve $-1 -46.049989318521682 0 12.265791648969213 0 -1 0 I I #
vertex $-1 $326 $425 #
point $-1 -42.584485993276644 10.253394153153806 9.5073950881640563 #
vertex $-1 $330 $426 #
point $-1 -42.584485993276644 13.777208743892928 9.5073950881640563 #
vertex $-1 $334 $427 #
point $-1 -42.584485993276644 17.301023334632049 9.5073950881640563 #
straight-curve $-1 -46.049989318521682 26.146477592558625 0 0 0 -1 I I #
straight-curve $-1 0 26.146477592558625 -12.265791648969213 1 0 0 I I #
point $-1 46.049989318521682 26.146477592558625 -12.265791648969213 #
straight-curve $-1 -46.049989318521682 0 12.265791648969213 0 -1 0 I I #
point $-1 -46.049989318521682 26.146477592558625 12.265791648969213 #
straight-curve $-1 46.049989318521682 26.146477592558625 0 0 0 -1 I I #
point $-1 -46.049989318521682 26.146477592558625 -12.265791648969213 #
edge $-1 $410 -12.265791648969213 $365 12.265791648969213 $357 $428 forward 7 unknown #
straight-curve $-1 -24.259763849584882 -38.949879784159648 -12.265791648969213 -1 0 0 I I #
vertex $-1 $371 $429 #
straight-curve $-1 -24.259763849584882 -38.949879784159648 12.265791648969213 1 0 0 I I #
point $-1 -27.001121678586507 -38.949879784159648 12.265791648969213 #
point $-1 -27.001121678586507 -38.949879784159648 -12.265791648969213 #
point $-1 -21.518406020583257 -38.949879784159648 -12.265791648969213 #
straight-curve $-1 -21.518406020583257 -32.548178688359137 12.265791648969213 0 1 0 I I #
straight-curve $-1 46.049989318521682 3.8087057808320495 64.074714093119923 0 0 -1 I I #
point $-1 46.049989318521682 3.8087057808320495 12.265791648969213 #
straight-curve $-1 46.049989318521682 3.6385076734209534 1.7693428860621978 0 1 0 I I #
point $-1 46.049989318521682 3.8087057808320495 1.7693428860622049 #
point $-1 39.310781233287408 7.2770153468419068 4.8630272652331659 #
straight-curve $-1 -46.049989318521682 19.650233061791464 36.778340173917826 0 0 -1 I I #
point $-1 -46.049989318521682 19.650233061791464 12.265791648969213 #
straight-curve $-1 -46.049989318521682 6.8886043719464638 8.4321616620567106 0 -1 0 I I #
point $-1 -46.049989318521682 19.650233061791464 8.4321616620567141 #
point $-1 -42.584485985072398 10.253394153153806 8.8002883069775084 #
point $-1 -42.584485985072398 13.777208743892928 8.8002883069775084 #
point $-1 -42.584485985072398 17.301023334632049 8.8002883069775084 #
straight-curve $-1 -21.518406020583257 -38.949879784159648 0 0 0 -1 I I #
point $-1 -21.518406020583257 -38.949879784159648 12.265791648969213 #
End-of-ACIS-data 