500 0 6 0           
7 Unknown 11 ACIS 5.0 NT 24 Fri Mar 26 02:26:51 1999 
-1 9.9999999999999995e-007 1e-010 
body $-1 $6 $-1 $7 #
body $-1 $8 $-1 $9 #
body $-1 $10 $-1 $11 #
body $-1 $12 $-1 $13 #
body $-1 $14 $-1 $15 #
body $-1 $16 $-1 $17 #
lump $-1 $-1 $18 $0 #
transform $-1 1 0 0 0 1 0 0 0 1 64.342783898434405 26.056402376228693 11.895991779157946 1 rotate no_reflect no_shear #
lump $-1 $-1 $19 $1 #
transform $-1 1 0 0 0 1 0 0 0 1 64.342783898434405 26.056402376228693 11.895991779157946 1 rotate no_reflect no_shear #
lump $-1 $-1 $20 $2 #
transform $-1 1 0 0 0 1 0 0 0 1 64.342783898434405 26.056402376228693 11.895991779157946 1 rotate no_reflect no_shear #
lump $-1 $-1 $21 $3 #
transform $-1 1 0 0 0 1 0 0 0 1 64.342783898434405 26.056402376228693 11.895991779157946 1 rotate no_reflect no_shear #
lump $-1 $-1 $22 $4 #
transform $-1 1 0 0 0 1 0 0 0 1 64.342783898434405 26.056402376228693 11.895991779157946 1 rotate no_reflect no_shear #
lump $-1 $-1 $23 $5 #
transform $-1 1 0 0 0 1 0 0 0 1 64.342783898434405 26.056402376228693 11.895991779157946 1 rotate no_reflect no_shear #
shell $-1 $-1 $-1 $24 $-1 $6 #
shell $-1 $-1 $-1 $25 $-1 $8 #
shell $-1 $-1 $-1 $26 $-1 $10 #
shell $-1 $-1 $-1 $27 $-1 $12 #
shell $-1 $-1 $-1 $28 $-1 $14 #
shell $-1 $-1 $-1 $29 $-1 $16 #
face $-1 $30 $31 $18 $-1 $32 forward single #
face $-1 $33 $34 $19 $-1 $35 forward single #
face $-1 $36 $37 $20 $-1 $38 forward single #
face $-1 $39 $40 $21 $-1 $41 reversed single #
face $-1 $42 $43 $22 $-1 $44 forward single #
face $-1 $45 $46 $23 $-1 $47 forward single #
face $-1 $48 $49 $18 $-1 $50 reversed single #
loop $-1 $-1 $51 $24 #
plane-surface $-1 0 0 11.895991779157946 0 0 1 1 0 0 forward_v I I I I #
face $-1 $52 $53 $19 $-1 $54 reversed single #
loop $-1 $-1 $55 $25 #
plane-surface $-1 -64.342783898434405 0 0 1 0 0 0 0 -1 forward_v I I I I #
face $-1 $56 $57 $20 $-1 $58 reversed single #
loop $-1 $-1 $59 $26 #
plane-surface $-1 64.342783898434405 0 0 -1 0 0 0 0 1 forward_v I I I I #
face $-1 $60 $61 $21 $-1 $62 reversed single #
loop $-1 $-1 $63 $27 #
plane-surface $-1 52.232811664714383 -92.334370364689136 119.09381253545033 -1 0 0 0 -0.51503808176128008 0.85716729658548041 forward_v I I I I #
face $-1 $64 $65 $22 $-1 $66 forward single #
loop $-1 $67 $68 $28 #
cone-surface $-1 39.444518544652979 -22.686815711893818 9.0376947081325874 0 0.51503808176128008 -0.85716729658548041 1 0 0 1 I I 0 1 1 forward I I I I #
face $-1 $69 $70 $23 $-1 $71 forward single #
loop $-1 $72 $73 $29 #
cone-surface $-1 47.117494416689823 -22.686815711893818 9.0376947081325874 0 0.51503808176128008 -0.85716729658548041 1 0 0 1 I I 0 1 1 forward I I I I #
face $-1 $74 $75 $18 $-1 $76 reversed single #
loop $-1 $-1 $77 $30 #
plane-surface $-1 0 0 -11.895991779157946 0 0 1 1 0 0 forward_v I I I I #
coedge $-1 $78 $79 $80 $81 forward $31 $-1 #
face $-1 $82 $83 $19 $-1 $84 forward single #
loop $-1 $-1 $85 $33 #
plane-surface $-1 0 26.056402376228693 0 0 -1 0 0 0 -1 forward_v I I I I #
coedge $-1 $86 $87 $88 $89 forward $34 $-1 #
face $-1 $90 $91 $20 $-1 $92 forward single #
loop $-1 $-1 $93 $36 #
plane-surface $-1 0 -26.056402376228693 0 0 1 0 0 0 1 forward_v I I I I #
coedge $-1 $94 $95 $96 $97 forward $37 $-1 #
face $-1 $98 $99 $21 $-1 $100 reversed single #
loop $-1 $-1 $101 $39 #
plane-surface $-1 43.281006480671394 -26.056402376228661 8.7887522774407358 0 -0.51503808176128008 0.85716729658548041 1 0 0 forward_v I I I I #
coedge $-1 $102 $103 $104 $105 reversed $40 $-1 #
face $-1 $-1 $106 $22 $-1 $107 forward single #
loop $-1 $108 $109 $42 #
cone-surface $-1 39.444518544652979 -21.645367434593545 7.3044337396730867 0 0.51503808176128008 -0.85716729658548041 0.5 0 0 1 I I -0.70710678118654746 0.70710678118654746 0.5 forward I I I I #
loop $-1 $-1 $110 $28 #
coedge $-1 $68 $68 $111 $112 reversed $43 $-1 #
face $-1 $-1 $113 $23 $-1 $114 forward single #
loop $-1 $115 $116 $45 #
cone-surface $-1 47.117494416689823 -21.645367434593545 7.3044337396730867 0 0.51503808176128008 -0.85716729658548041 0.5 0 0 1 I I -0.70710678118654746 0.70710678118654746 0.5 forward I I I I #
loop $-1 $-1 $117 $29 #
coedge $-1 $73 $73 $118 $119 reversed $46 $-1 #
face $-1 $120 $121 $18 $-1 $122 reversed single #
loop $-1 $-1 $123 $48 #
plane-surface $-1 0 -26.056402376228693 0 0 1 0 0 0 1 forward_v I I I I #
coedge $-1 $124 $125 $126 $127 forward $49 $-1 #
coedge $-1 $128 $51 $129 $130 forward $31 $-1 #
coedge $-1 $51 $128 $131 $132 forward $31 $-1 #
coedge $-1 $133 $134 $51 $81 reversed $135 $-1 #
edge $-1 $136 -26.056402376228693 $137 26.056402376228693 $80 $138 forward 7 unknown #
face $-1 $139 $140 $19 $-1 $141 reversed single #
loop $-1 $-1 $88 $52 #
plane-surface $-1 -70.397770015294412 0 -1.6298498995874229 0 0 1 1 0 0 forward_v I I I I #
coedge $-1 $142 $143 $87 $144 forward $53 $-1 #
coedge $-1 $145 $55 $146 $147 reversed $34 $-1 #
coedge $-1 $55 $145 $85 $144 reversed $34 $-1 #
coedge $-1 $148 $149 $55 $89 reversed $83 $-1 #
edge $-1 $150 -26.056402376228693 $151 26.056402376228693 $88 $152 forward 7 unknown #
face $-1 $153 $154 $20 $-1 $155 reversed single #
loop $-1 $-1 $156 $56 #
plane-surface $-1 70.397770015294427 0 -1.6298498995874229 0 0 1 1 0 0 forward_v I I I I #
coedge $-1 $157 $158 $95 $159 forward $57 $-1 #
coedge $-1 $160 $59 $161 $162 reversed $37 $-1 #
coedge $-1 $59 $160 $93 $159 reversed $37 $-1 #
coedge $-1 $163 $164 $59 $97 reversed $91 $-1 #
edge $-1 $165 -26.056402376228693 $166 26.056402376228693 $96 $167 forward 7 unknown #
face $-1 $168 $169 $21 $-1 $170 forward single #
loop $-1 $-1 $171 $60 #
plane-surface $-1 34.329201296628405 -92.334370364689136 119.09381253545033 1 0 0 0 0.51503808176128008 -0.85716729658548041 forward_v I I I I #
coedge $-1 $172 $173 $174 $175 reversed $61 $-1 #
coedge $-1 $103 $63 $176 $177 reversed $40 $-1 #
coedge $-1 $63 $102 $172 $178 reversed $40 $-1 #
coedge $-1 $174 $179 $63 $105 forward $169 $-1 #
edge $-1 $180 20.110782806115875 $181 25.282097661946416 $104 $182 forward 7 unknown #
loop $-1 $-1 $111 $64 #
plane-surface $-1 43.281006480671394 -26.056402376228661 8.7887522774407358 0 -0.51503808176128008 0.85716729658548041 1 0 0 forward_v I I I I #
loop $-1 $-1 $183 $42 #
coedge $-1 $109 $109 $110 $184 reversed $65 $-1 #
coedge $-1 $110 $110 $109 $184 forward $67 $-1 #
coedge $-1 $111 $111 $68 $112 forward $106 $-1 #
edge $-1 $185 6.2739994883656428e-016 $185 6.2831853071796013 $111 $186 forward 7 unknown #
loop $-1 $-1 $118 $69 #
plane-surface $-1 43.281006480671394 -26.056402376228661 8.7887522774407358 0 -0.51503808176128008 0.85716729658548041 1 0 0 forward_v I I I I #
loop $-1 $-1 $187 $45 #
coedge $-1 $116 $116 $117 $188 reversed $70 $-1 #
coedge $-1 $117 $117 $116 $188 forward $72 $-1 #
coedge $-1 $118 $118 $73 $119 forward $113 $-1 #
edge $-1 $189 6.2739994883656428e-016 $189 6.2831853071796013 $118 $190 forward 7 unknown #
face $-1 $191 $192 $18 $-1 $193 reversed single #
loop $-1 $-1 $194 $74 #
plane-surface $-1 -64.342783898434405 0 0 1 0 0 0 0 -1 forward_v I I I I #
coedge $-1 $195 $131 $196 $197 forward $75 $-1 #
coedge $-1 $198 $77 $195 $199 forward $49 $-1 #
coedge $-1 $77 $198 $200 $201 forward $49 $-1 #
coedge $-1 $134 $133 $77 $127 reversed $135 $-1 #
edge $-1 $202 -26.056402376228693 $203 26.056402376228693 $126 $204 forward 7 unknown #
coedge $-1 $79 $78 $205 $206 forward $31 $-1 #
coedge $-1 $207 $208 $78 $130 reversed $192 $-1 #
edge $-1 $137 -64.342783898434405 $209 64.342783898434405 $129 $210 forward 7 unknown #
coedge $-1 $123 $211 $79 $132 reversed $75 $-1 #
edge $-1 $212 -64.342783898434405 $136 64.342783898434405 $131 $213 forward 7 unknown #
coedge $-1 $126 $80 $211 $214 forward $135 $-1 #
coedge $-1 $80 $126 $207 $215 reversed $135 $-1 #
loop $-1 $-1 $133 $191 #
vertex $-1 $81 $216 #
vertex $-1 $81 $217 #
straight-curve $-1 64.342783898434405 0 11.895991779157946 0 1 0 I I #
face $-1 $218 $219 $19 $-1 $220 reversed single #
loop $-1 $-1 $221 $82 #
plane-surface $-1 -70.397770015294412 0 -6.3109174004909754 0 0 1 1 0 0 forward_v I I I I #
coedge $-1 $222 $85 $223 $224 reversed $53 $-1 #
coedge $-1 $85 $222 $148 $225 reversed $53 $-1 #
edge $-1 $150 1.6298498995874229 $226 6.3109174004909754 $85 $227 forward 7 unknown #
coedge $-1 $87 $86 $221 $228 forward $34 $-1 #
coedge $-1 $229 $230 $86 $147 forward $231 $-1 #
edge $-1 $232 -6.3109174004909754 $151 -1.6298498995874229 $146 $233 forward 7 unknown #
coedge $-1 $234 $88 $143 $225 forward $83 $-1 #
coedge $-1 $88 $234 $229 $235 forward $83 $-1 #
vertex $-1 $144 $236 #
vertex $-1 $235 $237 #
straight-curve $-1 -64.342783898434405 0 -1.6298498995874229 0 -1 0 I I #
face $-1 $238 $239 $20 $-1 $240 reversed single #
loop $-1 $-1 $241 $90 #
plane-surface $-1 70.397770015294427 0 -6.3109174004909754 0 0 1 1 0 0 forward_v I I I I #
coedge $-1 $164 $163 $242 $243 forward $91 $-1 #
coedge $-1 $244 $93 $245 $246 reversed $57 $-1 #
coedge $-1 $93 $244 $163 $247 reversed $57 $-1 #
edge $-1 $165 1.6298498995874229 $248 6.3109174004909754 $93 $249 forward 7 unknown #
coedge $-1 $95 $94 $250 $251 forward $37 $-1 #
coedge $-1 $252 $253 $94 $162 forward $254 $-1 #
edge $-1 $255 -6.3109174004909754 $166 -1.6298498995874229 $161 $256 forward 7 unknown #
coedge $-1 $156 $96 $158 $247 forward $91 $-1 #
coedge $-1 $96 $156 $252 $257 forward $91 $-1 #
vertex $-1 $159 $258 #
vertex $-1 $257 $259 #
straight-curve $-1 64.342783898434405 0 -1.6298498995874229 0 1 0 I I #
face $-1 $-1 $260 $21 $-1 $261 reversed single #
loop $-1 $-1 $104 $98 #
plane-surface $-1 0 0 11.895991779157946 0 0 1 1 0 0 forward_v I I I I #
coedge $-1 $262 $263 $264 $265 reversed $99 $-1 #
coedge $-1 $266 $101 $103 $178 forward $61 $-1 #
coedge $-1 $101 $266 $262 $267 forward $61 $-1 #
coedge $-1 $264 $104 $101 $175 forward $169 $-1 #
edge $-1 $181 -30.592308424378686 $268 -12.688698056292708 $174 $269 forward 7 unknown #
coedge $-1 $270 $271 $102 $177 forward $260 $-1 #
edge $-1 $272 -50.758153990284448 $180 -47.650914488567217 $176 $273 forward 7 unknown #
edge $-1 $181 -6.0330286473018786 $272 3.7471235426367728e-014 $103 $274 forward 7 unknown #
coedge $-1 $104 $264 $270 $275 forward $169 $-1 #
vertex $-1 $177 $276 #
vertex $-1 $105 $277 #
straight-curve $-1 52.232811664714383 -46.167185182344568 11.895991779157946 0 1 0 I I #
coedge $-1 $183 $183 $-1 $278 reversed $108 $-1 #
edge $-1 $279 0 $279 6.2831853071796004 $109 $280 forward 7 unknown #
vertex $-1 $112 $281 #
ellipse-curve $-1 39.444518544652979 -23.470744948313435 10.342372028299323 0 -0.51503808176128008 0.85716729658548041 1 0 0 1 I I #
coedge $-1 $187 $187 $-1 $282 reversed $115 $-1 #
edge $-1 $283 0 $283 6.2831853071796004 $116 $284 forward 7 unknown #
vertex $-1 $119 $285 #
ellipse-curve $-1 47.117494416689823 -23.470744948313435 10.342372028299323 0 -0.51503808176128008 0.85716729658548041 1 0 0 1 I I #
face $-1 $-1 $135 $18 $-1 $286 reversed single #
loop $-1 $-1 $207 $120 #
plane-surface $-1 0 26.056402376228693 0 0 -1 0 0 0 -1 forward_v I I I I #
coedge $-1 $287 $205 $208 $288 forward $121 $-1 #
coedge $-1 $211 $123 $124 $199 reversed $75 $-1 #
coedge $-1 $205 $287 $123 $197 reversed $121 $-1 #
edge $-1 $212 -11.895991779157946 $289 11.895991779157946 $196 $290 forward 7 unknown #
coedge $-1 $125 $124 $287 $291 forward $49 $-1 #
edge $-1 $203 -64.342783898434405 $289 64.342783898434405 $195 $292 forward 7 unknown #
coedge $-1 $208 $207 $125 $201 reversed $192 $-1 #
edge $-1 $293 -64.342783898434405 $202 64.342783898434405 $200 $294 forward 7 unknown #
vertex $-1 $127 $295 #
vertex $-1 $214 $296 #
straight-curve $-1 64.342783898434405 0 -11.895991779157946 0 -1 0 I I #
coedge $-1 $194 $196 $128 $206 reversed $121 $-1 #
edge $-1 $209 -26.056402376228693 $212 26.056402376228693 $205 $297 forward 7 unknown #
coedge $-1 $200 $129 $134 $215 forward $192 $-1 #
coedge $-1 $129 $200 $194 $288 reversed $192 $-1 #
vertex $-1 $130 $298 #
straight-curve $-1 0 26.056402376228693 11.895991779157946 -1 0 0 I I #
coedge $-1 $131 $195 $133 $214 reversed $75 $-1 #
vertex $-1 $206 $299 #
straight-curve $-1 0 -26.056402376228693 11.895991779157946 1 0 0 I I #
edge $-1 $136 -11.895991779157946 $203 11.895991779157946 $133 $300 forward 7 unknown #
edge $-1 $137 -11.895991779157946 $202 11.895991779157946 $134 $301 forward 7 unknown #
point $-1 64.342783898434405 -26.056402376228693 11.895991779157946 #
point $-1 64.342783898434405 26.056402376228693 11.895991779157946 #
face $-1 $-1 $231 $19 $-1 $302 reversed single #
loop $-1 $-1 $303 $139 #
plane-surface $-1 -76.45275613215442 0 -3.9703836500391994 1 0 0 0 0 -1 forward_v I I I I #
coedge $-1 $304 $223 $145 $228 reversed $140 $-1 #
coedge $-1 $143 $142 $303 $305 reversed $53 $-1 #
coedge $-1 $221 $306 $142 $224 forward $140 $-1 #
edge $-1 $307 -6.0549861168600074 $226 6.0549861168600074 $142 $308 forward 7 unknown #
edge $-1 $150 -6.0549861168600074 $309 6.0549861168600074 $143 $310 forward 7 unknown #
vertex $-1 $144 $311 #
straight-curve $-1 -64.342783898434405 26.056402376228693 0 0 0 -1 I I #
edge $-1 $232 -26.056402376228693 $226 26.056402376228693 $221 $312 forward 7 unknown #
coedge $-1 $313 $146 $149 $235 reversed $231 $-1 #
coedge $-1 $146 $313 $304 $314 reversed $231 $-1 #
loop $-1 $-1 $146 $218 #
vertex $-1 $147 $315 #
straight-curve $-1 -64.342783898434405 -26.056402376228693 0 0 0 1 I I #
coedge $-1 $149 $148 $316 $317 forward $83 $-1 #
edge $-1 $318 -6.0549861168600074 $151 6.0549861168600074 $229 $319 forward 7 unknown #
point $-1 -64.342783898434405 26.056402376228693 -1.6298498995874229 #
point $-1 -64.342783898434405 -26.056402376228693 -1.6298498995874229 #
face $-1 $-1 $254 $20 $-1 $320 reversed single #
loop $-1 $-1 $321 $153 #
plane-surface $-1 76.452756132154434 0 -3.9703836500391994 -1 0 0 0 0 1 forward_v I I I I #
coedge $-1 $245 $322 $323 $324 forward $154 $-1 #
coedge $-1 $321 $325 $156 $243 reversed $239 $-1 #
edge $-1 $326 -26.056402376228693 $327 26.056402376228693 $242 $328 forward 7 unknown #
coedge $-1 $158 $157 $321 $329 reversed $57 $-1 #
coedge $-1 $250 $241 $157 $246 forward $154 $-1 #
edge $-1 $330 -6.0549861168600074 $248 6.0549861168600074 $157 $331 forward 7 unknown #
edge $-1 $165 -6.0549861168600074 $326 6.0549861168600074 $158 $332 forward 7 unknown #
vertex $-1 $159 $333 #
straight-curve $-1 64.342783898434405 -26.056402376228693 0 0 0 -1 I I #
coedge $-1 $322 $245 $160 $251 reversed $154 $-1 #
edge $-1 $255 -26.056402376228693 $248 26.056402376228693 $250 $334 forward 7 unknown #
coedge $-1 $335 $161 $164 $257 reversed $254 $-1 #
coedge $-1 $161 $335 $322 $336 reversed $254 $-1 #
loop $-1 $-1 $161 $238 #
vertex $-1 $162 $337 #
straight-curve $-1 64.342783898434405 26.056402376228693 0 0 0 1 I I #
edge $-1 $327 -6.0549861168600074 $166 6.0549861168600074 $252 $338 forward 7 unknown #
point $-1 64.342783898434419 -26.056402376228693 -1.6298498995874229 #
point $-1 64.342783898434419 26.056402376228693 -1.6298498995874229 #
loop $-1 $-1 $176 $168 #
plane-surface $-1 0 -26.056402376228693 0 0 1 0 0 0 1 forward_v I I I I #
coedge $-1 $263 $171 $173 $267 reversed $99 $-1 #
coedge $-1 $171 $262 $339 $340 reversed $99 $-1 #
coedge $-1 $179 $174 $171 $265 forward $169 $-1 #
edge $-1 $268 -25.282097661946416 $341 -20.110782806115875 $264 $342 forward 7 unknown #
coedge $-1 $173 $172 $271 $343 reversed $61 $-1 #
edge $-1 $344 -3.7471235426367728e-014 $268 6.0330286473018786 $262 $345 forward 7 unknown #
vertex $-1 $175 $346 #
straight-curve $-1 21.640503240335697 -20.885087520398152 11.895991779157946 -1 0 0 I I #
coedge $-1 $339 $176 $179 $275 reversed $260 $-1 #
coedge $-1 $176 $339 $266 $343 forward $260 $-1 #
vertex $-1 $177 $347 #
straight-curve $-1 52.232811664714383 -26.056402376228696 59.546906267725163 0 0 1 I I #
straight-curve $-1 52.232811664714383 -26.056402376228661 8.7887522774407358 0 -0.85716729658548041 -0.51503808176128008 I I #
edge $-1 $341 34.329201296628405 $180 52.232811664714383 $270 $348 forward 7 unknown #
point $-1 52.232811664714383 -26.056402376228693 11.895991779157946 #
point $-1 52.232811664714383 -20.885087520398152 11.895991779157946 #
edge $-1 $349 1 $349 0 $183 $-1 forward 7 unknown #
vertex $-1 $184 $350 #
ellipse-curve $-1 39.444518544652979 -21.902886475474187 7.7330173879658268 0 -0.51503808176128008 0.85716729658548041 1 0 0 1 I I #
point $-1 40.444518544652979 -23.470744948313449 10.342372028299348 #
edge $-1 $351 1 $351 0 $187 $-1 forward 7 unknown #
vertex $-1 $188 $352 #
ellipse-curve $-1 47.117494416689823 -21.902886475474187 7.7330173879658268 0 -0.51503808176128008 0.85716729658548041 1 0 0 1 I I #
point $-1 48.117494416689823 -23.470744948313449 10.342372028299348 #
plane-surface $-1 64.342783898434405 0 0 -1 0 0 0 0 1 forward_v I I I I #
coedge $-1 $196 $194 $198 $291 reversed $121 $-1 #
edge $-1 $209 -11.895991779157946 $293 11.895991779157946 $208 $353 forward 7 unknown #
vertex $-1 $291 $354 #
straight-curve $-1 -64.342783898434405 -26.056402376228693 0 0 0 -1 I I #
edge $-1 $289 -26.056402376228693 $293 26.056402376228693 $287 $355 forward 7 unknown #
straight-curve $-1 0 -26.056402376228693 -11.895991779157946 -1 0 0 I I #
vertex $-1 $201 $356 #
straight-curve $-1 0 26.056402376228693 -11.895991779157946 1 0 0 I I #
point $-1 64.342783898434405 26.056402376228693 -11.895991779157946 #
point $-1 64.342783898434405 -26.056402376228693 -11.895991779157946 #
straight-curve $-1 -64.342783898434405 0 11.895991779157946 0 -1 0 I I #
point $-1 -64.342783898434405 26.056402376228693 11.895991779157946 #
point $-1 -64.342783898434405 -26.056402376228693 11.895991779157946 #
straight-curve $-1 64.342783898434405 -26.056402376228693 0 0 0 -1 I I #
straight-curve $-1 64.342783898434405 26.056402376228693 0 0 0 -1 I I #
plane-surface $-1 0 -26.056402376228693 0 0 1 0 0 0 1 forward_v I I I I #
coedge $-1 $357 $316 $222 $305 forward $219 $-1 #
coedge $-1 $306 $221 $230 $314 forward $140 $-1 #
edge $-1 $309 -2.3405337504517765 $307 2.340533750451776 $222 $358 forward 7 unknown #
coedge $-1 $223 $304 $357 $359 forward $140 $-1 #
vertex $-1 $224 $360 #
straight-curve $-1 -70.397770015294412 26.056402376228693 -6.3109174004909754 1 0 0 I I #
vertex $-1 $225 $361 #
straight-curve $-1 -70.397770015294412 26.056402376228693 -1.6298498995874229 -1 0 0 I I #
point $-1 -64.342783898434405 26.056402376228693 -6.3109174004909754 #
straight-curve $-1 -64.342783898434405 0 -6.3109174004909754 0 1 0 I I #
coedge $-1 $230 $229 $362 $363 forward $231 $-1 #
edge $-1 $232 -6.0549861168600074 $364 6.0549861168600074 $230 $365 forward 7 unknown #
point $-1 -64.342783898434405 -26.056402376228693 -6.3109174004909754 #
coedge $-1 $303 $362 $234 $317 reversed $219 $-1 #
edge $-1 $309 -26.056402376228693 $318 26.056402376228693 $316 $366 forward 7 unknown #
vertex $-1 $317 $367 #
straight-curve $-1 -70.397770015294412 -26.056402376228693 -1.6298498995874229 1 0 0 I I #
plane-surface $-1 0 26.056402376228693 0 0 -1 0 0 0 -1 forward_v I I I I #
coedge $-1 $323 $242 $244 $329 forward $239 $-1 #
coedge $-1 $241 $250 $253 $336 forward $154 $-1 #
coedge $-1 $325 $321 $241 $324 reversed $239 $-1 #
edge $-1 $368 -26.056402376228693 $330 26.056402376228693 $323 $369 forward 7 unknown #
coedge $-1 $242 $323 $335 $370 reversed $239 $-1 #
vertex $-1 $243 $371 #
vertex $-1 $243 $372 #
straight-curve $-1 76.452756132154434 0 -1.6298498995874229 0 1 0 I I #
edge $-1 $326 -2.3405337504517765 $330 2.340533750451776 $321 $373 forward 7 unknown #
vertex $-1 $329 $374 #
straight-curve $-1 70.397770015294427 -26.056402376228693 -6.3109174004909754 -1 0 0 I I #
straight-curve $-1 70.397770015294427 -26.056402376228693 -1.6298498995874229 1 0 0 I I #
point $-1 64.342783898434419 -26.056402376228693 -6.3109174004909754 #
straight-curve $-1 64.342783898434405 0 -6.3109174004909754 0 -1 0 I I #
coedge $-1 $253 $252 $325 $370 forward $254 $-1 #
edge $-1 $255 -6.0549861168600074 $368 6.0549861168600074 $253 $375 forward 7 unknown #
point $-1 64.342783898434419 26.056402376228693 -6.3109174004909754 #
straight-curve $-1 70.397770015294427 26.056402376228693 -1.6298498995874229 -1 0 0 I I #
coedge $-1 $271 $270 $263 $340 forward $260 $-1 #
edge $-1 $341 47.650914488567217 $344 50.758153990284448 $339 $376 forward 7 unknown #
vertex $-1 $275 $377 #
straight-curve $-1 34.329201296628405 -46.167185182344568 11.895991779157946 0 -1 0 I I #
edge $-1 $344 12.688698056292708 $272 30.592308424378686 $271 $378 forward 7 unknown #
vertex $-1 $343 $379 #
straight-curve $-1 34.329201296628405 -26.056402376228661 8.7887522774407358 0 0.85716729658548041 0.51503808176128008 I I #
point $-1 34.329201296628405 -20.885087520398152 11.895991779157946 #
point $-1 52.232811664714383 -26.056402376228693 8.7887522774407163 #
straight-curve $-1 0 -26.056402376228693 11.895991779157946 1 0 0 I I #
vertex $-1 $278 $380 #
point $-1 40.444518544652979 -21.902886475474187 7.7330173879658268 #
vertex $-1 $282 $381 #
point $-1 48.117494416689823 -21.902886475474187 7.7330173879658268 #
straight-curve $-1 -64.342783898434405 26.056402376228693 0 0 0 -1 I I #
point $-1 -64.342783898434405 -26.056402376228693 -11.895991779157946 #
straight-curve $-1 -64.342783898434405 0 -11.895991779157946 0 1 0 I I #
point $-1 -64.342783898434405 26.056402376228693 -11.895991779157946 #
coedge $-1 $362 $303 $306 $359 reversed $219 $-1 #
straight-curve $-1 -76.45275613215442 26.056402376228693 -3.9703836500391994 0 0 -1 I I #
edge $-1 $364 -26.056402376228693 $307 26.056402376228693 $357 $382 forward 7 unknown #
point $-1 -76.45275613215442 26.056402376228693 -6.3109174004909754 #
point $-1 -76.45275613215442 26.056402376228693 -1.6298498995874229 #
coedge $-1 $316 $357 $313 $363 reversed $219 $-1 #
edge $-1 $318 -2.3405337504517765 $364 2.340533750451776 $362 $383 forward 7 unknown #
vertex $-1 $359 $384 #
straight-curve $-1 -70.397770015294412 -26.056402376228693 -6.3109174004909754 -1 0 0 I I #
straight-curve $-1 -76.45275613215442 0 -1.6298498995874229 0 -1 0 I I #
point $-1 -76.45275613215442 -26.056402376228693 -1.6298498995874229 #
vertex $-1 $324 $385 #
straight-curve $-1 76.452756132154434 0 -6.3109174004909754 0 -1 0 I I #
edge $-1 $327 -2.3405337504517765 $368 2.340533750451776 $325 $386 forward 7 unknown #
point $-1 76.452756132154434 -26.056402376228693 -1.6298498995874229 #
point $-1 76.452756132154434 26.056402376228693 -1.6298498995874229 #
straight-curve $-1 76.452756132154434 -26.056402376228693 -3.9703836500391994 0 0 -1 I I #
point $-1 76.452756132154434 -26.056402376228693 -6.3109174004909754 #
straight-curve $-1 70.397770015294427 26.056402376228693 -6.3109174004909754 1 0 0 I I #
straight-curve $-1 34.329201296628405 -26.056402376228696 59.546906267725163 0 0 -1 I I #
point $-1 34.329201296628405 -26.056402376228693 11.895991779157946 #
straight-curve $-1 21.640503240335697 -26.056402376228693 8.7887522774407145 1 0 0 I I #
point $-1 34.329201296628405 -26.056402376228693 8.7887522774407163 #
point $-1 39.444518544652979 -21.387848393712904 6.8758500913803466 #
point $-1 47.117494416689823 -21.387848393712904 6.8758500913803466 #
straight-curve $-1 -76.45275613215442 0 -6.3109174004909754 0 1 0 I I #
straight-curve $-1 -76.45275613215442 -26.056402376228693 -3.9703836500391994 0 0 -1 I I #
point $-1 -76.45275613215442 -26.056402376228693 -6.3109174004909754 #
point $-1 76.452756132154434 26.056402376228693 -6.3109174004909754 #
straight-curve $-1 76.452756132154434 26.056402376228693 -3.9703836500391994 0 0 -1 I I #
End-of-ACIS-data 