500 0 7 0           
7 Unknown 11 ACIS 5.0 NT 24 Thu Mar 25 20:49:06 1999 
-1 9.9999999999999995e-007 1e-010 
body $-1 $7 $-1 $8 #
body $-1 $9 $-1 $10 #
body $-1 $11 $-1 $12 #
body $-1 $13 $-1 $14 #
body $-1 $15 $-1 $16 #
body $-1 $17 $-1 $18 #
body $-1 $19 $-1 $20 #
lump $-1 $-1 $21 $0 #
transform $-1 1 0 0 0 1 0 0 0 1 71.88573870052187 44.824433868074365 12.237766745213369 1 rotate no_reflect no_shear #
lump $-1 $-1 $22 $1 #
transform $-1 1 0 0 0 1 0 0 0 1 71.88573870052187 44.824433868074365 12.237766745213369 1 rotate no_reflect no_shear #
lump $-1 $-1 $23 $2 #
transform $-1 1 0 0 0 1 0 0 0 1 71.88573870052187 44.824433868074365 12.237766745213369 1 rotate no_reflect no_shear #
lump $-1 $-1 $24 $3 #
transform $-1 1 0 0 0 1 0 0 0 1 71.88573870052187 44.824433868074365 12.237766745213369 1 rotate no_reflect no_shear #
lump $-1 $-1 $25 $4 #
transform $-1 1 0 0 0 1 0 0 0 1 71.88573870052187 44.824433868074365 12.237766745213369 1 rotate no_reflect no_shear #
lump $-1 $-1 $26 $5 #
transform $-1 1 0 0 0 1 0 0 0 1 71.88573870052187 44.824433868074365 12.237766745213369 1 rotate no_reflect no_shear #
lump $-1 $-1 $27 $6 #
transform $-1 1 0 0 0 1 0 0 0 1 71.88573870052187 44.824433868074365 12.237766745213369 1 rotate no_reflect no_shear #
shell $-1 $-1 $-1 $28 $-1 $7 #
shell $-1 $-1 $-1 $29 $-1 $9 #
shell $-1 $-1 $-1 $30 $-1 $11 #
shell $-1 $-1 $-1 $31 $-1 $13 #
shell $-1 $-1 $-1 $32 $-1 $15 #
shell $-1 $-1 $-1 $33 $-1 $17 #
shell $-1 $-1 $-1 $34 $-1 $19 #
face $-1 $35 $36 $21 $-1 $37 forward single #
face $-1 $38 $39 $22 $-1 $40 reversed single #
face $-1 $41 $42 $23 $-1 $43 reversed single #
face $-1 $44 $45 $24 $-1 $46 forward single #
face $-1 $47 $48 $25 $-1 $49 forward single #
face $-1 $50 $51 $26 $-1 $52 reversed single #
face $-1 $53 $54 $27 $-1 $55 forward single #
face $-1 $56 $57 $21 $-1 $58 reversed single #
loop $-1 $-1 $59 $28 #
plane-surface $-1 0 0 12.237766745213369 0 0 1 1 0 0 forward_v I I I I #
face $-1 $60 $61 $22 $-1 $62 reversed single #
loop $-1 $-1 $63 $29 #
plane-surface $-1 -64.353444995601492 -41.824433868074365 0 0 -1 0 0 0 -1 forward_v I I I I #
face $-1 $64 $65 $23 $-1 $66 reversed single #
loop $-1 $-1 $67 $30 #
plane-surface $-1 21.239675332444278 -146.48622165909697 108.30163291213667 -1 0 0 0 -0.70710678939079041 0.70710677298230451 forward_v I I I I #
face $-1 $68 $69 $24 $-1 $70 forward single #
loop $-1 $71 $72 $31 #
cone-surface $-1 4.6415934098880882 -41.558108801953566 8.9714416249876887 0 0.70710678939079041 -0.70710677298230451 1 0 0 1 I I 0 1 1 forward I I I I #
face $-1 $73 $74 $25 $-1 $75 forward single #
loop $-1 $76 $77 $32 #
cone-surface $-1 14.600442563421794 -41.558108801953566 8.9714416249876887 0 0.70710678939079041 -0.70710677298230451 1 0 0 1 I I 0 1 1 forward I I I I #
face $-1 $78 $79 $26 $-1 $80 reversed single #
loop $-1 $-1 $81 $33 #
plane-surface $-1 -56.821151290681115 102.92455208421548 160.81681934219984 1 0 0 0 -0.78801076186113728 -0.61566146476048833 forward_v I I I I #
face $-1 $82 $83 $27 $-1 $84 forward single #
loop $-1 $85 $86 $34 #
cone-surface $-1 -42.023217332480527 38.924982590141077 5.5677076335659859 0 -0.78801076186113728 -0.61566146476048833 2 0 0 1 I I 0 1 2 forward I I I I #
face $-1 $87 $88 $21 $-1 $89 reversed single #
loop $-1 $-1 $90 $35 #
plane-surface $-1 0 0 -12.237766745213369 0 0 1 1 0 0 forward_v I I I I #
coedge $-1 $91 $92 $93 $94 forward $36 $-1 #
face $-1 $95 $96 $22 $-1 $97 forward single #
loop $-1 $-1 $98 $38 #
plane-surface $-1 -56.821151290681115 -43.324433868074365 0 -1 0 0 0 0 1 forward_v I I I I #
coedge $-1 $99 $100 $101 $102 forward $39 $-1 #
face $-1 $103 $104 $23 $-1 $105 reversed single #
loop $-1 $-1 $106 $41 #
plane-surface $-1 9.6210179866549481 -44.824433868074351 6.6398474801863046 0 -0.70710678939079041 0.70710677298230451 1 0 0 forward_v I I I I #
coedge $-1 $107 $108 $109 $110 reversed $42 $-1 #
face $-1 $-1 $111 $24 $-1 $112 forward single #
loop $-1 $113 $114 $44 #
cone-surface $-1 4.6415934098880882 -40.737189908700749 8.1505227507843774 0 0.70710678939079041 -0.70710677298230451 0.5 0 0 1 I I -0.70710678118654746 0.70710678118654746 0.5 forward I I I I #
loop $-1 $-1 $115 $31 #
coedge $-1 $72 $72 $116 $117 reversed $45 $-1 #
face $-1 $-1 $118 $25 $-1 $119 forward single #
loop $-1 $120 $121 $47 #
cone-surface $-1 14.600442563421794 -40.737189908700749 8.1505227507843774 0 0.70710678939079041 -0.70710677298230451 0.5 0 0 1 I I -0.70710678118654746 0.70710678118654746 0.5 forward I I I I #
loop $-1 $-1 $122 $32 #
coedge $-1 $77 $77 $123 $124 reversed $48 $-1 #
face $-1 $125 $126 $26 $-1 $127 reversed single #
loop $-1 $-1 $128 $50 #
plane-surface $-1 -42.023217332480527 -10.36891935648228 72.302260974693795 0 0.78801076186113728 0.61566146476048833 1 0 0 forward_v I I I I #
coedge $-1 $129 $130 $131 $132 reversed $51 $-1 #
face $-1 $-1 $133 $27 $-1 $134 forward single #
loop $-1 $135 $136 $53 #
cone-surface $-1 -42.023217332480527 36.37043480861773 3.5718762247933373 0 -0.78801076186113728 -0.61566146476048833 1 0 0 1 I I -0.70710678118654746 0.70710678118654746 1 forward I I I I #
loop $-1 $-1 $137 $34 #
coedge $-1 $86 $86 $138 $139 reversed $54 $-1 #
face $-1 $140 $141 $21 $-1 $142 reversed single #
loop $-1 $-1 $143 $56 #
plane-surface $-1 0 -44.824433868074365 0 0 1 0 0 0 1 forward_v I I I I #
coedge $-1 $144 $145 $146 $147 forward $57 $-1 #
coedge $-1 $148 $59 $149 $150 forward $36 $-1 #
coedge $-1 $59 $148 $151 $152 forward $36 $-1 #
coedge $-1 $153 $154 $59 $94 reversed $155 $-1 #
edge $-1 $156 -44.824433868074365 $157 44.824433868074365 $93 $158 forward 7 unknown #
face $-1 $159 $160 $22 $-1 $161 reversed single #
loop $-1 $-1 $162 $60 #
plane-surface $-1 0 0 12.237766745213369 0 0 1 1 0 0 forward_v I I I I #
coedge $-1 $163 $164 $165 $166 reversed $61 $-1 #
coedge $-1 $167 $63 $168 $169 reversed $39 $-1 #
coedge $-1 $63 $167 $170 $171 reversed $39 $-1 #
coedge $-1 $164 $163 $63 $102 reversed $61 $-1 #
edge $-1 $172 -12.237766745213369 $173 12.237766745213369 $101 $174 forward 7 unknown #
face $-1 $175 $176 $23 $-1 $177 forward single #
loop $-1 $-1 $178 $64 #
plane-surface $-1 -1.9976393591343822 -146.48622165909697 108.30163291213667 1 0 0 0 0.70710678939079041 -0.70710677298230451 forward_v I I I I #
coedge $-1 $179 $180 $181 $182 reversed $65 $-1 #
coedge $-1 $108 $67 $183 $184 reversed $42 $-1 #
coedge $-1 $67 $107 $179 $185 reversed $42 $-1 #
coedge $-1 $181 $186 $67 $110 forward $176 $-1 #
edge $-1 $187 28.418676961474119 $188 34.016596096600907 $109 $189 forward 7 unknown #
loop $-1 $-1 $116 $68 #
plane-surface $-1 9.6210179866549481 -44.824433868074351 6.6398474801863046 0 -0.70710678939079041 0.70710677298230451 1 0 0 forward_v I I I I #
loop $-1 $-1 $190 $44 #
coedge $-1 $114 $114 $115 $191 reversed $69 $-1 #
coedge $-1 $115 $115 $114 $191 forward $71 $-1 #
coedge $-1 $116 $116 $72 $117 forward $111 $-1 #
edge $-1 $192 -3.7682215947941342e-015 $192 6.2831853071795969 $116 $193 forward 7 unknown #
loop $-1 $-1 $123 $73 #
plane-surface $-1 9.6210179866549481 -44.824433868074351 6.6398474801863046 0 -0.70710678939079041 0.70710677298230451 1 0 0 forward_v I I I I #
loop $-1 $-1 $194 $47 #
coedge $-1 $121 $121 $122 $195 reversed $74 $-1 #
coedge $-1 $122 $122 $121 $195 forward $76 $-1 #
coedge $-1 $123 $123 $77 $124 forward $118 $-1 #
edge $-1 $196 -3.7682215947941342e-015 $196 6.2831853071795969 $123 $197 forward 7 unknown #
face $-1 $198 $199 $26 $-1 $200 reversed single #
loop $-1 $-1 $201 $78 #
plane-surface $-1 -27.225283374279943 102.92455208421548 160.81681934219984 -1 0 0 0 0.78801076186113728 0.61566146476048833 forward_v I I I I #
coedge $-1 $202 $203 $204 $205 reversed $79 $-1 #
coedge $-1 $130 $81 $206 $207 reversed $51 $-1 #
coedge $-1 $81 $129 $202 $208 reversed $51 $-1 #
coedge $-1 $204 $209 $81 $132 forward $210 $-1 #
edge $-1 $211 6.6378421740333735 $212 14.903670690575566 $131 $213 forward 7 unknown #
loop $-1 $-1 $138 $82 #
plane-surface $-1 -42.023217332480527 -10.36891935648228 72.302260974693795 0 0.78801076186113728 0.61566146476048833 1 0 0 forward_v I I I I #
loop $-1 $-1 $214 $53 #
coedge $-1 $136 $136 $137 $215 reversed $83 $-1 #
coedge $-1 $137 $137 $136 $215 forward $85 $-1 #
coedge $-1 $138 $138 $86 $139 forward $133 $-1 #
edge $-1 $216 2.5376146987064974e-015 $216 6.2831853071796031 $138 $217 forward 7 unknown #
face $-1 $218 $219 $21 $-1 $220 reversed single #
loop $-1 $-1 $221 $87 #
plane-surface $-1 -71.88573870052187 0 0 1 0 0 0 0 -1 forward_v I I I I #
coedge $-1 $222 $151 $223 $224 forward $88 $-1 #
coedge $-1 $225 $90 $222 $226 forward $57 $-1 #
coedge $-1 $90 $225 $227 $228 forward $57 $-1 #
coedge $-1 $154 $153 $90 $147 reversed $155 $-1 #
edge $-1 $229 -44.824433868074365 $230 44.824433868074365 $146 $231 forward 7 unknown #
coedge $-1 $92 $91 $232 $233 forward $36 $-1 #
coedge $-1 $234 $235 $91 $150 reversed $219 $-1 #
edge $-1 $157 -71.88573870052187 $236 71.88573870052187 $149 $237 forward 7 unknown #
coedge $-1 $143 $238 $92 $152 reversed $88 $-1 #
edge $-1 $239 -71.88573870052187 $156 71.88573870052187 $151 $240 forward 7 unknown #
coedge $-1 $146 $93 $238 $241 forward $155 $-1 #
coedge $-1 $93 $146 $234 $242 reversed $155 $-1 #
loop $-1 $-1 $153 $218 #
vertex $-1 $94 $243 #
vertex $-1 $94 $244 #
straight-curve $-1 71.88573870052187 0 12.237766745213369 0 1 0 I I #
face $-1 $245 $246 $22 $-1 $247 reversed single #
loop $-1 $-1 $248 $95 #
plane-surface $-1 -71.88573870052187 0 0 1 0 0 0 0 -1 forward_v I I I I #
coedge $-1 $170 $249 $164 $250 forward $96 $-1 #
coedge $-1 $101 $98 $251 $252 reversed $61 $-1 #
coedge $-1 $98 $101 $162 $250 reversed $61 $-1 #
coedge $-1 $253 $254 $98 $166 forward $255 $-1 #
edge $-1 $256 -12.237766745213369 $257 12.237766745213369 $165 $258 forward 7 unknown #
coedge $-1 $100 $99 $248 $259 reversed $39 $-1 #
coedge $-1 $251 $260 $99 $169 forward $246 $-1 #
edge $-1 $261 -39.709016202721124 $173 -24.644428792880369 $168 $262 forward 7 unknown #
coedge $-1 $263 $162 $100 $171 forward $96 $-1 #
edge $-1 $172 24.644428792880369 $264 39.709016202721124 $170 $265 forward 7 unknown #
vertex $-1 $171 $266 #
vertex $-1 $169 $267 #
straight-curve $-1 -56.821151290681115 -41.824433868074365 0 0 0 -1 I I #
face $-1 $-1 $268 $23 $-1 $269 reversed single #
loop $-1 $-1 $109 $103 #
plane-surface $-1 0 0 12.237766745213369 0 0 1 1 0 0 forward_v I I I I #
coedge $-1 $270 $271 $272 $273 reversed $104 $-1 #
coedge $-1 $274 $106 $108 $185 forward $65 $-1 #
coedge $-1 $106 $274 $270 $275 forward $65 $-1 #
coedge $-1 $272 $109 $106 $182 forward $176 $-1 #
edge $-1 $188 -16.429166339116804 $276 6.8081483524618562 $181 $277 forward 7 unknown #
coedge $-1 $278 $279 $107 $184 forward $268 $-1 #
edge $-1 $280 -47.510968975882044 $187 -41.913049710854963 $183 $281 forward 7 unknown #
edge $-1 $188 -7.916653253817528 $280 2.0097183471152325e-014 $108 $282 forward 7 unknown #
coedge $-1 $109 $272 $278 $283 forward $176 $-1 #
vertex $-1 $184 $284 #
vertex $-1 $110 $285 #
straight-curve $-1 21.239675332444278 -73.243110829548485 12.237766745213371 0 1 0 I I #
coedge $-1 $190 $190 $-1 $286 reversed $113 $-1 #
edge $-1 $287 0 $287 6.2831853071796004 $114 $288 forward 7 unknown #
vertex $-1 $117 $289 #
ellipse-curve $-1 4.6415934098880882 -42.025474300510972 9.4388071126998305 0 -0.70710678939079041 0.70710677298230451 1 0 0 1 I I #
coedge $-1 $194 $194 $-1 $290 reversed $120 $-1 #
edge $-1 $291 0 $291 6.2831853071796004 $121 $292 forward 7 unknown #
vertex $-1 $124 $293 #
ellipse-curve $-1 14.600442563421794 -42.025474300510972 9.4388071126998305 0 -0.70710678939079041 0.70710677298230451 1 0 0 1 I I #
face $-1 $-1 $210 $26 $-1 $294 forward single #
loop $-1 $-1 $295 $125 #
plane-surface $-1 0 44.824433868074365 0 0 -1 0 0 0 -1 forward_v I I I I #
coedge $-1 $296 $297 $298 $299 reversed $126 $-1 #
coedge $-1 $300 $128 $130 $208 forward $79 $-1 #
coedge $-1 $128 $300 $296 $301 forward $79 $-1 #
coedge $-1 $298 $131 $128 $205 forward $210 $-1 #
edge $-1 $212 -35.809542624440851 $302 -6.2136747080396795 $204 $303 forward 7 unknown #
coedge $-1 $304 $305 $129 $207 forward $199 $-1 #
edge $-1 $306 -78.750421261157058 $211 -68.170642925886554 $206 $307 forward 7 unknown #
edge $-1 $212 76.222936457896935 $306 89.648867736148787 $130 $308 forward 7 unknown #
coedge $-1 $131 $298 $304 $309 forward $210 $-1 #
loop $-1 $-1 $298 $198 #
vertex $-1 $207 $310 #
vertex $-1 $132 $311 #
straight-curve $-1 -56.821151290681115 51.462276042107739 12.237766745213364 0 -1 0 I I #
coedge $-1 $214 $214 $-1 $312 reversed $135 $-1 #
edge $-1 $313 0 $313 6.2831853071796004 $136 $314 forward 7 unknown #
vertex $-1 $139 $315 #
ellipse-curve $-1 -42.023217332480527 40.691519609803258 6.9478775775781241 0 0.78801076186113728 0.61566146476048833 2 0 0 1 I I #
face $-1 $-1 $155 $21 $-1 $316 reversed single #
loop $-1 $-1 $234 $140 #
plane-surface $-1 0 44.824433868074365 0 0 -1 0 0 0 -1 forward_v I I I I #
coedge $-1 $317 $232 $235 $318 forward $141 $-1 #
coedge $-1 $238 $143 $144 $226 reversed $88 $-1 #
coedge $-1 $232 $317 $143 $224 reversed $141 $-1 #
edge $-1 $239 -12.237766745213369 $319 12.237766745213369 $223 $320 forward 7 unknown #
coedge $-1 $145 $144 $317 $321 forward $57 $-1 #
edge $-1 $230 -71.88573870052187 $319 71.88573870052187 $222 $322 forward 7 unknown #
coedge $-1 $235 $234 $145 $228 reversed $219 $-1 #
edge $-1 $323 -71.88573870052187 $229 71.88573870052187 $227 $324 forward 7 unknown #
vertex $-1 $147 $325 #
vertex $-1 $241 $326 #
straight-curve $-1 71.88573870052187 0 -12.237766745213369 0 -1 0 I I #
coedge $-1 $221 $223 $148 $233 reversed $141 $-1 #
edge $-1 $236 -44.824433868074365 $239 44.824433868074365 $232 $327 forward 7 unknown #
coedge $-1 $227 $149 $154 $242 forward $219 $-1 #
coedge $-1 $149 $227 $221 $318 reversed $219 $-1 #
vertex $-1 $150 $328 #
straight-curve $-1 0 44.824433868074365 12.237766745213369 -1 0 0 I I #
coedge $-1 $151 $222 $153 $241 reversed $88 $-1 #
vertex $-1 $233 $329 #
straight-curve $-1 0 -44.824433868074365 12.237766745213369 1 0 0 I I #
edge $-1 $156 -12.237766745213369 $230 12.237766745213369 $153 $330 forward 7 unknown #
edge $-1 $157 -12.237766745213369 $229 12.237766745213369 $154 $331 forward 7 unknown #
point $-1 71.88573870052187 -44.824433868074365 12.237766745213369 #
point $-1 71.88573870052187 44.824433868074365 12.237766745213369 #
face $-1 $-1 $255 $22 $-1 $332 reversed single #
loop $-1 $-1 $251 $159 #
plane-surface $-1 0 0 -12.237766745213369 0 0 1 1 0 0 forward_v I I I I #
coedge $-1 $333 $334 $167 $259 forward $160 $-1 #
coedge $-1 $162 $263 $253 $335 forward $96 $-1 #
edge $-1 $257 -23.162216934037183 $172 -20.162216934037183 $162 $336 forward 7 unknown #
coedge $-1 $337 $168 $163 $252 forward $246 $-1 #
edge $-1 $173 20.162216934037183 $256 23.162216934037183 $251 $338 forward 7 unknown #
coedge $-1 $339 $165 $249 $335 reversed $255 $-1 #
coedge $-1 $165 $339 $337 $340 reversed $255 $-1 #
loop $-1 $-1 $165 $245 #
vertex $-1 $340 $341 #
vertex $-1 $166 $342 #
straight-curve $-1 -56.821151290681115 -44.824433868074365 0 0 0 1 I I #
edge $-1 $264 -12.237766745213369 $261 12.237766745213369 $248 $343 forward 7 unknown #
coedge $-1 $168 $337 $333 $344 forward $246 $-1 #
vertex $-1 $169 $345 #
straight-curve $-1 -32.176722497800746 -41.824433868074365 -12.237766745213369 1 0 0 I I #
coedge $-1 $249 $170 $334 $346 forward $96 $-1 #
vertex $-1 $346 $347 #
straight-curve $-1 -32.176722497800746 -41.824433868074365 12.237766745213369 -1 0 0 I I #
point $-1 -56.821151290681115 -41.824433868074365 12.237766745213369 #
point $-1 -56.821151290681115 -41.824433868074365 -12.237766745213369 #
loop $-1 $-1 $183 $175 #
plane-surface $-1 0 -44.824433868074365 0 0 1 0 0 0 1 forward_v I I I I #
coedge $-1 $271 $178 $180 $275 reversed $104 $-1 #
coedge $-1 $178 $270 $348 $349 reversed $104 $-1 #
coedge $-1 $186 $181 $178 $273 forward $176 $-1 #
edge $-1 $276 -34.016596096600907 $350 -28.418676961474119 $272 $351 forward 7 unknown #
coedge $-1 $180 $179 $279 $352 reversed $65 $-1 #
edge $-1 $353 -2.0097183471152325e-014 $276 7.916653253817528 $270 $354 forward 7 unknown #
vertex $-1 $182 $355 #
straight-curve $-1 4.8105089933274741 -39.226514732947578 12.237766745213367 -1 0 0 I I #
coedge $-1 $348 $183 $186 $283 reversed $268 $-1 #
coedge $-1 $183 $348 $274 $352 forward $268 $-1 #
vertex $-1 $184 $356 #
straight-curve $-1 21.239675332444278 -44.824433868074365 54.150816456068334 0 0 1 I I #
straight-curve $-1 21.239675332444278 -44.824433868074351 6.6398474801863046 0 -0.70710677298230451 -0.70710678939079041 I I #
edge $-1 $350 -1.9976393591343822 $187 21.239675332444278 $278 $357 forward 7 unknown #
point $-1 21.239675332444278 -44.824433868074365 12.237766745213369 #
point $-1 21.239675332444278 -39.226514732947578 12.237766745213369 #
edge $-1 $358 1 $358 0 $190 $-1 forward 7 unknown #
vertex $-1 $191 $359 #
ellipse-curve $-1 4.6415934098880882 -41.090743303396145 8.5040761372755291 0 -0.70710678939079041 0.70710677298230451 1 0 0 1 I I #
point $-1 5.6415934098880882 -42.025474300510993 9.4388071126998465 #
edge $-1 $360 1 $360 0 $194 $-1 forward 7 unknown #
vertex $-1 $195 $361 #
ellipse-curve $-1 14.600442563421794 -41.090743303396145 8.5040761372755291 0 -0.70710678939079041 0.70710677298230451 1 0 0 1 I I #
point $-1 15.600442563421794 -42.025474300510993 9.4388071126998465 #
plane-surface $-1 0 0 12.237766745213369 0 0 1 1 0 0 forward_v I I I I #
coedge $-1 $305 $304 $297 $362 forward $199 $-1 #
coedge $-1 $297 $201 $203 $301 reversed $126 $-1 #
coedge $-1 $201 $296 $295 $362 reversed $126 $-1 #
coedge $-1 $209 $204 $201 $299 forward $210 $-1 #
edge $-1 $302 -14.903670690575566 $363 -6.6378421740333735 $298 $364 forward 7 unknown #
coedge $-1 $203 $202 $305 $365 reversed $79 $-1 #
edge $-1 $366 -89.648867736148787 $302 -76.222936457896935 $296 $367 forward 7 unknown #
vertex $-1 $205 $368 #
straight-curve $-1 -21.011608666240264 36.558605351532172 12.237766745213371 1 0 0 I I #
coedge $-1 $295 $206 $209 $309 reversed $199 $-1 #
coedge $-1 $206 $295 $300 $365 forward $199 $-1 #
vertex $-1 $207 $369 #
straight-curve $-1 -56.821151290681115 44.824433868074365 80.408409671099918 0 0 1 I I #
straight-curve $-1 -56.821151290681115 -10.36891935648228 72.302260974693795 0 0.61566146476048833 -0.78801076186113728 I I #
edge $-1 $363 27.225283374279943 $211 56.821151290681115 $304 $370 forward 7 unknown #
point $-1 -56.821151290681115 44.824433868074365 12.237766745213369 #
point $-1 -56.821151290681115 36.558605351532172 12.237766745213371 #
edge $-1 $371 1 $371 0 $214 $-1 forward 7 unknown #
vertex $-1 $215 $372 #
ellipse-curve $-1 -42.023217332480527 37.158445570478868 4.1875376895538254 0 0.78801076186113728 0.61566146476048833 2 0 0 1 I I #
point $-1 -40.023217332480527 40.691519609803294 6.9478775775781454 #
plane-surface $-1 71.88573870052187 0 0 -1 0 0 0 0 1 forward_v I I I I #
coedge $-1 $223 $221 $225 $321 reversed $141 $-1 #
edge $-1 $236 -12.237766745213369 $323 12.237766745213369 $235 $373 forward 7 unknown #
vertex $-1 $321 $374 #
straight-curve $-1 -71.88573870052187 -44.824433868074365 0 0 0 -1 I I #
edge $-1 $319 -44.824433868074365 $323 44.824433868074365 $317 $375 forward 7 unknown #
straight-curve $-1 0 -44.824433868074365 -12.237766745213369 -1 0 0 I I #
vertex $-1 $228 $376 #
straight-curve $-1 0 44.824433868074365 -12.237766745213369 1 0 0 I I #
point $-1 71.88573870052187 44.824433868074365 -12.237766745213369 #
point $-1 71.88573870052187 -44.824433868074365 -12.237766745213369 #
straight-curve $-1 -71.88573870052187 0 12.237766745213369 0 -1 0 I I #
point $-1 -71.88573870052187 44.824433868074365 12.237766745213369 #
point $-1 -71.88573870052187 -44.824433868074365 12.237766745213369 #
straight-curve $-1 71.88573870052187 -44.824433868074365 0 0 0 -1 I I #
straight-curve $-1 71.88573870052187 44.824433868074365 0 0 0 -1 I I #
plane-surface $-1 0 -44.824433868074365 0 0 1 0 0 0 1 forward_v I I I I #
coedge $-1 $377 $248 $260 $344 reversed $160 $-1 #
coedge $-1 $248 $377 $263 $346 reversed $160 $-1 #
edge $-1 $378 -71.88573870052187 $257 -56.821151290681115 $253 $379 forward 7 unknown #
straight-curve $-1 -56.821151290681115 -21.662216934037183 12.237766745213369 0 1 0 I I #
coedge $-1 $260 $251 $254 $340 forward $246 $-1 #
straight-curve $-1 -56.821151290681115 -21.662216934037183 -12.237766745213369 0 -1 0 I I #
coedge $-1 $254 $253 $377 $380 forward $255 $-1 #
edge $-1 $256 56.821151290681115 $381 71.88573870052187 $254 $382 forward 7 unknown #
point $-1 -56.821151290681115 -44.824433868074365 -12.237766745213369 #
point $-1 -56.821151290681115 -44.824433868074365 12.237766745213369 #
straight-curve $-1 -71.88573870052187 -41.824433868074365 0 0 0 -1 I I #
edge $-1 $381 -44.824433868074365 $261 -41.824433868074365 $333 $383 forward 7 unknown #
point $-1 -71.88573870052187 -41.824433868074365 -12.237766745213369 #
edge $-1 $264 41.824433868074365 $378 44.824433868074365 $334 $384 forward 7 unknown #
point $-1 -71.88573870052187 -41.824433868074365 12.237766745213369 #
coedge $-1 $279 $278 $271 $349 forward $268 $-1 #
edge $-1 $350 41.913049710854963 $353 47.510968975882044 $348 $385 forward 7 unknown #
vertex $-1 $283 $386 #
straight-curve $-1 -1.9976393591343822 -73.243110829548485 12.237766745213371 0 -1 0 I I #
edge $-1 $353 -6.8081483524618562 $280 16.429166339116804 $279 $387 forward 7 unknown #
vertex $-1 $352 $388 #
straight-curve $-1 -1.9976393591343822 -44.824433868074351 6.6398474801863046 0 0.70710677298230451 0.70710678939079041 I I #
point $-1 -1.9976393591343822 -39.226514732947578 12.237766745213369 #
point $-1 21.239675332444278 -44.824433868074365 6.6398474801862903 #
straight-curve $-1 0 -44.824433868074365 12.237766745213369 1 0 0 I I #
vertex $-1 $286 $389 #
point $-1 5.6415934098880882 -41.090743303396145 8.5040761372755291 #
vertex $-1 $290 $390 #
point $-1 15.600442563421794 -41.090743303396145 8.5040761372755291 #
edge $-1 $363 68.170642925886554 $366 78.750421261157058 $295 $391 forward 7 unknown #
vertex $-1 $309 $392 #
straight-curve $-1 -27.225283374279943 51.462276042107739 12.237766745213364 0 1 0 I I #
edge $-1 $366 6.2136747080396795 $306 35.809542624440851 $305 $393 forward 7 unknown #
vertex $-1 $365 $394 #
straight-curve $-1 -27.225283374279943 -10.36891935648228 72.302260974693795 0 -0.61566146476048833 0.78801076186113728 I I #
point $-1 -27.225283374279943 36.558605351532172 12.237766745213371 #
point $-1 -56.821151290681115 44.824433868074365 1.6579884099428597 #
straight-curve $-1 0 44.824433868074365 12.237766745213369 -1 0 0 I I #
vertex $-1 $312 $395 #
point $-1 -40.023217332480527 37.158445570478868 4.1875376895538254 #
straight-curve $-1 -71.88573870052187 44.824433868074365 0 0 0 -1 I I #
point $-1 -71.88573870052187 -44.824433868074365 -12.237766745213369 #
straight-curve $-1 -71.88573870052187 0 -12.237766745213369 0 1 0 I I #
point $-1 -71.88573870052187 44.824433868074365 -12.237766745213369 #
coedge $-1 $334 $333 $339 $380 reversed $160 $-1 #
vertex $-1 $346 $396 #
straight-curve $-1 0 -44.824433868074365 12.237766745213369 1 0 0 I I #
edge $-1 $378 -12.237766745213369 $381 12.237766745213369 $377 $397 forward 7 unknown #
vertex $-1 $344 $398 #
straight-curve $-1 0 -44.824433868074365 -12.237766745213369 -1 0 0 I I #
straight-curve $-1 -71.88573870052187 0 -12.237766745213369 0 1 0 I I #
straight-curve $-1 -71.88573870052187 0 12.237766745213369 0 -1 0 I I #
straight-curve $-1 -1.9976393591343822 -44.824433868074365 54.150816456068334 0 0 -1 I I #
point $-1 -1.9976393591343822 -44.824433868074365 12.237766745213369 #
straight-curve $-1 4.8105089933274741 -44.824433868074365 6.6398474801862903 1 0 0 I I #
point $-1 -1.9976393591343822 -44.824433868074365 6.6398474801862903 #
point $-1 4.6415934098880882 -40.383636514005353 7.7969693642932247 #
point $-1 14.600442563421794 -40.383636514005353 7.7969693642932247 #
straight-curve $-1 -27.225283374279943 44.824433868074365 80.408409671099918 0 0 -1 I I #
point $-1 -27.225283374279943 44.824433868074365 12.237766745213369 #
straight-curve $-1 -21.011608666240264 44.824433868074372 1.6579884099428668 -1 0 0 I I #
point $-1 -27.225283374279943 44.824433868074365 1.6579884099428597 #
point $-1 -42.023217332480527 35.582424046756593 2.9562147600328492 #
point $-1 -71.88573870052187 -44.824433868074365 12.237766745213369 #
straight-curve $-1 -71.88573870052187 -44.824433868074365 0 0 0 -1 I I #
point $-1 -71.88573870052187 -44.824433868074365 -12.237766745213369 #
End-of-ACIS-data 