500 0 12 0           
7 Unknown 11 ACIS 5.0 NT 24 Fri Mar 26 20:20:38 1999 
-1 9.9999999999999995e-007 1e-010 
body $-1 $12 $-1 $13 #
body $-1 $14 $-1 $15 #
body $-1 $16 $-1 $17 #
body $-1 $18 $-1 $19 #
body $-1 $20 $-1 $21 #
body $-1 $22 $-1 $23 #
body $-1 $24 $-1 $25 #
body $-1 $26 $-1 $27 #
body $-1 $28 $-1 $29 #
body $-1 $30 $-1 $31 #
body $-1 $32 $-1 $33 #
body $-1 $34 $-1 $35 #
lump $-1 $-1 $36 $0 #
transform $-1 1 0 0 0 1 0 0 0 1 79.780266731772826 46.842145927281443 10.951372640312661 1 rotate no_reflect no_shear #
lump $-1 $-1 $37 $1 #
transform $-1 1 0 0 0 1 0 0 0 1 79.780266731772826 46.842145927281443 10.951372640312661 1 rotate no_reflect no_shear #
lump $-1 $-1 $38 $2 #
transform $-1 1 0 0 0 1 0 0 0 1 79.780266731772826 46.842145927281443 10.951372640312661 1 rotate no_reflect no_shear #
lump $-1 $-1 $39 $3 #
transform $-1 1 0 0 0 1 0 0 0 1 79.780266731772826 46.842145927281443 10.951372640312661 1 rotate no_reflect no_shear #
lump $-1 $-1 $40 $4 #
transform $-1 1 0 0 0 1 0 0 0 1 79.780266731772826 46.842145927281443 10.951372640312661 1 rotate no_reflect no_shear #
lump $-1 $-1 $41 $5 #
transform $-1 1 0 0 0 1 0 0 0 1 79.780266731772826 46.842145927281443 10.951372640312661 1 rotate no_reflect no_shear #
lump $-1 $-1 $42 $6 #
transform $-1 1 0 0 0 1 0 0 0 1 79.780266731772826 46.842145927281443 10.951372640312661 1 rotate no_reflect no_shear #
lump $-1 $-1 $43 $7 #
transform $-1 1 0 0 0 1 0 0 0 1 79.780266731772826 46.842145927281443 10.951372640312661 1 rotate no_reflect no_shear #
lump $-1 $-1 $44 $8 #
transform $-1 1 0 0 0 1 0 0 0 1 79.780266731772826 46.842145927281443 10.951372640312661 1 rotate no_reflect no_shear #
lump $-1 $-1 $45 $9 #
transform $-1 1 0 0 0 1 0 0 0 1 79.780266731772826 46.842145927281443 10.951372640312661 1 rotate no_reflect no_shear #
lump $-1 $-1 $46 $10 #
transform $-1 1 0 0 0 1 0 0 0 1 79.780266731772826 46.842145927281443 10.951372640312661 1 rotate no_reflect no_shear #
lump $-1 $-1 $47 $11 #
transform $-1 1 0 0 0 1 0 0 0 1 79.780266731772826 46.842145927281443 10.951372640312661 1 rotate no_reflect no_shear #
shell $-1 $-1 $-1 $48 $-1 $12 #
shell $-1 $-1 $-1 $49 $-1 $14 #
shell $-1 $-1 $-1 $50 $-1 $16 #
shell $-1 $-1 $-1 $51 $-1 $18 #
shell $-1 $-1 $-1 $52 $-1 $20 #
shell $-1 $-1 $-1 $53 $-1 $22 #
shell $-1 $-1 $-1 $54 $-1 $24 #
shell $-1 $-1 $-1 $55 $-1 $26 #
shell $-1 $-1 $-1 $56 $-1 $28 #
shell $-1 $-1 $-1 $57 $-1 $30 #
shell $-1 $-1 $-1 $58 $-1 $32 #
shell $-1 $-1 $-1 $59 $-1 $34 #
face $-1 $60 $61 $36 $-1 $62 forward single #
face $-1 $63 $64 $37 $-1 $65 forward single #
face $-1 $66 $67 $38 $-1 $68 reversed single #
face $-1 $69 $70 $39 $-1 $71 forward single #
face $-1 $72 $73 $40 $-1 $74 forward single #
face $-1 $75 $76 $41 $-1 $77 reversed single #
face $-1 $78 $79 $42 $-1 $80 forward single #
face $-1 $81 $82 $43 $-1 $83 forward single #
face $-1 $84 $85 $44 $-1 $86 reversed single #
face $-1 $87 $88 $45 $-1 $89 forward single #
face $-1 $90 $91 $46 $-1 $92 forward single #
face $-1 $93 $94 $47 $-1 $95 forward single #
face $-1 $96 $97 $36 $-1 $98 reversed single #
loop $-1 $-1 $99 $48 #
plane-surface $-1 0 0 10.951372640312661 0 0 1 1 0 0 forward_v I I I I #
face $-1 $100 $101 $37 $-1 $102 reversed single #
loop $-1 $-1 $103 $49 #
plane-surface $-1 0 -46.842145927281443 0 0 1 0 0 0 1 forward_v I I I I #
face $-1 $104 $105 $38 $-1 $106 reversed single #
loop $-1 $-1 $107 $50 #
plane-surface $-1 -169.00538587822462 -32.973098266339306 133.74591138105137 0 1 0 -0.55919291073839883 0 0.82903756765294845 forward_v I I I I #
face $-1 $108 $109 $39 $-1 $110 forward single #
loop $-1 $111 $112 $51 #
cone-surface $-1 -72.09009828065129 -27.856050520403333 5.2329628799130106 0.55919291073839883 0 -0.82903756765294845 1.2435563514794228 0 0.83878936610759824 1 I I 0 1 1.5 forward I I I I #
face $-1 $113 $114 $40 $-1 $115 forward single #
loop $-1 $116 $117 $52 #
cone-surface $-1 -72.09009828065129 -20.18047890149937 5.2329628799130106 0.55919291073839883 0 -0.82903756765294845 1.2435563514794228 0 0.83878936610759824 1 I I 0 1 1.5 forward I I I I #
face $-1 $118 $119 $41 $-1 $120 reversed single #
loop $-1 $-1 $121 $53 #
plane-surface $-1 -169.00538587822462 26.107897314819894 133.74591138105137 0 1 0 -0.55919291073839883 0 0.82903756765294845 forward_v I I I I #
face $-1 $122 $123 $42 $-1 $124 forward single #
loop $-1 $125 $126 $54 #
cone-surface $-1 -72.09009828065129 31.224945060755864 5.2329628799130106 0.55919291073839883 0 -0.82903756765294845 1.2435563514794228 0 0.83878936610759824 1 I I 0 1 1.5 forward I I I I #
face $-1 $127 $128 $43 $-1 $129 forward single #
loop $-1 $130 $131 $55 #
cone-surface $-1 -72.09009828065129 38.900516679659837 5.2329628799130106 0.55919291073839883 0 -0.82903756765294845 1.2435563514794228 0 0.83878936610759824 1 I I 0 1 1.5 forward I I I I #
face $-1 $132 $133 $44 $-1 $134 reversed single #
loop $-1 $-1 $135 $56 #
plane-surface $-1 48.375486977961344 18.461646091195128 227.57415791847052 0 -1 0 -0.6018150307709319 0 -0.79863550430605224 forward_v I I I I #
face $-1 $136 $137 $45 $-1 $138 forward single #
loop $-1 $139 $140 $57 #
cone-surface $-1 74.265331702921628 3.6996163734984364 6.2332500620240028 -0.6018150307709319 0 -0.79863550430605224 1.1979532564590785 0 -0.90272254615639791 1 I I 0 1 1.5 forward I I I I #
face $-1 $141 $142 $46 $-1 $143 forward single #
loop $-1 $144 $145 $58 #
cone-surface $-1 74.265331702921628 9.2353775176346957 6.2332500620240028 -0.6018150307709319 0 -0.79863550430605224 1.1979532564590785 0 -0.90272254615639791 1 I I 0 1 1.5 forward I I I I #
face $-1 $146 $147 $47 $-1 $148 forward single #
loop $-1 $149 $150 $59 #
cone-surface $-1 74.265331702921628 14.771138661770955 6.2332500620240028 -0.6018150307709319 0 -0.79863550430605224 1.1979532564590785 0 -0.90272254615639791 1 I I 0 1 1.5 forward I I I I #
face $-1 $151 $152 $36 $-1 $153 reversed single #
loop $-1 $-1 $154 $60 #
plane-surface $-1 0 0 -10.951372640312661 0 0 1 1 0 0 forward_v I I I I #
coedge $-1 $155 $156 $157 $158 forward $61 $-1 #
face $-1 $159 $160 $37 $-1 $161 reversed single #
loop $-1 $-1 $162 $63 #
plane-surface $-1 0 0 -10.951372640312661 0 0 1 1 0 0 forward_v I I I I #
coedge $-1 $163 $164 $165 $166 forward $64 $-1 #
face $-1 $167 $168 $38 $-1 $169 reversed single #
loop $-1 $-1 $170 $66 #
plane-surface $-1 -79.780266731772826 -24.01826471095135 1.4642348250266082 -0.55919291073839883 0 0.82903756765294845 0.82903756765294845 0 0.55919291073839883 forward_v I I I I #
coedge $-1 $171 $172 $173 $174 reversed $67 $-1 #
face $-1 $-1 $175 $39 $-1 $176 forward single #
loop $-1 $177 $178 $69 #
cone-surface $-1 -71.013165127413373 -27.856050520403333 3.6363438514166777 0.55919291073839883 0 -0.82903756765294845 0.62177817573971139 0 0.41939468305379912 1 I I -0.70710678118654757 0.70710678118654757 0.75 forward I I I I #
loop $-1 $-1 $179 $51 #
coedge $-1 $112 $112 $180 $181 reversed $70 $-1 #
face $-1 $-1 $182 $40 $-1 $183 forward single #
loop $-1 $184 $185 $72 #
cone-surface $-1 -71.013165127413373 -20.18047890149937 3.6363438514166777 0.55919291073839883 0 -0.82903756765294845 0.62177817573971139 0 0.41939468305379912 1 I I -0.70710678118654757 0.70710678118654757 0.75 forward I I I I #
loop $-1 $-1 $186 $52 #
coedge $-1 $117 $117 $187 $188 reversed $73 $-1 #
face $-1 $189 $190 $41 $-1 $191 reversed single #
loop $-1 $-1 $192 $75 #
plane-surface $-1 -79.780266731772826 35.062730870207851 1.4642348250266082 -0.55919291073839883 0 0.82903756765294845 0.82903756765294845 0 0.55919291073839883 forward_v I I I I #
coedge $-1 $193 $194 $195 $196 reversed $76 $-1 #
face $-1 $-1 $197 $42 $-1 $198 forward single #
loop $-1 $199 $200 $78 #
cone-surface $-1 -71.013165127413373 31.224945060755864 3.6363438514166777 0.55919291073839883 0 -0.82903756765294845 0.62177817573971139 0 0.41939468305379912 1 I I -0.70710678118654757 0.70710678118654757 0.75 forward I I I I #
loop $-1 $-1 $201 $54 #
coedge $-1 $126 $126 $202 $203 reversed $79 $-1 #
face $-1 $-1 $204 $43 $-1 $205 forward single #
loop $-1 $206 $207 $81 #
cone-surface $-1 -71.013165127413373 38.900516679659837 3.6363438514166777 0.55919291073839883 0 -0.82903756765294845 0.62177817573971139 0 0.41939468305379912 1 I I -0.70710678118654757 0.70710678118654757 0.75 forward I I I I #
loop $-1 $-1 $208 $55 #
coedge $-1 $131 $131 $209 $210 reversed $82 $-1 #
face $-1 $211 $212 $44 $-1 $213 reversed single #
loop $-1 $-1 $214 $84 #
plane-surface $-1 -47.650440378228694 9.2353775176346957 100.14345080846901 0.6018150307709319 0 0.79863550430605224 0.79863550430605224 0 -0.6018150307709319 forward_v I I I I #
coedge $-1 $215 $216 $217 $218 reversed $85 $-1 #
face $-1 $-1 $219 $45 $-1 $220 forward single #
loop $-1 $221 $222 $87 #
cone-surface $-1 72.833447399347733 3.6996163734984364 4.3330754495226333 -0.6018150307709319 0 -0.79863550430605224 0.59897662822953923 0 -0.45136127307819895 1 I I -0.70710678118654757 0.70710678118654757 0.75 forward I I I I #
loop $-1 $-1 $223 $57 #
coedge $-1 $140 $140 $224 $225 reversed $88 $-1 #
face $-1 $-1 $226 $46 $-1 $227 forward single #
loop $-1 $228 $229 $90 #
cone-surface $-1 72.833447399347733 9.2353775176346957 4.3330754495226333 -0.6018150307709319 0 -0.79863550430605224 0.59897662822953923 0 -0.45136127307819895 1 I I -0.70710678118654757 0.70710678118654757 0.75 forward I I I I #
loop $-1 $-1 $230 $58 #
coedge $-1 $145 $145 $231 $232 reversed $91 $-1 #
face $-1 $-1 $233 $47 $-1 $234 forward single #
loop $-1 $235 $236 $93 #
cone-surface $-1 72.833447399347733 14.771138661770955 4.3330754495226333 -0.6018150307709319 0 -0.79863550430605224 0.59897662822953923 0 -0.45136127307819895 1 I I -0.70710678118654757 0.70710678118654757 0.75 forward I I I I #
loop $-1 $-1 $237 $59 #
coedge $-1 $150 $150 $238 $239 reversed $94 $-1 #
face $-1 $240 $241 $36 $-1 $242 reversed single #
loop $-1 $-1 $243 $96 #
plane-surface $-1 0 -46.842145927281443 0 0 1 0 0 0 1 forward_v I I I I #
coedge $-1 $244 $245 $246 $247 forward $97 $-1 #
coedge $-1 $248 $99 $249 $250 forward $61 $-1 #
coedge $-1 $99 $248 $251 $252 forward $61 $-1 #
coedge $-1 $253 $254 $99 $158 reversed $255 $-1 #
edge $-1 $256 -46.842145927281443 $257 46.842145927281443 $157 $258 forward 7 unknown #
face $-1 $259 $260 $37 $-1 $261 reversed single #
loop $-1 $-1 $262 $100 #
plane-surface $-1 -72.291637966302346 -57.886612086537944 0 0 1 0 0 0 1 forward_v I I I I #
coedge $-1 $263 $264 $164 $265 forward $101 $-1 #
coedge $-1 $266 $103 $267 $268 reversed $64 $-1 #
coedge $-1 $103 $266 $162 $265 reversed $64 $-1 #
coedge $-1 $269 $270 $103 $166 reversed $260 $-1 #
edge $-1 $271 -10.951372640312661 $272 10.951372640312661 $165 $273 forward 7 unknown #
face $-1 $274 $275 $38 $-1 $276 reversed single #
loop $-1 $-1 $277 $104 #
plane-surface $-1 -169.00538587822462 -15.063431155563391 133.74591138105137 0 -1 0 0.55919291073839883 0 -0.82903756765294845 forward_v I I I I #
coedge $-1 $278 $279 $280 $281 reversed $105 $-1 #
coedge $-1 $172 $107 $282 $283 reversed $67 $-1 #
coedge $-1 $107 $171 $278 $284 reversed $67 $-1 #
coedge $-1 $280 $285 $107 $174 forward $286 $-1 #
edge $-1 $287 4.7224262073394812 $288 18.787686169214325 $173 $289 forward 7 unknown #
loop $-1 $-1 $180 $108 #
plane-surface $-1 -79.780266731772826 -24.01826471095135 1.4642348250266082 -0.55919291073839883 0 0.82903756765294845 0.82903756765294845 0 0.55919291073839883 forward_v I I I I #
loop $-1 $-1 $290 $69 #
coedge $-1 $178 $178 $179 $291 reversed $109 $-1 #
coedge $-1 $179 $179 $178 $291 forward $111 $-1 #
coedge $-1 $180 $180 $112 $181 forward $175 $-1 #
edge $-1 $292 0 $292 6.2831853071796004 $180 $293 forward 7 unknown #
loop $-1 $-1 $187 $113 #
plane-surface $-1 -79.780266731772826 -24.01826471095135 1.4642348250266082 -0.55919291073839883 0 0.82903756765294845 0.82903756765294845 0 0.55919291073839883 forward_v I I I I #
loop $-1 $-1 $294 $72 #
coedge $-1 $185 $185 $186 $295 reversed $114 $-1 #
coedge $-1 $186 $186 $185 $295 forward $116 $-1 #
coedge $-1 $187 $187 $117 $188 forward $182 $-1 #
edge $-1 $296 0 $296 6.2831853071796004 $187 $297 forward 7 unknown #
face $-1 $298 $299 $41 $-1 $300 forward single #
loop $-1 $-1 $301 $118 #
plane-surface $-1 -169.00538587822462 44.017564425595808 133.74591138105137 0 -1 0 0.55919291073839883 0 -0.82903756765294845 forward_v I I I I #
coedge $-1 $302 $303 $304 $305 reversed $119 $-1 #
coedge $-1 $194 $121 $306 $307 reversed $76 $-1 #
coedge $-1 $121 $193 $302 $308 reversed $76 $-1 #
coedge $-1 $304 $309 $121 $196 forward $299 $-1 #
edge $-1 $310 4.7224262073394812 $311 18.787686169214325 $195 $312 forward 7 unknown #
loop $-1 $-1 $202 $122 #
plane-surface $-1 -79.780266731772826 35.062730870207851 1.4642348250266082 -0.55919291073839883 0 0.82903756765294845 0.82903756765294845 0 0.55919291073839883 forward_v I I I I #
loop $-1 $-1 $313 $78 #
coedge $-1 $200 $200 $201 $314 reversed $123 $-1 #
coedge $-1 $201 $201 $200 $314 forward $125 $-1 #
coedge $-1 $202 $202 $126 $203 forward $197 $-1 #
edge $-1 $315 0 $315 6.2831853071796004 $202 $316 forward 7 unknown #
loop $-1 $-1 $209 $127 #
plane-surface $-1 -79.780266731772826 35.062730870207851 1.4642348250266082 -0.55919291073839883 0 0.82903756765294845 0.82903756765294845 0 0.55919291073839883 forward_v I I I I #
loop $-1 $-1 $317 $81 #
coedge $-1 $207 $207 $208 $318 reversed $128 $-1 #
coedge $-1 $208 $208 $207 $318 forward $130 $-1 #
coedge $-1 $209 $209 $131 $210 forward $204 $-1 #
edge $-1 $319 0 $319 6.2831853071796004 $209 $320 forward 7 unknown #
face $-1 $321 $322 $44 $-1 $323 forward single #
loop $-1 $-1 $324 $132 #
plane-surface $-1 48.375486977961344 0.0091089440742635475 227.57415791847052 0 1 0 0.6018150307709319 0 0.79863550430605224 forward_v I I I I #
coedge $-1 $325 $326 $327 $328 reversed $133 $-1 #
coedge $-1 $216 $135 $329 $330 reversed $85 $-1 #
coedge $-1 $135 $215 $325 $331 reversed $85 $-1 #
coedge $-1 $327 $332 $135 $218 forward $322 $-1 #
edge $-1 $333 -55.592523242792154 $334 -46.523699246081151 $217 $335 forward 7 unknown #
loop $-1 $-1 $224 $136 #
plane-surface $-1 -47.650440378228694 9.2353775176346957 100.14345080846901 0.6018150307709319 0 0.79863550430605224 0.79863550430605224 0 -0.6018150307709319 forward_v I I I I #
loop $-1 $-1 $336 $87 #
coedge $-1 $222 $222 $223 $337 reversed $137 $-1 #
coedge $-1 $223 $223 $222 $337 forward $139 $-1 #
coedge $-1 $224 $224 $140 $225 forward $219 $-1 #
edge $-1 $338 0 $338 6.2831853071796004 $224 $339 forward 7 unknown #
loop $-1 $-1 $231 $141 #
plane-surface $-1 -47.650440378228694 9.2353775176346957 100.14345080846901 0.6018150307709319 0 0.79863550430605224 0.79863550430605224 0 -0.6018150307709319 forward_v I I I I #
loop $-1 $-1 $340 $90 #
coedge $-1 $229 $229 $230 $341 reversed $142 $-1 #
coedge $-1 $230 $230 $229 $341 forward $144 $-1 #
coedge $-1 $231 $231 $145 $232 forward $226 $-1 #
edge $-1 $342 0 $342 6.2831853071796004 $231 $343 forward 7 unknown #
loop $-1 $-1 $238 $146 #
plane-surface $-1 -47.650440378228694 9.2353775176346957 100.14345080846901 0.6018150307709319 0 0.79863550430605224 0.79863550430605224 0 -0.6018150307709319 forward_v I I I I #
loop $-1 $-1 $344 $93 #
coedge $-1 $236 $236 $237 $345 reversed $147 $-1 #
coedge $-1 $237 $237 $236 $345 forward $149 $-1 #
coedge $-1 $238 $238 $150 $239 forward $233 $-1 #
edge $-1 $346 0 $346 6.2831853071796004 $238 $347 forward 7 unknown #
face $-1 $348 $349 $36 $-1 $350 reversed single #
loop $-1 $-1 $351 $151 #
plane-surface $-1 -79.780266731772826 0 0 1 0 0 0 0 -1 forward_v I I I I #
coedge $-1 $352 $251 $353 $354 forward $152 $-1 #
coedge $-1 $355 $154 $352 $356 forward $97 $-1 #
coedge $-1 $154 $355 $357 $358 forward $97 $-1 #
coedge $-1 $254 $253 $154 $247 reversed $255 $-1 #
edge $-1 $359 -46.842145927281443 $360 46.842145927281443 $246 $361 forward 7 unknown #
coedge $-1 $156 $155 $362 $363 forward $61 $-1 #
coedge $-1 $364 $365 $155 $250 reversed $349 $-1 #
edge $-1 $257 -79.780266731772826 $366 79.780266731772826 $249 $367 forward 7 unknown #
coedge $-1 $243 $368 $156 $252 reversed $152 $-1 #
edge $-1 $369 -79.780266731772826 $256 79.780266731772826 $251 $370 forward 7 unknown #
coedge $-1 $246 $157 $368 $371 forward $255 $-1 #
coedge $-1 $157 $246 $364 $372 reversed $255 $-1 #
loop $-1 $-1 $253 $348 #
vertex $-1 $158 $373 #
vertex $-1 $158 $374 #
straight-curve $-1 79.780266731772826 0 10.951372640312661 0 1 0 I I #
face $-1 $375 $376 $37 $-1 $377 reversed single #
loop $-1 $-1 $165 $159 #
plane-surface $-1 -73.791637966302346 -52.364379006909694 0 1 0 0 0 0 -1 forward_v I I I I #
coedge $-1 $378 $379 $380 $381 forward $160 $-1 #
coedge $-1 $382 $162 $383 $384 forward $101 $-1 #
coedge $-1 $162 $382 $269 $385 forward $101 $-1 #
edge $-1 $271 -73.791637966302346 $386 -70.791637966302346 $162 $387 forward 7 unknown #
coedge $-1 $164 $163 $388 $389 forward $64 $-1 #
coedge $-1 $390 $391 $163 $268 forward $392 $-1 #
edge $-1 $393 70.791637966302346 $272 73.791637966302346 $267 $394 forward 7 unknown #
coedge $-1 $380 $165 $264 $385 reversed $260 $-1 #
coedge $-1 $165 $380 $390 $395 reversed $260 $-1 #
vertex $-1 $265 $396 #
vertex $-1 $395 $397 #
straight-curve $-1 -73.791637966302346 -46.842145927281443 0 0 0 1 I I #
face $-1 $-1 $286 $38 $-1 $398 forward single #
loop $-1 $-1 $399 $167 #
plane-surface $-1 -79.780266731772826 0 0 1 0 0 0 0 -1 forward_v I I I I #
coedge $-1 $400 $401 $402 $403 reversed $168 $-1 #
coedge $-1 $404 $170 $172 $284 forward $105 $-1 #
coedge $-1 $170 $404 $400 $405 forward $105 $-1 #
coedge $-1 $402 $173 $170 $281 forward $286 $-1 #
edge $-1 $288 -20.963965910863632 $406 -3.0542988000877163 $280 $407 forward 7 unknown #
coedge $-1 $408 $409 $171 $283 forward $275 $-1 #
edge $-1 $410 -65.408720865499077 $287 -55.921583050213023 $282 $411 forward 7 unknown #
edge $-1 $288 -16.965769116705268 $410 0 $172 $412 forward 7 unknown #
coedge $-1 $173 $402 $408 $413 forward $286 $-1 #
loop $-1 $-1 $402 $274 #
vertex $-1 $283 $414 #
vertex $-1 $174 $415 #
straight-curve $-1 -84.502692939112308 -32.973098266339306 10.951372640312663 1 0 0 I I #
coedge $-1 $290 $290 $-1 $416 reversed $177 $-1 #
edge $-1 $417 0 $417 6.2831853071796004 $178 $418 forward 7 unknown #
vertex $-1 $181 $419 #
ellipse-curve $-1 -72.747636750835397 -27.856050520403333 6.2078037326696336 -0.55919291073839883 0 0.82903756765294845 1.2435563514794228 0 0.83878936610759824 1 I I #
coedge $-1 $294 $294 $-1 $420 reversed $184 $-1 #
edge $-1 $421 0 $421 6.2831853071796004 $185 $422 forward 7 unknown #
vertex $-1 $188 $423 #
ellipse-curve $-1 -72.747636750835397 -20.18047890149937 6.2078037326696336 -0.55919291073839883 0 0.82903756765294845 1.2435563514794228 0 0.83878936610759824 1 I I #
face $-1 $-1 $424 $41 $-1 $425 reversed single #
loop $-1 $-1 $195 $189 #
plane-surface $-1 0 0 10.951372640312661 0 0 1 1 0 0 forward_v I I I I #
coedge $-1 $426 $427 $428 $429 reversed $190 $-1 #
coedge $-1 $430 $192 $194 $308 forward $119 $-1 #
coedge $-1 $192 $430 $426 $431 forward $119 $-1 #
coedge $-1 $428 $195 $192 $305 forward $299 $-1 #
edge $-1 $311 8.5765318797159686 $432 26.486198990491882 $304 $433 forward 7 unknown #
coedge $-1 $434 $435 $193 $307 forward $424 $-1 #
edge $-1 $436 -65.408720865499077 $310 -55.921583050213023 $306 $437 forward 7 unknown #
edge $-1 $311 -16.965769116705268 $436 0 $194 $438 forward 7 unknown #
coedge $-1 $195 $428 $434 $439 forward $299 $-1 #
vertex $-1 $196 $440 #
vertex $-1 $196 $441 #
straight-curve $-1 -84.502692939112308 26.107897314819894 10.951372640312663 1 0 0 I I #
coedge $-1 $313 $313 $-1 $442 reversed $199 $-1 #
edge $-1 $443 0 $443 6.2831853071796004 $200 $444 forward 7 unknown #
vertex $-1 $203 $445 #
ellipse-curve $-1 -72.747636750835397 31.224945060755864 6.2078037326696336 -0.55919291073839883 0 0.82903756765294845 1.2435563514794228 0 0.83878936610759824 1 I I #
coedge $-1 $317 $317 $-1 $446 reversed $206 $-1 #
edge $-1 $447 0 $447 6.2831853071796004 $207 $448 forward 7 unknown #
vertex $-1 $210 $449 #
ellipse-curve $-1 -72.747636750835397 38.900516679659837 6.2078037326696336 -0.55919291073839883 0 0.82903756765294845 1.2435563514794228 0 0.83878936610759824 1 I I #
face $-1 $-1 $450 $44 $-1 $451 reversed single #
loop $-1 $-1 $217 $211 #
plane-surface $-1 0 0 10.951372640312661 0 0 1 1 0 0 forward_v I I I I #
coedge $-1 $452 $453 $454 $455 reversed $212 $-1 #
coedge $-1 $456 $214 $216 $331 forward $133 $-1 #
coedge $-1 $214 $456 $452 $457 forward $133 $-1 #
coedge $-1 $454 $217 $214 $328 forward $322 $-1 #
edge $-1 $334 -13.84395733237778 $458 4.6085798147430843 $327 $459 forward 7 unknown #
coedge $-1 $460 $461 $215 $330 forward $450 $-1 #
edge $-1 $462 -109.6695555069563 $333 -102.8357063189226 $329 $463 forward 7 unknown #
edge $-1 $334 148.20513547808918 $462 159.56053346354571 $216 $464 forward 7 unknown #
coedge $-1 $217 $454 $460 $465 forward $322 $-1 #
vertex $-1 $218 $466 #
vertex $-1 $218 $467 #
straight-curve $-1 24.187743488980672 18.461646091195128 10.951372640312655 -1 0 0 I I #
coedge $-1 $336 $336 $-1 $468 reversed $221 $-1 #
edge $-1 $469 0 $469 6.2831853071796004 $222 $470 forward 7 unknown #
vertex $-1 $225 $471 #
ellipse-curve $-1 75.245854733417303 3.6996163734984364 7.5344480462958181 0.6018150307709319 0 0.79863550430605224 1.1979532564590785 0 -0.90272254615639791 1 I I #
coedge $-1 $340 $340 $-1 $472 reversed $228 $-1 #
edge $-1 $473 0 $473 6.2831853071796004 $229 $474 forward 7 unknown #
vertex $-1 $232 $475 #
ellipse-curve $-1 75.245854733417303 9.2353775176346957 7.5344480462958181 0.6018150307709319 0 0.79863550430605224 1.1979532564590785 0 -0.90272254615639791 1 I I #
coedge $-1 $344 $344 $-1 $476 reversed $235 $-1 #
edge $-1 $477 0 $477 6.2831853071796004 $236 $478 forward 7 unknown #
vertex $-1 $239 $479 #
ellipse-curve $-1 75.245854733417303 14.771138661770955 7.5344480462958181 0.6018150307709319 0 0.79863550430605224 1.1979532564590785 0 -0.90272254615639791 1 I I #
face $-1 $-1 $255 $36 $-1 $480 reversed single #
loop $-1 $-1 $364 $240 #
plane-surface $-1 0 46.842145927281443 0 0 -1 0 0 0 -1 forward_v I I I I #
coedge $-1 $481 $362 $365 $482 forward $241 $-1 #
coedge $-1 $368 $243 $244 $356 reversed $152 $-1 #
coedge $-1 $362 $481 $243 $354 reversed $241 $-1 #
edge $-1 $369 -10.951372640312661 $483 10.951372640312661 $353 $484 forward 7 unknown #
coedge $-1 $245 $244 $481 $485 forward $97 $-1 #
edge $-1 $360 -79.780266731772826 $483 79.780266731772826 $352 $486 forward 7 unknown #
coedge $-1 $365 $364 $245 $358 reversed $349 $-1 #
edge $-1 $487 -79.780266731772826 $359 79.780266731772826 $357 $488 forward 7 unknown #
vertex $-1 $247 $489 #
vertex $-1 $371 $490 #
straight-curve $-1 79.780266731772826 0 -10.951372640312661 0 -1 0 I I #
coedge $-1 $351 $353 $248 $363 reversed $241 $-1 #
edge $-1 $366 -46.842145927281443 $369 46.842145927281443 $362 $491 forward 7 unknown #
coedge $-1 $357 $249 $254 $372 forward $349 $-1 #
coedge $-1 $249 $357 $351 $482 reversed $349 $-1 #
vertex $-1 $250 $492 #
straight-curve $-1 0 46.842145927281443 10.951372640312661 -1 0 0 I I #
coedge $-1 $251 $352 $253 $371 reversed $152 $-1 #
vertex $-1 $363 $493 #
straight-curve $-1 0 -46.842145927281443 10.951372640312661 1 0 0 I I #
edge $-1 $256 -10.951372640312661 $360 10.951372640312661 $253 $494 forward 7 unknown #
edge $-1 $257 -10.951372640312661 $359 10.951372640312661 $254 $495 forward 7 unknown #
point $-1 79.780266731772826 -46.842145927281443 10.951372640312661 #
point $-1 79.780266731772826 46.842145927281443 10.951372640312661 #
face $-1 $-1 $392 $37 $-1 $496 forward single #
loop $-1 $-1 $497 $259 #
plane-surface $-1 -70.791637966302346 -52.364379006909694 0 -1 0 0 0 0 1 forward_v I I I I #
coedge $-1 $498 $262 $382 $499 reversed $160 $-1 #
coedge $-1 $262 $498 $500 $501 reversed $160 $-1 #
coedge $-1 $270 $269 $262 $381 reversed $260 $-1 #
edge $-1 $502 -10.951372640312661 $503 10.951372640312661 $380 $504 forward 7 unknown #
coedge $-1 $264 $263 $378 $499 forward $101 $-1 #
coedge $-1 $388 $497 $263 $384 reversed $376 $-1 #
edge $-1 $386 -5.5222330796282506 $505 5.5222330796282506 $383 $506 forward 7 unknown #
edge $-1 $503 -5.5222330796282506 $271 5.5222330796282506 $269 $507 forward 7 unknown #
vertex $-1 $384 $508 #
straight-curve $-1 0 -46.842145927281443 -10.951372640312661 1 0 0 I I #
coedge $-1 $509 $383 $266 $389 reversed $376 $-1 #
edge $-1 $393 -10.951372640312661 $386 10.951372640312661 $388 $510 forward 7 unknown #
coedge $-1 $500 $267 $270 $395 forward $392 $-1 #
coedge $-1 $267 $500 $509 $511 forward $392 $-1 #
loop $-1 $-1 $267 $375 #
vertex $-1 $268 $512 #
straight-curve $-1 0 -46.842145927281443 10.951372640312661 -1 0 0 I I #
edge $-1 $272 -5.5222330796282506 $502 5.5222330796282506 $270 $513 forward 7 unknown #
point $-1 -73.791637966302346 -46.842145927281443 -10.951372640312661 #
point $-1 -73.791637966302346 -46.842145927281443 10.951372640312661 #
plane-surface $-1 0 0 10.951372640312661 0 0 1 1 0 0 forward_v I I I I #
coedge $-1 $409 $408 $401 $514 forward $275 $-1 #
coedge $-1 $401 $277 $279 $405 reversed $168 $-1 #
coedge $-1 $277 $400 $399 $514 reversed $168 $-1 #
coedge $-1 $285 $280 $277 $403 forward $286 $-1 #
edge $-1 $406 -18.787686169214325 $515 -4.7224262073394812 $402 $516 forward 7 unknown #
coedge $-1 $279 $278 $409 $517 reversed $105 $-1 #
edge $-1 $518 0 $406 16.965769116705268 $400 $519 forward 7 unknown #
vertex $-1 $281 $520 #
straight-curve $-1 -65.715006769897983 -12.009132355475675 10.951372640312661 0 1 0 I I #
coedge $-1 $399 $282 $285 $413 reversed $275 $-1 #
coedge $-1 $282 $399 $404 $517 forward $275 $-1 #
vertex $-1 $283 $521 #
straight-curve $-1 -79.780266731772826 -32.973098266339306 66.872955690525686 0 0 1 I I #
straight-curve $-1 -79.780266731772826 -32.973098266339306 1.4642348250266082 -0.82903756765294845 0 -0.55919291073839883 I I #
edge $-1 $515 15.063431155563391 $287 32.973098266339306 $408 $522 forward 7 unknown #
point $-1 -79.780266731772826 -32.973098266339306 10.951372640312661 #
point $-1 -65.715006769897983 -32.973098266339306 10.951372640312661 #
edge $-1 $523 1 $523 0 $290 $-1 forward 7 unknown #
vertex $-1 $291 $524 #
ellipse-curve $-1 -71.432559810467168 -27.856050520403333 4.2581220271563893 -0.55919291073839883 0 0.82903756765294845 1.2435563514794228 0 0.83878936610759824 1 I I #
point $-1 -71.504080399355971 -27.856050520403333 7.0465930987772296 #
edge $-1 $525 1 $525 0 $294 $-1 forward 7 unknown #
vertex $-1 $295 $526 #
ellipse-curve $-1 -71.432559810467168 -20.18047890149937 4.2581220271563893 -0.55919291073839883 0 0.82903756765294845 1.2435563514794228 0 0.83878936610759824 1 I I #
point $-1 -71.504080399355971 -20.18047890149937 7.0465930987772296 #
loop $-1 $-1 $306 $298 #
plane-surface $-1 -79.780266731772826 0 0 1 0 0 0 0 -1 forward_v I I I I #
coedge $-1 $427 $301 $303 $431 reversed $190 $-1 #
coedge $-1 $301 $426 $527 $528 reversed $190 $-1 #
coedge $-1 $309 $304 $301 $429 forward $299 $-1 #
edge $-1 $432 -18.787686169214325 $529 -4.7224262073394812 $428 $530 forward 7 unknown #
coedge $-1 $303 $302 $435 $531 reversed $119 $-1 #
edge $-1 $532 0 $432 16.965769116705268 $426 $533 forward 7 unknown #
vertex $-1 $305 $534 #
straight-curve $-1 -65.715006769897983 17.531365435103925 10.951372640312661 0 1 0 I I #
coedge $-1 $527 $306 $309 $439 reversed $424 $-1 #
coedge $-1 $306 $527 $430 $531 forward $424 $-1 #
vertex $-1 $307 $535 #
straight-curve $-1 -79.780266731772826 26.107897314819894 66.872955690525686 0 0 1 I I #
straight-curve $-1 -79.780266731772826 26.107897314819894 1.4642348250266082 -0.82903756765294845 0 -0.55919291073839883 I I #
edge $-1 $529 -44.017564425595808 $310 -26.107897314819894 $434 $536 forward 7 unknown #
point $-1 -79.780266731772826 26.107897314819894 10.951372640312661 #
point $-1 -65.715006769897983 26.107897314819894 10.951372640312661 #
edge $-1 $537 1 $537 0 $313 $-1 forward 7 unknown #
vertex $-1 $314 $538 #
ellipse-curve $-1 -71.432559810467168 31.224945060755864 4.2581220271563893 -0.55919291073839883 0 0.82903756765294845 1.2435563514794228 0 0.83878936610759824 1 I I #
point $-1 -71.504080399355971 31.224945060755864 7.0465930987772296 #
edge $-1 $539 1 $539 0 $317 $-1 forward 7 unknown #
vertex $-1 $318 $540 #
ellipse-curve $-1 -71.432559810467168 38.900516679659837 4.2581220271563893 -0.55919291073839883 0 0.82903756765294845 1.2435563514794228 0 0.83878936610759824 1 I I #
point $-1 -71.504080399355971 38.900516679659837 7.0465930987772296 #
loop $-1 $-1 $329 $321 #
plane-surface $-1 79.780266731772826 0 0 -1 0 0 0 0 1 forward_v I I I I #
coedge $-1 $453 $324 $326 $457 reversed $212 $-1 #
coedge $-1 $324 $452 $541 $542 reversed $212 $-1 #
coedge $-1 $332 $327 $324 $455 forward $322 $-1 #
edge $-1 $458 46.523699246081151 $543 55.592523242792154 $454 $544 forward 7 unknown #
coedge $-1 $326 $325 $461 $545 reversed $133 $-1 #
edge $-1 $546 -159.56053346354571 $458 -148.20513547808918 $452 $547 forward 7 unknown #
vertex $-1 $328 $548 #
straight-curve $-1 70.711442735061837 4.6176887588173479 10.95137264031267 0 -1 0 I I #
coedge $-1 $541 $329 $332 $465 reversed $450 $-1 #
coedge $-1 $329 $541 $456 $545 forward $450 $-1 #
vertex $-1 $330 $549 #
straight-curve $-1 79.780266731772826 18.461646091195128 113.78707895923526 0 0 1 I I #
straight-curve $-1 -47.650440378228694 18.461646091195128 100.14345080846901 0.79863550430605224 0 -0.6018150307709319 I I #
edge $-1 $543 0.0091089440742635475 $333 18.461646091195128 $460 $550 forward 7 unknown #
point $-1 79.780266731772826 18.461646091195128 10.951372640312661 #
point $-1 70.711442735061823 18.461646091195128 10.951372640312655 #
edge $-1 $551 1 $551 0 $336 $-1 forward 7 unknown #
vertex $-1 $337 $552 #
ellipse-curve $-1 73.284808672425939 3.6996163734984364 4.9320520777521724 0.6018150307709319 0 0.79863550430605224 1.1979532564590785 0 -0.90272254615639791 1 I I #
point $-1 76.44380798987639 3.6996163734984364 6.6317255001394351 #
edge $-1 $553 1 $553 0 $340 $-1 forward 7 unknown #
vertex $-1 $341 $554 #
ellipse-curve $-1 73.284808672425939 9.2353775176346957 4.9320520777521724 0.6018150307709319 0 0.79863550430605224 1.1979532564590785 0 -0.90272254615639791 1 I I #
point $-1 76.44380798987639 9.2353775176346957 6.6317255001394351 #
edge $-1 $555 1 $555 0 $344 $-1 forward 7 unknown #
vertex $-1 $345 $556 #
ellipse-curve $-1 73.284808672425939 14.771138661770955 4.9320520777521724 0.6018150307709319 0 0.79863550430605224 1.1979532564590785 0 -0.90272254615639791 1 I I #
point $-1 76.44380798987639 14.771138661770955 6.6317255001394351 #
plane-surface $-1 79.780266731772826 0 0 -1 0 0 0 0 1 forward_v I I I I #
coedge $-1 $353 $351 $355 $485 reversed $241 $-1 #
edge $-1 $366 -10.951372640312661 $487 10.951372640312661 $365 $557 forward 7 unknown #
vertex $-1 $485 $558 #
straight-curve $-1 -79.780266731772826 -46.842145927281443 0 0 0 -1 I I #
edge $-1 $483 -46.842145927281443 $487 46.842145927281443 $481 $559 forward 7 unknown #
straight-curve $-1 0 -46.842145927281443 -10.951372640312661 -1 0 0 I I #
vertex $-1 $358 $560 #
straight-curve $-1 0 46.842145927281443 -10.951372640312661 1 0 0 I I #
point $-1 79.780266731772826 46.842145927281443 -10.951372640312661 #
point $-1 79.780266731772826 -46.842145927281443 -10.951372640312661 #
straight-curve $-1 -79.780266731772826 0 10.951372640312661 0 -1 0 I I #
point $-1 -79.780266731772826 46.842145927281443 10.951372640312661 #
point $-1 -79.780266731772826 -46.842145927281443 10.951372640312661 #
straight-curve $-1 79.780266731772826 -46.842145927281443 0 0 0 -1 I I #
straight-curve $-1 79.780266731772826 46.842145927281443 0 0 0 -1 I I #
plane-surface $-1 0 0 10.951372640312661 0 0 1 1 0 0 forward_v I I I I #
coedge $-1 $383 $509 $498 $561 forward $376 $-1 #
coedge $-1 $379 $378 $497 $561 reversed $160 $-1 #
edge $-1 $505 -1.5 $503 1.5 $378 $562 forward 7 unknown #
coedge $-1 $391 $390 $379 $501 forward $392 $-1 #
edge $-1 $502 -1.5 $563 1.5 $379 $564 forward 7 unknown #
vertex $-1 $395 $565 #
vertex $-1 $385 $566 #
straight-curve $-1 -73.791637966302346 -57.886612086537944 0 0 0 -1 I I #
vertex $-1 $561 $567 #
straight-curve $-1 -70.791637966302346 -52.364379006909694 -10.951372640312661 0 -1 0 I I #
straight-curve $-1 -73.791637966302346 -52.364379006909694 -10.951372640312661 0 1 0 I I #
point $-1 -70.791637966302346 -46.842145927281443 -10.951372640312661 #
coedge $-1 $497 $388 $391 $511 reversed $376 $-1 #
straight-curve $-1 -70.791637966302346 -46.842145927281443 0 0 0 -1 I I #
edge $-1 $563 -5.5222330796282506 $393 5.5222330796282506 $509 $568 forward 7 unknown #
point $-1 -70.791637966302346 -46.842145927281443 10.951372640312661 #
straight-curve $-1 -73.791637966302346 -52.364379006909694 10.951372640312661 0 -1 0 I I #
edge $-1 $515 55.921583050213023 $518 65.408720865499077 $399 $569 forward 7 unknown #
vertex $-1 $413 $570 #
straight-curve $-1 -84.502692939112308 -15.063431155563391 10.951372640312663 -1 0 0 I I #
edge $-1 $518 3.0542988000877163 $410 20.963965910863632 $409 $571 forward 7 unknown #
vertex $-1 $517 $572 #
straight-curve $-1 -79.780266731772826 -15.063431155563391 1.4642348250266082 0.82903756765294845 0 0.55919291073839883 I I #
point $-1 -65.715006769897983 -15.063431155563391 10.951372640312661 #
point $-1 -79.780266731772826 -32.973098266339306 1.4642348250266082 #
straight-curve $-1 -79.780266731772826 0 10.951372640312661 0 -1 0 I I #
vertex $-1 $416 $573 #
point $-1 -70.189003458987756 -27.856050520403333 5.0969113932639871 #
vertex $-1 $420 $574 #
point $-1 -70.189003458987756 -20.18047890149937 5.0969113932639871 #
coedge $-1 $435 $434 $427 $528 forward $424 $-1 #
edge $-1 $529 55.921583050213023 $532 65.408720865499077 $527 $575 forward 7 unknown #
vertex $-1 $439 $576 #
straight-curve $-1 -84.502692939112308 44.017564425595808 10.951372640312663 -1 0 0 I I #
edge $-1 $532 -26.486198990491882 $436 -8.5765318797159686 $435 $577 forward 7 unknown #
vertex $-1 $531 $578 #
straight-curve $-1 -79.780266731772826 44.017564425595808 1.4642348250266082 0.82903756765294845 0 0.55919291073839883 I I #
point $-1 -65.715006769897983 44.017564425595808 10.951372640312661 #
point $-1 -79.780266731772826 26.107897314819894 1.4642348250266082 #
straight-curve $-1 -79.780266731772826 0 10.951372640312661 0 -1 0 I I #
vertex $-1 $442 $579 #
point $-1 -70.189003458987756 31.224945060755864 5.0969113932639871 #
vertex $-1 $446 $580 #
point $-1 -70.189003458987756 38.900516679659837 5.0969113932639871 #
coedge $-1 $461 $460 $453 $542 forward $450 $-1 #
edge $-1 $543 102.8357063189226 $546 109.6695555069563 $541 $581 forward 7 unknown #
vertex $-1 $465 $582 #
straight-curve $-1 24.187743488980672 0.0091089440742635475 10.951372640312655 1 0 0 I I #
edge $-1 $546 -4.6085798147430843 $462 13.84395733237778 $461 $583 forward 7 unknown #
vertex $-1 $545 $584 #
straight-curve $-1 -47.650440378228694 0.0091089440742635475 100.14345080846901 -0.79863550430605224 0 0.6018150307709319 I I #
point $-1 70.711442735061823 0.0091089440742635475 10.951372640312655 #
point $-1 79.780266731772841 18.461646091195128 4.1175234522789594 #
straight-curve $-1 79.780266731772826 0 10.951372640312661 0 1 0 I I #
vertex $-1 $468 $585 #
point $-1 74.482761928885012 3.6996163734984364 4.0293295315957742 #
vertex $-1 $472 $586 #
point $-1 74.482761928885012 9.2353775176346957 4.0293295315957742 #
vertex $-1 $476 $587 #
point $-1 74.482761928885012 14.771138661770955 4.0293295315957742 #
straight-curve $-1 -79.780266731772826 46.842145927281443 0 0 0 -1 I I #
point $-1 -79.780266731772826 -46.842145927281443 -10.951372640312661 #
straight-curve $-1 -79.780266731772826 0 -10.951372640312661 0 1 0 I I #
point $-1 -79.780266731772826 46.842145927281443 -10.951372640312661 #
edge $-1 $563 -10.951372640312661 $505 10.951372640312661 $497 $588 forward 7 unknown #
straight-curve $-1 -72.291637966302346 -57.886612086537944 -10.951372640312661 -1 0 0 I I #
vertex $-1 $511 $589 #
straight-curve $-1 -72.291637966302346 -57.886612086537944 10.951372640312661 1 0 0 I I #
point $-1 -73.791637966302346 -57.886612086537944 10.951372640312661 #
point $-1 -73.791637966302346 -57.886612086537944 -10.951372640312661 #
point $-1 -70.791637966302346 -57.886612086537944 -10.951372640312661 #
straight-curve $-1 -70.791637966302346 -52.364379006909694 10.951372640312661 0 1 0 I I #
straight-curve $-1 -79.780266731772826 -15.063431155563391 66.872955690525686 0 0 -1 I I #
point $-1 -79.780266731772826 -15.063431155563391 10.951372640312661 #
straight-curve $-1 -79.780266731772826 -12.009132355475675 1.4642348250266035 0 -1 0 I I #
point $-1 -79.780266731772826 -15.063431155563391 1.4642348250266082 #
point $-1 -70.593770444359578 -27.856050520403333 3.0145656756769661 #
point $-1 -70.593770444359578 -20.18047890149937 3.0145656756769661 #
straight-curve $-1 -79.780266731772826 44.017564425595808 66.872955690525686 0 0 -1 I I #
point $-1 -79.780266731772826 44.017564425595808 10.951372640312661 #
straight-curve $-1 -79.780266731772826 17.531365435103925 1.4642348250266035 0 -1 0 I I #
point $-1 -79.780266731772826 44.017564425595808 1.4642348250266082 #
point $-1 -70.593770444359578 31.224945060755864 3.0145656756769661 #
point $-1 -70.593770444359578 38.900516679659837 3.0145656756769661 #
straight-curve $-1 79.780266731772826 0.0091089440742635475 113.78707895923526 0 0 -1 I I #
point $-1 79.780266731772826 0.0091089440742635475 10.951372640312661 #
straight-curve $-1 79.780266731772826 4.6176887588173479 4.1175234522789665 0 1 0 I I #
point $-1 79.780266731772841 0.0091089440742635475 4.1175234522789594 #
point $-1 72.382086126269527 3.6996163734984364 3.7340988212930943 #
point $-1 72.382086126269527 9.2353775176346957 3.7340988212930943 #
point $-1 72.382086126269527 14.771138661770955 3.7340988212930943 #
straight-curve $-1 -70.791637966302346 -57.886612086537944 0 0 0 -1 I I #
point $-1 -70.791637966302346 -57.886612086537944 10.951372640312661 #
End-of-ACIS-data 