500 0 15 0           
7 Unknown 11 ACIS 5.0 NT 24 Fri Mar 26 15:42:10 1999 
-1 9.9999999999999995e-007 1e-010 
body $-1 $15 $-1 $16 #
body $-1 $17 $-1 $18 #
body $-1 $19 $-1 $20 #
body $-1 $21 $-1 $22 #
body $-1 $23 $-1 $24 #
body $-1 $25 $-1 $26 #
body $-1 $27 $-1 $28 #
body $-1 $29 $-1 $30 #
body $-1 $31 $-1 $32 #
body $-1 $33 $-1 $34 #
body $-1 $35 $-1 $36 #
body $-1 $37 $-1 $38 #
body $-1 $39 $-1 $40 #
body $-1 $41 $-1 $42 #
body $-1 $43 $-1 $44 #
lump $-1 $-1 $45 $0 #
transform $-1 1 0 0 0 1 0 0 0 1 56.056398205511641 28.519186568345646 11.548760480261286 1 rotate no_reflect no_shear #
lump $-1 $-1 $46 $1 #
transform $-1 1 0 0 0 1 0 0 0 1 56.056398205511641 28.519186568345646 11.548760480261286 1 rotate no_reflect no_shear #
lump $-1 $-1 $47 $2 #
transform $-1 1 0 0 0 1 0 0 0 1 56.056398205511641 28.519186568345646 11.548760480261286 1 rotate no_reflect no_shear #
lump $-1 $-1 $48 $3 #
transform $-1 1 0 0 0 1 0 0 0 1 56.056398205511641 28.519186568345646 11.548760480261286 1 rotate no_reflect no_shear #
lump $-1 $-1 $49 $4 #
transform $-1 1 0 0 0 1 0 0 0 1 56.056398205511641 28.519186568345646 11.548760480261286 1 rotate no_reflect no_shear #
lump $-1 $-1 $50 $5 #
transform $-1 1 0 0 0 1 0 0 0 1 56.056398205511641 28.519186568345646 11.548760480261286 1 rotate no_reflect no_shear #
lump $-1 $-1 $51 $6 #
transform $-1 1 0 0 0 1 0 0 0 1 56.056398205511641 28.519186568345646 11.548760480261286 1 rotate no_reflect no_shear #
lump $-1 $-1 $52 $7 #
transform $-1 1 0 0 0 1 0 0 0 1 56.056398205511641 28.519186568345646 11.548760480261286 1 rotate no_reflect no_shear #
lump $-1 $-1 $53 $8 #
transform $-1 1 0 0 0 1 0 0 0 1 56.056398205511641 28.519186568345646 11.548760480261286 1 rotate no_reflect no_shear #
lump $-1 $-1 $54 $9 #
transform $-1 1 0 0 0 1 0 0 0 1 56.056398205511641 28.519186568345646 11.548760480261286 1 rotate no_reflect no_shear #
lump $-1 $-1 $55 $10 #
transform $-1 1 0 0 0 1 0 0 0 1 56.056398205511641 28.519186568345646 11.548760480261286 1 rotate no_reflect no_shear #
lump $-1 $-1 $56 $11 #
transform $-1 1 0 0 0 1 0 0 0 1 56.056398205511641 28.519186568345646 11.548760480261286 1 rotate no_reflect no_shear #
lump $-1 $-1 $57 $12 #
transform $-1 1 0 0 0 1 0 0 0 1 56.056398205511641 28.519186568345646 11.548760480261286 1 rotate no_reflect no_shear #
lump $-1 $-1 $58 $13 #
transform $-1 1 0 0 0 1 0 0 0 1 56.056398205511641 28.519186568345646 11.548760480261286 1 rotate no_reflect no_shear #
lump $-1 $-1 $59 $14 #
transform $-1 1 0 0 0 1 0 0 0 1 56.056398205511641 28.519186568345646 11.548760480261286 1 rotate no_reflect no_shear #
shell $-1 $-1 $-1 $60 $-1 $15 #
shell $-1 $-1 $-1 $61 $-1 $17 #
shell $-1 $-1 $-1 $62 $-1 $19 #
shell $-1 $-1 $-1 $63 $-1 $21 #
shell $-1 $-1 $-1 $64 $-1 $23 #
shell $-1 $-1 $-1 $65 $-1 $25 #
shell $-1 $-1 $-1 $66 $-1 $27 #
shell $-1 $-1 $-1 $67 $-1 $29 #
shell $-1 $-1 $-1 $68 $-1 $31 #
shell $-1 $-1 $-1 $69 $-1 $33 #
shell $-1 $-1 $-1 $70 $-1 $35 #
shell $-1 $-1 $-1 $71 $-1 $37 #
shell $-1 $-1 $-1 $72 $-1 $39 #
shell $-1 $-1 $-1 $73 $-1 $41 #
shell $-1 $-1 $-1 $74 $-1 $43 #
face $-1 $75 $76 $45 $-1 $77 forward single #
face $-1 $78 $79 $46 $-1 $80 forward single #
face $-1 $81 $82 $47 $-1 $83 forward single #
face $-1 $84 $85 $48 $-1 $86 reversed single #
face $-1 $87 $88 $49 $-1 $89 forward single #
face $-1 $90 $91 $50 $-1 $92 forward single #
face $-1 $93 $94 $51 $-1 $95 reversed single #
face $-1 $96 $97 $52 $-1 $98 forward single #
face $-1 $99 $100 $53 $-1 $101 forward single #
face $-1 $102 $103 $54 $-1 $104 reversed single #
face $-1 $105 $106 $55 $-1 $107 forward single #
face $-1 $108 $109 $56 $-1 $110 forward single #
face $-1 $111 $112 $57 $-1 $113 reversed single #
face $-1 $114 $115 $58 $-1 $116 forward single #
face $-1 $117 $118 $59 $-1 $119 forward single #
face $-1 $120 $121 $45 $-1 $122 reversed single #
loop $-1 $-1 $123 $60 #
plane-surface $-1 0 0 11.548760480261286 0 0 1 1 0 0 forward_v I I I I #
face $-1 $124 $125 $46 $-1 $126 forward single #
loop $-1 $-1 $127 $61 #
plane-surface $-1 -56.056398205511641 0 0 1 0 0 0 0 -1 forward_v I I I I #
face $-1 $128 $129 $47 $-1 $130 reversed single #
loop $-1 $-1 $131 $62 #
plane-surface $-1 56.056398205511641 0 0 -1 0 0 0 0 1 forward_v I I I I #
face $-1 $132 $133 $48 $-1 $134 reversed single #
loop $-1 $-1 $135 $63 #
plane-surface $-1 -26.758496383210861 -109.16638407774693 79.097168676312435 -1 0 0 0 -0.71933980857756763 0.69465836192734942 forward_v I I I I #
face $-1 $136 $137 $49 $-1 $138 forward single #
loop $-1 $139 $140 $64 #
cone-surface $-1 -33.505770930569113 -22.674999175543508 5.5566830494093047 0 0.71933980857756763 -0.69465836192734942 1 0 0 1 I I 0 1 1 forward I I I I #
face $-1 $141 $142 $50 $-1 $143 forward single #
loop $-1 $144 $145 $65 #
cone-surface $-1 -29.457406202154164 -22.674999175543508 5.5566830494093047 0 0.71933980857756763 -0.69465836192734942 1 0 0 1 I I 0 1 1 forward I I I I #
face $-1 $146 $147 $51 $-1 $148 reversed single #
loop $-1 $-1 $149 $66 #
plane-surface $-1 -5.7707706723031045 -109.16638407774693 79.097168676312435 -1 0 0 0 -0.71933980857756763 0.69465836192734942 forward_v I I I I #
face $-1 $150 $151 $52 $-1 $152 forward single #
loop $-1 $153 $154 $67 #
cone-surface $-1 -12.51804521966136 -22.674999175543508 5.5566830494093047 0 0.71933980857756763 -0.69465836192734942 1 0 0 1 I I 0 1 1 forward I I I I #
face $-1 $155 $156 $53 $-1 $157 forward single #
loop $-1 $158 $159 $68 #
cone-surface $-1 -8.4696804912464074 -22.674999175543508 5.5566830494093047 0 0.71933980857756763 -0.69465836192734942 1 0 0 1 I I 0 1 1 forward I I I I #
face $-1 $160 $161 $54 $-1 $162 reversed single #
loop $-1 $-1 $163 $69 #
plane-surface $-1 15.216955038604649 -109.16638407774693 79.097168676312435 -1 0 0 0 -0.71933980857756763 0.69465836192734942 forward_v I I I I #
face $-1 $164 $165 $55 $-1 $166 forward single #
loop $-1 $167 $168 $70 #
cone-surface $-1 8.4696804912464074 -22.674999175543508 5.5566830494093047 0 0.71933980857756763 -0.69465836192734942 1 0 0 1 I I 0 1 1 forward I I I I #
face $-1 $169 $170 $56 $-1 $171 forward single #
loop $-1 $172 $173 $71 #
cone-surface $-1 12.51804521966136 -22.674999175543508 5.5566830494093047 0 0.71933980857756763 -0.69465836192734942 1 0 0 1 I I 0 1 1 forward I I I I #
face $-1 $174 $175 $57 $-1 $176 reversed single #
loop $-1 $-1 $177 $72 #
plane-surface $-1 36.20468074951242 -109.16638407774693 79.097168676312435 -1 0 0 0 -0.71933980857756763 0.69465836192734942 forward_v I I I I #
face $-1 $178 $179 $58 $-1 $180 forward single #
loop $-1 $181 $182 $73 #
cone-surface $-1 29.457406202154175 -22.674999175543508 5.5566830494093047 0 0.71933980857756763 -0.69465836192734942 1 0 0 1 I I 0 1 1 forward I I I I #
face $-1 $183 $184 $59 $-1 $185 forward single #
loop $-1 $186 $187 $74 #
cone-surface $-1 33.505770930569128 -22.674999175543508 5.5566830494093047 0 0.71933980857756763 -0.69465836192734942 1 0 0 1 I I 0 1 1 forward I I I I #
face $-1 $188 $189 $45 $-1 $190 reversed single #
loop $-1 $-1 $191 $75 #
plane-surface $-1 0 0 -11.548760480261286 0 0 1 1 0 0 forward_v I I I I #
coedge $-1 $192 $193 $194 $195 forward $76 $-1 #
face $-1 $196 $197 $46 $-1 $198 reversed single #
loop $-1 $-1 $199 $78 #
plane-surface $-1 0 0 11.548760480261286 0 0 1 1 0 0 forward_v I I I I #
coedge $-1 $200 $201 $202 $203 forward $79 $-1 #
face $-1 $204 $205 $47 $-1 $206 reversed single #
loop $-1 $-1 $207 $81 #
plane-surface $-1 0 -28.519186568345646 0 0 1 0 0 0 1 forward_v I I I I #
coedge $-1 $208 $209 $210 $211 forward $82 $-1 #
face $-1 $212 $213 $48 $-1 $214 reversed single #
loop $-1 $-1 $215 $84 #
plane-surface $-1 -31.481588566361641 -28.519186568345631 1.2170771703365801 0 -0.71933980857756763 0.69465836192734942 1 0 0 forward_v I I I I #
coedge $-1 $216 $217 $218 $219 reversed $85 $-1 #
face $-1 $-1 $220 $49 $-1 $221 forward single #
loop $-1 $222 $223 $87 #
cone-surface $-1 -33.505770930569113 -21.45973705867506 4.383118092555998 0 0.71933980857756763 -0.69465836192734942 0.5 0 0 1 I I -0.70710678118654746 0.70710678118654746 0.5 forward I I I I #
loop $-1 $-1 $224 $64 #
coedge $-1 $140 $140 $225 $226 reversed $88 $-1 #
face $-1 $-1 $227 $50 $-1 $228 forward single #
loop $-1 $229 $230 $90 #
cone-surface $-1 -29.457406202154164 -21.45973705867506 4.383118092555998 0 0.71933980857756763 -0.69465836192734942 0.5 0 0 1 I I -0.70710678118654746 0.70710678118654746 0.5 forward I I I I #
loop $-1 $-1 $231 $65 #
coedge $-1 $145 $145 $232 $233 reversed $91 $-1 #
face $-1 $234 $235 $51 $-1 $236 reversed single #
loop $-1 $-1 $237 $93 #
plane-surface $-1 -10.493862855453884 -28.519186568345631 1.2170771703365801 0 -0.71933980857756763 0.69465836192734942 1 0 0 forward_v I I I I #
coedge $-1 $238 $239 $240 $241 reversed $94 $-1 #
face $-1 $-1 $242 $52 $-1 $243 forward single #
loop $-1 $244 $245 $96 #
cone-surface $-1 -12.51804521966136 -21.45973705867506 4.383118092555998 0 0.71933980857756763 -0.69465836192734942 0.5 0 0 1 I I -0.70710678118654746 0.70710678118654746 0.5 forward I I I I #
loop $-1 $-1 $246 $67 #
coedge $-1 $154 $154 $247 $248 reversed $97 $-1 #
face $-1 $-1 $249 $53 $-1 $250 forward single #
loop $-1 $251 $252 $99 #
cone-surface $-1 -8.4696804912464074 -21.45973705867506 4.383118092555998 0 0.71933980857756763 -0.69465836192734942 0.5 0 0 1 I I -0.70710678118654746 0.70710678118654746 0.5 forward I I I I #
loop $-1 $-1 $253 $68 #
coedge $-1 $159 $159 $254 $255 reversed $100 $-1 #
face $-1 $256 $257 $54 $-1 $258 reversed single #
loop $-1 $-1 $259 $102 #
plane-surface $-1 10.49386285545387 -28.519186568345631 1.2170771703365801 0 -0.71933980857756763 0.69465836192734942 1 0 0 forward_v I I I I #
coedge $-1 $260 $261 $262 $263 reversed $103 $-1 #
face $-1 $-1 $264 $55 $-1 $265 forward single #
loop $-1 $266 $267 $105 #
cone-surface $-1 8.4696804912464074 -21.45973705867506 4.383118092555998 0 0.71933980857756763 -0.69465836192734942 0.5 0 0 1 I I -0.70710678118654746 0.70710678118654746 0.5 forward I I I I #
loop $-1 $-1 $268 $70 #
coedge $-1 $168 $168 $269 $270 reversed $106 $-1 #
face $-1 $-1 $271 $56 $-1 $272 forward single #
loop $-1 $273 $274 $108 #
cone-surface $-1 12.51804521966136 -21.45973705867506 4.383118092555998 0 0.71933980857756763 -0.69465836192734942 0.5 0 0 1 I I -0.70710678118654746 0.70710678118654746 0.5 forward I I I I #
loop $-1 $-1 $275 $71 #
coedge $-1 $173 $173 $276 $277 reversed $109 $-1 #
face $-1 $278 $279 $57 $-1 $280 reversed single #
loop $-1 $-1 $281 $111 #
plane-surface $-1 31.481588566361637 -28.519186568345631 1.2170771703365801 0 -0.71933980857756763 0.69465836192734942 1 0 0 forward_v I I I I #
coedge $-1 $282 $283 $284 $285 reversed $112 $-1 #
face $-1 $-1 $286 $58 $-1 $287 forward single #
loop $-1 $288 $289 $114 #
cone-surface $-1 29.457406202154175 -21.45973705867506 4.383118092555998 0 0.71933980857756763 -0.69465836192734942 0.5 0 0 1 I I -0.70710678118654746 0.70710678118654746 0.5 forward I I I I #
loop $-1 $-1 $290 $73 #
coedge $-1 $182 $182 $291 $292 reversed $115 $-1 #
face $-1 $-1 $293 $59 $-1 $294 forward single #
loop $-1 $295 $296 $117 #
cone-surface $-1 33.505770930569128 -21.45973705867506 4.383118092555998 0 0.71933980857756763 -0.69465836192734942 0.5 0 0 1 I I -0.70710678118654746 0.70710678118654746 0.5 forward I I I I #
loop $-1 $-1 $297 $74 #
coedge $-1 $187 $187 $298 $299 reversed $118 $-1 #
face $-1 $300 $301 $45 $-1 $302 reversed single #
loop $-1 $-1 $303 $120 #
plane-surface $-1 0 -28.519186568345646 0 0 1 0 0 0 1 forward_v I I I I #
coedge $-1 $304 $305 $306 $307 forward $121 $-1 #
coedge $-1 $308 $123 $309 $310 forward $76 $-1 #
coedge $-1 $123 $308 $311 $312 forward $76 $-1 #
coedge $-1 $313 $314 $123 $195 reversed $315 $-1 #
edge $-1 $316 -28.519186568345646 $317 28.519186568345646 $194 $318 forward 7 unknown #
face $-1 $319 $320 $46 $-1 $321 reversed single #
loop $-1 $-1 $322 $124 #
plane-surface $-1 -68.271615247781526 -27.019186568345646 0 1 0 0 0 0 -1 forward_v I I I I #
coedge $-1 $323 $324 $200 $325 forward $125 $-1 #
coedge $-1 $326 $127 $199 $325 reversed $79 $-1 #
coedge $-1 $127 $326 $327 $328 reversed $79 $-1 #
coedge $-1 $329 $330 $127 $203 reversed $320 $-1 #
edge $-1 $331 -11.548760480261286 $332 11.548760480261286 $202 $333 forward 7 unknown #
face $-1 $334 $335 $47 $-1 $336 reversed single #
loop $-1 $-1 $337 $128 #
plane-surface $-1 0 0 -11.548760480261286 0 0 1 1 0 0 forward_v I I I I #
coedge $-1 $338 $339 $340 $341 forward $129 $-1 #
coedge $-1 $340 $131 $337 $342 reversed $82 $-1 #
coedge $-1 $131 $340 $343 $344 reversed $82 $-1 #
coedge $-1 $345 $346 $131 $211 reversed $335 $-1 #
edge $-1 $347 -11.548760480261286 $348 11.548760480261286 $210 $349 forward 7 unknown #
face $-1 $350 $351 $48 $-1 $352 forward single #
loop $-1 $-1 $353 $132 #
plane-surface $-1 -36.20468074951242 -109.16638407774693 79.097168676312435 1 0 0 0 0.71933980857756763 -0.69465836192734942 forward_v I I I I #
coedge $-1 $354 $355 $356 $357 reversed $133 $-1 #
coedge $-1 $217 $135 $358 $359 reversed $85 $-1 #
coedge $-1 $135 $216 $354 $360 reversed $85 $-1 #
coedge $-1 $356 $361 $135 $219 forward $351 $-1 #
edge $-1 $362 26.064005470527817 $363 36.041195830972796 $218 $364 forward 7 unknown #
loop $-1 $-1 $225 $136 #
plane-surface $-1 -31.481588566361641 -28.519186568345631 1.2170771703365801 0 -0.71933980857756763 0.69465836192734942 1 0 0 forward_v I I I I #
loop $-1 $-1 $365 $87 #
coedge $-1 $223 $223 $224 $366 reversed $137 $-1 #
coedge $-1 $224 $224 $223 $366 forward $139 $-1 #
coedge $-1 $225 $225 $140 $226 forward $220 $-1 #
edge $-1 $367 2.630583393804449e-016 $367 6.2831853071796004 $225 $368 forward 7 unknown #
loop $-1 $-1 $232 $141 #
plane-surface $-1 -31.481588566361641 -28.519186568345631 1.2170771703365801 0 -0.71933980857756763 0.69465836192734942 1 0 0 forward_v I I I I #
loop $-1 $-1 $369 $90 #
coedge $-1 $230 $230 $231 $370 reversed $142 $-1 #
coedge $-1 $231 $231 $230 $370 forward $144 $-1 #
coedge $-1 $232 $232 $145 $233 forward $227 $-1 #
edge $-1 $371 2.630583393804449e-016 $371 6.2831853071796004 $232 $372 forward 7 unknown #
face $-1 $373 $374 $51 $-1 $375 reversed single #
loop $-1 $-1 $376 $146 #
plane-surface $-1 -15.216955038604663 -109.16638407774693 79.097168676312435 1 0 0 0 0.71933980857756763 -0.69465836192734942 forward_v I I I I #
coedge $-1 $377 $378 $379 $380 reversed $147 $-1 #
coedge $-1 $239 $149 $381 $382 reversed $94 $-1 #
coedge $-1 $149 $238 $377 $383 reversed $94 $-1 #
coedge $-1 $379 $384 $149 $241 forward $385 $-1 #
edge $-1 $386 26.064005470527817 $387 36.041195830972796 $240 $388 forward 7 unknown #
loop $-1 $-1 $247 $150 #
plane-surface $-1 -10.493862855453884 -28.519186568345631 1.2170771703365801 0 -0.71933980857756763 0.69465836192734942 1 0 0 forward_v I I I I #
loop $-1 $-1 $389 $96 #
coedge $-1 $245 $245 $246 $390 reversed $151 $-1 #
coedge $-1 $246 $246 $245 $390 forward $153 $-1 #
coedge $-1 $247 $247 $154 $248 forward $242 $-1 #
edge $-1 $391 2.630583393804449e-016 $391 6.2831853071796004 $247 $392 forward 7 unknown #
loop $-1 $-1 $254 $155 #
plane-surface $-1 -10.493862855453884 -28.519186568345631 1.2170771703365801 0 -0.71933980857756763 0.69465836192734942 1 0 0 forward_v I I I I #
loop $-1 $-1 $393 $99 #
coedge $-1 $252 $252 $253 $394 reversed $156 $-1 #
coedge $-1 $253 $253 $252 $394 forward $158 $-1 #
coedge $-1 $254 $254 $159 $255 forward $249 $-1 #
edge $-1 $395 2.630583393804449e-016 $395 6.2831853071796004 $254 $396 forward 7 unknown #
face $-1 $397 $398 $54 $-1 $399 reversed single #
loop $-1 $-1 $400 $160 #
plane-surface $-1 5.7707706723030903 -109.16638407774693 79.097168676312435 1 0 0 0 0.71933980857756763 -0.69465836192734942 forward_v I I I I #
coedge $-1 $401 $402 $403 $404 reversed $161 $-1 #
coedge $-1 $261 $163 $405 $406 reversed $103 $-1 #
coedge $-1 $163 $260 $401 $407 reversed $103 $-1 #
coedge $-1 $403 $408 $163 $263 forward $409 $-1 #
edge $-1 $410 26.064005470527817 $411 36.041195830972796 $262 $412 forward 7 unknown #
loop $-1 $-1 $269 $164 #
plane-surface $-1 10.49386285545387 -28.519186568345631 1.2170771703365801 0 -0.71933980857756763 0.69465836192734942 1 0 0 forward_v I I I I #
loop $-1 $-1 $413 $105 #
coedge $-1 $267 $267 $268 $414 reversed $165 $-1 #
coedge $-1 $268 $268 $267 $414 forward $167 $-1 #
coedge $-1 $269 $269 $168 $270 forward $264 $-1 #
edge $-1 $415 2.630583393804449e-016 $415 6.2831853071796004 $269 $416 forward 7 unknown #
loop $-1 $-1 $276 $169 #
plane-surface $-1 10.49386285545387 -28.519186568345631 1.2170771703365801 0 -0.71933980857756763 0.69465836192734942 1 0 0 forward_v I I I I #
loop $-1 $-1 $417 $108 #
coedge $-1 $274 $274 $275 $418 reversed $170 $-1 #
coedge $-1 $275 $275 $274 $418 forward $172 $-1 #
coedge $-1 $276 $276 $173 $277 forward $271 $-1 #
edge $-1 $419 2.630583393804449e-016 $419 6.2831853071796004 $276 $420 forward 7 unknown #
face $-1 $421 $422 $57 $-1 $423 reversed single #
loop $-1 $-1 $424 $174 #
plane-surface $-1 26.758496383210858 -109.16638407774693 79.097168676312435 1 0 0 0 0.71933980857756763 -0.69465836192734942 forward_v I I I I #
coedge $-1 $425 $426 $427 $428 reversed $175 $-1 #
coedge $-1 $283 $177 $429 $430 reversed $112 $-1 #
coedge $-1 $177 $282 $425 $431 reversed $112 $-1 #
coedge $-1 $427 $432 $177 $285 forward $433 $-1 #
edge $-1 $434 26.064005470527817 $435 36.041195830972796 $284 $436 forward 7 unknown #
loop $-1 $-1 $291 $178 #
plane-surface $-1 31.481588566361637 -28.519186568345631 1.2170771703365801 0 -0.71933980857756763 0.69465836192734942 1 0 0 forward_v I I I I #
loop $-1 $-1 $437 $114 #
coedge $-1 $289 $289 $290 $438 reversed $179 $-1 #
coedge $-1 $290 $290 $289 $438 forward $181 $-1 #
coedge $-1 $291 $291 $182 $292 forward $286 $-1 #
edge $-1 $439 2.630583393804449e-016 $439 6.2831853071796004 $291 $440 forward 7 unknown #
loop $-1 $-1 $298 $183 #
plane-surface $-1 31.481588566361637 -28.519186568345631 1.2170771703365801 0 -0.71933980857756763 0.69465836192734942 1 0 0 forward_v I I I I #
loop $-1 $-1 $441 $117 #
coedge $-1 $296 $296 $297 $442 reversed $184 $-1 #
coedge $-1 $297 $297 $296 $442 forward $186 $-1 #
coedge $-1 $298 $298 $187 $299 forward $293 $-1 #
edge $-1 $443 2.630583393804449e-016 $443 6.2831853071796004 $298 $444 forward 7 unknown #
face $-1 $445 $446 $45 $-1 $447 reversed single #
loop $-1 $-1 $448 $188 #
plane-surface $-1 -56.056398205511641 0 0 1 0 0 0 0 -1 forward_v I I I I #
coedge $-1 $449 $311 $450 $451 forward $189 $-1 #
coedge $-1 $452 $191 $449 $453 forward $121 $-1 #
coedge $-1 $191 $452 $454 $455 forward $121 $-1 #
coedge $-1 $314 $313 $191 $307 reversed $315 $-1 #
edge $-1 $456 -28.519186568345646 $457 28.519186568345646 $306 $458 forward 7 unknown #
coedge $-1 $193 $192 $459 $460 forward $76 $-1 #
coedge $-1 $461 $462 $192 $310 reversed $446 $-1 #
edge $-1 $317 -56.056398205511641 $463 56.056398205511641 $309 $464 forward 7 unknown #
coedge $-1 $303 $465 $193 $312 reversed $189 $-1 #
edge $-1 $466 -56.056398205511641 $316 56.056398205511641 $311 $467 forward 7 unknown #
coedge $-1 $306 $194 $465 $468 forward $315 $-1 #
coedge $-1 $194 $306 $461 $469 reversed $315 $-1 #
loop $-1 $-1 $313 $445 #
vertex $-1 $195 $470 #
vertex $-1 $195 $471 #
straight-curve $-1 56.056398205511641 0 11.548760480261286 0 1 0 I I #
face $-1 $472 $473 $46 $-1 $474 reversed single #
loop $-1 $-1 $202 $196 #
plane-surface $-1 -62.164006726646583 -25.519186568345646 0 0 -1 0 0 0 -1 forward_v I I I I #
coedge $-1 $475 $476 $477 $478 forward $197 $-1 #
coedge $-1 $479 $199 $330 $480 forward $125 $-1 #
coedge $-1 $199 $479 $481 $482 forward $125 $-1 #
edge $-1 $483 -28.519186568345646 $332 -25.519186568345646 $199 $484 forward 7 unknown #
coedge $-1 $201 $200 $485 $486 reversed $79 $-1 #
coedge $-1 $487 $488 $201 $328 forward $473 $-1 #
edge $-1 $331 25.519186568345646 $489 28.519186568345646 $327 $490 forward 7 unknown #
coedge $-1 $477 $202 $488 $491 reversed $320 $-1 #
coedge $-1 $202 $477 $323 $480 reversed $320 $-1 #
vertex $-1 $328 $492 #
vertex $-1 $480 $493 #
straight-curve $-1 -56.056398205511641 -25.519186568345646 0 0 0 1 I I #
face $-1 $494 $495 $47 $-1 $496 reversed single #
loop $-1 $-1 $497 $204 #
plane-surface $-1 62.164006726646591 -25.519186568345646 0 0 -1 0 0 0 -1 forward_v I I I I #
coedge $-1 $498 $499 $208 $342 forward $205 $-1 #
coedge $-1 $500 $207 $499 $501 reversed $129 $-1 #
coedge $-1 $207 $500 $502 $503 reversed $129 $-1 #
coedge $-1 $209 $208 $207 $341 reversed $82 $-1 #
edge $-1 $504 -11.548760480261286 $505 11.548760480261286 $207 $506 forward 7 unknown #
edge $-1 $505 -28.519186568345646 $348 -25.519186568345646 $337 $507 forward 7 unknown #
coedge $-1 $502 $508 $209 $344 forward $509 $-1 #
edge $-1 $347 25.519186568345646 $504 28.519186568345646 $343 $510 forward 7 unknown #
coedge $-1 $497 $210 $508 $511 reversed $335 $-1 #
coedge $-1 $210 $497 $498 $512 reversed $335 $-1 #
vertex $-1 $344 $513 #
vertex $-1 $512 $514 #
straight-curve $-1 56.056398205511641 -25.519186568345646 0 0 0 -1 I I #
face $-1 $-1 $515 $48 $-1 $516 reversed single #
loop $-1 $-1 $218 $212 #
plane-surface $-1 0 0 11.548760480261286 0 0 1 1 0 0 forward_v I I I I #
coedge $-1 $517 $518 $519 $520 reversed $213 $-1 #
coedge $-1 $521 $215 $217 $360 forward $133 $-1 #
coedge $-1 $215 $521 $517 $522 forward $133 $-1 #
coedge $-1 $519 $218 $215 $357 forward $351 $-1 #
edge $-1 $363 11.017702100030041 $523 20.463886466331601 $356 $524 forward 7 unknown #
coedge $-1 $525 $526 $216 $359 forward $515 $-1 #
edge $-1 $527 -38.331507167819652 $362 -27.999823857894931 $358 $528 forward 7 unknown #
edge $-1 $363 -14.362729806869329 $527 2.0413573615811715e-014 $217 $529 forward 7 unknown #
coedge $-1 $218 $519 $525 $530 forward $351 $-1 #
vertex $-1 $219 $531 #
vertex $-1 $219 $532 #
straight-curve $-1 -26.758496383210861 -54.583192038873463 11.548760480261286 0 1 0 I I #
coedge $-1 $365 $365 $-1 $533 reversed $222 $-1 #
edge $-1 $534 0 $534 6.2831853071796004 $223 $535 forward 7 unknown #
vertex $-1 $226 $536 #
ellipse-curve $-1 -33.505770930569113 -23.53059138812316 6.3829188252989244 0 -0.71933980857756763 0.69465836192734942 1 0 0 1 I I #
coedge $-1 $369 $369 $-1 $537 reversed $229 $-1 #
edge $-1 $538 0 $538 6.2831853071796004 $230 $539 forward 7 unknown #
vertex $-1 $233 $540 #
ellipse-curve $-1 -29.457406202154164 -23.53059138812316 6.3829188252989244 0 -0.71933980857756763 0.69465836192734942 1 0 0 1 I I #
face $-1 $-1 $385 $51 $-1 $541 forward single #
loop $-1 $-1 $542 $234 #
plane-surface $-1 0 -28.519186568345646 0 0 1 0 0 0 1 forward_v I I I I #
coedge $-1 $543 $544 $545 $546 reversed $235 $-1 #
coedge $-1 $547 $237 $239 $383 forward $147 $-1 #
coedge $-1 $237 $547 $543 $548 forward $147 $-1 #
coedge $-1 $545 $240 $237 $380 forward $385 $-1 #
edge $-1 $387 0.5238392445761626 $549 9.9700236108777212 $379 $550 forward 7 unknown #
coedge $-1 $551 $552 $238 $382 forward $374 $-1 #
edge $-1 $553 -38.331507167819652 $386 -27.999823857894931 $381 $554 forward 7 unknown #
edge $-1 $387 -14.362729806869329 $553 2.0413573615811715e-014 $239 $555 forward 7 unknown #
coedge $-1 $240 $545 $551 $556 forward $385 $-1 #
loop $-1 $-1 $545 $373 #
vertex $-1 $382 $557 #
vertex $-1 $241 $558 #
straight-curve $-1 -5.7707706723031045 -54.583192038873463 11.548760480261286 0 1 0 I I #
coedge $-1 $389 $389 $-1 $559 reversed $244 $-1 #
edge $-1 $560 0 $560 6.2831853071796004 $245 $561 forward 7 unknown #
vertex $-1 $248 $562 #
ellipse-curve $-1 -12.51804521966136 -23.53059138812316 6.3829188252989244 0 -0.71933980857756763 0.69465836192734942 1 0 0 1 I I #
coedge $-1 $393 $393 $-1 $563 reversed $251 $-1 #
edge $-1 $564 0 $564 6.2831853071796004 $252 $565 forward 7 unknown #
vertex $-1 $255 $566 #
ellipse-curve $-1 -8.4696804912464074 -23.53059138812316 6.3829188252989244 0 -0.71933980857756763 0.69465836192734942 1 0 0 1 I I #
face $-1 $-1 $409 $54 $-1 $567 forward single #
loop $-1 $-1 $568 $256 #
plane-surface $-1 0 -28.519186568345646 0 0 1 0 0 0 1 forward_v I I I I #
coedge $-1 $569 $570 $571 $572 reversed $257 $-1 #
coedge $-1 $573 $259 $261 $407 forward $161 $-1 #
coedge $-1 $259 $573 $569 $574 forward $161 $-1 #
coedge $-1 $571 $262 $259 $404 forward $409 $-1 #
edge $-1 $411 -9.970023610877714 $575 -0.52383924457615549 $403 $576 forward 7 unknown #
coedge $-1 $577 $578 $260 $406 forward $398 $-1 #
edge $-1 $579 -38.331507167819652 $410 -27.999823857894931 $405 $580 forward 7 unknown #
edge $-1 $411 -14.362729806869329 $579 2.0413573615811715e-014 $261 $581 forward 7 unknown #
coedge $-1 $262 $571 $577 $582 forward $409 $-1 #
loop $-1 $-1 $571 $397 #
vertex $-1 $406 $583 #
vertex $-1 $263 $584 #
straight-curve $-1 15.216955038604649 -54.583192038873463 11.548760480261286 0 1 0 I I #
coedge $-1 $413 $413 $-1 $585 reversed $266 $-1 #
edge $-1 $586 0 $586 6.2831853071796004 $267 $587 forward 7 unknown #
vertex $-1 $270 $588 #
ellipse-curve $-1 8.4696804912464074 -23.53059138812316 6.3829188252989244 0 -0.71933980857756763 0.69465836192734942 1 0 0 1 I I #
coedge $-1 $417 $417 $-1 $589 reversed $273 $-1 #
edge $-1 $590 0 $590 6.2831853071796004 $274 $591 forward 7 unknown #
vertex $-1 $277 $592 #
ellipse-curve $-1 12.51804521966136 -23.53059138812316 6.3829188252989244 0 -0.71933980857756763 0.69465836192734942 1 0 0 1 I I #
face $-1 $-1 $433 $57 $-1 $593 forward single #
loop $-1 $-1 $594 $278 #
plane-surface $-1 0 -28.519186568345646 0 0 1 0 0 0 1 forward_v I I I I #
coedge $-1 $595 $596 $597 $598 reversed $279 $-1 #
coedge $-1 $599 $281 $283 $431 forward $175 $-1 #
coedge $-1 $281 $599 $595 $600 forward $175 $-1 #
coedge $-1 $597 $284 $281 $428 forward $433 $-1 #
edge $-1 $435 -20.463886466331601 $601 -11.017702100030039 $427 $602 forward 7 unknown #
coedge $-1 $603 $604 $282 $430 forward $422 $-1 #
edge $-1 $605 -38.331507167819652 $434 -27.999823857894931 $429 $606 forward 7 unknown #
edge $-1 $435 -14.362729806869329 $605 2.0413573615811715e-014 $283 $607 forward 7 unknown #
coedge $-1 $284 $597 $603 $608 forward $433 $-1 #
loop $-1 $-1 $597 $421 #
vertex $-1 $430 $609 #
vertex $-1 $285 $610 #
straight-curve $-1 36.20468074951242 -54.583192038873463 11.548760480261286 0 1 0 I I #
coedge $-1 $437 $437 $-1 $611 reversed $288 $-1 #
edge $-1 $612 0 $612 6.2831853071796004 $289 $613 forward 7 unknown #
vertex $-1 $292 $614 #
ellipse-curve $-1 29.457406202154175 -23.53059138812316 6.3829188252989244 0 -0.71933980857756763 0.69465836192734942 1 0 0 1 I I #
coedge $-1 $441 $441 $-1 $615 reversed $295 $-1 #
edge $-1 $616 0 $616 6.2831853071796004 $296 $617 forward 7 unknown #
vertex $-1 $299 $618 #
ellipse-curve $-1 33.505770930569128 -23.53059138812316 6.3829188252989244 0 -0.71933980857756763 0.69465836192734942 1 0 0 1 I I #
face $-1 $-1 $315 $45 $-1 $619 reversed single #
loop $-1 $-1 $461 $300 #
plane-surface $-1 0 28.519186568345646 0 0 -1 0 0 0 -1 forward_v I I I I #
coedge $-1 $620 $459 $462 $621 forward $301 $-1 #
coedge $-1 $465 $303 $304 $453 reversed $189 $-1 #
coedge $-1 $459 $620 $303 $451 reversed $301 $-1 #
edge $-1 $466 -11.548760480261286 $622 11.548760480261286 $450 $623 forward 7 unknown #
coedge $-1 $305 $304 $620 $624 forward $121 $-1 #
edge $-1 $457 -56.056398205511641 $622 56.056398205511641 $449 $625 forward 7 unknown #
coedge $-1 $462 $461 $305 $455 reversed $446 $-1 #
edge $-1 $626 -56.056398205511641 $456 56.056398205511641 $454 $627 forward 7 unknown #
vertex $-1 $307 $628 #
vertex $-1 $468 $629 #
straight-curve $-1 56.056398205511641 0 -11.548760480261286 0 -1 0 I I #
coedge $-1 $448 $450 $308 $460 reversed $301 $-1 #
edge $-1 $463 -28.519186568345646 $466 28.519186568345646 $459 $630 forward 7 unknown #
coedge $-1 $454 $309 $314 $469 forward $446 $-1 #
coedge $-1 $309 $454 $448 $621 reversed $446 $-1 #
vertex $-1 $310 $631 #
straight-curve $-1 0 28.519186568345646 11.548760480261286 -1 0 0 I I #
coedge $-1 $311 $449 $313 $468 reversed $189 $-1 #
vertex $-1 $460 $632 #
straight-curve $-1 0 -28.519186568345646 11.548760480261286 1 0 0 I I #
edge $-1 $316 -11.548760480261286 $457 11.548760480261286 $313 $633 forward 7 unknown #
edge $-1 $317 -11.548760480261286 $456 11.548760480261286 $314 $634 forward 7 unknown #
point $-1 56.056398205511641 -28.519186568345646 11.548760480261286 #
point $-1 56.056398205511641 28.519186568345646 11.548760480261286 #
face $-1 $-1 $635 $46 $-1 $636 reversed single #
loop $-1 $-1 $327 $319 #
plane-surface $-1 0 0 -11.548760480261286 0 0 1 1 0 0 forward_v I I I I #
coedge $-1 $637 $322 $638 $639 reversed $197 $-1 #
coedge $-1 $322 $637 $479 $640 reversed $197 $-1 #
coedge $-1 $330 $329 $322 $478 reversed $320 $-1 #
edge $-1 $641 -11.548760480261286 $642 11.548760480261286 $477 $643 forward 7 unknown #
coedge $-1 $324 $323 $476 $640 forward $125 $-1 #
edge $-1 $332 -6.1076085211349422 $641 6.1076085211349422 $330 $644 forward 7 unknown #
coedge $-1 $645 $485 $324 $482 reversed $635 $-1 #
edge $-1 $646 -68.271615247781526 $483 -56.056398205511641 $481 $647 forward 7 unknown #
vertex $-1 $486 $648 #
straight-curve $-1 -56.056398205511641 0 11.548760480261286 0 1 0 I I #
coedge $-1 $481 $649 $326 $486 forward $635 $-1 #
edge $-1 $489 -11.548760480261286 $483 11.548760480261286 $485 $650 forward 7 unknown #
coedge $-1 $638 $327 $649 $651 forward $473 $-1 #
coedge $-1 $327 $638 $329 $491 forward $473 $-1 #
vertex $-1 $651 $652 #
straight-curve $-1 -56.056398205511641 0 -11.548760480261286 0 -1 0 I I #
edge $-1 $642 -6.1076085211349422 $331 6.1076085211349422 $329 $653 forward 7 unknown #
point $-1 -56.056398205511641 -25.519186568345646 -11.548760480261286 #
point $-1 -56.056398205511641 -25.519186568345646 11.548760480261286 #
face $-1 $-1 $509 $47 $-1 $654 forward single #
loop $-1 $-1 $655 $334 #
plane-surface $-1 68.27161524778154 -27.019186568345646 0 -1 0 0 0 0 1 forward_v I I I I #
coedge $-1 $346 $345 $656 $657 forward $335 $-1 #
coedge $-1 $658 $337 $346 $512 forward $205 $-1 #
coedge $-1 $337 $658 $338 $501 forward $205 $-1 #
coedge $-1 $339 $338 $655 $659 reversed $129 $-1 #
edge $-1 $660 -6.1076085211349493 $505 6.1076085211349493 $338 $661 forward 7 unknown #
coedge $-1 $662 $343 $339 $503 forward $509 $-1 #
edge $-1 $504 -6.1076085211349493 $663 6.1076085211349493 $339 $664 forward 7 unknown #
vertex $-1 $503 $665 #
vertex $-1 $342 $666 #
straight-curve $-1 56.056398205511641 -28.519186568345646 0 0 0 -1 I I #
straight-curve $-1 56.056398205511641 0 -11.548760480261286 0 1 0 I I #
coedge $-1 $343 $662 $345 $511 forward $509 $-1 #
loop $-1 $-1 $343 $494 #
straight-curve $-1 56.056398205511641 0 11.548760480261286 0 -1 0 I I #
edge $-1 $667 -6.1076085211349493 $347 6.1076085211349422 $345 $668 forward 7 unknown #
edge $-1 $348 -6.1076085211349422 $669 6.1076085211349493 $346 $670 forward 7 unknown #
point $-1 56.056398205511648 -25.519186568345646 11.548760480261286 #
point $-1 56.056398205511648 -25.519186568345646 -11.548760480261286 #
loop $-1 $-1 $358 $350 #
plane-surface $-1 0 -28.519186568345646 0 0 1 0 0 0 1 forward_v I I I I #
coedge $-1 $518 $353 $355 $522 reversed $213 $-1 #
coedge $-1 $353 $517 $671 $672 reversed $213 $-1 #
coedge $-1 $361 $356 $353 $520 forward $351 $-1 #
edge $-1 $523 -36.041195830972796 $673 -26.064005470527817 $519 $674 forward 7 unknown #
coedge $-1 $355 $354 $526 $675 reversed $133 $-1 #
edge $-1 $676 -2.0413573615811715e-014 $523 14.362729806869329 $517 $677 forward 7 unknown #
vertex $-1 $357 $678 #
straight-curve $-1 -15.74079428318082 -18.54199620790067 11.548760480261286 -1 0 0 I I #
coedge $-1 $671 $358 $361 $530 reversed $515 $-1 #
coedge $-1 $358 $671 $521 $675 forward $515 $-1 #
vertex $-1 $359 $679 #
straight-curve $-1 -26.758496383210861 -28.519186568345646 39.548584338156218 0 0 1 I I #
straight-curve $-1 -26.758496383210861 -28.519186568345631 1.2170771703365801 0 -0.69465836192734942 -0.71933980857756763 I I #
edge $-1 $673 -98.36868747615901 $362 -88.922503109857445 $525 $680 forward 7 unknown #
point $-1 -26.758496383210854 -28.519186568345646 11.548760480261286 #
point $-1 -26.758496383210861 -18.541996207900667 11.548760480261286 #
edge $-1 $681 1 $681 0 $365 $-1 forward 7 unknown #
vertex $-1 $366 $682 #
ellipse-curve $-1 -33.505770930569113 -21.819406962963843 4.7304472735196725 0 -0.71933980857756763 0.69465836192734942 1 0 0 1 I I #
point $-1 -32.505770930569113 -23.53059138812317 6.3829188252989351 #
edge $-1 $683 1 $683 0 $369 $-1 forward 7 unknown #
vertex $-1 $370 $684 #
ellipse-curve $-1 -29.457406202154164 -21.819406962963843 4.7304472735196725 0 -0.71933980857756763 0.69465836192734942 1 0 0 1 I I #
point $-1 -28.457406202154164 -23.53059138812317 6.3829188252989351 #
plane-surface $-1 0 0 11.548760480261286 0 0 1 1 0 0 forward_v I I I I #
coedge $-1 $552 $551 $544 $685 forward $374 $-1 #
coedge $-1 $544 $376 $378 $548 reversed $235 $-1 #
coedge $-1 $376 $543 $542 $685 reversed $235 $-1 #
coedge $-1 $384 $379 $376 $546 forward $385 $-1 #
edge $-1 $549 -36.041195830972796 $686 -26.064005470527817 $545 $687 forward 7 unknown #
coedge $-1 $378 $377 $552 $688 reversed $147 $-1 #
edge $-1 $689 -2.0413573615811715e-014 $549 14.362729806869329 $543 $690 forward 7 unknown #
vertex $-1 $380 $691 #
straight-curve $-1 -5.2469314277269419 -18.54199620790067 11.548760480261286 -1 0 0 I I #
coedge $-1 $542 $381 $384 $556 reversed $374 $-1 #
coedge $-1 $381 $542 $547 $688 forward $374 $-1 #
vertex $-1 $382 $692 #
straight-curve $-1 -5.7707706723031045 -28.519186568345646 39.548584338156218 0 0 1 I I #
straight-curve $-1 -5.7707706723031045 -28.519186568345631 1.2170771703365801 0 -0.69465836192734942 -0.71933980857756763 I I #
edge $-1 $686 -77.380961765251257 $386 -67.934777398949691 $551 $693 forward 7 unknown #
point $-1 -5.7707706723031009 -28.519186568345646 11.548760480261286 #
point $-1 -5.7707706723031045 -18.541996207900667 11.548760480261286 #
edge $-1 $694 1 $694 0 $389 $-1 forward 7 unknown #
vertex $-1 $390 $695 #
ellipse-curve $-1 -12.51804521966136 -21.819406962963843 4.7304472735196725 0 -0.71933980857756763 0.69465836192734942 1 0 0 1 I I #
point $-1 -11.51804521966136 -23.53059138812317 6.3829188252989351 #
edge $-1 $696 1 $696 0 $393 $-1 forward 7 unknown #
vertex $-1 $394 $697 #
ellipse-curve $-1 -8.4696804912464074 -21.819406962963843 4.7304472735196725 0 -0.71933980857756763 0.69465836192734942 1 0 0 1 I I #
point $-1 -7.4696804912464074 -23.53059138812317 6.3829188252989351 #
plane-surface $-1 0 0 11.548760480261286 0 0 1 1 0 0 forward_v I I I I #
coedge $-1 $578 $577 $570 $698 forward $398 $-1 #
coedge $-1 $570 $400 $402 $574 reversed $257 $-1 #
coedge $-1 $400 $569 $568 $698 reversed $257 $-1 #
coedge $-1 $408 $403 $400 $572 forward $409 $-1 #
edge $-1 $575 -36.041195830972796 $699 -26.064005470527817 $571 $700 forward 7 unknown #
coedge $-1 $402 $401 $578 $701 reversed $161 $-1 #
edge $-1 $702 -2.0413573615811715e-014 $575 14.362729806869329 $569 $703 forward 7 unknown #
vertex $-1 $404 $704 #
straight-curve $-1 5.2469314277269348 -18.54199620790067 11.548760480261286 -1 0 0 I I #
coedge $-1 $568 $405 $408 $582 reversed $398 $-1 #
coedge $-1 $405 $568 $573 $701 forward $398 $-1 #
vertex $-1 $406 $705 #
straight-curve $-1 15.216955038604649 -28.519186568345646 39.548584338156218 0 0 1 I I #
straight-curve $-1 15.216955038604649 -28.519186568345631 1.2170771703365801 0 -0.69465836192734942 -0.71933980857756763 I I #
edge $-1 $699 -56.393236054343504 $410 -46.947051688041938 $577 $706 forward 7 unknown #
point $-1 15.216955038604652 -28.519186568345646 11.548760480261286 #
point $-1 15.216955038604649 -18.541996207900667 11.548760480261286 #
edge $-1 $707 1 $707 0 $413 $-1 forward 7 unknown #
vertex $-1 $414 $708 #
ellipse-curve $-1 8.4696804912464074 -21.819406962963843 4.7304472735196725 0 -0.71933980857756763 0.69465836192734942 1 0 0 1 I I #
point $-1 9.4696804912464074 -23.53059138812317 6.3829188252989351 #
edge $-1 $709 1 $709 0 $417 $-1 forward 7 unknown #
vertex $-1 $418 $710 #
ellipse-curve $-1 12.51804521966136 -21.819406962963843 4.7304472735196725 0 -0.71933980857756763 0.69465836192734942 1 0 0 1 I I #
point $-1 13.51804521966136 -23.53059138812317 6.3829188252989351 #
plane-surface $-1 0 0 11.548760480261286 0 0 1 1 0 0 forward_v I I I I #
coedge $-1 $604 $603 $596 $711 forward $422 $-1 #
coedge $-1 $596 $424 $426 $600 reversed $279 $-1 #
coedge $-1 $424 $595 $594 $711 reversed $279 $-1 #
coedge $-1 $432 $427 $424 $598 forward $433 $-1 #
edge $-1 $601 -36.041195830972796 $712 -26.064005470527817 $597 $713 forward 7 unknown #
coedge $-1 $426 $425 $604 $714 reversed $175 $-1 #
edge $-1 $715 -2.0413573615811715e-014 $601 14.362729806869329 $595 $716 forward 7 unknown #
vertex $-1 $428 $717 #
straight-curve $-1 15.740794283180819 -18.54199620790067 11.548760480261286 -1 0 0 I I #
coedge $-1 $594 $429 $432 $608 reversed $422 $-1 #
coedge $-1 $429 $594 $599 $714 forward $422 $-1 #
vertex $-1 $430 $718 #
straight-curve $-1 36.20468074951242 -28.519186568345646 39.548584338156218 0 0 1 I I #
straight-curve $-1 36.20468074951242 -28.519186568345631 1.2170771703365801 0 -0.69465836192734942 -0.71933980857756763 I I #
edge $-1 $712 -35.405510343435736 $434 -25.959325977134171 $603 $719 forward 7 unknown #
point $-1 36.20468074951242 -28.519186568345646 11.548760480261286 #
point $-1 36.20468074951242 -18.541996207900667 11.548760480261286 #
edge $-1 $720 1 $720 0 $437 $-1 forward 7 unknown #
vertex $-1 $438 $721 #
ellipse-curve $-1 29.457406202154175 -21.819406962963843 4.7304472735196725 0 -0.71933980857756763 0.69465836192734942 1 0 0 1 I I #
point $-1 30.457406202154175 -23.53059138812317 6.3829188252989351 #
edge $-1 $722 1 $722 0 $441 $-1 forward 7 unknown #
vertex $-1 $442 $723 #
ellipse-curve $-1 33.505770930569128 -21.819406962963843 4.7304472735196725 0 -0.71933980857756763 0.69465836192734942 1 0 0 1 I I #
point $-1 34.505770930569128 -23.53059138812317 6.3829188252989351 #
plane-surface $-1 56.056398205511641 0 0 -1 0 0 0 0 1 forward_v I I I I #
coedge $-1 $450 $448 $452 $624 reversed $301 $-1 #
edge $-1 $463 -11.548760480261286 $626 11.548760480261286 $462 $724 forward 7 unknown #
vertex $-1 $624 $725 #
straight-curve $-1 -56.056398205511641 -28.519186568345646 0 0 0 -1 I I #
edge $-1 $622 -28.519186568345646 $626 28.519186568345646 $620 $726 forward 7 unknown #
straight-curve $-1 0 -28.519186568345646 -11.548760480261286 -1 0 0 I I #
vertex $-1 $455 $727 #
straight-curve $-1 0 28.519186568345646 -11.548760480261286 1 0 0 I I #
point $-1 56.056398205511641 28.519186568345646 -11.548760480261286 #
point $-1 56.056398205511641 -28.519186568345646 -11.548760480261286 #
straight-curve $-1 -56.056398205511641 0 11.548760480261286 0 -1 0 I I #
point $-1 -56.056398205511641 28.519186568345646 11.548760480261286 #
point $-1 -56.056398205511641 -28.519186568345646 11.548760480261286 #
straight-curve $-1 56.056398205511641 -28.519186568345646 0 0 0 -1 I I #
straight-curve $-1 56.056398205511641 28.519186568345646 0 0 0 -1 I I #
loop $-1 $-1 $485 $472 #
plane-surface $-1 0 -28.519186568345646 0 0 1 0 0 0 1 forward_v I I I I #
coedge $-1 $476 $475 $645 $728 reversed $197 $-1 #
coedge $-1 $488 $487 $475 $639 forward $473 $-1 #
edge $-1 $729 -1.5 $642 1.5 $475 $730 forward 7 unknown #
edge $-1 $641 -1.5 $646 1.5 $476 $731 forward 7 unknown #
vertex $-1 $480 $732 #
vertex $-1 $491 $733 #
straight-curve $-1 -68.271615247781526 -25.519186568345646 0 0 0 -1 I I #
straight-curve $-1 -62.164006726646583 -25.519186568345646 11.548760480261286 -1 0 0 I I #
coedge $-1 $649 $481 $637 $728 forward $635 $-1 #
vertex $-1 $640 $734 #
straight-curve $-1 0 -28.519186568345646 11.548760480261286 1 0 0 I I #
point $-1 -56.056398205511641 -28.519186568345646 11.548760480261286 #
coedge $-1 $485 $645 $487 $651 reversed $635 $-1 #
straight-curve $-1 -56.056398205511641 -28.519186568345646 0 0 0 1 I I #
edge $-1 $489 -6.1076085211349422 $729 6.1076085211349422 $649 $735 forward 7 unknown #
point $-1 -56.056398205511641 -28.519186568345646 -11.548760480261286 #
straight-curve $-1 -62.164006726646583 -25.519186568345646 -11.548760480261286 1 0 0 I I #
plane-surface $-1 0 0 11.548760480261286 0 0 1 1 0 0 forward_v I I I I #
coedge $-1 $736 $737 $500 $659 forward $495 $-1 #
coedge $-1 $737 $736 $497 $657 reversed $495 $-1 #
edge $-1 $667 -11.548760480261286 $669 11.548760480261286 $656 $738 forward 7 unknown #
coedge $-1 $499 $498 $736 $739 forward $205 $-1 #
edge $-1 $663 -11.548760480261286 $660 11.548760480261286 $655 $740 forward 7 unknown #
vertex $-1 $659 $741 #
straight-curve $-1 62.164006726646591 -28.519186568345646 -11.548760480261286 -1 0 0 I I #
coedge $-1 $508 $502 $737 $742 forward $509 $-1 #
vertex $-1 $742 $743 #
straight-curve $-1 62.164006726646591 -28.519186568345646 11.548760480261286 1 0 0 I I #
point $-1 56.056398205511641 -28.519186568345646 11.548760480261286 #
point $-1 56.056398205511641 -28.519186568345646 -11.548760480261286 #
vertex $-1 $742 $744 #
straight-curve $-1 62.164006726646591 -25.519186568345646 11.548760480261286 -1 0 0 I I #
vertex $-1 $739 $745 #
straight-curve $-1 62.164006726646591 -25.519186568345646 -11.548760480261286 1 0 0 I I #
coedge $-1 $526 $525 $518 $672 forward $515 $-1 #
edge $-1 $673 27.999823857894931 $676 38.331507167819652 $671 $746 forward 7 unknown #
vertex $-1 $530 $747 #
straight-curve $-1 -36.20468074951242 -54.583192038873463 11.548760480261286 0 -1 0 I I #
edge $-1 $676 -20.463886466331601 $527 -11.017702100030041 $526 $748 forward 7 unknown #
vertex $-1 $675 $749 #
straight-curve $-1 -36.20468074951242 -28.519186568345631 1.2170771703365801 0 0.69465836192734942 0.71933980857756763 I I #
point $-1 -36.20468074951242 -18.541996207900667 11.548760480261286 #
point $-1 -26.758496383210861 -28.519186568345646 1.2170771703365655 #
straight-curve $-1 62.164006726646591 -28.519186568345646 11.548760480261286 1 0 0 I I #
vertex $-1 $533 $750 #
point $-1 -32.505770930569113 -21.819406962963843 4.7304472735196725 #
vertex $-1 $537 $751 #
point $-1 -28.457406202154164 -21.819406962963843 4.7304472735196725 #
edge $-1 $686 27.999823857894931 $689 38.331507167819652 $542 $752 forward 7 unknown #
vertex $-1 $556 $753 #
straight-curve $-1 -15.216955038604663 -54.583192038873463 11.548760480261286 0 -1 0 I I #
edge $-1 $689 -9.9700236108777212 $553 -0.5238392445761626 $552 $754 forward 7 unknown #
vertex $-1 $688 $755 #
straight-curve $-1 -15.216955038604663 -28.519186568345631 1.2170771703365801 0 0.69465836192734942 0.71933980857756763 I I #
point $-1 -15.216955038604663 -18.541996207900667 11.548760480261286 #
point $-1 -5.7707706723031045 -28.519186568345646 1.2170771703365655 #
straight-curve $-1 62.164006726646591 -28.519186568345646 11.548760480261286 1 0 0 I I #
vertex $-1 $559 $756 #
point $-1 -11.51804521966136 -21.819406962963843 4.7304472735196725 #
vertex $-1 $563 $757 #
point $-1 -7.4696804912464074 -21.819406962963843 4.7304472735196725 #
edge $-1 $699 27.999823857894931 $702 38.331507167819652 $568 $758 forward 7 unknown #
vertex $-1 $582 $759 #
straight-curve $-1 5.7707706723030903 -54.583192038873463 11.548760480261286 0 -1 0 I I #
edge $-1 $702 0.52383924457615549 $579 9.970023610877714 $578 $760 forward 7 unknown #
vertex $-1 $701 $761 #
straight-curve $-1 5.7707706723030903 -28.519186568345631 1.2170771703365801 0 0.69465836192734942 0.71933980857756763 I I #
point $-1 5.7707706723030903 -18.541996207900667 11.548760480261286 #
point $-1 15.216955038604649 -28.519186568345646 1.2170771703365655 #
straight-curve $-1 62.164006726646591 -28.519186568345646 11.548760480261286 1 0 0 I I #
vertex $-1 $585 $762 #
point $-1 9.4696804912464074 -21.819406962963843 4.7304472735196725 #
vertex $-1 $589 $763 #
point $-1 13.51804521966136 -21.819406962963843 4.7304472735196725 #
edge $-1 $712 27.999823857894931 $715 38.331507167819652 $594 $764 forward 7 unknown #
vertex $-1 $608 $765 #
straight-curve $-1 26.758496383210858 -54.583192038873463 11.548760480261286 0 -1 0 I I #
edge $-1 $715 11.017702100030039 $605 20.463886466331601 $604 $766 forward 7 unknown #
vertex $-1 $714 $767 #
straight-curve $-1 26.758496383210858 -28.519186568345631 1.2170771703365801 0 0.69465836192734942 0.71933980857756763 I I #
point $-1 26.758496383210858 -18.541996207900667 11.548760480261286 #
point $-1 36.20468074951242 -28.519186568345646 1.2170771703365655 #
straight-curve $-1 62.164006726646591 -28.519186568345646 11.548760480261286 1 0 0 I I #
vertex $-1 $611 $768 #
point $-1 30.457406202154175 -21.819406962963843 4.7304472735196725 #
vertex $-1 $615 $769 #
point $-1 34.505770930569128 -21.819406962963843 4.7304472735196725 #
straight-curve $-1 -56.056398205511641 28.519186568345646 0 0 0 -1 I I #
point $-1 -56.056398205511641 -28.519186568345646 -11.548760480261286 #
straight-curve $-1 -56.056398205511641 0 -11.548760480261286 0 1 0 I I #
point $-1 -56.056398205511641 28.519186568345646 -11.548760480261286 #
edge $-1 $646 -11.548760480261286 $729 11.548760480261286 $637 $770 forward 7 unknown #
vertex $-1 $639 $771 #
straight-curve $-1 -68.271615247781526 -27.019186568345646 -11.548760480261286 0 1 0 I I #
straight-curve $-1 -68.271615247781526 -27.019186568345646 11.548760480261286 0 -1 0 I I #
point $-1 -68.271615247781526 -25.519186568345646 11.548760480261286 #
point $-1 -68.271615247781526 -25.519186568345646 -11.548760480261286 #
point $-1 -68.271615247781526 -28.519186568345646 11.548760480261286 #
straight-curve $-1 -62.164006726646583 -28.519186568345646 -11.548760480261286 -1 0 0 I I #
coedge $-1 $656 $655 $658 $739 reversed $495 $-1 #
coedge $-1 $655 $656 $662 $742 reversed $495 $-1 #
straight-curve $-1 68.27161524778154 -25.519186568345646 0 0 0 -1 I I #
edge $-1 $669 -1.5 $660 1.5 $736 $772 forward 7 unknown #
straight-curve $-1 68.27161524778154 -28.519186568345646 0 0 0 -1 I I #
point $-1 68.27161524778154 -28.519186568345646 -11.548760480261286 #
edge $-1 $663 -1.5 $667 1.5 $737 $773 forward 7 unknown #
point $-1 68.27161524778154 -28.519186568345646 11.548760480261286 #
point $-1 68.27161524778154 -25.519186568345646 11.548760480261286 #
point $-1 68.27161524778154 -25.519186568345646 -11.548760480261286 #
straight-curve $-1 -36.20468074951242 -28.519186568345646 39.548584338156218 0 0 -1 I I #
point $-1 -36.20468074951242 -28.519186568345646 11.548760480261286 #
straight-curve $-1 -15.74079428318082 -28.519186568345646 1.2170771703365637 1 0 0 I I #
point $-1 -36.20468074951242 -28.519186568345646 1.2170771703365655 #
point $-1 -33.505770930569113 -21.100067154386277 4.0357889115923236 #
point $-1 -29.457406202154164 -21.100067154386277 4.0357889115923236 #
straight-curve $-1 -15.216955038604663 -28.519186568345646 39.548584338156218 0 0 -1 I I #
point $-1 -15.216955038604667 -28.519186568345646 11.548760480261286 #
straight-curve $-1 -5.2469314277269419 -28.519186568345646 1.2170771703365637 1 0 0 I I #
point $-1 -15.216955038604663 -28.519186568345646 1.2170771703365655 #
point $-1 -12.51804521966136 -21.100067154386277 4.0357889115923236 #
point $-1 -8.4696804912464074 -21.100067154386277 4.0357889115923236 #
straight-curve $-1 5.7707706723030903 -28.519186568345646 39.548584338156218 0 0 -1 I I #
point $-1 5.7707706723030867 -28.519186568345646 11.548760480261286 #
straight-curve $-1 5.2469314277269348 -28.519186568345646 1.2170771703365637 1 0 0 I I #
point $-1 5.7707706723030903 -28.519186568345646 1.2170771703365655 #
point $-1 8.4696804912464074 -21.100067154386277 4.0357889115923236 #
point $-1 12.51804521966136 -21.100067154386277 4.0357889115923236 #
straight-curve $-1 26.758496383210858 -28.519186568345646 39.548584338156218 0 0 -1 I I #
point $-1 26.758496383210854 -28.519186568345646 11.548760480261286 #
straight-curve $-1 15.740794283180819 -28.519186568345646 1.2170771703365637 1 0 0 I I #
point $-1 26.758496383210858 -28.519186568345646 1.2170771703365655 #
point $-1 29.457406202154175 -21.100067154386277 4.0357889115923236 #
point $-1 33.505770930569128 -21.100067154386277 4.0357889115923236 #
straight-curve $-1 -68.271615247781526 -28.519186568345646 0 0 0 -1 I I #
point $-1 -68.271615247781526 -28.519186568345646 -11.548760480261286 #
straight-curve $-1 68.27161524778154 -27.019186568345646 -11.548760480261286 0 -1 0 I I #
straight-curve $-1 68.27161524778154 -27.019186568345646 11.548760480261286 0 1 0 I I #
End-of-ACIS-data 