500 0 9 0           
7 Unknown 11 ACIS 5.0 NT 24 Fri Mar 26 02:17:13 1999 
-1 9.9999999999999995e-007 1e-010 
body $-1 $9 $-1 $10 #
body $-1 $11 $-1 $12 #
body $-1 $13 $-1 $14 #
body $-1 $15 $-1 $16 #
body $-1 $17 $-1 $18 #
body $-1 $19 $-1 $20 #
body $-1 $21 $-1 $22 #
body $-1 $23 $-1 $24 #
body $-1 $25 $-1 $26 #
lump $-1 $-1 $27 $0 #
transform $-1 1 0 0 0 1 0 0 0 1 48.158207953123572 32.388441429016233 14.315677273367781 1 rotate no_reflect no_shear #
lump $-1 $-1 $28 $1 #
transform $-1 1 0 0 0 1 0 0 0 1 48.158207953123572 32.388441429016233 14.315677273367781 1 rotate no_reflect no_shear #
lump $-1 $-1 $29 $2 #
transform $-1 1 0 0 0 1 0 0 0 1 48.158207953123572 32.388441429016233 14.315677273367781 1 rotate no_reflect no_shear #
lump $-1 $-1 $30 $3 #
transform $-1 1 0 0 0 1 0 0 0 1 48.158207953123572 32.388441429016233 14.315677273367781 1 rotate no_reflect no_shear #
lump $-1 $-1 $31 $4 #
transform $-1 1 0 0 0 1 0 0 0 1 48.158207953123572 32.388441429016233 14.315677273367781 1 rotate no_reflect no_shear #
lump $-1 $-1 $32 $5 #
transform $-1 1 0 0 0 1 0 0 0 1 48.158207953123572 32.388441429016233 14.315677273367781 1 rotate no_reflect no_shear #
lump $-1 $-1 $33 $6 #
transform $-1 1 0 0 0 1 0 0 0 1 48.158207953123572 32.388441429016233 14.315677273367781 1 rotate no_reflect no_shear #
lump $-1 $-1 $34 $7 #
transform $-1 1 0 0 0 1 0 0 0 1 48.158207953123572 32.388441429016233 14.315677273367781 1 rotate no_reflect no_shear #
lump $-1 $-1 $35 $8 #
transform $-1 1 0 0 0 1 0 0 0 1 48.158207953123572 32.388441429016233 14.315677273367781 1 rotate no_reflect no_shear #
shell $-1 $-1 $-1 $36 $-1 $9 #
shell $-1 $-1 $-1 $37 $-1 $11 #
shell $-1 $-1 $-1 $38 $-1 $13 #
shell $-1 $-1 $-1 $39 $-1 $15 #
shell $-1 $-1 $-1 $40 $-1 $17 #
shell $-1 $-1 $-1 $41 $-1 $19 #
shell $-1 $-1 $-1 $42 $-1 $21 #
shell $-1 $-1 $-1 $43 $-1 $23 #
shell $-1 $-1 $-1 $44 $-1 $25 #
face $-1 $45 $46 $27 $-1 $47 forward single #
face $-1 $48 $49 $28 $-1 $50 reversed single #
face $-1 $51 $52 $29 $-1 $53 reversed single #
face $-1 $54 $55 $30 $-1 $56 reversed single #
face $-1 $57 $58 $31 $-1 $59 forward single #
face $-1 $60 $61 $32 $-1 $62 forward single #
face $-1 $63 $64 $33 $-1 $65 reversed single #
face $-1 $66 $67 $34 $-1 $68 forward single #
face $-1 $69 $70 $35 $-1 $71 forward single #
face $-1 $72 $73 $27 $-1 $74 reversed single #
loop $-1 $-1 $75 $36 #
plane-surface $-1 0 0 14.315677273367781 0 0 1 1 0 0 forward_v I I I I #
face $-1 $76 $77 $28 $-1 $78 reversed single #
loop $-1 $-1 $79 $37 #
plane-surface $-1 0 -26.801670496883585 10.222775029269632 0 0 1 1 0 0 forward_v I I I I #
face $-1 $80 $81 $29 $-1 $82 reversed single #
loop $-1 $-1 $83 $38 #
plane-surface $-1 0 26.801670496883581 10.222775029269632 0 0 1 1 0 0 forward_v I I I I #
face $-1 $84 $85 $30 $-1 $86 reversed single #
loop $-1 $-1 $87 $39 #
plane-surface $-1 -103.40303526272399 3.2070654789513 87.925604135891419 0 1 0 -0.57357644374324357 0 0.81915203911291934 forward_v I I I I #
face $-1 $88 $89 $31 $-1 $90 forward single #
loop $-1 $91 $92 $40 #
cone-surface $-1 -43.345515243236029 5.917451014454933 10.191087962762269 0.57357644374324357 0 -0.81915203911291934 0.81915203911291934 0 0.57357644374324357 1 I I 0 1 1 forward I I I I #
face $-1 $93 $94 $32 $-1 $95 forward single #
loop $-1 $96 $97 $41 #
cone-surface $-1 -43.345515243236029 9.9830293177103755 10.191087962762269 0.57357644374324357 0 -0.81915203911291934 0.81915203911291934 0 0.57357644374324357 1 I I 0 1 1 forward I I I I #
face $-1 $98 $99 $33 $-1 $100 reversed single #
loop $-1 $-1 $101 $42 #
plane-surface $-1 -27.74016294886907 -16.087706892706393 69.906387981128006 0.61566148304635926 0 0.78801074757464917 0.78801074757464917 0 -0.61566148304635926 forward_v I I I I #
face $-1 $102 $103 $34 $-1 $104 forward single #
loop $-1 $105 $106 $43 #
cone-surface $-1 45.391691725835294 -18.285075180725482 11.957885818444014 -0.61566148304635926 0 -0.78801074757464917 0.78801074757464917 0 -0.61566148304635926 1 I I 0 1 1 forward I I I I #
face $-1 $107 $108 $35 $-1 $109 forward single #
loop $-1 $110 $111 $44 #
cone-surface $-1 45.391691725835294 -13.890338604687301 11.957885818444014 -0.61566148304635926 0 -0.78801074757464917 0.78801074757464917 0 -0.61566148304635926 1 I I 0 1 1 forward I I I I #
face $-1 $112 $113 $27 $-1 $114 reversed single #
loop $-1 $-1 $115 $45 #
plane-surface $-1 0 0 -14.315677273367781 0 0 1 1 0 0 forward_v I I I I #
coedge $-1 $116 $117 $118 $119 forward $46 $-1 #
face $-1 $120 $121 $28 $-1 $122 reversed single #
loop $-1 $-1 $123 $48 #
plane-surface $-1 0 -21.214899564750937 12.269226151318707 0 -1 0 0 0 -1 forward_v I I I I #
coedge $-1 $124 $125 $126 $127 reversed $49 $-1 #
face $-1 $128 $129 $29 $-1 $130 forward single #
loop $-1 $-1 $131 $51 #
plane-surface $-1 0 21.214899564750933 12.269226151318707 0 1 0 0 0 1 forward_v I I I I #
coedge $-1 $132 $133 $134 $135 reversed $52 $-1 #
face $-1 $136 $137 $30 $-1 $138 reversed single #
loop $-1 $-1 $139 $54 #
plane-surface $-1 -48.158207953123572 7.9502401660826507 9.0278156462410521 -0.57357644374324357 0 0.81915203911291934 0.81915203911291934 0 0.57357644374324357 forward_v I I I I #
coedge $-1 $140 $141 $142 $143 reversed $55 $-1 #
face $-1 $-1 $144 $31 $-1 $145 forward single #
loop $-1 $146 $147 $57 #
cone-surface $-1 -42.021958760308323 5.917451014454933 8.300853446163666 0.57357644374324357 0 -0.81915203911291934 0.40957601955645967 0 0.28678822187162178 1 I I -0.70710678118654746 0.70710678118654746 0.5 forward I I I I #
loop $-1 $-1 $148 $40 #
coedge $-1 $92 $92 $149 $150 reversed $58 $-1 #
face $-1 $-1 $151 $32 $-1 $152 forward single #
loop $-1 $153 $154 $60 #
cone-surface $-1 -42.021958760308323 9.9830293177103755 8.300853446163666 0.57357644374324357 0 -0.81915203911291934 0.40957601955645967 0 0.28678822187162178 1 I I -0.70710678118654746 0.70710678118654746 0.5 forward I I I I #
loop $-1 $-1 $155 $41 #
coedge $-1 $97 $97 $156 $157 reversed $61 $-1 #
face $-1 $158 $159 $33 $-1 $160 forward single #
loop $-1 $-1 $161 $63 #
plane-surface $-1 31.558144509680993 -10.96051422066185 145.80475888312066 0 -1 0 -0.61566148304635926 0 -0.78801074757464917 forward_v I I I I #
coedge $-1 $162 $163 $164 $165 reversed $64 $-1 #
face $-1 $-1 $166 $34 $-1 $167 forward single #
loop $-1 $168 $169 $66 #
cone-surface $-1 44.690098427465209 -18.285075180725482 11.059887365127837 -0.61566148304635926 0 -0.78801074757464917 0.39400537378732459 0 -0.30783074152317963 1 I I -0.70710678118654746 0.70710678118654746 0.5 forward I I I I #
loop $-1 $-1 $170 $43 #
coedge $-1 $106 $106 $171 $172 reversed $67 $-1 #
face $-1 $-1 $173 $35 $-1 $174 forward single #
loop $-1 $175 $176 $69 #
cone-surface $-1 44.690098427465209 -13.890338604687301 11.059887365127837 -0.61566148304635926 0 -0.78801074757464917 0.39400537378732459 0 -0.30783074152317963 1 I I -0.70710678118654746 0.70710678118654746 0.5 forward I I I I #
loop $-1 $-1 $177 $44 #
coedge $-1 $111 $111 $178 $179 reversed $70 $-1 #
face $-1 $180 $181 $27 $-1 $182 reversed single #
loop $-1 $-1 $183 $72 #
plane-surface $-1 0 -32.388441429016233 0 0 1 0 0 0 1 forward_v I I I I #
coedge $-1 $184 $185 $186 $187 forward $73 $-1 #
coedge $-1 $188 $75 $189 $190 forward $46 $-1 #
coedge $-1 $75 $188 $191 $192 forward $46 $-1 #
coedge $-1 $193 $194 $75 $119 reversed $195 $-1 #
edge $-1 $196 -32.388441429016233 $197 32.388441429016233 $118 $198 forward 7 unknown #
face $-1 $199 $200 $28 $-1 $201 reversed single #
loop $-1 $-1 $202 $76 #
plane-surface $-1 -48.158207953123572 0 0 1 0 0 0 0 -1 forward_v I I I I #
coedge $-1 $203 $204 $205 $206 reversed $77 $-1 #
coedge $-1 $207 $79 $208 $209 reversed $49 $-1 #
coedge $-1 $79 $207 $203 $210 forward $49 $-1 #
coedge $-1 $205 $211 $79 $127 forward $212 $-1 #
edge $-1 $213 -18.987606180574438 $214 -7.8140643163091443 $126 $215 forward 7 unknown #
face $-1 $216 $217 $29 $-1 $218 reversed single #
loop $-1 $-1 $219 $80 #
plane-surface $-1 0 0 14.315677273367781 0 0 1 1 0 0 forward_v I I I I #
coedge $-1 $220 $221 $222 $223 reversed $81 $-1 #
coedge $-1 $224 $83 $220 $225 forward $52 $-1 #
coedge $-1 $83 $224 $226 $227 reversed $52 $-1 #
coedge $-1 $228 $229 $83 $135 forward $217 $-1 #
edge $-1 $230 7.8140643163091426 $231 18.987606180574435 $134 $232 forward 7 unknown #
face $-1 $233 $234 $30 $-1 $235 reversed single #
loop $-1 $-1 $236 $84 #
plane-surface $-1 -103.40303526272399 12.693414853214001 87.925604135891419 0 -1 0 0.57357644374324357 0 -0.81915203911291934 forward_v I I I I #
coedge $-1 $237 $238 $239 $240 reversed $85 $-1 #
coedge $-1 $141 $87 $241 $242 reversed $55 $-1 #
coedge $-1 $87 $140 $237 $243 reversed $55 $-1 #
coedge $-1 $239 $244 $87 $143 forward $245 $-1 #
edge $-1 $246 3.5433096782384226 $247 11.095158575901323 $142 $248 forward 7 unknown #
loop $-1 $-1 $149 $88 #
plane-surface $-1 -48.158207953123572 7.9502401660826507 9.0278156462410521 -0.57357644374324357 0 0.81915203911291934 0.81915203911291934 0 0.57357644374324357 forward_v I I I I #
loop $-1 $-1 $249 $57 #
coedge $-1 $147 $147 $148 $250 reversed $89 $-1 #
coedge $-1 $148 $148 $147 $250 forward $91 $-1 #
coedge $-1 $149 $149 $92 $150 forward $144 $-1 #
edge $-1 $251 0 $251 6.2831853071796004 $149 $252 forward 7 unknown #
loop $-1 $-1 $156 $93 #
plane-surface $-1 -48.158207953123572 7.9502401660826507 9.0278156462410521 -0.57357644374324357 0 0.81915203911291934 0.81915203911291934 0 0.57357644374324357 forward_v I I I I #
loop $-1 $-1 $253 $60 #
coedge $-1 $154 $154 $155 $254 reversed $94 $-1 #
coedge $-1 $155 $155 $154 $254 forward $96 $-1 #
coedge $-1 $156 $156 $97 $157 forward $151 $-1 #
edge $-1 $255 0 $255 6.2831853071796004 $156 $256 forward 7 unknown #
face $-1 $257 $258 $33 $-1 $259 forward single #
loop $-1 $-1 $260 $98 #
plane-surface $-1 0 0 14.315677273367781 0 0 1 1 0 0 forward_v I I I I #
coedge $-1 $261 $262 $263 $264 reversed $99 $-1 #
coedge $-1 $265 $101 $266 $267 reversed $64 $-1 #
coedge $-1 $101 $265 $261 $268 forward $64 $-1 #
coedge $-1 $263 $269 $101 $165 forward $270 $-1 #
edge $-1 $271 -13.17104611839774 $272 -2.916660774308653 $164 $273 forward 7 unknown #
loop $-1 $-1 $171 $102 #
plane-surface $-1 -27.74016294886907 -16.087706892706393 69.906387981128006 0.61566148304635926 0 0.78801074757464917 0.78801074757464917 0 -0.61566148304635926 forward_v I I I I #
loop $-1 $-1 $274 $66 #
coedge $-1 $169 $169 $170 $275 reversed $103 $-1 #
coedge $-1 $170 $170 $169 $275 forward $105 $-1 #
coedge $-1 $171 $171 $106 $172 forward $166 $-1 #
edge $-1 $276 0 $276 6.2831853071796004 $171 $277 forward 7 unknown #
loop $-1 $-1 $178 $107 #
plane-surface $-1 -27.74016294886907 -16.087706892706393 69.906387981128006 0.61566148304635926 0 0.78801074757464917 0.78801074757464917 0 -0.61566148304635926 forward_v I I I I #
loop $-1 $-1 $278 $69 #
coedge $-1 $176 $176 $177 $279 reversed $108 $-1 #
coedge $-1 $177 $177 $176 $279 forward $110 $-1 #
coedge $-1 $178 $178 $111 $179 forward $173 $-1 #
edge $-1 $280 0 $280 6.2831853071796004 $178 $281 forward 7 unknown #
face $-1 $282 $283 $27 $-1 $284 reversed single #
loop $-1 $-1 $285 $112 #
plane-surface $-1 -48.158207953123572 0 0 1 0 0 0 0 -1 forward_v I I I I #
coedge $-1 $286 $191 $287 $288 forward $113 $-1 #
coedge $-1 $289 $115 $286 $290 forward $73 $-1 #
coedge $-1 $115 $289 $291 $292 forward $73 $-1 #
coedge $-1 $194 $193 $115 $187 reversed $195 $-1 #
edge $-1 $293 -32.388441429016233 $294 32.388441429016233 $186 $295 forward 7 unknown #
coedge $-1 $117 $116 $296 $297 forward $46 $-1 #
coedge $-1 $298 $299 $116 $190 reversed $283 $-1 #
edge $-1 $197 -48.158207953123572 $300 48.158207953123572 $189 $301 forward 7 unknown #
coedge $-1 $183 $302 $117 $192 reversed $113 $-1 #
edge $-1 $303 -48.158207953123572 $196 48.158207953123572 $191 $304 forward 7 unknown #
coedge $-1 $186 $118 $302 $305 forward $195 $-1 #
coedge $-1 $118 $186 $298 $306 reversed $195 $-1 #
loop $-1 $-1 $193 $282 #
vertex $-1 $119 $307 #
vertex $-1 $119 $308 #
straight-curve $-1 48.158207953123572 0 14.315677273367781 0 1 0 I I #
face $-1 $309 $310 $28 $-1 $311 forward single #
loop $-1 $-1 $208 $120 #
plane-surface $-1 0 -32.388441429016233 0 0 1 0 0 0 1 forward_v I I I I #
coedge $-1 $312 $313 $314 $315 forward $121 $-1 #
coedge $-1 $314 $123 $125 $210 reversed $77 $-1 #
coedge $-1 $123 $314 $316 $317 reversed $77 $-1 #
coedge $-1 $318 $126 $123 $206 forward $212 $-1 #
edge $-1 $214 4.0881619536102791 $319 8.1810641977084266 $205 $320 forward 7 unknown #
coedge $-1 $125 $124 $312 $321 reversed $49 $-1 #
coedge $-1 $322 $323 $124 $209 forward $200 $-1 #
edge $-1 $324 -48.158207953123572 $213 48.158207953123572 $208 $325 forward 7 unknown #
edge $-1 $326 -48.158207953123572 $214 48.158207953123572 $203 $327 forward 7 unknown #
coedge $-1 $126 $318 $322 $328 forward $212 $-1 #
loop $-1 $-1 $205 $309 #
vertex $-1 $209 $329 #
vertex $-1 $127 $330 #
straight-curve $-1 48.158207953123572 -13.400835248441792 10.222775029269632 0 1 0 I I #
face $-1 $331 $332 $29 $-1 $333 reversed single #
loop $-1 $-1 $229 $128 #
plane-surface $-1 48.158207953123572 0 0 -1 0 0 0 0 1 forward_v I I I I #
coedge $-1 $334 $335 $221 $336 forward $129 $-1 #
coedge $-1 $337 $131 $132 $225 reversed $81 $-1 #
coedge $-1 $131 $337 $219 $336 reversed $81 $-1 #
coedge $-1 $338 $339 $131 $223 forward $332 $-1 #
edge $-1 $340 4.0881619536102791 $341 8.1810641977084266 $222 $342 forward 7 unknown #
coedge $-1 $133 $132 $339 $343 reversed $52 $-1 #
edge $-1 $230 -48.158207953123572 $340 48.158207953123572 $220 $344 forward 7 unknown #
coedge $-1 $345 $346 $133 $227 forward $347 $-1 #
edge $-1 $231 -48.158207953123572 $348 48.158207953123572 $226 $349 forward 7 unknown #
coedge $-1 $350 $134 $346 $351 reversed $217 $-1 #
coedge $-1 $134 $350 $337 $352 forward $217 $-1 #
vertex $-1 $135 $353 #
vertex $-1 $227 $354 #
straight-curve $-1 48.158207953123572 13.400835248441791 10.222775029269632 0 1 0 I I #
face $-1 $-1 $245 $30 $-1 $355 forward single #
loop $-1 $-1 $356 $136 #
plane-surface $-1 -48.158207953123572 0 0 1 0 0 0 0 -1 forward_v I I I I #
coedge $-1 $357 $358 $359 $360 reversed $137 $-1 #
coedge $-1 $361 $139 $141 $243 forward $85 $-1 #
coedge $-1 $139 $361 $357 $362 forward $85 $-1 #
coedge $-1 $359 $142 $139 $240 forward $245 $-1 #
edge $-1 $247 -0.76805460409002535 $363 8.7182947701726761 $239 $364 forward 7 unknown #
coedge $-1 $365 $366 $140 $242 forward $234 $-1 #
edge $-1 $367 -34.934986421704657 $246 -29.647124794577927 $241 $368 forward 7 unknown #
edge $-1 $247 -9.2191052906869277 $367 0 $141 $369 forward 7 unknown #
coedge $-1 $142 $359 $365 $370 forward $245 $-1 #
loop $-1 $-1 $359 $233 #
vertex $-1 $242 $371 #
vertex $-1 $143 $372 #
straight-curve $-1 -51.701517631361995 3.2070654789513 14.315677273367783 1 0 0 I I #
coedge $-1 $249 $249 $-1 $373 reversed $146 $-1 #
edge $-1 $374 0 $374 6.2831853071796004 $147 $375 forward 7 unknown #
vertex $-1 $150 $376 #
ellipse-curve $-1 -44.382283504292118 5.917451014454933 11.671746459804419 -0.57357644374324357 0 0.81915203911291934 0.81915203911291934 0 0.57357644374324357 1 I I #
coedge $-1 $253 $253 $-1 $377 reversed $153 $-1 #
edge $-1 $378 0 $378 6.2831853071796004 $154 $379 forward 7 unknown #
vertex $-1 $157 $380 #
ellipse-curve $-1 -44.382283504292118 9.9830293177103755 11.671746459804419 -0.57357644374324357 0 0.81915203911291934 0.81915203911291934 0 0.57357644374324357 1 I I #
face $-1 $-1 $270 $33 $-1 $381 reversed single #
loop $-1 $-1 $266 $158 #
plane-surface $-1 0 -21.214899564750937 12.269226151318707 0 -1 0 0 0 -1 forward_v I I I I #
coedge $-1 $382 $383 $262 $384 forward $159 $-1 #
coedge $-1 $262 $161 $163 $268 reversed $99 $-1 #
coedge $-1 $161 $261 $260 $384 reversed $99 $-1 #
coedge $-1 $385 $164 $161 $264 forward $270 $-1 #
edge $-1 $272 -62.294298918982392 $386 -58.586702168192545 $263 $387 forward 7 unknown #
coedge $-1 $163 $162 $382 $388 reversed $64 $-1 #
coedge $-1 $389 $390 $162 $267 forward $258 $-1 #
edge $-1 $391 61.622017067855865 $271 67.644152369295 $266 $392 forward 7 unknown #
edge $-1 $393 90.294280604808023 $272 96.316415906247158 $261 $394 forward 7 unknown #
coedge $-1 $164 $385 $389 $395 forward $270 $-1 #
loop $-1 $-1 $263 $257 #
vertex $-1 $267 $396 #
vertex $-1 $165 $397 #
straight-curve $-1 48.158207953123565 -8.0438534463531965 10.608080522577943 0 1 0 I I #
coedge $-1 $274 $274 $-1 $398 reversed $168 $-1 #
edge $-1 $399 0 $399 6.2831853071796004 $169 $400 forward 7 unknown #
vertex $-1 $172 $401 #
ellipse-curve $-1 45.785454282682203 -18.285075180725482 12.461878897972875 0.61566148304635926 0 0.78801074757464917 0.78801074757464917 0 -0.61566148304635926 1 I I #
coedge $-1 $278 $278 $-1 $402 reversed $175 $-1 #
edge $-1 $403 0 $403 6.2831853071796004 $176 $404 forward 7 unknown #
vertex $-1 $179 $405 #
ellipse-curve $-1 45.785454282682203 -13.890338604687301 12.461878897972875 0.61566148304635926 0 0.78801074757464917 0.78801074757464917 0 -0.61566148304635926 1 I I #
face $-1 $-1 $195 $27 $-1 $406 reversed single #
loop $-1 $-1 $298 $180 #
plane-surface $-1 0 32.388441429016233 0 0 -1 0 0 0 -1 forward_v I I I I #
coedge $-1 $407 $296 $299 $408 forward $181 $-1 #
coedge $-1 $302 $183 $184 $290 reversed $113 $-1 #
coedge $-1 $296 $407 $183 $288 reversed $181 $-1 #
edge $-1 $303 -14.315677273367781 $409 14.315677273367781 $287 $410 forward 7 unknown #
coedge $-1 $185 $184 $407 $411 forward $73 $-1 #
edge $-1 $294 -48.158207953123572 $409 48.158207953123572 $286 $412 forward 7 unknown #
coedge $-1 $299 $298 $185 $292 reversed $283 $-1 #
edge $-1 $413 -48.158207953123572 $293 48.158207953123572 $291 $414 forward 7 unknown #
vertex $-1 $187 $415 #
vertex $-1 $305 $416 #
straight-curve $-1 48.158207953123572 0 -14.315677273367781 0 -1 0 I I #
coedge $-1 $285 $287 $188 $297 reversed $181 $-1 #
edge $-1 $300 -32.388441429016233 $303 32.388441429016233 $296 $417 forward 7 unknown #
coedge $-1 $291 $189 $194 $306 forward $283 $-1 #
coedge $-1 $189 $291 $285 $408 reversed $283 $-1 #
vertex $-1 $190 $418 #
straight-curve $-1 0 32.388441429016233 14.315677273367781 -1 0 0 I I #
coedge $-1 $191 $286 $193 $305 reversed $113 $-1 #
vertex $-1 $297 $419 #
straight-curve $-1 0 -32.388441429016233 14.315677273367781 1 0 0 I I #
edge $-1 $196 -14.315677273367781 $294 14.315677273367781 $193 $420 forward 7 unknown #
edge $-1 $197 -14.315677273367781 $293 14.315677273367781 $194 $421 forward 7 unknown #
point $-1 48.158207953123572 -32.388441429016233 14.315677273367781 #
point $-1 48.158207953123572 32.388441429016233 14.315677273367781 #
face $-1 $-1 $212 $28 $-1 $422 reversed single #
loop $-1 $-1 $316 $199 #
plane-surface $-1 0 0 14.315677273367781 0 0 1 1 0 0 forward_v I I I I #
coedge $-1 $423 $202 $207 $321 forward $121 $-1 #
coedge $-1 $202 $423 $424 $425 reversed $121 $-1 #
coedge $-1 $204 $203 $202 $315 reversed $77 $-1 #
edge $-1 $426 -8.1810641977084266 $326 -4.0881619536102791 $202 $427 forward 7 unknown #
coedge $-1 $424 $428 $204 $317 forward $310 $-1 #
edge $-1 $319 -48.158207953123572 $426 48.158207953123572 $316 $429 forward 7 unknown #
coedge $-1 $211 $205 $428 $430 reversed $212 $-1 #
vertex $-1 $206 $431 #
straight-curve $-1 48.158207953123572 -21.214899564750937 6.1346130756593533 0 0 1 I I #
edge $-1 $326 7.8140643163091443 $324 18.987606180574438 $312 $432 forward 7 unknown #
coedge $-1 $433 $208 $211 $328 reversed $200 $-1 #
coedge $-1 $208 $433 $423 $434 forward $200 $-1 #
vertex $-1 $209 $435 #
straight-curve $-1 0 -32.388441429016233 10.222775029269632 1 0 0 I I #
vertex $-1 $321 $436 #
straight-curve $-1 0 -21.214899564750937 10.222775029269632 1 0 0 I I #
edge $-1 $437 -14.315677273367781 $213 -10.222775029269632 $211 $438 forward 7 unknown #
point $-1 48.158207953123572 -32.388441429016233 10.222775029269632 #
point $-1 48.158207953123572 -21.214899564750937 10.222775029269632 #
face $-1 $-1 $347 $29 $-1 $439 reversed single #
loop $-1 $-1 $222 $216 #
plane-surface $-1 -48.158207953123572 0 0 1 0 0 0 0 -1 forward_v I I I I #
coedge $-1 $440 $219 $350 $441 forward $129 $-1 #
coedge $-1 $219 $440 $338 $442 forward $129 $-1 #
edge $-1 $341 -48.158207953123572 $443 48.158207953123572 $219 $444 forward 7 unknown #
coedge $-1 $221 $220 $229 $352 reversed $81 $-1 #
coedge $-1 $445 $222 $335 $442 reversed $332 $-1 #
coedge $-1 $222 $445 $224 $343 forward $332 $-1 #
vertex $-1 $343 $446 #
vertex $-1 $223 $447 #
straight-curve $-1 -48.158207953123572 21.214899564750933 6.1346130756593533 0 0 1 I I #
edge $-1 $348 -18.987606180574435 $340 -7.8140643163091426 $339 $448 forward 7 unknown #
straight-curve $-1 0 21.214899564750933 10.222775029269632 -1 0 0 I I #
coedge $-1 $449 $226 $445 $450 reversed $347 $-1 #
coedge $-1 $226 $449 $228 $351 forward $347 $-1 #
loop $-1 $-1 $226 $331 #
vertex $-1 $227 $451 #
straight-curve $-1 0 32.388441429016233 10.222775029269632 -1 0 0 I I #
coedge $-1 $229 $228 $334 $441 reversed $217 $-1 #
edge $-1 $452 -14.315677273367781 $231 -10.222775029269632 $228 $453 forward 7 unknown #
edge $-1 $443 -8.1810641977084266 $230 -4.0881619536102791 $229 $454 forward 7 unknown #
point $-1 48.158207953123572 21.214899564750933 10.222775029269632 #
point $-1 48.158207953123572 32.388441429016225 10.222775029269632 #
plane-surface $-1 0 0 14.315677273367781 0 0 1 1 0 0 forward_v I I I I #
coedge $-1 $366 $365 $358 $455 forward $234 $-1 #
coedge $-1 $358 $236 $238 $362 reversed $137 $-1 #
coedge $-1 $236 $357 $356 $455 reversed $137 $-1 #
coedge $-1 $244 $239 $236 $360 forward $245 $-1 #
edge $-1 $363 -11.095158575901323 $456 -3.5433096782384226 $359 $457 forward 7 unknown #
coedge $-1 $238 $237 $366 $458 reversed $85 $-1 #
edge $-1 $459 0 $363 9.2191052906869277 $357 $460 forward 7 unknown #
vertex $-1 $240 $461 #
straight-curve $-1 -40.606359055460672 3.9751200830413254 14.315677273367781 0 1 0 I I #
coedge $-1 $356 $241 $244 $370 reversed $234 $-1 #
coedge $-1 $241 $356 $361 $458 forward $234 $-1 #
vertex $-1 $242 $462 #
straight-curve $-1 -48.158207953123572 3.2070654789513 43.962802067945709 0 0 1 I I #
straight-curve $-1 -48.158207953123572 3.2070654789513 9.0278156462410521 -0.81915203911291934 0 -0.57357644374324357 I I #
edge $-1 $456 -12.693414853214001 $246 -3.2070654789513 $365 $463 forward 7 unknown #
point $-1 -48.158207953123572 3.2070654789513 14.315677273367781 #
point $-1 -40.606359055460672 3.2070654789513 14.315677273367781 #
edge $-1 $464 1 $464 0 $249 $-1 forward 7 unknown #
vertex $-1 $250 $465 #
ellipse-curve $-1 -42.308746982179947 5.917451014454933 8.7104294657201251 -0.57357644374324357 0 0.81915203911291934 0.81915203911291934 0 0.57357644374324357 1 I I #
point $-1 -43.563131465179197 5.917451014454933 12.24532290354766 #
edge $-1 $466 1 $466 0 $253 $-1 forward 7 unknown #
vertex $-1 $254 $467 #
ellipse-curve $-1 -42.308746982179947 9.9830293177103755 8.7104294657201251 -0.57357644374324357 0 0.81915203911291934 0.81915203911291934 0 0.57357644374324357 1 I I #
point $-1 -43.563131465179197 9.9830293177103755 12.24532290354766 #
plane-surface $-1 48.158207953123572 0 0 -1 0 0 0 0 1 forward_v I I I I #
coedge $-1 $468 $260 $265 $388 forward $159 $-1 #
coedge $-1 $260 $468 $385 $469 forward $159 $-1 #
edge $-1 $386 -32.379135698283079 $393 -27.633628357400344 $260 $470 forward 7 unknown #
coedge $-1 $269 $263 $383 $469 reversed $270 $-1 #
vertex $-1 $264 $471 #
straight-curve $-1 48.158207953123572 -10.96051422066185 72.902379441560328 0 0 1 I I #
edge $-1 $393 2.916660774308653 $391 13.17104611839774 $382 $472 forward 7 unknown #
coedge $-1 $390 $266 $269 $395 reversed $258 $-1 #
coedge $-1 $266 $389 $468 $473 reversed $258 $-1 #
vertex $-1 $473 $474 #
straight-curve $-1 -5.1461111244580486 -21.214899564750937 52.253979689671993 0.78801074757464917 0 -0.61566148304635926 I I #
vertex $-1 $388 $475 #
straight-curve $-1 -27.74016294886907 -10.96051422066185 69.906387981128006 0.78801074757464917 0 -0.61566148304635926 I I #
edge $-1 $476 -8.1810641977084266 $271 -4.4734674469185842 $269 $477 forward 7 unknown #
point $-1 48.158207953123572 -21.214899564750937 10.608080522577938 #
point $-1 48.158207953123579 -10.96051422066185 10.608080522577936 #
edge $-1 $478 1 $478 0 $274 $-1 forward 7 unknown #
vertex $-1 $275 $479 #
ellipse-curve $-1 44.997929168988385 -18.285075180725482 11.453892738915162 0.61566148304635926 0 0.78801074757464917 0.78801074757464917 0 -0.61566148304635926 1 I I #
point $-1 46.573465030256848 -18.285075180725482 11.846217414926507 #
edge $-1 $480 1 $480 0 $278 $-1 forward 7 unknown #
vertex $-1 $279 $481 #
ellipse-curve $-1 44.997929168988385 -13.890338604687301 11.453892738915162 0.61566148304635926 0 0.78801074757464917 0.78801074757464917 0 -0.61566148304635926 1 I I #
point $-1 46.573465030256848 -13.890338604687301 11.846217414926507 #
plane-surface $-1 48.158207953123572 0 0 -1 0 0 0 0 1 forward_v I I I I #
coedge $-1 $287 $285 $289 $411 reversed $181 $-1 #
edge $-1 $300 -14.315677273367781 $413 14.315677273367781 $299 $482 forward 7 unknown #
vertex $-1 $411 $483 #
straight-curve $-1 -48.158207953123572 -32.388441429016233 0 0 0 -1 I I #
edge $-1 $409 -32.388441429016233 $413 32.388441429016233 $407 $484 forward 7 unknown #
straight-curve $-1 0 -32.388441429016233 -14.315677273367781 -1 0 0 I I #
vertex $-1 $292 $485 #
straight-curve $-1 0 32.388441429016233 -14.315677273367781 1 0 0 I I #
point $-1 48.158207953123572 32.388441429016233 -14.315677273367781 #
point $-1 48.158207953123572 -32.388441429016233 -14.315677273367781 #
straight-curve $-1 -48.158207953123572 0 14.315677273367781 0 -1 0 I I #
point $-1 -48.158207953123572 32.388441429016233 14.315677273367781 #
point $-1 -48.158207953123572 -32.388441429016233 14.315677273367781 #
straight-curve $-1 48.158207953123572 -32.388441429016233 0 0 0 -1 I I #
straight-curve $-1 48.158207953123572 32.388441429016233 0 0 0 -1 I I #
plane-surface $-1 48.158207953123572 0 0 -1 0 0 0 0 1 forward_v I I I I #
coedge $-1 $313 $312 $323 $434 reversed $121 $-1 #
coedge $-1 $486 $316 $313 $425 forward $310 $-1 #
edge $-1 $426 21.214899564750937 $487 32.388441429016233 $313 $488 forward 7 unknown #
vertex $-1 $425 $489 #
straight-curve $-1 -48.158207953123572 -21.214899564750937 6.1346130756593533 0 0 -1 I I #
coedge $-1 $316 $486 $318 $430 forward $310 $-1 #
straight-curve $-1 0 -21.214899564750937 14.315677273367781 -1 0 0 I I #
edge $-1 $437 -32.388441429016233 $319 -21.214899564750937 $318 $490 forward 7 unknown #
point $-1 48.158207953123572 -21.214899564750937 14.315677273367781 #
straight-curve $-1 -48.158207953123572 -13.400835248441792 10.222775029269632 0 -1 0 I I #
coedge $-1 $323 $322 $486 $491 reversed $200 $-1 #
edge $-1 $487 -14.315677273367781 $324 -10.222775029269632 $423 $492 forward 7 unknown #
point $-1 -48.158207953123572 -32.388441429016233 10.222775029269632 #
point $-1 -48.158207953123572 -21.214899564750937 10.222775029269632 #
vertex $-1 $430 $493 #
straight-curve $-1 48.158207953123572 -32.388441429016233 0 0 0 -1 I I #
plane-surface $-1 0 32.388441429016233 0 0 -1 0 0 0 -1 forward_v I I I I #
coedge $-1 $335 $334 $449 $494 forward $129 $-1 #
edge $-1 $443 21.214899564750933 $452 32.388441429016233 $350 $495 forward 7 unknown #
edge $-1 $496 -32.388441429016233 $341 -21.214899564750933 $338 $497 forward 7 unknown #
vertex $-1 $441 $498 #
straight-curve $-1 0 21.214899564750933 14.315677273367781 1 0 0 I I #
coedge $-1 $339 $338 $345 $450 forward $332 $-1 #
point $-1 -48.158207953123572 21.214899564750933 10.222775029269632 #
point $-1 -48.158207953123572 21.214899564750933 14.315677273367781 #
straight-curve $-1 -48.158207953123572 13.400835248441791 10.222775029269632 0 -1 0 I I #
coedge $-1 $346 $345 $440 $494 reversed $347 $-1 #
edge $-1 $496 -14.315677273367781 $348 -10.222775029269632 $345 $499 forward 7 unknown #
point $-1 -48.158207953123572 32.388441429016225 10.222775029269632 #
vertex $-1 $441 $500 #
straight-curve $-1 48.158207953123572 32.388441429016233 0 0 0 -1 I I #
straight-curve $-1 48.158207953123572 21.214899564750933 6.1346130756593533 0 0 -1 I I #
edge $-1 $456 29.647124794577927 $459 34.934986421704657 $356 $501 forward 7 unknown #
vertex $-1 $370 $502 #
straight-curve $-1 -51.701517631361995 12.693414853214001 14.315677273367783 -1 0 0 I I #
edge $-1 $459 -8.7182947701726761 $367 0.76805460409002535 $366 $503 forward 7 unknown #
vertex $-1 $458 $504 #
straight-curve $-1 -48.158207953123572 12.693414853214001 9.0278156462410521 0.81915203911291934 0 0.57357644374324357 I I #
point $-1 -40.606359055460672 12.693414853214001 14.315677273367781 #
point $-1 -48.158207953123572 3.2070654789513 9.0278156462410521 #
straight-curve $-1 -48.158207953123572 0 14.315677273367781 0 -1 0 I I #
vertex $-1 $373 $505 #
point $-1 -41.489594943067026 5.917451014454933 9.2840059094633691 #
vertex $-1 $377 $506 #
point $-1 -41.489594943067026 9.9830293177103755 9.2840059094633691 #
coedge $-1 $383 $382 $390 $473 forward $159 $-1 #
edge $-1 $476 -21.214899564750937 $386 -10.96051422066185 $385 $507 forward 7 unknown #
straight-curve $-1 15.779072254840496 -10.96051422066185 14.315677273367783 -1 0 0 I I #
point $-1 48.158207953123572 -10.96051422066185 14.315677273367781 #
straight-curve $-1 43.412700612240855 -8.0438534463531965 14.315677273367776 0 -1 0 I I #
edge $-1 $391 43.41270061224084 $476 48.158207953123572 $468 $508 forward 7 unknown #
point $-1 43.41270061224084 -21.214899564750937 14.315677273367783 #
point $-1 43.41270061224084 -10.96051422066185 14.315677273367783 #
vertex $-1 $469 $509 #
straight-curve $-1 48.158207953123572 -21.214899564750937 6.1346130756593533 0 0 -1 I I #
vertex $-1 $398 $510 #
point $-1 45.785939916563038 -18.285075180725482 10.838231255868802 #
vertex $-1 $402 $511 #
point $-1 45.785939916563038 -13.890338604687301 10.838231255868802 #
straight-curve $-1 -48.158207953123572 32.388441429016233 0 0 0 -1 I I #
point $-1 -48.158207953123572 -32.388441429016233 -14.315677273367781 #
straight-curve $-1 -48.158207953123572 0 -14.315677273367781 0 1 0 I I #
point $-1 -48.158207953123572 32.388441429016233 -14.315677273367781 #
coedge $-1 $428 $424 $433 $491 forward $310 $-1 #
vertex $-1 $425 $512 #
straight-curve $-1 -48.158207953123572 0 14.315677273367781 0 -1 0 I I #
point $-1 -48.158207953123572 -21.214899564750937 14.315677273367781 #
straight-curve $-1 48.158207953123572 0 14.315677273367781 0 1 0 I I #
edge $-1 $487 -48.158207953123572 $437 48.158207953123572 $433 $513 forward 7 unknown #
straight-curve $-1 -48.158207953123572 -32.388441429016233 0 0 0 -1 I I #
point $-1 48.158207953123572 -32.388441429016233 14.315677273367781 #
edge $-1 $452 -48.158207953123572 $496 48.158207953123572 $449 $514 forward 7 unknown #
straight-curve $-1 48.158207953123572 0 14.315677273367781 0 1 0 I I #
vertex $-1 $494 $515 #
straight-curve $-1 -48.158207953123572 0 14.315677273367781 0 -1 0 I I #
point $-1 48.158207953123572 21.214899564750933 14.315677273367781 #
straight-curve $-1 -48.158207953123572 32.388441429016233 0 0 0 -1 I I #
point $-1 48.158207953123572 32.388441429016233 14.315677273367781 #
straight-curve $-1 -48.158207953123572 12.693414853214001 43.962802067945709 0 0 -1 I I #
point $-1 -48.158207953123572 12.693414853214001 14.315677273367781 #
straight-curve $-1 -48.158207953123572 3.9751200830413254 9.0278156462410504 0 -1 0 I I #
point $-1 -48.158207953123572 12.693414853214001 9.0278156462410521 #
point $-1 -41.735170538436698 5.917451014454933 7.8912774266072061 #
point $-1 -41.735170538436698 9.9830293177103755 7.8912774266072061 #
straight-curve $-1 48.158207953123572 0 14.315677273367781 0 1 0 I I #
straight-curve $-1 0 -21.214899564750937 14.315677273367781 1 0 0 I I #
point $-1 48.158207953123572 -21.214899564750937 14.315677273367781 #
point $-1 44.382267685942033 -18.285075180725482 10.665881991340513 #
point $-1 44.382267685942033 -13.890338604687301 10.665881991340513 #
point $-1 -48.158207953123572 -32.388441429016233 14.315677273367781 #
straight-curve $-1 0 -32.388441429016233 14.315677273367781 1 0 0 I I #
straight-curve $-1 0 32.388441429016233 14.315677273367781 -1 0 0 I I #
point $-1 -48.158207953123572 32.388441429016233 14.315677273367781 #
End-of-ACIS-data 