500 0 10 0           
7 Unknown 11 ACIS 5.0 NT 24 Thu Mar 25 19:28:35 1999 
-1 9.9999999999999995e-007 1e-010 
body $-1 $10 $-1 $11 #
body $-1 $12 $-1 $13 #
body $-1 $14 $-1 $15 #
body $-1 $16 $-1 $17 #
body $-1 $18 $-1 $19 #
body $-1 $20 $-1 $21 #
body $-1 $22 $-1 $23 #
body $-1 $24 $-1 $25 #
body $-1 $26 $-1 $27 #
body $-1 $28 $-1 $29 #
lump $-1 $-1 $30 $0 #
transform $-1 1 0 0 0 1 0 0 0 1 55.957518234809413 33.574169392875547 13.288985562941354 1 rotate no_reflect no_shear #
lump $-1 $-1 $31 $1 #
transform $-1 1 0 0 0 1 0 0 0 1 55.957518234809413 33.574169392875547 13.288985562941354 1 rotate no_reflect no_shear #
lump $-1 $-1 $32 $2 #
transform $-1 1 0 0 0 1 0 0 0 1 55.957518234809413 33.574169392875547 13.288985562941354 1 rotate no_reflect no_shear #
lump $-1 $-1 $33 $3 #
transform $-1 1 0 0 0 1 0 0 0 1 55.957518234809413 33.574169392875547 13.288985562941354 1 rotate no_reflect no_shear #
lump $-1 $-1 $34 $4 #
transform $-1 1 0 0 0 1 0 0 0 1 55.957518234809413 33.574169392875547 13.288985562941354 1 rotate no_reflect no_shear #
lump $-1 $-1 $35 $5 #
transform $-1 1 0 0 0 1 0 0 0 1 55.957518234809413 33.574169392875547 13.288985562941354 1 rotate no_reflect no_shear #
lump $-1 $-1 $36 $6 #
transform $-1 1 0 0 0 1 0 0 0 1 55.957518234809413 33.574169392875547 13.288985562941354 1 rotate no_reflect no_shear #
lump $-1 $-1 $37 $7 #
transform $-1 1 0 0 0 1 0 0 0 1 55.957518234809413 33.574169392875547 13.288985562941354 1 rotate no_reflect no_shear #
lump $-1 $-1 $38 $8 #
transform $-1 1 0 0 0 1 0 0 0 1 55.957518234809413 33.574169392875547 13.288985562941354 1 rotate no_reflect no_shear #
lump $-1 $-1 $39 $9 #
transform $-1 1 0 0 0 1 0 0 0 1 55.957518234809413 33.574169392875547 13.288985562941354 1 rotate no_reflect no_shear #
shell $-1 $-1 $-1 $40 $-1 $10 #
shell $-1 $-1 $-1 $41 $-1 $12 #
shell $-1 $-1 $-1 $42 $-1 $14 #
shell $-1 $-1 $-1 $43 $-1 $16 #
shell $-1 $-1 $-1 $44 $-1 $18 #
shell $-1 $-1 $-1 $45 $-1 $20 #
shell $-1 $-1 $-1 $46 $-1 $22 #
shell $-1 $-1 $-1 $47 $-1 $24 #
shell $-1 $-1 $-1 $48 $-1 $26 #
shell $-1 $-1 $-1 $49 $-1 $28 #
face $-1 $50 $51 $30 $-1 $52 forward single #
face $-1 $53 $54 $31 $-1 $55 forward single #
face $-1 $56 $57 $32 $-1 $58 forward single #
face $-1 $59 $60 $33 $-1 $61 reversed single #
face $-1 $62 $63 $34 $-1 $64 forward single #
face $-1 $65 $66 $35 $-1 $67 forward single #
face $-1 $68 $69 $36 $-1 $70 reversed single #
face $-1 $71 $72 $37 $-1 $73 forward single #
face $-1 $74 $75 $38 $-1 $76 forward single #
face $-1 $77 $78 $39 $-1 $79 forward single #
face $-1 $80 $81 $30 $-1 $82 reversed single #
loop $-1 $-1 $83 $40 #
plane-surface $-1 0 0 13.288985562941354 0 0 1 1 0 0 forward_v I I I I #
face $-1 $84 $85 $31 $-1 $86 reversed single #
loop $-1 $-1 $87 $41 #
plane-surface $-1 0 -28.276853758333537 12.788985562941351 0 0 1 1 0 0 forward_v I I I I #
face $-1 $88 $89 $32 $-1 $90 reversed single #
loop $-1 $-1 $91 $42 #
plane-surface $-1 0 28.276853758333537 12.788985562941351 0 0 1 1 0 0 forward_v I I I I #
face $-1 $92 $93 $33 $-1 $94 reversed single #
loop $-1 $-1 $95 $43 #
plane-surface $-1 64.240824222826348 13.791912183370517 161.96264240141196 0 1 0 0.74314483375859142 0 0.66913059716165679 forward_v I I I I #
face $-1 $96 $97 $34 $-1 $98 forward single #
loop $-1 $99 $100 $44 #
cone-surface $-1 50.248440049839431 16.41694816634795 7.2607066043116371 -0.74314483375859142 0 -0.66913059716165679 0.66913059716165679 0 -0.74314483375859142 1 I I 0 1 1 forward I I I I #
face $-1 $101 $102 $35 $-1 $103 forward single #
loop $-1 $104 $105 $45 #
cone-surface $-1 50.248440049839431 20.354502140814098 7.2607066043116371 -0.74314483375859142 0 -0.66913059716165679 0.66913059716165679 0 -0.74314483375859142 1 I I 0 1 1 forward I I I I #
face $-1 $106 $107 $36 $-1 $108 reversed single #
loop $-1 $-1 $109 $46 #
plane-surface $-1 -130.84329534904117 3.6256056743977112 85.53981343524714 0 -1 0 0.66913061440640931 0 -0.74314481823134659 forward_v I I I I #
face $-1 $110 $111 $37 $-1 $112 forward single #
loop $-1 $113 $114 $47 #
cone-surface $-1 -49.555114375051893 -4.5759229909247949 7.4528839407976433 0.66913061440640931 0 -0.74314481823134659 0.3715724091156733 0 0.33456530720320465 1 I I 0 1 0.5 forward I I I I #
face $-1 $115 $116 $38 $-1 $117 forward single #
loop $-1 $118 $119 $48 #
cone-surface $-1 -49.555114375051893 -1.500349741428856 7.4528839407976433 0.66913061440640931 0 -0.74314481823134659 0.3715724091156733 0 0.33456530720320465 1 I I 0 1 0.5 forward I I I I #
face $-1 $120 $121 $39 $-1 $122 forward single #
loop $-1 $123 $124 $49 #
cone-surface $-1 -49.555114375051893 1.5752235080670829 7.4528839407976433 0.66913061440640931 0 -0.74314481823134659 0.3715724091156733 0 0.33456530720320465 1 I I 0 1 0.5 forward I I I I #
face $-1 $125 $126 $30 $-1 $127 reversed single #
loop $-1 $-1 $128 $50 #
plane-surface $-1 0 0 -13.288985562941354 0 0 1 1 0 0 forward_v I I I I #
coedge $-1 $129 $130 $131 $132 forward $51 $-1 #
face $-1 $133 $134 $31 $-1 $135 reversed single #
loop $-1 $-1 $136 $53 #
plane-surface $-1 0 -28.276853758333537 9.0279029397654273 0 0 1 1 0 0 forward_v I I I I #
coedge $-1 $137 $138 $139 $140 reversed $54 $-1 #
face $-1 $141 $142 $32 $-1 $143 reversed single #
loop $-1 $-1 $144 $56 #
plane-surface $-1 0 28.276853758333537 9.0279029397654273 0 0 1 1 0 0 forward_v I I I I #
coedge $-1 $145 $146 $147 $148 reversed $57 $-1 #
face $-1 $149 $150 $33 $-1 $151 forward single #
loop $-1 $-1 $152 $59 #
plane-surface $-1 -18.928256949475227 18.385725153581021 87.076867217127315 0.74314483375859142 0 0.66913059716165679 0.66913059716165679 0 -0.74314483375859142 forward_v I I I I #
coedge $-1 $153 $154 $155 $156 reversed $60 $-1 #
face $-1 $-1 $157 $34 $-1 $158 forward single #
loop $-1 $159 $160 $62 #
cone-surface $-1 48.39122433611351 16.41694816634795 5.5884621061588948 -0.74314483375859142 0 -0.66913059716165679 0.3345652985808284 0 -0.37157241687929571 1 I I -0.70710678118654746 0.70710678118654746 0.5 forward I I I I #
loop $-1 $-1 $161 $44 #
coedge $-1 $100 $100 $162 $163 reversed $63 $-1 #
face $-1 $-1 $164 $35 $-1 $165 forward single #
loop $-1 $166 $167 $65 #
cone-surface $-1 48.39122433611351 20.354502140814098 5.5884621061588948 -0.74314483375859142 0 -0.66913059716165679 0.3345652985808284 0 -0.37157241687929571 1 I I -0.70710678118654746 0.70710678118654746 0.5 forward I I I I #
loop $-1 $-1 $168 $45 #
coedge $-1 $105 $105 $169 $170 reversed $66 $-1 #
face $-1 $171 $172 $36 $-1 $173 reversed single #
loop $-1 $-1 $174 $68 #
plane-surface $-1 -55.957518234809427 -1.500349741428856 2.3707340006777287 -0.66913061440640931 0 0.74314481823134659 0.74314481823134659 0 0.66913061440640931 forward_v I I I I #
coedge $-1 $175 $176 $177 $178 reversed $69 $-1 #
face $-1 $-1 $179 $37 $-1 $180 forward single #
loop $-1 $181 $182 $71 #
cone-surface $-1 -49.048401142208682 -4.5759229909247949 6.8901218952279084 0.66913061440640931 0 -0.74314481823134659 0.18578620455783665 0 0.16728265360160233 1 I I -0.70710678118654746 0.70710678118654746 0.25 forward I I I I #
loop $-1 $-1 $183 $47 #
coedge $-1 $114 $114 $184 $185 reversed $72 $-1 #
face $-1 $-1 $186 $38 $-1 $187 forward single #
loop $-1 $188 $189 $74 #
cone-surface $-1 -49.048401142208682 -1.500349741428856 6.8901218952279084 0.66913061440640931 0 -0.74314481823134659 0.18578620455783665 0 0.16728265360160233 1 I I -0.70710678118654746 0.70710678118654746 0.25 forward I I I I #
loop $-1 $-1 $190 $48 #
coedge $-1 $119 $119 $191 $192 reversed $75 $-1 #
face $-1 $-1 $193 $39 $-1 $194 forward single #
loop $-1 $195 $196 $77 #
cone-surface $-1 -49.048401142208682 1.5752235080670829 6.8901218952279084 0.66913061440640931 0 -0.74314481823134659 0.18578620455783665 0 0.16728265360160233 1 I I -0.70710678118654746 0.70710678118654746 0.25 forward I I I I #
loop $-1 $-1 $197 $49 #
coedge $-1 $124 $124 $198 $199 reversed $78 $-1 #
face $-1 $200 $201 $30 $-1 $202 reversed single #
loop $-1 $-1 $203 $80 #
plane-surface $-1 0 -33.574169392875547 0 0 1 0 0 0 1 forward_v I I I I #
coedge $-1 $204 $205 $206 $207 forward $81 $-1 #
coedge $-1 $208 $83 $209 $210 forward $51 $-1 #
coedge $-1 $83 $208 $211 $212 forward $51 $-1 #
coedge $-1 $213 $214 $83 $132 reversed $215 $-1 #
edge $-1 $216 -33.574169392875547 $217 33.574169392875547 $131 $218 forward 7 unknown #
face $-1 $219 $220 $31 $-1 $221 reversed single #
loop $-1 $-1 $222 $84 #
plane-surface $-1 0 -22.979538123791528 10.908444251353389 0 -1 0 0 0 -1 forward_v I I I I #
coedge $-1 $223 $224 $225 $226 reversed $85 $-1 #
coedge $-1 $227 $87 $228 $229 forward $54 $-1 #
coedge $-1 $87 $227 $230 $231 reversed $54 $-1 #
coedge $-1 $232 $233 $87 $140 forward $234 $-1 #
edge $-1 $235 8.8411112446247593 $236 19.435742513708778 $139 $237 forward 7 unknown #
face $-1 $238 $239 $32 $-1 $240 reversed single #
loop $-1 $-1 $241 $88 #
plane-surface $-1 0 22.979538123791528 10.908444251353389 0 1 0 0 0 1 forward_v I I I I #
coedge $-1 $242 $243 $244 $245 reversed $89 $-1 #
coedge $-1 $246 $91 $247 $248 reversed $57 $-1 #
coedge $-1 $91 $246 $249 $250 forward $57 $-1 #
coedge $-1 $251 $252 $91 $148 forward $239 $-1 #
edge $-1 $253 -19.435742513708778 $254 -8.8411112446247593 $147 $255 forward 7 unknown #
face $-1 $256 $257 $33 $-1 $258 reversed single #
loop $-1 $-1 $259 $92 #
plane-surface $-1 0 0 13.288985562941354 0 0 1 1 0 0 forward_v I I I I #
coedge $-1 $260 $261 $262 $263 reversed $93 $-1 #
coedge $-1 $154 $95 $264 $265 reversed $60 $-1 #
coedge $-1 $95 $153 $260 $266 reversed $60 $-1 #
coedge $-1 $262 $267 $95 $156 forward $257 $-1 #
edge $-1 $268 67.692335637764629 $269 77.073535155880236 $155 $270 forward 7 unknown #
loop $-1 $-1 $162 $96 #
plane-surface $-1 -18.928256949475227 18.385725153581021 87.076867217127315 0.74314483375859142 0 0.66913059716165679 0.66913059716165679 0 -0.74314483375859142 forward_v I I I I #
loop $-1 $-1 $271 $62 #
coedge $-1 $160 $160 $161 $272 reversed $97 $-1 #
coedge $-1 $161 $161 $160 $272 forward $99 $-1 #
coedge $-1 $162 $162 $100 $163 forward $157 $-1 #
edge $-1 $273 0 $273 6.2831853071796004 $162 $274 forward 7 unknown #
loop $-1 $-1 $169 $101 #
plane-surface $-1 -18.928256949475227 18.385725153581021 87.076867217127315 0.74314483375859142 0 0.66913059716165679 0.66913059716165679 0 -0.74314483375859142 forward_v I I I I #
loop $-1 $-1 $275 $65 #
coedge $-1 $167 $167 $168 $276 reversed $102 $-1 #
coedge $-1 $168 $168 $167 $276 forward $104 $-1 #
coedge $-1 $169 $169 $105 $170 forward $164 $-1 #
edge $-1 $277 0 $277 6.2831853071796004 $169 $278 forward 7 unknown #
face $-1 $279 $280 $36 $-1 $281 reversed single #
loop $-1 $-1 $282 $106 #
plane-surface $-1 -130.84329534904117 -6.6263051572554232 85.53981343524714 0 1 0 -0.66913061440640931 0 0.74314481823134659 forward_v I I I I #
coedge $-1 $283 $284 $285 $286 reversed $107 $-1 #
coedge $-1 $176 $109 $287 $288 reversed $69 $-1 #
coedge $-1 $109 $175 $283 $289 reversed $69 $-1 #
coedge $-1 $285 $290 $109 $178 forward $280 $-1 #
edge $-1 $291 29.480921154682214 $292 40.399172716945827 $177 $293 forward 7 unknown #
loop $-1 $-1 $184 $110 #
plane-surface $-1 -55.957518234809427 -1.500349741428856 2.3707340006777287 -0.66913061440640931 0 0.74314481823134659 0.74314481823134659 0 0.66913061440640931 forward_v I I I I #
loop $-1 $-1 $294 $71 #
coedge $-1 $182 $182 $183 $295 reversed $111 $-1 #
coedge $-1 $183 $183 $182 $295 forward $113 $-1 #
coedge $-1 $184 $184 $114 $185 forward $179 $-1 #
edge $-1 $296 0 $296 6.2831853071796004 $184 $297 forward 7 unknown #
loop $-1 $-1 $191 $115 #
plane-surface $-1 -55.957518234809427 -1.500349741428856 2.3707340006777287 -0.66913061440640931 0 0.74314481823134659 0.74314481823134659 0 0.66913061440640931 forward_v I I I I #
loop $-1 $-1 $298 $74 #
coedge $-1 $189 $189 $190 $299 reversed $116 $-1 #
coedge $-1 $190 $190 $189 $299 forward $118 $-1 #
coedge $-1 $191 $191 $119 $192 forward $186 $-1 #
edge $-1 $300 0 $300 6.2831853071796004 $191 $301 forward 7 unknown #
loop $-1 $-1 $198 $120 #
plane-surface $-1 -55.957518234809427 -1.500349741428856 2.3707340006777287 -0.66913061440640931 0 0.74314481823134659 0.74314481823134659 0 0.66913061440640931 forward_v I I I I #
loop $-1 $-1 $302 $77 #
coedge $-1 $196 $196 $197 $303 reversed $121 $-1 #
coedge $-1 $197 $197 $196 $303 forward $123 $-1 #
coedge $-1 $198 $198 $124 $199 forward $193 $-1 #
edge $-1 $304 0 $304 6.2831853071796004 $198 $305 forward 7 unknown #
face $-1 $306 $307 $30 $-1 $308 reversed single #
loop $-1 $-1 $309 $125 #
plane-surface $-1 -55.957518234809413 0 0 1 0 0 0 0 -1 forward_v I I I I #
coedge $-1 $310 $211 $311 $312 forward $126 $-1 #
coedge $-1 $313 $128 $310 $314 forward $81 $-1 #
coedge $-1 $128 $313 $315 $316 forward $81 $-1 #
coedge $-1 $214 $213 $128 $207 reversed $215 $-1 #
edge $-1 $317 -33.574169392875547 $318 33.574169392875547 $206 $319 forward 7 unknown #
coedge $-1 $130 $129 $320 $321 forward $51 $-1 #
coedge $-1 $322 $323 $129 $210 reversed $307 $-1 #
edge $-1 $217 -55.957518234809413 $324 55.957518234809413 $209 $325 forward 7 unknown #
coedge $-1 $203 $326 $130 $212 reversed $126 $-1 #
edge $-1 $327 -55.957518234809413 $216 55.957518234809413 $211 $328 forward 7 unknown #
coedge $-1 $206 $131 $326 $329 forward $215 $-1 #
coedge $-1 $131 $206 $322 $330 reversed $215 $-1 #
loop $-1 $-1 $213 $306 #
vertex $-1 $132 $331 #
vertex $-1 $132 $332 #
straight-curve $-1 55.957518234809413 0 13.288985562941354 0 1 0 I I #
face $-1 $333 $334 $31 $-1 $335 reversed single #
loop $-1 $-1 $336 $133 #
plane-surface $-1 -55.957518234809413 0 0 1 0 0 0 0 -1 forward_v I I I I #
coedge $-1 $337 $228 $233 $338 reversed $134 $-1 #
coedge $-1 $339 $136 $340 $341 reversed $85 $-1 #
coedge $-1 $136 $339 $337 $342 forward $85 $-1 #
coedge $-1 $233 $232 $136 $226 forward $234 $-1 #
edge $-1 $343 -19.435742513708778 $344 -8.8411112446247593 $225 $345 forward 7 unknown #
coedge $-1 $138 $137 $336 $346 reversed $54 $-1 #
coedge $-1 $222 $347 $137 $229 reversed $134 $-1 #
edge $-1 $235 -55.957518234809413 $348 55.957518234809413 $228 $349 forward 7 unknown #
coedge $-1 $350 $351 $138 $231 forward $334 $-1 #
edge $-1 $236 -55.957518234809413 $352 55.957518234809413 $230 $353 forward 7 unknown #
coedge $-1 $225 $139 $351 $354 forward $234 $-1 #
coedge $-1 $139 $225 $222 $338 forward $234 $-1 #
loop $-1 $-1 $139 $333 #
vertex $-1 $140 $355 #
vertex $-1 $354 $356 #
straight-curve $-1 55.957518234809413 -14.138426879166769 12.788985562941351 0 -1 0 I I #
face $-1 $357 $358 $32 $-1 $359 reversed single #
loop $-1 $-1 $147 $141 #
plane-surface $-1 55.957518234809413 0 0 -1 0 0 0 0 1 forward_v I I I I #
coedge $-1 $360 $249 $361 $362 reversed $142 $-1 #
coedge $-1 $363 $144 $360 $364 forward $89 $-1 #
coedge $-1 $144 $363 $365 $366 reversed $89 $-1 #
coedge $-1 $252 $251 $144 $245 forward $239 $-1 #
edge $-1 $367 8.8411112446247593 $368 19.435742513708778 $244 $369 forward 7 unknown #
coedge $-1 $146 $145 $370 $371 reversed $57 $-1 #
coedge $-1 $372 $373 $145 $248 forward $374 $-1 #
edge $-1 $375 -55.957518234809413 $253 55.957518234809413 $247 $376 forward 7 unknown #
coedge $-1 $241 $377 $146 $250 reversed $142 $-1 #
edge $-1 $378 -55.957518234809413 $254 55.957518234809413 $249 $379 forward 7 unknown #
coedge $-1 $244 $147 $377 $380 forward $239 $-1 #
coedge $-1 $147 $244 $372 $381 reversed $239 $-1 #
vertex $-1 $381 $382 #
vertex $-1 $148 $383 #
straight-curve $-1 55.957518234809413 14.138426879166769 12.788985562941351 0 -1 0 I I #
face $-1 $-1 $384 $33 $-1 $385 forward single #
loop $-1 $-1 $386 $149 #
plane-surface $-1 55.957518234809413 0 0 -1 0 0 0 0 1 forward_v I I I I #
coedge $-1 $387 $388 $389 $390 forward $150 $-1 #
coedge $-1 $391 $152 $154 $266 forward $93 $-1 #
coedge $-1 $152 $391 $392 $393 forward $93 $-1 #
coedge $-1 $386 $155 $152 $263 forward $257 $-1 #
edge $-1 $269 4.5990496065800066 $394 13.786675547001014 $262 $395 forward 7 unknown #
coedge $-1 $388 $387 $153 $265 forward $150 $-1 #
edge $-1 $396 15.390236347149511 $268 23.837106123396239 $264 $397 forward 7 unknown #
edge $-1 $269 -111.9150364696188 $396 -99.29138749574588 $154 $398 forward 7 unknown #
coedge $-1 $155 $386 $388 $399 reversed $257 $-1 #
vertex $-1 $399 $400 #
vertex $-1 $156 $401 #
straight-curve $-1 55.957518234809413 13.791912183370517 80.981321200705978 0 0 -1 I I #
coedge $-1 $271 $271 $-1 $402 reversed $159 $-1 #
edge $-1 $403 0 $403 6.2831853071796004 $160 $404 forward 7 unknown #
vertex $-1 $163 $405 #
ellipse-curve $-1 51.734083346686049 16.41694816634795 8.5983858038835468 0.74314483375859142 0 0.66913059716165679 0.66913059716165679 0 -0.74314483375859142 1 I I #
coedge $-1 $275 $275 $-1 $406 reversed $166 $-1 #
edge $-1 $407 0 $407 6.2831853071796004 $167 $408 forward 7 unknown #
vertex $-1 $170 $409 #
ellipse-curve $-1 51.734083346686049 20.354502140814098 8.5983858038835468 0.74314483375859142 0 0.66913059716165679 0.66913059716165679 0 -0.74314483375859142 1 I I #
face $-1 $-1 $410 $36 $-1 $411 forward single #
loop $-1 $-1 $177 $171 #
plane-surface $-1 -55.957518234809413 0 0 1 0 0 0 0 -1 forward_v I I I I #
coedge $-1 $412 $413 $414 $415 reversed $172 $-1 #
coedge $-1 $416 $174 $176 $289 forward $107 $-1 #
coedge $-1 $174 $416 $412 $417 forward $107 $-1 #
coedge $-1 $414 $177 $174 $286 forward $280 $-1 #
edge $-1 $292 -4.3757805451121392 $418 5.8761302865409952 $285 $419 forward 7 unknown #
coedge $-1 $420 $421 $175 $288 forward $410 $-1 #
edge $-1 $422 -21.590076000742997 $291 -9.4641294397111722 $287 $423 forward 7 unknown #
edge $-1 $292 1.9178179933549516e-014 $422 16.317070729082225 $176 $424 forward 7 unknown #
coedge $-1 $177 $414 $420 $425 reversed $280 $-1 #
vertex $-1 $425 $426 #
vertex $-1 $178 $427 #
straight-curve $-1 -55.957518234809413 3.6256056743977112 42.76990671762357 0 0 -1 I I #
coedge $-1 $294 $294 $-1 $428 reversed $181 $-1 #
edge $-1 $429 0 $429 6.2831853071796004 $182 $430 forward 7 unknown #
vertex $-1 $185 $431 #
ellipse-curve $-1 -49.894544954293501 -4.5759229909247949 7.8298597818095468 -0.66913061440640931 0 0.74314481823134659 0.3715724091156733 0 0.33456530720320465 1 I I #
coedge $-1 $298 $298 $-1 $432 reversed $188 $-1 #
edge $-1 $433 0 $433 6.2831853071796004 $189 $434 forward 7 unknown #
vertex $-1 $192 $435 #
ellipse-curve $-1 -49.894544954293501 -1.500349741428856 7.8298597818095468 -0.66913061440640931 0 0.74314481823134659 0.3715724091156733 0 0.33456530720320465 1 I I #
coedge $-1 $302 $302 $-1 $436 reversed $195 $-1 #
edge $-1 $437 0 $437 6.2831853071796004 $196 $438 forward 7 unknown #
vertex $-1 $199 $439 #
ellipse-curve $-1 -49.894544954293501 1.5752235080670829 7.8298597818095468 -0.66913061440640931 0 0.74314481823134659 0.3715724091156733 0 0.33456530720320465 1 I I #
face $-1 $-1 $215 $30 $-1 $440 reversed single #
loop $-1 $-1 $322 $200 #
plane-surface $-1 0 33.574169392875547 0 0 -1 0 0 0 -1 forward_v I I I I #
coedge $-1 $441 $320 $323 $442 forward $201 $-1 #
coedge $-1 $326 $203 $204 $314 reversed $126 $-1 #
coedge $-1 $320 $441 $203 $312 reversed $201 $-1 #
edge $-1 $327 -13.288985562941354 $443 13.288985562941354 $311 $444 forward 7 unknown #
coedge $-1 $205 $204 $441 $445 forward $81 $-1 #
edge $-1 $318 -55.957518234809413 $443 55.957518234809413 $310 $446 forward 7 unknown #
coedge $-1 $323 $322 $205 $316 reversed $307 $-1 #
edge $-1 $447 -55.957518234809413 $317 55.957518234809413 $315 $448 forward 7 unknown #
vertex $-1 $207 $449 #
vertex $-1 $329 $450 #
straight-curve $-1 55.957518234809413 0 -13.288985562941354 0 -1 0 I I #
coedge $-1 $309 $311 $208 $321 reversed $201 $-1 #
edge $-1 $324 -33.574169392875547 $327 33.574169392875547 $320 $451 forward 7 unknown #
coedge $-1 $315 $209 $214 $330 forward $307 $-1 #
coedge $-1 $209 $315 $309 $442 reversed $307 $-1 #
vertex $-1 $210 $452 #
straight-curve $-1 0 33.574169392875547 13.288985562941354 -1 0 0 I I #
coedge $-1 $211 $310 $213 $329 reversed $126 $-1 #
vertex $-1 $321 $453 #
straight-curve $-1 0 -33.574169392875547 13.288985562941354 1 0 0 I I #
edge $-1 $216 -13.288985562941354 $318 13.288985562941354 $213 $454 forward 7 unknown #
edge $-1 $217 -13.288985562941354 $317 13.288985562941354 $214 $455 forward 7 unknown #
point $-1 55.957518234809413 -33.574169392875547 13.288985562941354 #
point $-1 55.957518234809413 33.574169392875547 13.288985562941354 #
face $-1 $-1 $234 $31 $-1 $456 reversed single #
loop $-1 $-1 $230 $219 #
plane-surface $-1 0 -33.574169392875547 0 0 1 0 0 0 1 forward_v I I I I #
coedge $-1 $457 $458 $227 $346 forward $220 $-1 #
coedge $-1 $347 $222 $224 $342 reversed $134 $-1 #
edge $-1 $344 3.5736808140887328 $235 7.3347634372646562 $233 $459 forward 7 unknown #
coedge $-1 $224 $223 $460 $461 reversed $85 $-1 #
coedge $-1 $351 $350 $223 $341 forward $334 $-1 #
edge $-1 $462 -55.957518234809413 $343 55.957518234809413 $340 $463 forward 7 unknown #
edge $-1 $464 -55.957518234809413 $344 55.957518234809413 $337 $465 forward 7 unknown #
vertex $-1 $341 $466 #
vertex $-1 $226 $467 #
straight-curve $-1 55.957518234809413 -14.138426879166769 9.0279029397654273 0 1 0 I I #
edge $-1 $352 -19.435742513708778 $348 -8.8411112446247593 $336 $468 forward 7 unknown #
coedge $-1 $228 $337 $457 $469 reversed $134 $-1 #
vertex $-1 $346 $470 #
straight-curve $-1 0 -22.979538123791528 12.788985562941351 -1 0 0 I I #
coedge $-1 $340 $230 $458 $471 forward $334 $-1 #
coedge $-1 $230 $340 $232 $354 reversed $334 $-1 #
vertex $-1 $471 $472 #
straight-curve $-1 0 -33.574169392875547 12.788985562941351 -1 0 0 I I #
edge $-1 $236 -12.788985562941351 $343 -9.0279029397654273 $232 $473 forward 7 unknown #
point $-1 55.957518234809413 -22.979538123791528 12.788985562941351 #
point $-1 55.957518234809413 -33.574169392875547 12.788985562941351 #
face $-1 $-1 $374 $32 $-1 $474 reversed single #
loop $-1 $-1 $370 $238 #
plane-surface $-1 -55.957518234809413 0 0 1 0 0 0 0 -1 forward_v I I I I #
coedge $-1 $377 $241 $242 $364 reversed $142 $-1 #
coedge $-1 $370 $475 $241 $362 forward $358 $-1 #
edge $-1 $476 3.5736808140887328 $378 7.3347634372646562 $361 $477 forward 7 unknown #
coedge $-1 $243 $242 $475 $478 reversed $89 $-1 #
edge $-1 $367 -55.957518234809413 $476 55.957518234809413 $360 $479 forward 7 unknown #
coedge $-1 $373 $372 $243 $366 forward $374 $-1 #
edge $-1 $368 -55.957518234809413 $480 55.957518234809413 $365 $481 forward 7 unknown #
vertex $-1 $245 $482 #
vertex $-1 $366 $483 #
straight-curve $-1 55.957518234809413 14.138426879166769 9.0279029397654273 0 1 0 I I #
coedge $-1 $484 $361 $246 $371 forward $358 $-1 #
edge $-1 $378 8.8411112446247593 $375 19.435742513708778 $370 $485 forward 7 unknown #
coedge $-1 $365 $247 $252 $381 forward $374 $-1 #
coedge $-1 $247 $365 $484 $486 reversed $374 $-1 #
loop $-1 $-1 $247 $357 #
vertex $-1 $486 $487 #
straight-curve $-1 0 33.574169392875547 12.788985562941351 1 0 0 I I #
coedge $-1 $249 $360 $251 $380 reversed $142 $-1 #
vertex $-1 $371 $488 #
straight-curve $-1 0 22.979538123791528 12.788985562941351 1 0 0 I I #
edge $-1 $254 -7.3347634372646562 $367 -3.5736808140887328 $251 $489 forward 7 unknown #
edge $-1 $253 -12.788985562941351 $368 -9.0279029397654273 $252 $490 forward 7 unknown #
point $-1 55.957518234809413 33.574169392875547 12.788985562941351 #
point $-1 55.957518234809413 22.979538123791528 12.788985562941351 #
loop $-1 $-1 $392 $256 #
plane-surface $-1 0 22.979538123791528 10.908444251353389 0 1 0 0 0 1 forward_v I I I I #
coedge $-1 $267 $262 $491 $492 forward $257 $-1 #
coedge $-1 $264 $259 $391 $493 forward $150 $-1 #
coedge $-1 $259 $264 $267 $399 forward $150 $-1 #
coedge $-1 $491 $392 $259 $390 reversed $384 $-1 #
edge $-1 $494 -23.837106123396239 $495 -15.390236347149511 $259 $496 forward 7 unknown #
coedge $-1 $261 $260 $387 $493 reversed $93 $-1 #
coedge $-1 $389 $491 $261 $393 reversed $384 $-1 #
edge $-1 $495 99.29138749574588 $394 111.9150364696188 $392 $497 forward 7 unknown #
vertex $-1 $492 $498 #
straight-curve $-1 55.95751823480942 9.1928625767905103 3.9077860448257269 0 1 0 I I #
vertex $-1 $265 $499 #
straight-curve $-1 32.120412111413174 13.791912183370517 13.288985562941349 1 0 0 I I #
straight-curve $-1 -18.928256949475227 13.791912183370517 87.076867217127315 -0.66913059716165679 0 0.74314483375859142 I I #
edge $-1 $268 13.791912183370517 $494 22.979538123791524 $267 $500 forward 7 unknown #
point $-1 55.957518234809413 13.791912183370517 13.288985562941354 #
point $-1 55.957518234809413 13.791912183370517 3.9077860448257411 #
edge $-1 $501 1 $501 0 $271 $-1 forward 7 unknown #
vertex $-1 $272 $502 #
ellipse-curve $-1 48.762796752992806 16.41694816634795 5.9230274047397229 0.74314483375859142 0 0.66913059716165679 0.66913059716165679 0 -0.74314483375859142 1 I I #
point $-1 52.403213943847717 16.41694816634795 7.8552409701249601 #
edge $-1 $503 1 $503 0 $275 $-1 forward 7 unknown #
vertex $-1 $276 $504 #
ellipse-curve $-1 48.762796752992806 20.354502140814098 5.9230274047397229 0.74314483375859142 0 0.66913059716165679 0.66913059716165679 0 -0.74314483375859142 1 I I #
point $-1 52.403213943847717 20.354502140814098 7.8552409701249601 #
loop $-1 $-1 $287 $279 #
plane-surface $-1 0 0 13.288985562941354 0 0 1 1 0 0 forward_v I I I I #
coedge $-1 $413 $282 $284 $417 reversed $172 $-1 #
coedge $-1 $282 $412 $505 $506 reversed $172 $-1 #
coedge $-1 $290 $285 $282 $415 forward $280 $-1 #
edge $-1 $418 -40.399172716945827 $507 -29.480921154682214 $414 $508 forward 7 unknown #
coedge $-1 $284 $283 $421 $509 reversed $107 $-1 #
edge $-1 $510 -16.317070729082225 $418 -1.9178179933549516e-014 $412 $511 forward 7 unknown #
vertex $-1 $286 $512 #
straight-curve $-1 -55.957518234809413 -0.75017487071442801 2.3707340006777384 0 -1 0 I I #
coedge $-1 $505 $287 $290 $425 forward $410 $-1 #
coedge $-1 $287 $505 $416 $509 forward $410 $-1 #
vertex $-1 $288 $513 #
straight-curve $-1 -65.421647674520585 3.6256056743977112 13.288985562941356 -1 0 0 I I #
straight-curve $-1 -55.957518234809427 3.6256056743977112 2.3707340006777287 0.74314481823134659 0 0.66913061440640931 I I #
edge $-1 $291 -3.6256056743977112 $507 6.6263051572554232 $290 $514 forward 7 unknown #
point $-1 -55.957518234809413 3.6256056743977112 13.288985562941354 #
point $-1 -55.957518234809413 3.6256056743977112 2.3707340006777415 #
edge $-1 $515 1 $515 0 $294 $-1 forward 7 unknown #
vertex $-1 $295 $516 #
ellipse-curve $-1 -49.215683795810286 -4.5759229909247949 7.0759080997857451 -0.66913061440640931 0 0.74314481823134659 0.3715724091156733 0 0.33456530720320465 1 I I #
point $-1 -49.522972545177822 -4.5759229909247949 8.164425089012747 #
edge $-1 $517 1 $517 0 $298 $-1 forward 7 unknown #
vertex $-1 $299 $518 #
ellipse-curve $-1 -49.215683795810286 -1.500349741428856 7.0759080997857451 -0.66913061440640931 0 0.74314481823134659 0.3715724091156733 0 0.33456530720320465 1 I I #
point $-1 -49.522972545177822 -1.500349741428856 8.164425089012747 #
edge $-1 $519 1 $519 0 $302 $-1 forward 7 unknown #
vertex $-1 $303 $520 #
ellipse-curve $-1 -49.215683795810286 1.5752235080670829 7.0759080997857451 -0.66913061440640931 0 0.74314481823134659 0.3715724091156733 0 0.33456530720320465 1 I I #
point $-1 -49.522972545177822 1.5752235080670829 8.164425089012747 #
plane-surface $-1 55.957518234809413 0 0 -1 0 0 0 0 1 forward_v I I I I #
coedge $-1 $311 $309 $313 $445 reversed $201 $-1 #
edge $-1 $324 -13.288985562941354 $447 13.288985562941354 $323 $521 forward 7 unknown #
vertex $-1 $445 $522 #
straight-curve $-1 -55.957518234809413 -33.574169392875547 0 0 0 -1 I I #
edge $-1 $443 -33.574169392875547 $447 33.574169392875547 $441 $523 forward 7 unknown #
straight-curve $-1 0 -33.574169392875547 -13.288985562941354 -1 0 0 I I #
vertex $-1 $316 $524 #
straight-curve $-1 0 33.574169392875547 -13.288985562941354 1 0 0 I I #
point $-1 55.957518234809413 33.574169392875547 -13.288985562941354 #
point $-1 55.957518234809413 -33.574169392875547 -13.288985562941354 #
straight-curve $-1 -55.957518234809413 0 13.288985562941354 0 -1 0 I I #
point $-1 -55.957518234809413 33.574169392875547 13.288985562941354 #
point $-1 -55.957518234809413 -33.574169392875547 13.288985562941354 #
straight-curve $-1 55.957518234809413 -33.574169392875547 0 0 0 -1 I I #
straight-curve $-1 55.957518234809413 33.574169392875547 0 0 0 -1 I I #
plane-surface $-1 55.957518234809413 0 0 -1 0 0 0 0 1 forward_v I I I I #
coedge $-1 $460 $336 $347 $469 forward $220 $-1 #
coedge $-1 $336 $460 $350 $471 reversed $220 $-1 #
straight-curve $-1 55.957518234809413 -22.979538123791528 5.4542221256766945 0 0 1 I I #
coedge $-1 $458 $457 $339 $461 forward $220 $-1 #
edge $-1 $464 8.8411112446247593 $462 19.435742513708778 $460 $525 forward 7 unknown #
vertex $-1 $341 $526 #
straight-curve $-1 0 -33.574169392875547 9.0279029397654273 1 0 0 I I #
vertex $-1 $461 $527 #
straight-curve $-1 0 -22.979538123791528 9.0279029397654273 1 0 0 I I #
point $-1 55.957518234809413 -33.574169392875547 9.0279029397654273 #
point $-1 55.957518234809413 -22.979538123791528 9.0279029397654273 #
straight-curve $-1 -55.957518234809413 -14.138426879166769 12.788985562941351 0 1 0 I I #
edge $-1 $348 -7.3347634372646562 $464 -3.5736808140887328 $457 $528 forward 7 unknown #
point $-1 -55.957518234809413 -22.979538123791528 12.788985562941351 #
edge $-1 $352 -12.788985562941351 $462 -9.0279029397654273 $458 $529 forward 7 unknown #
point $-1 -55.957518234809413 -33.574169392875547 12.788985562941351 #
straight-curve $-1 55.957518234809413 -33.574169392875547 0 0 0 -1 I I #
plane-surface $-1 0 33.574169392875547 0 0 -1 0 0 0 -1 forward_v I I I I #
coedge $-1 $361 $484 $363 $478 forward $358 $-1 #
vertex $-1 $478 $530 #
straight-curve $-1 -55.957518234809413 22.979538123791528 5.4542221256766945 0 0 1 I I #
edge $-1 $480 -19.435742513708778 $476 -8.8411112446247593 $475 $531 forward 7 unknown #
straight-curve $-1 0 22.979538123791528 9.0279029397654273 -1 0 0 I I #
vertex $-1 $366 $532 #
straight-curve $-1 0 33.574169392875547 9.0279029397654273 -1 0 0 I I #
point $-1 55.957518234809413 22.979538123791528 9.0279029397654273 #
point $-1 55.957518234809413 33.574169392875547 9.0279029397654273 #
coedge $-1 $475 $370 $373 $486 forward $358 $-1 #
straight-curve $-1 -55.957518234809413 14.138426879166769 12.788985562941351 0 1 0 I I #
edge $-1 $375 -12.788985562941351 $480 -9.0279029397654273 $373 $533 forward 7 unknown #
point $-1 -55.957518234809413 33.574169392875547 12.788985562941351 #
point $-1 -55.957518234809413 22.979538123791528 12.788985562941351 #
straight-curve $-1 55.957518234809413 22.979538123791528 5.4542221256766945 0 0 -1 I I #
straight-curve $-1 55.957518234809413 33.574169392875547 0 0 0 -1 I I #
coedge $-1 $392 $389 $386 $492 reversed $384 $-1 #
edge $-1 $394 -77.073535155880236 $494 -67.692335637764629 $386 $534 forward 7 unknown #
edge $-1 $495 -13.786675547001014 $396 -4.5990496065800066 $387 $535 forward 7 unknown #
vertex $-1 $390 $536 #
vertex $-1 $390 $537 #
straight-curve $-1 32.120412111413174 22.979538123791524 13.288985562941349 -1 0 0 I I #
straight-curve $-1 -18.928256949475227 22.979538123791524 87.076867217127315 0.66913059716165679 0 -0.74314483375859142 I I #
point $-1 55.957518234809413 22.979538123791524 3.9077860448257411 #
point $-1 47.510648458562684 13.791912183370517 13.288985562941349 #
straight-curve $-1 55.957518234809413 0 13.288985562941354 0 1 0 I I #
vertex $-1 $402 $538 #
point $-1 49.43192735015446 16.41694816634795 5.1798825709811318 #
vertex $-1 $406 $539 #
point $-1 49.43192735015446 20.354502140814098 5.1798825709811318 #
coedge $-1 $421 $420 $413 $506 forward $410 $-1 #
edge $-1 $507 9.4641294397111722 $510 21.590076000742997 $505 $540 forward 7 unknown #
vertex $-1 $506 $541 #
straight-curve $-1 -55.957518234809413 -6.6263051572554232 42.76990671762357 0 0 1 I I #
edge $-1 $510 -5.8761302865409952 $422 4.3757805451121392 $421 $542 forward 7 unknown #
vertex $-1 $509 $543 #
straight-curve $-1 -55.957518234809427 -6.6263051572554232 2.3707340006777287 -0.74314481823134659 0 -0.66913061440640931 I I #
point $-1 -55.957518234809413 -6.6263051572554232 2.3707340006777415 #
point $-1 -43.831571673777589 3.6256056743977112 13.288985562941354 #
straight-curve $-1 -55.957518234809413 0 13.288985562941354 0 -1 0 I I #
vertex $-1 $428 $544 #
point $-1 -48.844111386694614 -4.5759229909247949 7.4104734069889497 #
vertex $-1 $432 $545 #
point $-1 -48.844111386694614 -1.500349741428856 7.4104734069889497 #
vertex $-1 $436 $546 #
point $-1 -48.844111386694614 1.5752235080670829 7.4104734069889497 #
straight-curve $-1 -55.957518234809413 33.574169392875547 0 0 0 -1 I I #
point $-1 -55.957518234809413 -33.574169392875547 -13.288985562941354 #
straight-curve $-1 -55.957518234809413 0 -13.288985562941354 0 1 0 I I #
point $-1 -55.957518234809413 33.574169392875547 -13.288985562941354 #
straight-curve $-1 -55.957518234809413 -14.138426879166769 9.0279029397654273 0 -1 0 I I #
point $-1 -55.957518234809413 -33.574169392875547 9.0279029397654273 #
point $-1 -55.957518234809413 -22.979538123791528 9.0279029397654273 #
straight-curve $-1 -55.957518234809413 -22.979538123791528 5.4542221256766945 0 0 -1 I I #
straight-curve $-1 -55.957518234809413 -33.574169392875547 0 0 0 -1 I I #
point $-1 -55.957518234809413 22.979538123791528 9.0279029397654273 #
straight-curve $-1 -55.957518234809413 14.138426879166769 9.0279029397654273 0 -1 0 I I #
point $-1 -55.957518234809413 33.574169392875547 9.0279029397654273 #
straight-curve $-1 -55.957518234809413 33.574169392875547 0 0 0 -1 I I #
straight-curve $-1 55.957518234809413 22.979538123791524 80.981321200705978 0 0 1 I I #
straight-curve $-1 47.51064845856267 9.1928625767905103 13.288985562941363 0 -1 0 I I #
point $-1 55.957518234809413 22.979538123791524 13.288985562941354 #
point $-1 47.510648458562684 22.979538123791524 13.288985562941349 #
point $-1 48.019651919234214 16.41694816634795 5.2538968075780668 #
point $-1 48.019651919234214 20.354502140814098 5.2538968075780668 #
straight-curve $-1 -65.421647674520585 -6.6263051572554232 13.288985562941356 1 0 0 I I #
point $-1 -55.957518234809413 -6.6263051572554232 13.288985562941354 #
straight-curve $-1 -43.831571673777589 -0.75017487071442801 13.288985562941352 0 1 0 I I #
point $-1 -43.831571673777589 -6.6263051572554232 13.288985562941354 #
point $-1 -48.881118488607079 -4.5759229909247949 6.7043356906700717 #
point $-1 -48.881118488607079 -1.500349741428856 6.7043356906700717 #
point $-1 -48.881118488607079 1.5752235080670829 6.7043356906700717 #
End-of-ACIS-data 