500 0 11 0           
7 Unknown 11 ACIS 5.0 NT 24 Fri Mar 26 02:46:53 1999 
-1 9.9999999999999995e-007 1e-010 
body $-1 $11 $-1 $12 #
body $-1 $13 $-1 $14 #
body $-1 $15 $-1 $16 #
body $-1 $17 $-1 $18 #
body $-1 $19 $-1 $20 #
body $-1 $21 $-1 $22 #
body $-1 $23 $-1 $24 #
body $-1 $25 $-1 $26 #
body $-1 $27 $-1 $28 #
body $-1 $29 $-1 $30 #
body $-1 $31 $-1 $32 #
lump $-1 $-1 $33 $0 #
transform $-1 1 0 0 0 1 0 0 0 1 62.815637684255499 31.320210130858165 7.6699960983014979 1 rotate no_reflect no_shear #
lump $-1 $-1 $34 $1 #
transform $-1 1 0 0 0 1 0 0 0 1 62.815637684255499 31.320210130858165 7.6699960983014979 1 rotate no_reflect no_shear #
lump $-1 $-1 $35 $2 #
transform $-1 1 0 0 0 1 0 0 0 1 62.815637684255499 31.320210130858165 7.6699960983014979 1 rotate no_reflect no_shear #
lump $-1 $-1 $36 $3 #
transform $-1 1 0 0 0 1 0 0 0 1 62.815637684255499 31.320210130858165 7.6699960983014979 1 rotate no_reflect no_shear #
lump $-1 $-1 $37 $4 #
transform $-1 1 0 0 0 1 0 0 0 1 62.815637684255499 31.320210130858165 7.6699960983014979 1 rotate no_reflect no_shear #
lump $-1 $-1 $38 $5 #
transform $-1 1 0 0 0 1 0 0 0 1 62.815637684255499 31.320210130858165 7.6699960983014979 1 rotate no_reflect no_shear #
lump $-1 $-1 $39 $6 #
transform $-1 1 0 0 0 1 0 0 0 1 62.815637684255499 31.320210130858165 7.6699960983014979 1 rotate no_reflect no_shear #
lump $-1 $-1 $40 $7 #
transform $-1 1 0 0 0 1 0 0 0 1 62.815637684255499 31.320210130858165 7.6699960983014979 1 rotate no_reflect no_shear #
lump $-1 $-1 $41 $8 #
transform $-1 1 0 0 0 1 0 0 0 1 62.815637684255499 31.320210130858165 7.6699960983014979 1 rotate no_reflect no_shear #
lump $-1 $-1 $42 $9 #
transform $-1 1 0 0 0 1 0 0 0 1 62.815637684255499 31.320210130858165 7.6699960983014979 1 rotate no_reflect no_shear #
lump $-1 $-1 $43 $10 #
transform $-1 1 0 0 0 1 0 0 0 1 62.815637684255499 31.320210130858165 7.6699960983014979 1 rotate no_reflect no_shear #
shell $-1 $-1 $-1 $44 $-1 $11 #
shell $-1 $-1 $-1 $45 $-1 $13 #
shell $-1 $-1 $-1 $46 $-1 $15 #
shell $-1 $-1 $-1 $47 $-1 $17 #
shell $-1 $-1 $-1 $48 $-1 $19 #
shell $-1 $-1 $-1 $49 $-1 $21 #
shell $-1 $-1 $-1 $50 $-1 $23 #
shell $-1 $-1 $-1 $51 $-1 $25 #
shell $-1 $-1 $-1 $52 $-1 $27 #
shell $-1 $-1 $-1 $53 $-1 $29 #
shell $-1 $-1 $-1 $54 $-1 $31 #
face $-1 $55 $56 $33 $-1 $57 forward single #
face $-1 $58 $59 $34 $-1 $60 reversed single #
face $-1 $61 $62 $35 $-1 $63 reversed single #
face $-1 $64 $65 $36 $-1 $66 reversed single #
face $-1 $67 $68 $37 $-1 $69 forward single #
face $-1 $70 $71 $38 $-1 $72 reversed single #
face $-1 $73 $74 $39 $-1 $75 forward single #
face $-1 $76 $77 $40 $-1 $78 forward single #
face $-1 $79 $80 $41 $-1 $81 reversed single #
face $-1 $82 $83 $42 $-1 $84 forward single #
face $-1 $85 $86 $43 $-1 $87 forward single #
face $-1 $88 $89 $33 $-1 $90 reversed single #
loop $-1 $-1 $91 $44 #
plane-surface $-1 0 0 7.6699960983014979 0 0 1 1 0 0 forward_v I I I I #
face $-1 $92 $93 $34 $-1 $94 reversed single #
loop $-1 $-1 $95 $45 #
plane-surface $-1 -59.079434109827766 0 4.6497025207269784 0 0 1 1 0 0 forward_v I I I I #
face $-1 $96 $97 $35 $-1 $98 reversed single #
loop $-1 $-1 $99 $46 #
plane-surface $-1 59.079434109827766 0 4.6497025207269784 0 0 1 1 0 0 forward_v I I I I #
face $-1 $100 $101 $36 $-1 $102 reversed single #
loop $-1 $-1 $103 $47 #
plane-surface $-1 8.3390455486560739 108.79987778995431 120.72762731385809 1 0 0 0 -0.86602541151947299 -0.49999998660252726 forward_v I I I I #
face $-1 $104 $105 $37 $-1 $106 forward single #
loop $-1 $107 $108 $48 #
cone-surface $-1 17.898576494647791 29.308616403001519 5.1732017383190136 0 -0.86602541151947299 -0.49999998660252726 0.5 0 0 1 I I 0 1 0.5 forward I I I I #
face $-1 $109 $110 $38 $-1 $111 reversed single #
loop $-1 $-1 $112 $49 #
plane-surface $-1 -27.033085136972105 -121.69178770579856 90.142763077258294 -1 0 0 0 -0.71933980857756763 0.69465836192734942 forward_v I I I I #
face $-1 $113 $114 $39 $-1 $115 forward single #
loop $-1 $116 $117 $50 #
cone-surface $-1 -39.832514659755766 -28.201681266401923 4.496665082367163 0 0.71933980857756763 -0.69465836192734942 1 0 0 1 I I 0 1 1 forward I I I I #
face $-1 $118 $119 $40 $-1 $120 forward single #
loop $-1 $121 $122 $51 #
cone-surface $-1 -32.152856946085571 -28.201681266401923 4.496665082367163 0 0.71933980857756763 -0.69465836192734942 1 0 0 1 I I 0 1 1 forward I I I I #
face $-1 $123 $124 $41 $-1 $125 reversed single #
loop $-1 $-1 $126 $52 #
plane-surface $-1 44.952286468869218 -121.69178770579856 90.142763077258294 -1 0 0 0 -0.71933980857756763 0.69465836192734942 forward_v I I I I #
face $-1 $127 $128 $42 $-1 $129 forward single #
loop $-1 $130 $131 $53 #
cone-surface $-1 32.152856946085556 -28.201681266401923 4.496665082367163 0 0.71933980857756763 -0.69465836192734942 1 0 0 1 I I 0 1 1 forward I I I I #
face $-1 $132 $133 $43 $-1 $134 forward single #
loop $-1 $135 $136 $54 #
cone-surface $-1 39.832514659755752 -28.201681266401923 4.496665082367163 0 0.71933980857756763 -0.69465836192734942 1 0 0 1 I I 0 1 1 forward I I I I #
face $-1 $137 $138 $33 $-1 $139 reversed single #
loop $-1 $-1 $140 $55 #
plane-surface $-1 0 0 -7.6699960983014979 0 0 1 1 0 0 forward_v I I I I #
coedge $-1 $141 $142 $143 $144 forward $56 $-1 #
face $-1 $145 $146 $34 $-1 $147 reversed single #
loop $-1 $-1 $148 $58 #
plane-surface $-1 -55.343230535400032 0 6.1598493095142377 -1 0 0 0 0 1 forward_v I I I I #
coedge $-1 $149 $150 $151 $152 forward $59 $-1 #
face $-1 $153 $154 $35 $-1 $155 forward single #
loop $-1 $-1 $156 $61 #
plane-surface $-1 55.343230535400032 0 6.1598493095142377 1 0 0 0 0 -1 forward_v I I I I #
coedge $-1 $157 $158 $159 $160 reversed $62 $-1 #
face $-1 $161 $162 $36 $-1 $163 reversed single #
loop $-1 $-1 $164 $64 #
plane-surface $-1 17.898576494647791 8.3922334681574284e-007 57.911991312744185 0 0.86602541151947299 0.49999998660252726 1 0 0 forward_v I I I I #
coedge $-1 $165 $166 $167 $168 reversed $65 $-1 #
face $-1 $-1 $169 $37 $-1 $170 forward single #
loop $-1 $171 $172 $67 #
cone-surface $-1 17.898576494647791 28.237006755405986 4.5545076419173665 0 -0.86602541151947299 -0.49999998660252726 0.25 0 0 1 I I -0.70710678118654746 0.70710678118654746 0.25 forward I I I I #
loop $-1 $-1 $173 $48 #
coedge $-1 $108 $108 $174 $175 reversed $68 $-1 #
face $-1 $176 $177 $38 $-1 $178 reversed single #
loop $-1 $-1 $179 $70 #
plane-surface $-1 -35.992685802920668 -31.320210130858172 2.8719471229246807 0 -0.71933980857756763 0.69465836192734942 1 0 0 forward_v I I I I #
coedge $-1 $180 $181 $182 $183 reversed $71 $-1 #
face $-1 $-1 $184 $39 $-1 $185 forward single #
loop $-1 $186 $187 $73 #
cone-surface $-1 -39.832514659755766 -27.040193460917209 3.3750293731575542 0 0.71933980857756763 -0.69465836192734942 0.5 0 0 1 I I -0.70710678118654746 0.70710678118654746 0.5 forward I I I I #
loop $-1 $-1 $188 $50 #
coedge $-1 $117 $117 $189 $190 reversed $74 $-1 #
face $-1 $-1 $191 $40 $-1 $192 forward single #
loop $-1 $193 $194 $76 #
cone-surface $-1 -32.152856946085571 -27.040193460917209 3.3750293731575542 0 0.71933980857756763 -0.69465836192734942 0.5 0 0 1 I I -0.70710678118654746 0.70710678118654746 0.5 forward I I I I #
loop $-1 $-1 $195 $51 #
coedge $-1 $122 $122 $196 $197 reversed $77 $-1 #
face $-1 $198 $199 $41 $-1 $200 reversed single #
loop $-1 $-1 $201 $79 #
plane-surface $-1 35.992685802920654 -31.320210130858172 2.8719471229246807 0 -0.71933980857756763 0.69465836192734942 1 0 0 forward_v I I I I #
coedge $-1 $202 $203 $204 $205 reversed $80 $-1 #
face $-1 $-1 $206 $42 $-1 $207 forward single #
loop $-1 $208 $209 $82 #
cone-surface $-1 32.152856946085556 -27.040193460917209 3.3750293731575542 0 0.71933980857756763 -0.69465836192734942 0.5 0 0 1 I I -0.70710678118654746 0.70710678118654746 0.5 forward I I I I #
loop $-1 $-1 $210 $53 #
coedge $-1 $131 $131 $211 $212 reversed $83 $-1 #
face $-1 $-1 $213 $43 $-1 $214 forward single #
loop $-1 $215 $216 $85 #
cone-surface $-1 39.832514659755752 -27.040193460917209 3.3750293731575542 0 0.71933980857756763 -0.69465836192734942 0.5 0 0 1 I I -0.70710678118654746 0.70710678118654746 0.5 forward I I I I #
loop $-1 $-1 $217 $54 #
coedge $-1 $136 $136 $218 $219 reversed $86 $-1 #
face $-1 $220 $221 $33 $-1 $222 reversed single #
loop $-1 $-1 $223 $88 #
plane-surface $-1 0 -31.320210130858165 0 0 1 0 0 0 1 forward_v I I I I #
coedge $-1 $224 $225 $226 $227 forward $89 $-1 #
coedge $-1 $228 $91 $229 $230 forward $56 $-1 #
coedge $-1 $91 $228 $231 $232 forward $56 $-1 #
coedge $-1 $233 $234 $91 $144 reversed $235 $-1 #
edge $-1 $236 -31.320210130858165 $237 31.320210130858165 $143 $238 forward 7 unknown #
face $-1 $239 $240 $34 $-1 $241 reversed single #
loop $-1 $-1 $242 $92 #
plane-surface $-1 0 31.320210130858165 0 0 -1 0 0 0 -1 forward_v I I I I #
coedge $-1 $151 $243 $244 $245 reversed $93 $-1 #
coedge $-1 $246 $95 $247 $248 reversed $59 $-1 #
coedge $-1 $95 $246 $249 $250 reversed $59 $-1 #
coedge $-1 $251 $148 $95 $152 reversed $93 $-1 #
edge $-1 $252 -31.320210130858165 $253 31.320210130858165 $151 $254 forward 7 unknown #
face $-1 $255 $256 $35 $-1 $257 reversed single #
loop $-1 $-1 $258 $96 #
plane-surface $-1 0 0 7.6699960983014979 0 0 1 1 0 0 forward_v I I I I #
coedge $-1 $259 $260 $261 $262 reversed $97 $-1 #
coedge $-1 $263 $99 $264 $265 reversed $62 $-1 #
coedge $-1 $99 $263 $266 $267 reversed $62 $-1 #
coedge $-1 $268 $269 $99 $160 forward $270 $-1 #
edge $-1 $271 -31.320210130858165 $272 31.320210130858165 $159 $273 forward 7 unknown #
face $-1 $274 $275 $36 $-1 $276 reversed single #
loop $-1 $-1 $277 $100 #
plane-surface $-1 27.458107440639509 108.79987778995431 120.72762731385809 -1 0 0 0 0.86602541151947299 0.49999998660252726 forward_v I I I I #
coedge $-1 $278 $279 $280 $281 reversed $101 $-1 #
coedge $-1 $166 $103 $282 $283 reversed $65 $-1 #
coedge $-1 $103 $165 $278 $284 reversed $65 $-1 #
coedge $-1 $280 $285 $103 $168 forward $286 $-1 #
edge $-1 $287 23.07972876411899 $288 25.392709630400926 $167 $289 forward 7 unknown #
loop $-1 $-1 $174 $104 #
plane-surface $-1 17.898576494647791 8.3922334681574284e-007 57.911991312744185 0 0.86602541151947299 0.49999998660252726 1 0 0 forward_v I I I I #
loop $-1 $-1 $290 $67 #
coedge $-1 $172 $172 $173 $291 reversed $105 $-1 #
coedge $-1 $173 $173 $172 $291 forward $107 $-1 #
coedge $-1 $174 $174 $108 $175 forward $169 $-1 #
edge $-1 $292 -4.3942097103170346e-015 $292 6.283185307179596 $174 $293 forward 7 unknown #
face $-1 $294 $295 $38 $-1 $296 forward single #
loop $-1 $-1 $297 $109 #
plane-surface $-1 -44.952286468869232 -121.69178770579856 90.142763077258294 1 0 0 0 0.71933980857756763 -0.69465836192734942 forward_v I I I I #
coedge $-1 $298 $299 $300 $301 reversed $110 $-1 #
coedge $-1 $181 $112 $302 $303 reversed $71 $-1 #
coedge $-1 $112 $180 $298 $304 reversed $71 $-1 #
coedge $-1 $300 $305 $112 $183 forward $295 $-1 #
edge $-1 $306 29.525683722041116 $307 34.159105648561741 $182 $308 forward 7 unknown #
loop $-1 $-1 $189 $113 #
plane-surface $-1 -35.992685802920668 -31.320210130858172 2.8719471229246807 0 -0.71933980857756763 0.69465836192734942 1 0 0 forward_v I I I I #
loop $-1 $-1 $309 $73 #
coedge $-1 $187 $187 $188 $310 reversed $114 $-1 #
coedge $-1 $188 $188 $187 $310 forward $116 $-1 #
coedge $-1 $189 $189 $117 $190 forward $184 $-1 #
edge $-1 $311 8.7686113126814785e-017 $311 6.2831853071796004 $189 $312 forward 7 unknown #
loop $-1 $-1 $196 $118 #
plane-surface $-1 -35.992685802920668 -31.320210130858172 2.8719471229246807 0 -0.71933980857756763 0.69465836192734942 1 0 0 forward_v I I I I #
loop $-1 $-1 $313 $76 #
coedge $-1 $194 $194 $195 $314 reversed $119 $-1 #
coedge $-1 $195 $195 $194 $314 forward $121 $-1 #
coedge $-1 $196 $196 $122 $197 forward $191 $-1 #
edge $-1 $315 8.7686113126814785e-017 $315 6.2831853071796004 $196 $316 forward 7 unknown #
face $-1 $317 $318 $41 $-1 $319 reversed single #
loop $-1 $-1 $320 $123 #
plane-surface $-1 27.03308513697209 -121.69178770579856 90.142763077258294 1 0 0 0 0.71933980857756763 -0.69465836192734942 forward_v I I I I #
coedge $-1 $321 $322 $323 $324 reversed $124 $-1 #
coedge $-1 $203 $126 $325 $326 reversed $80 $-1 #
coedge $-1 $126 $202 $321 $327 reversed $80 $-1 #
coedge $-1 $323 $328 $126 $205 forward $329 $-1 #
edge $-1 $330 29.525683722041116 $331 34.159105648561741 $204 $332 forward 7 unknown #
loop $-1 $-1 $211 $127 #
plane-surface $-1 35.992685802920654 -31.320210130858172 2.8719471229246807 0 -0.71933980857756763 0.69465836192734942 1 0 0 forward_v I I I I #
loop $-1 $-1 $333 $82 #
coedge $-1 $209 $209 $210 $334 reversed $128 $-1 #
coedge $-1 $210 $210 $209 $334 forward $130 $-1 #
coedge $-1 $211 $211 $131 $212 forward $206 $-1 #
edge $-1 $335 8.7686113126814785e-017 $335 6.2831853071796004 $211 $336 forward 7 unknown #
loop $-1 $-1 $218 $132 #
plane-surface $-1 35.992685802920654 -31.320210130858172 2.8719471229246807 0 -0.71933980857756763 0.69465836192734942 1 0 0 forward_v I I I I #
loop $-1 $-1 $337 $85 #
coedge $-1 $216 $216 $217 $338 reversed $133 $-1 #
coedge $-1 $217 $217 $216 $338 forward $135 $-1 #
coedge $-1 $218 $218 $136 $219 forward $213 $-1 #
edge $-1 $339 8.7686113126814785e-017 $339 6.2831853071796004 $218 $340 forward 7 unknown #
face $-1 $341 $342 $33 $-1 $343 reversed single #
loop $-1 $-1 $344 $137 #
plane-surface $-1 -62.815637684255499 0 0 1 0 0 0 0 -1 forward_v I I I I #
coedge $-1 $345 $231 $346 $347 forward $138 $-1 #
coedge $-1 $348 $140 $345 $349 forward $89 $-1 #
coedge $-1 $140 $348 $350 $351 forward $89 $-1 #
coedge $-1 $234 $233 $140 $227 reversed $235 $-1 #
edge $-1 $352 -31.320210130858165 $353 31.320210130858165 $226 $354 forward 7 unknown #
coedge $-1 $142 $141 $355 $356 forward $56 $-1 #
coedge $-1 $357 $358 $141 $230 reversed $342 $-1 #
edge $-1 $237 -62.815637684255499 $359 62.815637684255499 $229 $360 forward 7 unknown #
coedge $-1 $223 $361 $142 $232 reversed $138 $-1 #
edge $-1 $362 -62.815637684255499 $236 62.815637684255499 $231 $363 forward 7 unknown #
coedge $-1 $226 $143 $361 $364 forward $235 $-1 #
coedge $-1 $143 $226 $357 $365 reversed $235 $-1 #
loop $-1 $-1 $233 $341 #
vertex $-1 $144 $366 #
vertex $-1 $144 $367 #
straight-curve $-1 62.815637684255499 0 7.6699960983014979 0 1 0 I I #
face $-1 $368 $369 $34 $-1 $370 forward single #
loop $-1 $-1 $371 $145 #
plane-surface $-1 -62.815637684255499 0 0 1 0 0 0 0 -1 forward_v I I I I #
coedge $-1 $249 $372 $251 $373 forward $146 $-1 #
coedge $-1 $148 $251 $374 $375 reversed $93 $-1 #
coedge $-1 $376 $247 $148 $245 forward $377 $-1 #
edge $-1 $253 1.5697778659698596 $378 4.5900714435443781 $244 $379 forward 7 unknown #
coedge $-1 $150 $149 $371 $380 reversed $59 $-1 #
coedge $-1 $244 $381 $149 $248 forward $377 $-1 #
edge $-1 $382 -33.275920629341613 $253 -25.803513480486149 $247 $383 forward 7 unknown #
coedge $-1 $384 $242 $150 $250 forward $146 $-1 #
edge $-1 $252 25.803513480486149 $385 33.275920629341613 $249 $386 forward 7 unknown #
coedge $-1 $243 $151 $242 $373 reversed $93 $-1 #
vertex $-1 $250 $387 #
vertex $-1 $248 $388 #
straight-curve $-1 -55.343230535400032 0 4.6497025207269784 0 -1 0 I I #
face $-1 $389 $390 $35 $-1 $391 reversed single #
loop $-1 $-1 $392 $153 #
plane-surface $-1 0 -31.320210130858165 0 0 1 0 0 0 1 forward_v I I I I #
coedge $-1 $393 $394 $260 $395 forward $154 $-1 #
coedge $-1 $396 $156 $263 $397 reversed $97 $-1 #
coedge $-1 $156 $396 $258 $395 reversed $97 $-1 #
coedge $-1 $398 $266 $156 $262 forward $390 $-1 #
edge $-1 $399 1.5697778659698596 $400 4.5900714435443781 $261 $401 forward 7 unknown #
coedge $-1 $158 $157 $259 $397 forward $62 $-1 #
coedge $-1 $402 $392 $157 $265 forward $256 $-1 #
edge $-1 $403 25.803513480486149 $271 33.275920629341613 $264 $404 forward 7 unknown #
coedge $-1 $261 $405 $158 $267 forward $390 $-1 #
edge $-1 $272 -33.275920629341613 $399 -25.803513480486149 $266 $406 forward 7 unknown #
coedge $-1 $407 $159 $405 $408 reversed $270 $-1 #
coedge $-1 $159 $407 $402 $409 forward $270 $-1 #
loop $-1 $-1 $159 $389 #
vertex $-1 $265 $410 #
vertex $-1 $160 $411 #
straight-curve $-1 62.815637684255499 0 4.6497025207269784 0 1 0 I I #
face $-1 $-1 $286 $36 $-1 $412 forward single #
loop $-1 $-1 $413 $161 #
plane-surface $-1 0 31.320210130858165 0 0 -1 0 0 0 -1 forward_v I I I I #
coedge $-1 $414 $415 $416 $417 reversed $162 $-1 #
coedge $-1 $418 $164 $166 $284 forward $101 $-1 #
coedge $-1 $164 $418 $414 $419 forward $101 $-1 #
coedge $-1 $416 $167 $164 $281 forward $286 $-1 #
edge $-1 $288 -0.61024269866782177 $420 18.508819193315613 $280 $421 forward 7 unknown #
coedge $-1 $422 $423 $165 $283 forward $275 $-1 #
edge $-1 $424 -56.700018079090434 $287 -52.693817558627551 $282 $425 forward 7 unknown #
edge $-1 $288 58.014458405200003 $424 62.64042026171628 $166 $426 forward 7 unknown #
coedge $-1 $167 $416 $422 $427 forward $286 $-1 #
loop $-1 $-1 $416 $274 #
vertex $-1 $283 $428 #
vertex $-1 $168 $429 #
straight-curve $-1 8.3390455486560739 54.399938894977154 7.6699960983014961 0 -1 0 I I #
coedge $-1 $290 $290 $-1 $430 reversed $171 $-1 #
edge $-1 $431 0 $431 6.2831853071796004 $172 $432 forward 7 unknown #
vertex $-1 $175 $433 #
ellipse-curve $-1 17.898576494647791 30.163719697717202 5.6668958380700394 0 0.86602541151947299 0.49999998660252726 0.5 0 0 1 I I #
face $-1 $-1 $434 $38 $-1 $435 reversed single #
loop $-1 $-1 $182 $176 #
plane-surface $-1 0 0 7.6699960983014979 0 0 1 1 0 0 forward_v I I I I #
coedge $-1 $436 $437 $438 $439 reversed $177 $-1 #
coedge $-1 $440 $179 $181 $304 forward $110 $-1 #
coedge $-1 $179 $440 $436 $441 forward $110 $-1 #
coedge $-1 $438 $182 $179 $301 forward $295 $-1 #
edge $-1 $307 9.0367422355117704 $442 26.955943567408898 $300 $443 forward 7 unknown #
coedge $-1 $444 $445 $180 $303 forward $434 $-1 #
edge $-1 $446 -42.199434415704459 $306 -37.401385440327651 $302 $447 forward 7 unknown #
edge $-1 $307 -6.6700729170884401 $446 -1.0366512331508311e-014 $181 $448 forward 7 unknown #
coedge $-1 $182 $438 $444 $449 forward $295 $-1 #
vertex $-1 $303 $450 #
vertex $-1 $183 $451 #
straight-curve $-1 -27.033085136972105 -60.84589385289928 7.6699960983014961 0 1 0 I I #
coedge $-1 $309 $309 $-1 $452 reversed $186 $-1 #
edge $-1 $453 0 $453 6.2831853071796004 $187 $454 forward 7 unknown #
vertex $-1 $190 $455 #
ellipse-curve $-1 -39.832514659755766 -29.003499167597852 5.2709716106130937 0 -0.71933980857756763 0.69465836192734942 1 0 0 1 I I #
coedge $-1 $313 $313 $-1 $456 reversed $193 $-1 #
edge $-1 $457 0 $457 6.2831853071796004 $194 $458 forward 7 unknown #
vertex $-1 $197 $459 #
ellipse-curve $-1 -32.152856946085571 -29.003499167597852 5.2709716106130937 0 -0.71933980857756763 0.69465836192734942 1 0 0 1 I I #
face $-1 $-1 $329 $41 $-1 $460 forward single #
loop $-1 $-1 $461 $198 #
plane-surface $-1 0 -31.320210130858165 0 0 1 0 0 0 1 forward_v I I I I #
coedge $-1 $462 $463 $464 $465 reversed $199 $-1 #
coedge $-1 $466 $201 $203 $327 forward $124 $-1 #
coedge $-1 $201 $466 $462 $467 forward $124 $-1 #
coedge $-1 $464 $204 $201 $324 forward $329 $-1 #
edge $-1 $331 -26.955943567408891 $468 -9.0367422355117633 $323 $469 forward 7 unknown #
coedge $-1 $470 $471 $202 $326 forward $318 $-1 #
edge $-1 $472 -42.199434415704459 $330 -37.401385440327651 $325 $473 forward 7 unknown #
edge $-1 $331 -6.6700729170884401 $472 -1.0366512331508311e-014 $203 $474 forward 7 unknown #
coedge $-1 $204 $464 $470 $475 forward $329 $-1 #
loop $-1 $-1 $464 $317 #
vertex $-1 $326 $476 #
vertex $-1 $205 $477 #
straight-curve $-1 44.952286468869218 -60.84589385289928 7.6699960983014961 0 1 0 I I #
coedge $-1 $333 $333 $-1 $478 reversed $208 $-1 #
edge $-1 $479 0 $479 6.2831853071796004 $209 $480 forward 7 unknown #
vertex $-1 $212 $481 #
ellipse-curve $-1 32.152856946085556 -29.003499167597852 5.2709716106130937 0 -0.71933980857756763 0.69465836192734942 1 0 0 1 I I #
coedge $-1 $337 $337 $-1 $482 reversed $215 $-1 #
edge $-1 $483 0 $483 6.2831853071796004 $216 $484 forward 7 unknown #
vertex $-1 $219 $485 #
ellipse-curve $-1 39.832514659755752 -29.003499167597852 5.2709716106130937 0 -0.71933980857756763 0.69465836192734942 1 0 0 1 I I #
face $-1 $-1 $235 $33 $-1 $486 reversed single #
loop $-1 $-1 $357 $220 #
plane-surface $-1 0 31.320210130858165 0 0 -1 0 0 0 -1 forward_v I I I I #
coedge $-1 $487 $355 $358 $488 forward $221 $-1 #
coedge $-1 $361 $223 $224 $349 reversed $138 $-1 #
coedge $-1 $355 $487 $223 $347 reversed $221 $-1 #
edge $-1 $362 -7.6699960983014979 $489 7.6699960983014979 $346 $490 forward 7 unknown #
coedge $-1 $225 $224 $487 $491 forward $89 $-1 #
edge $-1 $353 -62.815637684255499 $489 62.815637684255499 $345 $492 forward 7 unknown #
coedge $-1 $358 $357 $225 $351 reversed $342 $-1 #
edge $-1 $493 -62.815637684255499 $352 62.815637684255499 $350 $494 forward 7 unknown #
vertex $-1 $227 $495 #
vertex $-1 $364 $496 #
straight-curve $-1 62.815637684255499 0 -7.6699960983014979 0 -1 0 I I #
coedge $-1 $344 $346 $228 $356 reversed $221 $-1 #
edge $-1 $359 -31.320210130858165 $362 31.320210130858165 $355 $497 forward 7 unknown #
coedge $-1 $350 $229 $234 $365 forward $342 $-1 #
coedge $-1 $229 $350 $344 $488 reversed $342 $-1 #
vertex $-1 $230 $498 #
straight-curve $-1 0 31.320210130858165 7.6699960983014979 -1 0 0 I I #
coedge $-1 $231 $345 $233 $364 reversed $138 $-1 #
vertex $-1 $356 $499 #
straight-curve $-1 0 -31.320210130858165 7.6699960983014979 1 0 0 I I #
edge $-1 $236 -7.6699960983014979 $353 7.6699960983014979 $233 $500 forward 7 unknown #
edge $-1 $237 -7.6699960983014979 $352 7.6699960983014979 $234 $501 forward 7 unknown #
point $-1 62.815637684255499 -31.320210130858165 7.6699960983014979 #
point $-1 62.815637684255499 31.320210130858165 7.6699960983014979 #
face $-1 $-1 $377 $34 $-1 $502 reversed single #
loop $-1 $-1 $374 $239 #
plane-surface $-1 0 0 7.6699960983014979 0 0 1 1 0 0 forward_v I I I I #
coedge $-1 $503 $504 $246 $380 forward $240 $-1 #
coedge $-1 $242 $384 $505 $506 reversed $146 $-1 #
edge $-1 $507 -4.5900714435443781 $252 -1.5697778659698596 $242 $508 forward 7 unknown #
coedge $-1 $505 $509 $243 $375 forward $369 $-1 #
edge $-1 $378 -31.320210130858165 $507 31.320210130858165 $374 $510 forward 7 unknown #
coedge $-1 $381 $244 $509 $511 reversed $377 $-1 #
loop $-1 $-1 $244 $368 #
vertex $-1 $245 $512 #
straight-curve $-1 -55.343230535400032 -31.320210130858165 3.0799246547571189 0 0 1 I I #
edge $-1 $385 -31.320210130858165 $382 31.320210130858165 $371 $513 forward 7 unknown #
coedge $-1 $247 $376 $503 $514 forward $377 $-1 #
vertex $-1 $380 $515 #
straight-curve $-1 -29.539717054913883 -31.320210130858165 4.6497025207269784 1 0 0 I I #
coedge $-1 $372 $249 $504 $516 reversed $146 $-1 #
vertex $-1 $380 $517 #
straight-curve $-1 -29.539717054913883 31.320210130858165 4.6497025207269784 -1 0 0 I I #
point $-1 -55.343230535400032 31.320210130858165 4.6497025207269784 #
point $-1 -55.343230535400032 -31.320210130858165 4.6497025207269784 #
face $-1 $-1 $270 $35 $-1 $518 reversed single #
loop $-1 $-1 $261 $255 #
plane-surface $-1 0 31.320210130858165 0 0 -1 0 0 0 -1 forward_v I I I I #
coedge $-1 $264 $519 $396 $520 forward $256 $-1 #
coedge $-1 $521 $258 $519 $522 forward $154 $-1 #
coedge $-1 $258 $521 $398 $523 forward $154 $-1 #
edge $-1 $400 -31.320210130858165 $524 31.320210130858165 $258 $525 forward 7 unknown #
coedge $-1 $260 $259 $392 $520 reversed $97 $-1 #
edge $-1 $403 -31.320210130858165 $399 31.320210130858165 $259 $526 forward 7 unknown #
coedge $-1 $405 $261 $394 $523 reversed $390 $-1 #
vertex $-1 $267 $527 #
vertex $-1 $262 $528 #
straight-curve $-1 55.343230535400032 31.320210130858165 3.0799246547571189 0 0 1 I I #
coedge $-1 $519 $264 $269 $409 reversed $256 $-1 #
vertex $-1 $265 $529 #
straight-curve $-1 29.539717054913883 -31.320210130858165 4.6497025207269784 1 0 0 I I #
coedge $-1 $266 $398 $268 $408 forward $390 $-1 #
straight-curve $-1 29.539717054913883 31.320210130858165 4.6497025207269784 -1 0 0 I I #
coedge $-1 $269 $268 $521 $530 reversed $270 $-1 #
edge $-1 $531 -7.6699960983014979 $272 -4.6497025207269784 $268 $532 forward 7 unknown #
edge $-1 $533 -7.6699960983014979 $271 -4.6497025207269784 $269 $534 forward 7 unknown #
point $-1 62.815637684255499 -31.320210130858165 4.6497025207269784 #
point $-1 62.815637684255499 31.320210130858165 4.6497025207269784 #
plane-surface $-1 0 0 7.6699960983014979 0 0 1 1 0 0 forward_v I I I I #
coedge $-1 $423 $422 $415 $535 forward $275 $-1 #
coedge $-1 $415 $277 $279 $419 reversed $162 $-1 #
coedge $-1 $277 $414 $413 $535 reversed $162 $-1 #
coedge $-1 $285 $280 $277 $417 forward $286 $-1 #
edge $-1 $420 -25.392709630400926 $536 -23.07972876411899 $416 $537 forward 7 unknown #
coedge $-1 $279 $278 $423 $538 reversed $101 $-1 #
edge $-1 $539 -62.64042026171628 $420 -58.014458405200003 $414 $540 forward 7 unknown #
vertex $-1 $281 $541 #
straight-curve $-1 8.9492882473238957 29.007229264576232 7.6699960983014996 1 0 0 I I #
coedge $-1 $413 $282 $285 $427 reversed $275 $-1 #
coedge $-1 $282 $413 $418 $538 forward $275 $-1 #
vertex $-1 $283 $542 #
straight-curve $-1 8.3390455486560739 31.320210130858165 60.363813656929047 0 0 1 I I #
straight-curve $-1 8.3390455486560739 8.3922334681574284e-007 57.911991312744185 0 0.49999998660252726 -0.86602541151947299 I I #
edge $-1 $536 -27.458107440639509 $287 -8.3390455486560739 $422 $543 forward 7 unknown #
point $-1 8.3390455486560739 31.320210130858165 7.6699960983014979 #
point $-1 8.3390455486560739 29.007229264576228 7.6699960983014961 #
edge $-1 $544 1 $544 0 $290 $-1 forward 7 unknown #
vertex $-1 $291 $545 #
ellipse-curve $-1 17.898576494647791 28.453513108285854 4.6795076385679986 0 0.86602541151947299 0.49999998660252726 0.5 0 0 1 I I #
point $-1 18.398576494647791 30.16371969771718 5.6668958380700296 #
loop $-1 $-1 $302 $294 #
plane-surface $-1 0 -31.320210130858165 0 0 1 0 0 0 1 forward_v I I I I #
coedge $-1 $437 $297 $299 $441 reversed $177 $-1 #
coedge $-1 $297 $436 $546 $547 reversed $177 $-1 #
coedge $-1 $305 $300 $297 $439 forward $295 $-1 #
edge $-1 $442 -34.159105648561741 $548 -29.525683722041116 $438 $549 forward 7 unknown #
coedge $-1 $299 $298 $445 $550 reversed $110 $-1 #
edge $-1 $551 1.0366512331508311e-014 $442 6.6700729170884401 $436 $552 forward 7 unknown #
vertex $-1 $301 $553 #
straight-curve $-1 -17.996342901460334 -26.686788204337539 7.6699960983014979 -1 0 0 I I #
coedge $-1 $546 $302 $305 $449 reversed $434 $-1 #
coedge $-1 $302 $546 $440 $550 forward $434 $-1 #
vertex $-1 $303 $554 #
straight-curve $-1 -27.033085136972105 -31.320210130858165 45.071381538629147 0 0 1 I I #
straight-curve $-1 -27.033085136972105 -31.320210130858172 2.8719471229246807 0 -0.69465836192734942 -0.71933980857756763 I I #
edge $-1 $548 -44.952286468869232 $306 -27.033085136972105 $444 $555 forward 7 unknown #
point $-1 -27.033085136972105 -31.320210130858165 7.6699960983014979 #
point $-1 -27.033085136972105 -26.686788204337539 7.6699960983014979 #
edge $-1 $556 1 $556 0 $309 $-1 forward 7 unknown #
vertex $-1 $310 $557 #
ellipse-curve $-1 -39.832514659755766 -27.399863365205992 3.7223585541212287 0 -0.71933980857756763 0.69465836192734942 1 0 0 1 I I #
point $-1 -38.832514659755766 -29.003499167597855 5.2709716106130973 #
edge $-1 $558 1 $558 0 $313 $-1 forward 7 unknown #
vertex $-1 $314 $559 #
ellipse-curve $-1 -32.152856946085571 -27.399863365205992 3.7223585541212287 0 -0.71933980857756763 0.69465836192734942 1 0 0 1 I I #
point $-1 -31.152856946085571 -29.003499167597855 5.2709716106130973 #
plane-surface $-1 0 0 7.6699960983014979 0 0 1 1 0 0 forward_v I I I I #
coedge $-1 $471 $470 $463 $560 forward $318 $-1 #
coedge $-1 $463 $320 $322 $467 reversed $199 $-1 #
coedge $-1 $320 $462 $461 $560 reversed $199 $-1 #
coedge $-1 $328 $323 $320 $465 forward $329 $-1 #
edge $-1 $468 -34.159105648561741 $561 -29.525683722041116 $464 $562 forward 7 unknown #
coedge $-1 $322 $321 $471 $563 reversed $124 $-1 #
edge $-1 $564 1.0366512331508311e-014 $468 6.6700729170884401 $462 $565 forward 7 unknown #
vertex $-1 $324 $566 #
straight-curve $-1 17.996342901460327 -26.686788204337539 7.6699960983014979 -1 0 0 I I #
coedge $-1 $461 $325 $328 $475 reversed $318 $-1 #
coedge $-1 $325 $461 $466 $563 forward $318 $-1 #
vertex $-1 $326 $567 #
straight-curve $-1 44.952286468869218 -31.320210130858165 45.071381538629147 0 0 1 I I #
straight-curve $-1 44.952286468869218 -31.320210130858172 2.8719471229246807 0 -0.69465836192734942 -0.71933980857756763 I I #
edge $-1 $561 27.03308513697209 $330 44.952286468869218 $470 $568 forward 7 unknown #
point $-1 44.952286468869218 -31.320210130858165 7.6699960983014979 #
point $-1 44.952286468869218 -26.686788204337539 7.6699960983014979 #
edge $-1 $569 1 $569 0 $333 $-1 forward 7 unknown #
vertex $-1 $334 $570 #
ellipse-curve $-1 32.152856946085556 -27.399863365205992 3.7223585541212287 0 -0.71933980857756763 0.69465836192734942 1 0 0 1 I I #
point $-1 33.152856946085556 -29.003499167597855 5.2709716106130973 #
edge $-1 $571 1 $571 0 $337 $-1 forward 7 unknown #
vertex $-1 $338 $572 #
ellipse-curve $-1 39.832514659755752 -27.399863365205992 3.7223585541212287 0 -0.71933980857756763 0.69465836192734942 1 0 0 1 I I #
point $-1 40.832514659755752 -29.003499167597855 5.2709716106130973 #
plane-surface $-1 62.815637684255499 0 0 -1 0 0 0 0 1 forward_v I I I I #
coedge $-1 $346 $344 $348 $491 reversed $221 $-1 #
edge $-1 $359 -7.6699960983014979 $493 7.6699960983014979 $358 $573 forward 7 unknown #
vertex $-1 $491 $574 #
straight-curve $-1 -62.815637684255499 -31.320210130858165 0 0 0 -1 I I #
edge $-1 $489 -31.320210130858165 $493 31.320210130858165 $487 $575 forward 7 unknown #
straight-curve $-1 0 -31.320210130858165 -7.6699960983014979 -1 0 0 I I #
vertex $-1 $351 $576 #
straight-curve $-1 0 31.320210130858165 -7.6699960983014979 1 0 0 I I #
point $-1 62.815637684255499 31.320210130858165 -7.6699960983014979 #
point $-1 62.815637684255499 -31.320210130858165 -7.6699960983014979 #
straight-curve $-1 -62.815637684255499 0 7.6699960983014979 0 -1 0 I I #
point $-1 -62.815637684255499 31.320210130858165 7.6699960983014979 #
point $-1 -62.815637684255499 -31.320210130858165 7.6699960983014979 #
straight-curve $-1 62.815637684255499 -31.320210130858165 0 0 0 -1 I I #
straight-curve $-1 62.815637684255499 31.320210130858165 0 0 0 -1 I I #
plane-surface $-1 0 -31.320210130858165 0 0 1 0 0 0 1 forward_v I I I I #
coedge $-1 $577 $371 $381 $514 reversed $240 $-1 #
coedge $-1 $371 $577 $384 $516 forward $240 $-1 #
coedge $-1 $578 $374 $372 $506 forward $369 $-1 #
edge $-1 $507 55.343230535400032 $579 62.815637684255499 $372 $580 forward 7 unknown #
vertex $-1 $506 $581 #
straight-curve $-1 -55.343230535400032 31.320210130858165 3.0799246547571189 0 0 -1 I I #
coedge $-1 $374 $578 $376 $511 forward $369 $-1 #
straight-curve $-1 -55.343230535400032 0 7.6699960983014979 0 1 0 I I #
edge $-1 $582 -62.815637684255499 $378 -55.343230535400032 $376 $583 forward 7 unknown #
point $-1 -55.343230535400032 -31.320210130858165 7.669996098301497 #
straight-curve $-1 -62.815637684255499 0 4.6497025207269784 0 -1 0 I I #
edge $-1 $582 -7.6699960983014979 $382 -4.6497025207269784 $503 $584 forward 7 unknown #
point $-1 -62.815637684255499 -31.320210130858165 4.6497025207269784 #
edge $-1 $579 -7.6699960983014979 $385 -4.6497025207269784 $384 $585 forward 7 unknown #
point $-1 -62.815637684255499 31.320210130858165 4.6497025207269784 #
plane-surface $-1 62.815637684255499 0 0 -1 0 0 0 0 1 forward_v I I I I #
coedge $-1 $392 $402 $393 $522 reversed $256 $-1 #
edge $-1 $524 -4.5900714435443781 $403 -1.5697778659698596 $392 $586 forward 7 unknown #
coedge $-1 $394 $393 $407 $530 forward $154 $-1 #
edge $-1 $524 55.343230535400032 $533 62.815637684255499 $519 $587 forward 7 unknown #
edge $-1 $531 -62.815637684255499 $400 -55.343230535400032 $398 $588 forward 7 unknown #
vertex $-1 $522 $589 #
straight-curve $-1 55.343230535400032 0 7.6699960983014979 0 -1 0 I I #
straight-curve $-1 55.343230535400032 0 4.6497025207269784 0 1 0 I I #
point $-1 55.343230535400032 31.320210130858165 4.6497025207269784 #
point $-1 55.343230535400032 31.320210130858165 7.669996098301497 #
point $-1 55.343230535400032 -31.320210130858165 4.6497025207269784 #
edge $-1 $533 -31.320210130858165 $531 31.320210130858165 $407 $590 forward 7 unknown #
vertex $-1 $530 $591 #
straight-curve $-1 62.815637684255499 31.320210130858165 0 0 0 -1 I I #
vertex $-1 $530 $592 #
straight-curve $-1 62.815637684255499 -31.320210130858165 0 0 0 -1 I I #
edge $-1 $536 52.693817558627551 $539 56.700018079090434 $413 $593 forward 7 unknown #
vertex $-1 $427 $594 #
straight-curve $-1 27.458107440639509 54.399938894977154 7.6699960983014961 0 1 0 I I #
edge $-1 $539 -18.508819193315613 $424 0.61024269866782177 $423 $595 forward 7 unknown #
vertex $-1 $538 $596 #
straight-curve $-1 27.458107440639509 8.3922334681574284e-007 57.911991312744185 0 -0.49999998660252726 0.86602541151947299 I I #
point $-1 27.458107440639509 29.007229264576228 7.6699960983014961 #
point $-1 8.3390455486560739 31.320210130858165 3.6637955778386129 #
straight-curve $-1 0 31.320210130858165 7.6699960983014979 -1 0 0 I I #
vertex $-1 $430 $597 #
point $-1 18.398576494647791 28.453513108285854 4.6795076385679986 #
coedge $-1 $445 $444 $437 $547 forward $434 $-1 #
edge $-1 $548 37.401385440327651 $551 42.199434415704459 $546 $598 forward 7 unknown #
vertex $-1 $449 $599 #
straight-curve $-1 -44.952286468869232 -60.84589385289928 7.6699960983014961 0 -1 0 I I #
edge $-1 $551 -26.955943567408898 $446 -9.0367422355117704 $445 $600 forward 7 unknown #
vertex $-1 $550 $601 #
straight-curve $-1 -44.952286468869232 -31.320210130858172 2.8719471229246807 0 0.69465836192734942 0.71933980857756763 I I #
point $-1 -44.952286468869232 -26.686788204337539 7.6699960983014979 #
point $-1 -27.033085136972105 -31.320210130858165 2.8719471229246882 #
straight-curve $-1 0 -31.320210130858165 7.6699960983014979 1 0 0 I I #
vertex $-1 $452 $602 #
point $-1 -38.832514659755766 -27.399863365205992 3.7223585541212287 #
vertex $-1 $456 $603 #
point $-1 -31.152856946085571 -27.399863365205992 3.7223585541212287 #
edge $-1 $561 37.401385440327651 $564 42.199434415704459 $461 $604 forward 7 unknown #
vertex $-1 $475 $605 #
straight-curve $-1 27.03308513697209 -60.84589385289928 7.6699960983014961 0 -1 0 I I #
edge $-1 $564 9.0367422355117633 $472 26.955943567408891 $471 $606 forward 7 unknown #
vertex $-1 $563 $607 #
straight-curve $-1 27.03308513697209 -31.320210130858172 2.8719471229246807 0 0.69465836192734942 0.71933980857756763 I I #
point $-1 27.03308513697209 -26.686788204337539 7.6699960983014979 #
point $-1 44.952286468869218 -31.320210130858165 2.8719471229246882 #
straight-curve $-1 0 -31.320210130858165 7.6699960983014979 1 0 0 I I #
vertex $-1 $478 $608 #
point $-1 33.152856946085556 -27.399863365205992 3.7223585541212287 #
vertex $-1 $482 $609 #
point $-1 40.832514659755752 -27.399863365205992 3.7223585541212287 #
straight-curve $-1 -62.815637684255499 31.320210130858165 0 0 0 -1 I I #
point $-1 -62.815637684255499 -31.320210130858165 -7.6699960983014979 #
straight-curve $-1 -62.815637684255499 0 -7.6699960983014979 0 1 0 I I #
point $-1 -62.815637684255499 31.320210130858165 -7.6699960983014979 #
coedge $-1 $504 $503 $578 $610 reversed $240 $-1 #
coedge $-1 $509 $505 $577 $610 forward $369 $-1 #
vertex $-1 $506 $611 #
straight-curve $-1 0 31.320210130858165 7.6699960983014979 -1 0 0 I I #
point $-1 -55.343230535400032 31.320210130858165 7.669996098301497 #
vertex $-1 $610 $612 #
straight-curve $-1 0 -31.320210130858165 7.6699960983014979 1 0 0 I I #
straight-curve $-1 -62.815637684255499 -31.320210130858165 0 0 0 -1 I I #
straight-curve $-1 -62.815637684255499 31.320210130858165 0 0 0 -1 I I #
straight-curve $-1 55.343230535400032 -31.320210130858165 3.0799246547571189 0 0 -1 I I #
straight-curve $-1 0 -31.320210130858165 7.6699960983014979 1 0 0 I I #
straight-curve $-1 0 31.320210130858165 7.6699960983014979 -1 0 0 I I #
point $-1 55.343230535400032 -31.320210130858165 7.669996098301497 #
straight-curve $-1 62.815637684255499 0 7.6699960983014979 0 1 0 I I #
point $-1 62.815637684255499 31.320210130858165 7.6699960983014979 #
point $-1 62.815637684255499 -31.320210130858165 7.6699960983014979 #
straight-curve $-1 27.458107440639509 31.320210130858165 60.363813656929047 0 0 -1 I I #
point $-1 27.458107440639509 31.320210130858165 7.6699960983014979 #
straight-curve $-1 8.9492882473238957 31.320210130858165 3.6637955778386022 -1 0 0 I I #
point $-1 27.458107440639509 31.320210130858165 3.6637955778386129 #
point $-1 17.898576494647791 28.020500402526118 4.4295076452667344 #
straight-curve $-1 -44.952286468869232 -31.320210130858165 45.071381538629147 0 0 -1 I I #
point $-1 -44.952286468869232 -31.320210130858165 7.6699960983014979 #
straight-curve $-1 -17.996342901460334 -31.320210130858165 2.8719471229246842 1 0 0 I I #
point $-1 -44.952286468869232 -31.320210130858165 2.8719471229246882 #
point $-1 -39.832514659755766 -26.680523556628426 3.0277001921938798 #
point $-1 -32.152856946085571 -26.680523556628426 3.0277001921938798 #
straight-curve $-1 27.03308513697209 -31.320210130858165 45.071381538629147 0 0 -1 I I #
point $-1 27.03308513697209 -31.320210130858165 7.6699960983014979 #
straight-curve $-1 17.996342901460327 -31.320210130858165 2.8719471229246842 1 0 0 I I #
point $-1 27.03308513697209 -31.320210130858165 2.8719471229246882 #
point $-1 32.152856946085556 -26.680523556628426 3.0277001921938798 #
point $-1 39.832514659755752 -26.680523556628426 3.0277001921938798 #
edge $-1 $579 -31.320210130858165 $582 31.320210130858165 $577 $613 forward 7 unknown #
point $-1 -62.815637684255499 31.320210130858165 7.6699960983014979 #
point $-1 -62.815637684255499 -31.320210130858165 7.6699960983014979 #
straight-curve $-1 -62.815637684255499 0 7.6699960983014979 0 -1 0 I I #
End-of-ACIS-data 