500 0 8 0           
7 Unknown 11 ACIS 5.0 NT 24 Fri Mar 26 18:11:13 1999 
-1 9.9999999999999995e-007 1e-010 
body $-1 $8 $-1 $9 #
body $-1 $10 $-1 $11 #
body $-1 $12 $-1 $13 #
body $-1 $14 $-1 $15 #
body $-1 $16 $-1 $17 #
body $-1 $18 $-1 $19 #
body $-1 $20 $-1 $21 #
body $-1 $22 $-1 $23 #
lump $-1 $-1 $24 $0 #
transform $-1 1 0 0 0 1 0 0 0 1 49.891659291360213 33.113462897754275 10.069152550451493 1 rotate no_reflect no_shear #
lump $-1 $-1 $25 $1 #
transform $-1 1 0 0 0 1 0 0 0 1 49.891659291360213 33.113462897754275 10.069152550451493 1 rotate no_reflect no_shear #
lump $-1 $-1 $26 $2 #
transform $-1 1 0 0 0 1 0 0 0 1 49.891659291360213 33.113462897754275 10.069152550451493 1 rotate no_reflect no_shear #
lump $-1 $-1 $27 $3 #
transform $-1 1 0 0 0 1 0 0 0 1 49.891659291360213 33.113462897754275 10.069152550451493 1 rotate no_reflect no_shear #
lump $-1 $-1 $28 $4 #
transform $-1 1 0 0 0 1 0 0 0 1 49.891659291360213 33.113462897754275 10.069152550451493 1 rotate no_reflect no_shear #
lump $-1 $-1 $29 $5 #
transform $-1 1 0 0 0 1 0 0 0 1 49.891659291360213 33.113462897754275 10.069152550451493 1 rotate no_reflect no_shear #
lump $-1 $-1 $30 $6 #
transform $-1 1 0 0 0 1 0 0 0 1 49.891659291360213 33.113462897754275 10.069152550451493 1 rotate no_reflect no_shear #
lump $-1 $-1 $31 $7 #
transform $-1 1 0 0 0 1 0 0 0 1 49.891659291360213 33.113462897754275 10.069152550451493 1 rotate no_reflect no_shear #
shell $-1 $-1 $-1 $32 $-1 $8 #
shell $-1 $-1 $-1 $33 $-1 $10 #
shell $-1 $-1 $-1 $34 $-1 $12 #
shell $-1 $-1 $-1 $35 $-1 $14 #
shell $-1 $-1 $-1 $36 $-1 $16 #
shell $-1 $-1 $-1 $37 $-1 $18 #
shell $-1 $-1 $-1 $38 $-1 $20 #
shell $-1 $-1 $-1 $39 $-1 $22 #
face $-1 $40 $41 $24 $-1 $42 forward single #
face $-1 $43 $44 $25 $-1 $45 forward single #
face $-1 $46 $47 $26 $-1 $48 reversed single #
face $-1 $49 $50 $27 $-1 $51 forward single #
face $-1 $52 $53 $28 $-1 $54 reversed single #
face $-1 $55 $56 $29 $-1 $57 forward single #
face $-1 $58 $59 $30 $-1 $60 reversed single #
face $-1 $61 $62 $31 $-1 $63 forward single #
face $-1 $64 $65 $24 $-1 $66 reversed single #
loop $-1 $-1 $67 $32 #
plane-surface $-1 0 0 10.069152550451493 0 0 1 1 0 0 forward_v I I I I #
face $-1 $68 $69 $25 $-1 $70 reversed single #
loop $-1 $-1 $71 $33 #
plane-surface $-1 -49.891659291360213 0 0 1 0 0 0 0 -1 forward_v I I I I #
face $-1 $72 $73 $26 $-1 $74 reversed single #
loop $-1 $-1 $75 $34 #
plane-surface $-1 -39.952503065815812 82.639594090656047 115.64991523301714 1 0 0 0 -0.84804810408105047 -0.52991925155115449 forward_v I I I I #
face $-1 $76 $77 $27 $-1 $78 forward single #
loop $-1 $79 $80 $35 #
cone-surface $-1 -34.359219258362721 30.899116001798806 7.6309866932107795 0 -0.84804810408105047 -0.52991925155115449 1 0 0 1 I I 0 1 1 forward I I I I #
face $-1 $81 $82 $28 $-1 $83 reversed single #
loop $-1 $-1 $84 $36 #
plane-surface $-1 6.1863679817807284 82.639594090656047 115.64991523301714 1 0 0 0 -0.84804810408105047 -0.52991925155115449 forward_v I I I I #
face $-1 $85 $86 $29 $-1 $87 forward single #
loop $-1 $88 $89 $37 #
cone-surface $-1 11.779651789233817 30.899116001798806 7.6309866932107795 0 -0.84804810408105047 -0.52991925155115449 1 0 0 1 I I 0 1 1 forward I I I I #
face $-1 $90 $91 $30 $-1 $92 reversed single #
loop $-1 $-1 $93 $38 #
plane-surface $-1 -25.800758956021944 -112.80396524888866 63.924063557870568 -1 0 0 0 -0.79863551827123203 0.60181501223851219 forward_v I I I I #
face $-1 $94 $95 $31 $-1 $96 forward single #
loop $-1 $97 $98 $39 #
cone-surface $-1 -34.093420879927407 -29.403857324462571 5.9349033869512873 0 0.79863551827123203 -0.60181501223851219 1 0 0 1 I I 0 1 1 forward I I I I #
face $-1 $99 $100 $24 $-1 $101 reversed single #
loop $-1 $-1 $102 $40 #
plane-surface $-1 0 0 -10.069152550451493 0 0 1 1 0 0 forward_v I I I I #
coedge $-1 $103 $104 $105 $106 forward $41 $-1 #
face $-1 $107 $108 $25 $-1 $109 reversed single #
loop $-1 $-1 $110 $43 #
plane-surface $-1 0 0 -10.069152550451493 0 0 1 1 0 0 forward_v I I I I #
coedge $-1 $111 $112 $113 $114 forward $44 $-1 #
face $-1 $115 $116 $26 $-1 $117 reversed single #
loop $-1 $-1 $118 $46 #
plane-surface $-1 -34.359219258362721 -1.9814600523354642 62.772813732371525 0 0.84804810408105047 0.52991925155115449 1 0 0 forward_v I I I I #
coedge $-1 $119 $120 $121 $122 reversed $47 $-1 #
face $-1 $-1 $123 $27 $-1 $124 forward single #
loop $-1 $125 $126 $49 #
cone-surface $-1 -34.359219258362721 29.341755773797431 6.6578400492331991 0 -0.84804810408105047 -0.52991925155115449 0.5 0 0 1 I I -0.70710678118654746 0.70710678118654746 0.5 forward I I I I #
loop $-1 $-1 $127 $35 #
coedge $-1 $80 $80 $128 $129 reversed $50 $-1 #
face $-1 $130 $131 $28 $-1 $132 reversed single #
loop $-1 $-1 $133 $52 #
plane-surface $-1 11.779651789233817 -1.9814600523354642 62.772813732371525 0 0.84804810408105047 0.52991925155115449 1 0 0 forward_v I I I I #
coedge $-1 $134 $135 $136 $137 reversed $53 $-1 #
face $-1 $-1 $138 $29 $-1 $139 forward single #
loop $-1 $140 $141 $55 #
cone-surface $-1 11.779651789233817 29.341755773797431 6.6578400492331991 0 -0.84804810408105047 -0.52991925155115449 0.5 0 0 1 I I -0.70710678118654746 0.70710678118654746 0.5 forward I I I I #
loop $-1 $-1 $142 $37 #
coedge $-1 $89 $89 $143 $144 reversed $56 $-1 #
face $-1 $145 $146 $30 $-1 $147 reversed single #
loop $-1 $-1 $148 $58 #
plane-surface $-1 -34.093420879927407 -33.113462897754275 3.8729644638113143 0 -0.79863551827123203 0.60181501223851219 1 0 0 forward_v I I I I #
coedge $-1 $149 $150 $151 $152 reversed $59 $-1 #
face $-1 $-1 $153 $31 $-1 $154 forward single #
loop $-1 $155 $156 $61 #
cone-surface $-1 -34.093420879927407 -27.629515239601968 4.597840760651918 0 0.79863551827123203 -0.60181501223851219 0.5 0 0 1 I I -0.70710678118654746 0.70710678118654746 0.5 forward I I I I #
loop $-1 $-1 $157 $39 #
coedge $-1 $98 $98 $158 $159 reversed $62 $-1 #
face $-1 $160 $161 $24 $-1 $162 reversed single #
loop $-1 $-1 $163 $64 #
plane-surface $-1 0 -33.113462897754275 0 0 1 0 0 0 1 forward_v I I I I #
coedge $-1 $164 $165 $166 $167 forward $65 $-1 #
coedge $-1 $168 $67 $169 $170 forward $41 $-1 #
coedge $-1 $67 $168 $171 $172 forward $41 $-1 #
coedge $-1 $173 $174 $67 $106 reversed $175 $-1 #
edge $-1 $176 -33.113462897754275 $177 33.113462897754275 $105 $178 forward 7 unknown #
face $-1 $179 $180 $25 $-1 $181 reversed single #
loop $-1 $-1 $182 $68 #
plane-surface $-1 -53.644447535123888 -18.054076816699069 0 0 1 0 0 0 1 forward_v I I I I #
coedge $-1 $183 $184 $112 $185 forward $69 $-1 #
coedge $-1 $186 $71 $187 $188 reversed $44 $-1 #
coedge $-1 $71 $186 $110 $185 reversed $44 $-1 #
coedge $-1 $189 $190 $71 $114 reversed $191 $-1 #
edge $-1 $192 -10.069152550451493 $193 10.069152550451493 $113 $194 forward 7 unknown #
face $-1 $195 $196 $26 $-1 $197 forward single #
loop $-1 $-1 $198 $72 #
plane-surface $-1 -28.76593545090963 82.639594090656047 115.64991523301714 -1 0 0 0 0.84804810408105047 0.52991925155115449 forward_v I I I I #
coedge $-1 $199 $200 $201 $202 reversed $73 $-1 #
coedge $-1 $120 $75 $203 $204 reversed $47 $-1 #
coedge $-1 $75 $119 $199 $205 reversed $47 $-1 #
coedge $-1 $201 $206 $75 $122 forward $196 $-1 #
edge $-1 $207 8.2063341475737488 $208 10.368355587562981 $121 $209 forward 7 unknown #
loop $-1 $-1 $128 $76 #
plane-surface $-1 -34.359219258362721 -1.9814600523354642 62.772813732371525 0 0.84804810408105047 0.52991925155115449 1 0 0 forward_v I I I I #
loop $-1 $-1 $210 $49 #
coedge $-1 $126 $126 $127 $211 reversed $77 $-1 #
coedge $-1 $127 $127 $126 $211 forward $79 $-1 #
coedge $-1 $128 $128 $80 $129 forward $123 $-1 #
edge $-1 $212 1.5064360498247893e-015 $212 6.2831853071796022 $128 $213 forward 7 unknown #
face $-1 $214 $215 $28 $-1 $216 forward single #
loop $-1 $-1 $217 $81 #
plane-surface $-1 17.372935596686908 82.639594090656047 115.64991523301714 -1 0 0 0 0.84804810408105047 0.52991925155115449 forward_v I I I I #
coedge $-1 $218 $219 $220 $221 reversed $82 $-1 #
coedge $-1 $135 $84 $222 $223 reversed $53 $-1 #
coedge $-1 $84 $134 $218 $224 reversed $53 $-1 #
coedge $-1 $220 $225 $84 $137 forward $215 $-1 #
edge $-1 $226 8.2063341475737488 $227 10.368355587562981 $136 $228 forward 7 unknown #
loop $-1 $-1 $143 $85 #
plane-surface $-1 11.779651789233817 -1.9814600523354642 62.772813732371525 0 0.84804810408105047 0.52991925155115449 1 0 0 forward_v I I I I #
loop $-1 $-1 $229 $55 #
coedge $-1 $141 $141 $142 $230 reversed $86 $-1 #
coedge $-1 $142 $142 $141 $230 forward $88 $-1 #
coedge $-1 $143 $143 $89 $144 forward $138 $-1 #
edge $-1 $231 1.5064360498247893e-015 $231 6.2831853071796022 $143 $232 forward 7 unknown #
face $-1 $233 $234 $30 $-1 $235 forward single #
loop $-1 $-1 $236 $90 #
plane-surface $-1 -42.386082803832871 -112.80396524888866 63.924063557870568 1 0 0 0 0.79863551827123203 -0.60181501223851219 forward_v I I I I #
coedge $-1 $237 $238 $239 $240 reversed $91 $-1 #
coedge $-1 $150 $93 $241 $242 reversed $59 $-1 #
coedge $-1 $93 $149 $237 $243 reversed $59 $-1 #
coedge $-1 $239 $244 $93 $152 forward $234 $-1 #
edge $-1 $245 23.288519726690055 $246 27.957682221823482 $151 $247 forward 7 unknown #
loop $-1 $-1 $158 $94 #
plane-surface $-1 -34.093420879927407 -33.113462897754275 3.8729644638113143 0 -0.79863551827123203 0.60181501223851219 1 0 0 forward_v I I I I #
loop $-1 $-1 $248 $61 #
coedge $-1 $156 $156 $157 $249 reversed $95 $-1 #
coedge $-1 $157 $157 $156 $249 forward $97 $-1 #
coedge $-1 $158 $158 $98 $159 forward $153 $-1 #
edge $-1 $250 -1.4186616650690665e-015 $250 6.2831853071795987 $158 $251 forward 7 unknown #
face $-1 $252 $253 $24 $-1 $254 reversed single #
loop $-1 $-1 $255 $99 #
plane-surface $-1 -49.891659291360213 0 0 1 0 0 0 0 -1 forward_v I I I I #
coedge $-1 $256 $171 $257 $258 forward $100 $-1 #
coedge $-1 $259 $102 $256 $260 forward $65 $-1 #
coedge $-1 $102 $259 $261 $262 forward $65 $-1 #
coedge $-1 $174 $173 $102 $167 reversed $175 $-1 #
edge $-1 $263 -33.113462897754275 $264 33.113462897754275 $166 $265 forward 7 unknown #
coedge $-1 $104 $103 $266 $267 forward $41 $-1 #
coedge $-1 $268 $269 $103 $170 reversed $253 $-1 #
edge $-1 $177 -49.891659291360213 $270 49.891659291360213 $169 $271 forward 7 unknown #
coedge $-1 $163 $272 $104 $172 reversed $100 $-1 #
edge $-1 $273 -49.891659291360213 $176 49.891659291360213 $171 $274 forward 7 unknown #
coedge $-1 $166 $105 $272 $275 forward $175 $-1 #
coedge $-1 $105 $166 $268 $276 reversed $175 $-1 #
loop $-1 $-1 $173 $252 #
vertex $-1 $106 $277 #
vertex $-1 $106 $278 #
straight-curve $-1 49.891659291360213 0 10.069152550451493 0 1 0 I I #
face $-1 $279 $191 $25 $-1 $280 reversed single #
loop $-1 $-1 $281 $107 #
plane-surface $-1 -57.397235778887563 -15.514617306775179 0 1 0 0 0 0 -1 forward_v I I I I #
coedge $-1 $282 $283 $284 $285 forward $108 $-1 #
coedge $-1 $286 $110 $282 $287 forward $69 $-1 #
coedge $-1 $110 $286 $189 $288 forward $69 $-1 #
edge $-1 $192 12.975157796851288 $289 18.054076816699069 $110 $290 forward 7 unknown #
coedge $-1 $112 $111 $291 $292 forward $44 $-1 #
coedge $-1 $293 $294 $111 $188 forward $295 $-1 #
edge $-1 $296 -18.054076816699069 $193 -12.975157796851288 $187 $297 forward 7 unknown #
coedge $-1 $298 $113 $184 $288 reversed $191 $-1 #
coedge $-1 $113 $298 $293 $299 reversed $191 $-1 #
loop $-1 $-1 $113 $179 #
vertex $-1 $185 $300 #
vertex $-1 $299 $301 #
straight-curve $-1 -49.891659291360213 -12.975157796851288 0 0 0 1 I I #
face $-1 $-1 $302 $26 $-1 $303 reversed single #
loop $-1 $-1 $121 $115 #
plane-surface $-1 0 0 10.069152550451493 0 0 1 1 0 0 forward_v I I I I #
coedge $-1 $304 $305 $306 $307 reversed $116 $-1 #
coedge $-1 $308 $118 $120 $205 forward $73 $-1 #
coedge $-1 $118 $308 $304 $309 forward $73 $-1 #
coedge $-1 $306 $121 $118 $202 forward $196 $-1 #
edge $-1 $208 -22.772893436634451 $310 -11.58632582172827 $201 $311 forward 7 unknown #
coedge $-1 $312 $313 $119 $204 forward $302 $-1 #
edge $-1 $314 -51.215762744134487 $207 -47.755805066057079 $203 $315 forward 7 unknown #
edge $-1 $208 62.14701846309768 $314 66.226925795508549 $120 $316 forward 7 unknown #
coedge $-1 $121 $306 $312 $317 forward $196 $-1 #
vertex $-1 $204 $318 #
vertex $-1 $122 $319 #
straight-curve $-1 -39.952503065815812 41.319797045328023 10.069152550451491 0 -1 0 I I #
coedge $-1 $210 $210 $-1 $320 reversed $125 $-1 #
edge $-1 $321 0 $321 6.2831853071796004 $126 $322 forward 7 unknown #
vertex $-1 $129 $323 #
ellipse-curve $-1 -34.359219258362721 32.032452177759659 8.3391737114127853 0 0.84804810408105047 0.52991925155115449 1 0 0 1 I I #
face $-1 $-1 $324 $28 $-1 $325 reversed single #
loop $-1 $-1 $136 $130 #
plane-surface $-1 0 0 10.069152550451493 0 0 1 1 0 0 forward_v I I I I #
coedge $-1 $326 $327 $328 $329 reversed $131 $-1 #
coedge $-1 $330 $133 $135 $224 forward $82 $-1 #
coedge $-1 $133 $330 $326 $331 forward $82 $-1 #
coedge $-1 $328 $136 $133 $221 forward $215 $-1 #
edge $-1 $227 0.2965420871638198 $332 11.483109702069999 $220 $333 forward 7 unknown #
coedge $-1 $334 $335 $134 $223 forward $324 $-1 #
edge $-1 $336 -51.215762744134487 $226 -47.755805066057079 $222 $337 forward 7 unknown #
edge $-1 $227 62.14701846309768 $336 66.226925795508549 $135 $338 forward 7 unknown #
coedge $-1 $136 $328 $334 $339 forward $215 $-1 #
vertex $-1 $137 $340 #
vertex $-1 $137 $341 #
straight-curve $-1 6.1863679817807284 41.319797045328023 10.069152550451491 0 -1 0 I I #
coedge $-1 $229 $229 $-1 $342 reversed $140 $-1 #
edge $-1 $343 0 $343 6.2831853071796004 $141 $344 forward 7 unknown #
vertex $-1 $144 $345 #
ellipse-curve $-1 11.779651789233817 32.032452177759659 8.3391737114127853 0 0.84804810408105047 0.52991925155115449 1 0 0 1 I I #
face $-1 $-1 $346 $30 $-1 $347 reversed single #
loop $-1 $-1 $151 $145 #
plane-surface $-1 0 0 10.069152550451493 0 0 1 1 0 0 forward_v I I I I #
coedge $-1 $348 $349 $350 $351 reversed $146 $-1 #
coedge $-1 $352 $148 $150 $243 forward $91 $-1 #
coedge $-1 $148 $352 $348 $353 forward $91 $-1 #
coedge $-1 $350 $151 $148 $240 forward $234 $-1 #
edge $-1 $246 8.7540485160582406 $354 25.339372363869167 $239 $355 forward 7 unknown #
coedge $-1 $356 $357 $149 $242 forward $346 $-1 #
edge $-1 $358 -28.08906731512397 $245 -21.892879228483793 $241 $359 forward 7 unknown #
edge $-1 $246 -7.7584679680322388 $358 0 $150 $360 forward 7 unknown #
coedge $-1 $151 $350 $356 $361 forward $234 $-1 #
vertex $-1 $152 $362 #
vertex $-1 $152 $363 #
straight-curve $-1 -25.800758956021944 -56.401982624444329 10.069152550451491 0 1 0 I I #
coedge $-1 $248 $248 $-1 $364 reversed $155 $-1 #
edge $-1 $365 0 $365 6.2831853071796004 $156 $366 forward 7 unknown #
vertex $-1 $159 $367 #
ellipse-curve $-1 -34.093420879927407 -30.778881650187561 6.9710585071314028 0 -0.79863551827123203 0.60181501223851219 1 0 0 1 I I #
face $-1 $-1 $175 $24 $-1 $368 reversed single #
loop $-1 $-1 $268 $160 #
plane-surface $-1 0 33.113462897754275 0 0 -1 0 0 0 -1 forward_v I I I I #
coedge $-1 $369 $266 $269 $370 forward $161 $-1 #
coedge $-1 $272 $163 $164 $260 reversed $100 $-1 #
coedge $-1 $266 $369 $163 $258 reversed $161 $-1 #
edge $-1 $273 -10.069152550451493 $371 10.069152550451493 $257 $372 forward 7 unknown #
coedge $-1 $165 $164 $369 $373 forward $65 $-1 #
edge $-1 $264 -49.891659291360213 $371 49.891659291360213 $256 $374 forward 7 unknown #
coedge $-1 $269 $268 $165 $262 reversed $253 $-1 #
edge $-1 $375 -49.891659291360213 $263 49.891659291360213 $261 $376 forward 7 unknown #
vertex $-1 $167 $377 #
vertex $-1 $275 $378 #
straight-curve $-1 49.891659291360213 0 -10.069152550451493 0 -1 0 I I #
coedge $-1 $255 $257 $168 $267 reversed $161 $-1 #
edge $-1 $270 -33.113462897754275 $273 33.113462897754275 $266 $379 forward 7 unknown #
coedge $-1 $261 $169 $174 $276 forward $253 $-1 #
coedge $-1 $169 $261 $255 $370 reversed $253 $-1 #
vertex $-1 $170 $380 #
straight-curve $-1 0 33.113462897754275 10.069152550451493 -1 0 0 I I #
coedge $-1 $171 $256 $173 $275 reversed $100 $-1 #
vertex $-1 $267 $381 #
straight-curve $-1 0 -33.113462897754275 10.069152550451493 1 0 0 I I #
edge $-1 $176 -10.069152550451493 $264 10.069152550451493 $173 $382 forward 7 unknown #
edge $-1 $177 -10.069152550451493 $263 10.069152550451493 $174 $383 forward 7 unknown #
point $-1 49.891659291360213 -33.113462897754275 10.069152550451493 #
point $-1 49.891659291360213 33.113462897754275 10.069152550451493 #
face $-1 $-1 $295 $25 $-1 $384 forward single #
plane-surface $-1 -53.644447535123888 -12.975157796851288 0 0 -1 0 0 0 -1 forward_v I I I I #
coedge $-1 $385 $386 $298 $387 forward $180 $-1 #
coedge $-1 $291 $182 $183 $287 reversed $108 $-1 #
coedge $-1 $182 $291 $294 $388 reversed $108 $-1 #
coedge $-1 $386 $385 $182 $285 reversed $180 $-1 #
edge $-1 $389 -10.069152550451493 $390 10.069152550451493 $284 $391 forward 7 unknown #
coedge $-1 $184 $183 $385 $392 forward $69 $-1 #
edge $-1 $289 -3.7527882437636748 $390 3.7527882437636748 $282 $393 forward 7 unknown #
edge $-1 $394 -3.7527882437636748 $192 3.7527882437636748 $189 $395 forward 7 unknown #
vertex $-1 $287 $396 #
straight-curve $-1 -49.891659291360213 0 -10.069152550451493 0 -1 0 I I #
coedge $-1 $283 $282 $186 $292 reversed $108 $-1 #
edge $-1 $296 -10.069152550451493 $289 10.069152550451493 $291 $397 forward 7 unknown #
coedge $-1 $398 $187 $190 $299 forward $295 $-1 #
coedge $-1 $187 $398 $283 $388 forward $295 $-1 #
loop $-1 $-1 $187 $279 #
vertex $-1 $188 $399 #
straight-curve $-1 -49.891659291360213 0 10.069152550451493 0 1 0 I I #
coedge $-1 $190 $189 $281 $387 reversed $191 $-1 #
edge $-1 $193 -3.7527882437636748 $400 3.7527882437636748 $190 $401 forward 7 unknown #
point $-1 -49.891659291360213 -12.975157796851288 -10.069152550451493 #
point $-1 -49.891659291360213 -12.975157796851288 10.069152550451493 #
loop $-1 $-1 $203 $195 #
plane-surface $-1 0 33.113462897754275 0 0 -1 0 0 0 -1 forward_v I I I I #
coedge $-1 $305 $198 $200 $309 reversed $116 $-1 #
coedge $-1 $198 $304 $402 $403 reversed $116 $-1 #
coedge $-1 $206 $201 $198 $307 forward $196 $-1 #
edge $-1 $310 -10.368355587562981 $404 -8.2063341475737488 $306 $405 forward 7 unknown #
coedge $-1 $200 $199 $313 $406 reversed $73 $-1 #
edge $-1 $407 -66.226925795508549 $310 -62.14701846309768 $304 $408 forward 7 unknown #
vertex $-1 $202 $409 #
straight-curve $-1 -17.17960962918136 30.951441457765043 10.069152550451491 1 0 0 I I #
coedge $-1 $402 $203 $206 $317 reversed $302 $-1 #
coedge $-1 $203 $402 $308 $406 forward $302 $-1 #
vertex $-1 $204 $410 #
straight-curve $-1 -39.952503065815812 33.113462897754275 57.82495761650857 0 0 1 I I #
straight-curve $-1 -39.952503065815812 -1.9814600523354642 62.772813732371525 0 0.52991925155115449 -0.84804810408105047 I I #
edge $-1 $404 28.76593545090963 $207 39.952503065815812 $312 $411 forward 7 unknown #
point $-1 -39.952503065815812 33.113462897754275 10.069152550451493 #
point $-1 -39.952503065815812 30.951441457765043 10.069152550451491 #
edge $-1 $412 1 $412 0 $210 $-1 forward 7 unknown #
vertex $-1 $211 $413 #
ellipse-curve $-1 -34.359219258362721 29.765779825837956 6.9227996750087764 0 0.84804810408105047 0.52991925155115449 1 0 0 1 I I #
point $-1 -33.359219258362721 32.032452177759659 8.3391737114127835 #
loop $-1 $-1 $222 $214 #
plane-surface $-1 0 33.113462897754275 0 0 -1 0 0 0 -1 forward_v I I I I #
coedge $-1 $327 $217 $219 $331 reversed $131 $-1 #
coedge $-1 $217 $326 $414 $415 reversed $131 $-1 #
coedge $-1 $225 $220 $217 $329 forward $215 $-1 #
edge $-1 $332 -10.368355587562981 $416 -8.2063341475737488 $328 $417 forward 7 unknown #
coedge $-1 $219 $218 $335 $418 reversed $82 $-1 #
edge $-1 $419 -66.226925795508549 $332 -62.14701846309768 $326 $420 forward 7 unknown #
vertex $-1 $221 $421 #
straight-curve $-1 5.8898258946169086 30.951441457765043 10.069152550451491 1 0 0 I I #
coedge $-1 $414 $222 $225 $339 reversed $324 $-1 #
coedge $-1 $222 $414 $330 $418 forward $324 $-1 #
vertex $-1 $223 $422 #
straight-curve $-1 6.1863679817807284 33.113462897754275 57.82495761650857 0 0 1 I I #
straight-curve $-1 6.1863679817807284 -1.9814600523354642 62.772813732371525 0 0.52991925155115449 -0.84804810408105047 I I #
edge $-1 $416 -17.372935596686908 $226 -6.1863679817807284 $334 $423 forward 7 unknown #
point $-1 6.1863679817807284 33.113462897754275 10.069152550451493 #
point $-1 6.1863679817807284 30.951441457765043 10.069152550451491 #
edge $-1 $424 1 $424 0 $229 $-1 forward 7 unknown #
vertex $-1 $230 $425 #
ellipse-curve $-1 11.779651789233817 29.765779825837956 6.9227996750087764 0 0.84804810408105047 0.52991925155115449 1 0 0 1 I I #
point $-1 12.779651789233817 32.032452177759659 8.3391737114127835 #
loop $-1 $-1 $241 $233 #
plane-surface $-1 0 -33.113462897754275 0 0 1 0 0 0 1 forward_v I I I I #
coedge $-1 $349 $236 $238 $353 reversed $146 $-1 #
coedge $-1 $236 $348 $426 $427 reversed $146 $-1 #
coedge $-1 $244 $239 $236 $351 forward $234 $-1 #
edge $-1 $354 -27.957682221823482 $428 -23.288519726690055 $350 $429 forward 7 unknown #
coedge $-1 $238 $237 $357 $430 reversed $91 $-1 #
edge $-1 $431 0 $354 7.7584679680322388 $348 $432 forward 7 unknown #
vertex $-1 $240 $433 #
straight-curve $-1 -17.046710439963704 -28.444300402620851 10.069152550451493 -1 0 0 I I #
coedge $-1 $426 $241 $244 $361 reversed $346 $-1 #
coedge $-1 $241 $426 $352 $430 forward $346 $-1 #
vertex $-1 $242 $434 #
straight-curve $-1 -25.800758956021944 -33.113462897754275 31.962031778935284 0 0 1 I I #
straight-curve $-1 -25.800758956021944 -33.113462897754275 3.8729644638113143 0 -0.60181501223851219 -0.79863551827123203 I I #
edge $-1 $428 -42.386082803832871 $245 -25.800758956021944 $356 $435 forward 7 unknown #
point $-1 -25.800758956021944 -33.113462897754275 10.069152550451493 #
point $-1 -25.800758956021944 -28.444300402620847 10.069152550451493 #
edge $-1 $436 1 $436 0 $248 $-1 forward 7 unknown #
vertex $-1 $249 $437 #
ellipse-curve $-1 -34.093420879927407 -28.028832998737585 4.8987482667711744 0 -0.79863551827123203 0.60181501223851219 1 0 0 1 I I #
point $-1 -33.093420879927407 -30.778881650187561 6.9710585071314011 #
plane-surface $-1 49.891659291360213 0 0 -1 0 0 0 0 1 forward_v I I I I #
coedge $-1 $257 $255 $259 $373 reversed $161 $-1 #
edge $-1 $270 -10.069152550451493 $375 10.069152550451493 $269 $438 forward 7 unknown #
vertex $-1 $373 $439 #
straight-curve $-1 -49.891659291360213 -33.113462897754275 0 0 0 -1 I I #
edge $-1 $371 -33.113462897754275 $375 33.113462897754275 $369 $440 forward 7 unknown #
straight-curve $-1 0 -33.113462897754275 -10.069152550451493 -1 0 0 I I #
vertex $-1 $262 $441 #
straight-curve $-1 0 33.113462897754275 -10.069152550451493 1 0 0 I I #
point $-1 49.891659291360213 33.113462897754275 -10.069152550451493 #
point $-1 49.891659291360213 -33.113462897754275 -10.069152550451493 #
straight-curve $-1 -49.891659291360213 0 10.069152550451493 0 -1 0 I I #
point $-1 -49.891659291360213 33.113462897754275 10.069152550451493 #
point $-1 -49.891659291360213 -33.113462897754275 10.069152550451493 #
straight-curve $-1 49.891659291360213 -33.113462897754275 0 0 0 -1 I I #
straight-curve $-1 49.891659291360213 33.113462897754275 0 0 0 -1 I I #
plane-surface $-1 0 0 10.069152550451493 0 0 1 1 0 0 forward_v I I I I #
coedge $-1 $284 $281 $286 $392 reversed $180 $-1 #
coedge $-1 $281 $284 $398 $442 reversed $180 $-1 #
edge $-1 $400 -10.069152550451493 $394 10.069152550451493 $298 $443 forward 7 unknown #
edge $-1 $389 -3.7527882437636748 $296 3.7527882437636748 $283 $444 forward 7 unknown #
vertex $-1 $442 $445 #
vertex $-1 $392 $446 #
straight-curve $-1 -57.397235778887563 -18.054076816699069 0 0 0 -1 I I #
edge $-1 $390 -2.5394595099238906 $394 2.5394595099238906 $385 $447 forward 7 unknown #
straight-curve $-1 -53.644447535123888 -18.054076816699069 -10.069152550451493 -1 0 0 I I #
vertex $-1 $288 $448 #
straight-curve $-1 -53.644447535123888 -12.975157796851288 -10.069152550451493 1 0 0 I I #
point $-1 -49.891659291360213 -18.054076816699069 -10.069152550451493 #
straight-curve $-1 -49.891659291360213 -18.054076816699069 0 0 0 -1 I I #
coedge $-1 $294 $293 $386 $442 forward $295 $-1 #
point $-1 -49.891659291360213 -18.054076816699069 10.069152550451493 #
vertex $-1 $299 $449 #
straight-curve $-1 -53.644447535123888 -12.975157796851288 10.069152550451493 -1 0 0 I I #
coedge $-1 $313 $312 $305 $403 forward $302 $-1 #
edge $-1 $404 47.755805066057079 $407 51.215762744134487 $402 $450 forward 7 unknown #
vertex $-1 $317 $451 #
straight-curve $-1 -28.76593545090963 41.319797045328023 10.069152550451491 0 1 0 I I #
edge $-1 $407 11.58632582172827 $314 22.772893436634451 $313 $452 forward 7 unknown #
vertex $-1 $406 $453 #
straight-curve $-1 -28.76593545090963 -1.9814600523354642 62.772813732371525 0 -0.52991925155115449 0.84804810408105047 I I #
point $-1 -28.76593545090963 30.951441457765043 10.069152550451491 #
point $-1 -39.952503065815812 33.113462897754275 6.6091948723740828 #
straight-curve $-1 0 33.113462897754275 10.069152550451493 -1 0 0 I I #
vertex $-1 $320 $454 #
point $-1 -33.359219258362721 29.765779825837956 6.9227996750087764 #
coedge $-1 $335 $334 $327 $415 forward $324 $-1 #
edge $-1 $416 47.755805066057079 $419 51.215762744134487 $414 $455 forward 7 unknown #
vertex $-1 $339 $456 #
straight-curve $-1 17.372935596686908 41.319797045328023 10.069152550451491 0 1 0 I I #
edge $-1 $419 -11.483109702069999 $336 -0.2965420871638198 $335 $457 forward 7 unknown #
vertex $-1 $418 $458 #
straight-curve $-1 17.372935596686908 -1.9814600523354642 62.772813732371525 0 -0.52991925155115449 0.84804810408105047 I I #
point $-1 17.372935596686908 30.951441457765043 10.069152550451491 #
point $-1 6.1863679817807284 33.113462897754275 6.6091948723740828 #
straight-curve $-1 0 33.113462897754275 10.069152550451493 -1 0 0 I I #
vertex $-1 $342 $459 #
point $-1 12.779651789233817 29.765779825837956 6.9227996750087764 #
coedge $-1 $357 $356 $349 $427 forward $346 $-1 #
edge $-1 $428 21.892879228483793 $431 28.08906731512397 $426 $460 forward 7 unknown #
vertex $-1 $361 $461 #
straight-curve $-1 -42.386082803832871 -56.401982624444329 10.069152550451491 0 -1 0 I I #
edge $-1 $431 -25.339372363869167 $358 -8.7540485160582406 $357 $462 forward 7 unknown #
vertex $-1 $430 $463 #
straight-curve $-1 -42.386082803832871 -33.113462897754275 3.8729644638113143 0 0.60181501223851219 0.79863551827123203 I I #
point $-1 -42.386082803832871 -28.444300402620847 10.069152550451493 #
point $-1 -25.800758956021944 -33.113462897754275 3.8729644638113143 #
straight-curve $-1 0 -33.113462897754275 10.069152550451493 1 0 0 I I #
vertex $-1 $364 $464 #
point $-1 -33.093420879927407 -28.028832998737585 4.8987482667711744 #
straight-curve $-1 -49.891659291360213 33.113462897754275 0 0 0 -1 I I #
point $-1 -49.891659291360213 -33.113462897754275 -10.069152550451493 #
straight-curve $-1 -49.891659291360213 0 -10.069152550451493 0 1 0 I I #
point $-1 -49.891659291360213 33.113462897754275 -10.069152550451493 #
edge $-1 $400 -2.5394595099238906 $389 2.5394595099238906 $386 $465 forward 7 unknown #
straight-curve $-1 -57.397235778887563 -12.975157796851288 0 0 0 -1 I I #
straight-curve $-1 -53.644447535123888 -18.054076816699069 10.069152550451493 1 0 0 I I #
point $-1 -57.397235778887563 -18.054076816699069 10.069152550451493 #
point $-1 -57.397235778887563 -18.054076816699069 -10.069152550451493 #
straight-curve $-1 -57.397235778887563 -15.514617306775179 -10.069152550451493 0 1 0 I I #
point $-1 -57.397235778887563 -12.975157796851288 -10.069152550451493 #
point $-1 -57.397235778887563 -12.975157796851288 10.069152550451493 #
straight-curve $-1 -28.76593545090963 33.113462897754275 57.82495761650857 0 0 -1 I I #
point $-1 -28.76593545090963 33.113462897754275 10.069152550451493 #
straight-curve $-1 -17.17960962918136 33.113462897754275 6.6091948723740863 -1 0 0 I I #
point $-1 -28.76593545090963 33.113462897754275 6.6091948723740828 #
point $-1 -34.359219258362721 28.917731721756905 6.3928804234576218 #
straight-curve $-1 17.372935596686908 33.113462897754275 57.82495761650857 0 0 -1 I I #
point $-1 17.372935596686908 33.113462897754275 10.069152550451493 #
straight-curve $-1 5.8898258946169086 33.113462897754275 6.6091948723740863 -1 0 0 I I #
point $-1 17.372935596686908 33.113462897754275 6.6091948723740828 #
point $-1 11.779651789233817 28.917731721756905 6.3928804234576218 #
straight-curve $-1 -42.386082803832871 -33.113462897754275 31.962031778935284 0 0 -1 I I #
point $-1 -42.386082803832871 -33.113462897754275 10.069152550451493 #
straight-curve $-1 -17.046710439963704 -33.113462897754275 3.8729644638113152 1 0 0 I I #
point $-1 -42.386082803832871 -33.113462897754275 3.8729644638113143 #
point $-1 -34.093420879927407 -27.230197480466352 4.2969332545326617 #
straight-curve $-1 -57.397235778887563 -15.514617306775179 10.069152550451493 0 -1 0 I I #
End-of-ACIS-data 