500 0 5 0           
7 Unknown 11 ACIS 5.0 NT 24 Fri Mar 26 03:11:42 1999 
-1 9.9999999999999995e-007 1e-010 
body $-1 $5 $-1 $6 #
body $-1 $7 $-1 $8 #
body $-1 $9 $-1 $10 #
body $-1 $11 $-1 $12 #
body $-1 $13 $-1 $14 #
lump $-1 $-1 $15 $0 #
transform $-1 1 0 0 0 1 0 0 0 1 70.711386455885503 44.154315770681976 21.481282814879989 1 rotate no_reflect no_shear #
lump $-1 $-1 $16 $1 #
transform $-1 1 0 0 0 1 0 0 0 1 70.711386455885503 44.154315770681976 21.481282814879989 1 rotate no_reflect no_shear #
lump $-1 $-1 $17 $2 #
transform $-1 1 0 0 0 1 0 0 0 1 70.711386455885503 44.154315770681976 21.481282814879989 1 rotate no_reflect no_shear #
lump $-1 $-1 $18 $3 #
transform $-1 1 0 0 0 1 0 0 0 1 70.711386455885503 44.154315770681976 21.481282814879989 1 rotate no_reflect no_shear #
lump $-1 $-1 $19 $4 #
transform $-1 1 0 0 0 1 0 0 0 1 70.711386455885503 44.154315770681976 21.481282814879989 1 rotate no_reflect no_shear #
shell $-1 $-1 $-1 $20 $-1 $5 #
shell $-1 $-1 $-1 $21 $-1 $7 #
shell $-1 $-1 $-1 $22 $-1 $9 #
shell $-1 $-1 $-1 $23 $-1 $11 #
shell $-1 $-1 $-1 $24 $-1 $13 #
face $-1 $25 $26 $15 $-1 $27 forward single #
face $-1 $28 $29 $16 $-1 $30 forward single #
face $-1 $31 $32 $17 $-1 $33 reversed single #
face $-1 $34 $35 $18 $-1 $36 forward single #
face $-1 $37 $38 $19 $-1 $39 forward single #
face $-1 $40 $41 $15 $-1 $42 reversed single #
loop $-1 $-1 $43 $20 #
plane-surface $-1 0 0 21.481282814879989 0 0 1 1 0 0 forward_v I I I I #
face $-1 $44 $45 $16 $-1 $46 reversed single #
loop $-1 $-1 $47 $21 #
plane-surface $-1 -70.711386455885503 0 0 1 0 0 0 0 -1 forward_v I I I I #
face $-1 $48 $49 $17 $-1 $50 reversed single #
loop $-1 $-1 $51 $22 #
plane-surface $-1 52.412561832804784 -138.78462270019338 106.12411946187144 -1 0 0 0 -0.66913061440640931 0.74314481823134659 forward_v I I I I #
face $-1 $52 $53 $18 $-1 $54 forward single #
loop $-1 $55 $56 $23 #
cone-surface $-1 41.824363843590888 -30.610951202745458 8.8275386555212485 0 0.66913061440640931 -0.74314481823134659 2 0 0 1 I I 0 1 2 forward I I I I #
face $-1 $57 $58 $19 $-1 $59 forward single #
loop $-1 $60 $61 $24 #
cone-surface $-1 48.17728263711922 -30.610951202745458 8.8275386555212485 0 0.66913061440640931 -0.74314481823134659 2 0 0 1 I I 0 1 2 forward I I I I #
face $-1 $62 $63 $15 $-1 $64 reversed single #
loop $-1 $-1 $65 $25 #
plane-surface $-1 0 0 -21.481282814879989 0 0 1 1 0 0 forward_v I I I I #
coedge $-1 $66 $67 $68 $69 forward $26 $-1 #
face $-1 $70 $71 $16 $-1 $72 reversed single #
loop $-1 $-1 $73 $28 #
plane-surface $-1 0 44.154315770681976 0 0 -1 0 0 0 -1 forward_v I I I I #
coedge $-1 $74 $75 $76 $77 forward $29 $-1 #
face $-1 $78 $79 $17 $-1 $80 reversed single #
loop $-1 $-1 $81 $31 #
plane-surface $-1 45.000823240355061 -44.154315770681947 1.0265185925803735 0 -0.66913061440640931 0.74314481823134659 1 0 0 forward_v I I I I #
coedge $-1 $82 $83 $84 $85 reversed $32 $-1 #
face $-1 $-1 $86 $18 $-1 $87 forward single #
loop $-1 $88 $89 $34 #
cone-surface $-1 41.824363843590888 -27.757114339623715 5.6580317890809617 0 0.66913061440640931 -0.74314481823134659 1 0 0 1 I I -0.70710678118654746 0.70710678118654746 1 forward I I I I #
loop $-1 $-1 $90 $23 #
coedge $-1 $56 $56 $91 $92 reversed $35 $-1 #
face $-1 $-1 $93 $19 $-1 $94 forward single #
loop $-1 $95 $96 $37 #
cone-surface $-1 48.17728263711922 -27.757114339623715 5.6580317890809617 0 0.66913061440640931 -0.74314481823134659 1 0 0 1 I I -0.70710678118654746 0.70710678118654746 1 forward I I I I #
loop $-1 $-1 $97 $24 #
coedge $-1 $61 $61 $98 $99 reversed $38 $-1 #
face $-1 $100 $101 $15 $-1 $102 reversed single #
loop $-1 $-1 $103 $40 #
plane-surface $-1 0 -44.154315770681976 0 0 1 0 0 0 1 forward_v I I I I #
coedge $-1 $104 $105 $106 $107 forward $41 $-1 #
coedge $-1 $108 $43 $109 $110 forward $26 $-1 #
coedge $-1 $43 $108 $111 $112 forward $26 $-1 #
coedge $-1 $113 $114 $43 $69 reversed $115 $-1 #
edge $-1 $116 -44.154315770681976 $117 44.154315770681976 $68 $118 forward 7 unknown #
face $-1 $119 $120 $16 $-1 $121 reversed single #
loop $-1 $-1 $76 $44 #
plane-surface $-1 -80.129978711735689 0 16.865104806130457 0 0 1 1 0 0 forward_v I I I I #
coedge $-1 $122 $123 $74 $124 forward $45 $-1 #
coedge $-1 $125 $47 $73 $124 reversed $29 $-1 #
coedge $-1 $47 $125 $126 $127 reversed $29 $-1 #
coedge $-1 $128 $129 $47 $77 reversed $71 $-1 #
edge $-1 $130 -44.154315770681976 $131 44.154315770681976 $76 $132 forward 7 unknown #
face $-1 $133 $134 $17 $-1 $135 reversed single #
loop $-1 $-1 $136 $48 #
plane-surface $-1 37.589084647905338 -138.78462270019338 106.12411946187144 1 0 0 0 0.66913061440640931 -0.74314481823134659 forward_v I I I I #
coedge $-1 $137 $138 $139 $140 reversed $49 $-1 #
coedge $-1 $83 $51 $141 $142 reversed $32 $-1 #
coedge $-1 $51 $82 $137 $143 reversed $32 $-1 #
coedge $-1 $139 $144 $51 $85 forward $145 $-1 #
edge $-1 $146 25.237995579414715 $147 47.955312217857127 $84 $148 forward 7 unknown #
loop $-1 $-1 $91 $52 #
plane-surface $-1 45.000823240355061 -44.154315770681947 1.0265185925803735 0 -0.66913061440640931 0.74314481823134659 1 0 0 forward_v I I I I #
loop $-1 $-1 $149 $34 #
coedge $-1 $89 $89 $90 $150 reversed $53 $-1 #
coedge $-1 $90 $90 $89 $150 forward $55 $-1 #
coedge $-1 $91 $91 $56 $92 forward $86 $-1 #
edge $-1 $151 -1.9454645138669056e-016 $151 6.2831853071796004 $91 $152 forward 7 unknown #
loop $-1 $-1 $98 $57 #
plane-surface $-1 45.000823240355061 -44.154315770681947 1.0265185925803735 0 -0.66913061440640931 0.74314481823134659 1 0 0 forward_v I I I I #
loop $-1 $-1 $153 $37 #
coedge $-1 $96 $96 $97 $154 reversed $58 $-1 #
coedge $-1 $97 $97 $96 $154 forward $60 $-1 #
coedge $-1 $98 $98 $61 $99 forward $93 $-1 #
edge $-1 $155 -1.9454645138669056e-016 $155 6.2831853071796004 $98 $156 forward 7 unknown #
face $-1 $157 $158 $15 $-1 $159 reversed single #
loop $-1 $-1 $160 $62 #
plane-surface $-1 -70.711386455885503 0 0 1 0 0 0 0 -1 forward_v I I I I #
coedge $-1 $161 $111 $162 $163 forward $63 $-1 #
coedge $-1 $164 $65 $161 $165 forward $41 $-1 #
coedge $-1 $65 $164 $166 $167 forward $41 $-1 #
coedge $-1 $114 $113 $65 $107 reversed $115 $-1 #
edge $-1 $168 -44.154315770681976 $169 44.154315770681976 $106 $170 forward 7 unknown #
coedge $-1 $67 $66 $171 $172 forward $26 $-1 #
coedge $-1 $173 $174 $66 $110 reversed $158 $-1 #
edge $-1 $117 -70.711386455885503 $175 70.711386455885503 $109 $176 forward 7 unknown #
coedge $-1 $103 $177 $67 $112 reversed $63 $-1 #
edge $-1 $178 -70.711386455885503 $116 70.711386455885503 $111 $179 forward 7 unknown #
coedge $-1 $106 $68 $177 $180 forward $115 $-1 #
coedge $-1 $68 $106 $173 $181 reversed $115 $-1 #
loop $-1 $-1 $113 $157 #
vertex $-1 $69 $182 #
vertex $-1 $69 $183 #
straight-curve $-1 70.711386455885503 0 21.481282814879989 0 1 0 I I #
face $-1 $184 $185 $16 $-1 $186 forward single #
loop $-1 $-1 $187 $70 #
plane-surface $-1 -89.548570967585874 0 19.173193810505225 1 0 0 0 0 -1 forward_v I I I I #
coedge $-1 $188 $73 $129 $189 reversed $45 $-1 #
coedge $-1 $73 $188 $190 $191 reversed $45 $-1 #
edge $-1 $192 -21.481282814879989 $131 -16.865104806130457 $73 $193 forward 7 unknown #
coedge $-1 $75 $74 $194 $195 reversed $29 $-1 #
coedge $-1 $196 $197 $75 $127 forward $198 $-1 #
edge $-1 $130 16.865104806130457 $199 21.481282814879989 $126 $200 forward 7 unknown #
coedge $-1 $201 $76 $197 $202 forward $71 $-1 #
coedge $-1 $76 $201 $122 $189 forward $71 $-1 #
vertex $-1 $127 $203 #
vertex $-1 $124 $204 #
straight-curve $-1 -70.711386455885503 0 16.865104806130457 0 1 0 I I #
face $-1 $-1 $145 $17 $-1 $205 forward single #
loop $-1 $-1 $206 $78 #
plane-surface $-1 0 -44.154315770681976 0 0 1 0 0 0 1 forward_v I I I I #
coedge $-1 $207 $208 $209 $210 reversed $79 $-1 #
coedge $-1 $211 $81 $83 $143 forward $49 $-1 #
coedge $-1 $81 $211 $207 $212 forward $49 $-1 #
coedge $-1 $209 $84 $81 $140 forward $145 $-1 #
edge $-1 $147 -29.912150212627253 $213 -15.088673027727808 $139 $214 forward 7 unknown #
coedge $-1 $215 $216 $82 $142 forward $134 $-1 #
edge $-1 $217 -52.035541138355377 $146 -31.580776916055733 $141 $218 forward 7 unknown #
edge $-1 $147 -30.569165095584793 $217 3.8207783024179916e-014 $83 $219 forward 7 unknown #
coedge $-1 $84 $209 $215 $220 forward $145 $-1 #
loop $-1 $-1 $209 $133 #
vertex $-1 $142 $221 #
vertex $-1 $85 $222 #
straight-curve $-1 52.412561832804784 -69.392311350096691 21.481282814879989 0 1 0 I I #
coedge $-1 $149 $149 $-1 $223 reversed $88 $-1 #
edge $-1 $224 0 $224 6.2831853071796004 $89 $225 forward 7 unknown #
vertex $-1 $92 $226 #
ellipse-curve $-1 41.824363843590888 -32.795657451460769 11.253900703730167 0 -0.66913061440640931 0.74314481823134659 2 0 0 1 I I #
coedge $-1 $153 $153 $-1 $227 reversed $95 $-1 #
edge $-1 $228 0 $228 6.2831853071796004 $96 $229 forward 7 unknown #
vertex $-1 $99 $230 #
ellipse-curve $-1 48.17728263711922 -32.795657451460769 11.253900703730167 0 -0.66913061440640931 0.74314481823134659 2 0 0 1 I I #
face $-1 $-1 $115 $15 $-1 $231 reversed single #
loop $-1 $-1 $173 $100 #
plane-surface $-1 0 44.154315770681976 0 0 -1 0 0 0 -1 forward_v I I I I #
coedge $-1 $232 $171 $174 $233 forward $101 $-1 #
coedge $-1 $177 $103 $104 $165 reversed $63 $-1 #
coedge $-1 $171 $232 $103 $163 reversed $101 $-1 #
edge $-1 $178 -21.481282814879989 $234 21.481282814879989 $162 $235 forward 7 unknown #
coedge $-1 $105 $104 $232 $236 forward $41 $-1 #
edge $-1 $169 -70.711386455885503 $234 70.711386455885503 $161 $237 forward 7 unknown #
coedge $-1 $174 $173 $105 $167 reversed $158 $-1 #
edge $-1 $238 -70.711386455885503 $168 70.711386455885503 $166 $239 forward 7 unknown #
vertex $-1 $107 $240 #
vertex $-1 $180 $241 #
straight-curve $-1 70.711386455885503 0 -21.481282814879989 0 -1 0 I I #
coedge $-1 $160 $162 $108 $172 reversed $101 $-1 #
edge $-1 $175 -44.154315770681976 $178 44.154315770681976 $171 $242 forward 7 unknown #
coedge $-1 $166 $109 $114 $181 forward $158 $-1 #
coedge $-1 $109 $166 $160 $233 reversed $158 $-1 #
vertex $-1 $110 $243 #
straight-curve $-1 0 44.154315770681976 21.481282814879989 -1 0 0 I I #
coedge $-1 $111 $161 $113 $180 reversed $63 $-1 #
vertex $-1 $172 $244 #
straight-curve $-1 0 -44.154315770681976 21.481282814879989 1 0 0 I I #
edge $-1 $116 -21.481282814879989 $169 21.481282814879989 $113 $245 forward 7 unknown #
edge $-1 $117 -21.481282814879989 $168 21.481282814879989 $114 $246 forward 7 unknown #
point $-1 70.711386455885503 -44.154315770681976 21.481282814879989 #
point $-1 70.711386455885503 44.154315770681976 21.481282814879989 #
face $-1 $-1 $198 $16 $-1 $247 reversed single #
loop $-1 $-1 $194 $119 #
plane-surface $-1 0 0 21.481282814879989 0 0 1 1 0 0 forward_v I I I I #
coedge $-1 $248 $249 $188 $250 forward $120 $-1 #
coedge $-1 $123 $122 $187 $250 reversed $45 $-1 #
edge $-1 $251 -9.4185922558501858 $131 9.4185922558501858 $122 $252 forward 7 unknown #
coedge $-1 $253 $194 $123 $191 forward $185 $-1 #
edge $-1 $192 70.711386455885503 $254 89.548570967585874 $123 $255 forward 7 unknown #
vertex $-1 $191 $256 #
straight-curve $-1 -70.711386455885503 44.154315770681976 0 0 0 -1 I I #
coedge $-1 $190 $257 $125 $195 forward $185 $-1 #
edge $-1 $199 -44.154315770681976 $192 44.154315770681976 $194 $258 forward 7 unknown #
coedge $-1 $259 $126 $257 $260 reversed $198 $-1 #
coedge $-1 $126 $259 $128 $202 reversed $198 $-1 #
loop $-1 $-1 $126 $184 #
vertex $-1 $127 $261 #
straight-curve $-1 -70.711386455885503 -44.154315770681976 0 0 0 1 I I #
coedge $-1 $129 $128 $248 $262 forward $71 $-1 #
edge $-1 $130 -9.4185922558501858 $263 9.4185922558501858 $197 $264 forward 7 unknown #
point $-1 -70.711386455885503 -44.154315770681976 16.865104806130457 #
point $-1 -70.711386455885503 44.154315770681976 16.865104806130457 #
plane-surface $-1 0 0 21.481282814879989 0 0 1 1 0 0 forward_v I I I I #
coedge $-1 $216 $215 $208 $265 forward $134 $-1 #
coedge $-1 $208 $136 $138 $212 reversed $79 $-1 #
coedge $-1 $136 $207 $206 $265 reversed $79 $-1 #
coedge $-1 $144 $139 $136 $210 forward $145 $-1 #
edge $-1 $213 -47.955312217857127 $266 -25.237995579414715 $209 $267 forward 7 unknown #
coedge $-1 $138 $137 $216 $268 reversed $49 $-1 #
edge $-1 $269 -3.8207783024179916e-014 $213 30.569165095584793 $207 $270 forward 7 unknown #
vertex $-1 $140 $271 #
straight-curve $-1 22.50041162017753 -21.43699913223956 21.481282814879989 -1 0 0 I I #
coedge $-1 $206 $141 $144 $220 reversed $134 $-1 #
coedge $-1 $141 $206 $211 $268 forward $134 $-1 #
vertex $-1 $142 $272 #
straight-curve $-1 52.412561832804784 -44.154315770681976 53.062059730935722 0 0 1 I I #
straight-curve $-1 52.412561832804784 -44.154315770681947 1.0265185925803735 0 -0.74314481823134659 -0.66913061440640931 I I #
edge $-1 $266 37.589084647905338 $146 52.412561832804784 $215 $273 forward 7 unknown #
point $-1 52.412561832804784 -44.154315770681976 21.481282814879989 #
point $-1 52.412561832804784 -21.43699913223956 21.481282814879989 #
edge $-1 $274 1 $274 0 $149 $-1 forward 7 unknown #
vertex $-1 $150 $275 #
ellipse-curve $-1 41.824363843590888 -28.426244954030125 6.4011766073123084 0 -0.66913061440640931 0.74314481823134659 2 0 0 1 I I #
point $-1 43.824363843590888 -32.795657451460791 11.25390070373019 #
edge $-1 $276 1 $276 0 $153 $-1 forward 7 unknown #
vertex $-1 $154 $277 #
ellipse-curve $-1 48.17728263711922 -28.426244954030125 6.4011766073123084 0 -0.66913061440640931 0.74314481823134659 2 0 0 1 I I #
point $-1 50.17728263711922 -32.795657451460791 11.25390070373019 #
plane-surface $-1 70.711386455885503 0 0 -1 0 0 0 0 1 forward_v I I I I #
coedge $-1 $162 $160 $164 $236 reversed $101 $-1 #
edge $-1 $175 -21.481282814879989 $238 21.481282814879989 $174 $278 forward 7 unknown #
vertex $-1 $236 $279 #
straight-curve $-1 -70.711386455885503 -44.154315770681976 0 0 0 -1 I I #
edge $-1 $234 -44.154315770681976 $238 44.154315770681976 $232 $280 forward 7 unknown #
straight-curve $-1 0 -44.154315770681976 -21.481282814879989 -1 0 0 I I #
vertex $-1 $167 $281 #
straight-curve $-1 0 44.154315770681976 -21.481282814879989 1 0 0 I I #
point $-1 70.711386455885503 44.154315770681976 -21.481282814879989 #
point $-1 70.711386455885503 -44.154315770681976 -21.481282814879989 #
straight-curve $-1 -70.711386455885503 0 21.481282814879989 0 -1 0 I I #
point $-1 -70.711386455885503 44.154315770681976 21.481282814879989 #
point $-1 -70.711386455885503 -44.154315770681976 21.481282814879989 #
straight-curve $-1 70.711386455885503 -44.154315770681976 0 0 0 -1 I I #
straight-curve $-1 70.711386455885503 44.154315770681976 0 0 0 -1 I I #
plane-surface $-1 0 -44.154315770681976 0 0 1 0 0 0 1 forward_v I I I I #
coedge $-1 $282 $187 $201 $262 reversed $120 $-1 #
coedge $-1 $187 $282 $253 $283 reversed $120 $-1 #
edge $-1 $254 -2.3080890043747679 $251 2.3080890043747679 $188 $284 forward 7 unknown #
vertex $-1 $189 $285 #
straight-curve $-1 -80.129978711735689 44.154315770681976 16.865104806130457 1 0 0 I I #
coedge $-1 $257 $190 $249 $283 forward $185 $-1 #
vertex $-1 $191 $286 #
straight-curve $-1 0 44.154315770681976 21.481282814879989 -1 0 0 I I #
point $-1 -70.711386455885503 44.154315770681976 21.481282814879989 #
coedge $-1 $194 $253 $196 $260 forward $185 $-1 #
straight-curve $-1 -70.711386455885503 0 21.481282814879989 0 1 0 I I #
coedge $-1 $197 $196 $282 $287 forward $198 $-1 #
edge $-1 $288 -89.548570967585874 $199 -70.711386455885503 $196 $289 forward 7 unknown #
point $-1 -70.711386455885503 -44.154315770681976 21.481282814879989 #
edge $-1 $263 -44.154315770681976 $251 44.154315770681976 $248 $290 forward 7 unknown #
vertex $-1 $262 $291 #
straight-curve $-1 -80.129978711735689 -44.154315770681976 16.865104806130457 -1 0 0 I I #
edge $-1 $266 31.580776916055733 $269 52.035541138355377 $206 $292 forward 7 unknown #
vertex $-1 $220 $293 #
straight-curve $-1 37.589084647905338 -69.392311350096691 21.481282814879989 0 -1 0 I I #
edge $-1 $269 15.088673027727808 $217 29.912150212627253 $216 $294 forward 7 unknown #
vertex $-1 $268 $295 #
straight-curve $-1 37.589084647905338 -44.154315770681947 1.0265185925803735 0 0.74314481823134659 0.66913061440640931 I I #
point $-1 37.589084647905338 -21.43699913223956 21.481282814879989 #
point $-1 52.412561832804784 -44.154315770681976 1.0265185925803479 #
straight-curve $-1 0 -44.154315770681976 21.481282814879989 1 0 0 I I #
vertex $-1 $223 $296 #
point $-1 43.824363843590888 -28.426244954030125 6.4011766073123084 #
vertex $-1 $227 $297 #
point $-1 50.17728263711922 -28.426244954030125 6.4011766073123084 #
straight-curve $-1 -70.711386455885503 44.154315770681976 0 0 0 -1 I I #
point $-1 -70.711386455885503 -44.154315770681976 -21.481282814879989 #
straight-curve $-1 -70.711386455885503 0 -21.481282814879989 0 1 0 I I #
point $-1 -70.711386455885503 44.154315770681976 -21.481282814879989 #
coedge $-1 $249 $248 $259 $287 reversed $120 $-1 #
edge $-1 $254 -44.154315770681976 $288 44.154315770681976 $249 $298 forward 7 unknown #
straight-curve $-1 -89.548570967585874 44.154315770681976 19.173193810505225 0 0 -1 I I #
point $-1 -89.548570967585874 44.154315770681976 16.865104806130457 #
point $-1 -89.548570967585874 44.154315770681976 21.481282814879993 #
edge $-1 $288 -2.3080890043747679 $263 2.3080890043747679 $282 $299 forward 7 unknown #
vertex $-1 $283 $300 #
straight-curve $-1 0 -44.154315770681976 21.481282814879989 1 0 0 I I #
straight-curve $-1 -89.548570967585874 0 16.865104806130457 0 1 0 I I #
point $-1 -89.548570967585874 -44.154315770681976 16.865104806130457 #
straight-curve $-1 37.589084647905338 -44.154315770681976 53.062059730935722 0 0 -1 I I #
point $-1 37.589084647905338 -44.154315770681976 21.481282814879989 #
straight-curve $-1 22.50041162017753 -44.154315770681976 1.0265185925803462 1 0 0 I I #
point $-1 37.589084647905338 -44.154315770681976 1.0265185925803479 #
point $-1 41.824363843590888 -27.087983725217306 4.914886970849615 #
point $-1 48.17728263711922 -27.087983725217306 4.914886970849615 #
straight-curve $-1 -89.548570967585874 0 21.481282814879993 0 -1 0 I I #
straight-curve $-1 -89.548570967585874 -44.154315770681976 19.173193810505225 0 0 -1 I I #
point $-1 -89.548570967585874 -44.154315770681976 21.481282814879993 #
End-of-ACIS-data 