500 0 9 0           
7 Unknown 11 ACIS 5.0 NT 24 Thu Mar 25 16:36:05 1999 
-1 9.9999999999999995e-007 1e-010 
body $-1 $9 $-1 $10 #
body $-1 $11 $-1 $12 #
body $-1 $13 $-1 $14 #
body $-1 $15 $-1 $16 #
body $-1 $17 $-1 $18 #
body $-1 $19 $-1 $20 #
body $-1 $21 $-1 $22 #
body $-1 $23 $-1 $24 #
body $-1 $25 $-1 $26 #
lump $-1 $-1 $27 $0 #
transform $-1 1 0 0 0 1 0 0 0 1 40.556657612842187 23.823183916842552 6.1350496794180893 1 rotate no_reflect no_shear #
lump $-1 $-1 $28 $1 #
transform $-1 1 0 0 0 1 0 0 0 1 40.556657612842187 23.823183916842552 6.1350496794180893 1 rotate no_reflect no_shear #
lump $-1 $-1 $29 $2 #
transform $-1 1 0 0 0 1 0 0 0 1 40.556657612842187 23.823183916842552 6.1350496794180893 1 rotate no_reflect no_shear #
lump $-1 $-1 $30 $3 #
transform $-1 1 0 0 0 1 0 0 0 1 40.556657612842187 23.823183916842552 6.1350496794180893 1 rotate no_reflect no_shear #
lump $-1 $-1 $31 $4 #
transform $-1 1 0 0 0 1 0 0 0 1 40.556657612842187 23.823183916842552 6.1350496794180893 1 rotate no_reflect no_shear #
lump $-1 $-1 $32 $5 #
transform $-1 1 0 0 0 1 0 0 0 1 40.556657612842187 23.823183916842552 6.1350496794180893 1 rotate no_reflect no_shear #
lump $-1 $-1 $33 $6 #
transform $-1 1 0 0 0 1 0 0 0 1 40.556657612842187 23.823183916842552 6.1350496794180893 1 rotate no_reflect no_shear #
lump $-1 $-1 $34 $7 #
transform $-1 1 0 0 0 1 0 0 0 1 40.556657612842187 23.823183916842552 6.1350496794180893 1 rotate no_reflect no_shear #
lump $-1 $-1 $35 $8 #
transform $-1 1 0 0 0 1 0 0 0 1 40.556657612842187 23.823183916842552 6.1350496794180893 1 rotate no_reflect no_shear #
shell $-1 $-1 $-1 $36 $-1 $9 #
shell $-1 $-1 $-1 $37 $-1 $11 #
shell $-1 $-1 $-1 $38 $-1 $13 #
shell $-1 $-1 $-1 $39 $-1 $15 #
shell $-1 $-1 $-1 $40 $-1 $17 #
shell $-1 $-1 $-1 $41 $-1 $19 #
shell $-1 $-1 $-1 $42 $-1 $21 #
shell $-1 $-1 $-1 $43 $-1 $23 #
shell $-1 $-1 $-1 $44 $-1 $25 #
face $-1 $45 $46 $27 $-1 $47 forward single #
face $-1 $48 $49 $28 $-1 $50 forward single #
face $-1 $51 $52 $29 $-1 $53 reversed single #
face $-1 $54 $55 $30 $-1 $56 reversed single #
face $-1 $57 $58 $31 $-1 $59 forward single #
face $-1 $60 $61 $32 $-1 $62 forward single #
face $-1 $63 $64 $33 $-1 $65 reversed single #
face $-1 $66 $67 $34 $-1 $68 forward single #
face $-1 $69 $70 $35 $-1 $71 forward single #
face $-1 $72 $73 $27 $-1 $74 reversed single #
loop $-1 $-1 $75 $36 #
plane-surface $-1 0 0 6.1350496794180893 0 0 1 1 0 0 forward_v I I I I #
face $-1 $76 $77 $28 $-1 $78 reversed single #
loop $-1 $-1 $79 $37 #
plane-surface $-1 -40.556657612842187 0 0 1 0 0 0 0 -1 forward_v I I I I #
face $-1 $80 $81 $29 $-1 $82 reversed single #
loop $-1 $-1 $83 $38 #
plane-surface $-1 34.707182541201306 -22.323183916842552 0 1 0 0 0 0 -1 forward_v I I I I #
face $-1 $84 $85 $30 $-1 $86 reversed single #
loop $-1 $-1 $87 $39 #
plane-surface $-1 -0.90911891782583965 26.400281486496908 96.777198267272482 1 0 0 0 -0.52991927123019833 -0.84804809178421925 forward_v I I I I #
face $-1 $88 $89 $31 $-1 $90 forward single #
loop $-1 $91 $92 $40 #
cone-surface $-1 3.6297325790177197 20.519530339139795 3.4976821060412639 0 -0.52991927123019833 -0.84804809178421925 1 0 0 1 I I 0 1 1 forward I I I I #
face $-1 $93 $94 $32 $-1 $95 forward single #
loop $-1 $96 $97 $41 #
cone-surface $-1 10.438009824283057 20.519530339139795 3.4976821060412639 0 -0.52991927123019833 -0.84804809178421925 1 0 0 1 I I 0 1 1 forward I I I I #
face $-1 $98 $99 $33 $-1 $100 reversed single #
loop $-1 $-1 $101 $42 #
plane-surface $-1 14.976861321126609 -66.806692808302557 71.528469748080113 -1 0 0 0 -0.52991927123019833 0.84804809178421925 forward_v I I I I #
face $-1 $102 $103 $34 $-1 $104 forward single #
loop $-1 $105 $106 $43 #
cone-surface $-1 3.6297325790177197 -20.519530339139788 3.4976821060412675 0 0.52991927123019833 -0.84804809178421925 1 0 0 1 I I 0 1 1 forward I I I I #
face $-1 $107 $108 $35 $-1 $109 forward single #
loop $-1 $110 $111 $44 #
cone-surface $-1 10.438009824283057 -20.519530339139788 3.4976821060412675 0 0.52991927123019833 -0.84804809178421925 1 0 0 1 I I 0 1 1 forward I I I I #
face $-1 $112 $113 $27 $-1 $114 reversed single #
loop $-1 $-1 $115 $45 #
plane-surface $-1 0 0 -6.1350496794180893 0 0 1 1 0 0 forward_v I I I I #
coedge $-1 $116 $117 $118 $119 forward $46 $-1 #
face $-1 $120 $121 $28 $-1 $122 forward single #
loop $-1 $-1 $123 $48 #
plane-surface $-1 0 23.823183916842552 0 0 -1 0 0 0 -1 forward_v I I I I #
coedge $-1 $124 $125 $126 $127 forward $49 $-1 #
face $-1 $128 $129 $29 $-1 $130 reversed single #
loop $-1 $-1 $131 $51 #
plane-surface $-1 37.631920077021746 -20.823183916842552 0 0 -1 0 0 0 -1 forward_v I I I I #
coedge $-1 $132 $133 $134 $135 forward $52 $-1 #
face $-1 $136 $137 $30 $-1 $138 reversed single #
loop $-1 $-1 $139 $54 #
plane-surface $-1 7.0338712016503848 -16.583227404963104 27.989206071838993 0 0.52991927123019833 0.84804809178421925 1 0 0 forward_v I I I I #
coedge $-1 $140 $141 $142 $143 reversed $55 $-1 #
face $-1 $-1 $144 $31 $-1 $145 forward single #
loop $-1 $146 $147 $57 #
cone-surface $-1 3.6297325790177197 19.667142568849734 2.1335765501580601 0 -0.52991927123019833 -0.84804809178421925 0.5 0 0 1 I I -0.70710678118654746 0.70710678118654746 0.5 forward I I I I #
loop $-1 $-1 $148 $40 #
coedge $-1 $92 $92 $149 $150 reversed $58 $-1 #
face $-1 $-1 $151 $32 $-1 $152 forward single #
loop $-1 $153 $154 $60 #
cone-surface $-1 10.438009824283057 19.667142568849734 2.1335765501580601 0 -0.52991927123019833 -0.84804809178421925 0.5 0 0 1 I I -0.70710678118654746 0.70710678118654746 0.5 forward I I I I #
loop $-1 $-1 $155 $41 #
coedge $-1 $97 $97 $156 $157 reversed $61 $-1 #
face $-1 $158 $159 $33 $-1 $160 reversed single #
loop $-1 $-1 $161 $63 #
plane-surface $-1 7.0338712016503848 -23.823183916842545 2.7404775526466238 0 -0.52991927123019833 0.84804809178421925 1 0 0 forward_v I I I I #
coedge $-1 $162 $163 $164 $165 reversed $64 $-1 #
face $-1 $-1 $166 $34 $-1 $167 forward single #
loop $-1 $168 $169 $66 #
cone-surface $-1 3.6297325790177197 -19.667142568849727 2.1335765501580637 0 0.52991927123019833 -0.84804809178421925 0.5 0 0 1 I I -0.70710678118654746 0.70710678118654746 0.5 forward I I I I #
loop $-1 $-1 $170 $43 #
coedge $-1 $106 $106 $171 $172 reversed $67 $-1 #
face $-1 $-1 $173 $35 $-1 $174 forward single #
loop $-1 $175 $176 $69 #
cone-surface $-1 10.438009824283057 -19.667142568849727 2.1335765501580637 0 0.52991927123019833 -0.84804809178421925 0.5 0 0 1 I I -0.70710678118654746 0.70710678118654746 0.5 forward I I I I #
loop $-1 $-1 $177 $44 #
coedge $-1 $111 $111 $178 $179 reversed $70 $-1 #
face $-1 $180 $181 $27 $-1 $182 reversed single #
loop $-1 $-1 $183 $72 #
plane-surface $-1 0 -23.823183916842552 0 0 1 0 0 0 1 forward_v I I I I #
coedge $-1 $184 $185 $186 $187 forward $73 $-1 #
coedge $-1 $188 $75 $189 $190 forward $46 $-1 #
coedge $-1 $75 $188 $191 $192 forward $46 $-1 #
coedge $-1 $193 $194 $75 $119 reversed $195 $-1 #
edge $-1 $196 -23.823183916842552 $197 23.823183916842552 $118 $198 forward 7 unknown #
face $-1 $199 $200 $28 $-1 $201 reversed single #
loop $-1 $-1 $126 $76 #
plane-surface $-1 -42.59345778329007 0 -0.980410050617883 0 0 1 1 0 0 forward_v I I I I #
coedge $-1 $202 $203 $125 $204 forward $77 $-1 #
coedge $-1 $205 $79 $206 $207 reversed $49 $-1 #
coedge $-1 $79 $205 $123 $204 reversed $49 $-1 #
coedge $-1 $208 $209 $79 $127 reversed $121 $-1 #
edge $-1 $210 -23.823183916842552 $211 23.823183916842552 $126 $212 forward 7 unknown #
face $-1 $213 $214 $29 $-1 $215 forward single #
loop $-1 $-1 $216 $80 #
plane-surface $-1 40.556657612842187 0 0 -1 0 0 0 0 1 forward_v I I I I #
coedge $-1 $217 $218 $216 $219 reversed $81 $-1 #
coedge $-1 $220 $83 $221 $222 reversed $52 $-1 #
coedge $-1 $83 $220 $223 $224 reversed $52 $-1 #
coedge $-1 $218 $217 $83 $135 reversed $81 $-1 #
edge $-1 $225 -6.1350496794180893 $226 6.1350496794180893 $134 $227 forward 7 unknown #
face $-1 $228 $229 $30 $-1 $230 forward single #
loop $-1 $-1 $231 $84 #
plane-surface $-1 14.976861321126609 26.400281486496908 96.777198267272482 -1 0 0 0 0.52991927123019833 0.84804809178421925 forward_v I I I I #
coedge $-1 $232 $233 $234 $235 reversed $85 $-1 #
coedge $-1 $141 $87 $236 $237 reversed $55 $-1 #
coedge $-1 $87 $140 $232 $238 reversed $55 $-1 #
coedge $-1 $234 $239 $87 $143 forward $229 $-1 #
edge $-1 $240 -10.623043173594098 $241 -5.1905922875384718 $142 $242 forward 7 unknown #
loop $-1 $-1 $149 $88 #
plane-surface $-1 7.0338712016503848 -16.583227404963104 27.989206071838993 0 0.52991927123019833 0.84804809178421925 1 0 0 forward_v I I I I #
loop $-1 $-1 $243 $57 #
coedge $-1 $147 $147 $148 $244 reversed $89 $-1 #
coedge $-1 $148 $148 $147 $244 forward $91 $-1 #
coedge $-1 $149 $149 $92 $150 forward $144 $-1 #
edge $-1 $245 -1.5048616623131562e-015 $245 6.2831853071795987 $149 $246 forward 7 unknown #
loop $-1 $-1 $156 $93 #
plane-surface $-1 7.0338712016503848 -16.583227404963104 27.989206071838993 0 0.52991927123019833 0.84804809178421925 1 0 0 forward_v I I I I #
loop $-1 $-1 $247 $60 #
coedge $-1 $154 $154 $155 $248 reversed $94 $-1 #
coedge $-1 $155 $155 $154 $248 forward $96 $-1 #
coedge $-1 $156 $156 $97 $157 forward $151 $-1 #
edge $-1 $249 -1.5048616623131562e-015 $249 6.2831853071795987 $156 $250 forward 7 unknown #
face $-1 $251 $252 $33 $-1 $253 reversed single #
loop $-1 $-1 $254 $98 #
plane-surface $-1 -0.90911891782583965 -66.806692808302557 71.528469748080113 1 0 0 0 0.52991927123019833 -0.84804809178421925 forward_v I I I I #
coedge $-1 $255 $256 $257 $258 reversed $99 $-1 #
coedge $-1 $163 $101 $259 $260 reversed $64 $-1 #
coedge $-1 $101 $162 $255 $261 reversed $64 $-1 #
coedge $-1 $257 $262 $101 $165 forward $263 $-1 #
edge $-1 $264 9.5801624873087263 $265 15.012613373364353 $164 $266 forward 7 unknown #
loop $-1 $-1 $171 $102 #
plane-surface $-1 7.0338712016503848 -23.823183916842545 2.7404775526466238 0 -0.52991927123019833 0.84804809178421925 1 0 0 forward_v I I I I #
loop $-1 $-1 $267 $66 #
coedge $-1 $169 $169 $170 $268 reversed $103 $-1 #
coedge $-1 $170 $170 $169 $268 forward $105 $-1 #
coedge $-1 $171 $171 $106 $172 forward $166 $-1 #
edge $-1 $269 -3.7778978124636169e-016 $269 6.2831853071796004 $171 $270 forward 7 unknown #
loop $-1 $-1 $178 $107 #
plane-surface $-1 7.0338712016503848 -23.823183916842545 2.7404775526466238 0 -0.52991927123019833 0.84804809178421925 1 0 0 forward_v I I I I #
loop $-1 $-1 $271 $69 #
coedge $-1 $176 $176 $177 $272 reversed $108 $-1 #
coedge $-1 $177 $177 $176 $272 forward $110 $-1 #
coedge $-1 $178 $178 $111 $179 forward $173 $-1 #
edge $-1 $273 -3.7778978124636169e-016 $273 6.2831853071796004 $178 $274 forward 7 unknown #
face $-1 $275 $276 $27 $-1 $277 reversed single #
loop $-1 $-1 $278 $112 #
plane-surface $-1 -40.556657612842187 0 0 1 0 0 0 0 -1 forward_v I I I I #
coedge $-1 $279 $191 $280 $281 forward $113 $-1 #
coedge $-1 $282 $115 $279 $283 forward $73 $-1 #
coedge $-1 $115 $282 $284 $285 forward $73 $-1 #
coedge $-1 $194 $193 $115 $187 reversed $195 $-1 #
edge $-1 $286 -23.823183916842552 $287 23.823183916842552 $186 $288 forward 7 unknown #
coedge $-1 $117 $116 $289 $290 forward $46 $-1 #
coedge $-1 $291 $292 $116 $190 reversed $276 $-1 #
edge $-1 $197 -40.556657612842187 $293 40.556657612842187 $189 $294 forward 7 unknown #
coedge $-1 $183 $295 $117 $192 reversed $113 $-1 #
edge $-1 $296 -40.556657612842187 $196 40.556657612842187 $191 $297 forward 7 unknown #
coedge $-1 $186 $118 $295 $298 forward $195 $-1 #
coedge $-1 $118 $186 $291 $299 reversed $195 $-1 #
loop $-1 $-1 $193 $275 #
vertex $-1 $119 $300 #
vertex $-1 $119 $301 #
straight-curve $-1 40.556657612842187 0 6.1350496794180893 0 1 0 I I #
face $-1 $302 $303 $28 $-1 $304 reversed single #
loop $-1 $-1 $305 $120 #
plane-surface $-1 -42.59345778329007 0 -3.9804100506178832 0 0 1 1 0 0 forward_v I I I I #
coedge $-1 $306 $123 $307 $308 reversed $77 $-1 #
coedge $-1 $123 $306 $208 $309 reversed $77 $-1 #
edge $-1 $210 0.980410050617883 $310 3.9804100506178832 $123 $311 forward 7 unknown #
coedge $-1 $125 $124 $305 $312 forward $49 $-1 #
coedge $-1 $313 $314 $124 $207 forward $315 $-1 #
edge $-1 $316 -3.9804100506178832 $211 -0.980410050617883 $206 $317 forward 7 unknown #
coedge $-1 $318 $126 $203 $309 forward $121 $-1 #
coedge $-1 $126 $318 $313 $319 forward $121 $-1 #
vertex $-1 $204 $320 #
vertex $-1 $319 $321 #
straight-curve $-1 -40.556657612842187 0 -0.980410050617883 0 -1 0 I I #
face $-1 $322 $323 $29 $-1 $324 reversed single #
loop $-1 $-1 $325 $128 #
plane-surface $-1 0 0 6.1350496794180893 0 0 1 1 0 0 forward_v I I I I #
coedge $-1 $326 $327 $131 $219 forward $129 $-1 #
coedge $-1 $134 $131 $328 $329 reversed $81 $-1 #
coedge $-1 $131 $134 $325 $330 reversed $81 $-1 #
edge $-1 $331 -6.1350496794180893 $332 6.1350496794180893 $216 $333 forward 7 unknown #
coedge $-1 $133 $132 $334 $335 reversed $52 $-1 #
coedge $-1 $328 $336 $132 $222 forward $323 $-1 #
edge $-1 $337 -12.661591958421276 $226 -9.6615919584212762 $221 $338 forward 7 unknown #
coedge $-1 $339 $325 $133 $224 forward $214 $-1 #
edge $-1 $225 9.6615919584212762 $340 12.661591958421276 $223 $341 forward 7 unknown #
vertex $-1 $224 $342 #
vertex $-1 $222 $343 #
straight-curve $-1 34.707182541201306 -20.823183916842552 0 0 0 -1 I I #
face $-1 $-1 $344 $30 $-1 $345 reversed single #
loop $-1 $-1 $142 $136 #
plane-surface $-1 0 0 6.1350496794180893 0 0 1 1 0 0 forward_v I I I I #
coedge $-1 $346 $347 $348 $349 reversed $137 $-1 #
coedge $-1 $350 $139 $141 $238 forward $85 $-1 #
coedge $-1 $139 $350 $346 $351 forward $85 $-1 #
coedge $-1 $348 $142 $139 $235 forward $229 $-1 #
edge $-1 $241 -4.4260545186510321 $352 11.459925720301417 $234 $353 forward 7 unknown #
coedge $-1 $354 $355 $140 $237 forward $344 $-1 #
edge $-1 $356 -45.648121580989624 $240 -42.253549454218152 $236 $357 forward 7 unknown #
edge $-1 $241 41.240539038497062 $356 47.646367833685105 $141 $358 forward 7 unknown #
coedge $-1 $142 $348 $354 $359 forward $229 $-1 #
vertex $-1 $237 $360 #
vertex $-1 $143 $361 #
straight-curve $-1 -0.90911891782583965 13.200140743248454 6.1350496794180884 0 -1 0 I I #
coedge $-1 $243 $243 $-1 $362 reversed $146 $-1 #
edge $-1 $363 0 $363 6.2831853071796004 $147 $364 forward 7 unknown #
vertex $-1 $150 $365 #
ellipse-curve $-1 3.6297325790177197 21.10695847381475 4.4377636160323437 0 0.52991927123019833 0.84804809178421925 1 0 0 1 I I #
coedge $-1 $247 $247 $-1 $366 reversed $153 $-1 #
edge $-1 $367 0 $367 6.2831853071796004 $154 $368 forward 7 unknown #
vertex $-1 $157 $369 #
ellipse-curve $-1 10.438009824283057 21.10695847381475 4.4377636160323437 0 0.52991927123019833 0.84804809178421925 1 0 0 1 I I #
face $-1 $-1 $263 $33 $-1 $370 forward single #
loop $-1 $-1 $371 $158 #
plane-surface $-1 0 -23.823183916842552 0 0 1 0 0 0 1 forward_v I I I I #
coedge $-1 $372 $373 $374 $375 reversed $159 $-1 #
coedge $-1 $376 $161 $163 $261 forward $99 $-1 #
coedge $-1 $161 $376 $372 $377 forward $99 $-1 #
coedge $-1 $374 $164 $161 $258 forward $263 $-1 #
edge $-1 $265 -11.459925720301417 $378 4.4260545186510321 $257 $379 forward 7 unknown #
coedge $-1 $380 $381 $162 $260 forward $252 $-1 #
edge $-1 $382 -33.02375732139344 $264 -29.629185194621968 $259 $383 forward 7 unknown #
edge $-1 $265 -6.4058287951880377 $382 8.3790584163743152e-015 $163 $384 forward 7 unknown #
coedge $-1 $164 $374 $380 $385 forward $263 $-1 #
loop $-1 $-1 $374 $251 #
vertex $-1 $260 $386 #
vertex $-1 $165 $387 #
straight-curve $-1 14.976861321126609 -33.403346404151279 6.1350496794180884 0 1 0 I I #
coedge $-1 $267 $267 $-1 $388 reversed $168 $-1 #
edge $-1 $389 0 $389 6.2831853071796004 $169 $390 forward 7 unknown #
vertex $-1 $172 $391 #
ellipse-curve $-1 3.6297325790177197 -21.106958473814743 4.4377636160323508 0 -0.52991927123019833 0.84804809178421925 1 0 0 1 I I #
coedge $-1 $271 $271 $-1 $392 reversed $175 $-1 #
edge $-1 $393 0 $393 6.2831853071796004 $176 $394 forward 7 unknown #
vertex $-1 $179 $395 #
ellipse-curve $-1 10.438009824283057 -21.106958473814743 4.4377636160323508 0 -0.52991927123019833 0.84804809178421925 1 0 0 1 I I #
face $-1 $-1 $195 $27 $-1 $396 reversed single #
loop $-1 $-1 $291 $180 #
plane-surface $-1 0 23.823183916842552 0 0 -1 0 0 0 -1 forward_v I I I I #
coedge $-1 $397 $289 $292 $398 forward $181 $-1 #
coedge $-1 $295 $183 $184 $283 reversed $113 $-1 #
coedge $-1 $289 $397 $183 $281 reversed $181 $-1 #
edge $-1 $296 -6.1350496794180893 $399 6.1350496794180893 $280 $400 forward 7 unknown #
coedge $-1 $185 $184 $397 $401 forward $73 $-1 #
edge $-1 $287 -40.556657612842187 $399 40.556657612842187 $279 $402 forward 7 unknown #
coedge $-1 $292 $291 $185 $285 reversed $276 $-1 #
edge $-1 $403 -40.556657612842187 $286 40.556657612842187 $284 $404 forward 7 unknown #
vertex $-1 $187 $405 #
vertex $-1 $298 $406 #
straight-curve $-1 40.556657612842187 0 -6.1350496794180893 0 -1 0 I I #
coedge $-1 $278 $280 $188 $290 reversed $181 $-1 #
edge $-1 $293 -23.823183916842552 $296 23.823183916842552 $289 $407 forward 7 unknown #
coedge $-1 $284 $189 $194 $299 forward $276 $-1 #
coedge $-1 $189 $284 $278 $398 reversed $276 $-1 #
vertex $-1 $190 $408 #
straight-curve $-1 0 23.823183916842552 6.1350496794180893 -1 0 0 I I #
coedge $-1 $191 $279 $193 $298 reversed $113 $-1 #
vertex $-1 $290 $409 #
straight-curve $-1 0 -23.823183916842552 6.1350496794180893 1 0 0 I I #
edge $-1 $196 -6.1350496794180893 $287 6.1350496794180893 $193 $410 forward 7 unknown #
edge $-1 $197 -6.1350496794180893 $286 6.1350496794180893 $194 $411 forward 7 unknown #
point $-1 40.556657612842187 -23.823183916842552 6.1350496794180893 #
point $-1 40.556657612842187 23.823183916842552 6.1350496794180893 #
face $-1 $-1 $315 $28 $-1 $412 reversed single #
loop $-1 $-1 $413 $199 #
plane-surface $-1 -44.630257953737953 0 -2.4804100506178832 1 0 0 0 0 -1 forward_v I I I I #
coedge $-1 $414 $307 $205 $312 reversed $200 $-1 #
coedge $-1 $203 $202 $413 $415 reversed $77 $-1 #
coedge $-1 $305 $416 $202 $308 forward $200 $-1 #
edge $-1 $417 -2.0368001704478829 $310 2.0368001704478829 $202 $418 forward 7 unknown #
edge $-1 $210 -2.0368001704478829 $419 2.0368001704478829 $203 $420 forward 7 unknown #
vertex $-1 $204 $421 #
straight-curve $-1 -40.556657612842187 23.823183916842552 0 0 0 -1 I I #
edge $-1 $316 -23.823183916842552 $310 23.823183916842552 $305 $422 forward 7 unknown #
coedge $-1 $423 $206 $209 $319 reversed $315 $-1 #
coedge $-1 $206 $423 $414 $424 reversed $315 $-1 #
loop $-1 $-1 $206 $302 #
vertex $-1 $207 $425 #
straight-curve $-1 -40.556657612842187 -23.823183916842552 0 0 0 1 I I #
coedge $-1 $209 $208 $426 $427 forward $121 $-1 #
edge $-1 $428 -2.0368001704478829 $211 2.0368001704478829 $313 $429 forward 7 unknown #
point $-1 -40.556657612842187 23.823183916842552 -0.980410050617883 #
point $-1 -40.556657612842187 -23.823183916842552 -0.980410050617883 #
face $-1 $-1 $430 $29 $-1 $431 reversed single #
loop $-1 $-1 $328 $213 #
plane-surface $-1 0 0 -6.1350496794180893 0 0 1 1 0 0 forward_v I I I I #
coedge $-1 $223 $432 $218 $330 forward $214 $-1 #
coedge $-1 $433 $216 $432 $434 reversed $129 $-1 #
coedge $-1 $216 $433 $435 $436 reversed $129 $-1 #
coedge $-1 $435 $221 $217 $329 forward $323 $-1 #
edge $-1 $226 15.891222502690432 $331 21.740697574331314 $328 $437 forward 7 unknown #
edge $-1 $332 -21.740697574331314 $225 -15.891222502690432 $325 $438 forward 7 unknown #
vertex $-1 $436 $439 #
vertex $-1 $219 $440 #
straight-curve $-1 40.556657612842187 -20.823183916842552 0 0 0 1 I I #
coedge $-1 $441 $442 $220 $335 forward $430 $-1 #
edge $-1 $340 -6.1350496794180893 $337 6.1350496794180893 $334 $443 forward 7 unknown #
coedge $-1 $221 $435 $441 $444 forward $323 $-1 #
vertex $-1 $335 $445 #
straight-curve $-1 34.707182541201306 -11.161591958421276 -6.1350496794180893 0 1 0 I I #
coedge $-1 $432 $223 $442 $446 forward $214 $-1 #
vertex $-1 $446 $447 #
straight-curve $-1 34.707182541201306 -11.161591958421276 6.1350496794180893 0 -1 0 I I #
point $-1 34.707182541201306 -20.823183916842552 6.1350496794180893 #
point $-1 34.707182541201306 -20.823183916842552 -6.1350496794180893 #
loop $-1 $-1 $236 $228 #
plane-surface $-1 0 23.823183916842552 0 0 -1 0 0 0 -1 forward_v I I I I #
coedge $-1 $347 $231 $233 $351 reversed $137 $-1 #
coedge $-1 $231 $346 $448 $449 reversed $137 $-1 #
coedge $-1 $239 $234 $231 $349 forward $229 $-1 #
edge $-1 $352 5.1905922875384718 $450 10.623043173594098 $348 $451 forward 7 unknown #
coedge $-1 $233 $232 $355 $452 reversed $85 $-1 #
edge $-1 $453 -47.646367833685105 $352 -41.240539038497062 $346 $454 forward 7 unknown #
vertex $-1 $235 $455 #
straight-curve $-1 3.5169356008251924 18.390733030786929 6.1350496794180867 1 0 0 I I #
coedge $-1 $448 $236 $239 $359 reversed $344 $-1 #
coedge $-1 $236 $448 $350 $452 forward $344 $-1 #
vertex $-1 $237 $456 #
straight-curve $-1 -0.90911891782583965 23.823183916842552 48.388599133636241 0 0 1 I I #
straight-curve $-1 -0.90911891782583965 -16.583227404963104 27.989206071838993 0 0.84804809178421925 -0.52991927123019833 I I #
edge $-1 $450 -14.976861321126609 $240 0.90911891782583965 $354 $457 forward 7 unknown #
point $-1 -0.90911891782583965 23.823183916842552 6.1350496794180893 #
point $-1 -0.90911891782583965 18.390733030786926 6.1350496794180884 #
edge $-1 $458 1 $458 0 $243 $-1 forward 7 unknown #
vertex $-1 $244 $459 #
ellipse-curve $-1 3.6297325790177197 19.932102204464833 2.55760059605017 0 0.52991927123019833 0.84804809178421925 1 0 0 1 I I #
point $-1 4.6297325790177197 21.106958473814757 4.4377636160323579 #
edge $-1 $460 1 $460 0 $247 $-1 forward 7 unknown #
vertex $-1 $248 $461 #
ellipse-curve $-1 10.438009824283057 19.932102204464833 2.55760059605017 0 0.52991927123019833 0.84804809178421925 1 0 0 1 I I #
point $-1 11.438009824283057 21.106958473814757 4.4377636160323579 #
plane-surface $-1 0 0 6.1350496794180893 0 0 1 1 0 0 forward_v I I I I #
coedge $-1 $381 $380 $373 $462 forward $252 $-1 #
coedge $-1 $373 $254 $256 $377 reversed $159 $-1 #
coedge $-1 $254 $372 $371 $462 reversed $159 $-1 #
coedge $-1 $262 $257 $254 $375 forward $263 $-1 #
edge $-1 $378 -15.012613373364353 $463 -9.5801624873087263 $374 $464 forward 7 unknown #
coedge $-1 $256 $255 $381 $465 reversed $99 $-1 #
edge $-1 $466 -8.3790584163743152e-015 $378 6.4058287951880377 $372 $467 forward 7 unknown #
vertex $-1 $258 $468 #
straight-curve $-1 3.5169356008251924 -18.390733030786922 6.1350496794180884 -1 0 0 I I #
coedge $-1 $371 $259 $262 $385 reversed $252 $-1 #
coedge $-1 $259 $371 $376 $465 forward $252 $-1 #
vertex $-1 $260 $469 #
straight-curve $-1 14.976861321126609 -23.823183916842552 35.764234874040056 0 0 1 I I #
straight-curve $-1 14.976861321126609 -23.823183916842545 2.7404775526466238 0 -0.84804809178421925 -0.52991927123019833 I I #
edge $-1 $463 -0.90911891782583965 $264 14.976861321126609 $380 $470 forward 7 unknown #
point $-1 14.976861321126609 -23.823183916842552 6.1350496794180893 #
point $-1 14.976861321126609 -18.390733030786926 6.1350496794180893 #
edge $-1 $471 1 $471 0 $267 $-1 forward 7 unknown #
vertex $-1 $268 $472 #
ellipse-curve $-1 3.6297325790177197 -19.932102204464826 2.5576005960501735 0 -0.52991927123019833 0.84804809178421925 1 0 0 1 I I #
point $-1 4.6297325790177197 -21.10695847381475 4.4377636160323615 #
edge $-1 $473 1 $473 0 $271 $-1 forward 7 unknown #
vertex $-1 $272 $474 #
ellipse-curve $-1 10.438009824283057 -19.932102204464826 2.5576005960501735 0 -0.52991927123019833 0.84804809178421925 1 0 0 1 I I #
point $-1 11.438009824283057 -21.10695847381475 4.4377636160323615 #
plane-surface $-1 40.556657612842187 0 0 -1 0 0 0 0 1 forward_v I I I I #
coedge $-1 $280 $278 $282 $401 reversed $181 $-1 #
edge $-1 $293 -6.1350496794180893 $403 6.1350496794180893 $292 $475 forward 7 unknown #
vertex $-1 $401 $476 #
straight-curve $-1 -40.556657612842187 -23.823183916842552 0 0 0 -1 I I #
edge $-1 $399 -23.823183916842552 $403 23.823183916842552 $397 $477 forward 7 unknown #
straight-curve $-1 0 -23.823183916842552 -6.1350496794180893 -1 0 0 I I #
vertex $-1 $285 $478 #
straight-curve $-1 0 23.823183916842552 -6.1350496794180893 1 0 0 I I #
point $-1 40.556657612842187 23.823183916842552 -6.1350496794180893 #
point $-1 40.556657612842187 -23.823183916842552 -6.1350496794180893 #
straight-curve $-1 -40.556657612842187 0 6.1350496794180893 0 -1 0 I I #
point $-1 -40.556657612842187 23.823183916842552 6.1350496794180893 #
point $-1 -40.556657612842187 -23.823183916842552 6.1350496794180893 #
straight-curve $-1 40.556657612842187 -23.823183916842552 0 0 0 -1 I I #
straight-curve $-1 40.556657612842187 23.823183916842552 0 0 0 -1 I I #
plane-surface $-1 0 -23.823183916842552 0 0 1 0 0 0 1 forward_v I I I I #
coedge $-1 $479 $426 $306 $415 forward $303 $-1 #
coedge $-1 $416 $305 $314 $424 forward $200 $-1 #
edge $-1 $419 -1.5000000000000002 $417 1.5 $306 $480 forward 7 unknown #
coedge $-1 $307 $414 $479 $481 forward $200 $-1 #
vertex $-1 $308 $482 #
straight-curve $-1 -42.59345778329007 23.823183916842552 -3.9804100506178832 1 0 0 I I #
vertex $-1 $309 $483 #
straight-curve $-1 -42.59345778329007 23.823183916842552 -0.980410050617883 -1 0 0 I I #
point $-1 -40.556657612842187 23.823183916842552 -3.9804100506178832 #
straight-curve $-1 -40.556657612842187 0 -3.9804100506178832 0 1 0 I I #
coedge $-1 $314 $313 $484 $485 forward $315 $-1 #
edge $-1 $316 -2.0368001704478829 $486 2.0368001704478829 $314 $487 forward 7 unknown #
point $-1 -40.556657612842187 -23.823183916842552 -3.9804100506178832 #
coedge $-1 $413 $484 $318 $427 reversed $303 $-1 #
edge $-1 $419 -23.823183916842552 $428 23.823183916842552 $426 $488 forward 7 unknown #
vertex $-1 $427 $489 #
straight-curve $-1 -42.59345778329007 -23.823183916842552 -0.980410050617883 1 0 0 I I #
loop $-1 $-1 $334 $322 #
plane-surface $-1 0 -23.823183916842552 0 0 1 0 0 0 1 forward_v I I I I #
coedge $-1 $325 $339 $326 $434 forward $214 $-1 #
coedge $-1 $327 $326 $490 $491 forward $129 $-1 #
edge $-1 $492 -23.823183916842552 $332 -20.823183916842552 $326 $493 forward 7 unknown #
coedge $-1 $336 $328 $327 $436 forward $323 $-1 #
edge $-1 $331 20.823183916842552 $494 23.823183916842552 $327 $495 forward 7 unknown #
straight-curve $-1 18.815960038510873 -20.823183916842552 -6.1350496794180893 1 0 0 I I #
straight-curve $-1 18.815960038510873 -20.823183916842552 6.1350496794180893 -1 0 0 I I #
point $-1 40.556657612842187 -20.823183916842552 -6.1350496794180893 #
point $-1 40.556657612842187 -20.823183916842552 6.1350496794180893 #
coedge $-1 $490 $334 $336 $444 reversed $430 $-1 #
coedge $-1 $334 $490 $339 $446 reversed $430 $-1 #
straight-curve $-1 34.707182541201306 -23.823183916842552 0 0 0 -1 I I #
edge $-1 $494 -40.556657612842187 $337 -34.707182541201306 $441 $496 forward 7 unknown #
point $-1 34.707182541201306 -23.823183916842552 -6.1350496794180893 #
edge $-1 $340 34.707182541201306 $492 40.556657612842187 $442 $497 forward 7 unknown #
point $-1 34.707182541201306 -23.823183916842552 6.1350496794180893 #
coedge $-1 $355 $354 $347 $449 forward $344 $-1 #
edge $-1 $450 42.253549454218152 $453 45.648121580989624 $448 $498 forward 7 unknown #
vertex $-1 $359 $499 #
straight-curve $-1 14.976861321126609 13.200140743248454 6.1350496794180884 0 1 0 I I #
edge $-1 $453 -11.459925720301417 $356 4.4260545186510321 $355 $500 forward 7 unknown #
vertex $-1 $452 $501 #
straight-curve $-1 14.976861321126609 -16.583227404963104 27.989206071838993 0 -0.84804809178421925 0.52991927123019833 I I #
point $-1 14.976861321126609 18.390733030786926 6.1350496794180884 #
point $-1 -0.90911891782583965 23.823183916842552 2.7404775526466203 #
straight-curve $-1 0 23.823183916842552 6.1350496794180893 -1 0 0 I I #
vertex $-1 $362 $502 #
point $-1 4.6297325790177197 19.932102204464833 2.55760059605017 #
vertex $-1 $366 $503 #
point $-1 11.438009824283057 19.932102204464833 2.55760059605017 #
edge $-1 $463 29.629185194621968 $466 33.02375732139344 $371 $504 forward 7 unknown #
vertex $-1 $385 $505 #
straight-curve $-1 -0.90911891782583965 -33.403346404151279 6.1350496794180884 0 -1 0 I I #
edge $-1 $466 -4.4260545186510321 $382 11.459925720301417 $381 $506 forward 7 unknown #
vertex $-1 $465 $507 #
straight-curve $-1 -0.90911891782583965 -23.823183916842545 2.7404775526466238 0 0.84804809178421925 0.52991927123019833 I I #
point $-1 -0.90911891782583965 -18.390733030786926 6.1350496794180893 #
point $-1 14.976861321126609 -23.823183916842552 2.7404775526466194 #
straight-curve $-1 0 -23.823183916842552 6.1350496794180893 1 0 0 I I #
vertex $-1 $388 $508 #
point $-1 4.6297325790177197 -19.932102204464826 2.5576005960501735 #
vertex $-1 $392 $509 #
point $-1 11.438009824283057 -19.932102204464826 2.5576005960501735 #
straight-curve $-1 -40.556657612842187 23.823183916842552 0 0 0 -1 I I #
point $-1 -40.556657612842187 -23.823183916842552 -6.1350496794180893 #
straight-curve $-1 -40.556657612842187 0 -6.1350496794180893 0 1 0 I I #
point $-1 -40.556657612842187 23.823183916842552 -6.1350496794180893 #
coedge $-1 $484 $413 $416 $481 reversed $303 $-1 #
straight-curve $-1 -44.630257953737953 23.823183916842552 -2.4804100506178832 0 0 -1 I I #
edge $-1 $486 -23.823183916842552 $417 23.823183916842552 $479 $510 forward 7 unknown #
point $-1 -44.630257953737953 23.823183916842552 -3.9804100506178832 #
point $-1 -44.630257953737953 23.823183916842552 -0.980410050617883 #
coedge $-1 $426 $479 $423 $485 reversed $303 $-1 #
edge $-1 $428 -1.5000000000000002 $486 1.5 $484 $511 forward 7 unknown #
vertex $-1 $481 $512 #
straight-curve $-1 -42.59345778329007 -23.823183916842552 -3.9804100506178832 -1 0 0 I I #
straight-curve $-1 -44.630257953737953 0 -0.980410050617883 0 -1 0 I I #
point $-1 -44.630257953737953 -23.823183916842552 -0.980410050617883 #
coedge $-1 $442 $441 $433 $491 reversed $430 $-1 #
edge $-1 $492 -6.1350496794180893 $494 6.1350496794180893 $433 $513 forward 7 unknown #
vertex $-1 $434 $514 #
straight-curve $-1 40.556657612842187 0 6.1350496794180893 0 1 0 I I #
vertex $-1 $491 $515 #
straight-curve $-1 40.556657612842187 0 -6.1350496794180893 0 -1 0 I I #
straight-curve $-1 0 -23.823183916842552 -6.1350496794180893 -1 0 0 I I #
straight-curve $-1 0 -23.823183916842552 6.1350496794180893 1 0 0 I I #
straight-curve $-1 14.976861321126609 23.823183916842552 48.388599133636241 0 0 -1 I I #
point $-1 14.976861321126609 23.823183916842552 6.1350496794180893 #
straight-curve $-1 3.5169356008251924 23.823183916842552 2.7404775526466185 -1 0 0 I I #
point $-1 14.976861321126609 23.823183916842552 2.7404775526466203 #
point $-1 3.6297325790177197 19.402182933234634 1.7095525042659505 #
point $-1 10.438009824283057 19.402182933234634 1.7095525042659505 #
straight-curve $-1 -0.90911891782583965 -23.823183916842552 35.764234874040056 0 0 -1 I I #
point $-1 -0.90911891782583965 -23.823183916842552 6.1350496794180893 #
straight-curve $-1 3.5169356008251924 -23.823183916842552 2.7404775526466207 1 0 0 I I #
point $-1 -0.90911891782583965 -23.823183916842552 2.7404775526466194 #
point $-1 3.6297325790177197 -19.402182933234627 1.7095525042659541 #
point $-1 10.438009824283057 -19.402182933234627 1.7095525042659541 #
straight-curve $-1 -44.630257953737953 0 -3.9804100506178832 0 1 0 I I #
straight-curve $-1 -44.630257953737953 -23.823183916842552 -2.4804100506178832 0 0 -1 I I #
point $-1 -44.630257953737953 -23.823183916842552 -3.9804100506178832 #
straight-curve $-1 40.556657612842187 -23.823183916842552 0 0 0 -1 I I #
point $-1 40.556657612842187 -23.823183916842552 6.1350496794180893 #
point $-1 40.556657612842187 -23.823183916842552 -6.1350496794180893 #
End-of-ACIS-data 