500 0 7 0           
7 Unknown 11 ACIS 5.0 NT 24 Thu Mar 25 16:24:03 1999 
-1 9.9999999999999995e-007 1e-010 
body $-1 $7 $-1 $8 #
body $-1 $9 $-1 $10 #
body $-1 $11 $-1 $12 #
body $-1 $13 $-1 $14 #
body $-1 $15 $-1 $16 #
body $-1 $17 $-1 $18 #
body $-1 $19 $-1 $20 #
lump $-1 $-1 $21 $0 #
transform $-1 1 0 0 0 1 0 0 0 1 44.01501510666219 29.763563866874218 8.3065840281316987 1 rotate no_reflect no_shear #
lump $-1 $-1 $22 $1 #
transform $-1 1 0 0 0 1 0 0 0 1 44.01501510666219 29.763563866874218 8.3065840281316987 1 rotate no_reflect no_shear #
lump $-1 $-1 $23 $2 #
transform $-1 1 0 0 0 1 0 0 0 1 44.01501510666219 29.763563866874218 8.3065840281316987 1 rotate no_reflect no_shear #
lump $-1 $-1 $24 $3 #
transform $-1 1 0 0 0 1 0 0 0 1 44.01501510666219 29.763563866874218 8.3065840281316987 1 rotate no_reflect no_shear #
lump $-1 $-1 $25 $4 #
transform $-1 1 0 0 0 1 0 0 0 1 44.01501510666219 29.763563866874218 8.3065840281316987 1 rotate no_reflect no_shear #
lump $-1 $-1 $26 $5 #
transform $-1 1 0 0 0 1 0 0 0 1 44.01501510666219 29.763563866874218 8.3065840281316987 1 rotate no_reflect no_shear #
lump $-1 $-1 $27 $6 #
transform $-1 1 0 0 0 1 0 0 0 1 44.01501510666219 29.763563866874218 8.3065840281316987 1 rotate no_reflect no_shear #
shell $-1 $-1 $-1 $28 $-1 $7 #
shell $-1 $-1 $-1 $29 $-1 $9 #
shell $-1 $-1 $-1 $30 $-1 $11 #
shell $-1 $-1 $-1 $31 $-1 $13 #
shell $-1 $-1 $-1 $32 $-1 $15 #
shell $-1 $-1 $-1 $33 $-1 $17 #
shell $-1 $-1 $-1 $34 $-1 $19 #
face $-1 $35 $36 $21 $-1 $37 forward single #
face $-1 $38 $39 $22 $-1 $40 forward single #
face $-1 $41 $42 $23 $-1 $43 reversed single #
face $-1 $44 $45 $24 $-1 $46 forward single #
face $-1 $47 $48 $25 $-1 $49 forward single #
face $-1 $50 $51 $26 $-1 $52 reversed single #
face $-1 $53 $54 $27 $-1 $55 forward single #
face $-1 $56 $57 $21 $-1 $58 reversed single #
loop $-1 $-1 $59 $28 #
plane-surface $-1 0 0 8.3065840281316987 0 0 1 1 0 0 forward_v I I I I #
face $-1 $60 $61 $22 $-1 $62 reversed single #
loop $-1 $-1 $63 $29 #
plane-surface $-1 -44.01501510666219 0 0 1 0 0 0 0 -1 forward_v I I I I #
face $-1 $64 $65 $23 $-1 $66 reversed single #
loop $-1 $-1 $67 $30 #
plane-surface $-1 -1.5256704345724863 -103.59176000675662 50.72071997978145 -1 0 0 0 -0.83867057594974714 0.54463902268945019 forward_v I I I I #
face $-1 $68 $69 $24 $-1 $70 forward single #
loop $-1 $71 $72 $31 #
cone-surface $-1 -10.568918421217496 -25.769394550336482 4.113693045851452 0 0.83867057594974714 -0.54463902268945019 1.5 0 0 1 I I 0 1 1.5 forward I I I I #
face $-1 $73 $74 $25 $-1 $75 forward single #
loop $-1 $76 $77 $32 #
cone-surface $-1 -5.1429696292304925 -25.769394550336482 4.113693045851452 0 0.83867057594974714 -0.54463902268945019 1.5 0 0 1 I I 0 1 1.5 forward I I I I #
face $-1 $78 $79 $26 $-1 $80 reversed single #
loop $-1 $-1 $81 $33 #
plane-surface $-1 -35.645516315991912 44.429875550200094 105.35882826049281 1 0 0 0 -0.66913061440640931 -0.74314481823134659 forward_v I I I I #
face $-1 $82 $83 $27 $-1 $84 forward single #
loop $-1 $85 $86 $34 #
cone-surface $-1 -26.14311645805078 23.816361151311593 2.6585274053216073 0 -0.66913061440640931 -0.74314481823134659 2.5 0 0 1 I I 0 1 2.5 forward I I I I #
face $-1 $87 $88 $21 $-1 $89 reversed single #
loop $-1 $-1 $90 $35 #
plane-surface $-1 0 0 -8.3065840281316987 0 0 1 1 0 0 forward_v I I I I #
coedge $-1 $91 $92 $93 $94 forward $36 $-1 #
face $-1 $95 $96 $22 $-1 $97 reversed single #
loop $-1 $-1 $98 $38 #
plane-surface $-1 0 0 -8.3065840281316987 0 0 1 1 0 0 forward_v I I I I #
coedge $-1 $99 $100 $101 $102 forward $39 $-1 #
face $-1 $103 $104 $23 $-1 $105 reversed single #
loop $-1 $-1 $106 $41 #
plane-surface $-1 -7.8559440252239909 -29.763563866874222 2.7761303570736899 0 -0.83867057594974714 0.54463902268945019 1 0 0 forward_v I I I I #
coedge $-1 $107 $108 $109 $110 reversed $42 $-1 #
face $-1 $-1 $111 $24 $-1 $112 forward single #
loop $-1 $113 $114 $44 #
cone-surface $-1 -10.568918421217496 -22.941981547964318 2.2775496320831223 0 0.83867057594974714 -0.54463902268945019 0.75 0 0 1 I I -0.70710678118654757 0.70710678118654757 0.75 forward I I I I #
loop $-1 $-1 $115 $31 #
coedge $-1 $72 $72 $116 $117 reversed $45 $-1 #
face $-1 $-1 $118 $25 $-1 $119 forward single #
loop $-1 $120 $121 $47 #
cone-surface $-1 -5.1429696292304925 -22.941981547964318 2.2775496320831223 0 0.83867057594974714 -0.54463902268945019 0.75 0 0 1 I I -0.70710678118654757 0.70710678118654757 0.75 forward I I I I #
loop $-1 $-1 $122 $32 #
coedge $-1 $77 $77 $123 $124 reversed $48 $-1 #
face $-1 $125 $126 $26 $-1 $127 reversed single #
loop $-1 $-1 $128 $50 #
plane-surface $-1 -26.14311645805078 -14.473712652656424 39.939767458711913 0 0.66913061440640931 0.74314481823134659 1 0 0 forward_v I I I I #
coedge $-1 $129 $130 $131 $132 reversed $51 $-1 #
face $-1 $-1 $133 $27 $-1 $134 forward single #
loop $-1 $135 $136 $53 #
cone-surface $-1 -26.14311645805078 21.58527910910534 0.18065982159817295 0 -0.66913061440640931 -0.74314481823134659 1.25 0 0 1 I I -0.70710678118654746 0.70710678118654746 1.25 forward I I I I #
loop $-1 $-1 $137 $34 #
coedge $-1 $86 $86 $138 $139 reversed $54 $-1 #
face $-1 $140 $141 $21 $-1 $142 reversed single #
loop $-1 $-1 $143 $56 #
plane-surface $-1 0 -29.763563866874218 0 0 1 0 0 0 1 forward_v I I I I #
coedge $-1 $144 $145 $146 $147 forward $57 $-1 #
coedge $-1 $148 $59 $149 $150 forward $36 $-1 #
coedge $-1 $59 $148 $151 $152 forward $36 $-1 #
coedge $-1 $153 $154 $59 $94 reversed $155 $-1 #
edge $-1 $156 -29.763563866874218 $157 29.763563866874218 $93 $158 forward 7 unknown #
face $-1 $159 $160 $22 $-1 $161 reversed single #
loop $-1 $-1 $162 $60 #
plane-surface $-1 -48.199764501997329 -17.772747318290737 0 0 1 0 0 0 1 forward_v I I I I #
coedge $-1 $163 $164 $100 $165 forward $61 $-1 #
coedge $-1 $166 $63 $167 $168 reversed $39 $-1 #
coedge $-1 $63 $166 $98 $165 reversed $39 $-1 #
coedge $-1 $169 $170 $63 $102 reversed $171 $-1 #
edge $-1 $172 -8.3065840281316987 $173 8.3065840281316987 $101 $174 forward 7 unknown #
face $-1 $175 $176 $23 $-1 $177 forward single #
loop $-1 $-1 $178 $64 #
plane-surface $-1 -14.186217615875496 -103.59176000675662 50.72071997978145 1 0 0 0 0.83867057594974714 -0.54463902268945019 forward_v I I I I #
coedge $-1 $179 $180 $181 $182 reversed $65 $-1 #
coedge $-1 $108 $67 $183 $184 reversed $42 $-1 #
coedge $-1 $67 $107 $179 $185 reversed $42 $-1 #
coedge $-1 $181 $186 $67 $110 forward $176 $-1 #
edge $-1 $187 22.03231613650409 $188 25.623834628759859 $109 $189 forward 7 unknown #
loop $-1 $-1 $116 $68 #
plane-surface $-1 -7.8559440252239909 -29.763563866874222 2.7761303570736899 0 -0.83867057594974714 0.54463902268945019 1 0 0 forward_v I I I I #
loop $-1 $-1 $190 $44 #
coedge $-1 $114 $114 $115 $191 reversed $69 $-1 #
coedge $-1 $115 $115 $114 $191 forward $71 $-1 #
coedge $-1 $116 $116 $72 $117 forward $111 $-1 #
edge $-1 $192 -4.9659273786402691e-016 $192 6.2831853071795996 $116 $193 forward 7 unknown #
loop $-1 $-1 $123 $73 #
plane-surface $-1 -7.8559440252239909 -29.763563866874222 2.7761303570736899 0 -0.83867057594974714 0.54463902268945019 1 0 0 forward_v I I I I #
loop $-1 $-1 $194 $47 #
coedge $-1 $121 $121 $122 $195 reversed $74 $-1 #
coedge $-1 $122 $122 $121 $195 forward $76 $-1 #
coedge $-1 $123 $123 $77 $124 forward $118 $-1 #
edge $-1 $196 -4.9659273786402691e-016 $196 6.2831853071795996 $123 $197 forward 7 unknown #
face $-1 $198 $199 $26 $-1 $200 reversed single #
loop $-1 $-1 $201 $78 #
plane-surface $-1 -16.640716600109652 44.429875550200094 105.35882826049281 -1 0 0 0 0.66913061440640931 0.74314481823134659 forward_v I I I I #
coedge $-1 $202 $203 $204 $205 reversed $79 $-1 #
coedge $-1 $130 $81 $206 $207 reversed $51 $-1 #
coedge $-1 $81 $129 $202 $208 reversed $51 $-1 #
coedge $-1 $204 $209 $81 $132 forward $210 $-1 #
edge $-1 $211 -7.548626091774171 $212 1.5564417909546222 $131 $213 forward 7 unknown #
loop $-1 $-1 $138 $82 #
plane-surface $-1 -26.14311645805078 -14.473712652656424 39.939767458711913 0 0.66913061440640931 0.74314481823134659 1 0 0 forward_v I I I I #
loop $-1 $-1 $214 $53 #
coedge $-1 $136 $136 $137 $215 reversed $83 $-1 #
coedge $-1 $137 $137 $136 $215 forward $85 $-1 #
coedge $-1 $138 $138 $86 $139 forward $133 $-1 #
edge $-1 $216 -7.4053077519882715e-016 $216 6.2831853071795996 $138 $217 forward 7 unknown #
face $-1 $218 $219 $21 $-1 $220 reversed single #
loop $-1 $-1 $221 $87 #
plane-surface $-1 -44.01501510666219 0 0 1 0 0 0 0 -1 forward_v I I I I #
coedge $-1 $222 $151 $223 $224 forward $88 $-1 #
coedge $-1 $225 $90 $222 $226 forward $57 $-1 #
coedge $-1 $90 $225 $227 $228 forward $57 $-1 #
coedge $-1 $154 $153 $90 $147 reversed $155 $-1 #
edge $-1 $229 -29.763563866874218 $230 29.763563866874218 $146 $231 forward 7 unknown #
coedge $-1 $92 $91 $232 $233 forward $36 $-1 #
coedge $-1 $234 $235 $91 $150 reversed $219 $-1 #
edge $-1 $157 -44.01501510666219 $236 44.01501510666219 $149 $237 forward 7 unknown #
coedge $-1 $143 $238 $92 $152 reversed $88 $-1 #
edge $-1 $239 -44.01501510666219 $156 44.01501510666219 $151 $240 forward 7 unknown #
coedge $-1 $146 $93 $238 $241 forward $155 $-1 #
coedge $-1 $93 $146 $234 $242 reversed $155 $-1 #
loop $-1 $-1 $153 $218 #
vertex $-1 $94 $243 #
vertex $-1 $94 $244 #
straight-curve $-1 44.01501510666219 0 8.3065840281316987 0 1 0 I I #
face $-1 $245 $171 $22 $-1 $246 reversed single #
loop $-1 $-1 $247 $95 #
plane-surface $-1 -52.384513897332468 -15.461571564450779 0 1 0 0 0 0 -1 forward_v I I I I #
coedge $-1 $248 $249 $250 $251 forward $96 $-1 #
coedge $-1 $252 $98 $248 $253 forward $61 $-1 #
coedge $-1 $98 $252 $169 $254 forward $61 $-1 #
edge $-1 $172 13.150395810610821 $255 17.772747318290737 $98 $256 forward 7 unknown #
coedge $-1 $100 $99 $257 $258 forward $39 $-1 #
coedge $-1 $259 $260 $99 $168 forward $261 $-1 #
edge $-1 $262 -17.772747318290737 $173 -13.150395810610821 $167 $263 forward 7 unknown #
coedge $-1 $264 $101 $164 $254 reversed $171 $-1 #
coedge $-1 $101 $264 $259 $265 reversed $171 $-1 #
loop $-1 $-1 $101 $159 #
vertex $-1 $165 $266 #
vertex $-1 $265 $267 #
straight-curve $-1 -44.01501510666219 -13.150395810610821 0 0 0 1 I I #
face $-1 $-1 $268 $23 $-1 $269 reversed single #
loop $-1 $-1 $109 $103 #
plane-surface $-1 0 0 8.3065840281316987 0 0 1 1 0 0 forward_v I I I I #
coedge $-1 $270 $271 $272 $273 reversed $104 $-1 #
coedge $-1 $274 $106 $108 $185 forward $65 $-1 #
coedge $-1 $106 $274 $270 $275 forward $65 $-1 #
coedge $-1 $272 $109 $106 $182 forward $176 $-1 #
edge $-1 $188 -2.4023015780395092 $276 10.2582456032635 $181 $277 forward 7 unknown #
coedge $-1 $278 $279 $107 $184 forward $268 $-1 #
edge $-1 $280 -22.584229632817028 $187 -17.053775961759026 $183 $281 forward 7 unknown #
edge $-1 $188 -6.5943098871628854 $280 -6.4042811466935879e-015 $108 $282 forward 7 unknown #
coedge $-1 $109 $272 $278 $283 forward $176 $-1 #
vertex $-1 $110 $284 #
vertex $-1 $110 $285 #
straight-curve $-1 -1.5256704345724863 -51.795880003378308 8.3065840281316987 0 1 0 I I #
coedge $-1 $190 $190 $-1 $286 reversed $113 $-1 #
edge $-1 $287 0 $287 6.2831853071796004 $114 $288 forward 7 unknown #
vertex $-1 $117 $289 #
ellipse-curve $-1 -10.568918421217496 -27.967804620746335 5.5413571926026934 0 -0.83867057594974714 0.54463902268945019 1.5 0 0 1 I I #
coedge $-1 $194 $194 $-1 $290 reversed $120 $-1 #
edge $-1 $291 0 $291 6.2831853071796004 $121 $292 forward 7 unknown #
vertex $-1 $124 $293 #
ellipse-curve $-1 -5.1429696292304925 -27.967804620746335 5.5413571926026934 0 -0.83867057594974714 0.54463902268945019 1.5 0 0 1 I I #
face $-1 $-1 $210 $26 $-1 $294 forward single #
loop $-1 $-1 $295 $125 #
plane-surface $-1 0 29.763563866874218 0 0 -1 0 0 0 -1 forward_v I I I I #
coedge $-1 $296 $297 $298 $299 reversed $126 $-1 #
coedge $-1 $300 $128 $130 $208 forward $79 $-1 #
coedge $-1 $128 $300 $296 $301 forward $79 $-1 #
coedge $-1 $298 $131 $128 $205 forward $210 $-1 #
edge $-1 $212 -22.57395808696652 $302 -3.5691583710842618 $204 $303 forward 7 unknown #
coedge $-1 $304 $305 $129 $207 forward $199 $-1 #
edge $-1 $306 -52.5710702258664 $211 -44.372830102114705 $206 $307 forward 7 unknown #
edge $-1 $212 47.27505026599664 $306 59.527127733748443 $130 $308 forward 7 unknown #
coedge $-1 $131 $298 $304 $309 forward $210 $-1 #
loop $-1 $-1 $298 $198 #
vertex $-1 $207 $310 #
vertex $-1 $132 $311 #
straight-curve $-1 -35.645516315991912 22.214937775100047 8.3065840281316952 0 -1 0 I I #
coedge $-1 $214 $214 $-1 $312 reversed $135 $-1 #
edge $-1 $313 0 $313 6.2831853071796004 $136 $314 forward 7 unknown #
vertex $-1 $139 $315 #
ellipse-curve $-1 -26.14311645805078 25.211029925509823 4.2074639662558484 0 0.66913061440640931 0.74314481823134659 2.5 0 0 1 I I #
face $-1 $-1 $155 $21 $-1 $316 reversed single #
loop $-1 $-1 $234 $140 #
plane-surface $-1 0 29.763563866874218 0 0 -1 0 0 0 -1 forward_v I I I I #
coedge $-1 $317 $232 $235 $318 forward $141 $-1 #
coedge $-1 $238 $143 $144 $226 reversed $88 $-1 #
coedge $-1 $232 $317 $143 $224 reversed $141 $-1 #
edge $-1 $239 -8.3065840281316987 $319 8.3065840281316987 $223 $320 forward 7 unknown #
coedge $-1 $145 $144 $317 $321 forward $57 $-1 #
edge $-1 $230 -44.01501510666219 $319 44.01501510666219 $222 $322 forward 7 unknown #
coedge $-1 $235 $234 $145 $228 reversed $219 $-1 #
edge $-1 $323 -44.01501510666219 $229 44.01501510666219 $227 $324 forward 7 unknown #
vertex $-1 $147 $325 #
vertex $-1 $241 $326 #
straight-curve $-1 44.01501510666219 0 -8.3065840281316987 0 -1 0 I I #
coedge $-1 $221 $223 $148 $233 reversed $141 $-1 #
edge $-1 $236 -29.763563866874218 $239 29.763563866874218 $232 $327 forward 7 unknown #
coedge $-1 $227 $149 $154 $242 forward $219 $-1 #
coedge $-1 $149 $227 $221 $318 reversed $219 $-1 #
vertex $-1 $150 $328 #
straight-curve $-1 0 29.763563866874218 8.3065840281316987 -1 0 0 I I #
coedge $-1 $151 $222 $153 $241 reversed $88 $-1 #
vertex $-1 $233 $329 #
straight-curve $-1 0 -29.763563866874218 8.3065840281316987 1 0 0 I I #
edge $-1 $156 -8.3065840281316987 $230 8.3065840281316987 $153 $330 forward 7 unknown #
edge $-1 $157 -8.3065840281316987 $229 8.3065840281316987 $154 $331 forward 7 unknown #
point $-1 44.01501510666219 -29.763563866874218 8.3065840281316987 #
point $-1 44.01501510666219 29.763563866874218 8.3065840281316987 #
face $-1 $-1 $261 $22 $-1 $332 forward single #
plane-surface $-1 -48.199764501997329 -13.150395810610821 0 0 -1 0 0 0 -1 forward_v I I I I #
coedge $-1 $333 $334 $264 $335 forward $160 $-1 #
coedge $-1 $257 $162 $163 $253 reversed $96 $-1 #
coedge $-1 $162 $257 $260 $336 reversed $96 $-1 #
coedge $-1 $334 $333 $162 $251 reversed $160 $-1 #
edge $-1 $337 -8.3065840281316987 $338 8.3065840281316987 $250 $339 forward 7 unknown #
coedge $-1 $164 $163 $333 $340 forward $61 $-1 #
edge $-1 $255 -4.1847493953351389 $338 4.1847493953351389 $248 $341 forward 7 unknown #
edge $-1 $342 -4.1847493953351389 $172 4.1847493953351389 $169 $343 forward 7 unknown #
vertex $-1 $253 $344 #
straight-curve $-1 -44.01501510666219 0 -8.3065840281316987 0 -1 0 I I #
coedge $-1 $249 $248 $166 $258 reversed $96 $-1 #
edge $-1 $262 -8.3065840281316987 $255 8.3065840281316987 $257 $345 forward 7 unknown #
coedge $-1 $346 $167 $170 $265 forward $261 $-1 #
coedge $-1 $167 $346 $249 $336 forward $261 $-1 #
loop $-1 $-1 $167 $245 #
vertex $-1 $168 $347 #
straight-curve $-1 -44.01501510666219 0 8.3065840281316987 0 1 0 I I #
coedge $-1 $170 $169 $247 $335 reversed $171 $-1 #
edge $-1 $173 -4.1847493953351389 $348 4.1847493953351389 $170 $349 forward 7 unknown #
point $-1 -44.01501510666219 -13.150395810610821 -8.3065840281316987 #
point $-1 -44.01501510666219 -13.150395810610821 8.3065840281316987 #
loop $-1 $-1 $183 $175 #
plane-surface $-1 0 -29.763563866874218 0 0 1 0 0 0 1 forward_v I I I I #
coedge $-1 $271 $178 $180 $275 reversed $104 $-1 #
coedge $-1 $178 $270 $350 $351 reversed $104 $-1 #
coedge $-1 $186 $181 $178 $273 forward $176 $-1 #
edge $-1 $276 -25.623834628759859 $352 -22.03231613650409 $272 $353 forward 7 unknown #
coedge $-1 $180 $179 $279 $354 reversed $65 $-1 #
edge $-1 $355 6.4042811466935879e-015 $276 6.5943098871628854 $270 $356 forward 7 unknown #
vertex $-1 $182 $357 #
straight-curve $-1 -3.9279720126119955 -26.172045374618449 8.3065840281316987 -1 0 0 I I #
coedge $-1 $350 $183 $186 $283 reversed $268 $-1 #
coedge $-1 $183 $350 $274 $354 forward $268 $-1 #
vertex $-1 $184 $358 #
straight-curve $-1 -1.5256704345724863 -29.763563866874222 25.360359989890725 0 0 1 I I #
straight-curve $-1 -1.5256704345724863 -29.763563866874222 2.7761303570736899 0 -0.54463902268945019 -0.83867057594974714 I I #
edge $-1 $352 -14.186217615875496 $187 -1.5256704345724863 $278 $359 forward 7 unknown #
point $-1 -1.5256704345724863 -29.763563866874218 8.3065840281316987 #
point $-1 -1.5256704345724863 -26.172045374618449 8.3065840281316987 #
edge $-1 $360 1 $360 0 $190 $-1 forward 7 unknown #
vertex $-1 $191 $361 #
ellipse-curve $-1 -10.568918421217496 -23.570984479926629 2.6860288991002101 0 -0.83867057594974714 0.54463902268945019 1.5 0 0 1 I I #
point $-1 -9.0689184212174965 -27.967804620746335 5.5413571926026925 #
edge $-1 $362 1 $362 0 $194 $-1 forward 7 unknown #
vertex $-1 $195 $363 #
ellipse-curve $-1 -5.1429696292304925 -23.570984479926629 2.6860288991002101 0 -0.83867057594974714 0.54463902268945019 1.5 0 0 1 I I #
point $-1 -3.6429696292304925 -27.967804620746335 5.5413571926026925 #
plane-surface $-1 0 0 8.3065840281316987 0 0 1 1 0 0 forward_v I I I I #
coedge $-1 $305 $304 $297 $364 forward $199 $-1 #
coedge $-1 $297 $201 $203 $301 reversed $126 $-1 #
coedge $-1 $201 $296 $295 $364 reversed $126 $-1 #
coedge $-1 $209 $204 $201 $299 forward $210 $-1 #
edge $-1 $302 -1.5564417909546222 $365 7.548626091774171 $298 $366 forward 7 unknown #
coedge $-1 $203 $202 $305 $367 reversed $79 $-1 #
edge $-1 $368 -59.527127733748443 $302 -47.27505026599664 $296 $369 forward 7 unknown #
vertex $-1 $205 $370 #
straight-curve $-1 -13.07155822902539 20.658495984145425 8.3065840281316987 1 0 0 I I #
coedge $-1 $295 $206 $209 $309 reversed $199 $-1 #
coedge $-1 $206 $295 $300 $367 forward $199 $-1 #
vertex $-1 $207 $371 #
straight-curve $-1 -35.645516315991912 29.763563866874218 52.679414130246407 0 0 1 I I #
straight-curve $-1 -35.645516315991912 -14.473712652656424 39.939767458711913 0 0.74314481823134659 -0.66913061440640931 I I #
edge $-1 $365 16.640716600109652 $211 35.645516315991912 $304 $372 forward 7 unknown #
point $-1 -35.645516315991912 29.763563866874218 8.3065840281316987 #
point $-1 -35.645516315991912 20.658495984145425 8.3065840281316987 #
edge $-1 $373 1 $373 0 $214 $-1 forward 7 unknown #
vertex $-1 $215 $374 #
ellipse-curve $-1 -26.14311645805078 22.421692377113352 1.1095908443873563 0 0.66913061440640931 0.74314481823134659 2.5 0 0 1 I I #
point $-1 -23.64311645805078 25.21102992550983 4.2074639662558591 #
plane-surface $-1 44.01501510666219 0 0 -1 0 0 0 0 1 forward_v I I I I #
coedge $-1 $223 $221 $225 $321 reversed $141 $-1 #
edge $-1 $236 -8.3065840281316987 $323 8.3065840281316987 $235 $375 forward 7 unknown #
vertex $-1 $321 $376 #
straight-curve $-1 -44.01501510666219 -29.763563866874218 0 0 0 -1 I I #
edge $-1 $319 -29.763563866874218 $323 29.763563866874218 $317 $377 forward 7 unknown #
straight-curve $-1 0 -29.763563866874218 -8.3065840281316987 -1 0 0 I I #
vertex $-1 $228 $378 #
straight-curve $-1 0 29.763563866874218 -8.3065840281316987 1 0 0 I I #
point $-1 44.01501510666219 29.763563866874218 -8.3065840281316987 #
point $-1 44.01501510666219 -29.763563866874218 -8.3065840281316987 #
straight-curve $-1 -44.01501510666219 0 8.3065840281316987 0 -1 0 I I #
point $-1 -44.01501510666219 29.763563866874218 8.3065840281316987 #
point $-1 -44.01501510666219 -29.763563866874218 8.3065840281316987 #
straight-curve $-1 44.01501510666219 -29.763563866874218 0 0 0 -1 I I #
straight-curve $-1 44.01501510666219 29.763563866874218 0 0 0 -1 I I #
plane-surface $-1 0 0 8.3065840281316987 0 0 1 1 0 0 forward_v I I I I #
coedge $-1 $250 $247 $252 $340 reversed $160 $-1 #
coedge $-1 $247 $250 $346 $379 reversed $160 $-1 #
edge $-1 $348 -8.3065840281316987 $342 8.3065840281316987 $264 $380 forward 7 unknown #
edge $-1 $337 -4.1847493953351389 $262 4.1847493953351389 $249 $381 forward 7 unknown #
vertex $-1 $379 $382 #
vertex $-1 $340 $383 #
straight-curve $-1 -52.384513897332468 -17.772747318290737 0 0 0 -1 I I #
edge $-1 $338 -2.311175753839958 $342 2.311175753839958 $333 $384 forward 7 unknown #
straight-curve $-1 -48.199764501997329 -17.772747318290737 -8.3065840281316987 -1 0 0 I I #
vertex $-1 $254 $385 #
straight-curve $-1 -48.199764501997329 -13.150395810610821 -8.3065840281316987 1 0 0 I I #
point $-1 -44.01501510666219 -17.772747318290737 -8.3065840281316987 #
straight-curve $-1 -44.01501510666219 -17.772747318290737 0 0 0 -1 I I #
coedge $-1 $260 $259 $334 $379 forward $261 $-1 #
point $-1 -44.01501510666219 -17.772747318290737 8.3065840281316987 #
vertex $-1 $265 $386 #
straight-curve $-1 -48.199764501997329 -13.150395810610821 8.3065840281316987 -1 0 0 I I #
coedge $-1 $279 $278 $271 $351 forward $268 $-1 #
edge $-1 $352 17.053775961759026 $355 22.584229632817028 $350 $387 forward 7 unknown #
vertex $-1 $283 $388 #
straight-curve $-1 -14.186217615875496 -51.795880003378308 8.3065840281316987 0 -1 0 I I #
edge $-1 $355 -10.2582456032635 $280 2.4023015780395092 $279 $389 forward 7 unknown #
vertex $-1 $354 $390 #
straight-curve $-1 -14.186217615875496 -29.763563866874222 2.7761303570736899 0 0.54463902268945019 0.83867057594974714 I I #
point $-1 -14.186217615875496 -26.172045374618449 8.3065840281316987 #
point $-1 -1.5256704345724863 -29.763563866874218 2.7761303570736953 #
straight-curve $-1 0 -29.763563866874218 8.3065840281316987 1 0 0 I I #
vertex $-1 $286 $391 #
point $-1 -9.0689184212174965 -23.570984479926629 2.6860288991002101 #
vertex $-1 $290 $392 #
point $-1 -3.6429696292304925 -23.570984479926629 2.6860288991002101 #
edge $-1 $365 44.372830102114705 $368 52.5710702258664 $295 $393 forward 7 unknown #
vertex $-1 $309 $394 #
straight-curve $-1 -16.640716600109652 22.214937775100047 8.3065840281316952 0 1 0 I I #
edge $-1 $368 3.5691583710842618 $306 22.57395808696652 $305 $395 forward 7 unknown #
vertex $-1 $367 $396 #
straight-curve $-1 -16.640716600109652 -14.473712652656424 39.939767458711913 0 -0.74314481823134659 0.66913061440640931 I I #
point $-1 -16.640716600109652 20.658495984145425 8.3065840281316987 #
point $-1 -35.645516315991912 29.763563866874215 0.10834390438000696 #
straight-curve $-1 0 29.763563866874218 8.3065840281316987 -1 0 0 I I #
vertex $-1 $312 $397 #
point $-1 -23.64311645805078 22.421692377113352 1.1095908443873563 #
straight-curve $-1 -44.01501510666219 29.763563866874218 0 0 0 -1 I I #
point $-1 -44.01501510666219 -29.763563866874218 -8.3065840281316987 #
straight-curve $-1 -44.01501510666219 0 -8.3065840281316987 0 1 0 I I #
point $-1 -44.01501510666219 29.763563866874218 -8.3065840281316987 #
edge $-1 $348 -2.311175753839958 $337 2.311175753839958 $334 $398 forward 7 unknown #
straight-curve $-1 -52.384513897332468 -13.150395810610821 0 0 0 -1 I I #
straight-curve $-1 -48.199764501997329 -17.772747318290737 8.3065840281316987 1 0 0 I I #
point $-1 -52.384513897332468 -17.772747318290737 8.3065840281316987 #
point $-1 -52.384513897332468 -17.772747318290737 -8.3065840281316987 #
straight-curve $-1 -52.384513897332468 -15.461571564450779 -8.3065840281316987 0 1 0 I I #
point $-1 -52.384513897332468 -13.150395810610821 -8.3065840281316987 #
point $-1 -52.384513897332468 -13.150395810610821 8.3065840281316987 #
straight-curve $-1 -14.186217615875496 -29.763563866874222 25.360359989890725 0 0 -1 I I #
point $-1 -14.186217615875496 -29.763563866874218 8.3065840281316987 #
straight-curve $-1 -3.9279720126119955 -29.763563866874218 2.7761303570736953 1 0 0 I I #
point $-1 -14.186217615875496 -29.763563866874218 2.7761303570736953 #
point $-1 -10.568918421217496 -22.312978616002006 1.8690703650660347 #
point $-1 -5.1429696292304925 -22.312978616002006 1.8690703650660347 #
straight-curve $-1 -16.640716600109652 29.763563866874218 52.679414130246407 0 0 -1 I I #
point $-1 -16.640716600109652 29.763563866874218 8.3065840281316987 #
straight-curve $-1 -13.07155822902539 29.763563866874215 0.10834390438000696 -1 0 0 I I #
point $-1 -16.640716600109652 29.763563866874215 0.10834390438000696 #
point $-1 -26.14311645805078 20.748865841097327 -0.74827120119101032 #
straight-curve $-1 -52.384513897332468 -15.461571564450779 8.3065840281316987 0 -1 0 I I #
End-of-ACIS-data 