500 0 2 0           
7 Unknown 11 ACIS 5.0 NT 24 Thu Mar 25 23:05:11 1999 
-1 9.9999999999999995e-007 1e-010 
body $-1 $2 $-1 $3 #
body $-1 $4 $-1 $5 #
lump $-1 $-1 $6 $0 #
transform $-1 1 0 0 0 1 0 0 0 1 49.441206091494493 21.408780075984339 9.5340190015802069 1 rotate no_reflect no_shear #
lump $-1 $-1 $7 $1 #
transform $-1 1 0 0 0 1 0 0 0 1 49.441206091494493 21.408780075984339 9.5340190015802069 1 rotate no_reflect no_shear #
shell $-1 $-1 $-1 $8 $-1 $2 #
shell $-1 $-1 $-1 $9 $-1 $4 #
face $-1 $10 $11 $6 $-1 $12 forward single #
face $-1 $13 $14 $7 $-1 $15 reversed single #
face $-1 $16 $17 $6 $-1 $18 reversed single #
loop $-1 $-1 $19 $8 #
plane-surface $-1 0 0 9.5340190015802069 0 0 1 1 0 0 forward_v I I I I #
face $-1 $20 $21 $7 $-1 $22 forward single #
loop $-1 $-1 $23 $9 #
plane-surface $-1 0 -16.98762499232819 0.66153148995315103 0 0 1 1 0 0 forward_v I I I I #
face $-1 $24 $25 $6 $-1 $26 reversed single #
loop $-1 $-1 $27 $10 #
plane-surface $-1 0 0 -9.5340190015802069 0 0 1 1 0 0 forward_v I I I I #
coedge $-1 $28 $29 $30 $31 forward $11 $-1 #
face $-1 $32 $33 $7 $-1 $34 forward single #
loop $-1 $-1 $35 $13 #
plane-surface $-1 0 -16.98762499232819 -3.4753371693890847 0 0 1 1 0 0 forward_v I I I I #
coedge $-1 $36 $37 $38 $39 reversed $14 $-1 #
face $-1 $40 $41 $6 $-1 $42 reversed single #
loop $-1 $-1 $43 $16 #
plane-surface $-1 0 -21.408780075984339 0 0 1 0 0 0 1 forward_v I I I I #
coedge $-1 $44 $45 $46 $47 forward $17 $-1 #
coedge $-1 $48 $19 $49 $50 forward $11 $-1 #
coedge $-1 $19 $48 $51 $52 forward $11 $-1 #
coedge $-1 $53 $54 $19 $31 reversed $55 $-1 #
edge $-1 $56 -21.408780075984339 $57 21.408780075984339 $30 $58 forward 7 unknown #
face $-1 $59 $60 $7 $-1 $61 reversed single #
loop $-1 $-1 $62 $20 #
plane-surface $-1 0 -12.56646990867204 -1.4069028397179668 0 -1 0 0 0 -1 forward_v I I I I #
coedge $-1 $63 $64 $65 $66 reversed $21 $-1 #
coedge $-1 $67 $23 $68 $69 reversed $14 $-1 #
coedge $-1 $23 $67 $70 $71 reversed $14 $-1 #
coedge $-1 $72 $73 $23 $39 forward $60 $-1 #
edge $-1 $74 -12.914967579820244 $75 -4.0726574125079456 $38 $76 forward 7 unknown #
face $-1 $77 $78 $6 $-1 $79 reversed single #
loop $-1 $-1 $80 $24 #
plane-surface $-1 -49.441206091494493 0 0 1 0 0 0 0 -1 forward_v I I I I #
coedge $-1 $81 $51 $82 $83 forward $25 $-1 #
coedge $-1 $84 $27 $81 $85 forward $17 $-1 #
coedge $-1 $27 $84 $86 $87 forward $17 $-1 #
coedge $-1 $54 $53 $27 $47 reversed $55 $-1 #
edge $-1 $88 -21.408780075984339 $89 21.408780075984339 $46 $90 forward 7 unknown #
coedge $-1 $29 $28 $91 $92 forward $11 $-1 #
coedge $-1 $93 $94 $28 $50 reversed $78 $-1 #
edge $-1 $57 -49.441206091494493 $95 49.441206091494493 $49 $96 forward 7 unknown #
coedge $-1 $43 $97 $29 $52 reversed $25 $-1 #
edge $-1 $98 -49.441206091494493 $56 49.441206091494493 $51 $99 forward 7 unknown #
coedge $-1 $46 $30 $97 $100 forward $55 $-1 #
coedge $-1 $30 $46 $93 $101 reversed $55 $-1 #
loop $-1 $-1 $53 $77 #
vertex $-1 $31 $102 #
vertex $-1 $31 $103 #
straight-curve $-1 49.441206091494493 0 9.5340190015802069 0 1 0 I I #
face $-1 $104 $105 $7 $-1 $106 reversed single #
loop $-1 $-1 $38 $32 #
plane-surface $-1 49.441206091494493 0 0 -1 0 0 0 0 1 forward_v I I I I #
coedge $-1 $70 $107 $72 $108 reversed $33 $-1 #
coedge $-1 $109 $35 $107 $110 reversed $21 $-1 #
coedge $-1 $35 $109 $111 $112 reversed $21 $-1 #
coedge $-1 $113 $72 $35 $66 forward $60 $-1 #
edge $-1 $114 4.0726574125079456 $115 12.914967579820244 $65 $116 forward 7 unknown #
coedge $-1 $37 $36 $117 $118 reversed $14 $-1 #
coedge $-1 $119 $120 $36 $69 forward $121 $-1 #
edge $-1 $122 -49.441206091494493 $74 49.441206091494493 $68 $123 forward 7 unknown #
coedge $-1 $124 $62 $37 $71 forward $33 $-1 #
edge $-1 $75 -49.441206091494493 $125 49.441206091494493 $70 $126 forward 7 unknown #
coedge $-1 $65 $38 $62 $108 forward $60 $-1 #
coedge $-1 $38 $127 $119 $128 forward $60 $-1 #
vertex $-1 $69 $129 #
vertex $-1 $39 $130 #
straight-curve $-1 49.441206091494493 -8.4938124961640948 0.66153148995315103 0 1 0 I I #
face $-1 $-1 $55 $6 $-1 $131 reversed single #
loop $-1 $-1 $93 $40 #
plane-surface $-1 0 21.408780075984339 0 0 -1 0 0 0 -1 forward_v I I I I #
coedge $-1 $132 $91 $94 $133 forward $41 $-1 #
coedge $-1 $97 $43 $44 $85 reversed $25 $-1 #
coedge $-1 $91 $132 $43 $83 reversed $41 $-1 #
edge $-1 $98 -9.5340190015802069 $134 9.5340190015802069 $82 $135 forward 7 unknown #
coedge $-1 $45 $44 $132 $136 forward $17 $-1 #
edge $-1 $89 -49.441206091494493 $134 49.441206091494493 $81 $137 forward 7 unknown #
coedge $-1 $94 $93 $45 $87 reversed $78 $-1 #
edge $-1 $138 -49.441206091494493 $88 49.441206091494493 $86 $139 forward 7 unknown #
vertex $-1 $47 $140 #
vertex $-1 $100 $141 #
straight-curve $-1 49.441206091494493 0 -9.5340190015802069 0 -1 0 I I #
coedge $-1 $80 $82 $48 $92 reversed $41 $-1 #
edge $-1 $95 -21.408780075984339 $98 21.408780075984339 $91 $142 forward 7 unknown #
coedge $-1 $86 $49 $54 $101 forward $78 $-1 #
coedge $-1 $49 $86 $80 $133 reversed $78 $-1 #
vertex $-1 $50 $143 #
straight-curve $-1 0 21.408780075984339 9.5340190015802069 -1 0 0 I I #
coedge $-1 $51 $81 $53 $100 reversed $25 $-1 #
vertex $-1 $92 $144 #
straight-curve $-1 0 -21.408780075984339 9.5340190015802069 1 0 0 I I #
edge $-1 $56 -9.5340190015802069 $89 9.5340190015802069 $53 $145 forward 7 unknown #
edge $-1 $57 -9.5340190015802069 $88 9.5340190015802069 $54 $146 forward 7 unknown #
point $-1 49.441206091494493 -21.408780075984339 9.5340190015802069 #
point $-1 49.441206091494493 21.408780075984339 9.5340190015802069 #
face $-1 $147 $148 $7 $-1 $149 forward single #
loop $-1 $-1 $111 $59 #
plane-surface $-1 0 -21.408780075984339 0 0 1 0 0 0 1 forward_v I I I I #
coedge $-1 $62 $124 $63 $110 forward $33 $-1 #
edge $-1 $75 -1.3649829098121344 $114 2.7718857495301013 $72 $150 forward 7 unknown #
coedge $-1 $64 $63 $151 $152 reversed $21 $-1 #
edge $-1 $153 -49.441206091494493 $114 49.441206091494493 $107 $154 forward 7 unknown #
coedge $-1 $155 $156 $64 $112 forward $105 $-1 #
edge $-1 $115 -49.441206091494493 $157 49.441206091494493 $111 $158 forward 7 unknown #
coedge $-1 $159 $65 $156 $160 forward $60 $-1 #
vertex $-1 $66 $161 #
vertex $-1 $160 $162 #
straight-curve $-1 49.441206091494493 -8.4938124961640948 -3.4753371693890847 0 -1 0 I I #
coedge $-1 $163 $164 $67 $118 forward $165 $-1 #
edge $-1 $125 4.0726574125079456 $122 12.914967579820244 $117 $166 forward 7 unknown #
coedge $-1 $167 $68 $73 $128 reversed $121 $-1 #
coedge $-1 $68 $167 $163 $168 forward $121 $-1 #
loop $-1 $-1 $68 $169 #
vertex $-1 $118 $170 #
straight-curve $-1 0 -21.408780075984339 0.66153148995315103 1 0 0 I I #
coedge $-1 $107 $70 $164 $171 reversed $33 $-1 #
vertex $-1 $118 $172 #
straight-curve $-1 0 -12.56646990867204 0.66153148995315103 -1 0 0 I I #
coedge $-1 $73 $173 $174 $175 reversed $60 $-1 #
edge $-1 $176 -9.5340190015802069 $74 -0.66153148995315103 $73 $177 forward 7 unknown #
point $-1 49.441206091494493 -21.408780075984339 0.66153148995315103 #
point $-1 49.441206091494493 -12.56646990867204 0.66153148995315103 #
plane-surface $-1 49.441206091494493 0 0 -1 0 0 0 0 1 forward_v I I I I #
coedge $-1 $82 $80 $84 $136 reversed $41 $-1 #
edge $-1 $95 -9.5340190015802069 $138 9.5340190015802069 $94 $178 forward 7 unknown #
vertex $-1 $136 $179 #
straight-curve $-1 -49.441206091494493 -21.408780075984339 0 0 0 -1 I I #
edge $-1 $134 -21.408780075984339 $138 21.408780075984339 $132 $180 forward 7 unknown #
straight-curve $-1 0 -21.408780075984339 -9.5340190015802069 -1 0 0 I I #
vertex $-1 $87 $181 #
straight-curve $-1 0 21.408780075984339 -9.5340190015802069 1 0 0 I I #
point $-1 49.441206091494493 21.408780075984339 -9.5340190015802069 #
point $-1 49.441206091494493 -21.408780075984339 -9.5340190015802069 #
straight-curve $-1 -49.441206091494493 0 9.5340190015802069 0 -1 0 I I #
point $-1 -49.441206091494493 21.408780075984339 9.5340190015802069 #
point $-1 -49.441206091494493 -21.408780075984339 9.5340190015802069 #
straight-curve $-1 49.441206091494493 -21.408780075984339 0 0 0 -1 I I #
straight-curve $-1 49.441206091494493 21.408780075984339 0 0 0 -1 I I #
face $-1 $169 $182 $7 $-1 $183 reversed single #
loop $-1 $-1 $174 $104 #
plane-surface $-1 0 0 9.5340190015802069 0 0 1 1 0 0 forward_v I I I I #
straight-curve $-1 49.441206091494493 -12.56646990867204 -0.70345141985898341 0 0 -1 I I #
coedge $-1 $164 $184 $109 $152 forward $165 $-1 #
edge $-1 $157 -12.914967579820244 $153 -4.0726574125079456 $151 $185 forward 7 unknown #
vertex $-1 $152 $186 #
straight-curve $-1 0 -12.56646990867204 -3.4753371693890847 1 0 0 I I #
coedge $-1 $187 $111 $184 $188 forward $105 $-1 #
coedge $-1 $111 $187 $113 $160 reversed $105 $-1 #
vertex $-1 $188 $189 #
straight-curve $-1 0 -21.408780075984339 -3.4753371693890847 -1 0 0 I I #
coedge $-1 $173 $113 $190 $191 reversed $60 $-1 #
edge $-1 $115 3.4753371693890847 $192 9.5340190015802069 $113 $177 forward 7 unknown #
point $-1 49.441206091494493 -12.56646990867204 -3.4753371693890847 #
point $-1 49.441206091494493 -21.408780075984339 -3.4753371693890847 #
coedge $-1 $193 $117 $120 $168 reversed $165 $-1 #
coedge $-1 $117 $151 $124 $171 forward $165 $-1 #
loop $-1 $-1 $117 $194 #
straight-curve $-1 -49.441206091494493 -8.4938124961640948 0.66153148995315103 0 -1 0 I I #
coedge $-1 $120 $119 $195 $196 reversed $121 $-1 #
edge $-1 $197 -9.5340190015802069 $122 -0.66153148995315103 $163 $198 forward 7 unknown #
face $-1 $194 $121 $7 $-1 $106 reversed single #
point $-1 -49.441206091494493 -21.408780075984339 0.66153148995315103 #
edge $-1 $153 -2.7718857495301013 $125 1.3649829098121344 $164 $199 forward 7 unknown #
point $-1 -49.441206091494493 -12.56646990867204 0.66153148995315103 #
coedge $-1 $127 $159 $200 $201 reversed $60 $-1 #
coedge $-1 $202 $195 $127 $175 forward $148 $-1 #
edge $-1 $176 -21.408780075984339 $203 21.408780075984339 $127 $204 forward 7 unknown #
vertex $-1 $175 $205 #
straight-curve $-1 49.441206091494493 -21.408780075984339 0 0 0 -1 I I #
straight-curve $-1 -49.441206091494493 21.408780075984339 0 0 0 -1 I I #
point $-1 -49.441206091494493 -21.408780075984339 -9.5340190015802069 #
straight-curve $-1 -49.441206091494493 0 -9.5340190015802069 0 1 0 I I #
point $-1 -49.441206091494493 21.408780075984339 -9.5340190015802069 #
loop $-1 $-1 $190 $147 #
plane-surface $-1 0 0 -9.5340190015802069 0 0 1 1 0 0 forward_v I I I I #
coedge $-1 $151 $206 $155 $188 reversed $165 $-1 #
straight-curve $-1 -49.441206091494493 -8.4938124961640948 -3.4753371693890847 0 1 0 I I #
point $-1 -49.441206091494493 -12.56646990867204 -3.4753371693890847 #
coedge $-1 $156 $155 $207 $208 reversed $105 $-1 #
edge $-1 $157 3.4753371693890847 $209 9.5340190015802069 $184 $198 forward 7 unknown #
point $-1 -49.441206091494493 -21.408780075984339 -3.4753371693890847 #
coedge $-1 $207 $210 $159 $191 forward $182 $-1 #
edge $-1 $211 -21.408780075984339 $192 21.408780075984339 $159 $212 forward 7 unknown #
vertex $-1 $160 $213 #
coedge $-1 $214 $163 $215 $216 reversed $165 $-1 #
face $-1 $217 $165 $7 $-1 $218 reversed single #
coedge $-1 $174 $215 $167 $196 forward $148 $-1 #
edge $-1 $197 -49.441206091494493 $176 49.441206091494493 $167 $219 forward 7 unknown #
vertex $-1 $216 $220 #
straight-curve $-1 -49.441206091494493 -21.408780075984339 0 0 0 -1 I I #
straight-curve $-1 -49.441206091494493 -12.56646990867204 -0.70345141985898341 0 0 1 I I #
coedge $-1 $221 $222 $173 $201 forward $223 $-1 #
edge $-1 $203 -9.5340190015802069 $211 9.5340190015802069 $173 $224 forward 7 unknown #
coedge $-1 $215 $174 $222 $225 forward $148 $-1 #
vertex $-1 $175 $226 #
straight-curve $-1 49.441206091494493 0 9.5340190015802069 0 1 0 I I #
point $-1 49.441206091494493 -21.408780075984339 9.5340190015802069 #
coedge $-1 $184 $214 $227 $228 reversed $165 $-1 #
coedge $-1 $227 $190 $187 $208 forward $182 $-1 #
edge $-1 $192 -49.441206091494493 $209 49.441206091494493 $187 $229 forward 7 unknown #
vertex $-1 $228 $230 #
coedge $-1 $190 $227 $221 $231 forward $182 $-1 #
vertex $-1 $191 $232 #
straight-curve $-1 49.441206091494493 0 -9.5340190015802069 0 -1 0 I I #
point $-1 49.441206091494493 -21.408780075984339 -9.5340190015802069 #
coedge $-1 $206 $193 $233 $234 forward $165 $-1 #
coedge $-1 $195 $202 $193 $216 forward $148 $-1 #
edge $-1 $235 -21.408780075984339 $197 21.408780075984339 $193 $236 forward 7 unknown #
face $-1 $-1 $223 $7 $-1 $237 reversed single #
plane-surface $-1 -49.441206091494493 0 0 1 0 0 0 0 -1 forward_v I I I I #
straight-curve $-1 0 -21.408780075984339 9.5340190015802069 1 0 0 I I #
point $-1 -49.441206091494493 -21.408780075984339 9.5340190015802069 #
coedge $-1 $233 $200 $210 $231 reversed $223 $-1 #
coedge $-1 $200 $233 $202 $225 reversed $223 $-1 #
loop $-1 $-1 $200 $217 #
straight-curve $-1 49.441206091494493 21.408780075984339 0 0 0 -1 I I #
edge $-1 $203 -49.441206091494493 $235 49.441206091494493 $222 $238 forward 7 unknown #
point $-1 49.441206091494493 21.408780075984339 9.5340190015802069 #
coedge $-1 $210 $207 $206 $228 forward $182 $-1 #
edge $-1 $209 -21.408780075984339 $239 21.408780075984339 $206 $240 forward 7 unknown #
straight-curve $-1 0 -21.408780075984339 -9.5340190015802069 -1 0 0 I I #
point $-1 -49.441206091494493 -21.408780075984339 -9.5340190015802069 #
edge $-1 $239 -49.441206091494493 $211 49.441206091494493 $221 $241 forward 7 unknown #
point $-1 49.441206091494493 21.408780075984339 -9.5340190015802069 #
coedge $-1 $222 $221 $214 $234 reversed $223 $-1 #
edge $-1 $235 -9.5340190015802069 $239 9.5340190015802069 $233 $242 forward 7 unknown #
vertex $-1 $225 $243 #
straight-curve $-1 -49.441206091494493 0 9.5340190015802069 0 -1 0 I I #
plane-surface $-1 0 21.408780075984339 0 0 -1 0 0 0 -1 forward_v I I I I #
straight-curve $-1 0 21.408780075984339 9.5340190015802069 -1 0 0 I I #
vertex $-1 $231 $244 #
straight-curve $-1 -49.441206091494493 0 -9.5340190015802069 0 1 0 I I #
straight-curve $-1 0 21.408780075984339 -9.5340190015802069 1 0 0 I I #
straight-curve $-1 -49.441206091494493 21.408780075984339 0 0 0 -1 I I #
point $-1 -49.441206091494493 21.408780075984339 9.5340190015802069 #
point $-1 -49.441206091494493 21.408780075984339 -9.5340190015802069 #
End-of-ACIS-data 