500 0 14 0           
7 Unknown 11 ACIS 5.0 NT 24 Thu Mar 25 18:18:38 1999 
-1 9.9999999999999995e-007 1e-010 
body $-1 $14 $-1 $15 #
body $-1 $16 $-1 $17 #
body $-1 $18 $-1 $19 #
body $-1 $20 $-1 $21 #
body $-1 $22 $-1 $23 #
body $-1 $24 $-1 $25 #
body $-1 $26 $-1 $27 #
body $-1 $28 $-1 $29 #
body $-1 $30 $-1 $31 #
body $-1 $32 $-1 $33 #
body $-1 $34 $-1 $35 #
body $-1 $36 $-1 $37 #
body $-1 $38 $-1 $39 #
body $-1 $40 $-1 $41 #
lump $-1 $-1 $42 $0 #
transform $-1 1 0 0 0 1 0 0 0 1 76.51966917935728 32.818197176374454 13.394495735281271 1 rotate no_reflect no_shear #
lump $-1 $-1 $43 $1 #
transform $-1 1 0 0 0 1 0 0 0 1 76.51966917935728 32.818197176374454 13.394495735281271 1 rotate no_reflect no_shear #
lump $-1 $-1 $44 $2 #
transform $-1 1 0 0 0 1 0 0 0 1 76.51966917935728 32.818197176374454 13.394495735281271 1 rotate no_reflect no_shear #
lump $-1 $-1 $45 $3 #
transform $-1 1 0 0 0 1 0 0 0 1 76.51966917935728 32.818197176374454 13.394495735281271 1 rotate no_reflect no_shear #
lump $-1 $-1 $46 $4 #
transform $-1 1 0 0 0 1 0 0 0 1 76.51966917935728 32.818197176374454 13.394495735281271 1 rotate no_reflect no_shear #
lump $-1 $-1 $47 $5 #
transform $-1 1 0 0 0 1 0 0 0 1 76.51966917935728 32.818197176374454 13.394495735281271 1 rotate no_reflect no_shear #
lump $-1 $-1 $48 $6 #
transform $-1 1 0 0 0 1 0 0 0 1 76.51966917935728 32.818197176374454 13.394495735281271 1 rotate no_reflect no_shear #
lump $-1 $-1 $49 $7 #
transform $-1 1 0 0 0 1 0 0 0 1 76.51966917935728 32.818197176374454 13.394495735281271 1 rotate no_reflect no_shear #
lump $-1 $-1 $50 $8 #
transform $-1 1 0 0 0 1 0 0 0 1 76.51966917935728 32.818197176374454 13.394495735281271 1 rotate no_reflect no_shear #
lump $-1 $-1 $51 $9 #
transform $-1 1 0 0 0 1 0 0 0 1 76.51966917935728 32.818197176374454 13.394495735281271 1 rotate no_reflect no_shear #
lump $-1 $-1 $52 $10 #
transform $-1 1 0 0 0 1 0 0 0 1 76.51966917935728 32.818197176374454 13.394495735281271 1 rotate no_reflect no_shear #
lump $-1 $-1 $53 $11 #
transform $-1 1 0 0 0 1 0 0 0 1 76.51966917935728 32.818197176374454 13.394495735281271 1 rotate no_reflect no_shear #
lump $-1 $-1 $54 $12 #
transform $-1 1 0 0 0 1 0 0 0 1 76.51966917935728 32.818197176374454 13.394495735281271 1 rotate no_reflect no_shear #
lump $-1 $-1 $55 $13 #
transform $-1 1 0 0 0 1 0 0 0 1 76.51966917935728 32.818197176374454 13.394495735281271 1 rotate no_reflect no_shear #
shell $-1 $-1 $-1 $56 $-1 $14 #
shell $-1 $-1 $-1 $57 $-1 $16 #
shell $-1 $-1 $-1 $58 $-1 $18 #
shell $-1 $-1 $-1 $59 $-1 $20 #
shell $-1 $-1 $-1 $60 $-1 $22 #
shell $-1 $-1 $-1 $61 $-1 $24 #
shell $-1 $-1 $-1 $62 $-1 $26 #
shell $-1 $-1 $-1 $63 $-1 $28 #
shell $-1 $-1 $-1 $64 $-1 $30 #
shell $-1 $-1 $-1 $65 $-1 $32 #
shell $-1 $-1 $-1 $66 $-1 $34 #
shell $-1 $-1 $-1 $67 $-1 $36 #
shell $-1 $-1 $-1 $68 $-1 $38 #
shell $-1 $-1 $-1 $69 $-1 $40 #
face $-1 $70 $71 $42 $-1 $72 forward single #
face $-1 $73 $74 $43 $-1 $75 forward single #
face $-1 $76 $77 $44 $-1 $78 reversed single #
face $-1 $79 $80 $45 $-1 $81 forward single #
face $-1 $82 $83 $46 $-1 $84 forward single #
face $-1 $85 $86 $47 $-1 $87 reversed single #
face $-1 $88 $89 $48 $-1 $90 forward single #
face $-1 $91 $92 $49 $-1 $93 forward single #
face $-1 $94 $95 $50 $-1 $96 reversed single #
face $-1 $97 $98 $51 $-1 $99 forward single #
face $-1 $100 $101 $52 $-1 $102 forward single #
face $-1 $103 $104 $53 $-1 $105 reversed single #
face $-1 $106 $107 $54 $-1 $108 forward single #
face $-1 $109 $110 $55 $-1 $111 forward single #
face $-1 $112 $113 $42 $-1 $114 reversed single #
loop $-1 $-1 $115 $56 #
plane-surface $-1 0 0 13.394495735281271 0 0 1 1 0 0 forward_v I I I I #
face $-1 $116 $117 $43 $-1 $118 reversed single #
loop $-1 $-1 $119 $57 #
plane-surface $-1 0 -25.021666187257829 -9.1807092751712105 0 0 1 1 0 0 forward_v I I I I #
face $-1 $120 $121 $44 $-1 $122 reversed single #
loop $-1 $-1 $123 $58 #
plane-surface $-1 -172.83044663721711 0.59955663821416749 126.06479268961242 0 1 0 -0.62932039886446345 0 0.77714595512881146 forward_v I I I I #
face $-1 $124 $125 $45 $-1 $126 forward single #
loop $-1 $127 $128 $59 #
cone-surface $-1 -72.337554546896655 2.6558350241862954 9.8741198443501617 0.62932039886446345 0 -0.77714595512881146 0.38857297756440573 0 0.31466019943223172 1 I I 0 1 0.5 forward I I I I #
face $-1 $129 $130 $46 $-1 $131 forward single #
loop $-1 $132 $133 $60 #
cone-surface $-1 -72.337554546896655 5.7402526031444907 9.8741198443501617 0.62932039886446345 0 -0.77714595512881146 0.38857297756440573 0 0.31466019943223172 1 I I 0 1 0.5 forward I I I I #
face $-1 $134 $135 $47 $-1 $136 reversed single #
loop $-1 $-1 $137 $61 #
plane-surface $-1 -76.51966917935728 4.198043813665393 7.130889908547843 -0.62932039886446345 0 0.77714595512881146 0.77714595512881146 0 0.62932039886446345 forward_v I I I I #
face $-1 $138 $139 $48 $-1 $140 forward single #
loop $-1 $141 $142 $62 #
cone-surface $-1 -72.337554546896655 9.8528093750887464 9.8741198443501617 0.62932039886446345 0 -0.77714595512881146 0.38857297756440573 0 0.31466019943223172 1 I I 0 1 0.5 forward I I I I #
face $-1 $143 $144 $49 $-1 $145 forward single #
loop $-1 $146 $147 $63 #
cone-surface $-1 -72.337554546896655 12.937226954046942 9.8741198443501617 0.62932039886446345 0 -0.77714595512881146 0.38857297756440573 0 0.31466019943223172 1 I I 0 1 0.5 forward I I I I #
face $-1 $148 $149 $50 $-1 $150 reversed single #
loop $-1 $-1 $151 $64 #
plane-surface $-1 42.66251173129163 -5.5029460618050887 224.05772417863255 0 -1 0 -0.5877852598018023 0 -0.80901698891910034 forward_v I I I I #
face $-1 $152 $153 $51 $-1 $154 forward single #
loop $-1 $155 $156 $65 #
cone-surface $-1 74.090689242991729 -13.875938302045174 11.438755481391579 -0.5877852598018023 0 -0.80901698891910034 0.40450849445955017 0 -0.29389262990090115 1 I I 0 1 0.5 forward I I I I #
face $-1 $157 $158 $52 $-1 $159 forward single #
loop $-1 $160 $161 $66 #
cone-surface $-1 74.090689242991729 -8.8521429579011262 11.438755481391579 -0.5877852598018023 0 -0.80901698891910034 0.40450849445955017 0 -0.29389262990090115 1 I I 0 1 0.5 forward I I I I #
face $-1 $162 $163 $53 $-1 $164 reversed single #
loop $-1 $-1 $165 $67 #
plane-surface $-1 42.66251173129163 21.096008040038342 224.05772417863255 0 1 0 0.5877852598018023 0 0.80901698891910034 forward_v I I I I #
face $-1 $166 $167 $54 $-1 $168 forward single #
loop $-1 $169 $170 $68 #
cone-surface $-1 74.090689242991729 24.445204936134374 11.438755481391579 -0.5877852598018023 0 -0.80901698891910034 0.40450849445955017 0 -0.29389262990090115 1 I I 0 1 0.5 forward I I I I #
face $-1 $171 $172 $55 $-1 $173 forward single #
loop $-1 $174 $175 $69 #
cone-surface $-1 74.090689242991729 29.469000280278422 11.438755481391579 -0.5877852598018023 0 -0.80901698891910034 0.40450849445955017 0 -0.29389262990090115 1 I I 0 1 0.5 forward I I I I #
face $-1 $176 $177 $42 $-1 $178 reversed single #
loop $-1 $-1 $179 $70 #
plane-surface $-1 0 0 -13.394495735281271 0 0 1 1 0 0 forward_v I I I I #
coedge $-1 $180 $181 $182 $183 forward $71 $-1 #
face $-1 $184 $185 $43 $-1 $186 reversed single #
loop $-1 $-1 $187 $73 #
plane-surface $-1 0 -17.225135198141203 -11.287602505226241 0 -1 0 0 0 -1 forward_v I I I I #
coedge $-1 $188 $189 $190 $191 reversed $74 $-1 #
face $-1 $192 $193 $44 $-1 $194 reversed single #
loop $-1 $-1 $195 $76 #
plane-surface $-1 -76.51966917935728 4.198043813665393 7.130889908547843 -0.62932039886446345 0 0.77714595512881146 0.77714595512881146 0 0.62932039886446345 forward_v I I I I #
coedge $-1 $196 $197 $198 $199 reversed $77 $-1 #
face $-1 $-1 $200 $45 $-1 $201 forward single #
loop $-1 $202 $203 $79 #
cone-surface $-1 -71.86556424774831 2.6558350241862954 9.2912603780035532 0.62932039886446345 0 -0.77714595512881146 0.19428648878220287 0 0.15733009971611586 1 I I -0.70710678118654746 0.70710678118654746 0.25 forward I I I I #
loop $-1 $-1 $204 $59 #
coedge $-1 $128 $128 $205 $206 reversed $80 $-1 #
face $-1 $-1 $207 $46 $-1 $208 forward single #
loop $-1 $209 $210 $82 #
cone-surface $-1 -71.86556424774831 5.7402526031444907 9.2912603780035532 0.62932039886446345 0 -0.77714595512881146 0.19428648878220287 0 0.15733009971611586 1 I I -0.70710678118654746 0.70710678118654746 0.25 forward I I I I #
loop $-1 $-1 $211 $60 #
coedge $-1 $133 $133 $212 $213 reversed $83 $-1 #
face $-1 $214 $215 $47 $-1 $216 forward single #
loop $-1 $-1 $217 $85 #
plane-surface $-1 -172.83044663721711 14.99350534001907 126.06479268961242 0 -1 0 0.62932039886446345 0 -0.77714595512881146 forward_v I I I I #
coedge $-1 $218 $219 $220 $221 reversed $86 $-1 #
face $-1 $-1 $222 $48 $-1 $223 forward single #
loop $-1 $224 $225 $88 #
cone-surface $-1 -71.86556424774831 9.8528093750887464 9.2912603780035532 0.62932039886446345 0 -0.77714595512881146 0.19428648878220287 0 0.15733009971611586 1 I I -0.70710678118654746 0.70710678118654746 0.25 forward I I I I #
loop $-1 $-1 $226 $62 #
coedge $-1 $142 $142 $227 $228 reversed $89 $-1 #
face $-1 $-1 $229 $49 $-1 $230 forward single #
loop $-1 $231 $232 $91 #
cone-surface $-1 -71.86556424774831 12.937226954046942 9.2912603780035532 0.62932039886446345 0 -0.77714595512881146 0.19428648878220287 0 0.15733009971611586 1 I I -0.70710678118654746 0.70710678118654746 0.25 forward I I I I #
loop $-1 $-1 $233 $63 #
coedge $-1 $147 $147 $234 $235 reversed $92 $-1 #
face $-1 $236 $237 $50 $-1 $238 reversed single #
loop $-1 $-1 $239 $94 #
plane-surface $-1 -47.291755525781312 -11.364040629973147 100.24629947349395 0.5877852598018023 0 0.80901698891910034 0.80901698891910034 0 -0.5877852598018023 forward_v I I I I #
coedge $-1 $240 $241 $242 $243 reversed $95 $-1 #
face $-1 $-1 $244 $51 $-1 $245 forward single #
loop $-1 $246 $247 $97 #
cone-surface $-1 73.649850298140379 -13.875938302045174 10.831992739702255 -0.5877852598018023 0 -0.80901698891910034 0.20225424722977509 0 -0.14694631495045057 1 I I -0.70710678118654746 0.70710678118654746 0.25 forward I I I I #
loop $-1 $-1 $248 $65 #
coedge $-1 $156 $156 $249 $250 reversed $98 $-1 #
face $-1 $-1 $251 $52 $-1 $252 forward single #
loop $-1 $253 $254 $100 #
cone-surface $-1 73.649850298140379 -8.8521429579011262 10.831992739702255 -0.5877852598018023 0 -0.80901698891910034 0.20225424722977509 0 -0.14694631495045057 1 I I -0.70710678118654746 0.70710678118654746 0.25 forward I I I I #
loop $-1 $-1 $255 $66 #
coedge $-1 $161 $161 $256 $257 reversed $101 $-1 #
face $-1 $258 $259 $53 $-1 $260 reversed single #
loop $-1 $-1 $261 $103 #
plane-surface $-1 -47.291755525781312 26.957102608206398 100.24629947349395 0.5877852598018023 0 0.80901698891910034 0.80901698891910034 0 -0.5877852598018023 forward_v I I I I #
coedge $-1 $262 $263 $264 $265 reversed $104 $-1 #
face $-1 $-1 $266 $54 $-1 $267 forward single #
loop $-1 $268 $269 $106 #
cone-surface $-1 73.649850298140379 24.445204936134374 10.831992739702255 -0.5877852598018023 0 -0.80901698891910034 0.20225424722977509 0 -0.14694631495045057 1 I I -0.70710678118654746 0.70710678118654746 0.25 forward I I I I #
loop $-1 $-1 $270 $68 #
coedge $-1 $170 $170 $271 $272 reversed $107 $-1 #
face $-1 $-1 $273 $55 $-1 $274 forward single #
loop $-1 $275 $276 $109 #
cone-surface $-1 73.649850298140379 29.469000280278422 10.831992739702255 -0.5877852598018023 0 -0.80901698891910034 0.20225424722977509 0 -0.14694631495045057 1 I I -0.70710678118654746 0.70710678118654746 0.25 forward I I I I #
loop $-1 $-1 $277 $69 #
coedge $-1 $175 $175 $278 $279 reversed $110 $-1 #
face $-1 $280 $281 $42 $-1 $282 reversed single #
loop $-1 $-1 $283 $112 #
plane-surface $-1 0 -32.818197176374454 0 0 1 0 0 0 1 forward_v I I I I #
coedge $-1 $284 $285 $286 $287 forward $113 $-1 #
coedge $-1 $288 $115 $289 $290 forward $71 $-1 #
coedge $-1 $115 $288 $291 $292 forward $71 $-1 #
coedge $-1 $293 $294 $115 $183 reversed $295 $-1 #
edge $-1 $296 -32.818197176374454 $297 32.818197176374454 $182 $298 forward 7 unknown #
face $-1 $299 $300 $43 $-1 $301 reversed single #
loop $-1 $-1 $302 $116 #
plane-surface $-1 0 0 -13.394495735281271 0 0 1 1 0 0 forward_v I I I I #
coedge $-1 $303 $304 $305 $306 reversed $117 $-1 #
coedge $-1 $307 $119 $304 $308 forward $74 $-1 #
coedge $-1 $119 $307 $309 $310 reversed $74 $-1 #
coedge $-1 $311 $305 $119 $191 forward $300 $-1 #
edge $-1 $312 4.7143021045122886 $313 20.30736408274554 $190 $314 forward 7 unknown #
face $-1 $315 $316 $44 $-1 $317 forward single #
loop $-1 $-1 $318 $120 #
plane-surface $-1 -172.83044663721711 7.7965309891166186 126.06479268961242 0 -1 0 0.62932039886446345 0 -0.77714595512881146 forward_v I I I I #
coedge $-1 $319 $320 $321 $322 reversed $121 $-1 #
coedge $-1 $197 $123 $323 $324 reversed $77 $-1 #
coedge $-1 $123 $196 $319 $325 reversed $77 $-1 #
coedge $-1 $321 $326 $123 $199 forward $316 $-1 #
edge $-1 $327 9.8955541392512743 $328 17.630463005308073 $198 $329 forward 7 unknown #
loop $-1 $-1 $205 $124 #
plane-surface $-1 -76.51966917935728 4.198043813665393 7.130889908547843 -0.62932039886446345 0 0.77714595512881146 0.77714595512881146 0 0.62932039886446345 forward_v I I I I #
loop $-1 $-1 $330 $79 #
coedge $-1 $203 $203 $204 $331 reversed $125 $-1 #
coedge $-1 $204 $204 $203 $331 forward $127 $-1 #
coedge $-1 $205 $205 $128 $206 forward $200 $-1 #
edge $-1 $332 0 $332 6.2831853071796004 $205 $333 forward 7 unknown #
loop $-1 $-1 $212 $129 #
plane-surface $-1 -76.51966917935728 4.198043813665393 7.130889908547843 -0.62932039886446345 0 0.77714595512881146 0.77714595512881146 0 0.62932039886446345 forward_v I I I I #
loop $-1 $-1 $334 $82 #
coedge $-1 $210 $210 $211 $335 reversed $130 $-1 #
coedge $-1 $211 $211 $210 $335 forward $132 $-1 #
coedge $-1 $212 $212 $133 $213 forward $207 $-1 #
edge $-1 $336 0 $336 6.2831853071796004 $212 $337 forward 7 unknown #
face $-1 $338 $339 $47 $-1 $340 forward single #
loop $-1 $-1 $341 $134 #
plane-surface $-1 0 0 13.394495735281271 0 0 1 1 0 0 forward_v I I I I #
coedge $-1 $342 $343 $344 $345 reversed $135 $-1 #
coedge $-1 $346 $137 $347 $348 reversed $86 $-1 #
coedge $-1 $137 $346 $341 $349 reversed $86 $-1 #
coedge $-1 $350 $351 $137 $221 forward $339 $-1 #
edge $-1 $352 0 $353 9.9529680557556812 $220 $354 forward 7 unknown #
loop $-1 $-1 $227 $138 #
plane-surface $-1 -76.51966917935728 4.198043813665393 7.130889908547843 -0.62932039886446345 0 0.77714595512881146 0.77714595512881146 0 0.62932039886446345 forward_v I I I I #
loop $-1 $-1 $355 $88 #
coedge $-1 $225 $225 $226 $356 reversed $139 $-1 #
coedge $-1 $226 $226 $225 $356 forward $141 $-1 #
coedge $-1 $227 $227 $142 $228 forward $222 $-1 #
edge $-1 $357 0 $357 6.2831853071796004 $227 $358 forward 7 unknown #
loop $-1 $-1 $234 $143 #
plane-surface $-1 -76.51966917935728 4.198043813665393 7.130889908547843 -0.62932039886446345 0 0.77714595512881146 0.77714595512881146 0 0.62932039886446345 forward_v I I I I #
loop $-1 $-1 $359 $91 #
coedge $-1 $232 $232 $233 $360 reversed $144 $-1 #
coedge $-1 $233 $233 $232 $360 forward $146 $-1 #
coedge $-1 $234 $234 $147 $235 forward $229 $-1 #
edge $-1 $361 0 $361 6.2831853071796004 $234 $362 forward 7 unknown #
face $-1 $363 $364 $50 $-1 $365 reversed single #
loop $-1 $-1 $366 $148 #
plane-surface $-1 42.66251173129163 -17.225135198141203 224.05772417863255 0 1 0 0.5877852598018023 0 0.80901698891910034 forward_v I I I I #
coedge $-1 $367 $368 $369 $370 reversed $149 $-1 #
coedge $-1 $241 $151 $371 $372 reversed $95 $-1 #
coedge $-1 $151 $240 $367 $373 reversed $95 $-1 #
coedge $-1 $369 $374 $151 $243 forward $375 $-1 #
edge $-1 $376 -55.188413313711465 $377 -50.918238700782211 $242 $378 forward 7 unknown #
loop $-1 $-1 $249 $152 #
plane-surface $-1 -47.291755525781312 -11.364040629973147 100.24629947349395 0.5877852598018023 0 0.80901698891910034 0.80901698891910034 0 -0.5877852598018023 forward_v I I I I #
loop $-1 $-1 $379 $97 #
coedge $-1 $247 $247 $248 $380 reversed $153 $-1 #
coedge $-1 $248 $248 $247 $380 forward $155 $-1 #
coedge $-1 $249 $249 $156 $250 forward $244 $-1 #
edge $-1 $381 0 $381 6.2831853071796004 $249 $382 forward 7 unknown #
loop $-1 $-1 $256 $157 #
plane-surface $-1 -47.291755525781312 -11.364040629973147 100.24629947349395 0.5877852598018023 0 0.80901698891910034 0.80901698891910034 0 -0.5877852598018023 forward_v I I I I #
loop $-1 $-1 $383 $100 #
coedge $-1 $254 $254 $255 $384 reversed $158 $-1 #
coedge $-1 $255 $255 $254 $384 forward $160 $-1 #
coedge $-1 $256 $256 $161 $257 forward $251 $-1 #
edge $-1 $385 0 $385 6.2831853071796004 $256 $386 forward 7 unknown #
face $-1 $387 $388 $53 $-1 $389 reversed single #
loop $-1 $-1 $264 $162 #
plane-surface $-1 76.51966917935728 0 0 -1 0 0 0 0 1 forward_v I I I I #
coedge $-1 $390 $391 $392 $393 reversed $163 $-1 #
coedge $-1 $263 $165 $394 $395 reversed $104 $-1 #
coedge $-1 $165 $262 $390 $396 reversed $104 $-1 #
coedge $-1 $392 $397 $165 $265 forward $259 $-1 #
edge $-1 $398 98.634366354035009 $399 101.73682987289527 $264 $400 forward 7 unknown #
loop $-1 $-1 $271 $166 #
plane-surface $-1 -47.291755525781312 26.957102608206398 100.24629947349395 0.5877852598018023 0 0.80901698891910034 0.80901698891910034 0 -0.5877852598018023 forward_v I I I I #
loop $-1 $-1 $401 $106 #
coedge $-1 $269 $269 $270 $402 reversed $167 $-1 #
coedge $-1 $270 $270 $269 $402 forward $169 $-1 #
coedge $-1 $271 $271 $170 $272 forward $266 $-1 #
edge $-1 $403 0 $403 6.2831853071796004 $271 $404 forward 7 unknown #
loop $-1 $-1 $278 $171 #
plane-surface $-1 -47.291755525781312 26.957102608206398 100.24629947349395 0.5877852598018023 0 0.80901698891910034 0.80901698891910034 0 -0.5877852598018023 forward_v I I I I #
loop $-1 $-1 $405 $109 #
coedge $-1 $276 $276 $277 $406 reversed $172 $-1 #
coedge $-1 $277 $277 $276 $406 forward $174 $-1 #
coedge $-1 $278 $278 $175 $279 forward $273 $-1 #
edge $-1 $407 0 $407 6.2831853071796004 $278 $408 forward 7 unknown #
face $-1 $409 $410 $42 $-1 $411 reversed single #
loop $-1 $-1 $412 $176 #
plane-surface $-1 -76.51966917935728 0 0 1 0 0 0 0 -1 forward_v I I I I #
coedge $-1 $413 $291 $414 $415 forward $177 $-1 #
coedge $-1 $416 $179 $413 $417 forward $113 $-1 #
coedge $-1 $179 $416 $418 $419 forward $113 $-1 #
coedge $-1 $294 $293 $179 $287 reversed $295 $-1 #
edge $-1 $420 -32.818197176374454 $421 32.818197176374454 $286 $422 forward 7 unknown #
coedge $-1 $181 $180 $423 $424 forward $71 $-1 #
coedge $-1 $425 $426 $180 $290 reversed $410 $-1 #
edge $-1 $297 -76.51966917935728 $427 76.51966917935728 $289 $428 forward 7 unknown #
coedge $-1 $283 $429 $181 $292 reversed $177 $-1 #
edge $-1 $430 -76.51966917935728 $296 76.51966917935728 $291 $431 forward 7 unknown #
coedge $-1 $286 $182 $429 $432 forward $295 $-1 #
coedge $-1 $182 $286 $425 $433 reversed $295 $-1 #
loop $-1 $-1 $293 $409 #
vertex $-1 $183 $434 #
vertex $-1 $183 $435 #
straight-curve $-1 76.51966917935728 0 13.394495735281271 0 1 0 I I #
face $-1 $436 $437 $43 $-1 $438 reversed single #
loop $-1 $-1 $305 $184 #
plane-surface $-1 76.51966917935728 0 0 -1 0 0 0 0 1 forward_v I I I I #
coedge $-1 $439 $440 $303 $441 forward $185 $-1 #
coedge $-1 $442 $187 $302 $441 reversed $117 $-1 #
coedge $-1 $187 $442 $188 $308 reversed $117 $-1 #
coedge $-1 $190 $443 $187 $306 forward $300 $-1 #
edge $-1 $444 -7.750694482668151 $312 -3.53690802255809 $305 $445 forward 7 unknown #
coedge $-1 $189 $188 $446 $447 reversed $74 $-1 #
edge $-1 $312 -76.51966917935728 $448 76.51966917935728 $304 $449 forward 7 unknown #
coedge $-1 $450 $451 $189 $310 forward $437 $-1 #
edge $-1 $313 -76.51966917935728 $452 76.51966917935728 $309 $453 forward 7 unknown #
coedge $-1 $443 $190 $451 $454 forward $300 $-1 #
vertex $-1 $191 $455 #
vertex $-1 $454 $456 #
straight-curve $-1 76.51966917935728 -12.510833093628914 -9.1807092751712105 0 -1 0 I I #
face $-1 $-1 $457 $44 $-1 $458 reversed single #
loop $-1 $-1 $198 $192 #
plane-surface $-1 0 0 13.394495735281271 0 0 1 1 0 0 forward_v I I I I #
coedge $-1 $459 $460 $461 $462 reversed $193 $-1 #
coedge $-1 $463 $195 $197 $325 forward $121 $-1 #
coedge $-1 $195 $463 $459 $464 forward $121 $-1 #
coedge $-1 $461 $198 $195 $322 forward $316 $-1 #
edge $-1 $328 -1.499465268618529 $465 5.6975090822839221 $321 $466 forward 7 unknown #
coedge $-1 $467 $468 $196 $324 forward $457 $-1 #
edge $-1 $469 -55.901506436258366 $327 -49.637900609524934 $323 $470 forward 7 unknown #
edge $-1 $328 -9.9529680557556812 $469 0 $197 $471 forward 7 unknown #
coedge $-1 $198 $461 $467 $472 forward $316 $-1 #
vertex $-1 $324 $473 #
vertex $-1 $199 $474 #
straight-curve $-1 -86.415223318608554 0.59955663821416749 13.394495735281268 1 0 0 I I #
coedge $-1 $330 $330 $-1 $475 reversed $202 $-1 #
edge $-1 $476 0 $476 6.2831853071796004 $203 $477 forward 7 unknown #
vertex $-1 $206 $478 #
ellipse-curve $-1 -72.65221474632888 2.6558350241862954 10.262692821914559 -0.62932039886446345 0 0.77714595512881146 0.38857297756440573 0 0.31466019943223172 1 I I #
coedge $-1 $334 $334 $-1 $479 reversed $209 $-1 #
edge $-1 $480 0 $480 6.2831853071796004 $210 $481 forward 7 unknown #
vertex $-1 $213 $482 #
ellipse-curve $-1 -72.65221474632888 5.7402526031444907 10.262692821914559 -0.62932039886446345 0 0.77714595512881146 0.38857297756440573 0 0.31466019943223172 1 I I #
face $-1 $-1 $483 $47 $-1 $484 reversed single #
loop $-1 $-1 $350 $214 #
plane-surface $-1 -172.83044663721711 7.7965309891166186 126.06479268961242 0 -1 0 0.62932039886446345 0 -0.77714595512881146 forward_v I I I I #
coedge $-1 $344 $485 $219 $349 forward $215 $-1 #
coedge $-1 $343 $217 $346 $486 reversed $135 $-1 #
coedge $-1 $217 $342 $487 $488 reversed $135 $-1 #
coedge $-1 $489 $341 $217 $345 forward $215 $-1 #
edge $-1 $490 -17.630463005308073 $491 -9.8955541392512743 $344 $492 forward 7 unknown #
coedge $-1 $219 $218 $342 $486 forward $86 $-1 #
coedge $-1 $493 $487 $218 $348 forward $483 $-1 #
edge $-1 $494 -12.894483433186373 $352 -5.6975090822839221 $347 $495 forward 7 unknown #
edge $-1 $353 5.6975090822839221 $490 12.894483433186373 $341 $496 forward 7 unknown #
coedge $-1 $351 $220 $485 $497 reversed $339 $-1 #
coedge $-1 $220 $350 $493 $498 reversed $339 $-1 #
vertex $-1 $348 $499 #
vertex $-1 $349 $500 #
straight-curve $-1 -76.51966917935728 7.7965309891166186 7.130889908547843 0.77714595512881146 0 0.62932039886446345 I I #
coedge $-1 $355 $355 $-1 $501 reversed $224 $-1 #
edge $-1 $502 0 $502 6.2831853071796004 $225 $503 forward 7 unknown #
vertex $-1 $228 $504 #
ellipse-curve $-1 -72.65221474632888 9.8528093750887464 10.262692821914559 -0.62932039886446345 0 0.77714595512881146 0.38857297756440573 0 0.31466019943223172 1 I I #
coedge $-1 $359 $359 $-1 $505 reversed $231 $-1 #
edge $-1 $506 0 $506 6.2831853071796004 $232 $507 forward 7 unknown #
vertex $-1 $235 $508 #
ellipse-curve $-1 -72.65221474632888 12.937226954046942 10.262692821914559 -0.62932039886446345 0 0.77714595512881146 0.38857297756440573 0 0.31466019943223172 1 I I #
face $-1 $-1 $375 $50 $-1 $509 forward single #
loop $-1 $-1 $510 $236 #
plane-surface $-1 76.51966917935728 0 0 -1 0 0 0 0 1 forward_v I I I I #
coedge $-1 $511 $512 $513 $514 reversed $237 $-1 #
coedge $-1 $515 $239 $241 $373 forward $149 $-1 #
coedge $-1 $239 $515 $511 $516 forward $149 $-1 #
coedge $-1 $513 $242 $239 $370 forward $375 $-1 #
edge $-1 $377 -0.17907425318148462 $517 11.54311488315463 $369 $518 forward 7 unknown #
coedge $-1 $519 $520 $240 $372 forward $364 $-1 #
edge $-1 $521 -101.73682987289527 $376 -98.634366354035009 $371 $522 forward 7 unknown #
edge $-1 $377 147.7611122257448 $521 153.03933835871453 $241 $523 forward 7 unknown #
coedge $-1 $242 $513 $519 $524 forward $375 $-1 #
loop $-1 $-1 $513 $363 #
vertex $-1 $372 $525 #
vertex $-1 $243 $526 #
straight-curve $-1 21.331255865645815 -5.5029460618050887 13.394495735281268 -1 0 0 I I #
coedge $-1 $379 $379 $-1 $527 reversed $246 $-1 #
edge $-1 $528 0 $528 6.2831853071796004 $247 $529 forward 7 unknown #
vertex $-1 $250 $530 #
ellipse-curve $-1 74.384581872892639 -13.875938302045174 11.843263975851141 0.5877852598018023 0 0.80901698891910034 0.40450849445955017 0 -0.29389262990090115 1 I I #
coedge $-1 $383 $383 $-1 $531 reversed $253 $-1 #
edge $-1 $532 0 $532 6.2831853071796004 $254 $533 forward 7 unknown #
vertex $-1 $257 $534 #
ellipse-curve $-1 74.384581872892639 -8.8521429579011262 11.843263975851141 0.5877852598018023 0 0.80901698891910034 0.40450849445955017 0 -0.29389262990090115 1 I I #
face $-1 $-1 $535 $53 $-1 $536 forward single #
loop $-1 $-1 $537 $258 #
plane-surface $-1 0 32.818197176374454 0 0 -1 0 0 0 -1 forward_v I I I I #
coedge $-1 $538 $261 $263 $396 forward $163 $-1 #
coedge $-1 $261 $538 $537 $539 reversed $163 $-1 #
coedge $-1 $540 $264 $261 $393 forward $259 $-1 #
edge $-1 $399 7.6174567359351428 $541 19.339645872271255 $392 $542 forward 7 unknown #
coedge $-1 $543 $544 $262 $395 forward $535 $-1 #
edge $-1 $545 50.918238700782211 $398 55.188413313711465 $394 $546 forward 7 unknown #
edge $-1 $399 -153.03933835871453 $545 -147.7611122257448 $263 $547 forward 7 unknown #
coedge $-1 $264 $540 $543 $548 reversed $259 $-1 #
vertex $-1 $548 $549 #
vertex $-1 $265 $550 #
straight-curve $-1 76.51966917935728 21.096008040038342 112.02886208931628 0 0 -1 I I #
coedge $-1 $401 $401 $-1 $551 reversed $268 $-1 #
edge $-1 $552 0 $552 6.2831853071796004 $269 $553 forward 7 unknown #
vertex $-1 $272 $554 #
ellipse-curve $-1 74.384581872892639 24.445204936134374 11.843263975851141 0.5877852598018023 0 0.80901698891910034 0.40450849445955017 0 -0.29389262990090115 1 I I #
coedge $-1 $405 $405 $-1 $555 reversed $275 $-1 #
edge $-1 $556 0 $556 6.2831853071796004 $276 $557 forward 7 unknown #
vertex $-1 $279 $558 #
ellipse-curve $-1 74.384581872892639 29.469000280278422 11.843263975851141 0.5877852598018023 0 0.80901698891910034 0.40450849445955017 0 -0.29389262990090115 1 I I #
face $-1 $-1 $295 $42 $-1 $559 reversed single #
loop $-1 $-1 $425 $280 #
plane-surface $-1 0 32.818197176374454 0 0 -1 0 0 0 -1 forward_v I I I I #
coedge $-1 $560 $423 $426 $561 forward $281 $-1 #
coedge $-1 $429 $283 $284 $417 reversed $177 $-1 #
coedge $-1 $423 $560 $283 $415 reversed $281 $-1 #
edge $-1 $430 -13.394495735281271 $562 13.394495735281271 $414 $563 forward 7 unknown #
coedge $-1 $285 $284 $560 $564 forward $113 $-1 #
edge $-1 $421 -76.51966917935728 $562 76.51966917935728 $413 $565 forward 7 unknown #
coedge $-1 $426 $425 $285 $419 reversed $410 $-1 #
edge $-1 $566 -76.51966917935728 $420 76.51966917935728 $418 $567 forward 7 unknown #
vertex $-1 $287 $568 #
vertex $-1 $432 $569 #
straight-curve $-1 76.51966917935728 0 -13.394495735281271 0 -1 0 I I #
coedge $-1 $412 $414 $288 $424 reversed $281 $-1 #
edge $-1 $427 -32.818197176374454 $430 32.818197176374454 $423 $570 forward 7 unknown #
coedge $-1 $418 $289 $294 $433 forward $410 $-1 #
coedge $-1 $289 $418 $412 $561 reversed $410 $-1 #
vertex $-1 $290 $571 #
straight-curve $-1 0 32.818197176374454 13.394495735281271 -1 0 0 I I #
coedge $-1 $291 $413 $293 $432 reversed $177 $-1 #
vertex $-1 $424 $572 #
straight-curve $-1 0 -32.818197176374454 13.394495735281271 1 0 0 I I #
edge $-1 $296 -13.394495735281271 $421 13.394495735281271 $293 $573 forward 7 unknown #
edge $-1 $297 -13.394495735281271 $420 13.394495735281271 $294 $574 forward 7 unknown #
point $-1 76.51966917935728 -32.818197176374454 13.394495735281271 #
point $-1 76.51966917935728 32.818197176374454 13.394495735281271 #
face $-1 $-1 $575 $43 $-1 $576 reversed single #
loop $-1 $-1 $309 $299 #
plane-surface $-1 0 -32.818197176374454 0 0 1 0 0 0 1 forward_v I I I I #
coedge $-1 $577 $302 $443 $578 forward $185 $-1 #
coedge $-1 $302 $577 $579 $580 forward $185 $-1 #
edge $-1 $581 -76.51966917935728 $444 76.51966917935728 $302 $582 forward 7 unknown #
coedge $-1 $304 $303 $583 $584 reversed $117 $-1 #
coedge $-1 $305 $311 $439 $578 reversed $300 $-1 #
vertex $-1 $578 $585 #
straight-curve $-1 76.51966917935728 -17.225135198141203 -5.6438012526131205 0 0 1 I I #
coedge $-1 $583 $586 $307 $447 forward $575 $-1 #
edge $-1 $452 -20.30736408274554 $448 -4.7143021045122886 $446 $587 forward 7 unknown #
vertex $-1 $447 $588 #
straight-curve $-1 0 -17.225135198141203 -9.1807092751712105 -1 0 0 I I #
coedge $-1 $589 $309 $586 $590 forward $437 $-1 #
coedge $-1 $309 $589 $311 $454 reversed $437 $-1 #
vertex $-1 $590 $591 #
straight-curve $-1 0 -32.818197176374454 -9.1807092751712105 -1 0 0 I I #
edge $-1 $313 9.1807092751712105 $592 13.394495735281271 $311 $593 forward 7 unknown #
point $-1 76.51966917935728 -17.225135198141203 -9.1807092751712105 #
point $-1 76.51966917935728 -32.818197176374454 -9.1807092751712105 #
loop $-1 $-1 $323 $315 #
plane-surface $-1 -76.51966917935728 0 0 1 0 0 0 0 -1 forward_v I I I I #
coedge $-1 $460 $318 $320 $464 reversed $193 $-1 #
coedge $-1 $318 $459 $594 $595 reversed $193 $-1 #
coedge $-1 $326 $321 $318 $462 forward $316 $-1 #
edge $-1 $465 -17.630463005308073 $596 -9.8955541392512743 $461 $597 forward 7 unknown #
coedge $-1 $320 $319 $468 $598 reversed $121 $-1 #
edge $-1 $599 0 $465 9.9529680557556812 $459 $600 forward 7 unknown #
vertex $-1 $322 $601 #
straight-curve $-1 -68.784760313300495 2.0990219068326965 13.39449573528127 0 1 0 I I #
coedge $-1 $594 $323 $326 $472 reversed $457 $-1 #
coedge $-1 $323 $594 $463 $598 forward $457 $-1 #
vertex $-1 $324 $602 #
straight-curve $-1 -76.51966917935728 0.59955663821416749 63.032396344806209 0 0 1 I I #
straight-curve $-1 -76.51966917935728 0.59955663821416749 7.130889908547843 -0.77714595512881146 0 -0.62932039886446345 I I #
edge $-1 $596 -7.7965309891166186 $327 -0.59955663821416749 $467 $603 forward 7 unknown #
point $-1 -76.51966917935728 0.59955663821416749 13.394495735281271 #
point $-1 -68.784760313300481 0.59955663821416749 13.394495735281271 #
edge $-1 $604 1 $604 0 $330 $-1 forward 7 unknown #
vertex $-1 $331 $605 #
ellipse-curve $-1 -72.02289434746443 2.6558350241862954 9.4855468667857554 -0.62932039886446345 0 0.77714595512881146 0.38857297756440573 0 0.31466019943223172 1 I I #
point $-1 -72.263641768764487 2.6558350241862954 10.577353021346799 #
edge $-1 $606 1 $606 0 $334 $-1 forward 7 unknown #
vertex $-1 $335 $607 #
ellipse-curve $-1 -72.02289434746443 5.7402526031444907 9.4855468667857554 -0.62932039886446345 0 0.77714595512881146 0.38857297756440573 0 0.31466019943223172 1 I I #
point $-1 -72.263641768764487 5.7402526031444907 10.577353021346799 #
loop $-1 $-1 $347 $338 #
plane-surface $-1 -76.51966917935728 0 0 1 0 0 0 0 -1 forward_v I I I I #
coedge $-1 $341 $489 $350 $497 forward $215 $-1 #
edge $-1 $494 0 $490 9.9529680557556812 $342 $608 forward 7 unknown #
coedge $-1 $347 $609 $343 $488 forward $483 $-1 #
edge $-1 $491 49.637900609524934 $494 55.901506436258366 $487 $610 forward 7 unknown #
coedge $-1 $485 $344 $609 $611 forward $215 $-1 #
vertex $-1 $345 $612 #
vertex $-1 $611 $613 #
straight-curve $-1 -86.415223318608554 14.99350534001907 13.394495735281268 -1 0 0 I I #
coedge $-1 $609 $347 $351 $498 forward $483 $-1 #
vertex $-1 $488 $614 #
straight-curve $-1 -76.51966917935728 2.0990219068326965 7.1308899085478421 0 -1 0 I I #
straight-curve $-1 -68.784760313300495 2.0990219068326965 13.39449573528127 0 1 0 I I #
edge $-1 $615 9.8955541392512743 $353 17.630463005308073 $485 $616 forward 7 unknown #
edge $-1 $352 -55.901506436258366 $615 -49.637900609524934 $493 $617 forward 7 unknown #
point $-1 -76.51966917935728 7.7965309891166186 7.130889908547843 #
point $-1 -68.784760313300481 7.7965309891166186 13.394495735281271 #
edge $-1 $618 1 $618 0 $355 $-1 forward 7 unknown #
vertex $-1 $356 $619 #
ellipse-curve $-1 -72.02289434746443 9.8528093750887464 9.4855468667857554 -0.62932039886446345 0 0.77714595512881146 0.38857297756440573 0 0.31466019943223172 1 I I #
point $-1 -72.263641768764487 9.8528093750887464 10.577353021346799 #
edge $-1 $620 1 $620 0 $359 $-1 forward 7 unknown #
vertex $-1 $360 $621 #
ellipse-curve $-1 -72.02289434746443 12.937226954046942 9.4855468667857554 -0.62932039886446345 0 0.77714595512881146 0.38857297756440573 0 0.31466019943223172 1 I I #
point $-1 -72.263641768764487 12.937226954046942 10.577353021346799 #
plane-surface $-1 0 0 13.394495735281271 0 0 1 1 0 0 forward_v I I I I #
coedge $-1 $520 $519 $512 $622 forward $364 $-1 #
coedge $-1 $512 $366 $368 $516 reversed $237 $-1 #
coedge $-1 $366 $511 $510 $622 reversed $237 $-1 #
coedge $-1 $374 $369 $366 $514 forward $375 $-1 #
edge $-1 $517 50.918238700782211 $623 55.188413313711465 $513 $624 forward 7 unknown #
coedge $-1 $368 $367 $520 $625 reversed $149 $-1 #
edge $-1 $626 -153.03933835871453 $517 -147.7611122257448 $511 $627 forward 7 unknown #
vertex $-1 $370 $628 #
straight-curve $-1 72.249494566428027 -5.6820203149865733 13.394495735281275 0 -1 0 I I #
coedge $-1 $510 $371 $374 $524 reversed $364 $-1 #
coedge $-1 $371 $510 $515 $625 forward $364 $-1 #
vertex $-1 $372 $629 #
straight-curve $-1 76.51966917935728 -5.5029460618050887 112.02886208931628 0 0 1 I I #
straight-curve $-1 -47.291755525781312 -5.5029460618050887 100.24629947349395 0.80901698891910034 0 -0.5877852598018023 I I #
edge $-1 $623 -17.225135198141203 $376 -5.5029460618050887 $519 $630 forward 7 unknown #
point $-1 76.51966917935728 -5.5029460618050887 13.394495735281271 #
point $-1 72.249494566428027 -5.5029460618050887 13.394495735281268 #
edge $-1 $631 1 $631 0 $379 $-1 forward 7 unknown #
vertex $-1 $380 $632 #
ellipse-curve $-1 73.796796613090834 -13.875938302045174 11.034246986932029 0.5877852598018023 0 0.80901698891910034 0.40450849445955017 0 -0.29389262990090115 1 I I #
point $-1 74.789090367352188 -13.875938302045174 11.549371345950229 #
edge $-1 $633 1 $633 0 $383 $-1 forward 7 unknown #
vertex $-1 $384 $634 #
ellipse-curve $-1 73.796796613090834 -8.8521429579011262 11.034246986932029 0.5877852598018023 0 0.80901698891910034 0.40450849445955017 0 -0.29389262990090115 1 I I #
point $-1 74.789090367352188 -8.8521429579011262 11.549371345950229 #
loop $-1 $-1 $394 $387 #
plane-surface $-1 0 0 13.394495735281271 0 0 1 1 0 0 forward_v I I I I #
coedge $-1 $635 $636 $391 $539 forward $388 $-1 #
coedge $-1 $391 $390 $544 $637 reversed $163 $-1 #
edge $-1 $541 -104.44777294053316 $638 -99.169546807563449 $537 $639 forward 7 unknown #
coedge $-1 $397 $392 $636 $640 reversed $259 $-1 #
vertex $-1 $539 $641 #
straight-curve $-1 76.519669179357294 13.478551304103199 10.292032216421006 0 1 0 I I #
coedge $-1 $642 $394 $397 $548 forward $535 $-1 #
coedge $-1 $394 $642 $538 $637 forward $535 $-1 #
vertex $-1 $395 $643 #
straight-curve $-1 21.331255865645815 21.096008040038342 13.394495735281268 1 0 0 I I #
straight-curve $-1 -47.291755525781312 21.096008040038342 100.24629947349395 -0.80901698891910034 0 0.5877852598018023 I I #
edge $-1 $398 21.096008040038342 $644 32.818197176374454 $397 $645 forward 7 unknown #
point $-1 76.51966917935728 21.096008040038342 13.394495735281271 #
point $-1 76.519669179357294 21.096008040038342 10.292032216421006 #
edge $-1 $646 1 $646 0 $401 $-1 forward 7 unknown #
vertex $-1 $402 $647 #
ellipse-curve $-1 73.796796613090834 24.445204936134374 11.034246986932029 0.5877852598018023 0 0.80901698891910034 0.40450849445955017 0 -0.29389262990090115 1 I I #
point $-1 74.789090367352188 24.445204936134374 11.549371345950229 #
edge $-1 $648 1 $648 0 $405 $-1 forward 7 unknown #
vertex $-1 $406 $649 #
ellipse-curve $-1 73.796796613090834 29.469000280278422 11.034246986932029 0.5877852598018023 0 0.80901698891910034 0.40450849445955017 0 -0.29389262990090115 1 I I #
point $-1 74.789090367352188 29.469000280278422 11.549371345950229 #
plane-surface $-1 76.51966917935728 0 0 -1 0 0 0 0 1 forward_v I I I I #
coedge $-1 $414 $412 $416 $564 reversed $281 $-1 #
edge $-1 $427 -13.394495735281271 $566 13.394495735281271 $426 $650 forward 7 unknown #
vertex $-1 $564 $651 #
straight-curve $-1 -76.51966917935728 -32.818197176374454 0 0 0 -1 I I #
edge $-1 $562 -32.818197176374454 $566 32.818197176374454 $560 $652 forward 7 unknown #
straight-curve $-1 0 -32.818197176374454 -13.394495735281271 -1 0 0 I I #
vertex $-1 $419 $653 #
straight-curve $-1 0 32.818197176374454 -13.394495735281271 1 0 0 I I #
point $-1 76.51966917935728 32.818197176374454 -13.394495735281271 #
point $-1 76.51966917935728 -32.818197176374454 -13.394495735281271 #
straight-curve $-1 -76.51966917935728 0 13.394495735281271 0 -1 0 I I #
point $-1 -76.51966917935728 32.818197176374454 13.394495735281271 #
point $-1 -76.51966917935728 -32.818197176374454 13.394495735281271 #
straight-curve $-1 76.51966917935728 -32.818197176374454 0 0 0 -1 I I #
straight-curve $-1 76.51966917935728 32.818197176374454 0 0 0 -1 I I #
loop $-1 $-1 $583 $436 #
plane-surface $-1 -76.51966917935728 0 0 1 0 0 0 0 -1 forward_v I I I I #
coedge $-1 $440 $439 $589 $654 forward $185 $-1 #
edge $-1 $444 17.225135198141203 $592 32.818197176374454 $443 $655 forward 7 unknown #
coedge $-1 $586 $583 $440 $580 reversed $575 $-1 #
edge $-1 $656 -32.818197176374454 $581 -17.225135198141203 $579 $657 forward 7 unknown #
vertex $-1 $584 $658 #
straight-curve $-1 0 -17.225135198141203 -13.394495735281271 1 0 0 I I #
coedge $-1 $579 $446 $442 $584 forward $575 $-1 #
edge $-1 $448 3.53690802255809 $581 7.750694482668151 $583 $659 forward 7 unknown #
point $-1 76.51966917935728 -17.225135198141203 -13.394495735281271 #
coedge $-1 $446 $579 $450 $590 reversed $575 $-1 #
straight-curve $-1 -76.51966917935728 -12.510833093628914 -9.1807092751712105 0 1 0 I I #
point $-1 -76.51966917935728 -17.225135198141203 -9.1807092751712105 #
coedge $-1 $451 $450 $577 $654 reversed $437 $-1 #
edge $-1 $452 9.1807092751712105 $656 13.394495735281271 $586 $660 forward 7 unknown #
point $-1 -76.51966917935728 -32.818197176374454 -9.1807092751712105 #
vertex $-1 $454 $661 #
straight-curve $-1 76.51966917935728 -32.818197176374454 0 0 0 -1 I I #
coedge $-1 $468 $467 $460 $595 forward $457 $-1 #
edge $-1 $596 49.637900609524934 $599 55.901506436258366 $594 $662 forward 7 unknown #
vertex $-1 $472 $663 #
straight-curve $-1 -86.415223318608554 7.7965309891166186 13.394495735281268 -1 0 0 I I #
edge $-1 $599 -5.6975090822839221 $469 1.499465268618529 $468 $664 forward 7 unknown #
vertex $-1 $598 $665 #
straight-curve $-1 -76.51966917935728 7.7965309891166186 7.130889908547843 0.77714595512881146 0 0.62932039886446345 I I #
point $-1 -68.784760313300481 7.7965309891166186 13.394495735281271 #
point $-1 -76.51966917935728 0.59955663821416749 7.130889908547843 #
straight-curve $-1 -76.51966917935728 0 13.394495735281271 0 -1 0 I I #
vertex $-1 $475 $666 #
point $-1 -71.634321369900022 2.6558350241862954 9.8002070662179879 #
vertex $-1 $479 $667 #
point $-1 -71.634321369900022 5.7402526031444907 9.8002070662179879 #
straight-curve $-1 -76.51966917935728 14.99350534001907 7.130889908547843 0.77714595512881146 0 0.62932039886446345 I I #
coedge $-1 $487 $493 $489 $611 reversed $483 $-1 #
straight-curve $-1 -76.51966917935728 14.99350534001907 63.032396344806209 0 0 -1 I I #
edge $-1 $491 -14.99350534001907 $615 -7.7965309891166186 $609 $668 forward 7 unknown #
point $-1 -68.784760313300481 14.99350534001907 13.394495735281271 #
point $-1 -76.51966917935728 14.99350534001907 13.394495735281271 #
point $-1 -76.51966917935728 14.99350534001907 7.130889908547843 #
vertex $-1 $498 $669 #
straight-curve $-1 -86.415223318608554 7.7965309891166186 13.394495735281268 1 0 0 I I #
straight-curve $-1 -76.51966917935728 7.7965309891166186 63.032396344806209 0 0 1 I I #
vertex $-1 $501 $670 #
point $-1 -71.634321369900022 9.8528093750887464 9.8002070662179879 #
vertex $-1 $505 $671 #
point $-1 -71.634321369900022 12.937226954046942 9.8002070662179879 #
edge $-1 $623 98.634366354035009 $626 101.73682987289527 $510 $672 forward 7 unknown #
vertex $-1 $524 $673 #
straight-curve $-1 21.331255865645815 -17.225135198141203 13.394495735281268 1 0 0 I I #
edge $-1 $626 -11.54311488315463 $521 0.17907425318148462 $520 $674 forward 7 unknown #
vertex $-1 $625 $675 #
straight-curve $-1 -47.291755525781312 -17.225135198141203 100.24629947349395 -0.80901698891910034 0 0.5877852598018023 I I #
point $-1 72.249494566428027 -17.225135198141203 13.394495735281268 #
point $-1 76.519669179357294 -5.5029460618050887 10.292032216421006 #
straight-curve $-1 76.51966917935728 0 13.394495735281271 0 1 0 I I #
vertex $-1 $527 $676 #
point $-1 74.201305107550382 -13.875938302045174 10.740354357031128 #
vertex $-1 $531 $677 #
point $-1 74.201305107550382 -8.8521429579011262 10.740354357031128 #
coedge $-1 $636 $537 $642 $678 reversed $388 $-1 #
coedge $-1 $537 $635 $540 $640 forward $388 $-1 #
edge $-1 $638 -19.339645872271255 $545 -7.6174567359351428 $544 $679 forward 7 unknown #
vertex $-1 $539 $680 #
straight-curve $-1 -7.9803535842987348 32.818197176374454 71.684893569991942 -0.80901698891910034 0 0.5877852598018023 I I #
edge $-1 $644 -13.394495735281271 $541 -10.292032216421001 $540 $681 forward 7 unknown #
point $-1 76.51966917935728 32.818197176374454 10.292032216421001 #
coedge $-1 $544 $543 $635 $678 forward $535 $-1 #
point $-1 72.249494566428027 21.096008040038342 13.394495735281268 #
vertex $-1 $548 $682 #
straight-curve $-1 76.51966917935728 0 13.394495735281271 0 1 0 I I #
vertex $-1 $551 $683 #
point $-1 74.201305107550382 24.445204936134374 10.740354357031128 #
vertex $-1 $555 $684 #
point $-1 74.201305107550382 29.469000280278422 10.740354357031128 #
straight-curve $-1 -76.51966917935728 32.818197176374454 0 0 0 -1 I I #
point $-1 -76.51966917935728 -32.818197176374454 -13.394495735281271 #
straight-curve $-1 -76.51966917935728 0 -13.394495735281271 0 1 0 I I #
point $-1 -76.51966917935728 32.818197176374454 -13.394495735281271 #
edge $-1 $592 -76.51966917935728 $656 76.51966917935728 $589 $685 forward 7 unknown #
straight-curve $-1 76.51966917935728 0 -13.394495735281271 0 -1 0 I I #
vertex $-1 $580 $686 #
straight-curve $-1 -76.51966917935728 0 -13.394495735281271 0 1 0 I I #
point $-1 -76.51966917935728 -17.225135198141203 -13.394495735281271 #
straight-curve $-1 -76.51966917935728 -17.225135198141203 -5.6438012526131205 0 0 -1 I I #
straight-curve $-1 -76.51966917935728 -32.818197176374454 0 0 0 -1 I I #
point $-1 76.51966917935728 -32.818197176374454 -13.394495735281271 #
straight-curve $-1 -76.51966917935728 7.7965309891166186 63.032396344806209 0 0 -1 I I #
point $-1 -76.51966917935728 7.7965309891166186 13.394495735281271 #
straight-curve $-1 -76.51966917935728 2.0990219068326965 7.1308899085478421 0 -1 0 I I #
point $-1 -76.51966917935728 7.7965309891166186 7.130889908547843 #
point $-1 -71.70823414803219 2.6558350241862954 9.096973889221351 #
point $-1 -71.70823414803219 5.7402526031444907 9.096973889221351 #
straight-curve $-1 -76.51966917935728 0 13.394495735281271 0 -1 0 I I #
point $-1 -76.51966917935728 7.7965309891166186 13.394495735281271 #
point $-1 -71.70823414803219 9.8528093750887464 9.096973889221351 #
point $-1 -71.70823414803219 12.937226954046942 9.096973889221351 #
straight-curve $-1 76.51966917935728 -17.225135198141203 112.02886208931628 0 0 -1 I I #
point $-1 76.51966917935728 -17.225135198141203 13.394495735281271 #
straight-curve $-1 76.519669179357294 -5.6820203149865733 10.292032216421006 0 1 0 I I #
point $-1 76.519669179357294 -17.225135198141203 10.292032216421006 #
point $-1 73.502903983189924 -13.875938302045174 10.62973849247248 #
point $-1 73.502903983189924 -8.8521429579011262 10.62973849247248 #
edge $-1 $644 -76.51966917935728 $638 -72.249494566428027 $635 $687 forward 7 unknown #
straight-curve $-1 72.249494566428027 13.478551304103199 13.394495735281275 0 -1 0 I I #
point $-1 72.249494566428027 32.818197176374454 13.394495735281268 #
straight-curve $-1 76.51966917935728 32.818197176374454 0 0 0 -1 I I #
point $-1 76.51966917935728 32.818197176374454 13.394495735281271 #
point $-1 73.502903983189924 24.445204936134374 10.62973849247248 #
point $-1 73.502903983189924 29.469000280278422 10.62973849247248 #
straight-curve $-1 0 -32.818197176374454 -13.394495735281271 -1 0 0 I I #
point $-1 -76.51966917935728 -32.818197176374454 -13.394495735281271 #
straight-curve $-1 0 32.818197176374454 13.394495735281271 -1 0 0 I I #
End-of-ACIS-data 