500 0 11 0           
7 Unknown 11 ACIS 5.0 NT 24 Thu Mar 25 16:25:18 1999 
-1 9.9999999999999995e-007 1e-010 
body $-1 $11 $-1 $12 #
body $-1 $13 $-1 $14 #
body $-1 $15 $-1 $16 #
body $-1 $17 $-1 $18 #
body $-1 $19 $-1 $20 #
body $-1 $21 $-1 $22 #
body $-1 $23 $-1 $24 #
body $-1 $25 $-1 $26 #
body $-1 $27 $-1 $28 #
body $-1 $29 $-1 $30 #
body $-1 $31 $-1 $32 #
lump $-1 $-1 $33 $0 #
transform $-1 1 0 0 0 1 0 0 0 1 56.844996490371415 35.646654694821152 13.511721568670239 1 rotate no_reflect no_shear #
lump $-1 $-1 $34 $1 #
transform $-1 1 0 0 0 1 0 0 0 1 56.844996490371415 35.646654694821152 13.511721568670239 1 rotate no_reflect no_shear #
lump $-1 $-1 $35 $2 #
transform $-1 1 0 0 0 1 0 0 0 1 56.844996490371415 35.646654694821152 13.511721568670239 1 rotate no_reflect no_shear #
lump $-1 $-1 $36 $3 #
transform $-1 1 0 0 0 1 0 0 0 1 56.844996490371415 35.646654694821152 13.511721568670239 1 rotate no_reflect no_shear #
lump $-1 $-1 $37 $4 #
transform $-1 1 0 0 0 1 0 0 0 1 56.844996490371415 35.646654694821152 13.511721568670239 1 rotate no_reflect no_shear #
lump $-1 $-1 $38 $5 #
transform $-1 1 0 0 0 1 0 0 0 1 56.844996490371415 35.646654694821152 13.511721568670239 1 rotate no_reflect no_shear #
lump $-1 $-1 $39 $6 #
transform $-1 1 0 0 0 1 0 0 0 1 56.844996490371415 35.646654694821152 13.511721568670239 1 rotate no_reflect no_shear #
lump $-1 $-1 $40 $7 #
transform $-1 1 0 0 0 1 0 0 0 1 56.844996490371415 35.646654694821152 13.511721568670239 1 rotate no_reflect no_shear #
lump $-1 $-1 $41 $8 #
transform $-1 1 0 0 0 1 0 0 0 1 56.844996490371415 35.646654694821152 13.511721568670239 1 rotate no_reflect no_shear #
lump $-1 $-1 $42 $9 #
transform $-1 1 0 0 0 1 0 0 0 1 56.844996490371415 35.646654694821152 13.511721568670239 1 rotate no_reflect no_shear #
lump $-1 $-1 $43 $10 #
transform $-1 1 0 0 0 1 0 0 0 1 56.844996490371415 35.646654694821152 13.511721568670239 1 rotate no_reflect no_shear #
shell $-1 $-1 $-1 $44 $-1 $11 #
shell $-1 $-1 $-1 $45 $-1 $13 #
shell $-1 $-1 $-1 $46 $-1 $15 #
shell $-1 $-1 $-1 $47 $-1 $17 #
shell $-1 $-1 $-1 $48 $-1 $19 #
shell $-1 $-1 $-1 $49 $-1 $21 #
shell $-1 $-1 $-1 $50 $-1 $23 #
shell $-1 $-1 $-1 $51 $-1 $25 #
shell $-1 $-1 $-1 $52 $-1 $27 #
shell $-1 $-1 $-1 $53 $-1 $29 #
shell $-1 $-1 $-1 $54 $-1 $31 #
face $-1 $55 $56 $33 $-1 $57 forward single #
face $-1 $58 $59 $34 $-1 $60 reversed single #
face $-1 $61 $62 $35 $-1 $63 reversed single #
face $-1 $64 $65 $36 $-1 $66 reversed single #
face $-1 $67 $68 $37 $-1 $69 forward single #
face $-1 $70 $71 $38 $-1 $72 forward single #
face $-1 $73 $74 $39 $-1 $75 forward single #
face $-1 $76 $77 $40 $-1 $78 reversed single #
face $-1 $79 $80 $41 $-1 $81 forward single #
face $-1 $82 $83 $42 $-1 $84 forward single #
face $-1 $85 $86 $43 $-1 $87 forward single #
face $-1 $88 $89 $33 $-1 $90 reversed single #
loop $-1 $-1 $91 $44 #
plane-surface $-1 0 0 13.511721568670239 0 0 1 1 0 0 forward_v I I I I #
face $-1 $92 $93 $34 $-1 $94 reversed single #
loop $-1 $-1 $95 $45 #
plane-surface $-1 -33.600975725097044 -28.222374607187977 0 1 0 0 0 0 -1 forward_v I I I I #
face $-1 $96 $97 $35 $-1 $98 reversed single #
loop $-1 $-1 $99 $46 #
plane-surface $-1 -31.71126453906399 20.798094519554798 0 0 1 0 0 0 1 forward_v I I I I #
face $-1 $100 $101 $36 $-1 $102 reversed single #
loop $-1 $-1 $103 $47 #
plane-surface $-1 -153.25957949067831 -12.175901244259066 69.512883905439153 0 1 0 -0.84804810408105047 0 0.52991925155115449 forward_v I I I I #
face $-1 $104 $105 $37 $-1 $106 forward single #
loop $-1 $107 $108 $48 #
cone-surface $-1 -55.042232135361786 -10.206393535784315 11.09137654749529 0.84804810408105047 0 -0.52991925155115449 0.26495962577557725 0 0.42402405204052523 1 I I 0 1 0.5 forward I I I I #
face $-1 $109 $110 $38 $-1 $111 forward single #
loop $-1 $112 $113 $49 #
cone-surface $-1 -55.042232135361786 -7.252131973072192 11.09137654749529 0.84804810408105047 0 -0.52991925155115449 0.26495962577557725 0 0.42402405204052523 1 I I 0 1 0.5 forward I I I I #
face $-1 $114 $115 $39 $-1 $116 forward single #
loop $-1 $117 $118 $50 #
cone-surface $-1 -55.042232135361786 -4.2978704103600691 11.09137654749529 0.84804810408105047 0 -0.52991925155115449 0.26495962577557725 0 0.42402405204052523 1 I I 0 1 0.5 forward I I I I #
face $-1 $119 $120 $40 $-1 $121 reversed single #
loop $-1 $-1 $122 $51 #
plane-surface $-1 -153.25957949067831 2.3283627018853217 69.512883905439153 0 1 0 -0.84804810408105047 0 0.52991925155115449 forward_v I I I I #
face $-1 $123 $124 $41 $-1 $125 forward single #
loop $-1 $126 $127 $52 #
cone-surface $-1 -55.042232135361786 4.2978704103600691 11.09137654749529 0.84804810408105047 0 -0.52991925155115449 0.26495962577557725 0 0.42402405204052523 1 I I 0 1 0.5 forward I I I I #
face $-1 $128 $129 $42 $-1 $130 forward single #
loop $-1 $131 $132 $53 #
cone-surface $-1 -55.042232135361786 7.2521319730721956 11.09137654749529 0.84804810408105047 0 -0.52991925155115449 0.26495962577557725 0 0.42402405204052523 1 I I 0 1 0.5 forward I I I I #
face $-1 $133 $134 $43 $-1 $135 forward single #
loop $-1 $136 $137 $54 #
cone-surface $-1 -55.042232135361786 10.206393535784315 11.09137654749529 0.84804810408105047 0 -0.52991925155115449 0.26495962577557725 0 0.42402405204052523 1 I I 0 1 0.5 forward I I I I #
face $-1 $138 $139 $33 $-1 $140 reversed single #
loop $-1 $-1 $141 $55 #
plane-surface $-1 0 0 -13.511721568670239 0 0 1 1 0 0 forward_v I I I I #
coedge $-1 $142 $143 $144 $145 forward $56 $-1 #
face $-1 $146 $147 $34 $-1 $148 reversed single #
loop $-1 $-1 $149 $58 #
plane-surface $-1 -31.71126453906399 -20.798094519554802 0 0 -1 0 0 0 -1 forward_v I I I I #
coedge $-1 $150 $151 $152 $153 forward $59 $-1 #
face $-1 $154 $155 $35 $-1 $156 reversed single #
loop $-1 $-1 $157 $61 #
plane-surface $-1 -33.600975725097044 28.222374607187973 0 1 0 0 0 0 -1 forward_v I I I I #
coedge $-1 $158 $159 $160 $161 forward $62 $-1 #
face $-1 $162 $163 $36 $-1 $164 reversed single #
loop $-1 $-1 $165 $64 #
plane-surface $-1 -56.844996490371415 -7.252131973072192 9.2663679162279067 -0.84804810408105047 0 0.52991925155115449 0.52991925155115449 0 0.84804810408105047 forward_v I I I I #
coedge $-1 $166 $167 $168 $169 reversed $65 $-1 #
face $-1 $-1 $170 $37 $-1 $171 forward single #
loop $-1 $172 $173 $67 #
cone-surface $-1 -54.353851402907736 -10.206393535784315 10.66122853965372 0.84804810408105047 0 -0.52991925155115449 0.13247981288778862 0 0.21201202602026262 1 I I -0.70710678118654746 0.70710678118654746 0.25 forward I I I I #
loop $-1 $-1 $174 $48 #
coedge $-1 $108 $108 $175 $176 reversed $68 $-1 #
face $-1 $-1 $177 $38 $-1 $178 forward single #
loop $-1 $179 $180 $70 #
cone-surface $-1 -54.353851402907736 -7.252131973072192 10.66122853965372 0.84804810408105047 0 -0.52991925155115449 0.13247981288778862 0 0.21201202602026262 1 I I -0.70710678118654746 0.70710678118654746 0.25 forward I I I I #
loop $-1 $-1 $181 $49 #
coedge $-1 $113 $113 $182 $183 reversed $71 $-1 #
face $-1 $-1 $184 $39 $-1 $185 forward single #
loop $-1 $186 $187 $73 #
cone-surface $-1 -54.353851402907736 -4.2978704103600691 10.66122853965372 0.84804810408105047 0 -0.52991925155115449 0.13247981288778862 0 0.21201202602026262 1 I I -0.70710678118654746 0.70710678118654746 0.25 forward I I I I #
loop $-1 $-1 $188 $50 #
coedge $-1 $118 $118 $189 $190 reversed $74 $-1 #
face $-1 $191 $192 $40 $-1 $193 reversed single #
loop $-1 $-1 $194 $76 #
plane-surface $-1 -56.844996490371415 7.2521319730721956 9.2663679162279067 -0.84804810408105047 0 0.52991925155115449 0.52991925155115449 0 0.84804810408105047 forward_v I I I I #
coedge $-1 $195 $196 $197 $198 reversed $77 $-1 #
face $-1 $-1 $199 $41 $-1 $200 forward single #
loop $-1 $201 $202 $79 #
cone-surface $-1 -54.353851402907736 4.2978704103600691 10.66122853965372 0.84804810408105047 0 -0.52991925155115449 0.13247981288778862 0 0.21201202602026262 1 I I -0.70710678118654746 0.70710678118654746 0.25 forward I I I I #
loop $-1 $-1 $203 $52 #
coedge $-1 $127 $127 $204 $205 reversed $80 $-1 #
face $-1 $-1 $206 $42 $-1 $207 forward single #
loop $-1 $208 $209 $82 #
cone-surface $-1 -54.353851402907736 7.2521319730721956 10.66122853965372 0.84804810408105047 0 -0.52991925155115449 0.13247981288778862 0 0.21201202602026262 1 I I -0.70710678118654746 0.70710678118654746 0.25 forward I I I I #
loop $-1 $-1 $210 $53 #
coedge $-1 $132 $132 $211 $212 reversed $83 $-1 #
face $-1 $-1 $213 $43 $-1 $214 forward single #
loop $-1 $215 $216 $85 #
cone-surface $-1 -54.353851402907736 10.206393535784315 10.66122853965372 0.84804810408105047 0 -0.52991925155115449 0.13247981288778862 0 0.21201202602026262 1 I I -0.70710678118654746 0.70710678118654746 0.25 forward I I I I #
loop $-1 $-1 $217 $54 #
coedge $-1 $137 $137 $218 $219 reversed $86 $-1 #
face $-1 $220 $221 $33 $-1 $222 reversed single #
loop $-1 $-1 $223 $88 #
plane-surface $-1 0 -35.646654694821152 0 0 1 0 0 0 1 forward_v I I I I #
coedge $-1 $224 $225 $226 $227 forward $89 $-1 #
coedge $-1 $228 $91 $229 $230 forward $56 $-1 #
coedge $-1 $91 $228 $231 $232 forward $56 $-1 #
coedge $-1 $233 $234 $91 $145 reversed $235 $-1 #
edge $-1 $236 -35.646654694821152 $237 35.646654694821152 $144 $238 forward 7 unknown #
face $-1 $239 $240 $34 $-1 $241 forward single #
loop $-1 $-1 $242 $92 #
plane-surface $-1 -29.821553353030936 -28.222374607187977 0 -1 0 0 0 0 1 forward_v I I I I #
coedge $-1 $243 $244 $245 $246 forward $93 $-1 #
coedge $-1 $247 $95 $248 $249 reversed $59 $-1 #
coedge $-1 $95 $247 $250 $251 reversed $59 $-1 #
coedge $-1 $244 $243 $95 $153 reversed $93 $-1 #
edge $-1 $252 -13.511721568670239 $253 13.511721568670239 $152 $254 forward 7 unknown #
face $-1 $255 $256 $35 $-1 $257 reversed single #
loop $-1 $-1 $258 $96 #
plane-surface $-1 -29.821553353030936 28.222374607187973 0 -1 0 0 0 0 1 forward_v I I I I #
coedge $-1 $259 $260 $261 $262 reversed $97 $-1 #
coedge $-1 $263 $99 $264 $265 reversed $62 $-1 #
coedge $-1 $99 $263 $266 $267 reversed $62 $-1 #
coedge $-1 $260 $259 $99 $161 reversed $97 $-1 #
edge $-1 $268 -13.511721568670239 $269 13.511721568670239 $160 $270 forward 7 unknown #
face $-1 $271 $272 $36 $-1 $273 reversed single #
loop $-1 $-1 $274 $100 #
plane-surface $-1 -153.25957949067831 -2.3283627018853181 69.512883905439153 0 -1 0 0.84804810408105047 0 -0.52991925155115449 forward_v I I I I #
coedge $-1 $275 $276 $277 $278 reversed $101 $-1 #
coedge $-1 $167 $103 $279 $280 reversed $65 $-1 #
coedge $-1 $103 $166 $275 $281 reversed $65 $-1 #
coedge $-1 $277 $282 $103 $169 forward $283 $-1 #
edge $-1 $284 19.784793254967738 $285 22.437584552119425 $168 $286 forward 7 unknown #
loop $-1 $-1 $175 $104 #
plane-surface $-1 -56.844996490371415 -7.252131973072192 9.2663679162279067 -0.84804810408105047 0 0.52991925155115449 0.52991925155115449 0 0.84804810408105047 forward_v I I I I #
loop $-1 $-1 $287 $67 #
coedge $-1 $173 $173 $174 $288 reversed $105 $-1 #
coedge $-1 $174 $174 $173 $288 forward $107 $-1 #
coedge $-1 $175 $175 $108 $176 forward $170 $-1 #
edge $-1 $289 0 $289 6.2831853071796004 $175 $290 forward 7 unknown #
loop $-1 $-1 $182 $109 #
plane-surface $-1 -56.844996490371415 -7.252131973072192 9.2663679162279067 -0.84804810408105047 0 0.52991925155115449 0.52991925155115449 0 0.84804810408105047 forward_v I I I I #
loop $-1 $-1 $291 $70 #
coedge $-1 $180 $180 $181 $292 reversed $110 $-1 #
coedge $-1 $181 $181 $180 $292 forward $112 $-1 #
coedge $-1 $182 $182 $113 $183 forward $177 $-1 #
edge $-1 $293 0 $293 6.2831853071796004 $182 $294 forward 7 unknown #
loop $-1 $-1 $189 $114 #
plane-surface $-1 -56.844996490371415 -7.252131973072192 9.2663679162279067 -0.84804810408105047 0 0.52991925155115449 0.52991925155115449 0 0.84804810408105047 forward_v I I I I #
loop $-1 $-1 $295 $73 #
coedge $-1 $187 $187 $188 $296 reversed $115 $-1 #
coedge $-1 $188 $188 $187 $296 forward $117 $-1 #
coedge $-1 $189 $189 $118 $190 forward $184 $-1 #
edge $-1 $297 0 $297 6.2831853071796004 $189 $298 forward 7 unknown #
face $-1 $299 $300 $40 $-1 $301 forward single #
loop $-1 $-1 $302 $119 #
plane-surface $-1 -153.25957949067831 12.17590124425907 69.512883905439153 0 -1 0 0.84804810408105047 0 -0.52991925155115449 forward_v I I I I #
coedge $-1 $303 $304 $305 $306 reversed $120 $-1 #
coedge $-1 $196 $122 $307 $308 reversed $77 $-1 #
coedge $-1 $122 $195 $303 $309 reversed $77 $-1 #
coedge $-1 $305 $310 $122 $198 forward $300 $-1 #
edge $-1 $311 19.784793254967738 $312 22.437584552119425 $197 $313 forward 7 unknown #
loop $-1 $-1 $204 $123 #
plane-surface $-1 -56.844996490371415 7.2521319730721956 9.2663679162279067 -0.84804810408105047 0 0.52991925155115449 0.52991925155115449 0 0.84804810408105047 forward_v I I I I #
loop $-1 $-1 $314 $79 #
coedge $-1 $202 $202 $203 $315 reversed $124 $-1 #
coedge $-1 $203 $203 $202 $315 forward $126 $-1 #
coedge $-1 $204 $204 $127 $205 forward $199 $-1 #
edge $-1 $316 0 $316 6.2831853071796004 $204 $317 forward 7 unknown #
loop $-1 $-1 $211 $128 #
plane-surface $-1 -56.844996490371415 7.2521319730721956 9.2663679162279067 -0.84804810408105047 0 0.52991925155115449 0.52991925155115449 0 0.84804810408105047 forward_v I I I I #
loop $-1 $-1 $318 $82 #
coedge $-1 $209 $209 $210 $319 reversed $129 $-1 #
coedge $-1 $210 $210 $209 $319 forward $131 $-1 #
coedge $-1 $211 $211 $132 $212 forward $206 $-1 #
edge $-1 $320 0 $320 6.2831853071796004 $211 $321 forward 7 unknown #
loop $-1 $-1 $218 $133 #
plane-surface $-1 -56.844996490371415 7.2521319730721956 9.2663679162279067 -0.84804810408105047 0 0.52991925155115449 0.52991925155115449 0 0.84804810408105047 forward_v I I I I #
loop $-1 $-1 $322 $85 #
coedge $-1 $216 $216 $217 $323 reversed $134 $-1 #
coedge $-1 $217 $217 $216 $323 forward $136 $-1 #
coedge $-1 $218 $218 $137 $219 forward $213 $-1 #
edge $-1 $324 0 $324 6.2831853071796004 $218 $325 forward 7 unknown #
face $-1 $326 $327 $33 $-1 $328 reversed single #
loop $-1 $-1 $329 $138 #
plane-surface $-1 -56.844996490371415 0 0 1 0 0 0 0 -1 forward_v I I I I #
coedge $-1 $330 $231 $331 $332 forward $139 $-1 #
coedge $-1 $333 $141 $330 $334 forward $89 $-1 #
coedge $-1 $141 $333 $335 $336 forward $89 $-1 #
coedge $-1 $234 $233 $141 $227 reversed $235 $-1 #
edge $-1 $337 -35.646654694821152 $338 35.646654694821152 $226 $339 forward 7 unknown #
coedge $-1 $143 $142 $340 $341 forward $56 $-1 #
coedge $-1 $342 $343 $142 $230 reversed $327 $-1 #
edge $-1 $237 -56.844996490371415 $344 56.844996490371415 $229 $345 forward 7 unknown #
coedge $-1 $223 $346 $143 $232 reversed $139 $-1 #
edge $-1 $347 -56.844996490371415 $236 56.844996490371415 $231 $348 forward 7 unknown #
coedge $-1 $226 $144 $346 $349 forward $235 $-1 #
coedge $-1 $144 $226 $342 $350 reversed $235 $-1 #
loop $-1 $-1 $233 $326 #
vertex $-1 $145 $351 #
vertex $-1 $145 $352 #
straight-curve $-1 56.844996490371415 0 13.511721568670239 0 1 0 I I #
face $-1 $353 $354 $34 $-1 $355 reversed single #
loop $-1 $-1 $356 $146 #
plane-surface $-1 0 0 13.511721568670239 0 0 1 1 0 0 forward_v I I I I #
coedge $-1 $357 $358 $359 $360 reversed $147 $-1 #
coedge $-1 $152 $149 $361 $362 reversed $93 $-1 #
coedge $-1 $149 $152 $363 $364 reversed $93 $-1 #
coedge $-1 $358 $357 $149 $246 reversed $147 $-1 #
edge $-1 $365 -13.511721568670239 $366 13.511721568670239 $245 $367 forward 7 unknown #
coedge $-1 $151 $150 $368 $369 reversed $59 $-1 #
coedge $-1 $361 $370 $150 $249 forward $354 $-1 #
edge $-1 $371 -21.535467391227165 $253 -6.6869072159608134 $248 $372 forward 7 unknown #
coedge $-1 $373 $363 $151 $251 forward $240 $-1 #
edge $-1 $252 6.6869072159608134 $374 21.535467391227165 $250 $375 forward 7 unknown #
vertex $-1 $251 $376 #
vertex $-1 $249 $377 #
straight-curve $-1 -33.600975725097044 -20.798094519554802 0 0 0 -1 I I #
face $-1 $378 $379 $35 $-1 $380 forward single #
loop $-1 $-1 $381 $154 #
plane-surface $-1 0 0 -13.511721568670239 0 0 1 1 0 0 forward_v I I I I #
coedge $-1 $382 $383 $263 $384 forward $155 $-1 #
coedge $-1 $160 $157 $385 $386 reversed $97 $-1 #
coedge $-1 $157 $160 $387 $388 reversed $97 $-1 #
coedge $-1 $389 $390 $157 $262 forward $391 $-1 #
edge $-1 $392 -13.511721568670239 $393 13.511721568670239 $261 $394 forward 7 unknown #
coedge $-1 $159 $158 $258 $384 reversed $62 $-1 #
coedge $-1 $385 $381 $158 $265 forward $256 $-1 #
edge $-1 $395 13.965921083498941 $269 17.745343455565049 $264 $396 forward 7 unknown #
coedge $-1 $397 $387 $159 $267 forward $379 $-1 #
edge $-1 $268 -17.745343455565049 $398 -13.965921083498941 $266 $399 forward 7 unknown #
vertex $-1 $267 $400 #
vertex $-1 $265 $401 #
straight-curve $-1 -33.600975725097044 20.798094519554798 0 0 0 -1 I I #
face $-1 $-1 $283 $36 $-1 $402 forward single #
loop $-1 $-1 $403 $162 #
plane-surface $-1 -56.844996490371415 0 0 1 0 0 0 0 -1 forward_v I I I I #
coedge $-1 $404 $405 $406 $407 reversed $163 $-1 #
coedge $-1 $408 $165 $167 $281 forward $101 $-1 #
coedge $-1 $165 $408 $404 $409 forward $101 $-1 #
coedge $-1 $406 $168 $165 $278 forward $283 $-1 #
edge $-1 $285 -8.5498352577229699 $410 1.2977032846507779 $277 $411 forward 7 unknown #
coedge $-1 $412 $413 $166 $280 forward $272 $-1 #
edge $-1 $414 -25.49007403649167 $284 -21.244720384049337 $279 $415 forward 7 unknown #
edge $-1 $285 -5.0060292948153213 $414 0 $167 $416 forward 7 unknown #
coedge $-1 $168 $406 $412 $417 forward $283 $-1 #
loop $-1 $-1 $406 $271 #
vertex $-1 $280 $418 #
vertex $-1 $169 $419 #
straight-curve $-1 -76.629789745339153 -12.175901244259066 13.511721568670239 1 0 0 I I #
coedge $-1 $287 $287 $-1 $420 reversed $172 $-1 #
edge $-1 $421 0 $421 6.2831853071796004 $173 $422 forward 7 unknown #
vertex $-1 $176 $423 #
ellipse-curve $-1 -55.518600841795568 -10.206393535784315 11.389044742449071 -0.84804810408105047 0 0.52991925155115449 0.26495962577557725 0 0.42402405204052523 1 I I #
coedge $-1 $291 $291 $-1 $424 reversed $179 $-1 #
edge $-1 $425 0 $425 6.2831853071796004 $180 $426 forward 7 unknown #
vertex $-1 $183 $427 #
ellipse-curve $-1 -55.518600841795568 -7.252131973072192 11.389044742449071 -0.84804810408105047 0 0.52991925155115449 0.26495962577557725 0 0.42402405204052523 1 I I #
coedge $-1 $295 $295 $-1 $428 reversed $186 $-1 #
edge $-1 $429 0 $429 6.2831853071796004 $187 $430 forward 7 unknown #
vertex $-1 $190 $431 #
ellipse-curve $-1 -55.518600841795568 -4.2978704103600691 11.389044742449071 -0.84804810408105047 0 0.52991925155115449 0.26495962577557725 0 0.42402405204052523 1 I I #
face $-1 $-1 $432 $40 $-1 $433 reversed single #
loop $-1 $-1 $197 $191 #
plane-surface $-1 0 0 13.511721568670239 0 0 1 1 0 0 forward_v I I I I #
coedge $-1 $434 $435 $436 $437 reversed $192 $-1 #
coedge $-1 $438 $194 $196 $309 forward $120 $-1 #
coedge $-1 $194 $438 $434 $439 forward $120 $-1 #
coedge $-1 $436 $197 $194 $306 forward $300 $-1 #
edge $-1 $312 -1.2977032846507761 $440 8.5498352577229717 $305 $441 forward 7 unknown #
coedge $-1 $442 $443 $195 $308 forward $432 $-1 #
edge $-1 $444 -25.49007403649167 $311 -21.244720384049337 $307 $445 forward 7 unknown #
edge $-1 $312 -5.0060292948153213 $444 0 $196 $446 forward 7 unknown #
coedge $-1 $197 $436 $442 $447 forward $300 $-1 #
vertex $-1 $308 $448 #
vertex $-1 $198 $449 #
straight-curve $-1 -76.629789745339153 2.3283627018853217 13.511721568670239 1 0 0 I I #
coedge $-1 $314 $314 $-1 $450 reversed $201 $-1 #
edge $-1 $451 0 $451 6.2831853071796004 $202 $452 forward 7 unknown #
vertex $-1 $205 $453 #
ellipse-curve $-1 -55.518600841795568 4.2978704103600691 11.389044742449071 -0.84804810408105047 0 0.52991925155115449 0.26495962577557725 0 0.42402405204052523 1 I I #
coedge $-1 $318 $318 $-1 $454 reversed $208 $-1 #
edge $-1 $455 0 $455 6.2831853071796004 $209 $456 forward 7 unknown #
vertex $-1 $212 $457 #
ellipse-curve $-1 -55.518600841795568 7.2521319730721956 11.389044742449071 -0.84804810408105047 0 0.52991925155115449 0.26495962577557725 0 0.42402405204052523 1 I I #
coedge $-1 $322 $322 $-1 $458 reversed $215 $-1 #
edge $-1 $459 0 $459 6.2831853071796004 $216 $460 forward 7 unknown #
vertex $-1 $219 $461 #
ellipse-curve $-1 -55.518600841795568 10.206393535784315 11.389044742449071 -0.84804810408105047 0 0.52991925155115449 0.26495962577557725 0 0.42402405204052523 1 I I #
face $-1 $-1 $235 $33 $-1 $462 reversed single #
loop $-1 $-1 $342 $220 #
plane-surface $-1 0 35.646654694821152 0 0 -1 0 0 0 -1 forward_v I I I I #
coedge $-1 $463 $340 $343 $464 forward $221 $-1 #
coedge $-1 $346 $223 $224 $334 reversed $139 $-1 #
coedge $-1 $340 $463 $223 $332 reversed $221 $-1 #
edge $-1 $347 -13.511721568670239 $465 13.511721568670239 $331 $466 forward 7 unknown #
coedge $-1 $225 $224 $463 $467 forward $89 $-1 #
edge $-1 $338 -56.844996490371415 $465 56.844996490371415 $330 $468 forward 7 unknown #
coedge $-1 $343 $342 $225 $336 reversed $327 $-1 #
edge $-1 $469 -56.844996490371415 $337 56.844996490371415 $335 $470 forward 7 unknown #
vertex $-1 $227 $471 #
vertex $-1 $349 $472 #
straight-curve $-1 56.844996490371415 0 -13.511721568670239 0 -1 0 I I #
coedge $-1 $329 $331 $228 $341 reversed $221 $-1 #
edge $-1 $344 -35.646654694821152 $347 35.646654694821152 $340 $473 forward 7 unknown #
coedge $-1 $335 $229 $234 $350 forward $327 $-1 #
coedge $-1 $229 $335 $329 $464 reversed $327 $-1 #
vertex $-1 $230 $474 #
straight-curve $-1 0 35.646654694821152 13.511721568670239 -1 0 0 I I #
coedge $-1 $231 $330 $233 $349 reversed $139 $-1 #
vertex $-1 $341 $475 #
straight-curve $-1 0 -35.646654694821152 13.511721568670239 1 0 0 I I #
edge $-1 $236 -13.511721568670239 $338 13.511721568670239 $233 $476 forward 7 unknown #
edge $-1 $237 -13.511721568670239 $337 13.511721568670239 $234 $477 forward 7 unknown #
point $-1 56.844996490371415 -35.646654694821152 13.511721568670239 #
point $-1 56.844996490371415 35.646654694821152 13.511721568670239 #
face $-1 $-1 $478 $34 $-1 $479 reversed single #
loop $-1 $-1 $480 $239 #
plane-surface $-1 0 0 -13.511721568670239 0 0 1 1 0 0 forward_v I I I I #
coedge $-1 $363 $373 $358 $481 forward $240 $-1 #
coedge $-1 $245 $242 $480 $482 reversed $147 $-1 #
coedge $-1 $242 $245 $356 $481 reversed $147 $-1 #
coedge $-1 $483 $484 $242 $360 forward $478 $-1 #
edge $-1 $485 -13.511721568670239 $486 13.511721568670239 $359 $487 forward 7 unknown #
coedge $-1 $480 $248 $243 $362 forward $354 $-1 #
edge $-1 $253 -17.745343455565049 $366 -13.965921083498941 $361 $488 forward 7 unknown #
coedge $-1 $250 $356 $244 $364 forward $240 $-1 #
edge $-1 $365 13.965921083498941 $252 17.745343455565049 $363 $489 forward 7 unknown #
vertex $-1 $364 $490 #
vertex $-1 $362 $491 #
straight-curve $-1 -29.821553353030936 -20.798094519554802 0 0 0 -1 I I #
coedge $-1 $484 $483 $247 $369 forward $478 $-1 #
edge $-1 $374 -13.511721568670239 $371 13.511721568670239 $368 $492 forward 7 unknown #
coedge $-1 $248 $480 $484 $493 forward $354 $-1 #
vertex $-1 $249 $494 #
straight-curve $-1 -33.600975725097044 -14.111187303593988 -13.511721568670239 0 1 0 I I #
coedge $-1 $356 $250 $483 $495 forward $240 $-1 #
vertex $-1 $495 $496 #
straight-curve $-1 -33.600975725097044 -14.111187303593988 13.511721568670239 0 -1 0 I I #
point $-1 -33.600975725097044 -20.798094519554802 13.511721568670239 #
point $-1 -33.600975725097044 -20.798094519554802 -13.511721568670239 #
face $-1 $-1 $391 $35 $-1 $497 reversed single #
loop $-1 $-1 $397 $255 #
plane-surface $-1 0 0 13.511721568670239 0 0 1 1 0 0 forward_v I I I I #
coedge $-1 $264 $498 $382 $499 forward $256 $-1 #
coedge $-1 $500 $258 $381 $499 reversed $155 $-1 #
coedge $-1 $258 $500 $397 $501 reversed $155 $-1 #
edge $-1 $398 -13.511721568670239 $395 13.511721568670239 $258 $502 forward 7 unknown #
coedge $-1 $498 $264 $259 $386 forward $256 $-1 #
edge $-1 $269 6.6869072159608116 $392 21.535467391227165 $385 $503 forward 7 unknown #
coedge $-1 $266 $504 $260 $388 forward $379 $-1 #
edge $-1 $393 -21.535467391227165 $268 -6.6869072159608116 $387 $505 forward 7 unknown #
coedge $-1 $506 $261 $504 $507 reversed $391 $-1 #
coedge $-1 $261 $506 $498 $508 reversed $391 $-1 #
loop $-1 $-1 $506 $378 #
vertex $-1 $508 $509 #
vertex $-1 $262 $510 #
straight-curve $-1 -33.600975725097044 35.646654694821152 0 0 0 1 I I #
vertex $-1 $265 $511 #
straight-curve $-1 -15.855632269531995 20.798094519554798 -13.511721568670239 -1 0 0 I I #
coedge $-1 $504 $266 $383 $501 forward $379 $-1 #
vertex $-1 $267 $512 #
straight-curve $-1 -15.855632269531995 20.798094519554798 13.511721568670239 1 0 0 I I #
point $-1 -33.600975725097044 20.798094519554798 13.511721568670239 #
point $-1 -33.600975725097044 20.798094519554798 -13.511721568670239 #
plane-surface $-1 0 0 13.511721568670239 0 0 1 1 0 0 forward_v I I I I #
coedge $-1 $413 $412 $405 $513 forward $272 $-1 #
coedge $-1 $405 $274 $276 $409 reversed $163 $-1 #
coedge $-1 $274 $404 $403 $513 reversed $163 $-1 #
coedge $-1 $282 $277 $274 $407 forward $283 $-1 #
edge $-1 $410 -22.437584552119425 $514 -19.784793254967738 $406 $515 forward 7 unknown #
coedge $-1 $276 $275 $413 $516 reversed $101 $-1 #
edge $-1 $517 0 $410 5.0060292948153213 $404 $518 forward 7 unknown #
vertex $-1 $278 $519 #
straight-curve $-1 -54.192205193219728 -3.626065986536096 13.511721568670239 0 1 0 I I #
coedge $-1 $403 $279 $282 $417 reversed $272 $-1 #
coedge $-1 $279 $403 $408 $516 forward $272 $-1 #
vertex $-1 $280 $520 #
straight-curve $-1 -56.844996490371415 -12.175901244259066 34.756441952719577 0 0 1 I I #
straight-curve $-1 -56.844996490371415 -12.175901244259066 9.2663679162279067 -0.52991925155115449 0 -0.84804810408105047 I I #
edge $-1 $514 2.3283627018853181 $284 12.175901244259066 $412 $521 forward 7 unknown #
point $-1 -56.844996490371415 -12.175901244259066 13.511721568670239 #
point $-1 -54.192205193219728 -12.175901244259066 13.511721568670239 #
edge $-1 $522 1 $522 0 $287 $-1 forward 7 unknown #
vertex $-1 $288 $523 #
ellipse-curve $-1 -54.565863428927997 -10.206393535784315 10.793708352541509 -0.84804810408105047 0 0.52991925155115449 0.26495962577557725 0 0.42402405204052523 1 I I #
point $-1 -55.253641216019993 -10.206393535784315 11.813068794489597 #
edge $-1 $524 1 $524 0 $291 $-1 forward 7 unknown #
vertex $-1 $292 $525 #
ellipse-curve $-1 -54.565863428927997 -7.252131973072192 10.793708352541509 -0.84804810408105047 0 0.52991925155115449 0.26495962577557725 0 0.42402405204052523 1 I I #
point $-1 -55.253641216019993 -7.252131973072192 11.813068794489597 #
edge $-1 $526 1 $526 0 $295 $-1 forward 7 unknown #
vertex $-1 $296 $527 #
ellipse-curve $-1 -54.565863428927997 -4.2978704103600691 10.793708352541509 -0.84804810408105047 0 0.52991925155115449 0.26495962577557725 0 0.42402405204052523 1 I I #
point $-1 -55.253641216019993 -4.2978704103600691 11.813068794489597 #
loop $-1 $-1 $307 $299 #
plane-surface $-1 -56.844996490371415 0 0 1 0 0 0 0 -1 forward_v I I I I #
coedge $-1 $435 $302 $304 $439 reversed $192 $-1 #
coedge $-1 $302 $434 $528 $529 reversed $192 $-1 #
coedge $-1 $310 $305 $302 $437 forward $300 $-1 #
edge $-1 $440 -22.437584552119425 $530 -19.784793254967738 $436 $531 forward 7 unknown #
coedge $-1 $304 $303 $443 $532 reversed $120 $-1 #
edge $-1 $533 0 $440 5.0060292948153213 $434 $534 forward 7 unknown #
vertex $-1 $306 $535 #
straight-curve $-1 -54.192205193219728 3.6260659865360978 13.511721568670239 0 1 0 I I #
coedge $-1 $528 $307 $310 $447 reversed $432 $-1 #
coedge $-1 $307 $528 $438 $532 forward $432 $-1 #
vertex $-1 $308 $536 #
straight-curve $-1 -56.844996490371415 2.3283627018853217 34.756441952719577 0 0 1 I I #
straight-curve $-1 -56.844996490371415 2.3283627018853217 9.2663679162279067 -0.52991925155115449 0 -0.84804810408105047 I I #
edge $-1 $530 -12.17590124425907 $311 -2.3283627018853217 $442 $537 forward 7 unknown #
point $-1 -56.844996490371415 2.3283627018853217 13.511721568670239 #
point $-1 -54.192205193219728 2.3283627018853217 13.511721568670239 #
edge $-1 $538 1 $538 0 $314 $-1 forward 7 unknown #
vertex $-1 $315 $539 #
ellipse-curve $-1 -54.565863428927997 4.2978704103600691 10.793708352541509 -0.84804810408105047 0 0.52991925155115449 0.26495962577557725 0 0.42402405204052523 1 I I #
point $-1 -55.253641216019993 4.2978704103600691 11.813068794489597 #
edge $-1 $540 1 $540 0 $318 $-1 forward 7 unknown #
vertex $-1 $319 $541 #
ellipse-curve $-1 -54.565863428927997 7.2521319730721956 10.793708352541509 -0.84804810408105047 0 0.52991925155115449 0.26495962577557725 0 0.42402405204052523 1 I I #
point $-1 -55.253641216019993 7.2521319730721956 11.813068794489597 #
edge $-1 $542 1 $542 0 $322 $-1 forward 7 unknown #
vertex $-1 $323 $543 #
ellipse-curve $-1 -54.565863428927997 10.206393535784315 10.793708352541509 -0.84804810408105047 0 0.52991925155115449 0.26495962577557725 0 0.42402405204052523 1 I I #
point $-1 -55.253641216019993 10.206393535784315 11.813068794489597 #
plane-surface $-1 56.844996490371415 0 0 -1 0 0 0 0 1 forward_v I I I I #
coedge $-1 $331 $329 $333 $467 reversed $221 $-1 #
edge $-1 $344 -13.511721568670239 $469 13.511721568670239 $343 $544 forward 7 unknown #
vertex $-1 $467 $545 #
straight-curve $-1 -56.844996490371415 -35.646654694821152 0 0 0 -1 I I #
edge $-1 $465 -35.646654694821152 $469 35.646654694821152 $463 $546 forward 7 unknown #
straight-curve $-1 0 -35.646654694821152 -13.511721568670239 -1 0 0 I I #
vertex $-1 $336 $547 #
straight-curve $-1 0 35.646654694821152 -13.511721568670239 1 0 0 I I #
point $-1 56.844996490371415 35.646654694821152 -13.511721568670239 #
point $-1 56.844996490371415 -35.646654694821152 -13.511721568670239 #
straight-curve $-1 -56.844996490371415 0 13.511721568670239 0 -1 0 I I #
point $-1 -56.844996490371415 35.646654694821152 13.511721568670239 #
point $-1 -56.844996490371415 -35.646654694821152 13.511721568670239 #
straight-curve $-1 56.844996490371415 -35.646654694821152 0 0 0 -1 I I #
straight-curve $-1 56.844996490371415 35.646654694821152 0 0 0 -1 I I #
loop $-1 $-1 $359 $353 #
plane-surface $-1 0 -35.646654694821152 0 0 1 0 0 0 1 forward_v I I I I #
coedge $-1 $370 $361 $357 $482 forward $354 $-1 #
edge $-1 $486 -21.535467391227165 $365 -6.6869072159608134 $356 $548 forward 7 unknown #
edge $-1 $366 6.6869072159608134 $485 21.535467391227165 $480 $549 forward 7 unknown #
coedge $-1 $368 $359 $373 $495 reversed $478 $-1 #
coedge $-1 $359 $368 $370 $493 reversed $478 $-1 #
vertex $-1 $493 $550 #
vertex $-1 $360 $551 #
straight-curve $-1 -29.821553353030936 -35.646654694821152 0 0 0 1 I I #
straight-curve $-1 -15.855632269531995 -20.798094519554802 -13.511721568670239 1 0 0 I I #
straight-curve $-1 -15.855632269531995 -20.798094519554802 13.511721568670239 -1 0 0 I I #
point $-1 -29.821553353030936 -20.798094519554802 13.511721568670239 #
point $-1 -29.821553353030936 -20.798094519554802 -13.511721568670239 #
straight-curve $-1 -33.600975725097044 -35.646654694821152 0 0 0 -1 I I #
edge $-1 $485 29.821553353030936 $371 33.600975725097044 $484 $552 forward 7 unknown #
point $-1 -33.600975725097044 -35.646654694821152 -13.511721568670239 #
edge $-1 $374 -33.600975725097044 $486 -29.821553353030936 $483 $553 forward 7 unknown #
point $-1 -33.600975725097044 -35.646654694821152 13.511721568670239 #
plane-surface $-1 0 35.646654694821152 0 0 -1 0 0 0 -1 forward_v I I I I #
coedge $-1 $381 $385 $390 $508 forward $256 $-1 #
edge $-1 $554 -21.535467391227165 $395 -6.6869072159608116 $381 $555 forward 7 unknown #
coedge $-1 $383 $382 $506 $556 reversed $155 $-1 #
edge $-1 $398 6.6869072159608116 $557 21.535467391227165 $397 $558 forward 7 unknown #
straight-curve $-1 -29.821553353030936 20.798094519554798 0 0 0 -1 I I #
straight-curve $-1 -33.600975725097044 14.111187303593987 -13.511721568670239 0 1 0 I I #
coedge $-1 $387 $397 $389 $507 forward $379 $-1 #
straight-curve $-1 -33.600975725097044 14.111187303593987 13.511721568670239 0 -1 0 I I #
coedge $-1 $390 $389 $500 $556 forward $391 $-1 #
edge $-1 $557 29.821553353030936 $393 33.600975725097044 $389 $559 forward 7 unknown #
edge $-1 $392 -33.600975725097044 $554 -29.821553353030936 $390 $560 forward 7 unknown #
point $-1 -33.600975725097044 35.646654694821152 -13.511721568670239 #
point $-1 -33.600975725097044 35.646654694821152 13.511721568670239 #
point $-1 -29.821553353030936 20.798094519554798 -13.511721568670239 #
point $-1 -29.821553353030936 20.798094519554798 13.511721568670239 #
edge $-1 $514 21.244720384049337 $517 25.49007403649167 $403 $561 forward 7 unknown #
vertex $-1 $417 $562 #
straight-curve $-1 -76.629789745339153 -2.3283627018853181 13.511721568670239 -1 0 0 I I #
edge $-1 $517 -1.2977032846507779 $414 8.5498352577229699 $413 $563 forward 7 unknown #
vertex $-1 $516 $564 #
straight-curve $-1 -56.844996490371415 -2.3283627018853181 9.2663679162279067 0.52991925155115449 0 0.84804810408105047 I I #
point $-1 -54.192205193219728 -2.3283627018853181 13.511721568670239 #
point $-1 -56.844996490371415 -12.175901244259066 9.2663679162279067 #
straight-curve $-1 -56.844996490371415 0 13.511721568670239 0 -1 0 I I #
vertex $-1 $420 $565 #
point $-1 -54.300903803152423 -10.206393535784315 11.217732404582033 #
vertex $-1 $424 $566 #
point $-1 -54.300903803152423 -7.252131973072192 11.217732404582033 #
vertex $-1 $428 $567 #
point $-1 -54.300903803152423 -4.2978704103600691 11.217732404582033 #
coedge $-1 $443 $442 $435 $529 forward $432 $-1 #
edge $-1 $530 21.244720384049337 $533 25.49007403649167 $528 $568 forward 7 unknown #
vertex $-1 $447 $569 #
straight-curve $-1 -76.629789745339153 12.17590124425907 13.511721568670239 -1 0 0 I I #
edge $-1 $533 -8.5498352577229717 $444 1.2977032846507761 $443 $570 forward 7 unknown #
vertex $-1 $532 $571 #
straight-curve $-1 -56.844996490371415 12.17590124425907 9.2663679162279067 0.52991925155115449 0 0.84804810408105047 I I #
point $-1 -54.192205193219728 12.17590124425907 13.511721568670239 #
point $-1 -56.844996490371415 2.3283627018853217 9.2663679162279067 #
straight-curve $-1 -56.844996490371415 0 13.511721568670239 0 -1 0 I I #
vertex $-1 $450 $572 #
point $-1 -54.300903803152423 4.2978704103600691 11.217732404582033 #
vertex $-1 $454 $573 #
point $-1 -54.300903803152423 7.2521319730721956 11.217732404582033 #
vertex $-1 $458 $574 #
point $-1 -54.300903803152423 10.206393535784315 11.217732404582033 #
straight-curve $-1 -56.844996490371415 35.646654694821152 0 0 0 -1 I I #
point $-1 -56.844996490371415 -35.646654694821152 -13.511721568670239 #
straight-curve $-1 -56.844996490371415 0 -13.511721568670239 0 1 0 I I #
point $-1 -56.844996490371415 35.646654694821152 -13.511721568670239 #
straight-curve $-1 -29.821553353030936 -14.111187303593988 13.511721568670239 0 1 0 I I #
straight-curve $-1 -29.821553353030936 -14.111187303593988 -13.511721568670239 0 -1 0 I I #
point $-1 -29.821553353030936 -35.646654694821152 -13.511721568670239 #
point $-1 -29.821553353030936 -35.646654694821152 13.511721568670239 #
straight-curve $-1 0 -35.646654694821152 -13.511721568670239 -1 0 0 I I #
straight-curve $-1 0 -35.646654694821152 13.511721568670239 1 0 0 I I #
vertex $-1 $556 $575 #
straight-curve $-1 -29.821553353030936 14.111187303593987 -13.511721568670239 0 -1 0 I I #
edge $-1 $557 -13.511721568670239 $554 13.511721568670239 $506 $576 forward 7 unknown #
vertex $-1 $507 $577 #
straight-curve $-1 -29.821553353030936 14.111187303593987 13.511721568670239 0 1 0 I I #
straight-curve $-1 0 35.646654694821152 13.511721568670239 -1 0 0 I I #
straight-curve $-1 0 35.646654694821152 -13.511721568670239 1 0 0 I I #
straight-curve $-1 -56.844996490371415 -2.3283627018853181 34.756441952719577 0 0 -1 I I #
point $-1 -56.844996490371415 -2.3283627018853181 13.511721568670239 #
straight-curve $-1 -56.844996490371415 -3.626065986536096 9.2663679162279102 0 -1 0 I I #
point $-1 -56.844996490371415 -2.3283627018853181 9.2663679162279067 #
point $-1 -54.141839376887475 -10.206393535784315 10.528748726765931 #
point $-1 -54.141839376887475 -7.252131973072192 10.528748726765931 #
point $-1 -54.141839376887475 -4.2978704103600691 10.528748726765931 #
straight-curve $-1 -56.844996490371415 12.17590124425907 34.756441952719577 0 0 -1 I I #
point $-1 -56.844996490371415 12.17590124425907 13.511721568670239 #
straight-curve $-1 -56.844996490371415 3.6260659865360978 9.2663679162279102 0 -1 0 I I #
point $-1 -56.844996490371415 12.17590124425907 9.2663679162279067 #
point $-1 -54.141839376887475 4.2978704103600691 10.528748726765931 #
point $-1 -54.141839376887475 7.2521319730721956 10.528748726765931 #
point $-1 -54.141839376887475 10.206393535784315 10.528748726765931 #
point $-1 -29.821553353030936 35.646654694821152 -13.511721568670239 #
straight-curve $-1 -29.821553353030936 35.646654694821152 0 0 0 -1 I I #
point $-1 -29.821553353030936 35.646654694821152 13.511721568670239 #
End-of-ACIS-data 