500 0 8 0           
7 Unknown 11 ACIS 5.0 NT 24 Thu Mar 25 23:15:18 1999 
-1 9.9999999999999995e-007 1e-010 
body $-1 $8 $-1 $9 #
body $-1 $10 $-1 $11 #
body $-1 $12 $-1 $13 #
body $-1 $14 $-1 $15 #
body $-1 $16 $-1 $17 #
body $-1 $18 $-1 $19 #
body $-1 $20 $-1 $21 #
body $-1 $22 $-1 $23 #
lump $-1 $-1 $24 $0 #
transform $-1 1 0 0 0 1 0 0 0 1 72.924588763084813 30.184686192692855 11.980557764795892 1 rotate no_reflect no_shear #
lump $-1 $-1 $25 $1 #
transform $-1 1 0 0 0 1 0 0 0 1 72.924588763084813 30.184686192692855 11.980557764795892 1 rotate no_reflect no_shear #
lump $-1 $-1 $26 $2 #
transform $-1 1 0 0 0 1 0 0 0 1 72.924588763084813 30.184686192692855 11.980557764795892 1 rotate no_reflect no_shear #
lump $-1 $-1 $27 $3 #
transform $-1 1 0 0 0 1 0 0 0 1 72.924588763084813 30.184686192692855 11.980557764795892 1 rotate no_reflect no_shear #
lump $-1 $-1 $28 $4 #
transform $-1 1 0 0 0 1 0 0 0 1 72.924588763084813 30.184686192692855 11.980557764795892 1 rotate no_reflect no_shear #
lump $-1 $-1 $29 $5 #
transform $-1 1 0 0 0 1 0 0 0 1 72.924588763084813 30.184686192692855 11.980557764795892 1 rotate no_reflect no_shear #
lump $-1 $-1 $30 $6 #
transform $-1 1 0 0 0 1 0 0 0 1 72.924588763084813 30.184686192692855 11.980557764795892 1 rotate no_reflect no_shear #
lump $-1 $-1 $31 $7 #
transform $-1 1 0 0 0 1 0 0 0 1 72.924588763084813 30.184686192692855 11.980557764795892 1 rotate no_reflect no_shear #
shell $-1 $-1 $-1 $32 $-1 $8 #
shell $-1 $-1 $-1 $33 $-1 $10 #
shell $-1 $-1 $-1 $34 $-1 $12 #
shell $-1 $-1 $-1 $35 $-1 $14 #
shell $-1 $-1 $-1 $36 $-1 $16 #
shell $-1 $-1 $-1 $37 $-1 $18 #
shell $-1 $-1 $-1 $38 $-1 $20 #
shell $-1 $-1 $-1 $39 $-1 $22 #
face $-1 $40 $41 $24 $-1 $42 forward single #
face $-1 $43 $44 $25 $-1 $45 reversed single #
face $-1 $46 $47 $26 $-1 $48 forward single #
face $-1 $49 $50 $27 $-1 $51 reversed single #
face $-1 $52 $53 $28 $-1 $54 forward single #
face $-1 $55 $56 $29 $-1 $57 reversed single #
face $-1 $58 $59 $30 $-1 $60 forward single #
face $-1 $61 $62 $31 $-1 $63 forward single #
face $-1 $64 $65 $24 $-1 $66 reversed single #
loop $-1 $-1 $67 $32 #
plane-surface $-1 0 0 11.980557764795892 0 0 1 1 0 0 forward_v I I I I #
face $-1 $68 $69 $25 $-1 $70 reversed single #
loop $-1 $-1 $71 $33 #
plane-surface $-1 -199.23368274996253 -22.687475979739272 81.302457525169331 0 -1 0 0.86602541151947299 0 -0.49999998660252726 forward_v I I I I #
face $-1 $72 $73 $26 $-1 $74 forward single #
loop $-1 $75 $76 $34 #
cone-surface $-1 -71.287249222349587 -26.436081086216063 9.8343436481663513 0.86602541151947299 0 -0.49999998660252726 0.24999999330126363 0 0.43301270575973649 1 I I 0 1 0.5 forward I I I I #
face $-1 $77 $78 $27 $-1 $79 reversed single #
loop $-1 $-1 $80 $35 #
plane-surface $-1 -199.23368274996253 7.4972102129535898 81.302457525169331 0 -1 0 0.86602541151947299 0 -0.49999998660252726 forward_v I I I I #
face $-1 $81 $82 $28 $-1 $83 forward single #
loop $-1 $84 $85 $36 #
cone-surface $-1 -71.287249222349587 3.7486051064767985 9.8343436481663513 0.86602541151947299 0 -0.49999998660252726 0.24999999330126363 0 0.43301270575973649 1 I I 0 1 0.5 forward I I I I #
face $-1 $86 $87 $29 $-1 $88 reversed single #
loop $-1 $-1 $89 $37 #
plane-surface $-1 69.324824854593857 27.863870843082662 214.38880832824555 0 -1 0 -0.69465837861970381 0 -0.71933979245794832 forward_v I I I I #
face $-1 $90 $91 $30 $-1 $92 forward single #
loop $-1 $93 $94 $38 #
cone-surface $-1 70.330078810312287 21.886258345619243 9.4320812841407982 -0.69465837861970381 0 -0.71933979245794832 0.71933979245794832 0 -0.69465837861970381 1 I I 0 1 1 forward I I I I #
face $-1 $95 $96 $31 $-1 $97 forward single #
loop $-1 $98 $99 $39 #
cone-surface $-1 70.330078810312287 25.472825844097297 9.4320812841407982 -0.69465837861970381 0 -0.71933979245794832 0.71933979245794832 0 -0.69465837861970381 1 I I 0 1 1 forward I I I I #
face $-1 $100 $101 $24 $-1 $102 reversed single #
loop $-1 $-1 $103 $40 #
plane-surface $-1 0 0 -11.980557764795892 0 0 1 1 0 0 forward_v I I I I #
coedge $-1 $104 $105 $106 $107 forward $41 $-1 #
face $-1 $108 $109 $25 $-1 $110 forward single #
loop $-1 $-1 $111 $43 #
plane-surface $-1 -72.924588763084799 -26.436081086216063 8.377870716094904 -0.86602541151947299 0 0.49999998660252726 0.49999998660252726 0 0.86602541151947299 forward_v I I I I #
coedge $-1 $112 $113 $114 $115 reversed $44 $-1 #
face $-1 $-1 $116 $26 $-1 $117 forward single #
loop $-1 $118 $119 $46 #
cone-surface $-1 -70.473409460265373 -26.436081086216063 9.3644730592366852 0.86602541151947299 0 -0.49999998660252726 0.12499999665063181 0 0.21650635287986825 1 I I -0.70710678118654746 0.70710678118654746 0.25 forward I I I I #
loop $-1 $-1 $120 $34 #
coedge $-1 $76 $76 $121 $122 reversed $47 $-1 #
face $-1 $123 $124 $27 $-1 $125 reversed single #
loop $-1 $-1 $126 $49 #
plane-surface $-1 -72.924588763084799 3.7486051064767985 8.377870716094904 -0.86602541151947299 0 0.49999998660252726 0.49999998660252726 0 0.86602541151947299 forward_v I I I I #
coedge $-1 $127 $128 $129 $130 reversed $50 $-1 #
face $-1 $-1 $131 $28 $-1 $132 forward single #
loop $-1 $133 $134 $52 #
cone-surface $-1 -70.473409460265373 3.7486051064767985 9.3644730592366852 0.86602541151947299 0 -0.49999998660252726 0.12499999665063181 0 0.21650635287986825 1 I I -0.70710678118654746 0.70710678118654746 0.25 forward I I I I #
loop $-1 $-1 $135 $36 #
coedge $-1 $85 $85 $136 $137 reversed $53 $-1 #
face $-1 $138 $139 $29 $-1 $140 reversed single #
loop $-1 $-1 $141 $55 #
plane-surface $-1 -31.990528328752475 23.679542094858267 109.47369123640823 0.69465837861970381 0 0.71933979245794832 0.71933979245794832 0 -0.69465837861970381 forward_v I I I I #
coedge $-1 $142 $143 $144 $145 reversed $56 $-1 #
face $-1 $-1 $146 $30 $-1 $147 forward single #
loop $-1 $148 $149 $58 #
cone-surface $-1 69.367251812034084 21.886258345619243 8.4350447631237255 -0.69465837861970381 0 -0.71933979245794832 0.35966989622897416 0 -0.3473291893098519 1 I I -0.70710678118654746 0.70710678118654746 0.5 forward I I I I #
loop $-1 $-1 $150 $38 #
coedge $-1 $94 $94 $151 $152 reversed $59 $-1 #
face $-1 $-1 $153 $31 $-1 $154 forward single #
loop $-1 $155 $156 $61 #
cone-surface $-1 69.367251812034084 25.472825844097297 8.4350447631237255 -0.69465837861970381 0 -0.71933979245794832 0.35966989622897416 0 -0.3473291893098519 1 I I -0.70710678118654746 0.70710678118654746 0.5 forward I I I I #
loop $-1 $-1 $157 $39 #
coedge $-1 $99 $99 $158 $159 reversed $62 $-1 #
face $-1 $160 $161 $24 $-1 $162 reversed single #
loop $-1 $-1 $163 $64 #
plane-surface $-1 0 -30.184686192692855 0 0 1 0 0 0 1 forward_v I I I I #
coedge $-1 $164 $165 $166 $167 forward $65 $-1 #
coedge $-1 $168 $67 $169 $170 forward $41 $-1 #
coedge $-1 $67 $168 $171 $172 forward $41 $-1 #
coedge $-1 $173 $174 $67 $107 reversed $175 $-1 #
edge $-1 $176 -30.184686192692855 $177 30.184686192692855 $106 $178 forward 7 unknown #
face $-1 $179 $180 $25 $-1 $181 reversed single #
loop $-1 $-1 $182 $68 #
plane-surface $-1 0 0 11.980557764795892 0 0 1 1 0 0 forward_v I I I I #
coedge $-1 $183 $184 $185 $186 reversed $69 $-1 #
coedge $-1 $113 $71 $187 $188 reversed $44 $-1 #
coedge $-1 $71 $112 $183 $189 reversed $44 $-1 #
coedge $-1 $185 $190 $71 $115 forward $180 $-1 #
edge $-1 $191 28.670670997788775 $192 32.27335804648979 $114 $193 forward 7 unknown #
loop $-1 $-1 $121 $72 #
plane-surface $-1 -72.924588763084799 -26.436081086216063 8.377870716094904 -0.86602541151947299 0 0.49999998660252726 0.49999998660252726 0 0.86602541151947299 forward_v I I I I #
loop $-1 $-1 $194 $46 #
coedge $-1 $119 $119 $120 $195 reversed $73 $-1 #
coedge $-1 $120 $120 $119 $195 forward $75 $-1 #
coedge $-1 $121 $121 $76 $122 forward $116 $-1 #
edge $-1 $196 0 $196 6.2831853071796004 $121 $197 forward 7 unknown #
face $-1 $198 $199 $27 $-1 $200 forward single #
loop $-1 $-1 $201 $77 #
plane-surface $-1 -199.23368274996253 6.6613381477509392e-015 81.302457525169331 0 1 0 -0.86602541151947299 0 0.49999998660252726 forward_v I I I I #
coedge $-1 $202 $203 $204 $205 reversed $78 $-1 #
coedge $-1 $128 $80 $206 $207 reversed $50 $-1 #
coedge $-1 $80 $127 $202 $208 reversed $50 $-1 #
coedge $-1 $204 $209 $80 $130 forward $210 $-1 #
edge $-1 $211 28.670670997788775 $212 32.27335804648979 $129 $213 forward 7 unknown #
loop $-1 $-1 $136 $81 #
plane-surface $-1 -72.924588763084799 3.7486051064767985 8.377870716094904 -0.86602541151947299 0 0.49999998660252726 0.49999998660252726 0 0.86602541151947299 forward_v I I I I #
loop $-1 $-1 $214 $52 #
coedge $-1 $134 $134 $135 $215 reversed $82 $-1 #
coedge $-1 $135 $135 $134 $215 forward $84 $-1 #
coedge $-1 $136 $136 $85 $137 forward $131 $-1 #
edge $-1 $216 0 $216 6.2831853071796004 $136 $217 forward 7 unknown #
face $-1 $218 $219 $29 $-1 $220 reversed single #
loop $-1 $-1 $221 $86 #
plane-surface $-1 69.324824854593857 19.495213346633872 214.38880832824555 0 1 0 0.69465837861970381 0 0.71933979245794832 forward_v I I I I #
coedge $-1 $222 $223 $224 $225 reversed $87 $-1 #
coedge $-1 $143 $89 $226 $227 reversed $56 $-1 #
coedge $-1 $89 $142 $222 $228 reversed $56 $-1 #
coedge $-1 $224 $229 $89 $145 forward $230 $-1 #
edge $-1 $231 -38.262176335787885 $232 -34.304152048179589 $144 $233 forward 7 unknown #
loop $-1 $-1 $151 $90 #
plane-surface $-1 -31.990528328752475 23.679542094858267 109.47369123640823 0.69465837861970381 0 0.71933979245794832 0.71933979245794832 0 -0.69465837861970381 forward_v I I I I #
loop $-1 $-1 $234 $58 #
coedge $-1 $149 $149 $150 $235 reversed $91 $-1 #
coedge $-1 $150 $150 $149 $235 forward $93 $-1 #
coedge $-1 $151 $151 $94 $152 forward $146 $-1 #
edge $-1 $236 0 $236 6.2831853071796004 $151 $237 forward 7 unknown #
loop $-1 $-1 $158 $95 #
plane-surface $-1 -31.990528328752475 23.679542094858267 109.47369123640823 0.69465837861970381 0 0.71933979245794832 0.71933979245794832 0 -0.69465837861970381 forward_v I I I I #
loop $-1 $-1 $238 $61 #
coedge $-1 $156 $156 $157 $239 reversed $96 $-1 #
coedge $-1 $157 $157 $156 $239 forward $98 $-1 #
coedge $-1 $158 $158 $99 $159 forward $153 $-1 #
edge $-1 $240 0 $240 6.2831853071796004 $158 $241 forward 7 unknown #
face $-1 $242 $243 $24 $-1 $244 reversed single #
loop $-1 $-1 $245 $100 #
plane-surface $-1 -72.924588763084813 0 0 1 0 0 0 0 -1 forward_v I I I I #
coedge $-1 $246 $171 $247 $248 forward $101 $-1 #
coedge $-1 $249 $103 $246 $250 forward $65 $-1 #
coedge $-1 $103 $249 $251 $252 forward $65 $-1 #
coedge $-1 $174 $173 $103 $167 reversed $175 $-1 #
edge $-1 $253 -30.184686192692855 $254 30.184686192692855 $166 $255 forward 7 unknown #
coedge $-1 $105 $104 $256 $257 forward $41 $-1 #
coedge $-1 $258 $259 $104 $170 reversed $243 $-1 #
edge $-1 $177 -72.924588763084813 $260 72.924588763084813 $169 $261 forward 7 unknown #
coedge $-1 $163 $262 $105 $172 reversed $101 $-1 #
edge $-1 $263 -72.924588763084813 $176 72.924588763084813 $171 $264 forward 7 unknown #
coedge $-1 $166 $106 $262 $265 forward $175 $-1 #
coedge $-1 $106 $166 $258 $266 reversed $175 $-1 #
loop $-1 $-1 $173 $242 #
vertex $-1 $107 $267 #
vertex $-1 $107 $268 #
straight-curve $-1 72.924588763084813 0 11.980557764795892 0 1 0 I I #
face $-1 $-1 $269 $25 $-1 $270 reversed single #
loop $-1 $-1 $114 $108 #
plane-surface $-1 -72.924588763084813 0 0 1 0 0 0 0 -1 forward_v I I I I #
coedge $-1 $187 $271 $272 $273 forward $109 $-1 #
coedge $-1 $272 $111 $113 $189 forward $69 $-1 #
coedge $-1 $111 $272 $274 $275 reversed $69 $-1 #
coedge $-1 $276 $114 $111 $186 forward $180 $-1 #
edge $-1 $192 9.4694354366312403 $277 16.966645649584823 $185 $278 forward 7 unknown #
coedge $-1 $279 $182 $112 $188 forward $109 $-1 #
edge $-1 $280 -28.772264874958196 $191 -26.69225261189645 $187 $281 forward 7 unknown #
edge $-1 $192 -2.8642609447069912e-014 $280 4.160024637591107 $113 $282 forward 7 unknown #
coedge $-1 $114 $276 $279 $283 reversed $180 $-1 #
vertex $-1 $283 $284 #
vertex $-1 $115 $285 #
straight-curve $-1 -72.924588763084813 -22.687475979739272 40.651228762584665 0 0 -1 I I #
coedge $-1 $194 $194 $-1 $286 reversed $118 $-1 #
edge $-1 $287 0 $287 6.2831853071796004 $119 $288 forward 7 unknown #
vertex $-1 $122 $289 #
ellipse-curve $-1 -71.88458263155394 -26.436081086216063 10.179214240445386 -0.86602541151947299 0 0.49999998660252726 0.24999999330126363 0 0.43301270575973649 1 I I #
face $-1 $-1 $210 $27 $-1 $290 reversed single #
loop $-1 $-1 $291 $123 #
plane-surface $-1 0 0 11.980557764795892 0 0 1 1 0 0 forward_v I I I I #
coedge $-1 $292 $293 $294 $295 reversed $124 $-1 #
coedge $-1 $296 $126 $128 $208 forward $78 $-1 #
coedge $-1 $126 $296 $292 $297 forward $78 $-1 #
coedge $-1 $294 $129 $126 $205 forward $210 $-1 #
edge $-1 $212 -5.6229076597151906 $298 1.8743025532383926 $204 $299 forward 7 unknown #
coedge $-1 $300 $301 $127 $207 forward $199 $-1 #
edge $-1 $302 -28.772264874958196 $211 -26.69225261189645 $206 $303 forward 7 unknown #
edge $-1 $212 -2.8642609447069912e-014 $302 4.160024637591107 $128 $304 forward 7 unknown #
coedge $-1 $129 $294 $300 $305 reversed $210 $-1 #
loop $-1 $-1 $294 $198 #
vertex $-1 $305 $306 #
vertex $-1 $130 $307 #
straight-curve $-1 -72.924588763084813 7.4972102129535898 40.651228762584665 0 0 -1 I I #
coedge $-1 $214 $214 $-1 $308 reversed $133 $-1 #
edge $-1 $309 0 $309 6.2831853071796004 $134 $310 forward 7 unknown #
vertex $-1 $137 $311 #
ellipse-curve $-1 -71.88458263155394 3.7486051064767985 10.179214240445386 -0.86602541151947299 0 0.49999998660252726 0.24999999330126363 0 0.43301270575973649 1 I I #
face $-1 $-1 $230 $29 $-1 $312 forward single #
loop $-1 $-1 $313 $138 #
plane-surface $-1 72.924588763084813 0 0 -1 0 0 0 0 1 forward_v I I I I #
coedge $-1 $314 $315 $316 $317 reversed $139 $-1 #
coedge $-1 $318 $141 $143 $228 forward $87 $-1 #
coedge $-1 $141 $318 $314 $319 forward $87 $-1 #
coedge $-1 $316 $144 $141 $225 forward $230 $-1 #
edge $-1 $232 -16.024099795653527 $320 -7.6554422992047382 $224 $321 forward 7 unknown #
coedge $-1 $322 $323 $142 $227 forward $219 $-1 #
edge $-1 $324 -99.036066111060848 $231 -95.213846399326883 $226 $325 forward 7 unknown #
edge $-1 $232 140.3468762088965 $324 145.84917752616957 $143 $326 forward 7 unknown #
coedge $-1 $144 $316 $322 $327 forward $230 $-1 #
loop $-1 $-1 $316 $218 #
vertex $-1 $227 $328 #
vertex $-1 $145 $329 #
straight-curve $-1 34.662412427296928 27.863870843082662 11.98055776479589 -1 0 0 I I #
coedge $-1 $234 $234 $-1 $330 reversed $148 $-1 #
edge $-1 $331 0 $331 6.2831853071796004 $149 $332 forward 7 unknown #
vertex $-1 $152 $333 #
ellipse-curve $-1 70.945576619280658 21.886258345619243 10.06944790892892 0.69465837861970381 0 0.71933979245794832 0.71933979245794832 0 -0.69465837861970381 1 I I #
coedge $-1 $238 $238 $-1 $334 reversed $155 $-1 #
edge $-1 $335 0 $335 6.2831853071796004 $156 $336 forward 7 unknown #
vertex $-1 $159 $337 #
ellipse-curve $-1 70.945576619280658 25.472825844097297 10.06944790892892 0.69465837861970381 0 0.71933979245794832 0.71933979245794832 0 -0.69465837861970381 1 I I #
face $-1 $-1 $175 $24 $-1 $338 reversed single #
loop $-1 $-1 $258 $160 #
plane-surface $-1 0 30.184686192692855 0 0 -1 0 0 0 -1 forward_v I I I I #
coedge $-1 $339 $256 $259 $340 forward $161 $-1 #
coedge $-1 $262 $163 $164 $250 reversed $101 $-1 #
coedge $-1 $256 $339 $163 $248 reversed $161 $-1 #
edge $-1 $263 -11.980557764795892 $341 11.980557764795892 $247 $342 forward 7 unknown #
coedge $-1 $165 $164 $339 $343 forward $65 $-1 #
edge $-1 $254 -72.924588763084813 $341 72.924588763084813 $246 $344 forward 7 unknown #
coedge $-1 $259 $258 $165 $252 reversed $243 $-1 #
edge $-1 $345 -72.924588763084813 $253 72.924588763084813 $251 $346 forward 7 unknown #
vertex $-1 $167 $347 #
vertex $-1 $265 $348 #
straight-curve $-1 72.924588763084813 0 -11.980557764795892 0 -1 0 I I #
coedge $-1 $245 $247 $168 $257 reversed $161 $-1 #
edge $-1 $260 -30.184686192692855 $263 30.184686192692855 $256 $349 forward 7 unknown #
coedge $-1 $251 $169 $174 $266 forward $243 $-1 #
coedge $-1 $169 $251 $245 $340 reversed $243 $-1 #
vertex $-1 $170 $350 #
straight-curve $-1 0 30.184686192692855 11.980557764795892 -1 0 0 I I #
coedge $-1 $171 $246 $173 $265 reversed $101 $-1 #
vertex $-1 $257 $351 #
straight-curve $-1 0 -30.184686192692855 11.980557764795892 1 0 0 I I #
edge $-1 $176 -11.980557764795892 $254 11.980557764795892 $173 $352 forward 7 unknown #
edge $-1 $177 -11.980557764795892 $253 11.980557764795892 $174 $353 forward 7 unknown #
point $-1 72.924588763084813 -30.184686192692855 11.980557764795892 #
point $-1 72.924588763084813 30.184686192692855 11.980557764795892 #
loop $-1 $-1 $274 $179 #
plane-surface $-1 0 -30.184686192692855 0 0 1 0 0 0 1 forward_v I I I I #
coedge $-1 $182 $279 $354 $355 forward $109 $-1 #
coedge $-1 $184 $183 $182 $273 reversed $69 $-1 #
edge $-1 $356 -16.966645649584823 $280 -9.4694354366312403 $182 $357 forward 7 unknown #
coedge $-1 $354 $358 $184 $275 forward $269 $-1 #
edge $-1 $277 -14.603422234987118 $356 -10.443397597395981 $274 $359 forward 7 unknown #
coedge $-1 $190 $185 $358 $360 reversed $180 $-1 #
vertex $-1 $186 $361 #
straight-curve $-1 -72.924588763084813 -13.218040543108032 8.3778707160948986 0 -1 0 I I #
coedge $-1 $271 $187 $190 $283 forward $109 $-1 #
vertex $-1 $188 $362 #
straight-curve $-1 -99.616841374981263 -22.687475979739272 11.98055776479589 -1 0 0 I I #
straight-curve $-1 -72.924588763084799 -22.687475979739272 8.377870716094904 0.49999998660252726 0 0.86602541151947299 I I #
edge $-1 $191 22.687475979739272 $363 30.184686192692855 $190 $364 forward 7 unknown #
point $-1 -72.924588763084813 -22.687475979739272 11.980557764795892 #
point $-1 -72.924588763084813 -22.687475979739272 8.3778707160948791 #
edge $-1 $365 1 $365 0 $194 $-1 forward 7 unknown #
vertex $-1 $195 $366 #
ellipse-curve $-1 -70.689915813145234 -26.436081086216063 9.4894730558873164 -0.86602541151947299 0 0.49999998660252726 0.24999999330126363 0 0.43301270575973649 1 I I #
point $-1 -71.634582638252667 -26.436081086216063 10.612226946205119 #
plane-surface $-1 -72.924588763084813 0 0 1 0 0 0 0 -1 forward_v I I I I #
coedge $-1 $301 $300 $293 $367 forward $199 $-1 #
coedge $-1 $293 $201 $203 $297 reversed $124 $-1 #
coedge $-1 $201 $292 $291 $367 reversed $124 $-1 #
coedge $-1 $209 $204 $201 $295 forward $210 $-1 #
edge $-1 $298 -32.27335804648979 $368 -28.670670997788775 $294 $369 forward 7 unknown #
coedge $-1 $203 $202 $301 $370 reversed $78 $-1 #
edge $-1 $371 -4.160024637591107 $298 2.8642609447069912e-014 $292 $372 forward 7 unknown #
vertex $-1 $205 $373 #
straight-curve $-1 -72.924588763084813 1.8743025532383992 8.3778707160948986 0 -1 0 I I #
coedge $-1 $291 $206 $209 $305 forward $199 $-1 #
coedge $-1 $206 $291 $296 $370 forward $199 $-1 #
vertex $-1 $207 $374 #
straight-curve $-1 -99.616841374981263 7.4972102129535898 11.98055776479589 -1 0 0 I I #
straight-curve $-1 -72.924588763084799 7.4972102129535898 8.377870716094904 0.49999998660252726 0 0.86602541151947299 I I #
edge $-1 $211 -7.4972102129535898 $368 -6.6613381477509392e-015 $209 $375 forward 7 unknown #
point $-1 -72.924588763084813 7.4972102129535898 11.980557764795892 #
point $-1 -72.924588763084813 7.4972102129535898 8.3778707160948791 #
edge $-1 $376 1 $376 0 $214 $-1 forward 7 unknown #
vertex $-1 $215 $377 #
ellipse-curve $-1 -70.689915813145234 3.7486051064767985 9.4894730558873164 -0.86602541151947299 0 0.49999998660252726 0.24999999330126363 0 0.43301270575973649 1 I I #
point $-1 -71.634582638252667 3.7486051064767985 10.612226946205119 #
plane-surface $-1 0 0 11.980557764795892 0 0 1 1 0 0 forward_v I I I I #
coedge $-1 $323 $322 $315 $378 forward $219 $-1 #
coedge $-1 $315 $221 $223 $319 reversed $139 $-1 #
coedge $-1 $221 $314 $313 $378 reversed $139 $-1 #
coedge $-1 $229 $224 $221 $317 forward $230 $-1 #
edge $-1 $320 34.304152048179589 $379 38.262176335787885 $316 $380 forward 7 unknown #
coedge $-1 $223 $222 $323 $381 reversed $87 $-1 #
edge $-1 $382 -145.84917752616957 $320 -140.3468762088965 $314 $383 forward 7 unknown #
vertex $-1 $225 $384 #
straight-curve $-1 68.966564475476517 11.839771047429133 11.98055776479589 0 -1 0 I I #
coedge $-1 $313 $226 $229 $327 reversed $219 $-1 #
coedge $-1 $226 $313 $318 $381 forward $219 $-1 #
vertex $-1 $227 $385 #
straight-curve $-1 72.924588763084813 27.863870843082662 107.19440416412277 0 0 1 I I #
straight-curve $-1 -31.990528328752475 27.863870843082662 109.47369123640823 0.71933979245794832 0 -0.69465837861970381 I I #
edge $-1 $379 19.495213346633872 $231 27.863870843082662 $322 $386 forward 7 unknown #
point $-1 72.924588763084813 27.863870843082662 11.980557764795892 #
point $-1 68.966564475476517 27.863870843082662 11.980557764795876 #
edge $-1 $387 1 $387 0 $234 $-1 forward 7 unknown #
vertex $-1 $235 $388 #
ellipse-curve $-1 69.71458100134393 21.886258345619243 8.7947146593526995 0.69465837861970381 0 0.71933979245794832 0.71933979245794832 0 -0.69465837861970381 1 I I #
point $-1 71.664916411738574 21.886258345619243 9.3747895303091919 #
edge $-1 $389 1 $389 0 $238 $-1 forward 7 unknown #
vertex $-1 $239 $390 #
ellipse-curve $-1 69.71458100134393 25.472825844097297 8.7947146593526995 0.69465837861970381 0 0.71933979245794832 0.71933979245794832 0 -0.69465837861970381 1 I I #
point $-1 71.664916411738574 25.472825844097297 9.3747895303091919 #
plane-surface $-1 72.924588763084813 0 0 -1 0 0 0 0 1 forward_v I I I I #
coedge $-1 $247 $245 $249 $343 reversed $161 $-1 #
edge $-1 $260 -11.980557764795892 $345 11.980557764795892 $259 $391 forward 7 unknown #
vertex $-1 $343 $392 #
straight-curve $-1 -72.924588763084813 -30.184686192692855 0 0 0 -1 I I #
edge $-1 $341 -30.184686192692855 $345 30.184686192692855 $339 $393 forward 7 unknown #
straight-curve $-1 0 -30.184686192692855 -11.980557764795892 -1 0 0 I I #
vertex $-1 $252 $394 #
straight-curve $-1 0 30.184686192692855 -11.980557764795892 1 0 0 I I #
point $-1 72.924588763084813 30.184686192692855 -11.980557764795892 #
point $-1 72.924588763084813 -30.184686192692855 -11.980557764795892 #
straight-curve $-1 -72.924588763084813 0 11.980557764795892 0 -1 0 I I #
point $-1 -72.924588763084813 30.184686192692855 11.980557764795892 #
point $-1 -72.924588763084813 -30.184686192692855 11.980557764795892 #
straight-curve $-1 72.924588763084813 -30.184686192692855 0 0 0 -1 I I #
straight-curve $-1 72.924588763084813 30.184686192692855 0 0 0 -1 I I #
coedge $-1 $358 $274 $271 $355 reversed $269 $-1 #
edge $-1 $363 -72.924588763084813 $356 -70.844576500023067 $354 $395 forward 7 unknown #
vertex $-1 $275 $396 #
straight-curve $-1 -70.844576500023052 -13.218040543108032 11.980557764795892 0 1 0 I I #
coedge $-1 $274 $354 $276 $360 forward $269 $-1 #
straight-curve $-1 -65.622877841240211 -30.184686192692855 21.024805466742222 0.49999998660252726 0 0.86602541151947299 I I #
edge $-1 $363 -11.980557764795892 $277 -8.3778707160948791 $276 $397 forward 7 unknown #
point $-1 -72.924588763084813 -30.184686192692855 8.3778707160948791 #
point $-1 -70.844576500023067 -22.687475979739272 11.980557764795892 #
vertex $-1 $283 $398 #
straight-curve $-1 -72.924588763084813 0 11.980557764795892 0 -1 0 I I #
vertex $-1 $286 $399 #
point $-1 -70.439915819843975 -26.436081086216063 9.922485761647053 #
edge $-1 $368 26.69225261189645 $371 28.772264874958196 $291 $400 forward 7 unknown #
vertex $-1 $295 $401 #
straight-curve $-1 -72.924588763084813 6.6613381477509392e-015 40.651228762584665 0 0 1 I I #
edge $-1 $371 -1.8743025532383926 $302 5.6229076597151906 $301 $402 forward 7 unknown #
vertex $-1 $370 $403 #
straight-curve $-1 -72.924588763084799 6.6613381477509392e-015 8.377870716094904 -0.49999998660252726 0 -0.86602541151947299 I I #
point $-1 -72.924588763084813 6.6613381477509392e-015 8.3778707160948791 #
point $-1 -70.844576500023067 7.4972102129535898 11.980557764795892 #
straight-curve $-1 -72.924588763084813 0 11.980557764795892 0 -1 0 I I #
vertex $-1 $308 $404 #
point $-1 -70.439915819843975 3.7486051064767985 9.922485761647053 #
edge $-1 $379 95.213846399326883 $382 99.036066111060848 $313 $405 forward 7 unknown #
vertex $-1 $327 $406 #
straight-curve $-1 34.662412427296928 19.495213346633872 11.98055776479589 1 0 0 I I #
edge $-1 $382 7.6554422992047382 $324 16.024099795653527 $323 $407 forward 7 unknown #
vertex $-1 $381 $408 #
straight-curve $-1 -31.990528328752475 19.495213346633872 109.47369123640823 -0.71933979245794832 0 0.69465837861970381 I I #
point $-1 68.966564475476517 19.495213346633872 11.980557764795876 #
point $-1 72.924588763084799 27.863870843082662 8.1583380530619252 #
straight-curve $-1 72.924588763084813 0 11.980557764795892 0 1 0 I I #
vertex $-1 $330 $409 #
point $-1 70.433920793801889 21.886258345619243 8.1000562807329963 #
vertex $-1 $334 $410 #
point $-1 70.433920793801889 25.472825844097297 8.1000562807329963 #
straight-curve $-1 -72.924588763084813 30.184686192692855 0 0 0 -1 I I #
point $-1 -72.924588763084813 -30.184686192692855 -11.980557764795892 #
straight-curve $-1 -72.924588763084813 0 -11.980557764795892 0 1 0 I I #
point $-1 -72.924588763084813 30.184686192692855 -11.980557764795892 #
straight-curve $-1 0 -30.184686192692855 11.980557764795892 1 0 0 I I #
point $-1 -70.844576500023067 -30.184686192692855 11.980557764795892 #
straight-curve $-1 -72.924588763084813 -30.184686192692855 0 0 0 -1 I I #
point $-1 -72.924588763084813 -30.184686192692855 11.980557764795892 #
point $-1 -70.256903107385511 -26.436081086216063 9.2394730625860539 #
straight-curve $-1 -99.616841374981263 6.6613381477509392e-015 11.98055776479589 1 0 0 I I #
point $-1 -72.924588763084813 6.6613381477509392e-015 11.980557764795892 #
straight-curve $-1 -70.844576500023052 1.8743025532383992 11.980557764795892 0 1 0 I I #
point $-1 -70.844576500023067 6.6613381477509392e-015 11.980557764795892 #
point $-1 -70.256903107385511 3.7486051064767985 9.2394730625860539 #
straight-curve $-1 72.924588763084813 19.495213346633872 107.19440416412277 0 0 -1 I I #
point $-1 72.924588763084813 19.495213346633872 11.980557764795892 #
straight-curve $-1 72.924588763084813 11.839771047429133 8.1583380530619252 0 1 0 I I #
point $-1 72.924588763084799 19.495213346633872 8.1583380530619252 #
point $-1 69.019922622724238 21.886258345619243 8.0753748668947516 #
point $-1 69.019922622724238 25.472825844097297 8.0753748668947516 #
End-of-ACIS-data 