500 0 7 0           
7 Unknown 11 ACIS 5.0 NT 24 Fri Mar 26 18:14:07 1999 
-1 9.9999999999999995e-007 1e-010 
body $-1 $7 $-1 $8 #
body $-1 $9 $-1 $10 #
body $-1 $11 $-1 $12 #
body $-1 $13 $-1 $14 #
body $-1 $15 $-1 $16 #
body $-1 $17 $-1 $18 #
body $-1 $19 $-1 $20 #
lump $-1 $-1 $21 $0 #
transform $-1 1 0 0 0 1 0 0 0 1 51.654408398693803 36.063500945954111 7.8383937311011262 1 rotate no_reflect no_shear #
lump $-1 $-1 $22 $1 #
transform $-1 1 0 0 0 1 0 0 0 1 51.654408398693803 36.063500945954111 7.8383937311011262 1 rotate no_reflect no_shear #
lump $-1 $-1 $23 $2 #
transform $-1 1 0 0 0 1 0 0 0 1 51.654408398693803 36.063500945954111 7.8383937311011262 1 rotate no_reflect no_shear #
lump $-1 $-1 $24 $3 #
transform $-1 1 0 0 0 1 0 0 0 1 51.654408398693803 36.063500945954111 7.8383937311011262 1 rotate no_reflect no_shear #
lump $-1 $-1 $25 $4 #
transform $-1 1 0 0 0 1 0 0 0 1 51.654408398693803 36.063500945954111 7.8383937311011262 1 rotate no_reflect no_shear #
lump $-1 $-1 $26 $5 #
transform $-1 1 0 0 0 1 0 0 0 1 51.654408398693803 36.063500945954111 7.8383937311011262 1 rotate no_reflect no_shear #
lump $-1 $-1 $27 $6 #
transform $-1 1 0 0 0 1 0 0 0 1 51.654408398693803 36.063500945954111 7.8383937311011262 1 rotate no_reflect no_shear #
shell $-1 $-1 $-1 $28 $-1 $7 #
shell $-1 $-1 $-1 $29 $-1 $9 #
shell $-1 $-1 $-1 $30 $-1 $11 #
shell $-1 $-1 $-1 $31 $-1 $13 #
shell $-1 $-1 $-1 $32 $-1 $15 #
shell $-1 $-1 $-1 $33 $-1 $17 #
shell $-1 $-1 $-1 $34 $-1 $19 #
face $-1 $35 $36 $21 $-1 $37 forward single #
face $-1 $38 $39 $22 $-1 $40 forward single #
face $-1 $41 $42 $23 $-1 $43 forward single #
face $-1 $44 $45 $24 $-1 $46 reversed single #
face $-1 $47 $48 $25 $-1 $49 forward single #
face $-1 $50 $51 $26 $-1 $52 reversed single #
face $-1 $53 $54 $27 $-1 $55 forward single #
face $-1 $56 $57 $21 $-1 $58 reversed single #
loop $-1 $-1 $59 $28 #
plane-surface $-1 0 0 7.8383937311011262 0 0 1 1 0 0 forward_v I I I I #
face $-1 $60 $61 $22 $-1 $62 forward single #
loop $-1 $-1 $63 $29 #
plane-surface $-1 -51.654408398693803 0 0 1 0 0 0 0 -1 forward_v I I I I #
face $-1 $64 $65 $23 $-1 $66 reversed single #
loop $-1 $-1 $67 $30 #
plane-surface $-1 47.03042111808368 0 -4.8383937311011262 0 0 1 1 0 0 forward_v I I I I #
face $-1 $68 $69 $24 $-1 $70 reversed single #
loop $-1 $-1 $71 $31 #
plane-surface $-1 -29.227036121673642 64.574530583232985 126.04967117486052 -1 0 0 0 0.74314483375859142 0.66913059716165679 forward_v I I I I #
face $-1 $72 $73 $25 $-1 $74 forward single #
loop $-1 $75 $76 $32 #
cone-surface $-1 -35.152195236406357 33.117422064202273 4.7582961004865449 0 -0.74314483375859142 -0.66913059716165679 1 0 0 1 I I 0 1 1 forward I I I I #
face $-1 $77 $78 $26 $-1 $79 reversed single #
loop $-1 $-1 $80 $33 #
plane-surface $-1 38.567178550049185 64.574530583232985 126.04967117486052 -1 0 0 0 0.74314483375859142 0.66913059716165679 forward_v I I I I #
face $-1 $81 $82 $27 $-1 $83 forward single #
loop $-1 $84 $85 $34 #
cone-surface $-1 32.64201943531647 33.117422064202273 4.7582961004865449 0 -0.74314483375859142 -0.66913059716165679 1 0 0 1 I I 0 1 1 forward I I I I #
face $-1 $86 $87 $21 $-1 $88 reversed single #
loop $-1 $-1 $89 $35 #
plane-surface $-1 0 0 -7.8383937311011262 0 0 1 1 0 0 forward_v I I I I #
coedge $-1 $90 $91 $92 $93 forward $36 $-1 #
face $-1 $94 $95 $22 $-1 $96 reversed single #
loop $-1 $-1 $97 $38 #
plane-surface $-1 0 0 7.8383937311011262 0 0 1 1 0 0 forward_v I I I I #
coedge $-1 $98 $99 $100 $101 forward $39 $-1 #
face $-1 $102 $103 $23 $-1 $104 reversed single #
loop $-1 $-1 $105 $41 #
plane-surface $-1 42.406433837473557 0 -6.3383937311011262 1 0 0 0 0 -1 forward_v I I I I #
coedge $-1 $106 $107 $108 $109 reversed $42 $-1 #
face $-1 $110 $111 $24 $-1 $112 reversed single #
loop $-1 $-1 $113 $44 #
plane-surface $-1 -35.152195236406357 -12.198882901458404 56.922580899160351 0 0.74314483375859142 0.66913059716165679 1 0 0 forward_v I I I I #
coedge $-1 $114 $115 $116 $117 reversed $45 $-1 #
face $-1 $-1 $118 $25 $-1 $119 forward single #
loop $-1 $120 $121 $47 #
cone-surface $-1 -35.152195236406357 31.833162920661088 3.6019440024953955 0 -0.74314483375859142 -0.66913059716165679 0.5 0 0 1 I I -0.70710678118654779 0.70710678118654713 0.5 forward I I I I #
loop $-1 $-1 $122 $32 #
coedge $-1 $76 $76 $123 $124 reversed $48 $-1 #
face $-1 $125 $126 $26 $-1 $127 reversed single #
loop $-1 $-1 $128 $50 #
plane-surface $-1 32.64201943531647 -12.198882901458404 56.922580899160351 0 0.74314483375859142 0.66913059716165679 1 0 0 forward_v I I I I #
coedge $-1 $129 $130 $131 $132 reversed $51 $-1 #
face $-1 $-1 $133 $27 $-1 $134 forward single #
loop $-1 $135 $136 $53 #
cone-surface $-1 32.64201943531647 31.833162920661088 3.6019440024953955 0 -0.74314483375859142 -0.66913059716165679 0.5 0 0 1 I I -0.70710678118654779 0.70710678118654713 0.5 forward I I I I #
loop $-1 $-1 $137 $34 #
coedge $-1 $85 $85 $138 $139 reversed $54 $-1 #
face $-1 $140 $141 $21 $-1 $142 reversed single #
loop $-1 $-1 $143 $56 #
plane-surface $-1 0 -36.063500945954111 0 0 1 0 0 0 1 forward_v I I I I #
coedge $-1 $144 $145 $146 $147 forward $57 $-1 #
coedge $-1 $148 $59 $149 $150 forward $36 $-1 #
coedge $-1 $59 $148 $151 $152 forward $36 $-1 #
coedge $-1 $153 $154 $59 $93 reversed $155 $-1 #
edge $-1 $156 -36.063500945954111 $157 36.063500945954111 $92 $158 forward 7 unknown #
face $-1 $159 $160 $22 $-1 $161 reversed single #
loop $-1 $-1 $162 $60 #
plane-surface $-1 -58.392207158824164 -34.563500945954111 0 1 0 0 0 0 -1 forward_v I I I I #
coedge $-1 $163 $164 $98 $165 forward $61 $-1 #
coedge $-1 $166 $63 $97 $165 reversed $39 $-1 #
coedge $-1 $63 $166 $167 $168 reversed $39 $-1 #
coedge $-1 $169 $170 $63 $101 reversed $160 $-1 #
edge $-1 $171 -7.8383937311011262 $172 7.8383937311011262 $100 $173 forward 7 unknown #
face $-1 $174 $175 $23 $-1 $176 reversed single #
loop $-1 $-1 $108 $64 #
plane-surface $-1 51.654408398693803 0 0 -1 0 0 0 0 1 forward_v I I I I #
coedge $-1 $177 $178 $179 $180 reversed $65 $-1 #
coedge $-1 $181 $67 $182 $183 reversed $42 $-1 #
coedge $-1 $67 $181 $184 $185 reversed $42 $-1 #
coedge $-1 $186 $187 $67 $109 forward $103 $-1 #
edge $-1 $188 -36.063500945954111 $189 36.063500945954111 $108 $190 forward 7 unknown #
face $-1 $191 $192 $24 $-1 $193 reversed single #
loop $-1 $-1 $194 $68 #
plane-surface $-1 -41.077354351139071 64.574530583232985 126.04967117486052 1 0 0 0 -0.74314483375859142 -0.66913059716165679 forward_v I I I I #
coedge $-1 $195 $196 $197 $198 reversed $69 $-1 #
coedge $-1 $115 $71 $199 $200 reversed $45 $-1 #
coedge $-1 $71 $114 $195 $201 reversed $45 $-1 #
coedge $-1 $197 $202 $71 $117 forward $192 $-1 #
edge $-1 $203 55.186441856329132 $204 59.703063518737672 $116 $205 forward 7 unknown #
loop $-1 $-1 $123 $72 #
plane-surface $-1 -35.152195236406357 -12.198882901458404 56.922580899160351 0 0.74314483375859142 0.66913059716165679 1 0 0 forward_v I I I I #
loop $-1 $-1 $206 $47 #
coedge $-1 $121 $121 $122 $207 reversed $73 $-1 #
coedge $-1 $122 $122 $121 $207 forward $75 $-1 #
coedge $-1 $123 $123 $76 $124 forward $118 $-1 #
edge $-1 $208 -1.8459931896798495e-015 $208 6.2831853071795987 $123 $209 forward 7 unknown #
face $-1 $210 $211 $26 $-1 $212 forward single #
loop $-1 $-1 $213 $77 #
plane-surface $-1 26.716860320583756 64.574530583232985 126.04967117486052 1 0 0 0 -0.74314483375859142 -0.66913059716165679 forward_v I I I I #
coedge $-1 $214 $215 $216 $217 reversed $78 $-1 #
coedge $-1 $130 $80 $218 $219 reversed $51 $-1 #
coedge $-1 $80 $129 $214 $220 reversed $51 $-1 #
coedge $-1 $216 $221 $80 $132 forward $222 $-1 #
edge $-1 $223 55.186441856329132 $224 59.703063518737672 $131 $225 forward 7 unknown #
loop $-1 $-1 $138 $81 #
plane-surface $-1 32.64201943531647 -12.198882901458404 56.922580899160351 0 0.74314483375859142 0.66913059716165679 1 0 0 forward_v I I I I #
loop $-1 $-1 $226 $53 #
coedge $-1 $136 $136 $137 $227 reversed $82 $-1 #
coedge $-1 $137 $137 $136 $227 forward $84 $-1 #
coedge $-1 $138 $138 $85 $139 forward $133 $-1 #
edge $-1 $228 -1.8459931896798495e-015 $228 6.2831853071795987 $138 $229 forward 7 unknown #
face $-1 $230 $231 $21 $-1 $232 reversed single #
loop $-1 $-1 $233 $86 #
plane-surface $-1 -51.654408398693803 0 0 1 0 0 0 0 -1 forward_v I I I I #
coedge $-1 $234 $151 $235 $236 forward $87 $-1 #
coedge $-1 $237 $89 $234 $238 forward $57 $-1 #
coedge $-1 $89 $237 $239 $240 forward $57 $-1 #
coedge $-1 $154 $153 $89 $147 reversed $155 $-1 #
edge $-1 $241 -36.063500945954111 $242 36.063500945954111 $146 $243 forward 7 unknown #
coedge $-1 $91 $90 $233 $244 forward $36 $-1 #
coedge $-1 $245 $246 $90 $150 reversed $231 $-1 #
edge $-1 $157 -51.654408398693803 $247 51.654408398693803 $149 $248 forward 7 unknown #
coedge $-1 $143 $249 $91 $152 reversed $87 $-1 #
edge $-1 $250 -51.654408398693803 $156 51.654408398693803 $151 $251 forward 7 unknown #
coedge $-1 $146 $92 $249 $252 forward $155 $-1 #
coedge $-1 $92 $146 $245 $253 reversed $155 $-1 #
loop $-1 $-1 $153 $230 #
vertex $-1 $93 $254 #
vertex $-1 $93 $255 #
straight-curve $-1 51.654408398693803 0 7.8383937311011262 0 1 0 I I #
face $-1 $256 $257 $22 $-1 $258 reversed single #
loop $-1 $-1 $100 $94 #
plane-surface $-1 -55.023307778758983 -33.063500945954111 0 0 -1 0 0 0 -1 forward_v I I I I #
coedge $-1 $259 $260 $261 $262 forward $95 $-1 #
coedge $-1 $263 $97 $170 $264 forward $61 $-1 #
coedge $-1 $97 $263 $265 $266 forward $61 $-1 #
edge $-1 $267 -36.063500945954111 $172 -33.063500945954111 $97 $268 forward 7 unknown #
coedge $-1 $99 $98 $269 $270 reversed $39 $-1 #
coedge $-1 $271 $272 $99 $168 forward $257 $-1 #
edge $-1 $171 33.063500945954111 $273 36.063500945954111 $167 $274 forward 7 unknown #
coedge $-1 $261 $100 $272 $275 reversed $160 $-1 #
coedge $-1 $100 $261 $163 $264 reversed $160 $-1 #
vertex $-1 $168 $276 #
vertex $-1 $264 $277 #
straight-curve $-1 -51.654408398693803 -33.063500945954111 0 0 0 1 I I #
face $-1 $278 $279 $23 $-1 $280 reversed single #
loop $-1 $-1 $184 $102 #
plane-surface $-1 0 -36.063500945954111 0 0 1 0 0 0 1 forward_v I I I I #
coedge $-1 $281 $105 $282 $283 reversed $65 $-1 #
coedge $-1 $105 $281 $181 $284 reversed $65 $-1 #
coedge $-1 $182 $285 $105 $180 forward $286 $-1 #
edge $-1 $287 -4.6691968655505631 $288 -1.6691968655505631 $179 $289 forward 7 unknown #
coedge $-1 $107 $106 $178 $284 forward $42 $-1 #
coedge $-1 $290 $179 $106 $183 forward $286 $-1 #
edge $-1 $288 18.891223278431717 $188 28.139197839651963 $182 $291 forward 7 unknown #
coedge $-1 $292 $293 $107 $185 forward $175 $-1 #
edge $-1 $189 -28.139197839651963 $294 -18.891223278431717 $184 $295 forward 7 unknown #
coedge $-1 $296 $108 $293 $297 forward $103 $-1 #
coedge $-1 $108 $296 $290 $298 reversed $103 $-1 #
vertex $-1 $298 $299 #
vertex $-1 $297 $300 #
straight-curve $-1 51.654408398693803 0 -4.8383937311011262 0 -1 0 I I #
face $-1 $-1 $301 $24 $-1 $302 forward single #
loop $-1 $-1 $116 $110 #
plane-surface $-1 0 36.063500945954111 0 0 -1 0 0 0 -1 forward_v I I I I #
coedge $-1 $303 $304 $305 $306 reversed $111 $-1 #
coedge $-1 $307 $113 $115 $201 forward $69 $-1 #
coedge $-1 $113 $307 $303 $308 forward $69 $-1 #
coedge $-1 $305 $116 $113 $198 forward $192 $-1 #
edge $-1 $204 11.650938503470464 $309 23.501256732935893 $197 $310 forward 7 unknown #
coedge $-1 $311 $312 $114 $200 forward $301 $-1 #
edge $-1 $313 -0.29054865584230072 $203 3.7762356543376185 $199 $314 forward 7 unknown #
edge $-1 $204 -72.127001891908236 $313 -66.049288023448852 $115 $315 forward 7 unknown #
coedge $-1 $116 $305 $311 $316 reversed $192 $-1 #
vertex $-1 $316 $317 #
vertex $-1 $117 $318 #
straight-curve $-1 -29.227036121673642 36.063500945954111 63.02483558743026 0 0 -1 I I #
coedge $-1 $206 $206 $-1 $319 reversed $120 $-1 #
edge $-1 $320 0 $320 6.2831853071796004 $121 $321 forward 7 unknown #
vertex $-1 $124 $322 #
ellipse-curve $-1 -35.152195236406357 34.030108790864155 5.5800828998968566 0 0.74314483375859142 0.66913059716165679 1 0 0 1 I I #
face $-1 $-1 $222 $26 $-1 $323 reversed single #
loop $-1 $-1 $324 $125 #
plane-surface $-1 0 0 7.8383937311011262 0 0 1 1 0 0 forward_v I I I I #
coedge $-1 $325 $326 $327 $328 reversed $126 $-1 #
coedge $-1 $329 $128 $130 $220 forward $78 $-1 #
coedge $-1 $128 $329 $325 $330 forward $78 $-1 #
coedge $-1 $327 $131 $128 $217 forward $222 $-1 #
edge $-1 $224 -22.24616883239095 $331 -10.39585060292552 $216 $332 forward 7 unknown #
coedge $-1 $333 $334 $129 $219 forward $211 $-1 #
edge $-1 $335 -0.29054865584230072 $223 3.7762356543376185 $218 $336 forward 7 unknown #
edge $-1 $224 -72.127001891908236 $335 -66.049288023448852 $130 $337 forward 7 unknown #
coedge $-1 $131 $327 $333 $338 reversed $222 $-1 #
loop $-1 $-1 $327 $210 #
vertex $-1 $338 $339 #
vertex $-1 $132 $340 #
straight-curve $-1 38.567178550049185 36.063500945954111 63.02483558743026 0 0 -1 I I #
coedge $-1 $226 $226 $-1 $341 reversed $135 $-1 #
edge $-1 $342 0 $342 6.2831853071796004 $136 $343 forward 7 unknown #
vertex $-1 $139 $344 #
ellipse-curve $-1 32.64201943531647 34.030108790864155 5.5800828998968566 0 0.74314483375859142 0.66913059716165679 1 0 0 1 I I #
face $-1 $-1 $155 $21 $-1 $345 reversed single #
loop $-1 $-1 $245 $140 #
plane-surface $-1 0 36.063500945954111 0 0 -1 0 0 0 -1 forward_v I I I I #
coedge $-1 $346 $235 $148 $244 reversed $141 $-1 #
coedge $-1 $249 $143 $144 $238 reversed $87 $-1 #
coedge $-1 $233 $347 $143 $236 reversed $141 $-1 #
edge $-1 $250 -7.8383937311011262 $348 7.8383937311011262 $235 $349 forward 7 unknown #
coedge $-1 $145 $144 $347 $350 forward $57 $-1 #
edge $-1 $242 -51.654408398693803 $348 51.654408398693803 $234 $351 forward 7 unknown #
coedge $-1 $246 $245 $145 $240 reversed $231 $-1 #
edge $-1 $352 -51.654408398693803 $241 51.654408398693803 $239 $353 forward 7 unknown #
vertex $-1 $147 $354 #
vertex $-1 $252 $355 #
straight-curve $-1 51.654408398693803 0 -7.8383937311011262 0 -1 0 I I #
edge $-1 $247 -36.063500945954111 $250 36.063500945954111 $233 $356 forward 7 unknown #
coedge $-1 $239 $149 $154 $253 forward $231 $-1 #
coedge $-1 $149 $239 $346 $357 reversed $231 $-1 #
vertex $-1 $150 $358 #
straight-curve $-1 0 36.063500945954111 7.8383937311011262 -1 0 0 I I #
coedge $-1 $151 $234 $153 $252 reversed $87 $-1 #
vertex $-1 $244 $359 #
straight-curve $-1 0 -36.063500945954111 7.8383937311011262 1 0 0 I I #
edge $-1 $156 -7.8383937311011262 $242 7.8383937311011262 $153 $360 forward 7 unknown #
edge $-1 $157 -7.8383937311011262 $241 7.8383937311011262 $154 $361 forward 7 unknown #
point $-1 51.654408398693803 -36.063500945954111 7.8383937311011262 #
point $-1 51.654408398693803 36.063500945954111 7.8383937311011262 #
face $-1 $-1 $362 $22 $-1 $363 reversed single #
loop $-1 $-1 $167 $159 #
plane-surface $-1 0 0 -7.8383937311011262 0 0 1 1 0 0 forward_v I I I I #
coedge $-1 $364 $162 $365 $366 reversed $95 $-1 #
coedge $-1 $162 $364 $263 $367 reversed $95 $-1 #
coedge $-1 $170 $169 $162 $262 reversed $160 $-1 #
edge $-1 $368 -7.8383937311011262 $369 7.8383937311011262 $261 $370 forward 7 unknown #
coedge $-1 $164 $163 $260 $367 forward $61 $-1 #
edge $-1 $172 -3.3688993800651801 $368 3.3688993800651801 $170 $371 forward 7 unknown #
coedge $-1 $372 $269 $164 $266 reversed $362 $-1 #
edge $-1 $373 -58.392207158824164 $267 -51.654408398693803 $265 $374 forward 7 unknown #
vertex $-1 $270 $375 #
straight-curve $-1 -51.654408398693803 0 7.8383937311011262 0 1 0 I I #
coedge $-1 $265 $376 $166 $270 forward $362 $-1 #
edge $-1 $273 -7.8383937311011262 $267 7.8383937311011262 $269 $377 forward 7 unknown #
coedge $-1 $365 $167 $376 $378 forward $257 $-1 #
coedge $-1 $167 $365 $169 $275 forward $257 $-1 #
vertex $-1 $378 $379 #
straight-curve $-1 -51.654408398693803 0 -7.8383937311011262 0 -1 0 I I #
edge $-1 $369 -3.3688993800651801 $171 3.3688993800651801 $169 $380 forward 7 unknown #
point $-1 -51.654408398693803 -33.063500945954111 -7.8383937311011262 #
point $-1 -51.654408398693803 -33.063500945954111 7.8383937311011262 #
face $-1 $-1 $286 $23 $-1 $381 reversed single #
loop $-1 $-1 $282 $174 #
plane-surface $-1 0 0 -7.8383937311011262 0 0 1 1 0 0 forward_v I I I I #
coedge $-1 $178 $177 $292 $382 reversed $65 $-1 #
coedge $-1 $383 $384 $177 $283 forward $279 $-1 #
edge $-1 $385 -36.063500945954111 $287 36.063500945954111 $282 $386 forward 7 unknown #
edge $-1 $288 -36.063500945954111 $294 36.063500945954111 $178 $387 forward 7 unknown #
coedge $-1 $179 $290 $383 $388 reversed $286 $-1 #
loop $-1 $-1 $182 $278 #
vertex $-1 $388 $389 #
vertex $-1 $183 $390 #
straight-curve $-1 42.406433837473557 36.063500945954111 -3.1691968655505631 0 0 1 I I #
coedge $-1 $285 $182 $187 $298 forward $286 $-1 #
straight-curve $-1 23.51521055904184 36.063500945954111 -4.8383937311011262 1 0 0 I I #
coedge $-1 $391 $184 $281 $382 forward $175 $-1 #
coedge $-1 $184 $391 $186 $297 reversed $175 $-1 #
vertex $-1 $185 $392 #
straight-curve $-1 23.51521055904184 -36.063500945954111 -4.8383937311011262 -1 0 0 I I #
coedge $-1 $187 $186 $393 $394 reversed $103 $-1 #
edge $-1 $189 4.8383937311011262 $395 7.8383937311011262 $186 $396 forward 7 unknown #
edge $-1 $188 4.8383937311011262 $397 7.8383937311011262 $187 $398 forward 7 unknown #
point $-1 51.654408398693803 36.063500945954111 -4.8383937311011262 #
point $-1 51.654408398693803 -36.063500945954111 -4.8383937311011262 #
loop $-1 $-1 $199 $191 #
plane-surface $-1 0 0 7.8383937311011262 0 0 1 1 0 0 forward_v I I I I #
coedge $-1 $304 $194 $196 $308 reversed $111 $-1 #
coedge $-1 $194 $303 $399 $400 reversed $111 $-1 #
coedge $-1 $202 $197 $194 $306 forward $192 $-1 #
edge $-1 $309 -59.703063518737672 $401 -55.186441856329132 $305 $402 forward 7 unknown #
coedge $-1 $196 $195 $312 $403 reversed $69 $-1 #
edge $-1 $404 66.049288023448852 $309 72.127001891908236 $303 $405 forward 7 unknown #
vertex $-1 $198 $406 #
straight-curve $-1 -17.576097618203178 36.063500945954111 3.3217720686925887 -1 0 0 I I #
coedge $-1 $399 $199 $202 $316 forward $301 $-1 #
coedge $-1 $199 $399 $307 $403 forward $301 $-1 #
vertex $-1 $200 $407 #
straight-curve $-1 -29.227036121673642 32.287265291616492 7.838393731101128 0 1 0 I I #
straight-curve $-1 -29.227036121673642 -12.198882901458404 56.922580899160351 0 -0.66913059716165679 0.74314483375859142 I I #
edge $-1 $203 29.227036121673642 $401 41.077354351139071 $202 $408 forward 7 unknown #
point $-1 -29.227036121673642 36.063500945954111 7.8383937311011262 #
point $-1 -29.227036121673642 36.063500945954111 3.3217720686925887 #
edge $-1 $409 1 $409 0 $206 $-1 forward 7 unknown #
vertex $-1 $207 $410 #
ellipse-curve $-1 -35.152195236406357 32.204735337540384 3.9365093010762235 0 0.74314483375859142 0.66913059716165679 1 0 0 1 I I #
point $-1 -34.152195236406357 34.030108790864162 5.5800828998968655 #
plane-surface $-1 0 36.063500945954111 0 0 -1 0 0 0 -1 forward_v I I I I #
coedge $-1 $334 $333 $326 $411 forward $211 $-1 #
coedge $-1 $326 $213 $215 $330 reversed $126 $-1 #
coedge $-1 $213 $325 $324 $411 reversed $126 $-1 #
coedge $-1 $221 $216 $213 $328 forward $222 $-1 #
edge $-1 $331 -59.703063518737672 $412 -55.186441856329132 $327 $413 forward 7 unknown #
coedge $-1 $215 $214 $334 $414 reversed $78 $-1 #
edge $-1 $415 66.049288023448852 $331 72.127001891908236 $325 $416 forward 7 unknown #
vertex $-1 $217 $417 #
straight-curve $-1 16.321009717658235 36.063500945954111 3.3217720686925887 -1 0 0 I I #
coedge $-1 $324 $218 $221 $338 forward $211 $-1 #
coedge $-1 $218 $324 $329 $414 forward $211 $-1 #
vertex $-1 $219 $418 #
straight-curve $-1 38.567178550049185 32.287265291616492 7.838393731101128 0 1 0 I I #
straight-curve $-1 38.567178550049185 -12.198882901458404 56.922580899160351 0 -0.66913059716165679 0.74314483375859142 I I #
edge $-1 $223 -38.567178550049185 $412 -26.716860320583756 $221 $419 forward 7 unknown #
point $-1 38.567178550049185 36.063500945954111 7.8383937311011262 #
point $-1 38.567178550049185 36.063500945954111 3.3217720686925887 #
edge $-1 $420 1 $420 0 $226 $-1 forward 7 unknown #
vertex $-1 $227 $421 #
ellipse-curve $-1 32.64201943531647 32.204735337540384 3.9365093010762235 0 0.74314483375859142 0.66913059716165679 1 0 0 1 I I #
point $-1 33.64201943531647 34.030108790864162 5.5800828998968655 #
plane-surface $-1 51.654408398693803 0 0 -1 0 0 0 0 1 forward_v I I I I #
coedge $-1 $347 $233 $246 $357 forward $141 $-1 #
coedge $-1 $235 $346 $237 $350 reversed $141 $-1 #
vertex $-1 $350 $422 #
straight-curve $-1 -51.654408398693803 -36.063500945954111 0 0 0 -1 I I #
edge $-1 $348 -36.063500945954111 $352 36.063500945954111 $347 $423 forward 7 unknown #
straight-curve $-1 0 -36.063500945954111 -7.8383937311011262 -1 0 0 I I #
vertex $-1 $240 $424 #
straight-curve $-1 0 36.063500945954111 -7.8383937311011262 1 0 0 I I #
point $-1 51.654408398693803 36.063500945954111 -7.8383937311011262 #
point $-1 51.654408398693803 -36.063500945954111 -7.8383937311011262 #
straight-curve $-1 -51.654408398693803 0 7.8383937311011262 0 -1 0 I I #
edge $-1 $247 -7.8383937311011262 $352 7.8383937311011262 $246 $425 forward 7 unknown #
point $-1 -51.654408398693803 36.063500945954111 7.8383937311011262 #
point $-1 -51.654408398693803 -36.063500945954111 7.8383937311011262 #
straight-curve $-1 51.654408398693803 -36.063500945954111 0 0 0 -1 I I #
straight-curve $-1 51.654408398693803 36.063500945954111 0 0 0 -1 I I #
loop $-1 $-1 $269 $256 #
plane-surface $-1 0 -36.063500945954111 0 0 1 0 0 0 1 forward_v I I I I #
coedge $-1 $260 $259 $372 $426 reversed $95 $-1 #
coedge $-1 $272 $271 $259 $366 forward $257 $-1 #
edge $-1 $427 -1.5 $369 1.5 $259 $428 forward 7 unknown #
edge $-1 $368 -1.5 $373 1.5 $260 $429 forward 7 unknown #
vertex $-1 $264 $430 #
vertex $-1 $275 $431 #
straight-curve $-1 -58.392207158824164 -33.063500945954111 0 0 0 -1 I I #
straight-curve $-1 -55.023307778758983 -33.063500945954111 7.8383937311011262 -1 0 0 I I #
coedge $-1 $376 $265 $364 $426 forward $362 $-1 #
vertex $-1 $367 $432 #
straight-curve $-1 0 -36.063500945954111 7.8383937311011262 1 0 0 I I #
point $-1 -51.654408398693803 -36.063500945954111 7.8383937311011262 #
coedge $-1 $269 $372 $271 $378 reversed $362 $-1 #
straight-curve $-1 -51.654408398693803 -36.063500945954111 0 0 0 1 I I #
edge $-1 $273 -3.3688993800651801 $427 3.3688993800651801 $376 $433 forward 7 unknown #
point $-1 -51.654408398693803 -36.063500945954111 -7.8383937311011262 #
straight-curve $-1 -55.023307778758983 -33.063500945954111 -7.8383937311011262 1 0 0 I I #
plane-surface $-1 0 36.063500945954111 0 0 -1 0 0 0 -1 forward_v I I I I #
edge $-1 $294 1.6691968655505631 $385 4.6691968655505631 $292 $434 forward 7 unknown #
coedge $-1 $393 $282 $285 $388 forward $279 $-1 #
coedge $-1 $282 $393 $391 $435 forward $279 $-1 #
vertex $-1 $382 $436 #
straight-curve $-1 42.406433837473557 0 -7.8383937311011262 0 1 0 I I #
straight-curve $-1 42.406433837473557 0 -4.8383937311011262 0 -1 0 I I #
edge $-1 $287 42.406433837473557 $397 51.654408398693803 $285 $437 forward 7 unknown #
point $-1 42.406433837473557 36.063500945954111 -7.8383937311011262 #
point $-1 42.406433837473557 36.063500945954111 -4.8383937311011262 #
coedge $-1 $293 $292 $384 $435 reversed $175 $-1 #
point $-1 42.406433837473557 -36.063500945954111 -4.8383937311011262 #
coedge $-1 $384 $383 $296 $394 forward $279 $-1 #
edge $-1 $397 -36.063500945954111 $395 36.063500945954111 $296 $438 forward 7 unknown #
vertex $-1 $297 $439 #
straight-curve $-1 51.654408398693803 -36.063500945954111 0 0 0 -1 I I #
vertex $-1 $394 $440 #
straight-curve $-1 51.654408398693803 36.063500945954111 0 0 0 -1 I I #
coedge $-1 $312 $311 $304 $400 forward $301 $-1 #
edge $-1 $401 -3.7762356543376185 $404 0.29054865584230072 $399 $441 forward 7 unknown #
vertex $-1 $400 $442 #
straight-curve $-1 -41.077354351139071 36.063500945954111 63.02483558743026 0 0 1 I I #
edge $-1 $404 -23.501256732935893 $313 -11.650938503470464 $312 $443 forward 7 unknown #
vertex $-1 $403 $444 #
straight-curve $-1 -41.077354351139071 -12.198882901458404 56.922580899160351 0 0.66913059716165679 -0.74314483375859142 I I #
point $-1 -41.077354351139071 36.063500945954111 3.3217720686925887 #
point $-1 -29.227036121673642 31.996716635774192 7.838393731101128 #
straight-curve $-1 0 36.063500945954111 7.8383937311011262 -1 0 0 I I #
vertex $-1 $319 $445 #
point $-1 -34.152195236406357 32.204735337540384 3.9365093010762235 #
edge $-1 $412 -3.7762356543376185 $415 0.29054865584230072 $324 $446 forward 7 unknown #
vertex $-1 $328 $447 #
straight-curve $-1 26.716860320583756 36.063500945954111 63.02483558743026 0 0 1 I I #
edge $-1 $415 10.39585060292552 $335 22.24616883239095 $334 $448 forward 7 unknown #
vertex $-1 $414 $449 #
straight-curve $-1 26.716860320583756 -12.198882901458404 56.922580899160351 0 0.66913059716165679 -0.74314483375859142 I I #
point $-1 26.716860320583756 36.063500945954111 3.3217720686925887 #
point $-1 38.567178550049185 31.996716635774192 7.838393731101128 #
straight-curve $-1 0 36.063500945954111 7.8383937311011262 -1 0 0 I I #
vertex $-1 $341 $450 #
point $-1 33.64201943531647 32.204735337540384 3.9365093010762235 #
point $-1 -51.654408398693803 -36.063500945954111 -7.8383937311011262 #
straight-curve $-1 -51.654408398693803 0 -7.8383937311011262 0 1 0 I I #
point $-1 -51.654408398693803 36.063500945954111 -7.8383937311011262 #
straight-curve $-1 -51.654408398693803 36.063500945954111 0 0 0 -1 I I #
edge $-1 $373 -7.8383937311011262 $427 7.8383937311011262 $364 $451 forward 7 unknown #
vertex $-1 $366 $452 #
straight-curve $-1 -58.392207158824164 -34.563500945954111 -7.8383937311011262 0 1 0 I I #
straight-curve $-1 -58.392207158824164 -34.563500945954111 7.8383937311011262 0 -1 0 I I #
point $-1 -58.392207158824164 -33.063500945954111 7.8383937311011262 #
point $-1 -58.392207158824164 -33.063500945954111 -7.8383937311011262 #
point $-1 -58.392207158824164 -36.063500945954111 7.8383937311011262 #
straight-curve $-1 -55.023307778758983 -36.063500945954111 -7.8383937311011262 -1 0 0 I I #
straight-curve $-1 42.406433837473557 -36.063500945954111 -3.1691968655505631 0 0 -1 I I #
edge $-1 $395 -106.67771617745279 $385 -97.429741616232548 $391 $453 forward 7 unknown #
point $-1 42.406433837473557 -36.063500945954111 -7.8383937311011262 #
straight-curve $-1 0 36.063500945954111 -7.8383937311011262 1 0 0 I I #
straight-curve $-1 51.654408398693803 0 -7.8383937311011262 0 -1 0 I I #
point $-1 51.654408398693803 -36.063500945954111 -7.8383937311011262 #
point $-1 51.654408398693803 36.063500945954111 -7.8383937311011262 #
straight-curve $-1 -41.077354351139071 32.287265291616492 7.838393731101128 0 -1 0 I I #
point $-1 -41.077354351139071 36.063500945954111 7.8383937311011262 #
straight-curve $-1 -17.576097618203178 31.996716635774188 7.838393731101128 1 0 0 I I #
point $-1 -41.077354351139071 31.996716635774192 7.838393731101128 #
point $-1 -35.152195236406357 31.461590503781792 3.2673787039145674 #
straight-curve $-1 26.716860320583756 32.287265291616492 7.838393731101128 0 -1 0 I I #
point $-1 26.716860320583756 36.063500945954111 7.8383937311011262 #
straight-curve $-1 16.321009717658235 31.996716635774188 7.838393731101128 1 0 0 I I #
point $-1 26.716860320583756 31.996716635774192 7.838393731101128 #
point $-1 32.64201943531647 31.461590503781792 3.2673787039145674 #
straight-curve $-1 -58.392207158824164 -36.063500945954111 0 0 0 -1 I I #
point $-1 -58.392207158824164 -36.063500945954111 -7.8383937311011262 #
straight-curve $-1 -55.023307778758983 -36.063500945954111 -7.8383937311011262 -1 0 0 I I #
End-of-ACIS-data 