500 0 14 0           
7 Unknown 11 ACIS 5.0 NT 24 Thu Mar 25 18:39:59 1999 
-1 9.9999999999999995e-007 1e-010 
body $-1 $14 $-1 $15 #
body $-1 $16 $-1 $17 #
body $-1 $18 $-1 $19 #
body $-1 $20 $-1 $21 #
body $-1 $22 $-1 $23 #
body $-1 $24 $-1 $25 #
body $-1 $26 $-1 $27 #
body $-1 $28 $-1 $29 #
body $-1 $30 $-1 $31 #
body $-1 $32 $-1 $33 #
body $-1 $34 $-1 $35 #
body $-1 $36 $-1 $37 #
body $-1 $38 $-1 $39 #
body $-1 $40 $-1 $41 #
lump $-1 $-1 $42 $0 #
transform $-1 1 0 0 0 1 0 0 0 1 50.007629627368999 25.042579234978334 10.704714814070483 1 rotate no_reflect no_shear #
lump $-1 $-1 $43 $1 #
transform $-1 1 0 0 0 1 0 0 0 1 50.007629627368999 25.042579234978334 10.704714814070483 1 rotate no_reflect no_shear #
lump $-1 $-1 $44 $2 #
transform $-1 1 0 0 0 1 0 0 0 1 50.007629627368999 25.042579234978334 10.704714814070483 1 rotate no_reflect no_shear #
lump $-1 $-1 $45 $3 #
transform $-1 1 0 0 0 1 0 0 0 1 50.007629627368999 25.042579234978334 10.704714814070483 1 rotate no_reflect no_shear #
lump $-1 $-1 $46 $4 #
transform $-1 1 0 0 0 1 0 0 0 1 50.007629627368999 25.042579234978334 10.704714814070483 1 rotate no_reflect no_shear #
lump $-1 $-1 $47 $5 #
transform $-1 1 0 0 0 1 0 0 0 1 50.007629627368999 25.042579234978334 10.704714814070483 1 rotate no_reflect no_shear #
lump $-1 $-1 $48 $6 #
transform $-1 1 0 0 0 1 0 0 0 1 50.007629627368999 25.042579234978334 10.704714814070483 1 rotate no_reflect no_shear #
lump $-1 $-1 $49 $7 #
transform $-1 1 0 0 0 1 0 0 0 1 50.007629627368999 25.042579234978334 10.704714814070483 1 rotate no_reflect no_shear #
lump $-1 $-1 $50 $8 #
transform $-1 1 0 0 0 1 0 0 0 1 50.007629627368999 25.042579234978334 10.704714814070483 1 rotate no_reflect no_shear #
lump $-1 $-1 $51 $9 #
transform $-1 1 0 0 0 1 0 0 0 1 50.007629627368999 25.042579234978334 10.704714814070483 1 rotate no_reflect no_shear #
lump $-1 $-1 $52 $10 #
transform $-1 1 0 0 0 1 0 0 0 1 50.007629627368999 25.042579234978334 10.704714814070483 1 rotate no_reflect no_shear #
lump $-1 $-1 $53 $11 #
transform $-1 1 0 0 0 1 0 0 0 1 50.007629627368999 25.042579234978334 10.704714814070483 1 rotate no_reflect no_shear #
lump $-1 $-1 $54 $12 #
transform $-1 1 0 0 0 1 0 0 0 1 50.007629627368999 25.042579234978334 10.704714814070483 1 rotate no_reflect no_shear #
lump $-1 $-1 $55 $13 #
transform $-1 1 0 0 0 1 0 0 0 1 50.007629627368999 25.042579234978334 10.704714814070483 1 rotate no_reflect no_shear #
shell $-1 $-1 $-1 $56 $-1 $14 #
shell $-1 $-1 $-1 $57 $-1 $16 #
shell $-1 $-1 $-1 $58 $-1 $18 #
shell $-1 $-1 $-1 $59 $-1 $20 #
shell $-1 $-1 $-1 $60 $-1 $22 #
shell $-1 $-1 $-1 $61 $-1 $24 #
shell $-1 $-1 $-1 $62 $-1 $26 #
shell $-1 $-1 $-1 $63 $-1 $28 #
shell $-1 $-1 $-1 $64 $-1 $30 #
shell $-1 $-1 $-1 $65 $-1 $32 #
shell $-1 $-1 $-1 $66 $-1 $34 #
shell $-1 $-1 $-1 $67 $-1 $36 #
shell $-1 $-1 $-1 $68 $-1 $38 #
shell $-1 $-1 $-1 $69 $-1 $40 #
face $-1 $70 $71 $42 $-1 $72 forward single #
face $-1 $73 $74 $43 $-1 $75 reversed single #
face $-1 $76 $77 $44 $-1 $78 reversed single #
face $-1 $79 $80 $45 $-1 $81 forward single #
face $-1 $82 $83 $46 $-1 $84 forward single #
face $-1 $85 $86 $47 $-1 $87 reversed single #
face $-1 $88 $89 $48 $-1 $90 forward single #
face $-1 $91 $92 $49 $-1 $93 forward single #
face $-1 $94 $95 $50 $-1 $96 reversed single #
face $-1 $97 $98 $51 $-1 $99 forward single #
face $-1 $100 $101 $52 $-1 $102 forward single #
face $-1 $103 $104 $53 $-1 $105 reversed single #
face $-1 $106 $107 $54 $-1 $108 forward single #
face $-1 $109 $110 $55 $-1 $111 forward single #
face $-1 $112 $113 $42 $-1 $114 reversed single #
loop $-1 $-1 $115 $56 #
plane-surface $-1 0 0 10.704714814070483 0 0 1 1 0 0 forward_v I I I I #
face $-1 $116 $117 $43 $-1 $118 reversed single #
loop $-1 $-1 $119 $57 #
plane-surface $-1 0 -19.014044650272915 5.3015568102888793 0 0 1 1 0 0 forward_v I I I I #
face $-1 $120 $121 $44 $-1 $122 reversed single #
loop $-1 $-1 $123 $58 #
plane-surface $-1 67.245189259262276 13.932028718721371 148.04303727612623 0 -1 0 -0.78801076186113728 0 -0.61566146476048833 forward_v I I I I #
face $-1 $124 $125 $45 $-1 $126 forward single #
loop $-1 $127 $128 $59 #
cone-surface $-1 48.422039008814203 6.5858016556513626 8.8717244855994952 -0.78801076186113728 0 -0.61566146476048833 0.30783073238024417 0 -0.39400538093056864 1 I I 0 1 0.5 forward I I I I #
face $-1 $129 $130 $46 $-1 $131 forward single #
loop $-1 $132 $133 $60 #
cone-surface $-1 48.422039008814203 10.993537893493368 8.8717244855994952 -0.78801076186113728 0 -0.61566146476048833 0.30783073238024417 0 -0.39400538093056864 1 I I 0 1 0.5 forward I I I I #
face $-1 $134 $135 $47 $-1 $136 reversed single #
loop $-1 $-1 $137 $61 #
plane-surface $-1 -118.21787323129293 -5.7260193870086056 80.165351218197188 0 -1 0 0.68199836817093118 0 -0.7313536940579346 forward_v I I I I #
face $-1 $138 $139 $48 $-1 $140 forward single #
loop $-1 $141 $142 $62 #
cone-surface $-1 -47.034466259616686 -10.91136987169353 7.7927826756527905 0.68199836817093118 0 -0.7313536940579346 0.7313536940579346 0 0.68199836817093118 1 I I 0 1 1 forward I I I I #
face $-1 $143 $144 $49 $-1 $145 forward single #
loop $-1 $146 $147 $63 #
cone-surface $-1 -47.034466259616686 -7.8001595808825748 7.7927826756527905 0.68199836817093118 0 -0.7313536940579346 0.7313536940579346 0 0.68199836817093118 1 I I 0 1 1 forward I I I I #
face $-1 $148 $149 $50 $-1 $150 reversed single #
loop $-1 $-1 $151 $64 #
plane-surface $-1 -118.21787323129293 6.9500103798400037 80.165351218197188 0 -1 0 0.68199836817093118 0 -0.7313536940579346 forward_v I I I I #
face $-1 $152 $153 $51 $-1 $154 forward single #
loop $-1 $155 $156 $65 #
cone-surface $-1 -47.034466259616686 1.7646598951550772 7.7927826756527905 0.68199836817093118 0 -0.7313536940579346 0.7313536940579346 0 0.68199836817093118 1 I I 0 1 1 forward I I I I #
face $-1 $157 $158 $52 $-1 $159 forward single #
loop $-1 $160 $161 $66 #
cone-surface $-1 -47.034466259616686 4.8758701859660363 7.7927826756527905 0.68199836817093118 0 -0.7313536940579346 0.7313536940579346 0 0.68199836817093118 1 I I 0 1 1 forward I I I I #
face $-1 $162 $163 $53 $-1 $164 reversed single #
loop $-1 $-1 $165 $67 #
plane-surface $-1 -118.21787323129293 19.626040146688609 80.165351218197188 0 -1 0 0.68199836817093118 0 -0.7313536940579346 forward_v I I I I #
face $-1 $166 $167 $54 $-1 $168 forward single #
loop $-1 $169 $170 $68 #
cone-surface $-1 -47.034466259616686 14.440689662003685 7.7927826756527905 0.68199836817093118 0 -0.7313536940579346 0.7313536940579346 0 0.68199836817093118 1 I I 0 1 1 forward I I I I #
face $-1 $171 $172 $55 $-1 $173 forward single #
loop $-1 $174 $175 $69 #
cone-surface $-1 -47.034466259616686 17.551899952814644 7.7927826756527905 0.68199836817093118 0 -0.7313536940579346 0.7313536940579346 0 0.68199836817093118 1 I I 0 1 1 forward I I I I #
face $-1 $176 $177 $42 $-1 $178 reversed single #
loop $-1 $-1 $179 $70 #
plane-surface $-1 0 0 -10.704714814070483 0 0 1 1 0 0 forward_v I I I I #
coedge $-1 $180 $181 $182 $183 forward $71 $-1 #
face $-1 $184 $185 $43 $-1 $186 reversed single #
loop $-1 $-1 $187 $73 #
plane-surface $-1 0 -12.985510065567498 8.0031358121796803 0 -1 0 0 0 -1 forward_v I I I I #
coedge $-1 $188 $189 $190 $191 reversed $74 $-1 #
face $-1 $192 $193 $44 $-1 $194 reversed single #
loop $-1 $-1 $195 $76 #
plane-surface $-1 -11.567911383802979 8.7896697745723671 86.467496264954235 0.78801076186113728 0 0.61566146476048833 0.61566146476048833 0 -0.78801076186113728 forward_v I I I I #
coedge $-1 $196 $197 $198 $199 reversed $77 $-1 #
face $-1 $-1 $200 $45 $-1 $201 forward single #
loop $-1 $202 $203 $79 #
cone-surface $-1 47.831030937418348 6.5858016556513626 8.4099783870291294 -0.78801076186113728 0 -0.61566146476048833 0.15391536619012208 0 -0.19700269046528432 1 I I -0.70710678118654746 0.70710678118654746 0.25 forward I I I I #
loop $-1 $-1 $204 $59 #
coedge $-1 $128 $128 $205 $206 reversed $80 $-1 #
face $-1 $-1 $207 $46 $-1 $208 forward single #
loop $-1 $209 $210 $82 #
cone-surface $-1 47.831030937418348 10.993537893493368 8.4099783870291294 -0.78801076186113728 0 -0.61566146476048833 0.15391536619012208 0 -0.19700269046528432 1 I I -0.70710678118654746 0.70710678118654746 0.25 forward I I I I #
loop $-1 $-1 $211 $60 #
coedge $-1 $133 $133 $212 $213 reversed $83 $-1 #
face $-1 $214 $215 $47 $-1 $216 forward single #
loop $-1 $-1 $217 $85 #
plane-surface $-1 -50.007629627368985 -9.3557647262880526 7.0188219000825285 -0.68199836817093118 0 0.7313536940579346 0.7313536940579346 0 0.68199836817093118 forward_v I I I I #
coedge $-1 $218 $219 $220 $221 reversed $86 $-1 #
face $-1 $-1 $222 $48 $-1 $223 forward single #
loop $-1 $224 $225 $88 #
cone-surface $-1 -45.696621778580671 -10.91136987169353 6.358120147200113 0.68199836817093118 0 -0.7313536940579346 0.3656768470289673 0 0.34099918408546559 1 I I -0.70710678118654746 0.70710678118654746 0.5 forward I I I I #
loop $-1 $-1 $226 $62 #
coedge $-1 $142 $142 $227 $228 reversed $89 $-1 #
face $-1 $-1 $229 $49 $-1 $230 forward single #
loop $-1 $231 $232 $91 #
cone-surface $-1 -45.696621778580671 -7.8001595808825748 6.358120147200113 0.68199836817093118 0 -0.7313536940579346 0.3656768470289673 0 0.34099918408546559 1 I I -0.70710678118654746 0.70710678118654746 0.5 forward I I I I #
loop $-1 $-1 $233 $63 #
coedge $-1 $147 $147 $234 $235 reversed $92 $-1 #
face $-1 $236 $237 $50 $-1 $238 reversed single #
loop $-1 $-1 $239 $94 #
plane-surface $-1 -50.007629627368985 3.3202650405605567 7.0188219000825285 -0.68199836817093118 0 0.7313536940579346 0.7313536940579346 0 0.68199836817093118 forward_v I I I I #
coedge $-1 $240 $241 $242 $243 reversed $95 $-1 #
face $-1 $-1 $244 $51 $-1 $245 forward single #
loop $-1 $246 $247 $97 #
cone-surface $-1 -45.696621778580671 1.7646598951550772 6.358120147200113 0.68199836817093118 0 -0.7313536940579346 0.3656768470289673 0 0.34099918408546559 1 I I -0.70710678118654746 0.70710678118654746 0.5 forward I I I I #
loop $-1 $-1 $248 $65 #
coedge $-1 $156 $156 $249 $250 reversed $98 $-1 #
face $-1 $-1 $251 $52 $-1 $252 forward single #
loop $-1 $253 $254 $100 #
cone-surface $-1 -45.696621778580671 4.8758701859660363 6.358120147200113 0.68199836817093118 0 -0.7313536940579346 0.3656768470289673 0 0.34099918408546559 1 I I -0.70710678118654746 0.70710678118654746 0.5 forward I I I I #
loop $-1 $-1 $255 $66 #
coedge $-1 $161 $161 $256 $257 reversed $101 $-1 #
face $-1 $258 $259 $53 $-1 $260 reversed single #
loop $-1 $-1 $261 $103 #
plane-surface $-1 -50.007629627368985 15.996294807409164 7.0188219000825285 -0.68199836817093118 0 0.7313536940579346 0.7313536940579346 0 0.68199836817093118 forward_v I I I I #
coedge $-1 $262 $263 $264 $265 reversed $104 $-1 #
face $-1 $-1 $266 $54 $-1 $267 forward single #
loop $-1 $268 $269 $106 #
cone-surface $-1 -45.696621778580671 14.440689662003685 6.358120147200113 0.68199836817093118 0 -0.7313536940579346 0.3656768470289673 0 0.34099918408546559 1 I I -0.70710678118654746 0.70710678118654746 0.5 forward I I I I #
loop $-1 $-1 $270 $68 #
coedge $-1 $170 $170 $271 $272 reversed $107 $-1 #
face $-1 $-1 $273 $55 $-1 $274 forward single #
loop $-1 $275 $276 $109 #
cone-surface $-1 -45.696621778580671 17.551899952814644 6.358120147200113 0.68199836817093118 0 -0.7313536940579346 0.3656768470289673 0 0.34099918408546559 1 I I -0.70710678118654746 0.70710678118654746 0.5 forward I I I I #
loop $-1 $-1 $277 $69 #
coedge $-1 $175 $175 $278 $279 reversed $110 $-1 #
face $-1 $280 $281 $42 $-1 $282 reversed single #
loop $-1 $-1 $283 $112 #
plane-surface $-1 0 -25.042579234978334 0 0 1 0 0 0 1 forward_v I I I I #
coedge $-1 $284 $285 $286 $287 forward $113 $-1 #
coedge $-1 $288 $115 $289 $290 forward $71 $-1 #
coedge $-1 $115 $288 $291 $292 forward $71 $-1 #
coedge $-1 $293 $294 $115 $183 reversed $295 $-1 #
edge $-1 $296 -25.042579234978334 $297 25.042579234978334 $182 $298 forward 7 unknown #
face $-1 $299 $300 $43 $-1 $301 reversed single #
loop $-1 $-1 $302 $116 #
plane-surface $-1 -50.007629627368999 0 0 1 0 0 0 0 -1 forward_v I I I I #
coedge $-1 $303 $304 $305 $306 reversed $117 $-1 #
coedge $-1 $307 $119 $308 $309 reversed $74 $-1 #
coedge $-1 $119 $307 $310 $311 forward $74 $-1 #
coedge $-1 $312 $313 $119 $191 forward $314 $-1 #
edge $-1 $315 -15.535556909841876 $316 -3.4784877404310404 $190 $317 forward 7 unknown #
face $-1 $318 $319 $44 $-1 $320 reversed single #
loop $-1 $-1 $321 $120 #
plane-surface $-1 67.245189259262276 3.647310830423363 148.04303727612623 0 1 0 0.78801076186113728 0 0.61566146476048833 forward_v I I I I #
coedge $-1 $322 $323 $324 $325 reversed $121 $-1 #
coedge $-1 $197 $123 $326 $327 reversed $77 $-1 #
coedge $-1 $123 $196 $322 $328 reversed $77 $-1 #
coedge $-1 $324 $329 $123 $199 forward $330 $-1 #
edge $-1 $331 -16.385034997737861 $332 -14.00186452248942 $198 $333 forward 7 unknown #
loop $-1 $-1 $205 $124 #
plane-surface $-1 -11.567911383802979 8.7896697745723671 86.467496264954235 0.78801076186113728 0 0.61566146476048833 0.61566146476048833 0 -0.78801076186113728 forward_v I I I I #
loop $-1 $-1 $334 $79 #
coedge $-1 $203 $203 $204 $335 reversed $125 $-1 #
coedge $-1 $204 $204 $203 $335 forward $127 $-1 #
coedge $-1 $205 $205 $128 $206 forward $200 $-1 #
edge $-1 $336 0 $336 6.2831853071796004 $205 $337 forward 7 unknown #
loop $-1 $-1 $212 $129 #
plane-surface $-1 -11.567911383802979 8.7896697745723671 86.467496264954235 0.78801076186113728 0 0.61566146476048833 0.61566146476048833 0 -0.78801076186113728 forward_v I I I I #
loop $-1 $-1 $338 $82 #
coedge $-1 $210 $210 $211 $339 reversed $130 $-1 #
coedge $-1 $211 $211 $210 $339 forward $132 $-1 #
coedge $-1 $212 $212 $133 $213 forward $207 $-1 #
edge $-1 $340 0 $340 6.2831853071796004 $212 $341 forward 7 unknown #
face $-1 $342 $343 $47 $-1 $344 forward single #
loop $-1 $-1 $345 $134 #
plane-surface $-1 0 -12.985510065567498 8.0031358121796803 0 -1 0 0 0 -1 forward_v I I I I #
coedge $-1 $346 $347 $348 $349 reversed $135 $-1 #
coedge $-1 $219 $137 $350 $351 reversed $86 $-1 #
coedge $-1 $137 $218 $346 $352 reversed $86 $-1 #
coedge $-1 $348 $353 $137 $221 forward $354 $-1 #
edge $-1 $355 29.377960795028109 $356 33.06385370901608 $220 $357 forward 7 unknown #
loop $-1 $-1 $227 $138 #
plane-surface $-1 -50.007629627368985 -9.3557647262880526 7.0188219000825285 -0.68199836817093118 0 0.7313536940579346 0.7313536940579346 0 0.68199836817093118 forward_v I I I I #
loop $-1 $-1 $358 $88 #
coedge $-1 $225 $225 $226 $359 reversed $139 $-1 #
coedge $-1 $226 $226 $225 $359 forward $141 $-1 #
coedge $-1 $227 $227 $142 $228 forward $222 $-1 #
edge $-1 $360 0 $360 6.2831853071796004 $227 $361 forward 7 unknown #
loop $-1 $-1 $234 $143 #
plane-surface $-1 -50.007629627368985 -9.3557647262880526 7.0188219000825285 -0.68199836817093118 0 0.7313536940579346 0.7313536940579346 0 0.68199836817093118 forward_v I I I I #
loop $-1 $-1 $362 $91 #
coedge $-1 $232 $232 $233 $363 reversed $144 $-1 #
coedge $-1 $233 $233 $232 $363 forward $146 $-1 #
coedge $-1 $234 $234 $147 $235 forward $229 $-1 #
edge $-1 $364 0 $364 6.2831853071796004 $234 $365 forward 7 unknown #
face $-1 $366 $367 $50 $-1 $368 forward single #
loop $-1 $-1 $369 $148 #
plane-surface $-1 -118.21787323129293 -0.30948029871889027 80.165351218197188 0 1 0 -0.68199836817093118 0 0.7313536940579346 forward_v I I I I #
coedge $-1 $370 $371 $372 $373 reversed $149 $-1 #
coedge $-1 $241 $151 $374 $375 reversed $95 $-1 #
coedge $-1 $151 $240 $370 $376 reversed $95 $-1 #
coedge $-1 $372 $377 $151 $243 forward $378 $-1 #
edge $-1 $379 29.377960795028109 $380 33.06385370901608 $242 $381 forward 7 unknown #
loop $-1 $-1 $249 $152 #
plane-surface $-1 -50.007629627368985 3.3202650405605567 7.0188219000825285 -0.68199836817093118 0 0.7313536940579346 0.7313536940579346 0 0.68199836817093118 forward_v I I I I #
loop $-1 $-1 $382 $97 #
coedge $-1 $247 $247 $248 $383 reversed $153 $-1 #
coedge $-1 $248 $248 $247 $383 forward $155 $-1 #
coedge $-1 $249 $249 $156 $250 forward $244 $-1 #
edge $-1 $384 0 $384 6.2831853071796004 $249 $385 forward 7 unknown #
loop $-1 $-1 $256 $157 #
plane-surface $-1 -50.007629627368985 3.3202650405605567 7.0188219000825285 -0.68199836817093118 0 0.7313536940579346 0.7313536940579346 0 0.68199836817093118 forward_v I I I I #
loop $-1 $-1 $386 $100 #
coedge $-1 $254 $254 $255 $387 reversed $158 $-1 #
coedge $-1 $255 $255 $254 $387 forward $160 $-1 #
coedge $-1 $256 $256 $161 $257 forward $251 $-1 #
edge $-1 $388 0 $388 6.2831853071796004 $256 $389 forward 7 unknown #
face $-1 $390 $391 $53 $-1 $392 forward single #
loop $-1 $-1 $393 $162 #
plane-surface $-1 -118.21787323129293 12.366549468129717 80.165351218197188 0 1 0 -0.68199836817093118 0 0.7313536940579346 forward_v I I I I #
coedge $-1 $394 $395 $396 $397 reversed $163 $-1 #
coedge $-1 $263 $165 $398 $399 reversed $104 $-1 #
coedge $-1 $165 $262 $394 $400 reversed $104 $-1 #
coedge $-1 $396 $401 $165 $265 forward $402 $-1 #
edge $-1 $403 29.377960795028109 $404 33.06385370901608 $264 $405 forward 7 unknown #
loop $-1 $-1 $271 $166 #
plane-surface $-1 -50.007629627368985 15.996294807409164 7.0188219000825285 -0.68199836817093118 0 0.7313536940579346 0.7313536940579346 0 0.68199836817093118 forward_v I I I I #
loop $-1 $-1 $406 $106 #
coedge $-1 $269 $269 $270 $407 reversed $167 $-1 #
coedge $-1 $270 $270 $269 $407 forward $169 $-1 #
coedge $-1 $271 $271 $170 $272 forward $266 $-1 #
edge $-1 $408 0 $408 6.2831853071796004 $271 $409 forward 7 unknown #
loop $-1 $-1 $278 $171 #
plane-surface $-1 -50.007629627368985 15.996294807409164 7.0188219000825285 -0.68199836817093118 0 0.7313536940579346 0.7313536940579346 0 0.68199836817093118 forward_v I I I I #
loop $-1 $-1 $410 $109 #
coedge $-1 $276 $276 $277 $411 reversed $172 $-1 #
coedge $-1 $277 $277 $276 $411 forward $174 $-1 #
coedge $-1 $278 $278 $175 $279 forward $273 $-1 #
edge $-1 $412 0 $412 6.2831853071796004 $278 $413 forward 7 unknown #
face $-1 $414 $415 $42 $-1 $416 reversed single #
loop $-1 $-1 $417 $176 #
plane-surface $-1 -50.007629627368999 0 0 1 0 0 0 0 -1 forward_v I I I I #
coedge $-1 $418 $291 $419 $420 forward $177 $-1 #
coedge $-1 $421 $179 $418 $422 forward $113 $-1 #
coedge $-1 $179 $421 $423 $424 forward $113 $-1 #
coedge $-1 $294 $293 $179 $287 reversed $295 $-1 #
edge $-1 $425 -25.042579234978334 $426 25.042579234978334 $286 $427 forward 7 unknown #
coedge $-1 $181 $180 $428 $429 forward $71 $-1 #
coedge $-1 $430 $431 $180 $290 reversed $415 $-1 #
edge $-1 $297 -50.007629627368999 $432 50.007629627368999 $289 $433 forward 7 unknown #
coedge $-1 $283 $434 $181 $292 reversed $177 $-1 #
edge $-1 $435 -50.007629627368999 $296 50.007629627368999 $291 $436 forward 7 unknown #
coedge $-1 $286 $182 $434 $437 forward $295 $-1 #
coedge $-1 $182 $286 $430 $438 reversed $295 $-1 #
loop $-1 $-1 $293 $414 #
vertex $-1 $183 $439 #
vertex $-1 $183 $440 #
straight-curve $-1 50.007629627368999 0 10.704714814070483 0 1 0 I I #
face $-1 $441 $442 $43 $-1 $443 forward single #
loop $-1 $-1 $308 $184 #
plane-surface $-1 0 -25.042579234978334 0 0 1 0 0 0 1 forward_v I I I I #
coedge $-1 $444 $445 $304 $446 forward $185 $-1 #
coedge $-1 $310 $187 $312 $447 reversed $117 $-1 #
coedge $-1 $187 $310 $302 $446 reversed $117 $-1 #
coedge $-1 $448 $449 $187 $306 forward $442 $-1 #
edge $-1 $450 -50.007629627368999 $451 50.007629627368999 $305 $452 forward 7 unknown #
coedge $-1 $189 $188 $444 $453 reversed $74 $-1 #
coedge $-1 $454 $455 $188 $309 forward $300 $-1 #
edge $-1 $456 -50.007629627368999 $315 50.007629627368999 $308 $457 forward 7 unknown #
coedge $-1 $304 $303 $189 $311 reversed $117 $-1 #
edge $-1 $458 -50.007629627368999 $316 50.007629627368999 $310 $459 forward 7 unknown #
coedge $-1 $460 $190 $303 $447 forward $314 $-1 #
coedge $-1 $190 $460 $454 $461 forward $314 $-1 #
loop $-1 $-1 $312 $441 #
vertex $-1 $309 $462 #
vertex $-1 $191 $463 #
straight-curve $-1 50.007629627368999 -9.5070223251364574 5.3015568102888793 0 1 0 I I #
face $-1 $-1 $330 $44 $-1 $464 forward single #
loop $-1 $-1 $465 $192 #
plane-surface $-1 50.007629627368999 0 0 -1 0 0 0 0 1 forward_v I I I I #
coedge $-1 $466 $467 $468 $469 reversed $193 $-1 #
coedge $-1 $470 $195 $197 $328 forward $121 $-1 #
coedge $-1 $195 $470 $466 $471 forward $121 $-1 #
coedge $-1 $468 $198 $195 $325 forward $330 $-1 #
edge $-1 $332 -9.5371938314351876 $472 0.74752405686282053 $324 $473 forward 7 unknown #
coedge $-1 $474 $475 $196 $327 forward $319 $-1 #
edge $-1 $476 -66.367123016174133 $331 -63.316803823992629 $326 $477 forward 7 unknown #
edge $-1 $332 96.144348678622009 $476 100.015259254738 $197 $478 forward 7 unknown #
coedge $-1 $198 $468 $474 $479 forward $330 $-1 #
loop $-1 $-1 $468 $318 #
vertex $-1 $327 $480 #
vertex $-1 $199 $481 #
straight-curve $-1 33.622594629631138 13.932028718721371 10.704714814070485 -1 0 0 I I #
coedge $-1 $334 $334 $-1 $482 reversed $202 $-1 #
edge $-1 $483 0 $483 6.2831853071796004 $203 $484 forward 7 unknown #
vertex $-1 $206 $485 #
ellipse-curve $-1 48.816044389744775 6.5858016556513626 9.1795552179797433 0.78801076186113728 0 0.61566146476048833 0.30783073238024417 0 -0.39400538093056864 1 I I #
coedge $-1 $338 $338 $-1 $486 reversed $209 $-1 #
edge $-1 $487 0 $487 6.2831853071796004 $210 $488 forward 7 unknown #
vertex $-1 $213 $489 #
ellipse-curve $-1 48.816044389744775 10.993537893493368 9.1795552179797433 0.78801076186113728 0 0.61566146476048833 0.30783073238024417 0 -0.39400538093056864 1 I I #
face $-1 $-1 $354 $47 $-1 $490 reversed single #
loop $-1 $-1 $491 $214 #
plane-surface $-1 0 0 10.704714814070483 0 0 1 1 0 0 forward_v I I I I #
coedge $-1 $492 $493 $347 $494 forward $215 $-1 #
coedge $-1 $495 $217 $219 $352 forward $135 $-1 #
coedge $-1 $217 $495 $345 $494 reversed $135 $-1 #
coedge $-1 $496 $220 $217 $349 forward $354 $-1 #
edge $-1 $356 1.0481370238645793 $497 8.3076277024234706 $348 $498 forward 7 unknown #
coedge $-1 $499 $491 $218 $351 forward $343 $-1 #
edge $-1 $500 -13.053943129881013 $355 -9.1013069882774644 $350 $501 forward 7 unknown #
edge $-1 $356 -1.9479204584885432e-014 $500 5.404547996021229 $219 $502 forward 7 unknown #
coedge $-1 $220 $496 $499 $503 reversed $354 $-1 #
loop $-1 $-1 $348 $342 #
vertex $-1 $503 $504 #
vertex $-1 $221 $505 #
straight-curve $-1 -50.007629627368999 -5.7260193870086056 40.082675609098594 0 0 -1 I I #
coedge $-1 $358 $358 $-1 $506 reversed $224 $-1 #
edge $-1 $507 0 $507 6.2831853071796004 $225 $508 forward 7 unknown #
vertex $-1 $228 $509 #
ellipse-curve $-1 -48.031311556567225 -10.91136987169353 8.861768357076496 -0.68199836817093118 0 0.7313536940579346 0.7313536940579346 0 0.68199836817093118 1 I I #
coedge $-1 $362 $362 $-1 $510 reversed $231 $-1 #
edge $-1 $511 0 $511 6.2831853071796004 $232 $512 forward 7 unknown #
vertex $-1 $235 $513 #
ellipse-curve $-1 -48.031311556567225 -7.8001595808825748 8.861768357076496 -0.68199836817093118 0 0.7313536940579346 0.7313536940579346 0 0.68199836817093118 1 I I #
face $-1 $-1 $378 $50 $-1 $514 reversed single #
loop $-1 $-1 $515 $236 #
plane-surface $-1 0 0 10.704714814070483 0 0 1 1 0 0 forward_v I I I I #
coedge $-1 $516 $517 $518 $519 reversed $237 $-1 #
coedge $-1 $520 $239 $241 $376 forward $149 $-1 #
coedge $-1 $239 $520 $516 $521 forward $149 $-1 #
coedge $-1 $518 $242 $239 $373 forward $378 $-1 #
edge $-1 $380 -5.2898778595597253 $522 1.9696128189991686 $372 $523 forward 7 unknown #
coedge $-1 $524 $525 $240 $375 forward $367 $-1 #
edge $-1 $526 -13.053943129881013 $379 -9.1013069882774644 $374 $527 forward 7 unknown #
edge $-1 $380 -1.9479204584885432e-014 $526 5.404547996021229 $241 $528 forward 7 unknown #
coedge $-1 $242 $518 $524 $529 reversed $378 $-1 #
loop $-1 $-1 $518 $366 #
vertex $-1 $529 $530 #
vertex $-1 $243 $531 #
straight-curve $-1 -50.007629627368999 6.9500103798400037 40.082675609098594 0 0 -1 I I #
coedge $-1 $382 $382 $-1 $532 reversed $246 $-1 #
edge $-1 $533 0 $533 6.2831853071796004 $247 $534 forward 7 unknown #
vertex $-1 $250 $535 #
ellipse-curve $-1 -48.031311556567225 1.7646598951550772 8.861768357076496 -0.68199836817093118 0 0.7313536940579346 0.7313536940579346 0 0.68199836817093118 1 I I #
coedge $-1 $386 $386 $-1 $536 reversed $253 $-1 #
edge $-1 $537 0 $537 6.2831853071796004 $254 $538 forward 7 unknown #
vertex $-1 $257 $539 #
ellipse-curve $-1 -48.031311556567225 4.8758701859660363 8.861768357076496 -0.68199836817093118 0 0.7313536940579346 0.7313536940579346 0 0.68199836817093118 1 I I #
face $-1 $-1 $402 $53 $-1 $540 reversed single #
loop $-1 $-1 $541 $258 #
plane-surface $-1 0 0 10.704714814070483 0 0 1 1 0 0 forward_v I I I I #
coedge $-1 $542 $543 $544 $545 reversed $259 $-1 #
coedge $-1 $546 $261 $263 $400 forward $163 $-1 #
coedge $-1 $261 $546 $542 $547 forward $163 $-1 #
coedge $-1 $544 $264 $261 $397 forward $402 $-1 #
edge $-1 $404 -11.627892742984027 $548 -4.3684020644251351 $396 $549 forward 7 unknown #
coedge $-1 $550 $551 $262 $399 forward $391 $-1 #
edge $-1 $552 -13.053943129881013 $403 -9.1013069882774644 $398 $553 forward 7 unknown #
edge $-1 $404 -1.9479204584885432e-014 $552 5.404547996021229 $263 $554 forward 7 unknown #
coedge $-1 $264 $544 $550 $555 reversed $402 $-1 #
loop $-1 $-1 $544 $390 #
vertex $-1 $555 $556 #
vertex $-1 $265 $557 #
straight-curve $-1 -50.007629627368999 19.626040146688609 40.082675609098594 0 0 -1 I I #
coedge $-1 $406 $406 $-1 $558 reversed $268 $-1 #
edge $-1 $559 0 $559 6.2831853071796004 $269 $560 forward 7 unknown #
vertex $-1 $272 $561 #
ellipse-curve $-1 -48.031311556567225 14.440689662003685 8.861768357076496 -0.68199836817093118 0 0.7313536940579346 0.7313536940579346 0 0.68199836817093118 1 I I #
coedge $-1 $410 $410 $-1 $562 reversed $275 $-1 #
edge $-1 $563 0 $563 6.2831853071796004 $276 $564 forward 7 unknown #
vertex $-1 $279 $565 #
ellipse-curve $-1 -48.031311556567225 17.551899952814644 8.861768357076496 -0.68199836817093118 0 0.7313536940579346 0.7313536940579346 0 0.68199836817093118 1 I I #
face $-1 $-1 $295 $42 $-1 $566 reversed single #
loop $-1 $-1 $430 $280 #
plane-surface $-1 0 25.042579234978334 0 0 -1 0 0 0 -1 forward_v I I I I #
coedge $-1 $567 $428 $431 $568 forward $281 $-1 #
coedge $-1 $434 $283 $284 $422 reversed $177 $-1 #
coedge $-1 $428 $567 $283 $420 reversed $281 $-1 #
edge $-1 $435 -10.704714814070483 $569 10.704714814070483 $419 $570 forward 7 unknown #
coedge $-1 $285 $284 $567 $571 forward $113 $-1 #
edge $-1 $426 -50.007629627368999 $569 50.007629627368999 $418 $572 forward 7 unknown #
coedge $-1 $431 $430 $285 $424 reversed $415 $-1 #
edge $-1 $573 -50.007629627368999 $425 50.007629627368999 $423 $574 forward 7 unknown #
vertex $-1 $287 $575 #
vertex $-1 $437 $576 #
straight-curve $-1 50.007629627368999 0 -10.704714814070483 0 -1 0 I I #
coedge $-1 $417 $419 $288 $429 reversed $281 $-1 #
edge $-1 $432 -25.042579234978334 $435 25.042579234978334 $428 $577 forward 7 unknown #
coedge $-1 $423 $289 $294 $438 forward $415 $-1 #
coedge $-1 $289 $423 $417 $568 reversed $415 $-1 #
vertex $-1 $290 $578 #
straight-curve $-1 0 25.042579234978334 10.704714814070483 -1 0 0 I I #
coedge $-1 $291 $418 $293 $437 reversed $177 $-1 #
vertex $-1 $429 $579 #
straight-curve $-1 0 -25.042579234978334 10.704714814070483 1 0 0 I I #
edge $-1 $296 -10.704714814070483 $426 10.704714814070483 $293 $580 forward 7 unknown #
edge $-1 $297 -10.704714814070483 $425 10.704714814070483 $294 $581 forward 7 unknown #
point $-1 50.007629627368999 -25.042579234978334 10.704714814070483 #
point $-1 50.007629627368999 25.042579234978334 10.704714814070483 #
face $-1 $-1 $314 $43 $-1 $582 reversed single #
loop $-1 $-1 $305 $299 #
plane-surface $-1 0 0 10.704714814070483 0 0 1 1 0 0 forward_v I I I I #
coedge $-1 $583 $302 $307 $453 forward $185 $-1 #
coedge $-1 $302 $583 $448 $584 reversed $185 $-1 #
edge $-1 $451 -6.7031469079806412 $458 -1.2999889041990391 $302 $585 forward 7 unknown #
edge $-1 $316 1.2999889041990391 $450 6.7031469079806412 $312 $586 forward 7 unknown #
coedge $-1 $587 $305 $445 $584 forward $442 $-1 #
coedge $-1 $305 $587 $460 $588 forward $442 $-1 #
vertex $-1 $447 $589 #
vertex $-1 $584 $590 #
straight-curve $-1 0 -12.985510065567498 10.704714814070483 -1 0 0 I I #
edge $-1 $458 3.4784877404310404 $456 15.535556909841876 $444 $591 forward 7 unknown #
coedge $-1 $592 $308 $313 $461 reversed $300 $-1 #
coedge $-1 $308 $592 $583 $593 forward $300 $-1 #
vertex $-1 $309 $594 #
straight-curve $-1 0 -25.042579234978334 5.3015568102888793 1 0 0 I I #
vertex $-1 $453 $595 #
straight-curve $-1 0 -12.985510065567498 5.3015568102888793 1 0 0 I I #
coedge $-1 $313 $312 $449 $588 reversed $314 $-1 #
edge $-1 $596 -10.704714814070483 $315 -5.3015568102888793 $313 $597 forward 7 unknown #
point $-1 50.007629627368999 -25.042579234978334 5.3015568102888793 #
point $-1 50.007629627368999 -12.985510065567498 5.3015568102888793 #
plane-surface $-1 0 0 10.704714814070483 0 0 1 1 0 0 forward_v I I I I #
coedge $-1 $475 $474 $467 $598 forward $319 $-1 #
coedge $-1 $467 $321 $323 $471 reversed $193 $-1 #
coedge $-1 $321 $466 $465 $598 reversed $193 $-1 #
coedge $-1 $329 $324 $321 $469 forward $330 $-1 #
edge $-1 $472 14.00186452248942 $599 16.385034997737861 $468 $600 forward 7 unknown #
coedge $-1 $323 $322 $475 $601 reversed $121 $-1 #
edge $-1 $602 -100.015259254738 $472 -96.144348678622009 $466 $603 forward 7 unknown #
vertex $-1 $325 $604 #
straight-curve $-1 47.624459152120565 4.3948348872861835 10.704714814070485 0 -1 0 I I #
coedge $-1 $465 $326 $329 $479 reversed $319 $-1 #
coedge $-1 $326 $465 $470 $601 forward $319 $-1 #
vertex $-1 $327 $605 #
straight-curve $-1 50.007629627368999 13.932028718721371 74.021518638063114 0 0 1 I I #
straight-curve $-1 -11.567911383802979 13.932028718721371 86.467496264954235 0.61566146476048833 0 -0.78801076186113728 I I #
edge $-1 $599 3.647310830423363 $331 13.932028718721371 $474 $606 forward 7 unknown #
point $-1 50.007629627368999 13.932028718721371 10.704714814070483 #
point $-1 47.624459152120558 13.932028718721371 10.704714814070485 #
edge $-1 $607 1 $607 0 $334 $-1 forward 7 unknown #
vertex $-1 $335 $608 #
ellipse-curve $-1 48.02803362788363 6.5858016556513626 8.5638937532192507 0.78801076186113728 0 0.61566146476048833 0.30783073238024417 0 -0.39400538093056864 1 I I #
point $-1 49.123875122125014 6.5858016556513626 8.7855498370491709 #
edge $-1 $609 1 $609 0 $338 $-1 forward 7 unknown #
vertex $-1 $339 $610 #
ellipse-curve $-1 48.02803362788363 10.993537893493368 8.5638937532192507 0.78801076186113728 0 0.61566146476048833 0.30783073238024417 0 -0.39400538093056864 1 I I #
point $-1 49.123875122125014 10.993537893493368 8.7855498370491709 #
plane-surface $-1 -50.007629627368999 0 0 1 0 0 0 0 -1 forward_v I I I I #
coedge $-1 $350 $611 $495 $612 forward $343 $-1 #
coedge $-1 $493 $345 $611 $613 reversed $215 $-1 #
coedge $-1 $345 $492 $496 $614 reversed $215 $-1 #
edge $-1 $497 -18.622282570437783 $615 -13.217734574416534 $345 $616 forward 7 unknown #
coedge $-1 $347 $346 $491 $612 reversed $135 $-1 #
coedge $-1 $353 $348 $493 $614 forward $354 $-1 #
vertex $-1 $614 $617 #
straight-curve $-1 -50.007629627368999 -4.6778823631440263 7.0188219000825178 0 -1 0 I I #
coedge $-1 $611 $350 $353 $503 forward $343 $-1 #
vertex $-1 $351 $618 #
straight-curve $-1 -59.108936615646464 -5.7260193870086056 10.704714814070485 -1 0 0 I I #
straight-curve $-1 -50.007629627368985 -5.7260193870086056 7.0188219000825285 0.7313536940579346 0 0.68199836817093118 I I #
edge $-1 $355 5.7260193870086056 $619 12.985510065567498 $353 $620 forward 7 unknown #
point $-1 -50.007629627368999 -5.7260193870086056 10.704714814070483 #
point $-1 -50.007629627368999 -5.7260193870086056 7.0188219000825152 #
edge $-1 $621 1 $621 0 $358 $-1 forward 7 unknown #
vertex $-1 $359 $622 #
ellipse-curve $-1 -46.037620962666139 -10.91136987169353 6.7237969942290805 -0.68199836817093118 0 0.7313536940579346 0.7313536940579346 0 0.68199836817093118 1 I I #
point $-1 -47.299957862509295 -10.91136987169353 9.5437667252474316 #
edge $-1 $623 1 $623 0 $362 $-1 forward 7 unknown #
vertex $-1 $363 $624 #
ellipse-curve $-1 -46.037620962666139 -7.8001595808825748 6.7237969942290805 -0.68199836817093118 0 0.7313536940579346 0.7313536940579346 0 0.68199836817093118 1 I I #
point $-1 -47.299957862509295 -7.8001595808825748 9.5437667252474316 #
plane-surface $-1 -50.007629627368999 0 0 1 0 0 0 0 -1 forward_v I I I I #
coedge $-1 $525 $524 $517 $625 forward $367 $-1 #
coedge $-1 $517 $369 $371 $521 reversed $237 $-1 #
coedge $-1 $369 $516 $515 $625 reversed $237 $-1 #
coedge $-1 $377 $372 $369 $519 forward $378 $-1 #
edge $-1 $522 -33.06385370901608 $626 -29.377960795028109 $518 $627 forward 7 unknown #
coedge $-1 $371 $370 $525 $628 reversed $149 $-1 #
edge $-1 $629 -5.404547996021229 $522 1.9479204584885432e-014 $516 $630 forward 7 unknown #
vertex $-1 $373 $631 #
straight-curve $-1 -50.007629627368999 1.6601325202802784 7.0188219000825178 0 -1 0 I I #
coedge $-1 $515 $374 $377 $529 forward $367 $-1 #
coedge $-1 $374 $515 $520 $628 forward $367 $-1 #
vertex $-1 $375 $632 #
straight-curve $-1 -59.108936615646464 6.9500103798400037 10.704714814070485 -1 0 0 I I #
straight-curve $-1 -50.007629627368985 6.9500103798400037 7.0188219000825285 0.7313536940579346 0 0.68199836817093118 I I #
edge $-1 $379 -6.9500103798400037 $626 0.30948029871889027 $377 $633 forward 7 unknown #
point $-1 -50.007629627368999 6.9500103798400037 10.704714814070483 #
point $-1 -50.007629627368999 6.9500103798400037 7.0188219000825152 #
edge $-1 $634 1 $634 0 $382 $-1 forward 7 unknown #
vertex $-1 $383 $635 #
ellipse-curve $-1 -46.037620962666139 1.7646598951550772 6.7237969942290805 -0.68199836817093118 0 0.7313536940579346 0.7313536940579346 0 0.68199836817093118 1 I I #
point $-1 -47.299957862509295 1.7646598951550772 9.5437667252474316 #
edge $-1 $636 1 $636 0 $386 $-1 forward 7 unknown #
vertex $-1 $387 $637 #
ellipse-curve $-1 -46.037620962666139 4.8758701859660363 6.7237969942290805 -0.68199836817093118 0 0.7313536940579346 0.7313536940579346 0 0.68199836817093118 1 I I #
point $-1 -47.299957862509295 4.8758701859660363 9.5437667252474316 #
plane-surface $-1 -50.007629627368999 0 0 1 0 0 0 0 -1 forward_v I I I I #
coedge $-1 $551 $550 $543 $638 forward $391 $-1 #
coedge $-1 $543 $393 $395 $547 reversed $259 $-1 #
coedge $-1 $393 $542 $541 $638 reversed $259 $-1 #
coedge $-1 $401 $396 $393 $545 forward $402 $-1 #
edge $-1 $548 -33.06385370901608 $639 -29.377960795028109 $544 $640 forward 7 unknown #
coedge $-1 $395 $394 $551 $641 reversed $163 $-1 #
edge $-1 $642 -5.404547996021229 $548 1.9479204584885432e-014 $542 $643 forward 7 unknown #
vertex $-1 $397 $644 #
straight-curve $-1 -50.007629627368999 7.9981474037045821 7.0188219000825178 0 -1 0 I I #
coedge $-1 $541 $398 $401 $555 forward $391 $-1 #
coedge $-1 $398 $541 $546 $641 forward $391 $-1 #
vertex $-1 $399 $645 #
straight-curve $-1 -59.108936615646464 19.626040146688609 10.704714814070485 -1 0 0 I I #
straight-curve $-1 -50.007629627368985 19.626040146688609 7.0188219000825285 0.7313536940579346 0 0.68199836817093118 I I #
edge $-1 $403 -19.626040146688609 $639 -12.366549468129717 $401 $646 forward 7 unknown #
point $-1 -50.007629627368999 19.626040146688609 10.704714814070483 #
point $-1 -50.007629627368999 19.626040146688609 7.0188219000825152 #
edge $-1 $647 1 $647 0 $406 $-1 forward 7 unknown #
vertex $-1 $407 $648 #
ellipse-curve $-1 -46.037620962666139 14.440689662003685 6.7237969942290805 -0.68199836817093118 0 0.7313536940579346 0.7313536940579346 0 0.68199836817093118 1 I I #
point $-1 -47.299957862509295 14.440689662003685 9.5437667252474316 #
edge $-1 $649 1 $649 0 $410 $-1 forward 7 unknown #
vertex $-1 $411 $650 #
ellipse-curve $-1 -46.037620962666139 17.551899952814644 6.7237969942290805 -0.68199836817093118 0 0.7313536940579346 0.7313536940579346 0 0.68199836817093118 1 I I #
point $-1 -47.299957862509295 17.551899952814644 9.5437667252474316 #
plane-surface $-1 50.007629627368999 0 0 -1 0 0 0 0 1 forward_v I I I I #
coedge $-1 $419 $417 $421 $571 reversed $281 $-1 #
edge $-1 $432 -10.704714814070483 $573 10.704714814070483 $431 $651 forward 7 unknown #
vertex $-1 $571 $652 #
straight-curve $-1 -50.007629627368999 -25.042579234978334 0 0 0 -1 I I #
edge $-1 $569 -25.042579234978334 $573 25.042579234978334 $567 $653 forward 7 unknown #
straight-curve $-1 0 -25.042579234978334 -10.704714814070483 -1 0 0 I I #
vertex $-1 $424 $654 #
straight-curve $-1 0 25.042579234978334 -10.704714814070483 1 0 0 I I #
point $-1 50.007629627368999 25.042579234978334 -10.704714814070483 #
point $-1 50.007629627368999 -25.042579234978334 -10.704714814070483 #
straight-curve $-1 -50.007629627368999 0 10.704714814070483 0 -1 0 I I #
point $-1 -50.007629627368999 25.042579234978334 10.704714814070483 #
point $-1 -50.007629627368999 -25.042579234978334 10.704714814070483 #
straight-curve $-1 50.007629627368999 -25.042579234978334 0 0 0 -1 I I #
straight-curve $-1 50.007629627368999 25.042579234978334 0 0 0 -1 I I #
plane-surface $-1 50.007629627368999 0 0 -1 0 0 0 0 1 forward_v I I I I #
coedge $-1 $445 $444 $455 $593 reversed $185 $-1 #
edge $-1 $451 12.985510065567498 $655 25.042579234978334 $445 $656 forward 7 unknown #
straight-curve $-1 -50.007629627368999 -12.985510065567498 4.0015679060898401 0 0 -1 I I #
straight-curve $-1 50.007629627368999 -12.985510065567498 4.0015679060898401 0 0 1 I I #
coedge $-1 $449 $448 $592 $657 forward $442 $-1 #
edge $-1 $596 -25.042579234978334 $450 -12.985510065567498 $460 $658 forward 7 unknown #
point $-1 50.007629627368999 -12.985510065567498 10.704714814070481 #
point $-1 -50.007629627368999 -12.985510065567498 10.704714814070481 #
straight-curve $-1 -50.007629627368999 -9.5070223251364574 5.3015568102888793 0 -1 0 I I #
coedge $-1 $455 $454 $587 $657 reversed $300 $-1 #
edge $-1 $655 -10.704714814070483 $456 -5.3015568102888793 $583 $659 forward 7 unknown #
point $-1 -50.007629627368999 -25.042579234978334 5.3015568102888793 #
point $-1 -50.007629627368999 -12.985510065567498 5.3015568102888793 #
vertex $-1 $588 $660 #
straight-curve $-1 50.007629627368999 -25.042579234978334 0 0 0 -1 I I #
edge $-1 $599 63.316803823992629 $602 66.367123016174133 $465 $661 forward 7 unknown #
vertex $-1 $479 $662 #
straight-curve $-1 33.622594629631138 3.647310830423363 10.704714814070485 1 0 0 I I #
edge $-1 $602 -0.74752405686282053 $476 9.5371938314351876 $475 $663 forward 7 unknown #
vertex $-1 $601 $664 #
straight-curve $-1 -11.567911383802979 3.647310830423363 86.467496264954235 -0.61566146476048833 0 0.78801076186113728 I I #
point $-1 47.624459152120558 3.647310830423363 10.704714814070485 #
point $-1 50.007629627369006 13.932028718721371 7.6543956218889804 #
straight-curve $-1 50.007629627368999 0 10.704714814070483 0 1 0 I I #
vertex $-1 $482 $665 #
point $-1 48.335864360263876 6.5858016556513626 8.1698883722886819 #
vertex $-1 $486 $666 #
point $-1 48.335864360263876 10.993537893493368 8.1698883722886819 #
coedge $-1 $491 $499 $492 $613 forward $343 $-1 #
edge $-1 $615 -8.3076277024234741 $500 -1.0481370238645793 $491 $667 forward 7 unknown #
edge $-1 $619 -50.007629627368999 $615 -46.054993485765451 $611 $668 forward 7 unknown #
edge $-1 $497 3.017253993992675 $619 6.7031469079806412 $496 $669 forward 7 unknown #
vertex $-1 $612 $670 #
straight-curve $-1 -36.388154477688637 -12.985510065567498 19.719188224739057 0.7313536940579346 0 0.68199836817093118 I I #
point $-1 -50.007629627368999 -12.985510065567498 7.0188219000825152 #
point $-1 -46.054993485765451 -5.7260193870086056 10.704714814070483 #
vertex $-1 $614 $671 #
straight-curve $-1 -50.007629627368999 0 10.704714814070483 0 -1 0 I I #
vertex $-1 $506 $672 #
point $-1 -45.306267268608202 -10.91136987169353 7.4057953624000117 #
vertex $-1 $510 $673 #
point $-1 -45.306267268608202 -7.8001595808825748 7.4057953624000117 #
edge $-1 $626 9.1013069882774644 $629 13.053943129881013 $515 $674 forward 7 unknown #
vertex $-1 $519 $675 #
straight-curve $-1 -50.007629627368999 -0.30948029871889027 40.082675609098594 0 0 1 I I #
edge $-1 $629 -1.9696128189991686 $526 5.2898778595597253 $525 $676 forward 7 unknown #
vertex $-1 $628 $677 #
straight-curve $-1 -50.007629627368985 -0.30948029871889027 7.0188219000825285 -0.7313536940579346 0 -0.68199836817093118 I I #
point $-1 -50.007629627368999 -0.30948029871889027 7.0188219000825152 #
point $-1 -46.054993485765451 6.9500103798400037 10.704714814070483 #
straight-curve $-1 -50.007629627368999 0 10.704714814070483 0 -1 0 I I #
vertex $-1 $532 $678 #
point $-1 -45.306267268608202 1.7646598951550772 7.4057953624000117 #
vertex $-1 $536 $679 #
point $-1 -45.306267268608202 4.8758701859660363 7.4057953624000117 #
edge $-1 $639 9.1013069882774644 $642 13.053943129881013 $541 $680 forward 7 unknown #
vertex $-1 $545 $681 #
straight-curve $-1 -50.007629627368999 12.366549468129717 40.082675609098594 0 0 1 I I #
edge $-1 $642 4.3684020644251351 $552 11.627892742984027 $551 $682 forward 7 unknown #
vertex $-1 $641 $683 #
straight-curve $-1 -50.007629627368985 12.366549468129717 7.0188219000825285 -0.7313536940579346 0 -0.68199836817093118 I I #
point $-1 -50.007629627368999 12.366549468129717 7.0188219000825152 #
point $-1 -46.054993485765451 19.626040146688609 10.704714814070483 #
straight-curve $-1 -50.007629627368999 0 10.704714814070483 0 -1 0 I I #
vertex $-1 $558 $684 #
point $-1 -45.306267268608202 14.440689662003685 7.4057953624000117 #
vertex $-1 $562 $685 #
point $-1 -45.306267268608202 17.551899952814644 7.4057953624000117 #
straight-curve $-1 -50.007629627368999 25.042579234978334 0 0 0 -1 I I #
point $-1 -50.007629627368999 -25.042579234978334 -10.704714814070483 #
straight-curve $-1 -50.007629627368999 0 -10.704714814070483 0 1 0 I I #
point $-1 -50.007629627368999 25.042579234978334 -10.704714814070483 #
vertex $-1 $584 $686 #
straight-curve $-1 -50.007629627368999 0 10.704714814070483 0 -1 0 I I #
edge $-1 $655 -50.007629627368999 $596 50.007629627368999 $592 $687 forward 7 unknown #
straight-curve $-1 50.007629627368999 0 10.704714814070483 0 1 0 I I #
straight-curve $-1 -50.007629627368999 -25.042579234978334 0 0 0 -1 I I #
point $-1 50.007629627368999 -25.042579234978334 10.704714814070483 #
straight-curve $-1 50.007629627368999 3.647310830423363 74.021518638063114 0 0 -1 I I #
point $-1 50.007629627368999 3.647310830423363 10.704714814070483 #
straight-curve $-1 50.007629627368999 4.3948348872861835 7.6543956218889946 0 1 0 I I #
point $-1 50.007629627369006 3.647310830423363 7.6543956218889804 #
point $-1 47.634028246953065 6.5858016556513626 8.256063020839008 #
point $-1 47.634028246953065 10.993537893493368 8.256063020839008 #
straight-curve $-1 -46.054993485765451 -4.6778823631440263 10.704714814070483 0 1 0 I I #
straight-curve $-1 0 -12.985510065567498 10.704714814070483 1 0 0 I I #
straight-curve $-1 -50.007629627368999 -12.985510065567498 4.0015679060898401 0 0 1 I I #
point $-1 -46.054993485765451 -12.9855100655675 10.704714814070483 #
point $-1 -50.007629627368999 -12.985510065567498 10.704714814070481 #
point $-1 -45.355622594495202 -10.91136987169353 5.9924433001711455 #
point $-1 -45.355622594495202 -7.8001595808825748 5.9924433001711455 #
straight-curve $-1 -59.108936615646464 -0.30948029871889027 10.704714814070485 1 0 0 I I #
point $-1 -50.007629627368999 -0.30948029871889027 10.704714814070483 #
straight-curve $-1 -46.054993485765451 1.6601325202802784 10.704714814070483 0 1 0 I I #
point $-1 -46.054993485765451 -0.30948029871889027 10.704714814070483 #
point $-1 -45.355622594495202 1.7646598951550772 5.9924433001711455 #
point $-1 -45.355622594495202 4.8758701859660363 5.9924433001711455 #
straight-curve $-1 -59.108936615646464 12.366549468129717 10.704714814070485 1 0 0 I I #
point $-1 -50.007629627368999 12.366549468129717 10.704714814070483 #
straight-curve $-1 -46.054993485765451 7.9981474037045821 10.704714814070483 0 1 0 I I #
point $-1 -46.054993485765451 12.366549468129717 10.704714814070483 #
point $-1 -45.355622594495202 14.440689662003685 5.9924433001711455 #
point $-1 -45.355622594495202 17.551899952814644 5.9924433001711455 #
point $-1 -50.007629627368999 -25.042579234978334 10.704714814070483 #
straight-curve $-1 0 -25.042579234978334 10.704714814070483 1 0 0 I I #
End-of-ACIS-data 