500 0 6 0           
7 Unknown 11 ACIS 5.0 NT 24 Fri Mar 26 02:15:16 1999 
-1 9.9999999999999995e-007 1e-010 
body $-1 $6 $-1 $7 #
body $-1 $8 $-1 $9 #
body $-1 $10 $-1 $11 #
body $-1 $12 $-1 $13 #
body $-1 $14 $-1 $15 #
body $-1 $16 $-1 $17 #
lump $-1 $-1 $18 $0 #
transform $-1 1 0 0 0 1 0 0 0 1 43.927121799371321 24.075258713289887 10.761384220227679 1 rotate no_reflect no_shear #
lump $-1 $-1 $19 $1 #
transform $-1 1 0 0 0 1 0 0 0 1 43.927121799371321 24.075258713289887 10.761384220227679 1 rotate no_reflect no_shear #
lump $-1 $-1 $20 $2 #
transform $-1 1 0 0 0 1 0 0 0 1 43.927121799371321 24.075258713289887 10.761384220227679 1 rotate no_reflect no_shear #
lump $-1 $-1 $21 $3 #
transform $-1 1 0 0 0 1 0 0 0 1 43.927121799371321 24.075258713289887 10.761384220227679 1 rotate no_reflect no_shear #
lump $-1 $-1 $22 $4 #
transform $-1 1 0 0 0 1 0 0 0 1 43.927121799371321 24.075258713289887 10.761384220227679 1 rotate no_reflect no_shear #
lump $-1 $-1 $23 $5 #
transform $-1 1 0 0 0 1 0 0 0 1 43.927121799371321 24.075258713289887 10.761384220227679 1 rotate no_reflect no_shear #
shell $-1 $-1 $-1 $24 $-1 $6 #
shell $-1 $-1 $-1 $25 $-1 $8 #
shell $-1 $-1 $-1 $26 $-1 $10 #
shell $-1 $-1 $-1 $27 $-1 $12 #
shell $-1 $-1 $-1 $28 $-1 $14 #
shell $-1 $-1 $-1 $29 $-1 $16 #
face $-1 $30 $31 $18 $-1 $32 reversed single #
face $-1 $33 $34 $19 $-1 $35 forward single #
face $-1 $36 $37 $20 $-1 $38 reversed single #
face $-1 $39 $40 $21 $-1 $41 forward single #
face $-1 $42 $43 $22 $-1 $44 reversed single #
face $-1 $45 $46 $23 $-1 $47 forward single #
face $-1 $48 $49 $18 $-1 $50 forward single #
loop $-1 $-1 $51 $24 #
plane-surface $-1 0 -24.075258713289887 0 0 1 0 0 0 1 forward_v I I I I #
face $-1 $52 $53 $19 $-1 $54 forward single #
loop $-1 $-1 $55 $25 #
plane-surface $-1 0 -24.075258713289887 0 0 1 0 0 0 1 forward_v I I I I #
face $-1 $56 $57 $20 $-1 $58 reversed single #
loop $-1 $-1 $59 $26 #
plane-surface $-1 -89.175402897055932 16.302996918160588 80.6885615537348 0 1 0 -0.51503808176128008 0 0.85716729658548041 forward_v I I I I #
face $-1 $60 $61 $21 $-1 $62 forward single #
loop $-1 $63 $64 $27 #
cone-surface $-1 -39.011668347245134 20.189127815725232 7.3402956822338012 0.51503808176128008 0 -0.85716729658548041 0.85716729658548041 0 0.51503808176128008 1 I I 0 1 1 forward I I I I #
face $-1 $65 $66 $22 $-1 $67 reversed single #
loop $-1 $-1 $68 $28 #
plane-surface $-1 13.869618417959472 16.302996918160588 125.93684265141943 0 1 0 0.51503808176128008 0 0.85716729658548041 forward_v I I I I #
face $-1 $69 $70 $23 $-1 $71 forward single #
loop $-1 $72 $73 $29 #
cone-surface $-1 39.011668347245148 20.189127815725232 7.3402956822338012 -0.51503808176128008 0 -0.85716729658548041 0.85716729658548041 0 -0.51503808176128008 1 I I 0 1 1 forward I I I I #
face $-1 $74 $75 $18 $-1 $76 reversed single #
loop $-1 $-1 $77 $30 #
plane-surface $-1 0 0 10.761384220227679 0 0 1 1 0 0 forward_v I I I I #
coedge $-1 $78 $79 $80 $81 reversed $31 $-1 #
face $-1 $82 $83 $19 $-1 $84 reversed single #
loop $-1 $-1 $85 $33 #
plane-surface $-1 0 0 10.761384220227679 0 0 1 1 0 0 forward_v I I I I #
coedge $-1 $86 $87 $88 $89 forward $34 $-1 #
face $-1 $90 $91 $20 $-1 $92 reversed single #
loop $-1 $-1 $93 $36 #
plane-surface $-1 -43.927121799371299 20.189127815725239 5.3827770746383266 -0.51503808176128008 0 0.85716729658548041 0.85716729658548041 0 0.51503808176128008 forward_v I I I I #
coedge $-1 $94 $95 $96 $97 reversed $37 $-1 #
face $-1 $-1 $98 $21 $-1 $99 forward single #
loop $-1 $100 $101 $39 #
cone-surface $-1 -38.314448531219071 20.189127815725232 6.1799270687418613 0.51503808176128008 0 -0.85716729658548041 0.4285836482927402 0 0.25751904088064004 1 I I -0.70710678118654746 0.70710678118654746 0.5 forward I I I I #
loop $-1 $-1 $102 $27 #
coedge $-1 $64 $64 $103 $104 reversed $40 $-1 #
face $-1 $105 $106 $22 $-1 $107 reversed single #
loop $-1 $-1 $108 $42 #
plane-surface $-1 -31.37866267972516 20.189127815725239 50.631058172322952 0.51503808176128008 0 0.85716729658548041 0.85716729658548041 0 -0.51503808176128008 forward_v I I I I #
coedge $-1 $109 $110 $111 $112 reversed $43 $-1 #
face $-1 $-1 $113 $23 $-1 $114 forward single #
loop $-1 $115 $116 $45 #
cone-surface $-1 38.314448531219085 20.189127815725232 6.1799270687418613 -0.51503808176128008 0 -0.85716729658548041 0.4285836482927402 0 -0.25751904088064004 1 I I -0.70710678118654746 0.70710678118654746 0.5 forward I I I I #
loop $-1 $-1 $117 $29 #
coedge $-1 $73 $73 $118 $119 reversed $46 $-1 #
face $-1 $120 $121 $18 $-1 $122 reversed single #
loop $-1 $-1 $123 $48 #
plane-surface $-1 0 0 -10.761384220227679 0 0 1 1 0 0 forward_v I I I I #
coedge $-1 $124 $125 $126 $127 forward $49 $-1 #
coedge $-1 $128 $51 $129 $130 reversed $31 $-1 #
coedge $-1 $51 $128 $131 $132 forward $31 $-1 #
coedge $-1 $133 $123 $51 $81 forward $75 $-1 #
edge $-1 $134 -43.927121799371321 $135 43.927121799371321 $51 $136 forward 7 unknown #
face $-1 $137 $138 $19 $-1 $139 reversed single #
loop $-1 $-1 $140 $52 #
plane-surface $-1 -43.927121799371321 0 0 1 0 0 0 0 -1 forward_v I I I I #
coedge $-1 $141 $142 $87 $143 forward $53 $-1 #
coedge $-1 $144 $55 $145 $146 reversed $34 $-1 #
coedge $-1 $55 $144 $85 $143 reversed $34 $-1 #
coedge $-1 $147 $148 $55 $89 reversed $149 $-1 #
edge $-1 $150 -10.761384220227679 $151 10.761384220227679 $88 $152 forward 7 unknown #
face $-1 $153 $154 $20 $-1 $155 reversed single #
loop $-1 $-1 $156 $56 #
plane-surface $-1 0 24.075258713289887 0 0 -1 0 0 0 -1 forward_v I I I I #
coedge $-1 $157 $158 $159 $160 reversed $57 $-1 #
coedge $-1 $95 $59 $161 $162 reversed $37 $-1 #
coedge $-1 $59 $94 $157 $163 reversed $37 $-1 #
coedge $-1 $159 $164 $59 $97 forward $165 $-1 #
edge $-1 $166 0.66057964915664513 $167 9.6120850031181959 $96 $168 forward 7 unknown #
loop $-1 $-1 $103 $60 #
plane-surface $-1 -43.927121799371299 20.189127815725239 5.3827770746383266 -0.51503808176128008 0 0.85716729658548041 0.85716729658548041 0 0.51503808176128008 forward_v I I I I #
loop $-1 $-1 $169 $39 #
coedge $-1 $101 $101 $102 $170 reversed $61 $-1 #
coedge $-1 $102 $102 $101 $170 forward $63 $-1 #
coedge $-1 $103 $103 $64 $104 forward $98 $-1 #
edge $-1 $171 0 $171 6.2831853071796004 $103 $172 forward 7 unknown #
face $-1 $173 $174 $22 $-1 $175 reversed single #
loop $-1 $-1 $111 $65 #
plane-surface $-1 43.927121799371321 0 0 -1 0 0 0 0 1 forward_v I I I I #
coedge $-1 $176 $177 $178 $179 reversed $66 $-1 #
coedge $-1 $110 $68 $180 $181 reversed $43 $-1 #
coedge $-1 $68 $109 $176 $182 reversed $43 $-1 #
coedge $-1 $178 $183 $68 $112 forward $106 $-1 #
edge $-1 $184 52.20703710548203 $185 57.585644251071393 $111 $186 forward 7 unknown #
loop $-1 $-1 $118 $69 #
plane-surface $-1 -31.37866267972516 20.189127815725239 50.631058172322952 0.51503808176128008 0 0.85716729658548041 0.85716729658548041 0 -0.51503808176128008 forward_v I I I I #
loop $-1 $-1 $187 $45 #
coedge $-1 $116 $116 $117 $188 reversed $70 $-1 #
coedge $-1 $117 $117 $116 $188 forward $72 $-1 #
coedge $-1 $118 $118 $73 $119 forward $113 $-1 #
edge $-1 $189 0 $189 6.2831853071796004 $118 $190 forward 7 unknown #
face $-1 $191 $192 $18 $-1 $193 reversed single #
loop $-1 $-1 $194 $74 #
plane-surface $-1 -43.927121799371321 0 0 1 0 0 0 0 -1 forward_v I I I I #
coedge $-1 $80 $195 $196 $197 forward $75 $-1 #
coedge $-1 $198 $77 $199 $200 forward $49 $-1 #
coedge $-1 $77 $198 $128 $201 forward $49 $-1 #
coedge $-1 $129 $202 $77 $127 reversed $203 $-1 #
edge $-1 $204 -24.075258713289887 $205 24.075258713289887 $126 $206 forward 7 unknown #
coedge $-1 $79 $78 $125 $201 reversed $31 $-1 #
coedge $-1 $196 $126 $78 $130 forward $203 $-1 #
edge $-1 $204 -10.761384220227679 $134 10.761384220227679 $129 $207 forward 7 unknown #
coedge $-1 $208 $209 $79 $132 reversed $121 $-1 #
edge $-1 $210 -10.761384220227679 $135 10.761384220227679 $131 $211 forward 7 unknown #
coedge $-1 $195 $80 $209 $212 forward $75 $-1 #
vertex $-1 $130 $213 #
vertex $-1 $212 $214 #
straight-curve $-1 0 -24.075258713289887 -10.761384220227679 -1 0 0 I I #
face $-1 $215 $149 $19 $-1 $216 reversed single #
loop $-1 $-1 $217 $82 #
plane-surface $-1 -42.044314719194823 -35.964658800879462 0 0 1 0 0 0 1 forward_v I I I I #
coedge $-1 $218 $219 $144 $220 forward $83 $-1 #
coedge $-1 $221 $85 $219 $222 forward $53 $-1 #
coedge $-1 $85 $221 $147 $223 forward $53 $-1 #
edge $-1 $150 40.161507639018325 $224 43.927121799371321 $85 $225 forward 7 unknown #
coedge $-1 $87 $86 $140 $220 reversed $34 $-1 #
coedge $-1 $226 $227 $86 $146 forward $228 $-1 #
edge $-1 $229 -43.927121799371321 $151 -40.161507639018325 $145 $230 forward 7 unknown #
coedge $-1 $231 $88 $142 $223 reversed $149 $-1 #
coedge $-1 $88 $231 $226 $232 reversed $149 $-1 #
loop $-1 $-1 $231 $137 #
vertex $-1 $143 $233 #
vertex $-1 $232 $234 #
straight-curve $-1 -40.161507639018325 -24.075258713289887 0 0 0 -1 I I #
face $-1 $-1 $165 $20 $-1 $235 forward single #
loop $-1 $-1 $236 $90 #
plane-surface $-1 -43.927121799371321 0 0 1 0 0 0 0 -1 forward_v I I I I #
coedge $-1 $237 $238 $158 $239 forward $91 $-1 #
coedge $-1 $240 $93 $95 $163 forward $57 $-1 #
coedge $-1 $93 $240 $156 $239 reversed $57 $-1 #
coedge $-1 $241 $96 $93 $160 forward $165 $-1 #
edge $-1 $167 6.2084330102979681 $242 13.980694805427271 $159 $243 forward 7 unknown #
coedge $-1 $244 $236 $94 $162 forward $154 $-1 #
edge $-1 $245 -34.961503702229088 $166 -29.582896556639721 $161 $246 forward 7 unknown #
edge $-1 $167 -10.443125151437512 $245 2.4675859811215743e-014 $95 $247 forward 7 unknown #
coedge $-1 $96 $241 $244 $248 forward $165 $-1 #
loop $-1 $-1 $159 $153 #
vertex $-1 $162 $249 #
vertex $-1 $97 $250 #
straight-curve $-1 -44.587701448527966 16.302996918160588 10.761384220227676 1 0 0 I I #
coedge $-1 $169 $169 $-1 $251 reversed $100 $-1 #
edge $-1 $252 0 $252 6.2831853071796004 $101 $253 forward 7 unknown #
vertex $-1 $104 $254 #
ellipse-curve $-1 -39.451369122390552 20.189127815725232 8.072080647432994 -0.51503808176128008 0 0.85716729658548041 0.85716729658548041 0 0.51503808176128008 1 I I #
face $-1 $-1 $255 $22 $-1 $256 forward single #
loop $-1 $-1 $257 $105 #
plane-surface $-1 0 24.075258713289887 0 0 -1 0 0 0 -1 forward_v I I I I #
coedge $-1 $258 $108 $110 $182 forward $66 $-1 #
coedge $-1 $108 $258 $257 $259 reversed $66 $-1 #
coedge $-1 $260 $111 $108 $179 forward $106 $-1 #
edge $-1 $185 6.2084330102979681 $261 13.980694805427268 $178 $262 forward 7 unknown #
coedge $-1 $263 $264 $109 $181 forward $255 $-1 #
edge $-1 $265 28.040807236430041 $184 36.992312590391585 $180 $266 forward 7 unknown #
edge $-1 $185 -87.854243598742642 $265 -77.411118447305114 $110 $267 forward 7 unknown #
coedge $-1 $111 $260 $263 $268 reversed $106 $-1 #
vertex $-1 $268 $269 #
vertex $-1 $112 $270 #
straight-curve $-1 43.927121799371321 16.302996918160588 62.968421325709713 0 0 -1 I I #
coedge $-1 $187 $187 $-1 $271 reversed $115 $-1 #
edge $-1 $272 0 $272 6.2831853071796004 $116 $273 forward 7 unknown #
vertex $-1 $119 $274 #
ellipse-curve $-1 39.451369122390567 20.189127815725232 8.072080647432994 0.51503808176128008 0 0.85716729658548041 0.85716729658548041 0 -0.51503808176128008 1 I I #
face $-1 $-1 $203 $18 $-1 $275 reversed single #
loop $-1 $-1 $276 $120 #
plane-surface $-1 0 24.075258713289887 0 0 -1 0 0 0 -1 forward_v I I I I #
coedge $-1 $209 $208 $277 $278 forward $121 $-1 #
coedge $-1 $123 $133 $279 $280 forward $75 $-1 #
coedge $-1 $202 $129 $123 $197 reversed $203 $-1 #
edge $-1 $281 -24.075258713289887 $134 24.075258713289887 $196 $282 forward 7 unknown #
coedge $-1 $125 $124 $208 $283 forward $49 $-1 #
coedge $-1 $276 $277 $124 $200 reversed $192 $-1 #
edge $-1 $205 -43.927121799371321 $284 43.927121799371321 $199 $285 forward 7 unknown #
edge $-1 $210 -43.927121799371321 $204 43.927121799371321 $128 $286 forward 7 unknown #
coedge $-1 $126 $196 $276 $287 reversed $203 $-1 #
loop $-1 $-1 $129 $191 #
vertex $-1 $127 $288 #
vertex $-1 $127 $289 #
straight-curve $-1 43.927121799371321 0 10.761384220227679 0 1 0 I I #
straight-curve $-1 43.927121799371321 -24.075258713289887 0 0 0 -1 I I #
coedge $-1 $194 $131 $198 $283 reversed $121 $-1 #
coedge $-1 $131 $194 $133 $212 reversed $121 $-1 #
vertex $-1 $283 $290 #
straight-curve $-1 -43.927121799371321 -24.075258713289887 0 0 0 -1 I I #
edge $-1 $135 -24.075258713289887 $291 24.075258713289887 $209 $292 forward 7 unknown #
point $-1 43.927121799371321 -24.075258713289887 -10.761384220227679 #
point $-1 -43.927121799371321 -24.075258713289887 -10.761384220227679 #
face $-1 $-1 $228 $19 $-1 $293 reversed single #
plane-surface $-1 -40.161507639018325 -30.019958757084673 0 -1 0 0 0 0 1 forward_v I I I I #
coedge $-1 $294 $295 $296 $297 forward $138 $-1 #
coedge $-1 $296 $140 $227 $298 reversed $83 $-1 #
coedge $-1 $140 $296 $141 $222 reversed $83 $-1 #
edge $-1 $224 -10.761384220227679 $229 10.761384220227679 $140 $299 forward 7 unknown #
coedge $-1 $142 $141 $295 $300 forward $53 $-1 #
edge $-1 $224 24.075258713289887 $301 35.964658800879462 $219 $302 forward 7 unknown #
edge $-1 $303 -5.9447000437947892 $150 5.9447000437947857 $147 $304 forward 7 unknown #
vertex $-1 $222 $305 #
straight-curve $-1 0 -24.075258713289887 10.761384220227679 -1 0 0 I I #
coedge $-1 $306 $145 $148 $232 forward $228 $-1 #
coedge $-1 $145 $306 $218 $298 forward $228 $-1 #
loop $-1 $-1 $145 $215 #
vertex $-1 $220 $307 #
straight-curve $-1 0 -24.075258713289887 -10.761384220227679 1 0 0 I I #
coedge $-1 $148 $147 $308 $309 forward $149 $-1 #
edge $-1 $151 -5.9447000437947857 $310 5.9447000437947892 $148 $311 forward 7 unknown #
point $-1 -40.161507639018325 -24.075258713289887 10.761384220227679 #
point $-1 -40.161507639018325 -24.075258713289887 -10.761384220227679 #
plane-surface $-1 0 0 10.761384220227679 0 0 1 1 0 0 forward_v I I I I #
coedge $-1 $161 $312 $240 $313 forward $154 $-1 #
coedge $-1 $238 $156 $312 $314 reversed $91 $-1 #
coedge $-1 $156 $237 $241 $315 reversed $91 $-1 #
edge $-1 $242 6.9971533788014391 $316 17.440278530238977 $156 $317 forward 7 unknown #
coedge $-1 $158 $157 $236 $313 reversed $57 $-1 #
coedge $-1 $164 $159 $238 $315 forward $165 $-1 #
vertex $-1 $315 $318 #
straight-curve $-1 -34.97561644540977 10.09456390786262 10.761384220227679 0 1 0 I I #
coedge $-1 $312 $161 $164 $248 reversed $154 $-1 #
vertex $-1 $162 $319 #
straight-curve $-1 -43.927121799371321 16.302996918160588 40.3442807768674 0 0 1 I I #
straight-curve $-1 -43.927121799371299 16.302996918160588 5.3827770746383266 -0.85716729658548041 0 -0.51503808176128008 I I #
edge $-1 $320 -24.075258713289887 $166 -16.302996918160588 $244 $321 forward 7 unknown #
point $-1 -43.927121799371321 16.302996918160588 10.761384220227679 #
point $-1 -34.97561644540977 16.302996918160588 10.761384220227679 #
edge $-1 $322 1 $322 0 $169 $-1 forward 7 unknown #
vertex $-1 $170 $323 #
ellipse-curve $-1 -38.571967572099709 20.189127815725232 6.6085107170346014 -0.51503808176128008 0 0.85716729658548041 0.85716729658548041 0 0.51503808176128008 1 I I #
point $-1 -38.594201825805072 20.189127815725232 8.5871187291942839 #
loop $-1 $-1 $180 $173 #
plane-surface $-1 0 0 10.761384220227679 0 0 1 1 0 0 forward_v I I I I #
coedge $-1 $324 $325 $177 $259 forward $174 $-1 #
coedge $-1 $177 $176 $264 $326 reversed $66 $-1 #
edge $-1 $261 -61.367400329610284 $327 -50.924275178172749 $257 $328 forward 7 unknown #
coedge $-1 $183 $178 $325 $329 reversed $106 $-1 #
vertex $-1 $259 $330 #
straight-curve $-1 43.927121799371321 10.09456390786262 5.3827770746383194 0 1 0 I I #
coedge $-1 $331 $180 $183 $268 forward $255 $-1 #
coedge $-1 $180 $331 $258 $326 forward $255 $-1 #
vertex $-1 $181 $332 #
straight-curve $-1 6.9348092089797362 16.302996918160588 10.761384220227683 1 0 0 I I #
straight-curve $-1 -31.37866267972516 16.302996918160588 50.631058172322952 -0.85716729658548041 0 0.51503808176128008 I I #
edge $-1 $184 16.302996918160588 $333 24.075258713289887 $183 $334 forward 7 unknown #
point $-1 43.927121799371321 16.302996918160588 10.761384220227679 #
point $-1 43.927121799371314 16.302996918160588 5.3827770746383194 #
edge $-1 $335 1 $335 0 $187 $-1 forward 7 unknown #
vertex $-1 $188 $336 #
ellipse-curve $-1 38.571967572099723 20.189127815725232 6.6085107170346014 0.51503808176128008 0 0.85716729658548041 0.85716729658548041 0 -0.51503808176128008 1 I I #
point $-1 40.308536418976047 20.189127815725232 7.5570425656717228 #
plane-surface $-1 43.927121799371321 0 0 -1 0 0 0 0 1 forward_v I I I I #
coedge $-1 $279 $199 $202 $287 forward $192 $-1 #
coedge $-1 $199 $279 $194 $278 reversed $192 $-1 #
edge $-1 $284 -10.761384220227679 $291 10.761384220227679 $277 $337 forward 7 unknown #
coedge $-1 $277 $276 $195 $280 reversed $192 $-1 #
edge $-1 $291 -43.927121799371321 $281 43.927121799371321 $279 $338 forward 7 unknown #
vertex $-1 $197 $339 #
straight-curve $-1 43.927121799371321 0 -10.761384220227679 0 -1 0 I I #
edge $-1 $284 -24.075258713289887 $210 24.075258713289887 $208 $340 forward 7 unknown #
vertex $-1 $200 $341 #
straight-curve $-1 0 24.075258713289887 10.761384220227679 -1 0 0 I I #
straight-curve $-1 0 -24.075258713289887 10.761384220227679 1 0 0 I I #
edge $-1 $205 -10.761384220227679 $281 10.761384220227679 $202 $342 forward 7 unknown #
point $-1 43.927121799371321 -24.075258713289887 10.761384220227679 #
point $-1 43.927121799371321 24.075258713289887 10.761384220227679 #
point $-1 -43.927121799371321 -24.075258713289887 10.761384220227679 #
vertex $-1 $280 $343 #
straight-curve $-1 -43.927121799371321 0 -10.761384220227679 0 1 0 I I #
plane-surface $-1 0 0 -10.761384220227679 0 0 1 1 0 0 forward_v I I I I #
coedge $-1 $308 $217 $306 $344 reversed $138 $-1 #
coedge $-1 $217 $308 $221 $300 reversed $138 $-1 #
coedge $-1 $219 $218 $217 $297 reversed $83 $-1 #
edge $-1 $301 -10.761384220227679 $345 10.761384220227679 $296 $346 forward 7 unknown #
edge $-1 $345 -35.964658800879462 $229 -24.075258713289887 $218 $347 forward 7 unknown #
straight-curve $-1 -43.927121799371321 -24.075258713289887 0 0 0 -1 I I #
edge $-1 $301 -1.882807080176498 $303 1.882807080176498 $295 $348 forward 7 unknown #
vertex $-1 $222 $349 #
straight-curve $-1 -43.927121799371321 0 10.761384220227679 0 -1 0 I I #
vertex $-1 $223 $350 #
straight-curve $-1 -40.161507639018325 -30.019958757084673 10.761384220227679 0 1 0 I I #
point $-1 -43.927121799371321 -24.075258713289887 10.761384220227679 #
coedge $-1 $227 $226 $294 $344 forward $228 $-1 #
point $-1 -43.927121799371321 -24.075258713289887 -10.761384220227679 #
coedge $-1 $295 $294 $231 $309 reversed $138 $-1 #
edge $-1 $303 -10.761384220227679 $310 10.761384220227679 $231 $351 forward 7 unknown #
vertex $-1 $309 $352 #
straight-curve $-1 -40.161507639018325 -30.019958757084673 -10.761384220227679 0 -1 0 I I #
coedge $-1 $236 $244 $237 $314 forward $154 $-1 #
edge $-1 $316 -13.980694805427271 $245 -6.2084330102979681 $236 $353 forward 7 unknown #
edge $-1 $320 -10.761384220227679 $316 -5.3827770746383141 $237 $354 forward 7 unknown #
edge $-1 $242 34.97561644540977 $320 43.927121799371321 $238 $355 forward 7 unknown #
vertex $-1 $313 $356 #
straight-curve $-1 -28.97788539990858 24.075258713289887 14.365184674235032 -0.85716729658548041 0 -0.51503808176128008 I I #
point $-1 -34.97561644540977 24.075258713289891 10.761384220227679 #
point $-1 -43.927121799371321 16.302996918160588 5.3827770746383141 #
vertex $-1 $315 $357 #
straight-curve $-1 -43.927121799371321 0 10.761384220227679 0 -1 0 I I #
vertex $-1 $251 $358 #
point $-1 -37.714800275514229 20.189127815725232 7.1235487987958814 #
coedge $-1 $325 $257 $331 $359 reversed $174 $-1 #
coedge $-1 $257 $324 $260 $329 forward $174 $-1 #
edge $-1 $327 -13.980694805427271 $265 -6.2084330102979681 $264 $360 forward 7 unknown #
vertex $-1 $259 $361 #
straight-curve $-1 -8.6750068396396465 24.075258713289887 36.989325223077344 -0.85716729658548041 0 0.51503808176128008 I I #
edge $-1 $333 -10.761384220227679 $261 -5.3827770746383257 $260 $362 forward 7 unknown #
point $-1 43.927121799371321 24.075258713289887 5.3827770746383257 #
coedge $-1 $264 $263 $324 $359 forward $255 $-1 #
point $-1 34.975616445409777 16.302996918160588 10.761384220227683 #
vertex $-1 $268 $363 #
straight-curve $-1 43.927121799371321 0 10.761384220227679 0 1 0 I I #
vertex $-1 $271 $364 #
point $-1 39.429134868685203 20.189127815725232 6.0934726352733213 #
straight-curve $-1 -43.927121799371321 24.075258713289887 0 0 0 -1 I I #
straight-curve $-1 0 24.075258713289887 -10.761384220227679 1 0 0 I I #
point $-1 43.927121799371321 24.075258713289887 -10.761384220227679 #
straight-curve $-1 -43.927121799371321 0 10.761384220227679 0 -1 0 I I #
point $-1 -43.927121799371321 24.075258713289887 10.761384220227679 #
straight-curve $-1 43.927121799371321 24.075258713289887 0 0 0 -1 I I #
point $-1 -43.927121799371321 24.075258713289887 -10.761384220227679 #
edge $-1 $310 -1.882807080176498 $345 1.882807080176498 $294 $365 forward 7 unknown #
vertex $-1 $298 $366 #
straight-curve $-1 -43.927121799371321 -35.964658800879462 0 0 0 -1 I I #
straight-curve $-1 -43.927121799371321 0 -10.761384220227679 0 1 0 I I #
straight-curve $-1 -42.044314719194823 -35.964658800879462 10.761384220227679 1 0 0 I I #
point $-1 -43.927121799371321 -35.964658800879462 10.761384220227679 #
point $-1 -40.161507639018325 -35.964658800879462 10.761384220227679 #
straight-curve $-1 -40.161507639018325 -35.964658800879462 0 0 0 -1 I I #
point $-1 -40.161507639018325 -35.964658800879462 -10.761384220227679 #
straight-curve $-1 -43.927121799371321 10.09456390786262 5.3827770746383141 0 -1 0 I I #
straight-curve $-1 -43.927121799371321 24.075258713289887 0 0 0 -1 I I #
straight-curve $-1 0 24.075258713289887 10.761384220227679 -1 0 0 I I #
point $-1 -43.927121799371321 24.075258713289891 5.3827770746383141 #
point $-1 -43.927121799371321 24.075258713289887 10.761384220227679 #
point $-1 -38.056929490338433 20.189127815725232 5.7513434204491212 #
edge $-1 $333 -43.927121799371321 $327 -34.975616445409777 $324 $367 forward 7 unknown #
straight-curve $-1 34.975616445409784 10.09456390786262 10.761384220227676 0 -1 0 I I #
point $-1 34.975616445409777 24.075258713289891 10.761384220227683 #
straight-curve $-1 43.927121799371321 24.075258713289887 0 0 0 -1 I I #
point $-1 43.927121799371321 24.075258713289887 10.761384220227679 #
point $-1 38.056929490338447 20.189127815725232 5.7513434204491212 #
straight-curve $-1 -42.044314719194823 -35.964658800879462 -10.761384220227679 -1 0 0 I I #
point $-1 -43.927121799371321 -35.964658800879462 -10.761384220227679 #
straight-curve $-1 0 24.075258713289887 10.761384220227679 -1 0 0 I I #
End-of-ACIS-data 