500 0 10 0           
7 Unknown 11 ACIS 5.0 NT 24 Fri Mar 26 19:35:04 1999 
-1 9.9999999999999995e-007 1e-010 
body $-1 $10 $-1 $11 #
body $-1 $12 $-1 $13 #
body $-1 $14 $-1 $15 #
body $-1 $16 $-1 $17 #
body $-1 $18 $-1 $19 #
body $-1 $20 $-1 $21 #
body $-1 $22 $-1 $23 #
body $-1 $24 $-1 $25 #
body $-1 $26 $-1 $27 #
body $-1 $28 $-1 $29 #
lump $-1 $-1 $30 $0 #
transform $-1 1 0 0 0 1 0 0 0 1 58.17438276314585 36.141547669029322 12.642758319245424 1 rotate no_reflect no_shear #
lump $-1 $-1 $31 $1 #
transform $-1 1 0 0 0 1 0 0 0 1 58.17438276314585 36.141547669029322 12.642758319245424 1 rotate no_reflect no_shear #
lump $-1 $-1 $32 $2 #
transform $-1 1 0 0 0 1 0 0 0 1 58.17438276314585 36.141547669029322 12.642758319245424 1 rotate no_reflect no_shear #
lump $-1 $-1 $33 $3 #
transform $-1 1 0 0 0 1 0 0 0 1 58.17438276314585 36.141547669029322 12.642758319245424 1 rotate no_reflect no_shear #
lump $-1 $-1 $34 $4 #
transform $-1 1 0 0 0 1 0 0 0 1 58.17438276314585 36.141547669029322 12.642758319245424 1 rotate no_reflect no_shear #
lump $-1 $-1 $35 $5 #
transform $-1 1 0 0 0 1 0 0 0 1 58.17438276314585 36.141547669029322 12.642758319245424 1 rotate no_reflect no_shear #
lump $-1 $-1 $36 $6 #
transform $-1 1 0 0 0 1 0 0 0 1 58.17438276314585 36.141547669029322 12.642758319245424 1 rotate no_reflect no_shear #
lump $-1 $-1 $37 $7 #
transform $-1 1 0 0 0 1 0 0 0 1 58.17438276314585 36.141547669029322 12.642758319245424 1 rotate no_reflect no_shear #
lump $-1 $-1 $38 $8 #
transform $-1 1 0 0 0 1 0 0 0 1 58.17438276314585 36.141547669029322 12.642758319245424 1 rotate no_reflect no_shear #
lump $-1 $-1 $39 $9 #
transform $-1 1 0 0 0 1 0 0 0 1 58.17438276314585 36.141547669029322 12.642758319245424 1 rotate no_reflect no_shear #
shell $-1 $-1 $-1 $40 $-1 $10 #
shell $-1 $-1 $-1 $41 $-1 $12 #
shell $-1 $-1 $-1 $42 $-1 $14 #
shell $-1 $-1 $-1 $43 $-1 $16 #
shell $-1 $-1 $-1 $44 $-1 $18 #
shell $-1 $-1 $-1 $45 $-1 $20 #
shell $-1 $-1 $-1 $46 $-1 $22 #
shell $-1 $-1 $-1 $47 $-1 $24 #
shell $-1 $-1 $-1 $48 $-1 $26 #
shell $-1 $-1 $-1 $49 $-1 $28 #
face $-1 $50 $51 $30 $-1 $52 forward single #
face $-1 $53 $54 $31 $-1 $55 reversed single #
face $-1 $56 $57 $32 $-1 $58 reversed single #
face $-1 $59 $60 $33 $-1 $61 forward single #
face $-1 $62 $63 $34 $-1 $64 forward single #
face $-1 $65 $66 $35 $-1 $67 forward single #
face $-1 $68 $69 $36 $-1 $70 reversed single #
face $-1 $71 $72 $37 $-1 $73 forward single #
face $-1 $74 $75 $38 $-1 $76 forward single #
face $-1 $77 $78 $39 $-1 $79 forward single #
face $-1 $80 $81 $30 $-1 $82 reversed single #
loop $-1 $-1 $83 $40 #
plane-surface $-1 0 0 12.642758319245424 0 0 1 1 0 0 forward_v I I I I #
face $-1 $84 $85 $31 $-1 $86 reversed single #
loop $-1 $-1 $87 $41 #
plane-surface $-1 -50.231241018525466 0 7.2853957513349457 0 0 1 1 0 0 forward_v I I I I #
face $-1 $88 $89 $32 $-1 $90 reversed single #
loop $-1 $-1 $91 $42 #
plane-surface $-1 -28.563459309466573 -4.2786454196657075 63.366449051512632 0 0.82903758062907751 0.55919289150049634 1 0 0 forward_v I I I I #
face $-1 $92 $93 $33 $-1 $94 forward single #
loop $-1 $95 $96 $43 #
cone-surface $-1 -36.798243288129683 31.344342579795693 6.8993601168039067 0 -0.82903758062907751 -0.55919289150049634 1.5 0 0 1 I I 0 1 1.5 forward I I I I #
face $-1 $97 $98 $34 $-1 $99 forward single #
loop $-1 $100 $101 $44 #
cone-surface $-1 -28.563459309466573 31.344342579795693 6.8993601168039067 0 -0.82903758062907751 -0.55919289150049634 1.5 0 0 1 I I 0 1 1.5 forward I I I I #
face $-1 $102 $103 $35 $-1 $104 forward single #
loop $-1 $105 $106 $45 #
cone-surface $-1 -20.32867533080347 31.344342579795693 6.8993601168039067 0 -0.82903758062907751 -0.55919289150049634 1.5 0 0 1 I I 0 1 1.5 forward I I I I #
face $-1 $107 $108 $36 $-1 $109 reversed single #
loop $-1 $-1 $110 $46 #
plane-surface $-1 6.0092640097898844 -96.065592680983542 100.86069631662059 -1 0 0 0 -0.51503808176128008 0.85716729658548041 forward_v I I I I #
face $-1 $111 $112 $37 $-1 $113 forward single #
loop $-1 $114 $115 $47 #
cone-surface $-1 -7.8569928876999029 -25.753675714199222 5.5419260861134081 0 0.51503808176128008 -0.85716729658548041 1 0 0 1 I I 0 1 1 forward I I I I #
face $-1 $116 $117 $38 $-1 $118 forward single #
loop $-1 $119 $120 $48 #
cone-surface $-1 -2.6571465511412313 -25.753675714199222 5.5419260861134081 0 0.51503808176128008 -0.85716729658548041 1 0 0 1 I I 0 1 1 forward I I I I #
face $-1 $121 $122 $39 $-1 $123 forward single #
loop $-1 $124 $125 $49 #
cone-surface $-1 2.5426997854174402 -25.753675714199222 5.5419260861134081 0 0.51503808176128008 -0.85716729658548041 1 0 0 1 I I 0 1 1 forward I I I I #
face $-1 $126 $127 $30 $-1 $128 reversed single #
loop $-1 $-1 $129 $50 #
plane-surface $-1 0 0 -12.642758319245424 0 0 1 1 0 0 forward_v I I I I #
coedge $-1 $130 $131 $132 $133 forward $51 $-1 #
face $-1 $134 $135 $31 $-1 $136 reversed single #
loop $-1 $-1 $137 $53 #
plane-surface $-1 -42.288099273905082 0 9.9640770352901846 -1 0 0 0 0 1 forward_v I I I I #
coedge $-1 $138 $139 $140 $141 forward $54 $-1 #
face $-1 $142 $143 $32 $-1 $144 forward single #
loop $-1 $-1 $145 $56 #
plane-surface $-1 -14.838819345028064 92.178853661430978 128.42785166867296 -1 0 0 0 0.82903758062907751 0.55919289150049634 forward_v I I I I #
coedge $-1 $146 $147 $148 $149 reversed $57 $-1 #
face $-1 $-1 $150 $33 $-1 $151 forward single #
loop $-1 $152 $153 $59 #
cone-surface $-1 -36.798243288129683 29.028675679936654 5.3374231193259547 0 -0.82903758062907751 -0.55919289150049634 0.75 0 0 1 I I -0.70710678118654757 0.70710678118654757 0.75 forward I I I I #
loop $-1 $-1 $154 $43 #
coedge $-1 $96 $96 $155 $156 reversed $60 $-1 #
face $-1 $-1 $157 $34 $-1 $158 forward single #
loop $-1 $159 $160 $62 #
cone-surface $-1 -28.563459309466573 29.028675679936654 5.3374231193259547 0 -0.82903758062907751 -0.55919289150049634 0.75 0 0 1 I I -0.70710678118654757 0.70710678118654757 0.75 forward I I I I #
loop $-1 $-1 $161 $44 #
coedge $-1 $101 $101 $162 $163 reversed $63 $-1 #
face $-1 $-1 $164 $35 $-1 $165 forward single #
loop $-1 $166 $167 $65 #
cone-surface $-1 -20.32867533080347 29.028675679936654 5.3374231193259547 0 -0.82903758062907751 -0.55919289150049634 0.75 0 0 1 I I -0.70710678118654757 0.70710678118654757 0.75 forward I I I I #
loop $-1 $-1 $168 $45 #
coedge $-1 $106 $106 $169 $170 reversed $66 $-1 #
face $-1 $171 $172 $36 $-1 $173 reversed single #
loop $-1 $-1 $174 $68 #
plane-surface $-1 -2.6571465511412313 -36.141547669029315 1.1303395093911917 0 -0.51503808176128008 0.85716729658548041 1 0 0 forward_v I I I I #
coedge $-1 $175 $176 $177 $178 reversed $69 $-1 #
face $-1 $-1 $179 $37 $-1 $180 forward single #
loop $-1 $181 $182 $71 #
cone-surface $-1 -7.8569928876999029 -24.688225753777228 3.7687196096157578 0 0.51503808176128008 -0.85716729658548041 0.5 0 0 1 I I -0.70710678118654746 0.70710678118654746 0.5 forward I I I I #
loop $-1 $-1 $183 $47 #
coedge $-1 $115 $115 $184 $185 reversed $72 $-1 #
face $-1 $-1 $186 $38 $-1 $187 forward single #
loop $-1 $188 $189 $74 #
cone-surface $-1 -2.6571465511412313 -24.688225753777228 3.7687196096157578 0 0.51503808176128008 -0.85716729658548041 0.5 0 0 1 I I -0.70710678118654746 0.70710678118654746 0.5 forward I I I I #
loop $-1 $-1 $190 $48 #
coedge $-1 $120 $120 $191 $192 reversed $75 $-1 #
face $-1 $-1 $193 $39 $-1 $194 forward single #
loop $-1 $195 $196 $77 #
cone-surface $-1 2.5426997854174402 -24.688225753777228 3.7687196096157578 0 0.51503808176128008 -0.85716729658548041 0.5 0 0 1 I I -0.70710678118654746 0.70710678118654746 0.5 forward I I I I #
loop $-1 $-1 $197 $49 #
coedge $-1 $125 $125 $198 $199 reversed $78 $-1 #
face $-1 $200 $201 $30 $-1 $202 reversed single #
loop $-1 $-1 $203 $80 #
plane-surface $-1 0 -36.141547669029322 0 0 1 0 0 0 1 forward_v I I I I #
coedge $-1 $204 $205 $206 $207 forward $81 $-1 #
coedge $-1 $208 $83 $209 $210 forward $51 $-1 #
coedge $-1 $83 $208 $211 $212 forward $51 $-1 #
coedge $-1 $213 $214 $83 $133 reversed $215 $-1 #
edge $-1 $216 -36.141547669029322 $217 36.141547669029322 $132 $218 forward 7 unknown #
face $-1 $219 $220 $31 $-1 $221 reversed single #
loop $-1 $-1 $222 $84 #
plane-surface $-1 0 36.141547669029322 0 0 -1 0 0 0 -1 forward_v I I I I #
coedge $-1 $140 $223 $224 $225 reversed $85 $-1 #
coedge $-1 $226 $87 $227 $228 reversed $54 $-1 #
coedge $-1 $87 $226 $229 $230 reversed $54 $-1 #
coedge $-1 $231 $137 $87 $141 reversed $85 $-1 #
edge $-1 $232 -36.141547669029322 $233 36.141547669029322 $140 $234 forward 7 unknown #
face $-1 $235 $236 $32 $-1 $237 reversed single #
loop $-1 $-1 $148 $88 #
plane-surface $-1 0 0 12.642758319245424 0 0 1 1 0 0 forward_v I I I I #
coedge $-1 $238 $239 $240 $241 reversed $89 $-1 #
coedge $-1 $242 $91 $243 $244 reversed $57 $-1 #
coedge $-1 $91 $242 $238 $245 forward $57 $-1 #
coedge $-1 $240 $246 $91 $149 forward $143 $-1 #
edge $-1 $247 -28.006369619171796 $248 -0.55708969029477728 $148 $249 forward 7 unknown #
loop $-1 $-1 $155 $92 #
plane-surface $-1 -28.563459309466573 -4.2786454196657075 63.366449051512632 0 0.82903758062907751 0.55919289150049634 1 0 0 forward_v I I I I #
loop $-1 $-1 $250 $59 #
coedge $-1 $153 $153 $154 $251 reversed $93 $-1 #
coedge $-1 $154 $154 $153 $251 forward $95 $-1 #
coedge $-1 $155 $155 $96 $156 forward $150 $-1 #
edge $-1 $252 1.1858540265793587e-015 $252 6.2831853071796013 $155 $253 forward 7 unknown #
loop $-1 $-1 $162 $97 #
plane-surface $-1 -28.563459309466573 -4.2786454196657075 63.366449051512632 0 0.82903758062907751 0.55919289150049634 1 0 0 forward_v I I I I #
loop $-1 $-1 $254 $62 #
coedge $-1 $160 $160 $161 $255 reversed $98 $-1 #
coedge $-1 $161 $161 $160 $255 forward $100 $-1 #
coedge $-1 $162 $162 $101 $163 forward $157 $-1 #
edge $-1 $256 1.1858540265793587e-015 $256 6.2831853071796013 $162 $257 forward 7 unknown #
loop $-1 $-1 $169 $102 #
plane-surface $-1 -28.563459309466573 -4.2786454196657075 63.366449051512632 0 0.82903758062907751 0.55919289150049634 1 0 0 forward_v I I I I #
loop $-1 $-1 $258 $65 #
coedge $-1 $167 $167 $168 $259 reversed $103 $-1 #
coedge $-1 $168 $168 $167 $259 forward $105 $-1 #
coedge $-1 $169 $169 $106 $170 forward $164 $-1 #
edge $-1 $260 1.1858540265793587e-015 $260 6.2831853071796013 $169 $261 forward 7 unknown #
face $-1 $262 $263 $36 $-1 $264 reversed single #
loop $-1 $-1 $265 $107 #
plane-surface $-1 -11.323557112072347 -96.065592680983542 100.86069631662059 1 0 0 0 0.51503808176128008 -0.85716729658548041 forward_v I I I I #
coedge $-1 $266 $267 $268 $269 reversed $108 $-1 #
coedge $-1 $176 $110 $270 $271 reversed $69 $-1 #
coedge $-1 $110 $175 $266 $272 reversed $69 $-1 #
coedge $-1 $268 $273 $110 $178 forward $274 $-1 #
edge $-1 $275 11.891248671462449 $276 31.05113074203997 $177 $277 forward 7 unknown #
loop $-1 $-1 $184 $111 #
plane-surface $-1 -2.6571465511412313 -36.141547669029315 1.1303395093911917 0 -0.51503808176128008 0.85716729658548041 1 0 0 forward_v I I I I #
loop $-1 $-1 $278 $71 #
coedge $-1 $182 $182 $183 $279 reversed $112 $-1 #
coedge $-1 $183 $183 $182 $279 forward $114 $-1 #
coedge $-1 $184 $184 $115 $185 forward $179 $-1 #
edge $-1 $280 -9.0178716700492916e-016 $280 6.2831853071795996 $184 $281 forward 7 unknown #
loop $-1 $-1 $191 $116 #
plane-surface $-1 -2.6571465511412313 -36.141547669029315 1.1303395093911917 0 -0.51503808176128008 0.85716729658548041 1 0 0 forward_v I I I I #
loop $-1 $-1 $282 $74 #
coedge $-1 $189 $189 $190 $283 reversed $117 $-1 #
coedge $-1 $190 $190 $189 $283 forward $119 $-1 #
coedge $-1 $191 $191 $120 $192 forward $186 $-1 #
edge $-1 $284 -9.0178716700492916e-016 $284 6.2831853071795996 $191 $285 forward 7 unknown #
loop $-1 $-1 $198 $121 #
plane-surface $-1 -2.6571465511412313 -36.141547669029315 1.1303395093911917 0 -0.51503808176128008 0.85716729658548041 1 0 0 forward_v I I I I #
loop $-1 $-1 $286 $77 #
coedge $-1 $196 $196 $197 $287 reversed $122 $-1 #
coedge $-1 $197 $197 $196 $287 forward $124 $-1 #
coedge $-1 $198 $198 $125 $199 forward $193 $-1 #
edge $-1 $288 -9.0178716700492916e-016 $288 6.2831853071795996 $198 $289 forward 7 unknown #
face $-1 $290 $291 $30 $-1 $292 reversed single #
loop $-1 $-1 $293 $126 #
plane-surface $-1 -58.17438276314585 0 0 1 0 0 0 0 -1 forward_v I I I I #
coedge $-1 $294 $211 $295 $296 forward $127 $-1 #
coedge $-1 $297 $129 $294 $298 forward $81 $-1 #
coedge $-1 $129 $297 $299 $300 forward $81 $-1 #
coedge $-1 $214 $213 $129 $207 reversed $215 $-1 #
edge $-1 $301 -36.141547669029322 $302 36.141547669029322 $206 $303 forward 7 unknown #
coedge $-1 $131 $130 $304 $305 forward $51 $-1 #
coedge $-1 $306 $307 $130 $210 reversed $291 $-1 #
edge $-1 $217 -58.17438276314585 $308 58.17438276314585 $209 $309 forward 7 unknown #
coedge $-1 $203 $310 $131 $212 reversed $127 $-1 #
edge $-1 $311 -58.17438276314585 $216 58.17438276314585 $211 $312 forward 7 unknown #
coedge $-1 $206 $132 $310 $313 forward $215 $-1 #
coedge $-1 $132 $206 $306 $314 reversed $215 $-1 #
loop $-1 $-1 $213 $290 #
vertex $-1 $133 $315 #
vertex $-1 $133 $316 #
straight-curve $-1 58.17438276314585 0 12.642758319245424 0 1 0 I I #
face $-1 $317 $318 $31 $-1 $319 forward single #
loop $-1 $-1 $320 $134 #
plane-surface $-1 -58.17438276314585 0 0 1 0 0 0 0 -1 forward_v I I I I #
coedge $-1 $229 $321 $231 $322 forward $135 $-1 #
coedge $-1 $137 $231 $323 $324 reversed $85 $-1 #
coedge $-1 $325 $227 $137 $225 forward $326 $-1 #
edge $-1 $233 2.3033572336898533 $327 7.6607198016003313 $224 $328 forward 7 unknown #
coedge $-1 $139 $138 $320 $329 reversed $54 $-1 #
coedge $-1 $224 $330 $138 $228 forward $326 $-1 #
edge $-1 $331 -33.058762253883117 $233 -17.172478764642349 $227 $332 forward 7 unknown #
coedge $-1 $333 $222 $139 $230 forward $135 $-1 #
edge $-1 $232 17.172478764642349 $334 33.058762253883117 $229 $335 forward 7 unknown #
coedge $-1 $223 $140 $222 $322 reversed $85 $-1 #
vertex $-1 $230 $336 #
vertex $-1 $228 $337 #
straight-curve $-1 -42.288099273905082 0 7.2853957513349457 0 -1 0 I I #
face $-1 $-1 $338 $32 $-1 $339 forward single #
loop $-1 $-1 $340 $142 #
plane-surface $-1 0 36.141547669029322 0 0 -1 0 0 0 -1 forward_v I I I I #
coedge $-1 $239 $145 $147 $245 reversed $89 $-1 #
coedge $-1 $145 $238 $340 $341 reversed $89 $-1 #
coedge $-1 $342 $148 $145 $241 forward $143 $-1 #
edge $-1 $248 -16.154511911378897 $343 -9.947879161686167 $240 $344 forward 7 unknown #
coedge $-1 $147 $146 $345 $346 reversed $57 $-1 #
coedge $-1 $347 $348 $146 $244 forward $338 $-1 #
edge $-1 $349 -48.950514638002971 $247 -37.85124487969415 $243 $350 forward 7 unknown #
edge $-1 $351 -72.283095338058587 $248 -61.183825579749765 $238 $352 forward 7 unknown #
coedge $-1 $148 $342 $347 $353 forward $143 $-1 #
vertex $-1 $244 $354 #
vertex $-1 $149 $355 #
straight-curve $-1 -14.281729654733287 29.934914919336592 12.642758319245424 1 0 0 I I #
coedge $-1 $250 $250 $-1 $356 reversed $152 $-1 #
edge $-1 $357 0 $357 6.2831853071796004 $153 $358 forward 7 unknown #
vertex $-1 $156 $359 #
ellipse-curve $-1 -36.798243288129683 33.038231294182957 8.0419024456565076 0 0.82903758062907751 0.55919289150049634 1.5 0 0 1 I I #
coedge $-1 $254 $254 $-1 $360 reversed $159 $-1 #
edge $-1 $361 0 $361 6.2831853071796004 $160 $362 forward 7 unknown #
vertex $-1 $163 $363 #
ellipse-curve $-1 -28.563459309466573 33.038231294182957 8.0419024456565076 0 0.82903758062907751 0.55919289150049634 1.5 0 0 1 I I #
coedge $-1 $258 $258 $-1 $364 reversed $166 $-1 #
edge $-1 $365 0 $365 6.2831853071796004 $167 $366 forward 7 unknown #
vertex $-1 $170 $367 #
ellipse-curve $-1 -20.32867533080347 33.038231294182957 8.0419024456565076 0 0.82903758062907751 0.55919289150049634 1.5 0 0 1 I I #
face $-1 $-1 $274 $36 $-1 $368 forward single #
loop $-1 $-1 $369 $171 #
plane-surface $-1 0 -36.141547669029322 0 0 1 0 0 0 1 forward_v I I I I #
coedge $-1 $370 $371 $372 $373 reversed $172 $-1 #
coedge $-1 $374 $174 $176 $272 forward $108 $-1 #
coedge $-1 $174 $374 $370 $375 forward $108 $-1 #
coedge $-1 $372 $177 $174 $269 forward $274 $-1 #
edge $-1 $276 -7.3378372853605001 $376 9.9949838365017314 $268 $377 forward 7 unknown #
coedge $-1 $378 $379 $175 $271 forward $263 $-1 #
edge $-1 $380 -49.30000864891911 $275 -37.787589839064871 $270 $381 forward 7 unknown #
edge $-1 $276 -22.35255841759335 $380 8.2634070795339233e-015 $176 $382 forward 7 unknown #
coedge $-1 $177 $372 $378 $383 forward $274 $-1 #
loop $-1 $-1 $372 $262 #
vertex $-1 $271 $384 #
vertex $-1 $178 $385 #
straight-curve $-1 6.0092640097898844 -48.032796340491771 12.642758319245424 0 1 0 I I #
coedge $-1 $278 $278 $-1 $386 reversed $181 $-1 #
edge $-1 $387 0 $387 6.2831853071796004 $182 $388 forward 7 unknown #
vertex $-1 $185 $389 #
ellipse-curve $-1 -7.8569928876999029 -26.561606633740567 6.8865489143183014 0 -0.51503808176128008 0.85716729658548041 1 0 0 1 I I #
coedge $-1 $282 $282 $-1 $390 reversed $188 $-1 #
edge $-1 $391 0 $391 6.2831853071796004 $189 $392 forward 7 unknown #
vertex $-1 $192 $393 #
ellipse-curve $-1 -2.6571465511412313 -26.561606633740567 6.8865489143183014 0 -0.51503808176128008 0.85716729658548041 1 0 0 1 I I #
coedge $-1 $286 $286 $-1 $394 reversed $195 $-1 #
edge $-1 $395 0 $395 6.2831853071796004 $196 $396 forward 7 unknown #
vertex $-1 $199 $397 #
ellipse-curve $-1 2.5426997854174402 -26.561606633740567 6.8865489143183014 0 -0.51503808176128008 0.85716729658548041 1 0 0 1 I I #
face $-1 $-1 $215 $30 $-1 $398 reversed single #
loop $-1 $-1 $306 $200 #
plane-surface $-1 0 36.141547669029322 0 0 -1 0 0 0 -1 forward_v I I I I #
coedge $-1 $399 $304 $307 $400 forward $201 $-1 #
coedge $-1 $310 $203 $204 $298 reversed $127 $-1 #
coedge $-1 $304 $399 $203 $296 reversed $201 $-1 #
edge $-1 $311 -12.642758319245424 $401 12.642758319245424 $295 $402 forward 7 unknown #
coedge $-1 $205 $204 $399 $403 forward $81 $-1 #
edge $-1 $302 -58.17438276314585 $401 58.17438276314585 $294 $404 forward 7 unknown #
coedge $-1 $307 $306 $205 $300 reversed $291 $-1 #
edge $-1 $405 -58.17438276314585 $301 58.17438276314585 $299 $406 forward 7 unknown #
vertex $-1 $207 $407 #
vertex $-1 $313 $408 #
straight-curve $-1 58.17438276314585 0 -12.642758319245424 0 -1 0 I I #
coedge $-1 $293 $295 $208 $305 reversed $201 $-1 #
edge $-1 $308 -36.141547669029322 $311 36.141547669029322 $304 $409 forward 7 unknown #
coedge $-1 $299 $209 $214 $314 forward $291 $-1 #
coedge $-1 $209 $299 $293 $400 reversed $291 $-1 #
vertex $-1 $210 $410 #
straight-curve $-1 0 36.141547669029322 12.642758319245424 -1 0 0 I I #
coedge $-1 $211 $294 $213 $313 reversed $127 $-1 #
vertex $-1 $305 $411 #
straight-curve $-1 0 -36.141547669029322 12.642758319245424 1 0 0 I I #
edge $-1 $216 -12.642758319245424 $302 12.642758319245424 $213 $412 forward 7 unknown #
edge $-1 $217 -12.642758319245424 $301 12.642758319245424 $214 $413 forward 7 unknown #
point $-1 58.17438276314585 -36.141547669029322 12.642758319245424 #
point $-1 58.17438276314585 36.141547669029322 12.642758319245424 #
face $-1 $-1 $326 $31 $-1 $414 reversed single #
loop $-1 $-1 $323 $219 #
plane-surface $-1 0 0 12.642758319245424 0 0 1 1 0 0 forward_v I I I I #
coedge $-1 $415 $416 $226 $329 forward $220 $-1 #
coedge $-1 $222 $333 $417 $418 reversed $135 $-1 #
edge $-1 $419 -7.6607198016003313 $232 -2.3033572336898533 $222 $420 forward 7 unknown #
coedge $-1 $417 $421 $223 $324 forward $318 $-1 #
edge $-1 $327 -36.141547669029322 $419 36.141547669029322 $323 $422 forward 7 unknown #
coedge $-1 $330 $224 $421 $423 reversed $326 $-1 #
loop $-1 $-1 $224 $317 #
vertex $-1 $225 $424 #
straight-curve $-1 -42.288099273905082 -36.141547669029322 4.9820385176450923 0 0 1 I I #
edge $-1 $334 -36.141547669029322 $331 36.141547669029322 $320 $425 forward 7 unknown #
coedge $-1 $227 $325 $415 $426 forward $326 $-1 #
vertex $-1 $329 $427 #
straight-curve $-1 -25.115620509262733 -36.141547669029322 7.2853957513349457 1 0 0 I I #
coedge $-1 $321 $229 $416 $428 reversed $135 $-1 #
vertex $-1 $329 $429 #
straight-curve $-1 -25.115620509262733 36.141547669029322 7.2853957513349457 -1 0 0 I I #
point $-1 -42.288099273905082 36.141547669029322 7.2853957513349457 #
point $-1 -42.288099273905082 -36.141547669029322 7.2853957513349457 #
loop $-1 $-1 $243 $235 #
plane-surface $-1 -42.288099273905082 0 9.9640770352901846 -1 0 0 0 0 1 forward_v I I I I #
coedge $-1 $345 $430 $239 $341 forward $236 $-1 #
edge $-1 $343 51.571167515091055 $351 60.772879262268887 $340 $431 forward 7 unknown #
coedge $-1 $246 $240 $430 $432 forward $143 $-1 #
vertex $-1 $432 $433 #
straight-curve $-1 -14.838819345028064 46.089426830715489 12.642758319245424 0 1 0 I I #
coedge $-1 $434 $340 $242 $346 forward $236 $-1 #
edge $-1 $351 0.55708969029477728 $349 28.006369619171796 $345 $435 forward 7 unknown #
coedge $-1 $348 $243 $246 $353 reversed $338 $-1 #
coedge $-1 $243 $347 $434 $436 reversed $338 $-1 #
vertex $-1 $436 $437 #
straight-curve $-1 -42.288099273905082 8.7687678481670677 44.02286279810582 0 -0.55919289150049634 0.82903758062907751 I I #
vertex $-1 $346 $438 #
straight-curve $-1 -14.838819345028064 -4.2786454196657075 63.366449051512632 0 -0.55919289150049634 0.82903758062907751 I I #
edge $-1 $439 -36.141547669029322 $247 -29.934914919336595 $246 $440 forward 7 unknown #
point $-1 -42.288099273905082 29.934914919336595 12.642758319245424 #
point $-1 -14.838819345028064 29.934914919336592 12.642758319245424 #
edge $-1 $441 1 $441 0 $250 $-1 forward 7 unknown #
vertex $-1 $251 $442 #
ellipse-curve $-1 -36.798243288129683 29.650453865408462 5.7568177879513271 0 0.82903758062907751 0.55919289150049634 1.5 0 0 1 I I #
point $-1 -35.298243288129683 33.038231294182928 8.0419024456564863 #
edge $-1 $443 1 $443 0 $254 $-1 forward 7 unknown #
vertex $-1 $255 $444 #
ellipse-curve $-1 -28.563459309466573 29.650453865408462 5.7568177879513271 0 0.82903758062907751 0.55919289150049634 1.5 0 0 1 I I #
point $-1 -27.063459309466573 33.038231294182928 8.0419024456564863 #
edge $-1 $445 1 $445 0 $258 $-1 forward 7 unknown #
vertex $-1 $259 $446 #
ellipse-curve $-1 -20.32867533080347 29.650453865408462 5.7568177879513271 0 0.82903758062907751 0.55919289150049634 1.5 0 0 1 I I #
point $-1 -18.82867533080347 33.038231294182928 8.0419024456564863 #
plane-surface $-1 0 0 12.642758319245424 0 0 1 1 0 0 forward_v I I I I #
coedge $-1 $379 $378 $371 $447 forward $263 $-1 #
coedge $-1 $371 $265 $267 $375 reversed $172 $-1 #
coedge $-1 $265 $370 $369 $447 reversed $172 $-1 #
coedge $-1 $273 $268 $265 $373 forward $274 $-1 #
edge $-1 $376 -31.05113074203997 $448 -11.891248671462449 $372 $449 forward 7 unknown #
coedge $-1 $267 $266 $379 $450 reversed $108 $-1 #
edge $-1 $451 -8.2634070795339233e-015 $376 22.35255841759335 $370 $452 forward 7 unknown #
vertex $-1 $269 $453 #
straight-curve $-1 -1.3285732755706157 -16.981665598451798 12.642758319245424 -1 0 0 I I #
coedge $-1 $369 $270 $273 $383 reversed $263 $-1 #
coedge $-1 $270 $369 $374 $450 forward $263 $-1 #
vertex $-1 $271 $454 #
straight-curve $-1 6.0092640097898844 -36.141547669029322 50.430348158310295 0 0 1 I I #
straight-curve $-1 6.0092640097898844 -36.141547669029315 1.1303395093911917 0 -0.85716729658548041 -0.51503808176128008 I I #
edge $-1 $448 -11.323557112072347 $275 6.0092640097898844 $378 $455 forward 7 unknown #
point $-1 6.0092640097898844 -36.141547669029322 12.642758319245424 #
point $-1 6.0092640097898844 -16.981665598451801 12.642758319245424 #
edge $-1 $456 1 $456 0 $278 $-1 forward 7 unknown #
vertex $-1 $279 $457 #
ellipse-curve $-1 -7.8569928876999029 -24.94574479465787 4.1973032579084979 0 -0.51503808176128008 0.85716729658548041 1 0 0 1 I I #
point $-1 -6.8569928876999029 -26.561606633740578 6.8865489143183174 #
edge $-1 $458 1 $458 0 $282 $-1 forward 7 unknown #
vertex $-1 $283 $459 #
ellipse-curve $-1 -2.6571465511412313 -24.94574479465787 4.1973032579084979 0 -0.51503808176128008 0.85716729658548041 1 0 0 1 I I #
point $-1 -1.6571465511412313 -26.561606633740578 6.8865489143183174 #
edge $-1 $460 1 $460 0 $286 $-1 forward 7 unknown #
vertex $-1 $287 $461 #
ellipse-curve $-1 2.5426997854174402 -24.94574479465787 4.1973032579084979 0 -0.51503808176128008 0.85716729658548041 1 0 0 1 I I #
point $-1 3.5426997854174402 -26.561606633740578 6.8865489143183174 #
plane-surface $-1 58.17438276314585 0 0 -1 0 0 0 0 1 forward_v I I I I #
coedge $-1 $295 $293 $297 $403 reversed $201 $-1 #
edge $-1 $308 -12.642758319245424 $405 12.642758319245424 $307 $462 forward 7 unknown #
vertex $-1 $403 $463 #
straight-curve $-1 -58.17438276314585 -36.141547669029322 0 0 0 -1 I I #
edge $-1 $401 -36.141547669029322 $405 36.141547669029322 $399 $464 forward 7 unknown #
straight-curve $-1 0 -36.141547669029322 -12.642758319245424 -1 0 0 I I #
vertex $-1 $300 $465 #
straight-curve $-1 0 36.141547669029322 -12.642758319245424 1 0 0 I I #
point $-1 58.17438276314585 36.141547669029322 -12.642758319245424 #
point $-1 58.17438276314585 -36.141547669029322 -12.642758319245424 #
straight-curve $-1 -58.17438276314585 0 12.642758319245424 0 -1 0 I I #
point $-1 -58.17438276314585 36.141547669029322 12.642758319245424 #
point $-1 -58.17438276314585 -36.141547669029322 12.642758319245424 #
straight-curve $-1 58.17438276314585 -36.141547669029322 0 0 0 -1 I I #
straight-curve $-1 58.17438276314585 36.141547669029322 0 0 0 -1 I I #
plane-surface $-1 0 -36.141547669029322 0 0 1 0 0 0 1 forward_v I I I I #
coedge $-1 $466 $320 $330 $426 reversed $220 $-1 #
coedge $-1 $320 $466 $333 $428 forward $220 $-1 #
coedge $-1 $467 $323 $321 $418 forward $318 $-1 #
edge $-1 $419 42.288099273905082 $468 58.17438276314585 $321 $469 forward 7 unknown #
vertex $-1 $418 $470 #
straight-curve $-1 -42.288099273905082 36.141547669029322 4.9820385176450923 0 0 -1 I I #
coedge $-1 $323 $467 $325 $423 forward $318 $-1 #
straight-curve $-1 -42.288099273905082 0 12.642758319245424 0 1 0 I I #
edge $-1 $471 -58.17438276314585 $327 -42.288099273905082 $325 $472 forward 7 unknown #
point $-1 -42.288099273905082 -36.141547669029322 12.642758319245424 #
straight-curve $-1 -58.17438276314585 0 7.2853957513349457 0 -1 0 I I #
edge $-1 $471 -12.642758319245424 $331 -7.2853957513349457 $415 $473 forward 7 unknown #
point $-1 -58.17438276314585 -36.141547669029322 7.2853957513349457 #
edge $-1 $468 -12.642758319245424 $334 -7.2853957513349457 $333 $474 forward 7 unknown #
point $-1 -58.17438276314585 36.141547669029322 7.2853957513349457 #
coedge $-1 $340 $434 $342 $432 reversed $236 $-1 #
straight-curve $-1 -14.838819345028064 36.141547669029322 64.213925834336479 0 0 -1 I I #
edge $-1 $343 14.838819345028064 $439 42.288099273905082 $430 $475 forward 7 unknown #
point $-1 -14.838819345028064 36.141547669029322 12.642758319245424 #
coedge $-1 $430 $345 $348 $436 forward $236 $-1 #
straight-curve $-1 -14.281729654733287 36.141547669029322 3.4410465720675774 -1 0 0 I I #
edge $-1 $349 -60.772879262268887 $439 -51.571167515091055 $434 $476 forward 7 unknown #
point $-1 -42.288099273905082 36.141547669029322 3.4410465720675916 #
point $-1 -14.838819345028064 36.141547669029322 3.4410465720675916 #
vertex $-1 $353 $477 #
straight-curve $-1 -42.288099273905082 0 12.642758319245424 0 -1 0 I I #
vertex $-1 $356 $478 #
point $-1 -35.298243288129683 29.650453865408462 5.7568177879513271 #
vertex $-1 $360 $479 #
point $-1 -27.063459309466573 29.650453865408462 5.7568177879513271 #
vertex $-1 $364 $480 #
point $-1 -18.82867533080347 29.650453865408462 5.7568177879513271 #
edge $-1 $448 37.787589839064871 $451 49.30000864891911 $369 $481 forward 7 unknown #
vertex $-1 $383 $482 #
straight-curve $-1 -11.323557112072347 -48.032796340491771 12.642758319245424 0 -1 0 I I #
edge $-1 $451 -9.9949838365017314 $380 7.3378372853605001 $379 $483 forward 7 unknown #
vertex $-1 $450 $484 #
straight-curve $-1 -11.323557112072347 -36.141547669029315 1.1303395093911917 0 0.85716729658548041 0.51503808176128008 I I #
point $-1 -11.323557112072347 -16.981665598451801 12.642758319245424 #
point $-1 6.0092640097898844 -36.141547669029322 1.1303395093911874 #
straight-curve $-1 0 -36.141547669029322 12.642758319245424 1 0 0 I I #
vertex $-1 $386 $485 #
point $-1 -6.8569928876999029 -24.94574479465787 4.1973032579084979 #
vertex $-1 $390 $486 #
point $-1 -1.6571465511412313 -24.94574479465787 4.1973032579084979 #
vertex $-1 $394 $487 #
point $-1 3.5426997854174402 -24.94574479465787 4.1973032579084979 #
straight-curve $-1 -58.17438276314585 36.141547669029322 0 0 0 -1 I I #
point $-1 -58.17438276314585 -36.141547669029322 -12.642758319245424 #
straight-curve $-1 -58.17438276314585 0 -12.642758319245424 0 1 0 I I #
point $-1 -58.17438276314585 36.141547669029322 -12.642758319245424 #
coedge $-1 $416 $415 $467 $488 reversed $220 $-1 #
coedge $-1 $421 $417 $466 $488 forward $318 $-1 #
vertex $-1 $418 $489 #
straight-curve $-1 0 36.141547669029322 12.642758319245424 -1 0 0 I I #
point $-1 -42.288099273905082 36.141547669029322 12.642758319245424 #
vertex $-1 $488 $490 #
straight-curve $-1 0 -36.141547669029322 12.642758319245424 1 0 0 I I #
straight-curve $-1 -58.17438276314585 -36.141547669029322 0 0 0 -1 I I #
straight-curve $-1 -58.17438276314585 36.141547669029322 0 0 0 -1 I I #
straight-curve $-1 0 36.141547669029322 12.642758319245424 -1 0 0 I I #
straight-curve $-1 -42.288099273905082 36.141547669029322 64.213925834336479 0 0 1 I I #
point $-1 -42.288099273905082 36.141547669029322 12.642758319245424 #
point $-1 -36.798243288129683 28.406897494464847 4.9180284507005823 #
point $-1 -28.563459309466573 28.406897494464847 4.9180284507005823 #
point $-1 -20.32867533080347 28.406897494464847 4.9180284507005823 #
straight-curve $-1 -11.323557112072347 -36.141547669029322 50.430348158310295 0 0 -1 I I #
point $-1 -11.323557112072347 -36.141547669029322 12.642758319245424 #
straight-curve $-1 -1.3285732755706157 -36.141547669029322 1.1303395093911914 1 0 0 I I #
point $-1 -11.323557112072347 -36.141547669029322 1.1303395093911874 #
point $-1 -7.8569928876999029 -24.430706712896587 3.3401359613230177 #
point $-1 -2.6571465511412313 -24.430706712896587 3.3401359613230177 #
point $-1 2.5426997854174402 -24.430706712896587 3.3401359613230177 #
edge $-1 $468 -36.141547669029322 $471 36.141547669029322 $466 $491 forward 7 unknown #
point $-1 -58.17438276314585 36.141547669029322 12.642758319245424 #
point $-1 -58.17438276314585 -36.141547669029322 12.642758319245424 #
straight-curve $-1 -58.17438276314585 0 12.642758319245424 0 -1 0 I I #
End-of-ACIS-data 