500 0 9 0           
7 Unknown 11 ACIS 5.0 NT 24 Fri Mar 26 19:14:53 1999 
-1 9.9999999999999995e-007 1e-010 
body $-1 $9 $-1 $10 #
body $-1 $11 $-1 $12 #
body $-1 $13 $-1 $14 #
body $-1 $15 $-1 $16 #
body $-1 $17 $-1 $18 #
body $-1 $19 $-1 $20 #
body $-1 $21 $-1 $22 #
body $-1 $23 $-1 $24 #
body $-1 $25 $-1 $26 #
lump $-1 $-1 $27 $0 #
transform $-1 1 0 0 0 1 0 0 0 1 68.265022736289552 37.540449970763945 16.3825162606263 1 rotate no_reflect no_shear #
lump $-1 $-1 $28 $1 #
transform $-1 1 0 0 0 1 0 0 0 1 68.265022736289552 37.540449970763945 16.3825162606263 1 rotate no_reflect no_shear #
lump $-1 $-1 $29 $2 #
transform $-1 1 0 0 0 1 0 0 0 1 68.265022736289552 37.540449970763945 16.3825162606263 1 rotate no_reflect no_shear #
lump $-1 $-1 $30 $3 #
transform $-1 1 0 0 0 1 0 0 0 1 68.265022736289552 37.540449970763945 16.3825162606263 1 rotate no_reflect no_shear #
lump $-1 $-1 $31 $4 #
transform $-1 1 0 0 0 1 0 0 0 1 68.265022736289552 37.540449970763945 16.3825162606263 1 rotate no_reflect no_shear #
lump $-1 $-1 $32 $5 #
transform $-1 1 0 0 0 1 0 0 0 1 68.265022736289552 37.540449970763945 16.3825162606263 1 rotate no_reflect no_shear #
lump $-1 $-1 $33 $6 #
transform $-1 1 0 0 0 1 0 0 0 1 68.265022736289552 37.540449970763945 16.3825162606263 1 rotate no_reflect no_shear #
lump $-1 $-1 $34 $7 #
transform $-1 1 0 0 0 1 0 0 0 1 68.265022736289552 37.540449970763945 16.3825162606263 1 rotate no_reflect no_shear #
lump $-1 $-1 $35 $8 #
transform $-1 1 0 0 0 1 0 0 0 1 68.265022736289552 37.540449970763945 16.3825162606263 1 rotate no_reflect no_shear #
shell $-1 $-1 $-1 $36 $-1 $9 #
shell $-1 $-1 $-1 $37 $-1 $11 #
shell $-1 $-1 $-1 $38 $-1 $13 #
shell $-1 $-1 $-1 $39 $-1 $15 #
shell $-1 $-1 $-1 $40 $-1 $17 #
shell $-1 $-1 $-1 $41 $-1 $19 #
shell $-1 $-1 $-1 $42 $-1 $21 #
shell $-1 $-1 $-1 $43 $-1 $23 #
shell $-1 $-1 $-1 $44 $-1 $25 #
face $-1 $45 $46 $27 $-1 $47 forward single #
face $-1 $48 $49 $28 $-1 $50 forward single #
face $-1 $51 $52 $29 $-1 $53 reversed single #
face $-1 $54 $55 $30 $-1 $56 forward single #
face $-1 $57 $58 $31 $-1 $59 reversed single #
face $-1 $60 $61 $32 $-1 $62 forward single #
face $-1 $63 $64 $33 $-1 $65 reversed single #
face $-1 $66 $67 $34 $-1 $68 forward single #
face $-1 $69 $70 $35 $-1 $71 forward single #
face $-1 $72 $73 $27 $-1 $74 reversed single #
loop $-1 $-1 $75 $36 #
plane-surface $-1 0 0 16.3825162606263 0 0 1 1 0 0 forward_v I I I I #
face $-1 $76 $77 $28 $-1 $78 reversed single #
loop $-1 $-1 $79 $37 #
plane-surface $-1 0 -37.540449970763945 0 0 1 0 0 0 1 forward_v I I I I #
face $-1 $80 $81 $29 $-1 $82 reversed single #
loop $-1 $-1 $83 $38 #
plane-surface $-1 38.060244699927566 1.2376549322044248 192.25050639581525 0 -1 0 -0.5877852598018023 0 -0.80901698891910034 forward_v I I I I #
face $-1 $84 $85 $30 $-1 $86 forward single #
loop $-1 $87 $88 $39 #
cone-surface $-1 55.774809902166886 -3.6821204796780407 5.8267376660009145 -0.5877852598018023 0 -0.80901698891910034 1.6180339778382007 0 -1.1755705196036046 1 I I 0 1 2 forward I I I I #
face $-1 $89 $90 $31 $-1 $91 reversed single #
loop $-1 $-1 $92 $40 #
plane-surface $-1 38.060244699927566 33.222393513016797 192.25050639581525 0 -1 0 -0.5877852598018023 0 -0.80901698891910034 forward_v I I I I #
face $-1 $93 $94 $32 $-1 $95 forward single #
loop $-1 $96 $97 $41 #
cone-surface $-1 55.774809902166886 28.302618101134343 5.8267376660009145 -0.5877852598018023 0 -0.80901698891910034 1.6180339778382007 0 -1.1755705196036046 1 I I 0 1 2 forward I I I I #
face $-1 $98 $99 $33 $-1 $100 reversed single #
loop $-1 $-1 $101 $42 #
plane-surface $-1 -161.37829095489155 -26.429027190860815 103.68104698302356 0 1 0 -0.68199836817093118 0 0.7313536940579346 forward_v I I I I #
face $-1 $102 $103 $34 $-1 $104 forward single #
loop $-1 $105 $106 $43 #
cone-surface $-1 -59.844192104862316 -23.108467791021532 8.2936134271130122 0.68199836817093118 0 -0.7313536940579346 1.0970305410869019 0 1.0229975522563968 1 I I 0 1 1.5 forward I I I I #
face $-1 $107 $108 $35 $-1 $109 forward single #
loop $-1 $110 $111 $44 #
cone-surface $-1 -59.844192104862316 -18.127628691262608 8.2936134271130122 0.68199836817093118 0 -0.7313536940579346 1.0970305410869019 0 1.0229975522563968 1 I I 0 1 1.5 forward I I I I #
face $-1 $112 $113 $27 $-1 $114 reversed single #
loop $-1 $-1 $115 $45 #
plane-surface $-1 0 0 -16.3825162606263 0 0 1 1 0 0 forward_v I I I I #
coedge $-1 $116 $117 $118 $119 forward $46 $-1 #
face $-1 $120 $121 $28 $-1 $122 forward single #
loop $-1 $-1 $123 $48 #
plane-surface $-1 -68.265022736289552 0 0 1 0 0 0 0 -1 forward_v I I I I #
coedge $-1 $124 $125 $126 $127 forward $49 $-1 #
face $-1 $128 $129 $29 $-1 $130 reversed single #
loop $-1 $-1 $131 $51 #
plane-surface $-1 -42.190103548924228 -3.6821204796780336 81.795380110601457 0.5877852598018023 0 0.80901698891910034 0.80901698891910034 0 -0.5877852598018023 forward_v I I I I #
coedge $-1 $132 $133 $134 $135 reversed $52 $-1 #
face $-1 $-1 $136 $30 $-1 $137 forward single #
loop $-1 $138 $139 $54 #
cone-surface $-1 52.907834244872561 -3.6821204796780407 1.8806842818947622 -0.5877852598018023 0 -0.80901698891910034 0.80901698891910034 0 -0.5877852598018023 1 I I -0.70710678118654746 0.70710678118654746 1 forward I I I I #
loop $-1 $-1 $140 $39 #
coedge $-1 $88 $88 $141 $142 reversed $55 $-1 #
face $-1 $143 $144 $31 $-1 $145 reversed single #
loop $-1 $-1 $146 $57 #
plane-surface $-1 -42.190103548924228 28.302618101134343 81.795380110601457 0.5877852598018023 0 0.80901698891910034 0.80901698891910034 0 -0.5877852598018023 forward_v I I I I #
coedge $-1 $147 $148 $149 $150 reversed $58 $-1 #
face $-1 $-1 $151 $32 $-1 $152 forward single #
loop $-1 $153 $154 $60 #
cone-surface $-1 52.907834244872561 28.302618101134343 1.8806842818947622 -0.5877852598018023 0 -0.80901698891910034 0.80901698891910034 0 -0.5877852598018023 1 I I -0.70710678118654746 0.70710678118654746 1 forward I I I I #
loop $-1 $-1 $155 $41 #
coedge $-1 $97 $97 $156 $157 reversed $61 $-1 #
face $-1 $158 $159 $33 $-1 $160 reversed single #
loop $-1 $-1 $161 $63 #
plane-surface $-1 -68.265022736289581 -20.61804824114207 3.8292938767550453 -0.68199836817093118 0 0.7313536940579346 0.7313536940579346 0 0.68199836817093118 forward_v I I I I #
coedge $-1 $162 $163 $164 $165 reversed $64 $-1 #
face $-1 $-1 $166 $34 $-1 $167 forward single #
loop $-1 $168 $169 $66 #
cone-surface $-1 -57.642703994916829 -23.108467791021532 5.9328065149919027 0.68199836817093118 0 -0.7313536940579346 0.54851527054345095 0 0.51149877612819838 1 I I -0.70710678118654757 0.70710678118654757 0.75 forward I I I I #
loop $-1 $-1 $170 $43 #
coedge $-1 $106 $106 $171 $172 reversed $67 $-1 #
face $-1 $-1 $173 $35 $-1 $174 forward single #
loop $-1 $175 $176 $69 #
cone-surface $-1 -57.642703994916829 -18.127628691262608 5.9328065149919027 0.68199836817093118 0 -0.7313536940579346 0.54851527054345095 0 0.51149877612819838 1 I I -0.70710678118654757 0.70710678118654757 0.75 forward I I I I #
loop $-1 $-1 $177 $44 #
coedge $-1 $111 $111 $178 $179 reversed $70 $-1 #
face $-1 $180 $181 $27 $-1 $182 reversed single #
loop $-1 $-1 $183 $72 #
plane-surface $-1 0 -37.540449970763945 0 0 1 0 0 0 1 forward_v I I I I #
coedge $-1 $184 $185 $186 $187 forward $73 $-1 #
coedge $-1 $188 $75 $189 $190 forward $46 $-1 #
coedge $-1 $75 $188 $191 $192 forward $46 $-1 #
coedge $-1 $193 $194 $75 $119 reversed $195 $-1 #
edge $-1 $196 -37.540449970763945 $197 37.540449970763945 $118 $198 forward 7 unknown #
face $-1 $199 $200 $28 $-1 $201 reversed single #
loop $-1 $-1 $202 $76 #
plane-surface $-1 0 -43.096161360715506 1.7413398493950139 0 0 1 1 0 0 forward_v I I I I #
coedge $-1 $203 $204 $125 $205 forward $77 $-1 #
coedge $-1 $206 $79 $207 $208 reversed $49 $-1 #
coedge $-1 $79 $206 $123 $205 reversed $49 $-1 #
coedge $-1 $209 $202 $79 $127 reversed $121 $-1 #
edge $-1 $210 -68.265022736289552 $211 68.265022736289552 $126 $212 forward 7 unknown #
face $-1 $213 $214 $29 $-1 $215 reversed single #
loop $-1 $-1 $216 $80 #
plane-surface $-1 38.060244699927566 -8.6018958915604919 192.25050639581525 0 1 0 0.5877852598018023 0 0.80901698891910034 forward_v I I I I #
coedge $-1 $217 $218 $219 $220 reversed $81 $-1 #
coedge $-1 $133 $83 $221 $222 reversed $52 $-1 #
coedge $-1 $83 $132 $217 $223 reversed $52 $-1 #
coedge $-1 $219 $224 $83 $135 forward $225 $-1 #
edge $-1 $226 -49.234900386325769 $227 -28.812855513065593 $134 $228 forward 7 unknown #
loop $-1 $-1 $141 $84 #
plane-surface $-1 -42.190103548924228 -3.6821204796780336 81.795380110601457 0.5877852598018023 0 0.80901698891910034 0.80901698891910034 0 -0.5877852598018023 forward_v I I I I #
loop $-1 $-1 $229 $54 #
coedge $-1 $139 $139 $140 $230 reversed $85 $-1 #
coedge $-1 $140 $140 $139 $230 forward $87 $-1 #
coedge $-1 $141 $141 $88 $142 forward $136 $-1 #
edge $-1 $231 0 $231 6.2831853071796004 $141 $232 forward 7 unknown #
face $-1 $233 $234 $31 $-1 $235 reversed single #
loop $-1 $-1 $236 $89 #
plane-surface $-1 38.060244699927566 23.382842689251884 192.25050639581525 0 1 0 0.5877852598018023 0 0.80901698891910034 forward_v I I I I #
coedge $-1 $237 $238 $239 $240 reversed $90 $-1 #
coedge $-1 $148 $92 $241 $242 reversed $58 $-1 #
coedge $-1 $92 $147 $237 $243 reversed $58 $-1 #
coedge $-1 $239 $244 $92 $150 forward $245 $-1 #
edge $-1 $246 -49.234900386325769 $247 -28.812855513065593 $149 $248 forward 7 unknown #
loop $-1 $-1 $156 $93 #
plane-surface $-1 -42.190103548924228 28.302618101134343 81.795380110601457 0.5877852598018023 0 0.80901698891910034 0.80901698891910034 0 -0.5877852598018023 forward_v I I I I #
loop $-1 $-1 $249 $60 #
coedge $-1 $154 $154 $155 $250 reversed $94 $-1 #
coedge $-1 $155 $155 $154 $250 forward $96 $-1 #
coedge $-1 $156 $156 $97 $157 forward $151 $-1 #
edge $-1 $251 0 $251 6.2831853071796004 $156 $252 forward 7 unknown #
face $-1 $253 $254 $33 $-1 $255 forward single #
loop $-1 $-1 $256 $98 #
plane-surface $-1 -161.37829095489155 -14.807069291423325 103.68104698302356 0 -1 0 0.68199836817093118 0 -0.7313536940579346 forward_v I I I I #
coedge $-1 $257 $258 $259 $260 reversed $99 $-1 #
coedge $-1 $163 $101 $261 $262 reversed $64 $-1 #
coedge $-1 $101 $162 $257 $263 reversed $64 $-1 #
coedge $-1 $259 $264 $101 $165 forward $254 $-1 #
edge $-1 $265 12.424122741156225 $266 25.885805336376094 $164 $267 forward 7 unknown #
loop $-1 $-1 $171 $102 #
plane-surface $-1 -68.265022736289581 -20.61804824114207 3.8292938767550453 -0.68199836817093118 0 0.7313536940579346 0.7313536940579346 0 0.68199836817093118 forward_v I I I I #
loop $-1 $-1 $268 $66 #
coedge $-1 $169 $169 $170 $269 reversed $103 $-1 #
coedge $-1 $170 $170 $169 $269 forward $105 $-1 #
coedge $-1 $171 $171 $106 $172 forward $166 $-1 #
edge $-1 $270 0 $270 6.2831853071796004 $171 $271 forward 7 unknown #
loop $-1 $-1 $178 $107 #
plane-surface $-1 -68.265022736289581 -20.61804824114207 3.8292938767550453 -0.68199836817093118 0 0.7313536940579346 0.7313536940579346 0 0.68199836817093118 forward_v I I I I #
loop $-1 $-1 $272 $69 #
coedge $-1 $176 $176 $177 $273 reversed $108 $-1 #
coedge $-1 $177 $177 $176 $273 forward $110 $-1 #
coedge $-1 $178 $178 $111 $179 forward $173 $-1 #
edge $-1 $274 0 $274 6.2831853071796004 $178 $275 forward 7 unknown #
face $-1 $276 $277 $27 $-1 $278 reversed single #
loop $-1 $-1 $279 $112 #
plane-surface $-1 -68.265022736289552 0 0 1 0 0 0 0 -1 forward_v I I I I #
coedge $-1 $280 $191 $281 $282 forward $113 $-1 #
coedge $-1 $283 $115 $280 $284 forward $73 $-1 #
coedge $-1 $115 $283 $285 $286 forward $73 $-1 #
coedge $-1 $194 $193 $115 $187 reversed $195 $-1 #
edge $-1 $287 -37.540449970763945 $288 37.540449970763945 $186 $289 forward 7 unknown #
coedge $-1 $117 $116 $290 $291 forward $46 $-1 #
coedge $-1 $292 $293 $116 $190 reversed $277 $-1 #
edge $-1 $197 -68.265022736289552 $294 68.265022736289552 $189 $295 forward 7 unknown #
coedge $-1 $183 $296 $117 $192 reversed $113 $-1 #
edge $-1 $297 -68.265022736289552 $196 68.265022736289552 $191 $298 forward 7 unknown #
coedge $-1 $186 $118 $296 $299 forward $195 $-1 #
coedge $-1 $118 $186 $292 $300 reversed $195 $-1 #
loop $-1 $-1 $193 $276 #
vertex $-1 $119 $301 #
vertex $-1 $119 $302 #
straight-curve $-1 68.265022736289552 0 16.3825162606263 0 1 0 I I #
face $-1 $303 $304 $28 $-1 $305 reversed single #
loop $-1 $-1 $306 $120 #
plane-surface $-1 0 -43.096161360715506 -6.9472384177767124 0 0 1 1 0 0 forward_v I I I I #
coedge $-1 $126 $307 $308 $309 forward $121 $-1 #
coedge $-1 $310 $123 $311 $312 reversed $77 $-1 #
coedge $-1 $123 $310 $209 $313 reversed $77 $-1 #
edge $-1 $210 -1.7413398493950139 $314 6.9472384177767124 $123 $315 forward 7 unknown #
coedge $-1 $125 $124 $316 $317 forward $49 $-1 #
coedge $-1 $308 $318 $124 $208 forward $319 $-1 #
edge $-1 $320 -6.9472384177767124 $211 1.7413398493950139 $207 $321 forward 7 unknown #
coedge $-1 $307 $126 $204 $313 forward $121 $-1 #
vertex $-1 $205 $322 #
vertex $-1 $309 $323 #
straight-curve $-1 0 -37.540449970763945 1.7413398493950139 1 0 0 I I #
face $-1 $-1 $225 $29 $-1 $324 forward single #
loop $-1 $-1 $325 $128 #
plane-surface $-1 68.265022736289552 0 0 -1 0 0 0 0 1 forward_v I I I I #
coedge $-1 $326 $327 $328 $329 reversed $129 $-1 #
coedge $-1 $330 $131 $133 $223 forward $81 $-1 #
coedge $-1 $131 $330 $326 $331 forward $81 $-1 #
coedge $-1 $328 $134 $131 $220 forward $225 $-1 #
edge $-1 $227 -3.0787151720434416 $332 6.7608356517214752 $219 $333 forward 7 unknown #
coedge $-1 $334 $335 $132 $222 forward $214 $-1 #
edge $-1 $336 -94.580221336157948 $226 -79.742736937281322 $221 $337 forward 7 unknown #
edge $-1 $227 111.2870095994445 $336 136.53004547257905 $133 $338 forward 7 unknown #
coedge $-1 $134 $328 $334 $339 forward $225 $-1 #
loop $-1 $-1 $328 $213 #
vertex $-1 $222 $340 #
vertex $-1 $135 $341 #
straight-curve $-1 19.030122349963783 1.2376549322044248 16.382516260626304 -1 0 0 I I #
coedge $-1 $229 $229 $-1 $342 reversed $138 $-1 #
edge $-1 $343 0 $343 6.2831853071796004 $139 $344 forward 7 unknown #
vertex $-1 $142 $345 #
ellipse-curve $-1 58.054000299659442 -3.6821204796780407 8.9637740611880048 0.5877852598018023 0 0.80901698891910034 1.6180339778382007 0 -1.1755705196036046 1 I I #
face $-1 $-1 $245 $31 $-1 $346 forward single #
loop $-1 $-1 $347 $143 #
plane-surface $-1 68.265022736289552 0 0 -1 0 0 0 0 1 forward_v I I I I #
coedge $-1 $348 $349 $350 $351 reversed $144 $-1 #
coedge $-1 $352 $146 $148 $243 forward $90 $-1 #
coedge $-1 $146 $352 $348 $353 forward $90 $-1 #
coedge $-1 $350 $149 $146 $240 forward $245 $-1 #
edge $-1 $247 -19.071084462449626 $354 -9.2315336386847129 $239 $355 forward 7 unknown #
coedge $-1 $356 $357 $147 $242 forward $234 $-1 #
edge $-1 $358 -94.580221336157948 $246 -79.742736937281322 $241 $359 forward 7 unknown #
edge $-1 $247 111.2870095994445 $358 136.53004547257905 $148 $360 forward 7 unknown #
coedge $-1 $149 $350 $356 $361 forward $245 $-1 #
loop $-1 $-1 $350 $233 #
vertex $-1 $242 $362 #
vertex $-1 $150 $363 #
straight-curve $-1 19.030122349963783 33.222393513016797 16.382516260626304 -1 0 0 I I #
coedge $-1 $249 $249 $-1 $364 reversed $153 $-1 #
edge $-1 $365 0 $365 6.2831853071796004 $154 $366 forward 7 unknown #
vertex $-1 $157 $367 #
ellipse-curve $-1 58.054000299659442 28.302618101134343 8.9637740611880048 0.5877852598018023 0 0.80901698891910034 1.6180339778382007 0 -1.1755705196036046 1 I I #
face $-1 $-1 $368 $33 $-1 $369 reversed single #
loop $-1 $-1 $164 $158 #
plane-surface $-1 0 0 16.3825162606263 0 0 1 1 0 0 forward_v I I I I #
coedge $-1 $370 $371 $372 $373 reversed $159 $-1 #
coedge $-1 $374 $161 $163 $263 forward $99 $-1 #
coedge $-1 $161 $374 $370 $375 forward $99 $-1 #
coedge $-1 $372 $164 $161 $260 forward $254 $-1 #
edge $-1 $266 -16.12000307028978 $376 -4.4980451708522899 $259 $377 forward 7 unknown #
coedge $-1 $378 $379 $162 $262 forward $368 $-1 #
edge $-1 $380 -48.011229614756708 $265 -35.458007230885485 $261 $381 forward 7 unknown #
edge $-1 $266 -18.406528475336479 $380 -3.8958409169770864e-014 $163 $382 forward 7 unknown #
coedge $-1 $164 $372 $378 $383 forward $254 $-1 #
vertex $-1 $165 $384 #
vertex $-1 $165 $385 #
straight-curve $-1 -80.689145477445777 -26.429027190860815 16.382516260626304 1 0 0 I I #
coedge $-1 $268 $268 $-1 $386 reversed $168 $-1 #
edge $-1 $387 0 $387 6.2831853071796004 $169 $388 forward 7 unknown #
vertex $-1 $172 $389 #
ellipse-curve $-1 -61.534181438679617 -23.108467791021532 10.105905068690687 -0.68199836817093118 0 0.7313536940579346 1.0970305410869019 0 1.0229975522563968 1 I I #
coedge $-1 $272 $272 $-1 $390 reversed $175 $-1 #
edge $-1 $391 0 $391 6.2831853071796004 $176 $392 forward 7 unknown #
vertex $-1 $179 $393 #
ellipse-curve $-1 -61.534181438679617 -18.127628691262608 10.105905068690687 -0.68199836817093118 0 0.7313536940579346 1.0970305410869019 0 1.0229975522563968 1 I I #
face $-1 $-1 $195 $27 $-1 $394 reversed single #
loop $-1 $-1 $292 $180 #
plane-surface $-1 0 37.540449970763945 0 0 -1 0 0 0 -1 forward_v I I I I #
coedge $-1 $395 $290 $293 $396 forward $181 $-1 #
coedge $-1 $296 $183 $184 $284 reversed $113 $-1 #
coedge $-1 $290 $395 $183 $282 reversed $181 $-1 #
edge $-1 $297 -16.3825162606263 $397 16.3825162606263 $281 $398 forward 7 unknown #
coedge $-1 $185 $184 $395 $399 forward $73 $-1 #
edge $-1 $288 -68.265022736289552 $397 68.265022736289552 $280 $400 forward 7 unknown #
coedge $-1 $293 $292 $185 $286 reversed $277 $-1 #
edge $-1 $401 -68.265022736289552 $287 68.265022736289552 $285 $402 forward 7 unknown #
vertex $-1 $187 $403 #
vertex $-1 $299 $404 #
straight-curve $-1 68.265022736289552 0 -16.3825162606263 0 -1 0 I I #
coedge $-1 $279 $281 $188 $291 reversed $181 $-1 #
edge $-1 $294 -37.540449970763945 $297 37.540449970763945 $290 $405 forward 7 unknown #
coedge $-1 $285 $189 $194 $300 forward $277 $-1 #
coedge $-1 $189 $285 $279 $396 reversed $277 $-1 #
vertex $-1 $190 $406 #
straight-curve $-1 0 37.540449970763945 16.3825162606263 -1 0 0 I I #
coedge $-1 $191 $280 $193 $299 reversed $113 $-1 #
vertex $-1 $291 $407 #
straight-curve $-1 0 -37.540449970763945 16.3825162606263 1 0 0 I I #
edge $-1 $196 -16.3825162606263 $288 16.3825162606263 $193 $408 forward 7 unknown #
edge $-1 $197 -16.3825162606263 $287 16.3825162606263 $194 $409 forward 7 unknown #
point $-1 68.265022736289552 -37.540449970763945 16.3825162606263 #
point $-1 68.265022736289552 37.540449970763945 16.3825162606263 #
face $-1 $-1 $319 $28 $-1 $410 reversed single #
loop $-1 $-1 $411 $199 #
plane-surface $-1 0 -48.651872750667067 -2.6029492841908493 0 1 0 0 0 1 forward_v I I I I #
coedge $-1 $412 $316 $318 $413 forward $200 $-1 #
coedge $-1 $202 $209 $414 $415 forward $121 $-1 #
coedge $-1 $416 $207 $202 $309 reversed $319 $-1 #
edge $-1 $417 -5.5557113899515613 $211 5.5557113899515613 $308 $418 forward 7 unknown #
coedge $-1 $204 $203 $411 $419 reversed $77 $-1 #
coedge $-1 $316 $412 $203 $312 forward $200 $-1 #
edge $-1 $420 -5.5557113899515613 $314 5.5557113899515613 $203 $421 forward 7 unknown #
edge $-1 $210 -5.5557113899515613 $422 5.5557113899515613 $204 $423 forward 7 unknown #
vertex $-1 $205 $424 #
straight-curve $-1 -68.265022736289552 -37.540449970763945 0 0 0 -1 I I #
coedge $-1 $306 $311 $206 $317 reversed $200 $-1 #
edge $-1 $320 -68.265022736289552 $314 68.265022736289552 $316 $425 forward 7 unknown #
coedge $-1 $207 $416 $306 $413 reversed $319 $-1 #
loop $-1 $-1 $207 $303 #
vertex $-1 $208 $426 #
straight-curve $-1 68.265022736289552 -37.540449970763945 0 0 0 1 I I #
point $-1 -68.265022736289552 -37.540449970763945 1.7413398493950139 #
point $-1 68.265022736289552 -37.540449970763945 1.7413398493950139 #
plane-surface $-1 0 0 16.3825162606263 0 0 1 1 0 0 forward_v I I I I #
coedge $-1 $335 $334 $327 $427 forward $214 $-1 #
coedge $-1 $327 $216 $218 $331 reversed $129 $-1 #
coedge $-1 $216 $326 $325 $427 reversed $129 $-1 #
coedge $-1 $224 $219 $216 $329 forward $225 $-1 #
edge $-1 $332 28.812855513065593 $428 49.234900386325769 $328 $429 forward 7 unknown #
coedge $-1 $218 $217 $335 $430 reversed $81 $-1 #
edge $-1 $431 -136.53004547257905 $332 -111.2870095994445 $326 $432 forward 7 unknown #
vertex $-1 $220 $433 #
straight-curve $-1 47.84297786302939 -1.8410602398390168 16.382516260626304 0 -1 0 I I #
coedge $-1 $325 $221 $224 $339 reversed $214 $-1 #
coedge $-1 $221 $325 $330 $430 forward $214 $-1 #
vertex $-1 $222 $434 #
straight-curve $-1 68.265022736289552 1.2376549322044248 96.125253197907625 0 0 1 I I #
straight-curve $-1 -42.190103548924228 1.2376549322044248 81.795380110601457 0.80901698891910034 0 -0.5877852598018023 I I #
edge $-1 $428 -8.6018958915604919 $226 1.2376549322044248 $334 $435 forward 7 unknown #
point $-1 68.265022736289552 1.2376549322044248 16.3825162606263 #
point $-1 47.842977863029375 1.2376549322044248 16.382516260626304 #
edge $-1 $436 1 $436 0 $229 $-1 forward 7 unknown #
vertex $-1 $230 $437 #
ellipse-curve $-1 53.495619504674366 -3.6821204796780407 2.6897012708138623 0.5877852598018023 0 0.80901698891910034 1.6180339778382007 0 -1.1755705196036046 1 I I #
point $-1 59.672034277497616 -3.6821204796780407 7.7882035415843625 #
plane-surface $-1 0 0 16.3825162606263 0 0 1 1 0 0 forward_v I I I I #
coedge $-1 $357 $356 $349 $438 forward $234 $-1 #
coedge $-1 $349 $236 $238 $353 reversed $144 $-1 #
coedge $-1 $236 $348 $347 $438 reversed $144 $-1 #
coedge $-1 $244 $239 $236 $351 forward $245 $-1 #
edge $-1 $354 28.812855513065593 $439 49.234900386325769 $350 $440 forward 7 unknown #
coedge $-1 $238 $237 $357 $441 reversed $90 $-1 #
edge $-1 $442 -136.53004547257905 $354 -111.2870095994445 $348 $443 forward 7 unknown #
vertex $-1 $240 $444 #
straight-curve $-1 47.84297786302939 14.151309050567171 16.382516260626304 0 -1 0 I I #
coedge $-1 $347 $241 $244 $361 reversed $234 $-1 #
coedge $-1 $241 $347 $352 $441 forward $234 $-1 #
vertex $-1 $242 $445 #
straight-curve $-1 68.265022736289552 33.222393513016797 96.125253197907625 0 0 1 I I #
straight-curve $-1 -42.190103548924228 33.222393513016797 81.795380110601457 0.80901698891910034 0 -0.5877852598018023 I I #
edge $-1 $439 23.382842689251884 $246 33.222393513016797 $356 $446 forward 7 unknown #
point $-1 68.265022736289552 33.222393513016797 16.3825162606263 #
point $-1 47.842977863029375 33.222393513016797 16.382516260626304 #
edge $-1 $447 1 $447 0 $249 $-1 forward 7 unknown #
vertex $-1 $250 $448 #
ellipse-curve $-1 53.495619504674366 28.302618101134343 2.6897012708138623 0.5877852598018023 0 0.80901698891910034 1.6180339778382007 0 -1.1755705196036046 1 I I #
point $-1 59.672034277497616 28.302618101134343 7.7882035415843625 #
loop $-1 $-1 $261 $253 #
plane-surface $-1 -68.265022736289552 0 0 1 0 0 0 0 -1 forward_v I I I I #
coedge $-1 $371 $256 $258 $375 reversed $159 $-1 #
coedge $-1 $256 $370 $449 $450 reversed $159 $-1 #
coedge $-1 $264 $259 $256 $373 forward $254 $-1 #
edge $-1 $376 -25.885805336376094 $451 -12.424122741156225 $372 $452 forward 7 unknown #
coedge $-1 $258 $257 $379 $453 reversed $99 $-1 #
edge $-1 $454 3.8958409169770864e-014 $376 18.406528475336479 $370 $455 forward 7 unknown #
vertex $-1 $260 $456 #
straight-curve $-1 -54.803340141069683 -10.309024120571035 16.3825162606263 0 1 0 I I #
coedge $-1 $449 $261 $264 $383 reversed $368 $-1 #
coedge $-1 $261 $449 $374 $453 forward $368 $-1 #
vertex $-1 $262 $457 #
straight-curve $-1 -68.265022736289552 -26.429027190860815 51.840523491511782 0 0 1 I I #
straight-curve $-1 -68.265022736289581 -26.429027190860815 3.8292938767550453 -0.7313536940579346 0 -0.68199836817093118 I I #
edge $-1 $451 14.807069291423325 $265 26.429027190860815 $378 $458 forward 7 unknown #
point $-1 -68.265022736289552 -26.429027190860815 16.3825162606263 #
point $-1 -54.803340141069683 -26.429027190860815 16.3825162606263 #
edge $-1 $459 1 $459 0 $268 $-1 forward 7 unknown #
vertex $-1 $269 $460 #
ellipse-curve $-1 -58.154202771045028 -23.108467791021532 6.4813217855353535 -0.68199836817093118 0 0.7313536940579346 1.0970305410869019 0 1.0229975522563968 1 I I #
point $-1 -60.437150897592701 -23.108467791021532 11.128902620947065 #
edge $-1 $461 1 $461 0 $272 $-1 forward 7 unknown #
vertex $-1 $273 $462 #
ellipse-curve $-1 -58.154202771045028 -18.127628691262608 6.4813217855353535 -0.68199836817093118 0 0.7313536940579346 1.0970305410869019 0 1.0229975522563968 1 I I #
point $-1 -60.437150897592701 -18.127628691262608 11.128902620947065 #
plane-surface $-1 68.265022736289552 0 0 -1 0 0 0 0 1 forward_v I I I I #
coedge $-1 $281 $279 $283 $399 reversed $181 $-1 #
edge $-1 $294 -16.3825162606263 $401 16.3825162606263 $293 $463 forward 7 unknown #
vertex $-1 $399 $464 #
straight-curve $-1 -68.265022736289552 -37.540449970763945 0 0 0 -1 I I #
edge $-1 $397 -37.540449970763945 $401 37.540449970763945 $395 $465 forward 7 unknown #
straight-curve $-1 0 -37.540449970763945 -16.3825162606263 -1 0 0 I I #
vertex $-1 $286 $466 #
straight-curve $-1 0 37.540449970763945 -16.3825162606263 1 0 0 I I #
point $-1 68.265022736289552 37.540449970763945 -16.3825162606263 #
point $-1 68.265022736289552 -37.540449970763945 -16.3825162606263 #
straight-curve $-1 -68.265022736289552 0 16.3825162606263 0 -1 0 I I #
point $-1 -68.265022736289552 37.540449970763945 16.3825162606263 #
point $-1 -68.265022736289552 -37.540449970763945 16.3825162606263 #
straight-curve $-1 68.265022736289552 -37.540449970763945 0 0 0 -1 I I #
straight-curve $-1 68.265022736289552 37.540449970763945 0 0 0 -1 I I #
plane-surface $-1 68.265022736289552 0 0 -1 0 0 0 0 1 forward_v I I I I #
coedge $-1 $467 $414 $310 $419 forward $304 $-1 #
coedge $-1 $311 $306 $467 $468 forward $200 $-1 #
edge $-1 $320 -5.5557113899515613 $469 5.5557113899515613 $318 $470 forward 7 unknown #
coedge $-1 $411 $471 $307 $415 reversed $304 $-1 #
edge $-1 $422 -68.265022736289552 $417 68.265022736289552 $414 $472 forward 7 unknown #
coedge $-1 $318 $308 $471 $473 forward $319 $-1 #
vertex $-1 $309 $474 #
straight-curve $-1 68.265022736289552 -43.096161360715506 1.7413398493950139 0 1 0 I I #
edge $-1 $422 -4.3442891335858631 $420 4.3442891335858631 $310 $475 forward 7 unknown #
vertex $-1 $312 $476 #
straight-curve $-1 -68.265022736289552 -43.096161360715506 -6.9472384177767124 0 1 0 I I #
vertex $-1 $313 $477 #
straight-curve $-1 -68.265022736289552 -43.096161360715506 1.7413398493950139 0 -1 0 I I #
point $-1 -68.265022736289552 -37.540449970763945 -6.9472384177767124 #
straight-curve $-1 0 -37.540449970763945 -6.9472384177767124 -1 0 0 I I #
point $-1 68.265022736289552 -37.540449970763945 -6.9472384177767124 #
edge $-1 $428 79.742736937281322 $431 94.580221336157948 $325 $478 forward 7 unknown #
vertex $-1 $339 $479 #
straight-curve $-1 19.030122349963783 -8.6018958915604919 16.382516260626304 1 0 0 I I #
edge $-1 $431 -6.7608356517214752 $336 3.0787151720434416 $335 $480 forward 7 unknown #
vertex $-1 $430 $481 #
straight-curve $-1 -42.190103548924228 -8.6018958915604919 81.795380110601457 -0.80901698891910034 0 0.5877852598018023 I I #
point $-1 47.842977863029375 -8.6018958915604919 16.382516260626304 #
point $-1 68.265022736289538 1.2376549322044248 1.5450318617496777 #
straight-curve $-1 68.265022736289552 0 16.3825162606263 0 1 0 I I #
vertex $-1 $342 $482 #
point $-1 55.113653482512561 -3.6821204796780407 1.514130751210258 #
edge $-1 $439 79.742736937281322 $442 94.580221336157948 $347 $483 forward 7 unknown #
vertex $-1 $361 $484 #
straight-curve $-1 19.030122349963783 23.382842689251884 16.382516260626304 1 0 0 I I #
edge $-1 $442 9.2315336386847129 $358 19.071084462449626 $357 $485 forward 7 unknown #
vertex $-1 $441 $486 #
straight-curve $-1 -42.190103548924228 23.382842689251884 81.795380110601457 -0.80901698891910034 0 0.5877852598018023 I I #
point $-1 47.842977863029375 23.382842689251884 16.382516260626304 #
point $-1 68.265022736289538 33.222393513016797 1.5450318617496777 #
straight-curve $-1 68.265022736289552 0 16.3825162606263 0 1 0 I I #
vertex $-1 $364 $487 #
point $-1 55.113653482512561 28.302618101134343 1.514130751210258 #
coedge $-1 $379 $378 $371 $450 forward $368 $-1 #
edge $-1 $451 35.458007230885485 $454 48.011229614756708 $449 $488 forward 7 unknown #
vertex $-1 $383 $489 #
straight-curve $-1 -80.689145477445777 -14.807069291423325 16.382516260626304 -1 0 0 I I #
edge $-1 $454 4.4980451708522899 $380 16.12000307028978 $379 $490 forward 7 unknown #
vertex $-1 $453 $491 #
straight-curve $-1 -68.265022736289581 -14.807069291423325 3.8292938767550453 0.7313536940579346 0 0.68199836817093118 I I #
point $-1 -54.803340141069683 -14.807069291423325 16.3825162606263 #
point $-1 -68.265022736289552 -26.429027190860815 3.8292938767550719 #
straight-curve $-1 -68.265022736289552 0 16.3825162606263 0 -1 0 I I #
vertex $-1 $386 $492 #
point $-1 -57.057172229958127 -23.108467791021532 7.5043193377917508 #
vertex $-1 $390 $493 #
point $-1 -57.057172229958127 -18.127628691262608 7.5043193377917508 #
straight-curve $-1 -68.265022736289552 37.540449970763945 0 0 0 -1 I I #
point $-1 -68.265022736289552 -37.540449970763945 -16.3825162606263 #
straight-curve $-1 -68.265022736289552 0 -16.3825162606263 0 1 0 I I #
point $-1 -68.265022736289552 37.540449970763945 -16.3825162606263 #
coedge $-1 $471 $411 $412 $468 reversed $304 $-1 #
edge $-1 $469 -68.265022736289552 $420 68.265022736289552 $467 $494 forward 7 unknown #
vertex $-1 $473 $495 #
straight-curve $-1 68.265022736289552 -43.096161360715506 -6.9472384177767124 0 -1 0 I I #
coedge $-1 $414 $467 $416 $473 reversed $304 $-1 #
straight-curve $-1 0 -48.651872750667067 1.7413398493950139 1 0 0 I I #
edge $-1 $417 -4.3442891335858631 $469 4.3442891335858631 $416 $496 forward 7 unknown #
point $-1 68.265022736289552 -48.651872750667067 1.7413398493950139 #
straight-curve $-1 -68.265022736289552 -48.651872750667067 -2.6029492841908493 0 0 -1 I I #
point $-1 -68.265022736289552 -48.651872750667067 -6.9472384177767124 #
point $-1 -68.265022736289552 -48.651872750667067 1.7413398493950139 #
straight-curve $-1 68.265022736289552 -8.6018958915604919 96.125253197907625 0 0 -1 I I #
point $-1 68.265022736289552 -8.6018958915604919 16.3825162606263 #
straight-curve $-1 68.265022736289552 -1.8410602398390168 1.5450318617496777 0 1 0 I I #
point $-1 68.265022736289538 -8.6018958915604919 1.5450318617496777 #
point $-1 52.320048985070756 -3.6821204796780407 1.0716672929756619 #
straight-curve $-1 68.265022736289552 23.382842689251884 96.125253197907625 0 0 -1 I I #
point $-1 68.265022736289552 23.382842689251884 16.3825162606263 #
straight-curve $-1 68.265022736289552 14.151309050567171 1.5450318617496777 0 1 0 I I #
point $-1 68.265022736289538 23.382842689251884 1.5450318617496777 #
point $-1 52.320048985070756 28.302618101134343 1.0716672929756619 #
straight-curve $-1 -68.265022736289552 -14.807069291423325 51.840523491511782 0 0 -1 I I #
point $-1 -68.265022736289552 -14.807069291423325 16.3825162606263 #
straight-curve $-1 -68.265022736289552 -10.309024120571035 3.8292938767550684 0 -1 0 I I #
point $-1 -68.265022736289552 -14.807069291423325 3.8292938767550719 #
point $-1 -57.131205218788629 -23.108467791021532 5.3842912444484519 #
point $-1 -57.131205218788629 -18.127628691262608 5.3842912444484519 #
straight-curve $-1 0 -48.651872750667067 -6.9472384177767124 -1 0 0 I I #
point $-1 68.265022736289552 -48.651872750667067 -6.9472384177767124 #
straight-curve $-1 68.265022736289552 -48.651872750667067 -2.6029492841908493 0 0 -1 I I #
End-of-ACIS-data 