500 0 19 0           
7 Unknown 11 ACIS 5.0 NT 24 Fri Mar 26 02:58:36 1999 
-1 9.9999999999999995e-007 1e-010 
body $-1 $19 $-1 $20 #
body $-1 $21 $-1 $22 #
body $-1 $23 $-1 $24 #
body $-1 $25 $-1 $26 #
body $-1 $27 $-1 $28 #
body $-1 $29 $-1 $30 #
body $-1 $31 $-1 $32 #
body $-1 $33 $-1 $34 #
body $-1 $35 $-1 $36 #
body $-1 $37 $-1 $38 #
body $-1 $39 $-1 $40 #
body $-1 $41 $-1 $42 #
body $-1 $43 $-1 $44 #
body $-1 $45 $-1 $46 #
body $-1 $47 $-1 $48 #
body $-1 $49 $-1 $50 #
body $-1 $51 $-1 $52 #
body $-1 $53 $-1 $54 #
body $-1 $55 $-1 $56 #
lump $-1 $-1 $57 $0 #
transform $-1 1 0 0 0 1 0 0 0 1 43.458357493820003 19.239079983073001 4 1 rotate no_reflect no_shear #
lump $-1 $-1 $58 $1 #
transform $-1 1 0 0 0 1 0 0 0 1 43.458357493820003 19.239079983073001 4 1 rotate no_reflect no_shear #
lump $-1 $-1 $59 $2 #
transform $-1 1 0 0 0 1 0 0 0 1 43.458357493820003 19.239079983073001 4 1 rotate no_reflect no_shear #
lump $-1 $-1 $60 $3 #
transform $-1 1 0 0 0 1 0 0 0 1 43.458357493820003 19.239079983073001 4 1 rotate no_reflect no_shear #
lump $-1 $-1 $61 $4 #
transform $-1 1 0 0 0 1 0 0 0 1 43.458357493820003 19.239079983073001 4 1 rotate no_reflect no_shear #
lump $-1 $-1 $62 $5 #
transform $-1 1 0 0 0 1 0 0 0 1 43.458357493820003 19.239079983073001 4 1 rotate no_reflect no_shear #
lump $-1 $-1 $63 $6 #
transform $-1 1 0 0 0 1 0 0 0 1 43.458357493820003 19.239079983073001 4 1 rotate no_reflect no_shear #
lump $-1 $-1 $64 $7 #
transform $-1 1 0 0 0 1 0 0 0 1 43.458357493820003 19.239079983073001 4 1 rotate no_reflect no_shear #
lump $-1 $-1 $65 $8 #
transform $-1 1 0 0 0 1 0 0 0 1 43.458357493820003 19.239079983073001 4 1 rotate no_reflect no_shear #
lump $-1 $-1 $66 $9 #
transform $-1 1 0 0 0 1 0 0 0 1 43.458357493820003 19.239079983073001 4 1 rotate no_reflect no_shear #
lump $-1 $-1 $67 $10 #
transform $-1 1 0 0 0 1 0 0 0 1 43.458357493820003 19.239079983073001 4 1 rotate no_reflect no_shear #
lump $-1 $-1 $68 $11 #
transform $-1 1 0 0 0 1 0 0 0 1 43.458357493820003 19.239079983073001 4 1 rotate no_reflect no_shear #
lump $-1 $-1 $69 $12 #
transform $-1 1 0 0 0 1 0 0 0 1 43.458357493820003 19.239079983073001 4 1 rotate no_reflect no_shear #
lump $-1 $-1 $70 $13 #
transform $-1 1 0 0 0 1 0 0 0 1 43.458357493820003 19.239079983073001 4 1 rotate no_reflect no_shear #
lump $-1 $-1 $71 $14 #
transform $-1 1 0 0 0 1 0 0 0 1 43.458357493820003 19.239079983073001 4 1 rotate no_reflect no_shear #
lump $-1 $-1 $72 $15 #
transform $-1 1 0 0 0 1 0 0 0 1 43.458357493820003 19.239079983073001 4 1 rotate no_reflect no_shear #
lump $-1 $-1 $73 $16 #
transform $-1 1 0 0 0 1 0 0 0 1 43.458357493820003 19.239079983073001 4 1 rotate no_reflect no_shear #
lump $-1 $-1 $74 $17 #
transform $-1 1 0 0 0 1 0 0 0 1 43.458357493820003 19.239079983073001 4 1 rotate no_reflect no_shear #
lump $-1 $-1 $75 $18 #
transform $-1 1 0 0 0 1 0 0 0 1 43.458357493820003 19.239079983073001 4 1 rotate no_reflect no_shear #
shell $-1 $-1 $-1 $76 $-1 $19 #
shell $-1 $-1 $-1 $77 $-1 $21 #
shell $-1 $-1 $-1 $78 $-1 $23 #
shell $-1 $-1 $-1 $79 $-1 $25 #
shell $-1 $-1 $-1 $80 $-1 $27 #
shell $-1 $-1 $-1 $81 $-1 $29 #
shell $-1 $-1 $-1 $82 $-1 $31 #
shell $-1 $-1 $-1 $83 $-1 $33 #
shell $-1 $-1 $-1 $84 $-1 $35 #
shell $-1 $-1 $-1 $85 $-1 $37 #
shell $-1 $-1 $-1 $86 $-1 $39 #
shell $-1 $-1 $-1 $87 $-1 $41 #
shell $-1 $-1 $-1 $88 $-1 $43 #
shell $-1 $-1 $-1 $89 $-1 $45 #
shell $-1 $-1 $-1 $90 $-1 $47 #
shell $-1 $-1 $-1 $91 $-1 $49 #
shell $-1 $-1 $-1 $92 $-1 $51 #
shell $-1 $-1 $-1 $93 $-1 $53 #
shell $-1 $-1 $-1 $94 $-1 $55 #
face $-1 $95 $96 $57 $-1 $97 forward single #
face $-1 $98 $99 $58 $-1 $100 reversed single #
face $-1 $101 $102 $59 $-1 $103 forward single #
face $-1 $104 $105 $60 $-1 $106 reversed single #
face $-1 $107 $108 $61 $-1 $109 forward single #
face $-1 $110 $111 $62 $-1 $112 forward single #
face $-1 $113 $114 $63 $-1 $115 forward single #
face $-1 $116 $117 $64 $-1 $118 reversed single #
face $-1 $119 $120 $65 $-1 $121 forward single #
face $-1 $122 $123 $66 $-1 $124 forward single #
face $-1 $125 $126 $67 $-1 $127 reversed single #
face $-1 $128 $129 $68 $-1 $130 forward single #
face $-1 $131 $132 $69 $-1 $133 forward single #
face $-1 $134 $135 $70 $-1 $136 reversed single #
face $-1 $137 $138 $71 $-1 $139 forward single #
face $-1 $140 $141 $72 $-1 $142 forward single #
face $-1 $143 $144 $73 $-1 $145 reversed single #
face $-1 $146 $147 $74 $-1 $148 forward single #
face $-1 $149 $150 $75 $-1 $151 forward single #
face $-1 $152 $153 $57 $-1 $154 reversed single #
loop $-1 $-1 $155 $76 #
plane-surface $-1 0 0 4 0 0 1 1 0 0 forward_v I I I I #
face $-1 $156 $157 $58 $-1 $158 reversed single #
loop $-1 $-1 $159 $77 #
plane-surface $-1 -41.958357493820003 -16.239079983073001 0 0 -1 0 0 0 -1 forward_v I I I I #
face $-1 $160 $161 $59 $-1 $162 reversed single #
loop $-1 $-1 $163 $78 #
plane-surface $-1 43.458357493820003 0 0 -1 0 0 0 0 1 forward_v I I I I #
face $-1 $164 $165 $60 $-1 $166 reversed single #
loop $-1 $-1 $167 $79 #
plane-surface $-1 40.336233405560471 -70.327443883202193 71.032574982195442 -1 0 0 0 -0.5877852598018023 0.80901698891910034 forward_v I I I I #
face $-1 $168 $169 $61 $-1 $170 forward single #
loop $-1 $171 $172 $80 #
cone-surface $-1 30.917340199946238 -16.514563906813866 1.7189090984437754 0 0.5877852598018023 -0.80901698891910034 1 0 0 1 I I 0 1 1 forward I I I I #
face $-1 $173 $174 $62 $-1 $175 forward single #
loop $-1 $176 $177 $81 #
cone-surface $-1 34.449425152051575 -16.514563906813866 1.7189090984437754 0 0.5877852598018023 -0.80901698891910034 1 0 0 1 I I 0 1 1 forward I I I I #
face $-1 $178 $179 $63 $-1 $180 forward single #
loop $-1 $181 $182 $82 #
cone-surface $-1 37.981510104156911 -16.514563906813866 1.7189090984437754 0 0.5877852598018023 -0.80901698891910034 1 0 0 1 I I 0 1 1 forward I I I I #
face $-1 $183 $184 $64 $-1 $185 reversed single #
loop $-1 $-1 $186 $83 #
plane-surface $-1 -40.458357493820003 64.040866452904709 83.840227912804664 1 0 0 0 -0.78801076186113728 -0.61566146476048833 forward_v I I I I #
face $-1 $187 $188 $65 $-1 $189 forward single #
loop $-1 $190 $191 $84 #
cone-surface $-1 -37.167963444145684 16.89341399748395 1.3896893279572953 0 -0.78801076186113728 -0.61566146476048833 1 0 0 1 I I 0 1 1 forward I I I I #
face $-1 $192 $193 $66 $-1 $194 forward single #
loop $-1 $195 $196 $85 #
cone-surface $-1 -32.23237236963422 16.89341399748395 1.3896893279572953 0 -0.78801076186113728 -0.61566146476048833 1 0 0 1 I I 0 1 1 forward I I I I #
face $-1 $197 $198 $67 $-1 $199 reversed single #
loop $-1 $-1 $200 $86 #
plane-surface $-1 -17.365620251979877 64.040866452904709 83.840227912804664 1 0 0 0 -0.78801076186113728 -0.61566146476048833 forward_v I I I I #
face $-1 $201 $202 $68 $-1 $203 forward single #
loop $-1 $204 $205 $87 #
cone-surface $-1 -14.075226202305561 16.89341399748395 1.3896893279572953 0 -0.78801076186113728 -0.61566146476048833 1 0 0 1 I I 0 1 1 forward I I I I #
face $-1 $206 $207 $69 $-1 $208 forward single #
loop $-1 $209 $210 $88 #
cone-surface $-1 -9.1396351277940937 16.89341399748395 1.3896893279572953 0 -0.78801076186113728 -0.61566146476048833 1 0 0 1 I I 0 1 1 forward I I I I #
face $-1 $211 $212 $70 $-1 $213 reversed single #
loop $-1 $-1 $214 $89 #
plane-surface $-1 5.7271169898602494 64.040866452904709 83.840227912804664 1 0 0 0 -0.78801076186113728 -0.61566146476048833 forward_v I I I I #
face $-1 $215 $216 $71 $-1 $217 forward single #
loop $-1 $218 $219 $90 #
cone-surface $-1 9.0175110395345683 16.89341399748395 1.3896893279572953 0 -0.78801076186113728 -0.61566146476048833 1 0 0 1 I I 0 1 1 forward I I I I #
face $-1 $220 $221 $72 $-1 $222 forward single #
loop $-1 $223 $224 $91 #
cone-surface $-1 13.953102114046033 16.89341399748395 1.3896893279572953 0 -0.78801076186113728 -0.61566146476048833 1 0 0 1 I I 0 1 1 forward I I I I #
face $-1 $225 $226 $73 $-1 $227 reversed single #
loop $-1 $-1 $228 $92 #
plane-surface $-1 28.819854231700383 64.040866452904709 83.840227912804664 1 0 0 0 -0.78801076186113728 -0.61566146476048833 forward_v I I I I #
face $-1 $229 $230 $74 $-1 $231 forward single #
loop $-1 $232 $233 $93 #
cone-surface $-1 32.110248281374695 16.89341399748395 1.3896893279572953 0 -0.78801076186113728 -0.61566146476048833 1 0 0 1 I I 0 1 1 forward I I I I #
face $-1 $234 $235 $75 $-1 $236 forward single #
loop $-1 $237 $238 $94 #
cone-surface $-1 37.045839355886159 16.89341399748395 1.3896893279572953 0 -0.78801076186113728 -0.61566146476048833 1 0 0 1 I I 0 1 1 forward I I I I #
face $-1 $239 $240 $57 $-1 $241 reversed single #
loop $-1 $-1 $242 $95 #
plane-surface $-1 0 0 -4 0 0 1 1 0 0 forward_v I I I I #
coedge $-1 $243 $244 $245 $246 forward $96 $-1 #
face $-1 $247 $248 $58 $-1 $249 forward single #
loop $-1 $-1 $250 $98 #
plane-surface $-1 -40.458357493820003 -17.739079983073001 0 -1 0 0 0 0 1 forward_v I I I I #
coedge $-1 $251 $252 $253 $254 forward $99 $-1 #
face $-1 $255 $256 $59 $-1 $257 forward single #
loop $-1 $-1 $258 $101 #
plane-surface $-1 0 -19.239079983073001 0 0 1 0 0 0 1 forward_v I I I I #
coedge $-1 $259 $260 $261 $262 forward $102 $-1 #
face $-1 $263 $264 $60 $-1 $265 reversed single #
loop $-1 $-1 $266 $104 #
plane-surface $-1 34.449425152051575 -19.239079983073012 0.71547593615528626 0 -0.5877852598018023 0.80901698891910034 1 0 0 forward_v I I I I #
coedge $-1 $267 $268 $269 $270 reversed $105 $-1 #
face $-1 $-1 $271 $61 $-1 $272 forward single #
loop $-1 $273 $274 $107 #
cone-surface $-1 30.917340199946238 -15.756534925946692 0.67557173435036155 0 0.5877852598018023 -0.80901698891910034 0.5 0 0 1 I I -0.70710678118654746 0.70710678118654746 0.5 forward I I I I #
loop $-1 $-1 $275 $80 #
coedge $-1 $172 $172 $276 $277 reversed $108 $-1 #
face $-1 $-1 $278 $62 $-1 $279 forward single #
loop $-1 $280 $281 $110 #
cone-surface $-1 34.449425152051575 -15.756534925946692 0.67557173435036155 0 0.5877852598018023 -0.80901698891910034 0.5 0 0 1 I I -0.70710678118654746 0.70710678118654746 0.5 forward I I I I #
loop $-1 $-1 $282 $81 #
coedge $-1 $177 $177 $283 $284 reversed $111 $-1 #
face $-1 $-1 $285 $63 $-1 $286 forward single #
loop $-1 $287 $288 $113 #
cone-surface $-1 37.981510104156911 -15.756534925946692 0.67557173435036155 0 0.5877852598018023 -0.80901698891910034 0.5 0 0 1 I I -0.70710678118654746 0.70710678118654746 0.5 forward I I I I #
loop $-1 $-1 $289 $82 #
coedge $-1 $182 $182 $290 $291 reversed $114 $-1 #
face $-1 $292 $293 $64 $-1 $294 reversed single #
loop $-1 $-1 $295 $116 #
plane-surface $-1 -34.700167906889952 -4.4504403429728256 30.328955851344325 0 0.78801076186113728 0.61566146476048833 1 0 0 forward_v I I I I #
coedge $-1 $296 $297 $298 $299 reversed $117 $-1 #
face $-1 $-1 $300 $65 $-1 $301 forward single #
loop $-1 $302 $303 $119 #
cone-surface $-1 -37.167963444145684 15.713285694433633 0.46767207283089718 0 -0.78801076186113728 -0.61566146476048833 0.5 0 0 1 I I -0.70710678118654746 0.70710678118654746 0.5 forward I I I I #
loop $-1 $-1 $304 $84 #
coedge $-1 $191 $191 $305 $306 reversed $120 $-1 #
face $-1 $-1 $307 $66 $-1 $308 forward single #
loop $-1 $309 $310 $122 #
cone-surface $-1 -32.23237236963422 15.713285694433633 0.46767207283089718 0 -0.78801076186113728 -0.61566146476048833 0.5 0 0 1 I I -0.70710678118654746 0.70710678118654746 0.5 forward I I I I #
loop $-1 $-1 $311 $85 #
coedge $-1 $196 $196 $312 $313 reversed $123 $-1 #
face $-1 $314 $315 $67 $-1 $316 reversed single #
loop $-1 $-1 $317 $125 #
plane-surface $-1 -11.607430665049826 -4.4504403429728256 30.328955851344325 0 0.78801076186113728 0.61566146476048833 1 0 0 forward_v I I I I #
coedge $-1 $318 $319 $320 $321 reversed $126 $-1 #
face $-1 $-1 $322 $68 $-1 $323 forward single #
loop $-1 $324 $325 $128 #
cone-surface $-1 -14.075226202305561 15.713285694433633 0.46767207283089718 0 -0.78801076186113728 -0.61566146476048833 0.5 0 0 1 I I -0.70710678118654746 0.70710678118654746 0.5 forward I I I I #
loop $-1 $-1 $326 $87 #
coedge $-1 $205 $205 $327 $328 reversed $129 $-1 #
face $-1 $-1 $329 $69 $-1 $330 forward single #
loop $-1 $331 $332 $131 #
cone-surface $-1 -9.1396351277940937 15.713285694433633 0.46767207283089718 0 -0.78801076186113728 -0.61566146476048833 0.5 0 0 1 I I -0.70710678118654746 0.70710678118654746 0.5 forward I I I I #
loop $-1 $-1 $333 $88 #
coedge $-1 $210 $210 $334 $335 reversed $132 $-1 #
face $-1 $336 $337 $70 $-1 $338 reversed single #
loop $-1 $-1 $339 $134 #
plane-surface $-1 11.4853065767903 -4.4504403429728256 30.328955851344325 0 0.78801076186113728 0.61566146476048833 1 0 0 forward_v I I I I #
coedge $-1 $340 $341 $342 $343 reversed $135 $-1 #
face $-1 $-1 $344 $71 $-1 $345 forward single #
loop $-1 $346 $347 $137 #
cone-surface $-1 9.0175110395345683 15.713285694433633 0.46767207283089718 0 -0.78801076186113728 -0.61566146476048833 0.5 0 0 1 I I -0.70710678118654746 0.70710678118654746 0.5 forward I I I I #
loop $-1 $-1 $348 $90 #
coedge $-1 $219 $219 $349 $350 reversed $138 $-1 #
face $-1 $-1 $351 $72 $-1 $352 forward single #
loop $-1 $353 $354 $140 #
cone-surface $-1 13.953102114046033 15.713285694433633 0.46767207283089718 0 -0.78801076186113728 -0.61566146476048833 0.5 0 0 1 I I -0.70710678118654746 0.70710678118654746 0.5 forward I I I I #
loop $-1 $-1 $355 $91 #
coedge $-1 $224 $224 $356 $357 reversed $141 $-1 #
face $-1 $358 $359 $73 $-1 $360 reversed single #
loop $-1 $-1 $361 $143 #
plane-surface $-1 34.578043818630434 -4.4504403429728256 30.328955851344325 0 0.78801076186113728 0.61566146476048833 1 0 0 forward_v I I I I #
coedge $-1 $362 $363 $364 $365 reversed $144 $-1 #
face $-1 $-1 $366 $74 $-1 $367 forward single #
loop $-1 $368 $369 $146 #
cone-surface $-1 32.110248281374695 15.713285694433633 0.46767207283089718 0 -0.78801076186113728 -0.61566146476048833 0.5 0 0 1 I I -0.70710678118654746 0.70710678118654746 0.5 forward I I I I #
loop $-1 $-1 $370 $93 #
coedge $-1 $233 $233 $371 $372 reversed $147 $-1 #
face $-1 $-1 $373 $75 $-1 $374 forward single #
loop $-1 $375 $376 $149 #
cone-surface $-1 37.045839355886159 15.713285694433633 0.46767207283089718 0 -0.78801076186113728 -0.61566146476048833 0.5 0 0 1 I I -0.70710678118654746 0.70710678118654746 0.5 forward I I I I #
loop $-1 $-1 $377 $94 #
coedge $-1 $238 $238 $378 $379 reversed $150 $-1 #
face $-1 $380 $381 $57 $-1 $382 reversed single #
loop $-1 $-1 $383 $152 #
plane-surface $-1 0 -19.239079983073001 0 0 1 0 0 0 1 forward_v I I I I #
coedge $-1 $384 $385 $386 $387 forward $153 $-1 #
coedge $-1 $388 $155 $389 $390 forward $96 $-1 #
coedge $-1 $155 $388 $391 $392 forward $96 $-1 #
coedge $-1 $393 $394 $155 $246 reversed $395 $-1 #
edge $-1 $396 -19.239079983073001 $397 19.239079983073001 $245 $398 forward 7 unknown #
face $-1 $399 $400 $58 $-1 $401 reversed single #
loop $-1 $-1 $402 $156 #
plane-surface $-1 0 0 4 0 0 1 1 0 0 forward_v I I I I #
coedge $-1 $403 $404 $405 $406 reversed $157 $-1 #
coedge $-1 $407 $159 $408 $409 reversed $99 $-1 #
coedge $-1 $159 $407 $410 $411 reversed $99 $-1 #
coedge $-1 $404 $403 $159 $254 reversed $157 $-1 #
edge $-1 $412 -4 $413 4 $253 $414 forward 7 unknown #
face $-1 $415 $416 $59 $-1 $417 reversed single #
loop $-1 $-1 $418 $160 #
plane-surface $-1 45.019419537949759 0 -1 0 0 1 1 0 0 forward_v I I I I #
coedge $-1 $419 $420 $260 $421 forward $161 $-1 #
coedge $-1 $422 $163 $423 $424 reversed $102 $-1 #
coedge $-1 $163 $422 $258 $421 reversed $102 $-1 #
coedge $-1 $425 $426 $163 $262 reversed $256 $-1 #
edge $-1 $427 -19.239079983073001 $428 19.239079983073001 $261 $429 forward 7 unknown #
face $-1 $430 $431 $60 $-1 $432 reversed single #
loop $-1 $-1 $433 $164 #
plane-surface $-1 28.562616898542679 -70.327443883202193 71.032574982195442 1 0 0 0 0.5877852598018023 -0.80901698891910034 forward_v I I I I #
coedge $-1 $434 $435 $436 $437 reversed $165 $-1 #
coedge $-1 $268 $167 $438 $439 reversed $105 $-1 #
coedge $-1 $167 $267 $434 $440 reversed $105 $-1 #
coedge $-1 $436 $441 $167 $270 forward $442 $-1 #
edge $-1 $443 15.924641958528095 $444 20.445401409113799 $269 $445 forward 7 unknown #
loop $-1 $-1 $276 $168 #
plane-surface $-1 34.449425152051575 -19.239079983073012 0.71547593615528626 0 -0.5877852598018023 0.80901698891910034 1 0 0 forward_v I I I I #
loop $-1 $-1 $446 $107 #
coedge $-1 $274 $274 $275 $447 reversed $169 $-1 #
coedge $-1 $275 $275 $274 $447 forward $171 $-1 #
coedge $-1 $276 $276 $172 $277 forward $271 $-1 #
edge $-1 $448 -7.7731584384264159e-016 $448 6.2831853071795996 $276 $449 forward 7 unknown #
loop $-1 $-1 $283 $173 #
plane-surface $-1 34.449425152051575 -19.239079983073012 0.71547593615528626 0 -0.5877852598018023 0.80901698891910034 1 0 0 forward_v I I I I #
loop $-1 $-1 $450 $110 #
coedge $-1 $281 $281 $282 $451 reversed $174 $-1 #
coedge $-1 $282 $282 $281 $451 forward $176 $-1 #
coedge $-1 $283 $283 $177 $284 forward $278 $-1 #
edge $-1 $452 -7.7731584384264159e-016 $452 6.2831853071795996 $283 $453 forward 7 unknown #
loop $-1 $-1 $290 $178 #
plane-surface $-1 34.449425152051575 -19.239079983073012 0.71547593615528626 0 -0.5877852598018023 0.80901698891910034 1 0 0 forward_v I I I I #
loop $-1 $-1 $454 $113 #
coedge $-1 $288 $288 $289 $455 reversed $179 $-1 #
coedge $-1 $289 $289 $288 $455 forward $181 $-1 #
coedge $-1 $290 $290 $182 $291 forward $285 $-1 #
edge $-1 $456 -7.7731584384264159e-016 $456 6.2831853071795996 $290 $457 forward 7 unknown #
face $-1 $458 $459 $64 $-1 $460 forward single #
loop $-1 $-1 $461 $183 #
plane-surface $-1 -28.941978319959901 64.040866452904709 83.840227912804664 -1 0 0 0 0.78801076186113728 0.61566146476048833 forward_v I I I I #
coedge $-1 $462 $463 $464 $465 reversed $184 $-1 #
coedge $-1 $297 $186 $466 $467 reversed $117 $-1 #
coedge $-1 $186 $296 $462 $468 reversed $117 $-1 #
coedge $-1 $464 $469 $186 $299 forward $459 $-1 #
edge $-1 $470 12.781353243379353 $471 15.900439370317958 $298 $472 forward 7 unknown #
loop $-1 $-1 $305 $187 #
plane-surface $-1 -34.700167906889952 -4.4504403429728256 30.328955851344325 0 0.78801076186113728 0.61566146476048833 1 0 0 forward_v I I I I #
loop $-1 $-1 $473 $119 #
coedge $-1 $303 $303 $304 $474 reversed $188 $-1 #
coedge $-1 $304 $304 $303 $474 forward $190 $-1 #
coedge $-1 $305 $305 $191 $306 forward $300 $-1 #
edge $-1 $475 -8.7586447835389719e-017 $475 6.2831853071796004 $305 $476 forward 7 unknown #
loop $-1 $-1 $312 $192 #
plane-surface $-1 -34.700167906889952 -4.4504403429728256 30.328955851344325 0 0.78801076186113728 0.61566146476048833 1 0 0 forward_v I I I I #
loop $-1 $-1 $477 $122 #
coedge $-1 $310 $310 $311 $478 reversed $193 $-1 #
coedge $-1 $311 $311 $310 $478 forward $195 $-1 #
coedge $-1 $312 $312 $196 $313 forward $307 $-1 #
edge $-1 $479 -8.7586447835389719e-017 $479 6.2831853071796004 $312 $480 forward 7 unknown #
face $-1 $481 $482 $67 $-1 $483 forward single #
loop $-1 $-1 $484 $197 #
plane-surface $-1 -5.8492410781197748 64.040866452904709 83.840227912804664 -1 0 0 0 0.78801076186113728 0.61566146476048833 forward_v I I I I #
coedge $-1 $485 $486 $487 $488 reversed $198 $-1 #
coedge $-1 $319 $200 $489 $490 reversed $126 $-1 #
coedge $-1 $200 $318 $485 $491 reversed $126 $-1 #
coedge $-1 $487 $492 $200 $321 forward $482 $-1 #
edge $-1 $493 12.781353243379353 $494 15.900439370317958 $320 $495 forward 7 unknown #
loop $-1 $-1 $327 $201 #
plane-surface $-1 -11.607430665049826 -4.4504403429728256 30.328955851344325 0 0.78801076186113728 0.61566146476048833 1 0 0 forward_v I I I I #
loop $-1 $-1 $496 $128 #
coedge $-1 $325 $325 $326 $497 reversed $202 $-1 #
coedge $-1 $326 $326 $325 $497 forward $204 $-1 #
coedge $-1 $327 $327 $205 $328 forward $322 $-1 #
edge $-1 $498 -8.7586447835389719e-017 $498 6.2831853071796004 $327 $499 forward 7 unknown #
loop $-1 $-1 $334 $206 #
plane-surface $-1 -11.607430665049826 -4.4504403429728256 30.328955851344325 0 0.78801076186113728 0.61566146476048833 1 0 0 forward_v I I I I #
loop $-1 $-1 $500 $131 #
coedge $-1 $332 $332 $333 $501 reversed $207 $-1 #
coedge $-1 $333 $333 $332 $501 forward $209 $-1 #
coedge $-1 $334 $334 $210 $335 forward $329 $-1 #
edge $-1 $502 -8.7586447835389719e-017 $502 6.2831853071796004 $334 $503 forward 7 unknown #
face $-1 $504 $505 $70 $-1 $506 forward single #
loop $-1 $-1 $507 $211 #
plane-surface $-1 17.243496163720351 64.040866452904709 83.840227912804664 -1 0 0 0 0.78801076186113728 0.61566146476048833 forward_v I I I I #
coedge $-1 $508 $509 $510 $511 reversed $212 $-1 #
coedge $-1 $341 $214 $512 $513 reversed $135 $-1 #
coedge $-1 $214 $340 $508 $514 reversed $135 $-1 #
coedge $-1 $510 $515 $214 $343 forward $505 $-1 #
edge $-1 $516 12.781353243379353 $517 15.900439370317958 $342 $518 forward 7 unknown #
loop $-1 $-1 $349 $215 #
plane-surface $-1 11.4853065767903 -4.4504403429728256 30.328955851344325 0 0.78801076186113728 0.61566146476048833 1 0 0 forward_v I I I I #
loop $-1 $-1 $519 $137 #
coedge $-1 $347 $347 $348 $520 reversed $216 $-1 #
coedge $-1 $348 $348 $347 $520 forward $218 $-1 #
coedge $-1 $349 $349 $219 $350 forward $344 $-1 #
edge $-1 $521 -8.7586447835389719e-017 $521 6.2831853071796004 $349 $522 forward 7 unknown #
loop $-1 $-1 $356 $220 #
plane-surface $-1 11.4853065767903 -4.4504403429728256 30.328955851344325 0 0.78801076186113728 0.61566146476048833 1 0 0 forward_v I I I I #
loop $-1 $-1 $523 $140 #
coedge $-1 $354 $354 $355 $524 reversed $221 $-1 #
coedge $-1 $355 $355 $354 $524 forward $223 $-1 #
coedge $-1 $356 $356 $224 $357 forward $351 $-1 #
edge $-1 $525 -8.7586447835389719e-017 $525 6.2831853071796004 $356 $526 forward 7 unknown #
face $-1 $527 $528 $73 $-1 $529 forward single #
loop $-1 $-1 $530 $225 #
plane-surface $-1 40.336233405560485 64.040866452904709 83.840227912804664 -1 0 0 0 0.78801076186113728 0.61566146476048833 forward_v I I I I #
coedge $-1 $531 $532 $533 $534 reversed $226 $-1 #
coedge $-1 $363 $228 $535 $536 reversed $144 $-1 #
coedge $-1 $228 $362 $531 $537 reversed $144 $-1 #
coedge $-1 $533 $538 $228 $365 forward $528 $-1 #
edge $-1 $539 12.781353243379353 $540 15.900439370317958 $364 $541 forward 7 unknown #
loop $-1 $-1 $371 $229 #
plane-surface $-1 34.578043818630434 -4.4504403429728256 30.328955851344325 0 0.78801076186113728 0.61566146476048833 1 0 0 forward_v I I I I #
loop $-1 $-1 $542 $146 #
coedge $-1 $369 $369 $370 $543 reversed $230 $-1 #
coedge $-1 $370 $370 $369 $543 forward $232 $-1 #
coedge $-1 $371 $371 $233 $372 forward $366 $-1 #
edge $-1 $544 -8.7586447835389719e-017 $544 6.2831853071796004 $371 $545 forward 7 unknown #
loop $-1 $-1 $378 $234 #
plane-surface $-1 34.578043818630434 -4.4504403429728256 30.328955851344325 0 0.78801076186113728 0.61566146476048833 1 0 0 forward_v I I I I #
loop $-1 $-1 $546 $149 #
coedge $-1 $376 $376 $377 $547 reversed $235 $-1 #
coedge $-1 $377 $377 $376 $547 forward $237 $-1 #
coedge $-1 $378 $378 $238 $379 forward $373 $-1 #
edge $-1 $548 -8.7586447835389719e-017 $548 6.2831853071796004 $378 $549 forward 7 unknown #
face $-1 $550 $551 $57 $-1 $552 reversed single #
loop $-1 $-1 $553 $239 #
plane-surface $-1 -43.458357493820003 0 0 1 0 0 0 0 -1 forward_v I I I I #
coedge $-1 $554 $391 $555 $556 forward $240 $-1 #
coedge $-1 $557 $242 $554 $558 forward $153 $-1 #
coedge $-1 $242 $557 $559 $560 forward $153 $-1 #
coedge $-1 $394 $393 $242 $387 reversed $395 $-1 #
edge $-1 $561 -19.239079983073001 $562 19.239079983073001 $386 $563 forward 7 unknown #
coedge $-1 $244 $243 $564 $565 forward $96 $-1 #
coedge $-1 $566 $567 $243 $390 reversed $551 $-1 #
edge $-1 $397 -43.458357493820003 $568 43.458357493820003 $389 $569 forward 7 unknown #
coedge $-1 $383 $570 $244 $392 reversed $240 $-1 #
edge $-1 $571 -43.458357493820003 $396 43.458357493820003 $391 $572 forward 7 unknown #
coedge $-1 $386 $245 $570 $573 forward $395 $-1 #
coedge $-1 $245 $386 $566 $574 reversed $395 $-1 #
loop $-1 $-1 $393 $550 #
vertex $-1 $246 $575 #
vertex $-1 $246 $576 #
straight-curve $-1 43.458357493820003 0 4 0 1 0 I I #
face $-1 $577 $578 $58 $-1 $579 reversed single #
loop $-1 $-1 $580 $247 #
plane-surface $-1 -43.458357493820003 0 0 1 0 0 0 0 -1 forward_v I I I I #
coedge $-1 $410 $581 $404 $582 forward $248 $-1 #
coedge $-1 $253 $250 $583 $584 reversed $157 $-1 #
coedge $-1 $250 $253 $402 $582 reversed $157 $-1 #
coedge $-1 $585 $586 $250 $406 forward $587 $-1 #
edge $-1 $588 -4 $589 4 $405 $590 forward 7 unknown #
coedge $-1 $252 $251 $580 $591 reversed $99 $-1 #
coedge $-1 $583 $592 $251 $409 forward $578 $-1 #
edge $-1 $593 -22.479178746910002 $413 -19.479178746910002 $408 $594 forward 7 unknown #
coedge $-1 $595 $402 $252 $411 forward $248 $-1 #
edge $-1 $412 19.479178746910002 $596 22.479178746910002 $410 $597 forward 7 unknown #
vertex $-1 $411 $598 #
vertex $-1 $409 $599 #
straight-curve $-1 -40.458357493820003 -16.239079983073001 0 0 0 -1 I I #
face $-1 $600 $601 $59 $-1 $602 reversed single #
loop $-1 $-1 $603 $255 #
plane-surface $-1 46.580481582079521 0 -2.5 -1 0 0 0 0 1 forward_v I I I I #
coedge $-1 $426 $425 $604 $605 forward $256 $-1 #
coedge $-1 $606 $258 $607 $608 reversed $161 $-1 #
coedge $-1 $258 $606 $425 $609 reversed $161 $-1 #
edge $-1 $427 1 $610 4 $258 $611 forward 7 unknown #
coedge $-1 $260 $259 $612 $613 reversed $102 $-1 #
coedge $-1 $614 $615 $259 $424 forward $616 $-1 #
edge $-1 $617 -4 $428 -1 $423 $618 forward 7 unknown #
coedge $-1 $418 $261 $420 $609 forward $256 $-1 #
coedge $-1 $261 $418 $614 $619 forward $256 $-1 #
vertex $-1 $421 $620 #
vertex $-1 $619 $621 #
straight-curve $-1 43.458357493820003 0 -1 0 1 0 I I #
face $-1 $-1 $442 $60 $-1 $622 forward single #
loop $-1 $-1 $623 $263 #
plane-surface $-1 0 -19.239079983073001 0 0 1 0 0 0 1 forward_v I I I I #
coedge $-1 $624 $625 $626 $627 reversed $264 $-1 #
coedge $-1 $628 $266 $268 $440 forward $165 $-1 #
coedge $-1 $266 $628 $624 $629 forward $165 $-1 #
coedge $-1 $626 $269 $266 $437 forward $442 $-1 #
edge $-1 $444 -23.111520829534683 $630 -11.337904322516891 $436 $631 forward 7 unknown #
coedge $-1 $632 $633 $267 $439 forward $431 $-1 #
edge $-1 $634 -34.800811554942428 $443 -31.516287491097721 $438 $635 forward 7 unknown #
edge $-1 $444 -5.5879660285326578 $634 -1.3190626271515327e-014 $268 $636 forward 7 unknown #
coedge $-1 $269 $626 $632 $637 forward $442 $-1 #
loop $-1 $-1 $626 $430 #
vertex $-1 $439 $638 #
vertex $-1 $270 $639 #
straight-curve $-1 40.336233405560471 -35.163721941601096 4 0 1 0 I I #
coedge $-1 $446 $446 $-1 $640 reversed $273 $-1 #
edge $-1 $641 0 $641 6.2831853071796004 $274 $642 forward 7 unknown #
vertex $-1 $277 $643 #
ellipse-curve $-1 30.917340199946238 -16.978700257780144 2.3577379680776498 0 -0.5877852598018023 0.80901698891910034 1 0 0 1 I I #
coedge $-1 $450 $450 $-1 $644 reversed $280 $-1 #
edge $-1 $645 0 $645 6.2831853071796004 $281 $646 forward 7 unknown #
vertex $-1 $284 $647 #
ellipse-curve $-1 34.449425152051575 -16.978700257780144 2.3577379680776498 0 -0.5877852598018023 0.80901698891910034 1 0 0 1 I I #
coedge $-1 $454 $454 $-1 $648 reversed $287 $-1 #
edge $-1 $649 0 $649 6.2831853071796004 $288 $650 forward 7 unknown #
vertex $-1 $291 $651 #
ellipse-curve $-1 37.981510104156911 -16.978700257780144 2.3577379680776498 0 -0.5877852598018023 0.80901698891910034 1 0 0 1 I I #
face $-1 $-1 $652 $64 $-1 $653 reversed single #
loop $-1 $-1 $298 $292 #
plane-surface $-1 0 0 4 0 0 1 1 0 0 forward_v I I I I #
coedge $-1 $654 $655 $656 $657 reversed $293 $-1 #
coedge $-1 $658 $295 $297 $468 forward $184 $-1 #
coedge $-1 $295 $658 $654 $659 forward $184 $-1 #
coedge $-1 $656 $298 $295 $465 forward $459 $-1 #
edge $-1 $471 -23.108273540375027 $660 -11.591894366514925 $464 $661 forward 7 unknown #
coedge $-1 $662 $663 $296 $467 forward $652 $-1 #
edge $-1 $664 -41.912362254995429 $470 -37.920113956402332 $466 $665 forward 7 unknown #
edge $-1 $471 33.411924209207683 $664 38.478159966145995 $297 $666 forward 7 unknown #
coedge $-1 $298 $656 $662 $667 forward $459 $-1 #
vertex $-1 $467 $668 #
vertex $-1 $299 $669 #
straight-curve $-1 -40.458357493820003 32.020433226452354 4 0 -1 0 I I #
coedge $-1 $473 $473 $-1 $670 reversed $302 $-1 #
edge $-1 $671 0 $671 6.2831853071796004 $303 $672 forward 7 unknown #
vertex $-1 $306 $673 #
ellipse-curve $-1 -37.167963444145684 17.679536919603702 2.0038758507034515 0 0.78801076186113728 0.61566146476048833 1 0 0 1 I I #
coedge $-1 $477 $477 $-1 $674 reversed $309 $-1 #
edge $-1 $675 0 $675 6.2831853071796004 $310 $676 forward 7 unknown #
vertex $-1 $313 $677 #
ellipse-curve $-1 -32.23237236963422 17.679536919603702 2.0038758507034515 0 0.78801076186113728 0.61566146476048833 1 0 0 1 I I #
face $-1 $-1 $678 $67 $-1 $679 reversed single #
loop $-1 $-1 $320 $314 #
plane-surface $-1 0 0 4 0 0 1 1 0 0 forward_v I I I I #
coedge $-1 $680 $681 $682 $683 reversed $315 $-1 #
coedge $-1 $684 $317 $319 $491 forward $198 $-1 #
coedge $-1 $317 $684 $680 $685 forward $198 $-1 #
coedge $-1 $682 $320 $317 $488 forward $482 $-1 #
edge $-1 $494 -11.561904919454964 $686 -0.045525745594861888 $487 $687 forward 7 unknown #
coedge $-1 $688 $689 $318 $490 forward $678 $-1 #
edge $-1 $690 -41.912362254995429 $493 -37.920113956402332 $489 $691 forward 7 unknown #
edge $-1 $494 33.411924209207683 $690 38.478159966145995 $319 $692 forward 7 unknown #
coedge $-1 $320 $682 $688 $693 forward $482 $-1 #
vertex $-1 $321 $694 #
vertex $-1 $321 $695 #
straight-curve $-1 -17.365620251979877 32.020433226452354 4 0 -1 0 I I #
coedge $-1 $496 $496 $-1 $696 reversed $324 $-1 #
edge $-1 $697 0 $697 6.2831853071796004 $325 $698 forward 7 unknown #
vertex $-1 $328 $699 #
ellipse-curve $-1 -14.075226202305561 17.679536919603702 2.0038758507034515 0 0.78801076186113728 0.61566146476048833 1 0 0 1 I I #
coedge $-1 $500 $500 $-1 $700 reversed $331 $-1 #
edge $-1 $701 0 $701 6.2831853071796004 $332 $702 forward 7 unknown #
vertex $-1 $335 $703 #
ellipse-curve $-1 -9.1396351277940937 17.679536919603702 2.0038758507034515 0 0.78801076186113728 0.61566146476048833 1 0 0 1 I I #
face $-1 $-1 $704 $70 $-1 $705 reversed single #
loop $-1 $-1 $342 $336 #
plane-surface $-1 0 0 4 0 0 1 1 0 0 forward_v I I I I #
coedge $-1 $706 $707 $708 $709 reversed $337 $-1 #
coedge $-1 $710 $339 $341 $514 forward $212 $-1 #
coedge $-1 $339 $710 $706 $711 forward $212 $-1 #
coedge $-1 $708 $342 $339 $511 forward $505 $-1 #
edge $-1 $517 -0.015536298534900794 $712 11.500842875325201 $510 $713 forward 7 unknown #
coedge $-1 $714 $715 $340 $513 forward $704 $-1 #
edge $-1 $716 -41.912362254995429 $516 -37.920113956402332 $512 $717 forward 7 unknown #
edge $-1 $517 33.411924209207683 $716 38.478159966145995 $341 $718 forward 7 unknown #
coedge $-1 $342 $708 $714 $719 forward $505 $-1 #
vertex $-1 $343 $720 #
vertex $-1 $343 $721 #
straight-curve $-1 5.7271169898602494 32.020433226452354 4 0 -1 0 I I #
coedge $-1 $519 $519 $-1 $722 reversed $346 $-1 #
edge $-1 $723 0 $723 6.2831853071796004 $347 $724 forward 7 unknown #
vertex $-1 $350 $725 #
ellipse-curve $-1 9.0175110395345683 17.679536919603702 2.0038758507034515 0 0.78801076186113728 0.61566146476048833 1 0 0 1 I I #
coedge $-1 $523 $523 $-1 $726 reversed $353 $-1 #
edge $-1 $727 0 $727 6.2831853071796004 $354 $728 forward 7 unknown #
vertex $-1 $357 $729 #
ellipse-curve $-1 13.953102114046033 17.679536919603702 2.0038758507034515 0 0.78801076186113728 0.61566146476048833 1 0 0 1 I I #
face $-1 $-1 $730 $73 $-1 $731 reversed single #
loop $-1 $-1 $364 $358 #
plane-surface $-1 0 0 4 0 0 1 1 0 0 forward_v I I I I #
coedge $-1 $732 $733 $734 $735 reversed $359 $-1 #
coedge $-1 $736 $361 $363 $537 forward $226 $-1 #
coedge $-1 $361 $736 $732 $737 forward $226 $-1 #
coedge $-1 $734 $364 $361 $534 forward $528 $-1 #
edge $-1 $540 11.530832322385166 $738 23.047211496245268 $533 $739 forward 7 unknown #
coedge $-1 $740 $741 $362 $536 forward $730 $-1 #
edge $-1 $742 -41.912362254995429 $539 -37.920113956402332 $535 $743 forward 7 unknown #
edge $-1 $540 33.411924209207683 $742 38.478159966145995 $363 $744 forward 7 unknown #
coedge $-1 $364 $734 $740 $745 forward $528 $-1 #
vertex $-1 $365 $746 #
vertex $-1 $365 $747 #
straight-curve $-1 28.819854231700383 32.020433226452354 4 0 -1 0 I I #
coedge $-1 $542 $542 $-1 $748 reversed $368 $-1 #
edge $-1 $749 0 $749 6.2831853071796004 $369 $750 forward 7 unknown #
vertex $-1 $372 $751 #
ellipse-curve $-1 32.110248281374695 17.679536919603702 2.0038758507034515 0 0.78801076186113728 0.61566146476048833 1 0 0 1 I I #
coedge $-1 $546 $546 $-1 $752 reversed $375 $-1 #
edge $-1 $753 0 $753 6.2831853071796004 $376 $754 forward 7 unknown #
vertex $-1 $379 $755 #
ellipse-curve $-1 37.045839355886159 17.679536919603702 2.0038758507034515 0 0.78801076186113728 0.61566146476048833 1 0 0 1 I I #
face $-1 $-1 $395 $57 $-1 $756 reversed single #
loop $-1 $-1 $566 $380 #
plane-surface $-1 0 19.239079983073001 0 0 -1 0 0 0 -1 forward_v I I I I #
coedge $-1 $757 $564 $567 $758 forward $381 $-1 #
coedge $-1 $570 $383 $384 $558 reversed $240 $-1 #
coedge $-1 $564 $757 $383 $556 reversed $381 $-1 #
edge $-1 $571 -4 $759 4 $555 $760 forward 7 unknown #
coedge $-1 $385 $384 $757 $761 forward $153 $-1 #
edge $-1 $562 -43.458357493820003 $759 43.458357493820003 $554 $762 forward 7 unknown #
coedge $-1 $567 $566 $385 $560 reversed $551 $-1 #
edge $-1 $763 -43.458357493820003 $561 43.458357493820003 $559 $764 forward 7 unknown #
vertex $-1 $387 $765 #
vertex $-1 $573 $766 #
straight-curve $-1 43.458357493820003 0 -4 0 -1 0 I I #
coedge $-1 $553 $555 $388 $565 reversed $381 $-1 #
edge $-1 $568 -19.239079983073001 $571 19.239079983073001 $564 $767 forward 7 unknown #
coedge $-1 $559 $389 $394 $574 forward $551 $-1 #
coedge $-1 $389 $559 $553 $758 reversed $551 $-1 #
vertex $-1 $390 $768 #
straight-curve $-1 0 19.239079983073001 4 -1 0 0 I I #
coedge $-1 $391 $554 $393 $573 reversed $240 $-1 #
vertex $-1 $565 $769 #
straight-curve $-1 0 -19.239079983073001 4 1 0 0 I I #
edge $-1 $396 -4 $562 4 $393 $770 forward 7 unknown #
edge $-1 $397 -4 $561 4 $394 $771 forward 7 unknown #
point $-1 43.458357493820003 -19.239079983073001 4 #
point $-1 43.458357493820003 19.239079983073001 4 #
face $-1 $-1 $587 $58 $-1 $772 reversed single #
loop $-1 $-1 $583 $399 #
plane-surface $-1 0 0 -4 0 0 1 1 0 0 forward_v I I I I #
coedge $-1 $773 $774 $407 $591 forward $400 $-1 #
coedge $-1 $402 $595 $585 $775 forward $248 $-1 #
edge $-1 $589 -10.369539991536501 $412 -7.3695399915365005 $402 $776 forward 7 unknown #
coedge $-1 $777 $408 $403 $584 forward $578 $-1 #
edge $-1 $413 7.3695399915365005 $588 10.369539991536501 $583 $778 forward 7 unknown #
coedge $-1 $779 $405 $581 $775 reversed $587 $-1 #
coedge $-1 $405 $779 $777 $780 reversed $587 $-1 #
loop $-1 $-1 $405 $577 #
vertex $-1 $780 $781 #
vertex $-1 $406 $782 #
straight-curve $-1 -40.458357493820003 -19.239079983073001 0 0 0 1 I I #
edge $-1 $596 -4 $593 4 $580 $783 forward 7 unknown #
coedge $-1 $408 $777 $773 $784 forward $578 $-1 #
vertex $-1 $409 $785 #
straight-curve $-1 -20.979178746910002 -16.239079983073001 -4 1 0 0 I I #
coedge $-1 $581 $410 $774 $786 forward $248 $-1 #
vertex $-1 $786 $787 #
straight-curve $-1 -20.979178746910002 -16.239079983073001 4 -1 0 0 I I #
point $-1 -40.458357493820003 -16.239079983073001 4 #
point $-1 -40.458357493820003 -16.239079983073001 -4 #
face $-1 $-1 $616 $59 $-1 $788 reversed single #
loop $-1 $-1 $612 $415 #
plane-surface $-1 0 0 -4 0 0 1 1 0 0 forward_v I I I I #
coedge $-1 $789 $604 $606 $790 forward $416 $-1 #
coedge $-1 $603 $791 $418 $605 reversed $416 $-1 #
edge $-1 $792 -19.239079983073001 $793 19.239079983073001 $604 $794 forward 7 unknown #
coedge $-1 $420 $419 $603 $790 reversed $161 $-1 #
coedge $-1 $612 $795 $419 $608 forward $601 $-1 #
edge $-1 $796 -1.5610620441297627 $610 1.5610620441297556 $419 $797 forward 7 unknown #
edge $-1 $427 -1.5610620441297627 $792 1.5610620441297627 $420 $798 forward 7 unknown #
vertex $-1 $613 $799 #
straight-curve $-1 43.458357493820003 -19.239079983073001 0 0 0 -1 I I #
coedge $-1 $800 $607 $422 $613 forward $601 $-1 #
edge $-1 $610 -19.239079983073001 $617 19.239079983073001 $612 $801 forward 7 unknown #
coedge $-1 $802 $423 $426 $619 reversed $616 $-1 #
coedge $-1 $423 $802 $800 $803 reversed $616 $-1 #
loop $-1 $-1 $423 $600 #
vertex $-1 $803 $804 #
straight-curve $-1 43.458357493820003 19.239079983073001 0 0 0 1 I I #
edge $-1 $793 -1.5610620441297627 $428 1.5610620441297627 $614 $805 forward 7 unknown #
point $-1 43.458357493819996 -19.239079983073001 -1 #
point $-1 43.458357493819996 19.239079983073001 -1 #
plane-surface $-1 0 0 4 0 0 1 1 0 0 forward_v I I I I #
coedge $-1 $633 $632 $625 $806 forward $431 $-1 #
coedge $-1 $625 $433 $435 $629 reversed $264 $-1 #
coedge $-1 $433 $624 $623 $806 reversed $264 $-1 #
coedge $-1 $441 $436 $433 $627 forward $442 $-1 #
edge $-1 $630 -20.445401409113799 $807 -15.924641958528095 $626 $808 forward 7 unknown #
coedge $-1 $435 $434 $633 $809 reversed $165 $-1 #
edge $-1 $810 1.3190626271515327e-014 $630 5.5879660285326578 $624 $811 forward 7 unknown #
vertex $-1 $437 $812 #
straight-curve $-1 17.224712576025787 -14.718320532487297 4 -1 0 0 I I #
coedge $-1 $623 $438 $441 $637 reversed $431 $-1 #
coedge $-1 $438 $623 $628 $809 forward $431 $-1 #
vertex $-1 $439 $813 #
straight-curve $-1 40.336233405560471 -19.239079983073001 35.516287491097721 0 0 1 I I #
straight-curve $-1 40.336233405560471 -19.239079983073012 0.71547593615528626 0 -0.80901698891910034 -0.5877852598018023 I I #
edge $-1 $807 28.562616898542679 $443 40.336233405560471 $632 $814 forward 7 unknown #
point $-1 40.336233405560471 -19.239079983073001 4 #
point $-1 40.336233405560471 -14.718320532487297 4 #
edge $-1 $815 1 $815 0 $446 $-1 forward 7 unknown #
vertex $-1 $447 $816 #
ellipse-curve $-1 30.917340199946238 -16.050427555847595 1.0800802288099116 0 -0.5877852598018023 0.80901698891910034 1 0 0 1 I I #
point $-1 31.917340199946238 -16.978700257780137 2.3577379680776387 #
edge $-1 $817 1 $817 0 $450 $-1 forward 7 unknown #
vertex $-1 $451 $818 #
ellipse-curve $-1 34.449425152051575 -16.050427555847595 1.0800802288099116 0 -0.5877852598018023 0.80901698891910034 1 0 0 1 I I #
point $-1 35.449425152051575 -16.978700257780137 2.3577379680776387 #
edge $-1 $819 1 $819 0 $454 $-1 forward 7 unknown #
vertex $-1 $455 $820 #
ellipse-curve $-1 37.981510104156911 -16.050427555847595 1.0800802288099116 0 -0.5877852598018023 0.80901698891910034 1 0 0 1 I I #
point $-1 38.981510104156911 -16.978700257780137 2.3577379680776387 #
loop $-1 $-1 $466 $458 #
plane-surface $-1 0 19.239079983073001 0 0 -1 0 0 0 -1 forward_v I I I I #
coedge $-1 $655 $461 $463 $659 reversed $293 $-1 #
coedge $-1 $461 $654 $821 $822 reversed $293 $-1 #
coedge $-1 $469 $464 $461 $657 forward $459 $-1 #
edge $-1 $660 -15.900439370317958 $823 -12.781353243379353 $656 $824 forward 7 unknown #
coedge $-1 $463 $462 $663 $825 reversed $184 $-1 #
edge $-1 $826 -38.478159966145995 $660 -33.411924209207683 $654 $827 forward 7 unknown #
vertex $-1 $465 $828 #
straight-curve $-1 -17.350083953444976 16.1199938561344 4 1 0 0 I I #
coedge $-1 $821 $466 $469 $667 reversed $652 $-1 #
coedge $-1 $466 $821 $658 $825 forward $652 $-1 #
vertex $-1 $467 $829 #
straight-curve $-1 -40.458357493820003 19.239079983073001 41.920113956402332 0 0 1 I I #
straight-curve $-1 -40.458357493820003 -4.4504403429728256 30.328955851344325 0 0.61566146476048833 -0.78801076186113728 I I #
edge $-1 $823 28.941978319959901 $470 40.458357493820003 $662 $830 forward 7 unknown #
point $-1 -40.458357493820003 19.239079983073001 4 #
point $-1 -40.458357493820003 16.119993856134396 4.0000000000000036 #
edge $-1 $831 1 $831 0 $473 $-1 forward 7 unknown #
vertex $-1 $474 $832 #
ellipse-curve $-1 -37.167963444145684 16.107291075364202 0.77550280521114134 0 0.78801076186113728 0.61566146476048833 1 0 0 1 I I #
point $-1 -36.167963444145684 17.679536919603699 2.0038758507034489 #
edge $-1 $833 1 $833 0 $477 $-1 forward 7 unknown #
vertex $-1 $478 $834 #
ellipse-curve $-1 -32.23237236963422 16.107291075364202 0.77550280521114134 0 0.78801076186113728 0.61566146476048833 1 0 0 1 I I #
point $-1 -31.23237236963422 17.679536919603699 2.0038758507034489 #
loop $-1 $-1 $489 $481 #
plane-surface $-1 0 19.239079983073001 0 0 -1 0 0 0 -1 forward_v I I I I #
coedge $-1 $681 $484 $486 $685 reversed $315 $-1 #
coedge $-1 $484 $680 $835 $836 reversed $315 $-1 #
coedge $-1 $492 $487 $484 $683 forward $482 $-1 #
edge $-1 $686 -15.900439370317958 $837 -12.781353243379353 $682 $838 forward 7 unknown #
coedge $-1 $486 $485 $689 $839 reversed $198 $-1 #
edge $-1 $840 -38.478159966145995 $686 -33.411924209207683 $680 $841 forward 7 unknown #
vertex $-1 $488 $842 #
straight-curve $-1 -5.8037153325249129 16.1199938561344 4 1 0 0 I I #
coedge $-1 $835 $489 $492 $693 reversed $678 $-1 #
coedge $-1 $489 $835 $684 $839 forward $678 $-1 #
vertex $-1 $490 $843 #
straight-curve $-1 -17.365620251979877 19.239079983073001 41.920113956402332 0 0 1 I I #
straight-curve $-1 -17.365620251979877 -4.4504403429728256 30.328955851344325 0 0.61566146476048833 -0.78801076186113728 I I #
edge $-1 $837 5.8492410781197748 $493 17.365620251979877 $688 $844 forward 7 unknown #
point $-1 -17.365620251979877 19.239079983073001 4 #
point $-1 -17.365620251979877 16.119993856134396 4.0000000000000036 #
edge $-1 $845 1 $845 0 $496 $-1 forward 7 unknown #
vertex $-1 $497 $846 #
ellipse-curve $-1 -14.075226202305561 16.107291075364202 0.77550280521114134 0 0.78801076186113728 0.61566146476048833 1 0 0 1 I I #
point $-1 -13.075226202305561 17.679536919603699 2.0038758507034489 #
edge $-1 $847 1 $847 0 $500 $-1 forward 7 unknown #
vertex $-1 $501 $848 #
ellipse-curve $-1 -9.1396351277940937 16.107291075364202 0.77550280521114134 0 0.78801076186113728 0.61566146476048833 1 0 0 1 I I #
point $-1 -8.1396351277940937 17.679536919603699 2.0038758507034489 #
loop $-1 $-1 $512 $504 #
plane-surface $-1 0 19.239079983073001 0 0 -1 0 0 0 -1 forward_v I I I I #
coedge $-1 $707 $507 $509 $711 reversed $337 $-1 #
coedge $-1 $507 $706 $849 $850 reversed $337 $-1 #
coedge $-1 $515 $510 $507 $709 forward $505 $-1 #
edge $-1 $712 -15.900439370317958 $851 -12.781353243379353 $708 $852 forward 7 unknown #
coedge $-1 $509 $508 $715 $853 reversed $212 $-1 #
edge $-1 $854 -38.478159966145995 $712 -33.411924209207683 $706 $855 forward 7 unknown #
vertex $-1 $511 $856 #
straight-curve $-1 5.7426532883951502 16.1199938561344 4 1 0 0 I I #
coedge $-1 $849 $512 $515 $719 reversed $704 $-1 #
coedge $-1 $512 $849 $710 $853 forward $704 $-1 #
vertex $-1 $513 $857 #
straight-curve $-1 5.7271169898602494 19.239079983073001 41.920113956402332 0 0 1 I I #
straight-curve $-1 5.7271169898602494 -4.4504403429728256 30.328955851344325 0 0.61566146476048833 -0.78801076186113728 I I #
edge $-1 $851 -17.243496163720351 $516 -5.7271169898602494 $714 $858 forward 7 unknown #
point $-1 5.7271169898602494 19.239079983073001 4 #
point $-1 5.7271169898602494 16.119993856134396 4.0000000000000036 #
edge $-1 $859 1 $859 0 $519 $-1 forward 7 unknown #
vertex $-1 $520 $860 #
ellipse-curve $-1 9.0175110395345683 16.107291075364202 0.77550280521114134 0 0.78801076186113728 0.61566146476048833 1 0 0 1 I I #
point $-1 10.017511039534568 17.679536919603699 2.0038758507034489 #
edge $-1 $861 1 $861 0 $523 $-1 forward 7 unknown #
vertex $-1 $524 $862 #
ellipse-curve $-1 13.953102114046033 16.107291075364202 0.77550280521114134 0 0.78801076186113728 0.61566146476048833 1 0 0 1 I I #
point $-1 14.953102114046033 17.679536919603699 2.0038758507034489 #
loop $-1 $-1 $535 $527 #
plane-surface $-1 0 19.239079983073001 0 0 -1 0 0 0 -1 forward_v I I I I #
coedge $-1 $733 $530 $532 $737 reversed $359 $-1 #
coedge $-1 $530 $732 $863 $864 reversed $359 $-1 #
coedge $-1 $538 $533 $530 $735 forward $528 $-1 #
edge $-1 $738 -15.900439370317958 $865 -12.781353243379353 $734 $866 forward 7 unknown #
coedge $-1 $532 $531 $741 $867 reversed $226 $-1 #
edge $-1 $868 -38.478159966145995 $738 -33.411924209207683 $732 $869 forward 7 unknown #
vertex $-1 $534 $870 #
straight-curve $-1 17.289021909315217 16.1199938561344 4 1 0 0 I I #
coedge $-1 $863 $535 $538 $745 reversed $730 $-1 #
coedge $-1 $535 $863 $736 $867 forward $730 $-1 #
vertex $-1 $536 $871 #
straight-curve $-1 28.819854231700383 19.239079983073001 41.920113956402332 0 0 1 I I #
straight-curve $-1 28.819854231700383 -4.4504403429728256 30.328955851344325 0 0.61566146476048833 -0.78801076186113728 I I #
edge $-1 $865 -40.336233405560485 $539 -28.819854231700383 $740 $872 forward 7 unknown #
point $-1 28.819854231700383 19.239079983073001 4 #
point $-1 28.819854231700383 16.119993856134396 4.0000000000000036 #
edge $-1 $873 1 $873 0 $542 $-1 forward 7 unknown #
vertex $-1 $543 $874 #
ellipse-curve $-1 32.110248281374695 16.107291075364202 0.77550280521114134 0 0.78801076186113728 0.61566146476048833 1 0 0 1 I I #
point $-1 33.110248281374695 17.679536919603699 2.0038758507034489 #
edge $-1 $875 1 $875 0 $546 $-1 forward 7 unknown #
vertex $-1 $547 $876 #
ellipse-curve $-1 37.045839355886159 16.107291075364202 0.77550280521114134 0 0.78801076186113728 0.61566146476048833 1 0 0 1 I I #
point $-1 38.045839355886159 17.679536919603699 2.0038758507034489 #
plane-surface $-1 43.458357493820003 0 0 -1 0 0 0 0 1 forward_v I I I I #
coedge $-1 $555 $553 $557 $761 reversed $381 $-1 #
edge $-1 $568 -4 $763 4 $567 $877 forward 7 unknown #
vertex $-1 $761 $878 #
straight-curve $-1 -43.458357493820003 -19.239079983073001 0 0 0 -1 I I #
edge $-1 $759 -19.239079983073001 $763 19.239079983073001 $757 $879 forward 7 unknown #
straight-curve $-1 0 -19.239079983073001 -4 -1 0 0 I I #
vertex $-1 $560 $880 #
straight-curve $-1 0 19.239079983073001 -4 1 0 0 I I #
point $-1 43.458357493820003 19.239079983073001 -4 #
point $-1 43.458357493820003 -19.239079983073001 -4 #
straight-curve $-1 -43.458357493820003 0 4 0 -1 0 I I #
point $-1 -43.458357493820003 19.239079983073001 4 #
point $-1 -43.458357493820003 -19.239079983073001 4 #
straight-curve $-1 43.458357493820003 -19.239079983073001 0 0 0 -1 I I #
straight-curve $-1 43.458357493820003 19.239079983073001 0 0 0 -1 I I #
plane-surface $-1 0 -19.239079983073001 0 0 1 0 0 0 1 forward_v I I I I #
coedge $-1 $881 $580 $592 $784 reversed $400 $-1 #
coedge $-1 $580 $881 $595 $786 reversed $400 $-1 #
edge $-1 $882 -43.458357493820003 $589 -40.458357493820003 $585 $883 forward 7 unknown #
straight-curve $-1 -40.458357493820003 -8.8695399915365005 4 0 1 0 I I #
coedge $-1 $592 $583 $586 $780 forward $578 $-1 #
straight-curve $-1 -40.458357493820003 -8.8695399915365005 -4 0 -1 0 I I #
coedge $-1 $586 $585 $881 $884 forward $587 $-1 #
edge $-1 $588 40.458357493820003 $885 43.458357493820003 $586 $886 forward 7 unknown #
point $-1 -40.458357493820003 -19.239079983073001 -4 #
point $-1 -40.458357493820003 -19.239079983073001 4 #
straight-curve $-1 -43.458357493820003 -16.239079983073001 0 0 0 -1 I I #
edge $-1 $885 -19.239079983073001 $593 -16.239079983073001 $773 $887 forward 7 unknown #
point $-1 -43.458357493820003 -16.239079983073001 -4 #
edge $-1 $596 16.239079983073001 $882 19.239079983073001 $774 $888 forward 7 unknown #
point $-1 -43.458357493820003 -16.239079983073001 4 #
plane-surface $-1 0 19.239079983073001 0 0 -1 0 0 0 -1 forward_v I I I I #
coedge $-1 $791 $603 $795 $889 reversed $416 $-1 #
edge $-1 $792 -1.5 $796 1.5 $603 $890 forward 7 unknown #
coedge $-1 $604 $789 $802 $891 reversed $416 $-1 #
vertex $-1 $605 $892 #
vertex $-1 $605 $893 #
straight-curve $-1 46.580481582079521 0 -1 0 1 0 I I #
coedge $-1 $607 $800 $789 $889 forward $601 $-1 #
vertex $-1 $790 $894 #
straight-curve $-1 45.019419537949759 -19.239079983073001 -4 -1 0 0 I I #
straight-curve $-1 45.019419537949759 -19.239079983073001 -1 1 0 0 I I #
point $-1 43.458357493820003 -19.239079983073001 -4 #
coedge $-1 $795 $612 $615 $803 forward $601 $-1 #
straight-curve $-1 43.458357493820003 0 -4 0 1 0 I I #
coedge $-1 $615 $614 $791 $891 forward $616 $-1 #
edge $-1 $617 -1.5610620441297556 $895 1.5610620441297627 $615 $896 forward 7 unknown #
point $-1 43.458357493820003 19.239079983073001 -4 #
straight-curve $-1 45.019419537949759 19.239079983073001 -1 -1 0 0 I I #
edge $-1 $807 31.516287491097721 $810 34.800811554942428 $623 $897 forward 7 unknown #
vertex $-1 $637 $898 #
straight-curve $-1 28.562616898542679 -35.163721941601096 4 0 -1 0 I I #
edge $-1 $810 11.337904322516891 $634 23.111520829534683 $633 $899 forward 7 unknown #
vertex $-1 $809 $900 #
straight-curve $-1 28.562616898542679 -19.239079983073012 0.71547593615528626 0 0.80901698891910034 0.5877852598018023 I I #
point $-1 28.562616898542679 -14.718320532487297 4 #
point $-1 40.336233405560471 -19.239079983073001 0.71547593615529403 #
straight-curve $-1 0 -19.239079983073001 4 1 0 0 I I #
vertex $-1 $640 $901 #
point $-1 31.917340199946238 -16.050427555847595 1.0800802288099116 #
vertex $-1 $644 $902 #
point $-1 35.449425152051575 -16.050427555847595 1.0800802288099116 #
vertex $-1 $648 $903 #
point $-1 38.981510104156911 -16.050427555847595 1.0800802288099116 #
coedge $-1 $663 $662 $655 $822 forward $652 $-1 #
edge $-1 $823 37.920113956402332 $826 41.912362254995429 $821 $904 forward 7 unknown #
vertex $-1 $667 $905 #
straight-curve $-1 -28.941978319959901 32.020433226452354 4 0 1 0 I I #
edge $-1 $826 11.591894366514925 $664 23.108273540375027 $663 $906 forward 7 unknown #
vertex $-1 $825 $907 #
straight-curve $-1 -28.941978319959901 -4.4504403429728256 30.328955851344325 0 -0.61566146476048833 0.78801076186113728 I I #
point $-1 -28.941978319959901 16.119993856134396 4.0000000000000036 #
point $-1 -40.458357493820003 19.239079983073001 0.0077517014069066192 #
straight-curve $-1 0 19.239079983073001 4 -1 0 0 I I #
vertex $-1 $670 $908 #
point $-1 -36.167963444145684 16.107291075364202 0.77550280521114134 #
vertex $-1 $674 $909 #
point $-1 -31.23237236963422 16.107291075364202 0.77550280521114134 #
coedge $-1 $689 $688 $681 $836 forward $678 $-1 #
edge $-1 $837 37.920113956402332 $840 41.912362254995429 $835 $910 forward 7 unknown #
vertex $-1 $693 $911 #
straight-curve $-1 -5.8492410781197748 32.020433226452354 4 0 1 0 I I #
edge $-1 $840 0.045525745594861888 $690 11.561904919454964 $689 $912 forward 7 unknown #
vertex $-1 $839 $913 #
straight-curve $-1 -5.8492410781197748 -4.4504403429728256 30.328955851344325 0 -0.61566146476048833 0.78801076186113728 I I #
point $-1 -5.8492410781197748 16.119993856134396 4.0000000000000036 #
point $-1 -17.365620251979877 19.239079983073001 0.0077517014069066192 #
straight-curve $-1 0 19.239079983073001 4 -1 0 0 I I #
vertex $-1 $696 $914 #
point $-1 -13.075226202305561 16.107291075364202 0.77550280521114134 #
vertex $-1 $700 $915 #
point $-1 -8.1396351277940937 16.107291075364202 0.77550280521114134 #
coedge $-1 $715 $714 $707 $850 forward $704 $-1 #
edge $-1 $851 37.920113956402332 $854 41.912362254995429 $849 $916 forward 7 unknown #
vertex $-1 $719 $917 #
straight-curve $-1 17.243496163720351 32.020433226452354 4 0 1 0 I I #
edge $-1 $854 -11.500842875325201 $716 0.015536298534900794 $715 $918 forward 7 unknown #
vertex $-1 $853 $919 #
straight-curve $-1 17.243496163720351 -4.4504403429728256 30.328955851344325 0 -0.61566146476048833 0.78801076186113728 I I #
point $-1 17.243496163720351 16.119993856134396 4.0000000000000036 #
point $-1 5.7271169898602494 19.239079983073001 0.0077517014069066192 #
straight-curve $-1 0 19.239079983073001 4 -1 0 0 I I #
vertex $-1 $722 $920 #
point $-1 10.017511039534568 16.107291075364202 0.77550280521114134 #
vertex $-1 $726 $921 #
point $-1 14.953102114046033 16.107291075364202 0.77550280521114134 #
coedge $-1 $741 $740 $733 $864 forward $730 $-1 #
edge $-1 $865 37.920113956402332 $868 41.912362254995429 $863 $922 forward 7 unknown #
vertex $-1 $745 $923 #
straight-curve $-1 40.336233405560485 32.020433226452354 4 0 1 0 I I #
edge $-1 $868 -23.047211496245268 $742 -11.530832322385166 $741 $924 forward 7 unknown #
vertex $-1 $867 $925 #
straight-curve $-1 40.336233405560485 -4.4504403429728256 30.328955851344325 0 -0.61566146476048833 0.78801076186113728 I I #
point $-1 40.336233405560485 16.119993856134396 4.0000000000000036 #
point $-1 28.819854231700383 19.239079983073001 0.0077517014069066192 #
straight-curve $-1 0 19.239079983073001 4 -1 0 0 I I #
vertex $-1 $748 $926 #
point $-1 33.110248281374695 16.107291075364202 0.77550280521114134 #
vertex $-1 $752 $927 #
point $-1 38.045839355886159 16.107291075364202 0.77550280521114134 #
straight-curve $-1 -43.458357493820003 19.239079983073001 0 0 0 -1 I I #
point $-1 -43.458357493820003 -19.239079983073001 -4 #
straight-curve $-1 -43.458357493820003 0 -4 0 1 0 I I #
point $-1 -43.458357493820003 19.239079983073001 -4 #
coedge $-1 $774 $773 $779 $884 reversed $400 $-1 #
vertex $-1 $786 $928 #
straight-curve $-1 0 -19.239079983073001 4 1 0 0 I I #
edge $-1 $882 -4 $885 4 $881 $929 forward 7 unknown #
vertex $-1 $784 $930 #
straight-curve $-1 0 -19.239079983073001 -4 -1 0 0 I I #
straight-curve $-1 -43.458357493820003 0 -4 0 1 0 I I #
straight-curve $-1 -43.458357493820003 0 4 0 -1 0 I I #
edge $-1 $895 -19.239079983073001 $796 19.239079983073001 $789 $931 forward 7 unknown #
straight-curve $-1 46.580481582079521 -19.239079983073001 -2.5 0 0 -1 I I #
edge $-1 $793 -1.5 $895 1.5 $791 $932 forward 7 unknown #
point $-1 46.580481582079521 -19.239079983073001 -1 #
point $-1 46.580481582079521 19.239079983073001 -1 #
point $-1 46.580481582079521 -19.239079983073001 -4 #
vertex $-1 $889 $933 #
straight-curve $-1 45.019419537949759 19.239079983073001 -4 1 0 0 I I #
straight-curve $-1 28.562616898542679 -19.239079983073001 35.516287491097721 0 0 -1 I I #
point $-1 28.562616898542679 -19.239079983073001 4 #
straight-curve $-1 17.224712576025787 -19.239079983073001 0.7154759361552937 1 0 0 I I #
point $-1 28.562616898542679 -19.239079983073001 0.71547593615529403 #
point $-1 30.917340199946238 -15.462642296045791 0.27106323989081138 #
point $-1 34.449425152051575 -15.462642296045791 0.27106323989081138 #
point $-1 37.981510104156911 -15.462642296045791 0.27106323989081138 #
straight-curve $-1 -28.941978319959901 19.239079983073001 41.920113956402332 0 0 -1 I I #
point $-1 -28.941978319959901 19.239079983073001 4 #
straight-curve $-1 -17.350083953444976 19.239079983073001 0.0077517014069066192 -1 0 0 I I #
point $-1 -28.941978319959901 19.239079983073001 0.0077517014069066192 #
point $-1 -37.167963444145684 15.319280313503064 0.15984134045065301 #
point $-1 -32.23237236963422 15.319280313503064 0.15984134045065301 #
straight-curve $-1 -5.8492410781197748 19.239079983073001 41.920113956402332 0 0 -1 I I #
point $-1 -5.8492410781197748 19.239079983073001 4 #
straight-curve $-1 -5.8037153325249129 19.239079983073001 0.0077517014069066192 -1 0 0 I I #
point $-1 -5.8492410781197748 19.239079983073001 0.0077517014069066192 #
point $-1 -14.075226202305561 15.319280313503064 0.15984134045065301 #
point $-1 -9.1396351277940937 15.319280313503064 0.15984134045065301 #
straight-curve $-1 17.243496163720351 19.239079983073001 41.920113956402332 0 0 -1 I I #
point $-1 17.243496163720351 19.239079983073001 4 #
straight-curve $-1 5.7426532883951502 19.239079983073001 0.0077517014069066192 -1 0 0 I I #
point $-1 17.243496163720351 19.239079983073001 0.0077517014069066192 #
point $-1 9.0175110395345683 15.319280313503064 0.15984134045065301 #
point $-1 13.953102114046033 15.319280313503064 0.15984134045065301 #
straight-curve $-1 40.336233405560485 19.239079983073001 41.920113956402332 0 0 -1 I I #
point $-1 40.336233405560485 19.239079983073001 4 #
straight-curve $-1 17.289021909315217 19.239079983073001 0.0077517014069066192 -1 0 0 I I #
point $-1 40.336233405560485 19.239079983073001 0.0077517014069066192 #
point $-1 32.110248281374695 15.319280313503064 0.15984134045065301 #
point $-1 37.045839355886159 15.319280313503064 0.15984134045065301 #
point $-1 -43.458357493820003 -19.239079983073001 4 #
straight-curve $-1 -43.458357493820003 -19.239079983073001 0 0 0 -1 I I #
point $-1 -43.458357493820003 -19.239079983073001 -4 #
straight-curve $-1 46.580481582079521 0 -4 0 -1 0 I I #
straight-curve $-1 46.580481582079521 19.239079983073001 -2.5 0 0 -1 I I #
point $-1 46.580481582079521 19.239079983073001 -4 #
End-of-ACIS-data 