500 0 7 0           
7 Unknown 11 ACIS 5.0 NT 24 Thu Mar 25 23:23:06 1999 
-1 9.9999999999999995e-007 1e-010 
body $-1 $7 $-1 $8 #
body $-1 $9 $-1 $10 #
body $-1 $11 $-1 $12 #
body $-1 $13 $-1 $14 #
body $-1 $15 $-1 $16 #
body $-1 $17 $-1 $18 #
body $-1 $19 $-1 $20 #
lump $-1 $-1 $21 $0 #
transform $-1 1 0 0 0 1 0 0 0 1 74.778893398846407 32.135959575055871 13.635936800552516 1 rotate no_reflect no_shear #
lump $-1 $-1 $22 $1 #
transform $-1 1 0 0 0 1 0 0 0 1 74.778893398846407 32.135959575055871 13.635936800552516 1 rotate no_reflect no_shear #
lump $-1 $-1 $23 $2 #
transform $-1 1 0 0 0 1 0 0 0 1 74.778893398846407 32.135959575055871 13.635936800552516 1 rotate no_reflect no_shear #
lump $-1 $-1 $24 $3 #
transform $-1 1 0 0 0 1 0 0 0 1 74.778893398846407 32.135959575055871 13.635936800552516 1 rotate no_reflect no_shear #
lump $-1 $-1 $25 $4 #
transform $-1 1 0 0 0 1 0 0 0 1 74.778893398846407 32.135959575055871 13.635936800552516 1 rotate no_reflect no_shear #
lump $-1 $-1 $26 $5 #
transform $-1 1 0 0 0 1 0 0 0 1 74.778893398846407 32.135959575055871 13.635936800552516 1 rotate no_reflect no_shear #
lump $-1 $-1 $27 $6 #
transform $-1 1 0 0 0 1 0 0 0 1 74.778893398846407 32.135959575055871 13.635936800552516 1 rotate no_reflect no_shear #
shell $-1 $-1 $-1 $28 $-1 $7 #
shell $-1 $-1 $-1 $29 $-1 $9 #
shell $-1 $-1 $-1 $30 $-1 $11 #
shell $-1 $-1 $-1 $31 $-1 $13 #
shell $-1 $-1 $-1 $32 $-1 $15 #
shell $-1 $-1 $-1 $33 $-1 $17 #
shell $-1 $-1 $-1 $34 $-1 $19 #
face $-1 $35 $36 $21 $-1 $37 forward single #
face $-1 $38 $39 $22 $-1 $40 forward single #
face $-1 $41 $42 $23 $-1 $43 reversed single #
face $-1 $44 $45 $24 $-1 $46 forward single #
face $-1 $47 $48 $25 $-1 $49 reversed single #
face $-1 $50 $51 $26 $-1 $52 forward single #
face $-1 $53 $54 $27 $-1 $55 forward single #
face $-1 $56 $57 $21 $-1 $58 reversed single #
loop $-1 $-1 $59 $28 #
plane-surface $-1 0 0 13.635936800552516 0 0 1 1 0 0 forward_v I I I I #
face $-1 $60 $61 $22 $-1 $62 reversed single #
loop $-1 $-1 $63 $29 #
plane-surface $-1 0 -32.135959575055871 0 0 1 0 0 0 1 forward_v I I I I #
face $-1 $64 $65 $23 $-1 $66 reversed single #
loop $-1 $-1 $67 $30 #
plane-surface $-1 63.709492883195452 -11.093697811041388 214.81327780747102 0 -1 0 -0.66913061440640931 0 -0.74314481823134659 forward_v I I I I #
face $-1 $68 $69 $24 $-1 $70 forward single #
loop $-1 $71 $72 $31 #
cone-surface $-1 68.694496545576527 -16.39124575084265 8.0504348350140162 -0.66913061440640931 0 -0.74314481823134659 1.1147172273470198 0 -1.003695921609614 1 I I 0 1 1.5 forward I I I I #
face $-1 $73 $74 $25 $-1 $75 reversed single #
loop $-1 $-1 $76 $32 #
plane-surface $-1 -201.61109094318775 -21.688793690643916 81.43319202237727 0 1 0 -0.84804810408105047 0 0.52991925155115449 forward_v I I I I #
face $-1 $77 $78 $26 $-1 $79 forward single #
loop $-1 $80 $81 $33 #
cone-surface $-1 -69.790999628021254 -18.152413942725349 7.0276294904355021 0.84804810408105047 0 -0.52991925155115449 0.79487887732673168 0 1.2720721561215758 1 I I 0 1 1.5 forward I I I I #
face $-1 $82 $83 $27 $-1 $84 forward single #
loop $-1 $85 $86 $34 #
cone-surface $-1 -69.790999628021254 -12.8478443208475 7.0276294904355021 0.84804810408105047 0 -0.52991925155115449 0.79487887732673168 0 1.2720721561215758 1 I I 0 1 1.5 forward I I I I #
face $-1 $87 $88 $21 $-1 $89 reversed single #
loop $-1 $-1 $90 $35 #
plane-surface $-1 0 0 -13.635936800552516 0 0 1 1 0 0 forward_v I I I I #
coedge $-1 $91 $92 $93 $94 forward $36 $-1 #
face $-1 $95 $96 $22 $-1 $97 forward single #
loop $-1 $-1 $98 $38 #
plane-surface $-1 -74.778893398846407 0 0 1 0 0 0 0 -1 forward_v I I I I #
coedge $-1 $99 $100 $101 $102 forward $39 $-1 #
face $-1 $103 $104 $23 $-1 $105 reversed single #
loop $-1 $-1 $106 $41 #
plane-surface $-1 -36.364200886007509 -16.39124575084265 103.67018352261711 0.66913061440640931 0 0.74314481823134659 0.74314481823134659 0 -0.66913061440640931 forward_v I I I I #
coedge $-1 $107 $108 $109 $110 reversed $42 $-1 #
face $-1 $-1 $111 $24 $-1 $112 forward single #
loop $-1 $113 $114 $44 #
cone-surface $-1 67.683219376351985 -16.39124575084265 6.9272977793711998 -0.66913061440640931 0 -0.74314481823134659 0.55735861367350992 0 -0.50184796080480698 1 I I -0.70710678118654757 0.70710678118654757 0.75 forward I I I I #
loop $-1 $-1 $115 $31 #
coedge $-1 $72 $72 $116 $117 reversed $45 $-1 #
face $-1 $118 $119 $25 $-1 $120 reversed single #
loop $-1 $-1 $121 $47 #
plane-surface $-1 -74.778893398846392 -15.500129131786426 2.1796415788967636 -0.84804810408105047 0 0.52991925155115449 0.52991925155115449 0 0.84804810408105047 forward_v I I I I #
coedge $-1 $122 $123 $124 $125 reversed $48 $-1 #
face $-1 $-1 $126 $26 $-1 $127 forward single #
loop $-1 $128 $129 $50 #
cone-surface $-1 -67.746413545245929 -18.152413942725349 5.7500303524829999 0.84804810408105047 0 -0.52991925155115449 0.39743943866336584 0 0.63603607806078788 1 I I -0.70710678118654757 0.70710678118654757 0.75 forward I I I I #
loop $-1 $-1 $130 $33 #
coedge $-1 $81 $81 $131 $132 reversed $51 $-1 #
face $-1 $-1 $133 $27 $-1 $134 forward single #
loop $-1 $135 $136 $53 #
cone-surface $-1 -67.746413545245929 -12.8478443208475 5.7500303524829999 0.84804810408105047 0 -0.52991925155115449 0.39743943866336584 0 0.63603607806078788 1 I I -0.70710678118654757 0.70710678118654757 0.75 forward I I I I #
loop $-1 $-1 $137 $34 #
coedge $-1 $86 $86 $138 $139 reversed $54 $-1 #
face $-1 $140 $141 $21 $-1 $142 reversed single #
loop $-1 $-1 $143 $56 #
plane-surface $-1 0 -32.135959575055871 0 0 1 0 0 0 1 forward_v I I I I #
coedge $-1 $144 $145 $146 $147 forward $57 $-1 #
coedge $-1 $148 $59 $149 $150 forward $36 $-1 #
coedge $-1 $59 $148 $151 $152 forward $36 $-1 #
coedge $-1 $153 $154 $59 $94 reversed $155 $-1 #
edge $-1 $156 -32.135959575055871 $157 32.135959575055871 $93 $158 forward 7 unknown #
face $-1 $159 $160 $22 $-1 $161 reversed single #
loop $-1 $-1 $162 $60 #
plane-surface $-1 0 -37.35954251726185 12.055785246045794 0 0 1 1 0 0 forward_v I I I I #
coedge $-1 $163 $164 $100 $165 forward $61 $-1 #
coedge $-1 $166 $63 $167 $168 reversed $39 $-1 #
coedge $-1 $63 $166 $98 $165 reversed $39 $-1 #
coedge $-1 $169 $162 $63 $102 reversed $96 $-1 #
edge $-1 $170 -74.778893398846407 $171 74.778893398846407 $101 $172 forward 7 unknown #
face $-1 $173 $174 $23 $-1 $175 reversed single #
loop $-1 $-1 $176 $64 #
plane-surface $-1 63.709492883195452 -21.688793690643912 214.81327780747102 0 1 0 0.66913061440640931 0 0.74314481823134659 forward_v I I I I #
coedge $-1 $177 $178 $179 $180 reversed $65 $-1 #
coedge $-1 $108 $67 $181 $182 reversed $42 $-1 #
coedge $-1 $67 $107 $177 $183 reversed $42 $-1 #
coedge $-1 $179 $184 $67 $110 forward $185 $-1 #
edge $-1 $186 -42.924146957248681 $187 -31.774211667548371 $109 $188 forward 7 unknown #
loop $-1 $-1 $116 $68 #
plane-surface $-1 -36.364200886007509 -16.39124575084265 103.67018352261711 0.66913061440640931 0 0.74314481823134659 0.74314481823134659 0 -0.66913061440640931 forward_v I I I I #
loop $-1 $-1 $189 $44 #
coedge $-1 $114 $114 $115 $190 reversed $69 $-1 #
coedge $-1 $115 $115 $114 $190 forward $71 $-1 #
coedge $-1 $116 $116 $72 $117 forward $111 $-1 #
edge $-1 $191 0 $191 6.2831853071796004 $116 $192 forward 7 unknown #
face $-1 $193 $194 $25 $-1 $195 forward single #
loop $-1 $-1 $196 $73 #
plane-surface $-1 -201.61109094318775 -9.3114645729289371 81.43319202237727 0 -1 0 0.84804810408105047 0 -0.52991925155115449 forward_v I I I I #
coedge $-1 $197 $198 $199 $200 reversed $74 $-1 #
coedge $-1 $123 $76 $201 $202 reversed $48 $-1 #
coedge $-1 $76 $122 $197 $203 reversed $48 $-1 #
coedge $-1 $199 $204 $76 $125 forward $194 $-1 #
edge $-1 $205 26.026652072747467 $206 33.185339604968732 $124 $207 forward 7 unknown #
loop $-1 $-1 $131 $77 #
plane-surface $-1 -74.778893398846392 -15.500129131786426 2.1796415788967636 -0.84804810408105047 0 0.52991925155115449 0.52991925155115449 0 0.84804810408105047 forward_v I I I I #
loop $-1 $-1 $208 $50 #
coedge $-1 $129 $129 $130 $209 reversed $78 $-1 #
coedge $-1 $130 $130 $129 $209 forward $80 $-1 #
coedge $-1 $131 $131 $81 $132 forward $126 $-1 #
edge $-1 $210 0 $210 6.2831853071796004 $131 $211 forward 7 unknown #
loop $-1 $-1 $138 $82 #
plane-surface $-1 -74.778893398846392 -15.500129131786426 2.1796415788967636 -0.84804810408105047 0 0.52991925155115449 0.52991925155115449 0 0.84804810408105047 forward_v I I I I #
loop $-1 $-1 $212 $53 #
coedge $-1 $136 $136 $137 $213 reversed $83 $-1 #
coedge $-1 $137 $137 $136 $213 forward $85 $-1 #
coedge $-1 $138 $138 $86 $139 forward $133 $-1 #
edge $-1 $214 0 $214 6.2831853071796004 $138 $215 forward 7 unknown #
face $-1 $216 $217 $21 $-1 $218 reversed single #
loop $-1 $-1 $219 $87 #
plane-surface $-1 -74.778893398846407 0 0 1 0 0 0 0 -1 forward_v I I I I #
coedge $-1 $220 $151 $221 $222 forward $88 $-1 #
coedge $-1 $223 $90 $220 $224 forward $57 $-1 #
coedge $-1 $90 $223 $225 $226 forward $57 $-1 #
coedge $-1 $154 $153 $90 $147 reversed $155 $-1 #
edge $-1 $227 -32.135959575055871 $228 32.135959575055871 $146 $229 forward 7 unknown #
coedge $-1 $92 $91 $230 $231 forward $36 $-1 #
coedge $-1 $232 $233 $91 $150 reversed $217 $-1 #
edge $-1 $157 -74.778893398846407 $234 74.778893398846407 $149 $235 forward 7 unknown #
coedge $-1 $143 $236 $92 $152 reversed $88 $-1 #
edge $-1 $237 -74.778893398846407 $156 74.778893398846407 $151 $238 forward 7 unknown #
coedge $-1 $146 $93 $236 $239 forward $155 $-1 #
coedge $-1 $93 $146 $232 $240 reversed $155 $-1 #
loop $-1 $-1 $153 $216 #
vertex $-1 $94 $241 #
vertex $-1 $94 $242 #
straight-curve $-1 74.778893398846407 0 13.635936800552516 0 1 0 I I #
face $-1 $243 $244 $22 $-1 $245 reversed single #
loop $-1 $-1 $246 $95 #
plane-surface $-1 0 -37.35954251726185 5.6616640588608398 0 0 1 1 0 0 forward_v I I I I #
coedge $-1 $101 $247 $248 $249 forward $96 $-1 #
coedge $-1 $250 $98 $251 $252 reversed $61 $-1 #
coedge $-1 $98 $250 $169 $253 reversed $61 $-1 #
edge $-1 $170 -12.055785246045794 $254 -5.6616640588608398 $98 $255 forward 7 unknown #
coedge $-1 $100 $99 $256 $257 forward $39 $-1 #
coedge $-1 $248 $258 $99 $168 forward $259 $-1 #
edge $-1 $260 5.6616640588608398 $171 12.055785246045794 $167 $261 forward 7 unknown #
coedge $-1 $247 $101 $164 $253 forward $96 $-1 #
vertex $-1 $165 $262 #
vertex $-1 $249 $263 #
straight-curve $-1 0 -32.135959575055871 12.055785246045794 1 0 0 I I #
face $-1 $-1 $185 $23 $-1 $264 forward single #
loop $-1 $-1 $265 $103 #
plane-surface $-1 74.778893398846407 0 0 -1 0 0 0 0 1 forward_v I I I I #
coedge $-1 $266 $267 $268 $269 reversed $104 $-1 #
coedge $-1 $270 $106 $108 $183 forward $65 $-1 #
coedge $-1 $106 $270 $266 $271 forward $65 $-1 #
coedge $-1 $268 $109 $106 $180 forward $185 $-1 #
edge $-1 $187 2.8980749356200626 $272 13.493170815222587 $179 $273 forward 7 unknown #
coedge $-1 $274 $275 $107 $182 forward $174 $-1 #
edge $-1 $276 -103.81014915032137 $186 -93.770702103182998 $181 $277 forward 7 unknown #
edge $-1 $187 134.5540687925849 $276 149.55778679769281 $108 $278 forward 7 unknown #
coedge $-1 $109 $268 $274 $279 forward $185 $-1 #
loop $-1 $-1 $268 $173 #
vertex $-1 $182 $280 #
vertex $-1 $110 $281 #
straight-curve $-1 31.854746441597726 -11.093697811041388 13.635936800552514 -1 0 0 I I #
coedge $-1 $189 $189 $-1 $282 reversed $113 $-1 #
edge $-1 $283 0 $283 6.2831853071796004 $114 $284 forward 7 unknown #
vertex $-1 $117 $285 #
ellipse-curve $-1 69.203925753996259 -16.39124575084265 8.6162132769833182 0.66913061440640931 0 0.74314481823134659 1.1147172273470198 0 -1.003695921609614 1 I I #
face $-1 $-1 $286 $25 $-1 $287 reversed single #
loop $-1 $-1 $124 $118 #
plane-surface $-1 0 0 13.635936800552516 0 0 1 1 0 0 forward_v I I I I #
coedge $-1 $288 $289 $290 $291 reversed $119 $-1 #
coedge $-1 $292 $121 $123 $203 forward $74 $-1 #
coedge $-1 $121 $292 $288 $293 forward $74 $-1 #
coedge $-1 $290 $124 $121 $200 forward $194 $-1 #
edge $-1 $206 -13.938729124750703 $294 -1.5614000070357239 $199 $295 forward 7 unknown #
coedge $-1 $296 $297 $122 $202 forward $286 $-1 #
edge $-1 $298 -38.536954432291893 $205 -27.080659210636121 $201 $299 forward 7 unknown #
edge $-1 $206 -13.509015781681224 $298 2.6737665129848107e-014 $123 $300 forward 7 unknown #
coedge $-1 $124 $290 $296 $301 forward $194 $-1 #
vertex $-1 $125 $302 #
vertex $-1 $125 $303 #
straight-curve $-1 -100.80554547159387 -21.688793690643916 13.635936800552514 1 0 0 I I #
coedge $-1 $208 $208 $-1 $304 reversed $128 $-1 #
edge $-1 $305 0 $305 6.2831853071796004 $129 $306 forward 7 unknown #
vertex $-1 $132 $307 #
ellipse-curve $-1 -71.199549632735767 -18.152413942725349 7.9077891897246309 -0.84804810408105047 0 0.52991925155115449 0.79487887732673168 0 1.2720721561215758 1 I I #
coedge $-1 $212 $212 $-1 $308 reversed $135 $-1 #
edge $-1 $309 0 $309 6.2831853071796004 $136 $310 forward 7 unknown #
vertex $-1 $139 $311 #
ellipse-curve $-1 -71.199549632735767 -12.8478443208475 7.9077891897246309 -0.84804810408105047 0 0.52991925155115449 0.79487887732673168 0 1.2720721561215758 1 I I #
face $-1 $-1 $155 $21 $-1 $312 reversed single #
loop $-1 $-1 $232 $140 #
plane-surface $-1 0 32.135959575055871 0 0 -1 0 0 0 -1 forward_v I I I I #
coedge $-1 $313 $230 $233 $314 forward $141 $-1 #
coedge $-1 $236 $143 $144 $224 reversed $88 $-1 #
coedge $-1 $230 $313 $143 $222 reversed $141 $-1 #
edge $-1 $237 -13.635936800552516 $315 13.635936800552516 $221 $316 forward 7 unknown #
coedge $-1 $145 $144 $313 $317 forward $57 $-1 #
edge $-1 $228 -74.778893398846407 $315 74.778893398846407 $220 $318 forward 7 unknown #
coedge $-1 $233 $232 $145 $226 reversed $217 $-1 #
edge $-1 $319 -74.778893398846407 $227 74.778893398846407 $225 $320 forward 7 unknown #
vertex $-1 $147 $321 #
vertex $-1 $239 $322 #
straight-curve $-1 74.778893398846407 0 -13.635936800552516 0 -1 0 I I #
coedge $-1 $219 $221 $148 $231 reversed $141 $-1 #
edge $-1 $234 -32.135959575055871 $237 32.135959575055871 $230 $323 forward 7 unknown #
coedge $-1 $225 $149 $154 $240 forward $217 $-1 #
coedge $-1 $149 $225 $219 $314 reversed $217 $-1 #
vertex $-1 $150 $324 #
straight-curve $-1 0 32.135959575055871 13.635936800552516 -1 0 0 I I #
coedge $-1 $151 $220 $153 $239 reversed $88 $-1 #
vertex $-1 $231 $325 #
straight-curve $-1 0 -32.135959575055871 13.635936800552516 1 0 0 I I #
edge $-1 $156 -13.635936800552516 $228 13.635936800552516 $153 $326 forward 7 unknown #
edge $-1 $157 -13.635936800552516 $227 13.635936800552516 $154 $327 forward 7 unknown #
point $-1 74.778893398846407 -32.135959575055871 13.635936800552516 #
point $-1 74.778893398846407 32.135959575055871 13.635936800552516 #
face $-1 $-1 $259 $22 $-1 $328 reversed single #
loop $-1 $-1 $329 $159 #
plane-surface $-1 0 -42.58312545946783 8.8587246524533168 0 1 0 0 0 1 forward_v I I I I #
coedge $-1 $330 $256 $258 $331 forward $160 $-1 #
coedge $-1 $162 $169 $332 $333 forward $96 $-1 #
coedge $-1 $334 $167 $162 $249 reversed $259 $-1 #
edge $-1 $335 -5.2235829422059794 $171 5.2235829422059794 $248 $336 forward 7 unknown #
coedge $-1 $164 $163 $329 $337 reversed $61 $-1 #
coedge $-1 $256 $330 $163 $252 forward $160 $-1 #
edge $-1 $338 -5.2235829422059794 $254 5.2235829422059794 $163 $339 forward 7 unknown #
edge $-1 $170 -5.2235829422059794 $340 5.2235829422059794 $164 $341 forward 7 unknown #
vertex $-1 $165 $342 #
straight-curve $-1 -74.778893398846407 -32.135959575055871 0 0 0 -1 I I #
coedge $-1 $246 $251 $166 $257 reversed $160 $-1 #
edge $-1 $260 -74.778893398846407 $254 74.778893398846407 $256 $343 forward 7 unknown #
coedge $-1 $167 $334 $246 $331 reversed $259 $-1 #
loop $-1 $-1 $167 $243 #
vertex $-1 $168 $344 #
straight-curve $-1 74.778893398846407 -32.135959575055871 0 0 0 1 I I #
point $-1 -74.778893398846407 -32.135959575055871 12.055785246045794 #
point $-1 74.778893398846407 -32.135959575055871 12.055785246045794 #
plane-surface $-1 0 0 13.635936800552516 0 0 1 1 0 0 forward_v I I I I #
coedge $-1 $275 $274 $267 $345 forward $174 $-1 #
coedge $-1 $267 $176 $178 $271 reversed $104 $-1 #
coedge $-1 $176 $266 $265 $345 reversed $104 $-1 #
coedge $-1 $184 $179 $176 $269 forward $185 $-1 #
edge $-1 $272 31.774211667548371 $346 42.924146957248681 $268 $347 forward 7 unknown #
coedge $-1 $178 $177 $275 $348 reversed $65 $-1 #
edge $-1 $349 -149.55778679769281 $272 -134.5540687925849 $266 $350 forward 7 unknown #
vertex $-1 $180 $351 #
straight-curve $-1 63.628958109146097 -8.1956228754213249 13.635936800552507 0 -1 0 I I #
coedge $-1 $265 $181 $184 $279 reversed $174 $-1 #
coedge $-1 $181 $265 $270 $348 forward $174 $-1 #
vertex $-1 $182 $352 #
straight-curve $-1 74.778893398846407 -11.093697811041388 107.40663890373551 0 0 1 I I #
straight-curve $-1 -36.364200886007509 -11.093697811041388 103.67018352261711 0.74314481823134659 0 -0.66913061440640931 I I #
edge $-1 $346 -21.688793690643912 $186 -11.093697811041388 $274 $353 forward 7 unknown #
point $-1 74.778893398846407 -11.093697811041388 13.635936800552516 #
point $-1 63.628958109146097 -11.093697811041388 13.635936800552514 #
edge $-1 $354 1 $354 0 $189 $-1 forward 7 unknown #
vertex $-1 $190 $355 #
ellipse-curve $-1 68.185067337156795 -16.39124575084265 7.4846563930447099 0.66913061440640931 0 0.74314481823134659 1.1147172273470198 0 -1.003695921609614 1 I I #
point $-1 70.318642981343288 -16.39124575084265 7.6125173553737095 #
loop $-1 $-1 $201 $193 #
plane-surface $-1 -74.778893398846407 0 0 1 0 0 0 0 -1 forward_v I I I I #
coedge $-1 $289 $196 $198 $293 reversed $119 $-1 #
coedge $-1 $196 $288 $356 $357 reversed $119 $-1 #
coedge $-1 $204 $199 $196 $291 forward $194 $-1 #
edge $-1 $294 -33.185339604968732 $358 -26.026652072747467 $290 $359 forward 7 unknown #
coedge $-1 $198 $197 $297 $360 reversed $74 $-1 #
edge $-1 $361 -2.6737665129848107e-014 $294 13.509015781681224 $288 $362 forward 7 unknown #
vertex $-1 $200 $363 #
straight-curve $-1 -67.620205866625142 -7.7500645658932132 13.635936800552516 0 1 0 I I #
coedge $-1 $356 $201 $204 $301 reversed $286 $-1 #
coedge $-1 $201 $356 $292 $360 forward $286 $-1 #
vertex $-1 $202 $364 #
straight-curve $-1 -74.778893398846407 -21.688793690643916 40.716596011188635 0 0 1 I I #
straight-curve $-1 -74.778893398846392 -21.688793690643916 2.1796415788967636 -0.52991925155115449 0 -0.84804810408105047 I I #
edge $-1 $358 9.3114645729289371 $205 21.688793690643916 $296 $365 forward 7 unknown #
point $-1 -74.778893398846407 -21.688793690643916 13.635936800552516 #
point $-1 -67.620205866625142 -21.688793690643916 13.635936800552516 #
edge $-1 $366 1 $366 0 $208 $-1 forward 7 unknown #
vertex $-1 $209 $367 #
ellipse-curve $-1 -68.382449623306712 -18.152413942725349 6.1474697911463654 -0.84804810408105047 0 0.52991925155115449 0.79487887732673168 0 1.2720721561215758 1 I I #
point $-1 -70.404670755409043 -18.152413942725349 9.1798613458462146 #
edge $-1 $368 1 $368 0 $212 $-1 forward 7 unknown #
vertex $-1 $213 $369 #
ellipse-curve $-1 -68.382449623306712 -12.8478443208475 6.1474697911463654 -0.84804810408105047 0 0.52991925155115449 0.79487887732673168 0 1.2720721561215758 1 I I #
point $-1 -70.404670755409043 -12.8478443208475 9.1798613458462146 #
plane-surface $-1 74.778893398846407 0 0 -1 0 0 0 0 1 forward_v I I I I #
coedge $-1 $221 $219 $223 $317 reversed $141 $-1 #
edge $-1 $234 -13.635936800552516 $319 13.635936800552516 $233 $370 forward 7 unknown #
vertex $-1 $317 $371 #
straight-curve $-1 -74.778893398846407 -32.135959575055871 0 0 0 -1 I I #
edge $-1 $315 -32.135959575055871 $319 32.135959575055871 $313 $372 forward 7 unknown #
straight-curve $-1 0 -32.135959575055871 -13.635936800552516 -1 0 0 I I #
vertex $-1 $226 $373 #
straight-curve $-1 0 32.135959575055871 -13.635936800552516 1 0 0 I I #
point $-1 74.778893398846407 32.135959575055871 -13.635936800552516 #
point $-1 74.778893398846407 -32.135959575055871 -13.635936800552516 #
straight-curve $-1 -74.778893398846407 0 13.635936800552516 0 -1 0 I I #
point $-1 -74.778893398846407 32.135959575055871 13.635936800552516 #
point $-1 -74.778893398846407 -32.135959575055871 13.635936800552516 #
straight-curve $-1 74.778893398846407 -32.135959575055871 0 0 0 -1 I I #
straight-curve $-1 74.778893398846407 32.135959575055871 0 0 0 -1 I I #
plane-surface $-1 74.778893398846407 0 0 -1 0 0 0 0 1 forward_v I I I I #
coedge $-1 $374 $332 $250 $337 forward $244 $-1 #
coedge $-1 $251 $246 $374 $375 forward $160 $-1 #
edge $-1 $260 -5.2235829422059794 $376 5.2235829422059794 $258 $377 forward 7 unknown #
coedge $-1 $329 $378 $247 $333 reversed $244 $-1 #
edge $-1 $340 -74.778893398846407 $335 74.778893398846407 $332 $379 forward 7 unknown #
coedge $-1 $258 $248 $378 $380 forward $259 $-1 #
vertex $-1 $249 $381 #
straight-curve $-1 74.778893398846407 -37.35954251726185 12.055785246045794 0 1 0 I I #
edge $-1 $340 -3.197060593592477 $338 3.197060593592477 $250 $382 forward 7 unknown #
vertex $-1 $252 $383 #
straight-curve $-1 -74.778893398846407 -37.35954251726185 5.6616640588608398 0 1 0 I I #
vertex $-1 $253 $384 #
straight-curve $-1 -74.778893398846407 -37.35954251726185 12.055785246045794 0 -1 0 I I #
point $-1 -74.778893398846407 -32.135959575055871 5.6616640588608398 #
straight-curve $-1 0 -32.135959575055871 5.6616640588608398 -1 0 0 I I #
point $-1 74.778893398846407 -32.135959575055871 5.6616640588608398 #
edge $-1 $346 93.770702103182998 $349 103.81014915032137 $265 $385 forward 7 unknown #
vertex $-1 $279 $386 #
straight-curve $-1 31.854746441597726 -21.688793690643912 13.635936800552514 1 0 0 I I #
edge $-1 $349 -13.493170815222587 $276 -2.8980749356200626 $275 $387 forward 7 unknown #
vertex $-1 $348 $388 #
straight-curve $-1 -36.364200886007509 -21.688793690643912 103.67018352261711 -0.74314481823134659 0 0.66913061440640931 I I #
point $-1 63.628958109146097 -21.688793690643912 13.635936800552514 #
point $-1 74.778893398846407 -11.093697811041388 3.5964897534141471 #
straight-curve $-1 74.778893398846407 0 13.635936800552516 0 1 0 I I #
vertex $-1 $282 $389 #
point $-1 69.29978456450381 -16.39124575084265 6.4809604714350959 #
coedge $-1 $297 $296 $289 $357 forward $286 $-1 #
edge $-1 $358 27.080659210636121 $361 38.536954432291893 $356 $390 forward 7 unknown #
vertex $-1 $301 $391 #
straight-curve $-1 -100.80554547159387 -9.3114645729289371 13.635936800552514 -1 0 0 I I #
edge $-1 $361 1.5614000070357239 $298 13.938729124750703 $297 $392 forward 7 unknown #
vertex $-1 $360 $393 #
straight-curve $-1 -74.778893398846392 -9.3114645729289371 2.1796415788967636 0.52991925155115449 0 0.84804810408105047 I I #
point $-1 -67.620205866625142 -9.3114645729289371 13.635936800552516 #
point $-1 -74.778893398846407 -21.688793690643916 2.1796415788967409 #
straight-curve $-1 -74.778893398846407 0 13.635936800552516 0 -1 0 I I #
vertex $-1 $304 $394 #
point $-1 -67.587570745979988 -18.152413942725349 7.4195419472679411 #
vertex $-1 $308 $395 #
point $-1 -67.587570745979988 -12.8478443208475 7.4195419472679411 #
straight-curve $-1 -74.778893398846407 32.135959575055871 0 0 0 -1 I I #
point $-1 -74.778893398846407 -32.135959575055871 -13.635936800552516 #
straight-curve $-1 -74.778893398846407 0 -13.635936800552516 0 1 0 I I #
point $-1 -74.778893398846407 32.135959575055871 -13.635936800552516 #
coedge $-1 $378 $329 $330 $375 reversed $244 $-1 #
edge $-1 $376 -74.778893398846407 $338 74.778893398846407 $374 $396 forward 7 unknown #
vertex $-1 $380 $397 #
straight-curve $-1 74.778893398846407 -37.35954251726185 5.6616640588608398 0 -1 0 I I #
coedge $-1 $332 $374 $334 $380 reversed $244 $-1 #
straight-curve $-1 0 -42.58312545946783 12.055785246045794 1 0 0 I I #
edge $-1 $335 -3.197060593592477 $376 3.197060593592477 $334 $398 forward 7 unknown #
point $-1 74.778893398846407 -42.58312545946783 12.055785246045794 #
straight-curve $-1 -74.778893398846407 -42.58312545946783 8.8587246524533168 0 0 -1 I I #
point $-1 -74.778893398846407 -42.58312545946783 5.6616640588608398 #
point $-1 -74.778893398846407 -42.58312545946783 12.055785246045794 #
straight-curve $-1 74.778893398846407 -21.688793690643912 107.40663890373551 0 0 -1 I I #
point $-1 74.778893398846407 -21.688793690643912 13.635936800552516 #
straight-curve $-1 74.778893398846407 -8.1956228754213249 3.59648975341414 0 1 0 I I #
point $-1 74.778893398846407 -21.688793690643912 3.5964897534141471 #
point $-1 67.181371415547176 -16.39124575084265 6.3699391656976898 #
straight-curve $-1 -74.778893398846407 -9.3114645729289371 40.716596011188635 0 0 -1 I I #
point $-1 -74.778893398846407 -9.3114645729289371 13.635936800552516 #
straight-curve $-1 -74.778893398846407 -7.7500645658932132 2.1796415788967476 0 -1 0 I I #
point $-1 -74.778893398846407 -9.3114645729289371 2.1796415788967409 #
point $-1 -67.110377467185145 -18.152413942725349 5.3525909138196344 #
point $-1 -67.110377467185145 -12.8478443208475 5.3525909138196344 #
straight-curve $-1 0 -42.58312545946783 5.6616640588608398 -1 0 0 I I #
point $-1 74.778893398846407 -42.58312545946783 5.6616640588608398 #
straight-curve $-1 74.778893398846407 -42.58312545946783 8.8587246524533168 0 0 -1 I I #
End-of-ACIS-data 