500 0 6 0           
7 Unknown 11 ACIS 5.0 NT 24 Fri Mar 26 15:30:27 1999 
-1 9.9999999999999995e-007 1e-010 
body $-1 $6 $-1 $7 #
body $-1 $8 $-1 $9 #
body $-1 $10 $-1 $11 #
body $-1 $12 $-1 $13 #
body $-1 $14 $-1 $15 #
body $-1 $16 $-1 $17 #
lump $-1 $-1 $18 $0 #
transform $-1 1 0 0 0 1 0 0 0 1 58.65291299172948 29.905163328050357 13.481737179651084 1 rotate no_reflect no_shear #
lump $-1 $-1 $19 $1 #
transform $-1 1 0 0 0 1 0 0 0 1 58.65291299172948 29.905163328050357 13.481737179651084 1 rotate no_reflect no_shear #
lump $-1 $-1 $20 $2 #
transform $-1 1 0 0 0 1 0 0 0 1 58.65291299172948 29.905163328050357 13.481737179651084 1 rotate no_reflect no_shear #
lump $-1 $-1 $21 $3 #
transform $-1 1 0 0 0 1 0 0 0 1 58.65291299172948 29.905163328050357 13.481737179651084 1 rotate no_reflect no_shear #
lump $-1 $-1 $22 $4 #
transform $-1 1 0 0 0 1 0 0 0 1 58.65291299172948 29.905163328050357 13.481737179651084 1 rotate no_reflect no_shear #
lump $-1 $-1 $23 $5 #
transform $-1 1 0 0 0 1 0 0 0 1 58.65291299172948 29.905163328050357 13.481737179651084 1 rotate no_reflect no_shear #
shell $-1 $-1 $-1 $24 $-1 $6 #
shell $-1 $-1 $-1 $25 $-1 $8 #
shell $-1 $-1 $-1 $26 $-1 $10 #
shell $-1 $-1 $-1 $27 $-1 $12 #
shell $-1 $-1 $-1 $28 $-1 $14 #
shell $-1 $-1 $-1 $29 $-1 $16 #
face $-1 $30 $31 $18 $-1 $32 forward single #
face $-1 $33 $34 $19 $-1 $35 forward single #
face $-1 $36 $37 $20 $-1 $38 reversed single #
face $-1 $39 $40 $21 $-1 $41 forward single #
face $-1 $42 $43 $22 $-1 $44 forward single #
face $-1 $45 $46 $23 $-1 $47 forward single #
face $-1 $48 $49 $18 $-1 $50 reversed single #
loop $-1 $-1 $51 $24 #
plane-surface $-1 0 0 13.481737179651084 0 0 1 1 0 0 forward_v I I I I #
face $-1 $52 $53 $19 $-1 $54 reversed single #
loop $-1 $-1 $55 $25 #
plane-surface $-1 -53.371768416940704 0 10.71580455543763 0 0 1 1 0 0 forward_v I I I I #
face $-1 $56 $57 $20 $-1 $58 reversed single #
loop $-1 $-1 $59 $26 #
plane-surface $-1 42.483041082505075 -93.794496030400097 108.43147266704494 1 0 0 0 0.54463904215088732 -0.83867056331134215 forward_v I I I I #
face $-1 $60 $61 $21 $-1 $62 forward single #
loop $-1 $63 $64 $27 #
cone-surface $-1 45.28885816295255 -26.261400172269102 10.223242624578727 0 0.54463904215088732 -0.83867056331134215 1 0 0 1 I I 0 1 1 forward I I I I #
face $-1 $65 $66 $22 $-1 $67 forward single #
loop $-1 $68 $69 $28 #
cone-surface $-1 49.497583783623739 -26.261400172269102 10.223242624578727 0 0.54463904215088732 -0.83867056331134215 1 0 0 1 I I 0 1 1 forward I I I I #
face $-1 $70 $71 $23 $-1 $72 forward single #
loop $-1 $73 $74 $29 #
cone-surface $-1 53.706309404294942 -26.261400172269102 10.223242624578727 0 0.54463904215088732 -0.83867056331134215 1 0 0 1 I I 0 1 1 forward I I I I #
face $-1 $75 $76 $18 $-1 $77 reversed single #
loop $-1 $-1 $78 $30 #
plane-surface $-1 0 0 -13.481737179651084 0 0 1 1 0 0 forward_v I I I I #
coedge $-1 $79 $80 $81 $82 forward $31 $-1 #
face $-1 $83 $84 $19 $-1 $85 reversed single #
loop $-1 $-1 $86 $33 #
plane-surface $-1 -53.371768416940704 0 5.9224168638463635 0 0 1 1 0 0 forward_v I I I I #
coedge $-1 $87 $88 $89 $90 forward $34 $-1 #
face $-1 $91 $92 $20 $-1 $93 reversed single #
loop $-1 $-1 $94 $36 #
plane-surface $-1 49.497583783623739 -29.905163328050349 10.050529509795155 0 -0.54463904215088732 0.83867056331134215 1 0 0 forward_v I I I I #
coedge $-1 $95 $96 $97 $98 reversed $37 $-1 #
face $-1 $-1 $99 $21 $-1 $100 forward single #
loop $-1 $101 $102 $39 #
cone-surface $-1 45.28885816295255 -24.98711568339381 8.2610166227786728 0 0.54463904215088732 -0.83867056331134215 0.5 0 0 1 I I -0.70710678118654746 0.70710678118654746 0.5 forward I I I I #
loop $-1 $-1 $103 $27 #
coedge $-1 $64 $64 $104 $105 reversed $40 $-1 #
face $-1 $-1 $106 $22 $-1 $107 forward single #
loop $-1 $108 $109 $42 #
cone-surface $-1 49.497583783623739 -24.98711568339381 8.2610166227786728 0 0.54463904215088732 -0.83867056331134215 0.5 0 0 1 I I -0.70710678118654746 0.70710678118654746 0.5 forward I I I I #
loop $-1 $-1 $110 $28 #
coedge $-1 $69 $69 $111 $112 reversed $43 $-1 #
face $-1 $-1 $113 $23 $-1 $114 forward single #
loop $-1 $115 $116 $45 #
cone-surface $-1 53.706309404294942 -24.98711568339381 8.2610166227786728 0 0.54463904215088732 -0.83867056331134215 0.5 0 0 1 I I -0.70710678118654746 0.70710678118654746 0.5 forward I I I I #
loop $-1 $-1 $117 $29 #
coedge $-1 $74 $74 $118 $119 reversed $46 $-1 #
face $-1 $120 $121 $18 $-1 $122 reversed single #
loop $-1 $-1 $123 $48 #
plane-surface $-1 0 -29.905163328050357 0 0 1 0 0 0 1 forward_v I I I I #
coedge $-1 $124 $125 $126 $127 forward $49 $-1 #
coedge $-1 $128 $51 $129 $130 forward $31 $-1 #
coedge $-1 $51 $128 $131 $132 forward $31 $-1 #
coedge $-1 $133 $134 $51 $82 reversed $135 $-1 #
edge $-1 $136 -29.905163328050357 $137 29.905163328050357 $81 $138 forward 7 unknown #
face $-1 $139 $140 $19 $-1 $141 reversed single #
loop $-1 $-1 $142 $52 #
plane-surface $-1 -48.090623842151928 0 8.3191107096419969 -1 0 0 0 0 1 forward_v I I I I #
coedge $-1 $143 $144 $145 $146 forward $53 $-1 #
coedge $-1 $147 $55 $148 $149 reversed $34 $-1 #
coedge $-1 $55 $147 $150 $151 reversed $34 $-1 #
coedge $-1 $142 $152 $55 $90 reversed $84 $-1 #
edge $-1 $153 -29.905163328050357 $154 29.905163328050357 $89 $155 forward 7 unknown #
face $-1 $156 $157 $20 $-1 $158 forward single #
loop $-1 $-1 $159 $56 #
plane-surface $-1 56.512126484742403 -93.794496030400097 108.43147266704494 -1 0 0 0 -0.54463904215088732 0.83867056331134215 forward_v I I I I #
coedge $-1 $160 $161 $162 $163 reversed $57 $-1 #
coedge $-1 $96 $59 $164 $165 reversed $37 $-1 #
coedge $-1 $59 $95 $160 $166 reversed $37 $-1 #
coedge $-1 $162 $167 $59 $98 forward $168 $-1 #
edge $-1 $169 40.733999153871387 $170 44.165206823727324 $97 $171 forward 7 unknown #
loop $-1 $-1 $104 $60 #
plane-surface $-1 49.497583783623739 -29.905163328050349 10.050529509795155 0 -0.54463904215088732 0.83867056331134215 1 0 0 forward_v I I I I #
loop $-1 $-1 $172 $39 #
coedge $-1 $102 $102 $103 $173 reversed $61 $-1 #
coedge $-1 $103 $103 $102 $173 forward $63 $-1 #
coedge $-1 $104 $104 $64 $105 forward $99 $-1 #
edge $-1 $174 -8.9033676783299296e-016 $174 6.2831853071795996 $104 $175 forward 7 unknown #
loop $-1 $-1 $111 $65 #
plane-surface $-1 49.497583783623739 -29.905163328050349 10.050529509795155 0 -0.54463904215088732 0.83867056331134215 1 0 0 forward_v I I I I #
loop $-1 $-1 $176 $42 #
coedge $-1 $109 $109 $110 $177 reversed $66 $-1 #
coedge $-1 $110 $110 $109 $177 forward $68 $-1 #
coedge $-1 $111 $111 $69 $112 forward $106 $-1 #
edge $-1 $178 -8.9033676783299296e-016 $178 6.2831853071795996 $111 $179 forward 7 unknown #
loop $-1 $-1 $118 $70 #
plane-surface $-1 49.497583783623739 -29.905163328050349 10.050529509795155 0 -0.54463904215088732 0.83867056331134215 1 0 0 forward_v I I I I #
loop $-1 $-1 $180 $45 #
coedge $-1 $116 $116 $117 $181 reversed $71 $-1 #
coedge $-1 $117 $117 $116 $181 forward $73 $-1 #
coedge $-1 $118 $118 $74 $119 forward $113 $-1 #
edge $-1 $182 -8.9033676783299296e-016 $182 6.2831853071795996 $118 $183 forward 7 unknown #
face $-1 $184 $185 $18 $-1 $186 reversed single #
loop $-1 $-1 $187 $75 #
plane-surface $-1 -58.65291299172948 0 0 1 0 0 0 0 -1 forward_v I I I I #
coedge $-1 $188 $131 $189 $190 forward $76 $-1 #
coedge $-1 $191 $78 $188 $192 forward $49 $-1 #
coedge $-1 $78 $191 $193 $194 forward $49 $-1 #
coedge $-1 $134 $133 $78 $127 reversed $135 $-1 #
edge $-1 $195 -29.905163328050357 $196 29.905163328050357 $126 $197 forward 7 unknown #
coedge $-1 $80 $79 $198 $199 forward $31 $-1 #
coedge $-1 $200 $201 $79 $130 reversed $185 $-1 #
edge $-1 $137 -58.65291299172948 $202 58.65291299172948 $129 $203 forward 7 unknown #
coedge $-1 $123 $204 $80 $132 reversed $76 $-1 #
edge $-1 $205 -58.65291299172948 $136 58.65291299172948 $131 $206 forward 7 unknown #
coedge $-1 $126 $81 $204 $207 forward $135 $-1 #
coedge $-1 $81 $126 $200 $208 reversed $135 $-1 #
loop $-1 $-1 $133 $184 #
vertex $-1 $82 $209 #
vertex $-1 $82 $210 #
straight-curve $-1 58.65291299172948 0 13.481737179651084 0 1 0 I I #
face $-1 $211 $212 $19 $-1 $213 reversed single #
loop $-1 $-1 $214 $83 #
plane-surface $-1 0 -29.905163328050357 0 0 1 0 0 0 1 forward_v I I I I #
coedge $-1 $145 $89 $215 $216 reversed $84 $-1 #
coedge $-1 $217 $86 $214 $218 reversed $53 $-1 #
coedge $-1 $86 $217 $219 $220 reversed $53 $-1 #
coedge $-1 $152 $142 $86 $146 reversed $84 $-1 #
edge $-1 $221 -29.905163328050357 $222 29.905163328050357 $145 $223 forward 7 unknown #
coedge $-1 $88 $87 $224 $225 reversed $34 $-1 #
coedge $-1 $226 $227 $87 $149 forward $228 $-1 #
edge $-1 $229 -31.967028783259128 $154 -21.404739633681576 $148 $230 forward 7 unknown #
coedge $-1 $231 $215 $88 $151 forward $140 $-1 #
edge $-1 $153 21.404739633681576 $232 31.967028783259128 $150 $233 forward 7 unknown #
coedge $-1 $89 $145 $226 $234 reversed $84 $-1 #
vertex $-1 $151 $235 #
vertex $-1 $149 $236 #
straight-curve $-1 -48.090623842151928 0 10.71580455543763 0 1 0 I I #
face $-1 $-1 $168 $20 $-1 $237 reversed single #
loop $-1 $-1 $238 $91 #
plane-surface $-1 0 0 13.481737179651084 0 0 1 1 0 0 forward_v I I I I #
coedge $-1 $239 $240 $241 $242 reversed $92 $-1 #
coedge $-1 $243 $94 $96 $166 forward $57 $-1 #
coedge $-1 $94 $243 $239 $244 forward $57 $-1 #
coedge $-1 $241 $97 $94 $163 forward $168 $-1 #
edge $-1 $170 17.734249190693205 $245 31.763334592930534 $162 $246 forward 7 unknown #
coedge $-1 $247 $248 $95 $165 forward $157 $-1 #
edge $-1 $249 -22.275681063112483 $169 -16.992084687149692 $164 $250 forward 7 unknown #
edge $-1 $170 -8.8615326271544428e-015 $249 6.2999664076695856 $96 $251 forward 7 unknown #
coedge $-1 $97 $241 $247 $252 reversed $168 $-1 #
loop $-1 $-1 $241 $156 #
vertex $-1 $252 $253 #
vertex $-1 $98 $254 #
straight-curve $-1 42.483041082505075 -29.905163328050357 54.215736333522472 0 0 -1 I I #
coedge $-1 $172 $172 $-1 $255 reversed $101 $-1 #
edge $-1 $256 0 $256 6.2831853071796004 $102 $257 forward 7 unknown #
vertex $-1 $105 $258 #
ellipse-curve $-1 45.28885816295255 -27.263365140068956 11.766133344723119 0 -0.54463904215088732 0.83867056331134215 1 0 0 1 I I #
coedge $-1 $176 $176 $-1 $259 reversed $108 $-1 #
edge $-1 $260 0 $260 6.2831853071796004 $109 $261 forward 7 unknown #
vertex $-1 $112 $262 #
ellipse-curve $-1 49.497583783623739 -27.263365140068956 11.766133344723119 0 -0.54463904215088732 0.83867056331134215 1 0 0 1 I I #
coedge $-1 $180 $180 $-1 $263 reversed $115 $-1 #
edge $-1 $264 0 $264 6.2831853071796004 $116 $265 forward 7 unknown #
vertex $-1 $119 $266 #
ellipse-curve $-1 53.706309404294942 -27.263365140068956 11.766133344723119 0 -0.54463904215088732 0.83867056331134215 1 0 0 1 I I #
face $-1 $-1 $135 $18 $-1 $267 reversed single #
loop $-1 $-1 $200 $120 #
plane-surface $-1 0 29.905163328050357 0 0 -1 0 0 0 -1 forward_v I I I I #
coedge $-1 $268 $198 $201 $269 forward $121 $-1 #
coedge $-1 $204 $123 $124 $192 reversed $76 $-1 #
coedge $-1 $198 $268 $123 $190 reversed $121 $-1 #
edge $-1 $205 -13.481737179651084 $270 13.481737179651084 $189 $271 forward 7 unknown #
coedge $-1 $125 $124 $268 $272 forward $49 $-1 #
edge $-1 $196 -58.65291299172948 $270 58.65291299172948 $188 $273 forward 7 unknown #
coedge $-1 $201 $200 $125 $194 reversed $185 $-1 #
edge $-1 $274 -58.65291299172948 $195 58.65291299172948 $193 $275 forward 7 unknown #
vertex $-1 $127 $276 #
vertex $-1 $207 $277 #
straight-curve $-1 58.65291299172948 0 -13.481737179651084 0 -1 0 I I #
coedge $-1 $187 $189 $128 $199 reversed $121 $-1 #
edge $-1 $202 -29.905163328050357 $205 29.905163328050357 $198 $278 forward 7 unknown #
coedge $-1 $193 $129 $134 $208 forward $185 $-1 #
coedge $-1 $129 $193 $187 $269 reversed $185 $-1 #
vertex $-1 $130 $279 #
straight-curve $-1 0 29.905163328050357 13.481737179651084 -1 0 0 I I #
coedge $-1 $131 $188 $133 $207 reversed $76 $-1 #
vertex $-1 $199 $280 #
straight-curve $-1 0 -29.905163328050357 13.481737179651084 1 0 0 I I #
edge $-1 $136 -13.481737179651084 $196 13.481737179651084 $133 $281 forward 7 unknown #
edge $-1 $137 -13.481737179651084 $195 13.481737179651084 $134 $282 forward 7 unknown #
point $-1 58.65291299172948 -29.905163328050357 13.481737179651084 #
point $-1 58.65291299172948 29.905163328050357 13.481737179651084 #
face $-1 $-1 $228 $19 $-1 $283 reversed single #
loop $-1 $-1 $284 $139 #
plane-surface $-1 -58.65291299172948 0 0 1 0 0 0 0 -1 forward_v I I I I #
coedge $-1 $215 $231 $143 $218 forward $140 $-1 #
coedge $-1 $150 $214 $142 $216 forward $140 $-1 #
edge $-1 $222 1.762861509025365 $153 6.556249200616632 $215 $285 forward 7 unknown #
coedge $-1 $144 $143 $284 $286 reversed $53 $-1 #
edge $-1 $287 -31.967028783259128 $222 -21.404739633681576 $214 $288 forward 7 unknown #
coedge $-1 $227 $226 $144 $220 forward $228 $-1 #
edge $-1 $221 21.404739633681576 $289 31.967028783259128 $219 $290 forward 7 unknown #
vertex $-1 $220 $291 #
vertex $-1 $218 $292 #
straight-curve $-1 -48.090623842151928 0 5.9224168638463635 0 -1 0 I I #
coedge $-1 $293 $294 $147 $225 forward $212 $-1 #
edge $-1 $232 -29.905163328050357 $229 29.905163328050357 $224 $295 forward 7 unknown #
coedge $-1 $219 $148 $152 $234 forward $228 $-1 #
coedge $-1 $148 $219 $293 $296 reversed $228 $-1 #
loop $-1 $-1 $219 $211 #
vertex $-1 $296 $297 #
straight-curve $-1 -26.685884208470352 29.905163328050357 10.71580455543763 1 0 0 I I #
coedge $-1 $214 $150 $294 $298 forward $140 $-1 #
vertex $-1 $298 $299 #
straight-curve $-1 -26.685884208470352 -29.905163328050357 10.71580455543763 -1 0 0 I I #
edge $-1 $154 -6.556249200616632 $221 -1.762861509025365 $226 $300 forward 7 unknown #
point $-1 -48.090623842151928 -29.905163328050357 10.71580455543763 #
point $-1 -48.090623842151928 29.905163328050357 10.71580455543763 #
plane-surface $-1 0 -29.905163328050357 0 0 1 0 0 0 1 forward_v I I I I #
coedge $-1 $248 $247 $240 $301 forward $157 $-1 #
coedge $-1 $240 $159 $161 $244 reversed $92 $-1 #
coedge $-1 $159 $239 $238 $301 reversed $92 $-1 #
coedge $-1 $167 $162 $159 $242 forward $168 $-1 #
edge $-1 $245 -44.165206823727324 $302 -40.733999153871387 $241 $303 forward 7 unknown #
coedge $-1 $161 $160 $248 $304 reversed $57 $-1 #
edge $-1 $305 -6.2999664076695856 $245 8.8615326271544428e-015 $239 $306 forward 7 unknown #
vertex $-1 $163 $307 #
straight-curve $-1 24.748791891811869 -29.905163328050357 10.050529509795151 1 0 0 I I #
coedge $-1 $238 $164 $167 $252 forward $157 $-1 #
coedge $-1 $164 $238 $243 $304 forward $157 $-1 #
vertex $-1 $165 $308 #
straight-curve $-1 42.483041082505075 -46.897248015200049 13.481737179651084 0 -1 0 I I #
straight-curve $-1 42.483041082505075 -29.905163328050349 10.050529509795155 0 0.83867056331134215 0.54463904215088732 I I #
edge $-1 $169 42.483041082505075 $302 56.512126484742403 $167 $309 forward 7 unknown #
point $-1 42.483041082505075 -29.905163328050357 13.481737179651084 #
point $-1 42.483041082505075 -29.905163328050357 10.050529509795149 #
edge $-1 $310 1 $310 0 $172 $-1 forward 7 unknown #
vertex $-1 $173 $311 #
ellipse-curve $-1 45.28885816295255 -25.259435204469256 8.6803519044343442 0 -0.54463904215088732 0.83867056331134215 1 0 0 1 I I #
point $-1 46.28885816295255 -27.263365140068952 11.766133344723112 #
edge $-1 $312 1 $312 0 $176 $-1 forward 7 unknown #
vertex $-1 $177 $313 #
ellipse-curve $-1 49.497583783623739 -25.259435204469256 8.6803519044343442 0 -0.54463904215088732 0.83867056331134215 1 0 0 1 I I #
point $-1 50.497583783623739 -27.263365140068952 11.766133344723112 #
edge $-1 $314 1 $314 0 $180 $-1 forward 7 unknown #
vertex $-1 $181 $315 #
ellipse-curve $-1 53.706309404294942 -25.259435204469256 8.6803519044343442 0 -0.54463904215088732 0.83867056331134215 1 0 0 1 I I #
point $-1 54.706309404294942 -27.263365140068952 11.766133344723112 #
plane-surface $-1 58.65291299172948 0 0 -1 0 0 0 0 1 forward_v I I I I #
coedge $-1 $189 $187 $191 $272 reversed $121 $-1 #
edge $-1 $202 -13.481737179651084 $274 13.481737179651084 $201 $316 forward 7 unknown #
vertex $-1 $272 $317 #
straight-curve $-1 -58.65291299172948 -29.905163328050357 0 0 0 -1 I I #
edge $-1 $270 -29.905163328050357 $274 29.905163328050357 $268 $318 forward 7 unknown #
straight-curve $-1 0 -29.905163328050357 -13.481737179651084 -1 0 0 I I #
vertex $-1 $194 $319 #
straight-curve $-1 0 29.905163328050357 -13.481737179651084 1 0 0 I I #
point $-1 58.65291299172948 29.905163328050357 -13.481737179651084 #
point $-1 58.65291299172948 -29.905163328050357 -13.481737179651084 #
straight-curve $-1 -58.65291299172948 0 13.481737179651084 0 -1 0 I I #
point $-1 -58.65291299172948 29.905163328050357 13.481737179651084 #
point $-1 -58.65291299172948 -29.905163328050357 13.481737179651084 #
straight-curve $-1 58.65291299172948 -29.905163328050357 0 0 0 -1 I I #
straight-curve $-1 58.65291299172948 29.905163328050357 0 0 0 -1 I I #
plane-surface $-1 0 29.905163328050357 0 0 -1 0 0 0 -1 forward_v I I I I #
coedge $-1 $294 $293 $217 $286 forward $212 $-1 #
straight-curve $-1 -48.090623842151928 -29.905163328050357 4.1595553548209985 0 0 1 I I #
edge $-1 $289 -29.905163328050357 $287 29.905163328050357 $284 $320 forward 7 unknown #
vertex $-1 $218 $321 #
straight-curve $-1 -26.685884208470352 -29.905163328050357 5.9224168638463635 1 0 0 I I #
vertex $-1 $220 $322 #
straight-curve $-1 -26.685884208470352 29.905163328050357 5.9224168638463635 -1 0 0 I I #
point $-1 -48.090623842151928 29.905163328050357 5.9224168638463635 #
point $-1 -48.090623842151928 -29.905163328050357 5.9224168638463635 #
coedge $-1 $284 $224 $227 $296 forward $212 $-1 #
coedge $-1 $224 $284 $231 $298 reversed $212 $-1 #
straight-curve $-1 -58.65291299172948 0 10.71580455543763 0 1 0 I I #
edge $-1 $229 -10.71580455543763 $289 -5.9224168638463635 $227 $323 forward 7 unknown #
point $-1 -58.65291299172948 29.905163328050357 10.71580455543763 #
edge $-1 $232 -10.71580455543763 $287 -5.9224168638463635 $294 $324 forward 7 unknown #
point $-1 -58.65291299172948 -29.905163328050357 10.71580455543763 #
straight-curve $-1 -48.090623842151928 29.905163328050357 4.1595553548209985 0 0 -1 I I #
edge $-1 $302 16.992084687149692 $305 22.275681063112483 $238 $325 forward 7 unknown #
vertex $-1 $301 $326 #
straight-curve $-1 56.512126484742403 -29.905163328050357 54.215736333522472 0 0 1 I I #
edge $-1 $305 -31.763334592930534 $249 -17.734249190693205 $248 $327 forward 7 unknown #
vertex $-1 $304 $328 #
straight-curve $-1 56.512126484742403 -29.905163328050349 10.050529509795155 0 -0.83867056331134215 -0.54463904215088732 I I #
point $-1 56.512126484742403 -29.905163328050357 10.050529509795149 #
point $-1 42.483041082505075 -24.621566952087566 13.481737179651084 #
straight-curve $-1 0 -29.905163328050357 13.481737179651084 1 0 0 I I #
vertex $-1 $255 $329 #
point $-1 46.28885816295255 -25.259435204469256 8.6803519044343442 #
vertex $-1 $259 $330 #
point $-1 50.497583783623739 -25.259435204469256 8.6803519044343442 #
vertex $-1 $263 $331 #
point $-1 54.706309404294942 -25.259435204469256 8.6803519044343442 #
straight-curve $-1 -58.65291299172948 29.905163328050357 0 0 0 -1 I I #
point $-1 -58.65291299172948 -29.905163328050357 -13.481737179651084 #
straight-curve $-1 -58.65291299172948 0 -13.481737179651084 0 1 0 I I #
point $-1 -58.65291299172948 29.905163328050357 -13.481737179651084 #
straight-curve $-1 -58.65291299172948 0 5.9224168638463635 0 -1 0 I I #
point $-1 -58.65291299172948 -29.905163328050357 5.9224168638463635 #
point $-1 -58.65291299172948 29.905163328050357 5.9224168638463635 #
straight-curve $-1 -58.65291299172948 29.905163328050357 0 0 0 -1 I I #
straight-curve $-1 -58.65291299172948 -29.905163328050357 0 0 0 -1 I I #
straight-curve $-1 56.512126484742403 -46.897248015200049 13.481737179651084 0 1 0 I I #
point $-1 56.512126484742403 -29.905163328050357 13.481737179651084 #
straight-curve $-1 24.748791891811869 -24.621566952087569 13.481737179651084 -1 0 0 I I #
point $-1 56.512126484742403 -24.621566952087566 13.481737179651084 #
point $-1 45.28885816295255 -24.714796162318365 7.8416813411230013 #
point $-1 49.497583783623739 -24.714796162318365 7.8416813411230013 #
point $-1 53.706309404294942 -24.714796162318365 7.8416813411230013 #
End-of-ACIS-data 