500 0 7 0           
7 Unknown 11 ACIS 5.0 NT 24 Thu Mar 25 15:57:38 1999 
-1 9.9999999999999995e-007 1e-010 
body $-1 $7 $-1 $8 #
body $-1 $9 $-1 $10 #
body $-1 $11 $-1 $12 #
body $-1 $13 $-1 $14 #
body $-1 $15 $-1 $16 #
body $-1 $17 $-1 $18 #
body $-1 $19 $-1 $20 #
lump $-1 $-1 $21 $0 #
transform $-1 1 0 0 0 1 0 0 0 1 52.151249732963045 26.409697174564318 10.438709462458258 1 rotate no_reflect no_shear #
lump $-1 $-1 $22 $1 #
transform $-1 1 0 0 0 1 0 0 0 1 52.151249732963045 26.409697174564318 10.438709462458258 1 rotate no_reflect no_shear #
lump $-1 $-1 $23 $2 #
transform $-1 1 0 0 0 1 0 0 0 1 52.151249732963045 26.409697174564318 10.438709462458258 1 rotate no_reflect no_shear #
lump $-1 $-1 $24 $3 #
transform $-1 1 0 0 0 1 0 0 0 1 52.151249732963045 26.409697174564318 10.438709462458258 1 rotate no_reflect no_shear #
lump $-1 $-1 $25 $4 #
transform $-1 1 0 0 0 1 0 0 0 1 52.151249732963045 26.409697174564318 10.438709462458258 1 rotate no_reflect no_shear #
lump $-1 $-1 $26 $5 #
transform $-1 1 0 0 0 1 0 0 0 1 52.151249732963045 26.409697174564318 10.438709462458258 1 rotate no_reflect no_shear #
lump $-1 $-1 $27 $6 #
transform $-1 1 0 0 0 1 0 0 0 1 52.151249732963045 26.409697174564318 10.438709462458258 1 rotate no_reflect no_shear #
shell $-1 $-1 $-1 $28 $-1 $7 #
shell $-1 $-1 $-1 $29 $-1 $9 #
shell $-1 $-1 $-1 $30 $-1 $11 #
shell $-1 $-1 $-1 $31 $-1 $13 #
shell $-1 $-1 $-1 $32 $-1 $15 #
shell $-1 $-1 $-1 $33 $-1 $17 #
shell $-1 $-1 $-1 $34 $-1 $19 #
face $-1 $35 $36 $21 $-1 $37 forward single #
face $-1 $38 $39 $22 $-1 $40 forward single #
face $-1 $41 $42 $23 $-1 $43 reversed single #
face $-1 $44 $45 $24 $-1 $46 forward single #
face $-1 $47 $48 $25 $-1 $49 forward single #
face $-1 $50 $51 $26 $-1 $52 reversed single #
face $-1 $53 $54 $27 $-1 $55 forward single #
face $-1 $56 $57 $21 $-1 $58 reversed single #
loop $-1 $-1 $59 $28 #
plane-surface $-1 0 0 10.438709462458258 0 0 1 1 0 0 forward_v I I I I #
face $-1 $60 $61 $22 $-1 $62 reversed single #
loop $-1 $-1 $63 $29 #
plane-surface $-1 -47.939661973145903 0 -5.0217361100799458 0 0 1 1 0 0 forward_v I I I I #
face $-1 $64 $65 $23 $-1 $66 reversed single #
loop $-1 $-1 $67 $30 #
plane-surface $-1 -8.6627245695572164 -114.86323409755771 61.678586607909914 1 0 0 0 0.84804810408105047 -0.52991925155115449 forward_v I I I I #
face $-1 $68 $69 $24 $-1 $70 forward single #
loop $-1 $71 $72 $31 #
cone-surface $-1 -3.4956604793788841 -24.560632119564289 8.0544484545600632 0 0.84804810408105047 -0.52991925155115449 0.5 0 0 1 I I 0 1 0.5 forward I I I I #
face $-1 $73 $74 $25 $-1 $75 forward single #
loop $-1 $76 $77 $32 #
cone-surface $-1 4.2549356558886089 -24.560632119564289 8.0544484545600632 0 0.84804810408105047 -0.52991925155115449 0.5 0 0 1 I I 0 1 0.5 forward I I I I #
face $-1 $78 $79 $26 $-1 $80 reversed single #
loop $-1 $-1 $81 $33 #
plane-surface $-1 -7.9364010509306553 74.227642900468439 112.48180280553542 1 0 0 0 -0.77714596973225614 -0.62932038083071107 forward_v I I I I #
face $-1 $82 $83 $27 $-1 $84 forward single #
loop $-1 $85 $86 $34 #
cone-surface $-1 -0.010051166232251774 23.72876107928963 7.4682143291926328 0 -0.77714596973225614 -0.62932038083071107 1 0 0 1 I I 0 1 1 forward I I I I #
face $-1 $87 $88 $21 $-1 $89 reversed single #
loop $-1 $-1 $90 $35 #
plane-surface $-1 0 0 -10.438709462458258 0 0 1 1 0 0 forward_v I I I I #
coedge $-1 $91 $92 $93 $94 forward $36 $-1 #
face $-1 $95 $96 $22 $-1 $97 reversed single #
loop $-1 $-1 $98 $38 #
plane-surface $-1 -47.939661973145903 0 -8.0217361100799458 0 0 1 1 0 0 forward_v I I I I #
coedge $-1 $99 $100 $101 $102 forward $39 $-1 #
face $-1 $103 $104 $23 $-1 $105 reversed single #
loop $-1 $-1 $106 $41 #
plane-surface $-1 0.37963758825485883 -26.409697174564315 6.4066841560116714 0 -0.84804810408105047 0.52991925155115449 1 0 0 forward_v I I I I #
coedge $-1 $107 $108 $109 $110 reversed $42 $-1 #
face $-1 $-1 $111 $24 $-1 $112 forward single #
loop $-1 $113 $114 $44 #
cone-surface $-1 -3.4956604793788841 -23.759299516684639 7.5537202869973665 0 0.84804810408105047 -0.52991925155115449 0.25 0 0 1 I I -0.70710678118654746 0.70710678118654746 0.25 forward I I I I #
loop $-1 $-1 $115 $31 #
coedge $-1 $72 $72 $116 $117 reversed $45 $-1 #
face $-1 $-1 $118 $25 $-1 $119 forward single #
loop $-1 $120 $121 $47 #
cone-surface $-1 4.2549356558886089 -23.759299516684639 7.5537202869973665 0 0.84804810408105047 -0.52991925155115449 0.25 0 0 1 I I -0.70710678118654746 0.70710678118654746 0.25 forward I I I I #
loop $-1 $-1 $122 $32 #
coedge $-1 $77 $77 $123 $124 reversed $48 $-1 #
face $-1 $125 $126 $26 $-1 $127 reversed single #
loop $-1 $-1 $128 $50 #
plane-surface $-1 -0.010051166232251774 -6.8306241924768187 46.842114120043775 0 0.77714596973225614 0.62932038083071107 1 0 0 forward_v I I I I #
coedge $-1 $129 $130 $131 $132 reversed $51 $-1 #
face $-1 $-1 $133 $27 $-1 $134 forward single #
loop $-1 $135 $136 $53 #
cone-surface $-1 -0.010051166232251774 22.539965156139058 6.5055463977809023 0 -0.77714596973225614 -0.62932038083071107 0.5 0 0 1 I I -0.70710678118654746 0.70710678118654746 0.5 forward I I I I #
loop $-1 $-1 $137 $34 #
coedge $-1 $86 $86 $138 $139 reversed $54 $-1 #
face $-1 $140 $141 $21 $-1 $142 reversed single #
loop $-1 $-1 $143 $56 #
plane-surface $-1 0 -26.409697174564318 0 0 1 0 0 0 1 forward_v I I I I #
coedge $-1 $144 $145 $146 $147 forward $57 $-1 #
coedge $-1 $148 $59 $149 $150 forward $36 $-1 #
coedge $-1 $59 $148 $151 $152 forward $36 $-1 #
coedge $-1 $153 $154 $59 $94 reversed $155 $-1 #
edge $-1 $156 -26.409697174564318 $157 26.409697174564318 $93 $158 forward 7 unknown #
face $-1 $159 $160 $22 $-1 $161 reversed single #
loop $-1 $-1 $162 $60 #
plane-surface $-1 -43.72807421332876 0 -6.5217361100799458 -1 0 0 0 0 1 forward_v I I I I #
coedge $-1 $163 $164 $165 $166 forward $61 $-1 #
coedge $-1 $167 $63 $168 $169 reversed $39 $-1 #
coedge $-1 $63 $167 $170 $171 reversed $39 $-1 #
coedge $-1 $162 $172 $63 $102 reversed $96 $-1 #
edge $-1 $173 -26.409697174564318 $174 26.409697174564318 $101 $175 forward 7 unknown #
face $-1 $176 $177 $23 $-1 $178 forward single #
loop $-1 $-1 $179 $64 #
plane-surface $-1 9.421999746066934 -114.86323409755771 61.678586607909914 -1 0 0 0 -0.84804810408105047 0.52991925155115449 forward_v I I I I #
coedge $-1 $180 $181 $182 $183 reversed $65 $-1 #
coedge $-1 $108 $67 $184 $185 reversed $42 $-1 #
coedge $-1 $67 $107 $180 $186 reversed $42 $-1 #
coedge $-1 $182 $187 $67 $110 forward $188 $-1 #
edge $-1 $189 20.400583841496697 $190 24.432609147943289 $109 $191 forward 7 unknown #
loop $-1 $-1 $116 $68 #
plane-surface $-1 0.37963758825485883 -26.409697174564315 6.4066841560116714 0 -0.84804810408105047 0.52991925155115449 1 0 0 forward_v I I I I #
loop $-1 $-1 $192 $44 #
coedge $-1 $114 $114 $115 $193 reversed $69 $-1 #
coedge $-1 $115 $115 $114 $193 forward $71 $-1 #
coedge $-1 $116 $116 $72 $117 forward $111 $-1 #
edge $-1 $194 -7.5243064764144144e-016 $194 6.2831853071795996 $116 $195 forward 7 unknown #
loop $-1 $-1 $123 $73 #
plane-surface $-1 0.37963758825485883 -26.409697174564315 6.4066841560116714 0 -0.84804810408105047 0.52991925155115449 1 0 0 forward_v I I I I #
loop $-1 $-1 $196 $47 #
coedge $-1 $121 $121 $122 $197 reversed $74 $-1 #
coedge $-1 $122 $122 $121 $197 forward $76 $-1 #
coedge $-1 $123 $123 $77 $124 forward $118 $-1 #
edge $-1 $198 -7.5243064764144144e-016 $198 6.2831853071795996 $123 $199 forward 7 unknown #
face $-1 $200 $201 $26 $-1 $202 reversed single #
loop $-1 $-1 $203 $78 #
plane-surface $-1 7.9162987184661517 74.227642900468439 112.48180280553542 -1 0 0 0 0.77714596973225614 0.62932038083071107 forward_v I I I I #
coedge $-1 $204 $205 $206 $207 reversed $79 $-1 #
coedge $-1 $130 $81 $208 $209 reversed $51 $-1 #
coedge $-1 $81 $129 $204 $210 reversed $51 $-1 #
coedge $-1 $206 $211 $81 $132 forward $212 $-1 #
edge $-1 $213 10.704124275669901 $214 14.465550589650423 $131 $215 forward 7 unknown #
loop $-1 $-1 $138 $82 #
plane-surface $-1 -0.010051166232251774 -6.8306241924768187 46.842114120043775 0 0.77714596973225614 0.62932038083071107 1 0 0 forward_v I I I I #
loop $-1 $-1 $216 $53 #
coedge $-1 $136 $136 $137 $217 reversed $83 $-1 #
coedge $-1 $137 $137 $136 $217 forward $85 $-1 #
coedge $-1 $138 $138 $86 $139 forward $133 $-1 #
edge $-1 $218 -1.050363983534518e-015 $218 6.2831853071795996 $138 $219 forward 7 unknown #
face $-1 $220 $221 $21 $-1 $222 reversed single #
loop $-1 $-1 $223 $87 #
plane-surface $-1 -52.151249732963045 0 0 1 0 0 0 0 -1 forward_v I I I I #
coedge $-1 $224 $151 $225 $226 forward $88 $-1 #
coedge $-1 $227 $90 $224 $228 forward $57 $-1 #
coedge $-1 $90 $227 $229 $230 forward $57 $-1 #
coedge $-1 $154 $153 $90 $147 reversed $155 $-1 #
edge $-1 $231 -26.409697174564318 $232 26.409697174564318 $146 $233 forward 7 unknown #
coedge $-1 $92 $91 $234 $235 forward $36 $-1 #
coedge $-1 $236 $237 $91 $150 reversed $221 $-1 #
edge $-1 $157 -52.151249732963045 $238 52.151249732963045 $149 $239 forward 7 unknown #
coedge $-1 $143 $240 $92 $152 reversed $88 $-1 #
edge $-1 $241 -52.151249732963045 $156 52.151249732963045 $151 $242 forward 7 unknown #
coedge $-1 $146 $93 $240 $243 forward $155 $-1 #
coedge $-1 $93 $146 $236 $244 reversed $155 $-1 #
loop $-1 $-1 $153 $220 #
vertex $-1 $94 $245 #
vertex $-1 $94 $246 #
straight-curve $-1 52.151249732963045 0 10.438709462458258 0 1 0 I I #
face $-1 $247 $248 $22 $-1 $249 reversed single #
loop $-1 $-1 $250 $95 #
plane-surface $-1 0 -26.409697174564318 0 0 1 0 0 0 1 forward_v I I I I #
coedge $-1 $165 $101 $251 $252 reversed $96 $-1 #
coedge $-1 $253 $98 $250 $254 reversed $61 $-1 #
coedge $-1 $98 $253 $255 $256 reversed $61 $-1 #
coedge $-1 $172 $162 $98 $166 reversed $96 $-1 #
edge $-1 $257 -26.409697174564318 $258 26.409697174564318 $165 $259 forward 7 unknown #
coedge $-1 $100 $99 $260 $261 reversed $39 $-1 #
coedge $-1 $262 $263 $99 $169 forward $264 $-1 #
edge $-1 $265 -28.181418746390094 $174 -19.758243226755809 $168 $266 forward 7 unknown #
coedge $-1 $267 $251 $100 $171 forward $160 $-1 #
edge $-1 $173 19.758243226755809 $268 28.181418746390094 $170 $269 forward 7 unknown #
coedge $-1 $101 $165 $262 $270 reversed $96 $-1 #
vertex $-1 $171 $271 #
vertex $-1 $169 $272 #
straight-curve $-1 -43.72807421332876 0 -5.0217361100799458 0 1 0 I I #
face $-1 $-1 $188 $23 $-1 $273 reversed single #
loop $-1 $-1 $274 $103 #
plane-surface $-1 0 0 10.438709462458258 0 0 1 1 0 0 forward_v I I I I #
coedge $-1 $275 $276 $277 $278 reversed $104 $-1 #
coedge $-1 $279 $106 $108 $186 forward $65 $-1 #
coedge $-1 $106 $279 $275 $280 forward $65 $-1 #
coedge $-1 $277 $109 $106 $183 forward $188 $-1 #
edge $-1 $190 -8.8525433636846458 $281 9.2321809519395046 $182 $282 forward 7 unknown #
coedge $-1 $283 $284 $107 $185 forward $177 $-1 #
edge $-1 $285 -33.541408830495826 $189 -31.021919874214536 $184 $286 forward 7 unknown #
edge $-1 $190 -6.4019595231198791e-015 $285 4.7544771187428232 $108 $287 forward 7 unknown #
coedge $-1 $109 $277 $283 $288 reversed $188 $-1 #
loop $-1 $-1 $277 $176 #
vertex $-1 $288 $289 #
vertex $-1 $110 $290 #
straight-curve $-1 -8.6627245695572164 -26.409697174564315 30.839293303954957 0 0 -1 I I #
coedge $-1 $192 $192 $-1 $291 reversed $113 $-1 #
edge $-1 $292 0 $292 6.2831853071796004 $114 $293 forward 7 unknown #
vertex $-1 $117 $294 #
ellipse-curve $-1 -3.4956604793788841 -25.149952696423671 8.4226968092349672 0 -0.84804810408105047 0.52991925155115449 0.5 0 0 1 I I #
coedge $-1 $196 $196 $-1 $295 reversed $120 $-1 #
edge $-1 $296 0 $296 6.2831853071796004 $121 $297 forward 7 unknown #
vertex $-1 $124 $298 #
ellipse-curve $-1 4.2549356558886089 -25.149952696423671 8.4226968092349672 0 -0.84804810408105047 0.52991925155115449 0.5 0 0 1 I I #
face $-1 $-1 $212 $26 $-1 $299 forward single #
loop $-1 $-1 $300 $125 #
plane-surface $-1 0 26.409697174564318 0 0 -1 0 0 0 -1 forward_v I I I I #
coedge $-1 $301 $302 $303 $304 reversed $126 $-1 #
coedge $-1 $305 $128 $130 $210 forward $79 $-1 #
coedge $-1 $128 $305 $301 $306 forward $79 $-1 #
coedge $-1 $303 $131 $128 $207 forward $212 $-1 #
edge $-1 $214 -7.9313754678145294 $307 7.9213243015822776 $206 $308 forward 7 unknown #
coedge $-1 $309 $310 $129 $209 forward $201 $-1 #
edge $-1 $311 -50.447166724847953 $213 -45.802191940309456 $208 $312 forward 7 unknown #
edge $-1 $214 46.842428675435698 $311 52.819394349128629 $130 $313 forward 7 unknown #
coedge $-1 $131 $303 $309 $314 forward $212 $-1 #
loop $-1 $-1 $303 $200 #
vertex $-1 $209 $315 #
vertex $-1 $132 $316 #
straight-curve $-1 -7.9364010509306553 37.113821450234219 10.438709462458256 0 -1 0 I I #
coedge $-1 $216 $216 $-1 $317 reversed $135 $-1 #
edge $-1 $318 0 $318 6.2831853071796004 $136 $319 forward 7 unknown #
vertex $-1 $139 $320 #
ellipse-curve $-1 -0.010051166232251774 24.528984017574064 8.116222070189 0 0.77714596973225614 0.62932038083071107 1 0 0 1 I I #
face $-1 $-1 $155 $21 $-1 $321 reversed single #
loop $-1 $-1 $236 $140 #
plane-surface $-1 0 26.409697174564318 0 0 -1 0 0 0 -1 forward_v I I I I #
coedge $-1 $322 $234 $237 $323 forward $141 $-1 #
coedge $-1 $240 $143 $144 $228 reversed $88 $-1 #
coedge $-1 $234 $322 $143 $226 reversed $141 $-1 #
edge $-1 $241 -10.438709462458258 $324 10.438709462458258 $225 $325 forward 7 unknown #
coedge $-1 $145 $144 $322 $326 forward $57 $-1 #
edge $-1 $232 -52.151249732963045 $324 52.151249732963045 $224 $327 forward 7 unknown #
coedge $-1 $237 $236 $145 $230 reversed $221 $-1 #
edge $-1 $328 -52.151249732963045 $231 52.151249732963045 $229 $329 forward 7 unknown #
vertex $-1 $147 $330 #
vertex $-1 $243 $331 #
straight-curve $-1 52.151249732963045 0 -10.438709462458258 0 -1 0 I I #
coedge $-1 $223 $225 $148 $235 reversed $141 $-1 #
edge $-1 $238 -26.409697174564318 $241 26.409697174564318 $234 $332 forward 7 unknown #
coedge $-1 $229 $149 $154 $244 forward $221 $-1 #
coedge $-1 $149 $229 $223 $323 reversed $221 $-1 #
vertex $-1 $150 $333 #
straight-curve $-1 0 26.409697174564318 10.438709462458258 -1 0 0 I I #
coedge $-1 $151 $224 $153 $243 reversed $88 $-1 #
vertex $-1 $235 $334 #
straight-curve $-1 0 -26.409697174564318 10.438709462458258 1 0 0 I I #
edge $-1 $156 -10.438709462458258 $232 10.438709462458258 $153 $335 forward 7 unknown #
edge $-1 $157 -10.438709462458258 $231 10.438709462458258 $154 $336 forward 7 unknown #
point $-1 52.151249732963045 -26.409697174564318 10.438709462458258 #
point $-1 52.151249732963045 26.409697174564318 10.438709462458258 #
face $-1 $-1 $264 $22 $-1 $337 reversed single #
loop $-1 $-1 $338 $159 #
plane-surface $-1 -52.151249732963045 0 0 1 0 0 0 0 -1 forward_v I I I I #
coedge $-1 $251 $267 $163 $254 forward $160 $-1 #
coedge $-1 $170 $250 $162 $252 forward $160 $-1 #
edge $-1 $258 -4.7608680550399729 $173 -1.7608680550399729 $251 $339 forward 7 unknown #
coedge $-1 $164 $163 $338 $340 reversed $61 $-1 #
edge $-1 $341 -28.181418746390094 $258 -19.758243226755809 $250 $342 forward 7 unknown #
coedge $-1 $263 $262 $164 $256 forward $264 $-1 #
edge $-1 $257 19.758243226755809 $343 28.181418746390094 $255 $344 forward 7 unknown #
vertex $-1 $256 $345 #
vertex $-1 $254 $346 #
straight-curve $-1 -43.72807421332876 0 -8.0217361100799458 0 -1 0 I I #
coedge $-1 $347 $348 $167 $261 forward $248 $-1 #
edge $-1 $268 -26.409697174564318 $265 26.409697174564318 $260 $349 forward 7 unknown #
coedge $-1 $255 $168 $172 $270 forward $264 $-1 #
coedge $-1 $168 $255 $347 $350 reversed $264 $-1 #
loop $-1 $-1 $255 $247 #
vertex $-1 $350 $351 #
straight-curve $-1 -23.969830986572951 26.409697174564318 -5.0217361100799458 1 0 0 I I #
coedge $-1 $250 $170 $348 $352 forward $160 $-1 #
vertex $-1 $352 $353 #
straight-curve $-1 -23.969830986572951 -26.409697174564318 -5.0217361100799458 -1 0 0 I I #
edge $-1 $174 1.7608680550399729 $257 4.7608680550399729 $262 $354 forward 7 unknown #
point $-1 -43.72807421332876 -26.409697174564318 -5.0217361100799458 #
point $-1 -43.72807421332876 26.409697174564318 -5.0217361100799458 #
plane-surface $-1 0 -26.409697174564318 0 0 1 0 0 0 1 forward_v I I I I #
coedge $-1 $284 $283 $276 $355 forward $177 $-1 #
coedge $-1 $276 $179 $181 $280 reversed $104 $-1 #
coedge $-1 $179 $275 $274 $355 reversed $104 $-1 #
coedge $-1 $187 $182 $179 $278 forward $188 $-1 #
edge $-1 $281 -24.432609147943289 $356 -20.400583841496697 $277 $357 forward 7 unknown #
coedge $-1 $181 $180 $284 $358 reversed $65 $-1 #
edge $-1 $359 -4.7544771187428232 $281 6.4019595231198791e-015 $275 $360 forward 7 unknown #
vertex $-1 $183 $361 #
straight-curve $-1 0.18981879412742941 -26.409697174564318 6.4066841560116625 1 0 0 I I #
coedge $-1 $274 $184 $187 $288 forward $177 $-1 #
coedge $-1 $184 $274 $279 $358 forward $177 $-1 #
vertex $-1 $185 $362 #
straight-curve $-1 -8.6627245695572164 -57.431617048778854 10.438709462458256 0 -1 0 I I #
straight-curve $-1 -8.6627245695572164 -26.409697174564315 6.4066841560116714 0 0.52991925155115449 0.84804810408105047 I I #
edge $-1 $189 -8.6627245695572164 $356 9.421999746066934 $187 $363 forward 7 unknown #
point $-1 -8.6627245695572164 -26.409697174564318 10.438709462458258 #
point $-1 -8.6627245695572164 -26.409697174564318 6.4066841560116661 #
edge $-1 $364 1 $364 0 $192 $-1 forward 7 unknown #
vertex $-1 $193 $365 #
ellipse-curve $-1 -3.4956604793788841 -23.9713115427049 7.6862000998851547 0 -0.84804810408105047 0.52991925155115449 0.5 0 0 1 I I #
point $-1 -2.9956604793788841 -25.149952696423675 8.422696809234969 #
edge $-1 $366 1 $366 0 $196 $-1 forward 7 unknown #
vertex $-1 $197 $367 #
ellipse-curve $-1 4.2549356558886089 -23.9713115427049 7.6862000998851547 0 -0.84804810408105047 0.52991925155115449 0.5 0 0 1 I I #
point $-1 4.7549356558886089 -25.149952696423675 8.422696809234969 #
plane-surface $-1 0 0 10.438709462458258 0 0 1 1 0 0 forward_v I I I I #
coedge $-1 $310 $309 $302 $368 forward $201 $-1 #
coedge $-1 $302 $203 $205 $306 reversed $126 $-1 #
coedge $-1 $203 $301 $300 $368 reversed $126 $-1 #
coedge $-1 $211 $206 $203 $304 forward $212 $-1 #
edge $-1 $307 -14.465550589650423 $369 -10.704124275669901 $303 $370 forward 7 unknown #
coedge $-1 $205 $204 $310 $371 reversed $79 $-1 #
edge $-1 $372 -52.819394349128629 $307 -46.842428675435698 $301 $373 forward 7 unknown #
vertex $-1 $207 $374 #
straight-curve $-1 -0.0050255831161258868 22.648270860583796 10.438709462458256 1 0 0 I I #
coedge $-1 $300 $208 $211 $314 reversed $201 $-1 #
coedge $-1 $208 $300 $305 $371 forward $201 $-1 #
vertex $-1 $209 $375 #
straight-curve $-1 -7.9364010509306553 26.409697174564318 56.240901402767712 0 0 1 I I #
straight-curve $-1 -7.9364010509306553 -6.8306241924768187 46.842114120043775 0 0.62932038083071107 -0.77714596973225614 I I #
edge $-1 $369 -7.9162987184661517 $213 7.9364010509306553 $309 $376 forward 7 unknown #
point $-1 -7.9364010509306553 26.409697174564318 10.438709462458258 #
point $-1 -7.9364010509306553 22.648270860583796 10.438709462458256 #
edge $-1 $377 1 $377 0 $216 $-1 forward 7 unknown #
vertex $-1 $217 $378 #
ellipse-curve $-1 -0.010051166232251774 22.928538141005184 6.8202065881962577 0 0.77714596973225614 0.62932038083071107 1 0 0 1 I I #
point $-1 0.98994883376774823 24.528984017574071 8.1162220701890071 #
plane-surface $-1 52.151249732963045 0 0 -1 0 0 0 0 1 forward_v I I I I #
coedge $-1 $225 $223 $227 $326 reversed $141 $-1 #
edge $-1 $238 -10.438709462458258 $328 10.438709462458258 $237 $379 forward 7 unknown #
vertex $-1 $326 $380 #
straight-curve $-1 -52.151249732963045 -26.409697174564318 0 0 0 -1 I I #
edge $-1 $324 -26.409697174564318 $328 26.409697174564318 $322 $381 forward 7 unknown #
straight-curve $-1 0 -26.409697174564318 -10.438709462458258 -1 0 0 I I #
vertex $-1 $230 $382 #
straight-curve $-1 0 26.409697174564318 -10.438709462458258 1 0 0 I I #
point $-1 52.151249732963045 26.409697174564318 -10.438709462458258 #
point $-1 52.151249732963045 -26.409697174564318 -10.438709462458258 #
straight-curve $-1 -52.151249732963045 0 10.438709462458258 0 -1 0 I I #
point $-1 -52.151249732963045 26.409697174564318 10.438709462458258 #
point $-1 -52.151249732963045 -26.409697174564318 10.438709462458258 #
straight-curve $-1 52.151249732963045 -26.409697174564318 0 0 0 -1 I I #
straight-curve $-1 52.151249732963045 26.409697174564318 0 0 0 -1 I I #
plane-surface $-1 0 26.409697174564318 0 0 -1 0 0 0 -1 forward_v I I I I #
coedge $-1 $348 $347 $253 $340 forward $248 $-1 #
straight-curve $-1 -43.72807421332876 -26.409697174564318 -3.2608680550399729 0 0 1 I I #
edge $-1 $343 -26.409697174564318 $341 26.409697174564318 $338 $383 forward 7 unknown #
vertex $-1 $254 $384 #
straight-curve $-1 -23.969830986572951 -26.409697174564318 -8.0217361100799458 1 0 0 I I #
vertex $-1 $256 $385 #
straight-curve $-1 -23.969830986572951 26.409697174564318 -8.0217361100799458 -1 0 0 I I #
point $-1 -43.72807421332876 26.409697174564318 -8.0217361100799458 #
point $-1 -43.72807421332876 -26.409697174564318 -8.0217361100799458 #
coedge $-1 $338 $260 $263 $350 forward $248 $-1 #
coedge $-1 $260 $338 $267 $352 reversed $248 $-1 #
straight-curve $-1 -52.151249732963045 0 -5.0217361100799458 0 1 0 I I #
edge $-1 $265 5.0217361100799458 $343 8.0217361100799458 $263 $386 forward 7 unknown #
point $-1 -52.151249732963045 26.409697174564318 -5.0217361100799458 #
edge $-1 $268 5.0217361100799458 $341 8.0217361100799458 $348 $387 forward 7 unknown #
point $-1 -52.151249732963045 -26.409697174564318 -5.0217361100799458 #
straight-curve $-1 -43.72807421332876 26.409697174564318 -3.2608680550399729 0 0 -1 I I #
edge $-1 $356 31.021919874214536 $359 33.541408830495826 $274 $388 forward 7 unknown #
vertex $-1 $355 $389 #
straight-curve $-1 9.421999746066934 -26.409697174564315 30.839293303954957 0 0 1 I I #
edge $-1 $359 -9.2321809519395046 $285 8.8525433636846458 $284 $390 forward 7 unknown #
vertex $-1 $358 $391 #
straight-curve $-1 9.421999746066934 -26.409697174564315 6.4066841560116714 0 -0.52991925155115449 -0.84804810408105047 I I #
point $-1 9.421999746066934 -26.409697174564318 6.4066841560116661 #
point $-1 -8.6627245695572164 -23.890208218283028 10.438709462458258 #
straight-curve $-1 0 -26.409697174564318 10.438709462458258 1 0 0 I I #
vertex $-1 $291 $392 #
point $-1 -2.9956604793788841 -23.9713115427049 7.6862000998851547 #
vertex $-1 $295 $393 #
point $-1 4.7549356558886089 -23.9713115427049 7.6862000998851547 #
edge $-1 $369 45.802191940309456 $372 50.447166724847953 $300 $394 forward 7 unknown #
vertex $-1 $314 $395 #
straight-curve $-1 7.9162987184661517 37.113821450234219 10.438709462458256 0 1 0 I I #
edge $-1 $372 -7.9213243015822776 $311 7.9313754678145294 $310 $396 forward 7 unknown #
vertex $-1 $371 $397 #
straight-curve $-1 7.9162987184661517 -6.8306241924768187 46.842114120043775 0 -0.62932038083071107 0.77714596973225614 I I #
point $-1 7.9162987184661517 22.648270860583796 10.438709462458256 #
point $-1 -7.9364010509306553 26.409697174564315 5.7937346779197583 #
straight-curve $-1 0 26.409697174564318 10.438709462458258 -1 0 0 I I #
vertex $-1 $317 $398 #
point $-1 0.98994883376774823 22.928538141005184 6.8202065881962577 #
straight-curve $-1 -52.151249732963045 26.409697174564318 0 0 0 -1 I I #
point $-1 -52.151249732963045 -26.409697174564318 -10.438709462458258 #
straight-curve $-1 -52.151249732963045 0 -10.438709462458258 0 1 0 I I #
point $-1 -52.151249732963045 26.409697174564318 -10.438709462458258 #
straight-curve $-1 -52.151249732963045 0 -8.0217361100799458 0 -1 0 I I #
point $-1 -52.151249732963045 -26.409697174564318 -8.0217361100799458 #
point $-1 -52.151249732963045 26.409697174564318 -8.0217361100799458 #
straight-curve $-1 -52.151249732963045 26.409697174564318 0 0 0 -1 I I #
straight-curve $-1 -52.151249732963045 -26.409697174564318 0 0 0 -1 I I #
straight-curve $-1 9.421999746066934 -57.431617048778854 10.438709462458256 0 1 0 I I #
point $-1 9.421999746066934 -26.409697174564318 10.438709462458258 #
straight-curve $-1 0.18981879412742941 -23.890208218283028 10.438709462458258 -1 0 0 I I #
point $-1 9.421999746066934 -23.890208218283028 10.438709462458258 #
point $-1 -3.4956604793788841 -23.547287490664377 7.4212404741095783 #
point $-1 4.2549356558886089 -23.547287490664377 7.4212404741095783 #
straight-curve $-1 7.9162987184661517 26.409697174564318 56.240901402767712 0 0 -1 I I #
point $-1 7.9162987184661517 26.409697174564318 10.438709462458258 #
straight-curve $-1 -0.0050255831161258868 26.409697174564318 5.7937346779197583 -1 0 0 I I #
point $-1 7.9162987184661517 26.409697174564315 5.7937346779197583 #
point $-1 -0.010051166232251774 22.151392171272931 6.1908862073655468 #
End-of-ACIS-data 