500 0 2 0           
7 Unknown 11 ACIS 5.0 NT 24 Fri Mar 26 15:52:29 1999 
-1 9.9999999999999995e-007 1e-010 
body $-1 $2 $-1 $3 #
body $-1 $4 $-1 $5 #
lump $-1 $-1 $6 $0 #
transform $-1 1 0 0 0 1 0 0 0 1 48.728293710135198 31.138103905729448 11.25483710495002 1 rotate no_reflect no_shear #
lump $-1 $-1 $7 $1 #
transform $-1 1 0 0 0 1 0 0 0 1 48.728293710135198 31.138103905729448 11.25483710495002 1 rotate no_reflect no_shear #
shell $-1 $-1 $-1 $8 $-1 $2 #
shell $-1 $-1 $-1 $9 $-1 $4 #
face $-1 $10 $11 $6 $-1 $12 forward single #
face $-1 $13 $14 $7 $-1 $15 reversed single #
face $-1 $16 $17 $6 $-1 $18 reversed single #
loop $-1 $-1 $19 $8 #
plane-surface $-1 0 0 11.25483710495002 0 0 1 1 0 0 forward_v I I I I #
face $-1 $20 $21 $7 $-1 $22 reversed single #
loop $-1 $-1 $23 $9 #
plane-surface $-1 0 -24.638123768746858 7.2756114248192176 0 0 1 1 0 0 forward_v I I I I #
face $-1 $24 $25 $6 $-1 $26 reversed single #
loop $-1 $-1 $27 $10 #
plane-surface $-1 0 0 -11.25483710495002 0 0 1 1 0 0 forward_v I I I I #
coedge $-1 $28 $29 $30 $31 forward $11 $-1 #
face $-1 $32 $33 $7 $-1 $34 reversed single #
loop $-1 $-1 $35 $13 #
plane-surface $-1 0 -18.138143631764272 9.265224264884619 0 -1 0 0 0 -1 forward_v I I I I #
coedge $-1 $36 $37 $38 $39 reversed $14 $-1 #
face $-1 $40 $41 $6 $-1 $42 reversed single #
loop $-1 $-1 $43 $16 #
plane-surface $-1 0 -31.138103905729448 0 0 1 0 0 0 1 forward_v I I I I #
coedge $-1 $44 $45 $46 $47 forward $17 $-1 #
coedge $-1 $48 $19 $49 $50 forward $11 $-1 #
coedge $-1 $19 $48 $51 $52 forward $11 $-1 #
coedge $-1 $53 $54 $19 $31 reversed $55 $-1 #
edge $-1 $56 -31.138103905729448 $57 31.138103905729448 $30 $58 forward 7 unknown #
face $-1 $59 $60 $7 $-1 $61 reversed single #
loop $-1 $-1 $62 $20 #
plane-surface $-1 -48.728293710135198 0 0 1 0 0 0 0 -1 forward_v I I I I #
coedge $-1 $63 $64 $65 $66 reversed $21 $-1 #
coedge $-1 $67 $23 $68 $69 reversed $14 $-1 #
coedge $-1 $23 $67 $63 $70 forward $14 $-1 #
coedge $-1 $65 $71 $23 $39 forward $72 $-1 #
edge $-1 $73 -18.819042021356015 $74 -5.8190817473908432 $38 $75 forward 7 unknown #
face $-1 $76 $77 $6 $-1 $78 reversed single #
loop $-1 $-1 $79 $24 #
plane-surface $-1 -48.728293710135198 0 0 1 0 0 0 0 -1 forward_v I I I I #
coedge $-1 $80 $51 $81 $82 forward $25 $-1 #
coedge $-1 $83 $27 $80 $84 forward $17 $-1 #
coedge $-1 $27 $83 $85 $86 forward $17 $-1 #
coedge $-1 $54 $53 $27 $47 reversed $55 $-1 #
edge $-1 $87 -31.138103905729448 $88 31.138103905729448 $46 $89 forward 7 unknown #
coedge $-1 $29 $28 $90 $91 forward $11 $-1 #
coedge $-1 $92 $93 $28 $50 reversed $77 $-1 #
edge $-1 $57 -48.728293710135198 $94 48.728293710135198 $49 $95 forward 7 unknown #
coedge $-1 $43 $96 $29 $52 reversed $25 $-1 #
edge $-1 $97 -48.728293710135198 $56 48.728293710135198 $51 $98 forward 7 unknown #
coedge $-1 $46 $30 $96 $99 forward $55 $-1 #
coedge $-1 $30 $46 $92 $100 reversed $55 $-1 #
loop $-1 $-1 $53 $76 #
vertex $-1 $31 $101 #
vertex $-1 $31 $102 #
straight-curve $-1 48.728293710135198 0 11.25483710495002 0 1 0 I I #
face $-1 $103 $104 $7 $-1 $105 forward single #
loop $-1 $-1 $68 $32 #
plane-surface $-1 0 -31.138103905729448 0 0 1 0 0 0 1 forward_v I I I I #
coedge $-1 $106 $107 $108 $109 forward $33 $-1 #
coedge $-1 $108 $35 $37 $70 reversed $21 $-1 #
coedge $-1 $35 $108 $110 $111 reversed $21 $-1 #
coedge $-1 $112 $38 $35 $66 forward $72 $-1 #
edge $-1 $74 2.6429992923769081 $113 6.6222249725077109 $65 $114 forward 7 unknown #
coedge $-1 $37 $36 $106 $115 reversed $14 $-1 #
coedge $-1 $116 $117 $36 $69 forward $60 $-1 #
edge $-1 $118 -48.728293710135198 $73 48.728293710135198 $68 $119 forward 7 unknown #
edge $-1 $120 -48.728293710135198 $74 48.728293710135198 $63 $121 forward 7 unknown #
coedge $-1 $38 $112 $116 $122 forward $72 $-1 #
loop $-1 $-1 $65 $103 #
vertex $-1 $69 $123 #
vertex $-1 $39 $124 #
straight-curve $-1 48.728293710135198 -12.319061884373429 7.2756114248192176 0 1 0 I I #
face $-1 $-1 $55 $6 $-1 $125 reversed single #
loop $-1 $-1 $92 $40 #
plane-surface $-1 0 31.138103905729448 0 0 -1 0 0 0 -1 forward_v I I I I #
coedge $-1 $126 $90 $93 $127 forward $41 $-1 #
coedge $-1 $96 $43 $44 $84 reversed $25 $-1 #
coedge $-1 $90 $126 $43 $82 reversed $41 $-1 #
edge $-1 $97 -11.25483710495002 $128 11.25483710495002 $81 $129 forward 7 unknown #
coedge $-1 $45 $44 $126 $130 forward $17 $-1 #
edge $-1 $88 -48.728293710135198 $128 48.728293710135198 $80 $131 forward 7 unknown #
coedge $-1 $93 $92 $45 $86 reversed $77 $-1 #
edge $-1 $132 -48.728293710135198 $87 48.728293710135198 $85 $133 forward 7 unknown #
vertex $-1 $47 $134 #
vertex $-1 $99 $135 #
straight-curve $-1 48.728293710135198 0 -11.25483710495002 0 -1 0 I I #
coedge $-1 $79 $81 $48 $91 reversed $41 $-1 #
edge $-1 $94 -31.138103905729448 $97 31.138103905729448 $90 $136 forward 7 unknown #
coedge $-1 $85 $49 $54 $100 forward $77 $-1 #
coedge $-1 $49 $85 $79 $127 reversed $77 $-1 #
vertex $-1 $50 $137 #
straight-curve $-1 0 31.138103905729448 11.25483710495002 -1 0 0 I I #
coedge $-1 $51 $80 $53 $99 reversed $25 $-1 #
vertex $-1 $91 $138 #
straight-curve $-1 0 -31.138103905729448 11.25483710495002 1 0 0 I I #
edge $-1 $56 -11.25483710495002 $88 11.25483710495002 $53 $139 forward 7 unknown #
edge $-1 $57 -11.25483710495002 $87 11.25483710495002 $54 $140 forward 7 unknown #
point $-1 48.728293710135198 -31.138103905729448 11.25483710495002 #
point $-1 48.728293710135198 31.138103905729448 11.25483710495002 #
face $-1 $-1 $72 $7 $-1 $141 reversed single #
loop $-1 $-1 $110 $59 #
plane-surface $-1 0 0 11.25483710495002 0 0 1 1 0 0 forward_v I I I I #
coedge $-1 $142 $62 $67 $115 forward $33 $-1 #
coedge $-1 $62 $142 $143 $144 reversed $33 $-1 #
coedge $-1 $64 $63 $62 $109 reversed $21 $-1 #
edge $-1 $145 -6.6222249725077109 $120 -2.6429992923769081 $62 $146 forward 7 unknown #
coedge $-1 $143 $147 $64 $111 forward $104 $-1 #
edge $-1 $113 -48.728293710135198 $145 48.728293710135198 $110 $148 forward 7 unknown #
coedge $-1 $71 $65 $147 $149 reversed $72 $-1 #
vertex $-1 $66 $150 #
straight-curve $-1 48.728293710135198 -18.138143631764272 4.6326121324423095 0 0 1 I I #
edge $-1 $120 5.8190817473908432 $118 18.819042021356015 $106 $151 forward 7 unknown #
coedge $-1 $152 $68 $71 $122 reversed $60 $-1 #
coedge $-1 $68 $152 $142 $153 forward $60 $-1 #
vertex $-1 $69 $154 #
straight-curve $-1 0 -31.138103905729448 7.2756114248192176 1 0 0 I I #
vertex $-1 $115 $155 #
straight-curve $-1 0 -18.138143631764272 7.2756114248192176 1 0 0 I I #
edge $-1 $156 -11.25483710495002 $73 -7.2756114248192176 $71 $157 forward 7 unknown #
point $-1 48.728293710135198 -31.138103905729444 7.2756114248192176 #
point $-1 48.728293710135198 -18.138143631764272 7.2756114248192176 #
plane-surface $-1 48.728293710135198 0 0 -1 0 0 0 0 1 forward_v I I I I #
coedge $-1 $81 $79 $83 $130 reversed $41 $-1 #
edge $-1 $94 -11.25483710495002 $132 11.25483710495002 $93 $158 forward 7 unknown #
vertex $-1 $130 $159 #
straight-curve $-1 -48.728293710135198 -31.138103905729448 0 0 0 -1 I I #
edge $-1 $128 -31.138103905729448 $132 31.138103905729448 $126 $160 forward 7 unknown #
straight-curve $-1 0 -31.138103905729448 -11.25483710495002 -1 0 0 I I #
vertex $-1 $86 $161 #
straight-curve $-1 0 31.138103905729448 -11.25483710495002 1 0 0 I I #
point $-1 48.728293710135198 31.138103905729448 -11.25483710495002 #
point $-1 48.728293710135198 -31.138103905729448 -11.25483710495002 #
straight-curve $-1 -48.728293710135198 0 11.25483710495002 0 -1 0 I I #
point $-1 -48.728293710135198 31.138103905729448 11.25483710495002 #
point $-1 -48.728293710135198 -31.138103905729448 11.25483710495002 #
straight-curve $-1 48.728293710135198 -31.138103905729448 0 0 0 -1 I I #
straight-curve $-1 48.728293710135198 31.138103905729448 0 0 0 -1 I I #
plane-surface $-1 48.728293710135198 0 0 -1 0 0 0 0 1 forward_v I I I I #
coedge $-1 $107 $106 $117 $153 reversed $33 $-1 #
coedge $-1 $162 $110 $107 $144 forward $104 $-1 #
edge $-1 $145 18.138143631764272 $163 31.138103905729448 $107 $164 forward 7 unknown #
vertex $-1 $144 $165 #
straight-curve $-1 -48.728293710135198 -18.138143631764272 4.6326121324423095 0 0 -1 I I #
coedge $-1 $110 $162 $112 $149 forward $104 $-1 #
straight-curve $-1 0 -18.138143631764272 11.25483710495002 -1 0 0 I I #
edge $-1 $156 -31.138103905729448 $113 -18.138143631764272 $112 $166 forward 7 unknown #
point $-1 48.728293710135198 -18.138143631764272 11.25483710495002 #
straight-curve $-1 -48.728293710135198 -12.319061884373429 7.2756114248192176 0 -1 0 I I #
coedge $-1 $117 $116 $162 $167 reversed $60 $-1 #
edge $-1 $163 -11.25483710495002 $118 -7.2756114248192176 $142 $168 forward 7 unknown #
point $-1 -48.728293710135198 -31.138103905729444 7.2756114248192176 #
point $-1 -48.728293710135198 -18.138143631764272 7.2756114248192176 #
vertex $-1 $149 $169 #
straight-curve $-1 48.728293710135198 -31.138103905729448 0 0 0 -1 I I #
straight-curve $-1 -48.728293710135198 31.138103905729448 0 0 0 -1 I I #
point $-1 -48.728293710135198 -31.138103905729448 -11.25483710495002 #
straight-curve $-1 -48.728293710135198 0 -11.25483710495002 0 1 0 I I #
point $-1 -48.728293710135198 31.138103905729448 -11.25483710495002 #
coedge $-1 $147 $143 $152 $167 forward $104 $-1 #
vertex $-1 $144 $170 #
straight-curve $-1 -48.728293710135198 0 11.25483710495002 0 -1 0 I I #
point $-1 -48.728293710135198 -18.138143631764272 11.25483710495002 #
straight-curve $-1 48.728293710135198 0 11.25483710495002 0 1 0 I I #
edge $-1 $163 -48.728293710135198 $156 48.728293710135198 $152 $171 forward 7 unknown #
straight-curve $-1 -48.728293710135198 -31.138103905729448 0 0 0 -1 I I #
point $-1 48.728293710135198 -31.138103905729448 11.25483710495002 #
point $-1 -48.728293710135198 -31.138103905729448 11.25483710495002 #
straight-curve $-1 0 -31.138103905729448 11.25483710495002 1 0 0 I I #
End-of-ACIS-data 