500 0 9 0           
7 Unknown 11 ACIS 5.0 NT 24 Thu Mar 25 23:24:58 1999 
-1 9.9999999999999995e-007 1e-010 
body $-1 $9 $-1 $10 #
body $-1 $11 $-1 $12 #
body $-1 $13 $-1 $14 #
body $-1 $15 $-1 $16 #
body $-1 $17 $-1 $18 #
body $-1 $19 $-1 $20 #
body $-1 $21 $-1 $22 #
body $-1 $23 $-1 $24 #
body $-1 $25 $-1 $26 #
lump $-1 $-1 $27 $0 #
transform $-1 1 0 0 0 1 0 0 0 1 55.659657582323675 29.45475717774745 10.77502785920302 1 rotate no_reflect no_shear #
lump $-1 $-1 $28 $1 #
transform $-1 1 0 0 0 1 0 0 0 1 55.659657582323675 29.45475717774745 10.77502785920302 1 rotate no_reflect no_shear #
lump $-1 $-1 $29 $2 #
transform $-1 1 0 0 0 1 0 0 0 1 55.659657582323675 29.45475717774745 10.77502785920302 1 rotate no_reflect no_shear #
lump $-1 $-1 $30 $3 #
transform $-1 1 0 0 0 1 0 0 0 1 55.659657582323675 29.45475717774745 10.77502785920302 1 rotate no_reflect no_shear #
lump $-1 $-1 $31 $4 #
transform $-1 1 0 0 0 1 0 0 0 1 55.659657582323675 29.45475717774745 10.77502785920302 1 rotate no_reflect no_shear #
lump $-1 $-1 $32 $5 #
transform $-1 1 0 0 0 1 0 0 0 1 55.659657582323675 29.45475717774745 10.77502785920302 1 rotate no_reflect no_shear #
lump $-1 $-1 $33 $6 #
transform $-1 1 0 0 0 1 0 0 0 1 55.659657582323675 29.45475717774745 10.77502785920302 1 rotate no_reflect no_shear #
lump $-1 $-1 $34 $7 #
transform $-1 1 0 0 0 1 0 0 0 1 55.659657582323675 29.45475717774745 10.77502785920302 1 rotate no_reflect no_shear #
lump $-1 $-1 $35 $8 #
transform $-1 1 0 0 0 1 0 0 0 1 55.659657582323675 29.45475717774745 10.77502785920302 1 rotate no_reflect no_shear #
shell $-1 $-1 $-1 $36 $-1 $9 #
shell $-1 $-1 $-1 $37 $-1 $11 #
shell $-1 $-1 $-1 $38 $-1 $13 #
shell $-1 $-1 $-1 $39 $-1 $15 #
shell $-1 $-1 $-1 $40 $-1 $17 #
shell $-1 $-1 $-1 $41 $-1 $19 #
shell $-1 $-1 $-1 $42 $-1 $21 #
shell $-1 $-1 $-1 $43 $-1 $23 #
shell $-1 $-1 $-1 $44 $-1 $25 #
face $-1 $45 $46 $27 $-1 $47 forward single #
face $-1 $48 $49 $28 $-1 $50 forward single #
face $-1 $51 $52 $29 $-1 $53 reversed single #
face $-1 $54 $55 $30 $-1 $56 forward single #
face $-1 $57 $58 $31 $-1 $59 forward single #
face $-1 $60 $61 $32 $-1 $62 reversed single #
face $-1 $63 $64 $33 $-1 $65 forward single #
face $-1 $66 $67 $34 $-1 $68 forward single #
face $-1 $69 $70 $35 $-1 $71 forward single #
face $-1 $72 $73 $27 $-1 $74 reversed single #
loop $-1 $-1 $75 $36 #
plane-surface $-1 0 0 10.77502785920302 0 0 1 1 0 0 forward_v I I I I #
face $-1 $76 $77 $28 $-1 $78 reversed single #
loop $-1 $-1 $79 $37 #
plane-surface $-1 0 -29.45475717774745 0 0 1 0 0 0 1 forward_v I I I I #
face $-1 $80 $81 $29 $-1 $82 reversed single #
loop $-1 $-1 $83 $38 #
plane-surface $-1 72.115500902654361 -3.9389442044468019 163.63076386858586 0 -1 0 -0.77714596973225614 0 -0.62932038083071107 forward_v I I I I #
face $-1 $84 $85 $30 $-1 $86 forward single #
loop $-1 $87 $88 $39 #
cone-surface $-1 53.661860371647577 -11.60400304468013 8.5184647881777522 -0.77714596973225614 0 -0.62932038083071107 0.31466019041535553 0 -0.38857298486612807 1 I I 0 1 0.5 forward I I I I #
face $-1 $89 $90 $31 $-1 $91 forward single #
loop $-1 $92 $93 $40 #
cone-surface $-1 53.661860371647577 -7.0049677405401312 8.5184647881777522 -0.77714596973225614 0 -0.62932038083071107 0.31466019041535553 0 -0.38857298486612807 1 I I 0 1 0.5 forward I I I I #
face $-1 $94 $95 $32 $-1 $96 reversed single #
loop $-1 $-1 $97 $41 #
plane-surface $-1 -121.09151016733463 14.842133145928695 95.655756580354407 0 1 0 -0.5877852598018023 0 0.80901698891910034 forward_v I I I I #
face $-1 $98 $99 $33 $-1 $100 forward single #
loop $-1 $101 $102 $42 #
cone-surface $-1 -51.791392473881686 17.010396297199616 7.7667080481403721 0.5877852598018023 0 -0.80901698891910034 0.40450849445955017 0 0.29389262990090115 1 I I 0 1 0.5 forward I I I I #
face $-1 $103 $104 $34 $-1 $105 forward single #
loop $-1 $106 $107 $43 #
cone-surface $-1 -51.791392473881686 20.262791024106004 7.7667080481403721 0.5877852598018023 0 -0.80901698891910034 0.40450849445955017 0 0.29389262990090115 1 I I 0 1 0.5 forward I I I I #
face $-1 $108 $109 $35 $-1 $110 forward single #
loop $-1 $111 $112 $44 #
cone-surface $-1 -51.791392473881686 23.515185751012393 7.7667080481403721 0.5877852598018023 0 -0.80901698891910034 0.40450849445955017 0 0.29389262990090115 1 I I 0 1 0.5 forward I I I I #
face $-1 $113 $114 $27 $-1 $115 reversed single #
loop $-1 $-1 $116 $45 #
plane-surface $-1 0 0 -10.77502785920302 0 0 1 1 0 0 forward_v I I I I #
coedge $-1 $117 $118 $119 $120 forward $46 $-1 #
face $-1 $121 $122 $28 $-1 $123 forward single #
loop $-1 $-1 $124 $48 #
plane-surface $-1 -55.659657582323675 0 0 1 0 0 0 0 -1 forward_v I I I I #
coedge $-1 $125 $126 $127 $128 forward $49 $-1 #
face $-1 $129 $130 $29 $-1 $131 reversed single #
loop $-1 $-1 $132 $51 #
plane-surface $-1 -14.395856230906148 -9.3044853926101325 93.575250055356037 0.77714596973225614 0 0.62932038083071107 0.62932038083071107 0 -0.77714596973225614 forward_v I I I I #
coedge $-1 $133 $134 $135 $136 reversed $52 $-1 #
face $-1 $-1 $137 $30 $-1 $138 forward single #
loop $-1 $139 $140 $54 #
cone-surface $-1 52.972385536810648 -11.60400304468013 7.9601390906485552 -0.77714596973225614 0 -0.62932038083071107 0.15733009520767777 0 -0.19428649243306403 1 I I -0.70710678118654746 0.70710678118654746 0.25 forward I I I I #
loop $-1 $-1 $141 $39 #
coedge $-1 $88 $88 $142 $143 reversed $55 $-1 #
face $-1 $-1 $144 $31 $-1 $145 forward single #
loop $-1 $146 $147 $57 #
cone-surface $-1 52.972385536810648 -7.0049677405401312 7.9601390906485552 -0.77714596973225614 0 -0.62932038083071107 0.15733009520767777 0 -0.19428649243306403 1 I I -0.70710678118654746 0.70710678118654746 0.25 forward I I I I #
loop $-1 $-1 $148 $40 #
coedge $-1 $93 $93 $149 $150 reversed $58 $-1 #
face $-1 $151 $152 $32 $-1 $153 reversed single #
loop $-1 $-1 $154 $60 #
plane-surface $-1 -55.659657582323675 20.262791024106004 5.5965394173150571 -0.5877852598018023 0 0.80901698891910034 0.80901698891910034 0 0.5877852598018023 forward_v I I I I #
coedge $-1 $155 $156 $157 $158 reversed $61 $-1 #
face $-1 $-1 $159 $33 $-1 $160 forward single #
loop $-1 $161 $162 $63 #
cone-surface $-1 -51.339969914317876 17.010396297199616 7.1453782107919306 0.5877852598018023 0 -0.80901698891910034 0.20225424722977509 0 0.14694631495045057 1 I I -0.70710678118654746 0.70710678118654746 0.25 forward I I I I #
loop $-1 $-1 $163 $42 #
coedge $-1 $102 $102 $164 $165 reversed $64 $-1 #
face $-1 $-1 $166 $34 $-1 $167 forward single #
loop $-1 $168 $169 $66 #
cone-surface $-1 -51.339969914317876 20.262791024106004 7.1453782107919306 0.5877852598018023 0 -0.80901698891910034 0.20225424722977509 0 0.14694631495045057 1 I I -0.70710678118654746 0.70710678118654746 0.25 forward I I I I #
loop $-1 $-1 $170 $43 #
coedge $-1 $107 $107 $171 $172 reversed $67 $-1 #
face $-1 $-1 $173 $35 $-1 $174 forward single #
loop $-1 $175 $176 $69 #
cone-surface $-1 -51.339969914317876 23.515185751012393 7.1453782107919306 0.5877852598018023 0 -0.80901698891910034 0.20225424722977509 0 0.14694631495045057 1 I I -0.70710678118654746 0.70710678118654746 0.25 forward I I I I #
loop $-1 $-1 $177 $44 #
coedge $-1 $112 $112 $178 $179 reversed $70 $-1 #
face $-1 $180 $181 $27 $-1 $182 reversed single #
loop $-1 $-1 $183 $72 #
plane-surface $-1 0 -29.45475717774745 0 0 1 0 0 0 1 forward_v I I I I #
coedge $-1 $184 $185 $186 $187 forward $73 $-1 #
coedge $-1 $188 $75 $189 $190 forward $46 $-1 #
coedge $-1 $75 $188 $191 $192 forward $46 $-1 #
coedge $-1 $193 $194 $75 $120 reversed $195 $-1 #
edge $-1 $196 -29.45475717774745 $197 29.45475717774745 $119 $198 forward 7 unknown #
face $-1 $199 $200 $28 $-1 $201 reversed single #
loop $-1 $-1 $202 $76 #
plane-surface $-1 0 -33.630253935122752 0.65017008365223905 0 0 1 1 0 0 forward_v I I I I #
coedge $-1 $203 $204 $126 $205 forward $77 $-1 #
coedge $-1 $206 $79 $207 $208 reversed $49 $-1 #
coedge $-1 $79 $206 $124 $205 reversed $49 $-1 #
coedge $-1 $209 $202 $79 $128 reversed $122 $-1 #
edge $-1 $210 -55.659657582323675 $211 55.659657582323675 $127 $212 forward 7 unknown #
face $-1 $213 $214 $29 $-1 $215 reversed single #
loop $-1 $-1 $216 $80 #
plane-surface $-1 72.115500902654361 -14.670026580773463 163.63076386858586 0 1 0 0.77714596973225614 0 0.62932038083071107 forward_v I I I I #
coedge $-1 $217 $218 $219 $220 reversed $81 $-1 #
coedge $-1 $134 $83 $221 $222 reversed $52 $-1 #
coedge $-1 $83 $133 $217 $223 reversed $52 $-1 #
coedge $-1 $219 $224 $83 $136 forward $225 $-1 #
edge $-1 $226 -19.601907130996494 $227 -16.596689394452 $135 $228 forward 7 unknown #
loop $-1 $-1 $142 $84 #
plane-surface $-1 -14.395856230906148 -9.3044853926101325 93.575250055356037 0.77714596973225614 0 0.62932038083071107 0.62932038083071107 0 -0.77714596973225614 forward_v I I I I #
loop $-1 $-1 $229 $54 #
coedge $-1 $140 $140 $141 $230 reversed $85 $-1 #
coedge $-1 $141 $141 $140 $230 forward $87 $-1 #
coedge $-1 $142 $142 $88 $143 forward $137 $-1 #
edge $-1 $231 0 $231 6.2831853071796004 $142 $232 forward 7 unknown #
loop $-1 $-1 $149 $89 #
plane-surface $-1 -14.395856230906148 -9.3044853926101325 93.575250055356037 0.77714596973225614 0 0.62932038083071107 0.62932038083071107 0 -0.77714596973225614 forward_v I I I I #
loop $-1 $-1 $233 $57 #
coedge $-1 $147 $147 $148 $234 reversed $90 $-1 #
coedge $-1 $148 $148 $147 $234 forward $92 $-1 #
coedge $-1 $149 $149 $93 $150 forward $144 $-1 #
edge $-1 $235 0 $235 6.2831853071796004 $149 $236 forward 7 unknown #
face $-1 $237 $238 $32 $-1 $239 forward single #
loop $-1 $-1 $240 $94 #
plane-surface $-1 -121.09151016733463 25.683448902283313 95.655756580354407 0 -1 0 0.5877852598018023 0 -0.80901698891910034 forward_v I I I I #
coedge $-1 $241 $242 $243 $244 reversed $95 $-1 #
coedge $-1 $156 $97 $245 $246 reversed $61 $-1 #
coedge $-1 $97 $155 $241 $247 reversed $61 $-1 #
coedge $-1 $243 $248 $97 $158 forward $238 $-1 #
edge $-1 $249 4.8860975013436416 $250 12.013675229000903 $157 $251 forward 7 unknown #
loop $-1 $-1 $164 $98 #
plane-surface $-1 -55.659657582323675 20.262791024106004 5.5965394173150571 -0.5877852598018023 0 0.80901698891910034 0.80901698891910034 0 0.5877852598018023 forward_v I I I I #
loop $-1 $-1 $252 $63 #
coedge $-1 $162 $162 $163 $253 reversed $99 $-1 #
coedge $-1 $163 $163 $162 $253 forward $101 $-1 #
coedge $-1 $164 $164 $102 $165 forward $159 $-1 #
edge $-1 $254 0 $254 6.2831853071796004 $164 $255 forward 7 unknown #
loop $-1 $-1 $171 $103 #
plane-surface $-1 -55.659657582323675 20.262791024106004 5.5965394173150571 -0.5877852598018023 0 0.80901698891910034 0.80901698891910034 0 0.5877852598018023 forward_v I I I I #
loop $-1 $-1 $256 $66 #
coedge $-1 $169 $169 $170 $257 reversed $104 $-1 #
coedge $-1 $170 $170 $169 $257 forward $106 $-1 #
coedge $-1 $171 $171 $107 $172 forward $166 $-1 #
edge $-1 $258 0 $258 6.2831853071796004 $171 $259 forward 7 unknown #
loop $-1 $-1 $178 $108 #
plane-surface $-1 -55.659657582323675 20.262791024106004 5.5965394173150571 -0.5877852598018023 0 0.80901698891910034 0.80901698891910034 0 0.5877852598018023 forward_v I I I I #
loop $-1 $-1 $260 $69 #
coedge $-1 $176 $176 $177 $261 reversed $109 $-1 #
coedge $-1 $177 $177 $176 $261 forward $111 $-1 #
coedge $-1 $178 $178 $112 $179 forward $173 $-1 #
edge $-1 $262 0 $262 6.2831853071796004 $178 $263 forward 7 unknown #
face $-1 $264 $265 $27 $-1 $266 reversed single #
loop $-1 $-1 $267 $113 #
plane-surface $-1 -55.659657582323675 0 0 1 0 0 0 0 -1 forward_v I I I I #
coedge $-1 $268 $191 $269 $270 forward $114 $-1 #
coedge $-1 $271 $116 $268 $272 forward $73 $-1 #
coedge $-1 $116 $271 $273 $274 forward $73 $-1 #
coedge $-1 $194 $193 $116 $187 reversed $195 $-1 #
edge $-1 $275 -29.45475717774745 $276 29.45475717774745 $186 $277 forward 7 unknown #
coedge $-1 $118 $117 $278 $279 forward $46 $-1 #
coedge $-1 $280 $281 $117 $190 reversed $265 $-1 #
edge $-1 $197 -55.659657582323675 $282 55.659657582323675 $189 $283 forward 7 unknown #
coedge $-1 $183 $284 $118 $192 reversed $114 $-1 #
edge $-1 $285 -55.659657582323675 $196 55.659657582323675 $191 $286 forward 7 unknown #
coedge $-1 $186 $119 $284 $287 forward $195 $-1 #
coedge $-1 $119 $186 $280 $288 reversed $195 $-1 #
loop $-1 $-1 $193 $264 #
vertex $-1 $120 $289 #
vertex $-1 $120 $290 #
straight-curve $-1 55.659657582323675 0 10.77502785920302 0 1 0 I I #
face $-1 $291 $292 $28 $-1 $293 reversed single #
loop $-1 $-1 $294 $121 #
plane-surface $-1 0 -33.630253935122752 -2.6572146388518698 0 0 1 1 0 0 forward_v I I I I #
coedge $-1 $127 $295 $296 $297 forward $122 $-1 #
coedge $-1 $298 $124 $299 $300 reversed $77 $-1 #
coedge $-1 $124 $298 $209 $301 reversed $77 $-1 #
edge $-1 $210 -0.65017008365223905 $302 2.6572146388518698 $124 $303 forward 7 unknown #
coedge $-1 $126 $125 $304 $305 forward $49 $-1 #
coedge $-1 $296 $306 $125 $208 forward $307 $-1 #
edge $-1 $308 -2.6572146388518698 $211 0.65017008365223905 $207 $309 forward 7 unknown #
coedge $-1 $295 $127 $204 $301 forward $122 $-1 #
vertex $-1 $205 $310 #
vertex $-1 $297 $311 #
straight-curve $-1 0 -29.45475717774745 0.65017008365223905 1 0 0 I I #
face $-1 $-1 $225 $29 $-1 $312 forward single #
loop $-1 $-1 $313 $129 #
plane-surface $-1 55.659657582323675 0 0 -1 0 0 0 0 1 forward_v I I I I #
coedge $-1 $314 $315 $316 $317 reversed $130 $-1 #
coedge $-1 $318 $132 $134 $223 forward $81 $-1 #
coedge $-1 $132 $318 $314 $319 forward $81 $-1 #
coedge $-1 $316 $135 $132 $220 forward $225 $-1 #
edge $-1 $227 -0.71329849185826433 $320 10.017783884468397 $219 $321 forward 7 unknown #
coedge $-1 $322 $323 $133 $222 forward $214 $-1 #
edge $-1 $324 -74.751489012497402 $226 -71.040354075089908 $221 $325 forward 7 unknown #
edge $-1 $227 106.54397683446714 $324 111.31931516464735 $134 $326 forward 7 unknown #
coedge $-1 $135 $316 $322 $327 forward $225 $-1 #
loop $-1 $-1 $316 $213 #
vertex $-1 $222 $328 #
vertex $-1 $136 $329 #
straight-curve $-1 36.05775045132718 -3.9389442044468019 10.775027859203021 -1 0 0 I I #
coedge $-1 $229 $229 $-1 $330 reversed $139 $-1 #
edge $-1 $331 0 $331 6.2831853071796004 $140 $332 forward 7 unknown #
vertex $-1 $143 $333 #
ellipse-curve $-1 54.157048714051435 -11.60400304468013 8.9194603904992693 0.77714596973225614 0 0.62932038083071107 0.31466019041535553 0 -0.38857298486612807 1 I I #
coedge $-1 $233 $233 $-1 $334 reversed $146 $-1 #
edge $-1 $335 0 $335 6.2831853071796004 $147 $336 forward 7 unknown #
vertex $-1 $150 $337 #
ellipse-curve $-1 54.157048714051435 -7.0049677405401312 8.9194603904992693 0.77714596973225614 0 0.62932038083071107 0.31466019041535553 0 -0.38857298486612807 1 I I #
face $-1 $-1 $338 $32 $-1 $339 reversed single #
loop $-1 $-1 $157 $151 #
plane-surface $-1 0 0 10.77502785920302 0 0 1 1 0 0 forward_v I I I I #
coedge $-1 $340 $341 $342 $343 reversed $152 $-1 #
coedge $-1 $344 $154 $156 $247 forward $95 $-1 #
coedge $-1 $154 $344 $340 $345 forward $95 $-1 #
coedge $-1 $342 $157 $154 $244 forward $238 $-1 #
edge $-1 $250 4.7107376338756932 $346 15.552053390230311 $243 $347 forward 7 unknown #
coedge $-1 $348 $349 $155 $246 forward $338 $-1 #
edge $-1 $350 -42.231338872862146 $249 -37.052850430974182 $245 $351 forward 7 unknown #
edge $-1 $250 -8.8101706457118674 $350 0 $156 $352 forward 7 unknown #
coedge $-1 $157 $342 $348 $353 forward $238 $-1 #
vertex $-1 $158 $354 #
vertex $-1 $158 $355 #
straight-curve $-1 -60.545755083667316 14.842133145928695 10.775027859203021 1 0 0 I I #
coedge $-1 $252 $252 $-1 $356 reversed $161 $-1 #
edge $-1 $357 0 $357 6.2831853071796004 $162 $358 forward 7 unknown #
vertex $-1 $165 $359 #
ellipse-curve $-1 -52.095868718495041 17.010396297199616 8.1857836382590392 -0.5877852598018023 0 0.80901698891910034 0.40450849445955017 0 0.29389262990090115 1 I I #
coedge $-1 $256 $256 $-1 $360 reversed $168 $-1 #
edge $-1 $361 0 $361 6.2831853071796004 $169 $362 forward 7 unknown #
vertex $-1 $172 $363 #
ellipse-curve $-1 -52.095868718495041 20.262791024106004 8.1857836382590392 -0.5877852598018023 0 0.80901698891910034 0.40450849445955017 0 0.29389262990090115 1 I I #
coedge $-1 $260 $260 $-1 $364 reversed $175 $-1 #
edge $-1 $365 0 $365 6.2831853071796004 $176 $366 forward 7 unknown #
vertex $-1 $179 $367 #
ellipse-curve $-1 -52.095868718495041 23.515185751012393 8.1857836382590392 -0.5877852598018023 0 0.80901698891910034 0.40450849445955017 0 0.29389262990090115 1 I I #
face $-1 $-1 $195 $27 $-1 $368 reversed single #
loop $-1 $-1 $280 $180 #
plane-surface $-1 0 29.45475717774745 0 0 -1 0 0 0 -1 forward_v I I I I #
coedge $-1 $369 $278 $281 $370 forward $181 $-1 #
coedge $-1 $284 $183 $184 $272 reversed $114 $-1 #
coedge $-1 $278 $369 $183 $270 reversed $181 $-1 #
edge $-1 $285 -10.77502785920302 $371 10.77502785920302 $269 $372 forward 7 unknown #
coedge $-1 $185 $184 $369 $373 forward $73 $-1 #
edge $-1 $276 -55.659657582323675 $371 55.659657582323675 $268 $374 forward 7 unknown #
coedge $-1 $281 $280 $185 $274 reversed $265 $-1 #
edge $-1 $375 -55.659657582323675 $275 55.659657582323675 $273 $376 forward 7 unknown #
vertex $-1 $187 $377 #
vertex $-1 $287 $378 #
straight-curve $-1 55.659657582323675 0 -10.77502785920302 0 -1 0 I I #
coedge $-1 $267 $269 $188 $279 reversed $181 $-1 #
edge $-1 $282 -29.45475717774745 $285 29.45475717774745 $278 $379 forward 7 unknown #
coedge $-1 $273 $189 $194 $288 forward $265 $-1 #
coedge $-1 $189 $273 $267 $370 reversed $265 $-1 #
vertex $-1 $190 $380 #
straight-curve $-1 0 29.45475717774745 10.77502785920302 -1 0 0 I I #
coedge $-1 $191 $268 $193 $287 reversed $114 $-1 #
vertex $-1 $279 $381 #
straight-curve $-1 0 -29.45475717774745 10.77502785920302 1 0 0 I I #
edge $-1 $196 -10.77502785920302 $276 10.77502785920302 $193 $382 forward 7 unknown #
edge $-1 $197 -10.77502785920302 $275 10.77502785920302 $194 $383 forward 7 unknown #
point $-1 55.659657582323675 -29.45475717774745 10.77502785920302 #
point $-1 55.659657582323675 29.45475717774745 10.77502785920302 #
face $-1 $-1 $307 $28 $-1 $384 reversed single #
loop $-1 $-1 $385 $199 #
plane-surface $-1 0 -37.805750692498052 -1.0035222775998154 0 1 0 0 0 1 forward_v I I I I #
coedge $-1 $386 $304 $306 $387 forward $200 $-1 #
coedge $-1 $202 $209 $388 $389 forward $122 $-1 #
coedge $-1 $390 $207 $202 $297 reversed $307 $-1 #
edge $-1 $391 -4.1754967573752992 $211 4.1754967573753028 $296 $392 forward 7 unknown #
coedge $-1 $204 $203 $385 $393 reversed $77 $-1 #
coedge $-1 $304 $386 $203 $300 forward $200 $-1 #
edge $-1 $394 -4.1754967573752992 $302 4.1754967573753028 $203 $395 forward 7 unknown #
edge $-1 $210 -4.1754967573753028 $396 4.1754967573752992 $204 $397 forward 7 unknown #
vertex $-1 $205 $398 #
straight-curve $-1 -55.659657582323675 -29.45475717774745 0 0 0 -1 I I #
coedge $-1 $294 $299 $206 $305 reversed $200 $-1 #
edge $-1 $308 -55.659657582323675 $302 55.659657582323675 $304 $399 forward 7 unknown #
coedge $-1 $207 $390 $294 $387 reversed $307 $-1 #
loop $-1 $-1 $207 $291 #
vertex $-1 $208 $400 #
straight-curve $-1 55.659657582323675 -29.45475717774745 0 0 0 1 I I #
point $-1 -55.659657582323675 -29.45475717774745 0.65017008365223905 #
point $-1 55.659657582323675 -29.45475717774745 0.65017008365223905 #
plane-surface $-1 0 0 10.77502785920302 0 0 1 1 0 0 forward_v I I I I #
coedge $-1 $323 $322 $315 $401 forward $214 $-1 #
coedge $-1 $315 $216 $218 $319 reversed $130 $-1 #
coedge $-1 $216 $314 $313 $401 reversed $130 $-1 #
coedge $-1 $224 $219 $216 $317 forward $225 $-1 #
edge $-1 $320 16.596689394452 $402 19.601907130996494 $316 $403 forward 7 unknown #
coedge $-1 $218 $217 $323 $404 reversed $81 $-1 #
edge $-1 $405 -111.31931516464735 $320 -106.54397683446714 $314 $406 forward 7 unknown #
vertex $-1 $220 $407 #
straight-curve $-1 52.65443984577918 -4.6522426963050663 10.775027859203021 0 -1 0 I I #
coedge $-1 $313 $221 $224 $327 reversed $214 $-1 #
coedge $-1 $221 $313 $318 $404 forward $214 $-1 #
vertex $-1 $222 $408 #
straight-curve $-1 55.659657582323675 -3.9389442044468019 81.81538193429293 0 0 1 I I #
straight-curve $-1 -14.395856230906148 -3.9389442044468019 93.575250055356037 0.62932038083071107 0 -0.77714596973225614 I I #
edge $-1 $402 -14.670026580773463 $226 -3.9389442044468019 $322 $409 forward 7 unknown #
point $-1 55.659657582323675 -3.9389442044468019 10.77502785920302 #
point $-1 52.65443984577918 -3.9389442044468019 10.775027859203021 #
edge $-1 $410 1 $410 0 $229 $-1 forward 7 unknown #
vertex $-1 $230 $411 #
ellipse-curve $-1 53.166672029243713 -11.60400304468013 8.1174691858562333 0.77714596973225614 0 0.62932038083071107 0.31466019041535553 0 -0.38857298486612807 1 I I #
point $-1 54.471708904466794 -11.60400304468013 8.5308874056331412 #
edge $-1 $412 1 $412 0 $233 $-1 forward 7 unknown #
vertex $-1 $234 $413 #
ellipse-curve $-1 53.166672029243713 -7.0049677405401312 8.1174691858562333 0.77714596973225614 0 0.62932038083071107 0.31466019041535553 0 -0.38857298486612807 1 I I #
point $-1 54.471708904466794 -7.0049677405401312 8.5308874056331412 #
loop $-1 $-1 $245 $237 #
plane-surface $-1 -55.659657582323675 0 0 1 0 0 0 0 -1 forward_v I I I I #
coedge $-1 $341 $240 $242 $345 reversed $152 $-1 #
coedge $-1 $240 $340 $414 $415 reversed $152 $-1 #
coedge $-1 $248 $243 $240 $343 forward $238 $-1 #
edge $-1 $346 -12.013675229000903 $416 -4.8860975013436416 $342 $417 forward 7 unknown #
coedge $-1 $242 $241 $349 $418 reversed $95 $-1 #
edge $-1 $419 0 $346 8.8101706457118674 $340 $420 forward 7 unknown #
vertex $-1 $244 $421 #
straight-curve $-1 -48.532079854666407 10.131395512053002 10.77502785920302 0 1 0 I I #
coedge $-1 $414 $245 $248 $353 reversed $338 $-1 #
coedge $-1 $245 $414 $344 $418 forward $338 $-1 #
vertex $-1 $246 $422 #
straight-curve $-1 -55.659657582323675 14.842133145928695 47.827878290177203 0 0 1 I I #
straight-curve $-1 -55.659657582323675 14.842133145928695 5.5965394173150571 -0.80901698891910034 0 -0.5877852598018023 I I #
edge $-1 $416 -25.683448902283313 $249 -14.842133145928695 $348 $423 forward 7 unknown #
point $-1 -55.659657582323675 14.842133145928695 10.77502785920302 #
point $-1 -48.532079854666414 14.842133145928695 10.77502785920302 #
edge $-1 $424 1 $424 0 $252 $-1 forward 7 unknown #
vertex $-1 $253 $425 #
ellipse-curve $-1 -51.486916229268324 17.010396297199616 7.3476324580217058 -0.5877852598018023 0 0.80901698891910034 0.40450849445955017 0 0.29389262990090115 1 I I #
point $-1 -51.691360224035492 17.010396297199616 8.4796762681599382 #
edge $-1 $426 1 $426 0 $256 $-1 forward 7 unknown #
vertex $-1 $257 $427 #
ellipse-curve $-1 -51.486916229268324 20.262791024106004 7.3476324580217058 -0.5877852598018023 0 0.80901698891910034 0.40450849445955017 0 0.29389262990090115 1 I I #
point $-1 -51.691360224035492 20.262791024106004 8.4796762681599382 #
edge $-1 $428 1 $428 0 $260 $-1 forward 7 unknown #
vertex $-1 $261 $429 #
ellipse-curve $-1 -51.486916229268324 23.515185751012393 7.3476324580217058 -0.5877852598018023 0 0.80901698891910034 0.40450849445955017 0 0.29389262990090115 1 I I #
point $-1 -51.691360224035492 23.515185751012393 8.4796762681599382 #
plane-surface $-1 55.659657582323675 0 0 -1 0 0 0 0 1 forward_v I I I I #
coedge $-1 $269 $267 $271 $373 reversed $181 $-1 #
edge $-1 $282 -10.77502785920302 $375 10.77502785920302 $281 $430 forward 7 unknown #
vertex $-1 $373 $431 #
straight-curve $-1 -55.659657582323675 -29.45475717774745 0 0 0 -1 I I #
edge $-1 $371 -29.45475717774745 $375 29.45475717774745 $369 $432 forward 7 unknown #
straight-curve $-1 0 -29.45475717774745 -10.77502785920302 -1 0 0 I I #
vertex $-1 $274 $433 #
straight-curve $-1 0 29.45475717774745 -10.77502785920302 1 0 0 I I #
point $-1 55.659657582323675 29.45475717774745 -10.77502785920302 #
point $-1 55.659657582323675 -29.45475717774745 -10.77502785920302 #
straight-curve $-1 -55.659657582323675 0 10.77502785920302 0 -1 0 I I #
point $-1 -55.659657582323675 29.45475717774745 10.77502785920302 #
point $-1 -55.659657582323675 -29.45475717774745 10.77502785920302 #
straight-curve $-1 55.659657582323675 -29.45475717774745 0 0 0 -1 I I #
straight-curve $-1 55.659657582323675 29.45475717774745 0 0 0 -1 I I #
plane-surface $-1 55.659657582323675 0 0 -1 0 0 0 0 1 forward_v I I I I #
coedge $-1 $434 $388 $298 $393 forward $292 $-1 #
coedge $-1 $299 $294 $434 $435 forward $200 $-1 #
edge $-1 $308 -4.1754967573753028 $436 4.1754967573752992 $306 $437 forward 7 unknown #
coedge $-1 $385 $438 $295 $389 reversed $292 $-1 #
edge $-1 $396 -55.659657582323675 $391 55.659657582323675 $388 $439 forward 7 unknown #
coedge $-1 $306 $296 $438 $440 forward $307 $-1 #
vertex $-1 $297 $441 #
straight-curve $-1 55.659657582323675 -33.630253935122752 0.65017008365223905 0 1 0 I I #
edge $-1 $396 -1.6536923612520544 $394 1.6536923612520544 $298 $442 forward 7 unknown #
vertex $-1 $300 $443 #
straight-curve $-1 -55.659657582323675 -33.630253935122752 -2.6572146388518698 0 1 0 I I #
vertex $-1 $301 $444 #
straight-curve $-1 -55.659657582323675 -33.630253935122752 0.65017008365223905 0 -1 0 I I #
point $-1 -55.659657582323675 -29.45475717774745 -2.6572146388518698 #
straight-curve $-1 0 -29.45475717774745 -2.6572146388518698 -1 0 0 I I #
point $-1 55.659657582323675 -29.45475717774745 -2.6572146388518698 #
edge $-1 $402 71.040354075089908 $405 74.751489012497402 $313 $445 forward 7 unknown #
vertex $-1 $327 $446 #
straight-curve $-1 36.05775045132718 -14.670026580773463 10.775027859203021 1 0 0 I I #
edge $-1 $405 -10.017783884468397 $324 0.71329849185826433 $323 $447 forward 7 unknown #
vertex $-1 $404 $448 #
straight-curve $-1 -14.395856230906148 -14.670026580773463 93.575250055356037 -0.62932038083071107 0 0.77714596973225614 I I #
point $-1 52.65443984577918 -14.670026580773463 10.775027859203021 #
point $-1 55.659657582323675 -3.9389442044468019 7.063892921795528 #
straight-curve $-1 55.659657582323675 0 10.77502785920302 0 1 0 I I #
vertex $-1 $330 $449 #
point $-1 53.481332219659066 -11.60400304468013 7.7288962009901052 #
vertex $-1 $334 $450 #
point $-1 53.481332219659066 -7.0049677405401312 7.7288962009901052 #
coedge $-1 $349 $348 $341 $415 forward $338 $-1 #
edge $-1 $416 37.052850430974182 $419 42.231338872862146 $414 $451 forward 7 unknown #
vertex $-1 $353 $452 #
straight-curve $-1 -60.545755083667316 25.683448902283313 10.775027859203021 -1 0 0 I I #
edge $-1 $419 -15.552053390230311 $350 -4.7107376338756932 $349 $453 forward 7 unknown #
vertex $-1 $418 $454 #
straight-curve $-1 -55.659657582323675 25.683448902283313 5.5965394173150571 0.80901698891910034 0 0.5877852598018023 I I #
point $-1 -48.532079854666414 25.683448902283313 10.77502785920302 #
point $-1 -55.659657582323675 14.842133145928695 5.5965394173150571 #
straight-curve $-1 -55.659657582323675 0 10.77502785920302 0 -1 0 I I #
vertex $-1 $356 $455 #
point $-1 -51.082407734808776 17.010396297199616 7.6415250879226067 #
vertex $-1 $360 $456 #
point $-1 -51.082407734808776 20.262791024106004 7.6415250879226067 #
vertex $-1 $364 $457 #
point $-1 -51.082407734808776 23.515185751012393 7.6415250879226067 #
straight-curve $-1 -55.659657582323675 29.45475717774745 0 0 0 -1 I I #
point $-1 -55.659657582323675 -29.45475717774745 -10.77502785920302 #
straight-curve $-1 -55.659657582323675 0 -10.77502785920302 0 1 0 I I #
point $-1 -55.659657582323675 29.45475717774745 -10.77502785920302 #
coedge $-1 $438 $385 $386 $435 reversed $292 $-1 #
edge $-1 $436 -55.659657582323675 $394 55.659657582323675 $434 $458 forward 7 unknown #
vertex $-1 $440 $459 #
straight-curve $-1 55.659657582323675 -33.630253935122752 -2.6572146388518698 0 -1 0 I I #
coedge $-1 $388 $434 $390 $440 reversed $292 $-1 #
straight-curve $-1 0 -37.805750692498052 0.65017008365223905 1 0 0 I I #
edge $-1 $391 -1.6536923612520544 $436 1.6536923612520544 $390 $460 forward 7 unknown #
point $-1 55.659657582323675 -37.805750692498052 0.65017008365223905 #
straight-curve $-1 -55.659657582323675 -37.805750692498052 -1.0035222775998154 0 0 -1 I I #
point $-1 -55.659657582323675 -37.805750692498052 -2.6572146388518698 #
point $-1 -55.659657582323675 -37.805750692498052 0.65017008365223905 #
straight-curve $-1 55.659657582323675 -14.670026580773463 81.81538193429293 0 0 -1 I I #
point $-1 55.659657582323675 -14.670026580773463 10.77502785920302 #
straight-curve $-1 55.659657582323675 -4.6522426963050663 7.0638929217955209 0 1 0 I I #
point $-1 55.659657582323675 -14.670026580773463 7.063892921795528 #
point $-1 52.778099044377583 -11.60400304468013 7.802808995440877 #
point $-1 52.778099044377583 -7.0049677405401312 7.802808995440877 #
straight-curve $-1 -55.659657582323675 25.683448902283313 47.827878290177203 0 0 -1 I I #
point $-1 -55.659657582323675 25.683448902283313 10.77502785920302 #
straight-curve $-1 -55.659657582323675 10.131395512053002 5.596539417315058 0 -1 0 I I #
point $-1 -55.659657582323675 25.683448902283313 5.5965394173150571 #
point $-1 -51.193023599367429 17.010396297199616 6.9431239635621553 #
point $-1 -51.193023599367429 20.262791024106004 6.9431239635621553 #
point $-1 -51.193023599367429 23.515185751012393 6.9431239635621553 #
straight-curve $-1 0 -37.805750692498052 -2.6572146388518698 -1 0 0 I I #
point $-1 55.659657582323675 -37.805750692498052 -2.6572146388518698 #
straight-curve $-1 55.659657582323675 -37.805750692498052 -1.0035222775998154 0 0 -1 I I #
End-of-ACIS-data 