500 0 10 0           
7 Unknown 11 ACIS 5.0 NT 24 Fri Mar 26 20:33:56 1999 
-1 9.9999999999999995e-007 1e-010 
body $-1 $10 $-1 $11 #
body $-1 $12 $-1 $13 #
body $-1 $14 $-1 $15 #
body $-1 $16 $-1 $17 #
body $-1 $18 $-1 $19 #
body $-1 $20 $-1 $21 #
body $-1 $22 $-1 $23 #
body $-1 $24 $-1 $25 #
body $-1 $26 $-1 $27 #
body $-1 $28 $-1 $29 #
lump $-1 $-1 $30 $0 #
transform $-1 1 0 0 0 1 0 0 0 1 45.573900570696125 28.384277030448601 11.334047031894666 1 rotate no_reflect no_shear #
lump $-1 $-1 $31 $1 #
transform $-1 1 0 0 0 1 0 0 0 1 45.573900570696125 28.384277030448601 11.334047031894666 1 rotate no_reflect no_shear #
lump $-1 $-1 $32 $2 #
transform $-1 1 0 0 0 1 0 0 0 1 45.573900570696125 28.384277030448601 11.334047031894666 1 rotate no_reflect no_shear #
lump $-1 $-1 $33 $3 #
transform $-1 1 0 0 0 1 0 0 0 1 45.573900570696125 28.384277030448601 11.334047031894666 1 rotate no_reflect no_shear #
lump $-1 $-1 $34 $4 #
transform $-1 1 0 0 0 1 0 0 0 1 45.573900570696125 28.384277030448601 11.334047031894666 1 rotate no_reflect no_shear #
lump $-1 $-1 $35 $5 #
transform $-1 1 0 0 0 1 0 0 0 1 45.573900570696125 28.384277030448601 11.334047031894666 1 rotate no_reflect no_shear #
lump $-1 $-1 $36 $6 #
transform $-1 1 0 0 0 1 0 0 0 1 45.573900570696125 28.384277030448601 11.334047031894666 1 rotate no_reflect no_shear #
lump $-1 $-1 $37 $7 #
transform $-1 1 0 0 0 1 0 0 0 1 45.573900570696125 28.384277030448601 11.334047031894666 1 rotate no_reflect no_shear #
lump $-1 $-1 $38 $8 #
transform $-1 1 0 0 0 1 0 0 0 1 45.573900570696125 28.384277030448601 11.334047031894666 1 rotate no_reflect no_shear #
lump $-1 $-1 $39 $9 #
transform $-1 1 0 0 0 1 0 0 0 1 45.573900570696125 28.384277030448601 11.334047031894666 1 rotate no_reflect no_shear #
shell $-1 $-1 $-1 $40 $-1 $10 #
shell $-1 $-1 $-1 $41 $-1 $12 #
shell $-1 $-1 $-1 $42 $-1 $14 #
shell $-1 $-1 $-1 $43 $-1 $16 #
shell $-1 $-1 $-1 $44 $-1 $18 #
shell $-1 $-1 $-1 $45 $-1 $20 #
shell $-1 $-1 $-1 $46 $-1 $22 #
shell $-1 $-1 $-1 $47 $-1 $24 #
shell $-1 $-1 $-1 $48 $-1 $26 #
shell $-1 $-1 $-1 $49 $-1 $28 #
face $-1 $50 $51 $30 $-1 $52 forward single #
face $-1 $53 $54 $31 $-1 $55 reversed single #
face $-1 $56 $57 $32 $-1 $58 reversed single #
face $-1 $59 $60 $33 $-1 $61 forward single #
face $-1 $62 $63 $34 $-1 $64 reversed single #
face $-1 $65 $66 $35 $-1 $67 forward single #
face $-1 $68 $69 $36 $-1 $70 reversed single #
face $-1 $71 $72 $37 $-1 $73 forward single #
face $-1 $74 $75 $38 $-1 $76 reversed single #
face $-1 $77 $78 $39 $-1 $79 forward single #
face $-1 $80 $81 $30 $-1 $82 reversed single #
loop $-1 $-1 $83 $40 #
plane-surface $-1 0 0 11.334047031894666 0 0 1 1 0 0 forward_v I I I I #
face $-1 $84 $85 $31 $-1 $86 reversed single #
loop $-1 $-1 $87 $41 #
plane-surface $-1 -44.073900570696125 -17.90928898614915 0 0 -1 0 0 0 -1 forward_v I I I I #
face $-1 $88 $89 $32 $-1 $90 reversed single #
loop $-1 $-1 $91 $42 #
plane-surface $-1 -33.807330581741105 61.717421743095088 106.97735021928554 1 0 0 0 -0.7660444514056185 -0.64278759981090561 forward_v I I I I #
face $-1 $92 $93 $33 $-1 $94 forward single #
loop $-1 $95 $96 $43 #
cone-surface $-1 -28.297140433544584 24.377991712138375 7.0206319872171026 0 -0.7660444514056185 -0.64278759981090561 1.5 0 0 1 I I 0 1 1.5 forward I I I I #
face $-1 $97 $98 $34 $-1 $99 reversed single #
loop $-1 $-1 $100 $44 #
plane-surface $-1 -14.942570292711387 61.717421743095088 106.97735021928554 1 0 0 0 -0.7660444514056185 -0.64278759981090561 forward_v I I I I #
face $-1 $101 $102 $35 $-1 $103 forward single #
loop $-1 $104 $105 $45 #
cone-surface $-1 -9.4323801445148661 24.377991712138375 7.0206319872171026 0 -0.7660444514056185 -0.64278759981090561 1.5 0 0 1 I I 0 1 1.5 forward I I I I #
face $-1 $106 $107 $36 $-1 $108 reversed single #
loop $-1 $-1 $109 $46 #
plane-surface $-1 3.9221899963183313 61.717421743095088 106.97735021928554 1 0 0 0 -0.7660444514056185 -0.64278759981090561 forward_v I I I I #
face $-1 $110 $111 $37 $-1 $112 forward single #
loop $-1 $113 $114 $47 #
cone-surface $-1 9.4323801445148518 24.377991712138375 7.0206319872171026 0 -0.7660444514056185 -0.64278759981090561 1.5 0 0 1 I I 0 1 1.5 forward I I I I #
face $-1 $115 $116 $38 $-1 $117 reversed single #
loop $-1 $-1 $118 $48 #
plane-surface $-1 22.786950285348048 61.717421743095088 106.97735021928554 1 0 0 0 -0.7660444514056185 -0.64278759981090561 forward_v I I I I #
face $-1 $119 $120 $39 $-1 $121 forward single #
loop $-1 $122 $123 $49 #
cone-surface $-1 28.29714043354457 24.377991712138375 7.0206319872171026 0 -0.7660444514056185 -0.64278759981090561 1.5 0 0 1 I I 0 1 1.5 forward I I I I #
face $-1 $124 $125 $30 $-1 $126 reversed single #
loop $-1 $-1 $127 $50 #
plane-surface $-1 0 0 -11.334047031894666 0 0 1 1 0 0 forward_v I I I I #
coedge $-1 $128 $129 $130 $131 forward $51 $-1 #
face $-1 $132 $133 $31 $-1 $134 forward single #
loop $-1 $-1 $135 $53 #
plane-surface $-1 -42.573900570696125 -23.146783008298875 0 -1 0 0 0 0 1 forward_v I I I I #
coedge $-1 $136 $137 $138 $139 forward $54 $-1 #
face $-1 $140 $141 $32 $-1 $142 reversed single #
loop $-1 $-1 $143 $56 #
plane-surface $-1 -28.297140433544584 -8.1058455790911523 48.388673895568296 0 0.7660444514056185 0.64278759981090561 1 0 0 forward_v I I I I #
coedge $-1 $144 $145 $146 $147 reversed $57 $-1 #
face $-1 $-1 $148 $33 $-1 $149 forward single #
loop $-1 $150 $151 $59 #
cone-surface $-1 -28.297140433544584 22.495972899703453 5.4414307371796404 0 -0.7660444514056185 -0.64278759981090561 0.75 0 0 1 I I -0.70710678118654757 0.70710678118654757 0.75 forward I I I I #
loop $-1 $-1 $152 $43 #
coedge $-1 $96 $96 $153 $154 reversed $60 $-1 #
face $-1 $155 $156 $34 $-1 $157 reversed single #
loop $-1 $-1 $158 $62 #
plane-surface $-1 -9.4323801445148661 -8.1058455790911523 48.388673895568296 0 0.7660444514056185 0.64278759981090561 1 0 0 forward_v I I I I #
coedge $-1 $159 $160 $161 $162 reversed $63 $-1 #
face $-1 $-1 $163 $35 $-1 $164 forward single #
loop $-1 $165 $166 $65 #
cone-surface $-1 -9.4323801445148661 22.495972899703453 5.4414307371796404 0 -0.7660444514056185 -0.64278759981090561 0.75 0 0 1 I I -0.70710678118654757 0.70710678118654757 0.75 forward I I I I #
loop $-1 $-1 $167 $45 #
coedge $-1 $105 $105 $168 $169 reversed $66 $-1 #
face $-1 $170 $171 $36 $-1 $172 reversed single #
loop $-1 $-1 $173 $68 #
plane-surface $-1 9.4323801445148518 -8.1058455790911523 48.388673895568296 0 0.7660444514056185 0.64278759981090561 1 0 0 forward_v I I I I #
coedge $-1 $174 $175 $176 $177 reversed $69 $-1 #
face $-1 $-1 $178 $37 $-1 $179 forward single #
loop $-1 $180 $181 $71 #
cone-surface $-1 9.4323801445148518 22.495972899703453 5.4414307371796404 0 -0.7660444514056185 -0.64278759981090561 0.75 0 0 1 I I -0.70710678118654757 0.70710678118654757 0.75 forward I I I I #
loop $-1 $-1 $182 $47 #
coedge $-1 $114 $114 $183 $184 reversed $72 $-1 #
face $-1 $185 $186 $38 $-1 $187 reversed single #
loop $-1 $-1 $188 $74 #
plane-surface $-1 28.29714043354457 -8.1058455790911523 48.388673895568296 0 0.7660444514056185 0.64278759981090561 1 0 0 forward_v I I I I #
coedge $-1 $189 $190 $191 $192 reversed $75 $-1 #
face $-1 $-1 $193 $39 $-1 $194 forward single #
loop $-1 $195 $196 $77 #
cone-surface $-1 28.29714043354457 22.495972899703453 5.4414307371796404 0 -0.7660444514056185 -0.64278759981090561 0.75 0 0 1 I I -0.70710678118654757 0.70710678118654757 0.75 forward I I I I #
loop $-1 $-1 $197 $49 #
coedge $-1 $123 $123 $198 $199 reversed $78 $-1 #
face $-1 $200 $201 $30 $-1 $202 reversed single #
loop $-1 $-1 $203 $80 #
plane-surface $-1 0 -28.384277030448601 0 0 1 0 0 0 1 forward_v I I I I #
coedge $-1 $204 $205 $206 $207 forward $81 $-1 #
coedge $-1 $208 $83 $209 $210 forward $51 $-1 #
coedge $-1 $83 $208 $211 $212 forward $51 $-1 #
coedge $-1 $213 $214 $83 $131 reversed $215 $-1 #
edge $-1 $216 -28.384277030448601 $217 28.384277030448601 $130 $218 forward 7 unknown #
face $-1 $219 $220 $31 $-1 $221 reversed single #
loop $-1 $-1 $222 $84 #
plane-surface $-1 0 0 11.334047031894666 0 0 1 1 0 0 forward_v I I I I #
coedge $-1 $223 $224 $225 $226 reversed $85 $-1 #
coedge $-1 $227 $87 $228 $229 reversed $54 $-1 #
coedge $-1 $87 $227 $230 $231 reversed $54 $-1 #
coedge $-1 $224 $223 $87 $139 reversed $85 $-1 #
edge $-1 $232 -11.334047031894666 $233 11.334047031894666 $138 $234 forward 7 unknown #
face $-1 $235 $236 $32 $-1 $237 reversed single #
loop $-1 $-1 $238 $88 #
plane-surface $-1 -22.786950285348063 61.717421743095088 106.97735021928554 -1 0 0 0 0.7660444514056185 0.64278759981090561 forward_v I I I I #
coedge $-1 $239 $240 $241 $242 reversed $89 $-1 #
coedge $-1 $145 $91 $243 $244 reversed $57 $-1 #
coedge $-1 $91 $144 $239 $245 reversed $57 $-1 #
coedge $-1 $241 $246 $91 $147 forward $247 $-1 #
edge $-1 $248 2.4744338410989428 $249 7.872033529957978 $146 $250 forward 7 unknown #
loop $-1 $-1 $153 $92 #
plane-surface $-1 -28.297140433544584 -8.1058455790911523 48.388673895568296 0 0.7660444514056185 0.64278759981090561 1 0 0 forward_v I I I I #
loop $-1 $-1 $251 $59 #
coedge $-1 $151 $151 $152 $252 reversed $93 $-1 #
coedge $-1 $152 $152 $151 $252 forward $95 $-1 #
coedge $-1 $153 $153 $96 $154 forward $148 $-1 #
edge $-1 $253 1.5224268656076978e-015 $253 6.2831853071796022 $153 $254 forward 7 unknown #
face $-1 $255 $256 $34 $-1 $257 forward single #
loop $-1 $-1 $258 $97 #
plane-surface $-1 -3.9221899963183455 61.717421743095088 106.97735021928554 -1 0 0 0 0.7660444514056185 0.64278759981090561 forward_v I I I I #
coedge $-1 $259 $260 $261 $262 reversed $98 $-1 #
coedge $-1 $160 $100 $263 $264 reversed $63 $-1 #
coedge $-1 $100 $159 $259 $265 reversed $63 $-1 #
coedge $-1 $261 $266 $100 $162 forward $256 $-1 #
edge $-1 $267 2.4744338410989428 $268 7.872033529957978 $161 $269 forward 7 unknown #
loop $-1 $-1 $168 $101 #
plane-surface $-1 -9.4323801445148661 -8.1058455790911523 48.388673895568296 0 0.7660444514056185 0.64278759981090561 1 0 0 forward_v I I I I #
loop $-1 $-1 $270 $65 #
coedge $-1 $166 $166 $167 $271 reversed $102 $-1 #
coedge $-1 $167 $167 $166 $271 forward $104 $-1 #
coedge $-1 $168 $168 $105 $169 forward $163 $-1 #
edge $-1 $272 1.5224268656076978e-015 $272 6.2831853071796022 $168 $273 forward 7 unknown #
face $-1 $274 $275 $36 $-1 $276 forward single #
loop $-1 $-1 $277 $106 #
plane-surface $-1 14.942570292711373 61.717421743095088 106.97735021928554 -1 0 0 0 0.7660444514056185 0.64278759981090561 forward_v I I I I #
coedge $-1 $278 $279 $280 $281 reversed $107 $-1 #
coedge $-1 $175 $109 $282 $283 reversed $69 $-1 #
coedge $-1 $109 $174 $278 $284 reversed $69 $-1 #
coedge $-1 $280 $285 $109 $177 forward $275 $-1 #
edge $-1 $286 2.4744338410989428 $287 7.872033529957978 $176 $288 forward 7 unknown #
loop $-1 $-1 $183 $110 #
plane-surface $-1 9.4323801445148518 -8.1058455790911523 48.388673895568296 0 0.7660444514056185 0.64278759981090561 1 0 0 forward_v I I I I #
loop $-1 $-1 $289 $71 #
coedge $-1 $181 $181 $182 $290 reversed $111 $-1 #
coedge $-1 $182 $182 $181 $290 forward $113 $-1 #
coedge $-1 $183 $183 $114 $184 forward $178 $-1 #
edge $-1 $291 1.5224268656076978e-015 $291 6.2831853071796022 $183 $292 forward 7 unknown #
face $-1 $293 $294 $38 $-1 $295 forward single #
loop $-1 $-1 $296 $115 #
plane-surface $-1 33.807330581741091 61.717421743095088 106.97735021928554 -1 0 0 0 0.7660444514056185 0.64278759981090561 forward_v I I I I #
coedge $-1 $297 $298 $299 $300 reversed $116 $-1 #
coedge $-1 $190 $118 $301 $302 reversed $75 $-1 #
coedge $-1 $118 $189 $297 $303 reversed $75 $-1 #
coedge $-1 $299 $304 $118 $192 forward $294 $-1 #
edge $-1 $305 2.4744338410989428 $306 7.872033529957978 $191 $307 forward 7 unknown #
loop $-1 $-1 $198 $119 #
plane-surface $-1 28.29714043354457 -8.1058455790911523 48.388673895568296 0 0.7660444514056185 0.64278759981090561 1 0 0 forward_v I I I I #
loop $-1 $-1 $308 $77 #
coedge $-1 $196 $196 $197 $309 reversed $120 $-1 #
coedge $-1 $197 $197 $196 $309 forward $122 $-1 #
coedge $-1 $198 $198 $123 $199 forward $193 $-1 #
edge $-1 $310 1.5224268656076978e-015 $310 6.2831853071796022 $198 $311 forward 7 unknown #
face $-1 $312 $313 $30 $-1 $314 reversed single #
loop $-1 $-1 $315 $124 #
plane-surface $-1 -45.573900570696125 0 0 1 0 0 0 0 -1 forward_v I I I I #
coedge $-1 $316 $211 $317 $318 forward $125 $-1 #
coedge $-1 $319 $127 $316 $320 forward $81 $-1 #
coedge $-1 $127 $319 $321 $322 forward $81 $-1 #
coedge $-1 $214 $213 $127 $207 reversed $215 $-1 #
edge $-1 $323 -28.384277030448601 $324 28.384277030448601 $206 $325 forward 7 unknown #
coedge $-1 $129 $128 $326 $327 forward $51 $-1 #
coedge $-1 $328 $329 $128 $210 reversed $313 $-1 #
edge $-1 $217 -45.573900570696125 $330 45.573900570696125 $209 $331 forward 7 unknown #
coedge $-1 $203 $332 $129 $212 reversed $125 $-1 #
edge $-1 $333 -45.573900570696125 $216 45.573900570696125 $211 $334 forward 7 unknown #
coedge $-1 $206 $130 $332 $335 forward $215 $-1 #
coedge $-1 $130 $206 $328 $336 reversed $215 $-1 #
loop $-1 $-1 $213 $312 #
vertex $-1 $131 $337 #
vertex $-1 $131 $338 #
straight-curve $-1 45.573900570696125 0 11.334047031894666 0 1 0 I I #
face $-1 $339 $340 $31 $-1 $341 reversed single #
loop $-1 $-1 $342 $132 #
plane-surface $-1 -45.573900570696125 0 0 1 0 0 0 0 -1 forward_v I I I I #
coedge $-1 $230 $343 $224 $344 forward $133 $-1 #
coedge $-1 $138 $135 $345 $346 reversed $85 $-1 #
coedge $-1 $135 $138 $222 $344 reversed $85 $-1 #
coedge $-1 $347 $348 $135 $226 forward $349 $-1 #
edge $-1 $350 -11.334047031894666 $351 11.334047031894666 $225 $352 forward 7 unknown #
coedge $-1 $137 $136 $342 $353 reversed $54 $-1 #
coedge $-1 $345 $354 $136 $229 forward $340 $-1 #
edge $-1 $355 -23.536950285348063 $233 -20.536950285348063 $228 $356 forward 7 unknown #
coedge $-1 $357 $222 $137 $231 forward $133 $-1 #
edge $-1 $232 20.536950285348063 $358 23.536950285348063 $230 $359 forward 7 unknown #
vertex $-1 $231 $360 #
vertex $-1 $229 $361 #
straight-curve $-1 -42.573900570696125 -17.90928898614915 0 0 0 -1 I I #
face $-1 $-1 $247 $32 $-1 $362 forward single #
loop $-1 $-1 $363 $140 #
plane-surface $-1 0 28.384277030448601 0 0 -1 0 0 0 -1 forward_v I I I I #
coedge $-1 $364 $365 $366 $367 reversed $141 $-1 #
coedge $-1 $368 $143 $145 $245 forward $89 $-1 #
coedge $-1 $143 $368 $364 $369 forward $89 $-1 #
coedge $-1 $366 $146 $143 $242 forward $247 $-1 #
edge $-1 $249 -19.658760364968813 $370 -8.6383800685757706 $241 $371 forward 7 unknown #
coedge $-1 $372 $373 $144 $244 forward $236 $-1 #
edge $-1 $374 -48.58723706674467 $248 -42.1546280777481 $243 $375 forward 7 unknown #
edge $-1 $249 48.371379488072698 $374 56.768554060897216 $145 $376 forward 7 unknown #
coedge $-1 $146 $366 $372 $377 forward $247 $-1 #
loop $-1 $-1 $366 $235 #
vertex $-1 $244 $378 #
vertex $-1 $147 $379 #
straight-curve $-1 -33.807330581741105 30.858710871547544 11.33404703189467 0 -1 0 I I #
coedge $-1 $251 $251 $-1 $380 reversed $150 $-1 #
edge $-1 $381 0 $381 6.2831853071796004 $151 $382 forward 7 unknown #
vertex $-1 $154 $383 #
ellipse-curve $-1 -28.297140433544584 25.685477186019082 8.117742537396385 0 0.7660444514056185 0.64278759981090561 1.5 0 0 1 I I #
face $-1 $-1 $384 $34 $-1 $385 reversed single #
loop $-1 $-1 $161 $155 #
plane-surface $-1 0 0 11.334047031894666 0 0 1 1 0 0 forward_v I I I I #
coedge $-1 $386 $387 $388 $389 reversed $156 $-1 #
coedge $-1 $390 $158 $160 $265 forward $98 $-1 #
coedge $-1 $158 $390 $386 $391 forward $98 $-1 #
coedge $-1 $388 $161 $158 $262 forward $256 $-1 #
edge $-1 $268 -10.226380220453954 $392 0.7940000759390875 $261 $393 forward 7 unknown #
coedge $-1 $394 $395 $159 $264 forward $384 $-1 #
edge $-1 $396 -48.58723706674467 $267 -42.1546280777481 $263 $397 forward 7 unknown #
edge $-1 $268 48.371379488072698 $396 56.768554060897216 $160 $398 forward 7 unknown #
coedge $-1 $161 $388 $394 $399 forward $256 $-1 #
vertex $-1 $264 $400 #
vertex $-1 $162 $401 #
straight-curve $-1 -14.942570292711387 30.858710871547544 11.33404703189467 0 -1 0 I I #
coedge $-1 $270 $270 $-1 $402 reversed $165 $-1 #
edge $-1 $403 0 $403 6.2831853071796004 $166 $404 forward 7 unknown #
vertex $-1 $169 $405 #
ellipse-curve $-1 -9.4323801445148661 25.685477186019082 8.117742537396385 0 0.7660444514056185 0.64278759981090561 1.5 0 0 1 I I #
face $-1 $-1 $406 $36 $-1 $407 reversed single #
loop $-1 $-1 $176 $170 #
plane-surface $-1 0 0 11.334047031894666 0 0 1 1 0 0 forward_v I I I I #
coedge $-1 $408 $409 $410 $411 reversed $171 $-1 #
coedge $-1 $412 $173 $175 $284 forward $107 $-1 #
coedge $-1 $173 $412 $408 $413 forward $107 $-1 #
coedge $-1 $410 $176 $173 $281 forward $275 $-1 #
edge $-1 $287 -0.79400007593909461 $414 10.226380220453947 $280 $415 forward 7 unknown #
coedge $-1 $416 $417 $174 $283 forward $406 $-1 #
edge $-1 $418 -48.58723706674467 $286 -42.1546280777481 $282 $419 forward 7 unknown #
edge $-1 $287 48.371379488072698 $418 56.768554060897216 $175 $420 forward 7 unknown #
coedge $-1 $176 $410 $416 $421 forward $275 $-1 #
vertex $-1 $177 $422 #
vertex $-1 $177 $423 #
straight-curve $-1 3.9221899963183313 30.858710871547544 11.33404703189467 0 -1 0 I I #
coedge $-1 $289 $289 $-1 $424 reversed $180 $-1 #
edge $-1 $425 0 $425 6.2831853071796004 $181 $426 forward 7 unknown #
vertex $-1 $184 $427 #
ellipse-curve $-1 9.4323801445148518 25.685477186019082 8.117742537396385 0 0.7660444514056185 0.64278759981090561 1.5 0 0 1 I I #
face $-1 $-1 $428 $38 $-1 $429 reversed single #
loop $-1 $-1 $191 $185 #
plane-surface $-1 0 0 11.334047031894666 0 0 1 1 0 0 forward_v I I I I #
coedge $-1 $430 $431 $432 $433 reversed $186 $-1 #
coedge $-1 $434 $188 $190 $303 forward $116 $-1 #
coedge $-1 $188 $434 $430 $435 forward $116 $-1 #
coedge $-1 $432 $191 $188 $300 forward $294 $-1 #
edge $-1 $306 8.6383800685757635 $436 19.658760364968806 $299 $437 forward 7 unknown #
coedge $-1 $438 $439 $189 $302 forward $428 $-1 #
edge $-1 $440 -48.58723706674467 $305 -42.1546280777481 $301 $441 forward 7 unknown #
edge $-1 $306 48.371379488072698 $440 56.768554060897216 $190 $442 forward 7 unknown #
coedge $-1 $191 $432 $438 $443 forward $294 $-1 #
vertex $-1 $192 $444 #
vertex $-1 $192 $445 #
straight-curve $-1 22.786950285348048 30.858710871547544 11.33404703189467 0 -1 0 I I #
coedge $-1 $308 $308 $-1 $446 reversed $195 $-1 #
edge $-1 $447 0 $447 6.2831853071796004 $196 $448 forward 7 unknown #
vertex $-1 $199 $449 #
ellipse-curve $-1 28.29714043354457 25.685477186019082 8.117742537396385 0 0.7660444514056185 0.64278759981090561 1.5 0 0 1 I I #
face $-1 $-1 $215 $30 $-1 $450 reversed single #
loop $-1 $-1 $328 $200 #
plane-surface $-1 0 28.384277030448601 0 0 -1 0 0 0 -1 forward_v I I I I #
coedge $-1 $451 $326 $329 $452 forward $201 $-1 #
coedge $-1 $332 $203 $204 $320 reversed $125 $-1 #
coedge $-1 $326 $451 $203 $318 reversed $201 $-1 #
edge $-1 $333 -11.334047031894666 $453 11.334047031894666 $317 $454 forward 7 unknown #
coedge $-1 $205 $204 $451 $455 forward $81 $-1 #
edge $-1 $324 -45.573900570696125 $453 45.573900570696125 $316 $456 forward 7 unknown #
coedge $-1 $329 $328 $205 $322 reversed $313 $-1 #
edge $-1 $457 -45.573900570696125 $323 45.573900570696125 $321 $458 forward 7 unknown #
vertex $-1 $207 $459 #
vertex $-1 $335 $460 #
straight-curve $-1 45.573900570696125 0 -11.334047031894666 0 -1 0 I I #
coedge $-1 $315 $317 $208 $327 reversed $201 $-1 #
edge $-1 $330 -28.384277030448601 $333 28.384277030448601 $326 $461 forward 7 unknown #
coedge $-1 $321 $209 $214 $336 forward $313 $-1 #
coedge $-1 $209 $321 $315 $452 reversed $313 $-1 #
vertex $-1 $210 $462 #
straight-curve $-1 0 28.384277030448601 11.334047031894666 -1 0 0 I I #
coedge $-1 $211 $316 $213 $335 reversed $125 $-1 #
vertex $-1 $327 $463 #
straight-curve $-1 0 -28.384277030448601 11.334047031894666 1 0 0 I I #
edge $-1 $216 -11.334047031894666 $324 11.334047031894666 $213 $464 forward 7 unknown #
edge $-1 $217 -11.334047031894666 $323 11.334047031894666 $214 $465 forward 7 unknown #
point $-1 45.573900570696125 -28.384277030448601 11.334047031894666 #
point $-1 45.573900570696125 28.384277030448601 11.334047031894666 #
face $-1 $-1 $349 $31 $-1 $466 reversed single #
loop $-1 $-1 $345 $219 #
plane-surface $-1 0 0 -11.334047031894666 0 0 1 1 0 0 forward_v I I I I #
coedge $-1 $467 $468 $227 $353 forward $220 $-1 #
coedge $-1 $222 $357 $347 $469 forward $133 $-1 #
edge $-1 $351 -16.810885526299163 $232 -6.3358974819997123 $222 $470 forward 7 unknown #
coedge $-1 $471 $228 $223 $346 forward $340 $-1 #
edge $-1 $233 6.3358974819997123 $350 16.810885526299163 $345 $472 forward 7 unknown #
coedge $-1 $473 $225 $343 $469 reversed $349 $-1 #
coedge $-1 $225 $473 $471 $474 reversed $349 $-1 #
loop $-1 $-1 $225 $339 #
vertex $-1 $474 $475 #
vertex $-1 $226 $476 #
straight-curve $-1 -42.573900570696125 -28.384277030448601 0 0 0 1 I I #
edge $-1 $358 -11.334047031894666 $355 11.334047031894666 $342 $477 forward 7 unknown #
coedge $-1 $228 $471 $467 $478 forward $340 $-1 #
vertex $-1 $229 $479 #
straight-curve $-1 -22.036950285348063 -17.90928898614915 -11.334047031894666 1 0 0 I I #
coedge $-1 $343 $230 $468 $480 forward $133 $-1 #
vertex $-1 $480 $481 #
straight-curve $-1 -22.036950285348063 -17.90928898614915 11.334047031894666 -1 0 0 I I #
point $-1 -42.573900570696125 -17.90928898614915 11.334047031894666 #
point $-1 -42.573900570696125 -17.90928898614915 -11.334047031894666 #
plane-surface $-1 0 0 11.334047031894666 0 0 1 1 0 0 forward_v I I I I #
coedge $-1 $373 $372 $365 $482 forward $236 $-1 #
coedge $-1 $365 $238 $240 $369 reversed $141 $-1 #
coedge $-1 $238 $364 $363 $482 reversed $141 $-1 #
coedge $-1 $246 $241 $238 $367 forward $247 $-1 #
edge $-1 $370 -7.872033529957978 $483 -2.4744338410989428 $366 $484 forward 7 unknown #
coedge $-1 $240 $239 $373 $485 reversed $89 $-1 #
edge $-1 $486 -56.768554060897216 $370 -48.371379488072698 $364 $487 forward 7 unknown #
vertex $-1 $242 $488 #
straight-curve $-1 -14.148570216772292 22.986677341589559 11.334047031894663 1 0 0 I I #
coedge $-1 $363 $243 $246 $377 reversed $236 $-1 #
coedge $-1 $243 $363 $368 $485 forward $236 $-1 #
vertex $-1 $244 $489 #
straight-curve $-1 -33.807330581741105 28.384277030448601 53.48867510964277 0 0 1 I I #
straight-curve $-1 -33.807330581741105 -8.1058455790911523 48.388673895568296 0 0.64278759981090561 -0.7660444514056185 I I #
edge $-1 $483 22.786950285348063 $248 33.807330581741105 $372 $490 forward 7 unknown #
point $-1 -33.807330581741105 28.384277030448601 11.334047031894666 #
point $-1 -33.807330581741105 22.986677341589566 11.334047031894663 #
edge $-1 $491 1 $491 0 $251 $-1 forward 7 unknown #
vertex $-1 $252 $492 #
ellipse-curve $-1 -28.297140433544584 23.070506238257668 5.9235214370378193 0 0.7660444514056185 0.64278759981090561 1.5 0 0 1 I I #
point $-1 -26.797140433544584 25.685477186019085 8.117742537396385 #
loop $-1 $-1 $263 $255 #
plane-surface $-1 0 28.384277030448601 0 0 -1 0 0 0 -1 forward_v I I I I #
coedge $-1 $387 $258 $260 $391 reversed $156 $-1 #
coedge $-1 $258 $386 $493 $494 reversed $156 $-1 #
coedge $-1 $266 $261 $258 $389 forward $256 $-1 #
edge $-1 $392 -7.872033529957978 $495 -2.4744338410989428 $388 $496 forward 7 unknown #
coedge $-1 $260 $259 $395 $497 reversed $98 $-1 #
edge $-1 $498 -56.768554060897216 $392 -48.371379488072698 $386 $499 forward 7 unknown #
vertex $-1 $262 $500 #
straight-curve $-1 -4.716190072257433 22.986677341589559 11.334047031894663 1 0 0 I I #
coedge $-1 $493 $263 $266 $399 reversed $384 $-1 #
coedge $-1 $263 $493 $390 $497 forward $384 $-1 #
vertex $-1 $264 $501 #
straight-curve $-1 -14.942570292711387 28.384277030448601 53.48867510964277 0 0 1 I I #
straight-curve $-1 -14.942570292711387 -8.1058455790911523 48.388673895568296 0 0.64278759981090561 -0.7660444514056185 I I #
edge $-1 $495 3.9221899963183455 $267 14.942570292711387 $394 $502 forward 7 unknown #
point $-1 -14.942570292711387 28.384277030448601 11.334047031894666 #
point $-1 -14.942570292711387 22.986677341589566 11.334047031894663 #
edge $-1 $503 1 $503 0 $270 $-1 forward 7 unknown #
vertex $-1 $271 $504 #
ellipse-curve $-1 -9.4323801445148661 23.070506238257668 5.9235214370378193 0 0.7660444514056185 0.64278759981090561 1.5 0 0 1 I I #
point $-1 -7.9323801445148661 25.685477186019085 8.117742537396385 #
loop $-1 $-1 $282 $274 #
plane-surface $-1 0 28.384277030448601 0 0 -1 0 0 0 -1 forward_v I I I I #
coedge $-1 $409 $277 $279 $413 reversed $171 $-1 #
coedge $-1 $277 $408 $505 $506 reversed $171 $-1 #
coedge $-1 $285 $280 $277 $411 forward $275 $-1 #
edge $-1 $414 -7.872033529957978 $507 -2.4744338410989428 $410 $508 forward 7 unknown #
coedge $-1 $279 $278 $417 $509 reversed $107 $-1 #
edge $-1 $510 -56.768554060897216 $414 -48.371379488072698 $408 $511 forward 7 unknown #
vertex $-1 $281 $512 #
straight-curve $-1 4.7161900722574259 22.986677341589559 11.334047031894663 1 0 0 I I #
coedge $-1 $505 $282 $285 $421 reversed $406 $-1 #
coedge $-1 $282 $505 $412 $509 forward $406 $-1 #
vertex $-1 $283 $513 #
straight-curve $-1 3.9221899963183313 28.384277030448601 53.48867510964277 0 0 1 I I #
straight-curve $-1 3.9221899963183313 -8.1058455790911523 48.388673895568296 0 0.64278759981090561 -0.7660444514056185 I I #
edge $-1 $507 -14.942570292711373 $286 -3.9221899963183313 $416 $514 forward 7 unknown #
point $-1 3.9221899963183313 28.384277030448601 11.334047031894666 #
point $-1 3.9221899963183313 22.986677341589566 11.334047031894663 #
edge $-1 $515 1 $515 0 $289 $-1 forward 7 unknown #
vertex $-1 $290 $516 #
ellipse-curve $-1 9.4323801445148518 23.070506238257668 5.9235214370378193 0 0.7660444514056185 0.64278759981090561 1.5 0 0 1 I I #
point $-1 10.932380144514852 25.685477186019085 8.117742537396385 #
loop $-1 $-1 $301 $293 #
plane-surface $-1 0 28.384277030448601 0 0 -1 0 0 0 -1 forward_v I I I I #
coedge $-1 $431 $296 $298 $435 reversed $186 $-1 #
coedge $-1 $296 $430 $517 $518 reversed $186 $-1 #
coedge $-1 $304 $299 $296 $433 forward $294 $-1 #
edge $-1 $436 -7.872033529957978 $519 -2.4744338410989428 $432 $520 forward 7 unknown #
coedge $-1 $298 $297 $439 $521 reversed $116 $-1 #
edge $-1 $522 -56.768554060897216 $436 -48.371379488072698 $430 $523 forward 7 unknown #
vertex $-1 $300 $524 #
straight-curve $-1 14.148570216772285 22.986677341589559 11.334047031894663 1 0 0 I I #
coedge $-1 $517 $301 $304 $443 reversed $428 $-1 #
coedge $-1 $301 $517 $434 $521 forward $428 $-1 #
vertex $-1 $302 $525 #
straight-curve $-1 22.786950285348048 28.384277030448601 53.48867510964277 0 0 1 I I #
straight-curve $-1 22.786950285348048 -8.1058455790911523 48.388673895568296 0 0.64278759981090561 -0.7660444514056185 I I #
edge $-1 $519 -33.807330581741091 $305 -22.786950285348048 $438 $526 forward 7 unknown #
point $-1 22.786950285348048 28.384277030448601 11.334047031894666 #
point $-1 22.786950285348048 22.986677341589566 11.334047031894663 #
edge $-1 $527 1 $527 0 $308 $-1 forward 7 unknown #
vertex $-1 $309 $528 #
ellipse-curve $-1 28.29714043354457 23.070506238257668 5.9235214370378193 0 0.7660444514056185 0.64278759981090561 1.5 0 0 1 I I #
point $-1 29.79714043354457 25.685477186019085 8.117742537396385 #
plane-surface $-1 45.573900570696125 0 0 -1 0 0 0 0 1 forward_v I I I I #
coedge $-1 $317 $315 $319 $455 reversed $201 $-1 #
edge $-1 $330 -11.334047031894666 $457 11.334047031894666 $329 $529 forward 7 unknown #
vertex $-1 $455 $530 #
straight-curve $-1 -45.573900570696125 -28.384277030448601 0 0 0 -1 I I #
edge $-1 $453 -28.384277030448601 $457 28.384277030448601 $451 $531 forward 7 unknown #
straight-curve $-1 0 -28.384277030448601 -11.334047031894666 -1 0 0 I I #
vertex $-1 $322 $532 #
straight-curve $-1 0 28.384277030448601 -11.334047031894666 1 0 0 I I #
point $-1 45.573900570696125 28.384277030448601 -11.334047031894666 #
point $-1 45.573900570696125 -28.384277030448601 -11.334047031894666 #
straight-curve $-1 -45.573900570696125 0 11.334047031894666 0 -1 0 I I #
point $-1 -45.573900570696125 28.384277030448601 11.334047031894666 #
point $-1 -45.573900570696125 -28.384277030448601 11.334047031894666 #
straight-curve $-1 45.573900570696125 -28.384277030448601 0 0 0 -1 I I #
straight-curve $-1 45.573900570696125 28.384277030448601 0 0 0 -1 I I #
plane-surface $-1 0 -28.384277030448601 0 0 1 0 0 0 1 forward_v I I I I #
coedge $-1 $533 $342 $354 $478 reversed $220 $-1 #
coedge $-1 $342 $533 $357 $480 reversed $220 $-1 #
edge $-1 $534 -45.573900570696125 $351 -42.573900570696125 $347 $535 forward 7 unknown #
straight-curve $-1 -42.573900570696125 -11.573391504149438 11.334047031894666 0 1 0 I I #
coedge $-1 $354 $345 $348 $474 forward $340 $-1 #
straight-curve $-1 -42.573900570696125 -11.573391504149438 -11.334047031894666 0 -1 0 I I #
coedge $-1 $348 $347 $533 $536 forward $349 $-1 #
edge $-1 $350 42.573900570696125 $537 45.573900570696125 $348 $538 forward 7 unknown #
point $-1 -42.573900570696125 -28.384277030448601 -11.334047031894666 #
point $-1 -42.573900570696125 -28.384277030448601 11.334047031894666 #
straight-curve $-1 -45.573900570696125 -17.90928898614915 0 0 0 -1 I I #
edge $-1 $537 -28.384277030448601 $355 -17.90928898614915 $467 $539 forward 7 unknown #
point $-1 -45.573900570696125 -17.90928898614915 -11.334047031894666 #
edge $-1 $358 17.90928898614915 $534 28.384277030448601 $468 $540 forward 7 unknown #
point $-1 -45.573900570696125 -17.90928898614915 11.334047031894666 #
edge $-1 $483 42.1546280777481 $486 48.58723706674467 $363 $541 forward 7 unknown #
vertex $-1 $377 $542 #
straight-curve $-1 -22.786950285348063 30.858710871547544 11.33404703189467 0 1 0 I I #
edge $-1 $486 8.6383800685757706 $374 19.658760364968813 $373 $543 forward 7 unknown #
vertex $-1 $485 $544 #
straight-curve $-1 -22.786950285348063 -8.1058455790911523 48.388673895568296 0 -0.64278759981090561 0.7660444514056185 I I #
point $-1 -22.786950285348063 22.986677341589566 11.334047031894663 #
point $-1 -33.807330581741105 28.384277030448601 4.9014380428980999 #
straight-curve $-1 0 28.384277030448601 11.334047031894666 -1 0 0 I I #
vertex $-1 $380 $545 #
point $-1 -26.797140433544584 23.070506238257668 5.9235214370378193 #
coedge $-1 $395 $394 $387 $494 forward $384 $-1 #
edge $-1 $495 42.1546280777481 $498 48.58723706674467 $493 $546 forward 7 unknown #
vertex $-1 $399 $547 #
straight-curve $-1 -3.9221899963183455 30.858710871547544 11.33404703189467 0 1 0 I I #
edge $-1 $498 -0.7940000759390875 $396 10.226380220453954 $395 $548 forward 7 unknown #
vertex $-1 $497 $549 #
straight-curve $-1 -3.9221899963183455 -8.1058455790911523 48.388673895568296 0 -0.64278759981090561 0.7660444514056185 I I #
point $-1 -3.9221899963183455 22.986677341589566 11.334047031894663 #
point $-1 -14.942570292711387 28.384277030448601 4.9014380428980999 #
straight-curve $-1 0 28.384277030448601 11.334047031894666 -1 0 0 I I #
vertex $-1 $402 $550 #
point $-1 -7.9323801445148661 23.070506238257668 5.9235214370378193 #
coedge $-1 $417 $416 $409 $506 forward $406 $-1 #
edge $-1 $507 42.1546280777481 $510 48.58723706674467 $505 $551 forward 7 unknown #
vertex $-1 $421 $552 #
straight-curve $-1 14.942570292711373 30.858710871547544 11.33404703189467 0 1 0 I I #
edge $-1 $510 -10.226380220453947 $418 0.79400007593909461 $417 $553 forward 7 unknown #
vertex $-1 $509 $554 #
straight-curve $-1 14.942570292711373 -8.1058455790911523 48.388673895568296 0 -0.64278759981090561 0.7660444514056185 I I #
point $-1 14.942570292711373 22.986677341589566 11.334047031894663 #
point $-1 3.9221899963183313 28.384277030448601 4.9014380428980999 #
straight-curve $-1 0 28.384277030448601 11.334047031894666 -1 0 0 I I #
vertex $-1 $424 $555 #
point $-1 10.932380144514852 23.070506238257668 5.9235214370378193 #
coedge $-1 $439 $438 $431 $518 forward $428 $-1 #
edge $-1 $519 42.1546280777481 $522 48.58723706674467 $517 $556 forward 7 unknown #
vertex $-1 $443 $557 #
straight-curve $-1 33.807330581741091 30.858710871547544 11.33404703189467 0 1 0 I I #
edge $-1 $522 -19.658760364968806 $440 -8.6383800685757635 $439 $558 forward 7 unknown #
vertex $-1 $521 $559 #
straight-curve $-1 33.807330581741091 -8.1058455790911523 48.388673895568296 0 -0.64278759981090561 0.7660444514056185 I I #
point $-1 33.807330581741091 22.986677341589566 11.334047031894663 #
point $-1 22.786950285348048 28.384277030448601 4.9014380428980999 #
straight-curve $-1 0 28.384277030448601 11.334047031894666 -1 0 0 I I #
vertex $-1 $446 $560 #
point $-1 29.79714043354457 23.070506238257668 5.9235214370378193 #
straight-curve $-1 -45.573900570696125 28.384277030448601 0 0 0 -1 I I #
point $-1 -45.573900570696125 -28.384277030448601 -11.334047031894666 #
straight-curve $-1 -45.573900570696125 0 -11.334047031894666 0 1 0 I I #
point $-1 -45.573900570696125 28.384277030448601 -11.334047031894666 #
coedge $-1 $468 $467 $473 $536 reversed $220 $-1 #
vertex $-1 $480 $561 #
straight-curve $-1 0 -28.384277030448601 11.334047031894666 1 0 0 I I #
edge $-1 $534 -11.334047031894666 $537 11.334047031894666 $533 $562 forward 7 unknown #
vertex $-1 $478 $563 #
straight-curve $-1 0 -28.384277030448601 -11.334047031894666 -1 0 0 I I #
straight-curve $-1 -45.573900570696125 0 -11.334047031894666 0 1 0 I I #
straight-curve $-1 -45.573900570696125 0 11.334047031894666 0 -1 0 I I #
straight-curve $-1 -22.786950285348063 28.384277030448601 53.48867510964277 0 0 -1 I I #
point $-1 -22.786950285348063 28.384277030448601 11.334047031894666 #
straight-curve $-1 -14.148570216772292 28.384277030448601 4.9014380428980999 -1 0 0 I I #
point $-1 -22.786950285348063 28.384277030448601 4.9014380428980999 #
point $-1 -28.297140433544584 21.921439561149239 4.9593400373214616 #
straight-curve $-1 -3.9221899963183455 28.384277030448601 53.48867510964277 0 0 -1 I I #
point $-1 -3.9221899963183455 28.384277030448601 11.334047031894666 #
straight-curve $-1 -4.716190072257433 28.384277030448601 4.9014380428980999 -1 0 0 I I #
point $-1 -3.9221899963183455 28.384277030448601 4.9014380428980999 #
point $-1 -9.4323801445148661 21.921439561149239 4.9593400373214616 #
straight-curve $-1 14.942570292711373 28.384277030448601 53.48867510964277 0 0 -1 I I #
point $-1 14.942570292711373 28.384277030448601 11.334047031894666 #
straight-curve $-1 4.7161900722574259 28.384277030448601 4.9014380428980999 -1 0 0 I I #
point $-1 14.942570292711373 28.384277030448601 4.9014380428980999 #
point $-1 9.4323801445148518 21.921439561149239 4.9593400373214616 #
straight-curve $-1 33.807330581741091 28.384277030448601 53.48867510964277 0 0 -1 I I #
point $-1 33.807330581741091 28.384277030448601 11.334047031894666 #
straight-curve $-1 14.148570216772285 28.384277030448601 4.9014380428980999 -1 0 0 I I #
point $-1 33.807330581741091 28.384277030448601 4.9014380428980999 #
point $-1 28.29714043354457 21.921439561149239 4.9593400373214616 #
point $-1 -45.573900570696125 -28.384277030448601 11.334047031894666 #
straight-curve $-1 -45.573900570696125 -28.384277030448601 0 0 0 -1 I I #
point $-1 -45.573900570696125 -28.384277030448601 -11.334047031894666 #
End-of-ACIS-data 