500 0 17 0           
7 Unknown 11 ACIS 5.0 NT 24 Fri Mar 26 15:12:56 1999 
-1 9.9999999999999995e-007 1e-010 
body $-1 $17 $-1 $18 #
body $-1 $19 $-1 $20 #
body $-1 $21 $-1 $22 #
body $-1 $23 $-1 $24 #
body $-1 $25 $-1 $26 #
body $-1 $27 $-1 $28 #
body $-1 $29 $-1 $30 #
body $-1 $31 $-1 $32 #
body $-1 $33 $-1 $34 #
body $-1 $35 $-1 $36 #
body $-1 $37 $-1 $38 #
body $-1 $39 $-1 $40 #
body $-1 $41 $-1 $42 #
body $-1 $43 $-1 $44 #
body $-1 $45 $-1 $46 #
body $-1 $47 $-1 $48 #
body $-1 $49 $-1 $50 #
lump $-1 $-1 $51 $0 #
transform $-1 1 0 0 0 1 0 0 0 1 41.191442609942932 23.367504251553793 8.7065294093430836 1 rotate no_reflect no_shear #
lump $-1 $-1 $52 $1 #
transform $-1 1 0 0 0 1 0 0 0 1 41.191442609942932 23.367504251553793 8.7065294093430836 1 rotate no_reflect no_shear #
lump $-1 $-1 $53 $2 #
transform $-1 1 0 0 0 1 0 0 0 1 41.191442609942932 23.367504251553793 8.7065294093430836 1 rotate no_reflect no_shear #
lump $-1 $-1 $54 $3 #
transform $-1 1 0 0 0 1 0 0 0 1 41.191442609942932 23.367504251553793 8.7065294093430836 1 rotate no_reflect no_shear #
lump $-1 $-1 $55 $4 #
transform $-1 1 0 0 0 1 0 0 0 1 41.191442609942932 23.367504251553793 8.7065294093430836 1 rotate no_reflect no_shear #
lump $-1 $-1 $56 $5 #
transform $-1 1 0 0 0 1 0 0 0 1 41.191442609942932 23.367504251553793 8.7065294093430836 1 rotate no_reflect no_shear #
lump $-1 $-1 $57 $6 #
transform $-1 1 0 0 0 1 0 0 0 1 41.191442609942932 23.367504251553793 8.7065294093430836 1 rotate no_reflect no_shear #
lump $-1 $-1 $58 $7 #
transform $-1 1 0 0 0 1 0 0 0 1 41.191442609942932 23.367504251553793 8.7065294093430836 1 rotate no_reflect no_shear #
lump $-1 $-1 $59 $8 #
transform $-1 1 0 0 0 1 0 0 0 1 41.191442609942932 23.367504251553793 8.7065294093430836 1 rotate no_reflect no_shear #
lump $-1 $-1 $60 $9 #
transform $-1 1 0 0 0 1 0 0 0 1 41.191442609942932 23.367504251553793 8.7065294093430836 1 rotate no_reflect no_shear #
lump $-1 $-1 $61 $10 #
transform $-1 1 0 0 0 1 0 0 0 1 41.191442609942932 23.367504251553793 8.7065294093430836 1 rotate no_reflect no_shear #
lump $-1 $-1 $62 $11 #
transform $-1 1 0 0 0 1 0 0 0 1 41.191442609942932 23.367504251553793 8.7065294093430836 1 rotate no_reflect no_shear #
lump $-1 $-1 $63 $12 #
transform $-1 1 0 0 0 1 0 0 0 1 41.191442609942932 23.367504251553793 8.7065294093430836 1 rotate no_reflect no_shear #
lump $-1 $-1 $64 $13 #
transform $-1 1 0 0 0 1 0 0 0 1 41.191442609942932 23.367504251553793 8.7065294093430836 1 rotate no_reflect no_shear #
lump $-1 $-1 $65 $14 #
transform $-1 1 0 0 0 1 0 0 0 1 41.191442609942932 23.367504251553793 8.7065294093430836 1 rotate no_reflect no_shear #
lump $-1 $-1 $66 $15 #
transform $-1 1 0 0 0 1 0 0 0 1 41.191442609942932 23.367504251553793 8.7065294093430836 1 rotate no_reflect no_shear #
lump $-1 $-1 $67 $16 #
transform $-1 1 0 0 0 1 0 0 0 1 41.191442609942932 23.367504251553793 8.7065294093430836 1 rotate no_reflect no_shear #
shell $-1 $-1 $-1 $68 $-1 $17 #
shell $-1 $-1 $-1 $69 $-1 $19 #
shell $-1 $-1 $-1 $70 $-1 $21 #
shell $-1 $-1 $-1 $71 $-1 $23 #
shell $-1 $-1 $-1 $72 $-1 $25 #
shell $-1 $-1 $-1 $73 $-1 $27 #
shell $-1 $-1 $-1 $74 $-1 $29 #
shell $-1 $-1 $-1 $75 $-1 $31 #
shell $-1 $-1 $-1 $76 $-1 $33 #
shell $-1 $-1 $-1 $77 $-1 $35 #
shell $-1 $-1 $-1 $78 $-1 $37 #
shell $-1 $-1 $-1 $79 $-1 $39 #
shell $-1 $-1 $-1 $80 $-1 $41 #
shell $-1 $-1 $-1 $81 $-1 $43 #
shell $-1 $-1 $-1 $82 $-1 $45 #
shell $-1 $-1 $-1 $83 $-1 $47 #
shell $-1 $-1 $-1 $84 $-1 $49 #
face $-1 $85 $86 $51 $-1 $87 forward single #
face $-1 $88 $89 $52 $-1 $90 reversed single #
face $-1 $91 $92 $53 $-1 $93 reversed single #
face $-1 $94 $95 $54 $-1 $96 forward single #
face $-1 $97 $98 $55 $-1 $99 forward single #
face $-1 $100 $101 $56 $-1 $102 reversed single #
face $-1 $103 $104 $57 $-1 $105 forward single #
face $-1 $106 $107 $58 $-1 $108 forward single #
face $-1 $109 $110 $59 $-1 $111 reversed single #
face $-1 $112 $113 $60 $-1 $114 forward single #
face $-1 $115 $116 $61 $-1 $117 forward single #
face $-1 $118 $119 $62 $-1 $120 reversed single #
face $-1 $121 $122 $63 $-1 $123 forward single #
face $-1 $124 $125 $64 $-1 $126 forward single #
face $-1 $127 $128 $65 $-1 $129 reversed single #
face $-1 $130 $131 $66 $-1 $132 forward single #
face $-1 $133 $134 $67 $-1 $135 forward single #
face $-1 $136 $137 $51 $-1 $138 reversed single #
loop $-1 $-1 $139 $68 #
plane-surface $-1 0 0 8.7065294093430836 0 0 1 1 0 0 forward_v I I I I #
face $-1 $140 $141 $52 $-1 $142 reversed single #
loop $-1 $-1 $143 $69 #
plane-surface $-1 -37.921515998963493 -19.26265210661597 0 0 -1 0 0 0 -1 forward_v I I I I #
face $-1 $144 $145 $53 $-1 $146 reversed single #
loop $-1 $-1 $147 $70 #
plane-surface $-1 18.781239622176635 37.259784555225323 94.964266687395906 1 0 0 0 -0.61566148304635926 -0.78801074757464917 forward_v I I I I #
face $-1 $148 $149 $54 $-1 $150 forward single #
loop $-1 $151 $152 $71 #
cone-surface $-1 24.109949246665529 17.303892523692074 3.3177758379392932 0 -0.61566148304635926 -0.78801074757464917 2.5 0 0 1 I I 0 1 2.5 forward I I I I #
face $-1 $153 $154 $55 $-1 $155 forward single #
loop $-1 $156 $157 $72 #
cone-surface $-1 32.103013683398864 17.303892523692074 3.3177758379392932 0 -0.61566148304635926 -0.78801074757464917 2.5 0 0 1 I I 0 1 2.5 forward I I I I #
face $-1 $158 $159 $56 $-1 $160 reversed single #
loop $-1 $-1 $161 $73 #
plane-surface $-1 -18.128366932029827 -82.628793135694224 57.702706005769024 -1 0 0 0 -0.71933980857756763 0.69465836192734942 forward_v I I I I #
face $-1 $162 $163 $57 $-1 $164 forward single #
loop $-1 $165 $166 $74 #
cone-surface $-1 -27.427957866492189 -18.170102198041747 3.4098594230185548 0 0.71933980857756763 -0.69465836192734942 1.5 0 0 1 I I 0 1 1.5 forward I I I I #
face $-1 $167 $168 $58 $-1 $169 forward single #
loop $-1 $170 $171 $75 #
cone-surface $-1 -21.848203305814771 -18.170102198041747 3.4098594230185548 0 0.71933980857756763 -0.69465836192734942 1.5 0 0 1 I I 0 1 1.5 forward I I I I #
face $-1 $172 $173 $59 $-1 $174 reversed single #
loop $-1 $-1 $175 $76 #
plane-surface $-1 0.83239106745191815 -82.628793135694224 57.702706005769024 -1 0 0 0 -0.71933980857756763 0.69465836192734942 forward_v I I I I #
face $-1 $176 $177 $60 $-1 $178 forward single #
loop $-1 $179 $180 $77 #
cone-surface $-1 -8.4671998670104429 -18.170102198041747 3.4098594230185548 0 0.71933980857756763 -0.69465836192734942 1.5 0 0 1 I I 0 1 1.5 forward I I I I #
face $-1 $181 $182 $61 $-1 $183 forward single #
loop $-1 $184 $185 $78 #
cone-surface $-1 -2.8874453063330279 -18.170102198041747 3.4098594230185548 0 0.71933980857756763 -0.69465836192734942 1.5 0 0 1 I I 0 1 1.5 forward I I I I #
face $-1 $186 $187 $62 $-1 $188 reversed single #
loop $-1 $-1 $189 $79 #
plane-surface $-1 19.793149066933669 -82.628793135694224 57.702706005769024 -1 0 0 0 -0.71933980857756763 0.69465836192734942 forward_v I I I I #
face $-1 $190 $191 $63 $-1 $192 forward single #
loop $-1 $193 $194 $80 #
cone-surface $-1 10.4935581324713 -18.170102198041747 3.4098594230185548 0 0.71933980857756763 -0.69465836192734942 1.5 0 0 1 I I 0 1 1.5 forward I I I I #
face $-1 $195 $196 $64 $-1 $197 forward single #
loop $-1 $198 $199 $81 #
cone-surface $-1 16.073312693148715 -18.170102198041747 3.4098594230185548 0 0.71933980857756763 -0.69465836192734942 1.5 0 0 1 I I 0 1 1.5 forward I I I I #
face $-1 $200 $201 $65 $-1 $202 reversed single #
loop $-1 $-1 $203 $82 #
plane-surface $-1 38.753907066415408 -82.628793135694224 57.702706005769024 -1 0 0 0 -0.71933980857756763 0.69465836192734942 forward_v I I I I #
face $-1 $204 $205 $66 $-1 $206 forward single #
loop $-1 $207 $208 $83 #
cone-surface $-1 29.454316131953043 -18.170102198041747 3.4098594230185548 0 0.71933980857756763 -0.69465836192734942 1.5 0 0 1 I I 0 1 1.5 forward I I I I #
face $-1 $209 $210 $67 $-1 $211 forward single #
loop $-1 $212 $213 $84 #
cone-surface $-1 35.034070692630458 -18.170102198041747 3.4098594230185548 0 0.71933980857756763 -0.69465836192734942 1.5 0 0 1 I I 0 1 1.5 forward I I I I #
face $-1 $214 $215 $51 $-1 $216 reversed single #
loop $-1 $-1 $217 $85 #
plane-surface $-1 0 0 -8.7065294093430836 0 0 1 1 0 0 forward_v I I I I #
coedge $-1 $218 $219 $220 $221 forward $86 $-1 #
face $-1 $222 $223 $52 $-1 $224 forward single #
loop $-1 $-1 $225 $88 #
plane-surface $-1 -34.651589387984053 -21.315078179084882 0 -1 0 0 0 0 1 forward_v I I I I #
coedge $-1 $226 $227 $228 $229 forward $89 $-1 #
face $-1 $230 $231 $53 $-1 $232 reversed single #
loop $-1 $-1 $233 $91 #
plane-surface $-1 28.106481465032196 -13.460184736887598 30.045667717917127 0 0.61566148304635926 0.78801074757464917 1 0 0 forward_v I I I I #
coedge $-1 $234 $235 $236 $237 reversed $92 $-1 #
face $-1 $-1 $238 $54 $-1 $239 forward single #
loop $-1 $240 $241 $94 #
cone-surface $-1 24.109949246665529 15.228122953903746 0.66091200038387754 0 -0.61566148304635926 -0.78801074757464917 1.25 0 0 1 I I -0.70710678118654746 0.70710678118654746 1.25 forward I I I I #
loop $-1 $-1 $242 $71 #
coedge $-1 $152 $152 $243 $244 reversed $95 $-1 #
face $-1 $-1 $245 $55 $-1 $246 forward single #
loop $-1 $247 $248 $97 #
cone-surface $-1 32.103013683398864 15.228122953903746 0.66091200038387754 0 -0.61566148304635926 -0.78801074757464917 1.25 0 0 1 I I -0.70710678118654746 0.70710678118654746 1.25 forward I I I I #
loop $-1 $-1 $249 $72 #
coedge $-1 $157 $157 $250 $251 reversed $98 $-1 #
face $-1 $252 $253 $56 $-1 $254 reversed single #
loop $-1 $-1 $255 $100 #
plane-surface $-1 -24.638080586153482 -23.367504251553804 0.47474590807426154 0 -0.71933980857756763 0.69465836192734942 1 0 0 forward_v I I I I #
coedge $-1 $256 $257 $258 $259 reversed $101 $-1 #
face $-1 $-1 $260 $57 $-1 $261 forward single #
loop $-1 $262 $263 $103 #
cone-surface $-1 -27.427957866492189 -16.407865655665489 1.7080874158829253 0 0.71933980857756763 -0.69465836192734942 0.75 0 0 1 I I -0.70710678118654757 0.70710678118654757 0.75 forward I I I I #
loop $-1 $-1 $264 $74 #
coedge $-1 $166 $166 $265 $266 reversed $104 $-1 #
face $-1 $-1 $267 $58 $-1 $268 forward single #
loop $-1 $269 $270 $106 #
cone-surface $-1 -21.848203305814771 -16.407865655665489 1.7080874158829253 0 0.71933980857756763 -0.69465836192734942 0.75 0 0 1 I I -0.70710678118654757 0.70710678118654757 0.75 forward I I I I #
loop $-1 $-1 $271 $75 #
coedge $-1 $171 $171 $272 $273 reversed $107 $-1 #
face $-1 $274 $275 $59 $-1 $276 reversed single #
loop $-1 $-1 $277 $109 #
plane-surface $-1 -5.6773225866717354 -23.367504251553804 0.47474590807426154 0 -0.71933980857756763 0.69465836192734942 1 0 0 forward_v I I I I #
coedge $-1 $278 $279 $280 $281 reversed $110 $-1 #
face $-1 $-1 $282 $60 $-1 $283 forward single #
loop $-1 $284 $285 $112 #
cone-surface $-1 -8.4671998670104429 -16.407865655665489 1.7080874158829253 0 0.71933980857756763 -0.69465836192734942 0.75 0 0 1 I I -0.70710678118654757 0.70710678118654757 0.75 forward I I I I #
loop $-1 $-1 $286 $77 #
coedge $-1 $180 $180 $287 $288 reversed $113 $-1 #
face $-1 $-1 $289 $61 $-1 $290 forward single #
loop $-1 $291 $292 $115 #
cone-surface $-1 -2.8874453063330279 -16.407865655665489 1.7080874158829253 0 0.71933980857756763 -0.69465836192734942 0.75 0 0 1 I I -0.70710678118654757 0.70710678118654757 0.75 forward I I I I #
loop $-1 $-1 $293 $78 #
coedge $-1 $185 $185 $294 $295 reversed $116 $-1 #
face $-1 $296 $297 $62 $-1 $298 reversed single #
loop $-1 $-1 $299 $118 #
plane-surface $-1 13.283435412810014 -23.367504251553804 0.47474590807426154 0 -0.71933980857756763 0.69465836192734942 1 0 0 forward_v I I I I #
coedge $-1 $300 $301 $302 $303 reversed $119 $-1 #
face $-1 $-1 $304 $63 $-1 $305 forward single #
loop $-1 $306 $307 $121 #
cone-surface $-1 10.4935581324713 -16.407865655665489 1.7080874158829253 0 0.71933980857756763 -0.69465836192734942 0.75 0 0 1 I I -0.70710678118654757 0.70710678118654757 0.75 forward I I I I #
loop $-1 $-1 $308 $80 #
coedge $-1 $194 $194 $309 $310 reversed $122 $-1 #
face $-1 $-1 $311 $64 $-1 $312 forward single #
loop $-1 $313 $314 $124 #
cone-surface $-1 16.073312693148715 -16.407865655665489 1.7080874158829253 0 0.71933980857756763 -0.69465836192734942 0.75 0 0 1 I I -0.70710678118654757 0.70710678118654757 0.75 forward I I I I #
loop $-1 $-1 $315 $81 #
coedge $-1 $199 $199 $316 $317 reversed $125 $-1 #
face $-1 $318 $319 $65 $-1 $320 reversed single #
loop $-1 $-1 $321 $127 #
plane-surface $-1 32.244193412291757 -23.367504251553804 0.47474590807426154 0 -0.71933980857756763 0.69465836192734942 1 0 0 forward_v I I I I #
coedge $-1 $322 $323 $324 $325 reversed $128 $-1 #
face $-1 $-1 $326 $66 $-1 $327 forward single #
loop $-1 $328 $329 $130 #
cone-surface $-1 29.454316131953043 -16.407865655665489 1.7080874158829253 0 0.71933980857756763 -0.69465836192734942 0.75 0 0 1 I I -0.70710678118654757 0.70710678118654757 0.75 forward I I I I #
loop $-1 $-1 $330 $83 #
coedge $-1 $208 $208 $331 $332 reversed $131 $-1 #
face $-1 $-1 $333 $67 $-1 $334 forward single #
loop $-1 $335 $336 $133 #
cone-surface $-1 35.034070692630458 -16.407865655665489 1.7080874158829253 0 0.71933980857756763 -0.69465836192734942 0.75 0 0 1 I I -0.70710678118654757 0.70710678118654757 0.75 forward I I I I #
loop $-1 $-1 $337 $84 #
coedge $-1 $213 $213 $338 $339 reversed $134 $-1 #
face $-1 $340 $341 $51 $-1 $342 reversed single #
loop $-1 $-1 $343 $136 #
plane-surface $-1 0 -23.367504251553793 0 0 1 0 0 0 1 forward_v I I I I #
coedge $-1 $344 $345 $346 $347 forward $137 $-1 #
coedge $-1 $348 $139 $349 $350 forward $86 $-1 #
coedge $-1 $139 $348 $351 $352 forward $86 $-1 #
coedge $-1 $353 $354 $139 $221 reversed $355 $-1 #
edge $-1 $356 -23.367504251553793 $357 23.367504251553793 $220 $358 forward 7 unknown #
face $-1 $359 $360 $52 $-1 $361 reversed single #
loop $-1 $-1 $362 $140 #
plane-surface $-1 0 0 8.7065294093430836 0 0 1 1 0 0 forward_v I I I I #
coedge $-1 $363 $364 $365 $366 reversed $141 $-1 #
coedge $-1 $367 $143 $368 $369 reversed $89 $-1 #
coedge $-1 $143 $367 $370 $371 reversed $89 $-1 #
coedge $-1 $364 $363 $143 $229 reversed $141 $-1 #
edge $-1 $372 -8.7065294093430836 $373 8.7065294093430836 $228 $374 forward 7 unknown #
face $-1 $375 $376 $53 $-1 $377 reversed single #
loop $-1 $-1 $378 $144 #
plane-surface $-1 37.431723307887758 37.259784555225323 94.964266687395906 -1 0 0 0 0.61566148304635926 0.78801074757464917 forward_v I I I I #
coedge $-1 $379 $380 $381 $382 reversed $145 $-1 #
coedge $-1 $235 $147 $383 $384 reversed $92 $-1 #
coedge $-1 $147 $234 $379 $385 reversed $92 $-1 #
coedge $-1 $381 $386 $147 $237 forward $387 $-1 #
edge $-1 $388 -4.7376119739411315 $389 4.777226049821568 $236 $390 forward 7 unknown #
loop $-1 $-1 $243 $148 #
plane-surface $-1 28.106481465032196 -13.460184736887598 30.045667717917127 0 0.61566148304635926 0.78801074757464917 1 0 0 forward_v I I I I #
loop $-1 $-1 $391 $94 #
coedge $-1 $241 $241 $242 $392 reversed $149 $-1 #
coedge $-1 $242 $242 $241 $392 forward $151 $-1 #
coedge $-1 $243 $243 $152 $244 forward $238 $-1 #
edge $-1 $393 2.7111917446374903e-016 $393 6.2831853071796004 $243 $394 forward 7 unknown #
loop $-1 $-1 $250 $153 #
plane-surface $-1 28.106481465032196 -13.460184736887598 30.045667717917127 0 0.61566148304635926 0.78801074757464917 1 0 0 forward_v I I I I #
loop $-1 $-1 $395 $97 #
coedge $-1 $248 $248 $249 $396 reversed $154 $-1 #
coedge $-1 $249 $249 $248 $396 forward $156 $-1 #
coedge $-1 $250 $250 $157 $251 forward $245 $-1 #
edge $-1 $397 2.7111917446374903e-016 $397 6.2831853071796004 $250 $398 forward 7 unknown #
face $-1 $399 $400 $56 $-1 $401 forward single #
loop $-1 $-1 $402 $158 #
plane-surface $-1 -31.147794240277136 -82.628793135694224 57.702706005769024 1 0 0 0 0.71933980857756763 -0.69465836192734942 forward_v I I I I #
coedge $-1 $403 $404 $405 $406 reversed $159 $-1 #
coedge $-1 $257 $161 $407 $408 reversed $101 $-1 #
coedge $-1 $161 $256 $403 $409 reversed $101 $-1 #
coedge $-1 $405 $410 $161 $259 forward $400 $-1 #
edge $-1 $411 17.946892316293319 $412 25.896233051431238 $258 $413 forward 7 unknown #
loop $-1 $-1 $265 $162 #
plane-surface $-1 -24.638080586153482 -23.367504251553804 0.47474590807426154 0 -0.71933980857756763 0.69465836192734942 1 0 0 forward_v I I I I #
loop $-1 $-1 $414 $103 #
coedge $-1 $263 $263 $264 $415 reversed $163 $-1 #
coedge $-1 $264 $264 $263 $415 forward $165 $-1 #
coedge $-1 $265 $265 $166 $266 forward $260 $-1 #
edge $-1 $416 -9.1032686796429603e-016 $416 6.2831853071795996 $265 $417 forward 7 unknown #
loop $-1 $-1 $272 $167 #
plane-surface $-1 -24.638080586153482 -23.367504251553804 0.47474590807426154 0 -0.71933980857756763 0.69465836192734942 1 0 0 forward_v I I I I #
loop $-1 $-1 $418 $106 #
coedge $-1 $270 $270 $271 $419 reversed $168 $-1 #
coedge $-1 $271 $271 $270 $419 forward $170 $-1 #
coedge $-1 $272 $272 $171 $273 forward $267 $-1 #
edge $-1 $420 -9.1032686796429603e-016 $420 6.2831853071795996 $272 $421 forward 7 unknown #
face $-1 $422 $423 $59 $-1 $424 reversed single #
loop $-1 $-1 $425 $172 #
plane-surface $-1 -12.18703624079539 -82.628793135694224 57.702706005769024 1 0 0 0 0.71933980857756763 -0.69465836192734942 forward_v I I I I #
coedge $-1 $426 $427 $428 $429 reversed $173 $-1 #
coedge $-1 $279 $175 $430 $431 reversed $110 $-1 #
coedge $-1 $175 $278 $426 $432 reversed $110 $-1 #
coedge $-1 $428 $433 $175 $281 forward $434 $-1 #
edge $-1 $435 17.946892316293319 $436 25.896233051431238 $280 $437 forward 7 unknown #
loop $-1 $-1 $287 $176 #
plane-surface $-1 -5.6773225866717354 -23.367504251553804 0.47474590807426154 0 -0.71933980857756763 0.69465836192734942 1 0 0 forward_v I I I I #
loop $-1 $-1 $438 $112 #
coedge $-1 $285 $285 $286 $439 reversed $177 $-1 #
coedge $-1 $286 $286 $285 $439 forward $179 $-1 #
coedge $-1 $287 $287 $180 $288 forward $282 $-1 #
edge $-1 $440 -9.1032686796429603e-016 $440 6.2831853071795996 $287 $441 forward 7 unknown #
loop $-1 $-1 $294 $181 #
plane-surface $-1 -5.6773225866717354 -23.367504251553804 0.47474590807426154 0 -0.71933980857756763 0.69465836192734942 1 0 0 forward_v I I I I #
loop $-1 $-1 $442 $115 #
coedge $-1 $292 $292 $293 $443 reversed $182 $-1 #
coedge $-1 $293 $293 $292 $443 forward $184 $-1 #
coedge $-1 $294 $294 $185 $295 forward $289 $-1 #
edge $-1 $444 -9.1032686796429603e-016 $444 6.2831853071795996 $294 $445 forward 7 unknown #
face $-1 $446 $447 $62 $-1 $448 reversed single #
loop $-1 $-1 $449 $186 #
plane-surface $-1 6.7737217586863609 -82.628793135694224 57.702706005769024 1 0 0 0 0.71933980857756763 -0.69465836192734942 forward_v I I I I #
coedge $-1 $450 $451 $452 $453 reversed $187 $-1 #
coedge $-1 $301 $189 $454 $455 reversed $119 $-1 #
coedge $-1 $189 $300 $450 $456 reversed $119 $-1 #
coedge $-1 $452 $457 $189 $303 forward $458 $-1 #
edge $-1 $459 17.946892316293319 $460 25.896233051431238 $302 $461 forward 7 unknown #
loop $-1 $-1 $309 $190 #
plane-surface $-1 13.283435412810014 -23.367504251553804 0.47474590807426154 0 -0.71933980857756763 0.69465836192734942 1 0 0 forward_v I I I I #
loop $-1 $-1 $462 $121 #
coedge $-1 $307 $307 $308 $463 reversed $191 $-1 #
coedge $-1 $308 $308 $307 $463 forward $193 $-1 #
coedge $-1 $309 $309 $194 $310 forward $304 $-1 #
edge $-1 $464 -9.1032686796429603e-016 $464 6.2831853071795996 $309 $465 forward 7 unknown #
loop $-1 $-1 $316 $195 #
plane-surface $-1 13.283435412810014 -23.367504251553804 0.47474590807426154 0 -0.71933980857756763 0.69465836192734942 1 0 0 forward_v I I I I #
loop $-1 $-1 $466 $124 #
coedge $-1 $314 $314 $315 $467 reversed $196 $-1 #
coedge $-1 $315 $315 $314 $467 forward $198 $-1 #
coedge $-1 $316 $316 $199 $317 forward $311 $-1 #
edge $-1 $468 -9.1032686796429603e-016 $468 6.2831853071795996 $316 $469 forward 7 unknown #
face $-1 $470 $471 $65 $-1 $472 reversed single #
loop $-1 $-1 $473 $200 #
plane-surface $-1 25.734479758168103 -82.628793135694224 57.702706005769024 1 0 0 0 0.71933980857756763 -0.69465836192734942 forward_v I I I I #
coedge $-1 $474 $475 $476 $477 reversed $201 $-1 #
coedge $-1 $323 $203 $478 $479 reversed $128 $-1 #
coedge $-1 $203 $322 $474 $480 reversed $128 $-1 #
coedge $-1 $476 $481 $203 $325 forward $482 $-1 #
edge $-1 $483 17.946892316293319 $484 25.896233051431238 $324 $485 forward 7 unknown #
loop $-1 $-1 $331 $204 #
plane-surface $-1 32.244193412291757 -23.367504251553804 0.47474590807426154 0 -0.71933980857756763 0.69465836192734942 1 0 0 forward_v I I I I #
loop $-1 $-1 $486 $130 #
coedge $-1 $329 $329 $330 $487 reversed $205 $-1 #
coedge $-1 $330 $330 $329 $487 forward $207 $-1 #
coedge $-1 $331 $331 $208 $332 forward $326 $-1 #
edge $-1 $488 -9.1032686796429603e-016 $488 6.2831853071795996 $331 $489 forward 7 unknown #
loop $-1 $-1 $338 $209 #
plane-surface $-1 32.244193412291757 -23.367504251553804 0.47474590807426154 0 -0.71933980857756763 0.69465836192734942 1 0 0 forward_v I I I I #
loop $-1 $-1 $490 $133 #
coedge $-1 $336 $336 $337 $491 reversed $210 $-1 #
coedge $-1 $337 $337 $336 $491 forward $212 $-1 #
coedge $-1 $338 $338 $213 $339 forward $333 $-1 #
edge $-1 $492 -9.1032686796429603e-016 $492 6.2831853071795996 $338 $493 forward 7 unknown #
face $-1 $494 $495 $51 $-1 $496 reversed single #
loop $-1 $-1 $497 $214 #
plane-surface $-1 -41.191442609942932 0 0 1 0 0 0 0 -1 forward_v I I I I #
coedge $-1 $498 $351 $499 $500 forward $215 $-1 #
coedge $-1 $501 $217 $498 $502 forward $137 $-1 #
coedge $-1 $217 $501 $503 $504 forward $137 $-1 #
coedge $-1 $354 $353 $217 $347 reversed $355 $-1 #
edge $-1 $505 -23.367504251553793 $506 23.367504251553793 $346 $507 forward 7 unknown #
coedge $-1 $219 $218 $508 $509 forward $86 $-1 #
coedge $-1 $510 $511 $218 $350 reversed $495 $-1 #
edge $-1 $357 -41.191442609942932 $512 41.191442609942932 $349 $513 forward 7 unknown #
coedge $-1 $343 $514 $219 $352 reversed $215 $-1 #
edge $-1 $515 -41.191442609942932 $356 41.191442609942932 $351 $516 forward 7 unknown #
coedge $-1 $346 $220 $514 $517 forward $355 $-1 #
coedge $-1 $220 $346 $510 $518 reversed $355 $-1 #
loop $-1 $-1 $353 $494 #
vertex $-1 $221 $519 #
vertex $-1 $221 $520 #
straight-curve $-1 41.191442609942932 0 8.7065294093430836 0 1 0 I I #
face $-1 $521 $522 $52 $-1 $523 reversed single #
loop $-1 $-1 $524 $222 #
plane-surface $-1 -41.191442609942932 0 0 1 0 0 0 0 -1 forward_v I I I I #
coedge $-1 $370 $525 $364 $526 forward $223 $-1 #
coedge $-1 $228 $225 $527 $528 reversed $141 $-1 #
coedge $-1 $225 $228 $362 $526 reversed $141 $-1 #
coedge $-1 $529 $530 $225 $366 forward $531 $-1 #
edge $-1 $532 -8.7065294093430836 $533 8.7065294093430836 $365 $534 forward 7 unknown #
coedge $-1 $227 $226 $524 $535 reversed $89 $-1 #
coedge $-1 $527 $536 $226 $369 forward $522 $-1 #
edge $-1 $537 -22.230684610461186 $373 -15.690831388502307 $368 $538 forward 7 unknown #
coedge $-1 $539 $362 $227 $371 forward $223 $-1 #
edge $-1 $372 15.690831388502307 $540 22.230684610461186 $370 $541 forward 7 unknown #
vertex $-1 $371 $542 #
vertex $-1 $369 $543 #
straight-curve $-1 -34.651589387984053 -19.26265210661597 0 0 0 -1 I I #
face $-1 $-1 $387 $53 $-1 $544 forward single #
loop $-1 $-1 $545 $230 #
plane-surface $-1 0 23.367504251553793 0 0 -1 0 0 0 -1 forward_v I I I I #
coedge $-1 $546 $547 $548 $549 reversed $231 $-1 #
coedge $-1 $550 $233 $235 $385 forward $145 $-1 #
coedge $-1 $233 $550 $546 $551 forward $145 $-1 #
coedge $-1 $548 $236 $233 $382 forward $387 $-1 #
edge $-1 $389 4.7279988896605367 $552 23.37848257537166 $381 $553 forward 7 unknown #
coedge $-1 $554 $555 $234 $384 forward $376 $-1 #
edge $-1 $556 -46.209410270988258 $388 -38.775603934354869 $383 $557 forward 7 unknown #
edge $-1 $389 34.660505645059501 $556 46.735008503107579 $235 $558 forward 7 unknown #
coedge $-1 $236 $548 $554 $559 forward $387 $-1 #
loop $-1 $-1 $548 $375 #
vertex $-1 $384 $560 #
vertex $-1 $237 $561 #
straight-curve $-1 18.781239622176635 18.629892277612662 8.7065294093430836 0 -1 0 I I #
coedge $-1 $391 $391 $-1 $562 reversed $240 $-1 #
edge $-1 $563 0 $563 6.2831853071796004 $241 $564 forward 7 unknown #
vertex $-1 $244 $565 #
ellipse-curve $-1 24.109949246665529 18.610085239672447 4.9896262410263894 0 0.61566148304635926 0.78801074757464917 2.5 0 0 1 I I #
coedge $-1 $395 $395 $-1 $566 reversed $247 $-1 #
edge $-1 $567 0 $567 6.2831853071796004 $248 $568 forward 7 unknown #
vertex $-1 $251 $569 #
ellipse-curve $-1 32.103013683398864 18.610085239672447 4.9896262410263894 0 0.61566148304635926 0.78801074757464917 2.5 0 0 1 I I #
face $-1 $-1 $570 $56 $-1 $571 reversed single #
loop $-1 $-1 $258 $252 #
plane-surface $-1 0 0 8.7065294093430836 0 0 1 1 0 0 forward_v I I I I #
coedge $-1 $572 $573 $574 $575 reversed $253 $-1 #
coedge $-1 $576 $255 $257 $409 forward $159 $-1 #
coedge $-1 $255 $576 $572 $577 forward $159 $-1 #
coedge $-1 $574 $258 $255 $406 forward $400 $-1 #
edge $-1 $412 5.8093266389530864 $578 18.828753947200397 $405 $579 forward 7 unknown #
coedge $-1 $580 $581 $256 $408 forward $570 $-1 #
edge $-1 $582 -28.37660709481024 $411 -20.144823593541428 $407 $583 forward 7 unknown #
edge $-1 $412 -11.443525581527961 $582 -1.53501115927594e-014 $257 $584 forward 7 unknown #
coedge $-1 $258 $574 $580 $585 forward $400 $-1 #
vertex $-1 $259 $586 #
vertex $-1 $259 $587 #
straight-curve $-1 -18.128366932029827 -41.314396567847112 8.7065294093430836 0 1 0 I I #
coedge $-1 $414 $414 $-1 $588 reversed $262 $-1 #
edge $-1 $589 0 $589 6.2831853071796004 $263 $590 forward 7 unknown #
vertex $-1 $266 $591 #
ellipse-curve $-1 -27.427957866492189 -19.392833883984832 4.5906376587086779 0 -0.71933980857756763 0.69465836192734942 1.5 0 0 1 I I #
coedge $-1 $418 $418 $-1 $592 reversed $269 $-1 #
edge $-1 $593 0 $593 6.2831853071796004 $270 $594 forward 7 unknown #
vertex $-1 $273 $595 #
ellipse-curve $-1 -21.848203305814771 -19.392833883984832 4.5906376587086779 0 -0.71933980857756763 0.69465836192734942 1.5 0 0 1 I I #
face $-1 $-1 $434 $59 $-1 $596 forward single #
loop $-1 $-1 $597 $274 #
plane-surface $-1 0 -23.367504251553793 0 0 1 0 0 0 1 forward_v I I I I #
coedge $-1 $598 $599 $600 $601 reversed $275 $-1 #
coedge $-1 $602 $277 $279 $432 forward $173 $-1 #
coedge $-1 $277 $602 $598 $603 forward $173 $-1 #
coedge $-1 $600 $280 $277 $429 forward $434 $-1 #
edge $-1 $436 -3.6710523607877859 $604 9.3483749474595221 $428 $605 forward 7 unknown #
coedge $-1 $606 $607 $278 $431 forward $423 $-1 #
edge $-1 $608 -28.37660709481024 $435 -20.144823593541428 $430 $609 forward 7 unknown #
edge $-1 $436 -11.443525581527961 $608 -1.53501115927594e-014 $279 $610 forward 7 unknown #
coedge $-1 $280 $600 $606 $611 forward $434 $-1 #
loop $-1 $-1 $600 $422 #
vertex $-1 $431 $612 #
vertex $-1 $281 $613 #
straight-curve $-1 0.83239106745191815 -41.314396567847112 8.7065294093430836 0 1 0 I I #
coedge $-1 $438 $438 $-1 $614 reversed $284 $-1 #
edge $-1 $615 0 $615 6.2831853071796004 $285 $616 forward 7 unknown #
vertex $-1 $288 $617 #
ellipse-curve $-1 -8.4671998670104429 -19.392833883984832 4.5906376587086779 0 -0.71933980857756763 0.69465836192734942 1.5 0 0 1 I I #
coedge $-1 $442 $442 $-1 $618 reversed $291 $-1 #
edge $-1 $619 0 $619 6.2831853071796004 $292 $620 forward 7 unknown #
vertex $-1 $295 $621 #
ellipse-curve $-1 -2.8874453063330279 -19.392833883984832 4.5906376587086779 0 -0.71933980857756763 0.69465836192734942 1.5 0 0 1 I I #
face $-1 $-1 $458 $62 $-1 $622 forward single #
loop $-1 $-1 $623 $296 #
plane-surface $-1 0 -23.367504251553793 0 0 1 0 0 0 1 forward_v I I I I #
coedge $-1 $624 $625 $626 $627 reversed $297 $-1 #
coedge $-1 $628 $299 $301 $456 forward $187 $-1 #
coedge $-1 $299 $628 $624 $629 forward $187 $-1 #
coedge $-1 $626 $302 $299 $453 forward $458 $-1 #
edge $-1 $460 -13.151431360528662 $630 -0.1320040522813537 $452 $631 forward 7 unknown #
coedge $-1 $632 $633 $300 $455 forward $447 $-1 #
edge $-1 $634 -28.37660709481024 $459 -20.144823593541428 $454 $635 forward 7 unknown #
edge $-1 $460 -11.443525581527961 $634 -1.53501115927594e-014 $301 $636 forward 7 unknown #
coedge $-1 $302 $626 $632 $637 forward $458 $-1 #
loop $-1 $-1 $626 $446 #
vertex $-1 $455 $638 #
vertex $-1 $303 $639 #
straight-curve $-1 19.793149066933669 -41.314396567847112 8.7065294093430836 0 1 0 I I #
coedge $-1 $462 $462 $-1 $640 reversed $306 $-1 #
edge $-1 $641 0 $641 6.2831853071796004 $307 $642 forward 7 unknown #
vertex $-1 $310 $643 #
ellipse-curve $-1 10.4935581324713 -19.392833883984832 4.5906376587086779 0 -0.71933980857756763 0.69465836192734942 1.5 0 0 1 I I #
coedge $-1 $466 $466 $-1 $644 reversed $313 $-1 #
edge $-1 $645 0 $645 6.2831853071796004 $314 $646 forward 7 unknown #
vertex $-1 $317 $647 #
ellipse-curve $-1 16.073312693148715 -19.392833883984832 4.5906376587086779 0 -0.71933980857756763 0.69465836192734942 1.5 0 0 1 I I #
face $-1 $-1 $482 $65 $-1 $648 forward single #
loop $-1 $-1 $649 $318 #
plane-surface $-1 0 -23.367504251553793 0 0 1 0 0 0 1 forward_v I I I I #
coedge $-1 $650 $651 $652 $653 reversed $319 $-1 #
coedge $-1 $654 $321 $323 $480 forward $201 $-1 #
coedge $-1 $321 $654 $650 $655 forward $201 $-1 #
coedge $-1 $652 $324 $321 $477 forward $482 $-1 #
edge $-1 $484 -22.63181036026953 $656 -9.6123830520222242 $476 $657 forward 7 unknown #
coedge $-1 $658 $659 $322 $479 forward $471 $-1 #
edge $-1 $660 -28.37660709481024 $483 -20.144823593541428 $478 $661 forward 7 unknown #
edge $-1 $484 -11.443525581527961 $660 -1.53501115927594e-014 $323 $662 forward 7 unknown #
coedge $-1 $324 $652 $658 $663 forward $482 $-1 #
loop $-1 $-1 $652 $470 #
vertex $-1 $479 $664 #
vertex $-1 $325 $665 #
straight-curve $-1 38.753907066415408 -41.314396567847112 8.7065294093430836 0 1 0 I I #
coedge $-1 $486 $486 $-1 $666 reversed $328 $-1 #
edge $-1 $667 0 $667 6.2831853071796004 $329 $668 forward 7 unknown #
vertex $-1 $332 $669 #
ellipse-curve $-1 29.454316131953043 -19.392833883984832 4.5906376587086779 0 -0.71933980857756763 0.69465836192734942 1.5 0 0 1 I I #
coedge $-1 $490 $490 $-1 $670 reversed $335 $-1 #
edge $-1 $671 0 $671 6.2831853071796004 $336 $672 forward 7 unknown #
vertex $-1 $339 $673 #
ellipse-curve $-1 35.034070692630458 -19.392833883984832 4.5906376587086779 0 -0.71933980857756763 0.69465836192734942 1.5 0 0 1 I I #
face $-1 $-1 $355 $51 $-1 $674 reversed single #
loop $-1 $-1 $510 $340 #
plane-surface $-1 0 23.367504251553793 0 0 -1 0 0 0 -1 forward_v I I I I #
coedge $-1 $675 $508 $511 $676 forward $341 $-1 #
coedge $-1 $514 $343 $344 $502 reversed $215 $-1 #
coedge $-1 $508 $675 $343 $500 reversed $341 $-1 #
edge $-1 $515 -8.7065294093430836 $677 8.7065294093430836 $499 $678 forward 7 unknown #
coedge $-1 $345 $344 $675 $679 forward $137 $-1 #
edge $-1 $506 -41.191442609942932 $677 41.191442609942932 $498 $680 forward 7 unknown #
coedge $-1 $511 $510 $345 $504 reversed $495 $-1 #
edge $-1 $681 -41.191442609942932 $505 41.191442609942932 $503 $682 forward 7 unknown #
vertex $-1 $347 $683 #
vertex $-1 $517 $684 #
straight-curve $-1 41.191442609942932 0 -8.7065294093430836 0 -1 0 I I #
coedge $-1 $497 $499 $348 $509 reversed $341 $-1 #
edge $-1 $512 -23.367504251553793 $515 23.367504251553793 $508 $685 forward 7 unknown #
coedge $-1 $503 $349 $354 $518 forward $495 $-1 #
coedge $-1 $349 $503 $497 $676 reversed $495 $-1 #
vertex $-1 $350 $686 #
straight-curve $-1 0 23.367504251553793 8.7065294093430836 -1 0 0 I I #
coedge $-1 $351 $498 $353 $517 reversed $215 $-1 #
vertex $-1 $509 $687 #
straight-curve $-1 0 -23.367504251553793 8.7065294093430836 1 0 0 I I #
edge $-1 $356 -8.7065294093430836 $506 8.7065294093430836 $353 $688 forward 7 unknown #
edge $-1 $357 -8.7065294093430836 $505 8.7065294093430836 $354 $689 forward 7 unknown #
point $-1 41.191442609942932 -23.367504251553793 8.7065294093430836 #
point $-1 41.191442609942932 23.367504251553793 8.7065294093430836 #
face $-1 $-1 $531 $52 $-1 $690 reversed single #
loop $-1 $-1 $527 $359 #
plane-surface $-1 0 0 -8.7065294093430836 0 0 1 1 0 0 forward_v I I I I #
coedge $-1 $691 $692 $367 $535 forward $360 $-1 #
coedge $-1 $362 $539 $529 $693 forward $223 $-1 #
edge $-1 $533 -12.709965162011352 $372 -8.6051130170735295 $362 $694 forward 7 unknown #
coedge $-1 $695 $368 $363 $528 forward $522 $-1 #
edge $-1 $373 8.6051130170735295 $532 12.709965162011352 $527 $696 forward 7 unknown #
coedge $-1 $697 $365 $525 $693 reversed $531 $-1 #
coedge $-1 $365 $697 $695 $698 reversed $531 $-1 #
loop $-1 $-1 $365 $521 #
vertex $-1 $698 $699 #
vertex $-1 $366 $700 #
straight-curve $-1 -34.651589387984053 -23.367504251553793 0 0 0 1 I I #
edge $-1 $540 -8.7065294093430836 $537 8.7065294093430836 $524 $701 forward 7 unknown #
coedge $-1 $368 $695 $691 $702 forward $522 $-1 #
vertex $-1 $369 $703 #
straight-curve $-1 -18.960757999481746 -19.26265210661597 -8.7065294093430836 1 0 0 I I #
coedge $-1 $525 $370 $692 $704 forward $223 $-1 #
vertex $-1 $704 $705 #
straight-curve $-1 -18.960757999481746 -19.26265210661597 8.7065294093430836 -1 0 0 I I #
point $-1 -34.651589387984053 -19.26265210661597 8.7065294093430836 #
point $-1 -34.651589387984053 -19.26265210661597 -8.7065294093430836 #
plane-surface $-1 0 0 8.7065294093430836 0 0 1 1 0 0 forward_v I I I I #
coedge $-1 $555 $554 $547 $706 forward $376 $-1 #
coedge $-1 $547 $378 $380 $551 reversed $231 $-1 #
coedge $-1 $378 $546 $545 $706 reversed $231 $-1 #
coedge $-1 $386 $381 $378 $549 forward $387 $-1 #
edge $-1 $552 -4.777226049821568 $707 4.7376119739411315 $548 $708 forward 7 unknown #
coedge $-1 $380 $379 $555 $709 reversed $145 $-1 #
edge $-1 $710 -46.735008503107579 $552 -34.660505645059501 $546 $711 forward 7 unknown #
vertex $-1 $382 $712 #
straight-curve $-1 14.053240732516098 13.852666227791094 8.7065294093430818 1 0 0 I I #
coedge $-1 $545 $383 $386 $559 reversed $376 $-1 #
coedge $-1 $383 $545 $550 $709 forward $376 $-1 #
vertex $-1 $384 $713 #
straight-curve $-1 18.781239622176635 23.367504251553793 47.482133343697953 0 0 1 I I #
straight-curve $-1 18.781239622176635 -13.460184736887598 30.045667717917127 0 0.78801074757464917 -0.61566148304635926 I I #
edge $-1 $707 -37.431723307887758 $388 -18.781239622176635 $554 $714 forward 7 unknown #
point $-1 18.781239622176635 23.367504251553793 8.7065294093430836 #
point $-1 18.781239622176635 13.852666227791094 8.7065294093430836 #
edge $-1 $715 1 $715 0 $391 $-1 forward 7 unknown #
vertex $-1 $392 $716 #
ellipse-curve $-1 24.109949246665529 15.997699807711696 1.645925434852189 0 0.61566148304635926 0.78801074757464917 2.5 0 0 1 I I #
point $-1 26.609949246665529 18.610085239672454 4.9896262410263974 #
edge $-1 $717 1 $717 0 $395 $-1 forward 7 unknown #
vertex $-1 $396 $718 #
ellipse-curve $-1 32.103013683398864 15.997699807711696 1.645925434852189 0 0.61566148304635926 0.78801074757464917 2.5 0 0 1 I I #
point $-1 34.603013683398864 18.610085239672454 4.9896262410263974 #
loop $-1 $-1 $407 $399 #
plane-surface $-1 0 -23.367504251553793 0 0 1 0 0 0 1 forward_v I I I I #
coedge $-1 $573 $402 $404 $577 reversed $253 $-1 #
coedge $-1 $402 $572 $719 $720 reversed $253 $-1 #
coedge $-1 $410 $405 $402 $575 forward $400 $-1 #
edge $-1 $578 -25.896233051431238 $721 -17.946892316293319 $574 $722 forward 7 unknown #
coedge $-1 $404 $403 $581 $723 reversed $159 $-1 #
edge $-1 $724 1.53501115927594e-014 $578 11.443525581527961 $572 $725 forward 7 unknown #
vertex $-1 $406 $726 #
straight-curve $-1 -12.319040293076741 -15.418163516415872 8.7065294093430836 -1 0 0 I I #
coedge $-1 $719 $407 $410 $585 reversed $570 $-1 #
coedge $-1 $407 $719 $576 $723 forward $570 $-1 #
vertex $-1 $408 $727 #
straight-curve $-1 -18.128366932029827 -23.367504251553793 28.851353002884512 0 0 1 I I #
straight-curve $-1 -18.128366932029827 -23.367504251553804 0.47474590807426154 0 -0.69465836192734942 -0.71933980857756763 I I #
edge $-1 $721 -31.147794240277136 $411 -18.128366932029827 $580 $728 forward 7 unknown #
point $-1 -18.128366932029827 -23.367504251553793 8.7065294093430836 #
point $-1 -18.128366932029827 -15.418163516415872 8.7065294093430836 #
edge $-1 $729 1 $729 0 $414 $-1 forward 7 unknown #
vertex $-1 $415 $730 #
ellipse-curve $-1 -27.427957866492189 -16.947370512098665 2.2290811873284375 0 -0.71933980857756763 0.69465836192734942 1.5 0 0 1 I I #
point $-1 -25.927957866492189 -19.392833883984828 4.5906376587086726 #
edge $-1 $731 1 $731 0 $418 $-1 forward 7 unknown #
vertex $-1 $419 $732 #
ellipse-curve $-1 -21.848203305814771 -16.947370512098665 2.2290811873284375 0 -0.71933980857756763 0.69465836192734942 1.5 0 0 1 I I #
point $-1 -20.348203305814771 -19.392833883984828 4.5906376587086726 #
plane-surface $-1 0 0 8.7065294093430836 0 0 1 1 0 0 forward_v I I I I #
coedge $-1 $607 $606 $599 $733 forward $423 $-1 #
coedge $-1 $599 $425 $427 $603 reversed $275 $-1 #
coedge $-1 $425 $598 $597 $733 reversed $275 $-1 #
coedge $-1 $433 $428 $425 $601 forward $434 $-1 #
edge $-1 $604 -25.896233051431238 $734 -17.946892316293319 $600 $735 forward 7 unknown #
coedge $-1 $427 $426 $607 $736 reversed $173 $-1 #
edge $-1 $737 1.53501115927594e-014 $604 11.443525581527961 $598 $738 forward 7 unknown #
vertex $-1 $429 $739 #
straight-curve $-1 -2.8386612933358677 -15.418163516415872 8.7065294093430836 -1 0 0 I I #
coedge $-1 $597 $430 $433 $611 reversed $423 $-1 #
coedge $-1 $430 $597 $602 $736 forward $423 $-1 #
vertex $-1 $431 $740 #
straight-curve $-1 0.83239106745191815 -23.367504251553793 28.851353002884512 0 0 1 I I #
straight-curve $-1 0.83239106745191815 -23.367504251553804 0.47474590807426154 0 -0.69465836192734942 -0.71933980857756763 I I #
edge $-1 $734 -12.18703624079539 $435 0.83239106745191815 $606 $741 forward 7 unknown #
point $-1 0.83239106745191815 -23.367504251553793 8.7065294093430836 #
point $-1 0.83239106745191815 -15.418163516415872 8.7065294093430836 #
edge $-1 $742 1 $742 0 $438 $-1 forward 7 unknown #
vertex $-1 $439 $743 #
ellipse-curve $-1 -8.4671998670104429 -16.947370512098665 2.2290811873284375 0 -0.71933980857756763 0.69465836192734942 1.5 0 0 1 I I #
point $-1 -6.9671998670104429 -19.392833883984828 4.5906376587086726 #
edge $-1 $744 1 $744 0 $442 $-1 forward 7 unknown #
vertex $-1 $443 $745 #
ellipse-curve $-1 -2.8874453063330279 -16.947370512098665 2.2290811873284375 0 -0.71933980857756763 0.69465836192734942 1.5 0 0 1 I I #
point $-1 -1.3874453063330279 -19.392833883984828 4.5906376587086726 #
plane-surface $-1 0 0 8.7065294093430836 0 0 1 1 0 0 forward_v I I I I #
coedge $-1 $633 $632 $625 $746 forward $447 $-1 #
coedge $-1 $625 $449 $451 $629 reversed $297 $-1 #
coedge $-1 $449 $624 $623 $746 reversed $297 $-1 #
coedge $-1 $457 $452 $449 $627 forward $458 $-1 #
edge $-1 $630 -25.896233051431238 $747 -17.946892316293319 $626 $748 forward 7 unknown #
coedge $-1 $451 $450 $633 $749 reversed $187 $-1 #
edge $-1 $750 1.53501115927594e-014 $630 11.443525581527961 $624 $751 forward 7 unknown #
vertex $-1 $453 $752 #
straight-curve $-1 6.6417177064050072 -15.418163516415872 8.7065294093430836 -1 0 0 I I #
coedge $-1 $623 $454 $457 $637 reversed $447 $-1 #
coedge $-1 $454 $623 $628 $749 forward $447 $-1 #
vertex $-1 $455 $753 #
straight-curve $-1 19.793149066933669 -23.367504251553793 28.851353002884512 0 0 1 I I #
straight-curve $-1 19.793149066933669 -23.367504251553804 0.47474590807426154 0 -0.69465836192734942 -0.71933980857756763 I I #
edge $-1 $747 6.7737217586863609 $459 19.793149066933669 $632 $754 forward 7 unknown #
point $-1 19.793149066933669 -23.367504251553793 8.7065294093430836 #
point $-1 19.793149066933669 -15.418163516415872 8.7065294093430836 #
edge $-1 $755 1 $755 0 $462 $-1 forward 7 unknown #
vertex $-1 $463 $756 #
ellipse-curve $-1 10.4935581324713 -16.947370512098665 2.2290811873284375 0 -0.71933980857756763 0.69465836192734942 1.5 0 0 1 I I #
point $-1 11.9935581324713 -19.392833883984828 4.5906376587086726 #
edge $-1 $757 1 $757 0 $466 $-1 forward 7 unknown #
vertex $-1 $467 $758 #
ellipse-curve $-1 16.073312693148715 -16.947370512098665 2.2290811873284375 0 -0.71933980857756763 0.69465836192734942 1.5 0 0 1 I I #
point $-1 17.573312693148715 -19.392833883984828 4.5906376587086726 #
plane-surface $-1 0 0 8.7065294093430836 0 0 1 1 0 0 forward_v I I I I #
coedge $-1 $659 $658 $651 $759 forward $471 $-1 #
coedge $-1 $651 $473 $475 $655 reversed $319 $-1 #
coedge $-1 $473 $650 $649 $759 reversed $319 $-1 #
coedge $-1 $481 $476 $473 $653 forward $482 $-1 #
edge $-1 $656 -25.896233051431238 $760 -17.946892316293319 $652 $761 forward 7 unknown #
coedge $-1 $475 $474 $659 $762 reversed $201 $-1 #
edge $-1 $763 1.53501115927594e-014 $656 11.443525581527961 $650 $764 forward 7 unknown #
vertex $-1 $477 $765 #
straight-curve $-1 16.122096706145879 -15.418163516415872 8.7065294093430836 -1 0 0 I I #
coedge $-1 $649 $478 $481 $663 reversed $471 $-1 #
coedge $-1 $478 $649 $654 $762 forward $471 $-1 #
vertex $-1 $479 $766 #
straight-curve $-1 38.753907066415408 -23.367504251553793 28.851353002884512 0 0 1 I I #
straight-curve $-1 38.753907066415408 -23.367504251553804 0.47474590807426154 0 -0.69465836192734942 -0.71933980857756763 I I #
edge $-1 $760 25.734479758168103 $483 38.753907066415408 $658 $767 forward 7 unknown #
point $-1 38.753907066415408 -23.367504251553793 8.7065294093430836 #
point $-1 38.753907066415408 -15.418163516415872 8.7065294093430836 #
edge $-1 $768 1 $768 0 $486 $-1 forward 7 unknown #
vertex $-1 $487 $769 #
ellipse-curve $-1 29.454316131953043 -16.947370512098665 2.2290811873284375 0 -0.71933980857756763 0.69465836192734942 1.5 0 0 1 I I #
point $-1 30.954316131953043 -19.392833883984828 4.5906376587086726 #
edge $-1 $770 1 $770 0 $490 $-1 forward 7 unknown #
vertex $-1 $491 $771 #
ellipse-curve $-1 35.034070692630458 -16.947370512098665 2.2290811873284375 0 -0.71933980857756763 0.69465836192734942 1.5 0 0 1 I I #
point $-1 36.534070692630458 -19.392833883984828 4.5906376587086726 #
plane-surface $-1 41.191442609942932 0 0 -1 0 0 0 0 1 forward_v I I I I #
coedge $-1 $499 $497 $501 $679 reversed $341 $-1 #
edge $-1 $512 -8.7065294093430836 $681 8.7065294093430836 $511 $772 forward 7 unknown #
vertex $-1 $679 $773 #
straight-curve $-1 -41.191442609942932 -23.367504251553793 0 0 0 -1 I I #
edge $-1 $677 -23.367504251553793 $681 23.367504251553793 $675 $774 forward 7 unknown #
straight-curve $-1 0 -23.367504251553793 -8.7065294093430836 -1 0 0 I I #
vertex $-1 $504 $775 #
straight-curve $-1 0 23.367504251553793 -8.7065294093430836 1 0 0 I I #
point $-1 41.191442609942932 23.367504251553793 -8.7065294093430836 #
point $-1 41.191442609942932 -23.367504251553793 -8.7065294093430836 #
straight-curve $-1 -41.191442609942932 0 8.7065294093430836 0 -1 0 I I #
point $-1 -41.191442609942932 23.367504251553793 8.7065294093430836 #
point $-1 -41.191442609942932 -23.367504251553793 8.7065294093430836 #
straight-curve $-1 41.191442609942932 -23.367504251553793 0 0 0 -1 I I #
straight-curve $-1 41.191442609942932 23.367504251553793 0 0 0 -1 I I #
plane-surface $-1 0 -23.367504251553793 0 0 1 0 0 0 1 forward_v I I I I #
coedge $-1 $776 $524 $536 $702 reversed $360 $-1 #
coedge $-1 $524 $776 $539 $704 reversed $360 $-1 #
edge $-1 $777 -41.191442609942932 $533 -34.651589387984053 $529 $778 forward 7 unknown #
straight-curve $-1 -34.651589387984053 -10.657539089542441 8.7065294093430836 0 1 0 I I #
coedge $-1 $536 $527 $530 $698 forward $522 $-1 #
straight-curve $-1 -34.651589387984053 -10.657539089542441 -8.7065294093430836 0 -1 0 I I #
coedge $-1 $530 $529 $776 $779 forward $531 $-1 #
edge $-1 $532 34.651589387984053 $780 41.191442609942932 $530 $781 forward 7 unknown #
point $-1 -34.651589387984053 -23.367504251553793 -8.7065294093430836 #
point $-1 -34.651589387984053 -23.367504251553793 8.7065294093430836 #
straight-curve $-1 -41.191442609942932 -19.26265210661597 0 0 0 -1 I I #
edge $-1 $780 -23.367504251553793 $537 -19.26265210661597 $691 $782 forward 7 unknown #
point $-1 -41.191442609942932 -19.26265210661597 -8.7065294093430836 #
edge $-1 $540 19.26265210661597 $777 23.367504251553793 $692 $783 forward 7 unknown #
point $-1 -41.191442609942932 -19.26265210661597 8.7065294093430836 #
edge $-1 $707 38.775603934354869 $710 46.209410270988258 $545 $784 forward 7 unknown #
vertex $-1 $559 $785 #
straight-curve $-1 37.431723307887758 18.629892277612662 8.7065294093430836 0 1 0 I I #
edge $-1 $710 -23.37848257537166 $556 -4.7279988896605367 $555 $786 forward 7 unknown #
vertex $-1 $709 $787 #
straight-curve $-1 37.431723307887758 -13.460184736887598 30.045667717917127 0 -0.78801074757464917 0.61566148304635926 I I #
point $-1 37.431723307887758 13.852666227791094 8.7065294093430836 #
point $-1 18.781239622176635 23.367504251553797 1.2727230727096988 #
straight-curve $-1 0 23.367504251553793 8.7065294093430836 -1 0 0 I I #
vertex $-1 $562 $788 #
point $-1 26.609949246665529 15.997699807711696 1.645925434852189 #
vertex $-1 $566 $789 #
point $-1 34.603013683398864 15.997699807711696 1.645925434852189 #
coedge $-1 $581 $580 $573 $720 forward $570 $-1 #
edge $-1 $721 20.144823593541428 $724 28.37660709481024 $719 $790 forward 7 unknown #
vertex $-1 $585 $791 #
straight-curve $-1 -31.147794240277136 -41.314396567847112 8.7065294093430836 0 -1 0 I I #
edge $-1 $724 -18.828753947200397 $582 -5.8093266389530864 $581 $792 forward 7 unknown #
vertex $-1 $723 $793 #
straight-curve $-1 -31.147794240277136 -23.367504251553804 0.47474590807426154 0 0.69465836192734942 0.71933980857756763 I I #
point $-1 -31.147794240277136 -15.418163516415872 8.7065294093430836 #
point $-1 -18.128366932029827 -23.367504251553793 0.47474590807427258 #
straight-curve $-1 0 -23.367504251553793 8.7065294093430836 1 0 0 I I #
vertex $-1 $588 $794 #
point $-1 -25.927957866492189 -16.947370512098665 2.2290811873284375 #
vertex $-1 $592 $795 #
point $-1 -20.348203305814771 -16.947370512098665 2.2290811873284375 #
edge $-1 $734 20.144823593541428 $737 28.37660709481024 $597 $796 forward 7 unknown #
vertex $-1 $611 $797 #
straight-curve $-1 -12.18703624079539 -41.314396567847112 8.7065294093430836 0 -1 0 I I #
edge $-1 $737 -9.3483749474595221 $608 3.6710523607877859 $607 $798 forward 7 unknown #
vertex $-1 $736 $799 #
straight-curve $-1 -12.18703624079539 -23.367504251553804 0.47474590807426154 0 0.69465836192734942 0.71933980857756763 I I #
point $-1 -12.18703624079539 -15.418163516415872 8.7065294093430836 #
point $-1 0.83239106745191815 -23.367504251553793 0.47474590807427258 #
straight-curve $-1 0 -23.367504251553793 8.7065294093430836 1 0 0 I I #
vertex $-1 $614 $800 #
point $-1 -6.9671998670104429 -16.947370512098665 2.2290811873284375 #
vertex $-1 $618 $801 #
point $-1 -1.3874453063330279 -16.947370512098665 2.2290811873284375 #
edge $-1 $747 20.144823593541428 $750 28.37660709481024 $623 $802 forward 7 unknown #
vertex $-1 $637 $803 #
straight-curve $-1 6.7737217586863609 -41.314396567847112 8.7065294093430836 0 -1 0 I I #
edge $-1 $750 0.1320040522813537 $634 13.151431360528662 $633 $804 forward 7 unknown #
vertex $-1 $749 $805 #
straight-curve $-1 6.7737217586863609 -23.367504251553804 0.47474590807426154 0 0.69465836192734942 0.71933980857756763 I I #
point $-1 6.7737217586863609 -15.418163516415872 8.7065294093430836 #
point $-1 19.793149066933669 -23.367504251553793 0.47474590807427258 #
straight-curve $-1 0 -23.367504251553793 8.7065294093430836 1 0 0 I I #
vertex $-1 $640 $806 #
point $-1 11.9935581324713 -16.947370512098665 2.2290811873284375 #
vertex $-1 $644 $807 #
point $-1 17.573312693148715 -16.947370512098665 2.2290811873284375 #
edge $-1 $760 20.144823593541428 $763 28.37660709481024 $649 $808 forward 7 unknown #
vertex $-1 $663 $809 #
straight-curve $-1 25.734479758168103 -41.314396567847112 8.7065294093430836 0 -1 0 I I #
edge $-1 $763 9.6123830520222242 $660 22.63181036026953 $659 $810 forward 7 unknown #
vertex $-1 $762 $811 #
straight-curve $-1 25.734479758168103 -23.367504251553804 0.47474590807426154 0 0.69465836192734942 0.71933980857756763 I I #
point $-1 25.734479758168103 -15.418163516415872 8.7065294093430836 #
point $-1 38.753907066415408 -23.367504251553793 0.47474590807427258 #
straight-curve $-1 0 -23.367504251553793 8.7065294093430836 1 0 0 I I #
vertex $-1 $666 $812 #
point $-1 30.954316131953043 -16.947370512098665 2.2290811873284375 #
vertex $-1 $670 $813 #
point $-1 36.534070692630458 -16.947370512098665 2.2290811873284375 #
straight-curve $-1 -41.191442609942932 23.367504251553793 0 0 0 -1 I I #
point $-1 -41.191442609942932 -23.367504251553793 -8.7065294093430836 #
straight-curve $-1 -41.191442609942932 0 -8.7065294093430836 0 1 0 I I #
point $-1 -41.191442609942932 23.367504251553793 -8.7065294093430836 #
coedge $-1 $692 $691 $697 $779 reversed $360 $-1 #
vertex $-1 $704 $814 #
straight-curve $-1 0 -23.367504251553793 8.7065294093430836 1 0 0 I I #
edge $-1 $777 -8.7065294093430836 $780 8.7065294093430836 $776 $815 forward 7 unknown #
vertex $-1 $702 $816 #
straight-curve $-1 0 -23.367504251553793 -8.7065294093430836 -1 0 0 I I #
straight-curve $-1 -41.191442609942932 0 -8.7065294093430836 0 1 0 I I #
straight-curve $-1 -41.191442609942932 0 8.7065294093430836 0 -1 0 I I #
straight-curve $-1 37.431723307887758 23.367504251553793 47.482133343697953 0 0 -1 I I #
point $-1 37.431723307887758 23.367504251553793 8.7065294093430836 #
straight-curve $-1 14.053240732516098 23.367504251553793 1.2727230727097005 -1 0 0 I I #
point $-1 37.431723307887758 23.367504251553797 1.2727230727096988 #
point $-1 24.109949246665529 14.458546100095797 -0.32410143408443393 #
point $-1 32.103013683398864 14.458546100095797 -0.32410143408443393 #
straight-curve $-1 -31.147794240277136 -23.367504251553793 28.851353002884512 0 0 -1 I I #
point $-1 -31.147794240277136 -23.367504251553793 8.7065294093430836 #
straight-curve $-1 -12.319040293076741 -23.367504251553793 0.47474590807427092 1 0 0 I I #
point $-1 -31.147794240277136 -23.367504251553793 0.47474590807427258 #
point $-1 -27.427957866492189 -15.868360799232313 1.1870936444374132 #
point $-1 -21.848203305814771 -15.868360799232313 1.1870936444374132 #
straight-curve $-1 -12.18703624079539 -23.367504251553793 28.851353002884512 0 0 -1 I I #
point $-1 -12.18703624079539 -23.367504251553793 8.7065294093430836 #
straight-curve $-1 -2.8386612933358677 -23.367504251553793 0.47474590807427092 1 0 0 I I #
point $-1 -12.18703624079539 -23.367504251553793 0.47474590807427258 #
point $-1 -8.4671998670104429 -15.868360799232313 1.1870936444374132 #
point $-1 -2.8874453063330279 -15.868360799232313 1.1870936444374132 #
straight-curve $-1 6.7737217586863609 -23.367504251553793 28.851353002884512 0 0 -1 I I #
point $-1 6.7737217586863609 -23.367504251553793 8.7065294093430836 #
straight-curve $-1 6.6417177064050072 -23.367504251553793 0.47474590807427092 1 0 0 I I #
point $-1 6.7737217586863609 -23.367504251553793 0.47474590807427258 #
point $-1 10.4935581324713 -15.868360799232313 1.1870936444374132 #
point $-1 16.073312693148715 -15.868360799232313 1.1870936444374132 #
straight-curve $-1 25.734479758168103 -23.367504251553793 28.851353002884512 0 0 -1 I I #
point $-1 25.734479758168103 -23.367504251553793 8.7065294093430836 #
straight-curve $-1 16.122096706145879 -23.367504251553793 0.47474590807427092 1 0 0 I I #
point $-1 25.734479758168103 -23.367504251553793 0.47474590807427258 #
point $-1 29.454316131953043 -15.868360799232313 1.1870936444374132 #
point $-1 35.034070692630458 -15.868360799232313 1.1870936444374132 #
point $-1 -41.191442609942932 -23.367504251553793 8.7065294093430836 #
straight-curve $-1 -41.191442609942932 -23.367504251553793 0 0 0 -1 I I #
point $-1 -41.191442609942932 -23.367504251553793 -8.7065294093430836 #
End-of-ACIS-data 