500 0 6 0           
7 Unknown 11 ACIS 5.0 NT 24 Fri Mar 26 18:55:41 1999 
-1 9.9999999999999995e-007 1e-010 
body $-1 $6 $-1 $7 #
body $-1 $8 $-1 $9 #
body $-1 $10 $-1 $11 #
body $-1 $12 $-1 $13 #
body $-1 $14 $-1 $15 #
body $-1 $16 $-1 $17 #
lump $-1 $-1 $18 $0 #
transform $-1 1 0 0 0 1 0 0 0 1 63.782464064455091 27.778764860103937 13.111132784323784 1 rotate no_reflect no_shear #
lump $-1 $-1 $19 $1 #
transform $-1 1 0 0 0 1 0 0 0 1 63.782464064455091 27.778764860103937 13.111132784323784 1 rotate no_reflect no_shear #
lump $-1 $-1 $20 $2 #
transform $-1 1 0 0 0 1 0 0 0 1 63.782464064455091 27.778764860103937 13.111132784323784 1 rotate no_reflect no_shear #
lump $-1 $-1 $21 $3 #
transform $-1 1 0 0 0 1 0 0 0 1 63.782464064455091 27.778764860103937 13.111132784323784 1 rotate no_reflect no_shear #
lump $-1 $-1 $22 $4 #
transform $-1 1 0 0 0 1 0 0 0 1 63.782464064455091 27.778764860103937 13.111132784323784 1 rotate no_reflect no_shear #
lump $-1 $-1 $23 $5 #
transform $-1 1 0 0 0 1 0 0 0 1 63.782464064455091 27.778764860103937 13.111132784323784 1 rotate no_reflect no_shear #
shell $-1 $-1 $-1 $24 $-1 $6 #
shell $-1 $-1 $-1 $25 $-1 $8 #
shell $-1 $-1 $-1 $26 $-1 $10 #
shell $-1 $-1 $-1 $27 $-1 $12 #
shell $-1 $-1 $-1 $28 $-1 $14 #
shell $-1 $-1 $-1 $29 $-1 $16 #
face $-1 $30 $31 $18 $-1 $32 forward single #
face $-1 $33 $34 $19 $-1 $35 reversed single #
face $-1 $36 $37 $20 $-1 $38 reversed single #
face $-1 $39 $40 $21 $-1 $41 reversed single #
face $-1 $42 $43 $22 $-1 $44 forward single #
face $-1 $45 $46 $23 $-1 $47 forward single #
face $-1 $48 $49 $18 $-1 $50 reversed single #
loop $-1 $-1 $51 $24 #
plane-surface $-1 0 0 13.111132784323784 0 0 1 1 0 0 forward_v I I I I #
face $-1 $52 $53 $19 $-1 $54 reversed single #
loop $-1 $-1 $55 $25 #
plane-surface $-1 -58.342151737546935 -20.229169975267819 0 1 0 0 0 0 -1 forward_v I I I I #
face $-1 $56 $57 $20 $-1 $58 reversed single #
loop $-1 $-1 $59 $26 #
plane-surface $-1 -54.816066486065367 12.679575090431701 0 0 1 0 0 0 1 forward_v I I I I #
face $-1 $60 $61 $21 $-1 $62 reversed single #
loop $-1 $-1 $63 $27 #
plane-surface $-1 70.078476847754075 8.4146336847700365 189.14444247418518 0 -1 0 -0.73135370988377701 0 -0.68199835119979291 forward_v I I I I #
face $-1 $64 $65 $22 $-1 $66 forward single #
loop $-1 $67 $68 $28 #
cone-surface $-1 61.324948659127188 3.8436357569404613 10.541622240335252 -0.73135370988377701 0 -0.68199835119979291 0.34099917559989645 0 -0.36567685494188851 1 I I 0 1 0.5 forward I I I I #
face $-1 $69 $70 $23 $-1 $71 forward single #
loop $-1 $72 $73 $29 #
cone-surface $-1 61.324948659127188 6.5862345136382068 10.541622240335252 -0.73135370988377701 0 -0.68199835119979291 0.34099917559989645 0 -0.36567685494188851 1 I I 0 1 0.5 forward I I I I #
face $-1 $74 $75 $18 $-1 $76 reversed single #
loop $-1 $-1 $77 $30 #
plane-surface $-1 0 0 -13.111132784323784 0 0 1 1 0 0 forward_v I I I I #
coedge $-1 $78 $79 $80 $81 forward $31 $-1 #
face $-1 $82 $83 $19 $-1 $84 reversed single #
loop $-1 $-1 $85 $33 #
plane-surface $-1 -54.816066486065367 -12.679575090431701 0 0 -1 0 0 0 -1 forward_v I I I I #
coedge $-1 $86 $87 $88 $89 forward $34 $-1 #
face $-1 $90 $91 $20 $-1 $92 reversed single #
loop $-1 $-1 $93 $36 #
plane-surface $-1 -58.342151737546935 20.229169975267819 0 1 0 0 0 0 -1 forward_v I I I I #
coedge $-1 $94 $95 $96 $97 forward $37 $-1 #
face $-1 $98 $99 $21 $-1 $100 reversed single #
loop $-1 $-1 $101 $39 #
plane-surface $-1 -23.216606590381758 5.2149351352893341 102.14537181934837 0.73135370988377701 0 0.68199835119979291 0.68199835119979291 0 -0.73135370988377701 forward_v I I I I #
coedge $-1 $102 $103 $104 $105 reversed $40 $-1 #
face $-1 $-1 $106 $22 $-1 $107 forward single #
loop $-1 $108 $109 $42 #
cone-surface $-1 60.671245620854656 3.8436357569404613 9.9320343101024111 -0.73135370988377701 0 -0.68199835119979291 0.17049958779994823 0 -0.18283842747094425 1 I I -0.70710678118654746 0.70710678118654746 0.25 forward I I I I #
loop $-1 $-1 $110 $28 #
coedge $-1 $68 $68 $111 $112 reversed $43 $-1 #
face $-1 $-1 $113 $23 $-1 $114 forward single #
loop $-1 $115 $116 $45 #
cone-surface $-1 60.671245620854656 6.5862345136382068 9.9320343101024111 -0.73135370988377701 0 -0.68199835119979291 0.17049958779994823 0 -0.18283842747094425 1 I I -0.70710678118654746 0.70710678118654746 0.25 forward I I I I #
loop $-1 $-1 $117 $29 #
coedge $-1 $73 $73 $118 $119 reversed $46 $-1 #
face $-1 $120 $121 $18 $-1 $122 reversed single #
loop $-1 $-1 $123 $48 #
plane-surface $-1 0 -27.778764860103937 0 0 1 0 0 0 1 forward_v I I I I #
coedge $-1 $124 $125 $126 $127 forward $49 $-1 #
coedge $-1 $128 $51 $129 $130 forward $31 $-1 #
coedge $-1 $51 $128 $131 $132 forward $31 $-1 #
coedge $-1 $133 $134 $51 $81 reversed $135 $-1 #
edge $-1 $136 -27.778764860103937 $137 27.778764860103937 $80 $138 forward 7 unknown #
face $-1 $139 $140 $19 $-1 $141 forward single #
loop $-1 $-1 $142 $52 #
plane-surface $-1 -51.289981234583799 -20.229169975267819 0 -1 0 0 0 0 1 forward_v I I I I #
coedge $-1 $143 $144 $145 $146 forward $53 $-1 #
coedge $-1 $147 $55 $148 $149 reversed $34 $-1 #
coedge $-1 $55 $147 $150 $151 reversed $34 $-1 #
coedge $-1 $144 $143 $55 $89 reversed $53 $-1 #
edge $-1 $152 -13.111132784323784 $153 13.111132784323784 $88 $154 forward 7 unknown #
face $-1 $155 $156 $20 $-1 $157 reversed single #
loop $-1 $-1 $158 $56 #
plane-surface $-1 -51.289981234583799 20.229169975267819 0 -1 0 0 0 0 1 forward_v I I I I #
coedge $-1 $159 $160 $161 $162 reversed $57 $-1 #
coedge $-1 $163 $59 $164 $165 reversed $37 $-1 #
coedge $-1 $59 $163 $166 $167 reversed $37 $-1 #
coedge $-1 $160 $159 $59 $97 reversed $57 $-1 #
edge $-1 $168 -13.111132784323784 $169 13.111132784323784 $96 $170 forward 7 unknown #
face $-1 $171 $172 $21 $-1 $173 forward single #
loop $-1 $-1 $174 $60 #
plane-surface $-1 70.078476847754075 2.0152365858086316 189.14444247418518 0 1 0 0.73135370988377701 0 0.68199835119979291 forward_v I I I I #
coedge $-1 $175 $176 $177 $178 reversed $61 $-1 #
coedge $-1 $103 $63 $179 $180 reversed $40 $-1 #
coedge $-1 $63 $102 $175 $181 reversed $40 $-1 #
coedge $-1 $177 $182 $63 $105 forward $172 $-1 #
edge $-1 $183 -28.743225640578054 $184 -24.769924051525408 $104 $185 forward 7 unknown #
loop $-1 $-1 $111 $64 #
plane-surface $-1 -23.216606590381758 5.2149351352893341 102.14537181934837 0.73135370988377701 0 0.68199835119979291 0.68199835119979291 0 -0.73135370988377701 forward_v I I I I #
loop $-1 $-1 $186 $42 #
coedge $-1 $109 $109 $110 $187 reversed $65 $-1 #
coedge $-1 $110 $110 $109 $187 forward $67 $-1 #
coedge $-1 $111 $111 $68 $112 forward $106 $-1 #
edge $-1 $188 0 $188 6.2831853071796004 $111 $189 forward 7 unknown #
loop $-1 $-1 $118 $69 #
plane-surface $-1 -23.216606590381758 5.2149351352893341 102.14537181934837 0.73135370988377701 0 0.68199835119979291 0.68199835119979291 0 -0.73135370988377701 forward_v I I I I #
loop $-1 $-1 $190 $45 #
coedge $-1 $116 $116 $117 $191 reversed $70 $-1 #
coedge $-1 $117 $117 $116 $191 forward $72 $-1 #
coedge $-1 $118 $118 $73 $119 forward $113 $-1 #
edge $-1 $192 0 $192 6.2831853071796004 $118 $193 forward 7 unknown #
face $-1 $194 $195 $18 $-1 $196 reversed single #
loop $-1 $-1 $197 $74 #
plane-surface $-1 -63.782464064455091 0 0 1 0 0 0 0 -1 forward_v I I I I #
coedge $-1 $198 $131 $199 $200 forward $75 $-1 #
coedge $-1 $201 $77 $198 $202 forward $49 $-1 #
coedge $-1 $77 $201 $203 $204 forward $49 $-1 #
coedge $-1 $134 $133 $77 $127 reversed $135 $-1 #
edge $-1 $205 -27.778764860103937 $206 27.778764860103937 $126 $207 forward 7 unknown #
coedge $-1 $79 $78 $208 $209 forward $31 $-1 #
coedge $-1 $210 $211 $78 $130 reversed $195 $-1 #
edge $-1 $137 -63.782464064455091 $212 63.782464064455091 $129 $213 forward 7 unknown #
coedge $-1 $123 $214 $79 $132 reversed $75 $-1 #
edge $-1 $215 -63.782464064455091 $136 63.782464064455091 $131 $216 forward 7 unknown #
coedge $-1 $126 $80 $214 $217 forward $135 $-1 #
coedge $-1 $80 $126 $210 $218 reversed $135 $-1 #
loop $-1 $-1 $133 $194 #
vertex $-1 $81 $219 #
vertex $-1 $81 $220 #
straight-curve $-1 63.782464064455091 0 13.111132784323784 0 1 0 I I #
face $-1 $221 $222 $19 $-1 $223 reversed single #
loop $-1 $-1 $224 $82 #
plane-surface $-1 0 0 13.111132784323784 0 0 1 1 0 0 forward_v I I I I #
coedge $-1 $225 $226 $227 $228 reversed $83 $-1 #
coedge $-1 $88 $85 $229 $230 reversed $53 $-1 #
coedge $-1 $85 $88 $231 $232 reversed $53 $-1 #
coedge $-1 $226 $225 $85 $146 reversed $83 $-1 #
edge $-1 $233 -13.111132784323784 $234 13.111132784323784 $145 $235 forward 7 unknown #
coedge $-1 $87 $86 $236 $237 reversed $34 $-1 #
coedge $-1 $229 $238 $86 $149 forward $222 $-1 #
edge $-1 $239 -17.664179872470029 $153 -2.5649901027977915 $148 $240 forward 7 unknown #
coedge $-1 $241 $231 $87 $151 forward $140 $-1 #
edge $-1 $152 2.5649901027977915 $242 17.664179872470029 $150 $243 forward 7 unknown #
vertex $-1 $151 $244 #
vertex $-1 $149 $245 #
straight-curve $-1 -58.342151737546935 -12.679575090431701 0 0 0 -1 I I #
face $-1 $246 $247 $20 $-1 $248 forward single #
loop $-1 $-1 $249 $90 #
plane-surface $-1 0 0 -13.111132784323784 0 0 1 1 0 0 forward_v I I I I #
coedge $-1 $250 $251 $163 $252 forward $91 $-1 #
coedge $-1 $96 $93 $253 $254 reversed $57 $-1 #
coedge $-1 $93 $96 $255 $256 reversed $57 $-1 #
coedge $-1 $257 $258 $93 $162 forward $259 $-1 #
edge $-1 $260 -13.111132784323784 $261 13.111132784323784 $161 $262 forward 7 unknown #
coedge $-1 $95 $94 $158 $252 reversed $37 $-1 #
coedge $-1 $253 $249 $94 $165 forward $156 $-1 #
edge $-1 $263 23.881947991551115 $169 30.934118494514252 $164 $264 forward 7 unknown #
coedge $-1 $265 $255 $95 $167 forward $247 $-1 #
edge $-1 $168 -30.934118494514252 $266 -23.881947991551115 $166 $267 forward 7 unknown #
vertex $-1 $167 $268 #
vertex $-1 $165 $269 #
straight-curve $-1 -58.342151737546935 12.679575090431701 0 0 0 -1 I I #
face $-1 $-1 $270 $21 $-1 $271 reversed single #
loop $-1 $-1 $104 $98 #
plane-surface $-1 0 0 13.111132784323784 0 0 1 1 0 0 forward_v I I I I #
coedge $-1 $272 $273 $274 $275 reversed $99 $-1 #
coedge $-1 $276 $101 $103 $181 forward $61 $-1 #
coedge $-1 $101 $276 $272 $277 forward $61 $-1 #
coedge $-1 $274 $104 $101 $178 forward $172 $-1 #
edge $-1 $184 -5.8071661171253695 $278 0.5922309818360354 $177 $279 forward 7 unknown #
coedge $-1 $280 $281 $102 $180 forward $270 $-1 #
edge $-1 $282 -85.721932855880098 $183 -81.461088452768806 $179 $283 forward 7 unknown #
edge $-1 $184 121.73895863490382 $282 127.56492812891022 $103 $284 forward 7 unknown #
coedge $-1 $104 $274 $280 $285 forward $172 $-1 #
vertex $-1 $105 $286 #
vertex $-1 $105 $287 #
straight-curve $-1 35.039238423877038 8.4146336847700365 13.111132784323786 -1 0 0 I I #
coedge $-1 $186 $186 $-1 $288 reversed $108 $-1 #
edge $-1 $289 0 $289 6.2831853071796004 $109 $290 forward 7 unknown #
vertex $-1 $112 $291 #
ellipse-curve $-1 61.795813269928765 3.8436357569404613 10.980710582768138 0.73135370988377701 0 0.68199835119979291 0.34099917559989645 0 -0.36567685494188851 1 I I #
coedge $-1 $190 $190 $-1 $292 reversed $115 $-1 #
edge $-1 $293 0 $293 6.2831853071796004 $116 $294 forward 7 unknown #
vertex $-1 $119 $295 #
ellipse-curve $-1 61.795813269928765 6.5862345136382068 10.980710582768138 0.73135370988377701 0 0.68199835119979291 0.34099917559989645 0 -0.36567685494188851 1 I I #
face $-1 $-1 $135 $18 $-1 $296 reversed single #
loop $-1 $-1 $210 $120 #
plane-surface $-1 0 27.778764860103937 0 0 -1 0 0 0 -1 forward_v I I I I #
coedge $-1 $297 $208 $211 $298 forward $121 $-1 #
coedge $-1 $214 $123 $124 $202 reversed $75 $-1 #
coedge $-1 $208 $297 $123 $200 reversed $121 $-1 #
edge $-1 $215 -13.111132784323784 $299 13.111132784323784 $199 $300 forward 7 unknown #
coedge $-1 $125 $124 $297 $301 forward $49 $-1 #
edge $-1 $206 -63.782464064455091 $299 63.782464064455091 $198 $302 forward 7 unknown #
coedge $-1 $211 $210 $125 $204 reversed $195 $-1 #
edge $-1 $303 -63.782464064455091 $205 63.782464064455091 $203 $304 forward 7 unknown #
vertex $-1 $127 $305 #
vertex $-1 $217 $306 #
straight-curve $-1 63.782464064455091 0 -13.111132784323784 0 -1 0 I I #
coedge $-1 $197 $199 $128 $209 reversed $121 $-1 #
edge $-1 $212 -27.778764860103937 $215 27.778764860103937 $208 $307 forward 7 unknown #
coedge $-1 $203 $129 $134 $218 forward $195 $-1 #
coedge $-1 $129 $203 $197 $298 reversed $195 $-1 #
vertex $-1 $130 $308 #
straight-curve $-1 0 27.778764860103937 13.111132784323784 -1 0 0 I I #
coedge $-1 $131 $198 $133 $217 reversed $75 $-1 #
vertex $-1 $209 $309 #
straight-curve $-1 0 -27.778764860103937 13.111132784323784 1 0 0 I I #
edge $-1 $136 -13.111132784323784 $206 13.111132784323784 $133 $310 forward 7 unknown #
edge $-1 $137 -13.111132784323784 $205 13.111132784323784 $134 $311 forward 7 unknown #
point $-1 63.782464064455091 -27.778764860103937 13.111132784323784 #
point $-1 63.782464064455091 27.778764860103937 13.111132784323784 #
face $-1 $-1 $312 $19 $-1 $313 reversed single #
loop $-1 $-1 $314 $139 #
plane-surface $-1 0 0 -13.111132784323784 0 0 1 1 0 0 forward_v I I I I #
coedge $-1 $231 $241 $226 $315 forward $140 $-1 #
coedge $-1 $145 $142 $314 $316 reversed $83 $-1 #
coedge $-1 $142 $145 $224 $315 reversed $83 $-1 #
coedge $-1 $317 $318 $142 $228 forward $312 $-1 #
edge $-1 $319 -13.111132784323784 $320 13.111132784323784 $227 $321 forward 7 unknown #
coedge $-1 $314 $148 $143 $230 forward $222 $-1 #
edge $-1 $153 -30.934118494514252 $234 -23.881947991551115 $229 $322 forward 7 unknown #
coedge $-1 $150 $224 $144 $232 forward $140 $-1 #
edge $-1 $233 23.881947991551115 $152 30.934118494514252 $231 $323 forward 7 unknown #
vertex $-1 $232 $324 #
vertex $-1 $230 $325 #
straight-curve $-1 -51.289981234583799 -12.679575090431701 0 0 0 -1 I I #
coedge $-1 $318 $317 $147 $237 forward $312 $-1 #
edge $-1 $242 -13.111132784323784 $239 13.111132784323784 $236 $326 forward 7 unknown #
coedge $-1 $148 $314 $318 $327 forward $222 $-1 #
vertex $-1 $149 $328 #
straight-curve $-1 -58.342151737546935 -10.11458498763391 -13.111132784323784 0 1 0 I I #
coedge $-1 $224 $150 $317 $329 forward $140 $-1 #
vertex $-1 $329 $330 #
straight-curve $-1 -58.342151737546935 -10.11458498763391 13.111132784323784 0 -1 0 I I #
point $-1 -58.342151737546935 -12.679575090431701 13.111132784323784 #
point $-1 -58.342151737546935 -12.679575090431701 -13.111132784323784 #
face $-1 $-1 $259 $20 $-1 $331 reversed single #
loop $-1 $-1 $265 $155 #
plane-surface $-1 0 0 13.111132784323784 0 0 1 1 0 0 forward_v I I I I #
coedge $-1 $164 $332 $250 $333 forward $156 $-1 #
coedge $-1 $334 $158 $249 $333 reversed $91 $-1 #
coedge $-1 $158 $334 $265 $335 reversed $91 $-1 #
edge $-1 $266 -13.111132784323784 $263 13.111132784323784 $158 $336 forward 7 unknown #
coedge $-1 $332 $164 $159 $254 forward $156 $-1 #
edge $-1 $169 2.5649901027977915 $260 17.664179872470029 $253 $337 forward 7 unknown #
coedge $-1 $166 $338 $160 $256 forward $247 $-1 #
edge $-1 $261 -17.664179872470029 $168 -2.5649901027977915 $255 $339 forward 7 unknown #
coedge $-1 $340 $161 $338 $341 reversed $259 $-1 #
coedge $-1 $161 $340 $332 $342 reversed $259 $-1 #
loop $-1 $-1 $340 $246 #
vertex $-1 $342 $343 #
vertex $-1 $162 $344 #
straight-curve $-1 -58.342151737546935 27.778764860103937 0 0 0 1 I I #
vertex $-1 $165 $345 #
straight-curve $-1 -27.408033243032683 12.679575090431701 -13.111132784323784 -1 0 0 I I #
coedge $-1 $338 $166 $251 $335 forward $247 $-1 #
vertex $-1 $167 $346 #
straight-curve $-1 -27.408033243032683 12.679575090431701 13.111132784323784 1 0 0 I I #
point $-1 -58.342151737546935 12.679575090431701 13.111132784323784 #
point $-1 -58.342151737546935 12.679575090431701 -13.111132784323784 #
loop $-1 $-1 $179 $171 #
plane-surface $-1 63.782464064455091 0 0 -1 0 0 0 0 1 forward_v I I I I #
coedge $-1 $273 $174 $176 $277 reversed $99 $-1 #
coedge $-1 $174 $272 $347 $348 reversed $99 $-1 #
coedge $-1 $182 $177 $174 $275 forward $172 $-1 #
edge $-1 $278 24.769924051525408 $349 28.743225640578054 $274 $350 forward 7 unknown #
coedge $-1 $176 $175 $281 $351 reversed $61 $-1 #
edge $-1 $352 -127.56492812891022 $278 -121.73895863490382 $272 $353 forward 7 unknown #
vertex $-1 $178 $354 #
straight-curve $-1 59.809162475402445 2.607467567644667 13.111132784323779 0 -1 0 I I #
coedge $-1 $347 $179 $182 $285 reversed $270 $-1 #
coedge $-1 $179 $347 $276 $351 forward $270 $-1 #
vertex $-1 $180 $355 #
straight-curve $-1 63.782464064455091 8.4146336847700365 94.572221237092592 0 0 1 I I #
straight-curve $-1 -23.216606590381758 8.4146336847700365 102.14537181934837 0.68199835119979291 0 -0.73135370988377701 I I #
edge $-1 $349 2.0152365858086316 $183 8.4146336847700365 $280 $356 forward 7 unknown #
point $-1 63.782464064455091 8.4146336847700365 13.111132784323784 #
point $-1 59.809162475402445 8.4146336847700365 13.111132784323786 #
edge $-1 $357 1 $357 0 $186 $-1 forward 7 unknown #
vertex $-1 $187 $358 #
ellipse-curve $-1 60.854084048325603 3.8436357569404613 10.10253389790236 0.73135370988377701 0 0.68199835119979291 0.34099917559989645 0 -0.36567685494188851 1 I I #
point $-1 62.136812445528669 3.8436357569404613 10.615033727826258 #
edge $-1 $359 1 $359 0 $190 $-1 forward 7 unknown #
vertex $-1 $191 $360 #
ellipse-curve $-1 60.854084048325603 6.5862345136382068 10.10253389790236 0.73135370988377701 0 0.68199835119979291 0.34099917559989645 0 -0.36567685494188851 1 I I #
point $-1 62.136812445528669 6.5862345136382068 10.615033727826258 #
plane-surface $-1 63.782464064455091 0 0 -1 0 0 0 0 1 forward_v I I I I #
coedge $-1 $199 $197 $201 $301 reversed $121 $-1 #
edge $-1 $212 -13.111132784323784 $303 13.111132784323784 $211 $361 forward 7 unknown #
vertex $-1 $301 $362 #
straight-curve $-1 -63.782464064455091 -27.778764860103937 0 0 0 -1 I I #
edge $-1 $299 -27.778764860103937 $303 27.778764860103937 $297 $363 forward 7 unknown #
straight-curve $-1 0 -27.778764860103937 -13.111132784323784 -1 0 0 I I #
vertex $-1 $204 $364 #
straight-curve $-1 0 27.778764860103937 -13.111132784323784 1 0 0 I I #
point $-1 63.782464064455091 27.778764860103937 -13.111132784323784 #
point $-1 63.782464064455091 -27.778764860103937 -13.111132784323784 #
straight-curve $-1 -63.782464064455091 0 13.111132784323784 0 -1 0 I I #
point $-1 -63.782464064455091 27.778764860103937 13.111132784323784 #
point $-1 -63.782464064455091 -27.778764860103937 13.111132784323784 #
straight-curve $-1 63.782464064455091 -27.778764860103937 0 0 0 -1 I I #
straight-curve $-1 63.782464064455091 27.778764860103937 0 0 0 -1 I I #
loop $-1 $-1 $227 $221 #
plane-surface $-1 0 -27.778764860103937 0 0 1 0 0 0 1 forward_v I I I I #
coedge $-1 $238 $229 $225 $316 forward $222 $-1 #
edge $-1 $320 -17.664179872470029 $233 -2.5649901027977915 $224 $365 forward 7 unknown #
edge $-1 $234 2.5649901027977915 $319 17.664179872470029 $314 $366 forward 7 unknown #
coedge $-1 $236 $227 $241 $329 reversed $312 $-1 #
coedge $-1 $227 $236 $238 $327 reversed $312 $-1 #
vertex $-1 $327 $367 #
vertex $-1 $228 $368 #
straight-curve $-1 -51.289981234583799 -27.778764860103937 0 0 0 1 I I #
straight-curve $-1 -27.408033243032683 -12.679575090431701 -13.111132784323784 1 0 0 I I #
straight-curve $-1 -27.408033243032683 -12.679575090431701 13.111132784323784 -1 0 0 I I #
point $-1 -51.289981234583799 -12.679575090431701 13.111132784323784 #
point $-1 -51.289981234583799 -12.679575090431701 -13.111132784323784 #
straight-curve $-1 -58.342151737546935 -27.778764860103937 0 0 0 -1 I I #
edge $-1 $319 51.289981234583799 $239 58.342151737546935 $318 $369 forward 7 unknown #
point $-1 -58.342151737546935 -27.778764860103937 -13.111132784323784 #
edge $-1 $242 -58.342151737546935 $320 -51.289981234583799 $317 $370 forward 7 unknown #
point $-1 -58.342151737546935 -27.778764860103937 13.111132784323784 #
plane-surface $-1 0 27.778764860103937 0 0 -1 0 0 0 -1 forward_v I I I I #
coedge $-1 $249 $253 $258 $342 forward $156 $-1 #
edge $-1 $371 -17.664179872470029 $263 -2.5649901027977915 $249 $372 forward 7 unknown #
coedge $-1 $251 $250 $340 $373 reversed $91 $-1 #
edge $-1 $266 2.5649901027977915 $374 17.664179872470029 $265 $375 forward 7 unknown #
straight-curve $-1 -51.289981234583799 12.679575090431701 0 0 0 -1 I I #
straight-curve $-1 -58.342151737546935 10.11458498763391 -13.111132784323784 0 1 0 I I #
coedge $-1 $255 $265 $257 $341 forward $247 $-1 #
straight-curve $-1 -58.342151737546935 10.11458498763391 13.111132784323784 0 -1 0 I I #
coedge $-1 $258 $257 $334 $373 forward $259 $-1 #
edge $-1 $374 51.289981234583799 $261 58.342151737546935 $257 $376 forward 7 unknown #
edge $-1 $260 -58.342151737546935 $371 -51.289981234583799 $258 $377 forward 7 unknown #
point $-1 -58.342151737546935 27.778764860103937 -13.111132784323784 #
point $-1 -58.342151737546935 27.778764860103937 13.111132784323784 #
point $-1 -51.289981234583799 12.679575090431701 -13.111132784323784 #
point $-1 -51.289981234583799 12.679575090431701 13.111132784323784 #
coedge $-1 $281 $280 $273 $348 forward $270 $-1 #
edge $-1 $349 81.461088452768806 $352 85.721932855880098 $347 $378 forward 7 unknown #
vertex $-1 $285 $379 #
straight-curve $-1 35.039238423877038 2.0152365858086316 13.111132784323786 1 0 0 I I #
edge $-1 $352 -0.5922309818360354 $282 5.8071661171253695 $281 $380 forward 7 unknown #
vertex $-1 $351 $381 #
straight-curve $-1 -23.216606590381758 2.0152365858086316 102.14537181934837 -0.68199835119979291 0 0.73135370988377701 I I #
point $-1 59.809162475402445 2.0152365858086316 13.111132784323786 #
point $-1 63.782464064455098 8.4146336847700365 8.8502883812124935 #
straight-curve $-1 63.782464064455091 0 13.111132784323784 0 1 0 I I #
vertex $-1 $288 $382 #
point $-1 61.195083223925494 3.8436357569404613 9.7368570429604713 #
vertex $-1 $292 $383 #
point $-1 61.195083223925494 6.5862345136382068 9.7368570429604713 #
straight-curve $-1 -63.782464064455091 27.778764860103937 0 0 0 -1 I I #
point $-1 -63.782464064455091 -27.778764860103937 -13.111132784323784 #
straight-curve $-1 -63.782464064455091 0 -13.111132784323784 0 1 0 I I #
point $-1 -63.782464064455091 27.778764860103937 -13.111132784323784 #
straight-curve $-1 -51.289981234583799 -10.11458498763391 13.111132784323784 0 1 0 I I #
straight-curve $-1 -51.289981234583799 -10.11458498763391 -13.111132784323784 0 -1 0 I I #
point $-1 -51.289981234583799 -27.778764860103937 -13.111132784323784 #
point $-1 -51.289981234583799 -27.778764860103937 13.111132784323784 #
straight-curve $-1 0 -27.778764860103937 -13.111132784323784 -1 0 0 I I #
straight-curve $-1 0 -27.778764860103937 13.111132784323784 1 0 0 I I #
vertex $-1 $373 $384 #
straight-curve $-1 -51.289981234583799 10.11458498763391 -13.111132784323784 0 -1 0 I I #
edge $-1 $374 -13.111132784323784 $371 13.111132784323784 $340 $385 forward 7 unknown #
vertex $-1 $341 $386 #
straight-curve $-1 -51.289981234583799 10.11458498763391 13.111132784323784 0 1 0 I I #
straight-curve $-1 0 27.778764860103937 13.111132784323784 -1 0 0 I I #
straight-curve $-1 0 27.778764860103937 -13.111132784323784 1 0 0 I I #
straight-curve $-1 63.782464064455091 2.0152365858086316 94.572221237092592 0 0 -1 I I #
point $-1 63.782464064455091 2.0152365858086316 13.111132784323784 #
straight-curve $-1 63.782464064455084 2.607467567644667 8.8502883812125077 0 1 0 I I #
point $-1 63.782464064455098 2.0152365858086316 8.8502883812124935 #
point $-1 60.488407193383708 3.8436357569404613 9.7615347223024624 #
point $-1 60.488407193383708 6.5862345136382068 9.7615347223024624 #
point $-1 -51.289981234583799 27.778764860103937 -13.111132784323784 #
straight-curve $-1 -51.289981234583799 27.778764860103937 0 0 0 -1 I I #
point $-1 -51.289981234583799 27.778764860103937 13.111132784323784 #
End-of-ACIS-data 