500 0 12 0           
7 Unknown 11 ACIS 5.0 NT 24 Thu Mar 25 22:24:52 1999 
-1 9.9999999999999995e-007 1e-010 
body $-1 $12 $-1 $13 #
body $-1 $14 $-1 $15 #
body $-1 $16 $-1 $17 #
body $-1 $18 $-1 $19 #
body $-1 $20 $-1 $21 #
body $-1 $22 $-1 $23 #
body $-1 $24 $-1 $25 #
body $-1 $26 $-1 $27 #
body $-1 $28 $-1 $29 #
body $-1 $30 $-1 $31 #
body $-1 $32 $-1 $33 #
body $-1 $34 $-1 $35 #
lump $-1 $-1 $36 $0 #
transform $-1 1 0 0 0 1 0 0 0 1 63.980224005859554 39.2974514090252 18.989590620605004 1 rotate no_reflect no_shear #
lump $-1 $-1 $37 $1 #
transform $-1 1 0 0 0 1 0 0 0 1 63.980224005859554 39.2974514090252 18.989590620605004 1 rotate no_reflect no_shear #
lump $-1 $-1 $38 $2 #
transform $-1 1 0 0 0 1 0 0 0 1 63.980224005859554 39.2974514090252 18.989590620605004 1 rotate no_reflect no_shear #
lump $-1 $-1 $39 $3 #
transform $-1 1 0 0 0 1 0 0 0 1 63.980224005859554 39.2974514090252 18.989590620605004 1 rotate no_reflect no_shear #
lump $-1 $-1 $40 $4 #
transform $-1 1 0 0 0 1 0 0 0 1 63.980224005859554 39.2974514090252 18.989590620605004 1 rotate no_reflect no_shear #
lump $-1 $-1 $41 $5 #
transform $-1 1 0 0 0 1 0 0 0 1 63.980224005859554 39.2974514090252 18.989590620605004 1 rotate no_reflect no_shear #
lump $-1 $-1 $42 $6 #
transform $-1 1 0 0 0 1 0 0 0 1 63.980224005859554 39.2974514090252 18.989590620605004 1 rotate no_reflect no_shear #
lump $-1 $-1 $43 $7 #
transform $-1 1 0 0 0 1 0 0 0 1 63.980224005859554 39.2974514090252 18.989590620605004 1 rotate no_reflect no_shear #
lump $-1 $-1 $44 $8 #
transform $-1 1 0 0 0 1 0 0 0 1 63.980224005859554 39.2974514090252 18.989590620605004 1 rotate no_reflect no_shear #
lump $-1 $-1 $45 $9 #
transform $-1 1 0 0 0 1 0 0 0 1 63.980224005859554 39.2974514090252 18.989590620605004 1 rotate no_reflect no_shear #
lump $-1 $-1 $46 $10 #
transform $-1 1 0 0 0 1 0 0 0 1 63.980224005859554 39.2974514090252 18.989590620605004 1 rotate no_reflect no_shear #
lump $-1 $-1 $47 $11 #
transform $-1 1 0 0 0 1 0 0 0 1 63.980224005859554 39.2974514090252 18.989590620605004 1 rotate no_reflect no_shear #
shell $-1 $-1 $-1 $48 $-1 $12 #
shell $-1 $-1 $-1 $49 $-1 $14 #
shell $-1 $-1 $-1 $50 $-1 $16 #
shell $-1 $-1 $-1 $51 $-1 $18 #
shell $-1 $-1 $-1 $52 $-1 $20 #
shell $-1 $-1 $-1 $53 $-1 $22 #
shell $-1 $-1 $-1 $54 $-1 $24 #
shell $-1 $-1 $-1 $55 $-1 $26 #
shell $-1 $-1 $-1 $56 $-1 $28 #
shell $-1 $-1 $-1 $57 $-1 $30 #
shell $-1 $-1 $-1 $58 $-1 $32 #
shell $-1 $-1 $-1 $59 $-1 $34 #
face $-1 $60 $61 $36 $-1 $62 forward single #
face $-1 $63 $64 $37 $-1 $65 forward single #
face $-1 $66 $67 $38 $-1 $68 reversed single #
face $-1 $69 $70 $39 $-1 $71 forward single #
face $-1 $72 $73 $40 $-1 $74 forward single #
face $-1 $75 $76 $41 $-1 $77 forward single #
face $-1 $78 $79 $42 $-1 $80 reversed single #
face $-1 $81 $82 $43 $-1 $83 forward single #
face $-1 $84 $85 $44 $-1 $86 forward single #
face $-1 $87 $88 $45 $-1 $89 reversed single #
face $-1 $90 $91 $46 $-1 $92 forward single #
face $-1 $93 $94 $47 $-1 $95 forward single #
face $-1 $96 $97 $36 $-1 $98 reversed single #
loop $-1 $-1 $99 $48 #
plane-surface $-1 0 0 18.989590620605004 0 0 1 1 0 0 forward_v I I I I #
face $-1 $100 $101 $37 $-1 $102 reversed single #
loop $-1 $-1 $103 $49 #
plane-surface $-1 -55.595224717366989 0 -9.1471328629224864 0 0 1 1 0 0 forward_v I I I I #
face $-1 $104 $105 $38 $-1 $106 reversed single #
loop $-1 $-1 $107 $50 #
plane-surface $-1 -19.966807412665755 61.34165489163577 162.53795425050581 1 0 0 0 -0.64278761758704617 -0.76604443648966558 forward_v I I I I #
face $-1 $108 $109 $39 $-1 $110 forward single #
loop $-1 $111 $112 $51 #
cone-surface $-1 -15.616850531340468 35.322042946327997 15.301493865365421 0 -0.64278761758704617 -0.76604443648966558 1 0 0 1 I I 0 1 1 forward I I I I #
face $-1 $113 $114 $40 $-1 $115 forward single #
loop $-1 $116 $117 $52 #
cone-surface $-1 -9.0919152093525497 35.322042946327997 15.301493865365421 0 -0.64278761758704617 -0.76604443648966558 1 0 0 1 I I 0 1 1 forward I I I I #
face $-1 $118 $119 $41 $-1 $120 forward single #
loop $-1 $121 $122 $53 #
cone-surface $-1 -2.5669798873646243 35.322042946327997 15.301493865365421 0 -0.64278761758704617 -0.76604443648966558 1 0 0 1 I I 0 1 1 forward I I I I #
face $-1 $123 $124 $42 $-1 $125 reversed single #
loop $-1 $-1 $126 $54 #
plane-surface $-1 -25.522709302747522 -118.07777060319674 115.93860596851657 -1 0 0 0 -0.61566148304635926 0.78801074757464917 forward_v I I I I #
face $-1 $127 $128 $43 $-1 $129 forward single #
loop $-1 $130 $131 $55 #
cone-surface $-1 -41.013792249981023 -36.103031590419455 16.140782988444702 0 0.61566148304635926 -0.78801074757464917 1 0 0 1 I I 0 1 1 forward I I I I #
face $-1 $132 $133 $44 $-1 $134 forward single #
loop $-1 $135 $136 $56 #
cone-surface $-1 -31.719142481640922 -36.103031590419455 16.140782988444702 0 0.61566148304635926 -0.78801074757464917 1 0 0 1 I I 0 1 1 forward I I I I #
face $-1 $137 $138 $45 $-1 $139 reversed single #
loop $-1 $-1 $140 $57 #
plane-surface $-1 30.072515414619474 -118.07777060319674 115.93860596851657 -1 0 0 0 -0.61566148304635926 0.78801074757464917 forward_v I I I I #
face $-1 $141 $142 $46 $-1 $143 forward single #
loop $-1 $144 $145 $58 #
cone-surface $-1 14.581432467385966 -36.103031590419455 16.140782988444702 0 0.61566148304635926 -0.78801074757464917 1 0 0 1 I I 0 1 1 forward I I I I #
face $-1 $146 $147 $47 $-1 $148 forward single #
loop $-1 $149 $150 $59 #
cone-surface $-1 23.876082235726074 -36.103031590419455 16.140782988444702 0 0.61566148304635926 -0.78801074757464917 1 0 0 1 I I 0 1 1 forward I I I I #
face $-1 $151 $152 $36 $-1 $153 reversed single #
loop $-1 $-1 $154 $60 #
plane-surface $-1 0 0 -18.989590620605004 0 0 1 1 0 0 forward_v I I I I #
coedge $-1 $155 $156 $157 $158 forward $61 $-1 #
face $-1 $159 $160 $37 $-1 $161 reversed single #
loop $-1 $-1 $162 $63 #
plane-surface $-1 -47.210225428874423 0 -14.068361741763745 -1 0 0 0 0 1 forward_v I I I I #
coedge $-1 $163 $164 $165 $166 forward $64 $-1 #
face $-1 $167 $168 $38 $-1 $169 reversed single #
loop $-1 $-1 $170 $66 #
plane-surface $-1 -9.0919152093525497 -20.909736631188238 64.514564960403277 0 0.64278761758704617 0.76604443648966558 1 0 0 forward_v I I I I #
coedge $-1 $171 $172 $173 $174 reversed $67 $-1 #
face $-1 $-1 $175 $39 $-1 $176 forward single #
loop $-1 $177 $178 $69 #
cone-surface $-1 -15.616850531340468 34.001559402016781 13.727802890431885 0 -0.64278761758704617 -0.76604443648966558 0.5 0 0 1 I I -0.70710678118654746 0.70710678118654746 0.5 forward I I I I #
loop $-1 $-1 $179 $51 #
coedge $-1 $112 $112 $180 $181 reversed $70 $-1 #
face $-1 $-1 $182 $40 $-1 $183 forward single #
loop $-1 $184 $185 $72 #
cone-surface $-1 -9.0919152093525497 34.001559402016781 13.727802890431885 0 -0.64278761758704617 -0.76604443648966558 0.5 0 0 1 I I -0.70710678118654746 0.70710678118654746 0.5 forward I I I I #
loop $-1 $-1 $186 $52 #
coedge $-1 $117 $117 $187 $188 reversed $73 $-1 #
face $-1 $-1 $189 $41 $-1 $190 forward single #
loop $-1 $191 $192 $75 #
cone-surface $-1 -2.5669798873646243 34.001559402016781 13.727802890431885 0 -0.64278761758704617 -0.76604443648966558 0.5 0 0 1 I I -0.70710678118654746 0.70710678118654746 0.5 forward I I I I #
loop $-1 $-1 $193 $53 #
coedge $-1 $122 $122 $194 $195 reversed $76 $-1 #
face $-1 $196 $197 $42 $-1 $198 reversed single #
loop $-1 $-1 $199 $78 #
plane-surface $-1 -36.366467365810969 -39.2974514090252 15.104397670814762 0 -0.61566148304635926 0.78801074757464917 1 0 0 forward_v I I I I #
coedge $-1 $200 $201 $202 $203 reversed $79 $-1 #
face $-1 $-1 $204 $43 $-1 $205 forward single #
loop $-1 $206 $207 $81 #
cone-surface $-1 -41.013792249981023 -35.087191082846502 14.840566457392203 0 0.61566148304635926 -0.78801074757464917 0.5 0 0 1 I I -0.70710678118654746 0.70710678118654746 0.5 forward I I I I #
loop $-1 $-1 $208 $55 #
coedge $-1 $131 $131 $209 $210 reversed $82 $-1 #
face $-1 $-1 $211 $44 $-1 $212 forward single #
loop $-1 $213 $214 $84 #
cone-surface $-1 -31.719142481640922 -35.087191082846502 14.840566457392203 0 0.61566148304635926 -0.78801074757464917 0.5 0 0 1 I I -0.70710678118654746 0.70710678118654746 0.5 forward I I I I #
loop $-1 $-1 $215 $56 #
coedge $-1 $136 $136 $216 $217 reversed $85 $-1 #
face $-1 $218 $219 $45 $-1 $220 reversed single #
loop $-1 $-1 $221 $87 #
plane-surface $-1 19.228757351556027 -39.2974514090252 15.104397670814762 0 -0.61566148304635926 0.78801074757464917 1 0 0 forward_v I I I I #
coedge $-1 $222 $223 $224 $225 reversed $88 $-1 #
face $-1 $-1 $226 $46 $-1 $227 forward single #
loop $-1 $228 $229 $90 #
cone-surface $-1 14.581432467385966 -35.087191082846502 14.840566457392203 0 0.61566148304635926 -0.78801074757464917 0.5 0 0 1 I I -0.70710678118654746 0.70710678118654746 0.5 forward I I I I #
loop $-1 $-1 $230 $58 #
coedge $-1 $145 $145 $231 $232 reversed $91 $-1 #
face $-1 $-1 $233 $47 $-1 $234 forward single #
loop $-1 $235 $236 $93 #
cone-surface $-1 23.876082235726074 -35.087191082846502 14.840566457392203 0 0.61566148304635926 -0.78801074757464917 0.5 0 0 1 I I -0.70710678118654746 0.70710678118654746 0.5 forward I I I I #
loop $-1 $-1 $237 $59 #
coedge $-1 $150 $150 $238 $239 reversed $94 $-1 #
face $-1 $240 $241 $36 $-1 $242 reversed single #
loop $-1 $-1 $243 $96 #
plane-surface $-1 0 -39.2974514090252 0 0 1 0 0 0 1 forward_v I I I I #
coedge $-1 $244 $245 $246 $247 forward $97 $-1 #
coedge $-1 $248 $99 $249 $250 forward $61 $-1 #
coedge $-1 $99 $248 $251 $252 forward $61 $-1 #
coedge $-1 $253 $254 $99 $158 reversed $255 $-1 #
edge $-1 $256 -39.2974514090252 $257 39.2974514090252 $157 $258 forward 7 unknown #
face $-1 $259 $260 $37 $-1 $261 reversed single #
loop $-1 $-1 $262 $100 #
plane-surface $-1 0 0 -18.989590620605004 0 0 1 1 0 0 forward_v I I I I #
coedge $-1 $263 $165 $264 $265 reversed $101 $-1 #
coedge $-1 $266 $103 $267 $268 reversed $64 $-1 #
coedge $-1 $103 $266 $269 $270 reversed $64 $-1 #
coedge $-1 $162 $271 $103 $166 reversed $101 $-1 #
edge $-1 $272 -39.2974514090252 $273 39.2974514090252 $165 $274 forward 7 unknown #
face $-1 $275 $276 $38 $-1 $277 reversed single #
loop $-1 $-1 $278 $104 #
plane-surface $-1 1.7829769939606557 61.34165489163577 162.53795425050581 -1 0 0 0 0.64278761758704617 0.76604443648966558 forward_v I I I I #
coedge $-1 $279 $280 $281 $282 reversed $105 $-1 #
coedge $-1 $172 $107 $283 $284 reversed $67 $-1 #
coedge $-1 $107 $171 $279 $285 reversed $67 $-1 #
coedge $-1 $281 $286 $107 $174 forward $287 $-1 #
edge $-1 $288 -8.6266239632073152 $289 -2.6739865088483228 $173 $290 forward 7 unknown #
loop $-1 $-1 $180 $108 #
plane-surface $-1 -9.0919152093525497 -20.909736631188238 64.514564960403277 0 0.64278761758704617 0.76604443648966558 1 0 0 forward_v I I I I #
loop $-1 $-1 $291 $69 #
coedge $-1 $178 $178 $179 $292 reversed $109 $-1 #
coedge $-1 $179 $179 $178 $292 forward $111 $-1 #
coedge $-1 $180 $180 $112 $181 forward $175 $-1 #
edge $-1 $293 -8.7579237304154467e-016 $293 6.2831853071795996 $180 $294 forward 7 unknown #
loop $-1 $-1 $187 $113 #
plane-surface $-1 -9.0919152093525497 -20.909736631188238 64.514564960403277 0 0.64278761758704617 0.76604443648966558 1 0 0 forward_v I I I I #
loop $-1 $-1 $295 $72 #
coedge $-1 $185 $185 $186 $296 reversed $114 $-1 #
coedge $-1 $186 $186 $185 $296 forward $116 $-1 #
coedge $-1 $187 $187 $117 $188 forward $182 $-1 #
edge $-1 $297 -8.7579237304154467e-016 $297 6.2831853071795996 $187 $298 forward 7 unknown #
loop $-1 $-1 $194 $118 #
plane-surface $-1 -9.0919152093525497 -20.909736631188238 64.514564960403277 0 0.64278761758704617 0.76604443648966558 1 0 0 forward_v I I I I #
loop $-1 $-1 $299 $75 #
coedge $-1 $192 $192 $193 $300 reversed $119 $-1 #
coedge $-1 $193 $193 $192 $300 forward $121 $-1 #
coedge $-1 $194 $194 $122 $195 forward $189 $-1 #
edge $-1 $301 -8.7579237304154467e-016 $301 6.2831853071795996 $194 $302 forward 7 unknown #
face $-1 $303 $304 $42 $-1 $305 forward single #
loop $-1 $-1 $306 $123 #
plane-surface $-1 -47.210225428874416 -118.07777060319674 115.93860596851657 1 0 0 0 0.61566148304635926 -0.78801074757464917 forward_v I I I I #
coedge $-1 $307 $308 $309 $310 reversed $124 $-1 #
coedge $-1 $201 $126 $311 $312 reversed $79 $-1 #
coedge $-1 $126 $200 $307 $313 reversed $79 $-1 #
coedge $-1 $309 $314 $126 $203 forward $304 $-1 #
edge $-1 $315 19.74143389257317 $316 24.714253997685105 $202 $317 forward 7 unknown #
loop $-1 $-1 $209 $127 #
plane-surface $-1 -36.366467365810969 -39.2974514090252 15.104397670814762 0 -0.61566148304635926 0.78801074757464917 1 0 0 forward_v I I I I #
loop $-1 $-1 $318 $81 #
coedge $-1 $207 $207 $208 $319 reversed $128 $-1 #
coedge $-1 $208 $208 $207 $319 forward $130 $-1 #
coedge $-1 $209 $209 $131 $210 forward $204 $-1 #
edge $-1 $320 -4.3745379446588065e-015 $320 6.283185307179596 $209 $321 forward 7 unknown #
loop $-1 $-1 $216 $132 #
plane-surface $-1 -36.366467365810969 -39.2974514090252 15.104397670814762 0 -0.61566148304635926 0.78801074757464917 1 0 0 forward_v I I I I #
loop $-1 $-1 $322 $84 #
coedge $-1 $214 $214 $215 $323 reversed $133 $-1 #
coedge $-1 $215 $215 $214 $323 forward $135 $-1 #
coedge $-1 $216 $216 $136 $217 forward $211 $-1 #
edge $-1 $324 -4.3745379446588065e-015 $324 6.283185307179596 $216 $325 forward 7 unknown #
face $-1 $326 $327 $45 $-1 $328 reversed single #
loop $-1 $-1 $329 $137 #
plane-surface $-1 8.3849992884925779 -118.07777060319674 115.93860596851657 1 0 0 0 0.61566148304635926 -0.78801074757464917 forward_v I I I I #
coedge $-1 $330 $331 $332 $333 reversed $138 $-1 #
coedge $-1 $223 $140 $334 $335 reversed $88 $-1 #
coedge $-1 $140 $222 $330 $336 reversed $88 $-1 #
coedge $-1 $332 $337 $140 $225 forward $338 $-1 #
edge $-1 $339 19.74143389257317 $340 24.714253997685105 $224 $341 forward 7 unknown #
loop $-1 $-1 $231 $141 #
plane-surface $-1 19.228757351556027 -39.2974514090252 15.104397670814762 0 -0.61566148304635926 0.78801074757464917 1 0 0 forward_v I I I I #
loop $-1 $-1 $342 $90 #
coedge $-1 $229 $229 $230 $343 reversed $142 $-1 #
coedge $-1 $230 $230 $229 $343 forward $144 $-1 #
coedge $-1 $231 $231 $145 $232 forward $226 $-1 #
edge $-1 $344 -4.3745379446588065e-015 $344 6.283185307179596 $231 $345 forward 7 unknown #
loop $-1 $-1 $238 $146 #
plane-surface $-1 19.228757351556027 -39.2974514090252 15.104397670814762 0 -0.61566148304635926 0.78801074757464917 1 0 0 forward_v I I I I #
loop $-1 $-1 $346 $93 #
coedge $-1 $236 $236 $237 $347 reversed $147 $-1 #
coedge $-1 $237 $237 $236 $347 forward $149 $-1 #
coedge $-1 $238 $238 $150 $239 forward $233 $-1 #
edge $-1 $348 -4.3745379446588065e-015 $348 6.283185307179596 $238 $349 forward 7 unknown #
face $-1 $350 $351 $36 $-1 $352 reversed single #
loop $-1 $-1 $353 $151 #
plane-surface $-1 -63.980224005859554 0 0 1 0 0 0 0 -1 forward_v I I I I #
coedge $-1 $354 $251 $355 $356 forward $152 $-1 #
coedge $-1 $357 $154 $354 $358 forward $97 $-1 #
coedge $-1 $154 $357 $359 $360 forward $97 $-1 #
coedge $-1 $254 $253 $154 $247 reversed $255 $-1 #
edge $-1 $361 -39.2974514090252 $362 39.2974514090252 $246 $363 forward 7 unknown #
coedge $-1 $156 $155 $364 $365 forward $61 $-1 #
coedge $-1 $366 $367 $155 $250 reversed $351 $-1 #
edge $-1 $257 -63.980224005859554 $368 63.980224005859554 $249 $369 forward 7 unknown #
coedge $-1 $243 $370 $156 $252 reversed $152 $-1 #
edge $-1 $371 -63.980224005859554 $256 63.980224005859554 $251 $372 forward 7 unknown #
coedge $-1 $246 $157 $370 $373 forward $255 $-1 #
coedge $-1 $157 $246 $366 $374 reversed $255 $-1 #
loop $-1 $-1 $253 $350 #
vertex $-1 $158 $375 #
vertex $-1 $158 $376 #
straight-curve $-1 63.980224005859554 0 18.989590620605004 0 1 0 I I #
face $-1 $377 $378 $37 $-1 $379 reversed single #
loop $-1 $-1 $264 $159 #
plane-surface $-1 0 -39.2974514090252 0 0 1 0 0 0 1 forward_v I I I I #
coedge $-1 $380 $381 $263 $382 forward $160 $-1 #
coedge $-1 $271 $162 $262 $382 reversed $101 $-1 #
coedge $-1 $269 $383 $162 $265 forward $260 $-1 #
edge $-1 $384 -11.955409749723131 $272 -2.1129519920406139 $264 $385 forward 7 unknown #
coedge $-1 $164 $163 $386 $387 reversed $64 $-1 #
coedge $-1 $388 $389 $163 $268 forward $390 $-1 #
edge $-1 $391 -36.18261164717606 $273 -19.412613070190929 $267 $392 forward 7 unknown #
coedge $-1 $393 $264 $164 $270 forward $260 $-1 #
edge $-1 $272 19.412613070190929 $394 36.18261164717606 $269 $395 forward 7 unknown #
coedge $-1 $165 $263 $388 $396 reversed $101 $-1 #
vertex $-1 $270 $397 #
vertex $-1 $268 $398 #
straight-curve $-1 -47.210225428874423 0 -9.1471328629224864 0 1 0 I I #
face $-1 $-1 $287 $38 $-1 $399 forward single #
loop $-1 $-1 $400 $167 #
plane-surface $-1 0 39.2974514090252 0 0 -1 0 0 0 -1 forward_v I I I I #
coedge $-1 $401 $402 $403 $404 reversed $168 $-1 #
coedge $-1 $405 $170 $172 $285 forward $105 $-1 #
coedge $-1 $170 $405 $401 $406 forward $105 $-1 #
coedge $-1 $403 $173 $170 $282 forward $287 $-1 #
edge $-1 $289 -15.42084980798948 $407 6.3289345986369305 $281 $408 forward 7 unknown #
coedge $-1 $409 $410 $171 $284 forward $276 $-1 #
edge $-1 $411 -67.274242501749654 $288 -62.279386504647903 $283 $412 forward 7 unknown #
edge $-1 $289 70.82428642713127 $411 78.594902818050386 $172 $413 forward 7 unknown #
coedge $-1 $173 $403 $409 $414 forward $287 $-1 #
loop $-1 $-1 $403 $275 #
vertex $-1 $284 $415 #
vertex $-1 $174 $416 #
straight-curve $-1 -19.966807412665755 30.670827445817885 18.989590620605 0 -1 0 I I #
coedge $-1 $291 $291 $-1 $417 reversed $177 $-1 #
edge $-1 $418 0 $418 6.2831853071796004 $178 $419 forward 7 unknown #
vertex $-1 $181 $420 #
ellipse-curve $-1 -15.616850531340468 36.321132681845697 16.492162622054128 0 0.64278761758704617 0.76604443648966558 1 0 0 1 I I #
coedge $-1 $295 $295 $-1 $421 reversed $184 $-1 #
edge $-1 $422 0 $422 6.2831853071796004 $185 $423 forward 7 unknown #
vertex $-1 $188 $424 #
ellipse-curve $-1 -9.0919152093525497 36.321132681845697 16.492162622054128 0 0.64278761758704617 0.76604443648966558 1 0 0 1 I I #
coedge $-1 $299 $299 $-1 $425 reversed $191 $-1 #
edge $-1 $426 0 $426 6.2831853071796004 $192 $427 forward 7 unknown #
vertex $-1 $195 $428 #
ellipse-curve $-1 -2.5669798873646243 36.321132681845697 16.492162622054128 0 0.64278761758704617 0.76604443648966558 1 0 0 1 I I #
face $-1 $-1 $429 $42 $-1 $430 reversed single #
loop $-1 $-1 $202 $196 #
plane-surface $-1 0 0 18.989590620605004 0 0 1 1 0 0 forward_v I I I I #
coedge $-1 $431 $432 $433 $434 reversed $197 $-1 #
coedge $-1 $435 $199 $201 $313 forward $124 $-1 #
coedge $-1 $199 $435 $431 $436 forward $124 $-1 #
coedge $-1 $433 $202 $199 $310 forward $304 $-1 #
edge $-1 $316 7.3394756198420374 $437 29.026991745968932 $309 $438 forward 7 unknown #
coedge $-1 $439 $440 $200 $312 forward $429 $-1 #
edge $-1 $441 -42.864905313443522 $315 -38.979712363653277 $311 $442 forward 7 unknown #
edge $-1 $316 -6.3105993419726207 $441 0 $201 $443 forward 7 unknown #
coedge $-1 $202 $433 $439 $444 forward $304 $-1 #
vertex $-1 $203 $445 #
vertex $-1 $203 $446 #
straight-curve $-1 -25.522709302747522 -59.03888530159837 18.989590620605 0 1 0 I I #
coedge $-1 $318 $318 $-1 $447 reversed $206 $-1 #
edge $-1 $448 0 $448 6.2831853071796004 $207 $449 forward 7 unknown #
vertex $-1 $210 $450 #
ellipse-curve $-1 -41.013792249981023 -36.811041356469232 17.046994145709881 0 -0.61566148304635926 0.78801074757464917 1 0 0 1 I I #
coedge $-1 $322 $322 $-1 $451 reversed $213 $-1 #
edge $-1 $452 0 $452 6.2831853071796004 $214 $453 forward 7 unknown #
vertex $-1 $217 $454 #
ellipse-curve $-1 -31.719142481640922 -36.811041356469232 17.046994145709881 0 -0.61566148304635926 0.78801074757464917 1 0 0 1 I I #
face $-1 $-1 $338 $45 $-1 $455 forward single #
loop $-1 $-1 $456 $218 #
plane-surface $-1 0 -39.2974514090252 0 0 1 0 0 0 1 forward_v I I I I #
coedge $-1 $457 $458 $459 $460 reversed $219 $-1 #
coedge $-1 $461 $221 $223 $336 forward $138 $-1 #
coedge $-1 $221 $461 $457 $462 forward $138 $-1 #
coedge $-1 $459 $224 $221 $333 forward $338 $-1 #
edge $-1 $340 -20.458136738841461 $463 1.2293793872854355 $332 $464 forward 7 unknown #
coedge $-1 $465 $466 $222 $335 forward $327 $-1 #
edge $-1 $467 -42.864905313443522 $339 -38.979712363653277 $334 $468 forward 7 unknown #
edge $-1 $340 -6.3105993419726207 $467 0 $223 $469 forward 7 unknown #
coedge $-1 $224 $459 $465 $470 forward $338 $-1 #
loop $-1 $-1 $459 $326 #
vertex $-1 $335 $471 #
vertex $-1 $225 $472 #
straight-curve $-1 30.072515414619474 -59.03888530159837 18.989590620605 0 1 0 I I #
coedge $-1 $342 $342 $-1 $473 reversed $228 $-1 #
edge $-1 $474 0 $474 6.2831853071796004 $229 $475 forward 7 unknown #
vertex $-1 $232 $476 #
ellipse-curve $-1 14.581432467385966 -36.811041356469232 17.046994145709881 0 -0.61566148304635926 0.78801074757464917 1 0 0 1 I I #
coedge $-1 $346 $346 $-1 $477 reversed $235 $-1 #
edge $-1 $478 0 $478 6.2831853071796004 $236 $479 forward 7 unknown #
vertex $-1 $239 $480 #
ellipse-curve $-1 23.876082235726074 -36.811041356469232 17.046994145709881 0 -0.61566148304635926 0.78801074757464917 1 0 0 1 I I #
face $-1 $-1 $255 $36 $-1 $481 reversed single #
loop $-1 $-1 $366 $240 #
plane-surface $-1 0 39.2974514090252 0 0 -1 0 0 0 -1 forward_v I I I I #
coedge $-1 $482 $364 $367 $483 forward $241 $-1 #
coedge $-1 $370 $243 $244 $358 reversed $152 $-1 #
coedge $-1 $364 $482 $243 $356 reversed $241 $-1 #
edge $-1 $371 -18.989590620605004 $484 18.989590620605004 $355 $485 forward 7 unknown #
coedge $-1 $245 $244 $482 $486 forward $97 $-1 #
edge $-1 $362 -63.980224005859554 $484 63.980224005859554 $354 $487 forward 7 unknown #
coedge $-1 $367 $366 $245 $360 reversed $351 $-1 #
edge $-1 $488 -63.980224005859554 $361 63.980224005859554 $359 $489 forward 7 unknown #
vertex $-1 $247 $490 #
vertex $-1 $373 $491 #
straight-curve $-1 63.980224005859554 0 -18.989590620605004 0 -1 0 I I #
coedge $-1 $353 $355 $248 $365 reversed $241 $-1 #
edge $-1 $368 -39.2974514090252 $371 39.2974514090252 $364 $492 forward 7 unknown #
coedge $-1 $359 $249 $254 $374 forward $351 $-1 #
coedge $-1 $249 $359 $353 $483 reversed $351 $-1 #
vertex $-1 $250 $493 #
straight-curve $-1 0 39.2974514090252 18.989590620605004 -1 0 0 I I #
coedge $-1 $251 $354 $253 $373 reversed $152 $-1 #
vertex $-1 $365 $494 #
straight-curve $-1 0 -39.2974514090252 18.989590620605004 1 0 0 I I #
edge $-1 $256 -18.989590620605004 $362 18.989590620605004 $253 $495 forward 7 unknown #
edge $-1 $257 -18.989590620605004 $361 18.989590620605004 $254 $496 forward 7 unknown #
point $-1 63.980224005859554 -39.2974514090252 18.989590620605004 #
point $-1 63.980224005859554 39.2974514090252 18.989590620605004 #
face $-1 $-1 $390 $37 $-1 $497 reversed single #
loop $-1 $-1 $386 $259 #
plane-surface $-1 -63.980224005859554 0 0 1 0 0 0 0 -1 forward_v I I I I #
coedge $-1 $498 $262 $383 $499 forward $160 $-1 #
coedge $-1 $262 $498 $500 $501 forward $160 $-1 #
edge $-1 $502 -39.2974514090252 $384 39.2974514090252 $262 $503 forward 7 unknown #
coedge $-1 $264 $393 $380 $499 reversed $260 $-1 #
vertex $-1 $499 $504 #
straight-curve $-1 -47.210225428874423 -39.2974514090252 -7.0341808708818725 0 0 1 I I #
coedge $-1 $505 $506 $266 $387 forward $378 $-1 #
edge $-1 $394 -39.2974514090252 $391 39.2974514090252 $386 $507 forward 7 unknown #
coedge $-1 $500 $267 $271 $396 forward $390 $-1 #
coedge $-1 $267 $500 $505 $508 reversed $390 $-1 #
loop $-1 $-1 $388 $377 #
vertex $-1 $508 $509 #
straight-curve $-1 -27.797612358683494 39.2974514090252 -9.1471328629224864 1 0 0 I I #
coedge $-1 $383 $269 $506 $510 forward $260 $-1 #
vertex $-1 $510 $511 #
straight-curve $-1 -27.797612358683494 -39.2974514090252 -9.1471328629224864 -1 0 0 I I #
edge $-1 $273 2.1129519920406139 $502 11.955409749723131 $388 $512 forward 7 unknown #
point $-1 -47.210225428874423 -39.2974514090252 -9.1471328629224864 #
point $-1 -47.210225428874423 39.2974514090252 -9.1471328629224864 #
plane-surface $-1 0 0 18.989590620605004 0 0 1 1 0 0 forward_v I I I I #
coedge $-1 $410 $409 $402 $513 forward $276 $-1 #
coedge $-1 $402 $278 $280 $406 reversed $168 $-1 #
coedge $-1 $278 $401 $400 $513 reversed $168 $-1 #
coedge $-1 $286 $281 $278 $404 forward $287 $-1 #
edge $-1 $407 2.6739865088483228 $514 8.6266239632073152 $403 $515 forward 7 unknown #
coedge $-1 $280 $279 $410 $516 reversed $105 $-1 #
edge $-1 $517 -78.594902818050386 $407 -70.82428642713127 $401 $518 forward 7 unknown #
vertex $-1 $282 $519 #
straight-curve $-1 -4.5459576046762749 33.344813954666201 18.989590620605004 1 0 0 I I #
coedge $-1 $400 $283 $286 $414 reversed $276 $-1 #
coedge $-1 $283 $400 $405 $516 forward $276 $-1 #
vertex $-1 $284 $520 #
straight-curve $-1 -19.966807412665755 39.2974514090252 81.268977125252903 0 0 1 I I #
straight-curve $-1 -19.966807412665755 -20.909736631188238 64.514564960403277 0 0.76604443648966558 -0.64278761758704617 I I #
edge $-1 $514 -1.7829769939606557 $288 19.966807412665755 $409 $521 forward 7 unknown #
point $-1 -19.966807412665755 39.2974514090252 18.989590620605004 #
point $-1 -19.966807412665755 33.344813954666208 18.989590620605 #
edge $-1 $522 1 $522 0 $291 $-1 forward 7 unknown #
vertex $-1 $292 $523 #
ellipse-curve $-1 -15.616850531340468 34.322953210810304 14.110825108676718 0 0.64278761758704617 0.76604443648966558 1 0 0 1 I I #
point $-1 -14.616850531340468 36.32113268184569 16.492162622054121 #
edge $-1 $524 1 $524 0 $295 $-1 forward 7 unknown #
vertex $-1 $296 $525 #
ellipse-curve $-1 -9.0919152093525497 34.322953210810304 14.110825108676718 0 0.64278761758704617 0.76604443648966558 1 0 0 1 I I #
point $-1 -8.0919152093525497 36.32113268184569 16.492162622054121 #
edge $-1 $526 1 $526 0 $299 $-1 forward 7 unknown #
vertex $-1 $300 $527 #
ellipse-curve $-1 -2.5669798873646243 34.322953210810304 14.110825108676718 0 0.64278761758704617 0.76604443648966558 1 0 0 1 I I #
point $-1 -1.5669798873646243 36.32113268184569 16.492162622054121 #
loop $-1 $-1 $311 $303 #
plane-surface $-1 0 -39.2974514090252 0 0 1 0 0 0 1 forward_v I I I I #
coedge $-1 $432 $306 $308 $436 reversed $197 $-1 #
coedge $-1 $306 $431 $528 $529 reversed $197 $-1 #
coedge $-1 $314 $309 $306 $434 forward $304 $-1 #
edge $-1 $437 -24.714253997685105 $530 -19.74143389257317 $433 $531 forward 7 unknown #
coedge $-1 $308 $307 $440 $532 reversed $124 $-1 #
edge $-1 $533 0 $437 6.3105993419726207 $431 $534 forward 7 unknown #
vertex $-1 $310 $535 #
straight-curve $-1 -18.183233682905485 -34.324631303913264 18.989590620605004 -1 0 0 I I #
coedge $-1 $528 $311 $314 $444 reversed $429 $-1 #
coedge $-1 $311 $528 $435 $532 forward $429 $-1 #
vertex $-1 $312 $536 #
straight-curve $-1 -25.522709302747522 -39.2974514090252 57.969302984258285 0 0 1 I I #
straight-curve $-1 -25.522709302747522 -39.2974514090252 15.104397670814762 0 -0.78801074757464917 -0.61566148304635926 I I #
edge $-1 $530 -47.210225428874416 $315 -25.522709302747522 $439 $537 forward 7 unknown #
point $-1 -25.522709302747522 -39.2974514090252 18.989590620605004 #
point $-1 -25.522709302747522 -34.324631303913264 18.989590620605004 #
edge $-1 $538 1 $538 0 $318 $-1 forward 7 unknown #
vertex $-1 $319 $539 #
ellipse-curve $-1 -41.013792249981023 -35.395021824369678 15.234571831179528 0 -0.61566148304635926 0.78801074757464917 1 0 0 1 I I #
point $-1 -40.013792249981023 -36.811041356469232 17.046994145709874 #
edge $-1 $540 1 $540 0 $322 $-1 forward 7 unknown #
vertex $-1 $323 $541 #
ellipse-curve $-1 -31.719142481640922 -35.395021824369678 15.234571831179528 0 -0.61566148304635926 0.78801074757464917 1 0 0 1 I I #
point $-1 -30.719142481640922 -36.811041356469232 17.046994145709874 #
plane-surface $-1 0 0 18.989590620605004 0 0 1 1 0 0 forward_v I I I I #
coedge $-1 $466 $465 $458 $542 forward $327 $-1 #
coedge $-1 $458 $329 $331 $462 reversed $219 $-1 #
coedge $-1 $329 $457 $456 $542 reversed $219 $-1 #
coedge $-1 $337 $332 $329 $460 forward $338 $-1 #
edge $-1 $463 -24.714253997685105 $543 -19.74143389257317 $459 $544 forward 7 unknown #
coedge $-1 $331 $330 $466 $545 reversed $138 $-1 #
edge $-1 $546 0 $463 6.3105993419726207 $457 $547 forward 7 unknown #
vertex $-1 $333 $548 #
straight-curve $-1 9.6143786757780134 -34.324631303913264 18.989590620605004 -1 0 0 I I #
coedge $-1 $456 $334 $337 $470 reversed $327 $-1 #
coedge $-1 $334 $456 $461 $545 forward $327 $-1 #
vertex $-1 $335 $549 #
straight-curve $-1 30.072515414619474 -39.2974514090252 57.969302984258285 0 0 1 I I #
straight-curve $-1 30.072515414619474 -39.2974514090252 15.104397670814762 0 -0.78801074757464917 -0.61566148304635926 I I #
edge $-1 $543 8.3849992884925779 $339 30.072515414619474 $465 $550 forward 7 unknown #
point $-1 30.072515414619474 -39.2974514090252 18.989590620605004 #
point $-1 30.072515414619474 -34.324631303913264 18.989590620605004 #
edge $-1 $551 1 $551 0 $342 $-1 forward 7 unknown #
vertex $-1 $343 $552 #
ellipse-curve $-1 14.581432467385966 -35.395021824369678 15.234571831179528 0 -0.61566148304635926 0.78801074757464917 1 0 0 1 I I #
point $-1 15.581432467385966 -36.811041356469232 17.046994145709874 #
edge $-1 $553 1 $553 0 $346 $-1 forward 7 unknown #
vertex $-1 $347 $554 #
ellipse-curve $-1 23.876082235726074 -35.395021824369678 15.234571831179528 0 -0.61566148304635926 0.78801074757464917 1 0 0 1 I I #
point $-1 24.876082235726074 -36.811041356469232 17.046994145709874 #
plane-surface $-1 63.980224005859554 0 0 -1 0 0 0 0 1 forward_v I I I I #
coedge $-1 $355 $353 $357 $486 reversed $241 $-1 #
edge $-1 $368 -18.989590620605004 $488 18.989590620605004 $367 $555 forward 7 unknown #
vertex $-1 $486 $556 #
straight-curve $-1 -63.980224005859554 -39.2974514090252 0 0 0 -1 I I #
edge $-1 $484 -39.2974514090252 $488 39.2974514090252 $482 $557 forward 7 unknown #
straight-curve $-1 0 -39.2974514090252 -18.989590620605004 -1 0 0 I I #
vertex $-1 $360 $558 #
straight-curve $-1 0 39.2974514090252 -18.989590620605004 1 0 0 I I #
point $-1 63.980224005859554 39.2974514090252 -18.989590620605004 #
point $-1 63.980224005859554 -39.2974514090252 -18.989590620605004 #
straight-curve $-1 -63.980224005859554 0 18.989590620605004 0 -1 0 I I #
point $-1 -63.980224005859554 39.2974514090252 18.989590620605004 #
point $-1 -63.980224005859554 -39.2974514090252 18.989590620605004 #
straight-curve $-1 63.980224005859554 -39.2974514090252 0 0 0 -1 I I #
straight-curve $-1 63.980224005859554 39.2974514090252 0 0 0 -1 I I #
plane-surface $-1 0 39.2974514090252 0 0 -1 0 0 0 -1 forward_v I I I I #
coedge $-1 $381 $380 $559 $560 forward $160 $-1 #
edge $-1 $384 47.210225428874423 $561 63.980224005859554 $383 $562 forward 7 unknown #
coedge $-1 $389 $388 $381 $501 reversed $390 $-1 #
edge $-1 $563 -63.980224005859554 $502 -47.210225428874423 $500 $564 forward 7 unknown #
vertex $-1 $396 $565 #
straight-curve $-1 -47.210225428874423 0 -18.989590620605004 0 -1 0 I I #
point $-1 -47.210225428874423 -39.2974514090252 -18.989590620605004 #
coedge $-1 $559 $386 $389 $508 forward $378 $-1 #
coedge $-1 $386 $559 $393 $510 reversed $378 $-1 #
straight-curve $-1 -63.980224005859554 0 -9.1471328629224864 0 1 0 I I #
edge $-1 $391 9.1471328629224864 $563 18.989590620605004 $389 $566 forward 7 unknown #
point $-1 -63.980224005859554 39.2974514090252 -9.1471328629224864 #
edge $-1 $394 9.1471328629224864 $561 18.989590620605004 $506 $567 forward 7 unknown #
point $-1 -63.980224005859554 -39.2974514090252 -9.1471328629224864 #
straight-curve $-1 -47.210225428874423 39.2974514090252 -7.0341808708818725 0 0 -1 I I #
edge $-1 $514 62.279386504647903 $517 67.274242501749654 $400 $568 forward 7 unknown #
vertex $-1 $414 $569 #
straight-curve $-1 1.7829769939606557 30.670827445817885 18.989590620605 0 1 0 I I #
edge $-1 $517 -6.3289345986369305 $411 15.42084980798948 $410 $570 forward 7 unknown #
vertex $-1 $516 $571 #
straight-curve $-1 1.7829769939606557 -20.909736631188238 64.514564960403277 0 -0.76604443648966558 0.64278761758704617 I I #
point $-1 1.7829769939606557 33.344813954666208 18.989590620605 #
point $-1 -19.966807412665755 39.2974514090252 13.994734623503248 #
straight-curve $-1 0 39.2974514090252 18.989590620605004 -1 0 0 I I #
vertex $-1 $417 $572 #
point $-1 -14.616850531340468 34.322953210810304 14.110825108676718 #
vertex $-1 $421 $573 #
point $-1 -8.0919152093525497 34.322953210810304 14.110825108676718 #
vertex $-1 $425 $574 #
point $-1 -1.5669798873646243 34.322953210810304 14.110825108676718 #
coedge $-1 $440 $439 $432 $529 forward $429 $-1 #
edge $-1 $530 38.979712363653277 $533 42.864905313443522 $528 $575 forward 7 unknown #
vertex $-1 $444 $576 #
straight-curve $-1 -47.210225428874416 -59.03888530159837 18.989590620605 0 -1 0 I I #
edge $-1 $533 -29.026991745968932 $441 -7.3394756198420374 $440 $577 forward 7 unknown #
vertex $-1 $532 $578 #
straight-curve $-1 -47.210225428874416 -39.2974514090252 15.104397670814762 0 0.78801074757464917 0.61566148304635926 I I #
point $-1 -47.210225428874416 -34.324631303913264 18.989590620605004 #
point $-1 -25.522709302747522 -39.2974514090252 15.104397670814762 #
straight-curve $-1 0 -39.2974514090252 18.989590620605004 1 0 0 I I #
vertex $-1 $447 $579 #
point $-1 -40.013792249981023 -35.395021824369678 15.234571831179528 #
vertex $-1 $451 $580 #
point $-1 -30.719142481640922 -35.395021824369678 15.234571831179528 #
edge $-1 $543 38.979712363653277 $546 42.864905313443522 $456 $581 forward 7 unknown #
vertex $-1 $470 $582 #
straight-curve $-1 8.3849992884925779 -59.03888530159837 18.989590620605 0 -1 0 I I #
edge $-1 $546 -1.2293793872854355 $467 20.458136738841461 $466 $583 forward 7 unknown #
vertex $-1 $545 $584 #
straight-curve $-1 8.3849992884925779 -39.2974514090252 15.104397670814762 0 0.78801074757464917 0.61566148304635926 I I #
point $-1 8.3849992884925779 -34.324631303913264 18.989590620605004 #
point $-1 30.072515414619474 -39.2974514090252 15.104397670814762 #
straight-curve $-1 0 -39.2974514090252 18.989590620605004 1 0 0 I I #
vertex $-1 $473 $585 #
point $-1 15.581432467385966 -35.395021824369678 15.234571831179528 #
vertex $-1 $477 $586 #
point $-1 24.876082235726074 -35.395021824369678 15.234571831179528 #
straight-curve $-1 -63.980224005859554 39.2974514090252 0 0 0 -1 I I #
point $-1 -63.980224005859554 -39.2974514090252 -18.989590620605004 #
straight-curve $-1 -63.980224005859554 0 -18.989590620605004 0 1 0 I I #
point $-1 -63.980224005859554 39.2974514090252 -18.989590620605004 #
coedge $-1 $506 $505 $498 $560 reversed $378 $-1 #
edge $-1 $561 -39.2974514090252 $563 39.2974514090252 $559 $587 forward 7 unknown #
vertex $-1 $560 $588 #
straight-curve $-1 0 -39.2974514090252 -18.989590620605004 -1 0 0 I I #
vertex $-1 $501 $589 #
straight-curve $-1 0 39.2974514090252 -18.989590620605004 1 0 0 I I #
point $-1 -47.210225428874423 39.2974514090252 -18.989590620605004 #
straight-curve $-1 -63.980224005859554 39.2974514090252 0 0 0 -1 I I #
straight-curve $-1 -63.980224005859554 -39.2974514090252 0 0 0 -1 I I #
straight-curve $-1 1.7829769939606557 39.2974514090252 81.268977125252903 0 0 -1 I I #
point $-1 1.7829769939606557 39.2974514090252 18.989590620605004 #
straight-curve $-1 -4.5459576046762749 39.297451409025193 13.994734623503255 -1 0 0 I I #
point $-1 1.7829769939606557 39.2974514090252 13.994734623503248 #
point $-1 -15.616850531340468 33.680165593223258 13.344780672187053 #
point $-1 -9.0919152093525497 33.680165593223258 13.344780672187053 #
point $-1 -2.5669798873646243 33.680165593223258 13.344780672187053 #
straight-curve $-1 -47.210225428874416 -39.2974514090252 57.969302984258285 0 0 -1 I I #
point $-1 -47.210225428874416 -39.2974514090252 18.989590620605004 #
straight-curve $-1 -18.183233682905485 -39.2974514090252 15.104397670814761 1 0 0 I I #
point $-1 -47.210225428874416 -39.2974514090252 15.104397670814762 #
point $-1 -41.013792249981023 -34.779360341323326 14.446561083604879 #
point $-1 -31.719142481640922 -34.779360341323326 14.446561083604879 #
straight-curve $-1 8.3849992884925779 -39.2974514090252 57.969302984258285 0 0 -1 I I #
point $-1 8.3849992884925779 -39.2974514090252 18.989590620605004 #
straight-curve $-1 9.6143786757780134 -39.2974514090252 15.104397670814761 1 0 0 I I #
point $-1 8.3849992884925779 -39.2974514090252 15.104397670814762 #
point $-1 14.581432467385966 -34.779360341323326 14.446561083604879 #
point $-1 23.876082235726074 -34.779360341323326 14.446561083604879 #
straight-curve $-1 -63.980224005859554 0 -18.989590620605004 0 1 0 I I #
point $-1 -63.980224005859554 -39.2974514090252 -18.989590620605004 #
point $-1 -63.980224005859554 39.2974514090252 -18.989590620605004 #
End-of-ACIS-data 