500 0 5 0           
7 Unknown 11 ACIS 5.0 NT 24 Thu Mar 25 23:07:06 1999 
-1 9.9999999999999995e-007 1e-010 
body $-1 $5 $-1 $6 #
body $-1 $7 $-1 $8 #
body $-1 $9 $-1 $10 #
body $-1 $11 $-1 $12 #
body $-1 $13 $-1 $14 #
lump $-1 $-1 $15 $0 #
transform $-1 1 0 0 0 1 0 0 0 1 67.959837641529589 31.188477874638064 9.6945367244106446 1 rotate no_reflect no_shear #
lump $-1 $-1 $16 $1 #
transform $-1 1 0 0 0 1 0 0 0 1 67.959837641529589 31.188477874638064 9.6945367244106446 1 rotate no_reflect no_shear #
lump $-1 $-1 $17 $2 #
transform $-1 1 0 0 0 1 0 0 0 1 67.959837641529589 31.188477874638064 9.6945367244106446 1 rotate no_reflect no_shear #
lump $-1 $-1 $18 $3 #
transform $-1 1 0 0 0 1 0 0 0 1 67.959837641529589 31.188477874638064 9.6945367244106446 1 rotate no_reflect no_shear #
lump $-1 $-1 $19 $4 #
transform $-1 1 0 0 0 1 0 0 0 1 67.959837641529589 31.188477874638064 9.6945367244106446 1 rotate no_reflect no_shear #
shell $-1 $-1 $-1 $20 $-1 $5 #
shell $-1 $-1 $-1 $21 $-1 $7 #
shell $-1 $-1 $-1 $22 $-1 $9 #
shell $-1 $-1 $-1 $23 $-1 $11 #
shell $-1 $-1 $-1 $24 $-1 $13 #
face $-1 $25 $26 $15 $-1 $27 forward single #
face $-1 $28 $29 $16 $-1 $30 forward single #
face $-1 $31 $32 $17 $-1 $33 forward single #
face $-1 $34 $35 $18 $-1 $36 reversed single #
face $-1 $37 $38 $19 $-1 $39 forward single #
face $-1 $40 $41 $15 $-1 $42 reversed single #
loop $-1 $-1 $43 $20 #
plane-surface $-1 0 0 9.6945367244106446 0 0 1 1 0 0 forward_v I I I I #
face $-1 $44 $45 $16 $-1 $46 reversed single #
loop $-1 $-1 $47 $21 #
plane-surface $-1 0 -25.408794905286911 -5.3540808742308581 0 0 1 1 0 0 forward_v I I I I #
face $-1 $48 $49 $17 $-1 $50 reversed single #
loop $-1 $-1 $51 $22 #
plane-surface $-1 0 31.188477874638064 0 0 -1 0 0 0 -1 forward_v I I I I #
face $-1 $52 $53 $18 $-1 $54 reversed single #
loop $-1 $-1 $55 $23 #
plane-surface $-1 61.251477773478513 -10.906316427356108 198.39501765859865 0 1 0 0.68199836817093118 0 0.7313536940579346 forward_v I I I I #
face $-1 $56 $57 $19 $-1 $58 forward single #
loop $-1 $59 $60 $24 #
cone-surface $-1 65.715825417516825 -5.7465833232816159 7.5432255105191661 -0.68199836817093118 0 -0.7313536940579346 0.3656768470289673 0 -0.34099918408546559 1 I I 0 1 0.5 forward I I I I #
face $-1 $61 $62 $15 $-1 $63 reversed single #
loop $-1 $-1 $64 $25 #
plane-surface $-1 0 0 -9.6945367244106446 0 0 1 1 0 0 forward_v I I I I #
coedge $-1 $65 $66 $67 $68 forward $26 $-1 #
face $-1 $69 $70 $16 $-1 $71 reversed single #
loop $-1 $-1 $72 $28 #
plane-surface $-1 0 -25.408794905286911 -8.3540808742308581 0 0 1 1 0 0 forward_v I I I I #
coedge $-1 $73 $74 $75 $76 reversed $29 $-1 #
face $-1 $77 $78 $17 $-1 $79 forward single #
loop $-1 $-1 $80 $31 #
plane-surface $-1 -67.959837641529589 0 0 1 0 0 0 0 -1 forward_v I I I I #
coedge $-1 $81 $82 $83 $84 forward $32 $-1 #
face $-1 $85 $86 $18 $-1 $87 reversed single #
loop $-1 $-1 $88 $34 #
plane-surface $-1 -31.445518971890692 -5.7465833232816159 98.989661045178366 0.68199836817093118 0 0.7313536940579346 0.7313536940579346 0 -0.68199836817093118 forward_v I I I I #
coedge $-1 $89 $90 $91 $92 reversed $35 $-1 #
face $-1 $-1 $93 $19 $-1 $94 forward single #
loop $-1 $95 $96 $37 #
cone-surface $-1 65.12534433273612 -5.7465833232816159 6.9100120854139195 -0.68199836817093118 0 -0.7313536940579346 0.18283842351448365 0 -0.17049959204273279 1 I I -0.70710678118654746 0.70710678118654746 0.25 forward I I I I #
loop $-1 $-1 $97 $24 #
coedge $-1 $60 $60 $98 $99 reversed $38 $-1 #
face $-1 $100 $101 $15 $-1 $102 reversed single #
loop $-1 $-1 $103 $40 #
plane-surface $-1 0 -31.188477874638064 0 0 1 0 0 0 1 forward_v I I I I #
coedge $-1 $104 $105 $106 $107 forward $41 $-1 #
coedge $-1 $108 $43 $109 $110 forward $26 $-1 #
coedge $-1 $43 $108 $111 $112 forward $26 $-1 #
coedge $-1 $113 $114 $43 $68 reversed $115 $-1 #
edge $-1 $116 -31.188477874638064 $117 31.188477874638064 $67 $118 forward 7 unknown #
face $-1 $119 $120 $16 $-1 $121 reversed single #
loop $-1 $-1 $122 $44 #
plane-surface $-1 0 -19.629111935935761 -6.8540808742308581 0 -1 0 0 0 -1 forward_v I I I I #
coedge $-1 $123 $124 $125 $126 reversed $45 $-1 #
coedge $-1 $127 $47 $128 $129 forward $29 $-1 #
coedge $-1 $47 $127 $130 $131 reversed $29 $-1 #
coedge $-1 $132 $133 $47 $76 forward $134 $-1 #
edge $-1 $135 6.9247144832923055 $136 18.484080421994605 $75 $137 forward 7 unknown #
face $-1 $138 $139 $17 $-1 $140 reversed single #
loop $-1 $-1 $141 $48 #
plane-surface $-1 0 35.054813087339809 -4.9806729036353214 0 0 1 1 0 0 forward_v I I I I #
coedge $-1 $142 $143 $81 $144 forward $49 $-1 #
coedge $-1 $145 $51 $80 $144 reversed $32 $-1 #
coedge $-1 $51 $145 $146 $147 reversed $32 $-1 #
coedge $-1 $141 $148 $51 $84 reversed $78 $-1 #
edge $-1 $149 -67.959837641529589 $150 67.959837641529589 $83 $151 forward 7 unknown #
face $-1 $152 $153 $18 $-1 $154 forward single #
loop $-1 $-1 $155 $52 #
plane-surface $-1 61.251477773478513 -0.58685021920712366 198.39501765859865 0 -1 0 -0.68199836817093118 0 -0.7313536940579346 forward_v I I I I #
coedge $-1 $156 $157 $158 $159 reversed $53 $-1 #
coedge $-1 $90 $55 $160 $161 reversed $35 $-1 #
coedge $-1 $55 $89 $156 $162 reversed $35 $-1 #
coedge $-1 $158 $163 $55 $92 forward $164 $-1 #
edge $-1 $165 89.502972104888684 $166 92.904844529490163 $91 $167 forward 7 unknown #
loop $-1 $-1 $98 $56 #
plane-surface $-1 -31.445518971890692 -5.7465833232816159 98.989661045178366 0.68199836817093118 0 0.7313536940579346 0.7313536940579346 0 -0.68199836817093118 forward_v I I I I #
loop $-1 $-1 $168 $37 #
coedge $-1 $96 $96 $97 $169 reversed $57 $-1 #
coedge $-1 $97 $97 $96 $169 forward $59 $-1 #
coedge $-1 $98 $98 $60 $99 forward $93 $-1 #
edge $-1 $170 0 $170 6.2831853071796004 $98 $171 forward 7 unknown #
face $-1 $172 $173 $15 $-1 $174 reversed single #
loop $-1 $-1 $175 $61 #
plane-surface $-1 -67.959837641529589 0 0 1 0 0 0 0 -1 forward_v I I I I #
coedge $-1 $176 $111 $177 $178 forward $62 $-1 #
coedge $-1 $179 $64 $176 $180 forward $41 $-1 #
coedge $-1 $64 $179 $181 $182 forward $41 $-1 #
coedge $-1 $114 $113 $64 $107 reversed $115 $-1 #
edge $-1 $183 -31.188477874638064 $184 31.188477874638064 $106 $185 forward 7 unknown #
coedge $-1 $66 $65 $186 $187 forward $26 $-1 #
coedge $-1 $188 $189 $65 $110 reversed $173 $-1 #
edge $-1 $117 -67.959837641529589 $190 67.959837641529589 $109 $191 forward 7 unknown #
coedge $-1 $103 $192 $66 $112 reversed $62 $-1 #
edge $-1 $193 -67.959837641529589 $116 67.959837641529589 $111 $194 forward 7 unknown #
coedge $-1 $106 $67 $192 $195 forward $115 $-1 #
coedge $-1 $67 $106 $188 $196 reversed $115 $-1 #
loop $-1 $-1 $113 $172 #
vertex $-1 $68 $197 #
vertex $-1 $68 $198 #
straight-curve $-1 67.959837641529589 0 9.6945367244106446 0 1 0 I I #
face $-1 $199 $200 $16 $-1 $201 reversed single #
loop $-1 $-1 $202 $69 #
plane-surface $-1 -67.959837641529589 0 0 1 0 0 0 0 -1 forward_v I I I I #
coedge $-1 $203 $128 $133 $204 reversed $70 $-1 #
coedge $-1 $205 $72 $206 $207 reversed $45 $-1 #
coedge $-1 $72 $205 $203 $208 forward $45 $-1 #
coedge $-1 $133 $132 $72 $126 forward $134 $-1 #
edge $-1 $209 -18.484080421994605 $210 -6.9247144832923055 $125 $211 forward 7 unknown #
coedge $-1 $74 $73 $202 $212 reversed $29 $-1 #
coedge $-1 $122 $213 $73 $129 reversed $70 $-1 #
edge $-1 $135 -67.959837641529589 $214 67.959837641529589 $128 $215 forward 7 unknown #
coedge $-1 $216 $217 $74 $131 forward $200 $-1 #
edge $-1 $136 -67.959837641529589 $218 67.959837641529589 $130 $219 forward 7 unknown #
coedge $-1 $125 $75 $217 $220 forward $134 $-1 #
coedge $-1 $75 $125 $122 $204 forward $134 $-1 #
loop $-1 $-1 $75 $199 #
vertex $-1 $76 $221 #
vertex $-1 $220 $222 #
straight-curve $-1 67.959837641529589 -12.704397452643455 -5.3540808742308581 0 -1 0 I I #
face $-1 $223 $224 $17 $-1 $225 reversed single #
loop $-1 $-1 $226 $77 #
plane-surface $-1 0 38.921148300041565 -7.337604814022983 0 -1 0 0 0 -1 forward_v I I I I #
coedge $-1 $227 $83 $228 $229 forward $78 $-1 #
coedge $-1 $230 $80 $148 $231 reversed $49 $-1 #
coedge $-1 $80 $230 $232 $233 reversed $49 $-1 #
edge $-1 $234 -9.6945367244106446 $150 -4.9806729036353214 $80 $235 forward 7 unknown #
coedge $-1 $82 $81 $236 $237 reversed $32 $-1 #
coedge $-1 $238 $228 $82 $147 forward $224 $-1 #
edge $-1 $149 4.9806729036353214 $239 9.6945367244106446 $146 $240 forward 7 unknown #
coedge $-1 $83 $227 $142 $231 forward $78 $-1 #
vertex $-1 $147 $241 #
vertex $-1 $231 $242 #
straight-curve $-1 0 31.188477874638064 -4.9806729036353214 -1 0 0 I I #
face $-1 $-1 $164 $18 $-1 $243 reversed single #
loop $-1 $-1 $244 $85 #
plane-surface $-1 0 0 9.6945367244106446 0 0 1 1 0 0 forward_v I I I I #
coedge $-1 $245 $246 $247 $248 reversed $86 $-1 #
coedge $-1 $249 $88 $90 $162 forward $53 $-1 #
coedge $-1 $88 $249 $245 $250 forward $53 $-1 #
coedge $-1 $247 $91 $88 $159 forward $164 $-1 #
edge $-1 $166 -8.0330247657153002 $251 2.2864414424336843 $158 $252 forward 7 unknown #
coedge $-1 $253 $254 $89 $161 forward $153 $-1 #
edge $-1 $255 33.686037292240684 $165 37.334098754790332 $160 $256 forward 7 unknown #
edge $-1 $166 -135.91967528305918 $255 -130.9315806139692 $90 $257 forward 7 unknown #
coedge $-1 $91 $247 $253 $258 reversed $164 $-1 #
loop $-1 $-1 $247 $152 #
vertex $-1 $258 $259 #
vertex $-1 $92 $260 #
straight-curve $-1 67.959837641529589 -10.906316427356108 99.197508829299323 0 0 -1 I I #
coedge $-1 $168 $168 $-1 $261 reversed $95 $-1 #
edge $-1 $262 0 $262 6.2831853071796004 $96 $263 forward 7 unknown #
vertex $-1 $99 $264 #
ellipse-curve $-1 66.135806910254772 -5.7465833232816159 7.9936005121099001 0.68199836817093118 0 0.7313536940579346 0.3656768470289673 0 -0.34099918408546559 1 I I #
face $-1 $-1 $115 $15 $-1 $265 reversed single #
loop $-1 $-1 $188 $100 #
plane-surface $-1 0 31.188477874638064 0 0 -1 0 0 0 -1 forward_v I I I I #
coedge $-1 $266 $186 $189 $267 forward $101 $-1 #
coedge $-1 $192 $103 $104 $180 reversed $62 $-1 #
coedge $-1 $186 $266 $103 $178 reversed $101 $-1 #
edge $-1 $193 -9.6945367244106446 $268 9.6945367244106446 $177 $269 forward 7 unknown #
coedge $-1 $105 $104 $266 $270 forward $41 $-1 #
edge $-1 $184 -67.959837641529589 $268 67.959837641529589 $176 $271 forward 7 unknown #
coedge $-1 $189 $188 $105 $182 reversed $173 $-1 #
edge $-1 $272 -67.959837641529589 $183 67.959837641529589 $181 $273 forward 7 unknown #
vertex $-1 $107 $274 #
vertex $-1 $195 $275 #
straight-curve $-1 67.959837641529589 0 -9.6945367244106446 0 -1 0 I I #
coedge $-1 $175 $177 $108 $187 reversed $101 $-1 #
edge $-1 $190 -31.188477874638064 $193 31.188477874638064 $186 $276 forward 7 unknown #
coedge $-1 $181 $109 $114 $196 forward $173 $-1 #
coedge $-1 $109 $181 $175 $267 reversed $173 $-1 #
vertex $-1 $110 $277 #
straight-curve $-1 0 31.188477874638064 9.6945367244106446 -1 0 0 I I #
coedge $-1 $111 $176 $113 $195 reversed $62 $-1 #
vertex $-1 $187 $278 #
straight-curve $-1 0 -31.188477874638064 9.6945367244106446 1 0 0 I I #
edge $-1 $116 -9.6945367244106446 $184 9.6945367244106446 $113 $279 forward 7 unknown #
edge $-1 $117 -9.6945367244106446 $183 9.6945367244106446 $114 $280 forward 7 unknown #
point $-1 67.959837641529589 -31.188477874638064 9.6945367244106446 #
point $-1 67.959837641529589 31.188477874638064 9.6945367244106446 #
face $-1 $-1 $134 $16 $-1 $281 reversed single #
loop $-1 $-1 $130 $119 #
plane-surface $-1 0 -31.188477874638064 0 0 1 0 0 0 1 forward_v I I I I #
coedge $-1 $282 $283 $127 $212 forward $120 $-1 #
coedge $-1 $213 $122 $124 $208 reversed $70 $-1 #
edge $-1 $210 -4.9270404371154291 $135 -1.9270404371154291 $133 $284 forward 7 unknown #
coedge $-1 $124 $123 $285 $286 reversed $45 $-1 #
coedge $-1 $217 $216 $123 $207 forward $200 $-1 #
edge $-1 $287 -67.959837641529589 $209 67.959837641529589 $206 $288 forward 7 unknown #
edge $-1 $289 -67.959837641529589 $210 67.959837641529589 $203 $290 forward 7 unknown #
vertex $-1 $207 $291 #
vertex $-1 $126 $292 #
straight-curve $-1 67.959837641529589 -12.704397452643455 -8.3540808742308581 0 1 0 I I #
edge $-1 $218 -18.484080421994605 $214 -6.9247144832923055 $202 $293 forward 7 unknown #
coedge $-1 $128 $203 $282 $294 reversed $70 $-1 #
vertex $-1 $212 $295 #
straight-curve $-1 0 -19.629111935935761 -5.3540808742308581 -1 0 0 I I #
coedge $-1 $206 $130 $283 $296 forward $200 $-1 #
coedge $-1 $130 $206 $132 $220 reversed $200 $-1 #
vertex $-1 $296 $297 #
straight-curve $-1 0 -31.188477874638064 -5.3540808742308581 -1 0 0 I I #
edge $-1 $136 5.3540808742308581 $209 8.3540808742308581 $132 $298 forward 7 unknown #
point $-1 67.959837641529589 -19.629111935935761 -5.3540808742308581 #
point $-1 67.959837641529589 -31.18847787463806 -5.3540808742308581 #
face $-1 $-1 $299 $17 $-1 $300 reversed single #
loop $-1 $-1 $146 $138 #
plane-surface $-1 67.959837641529589 0 0 -1 0 0 0 0 1 forward_v I I I I #
coedge $-1 $301 $302 $303 $304 forward $139 $-1 #
coedge $-1 $148 $141 $302 $305 forward $78 $-1 #
coedge $-1 $146 $303 $141 $229 reversed $224 $-1 #
edge $-1 $149 -3.8663352127017525 $306 3.8663352127017561 $228 $307 forward 7 unknown #
coedge $-1 $143 $142 $308 $309 forward $49 $-1 #
edge $-1 $310 -3.8663352127017561 $150 3.8663352127017525 $142 $311 forward 7 unknown #
coedge $-1 $312 $236 $143 $233 forward $299 $-1 #
edge $-1 $234 -3.8663352127017454 $313 3.8663352127017561 $143 $314 forward 7 unknown #
vertex $-1 $233 $315 #
straight-curve $-1 -67.959837641529589 31.188477874638064 0 0 0 1 I I #
coedge $-1 $232 $316 $145 $237 forward $299 $-1 #
edge $-1 $239 -67.959837641529589 $234 67.959837641529589 $236 $317 forward 7 unknown #
coedge $-1 $303 $146 $316 $318 reversed $224 $-1 #
vertex $-1 $147 $319 #
straight-curve $-1 67.959837641529589 31.188477874638064 0 0 0 -1 I I #
point $-1 67.959837641529589 31.188477874638057 -4.9806729036353214 #
point $-1 -67.959837641529589 31.188477874638057 -4.9806729036353214 #
plane-surface $-1 67.959837641529589 0 0 -1 0 0 0 0 1 forward_v I I I I #
coedge $-1 $254 $253 $246 $320 forward $153 $-1 #
coedge $-1 $246 $155 $157 $250 reversed $86 $-1 #
coedge $-1 $155 $245 $244 $320 reversed $86 $-1 #
coedge $-1 $163 $158 $155 $248 forward $164 $-1 #
edge $-1 $251 -92.904844529490163 $321 -89.502972104888684 $247 $322 forward 7 unknown #
coedge $-1 $157 $156 $254 $323 reversed $53 $-1 #
edge $-1 $324 130.9315806139692 $251 135.91967528305918 $245 $325 forward 7 unknown #
vertex $-1 $159 $326 #
straight-curve $-1 67.959837641529589 -2.873291661640808 6.292664299809168 0 1 0 I I #
coedge $-1 $244 $160 $163 $258 forward $153 $-1 #
coedge $-1 $160 $244 $249 $323 forward $153 $-1 #
vertex $-1 $161 $327 #
straight-curve $-1 30.625738886739256 -10.906316427356108 9.6945367244106393 1 0 0 I I #
straight-curve $-1 -31.445518971890692 -10.906316427356108 98.989661045178366 -0.7313536940579346 0 0.68199836817093118 I I #
edge $-1 $165 -10.906316427356108 $321 -0.58685021920712366 $163 $328 forward 7 unknown #
point $-1 67.959837641529589 -10.906316427356108 9.6945367244106446 #
point $-1 67.959837641529589 -10.906316427356108 6.2926642998091609 #
edge $-1 $329 1 $329 0 $168 $-1 forward 7 unknown #
vertex $-1 $169 $330 #
ellipse-curve $-1 65.29584392477885 -5.7465833232816159 7.0928505089284029 0.68199836817093118 0 0.7313536940579346 0.3656768470289673 0 -0.34099918408546559 1 I I #
point $-1 66.501483757283765 -5.7465833232816159 7.6526013280244634 #
plane-surface $-1 67.959837641529589 0 0 -1 0 0 0 0 1 forward_v I I I I #
coedge $-1 $177 $175 $179 $270 reversed $101 $-1 #
edge $-1 $190 -9.6945367244106446 $272 9.6945367244106446 $189 $331 forward 7 unknown #
vertex $-1 $270 $332 #
straight-curve $-1 -67.959837641529589 -31.188477874638064 0 0 0 -1 I I #
edge $-1 $268 -31.188477874638064 $272 31.188477874638064 $266 $333 forward 7 unknown #
straight-curve $-1 0 -31.188477874638064 -9.6945367244106446 -1 0 0 I I #
vertex $-1 $182 $334 #
straight-curve $-1 0 31.188477874638064 -9.6945367244106446 1 0 0 I I #
point $-1 67.959837641529589 31.188477874638064 -9.6945367244106446 #
point $-1 67.959837641529589 -31.188477874638064 -9.6945367244106446 #
straight-curve $-1 -67.959837641529589 0 9.6945367244106446 0 -1 0 I I #
point $-1 -67.959837641529589 31.188477874638064 9.6945367244106446 #
point $-1 -67.959837641529589 -31.188477874638064 9.6945367244106446 #
straight-curve $-1 67.959837641529589 -31.188477874638064 0 0 0 -1 I I #
straight-curve $-1 67.959837641529589 31.188477874638064 0 0 0 -1 I I #
plane-surface $-1 67.959837641529589 0 0 -1 0 0 0 0 1 forward_v I I I I #
coedge $-1 $285 $202 $213 $294 forward $120 $-1 #
coedge $-1 $202 $285 $216 $296 reversed $120 $-1 #
straight-curve $-1 67.959837641529589 -19.629111935935761 -3.4270404371154291 0 0 1 I I #
coedge $-1 $283 $282 $205 $286 forward $120 $-1 #
edge $-1 $289 6.9247144832923055 $287 18.484080421994605 $285 $335 forward 7 unknown #
vertex $-1 $207 $336 #
straight-curve $-1 0 -31.188477874638064 -8.3540808742308581 1 0 0 I I #
vertex $-1 $286 $337 #
straight-curve $-1 0 -19.629111935935761 -8.3540808742308581 1 0 0 I I #
point $-1 67.959837641529589 -31.18847787463806 -8.3540808742308581 #
point $-1 67.959837641529589 -19.629111935935761 -8.3540808742308581 #
straight-curve $-1 -67.959837641529589 -12.704397452643455 -5.3540808742308581 0 1 0 I I #
edge $-1 $214 1.9270404371154291 $289 4.9270404371154291 $282 $338 forward 7 unknown #
point $-1 -67.959837641529589 -19.629111935935761 -5.3540808742308581 #
edge $-1 $218 5.3540808742308581 $287 8.3540808742308581 $283 $339 forward 7 unknown #
point $-1 -67.959837641529589 -31.18847787463806 -5.3540808742308581 #
straight-curve $-1 67.959837641529589 -31.188477874638064 0 0 0 -1 I I #
loop $-1 $-1 $236 $223 #
plane-surface $-1 0 0 -9.6945367244106446 0 0 1 1 0 0 forward_v I I I I #
coedge $-1 $308 $226 $312 $340 reversed $139 $-1 #
coedge $-1 $226 $308 $227 $305 reversed $139 $-1 #
coedge $-1 $228 $238 $226 $304 reversed $224 $-1 #
edge $-1 $306 -2.3569319103876616 $341 2.3569319103876616 $303 $342 forward 7 unknown #
edge $-1 $306 -67.959837641529589 $310 67.959837641529589 $302 $343 forward 7 unknown #
vertex $-1 $229 $344 #
straight-curve $-1 67.959837641529589 35.054813087339809 -4.9806729036353214 0 1 0 I I #
coedge $-1 $302 $301 $230 $309 reversed $139 $-1 #
edge $-1 $310 -2.3569319103876616 $313 2.3569319103876616 $308 $345 forward 7 unknown #
vertex $-1 $305 $346 #
straight-curve $-1 -67.959837641529589 35.054813087339809 -4.9806729036353214 0 -1 0 I I #
coedge $-1 $316 $232 $301 $340 forward $299 $-1 #
vertex $-1 $340 $347 #
straight-curve $-1 -67.959837641529589 35.054813087339809 -9.6945367244106446 0 1 0 I I #
point $-1 -67.959837641529589 31.188477874638064 -9.6945367244106446 #
coedge $-1 $236 $312 $238 $318 forward $299 $-1 #
straight-curve $-1 0 31.188477874638064 -9.6945367244106446 -1 0 0 I I #
edge $-1 $341 -38.921148300041565 $239 -31.188477874638064 $238 $348 forward 7 unknown #
point $-1 67.959837641529589 31.188477874638064 -9.6945367244106446 #
edge $-1 $321 -37.334098754790332 $324 -33.686037292240684 $244 $349 forward 7 unknown #
vertex $-1 $248 $350 #
straight-curve $-1 67.959837641529589 -0.58685021920712366 99.197508829299323 0 0 1 I I #
edge $-1 $324 -2.2864414424336843 $255 8.0330247657153002 $254 $351 forward 7 unknown #
vertex $-1 $323 $352 #
straight-curve $-1 -31.445518971890692 -0.58685021920712366 98.989661045178366 0.7313536940579346 0 -0.68199836817093118 I I #
point $-1 67.959837641529589 -0.58685021920712366 6.2926642998091609 #
point $-1 64.31177617897994 -10.906316427356108 9.6945367244106393 #
straight-curve $-1 67.959837641529589 0 9.6945367244106446 0 1 0 I I #
vertex $-1 $261 $353 #
point $-1 65.661520771807815 -5.7465833232816159 6.7518513248429377 #
straight-curve $-1 -67.959837641529589 31.188477874638064 0 0 0 -1 I I #
point $-1 -67.959837641529589 -31.188477874638064 -9.6945367244106446 #
straight-curve $-1 -67.959837641529589 0 -9.6945367244106446 0 1 0 I I #
point $-1 -67.959837641529589 31.188477874638064 -9.6945367244106446 #
straight-curve $-1 -67.959837641529589 -12.704397452643455 -8.3540808742308581 0 -1 0 I I #
point $-1 -67.959837641529589 -31.18847787463806 -8.3540808742308581 #
point $-1 -67.959837641529589 -19.629111935935761 -8.3540808742308581 #
straight-curve $-1 -67.959837641529589 -19.629111935935761 -3.4270404371154291 0 0 -1 I I #
straight-curve $-1 -67.959837641529589 -31.188477874638064 0 0 0 -1 I I #
edge $-1 $313 -67.959837641529589 $341 67.959837641529589 $301 $354 forward 7 unknown #
vertex $-1 $318 $355 #
straight-curve $-1 67.959837641529589 38.921148300041565 -7.337604814022983 0 0 -1 I I #
straight-curve $-1 0 38.921148300041565 -4.9806729036353214 -1 0 0 I I #
point $-1 67.959837641529589 38.921148300041565 -4.9806729036353214 #
straight-curve $-1 -67.959837641529589 38.921148300041565 -7.337604814022983 0 0 -1 I I #
point $-1 -67.959837641529589 38.921148300041565 -4.9806729036353214 #
point $-1 -67.959837641529589 38.921148300041565 -9.6945367244106446 #
straight-curve $-1 67.959837641529589 0 -9.6945367244106446 0 -1 0 I I #
straight-curve $-1 30.625738886739256 -0.58685021920712366 9.6945367244106393 -1 0 0 I I #
point $-1 67.959837641529589 -0.58685021920712366 9.6945367244106446 #
straight-curve $-1 64.31177617897994 -2.873291661640808 9.6945367244106464 0 -1 0 I I #
point $-1 64.31177617897994 -0.58685021920712366 9.6945367244106393 #
point $-1 64.954844740693389 -5.7465833232816159 6.7271736618994362 #
straight-curve $-1 0 38.921148300041565 -9.6945367244106446 1 0 0 I I #
point $-1 67.959837641529589 38.921148300041565 -9.6945367244106446 #
End-of-ACIS-data 