500 0 6 0           
7 Unknown 11 ACIS 5.0 NT 24 Fri Mar 26 17:07:53 1999 
-1 9.9999999999999995e-007 1e-010 
body $-1 $6 $-1 $7 #
body $-1 $8 $-1 $9 #
body $-1 $10 $-1 $11 #
body $-1 $12 $-1 $13 #
body $-1 $14 $-1 $15 #
body $-1 $16 $-1 $17 #
lump $-1 $-1 $18 $0 #
transform $-1 1 0 0 0 1 0 0 0 1 59.231543931394391 24.188277515365712 12.091481273047236 1 rotate no_reflect no_shear #
lump $-1 $-1 $19 $1 #
transform $-1 1 0 0 0 1 0 0 0 1 59.231543931394391 24.188277515365712 12.091481273047236 1 rotate no_reflect no_shear #
lump $-1 $-1 $20 $2 #
transform $-1 1 0 0 0 1 0 0 0 1 59.231543931394391 24.188277515365712 12.091481273047236 1 rotate no_reflect no_shear #
lump $-1 $-1 $21 $3 #
transform $-1 1 0 0 0 1 0 0 0 1 59.231543931394391 24.188277515365712 12.091481273047236 1 rotate no_reflect no_shear #
lump $-1 $-1 $22 $4 #
transform $-1 1 0 0 0 1 0 0 0 1 59.231543931394391 24.188277515365712 12.091481273047236 1 rotate no_reflect no_shear #
lump $-1 $-1 $23 $5 #
transform $-1 1 0 0 0 1 0 0 0 1 59.231543931394391 24.188277515365712 12.091481273047236 1 rotate no_reflect no_shear #
shell $-1 $-1 $-1 $24 $-1 $6 #
shell $-1 $-1 $-1 $25 $-1 $8 #
shell $-1 $-1 $-1 $26 $-1 $10 #
shell $-1 $-1 $-1 $27 $-1 $12 #
shell $-1 $-1 $-1 $28 $-1 $14 #
shell $-1 $-1 $-1 $29 $-1 $16 #
face $-1 $30 $31 $18 $-1 $32 forward single #
face $-1 $33 $34 $19 $-1 $35 forward single #
face $-1 $36 $37 $20 $-1 $38 reversed single #
face $-1 $39 $40 $21 $-1 $41 forward single #
face $-1 $42 $43 $22 $-1 $44 reversed single #
face $-1 $45 $46 $23 $-1 $47 forward single #
face $-1 $48 $49 $18 $-1 $50 reversed single #
loop $-1 $-1 $51 $24 #
plane-surface $-1 0 0 12.091481273047236 0 0 1 1 0 0 forward_v I I I I #
face $-1 $52 $53 $19 $-1 $54 reversed single #
loop $-1 $-1 $55 $25 #
plane-surface $-1 -52.404980771315678 0 -6.75333890508794 0 0 1 1 0 0 forward_v I I I I #
face $-1 $56 $57 $20 $-1 $58 reversed single #
loop $-1 $-1 $59 $26 #
plane-surface $-1 18.226674443316135 100.81519655668808 107.69296760380078 1 0 0 0 -0.85716730853699208 -0.51503806187062418 forward_v I I I I #
face $-1 $60 $61 $21 $-1 $62 forward single #
loop $-1 $63 $64 $27 #
cone-surface $-1 25.375483414222963 21.651175407472156 8.3695302275602312 0 -0.85716730853699208 -0.51503806187062418 1 0 0 1 I I 0 1 1 forward I I I I #
face $-1 $65 $66 $22 $-1 $67 reversed single #
loop $-1 $-1 $68 $28 #
plane-surface $-1 32.52429238512979 -125.73096369969359 66.226166131817052 -1 0 0 0 -0.85716730853699208 0.51503806187062418 forward_v I I I I #
face $-1 $69 $70 $23 $-1 $71 forward single #
loop $-1 $72 $73 $29 #
cone-surface $-1 25.375483414222963 -21.651175407472159 8.3695302275602348 0 0.85716730853699208 -0.51503806187062418 1 0 0 1 I I 0 1 1 forward I I I I #
face $-1 $74 $75 $18 $-1 $76 reversed single #
loop $-1 $-1 $77 $30 #
plane-surface $-1 0 0 -12.091481273047236 0 0 1 1 0 0 forward_v I I I I #
coedge $-1 $78 $79 $80 $81 forward $31 $-1 #
face $-1 $82 $83 $19 $-1 $84 reversed single #
loop $-1 $-1 $85 $33 #
plane-surface $-1 -52.404980771315678 0 -11.591481273047236 0 0 1 1 0 0 forward_v I I I I #
coedge $-1 $86 $87 $88 $89 forward $34 $-1 #
face $-1 $90 $91 $20 $-1 $92 reversed single #
loop $-1 $-1 $93 $36 #
plane-surface $-1 25.375483414222963 -0.72748962763979819 46.679968427740583 0 0.85716730853699208 0.51503806187062418 1 0 0 forward_v I I I I #
coedge $-1 $94 $95 $96 $97 reversed $37 $-1 #
face $-1 $-1 $98 $21 $-1 $99 forward single #
loop $-1 $100 $101 $39 #
cone-surface $-1 25.375483414222963 20.751943673381177 7.8292173097831181 0 -0.85716730853699208 -0.51503806187062418 0.5 0 0 1 I I -0.70710678118654746 0.70710678118654746 0.5 forward I I I I #
loop $-1 $-1 $102 $27 #
coedge $-1 $64 $64 $103 $104 reversed $40 $-1 #
face $-1 $105 $106 $22 $-1 $107 reversed single #
loop $-1 $-1 $108 $42 #
plane-surface $-1 25.375483414222963 -24.188277515365712 5.2131669557568543 0 -0.85716730853699208 0.51503806187062418 1 0 0 forward_v I I I I #
coedge $-1 $109 $110 $111 $112 reversed $43 $-1 #
face $-1 $-1 $113 $23 $-1 $114 forward single #
loop $-1 $115 $116 $45 #
cone-surface $-1 25.375483414222963 -20.751943673381181 7.8292173097831217 0 0.85716730853699208 -0.51503806187062418 0.5 0 0 1 I I -0.70710678118654746 0.70710678118654746 0.5 forward I I I I #
loop $-1 $-1 $117 $29 #
coedge $-1 $73 $73 $118 $119 reversed $46 $-1 #
face $-1 $120 $121 $18 $-1 $122 reversed single #
loop $-1 $-1 $123 $48 #
plane-surface $-1 0 -24.188277515365712 0 0 1 0 0 0 1 forward_v I I I I #
coedge $-1 $124 $125 $126 $127 forward $49 $-1 #
coedge $-1 $128 $51 $129 $130 forward $31 $-1 #
coedge $-1 $51 $128 $131 $132 forward $31 $-1 #
coedge $-1 $133 $134 $51 $81 reversed $135 $-1 #
edge $-1 $136 -24.188277515365712 $137 24.188277515365712 $80 $138 forward 7 unknown #
face $-1 $139 $140 $19 $-1 $141 reversed single #
loop $-1 $-1 $142 $52 #
plane-surface $-1 -45.578417611236965 0 -9.1724100890675881 -1 0 0 0 0 1 forward_v I I I I #
coedge $-1 $143 $144 $145 $146 forward $53 $-1 #
coedge $-1 $147 $55 $148 $149 reversed $34 $-1 #
coedge $-1 $55 $147 $150 $151 reversed $34 $-1 #
coedge $-1 $142 $152 $55 $89 reversed $83 $-1 #
edge $-1 $153 -24.188277515365712 $154 24.188277515365712 $88 $155 forward 7 unknown #
face $-1 $156 $157 $20 $-1 $158 forward single #
loop $-1 $-1 $159 $56 #
plane-surface $-1 32.52429238512979 100.81519655668808 107.69296760380078 -1 0 0 0 0.85716730853699208 0.51503806187062418 forward_v I I I I #
coedge $-1 $160 $161 $162 $163 reversed $57 $-1 #
coedge $-1 $95 $59 $164 $165 reversed $37 $-1 #
coedge $-1 $59 $94 $160 $166 reversed $37 $-1 #
coedge $-1 $162 $167 $59 $97 forward $157 $-1 #
edge $-1 $168 26.219320762978327 $169 30.352228819120469 $96 $170 forward 7 unknown #
loop $-1 $-1 $103 $60 #
plane-surface $-1 25.375483414222963 -0.72748962763979819 46.679968427740583 0 0.85716730853699208 0.51503806187062418 1 0 0 forward_v I I I I #
loop $-1 $-1 $171 $39 #
coedge $-1 $101 $101 $102 $172 reversed $61 $-1 #
coedge $-1 $102 $102 $101 $172 forward $63 $-1 #
coedge $-1 $103 $103 $64 $104 forward $98 $-1 #
edge $-1 $173 -1.8297827675106652e-015 $173 6.2831853071795987 $103 $174 forward 7 unknown #
face $-1 $175 $176 $22 $-1 $177 reversed single #
loop $-1 $-1 $178 $65 #
plane-surface $-1 18.226674443316135 -125.73096369969359 66.226166131817052 1 0 0 0 0.85716730853699208 -0.51503806187062418 forward_v I I I I #
coedge $-1 $179 $180 $181 $182 reversed $66 $-1 #
coedge $-1 $110 $68 $183 $184 reversed $43 $-1 #
coedge $-1 $68 $109 $179 $185 reversed $43 $-1 #
coedge $-1 $181 $186 $68 $112 forward $187 $-1 #
edge $-1 $188 38.677204334481083 $189 42.810112390623217 $111 $190 forward 7 unknown #
loop $-1 $-1 $118 $69 #
plane-surface $-1 25.375483414222963 -24.188277515365712 5.2131669557568543 0 -0.85716730853699208 0.51503806187062418 1 0 0 forward_v I I I I #
loop $-1 $-1 $191 $45 #
coedge $-1 $116 $116 $117 $192 reversed $70 $-1 #
coedge $-1 $117 $117 $116 $192 forward $72 $-1 #
coedge $-1 $118 $118 $73 $119 forward $113 $-1 #
edge $-1 $193 2.1369305239913397e-015 $193 6.2831853071796022 $118 $194 forward 7 unknown #
face $-1 $195 $196 $18 $-1 $197 reversed single #
loop $-1 $-1 $198 $74 #
plane-surface $-1 -59.231543931394391 0 0 1 0 0 0 0 -1 forward_v I I I I #
coedge $-1 $199 $131 $200 $201 forward $75 $-1 #
coedge $-1 $202 $77 $199 $203 forward $49 $-1 #
coedge $-1 $77 $202 $204 $205 forward $49 $-1 #
coedge $-1 $134 $133 $77 $127 reversed $135 $-1 #
edge $-1 $206 -24.188277515365712 $207 24.188277515365712 $126 $208 forward 7 unknown #
coedge $-1 $79 $78 $209 $210 forward $31 $-1 #
coedge $-1 $211 $212 $78 $130 reversed $196 $-1 #
edge $-1 $137 -59.231543931394391 $213 59.231543931394391 $129 $214 forward 7 unknown #
coedge $-1 $123 $215 $79 $132 reversed $75 $-1 #
edge $-1 $216 -59.231543931394391 $136 59.231543931394391 $131 $217 forward 7 unknown #
coedge $-1 $126 $80 $215 $218 forward $135 $-1 #
coedge $-1 $80 $126 $211 $219 reversed $135 $-1 #
loop $-1 $-1 $133 $195 #
vertex $-1 $81 $220 #
vertex $-1 $81 $221 #
straight-curve $-1 59.231543931394391 0 12.091481273047236 0 1 0 I I #
face $-1 $222 $223 $19 $-1 $224 reversed single #
loop $-1 $-1 $225 $82 #
plane-surface $-1 0 -24.188277515365712 0 0 1 0 0 0 1 forward_v I I I I #
coedge $-1 $145 $88 $226 $227 reversed $83 $-1 #
coedge $-1 $228 $85 $225 $229 reversed $53 $-1 #
coedge $-1 $85 $228 $230 $231 reversed $53 $-1 #
coedge $-1 $152 $142 $85 $146 reversed $83 $-1 #
edge $-1 $232 -24.188277515365712 $233 24.188277515365712 $145 $234 forward 7 unknown #
coedge $-1 $87 $86 $235 $236 reversed $34 $-1 #
coedge $-1 $237 $238 $86 $149 forward $239 $-1 #
edge $-1 $240 -33.029053545736552 $154 -19.375927225579126 $148 $241 forward 7 unknown #
coedge $-1 $242 $226 $87 $151 forward $140 $-1 #
edge $-1 $153 19.375927225579126 $243 33.029053545736552 $150 $244 forward 7 unknown #
coedge $-1 $88 $145 $237 $245 reversed $83 $-1 #
vertex $-1 $151 $246 #
vertex $-1 $149 $247 #
straight-curve $-1 -45.578417611236965 0 -6.75333890508794 0 1 0 I I #
face $-1 $-1 $248 $20 $-1 $249 reversed single #
loop $-1 $-1 $96 $90 #
plane-surface $-1 0 0 12.091481273047236 0 0 1 1 0 0 forward_v I I I I #
coedge $-1 $250 $251 $252 $253 reversed $91 $-1 #
coedge $-1 $254 $93 $95 $166 forward $57 $-1 #
coedge $-1 $93 $254 $250 $255 forward $57 $-1 #
coedge $-1 $252 $96 $93 $163 forward $157 $-1 #
edge $-1 $169 5.5389327362046537 $256 19.836550678018309 $162 $257 forward 7 unknown #
coedge $-1 $258 $259 $94 $165 forward $248 $-1 #
edge $-1 $260 -48.633316846143551 $168 -41.755002528853154 $164 $261 forward 7 unknown #
edge $-1 $169 40.352083904983232 $260 48.376555030731431 $95 $262 forward 7 unknown #
coedge $-1 $96 $252 $258 $263 forward $157 $-1 #
vertex $-1 $165 $264 #
vertex $-1 $97 $265 #
straight-curve $-1 18.226674443316135 50.407598278344039 12.091481273047236 0 -1 0 I I #
coedge $-1 $171 $171 $-1 $266 reversed $100 $-1 #
edge $-1 $267 0 $267 6.2831853071796004 $101 $268 forward 7 unknown #
vertex $-1 $104 $269 #
ellipse-curve $-1 25.375483414222963 22.121823487294641 8.6523241144020346 0 0.85716730853699208 0.51503806187062418 1 0 0 1 I I #
face $-1 $-1 $187 $22 $-1 $270 forward single #
loop $-1 $-1 $271 $105 #
plane-surface $-1 0 -24.188277515365712 0 0 1 0 0 0 1 forward_v I I I I #
coedge $-1 $272 $273 $274 $275 reversed $106 $-1 #
coedge $-1 $276 $108 $110 $185 forward $66 $-1 #
coedge $-1 $108 $276 $272 $277 forward $66 $-1 #
coedge $-1 $274 $111 $108 $182 forward $187 $-1 #
edge $-1 $189 -19.836550678018309 $278 -5.5389327362046537 $181 $279 forward 7 unknown #
coedge $-1 $280 $281 $109 $184 forward $176 $-1 #
edge $-1 $282 -27.899916110151672 $188 -21.02160179286129 $183 $283 forward 7 unknown #
edge $-1 $189 -8.0244711257481924 $282 0 $110 $284 forward 7 unknown #
coedge $-1 $111 $274 $280 $285 forward $187 $-1 #
loop $-1 $-1 $274 $175 #
vertex $-1 $184 $286 #
vertex $-1 $112 $287 #
straight-curve $-1 32.52429238512979 -62.865481849846795 12.091481273047236 0 1 0 I I #
coedge $-1 $191 $191 $-1 $288 reversed $115 $-1 #
edge $-1 $289 0 $289 6.2831853071796004 $116 $290 forward 7 unknown #
vertex $-1 $119 $291 #
ellipse-curve $-1 25.375483414222963 -22.121823487294648 8.65232411440204 0 -0.85716730853699208 0.51503806187062418 1 0 0 1 I I #
face $-1 $-1 $135 $18 $-1 $292 reversed single #
loop $-1 $-1 $211 $120 #
plane-surface $-1 0 24.188277515365712 0 0 -1 0 0 0 -1 forward_v I I I I #
coedge $-1 $293 $209 $212 $294 forward $121 $-1 #
coedge $-1 $215 $123 $124 $203 reversed $75 $-1 #
coedge $-1 $209 $293 $123 $201 reversed $121 $-1 #
edge $-1 $216 -12.091481273047236 $295 12.091481273047236 $200 $296 forward 7 unknown #
coedge $-1 $125 $124 $293 $297 forward $49 $-1 #
edge $-1 $207 -59.231543931394391 $295 59.231543931394391 $199 $298 forward 7 unknown #
coedge $-1 $212 $211 $125 $205 reversed $196 $-1 #
edge $-1 $299 -59.231543931394391 $206 59.231543931394391 $204 $300 forward 7 unknown #
vertex $-1 $127 $301 #
vertex $-1 $218 $302 #
straight-curve $-1 59.231543931394391 0 -12.091481273047236 0 -1 0 I I #
coedge $-1 $198 $200 $128 $210 reversed $121 $-1 #
edge $-1 $213 -24.188277515365712 $216 24.188277515365712 $209 $303 forward 7 unknown #
coedge $-1 $204 $129 $134 $219 forward $196 $-1 #
coedge $-1 $129 $204 $198 $294 reversed $196 $-1 #
vertex $-1 $130 $304 #
straight-curve $-1 0 24.188277515365712 12.091481273047236 -1 0 0 I I #
coedge $-1 $131 $199 $133 $218 reversed $75 $-1 #
vertex $-1 $210 $305 #
straight-curve $-1 0 -24.188277515365712 12.091481273047236 1 0 0 I I #
edge $-1 $136 -12.091481273047236 $207 12.091481273047236 $133 $306 forward 7 unknown #
edge $-1 $137 -12.091481273047236 $206 12.091481273047236 $134 $307 forward 7 unknown #
point $-1 59.231543931394391 -24.188277515365712 12.091481273047236 #
point $-1 59.231543931394391 24.188277515365712 12.091481273047236 #
face $-1 $-1 $239 $19 $-1 $308 reversed single #
loop $-1 $-1 $309 $139 #
plane-surface $-1 -59.231543931394391 0 0 1 0 0 0 0 -1 forward_v I I I I #
coedge $-1 $226 $242 $143 $229 forward $140 $-1 #
coedge $-1 $150 $225 $142 $227 forward $140 $-1 #
edge $-1 $233 -7.0052762285134422 $153 -2.1671338605541459 $226 $310 forward 7 unknown #
coedge $-1 $144 $143 $309 $311 reversed $53 $-1 #
edge $-1 $312 -33.029053545736552 $233 -19.375927225579126 $225 $313 forward 7 unknown #
coedge $-1 $238 $237 $144 $231 forward $239 $-1 #
edge $-1 $232 19.375927225579126 $314 33.029053545736552 $230 $315 forward 7 unknown #
vertex $-1 $231 $316 #
vertex $-1 $229 $317 #
straight-curve $-1 -45.578417611236965 0 -11.591481273047236 0 -1 0 I I #
coedge $-1 $318 $319 $147 $236 forward $223 $-1 #
edge $-1 $243 -24.188277515365712 $240 24.188277515365712 $235 $320 forward 7 unknown #
coedge $-1 $230 $148 $152 $245 forward $239 $-1 #
coedge $-1 $148 $230 $318 $321 reversed $239 $-1 #
loop $-1 $-1 $230 $222 #
vertex $-1 $321 $322 #
straight-curve $-1 -26.202490385657839 24.188277515365712 -6.75333890508794 1 0 0 I I #
coedge $-1 $225 $150 $319 $323 forward $140 $-1 #
vertex $-1 $323 $324 #
straight-curve $-1 -26.202490385657839 -24.188277515365712 -6.75333890508794 -1 0 0 I I #
edge $-1 $154 2.1671338605541459 $232 7.0052762285134422 $237 $325 forward 7 unknown #
point $-1 -45.578417611236965 -24.188277515365712 -6.75333890508794 #
point $-1 -45.578417611236965 24.188277515365712 -6.75333890508794 #
loop $-1 $-1 $164 $156 #
plane-surface $-1 0 24.188277515365712 0 0 -1 0 0 0 -1 forward_v I I I I #
coedge $-1 $251 $159 $161 $255 reversed $91 $-1 #
coedge $-1 $159 $250 $326 $327 reversed $91 $-1 #
coedge $-1 $167 $162 $159 $253 forward $157 $-1 #
edge $-1 $256 -30.352228819120469 $328 -26.219320762978327 $252 $329 forward 7 unknown #
coedge $-1 $161 $160 $259 $330 reversed $57 $-1 #
edge $-1 $331 -48.376555030731431 $256 -40.352083904983232 $250 $332 forward 7 unknown #
vertex $-1 $163 $333 #
straight-curve $-1 12.687741707111481 20.05536945922357 12.091481273047236 1 0 0 I I #
coedge $-1 $326 $164 $167 $263 reversed $248 $-1 #
coedge $-1 $164 $326 $254 $330 forward $248 $-1 #
vertex $-1 $165 $334 #
straight-curve $-1 18.226674443316135 24.188277515365712 53.846483801900391 0 0 1 I I #
straight-curve $-1 18.226674443316135 -0.72748962763979819 46.679968427740583 0 0.51503806187062418 -0.85716730853699208 I I #
edge $-1 $328 -32.52429238512979 $168 -18.226674443316135 $258 $335 forward 7 unknown #
point $-1 18.226674443316135 24.188277515365712 12.091481273047236 #
point $-1 18.226674443316135 20.05536945922357 12.091481273047236 #
edge $-1 $336 1 $336 0 $171 $-1 forward 7 unknown #
vertex $-1 $172 $337 #
ellipse-curve $-1 25.375483414222963 21.180527327649674 8.0867363407184296 0 0.85716730853699208 0.51503806187062418 1 0 0 1 I I #
point $-1 26.375483414222963 22.121823487294638 8.6523241144020346 #
plane-surface $-1 0 0 12.091481273047236 0 0 1 1 0 0 forward_v I I I I #
coedge $-1 $281 $280 $273 $338 forward $176 $-1 #
coedge $-1 $273 $178 $180 $277 reversed $106 $-1 #
coedge $-1 $178 $272 $271 $338 reversed $106 $-1 #
coedge $-1 $186 $181 $178 $275 forward $187 $-1 #
edge $-1 $278 -42.810112390623217 $339 -38.677204334481083 $274 $340 forward 7 unknown #
coedge $-1 $180 $179 $281 $341 reversed $66 $-1 #
edge $-1 $342 0 $278 8.0244711257481924 $272 $343 forward 7 unknown #
vertex $-1 $182 $344 #
straight-curve $-1 12.687741707111481 -20.055369459223574 12.091481273047236 -1 0 0 I I #
coedge $-1 $271 $183 $186 $285 reversed $176 $-1 #
coedge $-1 $183 $271 $276 $341 forward $176 $-1 #
vertex $-1 $184 $345 #
straight-curve $-1 32.52429238512979 -24.188277515365712 33.113083065908526 0 0 1 I I #
straight-curve $-1 32.52429238512979 -24.188277515365712 5.2131669557568543 0 -0.51503806187062418 -0.85716730853699208 I I #
edge $-1 $339 18.226674443316135 $188 32.52429238512979 $280 $346 forward 7 unknown #
point $-1 32.52429238512979 -24.188277515365712 12.091481273047236 #
point $-1 32.52429238512979 -20.055369459223577 12.091481273047236 #
edge $-1 $347 1 $347 0 $191 $-1 forward 7 unknown #
vertex $-1 $192 $348 #
ellipse-curve $-1 25.375483414222963 -21.180527327649678 8.0867363407184332 0 -0.85716730853699208 0.51503806187062418 1 0 0 1 I I #
point $-1 26.375483414222963 -22.121823487294641 8.6523241144020382 #
plane-surface $-1 59.231543931394391 0 0 -1 0 0 0 0 1 forward_v I I I I #
coedge $-1 $200 $198 $202 $297 reversed $121 $-1 #
edge $-1 $213 -12.091481273047236 $299 12.091481273047236 $212 $349 forward 7 unknown #
vertex $-1 $297 $350 #
straight-curve $-1 -59.231543931394391 -24.188277515365712 0 0 0 -1 I I #
edge $-1 $295 -24.188277515365712 $299 24.188277515365712 $293 $351 forward 7 unknown #
straight-curve $-1 0 -24.188277515365712 -12.091481273047236 -1 0 0 I I #
vertex $-1 $205 $352 #
straight-curve $-1 0 24.188277515365712 -12.091481273047236 1 0 0 I I #
point $-1 59.231543931394391 24.188277515365712 -12.091481273047236 #
point $-1 59.231543931394391 -24.188277515365712 -12.091481273047236 #
straight-curve $-1 -59.231543931394391 0 12.091481273047236 0 -1 0 I I #
point $-1 -59.231543931394391 24.188277515365712 12.091481273047236 #
point $-1 -59.231543931394391 -24.188277515365712 12.091481273047236 #
straight-curve $-1 59.231543931394391 -24.188277515365712 0 0 0 -1 I I #
straight-curve $-1 59.231543931394391 24.188277515365712 0 0 0 -1 I I #
plane-surface $-1 0 24.188277515365712 0 0 -1 0 0 0 -1 forward_v I I I I #
coedge $-1 $319 $318 $228 $311 forward $223 $-1 #
straight-curve $-1 -45.578417611236965 -24.188277515365712 -4.5862050445337941 0 0 1 I I #
edge $-1 $314 -24.188277515365712 $312 24.188277515365712 $309 $353 forward 7 unknown #
vertex $-1 $229 $354 #
straight-curve $-1 -26.202490385657839 -24.188277515365712 -11.591481273047236 1 0 0 I I #
vertex $-1 $231 $355 #
straight-curve $-1 -26.202490385657839 24.188277515365712 -11.591481273047236 -1 0 0 I I #
point $-1 -45.578417611236965 24.188277515365712 -11.591481273047236 #
point $-1 -45.578417611236965 -24.188277515365712 -11.591481273047236 #
coedge $-1 $309 $235 $238 $321 forward $223 $-1 #
coedge $-1 $235 $309 $242 $323 reversed $223 $-1 #
straight-curve $-1 -59.231543931394391 0 -6.75333890508794 0 1 0 I I #
edge $-1 $240 6.75333890508794 $314 11.591481273047236 $238 $356 forward 7 unknown #
point $-1 -59.231543931394391 24.188277515365712 -6.75333890508794 #
edge $-1 $243 6.75333890508794 $312 11.591481273047236 $319 $357 forward 7 unknown #
point $-1 -59.231543931394391 -24.188277515365712 -6.75333890508794 #
straight-curve $-1 -45.578417611236965 24.188277515365712 -4.5862050445337941 0 0 -1 I I #
coedge $-1 $259 $258 $251 $327 forward $248 $-1 #
edge $-1 $328 41.755002528853154 $331 48.633316846143551 $326 $358 forward 7 unknown #
vertex $-1 $263 $359 #
straight-curve $-1 32.52429238512979 50.407598278344039 12.091481273047236 0 1 0 I I #
edge $-1 $331 -19.836550678018309 $260 -5.5389327362046537 $259 $360 forward 7 unknown #
vertex $-1 $330 $361 #
straight-curve $-1 32.52429238512979 -0.72748962763979819 46.679968427740583 0 -0.51503806187062418 0.85716730853699208 I I #
point $-1 32.52429238512979 20.05536945922357 12.091481273047236 #
point $-1 18.226674443316135 24.188277515365712 5.2131669557568401 #
straight-curve $-1 0 24.188277515365712 12.091481273047236 -1 0 0 I I #
vertex $-1 $266 $362 #
point $-1 26.375483414222963 21.180527327649674 8.0867363407184296 #
edge $-1 $339 21.02160179286129 $342 27.899916110151672 $271 $363 forward 7 unknown #
vertex $-1 $285 $364 #
straight-curve $-1 18.226674443316135 -62.865481849846795 12.091481273047236 0 -1 0 I I #
edge $-1 $342 5.5389327362046537 $282 19.836550678018309 $281 $365 forward 7 unknown #
vertex $-1 $341 $366 #
straight-curve $-1 18.226674443316135 -24.188277515365712 5.2131669557568543 0 0.51503806187062418 0.85716730853699208 I I #
point $-1 18.226674443316135 -20.055369459223577 12.091481273047236 #
point $-1 32.52429238512979 -24.188277515365712 5.2131669557568543 #
straight-curve $-1 0 -24.188277515365712 12.091481273047236 1 0 0 I I #
vertex $-1 $288 $367 #
point $-1 26.375483414222963 -21.180527327649678 8.0867363407184332 #
straight-curve $-1 -59.231543931394391 24.188277515365712 0 0 0 -1 I I #
point $-1 -59.231543931394391 -24.188277515365712 -12.091481273047236 #
straight-curve $-1 -59.231543931394391 0 -12.091481273047236 0 1 0 I I #
point $-1 -59.231543931394391 24.188277515365712 -12.091481273047236 #
straight-curve $-1 -59.231543931394391 0 -11.591481273047236 0 -1 0 I I #
point $-1 -59.231543931394391 -24.188277515365712 -11.591481273047236 #
point $-1 -59.231543931394391 24.188277515365712 -11.591481273047236 #
straight-curve $-1 -59.231543931394391 24.188277515365712 0 0 0 -1 I I #
straight-curve $-1 -59.231543931394391 -24.188277515365712 0 0 0 -1 I I #
straight-curve $-1 32.52429238512979 24.188277515365712 53.846483801900391 0 0 -1 I I #
point $-1 32.52429238512979 24.188277515365712 12.091481273047236 #
straight-curve $-1 12.687741707111481 24.188277515365712 5.2131669557568401 -1 0 0 I I #
point $-1 32.52429238512979 24.188277515365712 5.2131669557568401 #
point $-1 25.375483414222963 20.32336001911268 7.5716982788478058 #
straight-curve $-1 18.226674443316135 -24.188277515365712 33.113083065908526 0 0 -1 I I #
point $-1 18.226674443316135 -24.188277515365712 12.091481273047236 #
straight-curve $-1 12.687741707111481 -24.188277515365712 5.2131669557568525 1 0 0 I I #
point $-1 18.226674443316135 -24.188277515365712 5.2131669557568543 #
point $-1 25.375483414222963 -20.323360019112684 7.5716982788478093 #
End-of-ACIS-data 