500 0 13 0           
7 Unknown 11 ACIS 5.0 NT 24 Fri Mar 26 18:19:17 1999 
-1 9.9999999999999995e-007 1e-010 
body $-1 $13 $-1 $14 #
body $-1 $15 $-1 $16 #
body $-1 $17 $-1 $18 #
body $-1 $19 $-1 $20 #
body $-1 $21 $-1 $22 #
body $-1 $23 $-1 $24 #
body $-1 $25 $-1 $26 #
body $-1 $27 $-1 $28 #
body $-1 $29 $-1 $30 #
body $-1 $31 $-1 $32 #
body $-1 $33 $-1 $34 #
body $-1 $35 $-1 $36 #
body $-1 $37 $-1 $38 #
lump $-1 $-1 $39 $0 #
transform $-1 1 0 0 0 1 0 0 0 1 74.712973418378255 46.559313700183615 20.691733694412484 1 rotate no_reflect no_shear #
lump $-1 $-1 $40 $1 #
transform $-1 1 0 0 0 1 0 0 0 1 74.712973418378255 46.559313700183615 20.691733694412484 1 rotate no_reflect no_shear #
lump $-1 $-1 $41 $2 #
transform $-1 1 0 0 0 1 0 0 0 1 74.712973418378255 46.559313700183615 20.691733694412484 1 rotate no_reflect no_shear #
lump $-1 $-1 $42 $3 #
transform $-1 1 0 0 0 1 0 0 0 1 74.712973418378255 46.559313700183615 20.691733694412484 1 rotate no_reflect no_shear #
lump $-1 $-1 $43 $4 #
transform $-1 1 0 0 0 1 0 0 0 1 74.712973418378255 46.559313700183615 20.691733694412484 1 rotate no_reflect no_shear #
lump $-1 $-1 $44 $5 #
transform $-1 1 0 0 0 1 0 0 0 1 74.712973418378255 46.559313700183615 20.691733694412484 1 rotate no_reflect no_shear #
lump $-1 $-1 $45 $6 #
transform $-1 1 0 0 0 1 0 0 0 1 74.712973418378255 46.559313700183615 20.691733694412484 1 rotate no_reflect no_shear #
lump $-1 $-1 $46 $7 #
transform $-1 1 0 0 0 1 0 0 0 1 74.712973418378255 46.559313700183615 20.691733694412484 1 rotate no_reflect no_shear #
lump $-1 $-1 $47 $8 #
transform $-1 1 0 0 0 1 0 0 0 1 74.712973418378255 46.559313700183615 20.691733694412484 1 rotate no_reflect no_shear #
lump $-1 $-1 $48 $9 #
transform $-1 1 0 0 0 1 0 0 0 1 74.712973418378255 46.559313700183615 20.691733694412484 1 rotate no_reflect no_shear #
lump $-1 $-1 $49 $10 #
transform $-1 1 0 0 0 1 0 0 0 1 74.712973418378255 46.559313700183615 20.691733694412484 1 rotate no_reflect no_shear #
lump $-1 $-1 $50 $11 #
transform $-1 1 0 0 0 1 0 0 0 1 74.712973418378255 46.559313700183615 20.691733694412484 1 rotate no_reflect no_shear #
lump $-1 $-1 $51 $12 #
transform $-1 1 0 0 0 1 0 0 0 1 74.712973418378255 46.559313700183615 20.691733694412484 1 rotate no_reflect no_shear #
shell $-1 $-1 $-1 $52 $-1 $13 #
shell $-1 $-1 $-1 $53 $-1 $15 #
shell $-1 $-1 $-1 $54 $-1 $17 #
shell $-1 $-1 $-1 $55 $-1 $19 #
shell $-1 $-1 $-1 $56 $-1 $21 #
shell $-1 $-1 $-1 $57 $-1 $23 #
shell $-1 $-1 $-1 $58 $-1 $25 #
shell $-1 $-1 $-1 $59 $-1 $27 #
shell $-1 $-1 $-1 $60 $-1 $29 #
shell $-1 $-1 $-1 $61 $-1 $31 #
shell $-1 $-1 $-1 $62 $-1 $33 #
shell $-1 $-1 $-1 $63 $-1 $35 #
shell $-1 $-1 $-1 $64 $-1 $37 #
face $-1 $65 $66 $39 $-1 $67 forward single #
face $-1 $68 $69 $40 $-1 $70 reversed single #
face $-1 $71 $72 $41 $-1 $73 forward single #
face $-1 $74 $75 $42 $-1 $76 forward single #
face $-1 $77 $78 $43 $-1 $79 forward single #
face $-1 $80 $81 $44 $-1 $82 reversed single #
face $-1 $83 $84 $45 $-1 $85 forward single #
face $-1 $86 $87 $46 $-1 $88 forward single #
face $-1 $89 $90 $47 $-1 $91 forward single #
face $-1 $92 $93 $48 $-1 $94 reversed single #
face $-1 $95 $96 $49 $-1 $97 forward single #
face $-1 $98 $99 $50 $-1 $100 forward single #
face $-1 $101 $102 $51 $-1 $103 forward single #
face $-1 $104 $105 $39 $-1 $106 reversed single #
loop $-1 $-1 $107 $52 #
plane-surface $-1 0 0 20.691733694412484 0 0 1 1 0 0 forward_v I I I I #
face $-1 $108 $109 $40 $-1 $110 reversed single #
loop $-1 $-1 $111 $53 #
plane-surface $-1 3.5527136788005009e-015 -134.38968268275687 134.08714449656253 -1 0 0 0 -0.5877852598018023 0.80901698891910034 forward_v I I I I #
face $-1 $112 $113 $41 $-1 $114 forward single #
loop $-1 $115 $116 $54 #
cone-surface $-1 -22.8242695686465 -38.632608899007217 13.132406156093801 0 0.5877852598018023 -0.80901698891910034 2.5 0 0 1 I I 0 1 2.5 forward I I I I #
face $-1 $117 $118 $42 $-1 $119 forward single #
loop $-1 $120 $121 $55 #
cone-surface $-1 -14.265168480404064 -38.632608899007217 13.132406156093801 0 0.5877852598018023 -0.80901698891910034 2.5 0 0 1 I I 0 1 2.5 forward I I I I #
face $-1 $122 $123 $43 $-1 $124 forward single #
loop $-1 $125 $126 $56 #
cone-surface $-1 -5.7060673921616285 -38.632608899007217 13.132406156093801 0 0.5877852598018023 -0.80901698891910034 2.5 0 0 1 I I 0 1 2.5 forward I I I I #
face $-1 $127 $128 $44 $-1 $129 reversed single #
loop $-1 $-1 $130 $57 #
plane-surface $-1 28.530336960808132 -134.38968268275687 134.08714449656253 -1 0 0 0 -0.5877852598018023 0.80901698891910034 forward_v I I I I #
face $-1 $131 $132 $45 $-1 $133 forward single #
loop $-1 $134 $135 $58 #
cone-surface $-1 5.7060673921616285 -38.632608899007217 13.132406156093801 0 0.5877852598018023 -0.80901698891910034 2.5 0 0 1 I I 0 1 2.5 forward I I I I #
face $-1 $136 $137 $46 $-1 $138 forward single #
loop $-1 $139 $140 $59 #
cone-surface $-1 14.265168480404071 -38.632608899007217 13.132406156093801 0 0.5877852598018023 -0.80901698891910034 2.5 0 0 1 I I 0 1 2.5 forward I I I I #
face $-1 $141 $142 $47 $-1 $143 forward single #
loop $-1 $144 $145 $60 #
cone-surface $-1 22.8242695686465 -38.632608899007217 13.132406156093801 0 0.5877852598018023 -0.80901698891910034 2.5 0 0 1 I I 0 1 2.5 forward I I I I #
face $-1 $146 $147 $48 $-1 $148 reversed single #
loop $-1 $-1 $149 $61 #
plane-surface $-1 22.621260421501084 118.3677646403687 170.52293844167289 1 0 0 0 -0.82903758062907751 -0.55919289150049634 forward_v I I I I #
face $-1 $150 $151 $49 $-1 $152 forward single #
loop $-1 $153 $154 $62 #
cone-surface $-1 27.720448788880589 41.800112998362152 14.50418700538771 0 -0.82903758062907751 -0.55919289150049634 2 0 0 1 I I 0 1 2 forward I I I I #
face $-1 $155 $156 $50 $-1 $157 forward single #
loop $-1 $158 $159 $63 #
cone-surface $-1 35.369231339949849 41.800112998362152 14.50418700538771 0 -0.82903758062907751 -0.55919289150049634 2 0 0 1 I I 0 1 2 forward I I I I #
face $-1 $160 $161 $51 $-1 $162 forward single #
loop $-1 $163 $164 $64 #
cone-surface $-1 43.018013891019109 41.800112998362152 14.50418700538771 0 -0.82903758062907751 -0.55919289150049634 2 0 0 1 I I 0 1 2 forward I I I I #
face $-1 $165 $166 $39 $-1 $167 reversed single #
loop $-1 $-1 $168 $65 #
plane-surface $-1 0 0 -20.691733694412484 0 0 1 1 0 0 forward_v I I I I #
coedge $-1 $169 $170 $171 $172 forward $66 $-1 #
face $-1 $173 $174 $40 $-1 $175 reversed single #
loop $-1 $-1 $176 $68 #
plane-surface $-1 -14.265168480404057 -46.559313700183651 13.199014920304208 0 -0.5877852598018023 0.80901698891910034 1 0 0 forward_v I I I I #
coedge $-1 $177 $178 $179 $180 reversed $69 $-1 #
face $-1 $-1 $181 $41 $-1 $182 forward single #
loop $-1 $183 $184 $71 #
cone-surface $-1 -22.8242695686465 -35.127593750356937 8.3081667686803868 0 0.5877852598018023 -0.80901698891910034 1.25 0 0 1 I I -0.70710678118654746 0.70710678118654746 1.25 forward I I I I #
loop $-1 $-1 $185 $54 #
coedge $-1 $116 $116 $186 $187 reversed $72 $-1 #
face $-1 $-1 $188 $42 $-1 $189 forward single #
loop $-1 $190 $191 $74 #
cone-surface $-1 -14.265168480404064 -35.127593750356937 8.3081667686803868 0 0.5877852598018023 -0.80901698891910034 1.25 0 0 1 I I -0.70710678118654746 0.70710678118654746 1.25 forward I I I I #
loop $-1 $-1 $192 $55 #
coedge $-1 $121 $121 $193 $194 reversed $75 $-1 #
face $-1 $-1 $195 $43 $-1 $196 forward single #
loop $-1 $197 $198 $77 #
cone-surface $-1 -5.7060673921616285 -35.127593750356937 8.3081667686803868 0 0.5877852598018023 -0.80901698891910034 1.25 0 0 1 I I -0.70710678118654746 0.70710678118654746 1.25 forward I I I I #
loop $-1 $-1 $199 $56 #
coedge $-1 $126 $126 $200 $201 reversed $78 $-1 #
face $-1 $202 $203 $44 $-1 $204 reversed single #
loop $-1 $-1 $205 $80 #
plane-surface $-1 -14.265168480404057 -46.559313700183651 13.199014920304208 0 -0.5877852598018023 0.80901698891910034 1 0 0 forward_v I I I I #
coedge $-1 $206 $207 $208 $209 reversed $81 $-1 #
face $-1 $-1 $210 $45 $-1 $211 forward single #
loop $-1 $212 $213 $83 #
cone-surface $-1 5.7060673921616285 -35.127593750356937 8.3081667686803868 0 0.5877852598018023 -0.80901698891910034 1.25 0 0 1 I I -0.70710678118654746 0.70710678118654746 1.25 forward I I I I #
loop $-1 $-1 $214 $58 #
coedge $-1 $135 $135 $215 $216 reversed $84 $-1 #
face $-1 $-1 $217 $46 $-1 $218 forward single #
loop $-1 $219 $220 $86 #
cone-surface $-1 14.265168480404071 -35.127593750356937 8.3081667686803868 0 0.5877852598018023 -0.80901698891910034 1.25 0 0 1 I I -0.70710678118654746 0.70710678118654746 1.25 forward I I I I #
loop $-1 $-1 $221 $59 #
coedge $-1 $140 $140 $222 $223 reversed $87 $-1 #
face $-1 $-1 $224 $47 $-1 $225 forward single #
loop $-1 $226 $227 $89 #
cone-surface $-1 22.8242695686465 -35.127593750356937 8.3081667686803868 0 0.5877852598018023 -0.80901698891910034 1.25 0 0 1 I I -0.70710678118654746 0.70710678118654746 1.25 forward I I I I #
loop $-1 $-1 $228 $60 #
coedge $-1 $145 $145 $229 $230 reversed $90 $-1 #
face $-1 $231 $232 $48 $-1 $233 reversed single #
loop $-1 $-1 $234 $92 #
plane-surface $-1 35.369231339949863 -5.5119608083850693 86.965011164827573 0 0.82903758062907751 0.55919289150049634 1 0 0 forward_v I I I I #
coedge $-1 $235 $236 $237 $238 reversed $93 $-1 #
face $-1 $-1 $239 $49 $-1 $240 forward single #
loop $-1 $241 $242 $95 #
cone-surface $-1 27.720448788880589 39.896567619895727 13.220229475405368 0 -0.82903758062907751 -0.55919289150049634 1 0 0 1 I I -0.70710678118654746 0.70710678118654746 1 forward I I I I #
loop $-1 $-1 $243 $62 #
coedge $-1 $154 $154 $244 $245 reversed $96 $-1 #
face $-1 $-1 $246 $50 $-1 $247 forward single #
loop $-1 $248 $249 $98 #
cone-surface $-1 35.369231339949849 39.896567619895727 13.220229475405368 0 -0.82903758062907751 -0.55919289150049634 1 0 0 1 I I -0.70710678118654746 0.70710678118654746 1 forward I I I I #
loop $-1 $-1 $250 $63 #
coedge $-1 $159 $159 $251 $252 reversed $99 $-1 #
face $-1 $-1 $253 $51 $-1 $254 forward single #
loop $-1 $255 $256 $101 #
cone-surface $-1 43.018013891019109 39.896567619895727 13.220229475405368 0 -0.82903758062907751 -0.55919289150049634 1 0 0 1 I I -0.70710678118654746 0.70710678118654746 1 forward I I I I #
loop $-1 $-1 $257 $64 #
coedge $-1 $164 $164 $258 $259 reversed $102 $-1 #
face $-1 $260 $261 $39 $-1 $262 reversed single #
loop $-1 $-1 $263 $104 #
plane-surface $-1 0 -46.559313700183615 0 0 1 0 0 0 1 forward_v I I I I #
coedge $-1 $264 $265 $266 $267 forward $105 $-1 #
coedge $-1 $268 $107 $269 $270 forward $66 $-1 #
coedge $-1 $107 $268 $271 $272 forward $66 $-1 #
coedge $-1 $273 $274 $107 $172 reversed $275 $-1 #
edge $-1 $276 -46.559313700183615 $277 46.559313700183615 $171 $278 forward 7 unknown #
face $-1 $279 $280 $40 $-1 $281 reversed single #
loop $-1 $-1 $282 $108 #
plane-surface $-1 -28.530336960808118 -134.38968268275687 134.08714449656253 1 0 0 0 0.5877852598018023 -0.80901698891910034 forward_v I I I I #
coedge $-1 $283 $284 $285 $286 reversed $109 $-1 #
coedge $-1 $178 $111 $287 $288 reversed $69 $-1 #
coedge $-1 $111 $177 $283 $289 reversed $69 $-1 #
coedge $-1 $285 $290 $111 $180 forward $291 $-1 #
edge $-1 $292 20.63552764119482 $293 30.948370095751528 $179 $294 forward 7 unknown #
loop $-1 $-1 $186 $112 #
plane-surface $-1 -14.265168480404057 -46.559313700183651 13.199014920304208 0 -0.5877852598018023 0.80901698891910034 1 0 0 forward_v I I I I #
loop $-1 $-1 $295 $71 #
coedge $-1 $184 $184 $185 $296 reversed $113 $-1 #
coedge $-1 $185 $185 $184 $296 forward $115 $-1 #
coedge $-1 $186 $186 $116 $187 forward $181 $-1 #
edge $-1 $297 -4.1302940180459667e-016 $297 6.2831853071796004 $186 $298 forward 7 unknown #
loop $-1 $-1 $193 $117 #
plane-surface $-1 -14.265168480404057 -46.559313700183651 13.199014920304208 0 -0.5877852598018023 0.80901698891910034 1 0 0 forward_v I I I I #
loop $-1 $-1 $299 $74 #
coedge $-1 $191 $191 $192 $300 reversed $118 $-1 #
coedge $-1 $192 $192 $191 $300 forward $120 $-1 #
coedge $-1 $193 $193 $121 $194 forward $188 $-1 #
edge $-1 $301 -4.1302940180459667e-016 $301 6.2831853071796004 $193 $302 forward 7 unknown #
loop $-1 $-1 $200 $122 #
plane-surface $-1 -14.265168480404057 -46.559313700183651 13.199014920304208 0 -0.5877852598018023 0.80901698891910034 1 0 0 forward_v I I I I #
loop $-1 $-1 $303 $77 #
coedge $-1 $198 $198 $199 $304 reversed $123 $-1 #
coedge $-1 $199 $199 $198 $304 forward $125 $-1 #
coedge $-1 $200 $200 $126 $201 forward $195 $-1 #
edge $-1 $305 -4.1302940180459667e-016 $305 6.2831853071796004 $200 $306 forward 7 unknown #
face $-1 $307 $308 $44 $-1 $309 forward single #
loop $-1 $-1 $310 $127 #
plane-surface $-1 0 -46.559313700183615 0 0 1 0 0 0 1 forward_v I I I I #
coedge $-1 $311 $312 $313 $314 reversed $128 $-1 #
coedge $-1 $207 $130 $315 $316 reversed $81 $-1 #
coedge $-1 $130 $206 $317 $318 reversed $81 $-1 #
coedge $-1 $319 $310 $130 $209 forward $203 $-1 #
edge $-1 $320 -53.844557327977029 $321 -46.351838553868781 $208 $322 forward 7 unknown #
loop $-1 $-1 $215 $131 #
plane-surface $-1 -14.265168480404057 -46.559313700183651 13.199014920304208 0 -0.5877852598018023 0.80901698891910034 1 0 0 forward_v I I I I #
loop $-1 $-1 $323 $83 #
coedge $-1 $213 $213 $214 $324 reversed $132 $-1 #
coedge $-1 $214 $214 $213 $324 forward $134 $-1 #
coedge $-1 $215 $215 $135 $216 forward $210 $-1 #
edge $-1 $325 -4.1302940180459667e-016 $325 6.2831853071796004 $215 $326 forward 7 unknown #
loop $-1 $-1 $222 $136 #
plane-surface $-1 -14.265168480404057 -46.559313700183651 13.199014920304208 0 -0.5877852598018023 0.80901698891910034 1 0 0 forward_v I I I I #
loop $-1 $-1 $327 $86 #
coedge $-1 $220 $220 $221 $328 reversed $137 $-1 #
coedge $-1 $221 $221 $220 $328 forward $139 $-1 #
coedge $-1 $222 $222 $140 $223 forward $217 $-1 #
edge $-1 $329 -4.1302940180459667e-016 $329 6.2831853071796004 $222 $330 forward 7 unknown #
loop $-1 $-1 $229 $141 #
plane-surface $-1 -14.265168480404057 -46.559313700183651 13.199014920304208 0 -0.5877852598018023 0.80901698891910034 1 0 0 forward_v I I I I #
loop $-1 $-1 $331 $89 #
coedge $-1 $227 $227 $228 $332 reversed $142 $-1 #
coedge $-1 $228 $228 $227 $332 forward $144 $-1 #
coedge $-1 $229 $229 $145 $230 forward $224 $-1 #
edge $-1 $333 -4.1302940180459667e-016 $333 6.2831853071796004 $229 $334 forward 7 unknown #
face $-1 $335 $336 $48 $-1 $337 reversed single #
loop $-1 $-1 $338 $146 #
plane-surface $-1 48.117202258398642 118.3677646403687 170.52293844167289 -1 0 0 0 0.82903758062907751 0.55919289150049634 forward_v I I I I #
coedge $-1 $339 $340 $341 $342 reversed $147 $-1 #
coedge $-1 $236 $149 $343 $344 reversed $93 $-1 #
coedge $-1 $149 $235 $339 $345 reversed $93 $-1 #
coedge $-1 $341 $346 $149 $238 forward $347 $-1 #
edge $-1 $348 12.624568620000737 $349 19.993954427968951 $237 $350 forward 7 unknown #
loop $-1 $-1 $244 $150 #
plane-surface $-1 35.369231339949863 -5.5119608083850693 86.965011164827573 0 0.82903758062907751 0.55919289150049634 1 0 0 forward_v I I I I #
loop $-1 $-1 $351 $95 #
coedge $-1 $242 $242 $243 $352 reversed $151 $-1 #
coedge $-1 $243 $243 $242 $352 forward $153 $-1 #
coedge $-1 $244 $244 $154 $245 forward $239 $-1 #
edge $-1 $353 -1.0279713165030387e-015 $353 6.2831853071795996 $244 $354 forward 7 unknown #
loop $-1 $-1 $251 $155 #
plane-surface $-1 35.369231339949863 -5.5119608083850693 86.965011164827573 0 0.82903758062907751 0.55919289150049634 1 0 0 forward_v I I I I #
loop $-1 $-1 $355 $98 #
coedge $-1 $249 $249 $250 $356 reversed $156 $-1 #
coedge $-1 $250 $250 $249 $356 forward $158 $-1 #
coedge $-1 $251 $251 $159 $252 forward $246 $-1 #
edge $-1 $357 -1.0279713165030387e-015 $357 6.2831853071795996 $251 $358 forward 7 unknown #
loop $-1 $-1 $258 $160 #
plane-surface $-1 35.369231339949863 -5.5119608083850693 86.965011164827573 0 0.82903758062907751 0.55919289150049634 1 0 0 forward_v I I I I #
loop $-1 $-1 $359 $101 #
coedge $-1 $256 $256 $257 $360 reversed $161 $-1 #
coedge $-1 $257 $257 $256 $360 forward $163 $-1 #
coedge $-1 $258 $258 $164 $259 forward $253 $-1 #
edge $-1 $361 -1.0279713165030387e-015 $361 6.2831853071795996 $258 $362 forward 7 unknown #
face $-1 $363 $364 $39 $-1 $365 reversed single #
loop $-1 $-1 $366 $165 #
plane-surface $-1 -74.712973418378255 0 0 1 0 0 0 0 -1 forward_v I I I I #
coedge $-1 $367 $271 $368 $369 forward $166 $-1 #
coedge $-1 $370 $168 $367 $371 forward $105 $-1 #
coedge $-1 $168 $370 $372 $373 forward $105 $-1 #
coedge $-1 $274 $273 $168 $267 reversed $275 $-1 #
edge $-1 $374 -46.559313700183615 $375 46.559313700183615 $266 $376 forward 7 unknown #
coedge $-1 $170 $169 $377 $378 forward $66 $-1 #
coedge $-1 $379 $380 $169 $270 reversed $364 $-1 #
edge $-1 $277 -74.712973418378255 $381 74.712973418378255 $269 $382 forward 7 unknown #
coedge $-1 $263 $383 $170 $272 reversed $166 $-1 #
edge $-1 $384 -74.712973418378255 $276 74.712973418378255 $271 $385 forward 7 unknown #
coedge $-1 $266 $171 $383 $386 forward $275 $-1 #
coedge $-1 $171 $266 $379 $387 reversed $275 $-1 #
loop $-1 $-1 $273 $363 #
vertex $-1 $172 $388 #
vertex $-1 $172 $389 #
straight-curve $-1 74.712973418378255 0 20.691733694412484 0 1 0 I I #
face $-1 $-1 $291 $40 $-1 $390 forward single #
loop $-1 $-1 $391 $173 #
plane-surface $-1 0 -46.559313700183615 0 0 1 0 0 0 1 forward_v I I I I #
coedge $-1 $392 $393 $394 $395 reversed $174 $-1 #
coedge $-1 $396 $176 $178 $289 forward $109 $-1 #
coedge $-1 $176 $396 $392 $397 forward $109 $-1 #
coedge $-1 $394 $179 $176 $286 forward $291 $-1 #
edge $-1 $293 -7.1325842402020321 $398 21.397752720606089 $285 $399 forward 7 unknown #
coedge $-1 $400 $401 $177 $288 forward $280 $-1 #
edge $-1 $402 -53.844557327977029 $292 -46.351838553868781 $287 $403 forward 7 unknown #
edge $-1 $293 -12.747374401043636 $402 -4.440380272436258e-014 $178 $404 forward 7 unknown #
coedge $-1 $179 $394 $400 $405 forward $291 $-1 #
loop $-1 $-1 $394 $279 #
vertex $-1 $288 $406 #
vertex $-1 $180 $407 #
straight-curve $-1 3.5527136788005009e-015 -67.194841341378435 20.691733694412484 0 1 0 I I #
coedge $-1 $295 $295 $-1 $408 reversed $183 $-1 #
edge $-1 $409 0 $409 6.2831853071796004 $184 $410 forward 7 unknown #
vertex $-1 $187 $411 #
ellipse-curve $-1 -22.8242695686465 -41.402892472905258 16.94537430735836 0 -0.5877852598018023 0.80901698891910034 2.5 0 0 1 I I #
coedge $-1 $299 $299 $-1 $412 reversed $190 $-1 #
edge $-1 $413 0 $413 6.2831853071796004 $191 $414 forward 7 unknown #
vertex $-1 $194 $415 #
ellipse-curve $-1 -14.265168480404064 -41.402892472905258 16.94537430735836 0 -0.5877852598018023 0.80901698891910034 2.5 0 0 1 I I #
coedge $-1 $303 $303 $-1 $416 reversed $197 $-1 #
edge $-1 $417 0 $417 6.2831853071796004 $198 $418 forward 7 unknown #
vertex $-1 $201 $419 #
ellipse-curve $-1 -5.7060673921616285 -41.402892472905258 16.94537430735836 0 -0.5877852598018023 0.80901698891910034 2.5 0 0 1 I I #
face $-1 $-1 $420 $44 $-1 $421 forward single #
loop $-1 $-1 $422 $202 #
plane-surface $-1 3.5527136788005009e-015 -134.38968268275687 134.08714449656253 -1 0 0 0 -0.5877852598018023 0.80901698891910034 forward_v I I I I #
coedge $-1 $208 $423 $312 $424 forward $203 $-1 #
coedge $-1 $315 $205 $425 $426 reversed $128 $-1 #
coedge $-1 $205 $315 $310 $424 reversed $128 $-1 #
coedge $-1 $427 $422 $205 $314 forward $308 $-1 #
edge $-1 $428 -12.747374401043636 $429 -4.440380272436258e-014 $313 $430 forward 7 unknown #
coedge $-1 $312 $311 $206 $316 forward $128 $-1 #
edge $-1 $431 -12.747374401043636 $320 -4.440380272436258e-014 $206 $432 forward 7 unknown #
coedge $-1 $425 $433 $207 $318 forward $420 $-1 #
edge $-1 $321 20.63552764119482 $431 30.948370095751528 $317 $434 forward 7 unknown #
coedge $-1 $423 $208 $433 $435 reversed $203 $-1 #
vertex $-1 $209 $436 #
vertex $-1 $209 $437 #
straight-curve $-1 28.530336960808132 -46.559313700183615 67.043572248281265 0 0 1 I I #
coedge $-1 $323 $323 $-1 $438 reversed $212 $-1 #
edge $-1 $439 0 $439 6.2831853071796004 $213 $440 forward 7 unknown #
vertex $-1 $216 $441 #
ellipse-curve $-1 5.7060673921616285 -41.402892472905258 16.94537430735836 0 -0.5877852598018023 0.80901698891910034 2.5 0 0 1 I I #
coedge $-1 $327 $327 $-1 $442 reversed $219 $-1 #
edge $-1 $443 0 $443 6.2831853071796004 $220 $444 forward 7 unknown #
vertex $-1 $223 $445 #
ellipse-curve $-1 14.265168480404071 -41.402892472905258 16.94537430735836 0 -0.5877852598018023 0.80901698891910034 2.5 0 0 1 I I #
coedge $-1 $331 $331 $-1 $446 reversed $226 $-1 #
edge $-1 $447 0 $447 6.2831853071796004 $227 $448 forward 7 unknown #
vertex $-1 $230 $449 #
ellipse-curve $-1 22.8242695686465 -41.402892472905258 16.94537430735836 0 -0.5877852598018023 0.80901698891910034 2.5 0 0 1 I I #
face $-1 $-1 $347 $48 $-1 $450 forward single #
loop $-1 $-1 $451 $231 #
plane-surface $-1 0 46.559313700183615 0 0 -1 0 0 0 -1 forward_v I I I I #
coedge $-1 $452 $453 $454 $455 reversed $232 $-1 #
coedge $-1 $456 $234 $236 $345 forward $147 $-1 #
coedge $-1 $234 $456 $452 $457 forward $147 $-1 #
coedge $-1 $454 $237 $234 $342 forward $347 $-1 #
edge $-1 $349 4.9366447515261527 $458 30.43258658842371 $341 $459 forward 7 unknown #
coedge $-1 $460 $461 $235 $344 forward $336 $-1 #
edge $-1 $462 -75.495299627509823 $348 -64.569735526423955 $343 $463 forward 7 unknown #
edge $-1 $349 79.940016012454606 $462 93.118627400367203 $236 $464 forward 7 unknown #
coedge $-1 $237 $454 $460 $465 forward $347 $-1 #
loop $-1 $-1 $454 $335 #
vertex $-1 $344 $466 #
vertex $-1 $238 $467 #
straight-curve $-1 22.621260421501084 59.183882320184352 20.691733694412477 0 -1 0 I I #
coedge $-1 $351 $351 $-1 $468 reversed $241 $-1 #
edge $-1 $469 0 $469 6.2831853071796004 $242 $470 forward 7 unknown #
vertex $-1 $245 $471 #
ellipse-curve $-1 27.720448788880589 42.874620796199508 15.228951643869561 0 0.82903758062907751 0.55919289150049634 2 0 0 1 I I #
coedge $-1 $355 $355 $-1 $472 reversed $248 $-1 #
edge $-1 $473 0 $473 6.2831853071796004 $249 $474 forward 7 unknown #
vertex $-1 $252 $475 #
ellipse-curve $-1 35.369231339949849 42.874620796199508 15.228951643869561 0 0.82903758062907751 0.55919289150049634 2 0 0 1 I I #
coedge $-1 $359 $359 $-1 $476 reversed $255 $-1 #
edge $-1 $477 0 $477 6.2831853071796004 $256 $478 forward 7 unknown #
vertex $-1 $259 $479 #
ellipse-curve $-1 43.018013891019109 42.874620796199508 15.228951643869561 0 0.82903758062907751 0.55919289150049634 2 0 0 1 I I #
face $-1 $-1 $275 $39 $-1 $480 reversed single #
loop $-1 $-1 $379 $260 #
plane-surface $-1 0 46.559313700183615 0 0 -1 0 0 0 -1 forward_v I I I I #
coedge $-1 $481 $377 $380 $482 forward $261 $-1 #
coedge $-1 $383 $263 $264 $371 reversed $166 $-1 #
coedge $-1 $377 $481 $263 $369 reversed $261 $-1 #
edge $-1 $384 -20.691733694412484 $483 20.691733694412484 $368 $484 forward 7 unknown #
coedge $-1 $265 $264 $481 $485 forward $105 $-1 #
edge $-1 $375 -74.712973418378255 $483 74.712973418378255 $367 $486 forward 7 unknown #
coedge $-1 $380 $379 $265 $373 reversed $364 $-1 #
edge $-1 $487 -74.712973418378255 $374 74.712973418378255 $372 $488 forward 7 unknown #
vertex $-1 $267 $489 #
vertex $-1 $386 $490 #
straight-curve $-1 74.712973418378255 0 -20.691733694412484 0 -1 0 I I #
coedge $-1 $366 $368 $268 $378 reversed $261 $-1 #
edge $-1 $381 -46.559313700183615 $384 46.559313700183615 $377 $491 forward 7 unknown #
coedge $-1 $372 $269 $274 $387 forward $364 $-1 #
coedge $-1 $269 $372 $366 $482 reversed $364 $-1 #
vertex $-1 $270 $492 #
straight-curve $-1 0 46.559313700183615 20.691733694412484 -1 0 0 I I #
coedge $-1 $271 $367 $273 $386 reversed $166 $-1 #
vertex $-1 $378 $493 #
straight-curve $-1 0 -46.559313700183615 20.691733694412484 1 0 0 I I #
edge $-1 $276 -20.691733694412484 $375 20.691733694412484 $273 $494 forward 7 unknown #
edge $-1 $277 -20.691733694412484 $374 20.691733694412484 $274 $495 forward 7 unknown #
point $-1 74.712973418378255 -46.559313700183615 20.691733694412484 #
point $-1 74.712973418378255 46.559313700183615 20.691733694412484 #
plane-surface $-1 0 0 20.691733694412484 0 0 1 1 0 0 forward_v I I I I #
coedge $-1 $401 $400 $393 $496 forward $280 $-1 #
coedge $-1 $393 $282 $284 $397 reversed $174 $-1 #
coedge $-1 $282 $392 $391 $496 reversed $174 $-1 #
coedge $-1 $290 $285 $282 $395 forward $291 $-1 #
edge $-1 $398 -30.948370095751528 $497 -20.63552764119482 $394 $498 forward 7 unknown #
coedge $-1 $284 $283 $401 $499 reversed $109 $-1 #
edge $-1 $500 4.440380272436258e-014 $398 12.747374401043636 $392 $501 forward 7 unknown #
vertex $-1 $286 $502 #
straight-curve $-1 -7.1325842402020285 -36.246471245626914 20.691733694412484 -1 0 0 I I #
coedge $-1 $391 $287 $290 $405 reversed $280 $-1 #
coedge $-1 $287 $391 $396 $499 forward $280 $-1 #
vertex $-1 $288 $503 #
straight-curve $-1 3.5527136788005009e-015 -46.559313700183615 67.043572248281265 0 0 1 I I #
straight-curve $-1 3.5527136788005009e-015 -46.559313700183651 13.199014920304208 0 -0.80901698891910034 -0.5877852598018023 I I #
edge $-1 $497 -28.530336960808118 $292 3.5527136788005009e-015 $400 $504 forward 7 unknown #
point $-1 3.5527136788005009e-015 -46.559313700183615 20.691733694412484 #
point $-1 3.5527136788005009e-015 -36.246471245626907 20.691733694412484 #
edge $-1 $505 1 $505 0 $295 $-1 forward 7 unknown #
vertex $-1 $296 $506 #
ellipse-curve $-1 -22.8242695686465 -35.86232532510919 9.3194380048292622 0 -0.5877852598018023 0.80901698891910034 2.5 0 0 1 I I #
point $-1 -20.3242695686465 -41.402892472905243 16.945374307358339 #
edge $-1 $507 1 $507 0 $299 $-1 forward 7 unknown #
vertex $-1 $300 $508 #
ellipse-curve $-1 -14.265168480404064 -35.86232532510919 9.3194380048292622 0 -0.5877852598018023 0.80901698891910034 2.5 0 0 1 I I #
point $-1 -11.765168480404064 -41.402892472905243 16.945374307358339 #
edge $-1 $509 1 $509 0 $303 $-1 forward 7 unknown #
vertex $-1 $304 $510 #
ellipse-curve $-1 -5.7060673921616285 -35.86232532510919 9.3194380048292622 0 -0.5877852598018023 0.80901698891910034 2.5 0 0 1 I I #
point $-1 -3.2060673921616285 -41.402892472905243 16.945374307358339 #
loop $-1 $-1 $425 $307 #
plane-surface $-1 0 0 20.691733694412484 0 0 1 1 0 0 forward_v I I I I #
coedge $-1 $313 $427 $511 $512 reversed $308 $-1 #
coedge $-1 $310 $319 $427 $513 forward $203 $-1 #
edge $-1 $429 7.1325842402020321 $320 35.662921201010164 $310 $514 forward 7 unknown #
coedge $-1 $511 $317 $311 $426 forward $420 $-1 #
edge $-1 $431 -35.662921201010164 $428 -7.1325842402020321 $425 $515 forward 7 unknown #
coedge $-1 $422 $313 $423 $513 reversed $308 $-1 #
vertex $-1 $426 $516 #
vertex $-1 $424 $517 #
straight-curve $-1 3.5527136788005009e-015 -46.559313700183651 13.199014920304208 0 -0.80901698891910034 -0.5877852598018023 I I #
vertex $-1 $318 $518 #
straight-curve $-1 28.530336960808132 -46.559313700183651 13.199014920304208 0 -0.80901698891910034 -0.5877852598018023 I I #
coedge $-1 $317 $511 $319 $435 forward $420 $-1 #
straight-curve $-1 28.530336960808132 -67.194841341378435 20.691733694412484 0 1 0 I I #
edge $-1 $519 3.5527136788005009e-015 $321 28.530336960808132 $319 $520 forward 7 unknown #
point $-1 28.530336960808132 -46.559313700183615 13.199014920304235 #
point $-1 28.530336960808132 -46.559313700183615 20.691733694412484 #
edge $-1 $521 1 $521 0 $323 $-1 forward 7 unknown #
vertex $-1 $324 $522 #
ellipse-curve $-1 5.7060673921616285 -35.86232532510919 9.3194380048292622 0 -0.5877852598018023 0.80901698891910034 2.5 0 0 1 I I #
point $-1 8.2060673921616285 -41.402892472905243 16.945374307358339 #
edge $-1 $523 1 $523 0 $327 $-1 forward 7 unknown #
vertex $-1 $328 $524 #
ellipse-curve $-1 14.265168480404071 -35.86232532510919 9.3194380048292622 0 -0.5877852598018023 0.80901698891910034 2.5 0 0 1 I I #
point $-1 16.765168480404071 -41.402892472905243 16.945374307358339 #
edge $-1 $525 1 $525 0 $331 $-1 forward 7 unknown #
vertex $-1 $332 $526 #
ellipse-curve $-1 22.8242695686465 -35.86232532510919 9.3194380048292622 0 -0.5877852598018023 0.80901698891910034 2.5 0 0 1 I I #
point $-1 25.3242695686465 -41.402892472905243 16.945374307358339 #
plane-surface $-1 0 0 20.691733694412484 0 0 1 1 0 0 forward_v I I I I #
coedge $-1 $461 $460 $453 $527 forward $336 $-1 #
coedge $-1 $453 $338 $340 $457 reversed $232 $-1 #
coedge $-1 $338 $452 $451 $527 reversed $232 $-1 #
coedge $-1 $346 $341 $338 $455 forward $347 $-1 #
edge $-1 $458 -19.993954427968951 $528 -12.624568620000737 $454 $529 forward 7 unknown #
coedge $-1 $340 $339 $461 $530 reversed $147 $-1 #
edge $-1 $531 -93.118627400367203 $458 -79.940016012454606 $452 $532 forward 7 unknown #
vertex $-1 $342 $533 #
straight-curve $-1 17.684615669974932 39.189927892215408 20.691733694412484 1 0 0 I I #
coedge $-1 $451 $343 $346 $465 reversed $336 $-1 #
coedge $-1 $343 $451 $456 $530 forward $336 $-1 #
vertex $-1 $344 $534 #
straight-curve $-1 22.621260421501084 46.559313700183615 85.261469220836446 0 0 1 I I #
straight-curve $-1 22.621260421501084 -5.5119608083850693 86.965011164827573 0 0.55919289150049634 -0.82903758062907751 I I #
edge $-1 $528 -48.117202258398642 $348 -22.621260421501084 $460 $535 forward 7 unknown #
point $-1 22.621260421501084 46.559313700183615 20.691733694412484 #
point $-1 22.621260421501084 39.189927892215401 20.691733694412491 #
edge $-1 $536 1 $536 0 $351 $-1 forward 7 unknown #
vertex $-1 $352 $537 #
ellipse-curve $-1 27.720448788880589 40.725605200524804 13.779422366905864 0 0.82903758062907751 0.55919289150049634 2 0 0 1 I I #
point $-1 29.720448788880589 42.874620796199494 15.228951643869554 #
edge $-1 $538 1 $538 0 $355 $-1 forward 7 unknown #
vertex $-1 $356 $539 #
ellipse-curve $-1 35.369231339949849 40.725605200524804 13.779422366905864 0 0.82903758062907751 0.55919289150049634 2 0 0 1 I I #
point $-1 37.369231339949849 42.874620796199494 15.228951643869554 #
edge $-1 $540 1 $540 0 $359 $-1 forward 7 unknown #
vertex $-1 $360 $541 #
ellipse-curve $-1 43.018013891019109 40.725605200524804 13.779422366905864 0 0.82903758062907751 0.55919289150049634 2 0 0 1 I I #
point $-1 45.018013891019109 42.874620796199494 15.228951643869554 #
plane-surface $-1 74.712973418378255 0 0 -1 0 0 0 0 1 forward_v I I I I #
coedge $-1 $368 $366 $370 $485 reversed $261 $-1 #
edge $-1 $381 -20.691733694412484 $487 20.691733694412484 $380 $542 forward 7 unknown #
vertex $-1 $485 $543 #
straight-curve $-1 -74.712973418378255 -46.559313700183615 0 0 0 -1 I I #
edge $-1 $483 -46.559313700183615 $487 46.559313700183615 $481 $544 forward 7 unknown #
straight-curve $-1 0 -46.559313700183615 -20.691733694412484 -1 0 0 I I #
vertex $-1 $373 $545 #
straight-curve $-1 0 46.559313700183615 -20.691733694412484 1 0 0 I I #
point $-1 74.712973418378255 46.559313700183615 -20.691733694412484 #
point $-1 74.712973418378255 -46.559313700183615 -20.691733694412484 #
straight-curve $-1 -74.712973418378255 0 20.691733694412484 0 -1 0 I I #
point $-1 -74.712973418378255 46.559313700183615 20.691733694412484 #
point $-1 -74.712973418378255 -46.559313700183615 20.691733694412484 #
straight-curve $-1 74.712973418378255 -46.559313700183615 0 0 0 -1 I I #
straight-curve $-1 74.712973418378255 46.559313700183615 0 0 0 -1 I I #
edge $-1 $497 46.351838553868781 $500 53.844557327977029 $391 $546 forward 7 unknown #
vertex $-1 $405 $547 #
straight-curve $-1 -28.530336960808118 -67.194841341378435 20.691733694412484 0 -1 0 I I #
edge $-1 $500 -21.397752720606089 $402 7.1325842402020321 $401 $548 forward 7 unknown #
vertex $-1 $499 $549 #
straight-curve $-1 -28.530336960808118 -46.559313700183651 13.199014920304208 0 0.80901698891910034 0.5877852598018023 I I #
point $-1 -28.530336960808118 -36.246471245626907 20.691733694412484 #
point $-1 3.5527136788005009e-015 -46.559313700183615 13.199014920304235 #
straight-curve $-1 0 -46.559313700183615 20.691733694412484 1 0 0 I I #
vertex $-1 $408 $550 #
point $-1 -20.3242695686465 -35.86232532510919 9.3194380048292622 #
vertex $-1 $412 $551 #
point $-1 -11.765168480404064 -35.86232532510919 9.3194380048292622 #
vertex $-1 $416 $552 #
point $-1 -3.2060673921616285 -35.86232532510919 9.3194380048292622 #
coedge $-1 $433 $425 $422 $512 forward $420 $-1 #
edge $-1 $428 -30.948370095751528 $519 -20.63552764119482 $511 $553 forward 7 unknown #
edge $-1 $519 46.351838553868781 $429 53.844557327977029 $423 $554 forward 7 unknown #
straight-curve $-1 -7.1325842402020285 -46.559313700183615 13.199014920304235 1 0 0 I I #
straight-curve $-1 -7.1325842402020285 -36.246471245626914 20.691733694412484 -1 0 0 I I #
point $-1 3.5527136788005009e-015 -36.246471245626907 20.691733694412484 #
point $-1 3.5527136788005009e-015 -46.559313700183615 13.199014920304235 #
point $-1 28.530336960808132 -36.246471245626907 20.691733694412484 #
vertex $-1 $435 $555 #
straight-curve $-1 0 -46.559313700183615 20.691733694412484 1 0 0 I I #
vertex $-1 $438 $556 #
point $-1 8.2060673921616285 -35.86232532510919 9.3194380048292622 #
vertex $-1 $442 $557 #
point $-1 16.765168480404071 -35.86232532510919 9.3194380048292622 #
vertex $-1 $446 $558 #
point $-1 25.3242695686465 -35.86232532510919 9.3194380048292622 #
edge $-1 $528 64.569735526423955 $531 75.495299627509823 $451 $559 forward 7 unknown #
vertex $-1 $465 $560 #
straight-curve $-1 48.117202258398642 59.183882320184352 20.691733694412477 0 1 0 I I #
edge $-1 $531 -30.43258658842371 $462 -4.9366447515261527 $461 $561 forward 7 unknown #
vertex $-1 $530 $562 #
straight-curve $-1 48.117202258398642 -5.5119608083850693 86.965011164827573 0 -0.55919289150049634 0.82903758062907751 I I #
point $-1 48.117202258398642 39.189927892215401 20.691733694412491 #
point $-1 22.621260421501084 46.559313700183615 9.766169593326623 #
straight-curve $-1 0 46.559313700183615 20.691733694412484 -1 0 0 I I #
vertex $-1 $468 $563 #
point $-1 29.720448788880589 40.725605200524804 13.779422366905864 #
vertex $-1 $472 $564 #
point $-1 37.369231339949849 40.725605200524804 13.779422366905864 #
vertex $-1 $476 $565 #
point $-1 45.018013891019109 40.725605200524804 13.779422366905864 #
straight-curve $-1 -74.712973418378255 46.559313700183615 0 0 0 -1 I I #
point $-1 -74.712973418378255 -46.559313700183615 -20.691733694412484 #
straight-curve $-1 -74.712973418378255 0 -20.691733694412484 0 1 0 I I #
point $-1 -74.712973418378255 46.559313700183615 -20.691733694412484 #
straight-curve $-1 -28.530336960808118 -46.559313700183615 67.043572248281265 0 0 -1 I I #
point $-1 -28.530336960808118 -46.559313700183615 20.691733694412484 #
straight-curve $-1 -7.1325842402020285 -46.559313700183615 13.199014920304235 1 0 0 I I #
point $-1 -28.530336960808118 -46.559313700183615 13.199014920304235 #
point $-1 -22.8242695686465 -34.392862175604684 7.2968955325315115 #
point $-1 -14.265168480404064 -34.392862175604684 7.2968955325315115 #
point $-1 -5.7060673921616285 -34.392862175604684 7.2968955325315115 #
straight-curve $-1 3.5527136788005009e-015 -67.194841341378435 20.691733694412484 0 -1 0 I I #
straight-curve $-1 3.5527136788005009e-015 -46.559313700183615 67.043572248281265 0 0 -1 I I #
point $-1 3.5527136788005009e-015 -46.559313700183615 20.691733694412484 #
point $-1 5.7060673921616285 -34.392862175604684 7.2968955325315115 #
point $-1 14.265168480404071 -34.392862175604684 7.2968955325315115 #
point $-1 22.8242695686465 -34.392862175604684 7.2968955325315115 #
straight-curve $-1 48.117202258398642 46.559313700183615 85.261469220836446 0 0 -1 I I #
point $-1 48.117202258398642 46.559313700183615 20.691733694412484 #
straight-curve $-1 17.684615669974932 46.559313700183623 9.7661695933266088 -1 0 0 I I #
point $-1 48.117202258398642 46.559313700183615 9.766169593326623 #
point $-1 27.720448788880589 39.06753003926665 12.661036583904872 #
point $-1 35.369231339949849 39.06753003926665 12.661036583904872 #
point $-1 43.018013891019109 39.06753003926665 12.661036583904872 #
End-of-ACIS-data 