500 0 14 0           
7 Unknown 11 ACIS 5.0 NT 24 Fri Mar 26 02:11:16 1999 
-1 9.9999999999999995e-007 1e-010 
body $-1 $14 $-1 $15 #
body $-1 $16 $-1 $17 #
body $-1 $18 $-1 $19 #
body $-1 $20 $-1 $21 #
body $-1 $22 $-1 $23 #
body $-1 $24 $-1 $25 #
body $-1 $26 $-1 $27 #
body $-1 $28 $-1 $29 #
body $-1 $30 $-1 $31 #
body $-1 $32 $-1 $33 #
body $-1 $34 $-1 $35 #
body $-1 $36 $-1 $37 #
body $-1 $38 $-1 $39 #
body $-1 $40 $-1 $41 #
lump $-1 $-1 $42 $0 #
transform $-1 1 0 0 0 1 0 0 0 1 42.27668080690939 23.514798986121601 10.117528062561014 1 rotate no_reflect no_shear #
lump $-1 $-1 $43 $1 #
transform $-1 1 0 0 0 1 0 0 0 1 42.27668080690939 23.514798986121601 10.117528062561014 1 rotate no_reflect no_shear #
lump $-1 $-1 $44 $2 #
transform $-1 1 0 0 0 1 0 0 0 1 42.27668080690939 23.514798986121601 10.117528062561014 1 rotate no_reflect no_shear #
lump $-1 $-1 $45 $3 #
transform $-1 1 0 0 0 1 0 0 0 1 42.27668080690939 23.514798986121601 10.117528062561014 1 rotate no_reflect no_shear #
lump $-1 $-1 $46 $4 #
transform $-1 1 0 0 0 1 0 0 0 1 42.27668080690939 23.514798986121601 10.117528062561014 1 rotate no_reflect no_shear #
lump $-1 $-1 $47 $5 #
transform $-1 1 0 0 0 1 0 0 0 1 42.27668080690939 23.514798986121601 10.117528062561014 1 rotate no_reflect no_shear #
lump $-1 $-1 $48 $6 #
transform $-1 1 0 0 0 1 0 0 0 1 42.27668080690939 23.514798986121601 10.117528062561014 1 rotate no_reflect no_shear #
lump $-1 $-1 $49 $7 #
transform $-1 1 0 0 0 1 0 0 0 1 42.27668080690939 23.514798986121601 10.117528062561014 1 rotate no_reflect no_shear #
lump $-1 $-1 $50 $8 #
transform $-1 1 0 0 0 1 0 0 0 1 42.27668080690939 23.514798986121601 10.117528062561014 1 rotate no_reflect no_shear #
lump $-1 $-1 $51 $9 #
transform $-1 1 0 0 0 1 0 0 0 1 42.27668080690939 23.514798986121601 10.117528062561014 1 rotate no_reflect no_shear #
lump $-1 $-1 $52 $10 #
transform $-1 1 0 0 0 1 0 0 0 1 42.27668080690939 23.514798986121601 10.117528062561014 1 rotate no_reflect no_shear #
lump $-1 $-1 $53 $11 #
transform $-1 1 0 0 0 1 0 0 0 1 42.27668080690939 23.514798986121601 10.117528062561014 1 rotate no_reflect no_shear #
lump $-1 $-1 $54 $12 #
transform $-1 1 0 0 0 1 0 0 0 1 42.27668080690939 23.514798986121601 10.117528062561014 1 rotate no_reflect no_shear #
lump $-1 $-1 $55 $13 #
transform $-1 1 0 0 0 1 0 0 0 1 42.27668080690939 23.514798986121601 10.117528062561014 1 rotate no_reflect no_shear #
shell $-1 $-1 $-1 $56 $-1 $14 #
shell $-1 $-1 $-1 $57 $-1 $16 #
shell $-1 $-1 $-1 $58 $-1 $18 #
shell $-1 $-1 $-1 $59 $-1 $20 #
shell $-1 $-1 $-1 $60 $-1 $22 #
shell $-1 $-1 $-1 $61 $-1 $24 #
shell $-1 $-1 $-1 $62 $-1 $26 #
shell $-1 $-1 $-1 $63 $-1 $28 #
shell $-1 $-1 $-1 $64 $-1 $30 #
shell $-1 $-1 $-1 $65 $-1 $32 #
shell $-1 $-1 $-1 $66 $-1 $34 #
shell $-1 $-1 $-1 $67 $-1 $36 #
shell $-1 $-1 $-1 $68 $-1 $38 #
shell $-1 $-1 $-1 $69 $-1 $40 #
face $-1 $70 $71 $42 $-1 $72 reversed single #
face $-1 $73 $74 $43 $-1 $75 reversed single #
face $-1 $76 $77 $44 $-1 $78 forward single #
face $-1 $79 $80 $45 $-1 $81 reversed single #
face $-1 $82 $83 $46 $-1 $84 forward single #
face $-1 $85 $86 $47 $-1 $87 forward single #
face $-1 $88 $89 $48 $-1 $90 reversed single #
face $-1 $91 $92 $49 $-1 $93 forward single #
face $-1 $94 $95 $50 $-1 $96 reversed single #
face $-1 $97 $98 $51 $-1 $99 forward single #
face $-1 $100 $101 $52 $-1 $102 reversed single #
face $-1 $103 $104 $53 $-1 $105 forward single #
face $-1 $106 $107 $54 $-1 $108 reversed single #
face $-1 $109 $110 $55 $-1 $111 forward single #
face $-1 $112 $113 $42 $-1 $114 forward single #
loop $-1 $-1 $115 $56 #
plane-surface $-1 42.27668080690939 0 0 -1 0 0 0 0 1 forward_v I I I I #
face $-1 $116 $117 $43 $-1 $118 reversed single #
loop $-1 $-1 $119 $57 #
plane-surface $-1 -37.802178007211225 -6.2797428609995727 0 0 1 0 0 0 1 forward_v I I I I #
face $-1 $120 $121 $44 $-1 $122 reversed single #
loop $-1 $-1 $123 $58 #
plane-surface $-1 42.27668080690939 0 0 -1 0 0 0 0 1 forward_v I I I I #
face $-1 $124 $125 $45 $-1 $126 reversed single #
loop $-1 $-1 $127 $59 #
plane-surface $-1 21.267725122234026 35.166274867835781 102.83555247611531 1 0 0 0 -0.5877852598018023 -0.80901698891910034 forward_v I I I I #
face $-1 $128 $129 $46 $-1 $130 forward single #
loop $-1 $131 $132 $60 #
cone-surface $-1 23.930640801720891 20.928964817113236 8.0478265357342149 0 -0.5877852598018023 -0.80901698891910034 0.5 0 0 1 I I 0 1 0.5 forward I I I I #
face $-1 $133 $134 $47 $-1 $135 forward single #
loop $-1 $136 $137 $61 #
cone-surface $-1 27.925014320951185 20.928964817113236 8.0478265357342149 0 -0.5877852598018023 -0.80901698891910034 0.5 0 0 1 I I 0 1 0.5 forward I I I I #
face $-1 $138 $139 $48 $-1 $140 reversed single #
loop $-1 $-1 $141 $62 #
plane-surface $-1 -19.853071918530166 -94.427215469270251 47.081534587581181 -1 0 0 0 -0.83867057594974714 0.54463902268945019 forward_v I I I I #
face $-1 $142 $143 $49 $-1 $144 forward single #
loop $-1 $145 $146 $63 #
cone-surface $-1 -25.040448353810476 -18.971448485219309 4.5396574551964246 0 0.83867057594974714 -0.54463902268945019 1.5 0 0 1 I I 0 1 1.5 forward I I I I #
face $-1 $147 $148 $50 $-1 $149 reversed single #
loop $-1 $-1 $150 $64 #
plane-surface $-1 -4.0726880850148506 -94.427215469270251 47.081534587581181 -1 0 0 0 -0.83867057594974714 0.54463902268945019 forward_v I I I I #
face $-1 $151 $152 $51 $-1 $153 forward single #
loop $-1 $154 $155 $65 #
cone-surface $-1 -9.2600645202951597 -18.971448485219309 4.5396574551964246 0 0.83867057594974714 -0.54463902268945019 1.5 0 0 1 I I 0 1 1.5 forward I I I I #
face $-1 $156 $157 $52 $-1 $158 reversed single #
loop $-1 $-1 $159 $66 #
plane-surface $-1 11.707695748500466 -94.427215469270251 47.081534587581181 -1 0 0 0 -0.83867057594974714 0.54463902268945019 forward_v I I I I #
face $-1 $160 $161 $53 $-1 $162 forward single #
loop $-1 $163 $164 $67 #
cone-surface $-1 6.5203193132201562 -18.971448485219309 4.5396574551964246 0 0.83867057594974714 -0.54463902268945019 1.5 0 0 1 I I 0 1 1.5 forward I I I I #
face $-1 $165 $166 $54 $-1 $167 reversed single #
loop $-1 $-1 $168 $68 #
plane-surface $-1 27.488079582015789 -94.427215469270251 47.081534587581181 -1 0 0 0 -0.83867057594974714 0.54463902268945019 forward_v I I I I #
face $-1 $169 $170 $55 $-1 $171 forward single #
loop $-1 $172 $173 $69 #
cone-surface $-1 22.300703146735479 -18.971448485219309 4.5396574551964246 0 0.83867057594974714 -0.54463902268945019 1.5 0 0 1 I I 0 1 1.5 forward I I I I #
face $-1 $174 $175 $42 $-1 $176 reversed single #
loop $-1 $-1 $177 $70 #
plane-surface $-1 0 0 10.117528062561014 0 0 1 1 0 0 forward_v I I I I #
coedge $-1 $178 $179 $180 $181 reversed $71 $-1 #
face $-1 $182 $183 $43 $-1 $184 reversed single #
loop $-1 $-1 $185 $73 #
plane-surface $-1 -37.802178007211225 -3.2797428609995727 0 0 -1 0 0 0 -1 forward_v I I I I #
coedge $-1 $186 $187 $188 $189 reversed $74 $-1 #
face $-1 $190 $191 $44 $-1 $192 reversed single #
loop $-1 $-1 $193 $76 #
plane-surface $-1 0 -23.514798986121601 0 0 1 0 0 0 1 forward_v I I I I #
coedge $-1 $194 $195 $196 $197 forward $77 $-1 #
face $-1 $198 $199 $45 $-1 $200 reversed single #
loop $-1 $-1 $201 $79 #
plane-surface $-1 25.927827561336038 -14.532944755458431 34.430446460315792 0 0.5877852598018023 0.80901698891910034 1 0 0 forward_v I I I I #
coedge $-1 $202 $203 $204 $205 reversed $80 $-1 #
face $-1 $-1 $206 $46 $-1 $207 forward single #
loop $-1 $208 $209 $82 #
cone-surface $-1 23.930640801720891 20.488125872261886 7.44106379404489 0 -0.5877852598018023 -0.80901698891910034 0.25 0 0 1 I I -0.70710678118654746 0.70710678118654746 0.25 forward I I I I #
loop $-1 $-1 $210 $60 #
coedge $-1 $132 $132 $211 $212 reversed $83 $-1 #
face $-1 $-1 $213 $47 $-1 $214 forward single #
loop $-1 $215 $216 $85 #
cone-surface $-1 27.925014320951185 20.488125872261886 7.44106379404489 0 -0.5877852598018023 -0.80901698891910034 0.25 0 0 1 I I -0.70710678118654746 0.70710678118654746 0.25 forward I I I I #
loop $-1 $-1 $217 $61 #
coedge $-1 $137 $137 $218 $219 reversed $86 $-1 #
face $-1 $220 $221 $48 $-1 $222 reversed single #
loop $-1 $-1 $223 $88 #
plane-surface $-1 -25.040448353810476 -23.514798986121619 1.0304743531232461 0 -0.83867057594974714 0.54463902268945019 1 0 0 forward_v I I I I #
coedge $-1 $224 $225 $226 $227 reversed $89 $-1 #
face $-1 $-1 $228 $49 $-1 $229 forward single #
loop $-1 $230 $231 $91 #
cone-surface $-1 -25.040448353810476 -16.749695796770997 3.0968344355336335 0 0.83867057594974714 -0.54463902268945019 0.75 0 0 1 I I -0.70710678118654757 0.70710678118654757 0.75 forward I I I I #
loop $-1 $-1 $232 $63 #
coedge $-1 $146 $146 $233 $234 reversed $92 $-1 #
face $-1 $235 $236 $50 $-1 $237 reversed single #
loop $-1 $-1 $238 $94 #
plane-surface $-1 -9.2600645202951597 -23.514798986121619 1.0304743531232461 0 -0.83867057594974714 0.54463902268945019 1 0 0 forward_v I I I I #
coedge $-1 $239 $240 $241 $242 reversed $95 $-1 #
face $-1 $-1 $243 $51 $-1 $244 forward single #
loop $-1 $245 $246 $97 #
cone-surface $-1 -9.2600645202951597 -16.749695796770997 3.0968344355336335 0 0.83867057594974714 -0.54463902268945019 0.75 0 0 1 I I -0.70710678118654757 0.70710678118654757 0.75 forward I I I I #
loop $-1 $-1 $247 $65 #
coedge $-1 $155 $155 $248 $249 reversed $98 $-1 #
face $-1 $250 $251 $52 $-1 $252 reversed single #
loop $-1 $-1 $253 $100 #
plane-surface $-1 6.5203193132201562 -23.514798986121619 1.0304743531232461 0 -0.83867057594974714 0.54463902268945019 1 0 0 forward_v I I I I #
coedge $-1 $254 $255 $256 $257 reversed $101 $-1 #
face $-1 $-1 $258 $53 $-1 $259 forward single #
loop $-1 $260 $261 $103 #
cone-surface $-1 6.5203193132201562 -16.749695796770997 3.0968344355336335 0 0.83867057594974714 -0.54463902268945019 0.75 0 0 1 I I -0.70710678118654757 0.70710678118654757 0.75 forward I I I I #
loop $-1 $-1 $262 $67 #
coedge $-1 $164 $164 $263 $264 reversed $104 $-1 #
face $-1 $265 $266 $54 $-1 $267 reversed single #
loop $-1 $-1 $268 $106 #
plane-surface $-1 22.300703146735479 -23.514798986121619 1.0304743531232461 0 -0.83867057594974714 0.54463902268945019 1 0 0 forward_v I I I I #
coedge $-1 $269 $270 $271 $272 reversed $107 $-1 #
face $-1 $-1 $273 $55 $-1 $274 forward single #
loop $-1 $275 $276 $109 #
cone-surface $-1 22.300703146735479 -16.749695796770997 3.0968344355336335 0 0.83867057594974714 -0.54463902268945019 0.75 0 0 1 I I -0.70710678118654757 0.70710678118654757 0.75 forward I I I I #
loop $-1 $-1 $277 $69 #
coedge $-1 $173 $173 $278 $279 reversed $110 $-1 #
face $-1 $280 $281 $42 $-1 $282 reversed single #
loop $-1 $-1 $180 $112 #
plane-surface $-1 0 0 -10.117528062561014 0 0 1 1 0 0 forward_v I I I I #
coedge $-1 $283 $284 $285 $286 forward $113 $-1 #
coedge $-1 $285 $115 $287 $288 reversed $71 $-1 #
coedge $-1 $115 $285 $289 $290 forward $71 $-1 #
coedge $-1 $291 $292 $115 $181 forward $175 $-1 #
edge $-1 $293 -23.514798986121601 $294 23.514798986121601 $115 $295 forward 7 unknown #
face $-1 $296 $297 $43 $-1 $298 reversed single #
loop $-1 $-1 $299 $116 #
plane-surface $-1 -33.32767520751306 -4.7797428609995727 0 -1 0 0 0 0 1 forward_v I I I I #
coedge $-1 $300 $301 $302 $303 forward $117 $-1 #
coedge $-1 $304 $119 $305 $306 reversed $74 $-1 #
coedge $-1 $119 $304 $307 $308 reversed $74 $-1 #
coedge $-1 $309 $310 $119 $189 forward $311 $-1 #
edge $-1 $312 -10.117528062561014 $313 10.117528062561014 $188 $314 forward 7 unknown #
face $-1 $315 $316 $44 $-1 $317 reversed single #
loop $-1 $-1 $318 $120 #
plane-surface $-1 0 0 -10.117528062561014 0 0 1 1 0 0 forward_v I I I I #
coedge $-1 $319 $320 $321 $322 forward $121 $-1 #
coedge $-1 $321 $123 $318 $323 reversed $77 $-1 #
coedge $-1 $123 $321 $324 $325 reversed $77 $-1 #
coedge $-1 $326 $327 $123 $197 reversed $316 $-1 #
edge $-1 $328 -10.117528062561014 $329 10.117528062561014 $196 $330 forward 7 unknown #
face $-1 $331 $332 $45 $-1 $333 reversed single #
loop $-1 $-1 $334 $124 #
plane-surface $-1 30.58793000043805 35.166274867835781 102.83555247611531 -1 0 0 0 0.5877852598018023 0.80901698891910034 forward_v I I I I #
coedge $-1 $335 $336 $337 $338 reversed $125 $-1 #
coedge $-1 $203 $127 $339 $340 reversed $80 $-1 #
coedge $-1 $127 $202 $335 $341 reversed $80 $-1 #
coedge $-1 $337 $342 $127 $205 forward $343 $-1 #
edge $-1 $344 -5.9316615522037104 $345 -1.3477784739887824 $204 $346 forward 7 unknown #
loop $-1 $-1 $211 $128 #
plane-surface $-1 25.927827561336038 -14.532944755458431 34.430446460315792 0 0.5877852598018023 0.80901698891910034 1 0 0 forward_v I I I I #
loop $-1 $-1 $347 $82 #
coedge $-1 $209 $209 $210 $348 reversed $129 $-1 #
coedge $-1 $210 $210 $209 $348 forward $131 $-1 #
coedge $-1 $211 $211 $132 $212 forward $206 $-1 #
edge $-1 $349 5.2321246935740166e-015 $349 6.2831853071796058 $211 $350 forward 7 unknown #
loop $-1 $-1 $218 $133 #
plane-surface $-1 25.927827561336038 -14.532944755458431 34.430446460315792 0 0.5877852598018023 0.80901698891910034 1 0 0 forward_v I I I I #
loop $-1 $-1 $351 $85 #
coedge $-1 $216 $216 $217 $352 reversed $134 $-1 #
coedge $-1 $217 $217 $216 $352 forward $136 $-1 #
coedge $-1 $218 $218 $137 $219 forward $213 $-1 #
edge $-1 $353 5.2321246935740166e-015 $353 6.2831853071796058 $218 $354 forward 7 unknown #
face $-1 $355 $356 $48 $-1 $357 forward single #
loop $-1 $-1 $358 $138 #
plane-surface $-1 -30.227824789090786 -94.427215469270251 47.081534587581181 1 0 0 0 0.83867057594974714 -0.54463902268945019 forward_v I I I I #
coedge $-1 $359 $360 $361 $362 reversed $139 $-1 #
coedge $-1 $225 $141 $363 $364 reversed $89 $-1 #
coedge $-1 $141 $224 $359 $365 reversed $89 $-1 #
coedge $-1 $361 $366 $141 $227 forward $356 $-1 #
edge $-1 $367 23.698808748513525 $368 29.60001023734609 $226 $369 forward 7 unknown #
loop $-1 $-1 $233 $142 #
plane-surface $-1 -25.040448353810476 -23.514798986121619 1.0304743531232461 0 -0.83867057594974714 0.54463902268945019 1 0 0 forward_v I I I I #
loop $-1 $-1 $370 $91 #
coedge $-1 $231 $231 $232 $371 reversed $143 $-1 #
coedge $-1 $232 $232 $231 $371 forward $145 $-1 #
coedge $-1 $233 $233 $146 $234 forward $228 $-1 #
edge $-1 $372 1.6837081840647346e-015 $372 6.2831853071796022 $233 $373 forward 7 unknown #
face $-1 $374 $375 $50 $-1 $376 reversed single #
loop $-1 $-1 $377 $147 #
plane-surface $-1 -14.44744095557547 -94.427215469270251 47.081534587581181 1 0 0 0 0.83867057594974714 -0.54463902268945019 forward_v I I I I #
coedge $-1 $378 $379 $380 $381 reversed $148 $-1 #
coedge $-1 $240 $150 $382 $383 reversed $95 $-1 #
coedge $-1 $150 $239 $378 $384 reversed $95 $-1 #
coedge $-1 $380 $385 $150 $242 forward $386 $-1 #
edge $-1 $387 23.698808748513525 $388 29.60001023734609 $241 $389 forward 7 unknown #
loop $-1 $-1 $248 $151 #
plane-surface $-1 -9.2600645202951597 -23.514798986121619 1.0304743531232461 0 -0.83867057594974714 0.54463902268945019 1 0 0 forward_v I I I I #
loop $-1 $-1 $390 $97 #
coedge $-1 $246 $246 $247 $391 reversed $152 $-1 #
coedge $-1 $247 $247 $246 $391 forward $154 $-1 #
coedge $-1 $248 $248 $155 $249 forward $243 $-1 #
edge $-1 $392 1.6837081840647346e-015 $392 6.2831853071796022 $248 $393 forward 7 unknown #
face $-1 $394 $395 $52 $-1 $396 reversed single #
loop $-1 $-1 $397 $156 #
plane-surface $-1 1.3329428779398471 -94.427215469270251 47.081534587581181 1 0 0 0 0.83867057594974714 -0.54463902268945019 forward_v I I I I #
coedge $-1 $398 $399 $400 $401 reversed $157 $-1 #
coedge $-1 $255 $159 $402 $403 reversed $101 $-1 #
coedge $-1 $159 $254 $398 $404 reversed $101 $-1 #
coedge $-1 $400 $405 $159 $257 forward $406 $-1 #
edge $-1 $407 23.698808748513525 $408 29.60001023734609 $256 $409 forward 7 unknown #
loop $-1 $-1 $263 $160 #
plane-surface $-1 6.5203193132201562 -23.514798986121619 1.0304743531232461 0 -0.83867057594974714 0.54463902268945019 1 0 0 forward_v I I I I #
loop $-1 $-1 $410 $103 #
coedge $-1 $261 $261 $262 $411 reversed $161 $-1 #
coedge $-1 $262 $262 $261 $411 forward $163 $-1 #
coedge $-1 $263 $263 $164 $264 forward $258 $-1 #
edge $-1 $412 1.6837081840647346e-015 $412 6.2831853071796022 $263 $413 forward 7 unknown #
face $-1 $414 $415 $54 $-1 $416 reversed single #
loop $-1 $-1 $417 $165 #
plane-surface $-1 17.113326711455169 -94.427215469270251 47.081534587581181 1 0 0 0 0.83867057594974714 -0.54463902268945019 forward_v I I I I #
coedge $-1 $418 $419 $420 $421 reversed $166 $-1 #
coedge $-1 $270 $168 $422 $423 reversed $107 $-1 #
coedge $-1 $168 $269 $418 $424 reversed $107 $-1 #
coedge $-1 $420 $425 $168 $272 forward $426 $-1 #
edge $-1 $427 23.698808748513525 $428 29.60001023734609 $271 $429 forward 7 unknown #
loop $-1 $-1 $278 $169 #
plane-surface $-1 22.300703146735479 -23.514798986121619 1.0304743531232461 0 -0.83867057594974714 0.54463902268945019 1 0 0 forward_v I I I I #
loop $-1 $-1 $430 $109 #
coedge $-1 $276 $276 $277 $431 reversed $170 $-1 #
coedge $-1 $277 $277 $276 $431 forward $172 $-1 #
coedge $-1 $278 $278 $173 $279 forward $273 $-1 #
edge $-1 $432 1.6837081840647346e-015 $432 6.2831853071796022 $278 $433 forward 7 unknown #
face $-1 $434 $435 $42 $-1 $436 reversed single #
loop $-1 $-1 $437 $174 #
plane-surface $-1 0 -23.514798986121601 0 0 1 0 0 0 1 forward_v I I I I #
coedge $-1 $438 $177 $439 $440 forward $113 $-1 #
coedge $-1 $177 $438 $441 $442 forward $113 $-1 #
coedge $-1 $179 $178 $177 $286 reversed $71 $-1 #
edge $-1 $443 -23.514798986121601 $444 23.514798986121601 $285 $445 forward 7 unknown #
coedge $-1 $446 $439 $178 $288 forward $447 $-1 #
edge $-1 $444 -10.117528062561014 $293 10.117528062561014 $178 $448 forward 7 unknown #
coedge $-1 $441 $449 $179 $290 reversed $281 $-1 #
edge $-1 $443 -10.117528062561014 $294 10.117528062561014 $179 $450 forward 7 unknown #
coedge $-1 $451 $180 $449 $452 forward $175 $-1 #
coedge $-1 $180 $451 $446 $453 forward $175 $-1 #
vertex $-1 $181 $454 #
vertex $-1 $290 $455 #
straight-curve $-1 42.27668080690939 0 -10.117528062561014 0 -1 0 I I #
face $-1 $456 $457 $43 $-1 $458 forward single #
loop $-1 $-1 $459 $182 #
plane-surface $-1 0 0 -10.117528062561014 0 0 1 1 0 0 forward_v I I I I #
coedge $-1 $460 $461 $304 $462 forward $183 $-1 #
coedge $-1 $463 $185 $459 $464 reversed $117 $-1 #
coedge $-1 $185 $463 $465 $466 reversed $117 $-1 #
coedge $-1 $461 $460 $185 $303 reversed $183 $-1 #
edge $-1 $467 -10.117528062561014 $468 10.117528062561014 $302 $469 forward 7 unknown #
coedge $-1 $187 $186 $299 $462 reversed $74 $-1 #
coedge $-1 $470 $471 $186 $306 forward $297 $-1 #
edge $-1 $472 14.426586203907448 $312 23.375591803303777 $305 $473 forward 7 unknown #
coedge $-1 $474 $475 $187 $308 forward $457 $-1 #
edge $-1 $313 -23.375591803303777 $476 -14.426586203907448 $307 $477 forward 7 unknown #
coedge $-1 $478 $188 $475 $479 reversed $311 $-1 #
coedge $-1 $188 $478 $470 $480 reversed $311 $-1 #
loop $-1 $-1 $478 $456 #
vertex $-1 $480 $481 #
vertex $-1 $189 $482 #
straight-curve $-1 -42.27668080690939 -6.2797428609995727 0 0 0 1 I I #
face $-1 $483 $484 $44 $-1 $485 reversed single #
loop $-1 $-1 $486 $190 #
plane-surface $-1 48.121056210145063 -20.514798986121601 0 0 -1 0 0 0 -1 forward_v I I I I #
coedge $-1 $487 $488 $194 $323 forward $191 $-1 #
coedge $-1 $489 $193 $488 $490 reversed $121 $-1 #
coedge $-1 $193 $489 $491 $492 reversed $121 $-1 #
coedge $-1 $195 $194 $193 $322 reversed $77 $-1 #
edge $-1 $493 -10.117528062561014 $494 10.117528062561014 $193 $495 forward 7 unknown #
edge $-1 $494 -23.514798986121601 $329 -20.514798986121601 $318 $496 forward 7 unknown #
coedge $-1 $491 $497 $195 $325 forward $498 $-1 #
edge $-1 $328 20.514798986121601 $493 23.514798986121601 $324 $499 forward 7 unknown #
coedge $-1 $486 $196 $497 $500 reversed $316 $-1 #
coedge $-1 $196 $486 $487 $501 reversed $316 $-1 #
vertex $-1 $325 $502 #
vertex $-1 $501 $503 #
straight-curve $-1 42.27668080690939 -20.514798986121601 0 0 0 -1 I I #
face $-1 $-1 $343 $45 $-1 $504 forward single #
loop $-1 $-1 $505 $198 #
plane-surface $-1 0 23.514798986121601 0 0 -1 0 0 0 -1 forward_v I I I I #
coedge $-1 $506 $507 $508 $509 reversed $199 $-1 #
coedge $-1 $510 $201 $203 $341 forward $125 $-1 #
coedge $-1 $201 $510 $506 $511 forward $125 $-1 #
coedge $-1 $508 $204 $201 $338 forward $343 $-1 #
edge $-1 $345 8.3038113415660071 $512 17.624016219770031 $337 $513 forward 7 unknown #
coedge $-1 $514 $515 $202 $340 forward $332 $-1 #
edge $-1 $516 -44.63063424023116 $344 -41.300248175496641 $339 $517 forward 7 unknown #
edge $-1 $345 41.363606848448271 $516 47.029597972243216 $203 $518 forward 7 unknown #
coedge $-1 $204 $508 $514 $519 forward $343 $-1 #
loop $-1 $-1 $508 $331 #
vertex $-1 $340 $520 #
vertex $-1 $205 $521 #
straight-curve $-1 21.267725122234026 17.583137433917891 10.117528062561014 0 -1 0 I I #
coedge $-1 $347 $347 $-1 $522 reversed $208 $-1 #
edge $-1 $523 0 $523 6.2831853071796004 $209 $524 forward 7 unknown #
vertex $-1 $212 $525 #
ellipse-curve $-1 23.930640801720891 21.222857447014132 8.4523350301937601 0 0.5877852598018023 0.80901698891910034 0.5 0 0 1 I I #
coedge $-1 $351 $351 $-1 $526 reversed $215 $-1 #
edge $-1 $527 0 $527 6.2831853071796004 $216 $528 forward 7 unknown #
vertex $-1 $219 $529 #
ellipse-curve $-1 27.925014320951185 21.222857447014132 8.4523350301937601 0 0.5877852598018023 0.80901698891910034 0.5 0 0 1 I I #
face $-1 $-1 $530 $48 $-1 $531 reversed single #
loop $-1 $-1 $226 $220 #
plane-surface $-1 0 0 10.117528062561014 0 0 1 1 0 0 forward_v I I I I #
coedge $-1 $532 $533 $534 $535 reversed $221 $-1 #
coedge $-1 $536 $223 $225 $365 forward $139 $-1 #
coedge $-1 $223 $536 $532 $537 forward $139 $-1 #
coedge $-1 $534 $226 $223 $362 forward $356 $-1 #
edge $-1 $368 7.3328477416249278 $538 17.707600612185548 $361 $539 forward 7 unknown #
coedge $-1 $540 $541 $224 $364 forward $530 $-1 #
edge $-1 $542 -22.510292940667316 $367 -13.423239231229577 $363 $543 forward 7 unknown #
edge $-1 $368 -10.835069179751766 $542 -3.2580072563564968e-014 $225 $544 forward 7 unknown #
coedge $-1 $226 $534 $540 $545 forward $356 $-1 #
vertex $-1 $227 $546 #
vertex $-1 $227 $547 #
straight-curve $-1 -19.853071918530166 -47.213607734635126 10.117528062561014 0 1 0 I I #
coedge $-1 $370 $370 $-1 $548 reversed $230 $-1 #
edge $-1 $549 0 $549 6.2831853071796004 $231 $550 forward 7 unknown #
vertex $-1 $234 $551 #
ellipse-curve $-1 -25.040448353810476 -20.564198241705324 5.5740012078421364 0 -0.83867057594974714 0.54463902268945019 1.5 0 0 1 I I #
face $-1 $-1 $386 $50 $-1 $552 forward single #
loop $-1 $-1 $553 $235 #
plane-surface $-1 0 -23.514798986121601 0 0 1 0 0 0 1 forward_v I I I I #
coedge $-1 $554 $555 $556 $557 reversed $236 $-1 #
coedge $-1 $558 $238 $240 $384 forward $148 $-1 #
coedge $-1 $238 $558 $554 $559 forward $148 $-1 #
coedge $-1 $556 $241 $238 $381 forward $386 $-1 #
edge $-1 $388 -0.55734417513272927 $560 9.8174086954278899 $380 $561 forward 7 unknown #
coedge $-1 $562 $563 $239 $383 forward $375 $-1 #
edge $-1 $564 -22.510292940667316 $387 -13.423239231229577 $382 $565 forward 7 unknown #
edge $-1 $388 -10.835069179751766 $564 -3.2580072563564968e-014 $240 $566 forward 7 unknown #
coedge $-1 $241 $556 $562 $567 forward $386 $-1 #
loop $-1 $-1 $556 $374 #
vertex $-1 $383 $568 #
vertex $-1 $242 $569 #
straight-curve $-1 -4.0726880850148506 -47.213607734635126 10.117528062561014 0 1 0 I I #
coedge $-1 $390 $390 $-1 $570 reversed $245 $-1 #
edge $-1 $571 0 $571 6.2831853071796004 $246 $572 forward 7 unknown #
vertex $-1 $249 $573 #
ellipse-curve $-1 -9.2600645202951597 -20.564198241705324 5.5740012078421364 0 -0.83867057594974714 0.54463902268945019 1.5 0 0 1 I I #
face $-1 $-1 $406 $52 $-1 $574 forward single #
loop $-1 $-1 $575 $250 #
plane-surface $-1 0 -23.514798986121601 0 0 1 0 0 0 1 forward_v I I I I #
coedge $-1 $576 $577 $578 $579 reversed $251 $-1 #
coedge $-1 $580 $253 $255 $404 forward $157 $-1 #
coedge $-1 $253 $580 $576 $581 forward $157 $-1 #
coedge $-1 $578 $256 $253 $401 forward $406 $-1 #
edge $-1 $408 -8.4475360918903881 $582 1.927216778670231 $400 $583 forward 7 unknown #
coedge $-1 $584 $585 $254 $403 forward $395 $-1 #
edge $-1 $586 -22.510292940667316 $407 -13.423239231229577 $402 $587 forward 7 unknown #
edge $-1 $408 -10.835069179751766 $586 -3.2580072563564968e-014 $255 $588 forward 7 unknown #
coedge $-1 $256 $578 $584 $589 forward $406 $-1 #
loop $-1 $-1 $578 $394 #
vertex $-1 $403 $590 #
vertex $-1 $257 $591 #
straight-curve $-1 11.707695748500466 -47.213607734635126 10.117528062561014 0 1 0 I I #
coedge $-1 $410 $410 $-1 $592 reversed $260 $-1 #
edge $-1 $593 0 $593 6.2831853071796004 $261 $594 forward 7 unknown #
vertex $-1 $264 $595 #
ellipse-curve $-1 6.5203193132201562 -20.564198241705324 5.5740012078421364 0 -0.83867057594974714 0.54463902268945019 1.5 0 0 1 I I #
face $-1 $-1 $426 $54 $-1 $596 forward single #
loop $-1 $-1 $597 $265 #
plane-surface $-1 0 -23.514798986121601 0 0 1 0 0 0 1 forward_v I I I I #
coedge $-1 $598 $599 $600 $601 reversed $266 $-1 #
coedge $-1 $602 $268 $270 $424 forward $166 $-1 #
coedge $-1 $268 $602 $598 $603 forward $166 $-1 #
coedge $-1 $600 $271 $268 $421 forward $426 $-1 #
edge $-1 $428 -16.33772800864805 $604 -5.9629751380874296 $420 $605 forward 7 unknown #
coedge $-1 $606 $607 $269 $423 forward $415 $-1 #
edge $-1 $608 -22.510292940667316 $427 -13.423239231229577 $422 $609 forward 7 unknown #
edge $-1 $428 -10.835069179751766 $608 -3.2580072563564968e-014 $270 $610 forward 7 unknown #
coedge $-1 $271 $600 $606 $611 forward $426 $-1 #
loop $-1 $-1 $600 $414 #
vertex $-1 $423 $612 #
vertex $-1 $272 $613 #
straight-curve $-1 27.488079582015789 -47.213607734635126 10.117528062561014 0 1 0 I I #
coedge $-1 $430 $430 $-1 $614 reversed $275 $-1 #
edge $-1 $615 0 $615 6.2831853071796004 $276 $616 forward 7 unknown #
vertex $-1 $279 $617 #
ellipse-curve $-1 22.300703146735479 -20.564198241705324 5.5740012078421364 0 -0.83867057594974714 0.54463902268945019 1.5 0 0 1 I I #
face $-1 $-1 $447 $42 $-1 $618 reversed single #
loop $-1 $-1 $619 $280 #
plane-surface $-1 -42.27668080690939 0 0 1 0 0 0 0 -1 forward_v I I I I #
coedge $-1 $449 $441 $620 $621 forward $281 $-1 #
coedge $-1 $284 $283 $622 $623 forward $113 $-1 #
coedge $-1 $287 $624 $283 $440 reversed $447 $-1 #
edge $-1 $444 -42.27668080690939 $625 42.27668080690939 $439 $626 forward 7 unknown #
coedge $-1 $437 $289 $284 $442 reversed $281 $-1 #
edge $-1 $627 -42.27668080690939 $443 42.27668080690939 $441 $628 forward 7 unknown #
vertex $-1 $286 $629 #
vertex $-1 $286 $630 #
straight-curve $-1 42.27668080690939 0 10.117528062561014 0 1 0 I I #
coedge $-1 $624 $287 $292 $453 reversed $447 $-1 #
loop $-1 $-1 $287 $434 #
straight-curve $-1 42.27668080690939 23.514798986121601 0 0 0 -1 I I #
coedge $-1 $289 $437 $291 $452 reversed $281 $-1 #
straight-curve $-1 42.27668080690939 -23.514798986121601 0 0 0 -1 I I #
coedge $-1 $292 $291 $631 $632 forward $175 $-1 #
edge $-1 $294 -42.27668080690939 $633 42.27668080690939 $449 $634 forward 7 unknown #
edge $-1 $635 -42.27668080690939 $293 42.27668080690939 $446 $636 forward 7 unknown #
point $-1 42.27668080690939 23.514798986121601 -10.117528062561014 #
point $-1 42.27668080690939 -23.514798986121601 -10.117528062561014 #
face $-1 $-1 $311 $43 $-1 $637 reversed single #
loop $-1 $-1 $465 $296 #
plane-surface $-1 0 0 10.117528062561014 0 0 1 1 0 0 forward_v I I I I #
coedge $-1 $471 $470 $300 $464 forward $297 $-1 #
coedge $-1 $302 $299 $471 $638 reversed $183 $-1 #
coedge $-1 $299 $302 $474 $639 reversed $183 $-1 #
edge $-1 $476 -10.117528062561014 $472 10.117528062561014 $299 $640 forward 7 unknown #
coedge $-1 $301 $300 $478 $641 reversed $117 $-1 #
edge $-1 $642 -23.375591803303777 $468 -14.426586203907448 $459 $643 forward 7 unknown #
coedge $-1 $475 $474 $301 $466 forward $457 $-1 #
edge $-1 $467 14.426586203907448 $644 23.375591803303777 $465 $645 forward 7 unknown #
vertex $-1 $466 $646 #
vertex $-1 $464 $647 #
straight-curve $-1 -33.32767520751306 -3.2797428609995727 0 0 0 -1 I I #
coedge $-1 $459 $305 $310 $480 forward $297 $-1 #
coedge $-1 $305 $459 $460 $638 forward $297 $-1 #
vertex $-1 $306 $648 #
straight-curve $-1 -18.901089003605613 -6.2797428609995727 -10.117528062561014 -1 0 0 I I #
coedge $-1 $465 $307 $461 $639 forward $457 $-1 #
coedge $-1 $307 $465 $309 $479 forward $457 $-1 #
vertex $-1 $308 $649 #
straight-curve $-1 -18.901089003605613 -6.2797428609995727 10.117528062561014 1 0 0 I I #
coedge $-1 $310 $309 $463 $641 forward $311 $-1 #
edge $-1 $644 3.2797428609995727 $313 6.2797428609995727 $309 $650 forward 7 unknown #
edge $-1 $312 -6.2797428609995727 $642 -3.2797428609995727 $310 $651 forward 7 unknown #
point $-1 -42.27668080690939 -6.2797428609995727 -10.117528062561014 #
point $-1 -42.27668080690939 -6.2797428609995727 10.117528062561014 #
face $-1 $-1 $498 $44 $-1 $652 forward single #
loop $-1 $-1 $653 $315 #
plane-surface $-1 53.96543161338073 -22.014798986121601 0 -1 0 0 0 0 1 forward_v I I I I #
coedge $-1 $327 $326 $654 $655 forward $316 $-1 #
coedge $-1 $656 $318 $327 $501 forward $191 $-1 #
coedge $-1 $318 $656 $319 $490 forward $191 $-1 #
coedge $-1 $320 $319 $653 $657 reversed $121 $-1 #
edge $-1 $658 -5.8443754032356665 $494 5.8443754032356736 $319 $659 forward 7 unknown #
coedge $-1 $660 $324 $320 $492 forward $498 $-1 #
edge $-1 $493 -5.8443754032356736 $661 5.8443754032356665 $320 $662 forward 7 unknown #
vertex $-1 $492 $663 #
vertex $-1 $323 $664 #
straight-curve $-1 42.27668080690939 -23.514798986121601 0 0 0 -1 I I #
straight-curve $-1 42.27668080690939 0 -10.117528062561014 0 1 0 I I #
coedge $-1 $324 $660 $326 $500 forward $498 $-1 #
loop $-1 $-1 $324 $483 #
straight-curve $-1 42.27668080690939 0 10.117528062561014 0 -1 0 I I #
edge $-1 $665 -5.8443754032356665 $328 5.8443754032356665 $326 $666 forward 7 unknown #
edge $-1 $329 -5.8443754032356665 $667 5.8443754032356665 $327 $668 forward 7 unknown #
point $-1 42.276680806909397 -20.514798986121601 10.117528062561014 #
point $-1 42.276680806909397 -20.514798986121601 -10.117528062561014 #
plane-surface $-1 0 0 10.117528062561014 0 0 1 1 0 0 forward_v I I I I #
coedge $-1 $515 $514 $507 $669 forward $332 $-1 #
coedge $-1 $507 $334 $336 $511 reversed $199 $-1 #
coedge $-1 $334 $506 $505 $669 reversed $199 $-1 #
coedge $-1 $342 $337 $334 $509 forward $343 $-1 #
edge $-1 $512 1.3477784739887824 $670 5.9316615522037104 $508 $671 forward 7 unknown #
coedge $-1 $336 $335 $515 $672 reversed $125 $-1 #
edge $-1 $673 -47.029597972243216 $512 -41.363606848448271 $506 $674 forward 7 unknown #
vertex $-1 $338 $675 #
straight-curve $-1 12.963913780668019 18.93091590790667 10.117528062561014 1 0 0 I I #
coedge $-1 $505 $339 $342 $519 reversed $332 $-1 #
coedge $-1 $339 $505 $510 $672 forward $332 $-1 #
vertex $-1 $340 $676 #
straight-curve $-1 21.267725122234026 23.514798986121601 51.417776238057655 0 0 1 I I #
straight-curve $-1 21.267725122234026 -14.532944755458431 34.430446460315792 0 0.80901698891910034 -0.5877852598018023 I I #
edge $-1 $670 -30.58793000043805 $344 -21.267725122234026 $514 $677 forward 7 unknown #
point $-1 21.267725122234026 23.514798986121601 10.117528062561014 #
point $-1 21.267725122234026 18.930915907906673 10.117528062561014 #
edge $-1 $678 1 $678 0 $347 $-1 forward 7 unknown #
vertex $-1 $348 $679 #
ellipse-curve $-1 23.930640801720891 20.635072187212337 7.6433180412746653 0 0.5877852598018023 0.80901698891910034 0.5 0 0 1 I I #
point $-1 24.430640801720891 21.222857447014139 8.4523350301937654 #
edge $-1 $680 1 $680 0 $351 $-1 forward 7 unknown #
vertex $-1 $352 $681 #
ellipse-curve $-1 27.925014320951185 20.635072187212337 7.6433180412746653 0 0.5877852598018023 0.80901698891910034 0.5 0 0 1 I I #
point $-1 28.425014320951185 21.222857447014139 8.4523350301937654 #
loop $-1 $-1 $363 $355 #
plane-surface $-1 0 -23.514798986121601 0 0 1 0 0 0 1 forward_v I I I I #
coedge $-1 $533 $358 $360 $537 reversed $221 $-1 #
coedge $-1 $358 $532 $682 $683 reversed $221 $-1 #
coedge $-1 $366 $361 $358 $535 forward $356 $-1 #
edge $-1 $538 -29.60001023734609 $684 -23.698808748513525 $534 $685 forward 7 unknown #
coedge $-1 $360 $359 $541 $686 reversed $139 $-1 #
edge $-1 $687 3.2580072563564968e-014 $538 10.835069179751766 $532 $688 forward 7 unknown #
vertex $-1 $362 $689 #
straight-curve $-1 -12.520224176905238 -17.613597497289035 10.117528062561014 -1 0 0 I I #
coedge $-1 $682 $363 $366 $545 reversed $530 $-1 #
coedge $-1 $363 $682 $536 $686 forward $530 $-1 #
vertex $-1 $364 $690 #
straight-curve $-1 -19.853071918530166 -23.514798986121598 23.540767293790591 0 0 1 I I #
straight-curve $-1 -19.853071918530166 -23.514798986121619 1.0304743531232461 0 -0.54463902268945019 -0.83867057594974714 I I #
edge $-1 $684 -78.348880999235845 $367 -67.974128128675233 $540 $691 forward 7 unknown #
point $-1 -19.853071918530169 -23.514798986121601 10.117528062561014 #
point $-1 -19.853071918530166 -17.613597497289035 10.117528062561014 #
edge $-1 $692 1 $692 0 $370 $-1 forward 7 unknown #
vertex $-1 $371 $693 #
ellipse-curve $-1 -25.040448353810476 -17.378698728733308 3.5053137025507213 0 -0.83867057594974714 0.54463902268945019 1.5 0 0 1 I I #
point $-1 -23.540448353810476 -20.564198241705309 5.5740012078421302 #
plane-surface $-1 0 0 10.117528062561014 0 0 1 1 0 0 forward_v I I I I #
coedge $-1 $563 $562 $555 $694 forward $375 $-1 #
coedge $-1 $555 $377 $379 $559 reversed $236 $-1 #
coedge $-1 $377 $554 $553 $694 reversed $236 $-1 #
coedge $-1 $385 $380 $377 $557 forward $386 $-1 #
edge $-1 $560 -29.60001023734609 $695 -23.698808748513525 $556 $696 forward 7 unknown #
coedge $-1 $379 $378 $563 $697 reversed $148 $-1 #
edge $-1 $698 3.2580072563564968e-014 $560 10.835069179751766 $554 $699 forward 7 unknown #
vertex $-1 $381 $700 #
straight-curve $-1 -4.6300322601475798 -17.613597497289035 10.117528062561014 -1 0 0 I I #
coedge $-1 $553 $382 $385 $567 reversed $375 $-1 #
coedge $-1 $382 $553 $558 $697 forward $375 $-1 #
vertex $-1 $383 $701 #
straight-curve $-1 -4.0726880850148506 -23.514798986121598 23.540767293790591 0 0 1 I I #
straight-curve $-1 -4.0726880850148506 -23.514798986121619 1.0304743531232461 0 -0.54463902268945019 -0.83867057594974714 I I #
edge $-1 $695 -62.56849716572053 $387 -52.193744295159917 $562 $702 forward 7 unknown #
point $-1 -4.0726880850148532 -23.514798986121601 10.117528062561014 #
point $-1 -4.0726880850148506 -17.613597497289035 10.117528062561014 #
edge $-1 $703 1 $703 0 $390 $-1 forward 7 unknown #
vertex $-1 $391 $704 #
ellipse-curve $-1 -9.2600645202951597 -17.378698728733308 3.5053137025507213 0 -0.83867057594974714 0.54463902268945019 1.5 0 0 1 I I #
point $-1 -7.7600645202951597 -20.564198241705309 5.5740012078421302 #
plane-surface $-1 0 0 10.117528062561014 0 0 1 1 0 0 forward_v I I I I #
coedge $-1 $585 $584 $577 $705 forward $395 $-1 #
coedge $-1 $577 $397 $399 $581 reversed $251 $-1 #
coedge $-1 $397 $576 $575 $705 reversed $251 $-1 #
coedge $-1 $405 $400 $397 $579 forward $406 $-1 #
edge $-1 $582 -29.60001023734609 $706 -23.698808748513525 $578 $707 forward 7 unknown #
coedge $-1 $399 $398 $585 $708 reversed $157 $-1 #
edge $-1 $709 3.2580072563564968e-014 $582 10.835069179751766 $576 $710 forward 7 unknown #
vertex $-1 $401 $711 #
straight-curve $-1 3.2601596566100781 -17.613597497289035 10.117528062561014 -1 0 0 I I #
coedge $-1 $575 $402 $405 $589 reversed $395 $-1 #
coedge $-1 $402 $575 $580 $708 forward $395 $-1 #
vertex $-1 $403 $712 #
straight-curve $-1 11.707695748500466 -23.514798986121598 23.540767293790591 0 0 1 I I #
straight-curve $-1 11.707695748500466 -23.514798986121619 1.0304743531232461 0 -0.54463902268945019 -0.83867057594974714 I I #
edge $-1 $706 -46.788113332205214 $407 -36.413360461644601 $584 $713 forward 7 unknown #
point $-1 11.707695748500463 -23.514798986121601 10.117528062561014 #
point $-1 11.707695748500466 -17.613597497289035 10.117528062561014 #
edge $-1 $714 1 $714 0 $410 $-1 forward 7 unknown #
vertex $-1 $411 $715 #
ellipse-curve $-1 6.5203193132201562 -17.378698728733308 3.5053137025507213 0 -0.83867057594974714 0.54463902268945019 1.5 0 0 1 I I #
point $-1 8.0203193132201562 -20.564198241705309 5.5740012078421302 #
plane-surface $-1 0 0 10.117528062561014 0 0 1 1 0 0 forward_v I I I I #
coedge $-1 $607 $606 $599 $716 forward $415 $-1 #
coedge $-1 $599 $417 $419 $603 reversed $266 $-1 #
coedge $-1 $417 $598 $597 $716 reversed $266 $-1 #
coedge $-1 $425 $420 $417 $601 forward $426 $-1 #
edge $-1 $604 -29.60001023734609 $717 -23.698808748513525 $600 $718 forward 7 unknown #
coedge $-1 $419 $418 $607 $719 reversed $166 $-1 #
edge $-1 $720 3.2580072563564968e-014 $604 10.835069179751766 $598 $721 forward 7 unknown #
vertex $-1 $421 $722 #
straight-curve $-1 11.15035157336774 -17.613597497289035 10.117528062561014 -1 0 0 I I #
coedge $-1 $597 $422 $425 $611 reversed $415 $-1 #
coedge $-1 $422 $597 $602 $719 forward $415 $-1 #
vertex $-1 $423 $723 #
straight-curve $-1 27.488079582015789 -23.514798986121598 23.540767293790591 0 0 1 I I #
straight-curve $-1 27.488079582015789 -23.514798986121619 1.0304743531232461 0 -0.54463902268945019 -0.83867057594974714 I I #
edge $-1 $717 -31.007729498689894 $427 -20.632976628129274 $606 $724 forward 7 unknown #
point $-1 27.488079582015789 -23.514798986121601 10.117528062561014 #
point $-1 27.488079582015789 -17.613597497289035 10.117528062561014 #
edge $-1 $725 1 $725 0 $430 $-1 forward 7 unknown #
vertex $-1 $431 $726 #
ellipse-curve $-1 22.300703146735479 -17.378698728733308 3.5053137025507213 0 -0.83867057594974714 0.54463902268945019 1.5 0 0 1 I I #
point $-1 23.800703146735479 -20.564198241705309 5.5740012078421302 #
plane-surface $-1 0 23.514798986121601 0 0 -1 0 0 0 -1 forward_v I I I I #
coedge $-1 $631 $622 $624 $727 forward $435 $-1 #
coedge $-1 $622 $631 $437 $621 reversed $435 $-1 #
edge $-1 $627 -10.117528062561014 $633 10.117528062561014 $620 $728 forward 7 unknown #
coedge $-1 $619 $620 $438 $623 reversed $435 $-1 #
edge $-1 $625 -23.514798986121601 $627 23.514798986121601 $622 $729 forward 7 unknown #
coedge $-1 $439 $446 $619 $727 reversed $447 $-1 #
vertex $-1 $440 $730 #
straight-curve $-1 0 23.514798986121601 10.117528062561014 -1 0 0 I I #
vertex $-1 $623 $731 #
straight-curve $-1 0 -23.514798986121601 10.117528062561014 1 0 0 I I #
point $-1 42.27668080690939 -23.514798986121601 10.117528062561014 #
point $-1 42.27668080690939 23.514798986121601 10.117528062561014 #
coedge $-1 $620 $619 $451 $632 reversed $435 $-1 #
edge $-1 $633 -23.514798986121601 $635 23.514798986121601 $631 $732 forward 7 unknown #
vertex $-1 $632 $733 #
straight-curve $-1 0 -23.514798986121601 -10.117528062561014 -1 0 0 I I #
vertex $-1 $453 $734 #
straight-curve $-1 0 23.514798986121601 -10.117528062561014 1 0 0 I I #
plane-surface $-1 -42.27668080690939 0 0 1 0 0 0 0 -1 forward_v I I I I #
edge $-1 $468 0.88987143049978634 $472 3.8898714304997863 $471 $735 forward 7 unknown #
edge $-1 $476 -3.8898714304997863 $467 -0.88987143049978634 $474 $736 forward 7 unknown #
straight-curve $-1 -33.32767520751306 -6.2797428609995727 0 0 0 -1 I I #
edge $-1 $644 -10.117528062561014 $642 10.117528062561014 $478 $737 forward 7 unknown #
vertex $-1 $641 $738 #
straight-curve $-1 -18.901089003605613 -3.2797428609995727 -10.117528062561014 1 0 0 I I #
vertex $-1 $479 $739 #
straight-curve $-1 -18.901089003605613 -3.2797428609995727 10.117528062561014 -1 0 0 I I #
point $-1 -33.32767520751306 -3.2797428609995727 10.117528062561014 #
point $-1 -33.32767520751306 -3.2797428609995727 -10.117528062561014 #
point $-1 -33.32767520751306 -6.2797428609995727 -10.117528062561014 #
point $-1 -33.32767520751306 -6.2797428609995727 10.117528062561014 #
straight-curve $-1 -42.27668080690939 0 10.117528062561014 0 -1 0 I I #
straight-curve $-1 -42.27668080690939 0 -10.117528062561014 0 1 0 I I #
plane-surface $-1 0 0 10.117528062561014 0 0 1 1 0 0 forward_v I I I I #
coedge $-1 $740 $741 $489 $657 forward $484 $-1 #
coedge $-1 $741 $740 $486 $655 reversed $484 $-1 #
edge $-1 $665 -10.117528062561014 $667 10.117528062561014 $654 $742 forward 7 unknown #
coedge $-1 $488 $487 $740 $743 forward $191 $-1 #
edge $-1 $661 -10.117528062561014 $658 10.117528062561014 $653 $744 forward 7 unknown #
vertex $-1 $657 $745 #
straight-curve $-1 48.121056210145063 -23.514798986121601 -10.117528062561014 -1 0 0 I I #
coedge $-1 $497 $491 $741 $746 forward $498 $-1 #
vertex $-1 $746 $747 #
straight-curve $-1 48.121056210145063 -23.514798986121601 10.117528062561014 1 0 0 I I #
point $-1 42.27668080690939 -23.514798986121601 10.117528062561014 #
point $-1 42.27668080690939 -23.514798986121601 -10.117528062561014 #
vertex $-1 $746 $748 #
straight-curve $-1 48.121056210145063 -20.514798986121601 10.117528062561014 -1 0 0 I I #
vertex $-1 $743 $749 #
straight-curve $-1 48.121056210145063 -20.514798986121601 -10.117528062561014 1 0 0 I I #
edge $-1 $670 41.300248175496641 $673 44.63063424023116 $505 $750 forward 7 unknown #
vertex $-1 $519 $751 #
straight-curve $-1 30.58793000043805 17.583137433917891 10.117528062561014 0 1 0 I I #
edge $-1 $673 -17.624016219770031 $516 -8.3038113415660071 $515 $752 forward 7 unknown #
vertex $-1 $672 $753 #
straight-curve $-1 30.58793000043805 -14.532944755458431 34.430446460315792 0 -0.80901698891910034 0.5877852598018023 I I #
point $-1 30.58793000043805 18.930915907906673 10.117528062561014 #
point $-1 21.267725122234026 23.514798986121605 6.7871419978264989 #
straight-curve $-1 0 23.514798986121601 10.117528062561014 -1 0 0 I I #
vertex $-1 $522 $754 #
point $-1 24.430640801720891 20.635072187212337 7.6433180412746653 #
vertex $-1 $526 $755 #
point $-1 28.425014320951185 20.635072187212337 7.6433180412746653 #
coedge $-1 $541 $540 $533 $683 forward $530 $-1 #
edge $-1 $684 13.423239231229577 $687 22.510292940667316 $682 $756 forward 7 unknown #
vertex $-1 $545 $757 #
straight-curve $-1 -30.227824789090786 -47.213607734635126 10.117528062561014 0 -1 0 I I #
edge $-1 $687 -17.707600612185548 $542 -7.3328477416249278 $541 $758 forward 7 unknown #
vertex $-1 $686 $759 #
straight-curve $-1 -30.227824789090786 -23.514798986121619 1.0304743531232461 0 0.54463902268945019 0.83867057594974714 I I #
point $-1 -30.227824789090786 -17.613597497289035 10.117528062561014 #
point $-1 -19.853071918530166 -23.514798986121601 1.0304743531232734 #
straight-curve $-1 48.121056210145063 -23.514798986121601 10.117528062561014 1 0 0 I I #
vertex $-1 $548 $760 #
point $-1 -23.540448353810476 -17.378698728733308 3.5053137025507213 #
edge $-1 $695 13.423239231229577 $698 22.510292940667316 $553 $761 forward 7 unknown #
vertex $-1 $567 $762 #
straight-curve $-1 -14.44744095557547 -47.213607734635126 10.117528062561014 0 -1 0 I I #
edge $-1 $698 -9.8174086954278899 $564 0.55734417513272927 $563 $763 forward 7 unknown #
vertex $-1 $697 $764 #
straight-curve $-1 -14.44744095557547 -23.514798986121619 1.0304743531232461 0 0.54463902268945019 0.83867057594974714 I I #
point $-1 -14.44744095557547 -17.613597497289035 10.117528062561014 #
point $-1 -4.0726880850148506 -23.514798986121601 1.0304743531232734 #
straight-curve $-1 48.121056210145063 -23.514798986121601 10.117528062561014 1 0 0 I I #
vertex $-1 $570 $765 #
point $-1 -7.7600645202951597 -17.378698728733308 3.5053137025507213 #
edge $-1 $706 13.423239231229577 $709 22.510292940667316 $575 $766 forward 7 unknown #
vertex $-1 $589 $767 #
straight-curve $-1 1.3329428779398471 -47.213607734635126 10.117528062561014 0 -1 0 I I #
edge $-1 $709 -1.927216778670231 $586 8.4475360918903881 $585 $768 forward 7 unknown #
vertex $-1 $708 $769 #
straight-curve $-1 1.3329428779398471 -23.514798986121619 1.0304743531232461 0 0.54463902268945019 0.83867057594974714 I I #
point $-1 1.3329428779398471 -17.613597497289035 10.117528062561014 #
point $-1 11.707695748500466 -23.514798986121601 1.0304743531232734 #
straight-curve $-1 48.121056210145063 -23.514798986121601 10.117528062561014 1 0 0 I I #
vertex $-1 $592 $770 #
point $-1 8.0203193132201562 -17.378698728733308 3.5053137025507213 #
edge $-1 $717 13.423239231229577 $720 22.510292940667316 $597 $771 forward 7 unknown #
vertex $-1 $611 $772 #
straight-curve $-1 17.113326711455169 -47.213607734635126 10.117528062561014 0 -1 0 I I #
edge $-1 $720 5.9629751380874296 $608 16.33772800864805 $607 $773 forward 7 unknown #
vertex $-1 $719 $774 #
straight-curve $-1 17.113326711455169 -23.514798986121619 1.0304743531232461 0 0.54463902268945019 0.83867057594974714 I I #
point $-1 17.113326711455169 -17.613597497289035 10.117528062561014 #
point $-1 27.488079582015789 -23.514798986121601 1.0304743531232734 #
straight-curve $-1 48.121056210145063 -23.514798986121601 10.117528062561014 1 0 0 I I #
vertex $-1 $614 $775 #
point $-1 23.800703146735479 -17.378698728733308 3.5053137025507213 #
edge $-1 $625 -10.117528062561014 $635 10.117528062561014 $624 $776 forward 7 unknown #
straight-curve $-1 -42.27668080690939 -23.514798986121601 0 0 0 -1 I I #
straight-curve $-1 -42.27668080690939 0 10.117528062561014 0 -1 0 I I #
point $-1 -42.27668080690939 23.514798986121601 10.117528062561014 #
point $-1 -42.27668080690939 -23.514798986121601 10.117528062561014 #
straight-curve $-1 -42.27668080690939 0 -10.117528062561014 0 1 0 I I #
point $-1 -42.27668080690939 -23.514798986121601 -10.117528062561014 #
point $-1 -42.27668080690939 23.514798986121601 -10.117528062561014 #
straight-curve $-1 -33.32767520751306 -2.3898714304997863 -10.117528062561014 0 -1 0 I I #
straight-curve $-1 -33.32767520751306 -2.3898714304997863 10.117528062561014 0 1 0 I I #
straight-curve $-1 -42.27668080690939 -3.2797428609995727 0 0 0 -1 I I #
point $-1 -42.27668080690939 -3.2797428609995727 -10.117528062561014 #
point $-1 -42.27668080690939 -3.2797428609995727 10.117528062561014 #
coedge $-1 $654 $653 $656 $743 reversed $484 $-1 #
coedge $-1 $653 $654 $660 $746 reversed $484 $-1 #
straight-curve $-1 53.96543161338073 -20.514798986121601 0 0 0 -1 I I #
edge $-1 $667 -1.5 $658 1.5 $740 $777 forward 7 unknown #
straight-curve $-1 53.96543161338073 -23.514798986121601 0 0 0 -1 I I #
point $-1 53.96543161338073 -23.514798986121601 -10.117528062561014 #
edge $-1 $661 -1.5 $665 1.5 $741 $778 forward 7 unknown #
point $-1 53.96543161338073 -23.514798986121601 10.117528062561014 #
point $-1 53.96543161338073 -20.514798986121601 10.117528062561014 #
point $-1 53.96543161338073 -20.514798986121601 -10.117528062561014 #
straight-curve $-1 30.58793000043805 23.514798986121601 51.417776238057655 0 0 -1 I I #
point $-1 30.58793000043805 23.514798986121601 10.117528062561014 #
straight-curve $-1 12.963913780668019 23.514798986121601 6.7871419978265024 -1 0 0 I I #
point $-1 30.58793000043805 23.514798986121605 6.7871419978264989 #
point $-1 23.930640801720891 20.341179557311435 7.2388095468151148 #
point $-1 27.925014320951185 20.341179557311435 7.2388095468151148 #
straight-curve $-1 -30.227824789090786 -23.514798986121598 23.540767293790591 0 0 -1 I I #
point $-1 -30.227824789090782 -23.514798986121601 10.117528062561014 #
straight-curve $-1 -12.520224176905238 -23.514798986121601 1.0304743531232781 1 0 0 I I #
point $-1 -30.227824789090786 -23.514798986121601 1.0304743531232734 #
point $-1 -25.040448353810476 -16.120692864808685 2.6883551685165457 #
straight-curve $-1 -14.44744095557547 -23.514798986121598 23.540767293790591 0 0 -1 I I #
point $-1 -14.447440955575466 -23.514798986121601 10.117528062561014 #
straight-curve $-1 -4.6300322601475798 -23.514798986121601 1.0304743531232781 1 0 0 I I #
point $-1 -14.44744095557547 -23.514798986121601 1.0304743531232734 #
point $-1 -9.2600645202951597 -16.120692864808685 2.6883551685165457 #
straight-curve $-1 1.3329428779398471 -23.514798986121598 23.540767293790591 0 0 -1 I I #
point $-1 1.3329428779398498 -23.514798986121601 10.117528062561014 #
straight-curve $-1 3.2601596566100781 -23.514798986121601 1.0304743531232781 1 0 0 I I #
point $-1 1.3329428779398471 -23.514798986121601 1.0304743531232734 #
point $-1 6.5203193132201562 -16.120692864808685 2.6883551685165457 #
straight-curve $-1 17.113326711455169 -23.514798986121598 23.540767293790591 0 0 -1 I I #
point $-1 17.113326711455169 -23.514798986121601 10.117528062561014 #
straight-curve $-1 11.15035157336774 -23.514798986121601 1.0304743531232781 1 0 0 I I #
point $-1 17.113326711455169 -23.514798986121601 1.0304743531232734 #
point $-1 22.300703146735479 -16.120692864808685 2.6883551685165457 #
straight-curve $-1 -42.27668080690939 23.514798986121601 0 0 0 -1 I I #
straight-curve $-1 53.96543161338073 -22.014798986121601 -10.117528062561014 0 -1 0 I I #
straight-curve $-1 53.96543161338073 -22.014798986121601 10.117528062561014 0 1 0 I I #
End-of-ACIS-data 