500 0 8 0           
7 Unknown 11 ACIS 5.0 NT 24 Fri Mar 26 14:54:42 1999 
-1 9.9999999999999995e-007 1e-010 
body $-1 $8 $-1 $9 #
body $-1 $10 $-1 $11 #
body $-1 $12 $-1 $13 #
body $-1 $14 $-1 $15 #
body $-1 $16 $-1 $17 #
body $-1 $18 $-1 $19 #
body $-1 $20 $-1 $21 #
body $-1 $22 $-1 $23 #
lump $-1 $-1 $24 $0 #
transform $-1 1 0 0 0 1 0 0 0 1 69.478438673055209 39.047404147340721 16.135311651826783 1 rotate no_reflect no_shear #
lump $-1 $-1 $25 $1 #
transform $-1 1 0 0 0 1 0 0 0 1 69.478438673055209 39.047404147340721 16.135311651826783 1 rotate no_reflect no_shear #
lump $-1 $-1 $26 $2 #
transform $-1 1 0 0 0 1 0 0 0 1 69.478438673055209 39.047404147340721 16.135311651826783 1 rotate no_reflect no_shear #
lump $-1 $-1 $27 $3 #
transform $-1 1 0 0 0 1 0 0 0 1 69.478438673055209 39.047404147340721 16.135311651826783 1 rotate no_reflect no_shear #
lump $-1 $-1 $28 $4 #
transform $-1 1 0 0 0 1 0 0 0 1 69.478438673055209 39.047404147340721 16.135311651826783 1 rotate no_reflect no_shear #
lump $-1 $-1 $29 $5 #
transform $-1 1 0 0 0 1 0 0 0 1 69.478438673055209 39.047404147340721 16.135311651826783 1 rotate no_reflect no_shear #
lump $-1 $-1 $30 $6 #
transform $-1 1 0 0 0 1 0 0 0 1 69.478438673055209 39.047404147340721 16.135311651826783 1 rotate no_reflect no_shear #
lump $-1 $-1 $31 $7 #
transform $-1 1 0 0 0 1 0 0 0 1 69.478438673055209 39.047404147340721 16.135311651826783 1 rotate no_reflect no_shear #
shell $-1 $-1 $-1 $32 $-1 $8 #
shell $-1 $-1 $-1 $33 $-1 $10 #
shell $-1 $-1 $-1 $34 $-1 $12 #
shell $-1 $-1 $-1 $35 $-1 $14 #
shell $-1 $-1 $-1 $36 $-1 $16 #
shell $-1 $-1 $-1 $37 $-1 $18 #
shell $-1 $-1 $-1 $38 $-1 $20 #
shell $-1 $-1 $-1 $39 $-1 $22 #
face $-1 $40 $41 $24 $-1 $42 forward single #
face $-1 $43 $44 $25 $-1 $45 reversed single #
face $-1 $46 $47 $26 $-1 $48 forward single #
face $-1 $49 $50 $27 $-1 $51 forward single #
face $-1 $52 $53 $28 $-1 $54 forward single #
face $-1 $55 $56 $29 $-1 $57 reversed single #
face $-1 $58 $59 $30 $-1 $60 forward single #
face $-1 $61 $62 $31 $-1 $63 forward single #
face $-1 $64 $65 $24 $-1 $66 reversed single #
loop $-1 $-1 $67 $32 #
plane-surface $-1 0 0 16.135311651826783 0 0 1 1 0 0 forward_v I I I I #
face $-1 $68 $69 $25 $-1 $70 reversed single #
loop $-1 $-1 $71 $33 #
plane-surface $-1 28.620736651271599 -10.543600575565408 204.29098375618091 0 -1 0 -0.54463904215088732 0 -0.83867056331134215 forward_v I I I I #
face $-1 $72 $73 $26 $-1 $74 forward single #
loop $-1 $75 $76 $34 #
cone-surface $-1 64.753825599200994 -28.000877842700611 11.646779079167914 -0.54463904215088732 0 -0.83867056331134215 1.2580058449670133 0 -0.81695856322633098 1 I I 0 1 1.5 forward I I I I #
face $-1 $77 $78 $27 $-1 $79 forward single #
loop $-1 $80 $81 $35 #
cone-surface $-1 64.753825599200994 -21.454398867524908 11.646779079167914 -0.54463904215088732 0 -0.83867056331134215 1.2580058449670133 0 -0.81695856322633098 1 I I 0 1 1.5 forward I I I I #
face $-1 $82 $83 $28 $-1 $84 forward single #
loop $-1 $85 $86 $36 #
cone-surface $-1 64.753825599200994 -14.907919892349206 11.646779079167914 -0.54463904215088732 0 -0.83867056331134215 1.2580058449670133 0 -0.81695856322633098 1 I I 0 1 1.5 forward I I I I #
face $-1 $87 $88 $29 $-1 $89 reversed single #
loop $-1 $-1 $90 $37 #
plane-surface $-1 -184.67891207984604 -14.218953608106016 90.052903357836712 0 1 0 -0.82903758062907751 0 0.55919289150049634 forward_v I I I I #
face $-1 $91 $92 $30 $-1 $93 forward single #
loop $-1 $94 $95 $38 #
cone-surface $-1 -67.425500924915056 -8.4024533486055617 13.718801240876408 0.82903758062907751 0 -0.55919289150049634 0.27959644575024817 0 0.41451879031453875 1 I I 0 1 0.5 forward I I I I #
face $-1 $96 $97 $31 $-1 $98 forward single #
loop $-1 $99 $100 $39 #
cone-surface $-1 -67.425500924915056 0.32229704064512532 13.718801240876408 0.82903758062907751 0 -0.55919289150049634 0.27959644575024817 0 0.41451879031453875 1 I I 0 1 0.5 forward I I I I #
face $-1 $101 $102 $24 $-1 $103 reversed single #
loop $-1 $-1 $104 $40 #
plane-surface $-1 0 0 -16.135311651826783 0 0 1 1 0 0 forward_v I I I I #
coedge $-1 $105 $106 $107 $108 forward $41 $-1 #
face $-1 $109 $110 $25 $-1 $111 reversed single #
loop $-1 $-1 $112 $43 #
plane-surface $-1 -47.060603926792311 -21.454398867524908 87.751941156333402 0.54463904215088732 0 0.83867056331134215 0.83867056331134215 0 -0.54463904215088732 forward_v I I I I #
coedge $-1 $113 $114 $115 $116 reversed $44 $-1 #
face $-1 $-1 $117 $26 $-1 $118 forward single #
loop $-1 $119 $120 $46 #
cone-surface $-1 62.75028627053787 -28.000877842700611 8.5615991208041891 -0.54463904215088732 0 -0.83867056331134215 0.62900292248350664 0 -0.40847928161316549 1 I I -0.70710678118654757 0.70710678118654757 0.75 forward I I I I #
loop $-1 $-1 $121 $34 #
coedge $-1 $76 $76 $122 $123 reversed $47 $-1 #
face $-1 $-1 $124 $27 $-1 $125 forward single #
loop $-1 $126 $127 $49 #
cone-surface $-1 62.75028627053787 -21.454398867524908 8.5615991208041891 -0.54463904215088732 0 -0.83867056331134215 0.62900292248350664 0 -0.40847928161316549 1 I I -0.70710678118654757 0.70710678118654757 0.75 forward I I I I #
loop $-1 $-1 $128 $35 #
coedge $-1 $81 $81 $129 $130 reversed $50 $-1 #
face $-1 $-1 $131 $28 $-1 $132 forward single #
loop $-1 $133 $134 $52 #
cone-surface $-1 62.75028627053787 -14.907919892349206 8.5615991208041891 -0.54463904215088732 0 -0.83867056331134215 0.62900292248350664 0 -0.40847928161316549 1 I I -0.70710678118654757 0.70710678118654757 0.75 forward I I I I #
loop $-1 $-1 $135 $36 #
coedge $-1 $86 $86 $136 $137 reversed $53 $-1 #
face $-1 $138 $139 $29 $-1 $140 reversed single #
loop $-1 $-1 $141 $55 #
plane-surface $-1 -69.478438673055194 -4.0400781539802111 12.349205320785416 -0.82903758062907751 0 0.55919289150049634 0.55919289150049634 0 0.82903758062907751 forward_v I I I I #
coedge $-1 $142 $143 $144 $145 reversed $56 $-1 #
face $-1 $-1 $146 $30 $-1 $147 forward single #
loop $-1 $148 $149 $58 #
cone-surface $-1 -66.442184224827955 -8.4024533486055617 13.055545772571591 0.82903758062907751 0 -0.55919289150049634 0.13979822287512408 0 0.20725939515726938 1 I I -0.70710678118654746 0.70710678118654746 0.25 forward I I I I #
loop $-1 $-1 $150 $38 #
coedge $-1 $95 $95 $151 $152 reversed $59 $-1 #
face $-1 $-1 $153 $31 $-1 $154 forward single #
loop $-1 $155 $156 $61 #
cone-surface $-1 -66.442184224827955 0.32229704064512532 13.055545772571591 0.82903758062907751 0 -0.55919289150049634 0.13979822287512408 0 0.20725939515726938 1 I I -0.70710678118654746 0.70710678118654746 0.25 forward I I I I #
loop $-1 $-1 $157 $39 #
coedge $-1 $100 $100 $158 $159 reversed $62 $-1 #
face $-1 $160 $161 $24 $-1 $162 reversed single #
loop $-1 $-1 $163 $64 #
plane-surface $-1 0 -39.047404147340721 0 0 1 0 0 0 1 forward_v I I I I #
coedge $-1 $164 $165 $166 $167 forward $65 $-1 #
coedge $-1 $168 $67 $169 $170 forward $41 $-1 #
coedge $-1 $67 $168 $171 $172 forward $41 $-1 #
coedge $-1 $173 $174 $67 $108 reversed $175 $-1 #
edge $-1 $176 -39.047404147340721 $177 39.047404147340721 $107 $178 forward 7 unknown #
face $-1 $179 $180 $25 $-1 $181 forward single #
loop $-1 $-1 $182 $68 #
plane-surface $-1 28.620736651271599 -32.36519715948441 204.29098375618091 0 1 0 0.54463904215088732 0 0.83867056331134215 forward_v I I I I #
coedge $-1 $183 $184 $185 $186 reversed $69 $-1 #
coedge $-1 $114 $71 $187 $188 reversed $44 $-1 #
coedge $-1 $71 $113 $183 $189 reversed $44 $-1 #
coedge $-1 $185 $190 $71 $116 forward $180 $-1 #
edge $-1 $191 -55.168070347419409 $192 -48.908964293810918 $115 $193 forward 7 unknown #
loop $-1 $-1 $122 $72 #
plane-surface $-1 -47.060603926792311 -21.454398867524908 87.751941156333402 0.54463904215088732 0 0.83867056331134215 0.83867056331134215 0 -0.54463904215088732 forward_v I I I I #
loop $-1 $-1 $194 $46 #
coedge $-1 $120 $120 $121 $195 reversed $73 $-1 #
coedge $-1 $121 $121 $120 $195 forward $75 $-1 #
coedge $-1 $122 $122 $76 $123 forward $117 $-1 #
edge $-1 $196 0 $196 6.2831853071796004 $122 $197 forward 7 unknown #
loop $-1 $-1 $129 $77 #
plane-surface $-1 -47.060603926792311 -21.454398867524908 87.751941156333402 0.54463904215088732 0 0.83867056331134215 0.83867056331134215 0 -0.54463904215088732 forward_v I I I I #
loop $-1 $-1 $198 $49 #
coedge $-1 $127 $127 $128 $199 reversed $78 $-1 #
coedge $-1 $128 $128 $127 $199 forward $80 $-1 #
coedge $-1 $129 $129 $81 $130 forward $124 $-1 #
edge $-1 $200 0 $200 6.2831853071796004 $129 $201 forward 7 unknown #
loop $-1 $-1 $136 $82 #
plane-surface $-1 -47.060603926792311 -21.454398867524908 87.751941156333402 0.54463904215088732 0 0.83867056331134215 0.83867056331134215 0 -0.54463904215088732 forward_v I I I I #
loop $-1 $-1 $202 $52 #
coedge $-1 $134 $134 $135 $203 reversed $83 $-1 #
coedge $-1 $135 $135 $134 $203 forward $85 $-1 #
coedge $-1 $136 $136 $86 $137 forward $131 $-1 #
edge $-1 $204 0 $204 6.2831853071796004 $136 $205 forward 7 unknown #
face $-1 $206 $207 $29 $-1 $208 reversed single #
loop $-1 $-1 $209 $87 #
plane-surface $-1 -184.67891207984604 6.138797300145594 90.052903357836712 0 -1 0 0.82903758062907751 0 -0.55919289150049634 forward_v I I I I #
coedge $-1 $210 $211 $212 $213 reversed $88 $-1 #
coedge $-1 $143 $90 $214 $215 reversed $56 $-1 #
coedge $-1 $90 $142 $210 $216 reversed $56 $-1 #
coedge $-1 $212 $217 $90 $145 forward $218 $-1 #
edge $-1 $219 22.861017366867813 $220 25.414778253288489 $144 $221 forward 7 unknown #
loop $-1 $-1 $151 $91 #
plane-surface $-1 -69.478438673055194 -4.0400781539802111 12.349205320785416 -0.82903758062907751 0 0.55919289150049634 0.55919289150049634 0 0.82903758062907751 forward_v I I I I #
loop $-1 $-1 $222 $58 #
coedge $-1 $149 $149 $150 $223 reversed $92 $-1 #
coedge $-1 $150 $150 $149 $223 forward $94 $-1 #
coedge $-1 $151 $151 $95 $152 forward $146 $-1 #
edge $-1 $224 0 $224 6.2831853071796004 $151 $225 forward 7 unknown #
loop $-1 $-1 $158 $96 #
plane-surface $-1 -69.478438673055194 -4.0400781539802111 12.349205320785416 -0.82903758062907751 0 0.55919289150049634 0.55919289150049634 0 0.82903758062907751 forward_v I I I I #
loop $-1 $-1 $226 $61 #
coedge $-1 $156 $156 $157 $227 reversed $97 $-1 #
coedge $-1 $157 $157 $156 $227 forward $99 $-1 #
coedge $-1 $158 $158 $100 $159 forward $153 $-1 #
edge $-1 $228 0 $228 6.2831853071796004 $158 $229 forward 7 unknown #
face $-1 $230 $231 $24 $-1 $232 reversed single #
loop $-1 $-1 $233 $101 #
plane-surface $-1 -69.478438673055209 0 0 1 0 0 0 0 -1 forward_v I I I I #
coedge $-1 $234 $171 $235 $236 forward $102 $-1 #
coedge $-1 $237 $104 $234 $238 forward $65 $-1 #
coedge $-1 $104 $237 $239 $240 forward $65 $-1 #
coedge $-1 $174 $173 $104 $167 reversed $175 $-1 #
edge $-1 $241 -39.047404147340721 $242 39.047404147340721 $166 $243 forward 7 unknown #
coedge $-1 $106 $105 $244 $245 forward $41 $-1 #
coedge $-1 $246 $247 $105 $170 reversed $231 $-1 #
edge $-1 $177 -69.478438673055209 $248 69.478438673055209 $169 $249 forward 7 unknown #
coedge $-1 $163 $250 $106 $172 reversed $102 $-1 #
edge $-1 $251 -69.478438673055209 $176 69.478438673055209 $171 $252 forward 7 unknown #
coedge $-1 $166 $107 $250 $253 forward $175 $-1 #
coedge $-1 $107 $166 $246 $254 reversed $175 $-1 #
loop $-1 $-1 $173 $230 #
vertex $-1 $108 $255 #
vertex $-1 $108 $256 #
straight-curve $-1 69.478438673055209 0 16.135311651826783 0 1 0 I I #
face $-1 $-1 $257 $25 $-1 $258 reversed single #
loop $-1 $-1 $115 $109 #
plane-surface $-1 0 0 16.135311651826783 0 0 1 1 0 0 forward_v I I I I #
coedge $-1 $259 $260 $261 $262 reversed $110 $-1 #
coedge $-1 $263 $112 $114 $189 forward $69 $-1 #
coedge $-1 $112 $263 $259 $264 forward $69 $-1 #
coedge $-1 $261 $115 $112 $186 forward $180 $-1 #
edge $-1 $192 -0.1835988581970458 $265 21.637997725721956 $185 $266 forward 7 unknown #
coedge $-1 $267 $268 $113 $188 forward $257 $-1 #
edge $-1 $269 -90.074891299820976 $191 -86.010180226263671 $187 $270 forward 7 unknown #
edge $-1 $192 131.49374900058282 $269 138.95687734611045 $114 $271 forward 7 unknown #
coedge $-1 $115 $261 $267 $272 forward $180 $-1 #
vertex $-1 $188 $273 #
vertex $-1 $116 $274 #
straight-curve $-1 14.3103683256358 -10.543600575565408 16.135311651826783 -1 0 0 I I #
coedge $-1 $194 $194 $-1 $275 reversed $119 $-1 #
edge $-1 $276 0 $276 6.2831853071796004 $120 $277 forward 7 unknown #
vertex $-1 $123 $278 #
ellipse-curve $-1 66.348885646250963 -28.000877842700611 14.102956115048135 0.54463904215088732 0 0.83867056331134215 1.2580058449670133 0 -0.81695856322633098 1 I I #
coedge $-1 $198 $198 $-1 $279 reversed $126 $-1 #
edge $-1 $280 0 $280 6.2831853071796004 $127 $281 forward 7 unknown #
vertex $-1 $130 $282 #
ellipse-curve $-1 66.348885646250963 -21.454398867524908 14.102956115048135 0.54463904215088732 0 0.83867056331134215 1.2580058449670133 0 -0.81695856322633098 1 I I #
coedge $-1 $202 $202 $-1 $283 reversed $133 $-1 #
edge $-1 $284 0 $284 6.2831853071796004 $134 $285 forward 7 unknown #
vertex $-1 $137 $286 #
ellipse-curve $-1 66.348885646250963 -14.907919892349206 14.102956115048135 0.54463904215088732 0 0.83867056331134215 1.2580058449670133 0 -0.81695856322633098 1 I I #
face $-1 $-1 $218 $29 $-1 $287 forward single #
loop $-1 $-1 $288 $138 #
plane-surface $-1 -69.478438673055209 0 0 1 0 0 0 0 -1 forward_v I I I I #
coedge $-1 $289 $290 $291 $292 reversed $139 $-1 #
coedge $-1 $293 $141 $143 $216 forward $88 $-1 #
coedge $-1 $141 $293 $289 $294 forward $88 $-1 #
coedge $-1 $291 $144 $141 $213 forward $218 $-1 #
edge $-1 $220 -12.198914531115911 $295 8.1588363771356995 $212 $296 forward 7 unknown #
coedge $-1 $297 $298 $142 $215 forward $207 $-1 #
edge $-1 $299 -32.677246358132962 $219 -28.891140027091573 $214 $300 forward 7 unknown #
edge $-1 $220 -4.5668693669694083 $299 2.5618607856530852e-014 $143 $301 forward 7 unknown #
coedge $-1 $144 $291 $297 $302 forward $218 $-1 #
loop $-1 $-1 $291 $206 #
vertex $-1 $215 $303 #
vertex $-1 $145 $304 #
straight-curve $-1 -92.339456039923022 -14.218953608106016 16.135311651826783 1 0 0 I I #
coedge $-1 $222 $222 $-1 $305 reversed $148 $-1 #
edge $-1 $306 0 $306 6.2831853071796004 $149 $307 forward 7 unknown #
vertex $-1 $152 $308 #
ellipse-curve $-1 -68.201558229844863 -8.4024533486055617 14.242258486306088 -0.82903758062907751 0 0.55919289150049634 0.27959644575024817 0 0.41451879031453875 1 I I #
coedge $-1 $226 $226 $-1 $309 reversed $155 $-1 #
edge $-1 $310 0 $310 6.2831853071796004 $156 $311 forward 7 unknown #
vertex $-1 $159 $312 #
ellipse-curve $-1 -68.201558229844863 0.32229704064512532 14.242258486306088 -0.82903758062907751 0 0.55919289150049634 0.27959644575024817 0 0.41451879031453875 1 I I #
face $-1 $-1 $175 $24 $-1 $313 reversed single #
loop $-1 $-1 $246 $160 #
plane-surface $-1 0 39.047404147340721 0 0 -1 0 0 0 -1 forward_v I I I I #
coedge $-1 $314 $244 $247 $315 forward $161 $-1 #
coedge $-1 $250 $163 $164 $238 reversed $102 $-1 #
coedge $-1 $244 $314 $163 $236 reversed $161 $-1 #
edge $-1 $251 -16.135311651826783 $316 16.135311651826783 $235 $317 forward 7 unknown #
coedge $-1 $165 $164 $314 $318 forward $65 $-1 #
edge $-1 $242 -69.478438673055209 $316 69.478438673055209 $234 $319 forward 7 unknown #
coedge $-1 $247 $246 $165 $240 reversed $231 $-1 #
edge $-1 $320 -69.478438673055209 $241 69.478438673055209 $239 $321 forward 7 unknown #
vertex $-1 $167 $322 #
vertex $-1 $253 $323 #
straight-curve $-1 69.478438673055209 0 -16.135311651826783 0 -1 0 I I #
coedge $-1 $233 $235 $168 $245 reversed $161 $-1 #
edge $-1 $248 -39.047404147340721 $251 39.047404147340721 $244 $324 forward 7 unknown #
coedge $-1 $239 $169 $174 $254 forward $231 $-1 #
coedge $-1 $169 $239 $233 $315 reversed $231 $-1 #
vertex $-1 $170 $325 #
straight-curve $-1 0 39.047404147340721 16.135311651826783 -1 0 0 I I #
coedge $-1 $171 $234 $173 $253 reversed $102 $-1 #
vertex $-1 $245 $326 #
straight-curve $-1 0 -39.047404147340721 16.135311651826783 1 0 0 I I #
edge $-1 $176 -16.135311651826783 $242 16.135311651826783 $173 $327 forward 7 unknown #
edge $-1 $177 -16.135311651826783 $241 16.135311651826783 $174 $328 forward 7 unknown #
point $-1 69.478438673055209 -39.047404147340721 16.135311651826783 #
point $-1 69.478438673055209 39.047404147340721 16.135311651826783 #
loop $-1 $-1 $187 $179 #
plane-surface $-1 69.478438673055209 0 0 -1 0 0 0 0 1 forward_v I I I I #
coedge $-1 $260 $182 $184 $264 reversed $110 $-1 #
coedge $-1 $182 $259 $329 $330 reversed $110 $-1 #
coedge $-1 $190 $185 $182 $262 forward $180 $-1 #
edge $-1 $265 48.908964293810918 $331 55.168070347419409 $261 $332 forward 7 unknown #
coedge $-1 $184 $183 $268 $333 reversed $69 $-1 #
edge $-1 $334 -138.95687734611045 $265 -131.49374900058282 $259 $335 forward 7 unknown #
vertex $-1 $186 $336 #
straight-curve $-1 63.21933261944671 -10.727199433762454 16.135311651826775 0 -1 0 I I #
coedge $-1 $329 $187 $190 $272 reversed $257 $-1 #
coedge $-1 $187 $329 $263 $333 forward $257 $-1 #
vertex $-1 $188 $337 #
straight-curve $-1 69.478438673055209 -10.543600575565408 102.14549187809045 0 0 1 I I #
straight-curve $-1 -47.060603926792311 -10.543600575565408 87.751941156333402 0.83867056331134215 0 -0.54463904215088732 I I #
edge $-1 $331 -32.36519715948441 $191 -10.543600575565408 $267 $338 forward 7 unknown #
point $-1 69.478438673055209 -10.543600575565408 16.135311651826783 #
point $-1 63.219332619446718 -10.543600575565408 16.135311651826783 #
edge $-1 $339 1 $339 0 $194 $-1 forward 7 unknown #
vertex $-1 $195 $340 #
ellipse-curve $-1 63.158765552151038 -28.000877842700611 9.1906020432876954 0.54463904215088732 0 0.83867056331134215 1.2580058449670133 0 -0.81695856322633098 1 I I #
point $-1 67.606891491217979 -28.000877842700611 13.285997551821803 #
edge $-1 $341 1 $341 0 $198 $-1 forward 7 unknown #
vertex $-1 $199 $342 #
ellipse-curve $-1 63.158765552151038 -21.454398867524908 9.1906020432876954 0.54463904215088732 0 0.83867056331134215 1.2580058449670133 0 -0.81695856322633098 1 I I #
point $-1 67.606891491217979 -21.454398867524908 13.285997551821803 #
edge $-1 $343 1 $343 0 $202 $-1 forward 7 unknown #
vertex $-1 $203 $344 #
ellipse-curve $-1 63.158765552151038 -14.907919892349206 9.1906020432876954 0.54463904215088732 0 0.83867056331134215 1.2580058449670133 0 -0.81695856322633098 1 I I #
point $-1 67.606891491217979 -14.907919892349206 13.285997551821803 #
plane-surface $-1 0 0 16.135311651826783 0 0 1 1 0 0 forward_v I I I I #
coedge $-1 $298 $297 $290 $345 forward $207 $-1 #
coedge $-1 $290 $209 $211 $294 reversed $139 $-1 #
coedge $-1 $209 $289 $288 $345 reversed $139 $-1 #
coedge $-1 $217 $212 $209 $292 forward $218 $-1 #
edge $-1 $295 -25.414778253288489 $346 -22.861017366867813 $291 $347 forward 7 unknown #
coedge $-1 $211 $210 $298 $348 reversed $88 $-1 #
edge $-1 $349 -2.5618607856530852e-014 $295 4.5668693669694083 $289 $350 forward 7 unknown #
vertex $-1 $213 $351 #
straight-curve $-1 -66.924677786634533 -2.0200390769901055 16.135311651826783 0 1 0 I I #
coedge $-1 $288 $214 $217 $302 reversed $207 $-1 #
coedge $-1 $214 $288 $293 $348 forward $207 $-1 #
vertex $-1 $215 $352 #
straight-curve $-1 -69.478438673055209 -14.218953608106016 45.026451678918356 0 0 1 I I #
straight-curve $-1 -69.478438673055194 -14.218953608106016 12.349205320785416 -0.55919289150049634 0 -0.82903758062907751 I I #
edge $-1 $346 -6.138797300145594 $219 14.218953608106016 $297 $353 forward 7 unknown #
point $-1 -69.478438673055209 -14.218953608106016 16.135311651826783 #
point $-1 -66.924677786634533 -14.218953608106016 16.135311651826783 #
edge $-1 $354 1 $354 0 $222 $-1 forward 7 unknown #
vertex $-1 $223 $355 #
ellipse-curve $-1 -66.64944361998522 -8.4024533486055617 13.195343995446715 -0.82903758062907751 0 0.55919289150049634 0.27959644575024817 0 0.41451879031453875 1 I I #
point $-1 -67.921961784094634 -8.4024533486055617 14.656777276620639 #
edge $-1 $356 1 $356 0 $226 $-1 forward 7 unknown #
vertex $-1 $227 $357 #
ellipse-curve $-1 -66.64944361998522 0.32229704064512532 13.195343995446715 -0.82903758062907751 0 0.55919289150049634 0.27959644575024817 0 0.41451879031453875 1 I I #
point $-1 -67.921961784094634 0.32229704064512532 14.656777276620639 #
plane-surface $-1 69.478438673055209 0 0 -1 0 0 0 0 1 forward_v I I I I #
coedge $-1 $235 $233 $237 $318 reversed $161 $-1 #
edge $-1 $248 -16.135311651826783 $320 16.135311651826783 $247 $358 forward 7 unknown #
vertex $-1 $318 $359 #
straight-curve $-1 -69.478438673055209 -39.047404147340721 0 0 0 -1 I I #
edge $-1 $316 -39.047404147340721 $320 39.047404147340721 $314 $360 forward 7 unknown #
straight-curve $-1 0 -39.047404147340721 -16.135311651826783 -1 0 0 I I #
vertex $-1 $240 $361 #
straight-curve $-1 0 39.047404147340721 -16.135311651826783 1 0 0 I I #
point $-1 69.478438673055209 39.047404147340721 -16.135311651826783 #
point $-1 69.478438673055209 -39.047404147340721 -16.135311651826783 #
straight-curve $-1 -69.478438673055209 0 16.135311651826783 0 -1 0 I I #
point $-1 -69.478438673055209 39.047404147340721 16.135311651826783 #
point $-1 -69.478438673055209 -39.047404147340721 16.135311651826783 #
straight-curve $-1 69.478438673055209 -39.047404147340721 0 0 0 -1 I I #
straight-curve $-1 69.478438673055209 39.047404147340721 0 0 0 -1 I I #
coedge $-1 $268 $267 $260 $330 forward $257 $-1 #
edge $-1 $331 86.010180226263671 $334 90.074891299820976 $329 $362 forward 7 unknown #
vertex $-1 $272 $363 #
straight-curve $-1 14.3103683256358 -32.36519715948441 16.135311651826783 1 0 0 I I #
edge $-1 $334 -21.637997725721956 $269 0.1835988581970458 $268 $364 forward 7 unknown #
vertex $-1 $333 $365 #
straight-curve $-1 -47.060603926792311 -32.36519715948441 87.751941156333402 -0.83867056331134215 0 0.54463904215088732 I I #
point $-1 63.219332619446718 -32.36519715948441 16.135311651826783 #
point $-1 69.478438673055223 -10.543600575565408 12.070600578269477 #
straight-curve $-1 69.478438673055209 0 16.135311651826783 0 1 0 I I #
vertex $-1 $275 $366 #
point $-1 64.416771397118055 -28.000877842700611 8.3736434800613644 #
vertex $-1 $279 $367 #
point $-1 64.416771397118055 -21.454398867524908 8.3736434800613644 #
vertex $-1 $283 $368 #
point $-1 64.416771397118055 -14.907919892349206 8.3736434800613644 #
edge $-1 $346 28.891140027091573 $349 32.677246358132962 $288 $369 forward 7 unknown #
vertex $-1 $302 $370 #
straight-curve $-1 -92.339456039923022 6.138797300145594 16.135311651826783 -1 0 0 I I #
edge $-1 $349 -8.1588363771356995 $299 12.198914531115911 $298 $371 forward 7 unknown #
vertex $-1 $348 $372 #
straight-curve $-1 -69.478438673055194 6.138797300145594 12.349205320785416 0.55919289150049634 0 0.82903758062907751 I I #
point $-1 -66.924677786634533 6.138797300145594 16.135311651826783 #
point $-1 -69.478438673055209 -14.218953608106016 12.349205320785394 #
straight-curve $-1 -69.478438673055209 0 16.135311651826783 0 -1 0 I I #
vertex $-1 $305 $373 #
point $-1 -66.369847174234977 -8.4024533486055617 13.609862785761255 #
vertex $-1 $309 $374 #
point $-1 -66.369847174234977 0.32229704064512532 13.609862785761255 #
straight-curve $-1 -69.478438673055209 39.047404147340721 0 0 0 -1 I I #
point $-1 -69.478438673055209 -39.047404147340721 -16.135311651826783 #
straight-curve $-1 -69.478438673055209 0 -16.135311651826783 0 1 0 I I #
point $-1 -69.478438673055209 39.047404147340721 -16.135311651826783 #
straight-curve $-1 69.478438673055209 -32.36519715948441 102.14549187809045 0 0 -1 I I #
point $-1 69.478438673055209 -32.36519715948441 16.135311651826783 #
straight-curve $-1 69.478438673055209 -10.727199433762454 12.070600578269485 0 1 0 I I #
point $-1 69.478438673055223 -32.36519715948441 12.070600578269477 #
point $-1 62.341806988924702 -28.000877842700611 7.9325961983206827 #
point $-1 62.341806988924702 -21.454398867524908 7.9325961983206827 #
point $-1 62.341806988924702 -14.907919892349206 7.9325961983206827 #
straight-curve $-1 -69.478438673055209 6.138797300145594 45.026451678918356 0 0 -1 I I #
point $-1 -69.478438673055209 6.138797300145594 16.135311651826783 #
straight-curve $-1 -69.478438673055209 -2.0200390769901055 12.349205320785378 0 -1 0 I I #
point $-1 -69.478438673055209 6.138797300145594 12.349205320785394 #
point $-1 -66.234924829670689 -8.4024533486055617 12.915747549696468 #
point $-1 -66.234924829670689 0.32229704064512532 12.915747549696468 #
End-of-ACIS-data 