500 0 10 0           
7 Unknown 11 ACIS 5.0 NT 24 Fri Mar 26 02:16:04 1999 
-1 9.9999999999999995e-007 1e-010 
body $-1 $10 $-1 $11 #
body $-1 $12 $-1 $13 #
body $-1 $14 $-1 $15 #
body $-1 $16 $-1 $17 #
body $-1 $18 $-1 $19 #
body $-1 $20 $-1 $21 #
body $-1 $22 $-1 $23 #
body $-1 $24 $-1 $25 #
body $-1 $26 $-1 $27 #
body $-1 $28 $-1 $29 #
lump $-1 $-1 $30 $0 #
transform $-1 1 0 0 0 1 0 0 0 1 77.963805047761468 33.142052580058426 16.533400497128483 1 rotate no_reflect no_shear #
lump $-1 $-1 $31 $1 #
transform $-1 1 0 0 0 1 0 0 0 1 77.963805047761468 33.142052580058426 16.533400497128483 1 rotate no_reflect no_shear #
lump $-1 $-1 $32 $2 #
transform $-1 1 0 0 0 1 0 0 0 1 77.963805047761468 33.142052580058426 16.533400497128483 1 rotate no_reflect no_shear #
lump $-1 $-1 $33 $3 #
transform $-1 1 0 0 0 1 0 0 0 1 77.963805047761468 33.142052580058426 16.533400497128483 1 rotate no_reflect no_shear #
lump $-1 $-1 $34 $4 #
transform $-1 1 0 0 0 1 0 0 0 1 77.963805047761468 33.142052580058426 16.533400497128483 1 rotate no_reflect no_shear #
lump $-1 $-1 $35 $5 #
transform $-1 1 0 0 0 1 0 0 0 1 77.963805047761468 33.142052580058426 16.533400497128483 1 rotate no_reflect no_shear #
lump $-1 $-1 $36 $6 #
transform $-1 1 0 0 0 1 0 0 0 1 77.963805047761468 33.142052580058426 16.533400497128483 1 rotate no_reflect no_shear #
lump $-1 $-1 $37 $7 #
transform $-1 1 0 0 0 1 0 0 0 1 77.963805047761468 33.142052580058426 16.533400497128483 1 rotate no_reflect no_shear #
lump $-1 $-1 $38 $8 #
transform $-1 1 0 0 0 1 0 0 0 1 77.963805047761468 33.142052580058426 16.533400497128483 1 rotate no_reflect no_shear #
lump $-1 $-1 $39 $9 #
transform $-1 1 0 0 0 1 0 0 0 1 77.963805047761468 33.142052580058426 16.533400497128483 1 rotate no_reflect no_shear #
shell $-1 $-1 $-1 $40 $-1 $10 #
shell $-1 $-1 $-1 $41 $-1 $12 #
shell $-1 $-1 $-1 $42 $-1 $14 #
shell $-1 $-1 $-1 $43 $-1 $16 #
shell $-1 $-1 $-1 $44 $-1 $18 #
shell $-1 $-1 $-1 $45 $-1 $20 #
shell $-1 $-1 $-1 $46 $-1 $22 #
shell $-1 $-1 $-1 $47 $-1 $24 #
shell $-1 $-1 $-1 $48 $-1 $26 #
shell $-1 $-1 $-1 $49 $-1 $28 #
face $-1 $50 $51 $30 $-1 $52 forward single #
face $-1 $53 $54 $31 $-1 $55 forward single #
face $-1 $56 $57 $32 $-1 $58 forward single #
face $-1 $59 $60 $33 $-1 $61 reversed single #
face $-1 $62 $63 $34 $-1 $64 forward single #
face $-1 $65 $66 $35 $-1 $67 forward single #
face $-1 $68 $69 $36 $-1 $70 reversed single #
face $-1 $71 $72 $37 $-1 $73 forward single #
face $-1 $74 $75 $38 $-1 $76 forward single #
face $-1 $77 $78 $39 $-1 $79 forward single #
face $-1 $80 $81 $30 $-1 $82 reversed single #
loop $-1 $-1 $83 $40 #
plane-surface $-1 0 0 16.533400497128483 0 0 1 1 0 0 forward_v I I I I #
face $-1 $84 $85 $31 $-1 $86 reversed single #
loop $-1 $-1 $87 $41 #
plane-surface $-1 0 -23.844652464875658 -5.305906071636258 0 0 1 1 0 0 forward_v I I I I #
face $-1 $88 $89 $32 $-1 $90 reversed single #
loop $-1 $-1 $91 $42 #
plane-surface $-1 0 23.844652464875658 -5.305906071636258 0 0 1 1 0 0 forward_v I I I I #
face $-1 $92 $93 $33 $-1 $94 reversed single #
loop $-1 $-1 $95 $43 #
plane-surface $-1 77.963807606297451 3.2280416319638832 225.48645319210004 0 1 0 0.70710678939079041 0 0.70710677298230451 forward_v I I I I #
face $-1 $96 $97 $34 $-1 $98 forward single #
loop $-1 $99 $100 $44 #
cone-surface $-1 71.161066173852092 5.6469414140261733 9.7306615127825733 -0.70710678939079041 0 -0.70710677298230451 0.70710677298230451 0 -0.70710678939079041 1 I I 0 1 1 forward I I I I #
face $-1 $101 $102 $35 $-1 $103 forward single #
loop $-1 $104 $105 $45 #
cone-surface $-1 71.161066173852092 9.275291087119605 9.7306615127825733 -0.70710678939079041 0 -0.70710677298230451 0.70710677298230451 0 -0.70710678939079041 1 I I 0 1 1 forward I I I I #
face $-1 $106 $107 $36 $-1 $108 reversed single #
loop $-1 $-1 $109 $46 #
plane-surface $-1 -160.59285055424749 -3.6642404582006289 132.34851851951601 0 -1 0 0.52991927123019833 0 -0.84804809178421925 forward_v I I I I #
face $-1 $110 $111 $37 $-1 $112 forward single #
loop $-1 $113 $114 $47 #
cone-surface $-1 -64.560903997688499 -8.9944733686808824 7.8998793634391351 0.52991927123019833 0 -0.84804809178421925 0.21201202294605481 0 0.13247981780754958 1 I I 0 1 0.25 forward I I I I #
face $-1 $115 $116 $38 $-1 $117 forward single #
loop $-1 $118 $119 $48 #
cone-surface $-1 -64.560903997688499 -6.9956360272507858 7.8998793634391351 0.52991927123019833 0 -0.84804809178421925 0.21201202294605481 0 0.13247981780754958 1 I I 0 1 0.25 forward I I I I #
face $-1 $120 $121 $39 $-1 $122 forward single #
loop $-1 $123 $124 $49 #
cone-surface $-1 -64.560903997688499 -4.9967986858206892 7.8998793634391351 0.52991927123019833 0 -0.84804809178421925 0.21201202294605481 0 0.13247981780754958 1 I I 0 1 0.25 forward I I I I #
face $-1 $125 $126 $30 $-1 $127 reversed single #
loop $-1 $-1 $128 $50 #
plane-surface $-1 0 0 -16.533400497128483 0 0 1 1 0 0 forward_v I I I I #
coedge $-1 $129 $130 $131 $132 forward $51 $-1 #
face $-1 $133 $134 $31 $-1 $135 reversed single #
loop $-1 $-1 $136 $53 #
plane-surface $-1 0 -23.844652464875658 -13.28212264253099 0 0 1 1 0 0 forward_v I I I I #
coedge $-1 $137 $138 $139 $140 reversed $54 $-1 #
face $-1 $141 $142 $32 $-1 $143 reversed single #
loop $-1 $-1 $144 $56 #
plane-surface $-1 0 23.844652464875658 -13.28212264253099 0 0 1 1 0 0 forward_v I I I I #
coedge $-1 $145 $146 $147 $148 reversed $57 $-1 #
face $-1 $149 $150 $33 $-1 $151 reversed single #
loop $-1 $-1 $152 $59 #
plane-surface $-1 -32.293664145726765 7.4611162505728856 115.22898399861181 0.70710678939079041 0 0.70710677298230451 0.70710677298230451 0 -0.70710678939079041 forward_v I I I I #
coedge $-1 $153 $154 $155 $156 reversed $60 $-1 #
face $-1 $-1 $157 $34 $-1 $158 forward single #
loop $-1 $159 $160 $62 #
cone-surface $-1 69.785717896370386 5.6469414140261733 8.355313267215962 -0.70710678939079041 0 -0.70710677298230451 0.35355338649115226 0 -0.35355339469539521 1 I I -0.70710678118654746 0.70710678118654746 0.5 forward I I I I #
loop $-1 $-1 $161 $44 #
coedge $-1 $100 $100 $162 $163 reversed $63 $-1 #
face $-1 $-1 $164 $35 $-1 $165 forward single #
loop $-1 $166 $167 $65 #
cone-surface $-1 69.785717896370386 9.275291087119605 8.355313267215962 -0.70710678939079041 0 -0.70710677298230451 0.35355338649115226 0 -0.35355339469539521 1 I I -0.70710678118654746 0.70710678118654746 0.5 forward I I I I #
loop $-1 $-1 $168 $45 #
coedge $-1 $105 $105 $169 $170 reversed $66 $-1 #
face $-1 $171 $172 $36 $-1 $173 reversed single #
loop $-1 $-1 $174 $68 #
plane-surface $-1 -77.963805047761454 -6.9956360272507894 0.11440632153400543 -0.52991927123019833 0 0.84804809178421925 0.84804809178421925 0 0.52991927123019833 forward_v I I I I #
coedge $-1 $175 $176 $177 $178 reversed $69 $-1 #
face $-1 $-1 $179 $37 $-1 $180 forward single #
loop $-1 $181 $182 $71 #
cone-surface $-1 -64.229704453169632 -8.9944733686808824 7.3698493060739985 0.52991927123019833 0 -0.84804809178421925 0.10600601147302741 0 0.066239908903774791 1 I I -0.70710678118654746 0.70710678118654746 0.125 forward I I I I #
loop $-1 $-1 $183 $47 #
coedge $-1 $114 $114 $184 $185 reversed $72 $-1 #
face $-1 $-1 $186 $38 $-1 $187 forward single #
loop $-1 $188 $189 $74 #
cone-surface $-1 -64.229704453169632 -6.9956360272507858 7.3698493060739985 0.52991927123019833 0 -0.84804809178421925 0.10600601147302741 0 0.066239908903774791 1 I I -0.70710678118654746 0.70710678118654746 0.125 forward I I I I #
loop $-1 $-1 $190 $48 #
coedge $-1 $119 $119 $191 $192 reversed $75 $-1 #
face $-1 $-1 $193 $39 $-1 $194 forward single #
loop $-1 $195 $196 $77 #
cone-surface $-1 -64.229704453169632 -4.9967986858206892 7.3698493060739985 0.52991927123019833 0 -0.84804809178421925 0.10600601147302741 0 0.066239908903774791 1 I I -0.70710678118654746 0.70710678118654746 0.125 forward I I I I #
loop $-1 $-1 $197 $49 #
coedge $-1 $124 $124 $198 $199 reversed $78 $-1 #
face $-1 $200 $201 $30 $-1 $202 reversed single #
loop $-1 $-1 $203 $80 #
plane-surface $-1 0 -33.142052580058426 0 0 1 0 0 0 1 forward_v I I I I #
coedge $-1 $204 $205 $206 $207 forward $81 $-1 #
coedge $-1 $208 $83 $209 $210 forward $51 $-1 #
coedge $-1 $83 $208 $211 $212 forward $51 $-1 #
coedge $-1 $213 $214 $83 $132 reversed $215 $-1 #
edge $-1 $216 -33.142052580058426 $217 33.142052580058426 $131 $218 forward 7 unknown #
face $-1 $219 $220 $31 $-1 $221 reversed single #
loop $-1 $-1 $222 $84 #
plane-surface $-1 0 -14.547252349692888 -9.2940143570836238 0 -1 0 0 0 -1 forward_v I I I I #
coedge $-1 $223 $224 $225 $226 reversed $85 $-1 #
coedge $-1 $227 $87 $228 $229 forward $54 $-1 #
coedge $-1 $87 $227 $230 $231 reversed $54 $-1 #
coedge $-1 $232 $233 $87 $140 forward $234 $-1 #
edge $-1 $235 2.6249261172550593 $236 21.219726347620597 $139 $237 forward 7 unknown #
face $-1 $238 $239 $32 $-1 $240 reversed single #
loop $-1 $-1 $241 $88 #
plane-surface $-1 0 14.54725234969289 -9.2940143570836238 0 1 0 0 0 1 forward_v I I I I #
coedge $-1 $242 $243 $244 $245 reversed $89 $-1 #
coedge $-1 $246 $91 $247 $248 reversed $57 $-1 #
coedge $-1 $91 $246 $249 $250 forward $57 $-1 #
coedge $-1 $251 $252 $91 $148 forward $239 $-1 #
edge $-1 $253 -21.219726347620597 $254 -2.6249261172550611 $147 $255 forward 7 unknown #
face $-1 $256 $257 $33 $-1 $258 forward single #
loop $-1 $-1 $259 $92 #
plane-surface $-1 77.963807606297451 11.694190869181888 225.48645319210004 0 -1 0 -0.70710678939079041 0 -0.70710677298230451 forward_v I I I I #
coedge $-1 $260 $261 $262 $263 reversed $93 $-1 #
coedge $-1 $154 $95 $264 $265 reversed $60 $-1 #
coedge $-1 $95 $153 $260 $266 reversed $60 $-1 #
coedge $-1 $262 $267 $95 $156 forward $268 $-1 #
edge $-1 $269 96.209826098921539 $270 107.77171434946243 $155 $271 forward 7 unknown #
loop $-1 $-1 $162 $96 #
plane-surface $-1 -32.293664145726765 7.4611162505728856 115.22898399861181 0.70710678939079041 0 0.70710677298230451 0.70710677298230451 0 -0.70710678939079041 forward_v I I I I #
loop $-1 $-1 $272 $62 #
coedge $-1 $160 $160 $161 $273 reversed $97 $-1 #
coedge $-1 $161 $161 $160 $273 forward $99 $-1 #
coedge $-1 $162 $162 $100 $163 forward $157 $-1 #
edge $-1 $274 0 $274 6.2831853071796004 $162 $275 forward 7 unknown #
loop $-1 $-1 $169 $101 #
plane-surface $-1 -32.293664145726765 7.4611162505728856 115.22898399861181 0.70710678939079041 0 0.70710677298230451 0.70710677298230451 0 -0.70710678939079041 forward_v I I I I #
loop $-1 $-1 $276 $65 #
coedge $-1 $167 $167 $168 $277 reversed $102 $-1 #
coedge $-1 $168 $168 $167 $277 forward $104 $-1 #
coedge $-1 $169 $169 $105 $170 forward $164 $-1 #
edge $-1 $278 0 $278 6.2831853071796004 $169 $279 forward 7 unknown #
face $-1 $280 $281 $36 $-1 $282 reversed single #
loop $-1 $-1 $283 $106 #
plane-surface $-1 -160.59285055424749 -10.32703159630095 132.34851851951601 0 1 0 -0.52991927123019833 0 0.84804809178421925 forward_v I I I I #
coedge $-1 $284 $285 $286 $287 reversed $107 $-1 #
coedge $-1 $176 $109 $288 $289 reversed $69 $-1 #
coedge $-1 $109 $175 $284 $290 reversed $69 $-1 #
coedge $-1 $286 $291 $109 $178 forward $281 $-1 #
edge $-1 $292 49.64085876262952 $293 66.059852938224012 $177 $294 forward 7 unknown #
loop $-1 $-1 $184 $110 #
plane-surface $-1 -77.963805047761454 -6.9956360272507894 0.11440632153400543 -0.52991927123019833 0 0.84804809178421925 0.84804809178421925 0 0.52991927123019833 forward_v I I I I #
loop $-1 $-1 $295 $71 #
coedge $-1 $182 $182 $183 $296 reversed $111 $-1 #
coedge $-1 $183 $183 $182 $296 forward $113 $-1 #
coedge $-1 $184 $184 $114 $185 forward $179 $-1 #
edge $-1 $297 0 $297 6.2831853071796004 $184 $298 forward 7 unknown #
loop $-1 $-1 $191 $115 #
plane-surface $-1 -77.963805047761454 -6.9956360272507894 0.11440632153400543 -0.52991927123019833 0 0.84804809178421925 0.84804809178421925 0 0.52991927123019833 forward_v I I I I #
loop $-1 $-1 $299 $74 #
coedge $-1 $189 $189 $190 $300 reversed $116 $-1 #
coedge $-1 $190 $190 $189 $300 forward $118 $-1 #
coedge $-1 $191 $191 $119 $192 forward $186 $-1 #
edge $-1 $301 0 $301 6.2831853071796004 $191 $302 forward 7 unknown #
loop $-1 $-1 $198 $120 #
plane-surface $-1 -77.963805047761454 -6.9956360272507894 0.11440632153400543 -0.52991927123019833 0 0.84804809178421925 0.84804809178421925 0 0.52991927123019833 forward_v I I I I #
loop $-1 $-1 $303 $77 #
coedge $-1 $196 $196 $197 $304 reversed $121 $-1 #
coedge $-1 $197 $197 $196 $304 forward $123 $-1 #
coedge $-1 $198 $198 $124 $199 forward $193 $-1 #
edge $-1 $305 0 $305 6.2831853071796004 $198 $306 forward 7 unknown #
face $-1 $307 $308 $30 $-1 $309 reversed single #
loop $-1 $-1 $310 $125 #
plane-surface $-1 -77.963805047761468 0 0 1 0 0 0 0 -1 forward_v I I I I #
coedge $-1 $311 $211 $312 $313 forward $126 $-1 #
coedge $-1 $314 $128 $311 $315 forward $81 $-1 #
coedge $-1 $128 $314 $316 $317 forward $81 $-1 #
coedge $-1 $214 $213 $128 $207 reversed $215 $-1 #
edge $-1 $318 -33.142052580058426 $319 33.142052580058426 $206 $320 forward 7 unknown #
coedge $-1 $130 $129 $321 $322 forward $51 $-1 #
coedge $-1 $323 $324 $129 $210 reversed $308 $-1 #
edge $-1 $217 -77.963805047761468 $325 77.963805047761468 $209 $326 forward 7 unknown #
coedge $-1 $203 $327 $130 $212 reversed $126 $-1 #
edge $-1 $328 -77.963805047761468 $216 77.963805047761468 $211 $329 forward 7 unknown #
coedge $-1 $206 $131 $327 $330 forward $215 $-1 #
coedge $-1 $131 $206 $323 $331 reversed $215 $-1 #
loop $-1 $-1 $213 $307 #
vertex $-1 $132 $332 #
vertex $-1 $132 $333 #
straight-curve $-1 77.963805047761468 0 16.533400497128483 0 1 0 I I #
face $-1 $334 $335 $31 $-1 $336 reversed single #
loop $-1 $-1 $337 $133 #
plane-surface $-1 -77.963805047761468 0 0 1 0 0 0 0 -1 forward_v I I I I #
coedge $-1 $338 $228 $233 $339 reversed $134 $-1 #
coedge $-1 $340 $136 $341 $342 reversed $85 $-1 #
coedge $-1 $136 $340 $338 $343 forward $85 $-1 #
coedge $-1 $233 $232 $136 $226 forward $234 $-1 #
edge $-1 $344 -21.219726347620597 $345 -2.6249261172550593 $225 $346 forward 7 unknown #
coedge $-1 $138 $137 $337 $347 reversed $54 $-1 #
coedge $-1 $222 $348 $137 $229 reversed $134 $-1 #
edge $-1 $235 -77.963805047761468 $349 77.963805047761468 $228 $350 forward 7 unknown #
coedge $-1 $351 $352 $138 $231 forward $335 $-1 #
edge $-1 $236 -77.963805047761468 $353 77.963805047761468 $230 $354 forward 7 unknown #
coedge $-1 $225 $139 $352 $355 forward $234 $-1 #
coedge $-1 $139 $225 $222 $339 forward $234 $-1 #
loop $-1 $-1 $139 $334 #
vertex $-1 $140 $356 #
vertex $-1 $355 $357 #
straight-curve $-1 77.963805047761468 -11.922326232437829 -5.305906071636258 0 -1 0 I I #
face $-1 $358 $359 $32 $-1 $360 reversed single #
loop $-1 $-1 $147 $141 #
plane-surface $-1 77.963805047761468 0 0 -1 0 0 0 0 1 forward_v I I I I #
coedge $-1 $361 $249 $362 $363 reversed $142 $-1 #
coedge $-1 $364 $144 $361 $365 forward $89 $-1 #
coedge $-1 $144 $364 $366 $367 reversed $89 $-1 #
coedge $-1 $252 $251 $144 $245 forward $239 $-1 #
edge $-1 $368 2.6249261172550611 $369 21.219726347620597 $244 $370 forward 7 unknown #
coedge $-1 $146 $145 $371 $372 reversed $57 $-1 #
coedge $-1 $373 $374 $145 $248 forward $375 $-1 #
edge $-1 $376 -77.963805047761468 $253 77.963805047761468 $247 $377 forward 7 unknown #
coedge $-1 $241 $378 $146 $250 reversed $142 $-1 #
edge $-1 $379 -77.963805047761468 $254 77.963805047761468 $249 $380 forward 7 unknown #
coedge $-1 $244 $147 $378 $381 forward $239 $-1 #
coedge $-1 $147 $244 $373 $382 reversed $239 $-1 #
vertex $-1 $382 $383 #
vertex $-1 $148 $384 #
straight-curve $-1 77.963805047761468 11.922326232437829 -5.305906071636258 0 -1 0 I I #
face $-1 $-1 $268 $33 $-1 $385 reversed single #
loop $-1 $-1 $386 $149 #
plane-surface $-1 0 0 16.533400497128483 0 0 1 1 0 0 forward_v I I I I #
coedge $-1 $387 $388 $389 $390 reversed $150 $-1 #
coedge $-1 $391 $152 $154 $266 forward $93 $-1 #
coedge $-1 $152 $391 $387 $392 forward $93 $-1 #
coedge $-1 $389 $155 $152 $263 forward $268 $-1 #
edge $-1 $270 -0.50251649332255965 $393 7.9636327438954453 $262 $394 forward 7 unknown #
coedge $-1 $395 $396 $153 $265 forward $257 $-1 #
edge $-1 $397 27.420013262366652 $269 38.981901244612743 $264 $398 forward 7 unknown #
edge $-1 $270 -155.92761009552297 $397 -139.57663111467897 $154 $399 forward 7 unknown #
coedge $-1 $155 $389 $395 $400 reversed $268 $-1 #
loop $-1 $-1 $389 $256 #
vertex $-1 $400 $401 #
vertex $-1 $156 $402 #
straight-curve $-1 77.963805047761468 3.2280416319638832 112.74322659605002 0 0 -1 I I #
coedge $-1 $272 $272 $-1 $403 reversed $159 $-1 #
edge $-1 $404 0 $404 6.2831853071796004 $160 $405 forward 7 unknown #
vertex $-1 $163 $406 #
ellipse-curve $-1 72.182861056638416 5.6469414140261733 10.752456371858035 0.70710678939079041 0 0.70710677298230451 0.70710677298230451 0 -0.70710678939079041 1 I I #
coedge $-1 $276 $276 $-1 $407 reversed $166 $-1 #
edge $-1 $408 0 $408 6.2831853071796004 $167 $409 forward 7 unknown #
vertex $-1 $170 $410 #
ellipse-curve $-1 72.182861056638416 9.275291087119605 10.752456371858035 0.70710678939079041 0 0.70710677298230451 0.70710677298230451 0 -0.70710678939079041 1 I I #
face $-1 $-1 $411 $36 $-1 $412 forward single #
loop $-1 $-1 $177 $171 #
plane-surface $-1 -77.963805047761468 0 0 1 0 0 0 0 -1 forward_v I I I I #
coedge $-1 $413 $414 $415 $416 reversed $172 $-1 #
coedge $-1 $417 $174 $176 $290 forward $107 $-1 #
coedge $-1 $174 $417 $413 $418 forward $107 $-1 #
coedge $-1 $415 $177 $174 $287 forward $281 $-1 #
edge $-1 $293 0.16642244457523425 $419 6.8292135826755551 $286 $420 forward 7 unknown #
coedge $-1 $421 $422 $175 $289 forward $411 $-1 #
edge $-1 $423 -28.608503058278025 $292 -2.3326202293622771 $288 $424 forward 7 unknown #
edge $-1 $293 -1.675811683274863e-014 $423 30.983953720871618 $176 $425 forward 7 unknown #
coedge $-1 $177 $415 $421 $426 reversed $281 $-1 #
vertex $-1 $426 $427 #
vertex $-1 $178 $428 #
straight-curve $-1 -77.963805047761468 -3.6642404582006289 66.174259259758003 0 0 -1 I I #
coedge $-1 $295 $295 $-1 $429 reversed $181 $-1 #
edge $-1 $430 0 $430 6.2831853071796004 $182 $431 forward 7 unknown #
vertex $-1 $185 $432 #
ellipse-curve $-1 -64.825863633303598 -8.9944733686808824 8.3239034093312387 -0.52991927123019833 0 0.84804809178421925 0.21201202294605481 0 0.13247981780754958 1 I I #
coedge $-1 $299 $299 $-1 $433 reversed $188 $-1 #
edge $-1 $434 0 $434 6.2831853071796004 $189 $435 forward 7 unknown #
vertex $-1 $192 $436 #
ellipse-curve $-1 -64.825863633303598 -6.9956360272507858 8.3239034093312387 -0.52991927123019833 0 0.84804809178421925 0.21201202294605481 0 0.13247981780754958 1 I I #
coedge $-1 $303 $303 $-1 $437 reversed $195 $-1 #
edge $-1 $438 0 $438 6.2831853071796004 $196 $439 forward 7 unknown #
vertex $-1 $199 $440 #
ellipse-curve $-1 -64.825863633303598 -4.9967986858206892 8.3239034093312387 -0.52991927123019833 0 0.84804809178421925 0.21201202294605481 0 0.13247981780754958 1 I I #
face $-1 $-1 $215 $30 $-1 $441 reversed single #
loop $-1 $-1 $323 $200 #
plane-surface $-1 0 33.142052580058426 0 0 -1 0 0 0 -1 forward_v I I I I #
coedge $-1 $442 $321 $324 $443 forward $201 $-1 #
coedge $-1 $327 $203 $204 $315 reversed $126 $-1 #
coedge $-1 $321 $442 $203 $313 reversed $201 $-1 #
edge $-1 $328 -16.533400497128483 $444 16.533400497128483 $312 $445 forward 7 unknown #
coedge $-1 $205 $204 $442 $446 forward $81 $-1 #
edge $-1 $319 -77.963805047761468 $444 77.963805047761468 $311 $447 forward 7 unknown #
coedge $-1 $324 $323 $205 $317 reversed $308 $-1 #
edge $-1 $448 -77.963805047761468 $318 77.963805047761468 $316 $449 forward 7 unknown #
vertex $-1 $207 $450 #
vertex $-1 $330 $451 #
straight-curve $-1 77.963805047761468 0 -16.533400497128483 0 -1 0 I I #
coedge $-1 $310 $312 $208 $322 reversed $201 $-1 #
edge $-1 $325 -33.142052580058426 $328 33.142052580058426 $321 $452 forward 7 unknown #
coedge $-1 $316 $209 $214 $331 forward $308 $-1 #
coedge $-1 $209 $316 $310 $443 reversed $308 $-1 #
vertex $-1 $210 $453 #
straight-curve $-1 0 33.142052580058426 16.533400497128483 -1 0 0 I I #
coedge $-1 $211 $311 $213 $330 reversed $126 $-1 #
vertex $-1 $322 $454 #
straight-curve $-1 0 -33.142052580058426 16.533400497128483 1 0 0 I I #
edge $-1 $216 -16.533400497128483 $319 16.533400497128483 $213 $455 forward 7 unknown #
edge $-1 $217 -16.533400497128483 $318 16.533400497128483 $214 $456 forward 7 unknown #
point $-1 77.963805047761468 -33.142052580058426 16.533400497128483 #
point $-1 77.963805047761468 33.142052580058426 16.533400497128483 #
face $-1 $-1 $234 $31 $-1 $457 reversed single #
loop $-1 $-1 $230 $219 #
plane-surface $-1 0 -33.142052580058426 0 0 1 0 0 0 1 forward_v I I I I #
coedge $-1 $458 $459 $227 $347 forward $220 $-1 #
coedge $-1 $348 $222 $224 $343 reversed $134 $-1 #
edge $-1 $345 -8.6351154639891767 $235 -0.65889889309444616 $233 $460 forward 7 unknown #
coedge $-1 $224 $223 $461 $462 reversed $85 $-1 #
coedge $-1 $352 $351 $223 $342 forward $335 $-1 #
edge $-1 $463 -77.963805047761468 $344 77.963805047761468 $341 $464 forward 7 unknown #
edge $-1 $465 -77.963805047761468 $345 77.963805047761468 $338 $466 forward 7 unknown #
vertex $-1 $342 $467 #
vertex $-1 $226 $468 #
straight-curve $-1 77.963805047761468 -11.922326232437829 -13.28212264253099 0 1 0 I I #
edge $-1 $353 -21.219726347620597 $349 -2.6249261172550593 $337 $469 forward 7 unknown #
coedge $-1 $228 $338 $458 $470 reversed $134 $-1 #
vertex $-1 $347 $471 #
straight-curve $-1 0 -14.547252349692888 -5.305906071636258 -1 0 0 I I #
coedge $-1 $341 $230 $459 $472 forward $335 $-1 #
coedge $-1 $230 $341 $232 $355 reversed $335 $-1 #
vertex $-1 $472 $473 #
straight-curve $-1 0 -33.142052580058426 -5.305906071636258 -1 0 0 I I #
edge $-1 $236 5.305906071636258 $344 13.28212264253099 $232 $474 forward 7 unknown #
point $-1 77.963805047761468 -14.547252349692888 -5.305906071636258 #
point $-1 77.963805047761468 -33.142052580058426 -5.305906071636258 #
face $-1 $-1 $375 $32 $-1 $475 reversed single #
loop $-1 $-1 $371 $238 #
plane-surface $-1 -77.963805047761468 0 0 1 0 0 0 0 -1 forward_v I I I I #
coedge $-1 $378 $241 $242 $365 reversed $142 $-1 #
coedge $-1 $371 $476 $241 $363 forward $359 $-1 #
edge $-1 $477 -8.6351154639891767 $379 -0.65889889309444616 $362 $478 forward 7 unknown #
coedge $-1 $243 $242 $476 $479 reversed $89 $-1 #
edge $-1 $368 -77.963805047761468 $477 77.963805047761468 $361 $480 forward 7 unknown #
coedge $-1 $374 $373 $243 $367 forward $375 $-1 #
edge $-1 $369 -77.963805047761468 $481 77.963805047761468 $366 $482 forward 7 unknown #
vertex $-1 $245 $483 #
vertex $-1 $367 $484 #
straight-curve $-1 77.963805047761468 11.922326232437829 -13.28212264253099 0 1 0 I I #
coedge $-1 $485 $362 $246 $372 forward $359 $-1 #
edge $-1 $379 2.6249261172550611 $376 21.219726347620597 $371 $486 forward 7 unknown #
coedge $-1 $366 $247 $252 $382 forward $375 $-1 #
coedge $-1 $247 $366 $485 $487 reversed $375 $-1 #
loop $-1 $-1 $247 $358 #
vertex $-1 $487 $488 #
straight-curve $-1 0 33.142052580058426 -5.305906071636258 1 0 0 I I #
coedge $-1 $249 $361 $251 $381 reversed $142 $-1 #
vertex $-1 $372 $489 #
straight-curve $-1 0 14.54725234969289 -5.305906071636258 1 0 0 I I #
edge $-1 $254 0.65889889309444616 $368 8.6351154639891767 $251 $490 forward 7 unknown #
edge $-1 $253 5.305906071636258 $369 13.28212264253099 $252 $491 forward 7 unknown #
point $-1 77.963805047761468 33.142052580058426 -5.305906071636258 #
point $-1 77.963805047761468 14.54725234969289 -5.305906071636258 #
plane-surface $-1 77.963805047761468 0 0 -1 0 0 0 0 1 forward_v I I I I #
coedge $-1 $396 $395 $388 $492 forward $257 $-1 #
coedge $-1 $388 $259 $261 $392 reversed $150 $-1 #
coedge $-1 $259 $387 $386 $492 reversed $150 $-1 #
coedge $-1 $267 $262 $259 $390 forward $268 $-1 #
edge $-1 $393 -107.77171434946243 $493 -96.209826098921539 $389 $494 forward 7 unknown #
coedge $-1 $261 $260 $396 $495 reversed $93 $-1 #
edge $-1 $496 139.57663111467897 $393 155.92761009552297 $387 $497 forward 7 unknown #
vertex $-1 $263 $498 #
straight-curve $-1 77.963805047761468 3.7305581252864428 4.9715122465875936 0 1 0 I I #
coedge $-1 $386 $264 $267 $400 forward $257 $-1 #
coedge $-1 $264 $386 $391 $495 forward $257 $-1 #
vertex $-1 $265 $499 #
straight-curve $-1 38.981903803148725 3.2280416319638832 16.533400497128483 1 0 0 I I #
straight-curve $-1 -32.293664145726765 3.2280416319638832 115.22898399861181 -0.70710677298230451 0 0.70710678939079041 I I #
edge $-1 $269 3.2280416319638832 $493 11.694190869181888 $267 $500 forward 7 unknown #
point $-1 77.963805047761468 3.2280416319638832 16.533400497128483 #
point $-1 77.963805047761468 3.2280416319638832 4.9715122465875936 #
edge $-1 $501 1 $501 0 $272 $-1 forward 7 unknown #
vertex $-1 $273 $502 #
ellipse-curve $-1 70.139271291065782 5.6469414140261733 8.7088666537071138 0.70710678939079041 0 0.70710677298230451 0.70710677298230451 0 -0.70710678939079041 1 I I #
point $-1 72.889967829620716 5.6469414140261733 10.045349582467244 #
edge $-1 $503 1 $503 0 $276 $-1 forward 7 unknown #
vertex $-1 $277 $504 #
ellipse-curve $-1 70.139271291065782 9.275291087119605 8.7088666537071138 0.70710678939079041 0 0.70710677298230451 0.70710677298230451 0 -0.70710678939079041 1 I I #
point $-1 72.889967829620716 9.275291087119605 10.045349582467244 #
loop $-1 $-1 $288 $280 #
plane-surface $-1 0 0 16.533400497128483 0 0 1 1 0 0 forward_v I I I I #
coedge $-1 $414 $283 $285 $418 reversed $172 $-1 #
coedge $-1 $283 $413 $505 $506 reversed $172 $-1 #
coedge $-1 $291 $286 $283 $416 forward $281 $-1 #
edge $-1 $419 -66.059852938224012 $507 -49.64085876262952 $415 $508 forward 7 unknown #
coedge $-1 $285 $284 $422 $509 reversed $107 $-1 #
edge $-1 $510 -30.983953720871618 $419 1.675811683274863e-014 $413 $511 forward 7 unknown #
vertex $-1 $287 $512 #
straight-curve $-1 -77.963805047761468 -3.4978180136253947 0.11440632153400145 0 -1 0 I I #
coedge $-1 $505 $288 $291 $426 forward $411 $-1 #
coedge $-1 $288 $505 $417 $509 forward $411 $-1 #
vertex $-1 $289 $513 #
straight-curve $-1 -80.296425277123745 -3.6642404582006289 16.533400497128483 -1 0 0 I I #
straight-curve $-1 -77.963805047761454 -3.6642404582006289 0.11440632153400543 0.84804809178421925 0 0.52991927123019833 I I #
edge $-1 $292 3.6642404582006289 $507 10.32703159630095 $291 $514 forward 7 unknown #
point $-1 -77.963805047761468 -3.6642404582006289 16.533400497128483 #
point $-1 -77.963805047761468 -3.6642404582006289 0.11440632153399655 #
edge $-1 $515 1 $515 0 $295 $-1 forward 7 unknown #
vertex $-1 $296 $516 #
ellipse-curve $-1 -64.295944362073399 -8.9944733686808824 7.4758553175470261 -0.52991927123019833 0 0.84804809178421925 0.21201202294605481 0 0.13247981780754958 1 I I #
point $-1 -64.613851610357557 -8.9944733686808824 8.4563832271387938 #
edge $-1 $517 1 $517 0 $299 $-1 forward 7 unknown #
vertex $-1 $300 $518 #
ellipse-curve $-1 -64.295944362073399 -6.9956360272507858 7.4758553175470261 -0.52991927123019833 0 0.84804809178421925 0.21201202294605481 0 0.13247981780754958 1 I I #
point $-1 -64.613851610357557 -6.9956360272507858 8.4563832271387938 #
edge $-1 $519 1 $519 0 $303 $-1 forward 7 unknown #
vertex $-1 $304 $520 #
ellipse-curve $-1 -64.295944362073399 -4.9967986858206892 7.4758553175470261 -0.52991927123019833 0 0.84804809178421925 0.21201202294605481 0 0.13247981780754958 1 I I #
point $-1 -64.613851610357557 -4.9967986858206892 8.4563832271387938 #
plane-surface $-1 77.963805047761468 0 0 -1 0 0 0 0 1 forward_v I I I I #
coedge $-1 $312 $310 $314 $446 reversed $201 $-1 #
edge $-1 $325 -16.533400497128483 $448 16.533400497128483 $324 $521 forward 7 unknown #
vertex $-1 $446 $522 #
straight-curve $-1 -77.963805047761468 -33.142052580058426 0 0 0 -1 I I #
edge $-1 $444 -33.142052580058426 $448 33.142052580058426 $442 $523 forward 7 unknown #
straight-curve $-1 0 -33.142052580058426 -16.533400497128483 -1 0 0 I I #
vertex $-1 $317 $524 #
straight-curve $-1 0 33.142052580058426 -16.533400497128483 1 0 0 I I #
point $-1 77.963805047761468 33.142052580058426 -16.533400497128483 #
point $-1 77.963805047761468 -33.142052580058426 -16.533400497128483 #
straight-curve $-1 -77.963805047761468 0 16.533400497128483 0 -1 0 I I #
point $-1 -77.963805047761468 33.142052580058426 16.533400497128483 #
point $-1 -77.963805047761468 -33.142052580058426 16.533400497128483 #
straight-curve $-1 77.963805047761468 -33.142052580058426 0 0 0 -1 I I #
straight-curve $-1 77.963805047761468 33.142052580058426 0 0 0 -1 I I #
plane-surface $-1 77.963805047761468 0 0 -1 0 0 0 0 1 forward_v I I I I #
coedge $-1 $461 $337 $348 $470 forward $220 $-1 #
coedge $-1 $337 $461 $351 $472 reversed $220 $-1 #
straight-curve $-1 77.963805047761468 -14.547252349692888 -4.6470071785418119 0 0 1 I I #
coedge $-1 $459 $458 $340 $462 forward $220 $-1 #
edge $-1 $465 2.6249261172550593 $463 21.219726347620597 $461 $525 forward 7 unknown #
vertex $-1 $342 $526 #
straight-curve $-1 0 -33.142052580058426 -13.28212264253099 1 0 0 I I #
vertex $-1 $462 $527 #
straight-curve $-1 0 -14.547252349692888 -13.28212264253099 1 0 0 I I #
point $-1 77.963805047761468 -33.142052580058426 -13.28212264253099 #
point $-1 77.963805047761468 -14.547252349692888 -13.28212264253099 #
straight-curve $-1 -77.963805047761468 -11.922326232437829 -5.305906071636258 0 1 0 I I #
edge $-1 $349 0.65889889309444616 $465 8.6351154639891767 $458 $528 forward 7 unknown #
point $-1 -77.963805047761468 -14.547252349692888 -5.305906071636258 #
edge $-1 $353 5.305906071636258 $463 13.28212264253099 $459 $529 forward 7 unknown #
point $-1 -77.963805047761468 -33.142052580058426 -5.305906071636258 #
straight-curve $-1 77.963805047761468 -33.142052580058426 0 0 0 -1 I I #
plane-surface $-1 0 33.142052580058426 0 0 -1 0 0 0 -1 forward_v I I I I #
coedge $-1 $362 $485 $364 $479 forward $359 $-1 #
vertex $-1 $479 $530 #
straight-curve $-1 -77.963805047761468 14.54725234969289 -4.6470071785418119 0 0 1 I I #
edge $-1 $481 -21.219726347620597 $477 -2.6249261172550611 $476 $531 forward 7 unknown #
straight-curve $-1 0 14.54725234969289 -13.28212264253099 -1 0 0 I I #
vertex $-1 $367 $532 #
straight-curve $-1 0 33.142052580058426 -13.28212264253099 -1 0 0 I I #
point $-1 77.963805047761468 14.54725234969289 -13.28212264253099 #
point $-1 77.963805047761468 33.142052580058426 -13.28212264253099 #
coedge $-1 $476 $371 $374 $487 forward $359 $-1 #
straight-curve $-1 -77.963805047761468 11.922326232437829 -5.305906071636258 0 1 0 I I #
edge $-1 $376 5.305906071636258 $481 13.28212264253099 $374 $533 forward 7 unknown #
point $-1 -77.963805047761468 33.142052580058426 -5.305906071636258 #
point $-1 -77.963805047761468 14.54725234969289 -5.305906071636258 #
straight-curve $-1 77.963805047761468 14.54725234969289 -4.6470071785418119 0 0 -1 I I #
straight-curve $-1 77.963805047761468 33.142052580058426 0 0 0 -1 I I #
edge $-1 $493 -38.981901244612743 $496 -27.420013262366652 $386 $534 forward 7 unknown #
vertex $-1 $492 $535 #
straight-curve $-1 77.963805047761468 11.694190869181888 112.74322659605002 0 0 1 I I #
edge $-1 $496 -7.9636327438954453 $397 0.50251649332255965 $396 $536 forward 7 unknown #
vertex $-1 $495 $537 #
straight-curve $-1 -32.293664145726765 11.694190869181888 115.22898399861181 0.70710677298230451 0 -0.70710678939079041 I I #
point $-1 77.963805047761468 11.694190869181888 4.9715122465875936 #
point $-1 66.401917065515377 3.2280416319638832 16.533400497128483 #
straight-curve $-1 77.963805047761468 0 16.533400497128483 0 1 0 I I #
vertex $-1 $403 $538 #
point $-1 70.846378064048082 5.6469414140261733 8.0017598643163232 #
vertex $-1 $407 $539 #
point $-1 70.846378064048082 9.275291087119605 8.0017598643163232 #
coedge $-1 $422 $421 $414 $506 forward $411 $-1 #
edge $-1 $507 2.3326202293622771 $510 28.608503058278025 $505 $540 forward 7 unknown #
vertex $-1 $506 $541 #
straight-curve $-1 -77.963805047761468 -10.32703159630095 66.174259259758003 0 0 1 I I #
edge $-1 $510 -6.8292135826755551 $423 -0.16642244457523425 $422 $542 forward 7 unknown #
vertex $-1 $509 $543 #
straight-curve $-1 -77.963805047761454 -10.32703159630095 0.11440632153400543 -0.84804809178421925 0 -0.52991927123019833 I I #
point $-1 -77.963805047761468 -10.32703159630095 0.11440632153399655 #
point $-1 -51.687922218845721 -3.6642404582006289 16.533400497128483 #
straight-curve $-1 -77.963805047761468 0 16.533400497128483 0 -1 0 I I #
vertex $-1 $429 $544 #
point $-1 -64.083932339127358 -8.9944733686808824 7.6083351353545758 #
vertex $-1 $433 $545 #
point $-1 -64.083932339127358 -6.9956360272507858 7.6083351353545758 #
vertex $-1 $437 $546 #
point $-1 -64.083932339127358 -4.9967986858206892 7.6083351353545758 #
straight-curve $-1 -77.963805047761468 33.142052580058426 0 0 0 -1 I I #
point $-1 -77.963805047761468 -33.142052580058426 -16.533400497128483 #
straight-curve $-1 -77.963805047761468 0 -16.533400497128483 0 1 0 I I #
point $-1 -77.963805047761468 33.142052580058426 -16.533400497128483 #
straight-curve $-1 -77.963805047761468 -11.922326232437829 -13.28212264253099 0 -1 0 I I #
point $-1 -77.963805047761468 -33.142052580058426 -13.28212264253099 #
point $-1 -77.963805047761468 -14.547252349692888 -13.28212264253099 #
straight-curve $-1 -77.963805047761468 -14.547252349692888 -4.6470071785418119 0 0 -1 I I #
straight-curve $-1 -77.963805047761468 -33.142052580058426 0 0 0 -1 I I #
point $-1 -77.963805047761468 14.54725234969289 -13.28212264253099 #
straight-curve $-1 -77.963805047761468 11.922326232437829 -13.28212264253099 0 -1 0 I I #
point $-1 -77.963805047761468 33.142052580058426 -13.28212264253099 #
straight-curve $-1 -77.963805047761468 33.142052580058426 0 0 0 -1 I I #
straight-curve $-1 38.981903803148725 11.694190869181888 16.533400497128483 -1 0 0 I I #
point $-1 77.963805047761468 11.694190869181888 16.533400497128483 #
straight-curve $-1 66.401917065515391 3.7305581252864428 16.533400497128483 0 -1 0 I I #
point $-1 66.401917065515377 11.694190869181888 16.533400497128483 #
point $-1 69.43216450167499 5.6469414140261733 8.0017598807248103 #
point $-1 69.43216450167499 9.275291087119605 8.0017598807248103 #
straight-curve $-1 -80.296425277123745 -10.32703159630095 16.533400497128483 1 0 0 I I #
point $-1 -77.963805047761468 -10.32703159630095 16.533400497128483 #
straight-curve $-1 -51.687922218845713 -3.4978180136253947 16.533400497128483 0 1 0 I I #
point $-1 -51.687922218845721 -10.32703159630095 16.533400497128483 #
point $-1 -64.163464544265864 -8.9944733686808824 7.2638432946009708 #
point $-1 -64.163464544265864 -6.9956360272507858 7.2638432946009708 #
point $-1 -64.163464544265864 -4.9967986858206892 7.2638432946009708 #
End-of-ACIS-data 