500 0 8 0           
7 Unknown 11 ACIS 5.0 NT 24 Fri Mar 26 17:29:02 1999 
-1 9.9999999999999995e-007 1e-010 
body $-1 $8 $-1 $9 #
body $-1 $10 $-1 $11 #
body $-1 $12 $-1 $13 #
body $-1 $14 $-1 $15 #
body $-1 $16 $-1 $17 #
body $-1 $18 $-1 $19 #
body $-1 $20 $-1 $21 #
body $-1 $22 $-1 $23 #
lump $-1 $-1 $24 $0 #
transform $-1 1 0 0 0 1 0 0 0 1 52.230597857600635 27.101666126111127 13.461257867234833 1 rotate no_reflect no_shear #
lump $-1 $-1 $25 $1 #
transform $-1 1 0 0 0 1 0 0 0 1 52.230597857600635 27.101666126111127 13.461257867234833 1 rotate no_reflect no_shear #
lump $-1 $-1 $26 $2 #
transform $-1 1 0 0 0 1 0 0 0 1 52.230597857600635 27.101666126111127 13.461257867234833 1 rotate no_reflect no_shear #
lump $-1 $-1 $27 $3 #
transform $-1 1 0 0 0 1 0 0 0 1 52.230597857600635 27.101666126111127 13.461257867234833 1 rotate no_reflect no_shear #
lump $-1 $-1 $28 $4 #
transform $-1 1 0 0 0 1 0 0 0 1 52.230597857600635 27.101666126111127 13.461257867234833 1 rotate no_reflect no_shear #
lump $-1 $-1 $29 $5 #
transform $-1 1 0 0 0 1 0 0 0 1 52.230597857600635 27.101666126111127 13.461257867234833 1 rotate no_reflect no_shear #
lump $-1 $-1 $30 $6 #
transform $-1 1 0 0 0 1 0 0 0 1 52.230597857600635 27.101666126111127 13.461257867234833 1 rotate no_reflect no_shear #
lump $-1 $-1 $31 $7 #
transform $-1 1 0 0 0 1 0 0 0 1 52.230597857600635 27.101666126111127 13.461257867234833 1 rotate no_reflect no_shear #
shell $-1 $-1 $-1 $32 $-1 $8 #
shell $-1 $-1 $-1 $33 $-1 $10 #
shell $-1 $-1 $-1 $34 $-1 $12 #
shell $-1 $-1 $-1 $35 $-1 $14 #
shell $-1 $-1 $-1 $36 $-1 $16 #
shell $-1 $-1 $-1 $37 $-1 $18 #
shell $-1 $-1 $-1 $38 $-1 $20 #
shell $-1 $-1 $-1 $39 $-1 $22 #
face $-1 $40 $41 $24 $-1 $42 forward single #
face $-1 $43 $44 $25 $-1 $45 reversed single #
face $-1 $46 $47 $26 $-1 $48 forward single #
face $-1 $49 $50 $27 $-1 $51 forward single #
face $-1 $52 $53 $28 $-1 $54 reversed single #
face $-1 $55 $56 $29 $-1 $57 forward single #
face $-1 $58 $59 $30 $-1 $60 forward single #
face $-1 $61 $62 $31 $-1 $63 forward single #
face $-1 $64 $65 $24 $-1 $66 reversed single #
loop $-1 $-1 $67 $32 #
plane-surface $-1 0 0 13.461257867234833 0 0 1 1 0 0 forward_v I I I I #
face $-1 $68 $69 $25 $-1 $70 reversed single #
loop $-1 $-1 $71 $33 #
plane-surface $-1 70.234411513408901 19.302201906109719 152.7635792022364 0 -1 0 -0.78801076186113728 0 -0.61566146476048833 forward_v I I I I #
face $-1 $72 $73 $26 $-1 $74 forward single #
loop $-1 $75 $76 $34 #
cone-surface $-1 48.32854757020349 10.047237878830288 8.985377122869135 -0.78801076186113728 0 -0.61566146476048833 0.61566146476048833 0 -0.78801076186113728 1 I I 0 1 1 forward I I I I #
face $-1 $77 $78 $27 $-1 $79 forward single #
loop $-1 $80 $81 $35 #
cone-surface $-1 48.32854757020349 15.600216295197939 8.985377122869135 -0.78801076186113728 0 -0.61566146476048833 0.61566146476048833 0 -0.78801076186113728 1 I I 0 1 1 forward I I I I #
face $-1 $82 $83 $28 $-1 $84 reversed single #
loop $-1 $-1 $85 $36 #
plane-surface $-1 -123.47296287255216 -4.9485585479825289 77.898932021573358 0 1 0 -0.68199836817093118 0 0.7313536940579346 forward_v I I I I #
face $-1 $86 $87 $29 $-1 $88 forward single #
loop $-1 $89 $90 $37 #
cone-surface $-1 -44.242313430901412 -1.9106161273635252 5.7917504305516232 0.68199836817093118 0 -0.7313536940579346 1.0970305410869019 0 1.0229975522563968 1 I I 0 1 1.5 forward I I I I #
face $-1 $91 $92 $30 $-1 $93 forward single #
loop $-1 $94 $95 $38 #
cone-surface $-1 -44.242313430901412 2.6462975035649805 5.7917504305516232 0.68199836817093118 0 -0.7313536940579346 1.0970305410869019 0 1.0229975522563968 1 I I 0 1 1.5 forward I I I I #
face $-1 $96 $97 $31 $-1 $98 forward single #
loop $-1 $99 $100 $39 #
cone-surface $-1 -44.242313430901412 7.2032111344934862 5.7917504305516232 0.68199836817093118 0 -0.7313536940579346 1.0970305410869019 0 1.0229975522563968 1 I I 0 1 1.5 forward I I I I #
face $-1 $101 $102 $24 $-1 $103 reversed single #
loop $-1 $-1 $104 $40 #
plane-surface $-1 0 0 -13.461257867234833 0 0 1 1 0 0 forward_v I I I I #
coedge $-1 $105 $106 $107 $108 forward $41 $-1 #
face $-1 $109 $110 $25 $-1 $111 reversed single #
loop $-1 $-1 $112 $43 #
plane-surface $-1 -12.082134907052222 12.82372708701412 88.450846437583536 0.78801076186113728 0 0.61566146476048833 0.61566146476048833 0 -0.78801076186113728 forward_v I I I I #
coedge $-1 $113 $114 $115 $116 reversed $44 $-1 #
face $-1 $-1 $117 $26 $-1 $118 forward single #
loop $-1 $119 $120 $46 #
cone-surface $-1 46.894715249932979 10.047237878830288 7.8651445711794015 -0.78801076186113728 0 -0.61566146476048833 0.30783073238024417 0 -0.39400538093056864 1 I I -0.70710678118654746 0.70710678118654746 0.5 forward I I I I #
loop $-1 $-1 $121 $34 #
coedge $-1 $76 $76 $122 $123 reversed $47 $-1 #
face $-1 $-1 $124 $27 $-1 $125 forward single #
loop $-1 $126 $127 $49 #
cone-surface $-1 46.894715249932979 15.600216295197939 7.8651445711794015 -0.78801076186113728 0 -0.61566146476048833 0.30783073238024417 0 -0.39400538093056864 1 I I -0.70710678118654746 0.70710678118654746 0.5 forward I I I I #
loop $-1 $-1 $128 $35 #
coedge $-1 $81 $81 $129 $130 reversed $50 $-1 #
face $-1 $131 $132 $28 $-1 $133 reversed single #
loop $-1 $-1 $134 $52 #
plane-surface $-1 -52.230597857600628 2.6462975035649769 1.5008506495520209 -0.68199836817093118 0 0.7313536940579346 0.7313536940579346 0 0.68199836817093118 forward_v I I I I #
coedge $-1 $135 $136 $137 $138 reversed $53 $-1 #
face $-1 $-1 $139 $29 $-1 $140 forward single #
loop $-1 $141 $142 $55 #
cone-surface $-1 -42.155513315224972 -1.9106161273635252 3.5539313321663695 0.68199836817093118 0 -0.7313536940579346 0.54851527054345095 0 0.51149877612819838 1 I I -0.70710678118654757 0.70710678118654757 0.75 forward I I I I #
loop $-1 $-1 $143 $37 #
coedge $-1 $90 $90 $144 $145 reversed $56 $-1 #
face $-1 $-1 $146 $30 $-1 $147 forward single #
loop $-1 $148 $149 $58 #
cone-surface $-1 -42.155513315224972 2.6462975035649805 3.5539313321663695 0.68199836817093118 0 -0.7313536940579346 0.54851527054345095 0 0.51149877612819838 1 I I -0.70710678118654757 0.70710678118654757 0.75 forward I I I I #
loop $-1 $-1 $150 $38 #
coedge $-1 $95 $95 $151 $152 reversed $59 $-1 #
face $-1 $-1 $153 $31 $-1 $154 forward single #
loop $-1 $155 $156 $61 #
cone-surface $-1 -42.155513315224972 7.2032111344934862 3.5539313321663695 0.68199836817093118 0 -0.7313536940579346 0.54851527054345095 0 0.51149877612819838 1 I I -0.70710678118654757 0.70710678118654757 0.75 forward I I I I #
loop $-1 $-1 $157 $39 #
coedge $-1 $100 $100 $158 $159 reversed $62 $-1 #
face $-1 $160 $161 $24 $-1 $162 reversed single #
loop $-1 $-1 $163 $64 #
plane-surface $-1 0 -27.101666126111127 0 0 1 0 0 0 1 forward_v I I I I #
coedge $-1 $164 $165 $166 $167 forward $65 $-1 #
coedge $-1 $168 $67 $169 $170 forward $41 $-1 #
coedge $-1 $67 $168 $171 $172 forward $41 $-1 #
coedge $-1 $173 $174 $67 $108 reversed $175 $-1 #
edge $-1 $176 -27.101666126111127 $177 27.101666126111127 $107 $178 forward 7 unknown #
face $-1 $179 $180 $25 $-1 $181 forward single #
loop $-1 $-1 $182 $68 #
plane-surface $-1 70.234411513408901 6.3452522679185215 152.7635792022364 0 1 0 0.78801076186113728 0 0.61566146476048833 forward_v I I I I #
coedge $-1 $183 $184 $185 $186 reversed $69 $-1 #
coedge $-1 $114 $71 $187 $188 reversed $44 $-1 #
coedge $-1 $71 $113 $183 $189 reversed $44 $-1 #
coedge $-1 $185 $190 $71 $116 forward $180 $-1 #
edge $-1 $191 -17.113392100896185 $192 -11.388945404781794 $115 $193 forward 7 unknown #
loop $-1 $-1 $122 $72 #
plane-surface $-1 -12.082134907052222 12.82372708701412 88.450846437583536 0.78801076186113728 0 0.61566146476048833 0.61566146476048833 0 -0.78801076186113728 forward_v I I I I #
loop $-1 $-1 $194 $46 #
coedge $-1 $120 $120 $121 $195 reversed $73 $-1 #
coedge $-1 $121 $121 $120 $195 forward $75 $-1 #
coedge $-1 $122 $122 $76 $123 forward $117 $-1 #
edge $-1 $196 0 $196 6.2831853071796004 $122 $197 forward 7 unknown #
loop $-1 $-1 $129 $77 #
plane-surface $-1 -12.082134907052222 12.82372708701412 88.450846437583536 0.78801076186113728 0 0.61566146476048833 0.61566146476048833 0 -0.78801076186113728 forward_v I I I I #
loop $-1 $-1 $198 $49 #
coedge $-1 $127 $127 $128 $199 reversed $78 $-1 #
coedge $-1 $128 $128 $127 $199 forward $80 $-1 #
coedge $-1 $129 $129 $81 $130 forward $124 $-1 #
edge $-1 $200 0 $200 6.2831853071796004 $129 $201 forward 7 unknown #
face $-1 $202 $203 $28 $-1 $204 reversed single #
loop $-1 $-1 $205 $82 #
plane-surface $-1 -123.47296287255216 10.241153555112483 77.898932021573358 0 -1 0 0.68199836817093118 0 -0.7313536940579346 forward_v I I I I #
coedge $-1 $206 $207 $208 $209 reversed $83 $-1 #
coedge $-1 $136 $85 $210 $211 reversed $53 $-1 #
coedge $-1 $85 $135 $206 $212 reversed $53 $-1 #
coedge $-1 $208 $213 $85 $138 forward $214 $-1 #
edge $-1 $215 9.5058835786754443 $216 22.331849752977426 $137 $217 forward 7 unknown #
loop $-1 $-1 $144 $86 #
plane-surface $-1 -52.230597857600628 2.6462975035649769 1.5008506495520209 -0.68199836817093118 0 0.7313536940579346 0.7313536940579346 0 0.68199836817093118 forward_v I I I I #
loop $-1 $-1 $218 $55 #
coedge $-1 $142 $142 $143 $219 reversed $87 $-1 #
coedge $-1 $143 $143 $142 $219 forward $89 $-1 #
coedge $-1 $144 $144 $90 $145 forward $139 $-1 #
edge $-1 $220 0 $220 6.2831853071796004 $144 $221 forward 7 unknown #
loop $-1 $-1 $151 $91 #
plane-surface $-1 -52.230597857600628 2.6462975035649769 1.5008506495520209 -0.68199836817093118 0 0.7313536940579346 0.7313536940579346 0 0.68199836817093118 forward_v I I I I #
loop $-1 $-1 $222 $58 #
coedge $-1 $149 $149 $150 $223 reversed $92 $-1 #
coedge $-1 $150 $150 $149 $223 forward $94 $-1 #
coedge $-1 $151 $151 $95 $152 forward $146 $-1 #
edge $-1 $224 0 $224 6.2831853071796004 $151 $225 forward 7 unknown #
loop $-1 $-1 $158 $96 #
plane-surface $-1 -52.230597857600628 2.6462975035649769 1.5008506495520209 -0.68199836817093118 0 0.7313536940579346 0.7313536940579346 0 0.68199836817093118 forward_v I I I I #
loop $-1 $-1 $226 $61 #
coedge $-1 $156 $156 $157 $227 reversed $97 $-1 #
coedge $-1 $157 $157 $156 $227 forward $99 $-1 #
coedge $-1 $158 $158 $100 $159 forward $153 $-1 #
edge $-1 $228 0 $228 6.2831853071796004 $158 $229 forward 7 unknown #
face $-1 $230 $231 $24 $-1 $232 reversed single #
loop $-1 $-1 $233 $101 #
plane-surface $-1 -52.230597857600635 0 0 1 0 0 0 0 -1 forward_v I I I I #
coedge $-1 $234 $171 $235 $236 forward $102 $-1 #
coedge $-1 $237 $104 $234 $238 forward $65 $-1 #
coedge $-1 $104 $237 $239 $240 forward $65 $-1 #
coedge $-1 $174 $173 $104 $167 reversed $175 $-1 #
edge $-1 $241 -27.101666126111127 $242 27.101666126111127 $166 $243 forward 7 unknown #
coedge $-1 $106 $105 $244 $245 forward $41 $-1 #
coedge $-1 $246 $247 $105 $170 reversed $231 $-1 #
edge $-1 $177 -52.230597857600635 $248 52.230597857600635 $169 $249 forward 7 unknown #
coedge $-1 $163 $250 $106 $172 reversed $102 $-1 #
edge $-1 $251 -52.230597857600635 $176 52.230597857600635 $171 $252 forward 7 unknown #
coedge $-1 $166 $107 $250 $253 forward $175 $-1 #
coedge $-1 $107 $166 $246 $254 reversed $175 $-1 #
loop $-1 $-1 $173 $230 #
vertex $-1 $108 $255 #
vertex $-1 $108 $256 #
straight-curve $-1 52.230597857600635 0 13.461257867234833 0 1 0 I I #
face $-1 $-1 $257 $25 $-1 $258 reversed single #
loop $-1 $-1 $115 $109 #
plane-surface $-1 0 0 13.461257867234833 0 0 1 1 0 0 forward_v I I I I #
coedge $-1 $259 $260 $261 $262 reversed $110 $-1 #
coedge $-1 $263 $112 $114 $189 forward $69 $-1 #
coedge $-1 $112 $263 $259 $264 forward $69 $-1 #
coedge $-1 $261 $115 $112 $186 forward $180 $-1 #
edge $-1 $192 -12.890338362602659 $265 0.066611275588538632 $185 $266 forward 7 unknown #
coedge $-1 $267 $268 $113 $188 forward $257 $-1 #
edge $-1 $269 -70.247489583995772 $191 -62.920531733883365 $187 $270 forward 7 unknown #
edge $-1 $192 95.163152839736611 $269 104.46119571520126 $114 $271 forward 7 unknown #
coedge $-1 $115 $261 $267 $272 forward $180 $-1 #
vertex $-1 $188 $273 #
vertex $-1 $116 $274 #
straight-curve $-1 35.11720575670445 19.302201906109719 13.461257867234835 -1 0 0 I I #
coedge $-1 $194 $194 $-1 $275 reversed $119 $-1 #
edge $-1 $276 0 $276 6.2831853071796004 $120 $277 forward 7 unknown #
vertex $-1 $123 $278 #
ellipse-curve $-1 49.368374509543443 10.047237878830288 9.7977789421786312 0.78801076186113728 0 0.61566146476048833 0.61566146476048833 0 -0.78801076186113728 1 I I #
coedge $-1 $198 $198 $-1 $279 reversed $126 $-1 #
edge $-1 $280 0 $280 6.2831853071796004 $127 $281 forward 7 unknown #
vertex $-1 $130 $282 #
ellipse-curve $-1 49.368374509543443 15.600216295197939 9.7977789421786312 0.78801076186113728 0 0.61566146476048833 0.61566146476048833 0 -0.78801076186113728 1 I I #
face $-1 $-1 $214 $28 $-1 $283 forward single #
loop $-1 $-1 $284 $131 #
plane-surface $-1 -52.230597857600635 0 0 1 0 0 0 0 -1 forward_v I I I I #
coedge $-1 $285 $286 $287 $288 reversed $132 $-1 #
coedge $-1 $289 $134 $136 $212 forward $83 $-1 #
coedge $-1 $134 $289 $285 $290 forward $83 $-1 #
coedge $-1 $287 $137 $134 $209 forward $214 $-1 #
edge $-1 $216 -6.2717072997650174 $291 8.9180048033299943 $208 $292 forward 7 unknown #
coedge $-1 $293 $294 $135 $211 forward $203 $-1 #
edge $-1 $295 -37.448615361234665 $215 -25.488208143551844 $210 $296 forward 7 unknown #
edge $-1 $216 -17.537295946557371 $295 9.739602292442716e-015 $136 $297 forward 7 unknown #
coedge $-1 $137 $287 $293 $298 forward $214 $-1 #
loop $-1 $-1 $287 $202 #
vertex $-1 $211 $299 #
vertex $-1 $138 $300 #
straight-curve $-1 -61.73648143627608 -4.9485585479825289 13.461257867234835 1 0 0 I I #
coedge $-1 $218 $218 $-1 $301 reversed $141 $-1 #
edge $-1 $302 0 $302 6.2831853071796004 $142 $303 forward 7 unknown #
vertex $-1 $145 $304 #
ellipse-curve $-1 -45.817614770449644 -1.9106161273635252 7.4810542583934216 -0.68199836817093118 0 0.7313536940579346 1.0970305410869019 0 1.0229975522563968 1 I I #
coedge $-1 $222 $222 $-1 $305 reversed $148 $-1 #
edge $-1 $306 0 $306 6.2831853071796004 $149 $307 forward 7 unknown #
vertex $-1 $152 $308 #
ellipse-curve $-1 -45.817614770449644 2.6462975035649805 7.4810542583934216 -0.68199836817093118 0 0.7313536940579346 1.0970305410869019 0 1.0229975522563968 1 I I #
coedge $-1 $226 $226 $-1 $309 reversed $155 $-1 #
edge $-1 $310 0 $310 6.2831853071796004 $156 $311 forward 7 unknown #
vertex $-1 $159 $312 #
ellipse-curve $-1 -45.817614770449644 7.2032111344934862 7.4810542583934216 -0.68199836817093118 0 0.7313536940579346 1.0970305410869019 0 1.0229975522563968 1 I I #
face $-1 $-1 $175 $24 $-1 $313 reversed single #
loop $-1 $-1 $246 $160 #
plane-surface $-1 0 27.101666126111127 0 0 -1 0 0 0 -1 forward_v I I I I #
coedge $-1 $314 $244 $247 $315 forward $161 $-1 #
coedge $-1 $250 $163 $164 $238 reversed $102 $-1 #
coedge $-1 $244 $314 $163 $236 reversed $161 $-1 #
edge $-1 $251 -13.461257867234833 $316 13.461257867234833 $235 $317 forward 7 unknown #
coedge $-1 $165 $164 $314 $318 forward $65 $-1 #
edge $-1 $242 -52.230597857600635 $316 52.230597857600635 $234 $319 forward 7 unknown #
coedge $-1 $247 $246 $165 $240 reversed $231 $-1 #
edge $-1 $320 -52.230597857600635 $241 52.230597857600635 $239 $321 forward 7 unknown #
vertex $-1 $167 $322 #
vertex $-1 $253 $323 #
straight-curve $-1 52.230597857600635 0 -13.461257867234833 0 -1 0 I I #
coedge $-1 $233 $235 $168 $245 reversed $161 $-1 #
edge $-1 $248 -27.101666126111127 $251 27.101666126111127 $244 $324 forward 7 unknown #
coedge $-1 $239 $169 $174 $254 forward $231 $-1 #
coedge $-1 $169 $239 $233 $315 reversed $231 $-1 #
vertex $-1 $170 $325 #
straight-curve $-1 0 27.101666126111127 13.461257867234833 -1 0 0 I I #
coedge $-1 $171 $234 $173 $253 reversed $102 $-1 #
vertex $-1 $245 $326 #
straight-curve $-1 0 -27.101666126111127 13.461257867234833 1 0 0 I I #
edge $-1 $176 -13.461257867234833 $242 13.461257867234833 $173 $327 forward 7 unknown #
edge $-1 $177 -13.461257867234833 $241 13.461257867234833 $174 $328 forward 7 unknown #
point $-1 52.230597857600635 -27.101666126111127 13.461257867234833 #
point $-1 52.230597857600635 27.101666126111127 13.461257867234833 #
loop $-1 $-1 $187 $179 #
plane-surface $-1 52.230597857600635 0 0 -1 0 0 0 0 1 forward_v I I I I #
coedge $-1 $260 $182 $184 $264 reversed $110 $-1 #
coedge $-1 $182 $259 $329 $330 reversed $110 $-1 #
coedge $-1 $190 $185 $182 $262 forward $180 $-1 #
edge $-1 $265 11.388945404781794 $331 17.113392100896185 $261 $332 forward 7 unknown #
coedge $-1 $184 $183 $268 $333 reversed $69 $-1 #
edge $-1 $334 -104.46119571520126 $265 -95.163152839736611 $259 $335 forward 7 unknown #
vertex $-1 $186 $336 #
straight-curve $-1 46.506151161486244 6.4118635435070601 13.461257867234842 0 -1 0 I I #
coedge $-1 $329 $187 $190 $272 reversed $257 $-1 #
coedge $-1 $187 $329 $263 $333 forward $257 $-1 #
vertex $-1 $188 $337 #
straight-curve $-1 52.230597857600635 19.302201906109719 76.3817896011182 0 0 1 I I #
straight-curve $-1 -12.082134907052222 19.302201906109719 88.450846437583536 0.61566146476048833 0 -0.78801076186113728 I I #
edge $-1 $331 6.3452522679185215 $191 19.302201906109719 $267 $338 forward 7 unknown #
point $-1 52.230597857600635 19.302201906109719 13.461257867234833 #
point $-1 46.506151161486244 19.302201906109719 13.461257867234835 #
edge $-1 $339 1 $339 0 $194 $-1 forward 7 unknown #
vertex $-1 $195 $340 #
ellipse-curve $-1 47.288720630863544 10.047237878830288 8.172975303559646 0.78801076186113728 0 0.61566146476048833 0.61566146476048833 0 -0.78801076186113728 1 I I #
point $-1 49.984035974303922 10.047237878830288 9.0097681803174847 #
edge $-1 $341 1 $341 0 $198 $-1 forward 7 unknown #
vertex $-1 $199 $342 #
ellipse-curve $-1 47.288720630863544 15.600216295197939 8.172975303559646 0.78801076186113728 0 0.61566146476048833 0.61566146476048833 0 -0.78801076186113728 1 I I #
point $-1 49.984035974303922 15.600216295197939 9.0097681803174847 #
plane-surface $-1 0 0 13.461257867234833 0 0 1 1 0 0 forward_v I I I I #
coedge $-1 $294 $293 $286 $343 forward $203 $-1 #
coedge $-1 $286 $205 $207 $290 reversed $132 $-1 #
coedge $-1 $205 $285 $284 $343 reversed $132 $-1 #
coedge $-1 $213 $208 $205 $288 forward $214 $-1 #
edge $-1 $291 -22.331849752977426 $344 -9.5058835786754443 $287 $345 forward 7 unknown #
coedge $-1 $207 $206 $294 $346 reversed $83 $-1 #
edge $-1 $347 -9.739602292442716e-015 $291 17.537295946557371 $285 $348 forward 7 unknown #
vertex $-1 $209 $349 #
straight-curve $-1 -39.404631683298661 1.3231487517824885 13.461257867234833 0 1 0 I I #
coedge $-1 $284 $210 $213 $298 reversed $203 $-1 #
coedge $-1 $210 $284 $289 $346 forward $203 $-1 #
vertex $-1 $211 $350 #
straight-curve $-1 -52.230597857600635 -4.9485585479825289 38.949466010786679 0 0 1 I I #
straight-curve $-1 -52.230597857600628 -4.9485585479825289 1.5008506495520209 -0.7313536940579346 0 -0.68199836817093118 I I #
edge $-1 $344 -10.241153555112483 $215 4.9485585479825289 $293 $351 forward 7 unknown #
point $-1 -52.230597857600635 -4.9485585479825289 13.461257867234833 #
point $-1 -39.404631683298653 -4.9485585479825289 13.461257867234835 #
edge $-1 $352 1 $352 0 $218 $-1 forward 7 unknown #
vertex $-1 $219 $353 #
ellipse-curve $-1 -42.667012091353172 -1.9106161273635252 4.1024466027098203 -0.68199836817093118 0 0.7313536940579346 1.0970305410869019 0 1.0229975522563968 1 I I #
point $-1 -44.720584229362743 -1.9106161273635252 8.5040518106498233 #
edge $-1 $354 1 $354 0 $222 $-1 forward 7 unknown #
vertex $-1 $223 $355 #
ellipse-curve $-1 -42.667012091353172 2.6462975035649805 4.1024466027098203 -0.68199836817093118 0 0.7313536940579346 1.0970305410869019 0 1.0229975522563968 1 I I #
point $-1 -44.720584229362743 2.6462975035649805 8.5040518106498233 #
edge $-1 $356 1 $356 0 $226 $-1 forward 7 unknown #
vertex $-1 $227 $357 #
ellipse-curve $-1 -42.667012091353172 7.2032111344934862 4.1024466027098203 -0.68199836817093118 0 0.7313536940579346 1.0970305410869019 0 1.0229975522563968 1 I I #
point $-1 -44.720584229362743 7.2032111344934862 8.5040518106498233 #
plane-surface $-1 52.230597857600635 0 0 -1 0 0 0 0 1 forward_v I I I I #
coedge $-1 $235 $233 $237 $318 reversed $161 $-1 #
edge $-1 $248 -13.461257867234833 $320 13.461257867234833 $247 $358 forward 7 unknown #
vertex $-1 $318 $359 #
straight-curve $-1 -52.230597857600635 -27.101666126111127 0 0 0 -1 I I #
edge $-1 $316 -27.101666126111127 $320 27.101666126111127 $314 $360 forward 7 unknown #
straight-curve $-1 0 -27.101666126111127 -13.461257867234833 -1 0 0 I I #
vertex $-1 $240 $361 #
straight-curve $-1 0 27.101666126111127 -13.461257867234833 1 0 0 I I #
point $-1 52.230597857600635 27.101666126111127 -13.461257867234833 #
point $-1 52.230597857600635 -27.101666126111127 -13.461257867234833 #
straight-curve $-1 -52.230597857600635 0 13.461257867234833 0 -1 0 I I #
point $-1 -52.230597857600635 27.101666126111127 13.461257867234833 #
point $-1 -52.230597857600635 -27.101666126111127 13.461257867234833 #
straight-curve $-1 52.230597857600635 -27.101666126111127 0 0 0 -1 I I #
straight-curve $-1 52.230597857600635 27.101666126111127 0 0 0 -1 I I #
coedge $-1 $268 $267 $260 $330 forward $257 $-1 #
edge $-1 $331 62.920531733883365 $334 70.247489583995772 $329 $362 forward 7 unknown #
vertex $-1 $272 $363 #
straight-curve $-1 35.11720575670445 6.3452522679185215 13.461257867234835 1 0 0 I I #
edge $-1 $334 -0.066611275588538632 $269 12.890338362602659 $268 $364 forward 7 unknown #
vertex $-1 $333 $365 #
straight-curve $-1 -12.082134907052222 6.3452522679185215 88.450846437583536 -0.61566146476048833 0 0.78801076186113728 I I #
point $-1 46.506151161486244 6.3452522679185215 13.461257867234835 #
point $-1 52.230597857600628 19.302201906109719 6.1343000171224276 #
straight-curve $-1 52.230597857600635 0 13.461257867234833 0 1 0 I I #
vertex $-1 $275 $366 #
point $-1 47.904382095624037 10.047237878830288 7.3849645416985084 #
vertex $-1 $279 $367 #
point $-1 47.904382095624037 15.600216295197939 7.3849645416985084 #
edge $-1 $344 25.488208143551844 $347 37.448615361234665 $284 $368 forward 7 unknown #
vertex $-1 $298 $369 #
straight-curve $-1 -61.73648143627608 10.241153555112483 13.461257867234835 -1 0 0 I I #
edge $-1 $347 -8.9180048033299943 $295 6.2717072997650174 $294 $370 forward 7 unknown #
vertex $-1 $346 $371 #
straight-curve $-1 -52.230597857600628 10.241153555112483 1.5008506495520209 0.7313536940579346 0 0.68199836817093118 I I #
point $-1 -39.404631683298653 10.241153555112483 13.461257867234835 #
point $-1 -52.230597857600635 -4.9485585479825289 1.5008506495520142 #
straight-curve $-1 -52.230597857600635 0 13.461257867234833 0 -1 0 I I #
vertex $-1 $301 $372 #
point $-1 -41.56998155026627 -1.9106161273635252 5.1254441549662175 #
vertex $-1 $305 $373 #
point $-1 -41.56998155026627 2.6462975035649805 5.1254441549662175 #
vertex $-1 $309 $374 #
point $-1 -41.56998155026627 7.2032111344934862 5.1254441549662175 #
straight-curve $-1 -52.230597857600635 27.101666126111127 0 0 0 -1 I I #
point $-1 -52.230597857600635 -27.101666126111127 -13.461257867234833 #
straight-curve $-1 -52.230597857600635 0 -13.461257867234833 0 1 0 I I #
point $-1 -52.230597857600635 27.101666126111127 -13.461257867234833 #
straight-curve $-1 52.230597857600635 6.3452522679185215 76.3817896011182 0 0 -1 I I #
point $-1 52.230597857600635 6.3452522679185215 13.461257867234833 #
straight-curve $-1 52.230597857600642 6.4118635435070601 6.1343000171224205 0 1 0 I I #
point $-1 52.230597857600628 6.3452522679185215 6.1343000171224276 #
point $-1 46.500709869002414 10.047237878830288 7.557313838799157 #
point $-1 46.500709869002414 15.600216295197939 7.557313838799157 #
straight-curve $-1 -52.230597857600635 10.241153555112483 38.949466010786679 0 0 -1 I I #
point $-1 -52.230597857600635 10.241153555112483 13.461257867234833 #
straight-curve $-1 -52.230597857600635 1.3231487517824885 1.5008506495520093 0 -1 0 I I #
point $-1 -52.230597857600635 10.241153555112483 1.5008506495520142 #
point $-1 -41.644014539096773 -1.9106161273635252 3.0054160616229186 #
point $-1 -41.644014539096773 2.6462975035649805 3.0054160616229186 #
point $-1 -41.644014539096773 7.2032111344934862 3.0054160616229186 #
End-of-ACIS-data 