500 0 10 0           
7 Unknown 11 ACIS 5.0 NT 24 Fri Mar 26 00:59:09 1999 
-1 9.9999999999999995e-007 1e-010 
body $-1 $10 $-1 $11 #
body $-1 $12 $-1 $13 #
body $-1 $14 $-1 $15 #
body $-1 $16 $-1 $17 #
body $-1 $18 $-1 $19 #
body $-1 $20 $-1 $21 #
body $-1 $22 $-1 $23 #
body $-1 $24 $-1 $25 #
body $-1 $26 $-1 $27 #
body $-1 $28 $-1 $29 #
lump $-1 $-1 $30 $0 #
transform $-1 1 0 0 0 1 0 0 0 1 72.885525070955538 31.222862584795333 8.1215461404073483 1 rotate no_reflect no_shear #
lump $-1 $-1 $31 $1 #
transform $-1 1 0 0 0 1 0 0 0 1 72.885525070955538 31.222862584795333 8.1215461404073483 1 rotate no_reflect no_shear #
lump $-1 $-1 $32 $2 #
transform $-1 1 0 0 0 1 0 0 0 1 72.885525070955538 31.222862584795333 8.1215461404073483 1 rotate no_reflect no_shear #
lump $-1 $-1 $33 $3 #
transform $-1 1 0 0 0 1 0 0 0 1 72.885525070955538 31.222862584795333 8.1215461404073483 1 rotate no_reflect no_shear #
lump $-1 $-1 $34 $4 #
transform $-1 1 0 0 0 1 0 0 0 1 72.885525070955538 31.222862584795333 8.1215461404073483 1 rotate no_reflect no_shear #
lump $-1 $-1 $35 $5 #
transform $-1 1 0 0 0 1 0 0 0 1 72.885525070955538 31.222862584795333 8.1215461404073483 1 rotate no_reflect no_shear #
lump $-1 $-1 $36 $6 #
transform $-1 1 0 0 0 1 0 0 0 1 72.885525070955538 31.222862584795333 8.1215461404073483 1 rotate no_reflect no_shear #
lump $-1 $-1 $37 $7 #
transform $-1 1 0 0 0 1 0 0 0 1 72.885525070955538 31.222862584795333 8.1215461404073483 1 rotate no_reflect no_shear #
lump $-1 $-1 $38 $8 #
transform $-1 1 0 0 0 1 0 0 0 1 72.885525070955538 31.222862584795333 8.1215461404073483 1 rotate no_reflect no_shear #
lump $-1 $-1 $39 $9 #
transform $-1 1 0 0 0 1 0 0 0 1 72.885525070955538 31.222862584795333 8.1215461404073483 1 rotate no_reflect no_shear #
shell $-1 $-1 $-1 $40 $-1 $10 #
shell $-1 $-1 $-1 $41 $-1 $12 #
shell $-1 $-1 $-1 $42 $-1 $14 #
shell $-1 $-1 $-1 $43 $-1 $16 #
shell $-1 $-1 $-1 $44 $-1 $18 #
shell $-1 $-1 $-1 $45 $-1 $20 #
shell $-1 $-1 $-1 $46 $-1 $22 #
shell $-1 $-1 $-1 $47 $-1 $24 #
shell $-1 $-1 $-1 $48 $-1 $26 #
shell $-1 $-1 $-1 $49 $-1 $28 #
face $-1 $50 $51 $30 $-1 $52 forward single #
face $-1 $53 $54 $31 $-1 $55 forward single #
face $-1 $56 $57 $32 $-1 $58 reversed single #
face $-1 $59 $60 $33 $-1 $61 forward single #
face $-1 $62 $63 $34 $-1 $64 reversed single #
face $-1 $65 $66 $35 $-1 $67 forward single #
face $-1 $68 $69 $36 $-1 $70 reversed single #
face $-1 $71 $72 $37 $-1 $73 forward single #
face $-1 $74 $75 $38 $-1 $76 reversed single #
face $-1 $77 $78 $39 $-1 $79 forward single #
face $-1 $80 $81 $30 $-1 $82 reversed single #
loop $-1 $-1 $83 $40 #
plane-surface $-1 0 0 8.1215461404073483 0 0 1 1 0 0 forward_v I I I I #
face $-1 $84 $85 $31 $-1 $86 reversed single #
loop $-1 $-1 $87 $41 #
plane-surface $-1 0 -28.512079994958743 4.3469522979390582 0 0 1 1 0 0 forward_v I I I I #
face $-1 $88 $89 $32 $-1 $90 reversed single #
loop $-1 $-1 $91 $42 #
plane-surface $-1 -184.55262920773674 -20.858438059677887 95.535589897271024 0 1 0 -0.7660444514056185 0 0.64278759981090561 forward_v I I I I #
face $-1 $92 $93 $33 $-1 $94 forward single #
loop $-1 $95 $96 $43 #
cone-surface $-1 -69.706448062001172 -17.654297239186722 4.5239655299139034 0.7660444514056185 0 -0.64278759981090561 0.64278759981090561 0 0.7660444514056185 1 I I 0 1 1 forward I I I I #
face $-1 $97 $98 $34 $-1 $99 reversed single #
loop $-1 $-1 $100 $44 #
plane-surface $-1 -184.55262920773674 -6.6023980621985165 95.535589897271024 0 1 0 -0.7660444514056185 0 0.64278759981090561 forward_v I I I I #
face $-1 $101 $102 $35 $-1 $103 forward single #
loop $-1 $104 $105 $45 #
cone-surface $-1 -69.706448062001172 -3.398257241707352 4.5239655299139034 0.7660444514056185 0 -0.64278759981090561 0.64278759981090561 0 0.7660444514056185 1 I I 0 1 1 forward I I I I #
face $-1 $106 $107 $36 $-1 $108 reversed single #
loop $-1 $-1 $109 $46 #
plane-surface $-1 -184.55262920773674 7.6536419352808531 95.535589897271024 0 1 0 -0.7660444514056185 0 0.64278759981090561 forward_v I I I I #
face $-1 $110 $111 $37 $-1 $112 forward single #
loop $-1 $113 $114 $47 #
cone-surface $-1 -69.706448062001172 10.857782755772018 4.5239655299139034 0.7660444514056185 0 -0.64278759981090561 0.64278759981090561 0 0.7660444514056185 1 I I 0 1 1 forward I I I I #
face $-1 $115 $116 $38 $-1 $117 reversed single #
loop $-1 $-1 $118 $48 #
plane-surface $-1 -184.55262920773674 21.909681932760222 95.535589897271024 0 1 0 -0.7660444514056185 0 0.64278759981090561 forward_v I I I I #
face $-1 $119 $120 $39 $-1 $121 forward single #
loop $-1 $122 $123 $49 #
cone-surface $-1 -69.706448062001172 25.113822753251387 4.5239655299139034 0.7660444514056185 0 -0.64278759981090561 0.64278759981090561 0 0.7660444514056185 1 I I 0 1 1 forward I I I I #
face $-1 $124 $125 $30 $-1 $126 reversed single #
loop $-1 $-1 $127 $50 #
plane-surface $-1 0 0 -8.1215461404073483 0 0 1 1 0 0 forward_v I I I I #
coedge $-1 $128 $129 $130 $131 forward $51 $-1 #
face $-1 $132 $133 $31 $-1 $134 reversed single #
loop $-1 $-1 $135 $53 #
plane-surface $-1 0 -28.512079994958743 0.96463951552911098 0 0 1 1 0 0 forward_v I I I I #
coedge $-1 $136 $137 $138 $139 reversed $54 $-1 #
face $-1 $140 $141 $32 $-1 $142 reversed single #
loop $-1 $-1 $143 $56 #
plane-surface $-1 -72.885525070955566 -17.654297239186722 1.8357664546368255 -0.7660444514056185 0 0.64278759981090561 0.64278759981090561 0 0.7660444514056185 forward_v I I I I #
coedge $-1 $144 $145 $146 $147 reversed $57 $-1 #
face $-1 $-1 $148 $33 $-1 $149 forward single #
loop $-1 $150 $151 $59 #
cone-surface $-1 -68.781546466294856 -17.654297239186722 3.7478809624002754 0.7660444514056185 0 -0.64278759981090561 0.3213937999054528 0 0.38302222570280925 1 I I -0.70710678118654779 0.70710678118654713 0.5 forward I I I I #
loop $-1 $-1 $152 $43 #
coedge $-1 $96 $96 $153 $154 reversed $60 $-1 #
face $-1 $155 $156 $34 $-1 $157 reversed single #
loop $-1 $-1 $158 $62 #
plane-surface $-1 -72.885525070955566 -3.398257241707352 1.8357664546368255 -0.7660444514056185 0 0.64278759981090561 0.64278759981090561 0 0.7660444514056185 forward_v I I I I #
coedge $-1 $159 $160 $161 $162 reversed $63 $-1 #
face $-1 $-1 $163 $35 $-1 $164 forward single #
loop $-1 $165 $166 $65 #
cone-surface $-1 -68.781546466294856 -3.398257241707352 3.7478809624002754 0.7660444514056185 0 -0.64278759981090561 0.3213937999054528 0 0.38302222570280925 1 I I -0.70710678118654779 0.70710678118654713 0.5 forward I I I I #
loop $-1 $-1 $167 $45 #
coedge $-1 $105 $105 $168 $169 reversed $66 $-1 #
face $-1 $170 $171 $36 $-1 $172 reversed single #
loop $-1 $-1 $173 $68 #
plane-surface $-1 -72.885525070955566 10.857782755772018 1.8357664546368255 -0.7660444514056185 0 0.64278759981090561 0.64278759981090561 0 0.7660444514056185 forward_v I I I I #
coedge $-1 $174 $175 $176 $177 reversed $69 $-1 #
face $-1 $-1 $178 $37 $-1 $179 forward single #
loop $-1 $180 $181 $71 #
cone-surface $-1 -68.781546466294856 10.857782755772018 3.7478809624002754 0.7660444514056185 0 -0.64278759981090561 0.3213937999054528 0 0.38302222570280925 1 I I -0.70710678118654779 0.70710678118654713 0.5 forward I I I I #
loop $-1 $-1 $182 $47 #
coedge $-1 $114 $114 $183 $184 reversed $72 $-1 #
face $-1 $185 $186 $38 $-1 $187 reversed single #
loop $-1 $-1 $188 $74 #
plane-surface $-1 -72.885525070955566 25.113822753251387 1.8357664546368255 -0.7660444514056185 0 0.64278759981090561 0.64278759981090561 0 0.7660444514056185 forward_v I I I I #
coedge $-1 $189 $190 $191 $192 reversed $75 $-1 #
face $-1 $-1 $193 $39 $-1 $194 forward single #
loop $-1 $195 $196 $77 #
cone-surface $-1 -68.781546466294856 25.113822753251387 3.7478809624002754 0.7660444514056185 0 -0.64278759981090561 0.3213937999054528 0 0.38302222570280925 1 I I -0.70710678118654779 0.70710678118654713 0.5 forward I I I I #
loop $-1 $-1 $197 $49 #
coedge $-1 $123 $123 $198 $199 reversed $78 $-1 #
face $-1 $200 $201 $30 $-1 $202 reversed single #
loop $-1 $-1 $203 $80 #
plane-surface $-1 0 -31.222862584795333 0 0 1 0 0 0 1 forward_v I I I I #
coedge $-1 $204 $205 $206 $207 forward $81 $-1 #
coedge $-1 $208 $83 $209 $210 forward $51 $-1 #
coedge $-1 $83 $208 $211 $212 forward $51 $-1 #
coedge $-1 $213 $214 $83 $131 reversed $215 $-1 #
edge $-1 $216 -31.222862584795333 $217 31.222862584795333 $130 $218 forward 7 unknown #
face $-1 $219 $220 $31 $-1 $221 reversed single #
loop $-1 $-1 $222 $84 #
plane-surface $-1 0 -25.801297405122153 2.6557959067340846 0 -1 0 0 0 -1 forward_v I I I I #
coedge $-1 $223 $224 $225 $226 reversed $85 $-1 #
coedge $-1 $227 $87 $228 $229 forward $54 $-1 #
coedge $-1 $87 $227 $230 $231 reversed $54 $-1 #
coedge $-1 $232 $233 $87 $139 forward $234 $-1 #
edge $-1 $235 11.545257407642781 $236 16.96682258731596 $138 $237 forward 7 unknown #
face $-1 $238 $239 $32 $-1 $240 reversed single #
loop $-1 $-1 $241 $88 #
plane-surface $-1 -184.55262920773674 -14.450156418695556 95.535589897271024 0 -1 0 0.7660444514056185 0 -0.64278759981090561 forward_v I I I I #
coedge $-1 $242 $243 $244 $245 reversed $89 $-1 #
coedge $-1 $145 $91 $246 $247 reversed $57 $-1 #
coedge $-1 $91 $144 $242 $248 reversed $57 $-1 #
coedge $-1 $244 $249 $91 $147 forward $250 $-1 #
edge $-1 $251 19.390789532912834 $252 24.665184810814495 $146 $253 forward 7 unknown #
loop $-1 $-1 $153 $92 #
plane-surface $-1 -72.885525070955566 -17.654297239186722 1.8357664546368255 -0.7660444514056185 0 0.64278759981090561 0.64278759981090561 0 0.7660444514056185 forward_v I I I I #
loop $-1 $-1 $254 $59 #
coedge $-1 $151 $151 $152 $255 reversed $93 $-1 #
coedge $-1 $152 $152 $151 $255 forward $95 $-1 #
coedge $-1 $153 $153 $96 $154 forward $148 $-1 #
edge $-1 $256 0 $256 6.2831853071796004 $153 $257 forward 7 unknown #
face $-1 $258 $259 $34 $-1 $260 forward single #
loop $-1 $-1 $261 $97 #
plane-surface $-1 -184.55262920773674 -0.19411642121618744 95.535589897271024 0 -1 0 0.7660444514056185 0 -0.64278759981090561 forward_v I I I I #
coedge $-1 $262 $263 $264 $265 reversed $98 $-1 #
coedge $-1 $160 $100 $266 $267 reversed $63 $-1 #
coedge $-1 $100 $159 $262 $268 reversed $63 $-1 #
coedge $-1 $264 $269 $100 $162 forward $259 $-1 #
edge $-1 $270 19.390789532912834 $271 24.665184810814495 $161 $272 forward 7 unknown #
loop $-1 $-1 $168 $101 #
plane-surface $-1 -72.885525070955566 -3.398257241707352 1.8357664546368255 -0.7660444514056185 0 0.64278759981090561 0.64278759981090561 0 0.7660444514056185 forward_v I I I I #
loop $-1 $-1 $273 $65 #
coedge $-1 $166 $166 $167 $274 reversed $102 $-1 #
coedge $-1 $167 $167 $166 $274 forward $104 $-1 #
coedge $-1 $168 $168 $105 $169 forward $163 $-1 #
edge $-1 $275 0 $275 6.2831853071796004 $168 $276 forward 7 unknown #
face $-1 $277 $278 $36 $-1 $279 forward single #
loop $-1 $-1 $280 $106 #
plane-surface $-1 -184.55262920773674 14.061923576263183 95.535589897271024 0 -1 0 0.7660444514056185 0 -0.64278759981090561 forward_v I I I I #
coedge $-1 $281 $282 $283 $284 reversed $107 $-1 #
coedge $-1 $175 $109 $285 $286 reversed $69 $-1 #
coedge $-1 $109 $174 $281 $287 reversed $69 $-1 #
coedge $-1 $283 $288 $109 $177 forward $278 $-1 #
edge $-1 $289 19.390789532912834 $290 24.665184810814495 $176 $291 forward 7 unknown #
loop $-1 $-1 $183 $110 #
plane-surface $-1 -72.885525070955566 10.857782755772018 1.8357664546368255 -0.7660444514056185 0 0.64278759981090561 0.64278759981090561 0 0.7660444514056185 forward_v I I I I #
loop $-1 $-1 $292 $71 #
coedge $-1 $181 $181 $182 $293 reversed $111 $-1 #
coedge $-1 $182 $182 $181 $293 forward $113 $-1 #
coedge $-1 $183 $183 $114 $184 forward $178 $-1 #
edge $-1 $294 0 $294 6.2831853071796004 $183 $295 forward 7 unknown #
face $-1 $296 $297 $38 $-1 $298 forward single #
loop $-1 $-1 $299 $115 #
plane-surface $-1 -184.55262920773674 28.317963573742553 95.535589897271024 0 -1 0 0.7660444514056185 0 -0.64278759981090561 forward_v I I I I #
coedge $-1 $300 $301 $302 $303 reversed $116 $-1 #
coedge $-1 $190 $118 $304 $305 reversed $75 $-1 #
coedge $-1 $118 $189 $300 $306 reversed $75 $-1 #
coedge $-1 $302 $307 $118 $192 forward $297 $-1 #
edge $-1 $308 19.390789532912834 $309 24.665184810814495 $191 $310 forward 7 unknown #
loop $-1 $-1 $198 $119 #
plane-surface $-1 -72.885525070955566 25.113822753251387 1.8357664546368255 -0.7660444514056185 0 0.64278759981090561 0.64278759981090561 0 0.7660444514056185 forward_v I I I I #
loop $-1 $-1 $311 $77 #
coedge $-1 $196 $196 $197 $312 reversed $120 $-1 #
coedge $-1 $197 $197 $196 $312 forward $122 $-1 #
coedge $-1 $198 $198 $123 $199 forward $193 $-1 #
edge $-1 $313 0 $313 6.2831853071796004 $198 $314 forward 7 unknown #
face $-1 $315 $316 $30 $-1 $317 reversed single #
loop $-1 $-1 $318 $124 #
plane-surface $-1 -72.885525070955538 0 0 1 0 0 0 0 -1 forward_v I I I I #
coedge $-1 $319 $211 $320 $321 forward $125 $-1 #
coedge $-1 $322 $127 $319 $323 forward $81 $-1 #
coedge $-1 $127 $322 $324 $325 forward $81 $-1 #
coedge $-1 $214 $213 $127 $207 reversed $215 $-1 #
edge $-1 $326 -31.222862584795333 $327 31.222862584795333 $206 $328 forward 7 unknown #
coedge $-1 $129 $128 $329 $330 forward $51 $-1 #
coedge $-1 $331 $332 $128 $210 reversed $316 $-1 #
edge $-1 $217 -72.885525070955538 $333 72.885525070955538 $209 $334 forward 7 unknown #
coedge $-1 $203 $335 $129 $212 reversed $125 $-1 #
edge $-1 $336 -72.885525070955538 $216 72.885525070955538 $211 $337 forward 7 unknown #
coedge $-1 $206 $130 $335 $338 forward $215 $-1 #
coedge $-1 $130 $206 $331 $339 reversed $215 $-1 #
loop $-1 $-1 $213 $315 #
vertex $-1 $131 $340 #
vertex $-1 $131 $341 #
straight-curve $-1 72.885525070955538 0 8.1215461404073483 0 1 0 I I #
face $-1 $342 $343 $31 $-1 $344 reversed single #
loop $-1 $-1 $345 $132 #
plane-surface $-1 -72.885525070955538 0 0 1 0 0 0 0 -1 forward_v I I I I #
coedge $-1 $346 $228 $233 $347 reversed $133 $-1 #
coedge $-1 $348 $135 $349 $350 reversed $85 $-1 #
coedge $-1 $135 $348 $346 $351 forward $85 $-1 #
coedge $-1 $233 $232 $135 $226 forward $234 $-1 #
edge $-1 $352 -16.96682258731596 $353 -11.545257407642781 $225 $354 forward 7 unknown #
coedge $-1 $137 $136 $345 $355 reversed $54 $-1 #
coedge $-1 $222 $356 $136 $229 reversed $133 $-1 #
edge $-1 $235 -72.885525070955538 $357 72.885525070955538 $228 $358 forward 7 unknown #
coedge $-1 $359 $360 $137 $231 forward $343 $-1 #
edge $-1 $236 -72.885525070955538 $361 72.885525070955538 $230 $362 forward 7 unknown #
coedge $-1 $225 $138 $360 $363 forward $234 $-1 #
coedge $-1 $138 $225 $222 $347 forward $234 $-1 #
loop $-1 $-1 $138 $342 #
vertex $-1 $139 $364 #
vertex $-1 $363 $365 #
straight-curve $-1 72.885525070955538 -14.256039997479371 4.3469522979390582 0 -1 0 I I #
face $-1 $-1 $250 $32 $-1 $366 forward single #
loop $-1 $-1 $367 $140 #
plane-surface $-1 -72.885525070955538 0 0 1 0 0 0 0 -1 forward_v I I I I #
coedge $-1 $368 $369 $370 $371 reversed $141 $-1 #
coedge $-1 $372 $143 $145 $248 forward $89 $-1 #
coedge $-1 $143 $372 $368 $373 forward $89 $-1 #
coedge $-1 $370 $146 $143 $245 forward $250 $-1 #
edge $-1 $252 -12.031289440084526 $374 -5.6230077991021954 $244 $375 forward 7 unknown #
coedge $-1 $376 $377 $144 $247 forward $239 $-1 #
edge $-1 $378 -45.932028493998651 $251 -39.646248808228165 $246 $379 forward 7 unknown #
edge $-1 $252 -8.2055025321790662 $378 -4.4293816135100439e-014 $145 $380 forward 7 unknown #
coedge $-1 $146 $370 $376 $381 forward $250 $-1 #
loop $-1 $-1 $370 $238 #
vertex $-1 $247 $382 #
vertex $-1 $147 $383 #
straight-curve $-1 -92.276314603868371 -20.858438059677887 8.1215461404073466 1 0 0 I I #
coedge $-1 $254 $254 $-1 $384 reversed $150 $-1 #
edge $-1 $385 0 $385 6.2831853071796004 $151 $386 forward 7 unknown #
vertex $-1 $154 $387 #
ellipse-curve $-1 -70.248327432004714 -17.654297239186722 4.9786562975221003 -0.7660444514056185 0 0.64278759981090561 0.64278759981090561 0 0.7660444514056185 1 I I #
face $-1 $-1 $388 $34 $-1 $389 reversed single #
loop $-1 $-1 $161 $155 #
plane-surface $-1 0 0 8.1215461404073483 0 0 1 1 0 0 forward_v I I I I #
coedge $-1 $390 $391 $392 $393 reversed $156 $-1 #
coedge $-1 $394 $158 $160 $268 forward $98 $-1 #
coedge $-1 $158 $394 $390 $395 forward $98 $-1 #
coedge $-1 $392 $161 $158 $265 forward $259 $-1 #
edge $-1 $271 -4.9032694413448406 $396 1.5050121996374886 $264 $397 forward 7 unknown #
coedge $-1 $398 $399 $159 $267 forward $388 $-1 #
edge $-1 $400 -45.932028493998651 $270 -39.646248808228165 $266 $401 forward 7 unknown #
edge $-1 $271 -8.2055025321790662 $400 -4.4293816135100439e-014 $160 $402 forward 7 unknown #
coedge $-1 $161 $392 $398 $403 forward $259 $-1 #
vertex $-1 $162 $404 #
vertex $-1 $162 $405 #
straight-curve $-1 -92.276314603868371 -6.6023980621985165 8.1215461404073466 1 0 0 I I #
coedge $-1 $273 $273 $-1 $406 reversed $165 $-1 #
edge $-1 $407 0 $407 6.2831853071796004 $166 $408 forward 7 unknown #
vertex $-1 $169 $409 #
ellipse-curve $-1 -70.248327432004714 -3.398257241707352 4.9786562975221003 -0.7660444514056185 0 0.64278759981090561 0.64278759981090561 0 0.7660444514056185 1 I I #
face $-1 $-1 $410 $36 $-1 $411 reversed single #
loop $-1 $-1 $176 $170 #
plane-surface $-1 0 0 8.1215461404073483 0 0 1 1 0 0 forward_v I I I I #
coedge $-1 $412 $413 $414 $415 reversed $171 $-1 #
coedge $-1 $416 $173 $175 $287 forward $107 $-1 #
coedge $-1 $173 $416 $412 $417 forward $107 $-1 #
coedge $-1 $414 $176 $173 $284 forward $278 $-1 #
edge $-1 $290 2.2247505573948443 $418 8.6330321983771743 $283 $419 forward 7 unknown #
coedge $-1 $420 $421 $174 $286 forward $410 $-1 #
edge $-1 $422 -45.932028493998651 $289 -39.646248808228165 $285 $423 forward 7 unknown #
edge $-1 $290 -8.2055025321790662 $422 -4.4293816135100439e-014 $175 $424 forward 7 unknown #
coedge $-1 $176 $414 $420 $425 forward $278 $-1 #
vertex $-1 $177 $426 #
vertex $-1 $177 $427 #
straight-curve $-1 -92.276314603868371 7.6536419352808531 8.1215461404073466 1 0 0 I I #
coedge $-1 $292 $292 $-1 $428 reversed $180 $-1 #
edge $-1 $429 0 $429 6.2831853071796004 $181 $430 forward 7 unknown #
vertex $-1 $184 $431 #
ellipse-curve $-1 -70.248327432004714 10.857782755772018 4.9786562975221003 -0.7660444514056185 0 0.64278759981090561 0.64278759981090561 0 0.7660444514056185 1 I I #
face $-1 $-1 $432 $38 $-1 $433 reversed single #
loop $-1 $-1 $191 $185 #
plane-surface $-1 0 0 8.1215461404073483 0 0 1 1 0 0 forward_v I I I I #
coedge $-1 $434 $435 $436 $437 reversed $186 $-1 #
coedge $-1 $438 $188 $190 $306 forward $116 $-1 #
coedge $-1 $188 $438 $434 $439 forward $116 $-1 #
coedge $-1 $436 $191 $188 $303 forward $297 $-1 #
edge $-1 $309 9.3527705561345282 $440 15.761052197116859 $302 $441 forward 7 unknown #
coedge $-1 $442 $443 $189 $305 forward $432 $-1 #
edge $-1 $444 -45.932028493998651 $308 -39.646248808228165 $304 $445 forward 7 unknown #
edge $-1 $309 -8.2055025321790662 $444 -4.4293816135100439e-014 $190 $446 forward 7 unknown #
coedge $-1 $191 $436 $442 $447 forward $297 $-1 #
vertex $-1 $192 $448 #
vertex $-1 $192 $449 #
straight-curve $-1 -92.276314603868371 21.909681932760222 8.1215461404073466 1 0 0 I I #
coedge $-1 $311 $311 $-1 $450 reversed $195 $-1 #
edge $-1 $451 0 $451 6.2831853071796004 $196 $452 forward 7 unknown #
vertex $-1 $199 $453 #
ellipse-curve $-1 -70.248327432004714 25.113822753251387 4.9786562975221003 -0.7660444514056185 0 0.64278759981090561 0.64278759981090561 0 0.7660444514056185 1 I I #
face $-1 $-1 $215 $30 $-1 $454 reversed single #
loop $-1 $-1 $331 $200 #
plane-surface $-1 0 31.222862584795333 0 0 -1 0 0 0 -1 forward_v I I I I #
coedge $-1 $455 $329 $332 $456 forward $201 $-1 #
coedge $-1 $335 $203 $204 $323 reversed $125 $-1 #
coedge $-1 $329 $455 $203 $321 reversed $201 $-1 #
edge $-1 $336 -8.1215461404073483 $457 8.1215461404073483 $320 $458 forward 7 unknown #
coedge $-1 $205 $204 $455 $459 forward $81 $-1 #
edge $-1 $327 -72.885525070955538 $457 72.885525070955538 $319 $460 forward 7 unknown #
coedge $-1 $332 $331 $205 $325 reversed $316 $-1 #
edge $-1 $461 -72.885525070955538 $326 72.885525070955538 $324 $462 forward 7 unknown #
vertex $-1 $207 $463 #
vertex $-1 $338 $464 #
straight-curve $-1 72.885525070955538 0 -8.1215461404073483 0 -1 0 I I #
coedge $-1 $318 $320 $208 $330 reversed $201 $-1 #
edge $-1 $333 -31.222862584795333 $336 31.222862584795333 $329 $465 forward 7 unknown #
coedge $-1 $324 $209 $214 $339 forward $316 $-1 #
coedge $-1 $209 $324 $318 $456 reversed $316 $-1 #
vertex $-1 $210 $466 #
straight-curve $-1 0 31.222862584795333 8.1215461404073483 -1 0 0 I I #
coedge $-1 $211 $319 $213 $338 reversed $125 $-1 #
vertex $-1 $330 $467 #
straight-curve $-1 0 -31.222862584795333 8.1215461404073483 1 0 0 I I #
edge $-1 $216 -8.1215461404073483 $327 8.1215461404073483 $213 $468 forward 7 unknown #
edge $-1 $217 -8.1215461404073483 $326 8.1215461404073483 $214 $469 forward 7 unknown #
point $-1 72.885525070955538 -31.222862584795333 8.1215461404073483 #
point $-1 72.885525070955538 31.222862584795333 8.1215461404073483 #
face $-1 $-1 $234 $31 $-1 $470 reversed single #
loop $-1 $-1 $230 $219 #
plane-surface $-1 0 -31.222862584795333 0 0 1 0 0 0 1 forward_v I I I I #
coedge $-1 $471 $472 $227 $355 forward $220 $-1 #
coedge $-1 $356 $222 $224 $351 reversed $133 $-1 #
edge $-1 $353 -0.36325843783793133 $235 3.0190543445720159 $233 $473 forward 7 unknown #
coedge $-1 $224 $223 $474 $475 reversed $85 $-1 #
coedge $-1 $360 $359 $223 $350 forward $343 $-1 #
edge $-1 $476 -72.885525070955538 $352 72.885525070955538 $349 $477 forward 7 unknown #
edge $-1 $478 -72.885525070955538 $353 72.885525070955538 $346 $479 forward 7 unknown #
vertex $-1 $350 $480 #
vertex $-1 $226 $481 #
straight-curve $-1 72.885525070955538 -14.256039997479371 0.96463951552911098 0 1 0 I I #
edge $-1 $361 -16.96682258731596 $357 -11.545257407642781 $345 $482 forward 7 unknown #
coedge $-1 $228 $346 $471 $483 reversed $133 $-1 #
vertex $-1 $355 $484 #
straight-curve $-1 0 -25.801297405122153 4.3469522979390582 -1 0 0 I I #
coedge $-1 $349 $230 $472 $485 forward $343 $-1 #
coedge $-1 $230 $349 $232 $363 reversed $343 $-1 #
vertex $-1 $485 $486 #
straight-curve $-1 0 -31.222862584795333 4.3469522979390582 -1 0 0 I I #
edge $-1 $236 -4.3469522979390582 $352 -0.96463951552911098 $232 $487 forward 7 unknown #
point $-1 72.885525070955538 -25.801297405122153 4.3469522979390582 #
point $-1 72.885525070955538 -31.222862584795333 4.3469522979390582 #
plane-surface $-1 0 0 8.1215461404073483 0 0 1 1 0 0 forward_v I I I I #
coedge $-1 $377 $376 $369 $488 forward $239 $-1 #
coedge $-1 $369 $241 $243 $373 reversed $141 $-1 #
coedge $-1 $241 $368 $367 $488 reversed $141 $-1 #
coedge $-1 $249 $244 $241 $371 forward $250 $-1 #
edge $-1 $374 -24.665184810814495 $489 -19.390789532912834 $370 $490 forward 7 unknown #
coedge $-1 $243 $242 $377 $491 reversed $89 $-1 #
edge $-1 $492 4.4293816135100439e-014 $374 8.2055025321790662 $368 $493 forward 7 unknown #
vertex $-1 $245 $494 #
straight-curve $-1 -67.611129793053877 -8.8271486195933608 8.1215461404073483 0 1 0 I I #
coedge $-1 $367 $246 $249 $381 reversed $239 $-1 #
coedge $-1 $246 $367 $372 $491 forward $239 $-1 #
vertex $-1 $247 $495 #
straight-curve $-1 -72.885525070955538 -20.858438059677887 47.767794948635512 0 0 1 I I #
straight-curve $-1 -72.885525070955566 -20.858438059677887 1.8357664546368255 -0.64278759981090561 0 -0.7660444514056185 I I #
edge $-1 $489 14.450156418695556 $251 20.858438059677887 $376 $496 forward 7 unknown #
point $-1 -72.885525070955538 -20.858438059677887 8.1215461404073483 #
point $-1 -67.611129793053877 -20.858438059677887 8.1215461404073483 #
edge $-1 $497 1 $497 0 $254 $-1 forward 7 unknown #
vertex $-1 $255 $498 #
ellipse-curve $-1 -69.164568691997658 -17.654297239186722 4.0692747623057279 -0.7660444514056185 0 0.64278759981090561 0.64278759981090561 0 0.7660444514056185 1 I I #
point $-1 -69.605539832193784 -17.654297239186722 5.7447007489276967 #
loop $-1 $-1 $266 $258 #
plane-surface $-1 -72.885525070955538 0 0 1 0 0 0 0 -1 forward_v I I I I #
coedge $-1 $391 $261 $263 $395 reversed $156 $-1 #
coedge $-1 $261 $390 $499 $500 reversed $156 $-1 #
coedge $-1 $269 $264 $261 $393 forward $259 $-1 #
edge $-1 $396 -24.665184810814495 $501 -19.390789532912834 $392 $502 forward 7 unknown #
coedge $-1 $263 $262 $399 $503 reversed $98 $-1 #
edge $-1 $504 4.4293816135100439e-014 $396 8.2055025321790662 $390 $505 forward 7 unknown #
vertex $-1 $265 $506 #
straight-curve $-1 -67.611129793053877 -1.699128620853676 8.1215461404073483 0 1 0 I I #
coedge $-1 $499 $266 $269 $403 reversed $388 $-1 #
coedge $-1 $266 $499 $394 $503 forward $388 $-1 #
vertex $-1 $267 $507 #
straight-curve $-1 -72.885525070955538 -6.6023980621985165 47.767794948635512 0 0 1 I I #
straight-curve $-1 -72.885525070955566 -6.6023980621985165 1.8357664546368255 -0.64278759981090561 0 -0.7660444514056185 I I #
edge $-1 $501 0.19411642121618744 $270 6.6023980621985165 $398 $508 forward 7 unknown #
point $-1 -72.885525070955538 -6.6023980621985165 8.1215461404073483 #
point $-1 -67.611129793053877 -6.6023980621985165 8.1215461404073483 #
edge $-1 $509 1 $509 0 $273 $-1 forward 7 unknown #
vertex $-1 $274 $510 #
ellipse-curve $-1 -69.164568691997658 -3.398257241707352 4.0692747623057279 -0.7660444514056185 0 0.64278759981090561 0.64278759981090561 0 0.7660444514056185 1 I I #
point $-1 -69.605539832193784 -3.398257241707352 5.7447007489276967 #
loop $-1 $-1 $285 $277 #
plane-surface $-1 -72.885525070955538 0 0 1 0 0 0 0 -1 forward_v I I I I #
coedge $-1 $413 $280 $282 $417 reversed $171 $-1 #
coedge $-1 $280 $412 $511 $512 reversed $171 $-1 #
coedge $-1 $288 $283 $280 $415 forward $278 $-1 #
edge $-1 $418 -24.665184810814495 $513 -19.390789532912834 $414 $514 forward 7 unknown #
coedge $-1 $282 $281 $421 $515 reversed $107 $-1 #
edge $-1 $516 4.4293816135100439e-014 $418 8.2055025321790662 $412 $517 forward 7 unknown #
vertex $-1 $284 $518 #
straight-curve $-1 -67.611129793053877 5.4288913778860088 8.1215461404073483 0 1 0 I I #
coedge $-1 $511 $285 $288 $425 reversed $410 $-1 #
coedge $-1 $285 $511 $416 $515 forward $410 $-1 #
vertex $-1 $286 $519 #
straight-curve $-1 -72.885525070955538 7.6536419352808531 47.767794948635512 0 0 1 I I #
straight-curve $-1 -72.885525070955566 7.6536419352808531 1.8357664546368255 -0.64278759981090561 0 -0.7660444514056185 I I #
edge $-1 $513 -14.061923576263183 $289 -7.6536419352808531 $420 $520 forward 7 unknown #
point $-1 -72.885525070955538 7.6536419352808531 8.1215461404073483 #
point $-1 -67.611129793053877 7.6536419352808531 8.1215461404073483 #
edge $-1 $521 1 $521 0 $292 $-1 forward 7 unknown #
vertex $-1 $293 $522 #
ellipse-curve $-1 -69.164568691997658 10.857782755772018 4.0692747623057279 -0.7660444514056185 0 0.64278759981090561 0.64278759981090561 0 0.7660444514056185 1 I I #
point $-1 -69.605539832193784 10.857782755772018 5.7447007489276967 #
loop $-1 $-1 $304 $296 #
plane-surface $-1 -72.885525070955538 0 0 1 0 0 0 0 -1 forward_v I I I I #
coedge $-1 $435 $299 $301 $439 reversed $186 $-1 #
coedge $-1 $299 $434 $523 $524 reversed $186 $-1 #
coedge $-1 $307 $302 $299 $437 forward $297 $-1 #
edge $-1 $440 -24.665184810814495 $525 -19.390789532912834 $436 $526 forward 7 unknown #
coedge $-1 $301 $300 $443 $527 reversed $116 $-1 #
edge $-1 $528 4.4293816135100439e-014 $440 8.2055025321790662 $434 $529 forward 7 unknown #
vertex $-1 $303 $530 #
straight-curve $-1 -67.611129793053877 12.556911376625694 8.1215461404073483 0 1 0 I I #
coedge $-1 $523 $304 $307 $447 reversed $432 $-1 #
coedge $-1 $304 $523 $438 $527 forward $432 $-1 #
vertex $-1 $305 $531 #
straight-curve $-1 -72.885525070955538 21.909681932760222 47.767794948635512 0 0 1 I I #
straight-curve $-1 -72.885525070955566 21.909681932760222 1.8357664546368255 -0.64278759981090561 0 -0.7660444514056185 I I #
edge $-1 $525 -28.317963573742553 $308 -21.909681932760222 $442 $532 forward 7 unknown #
point $-1 -72.885525070955538 21.909681932760222 8.1215461404073483 #
point $-1 -67.611129793053877 21.909681932760222 8.1215461404073483 #
edge $-1 $533 1 $533 0 $311 $-1 forward 7 unknown #
vertex $-1 $312 $534 #
ellipse-curve $-1 -69.164568691997658 25.113822753251387 4.0692747623057279 -0.7660444514056185 0 0.64278759981090561 0.64278759981090561 0 0.7660444514056185 1 I I #
point $-1 -69.605539832193784 25.113822753251387 5.7447007489276967 #
plane-surface $-1 72.885525070955538 0 0 -1 0 0 0 0 1 forward_v I I I I #
coedge $-1 $320 $318 $322 $459 reversed $201 $-1 #
edge $-1 $333 -8.1215461404073483 $461 8.1215461404073483 $332 $535 forward 7 unknown #
vertex $-1 $459 $536 #
straight-curve $-1 -72.885525070955538 -31.222862584795333 0 0 0 -1 I I #
edge $-1 $457 -31.222862584795333 $461 31.222862584795333 $455 $537 forward 7 unknown #
straight-curve $-1 0 -31.222862584795333 -8.1215461404073483 -1 0 0 I I #
vertex $-1 $325 $538 #
straight-curve $-1 0 31.222862584795333 -8.1215461404073483 1 0 0 I I #
point $-1 72.885525070955538 31.222862584795333 -8.1215461404073483 #
point $-1 72.885525070955538 -31.222862584795333 -8.1215461404073483 #
straight-curve $-1 -72.885525070955538 0 8.1215461404073483 0 -1 0 I I #
point $-1 -72.885525070955538 31.222862584795333 8.1215461404073483 #
point $-1 -72.885525070955538 -31.222862584795333 8.1215461404073483 #
straight-curve $-1 72.885525070955538 -31.222862584795333 0 0 0 -1 I I #
straight-curve $-1 72.885525070955538 31.222862584795333 0 0 0 -1 I I #
plane-surface $-1 72.885525070955538 0 0 -1 0 0 0 0 1 forward_v I I I I #
coedge $-1 $474 $345 $356 $483 forward $220 $-1 #
coedge $-1 $345 $474 $359 $485 reversed $220 $-1 #
straight-curve $-1 72.885525070955538 -25.801297405122153 1.3278979533670423 0 0 1 I I #
coedge $-1 $472 $471 $348 $475 forward $220 $-1 #
edge $-1 $478 11.545257407642781 $476 16.96682258731596 $474 $539 forward 7 unknown #
vertex $-1 $350 $540 #
straight-curve $-1 0 -31.222862584795333 0.96463951552911098 1 0 0 I I #
vertex $-1 $475 $541 #
straight-curve $-1 0 -25.801297405122153 0.96463951552911098 1 0 0 I I #
point $-1 72.885525070955538 -31.222862584795333 0.96463951552911098 #
point $-1 72.885525070955538 -25.801297405122153 0.96463951552911098 #
straight-curve $-1 -72.885525070955538 -14.256039997479371 4.3469522979390582 0 1 0 I I #
edge $-1 $357 -3.0190543445720159 $478 0.36325843783793133 $471 $542 forward 7 unknown #
point $-1 -72.885525070955538 -25.801297405122153 4.3469522979390582 #
edge $-1 $361 -4.3469522979390582 $476 -0.96463951552911098 $472 $543 forward 7 unknown #
point $-1 -72.885525070955538 -31.222862584795333 4.3469522979390582 #
straight-curve $-1 72.885525070955538 -31.222862584795333 0 0 0 -1 I I #
edge $-1 $489 39.646248808228165 $492 45.932028493998651 $367 $544 forward 7 unknown #
vertex $-1 $381 $545 #
straight-curve $-1 -92.276314603868371 -14.450156418695556 8.1215461404073466 -1 0 0 I I #
edge $-1 $492 5.6230077991021954 $378 12.031289440084526 $377 $546 forward 7 unknown #
vertex $-1 $491 $547 #
straight-curve $-1 -72.885525070955566 -14.450156418695556 1.8357664546368255 0.64278759981090561 0 0.7660444514056185 I I #
point $-1 -67.611129793053877 -14.450156418695556 8.1215461404073483 #
point $-1 -72.885525070955538 -20.858438059677887 1.8357664546368595 #
straight-curve $-1 -72.885525070955538 0 8.1215461404073483 0 -1 0 I I #
vertex $-1 $384 $548 #
point $-1 -68.521781092186757 -17.654297239186722 4.8353192137113465 #
coedge $-1 $399 $398 $391 $500 forward $388 $-1 #
edge $-1 $501 39.646248808228165 $504 45.932028493998651 $499 $549 forward 7 unknown #
vertex $-1 $403 $550 #
straight-curve $-1 -92.276314603868371 -0.19411642121618744 8.1215461404073466 -1 0 0 I I #
edge $-1 $504 -1.5050121996374886 $400 4.9032694413448406 $399 $551 forward 7 unknown #
vertex $-1 $503 $552 #
straight-curve $-1 -72.885525070955566 -0.19411642121618744 1.8357664546368255 0.64278759981090561 0 0.7660444514056185 I I #
point $-1 -67.611129793053877 -0.19411642121618744 8.1215461404073483 #
point $-1 -72.885525070955538 -6.6023980621985165 1.8357664546368595 #
straight-curve $-1 -72.885525070955538 0 8.1215461404073483 0 -1 0 I I #
vertex $-1 $406 $553 #
point $-1 -68.521781092186757 -3.398257241707352 4.8353192137113465 #
coedge $-1 $421 $420 $413 $512 forward $410 $-1 #
edge $-1 $513 39.646248808228165 $516 45.932028493998651 $511 $554 forward 7 unknown #
vertex $-1 $425 $555 #
straight-curve $-1 -92.276314603868371 14.061923576263183 8.1215461404073466 -1 0 0 I I #
edge $-1 $516 -8.6330321983771743 $422 -2.2247505573948443 $421 $556 forward 7 unknown #
vertex $-1 $515 $557 #
straight-curve $-1 -72.885525070955566 14.061923576263183 1.8357664546368255 0.64278759981090561 0 0.7660444514056185 I I #
point $-1 -67.611129793053877 14.061923576263183 8.1215461404073483 #
point $-1 -72.885525070955538 7.6536419352808531 1.8357664546368595 #
straight-curve $-1 -72.885525070955538 0 8.1215461404073483 0 -1 0 I I #
vertex $-1 $428 $558 #
point $-1 -68.521781092186757 10.857782755772018 4.8353192137113465 #
coedge $-1 $443 $442 $435 $524 forward $432 $-1 #
edge $-1 $525 39.646248808228165 $528 45.932028493998651 $523 $559 forward 7 unknown #
vertex $-1 $447 $560 #
straight-curve $-1 -92.276314603868371 28.317963573742553 8.1215461404073466 -1 0 0 I I #
edge $-1 $528 -15.761052197116859 $444 -9.3527705561345282 $443 $561 forward 7 unknown #
vertex $-1 $527 $562 #
straight-curve $-1 -72.885525070955566 28.317963573742553 1.8357664546368255 0.64278759981090561 0 0.7660444514056185 I I #
point $-1 -67.611129793053877 28.317963573742553 8.1215461404073483 #
point $-1 -72.885525070955538 21.909681932760222 1.8357664546368595 #
straight-curve $-1 -72.885525070955538 0 8.1215461404073483 0 -1 0 I I #
vertex $-1 $450 $563 #
point $-1 -68.521781092186757 25.113822753251387 4.8353192137113465 #
straight-curve $-1 -72.885525070955538 31.222862584795333 0 0 0 -1 I I #
point $-1 -72.885525070955538 -31.222862584795333 -8.1215461404073483 #
straight-curve $-1 -72.885525070955538 0 -8.1215461404073483 0 1 0 I I #
point $-1 -72.885525070955538 31.222862584795333 -8.1215461404073483 #
straight-curve $-1 -72.885525070955538 -14.256039997479371 0.96463951552911098 0 -1 0 I I #
point $-1 -72.885525070955538 -31.222862584795333 0.96463951552911098 #
point $-1 -72.885525070955538 -25.801297405122153 0.96463951552911098 #
straight-curve $-1 -72.885525070955538 -25.801297405122153 1.3278979533670423 0 0 -1 I I #
straight-curve $-1 -72.885525070955538 -31.222862584795333 0 0 0 -1 I I #
straight-curve $-1 -72.885525070955538 -14.450156418695556 47.767794948635512 0 0 -1 I I #
point $-1 -72.885525070955538 -14.450156418695556 8.1215461404073483 #
straight-curve $-1 -72.885525070955538 -8.8271486195933608 1.8357664546368626 0 -1 0 I I #
point $-1 -72.885525070955538 -14.450156418695556 1.8357664546368595 #
point $-1 -68.398524240592053 -17.654297239186722 3.4264871624948228 #
straight-curve $-1 -72.885525070955538 -0.19411642121618744 47.767794948635512 0 0 -1 I I #
point $-1 -72.885525070955538 -0.19411642121618744 8.1215461404073483 #
straight-curve $-1 -72.885525070955538 -1.699128620853676 1.8357664546368626 0 -1 0 I I #
point $-1 -72.885525070955538 -0.19411642121618744 1.8357664546368595 #
point $-1 -68.398524240592053 -3.398257241707352 3.4264871624948228 #
straight-curve $-1 -72.885525070955538 14.061923576263183 47.767794948635512 0 0 -1 I I #
point $-1 -72.885525070955538 14.061923576263183 8.1215461404073483 #
straight-curve $-1 -72.885525070955538 5.4288913778860088 1.8357664546368626 0 -1 0 I I #
point $-1 -72.885525070955538 14.061923576263183 1.8357664546368595 #
point $-1 -68.398524240592053 10.857782755772018 3.4264871624948228 #
straight-curve $-1 -72.885525070955538 28.317963573742553 47.767794948635512 0 0 -1 I I #
point $-1 -72.885525070955538 28.317963573742553 8.1215461404073483 #
straight-curve $-1 -72.885525070955538 12.556911376625694 1.8357664546368626 0 -1 0 I I #
point $-1 -72.885525070955538 28.317963573742553 1.8357664546368595 #
point $-1 -68.398524240592053 25.113822753251387 3.4264871624948228 #
End-of-ACIS-data 