500 0 4 0           
7 Unknown 11 ACIS 5.0 NT 24 Fri Mar 26 15:52:27 1999 
-1 9.9999999999999995e-007 1e-010 
body $-1 $4 $-1 $5 #
body $-1 $6 $-1 $7 #
body $-1 $8 $-1 $9 #
body $-1 $10 $-1 $11 #
lump $-1 $-1 $12 $0 #
transform $-1 1 0 0 0 1 0 0 0 1 75.704214606158644 43.407184472153325 16.121078851143608 1 rotate no_reflect no_shear #
lump $-1 $-1 $13 $1 #
transform $-1 1 0 0 0 1 0 0 0 1 75.704214606158644 43.407184472153325 16.121078851143608 1 rotate no_reflect no_shear #
lump $-1 $-1 $14 $2 #
transform $-1 1 0 0 0 1 0 0 0 1 75.704214606158644 43.407184472153325 16.121078851143608 1 rotate no_reflect no_shear #
lump $-1 $-1 $15 $3 #
transform $-1 1 0 0 0 1 0 0 0 1 75.704214606158644 43.407184472153325 16.121078851143608 1 rotate no_reflect no_shear #
shell $-1 $-1 $-1 $16 $-1 $4 #
shell $-1 $-1 $-1 $17 $-1 $6 #
shell $-1 $-1 $-1 $18 $-1 $8 #
shell $-1 $-1 $-1 $19 $-1 $10 #
face $-1 $20 $21 $12 $-1 $22 forward single #
face $-1 $23 $24 $13 $-1 $25 reversed single #
face $-1 $26 $27 $14 $-1 $28 reversed single #
face $-1 $29 $30 $15 $-1 $31 forward single #
face $-1 $32 $33 $12 $-1 $34 reversed single #
loop $-1 $-1 $35 $16 #
plane-surface $-1 0 0 16.121078851143608 0 0 1 1 0 0 forward_v I I I I #
face $-1 $36 $37 $13 $-1 $38 reversed single #
loop $-1 $-1 $39 $17 #
plane-surface $-1 -69.486261309013273 -17.360279588536436 0 0 1 0 0 0 1 forward_v I I I I #
face $-1 $40 $41 $14 $-1 $42 reversed single #
loop $-1 $-1 $43 $18 #
plane-surface $-1 75.704217090541704 1.5655783360605255 218.77531594531948 0 -1 0 -0.70710678939079041 0 -0.70710677298230451 forward_v I I I I #
face $-1 $44 $45 $15 $-1 $46 forward single #
loop $-1 $47 $48 $19 #
cone-surface $-1 67.347541382684909 -10.562654214917757 7.7644055554336822 -0.70710678939079041 0 -0.70710677298230451 2.828427091929218 0 -2.8284271575631617 1 I I 0 1 4 forward I I I I #
face $-1 $49 $50 $12 $-1 $51 reversed single #
loop $-1 $-1 $52 $20 #
plane-surface $-1 0 0 -16.121078851143608 0 0 1 1 0 0 forward_v I I I I #
coedge $-1 $53 $54 $55 $56 forward $21 $-1 #
face $-1 $57 $58 $13 $-1 $59 reversed single #
loop $-1 $-1 $60 $23 #
plane-surface $-1 -69.486261309013273 -11.16502676986611 0 0 -1 0 0 0 -1 forward_v I I I I #
coedge $-1 $61 $62 $63 $64 reversed $24 $-1 #
face $-1 $65 $66 $14 $-1 $67 reversed single #
loop $-1 $-1 $68 $26 #
plane-surface $-1 -31.357711176482738 -10.562654214917757 111.71339016267811 0.70710678939079041 0 0.70710677298230451 0.70710677298230451 0 -0.70710678939079041 forward_v I I I I #
coedge $-1 $69 $70 $71 $72 reversed $27 $-1 #
face $-1 $-1 $73 $15 $-1 $74 forward single #
loop $-1 $75 $76 $29 #
cone-surface $-1 63.311462925097715 -10.562654214917757 3.728327191504107 -0.70710678939079041 0 -0.70710677298230451 1.414213545964609 0 -1.4142135787815808 1 I I -0.70710678118654746 0.70710678118654746 2 forward I I I I #
loop $-1 $-1 $77 $19 #
coedge $-1 $48 $48 $78 $79 reversed $30 $-1 #
face $-1 $80 $81 $12 $-1 $82 reversed single #
loop $-1 $-1 $83 $32 #
plane-surface $-1 0 -43.407184472153325 0 0 1 0 0 0 1 forward_v I I I I #
coedge $-1 $84 $85 $86 $87 forward $33 $-1 #
coedge $-1 $88 $35 $89 $90 forward $21 $-1 #
coedge $-1 $35 $88 $91 $92 forward $21 $-1 #
coedge $-1 $93 $94 $35 $56 reversed $95 $-1 #
edge $-1 $96 -43.407184472153325 $97 43.407184472153325 $55 $98 forward 7 unknown #
face $-1 $99 $100 $13 $-1 $101 reversed single #
loop $-1 $-1 $102 $36 #
plane-surface $-1 -63.268308011867902 -14.262653179201273 0 -1 0 0 0 0 1 forward_v I I I I #
coedge $-1 $103 $104 $105 $106 forward $37 $-1 #
coedge $-1 $107 $39 $108 $109 reversed $24 $-1 #
coedge $-1 $39 $107 $110 $111 reversed $24 $-1 #
coedge $-1 $112 $113 $39 $64 forward $114 $-1 #
edge $-1 $115 -16.121078851143608 $116 16.121078851143608 $63 $117 forward 7 unknown #
face $-1 $118 $119 $14 $-1 $120 reversed single #
loop $-1 $-1 $121 $40 #
plane-surface $-1 75.704217090541704 -22.690886765896039 218.77531594531948 0 1 0 0.70710678939079041 0 0.70710677298230451 forward_v I I I I #
coedge $-1 $122 $123 $124 $125 reversed $41 $-1 #
coedge $-1 $70 $43 $126 $127 reversed $27 $-1 #
coedge $-1 $43 $69 $122 $128 reversed $27 $-1 #
coedge $-1 $124 $129 $43 $72 forward $130 $-1 #
edge $-1 $131 -37.852106060887792 $132 -26.382489371551472 $71 $133 forward 7 unknown #
loop $-1 $-1 $78 $44 #
plane-surface $-1 -31.357711176482738 -10.562654214917757 111.71339016267811 0.70710678939079041 0 0.70710677298230451 0.70710677298230451 0 -0.70710678939079041 forward_v I I I I #
loop $-1 $-1 $134 $29 #
coedge $-1 $76 $76 $77 $135 reversed $45 $-1 #
coedge $-1 $77 $77 $76 $135 forward $47 $-1 #
coedge $-1 $78 $78 $48 $79 forward $73 $-1 #
edge $-1 $136 0 $136 6.2831853071796004 $78 $137 forward 7 unknown #
face $-1 $138 $139 $12 $-1 $140 reversed single #
loop $-1 $-1 $141 $49 #
plane-surface $-1 -75.704214606158644 0 0 1 0 0 0 0 -1 forward_v I I I I #
coedge $-1 $142 $91 $143 $144 forward $50 $-1 #
coedge $-1 $145 $52 $142 $146 forward $33 $-1 #
coedge $-1 $52 $145 $147 $148 forward $33 $-1 #
coedge $-1 $94 $93 $52 $87 reversed $95 $-1 #
edge $-1 $149 -43.407184472153325 $150 43.407184472153325 $86 $151 forward 7 unknown #
coedge $-1 $54 $53 $152 $153 forward $21 $-1 #
coedge $-1 $154 $155 $53 $90 reversed $139 $-1 #
edge $-1 $97 -75.704214606158644 $156 75.704214606158644 $89 $157 forward 7 unknown #
coedge $-1 $83 $158 $54 $92 reversed $50 $-1 #
edge $-1 $159 -75.704214606158644 $96 75.704214606158644 $91 $160 forward 7 unknown #
coedge $-1 $86 $55 $158 $161 forward $95 $-1 #
coedge $-1 $55 $86 $154 $162 reversed $95 $-1 #
loop $-1 $-1 $93 $138 #
vertex $-1 $56 $163 #
vertex $-1 $56 $164 #
straight-curve $-1 75.704214606158644 0 16.121078851143608 0 1 0 I I #
face $-1 $165 $166 $13 $-1 $167 forward single #
loop $-1 $-1 $168 $57 #
plane-surface $-1 0 0 -16.121078851143608 0 0 1 1 0 0 forward_v I I I I #
coedge $-1 $169 $170 $107 $171 forward $58 $-1 #
coedge $-1 $172 $60 $168 $173 reversed $37 $-1 #
coedge $-1 $60 $172 $174 $175 reversed $37 $-1 #
coedge $-1 $170 $169 $60 $106 reversed $58 $-1 #
edge $-1 $176 -16.121078851143608 $177 16.121078851143608 $105 $178 forward 7 unknown #
coedge $-1 $62 $61 $102 $171 reversed $24 $-1 #
coedge $-1 $179 $180 $61 $109 forward $100 $-1 #
edge $-1 $181 28.525177357361265 $115 40.961083951652007 $108 $182 forward 7 unknown #
coedge $-1 $183 $184 $62 $111 forward $166 $-1 #
edge $-1 $116 -40.961083951652007 $185 -28.525177357361265 $110 $186 forward 7 unknown #
coedge $-1 $187 $63 $184 $188 reversed $114 $-1 #
coedge $-1 $63 $187 $179 $189 reversed $114 $-1 #
loop $-1 $-1 $187 $165 #
vertex $-1 $189 $190 #
vertex $-1 $64 $191 #
straight-curve $-1 -75.704214606158644 -17.360279588536436 0 0 0 1 I I #
face $-1 $-1 $130 $14 $-1 $192 forward single #
loop $-1 $-1 $193 $65 #
plane-surface $-1 75.704214606158644 0 0 -1 0 0 0 0 1 forward_v I I I I #
coedge $-1 $194 $195 $196 $197 reversed $66 $-1 #
coedge $-1 $198 $68 $70 $128 forward $41 $-1 #
coedge $-1 $68 $198 $194 $199 forward $41 $-1 #
coedge $-1 $196 $71 $68 $125 forward $130 $-1 #
edge $-1 $132 -6.8469054435194039 $200 17.409559658437161 $124 $201 forward 7 unknown #
coedge $-1 $202 $203 $69 $127 forward $119 $-1 #
edge $-1 $204 -104.73619607700608 $131 -93.266579121516131 $126 $205 forward 7 unknown #
edge $-1 $132 135.18794154683809 $204 151.40842921231737 $70 $206 forward 7 unknown #
coedge $-1 $71 $196 $202 $207 forward $130 $-1 #
loop $-1 $-1 $196 $118 #
vertex $-1 $127 $208 #
vertex $-1 $72 $209 #
straight-curve $-1 37.852108545270852 1.5655783360605255 16.121078851143608 -1 0 0 I I #
coedge $-1 $134 $134 $-1 $210 reversed $75 $-1 #
edge $-1 $211 0 $211 6.2831853071796004 $76 $212 forward 7 unknown #
vertex $-1 $79 $213 #
ellipse-curve $-1 69.969406261490491 -10.562654214917757 10.386270373398624 0.70710678939079041 0 0.70710677298230451 2.828427091929218 0 -2.8284271575631617 1 I I #
face $-1 $-1 $95 $12 $-1 $214 reversed single #
loop $-1 $-1 $154 $80 #
plane-surface $-1 0 43.407184472153325 0 0 -1 0 0 0 -1 forward_v I I I I #
coedge $-1 $215 $152 $155 $216 forward $81 $-1 #
coedge $-1 $158 $83 $84 $146 reversed $50 $-1 #
coedge $-1 $152 $215 $83 $144 reversed $81 $-1 #
edge $-1 $159 -16.121078851143608 $217 16.121078851143608 $143 $218 forward 7 unknown #
coedge $-1 $85 $84 $215 $219 forward $33 $-1 #
edge $-1 $150 -75.704214606158644 $217 75.704214606158644 $142 $220 forward 7 unknown #
coedge $-1 $155 $154 $85 $148 reversed $139 $-1 #
edge $-1 $221 -75.704214606158644 $149 75.704214606158644 $147 $222 forward 7 unknown #
vertex $-1 $87 $223 #
vertex $-1 $161 $224 #
straight-curve $-1 75.704214606158644 0 -16.121078851143608 0 -1 0 I I #
coedge $-1 $141 $143 $88 $153 reversed $81 $-1 #
edge $-1 $156 -43.407184472153325 $159 43.407184472153325 $152 $225 forward 7 unknown #
coedge $-1 $147 $89 $94 $162 forward $139 $-1 #
coedge $-1 $89 $147 $141 $216 reversed $139 $-1 #
vertex $-1 $90 $226 #
straight-curve $-1 0 43.407184472153325 16.121078851143608 -1 0 0 I I #
coedge $-1 $91 $142 $93 $161 reversed $50 $-1 #
vertex $-1 $153 $227 #
straight-curve $-1 0 -43.407184472153325 16.121078851143608 1 0 0 I I #
edge $-1 $96 -16.121078851143608 $150 16.121078851143608 $93 $228 forward 7 unknown #
edge $-1 $97 -16.121078851143608 $149 16.121078851143608 $94 $229 forward 7 unknown #
point $-1 75.704214606158644 -43.407184472153325 16.121078851143608 #
point $-1 75.704214606158644 43.407184472153325 16.121078851143608 #
face $-1 $-1 $114 $13 $-1 $230 reversed single #
loop $-1 $-1 $174 $99 #
plane-surface $-1 0 0 16.121078851143608 0 0 1 1 0 0 forward_v I I I I #
coedge $-1 $180 $179 $103 $173 forward $100 $-1 #
coedge $-1 $105 $102 $180 $231 reversed $58 $-1 #
coedge $-1 $102 $105 $183 $232 reversed $58 $-1 #
edge $-1 $185 -16.121078851143608 $181 16.121078851143608 $102 $233 forward 7 unknown #
coedge $-1 $104 $103 $187 $234 reversed $37 $-1 #
edge $-1 $235 -40.961083951652007 $177 -28.525177357361265 $168 $236 forward 7 unknown #
coedge $-1 $184 $183 $104 $175 forward $166 $-1 #
edge $-1 $176 28.525177357361265 $237 40.961083951652007 $174 $238 forward 7 unknown #
vertex $-1 $175 $239 #
vertex $-1 $173 $240 #
straight-curve $-1 -63.268308011867902 -11.16502676986611 0 0 0 -1 I I #
coedge $-1 $168 $108 $113 $189 forward $100 $-1 #
coedge $-1 $108 $168 $169 $231 forward $100 $-1 #
vertex $-1 $109 $241 #
straight-curve $-1 -34.743130654506636 -17.360279588536436 -16.121078851143608 -1 0 0 I I #
coedge $-1 $174 $110 $170 $232 forward $166 $-1 #
coedge $-1 $110 $174 $112 $188 forward $166 $-1 #
vertex $-1 $111 $242 #
straight-curve $-1 -34.743130654506636 -17.360279588536436 16.121078851143608 1 0 0 I I #
coedge $-1 $113 $112 $172 $234 forward $114 $-1 #
edge $-1 $237 11.16502676986611 $116 17.360279588536436 $112 $243 forward 7 unknown #
edge $-1 $115 -17.360279588536436 $235 -11.16502676986611 $113 $244 forward 7 unknown #
point $-1 -75.704214606158644 -17.360279588536436 -16.121078851143608 #
point $-1 -75.704214606158644 -17.360279588536436 16.121078851143608 #
plane-surface $-1 0 0 16.121078851143608 0 0 1 1 0 0 forward_v I I I I #
coedge $-1 $203 $202 $195 $245 forward $119 $-1 #
coedge $-1 $195 $121 $123 $199 reversed $66 $-1 #
coedge $-1 $121 $194 $193 $245 reversed $66 $-1 #
coedge $-1 $129 $124 $121 $197 forward $130 $-1 #
edge $-1 $200 26.382489371551472 $246 37.852106060887792 $196 $247 forward 7 unknown #
coedge $-1 $123 $122 $203 $248 reversed $41 $-1 #
edge $-1 $249 -151.40842921231737 $200 -135.18794154683809 $194 $250 forward 7 unknown #
vertex $-1 $125 $251 #
straight-curve $-1 64.234597916822324 -5.2813271074588783 16.121078851143601 0 -1 0 I I #
coedge $-1 $193 $126 $129 $207 reversed $119 $-1 #
coedge $-1 $126 $193 $198 $248 forward $119 $-1 #
vertex $-1 $127 $252 #
straight-curve $-1 75.704214606158644 1.5655783360605255 109.38765797265974 0 0 1 I I #
straight-curve $-1 -31.357711176482738 1.5655783360605255 111.71339016267811 0.70710677298230451 0 -0.70710678939079041 I I #
edge $-1 $246 -22.690886765896039 $131 1.5655783360605255 $202 $253 forward 7 unknown #
point $-1 75.704214606158644 1.5655783360605255 16.121078851143608 #
point $-1 64.234597916822324 1.5655783360605255 16.121078851143608 #
edge $-1 $254 1 $254 0 $134 $-1 forward 7 unknown #
vertex $-1 $135 $255 #
ellipse-curve $-1 64.725676503879299 -10.562654214917757 5.1425407374687158 0.70710678939079041 0 0.70710677298230451 2.828427091929218 0 -2.8284271575631617 1 I I #
point $-1 72.797833353419733 -10.562654214917757 7.5578432158354865 #
plane-surface $-1 75.704214606158644 0 0 -1 0 0 0 0 1 forward_v I I I I #
coedge $-1 $143 $141 $145 $219 reversed $81 $-1 #
edge $-1 $156 -16.121078851143608 $221 16.121078851143608 $155 $256 forward 7 unknown #
vertex $-1 $219 $257 #
straight-curve $-1 -75.704214606158644 -43.407184472153325 0 0 0 -1 I I #
edge $-1 $217 -43.407184472153325 $221 43.407184472153325 $215 $258 forward 7 unknown #
straight-curve $-1 0 -43.407184472153325 -16.121078851143608 -1 0 0 I I #
vertex $-1 $148 $259 #
straight-curve $-1 0 43.407184472153325 -16.121078851143608 1 0 0 I I #
point $-1 75.704214606158644 43.407184472153325 -16.121078851143608 #
point $-1 75.704214606158644 -43.407184472153325 -16.121078851143608 #
straight-curve $-1 -75.704214606158644 0 16.121078851143608 0 -1 0 I I #
point $-1 -75.704214606158644 43.407184472153325 16.121078851143608 #
point $-1 -75.704214606158644 -43.407184472153325 16.121078851143608 #
straight-curve $-1 75.704214606158644 -43.407184472153325 0 0 0 -1 I I #
straight-curve $-1 75.704214606158644 43.407184472153325 0 0 0 -1 I I #
plane-surface $-1 -75.704214606158644 0 0 1 0 0 0 0 -1 forward_v I I I I #
edge $-1 $177 4.0337001802654733 $181 10.228952998935799 $180 $260 forward 7 unknown #
edge $-1 $185 -10.228952998935799 $176 -4.0337001802654733 $183 $261 forward 7 unknown #
straight-curve $-1 -63.268308011867902 -17.360279588536436 0 0 0 -1 I I #
edge $-1 $237 -16.121078851143608 $235 16.121078851143608 $187 $262 forward 7 unknown #
vertex $-1 $234 $263 #
straight-curve $-1 -34.743130654506636 -11.16502676986611 -16.121078851143608 1 0 0 I I #
vertex $-1 $188 $264 #
straight-curve $-1 -34.743130654506636 -11.16502676986611 16.121078851143608 -1 0 0 I I #
point $-1 -63.268308011867902 -11.16502676986611 16.121078851143608 #
point $-1 -63.268308011867902 -11.16502676986611 -16.121078851143608 #
point $-1 -63.268308011867902 -17.360279588536436 -16.121078851143608 #
point $-1 -63.268308011867902 -17.360279588536436 16.121078851143608 #
straight-curve $-1 -75.704214606158644 0 16.121078851143608 0 -1 0 I I #
straight-curve $-1 -75.704214606158644 0 -16.121078851143608 0 1 0 I I #
edge $-1 $246 93.266579121516131 $249 104.73619607700608 $193 $265 forward 7 unknown #
vertex $-1 $207 $266 #
straight-curve $-1 37.852108545270852 -22.690886765896039 16.121078851143608 1 0 0 I I #
edge $-1 $249 -17.409559658437161 $204 6.8469054435194039 $203 $267 forward 7 unknown #
vertex $-1 $248 $268 #
straight-curve $-1 -31.357711176482738 -22.690886765896039 111.71339016267811 -0.70710677298230451 0 0.70710678939079041 I I #
point $-1 64.234597916822324 -22.690886765896039 16.121078851143608 #
point $-1 75.704214606158644 1.5655783360605255 4.6514618956536538 #
straight-curve $-1 75.704214606158644 0 16.121078851143608 0 1 0 I I #
vertex $-1 $210 $269 #
point $-1 67.554103595808513 -10.562654214917757 2.3141135799055546 #
straight-curve $-1 -75.704214606158644 43.407184472153325 0 0 0 -1 I I #
point $-1 -75.704214606158644 -43.407184472153325 -16.121078851143608 #
straight-curve $-1 -75.704214606158644 0 -16.121078851143608 0 1 0 I I #
point $-1 -75.704214606158644 43.407184472153325 -16.121078851143608 #
straight-curve $-1 -63.268308011867902 -7.1313265896006364 -16.121078851143608 0 -1 0 I I #
straight-curve $-1 -63.268308011867902 -7.1313265896006364 16.121078851143608 0 1 0 I I #
straight-curve $-1 -75.704214606158644 -11.16502676986611 0 0 0 -1 I I #
point $-1 -75.704214606158644 -11.16502676986611 -16.121078851143608 #
point $-1 -75.704214606158644 -11.16502676986611 16.121078851143608 #
straight-curve $-1 75.704214606158644 -22.690886765896039 109.38765797265974 0 0 -1 I I #
point $-1 75.704214606158644 -22.690886765896039 16.121078851143608 #
straight-curve $-1 75.704214606158644 -5.2813271074588783 4.6514618956536609 0 1 0 I I #
point $-1 75.704214606158644 -22.690886765896039 4.6514618956536538 #
point $-1 61.897249346316137 -10.562654214917757 2.3141136455394982 #
End-of-ACIS-data 