500 0 6 0           
7 Unknown 11 ACIS 5.0 NT 24 Thu Mar 25 18:39:47 1999 
-1 9.9999999999999995e-007 1e-010 
body $-1 $6 $-1 $7 #
body $-1 $8 $-1 $9 #
body $-1 $10 $-1 $11 #
body $-1 $12 $-1 $13 #
body $-1 $14 $-1 $15 #
body $-1 $16 $-1 $17 #
lump $-1 $-1 $18 $0 #
transform $-1 1 0 0 0 1 0 0 0 1 41.124301889095733 27.827649270179606 8.4511399706232275 1 rotate no_reflect no_shear #
lump $-1 $-1 $19 $1 #
transform $-1 1 0 0 0 1 0 0 0 1 41.124301889095733 27.827649270179606 8.4511399706232275 1 rotate no_reflect no_shear #
lump $-1 $-1 $20 $2 #
transform $-1 1 0 0 0 1 0 0 0 1 41.124301889095733 27.827649270179606 8.4511399706232275 1 rotate no_reflect no_shear #
lump $-1 $-1 $21 $3 #
transform $-1 1 0 0 0 1 0 0 0 1 41.124301889095733 27.827649270179606 8.4511399706232275 1 rotate no_reflect no_shear #
lump $-1 $-1 $22 $4 #
transform $-1 1 0 0 0 1 0 0 0 1 41.124301889095733 27.827649270179606 8.4511399706232275 1 rotate no_reflect no_shear #
lump $-1 $-1 $23 $5 #
transform $-1 1 0 0 0 1 0 0 0 1 41.124301889095733 27.827649270179606 8.4511399706232275 1 rotate no_reflect no_shear #
shell $-1 $-1 $-1 $24 $-1 $6 #
shell $-1 $-1 $-1 $25 $-1 $8 #
shell $-1 $-1 $-1 $26 $-1 $10 #
shell $-1 $-1 $-1 $27 $-1 $12 #
shell $-1 $-1 $-1 $28 $-1 $14 #
shell $-1 $-1 $-1 $29 $-1 $16 #
face $-1 $30 $31 $18 $-1 $32 forward single #
face $-1 $33 $34 $19 $-1 $35 reversed single #
face $-1 $36 $37 $20 $-1 $38 reversed single #
face $-1 $39 $40 $21 $-1 $41 forward single #
face $-1 $42 $43 $22 $-1 $44 forward single #
face $-1 $45 $46 $23 $-1 $47 forward single #
face $-1 $48 $49 $18 $-1 $50 reversed single #
loop $-1 $-1 $51 $24 #
plane-surface $-1 0 0 8.4511399706232275 0 0 1 1 0 0 forward_v I I I I #
face $-1 $52 $53 $19 $-1 $54 reversed single #
loop $-1 $-1 $55 $25 #
plane-surface $-1 -36.32039094414403 -24.396899623851411 0 0 -1 0 0 0 -1 forward_v I I I I #
face $-1 $56 $57 $20 $-1 $58 reversed single #
loop $-1 $-1 $59 $26 #
plane-surface $-1 -26.249809610000369 -24.740488730213091 48.438705479988769 0.57357644374324357 0 0.81915203911291934 0.81915203911291934 0 -0.57357644374324357 forward_v I I I I #
face $-1 $60 $61 $21 $-1 $62 forward single #
loop $-1 $63 $64 $27 #
cone-surface $-1 35.704538357580859 -26.592785054193001 4.4474158767784537 -0.57357644374324357 0 -0.81915203911291934 0.20478800977822983 0 -0.14339411093581089 1 I I 0 1 0.25 forward I I I I #
face $-1 $65 $66 $22 $-1 $67 forward single #
loop $-1 $68 $69 $28 #
cone-surface $-1 35.704538357580859 -24.740488730213091 4.4474158767784537 -0.57357644374324357 0 -0.81915203911291934 0.20478800977822983 0 -0.14339411093581089 1 I I 0 1 0.25 forward I I I I #
face $-1 $70 $71 $23 $-1 $72 forward single #
loop $-1 $73 $74 $29 #
cone-surface $-1 35.704538357580859 -22.888192406233181 4.4474158767784537 -0.57357644374324357 0 -0.81915203911291934 0.20478800977822983 0 -0.14339411093581089 1 I I 0 1 0.25 forward I I I I #
face $-1 $75 $76 $18 $-1 $77 reversed single #
loop $-1 $-1 $78 $30 #
plane-surface $-1 0 0 -8.4511399706232275 0 0 1 1 0 0 forward_v I I I I #
coedge $-1 $79 $80 $81 $82 forward $31 $-1 #
face $-1 $83 $84 $19 $-1 $85 forward single #
loop $-1 $-1 $86 $33 #
plane-surface $-1 -31.516479999192331 -26.112274447015508 0 -1 0 0 0 0 1 forward_v I I I I #
coedge $-1 $87 $88 $89 $90 forward $34 $-1 #
face $-1 $91 $92 $20 $-1 $93 forward single #
loop $-1 $-1 $94 $36 #
plane-surface $-1 20.926052047941802 -21.653328190246576 115.81281697908487 0 -1 0 -0.57357644374324357 0 -0.81915203911291934 forward_v I I I I #
coedge $-1 $95 $96 $97 $98 reversed $37 $-1 #
face $-1 $-1 $99 $21 $-1 $100 forward single #
loop $-1 $101 $102 $39 #
cone-surface $-1 35.346053080241333 -26.592785054193001 3.9354458523328795 -0.57357644374324357 0 -0.81915203911291934 0.10239400488911492 0 -0.071697055467905446 1 I I -0.70710678118654746 0.70710678118654746 0.125 forward I I I I #
loop $-1 $-1 $103 $27 #
coedge $-1 $64 $64 $104 $105 reversed $40 $-1 #
face $-1 $-1 $106 $22 $-1 $107 forward single #
loop $-1 $108 $109 $42 #
cone-surface $-1 35.346053080241333 -24.740488730213091 3.9354458523328795 -0.57357644374324357 0 -0.81915203911291934 0.10239400488911492 0 -0.071697055467905446 1 I I -0.70710678118654746 0.70710678118654746 0.125 forward I I I I #
loop $-1 $-1 $110 $28 #
coedge $-1 $69 $69 $111 $112 reversed $43 $-1 #
face $-1 $-1 $113 $23 $-1 $114 forward single #
loop $-1 $115 $116 $45 #
cone-surface $-1 35.346053080241333 -22.888192406233181 3.9354458523328795 -0.57357644374324357 0 -0.81915203911291934 0.10239400488911492 0 -0.071697055467905446 1 I I -0.70710678118654746 0.70710678118654746 0.125 forward I I I I #
loop $-1 $-1 $117 $29 #
coedge $-1 $74 $74 $118 $119 reversed $46 $-1 #
face $-1 $120 $121 $18 $-1 $122 reversed single #
loop $-1 $-1 $123 $48 #
plane-surface $-1 0 -27.827649270179606 0 0 1 0 0 0 1 forward_v I I I I #
coedge $-1 $124 $125 $126 $127 forward $49 $-1 #
coedge $-1 $128 $51 $129 $130 forward $31 $-1 #
coedge $-1 $51 $128 $131 $132 forward $31 $-1 #
coedge $-1 $133 $134 $51 $82 reversed $135 $-1 #
edge $-1 $136 -27.827649270179606 $137 27.827649270179606 $81 $138 forward 7 unknown #
face $-1 $139 $140 $19 $-1 $141 reversed single #
loop $-1 $-1 $142 $52 #
plane-surface $-1 0 0 8.4511399706232275 0 0 1 1 0 0 forward_v I I I I #
coedge $-1 $143 $144 $145 $146 reversed $53 $-1 #
coedge $-1 $147 $55 $148 $149 reversed $34 $-1 #
coedge $-1 $55 $147 $150 $151 reversed $34 $-1 #
coedge $-1 $144 $143 $55 $90 reversed $53 $-1 #
edge $-1 $152 -8.4511399706232275 $153 8.4511399706232275 $89 $154 forward 7 unknown #
face $-1 $155 $156 $20 $-1 $157 reversed single #
loop $-1 $-1 $158 $56 #
plane-surface $-1 0 0 8.4511399706232275 0 0 1 1 0 0 forward_v I I I I #
coedge $-1 $159 $160 $161 $162 reversed $57 $-1 #
coedge $-1 $163 $59 $164 $165 reversed $37 $-1 #
coedge $-1 $59 $163 $159 $166 forward $37 $-1 #
coedge $-1 $161 $167 $59 $98 forward $168 $-1 #
edge $-1 $169 -15.45740490507306 $170 -9.2830838251400305 $97 $171 forward 7 unknown #
loop $-1 $-1 $104 $60 #
plane-surface $-1 -26.249809610000369 -24.740488730213091 48.438705479988769 0.57357644374324357 0 0.81915203911291934 0.81915203911291934 0 -0.57357644374324357 forward_v I I I I #
loop $-1 $-1 $172 $39 #
coedge $-1 $102 $102 $103 $173 reversed $61 $-1 #
coedge $-1 $103 $103 $102 $173 forward $63 $-1 #
coedge $-1 $104 $104 $64 $105 forward $99 $-1 #
edge $-1 $174 0 $174 6.2831853071796004 $104 $175 forward 7 unknown #
loop $-1 $-1 $111 $65 #
plane-surface $-1 -26.249809610000369 -24.740488730213091 48.438705479988769 0.57357644374324357 0 0.81915203911291934 0.81915203911291934 0 -0.57357644374324357 forward_v I I I I #
loop $-1 $-1 $176 $42 #
coedge $-1 $109 $109 $110 $177 reversed $66 $-1 #
coedge $-1 $110 $110 $109 $177 forward $68 $-1 #
coedge $-1 $111 $111 $69 $112 forward $106 $-1 #
edge $-1 $178 0 $178 6.2831853071796004 $111 $179 forward 7 unknown #
loop $-1 $-1 $118 $70 #
plane-surface $-1 -26.249809610000369 -24.740488730213091 48.438705479988769 0.57357644374324357 0 0.81915203911291934 0.81915203911291934 0 -0.57357644374324357 forward_v I I I I #
loop $-1 $-1 $180 $45 #
coedge $-1 $116 $116 $117 $181 reversed $71 $-1 #
coedge $-1 $117 $117 $116 $181 forward $73 $-1 #
coedge $-1 $118 $118 $74 $119 forward $113 $-1 #
edge $-1 $182 0 $182 6.2831853071796004 $118 $183 forward 7 unknown #
face $-1 $184 $185 $18 $-1 $186 reversed single #
loop $-1 $-1 $187 $75 #
plane-surface $-1 -41.124301889095733 0 0 1 0 0 0 0 -1 forward_v I I I I #
coedge $-1 $188 $131 $189 $190 forward $76 $-1 #
coedge $-1 $191 $78 $188 $192 forward $49 $-1 #
coedge $-1 $78 $191 $193 $194 forward $49 $-1 #
coedge $-1 $134 $133 $78 $127 reversed $135 $-1 #
edge $-1 $195 -27.827649270179606 $196 27.827649270179606 $126 $197 forward 7 unknown #
coedge $-1 $80 $79 $198 $199 forward $31 $-1 #
coedge $-1 $200 $201 $79 $130 reversed $185 $-1 #
edge $-1 $137 -41.124301889095733 $202 41.124301889095733 $129 $203 forward 7 unknown #
coedge $-1 $123 $204 $80 $132 reversed $76 $-1 #
edge $-1 $205 -41.124301889095733 $136 41.124301889095733 $131 $206 forward 7 unknown #
coedge $-1 $126 $81 $204 $207 forward $135 $-1 #
coedge $-1 $81 $126 $200 $208 reversed $135 $-1 #
loop $-1 $-1 $133 $184 #
vertex $-1 $82 $209 #
vertex $-1 $82 $210 #
straight-curve $-1 41.124301889095733 0 8.4511399706232275 0 1 0 I I #
face $-1 $211 $212 $19 $-1 $213 reversed single #
loop $-1 $-1 $214 $83 #
plane-surface $-1 -41.124301889095733 0 0 1 0 0 0 0 -1 forward_v I I I I #
coedge $-1 $150 $215 $144 $216 forward $84 $-1 #
coedge $-1 $89 $86 $217 $218 reversed $53 $-1 #
coedge $-1 $86 $89 $142 $216 reversed $53 $-1 #
coedge $-1 $219 $220 $86 $146 forward $221 $-1 #
edge $-1 $222 -8.4511399706232275 $223 8.4511399706232275 $145 $224 forward 7 unknown #
coedge $-1 $88 $87 $214 $225 reversed $34 $-1 #
coedge $-1 $217 $226 $87 $149 forward $212 $-1 #
edge $-1 $227 -22.964106417023718 $153 -13.356284527120316 $148 $228 forward 7 unknown #
coedge $-1 $229 $142 $88 $151 forward $84 $-1 #
edge $-1 $152 13.356284527120316 $230 22.964106417023718 $150 $231 forward 7 unknown #
vertex $-1 $151 $232 #
vertex $-1 $149 $233 #
straight-curve $-1 -31.516479999192331 -24.396899623851411 0 0 0 -1 I I #
face $-1 $-1 $168 $20 $-1 $234 reversed single #
loop $-1 $-1 $164 $91 #
plane-surface $-1 0 -27.827649270179606 0 0 1 0 0 0 1 forward_v I I I I #
coedge $-1 $235 $236 $160 $237 forward $92 $-1 #
coedge $-1 $160 $94 $96 $166 reversed $57 $-1 #
coedge $-1 $94 $159 $158 $237 reversed $57 $-1 #
coedge $-1 $238 $97 $94 $162 forward $168 $-1 #
edge $-1 $170 -56.643564667495838 $239 -49.455268518919212 $161 $240 forward 7 unknown #
coedge $-1 $96 $95 $235 $241 reversed $37 $-1 #
coedge $-1 $242 $243 $95 $165 forward $156 $-1 #
edge $-1 $244 45.073249304948554 $169 57.605661029643457 $164 $245 forward 7 unknown #
edge $-1 $246 69.71619205349657 $170 82.248603778191466 $159 $247 forward 7 unknown #
coedge $-1 $97 $238 $242 $248 forward $168 $-1 #
loop $-1 $-1 $161 $155 #
vertex $-1 $165 $249 #
vertex $-1 $98 $250 #
straight-curve $-1 41.124301889095733 -12.370244365106545 1.2628438220465981 0 1 0 I I #
coedge $-1 $172 $172 $-1 $251 reversed $101 $-1 #
edge $-1 $252 0 $252 6.2831853071796004 $102 $253 forward 7 unknown #
vertex $-1 $105 $254 #
ellipse-curve $-1 35.991326579452483 -26.592785054193001 4.856991896334919 0.57357644374324357 0 0.81915203911291934 0.20478800977822983 0 -0.14339411093581089 1 I I #
coedge $-1 $176 $176 $-1 $255 reversed $108 $-1 #
edge $-1 $256 0 $256 6.2831853071796004 $109 $257 forward 7 unknown #
vertex $-1 $112 $258 #
ellipse-curve $-1 35.991326579452483 -24.740488730213091 4.856991896334919 0.57357644374324357 0 0.81915203911291934 0.20478800977822983 0 -0.14339411093581089 1 I I #
coedge $-1 $180 $180 $-1 $259 reversed $115 $-1 #
edge $-1 $260 0 $260 6.2831853071796004 $116 $261 forward 7 unknown #
vertex $-1 $119 $262 #
ellipse-curve $-1 35.991326579452483 -22.888192406233181 4.856991896334919 0.57357644374324357 0 0.81915203911291934 0.20478800977822983 0 -0.14339411093581089 1 I I #
face $-1 $-1 $135 $18 $-1 $263 reversed single #
loop $-1 $-1 $200 $120 #
plane-surface $-1 0 27.827649270179606 0 0 -1 0 0 0 -1 forward_v I I I I #
coedge $-1 $264 $198 $201 $265 forward $121 $-1 #
coedge $-1 $204 $123 $124 $192 reversed $76 $-1 #
coedge $-1 $198 $264 $123 $190 reversed $121 $-1 #
edge $-1 $205 -8.4511399706232275 $266 8.4511399706232275 $189 $267 forward 7 unknown #
coedge $-1 $125 $124 $264 $268 forward $49 $-1 #
edge $-1 $196 -41.124301889095733 $266 41.124301889095733 $188 $269 forward 7 unknown #
coedge $-1 $201 $200 $125 $194 reversed $185 $-1 #
edge $-1 $270 -41.124301889095733 $195 41.124301889095733 $193 $271 forward 7 unknown #
vertex $-1 $127 $272 #
vertex $-1 $207 $273 #
straight-curve $-1 41.124301889095733 0 -8.4511399706232275 0 -1 0 I I #
coedge $-1 $187 $189 $128 $199 reversed $121 $-1 #
edge $-1 $202 -27.827649270179606 $205 27.827649270179606 $198 $274 forward 7 unknown #
coedge $-1 $193 $129 $134 $208 forward $185 $-1 #
coedge $-1 $129 $193 $187 $265 reversed $185 $-1 #
vertex $-1 $130 $275 #
straight-curve $-1 0 27.827649270179606 8.4511399706232275 -1 0 0 I I #
coedge $-1 $131 $188 $133 $207 reversed $76 $-1 #
vertex $-1 $199 $276 #
straight-curve $-1 0 -27.827649270179606 8.4511399706232275 1 0 0 I I #
edge $-1 $136 -8.4511399706232275 $196 8.4511399706232275 $133 $277 forward 7 unknown #
edge $-1 $137 -8.4511399706232275 $195 8.4511399706232275 $134 $278 forward 7 unknown #
point $-1 41.124301889095733 -27.827649270179606 8.4511399706232275 #
point $-1 41.124301889095733 27.827649270179606 8.4511399706232275 #
face $-1 $-1 $221 $19 $-1 $279 reversed single #
loop $-1 $-1 $217 $139 #
plane-surface $-1 0 0 -8.4511399706232275 0 0 1 1 0 0 forward_v I I I I #
coedge $-1 $280 $281 $147 $225 forward $140 $-1 #
coedge $-1 $142 $229 $219 $282 forward $84 $-1 #
edge $-1 $223 -14.771512046671852 $152 -11.340762400343657 $142 $283 forward 7 unknown #
coedge $-1 $284 $148 $143 $218 forward $212 $-1 #
edge $-1 $153 11.340762400343657 $222 14.771512046671852 $217 $285 forward 7 unknown #
coedge $-1 $286 $145 $215 $282 reversed $221 $-1 #
coedge $-1 $145 $286 $284 $287 reversed $221 $-1 #
loop $-1 $-1 $145 $211 #
vertex $-1 $287 $288 #
vertex $-1 $146 $289 #
straight-curve $-1 -31.516479999192331 -27.827649270179606 0 0 0 1 I I #
edge $-1 $230 -8.4511399706232275 $227 8.4511399706232275 $214 $290 forward 7 unknown #
coedge $-1 $148 $284 $280 $291 forward $212 $-1 #
vertex $-1 $149 $292 #
straight-curve $-1 -18.160195472072015 -24.396899623851411 -8.4511399706232275 1 0 0 I I #
coedge $-1 $215 $150 $281 $293 forward $84 $-1 #
vertex $-1 $293 $294 #
straight-curve $-1 -18.160195472072015 -24.396899623851411 8.4511399706232275 -1 0 0 I I #
point $-1 -31.516479999192331 -24.396899623851411 8.4511399706232275 #
point $-1 -31.516479999192331 -24.396899623851411 -8.4511399706232275 #
plane-surface $-1 41.124301889095733 0 0 -1 0 0 0 0 1 forward_v I I I I #
coedge $-1 $295 $158 $163 $241 forward $92 $-1 #
coedge $-1 $158 $295 $238 $296 forward $92 $-1 #
edge $-1 $239 -30.661275865124832 $246 -20.395325245838347 $158 $297 forward 7 unknown #
coedge $-1 $167 $161 $236 $296 reversed $168 $-1 #
vertex $-1 $237 $298 #
straight-curve $-1 41.124301889095733 -21.653328190246576 57.906408489542436 0 0 1 I I #
edge $-1 $246 9.2830838251400305 $244 15.45740490507306 $235 $299 forward 7 unknown #
coedge $-1 $243 $164 $167 $248 reversed $156 $-1 #
coedge $-1 $164 $242 $295 $300 reversed $156 $-1 #
vertex $-1 $300 $301 #
straight-curve $-1 -6.0634928077843329 -27.827649270179606 34.304094014908245 0.81915203911291934 0 -0.57357644374324357 I I #
vertex $-1 $241 $302 #
straight-curve $-1 -26.249809610000369 -21.653328190246576 48.438705479988769 0.81915203911291934 0 -0.57357644374324357 I I #
edge $-1 $303 -8.4511399706232275 $169 -1.2628438220466045 $167 $304 forward 7 unknown #
point $-1 41.124301889095733 -27.827649270179606 1.2628438220466045 #
point $-1 41.124301889095733 -21.653328190246576 1.2628438220465981 #
edge $-1 $305 1 $305 0 $172 $-1 forward 7 unknown #
vertex $-1 $173 $306 #
ellipse-curve $-1 35.417750135709241 -26.592785054193001 4.0378398572219947 0.57357644374324357 0 0.81915203911291934 0.20478800977822983 0 -0.14339411093581089 1 I I #
point $-1 36.19611458923071 -26.592785054193001 4.7135977853991031 #
edge $-1 $307 1 $307 0 $176 $-1 forward 7 unknown #
vertex $-1 $177 $308 #
ellipse-curve $-1 35.417750135709241 -24.740488730213091 4.0378398572219947 0.57357644374324357 0 0.81915203911291934 0.20478800977822983 0 -0.14339411093581089 1 I I #
point $-1 36.19611458923071 -24.740488730213091 4.7135977853991031 #
edge $-1 $309 1 $309 0 $180 $-1 forward 7 unknown #
vertex $-1 $181 $310 #
ellipse-curve $-1 35.417750135709241 -22.888192406233181 4.0378398572219947 0.57357644374324357 0 0.81915203911291934 0.20478800977822983 0 -0.14339411093581089 1 I I #
point $-1 36.19611458923071 -22.888192406233181 4.7135977853991031 #
plane-surface $-1 41.124301889095733 0 0 -1 0 0 0 0 1 forward_v I I I I #
coedge $-1 $189 $187 $191 $268 reversed $121 $-1 #
edge $-1 $202 -8.4511399706232275 $270 8.4511399706232275 $201 $311 forward 7 unknown #
vertex $-1 $268 $312 #
straight-curve $-1 -41.124301889095733 -27.827649270179606 0 0 0 -1 I I #
edge $-1 $266 -27.827649270179606 $270 27.827649270179606 $264 $313 forward 7 unknown #
straight-curve $-1 0 -27.827649270179606 -8.4511399706232275 -1 0 0 I I #
vertex $-1 $194 $314 #
straight-curve $-1 0 27.827649270179606 -8.4511399706232275 1 0 0 I I #
point $-1 41.124301889095733 27.827649270179606 -8.4511399706232275 #
point $-1 41.124301889095733 -27.827649270179606 -8.4511399706232275 #
straight-curve $-1 -41.124301889095733 0 8.4511399706232275 0 -1 0 I I #
point $-1 -41.124301889095733 27.827649270179606 8.4511399706232275 #
point $-1 -41.124301889095733 -27.827649270179606 8.4511399706232275 #
straight-curve $-1 41.124301889095733 -27.827649270179606 0 0 0 -1 I I #
straight-curve $-1 41.124301889095733 27.827649270179606 0 0 0 -1 I I #
plane-surface $-1 0 -27.827649270179606 0 0 1 0 0 0 1 forward_v I I I I #
coedge $-1 $315 $214 $226 $291 reversed $140 $-1 #
coedge $-1 $214 $315 $229 $293 reversed $140 $-1 #
edge $-1 $316 -41.124301889095733 $223 -31.516479999192331 $219 $317 forward 7 unknown #
straight-curve $-1 -31.516479999192331 -13.056137223507754 8.4511399706232275 0 1 0 I I #
coedge $-1 $226 $217 $220 $287 forward $212 $-1 #
straight-curve $-1 -31.516479999192331 -13.056137223507754 -8.4511399706232275 0 -1 0 I I #
coedge $-1 $220 $219 $315 $318 forward $221 $-1 #
edge $-1 $222 31.516479999192331 $319 41.124301889095733 $220 $320 forward 7 unknown #
point $-1 -31.516479999192331 -27.827649270179606 -8.4511399706232275 #
point $-1 -31.516479999192331 -27.827649270179606 8.4511399706232275 #
straight-curve $-1 -41.124301889095733 -24.396899623851411 0 0 0 -1 I I #
edge $-1 $319 -27.827649270179606 $227 -24.396899623851411 $280 $321 forward 7 unknown #
point $-1 -41.124301889095733 -24.396899623851411 -8.4511399706232275 #
edge $-1 $230 24.396899623851411 $316 27.827649270179606 $281 $322 forward 7 unknown #
point $-1 -41.124301889095733 -24.396899623851411 8.4511399706232275 #
coedge $-1 $236 $235 $243 $300 forward $92 $-1 #
edge $-1 $303 -27.827649270179606 $239 -21.653328190246576 $238 $323 forward 7 unknown #
straight-curve $-1 10.463026023970901 -21.653328190246576 8.4511399706232311 -1 0 0 I I #
point $-1 41.124301889095733 -21.653328190246576 8.4511399706232275 #
straight-curve $-1 30.858351269809248 -12.370244365106545 8.4511399706232275 0 -1 0 I I #
edge $-1 $244 30.858351269809248 $303 41.124301889095733 $243 $324 forward 7 unknown #
point $-1 30.858351269809248 -27.827649270179606 8.4511399706232311 #
point $-1 30.858351269809248 -21.653328190246576 8.4511399706232311 #
vertex $-1 $296 $325 #
straight-curve $-1 41.124301889095733 -27.827649270179606 0 0 0 -1 I I #
vertex $-1 $251 $326 #
point $-1 35.622538145487468 -26.592785054193001 3.8944457462861837 #
vertex $-1 $255 $327 #
point $-1 35.622538145487468 -24.740488730213091 3.8944457462861837 #
vertex $-1 $259 $328 #
point $-1 35.622538145487468 -22.888192406233181 3.8944457462861837 #
straight-curve $-1 -41.124301889095733 27.827649270179606 0 0 0 -1 I I #
point $-1 -41.124301889095733 -27.827649270179606 -8.4511399706232275 #
straight-curve $-1 -41.124301889095733 0 -8.4511399706232275 0 1 0 I I #
point $-1 -41.124301889095733 27.827649270179606 -8.4511399706232275 #
coedge $-1 $281 $280 $286 $318 reversed $140 $-1 #
vertex $-1 $293 $329 #
straight-curve $-1 0 -27.827649270179606 8.4511399706232275 1 0 0 I I #
edge $-1 $316 -8.4511399706232275 $319 8.4511399706232275 $315 $330 forward 7 unknown #
vertex $-1 $291 $331 #
straight-curve $-1 0 -27.827649270179606 -8.4511399706232275 -1 0 0 I I #
straight-curve $-1 -41.124301889095733 0 -8.4511399706232275 0 1 0 I I #
straight-curve $-1 -41.124301889095733 0 8.4511399706232275 0 -1 0 I I #
straight-curve $-1 41.124301889095733 0 8.4511399706232275 0 1 0 I I #
straight-curve $-1 0 -27.827649270179606 8.4511399706232275 1 0 0 I I #
point $-1 41.124301889095733 -27.827649270179606 8.4511399706232275 #
point $-1 35.274356024773425 -26.592785054193001 3.8330518474437647 #
point $-1 35.274356024773425 -24.740488730213091 3.8330518474437647 #
point $-1 35.274356024773425 -22.888192406233181 3.8330518474437647 #
point $-1 -41.124301889095733 -27.827649270179606 8.4511399706232275 #
straight-curve $-1 -41.124301889095733 -27.827649270179606 0 0 0 -1 I I #
point $-1 -41.124301889095733 -27.827649270179606 -8.4511399706232275 #
End-of-ACIS-data 