500 0 5 0           
7 Unknown 11 ACIS 5.0 NT 24 Thu Mar 25 20:19:08 1999 
-1 9.9999999999999995e-007 1e-010 
body $-1 $5 $-1 $6 #
body $-1 $7 $-1 $8 #
body $-1 $9 $-1 $10 #
body $-1 $11 $-1 $12 #
body $-1 $13 $-1 $14 #
lump $-1 $-1 $15 $0 #
transform $-1 1 0 0 0 1 0 0 0 1 75.632190923795278 50.615194002854615 22.981741793135484 1 rotate no_reflect no_shear #
lump $-1 $-1 $16 $1 #
transform $-1 1 0 0 0 1 0 0 0 1 75.632190923795278 50.615194002854615 22.981741793135484 1 rotate no_reflect no_shear #
lump $-1 $-1 $17 $2 #
transform $-1 1 0 0 0 1 0 0 0 1 75.632190923795278 50.615194002854615 22.981741793135484 1 rotate no_reflect no_shear #
lump $-1 $-1 $18 $3 #
transform $-1 1 0 0 0 1 0 0 0 1 75.632190923795278 50.615194002854615 22.981741793135484 1 rotate no_reflect no_shear #
lump $-1 $-1 $19 $4 #
transform $-1 1 0 0 0 1 0 0 0 1 75.632190923795278 50.615194002854615 22.981741793135484 1 rotate no_reflect no_shear #
shell $-1 $-1 $-1 $20 $-1 $5 #
shell $-1 $-1 $-1 $21 $-1 $7 #
shell $-1 $-1 $-1 $22 $-1 $9 #
shell $-1 $-1 $-1 $23 $-1 $11 #
shell $-1 $-1 $-1 $24 $-1 $13 #
face $-1 $25 $26 $15 $-1 $27 forward single #
face $-1 $28 $29 $16 $-1 $30 reversed single #
face $-1 $31 $32 $17 $-1 $33 reversed single #
face $-1 $34 $35 $18 $-1 $36 reversed single #
face $-1 $37 $38 $19 $-1 $39 forward single #
face $-1 $40 $41 $15 $-1 $42 reversed single #
loop $-1 $-1 $43 $20 #
plane-surface $-1 0 0 22.981741793135484 0 0 1 1 0 0 forward_v I I I I #
face $-1 $44 $45 $16 $-1 $46 reversed single #
loop $-1 $-1 $47 $21 #
plane-surface $-1 -59.71162152365082 -35.880984730054799 0 1 0 0 0 0 -1 forward_v I I I I #
face $-1 $48 $49 $17 $-1 $50 reversed single #
loop $-1 $-1 $51 $22 #
plane-surface $-1 -56.45720152504466 21.146775457254982 0 0 1 0 0 0 1 forward_v I I I I #
face $-1 $52 $53 $18 $-1 $54 reversed single #
loop $-1 $-1 $55 $23 #
plane-surface $-1 -151.26438286087074 11.052333201219305 141.04119687580729 0 1 0 -0.50000000669873634 0 0.8660253999169214 forward_v I I I I #
face $-1 $56 $57 $19 $-1 $58 forward single #
loop $-1 $59 $60 $24 #
cone-surface $-1 -63.240786542566852 16.099554329237144 14.458541217763837 0.50000000669873634 0 -0.8660253999169214 2.1650634997923035 0 1.2500000167468408 1 I I 0 1 2.5 forward I I I I #
face $-1 $61 $62 $15 $-1 $63 reversed single #
loop $-1 $-1 $64 $25 #
plane-surface $-1 0 0 -22.981741793135484 0 0 1 1 0 0 forward_v I I I I #
coedge $-1 $65 $66 $67 $68 forward $26 $-1 #
face $-1 $69 $70 $16 $-1 $71 reversed single #
loop $-1 $-1 $72 $28 #
plane-surface $-1 -56.45720152504466 -21.146775457254982 0 0 -1 0 0 0 -1 forward_v I I I I #
coedge $-1 $73 $74 $75 $76 forward $29 $-1 #
face $-1 $77 $78 $17 $-1 $79 reversed single #
loop $-1 $-1 $80 $31 #
plane-surface $-1 -59.71162152365082 35.880984730054799 0 1 0 0 0 0 -1 forward_v I I I I #
coedge $-1 $81 $82 $83 $84 forward $32 $-1 #
face $-1 $85 $86 $18 $-1 $87 reversed single #
loop $-1 $-1 $88 $34 #
plane-surface $-1 -75.63219092379525 16.099554329237144 10.042400093061758 -0.50000000669873634 0 0.8660253999169214 0.8660253999169214 0 0.50000000669873634 forward_v I I I I #
coedge $-1 $89 $90 $91 $92 reversed $35 $-1 #
face $-1 $-1 $93 $19 $-1 $94 forward single #
loop $-1 $95 $96 $37 #
cone-surface $-1 -61.430180573303659 16.099554329237144 11.322479742532899 0.50000000669873634 0 -0.8660253999169214 1.0825317498961518 0 0.6250000083734204 1 I I -0.70710678118654746 0.70710678118654746 1.25 forward I I I I #
loop $-1 $-1 $97 $24 #
coedge $-1 $60 $60 $98 $99 reversed $38 $-1 #
face $-1 $100 $101 $15 $-1 $102 reversed single #
loop $-1 $-1 $103 $40 #
plane-surface $-1 0 -50.615194002854615 0 0 1 0 0 0 1 forward_v I I I I #
coedge $-1 $104 $105 $106 $107 forward $41 $-1 #
coedge $-1 $108 $43 $109 $110 forward $26 $-1 #
coedge $-1 $43 $108 $111 $112 forward $26 $-1 #
coedge $-1 $113 $114 $43 $68 reversed $115 $-1 #
edge $-1 $116 -50.615194002854615 $117 50.615194002854615 $67 $118 forward 7 unknown #
face $-1 $119 $120 $16 $-1 $121 forward single #
loop $-1 $-1 $122 $44 #
plane-surface $-1 -53.2027815264385 -35.880984730054799 0 -1 0 0 0 0 1 forward_v I I I I #
coedge $-1 $123 $124 $125 $126 forward $45 $-1 #
coedge $-1 $127 $47 $128 $129 reversed $29 $-1 #
coedge $-1 $47 $127 $130 $131 reversed $29 $-1 #
coedge $-1 $124 $123 $47 $76 reversed $45 $-1 #
edge $-1 $132 -22.981741793135484 $133 22.981741793135484 $75 $134 forward 7 unknown #
face $-1 $135 $136 $17 $-1 $137 reversed single #
loop $-1 $-1 $138 $48 #
plane-surface $-1 -53.2027815264385 35.880984730054799 0 -1 0 0 0 0 1 forward_v I I I I #
coedge $-1 $139 $140 $141 $142 reversed $49 $-1 #
coedge $-1 $143 $51 $144 $145 reversed $32 $-1 #
coedge $-1 $51 $143 $146 $147 reversed $32 $-1 #
coedge $-1 $140 $139 $51 $84 reversed $49 $-1 #
edge $-1 $148 -22.981741793135484 $149 22.981741793135484 $83 $150 forward 7 unknown #
face $-1 $151 $152 $18 $-1 $153 forward single #
loop $-1 $-1 $154 $52 #
plane-surface $-1 -75.632190923795278 0 0 1 0 0 0 0 -1 forward_v I I I I #
coedge $-1 $155 $156 $157 $158 reversed $53 $-1 #
coedge $-1 $90 $55 $159 $160 reversed $35 $-1 #
coedge $-1 $55 $89 $155 $161 reversed $35 $-1 #
coedge $-1 $157 $162 $55 $92 forward $152 $-1 #
edge $-1 $163 5.0664009165757307e-007 $164 22.411597347317453 $91 $165 forward 7 unknown #
loop $-1 $-1 $98 $56 #
plane-surface $-1 -75.63219092379525 16.099554329237144 10.042400093061758 -0.50000000669873634 0 0.8660253999169214 0.8660253999169214 0 0.50000000669873634 forward_v I I I I #
loop $-1 $-1 $166 $37 #
coedge $-1 $96 $96 $97 $167 reversed $57 $-1 #
coedge $-1 $97 $97 $96 $167 forward $59 $-1 #
coedge $-1 $98 $98 $60 $99 forward $93 $-1 #
edge $-1 $168 0 $168 6.2831853071796004 $98 $169 forward 7 unknown #
face $-1 $170 $171 $15 $-1 $172 reversed single #
loop $-1 $-1 $173 $61 #
plane-surface $-1 -75.632190923795278 0 0 1 0 0 0 0 -1 forward_v I I I I #
coedge $-1 $174 $111 $175 $176 forward $62 $-1 #
coedge $-1 $177 $64 $174 $178 forward $41 $-1 #
coedge $-1 $64 $177 $179 $180 forward $41 $-1 #
coedge $-1 $114 $113 $64 $107 reversed $115 $-1 #
edge $-1 $181 -50.615194002854615 $182 50.615194002854615 $106 $183 forward 7 unknown #
coedge $-1 $66 $65 $184 $185 forward $26 $-1 #
coedge $-1 $186 $187 $65 $110 reversed $171 $-1 #
edge $-1 $117 -75.632190923795278 $188 75.632190923795278 $109 $189 forward 7 unknown #
coedge $-1 $103 $190 $66 $112 reversed $62 $-1 #
edge $-1 $191 -75.632190923795278 $116 75.632190923795278 $111 $192 forward 7 unknown #
coedge $-1 $106 $67 $190 $193 forward $115 $-1 #
coedge $-1 $67 $106 $186 $194 reversed $115 $-1 #
loop $-1 $-1 $113 $170 #
vertex $-1 $68 $195 #
vertex $-1 $68 $196 #
straight-curve $-1 75.632190923795278 0 22.981741793135484 0 1 0 I I #
face $-1 $197 $198 $16 $-1 $199 reversed single #
loop $-1 $-1 $200 $69 #
plane-surface $-1 0 0 22.981741793135484 0 0 1 1 0 0 forward_v I I I I #
coedge $-1 $201 $202 $203 $204 reversed $70 $-1 #
coedge $-1 $75 $72 $205 $206 reversed $45 $-1 #
coedge $-1 $72 $75 $207 $208 reversed $45 $-1 #
coedge $-1 $202 $201 $72 $126 reversed $70 $-1 #
edge $-1 $209 -22.981741793135484 $210 22.981741793135484 $125 $211 forward 7 unknown #
coedge $-1 $74 $73 $212 $213 reversed $29 $-1 #
coedge $-1 $205 $214 $73 $129 forward $198 $-1 #
edge $-1 $215 -32.674701637827212 $133 -3.2062830922275829 $128 $216 forward 7 unknown #
coedge $-1 $217 $207 $74 $131 forward $120 $-1 #
edge $-1 $132 3.2062830922275829 $218 32.674701637827212 $130 $219 forward 7 unknown #
vertex $-1 $131 $220 #
vertex $-1 $129 $221 #
straight-curve $-1 -59.71162152365082 -21.146775457254982 0 0 0 -1 I I #
face $-1 $222 $223 $17 $-1 $224 forward single #
loop $-1 $-1 $225 $77 #
plane-surface $-1 0 0 -22.981741793135484 0 0 1 1 0 0 forward_v I I I I #
coedge $-1 $226 $227 $143 $228 forward $78 $-1 #
coedge $-1 $83 $80 $229 $230 reversed $49 $-1 #
coedge $-1 $80 $83 $231 $232 reversed $49 $-1 #
coedge $-1 $233 $234 $80 $142 forward $235 $-1 #
edge $-1 $236 -22.981741793135484 $237 22.981741793135484 $141 $238 forward 7 unknown #
coedge $-1 $82 $81 $138 $228 reversed $32 $-1 #
coedge $-1 $229 $225 $81 $145 forward $136 $-1 #
edge $-1 $239 24.97418076391617 $149 31.48302076112849 $144 $240 forward 7 unknown #
coedge $-1 $241 $231 $82 $147 forward $223 $-1 #
edge $-1 $148 -31.48302076112849 $242 -24.97418076391617 $146 $243 forward 7 unknown #
vertex $-1 $147 $244 #
vertex $-1 $145 $245 #
straight-curve $-1 -59.71162152365082 21.146775457254982 0 0 0 -1 I I #
face $-1 $-1 $246 $18 $-1 $247 forward single #
loop $-1 $-1 $248 $85 #
plane-surface $-1 0 0 22.981741793135484 0 0 1 1 0 0 forward_v I I I I #
coedge $-1 $249 $250 $251 $252 forward $86 $-1 #
coedge $-1 $253 $88 $90 $161 forward $53 $-1 #
coedge $-1 $88 $253 $254 $255 reversed $53 $-1 #
coedge $-1 $248 $91 $88 $158 forward $152 $-1 #
edge $-1 $164 3.0025560366007333 $256 13.09699829263641 $157 $257 forward 7 unknown #
coedge $-1 $250 $249 $89 $160 forward $86 $-1 #
edge $-1 $258 -60.4781983448419 $163 -47.53885664476816 $159 $259 forward 7 unknown #
edge $-1 $164 -25.878683053438504 $258 3.260752816018341e-014 $90 $260 forward 7 unknown #
coedge $-1 $91 $248 $250 $261 forward $152 $-1 #
vertex $-1 $160 $262 #
vertex $-1 $92 $263 #
straight-curve $-1 -75.63219143043537 11.052333201219305 22.981741793135484 1 0 0 I I #
coedge $-1 $166 $166 $-1 $264 reversed $95 $-1 #
edge $-1 $265 0 $265 6.2831853071796004 $96 $266 forward 7 unknown #
vertex $-1 $99 $267 #
ellipse-curve $-1 -64.426392503456611 16.099554329237144 16.512070943098607 -0.50000000669873634 0 0.8660253999169214 2.1650634997923035 0 1.2500000167468408 1 I I #
face $-1 $-1 $115 $15 $-1 $268 reversed single #
loop $-1 $-1 $186 $100 #
plane-surface $-1 0 50.615194002854615 0 0 -1 0 0 0 -1 forward_v I I I I #
coedge $-1 $269 $184 $187 $270 forward $101 $-1 #
coedge $-1 $190 $103 $104 $178 reversed $62 $-1 #
coedge $-1 $184 $269 $103 $176 reversed $101 $-1 #
edge $-1 $191 -22.981741793135484 $271 22.981741793135484 $175 $272 forward 7 unknown #
coedge $-1 $105 $104 $269 $273 forward $41 $-1 #
edge $-1 $182 -75.632190923795278 $271 75.632190923795278 $174 $274 forward 7 unknown #
coedge $-1 $187 $186 $105 $180 reversed $171 $-1 #
edge $-1 $275 -75.632190923795278 $181 75.632190923795278 $179 $276 forward 7 unknown #
vertex $-1 $107 $277 #
vertex $-1 $193 $278 #
straight-curve $-1 75.632190923795278 0 -22.981741793135484 0 -1 0 I I #
coedge $-1 $173 $175 $108 $185 reversed $101 $-1 #
edge $-1 $188 -50.615194002854615 $191 50.615194002854615 $184 $279 forward 7 unknown #
coedge $-1 $179 $109 $114 $194 forward $171 $-1 #
coedge $-1 $109 $179 $173 $270 reversed $171 $-1 #
vertex $-1 $110 $280 #
straight-curve $-1 0 50.615194002854615 22.981741793135484 -1 0 0 I I #
coedge $-1 $111 $174 $113 $193 reversed $62 $-1 #
vertex $-1 $185 $281 #
straight-curve $-1 0 -50.615194002854615 22.981741793135484 1 0 0 I I #
edge $-1 $116 -22.981741793135484 $182 22.981741793135484 $113 $282 forward 7 unknown #
edge $-1 $117 -22.981741793135484 $181 22.981741793135484 $114 $283 forward 7 unknown #
point $-1 75.632190923795278 -50.615194002854615 22.981741793135484 #
point $-1 75.632190923795278 50.615194002854615 22.981741793135484 #
face $-1 $-1 $284 $16 $-1 $285 reversed single #
loop $-1 $-1 $286 $119 #
plane-surface $-1 0 0 -22.981741793135484 0 0 1 1 0 0 forward_v I I I I #
coedge $-1 $207 $217 $202 $287 forward $120 $-1 #
coedge $-1 $125 $122 $286 $288 reversed $70 $-1 #
coedge $-1 $122 $125 $200 $287 reversed $70 $-1 #
coedge $-1 $289 $290 $122 $204 forward $284 $-1 #
edge $-1 $291 -22.981741793135484 $292 22.981741793135484 $203 $293 forward 7 unknown #
coedge $-1 $286 $128 $123 $206 forward $198 $-1 #
edge $-1 $133 -31.48302076112849 $210 -24.97418076391617 $205 $294 forward 7 unknown #
coedge $-1 $130 $200 $124 $208 forward $120 $-1 #
edge $-1 $209 24.97418076391617 $132 31.48302076112849 $207 $295 forward 7 unknown #
vertex $-1 $208 $296 #
vertex $-1 $206 $297 #
straight-curve $-1 -53.2027815264385 -21.146775457254982 0 0 0 -1 I I #
coedge $-1 $290 $289 $127 $213 forward $284 $-1 #
edge $-1 $218 -22.981741793135484 $215 22.981741793135484 $212 $298 forward 7 unknown #
coedge $-1 $128 $286 $290 $299 forward $198 $-1 #
vertex $-1 $129 $300 #
straight-curve $-1 -59.71162152365082 -17.940492365027399 -22.981741793135484 0 1 0 I I #
coedge $-1 $200 $130 $289 $301 forward $120 $-1 #
vertex $-1 $301 $302 #
straight-curve $-1 -59.71162152365082 -17.940492365027399 22.981741793135484 0 -1 0 I I #
point $-1 -59.71162152365082 -21.146775457254982 22.981741793135484 #
point $-1 -59.71162152365082 -21.146775457254982 -22.981741793135484 #
face $-1 $-1 $235 $17 $-1 $303 reversed single #
loop $-1 $-1 $241 $135 #
plane-surface $-1 0 0 22.981741793135484 0 0 1 1 0 0 forward_v I I I I #
coedge $-1 $144 $304 $226 $305 forward $136 $-1 #
coedge $-1 $306 $138 $225 $305 reversed $78 $-1 #
coedge $-1 $138 $306 $241 $307 reversed $78 $-1 #
edge $-1 $242 -22.981741793135484 $239 22.981741793135484 $138 $308 forward 7 unknown #
coedge $-1 $304 $144 $139 $230 forward $136 $-1 #
edge $-1 $149 3.2062830922275829 $236 32.674701637827212 $229 $309 forward 7 unknown #
coedge $-1 $146 $310 $140 $232 forward $223 $-1 #
edge $-1 $237 -32.674701637827212 $148 -3.2062830922275829 $231 $311 forward 7 unknown #
coedge $-1 $312 $141 $310 $313 reversed $235 $-1 #
coedge $-1 $141 $312 $304 $314 reversed $235 $-1 #
loop $-1 $-1 $312 $222 #
vertex $-1 $314 $315 #
vertex $-1 $142 $316 #
straight-curve $-1 -59.71162152365082 50.615194002854615 0 0 0 1 I I #
vertex $-1 $145 $317 #
straight-curve $-1 -28.22860076252233 21.146775457254982 -22.981741793135484 -1 0 0 I I #
coedge $-1 $310 $146 $227 $307 forward $223 $-1 #
vertex $-1 $147 $318 #
straight-curve $-1 -28.22860076252233 21.146775457254982 22.981741793135484 1 0 0 I I #
point $-1 -59.71162152365082 21.146775457254982 22.981741793135484 #
point $-1 -59.71162152365082 21.146775457254982 -22.981741793135484 #
loop $-1 $-1 $254 $151 #
plane-surface $-1 -56.45720152504466 21.146775457254982 0 0 1 0 0 0 1 forward_v I I I I #
coedge $-1 $162 $157 $319 $320 forward $152 $-1 #
coedge $-1 $159 $154 $253 $321 forward $86 $-1 #
coedge $-1 $154 $159 $162 $261 reversed $86 $-1 #
coedge $-1 $319 $254 $154 $252 reversed $246 $-1 #
edge $-1 $322 47.53885664476816 $323 60.4781983448419 $154 $324 forward 7 unknown #
coedge $-1 $156 $155 $249 $321 reversed $53 $-1 #
coedge $-1 $251 $319 $156 $255 forward $246 $-1 #
edge $-1 $256 -20.086269179111778 $323 5.7924138743267557 $254 $325 forward 7 unknown #
vertex $-1 $320 $326 #
straight-curve $-1 -53.220594083117909 8.0497771646185718 22.981741793135484 0 1 0 I I #
vertex $-1 $160 $327 #
straight-curve $-1 -75.632190923795278 11.052333201219305 70.520598437903644 0 0 1 I I #
straight-curve $-1 -75.63219092379525 11.052333201219305 10.042400093061758 -0.8660253999169214 0 -0.50000000669873634 I I #
edge $-1 $322 -21.146775457254982 $163 -11.052333201219305 $250 $328 forward 7 unknown #
point $-1 -75.632190923795278 11.052333201219305 22.981741793135484 #
point $-1 -53.220594083117916 11.052333201219305 22.981741793135484 #
edge $-1 $329 1 $329 0 $166 $-1 forward 7 unknown #
vertex $-1 $167 $330 #
ellipse-curve $-1 -62.055180581677078 16.099554329237144 12.40501149242905 -0.50000000669873634 0 0.8660253999169214 2.1650634997923035 0 1.2500000167468408 1 I I #
point $-1 -62.261329003664315 16.099554329237144 17.762070959845467 #
plane-surface $-1 75.632190923795278 0 0 -1 0 0 0 0 1 forward_v I I I I #
coedge $-1 $175 $173 $177 $273 reversed $101 $-1 #
edge $-1 $188 -22.981741793135484 $275 22.981741793135484 $187 $331 forward 7 unknown #
vertex $-1 $273 $332 #
straight-curve $-1 -75.632190923795278 -50.615194002854615 0 0 0 -1 I I #
edge $-1 $271 -50.615194002854615 $275 50.615194002854615 $269 $333 forward 7 unknown #
straight-curve $-1 0 -50.615194002854615 -22.981741793135484 -1 0 0 I I #
vertex $-1 $180 $334 #
straight-curve $-1 0 50.615194002854615 -22.981741793135484 1 0 0 I I #
point $-1 75.632190923795278 50.615194002854615 -22.981741793135484 #
point $-1 75.632190923795278 -50.615194002854615 -22.981741793135484 #
straight-curve $-1 -75.632190923795278 0 22.981741793135484 0 -1 0 I I #
point $-1 -75.632190923795278 50.615194002854615 22.981741793135484 #
point $-1 -75.632190923795278 -50.615194002854615 22.981741793135484 #
straight-curve $-1 75.632190923795278 -50.615194002854615 0 0 0 -1 I I #
straight-curve $-1 75.632190923795278 50.615194002854615 0 0 0 -1 I I #
loop $-1 $-1 $203 $197 #
plane-surface $-1 0 -50.615194002854615 0 0 1 0 0 0 1 forward_v I I I I #
coedge $-1 $214 $205 $201 $288 forward $198 $-1 #
edge $-1 $292 -32.674701637827212 $209 -3.2062830922275829 $200 $335 forward 7 unknown #
edge $-1 $210 3.2062830922275829 $291 32.674701637827212 $286 $336 forward 7 unknown #
coedge $-1 $212 $203 $217 $301 reversed $284 $-1 #
coedge $-1 $203 $212 $214 $299 reversed $284 $-1 #
vertex $-1 $299 $337 #
vertex $-1 $204 $338 #
straight-curve $-1 -53.2027815264385 -50.615194002854615 0 0 0 1 I I #
straight-curve $-1 -28.22860076252233 -21.146775457254982 -22.981741793135484 1 0 0 I I #
straight-curve $-1 -28.22860076252233 -21.146775457254982 22.981741793135484 -1 0 0 I I #
point $-1 -53.2027815264385 -21.146775457254982 22.981741793135484 #
point $-1 -53.2027815264385 -21.146775457254982 -22.981741793135484 #
straight-curve $-1 -59.71162152365082 -50.615194002854615 0 0 0 -1 I I #
edge $-1 $291 53.2027815264385 $215 59.71162152365082 $290 $339 forward 7 unknown #
point $-1 -59.71162152365082 -50.615194002854615 -22.981741793135484 #
edge $-1 $218 -59.71162152365082 $292 -53.2027815264385 $289 $340 forward 7 unknown #
point $-1 -59.71162152365082 -50.615194002854615 22.981741793135484 #
plane-surface $-1 0 50.615194002854615 0 0 -1 0 0 0 -1 forward_v I I I I #
coedge $-1 $225 $229 $234 $314 forward $136 $-1 #
edge $-1 $341 -32.674701637827212 $239 -3.2062830922275829 $225 $342 forward 7 unknown #
coedge $-1 $227 $226 $312 $343 reversed $78 $-1 #
edge $-1 $242 3.2062830922275829 $344 32.674701637827212 $241 $345 forward 7 unknown #
straight-curve $-1 -53.2027815264385 21.146775457254982 0 0 0 -1 I I #
straight-curve $-1 -59.71162152365082 17.940492365027399 -22.981741793135484 0 1 0 I I #
coedge $-1 $231 $241 $233 $313 forward $223 $-1 #
straight-curve $-1 -59.71162152365082 17.940492365027399 22.981741793135484 0 -1 0 I I #
coedge $-1 $234 $233 $306 $343 forward $235 $-1 #
edge $-1 $344 53.2027815264385 $237 59.71162152365082 $233 $346 forward 7 unknown #
edge $-1 $236 -59.71162152365082 $341 -53.2027815264385 $234 $347 forward 7 unknown #
point $-1 -59.71162152365082 50.615194002854615 -22.981741793135484 #
point $-1 -59.71162152365082 50.615194002854615 22.981741793135484 #
point $-1 -53.2027815264385 21.146775457254982 -22.981741793135484 #
point $-1 -53.2027815264385 21.146775457254982 22.981741793135484 #
coedge $-1 $254 $251 $248 $320 reversed $246 $-1 #
edge $-1 $256 24.991993320595586 $322 47.403590161272945 $248 $348 forward 7 unknown #
edge $-1 $323 -13.09699829263641 $258 -3.0025560366007333 $249 $349 forward 7 unknown #
vertex $-1 $261 $350 #
vertex $-1 $321 $351 #
straight-curve $-1 -75.632190923795278 21.146775457254982 70.520598437903644 0 0 -1 I I #
straight-curve $-1 -70.615813381797125 21.146775457254982 12.938607069026972 -0.8660253999169214 0 -0.50000000669873634 I I #
point $-1 -53.220594083117916 21.146775457254982 22.981741793135484 #
point $-1 -75.632190923795278 11.052333201219305 10.042400093061742 #
straight-curve $-1 -75.632190923795278 0 22.981741793135484 0 -1 0 I I #
vertex $-1 $264 $352 #
point $-1 -59.890117081884775 16.099554329237144 13.655011509175891 #
straight-curve $-1 -75.632190923795278 50.615194002854615 0 0 0 -1 I I #
point $-1 -75.632190923795278 -50.615194002854615 -22.981741793135484 #
straight-curve $-1 -75.632190923795278 0 -22.981741793135484 0 1 0 I I #
point $-1 -75.632190923795278 50.615194002854615 -22.981741793135484 #
straight-curve $-1 -53.2027815264385 -17.940492365027399 22.981741793135484 0 1 0 I I #
straight-curve $-1 -53.2027815264385 -17.940492365027399 -22.981741793135484 0 -1 0 I I #
point $-1 -53.2027815264385 -50.615194002854615 -22.981741793135484 #
point $-1 -53.2027815264385 -50.615194002854615 22.981741793135484 #
straight-curve $-1 0 -50.615194002854615 -22.981741793135484 -1 0 0 I I #
straight-curve $-1 0 -50.615194002854615 22.981741793135484 1 0 0 I I #
vertex $-1 $343 $353 #
straight-curve $-1 -53.2027815264385 17.940492365027399 -22.981741793135484 0 -1 0 I I #
edge $-1 $344 -22.981741793135484 $341 22.981741793135484 $312 $354 forward 7 unknown #
vertex $-1 $313 $355 #
straight-curve $-1 -53.2027815264385 17.940492365027399 22.981741793135484 0 1 0 I I #
straight-curve $-1 0 50.615194002854615 22.981741793135484 -1 0 0 I I #
straight-curve $-1 0 50.615194002854615 -22.981741793135484 1 0 0 I I #
straight-curve $-1 -28.22860076252233 21.146775457254982 22.981741793135484 -1 0 0 I I #
straight-curve $-1 -75.632190923795278 8.0497771646185718 10.042400093061742 0 -1 0 I I #
point $-1 -75.632190923795278 21.146775457254982 22.981741793135484 #
point $-1 -75.632190923795278 21.146775457254982 10.042400093061742 #
point $-1 -60.805180564930239 16.099554329237144 10.239947992636747 #
point $-1 -53.2027815264385 50.615194002854615 -22.981741793135484 #
straight-curve $-1 -53.2027815264385 50.615194002854615 0 0 0 -1 I I #
point $-1 -53.2027815264385 50.615194002854615 22.981741793135484 #
End-of-ACIS-data 