500 0 5 0           
7 Unknown 11 ACIS 5.0 NT 24 Thu Mar 25 21:56:40 1999 
-1 9.9999999999999995e-007 1e-010 
body $-1 $5 $-1 $6 #
body $-1 $7 $-1 $8 #
body $-1 $9 $-1 $10 #
body $-1 $11 $-1 $12 #
body $-1 $13 $-1 $14 #
lump $-1 $-1 $15 $0 #
transform $-1 1 0 0 0 1 0 0 0 1 70.758995330668057 46.737172641427307 13.288008485512892 1 rotate no_reflect no_shear #
lump $-1 $-1 $16 $1 #
transform $-1 1 0 0 0 1 0 0 0 1 70.758995330668057 46.737172641427307 13.288008485512892 1 rotate no_reflect no_shear #
lump $-1 $-1 $17 $2 #
transform $-1 1 0 0 0 1 0 0 0 1 70.758995330668057 46.737172641427307 13.288008485512892 1 rotate no_reflect no_shear #
lump $-1 $-1 $18 $3 #
transform $-1 1 0 0 0 1 0 0 0 1 70.758995330668057 46.737172641427307 13.288008485512892 1 rotate no_reflect no_shear #
lump $-1 $-1 $19 $4 #
transform $-1 1 0 0 0 1 0 0 0 1 70.758995330668057 46.737172641427307 13.288008485512892 1 rotate no_reflect no_shear #
shell $-1 $-1 $-1 $20 $-1 $5 #
shell $-1 $-1 $-1 $21 $-1 $7 #
shell $-1 $-1 $-1 $22 $-1 $9 #
shell $-1 $-1 $-1 $23 $-1 $11 #
shell $-1 $-1 $-1 $24 $-1 $13 #
face $-1 $25 $26 $15 $-1 $27 forward single #
face $-1 $28 $29 $16 $-1 $30 reversed single #
face $-1 $31 $32 $17 $-1 $33 forward single #
face $-1 $34 $35 $18 $-1 $36 reversed single #
face $-1 $37 $38 $19 $-1 $39 reversed single #
face $-1 $40 $41 $15 $-1 $42 reversed single #
loop $-1 $-1 $43 $20 #
plane-surface $-1 0 0 13.288008485512892 0 0 1 1 0 0 forward_v I I I I #
face $-1 $44 $45 $16 $-1 $46 reversed single #
loop $-1 $-1 $47 $21 #
plane-surface $-1 -79.249520568251924 -24.171443945594156 0 0 1 0 0 0 1 forward_v I I I I #
face $-1 $48 $49 $17 $-1 $50 forward single #
loop $-1 $-1 $51 $22 #
plane-surface $-1 20.897182893192038 45.419213708805032 170.33867300653267 1 0 0 0 -0.54463904215088732 -0.83867056331134215 forward_v I I I I #
face $-1 $52 $53 $18 $-1 $54 reversed single #
loop $-1 $55 $56 $23 #
cone-surface $-1 26.940809892534759 35.330697679182563 4.3250741762172389 0 -0.54463904215088732 -0.83867056331134215 3 0 0 1 I I 0 1 3 forward I I I I #
face $-1 $57 $58 $19 $-1 $59 reversed single #
loop $-1 $60 $61 $24 #
cone-surface $-1 36.006250391548832 35.330697679182563 4.3250741762172389 0 -0.54463904215088732 -0.83867056331134215 3 0 0 1 I I 0 1 3 forward I I I I #
face $-1 $62 $63 $15 $-1 $64 reversed single #
loop $-1 $-1 $65 $25 #
plane-surface $-1 0 0 -13.288008485512892 0 0 1 1 0 0 forward_v I I I I #
coedge $-1 $66 $67 $68 $69 forward $26 $-1 #
face $-1 $70 $71 $16 $-1 $72 reversed single #
loop $-1 $-1 $73 $28 #
plane-surface $-1 -87.740045805835791 -22.166299807997838 0 1 0 0 0 0 -1 forward_v I I I I #
coedge $-1 $74 $75 $76 $77 forward $29 $-1 #
face $-1 $78 $79 $17 $-1 $80 forward single #
loop $-1 $-1 $81 $31 #
plane-surface $-1 31.473530142041795 -31.657009172103287 51.651700059900662 0 0.54463904215088732 0.83867056331134215 1 0 0 forward_v I I I I #
coedge $-1 $82 $83 $84 $85 reversed $32 $-1 #
face $-1 $86 $87 $18 $-1 $88 forward single #
loop $-1 $89 $90 $34 #
cone-surface $-1 26.940809892534759 32.766903341691688 0.37717717502829906 0 -0.54463904215088732 -0.83867056331134215 1.5 0 0 1 I I -0.70710678118654757 0.70710678118654757 1.5 forward I I I I #
loop $-1 $-1 $91 $23 #
coedge $-1 $56 $56 $92 $93 reversed $35 $-1 #
face $-1 $94 $95 $19 $-1 $96 reversed single #
loop $-1 $97 $98 $37 #
cone-surface $-1 36.006250391548832 32.766903341691688 0.37717717502829906 0 -0.54463904215088732 -0.83867056331134215 1.5 0 0 1 I I -0.70710678118654757 0.70710678118654757 1.5 forward I I I I #
loop $-1 $-1 $99 $24 #
coedge $-1 $61 $61 $100 $101 reversed $38 $-1 #
face $-1 $102 $103 $15 $-1 $104 reversed single #
loop $-1 $-1 $105 $40 #
plane-surface $-1 0 -46.737172641427307 0 0 1 0 0 0 1 forward_v I I I I #
coedge $-1 $106 $107 $108 $109 forward $41 $-1 #
coedge $-1 $110 $43 $111 $112 forward $26 $-1 #
coedge $-1 $43 $110 $113 $114 forward $26 $-1 #
coedge $-1 $115 $116 $43 $69 reversed $117 $-1 #
edge $-1 $118 -46.737172641427307 $119 46.737172641427307 $68 $120 forward 7 unknown #
face $-1 $121 $122 $16 $-1 $123 reversed single #
loop $-1 $-1 $124 $44 #
plane-surface $-1 -79.249520568251924 -20.16115567040152 0 0 -1 0 0 0 -1 forward_v I I I I #
coedge $-1 $125 $126 $127 $128 forward $45 $-1 #
coedge $-1 $129 $47 $130 $131 reversed $29 $-1 #
coedge $-1 $47 $129 $132 $133 reversed $29 $-1 #
coedge $-1 $126 $125 $47 $77 reversed $45 $-1 #
edge $-1 $134 -13.288008485512892 $135 13.288008485512892 $76 $136 forward 7 unknown #
face $-1 $137 $138 $17 $-1 $139 forward single #
loop $-1 $-1 $140 $48 #
plane-surface $-1 42.049877390891552 45.419213708805032 170.33867300653267 -1 0 0 0 0.54463904215088732 0.83867056331134215 forward_v I I I I #
coedge $-1 $141 $142 $143 $144 reversed $49 $-1 #
coedge $-1 $83 $51 $142 $145 forward $32 $-1 #
coedge $-1 $51 $82 $146 $147 reversed $32 $-1 #
coedge $-1 $148 $143 $51 $85 forward $138 $-1 #
edge $-1 $149 4.7082874110643758 $150 24.027565787024791 $84 $151 forward 7 unknown #
face $-1 $152 $153 $18 $-1 $154 forward single #
loop $-1 $-1 $155 $52 #
plane-surface $-1 20.897182893192038 45.419213708805032 170.33867300653267 1 0 0 0 -0.54463904215088732 -0.83867056331134215 forward_v I I I I #
loop $-1 $-1 $156 $34 #
coedge $-1 $90 $90 $91 $157 forward $53 $-1 #
coedge $-1 $91 $91 $90 $157 reversed $55 $-1 #
coedge $-1 $92 $92 $56 $93 forward $153 $-1 #
edge $-1 $158 -1.766728518607491e-015 $158 6.2831853071795987 $92 $159 forward 7 unknown #
face $-1 $160 $161 $19 $-1 $162 reversed single #
loop $-1 $163 $164 $57 #
cone-surface $-1 26.940809892534759 35.330697679182563 4.3250741762172389 0 -0.54463904215088732 -0.83867056331134215 3 0 0 1 I I 0 1 3 forward I I I I #
loop $-1 $-1 $165 $37 #
coedge $-1 $98 $98 $99 $166 forward $58 $-1 #
coedge $-1 $99 $99 $98 $166 reversed $60 $-1 #
coedge $-1 $100 $100 $61 $101 forward $167 $-1 #
edge $-1 $168 -1.766728518607491e-015 $168 6.2831853071795987 $100 $169 forward 7 unknown #
face $-1 $170 $171 $15 $-1 $172 reversed single #
loop $-1 $-1 $173 $62 #
plane-surface $-1 -70.758995330668057 0 0 1 0 0 0 0 -1 forward_v I I I I #
coedge $-1 $174 $113 $175 $176 forward $63 $-1 #
coedge $-1 $177 $65 $174 $178 forward $41 $-1 #
coedge $-1 $65 $177 $179 $180 forward $41 $-1 #
coedge $-1 $116 $115 $65 $109 reversed $117 $-1 #
edge $-1 $181 -46.737172641427307 $182 46.737172641427307 $108 $183 forward 7 unknown #
coedge $-1 $67 $66 $184 $185 forward $26 $-1 #
coedge $-1 $186 $187 $66 $112 reversed $171 $-1 #
edge $-1 $119 -70.758995330668057 $188 70.758995330668057 $111 $189 forward 7 unknown #
coedge $-1 $105 $190 $67 $114 reversed $63 $-1 #
edge $-1 $191 -70.758995330668057 $118 70.758995330668057 $113 $192 forward 7 unknown #
coedge $-1 $108 $68 $190 $193 forward $117 $-1 #
coedge $-1 $68 $108 $186 $194 reversed $117 $-1 #
loop $-1 $-1 $115 $170 #
vertex $-1 $69 $195 #
vertex $-1 $69 $196 #
straight-curve $-1 70.758995330668057 0 13.288008485512892 0 1 0 I I #
face $-1 $197 $198 $16 $-1 $123 reversed single #
loop $-1 $-1 $199 $70 #
plane-surface $-1 -70.758995330668057 0 0 1 0 0 0 0 -1 forward_v I I I I #
coedge $-1 $200 $201 $199 $202 reversed $71 $-1 #
coedge $-1 $76 $73 $203 $204 reversed $45 $-1 #
coedge $-1 $73 $76 $205 $206 reversed $45 $-1 #
coedge $-1 $201 $200 $73 $128 reversed $71 $-1 #
edge $-1 $207 -13.288008485512892 $208 13.288008485512892 $127 $209 forward 7 unknown #
coedge $-1 $75 $74 $210 $211 reversed $29 $-1 #
coedge $-1 $203 $212 $74 $131 forward $213 $-1 #
edge $-1 $214 -8.4905252375838671 $135 8.4905252375838671 $74 $215 forward 7 unknown #
coedge $-1 $216 $205 $75 $133 forward $217 $-1 #
edge $-1 $134 -8.4905252375838671 $218 8.4905252375838671 $75 $219 forward 7 unknown #
vertex $-1 $206 $220 #
vertex $-1 $204 $221 #
straight-curve $-1 -87.740045805835791 -24.171443945594156 0 0 0 -1 I I #
face $-1 $222 $223 $17 $-1 $224 reversed single #
loop $-1 $-1 $225 $78 #
plane-surface $-1 0 0 13.288008485512892 0 0 1 1 0 0 forward_v I I I I #
coedge $-1 $226 $227 $225 $228 reversed $79 $-1 #
coedge $-1 $229 $81 $227 $230 reversed $49 $-1 #
coedge $-1 $81 $229 $82 $145 reversed $49 $-1 #
coedge $-1 $84 $225 $81 $144 forward $138 $-1 #
edge $-1 $231 -26.313112319870655 $149 -5.1604178221711408 $143 $232 forward 7 unknown #
edge $-1 $149 70.438746775996748 $233 93.474345282854628 $82 $234 forward 7 unknown #
coedge $-1 $235 $236 $83 $147 forward $237 $-1 #
edge $-1 $150 71.881328017753447 $233 84.427414323900933 $146 $238 forward 7 unknown #
coedge $-1 $239 $84 $236 $240 forward $138 $-1 #
vertex $-1 $144 $241 #
vertex $-1 $240 $242 #
straight-curve $-1 20.897182893192038 22.709606854402516 13.28800848551289 0 1 0 I I #
face $-1 $243 $244 $18 $-1 $245 forward single #
loop $-1 $246 $92 $86 #
plane-surface $-1 31.473530142041795 -31.657009172103287 51.651700059900662 0 0.54463904215088732 0.83867056331134215 1 0 0 forward_v I I I I #
coedge $-1 $247 $248 $249 $250 reversed $87 $-1 #
coedge $-1 $156 $156 $-1 $251 forward $89 $-1 #
edge $-1 $252 0 $252 6.2831853071796004 $90 $253 forward 7 unknown #
vertex $-1 $93 $254 #
ellipse-curve $-1 26.940809892534759 37.077533453447096 7.0149653324391421 0 -0.54463904215088732 -0.83867056331134215 3 0 0 1 I I #
face $-1 $255 $256 $19 $-1 $257 forward single #
loop $-1 $258 $259 $94 #
cone-surface $-1 26.940809892534759 32.766903341691688 0.37717717502829906 0 -0.54463904215088732 -0.83867056331134215 1.5 0 0 1 I I -0.70710678118654757 0.70710678118654757 1.5 forward I I I I #
loop $-1 $-1 $260 $57 #
coedge $-1 $164 $164 $261 $262 reversed $95 $-1 #
coedge $-1 $165 $165 $-1 $263 forward $97 $-1 #
edge $-1 $264 0 $264 6.2831853071796004 $98 $265 forward 7 unknown #
loop $-1 $266 $100 $255 #
vertex $-1 $101 $267 #
ellipse-curve $-1 36.006250391548832 37.077533453447096 7.0149653324391421 0 -0.54463904215088732 -0.83867056331134215 3 0 0 1 I I #
face $-1 $-1 $117 $15 $-1 $268 reversed single #
loop $-1 $-1 $186 $102 #
plane-surface $-1 0 46.737172641427307 0 0 -1 0 0 0 -1 forward_v I I I I #
coedge $-1 $269 $184 $187 $270 forward $103 $-1 #
coedge $-1 $190 $105 $106 $178 reversed $63 $-1 #
coedge $-1 $184 $269 $105 $176 reversed $103 $-1 #
edge $-1 $191 -13.288008485512892 $271 13.288008485512892 $175 $272 forward 7 unknown #
coedge $-1 $107 $106 $269 $273 forward $41 $-1 #
edge $-1 $182 -70.758995330668057 $271 70.758995330668057 $174 $274 forward 7 unknown #
coedge $-1 $187 $186 $107 $180 reversed $171 $-1 #
edge $-1 $275 -70.758995330668057 $181 70.758995330668057 $179 $276 forward 7 unknown #
vertex $-1 $109 $277 #
vertex $-1 $193 $278 #
straight-curve $-1 70.758995330668057 0 -13.288008485512892 0 -1 0 I I #
coedge $-1 $173 $175 $110 $185 reversed $103 $-1 #
edge $-1 $188 -46.737172641427307 $191 46.737172641427307 $184 $279 forward 7 unknown #
coedge $-1 $179 $111 $116 $194 forward $171 $-1 #
coedge $-1 $111 $179 $173 $270 reversed $171 $-1 #
vertex $-1 $112 $280 #
straight-curve $-1 0 46.737172641427307 13.288008485512892 -1 0 0 I I #
coedge $-1 $113 $174 $115 $193 reversed $63 $-1 #
vertex $-1 $185 $281 #
straight-curve $-1 0 -46.737172641427307 13.288008485512892 1 0 0 I I #
edge $-1 $118 -13.288008485512892 $182 13.288008485512892 $115 $282 forward 7 unknown #
edge $-1 $119 -13.288008485512892 $181 13.288008485512892 $116 $283 forward 7 unknown #
point $-1 70.758995330668057 -46.737172641427307 13.288008485512892 #
point $-1 70.758995330668057 46.737172641427307 13.288008485512892 #
face $-1 $284 $217 $16 $-1 $285 forward single #
loop $-1 $-1 $210 $121 #
coedge $-1 $286 $287 $124 $202 forward $122 $-1 #
coedge $-1 $127 $124 $288 $289 reversed $71 $-1 #
coedge $-1 $124 $127 $290 $291 reversed $71 $-1 #
edge $-1 $292 -13.288008485512892 $293 13.288008485512892 $199 $294 forward 7 unknown #
coedge $-1 $288 $130 $125 $204 forward $213 $-1 #
edge $-1 $135 -2.0051441375963179 $208 2.0051441375963179 $125 $295 forward 7 unknown #
coedge $-1 $132 $290 $126 $206 forward $217 $-1 #
edge $-1 $207 -2.0051441375963179 $134 2.0051441375963179 $126 $296 forward 7 unknown #
vertex $-1 $291 $297 #
vertex $-1 $289 $298 #
straight-curve $-1 -87.740045805835791 -20.16115567040152 0 0 0 -1 I I #
coedge $-1 $299 $300 $129 $211 forward $198 $-1 #
edge $-1 $218 -13.288008485512892 $214 13.288008485512892 $210 $301 forward 7 unknown #
coedge $-1 $130 $302 $299 $303 forward $213 $-1 #
loop $-1 $-1 $304 $284 #
vertex $-1 $131 $305 #
straight-curve $-1 -79.249520568251924 -24.171443945594156 -13.288008485512892 -1 0 0 I I #
coedge $-1 $306 $132 $300 $307 forward $217 $-1 #
loop $-1 $-1 $308 $197 #
vertex $-1 $307 $309 #
straight-curve $-1 -79.249520568251924 -24.171443945594156 13.288008485512892 1 0 0 I I #
point $-1 -87.740045805835791 -24.171443945594156 13.288008485512892 #
point $-1 -87.740045805835791 -24.171443945594156 -13.288008485512892 #
face $-1 $310 $311 $17 $-1 $312 reversed single #
loop $-1 $-1 $313 $137 #
plane-surface $-1 -79.249520568251924 -24.171443945594156 0 0 1 0 0 0 1 forward_v I I I I #
coedge $-1 $143 $314 $140 $228 forward $138 $-1 #
coedge $-1 $227 $140 $315 $316 reversed $79 $-1 #
coedge $-1 $140 $226 $141 $230 forward $79 $-1 #
edge $-1 $317 -24.027565787024791 $231 -4.7082874110643758 $225 $318 forward 7 unknown #
coedge $-1 $142 $141 $235 $319 reversed $49 $-1 #
edge $-1 $320 -93.474345282854628 $231 -70.438746775996748 $227 $321 forward 7 unknown #
vertex $-1 $144 $322 #
straight-curve $-1 15.736765071020898 27.417894265466906 13.288008485512886 -1 0 0 I I #
vertex $-1 $319 $323 #
straight-curve $-1 20.897182893192038 -31.657009172103287 51.651700059900662 0 0.83867056331134215 -0.54463904215088732 I I #
coedge $-1 $315 $146 $229 $319 forward $237 $-1 #
coedge $-1 $146 $324 $148 $240 reversed $237 $-1 #
loop $-1 $-1 $315 $325 #
straight-curve $-1 20.897182893192038 46.737172641427307 85.169336503266337 0 0 -1 I I #
coedge $-1 $326 $148 $327 $328 forward $138 $-1 #
edge $-1 $150 -20.897182893192038 $329 70.758995330668057 $236 $330 forward 7 unknown #
point $-1 20.897182893192038 27.417894265466892 13.28800848551289 #
point $-1 20.897182893192038 46.737172641427307 13.288008485512892 #
face $-1 $331 $332 $18 $-1 $333 forward single #
loop $-1 $-1 $334 $152 #
plane-surface $-1 42.049877390891552 45.419213708805032 170.33867300653267 -1 0 0 0 0.54463904215088732 0.83867056331134215 forward_v I I I I #
loop $-1 $-1 $335 $86 #
coedge $-1 $248 $155 $336 $337 forward $87 $-1 #
coedge $-1 $155 $247 $338 $339 reversed $87 $-1 #
coedge $-1 $340 $341 $155 $250 forward $332 $-1 #
edge $-1 $342 4.7082874110643758 $343 24.027565787024791 $249 $344 forward 7 unknown #
edge $-1 $345 1 $345 0 $156 $-1 forward 7 unknown #
vertex $-1 $157 $346 #
ellipse-curve $-1 26.940809892534759 33.583861904918017 1.6351830199953123 0 0.54463904215088732 0.83867056331134215 3 0 0 1 I I #
point $-1 29.940809892534759 37.077533453447117 7.0149653324391652 #
face $-1 $347 $167 $19 $-1 $348 forward single #
loop $-1 $-1 $349 $160 #
plane-surface $-1 20.897182893192038 45.419213708805032 170.33867300653267 1 0 0 0 -0.54463904215088732 -0.83867056331134215 forward_v I I I I #
loop $-1 $-1 $350 $94 #
coedge $-1 $259 $259 $260 $351 forward $161 $-1 #
coedge $-1 $260 $260 $259 $351 reversed $163 $-1 #
coedge $-1 $261 $261 $164 $262 forward $266 $-1 #
edge $-1 $352 -1.766728518607491e-015 $352 6.2831853071795987 $261 $353 forward 7 unknown #
edge $-1 $354 1 $354 0 $165 $-1 forward 7 unknown #
vertex $-1 $166 $355 #
ellipse-curve $-1 36.006250391548832 33.583861904918017 1.6351830199953123 0 0.54463904215088732 0.83867056331134215 3 0 0 1 I I #
loop $-1 $356 $261 $255 #
point $-1 39.006250391548832 37.077533453447117 7.0149653324391652 #
plane-surface $-1 70.758995330668057 0 0 -1 0 0 0 0 1 forward_v I I I I #
coedge $-1 $175 $173 $177 $273 reversed $103 $-1 #
edge $-1 $188 -13.288008485512892 $275 13.288008485512892 $187 $357 forward 7 unknown #
vertex $-1 $273 $358 #
straight-curve $-1 -70.758995330668057 -46.737172641427307 0 0 0 -1 I I #
edge $-1 $271 -46.737172641427307 $275 46.737172641427307 $269 $359 forward 7 unknown #
straight-curve $-1 0 -46.737172641427307 -13.288008485512892 -1 0 0 I I #
vertex $-1 $180 $360 #
straight-curve $-1 0 46.737172641427307 -13.288008485512892 1 0 0 I I #
point $-1 70.758995330668057 46.737172641427307 -13.288008485512892 #
point $-1 70.758995330668057 -46.737172641427307 -13.288008485512892 #
straight-curve $-1 -70.758995330668057 0 13.288008485512892 0 -1 0 I I #
point $-1 -70.758995330668057 46.737172641427307 13.288008485512892 #
point $-1 -70.758995330668057 -46.737172641427307 13.288008485512892 #
straight-curve $-1 70.758995330668057 -46.737172641427307 0 0 0 -1 I I #
straight-curve $-1 70.758995330668057 46.737172641427307 0 0 0 -1 I I #
face $-1 $361 $213 $16 $-1 $362 reversed single #
plane-surface $-1 0 0 13.288008485512892 0 0 1 1 0 0 forward_v I I I I #
coedge $-1 $363 $199 $364 $365 reversed $122 $-1 #
coedge $-1 $199 $363 $366 $367 reversed $122 $-1 #
coedge $-1 $366 $203 $200 $289 forward $213 $-1 #
edge $-1 $208 -8.4905252375838671 $292 8.4905252375838671 $200 $368 forward 7 unknown #
coedge $-1 $205 $364 $201 $291 forward $217 $-1 #
edge $-1 $293 -8.4905252375838671 $207 8.4905252375838671 $201 $369 forward 7 unknown #
vertex $-1 $367 $370 #
vertex $-1 $291 $371 #
straight-curve $-1 -70.758995330668057 -20.16115567040152 0 0 0 1 I I #
straight-curve $-1 -87.740045805835791 -22.166299807997838 -13.288008485512892 0 1 0 I I #
straight-curve $-1 -87.740045805835791 -22.166299807997838 13.288008485512892 0 -1 0 I I #
point $-1 -87.740045805835791 -20.16115567040152 13.288008485512892 #
point $-1 -87.740045805835791 -20.16115567040152 -13.288008485512892 #
coedge $-1 $372 $210 $212 $303 reversed $198 $-1 #
coedge $-1 $210 $372 $216 $307 reversed $198 $-1 #
straight-curve $-1 -70.758995330668057 -24.171443945594156 0 0 0 -1 I I #
coedge $-1 $212 $304 $373 $374 forward $213 $-1 #
edge $-1 $375 -46.737172641427307 $214 -24.171443945594156 $299 $376 forward 7 unknown #
coedge $-1 $302 $377 $378 $379 forward $213 $-1 #
point $-1 -70.758995330668057 -24.171443945594156 -13.288008485512892 #
coedge $-1 $308 $216 $380 $381 forward $217 $-1 #
edge $-1 $218 24.171443945594156 $382 46.737172641427307 $300 $383 forward 7 unknown #
coedge $-1 $384 $306 $385 $386 forward $217 $-1 #
point $-1 -70.758995330668057 -24.171443945594156 13.288008485512892 #
face $-1 $387 $388 $17 $-1 $389 reversed single #
loop $-1 $-1 $390 $222 #
plane-surface $-1 -87.740045805835791 -22.166299807997838 0 1 0 0 0 0 -1 forward_v I I I I #
coedge $-1 $391 $392 $393 $394 forward $223 $-1 #
coedge $-1 $225 $395 $396 $397 forward $138 $-1 #
coedge $-1 $396 $235 $226 $316 forward $237 $-1 #
edge $-1 $320 -84.427414323900933 $317 -71.881328017753447 $315 $398 forward 7 unknown #
vertex $-1 $316 $399 #
straight-curve $-1 42.049877390891552 22.709606854402516 13.28800848551289 0 -1 0 I I #
edge $-1 $233 5.1604178221711408 $320 26.313112319870655 $235 $400 forward 7 unknown #
vertex $-1 $319 $401 #
straight-curve $-1 42.049877390891552 -31.657009172103287 51.651700059900662 0 -0.83867056331134215 0.54463904215088732 I I #
point $-1 42.049877390891552 27.417894265466892 13.28800848551289 #
point $-1 20.897182893192038 46.737172641427307 0.74192217936540317 #
coedge $-1 $236 $402 $403 $404 reversed $237 $-1 #
face $-1 $405 $237 $17 $-1 $406 reversed single #
coedge $-1 $407 $239 $408 $409 forward $138 $-1 #
coedge $-1 $403 $410 $239 $328 reversed $411 $-1 #
edge $-1 $329 -46.737172641427307 $412 20.16115567040152 $327 $413 forward 7 unknown #
vertex $-1 $240 $414 #
straight-curve $-1 0 46.737172641427307 13.288008485512892 -1 0 0 I I #
face $-1 $415 $416 $18 $-1 $417 reversed single #
loop $-1 $-1 $418 $243 #
plane-surface $-1 0 0 13.288008485512892 0 0 1 1 0 0 forward_v I I I I #
coedge $-1 $419 $420 $418 $421 reversed $244 $-1 #
coedge $-1 $422 $336 $341 $423 reversed $246 $-1 #
coedge $-1 $335 $424 $247 $337 reversed $246 $-1 #
edge $-1 $342 70.438746775996748 $425 93.474345282854628 $247 $426 forward 7 unknown #
coedge $-1 $427 $428 $248 $339 forward $429 $-1 #
edge $-1 $343 71.881328017753447 $425 84.427414323900933 $338 $430 forward 7 unknown #
coedge $-1 $431 $249 $428 $432 forward $332 $-1 #
coedge $-1 $249 $418 $335 $423 forward $332 $-1 #
vertex $-1 $423 $433 #
vertex $-1 $432 $434 #
straight-curve $-1 20.897182893192038 22.709606854402516 13.28800848551289 0 1 0 I I #
vertex $-1 $251 $435 #
point $-1 29.940809892534759 33.583861904918017 1.6351830199953123 #
face $-1 $436 $437 $19 $-1 $438 forward single #
plane-surface $-1 31.473530142041795 -31.657009172103287 51.651700059900662 0 0.54463904215088732 0.83867056331134215 1 0 0 forward_v I I I I #
coedge $-1 $439 $440 $441 $442 reversed $256 $-1 #
coedge $-1 $350 $350 $-1 $443 forward $258 $-1 #
edge $-1 $444 0 $444 6.2831853071796004 $259 $445 forward 7 unknown #
vertex $-1 $262 $446 #
ellipse-curve $-1 26.940809892534759 37.077533453447096 7.0149653324391421 0 -0.54463904215088732 -0.83867056331134215 3 0 0 1 I I #
vertex $-1 $263 $447 #
point $-1 39.006250391548832 33.583861904918017 1.6351830199953123 #
loop $-1 $-1 $448 $255 #
straight-curve $-1 -70.758995330668057 46.737172641427307 0 0 0 -1 I I #
point $-1 -70.758995330668057 -46.737172641427307 -13.288008485512892 #
straight-curve $-1 -70.758995330668057 0 -13.288008485512892 0 1 0 I I #
point $-1 -70.758995330668057 46.737172641427307 -13.288008485512892 #
face $-1 $449 $450 $16 $-1 $451 reversed single #
plane-surface $-1 0 0 -13.288008485512892 0 0 1 1 0 0 forward_v I I I I #
coedge $-1 $287 $286 $452 $453 forward $122 $-1 #
coedge $-1 $290 $384 $286 $365 forward $217 $-1 #
edge $-1 $454 -46.737172641427307 $293 20.16115567040152 $286 $383 forward 7 unknown #
coedge $-1 $377 $288 $287 $367 forward $213 $-1 #
edge $-1 $292 -20.16115567040152 $455 46.737172641427307 $287 $376 forward 7 unknown #
straight-curve $-1 -79.249520568251924 -20.16115567040152 -13.288008485512892 1 0 0 I I #
straight-curve $-1 -79.249520568251924 -20.16115567040152 13.288008485512892 -1 0 0 I I #
point $-1 -70.758995330668057 -20.16115567040152 -13.288008485512892 #
point $-1 -70.758995330668057 -20.16115567040152 13.288008485512892 #
coedge $-1 $300 $299 $456 $457 reversed $198 $-1 #
coedge $-1 $458 $456 $302 $374 reversed $450 $-1 #
edge $-1 $459 -70.758995330668057 $375 70.758995330668057 $373 $460 forward 7 unknown #
vertex $-1 $303 $461 #
straight-curve $-1 -70.758995330668057 0 -13.288008485512892 0 1 0 I I #
coedge $-1 $304 $366 $462 $463 forward $213 $-1 #
coedge $-1 $464 $465 $304 $379 reversed $466 $-1 #
edge $-1 $467 -46.737172641427307 $459 46.737172641427307 $378 $468 forward 7 unknown #
coedge $-1 $456 $458 $306 $381 reversed $450 $-1 #
edge $-1 $382 -70.758995330668057 $469 70.758995330668057 $380 $470 forward 7 unknown #
vertex $-1 $307 $471 #
straight-curve $-1 -70.758995330668057 0 13.288008485512892 0 -1 0 I I #
coedge $-1 $364 $308 $472 $473 forward $217 $-1 #
coedge $-1 $465 $464 $308 $386 reversed $466 $-1 #
edge $-1 $469 -46.737172641427307 $474 46.737172641427307 $385 $475 forward 7 unknown #
face $-1 $476 $411 $17 $-1 $477 reversed single #
loop $-1 $-1 $478 $310 #
plane-surface $-1 -79.249520568251924 -20.16115567040152 0 0 -1 0 0 0 -1 forward_v I I I I #
coedge $-1 $479 $480 $481 $482 forward $311 $-1 #
coedge $-1 $483 $313 $484 $485 reversed $223 $-1 #
coedge $-1 $313 $483 $486 $487 reversed $223 $-1 #
coedge $-1 $480 $479 $313 $394 reversed $311 $-1 #
edge $-1 $488 -13.288008485512892 $489 13.288008485512892 $393 $490 forward 7 unknown #
coedge $-1 $314 $491 $492 $493 forward $138 $-1 #
coedge $-1 $494 $315 $314 $397 reversed $237 $-1 #
edge $-1 $495 -70.758995330668057 $317 -42.049877390891552 $396 $330 forward 7 unknown #
straight-curve $-1 42.049877390891552 46.737172641427307 85.169336503266337 0 0 1 I I #
point $-1 42.049877390891552 46.737172641427307 13.288008485512892 #
straight-curve $-1 15.736765071020898 46.737172641427307 0.74192217936539961 1 0 0 I I #
point $-1 42.049877390891552 46.737172641427307 0.74192217936540317 #
coedge $-1 $324 $494 $496 $497 reversed $237 $-1 #
coedge $-1 $498 $327 $324 $404 forward $411 $-1 #
edge $-1 $329 -13.288008485512892 $499 13.288008485512892 $324 $500 forward 7 unknown #
face $-1 $-1 $501 $17 $-1 $502 reversed single #
plane-surface $-1 0 46.737172641427307 0 0 -1 0 0 0 -1 forward_v I I I I #
coedge $-1 $486 $326 $480 $503 forward $138 $-1 #
coedge $-1 $478 $481 $326 $409 reversed $388 $-1 #
edge $-1 $412 -8.4905252375838671 $504 8.4905252375838671 $408 $505 forward 7 unknown #
coedge $-1 $327 $498 $478 $506 forward $411 $-1 #
loop $-1 $-1 $410 $387 #
vertex $-1 $409 $507 #
straight-curve $-1 -70.758995330668057 0 13.288008485512892 0 -1 0 I I #
point $-1 -70.758995330668057 46.737172641427307 13.288008485512892 #
face $-1 $508 $509 $18 $-1 $510 reversed single #
loop $-1 $-1 $511 $331 #
plane-surface $-1 -79.249520568251924 -24.171443945594156 0 0 1 0 0 0 1 forward_v I I I I #
coedge $-1 $341 $512 $334 $421 forward $332 $-1 #
coedge $-1 $420 $334 $513 $514 reversed $244 $-1 #
coedge $-1 $334 $419 $422 $515 forward $244 $-1 #
edge $-1 $516 -24.027565787024791 $517 -4.7082874110643758 $418 $518 forward 7 unknown #
coedge $-1 $424 $335 $420 $515 reversed $246 $-1 #
edge $-1 $517 -26.313112319870655 $342 -5.1604178221711408 $341 $519 forward 7 unknown #
coedge $-1 $336 $422 $427 $520 reversed $246 $-1 #
vertex $-1 $520 $521 #
straight-curve $-1 20.897182893192038 -31.657009172103287 51.651700059900662 0 0.83867056331134215 -0.54463904215088732 I I #
coedge $-1 $513 $338 $424 $520 forward $429 $-1 #
coedge $-1 $338 $522 $340 $432 reversed $429 $-1 #
loop $-1 $-1 $513 $523 #
straight-curve $-1 20.897182893192038 46.737172641427307 85.169336503266337 0 0 -1 I I #
coedge $-1 $524 $340 $525 $526 forward $332 $-1 #
edge $-1 $343 -20.897182893192038 $527 70.758995330668057 $428 $528 forward 7 unknown #
point $-1 20.897182893192038 27.417894265466892 13.28800848551289 #
point $-1 20.897182893192038 46.737172641427307 13.288008485512892 #
point $-1 26.940809892534759 31.949944778465358 -0.88082866993871423 #
face $-1 $529 $530 $19 $-1 $531 forward single #
loop $-1 $-1 $532 $347 #
plane-surface $-1 42.049877390891552 45.419213708805032 170.33867300653267 -1 0 0 0 0.54463904215088732 0.83867056331134215 forward_v I I I I #
coedge $-1 $440 $349 $533 $534 forward $256 $-1 #
coedge $-1 $349 $439 $535 $536 reversed $256 $-1 #
coedge $-1 $537 $538 $349 $442 forward $530 $-1 #
edge $-1 $539 4.7082874110643758 $540 24.027565787024791 $441 $541 forward 7 unknown #
edge $-1 $542 1 $542 0 $350 $-1 forward 7 unknown #
vertex $-1 $351 $543 #
ellipse-curve $-1 26.940809892534759 33.583861904918017 1.6351830199953123 0 0.54463904215088732 0.83867056331134215 3 0 0 1 I I #
point $-1 29.940809892534759 37.077533453447117 7.0149653324391652 #
point $-1 36.006250391548832 31.949944778465358 -0.88082866993871423 #
coedge $-1 $544 $533 $538 $545 reversed $356 $-1 #
face $-1 $546 $547 $16 $-1 $548 reversed single #
loop $-1 $-1 $456 $361 #
plane-surface $-1 0 -46.737172641427307 0 0 1 0 0 0 1 forward_v I I I I #
coedge $-1 $472 $462 $363 $453 reversed $547 $-1 #
edge $-1 $454 -13.288008485512892 $455 13.288008485512892 $452 $549 forward 7 unknown #
vertex $-1 $473 $550 #
vertex $-1 $463 $551 #
coedge $-1 $373 $380 $372 $457 forward $450 $-1 #
edge $-1 $382 -13.288008485512892 $375 13.288008485512892 $372 $552 forward 7 unknown #
coedge $-1 $380 $373 $465 $553 reversed $450 $-1 #
vertex $-1 $553 $554 #
straight-curve $-1 0 -46.737172641427307 -13.288008485512892 -1 0 0 I I #
point $-1 -70.758995330668057 -46.737172641427307 -13.288008485512892 #
coedge $-1 $452 $555 $377 $463 reversed $547 $-1 #
edge $-1 $455 -70.758995330668057 $467 70.758995330668057 $462 $556 forward 7 unknown #
coedge $-1 $385 $378 $555 $557 reversed $466 $-1 #
coedge $-1 $378 $385 $458 $553 forward $466 $-1 #
loop $-1 $-1 $465 $546 #
vertex $-1 $379 $558 #
straight-curve $-1 70.758995330668057 0 -13.288008485512892 0 -1 0 I I #
vertex $-1 $386 $559 #
straight-curve $-1 0 -46.737172641427307 13.288008485512892 1 0 0 I I #
point $-1 -70.758995330668057 -46.737172641427307 13.288008485512892 #
coedge $-1 $555 $452 $384 $473 reversed $547 $-1 #
edge $-1 $474 -70.758995330668057 $454 70.758995330668057 $472 $560 forward 7 unknown #
vertex $-1 $386 $561 #
straight-curve $-1 70.758995330668057 0 13.288008485512892 0 1 0 I I #
face $-1 $562 $563 $17 $-1 $477 reversed single #
plane-surface $-1 -70.758995330668057 0 0 1 0 0 0 0 -1 forward_v I I I I #
coedge $-1 $564 $408 $410 $506 reversed $388 $-1 #
coedge $-1 $393 $390 $565 $566 reversed $311 $-1 #
coedge $-1 $390 $393 $407 $503 reversed $311 $-1 #
coedge $-1 $408 $564 $390 $482 reversed $388 $-1 #
edge $-1 $504 -13.288008485512892 $567 13.288008485512892 $481 $568 forward 7 unknown #
coedge $-1 $392 $391 $569 $570 reversed $223 $-1 #
coedge $-1 $565 $571 $391 $485 forward $572 $-1 #
edge $-1 $573 -8.4905252375838671 $489 8.4905252375838671 $391 $574 forward 7 unknown #
coedge $-1 $575 $407 $392 $487 forward $138 $-1 #
edge $-1 $488 -8.4905252375838671 $576 8.4905252375838671 $392 $577 forward 7 unknown #
vertex $-1 $503 $578 #
vertex $-1 $566 $579 #
straight-curve $-1 -87.740045805835791 -24.171443945594156 0 0 0 -1 I I #
coedge $-1 $395 $575 $580 $581 forward $138 $-1 #
coedge $-1 $582 $583 $395 $493 reversed $501 $-1 #
edge $-1 $584 -46.737172641427307 $495 46.737172641427307 $492 $585 forward 7 unknown #
coedge $-1 $402 $396 $583 $586 forward $237 $-1 #
vertex $-1 $493 $587 #
coedge $-1 $588 $589 $402 $497 forward $572 $-1 #
edge $-1 $499 -70.758995330668057 $590 70.758995330668057 $402 $591 forward 7 unknown #
coedge $-1 $410 $403 $589 $592 reversed $411 $-1 #
vertex $-1 $497 $593 #
straight-curve $-1 -70.758995330668057 46.737172641427307 0 0 0 -1 I I #
loop $-1 $-1 $582 $405 #
plane-surface $-1 70.758995330668057 0 0 -1 0 0 0 0 1 forward_v I I I I #
edge $-1 $504 -2.0051441375963179 $488 2.0051441375963179 $480 $594 forward 7 unknown #
vertex $-1 $409 $595 #
straight-curve $-1 -79.249520568251924 -20.16115567040152 13.288008485512892 -1 0 0 I I #
edge $-1 $596 -13.288008485512892 $412 13.288008485512892 $410 $597 forward 7 unknown #
point $-1 -70.758995330668057 -20.16115567040152 13.288008485512892 #
face $-1 $598 $599 $18 $-1 $600 reversed single #
loop $-1 $-1 $601 $415 #
plane-surface $-1 -87.740045805835791 -22.166299807997838 0 1 0 0 0 0 -1 forward_v I I I I #
coedge $-1 $602 $603 $604 $605 forward $416 $-1 #
coedge $-1 $418 $606 $607 $608 forward $332 $-1 #
coedge $-1 $607 $427 $419 $514 forward $429 $-1 #
edge $-1 $609 -84.427414323900933 $516 -71.881328017753447 $513 $610 forward 7 unknown #
edge $-1 $609 -93.474345282854628 $517 -70.438746775996748 $420 $611 forward 7 unknown #
vertex $-1 $514 $612 #
vertex $-1 $423 $613 #
straight-curve $-1 42.049877390891552 22.709606854402516 13.28800848551289 0 -1 0 I I #
straight-curve $-1 15.736765071020898 27.417894265466906 13.288008485512886 -1 0 0 I I #
edge $-1 $425 5.1604178221711408 $609 26.313112319870655 $427 $614 forward 7 unknown #
point $-1 20.897182893192038 46.737172641427307 0.74192217936540317 #
coedge $-1 $428 $615 $616 $617 reversed $429 $-1 #
face $-1 $618 $429 $18 $-1 $619 reversed single #
coedge $-1 $620 $431 $621 $622 forward $332 $-1 #
coedge $-1 $616 $623 $431 $526 reversed $624 $-1 #
edge $-1 $527 -46.737172641427307 $625 20.16115567040152 $525 $626 forward 7 unknown #
vertex $-1 $432 $627 #
straight-curve $-1 0 46.737172641427307 13.288008485512892 -1 0 0 I I #
face $-1 $628 $629 $19 $-1 $630 reversed single #
loop $-1 $-1 $631 $436 #
plane-surface $-1 0 0 13.288008485512892 0 0 1 1 0 0 forward_v I I I I #
coedge $-1 $632 $633 $631 $634 reversed $437 $-1 #
coedge $-1 $448 $635 $439 $534 reversed $356 $-1 #
edge $-1 $539 70.438746775996748 $636 93.474345282854628 $439 $637 forward 7 unknown #
coedge $-1 $638 $639 $440 $536 forward $640 $-1 #
edge $-1 $540 71.881328017753447 $636 84.427414323900933 $535 $641 forward 7 unknown #
coedge $-1 $642 $441 $639 $643 forward $530 $-1 #
coedge $-1 $441 $631 $448 $545 forward $530 $-1 #
vertex $-1 $545 $644 #
vertex $-1 $643 $645 #
straight-curve $-1 20.897182893192038 22.709606854402516 13.28800848551289 0 1 0 I I #
vertex $-1 $443 $646 #
point $-1 29.940809892534759 33.583861904918017 1.6351830199953123 #
coedge $-1 $635 $448 $633 $647 reversed $356 $-1 #
edge $-1 $648 -26.313112319870655 $539 -5.1604178221711408 $538 $649 forward 7 unknown #
face $-1 $-1 $466 $16 $-1 $650 reversed single #
loop $-1 $-1 $555 $449 #
plane-surface $-1 0 46.737172641427307 0 0 -1 0 0 0 -1 forward_v I I I I #
straight-curve $-1 -70.758995330668057 46.737172641427307 0 0 0 -1 I I #
point $-1 -70.758995330668057 46.737172641427307 13.288008485512892 #
point $-1 -70.758995330668057 46.737172641427307 -13.288008485512892 #
straight-curve $-1 -70.758995330668057 -46.737172641427307 0 0 0 -1 I I #
edge $-1 $469 -13.288008485512892 $459 13.288008485512892 $465 $651 forward 7 unknown #
point $-1 70.758995330668057 -46.737172641427307 -13.288008485512892 #
coedge $-1 $462 $472 $464 $557 forward $547 $-1 #
straight-curve $-1 0 46.737172641427307 -13.288008485512892 1 0 0 I I #
edge $-1 $474 -13.288008485512892 $467 13.288008485512892 $464 $652 forward 7 unknown #
point $-1 70.758995330668057 46.737172641427307 -13.288008485512892 #
point $-1 70.758995330668057 -46.737172641427307 13.288008485512892 #
straight-curve $-1 0 46.737172641427307 13.288008485512892 -1 0 0 I I #
point $-1 70.758995330668057 46.737172641427307 13.288008485512892 #
face $-1 $653 $572 $17 $-1 $654 reversed single #
loop $-1 $-1 $569 $476 #
coedge $-1 $481 $478 $655 $656 reversed $388 $-1 #
coedge $-1 $655 $484 $479 $566 forward $572 $-1 #
edge $-1 $489 -2.0051441375963179 $567 2.0051441375963179 $479 $657 forward 7 unknown #
vertex $-1 $656 $658 #
straight-curve $-1 -87.740045805835791 -20.16115567040152 0 0 0 -1 I I #
coedge $-1 $659 $660 $483 $570 forward $563 $-1 #
edge $-1 $576 -13.288008485512892 $573 13.288008485512892 $569 $661 forward 7 unknown #
coedge $-1 $484 $662 $659 $663 forward $572 $-1 #
loop $-1 $-1 $588 $562 #
vertex $-1 $485 $664 #
straight-curve $-1 -79.249520568251924 -24.171443945594156 -13.288008485512892 -1 0 0 I I #
coedge $-1 $491 $486 $660 $665 forward $138 $-1 #
vertex $-1 $665 $666 #
straight-curve $-1 -79.249520568251924 -24.171443945594156 13.288008485512892 1 0 0 I I #
point $-1 -87.740045805835791 -24.171443945594156 13.288008485512892 #
point $-1 -87.740045805835791 -24.171443945594156 -13.288008485512892 #
coedge $-1 $667 $668 $491 $581 reversed $669 $-1 #
edge $-1 $670 -70.758995330668057 $584 70.758995330668057 $580 $671 forward 7 unknown #
coedge $-1 $672 $492 $668 $673 forward $501 $-1 #
coedge $-1 $492 $672 $494 $586 reversed $501 $-1 #
vertex $-1 $493 $674 #
straight-curve $-1 70.758995330668057 0 13.288008485512892 0 1 0 I I #
edge $-1 $495 -13.288008485512892 $590 13.288008485512892 $583 $675 forward 7 unknown #
point $-1 70.758995330668057 46.737172641427307 13.288008485512892 #
coedge $-1 $662 $496 $672 $676 forward $572 $-1 #
coedge $-1 $496 $655 $498 $592 forward $572 $-1 #
vertex $-1 $676 $677 #
straight-curve $-1 0 46.737172641427307 -13.288008485512892 1 0 0 I I #
edge $-1 $596 -20.16115567040152 $499 46.737172641427307 $498 $678 forward 7 unknown #
point $-1 -70.758995330668057 46.737172641427307 -13.288008485512892 #
straight-curve $-1 -87.740045805835791 -22.166299807997838 13.288008485512892 0 -1 0 I I #
point $-1 -87.740045805835791 -20.16115567040152 13.288008485512892 #
vertex $-1 $592 $679 #
straight-curve $-1 -70.758995330668057 -20.16115567040152 0 0 0 1 I I #
face $-1 $680 $624 $18 $-1 $681 reversed single #
loop $-1 $-1 $682 $508 #
plane-surface $-1 -79.249520568251924 -20.16115567040152 0 0 -1 0 0 0 -1 forward_v I I I I #
coedge $-1 $683 $684 $685 $686 forward $509 $-1 #
coedge $-1 $687 $511 $688 $689 reversed $416 $-1 #
coedge $-1 $511 $687 $690 $691 reversed $416 $-1 #
coedge $-1 $684 $683 $511 $605 reversed $509 $-1 #
edge $-1 $692 -13.288008485512892 $693 13.288008485512892 $604 $694 forward 7 unknown #
coedge $-1 $512 $695 $696 $697 forward $332 $-1 #
coedge $-1 $698 $513 $512 $608 reversed $429 $-1 #
edge $-1 $699 -70.758995330668057 $516 -42.049877390891552 $607 $528 forward 7 unknown #
vertex $-1 $520 $700 #
straight-curve $-1 42.049877390891552 46.737172641427307 85.169336503266337 0 0 1 I I #
straight-curve $-1 42.049877390891552 -31.657009172103287 51.651700059900662 0 -0.83867056331134215 0.54463904215088732 I I #
point $-1 42.049877390891552 46.737172641427307 13.288008485512892 #
point $-1 42.049877390891552 27.417894265466892 13.28800848551289 #
straight-curve $-1 15.736765071020898 46.737172641427307 0.74192217936539961 1 0 0 I I #
coedge $-1 $522 $698 $701 $702 reversed $429 $-1 #
coedge $-1 $703 $525 $522 $617 forward $624 $-1 #
edge $-1 $527 -13.288008485512892 $704 13.288008485512892 $522 $705 forward 7 unknown #
face $-1 $-1 $706 $18 $-1 $707 reversed single #
plane-surface $-1 0 46.737172641427307 0 0 -1 0 0 0 -1 forward_v I I I I #
coedge $-1 $690 $524 $684 $708 forward $332 $-1 #
coedge $-1 $682 $685 $524 $622 reversed $599 $-1 #
edge $-1 $625 -8.4905252375838671 $709 8.4905252375838671 $621 $710 forward 7 unknown #
coedge $-1 $525 $703 $682 $711 forward $624 $-1 #
loop $-1 $-1 $623 $598 #
vertex $-1 $622 $712 #
straight-curve $-1 -70.758995330668057 0 13.288008485512892 0 -1 0 I I #
point $-1 -70.758995330668057 46.737172641427307 13.288008485512892 #
face $-1 $713 $714 $19 $-1 $715 reversed single #
loop $-1 $-1 $716 $529 #
plane-surface $-1 -79.249520568251924 -24.171443945594156 0 0 1 0 0 0 1 forward_v I I I I #
coedge $-1 $538 $717 $532 $634 forward $530 $-1 #
coedge $-1 $633 $532 $718 $719 reversed $437 $-1 #
coedge $-1 $532 $632 $544 $647 forward $437 $-1 #
edge $-1 $720 -24.027565787024791 $648 -4.7082874110643758 $631 $721 forward 7 unknown #
coedge $-1 $533 $544 $638 $722 reversed $356 $-1 #
vertex $-1 $722 $723 #
straight-curve $-1 20.897182893192038 -31.657009172103287 51.651700059900662 0 0.83867056331134215 -0.54463904215088732 I I #
coedge $-1 $718 $535 $635 $722 forward $640 $-1 #
coedge $-1 $535 $724 $537 $643 reversed $640 $-1 #
loop $-1 $-1 $718 $725 #
straight-curve $-1 20.897182893192038 46.737172641427307 85.169336503266337 0 0 -1 I I #
coedge $-1 $726 $537 $727 $728 forward $530 $-1 #
edge $-1 $540 -20.897182893192038 $729 70.758995330668057 $639 $730 forward 7 unknown #
point $-1 20.897182893192038 27.417894265466892 13.28800848551289 #
point $-1 20.897182893192038 46.737172641427307 13.288008485512892 #
point $-1 26.940809892534759 31.949944778465358 -0.88082866993871423 #
edge $-1 $731 -93.474345282854628 $648 -70.438746775996748 $633 $732 forward 7 unknown #
vertex $-1 $545 $733 #
straight-curve $-1 15.736765071020898 27.417894265466906 13.288008485512886 -1 0 0 I I #
plane-surface $-1 70.758995330668057 0 0 -1 0 0 0 0 1 forward_v I I I I #
straight-curve $-1 70.758995330668057 -46.737172641427307 0 0 0 -1 I I #
straight-curve $-1 70.758995330668057 46.737172641427307 0 0 0 -1 I I #
face $-1 $325 $669 $17 $-1 $734 reversed single #
plane-surface $-1 0 0 -13.288008485512892 0 0 1 1 0 0 forward_v I I I I #
coedge $-1 $589 $565 $564 $656 forward $572 $-1 #
edge $-1 $567 -8.4905252375838671 $596 8.4905252375838671 $564 $735 forward 7 unknown #
straight-curve $-1 -87.740045805835791 -22.166299807997838 -13.288008485512892 0 1 0 I I #
point $-1 -87.740045805835791 -20.16115567040152 -13.288008485512892 #
coedge $-1 $736 $569 $571 $663 reversed $563 $-1 #
coedge $-1 $569 $736 $575 $665 reversed $563 $-1 #
straight-curve $-1 -70.758995330668057 -24.171443945594156 0 0 0 -1 I I #
coedge $-1 $571 $588 $737 $738 forward $572 $-1 #
edge $-1 $739 -46.737172641427307 $573 -24.171443945594156 $659 $678 forward 7 unknown #
point $-1 -70.758995330668057 -24.171443945594156 -13.288008485512892 #
edge $-1 $576 24.171443945594156 $670 46.737172641427307 $660 $413 forward 7 unknown #
point $-1 -70.758995330668057 -24.171443945594156 13.288008485512892 #
coedge $-1 $737 $580 $736 $740 forward $669 $-1 #
coedge $-1 $580 $737 $582 $673 reversed $669 $-1 #
loop $-1 $-1 $667 $653 #
vertex $-1 $665 $741 #
straight-curve $-1 0 -46.737172641427307 13.288008485512892 1 0 0 I I #
coedge $-1 $583 $582 $588 $676 reversed $501 $-1 #
edge $-1 $584 -13.288008485512892 $742 13.288008485512892 $582 $743 forward 7 unknown #
point $-1 70.758995330668057 -46.737172641427307 13.288008485512892 #
straight-curve $-1 70.758995330668057 46.737172641427307 0 0 0 -1 I I #
edge $-1 $590 -46.737172641427307 $742 46.737172641427307 $672 $744 forward 7 unknown #
point $-1 70.758995330668057 46.737172641427307 -13.288008485512892 #
straight-curve $-1 -70.758995330668057 0 -13.288008485512892 0 1 0 I I #
point $-1 -70.758995330668057 -20.16115567040152 -13.288008485512892 #
face $-1 $745 $746 $18 $-1 $681 reversed single #
plane-surface $-1 -70.758995330668057 0 0 1 0 0 0 0 -1 forward_v I I I I #
coedge $-1 $747 $621 $623 $711 reversed $599 $-1 #
coedge $-1 $604 $601 $748 $749 reversed $509 $-1 #
coedge $-1 $601 $604 $620 $708 reversed $509 $-1 #
coedge $-1 $621 $747 $601 $686 reversed $599 $-1 #
edge $-1 $709 -13.288008485512892 $750 13.288008485512892 $685 $751 forward 7 unknown #
coedge $-1 $603 $602 $752 $753 reversed $416 $-1 #
coedge $-1 $748 $754 $602 $689 forward $755 $-1 #
edge $-1 $756 -8.4905252375838671 $693 8.4905252375838671 $602 $757 forward 7 unknown #
coedge $-1 $758 $620 $603 $691 forward $332 $-1 #
edge $-1 $692 -8.4905252375838671 $759 8.4905252375838671 $603 $760 forward 7 unknown #
vertex $-1 $708 $761 #
vertex $-1 $749 $762 #
straight-curve $-1 -87.740045805835791 -24.171443945594156 0 0 0 -1 I I #
coedge $-1 $606 $758 $763 $764 forward $332 $-1 #
coedge $-1 $765 $766 $606 $697 reversed $706 $-1 #
edge $-1 $767 -46.737172641427307 $699 46.737172641427307 $696 $768 forward 7 unknown #
coedge $-1 $615 $607 $766 $769 forward $429 $-1 #
vertex $-1 $697 $770 #
point $-1 42.049877390891552 46.737172641427307 0.74192217936540317 #
coedge $-1 $771 $772 $615 $702 forward $755 $-1 #
edge $-1 $704 -70.758995330668057 $773 70.758995330668057 $615 $774 forward 7 unknown #
coedge $-1 $623 $616 $772 $775 reversed $624 $-1 #
vertex $-1 $702 $776 #
straight-curve $-1 -70.758995330668057 46.737172641427307 0 0 0 -1 I I #
loop $-1 $-1 $765 $618 #
plane-surface $-1 70.758995330668057 0 0 -1 0 0 0 0 1 forward_v I I I I #
edge $-1 $709 -2.0051441375963179 $692 2.0051441375963179 $684 $777 forward 7 unknown #
vertex $-1 $622 $778 #
straight-curve $-1 -79.249520568251924 -20.16115567040152 13.288008485512892 -1 0 0 I I #
edge $-1 $779 -13.288008485512892 $625 13.288008485512892 $623 $780 forward 7 unknown #
point $-1 -70.758995330668057 -20.16115567040152 13.288008485512892 #
face $-1 $781 $782 $19 $-1 $783 reversed single #
loop $-1 $-1 $784 $628 #
plane-surface $-1 -87.740045805835791 -22.166299807997838 0 1 0 0 0 0 -1 forward_v I I I I #
coedge $-1 $785 $786 $787 $788 forward $629 $-1 #
coedge $-1 $631 $789 $790 $791 forward $530 $-1 #
coedge $-1 $790 $638 $632 $719 forward $640 $-1 #
edge $-1 $731 -84.427414323900933 $720 -71.881328017753447 $718 $792 forward 7 unknown #
vertex $-1 $719 $793 #
straight-curve $-1 42.049877390891552 22.709606854402516 13.28800848551289 0 -1 0 I I #
edge $-1 $636 5.1604178221711408 $731 26.313112319870655 $638 $794 forward 7 unknown #
point $-1 20.897182893192038 46.737172641427307 0.74192217936540317 #
coedge $-1 $639 $795 $796 $797 reversed $640 $-1 #
face $-1 $798 $640 $19 $-1 $799 reversed single #
coedge $-1 $800 $642 $801 $802 forward $530 $-1 #
coedge $-1 $796 $803 $642 $728 reversed $804 $-1 #
edge $-1 $729 -46.737172641427307 $805 20.16115567040152 $727 $806 forward 7 unknown #
vertex $-1 $643 $807 #
straight-curve $-1 0 46.737172641427307 13.288008485512892 -1 0 0 I I #
vertex $-1 $722 $808 #
straight-curve $-1 42.049877390891552 -31.657009172103287 51.651700059900662 0 -0.83867056331134215 0.54463904215088732 I I #
point $-1 42.049877390891552 27.417894265466892 13.28800848551289 #
plane-surface $-1 0 -46.737172641427307 0 0 1 0 0 0 1 forward_v I I I I #
straight-curve $-1 -79.249520568251924 -20.16115567040152 -13.288008485512892 1 0 0 I I #
coedge $-1 $660 $659 $667 $740 reversed $563 $-1 #
coedge $-1 $668 $667 $662 $738 reversed $669 $-1 #
edge $-1 $742 -70.758995330668057 $739 70.758995330668057 $737 $809 forward 7 unknown #
vertex $-1 $663 $810 #
edge $-1 $670 -13.288008485512892 $739 13.288008485512892 $736 $811 forward 7 unknown #
point $-1 -70.758995330668057 -46.737172641427307 13.288008485512892 #
vertex $-1 $673 $812 #
straight-curve $-1 70.758995330668057 -46.737172641427307 0 0 0 -1 I I #
straight-curve $-1 70.758995330668057 0 -13.288008485512892 0 -1 0 I I #
face $-1 $813 $755 $18 $-1 $814 reversed single #
loop $-1 $-1 $752 $680 #
coedge $-1 $685 $682 $815 $816 reversed $599 $-1 #
coedge $-1 $815 $688 $683 $749 forward $755 $-1 #
edge $-1 $693 -2.0051441375963179 $750 2.0051441375963179 $683 $817 forward 7 unknown #
vertex $-1 $816 $818 #
straight-curve $-1 -87.740045805835791 -20.16115567040152 0 0 0 -1 I I #
coedge $-1 $819 $820 $687 $753 forward $746 $-1 #
edge $-1 $759 -13.288008485512892 $756 13.288008485512892 $752 $821 forward 7 unknown #
coedge $-1 $688 $822 $819 $823 forward $755 $-1 #
loop $-1 $-1 $771 $745 #
vertex $-1 $689 $824 #
straight-curve $-1 -79.249520568251924 -24.171443945594156 -13.288008485512892 -1 0 0 I I #
coedge $-1 $695 $690 $820 $825 forward $332 $-1 #
vertex $-1 $825 $826 #
straight-curve $-1 -79.249520568251924 -24.171443945594156 13.288008485512892 1 0 0 I I #
point $-1 -87.740045805835791 -24.171443945594156 13.288008485512892 #
point $-1 -87.740045805835791 -24.171443945594156 -13.288008485512892 #
coedge $-1 $827 $828 $695 $764 reversed $829 $-1 #
edge $-1 $830 -70.758995330668057 $767 70.758995330668057 $763 $831 forward 7 unknown #
coedge $-1 $832 $696 $828 $833 forward $706 $-1 #
coedge $-1 $696 $832 $698 $769 reversed $706 $-1 #
vertex $-1 $697 $834 #
straight-curve $-1 70.758995330668057 0 13.288008485512892 0 1 0 I I #
edge $-1 $699 -13.288008485512892 $773 13.288008485512892 $766 $835 forward 7 unknown #
point $-1 70.758995330668057 46.737172641427307 13.288008485512892 #
coedge $-1 $822 $701 $832 $836 forward $755 $-1 #
coedge $-1 $701 $815 $703 $775 forward $755 $-1 #
vertex $-1 $836 $837 #
straight-curve $-1 0 46.737172641427307 -13.288008485512892 1 0 0 I I #
edge $-1 $779 -20.16115567040152 $704 46.737172641427307 $703 $838 forward 7 unknown #
point $-1 -70.758995330668057 46.737172641427307 -13.288008485512892 #
straight-curve $-1 -87.740045805835791 -22.166299807997838 13.288008485512892 0 -1 0 I I #
point $-1 -87.740045805835791 -20.16115567040152 13.288008485512892 #
vertex $-1 $775 $839 #
straight-curve $-1 -70.758995330668057 -20.16115567040152 0 0 0 1 I I #
face $-1 $840 $804 $19 $-1 $841 reversed single #
loop $-1 $-1 $842 $713 #
plane-surface $-1 -79.249520568251924 -20.16115567040152 0 0 -1 0 0 0 -1 forward_v I I I I #
coedge $-1 $843 $844 $845 $846 forward $714 $-1 #
coedge $-1 $847 $716 $848 $849 reversed $629 $-1 #
coedge $-1 $716 $847 $850 $851 reversed $629 $-1 #
coedge $-1 $844 $843 $716 $788 reversed $714 $-1 #
edge $-1 $852 -13.288008485512892 $853 13.288008485512892 $787 $854 forward 7 unknown #
coedge $-1 $717 $855 $856 $857 forward $530 $-1 #
coedge $-1 $858 $718 $717 $791 reversed $640 $-1 #
edge $-1 $859 -70.758995330668057 $720 -42.049877390891552 $790 $730 forward 7 unknown #
straight-curve $-1 42.049877390891552 46.737172641427307 85.169336503266337 0 0 1 I I #
point $-1 42.049877390891552 46.737172641427307 13.288008485512892 #
straight-curve $-1 15.736765071020898 46.737172641427307 0.74192217936539961 1 0 0 I I #
coedge $-1 $724 $858 $860 $861 reversed $640 $-1 #
coedge $-1 $862 $727 $724 $797 forward $804 $-1 #
edge $-1 $729 -13.288008485512892 $863 13.288008485512892 $724 $864 forward 7 unknown #
face $-1 $-1 $865 $19 $-1 $866 reversed single #
plane-surface $-1 0 46.737172641427307 0 0 -1 0 0 0 -1 forward_v I I I I #
coedge $-1 $850 $726 $844 $867 forward $530 $-1 #
coedge $-1 $842 $845 $726 $802 reversed $782 $-1 #
edge $-1 $805 -8.4905252375838671 $868 8.4905252375838671 $801 $869 forward 7 unknown #
coedge $-1 $727 $862 $842 $870 forward $804 $-1 #
loop $-1 $-1 $803 $781 #
vertex $-1 $802 $871 #
straight-curve $-1 -70.758995330668057 0 13.288008485512892 0 -1 0 I I #
point $-1 -70.758995330668057 46.737172641427307 13.288008485512892 #
point $-1 42.049877390891552 46.737172641427307 0.74192217936540317 #
straight-curve $-1 0 -46.737172641427307 -13.288008485512892 -1 0 0 I I #
point $-1 -70.758995330668057 -46.737172641427307 -13.288008485512892 #
straight-curve $-1 -70.758995330668057 -46.737172641427307 0 0 0 -1 I I #
point $-1 70.758995330668057 -46.737172641427307 -13.288008485512892 #
face $-1 $523 $829 $18 $-1 $872 reversed single #
plane-surface $-1 0 0 -13.288008485512892 0 0 1 1 0 0 forward_v I I I I #
coedge $-1 $772 $748 $747 $816 forward $755 $-1 #
edge $-1 $750 -8.4905252375838671 $779 8.4905252375838671 $747 $873 forward 7 unknown #
straight-curve $-1 -87.740045805835791 -22.166299807997838 -13.288008485512892 0 1 0 I I #
point $-1 -87.740045805835791 -20.16115567040152 -13.288008485512892 #
coedge $-1 $874 $752 $754 $823 reversed $746 $-1 #
coedge $-1 $752 $874 $758 $825 reversed $746 $-1 #
straight-curve $-1 -70.758995330668057 -24.171443945594156 0 0 0 -1 I I #
coedge $-1 $754 $771 $875 $876 forward $755 $-1 #
edge $-1 $877 -46.737172641427307 $756 -24.171443945594156 $819 $838 forward 7 unknown #
point $-1 -70.758995330668057 -24.171443945594156 -13.288008485512892 #
edge $-1 $759 24.171443945594156 $830 46.737172641427307 $820 $626 forward 7 unknown #
point $-1 -70.758995330668057 -24.171443945594156 13.288008485512892 #
coedge $-1 $875 $763 $874 $878 forward $829 $-1 #
coedge $-1 $763 $875 $765 $833 reversed $829 $-1 #
loop $-1 $-1 $827 $813 #
vertex $-1 $825 $879 #
straight-curve $-1 0 -46.737172641427307 13.288008485512892 1 0 0 I I #
coedge $-1 $766 $765 $771 $836 reversed $706 $-1 #
edge $-1 $767 -13.288008485512892 $880 13.288008485512892 $765 $881 forward 7 unknown #
point $-1 70.758995330668057 -46.737172641427307 13.288008485512892 #
straight-curve $-1 70.758995330668057 46.737172641427307 0 0 0 -1 I I #
edge $-1 $773 -46.737172641427307 $880 46.737172641427307 $832 $882 forward 7 unknown #
point $-1 70.758995330668057 46.737172641427307 -13.288008485512892 #
straight-curve $-1 -70.758995330668057 0 -13.288008485512892 0 1 0 I I #
point $-1 -70.758995330668057 -20.16115567040152 -13.288008485512892 #
face $-1 $883 $884 $19 $-1 $841 reversed single #
plane-surface $-1 -70.758995330668057 0 0 1 0 0 0 0 -1 forward_v I I I I #
coedge $-1 $885 $801 $803 $870 reversed $782 $-1 #
coedge $-1 $787 $784 $886 $887 reversed $714 $-1 #
coedge $-1 $784 $787 $800 $867 reversed $714 $-1 #
coedge $-1 $801 $885 $784 $846 reversed $782 $-1 #
edge $-1 $868 -13.288008485512892 $888 13.288008485512892 $845 $889 forward 7 unknown #
coedge $-1 $786 $785 $890 $891 reversed $629 $-1 #
coedge $-1 $886 $892 $785 $849 forward $893 $-1 #
edge $-1 $894 -8.4905252375838671 $853 8.4905252375838671 $785 $895 forward 7 unknown #
coedge $-1 $896 $800 $786 $851 forward $530 $-1 #
edge $-1 $852 -8.4905252375838671 $897 8.4905252375838671 $786 $898 forward 7 unknown #
vertex $-1 $867 $899 #
vertex $-1 $887 $900 #
straight-curve $-1 -87.740045805835791 -24.171443945594156 0 0 0 -1 I I #
coedge $-1 $789 $896 $901 $902 forward $530 $-1 #
coedge $-1 $903 $904 $789 $857 reversed $865 $-1 #
edge $-1 $905 -46.737172641427307 $859 46.737172641427307 $856 $906 forward 7 unknown #
coedge $-1 $795 $790 $904 $907 forward $640 $-1 #
vertex $-1 $857 $908 #
coedge $-1 $909 $910 $795 $861 forward $893 $-1 #
edge $-1 $863 -70.758995330668057 $911 70.758995330668057 $795 $912 forward 7 unknown #
coedge $-1 $803 $796 $910 $913 reversed $804 $-1 #
vertex $-1 $861 $914 #
straight-curve $-1 -70.758995330668057 46.737172641427307 0 0 0 -1 I I #
loop $-1 $-1 $903 $798 #
plane-surface $-1 70.758995330668057 0 0 -1 0 0 0 0 1 forward_v I I I I #
edge $-1 $868 -2.0051441375963179 $852 2.0051441375963179 $844 $915 forward 7 unknown #
vertex $-1 $802 $916 #
straight-curve $-1 -79.249520568251924 -20.16115567040152 13.288008485512892 -1 0 0 I I #
edge $-1 $917 -13.288008485512892 $805 13.288008485512892 $803 $918 forward 7 unknown #
point $-1 -70.758995330668057 -20.16115567040152 13.288008485512892 #
plane-surface $-1 0 -46.737172641427307 0 0 1 0 0 0 1 forward_v I I I I #
straight-curve $-1 -79.249520568251924 -20.16115567040152 -13.288008485512892 1 0 0 I I #
coedge $-1 $820 $819 $827 $878 reversed $746 $-1 #
coedge $-1 $828 $827 $822 $876 reversed $829 $-1 #
edge $-1 $880 -70.758995330668057 $877 70.758995330668057 $875 $919 forward 7 unknown #
vertex $-1 $823 $920 #
edge $-1 $830 -13.288008485512892 $877 13.288008485512892 $874 $921 forward 7 unknown #
point $-1 -70.758995330668057 -46.737172641427307 13.288008485512892 #
vertex $-1 $833 $922 #
straight-curve $-1 70.758995330668057 -46.737172641427307 0 0 0 -1 I I #
straight-curve $-1 70.758995330668057 0 -13.288008485512892 0 -1 0 I I #
face $-1 $923 $893 $19 $-1 $924 reversed single #
loop $-1 $-1 $890 $840 #
coedge $-1 $845 $842 $925 $926 reversed $782 $-1 #
coedge $-1 $925 $848 $843 $887 forward $893 $-1 #
edge $-1 $853 -2.0051441375963179 $888 2.0051441375963179 $843 $927 forward 7 unknown #
vertex $-1 $926 $928 #
straight-curve $-1 -87.740045805835791 -20.16115567040152 0 0 0 -1 I I #
coedge $-1 $929 $930 $847 $891 forward $884 $-1 #
edge $-1 $897 -13.288008485512892 $894 13.288008485512892 $890 $931 forward 7 unknown #
coedge $-1 $848 $932 $929 $933 forward $893 $-1 #
loop $-1 $-1 $909 $883 #
vertex $-1 $849 $934 #
straight-curve $-1 -79.249520568251924 -24.171443945594156 -13.288008485512892 -1 0 0 I I #
coedge $-1 $855 $850 $930 $935 forward $530 $-1 #
vertex $-1 $935 $936 #
straight-curve $-1 -79.249520568251924 -24.171443945594156 13.288008485512892 1 0 0 I I #
point $-1 -87.740045805835791 -24.171443945594156 13.288008485512892 #
point $-1 -87.740045805835791 -24.171443945594156 -13.288008485512892 #
coedge $-1 $937 $938 $855 $902 reversed $939 $-1 #
edge $-1 $940 -70.758995330668057 $905 70.758995330668057 $901 $941 forward 7 unknown #
coedge $-1 $942 $856 $938 $943 forward $865 $-1 #
coedge $-1 $856 $942 $858 $907 reversed $865 $-1 #
vertex $-1 $857 $944 #
straight-curve $-1 70.758995330668057 0 13.288008485512892 0 1 0 I I #
edge $-1 $859 -13.288008485512892 $911 13.288008485512892 $904 $945 forward 7 unknown #
point $-1 70.758995330668057 46.737172641427307 13.288008485512892 #
coedge $-1 $932 $860 $942 $946 forward $893 $-1 #
coedge $-1 $860 $925 $862 $913 forward $893 $-1 #
vertex $-1 $946 $947 #
straight-curve $-1 0 46.737172641427307 -13.288008485512892 1 0 0 I I #
edge $-1 $917 -20.16115567040152 $863 46.737172641427307 $862 $948 forward 7 unknown #
point $-1 -70.758995330668057 46.737172641427307 -13.288008485512892 #
straight-curve $-1 -87.740045805835791 -22.166299807997838 13.288008485512892 0 -1 0 I I #
point $-1 -87.740045805835791 -20.16115567040152 13.288008485512892 #
vertex $-1 $913 $949 #
straight-curve $-1 -70.758995330668057 -20.16115567040152 0 0 0 1 I I #
straight-curve $-1 0 -46.737172641427307 -13.288008485512892 -1 0 0 I I #
point $-1 -70.758995330668057 -46.737172641427307 -13.288008485512892 #
straight-curve $-1 -70.758995330668057 -46.737172641427307 0 0 0 -1 I I #
point $-1 70.758995330668057 -46.737172641427307 -13.288008485512892 #
face $-1 $725 $939 $19 $-1 $950 reversed single #
plane-surface $-1 0 0 -13.288008485512892 0 0 1 1 0 0 forward_v I I I I #
coedge $-1 $910 $886 $885 $926 forward $893 $-1 #
edge $-1 $888 -8.4905252375838671 $917 8.4905252375838671 $885 $951 forward 7 unknown #
straight-curve $-1 -87.740045805835791 -22.166299807997838 -13.288008485512892 0 1 0 I I #
point $-1 -87.740045805835791 -20.16115567040152 -13.288008485512892 #
coedge $-1 $952 $890 $892 $933 reversed $884 $-1 #
coedge $-1 $890 $952 $896 $935 reversed $884 $-1 #
straight-curve $-1 -70.758995330668057 -24.171443945594156 0 0 0 -1 I I #
coedge $-1 $892 $909 $953 $954 forward $893 $-1 #
edge $-1 $955 -46.737172641427307 $894 -24.171443945594156 $929 $948 forward 7 unknown #
point $-1 -70.758995330668057 -24.171443945594156 -13.288008485512892 #
edge $-1 $897 24.171443945594156 $940 46.737172641427307 $930 $806 forward 7 unknown #
point $-1 -70.758995330668057 -24.171443945594156 13.288008485512892 #
coedge $-1 $953 $901 $952 $956 forward $939 $-1 #
coedge $-1 $901 $953 $903 $943 reversed $939 $-1 #
loop $-1 $-1 $937 $923 #
vertex $-1 $935 $957 #
straight-curve $-1 0 -46.737172641427307 13.288008485512892 1 0 0 I I #
coedge $-1 $904 $903 $909 $946 reversed $865 $-1 #
edge $-1 $905 -13.288008485512892 $958 13.288008485512892 $903 $959 forward 7 unknown #
point $-1 70.758995330668057 -46.737172641427307 13.288008485512892 #
straight-curve $-1 70.758995330668057 46.737172641427307 0 0 0 -1 I I #
edge $-1 $911 -46.737172641427307 $958 46.737172641427307 $942 $960 forward 7 unknown #
point $-1 70.758995330668057 46.737172641427307 -13.288008485512892 #
straight-curve $-1 -70.758995330668057 0 -13.288008485512892 0 1 0 I I #
point $-1 -70.758995330668057 -20.16115567040152 -13.288008485512892 #
plane-surface $-1 0 -46.737172641427307 0 0 1 0 0 0 1 forward_v I I I I #
straight-curve $-1 -79.249520568251924 -20.16115567040152 -13.288008485512892 1 0 0 I I #
coedge $-1 $930 $929 $937 $956 reversed $884 $-1 #
coedge $-1 $938 $937 $932 $954 reversed $939 $-1 #
edge $-1 $958 -70.758995330668057 $955 70.758995330668057 $953 $961 forward 7 unknown #
vertex $-1 $933 $962 #
edge $-1 $940 -13.288008485512892 $955 13.288008485512892 $952 $963 forward 7 unknown #
point $-1 -70.758995330668057 -46.737172641427307 13.288008485512892 #
vertex $-1 $943 $964 #
straight-curve $-1 70.758995330668057 -46.737172641427307 0 0 0 -1 I I #
straight-curve $-1 70.758995330668057 0 -13.288008485512892 0 -1 0 I I #
straight-curve $-1 0 -46.737172641427307 -13.288008485512892 -1 0 0 I I #
point $-1 -70.758995330668057 -46.737172641427307 -13.288008485512892 #
straight-curve $-1 -70.758995330668057 -46.737172641427307 0 0 0 -1 I I #
point $-1 70.758995330668057 -46.737172641427307 -13.288008485512892 #
End-of-ACIS-data 