500 0 12 0           
7 Unknown 11 ACIS 5.0 NT 24 Thu Mar 25 17:54:44 1999 
-1 9.9999999999999995e-007 1e-010 
body $-1 $12 $-1 $13 #
body $-1 $14 $-1 $15 #
body $-1 $16 $-1 $17 #
body $-1 $18 $-1 $19 #
body $-1 $20 $-1 $21 #
body $-1 $22 $-1 $23 #
body $-1 $24 $-1 $25 #
body $-1 $26 $-1 $27 #
body $-1 $28 $-1 $29 #
body $-1 $30 $-1 $31 #
body $-1 $32 $-1 $33 #
body $-1 $34 $-1 $35 #
lump $-1 $-1 $36 $0 #
transform $-1 1 0 0 0 1 0 0 0 1 79.333475753044226 55.43029248734765 26.562117667381333 1 rotate no_reflect no_shear #
lump $-1 $-1 $37 $1 #
transform $-1 1 0 0 0 1 0 0 0 1 79.333475753044226 55.43029248734765 26.562117667381333 1 rotate no_reflect no_shear #
lump $-1 $-1 $38 $2 #
transform $-1 1 0 0 0 1 0 0 0 1 79.333475753044226 55.43029248734765 26.562117667381333 1 rotate no_reflect no_shear #
lump $-1 $-1 $39 $3 #
transform $-1 1 0 0 0 1 0 0 0 1 79.333475753044226 55.43029248734765 26.562117667381333 1 rotate no_reflect no_shear #
lump $-1 $-1 $40 $4 #
transform $-1 1 0 0 0 1 0 0 0 1 79.333475753044226 55.43029248734765 26.562117667381333 1 rotate no_reflect no_shear #
lump $-1 $-1 $41 $5 #
transform $-1 1 0 0 0 1 0 0 0 1 79.333475753044226 55.43029248734765 26.562117667381333 1 rotate no_reflect no_shear #
lump $-1 $-1 $42 $6 #
transform $-1 1 0 0 0 1 0 0 0 1 79.333475753044226 55.43029248734765 26.562117667381333 1 rotate no_reflect no_shear #
lump $-1 $-1 $43 $7 #
transform $-1 1 0 0 0 1 0 0 0 1 79.333475753044226 55.43029248734765 26.562117667381333 1 rotate no_reflect no_shear #
lump $-1 $-1 $44 $8 #
transform $-1 1 0 0 0 1 0 0 0 1 79.333475753044226 55.43029248734765 26.562117667381333 1 rotate no_reflect no_shear #
lump $-1 $-1 $45 $9 #
transform $-1 1 0 0 0 1 0 0 0 1 79.333475753044226 55.43029248734765 26.562117667381333 1 rotate no_reflect no_shear #
lump $-1 $-1 $46 $10 #
transform $-1 1 0 0 0 1 0 0 0 1 79.333475753044226 55.43029248734765 26.562117667381333 1 rotate no_reflect no_shear #
lump $-1 $-1 $47 $11 #
transform $-1 1 0 0 0 1 0 0 0 1 79.333475753044226 55.43029248734765 26.562117667381333 1 rotate no_reflect no_shear #
shell $-1 $-1 $-1 $48 $-1 $12 #
shell $-1 $-1 $-1 $49 $-1 $14 #
shell $-1 $-1 $-1 $50 $-1 $16 #
shell $-1 $-1 $-1 $51 $-1 $18 #
shell $-1 $-1 $-1 $52 $-1 $20 #
shell $-1 $-1 $-1 $53 $-1 $22 #
shell $-1 $-1 $-1 $54 $-1 $24 #
shell $-1 $-1 $-1 $55 $-1 $26 #
shell $-1 $-1 $-1 $56 $-1 $28 #
shell $-1 $-1 $-1 $57 $-1 $30 #
shell $-1 $-1 $-1 $58 $-1 $32 #
shell $-1 $-1 $-1 $59 $-1 $34 #
face $-1 $60 $61 $36 $-1 $62 forward single #
face $-1 $63 $64 $37 $-1 $65 reversed single #
face $-1 $66 $67 $38 $-1 $68 forward single #
face $-1 $69 $70 $39 $-1 $71 reversed single #
face $-1 $72 $73 $40 $-1 $74 forward single #
face $-1 $75 $76 $41 $-1 $77 reversed single #
face $-1 $78 $79 $42 $-1 $80 forward single #
face $-1 $81 $82 $43 $-1 $83 reversed single #
face $-1 $84 $85 $44 $-1 $86 forward single #
face $-1 $87 $88 $45 $-1 $89 reversed single #
face $-1 $90 $91 $46 $-1 $92 forward single #
face $-1 $93 $94 $47 $-1 $95 forward single #
face $-1 $96 $97 $36 $-1 $98 reversed single #
loop $-1 $-1 $99 $48 #
plane-surface $-1 0 0 26.562117667381333 0 0 1 1 0 0 forward_v I I I I #
face $-1 $100 $101 $37 $-1 $102 reversed single #
loop $-1 $-1 $103 $49 #
plane-surface $-1 59.776692045427595 -40.060981084635181 233.61947509977549 0 -1 0 -0.64278761758704617 0 -0.76604443648966558 forward_v I I I I #
face $-1 $104 $105 $38 $-1 $106 forward single #
loop $-1 $107 $108 $50 #
cone-surface $-1 68.53940134842702 -46.262865680716658 17.160842828132225 -0.64278761758704617 0 -0.76604443648966558 1.1490666547344983 0 -0.96418142638056925 1 I I 0 1 1.5 forward I I I I #
face $-1 $109 $110 $39 $-1 $111 reversed single #
loop $-1 $-1 $112 $51 #
plane-surface $-1 59.776692045427595 -9.2190706308240706 233.61947509977549 0 -1 0 -0.64278761758704617 0 -0.76604443648966558 forward_v I I I I #
face $-1 $113 $114 $40 $-1 $115 forward single #
loop $-1 $116 $117 $52 #
cone-surface $-1 68.53940134842702 -15.420955226905548 17.160842828132225 -0.64278761758704617 0 -0.76604443648966558 1.1490666547344983 0 -0.96418142638056925 1 I I 0 1 1.5 forward I I I I #
face $-1 $118 $119 $41 $-1 $120 reversed single #
loop $-1 $-1 $121 $53 #
plane-surface $-1 59.776692045427595 21.622839822987046 233.61947509977549 0 -1 0 -0.64278761758704617 0 -0.76604443648966558 forward_v I I I I #
face $-1 $122 $123 $42 $-1 $124 forward single #
loop $-1 $125 $126 $54 #
cone-surface $-1 68.53940134842702 15.420955226905569 17.160842828132225 -0.64278761758704617 0 -0.76604443648966558 1.1490666547344983 0 -0.96418142638056925 1 I I 0 1 1.5 forward I I I I #
face $-1 $127 $128 $43 $-1 $129 reversed single #
loop $-1 $-1 $130 $55 #
plane-surface $-1 59.776692045427595 52.464750276798156 233.61947509977549 0 -1 0 -0.64278761758704617 0 -0.76604443648966558 forward_v I I I I #
face $-1 $131 $132 $44 $-1 $133 forward single #
loop $-1 $134 $135 $56 #
cone-surface $-1 68.53940134842702 46.262865680716679 17.160842828132225 -0.64278761758704617 0 -0.76604443648966558 1.1490666547344983 0 -0.96418142638056925 1 I I 0 1 1.5 forward I I I I #
face $-1 $136 $137 $45 $-1 $138 reversed single #
loop $-1 $-1 $139 $57 #
plane-surface $-1 -179.18582496146431 -34.540784451541469 144.25779609949191 0 -1 0 0.62932039886446345 0 -0.77714595512881146 forward_v I I I I #
face $-1 $140 $141 $46 $-1 $142 forward single #
loop $-1 $143 $144 $58 #
cone-surface $-1 -74.620442184246158 -49.461861619974457 22.214996002962547 0.62932039886446345 0 -0.77714595512881146 0.77714595512881146 0 0.62932039886446345 1 I I 0 1 1 forward I I I I #
face $-1 $145 $146 $47 $-1 $147 forward single #
loop $-1 $148 $149 $59 #
cone-surface $-1 -74.620442184246158 -40.509215318914663 22.214996002962547 0.62932039886446345 0 -0.77714595512881146 0.77714595512881146 0 0.62932039886446345 1 I I 0 1 1 forward I I I I #
face $-1 $150 $151 $36 $-1 $152 reversed single #
loop $-1 $-1 $153 $60 #
plane-surface $-1 0 0 -26.562117667381333 0 0 1 1 0 0 forward_v I I I I #
coedge $-1 $154 $155 $156 $157 forward $61 $-1 #
face $-1 $158 $159 $37 $-1 $160 reversed single #
loop $-1 $-1 $161 $63 #
plane-surface $-1 -42.212459702970392 -46.262865680716658 112.07353964376087 0.64278761758704617 0 0.76604443648966558 0.76604443648966558 0 -0.64278761758704617 forward_v I I I I #
coedge $-1 $162 $163 $164 $165 reversed $64 $-1 #
face $-1 $-1 $166 $38 $-1 $167 forward single #
loop $-1 $168 $169 $66 #
cone-surface $-1 67.081932851767093 -46.262865680716658 15.423899547525078 -0.64278761758704617 0 -0.76604443648966558 0.57453332736724916 0 -0.48209071319028463 1 I I -0.70710678118654757 0.70710678118654757 0.75 forward I I I I #
loop $-1 $-1 $170 $50 #
coedge $-1 $108 $108 $171 $172 reversed $67 $-1 #
face $-1 $173 $174 $39 $-1 $175 reversed single #
loop $-1 $-1 $176 $69 #
plane-surface $-1 -42.212459702970392 -15.420955226905548 112.07353964376087 0.64278761758704617 0 0.76604443648966558 0.76604443648966558 0 -0.64278761758704617 forward_v I I I I #
coedge $-1 $177 $178 $179 $180 reversed $70 $-1 #
face $-1 $-1 $181 $40 $-1 $182 forward single #
loop $-1 $183 $184 $72 #
cone-surface $-1 67.081932851767093 -15.420955226905548 15.423899547525078 -0.64278761758704617 0 -0.76604443648966558 0.57453332736724916 0 -0.48209071319028463 1 I I -0.70710678118654757 0.70710678118654757 0.75 forward I I I I #
loop $-1 $-1 $185 $52 #
coedge $-1 $117 $117 $186 $187 reversed $73 $-1 #
face $-1 $188 $189 $41 $-1 $190 reversed single #
loop $-1 $-1 $191 $75 #
plane-surface $-1 -42.212459702970392 15.420955226905569 112.07353964376087 0.64278761758704617 0 0.76604443648966558 0.76604443648966558 0 -0.64278761758704617 forward_v I I I I #
coedge $-1 $192 $193 $194 $195 reversed $76 $-1 #
face $-1 $-1 $196 $42 $-1 $197 forward single #
loop $-1 $198 $199 $78 #
cone-surface $-1 67.081932851767093 15.420955226905569 15.423899547525078 -0.64278761758704617 0 -0.76604443648966558 0.57453332736724916 0 -0.48209071319028463 1 I I -0.70710678118654757 0.70710678118654757 0.75 forward I I I I #
loop $-1 $-1 $200 $54 #
coedge $-1 $126 $126 $201 $202 reversed $79 $-1 #
face $-1 $203 $204 $43 $-1 $205 reversed single #
loop $-1 $-1 $206 $81 #
plane-surface $-1 -42.212459702970392 46.262865680716679 112.07353964376087 0.64278761758704617 0 0.76604443648966558 0.76604443648966558 0 -0.64278761758704617 forward_v I I I I #
coedge $-1 $207 $208 $209 $210 reversed $82 $-1 #
face $-1 $-1 $211 $44 $-1 $212 forward single #
loop $-1 $213 $214 $84 #
cone-surface $-1 67.081932851767093 46.262865680716679 15.423899547525078 -0.64278761758704617 0 -0.76604443648966558 0.57453332736724916 0 -0.48209071319028463 1 I I -0.70710678118654757 0.70710678118654757 0.75 forward I I I I #
loop $-1 $-1 $215 $56 #
coedge $-1 $135 $135 $216 $217 reversed $85 $-1 #
face $-1 $218 $219 $45 $-1 $220 reversed single #
loop $-1 $-1 $221 $87 #
plane-surface $-1 -79.33347575304424 -44.985538469444563 20.95041652391599 -0.62932039886446345 0 0.77714595512881146 0.77714595512881146 0 0.62932039886446345 forward_v I I I I #
coedge $-1 $222 $223 $224 $225 reversed $88 $-1 #
face $-1 $-1 $226 $46 $-1 $227 forward single #
loop $-1 $228 $229 $90 #
cone-surface $-1 -73.057685237470338 -49.461861619974457 20.285151932712029 0.62932039886446345 0 -0.77714595512881146 0.38857297756440573 0 0.31466019943223172 1 I I -0.70710678118654746 0.70710678118654746 0.5 forward I I I I #
loop $-1 $-1 $230 $58 #
coedge $-1 $144 $144 $231 $232 reversed $91 $-1 #
face $-1 $-1 $233 $47 $-1 $234 forward single #
loop $-1 $235 $236 $93 #
cone-surface $-1 -73.057685237470338 -40.509215318914663 20.285151932712029 0.62932039886446345 0 -0.77714595512881146 0.38857297756440573 0 0.31466019943223172 1 I I -0.70710678118654746 0.70710678118654746 0.5 forward I I I I #
loop $-1 $-1 $237 $59 #
coedge $-1 $149 $149 $238 $239 reversed $94 $-1 #
face $-1 $240 $241 $36 $-1 $242 reversed single #
loop $-1 $-1 $243 $96 #
plane-surface $-1 0 -55.43029248734765 0 0 1 0 0 0 1 forward_v I I I I #
coedge $-1 $244 $245 $246 $247 forward $97 $-1 #
coedge $-1 $248 $99 $249 $250 forward $61 $-1 #
coedge $-1 $99 $248 $251 $252 forward $61 $-1 #
coedge $-1 $253 $254 $99 $157 reversed $255 $-1 #
edge $-1 $256 -55.43029248734765 $257 55.43029248734765 $156 $258 forward 7 unknown #
face $-1 $259 $260 $37 $-1 $261 forward single #
loop $-1 $-1 $262 $100 #
plane-surface $-1 59.776692045427595 -52.464750276798135 233.61947509977549 0 1 0 0.64278761758704617 0 0.76604443648966558 forward_v I I I I #
coedge $-1 $263 $264 $265 $266 reversed $101 $-1 #
coedge $-1 $163 $103 $267 $268 reversed $64 $-1 #
coedge $-1 $103 $162 $263 $269 reversed $64 $-1 #
coedge $-1 $265 $270 $103 $165 forward $260 $-1 #
edge $-1 $271 -49.445129730330429 $272 -29.807736488035296 $164 $273 forward 7 unknown #
loop $-1 $-1 $171 $104 #
plane-surface $-1 -42.212459702970392 -46.262865680716658 112.07353964376087 0.64278761758704617 0 0.76604443648966558 0.76604443648966558 0 -0.64278761758704617 forward_v I I I I #
loop $-1 $-1 $274 $66 #
coedge $-1 $169 $169 $170 $275 reversed $105 $-1 #
coedge $-1 $170 $170 $169 $275 forward $107 $-1 #
coedge $-1 $171 $171 $108 $172 forward $166 $-1 #
edge $-1 $276 0 $276 6.2831853071796004 $171 $277 forward 7 unknown #
face $-1 $278 $279 $39 $-1 $280 reversed single #
loop $-1 $-1 $281 $109 #
plane-surface $-1 59.776692045427595 -21.622839822987025 233.61947509977549 0 1 0 0.64278761758704617 0 0.76604443648966558 forward_v I I I I #
coedge $-1 $282 $283 $284 $285 reversed $110 $-1 #
coedge $-1 $178 $112 $286 $287 reversed $70 $-1 #
coedge $-1 $112 $177 $282 $288 reversed $70 $-1 #
coedge $-1 $284 $289 $112 $180 forward $290 $-1 #
edge $-1 $291 -49.445129730330429 $292 -29.807736488035296 $179 $293 forward 7 unknown #
loop $-1 $-1 $186 $113 #
plane-surface $-1 -42.212459702970392 -15.420955226905548 112.07353964376087 0.64278761758704617 0 0.76604443648966558 0.76604443648966558 0 -0.64278761758704617 forward_v I I I I #
loop $-1 $-1 $294 $72 #
coedge $-1 $184 $184 $185 $295 reversed $114 $-1 #
coedge $-1 $185 $185 $184 $295 forward $116 $-1 #
coedge $-1 $186 $186 $117 $187 forward $181 $-1 #
edge $-1 $296 0 $296 6.2831853071796004 $186 $297 forward 7 unknown #
face $-1 $298 $299 $41 $-1 $300 reversed single #
loop $-1 $-1 $301 $118 #
plane-surface $-1 59.776692045427595 9.2190706308240919 233.61947509977549 0 1 0 0.64278761758704617 0 0.76604443648966558 forward_v I I I I #
coedge $-1 $302 $303 $304 $305 reversed $119 $-1 #
coedge $-1 $193 $121 $306 $307 reversed $76 $-1 #
coedge $-1 $121 $192 $302 $308 reversed $76 $-1 #
coedge $-1 $304 $309 $121 $195 forward $310 $-1 #
edge $-1 $311 -49.445129730330429 $312 -29.807736488035296 $194 $313 forward 7 unknown #
loop $-1 $-1 $201 $122 #
plane-surface $-1 -42.212459702970392 15.420955226905569 112.07353964376087 0.64278761758704617 0 0.76604443648966558 0.76604443648966558 0 -0.64278761758704617 forward_v I I I I #
loop $-1 $-1 $314 $78 #
coedge $-1 $199 $199 $200 $315 reversed $123 $-1 #
coedge $-1 $200 $200 $199 $315 forward $125 $-1 #
coedge $-1 $201 $201 $126 $202 forward $196 $-1 #
edge $-1 $316 0 $316 6.2831853071796004 $201 $317 forward 7 unknown #
face $-1 $318 $319 $43 $-1 $320 reversed single #
loop $-1 $-1 $321 $127 #
plane-surface $-1 59.776692045427595 40.060981084635202 233.61947509977549 0 1 0 0.64278761758704617 0 0.76604443648966558 forward_v I I I I #
coedge $-1 $322 $323 $324 $325 reversed $128 $-1 #
coedge $-1 $208 $130 $326 $327 reversed $82 $-1 #
coedge $-1 $130 $207 $322 $328 reversed $82 $-1 #
coedge $-1 $324 $329 $130 $210 forward $330 $-1 #
edge $-1 $331 -49.445129730330429 $332 -29.807736488035296 $209 $333 forward 7 unknown #
loop $-1 $-1 $216 $131 #
plane-surface $-1 -42.212459702970392 46.262865680716679 112.07353964376087 0.64278761758704617 0 0.76604443648966558 0.76604443648966558 0 -0.64278761758704617 forward_v I I I I #
loop $-1 $-1 $334 $84 #
coedge $-1 $214 $214 $215 $335 reversed $132 $-1 #
coedge $-1 $215 $215 $214 $335 forward $134 $-1 #
coedge $-1 $216 $216 $135 $217 forward $211 $-1 #
edge $-1 $336 0 $336 6.2831853071796004 $216 $337 forward 7 unknown #
face $-1 $338 $339 $45 $-1 $340 reversed single #
loop $-1 $-1 $224 $136 #
plane-surface $-1 -79.333475753044226 0 0 1 0 0 0 0 -1 forward_v I I I I #
coedge $-1 $341 $342 $343 $344 reversed $137 $-1 #
coedge $-1 $223 $139 $345 $346 reversed $88 $-1 #
coedge $-1 $139 $222 $341 $347 reversed $88 $-1 #
coedge $-1 $343 $348 $139 $225 forward $219 $-1 #
edge $-1 $349 45.566780382364627 $350 51.178481525829952 $224 $351 forward 7 unknown #
loop $-1 $-1 $231 $140 #
plane-surface $-1 -79.33347575304424 -44.985538469444563 20.95041652391599 -0.62932039886446345 0 0.77714595512881146 0.77714595512881146 0 0.62932039886446345 forward_v I I I I #
loop $-1 $-1 $352 $90 #
coedge $-1 $229 $229 $230 $353 reversed $141 $-1 #
coedge $-1 $230 $230 $229 $353 forward $143 $-1 #
coedge $-1 $231 $231 $144 $232 forward $226 $-1 #
edge $-1 $354 0 $354 6.2831853071796004 $231 $355 forward 7 unknown #
loop $-1 $-1 $238 $145 #
plane-surface $-1 -79.33347575304424 -44.985538469444563 20.95041652391599 -0.62932039886446345 0 0.77714595512881146 0.77714595512881146 0 0.62932039886446345 forward_v I I I I #
loop $-1 $-1 $356 $93 #
coedge $-1 $236 $236 $237 $357 reversed $146 $-1 #
coedge $-1 $237 $237 $236 $357 forward $148 $-1 #
coedge $-1 $238 $238 $149 $239 forward $233 $-1 #
edge $-1 $358 0 $358 6.2831853071796004 $238 $359 forward 7 unknown #
face $-1 $360 $361 $36 $-1 $362 reversed single #
loop $-1 $-1 $363 $150 #
plane-surface $-1 -79.333475753044226 0 0 1 0 0 0 0 -1 forward_v I I I I #
coedge $-1 $364 $251 $365 $366 forward $151 $-1 #
coedge $-1 $367 $153 $364 $368 forward $97 $-1 #
coedge $-1 $153 $367 $369 $370 forward $97 $-1 #
coedge $-1 $254 $253 $153 $247 reversed $255 $-1 #
edge $-1 $371 -55.43029248734765 $372 55.43029248734765 $246 $373 forward 7 unknown #
coedge $-1 $155 $154 $374 $375 forward $61 $-1 #
coedge $-1 $376 $377 $154 $250 reversed $361 $-1 #
edge $-1 $257 -79.333475753044226 $378 79.333475753044226 $249 $379 forward 7 unknown #
coedge $-1 $243 $380 $155 $252 reversed $151 $-1 #
edge $-1 $381 -79.333475753044226 $256 79.333475753044226 $251 $382 forward 7 unknown #
coedge $-1 $246 $156 $380 $383 forward $255 $-1 #
coedge $-1 $156 $246 $376 $384 reversed $255 $-1 #
loop $-1 $-1 $253 $360 #
vertex $-1 $157 $385 #
vertex $-1 $157 $386 #
straight-curve $-1 79.333475753044226 0 26.562117667381333 0 1 0 I I #
face $-1 $-1 $387 $37 $-1 $388 reversed single #
loop $-1 $-1 $164 $158 #
plane-surface $-1 0 0 26.562117667381333 0 0 1 1 0 0 forward_v I I I I #
coedge $-1 $389 $390 $391 $392 reversed $159 $-1 #
coedge $-1 $393 $161 $163 $269 forward $101 $-1 #
coedge $-1 $161 $393 $389 $394 forward $101 $-1 #
coedge $-1 $391 $164 $161 $266 forward $260 $-1 #
edge $-1 $272 16.929548244276852 $395 29.333317436439806 $265 $396 forward 7 unknown #
coedge $-1 $397 $398 $162 $268 forward $387 $-1 #
edge $-1 $399 -106.72534965452486 $271 -90.247619882506413 $267 $400 forward 7 unknown #
edge $-1 $272 133.03215500226963 $399 158.66695150608845 $163 $401 forward 7 unknown #
coedge $-1 $164 $391 $397 $402 forward $260 $-1 #
vertex $-1 $268 $403 #
vertex $-1 $165 $404 #
straight-curve $-1 29.888346022713797 -40.060981084635181 26.56211766738133 -1 0 0 I I #
coedge $-1 $274 $274 $-1 $405 reversed $168 $-1 #
edge $-1 $406 0 $406 6.2831853071796004 $169 $407 forward 7 unknown #
vertex $-1 $172 $408 #
ellipse-curve $-1 69.514779131896645 -46.262865680716658 18.323252781372098 0.64278761758704617 0 0.76604443648966558 1.1490666547344983 0 -0.96418142638056925 1 I I #
face $-1 $-1 $290 $39 $-1 $409 forward single #
loop $-1 $-1 $410 $173 #
plane-surface $-1 79.333475753044226 0 0 -1 0 0 0 0 1 forward_v I I I I #
coedge $-1 $411 $412 $413 $414 reversed $174 $-1 #
coedge $-1 $415 $176 $178 $288 forward $110 $-1 #
coedge $-1 $176 $415 $411 $416 forward $110 $-1 #
coedge $-1 $413 $179 $176 $285 forward $290 $-1 #
edge $-1 $292 1.5085930173712967 $417 13.912362209534251 $284 $418 forward 7 unknown #
coedge $-1 $419 $420 $177 $287 forward $279 $-1 #
edge $-1 $421 -106.72534965452486 $291 -90.247619882506413 $286 $422 forward 7 unknown #
edge $-1 $292 133.03215500226963 $421 158.66695150608845 $178 $423 forward 7 unknown #
coedge $-1 $179 $413 $419 $424 forward $290 $-1 #
loop $-1 $-1 $413 $278 #
vertex $-1 $287 $425 #
vertex $-1 $180 $426 #
straight-curve $-1 29.888346022713797 -9.2190706308240706 26.56211766738133 -1 0 0 I I #
coedge $-1 $294 $294 $-1 $427 reversed $183 $-1 #
edge $-1 $428 0 $428 6.2831853071796004 $184 $429 forward 7 unknown #
vertex $-1 $187 $430 #
ellipse-curve $-1 69.514779131896645 -15.420955226905548 18.323252781372098 0.64278761758704617 0 0.76604443648966558 1.1490666547344983 0 -0.96418142638056925 1 I I #
face $-1 $-1 $310 $41 $-1 $431 forward single #
loop $-1 $-1 $432 $188 #
plane-surface $-1 79.333475753044226 0 0 -1 0 0 0 0 1 forward_v I I I I #
coedge $-1 $433 $434 $435 $436 reversed $189 $-1 #
coedge $-1 $437 $191 $193 $308 forward $119 $-1 #
coedge $-1 $191 $437 $433 $438 forward $119 $-1 #
coedge $-1 $435 $194 $191 $305 forward $310 $-1 #
edge $-1 $312 -13.912362209534262 $439 -1.5085930173713074 $304 $440 forward 7 unknown #
coedge $-1 $441 $442 $192 $307 forward $299 $-1 #
edge $-1 $443 -106.72534965452486 $311 -90.247619882506413 $306 $444 forward 7 unknown #
edge $-1 $312 133.03215500226963 $443 158.66695150608845 $193 $445 forward 7 unknown #
coedge $-1 $194 $435 $441 $446 forward $310 $-1 #
loop $-1 $-1 $435 $298 #
vertex $-1 $307 $447 #
vertex $-1 $195 $448 #
straight-curve $-1 29.888346022713797 21.622839822987046 26.56211766738133 -1 0 0 I I #
coedge $-1 $314 $314 $-1 $449 reversed $198 $-1 #
edge $-1 $450 0 $450 6.2831853071796004 $199 $451 forward 7 unknown #
vertex $-1 $202 $452 #
ellipse-curve $-1 69.514779131896645 15.420955226905569 18.323252781372098 0.64278761758704617 0 0.76604443648966558 1.1490666547344983 0 -0.96418142638056925 1 I I #
face $-1 $-1 $330 $43 $-1 $453 forward single #
loop $-1 $-1 $454 $203 #
plane-surface $-1 79.333475753044226 0 0 -1 0 0 0 0 1 forward_v I I I I #
coedge $-1 $455 $456 $457 $458 reversed $204 $-1 #
coedge $-1 $459 $206 $208 $328 forward $128 $-1 #
coedge $-1 $206 $459 $455 $460 forward $128 $-1 #
coedge $-1 $457 $209 $206 $325 forward $330 $-1 #
edge $-1 $332 -29.333317436439817 $461 -16.929548244276862 $324 $462 forward 7 unknown #
coedge $-1 $463 $464 $207 $327 forward $319 $-1 #
edge $-1 $465 -106.72534965452486 $331 -90.247619882506413 $326 $466 forward 7 unknown #
edge $-1 $332 133.03215500226963 $465 158.66695150608845 $208 $467 forward 7 unknown #
coedge $-1 $209 $457 $463 $468 forward $330 $-1 #
loop $-1 $-1 $457 $318 #
vertex $-1 $327 $469 #
vertex $-1 $210 $470 #
straight-curve $-1 29.888346022713797 52.464750276798156 26.56211766738133 -1 0 0 I I #
coedge $-1 $334 $334 $-1 $471 reversed $213 $-1 #
edge $-1 $472 0 $472 6.2831853071796004 $214 $473 forward 7 unknown #
vertex $-1 $217 $474 #
ellipse-curve $-1 69.514779131896645 46.262865680716679 18.323252781372098 0.64278761758704617 0 0.76604443648966558 1.1490666547344983 0 -0.96418142638056925 1 I I #
face $-1 $-1 $475 $45 $-1 $476 forward single #
loop $-1 $-1 $477 $218 #
plane-surface $-1 0 -55.43029248734765 0 0 1 0 0 0 1 forward_v I I I I #
coedge $-1 $478 $221 $223 $347 forward $137 $-1 #
coedge $-1 $221 $478 $477 $479 reversed $137 $-1 #
coedge $-1 $480 $224 $221 $344 forward $219 $-1 #
edge $-1 $350 12.048015216819188 $481 32.937523252625368 $343 $482 forward 7 unknown #
coedge $-1 $483 $484 $222 $346 forward $475 $-1 #
edge $-1 $485 -17.1893103705969 $349 -10.259436727687927 $345 $486 forward 7 unknown #
edge $-1 $350 1.7751293829024333e-014 $485 8.9170812730542561 $223 $487 forward 7 unknown #
coedge $-1 $224 $480 $483 $488 reversed $219 $-1 #
vertex $-1 $488 $489 #
vertex $-1 $225 $490 #
straight-curve $-1 -79.333475753044226 -34.540784451541469 72.128898049745956 0 0 -1 I I #
coedge $-1 $352 $352 $-1 $491 reversed $228 $-1 #
edge $-1 $492 0 $492 6.2831853071796004 $229 $493 forward 7 unknown #
vertex $-1 $232 $494 #
ellipse-curve $-1 -75.86853893158974 -49.461861619974457 23.756267095648663 -0.62932039886446345 0 0.77714595512881146 0.77714595512881146 0 0.62932039886446345 1 I I #
coedge $-1 $356 $356 $-1 $495 reversed $235 $-1 #
edge $-1 $496 0 $496 6.2831853071796004 $236 $497 forward 7 unknown #
vertex $-1 $239 $498 #
ellipse-curve $-1 -75.86853893158974 -40.509215318914663 23.756267095648663 -0.62932039886446345 0 0.77714595512881146 0.77714595512881146 0 0.62932039886446345 1 I I #
face $-1 $-1 $255 $36 $-1 $499 reversed single #
loop $-1 $-1 $376 $240 #
plane-surface $-1 0 55.43029248734765 0 0 -1 0 0 0 -1 forward_v I I I I #
coedge $-1 $500 $374 $377 $501 forward $241 $-1 #
coedge $-1 $380 $243 $244 $368 reversed $151 $-1 #
coedge $-1 $374 $500 $243 $366 reversed $241 $-1 #
edge $-1 $381 -26.562117667381333 $502 26.562117667381333 $365 $503 forward 7 unknown #
coedge $-1 $245 $244 $500 $504 forward $97 $-1 #
edge $-1 $372 -79.333475753044226 $502 79.333475753044226 $364 $505 forward 7 unknown #
coedge $-1 $377 $376 $245 $370 reversed $361 $-1 #
edge $-1 $506 -79.333475753044226 $371 79.333475753044226 $369 $507 forward 7 unknown #
vertex $-1 $247 $508 #
vertex $-1 $383 $509 #
straight-curve $-1 79.333475753044226 0 -26.562117667381333 0 -1 0 I I #
coedge $-1 $363 $365 $248 $375 reversed $241 $-1 #
edge $-1 $378 -55.43029248734765 $381 55.43029248734765 $374 $510 forward 7 unknown #
coedge $-1 $369 $249 $254 $384 forward $361 $-1 #
coedge $-1 $249 $369 $363 $501 reversed $361 $-1 #
vertex $-1 $250 $511 #
straight-curve $-1 0 55.43029248734765 26.562117667381333 -1 0 0 I I #
coedge $-1 $251 $364 $253 $383 reversed $151 $-1 #
vertex $-1 $375 $512 #
straight-curve $-1 0 -55.43029248734765 26.562117667381333 1 0 0 I I #
edge $-1 $256 -26.562117667381333 $372 26.562117667381333 $253 $513 forward 7 unknown #
edge $-1 $257 -26.562117667381333 $371 26.562117667381333 $254 $514 forward 7 unknown #
point $-1 79.333475753044226 -55.43029248734765 26.562117667381333 #
point $-1 79.333475753044226 55.43029248734765 26.562117667381333 #
loop $-1 $-1 $267 $259 #
plane-surface $-1 79.333475753044226 0 0 -1 0 0 0 0 1 forward_v I I I I #
coedge $-1 $390 $262 $264 $394 reversed $159 $-1 #
coedge $-1 $262 $389 $515 $516 reversed $159 $-1 #
coedge $-1 $270 $265 $262 $392 forward $260 $-1 #
edge $-1 $395 29.807736488035296 $517 49.445129730330429 $391 $518 forward 7 unknown #
coedge $-1 $264 $263 $398 $519 reversed $101 $-1 #
edge $-1 $520 -158.66695150608845 $395 -133.03215500226963 $389 $521 forward 7 unknown #
vertex $-1 $266 $522 #
straight-curve $-1 59.6960825107491 -23.131432840358329 26.562117667381337 0 -1 0 I I #
coedge $-1 $515 $267 $270 $402 reversed $387 $-1 #
coedge $-1 $267 $515 $393 $519 forward $387 $-1 #
vertex $-1 $268 $523 #
straight-curve $-1 79.333475753044226 -40.060981084635181 116.80973754988774 0 0 1 I I #
straight-curve $-1 -42.212459702970392 -40.060981084635181 112.07353964376087 0.76604443648966558 0 -0.64278761758704617 I I #
edge $-1 $517 -52.464750276798135 $271 -40.060981084635181 $397 $524 forward 7 unknown #
point $-1 79.333475753044226 -40.060981084635181 26.562117667381333 #
point $-1 59.696082510749093 -40.060981084635181 26.56211766738133 #
edge $-1 $525 1 $525 0 $274 $-1 forward 7 unknown #
vertex $-1 $275 $526 #
ellipse-curve $-1 67.564023564957381 -46.262865680716658 15.998432874892327 0.64278761758704617 0 0.76604443648966558 1.1490666547344983 0 -0.96418142638056925 1 I I #
point $-1 70.663845786631171 -46.262865680716658 17.359071354991556 #
plane-surface $-1 0 0 26.562117667381333 0 0 1 1 0 0 forward_v I I I I #
coedge $-1 $420 $419 $412 $527 forward $279 $-1 #
coedge $-1 $412 $281 $283 $416 reversed $174 $-1 #
coedge $-1 $281 $411 $410 $527 reversed $174 $-1 #
coedge $-1 $289 $284 $281 $414 forward $290 $-1 #
edge $-1 $417 29.807736488035296 $528 49.445129730330429 $413 $529 forward 7 unknown #
coedge $-1 $283 $282 $420 $530 reversed $110 $-1 #
edge $-1 $531 -158.66695150608845 $417 -133.03215500226963 $411 $532 forward 7 unknown #
vertex $-1 $285 $533 #
straight-curve $-1 59.6960825107491 -7.7104776134527739 26.562117667381337 0 -1 0 I I #
coedge $-1 $410 $286 $289 $424 reversed $279 $-1 #
coedge $-1 $286 $410 $415 $530 forward $279 $-1 #
vertex $-1 $287 $534 #
straight-curve $-1 79.333475753044226 -9.2190706308240706 116.80973754988774 0 0 1 I I #
straight-curve $-1 -42.212459702970392 -9.2190706308240706 112.07353964376087 0.76604443648966558 0 -0.64278761758704617 I I #
edge $-1 $528 -21.622839822987025 $291 -9.2190706308240706 $419 $535 forward 7 unknown #
point $-1 79.333475753044226 -9.2190706308240706 26.562117667381333 #
point $-1 59.696082510749093 -9.2190706308240706 26.56211766738133 #
edge $-1 $536 1 $536 0 $294 $-1 forward 7 unknown #
vertex $-1 $295 $537 #
ellipse-curve $-1 67.564023564957381 -15.420955226905548 15.998432874892327 0.64278761758704617 0 0.76604443648966558 1.1490666547344983 0 -0.96418142638056925 1 I I #
point $-1 70.663845786631171 -15.420955226905548 17.359071354991556 #
plane-surface $-1 0 0 26.562117667381333 0 0 1 1 0 0 forward_v I I I I #
coedge $-1 $442 $441 $434 $538 forward $299 $-1 #
coedge $-1 $434 $301 $303 $438 reversed $189 $-1 #
coedge $-1 $301 $433 $432 $538 reversed $189 $-1 #
coedge $-1 $309 $304 $301 $436 forward $310 $-1 #
edge $-1 $439 29.807736488035296 $539 49.445129730330429 $435 $540 forward 7 unknown #
coedge $-1 $303 $302 $442 $541 reversed $119 $-1 #
edge $-1 $542 -158.66695150608845 $439 -133.03215500226963 $433 $543 forward 7 unknown #
vertex $-1 $305 $544 #
straight-curve $-1 59.6960825107491 7.7104776134527846 26.562117667381337 0 -1 0 I I #
coedge $-1 $432 $306 $309 $446 reversed $299 $-1 #
coedge $-1 $306 $432 $437 $541 forward $299 $-1 #
vertex $-1 $307 $545 #
straight-curve $-1 79.333475753044226 21.622839822987046 116.80973754988774 0 0 1 I I #
straight-curve $-1 -42.212459702970392 21.622839822987046 112.07353964376087 0.76604443648966558 0 -0.64278761758704617 I I #
edge $-1 $539 9.2190706308240919 $311 21.622839822987046 $441 $546 forward 7 unknown #
point $-1 79.333475753044226 21.622839822987046 26.562117667381333 #
point $-1 59.696082510749093 21.622839822987046 26.56211766738133 #
edge $-1 $547 1 $547 0 $314 $-1 forward 7 unknown #
vertex $-1 $315 $548 #
ellipse-curve $-1 67.564023564957381 15.420955226905569 15.998432874892327 0.64278761758704617 0 0.76604443648966558 1.1490666547344983 0 -0.96418142638056925 1 I I #
point $-1 70.663845786631171 15.420955226905569 17.359071354991556 #
plane-surface $-1 0 0 26.562117667381333 0 0 1 1 0 0 forward_v I I I I #
coedge $-1 $464 $463 $456 $549 forward $319 $-1 #
coedge $-1 $456 $321 $323 $460 reversed $204 $-1 #
coedge $-1 $321 $455 $454 $549 reversed $204 $-1 #
coedge $-1 $329 $324 $321 $458 forward $330 $-1 #
edge $-1 $461 29.807736488035296 $550 49.445129730330429 $457 $551 forward 7 unknown #
coedge $-1 $323 $322 $464 $552 reversed $128 $-1 #
edge $-1 $553 -158.66695150608845 $461 -133.03215500226963 $455 $554 forward 7 unknown #
vertex $-1 $325 $555 #
straight-curve $-1 59.6960825107491 23.13143284035834 26.562117667381337 0 -1 0 I I #
coedge $-1 $454 $326 $329 $468 reversed $319 $-1 #
coedge $-1 $326 $454 $459 $552 forward $319 $-1 #
vertex $-1 $327 $556 #
straight-curve $-1 79.333475753044226 52.464750276798156 116.80973754988774 0 0 1 I I #
straight-curve $-1 -42.212459702970392 52.464750276798156 112.07353964376087 0.76604443648966558 0 -0.64278761758704617 I I #
edge $-1 $550 40.060981084635202 $331 52.464750276798156 $463 $557 forward 7 unknown #
point $-1 79.333475753044226 52.464750276798156 26.562117667381333 #
point $-1 59.696082510749093 52.464750276798156 26.56211766738133 #
edge $-1 $558 1 $558 0 $334 $-1 forward 7 unknown #
vertex $-1 $335 $559 #
ellipse-curve $-1 67.564023564957381 46.262865680716679 15.998432874892327 0.64278761758704617 0 0.76604443648966558 1.1490666547344983 0 -0.96418142638056925 1 I I #
point $-1 70.663845786631171 46.262865680716679 17.359071354991556 #
loop $-1 $-1 $345 $338 #
plane-surface $-1 0 0 26.562117667381333 0 0 1 1 0 0 forward_v I I I I #
coedge $-1 $560 $561 $342 $479 forward $339 $-1 #
coedge $-1 $342 $341 $484 $562 reversed $137 $-1 #
edge $-1 $481 -24.234582652290243 $563 -15.317501379236003 $477 $564 forward 7 unknown #
coedge $-1 $348 $343 $561 $565 reversed $219 $-1 #
vertex $-1 $479 $566 #
straight-curve $-1 -79.333475753044226 -22.492769234722282 20.950416523916012 0 -1 0 I I #
coedge $-1 $567 $345 $348 $488 forward $475 $-1 #
coedge $-1 $345 $567 $478 $562 forward $475 $-1 #
vertex $-1 $346 $568 #
straight-curve $-1 -89.592912480732153 -34.540784451541469 26.56211766738133 -1 0 0 I I #
straight-curve $-1 -79.33347575304424 -34.540784451541469 20.95041652391599 0.77714595512881146 0 0.62932039886446345 I I #
edge $-1 $349 34.540784451541469 $569 55.43029248734765 $348 $570 forward 7 unknown #
point $-1 -79.333475753044226 -34.540784451541469 26.562117667381333 #
point $-1 -79.333475753044226 -34.540784451541469 20.950416523916001 #
edge $-1 $571 1 $571 0 $352 $-1 forward 7 unknown #
vertex $-1 $353 $572 #
ellipse-curve $-1 -73.372345436902563 -49.461861619974457 20.673724910276434 -0.62932039886446345 0 0.77714595512881146 0.77714595512881146 0 0.62932039886446345 1 I I #
point $-1 -75.091392976460924 -49.461861619974457 24.385587494513121 #
edge $-1 $573 1 $573 0 $356 $-1 forward 7 unknown #
vertex $-1 $357 $574 #
ellipse-curve $-1 -73.372345436902563 -40.509215318914663 20.673724910276434 -0.62932039886446345 0 0.77714595512881146 0.77714595512881146 0 0.62932039886446345 1 I I #
point $-1 -75.091392976460924 -40.509215318914663 24.385587494513121 #
plane-surface $-1 79.333475753044226 0 0 -1 0 0 0 0 1 forward_v I I I I #
coedge $-1 $365 $363 $367 $504 reversed $241 $-1 #
edge $-1 $378 -26.562117667381333 $506 26.562117667381333 $377 $575 forward 7 unknown #
vertex $-1 $504 $576 #
straight-curve $-1 -79.333475753044226 -55.43029248734765 0 0 0 -1 I I #
edge $-1 $502 -55.43029248734765 $506 55.43029248734765 $500 $577 forward 7 unknown #
straight-curve $-1 0 -55.43029248734765 -26.562117667381333 -1 0 0 I I #
vertex $-1 $370 $578 #
straight-curve $-1 0 55.43029248734765 -26.562117667381333 1 0 0 I I #
point $-1 79.333475753044226 55.43029248734765 -26.562117667381333 #
point $-1 79.333475753044226 -55.43029248734765 -26.562117667381333 #
straight-curve $-1 -79.333475753044226 0 26.562117667381333 0 -1 0 I I #
point $-1 -79.333475753044226 55.43029248734765 26.562117667381333 #
point $-1 -79.333475753044226 -55.43029248734765 26.562117667381333 #
straight-curve $-1 79.333475753044226 -55.43029248734765 0 0 0 -1 I I #
straight-curve $-1 79.333475753044226 55.43029248734765 0 0 0 -1 I I #
coedge $-1 $398 $397 $390 $516 forward $387 $-1 #
edge $-1 $517 90.247619882506413 $520 106.72534965452486 $515 $579 forward 7 unknown #
vertex $-1 $402 $580 #
straight-curve $-1 29.888346022713797 -52.464750276798135 26.56211766738133 1 0 0 I I #
edge $-1 $520 -29.333317436439806 $399 -16.929548244276852 $398 $581 forward 7 unknown #
vertex $-1 $519 $582 #
straight-curve $-1 -42.212459702970392 -52.464750276798135 112.07353964376087 -0.76604443648966558 0 0.64278761758704617 I I #
point $-1 59.696082510749093 -52.464750276798135 26.56211766738133 #
point $-1 79.333475753044226 -40.060981084635181 10.08438789536288 #
straight-curve $-1 79.333475753044226 0 26.562117667381333 0 1 0 I I #
vertex $-1 $405 $583 #
point $-1 68.713090219691878 -46.262865680716658 15.034251448511759 #
edge $-1 $528 90.247619882506413 $531 106.72534965452486 $410 $584 forward 7 unknown #
vertex $-1 $424 $585 #
straight-curve $-1 29.888346022713797 -21.622839822987025 26.56211766738133 1 0 0 I I #
edge $-1 $531 -13.912362209534251 $421 -1.5085930173712967 $420 $586 forward 7 unknown #
vertex $-1 $530 $587 #
straight-curve $-1 -42.212459702970392 -21.622839822987025 112.07353964376087 -0.76604443648966558 0 0.64278761758704617 I I #
point $-1 59.696082510749093 -21.622839822987025 26.56211766738133 #
point $-1 79.333475753044226 -9.2190706308240706 10.08438789536288 #
straight-curve $-1 79.333475753044226 0 26.562117667381333 0 1 0 I I #
vertex $-1 $427 $588 #
point $-1 68.713090219691878 -15.420955226905548 15.034251448511759 #
edge $-1 $539 90.247619882506413 $542 106.72534965452486 $432 $589 forward 7 unknown #
vertex $-1 $446 $590 #
straight-curve $-1 29.888346022713797 9.2190706308240919 26.56211766738133 1 0 0 I I #
edge $-1 $542 1.5085930173713074 $443 13.912362209534262 $442 $591 forward 7 unknown #
vertex $-1 $541 $592 #
straight-curve $-1 -42.212459702970392 9.2190706308240919 112.07353964376087 -0.76604443648966558 0 0.64278761758704617 I I #
point $-1 59.696082510749093 9.2190706308240919 26.56211766738133 #
point $-1 79.333475753044226 21.622839822987046 10.08438789536288 #
straight-curve $-1 79.333475753044226 0 26.562117667381333 0 1 0 I I #
vertex $-1 $449 $593 #
point $-1 68.713090219691878 15.420955226905569 15.034251448511759 #
edge $-1 $550 90.247619882506413 $553 106.72534965452486 $454 $594 forward 7 unknown #
vertex $-1 $468 $595 #
straight-curve $-1 29.888346022713797 40.060981084635202 26.56211766738133 1 0 0 I I #
edge $-1 $553 16.929548244276862 $465 29.333317436439817 $464 $596 forward 7 unknown #
vertex $-1 $552 $597 #
straight-curve $-1 -42.212459702970392 40.060981084635202 112.07353964376087 -0.76604443648966558 0 0.64278761758704617 I I #
point $-1 59.696082510749093 40.060981084635202 26.56211766738133 #
point $-1 79.333475753044226 52.464750276798156 10.08438789536288 #
straight-curve $-1 79.333475753044226 0 26.562117667381333 0 1 0 I I #
vertex $-1 $471 $598 #
point $-1 68.713090219691878 46.262865680716679 15.034251448511759 #
coedge $-1 $561 $477 $567 $599 reversed $339 $-1 #
coedge $-1 $477 $560 $480 $565 forward $339 $-1 #
edge $-1 $563 -32.937523252625375 $485 -12.048015216819188 $484 $600 forward 7 unknown #
vertex $-1 $479 $601 #
straight-curve $-1 -60.499667870582002 -55.43029248734765 36.201733744969104 0.77714595512881146 0 0.62932039886446345 I I #
edge $-1 $569 -26.562117667381333 $481 -20.950416523916001 $480 $602 forward 7 unknown #
point $-1 -79.333475753044226 -55.43029248734765 20.950416523916001 #
coedge $-1 $484 $483 $560 $599 forward $475 $-1 #
point $-1 -72.403602110135253 -34.540784451541469 26.562117667381333 #
vertex $-1 $488 $603 #
straight-curve $-1 -79.333475753044226 0 26.562117667381333 0 -1 0 I I #
vertex $-1 $491 $604 #
point $-1 -72.595199481773761 -49.461861619974457 21.303045309140899 #
vertex $-1 $495 $605 #
point $-1 -72.595199481773761 -40.509215318914663 21.303045309140899 #
straight-curve $-1 -79.333475753044226 55.43029248734765 0 0 0 -1 I I #
point $-1 -79.333475753044226 -55.43029248734765 -26.562117667381333 #
straight-curve $-1 -79.333475753044226 0 -26.562117667381333 0 1 0 I I #
point $-1 -79.333475753044226 55.43029248734765 -26.562117667381333 #
straight-curve $-1 79.333475753044226 -52.464750276798135 116.80973754988774 0 0 -1 I I #
point $-1 79.333475753044226 -52.464750276798135 26.562117667381333 #
straight-curve $-1 79.333475753044212 -23.131432840358329 10.084387895362894 0 1 0 I I #
point $-1 79.333475753044226 -52.464750276798135 10.08438789536288 #
point $-1 66.599842138576804 -46.262865680716658 14.84936622015783 #
straight-curve $-1 79.333475753044226 -21.622839822987025 116.80973754988774 0 0 -1 I I #
point $-1 79.333475753044226 -21.622839822987025 26.562117667381333 #
straight-curve $-1 79.333475753044212 -7.7104776134527739 10.084387895362894 0 1 0 I I #
point $-1 79.333475753044226 -21.622839822987025 10.08438789536288 #
point $-1 66.599842138576804 -15.420955226905548 14.84936622015783 #
straight-curve $-1 79.333475753044226 9.2190706308240919 116.80973754988774 0 0 -1 I I #
point $-1 79.333475753044226 9.2190706308240919 26.562117667381333 #
straight-curve $-1 79.333475753044212 7.7104776134527846 10.084387895362894 0 1 0 I I #
point $-1 79.333475753044226 9.2190706308240919 10.08438789536288 #
point $-1 66.599842138576804 15.420955226905569 14.84936622015783 #
straight-curve $-1 79.333475753044226 40.060981084635202 116.80973754988774 0 0 -1 I I #
point $-1 79.333475753044226 40.060981084635202 26.562117667381333 #
straight-curve $-1 79.333475753044212 23.13143284035834 10.084387895362894 0 1 0 I I #
point $-1 79.333475753044226 40.060981084635202 10.08438789536288 #
point $-1 66.599842138576804 46.262865680716679 14.84936622015783 #
edge $-1 $569 -79.333475753044226 $563 -72.403602110135253 $560 $606 forward 7 unknown #
straight-curve $-1 -72.403602110135253 -22.492769234722282 26.562117667381333 0 1 0 I I #
point $-1 -72.403602110135253 -55.430292487347657 26.562117667381333 #
straight-curve $-1 -79.333475753044226 -55.43029248734765 0 0 0 -1 I I #
point $-1 -79.333475753044226 -55.43029248734765 26.562117667381333 #
point $-1 -72.743025038038112 -49.461861619974457 19.896578955147625 #
point $-1 -72.743025038038112 -40.509215318914663 19.896578955147625 #
straight-curve $-1 0 -55.43029248734765 26.562117667381333 1 0 0 I I #
End-of-ACIS-data 