500 0 5 0           
7 Unknown 11 ACIS 5.0 NT 24 Fri Mar 26 00:53:02 1999 
-1 9.9999999999999995e-007 1e-010 
body $-1 $5 $-1 $6 #
body $-1 $7 $-1 $8 #
body $-1 $9 $-1 $10 #
body $-1 $11 $-1 $12 #
body $-1 $13 $-1 $14 #
lump $-1 $-1 $15 $0 #
transform $-1 1 0 0 0 1 0 0 0 1 40.828882717368082 18.239858207393084 8.2228266687151681 1 rotate no_reflect no_shear #
lump $-1 $-1 $16 $1 #
transform $-1 1 0 0 0 1 0 0 0 1 40.828882717368082 18.239858207393084 8.2228266687151681 1 rotate no_reflect no_shear #
lump $-1 $-1 $17 $2 #
transform $-1 1 0 0 0 1 0 0 0 1 40.828882717368082 18.239858207393084 8.2228266687151681 1 rotate no_reflect no_shear #
lump $-1 $-1 $18 $3 #
transform $-1 1 0 0 0 1 0 0 0 1 40.828882717368082 18.239858207393084 8.2228266687151681 1 rotate no_reflect no_shear #
lump $-1 $-1 $19 $4 #
transform $-1 1 0 0 0 1 0 0 0 1 40.828882717368082 18.239858207393084 8.2228266687151681 1 rotate no_reflect no_shear #
shell $-1 $-1 $-1 $20 $-1 $5 #
shell $-1 $-1 $-1 $21 $-1 $7 #
shell $-1 $-1 $-1 $22 $-1 $9 #
shell $-1 $-1 $-1 $23 $-1 $11 #
shell $-1 $-1 $-1 $24 $-1 $13 #
face $-1 $25 $26 $15 $-1 $27 forward single #
face $-1 $28 $29 $16 $-1 $30 forward single #
face $-1 $31 $32 $17 $-1 $33 reversed single #
face $-1 $34 $35 $18 $-1 $36 forward single #
face $-1 $37 $38 $19 $-1 $39 forward single #
face $-1 $40 $41 $15 $-1 $42 reversed single #
loop $-1 $-1 $43 $20 #
plane-surface $-1 0 0 8.2228266687151681 0 0 1 1 0 0 forward_v I I I I #
face $-1 $44 $45 $16 $-1 $46 reversed single #
loop $-1 $-1 $47 $21 #
plane-surface $-1 -40.828882717368082 0 0 1 0 0 0 0 -1 forward_v I I I I #
face $-1 $48 $49 $17 $-1 $50 reversed single #
loop $-1 $-1 $51 $22 #
plane-surface $-1 -12.941984312446865 -68.513399177194486 66.205239648052924 -1 0 0 0 -0.61566148304635926 0.78801074757464917 forward_v I I I I #
face $-1 $52 $53 $18 $-1 $54 forward single #
loop $-1 $55 $56 $23 #
cone-surface $-1 -22.586800830566823 -13.589231835269024 4.3014597526178004 0 0.61566148304635926 -0.78801074757464917 1 0 0 1 I I 0 1 1 forward I I I I #
face $-1 $57 $58 $19 $-1 $59 forward single #
loop $-1 $60 $61 $24 #
cone-surface $-1 -16.799910919694849 -13.589231835269024 4.3014597526178004 0 0.61566148304635926 -0.78801074757464917 1 0 0 1 I I 0 1 1 forward I I I I #
face $-1 $62 $63 $15 $-1 $64 reversed single #
loop $-1 $-1 $65 $25 #
plane-surface $-1 0 0 -8.2228266687151681 0 0 1 1 0 0 forward_v I I I I #
coedge $-1 $66 $67 $68 $69 forward $26 $-1 #
face $-1 $70 $71 $16 $-1 $72 reversed single #
loop $-1 $-1 $73 $28 #
plane-surface $-1 0 0 -8.2228266687151681 0 0 1 1 0 0 forward_v I I I I #
coedge $-1 $74 $75 $76 $77 forward $29 $-1 #
face $-1 $78 $79 $17 $-1 $80 reversed single #
loop $-1 $-1 $81 $31 #
plane-surface $-1 -19.693355875130834 -18.239858207393084 1.8580428625511303 0 -0.61566148304635926 0.78801074757464917 1 0 0 forward_v I I I I #
coedge $-1 $82 $83 $84 $85 reversed $32 $-1 #
face $-1 $-1 $86 $18 $-1 $87 forward single #
loop $-1 $88 $89 $34 #
cone-surface $-1 -22.586800830566823 -12.704050526069569 3.1684793658151307 0 0.61566148304635926 -0.78801074757464917 0.5 0 0 1 I I -0.70710678118654746 0.70710678118654746 0.5 forward I I I I #
loop $-1 $-1 $90 $23 #
coedge $-1 $56 $56 $91 $92 reversed $35 $-1 #
face $-1 $-1 $93 $19 $-1 $94 forward single #
loop $-1 $95 $96 $37 #
cone-surface $-1 -16.799910919694849 -12.704050526069569 3.1684793658151307 0 0.61566148304635926 -0.78801074757464917 0.5 0 0 1 I I -0.70710678118654746 0.70710678118654746 0.5 forward I I I I #
loop $-1 $-1 $97 $24 #
coedge $-1 $61 $61 $98 $99 reversed $38 $-1 #
face $-1 $100 $101 $15 $-1 $102 reversed single #
loop $-1 $-1 $103 $40 #
plane-surface $-1 0 -18.239858207393084 0 0 1 0 0 0 1 forward_v I I I I #
coedge $-1 $104 $105 $106 $107 forward $41 $-1 #
coedge $-1 $108 $43 $109 $110 forward $26 $-1 #
coedge $-1 $43 $108 $111 $112 forward $26 $-1 #
coedge $-1 $113 $114 $43 $69 reversed $115 $-1 #
edge $-1 $116 -18.239858207393084 $117 18.239858207393084 $68 $118 forward 7 unknown #
face $-1 $119 $120 $16 $-1 $121 reversed single #
loop $-1 $-1 $122 $44 #
plane-surface $-1 -44.96779246940477 -6.1682859088445241 0 0 1 0 0 0 1 forward_v I I I I #
coedge $-1 $123 $124 $75 $125 forward $45 $-1 #
coedge $-1 $126 $47 $127 $128 reversed $29 $-1 #
coedge $-1 $47 $126 $73 $125 reversed $29 $-1 #
coedge $-1 $129 $130 $47 $77 reversed $131 $-1 #
edge $-1 $132 -8.2228266687151681 $133 8.2228266687151681 $76 $134 forward 7 unknown #
face $-1 $135 $136 $17 $-1 $137 forward single #
loop $-1 $-1 $138 $48 #
plane-surface $-1 -26.444727437814805 -68.513399177194486 66.205239648052924 1 0 0 0 0.61566148304635926 -0.78801074757464917 forward_v I I I I #
coedge $-1 $139 $140 $141 $142 reversed $49 $-1 #
coedge $-1 $83 $51 $143 $144 reversed $32 $-1 #
coedge $-1 $51 $82 $139 $145 reversed $32 $-1 #
coedge $-1 $141 $146 $51 $85 forward $136 $-1 #
edge $-1 $147 16.016841381204159 $148 24.16339299009972 $84 $149 forward 7 unknown #
loop $-1 $-1 $91 $52 #
plane-surface $-1 -19.693355875130834 -18.239858207393084 1.8580428625511303 0 -0.61566148304635926 0.78801074757464917 1 0 0 forward_v I I I I #
loop $-1 $-1 $150 $34 #
coedge $-1 $89 $89 $90 $151 reversed $53 $-1 #
coedge $-1 $90 $90 $89 $151 forward $55 $-1 #
coedge $-1 $91 $91 $56 $92 forward $86 $-1 #
edge $-1 $152 -1.3342979344366212e-015 $152 6.2831853071795987 $91 $153 forward 7 unknown #
loop $-1 $-1 $98 $57 #
plane-surface $-1 -19.693355875130834 -18.239858207393084 1.8580428625511303 0 -0.61566148304635926 0.78801074757464917 1 0 0 forward_v I I I I #
loop $-1 $-1 $154 $37 #
coedge $-1 $96 $96 $97 $155 reversed $58 $-1 #
coedge $-1 $97 $97 $96 $155 forward $60 $-1 #
coedge $-1 $98 $98 $61 $99 forward $93 $-1 #
edge $-1 $156 -1.3342979344366212e-015 $156 6.2831853071795987 $98 $157 forward 7 unknown #
face $-1 $158 $159 $15 $-1 $160 reversed single #
loop $-1 $-1 $161 $62 #
plane-surface $-1 -40.828882717368082 0 0 1 0 0 0 0 -1 forward_v I I I I #
coedge $-1 $162 $111 $163 $164 forward $63 $-1 #
coedge $-1 $165 $65 $162 $166 forward $41 $-1 #
coedge $-1 $65 $165 $167 $168 forward $41 $-1 #
coedge $-1 $114 $113 $65 $107 reversed $115 $-1 #
edge $-1 $169 -18.239858207393084 $170 18.239858207393084 $106 $171 forward 7 unknown #
coedge $-1 $67 $66 $172 $173 forward $26 $-1 #
coedge $-1 $174 $175 $66 $110 reversed $159 $-1 #
edge $-1 $117 -40.828882717368082 $176 40.828882717368082 $109 $177 forward 7 unknown #
coedge $-1 $103 $178 $67 $112 reversed $63 $-1 #
edge $-1 $179 -40.828882717368082 $116 40.828882717368082 $111 $180 forward 7 unknown #
coedge $-1 $106 $68 $178 $181 forward $115 $-1 #
coedge $-1 $68 $106 $174 $182 reversed $115 $-1 #
loop $-1 $-1 $113 $158 #
vertex $-1 $69 $183 #
vertex $-1 $69 $184 #
straight-curve $-1 40.828882717368082 0 8.2228266687151681 0 1 0 I I #
face $-1 $185 $131 $16 $-1 $186 reversed single #
loop $-1 $-1 $187 $70 #
plane-surface $-1 -49.106702221441459 -3.9812453894036359 0 1 0 0 0 0 -1 forward_v I I I I #
coedge $-1 $188 $189 $190 $191 forward $71 $-1 #
coedge $-1 $192 $73 $188 $193 forward $45 $-1 #
coedge $-1 $73 $192 $129 $194 forward $45 $-1 #
edge $-1 $132 1.7942048699627478 $195 6.1682859088445241 $73 $196 forward 7 unknown #
coedge $-1 $75 $74 $197 $198 forward $29 $-1 #
coedge $-1 $199 $200 $74 $128 forward $201 $-1 #
edge $-1 $202 -6.1682859088445241 $133 -1.7942048699627478 $127 $203 forward 7 unknown #
coedge $-1 $204 $76 $124 $194 reversed $131 $-1 #
coedge $-1 $76 $204 $199 $205 reversed $131 $-1 #
loop $-1 $-1 $76 $119 #
vertex $-1 $125 $206 #
vertex $-1 $205 $207 #
straight-curve $-1 -40.828882717368082 -1.7942048699627478 0 0 0 1 I I #
face $-1 $-1 $208 $17 $-1 $209 reversed single #
loop $-1 $-1 $84 $78 #
plane-surface $-1 0 0 8.2228266687151681 0 0 1 1 0 0 forward_v I I I I #
coedge $-1 $210 $211 $212 $213 reversed $79 $-1 #
coedge $-1 $214 $81 $83 $145 forward $49 $-1 #
coedge $-1 $81 $214 $210 $215 forward $49 $-1 #
coedge $-1 $212 $84 $81 $142 forward $136 $-1 #
edge $-1 $148 3.0953063748814476 $216 16.598049500249388 $141 $217 forward 7 unknown #
coedge $-1 $218 $219 $82 $144 forward $208 $-1 #
edge $-1 $220 -31.244576961475332 $147 -24.879793155311294 $143 $221 forward 7 unknown #
edge $-1 $148 -10.338122460853654 $220 0 $83 $222 forward 7 unknown #
coedge $-1 $84 $212 $218 $223 forward $136 $-1 #
vertex $-1 $85 $224 #
vertex $-1 $85 $225 #
straight-curve $-1 -12.941984312446865 -34.256699588597243 8.2228266687151681 0 1 0 I I #
coedge $-1 $150 $150 $-1 $226 reversed $88 $-1 #
edge $-1 $227 0 $227 6.2831853071796004 $89 $228 forward 7 unknown #
vertex $-1 $92 $229 #
ellipse-curve $-1 -22.586800830566823 -14.166582402945302 5.0404347656331501 0 -0.61566148304635926 0.78801074757464917 1 0 0 1 I I #
coedge $-1 $154 $154 $-1 $230 reversed $95 $-1 #
edge $-1 $231 0 $231 6.2831853071796004 $96 $232 forward 7 unknown #
vertex $-1 $99 $233 #
ellipse-curve $-1 -16.799910919694849 -14.166582402945302 5.0404347656331501 0 -0.61566148304635926 0.78801074757464917 1 0 0 1 I I #
face $-1 $-1 $115 $15 $-1 $234 reversed single #
loop $-1 $-1 $174 $100 #
plane-surface $-1 0 18.239858207393084 0 0 -1 0 0 0 -1 forward_v I I I I #
coedge $-1 $235 $172 $175 $236 forward $101 $-1 #
coedge $-1 $178 $103 $104 $166 reversed $63 $-1 #
coedge $-1 $172 $235 $103 $164 reversed $101 $-1 #
edge $-1 $179 -8.2228266687151681 $237 8.2228266687151681 $163 $238 forward 7 unknown #
coedge $-1 $105 $104 $235 $239 forward $41 $-1 #
edge $-1 $170 -40.828882717368082 $237 40.828882717368082 $162 $240 forward 7 unknown #
coedge $-1 $175 $174 $105 $168 reversed $159 $-1 #
edge $-1 $241 -40.828882717368082 $169 40.828882717368082 $167 $242 forward 7 unknown #
vertex $-1 $107 $243 #
vertex $-1 $181 $244 #
straight-curve $-1 40.828882717368082 0 -8.2228266687151681 0 -1 0 I I #
coedge $-1 $161 $163 $108 $173 reversed $101 $-1 #
edge $-1 $176 -18.239858207393084 $179 18.239858207393084 $172 $245 forward 7 unknown #
coedge $-1 $167 $109 $114 $182 forward $159 $-1 #
coedge $-1 $109 $167 $161 $236 reversed $159 $-1 #
vertex $-1 $110 $246 #
straight-curve $-1 0 18.239858207393084 8.2228266687151681 -1 0 0 I I #
coedge $-1 $111 $162 $113 $181 reversed $63 $-1 #
vertex $-1 $173 $247 #
straight-curve $-1 0 -18.239858207393084 8.2228266687151681 1 0 0 I I #
edge $-1 $116 -8.2228266687151681 $170 8.2228266687151681 $113 $248 forward 7 unknown #
edge $-1 $117 -8.2228266687151681 $169 8.2228266687151681 $114 $249 forward 7 unknown #
point $-1 40.828882717368082 -18.239858207393084 8.2228266687151681 #
point $-1 40.828882717368082 18.239858207393084 8.2228266687151681 #
face $-1 $-1 $201 $16 $-1 $250 forward single #
plane-surface $-1 -44.96779246940477 -1.7942048699627478 0 0 -1 0 0 0 -1 forward_v I I I I #
coedge $-1 $251 $252 $204 $253 forward $120 $-1 #
coedge $-1 $197 $122 $123 $193 reversed $71 $-1 #
coedge $-1 $122 $197 $200 $254 reversed $71 $-1 #
coedge $-1 $252 $251 $122 $191 reversed $120 $-1 #
edge $-1 $255 -8.2228266687151681 $256 8.2228266687151681 $190 $257 forward 7 unknown #
coedge $-1 $124 $123 $251 $258 forward $45 $-1 #
edge $-1 $195 -4.1389097520366889 $256 4.1389097520366889 $188 $259 forward 7 unknown #
edge $-1 $260 -4.1389097520366889 $132 4.1389097520366889 $129 $261 forward 7 unknown #
vertex $-1 $193 $262 #
straight-curve $-1 -40.828882717368082 0 -8.2228266687151681 0 -1 0 I I #
coedge $-1 $189 $188 $126 $198 reversed $71 $-1 #
edge $-1 $202 -8.2228266687151681 $195 8.2228266687151681 $197 $263 forward 7 unknown #
coedge $-1 $264 $127 $130 $205 forward $201 $-1 #
coedge $-1 $127 $264 $189 $254 forward $201 $-1 #
loop $-1 $-1 $127 $185 #
vertex $-1 $128 $265 #
straight-curve $-1 -40.828882717368082 0 8.2228266687151681 0 1 0 I I #
coedge $-1 $130 $129 $187 $253 reversed $131 $-1 #
edge $-1 $133 -4.1389097520366889 $266 4.1389097520366889 $130 $267 forward 7 unknown #
point $-1 -40.828882717368082 -1.7942048699627478 -8.2228266687151681 #
point $-1 -40.828882717368082 -1.7942048699627478 8.2228266687151681 #
loop $-1 $-1 $143 $135 #
plane-surface $-1 0 -18.239858207393084 0 0 1 0 0 0 1 forward_v I I I I #
coedge $-1 $211 $138 $140 $215 reversed $79 $-1 #
coedge $-1 $138 $210 $268 $269 reversed $79 $-1 #
coedge $-1 $146 $141 $138 $213 forward $136 $-1 #
edge $-1 $216 -24.16339299009972 $270 -16.016841381204159 $212 $271 forward 7 unknown #
coedge $-1 $140 $139 $219 $272 reversed $49 $-1 #
edge $-1 $273 0 $216 10.338122460853654 $210 $274 forward 7 unknown #
vertex $-1 $142 $275 #
straight-curve $-1 -9.846677937565417 -10.093306598497524 8.2228266687151681 -1 0 0 I I #
coedge $-1 $268 $143 $146 $223 reversed $208 $-1 #
coedge $-1 $143 $268 $214 $272 forward $208 $-1 #
vertex $-1 $144 $276 #
straight-curve $-1 -12.941984312446865 -18.239858207393084 33.102619824026462 0 0 1 I I #
straight-curve $-1 -12.941984312446865 -18.239858207393084 1.8580428625511303 0 -0.78801074757464917 -0.61566148304635926 I I #
edge $-1 $270 -26.444727437814805 $147 -12.941984312446865 $218 $277 forward 7 unknown #
point $-1 -12.941984312446865 -18.239858207393084 8.2228266687151681 #
point $-1 -12.941984312446865 -10.093306598497524 8.2228266687151681 #
edge $-1 $278 1 $278 0 $150 $-1 forward 7 unknown #
vertex $-1 $151 $279 #
ellipse-curve $-1 -22.586800830566823 -13.011881267592749 3.5624847396024553 0 -0.61566148304635926 0.78801074757464917 1 0 0 1 I I #
point $-1 -21.586800830566823 -14.1665824029453 5.0404347656331456 #
edge $-1 $280 1 $280 0 $154 $-1 forward 7 unknown #
vertex $-1 $155 $281 #
ellipse-curve $-1 -16.799910919694849 -13.011881267592749 3.5624847396024553 0 -0.61566148304635926 0.78801074757464917 1 0 0 1 I I #
point $-1 -15.799910919694849 -14.1665824029453 5.0404347656331456 #
plane-surface $-1 40.828882717368082 0 0 -1 0 0 0 0 1 forward_v I I I I #
coedge $-1 $163 $161 $165 $239 reversed $101 $-1 #
edge $-1 $176 -8.2228266687151681 $241 8.2228266687151681 $175 $282 forward 7 unknown #
vertex $-1 $239 $283 #
straight-curve $-1 -40.828882717368082 -18.239858207393084 0 0 0 -1 I I #
edge $-1 $237 -18.239858207393084 $241 18.239858207393084 $235 $284 forward 7 unknown #
straight-curve $-1 0 -18.239858207393084 -8.2228266687151681 -1 0 0 I I #
vertex $-1 $168 $285 #
straight-curve $-1 0 18.239858207393084 -8.2228266687151681 1 0 0 I I #
point $-1 40.828882717368082 18.239858207393084 -8.2228266687151681 #
point $-1 40.828882717368082 -18.239858207393084 -8.2228266687151681 #
straight-curve $-1 -40.828882717368082 0 8.2228266687151681 0 -1 0 I I #
point $-1 -40.828882717368082 18.239858207393084 8.2228266687151681 #
point $-1 -40.828882717368082 -18.239858207393084 8.2228266687151681 #
straight-curve $-1 40.828882717368082 -18.239858207393084 0 0 0 -1 I I #
straight-curve $-1 40.828882717368082 18.239858207393084 0 0 0 -1 I I #
plane-surface $-1 0 0 8.2228266687151681 0 0 1 1 0 0 forward_v I I I I #
coedge $-1 $190 $187 $192 $258 reversed $120 $-1 #
coedge $-1 $187 $190 $264 $286 reversed $120 $-1 #
edge $-1 $266 -8.2228266687151681 $260 8.2228266687151681 $204 $287 forward 7 unknown #
edge $-1 $255 -4.1389097520366889 $202 4.1389097520366889 $189 $288 forward 7 unknown #
vertex $-1 $286 $289 #
vertex $-1 $258 $290 #
straight-curve $-1 -49.106702221441459 -6.1682859088445241 0 0 0 -1 I I #
edge $-1 $256 -2.1870405194408882 $260 2.1870405194408882 $251 $291 forward 7 unknown #
straight-curve $-1 -44.96779246940477 -6.1682859088445241 -8.2228266687151681 -1 0 0 I I #
vertex $-1 $194 $292 #
straight-curve $-1 -44.96779246940477 -1.7942048699627478 -8.2228266687151681 1 0 0 I I #
point $-1 -40.828882717368082 -6.1682859088445241 -8.2228266687151681 #
straight-curve $-1 -40.828882717368082 -6.1682859088445241 0 0 0 -1 I I #
coedge $-1 $200 $199 $252 $286 forward $201 $-1 #
point $-1 -40.828882717368082 -6.1682859088445241 8.2228266687151681 #
vertex $-1 $205 $293 #
straight-curve $-1 -44.96779246940477 -1.7942048699627478 8.2228266687151681 -1 0 0 I I #
coedge $-1 $219 $218 $211 $269 forward $208 $-1 #
edge $-1 $270 24.879793155311294 $273 31.244576961475332 $268 $294 forward 7 unknown #
vertex $-1 $223 $295 #
straight-curve $-1 -26.444727437814805 -34.256699588597243 8.2228266687151681 0 -1 0 I I #
edge $-1 $273 -16.598049500249388 $220 -3.0953063748814476 $219 $296 forward 7 unknown #
vertex $-1 $272 $297 #
straight-curve $-1 -26.444727437814805 -18.239858207393084 1.8580428625511303 0 0.78801074757464917 0.61566148304635926 I I #
point $-1 -26.444727437814805 -10.093306598497524 8.2228266687151681 #
point $-1 -12.941984312446865 -18.239858207393084 1.8580428625511303 #
straight-curve $-1 0 -18.239858207393084 8.2228266687151681 1 0 0 I I #
vertex $-1 $226 $298 #
point $-1 -21.586800830566823 -13.011881267592749 3.5624847396024553 #
vertex $-1 $230 $299 #
point $-1 -15.799910919694849 -13.011881267592749 3.5624847396024553 #
straight-curve $-1 -40.828882717368082 18.239858207393084 0 0 0 -1 I I #
point $-1 -40.828882717368082 -18.239858207393084 -8.2228266687151681 #
straight-curve $-1 -40.828882717368082 0 -8.2228266687151681 0 1 0 I I #
point $-1 -40.828882717368082 18.239858207393084 -8.2228266687151681 #
edge $-1 $266 -2.1870405194408882 $255 2.1870405194408882 $252 $300 forward 7 unknown #
straight-curve $-1 -49.106702221441459 -1.7942048699627478 0 0 0 -1 I I #
straight-curve $-1 -44.96779246940477 -6.1682859088445241 8.2228266687151681 1 0 0 I I #
point $-1 -49.106702221441459 -6.1682859088445241 8.2228266687151681 #
point $-1 -49.106702221441459 -6.1682859088445241 -8.2228266687151681 #
straight-curve $-1 -49.106702221441459 -3.9812453894036359 -8.2228266687151681 0 1 0 I I #
point $-1 -49.106702221441459 -1.7942048699627478 -8.2228266687151681 #
point $-1 -49.106702221441459 -1.7942048699627478 8.2228266687151681 #
straight-curve $-1 -26.444727437814805 -18.239858207393084 33.102619824026462 0 0 -1 I I #
point $-1 -26.444727437814805 -18.239858207393084 8.2228266687151681 #
straight-curve $-1 -9.846677937565417 -18.239858207393084 1.8580428625511305 1 0 0 I I #
point $-1 -26.444727437814805 -18.239858207393084 1.8580428625511303 #
point $-1 -22.586800830566823 -12.396219784546389 2.7744739920278061 #
point $-1 -16.799910919694849 -12.396219784546389 2.7744739920278061 #
straight-curve $-1 -49.106702221441459 -3.9812453894036359 8.2228266687151681 0 -1 0 I I #
End-of-ACIS-data 