500 0 12 0           
7 Unknown 11 ACIS 5.0 NT 24 Thu Mar 25 16:55:31 1999 
-1 9.9999999999999995e-007 1e-010 
body $-1 $12 $-1 $13 #
body $-1 $14 $-1 $15 #
body $-1 $16 $-1 $17 #
body $-1 $18 $-1 $19 #
body $-1 $20 $-1 $21 #
body $-1 $22 $-1 $23 #
body $-1 $24 $-1 $25 #
body $-1 $26 $-1 $27 #
body $-1 $28 $-1 $29 #
body $-1 $30 $-1 $31 #
body $-1 $32 $-1 $33 #
body $-1 $34 $-1 $35 #
lump $-1 $-1 $36 $0 #
transform $-1 1 0 0 0 1 0 0 0 1 62.879116183965571 42.026937461780896 20.400899214860708 1 rotate no_reflect no_shear #
lump $-1 $-1 $37 $1 #
transform $-1 1 0 0 0 1 0 0 0 1 62.879116183965571 42.026937461780896 20.400899214860708 1 rotate no_reflect no_shear #
lump $-1 $-1 $38 $2 #
transform $-1 1 0 0 0 1 0 0 0 1 62.879116183965571 42.026937461780896 20.400899214860708 1 rotate no_reflect no_shear #
lump $-1 $-1 $39 $3 #
transform $-1 1 0 0 0 1 0 0 0 1 62.879116183965571 42.026937461780896 20.400899214860708 1 rotate no_reflect no_shear #
lump $-1 $-1 $40 $4 #
transform $-1 1 0 0 0 1 0 0 0 1 62.879116183965571 42.026937461780896 20.400899214860708 1 rotate no_reflect no_shear #
lump $-1 $-1 $41 $5 #
transform $-1 1 0 0 0 1 0 0 0 1 62.879116183965571 42.026937461780896 20.400899214860708 1 rotate no_reflect no_shear #
lump $-1 $-1 $42 $6 #
transform $-1 1 0 0 0 1 0 0 0 1 62.879116183965571 42.026937461780896 20.400899214860708 1 rotate no_reflect no_shear #
lump $-1 $-1 $43 $7 #
transform $-1 1 0 0 0 1 0 0 0 1 62.879116183965571 42.026937461780896 20.400899214860708 1 rotate no_reflect no_shear #
lump $-1 $-1 $44 $8 #
transform $-1 1 0 0 0 1 0 0 0 1 62.879116183965571 42.026937461780896 20.400899214860708 1 rotate no_reflect no_shear #
lump $-1 $-1 $45 $9 #
transform $-1 1 0 0 0 1 0 0 0 1 62.879116183965571 42.026937461780896 20.400899214860708 1 rotate no_reflect no_shear #
lump $-1 $-1 $46 $10 #
transform $-1 1 0 0 0 1 0 0 0 1 62.879116183965571 42.026937461780896 20.400899214860708 1 rotate no_reflect no_shear #
lump $-1 $-1 $47 $11 #
transform $-1 1 0 0 0 1 0 0 0 1 62.879116183965571 42.026937461780896 20.400899214860708 1 rotate no_reflect no_shear #
shell $-1 $-1 $-1 $48 $-1 $12 #
shell $-1 $-1 $-1 $49 $-1 $14 #
shell $-1 $-1 $-1 $50 $-1 $16 #
shell $-1 $-1 $-1 $51 $-1 $18 #
shell $-1 $-1 $-1 $52 $-1 $20 #
shell $-1 $-1 $-1 $53 $-1 $22 #
shell $-1 $-1 $-1 $54 $-1 $24 #
shell $-1 $-1 $-1 $55 $-1 $26 #
shell $-1 $-1 $-1 $56 $-1 $28 #
shell $-1 $-1 $-1 $57 $-1 $30 #
shell $-1 $-1 $-1 $58 $-1 $32 #
shell $-1 $-1 $-1 $59 $-1 $34 #
face $-1 $60 $61 $36 $-1 $62 forward single #
face $-1 $63 $64 $37 $-1 $65 reversed single #
face $-1 $66 $67 $38 $-1 $68 reversed single #
face $-1 $69 $70 $39 $-1 $71 forward single #
face $-1 $72 $73 $40 $-1 $74 reversed single #
face $-1 $75 $76 $41 $-1 $77 forward single #
face $-1 $78 $79 $42 $-1 $80 reversed single #
face $-1 $81 $82 $43 $-1 $83 forward single #
face $-1 $84 $85 $44 $-1 $86 forward single #
face $-1 $87 $88 $45 $-1 $89 reversed single #
face $-1 $90 $91 $46 $-1 $92 forward single #
face $-1 $93 $94 $47 $-1 $95 forward single #
face $-1 $96 $97 $36 $-1 $98 reversed single #
loop $-1 $-1 $99 $48 #
plane-surface $-1 0 0 20.400899214860708 0 0 1 1 0 0 forward_v I I I I #
face $-1 $100 $101 $37 $-1 $102 reversed single #
loop $-1 $-1 $103 $49 #
plane-surface $-1 -51.513909527272936 0 14.58987737178747 0 0 1 1 0 0 forward_v I I I I #
face $-1 $104 $105 $38 $-1 $106 reversed single #
loop $-1 $-1 $107 $50 #
plane-surface $-1 -2.2172604476551854 -126.17562075279864 101.40214146656757 -1 0 0 0 -0.66913061440640931 0.74314481823134659 forward_v I I I I #
face $-1 $108 $109 $39 $-1 $110 forward single #
loop $-1 $111 $112 $51 #
cone-surface $-1 -12.292791288863206 -32.528907171308198 11.306180215348602 0 0.66913061440640931 -0.74314481823134659 2 0 0 1 I I 0 1 2 forward I I I I #
face $-1 $113 $114 $40 $-1 $115 reversed single #
loop $-1 $-1 $116 $52 #
plane-surface $-1 45.098735443456498 -126.17562075279864 101.40214146656757 -1 0 0 0 -0.66913061440640931 0.74314481823134659 forward_v I I I I #
face $-1 $117 $118 $41 $-1 $119 forward single #
loop $-1 $120 $121 $53 #
cone-surface $-1 35.023204602248477 -32.528907171308198 11.306180215348602 0 0.66913061440640931 -0.74314481823134659 2 0 0 1 I I 0 1 2 forward I I I I #
face $-1 $122 $123 $42 $-1 $124 reversed single #
loop $-1 $-1 $125 $54 #
plane-surface $-1 -31.035078384676765 -13.117365302013837 71.588937396707763 0 0.75470958851134928 0.65605901945558964 1 0 0 forward_v I I I I #
face $-1 $126 $127 $43 $-1 $128 forward single #
loop $-1 $129 $130 $55 #
cone-surface $-1 -34.940917450063999 32.945153201114756 11.009855177554291 0 -0.75470958851134928 -0.65605901945558964 2.5 0 0 1 I I 0 1 2.5 forward I I I I #
face $-1 $131 $132 $44 $-1 $133 forward single #
loop $-1 $134 $135 $56 #
cone-surface $-1 -27.129239319289539 32.945153201114756 11.009855177554291 0 -0.75470958851134928 -0.65605901945558964 2.5 0 0 1 I I 0 1 2.5 forward I I I I #
face $-1 $136 $137 $45 $-1 $138 reversed single #
loop $-1 $-1 $139 $57 #
plane-surface $-1 11.365206656692633 81.793578500302118 154.09376001248086 1 0 0 0 -0.75470958851134928 -0.65605901945558964 forward_v I I I I #
face $-1 $140 $141 $46 $-1 $142 forward single #
loop $-1 $143 $144 $58 #
cone-surface $-1 16.572992077208944 32.945153201114756 11.009855177554291 0 -0.75470958851134928 -0.65605901945558964 2.5 0 0 1 I I 0 1 2.5 forward I I I I #
face $-1 $145 $146 $47 $-1 $147 forward single #
loop $-1 $148 $149 $59 #
cone-surface $-1 24.384670207983397 32.945153201114756 11.009855177554291 0 -0.75470958851134928 -0.65605901945558964 2.5 0 0 1 I I 0 1 2.5 forward I I I I #
face $-1 $150 $151 $36 $-1 $152 reversed single #
loop $-1 $-1 $153 $60 #
plane-surface $-1 0 0 -20.400899214860708 0 0 1 1 0 0 forward_v I I I I #
coedge $-1 $154 $155 $156 $157 forward $61 $-1 #
face $-1 $158 $159 $37 $-1 $160 reversed single #
loop $-1 $-1 $161 $63 #
plane-surface $-1 -40.148702870580301 0 17.495388293324091 -1 0 0 0 0 1 forward_v I I I I #
coedge $-1 $162 $163 $164 $165 forward $64 $-1 #
face $-1 $166 $167 $38 $-1 $168 reversed single #
loop $-1 $-1 $169 $66 #
plane-surface $-1 -12.292791288863206 -42.026937461780889 7.9455627324059463 0 -0.66913061440640931 0.74314481823134659 1 0 0 forward_v I I I I #
coedge $-1 $170 $171 $172 $173 reversed $67 $-1 #
face $-1 $-1 $174 $39 $-1 $175 forward single #
loop $-1 $176 $177 $69 #
cone-surface $-1 -12.292791288863206 -29.278272402716592 7.6959846388325275 0 0.66913061440640931 -0.74314481823134659 1 0 0 1 I I -0.70710678118654746 0.70710678118654746 1 forward I I I I #
loop $-1 $-1 $178 $51 #
coedge $-1 $112 $112 $179 $180 reversed $70 $-1 #
face $-1 $181 $182 $40 $-1 $183 reversed single #
loop $-1 $-1 $184 $72 #
plane-surface $-1 35.023204602248477 -42.026937461780889 7.9455627324059463 0 -0.66913061440640931 0.74314481823134659 1 0 0 forward_v I I I I #
coedge $-1 $185 $186 $187 $188 reversed $73 $-1 #
face $-1 $-1 $189 $41 $-1 $190 forward single #
loop $-1 $191 $192 $75 #
cone-surface $-1 35.023204602248477 -29.278272402716592 7.6959846388325275 0 0.66913061440640931 -0.74314481823134659 1 0 0 1 I I -0.70710678118654746 0.70710678118654746 1 forward I I I I #
loop $-1 $-1 $193 $53 #
coedge $-1 $121 $121 $194 $195 reversed $76 $-1 #
face $-1 $196 $197 $42 $-1 $198 forward single #
loop $-1 $-1 $199 $78 #
plane-surface $-1 -21.92145389877323 81.793578500302118 154.09376001248086 -1 0 0 0 0.75470958851134928 0.65605901945558964 forward_v I I I I #
coedge $-1 $200 $201 $202 $203 reversed $79 $-1 #
face $-1 $-1 $204 $43 $-1 $205 forward single #
loop $-1 $206 $207 $81 #
cone-surface $-1 -34.940917450063999 28.243592541247672 6.9228509531777362 0 -0.75470958851134928 -0.65605901945558964 1.25 0 0 1 I I -0.70710678118654746 0.70710678118654746 1.25 forward I I I I #
loop $-1 $-1 $208 $55 #
coedge $-1 $130 $130 $209 $210 reversed $82 $-1 #
face $-1 $-1 $211 $44 $-1 $212 forward single #
loop $-1 $213 $214 $84 #
cone-surface $-1 -27.129239319289539 28.243592541247672 6.9228509531777362 0 -0.75470958851134928 -0.65605901945558964 1.25 0 0 1 I I -0.70710678118654746 0.70710678118654746 1.25 forward I I I I #
loop $-1 $-1 $215 $56 #
coedge $-1 $135 $135 $216 $217 reversed $85 $-1 #
face $-1 $218 $219 $45 $-1 $220 reversed single #
loop $-1 $-1 $221 $87 #
plane-surface $-1 20.478831142596171 -13.117365302013837 71.588937396707763 0 0.75470958851134928 0.65605901945558964 1 0 0 forward_v I I I I #
coedge $-1 $222 $223 $224 $225 reversed $88 $-1 #
face $-1 $-1 $226 $46 $-1 $227 forward single #
loop $-1 $228 $229 $90 #
cone-surface $-1 16.572992077208944 28.243592541247672 6.9228509531777362 0 -0.75470958851134928 -0.65605901945558964 1.25 0 0 1 I I -0.70710678118654746 0.70710678118654746 1.25 forward I I I I #
loop $-1 $-1 $230 $58 #
coedge $-1 $144 $144 $231 $232 reversed $91 $-1 #
face $-1 $-1 $233 $47 $-1 $234 forward single #
loop $-1 $235 $236 $93 #
cone-surface $-1 24.384670207983397 28.243592541247672 6.9228509531777362 0 -0.75470958851134928 -0.65605901945558964 1.25 0 0 1 I I -0.70710678118654746 0.70710678118654746 1.25 forward I I I I #
loop $-1 $-1 $237 $59 #
coedge $-1 $149 $149 $238 $239 reversed $94 $-1 #
face $-1 $240 $241 $36 $-1 $242 reversed single #
loop $-1 $-1 $243 $96 #
plane-surface $-1 0 -42.026937461780896 0 0 1 0 0 0 1 forward_v I I I I #
coedge $-1 $244 $245 $246 $247 forward $97 $-1 #
coedge $-1 $248 $99 $249 $250 forward $61 $-1 #
coedge $-1 $99 $248 $251 $252 forward $61 $-1 #
coedge $-1 $253 $254 $99 $157 reversed $255 $-1 #
edge $-1 $256 -42.026937461780896 $257 42.026937461780896 $156 $258 forward 7 unknown #
face $-1 $259 $260 $37 $-1 $261 reversed single #
loop $-1 $-1 $262 $100 #
plane-surface $-1 0 42.026937461780896 0 0 -1 0 0 0 -1 forward_v I I I I #
coedge $-1 $263 $264 $265 $266 reversed $101 $-1 #
coedge $-1 $267 $103 $268 $269 reversed $64 $-1 #
coedge $-1 $103 $267 $270 $271 reversed $64 $-1 #
coedge $-1 $264 $263 $103 $165 reversed $101 $-1 #
edge $-1 $272 -42.026937461780896 $273 42.026937461780896 $164 $274 forward 7 unknown #
face $-1 $275 $276 $38 $-1 $277 reversed single #
loop $-1 $-1 $278 $104 #
plane-surface $-1 -22.368322130071228 -126.17562075279864 101.40214146656757 1 0 0 0 0.66913061440640931 -0.74314481823134659 forward_v I I I I #
coedge $-1 $279 $280 $281 $282 reversed $105 $-1 #
coedge $-1 $171 $107 $283 $284 reversed $67 $-1 #
coedge $-1 $107 $170 $279 $285 reversed $67 $-1 #
coedge $-1 $281 $286 $107 $173 forward $287 $-1 #
edge $-1 $288 21.060872914618422 $289 34.893925187193453 $172 $290 forward 7 unknown #
loop $-1 $-1 $179 $108 #
plane-surface $-1 -12.292791288863206 -42.026937461780889 7.9455627324059463 0 -0.66913061440640931 0.74314481823134659 1 0 0 forward_v I I I I #
loop $-1 $-1 $291 $69 #
coedge $-1 $177 $177 $178 $292 reversed $109 $-1 #
coedge $-1 $178 $178 $177 $292 forward $111 $-1 #
coedge $-1 $179 $179 $112 $180 forward $174 $-1 #
edge $-1 $293 3.3135609732207542e-016 $293 6.2831853071796004 $179 $294 forward 7 unknown #
face $-1 $295 $296 $40 $-1 $297 reversed single #
loop $-1 $-1 $298 $113 #
plane-surface $-1 24.947673761040456 -126.17562075279864 101.40214146656757 1 0 0 0 0.66913061440640931 -0.74314481823134659 forward_v I I I I #
coedge $-1 $299 $300 $301 $302 reversed $114 $-1 #
coedge $-1 $186 $116 $303 $304 reversed $73 $-1 #
coedge $-1 $116 $185 $299 $305 reversed $73 $-1 #
coedge $-1 $301 $306 $116 $188 forward $307 $-1 #
edge $-1 $308 21.060872914618422 $309 34.893925187193453 $187 $310 forward 7 unknown #
loop $-1 $-1 $194 $117 #
plane-surface $-1 35.023204602248477 -42.026937461780889 7.9455627324059463 0 -0.66913061440640931 0.74314481823134659 1 0 0 forward_v I I I I #
loop $-1 $-1 $311 $75 #
coedge $-1 $192 $192 $193 $312 reversed $118 $-1 #
coedge $-1 $193 $193 $192 $312 forward $120 $-1 #
coedge $-1 $194 $194 $121 $195 forward $189 $-1 #
edge $-1 $313 3.3135609732207542e-016 $313 6.2831853071796004 $194 $314 forward 7 unknown #
face $-1 $315 $316 $42 $-1 $317 reversed single #
loop $-1 $-1 $202 $122 #
plane-surface $-1 0 0 20.400899214860708 0 0 1 1 0 0 forward_v I I I I #
coedge $-1 $318 $319 $320 $321 reversed $123 $-1 #
coedge $-1 $322 $125 $323 $324 reversed $79 $-1 #
coedge $-1 $125 $322 $318 $325 forward $79 $-1 #
coedge $-1 $320 $326 $125 $203 forward $197 $-1 #
edge $-1 $327 -24.631163678241919 $328 -6.4039147064348469 $202 $329 forward 7 unknown #
loop $-1 $-1 $209 $126 #
plane-surface $-1 -31.035078384676765 -13.117365302013837 71.588937396707763 0 0.75470958851134928 0.65605901945558964 1 0 0 forward_v I I I I #
loop $-1 $-1 $330 $81 #
coedge $-1 $207 $207 $208 $331 reversed $127 $-1 #
coedge $-1 $208 $208 $207 $331 forward $129 $-1 #
coedge $-1 $209 $209 $130 $210 forward $204 $-1 #
edge $-1 $332 2.8038178088468054e-016 $332 6.2831853071796004 $209 $333 forward 7 unknown #
loop $-1 $-1 $216 $131 #
plane-surface $-1 -31.035078384676765 -13.117365302013837 71.588937396707763 0 0.75470958851134928 0.65605901945558964 1 0 0 forward_v I I I I #
loop $-1 $-1 $334 $84 #
coedge $-1 $214 $214 $215 $335 reversed $132 $-1 #
coedge $-1 $215 $215 $214 $335 forward $134 $-1 #
coedge $-1 $216 $216 $135 $217 forward $211 $-1 #
edge $-1 $336 2.8038178088468054e-016 $336 6.2831853071796004 $216 $337 forward 7 unknown #
face $-1 $338 $339 $45 $-1 $340 forward single #
loop $-1 $-1 $341 $136 #
plane-surface $-1 29.592455628499707 81.793578500302118 154.09376001248086 -1 0 0 0 0.75470958851134928 0.65605901945558964 forward_v I I I I #
coedge $-1 $342 $343 $344 $345 reversed $137 $-1 #
coedge $-1 $223 $139 $346 $347 reversed $88 $-1 #
coedge $-1 $139 $222 $342 $348 reversed $88 $-1 #
coedge $-1 $344 $349 $139 $225 forward $339 $-1 #
edge $-1 $350 -1.1301482116298374 $351 9.5170729612466261 $224 $352 forward 7 unknown #
loop $-1 $-1 $231 $140 #
plane-surface $-1 20.478831142596171 -13.117365302013837 71.588937396707763 0 0.75470958851134928 0.65605901945558964 1 0 0 forward_v I I I I #
loop $-1 $-1 $353 $90 #
coedge $-1 $229 $229 $230 $354 reversed $141 $-1 #
coedge $-1 $230 $230 $229 $354 forward $143 $-1 #
coedge $-1 $231 $231 $144 $232 forward $226 $-1 #
edge $-1 $355 2.8038178088468054e-016 $355 6.2831853071796004 $231 $356 forward 7 unknown #
loop $-1 $-1 $238 $145 #
plane-surface $-1 20.478831142596171 -13.117365302013837 71.588937396707763 0 0.75470958851134928 0.65605901945558964 1 0 0 forward_v I I I I #
loop $-1 $-1 $357 $93 #
coedge $-1 $236 $236 $237 $358 reversed $146 $-1 #
coedge $-1 $237 $237 $236 $358 forward $148 $-1 #
coedge $-1 $238 $238 $149 $239 forward $233 $-1 #
edge $-1 $359 2.8038178088468054e-016 $359 6.2831853071796004 $238 $360 forward 7 unknown #
face $-1 $361 $362 $36 $-1 $363 reversed single #
loop $-1 $-1 $364 $150 #
plane-surface $-1 -62.879116183965571 0 0 1 0 0 0 0 -1 forward_v I I I I #
coedge $-1 $365 $251 $366 $367 forward $151 $-1 #
coedge $-1 $368 $153 $365 $369 forward $97 $-1 #
coedge $-1 $153 $368 $370 $371 forward $97 $-1 #
coedge $-1 $254 $253 $153 $247 reversed $255 $-1 #
edge $-1 $372 -42.026937461780896 $373 42.026937461780896 $246 $374 forward 7 unknown #
coedge $-1 $155 $154 $375 $376 forward $61 $-1 #
coedge $-1 $377 $378 $154 $250 reversed $362 $-1 #
edge $-1 $257 -62.879116183965571 $379 62.879116183965571 $249 $380 forward 7 unknown #
coedge $-1 $243 $381 $155 $252 reversed $151 $-1 #
edge $-1 $382 -62.879116183965571 $256 62.879116183965571 $251 $383 forward 7 unknown #
coedge $-1 $246 $156 $381 $384 forward $255 $-1 #
coedge $-1 $156 $246 $377 $385 reversed $255 $-1 #
loop $-1 $-1 $253 $361 #
vertex $-1 $157 $386 #
vertex $-1 $157 $387 #
straight-curve $-1 62.879116183965571 0 20.400899214860708 0 1 0 I I #
face $-1 $388 $389 $37 $-1 $390 forward single #
loop $-1 $-1 $391 $158 #
plane-surface $-1 -62.879116183965571 0 0 1 0 0 0 0 -1 forward_v I I I I #
coedge $-1 $270 $392 $264 $393 forward $159 $-1 #
coedge $-1 $164 $161 $394 $395 reversed $101 $-1 #
coedge $-1 $161 $164 $262 $393 reversed $101 $-1 #
coedge $-1 $396 $397 $161 $266 forward $389 $-1 #
edge $-1 $398 -42.026937461780896 $399 42.026937461780896 $265 $400 forward 7 unknown #
coedge $-1 $163 $162 $391 $401 reversed $64 $-1 #
coedge $-1 $394 $402 $162 $269 forward $403 $-1 #
edge $-1 $404 -37.122161420329107 $273 -14.391748106943833 $268 $405 forward 7 unknown #
coedge $-1 $406 $262 $163 $271 forward $159 $-1 #
edge $-1 $272 14.391748106943833 $407 37.122161420329107 $270 $408 forward 7 unknown #
vertex $-1 $271 $409 #
vertex $-1 $269 $410 #
straight-curve $-1 -40.148702870580301 0 14.58987737178747 0 -1 0 I I #
face $-1 $-1 $287 $38 $-1 $411 forward single #
loop $-1 $-1 $412 $166 #
plane-surface $-1 0 -42.026937461780896 0 0 1 0 0 0 1 forward_v I I I I #
coedge $-1 $413 $414 $415 $416 reversed $167 $-1 #
coedge $-1 $417 $169 $171 $285 forward $105 $-1 #
coedge $-1 $169 $417 $413 $418 forward $105 $-1 #
coedge $-1 $415 $172 $169 $282 forward $287 $-1 #
edge $-1 $289 -3.9291351967764179 $419 16.221926485639624 $281 $420 forward 7 unknown #
coedge $-1 $421 $422 $170 $284 forward $276 $-1 #
edge $-1 $423 -42.755508000877846 $288 -30.300171518423078 $283 $424 forward 7 unknown #
edge $-1 $289 -18.614208069831001 $423 9.4405131238556439e-015 $171 $425 forward 7 unknown #
coedge $-1 $172 $415 $421 $426 forward $287 $-1 #
loop $-1 $-1 $415 $275 #
vertex $-1 $284 $427 #
vertex $-1 $173 $428 #
straight-curve $-1 -2.2172604476551854 -63.087810376399318 20.400899214860708 0 1 0 I I #
coedge $-1 $291 $291 $-1 $429 reversed $176 $-1 #
edge $-1 $430 0 $430 6.2831853071796004 $177 $431 forward 7 unknown #
vertex $-1 $180 $432 #
ellipse-curve $-1 -12.292791288863206 -35.110411325493381 14.173230973633322 0 -0.66913061440640931 0.74314481823134659 2 0 0 1 I I #
face $-1 $-1 $307 $40 $-1 $433 forward single #
loop $-1 $-1 $434 $181 #
plane-surface $-1 0 -42.026937461780896 0 0 1 0 0 0 1 forward_v I I I I #
coedge $-1 $435 $436 $437 $438 reversed $182 $-1 #
coedge $-1 $439 $184 $186 $305 forward $114 $-1 #
coedge $-1 $184 $439 $435 $440 forward $114 $-1 #
coedge $-1 $437 $187 $184 $302 forward $307 $-1 #
edge $-1 $309 -27.587133142332259 $441 -7.4360714599162172 $301 $442 forward 7 unknown #
coedge $-1 $443 $444 $185 $304 forward $296 $-1 #
edge $-1 $445 -42.755508000877846 $308 -30.300171518423078 $303 $446 forward 7 unknown #
edge $-1 $309 -18.614208069831001 $445 9.4405131238556439e-015 $186 $447 forward 7 unknown #
coedge $-1 $187 $437 $443 $448 forward $307 $-1 #
loop $-1 $-1 $437 $295 #
vertex $-1 $304 $449 #
vertex $-1 $188 $450 #
straight-curve $-1 45.098735443456498 -63.087810376399318 20.400899214860708 0 1 0 I I #
coedge $-1 $311 $311 $-1 $451 reversed $191 $-1 #
edge $-1 $452 0 $452 6.2831853071796004 $192 $453 forward 7 unknown #
vertex $-1 $195 $454 #
ellipse-curve $-1 35.023204602248477 -35.110411325493381 14.173230973633322 0 -0.66913061440640931 0.74314481823134659 2 0 0 1 I I #
face $-1 $-1 $455 $42 $-1 $456 forward single #
loop $-1 $-1 $457 $196 #
plane-surface $-1 0 42.026937461780896 0 0 -1 0 0 0 -1 forward_v I I I I #
coedge $-1 $319 $199 $201 $325 reversed $123 $-1 #
coedge $-1 $199 $318 $457 $458 reversed $123 $-1 #
coedge $-1 $459 $202 $199 $321 forward $197 $-1 #
edge $-1 $328 -9.5170729612466261 $460 1.1301482116298374 $320 $461 forward 7 unknown #
coedge $-1 $201 $200 $462 $463 reversed $79 $-1 #
coedge $-1 $464 $465 $200 $324 forward $455 $-1 #
edge $-1 $466 -59.338531922155241 $327 -43.109471948691677 $323 $467 forward 7 unknown #
edge $-1 $468 -84.053874923561821 $328 -67.824814950098258 $318 $469 forward 7 unknown #
coedge $-1 $202 $459 $464 $470 forward $197 $-1 #
vertex $-1 $324 $471 #
vertex $-1 $203 $472 #
straight-curve $-1 -15.517539192338383 31.379716288904433 20.400899214860708 1 0 0 I I #
coedge $-1 $330 $330 $-1 $473 reversed $206 $-1 #
edge $-1 $474 0 $474 6.2831853071796004 $207 $475 forward 7 unknown #
vertex $-1 $210 $476 #
ellipse-curve $-1 -34.940917450063999 36.703326875342661 14.276785627611364 0 0.75470958851134928 0.65605901945558964 2.5 0 0 1 I I #
coedge $-1 $334 $334 $-1 $477 reversed $213 $-1 #
edge $-1 $478 0 $478 6.2831853071796004 $214 $479 forward 7 unknown #
vertex $-1 $217 $480 #
ellipse-curve $-1 -27.129239319289539 36.703326875342661 14.276785627611364 0 0.75470958851134928 0.65605901945558964 2.5 0 0 1 I I #
face $-1 $-1 $481 $45 $-1 $482 reversed single #
loop $-1 $-1 $224 $218 #
plane-surface $-1 0 0 20.400899214860708 0 0 1 1 0 0 forward_v I I I I #
coedge $-1 $483 $484 $485 $486 reversed $219 $-1 #
coedge $-1 $487 $221 $223 $348 forward $137 $-1 #
coedge $-1 $221 $487 $483 $488 forward $137 $-1 #
coedge $-1 $485 $224 $221 $345 forward $339 $-1 #
edge $-1 $351 1.1257910853945479 $489 19.353040057201621 $344 $490 forward 7 unknown #
coedge $-1 $491 $492 $222 $347 forward $481 $-1 #
edge $-1 $493 -68.894207965878422 $350 -56.645980791379721 $346 $494 forward 7 unknown #
edge $-1 $351 67.824814950098258 $493 84.053874923561821 $223 $495 forward 7 unknown #
coedge $-1 $224 $485 $491 $496 forward $339 $-1 #
vertex $-1 $225 $497 #
vertex $-1 $225 $498 #
straight-curve $-1 11.365206656692633 40.896789250151059 20.400899214860715 0 -1 0 I I #
coedge $-1 $353 $353 $-1 $499 reversed $228 $-1 #
edge $-1 $500 0 $500 6.2831853071796004 $229 $501 forward 7 unknown #
vertex $-1 $232 $502 #
ellipse-curve $-1 16.572992077208944 36.703326875342661 14.276785627611364 0 0.75470958851134928 0.65605901945558964 2.5 0 0 1 I I #
coedge $-1 $357 $357 $-1 $503 reversed $235 $-1 #
edge $-1 $504 0 $504 6.2831853071796004 $236 $505 forward 7 unknown #
vertex $-1 $239 $506 #
ellipse-curve $-1 24.384670207983397 36.703326875342661 14.276785627611364 0 0.75470958851134928 0.65605901945558964 2.5 0 0 1 I I #
face $-1 $-1 $255 $36 $-1 $507 reversed single #
loop $-1 $-1 $377 $240 #
plane-surface $-1 0 42.026937461780896 0 0 -1 0 0 0 -1 forward_v I I I I #
coedge $-1 $508 $375 $378 $509 forward $241 $-1 #
coedge $-1 $381 $243 $244 $369 reversed $151 $-1 #
coedge $-1 $375 $508 $243 $367 reversed $241 $-1 #
edge $-1 $382 -20.400899214860708 $510 20.400899214860708 $366 $511 forward 7 unknown #
coedge $-1 $245 $244 $508 $512 forward $97 $-1 #
edge $-1 $373 -62.879116183965571 $510 62.879116183965571 $365 $513 forward 7 unknown #
coedge $-1 $378 $377 $245 $371 reversed $362 $-1 #
edge $-1 $514 -62.879116183965571 $372 62.879116183965571 $370 $515 forward 7 unknown #
vertex $-1 $247 $516 #
vertex $-1 $384 $517 #
straight-curve $-1 62.879116183965571 0 -20.400899214860708 0 -1 0 I I #
coedge $-1 $364 $366 $248 $376 reversed $241 $-1 #
edge $-1 $379 -42.026937461780896 $382 42.026937461780896 $375 $518 forward 7 unknown #
coedge $-1 $370 $249 $254 $385 forward $362 $-1 #
coedge $-1 $249 $370 $364 $509 reversed $362 $-1 #
vertex $-1 $250 $519 #
straight-curve $-1 0 42.026937461780896 20.400899214860708 -1 0 0 I I #
coedge $-1 $251 $365 $253 $384 reversed $151 $-1 #
vertex $-1 $376 $520 #
straight-curve $-1 0 -42.026937461780896 20.400899214860708 1 0 0 I I #
edge $-1 $256 -20.400899214860708 $373 20.400899214860708 $253 $521 forward 7 unknown #
edge $-1 $257 -20.400899214860708 $372 20.400899214860708 $254 $522 forward 7 unknown #
point $-1 62.879116183965571 -42.026937461780896 20.400899214860708 #
point $-1 62.879116183965571 42.026937461780896 20.400899214860708 #
face $-1 $-1 $403 $37 $-1 $523 reversed single #
loop $-1 $-1 $265 $259 #
plane-surface $-1 0 0 20.400899214860708 0 0 1 1 0 0 forward_v I I I I #
coedge $-1 $524 $525 $267 $401 forward $260 $-1 #
coedge $-1 $262 $406 $396 $526 reversed $159 $-1 #
edge $-1 $399 -11.653205068198666 $272 -5.8421832251254244 $262 $527 forward 7 unknown #
coedge $-1 $528 $268 $263 $395 forward $403 $-1 #
edge $-1 $273 5.8421832251254244 $398 11.653205068198666 $394 $529 forward 7 unknown #
coedge $-1 $530 $265 $392 $526 forward $389 $-1 #
coedge $-1 $265 $530 $528 $531 forward $389 $-1 #
vertex $-1 $395 $532 #
vertex $-1 $526 $533 #
straight-curve $-1 -40.148702870580301 0 20.400899214860708 0 1 0 I I #
edge $-1 $407 -42.026937461780896 $404 42.026937461780896 $391 $534 forward 7 unknown #
coedge $-1 $268 $528 $524 $535 forward $403 $-1 #
loop $-1 $-1 $394 $388 #
vertex $-1 $401 $536 #
straight-curve $-1 -25.756954763636468 -42.026937461780896 14.58987737178747 1 0 0 I I #
coedge $-1 $392 $270 $525 $537 reversed $159 $-1 #
vertex $-1 $401 $538 #
straight-curve $-1 -25.756954763636468 42.026937461780896 14.58987737178747 -1 0 0 I I #
point $-1 -40.148702870580301 42.026937461780896 14.58987737178747 #
point $-1 -40.148702870580301 -42.026937461780896 14.58987737178747 #
plane-surface $-1 0 0 20.400899214860708 0 0 1 1 0 0 forward_v I I I I #
coedge $-1 $422 $421 $414 $539 forward $276 $-1 #
coedge $-1 $414 $278 $280 $418 reversed $167 $-1 #
coedge $-1 $278 $413 $412 $539 reversed $167 $-1 #
coedge $-1 $286 $281 $278 $416 forward $287 $-1 #
edge $-1 $419 -34.893925187193453 $540 -21.060872914618422 $415 $541 forward 7 unknown #
coedge $-1 $280 $279 $422 $542 reversed $105 $-1 #
edge $-1 $543 -9.4405131238556439e-015 $419 18.614208069831001 $413 $544 forward 7 unknown #
vertex $-1 $282 $545 #
straight-curve $-1 -6.1463956444316032 -28.193885189205862 20.400899214860708 -1 0 0 I I #
coedge $-1 $412 $283 $286 $426 reversed $276 $-1 #
coedge $-1 $283 $412 $417 $542 forward $276 $-1 #
vertex $-1 $284 $546 #
straight-curve $-1 -2.2172604476551854 -42.026937461780896 50.701070733283785 0 0 1 I I #
straight-curve $-1 -2.2172604476551854 -42.026937461780889 7.9455627324059463 0 -0.74314481823134659 -0.66913061440640931 I I #
edge $-1 $540 -22.368322130071228 $288 -2.2172604476551854 $421 $547 forward 7 unknown #
point $-1 -2.2172604476551854 -42.026937461780896 20.400899214860708 #
point $-1 -2.2172604476551854 -28.193885189205865 20.400899214860708 #
edge $-1 $548 1 $548 0 $291 $-1 forward 7 unknown #
vertex $-1 $292 $549 #
ellipse-curve $-1 -12.292791288863206 -29.947403017123001 8.4391294570638742 0 -0.66913061440640931 0.74314481823134659 2 0 0 1 I I #
point $-1 -10.292791288863206 -35.110411325493388 14.173230973633331 #
plane-surface $-1 0 0 20.400899214860708 0 0 1 1 0 0 forward_v I I I I #
coedge $-1 $444 $443 $436 $550 forward $296 $-1 #
coedge $-1 $436 $298 $300 $440 reversed $182 $-1 #
coedge $-1 $298 $435 $434 $550 reversed $182 $-1 #
coedge $-1 $306 $301 $298 $438 forward $307 $-1 #
edge $-1 $441 -34.893925187193453 $551 -21.060872914618422 $437 $552 forward 7 unknown #
coedge $-1 $300 $299 $444 $553 reversed $114 $-1 #
edge $-1 $554 -9.4405131238556439e-015 $441 18.614208069831001 $435 $555 forward 7 unknown #
vertex $-1 $302 $556 #
straight-curve $-1 17.511602301124238 -28.193885189205862 20.400899214860708 -1 0 0 I I #
coedge $-1 $434 $303 $306 $448 reversed $296 $-1 #
coedge $-1 $303 $434 $439 $553 forward $296 $-1 #
vertex $-1 $304 $557 #
straight-curve $-1 45.098735443456498 -42.026937461780896 50.701070733283785 0 0 1 I I #
straight-curve $-1 45.098735443456498 -42.026937461780889 7.9455627324059463 0 -0.74314481823134659 -0.66913061440640931 I I #
edge $-1 $551 24.947673761040456 $308 45.098735443456498 $443 $558 forward 7 unknown #
point $-1 45.098735443456498 -42.026937461780896 20.400899214860708 #
point $-1 45.098735443456498 -28.193885189205865 20.400899214860708 #
edge $-1 $559 1 $559 0 $311 $-1 forward 7 unknown #
vertex $-1 $312 $560 #
ellipse-curve $-1 35.023204602248477 -29.947403017123001 8.4391294570638742 0 -0.66913061440640931 0.74314481823134659 2 0 0 1 I I #
point $-1 37.023204602248477 -35.110411325493388 14.173230973633331 #
loop $-1 $-1 $323 $315 #
plane-surface $-1 -40.148702870580301 0 17.495388293324091 -1 0 0 0 0 1 forward_v I I I I #
coedge $-1 $462 $561 $319 $458 forward $316 $-1 #
edge $-1 $460 56.645980791379721 $468 68.894207965878422 $457 $562 forward 7 unknown #
coedge $-1 $326 $320 $561 $563 forward $197 $-1 #
vertex $-1 $563 $564 #
straight-curve $-1 -21.92145389877323 40.896789250151059 20.400899214860715 0 1 0 I I #
coedge $-1 $565 $457 $322 $463 forward $316 $-1 #
edge $-1 $468 6.4039147064348469 $466 24.631163678241919 $462 $566 forward 7 unknown #
coedge $-1 $465 $323 $326 $470 reversed $455 $-1 #
coedge $-1 $323 $464 $565 $567 reversed $455 $-1 #
vertex $-1 $567 $568 #
straight-curve $-1 -40.148702870580301 3.0973583929975241 52.936031050199354 0 -0.65605901945558975 0.75470958851134939 I I #
vertex $-1 $463 $569 #
straight-curve $-1 -21.92145389877323 -13.117365302013837 71.588937396707763 0 -0.65605901945558964 0.75470958851134928 I I #
edge $-1 $570 -42.026937461780896 $327 -31.379716288904433 $326 $571 forward 7 unknown #
point $-1 -40.148702870580301 31.379716288904433 20.400899214860708 #
point $-1 -21.92145389877323 31.379716288904433 20.400899214860708 #
edge $-1 $572 1 $572 0 $330 $-1 forward 7 unknown #
vertex $-1 $331 $573 #
ellipse-curve $-1 -34.940917450063999 29.186979526886859 7.7429247274972237 0 0.75470958851134928 0.65605901945558964 2.5 0 0 1 I I #
point $-1 -32.440917450063999 36.703326875342654 14.276785627611357 #
edge $-1 $574 1 $574 0 $334 $-1 forward 7 unknown #
vertex $-1 $335 $575 #
ellipse-curve $-1 -27.129239319289539 29.186979526886859 7.7429247274972237 0 0.75470958851134928 0.65605901945558964 2.5 0 0 1 I I #
point $-1 -24.629239319289539 36.703326875342654 14.276785627611357 #
loop $-1 $-1 $346 $338 #
plane-surface $-1 0 42.026937461780896 0 0 -1 0 0 0 -1 forward_v I I I I #
coedge $-1 $484 $341 $343 $488 reversed $219 $-1 #
coedge $-1 $341 $483 $576 $577 reversed $219 $-1 #
coedge $-1 $349 $344 $341 $486 forward $339 $-1 #
edge $-1 $489 -9.5170729612466261 $578 1.1301482116298374 $485 $579 forward 7 unknown #
coedge $-1 $343 $342 $492 $580 reversed $137 $-1 #
edge $-1 $581 -84.053874923561821 $489 -67.824814950098258 $483 $582 forward 7 unknown #
vertex $-1 $345 $583 #
straight-curve $-1 10.239415571298085 31.379716288904433 20.400899214860708 1 0 0 I I #
coedge $-1 $576 $346 $349 $496 reversed $481 $-1 #
coedge $-1 $346 $576 $487 $580 forward $481 $-1 #
vertex $-1 $347 $584 #
straight-curve $-1 11.365206656692633 42.026937461780896 77.046880006240428 0 0 1 I I #
straight-curve $-1 11.365206656692633 -13.117365302013837 71.588937396707763 0 0.65605901945558964 -0.75470958851134928 I I #
edge $-1 $578 -29.592455628499707 $350 -11.365206656692633 $491 $585 forward 7 unknown #
point $-1 11.365206656692633 42.026937461780896 20.400899214860708 #
point $-1 11.365206656692633 31.379716288904433 20.400899214860708 #
edge $-1 $586 1 $586 0 $353 $-1 forward 7 unknown #
vertex $-1 $354 $587 #
ellipse-curve $-1 16.572992077208944 29.186979526886859 7.7429247274972237 0 0.75470958851134928 0.65605901945558964 2.5 0 0 1 I I #
point $-1 19.072992077208944 36.703326875342654 14.276785627611357 #
edge $-1 $588 1 $588 0 $357 $-1 forward 7 unknown #
vertex $-1 $358 $589 #
ellipse-curve $-1 24.384670207983397 29.186979526886859 7.7429247274972237 0 0.75470958851134928 0.65605901945558964 2.5 0 0 1 I I #
point $-1 26.884670207983397 36.703326875342654 14.276785627611357 #
plane-surface $-1 62.879116183965571 0 0 -1 0 0 0 0 1 forward_v I I I I #
coedge $-1 $366 $364 $368 $512 reversed $241 $-1 #
edge $-1 $379 -20.400899214860708 $514 20.400899214860708 $378 $590 forward 7 unknown #
vertex $-1 $512 $591 #
straight-curve $-1 -62.879116183965571 -42.026937461780896 0 0 0 -1 I I #
edge $-1 $510 -42.026937461780896 $514 42.026937461780896 $508 $592 forward 7 unknown #
straight-curve $-1 0 -42.026937461780896 -20.400899214860708 -1 0 0 I I #
vertex $-1 $371 $593 #
straight-curve $-1 0 42.026937461780896 -20.400899214860708 1 0 0 I I #
point $-1 62.879116183965571 42.026937461780896 -20.400899214860708 #
point $-1 62.879116183965571 -42.026937461780896 -20.400899214860708 #
straight-curve $-1 -62.879116183965571 0 20.400899214860708 0 -1 0 I I #
point $-1 -62.879116183965571 42.026937461780896 20.400899214860708 #
point $-1 -62.879116183965571 -42.026937461780896 20.400899214860708 #
straight-curve $-1 62.879116183965571 -42.026937461780896 0 0 0 -1 I I #
straight-curve $-1 62.879116183965571 42.026937461780896 0 0 0 -1 I I #
plane-surface $-1 0 -42.026937461780896 0 0 1 0 0 0 1 forward_v I I I I #
coedge $-1 $594 $391 $402 $535 reversed $260 $-1 #
coedge $-1 $391 $594 $406 $537 forward $260 $-1 #
edge $-1 $399 40.148702870580301 $595 62.879116183965571 $392 $596 forward 7 unknown #
straight-curve $-1 -40.148702870580301 42.026937461780896 8.7476941466620453 0 0 -1 I I #
coedge $-1 $402 $394 $397 $531 reversed $403 $-1 #
straight-curve $-1 -40.148702870580301 -42.026937461780896 8.7476941466620453 0 0 1 I I #
coedge $-1 $397 $396 $594 $597 forward $389 $-1 #
edge $-1 $598 -62.879116183965571 $398 -40.148702870580301 $528 $599 forward 7 unknown #
point $-1 -40.148702870580301 -42.026937461780896 20.400899214860711 #
point $-1 -40.148702870580301 42.026937461780896 20.400899214860711 #
straight-curve $-1 -62.879116183965571 0 14.58987737178747 0 -1 0 I I #
edge $-1 $598 -20.400899214860708 $404 -14.58987737178747 $524 $600 forward 7 unknown #
point $-1 -62.879116183965571 -42.026937461780896 14.58987737178747 #
edge $-1 $595 -20.400899214860708 $407 -14.58987737178747 $406 $601 forward 7 unknown #
point $-1 -62.879116183965571 42.026937461780896 14.58987737178747 #
edge $-1 $540 30.300171518423078 $543 42.755508000877846 $412 $602 forward 7 unknown #
vertex $-1 $426 $603 #
straight-curve $-1 -22.368322130071228 -63.087810376399318 20.400899214860708 0 -1 0 I I #
edge $-1 $543 -16.221926485639624 $423 3.9291351967764179 $422 $604 forward 7 unknown #
vertex $-1 $542 $605 #
straight-curve $-1 -22.368322130071228 -42.026937461780889 7.9455627324059463 0 0.74314481823134659 0.66913061440640931 I I #
point $-1 -22.368322130071228 -28.193885189205865 20.400899214860708 #
point $-1 -2.2172604476551854 -42.026937461780896 7.9455627324059401 #
straight-curve $-1 0 -42.026937461780896 20.400899214860708 1 0 0 I I #
vertex $-1 $429 $606 #
point $-1 -10.292791288863206 -29.947403017123001 8.4391294570638742 #
edge $-1 $551 30.300171518423078 $554 42.755508000877846 $434 $607 forward 7 unknown #
vertex $-1 $448 $608 #
straight-curve $-1 24.947673761040456 -63.087810376399318 20.400899214860708 0 -1 0 I I #
edge $-1 $554 7.4360714599162172 $445 27.587133142332259 $444 $609 forward 7 unknown #
vertex $-1 $553 $610 #
straight-curve $-1 24.947673761040456 -42.026937461780889 7.9455627324059463 0 0.74314481823134659 0.66913061440640931 I I #
point $-1 24.947673761040456 -28.193885189205865 20.400899214860708 #
point $-1 45.098735443456498 -42.026937461780896 7.9455627324059401 #
straight-curve $-1 0 -42.026937461780896 20.400899214860708 1 0 0 I I #
vertex $-1 $451 $611 #
point $-1 37.023204602248477 -29.947403017123001 8.4391294570638742 #
coedge $-1 $457 $565 $459 $563 reversed $316 $-1 #
straight-curve $-1 -21.92145389877323 42.026937461780896 77.046880006240428 0 0 -1 I I #
edge $-1 $460 21.92145389877323 $570 40.148702870580301 $561 $612 forward 7 unknown #
point $-1 -21.92145389877323 42.026937461780896 20.400899214860708 #
coedge $-1 $561 $462 $465 $567 forward $316 $-1 #
straight-curve $-1 -15.517539192338383 42.026937461780889 8.1526720403620132 -1 0 0 I I #
edge $-1 $466 -68.894207965878422 $570 -56.645980791379714 $565 $613 forward 7 unknown #
point $-1 -40.148702870580301 42.026937461780896 8.1526720403620132 #
point $-1 -21.92145389877323 42.026937461780896 8.1526720403620132 #
vertex $-1 $470 $614 #
straight-curve $-1 -40.148702870580301 0 20.400899214860708 0 -1 0 I I #
vertex $-1 $473 $615 #
point $-1 -32.440917450063999 29.186979526886859 7.7429247274972237 #
vertex $-1 $477 $616 #
point $-1 -24.629239319289539 29.186979526886859 7.7429247274972237 #
coedge $-1 $492 $491 $484 $577 forward $481 $-1 #
edge $-1 $578 56.645980791379721 $581 68.894207965878422 $576 $617 forward 7 unknown #
vertex $-1 $496 $618 #
straight-curve $-1 29.592455628499707 40.896789250151059 20.400899214860715 0 1 0 I I #
edge $-1 $581 -19.353040057201621 $493 -1.1257910853945479 $492 $619 forward 7 unknown #
vertex $-1 $580 $620 #
straight-curve $-1 29.592455628499707 -13.117365302013837 71.588937396707763 0 -0.65605901945558964 0.75470958851134928 I I #
point $-1 29.592455628499707 31.379716288904433 20.400899214860708 #
point $-1 11.365206656692633 42.026937461780896 8.1526720403620132 #
straight-curve $-1 0 42.026937461780896 20.400899214860708 -1 0 0 I I #
vertex $-1 $499 $621 #
point $-1 19.072992077208944 29.186979526886859 7.7429247274972237 #
vertex $-1 $503 $622 #
point $-1 26.884670207983397 29.186979526886859 7.7429247274972237 #
straight-curve $-1 -62.879116183965571 42.026937461780896 0 0 0 -1 I I #
point $-1 -62.879116183965571 -42.026937461780896 -20.400899214860708 #
straight-curve $-1 -62.879116183965571 0 -20.400899214860708 0 1 0 I I #
point $-1 -62.879116183965571 42.026937461780896 -20.400899214860708 #
coedge $-1 $525 $524 $530 $597 reversed $260 $-1 #
vertex $-1 $526 $623 #
straight-curve $-1 0 42.026937461780896 20.400899214860708 -1 0 0 I I #
edge $-1 $595 -42.026937461780896 $598 42.026937461780896 $594 $624 forward 7 unknown #
vertex $-1 $597 $625 #
straight-curve $-1 0 -42.026937461780896 20.400899214860708 1 0 0 I I #
straight-curve $-1 -62.879116183965571 -42.026937461780896 0 0 0 -1 I I #
straight-curve $-1 -62.879116183965571 42.026937461780896 0 0 0 -1 I I #
straight-curve $-1 -22.368322130071228 -42.026937461780896 50.701070733283785 0 0 -1 I I #
point $-1 -22.368322130071228 -42.026937461780896 20.400899214860708 #
straight-curve $-1 -6.1463956444316032 -42.026937461780896 7.9455627324059384 1 0 0 I I #
point $-1 -22.368322130071228 -42.026937461780896 7.9455627324059401 #
point $-1 -12.292791288863206 -28.609141788310183 6.9528398206011808 #
straight-curve $-1 24.947673761040456 -42.026937461780896 50.701070733283785 0 0 -1 I I #
point $-1 24.947673761040456 -42.026937461780896 20.400899214860708 #
straight-curve $-1 17.511602301124238 -42.026937461780896 7.9455627324059384 1 0 0 I I #
point $-1 24.947673761040456 -42.026937461780896 7.9455627324059401 #
point $-1 35.023204602248477 -28.609141788310183 6.9528398206011808 #
straight-curve $-1 0 42.026937461780896 20.400899214860708 -1 0 0 I I #
straight-curve $-1 -40.148702870580301 42.026937461780896 77.046880006240428 0 0 1 I I #
point $-1 -40.148702870580301 42.026937461780896 20.400899214860711 #
point $-1 -34.940917450063999 27.300205555608485 6.1027771788582488 #
point $-1 -27.129239319289539 27.300205555608485 6.1027771788582488 #
straight-curve $-1 29.592455628499707 42.026937461780896 77.046880006240428 0 0 -1 I I #
point $-1 29.592455628499707 42.026937461780896 20.400899214860708 #
straight-curve $-1 10.239415571298085 42.026937461780889 8.1526720403620132 -1 0 0 I I #
point $-1 29.592455628499707 42.026937461780896 8.1526720403620132 #
point $-1 16.572992077208944 27.300205555608485 6.1027771788582488 #
point $-1 24.384670207983397 27.300205555608485 6.1027771788582488 #
point $-1 -62.879116183965571 42.026937461780896 20.400899214860708 #
straight-curve $-1 -62.879116183965571 0 20.400899214860708 0 -1 0 I I #
point $-1 -62.879116183965571 -42.026937461780896 20.400899214860708 #
End-of-ACIS-data 