500 0 10 0           
7 Unknown 11 ACIS 5.0 NT 24 Fri Mar 26 17:35:26 1999 
-1 9.9999999999999995e-007 1e-010 
body $-1 $10 $-1 $11 #
body $-1 $12 $-1 $13 #
body $-1 $14 $-1 $15 #
body $-1 $16 $-1 $17 #
body $-1 $18 $-1 $19 #
body $-1 $20 $-1 $21 #
body $-1 $22 $-1 $23 #
body $-1 $24 $-1 $25 #
body $-1 $26 $-1 $27 #
body $-1 $28 $-1 $29 #
lump $-1 $-1 $30 $0 #
transform $-1 1 0 0 0 1 0 0 0 1 63.189184240241701 33.954809491001065 15.76188328998296 1 rotate no_reflect no_shear #
lump $-1 $-1 $31 $1 #
transform $-1 1 0 0 0 1 0 0 0 1 63.189184240241701 33.954809491001065 15.76188328998296 1 rotate no_reflect no_shear #
lump $-1 $-1 $32 $2 #
transform $-1 1 0 0 0 1 0 0 0 1 63.189184240241701 33.954809491001065 15.76188328998296 1 rotate no_reflect no_shear #
lump $-1 $-1 $33 $3 #
transform $-1 1 0 0 0 1 0 0 0 1 63.189184240241701 33.954809491001065 15.76188328998296 1 rotate no_reflect no_shear #
lump $-1 $-1 $34 $4 #
transform $-1 1 0 0 0 1 0 0 0 1 63.189184240241701 33.954809491001065 15.76188328998296 1 rotate no_reflect no_shear #
lump $-1 $-1 $35 $5 #
transform $-1 1 0 0 0 1 0 0 0 1 63.189184240241701 33.954809491001065 15.76188328998296 1 rotate no_reflect no_shear #
lump $-1 $-1 $36 $6 #
transform $-1 1 0 0 0 1 0 0 0 1 63.189184240241701 33.954809491001065 15.76188328998296 1 rotate no_reflect no_shear #
lump $-1 $-1 $37 $7 #
transform $-1 1 0 0 0 1 0 0 0 1 63.189184240241701 33.954809491001065 15.76188328998296 1 rotate no_reflect no_shear #
lump $-1 $-1 $38 $8 #
transform $-1 1 0 0 0 1 0 0 0 1 63.189184240241701 33.954809491001065 15.76188328998296 1 rotate no_reflect no_shear #
lump $-1 $-1 $39 $9 #
transform $-1 1 0 0 0 1 0 0 0 1 63.189184240241701 33.954809491001065 15.76188328998296 1 rotate no_reflect no_shear #
shell $-1 $-1 $-1 $40 $-1 $10 #
shell $-1 $-1 $-1 $41 $-1 $12 #
shell $-1 $-1 $-1 $42 $-1 $14 #
shell $-1 $-1 $-1 $43 $-1 $16 #
shell $-1 $-1 $-1 $44 $-1 $18 #
shell $-1 $-1 $-1 $45 $-1 $20 #
shell $-1 $-1 $-1 $46 $-1 $22 #
shell $-1 $-1 $-1 $47 $-1 $24 #
shell $-1 $-1 $-1 $48 $-1 $26 #
shell $-1 $-1 $-1 $49 $-1 $28 #
face $-1 $50 $51 $30 $-1 $52 forward single #
face $-1 $53 $54 $31 $-1 $55 forward single #
face $-1 $56 $57 $32 $-1 $58 reversed single #
face $-1 $59 $60 $33 $-1 $61 forward single #
face $-1 $62 $63 $34 $-1 $64 forward single #
face $-1 $65 $66 $35 $-1 $67 forward single #
face $-1 $68 $69 $36 $-1 $70 reversed single #
face $-1 $71 $72 $37 $-1 $73 forward single #
face $-1 $74 $75 $38 $-1 $76 forward single #
face $-1 $77 $78 $39 $-1 $79 forward single #
face $-1 $80 $81 $30 $-1 $82 reversed single #
loop $-1 $-1 $83 $40 #
plane-surface $-1 0 0 15.76188328998296 0 0 1 1 0 0 forward_v I I I I #
face $-1 $84 $85 $31 $-1 $86 reversed single #
loop $-1 $-1 $87 $41 #
plane-surface $-1 0 -33.954809491001065 0 0 1 0 0 0 1 forward_v I I I I #
face $-1 $88 $89 $32 $-1 $90 reversed single #
loop $-1 $-1 $91 $42 #
plane-surface $-1 -172.63606281071193 -7.237120543540108 69.683266289184402 0 1 0 -0.86602541151947299 0 0.49999998660252726 forward_v I I I I #
face $-1 $92 $93 $33 $-1 $94 forward single #
loop $-1 $95 $96 $43 #
cone-surface $-1 -59.108581196165687 -4.7718395102447424 10.316679481867139 0.86602541151947299 0 -0.49999998660252726 0.49999998660252726 0 0.86602541151947299 1 I I 0 1 1 forward I I I I #
face $-1 $97 $98 $34 $-1 $99 forward single #
loop $-1 $100 $101 $44 #
cone-surface $-1 -59.108581196165687 -1.0739179603016922 10.316679481867139 0.86602541151947299 0 -0.49999998660252726 0.49999998660252726 0 0.86602541151947299 1 I I 0 1 1 forward I I I I #
face $-1 $102 $103 $35 $-1 $104 forward single #
loop $-1 $105 $106 $45 #
cone-surface $-1 -59.108581196165687 2.6240035896413545 10.316679481867139 0.86602541151947299 0 -0.49999998660252726 0.49999998660252726 0 0.86602541151947299 1 I I 0 1 1 forward I I I I #
face $-1 $107 $108 $36 $-1 $109 reversed single #
loop $-1 $-1 $110 $46 #
plane-surface $-1 109.44688026362098 5.0892846229367237 179.13014485965465 0 -1 0 -0.86602541151947299 0 -0.49999998660252726 forward_v I I I I #
face $-1 $111 $112 $37 $-1 $113 forward single #
loop $-1 $114 $115 $47 #
cone-surface $-1 59.108581196165694 -4.7718395102447424 10.316679481867149 -0.86602541151947299 0 -0.49999998660252726 0.49999998660252726 0 -0.86602541151947299 1 I I 0 1 1 forward I I I I #
face $-1 $116 $117 $38 $-1 $118 forward single #
loop $-1 $119 $120 $48 #
cone-surface $-1 59.108581196165694 -1.0739179603016922 10.316679481867149 -0.86602541151947299 0 -0.49999998660252726 0.49999998660252726 0 -0.86602541151947299 1 I I 0 1 1 forward I I I I #
face $-1 $121 $122 $39 $-1 $123 forward single #
loop $-1 $124 $125 $49 #
cone-surface $-1 59.108581196165694 2.6240035896413545 10.316679481867149 -0.86602541151947299 0 -0.49999998660252726 0.49999998660252726 0 -0.86602541151947299 1 I I 0 1 1 forward I I I I #
face $-1 $126 $127 $30 $-1 $128 reversed single #
loop $-1 $-1 $129 $50 #
plane-surface $-1 0 0 -15.76188328998296 0 0 1 1 0 0 forward_v I I I I #
coedge $-1 $130 $131 $132 $133 forward $51 $-1 #
face $-1 $134 $135 $31 $-1 $136 forward single #
loop $-1 $-1 $137 $53 #
plane-surface $-1 -63.189184240241701 0 0 1 0 0 0 0 -1 forward_v I I I I #
coedge $-1 $138 $139 $140 $141 forward $54 $-1 #
face $-1 $142 $143 $32 $-1 $144 reversed single #
loop $-1 $-1 $145 $56 #
plane-surface $-1 -63.189184240241701 -1.0739179603016922 6.4940837420934514 -0.86602541151947299 0 0.49999998660252726 0.49999998660252726 0 0.86602541151947299 forward_v I I I I #
coedge $-1 $146 $147 $148 $149 reversed $57 $-1 #
face $-1 $-1 $150 $33 $-1 $151 forward single #
loop $-1 $152 $153 $59 #
cone-surface $-1 -57.270348632632356 -4.7718395102447424 9.2553754543948141 0.86602541151947299 0 -0.49999998660252726 0.24999999330126363 0 0.43301270575973649 1 I I -0.70710678118654746 0.70710678118654746 0.5 forward I I I I #
loop $-1 $-1 $154 $43 #
coedge $-1 $96 $96 $155 $156 reversed $60 $-1 #
face $-1 $-1 $157 $34 $-1 $158 forward single #
loop $-1 $159 $160 $62 #
cone-surface $-1 -57.270348632632356 -1.0739179603016922 9.2553754543948141 0.86602541151947299 0 -0.49999998660252726 0.24999999330126363 0 0.43301270575973649 1 I I -0.70710678118654746 0.70710678118654746 0.5 forward I I I I #
loop $-1 $-1 $161 $44 #
coedge $-1 $101 $101 $162 $163 reversed $63 $-1 #
face $-1 $-1 $164 $35 $-1 $165 forward single #
loop $-1 $166 $167 $65 #
cone-surface $-1 -57.270348632632356 2.6240035896413545 9.2553754543948141 0.86602541151947299 0 -0.49999998660252726 0.24999999330126363 0 0.43301270575973649 1 I I -0.70710678118654746 0.70710678118654746 0.5 forward I I I I #
loop $-1 $-1 $168 $45 #
coedge $-1 $106 $106 $169 $170 reversed $66 $-1 #
face $-1 $171 $172 $36 $-1 $173 reversed single #
loop $-1 $-1 $174 $68 #
plane-surface $-1 1.6931507502704335e-006 -1.0739179603016922 115.9409623125637 0.86602541151947299 0 0.49999998660252726 0.49999998660252726 0 -0.86602541151947299 forward_v I I I I #
coedge $-1 $175 $176 $177 $178 reversed $69 $-1 #
face $-1 $-1 $179 $37 $-1 $180 forward single #
loop $-1 $181 $182 $71 #
cone-surface $-1 57.270348632632363 -4.7718395102447424 9.2553754543948248 -0.86602541151947299 0 -0.49999998660252726 0.24999999330126363 0 -0.43301270575973649 1 I I -0.70710678118654746 0.70710678118654746 0.5 forward I I I I #
loop $-1 $-1 $183 $47 #
coedge $-1 $115 $115 $184 $185 reversed $72 $-1 #
face $-1 $-1 $186 $38 $-1 $187 forward single #
loop $-1 $188 $189 $74 #
cone-surface $-1 57.270348632632363 -1.0739179603016922 9.2553754543948248 -0.86602541151947299 0 -0.49999998660252726 0.24999999330126363 0 -0.43301270575973649 1 I I -0.70710678118654746 0.70710678118654746 0.5 forward I I I I #
loop $-1 $-1 $190 $48 #
coedge $-1 $120 $120 $191 $192 reversed $75 $-1 #
face $-1 $-1 $193 $39 $-1 $194 forward single #
loop $-1 $195 $196 $77 #
cone-surface $-1 57.270348632632363 2.6240035896413545 9.2553754543948248 -0.86602541151947299 0 -0.49999998660252726 0.24999999330126363 0 -0.43301270575973649 1 I I -0.70710678118654746 0.70710678118654746 0.5 forward I I I I #
loop $-1 $-1 $197 $49 #
coedge $-1 $125 $125 $198 $199 reversed $78 $-1 #
face $-1 $200 $201 $30 $-1 $202 reversed single #
loop $-1 $-1 $203 $80 #
plane-surface $-1 0 -33.954809491001065 0 0 1 0 0 0 1 forward_v I I I I #
coedge $-1 $204 $205 $206 $207 forward $81 $-1 #
coedge $-1 $208 $83 $209 $210 forward $51 $-1 #
coedge $-1 $83 $208 $211 $212 forward $51 $-1 #
coedge $-1 $213 $214 $83 $133 reversed $215 $-1 #
edge $-1 $216 -33.954809491001065 $217 33.954809491001065 $132 $218 forward 7 unknown #
face $-1 $219 $220 $31 $-1 $221 reversed single #
loop $-1 $-1 $222 $84 #
plane-surface $-1 0 -44.074302221233637 -3.317471062148206 0 0 1 1 0 0 forward_v I I I I #
coedge $-1 $223 $224 $139 $225 forward $85 $-1 #
coedge $-1 $226 $87 $227 $228 reversed $54 $-1 #
coedge $-1 $87 $226 $137 $225 reversed $54 $-1 #
coedge $-1 $229 $222 $87 $141 reversed $135 $-1 #
edge $-1 $230 -63.189184240241701 $231 63.189184240241701 $140 $232 forward 7 unknown #
face $-1 $233 $234 $32 $-1 $235 forward single #
loop $-1 $-1 $236 $88 #
plane-surface $-1 -172.63606281071193 5.0892846229367237 69.683266289184402 0 -1 0 0.86602541151947299 0 -0.49999998660252726 forward_v I I I I #
coedge $-1 $237 $238 $239 $240 reversed $89 $-1 #
coedge $-1 $147 $91 $241 $242 reversed $57 $-1 #
coedge $-1 $91 $146 $237 $243 reversed $57 $-1 #
coedge $-1 $239 $244 $91 $149 forward $234 $-1 #
edge $-1 $245 23.128847165114266 $246 28.479613537719104 $148 $247 forward 7 unknown #
loop $-1 $-1 $155 $92 #
plane-surface $-1 -63.189184240241701 -1.0739179603016922 6.4940837420934514 -0.86602541151947299 0 0.49999998660252726 0.49999998660252726 0 0.86602541151947299 forward_v I I I I #
loop $-1 $-1 $248 $59 #
coedge $-1 $153 $153 $154 $249 reversed $93 $-1 #
coedge $-1 $154 $154 $153 $249 forward $95 $-1 #
coedge $-1 $155 $155 $96 $156 forward $150 $-1 #
edge $-1 $250 0 $250 6.2831853071796004 $155 $251 forward 7 unknown #
loop $-1 $-1 $162 $97 #
plane-surface $-1 -63.189184240241701 -1.0739179603016922 6.4940837420934514 -0.86602541151947299 0 0.49999998660252726 0.49999998660252726 0 0.86602541151947299 forward_v I I I I #
loop $-1 $-1 $252 $62 #
coedge $-1 $160 $160 $161 $253 reversed $98 $-1 #
coedge $-1 $161 $161 $160 $253 forward $100 $-1 #
coedge $-1 $162 $162 $101 $163 forward $157 $-1 #
edge $-1 $254 0 $254 6.2831853071796004 $162 $255 forward 7 unknown #
loop $-1 $-1 $169 $102 #
plane-surface $-1 -63.189184240241701 -1.0739179603016922 6.4940837420934514 -0.86602541151947299 0 0.49999998660252726 0.49999998660252726 0 0.86602541151947299 forward_v I I I I #
loop $-1 $-1 $256 $65 #
coedge $-1 $167 $167 $168 $257 reversed $103 $-1 #
coedge $-1 $168 $168 $167 $257 forward $105 $-1 #
coedge $-1 $169 $169 $106 $170 forward $164 $-1 #
edge $-1 $258 0 $258 6.2831853071796004 $169 $259 forward 7 unknown #
face $-1 $260 $261 $36 $-1 $262 reversed single #
loop $-1 $-1 $263 $107 #
plane-surface $-1 109.44688026362098 -7.237120543540108 179.13014485965465 0 1 0 0.86602541151947299 0 0.49999998660252726 forward_v I I I I #
coedge $-1 $264 $265 $266 $267 reversed $108 $-1 #
coedge $-1 $176 $110 $268 $269 reversed $69 $-1 #
coedge $-1 $110 $175 $264 $270 reversed $69 $-1 #
coedge $-1 $266 $271 $110 $178 forward $272 $-1 #
edge $-1 $273 -8.4657441084312097 $274 -3.114977735826379 $177 $275 forward 7 unknown #
loop $-1 $-1 $184 $111 #
plane-surface $-1 1.6931507502704335e-006 -1.0739179603016922 115.9409623125637 0.86602541151947299 0 0.49999998660252726 0.49999998660252726 0 -0.86602541151947299 forward_v I I I I #
loop $-1 $-1 $276 $71 #
coedge $-1 $182 $182 $183 $277 reversed $112 $-1 #
coedge $-1 $183 $183 $182 $277 forward $114 $-1 #
coedge $-1 $184 $184 $115 $185 forward $179 $-1 #
edge $-1 $278 0 $278 6.2831853071796004 $184 $279 forward 7 unknown #
loop $-1 $-1 $191 $116 #
plane-surface $-1 1.6931507502704335e-006 -1.0739179603016922 115.9409623125637 0.86602541151947299 0 0.49999998660252726 0.49999998660252726 0 -0.86602541151947299 forward_v I I I I #
loop $-1 $-1 $280 $74 #
coedge $-1 $189 $189 $190 $281 reversed $117 $-1 #
coedge $-1 $190 $190 $189 $281 forward $119 $-1 #
coedge $-1 $191 $191 $120 $192 forward $186 $-1 #
edge $-1 $282 0 $282 6.2831853071796004 $191 $283 forward 7 unknown #
loop $-1 $-1 $198 $121 #
plane-surface $-1 1.6931507502704335e-006 -1.0739179603016922 115.9409623125637 0.86602541151947299 0 0.49999998660252726 0.49999998660252726 0 -0.86602541151947299 forward_v I I I I #
loop $-1 $-1 $284 $77 #
coedge $-1 $196 $196 $197 $285 reversed $122 $-1 #
coedge $-1 $197 $197 $196 $285 forward $124 $-1 #
coedge $-1 $198 $198 $125 $199 forward $193 $-1 #
edge $-1 $286 0 $286 6.2831853071796004 $198 $287 forward 7 unknown #
face $-1 $288 $289 $30 $-1 $290 reversed single #
loop $-1 $-1 $291 $126 #
plane-surface $-1 -63.189184240241701 0 0 1 0 0 0 0 -1 forward_v I I I I #
coedge $-1 $292 $211 $293 $294 forward $127 $-1 #
coedge $-1 $295 $129 $292 $296 forward $81 $-1 #
coedge $-1 $129 $295 $297 $298 forward $81 $-1 #
coedge $-1 $214 $213 $129 $207 reversed $215 $-1 #
edge $-1 $299 -33.954809491001065 $300 33.954809491001065 $206 $301 forward 7 unknown #
coedge $-1 $131 $130 $302 $303 forward $51 $-1 #
coedge $-1 $304 $305 $130 $210 reversed $289 $-1 #
edge $-1 $217 -63.189184240241701 $306 63.189184240241701 $209 $307 forward 7 unknown #
coedge $-1 $203 $308 $131 $212 reversed $127 $-1 #
edge $-1 $309 -63.189184240241701 $216 63.189184240241701 $211 $310 forward 7 unknown #
coedge $-1 $206 $132 $308 $311 forward $215 $-1 #
coedge $-1 $132 $206 $304 $312 reversed $215 $-1 #
loop $-1 $-1 $213 $288 #
vertex $-1 $133 $313 #
vertex $-1 $133 $314 #
straight-curve $-1 63.189184240241701 0 15.76188328998296 0 1 0 I I #
face $-1 $315 $316 $31 $-1 $317 reversed single #
loop $-1 $-1 $318 $134 #
plane-surface $-1 0 -44.074302221233637 -9.0108362845848138 0 0 1 1 0 0 forward_v I I I I #
coedge $-1 $140 $319 $320 $321 forward $135 $-1 #
coedge $-1 $322 $137 $323 $324 reversed $85 $-1 #
coedge $-1 $137 $322 $229 $325 reversed $85 $-1 #
edge $-1 $230 3.317471062148206 $326 9.0108362845848138 $137 $327 forward 7 unknown #
coedge $-1 $139 $138 $328 $329 forward $54 $-1 #
coedge $-1 $320 $330 $138 $228 forward $331 $-1 #
edge $-1 $332 -9.0108362845848138 $231 -3.317471062148206 $227 $333 forward 7 unknown #
coedge $-1 $319 $140 $224 $325 forward $135 $-1 #
vertex $-1 $225 $334 #
vertex $-1 $321 $335 #
straight-curve $-1 0 -33.954809491001065 -3.317471062148206 1 0 0 I I #
face $-1 $-1 $336 $32 $-1 $337 reversed single #
loop $-1 $-1 $148 $142 #
plane-surface $-1 0 0 15.76188328998296 0 0 1 1 0 0 forward_v I I I I #
coedge $-1 $338 $339 $340 $341 reversed $143 $-1 #
coedge $-1 $342 $145 $147 $243 forward $89 $-1 #
coedge $-1 $145 $342 $338 $343 forward $89 $-1 #
coedge $-1 $340 $148 $145 $240 forward $234 $-1 #
edge $-1 $246 -6.7001615633892619 $344 5.6262436030875698 $239 $345 forward 7 unknown #
coedge $-1 $346 $347 $146 $242 forward $336 $-1 #
edge $-1 $348 -28.34754940249875 $245 -19.07974985460924 $241 $349 forward 7 unknown #
edge $-1 $246 -10.701533031956668 $348 0 $147 $350 forward 7 unknown #
coedge $-1 $148 $340 $346 $351 forward $234 $-1 #
vertex $-1 $242 $352 #
vertex $-1 $149 $353 #
straight-curve $-1 -86.318031405355967 -7.237120543540108 15.761883289982961 1 0 0 I I #
coedge $-1 $248 $248 $-1 $354 reversed $152 $-1 #
edge $-1 $355 0 $355 6.2831853071796004 $153 $356 forward 7 unknown #
vertex $-1 $156 $357 #
ellipse-curve $-1 -60.513801053939282 -4.7718395102447424 11.127983516038203 -0.86602541151947299 0 0.49999998660252726 0.49999998660252726 0 0.86602541151947299 1 I I #
coedge $-1 $252 $252 $-1 $358 reversed $159 $-1 #
edge $-1 $359 0 $359 6.2831853071796004 $160 $360 forward 7 unknown #
vertex $-1 $163 $361 #
ellipse-curve $-1 -60.513801053939282 -1.0739179603016922 11.127983516038203 -0.86602541151947299 0 0.49999998660252726 0.49999998660252726 0 0.86602541151947299 1 I I #
coedge $-1 $256 $256 $-1 $362 reversed $166 $-1 #
edge $-1 $363 0 $363 6.2831853071796004 $167 $364 forward 7 unknown #
vertex $-1 $170 $365 #
ellipse-curve $-1 -60.513801053939282 2.6240035896413545 11.127983516038203 -0.86602541151947299 0 0.49999998660252726 0.49999998660252726 0 0.86602541151947299 1 I I #
face $-1 $-1 $272 $36 $-1 $366 forward single #
loop $-1 $-1 $367 $171 #
plane-surface $-1 63.189184240241701 0 0 -1 0 0 0 0 1 forward_v I I I I #
coedge $-1 $368 $369 $370 $371 reversed $172 $-1 #
coedge $-1 $372 $174 $176 $270 forward $108 $-1 #
coedge $-1 $174 $372 $368 $373 forward $108 $-1 #
coedge $-1 $370 $177 $174 $267 forward $272 $-1 #
edge $-1 $274 -5.6262436030875698 $374 6.7001615633892619 $266 $375 forward 7 unknown #
coedge $-1 $376 $377 $175 $269 forward $261 $-1 #
edge $-1 $378 -83.070988687733859 $273 -73.803189139844363 $268 $379 forward 7 unknown #
edge $-1 $274 115.67683544852675 $378 126.3783684804834 $176 $380 forward 7 unknown #
coedge $-1 $177 $370 $376 $381 forward $272 $-1 #
loop $-1 $-1 $370 $260 #
vertex $-1 $269 $382 #
vertex $-1 $178 $383 #
straight-curve $-1 54.723440131810491 5.0892846229367237 15.761883289982961 -1 0 0 I I #
coedge $-1 $276 $276 $-1 $384 reversed $181 $-1 #
edge $-1 $385 0 $385 6.2831853071796004 $182 $386 forward 7 unknown #
vertex $-1 $185 $387 #
ellipse-curve $-1 60.513801053939282 -4.7718395102447424 11.12798351603821 0.86602541151947299 0 0.49999998660252726 0.49999998660252726 0 -0.86602541151947299 1 I I #
coedge $-1 $280 $280 $-1 $388 reversed $188 $-1 #
edge $-1 $389 0 $389 6.2831853071796004 $189 $390 forward 7 unknown #
vertex $-1 $192 $391 #
ellipse-curve $-1 60.513801053939282 -1.0739179603016922 11.12798351603821 0.86602541151947299 0 0.49999998660252726 0.49999998660252726 0 -0.86602541151947299 1 I I #
coedge $-1 $284 $284 $-1 $392 reversed $195 $-1 #
edge $-1 $393 0 $393 6.2831853071796004 $196 $394 forward 7 unknown #
vertex $-1 $199 $395 #
ellipse-curve $-1 60.513801053939282 2.6240035896413545 11.12798351603821 0.86602541151947299 0 0.49999998660252726 0.49999998660252726 0 -0.86602541151947299 1 I I #
face $-1 $-1 $215 $30 $-1 $396 reversed single #
loop $-1 $-1 $304 $200 #
plane-surface $-1 0 33.954809491001065 0 0 -1 0 0 0 -1 forward_v I I I I #
coedge $-1 $397 $302 $305 $398 forward $201 $-1 #
coedge $-1 $308 $203 $204 $296 reversed $127 $-1 #
coedge $-1 $302 $397 $203 $294 reversed $201 $-1 #
edge $-1 $309 -15.76188328998296 $399 15.76188328998296 $293 $400 forward 7 unknown #
coedge $-1 $205 $204 $397 $401 forward $81 $-1 #
edge $-1 $300 -63.189184240241701 $399 63.189184240241701 $292 $402 forward 7 unknown #
coedge $-1 $305 $304 $205 $298 reversed $289 $-1 #
edge $-1 $403 -63.189184240241701 $299 63.189184240241701 $297 $404 forward 7 unknown #
vertex $-1 $207 $405 #
vertex $-1 $311 $406 #
straight-curve $-1 63.189184240241701 0 -15.76188328998296 0 -1 0 I I #
coedge $-1 $291 $293 $208 $303 reversed $201 $-1 #
edge $-1 $306 -33.954809491001065 $309 33.954809491001065 $302 $407 forward 7 unknown #
coedge $-1 $297 $209 $214 $312 forward $289 $-1 #
coedge $-1 $209 $297 $291 $398 reversed $289 $-1 #
vertex $-1 $210 $408 #
straight-curve $-1 0 33.954809491001065 15.76188328998296 -1 0 0 I I #
coedge $-1 $211 $292 $213 $311 reversed $127 $-1 #
vertex $-1 $303 $409 #
straight-curve $-1 0 -33.954809491001065 15.76188328998296 1 0 0 I I #
edge $-1 $216 -15.76188328998296 $300 15.76188328998296 $213 $410 forward 7 unknown #
edge $-1 $217 -15.76188328998296 $299 15.76188328998296 $214 $411 forward 7 unknown #
point $-1 63.189184240241701 -33.954809491001065 15.76188328998296 #
point $-1 63.189184240241701 33.954809491001065 15.76188328998296 #
face $-1 $-1 $331 $31 $-1 $412 reversed single #
loop $-1 $-1 $413 $219 #
plane-surface $-1 0 -54.193794951466217 -6.1641536733665099 0 1 0 0 0 1 forward_v I I I I #
coedge $-1 $414 $328 $330 $415 forward $220 $-1 #
coedge $-1 $222 $229 $416 $417 forward $135 $-1 #
coedge $-1 $418 $227 $222 $321 reversed $331 $-1 #
edge $-1 $419 -10.119492730232579 $231 10.119492730232579 $320 $420 forward 7 unknown #
coedge $-1 $224 $223 $413 $421 reversed $85 $-1 #
coedge $-1 $328 $414 $223 $324 forward $220 $-1 #
edge $-1 $422 -10.119492730232579 $326 10.119492730232579 $223 $423 forward 7 unknown #
edge $-1 $230 -10.119492730232579 $424 10.119492730232579 $224 $425 forward 7 unknown #
vertex $-1 $225 $426 #
straight-curve $-1 -63.189184240241701 -33.954809491001065 0 0 0 -1 I I #
coedge $-1 $318 $323 $226 $329 reversed $220 $-1 #
edge $-1 $332 -63.189184240241701 $326 63.189184240241701 $328 $427 forward 7 unknown #
coedge $-1 $227 $418 $318 $415 reversed $331 $-1 #
loop $-1 $-1 $227 $315 #
vertex $-1 $228 $428 #
straight-curve $-1 63.189184240241701 -33.954809491001065 0 0 0 1 I I #
point $-1 -63.189184240241701 -33.954809491001058 -3.317471062148206 #
point $-1 63.189184240241701 -33.954809491001058 -3.317471062148206 #
loop $-1 $-1 $241 $233 #
plane-surface $-1 -63.189184240241701 0 0 1 0 0 0 0 -1 forward_v I I I I #
coedge $-1 $339 $236 $238 $343 reversed $143 $-1 #
coedge $-1 $236 $338 $429 $430 reversed $143 $-1 #
coedge $-1 $244 $239 $236 $341 forward $234 $-1 #
edge $-1 $344 -28.479613537719104 $431 -23.128847165114266 $340 $432 forward 7 unknown #
coedge $-1 $238 $237 $347 $433 reversed $89 $-1 #
edge $-1 $434 0 $344 10.701533031956668 $338 $435 forward 7 unknown #
vertex $-1 $240 $436 #
straight-curve $-1 -57.838417867636871 -0.53695898015084609 15.76188328998296 0 1 0 I I #
coedge $-1 $429 $241 $244 $351 reversed $336 $-1 #
coedge $-1 $241 $429 $342 $433 forward $336 $-1 #
vertex $-1 $242 $437 #
straight-curve $-1 -63.189184240241701 -7.237120543540108 34.841633144592201 0 0 1 I I #
straight-curve $-1 -63.189184240241701 -7.237120543540108 6.4940837420934514 -0.49999998660252726 0 -0.86602541151947299 I I #
edge $-1 $431 -5.0892846229367237 $245 7.237120543540108 $346 $438 forward 7 unknown #
point $-1 -63.189184240241701 -7.237120543540108 15.76188328998296 #
point $-1 -57.838417867636863 -7.237120543540108 15.76188328998296 #
edge $-1 $439 1 $439 0 $248 $-1 forward 7 unknown #
vertex $-1 $249 $440 #
ellipse-curve $-1 -57.703361338392092 -4.7718395102447424 9.5053754476960783 -0.86602541151947299 0 0.49999998660252726 0.49999998660252726 0 0.86602541151947299 1 I I #
point $-1 -60.01380106733675 -4.7718395102447424 11.994008927557672 #
edge $-1 $441 1 $441 0 $252 $-1 forward 7 unknown #
vertex $-1 $253 $442 #
ellipse-curve $-1 -57.703361338392092 -1.0739179603016922 9.5053754476960783 -0.86602541151947299 0 0.49999998660252726 0.49999998660252726 0 0.86602541151947299 1 I I #
point $-1 -60.01380106733675 -1.0739179603016922 11.994008927557672 #
edge $-1 $443 1 $443 0 $256 $-1 forward 7 unknown #
vertex $-1 $257 $444 #
ellipse-curve $-1 -57.703361338392092 2.6240035896413545 9.5053754476960783 -0.86602541151947299 0 0.49999998660252726 0.49999998660252726 0 0.86602541151947299 1 I I #
point $-1 -60.01380106733675 2.6240035896413545 11.994008927557672 #
plane-surface $-1 0 0 15.76188328998296 0 0 1 1 0 0 forward_v I I I I #
coedge $-1 $377 $376 $369 $445 forward $261 $-1 #
coedge $-1 $369 $263 $265 $373 reversed $172 $-1 #
coedge $-1 $263 $368 $367 $445 reversed $172 $-1 #
coedge $-1 $271 $266 $263 $371 forward $272 $-1 #
edge $-1 $374 3.114977735826379 $446 8.4657441084312097 $370 $447 forward 7 unknown #
coedge $-1 $265 $264 $377 $448 reversed $108 $-1 #
edge $-1 $449 -126.3783684804834 $374 -115.67683544852675 $368 $450 forward 7 unknown #
vertex $-1 $267 $451 #
straight-curve $-1 57.838417867636878 -0.53695898015084609 15.761883289982954 0 -1 0 I I #
coedge $-1 $367 $268 $271 $381 reversed $261 $-1 #
coedge $-1 $268 $367 $372 $448 forward $261 $-1 #
vertex $-1 $269 $452 #
straight-curve $-1 63.189184240241701 5.0892846229367237 89.565072429827325 0 0 1 I I #
straight-curve $-1 1.6931507502704335e-006 5.0892846229367237 115.9409623125637 0.49999998660252726 0 -0.86602541151947299 I I #
edge $-1 $446 -7.237120543540108 $273 5.0892846229367237 $376 $453 forward 7 unknown #
point $-1 63.189184240241701 5.0892846229367237 15.76188328998296 #
point $-1 57.838417867636871 5.0892846229367237 15.761883289982961 #
edge $-1 $454 1 $454 0 $276 $-1 forward 7 unknown #
vertex $-1 $277 $455 #
ellipse-curve $-1 57.703361338392099 -4.7718395102447424 9.505375447696089 0.86602541151947299 0 0.49999998660252726 0.49999998660252726 0 -0.86602541151947299 1 I I #
point $-1 61.013801040541814 -4.7718395102447424 10.261958104518738 #
edge $-1 $456 1 $456 0 $280 $-1 forward 7 unknown #
vertex $-1 $281 $457 #
ellipse-curve $-1 57.703361338392099 -1.0739179603016922 9.505375447696089 0.86602541151947299 0 0.49999998660252726 0.49999998660252726 0 -0.86602541151947299 1 I I #
point $-1 61.013801040541814 -1.0739179603016922 10.261958104518738 #
edge $-1 $458 1 $458 0 $284 $-1 forward 7 unknown #
vertex $-1 $285 $459 #
ellipse-curve $-1 57.703361338392099 2.6240035896413545 9.505375447696089 0.86602541151947299 0 0.49999998660252726 0.49999998660252726 0 -0.86602541151947299 1 I I #
point $-1 61.013801040541814 2.6240035896413545 10.261958104518738 #
plane-surface $-1 63.189184240241701 0 0 -1 0 0 0 0 1 forward_v I I I I #
coedge $-1 $293 $291 $295 $401 reversed $201 $-1 #
edge $-1 $306 -15.76188328998296 $403 15.76188328998296 $305 $460 forward 7 unknown #
vertex $-1 $401 $461 #
straight-curve $-1 -63.189184240241701 -33.954809491001065 0 0 0 -1 I I #
edge $-1 $399 -33.954809491001065 $403 33.954809491001065 $397 $462 forward 7 unknown #
straight-curve $-1 0 -33.954809491001065 -15.76188328998296 -1 0 0 I I #
vertex $-1 $298 $463 #
straight-curve $-1 0 33.954809491001065 -15.76188328998296 1 0 0 I I #
point $-1 63.189184240241701 33.954809491001065 -15.76188328998296 #
point $-1 63.189184240241701 -33.954809491001065 -15.76188328998296 #
straight-curve $-1 -63.189184240241701 0 15.76188328998296 0 -1 0 I I #
point $-1 -63.189184240241701 33.954809491001065 15.76188328998296 #
point $-1 -63.189184240241701 -33.954809491001065 15.76188328998296 #
straight-curve $-1 63.189184240241701 -33.954809491001065 0 0 0 -1 I I #
straight-curve $-1 63.189184240241701 33.954809491001065 0 0 0 -1 I I #
plane-surface $-1 63.189184240241701 0 0 -1 0 0 0 0 1 forward_v I I I I #
coedge $-1 $464 $416 $322 $421 forward $316 $-1 #
coedge $-1 $323 $318 $464 $465 forward $220 $-1 #
edge $-1 $332 -10.119492730232579 $466 10.119492730232579 $330 $467 forward 7 unknown #
coedge $-1 $413 $468 $319 $417 reversed $316 $-1 #
edge $-1 $424 -63.189184240241701 $419 63.189184240241701 $416 $469 forward 7 unknown #
coedge $-1 $330 $320 $468 $470 forward $331 $-1 #
vertex $-1 $321 $471 #
straight-curve $-1 63.189184240241701 -44.074302221233637 -3.317471062148206 0 1 0 I I #
edge $-1 $424 -2.8466826112183039 $422 2.8466826112183039 $322 $472 forward 7 unknown #
vertex $-1 $324 $473 #
straight-curve $-1 -63.189184240241701 -44.074302221233637 -9.0108362845848138 0 1 0 I I #
vertex $-1 $325 $474 #
straight-curve $-1 -63.189184240241701 -44.074302221233637 -3.317471062148206 0 -1 0 I I #
point $-1 -63.189184240241701 -33.954809491001058 -9.0108362845848138 #
straight-curve $-1 0 -33.954809491001065 -9.0108362845848138 -1 0 0 I I #
point $-1 63.189184240241701 -33.954809491001058 -9.0108362845848138 #
coedge $-1 $347 $346 $339 $430 forward $336 $-1 #
edge $-1 $431 19.07974985460924 $434 28.34754940249875 $429 $475 forward 7 unknown #
vertex $-1 $351 $476 #
straight-curve $-1 -86.318031405355967 5.0892846229367237 15.761883289982961 -1 0 0 I I #
edge $-1 $434 -5.6262436030875698 $348 6.7001615633892619 $347 $477 forward 7 unknown #
vertex $-1 $433 $478 #
straight-curve $-1 -63.189184240241701 5.0892846229367237 6.4940837420934514 0.49999998660252726 0 0.86602541151947299 I I #
point $-1 -57.838417867636863 5.0892846229367237 15.76188328998296 #
point $-1 -63.189184240241701 -7.237120543540108 6.4940837420934514 #
straight-curve $-1 -63.189184240241701 0 15.76188328998296 0 -1 0 I I #
vertex $-1 $354 $479 #
point $-1 -57.203361351789567 -4.7718395102447424 10.371400859215552 #
vertex $-1 $358 $480 #
point $-1 -57.203361351789567 -1.0739179603016922 10.371400859215552 #
vertex $-1 $362 $481 #
point $-1 -57.203361351789567 2.6240035896413545 10.371400859215552 #
edge $-1 $446 73.803189139844363 $449 83.070988687733859 $367 $482 forward 7 unknown #
vertex $-1 $381 $483 #
straight-curve $-1 54.723440131810491 -7.237120543540108 15.761883289982961 1 0 0 I I #
edge $-1 $449 -6.7001615633892619 $378 5.6262436030875698 $377 $484 forward 7 unknown #
vertex $-1 $448 $485 #
straight-curve $-1 1.6931507502704335e-006 -7.237120543540108 115.9409623125637 -0.49999998660252726 0 0.86602541151947299 I I #
point $-1 57.838417867636871 -7.237120543540108 15.761883289982961 #
point $-1 63.189184240241701 5.0892846229367237 6.4940837420934656 #
straight-curve $-1 63.189184240241701 0 15.76188328998296 0 1 0 I I #
vertex $-1 $384 $486 #
point $-1 58.203361324994624 -4.7718395102447424 8.6393500361766158 #
vertex $-1 $388 $487 #
point $-1 58.203361324994624 -1.0739179603016922 8.6393500361766158 #
vertex $-1 $392 $488 #
point $-1 58.203361324994624 2.6240035896413545 8.6393500361766158 #
straight-curve $-1 -63.189184240241701 33.954809491001065 0 0 0 -1 I I #
point $-1 -63.189184240241701 -33.954809491001065 -15.76188328998296 #
straight-curve $-1 -63.189184240241701 0 -15.76188328998296 0 1 0 I I #
point $-1 -63.189184240241701 33.954809491001065 -15.76188328998296 #
coedge $-1 $468 $413 $414 $465 reversed $316 $-1 #
edge $-1 $466 -63.189184240241701 $422 63.189184240241701 $464 $489 forward 7 unknown #
vertex $-1 $470 $490 #
straight-curve $-1 63.189184240241701 -44.074302221233637 -9.0108362845848138 0 -1 0 I I #
coedge $-1 $416 $464 $418 $470 reversed $316 $-1 #
straight-curve $-1 0 -54.193794951466217 -3.317471062148206 1 0 0 I I #
edge $-1 $419 -2.8466826112183039 $466 2.8466826112183039 $418 $491 forward 7 unknown #
point $-1 63.189184240241701 -54.193794951466217 -3.317471062148206 #
straight-curve $-1 -63.189184240241701 -54.193794951466217 -6.1641536733665099 0 0 -1 I I #
point $-1 -63.189184240241701 -54.193794951466217 -9.0108362845848138 #
point $-1 -63.189184240241701 -54.193794951466217 -3.317471062148206 #
straight-curve $-1 -63.189184240241701 5.0892846229367237 34.841633144592201 0 0 -1 I I #
point $-1 -63.189184240241701 5.0892846229367237 15.76188328998296 #
straight-curve $-1 -63.189184240241701 -0.53695898015084609 6.4940837420934487 0 -1 0 I I #
point $-1 -63.189184240241701 5.0892846229367237 6.4940837420934514 #
point $-1 -56.837335926872619 -4.7718395102447424 9.0053754610935499 #
point $-1 -56.837335926872619 -1.0739179603016922 9.0053754610935499 #
point $-1 -56.837335926872619 2.6240035896413545 9.0053754610935499 #
straight-curve $-1 63.189184240241701 -7.237120543540108 89.565072429827325 0 0 -1 I I #
point $-1 63.189184240241701 -7.237120543540108 15.76188328998296 #
straight-curve $-1 63.189184240241701 -0.53695898015084609 6.4940837420934727 0 1 0 I I #
point $-1 63.189184240241701 -7.237120543540108 6.4940837420934656 #
point $-1 56.837335926872626 -4.7718395102447424 9.0053754610935606 #
point $-1 56.837335926872626 -1.0739179603016922 9.0053754610935606 #
point $-1 56.837335926872626 2.6240035896413545 9.0053754610935606 #
straight-curve $-1 0 -54.193794951466217 -9.0108362845848138 -1 0 0 I I #
point $-1 63.189184240241701 -54.193794951466217 -9.0108362845848138 #
straight-curve $-1 63.189184240241701 -54.193794951466217 -6.1641536733665099 0 0 -1 I I #
End-of-ACIS-data 