500 0 20 0           
7 Unknown 11 ACIS 5.0 NT 24 Fri Mar 26 16:35:31 1999 
-1 9.9999999999999995e-007 1e-010 
body $-1 $20 $-1 $21 #
body $-1 $22 $-1 $23 #
body $-1 $24 $-1 $25 #
body $-1 $26 $-1 $27 #
body $-1 $28 $-1 $29 #
body $-1 $30 $-1 $31 #
body $-1 $32 $-1 $33 #
body $-1 $34 $-1 $35 #
body $-1 $36 $-1 $37 #
body $-1 $38 $-1 $39 #
body $-1 $40 $-1 $41 #
body $-1 $42 $-1 $43 #
body $-1 $44 $-1 $45 #
body $-1 $46 $-1 $47 #
body $-1 $48 $-1 $49 #
body $-1 $50 $-1 $51 #
body $-1 $52 $-1 $53 #
body $-1 $54 $-1 $55 #
body $-1 $56 $-1 $57 #
body $-1 $58 $-1 $59 #
lump $-1 $-1 $60 $0 #
transform $-1 1 0 0 0 1 0 0 0 1 75.16342661824396 47.038904240903832 11.13346421217474 1 rotate no_reflect no_shear #
lump $-1 $-1 $61 $1 #
transform $-1 1 0 0 0 1 0 0 0 1 75.16342661824396 47.038904240903832 11.13346421217474 1 rotate no_reflect no_shear #
lump $-1 $-1 $62 $2 #
transform $-1 1 0 0 0 1 0 0 0 1 75.16342661824396 47.038904240903832 11.13346421217474 1 rotate no_reflect no_shear #
lump $-1 $-1 $63 $3 #
transform $-1 1 0 0 0 1 0 0 0 1 75.16342661824396 47.038904240903832 11.13346421217474 1 rotate no_reflect no_shear #
lump $-1 $-1 $64 $4 #
transform $-1 1 0 0 0 1 0 0 0 1 75.16342661824396 47.038904240903832 11.13346421217474 1 rotate no_reflect no_shear #
lump $-1 $-1 $65 $5 #
transform $-1 1 0 0 0 1 0 0 0 1 75.16342661824396 47.038904240903832 11.13346421217474 1 rotate no_reflect no_shear #
lump $-1 $-1 $66 $6 #
transform $-1 1 0 0 0 1 0 0 0 1 75.16342661824396 47.038904240903832 11.13346421217474 1 rotate no_reflect no_shear #
lump $-1 $-1 $67 $7 #
transform $-1 1 0 0 0 1 0 0 0 1 75.16342661824396 47.038904240903832 11.13346421217474 1 rotate no_reflect no_shear #
lump $-1 $-1 $68 $8 #
transform $-1 1 0 0 0 1 0 0 0 1 75.16342661824396 47.038904240903832 11.13346421217474 1 rotate no_reflect no_shear #
lump $-1 $-1 $69 $9 #
transform $-1 1 0 0 0 1 0 0 0 1 75.16342661824396 47.038904240903832 11.13346421217474 1 rotate no_reflect no_shear #
lump $-1 $-1 $70 $10 #
transform $-1 1 0 0 0 1 0 0 0 1 75.16342661824396 47.038904240903832 11.13346421217474 1 rotate no_reflect no_shear #
lump $-1 $-1 $71 $11 #
transform $-1 1 0 0 0 1 0 0 0 1 75.16342661824396 47.038904240903832 11.13346421217474 1 rotate no_reflect no_shear #
lump $-1 $-1 $72 $12 #
transform $-1 1 0 0 0 1 0 0 0 1 75.16342661824396 47.038904240903832 11.13346421217474 1 rotate no_reflect no_shear #
lump $-1 $-1 $73 $13 #
transform $-1 1 0 0 0 1 0 0 0 1 75.16342661824396 47.038904240903832 11.13346421217474 1 rotate no_reflect no_shear #
lump $-1 $-1 $74 $14 #
transform $-1 1 0 0 0 1 0 0 0 1 75.16342661824396 47.038904240903832 11.13346421217474 1 rotate no_reflect no_shear #
lump $-1 $-1 $75 $15 #
transform $-1 1 0 0 0 1 0 0 0 1 75.16342661824396 47.038904240903832 11.13346421217474 1 rotate no_reflect no_shear #
lump $-1 $-1 $76 $16 #
transform $-1 1 0 0 0 1 0 0 0 1 75.16342661824396 47.038904240903832 11.13346421217474 1 rotate no_reflect no_shear #
lump $-1 $-1 $77 $17 #
transform $-1 1 0 0 0 1 0 0 0 1 75.16342661824396 47.038904240903832 11.13346421217474 1 rotate no_reflect no_shear #
lump $-1 $-1 $78 $18 #
transform $-1 1 0 0 0 1 0 0 0 1 75.16342661824396 47.038904240903832 11.13346421217474 1 rotate no_reflect no_shear #
lump $-1 $-1 $79 $19 #
transform $-1 1 0 0 0 1 0 0 0 1 75.16342661824396 47.038904240903832 11.13346421217474 1 rotate no_reflect no_shear #
shell $-1 $-1 $-1 $80 $-1 $20 #
shell $-1 $-1 $-1 $81 $-1 $22 #
shell $-1 $-1 $-1 $82 $-1 $24 #
shell $-1 $-1 $-1 $83 $-1 $26 #
shell $-1 $-1 $-1 $84 $-1 $28 #
shell $-1 $-1 $-1 $85 $-1 $30 #
shell $-1 $-1 $-1 $86 $-1 $32 #
shell $-1 $-1 $-1 $87 $-1 $34 #
shell $-1 $-1 $-1 $88 $-1 $36 #
shell $-1 $-1 $-1 $89 $-1 $38 #
shell $-1 $-1 $-1 $90 $-1 $40 #
shell $-1 $-1 $-1 $91 $-1 $42 #
shell $-1 $-1 $-1 $92 $-1 $44 #
shell $-1 $-1 $-1 $93 $-1 $46 #
shell $-1 $-1 $-1 $94 $-1 $48 #
shell $-1 $-1 $-1 $95 $-1 $50 #
shell $-1 $-1 $-1 $96 $-1 $52 #
shell $-1 $-1 $-1 $97 $-1 $54 #
shell $-1 $-1 $-1 $98 $-1 $56 #
shell $-1 $-1 $-1 $99 $-1 $58 #
face $-1 $100 $101 $60 $-1 $102 forward single #
face $-1 $103 $104 $61 $-1 $105 forward single #
face $-1 $106 $107 $62 $-1 $108 reversed single #
face $-1 $109 $110 $63 $-1 $111 forward single #
face $-1 $112 $113 $64 $-1 $114 reversed single #
face $-1 $115 $116 $65 $-1 $117 forward single #
face $-1 $118 $119 $66 $-1 $120 forward single #
face $-1 $121 $122 $67 $-1 $123 forward single #
face $-1 $124 $125 $68 $-1 $126 reversed single #
face $-1 $127 $128 $69 $-1 $129 forward single #
face $-1 $130 $131 $70 $-1 $132 forward single #
face $-1 $133 $134 $71 $-1 $135 forward single #
face $-1 $136 $137 $72 $-1 $138 reversed single #
face $-1 $139 $140 $73 $-1 $141 forward single #
face $-1 $142 $143 $74 $-1 $144 forward single #
face $-1 $145 $146 $75 $-1 $147 forward single #
face $-1 $148 $149 $76 $-1 $150 reversed single #
face $-1 $151 $152 $77 $-1 $153 forward single #
face $-1 $154 $155 $78 $-1 $156 forward single #
face $-1 $157 $158 $79 $-1 $159 forward single #
face $-1 $160 $161 $60 $-1 $162 reversed single #
loop $-1 $-1 $163 $80 #
plane-surface $-1 0 0 11.13346421217474 0 0 1 1 0 0 forward_v I I I I #
face $-1 $164 $165 $61 $-1 $166 reversed single #
loop $-1 $-1 $167 $81 #
plane-surface $-1 -75.16342661824396 0 0 1 0 0 0 0 -1 forward_v I I I I #
face $-1 $168 $169 $62 $-1 $170 reversed single #
loop $-1 $-1 $171 $82 #
plane-surface $-1 60.99553693862461 -47.038904240903818 7.9115544552337553 0 -0.5877852598018023 0.80901698891910034 1 0 0 forward_v I I I I #
face $-1 $172 $173 $63 $-1 $174 forward single #
loop $-1 $175 $176 $83 #
cone-surface $-1 60.99553693862461 -44.479737452055083 9.0519551089258368 0 0.5877852598018023 -0.80901698891910034 0.5 0 0 1 I I 0 1 0.5 forward I I I I #
face $-1 $177 $178 $64 $-1 $179 reversed single #
loop $-1 $-1 $180 $84 #
plane-surface $-1 -58.364283893433907 92.820095781480603 178.11418091869925 1 0 0 0 -0.73135370988377701 -0.68199835119979291 forward_v I I I I #
face $-1 $181 $182 $65 $-1 $183 forward single #
loop $-1 $184 $185 $85 #
cone-surface $-1 -54.490993942536292 44.636143815808396 8.609453945466079 0 -0.73135370988377701 -0.68199835119979291 1 0 0 1 I I 0 1 1 forward I I I I #
face $-1 $186 $187 $66 $-1 $188 forward single #
loop $-1 $189 $190 $86 #
cone-surface $-1 -48.681059016189884 44.636143815808396 8.609453945466079 0 -0.73135370988377701 -0.68199835119979291 1 0 0 1 I I 0 1 1 forward I I I I #
face $-1 $191 $192 $67 $-1 $193 forward single #
loop $-1 $194 $195 $87 #
cone-surface $-1 -42.87112408984347 44.636143815808396 8.609453945466079 0 -0.73135370988377701 -0.68199835119979291 1 0 0 1 I I 0 1 1 forward I I I I #
face $-1 $196 $197 $68 $-1 $198 reversed single #
loop $-1 $-1 $199 $88 #
plane-surface $-1 -23.966509621261956 92.820095781480603 178.11418091869925 1 0 0 0 -0.73135370988377701 -0.68199835119979291 forward_v I I I I #
face $-1 $200 $201 $69 $-1 $202 forward single #
loop $-1 $203 $204 $89 #
cone-surface $-1 -20.093219670364348 44.636143815808396 8.609453945466079 0 -0.73135370988377701 -0.68199835119979291 1 0 0 1 I I 0 1 1 forward I I I I #
face $-1 $205 $206 $70 $-1 $207 forward single #
loop $-1 $208 $209 $90 #
cone-surface $-1 -14.283284744017934 44.636143815808396 8.609453945466079 0 -0.73135370988377701 -0.68199835119979291 1 0 0 1 I I 0 1 1 forward I I I I #
face $-1 $210 $211 $71 $-1 $212 forward single #
loop $-1 $213 $214 $91 #
cone-surface $-1 -8.4733498176715187 44.636143815808396 8.609453945466079 0 -0.73135370988377701 -0.68199835119979291 1 0 0 1 I I 0 1 1 forward I I I I #
face $-1 $215 $216 $72 $-1 $217 reversed single #
loop $-1 $-1 $218 $92 #
plane-surface $-1 10.431264650910004 92.820095781480603 178.11418091869925 1 0 0 0 -0.73135370988377701 -0.68199835119979291 forward_v I I I I #
face $-1 $219 $220 $73 $-1 $221 forward single #
loop $-1 $222 $223 $93 #
cone-surface $-1 14.30455460180761 44.636143815808396 8.609453945466079 0 -0.73135370988377701 -0.68199835119979291 1 0 0 1 I I 0 1 1 forward I I I I #
face $-1 $224 $225 $74 $-1 $226 forward single #
loop $-1 $227 $228 $94 #
cone-surface $-1 20.114489528154024 44.636143815808396 8.609453945466079 0 -0.73135370988377701 -0.68199835119979291 1 0 0 1 I I 0 1 1 forward I I I I #
face $-1 $229 $230 $75 $-1 $231 forward single #
loop $-1 $232 $233 $95 #
cone-surface $-1 25.924424454500439 44.636143815808396 8.609453945466079 0 -0.73135370988377701 -0.68199835119979291 1 0 0 1 I I 0 1 1 forward I I I I #
face $-1 $234 $235 $76 $-1 $236 reversed single #
loop $-1 $-1 $237 $96 #
plane-surface $-1 44.829038923081946 92.820095781480603 178.11418091869925 1 0 0 0 -0.73135370988377701 -0.68199835119979291 forward_v I I I I #
face $-1 $238 $239 $77 $-1 $240 forward single #
loop $-1 $241 $242 $97 #
cone-surface $-1 48.702328873979553 44.636143815808396 8.609453945466079 0 -0.73135370988377701 -0.68199835119979291 1 0 0 1 I I 0 1 1 forward I I I I #
face $-1 $243 $244 $78 $-1 $245 forward single #
loop $-1 $246 $247 $98 #
cone-surface $-1 54.512263800325968 44.636143815808396 8.609453945466079 0 -0.73135370988377701 -0.68199835119979291 1 0 0 1 I I 0 1 1 forward I I I I #
face $-1 $248 $249 $79 $-1 $250 forward single #
loop $-1 $251 $252 $99 #
cone-surface $-1 60.322198726672383 44.636143815808396 8.609453945466079 0 -0.73135370988377701 -0.68199835119979291 1 0 0 1 I I 0 1 1 forward I I I I #
face $-1 $253 $254 $60 $-1 $255 reversed single #
loop $-1 $-1 $256 $100 #
plane-surface $-1 0 0 -11.13346421217474 0 0 1 1 0 0 forward_v I I I I #
coedge $-1 $257 $258 $259 $260 forward $101 $-1 #
face $-1 $261 $262 $61 $-1 $263 reversed single #
loop $-1 $-1 $264 $103 #
plane-surface $-1 0 47.038904240903832 0 0 -1 0 0 0 -1 forward_v I I I I #
coedge $-1 $265 $266 $267 $268 forward $104 $-1 #
face $-1 $269 $270 $62 $-1 $271 reversed single #
loop $-1 $-1 $272 $106 #
plane-surface $-1 46.827647259005268 -135.39881272570028 129.52853261430073 1 0 0 0 0.5877852598018023 -0.80901698891910034 forward_v I I I I #
coedge $-1 $273 $274 $275 $276 reversed $107 $-1 #
face $-1 $-1 $277 $63 $-1 $278 forward single #
loop $-1 $279 $280 $109 #
cone-surface $-1 60.99553693862461 -43.990913474397253 8.3791466369176355 0 0.5877852598018023 -0.80901698891910034 0.25 0 0 1 I I -0.70710678118654746 0.70710678118654746 0.25 forward I I I I #
loop $-1 $-1 $281 $83 #
coedge $-1 $176 $176 $282 $283 reversed $110 $-1 #
face $-1 $284 $285 $64 $-1 $286 reversed single #
loop $-1 $-1 $287 $112 #
plane-surface $-1 -48.681059016189884 -17.122006028178916 75.591514870361237 0 0.73135370988377701 0.68199835119979291 1 0 0 forward_v I I I I #
coedge $-1 $288 $289 $290 $291 reversed $113 $-1 #
face $-1 $-1 $292 $65 $-1 $293 forward single #
loop $-1 $294 $295 $115 #
cone-surface $-1 -54.490993942536292 43.894110069602121 7.9174962995170226 0 -0.73135370988377701 -0.68199835119979291 0.5 0 0 1 I I -0.70710678118654746 0.70710678118654746 0.5 forward I I I I #
loop $-1 $-1 $296 $85 #
coedge $-1 $185 $185 $297 $298 reversed $116 $-1 #
face $-1 $-1 $299 $66 $-1 $300 forward single #
loop $-1 $301 $302 $118 #
cone-surface $-1 -48.681059016189884 43.894110069602121 7.9174962995170226 0 -0.73135370988377701 -0.68199835119979291 0.5 0 0 1 I I -0.70710678118654746 0.70710678118654746 0.5 forward I I I I #
loop $-1 $-1 $303 $86 #
coedge $-1 $190 $190 $304 $305 reversed $119 $-1 #
face $-1 $-1 $306 $67 $-1 $307 forward single #
loop $-1 $308 $309 $121 #
cone-surface $-1 -42.87112408984347 43.894110069602121 7.9174962995170226 0 -0.73135370988377701 -0.68199835119979291 0.5 0 0 1 I I -0.70710678118654746 0.70710678118654746 0.5 forward I I I I #
loop $-1 $-1 $310 $87 #
coedge $-1 $195 $195 $311 $312 reversed $122 $-1 #
face $-1 $313 $314 $68 $-1 $315 reversed single #
loop $-1 $-1 $316 $124 #
plane-surface $-1 -14.283284744017934 -17.122006028178916 75.591514870361237 0 0.73135370988377701 0.68199835119979291 1 0 0 forward_v I I I I #
coedge $-1 $317 $318 $319 $320 reversed $125 $-1 #
face $-1 $-1 $321 $69 $-1 $322 forward single #
loop $-1 $323 $324 $127 #
cone-surface $-1 -20.093219670364348 43.894110069602121 7.9174962995170226 0 -0.73135370988377701 -0.68199835119979291 0.5 0 0 1 I I -0.70710678118654746 0.70710678118654746 0.5 forward I I I I #
loop $-1 $-1 $325 $89 #
coedge $-1 $204 $204 $326 $327 reversed $128 $-1 #
face $-1 $-1 $328 $70 $-1 $329 forward single #
loop $-1 $330 $331 $130 #
cone-surface $-1 -14.283284744017934 43.894110069602121 7.9174962995170226 0 -0.73135370988377701 -0.68199835119979291 0.5 0 0 1 I I -0.70710678118654746 0.70710678118654746 0.5 forward I I I I #
loop $-1 $-1 $332 $90 #
coedge $-1 $209 $209 $333 $334 reversed $131 $-1 #
face $-1 $-1 $335 $71 $-1 $336 forward single #
loop $-1 $337 $338 $133 #
cone-surface $-1 -8.4733498176715187 43.894110069602121 7.9174962995170226 0 -0.73135370988377701 -0.68199835119979291 0.5 0 0 1 I I -0.70710678118654746 0.70710678118654746 0.5 forward I I I I #
loop $-1 $-1 $339 $91 #
coedge $-1 $214 $214 $340 $341 reversed $134 $-1 #
face $-1 $342 $343 $72 $-1 $344 reversed single #
loop $-1 $-1 $345 $136 #
plane-surface $-1 20.114489528154024 -17.122006028178916 75.591514870361237 0 0.73135370988377701 0.68199835119979291 1 0 0 forward_v I I I I #
coedge $-1 $346 $347 $348 $349 reversed $137 $-1 #
face $-1 $-1 $350 $73 $-1 $351 forward single #
loop $-1 $352 $353 $139 #
cone-surface $-1 14.30455460180761 43.894110069602121 7.9174962995170226 0 -0.73135370988377701 -0.68199835119979291 0.5 0 0 1 I I -0.70710678118654746 0.70710678118654746 0.5 forward I I I I #
loop $-1 $-1 $354 $93 #
coedge $-1 $223 $223 $355 $356 reversed $140 $-1 #
face $-1 $-1 $357 $74 $-1 $358 forward single #
loop $-1 $359 $360 $142 #
cone-surface $-1 20.114489528154024 43.894110069602121 7.9174962995170226 0 -0.73135370988377701 -0.68199835119979291 0.5 0 0 1 I I -0.70710678118654746 0.70710678118654746 0.5 forward I I I I #
loop $-1 $-1 $361 $94 #
coedge $-1 $228 $228 $362 $363 reversed $143 $-1 #
face $-1 $-1 $364 $75 $-1 $365 forward single #
loop $-1 $366 $367 $145 #
cone-surface $-1 25.924424454500439 43.894110069602121 7.9174962995170226 0 -0.73135370988377701 -0.68199835119979291 0.5 0 0 1 I I -0.70710678118654746 0.70710678118654746 0.5 forward I I I I #
loop $-1 $-1 $368 $95 #
coedge $-1 $233 $233 $369 $370 reversed $146 $-1 #
face $-1 $371 $372 $76 $-1 $373 reversed single #
loop $-1 $-1 $374 $148 #
plane-surface $-1 54.512263800325968 -17.122006028178916 75.591514870361237 0 0.73135370988377701 0.68199835119979291 1 0 0 forward_v I I I I #
coedge $-1 $375 $376 $377 $378 reversed $149 $-1 #
face $-1 $-1 $379 $77 $-1 $380 forward single #
loop $-1 $381 $382 $151 #
cone-surface $-1 48.702328873979553 43.894110069602121 7.9174962995170226 0 -0.73135370988377701 -0.68199835119979291 0.5 0 0 1 I I -0.70710678118654746 0.70710678118654746 0.5 forward I I I I #
loop $-1 $-1 $383 $97 #
coedge $-1 $242 $242 $384 $385 reversed $152 $-1 #
face $-1 $-1 $386 $78 $-1 $387 forward single #
loop $-1 $388 $389 $154 #
cone-surface $-1 54.512263800325968 43.894110069602121 7.9174962995170226 0 -0.73135370988377701 -0.68199835119979291 0.5 0 0 1 I I -0.70710678118654746 0.70710678118654746 0.5 forward I I I I #
loop $-1 $-1 $390 $98 #
coedge $-1 $247 $247 $391 $392 reversed $155 $-1 #
face $-1 $-1 $393 $79 $-1 $394 forward single #
loop $-1 $395 $396 $157 #
cone-surface $-1 60.322198726672383 43.894110069602121 7.9174962995170226 0 -0.73135370988377701 -0.68199835119979291 0.5 0 0 1 I I -0.70710678118654746 0.70710678118654746 0.5 forward I I I I #
loop $-1 $-1 $397 $99 #
coedge $-1 $252 $252 $398 $399 reversed $158 $-1 #
face $-1 $400 $401 $60 $-1 $402 reversed single #
loop $-1 $-1 $403 $160 #
plane-surface $-1 0 -47.038904240903832 0 0 1 0 0 0 1 forward_v I I I I #
coedge $-1 $404 $405 $406 $407 forward $161 $-1 #
coedge $-1 $408 $163 $409 $410 forward $101 $-1 #
coedge $-1 $163 $408 $411 $412 forward $101 $-1 #
coedge $-1 $413 $414 $163 $260 reversed $415 $-1 #
edge $-1 $416 -47.038904240903832 $417 47.038904240903832 $259 $418 forward 7 unknown #
face $-1 $419 $420 $61 $-1 $421 reversed single #
loop $-1 $-1 $267 $164 #
plane-surface $-1 -81.531304692144019 0 8.13346421217474 0 0 1 1 0 0 forward_v I I I I #
coedge $-1 $422 $423 $265 $424 forward $165 $-1 #
coedge $-1 $425 $167 $264 $424 reversed $104 $-1 #
coedge $-1 $167 $425 $426 $427 reversed $104 $-1 #
coedge $-1 $428 $429 $167 $268 reversed $262 $-1 #
edge $-1 $430 -47.038904240903832 $431 47.038904240903832 $267 $432 forward 7 unknown #
face $-1 $433 $434 $62 $-1 $435 forward single #
loop $-1 $-1 $436 $168 #
plane-surface $-1 75.16342661824396 0 0 -1 0 0 0 0 1 forward_v I I I I #
coedge $-1 $437 $438 $439 $440 reversed $169 $-1 #
coedge $-1 $441 $171 $436 $442 reversed $107 $-1 #
coedge $-1 $171 $441 $437 $443 forward $107 $-1 #
coedge $-1 $439 $444 $171 $276 forward $434 $-1 #
edge $-1 $445 -44.665658148931655 $446 -16.329878789692962 $275 $447 forward 7 unknown #
loop $-1 $-1 $282 $172 #
plane-surface $-1 60.99553693862461 -47.038904240903818 7.9115544552337553 0 -0.5877852598018023 0.80901698891910034 1 0 0 forward_v I I I I #
loop $-1 $-1 $448 $109 #
coedge $-1 $280 $280 $281 $449 reversed $173 $-1 #
coedge $-1 $281 $281 $280 $449 forward $175 $-1 #
coedge $-1 $282 $282 $176 $283 forward $277 $-1 #
edge $-1 $450 -1.0787449518558672e-015 $450 6.2831853071795996 $282 $451 forward 7 unknown #
face $-1 $452 $453 $64 $-1 $454 reversed single #
loop $-1 $-1 $455 $177 #
plane-surface $-1 -38.997834138945862 92.820095781480603 178.11418091869925 -1 0 0 0 0.73135370988377701 0.68199835119979291 forward_v I I I I #
coedge $-1 $456 $457 $458 $459 reversed $178 $-1 #
coedge $-1 $289 $180 $460 $461 reversed $113 $-1 #
coedge $-1 $180 $288 $456 $462 reversed $113 $-1 #
coedge $-1 $458 $463 $180 $291 forward $464 $-1 #
edge $-1 $465 -0.62885635016353092 $466 3.4239507174985846 $290 $467 forward 7 unknown #
loop $-1 $-1 $297 $181 #
plane-surface $-1 -48.681059016189884 -17.122006028178916 75.591514870361237 0 0.73135370988377701 0.68199835119979291 1 0 0 forward_v I I I I #
loop $-1 $-1 $468 $115 #
coedge $-1 $295 $295 $296 $469 reversed $182 $-1 #
coedge $-1 $296 $296 $295 $469 forward $184 $-1 #
coedge $-1 $297 $297 $185 $298 forward $292 $-1 #
edge $-1 $470 3.1960536620435999e-015 $470 6.283185307179604 $297 $471 forward 7 unknown #
loop $-1 $-1 $304 $186 #
plane-surface $-1 -48.681059016189884 -17.122006028178916 75.591514870361237 0 0.73135370988377701 0.68199835119979291 1 0 0 forward_v I I I I #
loop $-1 $-1 $472 $118 #
coedge $-1 $302 $302 $303 $473 reversed $187 $-1 #
coedge $-1 $303 $303 $302 $473 forward $189 $-1 #
coedge $-1 $304 $304 $190 $305 forward $299 $-1 #
edge $-1 $474 3.1960536620435999e-015 $474 6.283185307179604 $304 $475 forward 7 unknown #
loop $-1 $-1 $311 $191 #
plane-surface $-1 -48.681059016189884 -17.122006028178916 75.591514870361237 0 0.73135370988377701 0.68199835119979291 1 0 0 forward_v I I I I #
loop $-1 $-1 $476 $121 #
coedge $-1 $309 $309 $310 $477 reversed $192 $-1 #
coedge $-1 $310 $310 $309 $477 forward $194 $-1 #
coedge $-1 $311 $311 $195 $312 forward $306 $-1 #
edge $-1 $478 3.1960536620435999e-015 $478 6.283185307179604 $311 $479 forward 7 unknown #
face $-1 $480 $481 $68 $-1 $482 forward single #
loop $-1 $-1 $483 $196 #
plane-surface $-1 -4.600059866773913 92.820095781480603 178.11418091869925 -1 0 0 0 0.73135370988377701 0.68199835119979291 forward_v I I I I #
coedge $-1 $484 $485 $486 $487 reversed $197 $-1 #
coedge $-1 $318 $199 $488 $489 reversed $125 $-1 #
coedge $-1 $199 $317 $484 $490 reversed $125 $-1 #
coedge $-1 $486 $491 $199 $320 forward $481 $-1 #
edge $-1 $492 -0.62885635016353092 $493 3.4239507174985846 $319 $494 forward 7 unknown #
loop $-1 $-1 $326 $200 #
plane-surface $-1 -14.283284744017934 -17.122006028178916 75.591514870361237 0 0.73135370988377701 0.68199835119979291 1 0 0 forward_v I I I I #
loop $-1 $-1 $495 $127 #
coedge $-1 $324 $324 $325 $496 reversed $201 $-1 #
coedge $-1 $325 $325 $324 $496 forward $203 $-1 #
coedge $-1 $326 $326 $204 $327 forward $321 $-1 #
edge $-1 $497 3.1960536620435999e-015 $497 6.283185307179604 $326 $498 forward 7 unknown #
loop $-1 $-1 $333 $205 #
plane-surface $-1 -14.283284744017934 -17.122006028178916 75.591514870361237 0 0.73135370988377701 0.68199835119979291 1 0 0 forward_v I I I I #
loop $-1 $-1 $499 $130 #
coedge $-1 $331 $331 $332 $500 reversed $206 $-1 #
coedge $-1 $332 $332 $331 $500 forward $208 $-1 #
coedge $-1 $333 $333 $209 $334 forward $328 $-1 #
edge $-1 $501 3.1960536620435999e-015 $501 6.283185307179604 $333 $502 forward 7 unknown #
loop $-1 $-1 $340 $210 #
plane-surface $-1 -14.283284744017934 -17.122006028178916 75.591514870361237 0 0.73135370988377701 0.68199835119979291 1 0 0 forward_v I I I I #
loop $-1 $-1 $503 $133 #
coedge $-1 $338 $338 $339 $504 reversed $211 $-1 #
coedge $-1 $339 $339 $338 $504 forward $213 $-1 #
coedge $-1 $340 $340 $214 $341 forward $335 $-1 #
edge $-1 $505 3.1960536620435999e-015 $505 6.283185307179604 $340 $506 forward 7 unknown #
face $-1 $507 $508 $72 $-1 $509 forward single #
loop $-1 $-1 $510 $215 #
plane-surface $-1 29.797714405398047 92.820095781480603 178.11418091869925 -1 0 0 0 0.73135370988377701 0.68199835119979291 forward_v I I I I #
coedge $-1 $511 $512 $513 $514 reversed $216 $-1 #
coedge $-1 $347 $218 $515 $516 reversed $137 $-1 #
coedge $-1 $218 $346 $511 $517 reversed $137 $-1 #
coedge $-1 $513 $518 $218 $349 forward $508 $-1 #
edge $-1 $519 -0.62885635016353092 $520 3.4239507174985846 $348 $521 forward 7 unknown #
loop $-1 $-1 $355 $219 #
plane-surface $-1 20.114489528154024 -17.122006028178916 75.591514870361237 0 0.73135370988377701 0.68199835119979291 1 0 0 forward_v I I I I #
loop $-1 $-1 $522 $139 #
coedge $-1 $353 $353 $354 $523 reversed $220 $-1 #
coedge $-1 $354 $354 $353 $523 forward $222 $-1 #
coedge $-1 $355 $355 $223 $356 forward $350 $-1 #
edge $-1 $524 3.1960536620435999e-015 $524 6.283185307179604 $355 $525 forward 7 unknown #
loop $-1 $-1 $362 $224 #
plane-surface $-1 20.114489528154024 -17.122006028178916 75.591514870361237 0 0.73135370988377701 0.68199835119979291 1 0 0 forward_v I I I I #
loop $-1 $-1 $526 $142 #
coedge $-1 $360 $360 $361 $527 reversed $225 $-1 #
coedge $-1 $361 $361 $360 $527 forward $227 $-1 #
coedge $-1 $362 $362 $228 $363 forward $357 $-1 #
edge $-1 $528 3.1960536620435999e-015 $528 6.283185307179604 $362 $529 forward 7 unknown #
loop $-1 $-1 $369 $229 #
plane-surface $-1 20.114489528154024 -17.122006028178916 75.591514870361237 0 0.73135370988377701 0.68199835119979291 1 0 0 forward_v I I I I #
loop $-1 $-1 $530 $145 #
coedge $-1 $367 $367 $368 $531 reversed $230 $-1 #
coedge $-1 $368 $368 $367 $531 forward $232 $-1 #
coedge $-1 $369 $369 $233 $370 forward $364 $-1 #
edge $-1 $532 3.1960536620435999e-015 $532 6.283185307179604 $369 $533 forward 7 unknown #
face $-1 $534 $535 $76 $-1 $536 forward single #
loop $-1 $-1 $537 $234 #
plane-surface $-1 64.195488677569983 92.820095781480603 178.11418091869925 -1 0 0 0 0.73135370988377701 0.68199835119979291 forward_v I I I I #
coedge $-1 $538 $539 $540 $541 reversed $235 $-1 #
coedge $-1 $376 $237 $542 $543 reversed $149 $-1 #
coedge $-1 $237 $375 $538 $544 reversed $149 $-1 #
coedge $-1 $540 $545 $237 $378 forward $535 $-1 #
edge $-1 $546 -0.62885635016353092 $547 3.4239507174985846 $377 $548 forward 7 unknown #
loop $-1 $-1 $384 $238 #
plane-surface $-1 54.512263800325968 -17.122006028178916 75.591514870361237 0 0.73135370988377701 0.68199835119979291 1 0 0 forward_v I I I I #
loop $-1 $-1 $549 $151 #
coedge $-1 $382 $382 $383 $550 reversed $239 $-1 #
coedge $-1 $383 $383 $382 $550 forward $241 $-1 #
coedge $-1 $384 $384 $242 $385 forward $379 $-1 #
edge $-1 $551 3.1960536620435999e-015 $551 6.283185307179604 $384 $552 forward 7 unknown #
loop $-1 $-1 $391 $243 #
plane-surface $-1 54.512263800325968 -17.122006028178916 75.591514870361237 0 0.73135370988377701 0.68199835119979291 1 0 0 forward_v I I I I #
loop $-1 $-1 $553 $154 #
coedge $-1 $389 $389 $390 $554 reversed $244 $-1 #
coedge $-1 $390 $390 $389 $554 forward $246 $-1 #
coedge $-1 $391 $391 $247 $392 forward $386 $-1 #
edge $-1 $555 3.1960536620435999e-015 $555 6.283185307179604 $391 $556 forward 7 unknown #
loop $-1 $-1 $398 $248 #
plane-surface $-1 54.512263800325968 -17.122006028178916 75.591514870361237 0 0.73135370988377701 0.68199835119979291 1 0 0 forward_v I I I I #
loop $-1 $-1 $557 $157 #
coedge $-1 $396 $396 $397 $558 reversed $249 $-1 #
coedge $-1 $397 $397 $396 $558 forward $251 $-1 #
coedge $-1 $398 $398 $252 $399 forward $393 $-1 #
edge $-1 $559 3.1960536620435999e-015 $559 6.283185307179604 $398 $560 forward 7 unknown #
face $-1 $561 $562 $60 $-1 $563 reversed single #
loop $-1 $-1 $564 $253 #
plane-surface $-1 -75.16342661824396 0 0 1 0 0 0 0 -1 forward_v I I I I #
coedge $-1 $565 $411 $566 $567 forward $254 $-1 #
coedge $-1 $568 $256 $565 $569 forward $161 $-1 #
coedge $-1 $256 $568 $570 $571 forward $161 $-1 #
coedge $-1 $414 $413 $256 $407 reversed $415 $-1 #
edge $-1 $572 -47.038904240903832 $573 47.038904240903832 $406 $574 forward 7 unknown #
coedge $-1 $258 $257 $575 $576 forward $101 $-1 #
coedge $-1 $577 $578 $257 $410 reversed $562 $-1 #
edge $-1 $417 -75.16342661824396 $579 75.16342661824396 $409 $580 forward 7 unknown #
coedge $-1 $403 $581 $258 $412 reversed $254 $-1 #
edge $-1 $582 -75.16342661824396 $416 75.16342661824396 $411 $583 forward 7 unknown #
coedge $-1 $406 $259 $581 $584 forward $415 $-1 #
coedge $-1 $259 $406 $577 $585 reversed $415 $-1 #
loop $-1 $-1 $413 $561 #
vertex $-1 $260 $586 #
vertex $-1 $260 $587 #
straight-curve $-1 75.16342661824396 0 11.13346421217474 0 1 0 I I #
face $-1 $588 $589 $61 $-1 $590 forward single #
loop $-1 $-1 $591 $261 #
plane-surface $-1 -87.899182766044078 0 9.63346421217474 1 0 0 0 0 -1 forward_v I I I I #
coedge $-1 $592 $264 $429 $593 reversed $165 $-1 #
coedge $-1 $264 $592 $594 $595 reversed $165 $-1 #
edge $-1 $596 -11.13346421217474 $431 -8.13346421217474 $264 $597 forward 7 unknown #
coedge $-1 $266 $265 $598 $599 reversed $104 $-1 #
coedge $-1 $600 $601 $266 $427 forward $602 $-1 #
edge $-1 $430 8.13346421217474 $603 11.13346421217474 $426 $604 forward 7 unknown #
coedge $-1 $605 $267 $601 $606 forward $262 $-1 #
coedge $-1 $267 $605 $422 $593 forward $262 $-1 #
vertex $-1 $427 $607 #
vertex $-1 $424 $608 #
straight-curve $-1 -75.16342661824396 0 8.13346421217474 0 1 0 I I #
face $-1 $-1 $609 $62 $-1 $610 reversed single #
loop $-1 $-1 $275 $269 #
plane-surface $-1 0 0 11.13346421217474 0 0 1 1 0 0 forward_v I I I I #
coedge $-1 $611 $612 $273 $442 forward $270 $-1 #
coedge $-1 $438 $272 $274 $443 reversed $169 $-1 #
coedge $-1 $272 $437 $613 $614 reversed $169 $-1 #
coedge $-1 $615 $275 $272 $440 forward $434 $-1 #
edge $-1 $446 -25.09508037422912 $616 -20.660502121946308 $439 $617 forward 7 unknown #
coedge $-1 $274 $273 $618 $619 reversed $107 $-1 #
edge $-1 $620 -16.702488790062134 $445 -11.221048581732642 $436 $621 forward 7 unknown #
edge $-1 $622 -1.7761521089745031e-014 $446 5.4814402083294738 $437 $623 forward 7 unknown #
coedge $-1 $275 $615 $611 $624 forward $434 $-1 #
vertex $-1 $276 $625 #
vertex $-1 $276 $626 #
straight-curve $-1 30.497768469312305 -42.604325988621021 11.13346421217474 -1 0 0 I I #
coedge $-1 $448 $448 $-1 $627 reversed $279 $-1 #
edge $-1 $628 0 $628 6.2831853071796004 $280 $629 forward 7 unknown #
vertex $-1 $283 $630 #
ellipse-curve $-1 60.99553693862461 -44.821615114762437 9.5225093337042335 0 -0.5877852598018023 0.80901698891910034 0.5 0 0 1 I I #
face $-1 $-1 $464 $64 $-1 $631 forward single #
loop $-1 $-1 $632 $284 #
plane-surface $-1 0 47.038904240903832 0 0 -1 0 0 0 -1 forward_v I I I I #
coedge $-1 $633 $634 $635 $636 reversed $285 $-1 #
coedge $-1 $637 $287 $289 $462 forward $178 $-1 #
coedge $-1 $287 $637 $633 $638 forward $178 $-1 #
coedge $-1 $635 $290 $287 $459 forward $464 $-1 #
edge $-1 $466 -34.023754385338961 $639 -14.65730463085092 $458 $640 forward 7 unknown #
coedge $-1 $641 $642 $288 $461 forward $453 $-1 #
edge $-1 $643 -82.269729839893913 $465 -77.92362624717488 $460 $644 forward 7 unknown #
edge $-1 $466 88.135261757856995 $643 94.077808481807693 $289 $645 forward 7 unknown #
coedge $-1 $290 $635 $641 $646 forward $464 $-1 #
loop $-1 $-1 $635 $452 #
vertex $-1 $461 $647 #
vertex $-1 $291 $648 #
straight-curve $-1 -58.364283893433907 46.410047890740302 11.133464212174744 0 -1 0 I I #
coedge $-1 $468 $468 $-1 $649 reversed $294 $-1 #
edge $-1 $650 0 $650 6.2831853071796004 $295 $651 forward 7 unknown #
vertex $-1 $298 $652 #
ellipse-curve $-1 -54.490993942536292 45.012500707072775 8.9604124158152292 0 0.73135370988377701 0.68199835119979291 1 0 0 1 I I #
coedge $-1 $472 $472 $-1 $653 reversed $301 $-1 #
edge $-1 $654 0 $654 6.2831853071796004 $302 $655 forward 7 unknown #
vertex $-1 $305 $656 #
ellipse-curve $-1 -48.681059016189884 45.012500707072775 8.9604124158152292 0 0.73135370988377701 0.68199835119979291 1 0 0 1 I I #
coedge $-1 $476 $476 $-1 $657 reversed $308 $-1 #
edge $-1 $658 0 $658 6.2831853071796004 $309 $659 forward 7 unknown #
vertex $-1 $312 $660 #
ellipse-curve $-1 -42.87112408984347 45.012500707072775 8.9604124158152292 0 0.73135370988377701 0.68199835119979291 1 0 0 1 I I #
face $-1 $-1 $661 $68 $-1 $662 reversed single #
loop $-1 $-1 $319 $313 #
plane-surface $-1 0 0 11.13346421217474 0 0 1 1 0 0 forward_v I I I I #
coedge $-1 $663 $664 $665 $666 reversed $314 $-1 #
coedge $-1 $667 $316 $318 $490 forward $197 $-1 #
coedge $-1 $316 $667 $663 $668 forward $197 $-1 #
coedge $-1 $665 $319 $316 $487 forward $481 $-1 #
edge $-1 $493 -16.824867249252989 $669 2.5415825052350538 $486 $670 forward 7 unknown #
coedge $-1 $671 $672 $317 $489 forward $661 $-1 #
edge $-1 $673 -82.269729839893913 $492 -77.92362624717488 $488 $674 forward 7 unknown #
edge $-1 $493 88.135261757856995 $673 94.077808481807693 $318 $675 forward 7 unknown #
coedge $-1 $319 $665 $671 $676 forward $481 $-1 #
vertex $-1 $489 $677 #
vertex $-1 $320 $678 #
straight-curve $-1 -23.966509621261956 46.410047890740302 11.133464212174744 0 -1 0 I I #
coedge $-1 $495 $495 $-1 $679 reversed $323 $-1 #
edge $-1 $680 0 $680 6.2831853071796004 $324 $681 forward 7 unknown #
vertex $-1 $327 $682 #
ellipse-curve $-1 -20.093219670364348 45.012500707072775 8.9604124158152292 0 0.73135370988377701 0.68199835119979291 1 0 0 1 I I #
coedge $-1 $499 $499 $-1 $683 reversed $330 $-1 #
edge $-1 $684 0 $684 6.2831853071796004 $331 $685 forward 7 unknown #
vertex $-1 $334 $686 #
ellipse-curve $-1 -14.283284744017934 45.012500707072775 8.9604124158152292 0 0.73135370988377701 0.68199835119979291 1 0 0 1 I I #
coedge $-1 $503 $503 $-1 $687 reversed $337 $-1 #
edge $-1 $688 0 $688 6.2831853071796004 $338 $689 forward 7 unknown #
vertex $-1 $341 $690 #
ellipse-curve $-1 -8.4733498176715187 45.012500707072775 8.9604124158152292 0 0.73135370988377701 0.68199835119979291 1 0 0 1 I I #
face $-1 $-1 $691 $72 $-1 $692 reversed single #
loop $-1 $-1 $348 $342 #
plane-surface $-1 0 0 11.13346421217474 0 0 1 1 0 0 forward_v I I I I #
coedge $-1 $693 $694 $695 $696 reversed $343 $-1 #
coedge $-1 $697 $345 $347 $517 forward $216 $-1 #
coedge $-1 $345 $697 $693 $698 forward $216 $-1 #
coedge $-1 $695 $348 $345 $514 forward $508 $-1 #
edge $-1 $520 0.37401988683299159 $699 19.740469641321035 $513 $700 forward 7 unknown #
coedge $-1 $701 $702 $346 $516 forward $691 $-1 #
edge $-1 $703 -82.269729839893913 $519 -77.92362624717488 $515 $704 forward 7 unknown #
edge $-1 $520 88.135261757856995 $703 94.077808481807693 $347 $705 forward 7 unknown #
coedge $-1 $348 $695 $701 $706 forward $508 $-1 #
vertex $-1 $349 $707 #
vertex $-1 $349 $708 #
straight-curve $-1 10.431264650910004 46.410047890740302 11.133464212174744 0 -1 0 I I #
coedge $-1 $522 $522 $-1 $709 reversed $352 $-1 #
edge $-1 $710 0 $710 6.2831853071796004 $353 $711 forward 7 unknown #
vertex $-1 $356 $712 #
ellipse-curve $-1 14.30455460180761 45.012500707072775 8.9604124158152292 0 0.73135370988377701 0.68199835119979291 1 0 0 1 I I #
coedge $-1 $526 $526 $-1 $713 reversed $359 $-1 #
edge $-1 $714 0 $714 6.2831853071796004 $360 $715 forward 7 unknown #
vertex $-1 $363 $716 #
ellipse-curve $-1 20.114489528154024 45.012500707072775 8.9604124158152292 0 0.73135370988377701 0.68199835119979291 1 0 0 1 I I #
coedge $-1 $530 $530 $-1 $717 reversed $366 $-1 #
edge $-1 $718 0 $718 6.2831853071796004 $367 $719 forward 7 unknown #
vertex $-1 $370 $720 #
ellipse-curve $-1 25.924424454500439 45.012500707072775 8.9604124158152292 0 0.73135370988377701 0.68199835119979291 1 0 0 1 I I #
face $-1 $-1 $721 $76 $-1 $722 reversed single #
loop $-1 $-1 $377 $371 #
plane-surface $-1 0 0 11.13346421217474 0 0 1 1 0 0 forward_v I I I I #
coedge $-1 $723 $724 $725 $726 reversed $372 $-1 #
coedge $-1 $727 $374 $376 $544 forward $235 $-1 #
coedge $-1 $374 $727 $723 $728 forward $235 $-1 #
coedge $-1 $725 $377 $374 $541 forward $535 $-1 #
edge $-1 $547 17.572907022918962 $729 36.939356777406999 $540 $730 forward 7 unknown #
coedge $-1 $731 $732 $375 $543 forward $721 $-1 #
edge $-1 $733 -82.269729839893913 $546 -77.92362624717488 $542 $734 forward 7 unknown #
edge $-1 $547 88.135261757856995 $733 94.077808481807693 $376 $735 forward 7 unknown #
coedge $-1 $377 $725 $731 $736 forward $535 $-1 #
vertex $-1 $378 $737 #
vertex $-1 $378 $738 #
straight-curve $-1 44.829038923081946 46.410047890740302 11.133464212174744 0 -1 0 I I #
coedge $-1 $549 $549 $-1 $739 reversed $381 $-1 #
edge $-1 $740 0 $740 6.2831853071796004 $382 $741 forward 7 unknown #
vertex $-1 $385 $742 #
ellipse-curve $-1 48.702328873979553 45.012500707072775 8.9604124158152292 0 0.73135370988377701 0.68199835119979291 1 0 0 1 I I #
coedge $-1 $553 $553 $-1 $743 reversed $388 $-1 #
edge $-1 $744 0 $744 6.2831853071796004 $389 $745 forward 7 unknown #
vertex $-1 $392 $746 #
ellipse-curve $-1 54.512263800325968 45.012500707072775 8.9604124158152292 0 0.73135370988377701 0.68199835119979291 1 0 0 1 I I #
coedge $-1 $557 $557 $-1 $747 reversed $395 $-1 #
edge $-1 $748 0 $748 6.2831853071796004 $396 $749 forward 7 unknown #
vertex $-1 $399 $750 #
ellipse-curve $-1 60.322198726672383 45.012500707072775 8.9604124158152292 0 0.73135370988377701 0.68199835119979291 1 0 0 1 I I #
face $-1 $-1 $415 $60 $-1 $751 reversed single #
loop $-1 $-1 $577 $400 #
plane-surface $-1 0 47.038904240903832 0 0 -1 0 0 0 -1 forward_v I I I I #
coedge $-1 $752 $575 $578 $753 forward $401 $-1 #
coedge $-1 $581 $403 $404 $569 reversed $254 $-1 #
coedge $-1 $575 $752 $403 $567 reversed $401 $-1 #
edge $-1 $582 -11.13346421217474 $754 11.13346421217474 $566 $755 forward 7 unknown #
coedge $-1 $405 $404 $752 $756 forward $161 $-1 #
edge $-1 $573 -75.16342661824396 $754 75.16342661824396 $565 $757 forward 7 unknown #
coedge $-1 $578 $577 $405 $571 reversed $562 $-1 #
edge $-1 $758 -75.16342661824396 $572 75.16342661824396 $570 $759 forward 7 unknown #
vertex $-1 $407 $760 #
vertex $-1 $584 $761 #
straight-curve $-1 75.16342661824396 0 -11.13346421217474 0 -1 0 I I #
coedge $-1 $564 $566 $408 $576 reversed $401 $-1 #
edge $-1 $579 -47.038904240903832 $582 47.038904240903832 $575 $762 forward 7 unknown #
coedge $-1 $570 $409 $414 $585 forward $562 $-1 #
coedge $-1 $409 $570 $564 $753 reversed $562 $-1 #
vertex $-1 $410 $763 #
straight-curve $-1 0 47.038904240903832 11.13346421217474 -1 0 0 I I #
coedge $-1 $411 $565 $413 $584 reversed $254 $-1 #
vertex $-1 $576 $764 #
straight-curve $-1 0 -47.038904240903832 11.13346421217474 1 0 0 I I #
edge $-1 $416 -11.13346421217474 $573 11.13346421217474 $413 $765 forward 7 unknown #
edge $-1 $417 -11.13346421217474 $572 11.13346421217474 $414 $766 forward 7 unknown #
point $-1 75.16342661824396 -47.038904240903832 11.13346421217474 #
point $-1 75.16342661824396 47.038904240903832 11.13346421217474 #
face $-1 $-1 $602 $61 $-1 $767 reversed single #
loop $-1 $-1 $598 $419 #
plane-surface $-1 0 0 11.13346421217474 0 0 1 1 0 0 forward_v I I I I #
coedge $-1 $768 $769 $592 $770 forward $420 $-1 #
coedge $-1 $423 $422 $591 $770 reversed $165 $-1 #
edge $-1 $771 -6.3678780739000587 $431 6.3678780739000587 $422 $772 forward 7 unknown #
coedge $-1 $773 $598 $423 $595 forward $589 $-1 #
edge $-1 $596 75.16342661824396 $774 87.899182766044078 $423 $775 forward 7 unknown #
vertex $-1 $595 $776 #
straight-curve $-1 -75.16342661824396 47.038904240903832 0 0 0 -1 I I #
coedge $-1 $594 $777 $425 $599 forward $589 $-1 #
edge $-1 $603 -47.038904240903832 $596 47.038904240903832 $598 $778 forward 7 unknown #
coedge $-1 $779 $426 $777 $780 reversed $602 $-1 #
coedge $-1 $426 $779 $428 $606 reversed $602 $-1 #
loop $-1 $-1 $426 $588 #
vertex $-1 $427 $781 #
straight-curve $-1 -75.16342661824396 -47.038904240903832 0 0 0 1 I I #
coedge $-1 $429 $428 $768 $782 forward $262 $-1 #
edge $-1 $430 -6.3678780739000587 $783 6.3678780739000587 $601 $784 forward 7 unknown #
point $-1 -75.16342661824396 -47.038904240903832 8.13346421217474 #
point $-1 -75.16342661824396 47.038904240903832 8.13346421217474 #
loop $-1 $-1 $618 $433 #
plane-surface $-1 0 -47.038904240903832 0 0 1 0 0 0 1 forward_v I I I I #
coedge $-1 $612 $436 $444 $624 reversed $270 $-1 #
coedge $-1 $436 $611 $785 $786 forward $270 $-1 #
coedge $-1 $618 $787 $438 $614 forward $609 $-1 #
edge $-1 $616 53.630802094975621 $622 56.852711851916624 $613 $788 forward 7 unknown #
coedge $-1 $444 $439 $787 $789 forward $434 $-1 #
vertex $-1 $789 $790 #
straight-curve $-1 46.827647259005268 -67.699406362850141 11.133464212174744 0 -1 0 I I #
coedge $-1 $785 $613 $441 $619 forward $609 $-1 #
edge $-1 $622 16.329878789692962 $620 44.665658148931655 $618 $791 forward 7 unknown #
vertex $-1 $619 $792 #
straight-curve $-1 75.16342661824396 -33.526307052512735 17.729031168037103 0 0.80901698891910034 0.5877852598018023 I I #
vertex $-1 $619 $793 #
straight-curve $-1 46.827647259005268 -47.038904240903818 7.9115544552337553 0 0.80901698891910034 0.5877852598018023 I I #
edge $-1 $794 -47.038904240903832 $445 -42.604325988621021 $611 $795 forward 7 unknown #
point $-1 75.16342661824396 -42.604325988621021 11.13346421217474 #
point $-1 46.827647259005268 -42.604325988621021 11.13346421217474 #
edge $-1 $796 1 $796 0 $448 $-1 forward 7 unknown #
vertex $-1 $449 $797 #
ellipse-curve $-1 60.99553693862461 -44.137859789347701 8.5814008841474099 0 -0.5877852598018023 0.80901698891910034 0.5 0 0 1 I I #
point $-1 61.49553693862461 -44.821615114762459 9.5225093337042619 #
plane-surface $-1 0 0 11.13346421217474 0 0 1 1 0 0 forward_v I I I I #
coedge $-1 $642 $641 $634 $798 forward $453 $-1 #
coedge $-1 $634 $455 $457 $638 reversed $285 $-1 #
coedge $-1 $455 $633 $632 $798 reversed $285 $-1 #
coedge $-1 $463 $458 $455 $636 forward $464 $-1 #
edge $-1 $639 -3.4239507174985846 $799 0.62885635016353092 $635 $800 forward 7 unknown #
coedge $-1 $457 $456 $642 $801 reversed $178 $-1 #
edge $-1 $802 -94.077808481807693 $639 -88.135261757856995 $633 $803 forward 7 unknown #
vertex $-1 $459 $804 #
straight-curve $-1 -24.340529508094942 42.986097173241717 11.133464212174744 1 0 0 I I #
coedge $-1 $632 $460 $463 $646 reversed $453 $-1 #
coedge $-1 $460 $632 $637 $801 forward $453 $-1 #
vertex $-1 $461 $805 #
straight-curve $-1 -58.364283893433907 47.038904240903832 89.057090459349624 0 0 1 I I #
straight-curve $-1 -58.364283893433907 -17.122006028178916 75.591514870361237 0 0.68199835119979291 -0.73135370988377701 I I #
edge $-1 $799 38.997834138945862 $465 58.364283893433907 $641 $806 forward 7 unknown #
point $-1 -58.364283893433907 47.038904240903832 11.13346421217474 #
point $-1 -58.364283893433907 42.986097173241717 11.133464212174744 #
edge $-1 $807 1 $807 0 $468 $-1 forward 7 unknown #
vertex $-1 $469 $808 #
ellipse-curve $-1 -54.490993942536292 44.259786924544009 8.2584954751169199 0 0.73135370988377701 0.68199835119979291 1 0 0 1 I I #
point $-1 -53.490993942536292 45.012500707072789 8.9604124158152381 #
edge $-1 $809 1 $809 0 $472 $-1 forward 7 unknown #
vertex $-1 $473 $810 #
ellipse-curve $-1 -48.681059016189884 44.259786924544009 8.2584954751169199 0 0.73135370988377701 0.68199835119979291 1 0 0 1 I I #
point $-1 -47.681059016189884 45.012500707072789 8.9604124158152381 #
edge $-1 $811 1 $811 0 $476 $-1 forward 7 unknown #
vertex $-1 $477 $812 #
ellipse-curve $-1 -42.87112408984347 44.259786924544009 8.2584954751169199 0 0.73135370988377701 0.68199835119979291 1 0 0 1 I I #
point $-1 -41.87112408984347 45.012500707072789 8.9604124158152381 #
loop $-1 $-1 $488 $480 #
plane-surface $-1 0 47.038904240903832 0 0 -1 0 0 0 -1 forward_v I I I I #
coedge $-1 $664 $483 $485 $668 reversed $314 $-1 #
coedge $-1 $483 $663 $813 $814 reversed $314 $-1 #
coedge $-1 $491 $486 $483 $666 forward $481 $-1 #
edge $-1 $669 -3.4239507174985846 $815 0.62885635016353092 $665 $816 forward 7 unknown #
coedge $-1 $485 $484 $672 $817 reversed $197 $-1 #
edge $-1 $818 -94.077808481807693 $669 -88.135261757856995 $663 $819 forward 7 unknown #
vertex $-1 $487 $820 #
straight-curve $-1 -7.1416423720089668 42.986097173241717 11.133464212174744 1 0 0 I I #
coedge $-1 $813 $488 $491 $676 reversed $661 $-1 #
coedge $-1 $488 $813 $667 $817 forward $661 $-1 #
vertex $-1 $489 $821 #
straight-curve $-1 -23.966509621261956 47.038904240903832 89.057090459349624 0 0 1 I I #
straight-curve $-1 -23.966509621261956 -17.122006028178916 75.591514870361237 0 0.68199835119979291 -0.73135370988377701 I I #
edge $-1 $815 4.600059866773913 $492 23.966509621261956 $671 $822 forward 7 unknown #
point $-1 -23.966509621261956 47.038904240903832 11.13346421217474 #
point $-1 -23.966509621261956 42.986097173241717 11.133464212174744 #
edge $-1 $823 1 $823 0 $495 $-1 forward 7 unknown #
vertex $-1 $496 $824 #
ellipse-curve $-1 -20.093219670364348 44.259786924544009 8.2584954751169199 0 0.73135370988377701 0.68199835119979291 1 0 0 1 I I #
point $-1 -19.093219670364348 45.012500707072789 8.9604124158152381 #
edge $-1 $825 1 $825 0 $499 $-1 forward 7 unknown #
vertex $-1 $500 $826 #
ellipse-curve $-1 -14.283284744017934 44.259786924544009 8.2584954751169199 0 0.73135370988377701 0.68199835119979291 1 0 0 1 I I #
point $-1 -13.283284744017934 45.012500707072789 8.9604124158152381 #
edge $-1 $827 1 $827 0 $503 $-1 forward 7 unknown #
vertex $-1 $504 $828 #
ellipse-curve $-1 -8.4733498176715187 44.259786924544009 8.2584954751169199 0 0.73135370988377701 0.68199835119979291 1 0 0 1 I I #
point $-1 -7.4733498176715187 45.012500707072789 8.9604124158152381 #
loop $-1 $-1 $515 $507 #
plane-surface $-1 0 47.038904240903832 0 0 -1 0 0 0 -1 forward_v I I I I #
coedge $-1 $694 $510 $512 $698 reversed $343 $-1 #
coedge $-1 $510 $693 $829 $830 reversed $343 $-1 #
coedge $-1 $518 $513 $510 $696 forward $508 $-1 #
edge $-1 $699 -3.4239507174985846 $831 0.62885635016353092 $695 $832 forward 7 unknown #
coedge $-1 $512 $511 $702 $833 reversed $216 $-1 #
edge $-1 $834 -94.077808481807693 $699 -88.135261757856995 $693 $835 forward 7 unknown #
vertex $-1 $514 $836 #
straight-curve $-1 10.057244764077012 42.986097173241717 11.133464212174744 1 0 0 I I #
coedge $-1 $829 $515 $518 $706 reversed $691 $-1 #
coedge $-1 $515 $829 $697 $833 forward $691 $-1 #
vertex $-1 $516 $837 #
straight-curve $-1 10.431264650910004 47.038904240903832 89.057090459349624 0 0 1 I I #
straight-curve $-1 10.431264650910004 -17.122006028178916 75.591514870361237 0 0.68199835119979291 -0.73135370988377701 I I #
edge $-1 $831 -29.797714405398047 $519 -10.431264650910004 $701 $838 forward 7 unknown #
point $-1 10.431264650910004 47.038904240903832 11.13346421217474 #
point $-1 10.431264650910004 42.986097173241717 11.133464212174744 #
edge $-1 $839 1 $839 0 $522 $-1 forward 7 unknown #
vertex $-1 $523 $840 #
ellipse-curve $-1 14.30455460180761 44.259786924544009 8.2584954751169199 0 0.73135370988377701 0.68199835119979291 1 0 0 1 I I #
point $-1 15.30455460180761 45.012500707072789 8.9604124158152381 #
edge $-1 $841 1 $841 0 $526 $-1 forward 7 unknown #
vertex $-1 $527 $842 #
ellipse-curve $-1 20.114489528154024 44.259786924544009 8.2584954751169199 0 0.73135370988377701 0.68199835119979291 1 0 0 1 I I #
point $-1 21.114489528154024 45.012500707072789 8.9604124158152381 #
edge $-1 $843 1 $843 0 $530 $-1 forward 7 unknown #
vertex $-1 $531 $844 #
ellipse-curve $-1 25.924424454500439 44.259786924544009 8.2584954751169199 0 0.73135370988377701 0.68199835119979291 1 0 0 1 I I #
point $-1 26.924424454500439 45.012500707072789 8.9604124158152381 #
loop $-1 $-1 $542 $534 #
plane-surface $-1 0 47.038904240903832 0 0 -1 0 0 0 -1 forward_v I I I I #
coedge $-1 $724 $537 $539 $728 reversed $372 $-1 #
coedge $-1 $537 $723 $845 $846 reversed $372 $-1 #
coedge $-1 $545 $540 $537 $726 forward $535 $-1 #
edge $-1 $729 -3.4239507174985846 $847 0.62885635016353092 $725 $848 forward 7 unknown #
coedge $-1 $539 $538 $732 $849 reversed $235 $-1 #
edge $-1 $850 -94.077808481807693 $729 -88.135261757856995 $723 $851 forward 7 unknown #
vertex $-1 $541 $852 #
straight-curve $-1 27.256131900162984 42.986097173241717 11.133464212174744 1 0 0 I I #
coedge $-1 $845 $542 $545 $736 reversed $721 $-1 #
coedge $-1 $542 $845 $727 $849 forward $721 $-1 #
vertex $-1 $543 $853 #
straight-curve $-1 44.829038923081946 47.038904240903832 89.057090459349624 0 0 1 I I #
straight-curve $-1 44.829038923081946 -17.122006028178916 75.591514870361237 0 0.68199835119979291 -0.73135370988377701 I I #
edge $-1 $847 -64.195488677569983 $546 -44.829038923081946 $731 $854 forward 7 unknown #
point $-1 44.829038923081946 47.038904240903832 11.13346421217474 #
point $-1 44.829038923081946 42.986097173241717 11.133464212174744 #
edge $-1 $855 1 $855 0 $549 $-1 forward 7 unknown #
vertex $-1 $550 $856 #
ellipse-curve $-1 48.702328873979553 44.259786924544009 8.2584954751169199 0 0.73135370988377701 0.68199835119979291 1 0 0 1 I I #
point $-1 49.702328873979553 45.012500707072789 8.9604124158152381 #
edge $-1 $857 1 $857 0 $553 $-1 forward 7 unknown #
vertex $-1 $554 $858 #
ellipse-curve $-1 54.512263800325968 44.259786924544009 8.2584954751169199 0 0.73135370988377701 0.68199835119979291 1 0 0 1 I I #
point $-1 55.512263800325968 45.012500707072789 8.9604124158152381 #
edge $-1 $859 1 $859 0 $557 $-1 forward 7 unknown #
vertex $-1 $558 $860 #
ellipse-curve $-1 60.322198726672383 44.259786924544009 8.2584954751169199 0 0.73135370988377701 0.68199835119979291 1 0 0 1 I I #
point $-1 61.322198726672383 45.012500707072789 8.9604124158152381 #
plane-surface $-1 75.16342661824396 0 0 -1 0 0 0 0 1 forward_v I I I I #
coedge $-1 $566 $564 $568 $756 reversed $401 $-1 #
edge $-1 $579 -11.13346421217474 $758 11.13346421217474 $578 $861 forward 7 unknown #
vertex $-1 $756 $862 #
straight-curve $-1 -75.16342661824396 -47.038904240903832 0 0 0 -1 I I #
edge $-1 $754 -47.038904240903832 $758 47.038904240903832 $752 $863 forward 7 unknown #
straight-curve $-1 0 -47.038904240903832 -11.13346421217474 -1 0 0 I I #
vertex $-1 $571 $864 #
straight-curve $-1 0 47.038904240903832 -11.13346421217474 1 0 0 I I #
point $-1 75.16342661824396 47.038904240903832 -11.13346421217474 #
point $-1 75.16342661824396 -47.038904240903832 -11.13346421217474 #
straight-curve $-1 -75.16342661824396 0 11.13346421217474 0 -1 0 I I #
point $-1 -75.16342661824396 47.038904240903832 11.13346421217474 #
point $-1 -75.16342661824396 -47.038904240903832 11.13346421217474 #
straight-curve $-1 75.16342661824396 -47.038904240903832 0 0 0 -1 I I #
straight-curve $-1 75.16342661824396 47.038904240903832 0 0 0 -1 I I #
plane-surface $-1 0 -47.038904240903832 0 0 1 0 0 0 1 forward_v I I I I #
coedge $-1 $865 $591 $605 $782 reversed $420 $-1 #
coedge $-1 $591 $865 $773 $866 reversed $420 $-1 #
edge $-1 $774 -1.5 $771 1.5 $592 $867 forward 7 unknown #
vertex $-1 $593 $868 #
straight-curve $-1 -81.531304692144019 47.038904240903832 8.13346421217474 1 0 0 I I #
coedge $-1 $777 $594 $769 $866 forward $589 $-1 #
vertex $-1 $595 $869 #
straight-curve $-1 0 47.038904240903832 11.13346421217474 -1 0 0 I I #
point $-1 -75.16342661824396 47.038904240903832 11.13346421217474 #
coedge $-1 $598 $773 $600 $780 forward $589 $-1 #
straight-curve $-1 -75.16342661824396 0 11.13346421217474 0 1 0 I I #
coedge $-1 $601 $600 $865 $870 forward $602 $-1 #
edge $-1 $871 -87.899182766044078 $603 -75.16342661824396 $600 $872 forward 7 unknown #
point $-1 -75.16342661824396 -47.038904240903832 11.13346421217474 #
edge $-1 $783 -47.038904240903832 $771 47.038904240903832 $768 $873 forward 7 unknown #
vertex $-1 $782 $874 #
straight-curve $-1 -81.531304692144019 -47.038904240903832 8.13346421217474 -1 0 0 I I #
coedge $-1 $787 $618 $612 $786 reversed $609 $-1 #
edge $-1 $794 -11.13346421217474 $620 -7.9115544552337447 $612 $875 forward 7 unknown #
coedge $-1 $613 $785 $615 $789 reversed $609 $-1 #
straight-curve $-1 46.827647259005268 -47.038904240903832 64.764266307150365 0 0 -1 I I #
edge $-1 $616 46.827647259005268 $794 75.16342661824396 $787 $876 forward 7 unknown #
point $-1 46.827647259005268 -47.038904240903832 11.13346421217474 #
straight-curve $-1 30.497768469312305 -47.038904240903832 7.9115544552337447 1 0 0 I I #
point $-1 75.16342661824396 -47.038904240903832 7.9115544552337447 #
point $-1 46.827647259005268 -47.038904240903832 7.9115544552337447 #
vertex $-1 $624 $877 #
straight-curve $-1 75.16342661824396 0 11.13346421217474 0 1 0 I I #
vertex $-1 $627 $878 #
point $-1 61.49553693862461 -44.137859789347701 8.5814008841474099 #
edge $-1 $799 77.92362624717488 $802 82.269729839893913 $632 $879 forward 7 unknown #
vertex $-1 $646 $880 #
straight-curve $-1 -38.997834138945862 46.410047890740302 11.133464212174744 0 1 0 I I #
edge $-1 $802 14.65730463085092 $643 34.023754385338961 $642 $881 forward 7 unknown #
vertex $-1 $801 $882 #
straight-curve $-1 -38.997834138945862 -17.122006028178916 75.591514870361237 0 -0.68199835119979291 0.73135370988377701 I I #
point $-1 -38.997834138945862 42.986097173241717 11.133464212174744 #
point $-1 -58.364283893433907 47.038904240903832 6.7873606194557112 #
straight-curve $-1 0 47.038904240903832 11.13346421217474 -1 0 0 I I #
vertex $-1 $649 $883 #
point $-1 -53.490993942536292 44.259786924544009 8.2584954751169199 #
vertex $-1 $653 $884 #
point $-1 -47.681059016189884 44.259786924544009 8.2584954751169199 #
vertex $-1 $657 $885 #
point $-1 -41.87112408984347 44.259786924544009 8.2584954751169199 #
coedge $-1 $672 $671 $664 $814 forward $661 $-1 #
edge $-1 $815 77.92362624717488 $818 82.269729839893913 $813 $886 forward 7 unknown #
vertex $-1 $676 $887 #
straight-curve $-1 -4.600059866773913 46.410047890740302 11.133464212174744 0 1 0 I I #
edge $-1 $818 -2.5415825052350538 $673 16.824867249252989 $672 $888 forward 7 unknown #
vertex $-1 $817 $889 #
straight-curve $-1 -4.600059866773913 -17.122006028178916 75.591514870361237 0 -0.68199835119979291 0.73135370988377701 I I #
point $-1 -4.600059866773913 42.986097173241717 11.133464212174744 #
point $-1 -23.966509621261956 47.038904240903832 6.7873606194557112 #
straight-curve $-1 0 47.038904240903832 11.13346421217474 -1 0 0 I I #
vertex $-1 $679 $890 #
point $-1 -19.093219670364348 44.259786924544009 8.2584954751169199 #
vertex $-1 $683 $891 #
point $-1 -13.283284744017934 44.259786924544009 8.2584954751169199 #
vertex $-1 $687 $892 #
point $-1 -7.4733498176715187 44.259786924544009 8.2584954751169199 #
coedge $-1 $702 $701 $694 $830 forward $691 $-1 #
edge $-1 $831 77.92362624717488 $834 82.269729839893913 $829 $893 forward 7 unknown #
vertex $-1 $706 $894 #
straight-curve $-1 29.797714405398047 46.410047890740302 11.133464212174744 0 1 0 I I #
edge $-1 $834 -19.740469641321035 $703 -0.37401988683299159 $702 $895 forward 7 unknown #
vertex $-1 $833 $896 #
straight-curve $-1 29.797714405398047 -17.122006028178916 75.591514870361237 0 -0.68199835119979291 0.73135370988377701 I I #
point $-1 29.797714405398047 42.986097173241717 11.133464212174744 #
point $-1 10.431264650910004 47.038904240903832 6.7873606194557112 #
straight-curve $-1 0 47.038904240903832 11.13346421217474 -1 0 0 I I #
vertex $-1 $709 $897 #
point $-1 15.30455460180761 44.259786924544009 8.2584954751169199 #
vertex $-1 $713 $898 #
point $-1 21.114489528154024 44.259786924544009 8.2584954751169199 #
vertex $-1 $717 $899 #
point $-1 26.924424454500439 44.259786924544009 8.2584954751169199 #
coedge $-1 $732 $731 $724 $846 forward $721 $-1 #
edge $-1 $847 77.92362624717488 $850 82.269729839893913 $845 $900 forward 7 unknown #
vertex $-1 $736 $901 #
straight-curve $-1 64.195488677569983 46.410047890740302 11.133464212174744 0 1 0 I I #
edge $-1 $850 -36.939356777406999 $733 -17.572907022918962 $732 $902 forward 7 unknown #
vertex $-1 $849 $903 #
straight-curve $-1 64.195488677569983 -17.122006028178916 75.591514870361237 0 -0.68199835119979291 0.73135370988377701 I I #
point $-1 64.195488677569983 42.986097173241717 11.133464212174744 #
point $-1 44.829038923081946 47.038904240903832 6.7873606194557112 #
straight-curve $-1 0 47.038904240903832 11.13346421217474 -1 0 0 I I #
vertex $-1 $739 $904 #
point $-1 49.702328873979553 44.259786924544009 8.2584954751169199 #
vertex $-1 $743 $905 #
point $-1 55.512263800325968 44.259786924544009 8.2584954751169199 #
vertex $-1 $747 $906 #
point $-1 61.322198726672383 44.259786924544009 8.2584954751169199 #
straight-curve $-1 -75.16342661824396 47.038904240903832 0 0 0 -1 I I #
point $-1 -75.16342661824396 -47.038904240903832 -11.13346421217474 #
straight-curve $-1 -75.16342661824396 0 -11.13346421217474 0 1 0 I I #
point $-1 -75.16342661824396 47.038904240903832 -11.13346421217474 #
coedge $-1 $769 $768 $779 $870 reversed $420 $-1 #
edge $-1 $774 -47.038904240903832 $871 47.038904240903832 $769 $907 forward 7 unknown #
straight-curve $-1 -87.899182766044078 47.038904240903832 9.63346421217474 0 0 -1 I I #
point $-1 -87.899182766044078 47.038904240903832 8.13346421217474 #
point $-1 -87.899182766044078 47.038904240903832 11.13346421217474 #
edge $-1 $871 -1.5 $783 1.5 $865 $908 forward 7 unknown #
vertex $-1 $866 $909 #
straight-curve $-1 0 -47.038904240903832 11.13346421217474 1 0 0 I I #
straight-curve $-1 -87.899182766044078 0 8.13346421217474 0 1 0 I I #
point $-1 -87.899182766044078 -47.038904240903832 8.13346421217474 #
straight-curve $-1 75.16342661824396 -47.038904240903832 0 0 0 -1 I I #
straight-curve $-1 0 -47.038904240903832 11.13346421217474 1 0 0 I I #
point $-1 75.16342661824396 -47.038904240903832 11.13346421217474 #
point $-1 60.99553693862461 -43.843967159446805 8.1768923896878611 #
straight-curve $-1 -38.997834138945862 47.038904240903832 89.057090459349624 0 0 -1 I I #
point $-1 -38.997834138945862 47.038904240903832 11.13346421217474 #
straight-curve $-1 -24.340529508094942 47.038904240903832 6.7873606194557112 -1 0 0 I I #
point $-1 -38.997834138945862 47.038904240903832 6.7873606194557112 #
point $-1 -54.490993942536292 43.528433214660232 7.5764971239171262 #
point $-1 -48.681059016189884 43.528433214660232 7.5764971239171262 #
point $-1 -42.87112408984347 43.528433214660232 7.5764971239171262 #
straight-curve $-1 -4.600059866773913 47.038904240903832 89.057090459349624 0 0 -1 I I #
point $-1 -4.600059866773913 47.038904240903832 11.13346421217474 #
straight-curve $-1 -7.1416423720089668 47.038904240903832 6.7873606194557112 -1 0 0 I I #
point $-1 -4.600059866773913 47.038904240903832 6.7873606194557112 #
point $-1 -20.093219670364348 43.528433214660232 7.5764971239171262 #
point $-1 -14.283284744017934 43.528433214660232 7.5764971239171262 #
point $-1 -8.4733498176715187 43.528433214660232 7.5764971239171262 #
straight-curve $-1 29.797714405398047 47.038904240903832 89.057090459349624 0 0 -1 I I #
point $-1 29.797714405398047 47.038904240903832 11.13346421217474 #
straight-curve $-1 10.057244764077012 47.038904240903832 6.7873606194557112 -1 0 0 I I #
point $-1 29.797714405398047 47.038904240903832 6.7873606194557112 #
point $-1 14.30455460180761 43.528433214660232 7.5764971239171262 #
point $-1 20.114489528154024 43.528433214660232 7.5764971239171262 #
point $-1 25.924424454500439 43.528433214660232 7.5764971239171262 #
straight-curve $-1 64.195488677569983 47.038904240903832 89.057090459349624 0 0 -1 I I #
point $-1 64.195488677569983 47.038904240903832 11.13346421217474 #
straight-curve $-1 27.256131900162984 47.038904240903832 6.7873606194557112 -1 0 0 I I #
point $-1 64.195488677569983 47.038904240903832 6.7873606194557112 #
point $-1 48.702328873979553 43.528433214660232 7.5764971239171262 #
point $-1 54.512263800325968 43.528433214660232 7.5764971239171262 #
point $-1 60.322198726672383 43.528433214660232 7.5764971239171262 #
straight-curve $-1 -87.899182766044078 0 11.13346421217474 0 -1 0 I I #
straight-curve $-1 -87.899182766044078 -47.038904240903832 9.63346421217474 0 0 -1 I I #
point $-1 -87.899182766044078 -47.038904240903832 11.13346421217474 #
End-of-ACIS-data 