500 0 4 0           
7 Unknown 11 ACIS 5.0 NT 24 Fri Mar 26 19:37:33 1999 
-1 9.9999999999999995e-007 1e-010 
body $-1 $4 $-1 $5 #
body $-1 $6 $-1 $7 #
body $-1 $8 $-1 $9 #
body $-1 $10 $-1 $11 #
lump $-1 $-1 $12 $0 #
transform $-1 1 0 0 0 1 0 0 0 1 75.943479720450455 36.067764257016201 11.889802825251378 1 rotate no_reflect no_shear #
lump $-1 $-1 $13 $1 #
transform $-1 1 0 0 0 1 0 0 0 1 75.943479720450455 36.067764257016201 11.889802825251378 1 rotate no_reflect no_shear #
lump $-1 $-1 $14 $2 #
transform $-1 1 0 0 0 1 0 0 0 1 75.943479720450455 36.067764257016201 11.889802825251378 1 rotate no_reflect no_shear #
lump $-1 $-1 $15 $3 #
transform $-1 1 0 0 0 1 0 0 0 1 75.943479720450455 36.067764257016201 11.889802825251378 1 rotate no_reflect no_shear #
shell $-1 $-1 $-1 $16 $-1 $4 #
shell $-1 $-1 $-1 $17 $-1 $6 #
shell $-1 $-1 $-1 $18 $-1 $8 #
shell $-1 $-1 $-1 $19 $-1 $10 #
face $-1 $20 $21 $12 $-1 $22 forward single #
face $-1 $23 $24 $13 $-1 $25 forward single #
face $-1 $26 $27 $14 $-1 $28 reversed single #
face $-1 $29 $30 $15 $-1 $31 reversed single #
face $-1 $32 $33 $12 $-1 $34 reversed single #
loop $-1 $-1 $35 $16 #
plane-surface $-1 0 0 11.889802825251378 0 0 1 1 0 0 forward_v I I I I #
face $-1 $36 $37 $13 $-1 $38 forward single #
loop $-1 $-1 $39 $17 #
plane-surface $-1 -38.857326078102489 -123.18654630410242 125.98583304366535 -1 0 0 0 -0.57357644374324357 0.81915203911291934 forward_v I I I I #
face $-1 $40 $41 $14 $-1 $42 reversed single #
loop $-1 $43 $44 $18 #
cone-surface $-1 -65.347435822636754 -27.920992414819015 5.6206677184630056 0 0.57357644374324357 -0.81915203911291934 2 0 0 1 I I 0 1 2 forward I I I I #
face $-1 $45 $46 $15 $-1 $47 reversed single #
loop $-1 $48 $49 $19 #
cone-surface $-1 -49.453369975916189 -27.920992414819015 5.6206677184630056 0 0.57357644374324357 -0.81915203911291934 2 0 0 1 I I 0 1 2 forward I I I I #
face $-1 $50 $51 $12 $-1 $52 reversed single #
loop $-1 $-1 $53 $20 #
plane-surface $-1 0 0 -11.889802825251378 0 0 1 1 0 0 forward_v I I I I #
coedge $-1 $54 $55 $56 $57 forward $21 $-1 #
face $-1 $58 $59 $13 $-1 $60 forward single #
loop $-1 $-1 $61 $23 #
plane-surface $-1 -57.400402899276472 -36.067764257016208 1.5673205029900998 0 -0.57357644374324357 0.81915203911291934 1 0 0 forward_v I I I I #
coedge $-1 $62 $63 $64 $65 reversed $24 $-1 #
face $-1 $66 $67 $14 $-1 $68 forward single #
loop $-1 $69 $70 $26 #
cone-surface $-1 -65.347435822636754 -26.571660263889598 3.6936217336923445 0 0.57357644374324357 -0.81915203911291934 1 0 0 1 I I -0.70710678118654746 0.70710678118654746 1 forward I I I I #
loop $-1 $-1 $71 $18 #
coedge $-1 $44 $44 $72 $73 reversed $27 $-1 #
face $-1 $74 $75 $15 $-1 $76 reversed single #
loop $-1 $77 $78 $29 #
cone-surface $-1 -49.453369975916189 -26.571660263889598 3.6936217336923445 0 0.57357644374324357 -0.81915203911291934 1 0 0 1 I I -0.70710678118654746 0.70710678118654746 1 forward I I I I #
loop $-1 $-1 $79 $19 #
coedge $-1 $49 $49 $80 $81 reversed $30 $-1 #
face $-1 $82 $83 $12 $-1 $84 reversed single #
loop $-1 $-1 $85 $32 #
plane-surface $-1 0 -36.067764257016201 0 0 1 0 0 0 1 forward_v I I I I #
coedge $-1 $86 $87 $88 $89 forward $33 $-1 #
coedge $-1 $90 $35 $91 $92 forward $21 $-1 #
coedge $-1 $35 $90 $93 $94 forward $21 $-1 #
coedge $-1 $95 $96 $35 $57 reversed $97 $-1 #
edge $-1 $98 -36.067764257016201 $99 36.067764257016201 $56 $100 forward 7 unknown #
face $-1 $101 $102 $13 $-1 $103 reversed single #
loop $-1 $-1 $104 $36 #
plane-surface $-1 0 0 11.889802825251378 0 0 1 1 0 0 forward_v I I I I #
coedge $-1 $105 $106 $104 $107 reversed $37 $-1 #
coedge $-1 $63 $39 $106 $108 forward $24 $-1 #
coedge $-1 $39 $62 $109 $110 reversed $24 $-1 #
coedge $-1 $111 $104 $39 $65 forward $59 $-1 #
edge $-1 $112 -40.267541165057061 $113 -25.52550889503501 $64 $114 forward 7 unknown #
face $-1 $115 $116 $14 $-1 $117 forward single #
loop $-1 $-1 $118 $40 #
plane-surface $-1 -38.857326078102489 -123.18654630410242 125.98583304366535 -1 0 0 0 -0.57357644374324357 0.81915203911291934 forward_v I I I I #
loop $-1 $-1 $119 $26 #
coedge $-1 $70 $70 $71 $120 forward $41 $-1 #
coedge $-1 $71 $71 $70 $120 reversed $43 $-1 #
coedge $-1 $72 $72 $44 $73 forward $116 $-1 #
edge $-1 $121 1.0830244777778638e-016 $121 6.2831853071796004 $72 $122 forward 7 unknown #
face $-1 $123 $124 $15 $-1 $125 reversed single #
loop $-1 $126 $127 $45 #
cone-surface $-1 -65.347435822636754 -27.920992414819015 5.6206677184630056 0 0.57357644374324357 -0.81915203911291934 2 0 0 1 I I 0 1 2 forward I I I I #
loop $-1 $-1 $128 $29 #
coedge $-1 $78 $78 $79 $129 forward $46 $-1 #
coedge $-1 $79 $79 $78 $129 reversed $48 $-1 #
coedge $-1 $80 $80 $49 $81 forward $130 $-1 #
edge $-1 $131 1.0830244777778638e-016 $131 6.2831853071796004 $80 $132 forward 7 unknown #
face $-1 $133 $134 $12 $-1 $135 reversed single #
loop $-1 $-1 $136 $50 #
plane-surface $-1 -75.943479720450455 0 0 1 0 0 0 0 -1 forward_v I I I I #
coedge $-1 $137 $93 $138 $139 forward $51 $-1 #
coedge $-1 $140 $53 $137 $141 forward $33 $-1 #
coedge $-1 $53 $140 $142 $143 forward $33 $-1 #
coedge $-1 $96 $95 $53 $89 reversed $97 $-1 #
edge $-1 $144 -36.067764257016201 $145 36.067764257016201 $88 $146 forward 7 unknown #
coedge $-1 $55 $54 $147 $148 forward $21 $-1 #
coedge $-1 $149 $150 $54 $92 reversed $134 $-1 #
edge $-1 $99 -75.943479720450455 $151 75.943479720450455 $91 $152 forward 7 unknown #
coedge $-1 $85 $153 $55 $94 reversed $51 $-1 #
edge $-1 $154 -75.943479720450455 $98 75.943479720450455 $93 $155 forward 7 unknown #
coedge $-1 $88 $56 $153 $156 forward $97 $-1 #
coedge $-1 $56 $88 $149 $157 reversed $97 $-1 #
loop $-1 $-1 $95 $133 #
vertex $-1 $57 $158 #
vertex $-1 $57 $159 #
straight-curve $-1 75.943479720450455 0 11.889802825251378 0 1 0 I I #
face $-1 $160 $161 $13 $-1 $162 reversed single #
loop $-1 $-1 $109 $58 #
plane-surface $-1 0 -36.067764257016201 0 0 1 0 0 0 1 forward_v I I I I #
coedge $-1 $64 $163 $61 $107 forward $59 $-1 #
coedge $-1 $164 $61 $165 $166 reversed $37 $-1 #
coedge $-1 $61 $164 $62 $108 reversed $37 $-1 #
edge $-1 $167 -47.243278270812219 $112 -10.157124628464253 $104 $168 forward 7 unknown #
edge $-1 $112 -17.996698495662152 $169 -8.6223355153435888e-015 $62 $170 forward 7 unknown #
coedge $-1 $171 $172 $63 $110 forward $102 $-1 #
edge $-1 $113 51.103113696581296 $169 61.425596018842569 $109 $173 forward 7 unknown #
coedge $-1 $174 $64 $172 $175 forward $59 $-1 #
vertex $-1 $107 $176 #
vertex $-1 $175 $177 #
straight-curve $-1 -38.857326078102489 -61.593273152051211 11.88980282525138 0 -1 0 I I #
face $-1 $178 $179 $14 $-1 $180 forward single #
loop $-1 $181 $72 $66 #
plane-surface $-1 -57.400402899276472 -36.067764257016208 1.5673205029900998 0 -0.57357644374324357 0.81915203911291934 1 0 0 forward_v I I I I #
coedge $-1 $182 $183 $184 $185 reversed $67 $-1 #
coedge $-1 $119 $119 $-1 $186 forward $69 $-1 #
edge $-1 $187 0 $187 6.2831853071796004 $70 $188 forward 7 unknown #
vertex $-1 $73 $189 #
ellipse-curve $-1 -65.347435822636754 -28.696748122005179 6.728561664120738 0 0.57357644374324357 -0.81915203911291934 2 0 0 1 I I #
face $-1 $190 $191 $15 $-1 $192 forward single #
loop $-1 $193 $194 $74 #
cone-surface $-1 -65.347435822636754 -26.571660263889598 3.6936217336923445 0 0.57357644374324357 -0.81915203911291934 1 0 0 1 I I -0.70710678118654746 0.70710678118654746 1 forward I I I I #
loop $-1 $-1 $195 $45 #
coedge $-1 $127 $127 $196 $197 reversed $75 $-1 #
coedge $-1 $128 $128 $-1 $198 forward $77 $-1 #
edge $-1 $199 0 $199 6.2831853071796004 $78 $200 forward 7 unknown #
loop $-1 $201 $80 $190 #
vertex $-1 $81 $202 #
ellipse-curve $-1 -49.453369975916189 -28.696748122005179 6.728561664120738 0 0.57357644374324357 -0.81915203911291934 2 0 0 1 I I #
face $-1 $-1 $97 $12 $-1 $203 reversed single #
loop $-1 $-1 $149 $82 #
plane-surface $-1 0 36.067764257016201 0 0 -1 0 0 0 -1 forward_v I I I I #
coedge $-1 $204 $147 $150 $205 forward $83 $-1 #
coedge $-1 $153 $85 $86 $141 reversed $51 $-1 #
coedge $-1 $147 $204 $85 $139 reversed $83 $-1 #
edge $-1 $154 -11.889802825251378 $206 11.889802825251378 $138 $207 forward 7 unknown #
coedge $-1 $87 $86 $204 $208 forward $33 $-1 #
edge $-1 $145 -75.943479720450455 $206 75.943479720450455 $137 $209 forward 7 unknown #
coedge $-1 $150 $149 $87 $143 reversed $134 $-1 #
edge $-1 $210 -75.943479720450455 $144 75.943479720450455 $142 $211 forward 7 unknown #
vertex $-1 $89 $212 #
vertex $-1 $156 $213 #
straight-curve $-1 75.943479720450455 0 -11.889802825251378 0 -1 0 I I #
coedge $-1 $136 $138 $90 $148 reversed $83 $-1 #
edge $-1 $151 -36.067764257016201 $154 36.067764257016201 $147 $214 forward 7 unknown #
coedge $-1 $142 $91 $96 $157 forward $134 $-1 #
coedge $-1 $91 $142 $136 $205 reversed $134 $-1 #
vertex $-1 $92 $215 #
straight-curve $-1 0 36.067764257016201 11.889802825251378 -1 0 0 I I #
coedge $-1 $93 $137 $95 $156 reversed $51 $-1 #
vertex $-1 $148 $216 #
straight-curve $-1 0 -36.067764257016201 11.889802825251378 1 0 0 I I #
edge $-1 $98 -11.889802825251378 $145 11.889802825251378 $95 $217 forward 7 unknown #
edge $-1 $99 -11.889802825251378 $144 11.889802825251378 $96 $218 forward 7 unknown #
point $-1 75.943479720450455 -36.067764257016201 11.889802825251378 #
point $-1 75.943479720450455 36.067764257016201 11.889802825251378 #
face $-1 $219 $220 $13 $-1 $221 reversed single #
loop $-1 $-1 $222 $101 #
plane-surface $-1 0 0 -11.889802825251378 0 0 1 1 0 0 forward_v I I I I #
coedge $-1 $104 $223 $224 $225 forward $59 $-1 #
coedge $-1 $106 $105 $171 $226 reversed $37 $-1 #
coedge $-1 $224 $227 $105 $166 forward $220 $-1 #
edge $-1 $228 -14.323002258533972 $167 3.6736962371281692 $165 $229 forward 7 unknown #
vertex $-1 $166 $230 #
straight-curve $-1 -28.700201449638236 -21.32573198699415 11.889802825251378 1 0 0 I I #
vertex $-1 $226 $231 #
straight-curve $-1 -38.857326078102489 -36.067764257016208 1.5673205029900998 0 -0.81915203911291934 -0.57357644374324357 I I #
coedge $-1 $232 $109 $164 $226 forward $102 $-1 #
coedge $-1 $109 $233 $111 $175 reversed $102 $-1 #
straight-curve $-1 -38.857326078102489 -36.067764257016201 62.992916521832676 0 0 -1 I I #
coedge $-1 $223 $111 $234 $235 forward $59 $-1 #
edge $-1 $113 -38.857326078102489 $236 75.943479720450455 $172 $237 forward 7 unknown #
point $-1 -38.857326078102489 -21.32573198699415 11.889802825251378 #
point $-1 -38.857326078102489 -36.067764257016201 11.889802825251378 #
face $-1 $238 $239 $14 $-1 $240 reversed single #
loop $-1 $-1 $241 $115 #
plane-surface $-1 0 0 11.889802825251378 0 0 1 1 0 0 forward_v I I I I #
loop $-1 $-1 $242 $66 #
coedge $-1 $183 $118 $243 $244 forward $67 $-1 #
coedge $-1 $118 $182 $245 $246 reversed $67 $-1 #
coedge $-1 $247 $241 $118 $185 forward $179 $-1 #
edge $-1 $248 -40.267541165057061 $249 -25.52550889503501 $184 $250 forward 7 unknown #
edge $-1 $251 1 $251 0 $119 $-1 forward 7 unknown #
vertex $-1 $120 $252 #
ellipse-curve $-1 -65.347435822636754 -27.14523670763284 4.5127737728052635 0 -0.57357644374324357 0.81915203911291934 2 0 0 1 I I #
point $-1 -63.347435822636754 -28.696748122005186 6.7285616641207477 #
face $-1 $253 $130 $15 $-1 $254 forward single #
loop $-1 $-1 $255 $123 #
plane-surface $-1 -38.857326078102489 -123.18654630410242 125.98583304366535 -1 0 0 0 -0.57357644374324357 0.81915203911291934 forward_v I I I I #
loop $-1 $-1 $256 $74 #
coedge $-1 $194 $194 $195 $257 forward $124 $-1 #
coedge $-1 $195 $195 $194 $257 reversed $126 $-1 #
coedge $-1 $196 $196 $127 $197 forward $201 $-1 #
edge $-1 $258 1.0830244777778638e-016 $258 6.2831853071796004 $196 $259 forward 7 unknown #
edge $-1 $260 1 $260 0 $128 $-1 forward 7 unknown #
vertex $-1 $129 $261 #
ellipse-curve $-1 -49.453369975916189 -27.14523670763284 4.5127737728052635 0 -0.57357644374324357 0.81915203911291934 2 0 0 1 I I #
loop $-1 $262 $196 $190 #
point $-1 -47.453369975916189 -28.696748122005186 6.7285616641207477 #
plane-surface $-1 75.943479720450455 0 0 -1 0 0 0 0 1 forward_v I I I I #
coedge $-1 $138 $136 $140 $208 reversed $83 $-1 #
edge $-1 $151 -11.889802825251378 $210 11.889802825251378 $150 $263 forward 7 unknown #
vertex $-1 $208 $264 #
straight-curve $-1 -75.943479720450455 -36.067764257016201 0 0 0 -1 I I #
edge $-1 $206 -36.067764257016201 $210 36.067764257016201 $204 $265 forward 7 unknown #
straight-curve $-1 0 -36.067764257016201 -11.889802825251378 -1 0 0 I I #
vertex $-1 $143 $266 #
straight-curve $-1 0 36.067764257016201 -11.889802825251378 1 0 0 I I #
point $-1 75.943479720450455 36.067764257016201 -11.889802825251378 #
point $-1 75.943479720450455 -36.067764257016201 -11.889802825251378 #
straight-curve $-1 -75.943479720450455 0 11.889802825251378 0 -1 0 I I #
point $-1 -75.943479720450455 36.067764257016201 11.889802825251378 #
point $-1 -75.943479720450455 -36.067764257016201 11.889802825251378 #
straight-curve $-1 75.943479720450455 -36.067764257016201 0 0 0 -1 I I #
straight-curve $-1 75.943479720450455 36.067764257016201 0 0 0 -1 I I #
face $-1 $267 $268 $13 $-1 $269 reversed single #
loop $-1 $-1 $165 $160 #
plane-surface $-1 -75.943479720450455 0 0 1 0 0 0 0 -1 forward_v I I I I #
coedge $-1 $270 $271 $272 $273 forward $161 $-1 #
coedge $-1 $163 $174 $274 $275 forward $59 $-1 #
coedge $-1 $276 $165 $163 $225 reversed $220 $-1 #
edge $-1 $277 -36.067764257016201 $167 21.32573198699415 $224 $278 forward 7 unknown #
edge $-1 $169 10.157124628464253 $228 47.243278270812219 $171 $279 forward 7 unknown #
coedge $-1 $165 $280 $232 $281 reversed $220 $-1 #
vertex $-1 $281 $282 #
straight-curve $-1 -75.943479720450455 -24.335047750719148 9.7826572021664671 0 0.81915203911291934 0.57357644374324357 I I #
point $-1 -75.943479720450455 -21.32573198699415 11.889802825251378 #
point $-1 -38.857326078102489 -36.067764257016201 1.5673205029901047 #
coedge $-1 $283 $171 $227 $281 forward $102 $-1 #
coedge $-1 $172 $283 $284 $285 reversed $102 $-1 #
coedge $-1 $284 $286 $174 $235 reversed $287 $-1 #
edge $-1 $236 -36.067764257016201 $288 36.067764257016201 $234 $289 forward 7 unknown #
vertex $-1 $235 $290 #
straight-curve $-1 0 -36.067764257016201 11.889802825251378 1 0 0 I I #
face $-1 $291 $292 $14 $-1 $293 reversed single #
loop $-1 $-1 $245 $178 #
plane-surface $-1 0 -36.067764257016201 0 0 1 0 0 0 1 forward_v I I I I #
coedge $-1 $184 $294 $242 $295 forward $179 $-1 #
coedge $-1 $296 $243 $241 $295 reversed $181 $-1 #
coedge $-1 $242 $297 $182 $244 reversed $181 $-1 #
edge $-1 $248 -17.996698495662152 $298 -8.6223355153435888e-015 $182 $299 forward 7 unknown #
coedge $-1 $300 $301 $183 $246 forward $239 $-1 #
edge $-1 $249 51.103113696581296 $298 61.425596018842569 $245 $302 forward 7 unknown #
coedge $-1 $303 $184 $301 $304 forward $179 $-1 #
vertex $-1 $295 $305 #
vertex $-1 $304 $306 #
straight-curve $-1 -38.857326078102489 -61.593273152051211 11.88980282525138 0 -1 0 I I #
vertex $-1 $186 $307 #
point $-1 -63.347435822636754 -27.14523670763284 4.5127737728052635 #
face $-1 $308 $309 $15 $-1 $310 forward single #
plane-surface $-1 -57.400402899276472 -36.067764257016208 1.5673205029900998 0 -0.57357644374324357 0.81915203911291934 1 0 0 forward_v I I I I #
coedge $-1 $311 $312 $313 $314 reversed $191 $-1 #
coedge $-1 $256 $256 $-1 $315 forward $193 $-1 #
edge $-1 $316 0 $316 6.2831853071796004 $194 $317 forward 7 unknown #
vertex $-1 $197 $318 #
ellipse-curve $-1 -65.347435822636754 -28.696748122005179 6.728561664120738 0 0.57357644374324357 -0.81915203911291934 2 0 0 1 I I #
vertex $-1 $198 $319 #
point $-1 -47.453369975916189 -27.14523670763284 4.5127737728052635 #
loop $-1 $-1 $320 $190 #
straight-curve $-1 -75.943479720450455 36.067764257016201 0 0 0 -1 I I #
point $-1 -75.943479720450455 -36.067764257016201 -11.889802825251378 #
straight-curve $-1 -75.943479720450455 0 -11.889802825251378 0 1 0 I I #
point $-1 -75.943479720450455 36.067764257016201 -11.889802825251378 #
face $-1 $-1 $287 $13 $-1 $321 reversed single #
loop $-1 $-1 $322 $219 #
plane-surface $-1 0 36.067764257016201 0 0 -1 0 0 0 -1 forward_v I I I I #
coedge $-1 $323 $222 $283 $324 forward $161 $-1 #
coedge $-1 $222 $323 $325 $326 forward $161 $-1 #
coedge $-1 $286 $284 $222 $273 reversed $287 $-1 #
edge $-1 $327 -36.067764257016201 $328 36.067764257016201 $272 $329 forward 7 unknown #
coedge $-1 $322 $330 $223 $275 reversed $268 $-1 #
edge $-1 $288 -75.943479720450455 $277 75.943479720450455 $274 $331 forward 7 unknown #
coedge $-1 $280 $224 $330 $332 forward $220 $-1 #
vertex $-1 $275 $333 #
straight-curve $-1 -75.943479720450455 0 11.889802825251378 0 -1 0 I I #
straight-curve $-1 -28.700201449638236 -36.067764257016201 1.5673205029901074 -1 0 0 I I #
coedge $-1 $227 $276 $323 $334 reversed $220 $-1 #
edge $-1 $228 -1.5673205029901047 $335 11.889802825251378 $227 $336 forward 7 unknown #
point $-1 -75.943479720450455 -36.067764257016201 1.5673205029901047 #
coedge $-1 $233 $232 $270 $324 reversed $102 $-1 #
coedge $-1 $272 $234 $233 $285 forward $287 $-1 #
edge $-1 $236 -11.889802825251378 $328 11.889802825251378 $284 $337 forward 7 unknown #
coedge $-1 $234 $272 $322 $338 reversed $287 $-1 #
loop $-1 $-1 $284 $267 #
vertex $-1 $235 $339 #
straight-curve $-1 75.943479720450455 0 11.889802825251378 0 1 0 I I #
point $-1 75.943479720450455 -36.067764257016201 11.889802825251378 #
face $-1 $340 $341 $14 $-1 $342 reversed single #
loop $-1 $-1 $343 $238 #
plane-surface $-1 0 0 -11.889802825251378 0 0 1 1 0 0 forward_v I I I I #
coedge $-1 $241 $344 $345 $346 forward $179 $-1 #
edge $-1 $347 -47.243278270812219 $248 -10.157124628464253 $241 $348 forward 7 unknown #
coedge $-1 $297 $242 $349 $350 reversed $181 $-1 #
coedge $-1 $243 $296 $300 $351 reversed $181 $-1 #
vertex $-1 $351 $352 #
straight-curve $-1 -38.857326078102489 -36.067764257016208 1.5673205029900998 0 -0.81915203911291934 -0.57357644374324357 I I #
coedge $-1 $353 $245 $297 $351 forward $239 $-1 #
coedge $-1 $245 $354 $247 $304 reversed $239 $-1 #
straight-curve $-1 -38.857326078102489 -36.067764257016201 62.992916521832676 0 0 -1 I I #
coedge $-1 $344 $247 $355 $356 forward $179 $-1 #
edge $-1 $249 -38.857326078102489 $357 75.943479720450455 $301 $358 forward 7 unknown #
point $-1 -38.857326078102489 -21.32573198699415 11.889802825251378 #
point $-1 -38.857326078102489 -36.067764257016201 11.889802825251378 #
point $-1 -65.347435822636754 -25.998083820146356 2.874469694579425 #
face $-1 $359 $360 $15 $-1 $361 reversed single #
loop $-1 $-1 $362 $253 #
plane-surface $-1 0 0 11.889802825251378 0 0 1 1 0 0 forward_v I I I I #
coedge $-1 $312 $255 $363 $364 forward $191 $-1 #
coedge $-1 $255 $311 $365 $366 reversed $191 $-1 #
coedge $-1 $367 $362 $255 $314 forward $309 $-1 #
edge $-1 $368 -40.267541165057061 $369 -25.52550889503501 $313 $370 forward 7 unknown #
edge $-1 $371 1 $371 0 $256 $-1 forward 7 unknown #
vertex $-1 $257 $372 #
ellipse-curve $-1 -65.347435822636754 -27.14523670763284 4.5127737728052635 0 -0.57357644374324357 0.81915203911291934 2 0 0 1 I I #
point $-1 -63.347435822636754 -28.696748122005186 6.7285616641207477 #
point $-1 -49.453369975916189 -25.998083820146356 2.874469694579425 #
coedge $-1 $373 $363 $362 $374 reversed $262 $-1 #
plane-surface $-1 75.943479720450455 0 0 -1 0 0 0 0 1 forward_v I I I I #
coedge $-1 $325 $274 $286 $338 forward $268 $-1 #
coedge $-1 $271 $270 $280 $334 forward $161 $-1 #
edge $-1 $328 -75.943479720450455 $335 75.943479720450455 $283 $375 forward 7 unknown #
coedge $-1 $330 $322 $271 $326 reversed $268 $-1 #
edge $-1 $376 -75.943479720450455 $327 75.943479720450455 $325 $377 forward 7 unknown #
vertex $-1 $273 $378 #
vertex $-1 $285 $379 #
straight-curve $-1 75.943479720450455 0 -11.889802825251378 0 -1 0 I I #
coedge $-1 $274 $325 $276 $332 reversed $268 $-1 #
straight-curve $-1 0 36.067764257016201 11.889802825251378 -1 0 0 I I #
edge $-1 $277 -11.889802825251378 $376 11.889802825251378 $330 $380 forward 7 unknown #
point $-1 -75.943479720450455 36.067764257016201 11.889802825251378 #
edge $-1 $335 -36.067764257016201 $376 36.067764257016201 $280 $381 forward 7 unknown #
vertex $-1 $334 $382 #
straight-curve $-1 -75.943479720450455 -36.067764257016201 0 0 0 -1 I I #
straight-curve $-1 75.943479720450455 -36.067764257016201 0 0 0 -1 I I #
edge $-1 $288 -11.889802825251378 $327 11.889802825251378 $286 $383 forward 7 unknown #
point $-1 75.943479720450455 36.067764257016201 11.889802825251378 #
face $-1 $384 $385 $14 $-1 $386 reversed single #
loop $-1 $-1 $349 $291 #
plane-surface $-1 -75.943479720450455 0 0 1 0 0 0 0 -1 forward_v I I I I #
coedge $-1 $387 $388 $389 $390 forward $292 $-1 #
coedge $-1 $294 $303 $391 $392 forward $179 $-1 #
coedge $-1 $393 $349 $294 $346 reversed $341 $-1 #
edge $-1 $394 -36.067764257016201 $347 21.32573198699415 $345 $395 forward 7 unknown #
vertex $-1 $350 $396 #
straight-curve $-1 -28.700201449638236 -21.32573198699415 11.889802825251378 1 0 0 I I #
coedge $-1 $345 $397 $296 $350 forward $341 $-1 #
edge $-1 $398 -14.323002258533972 $347 3.6736962371281692 $349 $399 forward 7 unknown #
edge $-1 $298 10.157124628464253 $398 47.243278270812219 $300 $400 forward 7 unknown #
point $-1 -38.857326078102489 -36.067764257016201 1.5673205029901047 #
coedge $-1 $401 $300 $397 $402 forward $239 $-1 #
coedge $-1 $301 $401 $403 $404 reversed $239 $-1 #
coedge $-1 $403 $405 $303 $356 reversed $406 $-1 #
edge $-1 $357 -36.067764257016201 $407 36.067764257016201 $355 $408 forward 7 unknown #
vertex $-1 $356 $409 #
straight-curve $-1 0 -36.067764257016201 11.889802825251378 1 0 0 I I #
face $-1 $410 $411 $15 $-1 $412 reversed single #
loop $-1 $-1 $365 $308 #
plane-surface $-1 0 -36.067764257016201 0 0 1 0 0 0 1 forward_v I I I I #
coedge $-1 $313 $413 $320 $374 forward $309 $-1 #
coedge $-1 $320 $414 $311 $364 reversed $262 $-1 #
edge $-1 $368 -17.996698495662152 $415 -8.6223355153435888e-015 $311 $416 forward 7 unknown #
coedge $-1 $417 $418 $312 $366 forward $360 $-1 #
edge $-1 $369 51.103113696581296 $415 61.425596018842569 $365 $419 forward 7 unknown #
coedge $-1 $420 $313 $418 $421 forward $309 $-1 #
vertex $-1 $374 $422 #
vertex $-1 $421 $423 #
straight-curve $-1 -38.857326078102489 -61.593273152051211 11.88980282525138 0 -1 0 I I #
vertex $-1 $315 $424 #
point $-1 -63.347435822636754 -27.14523670763284 4.5127737728052635 #
coedge $-1 $414 $320 $425 $426 reversed $262 $-1 #
edge $-1 $427 -47.243278270812219 $368 -10.157124628464253 $362 $428 forward 7 unknown #
straight-curve $-1 0 -36.067764257016201 -11.889802825251378 -1 0 0 I I #
vertex $-1 $326 $429 #
straight-curve $-1 0 36.067764257016201 -11.889802825251378 1 0 0 I I #
point $-1 75.943479720450455 36.067764257016201 -11.889802825251378 #
point $-1 75.943479720450455 -36.067764257016201 -11.889802825251378 #
straight-curve $-1 -75.943479720450455 36.067764257016201 0 0 0 -1 I I #
straight-curve $-1 -75.943479720450455 0 -11.889802825251378 0 1 0 I I #
point $-1 -75.943479720450455 -36.067764257016201 -11.889802825251378 #
straight-curve $-1 75.943479720450455 36.067764257016201 0 0 0 -1 I I #
face $-1 $-1 $406 $14 $-1 $430 reversed single #
loop $-1 $-1 $431 $340 #
plane-surface $-1 0 36.067764257016201 0 0 -1 0 0 0 -1 forward_v I I I I #
coedge $-1 $432 $343 $401 $433 forward $292 $-1 #
coedge $-1 $343 $432 $434 $435 forward $292 $-1 #
coedge $-1 $405 $403 $343 $390 reversed $406 $-1 #
edge $-1 $436 -36.067764257016201 $437 36.067764257016201 $389 $438 forward 7 unknown #
coedge $-1 $431 $439 $344 $392 reversed $385 $-1 #
edge $-1 $407 -75.943479720450455 $394 75.943479720450455 $391 $440 forward 7 unknown #
coedge $-1 $441 $345 $439 $442 forward $341 $-1 #
vertex $-1 $392 $443 #
straight-curve $-1 -75.943479720450455 0 11.889802825251378 0 -1 0 I I #
point $-1 -75.943479720450455 -21.32573198699415 11.889802825251378 #
coedge $-1 $349 $441 $353 $402 reversed $341 $-1 #
vertex $-1 $402 $444 #
straight-curve $-1 -75.943479720450455 -24.335047750719148 9.7826572021664671 0 0.81915203911291934 0.57357644374324357 I I #
straight-curve $-1 -28.700201449638236 -36.067764257016201 1.5673205029901074 -1 0 0 I I #
coedge $-1 $354 $353 $387 $433 reversed $239 $-1 #
edge $-1 $398 -1.5673205029901047 $445 11.889802825251378 $397 $446 forward 7 unknown #
coedge $-1 $389 $355 $354 $404 forward $406 $-1 #
edge $-1 $357 -11.889802825251378 $437 11.889802825251378 $403 $447 forward 7 unknown #
coedge $-1 $355 $389 $431 $448 reversed $406 $-1 #
loop $-1 $-1 $403 $384 #
vertex $-1 $356 $449 #
straight-curve $-1 75.943479720450455 0 11.889802825251378 0 1 0 I I #
point $-1 75.943479720450455 -36.067764257016201 11.889802825251378 #
face $-1 $450 $451 $15 $-1 $452 reversed single #
loop $-1 $-1 $453 $359 #
plane-surface $-1 0 0 -11.889802825251378 0 0 1 1 0 0 forward_v I I I I #
coedge $-1 $362 $454 $455 $456 forward $309 $-1 #
coedge $-1 $363 $373 $417 $457 reversed $262 $-1 #
vertex $-1 $457 $458 #
straight-curve $-1 -38.857326078102489 -36.067764257016208 1.5673205029900998 0 -0.81915203911291934 -0.57357644374324357 I I #
coedge $-1 $459 $365 $414 $457 forward $360 $-1 #
coedge $-1 $365 $460 $367 $421 reversed $360 $-1 #
straight-curve $-1 -38.857326078102489 -36.067764257016201 62.992916521832676 0 0 -1 I I #
coedge $-1 $454 $367 $461 $462 forward $309 $-1 #
edge $-1 $369 -38.857326078102489 $463 75.943479720450455 $418 $464 forward 7 unknown #
point $-1 -38.857326078102489 -21.32573198699415 11.889802825251378 #
point $-1 -38.857326078102489 -36.067764257016201 11.889802825251378 #
point $-1 -65.347435822636754 -25.998083820146356 2.874469694579425 #
coedge $-1 $455 $465 $373 $426 forward $451 $-1 #
edge $-1 $466 -14.323002258533972 $427 3.6736962371281692 $425 $467 forward 7 unknown #
vertex $-1 $426 $468 #
straight-curve $-1 -28.700201449638236 -21.32573198699415 11.889802825251378 1 0 0 I I #
point $-1 -75.943479720450455 36.067764257016201 -11.889802825251378 #
plane-surface $-1 75.943479720450455 0 0 -1 0 0 0 0 1 forward_v I I I I #
coedge $-1 $434 $391 $405 $448 forward $385 $-1 #
coedge $-1 $388 $387 $441 $469 forward $292 $-1 #
edge $-1 $437 -75.943479720450455 $445 75.943479720450455 $401 $470 forward 7 unknown #
coedge $-1 $439 $431 $388 $435 reversed $385 $-1 #
edge $-1 $471 -75.943479720450455 $436 75.943479720450455 $434 $472 forward 7 unknown #
vertex $-1 $390 $473 #
vertex $-1 $404 $474 #
straight-curve $-1 75.943479720450455 0 -11.889802825251378 0 -1 0 I I #
coedge $-1 $391 $434 $393 $442 reversed $385 $-1 #
straight-curve $-1 0 36.067764257016201 11.889802825251378 -1 0 0 I I #
coedge $-1 $397 $393 $432 $469 reversed $341 $-1 #
edge $-1 $394 -11.889802825251378 $471 11.889802825251378 $439 $475 forward 7 unknown #
point $-1 -75.943479720450455 36.067764257016201 11.889802825251378 #
point $-1 -75.943479720450455 -36.067764257016201 1.5673205029901047 #
vertex $-1 $469 $476 #
straight-curve $-1 -75.943479720450455 -36.067764257016201 0 0 0 -1 I I #
straight-curve $-1 75.943479720450455 -36.067764257016201 0 0 0 -1 I I #
edge $-1 $407 -11.889802825251378 $436 11.889802825251378 $405 $477 forward 7 unknown #
point $-1 75.943479720450455 36.067764257016201 11.889802825251378 #
face $-1 $478 $479 $15 $-1 $480 reversed single #
loop $-1 $-1 $425 $410 #
plane-surface $-1 -75.943479720450455 0 0 1 0 0 0 0 -1 forward_v I I I I #
coedge $-1 $481 $482 $483 $484 forward $411 $-1 #
coedge $-1 $413 $420 $485 $486 forward $309 $-1 #
coedge $-1 $487 $425 $413 $456 reversed $451 $-1 #
edge $-1 $488 -36.067764257016201 $427 21.32573198699415 $455 $489 forward 7 unknown #
edge $-1 $415 10.157124628464253 $466 47.243278270812219 $417 $490 forward 7 unknown #
point $-1 -38.857326078102489 -36.067764257016201 1.5673205029901047 #
coedge $-1 $491 $417 $465 $492 forward $360 $-1 #
coedge $-1 $418 $491 $493 $494 reversed $360 $-1 #
coedge $-1 $493 $495 $420 $462 reversed $496 $-1 #
edge $-1 $463 -36.067764257016201 $497 36.067764257016201 $461 $498 forward 7 unknown #
vertex $-1 $462 $499 #
straight-curve $-1 0 -36.067764257016201 11.889802825251378 1 0 0 I I #
coedge $-1 $425 $500 $459 $492 reversed $451 $-1 #
vertex $-1 $492 $501 #
straight-curve $-1 -75.943479720450455 -24.335047750719148 9.7826572021664671 0 0.81915203911291934 0.57357644374324357 I I #
point $-1 -75.943479720450455 -21.32573198699415 11.889802825251378 #
edge $-1 $445 -36.067764257016201 $471 36.067764257016201 $441 $502 forward 7 unknown #
straight-curve $-1 0 -36.067764257016201 -11.889802825251378 -1 0 0 I I #
vertex $-1 $435 $503 #
straight-curve $-1 0 36.067764257016201 -11.889802825251378 1 0 0 I I #
point $-1 75.943479720450455 36.067764257016201 -11.889802825251378 #
point $-1 75.943479720450455 -36.067764257016201 -11.889802825251378 #
straight-curve $-1 -75.943479720450455 36.067764257016201 0 0 0 -1 I I #
point $-1 -75.943479720450455 -36.067764257016201 -11.889802825251378 #
straight-curve $-1 75.943479720450455 36.067764257016201 0 0 0 -1 I I #
face $-1 $-1 $496 $15 $-1 $504 reversed single #
loop $-1 $-1 $505 $450 #
plane-surface $-1 0 36.067764257016201 0 0 -1 0 0 0 -1 forward_v I I I I #
coedge $-1 $506 $453 $491 $507 forward $411 $-1 #
coedge $-1 $453 $506 $508 $509 forward $411 $-1 #
coedge $-1 $495 $493 $453 $484 reversed $496 $-1 #
edge $-1 $510 -36.067764257016201 $511 36.067764257016201 $483 $512 forward 7 unknown #
coedge $-1 $505 $513 $454 $486 reversed $479 $-1 #
edge $-1 $497 -75.943479720450455 $488 75.943479720450455 $485 $514 forward 7 unknown #
coedge $-1 $500 $455 $513 $515 forward $451 $-1 #
vertex $-1 $486 $516 #
straight-curve $-1 -75.943479720450455 0 11.889802825251378 0 -1 0 I I #
straight-curve $-1 -28.700201449638236 -36.067764257016201 1.5673205029901074 -1 0 0 I I #
coedge $-1 $460 $459 $481 $507 reversed $360 $-1 #
edge $-1 $466 -1.5673205029901047 $517 11.889802825251378 $465 $518 forward 7 unknown #
coedge $-1 $483 $461 $460 $494 forward $496 $-1 #
edge $-1 $463 -11.889802825251378 $511 11.889802825251378 $493 $519 forward 7 unknown #
coedge $-1 $461 $483 $505 $520 reversed $496 $-1 #
loop $-1 $-1 $493 $478 #
vertex $-1 $462 $521 #
straight-curve $-1 75.943479720450455 0 11.889802825251378 0 1 0 I I #
point $-1 75.943479720450455 -36.067764257016201 11.889802825251378 #
coedge $-1 $465 $487 $506 $522 reversed $451 $-1 #
point $-1 -75.943479720450455 -36.067764257016201 1.5673205029901047 #
straight-curve $-1 -75.943479720450455 0 -11.889802825251378 0 1 0 I I #
point $-1 -75.943479720450455 36.067764257016201 -11.889802825251378 #
plane-surface $-1 75.943479720450455 0 0 -1 0 0 0 0 1 forward_v I I I I #
coedge $-1 $508 $485 $495 $520 forward $479 $-1 #
coedge $-1 $482 $481 $500 $522 forward $411 $-1 #
edge $-1 $511 -75.943479720450455 $517 75.943479720450455 $491 $523 forward 7 unknown #
coedge $-1 $513 $505 $482 $509 reversed $479 $-1 #
edge $-1 $524 -75.943479720450455 $510 75.943479720450455 $508 $525 forward 7 unknown #
vertex $-1 $484 $526 #
vertex $-1 $494 $527 #
straight-curve $-1 75.943479720450455 0 -11.889802825251378 0 -1 0 I I #
coedge $-1 $485 $508 $487 $515 reversed $479 $-1 #
straight-curve $-1 0 36.067764257016201 11.889802825251378 -1 0 0 I I #
edge $-1 $488 -11.889802825251378 $524 11.889802825251378 $513 $528 forward 7 unknown #
point $-1 -75.943479720450455 36.067764257016201 11.889802825251378 #
vertex $-1 $522 $529 #
straight-curve $-1 -75.943479720450455 -36.067764257016201 0 0 0 -1 I I #
straight-curve $-1 75.943479720450455 -36.067764257016201 0 0 0 -1 I I #
edge $-1 $497 -11.889802825251378 $510 11.889802825251378 $495 $530 forward 7 unknown #
point $-1 75.943479720450455 36.067764257016201 11.889802825251378 #
edge $-1 $517 -36.067764257016201 $524 36.067764257016201 $500 $531 forward 7 unknown #
straight-curve $-1 0 -36.067764257016201 -11.889802825251378 -1 0 0 I I #
vertex $-1 $509 $532 #
straight-curve $-1 0 36.067764257016201 -11.889802825251378 1 0 0 I I #
point $-1 75.943479720450455 36.067764257016201 -11.889802825251378 #
point $-1 75.943479720450455 -36.067764257016201 -11.889802825251378 #
straight-curve $-1 -75.943479720450455 36.067764257016201 0 0 0 -1 I I #
point $-1 -75.943479720450455 -36.067764257016201 -11.889802825251378 #
straight-curve $-1 75.943479720450455 36.067764257016201 0 0 0 -1 I I #
straight-curve $-1 -75.943479720450455 0 -11.889802825251378 0 1 0 I I #
point $-1 -75.943479720450455 36.067764257016201 -11.889802825251378 #
End-of-ACIS-data 