500 0 8 0           
7 Unknown 11 ACIS 5.0 NT 24 Fri Mar 26 02:01:49 1999 
-1 9.9999999999999995e-007 1e-010 
body $-1 $8 $-1 $9 #
body $-1 $10 $-1 $11 #
body $-1 $12 $-1 $13 #
body $-1 $14 $-1 $15 #
body $-1 $16 $-1 $17 #
body $-1 $18 $-1 $19 #
body $-1 $20 $-1 $21 #
body $-1 $22 $-1 $23 #
lump $-1 $-1 $24 $0 #
transform $-1 1 0 0 0 1 0 0 0 1 60.941801202429275 26.535451785505529 10.072733432980588 1 rotate no_reflect no_shear #
lump $-1 $-1 $25 $1 #
transform $-1 1 0 0 0 1 0 0 0 1 60.941801202429275 26.535451785505529 10.072733432980588 1 rotate no_reflect no_shear #
lump $-1 $-1 $26 $2 #
transform $-1 1 0 0 0 1 0 0 0 1 60.941801202429275 26.535451785505529 10.072733432980588 1 rotate no_reflect no_shear #
lump $-1 $-1 $27 $3 #
transform $-1 1 0 0 0 1 0 0 0 1 60.941801202429275 26.535451785505529 10.072733432980588 1 rotate no_reflect no_shear #
lump $-1 $-1 $28 $4 #
transform $-1 1 0 0 0 1 0 0 0 1 60.941801202429275 26.535451785505529 10.072733432980588 1 rotate no_reflect no_shear #
lump $-1 $-1 $29 $5 #
transform $-1 1 0 0 0 1 0 0 0 1 60.941801202429275 26.535451785505529 10.072733432980588 1 rotate no_reflect no_shear #
lump $-1 $-1 $30 $6 #
transform $-1 1 0 0 0 1 0 0 0 1 60.941801202429275 26.535451785505529 10.072733432980588 1 rotate no_reflect no_shear #
lump $-1 $-1 $31 $7 #
transform $-1 1 0 0 0 1 0 0 0 1 60.941801202429275 26.535451785505529 10.072733432980588 1 rotate no_reflect no_shear #
shell $-1 $-1 $-1 $32 $-1 $8 #
shell $-1 $-1 $-1 $33 $-1 $10 #
shell $-1 $-1 $-1 $34 $-1 $12 #
shell $-1 $-1 $-1 $35 $-1 $14 #
shell $-1 $-1 $-1 $36 $-1 $16 #
shell $-1 $-1 $-1 $37 $-1 $18 #
shell $-1 $-1 $-1 $38 $-1 $20 #
shell $-1 $-1 $-1 $39 $-1 $22 #
face $-1 $40 $41 $24 $-1 $42 forward single #
face $-1 $43 $44 $25 $-1 $45 reversed single #
face $-1 $46 $47 $26 $-1 $48 reversed single #
face $-1 $49 $50 $27 $-1 $51 forward single #
face $-1 $52 $53 $28 $-1 $54 reversed single #
face $-1 $55 $56 $29 $-1 $57 forward single #
face $-1 $58 $59 $30 $-1 $60 forward single #
face $-1 $61 $62 $31 $-1 $63 forward single #
face $-1 $64 $65 $24 $-1 $66 reversed single #
loop $-1 $-1 $67 $32 #
plane-surface $-1 0 0 10.072733432980588 0 0 1 1 0 0 forward_v I I I I #
face $-1 $68 $69 $25 $-1 $70 reversed single #
loop $-1 $-1 $71 $33 #
plane-surface $-1 -50.08286748951749 -19.969109807707067 0 1 0 0 0 0 -1 forward_v I I I I #
face $-1 $72 $73 $26 $-1 $74 reversed single #
loop $-1 $-1 $75 $34 #
plane-surface $-1 -160.78300426905611 19.181512381035848 71.945235482498788 0 1 0 -0.81915205242281985 0 0.57357642473473569 forward_v I I I I #
face $-1 $76 $77 $27 $-1 $78 forward single #
loop $-1 $79 $80 $35 #
cone-surface $-1 -55.81920511894387 22.858482083270694 4.4375707931272146 0.81915205242281985 0 -0.57357642473473569 0.86036463710210354 0 1.2287280786342298 1 I I 0 1 1.5 forward I I I I #
face $-1 $81 $82 $28 $-1 $83 reversed single #
loop $-1 $-1 $84 $36 #
plane-surface $-1 51.920683411118461 7.1543916426626684 172.229701946956 0 -1 0 -0.66913061440640931 0 -0.74314481823134659 forward_v I I I I #
face $-1 $85 $86 $29 $-1 $87 forward single #
loop $-1 $88 $89 $37 #
cone-surface $-1 55.067362629598151 -1.2750494811647535 4.7130366219676949 -0.66913061440640931 0 -0.74314481823134659 0.3715724091156733 0 -0.33456530720320465 1 I I 0 1 0.5 forward I I I I #
face $-1 $90 $91 $30 $-1 $92 forward single #
loop $-1 $93 $94 $38 #
cone-surface $-1 55.067362629598151 1.8859909402705277 4.7130366219676949 -0.66913061440640931 0 -0.74314481823134659 0.3715724091156733 0 -0.33456530720320465 1 I I 0 1 0.5 forward I I I I #
face $-1 $95 $96 $31 $-1 $97 forward single #
loop $-1 $98 $99 $39 #
cone-surface $-1 55.067362629598151 5.0470313617058089 4.7130366219676949 -0.66913061440640931 0 -0.74314481823134659 0.3715724091156733 0 -0.33456530720320465 1 I I 0 1 0.5 forward I I I I #
face $-1 $100 $101 $24 $-1 $102 reversed single #
loop $-1 $-1 $103 $40 #
plane-surface $-1 0 0 -10.072733432980588 0 0 1 1 0 0 forward_v I I I I #
coedge $-1 $104 $105 $106 $107 forward $41 $-1 #
face $-1 $108 $109 $25 $-1 $110 reversed single #
loop $-1 $-1 $111 $43 #
plane-surface $-1 -47.112507024938445 -13.402767829908605 0 0 -1 0 0 0 -1 forward_v I I I I #
coedge $-1 $112 $113 $114 $115 forward $44 $-1 #
face $-1 $116 $117 $26 $-1 $118 forward single #
loop $-1 $-1 $119 $46 #
plane-surface $-1 -60.941801202429289 22.858482083270687 2.0356745813299852 -0.81915205242281985 0 0.57357642473473569 0.57357642473473569 0 0.81915205242281985 forward_v I I I I #
coedge $-1 $120 $121 $122 $123 reversed $47 $-1 #
face $-1 $-1 $124 $27 $-1 $125 forward single #
loop $-1 $126 $127 $49 #
cone-surface $-1 -52.896049507695537 22.858482083270694 2.3907552605480866 0.81915205242281985 0 -0.57357642473473569 0.43018231855105177 0 0.61436403931711492 1 I I -0.70710678118654757 0.70710678118654757 0.75 forward I I I I #
loop $-1 $-1 $128 $35 #
coedge $-1 $80 $80 $129 $130 reversed $50 $-1 #
face $-1 $131 $132 $28 $-1 $133 reversed single #
loop $-1 $-1 $134 $52 #
plane-surface $-1 -29.635366352111049 1.8859909402705313 81.652534392415674 0.66913061440640931 0 0.74314481823134659 0.74314481823134659 0 -0.66913061440640931 forward_v I I I I #
coedge $-1 $135 $136 $137 $138 reversed $53 $-1 #
face $-1 $-1 $139 $29 $-1 $140 forward single #
loop $-1 $141 $142 $55 #
cone-surface $-1 54.565514668793341 -1.2750494811647535 4.1556780082941849 -0.66913061440640931 0 -0.74314481823134659 0.18578620455783665 0 -0.16728265360160233 1 I I -0.70710678118654746 0.70710678118654746 0.25 forward I I I I #
loop $-1 $-1 $143 $37 #
coedge $-1 $89 $89 $144 $145 reversed $56 $-1 #
face $-1 $-1 $146 $30 $-1 $147 forward single #
loop $-1 $148 $149 $58 #
cone-surface $-1 54.565514668793341 1.8859909402705277 4.1556780082941849 -0.66913061440640931 0 -0.74314481823134659 0.18578620455783665 0 -0.16728265360160233 1 I I -0.70710678118654746 0.70710678118654746 0.25 forward I I I I #
loop $-1 $-1 $150 $38 #
coedge $-1 $94 $94 $151 $152 reversed $59 $-1 #
face $-1 $-1 $153 $31 $-1 $154 forward single #
loop $-1 $155 $156 $61 #
cone-surface $-1 54.565514668793341 5.0470313617058089 4.1556780082941849 -0.66913061440640931 0 -0.74314481823134659 0.18578620455783665 0 -0.16728265360160233 1 I I -0.70710678118654746 0.70710678118654746 0.25 forward I I I I #
loop $-1 $-1 $157 $39 #
coedge $-1 $99 $99 $158 $159 reversed $62 $-1 #
face $-1 $160 $161 $24 $-1 $162 reversed single #
loop $-1 $-1 $163 $64 #
plane-surface $-1 0 -26.535451785505529 0 0 1 0 0 0 1 forward_v I I I I #
coedge $-1 $164 $165 $166 $167 forward $65 $-1 #
coedge $-1 $168 $67 $169 $170 forward $41 $-1 #
coedge $-1 $67 $168 $171 $172 forward $41 $-1 #
coedge $-1 $173 $174 $67 $107 reversed $175 $-1 #
edge $-1 $176 -26.535451785505529 $177 26.535451785505529 $106 $178 forward 7 unknown #
face $-1 $179 $180 $25 $-1 $181 forward single #
loop $-1 $-1 $182 $68 #
plane-surface $-1 -44.1421465603594 -19.969109807707067 0 -1 0 0 0 0 1 forward_v I I I I #
coedge $-1 $183 $184 $185 $186 forward $69 $-1 #
coedge $-1 $187 $71 $188 $189 reversed $44 $-1 #
coedge $-1 $71 $187 $190 $191 reversed $44 $-1 #
coedge $-1 $184 $183 $71 $115 reversed $69 $-1 #
edge $-1 $192 -10.072733432980588 $193 10.072733432980588 $114 $194 forward 7 unknown #
face $-1 $195 $196 $26 $-1 $197 reversed single #
loop $-1 $-1 $122 $72 #
plane-surface $-1 0 0 10.072733432980588 0 0 1 1 0 0 forward_v I I I I #
coedge $-1 $198 $199 $200 $201 reversed $73 $-1 #
coedge $-1 $121 $75 $202 $203 reversed $47 $-1 #
coedge $-1 $75 $120 $198 $204 reversed $47 $-1 #
coedge $-1 $200 $205 $75 $123 forward $117 $-1 #
edge $-1 $206 19.449700932098779 $207 25.077309955207149 $122 $208 forward 7 unknown #
loop $-1 $-1 $129 $76 #
plane-surface $-1 -60.941801202429289 22.858482083270687 2.0356745813299852 -0.81915205242281985 0 0.57357642473473569 0.57357642473473569 0 0.81915205242281985 forward_v I I I I #
loop $-1 $-1 $209 $49 #
coedge $-1 $127 $127 $128 $210 reversed $77 $-1 #
coedge $-1 $128 $128 $127 $210 forward $79 $-1 #
coedge $-1 $129 $129 $80 $130 forward $124 $-1 #
edge $-1 $211 0 $211 6.2831853071796004 $129 $212 forward 7 unknown #
face $-1 $213 $214 $28 $-1 $215 reversed single #
loop $-1 $-1 $216 $81 #
plane-surface $-1 51.920683411118461 -3.3824097621216058 172.229701946956 0 1 0 0.66913061440640931 0 0.74314481823134659 forward_v I I I I #
coedge $-1 $217 $218 $219 $220 reversed $82 $-1 #
coedge $-1 $136 $84 $221 $222 reversed $53 $-1 #
coedge $-1 $84 $135 $217 $223 reversed $53 $-1 #
coedge $-1 $219 $224 $84 $138 forward $225 $-1 #
edge $-1 $226 -34.981459496870045 $227 -23.901712965614223 $137 $228 forward 7 unknown #
loop $-1 $-1 $144 $85 #
plane-surface $-1 -29.635366352111049 1.8859909402705313 81.652534392415674 0.66913061440640931 0 0.74314481823134659 0.74314481823134659 0 -0.66913061440640931 forward_v I I I I #
loop $-1 $-1 $229 $55 #
coedge $-1 $142 $142 $143 $230 reversed $86 $-1 #
coedge $-1 $143 $143 $142 $230 forward $88 $-1 #
coedge $-1 $144 $144 $89 $145 forward $139 $-1 #
edge $-1 $231 0 $231 6.2831853071796004 $144 $232 forward 7 unknown #
loop $-1 $-1 $151 $90 #
plane-surface $-1 -29.635366352111049 1.8859909402705313 81.652534392415674 0.66913061440640931 0 0.74314481823134659 0.74314481823134659 0 -0.66913061440640931 forward_v I I I I #
loop $-1 $-1 $233 $58 #
coedge $-1 $149 $149 $150 $234 reversed $91 $-1 #
coedge $-1 $150 $150 $149 $234 forward $93 $-1 #
coedge $-1 $151 $151 $94 $152 forward $146 $-1 #
edge $-1 $235 0 $235 6.2831853071796004 $151 $236 forward 7 unknown #
loop $-1 $-1 $158 $95 #
plane-surface $-1 -29.635366352111049 1.8859909402705313 81.652534392415674 0.66913061440640931 0 0.74314481823134659 0.74314481823134659 0 -0.66913061440640931 forward_v I I I I #
loop $-1 $-1 $237 $61 #
coedge $-1 $156 $156 $157 $238 reversed $96 $-1 #
coedge $-1 $157 $157 $156 $238 forward $98 $-1 #
coedge $-1 $158 $158 $99 $159 forward $153 $-1 #
edge $-1 $239 0 $239 6.2831853071796004 $158 $240 forward 7 unknown #
face $-1 $241 $242 $24 $-1 $243 reversed single #
loop $-1 $-1 $244 $100 #
plane-surface $-1 -60.941801202429275 0 0 1 0 0 0 0 -1 forward_v I I I I #
coedge $-1 $245 $171 $246 $247 forward $101 $-1 #
coedge $-1 $248 $103 $245 $249 forward $65 $-1 #
coedge $-1 $103 $248 $250 $251 forward $65 $-1 #
coedge $-1 $174 $173 $103 $167 reversed $175 $-1 #
edge $-1 $252 -26.535451785505529 $253 26.535451785505529 $166 $254 forward 7 unknown #
coedge $-1 $105 $104 $255 $256 forward $41 $-1 #
coedge $-1 $257 $258 $104 $170 reversed $242 $-1 #
edge $-1 $177 -60.941801202429275 $259 60.941801202429275 $169 $260 forward 7 unknown #
coedge $-1 $163 $261 $105 $172 reversed $101 $-1 #
edge $-1 $262 -60.941801202429275 $176 60.941801202429275 $171 $263 forward 7 unknown #
coedge $-1 $166 $106 $261 $264 forward $175 $-1 #
coedge $-1 $106 $166 $257 $265 reversed $175 $-1 #
loop $-1 $-1 $173 $241 #
vertex $-1 $107 $266 #
vertex $-1 $107 $267 #
straight-curve $-1 60.941801202429275 0 10.072733432980588 0 1 0 I I #
face $-1 $268 $269 $25 $-1 $270 reversed single #
loop $-1 $-1 $271 $108 #
plane-surface $-1 0 0 10.072733432980588 0 0 1 1 0 0 forward_v I I I I #
coedge $-1 $272 $273 $274 $275 reversed $109 $-1 #
coedge $-1 $114 $111 $276 $277 reversed $69 $-1 #
coedge $-1 $111 $114 $278 $279 reversed $69 $-1 #
coedge $-1 $273 $272 $111 $186 reversed $109 $-1 #
edge $-1 $280 -10.072733432980588 $281 10.072733432980588 $185 $282 forward 7 unknown #
coedge $-1 $113 $112 $283 $284 reversed $44 $-1 #
coedge $-1 $276 $285 $112 $189 forward $269 $-1 #
edge $-1 $286 -16.550896881651994 $193 -3.4182129260550713 $188 $287 forward 7 unknown #
coedge $-1 $288 $278 $113 $191 forward $180 $-1 #
edge $-1 $192 3.4182129260550713 $289 16.550896881651994 $190 $290 forward 7 unknown #
vertex $-1 $191 $291 #
vertex $-1 $189 $292 #
straight-curve $-1 -50.08286748951749 -13.402767829908605 0 0 0 -1 I I #
face $-1 $-1 $293 $26 $-1 $294 reversed single #
loop $-1 $-1 $295 $116 #
plane-surface $-1 0 26.535451785505529 0 0 -1 0 0 0 -1 forward_v I I I I #
coedge $-1 $296 $119 $121 $204 forward $73 $-1 #
coedge $-1 $119 $296 $295 $297 reversed $73 $-1 #
coedge $-1 $298 $122 $119 $201 forward $117 $-1 #
edge $-1 $207 7.7522713394005045 $299 15.106210743870182 $200 $300 forward 7 unknown #
coedge $-1 $301 $302 $120 $203 forward $293 $-1 #
edge $-1 $303 -33.936943159919387 $206 -25.899884308268806 $202 $304 forward 7 unknown #
edge $-1 $207 -9.8114371170520283 $303 -2.4884734274515653e-014 $121 $305 forward 7 unknown #
coedge $-1 $122 $298 $301 $306 forward $117 $-1 #
vertex $-1 $203 $307 #
vertex $-1 $123 $308 #
straight-curve $-1 -80.391502134528054 19.181512381035848 10.072733432980588 1 0 0 I I #
coedge $-1 $209 $209 $-1 $309 reversed $126 $-1 #
edge $-1 $310 0 $310 6.2831853071796004 $127 $311 forward 7 unknown #
vertex $-1 $130 $312 #
ellipse-curve $-1 -58.127996690875094 22.858482083270694 6.0542040071552936 -0.81915205242281985 0 0.57357642473473569 0.86036463710210354 0 1.2287280786342298 1 I I #
face $-1 $-1 $225 $28 $-1 $313 forward single #
loop $-1 $-1 $314 $131 #
plane-surface $-1 60.941801202429275 0 0 -1 0 0 0 0 1 forward_v I I I I #
coedge $-1 $315 $316 $317 $318 reversed $132 $-1 #
coedge $-1 $319 $134 $136 $223 forward $82 $-1 #
coedge $-1 $134 $319 $315 $320 forward $82 $-1 #
coedge $-1 $317 $137 $134 $220 forward $225 $-1 #
edge $-1 $227 -6.2113961725274027 $321 4.3254052322568715 $219 $322 forward 7 unknown #
coedge $-1 $323 $324 $135 $222 forward $214 $-1 #
edge $-1 $325 -86.018366344291834 $226 -76.042117540497415 $221 $326 forward 7 unknown #
edge $-1 $227 106.97433269128487 $325 121.88360240485855 $136 $327 forward 7 unknown #
coedge $-1 $137 $317 $323 $328 forward $225 $-1 #
loop $-1 $-1 $317 $213 #
vertex $-1 $222 $329 #
vertex $-1 $138 $330 #
straight-curve $-1 25.96034170555923 7.1543916426626684 10.072733432980584 -1 0 0 I I #
coedge $-1 $229 $229 $-1 $331 reversed $141 $-1 #
edge $-1 $332 0 $332 6.2831853071796004 $142 $333 forward 7 unknown #
vertex $-1 $145 $334 #
ellipse-curve $-1 55.401927936801364 -1.2750494811647535 5.0846090310833789 0.66913061440640931 0 0.74314481823134659 0.3715724091156733 0 -0.33456530720320465 1 I I #
coedge $-1 $233 $233 $-1 $335 reversed $148 $-1 #
edge $-1 $336 0 $336 6.2831853071796004 $149 $337 forward 7 unknown #
vertex $-1 $152 $338 #
ellipse-curve $-1 55.401927936801364 1.8859909402705277 5.0846090310833789 0.66913061440640931 0 0.74314481823134659 0.3715724091156733 0 -0.33456530720320465 1 I I #
coedge $-1 $237 $237 $-1 $339 reversed $155 $-1 #
edge $-1 $340 0 $340 6.2831853071796004 $156 $341 forward 7 unknown #
vertex $-1 $159 $342 #
ellipse-curve $-1 55.401927936801364 5.0470313617058089 5.0846090310833789 0.66913061440640931 0 0.74314481823134659 0.3715724091156733 0 -0.33456530720320465 1 I I #
face $-1 $-1 $175 $24 $-1 $343 reversed single #
loop $-1 $-1 $257 $160 #
plane-surface $-1 0 26.535451785505529 0 0 -1 0 0 0 -1 forward_v I I I I #
coedge $-1 $344 $255 $258 $345 forward $161 $-1 #
coedge $-1 $261 $163 $164 $249 reversed $101 $-1 #
coedge $-1 $255 $344 $163 $247 reversed $161 $-1 #
edge $-1 $262 -10.072733432980588 $346 10.072733432980588 $246 $347 forward 7 unknown #
coedge $-1 $165 $164 $344 $348 forward $65 $-1 #
edge $-1 $253 -60.941801202429275 $346 60.941801202429275 $245 $349 forward 7 unknown #
coedge $-1 $258 $257 $165 $251 reversed $242 $-1 #
edge $-1 $350 -60.941801202429275 $252 60.941801202429275 $250 $351 forward 7 unknown #
vertex $-1 $167 $352 #
vertex $-1 $264 $353 #
straight-curve $-1 60.941801202429275 0 -10.072733432980588 0 -1 0 I I #
coedge $-1 $244 $246 $168 $256 reversed $161 $-1 #
edge $-1 $259 -26.535451785505529 $262 26.535451785505529 $255 $354 forward 7 unknown #
coedge $-1 $250 $169 $174 $265 forward $242 $-1 #
coedge $-1 $169 $250 $244 $345 reversed $242 $-1 #
vertex $-1 $170 $355 #
straight-curve $-1 0 26.535451785505529 10.072733432980588 -1 0 0 I I #
coedge $-1 $171 $245 $173 $264 reversed $101 $-1 #
vertex $-1 $256 $356 #
straight-curve $-1 0 -26.535451785505529 10.072733432980588 1 0 0 I I #
edge $-1 $176 -10.072733432980588 $253 10.072733432980588 $173 $357 forward 7 unknown #
edge $-1 $177 -10.072733432980588 $252 10.072733432980588 $174 $358 forward 7 unknown #
point $-1 60.941801202429275 -26.535451785505529 10.072733432980588 #
point $-1 60.941801202429275 26.535451785505529 10.072733432980588 #
face $-1 $-1 $359 $25 $-1 $360 reversed single #
loop $-1 $-1 $361 $179 #
plane-surface $-1 0 0 -10.072733432980588 0 0 1 1 0 0 forward_v I I I I #
coedge $-1 $278 $288 $273 $362 forward $180 $-1 #
coedge $-1 $185 $182 $361 $363 reversed $109 $-1 #
coedge $-1 $182 $185 $271 $362 reversed $109 $-1 #
coedge $-1 $364 $365 $182 $275 forward $359 $-1 #
edge $-1 $366 -10.072733432980588 $367 10.072733432980588 $274 $368 forward 7 unknown #
coedge $-1 $361 $188 $183 $277 forward $269 $-1 #
edge $-1 $193 -26.526613977048267 $281 -20.585893047890178 $276 $369 forward 7 unknown #
coedge $-1 $190 $271 $184 $279 forward $180 $-1 #
edge $-1 $280 20.585893047890178 $192 26.526613977048267 $278 $370 forward 7 unknown #
vertex $-1 $279 $371 #
vertex $-1 $277 $372 #
straight-curve $-1 -44.1421465603594 -13.402767829908605 0 0 0 -1 I I #
coedge $-1 $365 $364 $187 $284 forward $359 $-1 #
edge $-1 $289 -10.072733432980588 $286 10.072733432980588 $283 $373 forward 7 unknown #
coedge $-1 $188 $361 $365 $374 forward $269 $-1 #
vertex $-1 $189 $375 #
straight-curve $-1 -50.08286748951749 -9.9845549038535335 -10.072733432980588 0 1 0 I I #
coedge $-1 $271 $190 $364 $376 forward $180 $-1 #
vertex $-1 $376 $377 #
straight-curve $-1 -50.08286748951749 -9.9845549038535335 10.072733432980588 0 -1 0 I I #
point $-1 -50.08286748951749 -13.402767829908605 10.072733432980588 #
point $-1 -50.08286748951749 -13.402767829908605 -10.072733432980588 #
loop $-1 $-1 $202 $195 #
plane-surface $-1 -60.941801202429275 0 0 1 0 0 0 0 -1 forward_v I I I I #
coedge $-1 $378 $379 $199 $297 forward $196 $-1 #
coedge $-1 $199 $198 $302 $380 reversed $73 $-1 #
edge $-1 $299 6.8321896025594651 $381 16.643626719611468 $295 $382 forward 7 unknown #
coedge $-1 $205 $200 $379 $383 forward $117 $-1 #
vertex $-1 $383 $384 #
straight-curve $-1 -55.314192179320898 11.429241041635343 10.072733432980588 0 1 0 I I #
coedge $-1 $385 $202 $205 $306 reversed $293 $-1 #
coedge $-1 $202 $385 $296 $380 forward $293 $-1 #
vertex $-1 $203 $386 #
straight-curve $-1 -60.941801202429275 19.181512381035848 35.972617741249394 0 0 1 I I #
straight-curve $-1 -60.941801202429289 19.181512381035848 2.0356745813299852 -0.57357642473473569 0 -0.81915205242281985 I I #
edge $-1 $387 -26.535451785505529 $206 -19.181512381035848 $301 $388 forward 7 unknown #
point $-1 -60.941801202429275 19.181512381035848 10.072733432980588 #
point $-1 -55.314192179320905 19.181512381035848 10.072733432980588 #
edge $-1 $389 1 $389 0 $209 $-1 forward 7 unknown #
vertex $-1 $210 $390 #
ellipse-curve $-1 -53.510413547012654 22.858482083270694 2.8209375790991382 -0.81915205242281985 0 0.57357642473473569 0.86036463710210354 0 1.2287280786342298 1 I I #
point $-1 -57.267632053772985 22.858482083270694 7.2829320857895201 #
plane-surface $-1 0 0 10.072733432980588 0 0 1 1 0 0 forward_v I I I I #
coedge $-1 $324 $323 $316 $391 forward $214 $-1 #
coedge $-1 $316 $216 $218 $320 reversed $132 $-1 #
coedge $-1 $216 $315 $314 $391 reversed $132 $-1 #
coedge $-1 $224 $219 $216 $318 forward $225 $-1 #
edge $-1 $321 23.901712965614223 $392 34.981459496870045 $317 $393 forward 7 unknown #
coedge $-1 $218 $217 $324 $394 reversed $82 $-1 #
edge $-1 $395 -121.88360240485855 $321 -106.97433269128487 $315 $396 forward 7 unknown #
vertex $-1 $220 $397 #
straight-curve $-1 49.862054671173468 0.94299547013526563 10.072733432980584 0 -1 0 I I #
coedge $-1 $314 $221 $224 $328 reversed $214 $-1 #
coedge $-1 $221 $314 $319 $394 forward $214 $-1 #
vertex $-1 $222 $398 #
straight-curve $-1 60.941801202429275 7.1543916426626684 86.114850973477999 0 0 1 I I #
straight-curve $-1 -29.635366352111049 7.1543916426626684 81.652534392415674 0.74314481823134659 0 -0.66913061440640931 I I #
edge $-1 $392 -3.3824097621216058 $226 7.1543916426626684 $323 $399 forward 7 unknown #
point $-1 60.941801202429275 7.1543916426626684 10.072733432980588 #
point $-1 49.862054671173453 7.1543916426626684 10.072733432980584 #
edge $-1 $400 1 $400 0 $229 $-1 forward 7 unknown #
vertex $-1 $230 $401 #
ellipse-curve $-1 54.732797322394944 -1.2750494811647535 4.3414642128520216 0.66913061440640931 0 0.74314481823134659 0.3715724091156733 0 -0.33456530720320465 1 I I #
point $-1 55.773500345917029 -1.2750494811647535 4.7500437238801636 #
edge $-1 $402 1 $402 0 $233 $-1 forward 7 unknown #
vertex $-1 $234 $403 #
ellipse-curve $-1 54.732797322394944 1.8859909402705277 4.3414642128520216 0.66913061440640931 0 0.74314481823134659 0.3715724091156733 0 -0.33456530720320465 1 I I #
point $-1 55.773500345917029 1.8859909402705277 4.7500437238801636 #
edge $-1 $404 1 $404 0 $237 $-1 forward 7 unknown #
vertex $-1 $238 $405 #
ellipse-curve $-1 54.732797322394944 5.0470313617058089 4.3414642128520216 0.66913061440640931 0 0.74314481823134659 0.3715724091156733 0 -0.33456530720320465 1 I I #
point $-1 55.773500345917029 5.0470313617058089 4.7500437238801636 #
plane-surface $-1 60.941801202429275 0 0 -1 0 0 0 0 1 forward_v I I I I #
coedge $-1 $246 $244 $248 $348 reversed $161 $-1 #
edge $-1 $259 -10.072733432980588 $350 10.072733432980588 $258 $406 forward 7 unknown #
vertex $-1 $348 $407 #
straight-curve $-1 -60.941801202429275 -26.535451785505529 0 0 0 -1 I I #
edge $-1 $346 -26.535451785505529 $350 26.535451785505529 $344 $408 forward 7 unknown #
straight-curve $-1 0 -26.535451785505529 -10.072733432980588 -1 0 0 I I #
vertex $-1 $251 $409 #
straight-curve $-1 0 26.535451785505529 -10.072733432980588 1 0 0 I I #
point $-1 60.941801202429275 26.535451785505529 -10.072733432980588 #
point $-1 60.941801202429275 -26.535451785505529 -10.072733432980588 #
straight-curve $-1 -60.941801202429275 0 10.072733432980588 0 -1 0 I I #
point $-1 -60.941801202429275 26.535451785505529 10.072733432980588 #
point $-1 -60.941801202429275 -26.535451785505529 10.072733432980588 #
straight-curve $-1 60.941801202429275 -26.535451785505529 0 0 0 -1 I I #
straight-curve $-1 60.941801202429275 26.535451785505529 0 0 0 -1 I I #
loop $-1 $-1 $274 $268 #
plane-surface $-1 0 -26.535451785505529 0 0 1 0 0 0 1 forward_v I I I I #
coedge $-1 $285 $276 $272 $363 forward $269 $-1 #
edge $-1 $367 -16.550896881651994 $280 -3.4182129260550713 $271 $410 forward 7 unknown #
edge $-1 $281 3.4182129260550713 $366 16.550896881651994 $361 $411 forward 7 unknown #
coedge $-1 $283 $274 $288 $376 reversed $359 $-1 #
coedge $-1 $274 $283 $285 $374 reversed $359 $-1 #
vertex $-1 $374 $412 #
vertex $-1 $275 $413 #
straight-curve $-1 -44.1421465603594 -26.535451785505529 0 0 0 1 I I #
straight-curve $-1 -23.556253512469222 -13.402767829908605 -10.072733432980588 1 0 0 I I #
straight-curve $-1 -23.556253512469222 -13.402767829908605 10.072733432980588 -1 0 0 I I #
point $-1 -44.1421465603594 -13.402767829908605 10.072733432980588 #
point $-1 -44.1421465603594 -13.402767829908605 -10.072733432980588 #
straight-curve $-1 -50.08286748951749 -26.535451785505529 0 0 0 -1 I I #
edge $-1 $366 44.1421465603594 $286 50.08286748951749 $365 $414 forward 7 unknown #
point $-1 -50.08286748951749 -26.535451785505529 -10.072733432980588 #
edge $-1 $289 -50.08286748951749 $367 -44.1421465603594 $364 $415 forward 7 unknown #
point $-1 -50.08286748951749 -26.535451785505529 10.072733432980588 #
coedge $-1 $379 $295 $385 $416 reversed $196 $-1 #
coedge $-1 $295 $378 $298 $383 reversed $196 $-1 #
edge $-1 $381 -15.106210743870182 $303 -7.7522713394005045 $302 $417 forward 7 unknown #
vertex $-1 $297 $418 #
straight-curve $-1 -51.395409293975014 26.535451785505529 15.669335568459024 -0.57357642473473569 0 -0.81915205242281985 I I #
edge $-1 $299 55.314192179320905 $387 60.941801202429275 $379 $419 forward 7 unknown #
point $-1 -55.314192179320905 26.535451785505526 10.072733432980588 #
coedge $-1 $302 $301 $378 $416 forward $293 $-1 #
point $-1 -60.941801202429275 19.181512381035848 2.0356745813300057 #
vertex $-1 $383 $420 #
straight-curve $-1 -60.941801202429275 0 10.072733432980588 0 -1 0 I I #
vertex $-1 $309 $421 #
point $-1 -52.650048909910545 22.858482083270694 4.0496656577333683 #
edge $-1 $392 76.042117540497415 $395 86.018366344291834 $314 $422 forward 7 unknown #
vertex $-1 $328 $423 #
straight-curve $-1 25.96034170555923 -3.3824097621216058 10.072733432980584 1 0 0 I I #
edge $-1 $395 -4.3254052322568715 $325 6.2113961725274027 $324 $424 forward 7 unknown #
vertex $-1 $394 $425 #
straight-curve $-1 -29.635366352111049 -3.3824097621216058 81.652534392415674 -0.74314481823134659 0 0.66913061440640931 I I #
point $-1 49.862054671173453 -3.3824097621216058 10.072733432980584 #
point $-1 60.941801202429275 7.1543916426626684 0.096484629186164739 #
straight-curve $-1 60.941801202429275 0 10.072733432980588 0 1 0 I I #
vertex $-1 $331 $426 #
point $-1 55.104369731510616 -1.2750494811647535 4.0068989056488169 #
vertex $-1 $335 $427 #
point $-1 55.104369731510616 1.8859909402705277 4.0068989056488169 #
vertex $-1 $339 $428 #
point $-1 55.104369731510616 5.0470313617058089 4.0068989056488169 #
straight-curve $-1 -60.941801202429275 26.535451785505529 0 0 0 -1 I I #
point $-1 -60.941801202429275 -26.535451785505529 -10.072733432980588 #
straight-curve $-1 -60.941801202429275 0 -10.072733432980588 0 1 0 I I #
point $-1 -60.941801202429275 26.535451785505529 -10.072733432980588 #
straight-curve $-1 -44.1421465603594 -9.9845549038535335 10.072733432980588 0 1 0 I I #
straight-curve $-1 -44.1421465603594 -9.9845549038535335 -10.072733432980588 0 -1 0 I I #
point $-1 -44.1421465603594 -26.535451785505529 -10.072733432980588 #
point $-1 -44.1421465603594 -26.535451785505529 10.072733432980588 #
straight-curve $-1 0 -26.535451785505529 -10.072733432980588 -1 0 0 I I #
straight-curve $-1 0 -26.535451785505529 10.072733432980588 1 0 0 I I #
edge $-1 $387 -10.072733432980588 $381 -2.0356745813300057 $378 $429 forward 7 unknown #
straight-curve $-1 -60.941801202429275 11.429241041635343 2.0356745813300101 0 -1 0 I I #
point $-1 -60.941801202429275 26.535451785505526 2.0356745813300057 #
straight-curve $-1 0 26.535451785505529 10.072733432980588 -1 0 0 I I #
point $-1 -60.941801202429275 26.535451785505529 10.072733432980588 #
point $-1 -52.28168546837842 22.858482083270694 1.9605729419970348 #
straight-curve $-1 60.941801202429275 -3.3824097621216058 86.114850973477999 0 0 -1 I I #
point $-1 60.941801202429275 -3.3824097621216058 10.072733432980588 #
straight-curve $-1 60.941801202429268 0.94299547013526563 0.096484629186164739 0 1 0 I I #
point $-1 60.941801202429275 -3.3824097621216058 0.096484629186164739 #
point $-1 54.398232015191738 -1.2750494811647535 3.9698918037363482 #
point $-1 54.398232015191738 1.8859909402705277 3.9698918037363482 #
point $-1 54.398232015191738 5.0470313617058089 3.9698918037363482 #
straight-curve $-1 -60.941801202429275 26.535451785505529 0 0 0 -1 I I #
End-of-ACIS-data 