500 0 14 0           
7 Unknown 11 ACIS 5.0 NT 24 Fri Mar 26 01:36:12 1999 
-1 9.9999999999999995e-007 1e-010 
body $-1 $14 $-1 $15 #
body $-1 $16 $-1 $17 #
body $-1 $18 $-1 $19 #
body $-1 $20 $-1 $21 #
body $-1 $22 $-1 $23 #
body $-1 $24 $-1 $25 #
body $-1 $26 $-1 $27 #
body $-1 $28 $-1 $29 #
body $-1 $30 $-1 $31 #
body $-1 $32 $-1 $33 #
body $-1 $34 $-1 $35 #
body $-1 $36 $-1 $37 #
body $-1 $38 $-1 $39 #
body $-1 $40 $-1 $41 #
lump $-1 $-1 $42 $0 #
transform $-1 1 0 0 0 1 0 0 0 1 77.359538560136713 52.873250827652384 22.80890110245414 1 rotate no_reflect no_shear #
lump $-1 $-1 $43 $1 #
transform $-1 1 0 0 0 1 0 0 0 1 77.359538560136713 52.873250827652384 22.80890110245414 1 rotate no_reflect no_shear #
lump $-1 $-1 $44 $2 #
transform $-1 1 0 0 0 1 0 0 0 1 77.359538560136713 52.873250827652384 22.80890110245414 1 rotate no_reflect no_shear #
lump $-1 $-1 $45 $3 #
transform $-1 1 0 0 0 1 0 0 0 1 77.359538560136713 52.873250827652384 22.80890110245414 1 rotate no_reflect no_shear #
lump $-1 $-1 $46 $4 #
transform $-1 1 0 0 0 1 0 0 0 1 77.359538560136713 52.873250827652384 22.80890110245414 1 rotate no_reflect no_shear #
lump $-1 $-1 $47 $5 #
transform $-1 1 0 0 0 1 0 0 0 1 77.359538560136713 52.873250827652384 22.80890110245414 1 rotate no_reflect no_shear #
lump $-1 $-1 $48 $6 #
transform $-1 1 0 0 0 1 0 0 0 1 77.359538560136713 52.873250827652384 22.80890110245414 1 rotate no_reflect no_shear #
lump $-1 $-1 $49 $7 #
transform $-1 1 0 0 0 1 0 0 0 1 77.359538560136713 52.873250827652384 22.80890110245414 1 rotate no_reflect no_shear #
lump $-1 $-1 $50 $8 #
transform $-1 1 0 0 0 1 0 0 0 1 77.359538560136713 52.873250827652384 22.80890110245414 1 rotate no_reflect no_shear #
lump $-1 $-1 $51 $9 #
transform $-1 1 0 0 0 1 0 0 0 1 77.359538560136713 52.873250827652384 22.80890110245414 1 rotate no_reflect no_shear #
lump $-1 $-1 $52 $10 #
transform $-1 1 0 0 0 1 0 0 0 1 77.359538560136713 52.873250827652384 22.80890110245414 1 rotate no_reflect no_shear #
lump $-1 $-1 $53 $11 #
transform $-1 1 0 0 0 1 0 0 0 1 77.359538560136713 52.873250827652384 22.80890110245414 1 rotate no_reflect no_shear #
lump $-1 $-1 $54 $12 #
transform $-1 1 0 0 0 1 0 0 0 1 77.359538560136713 52.873250827652384 22.80890110245414 1 rotate no_reflect no_shear #
lump $-1 $-1 $55 $13 #
transform $-1 1 0 0 0 1 0 0 0 1 77.359538560136713 52.873250827652384 22.80890110245414 1 rotate no_reflect no_shear #
shell $-1 $-1 $-1 $56 $-1 $14 #
shell $-1 $-1 $-1 $57 $-1 $16 #
shell $-1 $-1 $-1 $58 $-1 $18 #
shell $-1 $-1 $-1 $59 $-1 $20 #
shell $-1 $-1 $-1 $60 $-1 $22 #
shell $-1 $-1 $-1 $61 $-1 $24 #
shell $-1 $-1 $-1 $62 $-1 $26 #
shell $-1 $-1 $-1 $63 $-1 $28 #
shell $-1 $-1 $-1 $64 $-1 $30 #
shell $-1 $-1 $-1 $65 $-1 $32 #
shell $-1 $-1 $-1 $66 $-1 $34 #
shell $-1 $-1 $-1 $67 $-1 $36 #
shell $-1 $-1 $-1 $68 $-1 $38 #
shell $-1 $-1 $-1 $69 $-1 $40 #
face $-1 $70 $71 $42 $-1 $72 reversed single #
face $-1 $73 $74 $43 $-1 $75 forward single #
face $-1 $76 $77 $44 $-1 $78 reversed single #
face $-1 $79 $80 $45 $-1 $81 forward single #
face $-1 $82 $83 $46 $-1 $84 forward single #
face $-1 $85 $86 $47 $-1 $87 reversed single #
face $-1 $88 $89 $48 $-1 $90 forward single #
face $-1 $91 $92 $49 $-1 $93 forward single #
face $-1 $94 $95 $50 $-1 $96 reversed single #
face $-1 $97 $98 $51 $-1 $99 forward single #
face $-1 $100 $101 $52 $-1 $102 forward single #
face $-1 $103 $104 $53 $-1 $105 reversed single #
face $-1 $106 $107 $54 $-1 $108 forward single #
face $-1 $109 $110 $55 $-1 $111 forward single #
face $-1 $112 $113 $42 $-1 $114 forward single #
loop $-1 $-1 $115 $56 #
plane-surface $-1 -77.359538560136713 0 0 1 0 0 0 0 -1 forward_v I I I I #
face $-1 $116 $117 $43 $-1 $118 reversed single #
loop $-1 $-1 $119 $57 #
plane-surface $-1 -77.359538560136713 0 0 1 0 0 0 0 -1 forward_v I I I I #
face $-1 $120 $121 $44 $-1 $122 reversed single #
loop $-1 $-1 $123 $58 #
plane-surface $-1 -48.481984707312122 51.723239389174523 195.95120882197855 1 0 0 0 -0.55919291073839883 -0.82903756765294845 forward_v I I I I #
face $-1 $124 $125 $45 $-1 $126 forward single #
loop $-1 $127 $128 $59 #
cone-surface $-1 -43.602600884151087 40.886429723083623 13.578345151818299 0 -0.55919291073839883 -0.82903756765294845 2 0 0 1 I I 0 1 2 forward I I I I #
face $-1 $129 $130 $46 $-1 $131 forward single #
loop $-1 $132 $133 $60 #
cone-surface $-1 -36.283525149409535 40.886429723083623 13.578345151818299 0 -0.55919291073839883 -0.82903756765294845 2 0 0 1 I I 0 1 2 forward I I I I #
face $-1 $134 $135 $47 $-1 $136 reversed single #
loop $-1 $-1 $137 $61 #
plane-surface $-1 -15.87236965528955 51.723239389174523 195.95120882197855 1 0 0 0 -0.55919291073839883 -0.82903756765294845 forward_v I I I I #
face $-1 $138 $139 $48 $-1 $140 forward single #
loop $-1 $141 $142 $62 #
cone-surface $-1 -10.992985832128511 40.886429723083623 13.578345151818299 0 -0.55919291073839883 -0.82903756765294845 2 0 0 1 I I 0 1 2 forward I I I I #
face $-1 $143 $144 $49 $-1 $145 forward single #
loop $-1 $146 $147 $63 #
cone-surface $-1 -3.6739100973869654 40.886429723083623 13.578345151818299 0 -0.55919291073839883 -0.82903756765294845 2 0 0 1 I I 0 1 2 forward I I I I #
face $-1 $148 $149 $50 $-1 $150 reversed single #
loop $-1 $-1 $151 $64 #
plane-surface $-1 16.737245396733027 51.723239389174523 195.95120882197855 1 0 0 0 -0.55919291073839883 -0.82903756765294845 forward_v I I I I #
face $-1 $152 $153 $51 $-1 $154 forward single #
loop $-1 $155 $156 $65 #
cone-surface $-1 21.616629219894065 40.886429723083623 13.578345151818299 0 -0.55919291073839883 -0.82903756765294845 2 0 0 1 I I 0 1 2 forward I I I I #
face $-1 $157 $158 $52 $-1 $159 forward single #
loop $-1 $160 $161 $66 #
cone-surface $-1 28.935704954635611 40.886429723083623 13.578345151818299 0 -0.55919291073839883 -0.82903756765294845 2 0 0 1 I I 0 1 2 forward I I I I #
face $-1 $162 $163 $53 $-1 $164 reversed single #
loop $-1 $-1 $165 $67 #
plane-surface $-1 49.346860448755606 51.723239389174523 195.95120882197855 1 0 0 0 -0.55919291073839883 -0.82903756765294845 forward_v I I I I #
face $-1 $166 $167 $54 $-1 $168 forward single #
loop $-1 $169 $170 $68 #
cone-surface $-1 54.226244271916642 40.886429723083623 13.578345151818299 0 -0.55919291073839883 -0.82903756765294845 2 0 0 1 I I 0 1 2 forward I I I I #
face $-1 $171 $172 $55 $-1 $173 forward single #
loop $-1 $174 $175 $69 #
cone-surface $-1 61.545320006658187 40.886429723083623 13.578345151818299 0 -0.55919291073839883 -0.82903756765294845 2 0 0 1 I I 0 1 2 forward I I I I #
face $-1 $176 $177 $42 $-1 $178 reversed single #
loop $-1 $-1 $179 $70 #
plane-surface $-1 0 0 22.80890110245414 0 0 1 1 0 0 forward_v I I I I #
coedge $-1 $180 $181 $182 $183 reversed $71 $-1 #
face $-1 $184 $185 $43 $-1 $186 reversed single #
loop $-1 $-1 $187 $73 #
plane-surface $-1 0 0 -22.80890110245414 0 0 1 1 0 0 forward_v I I I I #
coedge $-1 $188 $189 $190 $191 forward $74 $-1 #
face $-1 $192 $193 $44 $-1 $194 reversed single #
loop $-1 $-1 $195 $76 #
plane-surface $-1 -39.943063016780314 -34.794571692469972 67.683281456678117 0 0.55919291073839883 0.82903756765294845 1 0 0 forward_v I I I I #
coedge $-1 $196 $197 $198 $199 reversed $77 $-1 #
face $-1 $-1 $200 $45 $-1 $201 forward single #
loop $-1 $202 $203 $79 #
cone-surface $-1 -43.602600884151087 38.909825197174825 10.64790848693389 0 -0.55919291073839883 -0.82903756765294845 1 0 0 1 I I -0.70710678118654746 0.70710678118654746 1 forward I I I I #
loop $-1 $-1 $204 $59 #
coedge $-1 $128 $128 $205 $206 reversed $80 $-1 #
face $-1 $-1 $207 $46 $-1 $208 forward single #
loop $-1 $209 $210 $82 #
cone-surface $-1 -36.283525149409535 38.909825197174825 10.64790848693389 0 -0.55919291073839883 -0.82903756765294845 1 0 0 1 I I -0.70710678118654746 0.70710678118654746 1 forward I I I I #
loop $-1 $-1 $211 $60 #
coedge $-1 $133 $133 $212 $213 reversed $83 $-1 #
face $-1 $214 $215 $47 $-1 $216 reversed single #
loop $-1 $-1 $217 $85 #
plane-surface $-1 -7.3334479647577382 -34.794571692469972 67.683281456678117 0 0.55919291073839883 0.82903756765294845 1 0 0 forward_v I I I I #
coedge $-1 $218 $219 $220 $221 reversed $86 $-1 #
face $-1 $-1 $222 $48 $-1 $223 forward single #
loop $-1 $224 $225 $88 #
cone-surface $-1 -10.992985832128511 38.909825197174825 10.64790848693389 0 -0.55919291073839883 -0.82903756765294845 1 0 0 1 I I -0.70710678118654746 0.70710678118654746 1 forward I I I I #
loop $-1 $-1 $226 $62 #
coedge $-1 $142 $142 $227 $228 reversed $89 $-1 #
face $-1 $-1 $229 $49 $-1 $230 forward single #
loop $-1 $231 $232 $91 #
cone-surface $-1 -3.6739100973869654 38.909825197174825 10.64790848693389 0 -0.55919291073839883 -0.82903756765294845 1 0 0 1 I I -0.70710678118654746 0.70710678118654746 1 forward I I I I #
loop $-1 $-1 $233 $63 #
coedge $-1 $147 $147 $234 $235 reversed $92 $-1 #
face $-1 $236 $237 $50 $-1 $238 reversed single #
loop $-1 $-1 $239 $94 #
plane-surface $-1 25.276167087264838 -34.794571692469972 67.683281456678117 0 0.55919291073839883 0.82903756765294845 1 0 0 forward_v I I I I #
coedge $-1 $240 $241 $242 $243 reversed $95 $-1 #
face $-1 $-1 $244 $51 $-1 $245 forward single #
loop $-1 $246 $247 $97 #
cone-surface $-1 21.616629219894065 38.909825197174825 10.64790848693389 0 -0.55919291073839883 -0.82903756765294845 1 0 0 1 I I -0.70710678118654746 0.70710678118654746 1 forward I I I I #
loop $-1 $-1 $248 $65 #
coedge $-1 $156 $156 $249 $250 reversed $98 $-1 #
face $-1 $-1 $251 $52 $-1 $252 forward single #
loop $-1 $253 $254 $100 #
cone-surface $-1 28.935704954635611 38.909825197174825 10.64790848693389 0 -0.55919291073839883 -0.82903756765294845 1 0 0 1 I I -0.70710678118654746 0.70710678118654746 1 forward I I I I #
loop $-1 $-1 $255 $66 #
coedge $-1 $161 $161 $256 $257 reversed $101 $-1 #
face $-1 $258 $259 $53 $-1 $260 reversed single #
loop $-1 $-1 $261 $103 #
plane-surface $-1 57.885782139287414 -34.794571692469972 67.683281456678117 0 0.55919291073839883 0.82903756765294845 1 0 0 forward_v I I I I #
coedge $-1 $262 $263 $264 $265 reversed $104 $-1 #
face $-1 $-1 $266 $54 $-1 $267 forward single #
loop $-1 $268 $269 $106 #
cone-surface $-1 54.226244271916642 38.909825197174825 10.64790848693389 0 -0.55919291073839883 -0.82903756765294845 1 0 0 1 I I -0.70710678118654746 0.70710678118654746 1 forward I I I I #
loop $-1 $-1 $270 $68 #
coedge $-1 $170 $170 $271 $272 reversed $107 $-1 #
face $-1 $-1 $273 $55 $-1 $274 forward single #
loop $-1 $275 $276 $109 #
cone-surface $-1 61.545320006658187 38.909825197174825 10.64790848693389 0 -0.55919291073839883 -0.82903756765294845 1 0 0 1 I I -0.70710678118654746 0.70710678118654746 1 forward I I I I #
loop $-1 $-1 $277 $69 #
coedge $-1 $175 $175 $278 $279 reversed $110 $-1 #
face $-1 $280 $281 $42 $-1 $282 reversed single #
loop $-1 $-1 $283 $112 #
plane-surface $-1 0 0 -22.80890110245414 0 0 1 1 0 0 forward_v I I I I #
coedge $-1 $284 $285 $286 $287 forward $113 $-1 #
coedge $-1 $288 $115 $289 $290 reversed $71 $-1 #
coedge $-1 $115 $288 $291 $292 forward $71 $-1 #
coedge $-1 $293 $294 $115 $183 forward $177 $-1 #
edge $-1 $295 -52.873250827652384 $296 52.873250827652384 $115 $297 forward 7 unknown #
face $-1 $298 $299 $43 $-1 $300 reversed single #
loop $-1 $-1 $301 $116 #
plane-surface $-1 -86.330898121390234 -44.252066165948825 0 0 1 0 0 0 1 forward_v I I I I #
coedge $-1 $302 $303 $189 $304 forward $117 $-1 #
coedge $-1 $305 $119 $306 $307 reversed $74 $-1 #
coedge $-1 $119 $305 $187 $304 reversed $74 $-1 #
coedge $-1 $308 $309 $119 $191 reversed $310 $-1 #
edge $-1 $311 -22.80890110245414 $312 22.80890110245414 $190 $313 forward 7 unknown #
face $-1 $314 $315 $44 $-1 $316 forward single #
loop $-1 $-1 $317 $120 #
plane-surface $-1 -31.404141326248503 51.723239389174523 195.95120882197855 -1 0 0 0 0.55919291073839883 0.82903756765294845 forward_v I I I I #
coedge $-1 $318 $319 $320 $321 reversed $121 $-1 #
coedge $-1 $197 $123 $322 $323 reversed $77 $-1 #
coedge $-1 $123 $196 $318 $324 reversed $77 $-1 #
coedge $-1 $320 $325 $123 $199 forward $315 $-1 #
edge $-1 $326 -27.011631133065123 $327 -5.8728121542683454 $198 $328 forward 7 unknown #
loop $-1 $-1 $205 $124 #
plane-surface $-1 -39.943063016780314 -34.794571692469972 67.683281456678117 0 0.55919291073839883 0.82903756765294845 1 0 0 forward_v I I I I #
loop $-1 $-1 $329 $79 #
coedge $-1 $203 $203 $204 $330 reversed $125 $-1 #
coedge $-1 $204 $204 $203 $330 forward $127 $-1 #
coedge $-1 $205 $205 $128 $206 forward $200 $-1 #
edge $-1 $331 -6.9290695525480548e-017 $331 6.2831853071796004 $205 $332 forward 7 unknown #
loop $-1 $-1 $212 $129 #
plane-surface $-1 -39.943063016780314 -34.794571692469972 67.683281456678117 0 0.55919291073839883 0.82903756765294845 1 0 0 forward_v I I I I #
loop $-1 $-1 $333 $82 #
coedge $-1 $210 $210 $211 $334 reversed $130 $-1 #
coedge $-1 $211 $211 $210 $334 forward $132 $-1 #
coedge $-1 $212 $212 $133 $213 forward $207 $-1 #
edge $-1 $335 -6.9290695525480548e-017 $335 6.2831853071796004 $212 $336 forward 7 unknown #
face $-1 $337 $338 $47 $-1 $339 forward single #
loop $-1 $-1 $340 $134 #
plane-surface $-1 1.2054737257740733 51.723239389174523 195.95120882197855 -1 0 0 0 0.55919291073839883 0.82903756765294845 forward_v I I I I #
coedge $-1 $341 $342 $343 $344 reversed $135 $-1 #
coedge $-1 $219 $137 $345 $346 reversed $86 $-1 #
coedge $-1 $137 $218 $341 $347 reversed $86 $-1 #
coedge $-1 $343 $348 $137 $221 forward $338 $-1 #
edge $-1 $349 -27.011631133065123 $350 -5.8728121542683454 $220 $351 forward 7 unknown #
loop $-1 $-1 $227 $138 #
plane-surface $-1 -7.3334479647577382 -34.794571692469972 67.683281456678117 0 0.55919291073839883 0.82903756765294845 1 0 0 forward_v I I I I #
loop $-1 $-1 $352 $88 #
coedge $-1 $225 $225 $226 $353 reversed $139 $-1 #
coedge $-1 $226 $226 $225 $353 forward $141 $-1 #
coedge $-1 $227 $227 $142 $228 forward $222 $-1 #
edge $-1 $354 -6.9290695525480548e-017 $354 6.2831853071796004 $227 $355 forward 7 unknown #
loop $-1 $-1 $234 $143 #
plane-surface $-1 -7.3334479647577382 -34.794571692469972 67.683281456678117 0 0.55919291073839883 0.82903756765294845 1 0 0 forward_v I I I I #
loop $-1 $-1 $356 $91 #
coedge $-1 $232 $232 $233 $357 reversed $144 $-1 #
coedge $-1 $233 $233 $232 $357 forward $146 $-1 #
coedge $-1 $234 $234 $147 $235 forward $229 $-1 #
edge $-1 $358 -6.9290695525480548e-017 $358 6.2831853071796004 $234 $359 forward 7 unknown #
face $-1 $360 $361 $50 $-1 $362 forward single #
loop $-1 $-1 $363 $148 #
plane-surface $-1 33.815088777796646 51.723239389174523 195.95120882197855 -1 0 0 0 0.55919291073839883 0.82903756765294845 forward_v I I I I #
coedge $-1 $364 $365 $366 $367 reversed $149 $-1 #
coedge $-1 $241 $151 $368 $369 reversed $95 $-1 #
coedge $-1 $151 $240 $364 $370 reversed $95 $-1 #
coedge $-1 $366 $371 $151 $243 forward $361 $-1 #
edge $-1 $372 -27.011631133065123 $373 -5.8728121542683454 $242 $374 forward 7 unknown #
loop $-1 $-1 $249 $152 #
plane-surface $-1 25.276167087264838 -34.794571692469972 67.683281456678117 0 0.55919291073839883 0.82903756765294845 1 0 0 forward_v I I I I #
loop $-1 $-1 $375 $97 #
coedge $-1 $247 $247 $248 $376 reversed $153 $-1 #
coedge $-1 $248 $248 $247 $376 forward $155 $-1 #
coedge $-1 $249 $249 $156 $250 forward $244 $-1 #
edge $-1 $377 -6.9290695525480548e-017 $377 6.2831853071796004 $249 $378 forward 7 unknown #
loop $-1 $-1 $256 $157 #
plane-surface $-1 25.276167087264838 -34.794571692469972 67.683281456678117 0 0.55919291073839883 0.82903756765294845 1 0 0 forward_v I I I I #
loop $-1 $-1 $379 $100 #
coedge $-1 $254 $254 $255 $380 reversed $158 $-1 #
coedge $-1 $255 $255 $254 $380 forward $160 $-1 #
coedge $-1 $256 $256 $161 $257 forward $251 $-1 #
edge $-1 $381 -6.9290695525480548e-017 $381 6.2831853071796004 $256 $382 forward 7 unknown #
face $-1 $383 $384 $53 $-1 $385 forward single #
loop $-1 $-1 $386 $162 #
plane-surface $-1 66.424703829819222 51.723239389174523 195.95120882197855 -1 0 0 0 0.55919291073839883 0.82903756765294845 forward_v I I I I #
coedge $-1 $387 $388 $389 $390 reversed $163 $-1 #
coedge $-1 $263 $165 $391 $392 reversed $104 $-1 #
coedge $-1 $165 $262 $387 $393 reversed $104 $-1 #
coedge $-1 $389 $394 $165 $265 forward $384 $-1 #
edge $-1 $395 -27.011631133065123 $396 -5.8728121542683454 $264 $397 forward 7 unknown #
loop $-1 $-1 $271 $166 #
plane-surface $-1 57.885782139287414 -34.794571692469972 67.683281456678117 0 0.55919291073839883 0.82903756765294845 1 0 0 forward_v I I I I #
loop $-1 $-1 $398 $106 #
coedge $-1 $269 $269 $270 $399 reversed $167 $-1 #
coedge $-1 $270 $270 $269 $399 forward $169 $-1 #
coedge $-1 $271 $271 $170 $272 forward $266 $-1 #
edge $-1 $400 -6.9290695525480548e-017 $400 6.2831853071796004 $271 $401 forward 7 unknown #
loop $-1 $-1 $278 $171 #
plane-surface $-1 57.885782139287414 -34.794571692469972 67.683281456678117 0 0.55919291073839883 0.82903756765294845 1 0 0 forward_v I I I I #
loop $-1 $-1 $402 $109 #
coedge $-1 $276 $276 $277 $403 reversed $172 $-1 #
coedge $-1 $277 $277 $276 $403 forward $174 $-1 #
coedge $-1 $278 $278 $175 $279 forward $273 $-1 #
edge $-1 $404 -6.9290695525480548e-017 $404 6.2831853071796004 $278 $405 forward 7 unknown #
face $-1 $406 $407 $42 $-1 $408 reversed single #
loop $-1 $-1 $289 $176 #
plane-surface $-1 0 -52.873250827652384 0 0 1 0 0 0 1 forward_v I I I I #
coedge $-1 $294 $293 $409 $410 forward $177 $-1 #
coedge $-1 $411 $179 $412 $413 forward $113 $-1 #
coedge $-1 $179 $411 $414 $415 forward $113 $-1 #
coedge $-1 $416 $417 $179 $287 reversed $418 $-1 #
edge $-1 $419 -52.873250827652384 $420 52.873250827652384 $286 $421 forward 7 unknown #
coedge $-1 $181 $180 $411 $422 reversed $71 $-1 #
coedge $-1 $423 $414 $180 $290 forward $281 $-1 #
edge $-1 $424 -22.80890110245414 $295 22.80890110245414 $180 $425 forward 7 unknown #
coedge $-1 $412 $426 $181 $292 reversed $407 $-1 #
edge $-1 $427 -22.80890110245414 $296 22.80890110245414 $291 $428 forward 7 unknown #
coedge $-1 $283 $182 $426 $429 forward $177 $-1 #
coedge $-1 $182 $283 $423 $430 forward $177 $-1 #
vertex $-1 $183 $431 #
vertex $-1 $429 $432 #
straight-curve $-1 -77.359538560136713 0 -22.80890110245414 0 1 0 I I #
face $-1 $433 $310 $43 $-1 $434 reversed single #
loop $-1 $-1 $435 $184 #
plane-surface $-1 -95.302257682643756 -41.684663903423065 0 1 0 0 0 0 -1 forward_v I I I I #
coedge $-1 $436 $437 $438 $439 forward $185 $-1 #
coedge $-1 $440 $187 $436 $441 forward $117 $-1 #
coedge $-1 $187 $440 $308 $442 forward $117 $-1 #
edge $-1 $311 39.117261640897304 $443 44.252066165948825 $187 $444 forward 7 unknown #
coedge $-1 $189 $188 $445 $446 forward $74 $-1 #
coedge $-1 $447 $448 $188 $307 forward $449 $-1 #
edge $-1 $450 -44.252066165948825 $312 -39.117261640897304 $306 $451 forward 7 unknown #
coedge $-1 $452 $190 $303 $442 reversed $310 $-1 #
coedge $-1 $190 $452 $447 $453 reversed $310 $-1 #
loop $-1 $-1 $190 $298 #
vertex $-1 $304 $454 #
vertex $-1 $453 $455 #
straight-curve $-1 -77.359538560136713 -39.117261640897304 0 0 0 1 I I #
face $-1 $-1 $456 $44 $-1 $457 reversed single #
loop $-1 $-1 $198 $192 #
plane-surface $-1 0 0 22.80890110245414 0 0 1 1 0 0 forward_v I I I I #
coedge $-1 $458 $459 $460 $461 reversed $193 $-1 #
coedge $-1 $462 $195 $197 $324 forward $121 $-1 #
coedge $-1 $195 $462 $458 $463 forward $121 $-1 #
coedge $-1 $460 $198 $195 $321 forward $315 $-1 #
edge $-1 $327 -28.510453198921965 $464 -11.432609817858346 $320 $465 forward 7 unknown #
coedge $-1 $466 $467 $196 $323 forward $456 $-1 #
edge $-1 $468 -89.42501701534394 $326 -75.166703308535133 $322 $469 forward 7 unknown #
edge $-1 $327 80.248478642135481 $468 105.74650165530477 $197 $470 forward 7 unknown #
coedge $-1 $198 $460 $466 $471 forward $315 $-1 #
vertex $-1 $323 $472 #
vertex $-1 $199 $473 #
straight-curve $-1 -48.481984707312122 25.861619694587262 22.808901102454143 0 -1 0 I I #
coedge $-1 $329 $329 $-1 $474 reversed $202 $-1 #
edge $-1 $475 0 $475 6.2831853071796004 $203 $476 forward 7 unknown #
vertex $-1 $206 $477 #
ellipse-curve $-1 -43.602600884151087 42.303841338254003 15.679744249049737 0 0.55919291073839883 0.82903756765294845 2 0 0 1 I I #
coedge $-1 $333 $333 $-1 $478 reversed $209 $-1 #
edge $-1 $479 0 $479 6.2831853071796004 $210 $480 forward 7 unknown #
vertex $-1 $213 $481 #
ellipse-curve $-1 -36.283525149409535 42.303841338254003 15.679744249049737 0 0.55919291073839883 0.82903756765294845 2 0 0 1 I I #
face $-1 $-1 $482 $47 $-1 $483 reversed single #
loop $-1 $-1 $220 $214 #
plane-surface $-1 0 0 22.80890110245414 0 0 1 1 0 0 forward_v I I I I #
coedge $-1 $484 $485 $486 $487 reversed $215 $-1 #
coedge $-1 $488 $217 $219 $347 forward $135 $-1 #
coedge $-1 $217 $488 $484 $489 forward $135 $-1 #
coedge $-1 $486 $220 $217 $344 forward $338 $-1 #
edge $-1 $350 -12.205645672910681 $490 4.8721977081529424 $343 $491 forward 7 unknown #
coedge $-1 $492 $493 $218 $346 forward $482 $-1 #
edge $-1 $494 -89.42501701534394 $349 -75.166703308535133 $345 $495 forward 7 unknown #
edge $-1 $350 80.248478642135481 $494 105.74650165530477 $219 $496 forward 7 unknown #
coedge $-1 $220 $486 $492 $497 forward $338 $-1 #
vertex $-1 $221 $498 #
vertex $-1 $221 $499 #
straight-curve $-1 -15.87236965528955 25.861619694587262 22.808901102454143 0 -1 0 I I #
coedge $-1 $352 $352 $-1 $500 reversed $224 $-1 #
edge $-1 $501 0 $501 6.2831853071796004 $225 $502 forward 7 unknown #
vertex $-1 $228 $503 #
ellipse-curve $-1 -10.992985832128511 42.303841338254003 15.679744249049737 0 0.55919291073839883 0.82903756765294845 2 0 0 1 I I #
coedge $-1 $356 $356 $-1 $504 reversed $231 $-1 #
edge $-1 $505 0 $505 6.2831853071796004 $232 $506 forward 7 unknown #
vertex $-1 $235 $507 #
ellipse-curve $-1 -3.6739100973869654 42.303841338254003 15.679744249049737 0 0.55919291073839883 0.82903756765294845 2 0 0 1 I I #
face $-1 $-1 $508 $50 $-1 $509 reversed single #
loop $-1 $-1 $242 $236 #
plane-surface $-1 0 0 22.80890110245414 0 0 1 1 0 0 forward_v I I I I #
coedge $-1 $510 $511 $512 $513 reversed $237 $-1 #
coedge $-1 $514 $239 $241 $370 forward $149 $-1 #
coedge $-1 $239 $514 $510 $515 forward $149 $-1 #
coedge $-1 $512 $242 $239 $367 forward $361 $-1 #
edge $-1 $373 4.0991618531006075 $516 21.177005234164227 $366 $517 forward 7 unknown #
coedge $-1 $518 $519 $240 $369 forward $508 $-1 #
edge $-1 $520 -89.42501701534394 $372 -75.166703308535133 $368 $521 forward 7 unknown #
edge $-1 $373 80.248478642135481 $520 105.74650165530477 $241 $522 forward 7 unknown #
coedge $-1 $242 $512 $518 $523 forward $361 $-1 #
vertex $-1 $243 $524 #
vertex $-1 $243 $525 #
straight-curve $-1 16.737245396733027 25.861619694587262 22.808901102454143 0 -1 0 I I #
coedge $-1 $375 $375 $-1 $526 reversed $246 $-1 #
edge $-1 $527 0 $527 6.2831853071796004 $247 $528 forward 7 unknown #
vertex $-1 $250 $529 #
ellipse-curve $-1 21.616629219894065 42.303841338254003 15.679744249049737 0 0.55919291073839883 0.82903756765294845 2 0 0 1 I I #
coedge $-1 $379 $379 $-1 $530 reversed $253 $-1 #
edge $-1 $531 0 $531 6.2831853071796004 $254 $532 forward 7 unknown #
vertex $-1 $257 $533 #
ellipse-curve $-1 28.935704954635611 42.303841338254003 15.679744249049737 0 0.55919291073839883 0.82903756765294845 2 0 0 1 I I #
face $-1 $-1 $534 $53 $-1 $535 reversed single #
loop $-1 $-1 $264 $258 #
plane-surface $-1 0 0 22.80890110245414 0 0 1 1 0 0 forward_v I I I I #
coedge $-1 $536 $537 $538 $539 reversed $259 $-1 #
coedge $-1 $540 $261 $263 $393 forward $163 $-1 #
coedge $-1 $261 $540 $536 $541 forward $163 $-1 #
coedge $-1 $538 $264 $261 $390 forward $384 $-1 #
edge $-1 $396 20.403969379111899 $542 37.481812760175515 $389 $543 forward 7 unknown #
coedge $-1 $544 $545 $262 $392 forward $534 $-1 #
edge $-1 $546 -89.42501701534394 $395 -75.166703308535133 $391 $547 forward 7 unknown #
edge $-1 $396 80.248478642135481 $546 105.74650165530477 $263 $548 forward 7 unknown #
coedge $-1 $264 $538 $544 $549 forward $384 $-1 #
vertex $-1 $265 $550 #
vertex $-1 $265 $551 #
straight-curve $-1 49.346860448755606 25.861619694587262 22.808901102454143 0 -1 0 I I #
coedge $-1 $398 $398 $-1 $552 reversed $268 $-1 #
edge $-1 $553 0 $553 6.2831853071796004 $269 $554 forward 7 unknown #
vertex $-1 $272 $555 #
ellipse-curve $-1 54.226244271916642 42.303841338254003 15.679744249049737 0 0.55919291073839883 0.82903756765294845 2 0 0 1 I I #
coedge $-1 $402 $402 $-1 $556 reversed $275 $-1 #
edge $-1 $557 0 $557 6.2831853071796004 $276 $558 forward 7 unknown #
vertex $-1 $279 $559 #
ellipse-curve $-1 61.545320006658187 42.303841338254003 15.679744249049737 0 0.55919291073839883 0.82903756765294845 2 0 0 1 I I #
face $-1 $-1 $418 $42 $-1 $560 reversed single #
loop $-1 $-1 $561 $280 #
plane-surface $-1 0 52.873250827652384 0 0 -1 0 0 0 -1 forward_v I I I I #
coedge $-1 $417 $416 $283 $410 reversed $418 $-1 #
edge $-1 $562 -52.873250827652384 $563 52.873250827652384 $409 $564 forward 7 unknown #
coedge $-1 $285 $284 $288 $422 forward $113 $-1 #
coedge $-1 $561 $291 $284 $413 reversed $407 $-1 #
edge $-1 $420 -77.359538560136713 $427 77.359538560136713 $412 $565 forward 7 unknown #
coedge $-1 $289 $566 $285 $415 reversed $281 $-1 #
edge $-1 $424 -77.359538560136713 $419 77.359538560136713 $414 $567 forward 7 unknown #
coedge $-1 $409 $286 $566 $568 forward $418 $-1 #
coedge $-1 $286 $409 $561 $569 reversed $418 $-1 #
loop $-1 $-1 $416 $406 #
vertex $-1 $287 $570 #
vertex $-1 $287 $571 #
straight-curve $-1 77.359538560136713 0 22.80890110245414 0 1 0 I I #
edge $-1 $427 -52.873250827652384 $424 52.873250827652384 $288 $572 forward 7 unknown #
coedge $-1 $566 $289 $294 $430 reversed $281 $-1 #
vertex $-1 $422 $573 #
straight-curve $-1 -77.359538560136713 -52.873250827652384 0 0 0 -1 I I #
coedge $-1 $291 $561 $293 $429 reversed $407 $-1 #
vertex $-1 $413 $574 #
straight-curve $-1 -77.359538560136713 52.873250827652384 0 0 0 -1 I I #
edge $-1 $296 -77.359538560136713 $562 77.359538560136713 $426 $575 forward 7 unknown #
edge $-1 $563 -77.359538560136713 $295 77.359538560136713 $423 $576 forward 7 unknown #
point $-1 -77.359538560136713 -52.873250827652384 -22.80890110245414 #
point $-1 -77.359538560136713 52.873250827652384 -22.80890110245414 #
face $-1 $-1 $449 $43 $-1 $577 forward single #
plane-surface $-1 -86.330898121390234 -39.117261640897304 0 0 -1 0 0 0 -1 forward_v I I I I #
coedge $-1 $578 $579 $452 $580 forward $299 $-1 #
coedge $-1 $445 $301 $302 $441 reversed $185 $-1 #
coedge $-1 $301 $445 $448 $581 reversed $185 $-1 #
coedge $-1 $579 $578 $301 $439 reversed $299 $-1 #
edge $-1 $582 -22.80890110245414 $583 22.80890110245414 $438 $584 forward 7 unknown #
coedge $-1 $303 $302 $578 $585 forward $117 $-1 #
edge $-1 $443 -8.9713595612535215 $583 8.9713595612535215 $436 $586 forward 7 unknown #
edge $-1 $587 -8.9713595612535215 $311 8.9713595612535215 $308 $588 forward 7 unknown #
vertex $-1 $441 $589 #
straight-curve $-1 -77.359538560136713 0 -22.80890110245414 0 -1 0 I I #
coedge $-1 $437 $436 $305 $446 reversed $185 $-1 #
edge $-1 $450 -22.80890110245414 $443 22.80890110245414 $445 $590 forward 7 unknown #
coedge $-1 $591 $306 $309 $453 forward $449 $-1 #
coedge $-1 $306 $591 $437 $581 forward $449 $-1 #
loop $-1 $-1 $306 $433 #
vertex $-1 $307 $592 #
straight-curve $-1 -77.359538560136713 0 22.80890110245414 0 1 0 I I #
coedge $-1 $309 $308 $435 $580 reversed $310 $-1 #
edge $-1 $312 -8.9713595612535215 $593 8.9713595612535215 $309 $594 forward 7 unknown #
point $-1 -77.359538560136713 -39.117261640897304 -22.80890110245414 #
point $-1 -77.359538560136713 -39.117261640897304 22.80890110245414 #
loop $-1 $-1 $322 $314 #
plane-surface $-1 0 52.873250827652384 0 0 -1 0 0 0 -1 forward_v I I I I #
coedge $-1 $459 $317 $319 $463 reversed $193 $-1 #
coedge $-1 $317 $458 $595 $596 reversed $193 $-1 #
coedge $-1 $325 $320 $317 $461 forward $315 $-1 #
edge $-1 $464 5.8728121542683454 $597 27.011631133065123 $460 $598 forward 7 unknown #
coedge $-1 $319 $318 $467 $599 reversed $121 $-1 #
edge $-1 $600 -105.74650165530477 $464 -80.248478642135481 $458 $601 forward 7 unknown #
vertex $-1 $321 $602 #
straight-curve $-1 -19.971531508390157 31.734431848855621 22.80890110245414 1 0 0 I I #
coedge $-1 $595 $322 $325 $471 reversed $456 $-1 #
coedge $-1 $322 $595 $462 $599 forward $456 $-1 #
vertex $-1 $323 $603 #
straight-curve $-1 -48.481984707312122 52.873250827652384 97.975604410989277 0 0 1 I I #
straight-curve $-1 -48.481984707312122 -34.794571692469972 67.683281456678117 0 0.82903756765294845 -0.55919291073839883 I I #
edge $-1 $597 31.404141326248503 $326 48.481984707312122 $466 $604 forward 7 unknown #
point $-1 -48.481984707312122 52.873250827652384 22.80890110245414 #
point $-1 -48.481984707312122 31.734431848855607 22.808901102454143 #
edge $-1 $605 1 $605 0 $329 $-1 forward 7 unknown #
vertex $-1 $330 $606 #
ellipse-curve $-1 -43.602600884151087 39.469018107913222 11.476946054586838 0 0.55919291073839883 0.82903756765294845 2 0 0 1 I I #
point $-1 -41.602600884151087 42.303841338254017 15.679744249049758 #
edge $-1 $607 1 $607 0 $333 $-1 forward 7 unknown #
vertex $-1 $334 $608 #
ellipse-curve $-1 -36.283525149409535 39.469018107913222 11.476946054586838 0 0.55919291073839883 0.82903756765294845 2 0 0 1 I I #
point $-1 -34.283525149409535 42.303841338254017 15.679744249049758 #
loop $-1 $-1 $345 $337 #
plane-surface $-1 0 52.873250827652384 0 0 -1 0 0 0 -1 forward_v I I I I #
coedge $-1 $485 $340 $342 $489 reversed $215 $-1 #
coedge $-1 $340 $484 $609 $610 reversed $215 $-1 #
coedge $-1 $348 $343 $340 $487 forward $338 $-1 #
edge $-1 $490 5.8728121542683454 $611 27.011631133065123 $486 $612 forward 7 unknown #
coedge $-1 $342 $341 $493 $613 reversed $135 $-1 #
edge $-1 $614 -105.74650165530477 $490 -80.248478642135481 $484 $615 forward 7 unknown #
vertex $-1 $344 $616 #
straight-curve $-1 -3.6667239823788691 31.734431848855621 22.80890110245414 1 0 0 I I #
coedge $-1 $609 $345 $348 $497 reversed $482 $-1 #
coedge $-1 $345 $609 $488 $613 forward $482 $-1 #
vertex $-1 $346 $617 #
straight-curve $-1 -15.87236965528955 52.873250827652384 97.975604410989277 0 0 1 I I #
straight-curve $-1 -15.87236965528955 -34.794571692469972 67.683281456678117 0 0.82903756765294845 -0.55919291073839883 I I #
edge $-1 $611 -1.2054737257740733 $349 15.87236965528955 $492 $618 forward 7 unknown #
point $-1 -15.87236965528955 52.873250827652384 22.80890110245414 #
point $-1 -15.87236965528955 31.734431848855607 22.808901102454143 #
edge $-1 $619 1 $619 0 $352 $-1 forward 7 unknown #
vertex $-1 $353 $620 #
ellipse-curve $-1 -10.992985832128511 39.469018107913222 11.476946054586838 0 0.55919291073839883 0.82903756765294845 2 0 0 1 I I #
point $-1 -8.992985832128511 42.303841338254017 15.679744249049758 #
edge $-1 $621 1 $621 0 $356 $-1 forward 7 unknown #
vertex $-1 $357 $622 #
ellipse-curve $-1 -3.6739100973869654 39.469018107913222 11.476946054586838 0 0.55919291073839883 0.82903756765294845 2 0 0 1 I I #
point $-1 -1.6739100973869654 42.303841338254017 15.679744249049758 #
loop $-1 $-1 $368 $360 #
plane-surface $-1 0 52.873250827652384 0 0 -1 0 0 0 -1 forward_v I I I I #
coedge $-1 $511 $363 $365 $515 reversed $237 $-1 #
coedge $-1 $363 $510 $623 $624 reversed $237 $-1 #
coedge $-1 $371 $366 $363 $513 forward $361 $-1 #
edge $-1 $516 5.8728121542683454 $625 27.011631133065123 $512 $626 forward 7 unknown #
coedge $-1 $365 $364 $519 $627 reversed $149 $-1 #
edge $-1 $628 -105.74650165530477 $516 -80.248478642135481 $510 $629 forward 7 unknown #
vertex $-1 $367 $630 #
straight-curve $-1 12.638083543632419 31.734431848855621 22.80890110245414 1 0 0 I I #
coedge $-1 $623 $368 $371 $523 reversed $508 $-1 #
coedge $-1 $368 $623 $514 $627 forward $508 $-1 #
vertex $-1 $369 $631 #
straight-curve $-1 16.737245396733027 52.873250827652384 97.975604410989277 0 0 1 I I #
straight-curve $-1 16.737245396733027 -34.794571692469972 67.683281456678117 0 0.82903756765294845 -0.55919291073839883 I I #
edge $-1 $625 -33.815088777796646 $372 -16.737245396733027 $518 $632 forward 7 unknown #
point $-1 16.737245396733027 52.873250827652384 22.80890110245414 #
point $-1 16.737245396733027 31.734431848855607 22.808901102454143 #
edge $-1 $633 1 $633 0 $375 $-1 forward 7 unknown #
vertex $-1 $376 $634 #
ellipse-curve $-1 21.616629219894065 39.469018107913222 11.476946054586838 0 0.55919291073839883 0.82903756765294845 2 0 0 1 I I #
point $-1 23.616629219894065 42.303841338254017 15.679744249049758 #
edge $-1 $635 1 $635 0 $379 $-1 forward 7 unknown #
vertex $-1 $380 $636 #
ellipse-curve $-1 28.935704954635611 39.469018107913222 11.476946054586838 0 0.55919291073839883 0.82903756765294845 2 0 0 1 I I #
point $-1 30.935704954635611 42.303841338254017 15.679744249049758 #
loop $-1 $-1 $391 $383 #
plane-surface $-1 0 52.873250827652384 0 0 -1 0 0 0 -1 forward_v I I I I #
coedge $-1 $537 $386 $388 $541 reversed $259 $-1 #
coedge $-1 $386 $536 $637 $638 reversed $259 $-1 #
coedge $-1 $394 $389 $386 $539 forward $384 $-1 #
edge $-1 $542 5.8728121542683454 $639 27.011631133065123 $538 $640 forward 7 unknown #
coedge $-1 $388 $387 $545 $641 reversed $163 $-1 #
edge $-1 $642 -105.74650165530477 $542 -80.248478642135481 $536 $643 forward 7 unknown #
vertex $-1 $390 $644 #
straight-curve $-1 28.942891069643707 31.734431848855621 22.80890110245414 1 0 0 I I #
coedge $-1 $637 $391 $394 $549 reversed $534 $-1 #
coedge $-1 $391 $637 $540 $641 forward $534 $-1 #
vertex $-1 $392 $645 #
straight-curve $-1 49.346860448755606 52.873250827652384 97.975604410989277 0 0 1 I I #
straight-curve $-1 49.346860448755606 -34.794571692469972 67.683281456678117 0 0.82903756765294845 -0.55919291073839883 I I #
edge $-1 $639 -66.424703829819222 $395 -49.346860448755606 $544 $646 forward 7 unknown #
point $-1 49.346860448755606 52.873250827652384 22.80890110245414 #
point $-1 49.346860448755606 31.734431848855607 22.808901102454143 #
edge $-1 $647 1 $647 0 $398 $-1 forward 7 unknown #
vertex $-1 $399 $648 #
ellipse-curve $-1 54.226244271916642 39.469018107913222 11.476946054586838 0 0.55919291073839883 0.82903756765294845 2 0 0 1 I I #
point $-1 56.226244271916642 42.303841338254017 15.679744249049758 #
edge $-1 $649 1 $649 0 $402 $-1 forward 7 unknown #
vertex $-1 $403 $650 #
ellipse-curve $-1 61.545320006658187 39.469018107913222 11.476946054586838 0 0.55919291073839883 0.82903756765294845 2 0 0 1 I I #
point $-1 63.545320006658187 42.303841338254017 15.679744249049758 #
plane-surface $-1 77.359538560136713 0 0 -1 0 0 0 0 1 forward_v I I I I #
coedge $-1 $426 $412 $417 $569 forward $407 $-1 #
vertex $-1 $410 $651 #
vertex $-1 $568 $652 #
straight-curve $-1 77.359538560136713 0 -22.80890110245414 0 -1 0 I I #
straight-curve $-1 0 52.873250827652384 22.80890110245414 -1 0 0 I I #
coedge $-1 $414 $423 $416 $568 reversed $281 $-1 #
straight-curve $-1 0 -52.873250827652384 22.80890110245414 1 0 0 I I #
edge $-1 $419 -22.80890110245414 $563 22.80890110245414 $416 $653 forward 7 unknown #
edge $-1 $420 -22.80890110245414 $562 22.80890110245414 $417 $654 forward 7 unknown #
point $-1 77.359538560136713 -52.873250827652384 22.80890110245414 #
point $-1 77.359538560136713 52.873250827652384 22.80890110245414 #
straight-curve $-1 -77.359538560136713 0 22.80890110245414 0 -1 0 I I #
point $-1 -77.359538560136713 -52.873250827652384 22.80890110245414 #
point $-1 -77.359538560136713 52.873250827652384 22.80890110245414 #
straight-curve $-1 0 52.873250827652384 -22.80890110245414 1 0 0 I I #
straight-curve $-1 0 -52.873250827652384 -22.80890110245414 -1 0 0 I I #
plane-surface $-1 0 0 22.80890110245414 0 0 1 1 0 0 forward_v I I I I #
coedge $-1 $438 $435 $440 $585 reversed $299 $-1 #
coedge $-1 $435 $438 $591 $655 reversed $299 $-1 #
edge $-1 $593 -22.80890110245414 $587 22.80890110245414 $452 $656 forward 7 unknown #
edge $-1 $582 -8.9713595612535215 $450 8.9713595612535215 $437 $657 forward 7 unknown #
vertex $-1 $655 $658 #
vertex $-1 $585 $659 #
straight-curve $-1 -95.302257682643756 -44.252066165948825 0 0 0 -1 I I #
edge $-1 $583 -2.5674022625257606 $587 2.5674022625257606 $578 $660 forward 7 unknown #
straight-curve $-1 -86.330898121390234 -44.252066165948825 -22.80890110245414 -1 0 0 I I #
vertex $-1 $442 $661 #
straight-curve $-1 -86.330898121390234 -39.117261640897304 -22.80890110245414 1 0 0 I I #
point $-1 -77.359538560136713 -44.252066165948825 -22.80890110245414 #
straight-curve $-1 -77.359538560136713 -44.252066165948825 0 0 0 -1 I I #
coedge $-1 $448 $447 $579 $655 forward $449 $-1 #
point $-1 -77.359538560136713 -44.252066165948825 22.80890110245414 #
vertex $-1 $453 $662 #
straight-curve $-1 -86.330898121390234 -39.117261640897304 22.80890110245414 -1 0 0 I I #
coedge $-1 $467 $466 $459 $596 forward $456 $-1 #
edge $-1 $597 75.166703308535133 $600 89.42501701534394 $595 $663 forward 7 unknown #
vertex $-1 $471 $664 #
straight-curve $-1 -31.404141326248503 25.861619694587262 22.808901102454143 0 1 0 I I #
edge $-1 $600 11.432609817858346 $468 28.510453198921965 $467 $665 forward 7 unknown #
vertex $-1 $599 $666 #
straight-curve $-1 -31.404141326248503 -34.794571692469972 67.683281456678117 0 -0.82903756765294845 0.55919291073839883 I I #
point $-1 -31.404141326248503 31.734431848855607 22.808901102454143 #
point $-1 -48.481984707312122 52.873250827652384 8.55058739564533 #
straight-curve $-1 0 52.873250827652384 22.80890110245414 -1 0 0 I I #
vertex $-1 $474 $667 #
point $-1 -41.602600884151087 39.469018107913222 11.476946054586838 #
vertex $-1 $478 $668 #
point $-1 -34.283525149409535 39.469018107913222 11.476946054586838 #
coedge $-1 $493 $492 $485 $610 forward $482 $-1 #
edge $-1 $611 75.166703308535133 $614 89.42501701534394 $609 $669 forward 7 unknown #
vertex $-1 $497 $670 #
straight-curve $-1 1.2054737257740733 25.861619694587262 22.808901102454143 0 1 0 I I #
edge $-1 $614 -4.8721977081529424 $494 12.205645672910681 $493 $671 forward 7 unknown #
vertex $-1 $613 $672 #
straight-curve $-1 1.2054737257740733 -34.794571692469972 67.683281456678117 0 -0.82903756765294845 0.55919291073839883 I I #
point $-1 1.2054737257740733 31.734431848855607 22.808901102454143 #
point $-1 -15.87236965528955 52.873250827652384 8.55058739564533 #
straight-curve $-1 0 52.873250827652384 22.80890110245414 -1 0 0 I I #
vertex $-1 $500 $673 #
point $-1 -8.992985832128511 39.469018107913222 11.476946054586838 #
vertex $-1 $504 $674 #
point $-1 -1.6739100973869654 39.469018107913222 11.476946054586838 #
coedge $-1 $519 $518 $511 $624 forward $508 $-1 #
edge $-1 $625 75.166703308535133 $628 89.42501701534394 $623 $675 forward 7 unknown #
vertex $-1 $523 $676 #
straight-curve $-1 33.815088777796646 25.861619694587262 22.808901102454143 0 1 0 I I #
edge $-1 $628 -21.177005234164227 $520 -4.0991618531006075 $519 $677 forward 7 unknown #
vertex $-1 $627 $678 #
straight-curve $-1 33.815088777796646 -34.794571692469972 67.683281456678117 0 -0.82903756765294845 0.55919291073839883 I I #
point $-1 33.815088777796646 31.734431848855607 22.808901102454143 #
point $-1 16.737245396733027 52.873250827652384 8.55058739564533 #
straight-curve $-1 0 52.873250827652384 22.80890110245414 -1 0 0 I I #
vertex $-1 $526 $679 #
point $-1 23.616629219894065 39.469018107913222 11.476946054586838 #
vertex $-1 $530 $680 #
point $-1 30.935704954635611 39.469018107913222 11.476946054586838 #
coedge $-1 $545 $544 $537 $638 forward $534 $-1 #
edge $-1 $639 75.166703308535133 $642 89.42501701534394 $637 $681 forward 7 unknown #
vertex $-1 $549 $682 #
straight-curve $-1 66.424703829819222 25.861619694587262 22.808901102454143 0 1 0 I I #
edge $-1 $642 -37.481812760175515 $546 -20.403969379111899 $545 $683 forward 7 unknown #
vertex $-1 $641 $684 #
straight-curve $-1 66.424703829819222 -34.794571692469972 67.683281456678117 0 -0.82903756765294845 0.55919291073839883 I I #
point $-1 66.424703829819222 31.734431848855607 22.808901102454143 #
point $-1 49.346860448755606 52.873250827652384 8.55058739564533 #
straight-curve $-1 0 52.873250827652384 22.80890110245414 -1 0 0 I I #
vertex $-1 $552 $685 #
point $-1 56.226244271916642 39.469018107913222 11.476946054586838 #
vertex $-1 $556 $686 #
point $-1 63.545320006658187 39.469018107913222 11.476946054586838 #
point $-1 77.359538560136713 52.873250827652384 -22.80890110245414 #
point $-1 77.359538560136713 -52.873250827652384 -22.80890110245414 #
straight-curve $-1 77.359538560136713 -52.873250827652384 0 0 0 -1 I I #
straight-curve $-1 77.359538560136713 52.873250827652384 0 0 0 -1 I I #
edge $-1 $593 -2.5674022625257606 $582 2.5674022625257606 $579 $687 forward 7 unknown #
straight-curve $-1 -95.302257682643756 -39.117261640897304 0 0 0 -1 I I #
straight-curve $-1 -86.330898121390234 -44.252066165948825 22.80890110245414 1 0 0 I I #
point $-1 -95.302257682643756 -44.252066165948825 22.80890110245414 #
point $-1 -95.302257682643756 -44.252066165948825 -22.80890110245414 #
straight-curve $-1 -95.302257682643756 -41.684663903423065 -22.80890110245414 0 1 0 I I #
point $-1 -95.302257682643756 -39.117261640897304 -22.80890110245414 #
point $-1 -95.302257682643756 -39.117261640897304 22.80890110245414 #
straight-curve $-1 -31.404141326248503 52.873250827652384 97.975604410989277 0 0 -1 I I #
point $-1 -31.404141326248503 52.873250827652384 22.80890110245414 #
straight-curve $-1 -19.971531508390157 52.873250827652384 8.5505873956453335 -1 0 0 I I #
point $-1 -31.404141326248503 52.873250827652384 8.55058739564533 #
point $-1 -43.602600884151087 38.350632286436429 9.8188709192809416 #
point $-1 -36.283525149409535 38.350632286436429 9.8188709192809416 #
straight-curve $-1 1.2054737257740733 52.873250827652384 97.975604410989277 0 0 -1 I I #
point $-1 1.2054737257740733 52.873250827652384 22.80890110245414 #
straight-curve $-1 -3.6667239823788691 52.873250827652384 8.5505873956453335 -1 0 0 I I #
point $-1 1.2054737257740733 52.873250827652384 8.55058739564533 #
point $-1 -10.992985832128511 38.350632286436429 9.8188709192809416 #
point $-1 -3.6739100973869654 38.350632286436429 9.8188709192809416 #
straight-curve $-1 33.815088777796646 52.873250827652384 97.975604410989277 0 0 -1 I I #
point $-1 33.815088777796646 52.873250827652384 22.80890110245414 #
straight-curve $-1 12.638083543632419 52.873250827652384 8.5505873956453335 -1 0 0 I I #
point $-1 33.815088777796646 52.873250827652384 8.55058739564533 #
point $-1 21.616629219894065 38.350632286436429 9.8188709192809416 #
point $-1 28.935704954635611 38.350632286436429 9.8188709192809416 #
straight-curve $-1 66.424703829819222 52.873250827652384 97.975604410989277 0 0 -1 I I #
point $-1 66.424703829819222 52.873250827652384 22.80890110245414 #
straight-curve $-1 28.942891069643707 52.873250827652384 8.5505873956453335 -1 0 0 I I #
point $-1 66.424703829819222 52.873250827652384 8.55058739564533 #
point $-1 54.226244271916642 38.350632286436429 9.8188709192809416 #
point $-1 61.545320006658187 38.350632286436429 9.8188709192809416 #
straight-curve $-1 -95.302257682643756 -41.684663903423065 22.80890110245414 0 -1 0 I I #
End-of-ACIS-data 