500 0 7 0           
7 Unknown 11 ACIS 5.0 NT 24 Fri Mar 26 03:30:02 1999 
-1 9.9999999999999995e-007 1e-010 
body $-1 $7 $-1 $8 #
body $-1 $9 $-1 $10 #
body $-1 $11 $-1 $12 #
body $-1 $13 $-1 $14 #
body $-1 $15 $-1 $16 #
body $-1 $17 $-1 $18 #
body $-1 $19 $-1 $20 #
lump $-1 $-1 $21 $0 #
transform $-1 1 0 0 0 1 0 0 0 1 46.117130039368874 19.874826506483462 9.6293464670653055 1 rotate no_reflect no_shear #
lump $-1 $-1 $22 $1 #
transform $-1 1 0 0 0 1 0 0 0 1 46.117130039368874 19.874826506483462 9.6293464670653055 1 rotate no_reflect no_shear #
lump $-1 $-1 $23 $2 #
transform $-1 1 0 0 0 1 0 0 0 1 46.117130039368874 19.874826506483462 9.6293464670653055 1 rotate no_reflect no_shear #
lump $-1 $-1 $24 $3 #
transform $-1 1 0 0 0 1 0 0 0 1 46.117130039368874 19.874826506483462 9.6293464670653055 1 rotate no_reflect no_shear #
lump $-1 $-1 $25 $4 #
transform $-1 1 0 0 0 1 0 0 0 1 46.117130039368874 19.874826506483462 9.6293464670653055 1 rotate no_reflect no_shear #
lump $-1 $-1 $26 $5 #
transform $-1 1 0 0 0 1 0 0 0 1 46.117130039368874 19.874826506483462 9.6293464670653055 1 rotate no_reflect no_shear #
lump $-1 $-1 $27 $6 #
transform $-1 1 0 0 0 1 0 0 0 1 46.117130039368874 19.874826506483462 9.6293464670653055 1 rotate no_reflect no_shear #
shell $-1 $-1 $-1 $28 $-1 $7 #
shell $-1 $-1 $-1 $29 $-1 $9 #
shell $-1 $-1 $-1 $30 $-1 $11 #
shell $-1 $-1 $-1 $31 $-1 $13 #
shell $-1 $-1 $-1 $32 $-1 $15 #
shell $-1 $-1 $-1 $33 $-1 $17 #
shell $-1 $-1 $-1 $34 $-1 $19 #
face $-1 $35 $36 $21 $-1 $37 forward single #
face $-1 $38 $39 $22 $-1 $40 reversed single #
face $-1 $41 $42 $23 $-1 $43 reversed single #
face $-1 $44 $45 $24 $-1 $46 forward single #
face $-1 $47 $48 $25 $-1 $49 reversed single #
face $-1 $50 $51 $26 $-1 $52 forward single #
face $-1 $53 $54 $27 $-1 $55 forward single #
face $-1 $56 $57 $21 $-1 $58 reversed single #
loop $-1 $-1 $59 $28 #
plane-surface $-1 0 0 9.6293464670653055 0 0 1 1 0 0 forward_v I I I I #
face $-1 $60 $61 $22 $-1 $62 reversed single #
loop $-1 $-1 $63 $29 #
plane-surface $-1 -42.797566614053068 0 4.0116056627892434 0 0 1 1 0 0 forward_v I I I I #
face $-1 $64 $65 $23 $-1 $66 reversed single #
loop $-1 $-1 $67 $30 #
plane-surface $-1 -17.22828404232795 -85.09429802259487 66.548697771131287 -1 0 0 0 -0.70710678939079041 0.70710677298230451 forward_v I I I I #
face $-1 $68 $69 $24 $-1 $70 forward single #
loop $-1 $71 $72 $31 #
cone-surface $-1 -28.353143615532606 -14.276560023459902 4.0310799213449888 0 0.70710678939079041 -0.70710677298230451 1.5 0 0 1 I I 0 1 1.5 forward I I I I #
face $-1 $73 $74 $25 $-1 $75 reversed single #
loop $-1 $-1 $76 $32 #
plane-surface $-1 5.0718456256179962 48.711866259421328 101.88761424785305 1 0 0 0 -0.64278761758704617 -0.76604443648966558 forward_v I I I I #
face $-1 $77 $78 $26 $-1 $79 forward single #
loop $-1 $80 $81 $33 #
cone-surface $-1 8.3821455737942472 16.428235791977212 6.3514559495095879 0 -0.64278761758704617 -0.76604443648966558 1.5 0 0 1 I I 0 1 1.5 forward I I I I #
face $-1 $82 $83 $27 $-1 $84 forward single #
loop $-1 $85 $86 $34 #
cone-surface $-1 13.347595496058624 16.428235791977212 6.3514559495095879 0 -0.64278761758704617 -0.76604443648966558 1.5 0 0 1 I I 0 1 1.5 forward I I I I #
face $-1 $87 $88 $21 $-1 $89 reversed single #
loop $-1 $-1 $90 $35 #
plane-surface $-1 0 0 -9.6293464670653055 0 0 1 1 0 0 forward_v I I I I #
coedge $-1 $91 $92 $93 $94 forward $36 $-1 #
face $-1 $95 $96 $22 $-1 $97 reversed single #
loop $-1 $-1 $98 $38 #
plane-surface $-1 -39.478003188737262 0 6.8204760649272753 -1 0 0 0 0 1 forward_v I I I I #
coedge $-1 $99 $100 $101 $102 forward $39 $-1 #
face $-1 $103 $104 $23 $-1 $105 forward single #
loop $-1 $-1 $106 $41 #
plane-surface $-1 -28.353143615532606 -19.874826506483473 1.32922776844444 0 -0.70710678939079041 0.70710677298230451 1 0 0 forward_v I I I I #
coedge $-1 $107 $108 $109 $110 reversed $42 $-1 #
face $-1 $-1 $111 $24 $-1 $112 forward single #
loop $-1 $113 $114 $44 #
cone-surface $-1 -28.353143615532606 -12.298022701401127 2.0525426451983755 0 0.70710678939079041 -0.70710677298230451 0.75 0 0 1 I I -0.70710678118654757 0.70710678118654757 0.75 forward I I I I #
loop $-1 $-1 $115 $31 #
coedge $-1 $72 $72 $116 $117 reversed $45 $-1 #
face $-1 $118 $119 $25 $-1 $120 reversed single #
loop $-1 $-1 $121 $47 #
plane-surface $-1 10.864870534926432 -10.575174036494509 31.232072460795138 0 0.64278761758704617 0.76604443648966558 1 0 0 forward_v I I I I #
coedge $-1 $122 $123 $124 $125 reversed $48 $-1 #
face $-1 $-1 $126 $26 $-1 $127 forward single #
loop $-1 $128 $129 $50 #
cone-surface $-1 8.3821455737942472 14.851991748957065 4.4729614877800969 0 -0.64278761758704617 -0.76604443648966558 0.75 0 0 1 I I -0.70710678118654757 0.70710678118654757 0.75 forward I I I I #
loop $-1 $-1 $130 $33 #
coedge $-1 $81 $81 $131 $132 reversed $51 $-1 #
face $-1 $-1 $133 $27 $-1 $134 forward single #
loop $-1 $135 $136 $53 #
cone-surface $-1 13.347595496058624 14.851991748957065 4.4729614877800969 0 -0.64278761758704617 -0.76604443648966558 0.75 0 0 1 I I -0.70710678118654757 0.70710678118654757 0.75 forward I I I I #
loop $-1 $-1 $137 $34 #
coedge $-1 $86 $86 $138 $139 reversed $54 $-1 #
face $-1 $140 $141 $21 $-1 $142 reversed single #
loop $-1 $-1 $143 $56 #
plane-surface $-1 0 -19.874826506483462 0 0 1 0 0 0 1 forward_v I I I I #
coedge $-1 $144 $145 $146 $147 forward $57 $-1 #
coedge $-1 $148 $59 $149 $150 forward $36 $-1 #
coedge $-1 $59 $148 $151 $152 forward $36 $-1 #
coedge $-1 $153 $154 $59 $94 reversed $155 $-1 #
edge $-1 $156 -19.874826506483462 $157 19.874826506483462 $93 $158 forward 7 unknown #
face $-1 $159 $160 $22 $-1 $161 reversed single #
loop $-1 $-1 $162 $60 #
plane-surface $-1 0 19.874826506483462 0 0 -1 0 0 0 -1 forward_v I I I I #
coedge $-1 $101 $163 $164 $165 reversed $61 $-1 #
coedge $-1 $166 $63 $167 $168 reversed $39 $-1 #
coedge $-1 $63 $166 $169 $170 reversed $39 $-1 #
coedge $-1 $171 $98 $63 $102 reversed $61 $-1 #
edge $-1 $172 -19.874826506483462 $173 19.874826506483462 $101 $174 forward 7 unknown #
face $-1 $175 $176 $23 $-1 $177 forward single #
loop $-1 $-1 $178 $64 #
plane-surface $-1 -39.478003188737262 0 6.8204760649272753 -1 0 0 0 0 1 forward_v I I I I #
coedge $-1 $179 $180 $181 $182 reversed $65 $-1 #
coedge $-1 $108 $67 $183 $184 reversed $42 $-1 #
coedge $-1 $67 $107 $179 $185 reversed $42 $-1 #
coedge $-1 $181 $186 $67 $110 forward $176 $-1 #
edge $-1 $187 22.672322504813973 $188 30.972441010829719 $109 $189 forward 7 unknown #
loop $-1 $-1 $116 $68 #
plane-surface $-1 -28.353143615532606 -19.874826506483473 1.32922776844444 0 -0.70710678939079041 0.70710677298230451 1 0 0 forward_v I I I I #
loop $-1 $-1 $190 $44 #
coedge $-1 $114 $114 $115 $191 reversed $69 $-1 #
coedge $-1 $115 $115 $114 $191 forward $71 $-1 #
coedge $-1 $116 $116 $72 $117 forward $111 $-1 #
edge $-1 $192 -1.256074000952234e-015 $192 6.2831853071795996 $116 $193 forward 7 unknown #
face $-1 $194 $195 $25 $-1 $196 forward single #
loop $-1 $-1 $197 $73 #
plane-surface $-1 16.657895444234867 48.711866259421328 101.88761424785305 -1 0 0 0 0.64278761758704617 0.76604443648966558 forward_v I I I I #
coedge $-1 $198 $199 $200 $201 reversed $74 $-1 #
coedge $-1 $123 $76 $202 $203 reversed $48 $-1 #
coedge $-1 $76 $122 $198 $204 reversed $48 $-1 #
coedge $-1 $200 $205 $76 $125 forward $195 $-1 #
edge $-1 $206 4.4811066232272019 $207 9.1859813925799436 $124 $208 forward 7 unknown #
loop $-1 $-1 $131 $77 #
plane-surface $-1 10.864870534926432 -10.575174036494509 31.232072460795138 0 0.64278761758704617 0.76604443648966558 1 0 0 forward_v I I I I #
loop $-1 $-1 $209 $50 #
coedge $-1 $129 $129 $130 $210 reversed $78 $-1 #
coedge $-1 $130 $130 $129 $210 forward $80 $-1 #
coedge $-1 $131 $131 $81 $132 forward $126 $-1 #
edge $-1 $211 -2.5902983272850485e-017 $211 6.2831853071796004 $131 $212 forward 7 unknown #
loop $-1 $-1 $138 $82 #
plane-surface $-1 10.864870534926432 -10.575174036494509 31.232072460795138 0 0.64278761758704617 0.76604443648966558 1 0 0 forward_v I I I I #
loop $-1 $-1 $213 $53 #
coedge $-1 $136 $136 $137 $214 reversed $83 $-1 #
coedge $-1 $137 $137 $136 $214 forward $85 $-1 #
coedge $-1 $138 $138 $86 $139 forward $133 $-1 #
edge $-1 $215 -2.5902983272850485e-017 $215 6.2831853071796004 $138 $216 forward 7 unknown #
face $-1 $217 $218 $21 $-1 $219 reversed single #
loop $-1 $-1 $220 $87 #
plane-surface $-1 -46.117130039368874 0 0 1 0 0 0 0 -1 forward_v I I I I #
coedge $-1 $221 $151 $222 $223 forward $88 $-1 #
coedge $-1 $224 $90 $221 $225 forward $57 $-1 #
coedge $-1 $90 $224 $226 $227 forward $57 $-1 #
coedge $-1 $154 $153 $90 $147 reversed $155 $-1 #
edge $-1 $228 -19.874826506483462 $229 19.874826506483462 $146 $230 forward 7 unknown #
coedge $-1 $92 $91 $231 $232 forward $36 $-1 #
coedge $-1 $233 $234 $91 $150 reversed $218 $-1 #
edge $-1 $157 -46.117130039368874 $235 46.117130039368874 $149 $236 forward 7 unknown #
coedge $-1 $143 $237 $92 $152 reversed $88 $-1 #
edge $-1 $238 -46.117130039368874 $156 46.117130039368874 $151 $239 forward 7 unknown #
coedge $-1 $146 $93 $237 $240 forward $155 $-1 #
coedge $-1 $93 $146 $233 $241 reversed $155 $-1 #
loop $-1 $-1 $153 $217 #
vertex $-1 $94 $242 #
vertex $-1 $94 $243 #
straight-curve $-1 46.117130039368874 0 9.6293464670653055 0 1 0 I I #
face $-1 $244 $245 $22 $-1 $246 forward single #
loop $-1 $-1 $247 $95 #
plane-surface $-1 -46.117130039368874 0 0 1 0 0 0 0 -1 forward_v I I I I #
coedge $-1 $169 $248 $171 $249 forward $96 $-1 #
coedge $-1 $98 $171 $250 $251 reversed $61 $-1 #
coedge $-1 $252 $167 $98 $165 forward $253 $-1 #
edge $-1 $173 0.6013676303256057 $254 6.2191084346016696 $164 $255 forward 7 unknown #
coedge $-1 $100 $99 $247 $256 reversed $39 $-1 #
coedge $-1 $164 $257 $99 $168 forward $253 $-1 #
edge $-1 $258 -24.71834673234234 $173 -18.079219881710728 $167 $259 forward 7 unknown #
coedge $-1 $260 $162 $100 $170 forward $96 $-1 #
edge $-1 $172 18.079219881710728 $261 24.71834673234234 $169 $262 forward 7 unknown #
coedge $-1 $163 $101 $162 $249 reversed $61 $-1 #
vertex $-1 $170 $263 #
vertex $-1 $168 $264 #
straight-curve $-1 -39.478003188737262 0 4.0116056627892434 0 -1 0 I I #
face $-1 $-1 $265 $23 $-1 $266 reversed single #
loop $-1 $-1 $181 $103 #
plane-surface $-1 0 0 9.6293464670653055 0 0 1 1 0 0 forward_v I I I I #
coedge $-1 $267 $268 $180 $269 reversed $104 $-1 #
coedge $-1 $270 $106 $108 $185 forward $65 $-1 #
coedge $-1 $106 $270 $178 $269 forward $65 $-1 #
coedge $-1 $271 $109 $106 $182 forward $176 $-1 #
edge $-1 $188 3.0517122345616468 $272 25.301431380970961 $181 $273 forward 7 unknown #
coedge $-1 $274 $275 $107 $184 forward $265 $-1 #
edge $-1 $276 -31.945121117121193 $187 -23.64500241850034 $183 $277 forward 7 unknown #
edge $-1 $188 -11.738140296703778 $276 -1.5072887603364246e-014 $108 $278 forward 7 unknown #
coedge $-1 $109 $271 $274 $279 forward $176 $-1 #
vertex $-1 $184 $280 #
vertex $-1 $110 $281 #
straight-curve $-1 -17.22828404232795 -42.547149011297435 9.6293464670653037 0 1 0 I I #
coedge $-1 $190 $190 $-1 $282 reversed $113 $-1 #
edge $-1 $283 0 $283 6.2831853071796004 $114 $284 forward 7 unknown #
vertex $-1 $117 $285 #
ellipse-curve $-1 -28.353143615532606 -15.724767253475589 5.4792871177548781 0 -0.70710678939079041 0.70710677298230451 1.5 0 0 1 I I #
face $-1 $-1 $286 $25 $-1 $287 reversed single #
loop $-1 $-1 $124 $118 #
plane-surface $-1 0 0 9.6293464670653055 0 0 1 1 0 0 forward_v I I I I #
coedge $-1 $288 $289 $290 $291 reversed $119 $-1 #
coedge $-1 $292 $121 $123 $204 forward $74 $-1 #
coedge $-1 $121 $292 $288 $293 forward $74 $-1 #
coedge $-1 $290 $124 $121 $201 forward $195 $-1 #
edge $-1 $207 -0.36058964184521969 $294 11.225460176771652 $200 $295 forward 7 unknown #
coedge $-1 $296 $297 $122 $203 forward $286 $-1 #
edge $-1 $298 -45.26231942324813 $206 -41.314460656861222 $202 $299 forward 7 unknown #
edge $-1 $207 33.607875140507659 $298 39.749653012966903 $123 $300 forward 7 unknown #
coedge $-1 $124 $290 $296 $301 forward $195 $-1 #
vertex $-1 $203 $302 #
vertex $-1 $125 $303 #
straight-curve $-1 5.0718456256179962 24.355933129710664 9.6293464670653037 0 -1 0 I I #
coedge $-1 $209 $209 $-1 $304 reversed $128 $-1 #
edge $-1 $305 0 $305 6.2831853071796004 $129 $306 forward 7 unknown #
vertex $-1 $132 $307 #
ellipse-curve $-1 8.3821455737942472 17.522389121807088 7.6554170838718472 0 0.64278761758704617 0.76604443648966558 1.5 0 0 1 I I #
coedge $-1 $213 $213 $-1 $308 reversed $135 $-1 #
edge $-1 $309 0 $309 6.2831853071796004 $136 $310 forward 7 unknown #
vertex $-1 $139 $311 #
ellipse-curve $-1 13.347595496058624 17.522389121807088 7.6554170838718472 0 0.64278761758704617 0.76604443648966558 1.5 0 0 1 I I #
face $-1 $-1 $155 $21 $-1 $312 reversed single #
loop $-1 $-1 $233 $140 #
plane-surface $-1 0 19.874826506483462 0 0 -1 0 0 0 -1 forward_v I I I I #
coedge $-1 $313 $231 $234 $314 forward $141 $-1 #
coedge $-1 $237 $143 $144 $225 reversed $88 $-1 #
coedge $-1 $231 $313 $143 $223 reversed $141 $-1 #
edge $-1 $238 -9.6293464670653055 $315 9.6293464670653055 $222 $316 forward 7 unknown #
coedge $-1 $145 $144 $313 $317 forward $57 $-1 #
edge $-1 $229 -46.117130039368874 $315 46.117130039368874 $221 $318 forward 7 unknown #
coedge $-1 $234 $233 $145 $227 reversed $218 $-1 #
edge $-1 $319 -46.117130039368874 $228 46.117130039368874 $226 $320 forward 7 unknown #
vertex $-1 $147 $321 #
vertex $-1 $240 $322 #
straight-curve $-1 46.117130039368874 0 -9.6293464670653055 0 -1 0 I I #
coedge $-1 $220 $222 $148 $232 reversed $141 $-1 #
edge $-1 $235 -19.874826506483462 $238 19.874826506483462 $231 $323 forward 7 unknown #
coedge $-1 $226 $149 $154 $241 forward $218 $-1 #
coedge $-1 $149 $226 $220 $314 reversed $218 $-1 #
vertex $-1 $150 $324 #
straight-curve $-1 0 19.874826506483462 9.6293464670653055 -1 0 0 I I #
coedge $-1 $151 $221 $153 $240 reversed $88 $-1 #
vertex $-1 $232 $325 #
straight-curve $-1 0 -19.874826506483462 9.6293464670653055 1 0 0 I I #
edge $-1 $156 -9.6293464670653055 $229 9.6293464670653055 $153 $326 forward 7 unknown #
edge $-1 $157 -9.6293464670653055 $228 9.6293464670653055 $154 $327 forward 7 unknown #
point $-1 46.117130039368874 -19.874826506483462 9.6293464670653055 #
point $-1 46.117130039368874 19.874826506483462 9.6293464670653055 #
face $-1 $-1 $253 $22 $-1 $328 reversed single #
loop $-1 $-1 $250 $159 #
plane-surface $-1 0 0 9.6293464670653055 0 0 1 1 0 0 forward_v I I I I #
coedge $-1 $329 $330 $166 $256 forward $160 $-1 #
coedge $-1 $162 $260 $331 $332 reversed $96 $-1 #
edge $-1 $333 -6.2191084346016696 $172 -0.6013676303256057 $162 $334 forward 7 unknown #
coedge $-1 $331 $335 $163 $251 forward $245 $-1 #
edge $-1 $254 -19.874826506483462 $333 19.874826506483462 $250 $336 forward 7 unknown #
coedge $-1 $257 $164 $335 $337 reversed $253 $-1 #
loop $-1 $-1 $164 $244 #
vertex $-1 $165 $338 #
straight-curve $-1 -39.478003188737262 -19.874826506483462 3.4102380324636377 0 0 1 I I #
edge $-1 $261 -19.874826506483462 $258 19.874826506483462 $247 $339 forward 7 unknown #
coedge $-1 $167 $252 $329 $340 forward $253 $-1 #
vertex $-1 $256 $341 #
straight-curve $-1 -21.398783307026534 -19.874826506483462 4.0116056627892434 1 0 0 I I #
coedge $-1 $248 $169 $330 $342 reversed $96 $-1 #
vertex $-1 $256 $343 #
straight-curve $-1 -21.398783307026534 19.874826506483462 4.0116056627892434 -1 0 0 I I #
point $-1 -39.478003188737262 19.874826506483462 4.0116056627892434 #
point $-1 -39.478003188737262 -19.874826506483462 4.0116056627892434 #
loop $-1 $-1 $183 $175 #
plane-surface $-1 0 -19.874826506483462 0 0 1 0 0 0 1 forward_v I I I I #
coedge $-1 $268 $178 $344 $345 reversed $104 $-1 #
coedge $-1 $178 $267 $271 $346 reversed $104 $-1 #
edge $-1 $347 1.5072887603364246e-014 $272 11.738140296703778 $178 $348 forward 7 unknown #
coedge $-1 $180 $179 $275 $349 reversed $65 $-1 #
coedge $-1 $186 $181 $268 $346 forward $176 $-1 #
vertex $-1 $346 $350 #
straight-curve $-1 -14.176571807766303 -11.574708000467716 9.6293464670653055 -1 0 0 I I #
coedge $-1 $344 $183 $186 $279 reversed $265 $-1 #
coedge $-1 $183 $344 $270 $349 forward $265 $-1 #
vertex $-1 $184 $351 #
straight-curve $-1 -17.22828404232795 -19.874826506483458 33.274348885565644 0 0 1 I I #
straight-curve $-1 -17.22828404232795 -19.874826506483473 1.32922776844444 0 -0.70710677298230451 -0.70710678939079041 I I #
edge $-1 $352 -39.478003188737262 $187 -17.22828404232795 $274 $353 forward 7 unknown #
point $-1 -17.22828404232795 -19.874826506483462 9.6293464670653055 #
point $-1 -17.22828404232795 -11.574708000467716 9.6293464670653055 #
edge $-1 $354 1 $354 0 $190 $-1 forward 7 unknown #
vertex $-1 $191 $355 #
ellipse-curve $-1 -28.353143615532606 -12.828352793444219 2.582872724935104 0 -0.70710678939079041 0.70710677298230451 1.5 0 0 1 I I #
point $-1 -26.853143615532606 -15.724767253475587 5.4792871177548736 #
loop $-1 $-1 $202 $194 #
plane-surface $-1 0 19.874826506483462 0 0 -1 0 0 0 -1 forward_v I I I I #
coedge $-1 $289 $197 $199 $293 reversed $119 $-1 #
coedge $-1 $197 $288 $356 $357 reversed $119 $-1 #
coedge $-1 $205 $200 $197 $291 forward $195 $-1 #
edge $-1 $294 -9.1859813925799436 $358 -4.4811066232272019 $290 $359 forward 7 unknown #
coedge $-1 $199 $198 $297 $360 reversed $74 $-1 #
edge $-1 $361 -39.749653012966903 $294 -33.607875140507659 $288 $362 forward 7 unknown #
vertex $-1 $201 $363 #
straight-curve $-1 5.4324352674632159 15.169951737130718 9.6293464670653073 1 0 0 I I #
coedge $-1 $356 $202 $205 $301 reversed $286 $-1 #
coedge $-1 $202 $356 $292 $360 forward $286 $-1 #
vertex $-1 $203 $364 #
straight-curve $-1 5.0718456256179962 19.874826506483462 50.943807123926526 0 0 1 I I #
straight-curve $-1 5.0718456256179962 -10.575174036494509 31.232072460795138 0 0.76604443648966558 -0.64278761758704617 I I #
edge $-1 $358 -16.657895444234867 $206 -5.0718456256179962 $296 $365 forward 7 unknown #
point $-1 5.0718456256179962 19.874826506483462 9.6293464670653055 #
point $-1 5.0718456256179962 15.16995173713072 9.6293464670653037 #
edge $-1 $366 1 $366 0 $209 $-1 forward 7 unknown #
vertex $-1 $210 $367 #
ellipse-curve $-1 8.3821455737942472 15.33408246214735 5.0474948151473464 0 0.64278761758704617 0.76604443648966558 1.5 0 0 1 I I #
point $-1 9.8821455737942472 17.522389121807073 7.6554170838718303 #
edge $-1 $368 1 $368 0 $213 $-1 forward 7 unknown #
vertex $-1 $214 $369 #
ellipse-curve $-1 13.347595496058624 15.33408246214735 5.0474948151473464 0 0.64278761758704617 0.76604443648966558 1.5 0 0 1 I I #
point $-1 14.847595496058624 17.522389121807073 7.6554170838718303 #
plane-surface $-1 46.117130039368874 0 0 -1 0 0 0 0 1 forward_v I I I I #
coedge $-1 $222 $220 $224 $317 reversed $141 $-1 #
edge $-1 $235 -9.6293464670653055 $319 9.6293464670653055 $234 $370 forward 7 unknown #
vertex $-1 $317 $371 #
straight-curve $-1 -46.117130039368874 -19.874826506483462 0 0 0 -1 I I #
edge $-1 $315 -19.874826506483462 $319 19.874826506483462 $313 $372 forward 7 unknown #
straight-curve $-1 0 -19.874826506483462 -9.6293464670653055 -1 0 0 I I #
vertex $-1 $227 $373 #
straight-curve $-1 0 19.874826506483462 -9.6293464670653055 1 0 0 I I #
point $-1 46.117130039368874 19.874826506483462 -9.6293464670653055 #
point $-1 46.117130039368874 -19.874826506483462 -9.6293464670653055 #
straight-curve $-1 -46.117130039368874 0 9.6293464670653055 0 -1 0 I I #
point $-1 -46.117130039368874 19.874826506483462 9.6293464670653055 #
point $-1 -46.117130039368874 -19.874826506483462 9.6293464670653055 #
straight-curve $-1 46.117130039368874 -19.874826506483462 0 0 0 -1 I I #
straight-curve $-1 46.117130039368874 19.874826506483462 0 0 0 -1 I I #
plane-surface $-1 0 -19.874826506483462 0 0 1 0 0 0 1 forward_v I I I I #
coedge $-1 $374 $247 $257 $340 reversed $160 $-1 #
coedge $-1 $247 $374 $260 $342 forward $160 $-1 #
coedge $-1 $375 $250 $248 $332 forward $245 $-1 #
edge $-1 $333 39.478003188737262 $376 46.117130039368874 $248 $377 forward 7 unknown #
vertex $-1 $332 $378 #
straight-curve $-1 -39.478003188737262 19.874826506483462 3.4102380324636377 0 0 -1 I I #
coedge $-1 $250 $375 $252 $337 forward $245 $-1 #
straight-curve $-1 -39.478003188737262 0 9.6293464670653055 0 1 0 I I #
edge $-1 $379 -46.117130039368874 $254 -39.478003188737262 $252 $380 forward 7 unknown #
point $-1 -39.478003188737262 -19.874826506483462 9.6293464670653073 #
straight-curve $-1 -46.117130039368874 0 4.0116056627892434 0 -1 0 I I #
edge $-1 $379 -9.6293464670653055 $258 -4.0116056627892434 $329 $381 forward 7 unknown #
point $-1 -46.117130039368874 -19.874826506483462 4.0116056627892434 #
edge $-1 $376 -9.6293464670653055 $261 -4.0116056627892434 $260 $382 forward 7 unknown #
point $-1 -46.117130039368874 19.874826506483462 4.0116056627892434 #
coedge $-1 $275 $274 $267 $345 forward $265 $-1 #
edge $-1 $352 23.645002418500336 $347 31.945121117121193 $344 $383 forward 7 unknown #
edge $-1 $272 11.574708000467718 $352 19.874826506483462 $271 $384 forward 7 unknown #
vertex $-1 $345 $385 #
straight-curve $-1 -39.478003188737262 -19.874826506483473 1.32922776844444 0 0.70710677298230451 0.70710678939079041 I I #
edge $-1 $347 -25.301431380970961 $276 -3.0517122345616468 $275 $386 forward 7 unknown #
point $-1 -39.478003188737262 -11.574708000467718 9.6293464670653055 #
point $-1 -17.22828404232795 -19.874826506483462 1.3292277684444507 #
vertex $-1 $279 $387 #
straight-curve $-1 0 -19.874826506483462 9.6293464670653055 1 0 0 I I #
vertex $-1 $282 $388 #
point $-1 -26.853143615532606 -12.828352793444219 2.582872724935104 #
coedge $-1 $297 $296 $289 $357 forward $286 $-1 #
edge $-1 $358 41.314460656861222 $361 45.26231942324813 $356 $389 forward 7 unknown #
vertex $-1 $301 $390 #
straight-curve $-1 16.657895444234867 24.355933129710664 9.6293464670653037 0 1 0 I I #
edge $-1 $361 -11.225460176771652 $298 0.36058964184521969 $297 $391 forward 7 unknown #
vertex $-1 $360 $392 #
straight-curve $-1 16.657895444234867 -10.575174036494509 31.232072460795138 0 -0.76604443648966558 0.64278761758704617 I I #
point $-1 16.657895444234867 15.16995173713072 9.6293464670653037 #
point $-1 5.0718456256179962 19.874826506483458 5.6814877006783924 #
straight-curve $-1 0 19.874826506483462 9.6293464670653055 -1 0 0 I I #
vertex $-1 $304 $393 #
point $-1 9.8821455737942472 15.33408246214735 5.0474948151473464 #
vertex $-1 $308 $394 #
point $-1 14.847595496058624 15.33408246214735 5.0474948151473464 #
straight-curve $-1 -46.117130039368874 19.874826506483462 0 0 0 -1 I I #
point $-1 -46.117130039368874 -19.874826506483462 -9.6293464670653055 #
straight-curve $-1 -46.117130039368874 0 -9.6293464670653055 0 1 0 I I #
point $-1 -46.117130039368874 19.874826506483462 -9.6293464670653055 #
coedge $-1 $330 $329 $375 $395 reversed $160 $-1 #
coedge $-1 $335 $331 $374 $395 forward $245 $-1 #
vertex $-1 $332 $396 #
straight-curve $-1 0 19.874826506483462 9.6293464670653055 -1 0 0 I I #
point $-1 -39.478003188737262 19.874826506483462 9.6293464670653073 #
vertex $-1 $395 $397 #
straight-curve $-1 0 -19.874826506483462 9.6293464670653055 1 0 0 I I #
straight-curve $-1 -46.117130039368874 -19.874826506483462 0 0 0 -1 I I #
straight-curve $-1 -46.117130039368874 19.874826506483462 0 0 0 -1 I I #
straight-curve $-1 -39.478003188737262 -19.874826506483458 33.274348885565644 0 0 -1 I I #
straight-curve $-1 -39.478003188737262 0 9.6293464670653055 0 -1 0 I I #
point $-1 -39.478003188737262 -19.874826506483462 1.3292277684444507 #
straight-curve $-1 -14.176571807766303 -19.874826506483462 1.3292277684444498 1 0 0 I I #
point $-1 -39.478003188737262 -19.874826506483462 9.6293464670653073 #
point $-1 -28.353143615532606 -11.767692609358035 1.522212565461647 #
straight-curve $-1 16.657895444234867 19.874826506483462 50.943807123926526 0 0 -1 I I #
point $-1 16.657895444234867 19.874826506483462 9.6293464670653055 #
straight-curve $-1 5.4324352674632159 19.874826506483462 5.681487700678387 -1 0 0 I I #
point $-1 16.657895444234867 19.874826506483458 5.6814877006783924 #
point $-1 8.3821455737942472 14.36990103576678 3.8984281604128479 #
point $-1 13.347595496058624 14.36990103576678 3.8984281604128479 #
edge $-1 $376 -19.874826506483462 $379 19.874826506483462 $374 $398 forward 7 unknown #
point $-1 -46.117130039368874 19.874826506483462 9.6293464670653055 #
point $-1 -46.117130039368874 -19.874826506483462 9.6293464670653055 #
straight-curve $-1 -46.117130039368874 0 9.6293464670653055 0 -1 0 I I #
End-of-ACIS-data 