500 0 7 0           
7 Unknown 11 ACIS 5.0 NT 24 Thu Mar 25 16:20:53 1999 
-1 9.9999999999999995e-007 1e-010 
body $-1 $7 $-1 $8 #
body $-1 $9 $-1 $10 #
body $-1 $11 $-1 $12 #
body $-1 $13 $-1 $14 #
body $-1 $15 $-1 $16 #
body $-1 $17 $-1 $18 #
body $-1 $19 $-1 $20 #
lump $-1 $-1 $21 $0 #
transform $-1 1 0 0 0 1 0 0 0 1 59.54771568956572 34.826517958058396 15.751381374145623 1 rotate no_reflect no_shear #
lump $-1 $-1 $22 $1 #
transform $-1 1 0 0 0 1 0 0 0 1 59.54771568956572 34.826517958058396 15.751381374145623 1 rotate no_reflect no_shear #
lump $-1 $-1 $23 $2 #
transform $-1 1 0 0 0 1 0 0 0 1 59.54771568956572 34.826517958058396 15.751381374145623 1 rotate no_reflect no_shear #
lump $-1 $-1 $24 $3 #
transform $-1 1 0 0 0 1 0 0 0 1 59.54771568956572 34.826517958058396 15.751381374145623 1 rotate no_reflect no_shear #
lump $-1 $-1 $25 $4 #
transform $-1 1 0 0 0 1 0 0 0 1 59.54771568956572 34.826517958058396 15.751381374145623 1 rotate no_reflect no_shear #
lump $-1 $-1 $26 $5 #
transform $-1 1 0 0 0 1 0 0 0 1 59.54771568956572 34.826517958058396 15.751381374145623 1 rotate no_reflect no_shear #
lump $-1 $-1 $27 $6 #
transform $-1 1 0 0 0 1 0 0 0 1 59.54771568956572 34.826517958058396 15.751381374145623 1 rotate no_reflect no_shear #
shell $-1 $-1 $-1 $28 $-1 $7 #
shell $-1 $-1 $-1 $29 $-1 $9 #
shell $-1 $-1 $-1 $30 $-1 $11 #
shell $-1 $-1 $-1 $31 $-1 $13 #
shell $-1 $-1 $-1 $32 $-1 $15 #
shell $-1 $-1 $-1 $33 $-1 $17 #
shell $-1 $-1 $-1 $34 $-1 $19 #
face $-1 $35 $36 $21 $-1 $37 reversed single #
face $-1 $38 $39 $22 $-1 $40 forward single #
face $-1 $41 $42 $23 $-1 $43 reversed single #
face $-1 $44 $45 $24 $-1 $46 forward single #
face $-1 $47 $48 $25 $-1 $49 forward single #
face $-1 $50 $51 $26 $-1 $52 reversed single #
face $-1 $53 $54 $27 $-1 $55 forward single #
face $-1 $56 $57 $21 $-1 $58 forward single #
loop $-1 $-1 $59 $28 #
plane-surface $-1 0 -34.826517958058396 0 0 1 0 0 0 1 forward_v I I I I #
face $-1 $60 $61 $22 $-1 $62 reversed single #
loop $-1 $-1 $63 $29 #
plane-surface $-1 0 -34.826517958058396 0 0 1 0 0 0 1 forward_v I I I I #
face $-1 $64 $65 $23 $-1 $66 reversed single #
loop $-1 $-1 $67 $30 #
plane-surface $-1 -162.68738565976719 7.2138408775389635 71.799033666144439 0 1 0 -0.86602541151947299 0 0.49999998660252726 forward_v I I I I #
face $-1 $68 $69 $24 $-1 $70 forward single #
loop $-1 $71 $72 $31 #
cone-surface $-1 -57.672895290648007 10.0374842019257 13.502266041808289 0.86602541151947299 0 -0.49999998660252726 0.24999999330126363 0 0.43301270575973649 1 I I 0 1 0.5 forward I I I I #
face $-1 $73 $74 $25 $-1 $75 forward single #
loop $-1 $76 $77 $32 #
cone-surface $-1 -57.672895290648007 14.272949188505805 13.502266041808289 0.86602541151947299 0 -0.49999998660252726 0.24999999330126363 0 0.43301270575973649 1 I I 0 1 0.5 forward I I I I #
face $-1 $78 $79 $26 $-1 $80 reversed single #
loop $-1 $-1 $81 $33 #
plane-surface $-1 53.669721862195445 9.2226502530642591 176.2072381212613 0 -1 0 -0.68199836817093118 0 -0.7313536940579346 forward_v I I I I #
face $-1 $82 $83 $27 $-1 $84 forward single #
loop $-1 $85 $86 $34 #
cone-surface $-1 54.487163243699079 4.2299235656496847 10.91459722996429 -0.68199836817093118 0 -0.7313536940579346 0.7313536940579346 0 -0.68199836817093118 1 I I 0 1 1 forward I I I I #
face $-1 $87 $88 $21 $-1 $89 reversed single #
loop $-1 $-1 $90 $35 #
plane-surface $-1 0 0 15.751381374145623 0 0 1 1 0 0 forward_v I I I I #
coedge $-1 $91 $92 $93 $94 reversed $36 $-1 #
face $-1 $95 $96 $22 $-1 $97 reversed single #
loop $-1 $-1 $98 $38 #
plane-surface $-1 0 0 -15.751381374145623 0 0 1 1 0 0 forward_v I I I I #
coedge $-1 $99 $100 $101 $102 forward $39 $-1 #
face $-1 $103 $104 $23 $-1 $105 reversed single #
loop $-1 $-1 $106 $41 #
plane-surface $-1 -59.54771568956572 12.155216695215749 12.251319572156511 -0.86602541151947299 0 0.49999998660252726 0.49999998660252726 0 0.86602541151947299 forward_v I I I I #
coedge $-1 $107 $108 $109 $110 reversed $42 $-1 #
face $-1 $-1 $111 $24 $-1 $112 forward single #
loop $-1 $113 $114 $44 #
cone-surface $-1 -56.591949314532343 10.0374842019257 12.878181613814878 0.86602541151947299 0 -0.49999998660252726 0.12499999665063181 0 0.21650635287986825 1 I I -0.70710678118654746 0.70710678118654746 0.25 forward I I I I #
loop $-1 $-1 $115 $31 #
coedge $-1 $72 $72 $116 $117 reversed $45 $-1 #
face $-1 $-1 $118 $25 $-1 $119 forward single #
loop $-1 $120 $121 $47 #
cone-surface $-1 -56.591949314532343 14.272949188505805 12.878181613814878 0.86602541151947299 0 -0.49999998660252726 0.12499999665063181 0 0.21650635287986825 1 I I -0.70710678118654746 0.70710678118654746 0.25 forward I I I I #
loop $-1 $-1 $122 $32 #
coedge $-1 $77 $77 $123 $124 reversed $48 $-1 #
face $-1 $125 $126 $26 $-1 $127 reversed single #
loop $-1 $-1 $128 $50 #
plane-surface $-1 -27.553167994985316 4.2299235656496847 89.106354436710262 0.68199836817093118 0 0.7313536940579346 0.7313536940579346 0 -0.68199836817093118 forward_v I I I I #
coedge $-1 $129 $130 $131 $132 reversed $51 $-1 #
face $-1 $-1 $133 $27 $-1 $134 forward single #
loop $-1 $135 $136 $53 #
cone-surface $-1 53.304265411787142 4.2299235656496847 9.6460946360620525 -0.68199836817093118 0 -0.7313536940579346 0.3656768470289673 0 -0.34099918408546559 1 I I -0.70710678118654746 0.70710678118654746 0.5 forward I I I I #
loop $-1 $-1 $137 $34 #
coedge $-1 $86 $86 $138 $139 reversed $54 $-1 #
face $-1 $140 $141 $21 $-1 $142 reversed single #
loop $-1 $-1 $143 $56 #
plane-surface $-1 0 0 -15.751381374145623 0 0 1 1 0 0 forward_v I I I I #
coedge $-1 $144 $145 $146 $147 forward $57 $-1 #
coedge $-1 $148 $59 $149 $150 reversed $36 $-1 #
coedge $-1 $59 $148 $151 $152 forward $36 $-1 #
coedge $-1 $153 $143 $59 $94 forward $88 $-1 #
edge $-1 $154 -59.54771568956572 $155 59.54771568956572 $59 $156 forward 7 unknown #
face $-1 $157 $158 $22 $-1 $159 reversed single #
loop $-1 $-1 $160 $60 #
plane-surface $-1 -31.383196076818962 -53.406350758790616 0 0 1 0 0 0 1 forward_v I I I I #
coedge $-1 $161 $162 $100 $163 forward $61 $-1 #
coedge $-1 $164 $63 $165 $166 reversed $39 $-1 #
coedge $-1 $63 $164 $98 $163 reversed $39 $-1 #
coedge $-1 $167 $168 $63 $102 reversed $158 $-1 #
edge $-1 $169 -15.751381374145623 $170 15.751381374145623 $101 $171 forward 7 unknown #
face $-1 $172 $173 $23 $-1 $174 reversed single #
loop $-1 $-1 $175 $64 #
plane-surface $-1 -162.68738565976719 17.096592512892535 71.799033666144439 0 -1 0 0.86602541151947299 0 -0.49999998660252726 forward_v I I I I #
coedge $-1 $176 $177 $178 $179 reversed $65 $-1 #
coedge $-1 $108 $67 $180 $181 reversed $42 $-1 #
coedge $-1 $67 $107 $176 $182 reversed $42 $-1 #
coedge $-1 $178 $183 $67 $110 forward $184 $-1 #
edge $-1 $185 21.795977140317873 $186 23.816738691681685 $109 $187 forward 7 unknown #
loop $-1 $-1 $116 $68 #
plane-surface $-1 -59.54771568956572 12.155216695215749 12.251319572156511 -0.86602541151947299 0 0.49999998660252726 0.49999998660252726 0 0.86602541151947299 forward_v I I I I #
loop $-1 $-1 $188 $44 #
coedge $-1 $114 $114 $115 $189 reversed $69 $-1 #
coedge $-1 $115 $115 $114 $189 forward $71 $-1 #
coedge $-1 $116 $116 $72 $117 forward $111 $-1 #
edge $-1 $190 0 $190 6.2831853071796004 $116 $191 forward 7 unknown #
loop $-1 $-1 $123 $73 #
plane-surface $-1 -59.54771568956572 12.155216695215749 12.251319572156511 -0.86602541151947299 0 0.49999998660252726 0.49999998660252726 0 0.86602541151947299 forward_v I I I I #
loop $-1 $-1 $192 $47 #
coedge $-1 $121 $121 $122 $193 reversed $74 $-1 #
coedge $-1 $122 $122 $121 $193 forward $76 $-1 #
coedge $-1 $123 $123 $77 $124 forward $118 $-1 #
edge $-1 $194 0 $194 6.2831853071796004 $123 $195 forward 7 unknown #
face $-1 $196 $197 $26 $-1 $198 forward single #
loop $-1 $-1 $199 $78 #
plane-surface $-1 53.669721862195445 -0.76280312176488962 176.2072381212613 0 1 0 0.68199836817093118 0 0.7313536940579346 forward_v I I I I #
coedge $-1 $200 $201 $202 $203 reversed $79 $-1 #
coedge $-1 $130 $81 $204 $205 reversed $51 $-1 #
coedge $-1 $81 $129 $200 $206 reversed $51 $-1 #
coedge $-1 $202 $207 $81 $132 forward $197 $-1 #
edge $-1 $208 -32.712854758467998 $209 -24.27554716238771 $131 $210 forward 7 unknown #
loop $-1 $-1 $138 $82 #
plane-surface $-1 -27.553167994985316 4.2299235656496847 89.106354436710262 0.68199836817093118 0 0.7313536940579346 0.7313536940579346 0 -0.68199836817093118 forward_v I I I I #
loop $-1 $-1 $211 $53 #
coedge $-1 $136 $136 $137 $212 reversed $83 $-1 #
coedge $-1 $137 $137 $136 $212 forward $85 $-1 #
coedge $-1 $138 $138 $86 $139 forward $133 $-1 #
edge $-1 $213 0 $213 6.2831853071796004 $138 $214 forward 7 unknown #
face $-1 $215 $216 $21 $-1 $217 reversed single #
loop $-1 $-1 $218 $87 #
plane-surface $-1 -59.54771568956572 0 0 1 0 0 0 0 -1 forward_v I I I I #
coedge $-1 $93 $219 $220 $221 forward $88 $-1 #
coedge $-1 $222 $90 $223 $224 forward $57 $-1 #
coedge $-1 $90 $222 $148 $225 forward $57 $-1 #
coedge $-1 $149 $226 $90 $147 reversed $227 $-1 #
edge $-1 $228 -34.826517958058396 $229 34.826517958058396 $146 $230 forward 7 unknown #
coedge $-1 $92 $91 $145 $225 reversed $36 $-1 #
coedge $-1 $220 $146 $91 $150 forward $227 $-1 #
edge $-1 $228 -15.751381374145623 $154 15.751381374145623 $149 $231 forward 7 unknown #
coedge $-1 $232 $233 $92 $152 reversed $141 $-1 #
edge $-1 $234 -15.751381374145623 $155 15.751381374145623 $151 $235 forward 7 unknown #
coedge $-1 $219 $93 $233 $236 forward $88 $-1 #
vertex $-1 $150 $237 #
vertex $-1 $236 $238 #
straight-curve $-1 0 -34.826517958058396 -15.751381374145623 -1 0 0 I I #
face $-1 $239 $240 $22 $-1 $241 reversed single #
loop $-1 $-1 $101 $95 #
plane-surface $-1 -34.187217888200195 -44.116434358424506 0 1 0 0 0 0 -1 forward_v I I I I #
coedge $-1 $242 $243 $244 $245 forward $96 $-1 #
coedge $-1 $246 $98 $247 $248 forward $61 $-1 #
coedge $-1 $98 $246 $167 $249 forward $61 $-1 #
edge $-1 $169 -34.187217888200195 $250 -28.579174265437729 $98 $251 forward 7 unknown #
coedge $-1 $100 $99 $252 $253 forward $39 $-1 #
coedge $-1 $254 $255 $99 $166 forward $256 $-1 #
edge $-1 $257 28.579174265437729 $170 34.187217888200195 $165 $258 forward 7 unknown #
coedge $-1 $244 $101 $162 $249 reversed $158 $-1 #
coedge $-1 $101 $244 $254 $259 reversed $158 $-1 #
vertex $-1 $163 $260 #
vertex $-1 $259 $261 #
straight-curve $-1 -34.187217888200195 -34.826517958058396 0 0 0 1 I I #
face $-1 $-1 $184 $23 $-1 $262 forward single #
loop $-1 $-1 $263 $103 #
plane-surface $-1 -59.54771568956572 0 0 1 0 0 0 0 -1 forward_v I I I I #
coedge $-1 $264 $265 $266 $267 reversed $104 $-1 #
coedge $-1 $268 $106 $108 $182 forward $65 $-1 #
coedge $-1 $106 $268 $264 $269 forward $65 $-1 #
coedge $-1 $266 $109 $106 $179 forward $184 $-1 #
edge $-1 $186 1.1362325299310889 $270 11.01898416528466 $178 $271 forward 7 unknown #
coedge $-1 $272 $273 $107 $181 forward $173 $-1 #
edge $-1 $274 -23.648197260915708 $185 -20.148135458926596 $180 $275 forward 7 unknown #
edge $-1 $186 -4.0415232110200172 $274 0 $108 $276 forward 7 unknown #
coedge $-1 $109 $266 $272 $277 forward $184 $-1 #
loop $-1 $-1 $266 $172 #
vertex $-1 $181 $278 #
vertex $-1 $110 $279 #
straight-curve $-1 -81.343692829883594 7.2138408775389635 15.751381374145623 1 0 0 I I #
coedge $-1 $188 $188 $-1 $280 reversed $113 $-1 #
edge $-1 $281 0 $281 6.2831853071796004 $114 $282 forward 7 unknown #
vertex $-1 $117 $283 #
ellipse-curve $-1 -58.537334913883811 10.0374842019257 14.001350473151073 -0.86602541151947299 0 0.49999998660252726 0.24999999330126363 0 0.43301270575973649 1 I I #
coedge $-1 $192 $192 $-1 $284 reversed $120 $-1 #
edge $-1 $285 0 $285 6.2831853071796004 $121 $286 forward 7 unknown #
vertex $-1 $124 $287 #
ellipse-curve $-1 -58.537334913883811 14.272949188505805 14.001350473151073 -0.86602541151947299 0 0.49999998660252726 0.24999999330126363 0 0.43301270575973649 1 I I #
face $-1 $-1 $288 $26 $-1 $289 reversed single #
loop $-1 $-1 $131 $125 #
plane-surface $-1 0 0 15.751381374145623 0 0 1 1 0 0 forward_v I I I I #
coedge $-1 $290 $291 $292 $293 reversed $126 $-1 #
coedge $-1 $294 $128 $130 $206 forward $79 $-1 #
coedge $-1 $128 $294 $290 $295 forward $79 $-1 #
coedge $-1 $292 $131 $128 $203 forward $197 $-1 #
edge $-1 $209 -7.1076884702394167 $296 2.877764904589732 $202 $297 forward 7 unknown #
coedge $-1 $298 $299 $129 $205 forward $288 $-1 #
edge $-1 $300 -80.220154481101147 $208 -72.352237686485026 $204 $301 forward 7 unknown #
edge $-1 $209 107.55886888600219 $300 119.09543137913144 $130 $302 forward 7 unknown #
coedge $-1 $131 $292 $298 $303 forward $197 $-1 #
vertex $-1 $132 $304 #
vertex $-1 $132 $305 #
straight-curve $-1 26.834860931097722 9.2226502530642591 15.751381374145623 -1 0 0 I I #
coedge $-1 $211 $211 $-1 $306 reversed $135 $-1 #
edge $-1 $307 0 $307 6.2831853071796004 $136 $308 forward 7 unknown #
vertex $-1 $139 $309 #
ellipse-curve $-1 55.329061891525576 4.2299235656496847 11.81742297683758 0.68199836817093118 0 0.7313536940579346 0.7313536940579346 0 -0.68199836817093118 1 I I #
face $-1 $-1 $227 $21 $-1 $310 reversed single #
loop $-1 $-1 $311 $140 #
plane-surface $-1 0 34.826517958058396 0 0 -1 0 0 0 -1 forward_v I I I I #
coedge $-1 $233 $232 $312 $313 forward $141 $-1 #
coedge $-1 $143 $153 $314 $315 forward $88 $-1 #
coedge $-1 $226 $149 $143 $221 reversed $227 $-1 #
edge $-1 $316 -34.826517958058396 $154 34.826517958058396 $220 $317 forward 7 unknown #
coedge $-1 $145 $144 $232 $318 forward $57 $-1 #
coedge $-1 $311 $312 $144 $224 reversed $216 $-1 #
edge $-1 $229 -59.54771568956572 $319 59.54771568956572 $223 $320 forward 7 unknown #
edge $-1 $234 -59.54771568956572 $228 59.54771568956572 $148 $321 forward 7 unknown #
coedge $-1 $146 $220 $311 $322 reversed $227 $-1 #
loop $-1 $-1 $149 $215 #
vertex $-1 $147 $323 #
vertex $-1 $147 $324 #
straight-curve $-1 59.54771568956572 0 15.751381374145623 0 1 0 I I #
straight-curve $-1 59.54771568956572 -34.826517958058396 0 0 0 -1 I I #
coedge $-1 $218 $151 $222 $318 reversed $141 $-1 #
coedge $-1 $151 $218 $153 $236 reversed $141 $-1 #
vertex $-1 $318 $325 #
straight-curve $-1 -59.54771568956572 -34.826517958058396 0 0 0 -1 I I #
edge $-1 $155 -34.826517958058396 $326 34.826517958058396 $233 $327 forward 7 unknown #
point $-1 59.54771568956572 -34.826517958058396 -15.751381374145623 #
point $-1 -59.54771568956572 -34.826517958058396 -15.751381374145623 #
face $-1 $-1 $256 $22 $-1 $328 forward single #
loop $-1 $-1 $329 $157 #
plane-surface $-1 -28.579174265437729 -44.116434358424506 0 -1 0 0 0 0 1 forward_v I I I I #
coedge $-1 $330 $160 $246 $331 reversed $96 $-1 #
coedge $-1 $160 $330 $332 $333 reversed $96 $-1 #
coedge $-1 $168 $167 $160 $245 reversed $158 $-1 #
edge $-1 $334 -15.751381374145623 $335 15.751381374145623 $244 $336 forward 7 unknown #
coedge $-1 $162 $161 $242 $331 forward $61 $-1 #
coedge $-1 $252 $329 $161 $248 reversed $240 $-1 #
edge $-1 $250 -9.2899164003661099 $337 9.2899164003661099 $247 $338 forward 7 unknown #
edge $-1 $335 -9.2899164003661099 $169 9.2899164003661099 $167 $339 forward 7 unknown #
vertex $-1 $248 $340 #
straight-curve $-1 0 -34.826517958058396 -15.751381374145623 1 0 0 I I #
coedge $-1 $341 $247 $164 $253 reversed $240 $-1 #
edge $-1 $257 -15.751381374145623 $250 15.751381374145623 $252 $342 forward 7 unknown #
coedge $-1 $332 $165 $168 $259 forward $256 $-1 #
coedge $-1 $165 $332 $341 $343 forward $256 $-1 #
loop $-1 $-1 $165 $239 #
vertex $-1 $166 $344 #
straight-curve $-1 0 -34.826517958058396 15.751381374145623 -1 0 0 I I #
edge $-1 $170 -9.2899164003661099 $334 9.2899164003661099 $168 $345 forward 7 unknown #
point $-1 -34.187217888200195 -34.826517958058396 -15.751381374145623 #
point $-1 -34.187217888200195 -34.826517958058396 15.751381374145623 #
plane-surface $-1 0 0 15.751381374145623 0 0 1 1 0 0 forward_v I I I I #
coedge $-1 $273 $272 $265 $346 forward $173 $-1 #
coedge $-1 $265 $175 $177 $269 reversed $104 $-1 #
coedge $-1 $175 $264 $263 $346 reversed $104 $-1 #
coedge $-1 $183 $178 $175 $267 forward $184 $-1 #
edge $-1 $270 -23.816738691681685 $347 -21.795977140317873 $266 $348 forward 7 unknown #
coedge $-1 $177 $176 $273 $349 reversed $65 $-1 #
edge $-1 $350 0 $270 4.0415232110200172 $264 $351 forward 7 unknown #
vertex $-1 $179 $352 #
straight-curve $-1 -57.526954138201909 6.0776083476078746 15.751381374145625 0 1 0 I I #
coedge $-1 $263 $180 $183 $277 reversed $173 $-1 #
coedge $-1 $180 $263 $268 $349 forward $173 $-1 #
vertex $-1 $181 $353 #
straight-curve $-1 -59.54771568956572 7.2138408775389635 35.899516833072219 0 0 1 I I #
straight-curve $-1 -59.54771568956572 7.2138408775389635 12.251319572156511 -0.49999998660252726 0 -0.86602541151947299 I I #
edge $-1 $347 -17.096592512892535 $185 -7.2138408775389635 $272 $354 forward 7 unknown #
point $-1 -59.54771568956572 7.2138408775389635 15.751381374145623 #
point $-1 -57.526954138201909 7.2138408775389635 15.751381374145623 #
edge $-1 $355 1 $355 0 $188 $-1 forward 7 unknown #
vertex $-1 $189 $356 #
ellipse-curve $-1 -56.808455667412211 10.0374842019257 13.003181610465509 -0.86602541151947299 0 0.49999998660252726 0.24999999330126363 0 0.43301270575973649 1 I I #
point $-1 -58.287334920582545 10.0374842019257 14.434363178910806 #
edge $-1 $357 1 $357 0 $192 $-1 forward 7 unknown #
vertex $-1 $193 $358 #
ellipse-curve $-1 -56.808455667412211 14.272949188505805 13.003181610465509 -0.86602541151947299 0 0.49999998660252726 0.24999999330126363 0 0.43301270575973649 1 I I #
point $-1 -58.287334920582545 14.272949188505805 14.434363178910806 #
loop $-1 $-1 $204 $196 #
plane-surface $-1 59.54771568956572 0 0 -1 0 0 0 0 1 forward_v I I I I #
coedge $-1 $291 $199 $201 $295 reversed $126 $-1 #
coedge $-1 $199 $290 $359 $360 reversed $126 $-1 #
coedge $-1 $207 $202 $199 $293 forward $197 $-1 #
edge $-1 $296 24.27554716238771 $361 32.712854758467998 $292 $362 forward 7 unknown #
coedge $-1 $201 $200 $299 $363 reversed $79 $-1 #
edge $-1 $364 -119.09543137913144 $296 -107.55886888600219 $290 $365 forward 7 unknown #
vertex $-1 $203 $366 #
straight-curve $-1 51.110408093485447 2.1149617828248424 15.751381374145616 0 -1 0 I I #
coedge $-1 $359 $204 $207 $303 reversed $288 $-1 #
coedge $-1 $204 $359 $294 $363 forward $288 $-1 #
vertex $-1 $205 $367 #
straight-curve $-1 59.54771568956572 9.2226502530642591 88.103619060630649 0 0 1 I I #
straight-curve $-1 -27.553167994985316 9.2226502530642591 89.106354436710262 0.7313536940579346 0 -0.68199836817093118 I I #
edge $-1 $361 -0.76280312176488962 $208 9.2226502530642591 $298 $368 forward 7 unknown #
point $-1 59.54771568956572 9.2226502530642591 15.751381374145623 #
point $-1 51.110408093485432 9.2226502530642591 15.751381374145623 #
edge $-1 $369 1 $369 0 $211 $-1 forward 7 unknown #
vertex $-1 $212 $370 #
ellipse-curve $-1 53.645264595872611 4.2299235656496847 10.011771483091019 0.68199836817093118 0 0.7313536940579346 0.7313536940579346 0 -0.68199836817093118 1 I I #
point $-1 56.060415585583492 4.2299235656496847 11.135424608666629 #
plane-surface $-1 59.54771568956572 0 0 -1 0 0 0 0 1 forward_v I I I I #
coedge $-1 $314 $223 $226 $322 forward $216 $-1 #
coedge $-1 $223 $314 $218 $313 reversed $216 $-1 #
edge $-1 $319 -15.751381374145623 $326 15.751381374145623 $312 $371 forward 7 unknown #
coedge $-1 $312 $311 $219 $315 reversed $216 $-1 #
edge $-1 $326 -59.54771568956572 $316 59.54771568956572 $314 $372 forward 7 unknown #
vertex $-1 $221 $373 #
straight-curve $-1 59.54771568956572 0 -15.751381374145623 0 -1 0 I I #
edge $-1 $319 -34.826517958058396 $234 34.826517958058396 $232 $374 forward 7 unknown #
vertex $-1 $224 $375 #
straight-curve $-1 0 34.826517958058396 15.751381374145623 -1 0 0 I I #
straight-curve $-1 0 -34.826517958058396 15.751381374145623 1 0 0 I I #
edge $-1 $229 -15.751381374145623 $316 15.751381374145623 $226 $376 forward 7 unknown #
point $-1 59.54771568956572 -34.826517958058396 15.751381374145623 #
point $-1 59.54771568956572 34.826517958058396 15.751381374145623 #
point $-1 -59.54771568956572 -34.826517958058396 15.751381374145623 #
vertex $-1 $315 $377 #
straight-curve $-1 -59.54771568956572 0 -15.751381374145623 0 1 0 I I #
plane-surface $-1 0 0 15.751381374145623 0 0 1 1 0 0 forward_v I I I I #
coedge $-1 $247 $341 $330 $378 forward $240 $-1 #
coedge $-1 $243 $242 $329 $378 reversed $96 $-1 #
edge $-1 $337 -2.804021811381233 $335 2.804021811381233 $242 $379 forward 7 unknown #
coedge $-1 $255 $254 $243 $333 forward $256 $-1 #
edge $-1 $334 -2.804021811381233 $380 2.804021811381233 $243 $381 forward 7 unknown #
vertex $-1 $259 $382 #
vertex $-1 $249 $383 #
straight-curve $-1 -34.187217888200195 -53.406350758790616 0 0 0 -1 I I #
vertex $-1 $378 $384 #
straight-curve $-1 -28.579174265437729 -44.116434358424506 -15.751381374145623 0 -1 0 I I #
straight-curve $-1 -34.187217888200195 -44.116434358424506 -15.751381374145623 0 1 0 I I #
point $-1 -28.579174265437729 -34.826517958058396 -15.751381374145623 #
coedge $-1 $329 $252 $255 $343 reversed $240 $-1 #
straight-curve $-1 -28.579174265437729 -34.826517958058396 0 0 0 -1 I I #
edge $-1 $380 -9.2899164003661099 $257 9.2899164003661099 $341 $385 forward 7 unknown #
point $-1 -28.579174265437729 -34.826517958058396 15.751381374145623 #
straight-curve $-1 -34.187217888200195 -44.116434358424506 15.751381374145623 0 -1 0 I I #
edge $-1 $347 20.148135458926596 $350 23.648197260915708 $263 $386 forward 7 unknown #
vertex $-1 $277 $387 #
straight-curve $-1 -81.343692829883594 17.096592512892535 15.751381374145623 -1 0 0 I I #
edge $-1 $350 -11.01898416528466 $274 -1.1362325299310889 $273 $388 forward 7 unknown #
vertex $-1 $349 $389 #
straight-curve $-1 -59.54771568956572 17.096592512892535 12.251319572156511 0.49999998660252726 0 0.86602541151947299 I I #
point $-1 -57.526954138201909 17.096592512892535 15.751381374145623 #
point $-1 -59.54771568956572 7.2138408775389635 12.251319572156511 #
straight-curve $-1 -59.54771568956572 0 15.751381374145623 0 -1 0 I I #
vertex $-1 $280 $390 #
point $-1 -56.558455674110945 10.0374842019257 13.436194316225246 #
vertex $-1 $284 $391 #
point $-1 -56.558455674110945 14.272949188505805 13.436194316225246 #
coedge $-1 $299 $298 $291 $360 forward $288 $-1 #
edge $-1 $361 72.352237686485026 $364 80.220154481101147 $359 $392 forward 7 unknown #
vertex $-1 $303 $393 #
straight-curve $-1 26.834860931097722 -0.76280312176488962 15.751381374145623 1 0 0 I I #
edge $-1 $364 -2.877764904589732 $300 7.1076884702394167 $299 $394 forward 7 unknown #
vertex $-1 $363 $395 #
straight-curve $-1 -27.553167994985316 -0.76280312176488962 89.106354436710262 -0.7313536940579346 0 0.68199836817093118 I I #
point $-1 51.110408093485432 -0.76280312176488962 15.751381374145623 #
point $-1 59.54771568956572 9.2226502530642591 7.8834645795295017 #
straight-curve $-1 59.54771568956572 0 15.751381374145623 0 1 0 I I #
vertex $-1 $306 $396 #
point $-1 54.376618289930541 4.2299235656496847 9.3297731149200889 #
straight-curve $-1 -59.54771568956572 34.826517958058396 0 0 0 -1 I I #
straight-curve $-1 0 34.826517958058396 -15.751381374145623 1 0 0 I I #
point $-1 59.54771568956572 34.826517958058396 -15.751381374145623 #
straight-curve $-1 -59.54771568956572 0 15.751381374145623 0 -1 0 I I #
point $-1 -59.54771568956572 34.826517958058396 15.751381374145623 #
straight-curve $-1 59.54771568956572 34.826517958058396 0 0 0 -1 I I #
point $-1 -59.54771568956572 34.826517958058396 -15.751381374145623 #
edge $-1 $380 -15.751381374145623 $337 15.751381374145623 $329 $397 forward 7 unknown #
straight-curve $-1 -31.383196076818962 -53.406350758790616 -15.751381374145623 -1 0 0 I I #
vertex $-1 $343 $398 #
straight-curve $-1 -31.383196076818962 -53.406350758790616 15.751381374145623 1 0 0 I I #
point $-1 -34.187217888200195 -53.406350758790616 15.751381374145623 #
point $-1 -34.187217888200195 -53.406350758790616 -15.751381374145623 #
point $-1 -28.579174265437729 -53.406350758790616 -15.751381374145623 #
straight-curve $-1 -28.579174265437729 -44.116434358424506 15.751381374145623 0 1 0 I I #
straight-curve $-1 -59.54771568956572 17.096592512892535 35.899516833072219 0 0 -1 I I #
point $-1 -59.54771568956572 17.096592512892535 15.751381374145623 #
straight-curve $-1 -59.54771568956572 6.0776083476078746 12.251319572156518 0 -1 0 I I #
point $-1 -59.54771568956572 17.096592512892535 12.251319572156511 #
point $-1 -56.375442961652475 10.0374842019257 12.753181617164246 #
point $-1 -56.375442961652475 14.272949188505805 12.753181617164246 #
straight-curve $-1 59.54771568956572 -0.76280312176488962 88.103619060630649 0 0 -1 I I #
point $-1 59.54771568956572 -0.76280312176488962 15.751381374145623 #
straight-curve $-1 59.54771568956572 2.1149617828248424 7.883464579529516 0 1 0 I I #
point $-1 59.54771568956572 -0.76280312176488962 7.8834645795295017 #
point $-1 52.963266227701673 4.2299235656496847 9.2804177890330859 #
straight-curve $-1 -28.579174265437729 -53.406350758790616 0 0 0 -1 I I #
point $-1 -28.579174265437729 -53.406350758790616 15.751381374145623 #
End-of-ACIS-data 