500 0 12 0           
7 Unknown 11 ACIS 5.0 NT 24 Thu Mar 25 23:58:02 1999 
-1 9.9999999999999995e-007 1e-010 
body $-1 $12 $-1 $13 #
body $-1 $14 $-1 $15 #
body $-1 $16 $-1 $17 #
body $-1 $18 $-1 $19 #
body $-1 $20 $-1 $21 #
body $-1 $22 $-1 $23 #
body $-1 $24 $-1 $25 #
body $-1 $26 $-1 $27 #
body $-1 $28 $-1 $29 #
body $-1 $30 $-1 $31 #
body $-1 $32 $-1 $33 #
body $-1 $34 $-1 $35 #
lump $-1 $-1 $36 $0 #
transform $-1 1 0 0 0 1 0 0 0 1 54.092226935636461 28.454918255161356 11.848125330549623 1 rotate no_reflect no_shear #
lump $-1 $-1 $37 $1 #
transform $-1 1 0 0 0 1 0 0 0 1 54.092226935636461 28.454918255161356 11.848125330549623 1 rotate no_reflect no_shear #
lump $-1 $-1 $38 $2 #
transform $-1 1 0 0 0 1 0 0 0 1 54.092226935636461 28.454918255161356 11.848125330549623 1 rotate no_reflect no_shear #
lump $-1 $-1 $39 $3 #
transform $-1 1 0 0 0 1 0 0 0 1 54.092226935636461 28.454918255161356 11.848125330549623 1 rotate no_reflect no_shear #
lump $-1 $-1 $40 $4 #
transform $-1 1 0 0 0 1 0 0 0 1 54.092226935636461 28.454918255161356 11.848125330549623 1 rotate no_reflect no_shear #
lump $-1 $-1 $41 $5 #
transform $-1 1 0 0 0 1 0 0 0 1 54.092226935636461 28.454918255161356 11.848125330549623 1 rotate no_reflect no_shear #
lump $-1 $-1 $42 $6 #
transform $-1 1 0 0 0 1 0 0 0 1 54.092226935636461 28.454918255161356 11.848125330549623 1 rotate no_reflect no_shear #
lump $-1 $-1 $43 $7 #
transform $-1 1 0 0 0 1 0 0 0 1 54.092226935636461 28.454918255161356 11.848125330549623 1 rotate no_reflect no_shear #
lump $-1 $-1 $44 $8 #
transform $-1 1 0 0 0 1 0 0 0 1 54.092226935636461 28.454918255161356 11.848125330549623 1 rotate no_reflect no_shear #
lump $-1 $-1 $45 $9 #
transform $-1 1 0 0 0 1 0 0 0 1 54.092226935636461 28.454918255161356 11.848125330549623 1 rotate no_reflect no_shear #
lump $-1 $-1 $46 $10 #
transform $-1 1 0 0 0 1 0 0 0 1 54.092226935636461 28.454918255161356 11.848125330549623 1 rotate no_reflect no_shear #
lump $-1 $-1 $47 $11 #
transform $-1 1 0 0 0 1 0 0 0 1 54.092226935636461 28.454918255161356 11.848125330549623 1 rotate no_reflect no_shear #
shell $-1 $-1 $-1 $48 $-1 $12 #
shell $-1 $-1 $-1 $49 $-1 $14 #
shell $-1 $-1 $-1 $50 $-1 $16 #
shell $-1 $-1 $-1 $51 $-1 $18 #
shell $-1 $-1 $-1 $52 $-1 $20 #
shell $-1 $-1 $-1 $53 $-1 $22 #
shell $-1 $-1 $-1 $54 $-1 $24 #
shell $-1 $-1 $-1 $55 $-1 $26 #
shell $-1 $-1 $-1 $56 $-1 $28 #
shell $-1 $-1 $-1 $57 $-1 $30 #
shell $-1 $-1 $-1 $58 $-1 $32 #
shell $-1 $-1 $-1 $59 $-1 $34 #
face $-1 $60 $61 $36 $-1 $62 forward single #
face $-1 $63 $64 $37 $-1 $65 reversed single #
face $-1 $66 $67 $38 $-1 $68 forward single #
face $-1 $69 $70 $39 $-1 $71 forward single #
face $-1 $72 $73 $40 $-1 $74 reversed single #
face $-1 $75 $76 $41 $-1 $77 forward single #
face $-1 $78 $79 $42 $-1 $80 reversed single #
face $-1 $81 $82 $43 $-1 $83 forward single #
face $-1 $84 $85 $44 $-1 $86 reversed single #
face $-1 $87 $88 $45 $-1 $89 forward single #
face $-1 $90 $91 $46 $-1 $92 reversed single #
face $-1 $93 $94 $47 $-1 $95 forward single #
face $-1 $96 $97 $36 $-1 $98 reversed single #
loop $-1 $-1 $99 $48 #
plane-surface $-1 0 0 11.848125330549623 0 0 1 1 0 0 forward_v I I I I #
face $-1 $100 $101 $37 $-1 $102 reversed single #
loop $-1 $-1 $103 $49 #
plane-surface $-1 5.6549035646211259 -96.537601916364991 91.897386028393882 -1 0 0 0 -0.62932039886446345 0.77714595512881146 forward_v I I I I #
face $-1 $104 $105 $38 $-1 $106 forward single #
loop $-1 $107 $108 $50 #
cone-surface $-1 -14.016905223123139 -24.629405922003411 8.180738232851418 0 0.62932039886446345 -0.77714595512881146 1.5 0 0 1 I I 0 1 1.5 forward I I I I #
face $-1 $109 $110 $39 $-1 $111 forward single #
loop $-1 $112 $113 $51 #
cone-surface $-1 -2.2138199504765765 -24.629405922003411 8.180738232851418 0 0.62932039886446345 -0.77714595512881146 1.5 0 0 1 I I 0 1 1.5 forward I I I I #
face $-1 $114 $115 $40 $-1 $116 reversed single #
loop $-1 $-1 $117 $52 #
plane-surface $-1 -42.810975804272417 88.190718753792126 113.92932234342037 -1 0 0 0 0.83867057594974714 0.54463902268945019 forward_v I I I I #
face $-1 $118 $119 $41 $-1 $120 forward single #
loop $-1 $121 $122 $53 #
cone-surface $-1 -48.451601369954439 25.774832132452836 8.7866334003617137 0 -0.83867057594974714 -0.54463902268945019 1 0 0 1 I I 0 1 1 forward I I I I #
face $-1 $123 $124 $42 $-1 $125 reversed single #
loop $-1 $-1 $126 $54 #
plane-surface $-1 -15.764862336454186 88.190718753792126 113.92932234342037 -1 0 0 0 0.83867057594974714 0.54463902268945019 forward_v I I I I #
face $-1 $127 $128 $43 $-1 $129 forward single #
loop $-1 $130 $131 $55 #
cone-surface $-1 -21.405487902136208 25.774832132452836 8.7866334003617137 0 -0.83867057594974714 -0.54463902268945019 1 0 0 1 I I 0 1 1 forward I I I I #
face $-1 $132 $133 $44 $-1 $134 reversed single #
loop $-1 $-1 $135 $56 #
plane-surface $-1 11.281251131364044 88.190718753792126 113.92932234342037 -1 0 0 0 0.83867057594974714 0.54463902268945019 forward_v I I I I #
face $-1 $136 $137 $45 $-1 $138 forward single #
loop $-1 $139 $140 $57 #
cone-surface $-1 5.6406255656820221 25.774832132452836 8.7866334003617137 0 -0.83867057594974714 -0.54463902268945019 1 0 0 1 I I 0 1 1 forward I I I I #
face $-1 $141 $142 $46 $-1 $143 reversed single #
loop $-1 $-1 $144 $58 #
plane-surface $-1 38.327364599182282 88.190718753792126 113.92932234342037 -1 0 0 0 0.83867057594974714 0.54463902268945019 forward_v I I I I #
face $-1 $145 $146 $47 $-1 $147 forward single #
loop $-1 $148 $149 $59 #
cone-surface $-1 32.68673903350026 25.774832132452836 8.7866334003617137 0 -0.83867057594974714 -0.54463902268945019 1 0 0 1 I I 0 1 1 forward I I I I #
face $-1 $150 $151 $36 $-1 $152 reversed single #
loop $-1 $-1 $153 $60 #
plane-surface $-1 0 0 -11.848125330549623 0 0 1 1 0 0 forward_v I I I I #
coedge $-1 $154 $155 $156 $157 forward $61 $-1 #
face $-1 $158 $159 $37 $-1 $160 reversed single #
loop $-1 $-1 $161 $63 #
plane-surface $-1 -8.1153625867998613 -28.454918255161374 7.8222752945146397 0 -0.62932039886446345 0.77714595512881146 1 0 0 forward_v I I I I #
coedge $-1 $162 $163 $164 $165 reversed $64 $-1 #
face $-1 $-1 $166 $38 $-1 $167 forward single #
loop $-1 $168 $169 $66 #
cone-surface $-1 -14.016905223123139 -22.817658619657095 5.9434166868240919 0 0.62932039886446345 -0.77714595512881146 0.75 0 0 1 I I -0.70710678118654757 0.70710678118654757 0.75 forward I I I I #
loop $-1 $-1 $170 $50 #
coedge $-1 $108 $108 $171 $172 reversed $67 $-1 #
face $-1 $-1 $173 $39 $-1 $174 forward single #
loop $-1 $175 $176 $69 #
cone-surface $-1 -2.2138199504765765 -22.817658619657095 5.9434166868240919 0 0.62932039886446345 -0.77714595512881146 0.75 0 0 1 I I -0.70710678118654757 0.70710678118654757 0.75 forward I I I I #
loop $-1 $-1 $177 $51 #
coedge $-1 $113 $113 $178 $179 reversed $70 $-1 #
face $-1 $180 $181 $40 $-1 $182 reversed single #
loop $-1 $-1 $183 $72 #
plane-surface $-1 -48.451601369954439 -2.5403994832371808 55.007847116778379 0 0.83867057594974714 0.54463902268945019 1 0 0 forward_v I I I I #
coedge $-1 $184 $185 $186 $187 reversed $73 $-1 #
face $-1 $-1 $188 $41 $-1 $189 forward single #
loop $-1 $190 $191 $75 #
cone-surface $-1 -48.451601369954439 24.15894451773573 7.7372637473738575 0 -0.83867057594974714 -0.54463902268945019 0.5 0 0 1 I I -0.70710678118654746 0.70710678118654746 0.5 forward I I I I #
loop $-1 $-1 $192 $53 #
coedge $-1 $122 $122 $193 $194 reversed $76 $-1 #
face $-1 $195 $196 $42 $-1 $197 reversed single #
loop $-1 $-1 $198 $78 #
plane-surface $-1 -21.405487902136208 -2.5403994832371808 55.007847116778379 0 0.83867057594974714 0.54463902268945019 1 0 0 forward_v I I I I #
coedge $-1 $199 $200 $201 $202 reversed $79 $-1 #
face $-1 $-1 $203 $43 $-1 $204 forward single #
loop $-1 $205 $206 $81 #
cone-surface $-1 -21.405487902136208 24.15894451773573 7.7372637473738575 0 -0.83867057594974714 -0.54463902268945019 0.5 0 0 1 I I -0.70710678118654746 0.70710678118654746 0.5 forward I I I I #
loop $-1 $-1 $207 $55 #
coedge $-1 $131 $131 $208 $209 reversed $82 $-1 #
face $-1 $210 $211 $44 $-1 $212 reversed single #
loop $-1 $-1 $213 $84 #
plane-surface $-1 5.6406255656820221 -2.5403994832371808 55.007847116778379 0 0.83867057594974714 0.54463902268945019 1 0 0 forward_v I I I I #
coedge $-1 $214 $215 $216 $217 reversed $85 $-1 #
face $-1 $-1 $218 $45 $-1 $219 forward single #
loop $-1 $220 $221 $87 #
cone-surface $-1 5.6406255656820221 24.15894451773573 7.7372637473738575 0 -0.83867057594974714 -0.54463902268945019 0.5 0 0 1 I I -0.70710678118654746 0.70710678118654746 0.5 forward I I I I #
loop $-1 $-1 $222 $57 #
coedge $-1 $140 $140 $223 $224 reversed $88 $-1 #
face $-1 $225 $226 $46 $-1 $227 reversed single #
loop $-1 $-1 $228 $90 #
plane-surface $-1 32.68673903350026 -2.5403994832371808 55.007847116778379 0 0.83867057594974714 0.54463902268945019 1 0 0 forward_v I I I I #
coedge $-1 $229 $230 $231 $232 reversed $91 $-1 #
face $-1 $-1 $233 $47 $-1 $234 forward single #
loop $-1 $235 $236 $93 #
cone-surface $-1 32.68673903350026 24.15894451773573 7.7372637473738575 0 -0.83867057594974714 -0.54463902268945019 0.5 0 0 1 I I -0.70710678118654746 0.70710678118654746 0.5 forward I I I I #
loop $-1 $-1 $237 $59 #
coedge $-1 $149 $149 $238 $239 reversed $94 $-1 #
face $-1 $240 $241 $36 $-1 $242 reversed single #
loop $-1 $-1 $243 $96 #
plane-surface $-1 0 -28.454918255161356 0 0 1 0 0 0 1 forward_v I I I I #
coedge $-1 $244 $245 $246 $247 forward $97 $-1 #
coedge $-1 $248 $99 $249 $250 forward $61 $-1 #
coedge $-1 $99 $248 $251 $252 forward $61 $-1 #
coedge $-1 $253 $254 $99 $157 reversed $255 $-1 #
edge $-1 $256 -28.454918255161356 $257 28.454918255161356 $156 $258 forward 7 unknown #
face $-1 $259 $260 $37 $-1 $261 reversed single #
loop $-1 $-1 $262 $100 #
plane-surface $-1 -21.885628738220849 -96.537601916364991 91.897386028393882 1 0 0 0 0.62932039886446345 -0.77714595512881146 forward_v I I I I #
coedge $-1 $263 $264 $265 $266 reversed $101 $-1 #
coedge $-1 $163 $103 $267 $268 reversed $64 $-1 #
coedge $-1 $103 $162 $263 $269 reversed $64 $-1 #
coedge $-1 $265 $270 $103 $165 forward $271 $-1 #
edge $-1 $272 19.81388270302114 $273 24.785393362941093 $164 $274 forward 7 unknown #
loop $-1 $-1 $171 $104 #
plane-surface $-1 -8.1153625867998613 -28.454918255161374 7.8222752945146397 0 -0.62932039886446345 0.77714595512881146 1 0 0 forward_v I I I I #
loop $-1 $-1 $275 $66 #
coedge $-1 $169 $169 $170 $276 reversed $105 $-1 #
coedge $-1 $170 $170 $169 $276 forward $107 $-1 #
coedge $-1 $171 $171 $108 $172 forward $166 $-1 #
edge $-1 $277 3.5012125054442799e-016 $277 6.2831853071796004 $171 $278 forward 7 unknown #
loop $-1 $-1 $178 $109 #
plane-surface $-1 -8.1153625867998613 -28.454918255161374 7.8222752945146397 0 -0.62932039886446345 0.77714595512881146 1 0 0 forward_v I I I I #
loop $-1 $-1 $279 $69 #
coedge $-1 $176 $176 $177 $280 reversed $110 $-1 #
coedge $-1 $177 $177 $176 $280 forward $112 $-1 #
coedge $-1 $178 $178 $113 $179 forward $173 $-1 #
edge $-1 $281 3.5012125054442799e-016 $281 6.2831853071796004 $178 $282 forward 7 unknown #
face $-1 $283 $284 $40 $-1 $285 forward single #
loop $-1 $-1 $186 $114 #
plane-surface $-1 0 28.454918255161356 0 0 -1 0 0 0 -1 forward_v I I I I #
coedge $-1 $286 $287 $288 $289 reversed $115 $-1 #
coedge $-1 $185 $117 $290 $291 reversed $73 $-1 #
coedge $-1 $117 $184 $286 $292 reversed $73 $-1 #
coedge $-1 $288 $293 $117 $187 forward $181 $-1 #
edge $-1 $294 45.116535841160562 $295 49.685419418250078 $186 $296 forward 7 unknown #
loop $-1 $-1 $193 $118 #
plane-surface $-1 -48.451601369954439 -2.5403994832371808 55.007847116778379 0 0.83867057594974714 0.54463902268945019 1 0 0 forward_v I I I I #
loop $-1 $-1 $297 $75 #
coedge $-1 $191 $191 $192 $298 reversed $119 $-1 #
coedge $-1 $192 $192 $191 $298 forward $121 $-1 #
coedge $-1 $193 $193 $122 $194 forward $188 $-1 #
edge $-1 $299 -2.9089495570898117e-016 $299 6.2831853071796004 $193 $300 forward 7 unknown #
face $-1 $301 $302 $42 $-1 $303 forward single #
loop $-1 $-1 $304 $123 #
plane-surface $-1 -27.04611346781823 88.190718753792126 113.92932234342037 1 0 0 0 -0.83867057594974714 -0.54463902268945019 forward_v I I I I #
coedge $-1 $305 $306 $307 $308 reversed $124 $-1 #
coedge $-1 $200 $126 $309 $310 reversed $79 $-1 #
coedge $-1 $126 $199 $305 $311 reversed $79 $-1 #
coedge $-1 $307 $312 $126 $202 forward $313 $-1 #
edge $-1 $314 45.116535841160562 $315 49.685419418250078 $201 $316 forward 7 unknown #
loop $-1 $-1 $208 $127 #
plane-surface $-1 -21.405487902136208 -2.5403994832371808 55.007847116778379 0 0.83867057594974714 0.54463902268945019 1 0 0 forward_v I I I I #
loop $-1 $-1 $317 $81 #
coedge $-1 $206 $206 $207 $318 reversed $128 $-1 #
coedge $-1 $207 $207 $206 $318 forward $130 $-1 #
coedge $-1 $208 $208 $131 $209 forward $203 $-1 #
edge $-1 $319 -2.9089495570898117e-016 $319 6.2831853071796004 $208 $320 forward 7 unknown #
face $-1 $321 $322 $44 $-1 $323 forward single #
loop $-1 $-1 $324 $132 #
plane-surface $-1 -8.8817841970012523e-016 88.190718753792126 113.92932234342037 1 0 0 0 -0.83867057594974714 -0.54463902268945019 forward_v I I I I #
coedge $-1 $325 $326 $327 $328 reversed $133 $-1 #
coedge $-1 $215 $135 $329 $330 reversed $85 $-1 #
coedge $-1 $135 $214 $325 $331 reversed $85 $-1 #
coedge $-1 $327 $332 $135 $217 forward $333 $-1 #
edge $-1 $334 45.116535841160562 $335 49.685419418250078 $216 $336 forward 7 unknown #
loop $-1 $-1 $223 $136 #
plane-surface $-1 5.6406255656820221 -2.5403994832371808 55.007847116778379 0 0.83867057594974714 0.54463902268945019 1 0 0 forward_v I I I I #
loop $-1 $-1 $337 $87 #
coedge $-1 $221 $221 $222 $338 reversed $137 $-1 #
coedge $-1 $222 $222 $221 $338 forward $139 $-1 #
coedge $-1 $223 $223 $140 $224 forward $218 $-1 #
edge $-1 $339 -2.9089495570898117e-016 $339 6.2831853071796004 $223 $340 forward 7 unknown #
face $-1 $341 $342 $46 $-1 $343 forward single #
loop $-1 $-1 $344 $141 #
plane-surface $-1 27.046113467818238 88.190718753792126 113.92932234342037 1 0 0 0 -0.83867057594974714 -0.54463902268945019 forward_v I I I I #
coedge $-1 $345 $346 $347 $348 reversed $142 $-1 #
coedge $-1 $230 $144 $349 $350 reversed $91 $-1 #
coedge $-1 $144 $229 $345 $351 reversed $91 $-1 #
coedge $-1 $347 $352 $144 $232 forward $353 $-1 #
edge $-1 $354 45.116535841160562 $355 49.685419418250078 $231 $356 forward 7 unknown #
loop $-1 $-1 $238 $145 #
plane-surface $-1 32.68673903350026 -2.5403994832371808 55.007847116778379 0 0.83867057594974714 0.54463902268945019 1 0 0 forward_v I I I I #
loop $-1 $-1 $357 $93 #
coedge $-1 $236 $236 $237 $358 reversed $146 $-1 #
coedge $-1 $237 $237 $236 $358 forward $148 $-1 #
coedge $-1 $238 $238 $149 $239 forward $233 $-1 #
edge $-1 $359 -2.9089495570898117e-016 $359 6.2831853071796004 $238 $360 forward 7 unknown #
face $-1 $361 $362 $36 $-1 $363 reversed single #
loop $-1 $-1 $364 $150 #
plane-surface $-1 -54.092226935636461 0 0 1 0 0 0 0 -1 forward_v I I I I #
coedge $-1 $365 $251 $366 $367 forward $151 $-1 #
coedge $-1 $368 $153 $365 $369 forward $97 $-1 #
coedge $-1 $153 $368 $370 $371 forward $97 $-1 #
coedge $-1 $254 $253 $153 $247 reversed $255 $-1 #
edge $-1 $372 -28.454918255161356 $373 28.454918255161356 $246 $374 forward 7 unknown #
coedge $-1 $155 $154 $375 $376 forward $61 $-1 #
coedge $-1 $377 $378 $154 $250 reversed $362 $-1 #
edge $-1 $257 -54.092226935636461 $379 54.092226935636461 $249 $380 forward 7 unknown #
coedge $-1 $243 $381 $155 $252 reversed $151 $-1 #
edge $-1 $382 -54.092226935636461 $256 54.092226935636461 $251 $383 forward 7 unknown #
coedge $-1 $246 $156 $381 $384 forward $255 $-1 #
coedge $-1 $156 $246 $377 $385 reversed $255 $-1 #
loop $-1 $-1 $253 $361 #
vertex $-1 $157 $386 #
vertex $-1 $157 $387 #
straight-curve $-1 54.092226935636461 0 11.848125330549623 0 1 0 I I #
face $-1 $-1 $271 $37 $-1 $388 forward single #
loop $-1 $-1 $389 $158 #
plane-surface $-1 0 -28.454918255161356 0 0 1 0 0 0 1 forward_v I I I I #
coedge $-1 $390 $391 $392 $393 reversed $159 $-1 #
coedge $-1 $394 $161 $163 $269 forward $101 $-1 #
coedge $-1 $161 $394 $390 $395 forward $101 $-1 #
coedge $-1 $392 $164 $161 $266 forward $271 $-1 #
edge $-1 $273 -9.7125848580210565 $396 17.827947444820918 $265 $397 forward 7 unknown #
coedge $-1 $398 $399 $162 $268 forward $260 $-1 #
edge $-1 $400 -38.126417719682287 $272 -34.10056768364732 $267 $401 forward 7 unknown #
edge $-1 $273 -6.3971389506826242 $400 -2.274806608362891e-014 $163 $402 forward 7 unknown #
coedge $-1 $164 $392 $398 $403 forward $271 $-1 #
loop $-1 $-1 $392 $259 #
vertex $-1 $268 $404 #
vertex $-1 $165 $405 #
straight-curve $-1 5.6549035646211259 -48.268800958182496 11.848125330549621 0 1 0 I I #
coedge $-1 $275 $275 $-1 $406 reversed $168 $-1 #
edge $-1 $407 0 $407 6.2831853071796004 $169 $408 forward 7 unknown #
vertex $-1 $172 $409 #
ellipse-curve $-1 -14.016905223123139 -25.969162925201381 9.8352003125321374 0 -0.62932039886446345 0.77714595512881146 1.5 0 0 1 I I #
coedge $-1 $279 $279 $-1 $410 reversed $175 $-1 #
edge $-1 $411 0 $411 6.2831853071796004 $176 $412 forward 7 unknown #
vertex $-1 $179 $413 #
ellipse-curve $-1 -2.2138199504765765 -25.969162925201381 9.8352003125321374 0 -0.62932039886446345 0.77714595512881146 1.5 0 0 1 I I #
face $-1 $-1 $414 $40 $-1 $415 reversed single #
loop $-1 $-1 $290 $180 #
plane-surface $-1 0 0 11.848125330549623 0 0 1 1 0 0 forward_v I I I I #
coedge $-1 $416 $183 $185 $292 forward $115 $-1 #
coedge $-1 $183 $416 $417 $418 reversed $115 $-1 #
coedge $-1 $419 $186 $183 $289 forward $181 $-1 #
edge $-1 $295 18.585175119295197 $420 29.866426250659242 $288 $421 forward 7 unknown #
coedge $-1 $422 $423 $184 $291 forward $284 $-1 #
edge $-1 $424 -18.607508713667272 $294 -15.640441121734707 $290 $425 forward 7 unknown #
edge $-1 $295 -56.909836510322684 $424 -51.462067495753992 $185 $426 forward 7 unknown #
coedge $-1 $186 $419 $422 $427 reversed $181 $-1 #
vertex $-1 $427 $428 #
vertex $-1 $187 $429 #
straight-curve $-1 -42.810975804272417 28.454918255161356 56.964661171710183 0 0 -1 I I #
coedge $-1 $297 $297 $-1 $430 reversed $190 $-1 #
edge $-1 $431 0 $431 6.2831853071796004 $191 $432 forward 7 unknown #
vertex $-1 $194 $433 #
ellipse-curve $-1 -48.451601369954439 26.971384459195082 9.5636835420048527 0 0.83867057594974714 0.54463902268945019 1 0 0 1 I I #
face $-1 $-1 $313 $42 $-1 $434 reversed single #
loop $-1 $-1 $435 $195 #
plane-surface $-1 0 0 11.848125330549623 0 0 1 1 0 0 forward_v I I I I #
coedge $-1 $436 $437 $438 $439 reversed $196 $-1 #
coedge $-1 $440 $198 $200 $311 forward $124 $-1 #
coedge $-1 $198 $440 $436 $441 forward $124 $-1 #
coedge $-1 $438 $201 $198 $308 forward $313 $-1 #
edge $-1 $315 5.0621183853860821 $442 16.343369516750126 $307 $443 forward 7 unknown #
coedge $-1 $444 $445 $199 $310 forward $302 $-1 #
edge $-1 $446 -18.607508713667272 $314 -15.640441121734707 $309 $447 forward 7 unknown #
edge $-1 $315 -56.909836510322684 $446 -51.462067495753992 $200 $448 forward 7 unknown #
coedge $-1 $201 $438 $444 $449 reversed $313 $-1 #
loop $-1 $-1 $438 $301 #
vertex $-1 $449 $450 #
vertex $-1 $202 $451 #
straight-curve $-1 -15.764862336454186 28.454918255161356 56.964661171710183 0 0 -1 I I #
coedge $-1 $317 $317 $-1 $452 reversed $205 $-1 #
edge $-1 $453 0 $453 6.2831853071796004 $206 $454 forward 7 unknown #
vertex $-1 $209 $455 #
ellipse-curve $-1 -21.405487902136208 26.971384459195082 9.5636835420048527 0 0.83867057594974714 0.54463902268945019 1 0 0 1 I I #
face $-1 $-1 $333 $44 $-1 $456 reversed single #
loop $-1 $-1 $457 $210 #
plane-surface $-1 0 0 11.848125330549623 0 0 1 1 0 0 forward_v I I I I #
coedge $-1 $458 $459 $460 $461 reversed $211 $-1 #
coedge $-1 $462 $213 $215 $331 forward $133 $-1 #
coedge $-1 $213 $462 $458 $463 forward $133 $-1 #
coedge $-1 $460 $216 $213 $328 forward $333 $-1 #
edge $-1 $335 -8.4609383485230332 $464 2.8203127828410119 $327 $465 forward 7 unknown #
coedge $-1 $466 $467 $214 $330 forward $322 $-1 #
edge $-1 $468 -18.607508713667272 $334 -15.640441121734707 $329 $469 forward 7 unknown #
edge $-1 $335 -56.909836510322684 $468 -51.462067495753992 $215 $470 forward 7 unknown #
coedge $-1 $216 $460 $466 $471 reversed $333 $-1 #
loop $-1 $-1 $460 $321 #
vertex $-1 $471 $472 #
vertex $-1 $217 $473 #
straight-curve $-1 11.281251131364044 28.454918255161356 56.964661171710183 0 0 -1 I I #
coedge $-1 $337 $337 $-1 $474 reversed $220 $-1 #
edge $-1 $475 0 $475 6.2831853071796004 $221 $476 forward 7 unknown #
vertex $-1 $224 $477 #
ellipse-curve $-1 5.6406255656820221 26.971384459195082 9.5636835420048527 0 0.83867057594974714 0.54463902268945019 1 0 0 1 I I #
face $-1 $-1 $353 $46 $-1 $478 reversed single #
loop $-1 $-1 $479 $225 #
plane-surface $-1 0 0 11.848125330549623 0 0 1 1 0 0 forward_v I I I I #
coedge $-1 $480 $481 $482 $483 reversed $226 $-1 #
coedge $-1 $484 $228 $230 $351 forward $142 $-1 #
coedge $-1 $228 $484 $480 $485 forward $142 $-1 #
coedge $-1 $482 $231 $228 $348 forward $353 $-1 #
edge $-1 $355 -21.983995082432152 $486 -10.702743951068108 $347 $487 forward 7 unknown #
coedge $-1 $488 $489 $229 $350 forward $342 $-1 #
edge $-1 $490 -18.607508713667272 $354 -15.640441121734707 $349 $491 forward 7 unknown #
edge $-1 $355 -56.909836510322684 $490 -51.462067495753992 $230 $492 forward 7 unknown #
coedge $-1 $231 $482 $488 $493 reversed $353 $-1 #
loop $-1 $-1 $482 $341 #
vertex $-1 $493 $494 #
vertex $-1 $232 $495 #
straight-curve $-1 38.327364599182282 28.454918255161356 56.964661171710183 0 0 -1 I I #
coedge $-1 $357 $357 $-1 $496 reversed $235 $-1 #
edge $-1 $497 0 $497 6.2831853071796004 $236 $498 forward 7 unknown #
vertex $-1 $239 $499 #
ellipse-curve $-1 32.68673903350026 26.971384459195082 9.5636835420048527 0 0.83867057594974714 0.54463902268945019 1 0 0 1 I I #
face $-1 $-1 $255 $36 $-1 $500 reversed single #
loop $-1 $-1 $377 $240 #
plane-surface $-1 0 28.454918255161356 0 0 -1 0 0 0 -1 forward_v I I I I #
coedge $-1 $501 $375 $378 $502 forward $241 $-1 #
coedge $-1 $381 $243 $244 $369 reversed $151 $-1 #
coedge $-1 $375 $501 $243 $367 reversed $241 $-1 #
edge $-1 $382 -11.848125330549623 $503 11.848125330549623 $366 $504 forward 7 unknown #
coedge $-1 $245 $244 $501 $505 forward $97 $-1 #
edge $-1 $373 -54.092226935636461 $503 54.092226935636461 $365 $506 forward 7 unknown #
coedge $-1 $378 $377 $245 $371 reversed $362 $-1 #
edge $-1 $507 -54.092226935636461 $372 54.092226935636461 $370 $508 forward 7 unknown #
vertex $-1 $247 $509 #
vertex $-1 $384 $510 #
straight-curve $-1 54.092226935636461 0 -11.848125330549623 0 -1 0 I I #
coedge $-1 $364 $366 $248 $376 reversed $241 $-1 #
edge $-1 $379 -28.454918255161356 $382 28.454918255161356 $375 $511 forward 7 unknown #
coedge $-1 $370 $249 $254 $385 forward $362 $-1 #
coedge $-1 $249 $370 $364 $502 reversed $362 $-1 #
vertex $-1 $250 $512 #
straight-curve $-1 0 28.454918255161356 11.848125330549623 -1 0 0 I I #
coedge $-1 $251 $365 $253 $384 reversed $151 $-1 #
vertex $-1 $376 $513 #
straight-curve $-1 0 -28.454918255161356 11.848125330549623 1 0 0 I I #
edge $-1 $256 -11.848125330549623 $373 11.848125330549623 $253 $514 forward 7 unknown #
edge $-1 $257 -11.848125330549623 $372 11.848125330549623 $254 $515 forward 7 unknown #
point $-1 54.092226935636461 -28.454918255161356 11.848125330549623 #
point $-1 54.092226935636461 28.454918255161356 11.848125330549623 #
plane-surface $-1 0 0 11.848125330549623 0 0 1 1 0 0 forward_v I I I I #
coedge $-1 $399 $398 $391 $516 forward $260 $-1 #
coedge $-1 $391 $262 $264 $395 reversed $159 $-1 #
coedge $-1 $262 $390 $389 $516 reversed $159 $-1 #
coedge $-1 $270 $265 $262 $393 forward $271 $-1 #
edge $-1 $396 -24.785393362941093 $517 -19.81388270302114 $392 $518 forward 7 unknown #
coedge $-1 $264 $263 $399 $519 reversed $101 $-1 #
edge $-1 $520 2.274806608362891e-014 $396 6.3971389506826242 $390 $521 forward 7 unknown #
vertex $-1 $266 $522 #
straight-curve $-1 -4.0576812933999307 -23.483407595241403 11.848125330549623 -1 0 0 I I #
coedge $-1 $389 $267 $270 $403 reversed $260 $-1 #
coedge $-1 $267 $389 $394 $519 forward $260 $-1 #
vertex $-1 $268 $523 #
straight-curve $-1 5.6549035646211259 -28.454918255161353 45.948693014196941 0 0 1 I I #
straight-curve $-1 5.6549035646211259 -28.454918255161374 7.8222752945146397 0 -0.77714595512881146 -0.62932039886446345 I I #
edge $-1 $517 -21.885628738220849 $272 5.6549035646211259 $398 $524 forward 7 unknown #
point $-1 5.6549035646211259 -28.454918255161356 11.848125330549623 #
point $-1 5.6549035646211259 -23.483407595241403 11.848125330549623 #
edge $-1 $525 1 $525 0 $275 $-1 forward 7 unknown #
vertex $-1 $276 $526 #
ellipse-curve $-1 -14.016905223123139 -23.289648918805444 6.5262761531707003 0 -0.62932039886446345 0.77714595512881146 1.5 0 0 1 I I #
point $-1 -12.516905223123139 -25.969162925201378 9.8352003125321339 #
edge $-1 $527 1 $527 0 $279 $-1 forward 7 unknown #
vertex $-1 $280 $528 #
ellipse-curve $-1 -2.2138199504765765 -23.289648918805444 6.5262761531707003 0 -0.62932039886446345 0.77714595512881146 1.5 0 0 1 I I #
point $-1 -0.71381995047657654 -25.969162925201378 9.8352003125321339 #
loop $-1 $-1 $417 $283 #
plane-surface $-1 -54.092226935636461 0 0 1 0 0 0 0 -1 forward_v I I I I #
coedge $-1 $287 $286 $423 $529 reversed $115 $-1 #
coedge $-1 $530 $531 $287 $418 forward $414 $-1 #
edge $-1 $420 -33.151304752835067 $532 -27.703535738266368 $417 $533 forward 7 unknown #
coedge $-1 $293 $288 $531 $534 reversed $181 $-1 #
vertex $-1 $289 $535 #
straight-curve $-1 -24.225800684977219 28.454918255161356 7.2792417534601057 -1 0 0 I I #
coedge $-1 $536 $290 $293 $427 forward $284 $-1 #
coedge $-1 $290 $536 $416 $529 forward $284 $-1 #
vertex $-1 $291 $537 #
straight-curve $-1 -42.810975804272417 44.095359376896063 11.848125330549621 0 1 0 I I #
straight-curve $-1 -42.810975804272417 -2.5403994832371808 55.007847116778379 0 -0.54463902268945019 0.83867057594974714 I I #
edge $-1 $294 42.810975804272417 $538 54.092226935636461 $293 $539 forward 7 unknown #
point $-1 -42.810975804272417 28.454918255161356 11.848125330549623 #
point $-1 -42.810975804272417 28.454918255161356 7.2792417534601057 #
edge $-1 $540 1 $540 0 $297 $-1 forward 7 unknown #
vertex $-1 $298 $541 #
ellipse-curve $-1 -48.451601369954439 24.578279805710604 8.0095832587185818 0 0.83867057594974714 0.54463902268945019 1 0 0 1 I I #
point $-1 -47.451601369954439 26.971384459195068 9.5636835420048438 #
plane-surface $-1 0 28.454918255161356 0 0 -1 0 0 0 -1 forward_v I I I I #
coedge $-1 $445 $444 $437 $542 forward $302 $-1 #
coedge $-1 $437 $304 $306 $441 reversed $196 $-1 #
coedge $-1 $304 $436 $435 $542 reversed $196 $-1 #
coedge $-1 $312 $307 $304 $439 forward $313 $-1 #
edge $-1 $442 -49.685419418250078 $543 -45.116535841160562 $438 $544 forward 7 unknown #
coedge $-1 $306 $305 $445 $545 reversed $124 $-1 #
edge $-1 $546 51.462067495753992 $442 56.909836510322684 $436 $547 forward 7 unknown #
vertex $-1 $308 $548 #
straight-curve $-1 -10.702743951068104 28.454918255161356 7.2792417534601057 -1 0 0 I I #
coedge $-1 $435 $309 $312 $449 forward $302 $-1 #
coedge $-1 $309 $435 $440 $545 forward $302 $-1 #
vertex $-1 $310 $549 #
straight-curve $-1 -15.764862336454186 44.095359376896063 11.848125330549621 0 1 0 I I #
straight-curve $-1 -15.764862336454186 -2.5403994832371808 55.007847116778379 0 -0.54463902268945019 0.83867057594974714 I I #
edge $-1 $314 15.764862336454186 $543 27.04611346781823 $312 $550 forward 7 unknown #
point $-1 -15.764862336454186 28.454918255161356 11.848125330549623 #
point $-1 -15.764862336454186 28.454918255161356 7.2792417534601057 #
edge $-1 $551 1 $551 0 $317 $-1 forward 7 unknown #
vertex $-1 $318 $552 #
ellipse-curve $-1 -21.405487902136208 24.578279805710604 8.0095832587185818 0 0.83867057594974714 0.54463902268945019 1 0 0 1 I I #
point $-1 -20.405487902136208 26.971384459195068 9.5636835420048438 #
plane-surface $-1 0 28.454918255161356 0 0 -1 0 0 0 -1 forward_v I I I I #
coedge $-1 $467 $466 $459 $553 forward $322 $-1 #
coedge $-1 $459 $324 $326 $463 reversed $211 $-1 #
coedge $-1 $324 $458 $457 $553 reversed $211 $-1 #
coedge $-1 $332 $327 $324 $461 forward $333 $-1 #
edge $-1 $464 -49.685419418250078 $554 -45.116535841160562 $460 $555 forward 7 unknown #
coedge $-1 $326 $325 $467 $556 reversed $133 $-1 #
edge $-1 $557 51.462067495753992 $464 56.909836510322684 $458 $558 forward 7 unknown #
vertex $-1 $328 $559 #
straight-curve $-1 2.8203127828410111 28.454918255161356 7.2792417534601057 -1 0 0 I I #
coedge $-1 $457 $329 $332 $471 forward $322 $-1 #
coedge $-1 $329 $457 $462 $556 forward $322 $-1 #
vertex $-1 $330 $560 #
straight-curve $-1 11.281251131364044 44.095359376896063 11.848125330549621 0 1 0 I I #
straight-curve $-1 11.281251131364044 -2.5403994832371808 55.007847116778379 0 -0.54463902268945019 0.83867057594974714 I I #
edge $-1 $334 -11.281251131364044 $554 8.8817841970012523e-016 $332 $561 forward 7 unknown #
point $-1 11.281251131364044 28.454918255161356 11.848125330549623 #
point $-1 11.281251131364044 28.454918255161356 7.2792417534601057 #
edge $-1 $562 1 $562 0 $337 $-1 forward 7 unknown #
vertex $-1 $338 $563 #
ellipse-curve $-1 5.6406255656820221 24.578279805710604 8.0095832587185818 0 0.83867057594974714 0.54463902268945019 1 0 0 1 I I #
point $-1 6.6406255656820221 26.971384459195068 9.5636835420048438 #
plane-surface $-1 0 28.454918255161356 0 0 -1 0 0 0 -1 forward_v I I I I #
coedge $-1 $489 $488 $481 $564 forward $342 $-1 #
coedge $-1 $481 $344 $346 $485 reversed $226 $-1 #
coedge $-1 $344 $480 $479 $564 reversed $226 $-1 #
coedge $-1 $352 $347 $344 $483 forward $353 $-1 #
edge $-1 $486 -49.685419418250078 $565 -45.116535841160562 $482 $566 forward 7 unknown #
coedge $-1 $346 $345 $489 $567 reversed $142 $-1 #
edge $-1 $568 51.462067495753992 $486 56.909836510322684 $480 $569 forward 7 unknown #
vertex $-1 $348 $570 #
straight-curve $-1 16.34336951675013 28.454918255161356 7.2792417534601057 -1 0 0 I I #
coedge $-1 $479 $349 $352 $493 forward $342 $-1 #
coedge $-1 $349 $479 $484 $567 forward $342 $-1 #
vertex $-1 $350 $571 #
straight-curve $-1 38.327364599182282 44.095359376896063 11.848125330549621 0 1 0 I I #
straight-curve $-1 38.327364599182282 -2.5403994832371808 55.007847116778379 0 -0.54463902268945019 0.83867057594974714 I I #
edge $-1 $354 -38.327364599182282 $565 -27.046113467818238 $352 $572 forward 7 unknown #
point $-1 38.327364599182282 28.454918255161356 11.848125330549623 #
point $-1 38.327364599182282 28.454918255161356 7.2792417534601057 #
edge $-1 $573 1 $573 0 $357 $-1 forward 7 unknown #
vertex $-1 $358 $574 #
ellipse-curve $-1 32.68673903350026 24.578279805710604 8.0095832587185818 0 0.83867057594974714 0.54463902268945019 1 0 0 1 I I #
point $-1 33.68673903350026 26.971384459195068 9.5636835420048438 #
plane-surface $-1 54.092226935636461 0 0 -1 0 0 0 0 1 forward_v I I I I #
coedge $-1 $366 $364 $368 $505 reversed $241 $-1 #
edge $-1 $379 -11.848125330549623 $507 11.848125330549623 $378 $575 forward 7 unknown #
vertex $-1 $505 $576 #
straight-curve $-1 -54.092226935636461 -28.454918255161356 0 0 0 -1 I I #
edge $-1 $503 -28.454918255161356 $507 28.454918255161356 $501 $577 forward 7 unknown #
straight-curve $-1 0 -28.454918255161356 -11.848125330549623 -1 0 0 I I #
vertex $-1 $371 $578 #
straight-curve $-1 0 28.454918255161356 -11.848125330549623 1 0 0 I I #
point $-1 54.092226935636461 28.454918255161356 -11.848125330549623 #
point $-1 54.092226935636461 -28.454918255161356 -11.848125330549623 #
straight-curve $-1 -54.092226935636461 0 11.848125330549623 0 -1 0 I I #
point $-1 -54.092226935636461 28.454918255161356 11.848125330549623 #
point $-1 -54.092226935636461 -28.454918255161356 11.848125330549623 #
straight-curve $-1 54.092226935636461 -28.454918255161356 0 0 0 -1 I I #
straight-curve $-1 54.092226935636461 28.454918255161356 0 0 0 -1 I I #
edge $-1 $517 34.10056768364732 $520 38.126417719682287 $389 $579 forward 7 unknown #
vertex $-1 $403 $580 #
straight-curve $-1 -21.885628738220849 -48.268800958182496 11.848125330549621 0 -1 0 I I #
edge $-1 $520 -17.827947444820918 $400 9.7125848580210565 $399 $581 forward 7 unknown #
vertex $-1 $519 $582 #
straight-curve $-1 -21.885628738220849 -28.454918255161374 7.8222752945146397 0 0.77714595512881146 0.62932039886446345 I I #
point $-1 -21.885628738220849 -23.483407595241403 11.848125330549623 #
point $-1 5.6549035646211259 -28.454918255161356 7.8222752945146539 #
straight-curve $-1 0 -28.454918255161356 11.848125330549623 1 0 0 I I #
vertex $-1 $406 $583 #
point $-1 -12.516905223123139 -23.289648918805444 6.5262761531707003 #
vertex $-1 $410 $584 #
point $-1 -0.71381995047657654 -23.289648918805444 6.5262761531707003 #
edge $-1 $532 -29.866426250659242 $424 -18.585175119295197 $423 $585 forward 7 unknown #
coedge $-1 $531 $417 $536 $586 reversed $414 $-1 #
coedge $-1 $417 $530 $419 $534 forward $414 $-1 #
vertex $-1 $418 $587 #
straight-curve $-1 -54.092226935636461 10.399424033697143 35.082265604005876 0 -0.54463902268945019 0.83867057594974714 I I #
edge $-1 $538 -11.848125330549623 $420 -7.279241753460103 $419 $588 forward 7 unknown #
point $-1 -54.092226935636461 28.454918255161356 7.279241753460103 #
coedge $-1 $423 $422 $530 $586 forward $284 $-1 #
point $-1 -42.810975804272417 25.487850663228791 11.848125330549621 #
vertex $-1 $427 $589 #
straight-curve $-1 0 28.454918255161356 11.848125330549623 -1 0 0 I I #
vertex $-1 $430 $590 #
point $-1 -47.451601369954439 24.578279805710604 8.0095832587185818 #
edge $-1 $543 15.640441121734707 $546 18.607508713667272 $435 $591 forward 7 unknown #
vertex $-1 $542 $592 #
straight-curve $-1 -27.04611346781823 28.454918255161356 56.964661171710183 0 0 1 I I #
edge $-1 $546 -16.343369516750126 $446 -5.0621183853860821 $445 $593 forward 7 unknown #
vertex $-1 $545 $594 #
straight-curve $-1 -27.04611346781823 -2.5403994832371808 55.007847116778379 0 0.54463902268945019 -0.83867057594974714 I I #
point $-1 -27.04611346781823 28.454918255161356 7.2792417534601057 #
point $-1 -15.764862336454186 25.487850663228791 11.848125330549621 #
straight-curve $-1 0 28.454918255161356 11.848125330549623 -1 0 0 I I #
vertex $-1 $452 $595 #
point $-1 -20.405487902136208 24.578279805710604 8.0095832587185818 #
edge $-1 $554 15.640441121734707 $557 18.607508713667272 $457 $596 forward 7 unknown #
vertex $-1 $461 $597 #
straight-curve $-1 -8.8817841970012523e-016 28.454918255161356 56.964661171710183 0 0 1 I I #
edge $-1 $557 -2.8203127828410119 $468 8.4609383485230332 $467 $598 forward 7 unknown #
vertex $-1 $556 $599 #
straight-curve $-1 -8.8817841970012523e-016 -2.5403994832371808 55.007847116778379 0 0.54463902268945019 -0.83867057594974714 I I #
point $-1 -8.8817841970012523e-016 28.454918255161356 7.2792417534601057 #
point $-1 11.281251131364044 25.487850663228791 11.848125330549621 #
straight-curve $-1 0 28.454918255161356 11.848125330549623 -1 0 0 I I #
vertex $-1 $474 $600 #
point $-1 6.6406255656820221 24.578279805710604 8.0095832587185818 #
edge $-1 $565 15.640441121734707 $568 18.607508713667272 $479 $601 forward 7 unknown #
vertex $-1 $483 $602 #
straight-curve $-1 27.046113467818238 28.454918255161356 56.964661171710183 0 0 1 I I #
edge $-1 $568 10.702743951068108 $490 21.983995082432152 $489 $603 forward 7 unknown #
vertex $-1 $567 $604 #
straight-curve $-1 27.046113467818238 -2.5403994832371808 55.007847116778379 0 0.54463902268945019 -0.83867057594974714 I I #
point $-1 27.046113467818238 28.454918255161356 7.2792417534601057 #
point $-1 38.327364599182282 25.487850663228791 11.848125330549621 #
straight-curve $-1 0 28.454918255161356 11.848125330549623 -1 0 0 I I #
vertex $-1 $496 $605 #
point $-1 33.68673903350026 24.578279805710604 8.0095832587185818 #
straight-curve $-1 -54.092226935636461 28.454918255161356 0 0 0 -1 I I #
point $-1 -54.092226935636461 -28.454918255161356 -11.848125330549623 #
straight-curve $-1 -54.092226935636461 0 -11.848125330549623 0 1 0 I I #
point $-1 -54.092226935636461 28.454918255161356 -11.848125330549623 #
straight-curve $-1 -21.885628738220849 -28.454918255161353 45.948693014196941 0 0 -1 I I #
point $-1 -21.885628738220849 -28.454918255161356 11.848125330549623 #
straight-curve $-1 -4.0576812933999307 -28.454918255161356 7.8222752945146565 1 0 0 I I #
point $-1 -21.885628738220849 -28.454918255161356 7.8222752945146539 #
point $-1 -14.016905223123139 -22.345668320508747 5.3605572204774834 #
point $-1 -2.2138199504765765 -22.345668320508747 5.3605572204774834 #
straight-curve $-1 -24.225800684977219 25.487850663228791 11.848125330549617 1 0 0 I I #
edge $-1 $538 -28.454918255161356 $532 -25.487850663228791 $530 $606 forward 7 unknown #
point $-1 -54.092226935636461 25.487850663228791 11.848125330549621 #
straight-curve $-1 -54.092226935636461 28.454918255161356 0 0 0 -1 I I #
point $-1 -54.092226935636461 28.454918255161356 11.848125330549623 #
point $-1 -48.451601369954439 23.739609229760855 7.4649442360291323 #
straight-curve $-1 -27.04611346781823 44.095359376896063 11.848125330549621 0 -1 0 I I #
point $-1 -27.04611346781823 28.454918255161356 11.848125330549623 #
straight-curve $-1 -10.702743951068104 25.487850663228791 11.848125330549617 1 0 0 I I #
point $-1 -27.04611346781823 25.487850663228791 11.848125330549621 #
point $-1 -21.405487902136208 23.739609229760855 7.4649442360291323 #
straight-curve $-1 -8.8817841970012523e-016 44.095359376896063 11.848125330549621 0 -1 0 I I #
point $-1 -8.8817841970012523e-016 28.454918255161356 11.848125330549623 #
straight-curve $-1 2.8203127828410111 25.487850663228791 11.848125330549617 1 0 0 I I #
point $-1 -8.8817841970012523e-016 25.487850663228791 11.848125330549621 #
point $-1 5.6406255656820221 23.739609229760855 7.4649442360291323 #
straight-curve $-1 27.046113467818238 44.095359376896063 11.848125330549621 0 -1 0 I I #
point $-1 27.046113467818238 28.454918255161356 11.848125330549623 #
straight-curve $-1 16.34336951675013 25.487850663228791 11.848125330549617 1 0 0 I I #
point $-1 27.046113467818238 25.487850663228791 11.848125330549621 #
point $-1 32.68673903350026 23.739609229760855 7.4649442360291323 #
straight-curve $-1 -54.092226935636461 0 11.848125330549623 0 -1 0 I I #
End-of-ACIS-data 