500 0 8 0           
7 Unknown 11 ACIS 5.0 NT 24 Fri Mar 26 18:23:05 1999 
-1 9.9999999999999995e-007 1e-010 
body $-1 $8 $-1 $9 #
body $-1 $10 $-1 $11 #
body $-1 $12 $-1 $13 #
body $-1 $14 $-1 $15 #
body $-1 $16 $-1 $17 #
body $-1 $18 $-1 $19 #
body $-1 $20 $-1 $21 #
body $-1 $22 $-1 $23 #
lump $-1 $-1 $24 $0 #
transform $-1 1 0 0 0 1 0 0 0 1 77.834406567583244 35.470037207834814 17.038434572933742 1 rotate no_reflect no_shear #
lump $-1 $-1 $25 $1 #
transform $-1 1 0 0 0 1 0 0 0 1 77.834406567583244 35.470037207834814 17.038434572933742 1 rotate no_reflect no_shear #
lump $-1 $-1 $26 $2 #
transform $-1 1 0 0 0 1 0 0 0 1 77.834406567583244 35.470037207834814 17.038434572933742 1 rotate no_reflect no_shear #
lump $-1 $-1 $27 $3 #
transform $-1 1 0 0 0 1 0 0 0 1 77.834406567583244 35.470037207834814 17.038434572933742 1 rotate no_reflect no_shear #
lump $-1 $-1 $28 $4 #
transform $-1 1 0 0 0 1 0 0 0 1 77.834406567583244 35.470037207834814 17.038434572933742 1 rotate no_reflect no_shear #
lump $-1 $-1 $29 $5 #
transform $-1 1 0 0 0 1 0 0 0 1 77.834406567583244 35.470037207834814 17.038434572933742 1 rotate no_reflect no_shear #
lump $-1 $-1 $30 $6 #
transform $-1 1 0 0 0 1 0 0 0 1 77.834406567583244 35.470037207834814 17.038434572933742 1 rotate no_reflect no_shear #
lump $-1 $-1 $31 $7 #
transform $-1 1 0 0 0 1 0 0 0 1 77.834406567583244 35.470037207834814 17.038434572933742 1 rotate no_reflect no_shear #
shell $-1 $-1 $-1 $32 $-1 $8 #
shell $-1 $-1 $-1 $33 $-1 $10 #
shell $-1 $-1 $-1 $34 $-1 $12 #
shell $-1 $-1 $-1 $35 $-1 $14 #
shell $-1 $-1 $-1 $36 $-1 $16 #
shell $-1 $-1 $-1 $37 $-1 $18 #
shell $-1 $-1 $-1 $38 $-1 $20 #
shell $-1 $-1 $-1 $39 $-1 $22 #
face $-1 $40 $41 $24 $-1 $42 forward single #
face $-1 $43 $44 $25 $-1 $45 forward single #
face $-1 $46 $47 $26 $-1 $48 reversed single #
face $-1 $49 $50 $27 $-1 $51 forward single #
face $-1 $52 $53 $28 $-1 $54 forward single #
face $-1 $55 $56 $29 $-1 $57 reversed single #
face $-1 $58 $59 $30 $-1 $60 forward single #
face $-1 $61 $62 $31 $-1 $63 forward single #
face $-1 $64 $65 $24 $-1 $66 reversed single #
loop $-1 $-1 $67 $32 #
plane-surface $-1 0 0 17.038434572933742 0 0 1 1 0 0 forward_v I I I I #
face $-1 $68 $69 $25 $-1 $70 reversed single #
loop $-1 $-1 $71 $33 #
plane-surface $-1 0 -35.470037207834814 0 0 1 0 0 0 1 forward_v I I I I #
face $-1 $72 $73 $26 $-1 $74 reversed single #
loop $-1 $-1 $75 $34 #
plane-surface $-1 108.47322114235965 9.874060163164021 227.09694420583554 0 -1 0 -0.79863551827123203 0 -0.60181501223851219 forward_v I I I I #
face $-1 $76 $77 $27 $-1 $78 forward single #
loop $-1 $79 $80 $35 #
cone-surface $-1 74.142078633855007 2.4072412510327013 12.538684889128346 -0.79863551827123203 0 -0.60181501223851219 0.60181501223851219 0 -0.79863551827123203 1 I I 0 1 1 forward I I I I #
face $-1 $81 $82 $28 $-1 $83 forward single #
loop $-1 $84 $85 $36 #
cone-surface $-1 74.142078633855007 6.8873325983114952 12.538684889128346 -0.79863551827123203 0 -0.60181501223851219 0.60181501223851219 0 -0.79863551827123203 1 I I 0 1 1 forward I I I I #
face $-1 $86 $87 $29 $-1 $88 reversed single #
loop $-1 $-1 $89 $37 #
plane-surface $-1 -202.15704982445453 -0.57948631381983162 102.77430094896425 0 1 0 -0.79863551827123203 0 0.60181501223851219 forward_v I I I I #
face $-1 $90 $91 $30 $-1 $92 forward single #
loop $-1 $93 $94 $38 #
cone-surface $-1 -74.142078633854979 2.4072412510327013 12.538684889128339 0.79863551827123203 0 -0.60181501223851219 0.60181501223851219 0 0.79863551827123203 1 I I 0 1 1 forward I I I I #
face $-1 $95 $96 $31 $-1 $97 forward single #
loop $-1 $98 $99 $39 #
cone-surface $-1 -74.142078633854979 6.8873325983114952 12.538684889128339 0.79863551827123203 0 -0.60181501223851219 0.60181501223851219 0 0.79863551827123203 1 I I 0 1 1 forward I I I I #
face $-1 $100 $101 $24 $-1 $102 reversed single #
loop $-1 $-1 $103 $40 #
plane-surface $-1 0 0 -17.038434572933742 0 0 1 1 0 0 forward_v I I I I #
coedge $-1 $104 $105 $106 $107 forward $41 $-1 #
face $-1 $108 $109 $25 $-1 $110 reversed single #
loop $-1 $-1 $111 $43 #
plane-surface $-1 0 0 -17.038434572933742 0 0 1 1 0 0 forward_v I I I I #
coedge $-1 $112 $113 $114 $115 forward $44 $-1 #
face $-1 $116 $117 $26 $-1 $118 reversed single #
loop $-1 $-1 $119 $46 #
plane-surface $-1 -15.849422114511611 4.6472869246720947 133.41311552374066 0.79863551827123203 0 0.60181501223851219 0.60181501223851219 0 -0.79863551827123203 forward_v I I I I #
coedge $-1 $120 $121 $122 $123 reversed $47 $-1 #
face $-1 $-1 $124 $27 $-1 $125 forward single #
loop $-1 $126 $127 $49 #
cone-surface $-1 73.045042448748404 2.4072412510327013 11.712008852235879 -0.79863551827123203 0 -0.60181501223851219 0.3009075061192561 0 -0.39931775913561601 1 I I -0.70710678118654746 0.70710678118654746 0.5 forward I I I I #
loop $-1 $-1 $128 $35 #
coedge $-1 $80 $80 $129 $130 reversed $50 $-1 #
face $-1 $-1 $131 $28 $-1 $132 forward single #
loop $-1 $133 $134 $52 #
cone-surface $-1 73.045042448748404 6.8873325983114952 11.712008852235879 -0.79863551827123203 0 -0.60181501223851219 0.3009075061192561 0 -0.39931775913561601 1 I I -0.70710678118654746 0.70710678118654746 0.5 forward I I I I #
loop $-1 $-1 $135 $36 #
coedge $-1 $85 $85 $136 $137 reversed $53 $-1 #
face $-1 $138 $139 $29 $-1 $140 reversed single #
loop $-1 $-1 $141 $55 #
plane-surface $-1 -77.834406567583272 4.6472869246720947 9.0904722668693694 -0.79863551827123203 0 0.60181501223851219 0.60181501223851219 0 0.79863551827123203 forward_v I I I I #
coedge $-1 $142 $143 $144 $145 reversed $56 $-1 #
face $-1 $-1 $146 $30 $-1 $147 forward single #
loop $-1 $148 $149 $58 #
cone-surface $-1 -73.045042448748376 2.4072412510327013 11.712008852235872 0.79863551827123203 0 -0.60181501223851219 0.3009075061192561 0 0.39931775913561601 1 I I -0.70710678118654746 0.70710678118654746 0.5 forward I I I I #
loop $-1 $-1 $150 $38 #
coedge $-1 $94 $94 $151 $152 reversed $59 $-1 #
face $-1 $-1 $153 $31 $-1 $154 forward single #
loop $-1 $155 $156 $61 #
cone-surface $-1 -73.045042448748376 6.8873325983114952 11.712008852235872 0.79863551827123203 0 -0.60181501223851219 0.3009075061192561 0 0.39931775913561601 1 I I -0.70710678118654746 0.70710678118654746 0.5 forward I I I I #
loop $-1 $-1 $157 $39 #
coedge $-1 $99 $99 $158 $159 reversed $62 $-1 #
face $-1 $160 $161 $24 $-1 $162 reversed single #
loop $-1 $-1 $163 $64 #
plane-surface $-1 0 -35.470037207834814 0 0 1 0 0 0 1 forward_v I I I I #
coedge $-1 $164 $165 $166 $167 forward $65 $-1 #
coedge $-1 $168 $67 $169 $170 forward $41 $-1 #
coedge $-1 $67 $168 $171 $172 forward $41 $-1 #
coedge $-1 $173 $174 $67 $107 reversed $175 $-1 #
edge $-1 $176 -35.470037207834814 $177 35.470037207834814 $106 $178 forward 7 unknown #
face $-1 $179 $180 $25 $-1 $181 forward single #
loop $-1 $-1 $182 $68 #
plane-surface $-1 77.834406567583244 0 0 -1 0 0 0 0 1 forward_v I I I I #
coedge $-1 $183 $184 $185 $186 forward $69 $-1 #
coedge $-1 $185 $71 $182 $187 reversed $44 $-1 #
coedge $-1 $71 $185 $188 $189 reversed $44 $-1 #
coedge $-1 $190 $191 $71 $115 reversed $180 $-1 #
edge $-1 $192 -77.834406567583244 $193 77.834406567583244 $114 $194 forward 7 unknown #
face $-1 $195 $196 $26 $-1 $197 reversed single #
loop $-1 $-1 $198 $72 #
plane-surface $-1 108.47322114235965 -0.57948631381983162 227.09694420583554 0 1 0 0.79863551827123203 0 0.60181501223851219 forward_v I I I I #
coedge $-1 $199 $200 $201 $202 reversed $73 $-1 #
coedge $-1 $121 $75 $203 $204 reversed $47 $-1 #
coedge $-1 $75 $120 $199 $205 reversed $47 $-1 #
coedge $-1 $201 $206 $75 $123 forward $207 $-1 #
edge $-1 $208 -23.59779599640342 $209 -17.608576980888941 $122 $210 forward 7 unknown #
loop $-1 $-1 $129 $76 #
plane-surface $-1 -15.849422114511611 4.6472869246720947 133.41311552374066 0.79863551827123203 0 0.60181501223851219 0.60181501223851219 0 -0.79863551827123203 forward_v I I I I #
loop $-1 $-1 $211 $49 #
coedge $-1 $127 $127 $128 $212 reversed $77 $-1 #
coedge $-1 $128 $128 $127 $212 forward $79 $-1 #
coedge $-1 $129 $129 $80 $130 forward $124 $-1 #
edge $-1 $213 0 $213 6.2831853071796004 $129 $214 forward 7 unknown #
loop $-1 $-1 $136 $81 #
plane-surface $-1 -15.849422114511611 4.6472869246720947 133.41311552374066 0.79863551827123203 0 0.60181501223851219 0.60181501223851219 0 -0.79863551827123203 forward_v I I I I #
loop $-1 $-1 $215 $52 #
coedge $-1 $134 $134 $135 $216 reversed $82 $-1 #
coedge $-1 $135 $135 $134 $216 forward $84 $-1 #
coedge $-1 $136 $136 $85 $137 forward $131 $-1 #
edge $-1 $217 0 $217 6.2831853071796004 $136 $218 forward 7 unknown #
face $-1 $219 $220 $29 $-1 $221 forward single #
loop $-1 $-1 $222 $86 #
plane-surface $-1 -202.15704982445453 9.874060163164021 102.77430094896425 0 -1 0 0.79863551827123203 0 -0.60181501223851219 forward_v I I I I #
coedge $-1 $223 $224 $225 $226 reversed $87 $-1 #
coedge $-1 $143 $89 $227 $228 reversed $56 $-1 #
coedge $-1 $89 $142 $223 $229 reversed $56 $-1 #
coedge $-1 $225 $230 $89 $145 forward $220 $-1 #
edge $-1 $231 23.244118344644022 $232 29.233337360158515 $144 $233 forward 7 unknown #
loop $-1 $-1 $151 $90 #
plane-surface $-1 -77.834406567583272 4.6472869246720947 9.0904722668693694 -0.79863551827123203 0 0.60181501223851219 0.60181501223851219 0 0.79863551827123203 forward_v I I I I #
loop $-1 $-1 $234 $58 #
coedge $-1 $149 $149 $150 $235 reversed $91 $-1 #
coedge $-1 $150 $150 $149 $235 forward $93 $-1 #
coedge $-1 $151 $151 $94 $152 forward $146 $-1 #
edge $-1 $236 0 $236 6.2831853071796004 $151 $237 forward 7 unknown #
loop $-1 $-1 $158 $95 #
plane-surface $-1 -77.834406567583272 4.6472869246720947 9.0904722668693694 -0.79863551827123203 0 0.60181501223851219 0.60181501223851219 0 0.79863551827123203 forward_v I I I I #
loop $-1 $-1 $238 $61 #
coedge $-1 $156 $156 $157 $239 reversed $96 $-1 #
coedge $-1 $157 $157 $156 $239 forward $98 $-1 #
coedge $-1 $158 $158 $99 $159 forward $153 $-1 #
edge $-1 $240 0 $240 6.2831853071796004 $158 $241 forward 7 unknown #
face $-1 $242 $243 $24 $-1 $244 reversed single #
loop $-1 $-1 $245 $100 #
plane-surface $-1 -77.834406567583244 0 0 1 0 0 0 0 -1 forward_v I I I I #
coedge $-1 $246 $171 $247 $248 forward $101 $-1 #
coedge $-1 $249 $103 $246 $250 forward $65 $-1 #
coedge $-1 $103 $249 $251 $252 forward $65 $-1 #
coedge $-1 $174 $173 $103 $167 reversed $175 $-1 #
edge $-1 $253 -35.470037207834814 $254 35.470037207834814 $166 $255 forward 7 unknown #
coedge $-1 $105 $104 $256 $257 forward $41 $-1 #
coedge $-1 $258 $259 $104 $170 reversed $243 $-1 #
edge $-1 $177 -77.834406567583244 $260 77.834406567583244 $169 $261 forward 7 unknown #
coedge $-1 $163 $262 $105 $172 reversed $101 $-1 #
edge $-1 $263 -77.834406567583244 $176 77.834406567583244 $171 $264 forward 7 unknown #
coedge $-1 $166 $106 $262 $265 forward $175 $-1 #
coedge $-1 $106 $166 $258 $266 reversed $175 $-1 #
loop $-1 $-1 $173 $242 #
vertex $-1 $107 $267 #
vertex $-1 $107 $268 #
straight-curve $-1 77.834406567583244 0 17.038434572933742 0 1 0 I I #
face $-1 $269 $270 $25 $-1 $271 reversed single #
loop $-1 $-1 $191 $108 #
plane-surface $-1 0 -45.838205698777372 -10.353785633180561 0 0 1 1 0 0 forward_v I I I I #
coedge $-1 $272 $273 $112 $187 forward $109 $-1 #
coedge $-1 $274 $111 $273 $275 forward $69 $-1 #
coedge $-1 $111 $274 $276 $277 forward $69 $-1 #
coedge $-1 $113 $112 $111 $186 reversed $44 $-1 #
edge $-1 $278 -77.834406567583244 $279 77.834406567583244 $111 $280 forward 7 unknown #
edge $-1 $279 -17.038434572933742 $193 -10.353785633180561 $182 $281 forward 7 unknown #
coedge $-1 $276 $282 $113 $189 forward $283 $-1 #
edge $-1 $192 10.353785633180561 $278 17.038434572933742 $188 $284 forward 7 unknown #
coedge $-1 $285 $114 $282 $286 forward $180 $-1 #
coedge $-1 $114 $285 $272 $287 forward $180 $-1 #
vertex $-1 $189 $288 #
vertex $-1 $287 $289 #
straight-curve $-1 0 -35.470037207834814 -10.353785633180561 1 0 0 I I #
face $-1 $-1 $207 $26 $-1 $290 forward single #
loop $-1 $-1 $291 $116 #
plane-surface $-1 77.834406567583244 0 0 -1 0 0 0 0 1 forward_v I I I I #
coedge $-1 $292 $293 $294 $295 reversed $117 $-1 #
coedge $-1 $296 $119 $121 $205 forward $73 $-1 #
coedge $-1 $119 $296 $292 $297 forward $73 $-1 #
coedge $-1 $294 $122 $119 $202 forward $207 $-1 #
edge $-1 $209 -7.5504167008279737 $298 2.903129776155879 $201 $299 forward 7 unknown #
coedge $-1 $300 $301 $120 $204 forward $196 $-1 #
edge $-1 $302 -104.45799983604833 $208 -96.510037529984032 $203 $303 forward 7 unknown #
edge $-1 $209 145.71688622454158 $302 155.66881313516643 $121 $304 forward 7 unknown #
coedge $-1 $122 $294 $300 $305 forward $207 $-1 #
loop $-1 $-1 $294 $195 #
vertex $-1 $204 $306 #
vertex $-1 $123 $307 #
straight-curve $-1 54.236610571179824 9.874060163164021 17.038434572933738 -1 0 0 I I #
coedge $-1 $211 $211 $-1 $308 reversed $126 $-1 #
edge $-1 $309 0 $309 6.2831853071796004 $127 $310 forward 7 unknown #
vertex $-1 $130 $311 #
ellipse-curve $-1 74.839797059826012 2.4072412510327013 13.064453419901566 0.79863551827123203 0 0.60181501223851219 0.60181501223851219 0 -0.79863551827123203 1 I I #
coedge $-1 $215 $215 $-1 $312 reversed $133 $-1 #
edge $-1 $313 0 $313 6.2831853071796004 $134 $314 forward 7 unknown #
vertex $-1 $137 $315 #
ellipse-curve $-1 74.839797059826012 6.8873325983114952 13.064453419901566 0.79863551827123203 0 0.60181501223851219 0.60181501223851219 0 -0.79863551827123203 1 I I #
face $-1 $-1 $316 $29 $-1 $317 reversed single #
loop $-1 $-1 $144 $138 #
plane-surface $-1 0 0 17.038434572933742 0 0 1 1 0 0 forward_v I I I I #
coedge $-1 $318 $319 $320 $321 reversed $139 $-1 #
coedge $-1 $322 $141 $143 $229 forward $87 $-1 #
coedge $-1 $141 $322 $318 $323 forward $87 $-1 #
coedge $-1 $320 $144 $141 $226 forward $220 $-1 #
edge $-1 $232 -2.903129776155879 $324 7.5504167008279737 $225 $325 forward 7 unknown #
coedge $-1 $326 $327 $142 $228 forward $316 $-1 #
edge $-1 $328 -42.296678207612722 $231 -34.348715901548388 $227 $329 forward 7 unknown #
edge $-1 $232 -9.9519269106249393 $328 -4.6896506375148425e-014 $143 $330 forward 7 unknown #
coedge $-1 $144 $320 $326 $331 forward $220 $-1 #
vertex $-1 $228 $332 #
vertex $-1 $145 $333 #
straight-curve $-1 -101.07852491222727 -0.57948631381983162 17.038434572933738 1 0 0 I I #
coedge $-1 $234 $234 $-1 $334 reversed $148 $-1 #
edge $-1 $335 0 $335 6.2831853071796004 $149 $336 forward 7 unknown #
vertex $-1 $152 $337 #
ellipse-curve $-1 -74.839797059825997 2.4072412510327013 13.06445341990157 -0.79863551827123203 0 0.60181501223851219 0.60181501223851219 0 0.79863551827123203 1 I I #
coedge $-1 $238 $238 $-1 $338 reversed $155 $-1 #
edge $-1 $339 0 $339 6.2831853071796004 $156 $340 forward 7 unknown #
vertex $-1 $159 $341 #
ellipse-curve $-1 -74.839797059825997 6.8873325983114952 13.06445341990157 -0.79863551827123203 0 0.60181501223851219 0.60181501223851219 0 0.79863551827123203 1 I I #
face $-1 $-1 $175 $24 $-1 $342 reversed single #
loop $-1 $-1 $258 $160 #
plane-surface $-1 0 35.470037207834814 0 0 -1 0 0 0 -1 forward_v I I I I #
coedge $-1 $343 $256 $259 $344 forward $161 $-1 #
coedge $-1 $262 $163 $164 $250 reversed $101 $-1 #
coedge $-1 $256 $343 $163 $248 reversed $161 $-1 #
edge $-1 $263 -17.038434572933742 $345 17.038434572933742 $247 $346 forward 7 unknown #
coedge $-1 $165 $164 $343 $347 forward $65 $-1 #
edge $-1 $254 -77.834406567583244 $345 77.834406567583244 $246 $348 forward 7 unknown #
coedge $-1 $259 $258 $165 $252 reversed $243 $-1 #
edge $-1 $349 -77.834406567583244 $253 77.834406567583244 $251 $350 forward 7 unknown #
vertex $-1 $167 $351 #
vertex $-1 $265 $352 #
straight-curve $-1 77.834406567583244 0 -17.038434572933742 0 -1 0 I I #
coedge $-1 $245 $247 $168 $257 reversed $161 $-1 #
edge $-1 $260 -35.470037207834814 $263 35.470037207834814 $256 $353 forward 7 unknown #
coedge $-1 $251 $169 $174 $266 forward $243 $-1 #
coedge $-1 $169 $251 $245 $344 reversed $243 $-1 #
vertex $-1 $170 $354 #
straight-curve $-1 0 35.470037207834814 17.038434572933742 -1 0 0 I I #
coedge $-1 $171 $246 $173 $265 reversed $101 $-1 #
vertex $-1 $257 $355 #
straight-curve $-1 0 -35.470037207834814 17.038434572933742 1 0 0 I I #
edge $-1 $176 -17.038434572933742 $254 17.038434572933742 $173 $356 forward 7 unknown #
edge $-1 $177 -17.038434572933742 $253 17.038434572933742 $174 $357 forward 7 unknown #
point $-1 77.834406567583244 -35.470037207834814 17.038434572933742 #
point $-1 77.834406567583244 35.470037207834814 17.038434572933742 #
face $-1 $-1 $283 $25 $-1 $358 reversed single #
loop $-1 $-1 $359 $179 #
plane-surface $-1 0 -56.206374189719931 -13.696110103057151 0 1 0 0 0 1 forward_v I I I I #
coedge $-1 $360 $182 $191 $287 reversed $109 $-1 #
coedge $-1 $182 $360 $183 $275 reversed $109 $-1 #
coedge $-1 $184 $183 $361 $362 forward $69 $-1 #
edge $-1 $279 35.470037207834814 $363 56.206374189719931 $273 $364 forward 7 unknown #
coedge $-1 $365 $188 $184 $277 reversed $283 $-1 #
edge $-1 $366 -56.206374189719931 $278 -35.470037207834814 $276 $367 forward 7 unknown #
vertex $-1 $189 $368 #
vertex $-1 $275 $369 #
straight-curve $-1 0 -35.470037207834814 -17.038434572933742 1 0 0 I I #
straight-curve $-1 77.834406567583244 -35.470037207834814 0 0 0 1 I I #
coedge $-1 $188 $365 $190 $286 reversed $283 $-1 #
loop $-1 $-1 $188 $269 #
straight-curve $-1 -77.834406567583244 -35.470037207834814 0 0 0 -1 I I #
coedge $-1 $191 $190 $370 $371 forward $180 $-1 #
edge $-1 $192 -10.368168490942558 $372 10.368168490942558 $282 $373 forward 7 unknown #
edge $-1 $374 -10.368168490942558 $193 10.368168490942558 $272 $375 forward 7 unknown #
point $-1 -77.834406567583244 -35.470037207834814 -10.353785633180561 #
point $-1 77.834406567583244 -35.470037207834814 -10.353785633180561 #
plane-surface $-1 0 0 17.038434572933742 0 0 1 1 0 0 forward_v I I I I #
coedge $-1 $301 $300 $293 $376 forward $196 $-1 #
coedge $-1 $293 $198 $200 $297 reversed $117 $-1 #
coedge $-1 $198 $292 $291 $376 reversed $117 $-1 #
coedge $-1 $206 $201 $198 $295 forward $207 $-1 #
edge $-1 $298 17.608576980888941 $377 23.59779599640342 $294 $378 forward 7 unknown #
coedge $-1 $200 $199 $301 $379 reversed $73 $-1 #
edge $-1 $380 -155.66881313516643 $298 -145.71688622454158 $292 $381 forward 7 unknown #
vertex $-1 $202 $382 #
straight-curve $-1 71.845187552068765 2.3236434623360473 17.038434572933738 0 -1 0 I I #
coedge $-1 $291 $203 $206 $305 reversed $196 $-1 #
coedge $-1 $203 $291 $296 $379 forward $196 $-1 #
vertex $-1 $204 $383 #
straight-curve $-1 77.834406567583244 9.874060163164021 113.54847210291777 0 0 1 I I #
straight-curve $-1 -15.849422114511611 9.874060163164021 133.41311552374066 0.60181501223851219 0 -0.79863551827123203 I I #
edge $-1 $377 -0.57948631381983162 $208 9.874060163164021 $300 $384 forward 7 unknown #
point $-1 77.834406567583244 9.874060163164021 17.038434572933742 #
point $-1 71.845187552068765 9.874060163164021 17.038434572933738 #
edge $-1 $385 1 $385 0 $211 $-1 forward 7 unknown #
vertex $-1 $212 $386 #
ellipse-curve $-1 73.444360207884017 2.4072412510327013 12.012916358355135 0.79863551827123203 0 0.60181501223851219 0.60181501223851219 0 -0.79863551827123203 1 I I #
point $-1 75.441612072064515 2.4072412510327013 12.265817901630323 #
edge $-1 $387 1 $387 0 $215 $-1 forward 7 unknown #
vertex $-1 $216 $388 #
ellipse-curve $-1 73.444360207884017 6.8873325983114952 12.012916358355135 0.79863551827123203 0 0.60181501223851219 0.60181501223851219 0 -0.79863551827123203 1 I I #
point $-1 75.441612072064515 6.8873325983114952 12.265817901630323 #
loop $-1 $-1 $227 $219 #
plane-surface $-1 -77.834406567583244 0 0 1 0 0 0 0 -1 forward_v I I I I #
coedge $-1 $319 $222 $224 $323 reversed $139 $-1 #
coedge $-1 $222 $318 $389 $390 reversed $139 $-1 #
coedge $-1 $230 $225 $222 $321 forward $220 $-1 #
edge $-1 $324 -29.233337360158515 $391 -23.244118344644022 $320 $392 forward 7 unknown #
coedge $-1 $224 $223 $327 $393 reversed $87 $-1 #
edge $-1 $394 4.6896506375148425e-014 $324 9.9519269106249393 $318 $395 forward 7 unknown #
vertex $-1 $226 $396 #
straight-curve $-1 -71.845187552068737 2.3236434623360473 17.038434572933742 0 1 0 I I #
coedge $-1 $389 $227 $230 $331 reversed $316 $-1 #
coedge $-1 $227 $389 $322 $393 forward $316 $-1 #
vertex $-1 $228 $397 #
straight-curve $-1 -77.834406567583244 -0.57948631381983162 51.387150474482127 0 0 1 I I #
straight-curve $-1 -77.834406567583272 -0.57948631381983162 9.0904722668693694 -0.60181501223851219 0 -0.79863551827123203 I I #
edge $-1 $391 -9.874060163164021 $231 0.57948631381983162 $326 $398 forward 7 unknown #
point $-1 -77.834406567583244 -0.57948631381983162 17.038434572933742 #
point $-1 -71.845187552068751 -0.57948631381983162 17.038434572933742 #
edge $-1 $399 1 $399 0 $234 $-1 forward 7 unknown #
vertex $-1 $235 $400 #
ellipse-curve $-1 -73.444360207883989 2.4072412510327013 12.012916358355127 -0.79863551827123203 0 0.60181501223851219 0.60181501223851219 0 0.79863551827123203 1 I I #
point $-1 -74.237982047587465 2.4072412510327013 13.86308893817278 #
edge $-1 $401 1 $401 0 $238 $-1 forward 7 unknown #
vertex $-1 $239 $402 #
ellipse-curve $-1 -73.444360207883989 6.8873325983114952 12.012916358355127 -0.79863551827123203 0 0.60181501223851219 0.60181501223851219 0 0.79863551827123203 1 I I #
point $-1 -74.237982047587465 6.8873325983114952 13.86308893817278 #
plane-surface $-1 77.834406567583244 0 0 -1 0 0 0 0 1 forward_v I I I I #
coedge $-1 $247 $245 $249 $347 reversed $161 $-1 #
edge $-1 $260 -17.038434572933742 $349 17.038434572933742 $259 $403 forward 7 unknown #
vertex $-1 $347 $404 #
straight-curve $-1 -77.834406567583244 -35.470037207834814 0 0 0 -1 I I #
edge $-1 $345 -35.470037207834814 $349 35.470037207834814 $343 $405 forward 7 unknown #
straight-curve $-1 0 -35.470037207834814 -17.038434572933742 -1 0 0 I I #
vertex $-1 $252 $406 #
straight-curve $-1 0 35.470037207834814 -17.038434572933742 1 0 0 I I #
point $-1 77.834406567583244 35.470037207834814 -17.038434572933742 #
point $-1 77.834406567583244 -35.470037207834814 -17.038434572933742 #
straight-curve $-1 -77.834406567583244 0 17.038434572933742 0 -1 0 I I #
point $-1 -77.834406567583244 35.470037207834814 17.038434572933742 #
point $-1 -77.834406567583244 -35.470037207834814 17.038434572933742 #
straight-curve $-1 77.834406567583244 -35.470037207834814 0 0 0 -1 I I #
straight-curve $-1 77.834406567583244 35.470037207834814 0 0 0 -1 I I #
plane-surface $-1 -77.834406567583244 0 0 1 0 0 0 0 -1 forward_v I I I I #
coedge $-1 $361 $370 $365 $407 forward $270 $-1 #
coedge $-1 $273 $272 $408 $409 forward $109 $-1 #
coedge $-1 $408 $359 $274 $362 reversed $270 $-1 #
edge $-1 $363 -77.834406567583244 $366 77.834406567583244 $361 $410 forward 7 unknown #
vertex $-1 $409 $411 #
straight-curve $-1 77.834406567583244 0 -17.038434572933742 0 -1 0 I I #
coedge $-1 $282 $276 $359 $407 reversed $283 $-1 #
vertex $-1 $277 $412 #
straight-curve $-1 -77.834406567583244 0 -17.038434572933742 0 1 0 I I #
point $-1 -77.834406567583244 -35.470037207834814 -17.038434572933742 #
point $-1 77.834406567583244 -35.470037207834814 -17.038434572933742 #
coedge $-1 $359 $408 $285 $371 reversed $270 $-1 #
edge $-1 $372 -77.834406567583244 $374 77.834406567583244 $370 $413 forward 7 unknown #
vertex $-1 $286 $414 #
straight-curve $-1 -77.834406567583244 -45.838205698777372 -10.353785633180561 0 -1 0 I I #
vertex $-1 $287 $415 #
straight-curve $-1 77.834406567583244 -45.838205698777372 -10.353785633180561 0 1 0 I I #
edge $-1 $377 96.510037529984032 $380 104.45799983604833 $291 $416 forward 7 unknown #
vertex $-1 $305 $417 #
straight-curve $-1 54.236610571179824 -0.57948631381983162 17.038434572933738 1 0 0 I I #
edge $-1 $380 -2.903129776155879 $302 7.5504167008279737 $301 $418 forward 7 unknown #
vertex $-1 $379 $419 #
straight-curve $-1 -15.849422114511611 -0.57948631381983162 133.41311552374066 -0.60181501223851219 0 0.79863551827123203 I I #
point $-1 71.845187552068765 -0.57948631381983162 17.038434572933738 #
point $-1 77.834406567583244 9.874060163164021 9.0904722668694404 #
straight-curve $-1 77.834406567583244 0 17.038434572933742 0 1 0 I I #
vertex $-1 $308 $420 #
point $-1 74.046175220122535 2.4072412510327013 11.214280840083903 #
vertex $-1 $312 $421 #
point $-1 74.046175220122535 6.8873325983114952 11.214280840083903 #
coedge $-1 $327 $326 $319 $390 forward $316 $-1 #
edge $-1 $391 34.348715901548388 $394 42.296678207612722 $389 $422 forward 7 unknown #
vertex $-1 $331 $423 #
straight-curve $-1 -101.07852491222727 9.874060163164021 17.038434572933738 -1 0 0 I I #
edge $-1 $394 -7.5504167008279737 $328 2.903129776155879 $327 $424 forward 7 unknown #
vertex $-1 $393 $425 #
straight-curve $-1 -77.834406567583272 9.874060163164021 9.0904722668693694 0.60181501223851219 0 0.79863551827123203 I I #
point $-1 -71.845187552068751 9.874060163164021 17.038434572933742 #
point $-1 -77.834406567583244 -0.57948631381983162 9.0904722668694067 #
straight-curve $-1 -77.834406567583244 0 17.038434572933742 0 -1 0 I I #
vertex $-1 $334 $426 #
point $-1 -72.842545195645485 2.4072412510327013 12.811551876626361 #
vertex $-1 $338 $427 #
point $-1 -72.842545195645485 6.8873325983114952 12.811551876626361 #
straight-curve $-1 -77.834406567583244 35.470037207834814 0 0 0 -1 I I #
point $-1 -77.834406567583244 -35.470037207834814 -17.038434572933742 #
straight-curve $-1 -77.834406567583244 0 -17.038434572933742 0 1 0 I I #
point $-1 -77.834406567583244 35.470037207834814 -17.038434572933742 #
edge $-1 $372 -3.3423244698765906 $366 3.3423244698765906 $365 $428 forward 7 unknown #
coedge $-1 $370 $361 $360 $409 reversed $270 $-1 #
edge $-1 $374 -3.3423244698765906 $363 3.3423244698765906 $360 $429 forward 7 unknown #
straight-curve $-1 0 -56.206374189719931 -17.038434572933742 -1 0 0 I I #
point $-1 77.834406567583244 -56.206374189719931 -17.038434572933742 #
point $-1 -77.834406567583244 -56.206374189719931 -17.038434572933742 #
straight-curve $-1 0 -56.206374189719931 -10.353785633180561 1 0 0 I I #
point $-1 -77.834406567583244 -56.206374189719931 -10.353785633180561 #
point $-1 77.834406567583244 -56.206374189719931 -10.353785633180561 #
straight-curve $-1 77.834406567583244 -0.57948631381983162 113.54847210291777 0 0 -1 I I #
point $-1 77.834406567583244 -0.57948631381983162 17.038434572933742 #
straight-curve $-1 77.834406567583244 2.3236434623360473 9.0904722668694404 0 1 0 I I #
point $-1 77.834406567583244 -0.57948631381983162 9.0904722668694404 #
point $-1 72.645724689612791 2.4072412510327013 11.411101346116624 #
point $-1 72.645724689612791 6.8873325983114952 11.411101346116624 #
straight-curve $-1 -77.834406567583244 9.874060163164021 51.387150474482127 0 0 -1 I I #
point $-1 -77.834406567583244 9.874060163164021 17.038434572933742 #
straight-curve $-1 -77.834406567583244 2.3236434623360473 9.0904722668694102 0 -1 0 I I #
point $-1 -77.834406567583244 9.874060163164021 9.0904722668694067 #
point $-1 -72.645724689612763 2.4072412510327013 11.411101346116617 #
point $-1 -72.645724689612763 6.8873325983114952 11.411101346116617 #
straight-curve $-1 -77.834406567583244 -56.206374189719931 -13.696110103057151 0 0 -1 I I #
straight-curve $-1 77.834406567583244 -56.206374189719931 -13.696110103057151 0 0 -1 I I #
End-of-ACIS-data 