500 0 7 0           
7 Unknown 11 ACIS 5.0 NT 24 Fri Mar 26 19:09:14 1999 
-1 9.9999999999999995e-007 1e-010 
body $-1 $7 $-1 $8 #
body $-1 $9 $-1 $10 #
body $-1 $11 $-1 $12 #
body $-1 $13 $-1 $14 #
body $-1 $15 $-1 $16 #
body $-1 $17 $-1 $18 #
body $-1 $19 $-1 $20 #
lump $-1 $-1 $21 $0 #
transform $-1 1 0 0 0 1 0 0 0 1 42.783288064210943 19.859164854855056 9.1919320613627651 1 rotate no_reflect no_shear #
lump $-1 $-1 $22 $1 #
transform $-1 1 0 0 0 1 0 0 0 1 42.783288064210943 19.859164854855056 9.1919320613627651 1 rotate no_reflect no_shear #
lump $-1 $-1 $23 $2 #
transform $-1 1 0 0 0 1 0 0 0 1 42.783288064210943 19.859164854855056 9.1919320613627651 1 rotate no_reflect no_shear #
lump $-1 $-1 $24 $3 #
transform $-1 1 0 0 0 1 0 0 0 1 42.783288064210943 19.859164854855056 9.1919320613627651 1 rotate no_reflect no_shear #
lump $-1 $-1 $25 $4 #
transform $-1 1 0 0 0 1 0 0 0 1 42.783288064210943 19.859164854855056 9.1919320613627651 1 rotate no_reflect no_shear #
lump $-1 $-1 $26 $5 #
transform $-1 1 0 0 0 1 0 0 0 1 42.783288064210943 19.859164854855056 9.1919320613627651 1 rotate no_reflect no_shear #
lump $-1 $-1 $27 $6 #
transform $-1 1 0 0 0 1 0 0 0 1 42.783288064210943 19.859164854855056 9.1919320613627651 1 rotate no_reflect no_shear #
shell $-1 $-1 $-1 $28 $-1 $7 #
shell $-1 $-1 $-1 $29 $-1 $9 #
shell $-1 $-1 $-1 $30 $-1 $11 #
shell $-1 $-1 $-1 $31 $-1 $13 #
shell $-1 $-1 $-1 $32 $-1 $15 #
shell $-1 $-1 $-1 $33 $-1 $17 #
shell $-1 $-1 $-1 $34 $-1 $19 #
face $-1 $35 $36 $21 $-1 $37 forward single #
face $-1 $38 $39 $22 $-1 $40 reversed single #
face $-1 $41 $42 $23 $-1 $43 reversed single #
face $-1 $44 $45 $24 $-1 $46 reversed single #
face $-1 $47 $48 $25 $-1 $49 forward single #
face $-1 $50 $51 $26 $-1 $52 reversed single #
face $-1 $53 $54 $27 $-1 $55 forward single #
face $-1 $56 $57 $21 $-1 $58 reversed single #
loop $-1 $-1 $59 $28 #
plane-surface $-1 0 0 9.1919320613627651 0 0 1 1 0 0 forward_v I I I I #
face $-1 $60 $61 $22 $-1 $62 reversed single #
loop $-1 $-1 $63 $29 #
plane-surface $-1 -40.471517291040243 -11.960841470141609 0 0 -1 0 0 0 -1 forward_v I I I I #
face $-1 $64 $65 $23 $-1 $66 reversed single #
loop $-1 $-1 $67 $30 #
plane-surface $-1 -40.471517291040243 11.960841470141608 0 0 1 0 0 0 1 forward_v I I I I #
face $-1 $68 $69 $24 $-1 $70 reversed single #
loop $-1 $-1 $71 $31 #
plane-surface $-1 67.94256135041627 -5.9784751774485194 122.66447824154673 0 -1 0 -0.83867057594974714 0 -0.54463902268945019 forward_v I I I I #
face $-1 $72 $73 $25 $-1 $74 forward single #
loop $-1 $75 $76 $32 #
cone-surface $-1 39.789990455119316 -8.9696583237950644 5.8334636632337453 -0.83867057594974714 0 -0.54463902268945019 0.54463902268945019 0 -0.83867057594974714 1 I I 0 1 1 forward I I I I #
face $-1 $77 $78 $26 $-1 $79 reversed single #
loop $-1 $-1 $80 $33 #
plane-surface $-1 67.94256135041627 11.960841470141608 122.66447824154673 0 -1 0 -0.83867057594974714 0 -0.54463902268945019 forward_v I I I I #
face $-1 $81 $82 $27 $-1 $83 forward single #
loop $-1 $84 $85 $34 #
cone-surface $-1 39.789990455119316 8.9696583237950627 5.8334636632337453 -0.83867057594974714 0 -0.54463902268945019 0.54463902268945019 0 -0.83867057594974714 1 I I 0 1 1 forward I I I I #
face $-1 $86 $87 $21 $-1 $88 reversed single #
loop $-1 $-1 $89 $35 #
plane-surface $-1 0 0 -9.1919320613627651 0 0 1 1 0 0 forward_v I I I I #
coedge $-1 $90 $91 $92 $93 forward $36 $-1 #
face $-1 $94 $95 $22 $-1 $96 forward single #
loop $-1 $-1 $97 $38 #
plane-surface $-1 -38.159746517869543 -15.910003162498333 0 -1 0 0 0 0 1 forward_v I I I I #
coedge $-1 $98 $99 $100 $101 forward $39 $-1 #
face $-1 $102 $103 $23 $-1 $104 reversed single #
loop $-1 $-1 $105 $41 #
plane-surface $-1 -38.159746517869543 15.910003162498331 0 -1 0 0 0 0 1 forward_v I I I I #
coedge $-1 $106 $107 $108 $109 reversed $42 $-1 #
face $-1 $110 $111 $24 $-1 $112 reversed single #
loop $-1 $-1 $113 $44 #
plane-surface $-1 -3.8196083332552035 -8.9696583237950644 76.061581844080592 0.83867057594974714 0 0.54463902268945019 0.54463902268945019 0 -0.83867057594974714 forward_v I I I I #
coedge $-1 $114 $115 $116 $117 reversed $45 $-1 #
face $-1 $-1 $118 $25 $-1 $119 forward single #
loop $-1 $120 $121 $47 #
cone-surface $-1 37.965977293713912 -8.9696583237950644 4.648935704236818 -0.83867057594974714 0 -0.54463902268945019 0.2723195113447251 0 -0.41933528797487357 1 I I -0.70710678118654746 0.70710678118654746 0.5 forward I I I I #
loop $-1 $-1 $122 $32 #
coedge $-1 $76 $76 $123 $124 reversed $48 $-1 #
face $-1 $125 $126 $26 $-1 $127 reversed single #
loop $-1 $-1 $128 $50 #
plane-surface $-1 -3.8196083332552035 8.9696583237950627 76.061581844080592 0.83867057594974714 0 0.54463902268945019 0.54463902268945019 0 -0.83867057594974714 forward_v I I I I #
coedge $-1 $129 $130 $131 $132 reversed $51 $-1 #
face $-1 $-1 $133 $27 $-1 $134 forward single #
loop $-1 $135 $136 $53 #
cone-surface $-1 37.965977293713912 8.9696583237950627 4.648935704236818 -0.83867057594974714 0 -0.54463902268945019 0.2723195113447251 0 -0.41933528797487357 1 I I -0.70710678118654746 0.70710678118654746 0.5 forward I I I I #
loop $-1 $-1 $137 $34 #
coedge $-1 $85 $85 $138 $139 reversed $54 $-1 #
face $-1 $140 $141 $21 $-1 $142 reversed single #
loop $-1 $-1 $143 $56 #
plane-surface $-1 0 -19.859164854855056 0 0 1 0 0 0 1 forward_v I I I I #
coedge $-1 $144 $145 $146 $147 forward $57 $-1 #
coedge $-1 $148 $59 $149 $150 forward $36 $-1 #
coedge $-1 $59 $148 $151 $152 forward $36 $-1 #
coedge $-1 $153 $154 $59 $93 reversed $155 $-1 #
edge $-1 $156 -19.859164854855056 $157 19.859164854855056 $92 $158 forward 7 unknown #
face $-1 $159 $160 $22 $-1 $161 reversed single #
loop $-1 $-1 $162 $60 #
plane-surface $-1 0 0 9.1919320613627651 0 0 1 1 0 0 forward_v I I I I #
coedge $-1 $163 $164 $165 $166 reversed $61 $-1 #
coedge $-1 $167 $63 $168 $169 reversed $39 $-1 #
coedge $-1 $63 $167 $170 $171 reversed $39 $-1 #
coedge $-1 $164 $163 $63 $101 reversed $61 $-1 #
edge $-1 $172 -9.1919320613627651 $173 9.1919320613627651 $100 $174 forward 7 unknown #
face $-1 $175 $176 $23 $-1 $177 reversed single #
loop $-1 $-1 $178 $64 #
plane-surface $-1 0 0 -9.1919320613627651 0 0 1 1 0 0 forward_v I I I I #
coedge $-1 $179 $180 $181 $182 forward $65 $-1 #
coedge $-1 $181 $67 $183 $184 reversed $42 $-1 #
coedge $-1 $67 $181 $185 $186 reversed $42 $-1 #
coedge $-1 $187 $188 $67 $109 forward $176 $-1 #
edge $-1 $189 -9.1919320613627651 $190 9.1919320613627651 $108 $191 forward 7 unknown #
face $-1 $192 $193 $24 $-1 $194 reversed single #
loop $-1 $-1 $195 $68 #
plane-surface $-1 67.94256135041627 -11.960841470141609 122.66447824154673 0 1 0 0.83867057594974714 0 0.54463902268945019 forward_v I I I I #
coedge $-1 $196 $197 $198 $199 reversed $69 $-1 #
coedge $-1 $115 $71 $200 $201 reversed $45 $-1 #
coedge $-1 $71 $114 $196 $202 reversed $45 $-1 #
coedge $-1 $198 $203 $71 $117 forward $204 $-1 #
edge $-1 $205 -8.8120073890028081 $206 -5.6347679176805769 $116 $207 forward 7 unknown #
loop $-1 $-1 $123 $72 #
plane-surface $-1 -3.8196083332552035 -8.9696583237950644 76.061581844080592 0.83867057594974714 0 0.54463902268945019 0.54463902268945019 0 -0.83867057594974714 forward_v I I I I #
loop $-1 $-1 $208 $47 #
coedge $-1 $121 $121 $122 $209 reversed $73 $-1 #
coedge $-1 $122 $122 $121 $209 forward $75 $-1 #
coedge $-1 $123 $123 $76 $124 forward $118 $-1 #
edge $-1 $210 0 $210 6.2831853071796004 $123 $211 forward 7 unknown #
face $-1 $212 $213 $26 $-1 $214 reversed single #
loop $-1 $-1 $215 $77 #
plane-surface $-1 67.94256135041627 5.9784751774485176 122.66447824154673 0 1 0 0.83867057594974714 0 0.54463902268945019 forward_v I I I I #
coedge $-1 $216 $217 $218 $219 reversed $78 $-1 #
coedge $-1 $130 $80 $220 $221 reversed $51 $-1 #
coedge $-1 $80 $129 $216 $222 reversed $51 $-1 #
coedge $-1 $218 $223 $80 $132 forward $224 $-1 #
edge $-1 $225 -8.8120073890028081 $226 -5.6347679176805769 $131 $227 forward 7 unknown #
loop $-1 $-1 $138 $81 #
plane-surface $-1 -3.8196083332552035 8.9696583237950627 76.061581844080592 0.83867057594974714 0 0.54463902268945019 0.54463902268945019 0 -0.83867057594974714 forward_v I I I I #
loop $-1 $-1 $228 $53 #
coedge $-1 $136 $136 $137 $229 reversed $82 $-1 #
coedge $-1 $137 $137 $136 $229 forward $84 $-1 #
coedge $-1 $138 $138 $85 $139 forward $133 $-1 #
edge $-1 $230 0 $230 6.2831853071796004 $138 $231 forward 7 unknown #
face $-1 $232 $233 $21 $-1 $234 reversed single #
loop $-1 $-1 $235 $86 #
plane-surface $-1 -42.783288064210943 0 0 1 0 0 0 0 -1 forward_v I I I I #
coedge $-1 $236 $151 $237 $238 forward $87 $-1 #
coedge $-1 $239 $89 $236 $240 forward $57 $-1 #
coedge $-1 $89 $239 $241 $242 forward $57 $-1 #
coedge $-1 $154 $153 $89 $147 reversed $155 $-1 #
edge $-1 $243 -19.859164854855056 $244 19.859164854855056 $146 $245 forward 7 unknown #
coedge $-1 $91 $90 $246 $247 forward $36 $-1 #
coedge $-1 $248 $249 $90 $150 reversed $233 $-1 #
edge $-1 $157 -42.783288064210943 $250 42.783288064210943 $149 $251 forward 7 unknown #
coedge $-1 $143 $252 $91 $152 reversed $87 $-1 #
edge $-1 $253 -42.783288064210943 $156 42.783288064210943 $151 $254 forward 7 unknown #
coedge $-1 $146 $92 $252 $255 forward $155 $-1 #
coedge $-1 $92 $146 $248 $256 reversed $155 $-1 #
loop $-1 $-1 $153 $232 #
vertex $-1 $93 $257 #
vertex $-1 $93 $258 #
straight-curve $-1 42.783288064210943 0 9.1919320613627651 0 1 0 I I #
face $-1 $259 $260 $22 $-1 $261 reversed single #
loop $-1 $-1 $262 $94 #
plane-surface $-1 -42.783288064210943 0 0 1 0 0 0 0 -1 forward_v I I I I #
coedge $-1 $170 $263 $164 $264 forward $95 $-1 #
coedge $-1 $100 $97 $265 $266 reversed $61 $-1 #
coedge $-1 $97 $100 $162 $264 reversed $61 $-1 #
coedge $-1 $267 $268 $97 $166 forward $269 $-1 #
edge $-1 $270 -9.1919320613627651 $271 9.1919320613627651 $165 $272 forward 7 unknown #
coedge $-1 $99 $98 $262 $273 reversed $39 $-1 #
coedge $-1 $265 $274 $98 $169 forward $260 $-1 #
edge $-1 $275 -22.547529418690822 $173 -17.923987872349421 $168 $276 forward 7 unknown #
coedge $-1 $277 $162 $99 $171 forward $95 $-1 #
edge $-1 $172 17.923987872349421 $278 22.547529418690822 $170 $279 forward 7 unknown #
vertex $-1 $171 $280 #
vertex $-1 $169 $281 #
straight-curve $-1 -38.159746517869543 -11.960841470141609 0 0 0 -1 I I #
face $-1 $282 $283 $23 $-1 $284 forward single #
loop $-1 $-1 $108 $102 #
plane-surface $-1 -42.783288064210943 0 0 1 0 0 0 0 -1 forward_v I I I I #
coedge $-1 $183 $285 $179 $286 forward $103 $-1 #
coedge $-1 $287 $105 $178 $286 reversed $65 $-1 #
coedge $-1 $105 $287 $288 $289 reversed $65 $-1 #
coedge $-1 $107 $106 $105 $182 reversed $42 $-1 #
edge $-1 $290 -9.1919320613627651 $291 9.1919320613627651 $105 $292 forward 7 unknown #
coedge $-1 $293 $178 $106 $184 forward $103 $-1 #
edge $-1 $291 17.923987872349421 $189 22.547529418690822 $183 $294 forward 7 unknown #
coedge $-1 $288 $295 $107 $186 forward $283 $-1 #
edge $-1 $190 -22.547529418690822 $290 -17.923987872349421 $185 $296 forward 7 unknown #
coedge $-1 $297 $108 $295 $298 reversed $176 $-1 #
coedge $-1 $108 $297 $293 $299 reversed $176 $-1 #
vertex $-1 $299 $300 #
vertex $-1 $109 $301 #
straight-curve $-1 -42.783288064210943 11.960841470141608 0 0 0 1 I I #
face $-1 $-1 $204 $24 $-1 $302 forward single #
loop $-1 $-1 $303 $110 #
plane-surface $-1 42.783288064210943 0 0 -1 0 0 0 0 1 forward_v I I I I #
coedge $-1 $304 $305 $306 $307 reversed $111 $-1 #
coedge $-1 $308 $113 $115 $202 forward $69 $-1 #
coedge $-1 $113 $308 $304 $309 forward $69 $-1 #
coedge $-1 $306 $116 $113 $199 forward $204 $-1 #
edge $-1 $206 1.4936460155509872 $310 7.4760123082440773 $198 $311 forward 7 unknown #
coedge $-1 $312 $313 $114 $201 forward $193 $-1 #
edge $-1 $314 -57.032826960364261 $205 -52.140307059410603 $200 $315 forward 7 unknown #
edge $-1 $206 79.732915044732223 $314 85.566576128421914 $115 $316 forward 7 unknown #
coedge $-1 $116 $306 $312 $317 forward $204 $-1 #
loop $-1 $-1 $306 $192 #
vertex $-1 $201 $318 #
vertex $-1 $117 $319 #
straight-curve $-1 33.971280675208135 -5.9784751774485194 9.1919320613627633 -1 0 0 I I #
coedge $-1 $208 $208 $-1 $320 reversed $120 $-1 #
edge $-1 $321 0 $321 6.2831853071796004 $121 $322 forward 7 unknown #
vertex $-1 $124 $323 #
ellipse-curve $-1 41.194668328549824 -8.9696583237950644 6.7456721108859377 0.83867057594974714 0 0.54463902268945019 0.54463902268945019 0 -0.83867057594974714 1 I I #
face $-1 $-1 $224 $26 $-1 $324 forward single #
loop $-1 $-1 $325 $125 #
plane-surface $-1 42.783288064210943 0 0 -1 0 0 0 0 1 forward_v I I I I #
coedge $-1 $326 $327 $328 $329 reversed $126 $-1 #
coedge $-1 $330 $128 $130 $222 forward $78 $-1 #
coedge $-1 $128 $330 $326 $331 forward $78 $-1 #
coedge $-1 $328 $131 $128 $219 forward $224 $-1 #
edge $-1 $226 -7.4760123082440764 $332 -1.4936460155509863 $218 $333 forward 7 unknown #
coedge $-1 $334 $335 $129 $221 forward $213 $-1 #
edge $-1 $336 -57.032826960364261 $225 -52.140307059410603 $220 $337 forward 7 unknown #
edge $-1 $226 79.732915044732223 $336 85.566576128421914 $130 $338 forward 7 unknown #
coedge $-1 $131 $328 $334 $339 forward $224 $-1 #
loop $-1 $-1 $328 $212 #
vertex $-1 $221 $340 #
vertex $-1 $132 $341 #
straight-curve $-1 33.971280675208135 11.960841470141608 9.1919320613627633 -1 0 0 I I #
coedge $-1 $228 $228 $-1 $342 reversed $135 $-1 #
edge $-1 $343 0 $343 6.2831853071796004 $136 $344 forward 7 unknown #
vertex $-1 $139 $345 #
ellipse-curve $-1 41.194668328549824 8.9696583237950627 6.7456721108859377 0.83867057594974714 0 0.54463902268945019 0.54463902268945019 0 -0.83867057594974714 1 I I #
face $-1 $-1 $155 $21 $-1 $346 reversed single #
loop $-1 $-1 $248 $140 #
plane-surface $-1 0 19.859164854855056 0 0 -1 0 0 0 -1 forward_v I I I I #
coedge $-1 $347 $246 $249 $348 forward $141 $-1 #
coedge $-1 $252 $143 $144 $240 reversed $87 $-1 #
coedge $-1 $246 $347 $143 $238 reversed $141 $-1 #
edge $-1 $253 -9.1919320613627651 $349 9.1919320613627651 $237 $350 forward 7 unknown #
coedge $-1 $145 $144 $347 $351 forward $57 $-1 #
edge $-1 $244 -42.783288064210943 $349 42.783288064210943 $236 $352 forward 7 unknown #
coedge $-1 $249 $248 $145 $242 reversed $233 $-1 #
edge $-1 $353 -42.783288064210943 $243 42.783288064210943 $241 $354 forward 7 unknown #
vertex $-1 $147 $355 #
vertex $-1 $255 $356 #
straight-curve $-1 42.783288064210943 0 -9.1919320613627651 0 -1 0 I I #
coedge $-1 $235 $237 $148 $247 reversed $141 $-1 #
edge $-1 $250 -19.859164854855056 $253 19.859164854855056 $246 $357 forward 7 unknown #
coedge $-1 $241 $149 $154 $256 forward $233 $-1 #
coedge $-1 $149 $241 $235 $348 reversed $233 $-1 #
vertex $-1 $150 $358 #
straight-curve $-1 0 19.859164854855056 9.1919320613627651 -1 0 0 I I #
coedge $-1 $151 $236 $153 $255 reversed $87 $-1 #
vertex $-1 $247 $359 #
straight-curve $-1 0 -19.859164854855056 9.1919320613627651 1 0 0 I I #
edge $-1 $156 -9.1919320613627651 $244 9.1919320613627651 $153 $360 forward 7 unknown #
edge $-1 $157 -9.1919320613627651 $243 9.1919320613627651 $154 $361 forward 7 unknown #
point $-1 42.783288064210943 -19.859164854855056 9.1919320613627651 #
point $-1 42.783288064210943 19.859164854855056 9.1919320613627651 #
face $-1 $-1 $269 $22 $-1 $362 reversed single #
loop $-1 $-1 $265 $159 #
plane-surface $-1 0 0 -9.1919320613627651 0 0 1 1 0 0 forward_v I I I I #
coedge $-1 $363 $364 $167 $273 forward $160 $-1 #
coedge $-1 $162 $277 $267 $365 forward $95 $-1 #
edge $-1 $271 -11.904163273605889 $172 -4.0058398888924431 $162 $366 forward 7 unknown #
coedge $-1 $367 $168 $163 $266 forward $260 $-1 #
edge $-1 $173 4.0058398888924431 $270 11.904163273605889 $265 $368 forward 7 unknown #
coedge $-1 $369 $165 $263 $365 reversed $269 $-1 #
coedge $-1 $165 $369 $367 $370 reversed $269 $-1 #
loop $-1 $-1 $165 $259 #
vertex $-1 $370 $371 #
vertex $-1 $166 $372 #
straight-curve $-1 -38.159746517869543 -19.859164854855056 0 0 0 1 I I #
edge $-1 $278 -9.1919320613627651 $275 9.1919320613627651 $262 $373 forward 7 unknown #
coedge $-1 $168 $367 $363 $374 forward $260 $-1 #
vertex $-1 $169 $375 #
straight-curve $-1 -20.235758645520121 -11.960841470141609 -9.1919320613627651 1 0 0 I I #
coedge $-1 $263 $170 $364 $376 forward $95 $-1 #
vertex $-1 $376 $377 #
straight-curve $-1 -20.235758645520121 -11.960841470141609 9.1919320613627651 -1 0 0 I I #
point $-1 -38.159746517869543 -11.960841470141609 9.1919320613627651 #
point $-1 -38.159746517869543 -11.960841470141609 -9.1919320613627651 #
face $-1 $-1 $378 $23 $-1 $379 reversed single #
loop $-1 $-1 $288 $175 #
plane-surface $-1 0 0 9.1919320613627651 0 0 1 1 0 0 forward_v I I I I #
coedge $-1 $178 $293 $380 $381 forward $103 $-1 #
edge $-1 $382 -11.904163273605887 $291 -4.0058398888924422 $178 $383 forward 7 unknown #
coedge $-1 $180 $179 $384 $385 reversed $65 $-1 #
coedge $-1 $386 $185 $180 $289 forward $283 $-1 #
edge $-1 $290 4.0058398888924422 $387 11.904163273605887 $288 $388 forward 7 unknown #
vertex $-1 $186 $389 #
vertex $-1 $184 $390 #
straight-curve $-1 -38.159746517869543 11.960841470141608 0 0 0 -1 I I #
coedge $-1 $285 $183 $188 $299 forward $103 $-1 #
straight-curve $-1 -20.235758645520121 11.960841470141608 -9.1919320613627651 -1 0 0 I I #
coedge $-1 $185 $386 $187 $298 forward $283 $-1 #
straight-curve $-1 -20.235758645520121 11.960841470141608 9.1919320613627651 1 0 0 I I #
coedge $-1 $188 $187 $391 $392 forward $176 $-1 #
edge $-1 $393 -19.859164854855056 $190 -11.960841470141608 $187 $394 forward 7 unknown #
edge $-1 $189 11.960841470141608 $395 19.859164854855056 $188 $396 forward 7 unknown #
point $-1 -42.783288064210943 11.960841470141608 -9.1919320613627651 #
point $-1 -42.783288064210943 11.960841470141608 9.1919320613627651 #
plane-surface $-1 0 0 9.1919320613627651 0 0 1 1 0 0 forward_v I I I I #
coedge $-1 $313 $312 $305 $397 forward $193 $-1 #
coedge $-1 $305 $195 $197 $309 reversed $111 $-1 #
coedge $-1 $195 $304 $303 $397 reversed $111 $-1 #
coedge $-1 $203 $198 $195 $307 forward $204 $-1 #
edge $-1 $310 5.6347679176805769 $398 8.8120073890028081 $306 $399 forward 7 unknown #
coedge $-1 $197 $196 $313 $400 reversed $69 $-1 #
edge $-1 $401 -85.566576128421914 $310 -79.732915044732223 $304 $402 forward 7 unknown #
vertex $-1 $199 $403 #
straight-curve $-1 39.606048592888712 -4.4848291618975322 9.1919320613627633 0 -1 0 I I #
coedge $-1 $303 $200 $203 $317 reversed $193 $-1 #
coedge $-1 $200 $303 $308 $400 forward $193 $-1 #
vertex $-1 $201 $404 #
straight-curve $-1 42.783288064210943 -5.9784751774485194 61.332239120773366 0 0 1 I I #
straight-curve $-1 -3.8196083332552035 -5.9784751774485194 76.061581844080592 0.54463902268945019 0 -0.83867057594974714 I I #
edge $-1 $398 -11.960841470141609 $205 -5.9784751774485194 $312 $405 forward 7 unknown #
point $-1 42.783288064210943 -5.9784751774485194 9.1919320613627651 #
point $-1 39.606048592888712 -5.9784751774485194 9.1919320613627633 #
edge $-1 $406 1 $406 0 $208 $-1 forward 7 unknown #
vertex $-1 $209 $407 #
ellipse-curve $-1 38.385312581688787 -8.9696583237950644 4.9212552155815432 0.83867057594974714 0 0.54463902268945019 0.54463902268945019 0 -0.83867057594974714 1 I I #
point $-1 41.73930735123929 -8.9696583237950644 5.9070015349362013 #
plane-surface $-1 0 0 9.1919320613627651 0 0 1 1 0 0 forward_v I I I I #
coedge $-1 $335 $334 $327 $408 forward $213 $-1 #
coedge $-1 $327 $215 $217 $331 reversed $126 $-1 #
coedge $-1 $215 $326 $325 $408 reversed $126 $-1 #
coedge $-1 $223 $218 $215 $329 forward $224 $-1 #
edge $-1 $332 5.6347679176805769 $409 8.8120073890028081 $328 $410 forward 7 unknown #
coedge $-1 $217 $216 $335 $411 reversed $78 $-1 #
edge $-1 $412 -85.566576128421914 $332 -79.732915044732223 $326 $413 forward 7 unknown #
vertex $-1 $219 $414 #
straight-curve $-1 39.606048592888712 4.4848291618975313 9.1919320613627633 0 -1 0 I I #
coedge $-1 $325 $220 $223 $339 reversed $213 $-1 #
coedge $-1 $220 $325 $330 $411 forward $213 $-1 #
vertex $-1 $221 $415 #
straight-curve $-1 42.783288064210943 11.960841470141608 61.332239120773366 0 0 1 I I #
straight-curve $-1 -3.8196083332552035 11.960841470141608 76.061581844080592 0.54463902268945019 0 -0.83867057594974714 I I #
edge $-1 $409 5.9784751774485176 $225 11.960841470141608 $334 $416 forward 7 unknown #
point $-1 42.783288064210943 11.960841470141608 9.1919320613627651 #
point $-1 39.606048592888712 11.960841470141608 9.1919320613627633 #
edge $-1 $417 1 $417 0 $228 $-1 forward 7 unknown #
vertex $-1 $229 $418 #
ellipse-curve $-1 38.385312581688787 8.9696583237950627 4.9212552155815432 0.83867057594974714 0 0.54463902268945019 0.54463902268945019 0 -0.83867057594974714 1 I I #
point $-1 41.73930735123929 8.9696583237950627 5.9070015349362013 #
plane-surface $-1 42.783288064210943 0 0 -1 0 0 0 0 1 forward_v I I I I #
coedge $-1 $237 $235 $239 $351 reversed $141 $-1 #
edge $-1 $250 -9.1919320613627651 $353 9.1919320613627651 $249 $419 forward 7 unknown #
vertex $-1 $351 $420 #
straight-curve $-1 -42.783288064210943 -19.859164854855056 0 0 0 -1 I I #
edge $-1 $349 -19.859164854855056 $353 19.859164854855056 $347 $421 forward 7 unknown #
straight-curve $-1 0 -19.859164854855056 -9.1919320613627651 -1 0 0 I I #
vertex $-1 $242 $422 #
straight-curve $-1 0 19.859164854855056 -9.1919320613627651 1 0 0 I I #
point $-1 42.783288064210943 19.859164854855056 -9.1919320613627651 #
point $-1 42.783288064210943 -19.859164854855056 -9.1919320613627651 #
straight-curve $-1 -42.783288064210943 0 9.1919320613627651 0 -1 0 I I #
point $-1 -42.783288064210943 19.859164854855056 9.1919320613627651 #
point $-1 -42.783288064210943 -19.859164854855056 9.1919320613627651 #
straight-curve $-1 42.783288064210943 -19.859164854855056 0 0 0 -1 I I #
straight-curve $-1 42.783288064210943 19.859164854855056 0 0 0 -1 I I #
plane-surface $-1 0 -19.859164854855056 0 0 1 0 0 0 1 forward_v I I I I #
coedge $-1 $423 $262 $274 $374 reversed $160 $-1 #
coedge $-1 $262 $423 $277 $376 reversed $160 $-1 #
edge $-1 $424 -42.783288064210943 $271 -38.159746517869543 $267 $425 forward 7 unknown #
straight-curve $-1 -38.159746517869543 -7.9550015812491663 9.1919320613627651 0 1 0 I I #
coedge $-1 $274 $265 $268 $370 forward $260 $-1 #
straight-curve $-1 -38.159746517869543 -7.9550015812491663 -9.1919320613627651 0 -1 0 I I #
coedge $-1 $268 $267 $423 $426 forward $269 $-1 #
edge $-1 $270 38.159746517869543 $427 42.783288064210943 $268 $428 forward 7 unknown #
point $-1 -38.159746517869543 -19.859164854855056 -9.1919320613627651 #
point $-1 -38.159746517869543 -19.859164854855056 9.1919320613627651 #
straight-curve $-1 -42.783288064210943 -11.960841470141609 0 0 0 -1 I I #
edge $-1 $427 -19.859164854855056 $275 -11.960841470141609 $363 $429 forward 7 unknown #
point $-1 -42.783288064210943 -11.960841470141609 -9.1919320613627651 #
edge $-1 $278 11.960841470141609 $424 19.859164854855056 $364 $430 forward 7 unknown #
point $-1 -42.783288064210943 -11.960841470141609 9.1919320613627651 #
loop $-1 $-1 $384 $282 #
plane-surface $-1 0 19.859164854855056 0 0 -1 0 0 0 -1 forward_v I I I I #
coedge $-1 $391 $384 $285 $381 reversed $378 $-1 #
edge $-1 $395 -42.783288064210943 $382 -38.159746517869543 $380 $431 forward 7 unknown #
vertex $-1 $286 $432 #
straight-curve $-1 -38.159746517869543 7.9550015812491655 -9.1919320613627651 0 -1 0 I I #
coedge $-1 $380 $433 $287 $385 forward $378 $-1 #
edge $-1 $387 -9.1919320613627651 $382 9.1919320613627651 $384 $434 forward 7 unknown #
coedge $-1 $295 $288 $433 $435 forward $283 $-1 #
vertex $-1 $435 $436 #
straight-curve $-1 -38.159746517869543 7.9550015812491655 9.1919320613627651 0 1 0 I I #
point $-1 -38.159746517869543 11.960841470141608 9.1919320613627651 #
point $-1 -38.159746517869543 11.960841470141608 -9.1919320613627651 #
coedge $-1 $433 $380 $297 $392 reversed $378 $-1 #
edge $-1 $393 -9.1919320613627651 $395 9.1919320613627651 $391 $437 forward 7 unknown #
vertex $-1 $435 $438 #
straight-curve $-1 -42.783288064210943 0 9.1919320613627651 0 -1 0 I I #
vertex $-1 $381 $439 #
straight-curve $-1 -42.783288064210943 0 -9.1919320613627651 0 1 0 I I #
edge $-1 $398 52.140307059410603 $401 57.032826960364261 $303 $440 forward 7 unknown #
vertex $-1 $317 $441 #
straight-curve $-1 33.971280675208135 -11.960841470141609 9.1919320613627633 1 0 0 I I #
edge $-1 $401 -7.4760123082440773 $314 -1.4936460155509872 $313 $442 forward 7 unknown #
vertex $-1 $400 $443 #
straight-curve $-1 -3.8196083332552035 -11.960841470141609 76.061581844080592 -0.54463902268945019 0 0.83867057594974714 I I #
point $-1 39.606048592888712 -11.960841470141609 9.1919320613627633 #
point $-1 42.78328806421095 -5.9784751774485194 4.2994121604091049 #
straight-curve $-1 42.783288064210943 0 9.1919320613627651 0 1 0 I I #
vertex $-1 $320 $444 #
point $-1 38.929951604378239 -8.9696583237950644 4.0825846396317962 #
edge $-1 $409 52.140307059410603 $412 57.032826960364261 $325 $445 forward 7 unknown #
vertex $-1 $339 $446 #
straight-curve $-1 33.971280675208135 5.9784751774485176 9.1919320613627633 1 0 0 I I #
edge $-1 $412 1.4936460155509863 $336 7.4760123082440764 $335 $447 forward 7 unknown #
vertex $-1 $411 $448 #
straight-curve $-1 -3.8196083332552035 5.9784751774485176 76.061581844080592 -0.54463902268945019 0 0.83867057594974714 I I #
point $-1 39.606048592888712 5.9784751774485176 9.1919320613627633 #
point $-1 42.78328806421095 11.960841470141608 4.2994121604091049 #
straight-curve $-1 42.783288064210943 0 9.1919320613627651 0 1 0 I I #
vertex $-1 $342 $449 #
point $-1 38.929951604378239 8.9696583237950627 4.0825846396317962 #
straight-curve $-1 -42.783288064210943 19.859164854855056 0 0 0 -1 I I #
point $-1 -42.783288064210943 -19.859164854855056 -9.1919320613627651 #
straight-curve $-1 -42.783288064210943 0 -9.1919320613627651 0 1 0 I I #
point $-1 -42.783288064210943 19.859164854855056 -9.1919320613627651 #
coedge $-1 $364 $363 $369 $426 reversed $160 $-1 #
vertex $-1 $376 $450 #
straight-curve $-1 0 -19.859164854855056 9.1919320613627651 1 0 0 I I #
edge $-1 $424 -9.1919320613627651 $427 9.1919320613627651 $423 $451 forward 7 unknown #
vertex $-1 $374 $452 #
straight-curve $-1 0 -19.859164854855056 -9.1919320613627651 -1 0 0 I I #
straight-curve $-1 -42.783288064210943 0 -9.1919320613627651 0 1 0 I I #
straight-curve $-1 -42.783288064210943 0 9.1919320613627651 0 -1 0 I I #
straight-curve $-1 0 19.859164854855056 -9.1919320613627651 1 0 0 I I #
point $-1 -38.159746517869543 19.859164854855052 -9.1919320613627651 #
coedge $-1 $384 $391 $386 $435 reversed $378 $-1 #
straight-curve $-1 -38.159746517869543 19.859164854855056 0 0 0 -1 I I #
edge $-1 $387 38.159746517869543 $393 42.783288064210943 $433 $453 forward 7 unknown #
point $-1 -38.159746517869543 19.859164854855052 9.1919320613627651 #
straight-curve $-1 -42.783288064210943 19.859164854855056 0 0 0 -1 I I #
point $-1 -42.783288064210943 19.859164854855056 9.1919320613627651 #
point $-1 -42.783288064210943 19.859164854855056 -9.1919320613627651 #
straight-curve $-1 42.783288064210943 -11.960841470141609 61.332239120773366 0 0 -1 I I #
point $-1 42.783288064210943 -11.960841470141609 9.1919320613627651 #
straight-curve $-1 42.783288064210936 -4.4848291618975322 4.2994121604091049 0 1 0 I I #
point $-1 42.78328806421095 -11.960841470141609 4.2994121604091049 #
point $-1 37.546642005739038 -8.9696583237950644 4.3766161928920928 #
straight-curve $-1 42.783288064210943 5.9784751774485176 61.332239120773366 0 0 -1 I I #
point $-1 42.783288064210943 5.9784751774485176 9.1919320613627651 #
straight-curve $-1 42.783288064210936 4.4848291618975313 4.2994121604091049 0 1 0 I I #
point $-1 42.78328806421095 5.9784751774485176 4.2994121604091049 #
point $-1 37.546642005739038 8.9696583237950627 4.3766161928920928 #
point $-1 -42.783288064210943 -19.859164854855056 9.1919320613627651 #
straight-curve $-1 -42.783288064210943 -19.859164854855056 0 0 0 -1 I I #
point $-1 -42.783288064210943 -19.859164854855056 -9.1919320613627651 #
straight-curve $-1 0 19.859164854855056 9.1919320613627651 -1 0 0 I I #
End-of-ACIS-data 