500 0 8 0           
7 Unknown 11 ACIS 5.0 NT 24 Thu Mar 25 20:17:58 1999 
-1 9.9999999999999995e-007 1e-010 
body $-1 $8 $-1 $9 #
body $-1 $10 $-1 $11 #
body $-1 $12 $-1 $13 #
body $-1 $14 $-1 $15 #
body $-1 $16 $-1 $17 #
body $-1 $18 $-1 $19 #
body $-1 $20 $-1 $21 #
body $-1 $22 $-1 $23 #
lump $-1 $-1 $24 $0 #
transform $-1 1 0 0 0 1 0 0 0 1 77.991882076479385 40.676597428333444 14.439590013333198 1 rotate no_reflect no_shear #
lump $-1 $-1 $25 $1 #
transform $-1 1 0 0 0 1 0 0 0 1 77.991882076479385 40.676597428333444 14.439590013333198 1 rotate no_reflect no_shear #
lump $-1 $-1 $26 $2 #
transform $-1 1 0 0 0 1 0 0 0 1 77.991882076479385 40.676597428333444 14.439590013333198 1 rotate no_reflect no_shear #
lump $-1 $-1 $27 $3 #
transform $-1 1 0 0 0 1 0 0 0 1 77.991882076479385 40.676597428333444 14.439590013333198 1 rotate no_reflect no_shear #
lump $-1 $-1 $28 $4 #
transform $-1 1 0 0 0 1 0 0 0 1 77.991882076479385 40.676597428333444 14.439590013333198 1 rotate no_reflect no_shear #
lump $-1 $-1 $29 $5 #
transform $-1 1 0 0 0 1 0 0 0 1 77.991882076479385 40.676597428333444 14.439590013333198 1 rotate no_reflect no_shear #
lump $-1 $-1 $30 $6 #
transform $-1 1 0 0 0 1 0 0 0 1 77.991882076479385 40.676597428333444 14.439590013333198 1 rotate no_reflect no_shear #
lump $-1 $-1 $31 $7 #
transform $-1 1 0 0 0 1 0 0 0 1 77.991882076479385 40.676597428333444 14.439590013333198 1 rotate no_reflect no_shear #
shell $-1 $-1 $-1 $32 $-1 $8 #
shell $-1 $-1 $-1 $33 $-1 $10 #
shell $-1 $-1 $-1 $34 $-1 $12 #
shell $-1 $-1 $-1 $35 $-1 $14 #
shell $-1 $-1 $-1 $36 $-1 $16 #
shell $-1 $-1 $-1 $37 $-1 $18 #
shell $-1 $-1 $-1 $38 $-1 $20 #
shell $-1 $-1 $-1 $39 $-1 $22 #
face $-1 $40 $41 $24 $-1 $42 forward single #
face $-1 $43 $44 $25 $-1 $45 reversed single #
face $-1 $46 $47 $26 $-1 $48 reversed single #
face $-1 $49 $50 $27 $-1 $51 forward single #
face $-1 $52 $53 $28 $-1 $54 forward single #
face $-1 $55 $56 $29 $-1 $57 reversed single #
face $-1 $58 $59 $30 $-1 $60 forward single #
face $-1 $61 $62 $31 $-1 $63 forward single #
face $-1 $64 $65 $24 $-1 $66 reversed single #
loop $-1 $-1 $67 $32 #
plane-surface $-1 0 0 14.439590013333198 0 0 1 1 0 0 forward_v I I I I #
face $-1 $68 $69 $25 $-1 $70 reversed single #
loop $-1 $-1 $71 $33 #
plane-surface $-1 -75.72738666336511 -30.608113286549475 0 0 -1 0 0 0 -1 forward_v I I I I #
face $-1 $72 $73 $26 $-1 $74 reversed single #
loop $-1 $-1 $75 $34 #
plane-surface $-1 -61.987206205314635 63.504574697683033 180.76936849329982 -1 0 0 0 0.57357644374324357 0.81915203911291934 forward_v I I I I #
face $-1 $76 $77 $27 $-1 $78 forward single #
loop $-1 $79 $80 $35 #
cone-surface $-1 -73.419117541860885 33.299974569469676 8.1186829763423134 0 -0.57357644374324357 -0.81915203911291934 1.5 0 0 1 I I 0 1 1.5 forward I I I I #
face $-1 $81 $82 $28 $-1 $83 forward single #
loop $-1 $84 $85 $36 #
cone-surface $-1 -66.559970739933135 33.299974569469676 8.1186829763423134 0 -0.57357644374324357 -0.81915203911291934 1.5 0 0 1 I I 0 1 1.5 forward I I I I #
face $-1 $86 $87 $29 $-1 $88 reversed single #
loop $-1 $-1 $89 $37 #
plane-surface $-1 16.004675871164746 63.504574697683033 180.76936849329982 -1 0 0 0 0.57357644374324357 0.81915203911291934 forward_v I I I I #
face $-1 $90 $91 $30 $-1 $92 forward single #
loop $-1 $93 $94 $38 #
cone-surface $-1 4.5727645346185 33.299974569469676 8.1186829763423134 0 -0.57357644374324357 -0.81915203911291934 1.5 0 0 1 I I 0 1 1.5 forward I I I I #
face $-1 $95 $96 $31 $-1 $97 forward single #
loop $-1 $98 $99 $39 #
cone-surface $-1 11.43191133654625 33.299974569469676 8.1186829763423134 0 -0.57357644374324357 -0.81915203911291934 1.5 0 0 1 I I 0 1 1.5 forward I I I I #
face $-1 $100 $101 $24 $-1 $102 reversed single #
loop $-1 $-1 $103 $40 #
plane-surface $-1 0 0 -14.439590013333198 0 0 1 1 0 0 forward_v I I I I #
coedge $-1 $104 $105 $106 $107 forward $41 $-1 #
face $-1 $108 $109 $25 $-1 $110 forward single #
loop $-1 $-1 $111 $43 #
plane-surface $-1 -73.462891250250834 -35.64235535744146 0 -1 0 0 0 0 1 forward_v I I I I #
coedge $-1 $112 $113 $114 $115 forward $44 $-1 #
face $-1 $116 $117 $26 $-1 $118 reversed single #
loop $-1 $-1 $119 $46 #
plane-surface $-1 -69.98954414089701 -25.964038026855896 52.994950018894954 0 0.57357644374324357 0.81915203911291934 1 0 0 forward_v I I I I #
coedge $-1 $120 $121 $122 $123 reversed $47 $-1 #
face $-1 $-1 $124 $27 $-1 $125 forward single #
loop $-1 $126 $127 $49 #
cone-surface $-1 -73.419117541860885 31.282107363596843 5.2368700037549196 0 -0.57357644374324357 -0.81915203911291934 0.75 0 0 1 I I -0.70710678118654757 0.70710678118654757 0.75 forward I I I I #
loop $-1 $-1 $128 $35 #
coedge $-1 $80 $80 $129 $130 reversed $50 $-1 #
face $-1 $-1 $131 $28 $-1 $132 forward single #
loop $-1 $133 $134 $52 #
cone-surface $-1 -66.559970739933135 31.282107363596843 5.2368700037549196 0 -0.57357644374324357 -0.81915203911291934 0.75 0 0 1 I I -0.70710678118654757 0.70710678118654757 0.75 forward I I I I #
loop $-1 $-1 $135 $36 #
coedge $-1 $85 $85 $136 $137 reversed $53 $-1 #
face $-1 $138 $139 $29 $-1 $140 reversed single #
loop $-1 $-1 $141 $55 #
plane-surface $-1 8.0023379355823749 -25.964038026855896 52.994950018894954 0 0.57357644374324357 0.81915203911291934 1 0 0 forward_v I I I I #
coedge $-1 $142 $143 $144 $145 reversed $56 $-1 #
face $-1 $-1 $146 $30 $-1 $147 forward single #
loop $-1 $148 $149 $58 #
cone-surface $-1 4.5727645346185 31.282107363596843 5.2368700037549196 0 -0.57357644374324357 -0.81915203911291934 0.75 0 0 1 I I -0.70710678118654757 0.70710678118654757 0.75 forward I I I I #
loop $-1 $-1 $150 $38 #
coedge $-1 $94 $94 $151 $152 reversed $59 $-1 #
face $-1 $-1 $153 $31 $-1 $154 forward single #
loop $-1 $155 $156 $61 #
cone-surface $-1 11.43191133654625 31.282107363596843 5.2368700037549196 0 -0.57357644374324357 -0.81915203911291934 0.75 0 0 1 I I -0.70710678118654757 0.70710678118654757 0.75 forward I I I I #
loop $-1 $-1 $157 $39 #
coedge $-1 $99 $99 $158 $159 reversed $62 $-1 #
face $-1 $160 $161 $24 $-1 $162 reversed single #
loop $-1 $-1 $163 $64 #
plane-surface $-1 0 -40.676597428333444 0 0 1 0 0 0 1 forward_v I I I I #
coedge $-1 $164 $165 $166 $167 forward $65 $-1 #
coedge $-1 $168 $67 $169 $170 forward $41 $-1 #
coedge $-1 $67 $168 $171 $172 forward $41 $-1 #
coedge $-1 $173 $174 $67 $107 reversed $175 $-1 #
edge $-1 $176 -40.676597428333444 $177 40.676597428333444 $106 $178 forward 7 unknown #
face $-1 $179 $180 $25 $-1 $181 reversed single #
loop $-1 $-1 $182 $68 #
plane-surface $-1 0 0 14.439590013333198 0 0 1 1 0 0 forward_v I I I I #
coedge $-1 $183 $184 $185 $186 reversed $69 $-1 #
coedge $-1 $187 $71 $188 $189 reversed $44 $-1 #
coedge $-1 $71 $187 $190 $191 reversed $44 $-1 #
coedge $-1 $184 $183 $71 $115 reversed $69 $-1 #
edge $-1 $192 -14.439590013333198 $193 14.439590013333198 $114 $194 forward 7 unknown #
face $-1 $195 $196 $26 $-1 $197 reversed single #
loop $-1 $-1 $122 $72 #
plane-surface $-1 0 40.676597428333444 0 0 -1 0 0 0 -1 forward_v I I I I #
coedge $-1 $198 $199 $200 $201 reversed $73 $-1 #
coedge $-1 $121 $75 $202 $203 reversed $47 $-1 #
coedge $-1 $75 $120 $198 $204 reversed $47 $-1 #
coedge $-1 $200 $205 $75 $123 forward $117 $-1 #
edge $-1 $206 75.945094233316709 $207 84.052010420793081 $122 $208 forward 7 unknown #
loop $-1 $-1 $129 $76 #
plane-surface $-1 -69.98954414089701 -25.964038026855896 52.994950018894954 0 0.57357644374324357 0.81915203911291934 1 0 0 forward_v I I I I #
loop $-1 $-1 $209 $49 #
coedge $-1 $127 $127 $128 $210 reversed $77 $-1 #
coedge $-1 $128 $128 $127 $210 forward $79 $-1 #
coedge $-1 $129 $129 $80 $130 forward $124 $-1 #
edge $-1 $211 0 $211 6.2831853071796004 $129 $212 forward 7 unknown #
loop $-1 $-1 $136 $81 #
plane-surface $-1 -69.98954414089701 -25.964038026855896 52.994950018894954 0 0.57357644374324357 0.81915203911291934 1 0 0 forward_v I I I I #
loop $-1 $-1 $213 $52 #
coedge $-1 $134 $134 $135 $214 reversed $82 $-1 #
coedge $-1 $135 $135 $134 $214 forward $84 $-1 #
coedge $-1 $136 $136 $85 $137 forward $131 $-1 #
edge $-1 $215 0 $215 6.2831853071796004 $136 $216 forward 7 unknown #
face $-1 $217 $218 $29 $-1 $219 reversed single #
loop $-1 $-1 $220 $86 #
plane-surface $-1 3.5527136788005009e-015 63.504574697683033 180.76936849329982 1 0 0 0 -0.57357644374324357 -0.81915203911291934 forward_v I I I I #
coedge $-1 $221 $222 $223 $224 reversed $87 $-1 #
coedge $-1 $143 $89 $225 $226 reversed $56 $-1 #
coedge $-1 $89 $142 $221 $227 reversed $56 $-1 #
coedge $-1 $223 $228 $89 $145 forward $218 $-1 #
edge $-1 $229 75.945094233316709 $230 84.052010420793081 $144 $231 forward 7 unknown #
loop $-1 $-1 $151 $90 #
plane-surface $-1 8.0023379355823749 -25.964038026855896 52.994950018894954 0 0.57357644374324357 0.81915203911291934 1 0 0 forward_v I I I I #
loop $-1 $-1 $232 $58 #
coedge $-1 $149 $149 $150 $233 reversed $91 $-1 #
coedge $-1 $150 $150 $149 $233 forward $93 $-1 #
coedge $-1 $151 $151 $94 $152 forward $146 $-1 #
edge $-1 $234 0 $234 6.2831853071796004 $151 $235 forward 7 unknown #
loop $-1 $-1 $158 $95 #
plane-surface $-1 8.0023379355823749 -25.964038026855896 52.994950018894954 0 0.57357644374324357 0.81915203911291934 1 0 0 forward_v I I I I #
loop $-1 $-1 $236 $61 #
coedge $-1 $156 $156 $157 $237 reversed $96 $-1 #
coedge $-1 $157 $157 $156 $237 forward $98 $-1 #
coedge $-1 $158 $158 $99 $159 forward $153 $-1 #
edge $-1 $238 0 $238 6.2831853071796004 $158 $239 forward 7 unknown #
face $-1 $240 $241 $24 $-1 $242 reversed single #
loop $-1 $-1 $243 $100 #
plane-surface $-1 -77.991882076479385 0 0 1 0 0 0 0 -1 forward_v I I I I #
coedge $-1 $244 $171 $245 $246 forward $101 $-1 #
coedge $-1 $247 $103 $244 $248 forward $65 $-1 #
coedge $-1 $103 $247 $249 $250 forward $65 $-1 #
coedge $-1 $174 $173 $103 $167 reversed $175 $-1 #
edge $-1 $251 -40.676597428333444 $252 40.676597428333444 $166 $253 forward 7 unknown #
coedge $-1 $105 $104 $254 $255 forward $41 $-1 #
coedge $-1 $256 $257 $104 $170 reversed $241 $-1 #
edge $-1 $177 -77.991882076479385 $258 77.991882076479385 $169 $259 forward 7 unknown #
coedge $-1 $163 $260 $105 $172 reversed $101 $-1 #
edge $-1 $261 -77.991882076479385 $176 77.991882076479385 $171 $262 forward 7 unknown #
coedge $-1 $166 $106 $260 $263 forward $175 $-1 #
coedge $-1 $106 $166 $256 $264 reversed $175 $-1 #
loop $-1 $-1 $173 $240 #
vertex $-1 $107 $265 #
vertex $-1 $107 $266 #
straight-curve $-1 77.991882076479385 0 14.439590013333198 0 1 0 I I #
face $-1 $267 $268 $25 $-1 $269 reversed single #
loop $-1 $-1 $270 $108 #
plane-surface $-1 -77.991882076479385 0 0 1 0 0 0 0 -1 forward_v I I I I #
coedge $-1 $190 $271 $184 $272 forward $109 $-1 #
coedge $-1 $114 $111 $273 $274 reversed $69 $-1 #
coedge $-1 $111 $114 $182 $272 reversed $69 $-1 #
coedge $-1 $275 $276 $111 $186 forward $277 $-1 #
edge $-1 $278 -14.439590013333198 $279 14.439590013333198 $185 $280 forward 7 unknown #
coedge $-1 $113 $112 $270 $281 reversed $44 $-1 #
coedge $-1 $273 $282 $112 $189 forward $268 $-1 #
edge $-1 $283 -40.12818874479683 $193 -35.599197918568279 $188 $284 forward 7 unknown #
coedge $-1 $285 $182 $113 $191 forward $109 $-1 #
edge $-1 $192 35.599197918568279 $286 40.12818874479683 $190 $287 forward 7 unknown #
vertex $-1 $191 $288 #
vertex $-1 $189 $289 #
straight-curve $-1 -73.462891250250834 -30.608113286549475 0 0 0 -1 I I #
face $-1 $-1 $290 $26 $-1 $291 forward single #
loop $-1 $-1 $292 $116 #
plane-surface $-1 -77.991882076479385 0 0 1 0 0 0 0 -1 forward_v I I I I #
coedge $-1 $293 $119 $121 $204 forward $73 $-1 #
coedge $-1 $119 $293 $292 $294 reversed $73 $-1 #
coedge $-1 $295 $122 $119 $201 forward $117 $-1 #
edge $-1 $207 26.99243413486613 $296 42.99711000603088 $200 $297 forward 7 unknown #
coedge $-1 $298 $299 $120 $203 forward $290 $-1 #
edge $-1 $300 -2.6535658921048118 $206 8.9243100794919279 $202 $301 forward 7 unknown #
edge $-1 $207 -81.353194856666889 $300 -67.219217989399709 $121 $302 forward 7 unknown #
coedge $-1 $122 $295 $298 $303 reversed $117 $-1 #
vertex $-1 $303 $304 #
vertex $-1 $123 $305 #
straight-curve $-1 -61.987206205314635 40.676597428333444 90.384684246649911 0 0 -1 I I #
coedge $-1 $209 $209 $-1 $306 reversed $126 $-1 #
edge $-1 $307 0 $307 6.2831853071796004 $127 $308 forward 7 unknown #
vertex $-1 $130 $309 #
ellipse-curve $-1 -73.419117541860885 34.887659442535082 10.386131919595016 0 0.57357644374324357 0.81915203911291934 1.5 0 0 1 I I #
coedge $-1 $213 $213 $-1 $310 reversed $133 $-1 #
edge $-1 $311 0 $311 6.2831853071796004 $134 $312 forward 7 unknown #
vertex $-1 $137 $313 #
ellipse-curve $-1 -66.559970739933135 34.887659442535082 10.386131919595016 0 0.57357644374324357 0.81915203911291934 1.5 0 0 1 I I #
face $-1 $-1 $314 $29 $-1 $315 forward single #
loop $-1 $-1 $144 $138 #
plane-surface $-1 0 40.676597428333444 0 0 -1 0 0 0 -1 forward_v I I I I #
coedge $-1 $316 $317 $318 $319 reversed $139 $-1 #
coedge $-1 $320 $141 $143 $227 forward $87 $-1 #
coedge $-1 $141 $320 $316 $321 forward $87 $-1 #
coedge $-1 $318 $144 $141 $224 forward $218 $-1 #
edge $-1 $230 -12.003506903373559 $322 4.0011689677911839 $223 $323 forward 7 unknown #
coedge $-1 $324 $325 $142 $226 forward $314 $-1 #
edge $-1 $326 -2.6535658921048118 $229 8.9243100794919279 $225 $327 forward 7 unknown #
edge $-1 $230 -81.353194856666889 $326 -67.219217989399709 $143 $328 forward 7 unknown #
coedge $-1 $144 $318 $324 $329 reversed $218 $-1 #
vertex $-1 $329 $330 #
vertex $-1 $145 $331 #
straight-curve $-1 16.004675871164746 40.676597428333444 90.384684246649911 0 0 -1 I I #
coedge $-1 $232 $232 $-1 $332 reversed $148 $-1 #
edge $-1 $333 0 $333 6.2831853071796004 $149 $334 forward 7 unknown #
vertex $-1 $152 $335 #
ellipse-curve $-1 4.5727645346185 34.887659442535082 10.386131919595016 0 0.57357644374324357 0.81915203911291934 1.5 0 0 1 I I #
coedge $-1 $236 $236 $-1 $336 reversed $155 $-1 #
edge $-1 $337 0 $337 6.2831853071796004 $156 $338 forward 7 unknown #
vertex $-1 $159 $339 #
ellipse-curve $-1 11.43191133654625 34.887659442535082 10.386131919595016 0 0.57357644374324357 0.81915203911291934 1.5 0 0 1 I I #
face $-1 $-1 $175 $24 $-1 $340 reversed single #
loop $-1 $-1 $256 $160 #
plane-surface $-1 0 40.676597428333444 0 0 -1 0 0 0 -1 forward_v I I I I #
coedge $-1 $341 $254 $257 $342 forward $161 $-1 #
coedge $-1 $260 $163 $164 $248 reversed $101 $-1 #
coedge $-1 $254 $341 $163 $246 reversed $161 $-1 #
edge $-1 $261 -14.439590013333198 $343 14.439590013333198 $245 $344 forward 7 unknown #
coedge $-1 $165 $164 $341 $345 forward $65 $-1 #
edge $-1 $252 -77.991882076479385 $343 77.991882076479385 $244 $346 forward 7 unknown #
coedge $-1 $257 $256 $165 $250 reversed $241 $-1 #
edge $-1 $347 -77.991882076479385 $251 77.991882076479385 $249 $348 forward 7 unknown #
vertex $-1 $167 $349 #
vertex $-1 $263 $350 #
straight-curve $-1 77.991882076479385 0 -14.439590013333198 0 -1 0 I I #
coedge $-1 $243 $245 $168 $255 reversed $161 $-1 #
edge $-1 $258 -40.676597428333444 $261 40.676597428333444 $254 $351 forward 7 unknown #
coedge $-1 $249 $169 $174 $264 forward $241 $-1 #
coedge $-1 $169 $249 $243 $342 reversed $241 $-1 #
vertex $-1 $170 $352 #
straight-curve $-1 0 40.676597428333444 14.439590013333198 -1 0 0 I I #
coedge $-1 $171 $244 $173 $263 reversed $101 $-1 #
vertex $-1 $255 $353 #
straight-curve $-1 0 -40.676597428333444 14.439590013333198 1 0 0 I I #
edge $-1 $176 -14.439590013333198 $252 14.439590013333198 $173 $354 forward 7 unknown #
edge $-1 $177 -14.439590013333198 $251 14.439590013333198 $174 $355 forward 7 unknown #
point $-1 77.991882076479385 -40.676597428333444 14.439590013333198 #
point $-1 77.991882076479385 40.676597428333444 14.439590013333198 #
face $-1 $-1 $277 $25 $-1 $356 reversed single #
loop $-1 $-1 $273 $179 #
plane-surface $-1 0 0 -14.439590013333198 0 0 1 1 0 0 forward_v I I I I #
coedge $-1 $357 $358 $187 $281 forward $180 $-1 #
coedge $-1 $182 $285 $275 $359 forward $109 $-1 #
edge $-1 $279 -22.855419749612714 $192 -12.786935607828745 $182 $360 forward 7 unknown #
coedge $-1 $361 $188 $183 $274 forward $268 $-1 #
edge $-1 $193 12.786935607828745 $278 22.855419749612714 $273 $362 forward 7 unknown #
coedge $-1 $363 $185 $271 $359 reversed $277 $-1 #
coedge $-1 $185 $363 $361 $364 reversed $277 $-1 #
loop $-1 $-1 $185 $267 #
vertex $-1 $364 $365 #
vertex $-1 $186 $366 #
straight-curve $-1 -73.462891250250834 -40.676597428333444 0 0 0 1 I I #
edge $-1 $286 -14.439590013333198 $283 14.439590013333198 $270 $367 forward 7 unknown #
coedge $-1 $188 $361 $357 $368 forward $268 $-1 #
vertex $-1 $189 $369 #
straight-curve $-1 -37.863693331682555 -30.608113286549475 -14.439590013333198 1 0 0 I I #
coedge $-1 $271 $190 $358 $370 forward $109 $-1 #
vertex $-1 $370 $371 #
straight-curve $-1 -37.863693331682555 -30.608113286549475 14.439590013333198 -1 0 0 I I #
point $-1 -73.462891250250834 -30.608113286549475 14.439590013333198 #
point $-1 -73.462891250250834 -30.608113286549475 -14.439590013333198 #
loop $-1 $-1 $202 $195 #
plane-surface $-1 0 0 14.439590013333198 0 0 1 1 0 0 forward_v I I I I #
coedge $-1 $372 $373 $199 $294 forward $196 $-1 #
coedge $-1 $199 $198 $299 $374 reversed $73 $-1 #
edge $-1 $296 -55.520620025920337 $375 -41.386643158653158 $292 $376 forward 7 unknown #
coedge $-1 $205 $200 $373 $377 reversed $117 $-1 #
vertex $-1 $294 $378 #
straight-curve $-1 -34.994772070448505 40.676597428333444 6.3326738258568263 -1 0 0 I I #
coedge $-1 $379 $202 $205 $303 forward $290 $-1 #
coedge $-1 $202 $379 $293 $374 forward $290 $-1 #
vertex $-1 $203 $380 #
straight-curve $-1 -61.987206205314635 31.752287348841516 14.439590013333202 0 1 0 I I #
straight-curve $-1 -61.987206205314635 -25.964038026855896 52.994950018894954 0 -0.81915203911291934 0.57357644374324357 I I #
edge $-1 $206 61.987206205314635 $381 77.991882076479385 $205 $382 forward 7 unknown #
point $-1 -61.987206205314635 40.676597428333444 14.439590013333198 #
point $-1 -61.987206205314635 40.676597428333444 6.3326738258568298 #
edge $-1 $383 1 $383 0 $209 $-1 forward 7 unknown #
vertex $-1 $210 $384 #
ellipse-curve $-1 -73.419117541860885 31.712289696404277 5.8512340330896091 0 0.57357644374324357 0.81915203911291934 1.5 0 0 1 I I #
point $-1 -71.919117541860885 34.887659442535082 10.386131919595016 #
edge $-1 $385 1 $385 0 $213 $-1 forward 7 unknown #
vertex $-1 $214 $386 #
ellipse-curve $-1 -66.559970739933135 31.712289696404277 5.8512340330896091 0 0.57357644374324357 0.81915203911291934 1.5 0 0 1 I I #
point $-1 -65.059970739933135 34.887659442535082 10.386131919595016 #
loop $-1 $-1 $225 $217 #
plane-surface $-1 0 0 14.439590013333198 0 0 1 1 0 0 forward_v I I I I #
coedge $-1 $317 $220 $222 $321 reversed $139 $-1 #
coedge $-1 $220 $316 $387 $388 reversed $139 $-1 #
coedge $-1 $228 $223 $220 $319 forward $218 $-1 #
edge $-1 $322 -84.052010420793081 $389 -75.945094233316709 $318 $390 forward 7 unknown #
coedge $-1 $222 $221 $325 $391 reversed $87 $-1 #
edge $-1 $392 67.219217989399709 $322 81.353194856666889 $316 $393 forward 7 unknown #
vertex $-1 $224 $394 #
straight-curve $-1 4.0011689677911875 40.676597428333444 6.3326738258568263 -1 0 0 I I #
coedge $-1 $387 $225 $228 $329 forward $314 $-1 #
coedge $-1 $225 $387 $320 $391 forward $314 $-1 #
vertex $-1 $226 $395 #
straight-curve $-1 16.004675871164746 31.752287348841516 14.439590013333202 0 1 0 I I #
straight-curve $-1 16.004675871164746 -25.964038026855896 52.994950018894954 0 -0.81915203911291934 0.57357644374324357 I I #
edge $-1 $229 -16.004675871164746 $389 -3.5527136788005009e-015 $228 $396 forward 7 unknown #
point $-1 16.004675871164746 40.676597428333444 14.439590013333198 #
point $-1 16.004675871164746 40.676597428333444 6.3326738258568298 #
edge $-1 $397 1 $397 0 $232 $-1 forward 7 unknown #
vertex $-1 $233 $398 #
ellipse-curve $-1 4.5727645346185 31.712289696404277 5.8512340330896091 0 0.57357644374324357 0.81915203911291934 1.5 0 0 1 I I #
point $-1 6.0727645346185 34.887659442535082 10.386131919595016 #
edge $-1 $399 1 $399 0 $236 $-1 forward 7 unknown #
vertex $-1 $237 $400 #
ellipse-curve $-1 11.43191133654625 31.712289696404277 5.8512340330896091 0 0.57357644374324357 0.81915203911291934 1.5 0 0 1 I I #
point $-1 12.93191133654625 34.887659442535082 10.386131919595016 #
plane-surface $-1 77.991882076479385 0 0 -1 0 0 0 0 1 forward_v I I I I #
coedge $-1 $245 $243 $247 $345 reversed $161 $-1 #
edge $-1 $258 -14.439590013333198 $347 14.439590013333198 $257 $401 forward 7 unknown #
vertex $-1 $345 $402 #
straight-curve $-1 -77.991882076479385 -40.676597428333444 0 0 0 -1 I I #
edge $-1 $343 -40.676597428333444 $347 40.676597428333444 $341 $403 forward 7 unknown #
straight-curve $-1 0 -40.676597428333444 -14.439590013333198 -1 0 0 I I #
vertex $-1 $250 $404 #
straight-curve $-1 0 40.676597428333444 -14.439590013333198 1 0 0 I I #
point $-1 77.991882076479385 40.676597428333444 -14.439590013333198 #
point $-1 77.991882076479385 -40.676597428333444 -14.439590013333198 #
straight-curve $-1 -77.991882076479385 0 14.439590013333198 0 -1 0 I I #
point $-1 -77.991882076479385 40.676597428333444 14.439590013333198 #
point $-1 -77.991882076479385 -40.676597428333444 14.439590013333198 #
straight-curve $-1 77.991882076479385 -40.676597428333444 0 0 0 -1 I I #
straight-curve $-1 77.991882076479385 40.676597428333444 0 0 0 -1 I I #
plane-surface $-1 0 -40.676597428333444 0 0 1 0 0 0 1 forward_v I I I I #
coedge $-1 $405 $270 $282 $368 reversed $180 $-1 #
coedge $-1 $270 $405 $285 $370 reversed $180 $-1 #
edge $-1 $406 -77.991882076479385 $279 -73.462891250250834 $275 $407 forward 7 unknown #
straight-curve $-1 -73.462891250250834 -17.82117767872073 14.439590013333198 0 1 0 I I #
coedge $-1 $282 $273 $276 $364 forward $268 $-1 #
straight-curve $-1 -73.462891250250834 -17.82117767872073 -14.439590013333198 0 -1 0 I I #
coedge $-1 $276 $275 $405 $408 forward $277 $-1 #
edge $-1 $278 73.462891250250834 $409 77.991882076479385 $276 $410 forward 7 unknown #
point $-1 -73.462891250250834 -40.676597428333444 -14.439590013333198 #
point $-1 -73.462891250250834 -40.676597428333444 14.439590013333198 #
straight-curve $-1 -77.991882076479385 -30.608113286549475 0 0 0 -1 I I #
edge $-1 $409 -40.676597428333444 $283 -30.608113286549475 $357 $411 forward 7 unknown #
point $-1 -77.991882076479385 -30.608113286549475 -14.439590013333198 #
edge $-1 $286 30.608113286549475 $406 40.676597428333444 $358 $412 forward 7 unknown #
point $-1 -77.991882076479385 -30.608113286549475 14.439590013333198 #
coedge $-1 $373 $292 $379 $413 reversed $196 $-1 #
coedge $-1 $292 $372 $295 $377 forward $196 $-1 #
edge $-1 $375 -42.99711000603088 $300 -26.99243413486613 $299 $414 forward 7 unknown #
vertex $-1 $294 $415 #
straight-curve $-1 -77.991882076479385 -4.8032316787127858 38.177993614744125 0 -0.81915203911291934 0.57357644374324357 I I #
edge $-1 $381 -14.439590013333198 $296 -6.3326738258568271 $295 $416 forward 7 unknown #
point $-1 -77.991882076479385 40.676597428333444 6.3326738258568271 #
coedge $-1 $299 $298 $372 $413 forward $290 $-1 #
point $-1 -61.987206205314635 29.098721456736705 14.439590013333209 #
vertex $-1 $303 $417 #
straight-curve $-1 0 40.676597428333444 14.439590013333198 -1 0 0 I I #
vertex $-1 $306 $418 #
point $-1 -71.919117541860885 31.712289696404277 5.8512340330896091 #
vertex $-1 $310 $419 #
point $-1 -65.059970739933135 31.712289696404277 5.8512340330896091 #
coedge $-1 $325 $324 $317 $388 forward $314 $-1 #
edge $-1 $389 -8.9243100794919279 $392 2.6535658921048118 $387 $420 forward 7 unknown #
vertex $-1 $388 $421 #
straight-curve $-1 3.5527136788005009e-015 40.676597428333444 90.384684246649911 0 0 1 I I #
edge $-1 $392 -4.0011689677911839 $326 12.003506903373559 $325 $422 forward 7 unknown #
vertex $-1 $391 $423 #
straight-curve $-1 3.5527136788005009e-015 -25.964038026855896 52.994950018894954 0 0.81915203911291934 -0.57357644374324357 I I #
point $-1 3.5527136788005009e-015 40.676597428333444 6.3326738258568298 #
point $-1 16.004675871164746 29.098721456736705 14.439590013333209 #
straight-curve $-1 0 40.676597428333444 14.439590013333198 -1 0 0 I I #
vertex $-1 $332 $424 #
point $-1 6.0727645346185 31.712289696404277 5.8512340330896091 #
vertex $-1 $336 $425 #
point $-1 12.93191133654625 31.712289696404277 5.8512340330896091 #
straight-curve $-1 -77.991882076479385 40.676597428333444 0 0 0 -1 I I #
point $-1 -77.991882076479385 -40.676597428333444 -14.439590013333198 #
straight-curve $-1 -77.991882076479385 0 -14.439590013333198 0 1 0 I I #
point $-1 -77.991882076479385 40.676597428333444 -14.439590013333198 #
coedge $-1 $358 $357 $363 $408 reversed $180 $-1 #
vertex $-1 $370 $426 #
straight-curve $-1 0 -40.676597428333444 14.439590013333198 1 0 0 I I #
edge $-1 $406 -14.439590013333198 $409 14.439590013333198 $405 $427 forward 7 unknown #
vertex $-1 $368 $428 #
straight-curve $-1 0 -40.676597428333444 -14.439590013333198 -1 0 0 I I #
straight-curve $-1 -77.991882076479385 0 -14.439590013333198 0 1 0 I I #
straight-curve $-1 -77.991882076479385 0 14.439590013333198 0 -1 0 I I #
edge $-1 $381 -40.676597428333444 $375 -29.098721456736705 $372 $429 forward 7 unknown #
straight-curve $-1 -34.994772070448505 29.098721456736726 14.439590013333198 1 0 0 I I #
point $-1 -77.991882076479385 29.098721456736705 14.439590013333209 #
straight-curve $-1 -77.991882076479385 40.676597428333444 0 0 0 -1 I I #
point $-1 -77.991882076479385 40.676597428333444 14.439590013333198 #
point $-1 -73.419117541860885 30.85192503078941 4.6225059744202301 #
point $-1 -66.559970739933135 30.85192503078941 4.6225059744202301 #
straight-curve $-1 3.5527136788005009e-015 31.752287348841516 14.439590013333202 0 -1 0 I I #
point $-1 3.5527136788005009e-015 40.676597428333444 14.439590013333198 #
straight-curve $-1 4.0011689677911875 29.098721456736726 14.439590013333198 1 0 0 I I #
point $-1 3.5527136788005009e-015 29.098721456736705 14.439590013333209 #
point $-1 4.5727645346185 30.85192503078941 4.6225059744202301 #
point $-1 11.43191133654625 30.85192503078941 4.6225059744202301 #
point $-1 -77.991882076479385 -40.676597428333444 14.439590013333198 #
straight-curve $-1 -77.991882076479385 -40.676597428333444 0 0 0 -1 I I #
point $-1 -77.991882076479385 -40.676597428333444 -14.439590013333198 #
straight-curve $-1 -77.991882076479385 0 14.439590013333198 0 -1 0 I I #
End-of-ACIS-data 