500 0 10 0           
7 Unknown 11 ACIS 5.0 NT 24 Thu Mar 25 23:25:29 1999 
-1 9.9999999999999995e-007 1e-010 
body $-1 $10 $-1 $11 #
body $-1 $12 $-1 $13 #
body $-1 $14 $-1 $15 #
body $-1 $16 $-1 $17 #
body $-1 $18 $-1 $19 #
body $-1 $20 $-1 $21 #
body $-1 $22 $-1 $23 #
body $-1 $24 $-1 $25 #
body $-1 $26 $-1 $27 #
body $-1 $28 $-1 $29 #
lump $-1 $-1 $30 $0 #
transform $-1 1 0 0 0 1 0 0 0 1 69.17935728019043 32.669073723020439 14.077203269289676 1 rotate no_reflect no_shear #
lump $-1 $-1 $31 $1 #
transform $-1 1 0 0 0 1 0 0 0 1 69.17935728019043 32.669073723020439 14.077203269289676 1 rotate no_reflect no_shear #
lump $-1 $-1 $32 $2 #
transform $-1 1 0 0 0 1 0 0 0 1 69.17935728019043 32.669073723020439 14.077203269289676 1 rotate no_reflect no_shear #
lump $-1 $-1 $33 $3 #
transform $-1 1 0 0 0 1 0 0 0 1 69.17935728019043 32.669073723020439 14.077203269289676 1 rotate no_reflect no_shear #
lump $-1 $-1 $34 $4 #
transform $-1 1 0 0 0 1 0 0 0 1 69.17935728019043 32.669073723020439 14.077203269289676 1 rotate no_reflect no_shear #
lump $-1 $-1 $35 $5 #
transform $-1 1 0 0 0 1 0 0 0 1 69.17935728019043 32.669073723020439 14.077203269289676 1 rotate no_reflect no_shear #
lump $-1 $-1 $36 $6 #
transform $-1 1 0 0 0 1 0 0 0 1 69.17935728019043 32.669073723020439 14.077203269289676 1 rotate no_reflect no_shear #
lump $-1 $-1 $37 $7 #
transform $-1 1 0 0 0 1 0 0 0 1 69.17935728019043 32.669073723020439 14.077203269289676 1 rotate no_reflect no_shear #
lump $-1 $-1 $38 $8 #
transform $-1 1 0 0 0 1 0 0 0 1 69.17935728019043 32.669073723020439 14.077203269289676 1 rotate no_reflect no_shear #
lump $-1 $-1 $39 $9 #
transform $-1 1 0 0 0 1 0 0 0 1 69.17935728019043 32.669073723020439 14.077203269289676 1 rotate no_reflect no_shear #
shell $-1 $-1 $-1 $40 $-1 $10 #
shell $-1 $-1 $-1 $41 $-1 $12 #
shell $-1 $-1 $-1 $42 $-1 $14 #
shell $-1 $-1 $-1 $43 $-1 $16 #
shell $-1 $-1 $-1 $44 $-1 $18 #
shell $-1 $-1 $-1 $45 $-1 $20 #
shell $-1 $-1 $-1 $46 $-1 $22 #
shell $-1 $-1 $-1 $47 $-1 $24 #
shell $-1 $-1 $-1 $48 $-1 $26 #
shell $-1 $-1 $-1 $49 $-1 $28 #
face $-1 $50 $51 $30 $-1 $52 reversed single #
face $-1 $53 $54 $31 $-1 $55 forward single #
face $-1 $56 $57 $32 $-1 $58 forward single #
face $-1 $59 $60 $33 $-1 $61 reversed single #
face $-1 $62 $63 $34 $-1 $64 forward single #
face $-1 $65 $66 $35 $-1 $67 forward single #
face $-1 $68 $69 $36 $-1 $70 reversed single #
face $-1 $71 $72 $37 $-1 $73 forward single #
face $-1 $74 $75 $38 $-1 $76 forward single #
face $-1 $77 $78 $39 $-1 $79 forward single #
face $-1 $80 $81 $30 $-1 $82 forward single #
loop $-1 $-1 $83 $40 #
plane-surface $-1 69.17935728019043 0 0 -1 0 0 0 0 1 forward_v I I I I #
face $-1 $84 $85 $31 $-1 $86 reversed single #
loop $-1 $-1 $87 $41 #
plane-surface $-1 -62.914973900364537 0 -8.7851165566896796 0 0 1 1 0 0 forward_v I I I I #
face $-1 $88 $89 $32 $-1 $90 reversed single #
loop $-1 $-1 $91 $42 #
plane-surface $-1 69.17935728019043 0 0 -1 0 0 0 0 1 forward_v I I I I #
face $-1 $92 $93 $33 $-1 $94 reversed single #
loop $-1 $-1 $95 $43 #
plane-surface $-1 16.93026611232807 -103.92908066515548 125.66640851376656 1 0 0 0 0.51503808176128008 -0.85716729658548041 forward_v I I I I #
face $-1 $96 $97 $34 $-1 $98 forward single #
loop $-1 $99 $100 $44 #
cone-surface $-1 23.575661461972146 -24.844491354862612 7.2558159703103904 0 0.51503808176128008 -0.85716729658548041 2.5 0 0 1 I I 0 1 2.5 forward I I I I #
face $-1 $101 $102 $35 $-1 $103 forward single #
loop $-1 $104 $105 $45 #
cone-surface $-1 33.543754486438274 -24.844491354862612 7.2558159703103904 0 0.51503808176128008 -0.85716729658548041 2.5 0 0 1 I I 0 1 2.5 forward I I I I #
face $-1 $106 $107 $36 $-1 $108 reversed single #
loop $-1 $-1 $109 $46 #
plane-surface $-1 0.088818707533718566 108.52947771484841 136.59577475592602 1 0 0 0 -0.81915205242281985 -0.57357642473473569 forward_v I I I I #
face $-1 $110 $111 $37 $-1 $112 forward single #
loop $-1 $113 $114 $47 #
cone-surface $-1 5.2656669192602124 27.912431609146818 8.1056084746291521 0 -0.81915205242281985 -0.57357642473473569 2.5 0 0 1 I I 0 1 2.5 forward I I I I #
face $-1 $115 $116 $38 $-1 $117 forward single #
loop $-1 $118 $119 $48 #
cone-surface $-1 13.030939236849946 27.912431609146818 8.1056084746291521 0 -0.81915205242281985 -0.57357642473473569 2.5 0 0 1 I I 0 1 2.5 forward I I I I #
face $-1 $120 $121 $39 $-1 $122 forward single #
loop $-1 $123 $124 $49 #
cone-surface $-1 20.79621155443968 27.912431609146818 8.1056084746291521 0 -0.81915205242281985 -0.57357642473473569 2.5 0 0 1 I I 0 1 2.5 forward I I I I #
face $-1 $125 $126 $30 $-1 $127 reversed single #
loop $-1 $-1 $128 $50 #
plane-surface $-1 0 0 14.077203269289676 0 0 1 1 0 0 forward_v I I I I #
coedge $-1 $129 $130 $131 $132 reversed $51 $-1 #
face $-1 $133 $134 $31 $-1 $135 reversed single #
loop $-1 $-1 $136 $53 #
plane-surface $-1 -56.650590520538643 0 -11.431159912989678 -1 0 0 0 0 1 forward_v I I I I #
coedge $-1 $137 $138 $139 $140 forward $54 $-1 #
face $-1 $141 $142 $32 $-1 $143 reversed single #
loop $-1 $-1 $144 $56 #
plane-surface $-1 0 0 -14.077203269289676 0 0 1 1 0 0 forward_v I I I I #
coedge $-1 $145 $146 $147 $148 forward $57 $-1 #
face $-1 $149 $150 $33 $-1 $151 reversed single #
loop $-1 $-1 $152 $59 #
plane-surface $-1 28.55970797420521 -32.669073723020432 7.0698431950027469 0 -0.51503808176128008 0.85716729658548041 1 0 0 forward_v I I I I #
coedge $-1 $153 $154 $155 $156 reversed $60 $-1 #
face $-1 $-1 $157 $34 $-1 $158 forward single #
loop $-1 $159 $160 $62 #
cone-surface $-1 23.575661461972146 -22.207214077470223 2.8666495877427209 0 0.51503808176128008 -0.85716729658548041 1.25 0 0 1 I I -0.70710678118654746 0.70710678118654746 1.25 forward I I I I #
loop $-1 $-1 $161 $44 #
coedge $-1 $100 $100 $162 $163 reversed $63 $-1 #
face $-1 $-1 $164 $35 $-1 $165 forward single #
loop $-1 $166 $167 $65 #
cone-surface $-1 33.543754486438274 -22.207214077470223 2.8666495877427209 0 0.51503808176128008 -0.85716729658548041 1.25 0 0 1 I I -0.70710678118654746 0.70710678118654746 1.25 forward I I I I #
loop $-1 $-1 $168 $45 #
coedge $-1 $105 $105 $169 $170 reversed $66 $-1 #
face $-1 $171 $172 $36 $-1 $173 reversed single #
loop $-1 $-1 $174 $68 #
plane-surface $-1 13.030939236849946 -4.8073472878706554 57.236477927488949 0 0.81915205242281985 0.57357642473473569 1 0 0 forward_v I I I I #
coedge $-1 $175 $176 $177 $178 reversed $69 $-1 #
face $-1 $-1 $179 $37 $-1 $180 forward single #
loop $-1 $181 $182 $71 #
cone-surface $-1 5.2656669192602124 25.759835661579679 6.5983446109151913 0 -0.81915205242281985 -0.57357642473473569 1.25 0 0 1 I I -0.70710678118654746 0.70710678118654746 1.25 forward I I I I #
loop $-1 $-1 $183 $47 #
coedge $-1 $114 $114 $184 $185 reversed $72 $-1 #
face $-1 $-1 $186 $38 $-1 $187 forward single #
loop $-1 $188 $189 $74 #
cone-surface $-1 13.030939236849946 25.759835661579679 6.5983446109151913 0 -0.81915205242281985 -0.57357642473473569 1.25 0 0 1 I I -0.70710678118654746 0.70710678118654746 1.25 forward I I I I #
loop $-1 $-1 $190 $48 #
coedge $-1 $119 $119 $191 $192 reversed $75 $-1 #
face $-1 $-1 $193 $39 $-1 $194 forward single #
loop $-1 $195 $196 $77 #
cone-surface $-1 20.79621155443968 25.759835661579679 6.5983446109151913 0 -0.81915205242281985 -0.57357642473473569 1.25 0 0 1 I I -0.70710678118654746 0.70710678118654746 1.25 forward I I I I #
loop $-1 $-1 $197 $49 #
coedge $-1 $124 $124 $198 $199 reversed $78 $-1 #
face $-1 $200 $201 $30 $-1 $202 reversed single #
loop $-1 $-1 $131 $80 #
plane-surface $-1 0 0 -14.077203269289676 0 0 1 1 0 0 forward_v I I I I #
coedge $-1 $203 $204 $205 $206 forward $81 $-1 #
coedge $-1 $205 $83 $207 $208 reversed $51 $-1 #
coedge $-1 $83 $205 $209 $210 forward $51 $-1 #
coedge $-1 $211 $212 $83 $132 forward $126 $-1 #
edge $-1 $213 -32.669073723020439 $214 32.669073723020439 $83 $215 forward 7 unknown #
face $-1 $216 $217 $31 $-1 $218 reversed single #
loop $-1 $-1 $219 $84 #
plane-surface $-1 0 0 -14.077203269289676 0 0 1 1 0 0 forward_v I I I I #
coedge $-1 $220 $139 $221 $222 reversed $85 $-1 #
coedge $-1 $223 $87 $224 $225 reversed $54 $-1 #
coedge $-1 $87 $223 $226 $227 reversed $54 $-1 #
coedge $-1 $136 $228 $87 $140 reversed $85 $-1 #
edge $-1 $229 -32.669073723020439 $230 32.669073723020439 $139 $231 forward 7 unknown #
face $-1 $232 $233 $32 $-1 $234 reversed single #
loop $-1 $-1 $147 $88 #
plane-surface $-1 75.063647149825016 -10.156117027586641 0 0 1 0 0 0 1 forward_v I I I I #
coedge $-1 $235 $236 $146 $237 forward $89 $-1 #
coedge $-1 $238 $91 $239 $240 reversed $57 $-1 #
coedge $-1 $91 $238 $144 $237 reversed $57 $-1 #
coedge $-1 $241 $242 $91 $148 reversed $142 $-1 #
edge $-1 $243 -14.077203269289676 $244 14.077203269289676 $147 $245 forward 7 unknown #
face $-1 $246 $247 $33 $-1 $248 forward single #
loop $-1 $-1 $249 $92 #
plane-surface $-1 40.18914983608235 -103.92908066515548 125.66640851376656 -1 0 0 0 -0.51503808176128008 0.85716729658548041 forward_v I I I I #
coedge $-1 $250 $251 $252 $253 reversed $93 $-1 #
coedge $-1 $154 $95 $254 $255 reversed $60 $-1 #
coedge $-1 $95 $153 $250 $256 reversed $60 $-1 #
coedge $-1 $252 $257 $95 $156 forward $258 $-1 #
edge $-1 $259 48.756000987593602 $260 55.763361061880538 $155 $261 forward 7 unknown #
loop $-1 $-1 $162 $96 #
plane-surface $-1 28.55970797420521 -32.669073723020432 7.0698431950027469 0 -0.51503808176128008 0.85716729658548041 1 0 0 forward_v I I I I #
loop $-1 $-1 $262 $62 #
coedge $-1 $160 $160 $161 $263 reversed $97 $-1 #
coedge $-1 $161 $161 $160 $263 forward $99 $-1 #
coedge $-1 $162 $162 $100 $163 forward $157 $-1 #
edge $-1 $264 3.6595656763529409e-016 $264 6.2831853071796004 $162 $265 forward 7 unknown #
loop $-1 $-1 $169 $101 #
plane-surface $-1 28.55970797420521 -32.669073723020432 7.0698431950027469 0 -0.51503808176128008 0.85716729658548041 1 0 0 forward_v I I I I #
loop $-1 $-1 $266 $65 #
coedge $-1 $167 $167 $168 $267 reversed $102 $-1 #
coedge $-1 $168 $168 $167 $267 forward $104 $-1 #
coedge $-1 $169 $169 $105 $170 forward $164 $-1 #
edge $-1 $268 3.6595656763529409e-016 $268 6.2831853071796004 $169 $269 forward 7 unknown #
face $-1 $270 $271 $36 $-1 $272 reversed single #
loop $-1 $-1 $273 $106 #
plane-surface $-1 25.973059766166173 108.52947771484841 136.59577475592602 -1 0 0 0 0.81915205242281985 0.57357642473473569 forward_v I I I I #
coedge $-1 $274 $275 $276 $277 reversed $107 $-1 #
coedge $-1 $176 $109 $278 $279 reversed $69 $-1 #
coedge $-1 $109 $175 $274 $280 reversed $69 $-1 #
coedge $-1 $276 $281 $109 $178 forward $282 $-1 #
edge $-1 $283 21.595665134403767 $284 28.851637598073722 $177 $285 forward 7 unknown #
loop $-1 $-1 $184 $110 #
plane-surface $-1 13.030939236849946 -4.8073472878706554 57.236477927488949 0 0.81915205242281985 0.57357642473473569 1 0 0 forward_v I I I I #
loop $-1 $-1 $286 $71 #
coedge $-1 $182 $182 $183 $287 reversed $111 $-1 #
coedge $-1 $183 $183 $182 $287 forward $113 $-1 #
coedge $-1 $184 $184 $114 $185 forward $179 $-1 #
edge $-1 $288 -2.3547425898718605e-016 $288 6.2831853071796004 $184 $289 forward 7 unknown #
loop $-1 $-1 $191 $115 #
plane-surface $-1 13.030939236849946 -4.8073472878706554 57.236477927488949 0 0.81915205242281985 0.57357642473473569 1 0 0 forward_v I I I I #
loop $-1 $-1 $290 $74 #
coedge $-1 $189 $189 $190 $291 reversed $116 $-1 #
coedge $-1 $190 $190 $189 $291 forward $118 $-1 #
coedge $-1 $191 $191 $119 $192 forward $186 $-1 #
edge $-1 $292 -2.3547425898718605e-016 $292 6.2831853071796004 $191 $293 forward 7 unknown #
loop $-1 $-1 $198 $120 #
plane-surface $-1 13.030939236849946 -4.8073472878706554 57.236477927488949 0 0.81915205242281985 0.57357642473473569 1 0 0 forward_v I I I I #
loop $-1 $-1 $294 $77 #
coedge $-1 $196 $196 $197 $295 reversed $121 $-1 #
coedge $-1 $197 $197 $196 $295 forward $123 $-1 #
coedge $-1 $198 $198 $124 $199 forward $193 $-1 #
edge $-1 $296 -2.3547425898718605e-016 $296 6.2831853071796004 $198 $297 forward 7 unknown #
face $-1 $298 $299 $30 $-1 $300 reversed single #
loop $-1 $-1 $301 $125 #
plane-surface $-1 0 -32.669073723020439 0 0 1 0 0 0 1 forward_v I I I I #
coedge $-1 $302 $128 $303 $304 forward $81 $-1 #
coedge $-1 $128 $302 $305 $306 forward $81 $-1 #
coedge $-1 $130 $129 $128 $206 reversed $51 $-1 #
edge $-1 $307 -32.669073723020439 $308 32.669073723020439 $205 $309 forward 7 unknown #
coedge $-1 $310 $303 $129 $208 forward $311 $-1 #
edge $-1 $308 -14.077203269289676 $213 14.077203269289676 $129 $312 forward 7 unknown #
coedge $-1 $305 $313 $130 $210 reversed $201 $-1 #
edge $-1 $307 -14.077203269289676 $214 14.077203269289676 $130 $314 forward 7 unknown #
coedge $-1 $315 $131 $313 $316 forward $126 $-1 #
coedge $-1 $131 $315 $310 $317 forward $126 $-1 #
vertex $-1 $132 $318 #
vertex $-1 $210 $319 #
straight-curve $-1 69.17935728019043 0 -14.077203269289676 0 -1 0 I I #
face $-1 $320 $321 $31 $-1 $322 reversed single #
loop $-1 $-1 $221 $133 #
plane-surface $-1 0 -32.669073723020439 0 0 1 0 0 0 1 forward_v I I I I #
coedge $-1 $323 $324 $220 $325 forward $134 $-1 #
coedge $-1 $228 $136 $219 $325 reversed $85 $-1 #
coedge $-1 $226 $326 $136 $222 forward $217 $-1 #
edge $-1 $327 -8.3616233127948369 $229 -3.0695366001948408 $221 $328 forward 7 unknown #
coedge $-1 $138 $137 $329 $330 reversed $54 $-1 #
coedge $-1 $331 $332 $137 $225 forward $333 $-1 #
edge $-1 $334 -37.721870330008159 $230 -25.193103570356374 $224 $335 forward 7 unknown #
coedge $-1 $336 $221 $138 $227 forward $217 $-1 #
edge $-1 $229 25.193103570356374 $337 37.721870330008159 $226 $338 forward 7 unknown #
coedge $-1 $139 $220 $331 $339 reversed $85 $-1 #
vertex $-1 $227 $340 #
vertex $-1 $225 $341 #
straight-curve $-1 -56.650590520538643 0 -8.7851165566896796 0 1 0 I I #
face $-1 $342 $343 $32 $-1 $344 reversed single #
loop $-1 $-1 $345 $141 #
plane-surface $-1 75.063647149825016 -4.5146671844410857 0 0 -1 0 0 0 -1 forward_v I I I I #
coedge $-1 $346 $144 $347 $348 forward $89 $-1 #
coedge $-1 $144 $346 $241 $349 forward $89 $-1 #
edge $-1 $243 -10.156117027586641 $350 -4.5146671844410857 $144 $351 forward 7 unknown #
coedge $-1 $146 $145 $352 $353 forward $57 $-1 #
coedge $-1 $354 $355 $145 $240 forward $356 $-1 #
edge $-1 $357 4.5146671844410857 $244 10.156117027586641 $239 $358 forward 7 unknown #
coedge $-1 $359 $147 $236 $349 reversed $142 $-1 #
coedge $-1 $147 $359 $354 $360 reversed $142 $-1 #
vertex $-1 $237 $361 #
vertex $-1 $360 $362 #
straight-curve $-1 69.17935728019043 -10.156117027586641 0 0 0 1 I I #
face $-1 $-1 $258 $33 $-1 $363 reversed single #
loop $-1 $-1 $364 $149 #
plane-surface $-1 0 0 14.077203269289676 0 0 1 1 0 0 forward_v I I I I #
coedge $-1 $365 $366 $367 $368 reversed $150 $-1 #
coedge $-1 $369 $152 $154 $256 forward $93 $-1 #
coedge $-1 $152 $369 $365 $370 forward $93 $-1 #
coedge $-1 $367 $155 $152 $253 forward $258 $-1 #
edge $-1 $260 2.6504121252254649 $371 25.909295848979745 $252 $372 forward 7 unknown #
coedge $-1 $373 $374 $153 $255 forward $247 $-1 #
edge $-1 $375 -30.957671995491388 $259 -19.295466609557302 $254 $376 forward 7 unknown #
edge $-1 $260 -8.3777685069199533e-015 $375 13.605518353757066 $154 $377 forward 7 unknown #
coedge $-1 $155 $367 $373 $378 reversed $258 $-1 #
loop $-1 $-1 $367 $246 #
vertex $-1 $378 $379 #
vertex $-1 $156 $380 #
straight-curve $-1 16.93026611232807 -32.669073723020439 62.833204256883278 0 0 -1 I I #
coedge $-1 $262 $262 $-1 $381 reversed $159 $-1 #
edge $-1 $382 0 $382 6.2831853071796004 $160 $383 forward 7 unknown #
vertex $-1 $163 $384 #
ellipse-curve $-1 23.575661461972146 -26.837971030053399 10.573523232146208 0 -0.51503808176128008 0.85716729658548041 2.5 0 0 1 I I #
coedge $-1 $266 $266 $-1 $385 reversed $166 $-1 #
edge $-1 $386 0 $386 6.2831853071796004 $167 $387 forward 7 unknown #
vertex $-1 $170 $388 #
ellipse-curve $-1 33.543754486438274 -26.837971030053399 10.573523232146208 0 -0.51503808176128008 0.85716729658548041 2.5 0 0 1 I I #
face $-1 $-1 $282 $36 $-1 $389 forward single #
loop $-1 $-1 $390 $171 #
plane-surface $-1 0 32.669073723020439 0 0 -1 0 0 0 -1 forward_v I I I I #
coedge $-1 $391 $392 $393 $394 reversed $172 $-1 #
coedge $-1 $395 $174 $176 $280 forward $107 $-1 #
coedge $-1 $174 $395 $391 $396 forward $107 $-1 #
coedge $-1 $393 $177 $174 $277 forward $282 $-1 #
edge $-1 $284 -6.4266509108912544 $397 19.4575901477412 $276 $398 forward 7 unknown #
coedge $-1 $399 $400 $175 $279 forward $271 $-1 #
edge $-1 $401 -64.58328703240322 $283 -54.220684108673332 $278 $402 forward 7 unknown #
edge $-1 $284 52.687745248939272 $401 65.338147446040821 $176 $403 forward 7 unknown #
coedge $-1 $177 $393 $399 $404 forward $282 $-1 #
loop $-1 $-1 $393 $270 #
vertex $-1 $279 $405 #
vertex $-1 $178 $406 #
straight-curve $-1 0.088818707533718566 54.264738857424206 14.077203269289676 0 -1 0 I I #
coedge $-1 $286 $286 $-1 $407 reversed $181 $-1 #
edge $-1 $408 0 $408 6.2831853071796004 $182 $409 forward 7 unknown #
vertex $-1 $185 $410 #
ellipse-curve $-1 5.2656669192602124 29.041087491185468 8.8959018074247194 0 0.81915205242281985 0.57357642473473569 2.5 0 0 1 I I #
coedge $-1 $290 $290 $-1 $411 reversed $188 $-1 #
edge $-1 $412 0 $412 6.2831853071796004 $189 $413 forward 7 unknown #
vertex $-1 $192 $414 #
ellipse-curve $-1 13.030939236849946 29.041087491185468 8.8959018074247194 0 0.81915205242281985 0.57357642473473569 2.5 0 0 1 I I #
coedge $-1 $294 $294 $-1 $415 reversed $195 $-1 #
edge $-1 $416 0 $416 6.2831853071796004 $196 $417 forward 7 unknown #
vertex $-1 $199 $418 #
ellipse-curve $-1 20.79621155443968 29.041087491185468 8.8959018074247194 0 0.81915205242281985 0.57357642473473569 2.5 0 0 1 I I #
face $-1 $-1 $311 $30 $-1 $419 reversed single #
loop $-1 $-1 $420 $200 #
plane-surface $-1 -69.17935728019043 0 0 1 0 0 0 0 -1 forward_v I I I I #
coedge $-1 $313 $305 $421 $422 forward $201 $-1 #
coedge $-1 $204 $203 $423 $424 forward $81 $-1 #
coedge $-1 $207 $425 $203 $304 reversed $311 $-1 #
edge $-1 $308 -69.17935728019043 $426 69.17935728019043 $303 $427 forward 7 unknown #
coedge $-1 $301 $209 $204 $306 reversed $201 $-1 #
edge $-1 $428 -69.17935728019043 $307 69.17935728019043 $305 $429 forward 7 unknown #
vertex $-1 $206 $430 #
vertex $-1 $206 $431 #
straight-curve $-1 69.17935728019043 0 14.077203269289676 0 1 0 I I #
coedge $-1 $425 $207 $212 $317 reversed $311 $-1 #
loop $-1 $-1 $207 $298 #
straight-curve $-1 69.17935728019043 32.669073723020439 0 0 0 -1 I I #
coedge $-1 $209 $301 $211 $316 reversed $201 $-1 #
straight-curve $-1 69.17935728019043 -32.669073723020439 0 0 0 -1 I I #
coedge $-1 $212 $211 $432 $433 forward $126 $-1 #
edge $-1 $214 -69.17935728019043 $434 69.17935728019043 $313 $435 forward 7 unknown #
edge $-1 $436 -69.17935728019043 $213 69.17935728019043 $310 $437 forward 7 unknown #
point $-1 69.17935728019043 32.669073723020439 -14.077203269289676 #
point $-1 69.17935728019043 -32.669073723020439 -14.077203269289676 #
face $-1 $-1 $333 $31 $-1 $438 reversed single #
loop $-1 $-1 $329 $216 #
plane-surface $-1 -69.17935728019043 0 0 1 0 0 0 0 -1 forward_v I I I I #
coedge $-1 $439 $219 $326 $440 forward $134 $-1 #
coedge $-1 $219 $439 $441 $442 forward $134 $-1 #
edge $-1 $443 -32.669073723020439 $327 32.669073723020439 $219 $444 forward 7 unknown #
coedge $-1 $221 $336 $323 $440 reversed $217 $-1 #
vertex $-1 $440 $445 #
straight-curve $-1 -56.650590520538643 -32.669073723020439 -5.7155799564948389 0 0 1 I I #
coedge $-1 $446 $447 $223 $330 forward $321 $-1 #
edge $-1 $337 -32.669073723020439 $334 32.669073723020439 $329 $448 forward 7 unknown #
coedge $-1 $441 $224 $228 $339 forward $333 $-1 #
coedge $-1 $224 $441 $446 $449 reversed $333 $-1 #
loop $-1 $-1 $331 $320 #
vertex $-1 $449 $450 #
straight-curve $-1 -31.457486950182268 32.669073723020439 -8.7851165566896796 1 0 0 I I #
coedge $-1 $326 $226 $447 $451 forward $217 $-1 #
vertex $-1 $451 $452 #
straight-curve $-1 -31.457486950182268 -32.669073723020439 -8.7851165566896796 -1 0 0 I I #
edge $-1 $230 3.0695366001948408 $443 8.3616233127948369 $331 $453 forward 7 unknown #
point $-1 -56.650590520538643 -32.669073723020439 -8.7851165566896796 #
point $-1 -56.650590520538643 32.669073723020439 -8.7851165566896796 #
face $-1 $-1 $356 $32 $-1 $454 forward single #
loop $-1 $-1 $455 $232 #
plane-surface $-1 80.947937019459602 -7.3353921060138632 0 -1 0 0 0 0 1 forward_v I I I I #
coedge $-1 $347 $456 $457 $458 forward $233 $-1 #
coedge $-1 $236 $235 $459 $460 forward $89 $-1 #
coedge $-1 $352 $345 $235 $348 reversed $233 $-1 #
edge $-1 $350 -5.8842898696345856 $461 5.8842898696345856 $347 $462 forward 7 unknown #
edge $-1 $463 -5.8842898696345856 $243 5.8842898696345856 $241 $464 forward 7 unknown #
vertex $-1 $348 $465 #
straight-curve $-1 69.17935728019043 0 -14.077203269289676 0 1 0 I I #
coedge $-1 $456 $347 $238 $353 reversed $233 $-1 #
edge $-1 $357 -14.077203269289676 $350 14.077203269289676 $352 $466 forward 7 unknown #
coedge $-1 $467 $239 $242 $360 forward $356 $-1 #
coedge $-1 $239 $467 $456 $468 forward $356 $-1 #
loop $-1 $-1 $239 $342 #
vertex $-1 $240 $469 #
straight-curve $-1 69.17935728019043 0 14.077203269289676 0 -1 0 I I #
coedge $-1 $242 $241 $455 $470 reversed $142 $-1 #
edge $-1 $244 -5.8842898696345856 $471 5.8842898696345856 $242 $472 forward 7 unknown #
point $-1 69.17935728019043 -10.156117027586641 -14.077203269289676 #
point $-1 69.17935728019043 -10.156117027586641 14.077203269289676 #
plane-surface $-1 0 -32.669073723020439 0 0 1 0 0 0 1 forward_v I I I I #
coedge $-1 $374 $373 $366 $473 forward $247 $-1 #
coedge $-1 $366 $249 $251 $370 reversed $150 $-1 #
coedge $-1 $249 $365 $364 $473 reversed $150 $-1 #
coedge $-1 $257 $252 $249 $368 forward $258 $-1 #
edge $-1 $371 -55.763361061880538 $474 -48.756000987593602 $367 $475 forward 7 unknown #
coedge $-1 $251 $250 $374 $476 reversed $93 $-1 #
edge $-1 $477 -13.605518353757066 $371 8.3777685069199533e-015 $365 $478 forward 7 unknown #
vertex $-1 $253 $479 #
straight-curve $-1 14.279853987102605 -32.669073723020439 7.0698431950027381 1 0 0 I I #
coedge $-1 $364 $254 $257 $378 forward $247 $-1 #
coedge $-1 $254 $364 $369 $476 forward $247 $-1 #
vertex $-1 $255 $480 #
straight-curve $-1 16.93026611232807 -51.964540332577741 14.077203269289676 0 -1 0 I I #
straight-curve $-1 16.93026611232807 -32.669073723020432 7.0698431950027469 0 0.85716729658548041 0.51503808176128008 I I #
edge $-1 $259 16.93026611232807 $474 40.18914983608235 $257 $481 forward 7 unknown #
point $-1 16.93026611232807 -32.669073723020439 14.077203269289676 #
point $-1 16.93026611232807 -32.669073723020439 7.0698431950027425 #
edge $-1 $482 1 $482 0 $262 $-1 forward 7 unknown #
vertex $-1 $263 $483 #
ellipse-curve $-1 23.575661461972146 -22.851011679671824 3.9381087084745712 0 -0.51503808176128008 0.85716729658548041 2.5 0 0 1 I I #
point $-1 26.075661461972146 -26.837971030053399 10.57352323214621 #
edge $-1 $484 1 $484 0 $266 $-1 forward 7 unknown #
vertex $-1 $267 $485 #
ellipse-curve $-1 33.543754486438274 -22.851011679671824 3.9381087084745712 0 -0.51503808176128008 0.85716729658548041 2.5 0 0 1 I I #
point $-1 36.043754486438274 -26.837971030053399 10.57352323214621 #
plane-surface $-1 0 0 14.077203269289676 0 0 1 1 0 0 forward_v I I I I #
coedge $-1 $400 $399 $392 $486 forward $271 $-1 #
coedge $-1 $392 $273 $275 $396 reversed $172 $-1 #
coedge $-1 $273 $391 $390 $486 reversed $172 $-1 #
coedge $-1 $281 $276 $273 $394 forward $282 $-1 #
edge $-1 $397 -28.851637598073722 $487 -21.595665134403767 $393 $488 forward 7 unknown #
coedge $-1 $275 $274 $400 $489 reversed $107 $-1 #
edge $-1 $490 -65.338147446040821 $397 -52.687745248939272 $391 $491 forward 7 unknown #
vertex $-1 $277 $492 #
straight-curve $-1 6.515469618424973 25.413101259350487 14.077203269289676 1 0 0 I I #
coedge $-1 $390 $278 $281 $404 reversed $271 $-1 #
coedge $-1 $278 $390 $395 $489 forward $271 $-1 #
vertex $-1 $279 $493 #
straight-curve $-1 0.088818707533718566 32.669073723020439 68.297887377963008 0 0 1 I I #
straight-curve $-1 0.088818707533718566 -4.8073472878706554 57.236477927488949 0 0.57357642473473569 -0.81915205242281985 I I #
edge $-1 $487 -25.973059766166173 $283 -0.088818707533718566 $399 $494 forward 7 unknown #
point $-1 0.088818707533718566 32.669073723020439 14.077203269289676 #
point $-1 0.088818707533718566 25.413101259350483 14.077203269289676 #
edge $-1 $495 1 $495 0 $286 $-1 forward 7 unknown #
vertex $-1 $287 $496 #
ellipse-curve $-1 5.2656669192602124 26.783775727108203 7.3153151418336106 0 0.81915205242281985 0.57357642473473569 2.5 0 0 1 I I #
point $-1 7.7656669192602124 29.041087491185429 8.8959018074246927 #
edge $-1 $497 1 $497 0 $290 $-1 forward 7 unknown #
vertex $-1 $291 $498 #
ellipse-curve $-1 13.030939236849946 26.783775727108203 7.3153151418336106 0 0.81915205242281985 0.57357642473473569 2.5 0 0 1 I I #
point $-1 15.530939236849946 29.041087491185429 8.8959018074246927 #
edge $-1 $499 1 $499 0 $294 $-1 forward 7 unknown #
vertex $-1 $295 $500 #
ellipse-curve $-1 20.79621155443968 26.783775727108203 7.3153151418336106 0 0.81915205242281985 0.57357642473473569 2.5 0 0 1 I I #
point $-1 23.29621155443968 29.041087491185429 8.8959018074246927 #
plane-surface $-1 0 32.669073723020439 0 0 -1 0 0 0 -1 forward_v I I I I #
coedge $-1 $432 $423 $425 $501 forward $299 $-1 #
coedge $-1 $423 $432 $301 $422 reversed $299 $-1 #
edge $-1 $428 -14.077203269289676 $434 14.077203269289676 $421 $502 forward 7 unknown #
coedge $-1 $420 $421 $302 $424 reversed $299 $-1 #
edge $-1 $426 -32.669073723020439 $428 32.669073723020439 $423 $503 forward 7 unknown #
coedge $-1 $303 $310 $420 $501 reversed $311 $-1 #
vertex $-1 $304 $504 #
straight-curve $-1 0 32.669073723020439 14.077203269289676 -1 0 0 I I #
vertex $-1 $424 $505 #
straight-curve $-1 0 -32.669073723020439 14.077203269289676 1 0 0 I I #
point $-1 69.17935728019043 -32.669073723020439 14.077203269289676 #
point $-1 69.17935728019043 32.669073723020439 14.077203269289676 #
coedge $-1 $421 $420 $315 $433 reversed $299 $-1 #
edge $-1 $434 -32.669073723020439 $436 32.669073723020439 $432 $506 forward 7 unknown #
vertex $-1 $433 $507 #
straight-curve $-1 0 -32.669073723020439 -14.077203269289676 -1 0 0 I I #
vertex $-1 $317 $508 #
straight-curve $-1 0 32.669073723020439 -14.077203269289676 1 0 0 I I #
plane-surface $-1 0 32.669073723020439 0 0 -1 0 0 0 -1 forward_v I I I I #
coedge $-1 $324 $323 $509 $510 forward $134 $-1 #
edge $-1 $327 56.650590520538643 $511 69.17935728019043 $326 $512 forward 7 unknown #
coedge $-1 $332 $331 $324 $442 reversed $333 $-1 #
edge $-1 $513 -69.17935728019043 $443 -56.650590520538643 $441 $514 forward 7 unknown #
vertex $-1 $339 $515 #
straight-curve $-1 -56.650590520538643 0 -14.077203269289676 0 -1 0 I I #
point $-1 -56.650590520538643 -32.669073723020439 -14.077203269289676 #
coedge $-1 $509 $329 $332 $449 forward $321 $-1 #
coedge $-1 $329 $509 $336 $451 reversed $321 $-1 #
straight-curve $-1 -69.17935728019043 0 -8.7851165566896796 0 1 0 I I #
edge $-1 $334 8.7851165566896796 $513 14.077203269289676 $332 $516 forward 7 unknown #
point $-1 -69.17935728019043 32.669073723020439 -8.7851165566896796 #
edge $-1 $337 8.7851165566896796 $511 14.077203269289676 $447 $517 forward 7 unknown #
point $-1 -69.17935728019043 -32.669073723020439 -8.7851165566896796 #
straight-curve $-1 -56.650590520538643 32.669073723020439 -5.7155799564948389 0 0 -1 I I #
plane-surface $-1 0 0 14.077203269289676 0 0 1 1 0 0 forward_v I I I I #
coedge $-1 $459 $518 $359 $470 forward $343 $-1 #
coedge $-1 $345 $352 $355 $468 reversed $233 $-1 #
coedge $-1 $518 $459 $345 $458 reversed $343 $-1 #
edge $-1 $519 -14.077203269289676 $461 14.077203269289676 $457 $520 forward 7 unknown #
coedge $-1 $457 $455 $346 $460 reversed $343 $-1 #
edge $-1 $461 -2.8207249215727774 $463 2.8207249215727774 $459 $521 forward 7 unknown #
vertex $-1 $460 $522 #
straight-curve $-1 75.063647149825016 -4.5146671844410857 -14.077203269289676 1 0 0 I I #
vertex $-1 $470 $523 #
straight-curve $-1 75.063647149825016 -10.156117027586641 -14.077203269289676 -1 0 0 I I #
point $-1 69.17935728019043 -4.5146671844410857 -14.077203269289676 #
straight-curve $-1 69.17935728019043 -4.5146671844410857 0 0 0 -1 I I #
coedge $-1 $355 $354 $518 $524 forward $356 $-1 #
edge $-1 $519 -5.8842898696345856 $357 5.8842898696345856 $456 $525 forward 7 unknown #
point $-1 69.17935728019043 -4.5146671844410857 14.077203269289676 #
edge $-1 $471 -14.077203269289676 $463 14.077203269289676 $455 $526 forward 7 unknown #
vertex $-1 $524 $527 #
straight-curve $-1 75.063647149825016 -10.156117027586641 14.077203269289676 1 0 0 I I #
edge $-1 $474 19.295466609557302 $477 30.957671995491388 $364 $528 forward 7 unknown #
vertex $-1 $473 $529 #
straight-curve $-1 40.18914983608235 -32.669073723020439 62.833204256883278 0 0 1 I I #
edge $-1 $477 -25.909295848979745 $375 -2.6504121252254649 $374 $530 forward 7 unknown #
vertex $-1 $476 $531 #
straight-curve $-1 40.18914983608235 -32.669073723020432 7.0698431950027469 0 -0.85716729658548041 -0.51503808176128008 I I #
point $-1 40.18914983608235 -32.669073723020439 7.0698431950027425 #
point $-1 16.93026611232807 -21.006868337086352 14.077203269289676 #
straight-curve $-1 0 -32.669073723020439 14.077203269289676 1 0 0 I I #
vertex $-1 $381 $532 #
point $-1 26.075661461972146 -22.851011679671824 3.9381087084745712 #
vertex $-1 $385 $533 #
point $-1 36.043754486438274 -22.851011679671824 3.9381087084745712 #
edge $-1 $487 54.220684108673332 $490 64.58328703240322 $390 $534 forward 7 unknown #
vertex $-1 $404 $535 #
straight-curve $-1 25.973059766166173 54.264738857424206 14.077203269289676 0 1 0 I I #
edge $-1 $490 -19.4575901477412 $401 6.4266509108912544 $400 $536 forward 7 unknown #
vertex $-1 $489 $537 #
straight-curve $-1 25.973059766166173 -4.8073472878706554 57.236477927488949 0 -0.57357642473473569 0.81915205242281985 I I #
point $-1 25.973059766166173 25.413101259350483 14.077203269289676 #
point $-1 0.088818707533718566 32.669073723020439 3.7146003455597878 #
straight-curve $-1 0 32.669073723020439 14.077203269289676 -1 0 0 I I #
vertex $-1 $407 $538 #
point $-1 7.7656669192602124 26.783775727108203 7.3153151418336106 #
vertex $-1 $411 $539 #
point $-1 15.530939236849946 26.783775727108203 7.3153151418336106 #
vertex $-1 $415 $540 #
point $-1 23.29621155443968 26.783775727108203 7.3153151418336106 #
edge $-1 $426 -14.077203269289676 $436 14.077203269289676 $425 $541 forward 7 unknown #
straight-curve $-1 -69.17935728019043 -32.669073723020439 0 0 0 -1 I I #
straight-curve $-1 -69.17935728019043 0 14.077203269289676 0 -1 0 I I #
point $-1 -69.17935728019043 32.669073723020439 14.077203269289676 #
point $-1 -69.17935728019043 -32.669073723020439 14.077203269289676 #
straight-curve $-1 -69.17935728019043 0 -14.077203269289676 0 1 0 I I #
point $-1 -69.17935728019043 -32.669073723020439 -14.077203269289676 #
point $-1 -69.17935728019043 32.669073723020439 -14.077203269289676 #
coedge $-1 $447 $446 $439 $510 reversed $321 $-1 #
edge $-1 $511 -32.669073723020439 $513 32.669073723020439 $509 $542 forward 7 unknown #
vertex $-1 $510 $543 #
straight-curve $-1 0 -32.669073723020439 -14.077203269289676 -1 0 0 I I #
vertex $-1 $442 $544 #
straight-curve $-1 0 32.669073723020439 -14.077203269289676 1 0 0 I I #
point $-1 -56.650590520538643 32.669073723020439 -14.077203269289676 #
straight-curve $-1 -69.17935728019043 32.669073723020439 0 0 0 -1 I I #
straight-curve $-1 -69.17935728019043 -32.669073723020439 0 0 0 -1 I I #
coedge $-1 $455 $457 $467 $524 reversed $343 $-1 #
vertex $-1 $524 $545 #
straight-curve $-1 80.947937019459602 -4.5146671844410857 0 0 0 -1 I I #
straight-curve $-1 80.947937019459602 -7.3353921060138632 -14.077203269289676 0 -1 0 I I #
point $-1 80.947937019459602 -4.5146671844410857 -14.077203269289676 #
point $-1 80.947937019459602 -10.156117027586641 -14.077203269289676 #
edge $-1 $471 -2.8207249215727774 $519 2.8207249215727774 $518 $546 forward 7 unknown #
straight-curve $-1 75.063647149825016 -4.5146671844410857 14.077203269289676 -1 0 0 I I #
straight-curve $-1 80.947937019459602 -10.156117027586641 0 0 0 -1 I I #
point $-1 80.947937019459602 -10.156117027586641 14.077203269289676 #
straight-curve $-1 40.18914983608235 -51.964540332577741 14.077203269289676 0 1 0 I I #
point $-1 40.18914983608235 -32.669073723020439 14.077203269289676 #
straight-curve $-1 14.279853987102605 -21.006868337086352 14.077203269289676 -1 0 0 I I #
point $-1 40.18914983608235 -21.006868337086352 14.077203269289676 #
point $-1 23.575661461972146 -21.563416475268621 1.7951904670108705 #
point $-1 33.543754486438274 -21.563416475268621 1.7951904670108705 #
straight-curve $-1 25.973059766166173 32.669073723020439 68.297887377963008 0 0 -1 I I #
point $-1 25.973059766166173 32.669073723020439 14.077203269289676 #
straight-curve $-1 6.515469618424973 32.669073723020439 3.7146003455597878 -1 0 0 I I #
point $-1 25.973059766166173 32.669073723020439 3.7146003455597878 #
point $-1 5.2656669192602124 24.735895596051154 5.881374079996772 #
point $-1 13.030939236849946 24.735895596051154 5.881374079996772 #
point $-1 20.79621155443968 24.735895596051154 5.881374079996772 #
straight-curve $-1 -69.17935728019043 32.669073723020439 0 0 0 -1 I I #
straight-curve $-1 -69.17935728019043 0 -14.077203269289676 0 1 0 I I #
point $-1 -69.17935728019043 -32.669073723020439 -14.077203269289676 #
point $-1 -69.17935728019043 32.669073723020439 -14.077203269289676 #
point $-1 80.947937019459602 -4.5146671844410857 14.077203269289676 #
straight-curve $-1 80.947937019459602 -7.3353921060138632 14.077203269289676 0 1 0 I I #
End-of-ACIS-data 