500 0 12 0           
7 Unknown 11 ACIS 5.0 NT 24 Thu Mar 25 22:03:14 1999 
-1 9.9999999999999995e-007 1e-010 
body $-1 $12 $-1 $13 #
body $-1 $14 $-1 $15 #
body $-1 $16 $-1 $17 #
body $-1 $18 $-1 $19 #
body $-1 $20 $-1 $21 #
body $-1 $22 $-1 $23 #
body $-1 $24 $-1 $25 #
body $-1 $26 $-1 $27 #
body $-1 $28 $-1 $29 #
body $-1 $30 $-1 $31 #
body $-1 $32 $-1 $33 #
body $-1 $34 $-1 $35 #
lump $-1 $-1 $36 $0 #
transform $-1 1 0 0 0 1 0 0 0 1 69.025543992431409 28.482332078397981 9.6395922131965115 1 rotate no_reflect no_shear #
lump $-1 $-1 $37 $1 #
transform $-1 1 0 0 0 1 0 0 0 1 69.025543992431409 28.482332078397981 9.6395922131965115 1 rotate no_reflect no_shear #
lump $-1 $-1 $38 $2 #
transform $-1 1 0 0 0 1 0 0 0 1 69.025543992431409 28.482332078397981 9.6395922131965115 1 rotate no_reflect no_shear #
lump $-1 $-1 $39 $3 #
transform $-1 1 0 0 0 1 0 0 0 1 69.025543992431409 28.482332078397981 9.6395922131965115 1 rotate no_reflect no_shear #
lump $-1 $-1 $40 $4 #
transform $-1 1 0 0 0 1 0 0 0 1 69.025543992431409 28.482332078397981 9.6395922131965115 1 rotate no_reflect no_shear #
lump $-1 $-1 $41 $5 #
transform $-1 1 0 0 0 1 0 0 0 1 69.025543992431409 28.482332078397981 9.6395922131965115 1 rotate no_reflect no_shear #
lump $-1 $-1 $42 $6 #
transform $-1 1 0 0 0 1 0 0 0 1 69.025543992431409 28.482332078397981 9.6395922131965115 1 rotate no_reflect no_shear #
lump $-1 $-1 $43 $7 #
transform $-1 1 0 0 0 1 0 0 0 1 69.025543992431409 28.482332078397981 9.6395922131965115 1 rotate no_reflect no_shear #
lump $-1 $-1 $44 $8 #
transform $-1 1 0 0 0 1 0 0 0 1 69.025543992431409 28.482332078397981 9.6395922131965115 1 rotate no_reflect no_shear #
lump $-1 $-1 $45 $9 #
transform $-1 1 0 0 0 1 0 0 0 1 69.025543992431409 28.482332078397981 9.6395922131965115 1 rotate no_reflect no_shear #
lump $-1 $-1 $46 $10 #
transform $-1 1 0 0 0 1 0 0 0 1 69.025543992431409 28.482332078397981 9.6395922131965115 1 rotate no_reflect no_shear #
lump $-1 $-1 $47 $11 #
transform $-1 1 0 0 0 1 0 0 0 1 69.025543992431409 28.482332078397981 9.6395922131965115 1 rotate no_reflect no_shear #
shell $-1 $-1 $-1 $48 $-1 $12 #
shell $-1 $-1 $-1 $49 $-1 $14 #
shell $-1 $-1 $-1 $50 $-1 $16 #
shell $-1 $-1 $-1 $51 $-1 $18 #
shell $-1 $-1 $-1 $52 $-1 $20 #
shell $-1 $-1 $-1 $53 $-1 $22 #
shell $-1 $-1 $-1 $54 $-1 $24 #
shell $-1 $-1 $-1 $55 $-1 $26 #
shell $-1 $-1 $-1 $56 $-1 $28 #
shell $-1 $-1 $-1 $57 $-1 $30 #
shell $-1 $-1 $-1 $58 $-1 $32 #
shell $-1 $-1 $-1 $59 $-1 $34 #
face $-1 $60 $61 $36 $-1 $62 forward single #
face $-1 $63 $64 $37 $-1 $65 reversed single #
face $-1 $66 $67 $38 $-1 $68 reversed single #
face $-1 $69 $70 $39 $-1 $71 forward single #
face $-1 $72 $73 $40 $-1 $74 forward single #
face $-1 $75 $76 $41 $-1 $77 reversed single #
face $-1 $78 $79 $42 $-1 $80 forward single #
face $-1 $81 $82 $43 $-1 $83 forward single #
face $-1 $84 $85 $44 $-1 $86 reversed single #
face $-1 $87 $88 $45 $-1 $89 forward single #
face $-1 $90 $91 $46 $-1 $92 forward single #
face $-1 $93 $94 $47 $-1 $95 forward single #
face $-1 $96 $97 $36 $-1 $98 reversed single #
loop $-1 $-1 $99 $48 #
plane-surface $-1 0 0 9.6395922131965115 0 0 1 1 0 0 forward_v I I I I #
face $-1 $100 $101 $37 $-1 $102 reversed single #
loop $-1 $-1 $103 $49 #
plane-surface $-1 0 -24.634803005372579 5.5711765342152235 0 0 1 1 0 0 forward_v I I I I #
face $-1 $104 $105 $38 $-1 $106 reversed single #
loop $-1 $-1 $107 $50 #
plane-surface $-1 109.61691982189453 1.6688319742693523 194.71119545174719 0 -1 0 -0.83867057594974714 0 -0.54463902268945019 forward_v I I I I #
face $-1 $108 $109 $39 $-1 $110 forward single #
loop $-1 $111 $112 $51 #
cone-surface $-1 64.728694506500659 -6.6555805197747588 5.1445064113790364 -0.83867057594974714 0 -0.54463902268945019 0.81695853403417529 0 -1.2580058639246208 1 I I 0 1 1.5 forward I I I I #
face $-1 $113 $114 $40 $-1 $115 forward single #
loop $-1 $116 $117 $52 #
cone-surface $-1 64.728694506500659 -1.6609330233482922 5.1445064113790364 -0.83867057594974714 0 -0.54463902268945019 0.81695853403417529 0 -1.2580058639246208 1 I I 0 1 1.5 forward I I I I #
face $-1 $118 $119 $41 $-1 $120 reversed single #
loop $-1 $-1 $121 $53 #
plane-surface $-1 109.61691982189453 17.680403663443208 194.71119545174719 0 -1 0 -0.83867057594974714 0 -0.54463902268945019 forward_v I I I I #
face $-1 $122 $123 $42 $-1 $124 forward single #
loop $-1 $125 $126 $54 #
cone-surface $-1 64.728694506500659 9.3559911693990969 5.1445064113790364 -0.83867057594974714 0 -0.54463902268945019 0.81695853403417529 0 -1.2580058639246208 1 I I 0 1 1.5 forward I I I I #
face $-1 $127 $128 $43 $-1 $129 forward single #
loop $-1 $130 $131 $55 #
cone-surface $-1 64.728694506500659 14.350638665825564 5.1445064113790364 -0.83867057594974714 0 -0.54463902268945019 0.81695853403417529 0 -1.2580058639246208 1 I I 0 1 1.5 forward I I I I #
face $-1 $132 $133 $44 $-1 $134 reversed single #
loop $-1 $-1 $135 $56 #
plane-surface $-1 -188.58129427523323 21.09232280341643 73.032154186461952 0 1 0 -0.86602541151947299 0 0.49999998660252726 forward_v I I I I #
face $-1 $136 $137 $45 $-1 $138 forward single #
loop $-1 $139 $140 $57 #
cone-surface $-1 -66.674215507605822 22.570324658412737 6.4043920044036877 0.86602541151947299 0 -0.49999998660252726 0.24999999330126363 0 0.43301270575973649 1 I I 0 1 0.5 forward I I I I #
face $-1 $141 $142 $46 $-1 $143 forward single #
loop $-1 $144 $145 $58 #
cone-surface $-1 -66.674215507605822 24.787327440907205 6.4043920044036877 0.86602541151947299 0 -0.49999998660252726 0.24999999330126363 0 0.43301270575973649 1 I I 0 1 0.5 forward I I I I #
face $-1 $146 $147 $47 $-1 $148 forward single #
loop $-1 $149 $150 $59 #
cone-surface $-1 -66.674215507605822 27.004330223401674 6.4043920044036877 0.86602541151947299 0 -0.49999998660252726 0.24999999330126363 0 0.43301270575973649 1 I I 0 1 0.5 forward I I I I #
face $-1 $151 $152 $36 $-1 $153 reversed single #
loop $-1 $-1 $154 $60 #
plane-surface $-1 0 0 -9.6395922131965115 0 0 1 1 0 0 forward_v I I I I #
coedge $-1 $155 $156 $157 $158 forward $61 $-1 #
face $-1 $159 $160 $37 $-1 $161 reversed single #
loop $-1 $-1 $162 $63 #
plane-surface $-1 0 -20.787273932347176 7.6053843737058671 0 -1 0 0 0 -1 forward_v I I I I #
coedge $-1 $163 $164 $165 $166 reversed $64 $-1 #
face $-1 $167 $168 $38 $-1 $169 reversed single #
loop $-1 $-1 $170 $66 #
plane-surface $-1 -6.1624656488595946 -4.1582567715615255 119.5231858104562 0.83867057594974714 0 0.54463902268945019 0.54463902268945019 0 -0.83867057594974714 forward_v I I I I #
coedge $-1 $171 $172 $173 $174 reversed $67 $-1 #
face $-1 $-1 $175 $39 $-1 $176 forward single #
loop $-1 $177 $178 $69 #
cone-surface $-1 61.717228032292354 -6.6555805197747588 3.1888372792916719 -0.83867057594974714 0 -0.54463902268945019 0.40847926701708764 0 -0.62900293196231039 1 I I -0.70710678118654757 0.70710678118654757 0.75 forward I I I I #
loop $-1 $-1 $179 $51 #
coedge $-1 $112 $112 $180 $181 reversed $70 $-1 #
face $-1 $-1 $182 $40 $-1 $183 forward single #
loop $-1 $184 $185 $72 #
cone-surface $-1 61.717228032292354 -1.6609330233482922 3.1888372792916719 -0.83867057594974714 0 -0.54463902268945019 0.40847926701708764 0 -0.62900293196231039 1 I I -0.70710678118654757 0.70710678118654757 0.75 forward I I I I #
loop $-1 $-1 $186 $52 #
coedge $-1 $117 $117 $187 $188 reversed $73 $-1 #
face $-1 $189 $190 $41 $-1 $191 reversed single #
loop $-1 $-1 $192 $75 #
plane-surface $-1 -6.1624656488595946 11.85331491761233 119.5231858104562 0.83867057594974714 0 0.54463902268945019 0.54463902268945019 0 -0.83867057594974714 forward_v I I I I #
coedge $-1 $193 $194 $195 $196 reversed $76 $-1 #
face $-1 $-1 $197 $42 $-1 $198 forward single #
loop $-1 $199 $200 $78 #
cone-surface $-1 61.717228032292354 9.3559911693990969 3.1888372792916719 -0.83867057594974714 0 -0.54463902268945019 0.40847926701708764 0 -0.62900293196231039 1 I I -0.70710678118654757 0.70710678118654757 0.75 forward I I I I #
loop $-1 $-1 $201 $54 #
coedge $-1 $126 $126 $202 $203 reversed $79 $-1 #
face $-1 $-1 $204 $43 $-1 $205 forward single #
loop $-1 $206 $207 $81 #
cone-surface $-1 61.717228032292354 14.350638665825564 3.1888372792916719 -0.83867057594974714 0 -0.54463902268945019 0.40847926701708764 0 -0.62900293196231039 1 I I -0.70710678118654757 0.70710678118654757 0.75 forward I I I I #
loop $-1 $-1 $208 $55 #
coedge $-1 $131 $131 $209 $210 reversed $82 $-1 #
face $-1 $211 $212 $44 $-1 $213 forward single #
loop $-1 $-1 $214 $84 #
plane-surface $-1 -69.025543992431437 24.787327440907205 4.0066120435662356 -0.86602541151947299 0 0.49999998660252726 0.49999998660252726 0 0.86602541151947299 forward_v I I I I #
coedge $-1 $215 $216 $217 $218 reversed $85 $-1 #
face $-1 $-1 $219 $45 $-1 $220 forward single #
loop $-1 $221 $222 $87 #
cone-surface $-1 -65.732481920443249 22.570324658412737 5.8606818837753742 0.86602541151947299 0 -0.49999998660252726 0.12499999665063181 0 0.21650635287986825 1 I I -0.70710678118654746 0.70710678118654746 0.25 forward I I I I #
loop $-1 $-1 $223 $57 #
coedge $-1 $140 $140 $224 $225 reversed $88 $-1 #
face $-1 $-1 $226 $46 $-1 $227 forward single #
loop $-1 $228 $229 $90 #
cone-surface $-1 -65.732481920443249 24.787327440907205 5.8606818837753742 0.86602541151947299 0 -0.49999998660252726 0.12499999665063181 0 0.21650635287986825 1 I I -0.70710678118654746 0.70710678118654746 0.25 forward I I I I #
loop $-1 $-1 $230 $58 #
coedge $-1 $145 $145 $231 $232 reversed $91 $-1 #
face $-1 $-1 $233 $47 $-1 $234 forward single #
loop $-1 $235 $236 $93 #
cone-surface $-1 -65.732481920443249 27.004330223401674 5.8606818837753742 0.86602541151947299 0 -0.49999998660252726 0.12499999665063181 0 0.21650635287986825 1 I I -0.70710678118654746 0.70710678118654746 0.25 forward I I I I #
loop $-1 $-1 $237 $59 #
coedge $-1 $150 $150 $238 $239 reversed $94 $-1 #
face $-1 $240 $241 $36 $-1 $242 reversed single #
loop $-1 $-1 $243 $96 #
plane-surface $-1 0 -28.482332078397981 0 0 1 0 0 0 1 forward_v I I I I #
coedge $-1 $244 $245 $246 $247 forward $97 $-1 #
coedge $-1 $248 $99 $249 $250 forward $61 $-1 #
coedge $-1 $99 $248 $251 $252 forward $61 $-1 #
coedge $-1 $253 $254 $99 $158 reversed $255 $-1 #
edge $-1 $256 -28.482332078397981 $257 28.482332078397981 $157 $258 forward 7 unknown #
face $-1 $259 $260 $37 $-1 $261 reversed single #
loop $-1 $-1 $262 $100 #
plane-surface $-1 -69.025543992431409 0 0 1 0 0 0 0 -1 forward_v I I I I #
coedge $-1 $263 $264 $265 $266 reversed $101 $-1 #
coedge $-1 $267 $103 $268 $269 reversed $64 $-1 #
coedge $-1 $103 $267 $263 $270 forward $64 $-1 #
coedge $-1 $265 $271 $103 $166 forward $272 $-1 #
edge $-1 $273 -16.164930575711693 $274 -8.4698724296608869 $165 $275 forward 7 unknown #
face $-1 $276 $277 $38 $-1 $278 reversed single #
loop $-1 $-1 $279 $104 #
plane-surface $-1 109.61691982189453 -9.9853455173924033 194.71119545174719 0 1 0 0.83867057594974714 0 0.54463902268945019 forward_v I I I I #
coedge $-1 $280 $281 $282 $283 reversed $105 $-1 #
coedge $-1 $172 $107 $284 $285 reversed $67 $-1 #
coedge $-1 $107 $171 $280 $286 reversed $67 $-1 #
coedge $-1 $282 $287 $107 $174 forward $288 $-1 #
edge $-1 $289 -14.217084081484145 $290 -10.38831219411459 $173 $291 forward 7 unknown #
loop $-1 $-1 $180 $108 #
plane-surface $-1 -6.1624656488595946 -4.1582567715615255 119.5231858104562 0.83867057594974714 0 0.54463902268945019 0.54463902268945019 0 -0.83867057594974714 forward_v I I I I #
loop $-1 $-1 $292 $69 #
coedge $-1 $178 $178 $179 $293 reversed $109 $-1 #
coedge $-1 $179 $179 $178 $293 forward $111 $-1 #
coedge $-1 $180 $180 $112 $181 forward $175 $-1 #
edge $-1 $294 0 $294 6.2831853071796004 $180 $295 forward 7 unknown #
loop $-1 $-1 $187 $113 #
plane-surface $-1 -6.1624656488595946 -4.1582567715615255 119.5231858104562 0.83867057594974714 0 0.54463902268945019 0.54463902268945019 0 -0.83867057594974714 forward_v I I I I #
loop $-1 $-1 $296 $72 #
coedge $-1 $185 $185 $186 $297 reversed $114 $-1 #
coedge $-1 $186 $186 $185 $297 forward $116 $-1 #
coedge $-1 $187 $187 $117 $188 forward $182 $-1 #
edge $-1 $298 0 $298 6.2831853071796004 $187 $299 forward 7 unknown #
face $-1 $300 $301 $41 $-1 $302 reversed single #
loop $-1 $-1 $303 $118 #
plane-surface $-1 109.61691982189453 6.0262261717814525 194.71119545174719 0 1 0 0.83867057594974714 0 0.54463902268945019 forward_v I I I I #
coedge $-1 $304 $305 $306 $307 reversed $119 $-1 #
coedge $-1 $194 $121 $308 $309 reversed $76 $-1 #
coedge $-1 $121 $193 $304 $310 reversed $76 $-1 #
coedge $-1 $306 $311 $121 $196 forward $312 $-1 #
edge $-1 $313 -14.217084081484145 $314 -10.38831219411459 $195 $315 forward 7 unknown #
loop $-1 $-1 $202 $122 #
plane-surface $-1 -6.1624656488595946 11.85331491761233 119.5231858104562 0.83867057594974714 0 0.54463902268945019 0.54463902268945019 0 -0.83867057594974714 forward_v I I I I #
loop $-1 $-1 $316 $78 #
coedge $-1 $200 $200 $201 $317 reversed $123 $-1 #
coedge $-1 $201 $201 $200 $317 forward $125 $-1 #
coedge $-1 $202 $202 $126 $203 forward $197 $-1 #
edge $-1 $318 0 $318 6.2831853071796004 $202 $319 forward 7 unknown #
loop $-1 $-1 $209 $127 #
plane-surface $-1 -6.1624656488595946 11.85331491761233 119.5231858104562 0.83867057594974714 0 0.54463902268945019 0.54463902268945019 0 -0.83867057594974714 forward_v I I I I #
loop $-1 $-1 $320 $81 #
coedge $-1 $207 $207 $208 $321 reversed $128 $-1 #
coedge $-1 $208 $208 $207 $321 forward $130 $-1 #
coedge $-1 $209 $209 $131 $210 forward $204 $-1 #
edge $-1 $322 0 $322 6.2831853071796004 $209 $323 forward 7 unknown #
face $-1 $324 $325 $44 $-1 $326 reversed single #
loop $-1 $-1 $217 $132 #
plane-surface $-1 0 0 9.6395922131965115 0 0 1 1 0 0 forward_v I I I I #
coedge $-1 $327 $328 $329 $330 reversed $133 $-1 #
coedge $-1 $216 $135 $331 $332 reversed $85 $-1 #
coedge $-1 $135 $215 $327 $333 reversed $85 $-1 #
coedge $-1 $329 $334 $135 $218 forward $212 $-1 #
edge $-1 $335 25.265103145185208 $336 28.517305646270927 $217 $337 forward 7 unknown #
loop $-1 $-1 $224 $136 #
plane-surface $-1 -69.025543992431437 24.787327440907205 4.0066120435662356 -0.86602541151947299 0 0.49999998660252726 0.49999998660252726 0 0.86602541151947299 forward_v I I I I #
loop $-1 $-1 $338 $87 #
coedge $-1 $222 $222 $223 $339 reversed $137 $-1 #
coedge $-1 $223 $223 $222 $339 forward $139 $-1 #
coedge $-1 $224 $224 $140 $225 forward $219 $-1 #
edge $-1 $340 0 $340 6.2831853071796004 $224 $341 forward 7 unknown #
loop $-1 $-1 $231 $141 #
plane-surface $-1 -69.025543992431437 24.787327440907205 4.0066120435662356 -0.86602541151947299 0 0.49999998660252726 0.49999998660252726 0 0.86602541151947299 forward_v I I I I #
loop $-1 $-1 $342 $90 #
coedge $-1 $229 $229 $230 $343 reversed $142 $-1 #
coedge $-1 $230 $230 $229 $343 forward $144 $-1 #
coedge $-1 $231 $231 $145 $232 forward $226 $-1 #
edge $-1 $344 0 $344 6.2831853071796004 $231 $345 forward 7 unknown #
loop $-1 $-1 $238 $146 #
plane-surface $-1 -69.025543992431437 24.787327440907205 4.0066120435662356 -0.86602541151947299 0 0.49999998660252726 0.49999998660252726 0 0.86602541151947299 forward_v I I I I #
loop $-1 $-1 $346 $93 #
coedge $-1 $236 $236 $237 $347 reversed $147 $-1 #
coedge $-1 $237 $237 $236 $347 forward $149 $-1 #
coedge $-1 $238 $238 $150 $239 forward $233 $-1 #
edge $-1 $348 0 $348 6.2831853071796004 $238 $349 forward 7 unknown #
face $-1 $350 $351 $36 $-1 $352 reversed single #
loop $-1 $-1 $353 $151 #
plane-surface $-1 -69.025543992431409 0 0 1 0 0 0 0 -1 forward_v I I I I #
coedge $-1 $354 $251 $355 $356 forward $152 $-1 #
coedge $-1 $357 $154 $354 $358 forward $97 $-1 #
coedge $-1 $154 $357 $359 $360 forward $97 $-1 #
coedge $-1 $254 $253 $154 $247 reversed $255 $-1 #
edge $-1 $361 -28.482332078397981 $362 28.482332078397981 $246 $363 forward 7 unknown #
coedge $-1 $156 $155 $364 $365 forward $61 $-1 #
coedge $-1 $366 $367 $155 $250 reversed $351 $-1 #
edge $-1 $257 -69.025543992431409 $368 69.025543992431409 $249 $369 forward 7 unknown #
coedge $-1 $243 $370 $156 $252 reversed $152 $-1 #
edge $-1 $371 -69.025543992431409 $256 69.025543992431409 $251 $372 forward 7 unknown #
coedge $-1 $246 $157 $370 $373 forward $255 $-1 #
coedge $-1 $157 $246 $366 $374 reversed $255 $-1 #
loop $-1 $-1 $253 $350 #
vertex $-1 $158 $375 #
vertex $-1 $158 $376 #
straight-curve $-1 69.025543992431409 0 9.6395922131965115 0 1 0 I I #
face $-1 $377 $378 $37 $-1 $379 forward single #
loop $-1 $-1 $268 $159 #
plane-surface $-1 0 -28.482332078397981 0 0 1 0 0 0 1 forward_v I I I I #
coedge $-1 $380 $381 $382 $383 forward $160 $-1 #
coedge $-1 $382 $162 $164 $270 reversed $101 $-1 #
coedge $-1 $162 $382 $384 $385 reversed $101 $-1 #
coedge $-1 $386 $165 $162 $266 forward $272 $-1 #
edge $-1 $274 1.76848434736229 $387 5.836900026343578 $265 $388 forward 7 unknown #
coedge $-1 $164 $163 $380 $389 reversed $64 $-1 #
coedge $-1 $390 $391 $163 $269 forward $260 $-1 #
edge $-1 $392 -69.025543992431409 $273 69.025543992431409 $268 $393 forward 7 unknown #
edge $-1 $394 -69.025543992431409 $274 69.025543992431409 $263 $395 forward 7 unknown #
coedge $-1 $165 $386 $390 $396 forward $272 $-1 #
loop $-1 $-1 $265 $377 #
vertex $-1 $269 $397 #
vertex $-1 $166 $398 #
straight-curve $-1 69.025543992431409 -12.317401502686289 5.5711765342152235 0 1 0 I I #
face $-1 $-1 $288 $38 $-1 $399 forward single #
loop $-1 $-1 $400 $167 #
plane-surface $-1 69.025543992431409 0 0 -1 0 0 0 0 1 forward_v I I I I #
coedge $-1 $401 $402 $403 $404 reversed $168 $-1 #
coedge $-1 $405 $170 $172 $286 forward $105 $-1 #
coedge $-1 $170 $405 $401 $406 forward $105 $-1 #
coedge $-1 $403 $173 $170 $283 forward $288 $-1 #
edge $-1 $290 -3.747960360050115 $407 7.9062171316116405 $282 $408 forward 7 unknown #
coedge $-1 $409 $410 $171 $285 forward $277 $-1 #
edge $-1 $411 -93.611797386171531 $289 -87.716005512677086 $284 $412 forward 7 unknown #
edge $-1 $290 131.02116223980161 $411 138.05108798486285 $172 $413 forward 7 unknown #
coedge $-1 $173 $403 $409 $414 forward $288 $-1 #
loop $-1 $-1 $403 $276 #
vertex $-1 $285 $415 #
vertex $-1 $174 $416 #
straight-curve $-1 54.808459910947263 1.6688319742693523 9.6395922131965079 -1 0 0 I I #
coedge $-1 $292 $292 $-1 $417 reversed $177 $-1 #
edge $-1 $418 0 $418 6.2831853071796004 $178 $419 forward 7 unknown #
vertex $-1 $181 $420 #
ellipse-curve $-1 67.111158048746617 -6.6555805197747588 6.6916962764492922 0.83867057594974714 0 0.54463902268945019 0.81695853403417529 0 -1.2580058639246208 1 I I #
coedge $-1 $296 $296 $-1 $421 reversed $184 $-1 #
edge $-1 $422 0 $422 6.2831853071796004 $185 $423 forward 7 unknown #
vertex $-1 $188 $424 #
ellipse-curve $-1 67.111158048746617 -1.6609330233482922 6.6916962764492922 0.83867057594974714 0 0.54463902268945019 0.81695853403417529 0 -1.2580058639246208 1 I I #
face $-1 $-1 $312 $41 $-1 $425 forward single #
loop $-1 $-1 $426 $189 #
plane-surface $-1 69.025543992431409 0 0 -1 0 0 0 0 1 forward_v I I I I #
coedge $-1 $427 $428 $429 $430 reversed $190 $-1 #
coedge $-1 $431 $192 $194 $310 forward $119 $-1 #
coedge $-1 $192 $431 $427 $432 forward $119 $-1 #
coedge $-1 $429 $195 $192 $307 forward $312 $-1 #
edge $-1 $314 -11.753746204637043 $433 -0.099568712975287355 $306 $434 forward 7 unknown #
coedge $-1 $435 $436 $193 $309 forward $301 $-1 #
edge $-1 $437 -93.611797386171531 $313 -87.716005512677086 $308 $438 forward 7 unknown #
edge $-1 $314 131.02116223980161 $437 138.05108798486285 $194 $439 forward 7 unknown #
coedge $-1 $195 $429 $435 $440 forward $312 $-1 #
loop $-1 $-1 $429 $300 #
vertex $-1 $309 $441 #
vertex $-1 $196 $442 #
straight-curve $-1 54.808459910947263 17.680403663443208 9.6395922131965079 -1 0 0 I I #
coedge $-1 $316 $316 $-1 $443 reversed $199 $-1 #
edge $-1 $444 0 $444 6.2831853071796004 $200 $445 forward 7 unknown #
vertex $-1 $203 $446 #
ellipse-curve $-1 67.111158048746617 9.3559911693990969 6.6916962764492922 0.83867057594974714 0 0.54463902268945019 0.81695853403417529 0 -1.2580058639246208 1 I I #
coedge $-1 $320 $320 $-1 $447 reversed $206 $-1 #
edge $-1 $448 0 $448 6.2831853071796004 $207 $449 forward 7 unknown #
vertex $-1 $210 $450 #
ellipse-curve $-1 67.111158048746617 14.350638665825564 6.6916962764492922 0.83867057594974714 0 0.54463902268945019 0.81695853403417529 0 -1.2580058639246208 1 I I #
face $-1 $-1 $451 $44 $-1 $452 reversed single #
loop $-1 $-1 $453 $211 #
plane-surface $-1 0 28.482332078397981 0 0 -1 0 0 0 -1 forward_v I I I I #
coedge $-1 $454 $214 $216 $333 forward $133 $-1 #
coedge $-1 $214 $454 $453 $455 reversed $133 $-1 #
coedge $-1 $456 $217 $214 $330 forward $212 $-1 #
edge $-1 $336 8.698659082962827 $457 16.088668357944378 $329 $458 forward 7 unknown #
coedge $-1 $459 $460 $215 $332 forward $451 $-1 #
edge $-1 $461 -32.509465049664691 $335 -26.876484880034464 $331 $462 forward 7 unknown #
edge $-1 $336 -6.5044051764566699 $461 -5.6516033812716314e-014 $216 $463 forward 7 unknown #
coedge $-1 $217 $456 $459 $464 forward $212 $-1 #
vertex $-1 $332 $465 #
vertex $-1 $218 $466 #
straight-curve $-1 -94.290647137616617 21.09232280341643 9.6395922131965115 1 0 0 I I #
coedge $-1 $338 $338 $-1 $467 reversed $221 $-1 #
edge $-1 $468 0 $468 6.2831853071796004 $222 $469 forward 7 unknown #
vertex $-1 $225 $470 #
ellipse-curve $-1 -67.399442741888564 22.570324658412737 6.823102128381386 -0.86602541151947299 0 0.49999998660252726 0.24999999330126363 0 0.43301270575973649 1 I I #
coedge $-1 $342 $342 $-1 $471 reversed $228 $-1 #
edge $-1 $472 0 $472 6.2831853071796004 $229 $473 forward 7 unknown #
vertex $-1 $232 $474 #
ellipse-curve $-1 -67.399442741888564 24.787327440907205 6.823102128381386 -0.86602541151947299 0 0.49999998660252726 0.24999999330126363 0 0.43301270575973649 1 I I #
coedge $-1 $346 $346 $-1 $475 reversed $235 $-1 #
edge $-1 $476 0 $476 6.2831853071796004 $236 $477 forward 7 unknown #
vertex $-1 $239 $478 #
ellipse-curve $-1 -67.399442741888564 27.004330223401674 6.823102128381386 -0.86602541151947299 0 0.49999998660252726 0.24999999330126363 0 0.43301270575973649 1 I I #
face $-1 $-1 $255 $36 $-1 $479 reversed single #
loop $-1 $-1 $366 $240 #
plane-surface $-1 0 28.482332078397981 0 0 -1 0 0 0 -1 forward_v I I I I #
coedge $-1 $480 $364 $367 $481 forward $241 $-1 #
coedge $-1 $370 $243 $244 $358 reversed $152 $-1 #
coedge $-1 $364 $480 $243 $356 reversed $241 $-1 #
edge $-1 $371 -9.6395922131965115 $482 9.6395922131965115 $355 $483 forward 7 unknown #
coedge $-1 $245 $244 $480 $484 forward $97 $-1 #
edge $-1 $362 -69.025543992431409 $482 69.025543992431409 $354 $485 forward 7 unknown #
coedge $-1 $367 $366 $245 $360 reversed $351 $-1 #
edge $-1 $486 -69.025543992431409 $361 69.025543992431409 $359 $487 forward 7 unknown #
vertex $-1 $247 $488 #
vertex $-1 $373 $489 #
straight-curve $-1 69.025543992431409 0 -9.6395922131965115 0 -1 0 I I #
coedge $-1 $353 $355 $248 $365 reversed $241 $-1 #
edge $-1 $368 -28.482332078397981 $371 28.482332078397981 $364 $490 forward 7 unknown #
coedge $-1 $359 $249 $254 $374 forward $351 $-1 #
coedge $-1 $249 $359 $353 $481 reversed $351 $-1 #
vertex $-1 $250 $491 #
straight-curve $-1 0 28.482332078397981 9.6395922131965115 -1 0 0 I I #
coedge $-1 $251 $354 $253 $373 reversed $152 $-1 #
vertex $-1 $365 $492 #
straight-curve $-1 0 -28.482332078397981 9.6395922131965115 1 0 0 I I #
edge $-1 $256 -9.6395922131965115 $362 9.6395922131965115 $253 $493 forward 7 unknown #
edge $-1 $257 -9.6395922131965115 $361 9.6395922131965115 $254 $494 forward 7 unknown #
point $-1 69.025543992431409 -28.482332078397981 9.6395922131965115 #
point $-1 69.025543992431409 28.482332078397981 9.6395922131965115 #
face $-1 $-1 $272 $37 $-1 $495 reversed single #
loop $-1 $-1 $384 $259 #
plane-surface $-1 0 0 9.6395922131965115 0 0 1 1 0 0 forward_v I I I I #
coedge $-1 $496 $262 $267 $389 forward $160 $-1 #
coedge $-1 $262 $496 $497 $498 reversed $160 $-1 #
coedge $-1 $264 $263 $262 $383 reversed $101 $-1 #
edge $-1 $499 -5.836900026343578 $394 -1.76848434736229 $262 $500 forward 7 unknown #
coedge $-1 $497 $501 $264 $385 forward $378 $-1 #
edge $-1 $387 -69.025543992431409 $499 69.025543992431409 $384 $502 forward 7 unknown #
coedge $-1 $271 $265 $501 $503 reversed $272 $-1 #
vertex $-1 $266 $504 #
straight-curve $-1 69.025543992431409 -20.787273932347176 3.8026921868529335 0 0 1 I I #
edge $-1 $394 8.4698724296608869 $392 16.164930575711693 $380 $505 forward 7 unknown #
coedge $-1 $506 $268 $271 $396 reversed $260 $-1 #
coedge $-1 $268 $506 $496 $507 forward $260 $-1 #
vertex $-1 $269 $508 #
straight-curve $-1 0 -28.482332078397981 5.5711765342152235 1 0 0 I I #
vertex $-1 $389 $509 #
straight-curve $-1 0 -20.787273932347176 5.5711765342152235 1 0 0 I I #
edge $-1 $510 -9.6395922131965115 $273 -5.5711765342152235 $271 $511 forward 7 unknown #
point $-1 69.025543992431409 -28.482332078397981 5.5711765342152235 #
point $-1 69.025543992431409 -20.787273932347176 5.5711765342152235 #
plane-surface $-1 0 0 9.6395922131965115 0 0 1 1 0 0 forward_v I I I I #
coedge $-1 $410 $409 $402 $512 forward $277 $-1 #
coedge $-1 $402 $279 $281 $406 reversed $168 $-1 #
coedge $-1 $279 $401 $400 $512 reversed $168 $-1 #
coedge $-1 $287 $282 $279 $404 forward $288 $-1 #
edge $-1 $407 10.38831219411459 $513 14.217084081484145 $403 $514 forward 7 unknown #
coedge $-1 $281 $280 $410 $515 reversed $105 $-1 #
edge $-1 $516 -138.05108798486285 $407 -131.02116223980161 $401 $517 forward 7 unknown #
vertex $-1 $283 $518 #
straight-curve $-1 65.196772105061868 -2.0791283857807628 9.6395922131965079 0 -1 0 I I #
coedge $-1 $400 $284 $287 $414 reversed $277 $-1 #
coedge $-1 $284 $400 $405 $515 forward $277 $-1 #
vertex $-1 $285 $519 #
straight-curve $-1 69.025543992431409 1.6688319742693523 97.355597725873594 0 0 1 I I #
straight-curve $-1 -6.1624656488595946 1.6688319742693523 119.5231858104562 0.54463902268945019 0 -0.83867057594974714 I I #
edge $-1 $513 -9.9853455173924033 $289 1.6688319742693523 $409 $520 forward 7 unknown #
point $-1 69.025543992431409 1.6688319742693523 9.6395922131965115 #
point $-1 65.196772105061854 1.6688319742693523 9.6395922131965222 #
edge $-1 $521 1 $521 0 $292 $-1 forward 7 unknown #
vertex $-1 $293 $522 #
ellipse-curve $-1 62.346230964254666 -6.6555805197747588 3.5973165463087597 0.83867057594974714 0 0.54463902268945019 0.81695853403417529 0 -1.2580058639246208 1 I I #
point $-1 67.928116582780817 -6.6555805197747588 5.4336904125246921 #
edge $-1 $523 1 $523 0 $296 $-1 forward 7 unknown #
vertex $-1 $297 $524 #
ellipse-curve $-1 62.346230964254666 -1.6609330233482922 3.5973165463087597 0.83867057594974714 0 0.54463902268945019 0.81695853403417529 0 -1.2580058639246208 1 I I #
point $-1 67.928116582780817 -1.6609330233482922 5.4336904125246921 #
plane-surface $-1 0 0 9.6395922131965115 0 0 1 1 0 0 forward_v I I I I #
coedge $-1 $436 $435 $428 $525 forward $301 $-1 #
coedge $-1 $428 $303 $305 $432 reversed $190 $-1 #
coedge $-1 $303 $427 $426 $525 reversed $190 $-1 #
coedge $-1 $311 $306 $303 $430 forward $312 $-1 #
edge $-1 $433 10.38831219411459 $526 14.217084081484145 $429 $527 forward 7 unknown #
coedge $-1 $305 $304 $436 $528 reversed $119 $-1 #
edge $-1 $529 -138.05108798486285 $433 -131.02116223980161 $427 $530 forward 7 unknown #
vertex $-1 $307 $531 #
straight-curve $-1 65.196772105061868 5.9266574588061651 9.6395922131965079 0 -1 0 I I #
coedge $-1 $426 $308 $311 $440 reversed $301 $-1 #
coedge $-1 $308 $426 $431 $528 forward $301 $-1 #
vertex $-1 $309 $532 #
straight-curve $-1 69.025543992431409 17.680403663443208 97.355597725873594 0 0 1 I I #
straight-curve $-1 -6.1624656488595946 17.680403663443208 119.5231858104562 0.54463902268945019 0 -0.83867057594974714 I I #
edge $-1 $526 6.0262261717814525 $313 17.680403663443208 $435 $533 forward 7 unknown #
point $-1 69.025543992431409 17.680403663443208 9.6395922131965115 #
point $-1 65.196772105061854 17.680403663443208 9.6395922131965222 #
edge $-1 $534 1 $534 0 $316 $-1 forward 7 unknown #
vertex $-1 $317 $535 #
ellipse-curve $-1 62.346230964254666 9.3559911693990969 3.5973165463087597 0.83867057594974714 0 0.54463902268945019 0.81695853403417529 0 -1.2580058639246208 1 I I #
point $-1 67.928116582780817 9.3559911693990969 5.4336904125246921 #
edge $-1 $536 1 $536 0 $320 $-1 forward 7 unknown #
vertex $-1 $321 $537 #
ellipse-curve $-1 62.346230964254666 14.350638665825564 3.5973165463087597 0.83867057594974714 0 0.54463902268945019 0.81695853403417529 0 -1.2580058639246208 1 I I #
point $-1 67.928116582780817 14.350638665825564 5.4336904125246921 #
loop $-1 $-1 $331 $324 #
plane-surface $-1 -69.025543992431409 0 0 1 0 0 0 0 -1 forward_v I I I I #
coedge $-1 $538 $539 $328 $455 forward $325 $-1 #
coedge $-1 $328 $327 $460 $540 reversed $133 $-1 #
edge $-1 $457 9.0170664373531064 $541 15.52147161380972 $453 $542 forward 7 unknown #
coedge $-1 $334 $329 $539 $543 forward $212 $-1 #
vertex $-1 $543 $544 #
straight-curve $-1 -65.77334149134569 12.393663720453603 9.6395922131965115 0 1 0 I I #
coedge $-1 $545 $331 $334 $464 reversed $451 $-1 #
coedge $-1 $331 $545 $454 $540 forward $451 $-1 #
vertex $-1 $332 $546 #
straight-curve $-1 -69.025543992431409 21.09232280341643 36.516077093230976 0 0 1 I I #
straight-curve $-1 -69.025543992431437 21.09232280341643 4.0066120435662356 -0.49999998660252726 0 -0.86602541151947299 I I #
edge $-1 $547 -28.482332078397981 $335 -21.09232280341643 $459 $548 forward 7 unknown #
point $-1 -69.025543992431409 21.09232280341643 9.6395922131965115 #
point $-1 -65.77334149134569 21.09232280341643 9.6395922131965115 #
edge $-1 $549 1 $549 0 $338 $-1 forward 7 unknown #
vertex $-1 $339 $550 #
ellipse-curve $-1 -65.94898827332311 22.570324658412737 5.9856818804260064 -0.86602541151947299 0 0.49999998660252726 0.24999999330126363 0 0.43301270575973649 1 I I #
point $-1 -67.149442748587262 22.570324658412737 7.2561148341411057 #
edge $-1 $551 1 $551 0 $342 $-1 forward 7 unknown #
vertex $-1 $343 $552 #
ellipse-curve $-1 -65.94898827332311 24.787327440907205 5.9856818804260064 -0.86602541151947299 0 0.49999998660252726 0.24999999330126363 0 0.43301270575973649 1 I I #
point $-1 -67.149442748587262 24.787327440907205 7.2561148341411057 #
edge $-1 $553 1 $553 0 $346 $-1 forward 7 unknown #
vertex $-1 $347 $554 #
ellipse-curve $-1 -65.94898827332311 27.004330223401674 5.9856818804260064 -0.86602541151947299 0 0.49999998660252726 0.24999999330126363 0 0.43301270575973649 1 I I #
point $-1 -67.149442748587262 27.004330223401674 7.2561148341411057 #
plane-surface $-1 69.025543992431409 0 0 -1 0 0 0 0 1 forward_v I I I I #
coedge $-1 $355 $353 $357 $484 reversed $241 $-1 #
edge $-1 $368 -9.6395922131965115 $486 9.6395922131965115 $367 $555 forward 7 unknown #
vertex $-1 $484 $556 #
straight-curve $-1 -69.025543992431409 -28.482332078397981 0 0 0 -1 I I #
edge $-1 $482 -28.482332078397981 $486 28.482332078397981 $480 $557 forward 7 unknown #
straight-curve $-1 0 -28.482332078397981 -9.6395922131965115 -1 0 0 I I #
vertex $-1 $360 $558 #
straight-curve $-1 0 28.482332078397981 -9.6395922131965115 1 0 0 I I #
point $-1 69.025543992431409 28.482332078397981 -9.6395922131965115 #
point $-1 69.025543992431409 -28.482332078397981 -9.6395922131965115 #
straight-curve $-1 -69.025543992431409 0 9.6395922131965115 0 -1 0 I I #
point $-1 -69.025543992431409 28.482332078397981 9.6395922131965115 #
point $-1 -69.025543992431409 -28.482332078397981 9.6395922131965115 #
straight-curve $-1 69.025543992431409 -28.482332078397981 0 0 0 -1 I I #
straight-curve $-1 69.025543992431409 28.482332078397981 0 0 0 -1 I I #
plane-surface $-1 69.025543992431409 0 0 -1 0 0 0 0 1 forward_v I I I I #
coedge $-1 $381 $380 $391 $507 reversed $160 $-1 #
coedge $-1 $559 $384 $381 $498 forward $378 $-1 #
edge $-1 $499 20.787273932347176 $560 28.482332078397981 $381 $561 forward 7 unknown #
vertex $-1 $498 $562 #
straight-curve $-1 -69.025543992431409 -20.787273932347176 3.8026921868529335 0 0 -1 I I #
coedge $-1 $384 $559 $386 $503 forward $378 $-1 #
straight-curve $-1 0 -20.787273932347176 9.6395922131965115 -1 0 0 I I #
edge $-1 $510 -28.482332078397981 $387 -20.787273932347176 $386 $563 forward 7 unknown #
point $-1 69.025543992431409 -20.787273932347176 9.6395922131965115 #
straight-curve $-1 -69.025543992431409 -12.317401502686289 5.5711765342152235 0 -1 0 I I #
coedge $-1 $391 $390 $559 $564 reversed $260 $-1 #
edge $-1 $560 -9.6395922131965115 $392 -5.5711765342152235 $496 $565 forward 7 unknown #
point $-1 -69.025543992431409 -28.482332078397981 5.5711765342152235 #
point $-1 -69.025543992431409 -20.787273932347176 5.5711765342152235 #
vertex $-1 $503 $566 #
straight-curve $-1 69.025543992431409 -28.482332078397981 0 0 0 -1 I I #
edge $-1 $513 87.716005512677086 $516 93.611797386171531 $400 $567 forward 7 unknown #
vertex $-1 $414 $568 #
straight-curve $-1 54.808459910947263 -9.9853455173924033 9.6395922131965079 1 0 0 I I #
edge $-1 $516 -7.9062171316116405 $411 3.747960360050115 $410 $569 forward 7 unknown #
vertex $-1 $515 $570 #
straight-curve $-1 -6.1624656488595946 -9.9853455173924033 119.5231858104562 -0.54463902268945019 0 0.83867057594974714 I I #
point $-1 65.196772105061854 -9.9853455173924033 9.6395922131965222 #
point $-1 69.025543992431409 1.6688319742693523 3.7438003397020623 #
straight-curve $-1 69.025543992431409 0 9.6395922131965115 0 1 0 I I #
vertex $-1 $417 $571 #
point $-1 63.163189498288837 -6.6555805197747588 2.3393106823841388 #
vertex $-1 $421 $572 #
point $-1 63.163189498288837 -1.6609330233482922 2.3393106823841388 #
edge $-1 $526 87.716005512677086 $529 93.611797386171531 $426 $573 forward 7 unknown #
vertex $-1 $440 $574 #
straight-curve $-1 54.808459910947263 6.0262261717814525 9.6395922131965079 1 0 0 I I #
edge $-1 $529 0.099568712975287355 $437 11.753746204637043 $436 $575 forward 7 unknown #
vertex $-1 $528 $576 #
straight-curve $-1 -6.1624656488595946 6.0262261717814525 119.5231858104562 -0.54463902268945019 0 0.83867057594974714 I I #
point $-1 65.196772105061854 6.0262261717814525 9.6395922131965222 #
point $-1 69.025543992431409 17.680403663443208 3.7438003397020623 #
straight-curve $-1 69.025543992431409 0 9.6395922131965115 0 1 0 I I #
vertex $-1 $443 $577 #
point $-1 63.163189498288837 9.3559911693990969 2.3393106823841388 #
vertex $-1 $447 $578 #
point $-1 63.163189498288837 14.350638665825564 2.3393106823841388 #
coedge $-1 $539 $453 $545 $579 reversed $325 $-1 #
coedge $-1 $453 $538 $456 $543 reversed $325 $-1 #
edge $-1 $541 -16.088668357944378 $461 -8.698659082962827 $460 $580 forward 7 unknown #
vertex $-1 $455 $581 #
straight-curve $-1 -61.264808393475036 28.482332078397981 17.448600885303662 -0.49999998660252726 0 -0.86602541151947299 I I #
edge $-1 $457 65.77334149134569 $547 69.025543992431409 $539 $582 forward 7 unknown #
point $-1 -65.77334149134569 28.482332078397981 9.6395922131965115 #
coedge $-1 $460 $459 $538 $579 forward $451 $-1 #
point $-1 -69.025543992431409 21.09232280341643 4.0066120435662844 #
vertex $-1 $543 $583 #
straight-curve $-1 -69.025543992431409 0 9.6395922131965115 0 -1 0 I I #
vertex $-1 $467 $584 #
point $-1 -65.698988280021851 22.570324658412737 6.4186945861857421 #
vertex $-1 $471 $585 #
point $-1 -65.698988280021851 24.787327440907205 6.4186945861857421 #
vertex $-1 $475 $586 #
point $-1 -65.698988280021851 27.004330223401674 6.4186945861857421 #
straight-curve $-1 -69.025543992431409 28.482332078397981 0 0 0 -1 I I #
point $-1 -69.025543992431409 -28.482332078397981 -9.6395922131965115 #
straight-curve $-1 -69.025543992431409 0 -9.6395922131965115 0 1 0 I I #
point $-1 -69.025543992431409 28.482332078397981 -9.6395922131965115 #
coedge $-1 $501 $497 $506 $564 forward $378 $-1 #
vertex $-1 $498 $587 #
straight-curve $-1 -69.025543992431409 0 9.6395922131965115 0 -1 0 I I #
point $-1 -69.025543992431409 -20.787273932347176 9.6395922131965115 #
straight-curve $-1 69.025543992431409 0 9.6395922131965115 0 1 0 I I #
edge $-1 $560 -69.025543992431409 $510 69.025543992431409 $506 $588 forward 7 unknown #
straight-curve $-1 -69.025543992431409 -28.482332078397981 0 0 0 -1 I I #
point $-1 69.025543992431409 -28.482332078397981 9.6395922131965115 #
straight-curve $-1 69.025543992431409 -9.9853455173924033 97.355597725873594 0 0 -1 I I #
point $-1 69.025543992431409 -9.9853455173924033 9.6395922131965115 #
straight-curve $-1 69.025543992431409 -2.0791283857807628 3.7438003397020481 0 1 0 I I #
point $-1 69.025543992431409 -9.9853455173924033 3.7438003397020623 #
point $-1 61.088225100330042 -6.6555805197747588 2.7803580122745841 #
point $-1 61.088225100330042 -1.6609330233482922 2.7803580122745841 #
straight-curve $-1 69.025543992431409 6.0262261717814525 97.355597725873594 0 0 -1 I I #
point $-1 69.025543992431409 6.0262261717814525 9.6395922131965115 #
straight-curve $-1 69.025543992431409 5.9266574588061651 3.7438003397020481 0 1 0 I I #
point $-1 69.025543992431409 6.0262261717814525 3.7438003397020623 #
point $-1 61.088225100330042 9.3559911693990969 2.7803580122745841 #
point $-1 61.088225100330042 14.350638665825564 2.7803580122745841 #
edge $-1 $547 -9.6395922131965115 $541 -4.0066120435662844 $538 $589 forward 7 unknown #
straight-curve $-1 -69.025543992431409 12.393663720453603 4.0066120435662782 0 -1 0 I I #
point $-1 -69.025543992431409 28.482332078397981 4.0066120435662844 #
straight-curve $-1 0 28.482332078397981 9.6395922131965115 -1 0 0 I I #
point $-1 -69.025543992431409 28.482332078397981 9.6395922131965115 #
point $-1 -65.515975567563387 22.570324658412737 5.7356818871247421 #
point $-1 -65.515975567563387 24.787327440907205 5.7356818871247421 #
point $-1 -65.515975567563387 27.004330223401674 5.7356818871247421 #
point $-1 -69.025543992431409 -28.482332078397981 9.6395922131965115 #
straight-curve $-1 0 -28.482332078397981 9.6395922131965115 1 0 0 I I #
straight-curve $-1 -69.025543992431409 28.482332078397981 0 0 0 -1 I I #
End-of-ACIS-data 