500 0 8 0           
7 Unknown 11 ACIS 5.0 NT 24 Fri Mar 26 20:09:17 1999 
-1 9.9999999999999995e-007 1e-010 
body $-1 $8 $-1 $9 #
body $-1 $10 $-1 $11 #
body $-1 $12 $-1 $13 #
body $-1 $14 $-1 $15 #
body $-1 $16 $-1 $17 #
body $-1 $18 $-1 $19 #
body $-1 $20 $-1 $21 #
body $-1 $22 $-1 $23 #
lump $-1 $-1 $24 $0 #
transform $-1 1 0 0 0 1 0 0 0 1 70.538041322061829 44.35477331473416 9.1645595194172405 1 rotate no_reflect no_shear #
lump $-1 $-1 $25 $1 #
transform $-1 1 0 0 0 1 0 0 0 1 70.538041322061829 44.35477331473416 9.1645595194172405 1 rotate no_reflect no_shear #
lump $-1 $-1 $26 $2 #
transform $-1 1 0 0 0 1 0 0 0 1 70.538041322061829 44.35477331473416 9.1645595194172405 1 rotate no_reflect no_shear #
lump $-1 $-1 $27 $3 #
transform $-1 1 0 0 0 1 0 0 0 1 70.538041322061829 44.35477331473416 9.1645595194172405 1 rotate no_reflect no_shear #
lump $-1 $-1 $28 $4 #
transform $-1 1 0 0 0 1 0 0 0 1 70.538041322061829 44.35477331473416 9.1645595194172405 1 rotate no_reflect no_shear #
lump $-1 $-1 $29 $5 #
transform $-1 1 0 0 0 1 0 0 0 1 70.538041322061829 44.35477331473416 9.1645595194172405 1 rotate no_reflect no_shear #
lump $-1 $-1 $30 $6 #
transform $-1 1 0 0 0 1 0 0 0 1 70.538041322061829 44.35477331473416 9.1645595194172405 1 rotate no_reflect no_shear #
lump $-1 $-1 $31 $7 #
transform $-1 1 0 0 0 1 0 0 0 1 70.538041322061829 44.35477331473416 9.1645595194172405 1 rotate no_reflect no_shear #
shell $-1 $-1 $-1 $32 $-1 $8 #
shell $-1 $-1 $-1 $33 $-1 $10 #
shell $-1 $-1 $-1 $34 $-1 $12 #
shell $-1 $-1 $-1 $35 $-1 $14 #
shell $-1 $-1 $-1 $36 $-1 $16 #
shell $-1 $-1 $-1 $37 $-1 $18 #
shell $-1 $-1 $-1 $38 $-1 $20 #
shell $-1 $-1 $-1 $39 $-1 $22 #
face $-1 $40 $41 $24 $-1 $42 forward single #
face $-1 $43 $44 $25 $-1 $45 forward single #
face $-1 $46 $47 $26 $-1 $48 reversed single #
face $-1 $49 $50 $27 $-1 $51 forward single #
face $-1 $52 $53 $28 $-1 $54 forward single #
face $-1 $55 $56 $29 $-1 $57 reversed single #
face $-1 $58 $59 $30 $-1 $60 forward single #
face $-1 $61 $62 $31 $-1 $63 forward single #
face $-1 $64 $65 $24 $-1 $66 reversed single #
loop $-1 $-1 $67 $32 #
plane-surface $-1 0 0 9.1645595194172405 0 0 1 1 0 0 forward_v I I I I #
face $-1 $68 $69 $25 $-1 $70 reversed single #
loop $-1 $-1 $71 $33 #
plane-surface $-1 0 -41.141536161928983 1.1077313664948654 0 0 1 1 0 0 forward_v I I I I #
face $-1 $72 $73 $26 $-1 $74 reversed single #
loop $-1 $-1 $75 $34 #
plane-surface $-1 -155.43974833957765 20.958075016183273 118.39608271108088 0 1 0 -0.6018150307709319 0 0.79863550430605224 forward_v I I I I #
face $-1 $76 $77 $27 $-1 $78 forward single #
loop $-1 $79 $80 $35 #
cone-surface $-1 -67.956710028406732 27.642845958626381 7.0468191590900338 0.6018150307709319 0 -0.79863550430605224 0.39931775215302612 0 0.30090751538546595 1 I I 0 1 0.5 forward I I I I #
face $-1 $81 $82 $28 $-1 $83 forward single #
loop $-1 $84 $85 $36 #
cone-surface $-1 -67.956710028406732 37.670002372291052 7.0468191590900338 0.6018150307709319 0 -0.79863550430605224 0.39931775215302612 0 0.30090751538546595 1 I I 0 1 0.5 forward I I I I #
face $-1 $86 $87 $29 $-1 $88 reversed single #
loop $-1 $-1 $89 $37 #
plane-surface $-1 -42.130327085950171 32.656424165458716 90.629421320584683 0.6018150307709319 0 0.79863550430605224 0.79863550430605224 0 -0.6018150307709319 forward_v I I I I #
face $-1 $90 $91 $30 $-1 $92 forward single #
loop $-1 $93 $94 $38 #
cone-surface $-1 67.956710028406746 27.642845958626381 7.0468191590900213 -0.6018150307709319 0 -0.79863550430605224 0.39931775215302612 0 -0.30090751538546595 1 I I 0 1 0.5 forward I I I I #
face $-1 $95 $96 $31 $-1 $97 forward single #
loop $-1 $98 $99 $39 #
cone-surface $-1 67.956710028406746 37.670002372291052 7.0468191590900213 -0.6018150307709319 0 -0.79863550430605224 0.39931775215302612 0 -0.30090751538546595 1 I I 0 1 0.5 forward I I I I #
face $-1 $100 $101 $24 $-1 $102 reversed single #
loop $-1 $-1 $103 $40 #
plane-surface $-1 0 0 -9.1645595194172405 0 0 1 1 0 0 forward_v I I I I #
coedge $-1 $104 $105 $106 $107 forward $41 $-1 #
face $-1 $108 $109 $25 $-1 $110 reversed single #
loop $-1 $-1 $111 $43 #
plane-surface $-1 0 -41.141536161928983 -1.8922686335051337 0 0 1 1 0 0 forward_v I I I I #
coedge $-1 $112 $113 $114 $115 reversed $44 $-1 #
face $-1 $116 $117 $26 $-1 $118 forward single #
loop $-1 $-1 $119 $46 #
plane-surface $-1 -70.538041322061829 32.656424165458716 5.7277143030688791 -0.6018150307709319 0 0.79863550430605224 0.79863550430605224 0 0.6018150307709319 forward_v I I I I #
coedge $-1 $120 $121 $122 $123 reversed $47 $-1 #
face $-1 $-1 $124 $27 $-1 $125 forward single #
loop $-1 $126 $127 $49 #
cone-surface $-1 -67.505348755328527 27.642845958626381 6.4478425308604947 0.6018150307709319 0 -0.79863550430605224 0.19965887607651306 0 0.15045375769273298 1 I I -0.70710678118654746 0.70710678118654746 0.25 forward I I I I #
loop $-1 $-1 $128 $35 #
coedge $-1 $80 $80 $129 $130 reversed $50 $-1 #
face $-1 $-1 $131 $28 $-1 $132 forward single #
loop $-1 $133 $134 $52 #
cone-surface $-1 -67.505348755328527 37.670002372291052 6.4478425308604947 0.6018150307709319 0 -0.79863550430605224 0.19965887607651306 0 0.15045375769273298 1 I I -0.70710678118654746 0.70710678118654746 0.25 forward I I I I #
loop $-1 $-1 $135 $36 #
coedge $-1 $85 $85 $136 $137 reversed $53 $-1 #
face $-1 $138 $139 $29 $-1 $140 reversed single #
loop $-1 $-1 $141 $55 #
plane-surface $-1 42.771379931565647 20.958075016183273 203.29778972859668 0 1 0 0.6018150307709319 0 0.79863550430605224 forward_v I I I I #
coedge $-1 $142 $143 $144 $145 reversed $56 $-1 #
face $-1 $-1 $146 $30 $-1 $147 forward single #
loop $-1 $148 $149 $58 #
cone-surface $-1 67.505348755328541 27.642845958626381 6.4478425308604823 -0.6018150307709319 0 -0.79863550430605224 0.19965887607651306 0 -0.15045375769273298 1 I I -0.70710678118654746 0.70710678118654746 0.25 forward I I I I #
loop $-1 $-1 $150 $38 #
coedge $-1 $94 $94 $151 $152 reversed $59 $-1 #
face $-1 $-1 $153 $31 $-1 $154 forward single #
loop $-1 $155 $156 $61 #
cone-surface $-1 67.505348755328541 37.670002372291052 6.4478425308604823 -0.6018150307709319 0 -0.79863550430605224 0.19965887607651306 0 -0.15045375769273298 1 I I -0.70710678118654746 0.70710678118654746 0.25 forward I I I I #
loop $-1 $-1 $157 $39 #
coedge $-1 $99 $99 $158 $159 reversed $62 $-1 #
face $-1 $160 $161 $24 $-1 $162 reversed single #
loop $-1 $-1 $163 $64 #
plane-surface $-1 0 -44.35477331473416 0 0 1 0 0 0 1 forward_v I I I I #
coedge $-1 $164 $165 $166 $167 forward $65 $-1 #
coedge $-1 $168 $67 $169 $170 forward $41 $-1 #
coedge $-1 $67 $168 $171 $172 forward $41 $-1 #
coedge $-1 $173 $174 $67 $107 reversed $175 $-1 #
edge $-1 $176 -44.35477331473416 $177 44.35477331473416 $106 $178 forward 7 unknown #
face $-1 $179 $180 $25 $-1 $181 reversed single #
loop $-1 $-1 $182 $68 #
plane-surface $-1 0 -37.928299009123805 -0.39226863350513419 0 -1 0 0 0 -1 forward_v I I I I #
coedge $-1 $183 $184 $185 $186 reversed $69 $-1 #
coedge $-1 $187 $71 $188 $189 forward $44 $-1 #
coedge $-1 $71 $187 $190 $191 reversed $44 $-1 #
coedge $-1 $192 $193 $71 $115 forward $194 $-1 #
edge $-1 $195 17.357530928159314 $196 23.784005233769669 $114 $197 forward 7 unknown #
face $-1 $198 $199 $26 $-1 $200 reversed single #
loop $-1 $-1 $122 $72 #
plane-surface $-1 0 0 9.1645595194172405 0 0 1 1 0 0 forward_v I I I I #
coedge $-1 $201 $202 $203 $204 reversed $73 $-1 #
coedge $-1 $121 $75 $205 $206 reversed $47 $-1 #
coedge $-1 $75 $120 $201 $207 reversed $47 $-1 #
coedge $-1 $203 $208 $75 $123 forward $117 $-1 #
edge $-1 $209 7.1818328477269944 $210 11.742680404266281 $122 $211 forward 7 unknown #
loop $-1 $-1 $129 $76 #
plane-surface $-1 -70.538041322061829 32.656424165458716 5.7277143030688791 -0.6018150307709319 0 0.79863550430605224 0.79863550430605224 0 0.6018150307709319 forward_v I I I I #
loop $-1 $-1 $212 $49 #
coedge $-1 $127 $127 $128 $213 reversed $77 $-1 #
coedge $-1 $128 $128 $127 $213 forward $79 $-1 #
coedge $-1 $129 $129 $80 $130 forward $124 $-1 #
edge $-1 $214 0 $214 6.2831853071796004 $129 $215 forward 7 unknown #
loop $-1 $-1 $136 $81 #
plane-surface $-1 -70.538041322061829 32.656424165458716 5.7277143030688791 -0.6018150307709319 0 0.79863550430605224 0.79863550430605224 0 0.6018150307709319 forward_v I I I I #
loop $-1 $-1 $216 $52 #
coedge $-1 $134 $134 $135 $217 reversed $82 $-1 #
coedge $-1 $135 $135 $134 $217 forward $84 $-1 #
coedge $-1 $136 $136 $85 $137 forward $131 $-1 #
edge $-1 $218 0 $218 6.2831853071796004 $136 $219 forward 7 unknown #
face $-1 $220 $221 $29 $-1 $222 forward single #
loop $-1 $-1 $223 $86 #
plane-surface $-1 70.538041322061829 0 0 -1 0 0 0 0 1 forward_v I I I I #
coedge $-1 $224 $225 $226 $227 reversed $87 $-1 #
coedge $-1 $228 $89 $229 $230 reversed $56 $-1 #
coedge $-1 $89 $228 $224 $231 forward $56 $-1 #
coedge $-1 $226 $232 $89 $145 forward $221 $-1 #
edge $-1 $233 -28.026561232004802 $234 -4.6298629334539143 $144 $235 forward 7 unknown #
loop $-1 $-1 $151 $90 #
plane-surface $-1 -42.130327085950171 32.656424165458716 90.629421320584683 0.6018150307709319 0 0.79863550430605224 0.79863550430605224 0 -0.6018150307709319 forward_v I I I I #
loop $-1 $-1 $236 $58 #
coedge $-1 $149 $149 $150 $237 reversed $91 $-1 #
coedge $-1 $150 $150 $149 $237 forward $93 $-1 #
coedge $-1 $151 $151 $94 $152 forward $146 $-1 #
edge $-1 $238 0 $238 6.2831853071796004 $151 $239 forward 7 unknown #
loop $-1 $-1 $158 $95 #
plane-surface $-1 -42.130327085950171 32.656424165458716 90.629421320584683 0.6018150307709319 0 0.79863550430605224 0.79863550430605224 0 -0.6018150307709319 forward_v I I I I #
loop $-1 $-1 $240 $61 #
coedge $-1 $156 $156 $157 $241 reversed $96 $-1 #
coedge $-1 $157 $157 $156 $241 forward $98 $-1 #
coedge $-1 $158 $158 $99 $159 forward $153 $-1 #
edge $-1 $242 0 $242 6.2831853071796004 $158 $243 forward 7 unknown #
face $-1 $244 $245 $24 $-1 $246 reversed single #
loop $-1 $-1 $247 $100 #
plane-surface $-1 -70.538041322061829 0 0 1 0 0 0 0 -1 forward_v I I I I #
coedge $-1 $248 $171 $249 $250 forward $101 $-1 #
coedge $-1 $251 $103 $248 $252 forward $65 $-1 #
coedge $-1 $103 $251 $253 $254 forward $65 $-1 #
coedge $-1 $174 $173 $103 $167 reversed $175 $-1 #
edge $-1 $255 -44.35477331473416 $256 44.35477331473416 $166 $257 forward 7 unknown #
coedge $-1 $105 $104 $258 $259 forward $41 $-1 #
coedge $-1 $260 $261 $104 $170 reversed $245 $-1 #
edge $-1 $177 -70.538041322061829 $262 70.538041322061829 $169 $263 forward 7 unknown #
coedge $-1 $163 $264 $105 $172 reversed $101 $-1 #
edge $-1 $265 -70.538041322061829 $176 70.538041322061829 $171 $266 forward 7 unknown #
coedge $-1 $166 $106 $264 $267 forward $175 $-1 #
coedge $-1 $106 $166 $260 $268 reversed $175 $-1 #
loop $-1 $-1 $173 $244 #
vertex $-1 $107 $269 #
vertex $-1 $107 $270 #
straight-curve $-1 70.538041322061829 0 9.1645595194172405 0 1 0 I I #
face $-1 $271 $272 $25 $-1 $273 reversed single #
loop $-1 $-1 $274 $108 #
plane-surface $-1 -70.538041322061829 0 0 1 0 0 0 0 -1 forward_v I I I I #
coedge $-1 $275 $188 $193 $276 reversed $109 $-1 #
coedge $-1 $277 $111 $278 $279 reversed $69 $-1 #
coedge $-1 $111 $277 $275 $280 forward $69 $-1 #
coedge $-1 $193 $192 $111 $186 forward $194 $-1 #
edge $-1 $281 -23.784005233769669 $282 -17.357530928159314 $185 $283 forward 7 unknown #
coedge $-1 $113 $112 $274 $284 reversed $44 $-1 #
coedge $-1 $182 $285 $112 $189 reversed $109 $-1 #
edge $-1 $195 -70.538041322061829 $286 70.538041322061829 $188 $287 forward 7 unknown #
coedge $-1 $288 $289 $113 $191 forward $272 $-1 #
edge $-1 $196 -70.538041322061829 $290 70.538041322061829 $190 $291 forward 7 unknown #
coedge $-1 $185 $114 $289 $292 forward $194 $-1 #
coedge $-1 $114 $185 $182 $276 forward $194 $-1 #
loop $-1 $-1 $114 $271 #
vertex $-1 $115 $293 #
vertex $-1 $292 $294 #
straight-curve $-1 70.538041322061829 -20.570768080964491 1.1077313664948654 0 -1 0 I I #
face $-1 $-1 $295 $26 $-1 $296 reversed single #
loop $-1 $-1 $297 $116 #
plane-surface $-1 0 44.35477331473416 0 0 -1 0 0 0 -1 forward_v I I I I #
coedge $-1 $298 $119 $121 $207 forward $73 $-1 #
coedge $-1 $119 $298 $297 $299 reversed $73 $-1 #
coedge $-1 $300 $122 $119 $204 forward $117 $-1 #
edge $-1 $210 4.6298629334539143 $301 28.026561232004802 $203 $302 forward 7 unknown #
coedge $-1 $303 $304 $120 $206 forward $295 $-1 #
edge $-1 $305 -53.470327052471561 $209 -50.033481836123201 $205 $306 forward 7 unknown #
edge $-1 $210 -5.7107998980113983 $305 0 $121 $307 forward 7 unknown #
coedge $-1 $122 $300 $303 $308 forward $117 $-1 #
vertex $-1 $206 $309 #
vertex $-1 $123 $310 #
straight-curve $-1 -77.719874169788824 20.958075016183273 9.1645595194172387 1 0 0 I I #
coedge $-1 $212 $212 $-1 $311 reversed $126 $-1 #
edge $-1 $312 0 $312 6.2831853071796004 $127 $313 forward 7 unknown #
vertex $-1 $130 $314 #
ellipse-curve $-1 -68.257617543792193 27.642845958626381 7.4461369112430553 -0.6018150307709319 0 0.79863550430605224 0.39931775215302612 0 0.30090751538546595 1 I I #
coedge $-1 $216 $216 $-1 $315 reversed $133 $-1 #
edge $-1 $316 0 $316 6.2831853071796004 $134 $317 forward 7 unknown #
vertex $-1 $137 $318 #
ellipse-curve $-1 -68.257617543792193 37.670002372291052 7.4461369112430553 -0.6018150307709319 0 0.79863550430605224 0.39931775215302612 0 0.30090751538546595 1 I I #
face $-1 $-1 $319 $29 $-1 $320 reversed single #
loop $-1 $-1 $226 $138 #
plane-surface $-1 0 0 9.1645595194172405 0 0 1 1 0 0 forward_v I I I I #
coedge $-1 $321 $322 $225 $323 forward $139 $-1 #
coedge $-1 $225 $141 $143 $231 reversed $87 $-1 #
coedge $-1 $141 $224 $223 $323 reversed $87 $-1 #
coedge $-1 $324 $144 $141 $227 forward $221 $-1 #
edge $-1 $234 44.591503799739719 $325 49.152351356279006 $226 $326 forward 7 unknown #
coedge $-1 $143 $142 $321 $327 reversed $56 $-1 #
coedge $-1 $328 $329 $142 $230 forward $319 $-1 #
edge $-1 $330 -96.981621144290585 $233 -91.270821246279183 $229 $331 forward 7 unknown #
edge $-1 $332 -141.07608264412366 $234 -135.36528274611229 $224 $333 forward 7 unknown #
coedge $-1 $144 $324 $328 $334 forward $221 $-1 #
vertex $-1 $230 $335 #
vertex $-1 $145 $336 #
straight-curve $-1 65.977193765522557 16.328212082729358 9.1645595194172316 0 -1 0 I I #
coedge $-1 $236 $236 $-1 $337 reversed $148 $-1 #
edge $-1 $338 0 $338 6.2831853071796004 $149 $339 forward 7 unknown #
vertex $-1 $152 $340 #
ellipse-curve $-1 68.257617543792207 27.642845958626381 7.4461369112430473 0.6018150307709319 0 0.79863550430605224 0.39931775215302612 0 -0.30090751538546595 1 I I #
coedge $-1 $240 $240 $-1 $341 reversed $155 $-1 #
edge $-1 $342 0 $342 6.2831853071796004 $156 $343 forward 7 unknown #
vertex $-1 $159 $344 #
ellipse-curve $-1 68.257617543792207 37.670002372291052 7.4461369112430473 0.6018150307709319 0 0.79863550430605224 0.39931775215302612 0 -0.30090751538546595 1 I I #
face $-1 $-1 $175 $24 $-1 $345 reversed single #
loop $-1 $-1 $260 $160 #
plane-surface $-1 0 44.35477331473416 0 0 -1 0 0 0 -1 forward_v I I I I #
coedge $-1 $346 $258 $261 $347 forward $161 $-1 #
coedge $-1 $264 $163 $164 $252 reversed $101 $-1 #
coedge $-1 $258 $346 $163 $250 reversed $161 $-1 #
edge $-1 $265 -9.1645595194172405 $348 9.1645595194172405 $249 $349 forward 7 unknown #
coedge $-1 $165 $164 $346 $350 forward $65 $-1 #
edge $-1 $256 -70.538041322061829 $348 70.538041322061829 $248 $351 forward 7 unknown #
coedge $-1 $261 $260 $165 $254 reversed $245 $-1 #
edge $-1 $352 -70.538041322061829 $255 70.538041322061829 $253 $353 forward 7 unknown #
vertex $-1 $167 $354 #
vertex $-1 $267 $355 #
straight-curve $-1 70.538041322061829 0 -9.1645595194172405 0 -1 0 I I #
coedge $-1 $247 $249 $168 $259 reversed $161 $-1 #
edge $-1 $262 -44.35477331473416 $265 44.35477331473416 $258 $356 forward 7 unknown #
coedge $-1 $253 $169 $174 $268 forward $245 $-1 #
coedge $-1 $169 $253 $247 $347 reversed $245 $-1 #
vertex $-1 $170 $357 #
straight-curve $-1 0 44.35477331473416 9.1645595194172405 -1 0 0 I I #
coedge $-1 $171 $248 $173 $267 reversed $101 $-1 #
vertex $-1 $259 $358 #
straight-curve $-1 0 -44.35477331473416 9.1645595194172405 1 0 0 I I #
edge $-1 $176 -9.1645595194172405 $256 9.1645595194172405 $173 $359 forward 7 unknown #
edge $-1 $177 -9.1645595194172405 $255 9.1645595194172405 $174 $360 forward 7 unknown #
point $-1 70.538041322061829 -44.35477331473416 9.1645595194172405 #
point $-1 70.538041322061829 44.35477331473416 9.1645595194172405 #
face $-1 $-1 $194 $25 $-1 $361 reversed single #
loop $-1 $-1 $190 $179 #
plane-surface $-1 0 -44.35477331473416 0 0 1 0 0 0 1 forward_v I I I I #
coedge $-1 $362 $363 $187 $284 forward $180 $-1 #
coedge $-1 $285 $182 $184 $280 reversed $109 $-1 #
edge $-1 $282 -1.6961343167525667 $195 1.3038656832474325 $193 $364 forward 7 unknown #
coedge $-1 $184 $183 $365 $366 reversed $69 $-1 #
coedge $-1 $289 $288 $183 $279 forward $272 $-1 #
edge $-1 $367 -70.538041322061829 $281 70.538041322061829 $278 $368 forward 7 unknown #
edge $-1 $369 -70.538041322061829 $282 70.538041322061829 $275 $370 forward 7 unknown #
vertex $-1 $279 $371 #
vertex $-1 $186 $372 #
straight-curve $-1 70.538041322061829 -20.570768080964491 -1.8922686335051337 0 1 0 I I #
edge $-1 $290 -23.784005233769669 $286 -17.357530928159314 $274 $373 forward 7 unknown #
coedge $-1 $188 $275 $362 $374 reversed $109 $-1 #
vertex $-1 $284 $375 #
straight-curve $-1 0 -37.928299009123805 1.1077313664948654 -1 0 0 I I #
coedge $-1 $278 $190 $363 $376 forward $272 $-1 #
coedge $-1 $190 $278 $192 $292 reversed $272 $-1 #
vertex $-1 $376 $377 #
straight-curve $-1 0 -44.35477331473416 1.1077313664948654 -1 0 0 I I #
edge $-1 $196 -1.1077313664948654 $281 1.8922686335051337 $192 $378 forward 7 unknown #
point $-1 70.538041322061829 -37.928299009123805 1.1077313664948654 #
point $-1 70.538041322061829 -44.35477331473416 1.1077313664948654 #
loop $-1 $-1 $205 $198 #
plane-surface $-1 -70.538041322061829 0 0 1 0 0 0 0 -1 forward_v I I I I #
coedge $-1 $379 $380 $202 $299 forward $199 $-1 #
coedge $-1 $202 $201 $304 $381 reversed $73 $-1 #
edge $-1 $301 20.73277992421735 $382 26.443579822228749 $297 $383 forward 7 unknown #
coedge $-1 $208 $203 $380 $384 forward $117 $-1 #
vertex $-1 $384 $385 #
straight-curve $-1 -65.977193765522557 16.328212082729358 9.1645595194172387 0 1 0 I I #
coedge $-1 $386 $205 $208 $308 reversed $295 $-1 #
coedge $-1 $205 $386 $298 $381 forward $295 $-1 #
vertex $-1 $206 $387 #
straight-curve $-1 -70.538041322061829 20.958075016183273 59.19804135554044 0 0 1 I I #
straight-curve $-1 -70.538041322061829 20.958075016183273 5.7277143030688791 -0.79863550430605224 0 -0.6018150307709319 I I #
edge $-1 $388 -44.35477331473416 $209 -20.958075016183273 $303 $389 forward 7 unknown #
point $-1 -70.538041322061829 20.958075016183273 9.1645595194172405 #
point $-1 -65.977193765522543 20.958075016183273 9.1645595194172405 #
edge $-1 $390 1 $390 0 $212 $-1 forward 7 unknown #
vertex $-1 $213 $391 #
ellipse-curve $-1 -67.655802513021257 27.642845958626381 6.6475014069370078 -0.6018150307709319 0 0.79863550430605224 0.39931775215302612 0 0.30090751538546595 1 I I #
point $-1 -67.858299791639169 27.642845958626381 7.7470444266285261 #
edge $-1 $392 1 $392 0 $216 $-1 forward 7 unknown #
vertex $-1 $217 $393 #
ellipse-curve $-1 -67.655802513021257 37.670002372291052 6.6475014069370078 -0.6018150307709319 0 0.79863550430605224 0.39931775215302612 0 0.30090751538546595 1 I I #
point $-1 -67.858299791639169 37.670002372291052 7.7470444266285261 #
loop $-1 $-1 $229 $220 #
plane-surface $-1 0 44.35477331473416 0 0 -1 0 0 0 -1 forward_v I I I I #
coedge $-1 $394 $223 $228 $327 forward $139 $-1 #
coedge $-1 $223 $394 $324 $395 reversed $139 $-1 #
edge $-1 $325 92.484335344881103 $332 95.921180561229477 $223 $396 forward 7 unknown #
coedge $-1 $232 $226 $322 $395 forward $221 $-1 #
vertex $-1 $395 $397 #
straight-curve $-1 21.385689965782824 20.958075016183273 9.1645595194172387 1 0 0 I I #
edge $-1 $332 4.6298629334539143 $330 28.026561232004802 $321 $398 forward 7 unknown #
coedge $-1 $329 $229 $232 $334 reversed $319 $-1 #
coedge $-1 $229 $328 $394 $399 forward $319 $-1 #
vertex $-1 $230 $400 #
straight-curve $-1 -6.9149245889271729 44.35477331473416 64.092711616234965 -0.79863550430605224 0 0.6018150307709319 I I #
vertex $-1 $327 $401 #
straight-curve $-1 -42.130327085950171 20.958075016183273 90.629421320584683 -0.79863550430605224 0 0.6018150307709319 I I #
edge $-1 $402 -70.538041322061829 $233 -65.977193765522543 $328 $403 forward 7 unknown #
point $-1 65.977193765522543 44.35477331473416 9.1645595194172387 #
point $-1 65.977193765522543 20.958075016183273 9.1645595194172387 #
edge $-1 $404 1 $404 0 $236 $-1 forward 7 unknown #
vertex $-1 $237 $405 #
ellipse-curve $-1 67.655802513021271 27.642845958626381 6.6475014069369953 0.6018150307709319 0 0.79863550430605224 0.39931775215302612 0 -0.30090751538546595 1 I I #
point $-1 68.656935295945232 27.642845958626381 7.1452293958575819 #
edge $-1 $406 1 $406 0 $240 $-1 forward 7 unknown #
vertex $-1 $241 $407 #
ellipse-curve $-1 67.655802513021271 37.670002372291052 6.6475014069369953 0.6018150307709319 0 0.79863550430605224 0.39931775215302612 0 -0.30090751538546595 1 I I #
point $-1 68.656935295945232 37.670002372291052 7.1452293958575819 #
plane-surface $-1 70.538041322061829 0 0 -1 0 0 0 0 1 forward_v I I I I #
coedge $-1 $249 $247 $251 $350 reversed $161 $-1 #
edge $-1 $262 -9.1645595194172405 $352 9.1645595194172405 $261 $408 forward 7 unknown #
vertex $-1 $350 $409 #
straight-curve $-1 -70.538041322061829 -44.35477331473416 0 0 0 -1 I I #
edge $-1 $348 -44.35477331473416 $352 44.35477331473416 $346 $410 forward 7 unknown #
straight-curve $-1 0 -44.35477331473416 -9.1645595194172405 -1 0 0 I I #
vertex $-1 $254 $411 #
straight-curve $-1 0 44.35477331473416 -9.1645595194172405 1 0 0 I I #
point $-1 70.538041322061829 44.35477331473416 -9.1645595194172405 #
point $-1 70.538041322061829 -44.35477331473416 -9.1645595194172405 #
straight-curve $-1 -70.538041322061829 0 9.1645595194172405 0 -1 0 I I #
point $-1 -70.538041322061829 44.35477331473416 9.1645595194172405 #
point $-1 -70.538041322061829 -44.35477331473416 9.1645595194172405 #
straight-curve $-1 70.538041322061829 -44.35477331473416 0 0 0 -1 I I #
straight-curve $-1 70.538041322061829 44.35477331473416 0 0 0 -1 I I #
plane-surface $-1 70.538041322061829 0 0 -1 0 0 0 0 1 forward_v I I I I #
coedge $-1 $365 $274 $285 $374 forward $180 $-1 #
coedge $-1 $274 $365 $288 $376 reversed $180 $-1 #
straight-curve $-1 70.538041322061829 -37.928299009123805 -0.19613431675256709 0 0 1 I I #
coedge $-1 $363 $362 $277 $366 forward $180 $-1 #
edge $-1 $369 17.357530928159314 $367 23.784005233769669 $365 $412 forward 7 unknown #
vertex $-1 $279 $413 #
straight-curve $-1 0 -44.35477331473416 -1.8922686335051337 1 0 0 I I #
vertex $-1 $366 $414 #
straight-curve $-1 0 -37.928299009123805 -1.8922686335051337 1 0 0 I I #
point $-1 70.538041322061829 -44.35477331473416 -1.8922686335051337 #
point $-1 70.538041322061829 -37.928299009123805 -1.8922686335051337 #
straight-curve $-1 -70.538041322061829 -20.570768080964491 1.1077313664948654 0 1 0 I I #
edge $-1 $286 -1.3038656832474325 $369 1.6961343167525667 $362 $415 forward 7 unknown #
point $-1 -70.538041322061829 -37.928299009123805 1.1077313664948654 #
edge $-1 $290 -1.1077313664948654 $367 1.8922686335051337 $363 $416 forward 7 unknown #
point $-1 -70.538041322061829 -44.35477331473416 1.1077313664948654 #
straight-curve $-1 70.538041322061829 -44.35477331473416 0 0 0 -1 I I #
coedge $-1 $380 $297 $386 $417 reversed $199 $-1 #
coedge $-1 $297 $379 $300 $384 reversed $199 $-1 #
edge $-1 $382 -28.026561232004802 $305 -4.6298629334539143 $304 $418 forward 7 unknown #
vertex $-1 $299 $419 #
straight-curve $-1 -49.419259615078829 44.35477331473416 21.641858107477066 -0.79863550430605224 0 -0.6018150307709319 I I #
edge $-1 $301 65.977193765522543 $388 70.538041322061829 $380 $420 forward 7 unknown #
point $-1 -65.977193765522543 44.35477331473416 9.1645595194172405 #
coedge $-1 $304 $303 $379 $417 forward $295 $-1 #
point $-1 -70.538041322061829 20.958075016183273 5.7277143030688791 #
vertex $-1 $384 $421 #
straight-curve $-1 -70.538041322061829 0 9.1645595194172405 0 -1 0 I I #
vertex $-1 $311 $422 #
point $-1 -67.256484760868233 27.642845958626381 6.9484089223224741 #
vertex $-1 $315 $423 #
point $-1 -67.256484760868233 37.670002372291052 6.9484089223224741 #
coedge $-1 $322 $321 $329 $399 reversed $139 $-1 #
edge $-1 $325 20.958075016183273 $402 44.35477331473416 $322 $424 forward 7 unknown #
straight-curve $-1 70.538041322061829 20.958075016183273 101.64889486429834 0 0 -1 I I #
point $-1 70.538041322061829 20.958075016183273 9.1645595194172405 #
straight-curve $-1 70.538041322061829 16.328212082729358 5.727714303068872 0 1 0 I I #
edge $-1 $402 -9.1645595194172405 $330 -5.7277143030688649 $394 $425 forward 7 unknown #
point $-1 70.538041322061829 44.35477331473416 5.7277143030688649 #
point $-1 70.538041322061829 20.958075016183273 5.7277143030688649 #
vertex $-1 $395 $426 #
straight-curve $-1 0 44.35477331473416 9.1645595194172405 -1 0 0 I I #
vertex $-1 $337 $427 #
point $-1 68.055120265174295 27.642845958626381 6.3465938915515299 #
vertex $-1 $341 $428 #
point $-1 68.055120265174295 37.670002372291052 6.3465938915515299 #
straight-curve $-1 -70.538041322061829 44.35477331473416 0 0 0 -1 I I #
point $-1 -70.538041322061829 -44.35477331473416 -9.1645595194172405 #
straight-curve $-1 -70.538041322061829 0 -9.1645595194172405 0 1 0 I I #
point $-1 -70.538041322061829 44.35477331473416 -9.1645595194172405 #
straight-curve $-1 -70.538041322061829 -20.570768080964491 -1.8922686335051337 0 -1 0 I I #
point $-1 -70.538041322061829 -44.35477331473416 -1.8922686335051337 #
point $-1 -70.538041322061829 -37.928299009123805 -1.8922686335051337 #
straight-curve $-1 -70.538041322061829 -37.928299009123805 -0.19613431675256709 0 0 -1 I I #
straight-curve $-1 -70.538041322061829 -44.35477331473416 0 0 0 -1 I I #
edge $-1 $388 -9.1645595194172405 $382 -5.7277143030688791 $379 $429 forward 7 unknown #
straight-curve $-1 -70.538041322061829 16.328212082729358 5.72771430306888 0 -1 0 I I #
point $-1 -70.538041322061829 44.35477331473416 5.7277143030688791 #
straight-curve $-1 0 44.35477331473416 9.1645595194172405 -1 0 0 I I #
point $-1 -70.538041322061829 44.35477331473416 9.1645595194172405 #
point $-1 -67.354894997635796 27.642845958626381 6.2481836547839817 #
point $-1 -67.354894997635796 37.670002372291052 6.2481836547839817 #
straight-curve $-1 70.538041322061829 0 9.1645595194172405 0 1 0 I I #
straight-curve $-1 70.538041322061829 44.35477331473416 0 0 0 -1 I I #
point $-1 70.538041322061829 44.35477331473416 9.1645595194172405 #
point $-1 67.35489499763581 27.642845958626381 6.2481836547839693 #
point $-1 67.35489499763581 37.670002372291052 6.2481836547839693 #
straight-curve $-1 -70.538041322061829 44.35477331473416 0 0 0 -1 I I #
End-of-ACIS-data 