500 0 6 0           
7 Unknown 11 ACIS 5.0 NT 24 Thu Mar 25 18:43:28 1999 
-1 9.9999999999999995e-007 1e-010 
body $-1 $6 $-1 $7 #
body $-1 $8 $-1 $9 #
body $-1 $10 $-1 $11 #
body $-1 $12 $-1 $13 #
body $-1 $14 $-1 $15 #
body $-1 $16 $-1 $17 #
lump $-1 $-1 $18 $0 #
transform $-1 1 0 0 0 1 0 0 0 1 52.422254097109899 35.32050760226857 14.610791964322317 1 rotate no_reflect no_shear #
lump $-1 $-1 $19 $1 #
transform $-1 1 0 0 0 1 0 0 0 1 52.422254097109899 35.32050760226857 14.610791964322317 1 rotate no_reflect no_shear #
lump $-1 $-1 $20 $2 #
transform $-1 1 0 0 0 1 0 0 0 1 52.422254097109899 35.32050760226857 14.610791964322317 1 rotate no_reflect no_shear #
lump $-1 $-1 $21 $3 #
transform $-1 1 0 0 0 1 0 0 0 1 52.422254097109899 35.32050760226857 14.610791964322317 1 rotate no_reflect no_shear #
lump $-1 $-1 $22 $4 #
transform $-1 1 0 0 0 1 0 0 0 1 52.422254097109899 35.32050760226857 14.610791964322317 1 rotate no_reflect no_shear #
lump $-1 $-1 $23 $5 #
transform $-1 1 0 0 0 1 0 0 0 1 52.422254097109899 35.32050760226857 14.610791964322317 1 rotate no_reflect no_shear #
shell $-1 $-1 $-1 $24 $-1 $6 #
shell $-1 $-1 $-1 $25 $-1 $8 #
shell $-1 $-1 $-1 $26 $-1 $10 #
shell $-1 $-1 $-1 $27 $-1 $12 #
shell $-1 $-1 $-1 $28 $-1 $14 #
shell $-1 $-1 $-1 $29 $-1 $16 #
face $-1 $30 $31 $18 $-1 $32 forward single #
face $-1 $33 $34 $19 $-1 $35 forward single #
face $-1 $36 $37 $20 $-1 $38 reversed single #
face $-1 $39 $40 $21 $-1 $41 forward single #
face $-1 $42 $43 $22 $-1 $44 reversed single #
face $-1 $45 $46 $23 $-1 $47 forward single #
face $-1 $48 $49 $18 $-1 $50 reversed single #
loop $-1 $-1 $51 $24 #
plane-surface $-1 0 0 14.610791964322317 0 0 1 1 0 0 forward_v I I I I #
face $-1 $52 $53 $19 $-1 $54 reversed single #
loop $-1 $-1 $55 $25 #
plane-surface $-1 0 -27.784969463164582 -6.939446186173754 0 0 1 1 0 0 forward_v I I I I #
face $-1 $56 $57 $20 $-1 $58 reversed single #
loop $-1 $-1 $59 $26 #
plane-surface $-1 -111.05055980917157 -20.249431324060595 92.85388176067957 0 1 0 -0.55919291073839883 0 0.82903756765294845 forward_v I I I I #
face $-1 $60 $61 $21 $-1 $62 forward single #
loop $-1 $63 $64 $27 #
cone-surface $-1 -45.131455551995884 -12.083284961947896 8.999172974652824 0.55919291073839883 0 -0.82903756765294845 1.6580751353058969 0 1.1183858214767977 1 I I 0 1 2 forward I I I I #
face $-1 $65 $66 $22 $-1 $67 reversed single #
loop $-1 $-1 $68 $28 #
plane-surface $-1 24.130523754065976 -3.917138599835198 151.48218747274123 0 -1 0 -0.55919291073839883 0 -0.82903756765294845 forward_v I I I I #
face $-1 $69 $70 $23 $-1 $71 forward single #
loop $-1 $72 $73 $29 #
cone-surface $-1 45.131455551995899 -12.083284961947896 8.9991729746528311 -0.55919291073839883 0 -0.82903756765294845 1.6580751353058969 0 -1.1183858214767977 1 I I 0 1 2 forward I I I I #
face $-1 $74 $75 $18 $-1 $76 reversed single #
loop $-1 $-1 $77 $30 #
plane-surface $-1 0 0 -14.610791964322317 0 0 1 1 0 0 forward_v I I I I #
coedge $-1 $78 $79 $80 $81 forward $31 $-1 #
face $-1 $82 $83 $19 $-1 $84 reversed single #
loop $-1 $-1 $85 $33 #
plane-surface $-1 0 -20.249431324060595 -10.775119075248035 0 -1 0 0 0 -1 forward_v I I I I #
coedge $-1 $86 $87 $88 $89 reversed $34 $-1 #
face $-1 $90 $91 $20 $-1 $92 reversed single #
loop $-1 $-1 $93 $36 #
plane-surface $-1 -52.422254097109899 -12.083284961947896 5.9338457055739724 -0.55919291073839883 0 0.82903756765294845 0.82903756765294845 0 0.55919291073839883 forward_v I I I I #
coedge $-1 $94 $95 $96 $97 reversed $37 $-1 #
face $-1 $-1 $98 $21 $-1 $99 forward single #
loop $-1 $100 $101 $39 #
cone-surface $-1 -43.713514899066986 -12.083284961947896 6.8969895467045674 0.55919291073839883 0 -0.82903756765294845 0.82903756765294845 0 0.55919291073839883 1 I I -0.70710678118654779 0.70710678118654713 1 forward I I I I #
loop $-1 $-1 $102 $27 #
coedge $-1 $64 $64 $103 $104 reversed $40 $-1 #
face $-1 $105 $106 $22 $-1 $107 reversed single #
loop $-1 $-1 $108 $42 #
plane-surface $-1 -34.497781957995699 -12.083284961947896 64.562151417635633 0.55919291073839883 0 0.82903756765294845 0.82903756765294845 0 -0.55919291073839883 forward_v I I I I #
coedge $-1 $109 $110 $111 $112 reversed $43 $-1 #
face $-1 $-1 $113 $23 $-1 $114 forward single #
loop $-1 $115 $116 $45 #
cone-surface $-1 43.713514899066993 -12.083284961947896 6.8969895467045745 -0.55919291073839883 0 -0.82903756765294845 0.82903756765294845 0 -0.55919291073839883 1 I I -0.70710678118654779 0.70710678118654713 1 forward I I I I #
loop $-1 $-1 $117 $29 #
coedge $-1 $73 $73 $118 $119 reversed $46 $-1 #
face $-1 $120 $121 $18 $-1 $122 reversed single #
loop $-1 $-1 $123 $48 #
plane-surface $-1 0 -35.32050760226857 0 0 1 0 0 0 1 forward_v I I I I #
coedge $-1 $124 $125 $126 $127 forward $49 $-1 #
coedge $-1 $128 $51 $129 $130 forward $31 $-1 #
coedge $-1 $51 $128 $131 $132 forward $31 $-1 #
coedge $-1 $133 $134 $51 $81 reversed $135 $-1 #
edge $-1 $136 -35.32050760226857 $137 35.32050760226857 $80 $138 forward 7 unknown #
face $-1 $139 $140 $19 $-1 $141 reversed single #
loop $-1 $-1 $142 $52 #
plane-surface $-1 0 0 -14.610791964322317 0 0 1 1 0 0 forward_v I I I I #
coedge $-1 $143 $144 $145 $146 reversed $53 $-1 #
coedge $-1 $147 $55 $144 $148 forward $34 $-1 #
coedge $-1 $55 $147 $149 $150 reversed $34 $-1 #
coedge $-1 $151 $145 $55 $89 forward $140 $-1 #
edge $-1 $152 6.3569465924783035 $153 21.428022870686277 $88 $154 forward 7 unknown #
face $-1 $155 $156 $20 $-1 $157 forward single #
loop $-1 $-1 $158 $56 #
plane-surface $-1 -111.05055980917157 -3.917138599835198 92.85388176067957 0 -1 0 0.55919291073839883 0 -0.82903756765294845 forward_v I I I I #
coedge $-1 $159 $160 $161 $162 reversed $57 $-1 #
coedge $-1 $95 $59 $163 $164 reversed $37 $-1 #
coedge $-1 $59 $94 $159 $165 reversed $37 $-1 #
coedge $-1 $161 $166 $59 $97 forward $156 $-1 #
edge $-1 $167 3.1030258074758876 $168 15.967127413322856 $96 $169 forward 7 unknown #
loop $-1 $-1 $103 $60 #
plane-surface $-1 -52.422254097109899 -12.083284961947896 5.9338457055739724 -0.55919291073839883 0 0.82903756765294845 0.82903756765294845 0 0.55919291073839883 forward_v I I I I #
loop $-1 $-1 $170 $39 #
coedge $-1 $101 $101 $102 $171 reversed $61 $-1 #
coedge $-1 $102 $102 $101 $171 forward $63 $-1 #
coedge $-1 $103 $103 $64 $104 forward $98 $-1 #
edge $-1 $172 0 $172 6.2831853071796004 $103 $173 forward 7 unknown #
face $-1 $174 $175 $22 $-1 $176 reversed single #
loop $-1 $-1 $177 $65 #
plane-surface $-1 24.130523754065976 -20.249431324060595 151.48218747274123 0 1 0 0.55919291073839883 0 0.82903756765294845 forward_v I I I I #
coedge $-1 $178 $179 $180 $181 reversed $66 $-1 #
coedge $-1 $110 $68 $182 $183 reversed $43 $-1 #
coedge $-1 $68 $109 $178 $184 reversed $43 $-1 #
coedge $-1 $180 $185 $68 $112 forward $186 $-1 #
edge $-1 $187 -40.356992220076911 $188 -27.492890614229914 $111 $189 forward 7 unknown #
loop $-1 $-1 $118 $69 #
plane-surface $-1 -34.497781957995699 -12.083284961947896 64.562151417635633 0.55919291073839883 0 0.82903756765294845 0.82903756765294845 0 -0.55919291073839883 forward_v I I I I #
loop $-1 $-1 $190 $45 #
coedge $-1 $116 $116 $117 $191 reversed $70 $-1 #
coedge $-1 $117 $117 $116 $191 forward $72 $-1 #
coedge $-1 $118 $118 $73 $119 forward $113 $-1 #
edge $-1 $192 0 $192 6.2831853071796004 $118 $193 forward 7 unknown #
face $-1 $194 $195 $18 $-1 $196 reversed single #
loop $-1 $-1 $197 $74 #
plane-surface $-1 -52.422254097109899 0 0 1 0 0 0 0 -1 forward_v I I I I #
coedge $-1 $198 $131 $199 $200 forward $75 $-1 #
coedge $-1 $201 $77 $198 $202 forward $49 $-1 #
coedge $-1 $77 $201 $203 $204 forward $49 $-1 #
coedge $-1 $134 $133 $77 $127 reversed $135 $-1 #
edge $-1 $205 -35.32050760226857 $206 35.32050760226857 $126 $207 forward 7 unknown #
coedge $-1 $79 $78 $208 $209 forward $31 $-1 #
coedge $-1 $210 $211 $78 $130 reversed $195 $-1 #
edge $-1 $137 -52.422254097109899 $212 52.422254097109899 $129 $213 forward 7 unknown #
coedge $-1 $123 $214 $79 $132 reversed $75 $-1 #
edge $-1 $215 -52.422254097109899 $136 52.422254097109899 $131 $216 forward 7 unknown #
coedge $-1 $126 $80 $214 $217 forward $135 $-1 #
coedge $-1 $80 $126 $210 $218 reversed $135 $-1 #
loop $-1 $-1 $133 $194 #
vertex $-1 $81 $219 #
vertex $-1 $81 $220 #
straight-curve $-1 52.422254097109899 0 14.610791964322317 0 1 0 I I #
face $-1 $221 $222 $19 $-1 $223 reversed single #
loop $-1 $-1 $145 $82 #
plane-surface $-1 52.422254097109899 0 0 -1 0 0 0 0 1 forward_v I I I I #
coedge $-1 $224 $225 $143 $226 forward $83 $-1 #
coedge $-1 $227 $85 $142 $226 reversed $53 $-1 #
coedge $-1 $85 $227 $86 $148 reversed $53 $-1 #
coedge $-1 $88 $228 $85 $146 forward $140 $-1 #
edge $-1 $229 -9.2232324266982992 $152 -1.5518866485497362 $145 $230 forward 7 unknown #
coedge $-1 $87 $86 $231 $232 reversed $34 $-1 #
edge $-1 $152 -52.422254097109899 $233 52.422254097109899 $144 $234 forward 7 unknown #
coedge $-1 $235 $236 $87 $150 forward $222 $-1 #
edge $-1 $153 -52.422254097109899 $237 52.422254097109899 $149 $238 forward 7 unknown #
coedge $-1 $228 $88 $236 $239 forward $140 $-1 #
vertex $-1 $89 $240 #
vertex $-1 $239 $241 #
straight-curve $-1 52.422254097109899 -13.892484731582291 -6.939446186173754 0 -1 0 I I #
face $-1 $-1 $242 $20 $-1 $243 reversed single #
loop $-1 $-1 $96 $90 #
plane-surface $-1 0 0 14.610791964322317 0 0 1 1 0 0 forward_v I I I I #
coedge $-1 $244 $245 $246 $247 reversed $91 $-1 #
coedge $-1 $248 $93 $95 $165 forward $57 $-1 #
coedge $-1 $93 $248 $244 $249 forward $57 $-1 #
coedge $-1 $246 $96 $93 $162 forward $156 $-1 #
edge $-1 $168 -14.207788843086647 $250 2.1245038811387502 $161 $251 forward 7 unknown #
coedge $-1 $252 $253 $94 $164 forward $242 $-1 #
edge $-1 $254 -40.493095174765813 $167 -31.816148916017468 $163 $255 forward 7 unknown #
edge $-1 $168 -15.516910340101905 $254 0 $95 $256 forward 7 unknown #
coedge $-1 $96 $246 $252 $257 forward $156 $-1 #
vertex $-1 $164 $258 #
vertex $-1 $97 $259 #
straight-curve $-1 -55.525279904585787 -20.249431324060595 14.610791964322317 1 0 0 I I #
coedge $-1 $170 $170 $-1 $260 reversed $100 $-1 #
edge $-1 $261 0 $261 6.2831853071796004 $101 $262 forward 7 unknown #
vertex $-1 $104 $263 #
ellipse-curve $-1 -45.990203294186401 -12.083284961947896 10.272318834948152 -0.55919291073839883 0 0.82903756765294845 1.6580751353058969 0 1.1183858214767977 1 I I #
face $-1 $-1 $186 $22 $-1 $264 forward single #
loop $-1 $-1 $265 $105 #
plane-surface $-1 52.422254097109899 0 0 -1 0 0 0 0 1 forward_v I I I I #
coedge $-1 $266 $267 $268 $269 reversed $106 $-1 #
coedge $-1 $270 $108 $110 $184 forward $66 $-1 #
coedge $-1 $108 $270 $266 $271 forward $66 $-1 #
coedge $-1 $268 $111 $108 $181 forward $186 $-1 #
edge $-1 $188 -2.1245038811387502 $272 14.207788843086647 $180 $273 forward 7 unknown #
coedge $-1 $274 $275 $109 $183 forward $175 $-1 #
edge $-1 $276 -69.807248030796643 $187 -61.130301772048298 $182 $277 forward 7 unknown #
edge $-1 $188 89.327597854117855 $276 104.84450819421978 $110 $278 forward 7 unknown #
coedge $-1 $111 $268 $274 $279 forward $186 $-1 #
loop $-1 $-1 $268 $174 #
vertex $-1 $183 $280 #
vertex $-1 $112 $281 #
straight-curve $-1 12.065261877032988 -3.917138599835198 14.610791964322317 -1 0 0 I I #
coedge $-1 $190 $190 $-1 $282 reversed $115 $-1 #
edge $-1 $283 0 $283 6.2831853071796004 $116 $284 forward 7 unknown #
vertex $-1 $119 $285 #
ellipse-curve $-1 45.990203294186408 -12.083284961947896 10.272318834948145 0.55919291073839883 0 0.82903756765294845 1.6580751353058969 0 -1.1183858214767977 1 I I #
face $-1 $-1 $135 $18 $-1 $286 reversed single #
loop $-1 $-1 $210 $120 #
plane-surface $-1 0 35.32050760226857 0 0 -1 0 0 0 -1 forward_v I I I I #
coedge $-1 $287 $208 $211 $288 forward $121 $-1 #
coedge $-1 $214 $123 $124 $202 reversed $75 $-1 #
coedge $-1 $208 $287 $123 $200 reversed $121 $-1 #
edge $-1 $215 -14.610791964322317 $289 14.610791964322317 $199 $290 forward 7 unknown #
coedge $-1 $125 $124 $287 $291 forward $49 $-1 #
edge $-1 $206 -52.422254097109899 $289 52.422254097109899 $198 $292 forward 7 unknown #
coedge $-1 $211 $210 $125 $204 reversed $195 $-1 #
edge $-1 $293 -52.422254097109899 $205 52.422254097109899 $203 $294 forward 7 unknown #
vertex $-1 $127 $295 #
vertex $-1 $217 $296 #
straight-curve $-1 52.422254097109899 0 -14.610791964322317 0 -1 0 I I #
coedge $-1 $197 $199 $128 $209 reversed $121 $-1 #
edge $-1 $212 -35.32050760226857 $215 35.32050760226857 $208 $297 forward 7 unknown #
coedge $-1 $203 $129 $134 $218 forward $195 $-1 #
coedge $-1 $129 $203 $197 $288 reversed $195 $-1 #
vertex $-1 $130 $298 #
straight-curve $-1 0 35.32050760226857 14.610791964322317 -1 0 0 I I #
coedge $-1 $131 $198 $133 $217 reversed $75 $-1 #
vertex $-1 $209 $299 #
straight-curve $-1 0 -35.32050760226857 14.610791964322317 1 0 0 I I #
edge $-1 $136 -14.610791964322317 $206 14.610791964322317 $133 $300 forward 7 unknown #
edge $-1 $137 -14.610791964322317 $205 14.610791964322317 $134 $301 forward 7 unknown #
point $-1 52.422254097109899 -35.32050760226857 14.610791964322317 #
point $-1 52.422254097109899 35.32050760226857 14.610791964322317 #
face $-1 $-1 $302 $19 $-1 $303 reversed single #
loop $-1 $-1 $149 $139 #
plane-surface $-1 0 -35.32050760226857 0 0 1 0 0 0 1 forward_v I I I I #
coedge $-1 $304 $142 $228 $305 forward $83 $-1 #
coedge $-1 $142 $304 $306 $307 forward $83 $-1 #
edge $-1 $308 -52.422254097109899 $229 52.422254097109899 $142 $309 forward 7 unknown #
coedge $-1 $144 $143 $310 $311 reversed $53 $-1 #
coedge $-1 $145 $151 $224 $305 reversed $140 $-1 #
vertex $-1 $305 $312 #
straight-curve $-1 52.422254097109899 -20.249431324060595 -5.3875595376240177 0 0 1 I I #
coedge $-1 $310 $313 $147 $232 forward $302 $-1 #
edge $-1 $237 -21.428022870686277 $233 -6.3569465924783035 $231 $314 forward 7 unknown #
vertex $-1 $232 $315 #
straight-curve $-1 0 -20.249431324060595 -6.939446186173754 -1 0 0 I I #
coedge $-1 $316 $149 $313 $317 forward $222 $-1 #
coedge $-1 $149 $316 $151 $239 reversed $222 $-1 #
vertex $-1 $317 $318 #
straight-curve $-1 0 -35.32050760226857 -6.939446186173754 -1 0 0 I I #
edge $-1 $153 6.939446186173754 $319 14.610791964322317 $151 $320 forward 7 unknown #
point $-1 52.422254097109899 -20.249431324060595 -6.939446186173754 #
point $-1 52.422254097109899 -35.32050760226857 -6.939446186173754 #
loop $-1 $-1 $163 $155 #
plane-surface $-1 -52.422254097109899 0 0 1 0 0 0 0 -1 forward_v I I I I #
coedge $-1 $245 $158 $160 $249 reversed $91 $-1 #
coedge $-1 $158 $244 $321 $322 reversed $91 $-1 #
coedge $-1 $166 $161 $158 $247 forward $156 $-1 #
edge $-1 $250 -15.967127413322856 $323 -3.1030258074758876 $246 $324 forward 7 unknown #
coedge $-1 $160 $159 $253 $325 reversed $57 $-1 #
edge $-1 $326 0 $250 15.516910340101905 $244 $327 forward 7 unknown #
vertex $-1 $162 $328 #
straight-curve $-1 -39.558152491262931 -6.0416424809739482 14.610791964322317 0 1 0 I I #
coedge $-1 $321 $163 $166 $257 reversed $242 $-1 #
coedge $-1 $163 $321 $248 $325 forward $242 $-1 #
vertex $-1 $164 $329 #
straight-curve $-1 -52.422254097109899 -20.249431324060595 46.426940880339785 0 0 1 I I #
straight-curve $-1 -52.422254097109899 -20.249431324060595 5.9338457055739724 -0.82903756765294845 0 -0.55919291073839883 I I #
edge $-1 $323 3.917138599835198 $167 20.249431324060595 $252 $330 forward 7 unknown #
point $-1 -52.422254097109899 -20.249431324060595 14.610791964322317 #
point $-1 -39.558152491262931 -20.249431324060595 14.610791964322317 #
edge $-1 $331 1 $331 0 $170 $-1 forward 7 unknown #
vertex $-1 $171 $332 #
ellipse-curve $-1 -44.272707809805382 -12.083284961947896 7.7260271143575148 -0.55919291073839883 0 0.82903756765294845 1.6580751353058969 0 1.1183858214767977 1 I I #
point $-1 -44.332128158880494 -12.083284961947896 11.39070465642493 #
plane-surface $-1 0 0 14.610791964322317 0 0 1 1 0 0 forward_v I I I I #
coedge $-1 $275 $274 $267 $333 forward $175 $-1 #
coedge $-1 $267 $177 $179 $271 reversed $106 $-1 #
coedge $-1 $177 $266 $265 $333 reversed $106 $-1 #
coedge $-1 $185 $180 $177 $269 forward $186 $-1 #
edge $-1 $272 27.492890614229914 $334 40.356992220076911 $268 $335 forward 7 unknown #
coedge $-1 $179 $178 $275 $336 reversed $66 $-1 #
edge $-1 $337 -104.84450819421978 $272 -89.327597854117855 $266 $338 forward 7 unknown #
vertex $-1 $181 $339 #
straight-curve $-1 39.558152491262916 -6.0416424809739482 14.610791964322317 0 -1 0 I I #
coedge $-1 $265 $182 $185 $279 reversed $175 $-1 #
coedge $-1 $182 $265 $270 $336 forward $175 $-1 #
vertex $-1 $183 $340 #
straight-curve $-1 52.422254097109899 -3.917138599835198 75.741093736370615 0 0 1 I I #
straight-curve $-1 -34.497781957995699 -3.917138599835198 64.562151417635633 0.82903756765294845 0 -0.55919291073839883 I I #
edge $-1 $334 -20.249431324060595 $187 -3.917138599835198 $274 $341 forward 7 unknown #
point $-1 52.422254097109899 -3.917138599835198 14.610791964322317 #
point $-1 39.558152491262902 -3.917138599835198 14.610791964322317 #
edge $-1 $342 1 $342 0 $190 $-1 forward 7 unknown #
vertex $-1 $191 $343 #
ellipse-curve $-1 44.272707809805389 -12.083284961947896 7.7260271143575219 0.55919291073839883 0 0.82903756765294845 1.6580751353058969 0 -1.1183858214767977 1 I I #
point $-1 47.648278429492294 -12.083284961947896 9.1539330134713417 #
plane-surface $-1 52.422254097109899 0 0 -1 0 0 0 0 1 forward_v I I I I #
coedge $-1 $199 $197 $201 $291 reversed $121 $-1 #
edge $-1 $212 -14.610791964322317 $293 14.610791964322317 $211 $344 forward 7 unknown #
vertex $-1 $291 $345 #
straight-curve $-1 -52.422254097109899 -35.32050760226857 0 0 0 -1 I I #
edge $-1 $289 -35.32050760226857 $293 35.32050760226857 $287 $346 forward 7 unknown #
straight-curve $-1 0 -35.32050760226857 -14.610791964322317 -1 0 0 I I #
vertex $-1 $204 $347 #
straight-curve $-1 0 35.32050760226857 -14.610791964322317 1 0 0 I I #
point $-1 52.422254097109899 35.32050760226857 -14.610791964322317 #
point $-1 52.422254097109899 -35.32050760226857 -14.610791964322317 #
straight-curve $-1 -52.422254097109899 0 14.610791964322317 0 -1 0 I I #
point $-1 -52.422254097109899 35.32050760226857 14.610791964322317 #
point $-1 -52.422254097109899 -35.32050760226857 14.610791964322317 #
straight-curve $-1 52.422254097109899 -35.32050760226857 0 0 0 -1 I I #
straight-curve $-1 52.422254097109899 35.32050760226857 0 0 0 -1 I I #
loop $-1 $-1 $310 $221 #
plane-surface $-1 -52.422254097109899 0 0 1 0 0 0 0 -1 forward_v I I I I #
coedge $-1 $225 $224 $316 $348 forward $83 $-1 #
edge $-1 $229 20.249431324060595 $319 35.32050760226857 $228 $349 forward 7 unknown #
coedge $-1 $313 $310 $225 $307 reversed $302 $-1 #
edge $-1 $350 -35.32050760226857 $308 -20.249431324060595 $306 $351 forward 7 unknown #
vertex $-1 $311 $352 #
straight-curve $-1 0 -20.249431324060595 -14.610791964322317 1 0 0 I I #
coedge $-1 $306 $231 $227 $311 forward $302 $-1 #
edge $-1 $233 1.5518866485497362 $308 9.2232324266982992 $310 $353 forward 7 unknown #
point $-1 52.422254097109899 -20.249431324060595 -14.610791964322317 #
coedge $-1 $231 $306 $235 $317 reversed $302 $-1 #
straight-curve $-1 -52.422254097109899 -13.892484731582291 -6.939446186173754 0 1 0 I I #
point $-1 -52.422254097109899 -20.249431324060595 -6.939446186173754 #
coedge $-1 $236 $235 $304 $348 reversed $222 $-1 #
edge $-1 $237 6.939446186173754 $350 14.610791964322317 $313 $354 forward 7 unknown #
point $-1 -52.422254097109899 -35.32050760226857 -6.939446186173754 #
vertex $-1 $239 $355 #
straight-curve $-1 52.422254097109899 -35.32050760226857 0 0 0 -1 I I #
coedge $-1 $253 $252 $245 $322 forward $242 $-1 #
edge $-1 $323 31.816148916017468 $326 40.493095174765813 $321 $356 forward 7 unknown #
vertex $-1 $257 $357 #
straight-curve $-1 -55.525279904585787 -3.917138599835198 14.610791964322317 -1 0 0 I I #
edge $-1 $326 -2.1245038811387502 $254 14.207788843086647 $253 $358 forward 7 unknown #
vertex $-1 $325 $359 #
straight-curve $-1 -52.422254097109899 -3.917138599835198 5.9338457055739724 0.82903756765294845 0 0.55919291073839883 I I #
point $-1 -39.558152491262931 -3.917138599835198 14.610791964322317 #
point $-1 -52.422254097109899 -20.249431324060595 5.9338457055739724 #
straight-curve $-1 -52.422254097109899 0 14.610791964322317 0 -1 0 I I #
vertex $-1 $260 $360 #
point $-1 -42.614632674499489 -12.083284961947896 8.8444129358343133 #
edge $-1 $334 61.130301772048298 $337 69.807248030796643 $265 $361 forward 7 unknown #
vertex $-1 $279 $362 #
straight-curve $-1 12.065261877032988 -20.249431324060595 14.610791964322317 1 0 0 I I #
edge $-1 $337 -14.207788843086647 $276 2.1245038811387502 $275 $363 forward 7 unknown #
vertex $-1 $336 $364 #
straight-curve $-1 -34.497781957995699 -20.249431324060595 64.562151417635633 -0.82903756765294845 0 0.55919291073839883 I I #
point $-1 39.558152491262902 -20.249431324060595 14.610791964322317 #
point $-1 52.422254097109899 -3.917138599835198 5.9338457055739653 #
straight-curve $-1 52.422254097109899 0 14.610791964322317 0 1 0 I I #
vertex $-1 $282 $365 #
point $-1 45.930782945111289 -12.083284961947896 6.6076412928807242 #
straight-curve $-1 -52.422254097109899 35.32050760226857 0 0 0 -1 I I #
point $-1 -52.422254097109899 -35.32050760226857 -14.610791964322317 #
straight-curve $-1 -52.422254097109899 0 -14.610791964322317 0 1 0 I I #
point $-1 -52.422254097109899 35.32050760226857 -14.610791964322317 #
edge $-1 $319 -52.422254097109899 $350 52.422254097109899 $316 $366 forward 7 unknown #
straight-curve $-1 52.422254097109899 0 -14.610791964322317 0 -1 0 I I #
vertex $-1 $307 $367 #
straight-curve $-1 -52.422254097109899 0 -14.610791964322317 0 1 0 I I #
point $-1 -52.422254097109899 -20.249431324060595 -14.610791964322317 #
straight-curve $-1 -52.422254097109899 -20.249431324060595 -5.3875595376240177 0 0 -1 I I #
straight-curve $-1 -52.422254097109899 -35.32050760226857 0 0 0 -1 I I #
point $-1 52.422254097109899 -35.32050760226857 -14.610791964322317 #
straight-curve $-1 -52.422254097109899 -3.917138599835198 46.426940880339785 0 0 -1 I I #
point $-1 -52.422254097109899 -3.917138599835198 14.610791964322317 #
straight-curve $-1 -52.422254097109899 -6.0416424809739482 5.9338457055739724 0 -1 0 I I #
point $-1 -52.422254097109899 -3.917138599835198 5.9338457055739724 #
point $-1 -43.15432198832859 -12.083284961947896 6.0679519790516201 #
straight-curve $-1 52.422254097109899 -20.249431324060595 75.741093736370615 0 0 -1 I I #
point $-1 52.422254097109899 -20.249431324060595 14.610791964322317 #
straight-curve $-1 52.422254097109899 -6.0416424809739482 5.9338457055739617 0 1 0 I I #
point $-1 52.422254097109899 -20.249431324060595 5.9338457055739653 #
point $-1 43.154321988328597 -12.083284961947896 6.0679519790516272 #
straight-curve $-1 0 -35.32050760226857 -14.610791964322317 -1 0 0 I I #
point $-1 -52.422254097109899 -35.32050760226857 -14.610791964322317 #
End-of-ACIS-data 