500 0 8 0           
7 Unknown 11 ACIS 5.0 NT 24 Fri Mar 26 16:41:14 1999 
-1 9.9999999999999995e-007 1e-010 
body $-1 $8 $-1 $9 #
body $-1 $10 $-1 $11 #
body $-1 $12 $-1 $13 #
body $-1 $14 $-1 $15 #
body $-1 $16 $-1 $17 #
body $-1 $18 $-1 $19 #
body $-1 $20 $-1 $21 #
body $-1 $22 $-1 $23 #
lump $-1 $-1 $24 $0 #
transform $-1 1 0 0 0 1 0 0 0 1 67.473982970671713 39.249690231354272 16.47224464203288 1 rotate no_reflect no_shear #
lump $-1 $-1 $25 $1 #
transform $-1 1 0 0 0 1 0 0 0 1 67.473982970671713 39.249690231354272 16.47224464203288 1 rotate no_reflect no_shear #
lump $-1 $-1 $26 $2 #
transform $-1 1 0 0 0 1 0 0 0 1 67.473982970671713 39.249690231354272 16.47224464203288 1 rotate no_reflect no_shear #
lump $-1 $-1 $27 $3 #
transform $-1 1 0 0 0 1 0 0 0 1 67.473982970671713 39.249690231354272 16.47224464203288 1 rotate no_reflect no_shear #
lump $-1 $-1 $28 $4 #
transform $-1 1 0 0 0 1 0 0 0 1 67.473982970671713 39.249690231354272 16.47224464203288 1 rotate no_reflect no_shear #
lump $-1 $-1 $29 $5 #
transform $-1 1 0 0 0 1 0 0 0 1 67.473982970671713 39.249690231354272 16.47224464203288 1 rotate no_reflect no_shear #
lump $-1 $-1 $30 $6 #
transform $-1 1 0 0 0 1 0 0 0 1 67.473982970671713 39.249690231354272 16.47224464203288 1 rotate no_reflect no_shear #
lump $-1 $-1 $31 $7 #
transform $-1 1 0 0 0 1 0 0 0 1 67.473982970671713 39.249690231354272 16.47224464203288 1 rotate no_reflect no_shear #
shell $-1 $-1 $-1 $32 $-1 $8 #
shell $-1 $-1 $-1 $33 $-1 $10 #
shell $-1 $-1 $-1 $34 $-1 $12 #
shell $-1 $-1 $-1 $35 $-1 $14 #
shell $-1 $-1 $-1 $36 $-1 $16 #
shell $-1 $-1 $-1 $37 $-1 $18 #
shell $-1 $-1 $-1 $38 $-1 $20 #
shell $-1 $-1 $-1 $39 $-1 $22 #
face $-1 $40 $41 $24 $-1 $42 forward single #
face $-1 $43 $44 $25 $-1 $45 forward single #
face $-1 $46 $47 $26 $-1 $48 reversed single #
face $-1 $49 $50 $27 $-1 $51 forward single #
face $-1 $52 $53 $28 $-1 $54 forward single #
face $-1 $55 $56 $29 $-1 $57 reversed single #
face $-1 $58 $59 $30 $-1 $60 forward single #
face $-1 $61 $62 $31 $-1 $63 forward single #
face $-1 $64 $65 $24 $-1 $66 reversed single #
loop $-1 $-1 $67 $32 #
plane-surface $-1 0 0 16.47224464203288 0 0 1 1 0 0 forward_v I I I I #
face $-1 $68 $69 $25 $-1 $70 forward single #
loop $-1 $-1 $71 $33 #
plane-surface $-1 0 -39.249690231354272 0 0 1 0 0 0 1 forward_v I I I I #
face $-1 $72 $73 $26 $-1 $74 reversed single #
loop $-1 $-1 $75 $34 #
plane-surface $-1 -142.93592884363784 -19.586303227702672 113.6173433552122 0 1 0 -0.55919291073839883 0 0.82903756765294845 forward_v I I I I #
face $-1 $76 $77 $27 $-1 $78 forward single #
loop $-1 $79 $80 $35 #
cone-surface $-1 -55.519915675551751 -15.66893683341284 7.5738842115915599 0.55919291073839883 0 -0.82903756765294845 1.2435563514794228 0 0.83878936610759824 1 I I 0 1 1.5 forward I I I I #
face $-1 $81 $82 $28 $-1 $83 forward single #
loop $-1 $84 $85 $36 #
cone-surface $-1 -55.519915675551751 -9.7928872419780859 7.5738842115915599 0.55919291073839883 0 -0.82903756765294845 1.2435563514794228 0 0.83878936610759824 1 I I 0 1 1.5 forward I I I I #
face $-1 $86 $87 $29 $-1 $88 reversed single #
loop $-1 $-1 $89 $37 #
plane-surface $-1 54.161293755436731 -6.5628281132722304 191.77662936427907 0 -1 0 -0.6560590369687036 0 -0.75470957328743171 forward_v I I I I #
face $-1 $90 $91 $30 $-1 $92 forward single #
loop $-1 $93 $94 $38 #
cone-surface $-1 57.617084326831453 -13.087839913004355 7.5705680040677761 -0.6560590369687036 0 -0.75470957328743171 0.75470957328743171 0 -0.6560590369687036 1 I I 0 1 1 forward I I I I #
face $-1 $95 $96 $31 $-1 $97 forward single #
loop $-1 $98 $99 $39 #
cone-surface $-1 57.617084326831453 -9.1728328331650815 7.5705680040677761 -0.6560590369687036 0 -0.75470957328743171 0.75470957328743171 0 -0.6560590369687036 1 I I 0 1 1 forward I I I I #
face $-1 $100 $101 $24 $-1 $102 reversed single #
loop $-1 $-1 $103 $40 #
plane-surface $-1 0 0 -16.47224464203288 0 0 1 1 0 0 forward_v I I I I #
coedge $-1 $104 $105 $106 $107 forward $41 $-1 #
face $-1 $108 $109 $25 $-1 $110 reversed single #
loop $-1 $-1 $111 $43 #
plane-surface $-1 0 0 16.47224464203288 0 0 1 1 0 0 forward_v I I I I #
coedge $-1 $112 $113 $114 $115 forward $44 $-1 #
face $-1 $116 $117 $26 $-1 $118 reversed single #
loop $-1 $-1 $119 $46 #
plane-surface $-1 -67.473982970671699 -12.730912037695461 1.7404099114879159 -0.55919291073839883 0 0.82903756765294845 0.82903756765294845 0 0.55919291073839883 forward_v I I I I #
coedge $-1 $120 $121 $122 $123 reversed $47 $-1 #
face $-1 $-1 $124 $27 $-1 $125 forward single #
loop $-1 $126 $127 $49 #
cone-surface $-1 -54.06687507391954 -15.66893683341284 5.4196629706830031 0.55919291073839883 0 -0.82903756765294845 0.62177817573971139 0 0.41939468305379912 1 I I -0.70710678118654757 0.70710678118654757 0.75 forward I I I I #
loop $-1 $-1 $128 $35 #
coedge $-1 $80 $80 $129 $130 reversed $50 $-1 #
face $-1 $-1 $131 $28 $-1 $132 forward single #
loop $-1 $133 $134 $52 #
cone-surface $-1 -54.06687507391954 -9.7928872419780859 5.4196629706830031 0.55919291073839883 0 -0.82903756765294845 0.62177817573971139 0 0.41939468305379912 1 I I -0.70710678118654757 0.70710678118654757 0.75 forward I I I I #
loop $-1 $-1 $135 $36 #
coedge $-1 $85 $85 $136 $137 reversed $53 $-1 #
face $-1 $138 $139 $29 $-1 $140 reversed single #
loop $-1 $-1 $141 $55 #
plane-surface $-1 -34.372538820926451 -11.130336373084717 89.93010757268091 0.6560590369687036 0 0.75470957328743171 0.75470957328743171 0 -0.6560590369687036 forward_v I I I I #
coedge $-1 $142 $143 $144 $145 reversed $56 $-1 #
face $-1 $-1 $146 $30 $-1 $147 forward single #
loop $-1 $148 $149 $58 #
cone-surface $-1 56.103615573696203 -13.087839913004355 5.8295214023165123 -0.6560590369687036 0 -0.75470957328743171 0.37735478664371586 0 -0.3280295184843518 1 I I -0.70710678118654746 0.70710678118654746 0.5 forward I I I I #
loop $-1 $-1 $150 $38 #
coedge $-1 $94 $94 $151 $152 reversed $59 $-1 #
face $-1 $-1 $153 $31 $-1 $154 forward single #
loop $-1 $155 $156 $61 #
cone-surface $-1 56.103615573696203 -9.1728328331650815 5.8295214023165123 -0.6560590369687036 0 -0.75470957328743171 0.37735478664371586 0 -0.3280295184843518 1 I I -0.70710678118654746 0.70710678118654746 0.5 forward I I I I #
loop $-1 $-1 $157 $39 #
coedge $-1 $99 $99 $158 $159 reversed $62 $-1 #
face $-1 $160 $161 $24 $-1 $162 reversed single #
loop $-1 $-1 $163 $64 #
plane-surface $-1 0 -39.249690231354272 0 0 1 0 0 0 1 forward_v I I I I #
coedge $-1 $164 $165 $166 $167 forward $65 $-1 #
coedge $-1 $168 $67 $169 $170 forward $41 $-1 #
coedge $-1 $67 $168 $171 $172 forward $41 $-1 #
coedge $-1 $173 $174 $67 $107 reversed $175 $-1 #
edge $-1 $176 -39.249690231354272 $177 39.249690231354272 $106 $178 forward 7 unknown #
face $-1 $179 $180 $25 $-1 $181 reversed single #
loop $-1 $-1 $182 $68 #
plane-surface $-1 -67.473982970671713 0 0 1 0 0 0 0 -1 forward_v I I I I #
coedge $-1 $183 $184 $185 $186 forward $69 $-1 #
coedge $-1 $185 $71 $182 $187 reversed $44 $-1 #
coedge $-1 $71 $185 $188 $189 reversed $44 $-1 #
coedge $-1 $190 $191 $71 $115 reversed $180 $-1 #
edge $-1 $192 -67.473982970671713 $193 67.473982970671713 $114 $194 forward 7 unknown #
face $-1 $195 $196 $26 $-1 $197 forward single #
loop $-1 $-1 $198 $72 #
plane-surface $-1 -142.93592884363784 -5.8755208476882483 113.6173433552122 0 -1 0 0.55919291073839883 0 -0.82903756765294845 forward_v I I I I #
coedge $-1 $199 $200 $201 $202 reversed $73 $-1 #
coedge $-1 $121 $75 $203 $204 reversed $47 $-1 #
coedge $-1 $75 $120 $199 $205 reversed $47 $-1 #
coedge $-1 $201 $206 $75 $123 forward $196 $-1 #
edge $-1 $207 3.9939814511472065 $208 25.834824204230358 $122 $209 forward 7 unknown #
loop $-1 $-1 $129 $76 #
plane-surface $-1 -67.473982970671699 -12.730912037695461 1.7404099114879159 -0.55919291073839883 0 0.82903756765294845 0.82903756765294845 0 0.55919291073839883 forward_v I I I I #
loop $-1 $-1 $210 $49 #
coedge $-1 $127 $127 $128 $211 reversed $77 $-1 #
coedge $-1 $128 $128 $127 $211 forward $79 $-1 #
coedge $-1 $129 $129 $80 $130 forward $124 $-1 #
edge $-1 $212 0 $212 6.2831853071796004 $129 $213 forward 7 unknown #
loop $-1 $-1 $136 $81 #
plane-surface $-1 -67.473982970671699 -12.730912037695461 1.7404099114879159 -0.55919291073839883 0 0.82903756765294845 0.82903756765294845 0 0.55919291073839883 forward_v I I I I #
loop $-1 $-1 $214 $52 #
coedge $-1 $134 $134 $135 $215 reversed $82 $-1 #
coedge $-1 $135 $135 $134 $215 forward $84 $-1 #
coedge $-1 $136 $136 $85 $137 forward $131 $-1 #
edge $-1 $216 0 $216 6.2831853071796004 $136 $217 forward 7 unknown #
face $-1 $218 $219 $29 $-1 $220 reversed single #
loop $-1 $-1 $221 $86 #
plane-surface $-1 54.161293755436731 -15.697844632897203 191.77662936427907 0 1 0 0.6560590369687036 0 0.75470957328743171 forward_v I I I I #
coedge $-1 $222 $223 $224 $225 reversed $87 $-1 #
coedge $-1 $143 $89 $226 $227 reversed $56 $-1 #
coedge $-1 $89 $142 $222 $228 reversed $56 $-1 #
coedge $-1 $224 $229 $89 $145 forward $230 $-1 #
edge $-1 $231 -40.393336092953348 $232 -23.050417274574627 $144 $233 forward 7 unknown #
loop $-1 $-1 $151 $90 #
plane-surface $-1 -34.372538820926451 -11.130336373084717 89.93010757268091 0.6560590369687036 0 0.75470957328743171 0.75470957328743171 0 -0.6560590369687036 forward_v I I I I #
loop $-1 $-1 $234 $58 #
coedge $-1 $149 $149 $150 $235 reversed $91 $-1 #
coedge $-1 $150 $150 $149 $235 forward $93 $-1 #
coedge $-1 $151 $151 $94 $152 forward $146 $-1 #
edge $-1 $236 0 $236 6.2831853071796004 $151 $237 forward 7 unknown #
loop $-1 $-1 $158 $95 #
plane-surface $-1 -34.372538820926451 -11.130336373084717 89.93010757268091 0.6560590369687036 0 0.75470957328743171 0.75470957328743171 0 -0.6560590369687036 forward_v I I I I #
loop $-1 $-1 $238 $61 #
coedge $-1 $156 $156 $157 $239 reversed $96 $-1 #
coedge $-1 $157 $157 $156 $239 forward $98 $-1 #
coedge $-1 $158 $158 $99 $159 forward $153 $-1 #
edge $-1 $240 0 $240 6.2831853071796004 $158 $241 forward 7 unknown #
face $-1 $242 $243 $24 $-1 $244 reversed single #
loop $-1 $-1 $245 $100 #
plane-surface $-1 -67.473982970671713 0 0 1 0 0 0 0 -1 forward_v I I I I #
coedge $-1 $246 $171 $247 $248 forward $101 $-1 #
coedge $-1 $249 $103 $246 $250 forward $65 $-1 #
coedge $-1 $103 $249 $251 $252 forward $65 $-1 #
coedge $-1 $174 $173 $103 $167 reversed $175 $-1 #
edge $-1 $253 -39.249690231354272 $254 39.249690231354272 $166 $255 forward 7 unknown #
coedge $-1 $105 $104 $256 $257 forward $41 $-1 #
coedge $-1 $258 $259 $104 $170 reversed $243 $-1 #
edge $-1 $177 -67.473982970671713 $260 67.473982970671713 $169 $261 forward 7 unknown #
coedge $-1 $163 $262 $105 $172 reversed $101 $-1 #
edge $-1 $263 -67.473982970671713 $176 67.473982970671713 $171 $264 forward 7 unknown #
coedge $-1 $166 $106 $262 $265 forward $175 $-1 #
coedge $-1 $106 $166 $258 $266 reversed $175 $-1 #
loop $-1 $-1 $173 $242 #
vertex $-1 $107 $267 #
vertex $-1 $107 $268 #
straight-curve $-1 67.473982970671713 0 16.47224464203288 0 1 0 I I #
face $-1 $269 $270 $25 $-1 $271 reversed single #
loop $-1 $-1 $190 $108 #
plane-surface $-1 0 -49.081383733180068 7.9343464959908836 0 0 1 1 0 0 forward_v I I I I #
coedge $-1 $272 $273 $112 $187 forward $109 $-1 #
coedge $-1 $274 $111 $273 $275 forward $69 $-1 #
coedge $-1 $111 $274 $276 $277 forward $69 $-1 #
coedge $-1 $113 $112 $111 $186 reversed $44 $-1 #
edge $-1 $278 -67.473982970671713 $279 67.473982970671713 $111 $280 forward 7 unknown #
edge $-1 $279 -16.47224464203288 $193 -7.9343464959908836 $182 $281 forward 7 unknown #
coedge $-1 $276 $282 $113 $189 forward $283 $-1 #
edge $-1 $192 7.9343464959908836 $278 16.47224464203288 $188 $284 forward 7 unknown #
coedge $-1 $285 $114 $282 $286 forward $180 $-1 #
coedge $-1 $114 $285 $272 $287 forward $180 $-1 #
vertex $-1 $189 $288 #
vertex $-1 $187 $289 #
straight-curve $-1 0 -39.249690231354272 7.9343464959908836 -1 0 0 I I #
face $-1 $-1 $290 $26 $-1 $291 reversed single #
loop $-1 $-1 $122 $116 #
plane-surface $-1 0 0 16.47224464203288 0 0 1 1 0 0 forward_v I I I I #
coedge $-1 $292 $293 $294 $295 reversed $117 $-1 #
coedge $-1 $296 $119 $121 $205 forward $73 $-1 #
coedge $-1 $119 $296 $292 $297 forward $73 $-1 #
coedge $-1 $294 $122 $119 $202 forward $196 $-1 #
edge $-1 $208 -13.220847208854941 $298 0.48993517115948215 $201 $299 forward 7 unknown #
coedge $-1 $300 $301 $120 $204 forward $290 $-1 #
edge $-1 $302 -55.068261766118191 $207 -40.336427035573223 $203 $303 forward 7 unknown #
edge $-1 $208 -26.344816694997046 $302 1.7120460491857305e-014 $121 $304 forward 7 unknown #
coedge $-1 $122 $294 $300 $305 forward $196 $-1 #
vertex $-1 $204 $306 #
vertex $-1 $123 $307 #
straight-curve $-1 -71.46796442181892 -19.586303227702672 16.472244642032877 1 0 0 I I #
coedge $-1 $210 $210 $-1 $308 reversed $126 $-1 #
edge $-1 $309 0 $309 6.2831853071796004 $127 $310 forward 7 unknown #
vertex $-1 $130 $311 #
ellipse-curve $-1 -56.553561594130144 -15.66893683341284 9.1063272767603856 -0.55919291073839883 0 0.82903756765294845 1.2435563514794228 0 0.83878936610759824 1 I I #
coedge $-1 $214 $214 $-1 $312 reversed $133 $-1 #
edge $-1 $313 0 $313 6.2831853071796004 $134 $314 forward 7 unknown #
vertex $-1 $137 $315 #
ellipse-curve $-1 -56.553561594130144 -9.7928872419780859 9.1063272767603856 -0.55919291073839883 0 0.82903756765294845 1.2435563514794228 0 0.83878936610759824 1 I I #
face $-1 $-1 $230 $29 $-1 $316 forward single #
loop $-1 $-1 $317 $138 #
plane-surface $-1 67.473982970671713 0 0 -1 0 0 0 0 1 forward_v I I I I #
coedge $-1 $318 $319 $320 $321 reversed $139 $-1 #
coedge $-1 $322 $141 $143 $228 forward $87 $-1 #
coedge $-1 $141 $322 $318 $323 forward $87 $-1 #
coedge $-1 $320 $144 $141 $225 forward $230 $-1 #
edge $-1 $232 0.99765992672987203 $324 10.132676446354845 $224 $325 forward 7 unknown #
coedge $-1 $326 $327 $142 $227 forward $219 $-1 #
edge $-1 $328 -94.492039685821808 $231 -79.416070040106661 $226 $329 forward 7 unknown #
edge $-1 $232 111.96837295322896 $328 134.94796594134343 $143 $330 forward 7 unknown #
coedge $-1 $144 $320 $326 $331 forward $230 $-1 #
loop $-1 $-1 $320 $218 #
vertex $-1 $227 $332 #
vertex $-1 $145 $333 #
straight-curve $-1 27.080646877718365 -6.5628281132722304 16.472244642032877 -1 0 0 I I #
coedge $-1 $234 $234 $-1 $334 reversed $148 $-1 #
edge $-1 $335 0 $335 6.2831853071796004 $149 $336 forward 7 unknown #
vertex $-1 $152 $337 #
ellipse-curve $-1 58.802523561482346 -13.087839913004355 8.9342598191753098 0.6560590369687036 0 0.75470957328743171 0.75470957328743171 0 -0.6560590369687036 1 I I #
coedge $-1 $238 $238 $-1 $338 reversed $155 $-1 #
edge $-1 $339 0 $339 6.2831853071796004 $156 $340 forward 7 unknown #
vertex $-1 $159 $341 #
ellipse-curve $-1 58.802523561482346 -9.1728328331650815 8.9342598191753098 0.6560590369687036 0 0.75470957328743171 0.75470957328743171 0 -0.6560590369687036 1 I I #
face $-1 $-1 $175 $24 $-1 $342 reversed single #
loop $-1 $-1 $258 $160 #
plane-surface $-1 0 39.249690231354272 0 0 -1 0 0 0 -1 forward_v I I I I #
coedge $-1 $343 $256 $259 $344 forward $161 $-1 #
coedge $-1 $262 $163 $164 $250 reversed $101 $-1 #
coedge $-1 $256 $343 $163 $248 reversed $161 $-1 #
edge $-1 $263 -16.47224464203288 $345 16.47224464203288 $247 $346 forward 7 unknown #
coedge $-1 $165 $164 $343 $347 forward $65 $-1 #
edge $-1 $254 -67.473982970671713 $345 67.473982970671713 $246 $348 forward 7 unknown #
coedge $-1 $259 $258 $165 $252 reversed $243 $-1 #
edge $-1 $349 -67.473982970671713 $253 67.473982970671713 $251 $350 forward 7 unknown #
vertex $-1 $167 $351 #
vertex $-1 $265 $352 #
straight-curve $-1 67.473982970671713 0 -16.47224464203288 0 -1 0 I I #
coedge $-1 $245 $247 $168 $257 reversed $161 $-1 #
edge $-1 $260 -39.249690231354272 $263 39.249690231354272 $256 $353 forward 7 unknown #
coedge $-1 $251 $169 $174 $266 forward $243 $-1 #
coedge $-1 $169 $251 $245 $344 reversed $243 $-1 #
vertex $-1 $170 $354 #
straight-curve $-1 0 39.249690231354272 16.47224464203288 -1 0 0 I I #
coedge $-1 $171 $246 $173 $265 reversed $101 $-1 #
vertex $-1 $257 $355 #
straight-curve $-1 0 -39.249690231354272 16.47224464203288 1 0 0 I I #
edge $-1 $176 -16.47224464203288 $254 16.47224464203288 $173 $356 forward 7 unknown #
edge $-1 $177 -16.47224464203288 $253 16.47224464203288 $174 $357 forward 7 unknown #
point $-1 67.473982970671713 -39.249690231354272 16.47224464203288 #
point $-1 67.473982970671713 39.249690231354272 16.47224464203288 #
face $-1 $-1 $283 $25 $-1 $358 reversed single #
loop $-1 $-1 $359 $179 #
plane-surface $-1 0 -58.913077235005865 12.203295569011882 0 1 0 0 0 1 forward_v I I I I #
coedge $-1 $360 $182 $191 $287 reversed $109 $-1 #
coedge $-1 $182 $360 $183 $275 reversed $109 $-1 #
coedge $-1 $184 $183 $361 $362 forward $69 $-1 #
edge $-1 $279 39.249690231354272 $363 58.913077235005865 $273 $364 forward 7 unknown #
coedge $-1 $365 $188 $184 $277 reversed $283 $-1 #
edge $-1 $366 -58.913077235005865 $278 -39.249690231354272 $276 $367 forward 7 unknown #
vertex $-1 $189 $368 #
vertex $-1 $275 $369 #
straight-curve $-1 0 -39.249690231354272 16.47224464203288 -1 0 0 I I #
straight-curve $-1 -67.473982970671713 -39.249690231354272 0 0 0 -1 I I #
coedge $-1 $188 $365 $190 $286 reversed $283 $-1 #
loop $-1 $-1 $188 $269 #
straight-curve $-1 67.473982970671713 -39.249690231354272 0 0 0 1 I I #
coedge $-1 $191 $190 $370 $371 forward $180 $-1 #
edge $-1 $192 -9.8316935018257965 $372 9.8316935018257965 $282 $373 forward 7 unknown #
edge $-1 $374 -9.8316935018257965 $193 9.8316935018257965 $272 $375 forward 7 unknown #
point $-1 67.473982970671713 -39.249690231354272 7.9343464959908836 #
point $-1 -67.473982970671713 -39.249690231354272 7.9343464959908836 #
loop $-1 $-1 $203 $195 #
plane-surface $-1 -67.473982970671713 0 0 1 0 0 0 0 -1 forward_v I I I I #
coedge $-1 $293 $198 $200 $297 reversed $117 $-1 #
coedge $-1 $198 $292 $376 $377 reversed $117 $-1 #
coedge $-1 $206 $201 $198 $295 forward $196 $-1 #
edge $-1 $298 -25.834824204230358 $378 -3.9939814511472065 $294 $379 forward 7 unknown #
coedge $-1 $200 $199 $301 $380 reversed $73 $-1 #
edge $-1 $381 -1.7120460491857305e-014 $298 26.344816694997046 $292 $382 forward 7 unknown #
vertex $-1 $202 $383 #
straight-curve $-1 -45.633140217588554 -6.3654560188477305 16.47224464203288 0 1 0 I I #
coedge $-1 $376 $203 $206 $305 reversed $290 $-1 #
coedge $-1 $203 $376 $296 $380 forward $290 $-1 #
vertex $-1 $204 $384 #
straight-curve $-1 -67.473982970671713 -19.586303227702672 56.8086716776061 0 0 1 I I #
straight-curve $-1 -67.473982970671699 -19.586303227702672 1.7404099114879159 -0.82903756765294845 0 -0.55919291073839883 I I #
edge $-1 $378 5.8755208476882483 $207 19.586303227702672 $300 $385 forward 7 unknown #
point $-1 -67.473982970671713 -19.586303227702672 16.47224464203288 #
point $-1 -45.633140217588561 -19.586303227702672 16.47224464203288 #
edge $-1 $386 1 $386 0 $210 $-1 forward 7 unknown #
vertex $-1 $211 $387 #
ellipse-curve $-1 -54.486269756973343 -15.66893683341284 6.0414411464227147 -0.55919291073839883 0 0.82903756765294845 1.2435563514794228 0 0.83878936610759824 1 I I #
point $-1 -55.310005242650732 -15.66893683341284 9.9451166428680047 #
edge $-1 $388 1 $388 0 $214 $-1 forward 7 unknown #
vertex $-1 $215 $389 #
ellipse-curve $-1 -54.486269756973343 -9.7928872419780859 6.0414411464227147 -0.55919291073839883 0 0.82903756765294845 1.2435563514794228 0 0.83878936610759824 1 I I #
point $-1 -55.310005242650732 -9.7928872419780859 9.9451166428680047 #
plane-surface $-1 0 0 16.47224464203288 0 0 1 1 0 0 forward_v I I I I #
coedge $-1 $327 $326 $319 $390 forward $219 $-1 #
coedge $-1 $319 $221 $223 $323 reversed $139 $-1 #
coedge $-1 $221 $318 $317 $390 reversed $139 $-1 #
coedge $-1 $229 $224 $221 $321 forward $230 $-1 #
edge $-1 $324 23.050417274574627 $391 40.393336092953348 $320 $392 forward 7 unknown #
coedge $-1 $223 $222 $327 $393 reversed $87 $-1 #
edge $-1 $394 -134.94796594134343 $324 -111.96837295322896 $318 $395 forward 7 unknown #
vertex $-1 $225 $396 #
straight-curve $-1 50.131064152292979 -5.5651681865423583 16.472244642032891 0 -1 0 I I #
coedge $-1 $317 $226 $229 $331 reversed $219 $-1 #
coedge $-1 $226 $317 $322 $393 forward $219 $-1 #
vertex $-1 $227 $397 #
straight-curve $-1 67.473982970671713 -6.5628281132722304 95.888314682139537 0 0 1 I I #
straight-curve $-1 -34.372538820926451 -6.5628281132722304 89.93010757268091 0.75470957328743171 0 -0.6560590369687036 I I #
edge $-1 $391 -15.697844632897203 $231 -6.5628281132722304 $326 $398 forward 7 unknown #
point $-1 67.473982970671713 -6.5628281132722304 16.47224464203288 #
point $-1 50.131064152292993 -6.5628281132722304 16.472244642032877 #
edge $-1 $399 1 $399 0 $234 $-1 forward 7 unknown #
vertex $-1 $235 $400 #
ellipse-curve $-1 56.431645092180553 -13.087839913004355 6.2068761889602282 0.6560590369687036 0 0.75470957328743171 0.75470957328743171 0 -0.6560590369687036 1 I I #
point $-1 59.557233134769788 -13.087839913004355 8.2782007822066177 #
edge $-1 $401 1 $401 0 $238 $-1 forward 7 unknown #
vertex $-1 $239 $402 #
ellipse-curve $-1 56.431645092180553 -9.1728328331650815 6.2068761889602282 0.6560590369687036 0 0.75470957328743171 0.75470957328743171 0 -0.6560590369687036 1 I I #
point $-1 59.557233134769788 -9.1728328331650815 8.2782007822066177 #
plane-surface $-1 67.473982970671713 0 0 -1 0 0 0 0 1 forward_v I I I I #
coedge $-1 $247 $245 $249 $347 reversed $161 $-1 #
edge $-1 $260 -16.47224464203288 $349 16.47224464203288 $259 $403 forward 7 unknown #
vertex $-1 $347 $404 #
straight-curve $-1 -67.473982970671713 -39.249690231354272 0 0 0 -1 I I #
edge $-1 $345 -39.249690231354272 $349 39.249690231354272 $343 $405 forward 7 unknown #
straight-curve $-1 0 -39.249690231354272 -16.47224464203288 -1 0 0 I I #
vertex $-1 $252 $406 #
straight-curve $-1 0 39.249690231354272 -16.47224464203288 1 0 0 I I #
point $-1 67.473982970671713 39.249690231354272 -16.47224464203288 #
point $-1 67.473982970671713 -39.249690231354272 -16.47224464203288 #
straight-curve $-1 -67.473982970671713 0 16.47224464203288 0 -1 0 I I #
point $-1 -67.473982970671713 39.249690231354272 16.47224464203288 #
point $-1 -67.473982970671713 -39.249690231354272 16.47224464203288 #
straight-curve $-1 67.473982970671713 -39.249690231354272 0 0 0 -1 I I #
straight-curve $-1 67.473982970671713 39.249690231354272 0 0 0 -1 I I #
plane-surface $-1 67.473982970671713 0 0 -1 0 0 0 0 1 forward_v I I I I #
coedge $-1 $370 $361 $360 $407 forward $270 $-1 #
coedge $-1 $273 $272 $359 $407 reversed $109 $-1 #
coedge $-1 $359 $408 $274 $362 reversed $270 $-1 #
edge $-1 $363 -67.473982970671713 $366 67.473982970671713 $361 $409 forward 7 unknown #
vertex $-1 $275 $410 #
straight-curve $-1 -67.473982970671713 0 16.47224464203288 0 -1 0 I I #
coedge $-1 $282 $276 $408 $411 forward $283 $-1 #
vertex $-1 $277 $412 #
straight-curve $-1 67.473982970671713 0 16.47224464203288 0 1 0 I I #
point $-1 67.473982970671713 -39.249690231354272 16.47224464203288 #
point $-1 -67.473982970671713 -39.249690231354272 16.47224464203288 #
coedge $-1 $408 $359 $285 $371 reversed $270 $-1 #
edge $-1 $372 -67.473982970671713 $374 67.473982970671713 $370 $413 forward 7 unknown #
vertex $-1 $411 $414 #
straight-curve $-1 67.473982970671713 -49.081383733180068 7.9343464959908836 0 -1 0 I I #
vertex $-1 $287 $415 #
straight-curve $-1 -67.473982970671713 -49.081383733180068 7.9343464959908836 0 1 0 I I #
coedge $-1 $301 $300 $293 $377 forward $290 $-1 #
edge $-1 $378 40.336427035573223 $381 55.068261766118191 $376 $416 forward 7 unknown #
vertex $-1 $305 $417 #
straight-curve $-1 -71.46796442181892 -5.8755208476882483 16.472244642032877 -1 0 0 I I #
edge $-1 $381 -0.48993517115948215 $302 13.220847208854941 $301 $418 forward 7 unknown #
vertex $-1 $380 $419 #
straight-curve $-1 -67.473982970671699 -5.8755208476882483 1.7404099114879159 0.82903756765294845 0 0.55919291073839883 I I #
point $-1 -45.633140217588561 -5.8755208476882483 16.47224464203288 #
point $-1 -67.473982970671713 -19.586303227702672 1.7404099114879064 #
straight-curve $-1 -67.473982970671713 0 16.47224464203288 0 -1 0 I I #
vertex $-1 $308 $420 #
point $-1 -53.242713405493916 -15.66893683341284 6.8802305125303125 #
vertex $-1 $312 $421 #
point $-1 -53.242713405493916 -9.7928872419780859 6.8802305125303125 #
edge $-1 $391 79.416070040106661 $394 94.492039685821808 $317 $422 forward 7 unknown #
vertex $-1 $331 $423 #
straight-curve $-1 27.080646877718365 -15.697844632897203 16.472244642032877 1 0 0 I I #
edge $-1 $394 -10.132676446354845 $328 -0.99765992672987203 $327 $424 forward 7 unknown #
vertex $-1 $393 $425 #
straight-curve $-1 -34.372538820926451 -15.697844632897203 89.93010757268091 -0.75470957328743171 0 0.6560590369687036 I I #
point $-1 50.131064152292993 -15.697844632897203 16.472244642032877 #
point $-1 67.473982970671713 -6.5628281132722304 1.3962749963177288 #
straight-curve $-1 67.473982970671713 0 16.47224464203288 0 1 0 I I #
vertex $-1 $334 $426 #
point $-1 57.186354665467988 -13.087839913004355 5.5508171519915246 #
vertex $-1 $338 $427 #
point $-1 57.186354665467988 -9.1728328331650815 5.5508171519915246 #
straight-curve $-1 -67.473982970671713 39.249690231354272 0 0 0 -1 I I #
point $-1 -67.473982970671713 -39.249690231354272 -16.47224464203288 #
straight-curve $-1 -67.473982970671713 0 -16.47224464203288 0 1 0 I I #
point $-1 -67.473982970671713 39.249690231354272 -16.47224464203288 #
edge $-1 $363 -4.2689490730209982 $374 4.2689490730209982 $360 $428 forward 7 unknown #
coedge $-1 $361 $370 $365 $411 reversed $270 $-1 #
straight-curve $-1 0 -58.913077235005865 16.47224464203288 1 0 0 I I #
point $-1 -67.473982970671713 -58.913077235005865 16.47224464203288 #
edge $-1 $366 -4.2689490730209982 $372 4.2689490730209982 $365 $429 forward 7 unknown #
point $-1 67.473982970671713 -58.913077235005865 16.47224464203288 #
straight-curve $-1 0 -58.913077235005865 7.9343464959908836 -1 0 0 I I #
point $-1 67.473982970671713 -58.913077235005865 7.9343464959908836 #
point $-1 -67.473982970671713 -58.913077235005865 7.9343464959908836 #
straight-curve $-1 -67.473982970671713 -5.8755208476882483 56.8086716776061 0 0 -1 I I #
point $-1 -67.473982970671713 -5.8755208476882483 16.47224464203288 #
straight-curve $-1 -67.473982970671713 -6.3654560188477305 1.7404099114878977 0 -1 0 I I #
point $-1 -67.473982970671713 -5.8755208476882483 1.7404099114879064 #
point $-1 -53.647480390865738 -15.66893683341284 4.7978847949432915 #
point $-1 -53.647480390865738 -9.7928872419780859 4.7978847949432915 #
straight-curve $-1 67.473982970671713 -15.697844632897203 95.888314682139537 0 0 -1 I I #
point $-1 67.473982970671713 -15.697844632897203 16.47224464203288 #
straight-curve $-1 67.473982970671713 -5.5651681865423583 1.3962749963177288 0 1 0 I I #
point $-1 67.473982970671713 -15.697844632897203 1.3962749963177288 #
point $-1 55.775586055211853 -13.087839913004355 5.4521666156727964 #
point $-1 55.775586055211853 -9.1728328331650815 5.4521666156727964 #
straight-curve $-1 -67.473982970671713 -58.913077235005865 12.203295569011882 0 0 -1 I I #
straight-curve $-1 67.473982970671713 -58.913077235005865 12.203295569011882 0 0 -1 I I #
End-of-ACIS-data 