500 0 7 0           
7 Unknown 11 ACIS 5.0 NT 24 Thu Mar 25 18:56:33 1999 
-1 9.9999999999999995e-007 1e-010 
body $-1 $7 $-1 $8 #
body $-1 $9 $-1 $10 #
body $-1 $11 $-1 $12 #
body $-1 $13 $-1 $14 #
body $-1 $15 $-1 $16 #
body $-1 $17 $-1 $18 #
body $-1 $19 $-1 $20 #
lump $-1 $-1 $21 $0 #
transform $-1 1 0 0 0 1 0 0 0 1 45.45426801355022 26.53235275087648 9.7739820657980516 1 rotate no_reflect no_shear #
lump $-1 $-1 $22 $1 #
transform $-1 1 0 0 0 1 0 0 0 1 45.45426801355022 26.53235275087648 9.7739820657980516 1 rotate no_reflect no_shear #
lump $-1 $-1 $23 $2 #
transform $-1 1 0 0 0 1 0 0 0 1 45.45426801355022 26.53235275087648 9.7739820657980516 1 rotate no_reflect no_shear #
lump $-1 $-1 $24 $3 #
transform $-1 1 0 0 0 1 0 0 0 1 45.45426801355022 26.53235275087648 9.7739820657980516 1 rotate no_reflect no_shear #
lump $-1 $-1 $25 $4 #
transform $-1 1 0 0 0 1 0 0 0 1 45.45426801355022 26.53235275087648 9.7739820657980516 1 rotate no_reflect no_shear #
lump $-1 $-1 $26 $5 #
transform $-1 1 0 0 0 1 0 0 0 1 45.45426801355022 26.53235275087648 9.7739820657980516 1 rotate no_reflect no_shear #
lump $-1 $-1 $27 $6 #
transform $-1 1 0 0 0 1 0 0 0 1 45.45426801355022 26.53235275087648 9.7739820657980516 1 rotate no_reflect no_shear #
shell $-1 $-1 $-1 $28 $-1 $7 #
shell $-1 $-1 $-1 $29 $-1 $9 #
shell $-1 $-1 $-1 $30 $-1 $11 #
shell $-1 $-1 $-1 $31 $-1 $13 #
shell $-1 $-1 $-1 $32 $-1 $15 #
shell $-1 $-1 $-1 $33 $-1 $17 #
shell $-1 $-1 $-1 $34 $-1 $19 #
face $-1 $35 $36 $21 $-1 $37 forward single #
face $-1 $38 $39 $22 $-1 $40 reversed single #
face $-1 $41 $42 $23 $-1 $43 reversed single #
face $-1 $44 $45 $24 $-1 $46 reversed single #
face $-1 $47 $48 $25 $-1 $49 forward single #
face $-1 $50 $51 $26 $-1 $52 reversed single #
face $-1 $53 $54 $27 $-1 $55 forward single #
face $-1 $56 $57 $21 $-1 $58 reversed single #
loop $-1 $-1 $59 $28 #
plane-surface $-1 0 0 9.7739820657980516 0 0 1 1 0 0 forward_v I I I I #
face $-1 $60 $61 $22 $-1 $62 reversed single #
loop $-1 $-1 $63 $29 #
plane-surface $-1 -41.006588645035059 -22.750009314164775 0 0 -1 0 0 0 -1 forward_v I I I I #
face $-1 $64 $65 $23 $-1 $66 reversed single #
loop $-1 $-1 $67 $30 #
plane-surface $-1 36.558909276519891 -24.641181032520628 0 1 0 0 0 0 -1 forward_v I I I I #
face $-1 $68 $69 $24 $-1 $70 reversed single #
loop $-1 $-1 $71 $31 #
plane-surface $-1 -17.859911344370033 72.225539411167617 98.156631478306181 1 0 0 0 -0.82903758062907751 -0.55919289150049634 forward_v I I I I #
face $-1 $72 $73 $25 $-1 $74 forward single #
loop $-1 $75 $76 $32 #
cone-surface $-1 -13.494755039140493 22.273011671167502 5.1445273952990389 0 -0.82903758062907751 -0.55919289150049634 1.5 0 0 1 I I 0 1 1.5 forward I I I I #
face $-1 $77 $78 $26 $-1 $79 reversed single #
loop $-1 $-1 $80 $33 #
plane-surface $-1 9.1295987339109583 72.225539411167617 98.156631478306181 1 0 0 0 -0.82903758062907751 -0.55919289150049634 forward_v I I I I #
face $-1 $81 $82 $27 $-1 $83 forward single #
loop $-1 $84 $85 $34 #
cone-surface $-1 13.4947550391405 22.273011671167502 5.1445273952990389 0 -0.82903758062907751 -0.55919289150049634 1.5 0 0 1 I I 0 1 1.5 forward I I I I #
face $-1 $86 $87 $21 $-1 $88 reversed single #
loop $-1 $-1 $89 $35 #
plane-surface $-1 0 0 -9.7739820657980516 0 0 1 1 0 0 forward_v I I I I #
coedge $-1 $90 $91 $92 $93 forward $36 $-1 #
face $-1 $94 $95 $22 $-1 $96 forward single #
loop $-1 $-1 $97 $38 #
plane-surface $-1 -36.558909276519898 -24.641181032520628 0 -1 0 0 0 0 1 forward_v I I I I #
coedge $-1 $98 $99 $100 $101 forward $39 $-1 #
face $-1 $102 $103 $23 $-1 $104 forward single #
loop $-1 $-1 $105 $41 #
plane-surface $-1 41.006588645035052 -22.750009314164775 0 0 -1 0 0 0 -1 forward_v I I I I #
coedge $-1 $106 $107 $108 $109 forward $42 $-1 #
face $-1 $110 $111 $24 $-1 $112 reversed single #
loop $-1 $-1 $113 $44 #
plane-surface $-1 -13.494755039140493 -3.1410533552710547 47.32122435523484 0 0.82903758062907751 0.55919289150049634 1 0 0 forward_v I I I I #
coedge $-1 $114 $115 $116 $117 reversed $45 $-1 #
face $-1 $-1 $118 $25 $-1 $119 forward single #
loop $-1 $120 $121 $47 #
cone-surface $-1 -13.494755039140493 19.565628499367346 3.3183744444401384 0 -0.82903758062907751 -0.55919289150049634 0.75 0 0 1 I I -0.70710678118654724 0.70710678118654768 0.75 forward I I I I #
loop $-1 $-1 $122 $32 #
coedge $-1 $76 $76 $123 $124 reversed $48 $-1 #
face $-1 $125 $126 $26 $-1 $127 reversed single #
loop $-1 $-1 $128 $50 #
plane-surface $-1 13.4947550391405 -3.1410533552710547 47.32122435523484 0 0.82903758062907751 0.55919289150049634 1 0 0 forward_v I I I I #
coedge $-1 $129 $130 $131 $132 reversed $51 $-1 #
face $-1 $-1 $133 $27 $-1 $134 forward single #
loop $-1 $135 $136 $53 #
cone-surface $-1 13.4947550391405 19.565628499367346 3.3183744444401384 0 -0.82903758062907751 -0.55919289150049634 0.75 0 0 1 I I -0.70710678118654724 0.70710678118654768 0.75 forward I I I I #
loop $-1 $-1 $137 $34 #
coedge $-1 $85 $85 $138 $139 reversed $54 $-1 #
face $-1 $140 $141 $21 $-1 $142 reversed single #
loop $-1 $-1 $143 $56 #
plane-surface $-1 0 -26.53235275087648 0 0 1 0 0 0 1 forward_v I I I I #
coedge $-1 $144 $145 $146 $147 forward $57 $-1 #
coedge $-1 $148 $59 $149 $150 forward $36 $-1 #
coedge $-1 $59 $148 $151 $152 forward $36 $-1 #
coedge $-1 $153 $154 $59 $93 reversed $155 $-1 #
edge $-1 $156 -26.53235275087648 $157 26.53235275087648 $92 $158 forward 7 unknown #
face $-1 $159 $160 $22 $-1 $161 reversed single #
loop $-1 $-1 $162 $60 #
plane-surface $-1 0 0 9.7739820657980516 0 0 1 1 0 0 forward_v I I I I #
coedge $-1 $163 $164 $165 $166 reversed $61 $-1 #
coedge $-1 $167 $63 $168 $169 reversed $39 $-1 #
coedge $-1 $63 $167 $170 $171 reversed $39 $-1 #
coedge $-1 $164 $163 $63 $101 reversed $61 $-1 #
edge $-1 $172 -9.7739820657980516 $173 9.7739820657980516 $100 $174 forward 7 unknown #
face $-1 $175 $176 $23 $-1 $177 reversed single #
loop $-1 $-1 $178 $64 #
plane-surface $-1 0 0 9.7739820657980516 0 0 1 1 0 0 forward_v I I I I #
coedge $-1 $179 $180 $181 $182 reversed $65 $-1 #
coedge $-1 $183 $67 $184 $185 reversed $42 $-1 #
coedge $-1 $67 $183 $186 $187 reversed $42 $-1 #
coedge $-1 $180 $179 $67 $109 reversed $65 $-1 #
edge $-1 $188 -9.7739820657980516 $189 9.7739820657980516 $108 $190 forward 7 unknown #
face $-1 $191 $192 $24 $-1 $193 reversed single #
loop $-1 $-1 $194 $68 #
plane-surface $-1 -9.1295987339109512 72.225539411167617 98.156631478306181 -1 0 0 0 0.82903758062907751 0.55919289150049634 forward_v I I I I #
coedge $-1 $195 $196 $197 $198 reversed $69 $-1 #
coedge $-1 $115 $71 $199 $200 reversed $45 $-1 #
coedge $-1 $71 $114 $195 $201 reversed $45 $-1 #
coedge $-1 $197 $202 $71 $117 forward $203 $-1 #
edge $-1 $204 9.5804169547073279 $205 13.927889141468604 $116 $206 forward 7 unknown #
loop $-1 $-1 $123 $72 #
plane-surface $-1 -13.494755039140493 -3.1410533552710547 47.32122435523484 0 0.82903758062907751 0.55919289150049634 1 0 0 forward_v I I I I #
loop $-1 $-1 $207 $47 #
coedge $-1 $121 $121 $122 $208 reversed $73 $-1 #
coedge $-1 $122 $122 $121 $208 forward $75 $-1 #
coedge $-1 $123 $123 $76 $124 forward $118 $-1 #
edge $-1 $209 -1.1300094709692853e-015 $209 6.2831853071795996 $123 $210 forward 7 unknown #
face $-1 $211 $212 $26 $-1 $213 forward single #
loop $-1 $-1 $214 $77 #
plane-surface $-1 17.85991134437004 72.225539411167617 98.156631478306181 -1 0 0 0 0.82903758062907751 0.55919289150049634 forward_v I I I I #
coedge $-1 $215 $216 $217 $218 reversed $78 $-1 #
coedge $-1 $130 $80 $219 $220 reversed $51 $-1 #
coedge $-1 $80 $129 $215 $221 reversed $51 $-1 #
coedge $-1 $217 $222 $80 $132 forward $212 $-1 #
edge $-1 $223 9.5804169547073279 $224 13.927889141468604 $131 $225 forward 7 unknown #
loop $-1 $-1 $138 $81 #
plane-surface $-1 13.4947550391405 -3.1410533552710547 47.32122435523484 0 0.82903758062907751 0.55919289150049634 1 0 0 forward_v I I I I #
loop $-1 $-1 $226 $53 #
coedge $-1 $136 $136 $137 $227 reversed $82 $-1 #
coedge $-1 $137 $137 $136 $227 forward $84 $-1 #
coedge $-1 $138 $138 $85 $139 forward $133 $-1 #
edge $-1 $228 -1.1300094709692853e-015 $228 6.2831853071795996 $138 $229 forward 7 unknown #
face $-1 $230 $231 $21 $-1 $232 reversed single #
loop $-1 $-1 $233 $86 #
plane-surface $-1 -45.45426801355022 0 0 1 0 0 0 0 -1 forward_v I I I I #
coedge $-1 $234 $151 $235 $236 forward $87 $-1 #
coedge $-1 $237 $89 $234 $238 forward $57 $-1 #
coedge $-1 $89 $237 $239 $240 forward $57 $-1 #
coedge $-1 $154 $153 $89 $147 reversed $155 $-1 #
edge $-1 $241 -26.53235275087648 $242 26.53235275087648 $146 $243 forward 7 unknown #
coedge $-1 $91 $90 $244 $245 forward $36 $-1 #
coedge $-1 $246 $247 $90 $150 reversed $231 $-1 #
edge $-1 $157 -45.45426801355022 $248 45.45426801355022 $149 $249 forward 7 unknown #
coedge $-1 $143 $250 $91 $152 reversed $87 $-1 #
edge $-1 $251 -45.45426801355022 $156 45.45426801355022 $151 $252 forward 7 unknown #
coedge $-1 $146 $92 $250 $253 forward $155 $-1 #
coedge $-1 $92 $146 $246 $254 reversed $155 $-1 #
loop $-1 $-1 $153 $230 #
vertex $-1 $93 $255 #
vertex $-1 $93 $256 #
straight-curve $-1 45.45426801355022 0 9.7739820657980516 0 1 0 I I #
face $-1 $257 $258 $22 $-1 $259 reversed single #
loop $-1 $-1 $260 $94 #
plane-surface $-1 -45.45426801355022 0 0 1 0 0 0 0 -1 forward_v I I I I #
coedge $-1 $170 $261 $164 $262 forward $95 $-1 #
coedge $-1 $100 $97 $263 $264 reversed $61 $-1 #
coedge $-1 $97 $100 $162 $262 reversed $61 $-1 #
coedge $-1 $265 $266 $97 $166 forward $267 $-1 #
edge $-1 $268 -9.7739820657980516 $269 9.7739820657980516 $165 $270 forward 7 unknown #
coedge $-1 $99 $98 $260 $271 reversed $39 $-1 #
coedge $-1 $263 $272 $98 $169 forward $258 $-1 #
edge $-1 $273 -24.95097369103269 $173 -16.055614954002369 $168 $274 forward 7 unknown #
coedge $-1 $275 $162 $99 $171 forward $95 $-1 #
edge $-1 $172 16.055614954002369 $276 24.95097369103269 $170 $277 forward 7 unknown #
vertex $-1 $171 $278 #
vertex $-1 $169 $279 #
straight-curve $-1 -36.558909276519898 -22.750009314164775 0 0 0 -1 I I #
face $-1 $280 $281 $23 $-1 $282 reversed single #
loop $-1 $-1 $283 $102 #
plane-surface $-1 0 -26.53235275087648 0 0 1 0 0 0 1 forward_v I I I I #
coedge $-1 $186 $284 $180 $285 forward $103 $-1 #
coedge $-1 $108 $105 $286 $287 reversed $65 $-1 #
coedge $-1 $105 $108 $178 $285 reversed $65 $-1 #
coedge $-1 $288 $289 $105 $182 forward $290 $-1 #
edge $-1 $291 -9.7739820657980516 $292 9.7739820657980516 $181 $293 forward 7 unknown #
coedge $-1 $107 $106 $283 $294 reversed $42 $-1 #
coedge $-1 $286 $295 $106 $185 forward $281 $-1 #
edge $-1 $296 -14.211762234616167 $189 -10.429418797904461 $184 $297 forward 7 unknown #
coedge $-1 $298 $178 $107 $187 forward $103 $-1 #
edge $-1 $188 10.429418797904461 $299 14.211762234616167 $186 $300 forward 7 unknown #
vertex $-1 $187 $301 #
vertex $-1 $185 $302 #
straight-curve $-1 36.558909276519891 -22.750009314164775 0 0 0 -1 I I #
face $-1 $-1 $203 $24 $-1 $303 forward single #
loop $-1 $-1 $304 $110 #
plane-surface $-1 0 26.53235275087648 0 0 -1 0 0 0 -1 forward_v I I I I #
coedge $-1 $305 $306 $307 $308 reversed $111 $-1 #
coedge $-1 $309 $113 $115 $201 forward $69 $-1 #
coedge $-1 $113 $309 $305 $310 forward $69 $-1 #
coedge $-1 $307 $116 $113 $198 forward $203 $-1 #
edge $-1 $205 -11.112533824799787 $311 -2.3822212143407047 $197 $312 forward 7 unknown #
coedge $-1 $313 $314 $114 $200 forward $192 $-1 #
edge $-1 $315 -45.749726449886026 $204 -39.304333673355039 $199 $316 forward 7 unknown #
edge $-1 $205 45.290157125260563 $315 53.064705501752968 $115 $317 forward 7 unknown #
coedge $-1 $116 $307 $313 $318 forward $203 $-1 #
loop $-1 $-1 $307 $191 #
vertex $-1 $200 $319 #
vertex $-1 $117 $320 #
straight-curve $-1 -17.859911344370033 36.112769705583808 9.7739820657980516 0 -1 0 I I #
coedge $-1 $207 $207 $-1 $321 reversed $120 $-1 #
edge $-1 $322 0 $322 6.2831853071796004 $121 $323 forward 7 unknown #
vertex $-1 $124 $324 #
ellipse-curve $-1 -13.494755039140493 24.358616657495844 6.5512856775325634 0 0.82903758062907751 0.55919289150049634 1.5 0 0 1 I I #
face $-1 $-1 $325 $26 $-1 $326 reversed single #
loop $-1 $-1 $131 $125 #
plane-surface $-1 0 0 9.7739820657980516 0 0 1 1 0 0 forward_v I I I I #
coedge $-1 $327 $328 $329 $330 reversed $126 $-1 #
coedge $-1 $331 $128 $130 $221 forward $78 $-1 #
coedge $-1 $128 $331 $327 $332 forward $78 $-1 #
coedge $-1 $329 $131 $128 $218 forward $212 $-1 #
edge $-1 $224 2.3822212143407082 $333 11.11253382479979 $217 $334 forward 7 unknown #
coedge $-1 $335 $336 $129 $220 forward $325 $-1 #
edge $-1 $337 -45.749726449886026 $223 -39.304333673355039 $219 $338 forward 7 unknown #
edge $-1 $224 45.290157125260563 $337 53.064705501752968 $130 $339 forward 7 unknown #
coedge $-1 $131 $329 $335 $340 forward $212 $-1 #
vertex $-1 $132 $341 #
vertex $-1 $132 $342 #
straight-curve $-1 9.1295987339109583 36.112769705583808 9.7739820657980516 0 -1 0 I I #
coedge $-1 $226 $226 $-1 $343 reversed $135 $-1 #
edge $-1 $344 0 $344 6.2831853071796004 $136 $345 forward 7 unknown #
vertex $-1 $139 $346 #
ellipse-curve $-1 13.4947550391405 24.358616657495844 6.5512856775325634 0 0.82903758062907751 0.55919289150049634 1.5 0 0 1 I I #
face $-1 $-1 $155 $21 $-1 $347 reversed single #
loop $-1 $-1 $246 $140 #
plane-surface $-1 0 26.53235275087648 0 0 -1 0 0 0 -1 forward_v I I I I #
coedge $-1 $348 $244 $247 $349 forward $141 $-1 #
coedge $-1 $250 $143 $144 $238 reversed $87 $-1 #
coedge $-1 $244 $348 $143 $236 reversed $141 $-1 #
edge $-1 $251 -9.7739820657980516 $350 9.7739820657980516 $235 $351 forward 7 unknown #
coedge $-1 $145 $144 $348 $352 forward $57 $-1 #
edge $-1 $242 -45.45426801355022 $350 45.45426801355022 $234 $353 forward 7 unknown #
coedge $-1 $247 $246 $145 $240 reversed $231 $-1 #
edge $-1 $354 -45.45426801355022 $241 45.45426801355022 $239 $355 forward 7 unknown #
vertex $-1 $147 $356 #
vertex $-1 $253 $357 #
straight-curve $-1 45.45426801355022 0 -9.7739820657980516 0 -1 0 I I #
coedge $-1 $233 $235 $148 $245 reversed $141 $-1 #
edge $-1 $248 -26.53235275087648 $251 26.53235275087648 $244 $358 forward 7 unknown #
coedge $-1 $239 $149 $154 $254 forward $231 $-1 #
coedge $-1 $149 $239 $233 $349 reversed $231 $-1 #
vertex $-1 $150 $359 #
straight-curve $-1 0 26.53235275087648 9.7739820657980516 -1 0 0 I I #
coedge $-1 $151 $234 $153 $253 reversed $87 $-1 #
vertex $-1 $245 $360 #
straight-curve $-1 0 -26.53235275087648 9.7739820657980516 1 0 0 I I #
edge $-1 $156 -9.7739820657980516 $242 9.7739820657980516 $153 $361 forward 7 unknown #
edge $-1 $157 -9.7739820657980516 $241 9.7739820657980516 $154 $362 forward 7 unknown #
point $-1 45.45426801355022 -26.53235275087648 9.7739820657980516 #
point $-1 45.45426801355022 26.53235275087648 9.7739820657980516 #
face $-1 $-1 $267 $22 $-1 $363 reversed single #
loop $-1 $-1 $263 $159 #
plane-surface $-1 0 0 -9.7739820657980516 0 0 1 1 0 0 forward_v I I I I #
coedge $-1 $364 $365 $167 $271 forward $160 $-1 #
coedge $-1 $162 $275 $265 $366 forward $95 $-1 #
edge $-1 $269 -14.211762234616167 $172 -10.429418797904461 $162 $367 forward 7 unknown #
coedge $-1 $368 $168 $163 $264 forward $258 $-1 #
edge $-1 $173 10.429418797904461 $268 14.211762234616167 $263 $369 forward 7 unknown #
coedge $-1 $370 $165 $261 $366 reversed $267 $-1 #
coedge $-1 $165 $370 $368 $371 reversed $267 $-1 #
loop $-1 $-1 $165 $257 #
vertex $-1 $371 $372 #
vertex $-1 $166 $373 #
straight-curve $-1 -36.558909276519898 -26.53235275087648 0 0 0 1 I I #
edge $-1 $276 -9.7739820657980516 $273 9.7739820657980516 $260 $374 forward 7 unknown #
coedge $-1 $168 $368 $364 $375 forward $258 $-1 #
vertex $-1 $169 $376 #
straight-curve $-1 -20.503294322517529 -22.750009314164775 -9.7739820657980516 1 0 0 I I #
coedge $-1 $261 $170 $365 $377 forward $95 $-1 #
vertex $-1 $377 $378 #
straight-curve $-1 -20.503294322517529 -22.750009314164775 9.7739820657980516 -1 0 0 I I #
point $-1 -36.558909276519898 -22.750009314164775 9.7739820657980516 #
point $-1 -36.558909276519898 -22.750009314164775 -9.7739820657980516 #
face $-1 $-1 $290 $23 $-1 $379 reversed single #
loop $-1 $-1 $286 $175 #
plane-surface $-1 0 0 -9.7739820657980516 0 0 1 1 0 0 forward_v I I I I #
coedge $-1 $380 $381 $183 $294 forward $176 $-1 #
coedge $-1 $178 $298 $288 $382 forward $103 $-1 #
edge $-1 $292 -24.950973691032686 $188 -16.055614954002365 $178 $383 forward 7 unknown #
coedge $-1 $384 $184 $179 $287 forward $281 $-1 #
edge $-1 $189 16.055614954002365 $291 24.950973691032686 $286 $385 forward 7 unknown #
coedge $-1 $386 $181 $284 $382 reversed $290 $-1 #
coedge $-1 $181 $386 $384 $387 reversed $290 $-1 #
loop $-1 $-1 $181 $280 #
vertex $-1 $387 $388 #
vertex $-1 $182 $389 #
straight-curve $-1 45.45426801355022 -22.750009314164775 0 0 0 1 I I #
edge $-1 $299 -9.7739820657980516 $296 9.7739820657980516 $283 $390 forward 7 unknown #
coedge $-1 $184 $384 $380 $391 forward $281 $-1 #
vertex $-1 $185 $392 #
straight-curve $-1 36.558909276519891 -12.320590516260314 -9.7739820657980516 0 1 0 I I #
coedge $-1 $284 $186 $381 $393 forward $103 $-1 #
vertex $-1 $393 $394 #
straight-curve $-1 36.558909276519891 -12.320590516260314 9.7739820657980516 0 -1 0 I I #
point $-1 36.558909276519891 -22.750009314164775 9.7739820657980516 #
point $-1 36.558909276519891 -22.750009314164775 -9.7739820657980516 #
plane-surface $-1 0 0 9.7739820657980516 0 0 1 1 0 0 forward_v I I I I #
coedge $-1 $314 $313 $306 $395 forward $192 $-1 #
coedge $-1 $306 $194 $196 $310 reversed $111 $-1 #
coedge $-1 $194 $305 $304 $395 reversed $111 $-1 #
coedge $-1 $202 $197 $194 $308 forward $203 $-1 #
edge $-1 $311 -13.927889141468604 $396 -9.5804169547073279 $307 $397 forward 7 unknown #
coedge $-1 $196 $195 $314 $398 reversed $69 $-1 #
edge $-1 $399 -53.064705501752968 $311 -45.290157125260563 $305 $400 forward 7 unknown #
vertex $-1 $198 $401 #
straight-curve $-1 -6.7473775195702466 22.184880564115208 9.7739820657980516 1 0 0 I I #
coedge $-1 $304 $199 $202 $318 reversed $192 $-1 #
coedge $-1 $199 $304 $309 $398 forward $192 $-1 #
vertex $-1 $200 $402 #
straight-curve $-1 -17.859911344370033 26.53235275087648 49.078315739153091 0 0 1 I I #
straight-curve $-1 -17.859911344370033 -3.1410533552710547 47.32122435523484 0 0.55919289150049634 -0.82903758062907751 I I #
edge $-1 $396 9.1295987339109512 $204 17.859911344370033 $313 $403 forward 7 unknown #
point $-1 -17.859911344370033 26.53235275087648 9.7739820657980516 #
point $-1 -17.859911344370033 22.184880564115204 9.7739820657980516 #
edge $-1 $404 1 $404 0 $207 $-1 forward 7 unknown #
vertex $-1 $208 $405 #
ellipse-curve $-1 -13.494755039140493 20.187406684839154 3.7377691130655109 0 0.82903758062907751 0.55919289150049634 1.5 0 0 1 I I #
point $-1 -11.994755039140493 24.358616657495848 6.5512856775325679 #
loop $-1 $-1 $219 $211 #
plane-surface $-1 0 26.53235275087648 0 0 -1 0 0 0 -1 forward_v I I I I #
coedge $-1 $328 $214 $216 $332 reversed $126 $-1 #
coedge $-1 $214 $327 $406 $407 reversed $126 $-1 #
coedge $-1 $222 $217 $214 $330 forward $212 $-1 #
edge $-1 $333 -13.927889141468604 $408 -9.5804169547073279 $329 $409 forward 7 unknown #
coedge $-1 $216 $215 $336 $410 reversed $78 $-1 #
edge $-1 $411 -53.064705501752968 $333 -45.290157125260563 $327 $412 forward 7 unknown #
vertex $-1 $218 $413 #
straight-curve $-1 6.7473775195702501 22.184880564115208 9.7739820657980516 1 0 0 I I #
coedge $-1 $406 $219 $222 $340 reversed $325 $-1 #
coedge $-1 $219 $406 $331 $410 forward $325 $-1 #
vertex $-1 $220 $414 #
straight-curve $-1 9.1295987339109583 26.53235275087648 49.078315739153091 0 0 1 I I #
straight-curve $-1 9.1295987339109583 -3.1410533552710547 47.32122435523484 0 0.55919289150049634 -0.82903758062907751 I I #
edge $-1 $408 -17.85991134437004 $223 -9.1295987339109583 $335 $415 forward 7 unknown #
point $-1 9.1295987339109583 26.53235275087648 9.7739820657980516 #
point $-1 9.1295987339109583 22.184880564115204 9.7739820657980516 #
edge $-1 $416 1 $416 0 $226 $-1 forward 7 unknown #
vertex $-1 $227 $417 #
ellipse-curve $-1 13.4947550391405 20.187406684839154 3.7377691130655109 0 0.82903758062907751 0.55919289150049634 1.5 0 0 1 I I #
point $-1 14.9947550391405 24.358616657495848 6.5512856775325679 #
plane-surface $-1 45.45426801355022 0 0 -1 0 0 0 0 1 forward_v I I I I #
coedge $-1 $235 $233 $237 $352 reversed $141 $-1 #
edge $-1 $248 -9.7739820657980516 $354 9.7739820657980516 $247 $418 forward 7 unknown #
vertex $-1 $352 $419 #
straight-curve $-1 -45.45426801355022 -26.53235275087648 0 0 0 -1 I I #
edge $-1 $350 -26.53235275087648 $354 26.53235275087648 $348 $420 forward 7 unknown #
straight-curve $-1 0 -26.53235275087648 -9.7739820657980516 -1 0 0 I I #
vertex $-1 $240 $421 #
straight-curve $-1 0 26.53235275087648 -9.7739820657980516 1 0 0 I I #
point $-1 45.45426801355022 26.53235275087648 -9.7739820657980516 #
point $-1 45.45426801355022 -26.53235275087648 -9.7739820657980516 #
straight-curve $-1 -45.45426801355022 0 9.7739820657980516 0 -1 0 I I #
point $-1 -45.45426801355022 26.53235275087648 9.7739820657980516 #
point $-1 -45.45426801355022 -26.53235275087648 9.7739820657980516 #
straight-curve $-1 45.45426801355022 -26.53235275087648 0 0 0 -1 I I #
straight-curve $-1 45.45426801355022 26.53235275087648 0 0 0 -1 I I #
plane-surface $-1 0 -26.53235275087648 0 0 1 0 0 0 1 forward_v I I I I #
coedge $-1 $422 $260 $272 $375 reversed $160 $-1 #
coedge $-1 $260 $422 $275 $377 reversed $160 $-1 #
edge $-1 $423 -45.45426801355022 $269 -36.558909276519898 $265 $424 forward 7 unknown #
straight-curve $-1 -36.558909276519898 -12.320590516260314 9.7739820657980516 0 1 0 I I #
coedge $-1 $272 $263 $266 $371 forward $258 $-1 #
straight-curve $-1 -36.558909276519898 -12.320590516260314 -9.7739820657980516 0 -1 0 I I #
coedge $-1 $266 $265 $422 $425 forward $267 $-1 #
edge $-1 $268 36.558909276519898 $426 45.45426801355022 $266 $427 forward 7 unknown #
point $-1 -36.558909276519898 -26.53235275087648 -9.7739820657980516 #
point $-1 -36.558909276519898 -26.53235275087648 9.7739820657980516 #
straight-curve $-1 -45.45426801355022 -22.750009314164775 0 0 0 -1 I I #
edge $-1 $426 -26.53235275087648 $273 -22.750009314164775 $364 $428 forward 7 unknown #
point $-1 -45.45426801355022 -22.750009314164775 -9.7739820657980516 #
edge $-1 $276 22.750009314164775 $423 26.53235275087648 $365 $429 forward 7 unknown #
point $-1 -45.45426801355022 -22.750009314164775 9.7739820657980516 #
plane-surface $-1 45.45426801355022 0 0 -1 0 0 0 0 1 forward_v I I I I #
coedge $-1 $430 $283 $295 $391 reversed $176 $-1 #
coedge $-1 $283 $430 $298 $393 reversed $176 $-1 #
edge $-1 $431 -26.53235275087648 $292 -22.750009314164775 $288 $432 forward 7 unknown #
straight-curve $-1 20.503294322517526 -22.750009314164775 9.7739820657980516 -1 0 0 I I #
coedge $-1 $295 $286 $289 $387 forward $281 $-1 #
straight-curve $-1 20.503294322517526 -22.750009314164775 -9.7739820657980516 1 0 0 I I #
coedge $-1 $289 $288 $430 $433 forward $290 $-1 #
edge $-1 $291 22.750009314164775 $434 26.53235275087648 $289 $435 forward 7 unknown #
point $-1 45.454268013550212 -22.750009314164775 -9.7739820657980516 #
point $-1 45.454268013550212 -22.750009314164775 9.7739820657980516 #
straight-curve $-1 36.558909276519891 -26.53235275087648 0 0 0 -1 I I #
edge $-1 $434 -45.45426801355022 $296 -36.558909276519891 $380 $436 forward 7 unknown #
point $-1 36.558909276519891 -26.53235275087648 -9.7739820657980516 #
edge $-1 $299 36.558909276519891 $431 45.45426801355022 $381 $437 forward 7 unknown #
point $-1 36.558909276519891 -26.53235275087648 9.7739820657980516 #
edge $-1 $396 39.304333673355039 $399 45.749726449886026 $304 $438 forward 7 unknown #
vertex $-1 $318 $439 #
straight-curve $-1 -9.1295987339109512 36.112769705583808 9.7739820657980516 0 1 0 I I #
edge $-1 $399 2.3822212143407047 $315 11.112533824799787 $314 $440 forward 7 unknown #
vertex $-1 $398 $441 #
straight-curve $-1 -9.1295987339109512 -3.1410533552710547 47.32122435523484 0 -0.55919289150049634 0.82903758062907751 I I #
point $-1 -9.1295987339109512 22.184880564115204 9.7739820657980516 #
point $-1 -17.859911344370033 26.53235275087648 3.3285892892670645 #
straight-curve $-1 0 26.53235275087648 9.7739820657980516 -1 0 0 I I #
vertex $-1 $321 $442 #
point $-1 -11.994755039140493 20.187406684839154 3.7377691130655109 #
coedge $-1 $336 $335 $328 $407 forward $325 $-1 #
edge $-1 $408 39.304333673355039 $411 45.749726449886026 $406 $443 forward 7 unknown #
vertex $-1 $340 $444 #
straight-curve $-1 17.85991134437004 36.112769705583808 9.7739820657980516 0 1 0 I I #
edge $-1 $411 -11.11253382479979 $337 -2.3822212143407082 $336 $445 forward 7 unknown #
vertex $-1 $410 $446 #
straight-curve $-1 17.85991134437004 -3.1410533552710547 47.32122435523484 0 -0.55919289150049634 0.82903758062907751 I I #
point $-1 17.85991134437004 22.184880564115204 9.7739820657980516 #
point $-1 9.1295987339109583 26.53235275087648 3.3285892892670645 #
straight-curve $-1 0 26.53235275087648 9.7739820657980516 -1 0 0 I I #
vertex $-1 $343 $447 #
point $-1 14.9947550391405 20.187406684839154 3.7377691130655109 #
straight-curve $-1 -45.45426801355022 26.53235275087648 0 0 0 -1 I I #
point $-1 -45.45426801355022 -26.53235275087648 -9.7739820657980516 #
straight-curve $-1 -45.45426801355022 0 -9.7739820657980516 0 1 0 I I #
point $-1 -45.45426801355022 26.53235275087648 -9.7739820657980516 #
coedge $-1 $365 $364 $370 $425 reversed $160 $-1 #
vertex $-1 $377 $448 #
straight-curve $-1 0 -26.53235275087648 9.7739820657980516 1 0 0 I I #
edge $-1 $423 -9.7739820657980516 $426 9.7739820657980516 $422 $449 forward 7 unknown #
vertex $-1 $375 $450 #
straight-curve $-1 0 -26.53235275087648 -9.7739820657980516 -1 0 0 I I #
straight-curve $-1 -45.45426801355022 0 -9.7739820657980516 0 1 0 I I #
straight-curve $-1 -45.45426801355022 0 9.7739820657980516 0 -1 0 I I #
coedge $-1 $381 $380 $386 $433 reversed $176 $-1 #
vertex $-1 $382 $451 #
straight-curve $-1 45.45426801355022 0 9.7739820657980516 0 1 0 I I #
edge $-1 $431 -9.7739820657980516 $434 9.7739820657980516 $386 $452 forward 7 unknown #
vertex $-1 $433 $453 #
straight-curve $-1 45.45426801355022 0 -9.7739820657980516 0 -1 0 I I #
straight-curve $-1 0 -26.53235275087648 -9.7739820657980516 -1 0 0 I I #
straight-curve $-1 0 -26.53235275087648 9.7739820657980516 1 0 0 I I #
straight-curve $-1 -9.1295987339109512 26.53235275087648 49.078315739153091 0 0 -1 I I #
point $-1 -9.1295987339109512 26.53235275087648 9.7739820657980516 #
straight-curve $-1 -6.7473775195702466 26.532352750876484 3.3285892892670645 -1 0 0 I I #
point $-1 -9.1295987339109512 26.53235275087648 3.3285892892670645 #
point $-1 -13.494755039140493 18.943850313895538 2.898979775814766 #
straight-curve $-1 17.85991134437004 26.53235275087648 49.078315739153091 0 0 -1 I I #
point $-1 17.85991134437004 26.53235275087648 9.7739820657980516 #
straight-curve $-1 6.7473775195702501 26.532352750876484 3.3285892892670645 -1 0 0 I I #
point $-1 17.85991134437004 26.53235275087648 3.3285892892670645 #
point $-1 13.4947550391405 18.943850313895538 2.898979775814766 #
point $-1 -45.45426801355022 -26.53235275087648 9.7739820657980516 #
straight-curve $-1 -45.45426801355022 -26.53235275087648 0 0 0 -1 I I #
point $-1 -45.45426801355022 -26.53235275087648 -9.7739820657980516 #
point $-1 45.45426801355022 -26.53235275087648 9.7739820657980516 #
straight-curve $-1 45.45426801355022 -26.53235275087648 0 0 0 -1 I I #
point $-1 45.45426801355022 -26.53235275087648 -9.7739820657980516 #
End-of-ACIS-data 