500 0 10 0           
7 Unknown 11 ACIS 5.0 NT 24 Fri Mar 26 16:51:41 1999 
-1 9.9999999999999995e-007 1e-010 
body $-1 $10 $-1 $11 #
body $-1 $12 $-1 $13 #
body $-1 $14 $-1 $15 #
body $-1 $16 $-1 $17 #
body $-1 $18 $-1 $19 #
body $-1 $20 $-1 $21 #
body $-1 $22 $-1 $23 #
body $-1 $24 $-1 $25 #
body $-1 $26 $-1 $27 #
body $-1 $28 $-1 $29 #
lump $-1 $-1 $30 $0 #
transform $-1 1 0 0 0 1 0 0 0 1 71.225318155461281 46.26917698468425 15.753011824126025 1 rotate no_reflect no_shear #
lump $-1 $-1 $31 $1 #
transform $-1 1 0 0 0 1 0 0 0 1 71.225318155461281 46.26917698468425 15.753011824126025 1 rotate no_reflect no_shear #
lump $-1 $-1 $32 $2 #
transform $-1 1 0 0 0 1 0 0 0 1 71.225318155461281 46.26917698468425 15.753011824126025 1 rotate no_reflect no_shear #
lump $-1 $-1 $33 $3 #
transform $-1 1 0 0 0 1 0 0 0 1 71.225318155461281 46.26917698468425 15.753011824126025 1 rotate no_reflect no_shear #
lump $-1 $-1 $34 $4 #
transform $-1 1 0 0 0 1 0 0 0 1 71.225318155461281 46.26917698468425 15.753011824126025 1 rotate no_reflect no_shear #
lump $-1 $-1 $35 $5 #
transform $-1 1 0 0 0 1 0 0 0 1 71.225318155461281 46.26917698468425 15.753011824126025 1 rotate no_reflect no_shear #
lump $-1 $-1 $36 $6 #
transform $-1 1 0 0 0 1 0 0 0 1 71.225318155461281 46.26917698468425 15.753011824126025 1 rotate no_reflect no_shear #
lump $-1 $-1 $37 $7 #
transform $-1 1 0 0 0 1 0 0 0 1 71.225318155461281 46.26917698468425 15.753011824126025 1 rotate no_reflect no_shear #
lump $-1 $-1 $38 $8 #
transform $-1 1 0 0 0 1 0 0 0 1 71.225318155461281 46.26917698468425 15.753011824126025 1 rotate no_reflect no_shear #
lump $-1 $-1 $39 $9 #
transform $-1 1 0 0 0 1 0 0 0 1 71.225318155461281 46.26917698468425 15.753011824126025 1 rotate no_reflect no_shear #
shell $-1 $-1 $-1 $40 $-1 $10 #
shell $-1 $-1 $-1 $41 $-1 $12 #
shell $-1 $-1 $-1 $42 $-1 $14 #
shell $-1 $-1 $-1 $43 $-1 $16 #
shell $-1 $-1 $-1 $44 $-1 $18 #
shell $-1 $-1 $-1 $45 $-1 $20 #
shell $-1 $-1 $-1 $46 $-1 $22 #
shell $-1 $-1 $-1 $47 $-1 $24 #
shell $-1 $-1 $-1 $48 $-1 $26 #
shell $-1 $-1 $-1 $49 $-1 $28 #
face $-1 $50 $51 $30 $-1 $52 forward single #
face $-1 $53 $54 $31 $-1 $55 forward single #
face $-1 $56 $57 $32 $-1 $58 reversed single #
face $-1 $59 $60 $33 $-1 $61 forward single #
face $-1 $62 $63 $34 $-1 $64 forward single #
face $-1 $65 $66 $35 $-1 $67 forward single #
face $-1 $68 $69 $36 $-1 $70 reversed single #
face $-1 $71 $72 $37 $-1 $73 forward single #
face $-1 $74 $75 $38 $-1 $76 forward single #
face $-1 $77 $78 $39 $-1 $79 forward single #
face $-1 $80 $81 $30 $-1 $82 reversed single #
loop $-1 $-1 $83 $40 #
plane-surface $-1 0 0 15.753011824126025 0 0 1 1 0 0 forward_v I I I I #
face $-1 $84 $85 $31 $-1 $86 reversed single #
loop $-1 $-1 $87 $41 #
plane-surface $-1 -61.359015556227625 0 -2.1984868984920229 0 0 1 1 0 0 forward_v I I I I #
face $-1 $88 $89 $32 $-1 $90 reversed single #
loop $-1 $-1 $91 $42 #
plane-surface $-1 43.492698489803139 120.7124310336183 160.42375932619842 1 0 0 0 -0.85716730853699208 -0.51503806187062418 forward_v I I I I #
face $-1 $92 $93 $33 $-1 $94 forward single #
loop $-1 $95 $96 $43 #
cone-surface $-1 49.03922242293477 42.307645934900783 10.811193576105307 0 -0.85716730853699208 -0.51503806187062418 2 0 0 1 I I 0 1 2 forward I I I I #
face $-1 $97 $98 $34 $-1 $99 forward single #
loop $-1 $100 $101 $44 #
cone-surface $-1 57.359008322632207 42.307645934900783 10.811193576105307 0 -0.85716730853699208 -0.51503806187062418 2 0 0 1 I I 0 1 2 forward I I I I #
face $-1 $102 $103 $35 $-1 $104 forward single #
loop $-1 $105 $106 $45 #
cone-surface $-1 65.678794222329657 42.307645934900783 10.811193576105307 0 -0.85716730853699208 -0.51503806187062418 2 0 0 1 I I 0 1 2 forward I I I I #
face $-1 $107 $108 $36 $-1 $109 reversed single #
loop $-1 $-1 $110 $46 #
plane-surface $-1 57.359008322632207 -46.269176984684208 7.7354078800166235 0 -0.85716730853699208 0.51503806187062418 1 0 0 forward_v I I I I #
face $-1 $111 $112 $37 $-1 $113 forward single #
loop $-1 $114 $115 $47 #
cone-surface $-1 49.03922242293477 -42.307645934900783 10.811193576105314 0 0.85716730853699208 -0.51503806187062418 2 0 0 1 I I 0 1 2 forward I I I I #
face $-1 $116 $117 $38 $-1 $118 forward single #
loop $-1 $119 $120 $48 #
cone-surface $-1 57.359008322632207 -42.307645934900783 10.811193576105314 0 0.85716730853699208 -0.51503806187062418 2 0 0 1 I I 0 1 2 forward I I I I #
face $-1 $121 $122 $39 $-1 $123 forward single #
loop $-1 $124 $125 $49 #
cone-surface $-1 65.678794222329657 -42.307645934900783 10.811193576105314 0 0.85716730853699208 -0.51503806187062418 2 0 0 1 I I 0 1 2 forward I I I I #
face $-1 $126 $127 $30 $-1 $128 reversed single #
loop $-1 $-1 $129 $50 #
plane-surface $-1 0 0 -15.753011824126025 0 0 1 1 0 0 forward_v I I I I #
coedge $-1 $130 $131 $132 $133 forward $51 $-1 #
face $-1 $134 $135 $31 $-1 $136 reversed single #
loop $-1 $-1 $137 $53 #
plane-surface $-1 -61.359015556227625 0 -5.4710096038610185 0 0 1 1 0 0 forward_v I I I I #
coedge $-1 $138 $139 $140 $141 forward $54 $-1 #
face $-1 $142 $143 $32 $-1 $144 forward single #
loop $-1 $-1 $145 $56 #
plane-surface $-1 57.359008322632207 -1.3915974923971106 87.056259688383705 0 0.85716730853699208 0.51503806187062418 1 0 0 forward_v I I I I #
coedge $-1 $146 $147 $148 $149 reversed $57 $-1 #
face $-1 $-1 $150 $33 $-1 $151 forward single #
loop $-1 $152 $153 $59 #
cone-surface $-1 49.03922242293477 39.897678728068328 9.3631392382686673 0 -0.85716730853699208 -0.51503806187062418 1 0 0 1 I I -0.70710678118654746 0.70710678118654746 1 forward I I I I #
loop $-1 $-1 $154 $43 #
coedge $-1 $96 $96 $155 $156 reversed $60 $-1 #
face $-1 $-1 $157 $34 $-1 $158 forward single #
loop $-1 $159 $160 $62 #
cone-surface $-1 57.359008322632207 39.897678728068328 9.3631392382686673 0 -0.85716730853699208 -0.51503806187062418 1 0 0 1 I I -0.70710678118654746 0.70710678118654746 1 forward I I I I #
loop $-1 $-1 $161 $44 #
coedge $-1 $101 $101 $162 $163 reversed $63 $-1 #
face $-1 $-1 $164 $35 $-1 $165 forward single #
loop $-1 $166 $167 $65 #
cone-surface $-1 65.678794222329657 39.897678728068328 9.3631392382686673 0 -0.85716730853699208 -0.51503806187062418 1 0 0 1 I I -0.70710678118654746 0.70710678118654746 1 forward I I I I #
loop $-1 $-1 $168 $45 #
coedge $-1 $106 $106 $169 $170 reversed $66 $-1 #
face $-1 $171 $172 $36 $-1 $173 reversed single #
loop $-1 $-1 $174 $68 #
plane-surface $-1 43.492698489803139 -168.37320551069962 81.102907517831341 1 0 0 0 0.85716730853699208 -0.51503806187062418 forward_v I I I I #
coedge $-1 $175 $176 $177 $178 reversed $69 $-1 #
face $-1 $-1 $179 $37 $-1 $180 forward single #
loop $-1 $181 $182 $71 #
cone-surface $-1 49.03922242293477 -39.897678728068328 9.3631392382686744 0 0.85716730853699208 -0.51503806187062418 1 0 0 1 I I -0.70710678118654746 0.70710678118654746 1 forward I I I I #
loop $-1 $-1 $183 $47 #
coedge $-1 $115 $115 $184 $185 reversed $72 $-1 #
face $-1 $-1 $186 $38 $-1 $187 forward single #
loop $-1 $188 $189 $74 #
cone-surface $-1 57.359008322632207 -39.897678728068328 9.3631392382686744 0 0.85716730853699208 -0.51503806187062418 1 0 0 1 I I -0.70710678118654746 0.70710678118654746 1 forward I I I I #
loop $-1 $-1 $190 $48 #
coedge $-1 $120 $120 $191 $192 reversed $75 $-1 #
face $-1 $-1 $193 $39 $-1 $194 forward single #
loop $-1 $195 $196 $77 #
cone-surface $-1 65.678794222329657 -39.897678728068328 9.3631392382686744 0 0.85716730853699208 -0.51503806187062418 1 0 0 1 I I -0.70710678118654746 0.70710678118654746 1 forward I I I I #
loop $-1 $-1 $197 $49 #
coedge $-1 $125 $125 $198 $199 reversed $78 $-1 #
face $-1 $200 $201 $30 $-1 $202 reversed single #
loop $-1 $-1 $203 $80 #
plane-surface $-1 0 -46.26917698468425 0 0 1 0 0 0 1 forward_v I I I I #
coedge $-1 $204 $205 $206 $207 forward $81 $-1 #
coedge $-1 $208 $83 $209 $210 forward $51 $-1 #
coedge $-1 $83 $208 $211 $212 forward $51 $-1 #
coedge $-1 $213 $214 $83 $133 reversed $215 $-1 #
edge $-1 $216 -46.26917698468425 $217 46.26917698468425 $132 $218 forward 7 unknown #
face $-1 $219 $220 $31 $-1 $221 reversed single #
loop $-1 $-1 $222 $84 #
plane-surface $-1 -51.492712956993969 0 -3.8347482511765207 -1 0 0 0 0 1 forward_v I I I I #
coedge $-1 $223 $224 $225 $226 forward $85 $-1 #
coedge $-1 $227 $87 $228 $229 reversed $54 $-1 #
coedge $-1 $87 $227 $230 $231 reversed $54 $-1 #
coedge $-1 $222 $232 $87 $141 reversed $135 $-1 #
edge $-1 $233 -46.26917698468425 $234 46.26917698468425 $140 $235 forward 7 unknown #
face $-1 $236 $237 $32 $-1 $238 reversed single #
loop $-1 $-1 $148 $88 #
plane-surface $-1 0 0 15.753011824126025 0 0 1 1 0 0 forward_v I I I I #
coedge $-1 $239 $240 $241 $242 reversed $89 $-1 #
coedge $-1 $147 $91 $243 $244 reversed $57 $-1 #
coedge $-1 $91 $146 $239 $245 reversed $57 $-1 #
coedge $-1 $241 $246 $91 $149 forward $143 $-1 #
edge $-1 $247 14.0870385321249 $248 18.90450083510094 $148 $249 forward 7 unknown #
loop $-1 $-1 $155 $92 #
plane-surface $-1 57.359008322632207 -1.3915974923971106 87.056259688383705 0 0.85716730853699208 0.51503806187062418 1 0 0 forward_v I I I I #
loop $-1 $-1 $250 $59 #
coedge $-1 $153 $153 $154 $251 reversed $93 $-1 #
coedge $-1 $154 $154 $153 $251 forward $95 $-1 #
coedge $-1 $155 $155 $96 $156 forward $150 $-1 #
edge $-1 $252 -9.0833949806864129e-016 $252 6.2831853071795996 $155 $253 forward 7 unknown #
loop $-1 $-1 $162 $97 #
plane-surface $-1 57.359008322632207 -1.3915974923971106 87.056259688383705 0 0.85716730853699208 0.51503806187062418 1 0 0 forward_v I I I I #
loop $-1 $-1 $254 $62 #
coedge $-1 $160 $160 $161 $255 reversed $98 $-1 #
coedge $-1 $161 $161 $160 $255 forward $100 $-1 #
coedge $-1 $162 $162 $101 $163 forward $157 $-1 #
edge $-1 $256 -9.0833949806864129e-016 $256 6.2831853071795996 $162 $257 forward 7 unknown #
loop $-1 $-1 $169 $102 #
plane-surface $-1 57.359008322632207 -1.3915974923971106 87.056259688383705 0 0.85716730853699208 0.51503806187062418 1 0 0 forward_v I I I I #
loop $-1 $-1 $258 $65 #
coedge $-1 $167 $167 $168 $259 reversed $103 $-1 #
coedge $-1 $168 $168 $167 $259 forward $105 $-1 #
coedge $-1 $169 $169 $106 $170 forward $164 $-1 #
edge $-1 $260 -9.0833949806864129e-016 $260 6.2831853071795996 $169 $261 forward 7 unknown #
face $-1 $262 $263 $36 $-1 $264 forward single #
loop $-1 $-1 $265 $107 #
plane-surface $-1 0 -46.26917698468425 0 0 1 0 0 0 1 forward_v I I I I #
coedge $-1 $266 $267 $268 $269 reversed $108 $-1 #
coedge $-1 $270 $110 $271 $272 reversed $69 $-1 #
coedge $-1 $110 $270 $266 $273 forward $69 $-1 #
coedge $-1 $268 $274 $110 $178 forward $263 $-1 #
edge $-1 $275 -42.545813994145178 $276 -14.813194328487036 $177 $277 forward 7 unknown #
loop $-1 $-1 $184 $111 #
plane-surface $-1 57.359008322632207 -46.269176984684208 7.7354078800166235 0 -0.85716730853699208 0.51503806187062418 1 0 0 forward_v I I I I #
loop $-1 $-1 $278 $71 #
coedge $-1 $182 $182 $183 $279 reversed $112 $-1 #
coedge $-1 $183 $183 $182 $279 forward $114 $-1 #
coedge $-1 $184 $184 $115 $185 forward $179 $-1 #
edge $-1 $280 1.8166789961372826e-015 $280 6.2831853071796022 $184 $281 forward 7 unknown #
loop $-1 $-1 $191 $116 #
plane-surface $-1 57.359008322632207 -46.269176984684208 7.7354078800166235 0 -0.85716730853699208 0.51503806187062418 1 0 0 forward_v I I I I #
loop $-1 $-1 $282 $74 #
coedge $-1 $189 $189 $190 $283 reversed $117 $-1 #
coedge $-1 $190 $190 $189 $283 forward $119 $-1 #
coedge $-1 $191 $191 $120 $192 forward $186 $-1 #
edge $-1 $284 1.8166789961372826e-015 $284 6.2831853071796022 $191 $285 forward 7 unknown #
loop $-1 $-1 $198 $121 #
plane-surface $-1 57.359008322632207 -46.269176984684208 7.7354078800166235 0 -0.85716730853699208 0.51503806187062418 1 0 0 forward_v I I I I #
loop $-1 $-1 $286 $77 #
coedge $-1 $196 $196 $197 $287 reversed $122 $-1 #
coedge $-1 $197 $197 $196 $287 forward $124 $-1 #
coedge $-1 $198 $198 $125 $199 forward $193 $-1 #
edge $-1 $288 1.8166789961372826e-015 $288 6.2831853071796022 $198 $289 forward 7 unknown #
face $-1 $290 $291 $30 $-1 $292 reversed single #
loop $-1 $-1 $293 $126 #
plane-surface $-1 -71.225318155461281 0 0 1 0 0 0 0 -1 forward_v I I I I #
coedge $-1 $294 $211 $295 $296 forward $127 $-1 #
coedge $-1 $297 $129 $294 $298 forward $81 $-1 #
coedge $-1 $129 $297 $299 $300 forward $81 $-1 #
coedge $-1 $214 $213 $129 $207 reversed $215 $-1 #
edge $-1 $301 -46.26917698468425 $302 46.26917698468425 $206 $303 forward 7 unknown #
coedge $-1 $131 $130 $304 $305 forward $51 $-1 #
coedge $-1 $306 $307 $130 $210 reversed $291 $-1 #
edge $-1 $217 -71.225318155461281 $308 71.225318155461281 $209 $309 forward 7 unknown #
coedge $-1 $203 $310 $131 $212 reversed $127 $-1 #
edge $-1 $311 -71.225318155461281 $216 71.225318155461281 $211 $312 forward 7 unknown #
coedge $-1 $206 $132 $310 $313 forward $215 $-1 #
coedge $-1 $132 $206 $306 $314 reversed $215 $-1 #
loop $-1 $-1 $213 $290 #
vertex $-1 $133 $315 #
vertex $-1 $133 $316 #
straight-curve $-1 71.225318155461281 0 15.753011824126025 0 1 0 I I #
face $-1 $317 $318 $31 $-1 $319 reversed single #
loop $-1 $-1 $320 $134 #
plane-surface $-1 0 -46.26917698468425 0 0 1 0 0 0 1 forward_v I I I I #
coedge $-1 $225 $140 $321 $322 reversed $135 $-1 #
coedge $-1 $323 $137 $320 $324 reversed $85 $-1 #
coedge $-1 $137 $323 $325 $326 reversed $85 $-1 #
coedge $-1 $232 $222 $137 $226 reversed $135 $-1 #
edge $-1 $327 -46.26917698468425 $328 46.26917698468425 $225 $329 forward 7 unknown #
coedge $-1 $139 $138 $330 $331 reversed $54 $-1 #
coedge $-1 $332 $333 $138 $229 forward $334 $-1 #
edge $-1 $335 -40.545810377347465 $234 -20.813205178880157 $228 $336 forward 7 unknown #
coedge $-1 $337 $321 $139 $231 forward $220 $-1 #
edge $-1 $233 20.813205178880157 $338 40.545810377347465 $230 $339 forward 7 unknown #
coedge $-1 $140 $225 $332 $340 reversed $135 $-1 #
vertex $-1 $231 $341 #
vertex $-1 $229 $342 #
straight-curve $-1 -51.492712956993969 0 -2.1984868984920229 0 1 0 I I #
face $-1 $-1 $343 $32 $-1 $344 reversed single #
loop $-1 $-1 $345 $142 #
plane-surface $-1 71.225318155461281 0 0 -1 0 0 0 0 1 forward_v I I I I #
coedge $-1 $346 $145 $147 $245 forward $89 $-1 #
coedge $-1 $145 $346 $345 $347 reversed $89 $-1 #
coedge $-1 $348 $148 $145 $242 forward $143 $-1 #
edge $-1 $248 14.813194328487036 $349 42.545813994145178 $241 $350 forward 7 unknown #
coedge $-1 $351 $352 $146 $244 forward $343 $-1 #
edge $-1 $353 -72.476471783082616 $247 -64.458867838973191 $243 $354 forward 7 unknown #
edge $-1 $248 83.184749528021129 $353 92.538353969368558 $147 $355 forward 7 unknown #
coedge $-1 $148 $348 $351 $356 forward $143 $-1 #
vertex $-1 $244 $357 #
vertex $-1 $149 $358 #
straight-curve $-1 43.492698489803139 60.356215516809151 15.75301182412602 0 -1 0 I I #
coedge $-1 $250 $250 $-1 $359 reversed $152 $-1 #
edge $-1 $360 0 $360 6.2831853071796004 $153 $361 forward 7 unknown #
vertex $-1 $156 $362 #
ellipse-curve $-1 49.03922242293477 43.860445833196223 11.744209852071309 0 0.85716730853699208 0.51503806187062418 2 0 0 1 I I #
coedge $-1 $254 $254 $-1 $363 reversed $159 $-1 #
edge $-1 $364 0 $364 6.2831853071796004 $160 $365 forward 7 unknown #
vertex $-1 $163 $366 #
ellipse-curve $-1 57.359008322632207 43.860445833196223 11.744209852071309 0 0.85716730853699208 0.51503806187062418 2 0 0 1 I I #
coedge $-1 $258 $258 $-1 $367 reversed $166 $-1 #
edge $-1 $368 0 $368 6.2831853071796004 $167 $369 forward 7 unknown #
vertex $-1 $170 $370 #
ellipse-curve $-1 65.678794222329657 43.860445833196223 11.744209852071309 0 0.85716730853699208 0.51503806187062418 2 0 0 1 I I #
face $-1 $-1 $371 $36 $-1 $372 reversed single #
loop $-1 $-1 $268 $171 #
plane-surface $-1 0 0 15.753011824126025 0 0 1 1 0 0 forward_v I I I I #
coedge $-1 $373 $374 $267 $375 forward $172 $-1 #
coedge $-1 $267 $174 $176 $273 reversed $108 $-1 #
coedge $-1 $174 $266 $265 $375 reversed $108 $-1 #
coedge $-1 $376 $177 $174 $269 forward $263 $-1 #
edge $-1 $276 -42.734888073641628 $377 -37.91742577066556 $268 $378 forward 7 unknown #
coedge $-1 $176 $175 $373 $379 reversed $69 $-1 #
coedge $-1 $380 $381 $175 $272 forward $371 $-1 #
edge $-1 $382 -8.5999242427955611 $275 0.75368019855191715 $271 $383 forward 7 unknown #
edge $-1 $384 -8.2862793651327634e-014 $276 9.3536044413473967 $266 $385 forward 7 unknown #
coedge $-1 $177 $376 $380 $386 forward $263 $-1 #
vertex $-1 $272 $387 #
vertex $-1 $178 $388 #
straight-curve $-1 28.679504161316103 -41.451714681708182 15.753011824126025 -1 0 0 I I #
coedge $-1 $278 $278 $-1 $389 reversed $181 $-1 #
edge $-1 $390 0 $390 6.2831853071796004 $182 $391 forward 7 unknown #
vertex $-1 $185 $392 #
ellipse-curve $-1 49.03922242293477 -43.860445833196209 11.744209852071306 0 -0.85716730853699208 0.51503806187062418 2 0 0 1 I I #
coedge $-1 $282 $282 $-1 $393 reversed $188 $-1 #
edge $-1 $394 0 $394 6.2831853071796004 $189 $395 forward 7 unknown #
vertex $-1 $192 $396 #
ellipse-curve $-1 57.359008322632207 -43.860445833196209 11.744209852071306 0 -0.85716730853699208 0.51503806187062418 2 0 0 1 I I #
coedge $-1 $286 $286 $-1 $397 reversed $195 $-1 #
edge $-1 $398 0 $398 6.2831853071796004 $196 $399 forward 7 unknown #
vertex $-1 $199 $400 #
ellipse-curve $-1 65.678794222329657 -43.860445833196209 11.744209852071306 0 -0.85716730853699208 0.51503806187062418 2 0 0 1 I I #
face $-1 $-1 $215 $30 $-1 $401 reversed single #
loop $-1 $-1 $306 $200 #
plane-surface $-1 0 46.26917698468425 0 0 -1 0 0 0 -1 forward_v I I I I #
coedge $-1 $402 $304 $307 $403 forward $201 $-1 #
coedge $-1 $310 $203 $204 $298 reversed $127 $-1 #
coedge $-1 $304 $402 $203 $296 reversed $201 $-1 #
edge $-1 $311 -15.753011824126025 $404 15.753011824126025 $295 $405 forward 7 unknown #
coedge $-1 $205 $204 $402 $406 forward $81 $-1 #
edge $-1 $302 -71.225318155461281 $404 71.225318155461281 $294 $407 forward 7 unknown #
coedge $-1 $307 $306 $205 $300 reversed $291 $-1 #
edge $-1 $408 -71.225318155461281 $301 71.225318155461281 $299 $409 forward 7 unknown #
vertex $-1 $207 $410 #
vertex $-1 $313 $411 #
straight-curve $-1 71.225318155461281 0 -15.753011824126025 0 -1 0 I I #
coedge $-1 $293 $295 $208 $305 reversed $201 $-1 #
edge $-1 $308 -46.26917698468425 $311 46.26917698468425 $304 $412 forward 7 unknown #
coedge $-1 $299 $209 $214 $314 forward $291 $-1 #
coedge $-1 $209 $299 $293 $403 reversed $291 $-1 #
vertex $-1 $210 $413 #
straight-curve $-1 0 46.26917698468425 15.753011824126025 -1 0 0 I I #
coedge $-1 $211 $294 $213 $313 reversed $127 $-1 #
vertex $-1 $305 $414 #
straight-curve $-1 0 -46.26917698468425 15.753011824126025 1 0 0 I I #
edge $-1 $216 -15.753011824126025 $302 15.753011824126025 $213 $415 forward 7 unknown #
edge $-1 $217 -15.753011824126025 $301 15.753011824126025 $214 $416 forward 7 unknown #
point $-1 71.225318155461281 -46.26917698468425 15.753011824126025 #
point $-1 71.225318155461281 46.26917698468425 15.753011824126025 #
face $-1 $-1 $334 $31 $-1 $417 reversed single #
loop $-1 $-1 $418 $219 #
plane-surface $-1 -71.225318155461281 0 0 1 0 0 0 0 -1 forward_v I I I I #
coedge $-1 $321 $337 $223 $324 forward $220 $-1 #
coedge $-1 $230 $320 $222 $322 forward $220 $-1 #
edge $-1 $328 -3.5536354782727582 $233 -0.28111277290376258 $321 $419 forward 7 unknown #
coedge $-1 $224 $223 $418 $420 reversed $85 $-1 #
edge $-1 $421 -40.545810377347465 $328 -20.813205178880157 $320 $422 forward 7 unknown #
coedge $-1 $333 $332 $224 $326 forward $334 $-1 #
edge $-1 $327 20.813205178880157 $423 40.545810377347465 $325 $424 forward 7 unknown #
vertex $-1 $326 $425 #
vertex $-1 $324 $426 #
straight-curve $-1 -51.492712956993969 0 -5.4710096038610185 0 -1 0 I I #
coedge $-1 $427 $428 $227 $331 forward $318 $-1 #
edge $-1 $338 -46.26917698468425 $335 46.26917698468425 $330 $429 forward 7 unknown #
coedge $-1 $325 $228 $232 $340 forward $334 $-1 #
coedge $-1 $228 $325 $427 $430 reversed $334 $-1 #
loop $-1 $-1 $325 $317 #
vertex $-1 $430 $431 #
straight-curve $-1 -30.679507778113813 46.26917698468425 -2.1984868984920229 1 0 0 I I #
coedge $-1 $320 $230 $428 $432 forward $220 $-1 #
vertex $-1 $432 $433 #
straight-curve $-1 -30.679507778113813 -46.26917698468425 -2.1984868984920229 -1 0 0 I I #
edge $-1 $234 0.28111277290376258 $327 3.5536354782727582 $332 $434 forward 7 unknown #
point $-1 -51.492712956993969 -46.26917698468425 -2.1984868984920229 #
point $-1 -51.492712956993969 46.26917698468425 -2.1984868984920229 #
loop $-1 $-1 $243 $236 #
plane-surface $-1 0 46.26917698468425 0 0 -1 0 0 0 -1 forward_v I I I I #
coedge $-1 $435 $436 $240 $347 forward $237 $-1 #
coedge $-1 $240 $239 $352 $437 reversed $89 $-1 #
edge $-1 $349 45.515496786132353 $438 54.869101227479774 $345 $439 forward 7 unknown #
coedge $-1 $246 $241 $436 $440 forward $143 $-1 #
vertex $-1 $440 $441 #
straight-curve $-1 28.679504161316103 41.451714681708197 15.75301182412602 1 0 0 I I #
coedge $-1 $442 $243 $246 $356 reversed $343 $-1 #
coedge $-1 $243 $442 $346 $437 forward $343 $-1 #
vertex $-1 $244 $443 #
straight-curve $-1 43.492698489803139 46.26917698468425 80.211879663099211 0 0 1 I I #
straight-curve $-1 43.492698489803139 -1.3915974923971106 87.056259688383705 0 0.51503806187062418 -0.85716730853699208 I I #
edge $-1 $444 -71.225318155461281 $247 -43.492698489803139 $351 $445 forward 7 unknown #
point $-1 43.492698489803139 46.26917698468425 15.753011824126025 #
point $-1 43.492698489803139 41.451714681708211 15.75301182412602 #
edge $-1 $446 1 $446 0 $250 $-1 forward 7 unknown #
vertex $-1 $251 $447 #
ellipse-curve $-1 49.03922242293477 40.754846036605322 9.8781773001392921 0 0.85716730853699208 0.51503806187062418 2 0 0 1 I I #
point $-1 51.03922242293477 43.860445833196238 11.74420985207132 #
edge $-1 $448 1 $448 0 $254 $-1 forward 7 unknown #
vertex $-1 $255 $449 #
ellipse-curve $-1 57.359008322632207 40.754846036605322 9.8781773001392921 0 0.85716730853699208 0.51503806187062418 2 0 0 1 I I #
point $-1 59.359008322632207 43.860445833196238 11.74420985207132 #
edge $-1 $450 1 $450 0 $258 $-1 forward 7 unknown #
vertex $-1 $259 $451 #
ellipse-curve $-1 65.678794222329657 40.754846036605322 9.8781773001392921 0 0.85716730853699208 0.51503806187062418 2 0 0 1 I I #
point $-1 67.678794222329657 43.860445833196238 11.74420985207132 #
loop $-1 $-1 $271 $262 #
plane-surface $-1 71.225318155461281 0 0 -1 0 0 0 0 1 forward_v I I I I #
coedge $-1 $452 $265 $270 $379 forward $172 $-1 #
coedge $-1 $265 $452 $376 $453 reversed $172 $-1 #
edge $-1 $377 24.798441934789643 $384 32.816045878899118 $265 $454 forward 7 unknown #
coedge $-1 $274 $268 $374 $453 forward $263 $-1 #
vertex $-1 $453 $455 #
straight-curve $-1 43.492698489803139 -84.18660275534981 15.753011824126027 0 -1 0 I I #
edge $-1 $384 14.813194328487036 $382 42.545813994145178 $373 $456 forward 7 unknown #
coedge $-1 $381 $271 $274 $386 reversed $371 $-1 #
coedge $-1 $271 $380 $452 $457 forward $371 $-1 #
vertex $-1 $379 $458 #
straight-curve $-1 71.225318155461281 -41.839888670440629 15.106981796835653 0 0.51503806187062429 0.85716730853699219 I I #
vertex $-1 $379 $459 #
straight-curve $-1 43.492698489803139 -46.269176984684208 7.7354078800166235 0 0.51503806187062418 0.85716730853699208 I I #
edge $-1 $460 -46.26917698468425 $275 -41.451714681708182 $380 $461 forward 7 unknown #
point $-1 71.225318155461281 -41.451714681708182 15.753011824126025 #
point $-1 43.492698489803139 -41.451714681708182 15.753011824126025 #
edge $-1 $462 1 $462 0 $278 $-1 forward 7 unknown #
vertex $-1 $279 $463 #
ellipse-curve $-1 49.03922242293477 -40.754846036605322 9.8781773001392992 0 -0.85716730853699208 0.51503806187062418 2 0 0 1 I I #
point $-1 51.03922242293477 -43.860445833196238 11.744209852071327 #
edge $-1 $464 1 $464 0 $282 $-1 forward 7 unknown #
vertex $-1 $283 $465 #
ellipse-curve $-1 57.359008322632207 -40.754846036605322 9.8781773001392992 0 -0.85716730853699208 0.51503806187062418 2 0 0 1 I I #
point $-1 59.359008322632207 -43.860445833196238 11.744209852071327 #
edge $-1 $466 1 $466 0 $286 $-1 forward 7 unknown #
vertex $-1 $287 $467 #
ellipse-curve $-1 65.678794222329657 -40.754846036605322 9.8781773001392992 0 -0.85716730853699208 0.51503806187062418 2 0 0 1 I I #
point $-1 67.678794222329657 -43.860445833196238 11.744209852071327 #
plane-surface $-1 71.225318155461281 0 0 -1 0 0 0 0 1 forward_v I I I I #
coedge $-1 $295 $293 $297 $406 reversed $201 $-1 #
edge $-1 $308 -15.753011824126025 $408 15.753011824126025 $307 $468 forward 7 unknown #
vertex $-1 $406 $469 #
straight-curve $-1 -71.225318155461281 -46.26917698468425 0 0 0 -1 I I #
edge $-1 $404 -46.26917698468425 $408 46.26917698468425 $402 $470 forward 7 unknown #
straight-curve $-1 0 -46.26917698468425 -15.753011824126025 -1 0 0 I I #
vertex $-1 $300 $471 #
straight-curve $-1 0 46.26917698468425 -15.753011824126025 1 0 0 I I #
point $-1 71.225318155461281 46.26917698468425 -15.753011824126025 #
point $-1 71.225318155461281 -46.26917698468425 -15.753011824126025 #
straight-curve $-1 -71.225318155461281 0 15.753011824126025 0 -1 0 I I #
point $-1 -71.225318155461281 46.26917698468425 15.753011824126025 #
point $-1 -71.225318155461281 -46.26917698468425 15.753011824126025 #
straight-curve $-1 71.225318155461281 -46.26917698468425 0 0 0 -1 I I #
straight-curve $-1 71.225318155461281 46.26917698468425 0 0 0 -1 I I #
plane-surface $-1 0 46.26917698468425 0 0 -1 0 0 0 -1 forward_v I I I I #
coedge $-1 $428 $427 $323 $420 forward $318 $-1 #
straight-curve $-1 -51.492712956993969 -46.26917698468425 -1.9173741255882604 0 0 1 I I #
edge $-1 $423 -46.26917698468425 $421 46.26917698468425 $418 $472 forward 7 unknown #
vertex $-1 $324 $473 #
straight-curve $-1 -30.679507778113813 -46.26917698468425 -5.4710096038610185 1 0 0 I I #
vertex $-1 $326 $474 #
straight-curve $-1 -30.679507778113813 46.26917698468425 -5.4710096038610185 -1 0 0 I I #
point $-1 -51.492712956993969 46.26917698468425 -5.4710096038610185 #
point $-1 -51.492712956993969 -46.26917698468425 -5.4710096038610185 #
coedge $-1 $418 $330 $333 $430 forward $318 $-1 #
coedge $-1 $330 $418 $337 $432 reversed $318 $-1 #
straight-curve $-1 -71.225318155461281 0 -2.1984868984920229 0 1 0 I I #
edge $-1 $335 2.1984868984920229 $423 5.4710096038610185 $333 $475 forward 7 unknown #
point $-1 -71.225318155461281 46.26917698468425 -2.1984868984920229 #
edge $-1 $338 2.1984868984920229 $421 5.4710096038610185 $428 $476 forward 7 unknown #
point $-1 -71.225318155461281 -46.26917698468425 -2.1984868984920229 #
straight-curve $-1 -51.492712956993969 46.26917698468425 -1.9173741255882604 0 0 -1 I I #
coedge $-1 $436 $345 $442 $477 reversed $237 $-1 #
coedge $-1 $345 $435 $348 $440 reversed $237 $-1 #
edge $-1 $438 -42.545813994145178 $353 -14.813194328487036 $352 $478 forward 7 unknown #
vertex $-1 $347 $479 #
straight-curve $-1 71.225318155461281 18.009501431899974 54.767407701019195 0 0.51503806187062429 -0.85716730853699219 I I #
edge $-1 $349 41.451714681708211 $444 46.26917698468425 $436 $480 forward 7 unknown #
point $-1 71.225318155461281 41.451714681708211 15.75301182412602 #
coedge $-1 $352 $351 $435 $477 forward $343 $-1 #
point $-1 43.492698489803139 46.26917698468425 7.7354078800165951 #
vertex $-1 $440 $481 #
straight-curve $-1 0 46.26917698468425 15.753011824126025 -1 0 0 I I #
vertex $-1 $359 $482 #
point $-1 51.03922242293477 40.754846036605322 9.8781773001392921 #
vertex $-1 $363 $483 #
point $-1 59.359008322632207 40.754846036605322 9.8781773001392921 #
vertex $-1 $367 $484 #
point $-1 67.678794222329657 40.754846036605322 9.8781773001392921 #
coedge $-1 $374 $373 $381 $457 reversed $172 $-1 #
edge $-1 $377 43.492698489803139 $460 71.225318155461281 $374 $485 forward 7 unknown #
straight-curve $-1 43.492698489803139 -46.26917698468425 40.55145375891567 0 0 -1 I I #
point $-1 43.492698489803139 -46.26917698468425 15.753011824126025 #
straight-curve $-1 28.679504161316103 -46.26917698468425 7.7354078800165524 1 0 0 I I #
edge $-1 $460 -15.753011824126025 $382 -7.7354078800165524 $381 $486 forward 7 unknown #
point $-1 71.225318155461281 -46.26917698468425 7.7354078800165524 #
point $-1 43.492698489803139 -46.26917698468425 7.7354078800165524 #
vertex $-1 $386 $487 #
straight-curve $-1 71.225318155461281 0 15.753011824126025 0 1 0 I I #
vertex $-1 $389 $488 #
point $-1 51.03922242293477 -40.754846036605322 9.8781773001392992 #
vertex $-1 $393 $489 #
point $-1 59.359008322632207 -40.754846036605322 9.8781773001392992 #
vertex $-1 $397 $490 #
point $-1 67.678794222329657 -40.754846036605322 9.8781773001392992 #
straight-curve $-1 -71.225318155461281 46.26917698468425 0 0 0 -1 I I #
point $-1 -71.225318155461281 -46.26917698468425 -15.753011824126025 #
straight-curve $-1 -71.225318155461281 0 -15.753011824126025 0 1 0 I I #
point $-1 -71.225318155461281 46.26917698468425 -15.753011824126025 #
straight-curve $-1 -71.225318155461281 0 -5.4710096038610185 0 -1 0 I I #
point $-1 -71.225318155461281 -46.26917698468425 -5.4710096038610185 #
point $-1 -71.225318155461281 46.26917698468425 -5.4710096038610185 #
straight-curve $-1 -71.225318155461281 46.26917698468425 0 0 0 -1 I I #
straight-curve $-1 -71.225318155461281 -46.26917698468425 0 0 0 -1 I I #
edge $-1 $444 -15.753011824126025 $438 -7.7354078800165951 $435 $491 forward 7 unknown #
straight-curve $-1 28.679504161316103 46.26917698468425 7.735407880016588 -1 0 0 I I #
point $-1 71.225318155461281 46.26917698468425 7.7354078800165951 #
straight-curve $-1 71.225318155461281 0 15.753011824126025 0 1 0 I I #
point $-1 71.225318155461281 46.26917698468425 15.753011824126025 #
point $-1 49.03922242293477 39.040511419531335 8.8481011763980426 #
point $-1 57.359008322632207 39.040511419531335 8.8481011763980426 #
point $-1 65.678794222329657 39.040511419531335 8.8481011763980426 #
straight-curve $-1 0 -46.26917698468425 15.753011824126025 1 0 0 I I #
straight-curve $-1 71.225318155461281 -46.26917698468425 0 0 0 -1 I I #
point $-1 71.225318155461281 -46.26917698468425 15.753011824126025 #
point $-1 49.03922242293477 -39.040511419531335 8.8481011763980497 #
point $-1 57.359008322632207 -39.040511419531335 8.8481011763980497 #
point $-1 65.678794222329657 -39.040511419531335 8.8481011763980497 #
straight-curve $-1 71.225318155461281 46.26917698468425 0 0 0 -1 I I #
End-of-ACIS-data 