500 0 8 0           
7 Unknown 11 ACIS 5.0 NT 24 Thu Mar 25 16:07:10 1999 
-1 9.9999999999999995e-007 1e-010 
body $-1 $8 $-1 $9 #
body $-1 $10 $-1 $11 #
body $-1 $12 $-1 $13 #
body $-1 $14 $-1 $15 #
body $-1 $16 $-1 $17 #
body $-1 $18 $-1 $19 #
body $-1 $20 $-1 $21 #
body $-1 $22 $-1 $23 #
lump $-1 $-1 $24 $0 #
transform $-1 1 0 0 0 1 0 0 0 1 70.866420484023564 48.401633263599052 11.903135507209507 1 rotate no_reflect no_shear #
lump $-1 $-1 $25 $1 #
transform $-1 1 0 0 0 1 0 0 0 1 70.866420484023564 48.401633263599052 11.903135507209507 1 rotate no_reflect no_shear #
lump $-1 $-1 $26 $2 #
transform $-1 1 0 0 0 1 0 0 0 1 70.866420484023564 48.401633263599052 11.903135507209507 1 rotate no_reflect no_shear #
lump $-1 $-1 $27 $3 #
transform $-1 1 0 0 0 1 0 0 0 1 70.866420484023564 48.401633263599052 11.903135507209507 1 rotate no_reflect no_shear #
lump $-1 $-1 $28 $4 #
transform $-1 1 0 0 0 1 0 0 0 1 70.866420484023564 48.401633263599052 11.903135507209507 1 rotate no_reflect no_shear #
lump $-1 $-1 $29 $5 #
transform $-1 1 0 0 0 1 0 0 0 1 70.866420484023564 48.401633263599052 11.903135507209507 1 rotate no_reflect no_shear #
lump $-1 $-1 $30 $6 #
transform $-1 1 0 0 0 1 0 0 0 1 70.866420484023564 48.401633263599052 11.903135507209507 1 rotate no_reflect no_shear #
lump $-1 $-1 $31 $7 #
transform $-1 1 0 0 0 1 0 0 0 1 70.866420484023564 48.401633263599052 11.903135507209507 1 rotate no_reflect no_shear #
shell $-1 $-1 $-1 $32 $-1 $8 #
shell $-1 $-1 $-1 $33 $-1 $10 #
shell $-1 $-1 $-1 $34 $-1 $12 #
shell $-1 $-1 $-1 $35 $-1 $14 #
shell $-1 $-1 $-1 $36 $-1 $16 #
shell $-1 $-1 $-1 $37 $-1 $18 #
shell $-1 $-1 $-1 $38 $-1 $20 #
shell $-1 $-1 $-1 $39 $-1 $22 #
face $-1 $40 $41 $24 $-1 $42 forward single #
face $-1 $43 $44 $25 $-1 $45 reversed single #
face $-1 $46 $47 $26 $-1 $48 reversed single #
face $-1 $49 $50 $27 $-1 $51 forward single #
face $-1 $52 $53 $28 $-1 $54 forward single #
face $-1 $55 $56 $29 $-1 $57 reversed single #
face $-1 $58 $59 $30 $-1 $60 forward single #
face $-1 $61 $62 $31 $-1 $63 forward single #
face $-1 $64 $65 $24 $-1 $66 reversed single #
loop $-1 $-1 $67 $32 #
plane-surface $-1 0 0 11.903135507209507 0 0 1 1 0 0 forward_v I I I I #
face $-1 $68 $69 $25 $-1 $70 reversed single #
loop $-1 $-1 $71 $33 #
plane-surface $-1 -60.932389875186182 -44.868835536582139 0 -1 0 0 0 0 1 forward_v I I I I #
face $-1 $72 $73 $26 $-1 $74 reversed single #
loop $-1 $-1 $75 $34 #
plane-surface $-1 -51.182930159949194 -48.401633263599066 7.1965223256310082 0 -0.52991927123019833 0.84804809178421925 1 0 0 forward_v I I I I #
face $-1 $76 $77 $27 $-1 $78 forward single #
loop $-1 $79 $80 $35 #
cone-surface $-1 -55.3612700379079 -43.699936787556574 8.0525259514252152 0 0.52991927123019833 -0.84804809178421925 2 0 0 1 I I 0 1 2 forward I I I I #
face $-1 $81 $82 $28 $-1 $83 forward single #
loop $-1 $84 $85 $36 #
cone-surface $-1 -47.004590281990481 -43.699936787556574 8.0525259514252152 0 0.52991927123019833 -0.84804809178421925 2 0 0 1 I I 0 1 2 forward I I I I #
face $-1 $86 $87 $29 $-1 $88 reversed single #
loop $-1 $-1 $89 $37 #
plane-surface $-1 54.379401721812634 120.03302431256799 156.0961294128615 1 0 0 0 -0.85716730853699208 -0.51503806187062418 forward_v I I I I #
face $-1 $90 $91 $30 $-1 $92 forward single #
loop $-1 $93 $94 $38 #
cone-surface $-1 59.089978511015744 43.832504276883213 5.3937627741555234 0 -0.85716730853699208 -0.51503806187062418 1.5 0 0 1 I I 0 1 1.5 forward I I I I #
face $-1 $95 $96 $31 $-1 $97 forward single #
loop $-1 $98 $99 $39 #
cone-surface $-1 66.155843694820419 43.832504276883213 5.3937627741555234 0 -0.85716730853699208 -0.51503806187062418 1.5 0 0 1 I I 0 1 1.5 forward I I I I #
face $-1 $100 $101 $24 $-1 $102 reversed single #
loop $-1 $-1 $103 $40 #
plane-surface $-1 0 0 -11.903135507209507 0 0 1 1 0 0 forward_v I I I I #
coedge $-1 $104 $105 $106 $107 forward $41 $-1 #
face $-1 $108 $109 $25 $-1 $110 forward single #
loop $-1 $-1 $111 $43 #
plane-surface $-1 -65.899405179604869 -41.336037809565227 0 0 -1 0 0 0 -1 forward_v I I I I #
coedge $-1 $112 $113 $114 $115 reversed $44 $-1 #
face $-1 $116 $117 $26 $-1 $118 forward single #
loop $-1 $-1 $119 $46 #
plane-surface $-1 -41.433470444712199 -123.5085970587722 127.3927876517396 -1 0 0 0 -0.52991927123019833 0.84804809178421925 forward_v I I I I #
coedge $-1 $120 $121 $122 $123 reversed $47 $-1 #
face $-1 $-1 $124 $27 $-1 $125 forward single #
loop $-1 $126 $127 $49 #
cone-surface $-1 -55.3612700379079 -42.23439876580052 5.7071748946459575 0 0.52991927123019833 -0.84804809178421925 1 0 0 1 I I -0.70710678118654746 0.70710678118654746 1 forward I I I I #
loop $-1 $-1 $128 $35 #
coedge $-1 $80 $80 $129 $130 reversed $50 $-1 #
face $-1 $-1 $131 $28 $-1 $132 forward single #
loop $-1 $133 $134 $52 #
cone-surface $-1 -47.004590281990481 -42.23439876580052 5.7071748946459575 0 0.52991927123019833 -0.84804809178421925 1 0 0 1 I I -0.70710678118654746 0.70710678118654746 1 forward I I I I #
loop $-1 $-1 $135 $36 #
coedge $-1 $85 $85 $136 $137 reversed $53 $-1 #
face $-1 $138 $139 $29 $-1 $140 forward single #
loop $-1 $-1 $141 $55 #
plane-surface $-1 62.622911102918096 -1.4557335113144916 83.098321697261113 0 0.85716730853699208 0.51503806187062418 1 0 0 forward_v I I I I #
coedge $-1 $142 $143 $144 $145 reversed $56 $-1 #
face $-1 $-1 $146 $30 $-1 $147 forward single #
loop $-1 $148 $149 $58 #
cone-surface $-1 59.089978511015744 42.159992110278409 4.3888161130265271 0 -0.85716730853699208 -0.51503806187062418 0.75 0 0 1 I I -0.70710678118654757 0.70710678118654757 0.75 forward I I I I #
loop $-1 $-1 $150 $38 #
coedge $-1 $94 $94 $151 $152 reversed $59 $-1 #
face $-1 $-1 $153 $31 $-1 $154 forward single #
loop $-1 $155 $156 $61 #
cone-surface $-1 66.155843694820419 42.159992110278409 4.3888161130265271 0 -0.85716730853699208 -0.51503806187062418 0.75 0 0 1 I I -0.70710678118654757 0.70710678118654757 0.75 forward I I I I #
loop $-1 $-1 $157 $39 #
coedge $-1 $99 $99 $158 $159 reversed $62 $-1 #
face $-1 $160 $161 $24 $-1 $162 reversed single #
loop $-1 $-1 $163 $64 #
plane-surface $-1 0 -48.401633263599052 0 0 1 0 0 0 1 forward_v I I I I #
coedge $-1 $164 $165 $166 $167 forward $65 $-1 #
coedge $-1 $168 $67 $169 $170 forward $41 $-1 #
coedge $-1 $67 $168 $171 $172 forward $41 $-1 #
coedge $-1 $173 $174 $67 $107 reversed $175 $-1 #
edge $-1 $176 -48.401633263599052 $177 48.401633263599052 $106 $178 forward 7 unknown #
face $-1 $179 $180 $25 $-1 $181 reversed single #
loop $-1 $-1 $182 $68 #
plane-surface $-1 0 0 11.903135507209507 0 0 1 1 0 0 forward_v I I I I #
coedge $-1 $183 $184 $185 $186 forward $69 $-1 #
coedge $-1 $185 $71 $187 $188 reversed $44 $-1 #
coedge $-1 $71 $185 $182 $189 reversed $44 $-1 #
coedge $-1 $190 $191 $71 $115 forward $192 $-1 #
edge $-1 $193 -11.903135507209507 $194 11.903135507209507 $114 $195 forward 7 unknown #
face $-1 $196 $197 $26 $-1 $198 forward single #
loop $-1 $-1 $199 $72 #
plane-surface $-1 0 0 11.903135507209507 0 0 1 1 0 0 forward_v I I I I #
coedge $-1 $200 $201 $202 $203 reversed $73 $-1 #
coedge $-1 $204 $75 $205 $206 reversed $47 $-1 #
coedge $-1 $75 $204 $200 $207 forward $47 $-1 #
coedge $-1 $202 $208 $75 $123 forward $209 $-1 #
edge $-1 $210 -35.340924795211585 $211 -15.842005364737602 $122 $212 forward 7 unknown #
loop $-1 $-1 $129 $76 #
plane-surface $-1 -51.182930159949194 -48.401633263599066 7.1965223256310082 0 -0.52991927123019833 0.84804809178421925 1 0 0 forward_v I I I I #
loop $-1 $-1 $213 $49 #
coedge $-1 $127 $127 $128 $214 reversed $77 $-1 #
coedge $-1 $128 $128 $127 $214 forward $79 $-1 #
coedge $-1 $129 $129 $80 $130 forward $124 $-1 #
edge $-1 $215 -2.817679702666988e-016 $215 6.2831853071796004 $129 $216 forward 7 unknown #
loop $-1 $-1 $136 $81 #
plane-surface $-1 -51.182930159949194 -48.401633263599066 7.1965223256310082 0 -0.52991927123019833 0.84804809178421925 1 0 0 forward_v I I I I #
loop $-1 $-1 $217 $52 #
coedge $-1 $134 $134 $135 $218 reversed $82 $-1 #
coedge $-1 $135 $135 $134 $218 forward $84 $-1 #
coedge $-1 $136 $136 $85 $137 forward $131 $-1 #
edge $-1 $219 -2.817679702666988e-016 $219 6.2831853071796004 $136 $220 forward 7 unknown #
face $-1 $221 $222 $29 $-1 $223 reversed single #
loop $-1 $-1 $144 $86 #
plane-surface $-1 0 0 11.903135507209507 0 0 1 1 0 0 forward_v I I I I #
coedge $-1 $224 $225 $226 $227 reversed $87 $-1 #
coedge $-1 $143 $89 $228 $229 reversed $56 $-1 #
coedge $-1 $89 $142 $224 $230 reversed $56 $-1 #
coedge $-1 $226 $231 $89 $145 forward $139 $-1 #
edge $-1 $232 11.614878892684942 $233 18.693863495712442 $144 $234 forward 7 unknown #
loop $-1 $-1 $151 $90 #
plane-surface $-1 62.622911102918096 -1.4557335113144916 83.098321697261113 0 0.85716730853699208 0.51503806187062418 1 0 0 forward_v I I I I #
loop $-1 $-1 $235 $58 #
coedge $-1 $149 $149 $150 $236 reversed $91 $-1 #
coedge $-1 $150 $150 $149 $236 forward $93 $-1 #
coedge $-1 $151 $151 $94 $152 forward $146 $-1 #
edge $-1 $237 9.9761831218881699e-016 $237 6.2831853071796013 $151 $238 forward 7 unknown #
loop $-1 $-1 $158 $95 #
plane-surface $-1 62.622911102918096 -1.4557335113144916 83.098321697261113 0 0.85716730853699208 0.51503806187062418 1 0 0 forward_v I I I I #
loop $-1 $-1 $239 $61 #
coedge $-1 $156 $156 $157 $240 reversed $96 $-1 #
coedge $-1 $157 $157 $156 $240 forward $98 $-1 #
coedge $-1 $158 $158 $99 $159 forward $153 $-1 #
edge $-1 $241 9.9761831218881699e-016 $241 6.2831853071796013 $158 $242 forward 7 unknown #
face $-1 $243 $244 $24 $-1 $245 reversed single #
loop $-1 $-1 $246 $100 #
plane-surface $-1 -70.866420484023564 0 0 1 0 0 0 0 -1 forward_v I I I I #
coedge $-1 $247 $171 $248 $249 forward $101 $-1 #
coedge $-1 $250 $103 $247 $251 forward $65 $-1 #
coedge $-1 $103 $250 $252 $253 forward $65 $-1 #
coedge $-1 $174 $173 $103 $167 reversed $175 $-1 #
edge $-1 $254 -48.401633263599052 $255 48.401633263599052 $166 $256 forward 7 unknown #
coedge $-1 $105 $104 $257 $258 forward $41 $-1 #
coedge $-1 $259 $260 $104 $170 reversed $244 $-1 #
edge $-1 $177 -70.866420484023564 $261 70.866420484023564 $169 $262 forward 7 unknown #
coedge $-1 $163 $263 $105 $172 reversed $101 $-1 #
edge $-1 $264 -70.866420484023564 $176 70.866420484023564 $171 $265 forward 7 unknown #
coedge $-1 $166 $106 $263 $266 forward $175 $-1 #
coedge $-1 $106 $166 $259 $267 reversed $175 $-1 #
loop $-1 $-1 $173 $243 #
vertex $-1 $107 $268 #
vertex $-1 $107 $269 #
straight-curve $-1 70.866420484023564 0 11.903135507209507 0 1 0 I I #
face $-1 $270 $271 $25 $-1 $272 reversed single #
loop $-1 $-1 $273 $108 #
plane-surface $-1 -70.866420484023564 0 0 1 0 0 0 0 -1 forward_v I I I I #
coedge $-1 $274 $275 $113 $189 forward $109 $-1 #
coedge $-1 $276 $111 $277 $278 reversed $69 $-1 #
coedge $-1 $111 $276 $274 $279 reversed $69 $-1 #
coedge $-1 $113 $112 $111 $186 reversed $44 $-1 #
edge $-1 $280 -11.903135507209507 $281 11.903135507209507 $185 $282 forward 7 unknown #
coedge $-1 $283 $277 $112 $188 forward $271 $-1 #
edge $-1 $281 18.901620041274157 $193 25.967215495307983 $187 $284 forward 7 unknown #
edge $-1 $194 -25.967215495307983 $280 -18.901620041274157 $182 $285 forward 7 unknown #
coedge $-1 $286 $114 $275 $287 reversed $192 $-1 #
coedge $-1 $114 $286 $283 $288 reversed $192 $-1 #
loop $-1 $-1 $114 $270 #
vertex $-1 $288 $289 #
vertex $-1 $115 $290 #
straight-curve $-1 -60.932389875186182 -48.401633263599052 0 0 0 1 I I #
face $-1 $-1 $209 $26 $-1 $291 reversed single #
loop $-1 $-1 $205 $116 #
plane-surface $-1 -60.932389875186182 -44.868835536582139 0 -1 0 0 0 0 1 forward_v I I I I #
coedge $-1 $292 $293 $201 $294 forward $117 $-1 #
coedge $-1 $201 $119 $121 $207 reversed $73 $-1 #
coedge $-1 $119 $200 $199 $294 reversed $73 $-1 #
coedge $-1 $295 $122 $119 $203 forward $209 $-1 #
edge $-1 $211 -56.499871500238783 $296 -51.793258318660293 $202 $297 forward 7 unknown #
coedge $-1 $121 $120 $292 $298 reversed $47 $-1 #
coedge $-1 $299 $300 $120 $206 forward $197 $-1 #
edge $-1 $301 -9.2905518319823202 $210 -0.40879674756696766 $205 $302 forward 7 unknown #
edge $-1 $303 -8.8817550844153672 $211 -1.675811683274863e-014 $200 $304 forward 7 unknown #
coedge $-1 $122 $295 $299 $305 forward $209 $-1 #
loop $-1 $-1 $202 $196 #
vertex $-1 $206 $306 #
vertex $-1 $123 $307 #
straight-curve $-1 -25.591465079974597 -48.401633263599052 7.1965223256310198 1 0 0 I I #
coedge $-1 $213 $213 $-1 $308 reversed $126 $-1 #
edge $-1 $309 0 $309 6.2831853071796004 $127 $310 forward 7 unknown #
vertex $-1 $130 $311 #
ellipse-curve $-1 -55.3612700379079 -44.635555538082436 9.5498289164202657 0 -0.52991927123019833 0.84804809178421925 2 0 0 1 I I #
coedge $-1 $217 $217 $-1 $312 reversed $133 $-1 #
edge $-1 $313 0 $313 6.2831853071796004 $134 $314 forward 7 unknown #
vertex $-1 $137 $315 #
ellipse-curve $-1 -47.004590281990481 -44.635555538082436 9.5498289164202657 0 -0.52991927123019833 0.84804809178421925 2 0 0 1 I I #
face $-1 $-1 $316 $29 $-1 $317 reversed single #
loop $-1 $-1 $318 $138 #
plane-surface $-1 70.866420484023564 0 0 -1 0 0 0 0 1 forward_v I I I I #
coedge $-1 $319 $141 $143 $230 forward $87 $-1 #
coedge $-1 $141 $319 $318 $320 reversed $87 $-1 #
coedge $-1 $321 $144 $141 $227 forward $139 $-1 #
edge $-1 $233 23.067946170353586 $322 39.554964932564516 $226 $323 forward 7 unknown #
coedge $-1 $324 $325 $142 $229 forward $316 $-1 #
edge $-1 $326 -77.926338435877071 $232 -66.144929199221238 $228 $327 forward 7 unknown #
edge $-1 $233 83.058681171085638 $326 96.803266527198048 $143 $328 forward 7 unknown #
coedge $-1 $144 $321 $324 $329 forward $139 $-1 #
vertex $-1 $229 $330 #
vertex $-1 $145 $331 #
straight-curve $-1 54.379401721812634 60.016512156283994 11.903135507209512 0 -1 0 I I #
coedge $-1 $235 $235 $-1 $332 reversed $148 $-1 #
edge $-1 $333 0 $333 6.2831853071796004 $149 $334 forward 7 unknown #
vertex $-1 $152 $335 #
ellipse-curve $-1 59.089978511015744 44.862140962085313 6.0124308888815747 0 0.85716730853699208 0.51503806187062418 1.5 0 0 1 I I #
coedge $-1 $239 $239 $-1 $336 reversed $155 $-1 #
edge $-1 $337 0 $337 6.2831853071796004 $156 $338 forward 7 unknown #
vertex $-1 $159 $339 #
ellipse-curve $-1 66.155843694820419 44.862140962085313 6.0124308888815747 0 0.85716730853699208 0.51503806187062418 1.5 0 0 1 I I #
face $-1 $-1 $175 $24 $-1 $340 reversed single #
loop $-1 $-1 $259 $160 #
plane-surface $-1 0 48.401633263599052 0 0 -1 0 0 0 -1 forward_v I I I I #
coedge $-1 $341 $257 $260 $342 forward $161 $-1 #
coedge $-1 $263 $163 $164 $251 reversed $101 $-1 #
coedge $-1 $257 $341 $163 $249 reversed $161 $-1 #
edge $-1 $264 -11.903135507209507 $343 11.903135507209507 $248 $344 forward 7 unknown #
coedge $-1 $165 $164 $341 $345 forward $65 $-1 #
edge $-1 $255 -70.866420484023564 $343 70.866420484023564 $247 $346 forward 7 unknown #
coedge $-1 $260 $259 $165 $253 reversed $244 $-1 #
edge $-1 $347 -70.866420484023564 $254 70.866420484023564 $252 $348 forward 7 unknown #
vertex $-1 $167 $349 #
vertex $-1 $266 $350 #
straight-curve $-1 70.866420484023564 0 -11.903135507209507 0 -1 0 I I #
coedge $-1 $246 $248 $168 $258 reversed $161 $-1 #
edge $-1 $261 -48.401633263599052 $264 48.401633263599052 $257 $351 forward 7 unknown #
coedge $-1 $252 $169 $174 $267 forward $244 $-1 #
coedge $-1 $169 $252 $246 $342 reversed $244 $-1 #
vertex $-1 $170 $352 #
straight-curve $-1 0 48.401633263599052 11.903135507209507 -1 0 0 I I #
coedge $-1 $171 $247 $173 $266 reversed $101 $-1 #
vertex $-1 $258 $353 #
straight-curve $-1 0 -48.401633263599052 11.903135507209507 1 0 0 I I #
edge $-1 $176 -11.903135507209507 $255 11.903135507209507 $173 $354 forward 7 unknown #
edge $-1 $177 -11.903135507209507 $254 11.903135507209507 $174 $355 forward 7 unknown #
point $-1 70.866420484023564 -48.401633263599052 11.903135507209507 #
point $-1 70.866420484023564 48.401633263599052 11.903135507209507 #
face $-1 $-1 $192 $25 $-1 $356 reversed single #
loop $-1 $-1 $187 $179 #
plane-surface $-1 0 0 -11.903135507209507 0 0 1 1 0 0 forward_v I I I I #
coedge $-1 $357 $358 $276 $359 forward $180 $-1 #
coedge $-1 $360 $182 $184 $279 forward $109 $-1 #
coedge $-1 $182 $360 $190 $287 forward $109 $-1 #
coedge $-1 $184 $183 $273 $359 reversed $69 $-1 #
coedge $-1 $187 $361 $183 $278 forward $271 $-1 #
edge $-1 $362 -37.916717894221129 $281 -27.982687285383747 $277 $363 forward 7 unknown #
edge $-1 $280 27.982687285383747 $364 37.916717894221129 $274 $365 forward 7 unknown #
vertex $-1 $279 $366 #
vertex $-1 $278 $367 #
straight-curve $-1 -60.932389875186182 -41.336037809565227 0 0 0 -1 I I #
coedge $-1 $361 $187 $191 $288 forward $271 $-1 #
straight-curve $-1 -60.932389875186182 -22.43441776829107 -11.903135507209507 0 -1 0 I I #
straight-curve $-1 -60.932389875186182 -22.43441776829107 11.903135507209507 0 1 0 I I #
coedge $-1 $191 $190 $368 $369 forward $192 $-1 #
edge $-1 $370 -70.866420484023564 $194 -60.932389875186182 $190 $371 forward 7 unknown #
edge $-1 $193 60.932389875186182 $372 70.866420484023564 $191 $373 forward 7 unknown #
point $-1 -60.932389875186182 -48.401633263599052 -11.903135507209507 #
point $-1 -60.932389875186182 -48.401633263599052 11.903135507209507 #
plane-surface $-1 0 -48.401633263599052 0 0 1 0 0 0 1 forward_v I I I I #
coedge $-1 $374 $199 $204 $298 forward $117 $-1 #
coedge $-1 $199 $374 $295 $375 forward $117 $-1 #
edge $-1 $296 13.352665265787046 $303 20.884820716820272 $199 $376 forward 7 unknown #
coedge $-1 $208 $202 $293 $375 reversed $209 $-1 #
vertex $-1 $294 $377 #
straight-curve $-1 -41.433470444712199 -48.401633263599052 63.696393825869798 0 0 1 I I #
edge $-1 $303 15.842005364737602 $301 35.340924795211592 $292 $378 forward 7 unknown #
coedge $-1 $300 $205 $208 $305 reversed $197 $-1 #
coedge $-1 $205 $299 $374 $379 reversed $197 $-1 #
vertex $-1 $379 $380 #
straight-curve $-1 -60.932389875186182 -48.748312565300814 6.9798930510790544 0 -0.84804809178421925 -0.52991927123019833 I I #
vertex $-1 $298 $381 #
straight-curve $-1 -41.433470444712199 -48.401633263599066 7.1965223256310082 0 -0.84804809178421925 -0.52991927123019833 I I #
edge $-1 $382 -11.903135507209507 $210 -7.1965223256310171 $208 $383 forward 7 unknown #
point $-1 -60.932389875186182 -48.401633263599052 7.1965223256310171 #
point $-1 -41.433470444712199 -48.401633263599052 7.1965223256310171 #
edge $-1 $384 1 $384 0 $213 $-1 forward 7 unknown #
vertex $-1 $214 $385 #
ellipse-curve $-1 -55.3612700379079 -42.764318037030719 6.5552229864301772 0 -0.52991927123019833 0.84804809178421925 2 0 0 1 I I #
point $-1 -53.3612700379079 -44.635555538082428 9.5498289164202532 #
edge $-1 $386 1 $386 0 $217 $-1 forward 7 unknown #
vertex $-1 $218 $387 #
ellipse-curve $-1 -47.004590281990481 -42.764318037030719 6.5552229864301772 0 -0.52991927123019833 0.84804809178421925 2 0 0 1 I I #
point $-1 -45.004590281990481 -44.635555538082428 9.5498289164202532 #
loop $-1 $-1 $228 $221 #
plane-surface $-1 0 48.401633263599052 0 0 -1 0 0 0 -1 forward_v I I I I #
coedge $-1 $388 $389 $225 $320 forward $222 $-1 #
coedge $-1 $225 $224 $325 $390 reversed $87 $-1 #
edge $-1 $322 47.069219711360631 $391 60.813805067473041 $318 $392 forward 7 unknown #
coedge $-1 $231 $226 $389 $393 forward $139 $-1 #
vertex $-1 $393 $394 #
straight-curve $-1 31.311455551459048 41.322648660571545 11.903135507209512 1 0 0 I I #
coedge $-1 $395 $228 $231 $329 reversed $316 $-1 #
coedge $-1 $228 $395 $319 $390 forward $316 $-1 #
vertex $-1 $229 $396 #
straight-curve $-1 54.379401721812634 48.401633263599052 78.04806470643075 0 0 1 I I #
straight-curve $-1 54.379401721812634 -1.4557335113144916 83.098321697261113 0 0.51503806187062418 -0.85716730853699208 I I #
edge $-1 $397 -70.866420484023564 $232 -54.379401721812634 $324 $398 forward 7 unknown #
point $-1 54.379401721812634 48.401633263599052 11.903135507209507 #
point $-1 54.379401721812634 41.322648660571552 11.903135507209512 #
edge $-1 $399 1 $399 0 $235 $-1 forward 7 unknown #
vertex $-1 $236 $400 #
ellipse-curve $-1 59.089978511015744 42.802867591681157 4.7750946594294952 0 0.85716730853699208 0.51503806187062418 1.5 0 0 1 I I #
point $-1 60.589978511015744 44.862140962085277 6.0124308888815516 #
edge $-1 $401 1 $401 0 $239 $-1 forward 7 unknown #
vertex $-1 $240 $402 #
ellipse-curve $-1 66.155843694820419 42.802867591681157 4.7750946594294952 0 0.85716730853699208 0.51503806187062418 1.5 0 0 1 I I #
point $-1 67.655843694820419 44.862140962085277 6.0124308888815516 #
plane-surface $-1 70.866420484023564 0 0 -1 0 0 0 0 1 forward_v I I I I #
coedge $-1 $248 $246 $250 $345 reversed $161 $-1 #
edge $-1 $261 -11.903135507209507 $347 11.903135507209507 $260 $403 forward 7 unknown #
vertex $-1 $345 $404 #
straight-curve $-1 -70.866420484023564 -48.401633263599052 0 0 0 -1 I I #
edge $-1 $343 -48.401633263599052 $347 48.401633263599052 $341 $405 forward 7 unknown #
straight-curve $-1 0 -48.401633263599052 -11.903135507209507 -1 0 0 I I #
vertex $-1 $253 $406 #
straight-curve $-1 0 48.401633263599052 -11.903135507209507 1 0 0 I I #
point $-1 70.866420484023564 48.401633263599052 -11.903135507209507 #
point $-1 70.866420484023564 -48.401633263599052 -11.903135507209507 #
straight-curve $-1 -70.866420484023564 0 11.903135507209507 0 -1 0 I I #
point $-1 -70.866420484023564 48.401633263599052 11.903135507209507 #
point $-1 -70.866420484023564 -48.401633263599052 11.903135507209507 #
straight-curve $-1 70.866420484023564 -48.401633263599052 0 0 0 -1 I I #
straight-curve $-1 70.866420484023564 48.401633263599052 0 0 0 -1 I I #
plane-surface $-1 0 -48.401633263599052 0 0 1 0 0 0 1 forward_v I I I I #
coedge $-1 $368 $273 $361 $407 reversed $180 $-1 #
coedge $-1 $273 $368 $360 $408 reversed $180 $-1 #
edge $-1 $364 -11.903135507209507 $362 11.903135507209507 $273 $409 forward 7 unknown #
coedge $-1 $275 $274 $358 $408 forward $109 $-1 #
coedge $-1 $277 $283 $357 $407 forward $271 $-1 #
vertex $-1 $278 $410 #
straight-curve $-1 -32.949702589802435 -41.336037809565227 -11.903135507209507 1 0 0 I I #
vertex $-1 $408 $411 #
straight-curve $-1 -32.949702589802435 -41.336037809565227 11.903135507209507 -1 0 0 I I #
point $-1 -60.932389875186182 -41.336037809565227 11.903135507209507 #
point $-1 -60.932389875186182 -41.336037809565227 -11.903135507209507 #
coedge $-1 $358 $357 $286 $369 reversed $180 $-1 #
edge $-1 $370 -11.903135507209507 $372 11.903135507209507 $368 $412 forward 7 unknown #
vertex $-1 $408 $413 #
straight-curve $-1 0 -48.401633263599052 11.903135507209507 1 0 0 I I #
vertex $-1 $407 $414 #
straight-curve $-1 0 -48.401633263599052 -11.903135507209507 -1 0 0 I I #
coedge $-1 $293 $292 $300 $379 forward $117 $-1 #
edge $-1 $382 -60.932389875186182 $296 -41.433470444712199 $295 $415 forward 7 unknown #
straight-curve $-1 -41.433470444712199 -61.754298529386098 11.903135507209505 0 1 0 I I #
point $-1 -41.433470444712199 -48.401633263599052 11.903135507209507 #
straight-curve $-1 -25.591465079974597 -40.869477812565826 11.903135507209505 -1 0 0 I I #
edge $-1 $301 -20.884820716820272 $382 -13.352665265787046 $374 $416 forward 7 unknown #
point $-1 -60.932389875186189 -40.869477812565826 11.903135507209507 #
point $-1 -41.433470444712199 -40.869477812565826 11.903135507209507 #
vertex $-1 $375 $417 #
straight-curve $-1 -60.932389875186182 -48.401633263599052 0 0 0 -1 I I #
vertex $-1 $308 $418 #
point $-1 -53.3612700379079 -42.764318037030719 6.5552229864301772 #
vertex $-1 $312 $419 #
point $-1 -45.004590281990481 -42.764318037030719 6.5552229864301772 #
coedge $-1 $389 $318 $395 $420 reversed $222 $-1 #
coedge $-1 $318 $388 $321 $393 reversed $222 $-1 #
edge $-1 $391 -39.554964932564516 $326 -23.067946170353586 $325 $421 forward 7 unknown #
vertex $-1 $320 $422 #
straight-curve $-1 70.866420484023564 17.08020896666979 52.249331882132836 0 0.51503806187062429 -0.85716730853699219 I I #
edge $-1 $322 41.322648660571552 $397 48.401633263599052 $389 $423 forward 7 unknown #
point $-1 70.866420484023564 41.322648660571552 11.903135507209512 #
coedge $-1 $325 $324 $388 $420 forward $316 $-1 #
point $-1 54.379401721812634 48.401633263599052 0.12172627055367968 #
vertex $-1 $393 $424 #
straight-curve $-1 0 48.401633263599052 11.903135507209507 -1 0 0 I I #
vertex $-1 $332 $425 #
point $-1 60.589978511015744 42.802867591681157 4.7750946594294952 #
vertex $-1 $336 $426 #
point $-1 67.655843694820419 42.802867591681157 4.7750946594294952 #
straight-curve $-1 -70.866420484023564 48.401633263599052 0 0 0 -1 I I #
point $-1 -70.866420484023564 -48.401633263599052 -11.903135507209507 #
straight-curve $-1 -70.866420484023564 0 -11.903135507209507 0 1 0 I I #
point $-1 -70.866420484023564 48.401633263599052 -11.903135507209507 #
edge $-1 $372 -48.401633263599052 $362 -41.336037809565227 $357 $427 forward 7 unknown #
edge $-1 $364 41.336037809565227 $370 48.401633263599052 $358 $428 forward 7 unknown #
straight-curve $-1 -70.866420484023564 -41.336037809565227 0 0 0 -1 I I #
point $-1 -70.866420484023564 -41.336037809565227 -11.903135507209507 #
point $-1 -70.866420484023564 -41.336037809565227 11.903135507209507 #
straight-curve $-1 -70.866420484023564 -48.401633263599052 0 0 0 -1 I I #
point $-1 -70.866420484023564 -48.401633263599052 11.903135507209507 #
point $-1 -70.866420484023564 -48.401633263599052 -11.903135507209507 #
straight-curve $-1 0 -48.401633263599052 11.903135507209507 1 0 0 I I #
straight-curve $-1 -60.932389875186189 -61.754298529386098 11.903135507209505 0 -1 0 I I #
point $-1 -60.932389875186182 -48.401633263599052 11.903135507209507 #
point $-1 -55.3612700379079 -41.704479494570322 4.8591268028617378 #
point $-1 -47.004590281990481 -41.704479494570322 4.8591268028617378 #
edge $-1 $397 -11.903135507209507 $391 -0.12172627055367968 $388 $429 forward 7 unknown #
straight-curve $-1 31.311455551459048 48.401633263599052 0.12172627055367968 -1 0 0 I I #
point $-1 70.866420484023564 48.401633263599052 0.12172627055367968 #
straight-curve $-1 70.866420484023564 0 11.903135507209507 0 1 0 I I #
point $-1 70.866420484023564 48.401633263599052 11.903135507209507 #
point $-1 59.089978511015744 41.517116628875662 4.002537566623559 #
point $-1 66.155843694820419 41.517116628875662 4.002537566623559 #
straight-curve $-1 -70.866420484023564 0 -11.903135507209507 0 1 0 I I #
straight-curve $-1 -70.866420484023564 0 11.903135507209507 0 -1 0 I I #
straight-curve $-1 70.866420484023564 48.401633263599052 0 0 0 -1 I I #
End-of-ACIS-data 