500 0 8 0           
7 Unknown 11 ACIS 5.0 NT 24 Thu Mar 25 22:18:21 1999 
-1 9.9999999999999995e-007 1e-010 
body $-1 $8 $-1 $9 #
body $-1 $10 $-1 $11 #
body $-1 $12 $-1 $13 #
body $-1 $14 $-1 $15 #
body $-1 $16 $-1 $17 #
body $-1 $18 $-1 $19 #
body $-1 $20 $-1 $21 #
body $-1 $22 $-1 $23 #
lump $-1 $-1 $24 $0 #
transform $-1 1 0 0 0 1 0 0 0 1 58.126773888363289 24.940389786329725 7.5457485343405555 1 rotate no_reflect no_shear #
lump $-1 $-1 $25 $1 #
transform $-1 1 0 0 0 1 0 0 0 1 58.126773888363289 24.940389786329725 7.5457485343405555 1 rotate no_reflect no_shear #
lump $-1 $-1 $26 $2 #
transform $-1 1 0 0 0 1 0 0 0 1 58.126773888363289 24.940389786329725 7.5457485343405555 1 rotate no_reflect no_shear #
lump $-1 $-1 $27 $3 #
transform $-1 1 0 0 0 1 0 0 0 1 58.126773888363289 24.940389786329725 7.5457485343405555 1 rotate no_reflect no_shear #
lump $-1 $-1 $28 $4 #
transform $-1 1 0 0 0 1 0 0 0 1 58.126773888363289 24.940389786329725 7.5457485343405555 1 rotate no_reflect no_shear #
lump $-1 $-1 $29 $5 #
transform $-1 1 0 0 0 1 0 0 0 1 58.126773888363289 24.940389786329725 7.5457485343405555 1 rotate no_reflect no_shear #
lump $-1 $-1 $30 $6 #
transform $-1 1 0 0 0 1 0 0 0 1 58.126773888363289 24.940389786329725 7.5457485343405555 1 rotate no_reflect no_shear #
lump $-1 $-1 $31 $7 #
transform $-1 1 0 0 0 1 0 0 0 1 58.126773888363289 24.940389786329725 7.5457485343405555 1 rotate no_reflect no_shear #
shell $-1 $-1 $-1 $32 $-1 $8 #
shell $-1 $-1 $-1 $33 $-1 $10 #
shell $-1 $-1 $-1 $34 $-1 $12 #
shell $-1 $-1 $-1 $35 $-1 $14 #
shell $-1 $-1 $-1 $36 $-1 $16 #
shell $-1 $-1 $-1 $37 $-1 $18 #
shell $-1 $-1 $-1 $38 $-1 $20 #
shell $-1 $-1 $-1 $39 $-1 $22 #
face $-1 $40 $41 $24 $-1 $42 forward single #
face $-1 $43 $44 $25 $-1 $45 reversed single #
face $-1 $46 $47 $26 $-1 $48 reversed single #
face $-1 $49 $50 $27 $-1 $51 forward single #
face $-1 $52 $53 $28 $-1 $54 forward single #
face $-1 $55 $56 $29 $-1 $57 reversed single #
face $-1 $58 $59 $30 $-1 $60 forward single #
face $-1 $61 $62 $31 $-1 $63 forward single #
face $-1 $64 $65 $24 $-1 $66 reversed single #
loop $-1 $-1 $67 $32 #
plane-surface $-1 0 0 7.5457485343405555 0 0 1 1 0 0 forward_v I I I I #
face $-1 $68 $69 $25 $-1 $70 reversed single #
loop $-1 $-1 $71 $33 #
plane-surface $-1 -54.80355410857829 0 4.5457485343405555 0 0 1 1 0 0 forward_v I I I I #
face $-1 $72 $73 $26 $-1 $74 reversed single #
loop $-1 $-1 $75 $34 #
plane-surface $-1 -31.855286469690046 -101.20958038492415 90.203859218949546 -1 0 0 0 -0.6560590369687036 0.75470957328743171 forward_v I I I I #
face $-1 $76 $77 $27 $-1 $78 forward single #
loop $-1 $79 $80 $35 #
cone-surface $-1 -45.873177797620933 -21.048692060140858 3.8900929664179937 0 0.6560590369687036 -0.75470957328743171 1.5 0 0 1 I I 0 1 1.5 forward I I I I #
face $-1 $81 $82 $28 $-1 $83 forward single #
loop $-1 $84 $85 $36 #
cone-surface $-1 -37.4624430008624 -21.048692060140858 3.8900929664179937 0 0.6560590369687036 -0.75470957328743171 1.5 0 0 1 I I 0 1 1.5 forward I I I I #
face $-1 $86 $87 $29 $-1 $88 reversed single #
loop $-1 $-1 $89 $37 #
plane-surface $-1 -7.3905898473889664 91.559282838802204 110.85601031569405 1 0 0 0 -0.81915205242281985 -0.57357642473473569 forward_v I I I I #
face $-1 $90 $91 $30 $-1 $92 forward single #
loop $-1 $93 $94 $38 #
cone-surface $-1 -3.3162287694703281 22.604545922160963 4.8321439004833806 0 -0.81915205242281985 -0.57357642473473569 1 0 0 1 I I 0 1 1 forward I I I I #
face $-1 $95 $96 $31 $-1 $97 forward single #
loop $-1 $98 $99 $39 #
cone-surface $-1 2.7953128474076294 22.604545922160963 4.8321439004833806 0 -0.81915205242281985 -0.57357642473473569 1 0 0 1 I I 0 1 1 forward I I I I #
face $-1 $100 $101 $24 $-1 $102 reversed single #
loop $-1 $-1 $103 $40 #
plane-surface $-1 0 0 -7.5457485343405555 0 0 1 1 0 0 forward_v I I I I #
coedge $-1 $104 $105 $106 $107 forward $41 $-1 #
face $-1 $108 $109 $25 $-1 $110 reversed single #
loop $-1 $-1 $111 $43 #
plane-surface $-1 -51.48033432879329 0 6.0457485343405555 -1 0 0 0 0 1 forward_v I I I I #
coedge $-1 $112 $113 $114 $115 forward $44 $-1 #
face $-1 $116 $117 $26 $-1 $118 forward single #
loop $-1 $-1 $119 $46 #
plane-surface $-1 -41.667810399241667 -24.940389786329746 2.4661937832261742 0 -0.6560590369687036 0.75470957328743171 1 0 0 forward_v I I I I #
coedge $-1 $120 $121 $122 $123 reversed $47 $-1 #
face $-1 $-1 $124 $27 $-1 $125 forward single #
loop $-1 $126 $127 $49 #
cone-surface $-1 -45.873177797620933 -19.586629648062679 2.208182594087047 0 0.6560590369687036 -0.75470957328743171 0.75 0 0 1 I I -0.70710678118654757 0.70710678118654757 0.75 forward I I I I #
loop $-1 $-1 $128 $35 #
coedge $-1 $80 $80 $129 $130 reversed $50 $-1 #
face $-1 $-1 $131 $28 $-1 $132 forward single #
loop $-1 $133 $134 $52 #
cone-surface $-1 -37.4624430008624 -19.586629648062679 2.208182594087047 0 0.6560590369687036 -0.75470957328743171 0.75 0 0 1 I I -0.70710678118654757 0.70710678118654757 0.75 forward I I I I #
loop $-1 $-1 $135 $36 #
coedge $-1 $85 $85 $136 $137 reversed $53 $-1 #
face $-1 $138 $139 $29 $-1 $140 reversed single #
loop $-1 $-1 $141 $55 #
plane-surface $-1 -0.26045796103134933 -3.6700494239377122 44.175716019190432 0 0.81915205242281985 0.57357642473473569 1 0 0 forward_v I I I I #
coedge $-1 $142 $143 $144 $145 reversed $56 $-1 #
face $-1 $-1 $146 $30 $-1 $147 forward single #
loop $-1 $148 $149 $58 #
cone-surface $-1 -3.3162287694703281 21.340056345342866 3.946738793531031 0 -0.81915205242281985 -0.57357642473473569 0.5 0 0 1 I I -0.70710678118654724 0.70710678118654791 0.5 forward I I I I #
loop $-1 $-1 $150 $38 #
coedge $-1 $94 $94 $151 $152 reversed $59 $-1 #
face $-1 $-1 $153 $31 $-1 $154 forward single #
loop $-1 $155 $156 $61 #
cone-surface $-1 2.7953128474076294 21.340056345342866 3.946738793531031 0 -0.81915205242281985 -0.57357642473473569 0.5 0 0 1 I I -0.70710678118654724 0.70710678118654791 0.5 forward I I I I #
loop $-1 $-1 $157 $39 #
coedge $-1 $99 $99 $158 $159 reversed $62 $-1 #
face $-1 $160 $161 $24 $-1 $162 reversed single #
loop $-1 $-1 $163 $64 #
plane-surface $-1 0 -24.940389786329725 0 0 1 0 0 0 1 forward_v I I I I #
coedge $-1 $164 $165 $166 $167 forward $65 $-1 #
coedge $-1 $168 $67 $169 $170 forward $41 $-1 #
coedge $-1 $67 $168 $171 $172 forward $41 $-1 #
coedge $-1 $173 $174 $67 $107 reversed $175 $-1 #
edge $-1 $176 -24.940389786329725 $177 24.940389786329725 $106 $178 forward 7 unknown #
face $-1 $179 $180 $25 $-1 $181 reversed single #
loop $-1 $-1 $182 $68 #
plane-surface $-1 0 24.940389786329725 0 0 -1 0 0 0 -1 forward_v I I I I #
coedge $-1 $114 $183 $184 $185 reversed $69 $-1 #
coedge $-1 $186 $71 $187 $188 reversed $44 $-1 #
coedge $-1 $71 $186 $189 $190 reversed $44 $-1 #
coedge $-1 $191 $111 $71 $115 reversed $69 $-1 #
edge $-1 $192 -24.940389786329725 $193 24.940389786329725 $114 $194 forward 7 unknown #
face $-1 $195 $196 $26 $-1 $197 forward single #
loop $-1 $-1 $198 $72 #
plane-surface $-1 -51.48033432879329 0 6.0457485343405555 -1 0 0 0 0 1 forward_v I I I I #
coedge $-1 $199 $200 $201 $202 reversed $73 $-1 #
coedge $-1 $121 $75 $203 $204 reversed $47 $-1 #
coedge $-1 $75 $120 $199 $205 reversed $47 $-1 #
coedge $-1 $201 $206 $75 $123 forward $196 $-1 #
edge $-1 $207 25.664400406132351 $208 31.507759589806767 $122 $209 forward 7 unknown #
loop $-1 $-1 $129 $76 #
plane-surface $-1 -41.667810399241667 -24.940389786329746 2.4661937832261742 0 -0.6560590369687036 0.75470957328743171 1 0 0 forward_v I I I I #
loop $-1 $-1 $210 $49 #
coedge $-1 $127 $127 $128 $211 reversed $77 $-1 #
coedge $-1 $128 $128 $127 $211 forward $79 $-1 #
coedge $-1 $129 $129 $80 $130 forward $124 $-1 #
edge $-1 $212 1.8663491769708003e-015 $212 6.2831853071796022 $129 $213 forward 7 unknown #
loop $-1 $-1 $136 $81 #
plane-surface $-1 -41.667810399241667 -24.940389786329746 2.4661937832261742 0 -0.6560590369687036 0.75470957328743171 1 0 0 forward_v I I I I #
loop $-1 $-1 $214 $52 #
coedge $-1 $134 $134 $135 $215 reversed $82 $-1 #
coedge $-1 $135 $135 $134 $215 forward $84 $-1 #
coedge $-1 $136 $136 $85 $137 forward $131 $-1 #
edge $-1 $216 1.8663491769708003e-015 $216 6.2831853071796022 $136 $217 forward 7 unknown #
face $-1 $218 $219 $29 $-1 $220 forward single #
loop $-1 $-1 $221 $86 #
plane-surface $-1 6.8696739253262677 91.559282838802204 110.85601031569405 -1 0 0 0 0.81915205242281985 0.57357642473473569 forward_v I I I I #
coedge $-1 $222 $223 $224 $225 reversed $87 $-1 #
coedge $-1 $143 $89 $226 $227 reversed $56 $-1 #
coedge $-1 $89 $142 $222 $228 reversed $56 $-1 #
coedge $-1 $224 $229 $89 $145 forward $219 $-1 #
edge $-1 $230 20.839251633071378 $231 23.80111226019552 $144 $232 forward 7 unknown #
loop $-1 $-1 $151 $90 #
plane-surface $-1 -0.26045796103134933 -3.6700494239377122 44.175716019190432 0 0.81915205242281985 0.57357642473473569 1 0 0 forward_v I I I I #
loop $-1 $-1 $233 $58 #
coedge $-1 $149 $149 $150 $234 reversed $91 $-1 #
coedge $-1 $150 $150 $149 $234 forward $93 $-1 #
coedge $-1 $151 $151 $94 $152 forward $146 $-1 #
edge $-1 $235 1.0173666079199377e-015 $235 6.2831853071796013 $151 $236 forward 7 unknown #
loop $-1 $-1 $158 $95 #
plane-surface $-1 -0.26045796103134933 -3.6700494239377122 44.175716019190432 0 0.81915205242281985 0.57357642473473569 1 0 0 forward_v I I I I #
loop $-1 $-1 $237 $61 #
coedge $-1 $156 $156 $157 $238 reversed $96 $-1 #
coedge $-1 $157 $157 $156 $238 forward $98 $-1 #
coedge $-1 $158 $158 $99 $159 forward $153 $-1 #
edge $-1 $239 1.0173666079199377e-015 $239 6.2831853071796013 $158 $240 forward 7 unknown #
face $-1 $241 $242 $24 $-1 $243 reversed single #
loop $-1 $-1 $244 $100 #
plane-surface $-1 -58.126773888363289 0 0 1 0 0 0 0 -1 forward_v I I I I #
coedge $-1 $245 $171 $246 $247 forward $101 $-1 #
coedge $-1 $248 $103 $245 $249 forward $65 $-1 #
coedge $-1 $103 $248 $250 $251 forward $65 $-1 #
coedge $-1 $174 $173 $103 $167 reversed $175 $-1 #
edge $-1 $252 -24.940389786329725 $253 24.940389786329725 $166 $254 forward 7 unknown #
coedge $-1 $105 $104 $255 $256 forward $41 $-1 #
coedge $-1 $257 $258 $104 $170 reversed $242 $-1 #
edge $-1 $177 -58.126773888363289 $259 58.126773888363289 $169 $260 forward 7 unknown #
coedge $-1 $163 $261 $105 $172 reversed $101 $-1 #
edge $-1 $262 -58.126773888363289 $176 58.126773888363289 $171 $263 forward 7 unknown #
coedge $-1 $166 $106 $261 $264 forward $175 $-1 #
coedge $-1 $106 $166 $257 $265 reversed $175 $-1 #
loop $-1 $-1 $173 $241 #
vertex $-1 $107 $266 #
vertex $-1 $107 $267 #
straight-curve $-1 58.126773888363289 0 7.5457485343405555 0 1 0 I I #
face $-1 $268 $269 $25 $-1 $270 forward single #
loop $-1 $-1 $271 $108 #
plane-surface $-1 -58.126773888363289 0 0 1 0 0 0 0 -1 forward_v I I I I #
coedge $-1 $189 $272 $191 $273 forward $109 $-1 #
coedge $-1 $111 $191 $274 $275 reversed $69 $-1 #
coedge $-1 $276 $187 $111 $185 forward $277 $-1 #
edge $-1 $193 1.5228742671702777 $278 4.5228742671702777 $184 $279 forward 7 unknown #
coedge $-1 $113 $112 $271 $280 reversed $44 $-1 #
coedge $-1 $184 $281 $112 $188 forward $277 $-1 #
edge $-1 $282 -30.724996834074144 $193 -24.078557274504146 $187 $283 forward 7 unknown #
coedge $-1 $284 $182 $113 $190 forward $109 $-1 #
edge $-1 $192 24.078557274504146 $285 30.724996834074144 $189 $286 forward 7 unknown #
coedge $-1 $183 $114 $182 $273 reversed $69 $-1 #
vertex $-1 $190 $287 #
vertex $-1 $188 $288 #
straight-curve $-1 -51.48033432879329 0 4.5457485343405555 0 -1 0 I I #
face $-1 $-1 $289 $26 $-1 $290 reversed single #
loop $-1 $-1 $201 $116 #
plane-surface $-1 0 0 7.5457485343405555 0 0 1 1 0 0 forward_v I I I I #
coedge $-1 $291 $292 $200 $293 reversed $117 $-1 #
coedge $-1 $294 $119 $121 $205 forward $73 $-1 #
coedge $-1 $119 $294 $198 $293 forward $73 $-1 #
coedge $-1 $295 $122 $119 $202 forward $196 $-1 #
edge $-1 $208 11.021381270069213 $296 30.646429129172457 $201 $297 forward 7 unknown #
coedge $-1 $298 $299 $120 $204 forward $289 $-1 #
edge $-1 $300 -42.635735826248577 $207 -37.556181075134219 $203 $301 forward 7 unknown #
edge $-1 $208 -7.742526914322033 $300 -2.8324249199621518e-014 $121 $302 forward 7 unknown #
coedge $-1 $122 $295 $298 $303 forward $196 $-1 #
vertex $-1 $204 $304 #
vertex $-1 $123 $305 #
straight-curve $-1 -31.855286469690046 -50.604790192462076 7.5457485343405537 0 1 0 I I #
coedge $-1 $210 $210 $-1 $306 reversed $126 $-1 #
edge $-1 $307 0 $307 6.2831853071796004 $127 $308 forward 7 unknown #
vertex $-1 $130 $309 #
ellipse-curve $-1 -45.873177797620933 -22.018710194492517 5.0059711587833746 0 -0.6560590369687036 0.75470957328743171 1.5 0 0 1 I I #
coedge $-1 $214 $214 $-1 $310 reversed $133 $-1 #
edge $-1 $311 0 $311 6.2831853071796004 $134 $312 forward 7 unknown #
vertex $-1 $137 $313 #
ellipse-curve $-1 -37.4624430008624 -22.018710194492517 5.0059711587833746 0 -0.6560590369687036 0.75470957328743171 1.5 0 0 1 I I #
face $-1 $-1 $314 $29 $-1 $315 reversed single #
loop $-1 $-1 $144 $138 #
plane-surface $-1 0 0 7.5457485343405555 0 0 1 1 0 0 forward_v I I I I #
coedge $-1 $316 $317 $318 $319 reversed $139 $-1 #
coedge $-1 $320 $141 $143 $228 forward $87 $-1 #
coedge $-1 $141 $320 $316 $321 forward $87 $-1 #
coedge $-1 $318 $144 $141 $225 forward $219 $-1 #
edge $-1 $231 -7.2603608668732917 $322 6.9999029058419424 $224 $323 forward 7 unknown #
coedge $-1 $324 $325 $142 $227 forward $314 $-1 #
edge $-1 $326 -52.112232102050839 $230 -47.882256623506471 $226 $327 forward 7 unknown #
edge $-1 $231 44.716933048643178 $326 49.880779572659442 $143 $328 forward 7 unknown #
coedge $-1 $144 $318 $324 $329 forward $219 $-1 #
vertex $-1 $227 $330 #
vertex $-1 $145 $331 #
straight-curve $-1 -7.3905898473889664 45.779641419401102 7.5457485343405537 0 -1 0 I I #
coedge $-1 $233 $233 $-1 $332 reversed $148 $-1 #
edge $-1 $333 0 $333 6.2831853071796004 $149 $334 forward 7 unknown #
vertex $-1 $152 $335 #
ellipse-curve $-1 -3.3162287694703281 23.459459472767659 5.4307607950683687 0 0.81915205242281985 0.57357642473473569 1 0 0 1 I I #
coedge $-1 $237 $237 $-1 $336 reversed $155 $-1 #
edge $-1 $337 0 $337 6.2831853071796004 $156 $338 forward 7 unknown #
vertex $-1 $159 $339 #
ellipse-curve $-1 2.7953128474076294 23.459459472767659 5.4307607950683687 0 0.81915205242281985 0.57357642473473569 1 0 0 1 I I #
face $-1 $-1 $175 $24 $-1 $340 reversed single #
loop $-1 $-1 $257 $160 #
plane-surface $-1 0 24.940389786329725 0 0 -1 0 0 0 -1 forward_v I I I I #
coedge $-1 $341 $255 $258 $342 forward $161 $-1 #
coedge $-1 $261 $163 $164 $249 reversed $101 $-1 #
coedge $-1 $255 $341 $163 $247 reversed $161 $-1 #
edge $-1 $262 -7.5457485343405555 $343 7.5457485343405555 $246 $344 forward 7 unknown #
coedge $-1 $165 $164 $341 $345 forward $65 $-1 #
edge $-1 $253 -58.126773888363289 $343 58.126773888363289 $245 $346 forward 7 unknown #
coedge $-1 $258 $257 $165 $251 reversed $242 $-1 #
edge $-1 $347 -58.126773888363289 $252 58.126773888363289 $250 $348 forward 7 unknown #
vertex $-1 $167 $349 #
vertex $-1 $264 $350 #
straight-curve $-1 58.126773888363289 0 -7.5457485343405555 0 -1 0 I I #
coedge $-1 $244 $246 $168 $256 reversed $161 $-1 #
edge $-1 $259 -24.940389786329725 $262 24.940389786329725 $255 $351 forward 7 unknown #
coedge $-1 $250 $169 $174 $265 forward $242 $-1 #
coedge $-1 $169 $250 $244 $342 reversed $242 $-1 #
vertex $-1 $170 $352 #
straight-curve $-1 0 24.940389786329725 7.5457485343405555 -1 0 0 I I #
coedge $-1 $171 $245 $173 $264 reversed $101 $-1 #
vertex $-1 $256 $353 #
straight-curve $-1 0 -24.940389786329725 7.5457485343405555 1 0 0 I I #
edge $-1 $176 -7.5457485343405555 $253 7.5457485343405555 $173 $354 forward 7 unknown #
edge $-1 $177 -7.5457485343405555 $252 7.5457485343405555 $174 $355 forward 7 unknown #
point $-1 58.126773888363289 -24.940389786329725 7.5457485343405555 #
point $-1 58.126773888363289 24.940389786329725 7.5457485343405555 #
face $-1 $-1 $277 $25 $-1 $356 reversed single #
loop $-1 $-1 $274 $179 #
plane-surface $-1 0 0 7.5457485343405555 0 0 1 1 0 0 forward_v I I I I #
coedge $-1 $357 $358 $186 $280 forward $180 $-1 #
coedge $-1 $182 $284 $359 $360 reversed $109 $-1 #
edge $-1 $361 -4.5228742671702777 $192 -1.5228742671702777 $182 $362 forward 7 unknown #
coedge $-1 $359 $363 $183 $275 forward $269 $-1 #
edge $-1 $278 -24.940389786329725 $361 24.940389786329725 $274 $364 forward 7 unknown #
coedge $-1 $281 $184 $363 $365 reversed $277 $-1 #
loop $-1 $-1 $184 $268 #
vertex $-1 $185 $366 #
straight-curve $-1 -51.48033432879329 -24.940389786329725 3.0228742671702777 0 0 1 I I #
edge $-1 $285 -24.940389786329725 $282 24.940389786329725 $271 $367 forward 7 unknown #
coedge $-1 $187 $276 $357 $368 forward $277 $-1 #
vertex $-1 $280 $369 #
straight-curve $-1 -27.401777054289145 -24.940389786329725 4.5457485343405555 1 0 0 I I #
coedge $-1 $272 $189 $358 $370 reversed $109 $-1 #
vertex $-1 $280 $371 #
straight-curve $-1 -27.401777054289145 24.940389786329725 4.5457485343405555 -1 0 0 I I #
point $-1 -51.48033432879329 24.940389786329725 4.5457485343405555 #
point $-1 -51.48033432879329 -24.940389786329725 4.5457485343405555 #
loop $-1 $-1 $203 $195 #
plane-surface $-1 0 -24.940389786329725 0 0 1 0 0 0 1 forward_v I I I I #
coedge $-1 $292 $198 $372 $373 reversed $117 $-1 #
coedge $-1 $198 $291 $295 $374 reversed $117 $-1 #
edge $-1 $375 2.8324249199621518e-014 $296 7.7425269143220365 $198 $376 forward 7 unknown #
coedge $-1 $200 $199 $299 $377 reversed $73 $-1 #
coedge $-1 $206 $201 $292 $374 forward $196 $-1 #
vertex $-1 $374 $378 #
straight-curve $-1 -20.833905199620833 -19.097030602655309 7.5457485343405555 -1 0 0 I I #
coedge $-1 $372 $203 $206 $303 reversed $289 $-1 #
coedge $-1 $203 $372 $294 $377 forward $289 $-1 #
vertex $-1 $204 $379 #
straight-curve $-1 -31.855286469690046 -24.940389786329725 45.101929609474773 0 0 1 I I #
straight-curve $-1 -31.855286469690046 -24.940389786329746 2.4661937832261742 0 -0.75470957328743171 -0.6560590369687036 I I #
edge $-1 $380 -51.48033432879329 $207 -31.855286469690046 $298 $381 forward 7 unknown #
point $-1 -31.855286469690046 -24.940389786329725 7.5457485343405555 #
point $-1 -31.855286469690046 -19.097030602655309 7.5457485343405555 #
edge $-1 $382 1 $382 0 $210 $-1 forward 7 unknown #
vertex $-1 $211 $383 #
ellipse-curve $-1 -45.873177797620933 -20.078673925789207 2.7742147740526208 0 -0.6560590369687036 0.75470957328743171 1.5 0 0 1 I I #
point $-1 -44.373177797620933 -22.018710194492506 5.0059711587833666 #
edge $-1 $384 1 $384 0 $214 $-1 forward 7 unknown #
vertex $-1 $215 $385 #
ellipse-curve $-1 -37.4624430008624 -20.078673925789207 2.7742147740526208 0 -0.6560590369687036 0.75470957328743171 1.5 0 0 1 I I #
point $-1 -35.9624430008624 -22.018710194492506 5.0059711587833666 #
loop $-1 $-1 $226 $218 #
plane-surface $-1 0 24.940389786329725 0 0 -1 0 0 0 -1 forward_v I I I I #
coedge $-1 $317 $221 $223 $321 reversed $139 $-1 #
coedge $-1 $221 $316 $386 $387 reversed $139 $-1 #
coedge $-1 $229 $224 $221 $319 forward $219 $-1 #
edge $-1 $322 -23.80111226019552 $388 -20.839251633071378 $318 $389 forward 7 unknown #
coedge $-1 $223 $222 $325 $390 reversed $87 $-1 #
edge $-1 $391 -49.880779572659442 $322 -44.716933048643178 $316 $392 forward 7 unknown #
vertex $-1 $225 $393 #
straight-curve $-1 -0.13022898051567466 21.978529159205586 7.5457485343405537 1 0 0 I I #
coedge $-1 $386 $226 $229 $329 reversed $314 $-1 #
coedge $-1 $226 $386 $320 $390 forward $314 $-1 #
vertex $-1 $227 $394 #
straight-curve $-1 -7.3905898473889664 24.940389786329725 55.428005157847025 0 0 1 I I #
straight-curve $-1 -7.3905898473889664 -3.6700494239377122 44.175716019190432 0 0.57357642473473569 -0.81915205242281985 I I #
edge $-1 $388 -6.8696739253262677 $230 7.3905898473889664 $324 $395 forward 7 unknown #
point $-1 -7.3905898473889664 24.940389786329725 7.5457485343405555 #
point $-1 -7.3905898473889664 21.978529159205582 7.5457485343405537 #
edge $-1 $396 1 $396 0 $233 $-1 forward 7 unknown #
vertex $-1 $234 $397 #
ellipse-curve $-1 -3.3162287694703281 21.749632371554277 4.2335270058983987 0 0.81915205242281985 0.57357642473473569 1 0 0 1 I I #
point $-1 -2.3162287694703281 23.459459472767652 5.4307607950683625 #
edge $-1 $398 1 $398 0 $237 $-1 forward 7 unknown #
vertex $-1 $238 $399 #
ellipse-curve $-1 2.7953128474076294 21.749632371554277 4.2335270058983987 0 0.81915205242281985 0.57357642473473569 1 0 0 1 I I #
point $-1 3.7953128474076294 23.459459472767652 5.4307607950683625 #
plane-surface $-1 58.126773888363289 0 0 -1 0 0 0 0 1 forward_v I I I I #
coedge $-1 $246 $244 $248 $345 reversed $161 $-1 #
edge $-1 $259 -7.5457485343405555 $347 7.5457485343405555 $258 $400 forward 7 unknown #
vertex $-1 $345 $401 #
straight-curve $-1 -58.126773888363289 -24.940389786329725 0 0 0 -1 I I #
edge $-1 $343 -24.940389786329725 $347 24.940389786329725 $341 $402 forward 7 unknown #
straight-curve $-1 0 -24.940389786329725 -7.5457485343405555 -1 0 0 I I #
vertex $-1 $251 $403 #
straight-curve $-1 0 24.940389786329725 -7.5457485343405555 1 0 0 I I #
point $-1 58.126773888363289 24.940389786329725 -7.5457485343405555 #
point $-1 58.126773888363289 -24.940389786329725 -7.5457485343405555 #
straight-curve $-1 -58.126773888363289 0 7.5457485343405555 0 -1 0 I I #
point $-1 -58.126773888363289 24.940389786329725 7.5457485343405555 #
point $-1 -58.126773888363289 -24.940389786329725 7.5457485343405555 #
straight-curve $-1 58.126773888363289 -24.940389786329725 0 0 0 -1 I I #
straight-curve $-1 58.126773888363289 24.940389786329725 0 0 0 -1 I I #
plane-surface $-1 0 -24.940389786329725 0 0 1 0 0 0 1 forward_v I I I I #
coedge $-1 $404 $271 $281 $368 reversed $180 $-1 #
coedge $-1 $271 $404 $284 $370 forward $180 $-1 #
coedge $-1 $405 $274 $272 $360 forward $269 $-1 #
edge $-1 $361 51.48033432879329 $406 58.126773888363289 $272 $407 forward 7 unknown #
vertex $-1 $360 $408 #
straight-curve $-1 -51.48033432879329 24.940389786329725 3.0228742671702777 0 0 -1 I I #
coedge $-1 $274 $405 $276 $365 forward $269 $-1 #
straight-curve $-1 -51.48033432879329 0 7.5457485343405555 0 1 0 I I #
edge $-1 $409 -58.126773888363289 $278 -51.48033432879329 $276 $410 forward 7 unknown #
point $-1 -51.48033432879329 -24.940389786329725 7.5457485343405555 #
straight-curve $-1 -58.126773888363289 0 4.5457485343405555 0 -1 0 I I #
edge $-1 $409 -7.5457485343405555 $282 -4.5457485343405555 $357 $411 forward 7 unknown #
point $-1 -58.126773888363289 -24.940389786329725 4.5457485343405555 #
edge $-1 $406 -7.5457485343405555 $285 -4.5457485343405555 $284 $412 forward 7 unknown #
point $-1 -58.126773888363289 24.940389786329725 4.5457485343405555 #
coedge $-1 $299 $298 $291 $373 forward $289 $-1 #
edge $-1 $380 37.556181075134219 $375 42.635735826248577 $372 $413 forward 7 unknown #
edge $-1 $296 19.097030602655305 $380 24.940389786329725 $295 $414 forward 7 unknown #
vertex $-1 $373 $415 #
straight-curve $-1 -51.48033432879329 -24.940389786329746 2.4661937832261742 0 0.75470957328743171 0.6560590369687036 I I #
edge $-1 $375 -30.646429129172457 $300 -11.021381270069213 $299 $416 forward 7 unknown #
point $-1 -51.48033432879329 -19.097030602655305 7.5457485343405555 #
point $-1 -31.855286469690046 -24.940389786329725 2.4661937832261929 #
vertex $-1 $303 $417 #
straight-curve $-1 0 -24.940389786329725 7.5457485343405555 1 0 0 I I #
vertex $-1 $306 $418 #
point $-1 -44.373177797620933 -20.078673925789207 2.7742147740526208 #
vertex $-1 $310 $419 #
point $-1 -35.9624430008624 -20.078673925789207 2.7742147740526208 #
coedge $-1 $325 $324 $317 $387 forward $314 $-1 #
edge $-1 $388 47.882256623506471 $391 52.112232102050839 $386 $420 forward 7 unknown #
vertex $-1 $329 $421 #
straight-curve $-1 6.8696739253262677 45.779641419401102 7.5457485343405537 0 1 0 I I #
edge $-1 $391 -6.9999029058419424 $326 7.2603608668732917 $325 $422 forward 7 unknown #
vertex $-1 $390 $423 #
straight-curve $-1 6.8696739253262677 -3.6700494239377122 44.175716019190432 0 -0.57357642473473569 0.81915205242281985 I I #
point $-1 6.8696739253262677 21.978529159205582 7.5457485343405537 #
point $-1 -7.3905898473889664 24.940389786329725 3.3157730557961855 #
straight-curve $-1 0 24.940389786329725 7.5457485343405555 -1 0 0 I I #
vertex $-1 $332 $424 #
point $-1 -2.3162287694703281 21.749632371554277 4.2335270058983987 #
vertex $-1 $336 $425 #
point $-1 3.7953128474076294 21.749632371554277 4.2335270058983987 #
straight-curve $-1 -58.126773888363289 24.940389786329725 0 0 0 -1 I I #
point $-1 -58.126773888363289 -24.940389786329725 -7.5457485343405555 #
straight-curve $-1 -58.126773888363289 0 -7.5457485343405555 0 1 0 I I #
point $-1 -58.126773888363289 24.940389786329725 -7.5457485343405555 #
coedge $-1 $358 $357 $405 $426 reversed $180 $-1 #
coedge $-1 $363 $359 $404 $426 forward $269 $-1 #
vertex $-1 $360 $427 #
straight-curve $-1 0 24.940389786329725 7.5457485343405555 -1 0 0 I I #
point $-1 -51.48033432879329 24.940389786329725 7.5457485343405555 #
vertex $-1 $426 $428 #
straight-curve $-1 0 -24.940389786329725 7.5457485343405555 1 0 0 I I #
straight-curve $-1 -58.126773888363289 -24.940389786329725 0 0 0 -1 I I #
straight-curve $-1 -58.126773888363289 24.940389786329725 0 0 0 -1 I I #
straight-curve $-1 -51.48033432879329 -24.940389786329725 45.101929609474773 0 0 -1 I I #
straight-curve $-1 -51.48033432879329 0 7.5457485343405555 0 -1 0 I I #
point $-1 -51.48033432879329 -24.940389786329725 2.4661937832261929 #
straight-curve $-1 -20.833905199620833 -24.940389786329725 2.4661937832261915 1 0 0 I I #
point $-1 -51.48033432879329 -24.940389786329725 7.5457485343405555 #
point $-1 -45.873177797620933 -19.094585370336151 1.6421504141214731 #
point $-1 -37.4624430008624 -19.094585370336151 1.6421504141214731 #
straight-curve $-1 6.8696739253262677 24.940389786329725 55.428005157847025 0 0 -1 I I #
point $-1 6.8696739253262677 24.940389786329725 7.5457485343405555 #
straight-curve $-1 -0.13022898051567466 24.940389786329725 3.3157730557961855 -1 0 0 I I #
point $-1 6.8696739253262677 24.940389786329725 3.3157730557961855 #
point $-1 -3.3162287694703281 20.930480319131455 3.6599505811636628 #
point $-1 2.7953128474076294 20.930480319131455 3.6599505811636628 #
edge $-1 $406 -24.940389786329725 $409 24.940389786329725 $404 $429 forward 7 unknown #
point $-1 -58.126773888363289 24.940389786329725 7.5457485343405555 #
point $-1 -58.126773888363289 -24.940389786329725 7.5457485343405555 #
straight-curve $-1 -58.126773888363289 0 7.5457485343405555 0 -1 0 I I #
End-of-ACIS-data 