500 0 10 0           
7 Unknown 11 ACIS 5.0 NT 24 Fri Mar 26 03:14:39 1999 
-1 9.9999999999999995e-007 1e-010 
body $-1 $10 $-1 $11 #
body $-1 $12 $-1 $13 #
body $-1 $14 $-1 $15 #
body $-1 $16 $-1 $17 #
body $-1 $18 $-1 $19 #
body $-1 $20 $-1 $21 #
body $-1 $22 $-1 $23 #
body $-1 $24 $-1 $25 #
body $-1 $26 $-1 $27 #
body $-1 $28 $-1 $29 #
lump $-1 $-1 $30 $0 #
transform $-1 1 0 0 0 1 0 0 0 1 42.149723807489245 29.216922263615341 7.5347684623013622 1 rotate no_reflect no_shear #
lump $-1 $-1 $31 $1 #
transform $-1 1 0 0 0 1 0 0 0 1 42.149723807489245 29.216922263615341 7.5347684623013622 1 rotate no_reflect no_shear #
lump $-1 $-1 $32 $2 #
transform $-1 1 0 0 0 1 0 0 0 1 42.149723807489245 29.216922263615341 7.5347684623013622 1 rotate no_reflect no_shear #
lump $-1 $-1 $33 $3 #
transform $-1 1 0 0 0 1 0 0 0 1 42.149723807489245 29.216922263615341 7.5347684623013622 1 rotate no_reflect no_shear #
lump $-1 $-1 $34 $4 #
transform $-1 1 0 0 0 1 0 0 0 1 42.149723807489245 29.216922263615341 7.5347684623013622 1 rotate no_reflect no_shear #
lump $-1 $-1 $35 $5 #
transform $-1 1 0 0 0 1 0 0 0 1 42.149723807489245 29.216922263615341 7.5347684623013622 1 rotate no_reflect no_shear #
lump $-1 $-1 $36 $6 #
transform $-1 1 0 0 0 1 0 0 0 1 42.149723807489245 29.216922263615341 7.5347684623013622 1 rotate no_reflect no_shear #
lump $-1 $-1 $37 $7 #
transform $-1 1 0 0 0 1 0 0 0 1 42.149723807489245 29.216922263615341 7.5347684623013622 1 rotate no_reflect no_shear #
lump $-1 $-1 $38 $8 #
transform $-1 1 0 0 0 1 0 0 0 1 42.149723807489245 29.216922263615341 7.5347684623013622 1 rotate no_reflect no_shear #
lump $-1 $-1 $39 $9 #
transform $-1 1 0 0 0 1 0 0 0 1 42.149723807489245 29.216922263615341 7.5347684623013622 1 rotate no_reflect no_shear #
shell $-1 $-1 $-1 $40 $-1 $10 #
shell $-1 $-1 $-1 $41 $-1 $12 #
shell $-1 $-1 $-1 $42 $-1 $14 #
shell $-1 $-1 $-1 $43 $-1 $16 #
shell $-1 $-1 $-1 $44 $-1 $18 #
shell $-1 $-1 $-1 $45 $-1 $20 #
shell $-1 $-1 $-1 $46 $-1 $22 #
shell $-1 $-1 $-1 $47 $-1 $24 #
shell $-1 $-1 $-1 $48 $-1 $26 #
shell $-1 $-1 $-1 $49 $-1 $28 #
face $-1 $50 $51 $30 $-1 $52 forward single #
face $-1 $53 $54 $31 $-1 $55 reversed single #
face $-1 $56 $57 $32 $-1 $58 reversed single #
face $-1 $59 $60 $33 $-1 $61 forward single #
face $-1 $62 $63 $34 $-1 $64 forward single #
face $-1 $65 $66 $35 $-1 $67 forward single #
face $-1 $68 $69 $36 $-1 $70 reversed single #
face $-1 $71 $72 $37 $-1 $73 forward single #
face $-1 $74 $75 $38 $-1 $76 forward single #
face $-1 $77 $78 $39 $-1 $79 forward single #
face $-1 $80 $81 $30 $-1 $82 reversed single #
loop $-1 $-1 $83 $40 #
plane-surface $-1 0 0 7.5347684623013622 0 0 1 1 0 0 forward_v I I I I #
face $-1 $84 $85 $31 $-1 $86 reversed single #
loop $-1 $-1 $87 $41 #
plane-surface $-1 -38.937121310629692 0 4.2286867309896286 0 0 1 1 0 0 forward_v I I I I #
face $-1 $88 $89 $32 $-1 $90 reversed single #
loop $-1 $-1 $91 $42 #
plane-surface $-1 30.729776392970216 -29.216922263615359 4.3815658899643211 0 -0.77714596973225614 0.62932038083071107 1 0 0 forward_v I I I I #
face $-1 $92 $93 $33 $-1 $94 forward single #
loop $-1 $95 $96 $43 #
cone-surface $-1 23.877807944258812 -27.551642764821604 5.6435069857174902 0 0.77714596973225614 -0.62932038083071107 0.5 0 0 1 I I 0 1 0.5 forward I I I I #
face $-1 $97 $98 $34 $-1 $99 forward single #
loop $-1 $100 $101 $44 #
cone-surface $-1 30.729776392970216 -27.551642764821604 5.6435069857174902 0 0.77714596973225614 -0.62932038083071107 0.5 0 0 1 I I 0 1 0.5 forward I I I I #
face $-1 $102 $103 $35 $-1 $104 forward single #
loop $-1 $105 $106 $45 #
cone-surface $-1 37.581744841681619 -27.551642764821604 5.6435069857174902 0 0.77714596973225614 -0.62932038083071107 0.5 0 0 1 I I 0 1 0.5 forward I I I I #
face $-1 $107 $108 $36 $-1 $109 reversed single #
loop $-1 $-1 $110 $46 #
plane-surface $-1 30.729776392970216 -7.5566870276640259 49.79319266026291 0 0.77714596973225614 0.62932038083071107 1 0 0 forward_v I I I I #
face $-1 $111 $112 $37 $-1 $113 forward single #
loop $-1 $114 $115 $47 #
cone-surface $-1 23.877807944258812 27.551642764821594 5.6435069857174938 0 -0.77714596973225614 -0.62932038083071107 0.5 0 0 1 I I 0 1 0.5 forward I I I I #
face $-1 $116 $117 $38 $-1 $118 forward single #
loop $-1 $119 $120 $48 #
cone-surface $-1 30.729776392970216 27.551642764821594 5.6435069857174938 0 -0.77714596973225614 -0.62932038083071107 0.5 0 0 1 I I 0 1 0.5 forward I I I I #
face $-1 $121 $122 $39 $-1 $123 forward single #
loop $-1 $124 $125 $49 #
cone-surface $-1 37.581744841681619 27.551642764821594 5.6435069857174938 0 -0.77714596973225614 -0.62932038083071107 0.5 0 0 1 I I 0 1 0.5 forward I I I I #
face $-1 $126 $127 $30 $-1 $128 reversed single #
loop $-1 $-1 $129 $50 #
plane-surface $-1 0 0 -7.5347684623013622 0 0 1 1 0 0 forward_v I I I I #
coedge $-1 $130 $131 $132 $133 forward $51 $-1 #
face $-1 $134 $135 $31 $-1 $136 reversed single #
loop $-1 $-1 $137 $53 #
plane-surface $-1 -35.724518813770146 0 5.8817275966454963 -1 0 0 0 0 1 forward_v I I I I #
coedge $-1 $138 $139 $140 $141 forward $54 $-1 #
face $-1 $142 $143 $32 $-1 $144 reversed single #
loop $-1 $-1 $145 $56 #
plane-surface $-1 19.309828978451208 -94.729898228251344 57.432926366841166 1 0 0 0 0.77714596973225614 -0.62932038083071107 forward_v I I I I #
coedge $-1 $146 $147 $148 $149 reversed $57 $-1 #
face $-1 $-1 $150 $33 $-1 $151 forward single #
loop $-1 $152 $153 $59 #
cone-surface $-1 23.877807944258812 -26.968783287522413 5.1715167000944566 0 0.77714596973225614 -0.62932038083071107 0.25 0 0 1 I I -0.70710678118654746 0.70710678118654746 0.25 forward I I I I #
loop $-1 $-1 $154 $43 #
coedge $-1 $96 $96 $155 $156 reversed $60 $-1 #
face $-1 $-1 $157 $34 $-1 $158 forward single #
loop $-1 $159 $160 $62 #
cone-surface $-1 30.729776392970216 -26.968783287522413 5.1715167000944566 0 0.77714596973225614 -0.62932038083071107 0.25 0 0 1 I I -0.70710678118654746 0.70710678118654746 0.25 forward I I I I #
loop $-1 $-1 $161 $44 #
coedge $-1 $101 $101 $162 $163 reversed $63 $-1 #
face $-1 $-1 $164 $35 $-1 $165 forward single #
loop $-1 $166 $167 $65 #
cone-surface $-1 37.581744841681619 -26.968783287522413 5.1715167000944566 0 0.77714596973225614 -0.62932038083071107 0.25 0 0 1 I I -0.70710678118654746 0.70710678118654746 0.25 forward I I I I #
loop $-1 $-1 $168 $45 #
coedge $-1 $106 $106 $169 $170 reversed $66 $-1 #
face $-1 $171 $172 $36 $-1 $173 forward single #
loop $-1 $-1 $174 $68 #
plane-surface $-1 19.309828978451208 57.956288936971958 102.84455313713975 1 0 0 0 -0.77714596973225614 -0.62932038083071107 forward_v I I I I #
coedge $-1 $175 $176 $177 $178 reversed $69 $-1 #
face $-1 $-1 $179 $37 $-1 $180 forward single #
loop $-1 $181 $182 $71 #
cone-surface $-1 23.877807944258812 26.968783287522403 5.1715167000944602 0 -0.77714596973225614 -0.62932038083071107 0.25 0 0 1 I I -0.70710678118654746 0.70710678118654746 0.25 forward I I I I #
loop $-1 $-1 $183 $47 #
coedge $-1 $115 $115 $184 $185 reversed $72 $-1 #
face $-1 $-1 $186 $38 $-1 $187 forward single #
loop $-1 $188 $189 $74 #
cone-surface $-1 30.729776392970216 26.968783287522403 5.1715167000944602 0 -0.77714596973225614 -0.62932038083071107 0.25 0 0 1 I I -0.70710678118654746 0.70710678118654746 0.25 forward I I I I #
loop $-1 $-1 $190 $48 #
coedge $-1 $120 $120 $191 $192 reversed $75 $-1 #
face $-1 $-1 $193 $39 $-1 $194 forward single #
loop $-1 $195 $196 $77 #
cone-surface $-1 37.581744841681619 26.968783287522403 5.1715167000944602 0 -0.77714596973225614 -0.62932038083071107 0.25 0 0 1 I I -0.70710678118654746 0.70710678118654746 0.25 forward I I I I #
loop $-1 $-1 $197 $49 #
coedge $-1 $125 $125 $198 $199 reversed $78 $-1 #
face $-1 $200 $201 $30 $-1 $202 reversed single #
loop $-1 $-1 $203 $80 #
plane-surface $-1 0 -29.216922263615341 0 0 1 0 0 0 1 forward_v I I I I #
coedge $-1 $204 $205 $206 $207 forward $81 $-1 #
coedge $-1 $208 $83 $209 $210 forward $51 $-1 #
coedge $-1 $83 $208 $211 $212 forward $51 $-1 #
coedge $-1 $213 $214 $83 $133 reversed $215 $-1 #
edge $-1 $216 -29.216922263615341 $217 29.216922263615341 $132 $218 forward 7 unknown #
face $-1 $219 $220 $31 $-1 $221 reversed single #
loop $-1 $-1 $222 $84 #
plane-surface $-1 0 29.216922263615341 0 0 -1 0 0 0 -1 forward_v I I I I #
coedge $-1 $140 $223 $224 $225 reversed $85 $-1 #
coedge $-1 $226 $87 $227 $228 reversed $54 $-1 #
coedge $-1 $87 $226 $229 $230 reversed $54 $-1 #
coedge $-1 $231 $137 $87 $141 reversed $85 $-1 #
edge $-1 $232 -29.216922263615341 $233 29.216922263615341 $140 $234 forward 7 unknown #
face $-1 $235 $236 $32 $-1 $237 forward single #
loop $-1 $-1 $238 $88 #
plane-surface $-1 42.149723807489245 0 0 -1 0 0 0 0 1 forward_v I I I I #
coedge $-1 $239 $240 $241 $242 reversed $89 $-1 #
coedge $-1 $243 $91 $238 $244 reversed $57 $-1 #
coedge $-1 $91 $243 $239 $245 forward $57 $-1 #
coedge $-1 $241 $246 $91 $149 forward $236 $-1 #
edge $-1 $247 -26.784835611004116 $248 -3.9449407819660998 $148 $249 forward 7 unknown #
loop $-1 $-1 $155 $92 #
plane-surface $-1 30.729776392970216 -29.216922263615359 4.3815658899643211 0 -0.77714596973225614 0.62932038083071107 1 0 0 forward_v I I I I #
loop $-1 $-1 $250 $59 #
coedge $-1 $153 $153 $154 $251 reversed $93 $-1 #
coedge $-1 $154 $154 $153 $251 forward $95 $-1 #
coedge $-1 $155 $155 $96 $156 forward $150 $-1 #
edge $-1 $252 -3.8113411006269834e-015 $252 6.2831853071795969 $155 $253 forward 7 unknown #
loop $-1 $-1 $162 $97 #
plane-surface $-1 30.729776392970216 -29.216922263615359 4.3815658899643211 0 -0.77714596973225614 0.62932038083071107 1 0 0 forward_v I I I I #
loop $-1 $-1 $254 $62 #
coedge $-1 $160 $160 $161 $255 reversed $98 $-1 #
coedge $-1 $161 $161 $160 $255 forward $100 $-1 #
coedge $-1 $162 $162 $101 $163 forward $157 $-1 #
edge $-1 $256 -3.8113411006269834e-015 $256 6.2831853071795969 $162 $257 forward 7 unknown #
loop $-1 $-1 $169 $102 #
plane-surface $-1 30.729776392970216 -29.216922263615359 4.3815658899643211 0 -0.77714596973225614 0.62932038083071107 1 0 0 forward_v I I I I #
loop $-1 $-1 $258 $65 #
coedge $-1 $167 $167 $168 $259 reversed $103 $-1 #
coedge $-1 $168 $168 $167 $259 forward $105 $-1 #
coedge $-1 $169 $169 $106 $170 forward $164 $-1 #
edge $-1 $260 -3.8113411006269834e-015 $260 6.2831853071795969 $169 $261 forward 7 unknown #
face $-1 $262 $263 $36 $-1 $264 reversed single #
loop $-1 $-1 $265 $107 #
plane-surface $-1 0 0 7.5347684623013622 0 0 1 1 0 0 forward_v I I I I #
coedge $-1 $266 $267 $268 $269 reversed $108 $-1 #
coedge $-1 $270 $110 $271 $272 reversed $69 $-1 #
coedge $-1 $110 $270 $266 $273 forward $69 $-1 #
coedge $-1 $268 $274 $110 $178 forward $275 $-1 #
edge $-1 $276 -26.784835611004137 $277 -3.9449407819660998 $177 $278 forward 7 unknown #
loop $-1 $-1 $184 $111 #
plane-surface $-1 30.729776392970216 -7.5566870276640259 49.79319266026291 0 0.77714596973225614 0.62932038083071107 1 0 0 forward_v I I I I #
loop $-1 $-1 $279 $71 #
coedge $-1 $182 $182 $183 $280 reversed $112 $-1 #
coedge $-1 $183 $183 $182 $280 forward $114 $-1 #
coedge $-1 $184 $184 $115 $185 forward $179 $-1 #
edge $-1 $281 3.9011483351108678e-016 $281 6.2831853071796004 $184 $282 forward 7 unknown #
loop $-1 $-1 $191 $116 #
plane-surface $-1 30.729776392970216 -7.5566870276640259 49.79319266026291 0 0.77714596973225614 0.62932038083071107 1 0 0 forward_v I I I I #
loop $-1 $-1 $283 $74 #
coedge $-1 $189 $189 $190 $284 reversed $117 $-1 #
coedge $-1 $190 $190 $189 $284 forward $119 $-1 #
coedge $-1 $191 $191 $120 $192 forward $186 $-1 #
edge $-1 $285 3.9011483351108678e-016 $285 6.2831853071796004 $191 $286 forward 7 unknown #
loop $-1 $-1 $198 $121 #
plane-surface $-1 30.729776392970216 -7.5566870276640259 49.79319266026291 0 0.77714596973225614 0.62932038083071107 1 0 0 forward_v I I I I #
loop $-1 $-1 $287 $77 #
coedge $-1 $196 $196 $197 $288 reversed $122 $-1 #
coedge $-1 $197 $197 $196 $288 forward $124 $-1 #
coedge $-1 $198 $198 $125 $199 forward $193 $-1 #
edge $-1 $289 3.9011483351108678e-016 $289 6.2831853071796004 $198 $290 forward 7 unknown #
face $-1 $291 $292 $30 $-1 $293 reversed single #
loop $-1 $-1 $294 $126 #
plane-surface $-1 -42.149723807489245 0 0 1 0 0 0 0 -1 forward_v I I I I #
coedge $-1 $295 $211 $296 $297 forward $127 $-1 #
coedge $-1 $298 $129 $295 $299 forward $81 $-1 #
coedge $-1 $129 $298 $300 $301 forward $81 $-1 #
coedge $-1 $214 $213 $129 $207 reversed $215 $-1 #
edge $-1 $302 -29.216922263615341 $303 29.216922263615341 $206 $304 forward 7 unknown #
coedge $-1 $131 $130 $305 $306 forward $51 $-1 #
coedge $-1 $307 $308 $130 $210 reversed $292 $-1 #
edge $-1 $217 -42.149723807489245 $309 42.149723807489245 $209 $310 forward 7 unknown #
coedge $-1 $203 $311 $131 $212 reversed $127 $-1 #
edge $-1 $312 -42.149723807489245 $216 42.149723807489245 $211 $313 forward 7 unknown #
coedge $-1 $206 $132 $311 $314 forward $215 $-1 #
coedge $-1 $132 $206 $307 $315 reversed $215 $-1 #
loop $-1 $-1 $213 $291 #
vertex $-1 $133 $316 #
vertex $-1 $133 $317 #
straight-curve $-1 42.149723807489245 0 7.5347684623013622 0 1 0 I I #
face $-1 $318 $319 $31 $-1 $320 forward single #
loop $-1 $-1 $321 $134 #
plane-surface $-1 -42.149723807489245 0 0 1 0 0 0 0 -1 forward_v I I I I #
coedge $-1 $229 $322 $231 $323 forward $135 $-1 #
coedge $-1 $137 $231 $324 $325 reversed $85 $-1 #
coedge $-1 $326 $227 $137 $225 forward $327 $-1 #
edge $-1 $233 1.2878229326668804 $328 4.5939046639786163 $224 $329 forward 7 unknown #
coedge $-1 $139 $138 $321 $330 reversed $54 $-1 #
coedge $-1 $224 $331 $138 $228 forward $327 $-1 #
edge $-1 $332 -22.681163152174392 $233 -16.2559581584553 $227 $333 forward 7 unknown #
coedge $-1 $334 $222 $139 $230 forward $135 $-1 #
edge $-1 $232 16.2559581584553 $335 22.681163152174392 $229 $336 forward 7 unknown #
coedge $-1 $223 $140 $222 $323 reversed $85 $-1 #
vertex $-1 $230 $337 #
vertex $-1 $228 $338 #
straight-curve $-1 -35.724518813770146 0 4.2286867309896286 0 -1 0 I I #
face $-1 $-1 $339 $32 $-1 $340 reversed single #
loop $-1 $-1 $148 $142 #
plane-surface $-1 0 0 7.5347684623013622 0 0 1 1 0 0 forward_v I I I I #
coedge $-1 $341 $342 $146 $244 forward $143 $-1 #
coedge $-1 $240 $145 $147 $245 reversed $89 $-1 #
coedge $-1 $145 $239 $343 $344 reversed $89 $-1 #
coedge $-1 $345 $148 $145 $242 forward $236 $-1 #
edge $-1 $248 -20.701439878365537 $346 -18.14802685051033 $241 $347 forward 7 unknown #
coedge $-1 $147 $146 $348 $349 reversed $57 $-1 #
edge $-1 $350 -7.490844186568772 $247 -3.4334306566197377 $238 $351 forward 7 unknown #
edge $-1 $352 2.8435082608453949e-014 $248 4.0574135299490628 $239 $353 forward 7 unknown #
coedge $-1 $148 $345 $341 $354 forward $236 $-1 #
vertex $-1 $149 $355 #
vertex $-1 $149 $356 #
straight-curve $-1 15.364888196485108 -26.663509235760134 7.5347684623013622 -1 0 0 I I #
coedge $-1 $250 $250 $-1 $357 reversed $152 $-1 #
edge $-1 $358 0 $358 6.2831853071796004 $153 $359 forward 7 unknown #
vertex $-1 $156 $360 #
ellipse-curve $-1 23.877807944258812 -27.940215749687738 5.958167176132851 0 -0.77714596973225614 0.62932038083071107 0.5 0 0 1 I I #
coedge $-1 $254 $254 $-1 $361 reversed $159 $-1 #
edge $-1 $362 0 $362 6.2831853071796004 $160 $363 forward 7 unknown #
vertex $-1 $163 $364 #
ellipse-curve $-1 30.729776392970216 -27.940215749687738 5.958167176132851 0 -0.77714596973225614 0.62932038083071107 0.5 0 0 1 I I #
coedge $-1 $258 $258 $-1 $365 reversed $166 $-1 #
edge $-1 $366 0 $366 6.2831853071796004 $167 $367 forward 7 unknown #
vertex $-1 $170 $368 #
ellipse-curve $-1 37.581744841681619 -27.940215749687738 5.958167176132851 0 -0.77714596973225614 0.62932038083071107 0.5 0 0 1 I I #
face $-1 $-1 $275 $36 $-1 $369 reversed single #
loop $-1 $-1 $271 $171 #
plane-surface $-1 42.149723807489245 0 0 -1 0 0 0 0 1 forward_v I I I I #
coedge $-1 $370 $371 $267 $372 forward $172 $-1 #
coedge $-1 $267 $174 $176 $273 reversed $108 $-1 #
coedge $-1 $174 $266 $265 $372 reversed $108 $-1 #
coedge $-1 $373 $177 $174 $269 forward $275 $-1 #
edge $-1 $277 -47.040710678605535 $374 -43.887508106268513 $268 $375 forward 7 unknown #
coedge $-1 $176 $175 $370 $376 reversed $69 $-1 #
coedge $-1 $377 $378 $175 $272 forward $263 $-1 #
edge $-1 $379 32.650352920235079 $276 36.707766450184117 $271 $380 forward 7 unknown #
edge $-1 $381 54.376430997281631 $277 58.433844527230669 $266 $382 forward 7 unknown #
coedge $-1 $177 $373 $377 $383 forward $275 $-1 #
loop $-1 $-1 $268 $262 #
vertex $-1 $272 $384 #
vertex $-1 $178 $385 #
straight-curve $-1 15.364888196485108 29.216922263615341 4.3815658899643424 -1 0 0 I I #
coedge $-1 $279 $279 $-1 $386 reversed $181 $-1 #
edge $-1 $387 0 $387 6.2831853071796004 $182 $388 forward 7 unknown #
vertex $-1 $185 $389 #
ellipse-curve $-1 23.877807944258812 27.940215749687734 5.9581671761328581 0 0.77714596973225614 0.62932038083071107 0.5 0 0 1 I I #
coedge $-1 $283 $283 $-1 $390 reversed $188 $-1 #
edge $-1 $391 0 $391 6.2831853071796004 $189 $392 forward 7 unknown #
vertex $-1 $192 $393 #
ellipse-curve $-1 30.729776392970216 27.940215749687734 5.9581671761328581 0 0.77714596973225614 0.62932038083071107 0.5 0 0 1 I I #
coedge $-1 $287 $287 $-1 $394 reversed $195 $-1 #
edge $-1 $395 0 $395 6.2831853071796004 $196 $396 forward 7 unknown #
vertex $-1 $199 $397 #
ellipse-curve $-1 37.581744841681619 27.940215749687734 5.9581671761328581 0 0.77714596973225614 0.62932038083071107 0.5 0 0 1 I I #
face $-1 $-1 $215 $30 $-1 $398 reversed single #
loop $-1 $-1 $307 $200 #
plane-surface $-1 0 29.216922263615341 0 0 -1 0 0 0 -1 forward_v I I I I #
coedge $-1 $399 $305 $308 $400 forward $201 $-1 #
coedge $-1 $311 $203 $204 $299 reversed $127 $-1 #
coedge $-1 $305 $399 $203 $297 reversed $201 $-1 #
edge $-1 $312 -7.5347684623013622 $401 7.5347684623013622 $296 $402 forward 7 unknown #
coedge $-1 $205 $204 $399 $403 forward $81 $-1 #
edge $-1 $303 -42.149723807489245 $401 42.149723807489245 $295 $404 forward 7 unknown #
coedge $-1 $308 $307 $205 $301 reversed $292 $-1 #
edge $-1 $405 -42.149723807489245 $302 42.149723807489245 $300 $406 forward 7 unknown #
vertex $-1 $207 $407 #
vertex $-1 $314 $408 #
straight-curve $-1 42.149723807489245 0 -7.5347684623013622 0 -1 0 I I #
coedge $-1 $294 $296 $208 $306 reversed $201 $-1 #
edge $-1 $309 -29.216922263615341 $312 29.216922263615341 $305 $409 forward 7 unknown #
coedge $-1 $300 $209 $214 $315 forward $292 $-1 #
coedge $-1 $209 $300 $294 $400 reversed $292 $-1 #
vertex $-1 $210 $410 #
straight-curve $-1 0 29.216922263615341 7.5347684623013622 -1 0 0 I I #
coedge $-1 $211 $295 $213 $314 reversed $127 $-1 #
vertex $-1 $306 $411 #
straight-curve $-1 0 -29.216922263615341 7.5347684623013622 1 0 0 I I #
edge $-1 $216 -7.5347684623013622 $303 7.5347684623013622 $213 $412 forward 7 unknown #
edge $-1 $217 -7.5347684623013622 $302 7.5347684623013622 $214 $413 forward 7 unknown #
point $-1 42.149723807489245 -29.216922263615341 7.5347684623013622 #
point $-1 42.149723807489245 29.216922263615341 7.5347684623013622 #
face $-1 $-1 $327 $31 $-1 $414 reversed single #
loop $-1 $-1 $324 $219 #
plane-surface $-1 0 0 7.5347684623013622 0 0 1 1 0 0 forward_v I I I I #
coedge $-1 $415 $416 $226 $330 forward $220 $-1 #
coedge $-1 $222 $334 $417 $418 reversed $135 $-1 #
edge $-1 $419 -4.5939046639786163 $232 -1.2878229326668804 $222 $420 forward 7 unknown #
coedge $-1 $417 $421 $223 $325 forward $319 $-1 #
edge $-1 $328 -29.216922263615341 $419 29.216922263615341 $324 $422 forward 7 unknown #
coedge $-1 $331 $224 $421 $423 reversed $327 $-1 #
loop $-1 $-1 $224 $318 #
vertex $-1 $225 $424 #
straight-curve $-1 -35.724518813770146 -29.216922263615341 2.9408637983227481 0 0 1 I I #
edge $-1 $335 -29.216922263615341 $332 29.216922263615341 $321 $425 forward 7 unknown #
coedge $-1 $227 $326 $415 $426 forward $327 $-1 #
vertex $-1 $330 $427 #
straight-curve $-1 -19.468560655314846 -29.216922263615341 4.2286867309896286 1 0 0 I I #
coedge $-1 $322 $229 $416 $428 reversed $135 $-1 #
vertex $-1 $330 $429 #
straight-curve $-1 -19.468560655314846 29.216922263615341 4.2286867309896286 -1 0 0 I I #
point $-1 -35.724518813770146 29.216922263615341 4.2286867309896286 #
point $-1 -35.724518813770146 -29.216922263615341 4.2286867309896286 #
loop $-1 $-1 $348 $235 #
plane-surface $-1 0 -29.216922263615341 0 0 1 0 0 0 1 forward_v I I I I #
coedge $-1 $342 $238 $246 $354 reversed $143 $-1 #
coedge $-1 $238 $341 $430 $431 forward $143 $-1 #
coedge $-1 $348 $432 $240 $344 forward $339 $-1 #
edge $-1 $346 21.181694721119221 $352 24.33489729345624 $343 $433 forward 7 unknown #
coedge $-1 $246 $241 $432 $434 forward $236 $-1 #
vertex $-1 $434 $435 #
straight-curve $-1 19.309828978451208 -47.364949114125672 7.5347684623013613 0 -1 0 I I #
coedge $-1 $430 $343 $243 $349 forward $339 $-1 #
edge $-1 $352 3.9449407819660998 $350 26.784835611004116 $348 $436 forward 7 unknown #
vertex $-1 $349 $437 #
straight-curve $-1 42.149723807489245 -24.502781347380363 10.203045259448565 0 0.62932038083071107 0.77714596973225614 I I #
vertex $-1 $349 $438 #
straight-curve $-1 19.309828978451208 -29.216922263615359 4.3815658899643211 0 0.62932038083071107 0.77714596973225614 I I #
edge $-1 $439 -29.216922263615341 $247 -26.663509235760134 $341 $440 forward 7 unknown #
point $-1 42.149723807489224 -26.663509235760134 7.5347684623013613 #
point $-1 19.309828978451208 -26.663509235760134 7.5347684623013613 #
edge $-1 $441 1 $441 0 $250 $-1 forward 7 unknown #
vertex $-1 $251 $442 #
ellipse-curve $-1 23.877807944258812 -27.163069779955478 5.3288467953021348 0 -0.77714596973225614 0.62932038083071107 0.5 0 0 1 I I #
point $-1 24.377807944258812 -27.940215749687734 5.9581671761328456 #
edge $-1 $443 1 $443 0 $254 $-1 forward 7 unknown #
vertex $-1 $255 $444 #
ellipse-curve $-1 30.729776392970216 -27.163069779955478 5.3288467953021348 0 -0.77714596973225614 0.62932038083071107 0.5 0 0 1 I I #
point $-1 31.229776392970216 -27.940215749687734 5.9581671761328456 #
edge $-1 $445 1 $445 0 $258 $-1 forward 7 unknown #
vertex $-1 $259 $446 #
ellipse-curve $-1 37.581744841681619 -27.163069779955478 5.3288467953021348 0 -0.77714596973225614 0.62932038083071107 0.5 0 0 1 I I #
point $-1 38.081744841681619 -27.940215749687734 5.9581671761328456 #
plane-surface $-1 0 29.216922263615341 0 0 -1 0 0 0 -1 forward_v I I I I #
coedge $-1 $447 $265 $270 $376 forward $172 $-1 #
coedge $-1 $265 $447 $373 $448 forward $172 $-1 #
edge $-1 $374 -0.23877779512936215 $381 2.3146352327258484 $265 $449 forward 7 unknown #
coedge $-1 $274 $268 $371 $448 reversed $275 $-1 #
vertex $-1 $372 $450 #
straight-curve $-1 19.309828978451208 29.216922263615341 51.422276568569877 0 0 1 I I #
edge $-1 $381 3.9449407819660998 $379 26.784835611004116 $370 $451 forward 7 unknown #
coedge $-1 $378 $271 $274 $383 reversed $263 $-1 #
coedge $-1 $271 $377 $447 $452 reversed $263 $-1 #
vertex $-1 $452 $453 #
straight-curve $-1 42.149723807489245 6.1159767017406725 32.908858644597856 0 0.62932038083071107 -0.77714596973225614 I I #
vertex $-1 $376 $454 #
straight-curve $-1 19.309828978451208 -7.5566870276640259 49.79319266026291 0 0.62932038083071107 -0.77714596973225614 I I #
edge $-1 $455 -7.5347684623013622 $276 -4.3815658899643379 $377 $456 forward 7 unknown #
point $-1 42.149723807489245 29.216922263615341 4.3815658899643379 #
point $-1 19.309828978451208 29.216922263615345 4.3815658899643424 #
edge $-1 $457 1 $457 0 $279 $-1 forward 7 unknown #
vertex $-1 $280 $458 #
ellipse-curve $-1 23.877807944258812 27.163069779955467 5.3288467953021383 0 0.77714596973225614 0.62932038083071107 0.5 0 0 1 I I #
point $-1 24.377807944258812 27.940215749687724 5.9581671761328492 #
edge $-1 $459 1 $459 0 $283 $-1 forward 7 unknown #
vertex $-1 $284 $460 #
ellipse-curve $-1 30.729776392970216 27.163069779955467 5.3288467953021383 0 0.77714596973225614 0.62932038083071107 0.5 0 0 1 I I #
point $-1 31.229776392970216 27.940215749687724 5.9581671761328492 #
edge $-1 $461 1 $461 0 $287 $-1 forward 7 unknown #
vertex $-1 $288 $462 #
ellipse-curve $-1 37.581744841681619 27.163069779955467 5.3288467953021383 0 0.77714596973225614 0.62932038083071107 0.5 0 0 1 I I #
point $-1 38.081744841681619 27.940215749687724 5.9581671761328492 #
plane-surface $-1 42.149723807489245 0 0 -1 0 0 0 0 1 forward_v I I I I #
coedge $-1 $296 $294 $298 $403 reversed $201 $-1 #
edge $-1 $309 -7.5347684623013622 $405 7.5347684623013622 $308 $463 forward 7 unknown #
vertex $-1 $403 $464 #
straight-curve $-1 -42.149723807489245 -29.216922263615341 0 0 0 -1 I I #
edge $-1 $401 -29.216922263615341 $405 29.216922263615341 $399 $465 forward 7 unknown #
straight-curve $-1 0 -29.216922263615341 -7.5347684623013622 -1 0 0 I I #
vertex $-1 $301 $466 #
straight-curve $-1 0 29.216922263615341 -7.5347684623013622 1 0 0 I I #
point $-1 42.149723807489245 29.216922263615341 -7.5347684623013622 #
point $-1 42.149723807489245 -29.216922263615341 -7.5347684623013622 #
straight-curve $-1 -42.149723807489245 0 7.5347684623013622 0 -1 0 I I #
point $-1 -42.149723807489245 29.216922263615341 7.5347684623013622 #
point $-1 -42.149723807489245 -29.216922263615341 7.5347684623013622 #
straight-curve $-1 42.149723807489245 -29.216922263615341 0 0 0 -1 I I #
straight-curve $-1 42.149723807489245 29.216922263615341 0 0 0 -1 I I #
plane-surface $-1 0 -29.216922263615341 0 0 1 0 0 0 1 forward_v I I I I #
coedge $-1 $467 $321 $331 $426 reversed $220 $-1 #
coedge $-1 $321 $467 $334 $428 forward $220 $-1 #
coedge $-1 $468 $324 $322 $418 forward $319 $-1 #
edge $-1 $419 35.724518813770146 $469 42.149723807489245 $322 $470 forward 7 unknown #
vertex $-1 $418 $471 #
straight-curve $-1 -35.724518813770146 29.216922263615341 2.9408637983227481 0 0 -1 I I #
coedge $-1 $324 $468 $326 $423 forward $319 $-1 #
straight-curve $-1 -35.724518813770146 0 7.5347684623013622 0 1 0 I I #
edge $-1 $472 -42.149723807489245 $328 -35.724518813770146 $326 $473 forward 7 unknown #
point $-1 -35.724518813770146 -29.216922263615341 7.534768462301364 #
straight-curve $-1 -42.149723807489245 0 4.2286867309896286 0 -1 0 I I #
edge $-1 $472 -7.5347684623013622 $332 -4.2286867309896286 $415 $474 forward 7 unknown #
point $-1 -42.149723807489238 -29.216922263615341 4.2286867309896286 #
edge $-1 $469 -7.5347684623013622 $335 -4.2286867309896286 $334 $475 forward 7 unknown #
point $-1 -42.149723807489238 29.216922263615341 4.2286867309896286 #
coedge $-1 $432 $348 $342 $431 reversed $339 $-1 #
edge $-1 $439 -7.5347684623013622 $350 -4.3815658899643433 $342 $476 forward 7 unknown #
coedge $-1 $343 $430 $345 $434 reversed $339 $-1 #
straight-curve $-1 19.309828978451208 -29.216922263615338 28.716463183420583 0 0 -1 I I #
edge $-1 $346 19.309828978451208 $439 42.149723807489245 $432 $477 forward 7 unknown #
point $-1 19.309828978451208 -29.216922263615341 7.5347684623013622 #
straight-curve $-1 15.364888196485108 -29.216922263615341 4.3815658899643459 1 0 0 I I #
point $-1 42.149723807489224 -29.216922263615341 4.3815658899643433 #
point $-1 19.309828978451208 -29.216922263615341 4.3815658899643433 #
vertex $-1 $354 $478 #
straight-curve $-1 42.149723807489245 0 7.5347684623013622 0 1 0 I I #
vertex $-1 $357 $479 #
point $-1 24.377807944258812 -27.163069779955478 5.3288467953021348 #
vertex $-1 $361 $480 #
point $-1 31.229776392970216 -27.163069779955478 5.3288467953021348 #
vertex $-1 $365 $481 #
point $-1 38.081744841681619 -27.163069779955478 5.3288467953021348 #
coedge $-1 $371 $370 $378 $452 forward $172 $-1 #
edge $-1 $455 -42.149723807489245 $374 -19.309828978451208 $373 $482 forward 7 unknown #
straight-curve $-1 19.309828978451208 28.978144468485979 7.5347684623013649 0 -1 0 I I #
point $-1 19.309828978451208 29.216922263615341 7.5347684623013622 #
straight-curve $-1 15.364888196485108 26.663509235760134 7.5347684623013578 1 0 0 I I #
edge $-1 $379 26.663509235760131 $455 29.216922263615341 $378 $483 forward 7 unknown #
point $-1 42.149723807489224 26.663509235760131 7.5347684623013649 #
point $-1 19.309828978451208 26.663509235760131 7.5347684623013649 #
vertex $-1 $452 $484 #
straight-curve $-1 42.149723807489245 29.216922263615341 0 0 0 -1 I I #
vertex $-1 $386 $485 #
point $-1 24.377807944258812 27.163069779955467 5.3288467953021383 #
vertex $-1 $390 $486 #
point $-1 31.229776392970216 27.163069779955467 5.3288467953021383 #
vertex $-1 $394 $487 #
point $-1 38.081744841681619 27.163069779955467 5.3288467953021383 #
straight-curve $-1 -42.149723807489245 29.216922263615341 0 0 0 -1 I I #
point $-1 -42.149723807489245 -29.216922263615341 -7.5347684623013622 #
straight-curve $-1 -42.149723807489245 0 -7.5347684623013622 0 1 0 I I #
point $-1 -42.149723807489245 29.216922263615341 -7.5347684623013622 #
coedge $-1 $416 $415 $468 $488 reversed $220 $-1 #
coedge $-1 $421 $417 $467 $488 forward $319 $-1 #
vertex $-1 $418 $489 #
straight-curve $-1 0 29.216922263615341 7.5347684623013622 -1 0 0 I I #
point $-1 -35.724518813770146 29.216922263615341 7.534768462301364 #
vertex $-1 $488 $490 #
straight-curve $-1 0 -29.216922263615341 7.5347684623013622 1 0 0 I I #
straight-curve $-1 -42.149723807489245 -29.216922263615341 0 0 0 -1 I I #
straight-curve $-1 -42.149723807489245 29.216922263615341 0 0 0 -1 I I #
straight-curve $-1 42.149723807489245 -29.216922263615341 0 0 0 -1 I I #
straight-curve $-1 0 -29.216922263615341 7.5347684623013622 1 0 0 I I #
point $-1 42.149723807489245 -29.216922263615341 7.5347684623013622 #
point $-1 23.877807944258812 -26.774496795089348 5.0141866048867785 #
point $-1 30.729776392970216 -26.774496795089348 5.0141866048867785 #
point $-1 37.581744841681619 -26.774496795089348 5.0141866048867785 #
straight-curve $-1 0 29.216922263615341 7.5347684623013622 -1 0 0 I I #
straight-curve $-1 42.149723807489245 0 7.5347684623013622 0 1 0 I I #
point $-1 42.149723807489245 29.216922263615341 7.5347684623013622 #
point $-1 23.877807944258812 26.774496795089338 5.014186604886782 #
point $-1 30.729776392970216 26.774496795089338 5.014186604886782 #
point $-1 37.581744841681619 26.774496795089338 5.014186604886782 #
edge $-1 $469 -29.216922263615341 $472 29.216922263615341 $467 $491 forward 7 unknown #
point $-1 -42.149723807489245 29.216922263615341 7.5347684623013622 #
point $-1 -42.149723807489245 -29.216922263615341 7.5347684623013622 #
straight-curve $-1 -42.149723807489245 0 7.5347684623013622 0 -1 0 I I #
End-of-ACIS-data 