500 0 18 0           
7 Unknown 11 ACIS 5.0 NT 24 Fri Mar 26 01:11:44 1999 
-1 9.9999999999999995e-007 1e-010 
body $-1 $18 $-1 $19 #
body $-1 $20 $-1 $21 #
body $-1 $22 $-1 $23 #
body $-1 $24 $-1 $25 #
body $-1 $26 $-1 $27 #
body $-1 $28 $-1 $29 #
body $-1 $30 $-1 $31 #
body $-1 $32 $-1 $33 #
body $-1 $34 $-1 $35 #
body $-1 $36 $-1 $37 #
body $-1 $38 $-1 $39 #
body $-1 $40 $-1 $41 #
body $-1 $42 $-1 $43 #
body $-1 $44 $-1 $45 #
body $-1 $46 $-1 $47 #
body $-1 $48 $-1 $49 #
body $-1 $50 $-1 $51 #
body $-1 $52 $-1 $53 #
lump $-1 $-1 $54 $0 #
transform $-1 1 0 0 0 1 0 0 0 1 52.590716269417399 21.291479961144972 5.523815764326713 1 rotate no_reflect no_shear #
lump $-1 $-1 $55 $1 #
transform $-1 1 0 0 0 1 0 0 0 1 52.590716269417399 21.291479961144972 5.523815764326713 1 rotate no_reflect no_shear #
lump $-1 $-1 $56 $2 #
transform $-1 1 0 0 0 1 0 0 0 1 52.590716269417399 21.291479961144972 5.523815764326713 1 rotate no_reflect no_shear #
lump $-1 $-1 $57 $3 #
transform $-1 1 0 0 0 1 0 0 0 1 52.590716269417399 21.291479961144972 5.523815764326713 1 rotate no_reflect no_shear #
lump $-1 $-1 $58 $4 #
transform $-1 1 0 0 0 1 0 0 0 1 52.590716269417399 21.291479961144972 5.523815764326713 1 rotate no_reflect no_shear #
lump $-1 $-1 $59 $5 #
transform $-1 1 0 0 0 1 0 0 0 1 52.590716269417399 21.291479961144972 5.523815764326713 1 rotate no_reflect no_shear #
lump $-1 $-1 $60 $6 #
transform $-1 1 0 0 0 1 0 0 0 1 52.590716269417399 21.291479961144972 5.523815764326713 1 rotate no_reflect no_shear #
lump $-1 $-1 $61 $7 #
transform $-1 1 0 0 0 1 0 0 0 1 52.590716269417399 21.291479961144972 5.523815764326713 1 rotate no_reflect no_shear #
lump $-1 $-1 $62 $8 #
transform $-1 1 0 0 0 1 0 0 0 1 52.590716269417399 21.291479961144972 5.523815764326713 1 rotate no_reflect no_shear #
lump $-1 $-1 $63 $9 #
transform $-1 1 0 0 0 1 0 0 0 1 52.590716269417399 21.291479961144972 5.523815764326713 1 rotate no_reflect no_shear #
lump $-1 $-1 $64 $10 #
transform $-1 1 0 0 0 1 0 0 0 1 52.590716269417399 21.291479961144972 5.523815764326713 1 rotate no_reflect no_shear #
lump $-1 $-1 $65 $11 #
transform $-1 1 0 0 0 1 0 0 0 1 52.590716269417399 21.291479961144972 5.523815764326713 1 rotate no_reflect no_shear #
lump $-1 $-1 $66 $12 #
transform $-1 1 0 0 0 1 0 0 0 1 52.590716269417399 21.291479961144972 5.523815764326713 1 rotate no_reflect no_shear #
lump $-1 $-1 $67 $13 #
transform $-1 1 0 0 0 1 0 0 0 1 52.590716269417399 21.291479961144972 5.523815764326713 1 rotate no_reflect no_shear #
lump $-1 $-1 $68 $14 #
transform $-1 1 0 0 0 1 0 0 0 1 52.590716269417399 21.291479961144972 5.523815764326713 1 rotate no_reflect no_shear #
lump $-1 $-1 $69 $15 #
transform $-1 1 0 0 0 1 0 0 0 1 52.590716269417399 21.291479961144972 5.523815764326713 1 rotate no_reflect no_shear #
lump $-1 $-1 $70 $16 #
transform $-1 1 0 0 0 1 0 0 0 1 52.590716269417399 21.291479961144972 5.523815764326713 1 rotate no_reflect no_shear #
lump $-1 $-1 $71 $17 #
transform $-1 1 0 0 0 1 0 0 0 1 52.590716269417399 21.291479961144972 5.523815764326713 1 rotate no_reflect no_shear #
shell $-1 $-1 $-1 $72 $-1 $18 #
shell $-1 $-1 $-1 $73 $-1 $20 #
shell $-1 $-1 $-1 $74 $-1 $22 #
shell $-1 $-1 $-1 $75 $-1 $24 #
shell $-1 $-1 $-1 $76 $-1 $26 #
shell $-1 $-1 $-1 $77 $-1 $28 #
shell $-1 $-1 $-1 $78 $-1 $30 #
shell $-1 $-1 $-1 $79 $-1 $32 #
shell $-1 $-1 $-1 $80 $-1 $34 #
shell $-1 $-1 $-1 $81 $-1 $36 #
shell $-1 $-1 $-1 $82 $-1 $38 #
shell $-1 $-1 $-1 $83 $-1 $40 #
shell $-1 $-1 $-1 $84 $-1 $42 #
shell $-1 $-1 $-1 $85 $-1 $44 #
shell $-1 $-1 $-1 $86 $-1 $46 #
shell $-1 $-1 $-1 $87 $-1 $48 #
shell $-1 $-1 $-1 $88 $-1 $50 #
shell $-1 $-1 $-1 $89 $-1 $52 #
face $-1 $90 $91 $54 $-1 $92 forward single #
face $-1 $93 $94 $55 $-1 $95 forward single #
face $-1 $96 $97 $56 $-1 $98 reversed single #
face $-1 $99 $100 $57 $-1 $101 forward single #
face $-1 $102 $103 $58 $-1 $104 forward single #
face $-1 $105 $106 $59 $-1 $107 forward single #
face $-1 $108 $109 $60 $-1 $110 reversed single #
face $-1 $111 $112 $61 $-1 $113 forward single #
face $-1 $114 $115 $62 $-1 $116 forward single #
face $-1 $117 $118 $63 $-1 $119 forward single #
face $-1 $120 $121 $64 $-1 $122 reversed single #
face $-1 $123 $124 $65 $-1 $125 forward single #
face $-1 $126 $127 $66 $-1 $128 forward single #
face $-1 $129 $130 $67 $-1 $131 forward single #
face $-1 $132 $133 $68 $-1 $134 reversed single #
face $-1 $135 $136 $69 $-1 $137 forward single #
face $-1 $138 $139 $70 $-1 $140 forward single #
face $-1 $141 $142 $71 $-1 $143 forward single #
face $-1 $144 $145 $54 $-1 $146 reversed single #
loop $-1 $-1 $147 $72 #
plane-surface $-1 0 0 5.523815764326713 0 0 1 1 0 0 forward_v I I I I #
face $-1 $148 $149 $55 $-1 $150 reversed single #
loop $-1 $-1 $151 $73 #
plane-surface $-1 -52.590716269417399 0 0 1 0 0 0 0 -1 forward_v I I I I #
face $-1 $152 $153 $56 $-1 $154 reversed single #
loop $-1 $-1 $155 $74 #
plane-surface $-1 -38.691881524584915 72.735980699429007 103.55697648731035 1 0 0 0 -0.75470958851134928 -0.65605901945558964 forward_v I I I I #
face $-1 $156 $157 $57 $-1 $158 forward single #
loop $-1 $159 $160 $75 #
cone-surface $-1 -36.121086456104955 19.562456068949199 3.6408687876362711 0 -0.75470958851134928 -0.65605901945558964 0.25 0 0 1 I I 0 1 0.25 forward I I I I #
face $-1 $161 $162 $58 $-1 $163 forward single #
loop $-1 $164 $165 $76 #
cone-surface $-1 -32.264893853385011 19.562456068949199 3.6408687876362711 0 -0.75470958851134928 -0.65605901945558964 0.25 0 0 1 I I 0 1 0.25 forward I I I I #
face $-1 $166 $167 $59 $-1 $168 forward single #
loop $-1 $169 $170 $77 #
cone-surface $-1 -28.408701250665068 19.562456068949199 3.6408687876362711 0 -0.75470958851134928 -0.65605901945558964 0.25 0 0 1 I I 0 1 0.25 forward I I I I #
face $-1 $171 $172 $60 $-1 $173 reversed single #
loop $-1 $-1 $174 $78 #
plane-surface $-1 -13.833164750633452 72.735980699429007 103.55697648731035 1 0 0 0 -0.75470958851134928 -0.65605901945558964 forward_v I I I I #
face $-1 $175 $176 $61 $-1 $177 forward single #
loop $-1 $178 $179 $79 #
cone-surface $-1 -11.262369682153491 19.562456068949199 3.6408687876362711 0 -0.75470958851134928 -0.65605901945558964 0.25 0 0 1 I I 0 1 0.25 forward I I I I #
face $-1 $180 $181 $62 $-1 $182 forward single #
loop $-1 $183 $184 $80 #
cone-surface $-1 -7.4061770794335473 19.562456068949199 3.6408687876362711 0 -0.75470958851134928 -0.65605901945558964 0.25 0 0 1 I I 0 1 0.25 forward I I I I #
face $-1 $185 $186 $63 $-1 $187 forward single #
loop $-1 $188 $189 $81 #
cone-surface $-1 -3.549984476713604 19.562456068949199 3.6408687876362711 0 -0.75470958851134928 -0.65605901945558964 0.25 0 0 1 I I 0 1 0.25 forward I I I I #
face $-1 $190 $191 $64 $-1 $192 reversed single #
loop $-1 $-1 $193 $82 #
plane-surface $-1 11.025552023318019 72.735980699429007 103.55697648731035 1 0 0 0 -0.75470958851134928 -0.65605901945558964 forward_v I I I I #
face $-1 $194 $195 $65 $-1 $196 forward single #
loop $-1 $197 $198 $83 #
cone-surface $-1 13.596347091797981 19.562456068949199 3.6408687876362711 0 -0.75470958851134928 -0.65605901945558964 0.25 0 0 1 I I 0 1 0.25 forward I I I I #
face $-1 $199 $200 $66 $-1 $201 forward single #
loop $-1 $202 $203 $84 #
cone-surface $-1 17.452539694517924 19.562456068949199 3.6408687876362711 0 -0.75470958851134928 -0.65605901945558964 0.25 0 0 1 I I 0 1 0.25 forward I I I I #
face $-1 $204 $205 $67 $-1 $206 forward single #
loop $-1 $207 $208 $85 #
cone-surface $-1 21.308732297237867 19.562456068949199 3.6408687876362711 0 -0.75470958851134928 -0.65605901945558964 0.25 0 0 1 I I 0 1 0.25 forward I I I I #
face $-1 $209 $210 $68 $-1 $211 reversed single #
loop $-1 $-1 $212 $86 #
plane-surface $-1 35.884268797269492 72.735980699429007 103.55697648731035 1 0 0 0 -0.75470958851134928 -0.65605901945558964 forward_v I I I I #
face $-1 $213 $214 $69 $-1 $215 forward single #
loop $-1 $216 $217 $87 #
cone-surface $-1 38.455063865749452 19.562456068949199 3.6408687876362711 0 -0.75470958851134928 -0.65605901945558964 0.25 0 0 1 I I 0 1 0.25 forward I I I I #
face $-1 $218 $219 $70 $-1 $220 forward single #
loop $-1 $221 $222 $88 #
cone-surface $-1 42.311256468469395 19.562456068949199 3.6408687876362711 0 -0.75470958851134928 -0.65605901945558964 0.25 0 0 1 I I 0 1 0.25 forward I I I I #
face $-1 $223 $224 $71 $-1 $225 forward single #
loop $-1 $226 $227 $89 #
cone-surface $-1 46.167449071189338 19.562456068949199 3.6408687876362711 0 -0.75470958851134928 -0.65605901945558964 0.25 0 0 1 I I 0 1 0.25 forward I I I I #
face $-1 $228 $229 $54 $-1 $230 reversed single #
loop $-1 $-1 $231 $90 #
plane-surface $-1 0 0 -5.523815764326713 0 0 1 1 0 0 forward_v I I I I #
coedge $-1 $232 $233 $234 $235 forward $91 $-1 #
face $-1 $236 $237 $55 $-1 $238 reversed single #
loop $-1 $-1 $239 $93 #
plane-surface $-1 0 21.291479961144972 0 0 -1 0 0 0 -1 forward_v I I I I #
coedge $-1 $240 $241 $242 $243 forward $94 $-1 #
face $-1 $244 $245 $56 $-1 $246 reversed single #
loop $-1 $-1 $247 $96 #
plane-surface $-1 -32.264893853385011 -6.645454970989249 34.551748990948141 0 0.75470958851134928 0.65605901945558964 1 0 0 forward_v I I I I #
coedge $-1 $248 $249 $250 $251 reversed $97 $-1 #
face $-1 $-1 $252 $57 $-1 $253 forward single #
loop $-1 $254 $255 $99 #
cone-surface $-1 -36.121086456104955 19.090762576129606 3.2308319004765274 0 -0.75470958851134928 -0.65605901945558964 0.125 0 0 1 I I -0.70710678118654746 0.70710678118654746 0.125 forward I I I I #
loop $-1 $-1 $256 $75 #
coedge $-1 $160 $160 $257 $258 reversed $100 $-1 #
face $-1 $-1 $259 $58 $-1 $260 forward single #
loop $-1 $261 $262 $102 #
cone-surface $-1 -32.264893853385011 19.090762576129606 3.2308319004765274 0 -0.75470958851134928 -0.65605901945558964 0.125 0 0 1 I I -0.70710678118654746 0.70710678118654746 0.125 forward I I I I #
loop $-1 $-1 $263 $76 #
coedge $-1 $165 $165 $264 $265 reversed $103 $-1 #
face $-1 $-1 $266 $59 $-1 $267 forward single #
loop $-1 $268 $269 $105 #
cone-surface $-1 -28.408701250665068 19.090762576129606 3.2308319004765274 0 -0.75470958851134928 -0.65605901945558964 0.125 0 0 1 I I -0.70710678118654746 0.70710678118654746 0.125 forward I I I I #
loop $-1 $-1 $270 $77 #
coedge $-1 $170 $170 $271 $272 reversed $106 $-1 #
face $-1 $273 $274 $60 $-1 $275 reversed single #
loop $-1 $-1 $276 $108 #
plane-surface $-1 -7.4061770794335473 -6.645454970989249 34.551748990948141 0 0.75470958851134928 0.65605901945558964 1 0 0 forward_v I I I I #
coedge $-1 $277 $278 $279 $280 reversed $109 $-1 #
face $-1 $-1 $281 $61 $-1 $282 forward single #
loop $-1 $283 $284 $111 #
cone-surface $-1 -11.262369682153491 19.090762576129606 3.2308319004765274 0 -0.75470958851134928 -0.65605901945558964 0.125 0 0 1 I I -0.70710678118654746 0.70710678118654746 0.125 forward I I I I #
loop $-1 $-1 $285 $79 #
coedge $-1 $179 $179 $286 $287 reversed $112 $-1 #
face $-1 $-1 $288 $62 $-1 $289 forward single #
loop $-1 $290 $291 $114 #
cone-surface $-1 -7.4061770794335473 19.090762576129606 3.2308319004765274 0 -0.75470958851134928 -0.65605901945558964 0.125 0 0 1 I I -0.70710678118654746 0.70710678118654746 0.125 forward I I I I #
loop $-1 $-1 $292 $80 #
coedge $-1 $184 $184 $293 $294 reversed $115 $-1 #
face $-1 $-1 $295 $63 $-1 $296 forward single #
loop $-1 $297 $298 $117 #
cone-surface $-1 -3.549984476713604 19.090762576129606 3.2308319004765274 0 -0.75470958851134928 -0.65605901945558964 0.125 0 0 1 I I -0.70710678118654746 0.70710678118654746 0.125 forward I I I I #
loop $-1 $-1 $299 $81 #
coedge $-1 $189 $189 $300 $301 reversed $118 $-1 #
face $-1 $302 $303 $64 $-1 $304 reversed single #
loop $-1 $-1 $305 $120 #
plane-surface $-1 17.452539694517924 -6.645454970989249 34.551748990948141 0 0.75470958851134928 0.65605901945558964 1 0 0 forward_v I I I I #
coedge $-1 $306 $307 $308 $309 reversed $121 $-1 #
face $-1 $-1 $310 $65 $-1 $311 forward single #
loop $-1 $312 $313 $123 #
cone-surface $-1 13.596347091797981 19.090762576129606 3.2308319004765274 0 -0.75470958851134928 -0.65605901945558964 0.125 0 0 1 I I -0.70710678118654746 0.70710678118654746 0.125 forward I I I I #
loop $-1 $-1 $314 $83 #
coedge $-1 $198 $198 $315 $316 reversed $124 $-1 #
face $-1 $-1 $317 $66 $-1 $318 forward single #
loop $-1 $319 $320 $126 #
cone-surface $-1 17.452539694517924 19.090762576129606 3.2308319004765274 0 -0.75470958851134928 -0.65605901945558964 0.125 0 0 1 I I -0.70710678118654746 0.70710678118654746 0.125 forward I I I I #
loop $-1 $-1 $321 $84 #
coedge $-1 $203 $203 $322 $323 reversed $127 $-1 #
face $-1 $-1 $324 $67 $-1 $325 forward single #
loop $-1 $326 $327 $129 #
cone-surface $-1 21.308732297237867 19.090762576129606 3.2308319004765274 0 -0.75470958851134928 -0.65605901945558964 0.125 0 0 1 I I -0.70710678118654746 0.70710678118654746 0.125 forward I I I I #
loop $-1 $-1 $328 $85 #
coedge $-1 $208 $208 $329 $330 reversed $130 $-1 #
face $-1 $331 $332 $68 $-1 $333 reversed single #
loop $-1 $-1 $334 $132 #
plane-surface $-1 42.311256468469395 -6.645454970989249 34.551748990948141 0 0.75470958851134928 0.65605901945558964 1 0 0 forward_v I I I I #
coedge $-1 $335 $336 $337 $338 reversed $133 $-1 #
face $-1 $-1 $339 $69 $-1 $340 forward single #
loop $-1 $341 $342 $135 #
cone-surface $-1 38.455063865749452 19.090762576129606 3.2308319004765274 0 -0.75470958851134928 -0.65605901945558964 0.125 0 0 1 I I -0.70710678118654746 0.70710678118654746 0.125 forward I I I I #
loop $-1 $-1 $343 $87 #
coedge $-1 $217 $217 $344 $345 reversed $136 $-1 #
face $-1 $-1 $346 $70 $-1 $347 forward single #
loop $-1 $348 $349 $138 #
cone-surface $-1 42.311256468469395 19.090762576129606 3.2308319004765274 0 -0.75470958851134928 -0.65605901945558964 0.125 0 0 1 I I -0.70710678118654746 0.70710678118654746 0.125 forward I I I I #
loop $-1 $-1 $350 $88 #
coedge $-1 $222 $222 $351 $352 reversed $139 $-1 #
face $-1 $-1 $353 $71 $-1 $354 forward single #
loop $-1 $355 $356 $141 #
cone-surface $-1 46.167449071189338 19.090762576129606 3.2308319004765274 0 -0.75470958851134928 -0.65605901945558964 0.125 0 0 1 I I -0.70710678118654746 0.70710678118654746 0.125 forward I I I I #
loop $-1 $-1 $357 $89 #
coedge $-1 $227 $227 $358 $359 reversed $142 $-1 #
face $-1 $360 $361 $54 $-1 $362 reversed single #
loop $-1 $-1 $363 $144 #
plane-surface $-1 0 -21.291479961144972 0 0 1 0 0 0 1 forward_v I I I I #
coedge $-1 $364 $365 $366 $367 forward $145 $-1 #
coedge $-1 $368 $147 $369 $370 forward $91 $-1 #
coedge $-1 $147 $368 $371 $372 forward $91 $-1 #
coedge $-1 $373 $374 $147 $235 reversed $375 $-1 #
edge $-1 $376 -21.291479961144972 $377 21.291479961144972 $234 $378 forward 7 unknown #
face $-1 $379 $380 $55 $-1 $381 reversed single #
loop $-1 $-1 $242 $148 #
plane-surface $-1 -55.463998990931863 0 2.523815764326713 0 0 1 1 0 0 forward_v I I I I #
coedge $-1 $382 $383 $240 $384 forward $149 $-1 #
coedge $-1 $385 $151 $239 $384 reversed $94 $-1 #
coedge $-1 $151 $385 $386 $387 reversed $94 $-1 #
coedge $-1 $388 $389 $151 $243 reversed $237 $-1 #
edge $-1 $390 -21.291479961144972 $391 21.291479961144972 $242 $392 forward 7 unknown #
face $-1 $393 $394 $56 $-1 $395 forward single #
loop $-1 $-1 $396 $152 #
plane-surface $-1 -25.837906182185108 72.735980699429007 103.55697648731035 -1 0 0 0 0.75470958851134928 0.65605901945558964 forward_v I I I I #
coedge $-1 $397 $398 $399 $400 reversed $153 $-1 #
coedge $-1 $249 $155 $401 $402 reversed $97 $-1 #
coedge $-1 $155 $248 $397 $403 reversed $97 $-1 #
coedge $-1 $399 $404 $155 $251 forward $394 $-1 #
edge $-1 $405 15.076510388569531 $406 17.779848584449748 $250 $407 forward 7 unknown #
loop $-1 $-1 $257 $156 #
plane-surface $-1 -32.264893853385011 -6.645454970989249 34.551748990948141 0 0.75470958851134928 0.65605901945558964 1 0 0 forward_v I I I I #
loop $-1 $-1 $408 $99 #
coedge $-1 $255 $255 $256 $409 reversed $157 $-1 #
coedge $-1 $256 $256 $255 $409 forward $159 $-1 #
coedge $-1 $257 $257 $160 $258 forward $252 $-1 #
edge $-1 $410 -1.4631842695337219e-015 $410 6.2831853071795987 $257 $411 forward 7 unknown #
loop $-1 $-1 $264 $161 #
plane-surface $-1 -32.264893853385011 -6.645454970989249 34.551748990948141 0 0.75470958851134928 0.65605901945558964 1 0 0 forward_v I I I I #
loop $-1 $-1 $412 $102 #
coedge $-1 $262 $262 $263 $413 reversed $162 $-1 #
coedge $-1 $263 $263 $262 $413 forward $164 $-1 #
coedge $-1 $264 $264 $165 $265 forward $259 $-1 #
edge $-1 $414 -1.4631842695337219e-015 $414 6.2831853071795987 $264 $415 forward 7 unknown #
loop $-1 $-1 $271 $166 #
plane-surface $-1 -32.264893853385011 -6.645454970989249 34.551748990948141 0 0.75470958851134928 0.65605901945558964 1 0 0 forward_v I I I I #
loop $-1 $-1 $416 $105 #
coedge $-1 $269 $269 $270 $417 reversed $167 $-1 #
coedge $-1 $270 $270 $269 $417 forward $169 $-1 #
coedge $-1 $271 $271 $170 $272 forward $266 $-1 #
edge $-1 $418 -1.4631842695337219e-015 $418 6.2831853071795987 $271 $419 forward 7 unknown #
face $-1 $420 $421 $60 $-1 $422 forward single #
loop $-1 $-1 $423 $171 #
plane-surface $-1 -0.97918940823364231 72.735980699429007 103.55697648731035 -1 0 0 0 0.75470958851134928 0.65605901945558964 forward_v I I I I #
coedge $-1 $424 $425 $426 $427 reversed $172 $-1 #
coedge $-1 $278 $174 $428 $429 reversed $109 $-1 #
coedge $-1 $174 $277 $424 $430 reversed $109 $-1 #
coedge $-1 $426 $431 $174 $280 forward $421 $-1 #
edge $-1 $432 15.076510388569531 $433 17.779848584449748 $279 $434 forward 7 unknown #
loop $-1 $-1 $286 $175 #
plane-surface $-1 -7.4061770794335473 -6.645454970989249 34.551748990948141 0 0.75470958851134928 0.65605901945558964 1 0 0 forward_v I I I I #
loop $-1 $-1 $435 $111 #
coedge $-1 $284 $284 $285 $436 reversed $176 $-1 #
coedge $-1 $285 $285 $284 $436 forward $178 $-1 #
coedge $-1 $286 $286 $179 $287 forward $281 $-1 #
edge $-1 $437 -1.4631842695337219e-015 $437 6.2831853071795987 $286 $438 forward 7 unknown #
loop $-1 $-1 $293 $180 #
plane-surface $-1 -7.4061770794335473 -6.645454970989249 34.551748990948141 0 0.75470958851134928 0.65605901945558964 1 0 0 forward_v I I I I #
loop $-1 $-1 $439 $114 #
coedge $-1 $291 $291 $292 $440 reversed $181 $-1 #
coedge $-1 $292 $292 $291 $440 forward $183 $-1 #
coedge $-1 $293 $293 $184 $294 forward $288 $-1 #
edge $-1 $441 -1.4631842695337219e-015 $441 6.2831853071795987 $293 $442 forward 7 unknown #
loop $-1 $-1 $300 $185 #
plane-surface $-1 -7.4061770794335473 -6.645454970989249 34.551748990948141 0 0.75470958851134928 0.65605901945558964 1 0 0 forward_v I I I I #
loop $-1 $-1 $443 $117 #
coedge $-1 $298 $298 $299 $444 reversed $186 $-1 #
coedge $-1 $299 $299 $298 $444 forward $188 $-1 #
coedge $-1 $300 $300 $189 $301 forward $295 $-1 #
edge $-1 $445 -1.4631842695337219e-015 $445 6.2831853071795987 $300 $446 forward 7 unknown #
face $-1 $447 $448 $64 $-1 $449 forward single #
loop $-1 $-1 $450 $190 #
plane-surface $-1 23.879527365717827 72.735980699429007 103.55697648731035 -1 0 0 0 0.75470958851134928 0.65605901945558964 forward_v I I I I #
coedge $-1 $451 $452 $453 $454 reversed $191 $-1 #
coedge $-1 $307 $193 $455 $456 reversed $121 $-1 #
coedge $-1 $193 $306 $451 $457 reversed $121 $-1 #
coedge $-1 $453 $458 $193 $309 forward $448 $-1 #
edge $-1 $459 15.076510388569531 $460 17.779848584449748 $308 $461 forward 7 unknown #
loop $-1 $-1 $315 $194 #
plane-surface $-1 17.452539694517924 -6.645454970989249 34.551748990948141 0 0.75470958851134928 0.65605901945558964 1 0 0 forward_v I I I I #
loop $-1 $-1 $462 $123 #
coedge $-1 $313 $313 $314 $463 reversed $195 $-1 #
coedge $-1 $314 $314 $313 $463 forward $197 $-1 #
coedge $-1 $315 $315 $198 $316 forward $310 $-1 #
edge $-1 $464 -1.4631842695337219e-015 $464 6.2831853071795987 $315 $465 forward 7 unknown #
loop $-1 $-1 $322 $199 #
plane-surface $-1 17.452539694517924 -6.645454970989249 34.551748990948141 0 0.75470958851134928 0.65605901945558964 1 0 0 forward_v I I I I #
loop $-1 $-1 $466 $126 #
coedge $-1 $320 $320 $321 $467 reversed $200 $-1 #
coedge $-1 $321 $321 $320 $467 forward $202 $-1 #
coedge $-1 $322 $322 $203 $323 forward $317 $-1 #
edge $-1 $468 -1.4631842695337219e-015 $468 6.2831853071795987 $322 $469 forward 7 unknown #
loop $-1 $-1 $329 $204 #
plane-surface $-1 17.452539694517924 -6.645454970989249 34.551748990948141 0 0.75470958851134928 0.65605901945558964 1 0 0 forward_v I I I I #
loop $-1 $-1 $470 $129 #
coedge $-1 $327 $327 $328 $471 reversed $205 $-1 #
coedge $-1 $328 $328 $327 $471 forward $207 $-1 #
coedge $-1 $329 $329 $208 $330 forward $324 $-1 #
edge $-1 $472 -1.4631842695337219e-015 $472 6.2831853071795987 $329 $473 forward 7 unknown #
face $-1 $474 $475 $68 $-1 $476 forward single #
loop $-1 $-1 $477 $209 #
plane-surface $-1 48.738244139669298 72.735980699429007 103.55697648731035 -1 0 0 0 0.75470958851134928 0.65605901945558964 forward_v I I I I #
coedge $-1 $478 $479 $480 $481 reversed $210 $-1 #
coedge $-1 $336 $212 $482 $483 reversed $133 $-1 #
coedge $-1 $212 $335 $478 $484 reversed $133 $-1 #
coedge $-1 $480 $485 $212 $338 forward $475 $-1 #
edge $-1 $486 15.076510388569531 $487 17.779848584449748 $337 $488 forward 7 unknown #
loop $-1 $-1 $344 $213 #
plane-surface $-1 42.311256468469395 -6.645454970989249 34.551748990948141 0 0.75470958851134928 0.65605901945558964 1 0 0 forward_v I I I I #
loop $-1 $-1 $489 $135 #
coedge $-1 $342 $342 $343 $490 reversed $214 $-1 #
coedge $-1 $343 $343 $342 $490 forward $216 $-1 #
coedge $-1 $344 $344 $217 $345 forward $339 $-1 #
edge $-1 $491 -1.4631842695337219e-015 $491 6.2831853071795987 $344 $492 forward 7 unknown #
loop $-1 $-1 $351 $218 #
plane-surface $-1 42.311256468469395 -6.645454970989249 34.551748990948141 0 0.75470958851134928 0.65605901945558964 1 0 0 forward_v I I I I #
loop $-1 $-1 $493 $138 #
coedge $-1 $349 $349 $350 $494 reversed $219 $-1 #
coedge $-1 $350 $350 $349 $494 forward $221 $-1 #
coedge $-1 $351 $351 $222 $352 forward $346 $-1 #
edge $-1 $495 -1.4631842695337219e-015 $495 6.2831853071795987 $351 $496 forward 7 unknown #
loop $-1 $-1 $358 $223 #
plane-surface $-1 42.311256468469395 -6.645454970989249 34.551748990948141 0 0.75470958851134928 0.65605901945558964 1 0 0 forward_v I I I I #
loop $-1 $-1 $497 $141 #
coedge $-1 $356 $356 $357 $498 reversed $224 $-1 #
coedge $-1 $357 $357 $356 $498 forward $226 $-1 #
coedge $-1 $358 $358 $227 $359 forward $353 $-1 #
edge $-1 $499 -1.4631842695337219e-015 $499 6.2831853071795987 $358 $500 forward 7 unknown #
face $-1 $501 $502 $54 $-1 $503 reversed single #
loop $-1 $-1 $504 $228 #
plane-surface $-1 -52.590716269417399 0 0 1 0 0 0 0 -1 forward_v I I I I #
coedge $-1 $505 $371 $506 $507 forward $229 $-1 #
coedge $-1 $508 $231 $505 $509 forward $145 $-1 #
coedge $-1 $231 $508 $510 $511 forward $145 $-1 #
coedge $-1 $374 $373 $231 $367 reversed $375 $-1 #
edge $-1 $512 -21.291479961144972 $513 21.291479961144972 $366 $514 forward 7 unknown #
coedge $-1 $233 $232 $515 $516 forward $91 $-1 #
coedge $-1 $517 $518 $232 $370 reversed $502 $-1 #
edge $-1 $377 -52.590716269417399 $519 52.590716269417399 $369 $520 forward 7 unknown #
coedge $-1 $363 $521 $233 $372 reversed $229 $-1 #
edge $-1 $522 -52.590716269417399 $376 52.590716269417399 $371 $523 forward 7 unknown #
coedge $-1 $366 $234 $521 $524 forward $375 $-1 #
coedge $-1 $234 $366 $517 $525 reversed $375 $-1 #
loop $-1 $-1 $373 $501 #
vertex $-1 $235 $526 #
vertex $-1 $235 $527 #
straight-curve $-1 52.590716269417399 0 5.523815764326713 0 1 0 I I #
face $-1 $528 $529 $55 $-1 $530 forward single #
loop $-1 $-1 $531 $236 #
plane-surface $-1 -58.337281712446327 0 4.023815764326713 1 0 0 0 0 -1 forward_v I I I I #
coedge $-1 $532 $239 $389 $533 reversed $149 $-1 #
coedge $-1 $239 $532 $534 $535 reversed $149 $-1 #
edge $-1 $536 -5.523815764326713 $391 -2.523815764326713 $239 $537 forward 7 unknown #
coedge $-1 $241 $240 $538 $539 reversed $94 $-1 #
coedge $-1 $540 $541 $241 $387 forward $542 $-1 #
edge $-1 $390 2.523815764326713 $543 5.523815764326713 $386 $544 forward 7 unknown #
coedge $-1 $545 $242 $541 $546 forward $237 $-1 #
coedge $-1 $242 $545 $382 $533 forward $237 $-1 #
vertex $-1 $387 $547 #
vertex $-1 $384 $548 #
straight-curve $-1 -52.590716269417399 0 2.523815764326713 0 1 0 I I #
face $-1 $-1 $549 $56 $-1 $550 reversed single #
loop $-1 $-1 $250 $244 #
plane-surface $-1 0 0 5.523815764326713 0 0 1 1 0 0 forward_v I I I I #
coedge $-1 $551 $552 $553 $554 reversed $245 $-1 #
coedge $-1 $555 $247 $249 $403 forward $153 $-1 #
coedge $-1 $247 $555 $551 $556 forward $153 $-1 #
coedge $-1 $553 $250 $247 $400 forward $394 $-1 #
edge $-1 $406 -22.559434597892409 $557 -9.7054592554926025 $399 $558 forward 7 unknown #
coedge $-1 $559 $560 $248 $402 forward $549 $-1 #
edge $-1 $561 -49.364507413253769 $405 -46.254672479328462 $401 $562 forward 7 unknown #
edge $-1 $406 38.462388272922972 $561 42.582959922289966 $249 $563 forward 7 unknown #
coedge $-1 $250 $553 $559 $564 forward $394 $-1 #
vertex $-1 $402 $565 #
vertex $-1 $251 $566 #
straight-curve $-1 -38.691881524584915 36.367990349714503 5.523815764326713 0 -1 0 I I #
coedge $-1 $408 $408 $-1 $567 reversed $254 $-1 #
edge $-1 $568 0 $568 6.2831853071796004 $255 $569 forward 7 unknown #
vertex $-1 $258 $570 #
ellipse-curve $-1 -36.121086456104955 19.939810863204865 3.968898297364059 0 0.75470958851134928 0.65605901945558964 0.25 0 0 1 I I #
coedge $-1 $412 $412 $-1 $571 reversed $261 $-1 #
edge $-1 $572 0 $572 6.2831853071796004 $262 $573 forward 7 unknown #
vertex $-1 $265 $574 #
ellipse-curve $-1 -32.264893853385011 19.939810863204865 3.968898297364059 0 0.75470958851134928 0.65605901945558964 0.25 0 0 1 I I #
coedge $-1 $416 $416 $-1 $575 reversed $268 $-1 #
edge $-1 $576 0 $576 6.2831853071796004 $269 $577 forward 7 unknown #
vertex $-1 $272 $578 #
ellipse-curve $-1 -28.408701250665068 19.939810863204865 3.968898297364059 0 0.75470958851134928 0.65605901945558964 0.25 0 0 1 I I #
face $-1 $-1 $579 $60 $-1 $580 reversed single #
loop $-1 $-1 $279 $273 #
plane-surface $-1 0 0 5.523815764326713 0 0 1 1 0 0 forward_v I I I I #
coedge $-1 $581 $582 $583 $584 reversed $274 $-1 #
coedge $-1 $585 $276 $278 $430 forward $172 $-1 #
coedge $-1 $276 $585 $581 $586 forward $172 $-1 #
coedge $-1 $583 $279 $276 $427 forward $421 $-1 #
edge $-1 $433 -10.130076210916679 $587 2.7238991314831313 $426 $588 forward 7 unknown #
coedge $-1 $589 $590 $277 $429 forward $579 $-1 #
edge $-1 $591 -49.364507413253769 $432 -46.254672479328462 $428 $592 forward 7 unknown #
edge $-1 $433 38.462388272922972 $591 42.582959922289966 $278 $593 forward 7 unknown #
coedge $-1 $279 $583 $589 $594 forward $421 $-1 #
vertex $-1 $280 $595 #
vertex $-1 $280 $596 #
straight-curve $-1 -13.833164750633452 36.367990349714503 5.523815764326713 0 -1 0 I I #
coedge $-1 $435 $435 $-1 $597 reversed $283 $-1 #
edge $-1 $598 0 $598 6.2831853071796004 $284 $599 forward 7 unknown #
vertex $-1 $287 $600 #
ellipse-curve $-1 -11.262369682153491 19.939810863204865 3.968898297364059 0 0.75470958851134928 0.65605901945558964 0.25 0 0 1 I I #
coedge $-1 $439 $439 $-1 $601 reversed $290 $-1 #
edge $-1 $602 0 $602 6.2831853071796004 $291 $603 forward 7 unknown #
vertex $-1 $294 $604 #
ellipse-curve $-1 -7.4061770794335473 19.939810863204865 3.968898297364059 0 0.75470958851134928 0.65605901945558964 0.25 0 0 1 I I #
coedge $-1 $443 $443 $-1 $605 reversed $297 $-1 #
edge $-1 $606 0 $606 6.2831853071796004 $298 $607 forward 7 unknown #
vertex $-1 $301 $608 #
ellipse-curve $-1 -3.549984476713604 19.939810863204865 3.968898297364059 0 0.75470958851134928 0.65605901945558964 0.25 0 0 1 I I #
face $-1 $-1 $609 $64 $-1 $610 reversed single #
loop $-1 $-1 $308 $302 #
plane-surface $-1 0 0 5.523815764326713 0 0 1 1 0 0 forward_v I I I I #
coedge $-1 $611 $612 $613 $614 reversed $303 $-1 #
coedge $-1 $615 $305 $307 $457 forward $191 $-1 #
coedge $-1 $305 $615 $611 $616 forward $191 $-1 #
coedge $-1 $613 $308 $305 $454 forward $448 $-1 #
edge $-1 $460 2.2992821760590569 $617 15.153257518458865 $453 $618 forward 7 unknown #
coedge $-1 $619 $620 $306 $456 forward $609 $-1 #
edge $-1 $621 -49.364507413253769 $459 -46.254672479328462 $455 $622 forward 7 unknown #
edge $-1 $460 38.462388272922972 $621 42.582959922289966 $307 $623 forward 7 unknown #
coedge $-1 $308 $613 $619 $624 forward $448 $-1 #
vertex $-1 $309 $625 #
vertex $-1 $309 $626 #
straight-curve $-1 11.025552023318019 36.367990349714503 5.523815764326713 0 -1 0 I I #
coedge $-1 $462 $462 $-1 $627 reversed $312 $-1 #
edge $-1 $628 0 $628 6.2831853071796004 $313 $629 forward 7 unknown #
vertex $-1 $316 $630 #
ellipse-curve $-1 13.596347091797981 19.939810863204865 3.968898297364059 0 0.75470958851134928 0.65605901945558964 0.25 0 0 1 I I #
coedge $-1 $466 $466 $-1 $631 reversed $319 $-1 #
edge $-1 $632 0 $632 6.2831853071796004 $320 $633 forward 7 unknown #
vertex $-1 $323 $634 #
ellipse-curve $-1 17.452539694517924 19.939810863204865 3.968898297364059 0 0.75470958851134928 0.65605901945558964 0.25 0 0 1 I I #
coedge $-1 $470 $470 $-1 $635 reversed $326 $-1 #
edge $-1 $636 0 $636 6.2831853071796004 $327 $637 forward 7 unknown #
vertex $-1 $330 $638 #
ellipse-curve $-1 21.308732297237867 19.939810863204865 3.968898297364059 0 0.75470958851134928 0.65605901945558964 0.25 0 0 1 I I #
face $-1 $-1 $639 $68 $-1 $640 reversed single #
loop $-1 $-1 $337 $331 #
plane-surface $-1 0 0 5.523815764326713 0 0 1 1 0 0 forward_v I I I I #
coedge $-1 $641 $642 $643 $644 reversed $332 $-1 #
coedge $-1 $645 $334 $336 $484 forward $210 $-1 #
coedge $-1 $334 $645 $641 $646 forward $210 $-1 #
coedge $-1 $643 $337 $334 $481 forward $475 $-1 #
edge $-1 $487 14.728640563034794 $647 27.582615905434601 $480 $648 forward 7 unknown #
coedge $-1 $649 $650 $335 $483 forward $639 $-1 #
edge $-1 $651 -49.364507413253769 $486 -46.254672479328462 $482 $652 forward 7 unknown #
edge $-1 $487 38.462388272922972 $651 42.582959922289966 $336 $653 forward 7 unknown #
coedge $-1 $337 $643 $649 $654 forward $475 $-1 #
vertex $-1 $338 $655 #
vertex $-1 $338 $656 #
straight-curve $-1 35.884268797269492 36.367990349714503 5.523815764326713 0 -1 0 I I #
coedge $-1 $489 $489 $-1 $657 reversed $341 $-1 #
edge $-1 $658 0 $658 6.2831853071796004 $342 $659 forward 7 unknown #
vertex $-1 $345 $660 #
ellipse-curve $-1 38.455063865749452 19.939810863204865 3.968898297364059 0 0.75470958851134928 0.65605901945558964 0.25 0 0 1 I I #
coedge $-1 $493 $493 $-1 $661 reversed $348 $-1 #
edge $-1 $662 0 $662 6.2831853071796004 $349 $663 forward 7 unknown #
vertex $-1 $352 $664 #
ellipse-curve $-1 42.311256468469395 19.939810863204865 3.968898297364059 0 0.75470958851134928 0.65605901945558964 0.25 0 0 1 I I #
coedge $-1 $497 $497 $-1 $665 reversed $355 $-1 #
edge $-1 $666 0 $666 6.2831853071796004 $356 $667 forward 7 unknown #
vertex $-1 $359 $668 #
ellipse-curve $-1 46.167449071189338 19.939810863204865 3.968898297364059 0 0.75470958851134928 0.65605901945558964 0.25 0 0 1 I I #
face $-1 $-1 $375 $54 $-1 $669 reversed single #
loop $-1 $-1 $517 $360 #
plane-surface $-1 0 21.291479961144972 0 0 -1 0 0 0 -1 forward_v I I I I #
coedge $-1 $670 $515 $518 $671 forward $361 $-1 #
coedge $-1 $521 $363 $364 $509 reversed $229 $-1 #
coedge $-1 $515 $670 $363 $507 reversed $361 $-1 #
edge $-1 $522 -5.523815764326713 $672 5.523815764326713 $506 $673 forward 7 unknown #
coedge $-1 $365 $364 $670 $674 forward $145 $-1 #
edge $-1 $513 -52.590716269417399 $672 52.590716269417399 $505 $675 forward 7 unknown #
coedge $-1 $518 $517 $365 $511 reversed $502 $-1 #
edge $-1 $676 -52.590716269417399 $512 52.590716269417399 $510 $677 forward 7 unknown #
vertex $-1 $367 $678 #
vertex $-1 $524 $679 #
straight-curve $-1 52.590716269417399 0 -5.523815764326713 0 -1 0 I I #
coedge $-1 $504 $506 $368 $516 reversed $361 $-1 #
edge $-1 $519 -21.291479961144972 $522 21.291479961144972 $515 $680 forward 7 unknown #
coedge $-1 $510 $369 $374 $525 forward $502 $-1 #
coedge $-1 $369 $510 $504 $671 reversed $502 $-1 #
vertex $-1 $370 $681 #
straight-curve $-1 0 21.291479961144972 5.523815764326713 -1 0 0 I I #
coedge $-1 $371 $505 $373 $524 reversed $229 $-1 #
vertex $-1 $516 $682 #
straight-curve $-1 0 -21.291479961144972 5.523815764326713 1 0 0 I I #
edge $-1 $376 -5.523815764326713 $513 5.523815764326713 $373 $683 forward 7 unknown #
edge $-1 $377 -5.523815764326713 $512 5.523815764326713 $374 $684 forward 7 unknown #
point $-1 52.590716269417399 -21.291479961144972 5.523815764326713 #
point $-1 52.590716269417399 21.291479961144972 5.523815764326713 #
face $-1 $-1 $542 $55 $-1 $685 reversed single #
loop $-1 $-1 $538 $379 #
plane-surface $-1 0 0 5.523815764326713 0 0 1 1 0 0 forward_v I I I I #
coedge $-1 $686 $687 $532 $688 forward $380 $-1 #
coedge $-1 $383 $382 $531 $688 reversed $149 $-1 #
edge $-1 $689 -2.8732827215144638 $391 2.8732827215144638 $382 $690 forward 7 unknown #
coedge $-1 $691 $538 $383 $535 forward $529 $-1 #
edge $-1 $536 52.590716269417399 $692 58.337281712446327 $383 $693 forward 7 unknown #
vertex $-1 $535 $694 #
straight-curve $-1 -52.590716269417399 21.291479961144972 0 0 0 -1 I I #
coedge $-1 $534 $695 $385 $539 forward $529 $-1 #
edge $-1 $543 -21.291479961144972 $536 21.291479961144972 $538 $696 forward 7 unknown #
coedge $-1 $697 $386 $695 $698 reversed $542 $-1 #
coedge $-1 $386 $697 $388 $546 reversed $542 $-1 #
loop $-1 $-1 $386 $528 #
vertex $-1 $387 $699 #
straight-curve $-1 -52.590716269417399 -21.291479961144972 0 0 0 1 I I #
coedge $-1 $389 $388 $686 $700 forward $237 $-1 #
edge $-1 $390 -2.8732827215144638 $701 2.8732827215144638 $541 $702 forward 7 unknown #
point $-1 -52.590716269417399 -21.291479961144972 2.523815764326713 #
point $-1 -52.590716269417399 21.291479961144972 2.523815764326713 #
loop $-1 $-1 $401 $393 #
plane-surface $-1 0 21.291479961144972 0 0 -1 0 0 0 -1 forward_v I I I I #
coedge $-1 $552 $396 $398 $556 reversed $245 $-1 #
coedge $-1 $396 $551 $703 $704 reversed $245 $-1 #
coedge $-1 $404 $399 $396 $554 forward $394 $-1 #
edge $-1 $557 -17.779848584449748 $705 -15.076510388569531 $553 $706 forward 7 unknown #
coedge $-1 $398 $397 $560 $707 reversed $153 $-1 #
edge $-1 $708 -42.582959922289966 $557 -38.462388272922972 $551 $709 forward 7 unknown #
vertex $-1 $400 $710 #
straight-curve $-1 -16.132446926692506 18.588141765264758 5.523815764326713 1 0 0 I I #
coedge $-1 $703 $401 $404 $564 reversed $549 $-1 #
coedge $-1 $401 $703 $555 $707 forward $549 $-1 #
vertex $-1 $402 $711 #
straight-curve $-1 -38.691881524584915 21.291479961144972 51.778488243655175 0 0 1 I I #
straight-curve $-1 -38.691881524584915 -6.645454970989249 34.551748990948141 0 0.65605901945558964 -0.75470958851134928 I I #
edge $-1 $705 25.837906182185108 $405 38.691881524584915 $559 $712 forward 7 unknown #
point $-1 -38.691881524584915 21.291479961144972 5.523815764326713 #
point $-1 -38.691881524584915 18.588141765264755 5.5238157643267094 #
edge $-1 $713 1 $713 0 $408 $-1 forward 7 unknown #
vertex $-1 $409 $714 #
ellipse-curve $-1 -36.121086456104955 19.185101274693526 3.3128392779084761 0 0.75470958851134928 0.65605901945558964 0.25 0 0 1 I I #
point $-1 -35.871086456104955 19.939810863204873 3.9688982973640656 #
edge $-1 $715 1 $715 0 $412 $-1 forward 7 unknown #
vertex $-1 $413 $716 #
ellipse-curve $-1 -32.264893853385011 19.185101274693526 3.3128392779084761 0 0.75470958851134928 0.65605901945558964 0.25 0 0 1 I I #
point $-1 -32.014893853385011 19.939810863204873 3.9688982973640656 #
edge $-1 $717 1 $717 0 $416 $-1 forward 7 unknown #
vertex $-1 $417 $718 #
ellipse-curve $-1 -28.408701250665068 19.185101274693526 3.3128392779084761 0 0.75470958851134928 0.65605901945558964 0.25 0 0 1 I I #
point $-1 -28.158701250665068 19.939810863204873 3.9688982973640656 #
loop $-1 $-1 $428 $420 #
plane-surface $-1 0 21.291479961144972 0 0 -1 0 0 0 -1 forward_v I I I I #
coedge $-1 $582 $423 $425 $586 reversed $274 $-1 #
coedge $-1 $423 $581 $719 $720 reversed $274 $-1 #
coedge $-1 $431 $426 $423 $584 forward $421 $-1 #
edge $-1 $587 -17.779848584449748 $721 -15.076510388569531 $583 $722 forward 7 unknown #
coedge $-1 $425 $424 $590 $723 reversed $172 $-1 #
edge $-1 $724 -42.582959922289966 $587 -38.462388272922972 $581 $725 forward 7 unknown #
vertex $-1 $427 $726 #
straight-curve $-1 -3.7030885397167737 18.588141765264758 5.523815764326713 1 0 0 I I #
coedge $-1 $719 $428 $431 $594 reversed $579 $-1 #
coedge $-1 $428 $719 $585 $723 forward $579 $-1 #
vertex $-1 $429 $727 #
straight-curve $-1 -13.833164750633452 21.291479961144972 51.778488243655175 0 0 1 I I #
straight-curve $-1 -13.833164750633452 -6.645454970989249 34.551748990948141 0 0.65605901945558964 -0.75470958851134928 I I #
edge $-1 $721 0.97918940823364231 $432 13.833164750633452 $589 $728 forward 7 unknown #
point $-1 -13.833164750633452 21.291479961144972 5.523815764326713 #
point $-1 -13.833164750633452 18.588141765264755 5.5238157643267094 #
edge $-1 $729 1 $729 0 $435 $-1 forward 7 unknown #
vertex $-1 $436 $730 #
ellipse-curve $-1 -11.262369682153491 19.185101274693526 3.3128392779084761 0 0.75470958851134928 0.65605901945558964 0.25 0 0 1 I I #
point $-1 -11.012369682153491 19.939810863204873 3.9688982973640656 #
edge $-1 $731 1 $731 0 $439 $-1 forward 7 unknown #
vertex $-1 $440 $732 #
ellipse-curve $-1 -7.4061770794335473 19.185101274693526 3.3128392779084761 0 0.75470958851134928 0.65605901945558964 0.25 0 0 1 I I #
point $-1 -7.1561770794335473 19.939810863204873 3.9688982973640656 #
edge $-1 $733 1 $733 0 $443 $-1 forward 7 unknown #
vertex $-1 $444 $734 #
ellipse-curve $-1 -3.549984476713604 19.185101274693526 3.3128392779084761 0 0.75470958851134928 0.65605901945558964 0.25 0 0 1 I I #
point $-1 -3.299984476713604 19.939810863204873 3.9688982973640656 #
loop $-1 $-1 $455 $447 #
plane-surface $-1 0 21.291479961144972 0 0 -1 0 0 0 -1 forward_v I I I I #
coedge $-1 $612 $450 $452 $616 reversed $303 $-1 #
coedge $-1 $450 $611 $735 $736 reversed $303 $-1 #
coedge $-1 $458 $453 $450 $614 forward $448 $-1 #
edge $-1 $617 -17.779848584449748 $737 -15.076510388569531 $613 $738 forward 7 unknown #
coedge $-1 $452 $451 $620 $739 reversed $191 $-1 #
edge $-1 $740 -42.582959922289966 $617 -38.462388272922972 $611 $741 forward 7 unknown #
vertex $-1 $454 $742 #
straight-curve $-1 8.7262698472589619 18.588141765264758 5.523815764326713 1 0 0 I I #
coedge $-1 $735 $455 $458 $624 reversed $609 $-1 #
coedge $-1 $455 $735 $615 $739 forward $609 $-1 #
vertex $-1 $456 $743 #
straight-curve $-1 11.025552023318019 21.291479961144972 51.778488243655175 0 0 1 I I #
straight-curve $-1 11.025552023318019 -6.645454970989249 34.551748990948141 0 0.65605901945558964 -0.75470958851134928 I I #
edge $-1 $737 -23.879527365717827 $459 -11.025552023318019 $619 $744 forward 7 unknown #
point $-1 11.025552023318019 21.291479961144972 5.523815764326713 #
point $-1 11.025552023318019 18.588141765264755 5.5238157643267094 #
edge $-1 $745 1 $745 0 $462 $-1 forward 7 unknown #
vertex $-1 $463 $746 #
ellipse-curve $-1 13.596347091797981 19.185101274693526 3.3128392779084761 0 0.75470958851134928 0.65605901945558964 0.25 0 0 1 I I #
point $-1 13.846347091797981 19.939810863204873 3.9688982973640656 #
edge $-1 $747 1 $747 0 $466 $-1 forward 7 unknown #
vertex $-1 $467 $748 #
ellipse-curve $-1 17.452539694517924 19.185101274693526 3.3128392779084761 0 0.75470958851134928 0.65605901945558964 0.25 0 0 1 I I #
point $-1 17.702539694517924 19.939810863204873 3.9688982973640656 #
edge $-1 $749 1 $749 0 $470 $-1 forward 7 unknown #
vertex $-1 $471 $750 #
ellipse-curve $-1 21.308732297237867 19.185101274693526 3.3128392779084761 0 0.75470958851134928 0.65605901945558964 0.25 0 0 1 I I #
point $-1 21.558732297237867 19.939810863204873 3.9688982973640656 #
loop $-1 $-1 $482 $474 #
plane-surface $-1 0 21.291479961144972 0 0 -1 0 0 0 -1 forward_v I I I I #
coedge $-1 $642 $477 $479 $646 reversed $332 $-1 #
coedge $-1 $477 $641 $751 $752 reversed $332 $-1 #
coedge $-1 $485 $480 $477 $644 forward $475 $-1 #
edge $-1 $647 -17.779848584449748 $753 -15.076510388569531 $643 $754 forward 7 unknown #
coedge $-1 $479 $478 $650 $755 reversed $210 $-1 #
edge $-1 $756 -42.582959922289966 $647 -38.462388272922972 $641 $757 forward 7 unknown #
vertex $-1 $481 $758 #
straight-curve $-1 21.155628234234698 18.588141765264758 5.523815764326713 1 0 0 I I #
coedge $-1 $751 $482 $485 $654 reversed $639 $-1 #
coedge $-1 $482 $751 $645 $755 forward $639 $-1 #
vertex $-1 $483 $759 #
straight-curve $-1 35.884268797269492 21.291479961144972 51.778488243655175 0 0 1 I I #
straight-curve $-1 35.884268797269492 -6.645454970989249 34.551748990948141 0 0.65605901945558964 -0.75470958851134928 I I #
edge $-1 $753 -48.738244139669298 $486 -35.884268797269492 $649 $760 forward 7 unknown #
point $-1 35.884268797269492 21.291479961144972 5.523815764326713 #
point $-1 35.884268797269492 18.588141765264755 5.5238157643267094 #
edge $-1 $761 1 $761 0 $489 $-1 forward 7 unknown #
vertex $-1 $490 $762 #
ellipse-curve $-1 38.455063865749452 19.185101274693526 3.3128392779084761 0 0.75470958851134928 0.65605901945558964 0.25 0 0 1 I I #
point $-1 38.705063865749452 19.939810863204873 3.9688982973640656 #
edge $-1 $763 1 $763 0 $493 $-1 forward 7 unknown #
vertex $-1 $494 $764 #
ellipse-curve $-1 42.311256468469395 19.185101274693526 3.3128392779084761 0 0.75470958851134928 0.65605901945558964 0.25 0 0 1 I I #
point $-1 42.561256468469395 19.939810863204873 3.9688982973640656 #
edge $-1 $765 1 $765 0 $497 $-1 forward 7 unknown #
vertex $-1 $498 $766 #
ellipse-curve $-1 46.167449071189338 19.185101274693526 3.3128392779084761 0 0.75470958851134928 0.65605901945558964 0.25 0 0 1 I I #
point $-1 46.417449071189338 19.939810863204873 3.9688982973640656 #
plane-surface $-1 52.590716269417399 0 0 -1 0 0 0 0 1 forward_v I I I I #
coedge $-1 $506 $504 $508 $674 reversed $361 $-1 #
edge $-1 $519 -5.523815764326713 $676 5.523815764326713 $518 $767 forward 7 unknown #
vertex $-1 $674 $768 #
straight-curve $-1 -52.590716269417399 -21.291479961144972 0 0 0 -1 I I #
edge $-1 $672 -21.291479961144972 $676 21.291479961144972 $670 $769 forward 7 unknown #
straight-curve $-1 0 -21.291479961144972 -5.523815764326713 -1 0 0 I I #
vertex $-1 $511 $770 #
straight-curve $-1 0 21.291479961144972 -5.523815764326713 1 0 0 I I #
point $-1 52.590716269417399 21.291479961144972 -5.523815764326713 #
point $-1 52.590716269417399 -21.291479961144972 -5.523815764326713 #
straight-curve $-1 -52.590716269417399 0 5.523815764326713 0 -1 0 I I #
point $-1 -52.590716269417399 21.291479961144972 5.523815764326713 #
point $-1 -52.590716269417399 -21.291479961144972 5.523815764326713 #
straight-curve $-1 52.590716269417399 -21.291479961144972 0 0 0 -1 I I #
straight-curve $-1 52.590716269417399 21.291479961144972 0 0 0 -1 I I #
plane-surface $-1 0 -21.291479961144972 0 0 1 0 0 0 1 forward_v I I I I #
coedge $-1 $771 $531 $545 $700 reversed $380 $-1 #
coedge $-1 $531 $771 $691 $772 reversed $380 $-1 #
edge $-1 $692 -1.5 $689 1.5 $532 $773 forward 7 unknown #
vertex $-1 $533 $774 #
straight-curve $-1 -55.463998990931863 21.291479961144972 2.523815764326713 1 0 0 I I #
coedge $-1 $695 $534 $687 $772 forward $529 $-1 #
vertex $-1 $535 $775 #
straight-curve $-1 0 21.291479961144972 5.523815764326713 -1 0 0 I I #
point $-1 -52.590716269417399 21.291479961144972 5.523815764326713 #
coedge $-1 $538 $691 $540 $698 forward $529 $-1 #
straight-curve $-1 -52.590716269417399 0 5.523815764326713 0 1 0 I I #
coedge $-1 $541 $540 $771 $776 forward $542 $-1 #
edge $-1 $777 -58.337281712446327 $543 -52.590716269417399 $540 $778 forward 7 unknown #
point $-1 -52.590716269417399 -21.291479961144972 5.523815764326713 #
edge $-1 $701 -21.291479961144972 $689 21.291479961144972 $686 $779 forward 7 unknown #
vertex $-1 $700 $780 #
straight-curve $-1 -55.463998990931863 -21.291479961144972 2.523815764326713 -1 0 0 I I #
coedge $-1 $560 $559 $552 $704 forward $549 $-1 #
edge $-1 $705 46.254672479328462 $708 49.364507413253769 $703 $781 forward 7 unknown #
vertex $-1 $564 $782 #
straight-curve $-1 -25.837906182185108 36.367990349714503 5.523815764326713 0 1 0 I I #
edge $-1 $708 9.7054592554926025 $561 22.559434597892409 $560 $783 forward 7 unknown #
vertex $-1 $707 $784 #
straight-curve $-1 -25.837906182185108 -6.645454970989249 34.551748990948141 0 -0.65605901945558964 0.75470958851134928 I I #
point $-1 -25.837906182185108 18.588141765264755 5.5238157643267094 #
point $-1 -38.691881524584915 21.291479961144972 2.4139808304014068 #
straight-curve $-1 0 21.291479961144972 5.523815764326713 -1 0 0 I I #
vertex $-1 $567 $785 #
point $-1 -35.871086456104955 19.185101274693526 3.3128392779084761 #
vertex $-1 $571 $786 #
point $-1 -32.014893853385011 19.185101274693526 3.3128392779084761 #
vertex $-1 $575 $787 #
point $-1 -28.158701250665068 19.185101274693526 3.3128392779084761 #
coedge $-1 $590 $589 $582 $720 forward $579 $-1 #
edge $-1 $721 46.254672479328462 $724 49.364507413253769 $719 $788 forward 7 unknown #
vertex $-1 $594 $789 #
straight-curve $-1 -0.97918940823364231 36.367990349714503 5.523815764326713 0 1 0 I I #
edge $-1 $724 -2.7238991314831313 $591 10.130076210916679 $590 $790 forward 7 unknown #
vertex $-1 $723 $791 #
straight-curve $-1 -0.97918940823364231 -6.645454970989249 34.551748990948141 0 -0.65605901945558964 0.75470958851134928 I I #
point $-1 -0.97918940823364231 18.588141765264755 5.5238157643267094 #
point $-1 -13.833164750633452 21.291479961144972 2.4139808304014068 #
straight-curve $-1 0 21.291479961144972 5.523815764326713 -1 0 0 I I #
vertex $-1 $597 $792 #
point $-1 -11.012369682153491 19.185101274693526 3.3128392779084761 #
vertex $-1 $601 $793 #
point $-1 -7.1561770794335473 19.185101274693526 3.3128392779084761 #
vertex $-1 $605 $794 #
point $-1 -3.299984476713604 19.185101274693526 3.3128392779084761 #
coedge $-1 $620 $619 $612 $736 forward $609 $-1 #
edge $-1 $737 46.254672479328462 $740 49.364507413253769 $735 $795 forward 7 unknown #
vertex $-1 $624 $796 #
straight-curve $-1 23.879527365717827 36.367990349714503 5.523815764326713 0 1 0 I I #
edge $-1 $740 -15.153257518458865 $621 -2.2992821760590569 $620 $797 forward 7 unknown #
vertex $-1 $739 $798 #
straight-curve $-1 23.879527365717827 -6.645454970989249 34.551748990948141 0 -0.65605901945558964 0.75470958851134928 I I #
point $-1 23.879527365717827 18.588141765264755 5.5238157643267094 #
point $-1 11.025552023318019 21.291479961144972 2.4139808304014068 #
straight-curve $-1 0 21.291479961144972 5.523815764326713 -1 0 0 I I #
vertex $-1 $627 $799 #
point $-1 13.846347091797981 19.185101274693526 3.3128392779084761 #
vertex $-1 $631 $800 #
point $-1 17.702539694517924 19.185101274693526 3.3128392779084761 #
vertex $-1 $635 $801 #
point $-1 21.558732297237867 19.185101274693526 3.3128392779084761 #
coedge $-1 $650 $649 $642 $752 forward $639 $-1 #
edge $-1 $753 46.254672479328462 $756 49.364507413253769 $751 $802 forward 7 unknown #
vertex $-1 $654 $803 #
straight-curve $-1 48.738244139669298 36.367990349714503 5.523815764326713 0 1 0 I I #
edge $-1 $756 -27.582615905434601 $651 -14.728640563034794 $650 $804 forward 7 unknown #
vertex $-1 $755 $805 #
straight-curve $-1 48.738244139669298 -6.645454970989249 34.551748990948141 0 -0.65605901945558964 0.75470958851134928 I I #
point $-1 48.738244139669298 18.588141765264755 5.5238157643267094 #
point $-1 35.884268797269492 21.291479961144972 2.4139808304014068 #
straight-curve $-1 0 21.291479961144972 5.523815764326713 -1 0 0 I I #
vertex $-1 $657 $806 #
point $-1 38.705063865749452 19.185101274693526 3.3128392779084761 #
vertex $-1 $661 $807 #
point $-1 42.561256468469395 19.185101274693526 3.3128392779084761 #
vertex $-1 $665 $808 #
point $-1 46.417449071189338 19.185101274693526 3.3128392779084761 #
straight-curve $-1 -52.590716269417399 21.291479961144972 0 0 0 -1 I I #
point $-1 -52.590716269417399 -21.291479961144972 -5.523815764326713 #
straight-curve $-1 -52.590716269417399 0 -5.523815764326713 0 1 0 I I #
point $-1 -52.590716269417399 21.291479961144972 -5.523815764326713 #
coedge $-1 $687 $686 $697 $776 reversed $380 $-1 #
edge $-1 $692 -21.291479961144972 $777 21.291479961144972 $687 $809 forward 7 unknown #
straight-curve $-1 -58.337281712446327 21.291479961144972 4.023815764326713 0 0 -1 I I #
point $-1 -58.337281712446327 21.291479961144972 2.523815764326713 #
point $-1 -58.337281712446327 21.291479961144972 5.523815764326713 #
edge $-1 $777 -1.5 $701 1.5 $771 $810 forward 7 unknown #
vertex $-1 $772 $811 #
straight-curve $-1 0 -21.291479961144972 5.523815764326713 1 0 0 I I #
straight-curve $-1 -58.337281712446327 0 2.523815764326713 0 1 0 I I #
point $-1 -58.337281712446327 -21.291479961144972 2.523815764326713 #
straight-curve $-1 -25.837906182185108 21.291479961144972 51.778488243655175 0 0 -1 I I #
point $-1 -25.837906182185108 21.291479961144972 5.523815764326713 #
straight-curve $-1 -16.132446926692506 21.291479961144972 2.4139808304014085 -1 0 0 I I #
point $-1 -25.837906182185108 21.291479961144972 2.4139808304014068 #
point $-1 -36.121086456104955 18.996423877565686 3.1488245230445786 #
point $-1 -32.264893853385011 18.996423877565686 3.1488245230445786 #
point $-1 -28.408701250665068 18.996423877565686 3.1488245230445786 #
straight-curve $-1 -0.97918940823364231 21.291479961144972 51.778488243655175 0 0 -1 I I #
point $-1 -0.97918940823364231 21.291479961144972 5.523815764326713 #
straight-curve $-1 -3.7030885397167737 21.291479961144972 2.4139808304014085 -1 0 0 I I #
point $-1 -0.97918940823364231 21.291479961144972 2.4139808304014068 #
point $-1 -11.262369682153491 18.996423877565686 3.1488245230445786 #
point $-1 -7.4061770794335473 18.996423877565686 3.1488245230445786 #
point $-1 -3.549984476713604 18.996423877565686 3.1488245230445786 #
straight-curve $-1 23.879527365717827 21.291479961144972 51.778488243655175 0 0 -1 I I #
point $-1 23.879527365717827 21.291479961144972 5.523815764326713 #
straight-curve $-1 8.7262698472589619 21.291479961144972 2.4139808304014085 -1 0 0 I I #
point $-1 23.879527365717827 21.291479961144972 2.4139808304014068 #
point $-1 13.596347091797981 18.996423877565686 3.1488245230445786 #
point $-1 17.452539694517924 18.996423877565686 3.1488245230445786 #
point $-1 21.308732297237867 18.996423877565686 3.1488245230445786 #
straight-curve $-1 48.738244139669298 21.291479961144972 51.778488243655175 0 0 -1 I I #
point $-1 48.738244139669298 21.291479961144972 5.523815764326713 #
straight-curve $-1 21.155628234234698 21.291479961144972 2.4139808304014085 -1 0 0 I I #
point $-1 48.738244139669298 21.291479961144972 2.4139808304014068 #
point $-1 38.455063865749452 18.996423877565686 3.1488245230445786 #
point $-1 42.311256468469395 18.996423877565686 3.1488245230445786 #
point $-1 46.167449071189338 18.996423877565686 3.1488245230445786 #
straight-curve $-1 -58.337281712446327 0 5.523815764326713 0 -1 0 I I #
straight-curve $-1 -58.337281712446327 -21.291479961144972 4.023815764326713 0 0 -1 I I #
point $-1 -58.337281712446327 -21.291479961144972 5.523815764326713 #
End-of-ACIS-data 