500 0 8 0           
7 Unknown 11 ACIS 5.0 NT 24 Thu Mar 25 23:14:10 1999 
-1 9.9999999999999995e-007 1e-010 
body $-1 $8 $-1 $9 #
body $-1 $10 $-1 $11 #
body $-1 $12 $-1 $13 #
body $-1 $14 $-1 $15 #
body $-1 $16 $-1 $17 #
body $-1 $18 $-1 $19 #
body $-1 $20 $-1 $21 #
body $-1 $22 $-1 $23 #
lump $-1 $-1 $24 $0 #
transform $-1 1 0 0 0 1 0 0 0 1 58.057191686758017 37.268971437628529 9.7563336038602859 1 rotate no_reflect no_shear #
lump $-1 $-1 $25 $1 #
transform $-1 1 0 0 0 1 0 0 0 1 58.057191686758017 37.268971437628529 9.7563336038602859 1 rotate no_reflect no_shear #
lump $-1 $-1 $26 $2 #
transform $-1 1 0 0 0 1 0 0 0 1 58.057191686758017 37.268971437628529 9.7563336038602859 1 rotate no_reflect no_shear #
lump $-1 $-1 $27 $3 #
transform $-1 1 0 0 0 1 0 0 0 1 58.057191686758017 37.268971437628529 9.7563336038602859 1 rotate no_reflect no_shear #
lump $-1 $-1 $28 $4 #
transform $-1 1 0 0 0 1 0 0 0 1 58.057191686758017 37.268971437628529 9.7563336038602859 1 rotate no_reflect no_shear #
lump $-1 $-1 $29 $5 #
transform $-1 1 0 0 0 1 0 0 0 1 58.057191686758017 37.268971437628529 9.7563336038602859 1 rotate no_reflect no_shear #
lump $-1 $-1 $30 $6 #
transform $-1 1 0 0 0 1 0 0 0 1 58.057191686758017 37.268971437628529 9.7563336038602859 1 rotate no_reflect no_shear #
lump $-1 $-1 $31 $7 #
transform $-1 1 0 0 0 1 0 0 0 1 58.057191686758017 37.268971437628529 9.7563336038602859 1 rotate no_reflect no_shear #
shell $-1 $-1 $-1 $32 $-1 $8 #
shell $-1 $-1 $-1 $33 $-1 $10 #
shell $-1 $-1 $-1 $34 $-1 $12 #
shell $-1 $-1 $-1 $35 $-1 $14 #
shell $-1 $-1 $-1 $36 $-1 $16 #
shell $-1 $-1 $-1 $37 $-1 $18 #
shell $-1 $-1 $-1 $38 $-1 $20 #
shell $-1 $-1 $-1 $39 $-1 $22 #
face $-1 $40 $41 $24 $-1 $42 forward single #
face $-1 $43 $44 $25 $-1 $45 reversed single #
face $-1 $46 $47 $26 $-1 $48 reversed single #
face $-1 $49 $50 $27 $-1 $51 forward single #
face $-1 $52 $53 $28 $-1 $54 forward single #
face $-1 $55 $56 $29 $-1 $57 reversed single #
face $-1 $58 $59 $30 $-1 $60 forward single #
face $-1 $61 $62 $31 $-1 $63 forward single #
face $-1 $64 $65 $24 $-1 $66 reversed single #
loop $-1 $-1 $67 $32 #
plane-surface $-1 0 0 9.7563336038602859 0 0 1 1 0 0 forward_v I I I I #
face $-1 $68 $69 $25 $-1 $70 reversed single #
loop $-1 $-1 $71 $33 #
plane-surface $-1 0 -31.377181511082597 5.3117187706969204 0 0 1 1 0 0 forward_v I I I I #
face $-1 $72 $73 $26 $-1 $74 reversed single #
loop $-1 $-1 $75 $34 #
plane-surface $-1 -58.057191686758003 -20.321615489730522 3.7595211828725468 -0.6018150307709319 0 0.79863550430605224 0.79863550430605224 0 0.6018150307709319 forward_v I I I I #
face $-1 $76 $77 $27 $-1 $78 forward single #
loop $-1 $79 $80 $35 #
cone-surface $-1 -53.422672027381147 -22.534662387504582 5.8880491271631286 0.6018150307709319 0 -0.79863550430605224 0.79863550430605224 0 0.6018150307709319 1 I I 0 1 1 forward I I I I #
face $-1 $81 $82 $28 $-1 $83 forward single #
loop $-1 $84 $85 $36 #
cone-surface $-1 -53.422672027381147 -18.108568591956463 5.8880491271631286 0.6018150307709319 0 -0.79863550430605224 0.79863550430605224 0 0.6018150307709319 1 I I 0 1 1 forward I I I I #
face $-1 $86 $87 $29 $-1 $88 reversed single #
loop $-1 $-1 $89 $37 #
plane-surface $-1 35.203503766944081 -15.15783939492438 166.37197150844713 0 -1 0 -0.6018150307709319 0 -0.79863550430605224 forward_v I I I I #
face $-1 $90 $91 $30 $-1 $92 forward single #
loop $-1 $93 $94 $38 #
cone-surface $-1 53.422672027381154 -22.534662387504582 5.8880491271631179 -0.6018150307709319 0 -0.79863550430605224 0.79863550430605224 0 -0.6018150307709319 1 I I 0 1 1 forward I I I I #
face $-1 $95 $96 $31 $-1 $97 forward single #
loop $-1 $98 $99 $39 #
cone-surface $-1 53.422672027381154 -18.108568591956463 5.8880491271631179 -0.6018150307709319 0 -0.79863550430605224 0.79863550430605224 0 -0.6018150307709319 1 I I 0 1 1 forward I I I I #
face $-1 $100 $101 $24 $-1 $102 reversed single #
loop $-1 $-1 $103 $40 #
plane-surface $-1 0 0 -9.7563336038602859 0 0 1 1 0 0 forward_v I I I I #
coedge $-1 $104 $105 $106 $107 forward $41 $-1 #
face $-1 $108 $109 $25 $-1 $110 reversed single #
loop $-1 $-1 $111 $43 #
plane-surface $-1 0 -25.485391584536664 7.5340261872786041 0 -1 0 0 0 -1 forward_v I I I I #
coedge $-1 $112 $113 $114 $115 reversed $44 $-1 #
face $-1 $116 $117 $26 $-1 $118 forward single #
loop $-1 $-1 $119 $46 #
plane-surface $-1 -127.93657288963834 -15.15783939492438 96.492590305566807 0 -1 0 0.6018150307709319 0 -0.79863550430605224 forward_v I I I I #
coedge $-1 $120 $121 $122 $123 reversed $47 $-1 #
face $-1 $-1 $124 $27 $-1 $125 forward single #
loop $-1 $126 $127 $49 #
cone-surface $-1 -52.466264208391003 -22.534662387504582 4.6188531088068192 0.6018150307709319 0 -0.79863550430605224 0.39931775215302612 0 0.30090751538546595 1 I I -0.70710678118654746 0.70710678118654746 0.5 forward I I I I #
loop $-1 $-1 $128 $35 #
coedge $-1 $80 $80 $129 $130 reversed $50 $-1 #
face $-1 $-1 $131 $28 $-1 $132 forward single #
loop $-1 $133 $134 $52 #
cone-surface $-1 -52.466264208391003 -18.108568591956463 4.6188531088068192 0.6018150307709319 0 -0.79863550430605224 0.39931775215302612 0 0.30090751538546595 1 I I -0.70710678118654746 0.70710678118654746 0.5 forward I I I I #
loop $-1 $-1 $135 $36 #
coedge $-1 $85 $85 $136 $137 reversed $53 $-1 #
face $-1 $138 $139 $29 $-1 $140 forward single #
loop $-1 $-1 $141 $55 #
plane-surface $-1 -34.675877435936258 -20.321615489730522 73.638902385752871 0.6018150307709319 0 0.79863550430605224 0.79863550430605224 0 -0.6018150307709319 forward_v I I I I #
coedge $-1 $142 $143 $144 $145 reversed $56 $-1 #
face $-1 $-1 $146 $30 $-1 $147 forward single #
loop $-1 $148 $149 $58 #
cone-surface $-1 52.46626420839101 -22.534662387504582 4.6188531088068085 -0.6018150307709319 0 -0.79863550430605224 0.39931775215302612 0 -0.30090751538546595 1 I I -0.70710678118654746 0.70710678118654746 0.5 forward I I I I #
loop $-1 $-1 $150 $38 #
coedge $-1 $94 $94 $151 $152 reversed $59 $-1 #
face $-1 $-1 $153 $31 $-1 $154 forward single #
loop $-1 $155 $156 $61 #
cone-surface $-1 52.46626420839101 -18.108568591956463 4.6188531088068085 -0.6018150307709319 0 -0.79863550430605224 0.39931775215302612 0 -0.30090751538546595 1 I I -0.70710678118654746 0.70710678118654746 0.5 forward I I I I #
loop $-1 $-1 $157 $39 #
coedge $-1 $99 $99 $158 $159 reversed $62 $-1 #
face $-1 $160 $161 $24 $-1 $162 reversed single #
loop $-1 $-1 $163 $64 #
plane-surface $-1 0 -37.268971437628529 0 0 1 0 0 0 1 forward_v I I I I #
coedge $-1 $164 $165 $166 $167 forward $65 $-1 #
coedge $-1 $168 $67 $169 $170 forward $41 $-1 #
coedge $-1 $67 $168 $171 $172 forward $41 $-1 #
coedge $-1 $173 $174 $67 $107 reversed $175 $-1 #
edge $-1 $176 -37.268971437628529 $177 37.268971437628529 $106 $178 forward 7 unknown #
face $-1 $179 $180 $25 $-1 $181 reversed single #
loop $-1 $-1 $182 $68 #
plane-surface $-1 -58.057191686758017 0 0 1 0 0 0 0 -1 forward_v I I I I #
coedge $-1 $183 $184 $113 $185 reversed $69 $-1 #
coedge $-1 $186 $71 $187 $188 reversed $44 $-1 #
coedge $-1 $71 $186 $111 $185 forward $44 $-1 #
coedge $-1 $189 $190 $71 $115 forward $191 $-1 #
edge $-1 $192 -21.580380682087231 $193 -9.7968008289953659 $114 $194 forward 7 unknown #
face $-1 $195 $196 $26 $-1 $197 reversed single #
loop $-1 $-1 $122 $72 #
plane-surface $-1 0 0 9.7563336038602859 0 0 1 1 0 0 forward_v I I I I #
coedge $-1 $198 $199 $200 $201 reversed $73 $-1 #
coedge $-1 $202 $75 $203 $204 reversed $47 $-1 #
coedge $-1 $75 $202 $198 $205 forward $47 $-1 #
coedge $-1 $200 $206 $75 $123 forward $117 $-1 #
edge $-1 $207 -15.324583839671403 $208 -4.9970316500591192 $122 $209 forward 7 unknown #
loop $-1 $-1 $129 $76 #
plane-surface $-1 -58.057191686758003 -20.321615489730522 3.7595211828725468 -0.6018150307709319 0 0.79863550430605224 0.79863550430605224 0 0.6018150307709319 forward_v I I I I #
loop $-1 $-1 $210 $49 #
coedge $-1 $127 $127 $128 $211 reversed $77 $-1 #
coedge $-1 $128 $128 $127 $211 forward $79 $-1 #
coedge $-1 $129 $129 $80 $130 forward $124 $-1 #
edge $-1 $212 0 $212 6.2831853071796004 $129 $213 forward 7 unknown #
loop $-1 $-1 $136 $81 #
plane-surface $-1 -58.057191686758003 -20.321615489730522 3.7595211828725468 -0.6018150307709319 0 0.79863550430605224 0.79863550430605224 0 0.6018150307709319 forward_v I I I I #
loop $-1 $-1 $214 $52 #
coedge $-1 $134 $134 $135 $215 reversed $82 $-1 #
coedge $-1 $135 $135 $134 $215 forward $84 $-1 #
coedge $-1 $136 $136 $85 $137 forward $131 $-1 #
edge $-1 $216 0 $216 6.2831853071796004 $136 $217 forward 7 unknown #
face $-1 $218 $219 $29 $-1 $220 forward single #
loop $-1 $-1 $221 $86 #
plane-surface $-1 0 -25.485391584536664 7.5340261872786041 0 -1 0 0 0 -1 forward_v I I I I #
coedge $-1 $222 $223 $224 $225 reversed $87 $-1 #
coedge $-1 $143 $89 $226 $227 reversed $56 $-1 #
coedge $-1 $89 $142 $222 $228 reversed $56 $-1 #
coedge $-1 $224 $229 $89 $145 forward $219 $-1 #
edge $-1 $230 -40.455439803285977 $231 -32.497401091741587 $144 $232 forward 7 unknown #
loop $-1 $-1 $151 $90 #
plane-surface $-1 -34.675877435936258 -20.321615489730522 73.638902385752871 0.6018150307709319 0 0.79863550430605224 0.79863550430605224 0 -0.6018150307709319 forward_v I I I I #
loop $-1 $-1 $233 $58 #
coedge $-1 $149 $149 $150 $234 reversed $91 $-1 #
coedge $-1 $150 $150 $149 $234 forward $93 $-1 #
coedge $-1 $151 $151 $94 $152 forward $146 $-1 #
edge $-1 $235 0 $235 6.2831853071796004 $151 $236 forward 7 unknown #
loop $-1 $-1 $158 $95 #
plane-surface $-1 -34.675877435936258 -20.321615489730522 73.638902385752871 0.6018150307709319 0 0.79863550430605224 0.79863550430605224 0 -0.6018150307709319 forward_v I I I I #
loop $-1 $-1 $237 $61 #
coedge $-1 $156 $156 $157 $238 reversed $96 $-1 #
coedge $-1 $157 $157 $156 $238 forward $98 $-1 #
coedge $-1 $158 $158 $99 $159 forward $153 $-1 #
edge $-1 $239 0 $239 6.2831853071796004 $158 $240 forward 7 unknown #
face $-1 $241 $242 $24 $-1 $243 reversed single #
loop $-1 $-1 $244 $100 #
plane-surface $-1 -58.057191686758017 0 0 1 0 0 0 0 -1 forward_v I I I I #
coedge $-1 $245 $171 $246 $247 forward $101 $-1 #
coedge $-1 $248 $103 $245 $249 forward $65 $-1 #
coedge $-1 $103 $248 $250 $251 forward $65 $-1 #
coedge $-1 $174 $173 $103 $167 reversed $175 $-1 #
edge $-1 $252 -37.268971437628529 $253 37.268971437628529 $166 $254 forward 7 unknown #
coedge $-1 $105 $104 $255 $256 forward $41 $-1 #
coedge $-1 $257 $258 $104 $170 reversed $242 $-1 #
edge $-1 $177 -58.057191686758017 $259 58.057191686758017 $169 $260 forward 7 unknown #
coedge $-1 $163 $261 $105 $172 reversed $101 $-1 #
edge $-1 $262 -58.057191686758017 $176 58.057191686758017 $171 $263 forward 7 unknown #
coedge $-1 $166 $106 $261 $264 forward $175 $-1 #
coedge $-1 $106 $166 $257 $265 reversed $175 $-1 #
loop $-1 $-1 $173 $241 #
vertex $-1 $107 $266 #
vertex $-1 $107 $267 #
straight-curve $-1 58.057191686758017 0 9.7563336038602859 0 1 0 I I #
face $-1 $268 $269 $25 $-1 $270 forward single #
loop $-1 $-1 $187 $108 #
plane-surface $-1 0 -37.268971437628529 0 0 1 0 0 0 1 forward_v I I I I #
coedge $-1 $271 $272 $183 $273 forward $109 $-1 #
coedge $-1 $274 $111 $182 $273 reversed $69 $-1 #
coedge $-1 $111 $274 $189 $275 reversed $69 $-1 #
edge $-1 $276 -58.057191686758017 $193 58.057191686758017 $111 $277 forward 7 unknown #
coedge $-1 $113 $112 $271 $278 reversed $44 $-1 #
coedge $-1 $279 $280 $112 $188 forward $180 $-1 #
edge $-1 $281 -58.057191686758017 $192 58.057191686758017 $187 $282 forward 7 unknown #
coedge $-1 $283 $114 $184 $275 forward $191 $-1 #
coedge $-1 $114 $283 $279 $284 forward $191 $-1 #
loop $-1 $-1 $189 $268 #
vertex $-1 $188 $285 #
vertex $-1 $115 $286 #
straight-curve $-1 58.057191686758017 -15.688590755541298 5.3117187706969204 0 1 0 I I #
face $-1 $-1 $287 $26 $-1 $288 forward single #
loop $-1 $-1 $289 $116 #
plane-surface $-1 -58.057191686758017 0 0 1 0 0 0 0 -1 forward_v I I I I #
coedge $-1 $199 $119 $121 $205 reversed $73 $-1 #
coedge $-1 $119 $198 $289 $290 reversed $73 $-1 #
coedge $-1 $291 $122 $119 $201 forward $117 $-1 #
edge $-1 $208 -13.869133469605536 $292 -5.9110947580611537 $200 $293 forward 7 unknown #
coedge $-1 $121 $120 $294 $295 reversed $47 $-1 #
coedge $-1 $296 $297 $120 $204 forward $287 $-1 #
edge $-1 $298 -24.319044203359411 $207 -14.354500092013833 $203 $299 forward 7 unknown #
edge $-1 $300 -1.7763522597878294e-014 $208 9.9645441113455657 $198 $301 forward 7 unknown #
coedge $-1 $122 $291 $296 $302 forward $117 $-1 #
vertex $-1 $204 $303 #
vertex $-1 $123 $304 #
straight-curve $-1 -50.099152975213642 -10.160807744865261 9.7563336038602859 0 1 0 I I #
coedge $-1 $210 $210 $-1 $305 reversed $126 $-1 #
edge $-1 $306 0 $306 6.2831853071796004 $127 $307 forward 7 unknown #
vertex $-1 $130 $308 #
ellipse-curve $-1 -54.078172330985822 -22.534662387504582 6.757927393366411 -0.6018150307709319 0 0.79863550430605224 0.79863550430605224 0 0.6018150307709319 1 I I #
coedge $-1 $214 $214 $-1 $309 reversed $133 $-1 #
edge $-1 $310 0 $310 6.2831853071796004 $134 $311 forward 7 unknown #
vertex $-1 $137 $312 #
ellipse-curve $-1 -54.078172330985822 -18.108568591956463 6.757927393366411 -0.6018150307709319 0 0.79863550430605224 0.79863550430605224 0 0.6018150307709319 1 I I #
face $-1 $-1 $313 $29 $-1 $314 reversed single #
loop $-1 $-1 $224 $138 #
plane-surface $-1 0 0 9.7563336038602859 0 0 1 1 0 0 forward_v I I I I #
coedge $-1 $315 $316 $223 $317 reversed $139 $-1 #
coedge $-1 $318 $141 $143 $228 forward $87 $-1 #
coedge $-1 $141 $318 $221 $317 forward $87 $-1 #
coedge $-1 $319 $144 $141 $225 forward $219 $-1 #
edge $-1 $231 4.9970316500591192 $320 15.324583839671403 $224 $321 forward 7 unknown #
coedge $-1 $322 $323 $142 $227 forward $313 $-1 #
edge $-1 $324 -79.426464571351033 $230 -73.429652150363282 $226 $325 forward 7 unknown #
edge $-1 $231 106.14983926217046 $324 116.11438337351605 $143 $326 forward 7 unknown #
coedge $-1 $144 $319 $322 $327 forward $219 $-1 #
vertex $-1 $227 $328 #
vertex $-1 $145 $329 #
straight-curve $-1 17.601751883472041 -15.15783939492438 9.7563336038602841 -1 0 0 I I #
coedge $-1 $233 $233 $-1 $330 reversed $148 $-1 #
edge $-1 $331 0 $331 6.2831853071796004 $149 $332 forward 7 unknown #
vertex $-1 $152 $333 #
ellipse-curve $-1 54.078172330985829 -22.534662387504582 6.7579273933663995 0.6018150307709319 0 0.79863550430605224 0.79863550430605224 0 -0.6018150307709319 1 I I #
coedge $-1 $237 $237 $-1 $334 reversed $155 $-1 #
edge $-1 $335 0 $335 6.2831853071796004 $156 $336 forward 7 unknown #
vertex $-1 $159 $337 #
ellipse-curve $-1 54.078172330985829 -18.108568591956463 6.7579273933663995 0.6018150307709319 0 0.79863550430605224 0.79863550430605224 0 -0.6018150307709319 1 I I #
face $-1 $-1 $175 $24 $-1 $338 reversed single #
loop $-1 $-1 $257 $160 #
plane-surface $-1 0 37.268971437628529 0 0 -1 0 0 0 -1 forward_v I I I I #
coedge $-1 $339 $255 $258 $340 forward $161 $-1 #
coedge $-1 $261 $163 $164 $249 reversed $101 $-1 #
coedge $-1 $255 $339 $163 $247 reversed $161 $-1 #
edge $-1 $262 -9.7563336038602859 $341 9.7563336038602859 $246 $342 forward 7 unknown #
coedge $-1 $165 $164 $339 $343 forward $65 $-1 #
edge $-1 $253 -58.057191686758017 $341 58.057191686758017 $245 $344 forward 7 unknown #
coedge $-1 $258 $257 $165 $251 reversed $242 $-1 #
edge $-1 $345 -58.057191686758017 $252 58.057191686758017 $250 $346 forward 7 unknown #
vertex $-1 $167 $347 #
vertex $-1 $264 $348 #
straight-curve $-1 58.057191686758017 0 -9.7563336038602859 0 -1 0 I I #
coedge $-1 $244 $246 $168 $256 reversed $161 $-1 #
edge $-1 $259 -37.268971437628529 $262 37.268971437628529 $255 $349 forward 7 unknown #
coedge $-1 $250 $169 $174 $265 forward $242 $-1 #
coedge $-1 $169 $250 $244 $340 reversed $242 $-1 #
vertex $-1 $170 $350 #
straight-curve $-1 0 37.268971437628529 9.7563336038602859 -1 0 0 I I #
coedge $-1 $171 $245 $173 $264 reversed $101 $-1 #
vertex $-1 $256 $351 #
straight-curve $-1 0 -37.268971437628529 9.7563336038602859 1 0 0 I I #
edge $-1 $176 -9.7563336038602859 $253 9.7563336038602859 $173 $352 forward 7 unknown #
edge $-1 $177 -9.7563336038602859 $252 9.7563336038602859 $174 $353 forward 7 unknown #
point $-1 58.057191686758017 -37.268971437628529 9.7563336038602859 #
point $-1 58.057191686758017 37.268971437628529 9.7563336038602859 #
face $-1 $-1 $191 $25 $-1 $354 reversed single #
loop $-1 $-1 $355 $179 #
plane-surface $-1 0 0 9.7563336038602859 0 0 1 1 0 0 forward_v I I I I #
coedge $-1 $356 $182 $186 $278 forward $109 $-1 #
coedge $-1 $182 $356 $357 $358 reversed $109 $-1 #
edge $-1 $359 -5.9893205102209857 $276 -1.5447056770576184 $182 $360 forward 7 unknown #
coedge $-1 $184 $183 $355 $361 reversed $69 $-1 #
edge $-1 $193 1.5447056770576184 $362 5.9893205102209857 $189 $363 forward 7 unknown #
vertex $-1 $278 $364 #
straight-curve $-1 0 -25.485391584536664 5.3117187706969204 1 0 0 I I #
edge $-1 $276 9.7968008289953659 $281 21.580380682087231 $271 $365 forward 7 unknown #
coedge $-1 $366 $187 $190 $284 reversed $180 $-1 #
coedge $-1 $187 $366 $356 $367 forward $180 $-1 #
vertex $-1 $188 $368 #
straight-curve $-1 0 -37.268971437628529 5.3117187706969204 1 0 0 I I #
coedge $-1 $190 $189 $369 $370 reversed $191 $-1 #
edge $-1 $371 -9.7563336038602859 $192 -5.3117187706969204 $190 $372 forward 7 unknown #
point $-1 58.057191686758017 -37.268971437628529 5.3117187706969204 #
point $-1 58.057191686758017 -25.485391584536664 5.3117187706969204 #
loop $-1 $-1 $203 $195 #
plane-surface $-1 0 -25.485391584536664 7.5340261872786041 0 -1 0 0 0 -1 forward_v I I I I #
coedge $-1 $294 $373 $199 $290 forward $196 $-1 #
edge $-1 $292 38.489961548923119 $300 44.486773969910871 $289 $374 forward 7 unknown #
coedge $-1 $206 $200 $373 $375 forward $117 $-1 #
vertex $-1 $375 $376 #
straight-curve $-1 -63.968286444819171 -15.15783939492438 9.7563336038602841 -1 0 0 I I #
coedge $-1 $377 $289 $202 $295 forward $196 $-1 #
edge $-1 $300 4.9970316500591192 $298 15.324583839671403 $294 $378 forward 7 unknown #
coedge $-1 $297 $203 $206 $302 reversed $287 $-1 #
coedge $-1 $203 $296 $377 $379 reversed $287 $-1 #
vertex $-1 $379 $380 #
straight-curve $-1 -38.635139555166901 -25.485391584536664 18.395087518436934 0.79863550430605224 0 0.6018150307709319 I I #
vertex $-1 $295 $381 #
straight-curve $-1 -58.057191686758003 -15.15783939492438 3.7595211828725468 0.79863550430605224 0 0.6018150307709319 I I #
edge $-1 $382 -58.057191686758017 $207 -50.099152975213642 $206 $383 forward 7 unknown #
point $-1 -50.099152975213642 -25.485391584536664 9.7563336038602859 #
point $-1 -50.099152975213634 -15.15783939492438 9.7563336038602859 #
edge $-1 $384 1 $384 0 $210 $-1 forward 7 unknown #
vertex $-1 $211 $385 #
ellipse-curve $-1 -52.767171723776471 -22.534662387504582 5.0181708609598452 -0.6018150307709319 0 0.79863550430605224 0.79863550430605224 0 0.6018150307709319 1 I I #
point $-1 -53.279536826679774 -22.534662387504582 7.3597424241373446 #
edge $-1 $386 1 $386 0 $214 $-1 forward 7 unknown #
vertex $-1 $215 $387 #
ellipse-curve $-1 -52.767171723776471 -18.108568591956463 5.0181708609598452 -0.6018150307709319 0 0.79863550430605224 0.79863550430605224 0 0.6018150307709319 1 I I #
point $-1 -53.279536826679774 -18.108568591956463 7.3597424241373446 #
loop $-1 $-1 $226 $218 #
plane-surface $-1 58.057191686758017 0 0 -1 0 0 0 0 1 forward_v I I I I #
coedge $-1 $316 $221 $388 $389 reversed $139 $-1 #
coedge $-1 $221 $315 $319 $390 reversed $139 $-1 #
edge $-1 $391 -116.11438337351605 $320 -106.14983926217046 $221 $392 forward 7 unknown #
coedge $-1 $223 $222 $323 $393 reversed $87 $-1 #
coedge $-1 $229 $224 $316 $390 forward $219 $-1 #
vertex $-1 $390 $394 #
straight-curve $-1 50.099152975213627 -10.160807744865261 9.7563336038602841 0 -1 0 I I #
coedge $-1 $388 $226 $229 $327 reversed $313 $-1 #
coedge $-1 $226 $388 $318 $393 forward $313 $-1 #
vertex $-1 $227 $395 #
straight-curve $-1 58.057191686758017 -15.15783939492438 83.185985754223566 0 0 1 I I #
straight-curve $-1 -34.675877435936258 -15.15783939492438 73.638902385752871 0.79863550430605224 0 -0.6018150307709319 I I #
edge $-1 $396 -25.485391584536664 $230 -15.15783939492438 $322 $397 forward 7 unknown #
point $-1 58.057191686758017 -15.15783939492438 9.7563336038602859 #
point $-1 50.099152975213627 -15.15783939492438 9.7563336038602841 #
edge $-1 $398 1 $398 0 $233 $-1 forward 7 unknown #
vertex $-1 $234 $399 #
ellipse-curve $-1 52.767171723776478 -22.534662387504582 5.0181708609598346 0.6018150307709319 0 0.79863550430605224 0.79863550430605224 0 -0.6018150307709319 1 I I #
point $-1 54.876807835291885 -22.534662387504582 6.1561123625954703 #
edge $-1 $400 1 $400 0 $237 $-1 forward 7 unknown #
vertex $-1 $238 $401 #
ellipse-curve $-1 52.767171723776478 -18.108568591956463 5.0181708609598346 0.6018150307709319 0 0.79863550430605224 0.79863550430605224 0 -0.6018150307709319 1 I I #
point $-1 54.876807835291885 -18.108568591956463 6.1561123625954703 #
plane-surface $-1 58.057191686758017 0 0 -1 0 0 0 0 1 forward_v I I I I #
coedge $-1 $246 $244 $248 $343 reversed $161 $-1 #
edge $-1 $259 -9.7563336038602859 $345 9.7563336038602859 $258 $402 forward 7 unknown #
vertex $-1 $343 $403 #
straight-curve $-1 -58.057191686758017 -37.268971437628529 0 0 0 -1 I I #
edge $-1 $341 -37.268971437628529 $345 37.268971437628529 $339 $404 forward 7 unknown #
straight-curve $-1 0 -37.268971437628529 -9.7563336038602859 -1 0 0 I I #
vertex $-1 $251 $405 #
straight-curve $-1 0 37.268971437628529 -9.7563336038602859 1 0 0 I I #
point $-1 58.057191686758017 37.268971437628529 -9.7563336038602859 #
point $-1 58.057191686758017 -37.268971437628529 -9.7563336038602859 #
straight-curve $-1 -58.057191686758017 0 9.7563336038602859 0 -1 0 I I #
point $-1 -58.057191686758017 37.268971437628529 9.7563336038602859 #
point $-1 -58.057191686758017 -37.268971437628529 9.7563336038602859 #
straight-curve $-1 58.057191686758017 -37.268971437628529 0 0 0 -1 I I #
straight-curve $-1 58.057191686758017 37.268971437628529 0 0 0 -1 I I #
plane-surface $-1 58.057191686758017 0 0 -1 0 0 0 0 1 forward_v I I I I #
coedge $-1 $357 $369 $274 $361 forward $269 $-1 #
coedge $-1 $272 $271 $280 $367 reversed $109 $-1 #
coedge $-1 $406 $355 $272 $358 forward $269 $-1 #
edge $-1 $359 25.485391584536664 $407 37.268971437628529 $272 $408 forward 7 unknown #
vertex $-1 $358 $409 #
straight-curve $-1 -58.057191686758017 -25.485391584536664 3.767013093639302 0 0 -1 I I #
edge $-1 $362 -58.057191686758017 $359 58.057191686758017 $355 $410 forward 7 unknown #
vertex $-1 $275 $411 #
straight-curve $-1 58.057191686758017 -25.485391584536664 3.767013093639302 0 0 1 I I #
point $-1 -58.057191686758017 -25.485391584536664 5.3117187706969204 #
straight-curve $-1 -58.057191686758017 -15.688590755541298 5.3117187706969204 0 -1 0 I I #
coedge $-1 $280 $279 $406 $412 reversed $180 $-1 #
edge $-1 $407 -9.7563336038602859 $281 -5.3117187706969204 $356 $413 forward 7 unknown #
point $-1 -58.057191686758017 -37.268971437628529 5.3117187706969204 #
coedge $-1 $355 $406 $283 $370 forward $269 $-1 #
edge $-1 $371 -37.268971437628529 $362 -25.485391584536664 $283 $414 forward 7 unknown #
vertex $-1 $370 $415 #
straight-curve $-1 58.057191686758017 -37.268971437628529 0 0 0 -1 I I #
coedge $-1 $289 $377 $291 $375 reversed $196 $-1 #
straight-curve $-1 -58.057191686758017 -15.15783939492438 48.246295152783404 0 0 -1 I I #
edge $-1 $292 15.15783939492438 $382 25.485391584536664 $373 $416 forward 7 unknown #
point $-1 -58.057191686758017 -15.15783939492438 9.7563336038602859 #
coedge $-1 $373 $294 $297 $379 forward $196 $-1 #
straight-curve $-1 -58.057191686758017 -10.160807744865261 3.7595211828725366 0 -1 0 I I #
edge $-1 $298 -44.486773969910871 $382 -38.489961548923119 $377 $417 forward 7 unknown #
point $-1 -58.057191686758017 -25.485391584536664 3.7595211828725361 #
point $-1 -58.057191686758017 -15.15783939492438 3.7595211828725361 #
vertex $-1 $379 $418 #
straight-curve $-1 0 -25.485391584536664 9.7563336038602859 1 0 0 I I #
vertex $-1 $305 $419 #
point $-1 -51.968536219470415 -22.534662387504582 5.619985891730777 #
vertex $-1 $309 $420 #
point $-1 -51.968536219470415 -18.108568591956463 5.619985891730777 #
coedge $-1 $323 $322 $315 $389 forward $313 $-1 #
edge $-1 $396 73.429652150363282 $391 79.426464571351033 $388 $421 forward 7 unknown #
edge $-1 $320 50.099152975213627 $396 58.057191686758017 $319 $422 forward 7 unknown #
vertex $-1 $389 $423 #
straight-curve $-1 -34.675877435936258 -25.485391584536664 73.638902385752871 -0.79863550430605224 0 0.6018150307709319 I I #
edge $-1 $391 -15.324583839671403 $324 -4.9970316500591192 $323 $424 forward 7 unknown #
point $-1 50.099152975213627 -25.485391584536664 9.7563336038602859 #
point $-1 58.057191686758017 -15.15783939492438 3.7595211828725326 #
vertex $-1 $327 $425 #
straight-curve $-1 58.057191686758017 0 9.7563336038602859 0 1 0 I I #
vertex $-1 $330 $426 #
point $-1 53.565807228082527 -22.534662387504582 4.4163558301889028 #
vertex $-1 $334 $427 #
point $-1 53.565807228082527 -18.108568591956463 4.4163558301889028 #
straight-curve $-1 -58.057191686758017 37.268971437628529 0 0 0 -1 I I #
point $-1 -58.057191686758017 -37.268971437628529 -9.7563336038602859 #
straight-curve $-1 -58.057191686758017 0 -9.7563336038602859 0 1 0 I I #
point $-1 -58.057191686758017 37.268971437628529 -9.7563336038602859 #
coedge $-1 $369 $357 $366 $412 forward $269 $-1 #
vertex $-1 $358 $428 #
straight-curve $-1 -58.057191686758017 0 9.7563336038602859 0 -1 0 I I #
point $-1 -58.057191686758017 -25.485391584536664 9.7563336038602877 #
straight-curve $-1 0 -25.485391584536664 9.7563336038602859 -1 0 0 I I #
point $-1 58.057191686758017 -25.485391584536664 9.7563336038602877 #
edge $-1 $407 -58.057191686758017 $371 58.057191686758017 $366 $429 forward 7 unknown #
straight-curve $-1 -58.057191686758017 -37.268971437628529 0 0 0 -1 I I #
straight-curve $-1 58.057191686758017 0 9.7563336038602859 0 1 0 I I #
point $-1 58.057191686758017 -37.268971437628529 9.7563336038602859 #
straight-curve $-1 -58.057191686758017 0 9.7563336038602859 0 -1 0 I I #
straight-curve $-1 -58.057191686758017 -25.485391584536664 48.246295152783404 0 0 1 I I #
point $-1 -58.057191686758017 -25.485391584536664 9.7563336038602877 #
point $-1 -52.165356693005535 -22.534662387504582 4.2195353566537932 #
point $-1 -52.165356693005535 -18.108568591956463 4.2195353566537932 #
straight-curve $-1 58.057191686758017 -25.485391584536664 83.185985754223566 0 0 -1 I I #
straight-curve $-1 0 -25.485391584536664 9.7563336038602859 1 0 0 I I #
point $-1 58.057191686758017 -25.485391584536664 3.7595211828725326 #
straight-curve $-1 58.057191686758017 -10.160807744865261 3.7595211828725255 0 1 0 I I #
point $-1 58.057191686758017 -25.485391584536664 9.7563336038602877 #
point $-1 52.165356693005542 -22.534662387504582 4.2195353566537825 #
point $-1 52.165356693005542 -18.108568591956463 4.2195353566537825 #
point $-1 -58.057191686758017 -37.268971437628529 9.7563336038602859 #
straight-curve $-1 0 -37.268971437628529 9.7563336038602859 1 0 0 I I #
End-of-ACIS-data 