500 0 11 0           
7 Unknown 11 ACIS 5.0 NT 24 Fri Mar 26 15:53:45 1999 
-1 9.9999999999999995e-007 1e-010 
body $-1 $11 $-1 $12 #
body $-1 $13 $-1 $14 #
body $-1 $15 $-1 $16 #
body $-1 $17 $-1 $18 #
body $-1 $19 $-1 $20 #
body $-1 $21 $-1 $22 #
body $-1 $23 $-1 $24 #
body $-1 $25 $-1 $26 #
body $-1 $27 $-1 $28 #
body $-1 $29 $-1 $30 #
body $-1 $31 $-1 $32 #
lump $-1 $-1 $33 $0 #
transform $-1 1 0 0 0 1 0 0 0 1 66.59993285927915 44.804090090137024 14.145414361750435 1 rotate no_reflect no_shear #
lump $-1 $-1 $34 $1 #
transform $-1 1 0 0 0 1 0 0 0 1 66.59993285927915 44.804090090137024 14.145414361750435 1 rotate no_reflect no_shear #
lump $-1 $-1 $35 $2 #
transform $-1 1 0 0 0 1 0 0 0 1 66.59993285927915 44.804090090137024 14.145414361750435 1 rotate no_reflect no_shear #
lump $-1 $-1 $36 $3 #
transform $-1 1 0 0 0 1 0 0 0 1 66.59993285927915 44.804090090137024 14.145414361750435 1 rotate no_reflect no_shear #
lump $-1 $-1 $37 $4 #
transform $-1 1 0 0 0 1 0 0 0 1 66.59993285927915 44.804090090137024 14.145414361750435 1 rotate no_reflect no_shear #
lump $-1 $-1 $38 $5 #
transform $-1 1 0 0 0 1 0 0 0 1 66.59993285927915 44.804090090137024 14.145414361750435 1 rotate no_reflect no_shear #
lump $-1 $-1 $39 $6 #
transform $-1 1 0 0 0 1 0 0 0 1 66.59993285927915 44.804090090137024 14.145414361750435 1 rotate no_reflect no_shear #
lump $-1 $-1 $40 $7 #
transform $-1 1 0 0 0 1 0 0 0 1 66.59993285927915 44.804090090137024 14.145414361750435 1 rotate no_reflect no_shear #
lump $-1 $-1 $41 $8 #
transform $-1 1 0 0 0 1 0 0 0 1 66.59993285927915 44.804090090137024 14.145414361750435 1 rotate no_reflect no_shear #
lump $-1 $-1 $42 $9 #
transform $-1 1 0 0 0 1 0 0 0 1 66.59993285927915 44.804090090137024 14.145414361750435 1 rotate no_reflect no_shear #
lump $-1 $-1 $43 $10 #
transform $-1 1 0 0 0 1 0 0 0 1 66.59993285927915 44.804090090137024 14.145414361750435 1 rotate no_reflect no_shear #
shell $-1 $-1 $-1 $44 $-1 $11 #
shell $-1 $-1 $-1 $45 $-1 $13 #
shell $-1 $-1 $-1 $46 $-1 $15 #
shell $-1 $-1 $-1 $47 $-1 $17 #
shell $-1 $-1 $-1 $48 $-1 $19 #
shell $-1 $-1 $-1 $49 $-1 $21 #
shell $-1 $-1 $-1 $50 $-1 $23 #
shell $-1 $-1 $-1 $51 $-1 $25 #
shell $-1 $-1 $-1 $52 $-1 $27 #
shell $-1 $-1 $-1 $53 $-1 $29 #
shell $-1 $-1 $-1 $54 $-1 $31 #
face $-1 $55 $56 $33 $-1 $57 forward single #
face $-1 $58 $59 $34 $-1 $60 forward single #
face $-1 $61 $62 $35 $-1 $63 reversed single #
face $-1 $64 $65 $36 $-1 $66 forward single #
face $-1 $67 $68 $37 $-1 $69 forward single #
face $-1 $70 $71 $38 $-1 $72 reversed single #
face $-1 $73 $74 $39 $-1 $75 forward single #
face $-1 $76 $77 $40 $-1 $78 forward single #
face $-1 $79 $80 $41 $-1 $81 reversed single #
face $-1 $82 $83 $42 $-1 $84 forward single #
face $-1 $85 $86 $43 $-1 $87 forward single #
face $-1 $88 $89 $33 $-1 $90 reversed single #
loop $-1 $-1 $91 $44 #
plane-surface $-1 0 0 14.145414361750435 0 0 1 1 0 0 forward_v I I I I #
face $-1 $92 $93 $34 $-1 $94 reversed single #
loop $-1 $-1 $95 $45 #
plane-surface $-1 -66.59993285927915 0 0 1 0 0 0 0 -1 forward_v I I I I #
face $-1 $96 $97 $35 $-1 $98 reversed single #
loop $-1 $-1 $99 $46 #
plane-surface $-1 -55.401437372692101 72.873763109140228 167.89448491943659 1 0 0 0 -0.69465837861970381 -0.71933979245794832 forward_v I I I I #
face $-1 $100 $101 $36 $-1 $102 forward single #
loop $-1 $103 $104 $47 #
cone-surface $-1 -46.286905417541178 41.087368687891896 10.452636225041363 0 -0.69465837861970381 -0.71933979245794832 1.5 0 0 1 I I 0 1 1.5 forward I I I I #
face $-1 $105 $106 $37 $-1 $107 forward single #
loop $-1 $108 $109 $48 #
cone-surface $-1 -32.615107484814786 41.087368687891896 10.452636225041363 0 -0.69465837861970381 -0.71933979245794832 1.5 0 0 1 I I 0 1 1.5 forward I I I I #
face $-1 $110 $111 $38 $-1 $112 reversed single #
loop $-1 $-1 $113 $49 #
plane-surface $-1 -12.863331629170048 -133.93219807724716 107.83454897420144 -1 0 0 0 -0.66913061440640931 0.74314481823134659 forward_v I I I I #
face $-1 $114 $115 $39 $-1 $116 forward single #
loop $-1 $117 $118 $50 #
cone-surface $-1 -26.113093509899187 -41.290525478897322 10.861601207428912 0 0.66913061440640931 -0.74314481823134659 1 0 0 1 I I 0 1 1 forward I I I I #
face $-1 $119 $120 $40 $-1 $121 forward single #
loop $-1 $122 $123 $51 #
cone-surface $-1 -18.163236381461701 -41.290525478897322 10.861601207428912 0 0.66913061440640931 -0.74314481823134659 1 0 0 1 I I 0 1 1 forward I I I I #
face $-1 $124 $125 $41 $-1 $126 reversed single #
loop $-1 $-1 $127 $52 #
plane-surface $-1 42.611493748777889 -133.93219807724716 107.83454897420144 -1 0 0 0 -0.66913061440640931 0.74314481823134659 forward_v I I I I #
face $-1 $128 $129 $42 $-1 $130 forward single #
loop $-1 $131 $132 $53 #
cone-surface $-1 29.36173186804875 -41.290525478897322 10.861601207428912 0 0.66913061440640931 -0.74314481823134659 1 0 0 1 I I 0 1 1 forward I I I I #
face $-1 $133 $134 $43 $-1 $135 forward single #
loop $-1 $136 $137 $54 #
cone-surface $-1 37.311588996486236 -41.290525478897322 10.861601207428912 0 0.66913061440640931 -0.74314481823134659 1 0 0 1 I I 0 1 1 forward I I I I #
face $-1 $138 $139 $33 $-1 $140 reversed single #
loop $-1 $-1 $141 $55 #
plane-surface $-1 0 0 -14.145414361750435 0 0 1 1 0 0 forward_v I I I I #
coedge $-1 $142 $143 $144 $145 forward $56 $-1 #
face $-1 $146 $147 $34 $-1 $148 forward single #
loop $-1 $-1 $149 $58 #
plane-surface $-1 0 44.804090090137024 0 0 -1 0 0 0 -1 forward_v I I I I #
coedge $-1 $150 $151 $152 $153 forward $59 $-1 #
face $-1 $154 $155 $35 $-1 $156 reversed single #
loop $-1 $-1 $157 $61 #
plane-surface $-1 -39.451006451177982 -19.654639643275743 72.078521158022284 0 0.69465837861970381 0.71933979245794832 1 0 0 forward_v I I I I #
coedge $-1 $158 $159 $160 $161 reversed $62 $-1 #
face $-1 $-1 $162 $36 $-1 $163 forward single #
loop $-1 $164 $165 $64 #
cone-surface $-1 -46.286905417541178 39.0832749195867 8.3773364233986367 0 -0.69465837861970381 -0.71933979245794832 0.75 0 0 1 I I -0.70710678118654757 0.70710678118654757 0.75 forward I I I I #
loop $-1 $-1 $166 $47 #
coedge $-1 $104 $104 $167 $168 reversed $65 $-1 #
face $-1 $-1 $169 $37 $-1 $170 forward single #
loop $-1 $171 $172 $67 #
cone-surface $-1 -32.615107484814786 39.0832749195867 8.3773364233986367 0 -0.69465837861970381 -0.71933979245794832 0.75 0 0 1 I I -0.70710678118654757 0.70710678118654757 0.75 forward I I I I #
loop $-1 $-1 $173 $48 #
coedge $-1 $109 $109 $174 $175 reversed $68 $-1 #
face $-1 $176 $177 $38 $-1 $178 reversed single #
loop $-1 $-1 $179 $70 #
plane-surface $-1 -22.138164945680444 -44.804090090137038 8.8477589763436555 0 -0.66913061440640931 0.74314481823134659 1 0 0 forward_v I I I I #
coedge $-1 $180 $181 $182 $183 reversed $71 $-1 #
face $-1 $-1 $184 $39 $-1 $185 forward single #
loop $-1 $186 $187 $73 #
cone-surface $-1 -26.113093509899187 -40.38421668153174 9.8550433366951093 0 0.66913061440640931 -0.74314481823134659 0.5 0 0 1 I I -0.70710678118654746 0.70710678118654746 0.5 forward I I I I #
loop $-1 $-1 $188 $50 #
coedge $-1 $118 $118 $189 $190 reversed $74 $-1 #
face $-1 $-1 $191 $40 $-1 $192 forward single #
loop $-1 $193 $194 $76 #
cone-surface $-1 -18.163236381461701 -40.38421668153174 9.8550433366951093 0 0.66913061440640931 -0.74314481823134659 0.5 0 0 1 I I -0.70710678118654746 0.70710678118654746 0.5 forward I I I I #
loop $-1 $-1 $195 $51 #
coedge $-1 $123 $123 $196 $197 reversed $77 $-1 #
face $-1 $198 $199 $41 $-1 $200 reversed single #
loop $-1 $-1 $201 $79 #
plane-surface $-1 33.336660432267493 -44.804090090137038 8.8477589763436555 0 -0.66913061440640931 0.74314481823134659 1 0 0 forward_v I I I I #
coedge $-1 $202 $203 $204 $205 reversed $80 $-1 #
face $-1 $-1 $206 $42 $-1 $207 forward single #
loop $-1 $208 $209 $82 #
cone-surface $-1 29.36173186804875 -40.38421668153174 9.8550433366951093 0 0.66913061440640931 -0.74314481823134659 0.5 0 0 1 I I -0.70710678118654746 0.70710678118654746 0.5 forward I I I I #
loop $-1 $-1 $210 $53 #
coedge $-1 $132 $132 $211 $212 reversed $83 $-1 #
face $-1 $-1 $213 $43 $-1 $214 forward single #
loop $-1 $215 $216 $85 #
cone-surface $-1 37.311588996486236 -40.38421668153174 9.8550433366951093 0 0.66913061440640931 -0.74314481823134659 0.5 0 0 1 I I -0.70710678118654746 0.70710678118654746 0.5 forward I I I I #
loop $-1 $-1 $217 $54 #
coedge $-1 $137 $137 $218 $219 reversed $86 $-1 #
face $-1 $220 $221 $33 $-1 $222 reversed single #
loop $-1 $-1 $223 $88 #
plane-surface $-1 0 -44.804090090137024 0 0 1 0 0 0 1 forward_v I I I I #
coedge $-1 $224 $225 $226 $227 forward $89 $-1 #
coedge $-1 $228 $91 $229 $230 forward $56 $-1 #
coedge $-1 $91 $228 $231 $232 forward $56 $-1 #
coedge $-1 $233 $234 $91 $145 reversed $235 $-1 #
edge $-1 $236 -44.804090090137024 $237 44.804090090137024 $144 $238 forward 7 unknown #
face $-1 $239 $240 $34 $-1 $241 reversed single #
loop $-1 $-1 $152 $92 #
plane-surface $-1 -72.199180602572667 0 -7.5631580996772021 0 0 1 1 0 0 forward_v I I I I #
coedge $-1 $242 $243 $151 $244 forward $93 $-1 #
coedge $-1 $245 $95 $246 $247 reversed $59 $-1 #
coedge $-1 $95 $245 $149 $244 reversed $59 $-1 #
coedge $-1 $248 $249 $95 $153 reversed $147 $-1 #
edge $-1 $250 -44.804090090137024 $251 44.804090090137024 $152 $252 forward 7 unknown #
face $-1 $253 $254 $35 $-1 $255 forward single #
loop $-1 $-1 $256 $96 #
plane-surface $-1 -23.500575529663863 72.873763109140228 167.89448491943659 -1 0 0 0 0.69465837861970381 0.71933979245794832 forward_v I I I I #
coedge $-1 $257 $258 $259 $260 reversed $97 $-1 #
coedge $-1 $159 $99 $261 $262 reversed $62 $-1 #
coedge $-1 $99 $158 $257 $263 reversed $62 $-1 #
coedge $-1 $259 $264 $99 $161 forward $254 $-1 #
edge $-1 $265 -8.3672085355669097 $266 -3.8999656997574945 $160 $267 forward 7 unknown #
loop $-1 $-1 $167 $100 #
plane-surface $-1 -39.451006451177982 -19.654639643275743 72.078521158022284 0 0.69465837861970381 0.71933979245794832 1 0 0 forward_v I I I I #
loop $-1 $-1 $268 $64 #
coedge $-1 $165 $165 $166 $269 reversed $101 $-1 #
coedge $-1 $166 $166 $165 $269 forward $103 $-1 #
coedge $-1 $167 $167 $104 $168 forward $162 $-1 #
edge $-1 $270 1.6452815492103992e-015 $270 6.2831853071796022 $167 $271 forward 7 unknown #
loop $-1 $-1 $174 $105 #
plane-surface $-1 -39.451006451177982 -19.654639643275743 72.078521158022284 0 0.69465837861970381 0.71933979245794832 1 0 0 forward_v I I I I #
loop $-1 $-1 $272 $67 #
coedge $-1 $172 $172 $173 $273 reversed $106 $-1 #
coedge $-1 $173 $173 $172 $273 forward $108 $-1 #
coedge $-1 $174 $174 $109 $175 forward $169 $-1 #
edge $-1 $274 1.6452815492103992e-015 $274 6.2831853071796022 $174 $275 forward 7 unknown #
face $-1 $276 $277 $38 $-1 $278 reversed single #
loop $-1 $-1 $279 $110 #
plane-surface $-1 -31.41299826219084 -133.93219807724716 107.83454897420144 1 0 0 0 0.66913061440640931 -0.74314481823134659 forward_v I I I I #
coedge $-1 $280 $281 $282 $283 reversed $111 $-1 #
coedge $-1 $181 $113 $284 $285 reversed $71 $-1 #
coedge $-1 $113 $180 $280 $286 reversed $71 $-1 #
coedge $-1 $282 $287 $113 $183 forward $288 $-1 #
edge $-1 $289 22.162008948486559 $290 28.045651190641181 $182 $291 forward 7 unknown #
loop $-1 $-1 $189 $114 #
plane-surface $-1 -22.138164945680444 -44.804090090137038 8.8477589763436555 0 -0.66913061440640931 0.74314481823134659 1 0 0 forward_v I I I I #
loop $-1 $-1 $292 $73 #
coedge $-1 $187 $187 $188 $293 reversed $115 $-1 #
coedge $-1 $188 $188 $187 $293 forward $117 $-1 #
coedge $-1 $189 $189 $118 $190 forward $184 $-1 #
edge $-1 $294 3.4290345841233657e-015 $294 6.283185307179604 $189 $295 forward 7 unknown #
loop $-1 $-1 $196 $119 #
plane-surface $-1 -22.138164945680444 -44.804090090137038 8.8477589763436555 0 -0.66913061440640931 0.74314481823134659 1 0 0 forward_v I I I I #
loop $-1 $-1 $296 $76 #
coedge $-1 $194 $194 $195 $297 reversed $120 $-1 #
coedge $-1 $195 $195 $194 $297 forward $122 $-1 #
coedge $-1 $196 $196 $123 $197 forward $191 $-1 #
edge $-1 $298 3.4290345841233657e-015 $298 6.283185307179604 $196 $299 forward 7 unknown #
face $-1 $300 $301 $41 $-1 $302 reversed single #
loop $-1 $-1 $303 $124 #
plane-surface $-1 24.061827115757097 -133.93219807724716 107.83454897420144 1 0 0 0 0.66913061440640931 -0.74314481823134659 forward_v I I I I #
coedge $-1 $304 $305 $306 $307 reversed $125 $-1 #
coedge $-1 $203 $127 $308 $309 reversed $80 $-1 #
coedge $-1 $127 $202 $304 $310 reversed $80 $-1 #
coedge $-1 $306 $311 $127 $205 forward $312 $-1 #
edge $-1 $313 22.162008948486559 $314 28.045651190641181 $204 $315 forward 7 unknown #
loop $-1 $-1 $211 $128 #
plane-surface $-1 33.336660432267493 -44.804090090137038 8.8477589763436555 0 -0.66913061440640931 0.74314481823134659 1 0 0 forward_v I I I I #
loop $-1 $-1 $316 $82 #
coedge $-1 $209 $209 $210 $317 reversed $129 $-1 #
coedge $-1 $210 $210 $209 $317 forward $131 $-1 #
coedge $-1 $211 $211 $132 $212 forward $206 $-1 #
edge $-1 $318 3.4290345841233657e-015 $318 6.283185307179604 $211 $319 forward 7 unknown #
loop $-1 $-1 $218 $133 #
plane-surface $-1 33.336660432267493 -44.804090090137038 8.8477589763436555 0 -0.66913061440640931 0.74314481823134659 1 0 0 forward_v I I I I #
loop $-1 $-1 $320 $85 #
coedge $-1 $216 $216 $217 $321 reversed $134 $-1 #
coedge $-1 $217 $217 $216 $321 forward $136 $-1 #
coedge $-1 $218 $218 $137 $219 forward $213 $-1 #
edge $-1 $322 3.4290345841233657e-015 $322 6.283185307179604 $218 $323 forward 7 unknown #
face $-1 $324 $325 $33 $-1 $326 reversed single #
loop $-1 $-1 $327 $138 #
plane-surface $-1 -66.59993285927915 0 0 1 0 0 0 0 -1 forward_v I I I I #
coedge $-1 $328 $231 $327 $329 forward $139 $-1 #
coedge $-1 $330 $141 $328 $331 forward $89 $-1 #
coedge $-1 $141 $330 $332 $333 forward $89 $-1 #
coedge $-1 $234 $233 $141 $227 reversed $235 $-1 #
edge $-1 $334 -44.804090090137024 $335 44.804090090137024 $226 $336 forward 7 unknown #
coedge $-1 $143 $142 $337 $338 forward $56 $-1 #
coedge $-1 $339 $340 $142 $230 reversed $325 $-1 #
edge $-1 $237 -66.59993285927915 $341 66.59993285927915 $229 $342 forward 7 unknown #
coedge $-1 $223 $343 $143 $232 reversed $139 $-1 #
edge $-1 $344 -66.59993285927915 $236 66.59993285927915 $231 $345 forward 7 unknown #
coedge $-1 $226 $144 $343 $346 forward $235 $-1 #
coedge $-1 $144 $226 $339 $347 reversed $235 $-1 #
loop $-1 $-1 $233 $324 #
vertex $-1 $145 $348 #
vertex $-1 $145 $349 #
straight-curve $-1 66.59993285927915 0 14.145414361750435 0 1 0 I I #
face $-1 $350 $351 $34 $-1 $352 reversed single #
loop $-1 $-1 $353 $146 #
plane-surface $-1 -77.798428345866185 0 -10.854286230713818 1 0 0 0 0 -1 forward_v I I I I #
coedge $-1 $354 $149 $355 $356 reversed $93 $-1 #
coedge $-1 $149 $354 $248 $357 reversed $93 $-1 #
edge $-1 $250 7.5631580996772021 $358 14.145414361750435 $149 $359 forward 7 unknown #
coedge $-1 $151 $150 $360 $361 reversed $59 $-1 #
coedge $-1 $362 $363 $150 $247 forward $364 $-1 #
edge $-1 $365 -14.145414361750435 $251 -7.5631580996772021 $246 $366 forward 7 unknown #
coedge $-1 $367 $152 $243 $357 forward $147 $-1 #
coedge $-1 $152 $367 $362 $368 forward $147 $-1 #
vertex $-1 $244 $369 #
vertex $-1 $368 $370 #
straight-curve $-1 -66.59993285927915 0 -7.5631580996772021 0 -1 0 I I #
face $-1 $-1 $371 $35 $-1 $372 reversed single #
loop $-1 $-1 $160 $154 #
plane-surface $-1 0 0 14.145414361750435 0 0 1 1 0 0 forward_v I I I I #
coedge $-1 $373 $374 $375 $376 reversed $155 $-1 #
coedge $-1 $377 $157 $159 $263 forward $97 $-1 #
coedge $-1 $157 $377 $373 $378 forward $97 $-1 #
coedge $-1 $375 $160 $157 $260 forward $254 $-1 #
edge $-1 $266 -35.675934147103106 $379 -3.7750723040748717 $259 $380 forward 7 unknown #
coedge $-1 $381 $382 $158 $262 forward $371 $-1 #
edge $-1 $383 -74.115794456787455 $265 -69.801828097967856 $261 $384 forward 7 unknown #
edge $-1 $266 83.397981769666075 $383 89.608180180274047 $159 $385 forward 7 unknown #
coedge $-1 $160 $375 $381 $386 forward $254 $-1 #
vertex $-1 $262 $387 #
vertex $-1 $161 $388 #
straight-curve $-1 -55.401437372692101 36.436881554570114 14.14541436175044 0 -1 0 I I #
coedge $-1 $268 $268 $-1 $389 reversed $164 $-1 #
edge $-1 $390 0 $390 6.2831853071796004 $165 $391 forward 7 unknown #
vertex $-1 $168 $392 #
ellipse-curve $-1 -46.286905417541178 42.570468672232323 11.988431182340632 0 0.69465837861970381 0.71933979245794832 1.5 0 0 1 I I #
coedge $-1 $272 $272 $-1 $393 reversed $171 $-1 #
edge $-1 $394 0 $394 6.2831853071796004 $172 $395 forward 7 unknown #
vertex $-1 $175 $396 #
ellipse-curve $-1 -32.615107484814786 42.570468672232323 11.988431182340632 0 0.69465837861970381 0.71933979245794832 1.5 0 0 1 I I #
face $-1 $-1 $288 $38 $-1 $397 forward single #
loop $-1 $-1 $398 $176 #
plane-surface $-1 0 -44.804090090137024 0 0 1 0 0 0 1 forward_v I I I I #
coedge $-1 $399 $400 $401 $402 reversed $177 $-1 #
coedge $-1 $403 $179 $181 $286 forward $111 $-1 #
coedge $-1 $179 $403 $399 $404 forward $111 $-1 #
coedge $-1 $401 $182 $179 $283 forward $288 $-1 #
edge $-1 $290 1.7942491563298262 $405 20.343915789350618 $282 $406 forward 7 unknown #
coedge $-1 $407 $408 $180 $285 forward $277 $-1 #
edge $-1 $409 -45.06951551075705 $289 -39.771860125350287 $284 $410 forward 7 unknown #
edge $-1 $290 -7.9172216475349408 $409 -1.8881026247711288e-014 $181 $411 forward 7 unknown #
coedge $-1 $182 $401 $407 $412 forward $288 $-1 #
loop $-1 $-1 $401 $276 #
vertex $-1 $285 $413 #
vertex $-1 $183 $414 #
straight-curve $-1 -12.863331629170048 -66.966099038623582 14.145414361750433 0 1 0 I I #
coedge $-1 $292 $292 $-1 $415 reversed $186 $-1 #
edge $-1 $416 0 $416 6.2831853071796004 $187 $417 forward 7 unknown #
vertex $-1 $190 $418 #
ellipse-curve $-1 -26.113093509899187 -41.862268969059713 11.496586669047053 0 -0.66913061440640931 0.74314481823134659 1 0 0 1 I I #
coedge $-1 $296 $296 $-1 $419 reversed $193 $-1 #
edge $-1 $420 0 $420 6.2831853071796004 $194 $421 forward 7 unknown #
vertex $-1 $197 $422 #
ellipse-curve $-1 -18.163236381461701 -41.862268969059713 11.496586669047053 0 -0.66913061440640931 0.74314481823134659 1 0 0 1 I I #
face $-1 $-1 $312 $41 $-1 $423 forward single #
loop $-1 $-1 $424 $198 #
plane-surface $-1 0 -44.804090090137024 0 0 1 0 0 0 1 forward_v I I I I #
coedge $-1 $425 $426 $427 $428 reversed $199 $-1 #
coedge $-1 $429 $201 $203 $310 forward $125 $-1 #
coedge $-1 $201 $429 $425 $430 forward $125 $-1 #
coedge $-1 $427 $204 $201 $307 forward $312 $-1 #
edge $-1 $314 -25.943163532644142 $431 -7.3934968996233508 $306 $432 forward 7 unknown #
coedge $-1 $433 $434 $202 $309 forward $301 $-1 #
edge $-1 $435 -45.06951551075705 $313 -39.771860125350287 $308 $436 forward 7 unknown #
edge $-1 $314 -7.9172216475349408 $435 -1.8881026247711288e-014 $203 $437 forward 7 unknown #
coedge $-1 $204 $427 $433 $438 forward $312 $-1 #
loop $-1 $-1 $427 $300 #
vertex $-1 $309 $439 #
vertex $-1 $205 $440 #
straight-curve $-1 42.611493748777889 -66.966099038623582 14.145414361750433 0 1 0 I I #
coedge $-1 $316 $316 $-1 $441 reversed $208 $-1 #
edge $-1 $442 0 $442 6.2831853071796004 $209 $443 forward 7 unknown #
vertex $-1 $212 $444 #
ellipse-curve $-1 29.36173186804875 -41.862268969059713 11.496586669047053 0 -0.66913061440640931 0.74314481823134659 1 0 0 1 I I #
coedge $-1 $320 $320 $-1 $445 reversed $215 $-1 #
edge $-1 $446 0 $446 6.2831853071796004 $216 $447 forward 7 unknown #
vertex $-1 $219 $448 #
ellipse-curve $-1 37.311588996486236 -41.862268969059713 11.496586669047053 0 -0.66913061440640931 0.74314481823134659 1 0 0 1 I I #
face $-1 $-1 $235 $33 $-1 $449 reversed single #
loop $-1 $-1 $339 $220 #
plane-surface $-1 0 44.804090090137024 0 0 -1 0 0 0 -1 forward_v I I I I #
coedge $-1 $337 $450 $223 $329 reversed $221 $-1 #
coedge $-1 $343 $223 $224 $331 reversed $139 $-1 #
edge $-1 $344 -14.145414361750435 $451 14.145414361750435 $327 $452 forward 7 unknown #
coedge $-1 $225 $224 $450 $453 forward $89 $-1 #
edge $-1 $335 -66.59993285927915 $451 66.59993285927915 $328 $454 forward 7 unknown #
coedge $-1 $340 $339 $225 $333 reversed $325 $-1 #
edge $-1 $455 -66.59993285927915 $334 66.59993285927915 $332 $456 forward 7 unknown #
vertex $-1 $227 $457 #
vertex $-1 $346 $458 #
straight-curve $-1 66.59993285927915 0 -14.145414361750435 0 -1 0 I I #
coedge $-1 $459 $327 $228 $338 reversed $221 $-1 #
edge $-1 $341 -44.804090090137024 $344 44.804090090137024 $337 $460 forward 7 unknown #
coedge $-1 $332 $229 $234 $347 forward $325 $-1 #
coedge $-1 $229 $332 $459 $461 reversed $325 $-1 #
vertex $-1 $230 $462 #
straight-curve $-1 0 44.804090090137024 14.145414361750435 -1 0 0 I I #
coedge $-1 $231 $328 $233 $346 reversed $139 $-1 #
vertex $-1 $338 $463 #
straight-curve $-1 0 -44.804090090137024 14.145414361750435 1 0 0 I I #
edge $-1 $236 -14.145414361750435 $335 14.145414361750435 $233 $464 forward 7 unknown #
edge $-1 $237 -14.145414361750435 $334 14.145414361750435 $234 $465 forward 7 unknown #
point $-1 66.59993285927915 -44.804090090137024 14.145414361750435 #
point $-1 66.59993285927915 44.804090090137024 14.145414361750435 #
face $-1 $-1 $364 $34 $-1 $466 reversed single #
loop $-1 $-1 $360 $239 #
plane-surface $-1 0 0 -14.145414361750435 0 0 1 1 0 0 forward_v I I I I #
coedge $-1 $467 $468 $354 $469 forward $240 $-1 #
coedge $-1 $243 $242 $353 $469 reversed $93 $-1 #
coedge $-1 $360 $470 $242 $356 forward $351 $-1 #
edge $-1 $471 -77.798428345866185 $358 -66.59993285927915 $242 $472 forward 7 unknown #
edge $-1 $250 -5.5992477432935175 $473 5.5992477432935175 $243 $474 forward 7 unknown #
vertex $-1 $244 $475 #
straight-curve $-1 -66.59993285927915 44.804090090137024 0 0 0 -1 I I #
coedge $-1 $476 $355 $245 $361 forward $351 $-1 #
edge $-1 $358 -44.804090090137024 $365 44.804090090137024 $360 $477 forward 7 unknown #
coedge $-1 $478 $246 $249 $368 reversed $364 $-1 #
coedge $-1 $246 $478 $476 $479 reversed $364 $-1 #
loop $-1 $-1 $246 $350 #
vertex $-1 $479 $480 #
straight-curve $-1 -66.59993285927915 -44.804090090137024 0 0 0 1 I I #
coedge $-1 $249 $248 $468 $481 forward $147 $-1 #
edge $-1 $482 -5.5992477432935175 $251 5.5992477432935175 $362 $483 forward 7 unknown #
point $-1 -66.59993285927915 44.804090090137024 -7.5631580996772021 #
point $-1 -66.59993285927915 -44.804090090137024 -7.5631580996772021 #
loop $-1 $-1 $261 $253 #
plane-surface $-1 0 44.804090090137024 0 0 -1 0 0 0 -1 forward_v I I I I #
coedge $-1 $374 $256 $258 $378 reversed $155 $-1 #
coedge $-1 $256 $373 $484 $485 reversed $155 $-1 #
coedge $-1 $264 $259 $256 $376 forward $254 $-1 #
edge $-1 $379 3.8999656997574945 $486 8.3672085355669097 $375 $487 forward 7 unknown #
coedge $-1 $258 $257 $382 $488 reversed $97 $-1 #
edge $-1 $489 -89.608180180274047 $379 -83.397981769666075 $373 $490 forward 7 unknown #
vertex $-1 $260 $491 #
straight-curve $-1 -19.725503225588991 40.336847254327608 14.145414361750433 1 0 0 I I #
coedge $-1 $484 $261 $264 $386 reversed $371 $-1 #
coedge $-1 $261 $484 $377 $488 forward $371 $-1 #
vertex $-1 $262 $492 #
straight-curve $-1 -55.401437372692101 44.804090090137024 83.947242459718296 0 0 1 I I #
straight-curve $-1 -55.401437372692101 -19.654639643275743 72.078521158022284 0 0.71933979245794832 -0.69465837861970381 I I #
edge $-1 $486 23.500575529663863 $265 55.401437372692101 $381 $493 forward 7 unknown #
point $-1 -55.401437372692101 44.804090090137024 14.145414361750435 #
point $-1 -55.401437372692101 40.336847254327608 14.145414361750433 #
edge $-1 $494 1 $494 0 $268 $-1 forward 7 unknown #
vertex $-1 $269 $495 #
ellipse-curve $-1 -46.286905417541178 39.604268703551476 8.9168412677420985 0 0.69465837861970381 0.71933979245794832 1.5 0 0 1 I I #
point $-1 -44.786905417541178 42.570468672232323 11.988431182340628 #
edge $-1 $496 1 $496 0 $272 $-1 forward 7 unknown #
vertex $-1 $273 $497 #
ellipse-curve $-1 -32.615107484814786 39.604268703551476 8.9168412677420985 0 0.69465837861970381 0.71933979245794832 1.5 0 0 1 I I #
point $-1 -31.115107484814786 42.570468672232323 11.988431182340628 #
plane-surface $-1 0 0 14.145414361750435 0 0 1 1 0 0 forward_v I I I I #
coedge $-1 $408 $407 $400 $498 forward $277 $-1 #
coedge $-1 $400 $279 $281 $404 reversed $177 $-1 #
coedge $-1 $279 $399 $398 $498 reversed $177 $-1 #
coedge $-1 $287 $282 $279 $402 forward $288 $-1 #
edge $-1 $405 -28.045651190641181 $499 -22.162008948486559 $401 $500 forward 7 unknown #
coedge $-1 $281 $280 $408 $501 reversed $111 $-1 #
edge $-1 $502 1.8881026247711288e-014 $405 7.9172216475349408 $399 $503 forward 7 unknown #
vertex $-1 $283 $504 #
straight-curve $-1 -11.069082472840222 -38.920447847982395 14.145414361750433 -1 0 0 I I #
coedge $-1 $398 $284 $287 $412 reversed $277 $-1 #
coedge $-1 $284 $398 $403 $501 forward $277 $-1 #
vertex $-1 $285 $505 #
straight-curve $-1 -12.863331629170048 -44.804090090137024 53.91727448710072 0 0 1 I I #
straight-curve $-1 -12.863331629170048 -44.804090090137038 8.8477589763436555 0 -0.74314481823134659 -0.66913061440640931 I I #
edge $-1 $499 -31.41299826219084 $289 -12.863331629170048 $407 $506 forward 7 unknown #
point $-1 -12.863331629170048 -44.804090090137024 14.145414361750435 #
point $-1 -12.863331629170048 -38.920447847982402 14.145414361750435 #
edge $-1 $507 1 $507 0 $292 $-1 forward 7 unknown #
vertex $-1 $293 $508 #
ellipse-curve $-1 -26.113093509899187 -40.718781988734946 10.226615745810783 0 -0.66913061440640931 0.74314481823134659 1 0 0 1 I I #
point $-1 -25.113093509899187 -41.862268969059699 11.496586669047042 #
edge $-1 $509 1 $509 0 $296 $-1 forward 7 unknown #
vertex $-1 $297 $510 #
ellipse-curve $-1 -18.163236381461701 -40.718781988734946 10.226615745810783 0 -0.66913061440640931 0.74314481823134659 1 0 0 1 I I #
point $-1 -17.163236381461701 -41.862268969059699 11.496586669047042 #
plane-surface $-1 0 0 14.145414361750435 0 0 1 1 0 0 forward_v I I I I #
coedge $-1 $434 $433 $426 $511 forward $301 $-1 #
coedge $-1 $426 $303 $305 $430 reversed $199 $-1 #
coedge $-1 $303 $425 $424 $511 reversed $199 $-1 #
coedge $-1 $311 $306 $303 $428 forward $312 $-1 #
edge $-1 $431 -28.045651190641181 $512 -22.162008948486559 $427 $513 forward 7 unknown #
coedge $-1 $305 $304 $434 $514 reversed $125 $-1 #
edge $-1 $515 1.8881026247711288e-014 $431 7.9172216475349408 $425 $516 forward 7 unknown #
vertex $-1 $307 $517 #
straight-curve $-1 16.668330216133747 -38.920447847982395 14.145414361750433 -1 0 0 I I #
coedge $-1 $424 $308 $311 $438 reversed $301 $-1 #
coedge $-1 $308 $424 $429 $514 forward $301 $-1 #
vertex $-1 $309 $518 #
straight-curve $-1 42.611493748777889 -44.804090090137024 53.91727448710072 0 0 1 I I #
straight-curve $-1 42.611493748777889 -44.804090090137038 8.8477589763436555 0 -0.74314481823134659 -0.66913061440640931 I I #
edge $-1 $512 24.061827115757097 $313 42.611493748777889 $433 $519 forward 7 unknown #
point $-1 42.611493748777889 -44.804090090137024 14.145414361750435 #
point $-1 42.611493748777889 -38.920447847982402 14.145414361750435 #
edge $-1 $520 1 $520 0 $316 $-1 forward 7 unknown #
vertex $-1 $317 $521 #
ellipse-curve $-1 29.36173186804875 -40.718781988734946 10.226615745810783 0 -0.66913061440640931 0.74314481823134659 1 0 0 1 I I #
point $-1 30.36173186804875 -41.862268969059699 11.496586669047042 #
edge $-1 $522 1 $522 0 $320 $-1 forward 7 unknown #
vertex $-1 $321 $523 #
ellipse-curve $-1 37.311588996486236 -40.718781988734946 10.226615745810783 0 -0.66913061440640931 0.74314481823134659 1 0 0 1 I I #
point $-1 38.311588996486236 -41.862268969059699 11.496586669047042 #
plane-surface $-1 66.59993285927915 0 0 -1 0 0 0 0 1 forward_v I I I I #
coedge $-1 $327 $459 $330 $453 reversed $221 $-1 #
vertex $-1 $453 $524 #
straight-curve $-1 -66.59993285927915 -44.804090090137024 0 0 0 -1 I I #
edge $-1 $451 -44.804090090137024 $455 44.804090090137024 $450 $525 forward 7 unknown #
straight-curve $-1 0 -44.804090090137024 -14.145414361750435 -1 0 0 I I #
vertex $-1 $333 $526 #
straight-curve $-1 0 44.804090090137024 -14.145414361750435 1 0 0 I I #
point $-1 66.59993285927915 44.804090090137024 -14.145414361750435 #
point $-1 66.59993285927915 -44.804090090137024 -14.145414361750435 #
coedge $-1 $450 $337 $340 $461 forward $221 $-1 #
straight-curve $-1 -66.59993285927915 0 14.145414361750435 0 -1 0 I I #
edge $-1 $341 -14.145414361750435 $455 14.145414361750435 $340 $527 forward 7 unknown #
point $-1 -66.59993285927915 44.804090090137024 14.145414361750435 #
point $-1 -66.59993285927915 -44.804090090137024 14.145414361750435 #
straight-curve $-1 66.59993285927915 -44.804090090137024 0 0 0 -1 I I #
straight-curve $-1 66.59993285927915 44.804090090137024 0 0 0 -1 I I #
plane-surface $-1 0 -44.804090090137024 0 0 1 0 0 0 1 forward_v I I I I #
coedge $-1 $528 $353 $470 $529 reversed $240 $-1 #
coedge $-1 $353 $528 $367 $481 reversed $240 $-1 #
edge $-1 $473 -3.2911281310366158 $471 3.2911281310366149 $354 $530 forward 7 unknown #
coedge $-1 $355 $476 $467 $529 forward $351 $-1 #
vertex $-1 $356 $531 #
straight-curve $-1 0 44.804090090137024 -14.145414361750435 1 0 0 I I #
vertex $-1 $357 $532 #
straight-curve $-1 -72.199180602572667 44.804090090137024 -7.5631580996772021 -1 0 0 I I #
point $-1 -66.59993285927915 44.804090090137024 -14.145414361750435 #
coedge $-1 $470 $360 $363 $479 forward $351 $-1 #
straight-curve $-1 -66.59993285927915 0 -14.145414361750435 0 -1 0 I I #
coedge $-1 $363 $362 $528 $533 forward $364 $-1 #
edge $-1 $365 -5.5992477432935175 $534 5.5992477432935175 $363 $535 forward 7 unknown #
point $-1 -66.59993285927915 -44.804090090137024 -14.145414361750435 #
edge $-1 $473 -44.804090090137024 $482 44.804090090137024 $468 $536 forward 7 unknown #
vertex $-1 $481 $537 #
straight-curve $-1 -72.199180602572667 -44.804090090137024 -7.5631580996772021 1 0 0 I I #
coedge $-1 $382 $381 $374 $485 forward $371 $-1 #
edge $-1 $486 69.801828097967856 $489 74.115794456787455 $484 $538 forward 7 unknown #
vertex $-1 $386 $539 #
straight-curve $-1 -23.500575529663863 36.436881554570114 14.14541436175044 0 1 0 I I #
edge $-1 $489 3.7750723040748717 $383 35.675934147103106 $382 $540 forward 7 unknown #
vertex $-1 $488 $541 #
straight-curve $-1 -23.500575529663863 -19.654639643275743 72.078521158022284 0 -0.71933979245794832 0.69465837861970381 I I #
point $-1 -23.500575529663863 40.336847254327608 14.145414361750433 #
point $-1 -55.401437372692101 44.804090090137024 9.8314480029308342 #
straight-curve $-1 0 44.804090090137024 14.145414361750435 -1 0 0 I I #
vertex $-1 $389 $542 #
point $-1 -44.786905417541178 39.604268703551476 8.9168412677420985 #
vertex $-1 $393 $543 #
point $-1 -31.115107484814786 39.604268703551476 8.9168412677420985 #
edge $-1 $499 39.771860125350287 $502 45.06951551075705 $398 $544 forward 7 unknown #
vertex $-1 $412 $545 #
straight-curve $-1 -31.41299826219084 -66.966099038623582 14.145414361750433 0 -1 0 I I #
edge $-1 $502 -20.343915789350618 $409 -1.7942491563298262 $408 $546 forward 7 unknown #
vertex $-1 $501 $547 #
straight-curve $-1 -31.41299826219084 -44.804090090137038 8.8477589763436555 0 0.74314481823134659 0.66913061440640931 I I #
point $-1 -31.41299826219084 -38.920447847982402 14.145414361750435 #
point $-1 -12.863331629170048 -44.804090090137024 8.8477589763436679 #
straight-curve $-1 0 -44.804090090137024 14.145414361750435 1 0 0 I I #
vertex $-1 $415 $548 #
point $-1 -25.113093509899187 -40.718781988734946 10.226615745810783 #
vertex $-1 $419 $549 #
point $-1 -17.163236381461701 -40.718781988734946 10.226615745810783 #
edge $-1 $512 39.771860125350287 $515 45.06951551075705 $424 $550 forward 7 unknown #
vertex $-1 $438 $551 #
straight-curve $-1 24.061827115757097 -66.966099038623582 14.145414361750433 0 -1 0 I I #
edge $-1 $515 7.3934968996233508 $435 25.943163532644142 $434 $552 forward 7 unknown #
vertex $-1 $514 $553 #
straight-curve $-1 24.061827115757097 -44.804090090137038 8.8477589763436555 0 0.74314481823134659 0.66913061440640931 I I #
point $-1 24.061827115757097 -38.920447847982402 14.145414361750435 #
point $-1 42.611493748777889 -44.804090090137024 8.8477589763436679 #
straight-curve $-1 0 -44.804090090137024 14.145414361750435 1 0 0 I I #
vertex $-1 $441 $554 #
point $-1 30.36173186804875 -40.718781988734946 10.226615745810783 #
vertex $-1 $445 $555 #
point $-1 38.311588996486236 -40.718781988734946 10.226615745810783 #
point $-1 -66.59993285927915 -44.804090090137024 -14.145414361750435 #
straight-curve $-1 -66.59993285927915 0 -14.145414361750435 0 1 0 I I #
point $-1 -66.59993285927915 44.804090090137024 -14.145414361750435 #
straight-curve $-1 -66.59993285927915 44.804090090137024 0 0 0 -1 I I #
coedge $-1 $468 $467 $478 $533 reversed $240 $-1 #
edge $-1 $534 -44.804090090137024 $471 44.804090090137024 $467 $556 forward 7 unknown #
straight-curve $-1 -77.798428345866185 44.804090090137024 -10.854286230713818 0 0 -1 I I #
point $-1 -77.798428345866185 44.804090090137024 -14.145414361750433 #
point $-1 -77.798428345866185 44.804090090137024 -7.5631580996772021 #
edge $-1 $482 -3.2911281310366158 $534 3.2911281310366149 $528 $557 forward 7 unknown #
vertex $-1 $529 $558 #
straight-curve $-1 -72.199180602572667 -44.804090090137024 -14.145414361750433 -1 0 0 I I #
straight-curve $-1 -77.798428345866185 0 -7.5631580996772021 0 -1 0 I I #
point $-1 -77.798428345866185 -44.804090090137024 -7.5631580996772021 #
straight-curve $-1 -23.500575529663863 44.804090090137024 83.947242459718296 0 0 -1 I I #
point $-1 -23.500575529663863 44.804090090137024 14.145414361750435 #
straight-curve $-1 -19.725503225588991 44.804090090137024 9.8314480029308378 -1 0 0 I I #
point $-1 -23.500575529663863 44.804090090137024 9.8314480029308342 #
point $-1 -46.286905417541178 38.562281135621923 7.8378315790551758 #
point $-1 -32.615107484814786 38.562281135621923 7.8378315790551758 #
straight-curve $-1 -31.41299826219084 -44.804090090137024 53.91727448710072 0 0 -1 I I #
point $-1 -31.41299826219084 -44.804090090137024 14.145414361750435 #
straight-curve $-1 -11.069082472840222 -44.804090090137024 8.8477589763436679 1 0 0 I I #
point $-1 -31.41299826219084 -44.804090090137024 8.8477589763436679 #
point $-1 -26.113093509899187 -40.049651374328533 9.483470927579436 #
point $-1 -18.163236381461701 -40.049651374328533 9.483470927579436 #
straight-curve $-1 24.061827115757097 -44.804090090137024 53.91727448710072 0 0 -1 I I #
point $-1 24.061827115757097 -44.804090090137024 14.145414361750435 #
straight-curve $-1 16.668330216133747 -44.804090090137024 8.8477589763436679 1 0 0 I I #
point $-1 24.061827115757097 -44.804090090137024 8.8477589763436679 #
point $-1 29.36173186804875 -40.049651374328533 9.483470927579436 #
point $-1 37.311588996486236 -40.049651374328533 9.483470927579436 #
straight-curve $-1 -77.798428345866185 0 -14.145414361750433 0 1 0 I I #
straight-curve $-1 -77.798428345866185 -44.804090090137024 -10.854286230713818 0 0 -1 I I #
point $-1 -77.798428345866185 -44.804090090137024 -14.145414361750433 #
End-of-ACIS-data 