500 0 7 0           
7 Unknown 11 ACIS 5.0 NT 24 Fri Mar 26 00:36:22 1999 
-1 9.9999999999999995e-007 1e-010 
body $-1 $7 $-1 $8 #
body $-1 $9 $-1 $10 #
body $-1 $11 $-1 $12 #
body $-1 $13 $-1 $14 #
body $-1 $15 $-1 $16 #
body $-1 $17 $-1 $18 #
body $-1 $19 $-1 $20 #
lump $-1 $-1 $21 $0 #
transform $-1 1 0 0 0 1 0 0 0 1 79.653309732352682 55.353301184804316 15.628730162704416 1 rotate no_reflect no_shear #
lump $-1 $-1 $22 $1 #
transform $-1 1 0 0 0 1 0 0 0 1 79.653309732352682 55.353301184804316 15.628730162704416 1 rotate no_reflect no_shear #
lump $-1 $-1 $23 $2 #
transform $-1 1 0 0 0 1 0 0 0 1 79.653309732352682 55.353301184804316 15.628730162704416 1 rotate no_reflect no_shear #
lump $-1 $-1 $24 $3 #
transform $-1 1 0 0 0 1 0 0 0 1 79.653309732352682 55.353301184804316 15.628730162704416 1 rotate no_reflect no_shear #
lump $-1 $-1 $25 $4 #
transform $-1 1 0 0 0 1 0 0 0 1 79.653309732352682 55.353301184804316 15.628730162704416 1 rotate no_reflect no_shear #
lump $-1 $-1 $26 $5 #
transform $-1 1 0 0 0 1 0 0 0 1 79.653309732352682 55.353301184804316 15.628730162704416 1 rotate no_reflect no_shear #
lump $-1 $-1 $27 $6 #
transform $-1 1 0 0 0 1 0 0 0 1 79.653309732352682 55.353301184804316 15.628730162704416 1 rotate no_reflect no_shear #
shell $-1 $-1 $-1 $28 $-1 $7 #
shell $-1 $-1 $-1 $29 $-1 $9 #
shell $-1 $-1 $-1 $30 $-1 $11 #
shell $-1 $-1 $-1 $31 $-1 $13 #
shell $-1 $-1 $-1 $32 $-1 $15 #
shell $-1 $-1 $-1 $33 $-1 $17 #
shell $-1 $-1 $-1 $34 $-1 $19 #
face $-1 $35 $36 $21 $-1 $37 forward single #
face $-1 $38 $39 $22 $-1 $40 reversed single #
face $-1 $41 $42 $23 $-1 $43 reversed single #
face $-1 $44 $45 $24 $-1 $46 forward single #
face $-1 $47 $48 $25 $-1 $49 reversed single #
face $-1 $50 $51 $26 $-1 $52 forward single #
face $-1 $53 $54 $27 $-1 $55 forward single #
face $-1 $56 $57 $21 $-1 $58 reversed single #
loop $-1 $-1 $59 $28 #
plane-surface $-1 0 0 15.628730162704416 0 0 1 1 0 0 forward_v I I I I #
face $-1 $60 $61 $22 $-1 $62 reversed single #
loop $-1 $-1 $63 $29 #
plane-surface $-1 0 -48.846756561746396 11.734688022918919 0 0 1 1 0 0 forward_v I I I I #
face $-1 $64 $65 $23 $-1 $66 reversed single #
loop $-1 $-1 $67 $30 #
plane-surface $-1 -190.31698771309104 -7.0063975831991385 119.03281615630684 0 1 0 -0.69465837861970381 0 0.71933979245794832 forward_v I I I I #
face $-1 $68 $69 $24 $-1 $70 forward single #
loop $-1 $71 $72 $31 #
cone-surface $-1 -72.347829730907634 7.5501356300484943 8.4683858291480476 0.69465837861970381 0 -0.71933979245794832 1.0790096886869225 0 1.0419875679295556 1 I I 0 1 1.5 forward I I I I #
face $-1 $73 $74 $25 $-1 $75 reversed single #
loop $-1 $-1 $76 $32 #
plane-surface $-1 -38.734579032796077 44.031950658110297 118.98632670100264 0.66913061440640931 0 0.74314481823134659 0.74314481823134659 0 -0.66913061440640931 forward_v I I I I #
face $-1 $77 $78 $26 $-1 $79 forward single #
loop $-1 $80 $81 $33 #
cone-surface $-1 77.182331305894436 39.179943289527152 13.262558941426779 -0.66913061440640931 0 -0.74314481823134659 0.74314481823134659 0 -0.66913061440640931 1 I I 0 1 1 forward I I I I #
face $-1 $82 $83 $27 $-1 $84 forward single #
loop $-1 $85 $86 $34 #
cone-surface $-1 77.182331305894436 48.883958026693456 13.262558941426779 -0.66913061440640931 0 -0.74314481823134659 0.74314481823134659 0 -0.66913061440640931 1 I I 0 1 1 forward I I I I #
face $-1 $87 $88 $21 $-1 $89 reversed single #
loop $-1 $-1 $90 $35 #
plane-surface $-1 0 0 -15.628730162704416 0 0 1 1 0 0 forward_v I I I I #
coedge $-1 $91 $92 $93 $94 forward $36 $-1 #
face $-1 $95 $96 $22 $-1 $97 reversed single #
loop $-1 $-1 $98 $38 #
plane-surface $-1 0 -42.340211938688476 13.681709092811667 0 -1 0 0 0 -1 forward_v I I I I #
coedge $-1 $99 $100 $101 $102 reversed $39 $-1 #
face $-1 $103 $104 $23 $-1 $105 reversed single #
loop $-1 $-1 $106 $41 #
plane-surface $-1 -79.653309732352668 7.5501356300484872 4.4372255733883321 -0.69465837861970381 0 0.71933979245794832 0.71933979245794832 0 0.69465837861970381 forward_v I I I I #
coedge $-1 $107 $108 $109 $110 reversed $42 $-1 #
face $-1 $-1 $111 $24 $-1 $112 forward single #
loop $-1 $113 $114 $44 #
cone-surface $-1 -70.31592694352365 7.5501356300484943 6.3642889459062513 0.69465837861970381 0 -0.71933979245794832 0.53950484434346124 0 0.5209937839647778 1 I I -0.70710678118654757 0.70710678118654757 0.75 forward I I I I #
loop $-1 $-1 $115 $31 #
coedge $-1 $72 $72 $116 $117 reversed $45 $-1 #
face $-1 $118 $119 $25 $-1 $120 reversed single #
loop $-1 $-1 $121 $47 #
plane-surface $-1 67.862357128630265 32.710600131416278 237.37421546615141 0 1 0 0.66913061440640931 0 0.74314481823134659 forward_v I I I I #
coedge $-1 $122 $123 $124 $125 reversed $48 $-1 #
face $-1 $-1 $126 $26 $-1 $127 forward single #
loop $-1 $128 $129 $50 #
cone-surface $-1 76.175613095673356 39.179943289527152 12.144485122597528 -0.66913061440640931 0 -0.74314481823134659 0.3715724091156733 0 -0.33456530720320465 1 I I -0.70710678118654746 0.70710678118654746 0.5 forward I I I I #
loop $-1 $-1 $130 $33 #
coedge $-1 $81 $81 $131 $132 reversed $51 $-1 #
face $-1 $-1 $133 $27 $-1 $134 forward single #
loop $-1 $135 $136 $53 #
cone-surface $-1 76.175613095673356 48.883958026693456 12.144485122597528 -0.66913061440640931 0 -0.74314481823134659 0.3715724091156733 0 -0.33456530720320465 1 I I -0.70710678118654746 0.70710678118654746 0.5 forward I I I I #
loop $-1 $-1 $137 $34 #
coedge $-1 $86 $86 $138 $139 reversed $54 $-1 #
face $-1 $140 $141 $21 $-1 $142 reversed single #
loop $-1 $-1 $143 $56 #
plane-surface $-1 0 -55.353301184804316 0 0 1 0 0 0 1 forward_v I I I I #
coedge $-1 $144 $145 $146 $147 forward $57 $-1 #
coedge $-1 $148 $59 $149 $150 forward $36 $-1 #
coedge $-1 $59 $148 $151 $152 forward $36 $-1 #
coedge $-1 $153 $154 $59 $94 reversed $155 $-1 #
edge $-1 $156 -55.353301184804316 $157 55.353301184804316 $93 $158 forward 7 unknown #
face $-1 $159 $160 $22 $-1 $161 reversed single #
loop $-1 $-1 $162 $60 #
plane-surface $-1 -79.653309732352682 0 0 1 0 0 0 0 -1 forward_v I I I I #
coedge $-1 $163 $164 $165 $166 reversed $61 $-1 #
coedge $-1 $167 $63 $168 $169 reversed $39 $-1 #
coedge $-1 $63 $167 $163 $170 forward $39 $-1 #
coedge $-1 $165 $171 $63 $102 forward $172 $-1 #
edge $-1 $173 -30.929922903931118 $174 -17.916833657815278 $101 $175 forward 7 unknown #
face $-1 $176 $177 $23 $-1 $178 forward single #
loop $-1 $-1 $179 $64 #
plane-surface $-1 -190.31698771309104 22.106668843296113 119.03281615630684 0 -1 0 0.69465837861970381 0 -0.71933979245794832 forward_v I I I I #
coedge $-1 $180 $181 $182 $183 reversed $65 $-1 #
coedge $-1 $108 $67 $184 $185 reversed $42 $-1 #
coedge $-1 $67 $107 $180 $186 reversed $42 $-1 #
coedge $-1 $182 $187 $67 $110 forward $177 $-1 #
edge $-1 $188 15.505184124192837 $189 27.094326120244574 $109 $190 forward 7 unknown #
loop $-1 $-1 $116 $68 #
plane-surface $-1 -79.653309732352668 7.5501356300484872 4.4372255733883321 -0.69465837861970381 0 0.71933979245794832 0.71933979245794832 0 0.69465837861970381 forward_v I I I I #
loop $-1 $-1 $191 $44 #
coedge $-1 $114 $114 $115 $192 reversed $69 $-1 #
coedge $-1 $115 $115 $114 $192 forward $71 $-1 #
coedge $-1 $116 $116 $72 $117 forward $111 $-1 #
edge $-1 $193 0 $193 6.2831853071796004 $116 $194 forward 7 unknown #
face $-1 $195 $196 $25 $-1 $197 forward single #
loop $-1 $-1 $198 $73 #
plane-surface $-1 0 55.353301184804316 0 0 -1 0 0 0 -1 forward_v I I I I #
coedge $-1 $199 $200 $201 $202 reversed $74 $-1 #
coedge $-1 $203 $76 $198 $204 reversed $48 $-1 #
coedge $-1 $76 $203 $199 $205 forward $48 $-1 #
coedge $-1 $201 $206 $76 $125 forward $196 $-1 #
edge $-1 $207 -33.337325855749171 $208 -10.69462480236113 $124 $209 forward 7 unknown #
loop $-1 $-1 $131 $77 #
plane-surface $-1 -38.734579032796077 44.031950658110297 118.98632670100264 0.66913061440640931 0 0.74314481823134659 0.74314481823134659 0 -0.66913061440640931 forward_v I I I I #
loop $-1 $-1 $210 $50 #
coedge $-1 $129 $129 $130 $211 reversed $78 $-1 #
coedge $-1 $130 $130 $129 $211 forward $80 $-1 #
coedge $-1 $131 $131 $81 $132 forward $126 $-1 #
edge $-1 $212 0 $212 6.2831853071796004 $131 $213 forward 7 unknown #
loop $-1 $-1 $138 $82 #
plane-surface $-1 -38.734579032796077 44.031950658110297 118.98632670100264 0.66913061440640931 0 0.74314481823134659 0.74314481823134659 0 -0.66913061440640931 forward_v I I I I #
loop $-1 $-1 $214 $53 #
coedge $-1 $136 $136 $137 $215 reversed $83 $-1 #
coedge $-1 $137 $137 $136 $215 forward $85 $-1 #
coedge $-1 $138 $138 $86 $139 forward $133 $-1 #
edge $-1 $216 0 $216 6.2831853071796004 $138 $217 forward 7 unknown #
face $-1 $218 $219 $21 $-1 $220 reversed single #
loop $-1 $-1 $221 $87 #
plane-surface $-1 -79.653309732352682 0 0 1 0 0 0 0 -1 forward_v I I I I #
coedge $-1 $222 $151 $223 $224 forward $88 $-1 #
coedge $-1 $225 $90 $222 $226 forward $57 $-1 #
coedge $-1 $90 $225 $227 $228 forward $57 $-1 #
coedge $-1 $154 $153 $90 $147 reversed $155 $-1 #
edge $-1 $229 -55.353301184804316 $230 55.353301184804316 $146 $231 forward 7 unknown #
coedge $-1 $92 $91 $232 $233 forward $36 $-1 #
coedge $-1 $234 $235 $91 $150 reversed $219 $-1 #
edge $-1 $157 -79.653309732352682 $236 79.653309732352682 $149 $237 forward 7 unknown #
coedge $-1 $143 $238 $92 $152 reversed $88 $-1 #
edge $-1 $239 -79.653309732352682 $156 79.653309732352682 $151 $240 forward 7 unknown #
coedge $-1 $146 $93 $238 $241 forward $155 $-1 #
coedge $-1 $93 $146 $234 $242 reversed $155 $-1 #
loop $-1 $-1 $153 $218 #
vertex $-1 $94 $243 #
vertex $-1 $94 $244 #
straight-curve $-1 79.653309732352682 0 15.628730162704416 0 1 0 I I #
face $-1 $245 $246 $22 $-1 $247 forward single #
loop $-1 $-1 $168 $95 #
plane-surface $-1 0 -55.353301184804316 0 0 1 0 0 0 1 forward_v I I I I #
coedge $-1 $248 $249 $250 $251 forward $96 $-1 #
coedge $-1 $250 $98 $100 $170 reversed $61 $-1 #
coedge $-1 $98 $250 $252 $253 reversed $61 $-1 #
coedge $-1 $254 $101 $98 $166 forward $172 $-1 #
edge $-1 $174 4.8938334765130849 $255 8.7878756162985816 $165 $256 forward 7 unknown #
coedge $-1 $100 $99 $248 $257 reversed $39 $-1 #
coedge $-1 $258 $259 $99 $169 forward $160 $-1 #
edge $-1 $260 -79.653309732352682 $173 79.653309732352682 $168 $261 forward 7 unknown #
edge $-1 $262 -79.653309732352682 $174 79.653309732352682 $163 $263 forward 7 unknown #
coedge $-1 $101 $254 $258 $264 forward $172 $-1 #
loop $-1 $-1 $165 $245 #
vertex $-1 $169 $265 #
vertex $-1 $102 $266 #
straight-curve $-1 79.653309732352682 -24.423378280873198 11.734688022918919 0 1 0 I I #
face $-1 $-1 $267 $23 $-1 $268 reversed single #
loop $-1 $-1 $109 $103 #
plane-surface $-1 0 0 15.628730162704416 0 0 1 1 0 0 forward_v I I I I #
coedge $-1 $269 $270 $271 $272 reversed $104 $-1 #
coedge $-1 $273 $106 $108 $186 forward $65 $-1 #
coedge $-1 $106 $273 $269 $274 forward $65 $-1 #
coedge $-1 $271 $109 $106 $183 forward $177 $-1 #
edge $-1 $189 -10.781465398223382 $275 18.331601028271869 $182 $276 forward 7 unknown #
coedge $-1 $277 $278 $107 $185 forward $267 $-1 #
edge $-1 $279 -55.0791825047651 $188 -43.887677915449004 $184 $280 forward 7 unknown #
edge $-1 $189 -16.110803430534823 $279 1.9477141995791963e-014 $108 $281 forward 7 unknown #
coedge $-1 $109 $271 $277 $282 forward $177 $-1 #
vertex $-1 $185 $283 #
vertex $-1 $110 $284 #
straight-curve $-1 -95.158493856545519 -7.0063975831991385 15.628730162704414 1 0 0 I I #
coedge $-1 $191 $191 $-1 $285 reversed $113 $-1 #
edge $-1 $286 0 $286 6.2831853071796004 $114 $287 forward 7 unknown #
vertex $-1 $117 $288 #
ellipse-curve $-1 -73.85873873432682 7.5501356300484943 10.032977868046363 -0.69465837861970381 0 0.71933979245794832 1.0790096886869225 0 1.0419875679295556 1 I I #
face $-1 $-1 $289 $25 $-1 $290 reversed single #
loop $-1 $-1 $124 $118 #
plane-surface $-1 0 0 15.628730162704416 0 0 1 1 0 0 forward_v I I I I #
coedge $-1 $291 $292 $122 $204 forward $119 $-1 #
coedge $-1 $200 $121 $123 $205 reversed $74 $-1 #
coedge $-1 $121 $199 $293 $294 reversed $74 $-1 #
coedge $-1 $295 $124 $121 $202 forward $196 $-1 #
edge $-1 $208 42.124480121156864 $296 45.722131168037549 $201 $297 forward 7 unknown #
coedge $-1 $123 $122 $298 $299 reversed $48 $-1 #
edge $-1 $300 -105.10522167170606 $207 -100.26410462611736 $198 $301 forward 7 unknown #
edge $-1 $302 -159.30661946470536 $208 -154.46550241911666 $199 $303 forward 7 unknown #
coedge $-1 $124 $295 $291 $304 forward $196 $-1 #
vertex $-1 $125 $305 #
vertex $-1 $125 $306 #
straight-curve $-1 76.055658685471997 22.015975329055149 15.6287301627044 0 -1 0 I I #
coedge $-1 $210 $210 $-1 $307 reversed $128 $-1 #
edge $-1 $308 0 $308 6.2831853071796004 $129 $309 forward 7 unknown #
vertex $-1 $132 $310 #
ellipse-curve $-1 77.854484208912339 39.179943289527152 14.009060351140377 0.66913061440640931 0 0.74314481823134659 0.74314481823134659 0 -0.66913061440640931 1 I I #
coedge $-1 $214 $214 $-1 $311 reversed $135 $-1 #
edge $-1 $312 0 $312 6.2831853071796004 $136 $313 forward 7 unknown #
vertex $-1 $139 $314 #
ellipse-curve $-1 77.854484208912339 48.883958026693456 14.009060351140377 0.66913061440640931 0 0.74314481823134659 0.74314481823134659 0 -0.66913061440640931 1 I I #
face $-1 $-1 $155 $21 $-1 $315 reversed single #
loop $-1 $-1 $234 $140 #
plane-surface $-1 0 55.353301184804316 0 0 -1 0 0 0 -1 forward_v I I I I #
coedge $-1 $316 $232 $235 $317 forward $141 $-1 #
coedge $-1 $238 $143 $144 $226 reversed $88 $-1 #
coedge $-1 $232 $316 $143 $224 reversed $141 $-1 #
edge $-1 $239 -15.628730162704416 $318 15.628730162704416 $223 $319 forward 7 unknown #
coedge $-1 $145 $144 $316 $320 forward $57 $-1 #
edge $-1 $230 -79.653309732352682 $318 79.653309732352682 $222 $321 forward 7 unknown #
coedge $-1 $235 $234 $145 $228 reversed $219 $-1 #
edge $-1 $322 -79.653309732352682 $229 79.653309732352682 $227 $323 forward 7 unknown #
vertex $-1 $147 $324 #
vertex $-1 $241 $325 #
straight-curve $-1 79.653309732352682 0 -15.628730162704416 0 -1 0 I I #
coedge $-1 $221 $223 $148 $233 reversed $141 $-1 #
edge $-1 $236 -55.353301184804316 $239 55.353301184804316 $232 $326 forward 7 unknown #
coedge $-1 $227 $149 $154 $242 forward $219 $-1 #
coedge $-1 $149 $227 $221 $317 reversed $219 $-1 #
vertex $-1 $150 $327 #
straight-curve $-1 0 55.353301184804316 15.628730162704416 -1 0 0 I I #
coedge $-1 $151 $222 $153 $241 reversed $88 $-1 #
vertex $-1 $233 $328 #
straight-curve $-1 0 -55.353301184804316 15.628730162704416 1 0 0 I I #
edge $-1 $156 -15.628730162704416 $230 15.628730162704416 $153 $329 forward 7 unknown #
edge $-1 $157 -15.628730162704416 $229 15.628730162704416 $154 $330 forward 7 unknown #
point $-1 79.653309732352682 -55.353301184804316 15.628730162704416 #
point $-1 79.653309732352682 55.353301184804316 15.628730162704416 #
face $-1 $-1 $172 $22 $-1 $331 reversed single #
loop $-1 $-1 $252 $159 #
plane-surface $-1 0 0 15.628730162704416 0 0 1 1 0 0 forward_v I I I I #
coedge $-1 $332 $162 $167 $257 forward $96 $-1 #
coedge $-1 $162 $332 $333 $334 reversed $96 $-1 #
coedge $-1 $164 $163 $162 $251 reversed $61 $-1 #
edge $-1 $335 -8.7878756162985816 $262 -4.8938334765130849 $162 $336 forward 7 unknown #
coedge $-1 $333 $337 $164 $253 forward $246 $-1 #
edge $-1 $255 -79.653309732352682 $335 79.653309732352682 $252 $338 forward 7 unknown #
coedge $-1 $171 $165 $337 $339 reversed $172 $-1 #
vertex $-1 $166 $340 #
straight-curve $-1 79.653309732352682 -42.340211938688476 6.8408545464058337 0 0 1 I I #
edge $-1 $262 17.916833657815278 $260 30.929922903931118 $248 $341 forward 7 unknown #
coedge $-1 $342 $168 $171 $264 reversed $160 $-1 #
coedge $-1 $168 $342 $332 $343 forward $160 $-1 #
vertex $-1 $169 $344 #
straight-curve $-1 0 -55.353301184804316 11.734688022918919 1 0 0 I I #
vertex $-1 $257 $345 #
straight-curve $-1 0 -42.340211938688476 11.734688022918919 1 0 0 I I #
edge $-1 $346 -15.628730162704416 $173 -11.734688022918919 $171 $347 forward 7 unknown #
point $-1 79.653309732352682 -55.353301184804316 11.734688022918919 #
point $-1 79.653309732352682 -42.340211938688476 11.734688022918919 #
loop $-1 $-1 $184 $176 #
plane-surface $-1 -79.653309732352682 0 0 1 0 0 0 0 -1 forward_v I I I I #
coedge $-1 $270 $179 $181 $274 reversed $104 $-1 #
coedge $-1 $179 $269 $348 $349 reversed $104 $-1 #
coedge $-1 $187 $182 $179 $272 forward $177 $-1 #
edge $-1 $275 -27.094326120244574 $350 -15.505184124192837 $271 $351 forward 7 unknown #
coedge $-1 $181 $180 $278 $352 reversed $65 $-1 #
edge $-1 $353 -1.9477141995791963e-014 $275 16.110803430534823 $269 $354 forward 7 unknown #
vertex $-1 $183 $355 #
straight-curve $-1 -68.064167736300945 3.7750678150242436 15.628730162704416 0 1 0 I I #
coedge $-1 $348 $184 $187 $282 reversed $267 $-1 #
coedge $-1 $184 $348 $273 $352 forward $267 $-1 #
vertex $-1 $185 $356 #
straight-curve $-1 -79.653309732352682 -7.0063975831991385 59.516408078153418 0 0 1 I I #
straight-curve $-1 -79.653309732352668 -7.0063975831991385 4.4372255733883321 -0.71933979245794832 0 -0.69465837861970381 I I #
edge $-1 $350 -22.106668843296113 $188 7.0063975831991385 $277 $357 forward 7 unknown #
point $-1 -79.653309732352682 -7.0063975831991385 15.628730162704416 #
point $-1 -68.064167736300945 -7.0063975831991385 15.628730162704416 #
edge $-1 $358 1 $358 0 $191 $-1 forward 7 unknown #
vertex $-1 $192 $359 #
ellipse-curve $-1 -70.836920727488433 7.5501356300484943 6.9037937902497122 -0.69465837861970381 0 0.71933979245794832 1.0790096886869225 0 1.0419875679295556 1 I I #
point $-1 -72.779729045639911 7.5501356300484943 11.074965435975937 #
loop $-1 $-1 $298 $195 #
plane-surface $-1 79.653309732352682 0 0 -1 0 0 0 0 1 forward_v I I I I #
coedge $-1 $292 $198 $206 $304 reversed $119 $-1 #
coedge $-1 $198 $291 $360 $361 forward $119 $-1 #
coedge $-1 $298 $362 $200 $294 forward $289 $-1 #
edge $-1 $296 103.05837757037129 $302 106.29771719349941 $293 $363 forward 7 unknown #
coedge $-1 $206 $201 $362 $364 forward $196 $-1 #
vertex $-1 $364 $365 #
straight-curve $-1 33.931178564315132 32.710600131416278 15.628730162704414 1 0 0 I I #
coedge $-1 $360 $293 $203 $299 forward $289 $-1 #
edge $-1 $302 10.69462480236113 $300 33.337325855749171 $298 $366 forward 7 unknown #
vertex $-1 $299 $367 #
straight-curve $-1 1.5449088779673019 55.353301184804316 82.718512094086819 -0.74314481823134659 0 0.66913061440640931 I I #
vertex $-1 $299 $368 #
straight-curve $-1 -38.734579032796077 32.710600131416278 118.98632670100264 -0.74314481823134659 0 0.66913061440640931 I I #
edge $-1 $369 -79.653309732352682 $207 -76.055658685471997 $291 $370 forward 7 unknown #
point $-1 76.055658685471997 55.353301184804316 15.6287301627044 #
point $-1 76.055658685471997 32.710600131416278 15.6287301627044 #
edge $-1 $371 1 $371 0 $210 $-1 forward 7 unknown #
vertex $-1 $211 $372 #
ellipse-curve $-1 76.510178402876562 39.179943289527152 12.516057531713201 0.66913061440640931 0 0.74314481823134659 0.74314481823134659 0 -0.66913061440640931 1 I I #
point $-1 78.597629027143668 39.179943289527152 13.339929736733946 #
edge $-1 $373 1 $373 0 $214 $-1 forward 7 unknown #
vertex $-1 $215 $374 #
ellipse-curve $-1 76.510178402876562 48.883958026693456 12.516057531713201 0.66913061440640931 0 0.74314481823134659 0.74314481823134659 0 -0.66913061440640931 1 I I #
point $-1 78.597629027143668 48.883958026693456 13.339929736733946 #
plane-surface $-1 79.653309732352682 0 0 -1 0 0 0 0 1 forward_v I I I I #
coedge $-1 $223 $221 $225 $320 reversed $141 $-1 #
edge $-1 $236 -15.628730162704416 $322 15.628730162704416 $235 $375 forward 7 unknown #
vertex $-1 $320 $376 #
straight-curve $-1 -79.653309732352682 -55.353301184804316 0 0 0 -1 I I #
edge $-1 $318 -55.353301184804316 $322 55.353301184804316 $316 $377 forward 7 unknown #
straight-curve $-1 0 -55.353301184804316 -15.628730162704416 -1 0 0 I I #
vertex $-1 $228 $378 #
straight-curve $-1 0 55.353301184804316 -15.628730162704416 1 0 0 I I #
point $-1 79.653309732352682 55.353301184804316 -15.628730162704416 #
point $-1 79.653309732352682 -55.353301184804316 -15.628730162704416 #
straight-curve $-1 -79.653309732352682 0 15.628730162704416 0 -1 0 I I #
point $-1 -79.653309732352682 55.353301184804316 15.628730162704416 #
point $-1 -79.653309732352682 -55.353301184804316 15.628730162704416 #
straight-curve $-1 79.653309732352682 -55.353301184804316 0 0 0 -1 I I #
straight-curve $-1 79.653309732352682 55.353301184804316 0 0 0 -1 I I #
plane-surface $-1 79.653309732352682 0 0 -1 0 0 0 0 1 forward_v I I I I #
coedge $-1 $249 $248 $259 $343 reversed $96 $-1 #
coedge $-1 $379 $252 $249 $334 forward $246 $-1 #
edge $-1 $335 42.340211938688476 $380 55.353301184804316 $249 $381 forward 7 unknown #
vertex $-1 $334 $382 #
straight-curve $-1 -79.653309732352682 -42.340211938688476 6.8408545464058337 0 0 -1 I I #
coedge $-1 $252 $379 $254 $339 forward $246 $-1 #
straight-curve $-1 0 -42.340211938688476 15.628730162704416 -1 0 0 I I #
edge $-1 $346 -55.353301184804316 $255 -42.340211938688476 $254 $383 forward 7 unknown #
point $-1 79.653309732352682 -42.340211938688476 15.628730162704416 #
straight-curve $-1 -79.653309732352682 -24.423378280873198 11.734688022918919 0 -1 0 I I #
coedge $-1 $259 $258 $379 $384 reversed $160 $-1 #
edge $-1 $380 -15.628730162704416 $260 -11.734688022918919 $332 $385 forward 7 unknown #
point $-1 -79.653309732352682 -55.353301184804316 11.734688022918919 #
point $-1 -79.653309732352682 -42.340211938688476 11.734688022918919 #
vertex $-1 $339 $386 #
straight-curve $-1 79.653309732352682 -55.353301184804316 0 0 0 -1 I I #
coedge $-1 $278 $277 $270 $349 forward $267 $-1 #
edge $-1 $350 43.887677915449004 $353 55.0791825047651 $348 $387 forward 7 unknown #
vertex $-1 $282 $388 #
straight-curve $-1 -95.158493856545519 22.106668843296113 15.628730162704414 -1 0 0 I I #
edge $-1 $353 -18.331601028271869 $279 10.781465398223382 $278 $389 forward 7 unknown #
vertex $-1 $352 $390 #
straight-curve $-1 -79.653309732352668 22.106668843296113 4.4372255733883321 0.71933979245794832 0 0.69465837861970381 I I #
point $-1 -68.064167736300945 22.106668843296113 15.628730162704416 #
point $-1 -79.653309732352682 -7.0063975831991385 4.4372255733883188 #
straight-curve $-1 -79.653309732352682 0 15.628730162704416 0 -1 0 I I #
vertex $-1 $285 $391 #
point $-1 -69.75791103880151 7.5501356300484943 7.9457813581792678 #
coedge $-1 $362 $298 $292 $361 reversed $289 $-1 #
edge $-1 $369 -15.628730162704416 $300 -12.389390539576297 $360 $392 forward 7 unknown #
coedge $-1 $293 $360 $295 $364 reversed $289 $-1 #
straight-curve $-1 79.653309732352682 32.710600131416278 118.68710773307571 0 0 -1 I I #
edge $-1 $296 32.710600131416278 $369 55.353301184804316 $362 $393 forward 7 unknown #
point $-1 79.653309732352682 32.710600131416278 15.628730162704416 #
straight-curve $-1 79.653309732352682 22.015975329055149 12.389390539576297 0 1 0 I I #
point $-1 79.653309732352696 55.353301184804316 12.389390539576297 #
point $-1 79.653309732352696 32.710600131416278 12.389390539576297 #
vertex $-1 $364 $394 #
straight-curve $-1 0 55.353301184804316 15.628730162704416 -1 0 0 I I #
vertex $-1 $307 $395 #
point $-1 77.253323221107905 39.179943289527152 11.846926917306792 #
vertex $-1 $311 $396 #
point $-1 77.253323221107905 48.883958026693456 11.846926917306792 #
straight-curve $-1 -79.653309732352682 55.353301184804316 0 0 0 -1 I I #
point $-1 -79.653309732352682 -55.353301184804316 -15.628730162704416 #
straight-curve $-1 -79.653309732352682 0 -15.628730162704416 0 1 0 I I #
point $-1 -79.653309732352682 55.353301184804316 -15.628730162704416 #
coedge $-1 $337 $333 $342 $384 forward $246 $-1 #
vertex $-1 $334 $397 #
straight-curve $-1 -79.653309732352682 0 15.628730162704416 0 -1 0 I I #
point $-1 -79.653309732352682 -42.340211938688476 15.628730162704416 #
straight-curve $-1 79.653309732352682 0 15.628730162704416 0 1 0 I I #
edge $-1 $380 -79.653309732352682 $346 79.653309732352682 $342 $398 forward 7 unknown #
straight-curve $-1 -79.653309732352682 -55.353301184804316 0 0 0 -1 I I #
point $-1 79.653309732352682 -55.353301184804316 15.628730162704416 #
straight-curve $-1 -79.653309732352682 22.106668843296113 59.516408078153418 0 0 -1 I I #
point $-1 -79.653309732352682 22.106668843296113 15.628730162704416 #
straight-curve $-1 -79.653309732352682 3.7750678150242436 4.4372255733883215 0 -1 0 I I #
point $-1 -79.653309732352682 22.106668843296113 4.4372255733883188 #
point $-1 -69.794933159558866 7.5501356300484943 5.8247841015627904 #
straight-curve $-1 79.653309732352682 55.353301184804316 0 0 0 -1 I I #
straight-curve $-1 79.653309732352682 0 15.628730162704416 0 1 0 I I #
point $-1 79.653309732352682 55.353301184804316 15.628730162704416 #
point $-1 75.841047788470149 39.179943289527152 11.772912713481855 #
point $-1 75.841047788470149 48.883958026693456 11.772912713481855 #
point $-1 -79.653309732352682 -55.353301184804316 15.628730162704416 #
straight-curve $-1 0 -55.353301184804316 15.628730162704416 1 0 0 I I #
End-of-ACIS-data 