500 0 5 0           
7 Unknown 11 ACIS 5.0 NT 24 Fri Mar 26 18:08:45 1999 
-1 9.9999999999999995e-007 1e-010 
body $-1 $5 $-1 $6 #
body $-1 $7 $-1 $8 #
body $-1 $9 $-1 $10 #
body $-1 $11 $-1 $12 #
body $-1 $13 $-1 $14 #
lump $-1 $-1 $15 $0 #
transform $-1 1 0 0 0 1 0 0 0 1 69.435712759788814 31.765985660134103 10.176516149527259 1 rotate no_reflect no_shear #
lump $-1 $-1 $16 $1 #
transform $-1 1 0 0 0 1 0 0 0 1 69.435712759788814 31.765985660134103 10.176516149527259 1 rotate no_reflect no_shear #
lump $-1 $-1 $17 $2 #
transform $-1 1 0 0 0 1 0 0 0 1 69.435712759788814 31.765985660134103 10.176516149527259 1 rotate no_reflect no_shear #
lump $-1 $-1 $18 $3 #
transform $-1 1 0 0 0 1 0 0 0 1 69.435712759788814 31.765985660134103 10.176516149527259 1 rotate no_reflect no_shear #
lump $-1 $-1 $19 $4 #
transform $-1 1 0 0 0 1 0 0 0 1 69.435712759788814 31.765985660134103 10.176516149527259 1 rotate no_reflect no_shear #
shell $-1 $-1 $-1 $20 $-1 $5 #
shell $-1 $-1 $-1 $21 $-1 $7 #
shell $-1 $-1 $-1 $22 $-1 $9 #
shell $-1 $-1 $-1 $23 $-1 $11 #
shell $-1 $-1 $-1 $24 $-1 $13 #
face $-1 $25 $26 $15 $-1 $27 reversed single #
face $-1 $28 $29 $16 $-1 $30 forward single #
face $-1 $31 $32 $17 $-1 $33 forward single #
face $-1 $34 $35 $18 $-1 $36 reversed single #
face $-1 $37 $38 $19 $-1 $39 forward single #
face $-1 $40 $41 $15 $-1 $42 reversed single #
loop $-1 $-1 $43 $20 #
plane-surface $-1 69.435712759788814 0 0 -1 0 0 0 0 1 forward_v I I I I #
face $-1 $44 $45 $16 $-1 $46 reversed single #
loop $-1 $-1 $47 $21 #
plane-surface $-1 -69.435712759788814 0 0 1 0 0 0 0 -1 forward_v I I I I #
face $-1 $48 $49 $17 $-1 $50 reversed single #
loop $-1 $-1 $51 $22 #
plane-surface $-1 69.435712759788814 0 0 -1 0 0 0 0 1 forward_v I I I I #
face $-1 $52 $53 $18 $-1 $54 reversed single #
loop $-1 $-1 $55 $23 #
plane-surface $-1 -39.527514042299913 67.199897233303574 152.38638115334132 1 0 0 0 -0.61566148304635926 -0.78801074757464917 forward_v I I I I #
face $-1 $56 $57 $19 $-1 $58 forward single #
loop $-1 $59 $60 $24 #
cone-surface $-1 -32.960557736550228 25.490272252321621 4.1661061734479645 0 -0.61566148304635926 -0.78801074757464917 2.5 0 0 1 I I 0 1 2.5 forward I I I I #
face $-1 $61 $62 $15 $-1 $63 forward single #
loop $-1 $-1 $64 $25 #
plane-surface $-1 -69.435712759788814 0 0 1 0 0 0 0 -1 forward_v I I I I #
coedge $-1 $65 $66 $67 $68 reversed $26 $-1 #
face $-1 $69 $70 $16 $-1 $71 reversed single #
loop $-1 $-1 $72 $28 #
plane-surface $-1 0 0 -10.176516149527259 0 0 1 1 0 0 forward_v I I I I #
coedge $-1 $73 $74 $75 $76 forward $29 $-1 #
face $-1 $77 $78 $17 $-1 $79 reversed single #
loop $-1 $-1 $80 $31 #
plane-surface $-1 0 0 -10.176516149527259 0 0 1 1 0 0 forward_v I I I I #
coedge $-1 $81 $82 $83 $84 forward $32 $-1 #
face $-1 $85 $86 $18 $-1 $87 reversed single #
loop $-1 $-1 $88 $34 #
plane-surface $-1 -32.960557736550228 -18.297890554841615 42.954205312901735 0 0.61566148304635926 0.78801074757464917 1 0 0 forward_v I I I I #
coedge $-1 $89 $90 $91 $92 reversed $35 $-1 #
face $-1 $-1 $93 $19 $-1 $94 forward single #
loop $-1 $95 $96 $37 #
cone-surface $-1 -32.960557736550228 22.500156038177774 0.33893202316065896 0 -0.61566148304635926 -0.78801074757464917 1.25 0 0 1 I I -0.70710678118654746 0.70710678118654768 1.25 forward I I I I #
loop $-1 $-1 $97 $24 #
coedge $-1 $60 $60 $98 $99 reversed $38 $-1 #
face $-1 $100 $101 $15 $-1 $102 reversed single #
loop $-1 $-1 $103 $40 #
plane-surface $-1 0 0 10.176516149527259 0 0 1 1 0 0 forward_v I I I I #
coedge $-1 $104 $105 $106 $107 reversed $41 $-1 #
coedge $-1 $108 $43 $109 $110 reversed $26 $-1 #
coedge $-1 $43 $108 $111 $112 forward $26 $-1 #
coedge $-1 $113 $114 $43 $68 forward $101 $-1 #
edge $-1 $115 -31.765985660134103 $116 31.765985660134103 $43 $117 forward 7 unknown #
face $-1 $118 $119 $16 $-1 $120 reversed single #
loop $-1 $-1 $121 $44 #
plane-surface $-1 -73.087900951755529 -14.412953361079584 0 0 1 0 0 0 1 forward_v I I I I #
coedge $-1 $122 $123 $74 $124 forward $45 $-1 #
coedge $-1 $125 $47 $126 $127 reversed $29 $-1 #
coedge $-1 $47 $125 $72 $124 reversed $29 $-1 #
coedge $-1 $128 $129 $47 $76 reversed $130 $-1 #
edge $-1 $131 -10.176516149527259 $132 10.176516149527259 $75 $133 forward 7 unknown #
face $-1 $134 $135 $17 $-1 $136 reversed single #
loop $-1 $-1 $83 $48 #
plane-surface $-1 73.087900951755515 -14.412953361079584 0 0 1 0 0 0 1 forward_v I I I I #
coedge $-1 $137 $138 $82 $139 forward $49 $-1 #
coedge $-1 $140 $51 $141 $142 reversed $32 $-1 #
coedge $-1 $51 $140 $80 $139 reversed $32 $-1 #
coedge $-1 $143 $144 $51 $84 reversed $78 $-1 #
edge $-1 $145 -10.176516149527259 $146 10.176516149527259 $83 $147 forward 7 unknown #
face $-1 $148 $149 $18 $-1 $150 reversed single #
loop $-1 $-1 $151 $52 #
plane-surface $-1 -26.393601430800544 67.199897233303574 152.38638115334132 -1 0 0 0 0.61566148304635926 0.78801074757464917 forward_v I I I I #
coedge $-1 $152 $153 $154 $155 reversed $53 $-1 #
coedge $-1 $90 $55 $156 $157 reversed $35 $-1 #
coedge $-1 $55 $89 $152 $158 reversed $35 $-1 #
coedge $-1 $154 $159 $55 $92 forward $160 $-1 #
edge $-1 $161 1.8339629565176843 $162 9.9443110514708906 $91 $163 forward 7 unknown #
loop $-1 $-1 $98 $56 #
plane-surface $-1 -32.960557736550228 -18.297890554841615 42.954205312901735 0 0.61566148304635926 0.78801074757464917 1 0 0 forward_v I I I I #
loop $-1 $-1 $164 $37 #
coedge $-1 $96 $96 $97 $165 reversed $57 $-1 #
coedge $-1 $97 $97 $96 $165 forward $59 $-1 #
coedge $-1 $98 $98 $60 $99 forward $93 $-1 #
edge $-1 $166 5.239227723080862e-017 $166 6.2831853071796004 $98 $167 forward 7 unknown #
face $-1 $168 $169 $15 $-1 $170 reversed single #
loop $-1 $-1 $67 $61 #
plane-surface $-1 0 0 -10.176516149527259 0 0 1 1 0 0 forward_v I I I I #
coedge $-1 $171 $172 $108 $173 forward $62 $-1 #
coedge $-1 $174 $64 $175 $176 reversed $41 $-1 #
coedge $-1 $64 $174 $177 $178 forward $41 $-1 #
coedge $-1 $114 $113 $64 $107 forward $101 $-1 #
edge $-1 $179 -31.765985660134103 $180 31.765985660134103 $64 $181 forward 7 unknown #
coedge $-1 $66 $65 $103 $173 reversed $26 $-1 #
coedge $-1 $182 $183 $65 $110 forward $184 $-1 #
edge $-1 $185 -10.176516149527259 $115 10.176516149527259 $65 $186 forward 7 unknown #
coedge $-1 $187 $188 $66 $112 reversed $169 $-1 #
edge $-1 $189 -10.176516149527259 $116 10.176516149527259 $66 $190 forward 7 unknown #
coedge $-1 $106 $67 $188 $191 forward $101 $-1 #
coedge $-1 $67 $106 $182 $192 forward $101 $-1 #
vertex $-1 $68 $193 #
vertex $-1 $112 $194 #
straight-curve $-1 69.435712759788814 0 -10.176516149527259 0 -1 0 I I #
face $-1 $195 $130 $16 $-1 $196 reversed single #
loop $-1 $-1 $197 $69 #
plane-surface $-1 -76.740089143722244 -12.912953361079584 0 1 0 0 0 0 -1 forward_v I I I I #
coedge $-1 $198 $199 $200 $201 forward $70 $-1 #
coedge $-1 $202 $72 $198 $203 forward $45 $-1 #
coedge $-1 $72 $202 $128 $204 forward $45 $-1 #
edge $-1 $131 11.412953361079584 $205 14.412953361079584 $72 $206 forward 7 unknown #
coedge $-1 $74 $73 $207 $208 forward $29 $-1 #
coedge $-1 $209 $210 $73 $127 forward $211 $-1 #
edge $-1 $212 -14.412953361079584 $132 -11.412953361079584 $126 $213 forward 7 unknown #
coedge $-1 $214 $75 $123 $204 reversed $130 $-1 #
coedge $-1 $75 $214 $209 $215 reversed $130 $-1 #
loop $-1 $-1 $75 $118 #
vertex $-1 $124 $216 #
vertex $-1 $215 $217 #
straight-curve $-1 -69.435712759788814 -11.412953361079584 0 0 0 1 I I #
face $-1 $218 $219 $17 $-1 $220 reversed single #
loop $-1 $-1 $221 $77 #
plane-surface $-1 73.087900951755515 -11.412953361079584 0 0 -1 0 0 0 -1 forward_v I I I I #
coedge $-1 $222 $80 $223 $224 forward $49 $-1 #
coedge $-1 $80 $222 $143 $225 forward $49 $-1 #
edge $-1 $145 -14.412953361079584 $226 -11.412953361079584 $80 $227 forward 7 unknown #
coedge $-1 $82 $81 $228 $229 forward $32 $-1 #
coedge $-1 $230 $231 $81 $142 forward $232 $-1 #
edge $-1 $233 11.412953361079584 $146 14.412953361079584 $141 $234 forward 7 unknown #
coedge $-1 $235 $83 $138 $225 reversed $78 $-1 #
coedge $-1 $83 $235 $230 $236 reversed $78 $-1 #
vertex $-1 $139 $237 #
vertex $-1 $236 $238 #
straight-curve $-1 69.435712759788814 -14.412953361079584 0 0 0 1 I I #
face $-1 $-1 $160 $18 $-1 $239 forward single #
loop $-1 $-1 $240 $85 #
plane-surface $-1 0 31.765985660134103 0 0 -1 0 0 0 -1 forward_v I I I I #
coedge $-1 $241 $242 $243 $244 reversed $86 $-1 #
coedge $-1 $245 $88 $90 $158 forward $53 $-1 #
coedge $-1 $88 $245 $241 $246 forward $53 $-1 #
coedge $-1 $243 $91 $88 $155 forward $160 $-1 #
edge $-1 $162 -23.047235174024799 $247 -9.9133225625254298 $154 $248 forward 7 unknown #
coedge $-1 $249 $250 $89 $157 forward $149 $-1 #
edge $-1 $251 -72.353172947664007 $161 -66.0166744271434 $156 $252 forward 7 unknown #
edge $-1 $162 53.239791778408716 $251 63.531971320268205 $90 $253 forward 7 unknown #
coedge $-1 $91 $243 $249 $254 forward $160 $-1 #
loop $-1 $-1 $243 $148 #
vertex $-1 $157 $255 #
vertex $-1 $92 $256 #
straight-curve $-1 -39.527514042299913 33.599948616651787 10.176516149527259 0 -1 0 I I #
coedge $-1 $164 $164 $-1 $257 reversed $95 $-1 #
edge $-1 $258 0 $258 6.2831853071796004 $96 $259 forward 7 unknown #
vertex $-1 $99 $260 #
ellipse-curve $-1 -32.960557736550228 27.710811612657512 7.0082668892669506 0 0.61566148304635926 0.78801074757464917 2.5 0 0 1 I I #
face $-1 $-1 $184 $15 $-1 $261 reversed single #
loop $-1 $-1 $175 $100 #
plane-surface $-1 0 -31.765985660134103 0 0 1 0 0 0 1 forward_v I I I I #
coedge $-1 $262 $103 $183 $263 forward $62 $-1 #
coedge $-1 $103 $262 $187 $264 forward $62 $-1 #
edge $-1 $189 -31.765985660134103 $185 31.765985660134103 $108 $265 forward 7 unknown #
coedge $-1 $105 $104 $262 $266 reversed $41 $-1 #
coedge $-1 $188 $187 $104 $176 forward $169 $-1 #
edge $-1 $267 -10.176516149527259 $179 10.176516149527259 $104 $268 forward 7 unknown #
coedge $-1 $183 $182 $105 $178 reversed $184 $-1 #
edge $-1 $269 -10.176516149527259 $180 10.176516149527259 $177 $270 forward 7 unknown #
vertex $-1 $107 $271 #
vertex $-1 $192 $272 #
straight-curve $-1 -69.435712759788814 0 -10.176516149527259 0 1 0 I I #
coedge $-1 $177 $109 $114 $192 reversed $184 $-1 #
coedge $-1 $109 $177 $171 $263 reversed $184 $-1 #
loop $-1 $-1 $109 $168 #
vertex $-1 $173 $273 #
straight-curve $-1 69.435712759788814 31.765985660134103 0 0 0 -1 I I #
coedge $-1 $175 $111 $172 $264 reversed $169 $-1 #
coedge $-1 $111 $175 $113 $191 reversed $169 $-1 #
vertex $-1 $173 $274 #
straight-curve $-1 69.435712759788814 -31.765985660134103 0 0 0 -1 I I #
edge $-1 $116 -69.435712759788814 $179 69.435712759788814 $188 $275 forward 7 unknown #
edge $-1 $180 -69.435712759788814 $115 69.435712759788814 $182 $276 forward 7 unknown #
point $-1 69.435712759788814 31.765985660134103 -10.176516149527259 #
point $-1 69.435712759788814 -31.765985660134103 -10.176516149527259 #
face $-1 $-1 $211 $16 $-1 $277 forward single #
plane-surface $-1 -73.087900951755529 -11.412953361079584 0 0 -1 0 0 0 -1 forward_v I I I I #
coedge $-1 $278 $279 $214 $280 forward $119 $-1 #
coedge $-1 $207 $121 $122 $203 reversed $70 $-1 #
coedge $-1 $121 $207 $210 $281 reversed $70 $-1 #
coedge $-1 $279 $278 $121 $201 reversed $119 $-1 #
edge $-1 $282 -10.176516149527259 $283 10.176516149527259 $200 $284 forward 7 unknown #
coedge $-1 $123 $122 $278 $285 forward $45 $-1 #
edge $-1 $205 -3.6521881919667152 $283 3.6521881919667152 $198 $286 forward 7 unknown #
edge $-1 $287 -3.6521881919667152 $131 3.6521881919667152 $128 $288 forward 7 unknown #
vertex $-1 $203 $289 #
straight-curve $-1 -69.435712759788814 0 -10.176516149527259 0 -1 0 I I #
coedge $-1 $199 $198 $125 $208 reversed $70 $-1 #
edge $-1 $212 -10.176516149527259 $205 10.176516149527259 $207 $290 forward 7 unknown #
coedge $-1 $291 $126 $129 $215 forward $211 $-1 #
coedge $-1 $126 $291 $199 $281 forward $211 $-1 #
loop $-1 $-1 $126 $195 #
vertex $-1 $127 $292 #
straight-curve $-1 -69.435712759788814 0 10.176516149527259 0 1 0 I I #
coedge $-1 $129 $128 $197 $280 reversed $130 $-1 #
edge $-1 $132 -3.6521881919667152 $293 3.6521881919667152 $129 $294 forward 7 unknown #
point $-1 -69.435712759788814 -11.412953361079584 -10.176516149527259 #
point $-1 -69.435712759788814 -11.412953361079584 10.176516149527259 #
face $-1 $-1 $232 $17 $-1 $295 forward single #
loop $-1 $-1 $296 $134 #
plane-surface $-1 76.74008914372223 -12.912953361079584 0 -1 0 0 0 0 1 forward_v I I I I #
coedge $-1 $223 $297 $298 $299 forward $135 $-1 #
coedge $-1 $138 $137 $300 $301 forward $49 $-1 #
coedge $-1 $228 $221 $137 $224 reversed $135 $-1 #
edge $-1 $226 -3.6521881919667152 $302 3.6521881919667152 $223 $303 forward 7 unknown #
edge $-1 $304 -3.6521881919667152 $145 3.6521881919667152 $143 $305 forward 7 unknown #
vertex $-1 $224 $306 #
straight-curve $-1 69.435712759788814 0 -10.176516149527259 0 1 0 I I #
coedge $-1 $297 $223 $140 $229 reversed $135 $-1 #
edge $-1 $233 -10.176516149527259 $226 10.176516149527259 $228 $307 forward 7 unknown #
coedge $-1 $308 $141 $144 $236 forward $232 $-1 #
coedge $-1 $141 $308 $297 $309 forward $232 $-1 #
loop $-1 $-1 $141 $218 #
vertex $-1 $142 $310 #
straight-curve $-1 69.435712759788814 0 10.176516149527259 0 -1 0 I I #
coedge $-1 $144 $143 $296 $311 reversed $78 $-1 #
edge $-1 $146 -3.6521881919667152 $312 3.6521881919667152 $144 $313 forward 7 unknown #
point $-1 69.4357127597888 -14.412953361079584 -10.176516149527259 #
point $-1 69.4357127597888 -14.412953361079584 10.176516149527259 #
plane-surface $-1 0 0 10.176516149527259 0 0 1 1 0 0 forward_v I I I I #
coedge $-1 $250 $249 $242 $314 forward $149 $-1 #
coedge $-1 $242 $151 $153 $246 reversed $86 $-1 #
coedge $-1 $151 $241 $240 $314 reversed $86 $-1 #
coedge $-1 $159 $154 $151 $244 forward $160 $-1 #
edge $-1 $247 -9.9443110514708906 $315 -1.8339629565176843 $243 $316 forward 7 unknown #
coedge $-1 $153 $152 $250 $317 reversed $53 $-1 #
edge $-1 $318 -63.531971320268205 $247 -53.239791778408716 $241 $319 forward 7 unknown #
vertex $-1 $155 $320 #
straight-curve $-1 -16.480278868275114 23.655637565180903 10.176516149527259 1 0 0 I I #
coedge $-1 $240 $156 $159 $254 reversed $149 $-1 #
coedge $-1 $156 $240 $245 $317 forward $149 $-1 #
vertex $-1 $157 $321 #
straight-curve $-1 -39.527514042299913 31.765985660134103 76.193190576670659 0 0 1 I I #
straight-curve $-1 -39.527514042299913 -18.297890554841615 42.954205312901735 0 0.78801074757464917 -0.61566148304635926 I I #
edge $-1 $315 26.393601430800544 $161 39.527514042299913 $249 $322 forward 7 unknown #
point $-1 -39.527514042299913 31.765985660134103 10.176516149527259 #
point $-1 -39.527514042299913 23.655637565180896 10.176516149527259 #
edge $-1 $323 1 $323 0 $164 $-1 forward 7 unknown #
vertex $-1 $165 $324 #
ellipse-curve $-1 -32.960557736550228 23.269732891985722 1.3239454576289709 0 0.61566148304635926 0.78801074757464917 2.5 0 0 1 I I #
point $-1 -30.460557736550228 27.710811612657519 7.0082668892669595 #
plane-surface $-1 0 31.765985660134103 0 0 -1 0 0 0 -1 forward_v I I I I #
coedge $-1 $172 $171 $174 $266 forward $62 $-1 #
edge $-1 $185 -69.435712759788814 $269 69.435712759788814 $183 $325 forward 7 unknown #
edge $-1 $267 -69.435712759788814 $189 69.435712759788814 $187 $326 forward 7 unknown #
straight-curve $-1 69.435712759788814 0 10.176516149527259 0 1 0 I I #
edge $-1 $269 -31.765985660134103 $267 31.765985660134103 $174 $327 forward 7 unknown #
vertex $-1 $266 $328 #
straight-curve $-1 -69.435712759788814 -31.765985660134103 0 0 0 -1 I I #
vertex $-1 $263 $329 #
straight-curve $-1 -69.435712759788814 31.765985660134103 0 0 0 -1 I I #
point $-1 -69.435712759788814 -31.765985660134103 -10.176516149527259 #
point $-1 -69.435712759788814 31.765985660134103 -10.176516149527259 #
point $-1 69.435712759788814 31.765985660134103 10.176516149527259 #
point $-1 69.435712759788814 -31.765985660134103 10.176516149527259 #
straight-curve $-1 0 -31.765985660134103 -10.176516149527259 -1 0 0 I I #
straight-curve $-1 0 31.765985660134103 -10.176516149527259 1 0 0 I I #
plane-surface $-1 0 0 10.176516149527259 0 0 1 1 0 0 forward_v I I I I #
coedge $-1 $200 $197 $202 $285 reversed $119 $-1 #
coedge $-1 $197 $200 $291 $330 reversed $119 $-1 #
edge $-1 $293 -10.176516149527259 $287 10.176516149527259 $214 $331 forward 7 unknown #
edge $-1 $282 -3.6521881919667152 $212 3.6521881919667152 $199 $332 forward 7 unknown #
vertex $-1 $330 $333 #
vertex $-1 $285 $334 #
straight-curve $-1 -76.740089143722244 -14.412953361079584 0 0 0 -1 I I #
edge $-1 $283 -1.5 $287 1.5 $278 $335 forward 7 unknown #
straight-curve $-1 -73.087900951755529 -14.412953361079584 -10.176516149527259 -1 0 0 I I #
vertex $-1 $204 $336 #
straight-curve $-1 -73.087900951755529 -11.412953361079584 -10.176516149527259 1 0 0 I I #
point $-1 -69.435712759788814 -14.412953361079584 -10.176516149527259 #
straight-curve $-1 -69.435712759788814 -14.412953361079584 0 0 0 -1 I I #
coedge $-1 $210 $209 $279 $330 forward $211 $-1 #
point $-1 -69.435712759788814 -14.412953361079584 10.176516149527259 #
vertex $-1 $215 $337 #
straight-curve $-1 -73.087900951755529 -11.412953361079584 10.176516149527259 -1 0 0 I I #
plane-surface $-1 0 0 10.176516149527259 0 0 1 1 0 0 forward_v I I I I #
coedge $-1 $300 $338 $235 $311 forward $219 $-1 #
coedge $-1 $221 $228 $231 $309 reversed $135 $-1 #
coedge $-1 $338 $300 $221 $299 reversed $219 $-1 #
edge $-1 $339 -10.176516149527259 $302 10.176516149527259 $298 $340 forward 7 unknown #
coedge $-1 $298 $296 $222 $301 reversed $219 $-1 #
edge $-1 $302 -1.5 $304 1.5 $300 $341 forward 7 unknown #
vertex $-1 $301 $342 #
straight-curve $-1 73.087900951755515 -11.412953361079584 -10.176516149527259 1 0 0 I I #
vertex $-1 $311 $343 #
straight-curve $-1 73.087900951755515 -14.412953361079584 -10.176516149527259 -1 0 0 I I #
point $-1 69.4357127597888 -11.412953361079584 -10.176516149527259 #
straight-curve $-1 69.435712759788814 -11.412953361079584 0 0 0 -1 I I #
coedge $-1 $231 $230 $338 $344 forward $232 $-1 #
edge $-1 $339 -3.6521881919667152 $233 3.6521881919667152 $297 $345 forward 7 unknown #
point $-1 69.4357127597888 -11.412953361079584 10.176516149527259 #
edge $-1 $312 -10.176516149527259 $304 10.176516149527259 $296 $346 forward 7 unknown #
vertex $-1 $344 $347 #
straight-curve $-1 73.087900951755515 -14.412953361079584 10.176516149527259 1 0 0 I I #
edge $-1 $315 66.0166744271434 $318 72.353172947664007 $240 $348 forward 7 unknown #
vertex $-1 $254 $349 #
straight-curve $-1 -26.393601430800544 33.599948616651787 10.176516149527259 0 1 0 I I #
edge $-1 $318 9.9133225625254298 $251 23.047235174024799 $250 $350 forward 7 unknown #
vertex $-1 $317 $351 #
straight-curve $-1 -26.393601430800544 -18.297890554841615 42.954205312901735 0 -0.78801074757464917 0.61566148304635926 I I #
point $-1 -26.393601430800544 23.655637565180896 10.176516149527259 #
point $-1 -39.527514042299913 31.765985660134106 3.8400176290066454 #
straight-curve $-1 0 31.765985660134103 10.176516149527259 -1 0 0 I I #
vertex $-1 $257 $352 #
point $-1 -30.460557736550228 23.269732891985722 1.3239454576289709 #
straight-curve $-1 0 31.765985660134103 10.176516149527259 -1 0 0 I I #
straight-curve $-1 0 -31.765985660134103 10.176516149527259 1 0 0 I I #
straight-curve $-1 -69.435712759788814 0 10.176516149527259 0 -1 0 I I #
point $-1 -69.435712759788814 -31.765985660134103 10.176516149527259 #
point $-1 -69.435712759788814 31.765985660134103 10.176516149527259 #
edge $-1 $293 -1.5 $282 1.5 $279 $353 forward 7 unknown #
straight-curve $-1 -76.740089143722244 -11.412953361079584 0 0 0 -1 I I #
straight-curve $-1 -73.087900951755529 -14.412953361079584 10.176516149527259 1 0 0 I I #
point $-1 -76.740089143722244 -14.412953361079584 10.176516149527259 #
point $-1 -76.740089143722244 -14.412953361079584 -10.176516149527259 #
straight-curve $-1 -76.740089143722244 -12.912953361079584 -10.176516149527259 0 1 0 I I #
point $-1 -76.740089143722244 -11.412953361079584 -10.176516149527259 #
point $-1 -76.740089143722244 -11.412953361079584 10.176516149527259 #
coedge $-1 $296 $298 $308 $344 reversed $219 $-1 #
vertex $-1 $344 $354 #
straight-curve $-1 76.74008914372223 -11.412953361079584 0 0 0 -1 I I #
straight-curve $-1 76.74008914372223 -12.912953361079584 -10.176516149527259 0 -1 0 I I #
point $-1 76.74008914372223 -11.412953361079584 -10.176516149527259 #
point $-1 76.74008914372223 -14.412953361079584 -10.176516149527259 #
edge $-1 $312 -1.5 $339 1.5 $338 $355 forward 7 unknown #
straight-curve $-1 73.087900951755515 -11.412953361079584 10.176516149527259 -1 0 0 I I #
straight-curve $-1 76.74008914372223 -14.412953361079584 0 0 0 -1 I I #
point $-1 76.74008914372223 -14.412953361079584 10.176516149527259 #
straight-curve $-1 -26.393601430800544 31.765985660134103 76.193190576670659 0 0 -1 I I #
point $-1 -26.393601430800544 31.765985660134103 10.176516149527259 #
straight-curve $-1 -16.480278868275114 31.765985660134103 3.8400176290066454 -1 0 0 I I #
point $-1 -26.393601430800544 31.765985660134106 3.8400176290066454 #
point $-1 -32.960557736550228 21.730579184369827 -0.64608141130765284 #
straight-curve $-1 -76.740089143722244 -12.912953361079584 10.176516149527259 0 -1 0 I I #
point $-1 76.74008914372223 -11.412953361079584 10.176516149527259 #
straight-curve $-1 76.74008914372223 -12.912953361079584 10.176516149527259 0 1 0 I I #
End-of-ACIS-data 