500 0 6 0           
7 Unknown 11 ACIS 5.0 NT 24 Fri Mar 26 14:30:10 1999 
-1 9.9999999999999995e-007 1e-010 
body $-1 $6 $-1 $7 #
body $-1 $8 $-1 $9 #
body $-1 $10 $-1 $11 #
body $-1 $12 $-1 $13 #
body $-1 $14 $-1 $15 #
body $-1 $16 $-1 $17 #
lump $-1 $-1 $18 $0 #
transform $-1 1 0 0 0 1 0 0 0 1 77.010406811731315 35.336370998130519 7.119038041537487 1 rotate no_reflect no_shear #
lump $-1 $-1 $19 $1 #
transform $-1 1 0 0 0 1 0 0 0 1 77.010406811731315 35.336370998130519 7.119038041537487 1 rotate no_reflect no_shear #
lump $-1 $-1 $20 $2 #
transform $-1 1 0 0 0 1 0 0 0 1 77.010406811731315 35.336370998130519 7.119038041537487 1 rotate no_reflect no_shear #
lump $-1 $-1 $21 $3 #
transform $-1 1 0 0 0 1 0 0 0 1 77.010406811731315 35.336370998130519 7.119038041537487 1 rotate no_reflect no_shear #
lump $-1 $-1 $22 $4 #
transform $-1 1 0 0 0 1 0 0 0 1 77.010406811731315 35.336370998130519 7.119038041537487 1 rotate no_reflect no_shear #
lump $-1 $-1 $23 $5 #
transform $-1 1 0 0 0 1 0 0 0 1 77.010406811731315 35.336370998130519 7.119038041537487 1 rotate no_reflect no_shear #
shell $-1 $-1 $-1 $24 $-1 $6 #
shell $-1 $-1 $-1 $25 $-1 $8 #
shell $-1 $-1 $-1 $26 $-1 $10 #
shell $-1 $-1 $-1 $27 $-1 $12 #
shell $-1 $-1 $-1 $28 $-1 $14 #
shell $-1 $-1 $-1 $29 $-1 $16 #
face $-1 $30 $31 $18 $-1 $32 forward single #
face $-1 $33 $34 $19 $-1 $35 forward single #
face $-1 $36 $37 $20 $-1 $38 reversed single #
face $-1 $39 $40 $21 $-1 $41 forward single #
face $-1 $42 $43 $22 $-1 $44 forward single #
face $-1 $45 $46 $23 $-1 $47 forward single #
face $-1 $48 $49 $18 $-1 $50 reversed single #
loop $-1 $-1 $51 $24 #
plane-surface $-1 0 0 7.119038041537487 0 0 1 1 0 0 forward_v I I I I #
face $-1 $52 $53 $19 $-1 $54 reversed single #
loop $-1 $-1 $55 $25 #
plane-surface $-1 0 -32.838819871741279 -2.9435583056723682 0 0 1 1 0 0 forward_v I I I I #
face $-1 $56 $57 $20 $-1 $58 reversed single #
loop $-1 $-1 $59 $26 #
plane-surface $-1 58.02629127971008 24.568621479835819 220.88800736401103 0 1 0 0.64278761758704617 0 0.76604443648966558 forward_v I I I I #
face $-1 $60 $61 $21 $-1 $62 forward single #
loop $-1 $63 $64 $27 #
cone-surface $-1 74.598202659006645 26.722171383494754 4.9210333557189632 -0.64278761758704617 0 -0.76604443648966558 0.38302221824483279 0 -0.32139380879352308 1 I I 0 1 0.5 forward I I I I #
face $-1 $65 $66 $22 $-1 $67 forward single #
loop $-1 $68 $69 $28 #
cone-surface $-1 74.598202659006645 29.952496238983173 4.9210333557189632 -0.64278761758704617 0 -0.76604443648966558 0.38302221824483279 0 -0.32139380879352308 1 I I 0 1 0.5 forward I I I I #
face $-1 $70 $71 $23 $-1 $72 forward single #
loop $-1 $73 $74 $29 #
cone-surface $-1 74.598202659006645 33.182821094471592 4.9210333557189632 -0.64278761758704617 0 -0.76604443648966558 0.38302221824483279 0 -0.32139380879352308 1 I I 0 1 0.5 forward I I I I #
face $-1 $75 $76 $18 $-1 $77 reversed single #
loop $-1 $-1 $78 $30 #
plane-surface $-1 0 0 -7.119038041537487 0 0 1 1 0 0 forward_v I I I I #
coedge $-1 $79 $80 $81 $82 forward $31 $-1 #
face $-1 $83 $84 $19 $-1 $85 reversed single #
loop $-1 $-1 $86 $33 #
plane-surface $-1 0 -30.341268745352039 -5.0312981736049274 0 -1 0 0 0 -1 forward_v I I I I #
coedge $-1 $87 $88 $89 $90 reversed $34 $-1 #
face $-1 $91 $92 $20 $-1 $93 forward single #
loop $-1 $-1 $94 $36 #
plane-surface $-1 -40.976380568133933 29.952496238983173 102.9012199841458 0.64278761758704617 0 0.76604443648966558 0.76604443648966558 0 -0.64278761758704617 forward_v I I I I #
coedge $-1 $95 $96 $97 $98 reversed $37 $-1 #
face $-1 $-1 $99 $21 $-1 $100 forward single #
loop $-1 $101 $102 $39 #
cone-surface $-1 73.94431676893052 26.722171383494754 4.1417625133958671 -0.64278761758704617 0 -0.76604443648966558 0.1915111091224164 0 -0.16069690439676154 1 I I -0.70710678118654746 0.70710678118654746 0.25 forward I I I I #
loop $-1 $-1 $103 $27 #
coedge $-1 $64 $64 $104 $105 reversed $40 $-1 #
face $-1 $-1 $106 $22 $-1 $107 forward single #
loop $-1 $108 $109 $42 #
cone-surface $-1 73.94431676893052 29.952496238983173 4.1417625133958671 -0.64278761758704617 0 -0.76604443648966558 0.1915111091224164 0 -0.16069690439676154 1 I I -0.70710678118654746 0.70710678118654746 0.25 forward I I I I #
loop $-1 $-1 $110 $28 #
coedge $-1 $69 $69 $111 $112 reversed $43 $-1 #
face $-1 $-1 $113 $23 $-1 $114 forward single #
loop $-1 $115 $116 $45 #
cone-surface $-1 73.94431676893052 33.182821094471592 4.1417625133958671 -0.64278761758704617 0 -0.76604443648966558 0.1915111091224164 0 -0.16069690439676154 1 I I -0.70710678118654746 0.70710678118654746 0.25 forward I I I I #
loop $-1 $-1 $117 $29 #
coedge $-1 $74 $74 $118 $119 reversed $46 $-1 #
face $-1 $120 $121 $18 $-1 $122 reversed single #
loop $-1 $-1 $123 $48 #
plane-surface $-1 0 -35.336370998130519 0 0 1 0 0 0 1 forward_v I I I I #
coedge $-1 $124 $125 $126 $127 forward $49 $-1 #
coedge $-1 $128 $51 $129 $130 forward $31 $-1 #
coedge $-1 $51 $128 $131 $132 forward $31 $-1 #
coedge $-1 $133 $134 $51 $82 reversed $135 $-1 #
edge $-1 $136 -35.336370998130519 $137 35.336370998130519 $81 $138 forward 7 unknown #
face $-1 $139 $140 $19 $-1 $141 reversed single #
loop $-1 $-1 $142 $52 #
plane-surface $-1 0 0 -7.119038041537487 0 0 1 1 0 0 forward_v I I I I #
coedge $-1 $143 $144 $145 $146 reversed $53 $-1 #
coedge $-1 $147 $55 $144 $148 forward $34 $-1 #
coedge $-1 $55 $147 $149 $150 reversed $34 $-1 #
coedge $-1 $151 $145 $55 $90 forward $140 $-1 #
edge $-1 $152 13.9218588094814 $153 18.91696106225988 $89 $154 forward 7 unknown #
face $-1 $155 $156 $20 $-1 $157 reversed single #
loop $-1 $-1 $158 $56 #
plane-surface $-1 0 0 7.119038041537487 0 0 1 1 0 0 forward_v I I I I #
coedge $-1 $159 $160 $161 $162 reversed $57 $-1 #
coedge $-1 $96 $59 $163 $164 reversed $37 $-1 #
coedge $-1 $59 $95 $159 $165 reversed $37 $-1 #
coedge $-1 $161 $166 $59 $98 forward $167 $-1 #
edge $-1 $168 103.32496564046802 $169 106.54545554570373 $97 $170 forward 7 unknown #
loop $-1 $-1 $104 $60 #
plane-surface $-1 -40.976380568133933 29.952496238983173 102.9012199841458 0.64278761758704617 0 0.76604443648966558 0.76604443648966558 0 -0.64278761758704617 forward_v I I I I #
loop $-1 $-1 $171 $39 #
coedge $-1 $102 $102 $103 $172 reversed $61 $-1 #
coedge $-1 $103 $103 $102 $172 forward $63 $-1 #
coedge $-1 $104 $104 $64 $105 forward $99 $-1 #
edge $-1 $173 0 $173 6.2831853071796004 $104 $174 forward 7 unknown #
loop $-1 $-1 $111 $65 #
plane-surface $-1 -40.976380568133933 29.952496238983173 102.9012199841458 0.64278761758704617 0 0.76604443648966558 0.76604443648966558 0 -0.64278761758704617 forward_v I I I I #
loop $-1 $-1 $175 $42 #
coedge $-1 $109 $109 $110 $176 reversed $66 $-1 #
coedge $-1 $110 $110 $109 $176 forward $68 $-1 #
coedge $-1 $111 $111 $69 $112 forward $106 $-1 #
edge $-1 $177 0 $177 6.2831853071796004 $111 $178 forward 7 unknown #
loop $-1 $-1 $118 $70 #
plane-surface $-1 -40.976380568133933 29.952496238983173 102.9012199841458 0.64278761758704617 0 0.76604443648966558 0.76604443648966558 0 -0.64278761758704617 forward_v I I I I #
loop $-1 $-1 $179 $45 #
coedge $-1 $116 $116 $117 $180 reversed $71 $-1 #
coedge $-1 $117 $117 $116 $180 forward $73 $-1 #
coedge $-1 $118 $118 $74 $119 forward $113 $-1 #
edge $-1 $181 0 $181 6.2831853071796004 $118 $182 forward 7 unknown #
face $-1 $183 $184 $18 $-1 $185 reversed single #
loop $-1 $-1 $186 $75 #
plane-surface $-1 -77.010406811731315 0 0 1 0 0 0 0 -1 forward_v I I I I #
coedge $-1 $187 $131 $188 $189 forward $76 $-1 #
coedge $-1 $190 $78 $187 $191 forward $49 $-1 #
coedge $-1 $78 $190 $192 $193 forward $49 $-1 #
coedge $-1 $134 $133 $78 $127 reversed $135 $-1 #
edge $-1 $194 -35.336370998130519 $195 35.336370998130519 $126 $196 forward 7 unknown #
coedge $-1 $80 $79 $197 $198 forward $31 $-1 #
coedge $-1 $199 $200 $79 $130 reversed $184 $-1 #
edge $-1 $137 -77.010406811731315 $201 77.010406811731315 $129 $202 forward 7 unknown #
coedge $-1 $123 $203 $80 $132 reversed $76 $-1 #
edge $-1 $204 -77.010406811731315 $136 77.010406811731315 $131 $205 forward 7 unknown #
coedge $-1 $126 $81 $203 $206 forward $135 $-1 #
coedge $-1 $81 $126 $199 $207 reversed $135 $-1 #
loop $-1 $-1 $133 $183 #
vertex $-1 $82 $208 #
vertex $-1 $82 $209 #
straight-curve $-1 77.010406811731315 0 7.119038041537487 0 1 0 I I #
face $-1 $210 $211 $19 $-1 $212 reversed single #
loop $-1 $-1 $145 $83 #
plane-surface $-1 77.010406811731315 0 0 -1 0 0 0 0 1 forward_v I I I I #
coedge $-1 $213 $214 $143 $215 forward $84 $-1 #
coedge $-1 $216 $86 $142 $215 reversed $53 $-1 #
coedge $-1 $86 $216 $87 $148 reversed $53 $-1 #
coedge $-1 $89 $217 $86 $146 forward $140 $-1 #
edge $-1 $218 -4.6033889547350224 $152 -0.42790921886990452 $145 $219 forward 7 unknown #
coedge $-1 $88 $87 $220 $221 reversed $34 $-1 #
edge $-1 $152 -77.010406811731315 $222 77.010406811731315 $144 $223 forward 7 unknown #
coedge $-1 $224 $225 $88 $150 forward $211 $-1 #
edge $-1 $153 -77.010406811731315 $226 77.010406811731315 $149 $227 forward 7 unknown #
coedge $-1 $217 $89 $225 $228 forward $140 $-1 #
vertex $-1 $90 $229 #
vertex $-1 $228 $230 #
straight-curve $-1 77.010406811731315 -16.41940993587064 -2.9435583056723682 0 -1 0 I I #
face $-1 $-1 $167 $20 $-1 $231 reversed single #
loop $-1 $-1 $232 $91 #
plane-surface $-1 0 35.336370998130519 0 0 -1 0 0 0 -1 forward_v I I I I #
coedge $-1 $163 $233 $234 $235 forward $92 $-1 #
coedge $-1 $234 $94 $96 $165 forward $57 $-1 #
coedge $-1 $94 $234 $232 $236 reversed $57 $-1 #
coedge $-1 $237 $97 $94 $162 forward $167 $-1 #
edge $-1 $169 9.5923733603442329 $238 20.360122878638933 $161 $239 forward 7 unknown #
coedge $-1 $240 $158 $95 $164 forward $92 $-1 #
edge $-1 $241 44.159230837785628 $168 47.997261171876275 $163 $242 forward 7 unknown #
edge $-1 $169 -154.02081362346263 $241 -149.01062080530434 $96 $243 forward 7 unknown #
coedge $-1 $97 $237 $240 $244 reversed $167 $-1 #
loop $-1 $-1 $161 $155 #
vertex $-1 $244 $245 #
vertex $-1 $98 $246 #
straight-curve $-1 77.010406811731315 24.568621479835819 110.44400368200552 0 0 -1 I I #
coedge $-1 $171 $171 $-1 $247 reversed $101 $-1 #
edge $-1 $248 0 $248 6.2831853071796004 $102 $249 forward 7 unknown #
vertex $-1 $105 $250 #
ellipse-curve $-1 75.091391644685999 26.722171383494754 5.5087930889196262 0.64278761758704617 0 0.76604443648966558 0.38302221824483279 0 -0.32139380879352308 1 I I #
coedge $-1 $175 $175 $-1 $251 reversed $108 $-1 #
edge $-1 $252 0 $252 6.2831853071796004 $109 $253 forward 7 unknown #
vertex $-1 $112 $254 #
ellipse-curve $-1 75.091391644685999 29.952496238983173 5.5087930889196262 0.64278761758704617 0 0.76604443648966558 0.38302221824483279 0 -0.32139380879352308 1 I I #
coedge $-1 $179 $179 $-1 $255 reversed $115 $-1 #
edge $-1 $256 0 $256 6.2831853071796004 $116 $257 forward 7 unknown #
vertex $-1 $119 $258 #
ellipse-curve $-1 75.091391644685999 33.182821094471592 5.5087930889196262 0.64278761758704617 0 0.76604443648966558 0.38302221824483279 0 -0.32139380879352308 1 I I #
face $-1 $-1 $135 $18 $-1 $259 reversed single #
loop $-1 $-1 $199 $120 #
plane-surface $-1 0 35.336370998130519 0 0 -1 0 0 0 -1 forward_v I I I I #
coedge $-1 $260 $197 $200 $261 forward $121 $-1 #
coedge $-1 $203 $123 $124 $191 reversed $76 $-1 #
coedge $-1 $197 $260 $123 $189 reversed $121 $-1 #
edge $-1 $204 -7.119038041537487 $262 7.119038041537487 $188 $263 forward 7 unknown #
coedge $-1 $125 $124 $260 $264 forward $49 $-1 #
edge $-1 $195 -77.010406811731315 $262 77.010406811731315 $187 $265 forward 7 unknown #
coedge $-1 $200 $199 $125 $193 reversed $184 $-1 #
edge $-1 $266 -77.010406811731315 $194 77.010406811731315 $192 $267 forward 7 unknown #
vertex $-1 $127 $268 #
vertex $-1 $206 $269 #
straight-curve $-1 77.010406811731315 0 -7.119038041537487 0 -1 0 I I #
coedge $-1 $186 $188 $128 $198 reversed $121 $-1 #
edge $-1 $201 -35.336370998130519 $204 35.336370998130519 $197 $270 forward 7 unknown #
coedge $-1 $192 $129 $134 $207 forward $184 $-1 #
coedge $-1 $129 $192 $186 $261 reversed $184 $-1 #
vertex $-1 $130 $271 #
straight-curve $-1 0 35.336370998130519 7.119038041537487 -1 0 0 I I #
coedge $-1 $131 $187 $133 $206 reversed $76 $-1 #
vertex $-1 $198 $272 #
straight-curve $-1 0 -35.336370998130519 7.119038041537487 1 0 0 I I #
edge $-1 $136 -7.119038041537487 $195 7.119038041537487 $133 $273 forward 7 unknown #
edge $-1 $137 -7.119038041537487 $194 7.119038041537487 $134 $274 forward 7 unknown #
point $-1 77.010406811731315 -35.336370998130519 7.119038041537487 #
point $-1 77.010406811731315 35.336370998130519 7.119038041537487 #
face $-1 $-1 $275 $19 $-1 $276 reversed single #
loop $-1 $-1 $149 $139 #
plane-surface $-1 0 -35.336370998130519 0 0 1 0 0 0 1 forward_v I I I I #
coedge $-1 $277 $142 $217 $278 forward $84 $-1 #
coedge $-1 $142 $277 $279 $280 forward $84 $-1 #
edge $-1 $281 -77.010406811731315 $218 77.010406811731315 $142 $282 forward 7 unknown #
coedge $-1 $144 $143 $283 $284 reversed $53 $-1 #
coedge $-1 $145 $151 $213 $278 reversed $140 $-1 #
vertex $-1 $278 $285 #
straight-curve $-1 77.010406811731315 -30.341268745352039 -2.5156490868024637 0 0 1 I I #
coedge $-1 $283 $286 $147 $221 forward $275 $-1 #
edge $-1 $226 -18.91696106225988 $222 -13.9218588094814 $220 $287 forward 7 unknown #
vertex $-1 $221 $288 #
straight-curve $-1 0 -30.341268745352039 -2.9435583056723682 -1 0 0 I I #
coedge $-1 $289 $149 $286 $290 forward $211 $-1 #
coedge $-1 $149 $289 $151 $228 reversed $211 $-1 #
vertex $-1 $290 $291 #
straight-curve $-1 0 -35.336370998130519 -2.9435583056723682 -1 0 0 I I #
edge $-1 $153 2.9435583056723682 $292 7.119038041537487 $151 $293 forward 7 unknown #
point $-1 77.010406811731315 -30.341268745352039 -2.9435583056723682 #
point $-1 77.010406811731315 -35.336370998130519 -2.9435583056723682 #
plane-surface $-1 77.010406811731315 0 0 -1 0 0 0 0 1 forward_v I I I I #
coedge $-1 $294 $295 $160 $236 forward $156 $-1 #
coedge $-1 $158 $240 $294 $296 forward $92 $-1 #
coedge $-1 $160 $159 $158 $235 reversed $57 $-1 #
edge $-1 $297 -20.36012287863894 $241 -9.5923733603442329 $158 $298 forward 7 unknown #
edge $-1 $238 -105.25413442240671 $297 -100.24394160424841 $232 $299 forward 7 unknown #
coedge $-1 $166 $161 $295 $300 reversed $167 $-1 #
vertex $-1 $162 $301 #
straight-curve $-1 77.010406811731315 14.976248119491586 3.8985481363017911 0 1 0 I I #
coedge $-1 $233 $163 $166 $244 forward $92 $-1 #
vertex $-1 $164 $302 #
straight-curve $-1 29.01314563985504 24.568621479835819 7.1190380415374932 1 0 0 I I #
straight-curve $-1 -40.976380568133933 24.568621479835819 102.9012199841458 -0.76604443648966558 0 0.64278761758704617 I I #
edge $-1 $168 24.568621479835819 $303 35.336370998130519 $166 $304 forward 7 unknown #
point $-1 77.010406811731315 24.568621479835819 7.119038041537487 #
point $-1 77.010406811731301 24.568621479835819 3.898548136301784 #
edge $-1 $305 1 $305 0 $171 $-1 forward 7 unknown #
vertex $-1 $172 $306 #
ellipse-curve $-1 74.105013673327278 26.722171383494754 4.3332736225182833 0.64278761758704617 0 0.76604443648966558 0.38302221824483279 0 -0.32139380879352308 1 I I #
point $-1 75.474413862930859 26.722171383494754 5.1873992801261206 #
edge $-1 $307 1 $307 0 $175 $-1 forward 7 unknown #
vertex $-1 $176 $308 #
ellipse-curve $-1 74.105013673327278 29.952496238983173 4.3332736225182833 0.64278761758704617 0 0.76604443648966558 0.38302221824483279 0 -0.32139380879352308 1 I I #
point $-1 75.474413862930859 29.952496238983173 5.1873992801261206 #
edge $-1 $309 1 $309 0 $179 $-1 forward 7 unknown #
vertex $-1 $180 $310 #
ellipse-curve $-1 74.105013673327278 33.182821094471592 4.3332736225182833 0.64278761758704617 0 0.76604443648966558 0.38302221824483279 0 -0.32139380879352308 1 I I #
point $-1 75.474413862930859 33.182821094471592 5.1873992801261206 #
plane-surface $-1 77.010406811731315 0 0 -1 0 0 0 0 1 forward_v I I I I #
coedge $-1 $188 $186 $190 $264 reversed $121 $-1 #
edge $-1 $201 -7.119038041537487 $266 7.119038041537487 $200 $311 forward 7 unknown #
vertex $-1 $264 $312 #
straight-curve $-1 -77.010406811731315 -35.336370998130519 0 0 0 -1 I I #
edge $-1 $262 -35.336370998130519 $266 35.336370998130519 $260 $313 forward 7 unknown #
straight-curve $-1 0 -35.336370998130519 -7.119038041537487 -1 0 0 I I #
vertex $-1 $193 $314 #
straight-curve $-1 0 35.336370998130519 -7.119038041537487 1 0 0 I I #
point $-1 77.010406811731315 35.336370998130519 -7.119038041537487 #
point $-1 77.010406811731315 -35.336370998130519 -7.119038041537487 #
straight-curve $-1 -77.010406811731315 0 7.119038041537487 0 -1 0 I I #
point $-1 -77.010406811731315 35.336370998130519 7.119038041537487 #
point $-1 -77.010406811731315 -35.336370998130519 7.119038041537487 #
straight-curve $-1 77.010406811731315 -35.336370998130519 0 0 0 -1 I I #
straight-curve $-1 77.010406811731315 35.336370998130519 0 0 0 -1 I I #
loop $-1 $-1 $283 $210 #
plane-surface $-1 -77.010406811731315 0 0 1 0 0 0 0 -1 forward_v I I I I #
coedge $-1 $214 $213 $289 $315 forward $84 $-1 #
edge $-1 $218 30.341268745352039 $292 35.336370998130519 $217 $316 forward 7 unknown #
coedge $-1 $286 $283 $214 $280 reversed $275 $-1 #
edge $-1 $317 -35.336370998130519 $281 -30.341268745352039 $279 $318 forward 7 unknown #
vertex $-1 $284 $319 #
straight-curve $-1 0 -30.341268745352039 -7.119038041537487 1 0 0 I I #
coedge $-1 $279 $220 $216 $284 forward $275 $-1 #
edge $-1 $222 0.42790921886990452 $281 4.6033889547350224 $283 $320 forward 7 unknown #
point $-1 77.010406811731315 -30.341268745352039 -7.1190380415374861 #
coedge $-1 $220 $279 $224 $290 reversed $275 $-1 #
straight-curve $-1 -77.010406811731315 -16.41940993587064 -2.9435583056723682 0 1 0 I I #
point $-1 -77.010406811731315 -30.341268745352039 -2.9435583056723682 #
coedge $-1 $225 $224 $277 $315 reversed $211 $-1 #
edge $-1 $226 2.9435583056723682 $317 7.119038041537487 $286 $321 forward 7 unknown #
point $-1 -77.010406811731315 -35.336370998130519 -2.9435583056723682 #
vertex $-1 $228 $322 #
straight-curve $-1 77.010406811731315 -35.336370998130519 0 0 0 -1 I I #
coedge $-1 $295 $232 $233 $296 reversed $156 $-1 #
coedge $-1 $232 $294 $237 $300 forward $156 $-1 #
edge $-1 $303 -77.010406811731315 $297 -73.172376477640668 $294 $323 forward 7 unknown #
vertex $-1 $235 $324 #
straight-curve $-1 73.172376477640654 14.976248119491586 7.1190380415374932 0 -1 0 I I #
straight-curve $-1 -3.6189372800887476 35.336370998130519 71.554602442867292 -0.76604443648966558 0 0.64278761758704617 I I #
edge $-1 $303 -7.119038041537487 $238 -3.8985481363017809 $237 $325 forward 7 unknown #
point $-1 77.010406811731315 35.336370998130519 3.8985481363017809 #
point $-1 73.172376477640668 24.568621479835819 7.119038041537479 #
vertex $-1 $244 $326 #
straight-curve $-1 77.010406811731315 0 7.119038041537487 0 1 0 I I #
vertex $-1 $247 $327 #
point $-1 74.48803589157211 26.722171383494754 4.01187981372476 #
vertex $-1 $251 $328 #
point $-1 74.48803589157211 29.952496238983173 4.01187981372476 #
vertex $-1 $255 $329 #
point $-1 74.48803589157211 33.182821094471592 4.01187981372476 #
straight-curve $-1 -77.010406811731315 35.336370998130519 0 0 0 -1 I I #
point $-1 -77.010406811731315 -35.336370998130519 -7.119038041537487 #
straight-curve $-1 -77.010406811731315 0 -7.119038041537487 0 1 0 I I #
point $-1 -77.010406811731315 35.336370998130519 -7.119038041537487 #
edge $-1 $292 -77.010406811731315 $317 77.010406811731315 $289 $330 forward 7 unknown #
straight-curve $-1 77.010406811731315 0 -7.119038041537487 0 -1 0 I I #
vertex $-1 $280 $331 #
straight-curve $-1 -77.010406811731315 0 -7.119038041537487 0 1 0 I I #
point $-1 -77.010406811731315 -30.341268745352039 -7.1190380415374861 #
straight-curve $-1 -77.010406811731315 -30.341268745352039 -2.5156490868024637 0 0 -1 I I #
straight-curve $-1 -77.010406811731315 -35.336370998130519 0 0 0 -1 I I #
point $-1 77.010406811731315 -35.336370998130519 -7.119038041537487 #
straight-curve $-1 0 35.336370998130519 7.119038041537487 -1 0 0 I I #
point $-1 73.172376477640668 35.336370998130526 7.119038041537479 #
straight-curve $-1 77.010406811731315 35.336370998130519 0 0 0 -1 I I #
point $-1 77.010406811731315 35.336370998130519 7.119038041537487 #
point $-1 73.783619864533762 26.722171383494754 3.9502514042734509 #
point $-1 73.783619864533762 29.952496238983173 3.9502514042734509 #
point $-1 73.783619864533762 33.182821094471592 3.9502514042734509 #
straight-curve $-1 0 -35.336370998130519 -7.119038041537487 -1 0 0 I I #
point $-1 -77.010406811731315 -35.336370998130519 -7.119038041537487 #
End-of-ACIS-data 