500 0 17 0           
7 Unknown 11 ACIS 5.0 NT 24 Thu Mar 25 19:40:08 1999 
-1 9.9999999999999995e-007 1e-010 
body $-1 $17 $-1 $18 #
body $-1 $19 $-1 $20 #
body $-1 $21 $-1 $22 #
body $-1 $23 $-1 $24 #
body $-1 $25 $-1 $26 #
body $-1 $27 $-1 $28 #
body $-1 $29 $-1 $30 #
body $-1 $31 $-1 $32 #
body $-1 $33 $-1 $34 #
body $-1 $35 $-1 $36 #
body $-1 $37 $-1 $38 #
body $-1 $39 $-1 $40 #
body $-1 $41 $-1 $42 #
body $-1 $43 $-1 $44 #
body $-1 $45 $-1 $46 #
body $-1 $47 $-1 $48 #
body $-1 $49 $-1 $50 #
lump $-1 $-1 $51 $0 #
transform $-1 1 0 0 0 1 0 0 0 1 78.157902768028805 49.354424553190441 12.503010430420195 1 rotate no_reflect no_shear #
lump $-1 $-1 $52 $1 #
transform $-1 1 0 0 0 1 0 0 0 1 78.157902768028805 49.354424553190441 12.503010430420195 1 rotate no_reflect no_shear #
lump $-1 $-1 $53 $2 #
transform $-1 1 0 0 0 1 0 0 0 1 78.157902768028805 49.354424553190441 12.503010430420195 1 rotate no_reflect no_shear #
lump $-1 $-1 $54 $3 #
transform $-1 1 0 0 0 1 0 0 0 1 78.157902768028805 49.354424553190441 12.503010430420195 1 rotate no_reflect no_shear #
lump $-1 $-1 $55 $4 #
transform $-1 1 0 0 0 1 0 0 0 1 78.157902768028805 49.354424553190441 12.503010430420195 1 rotate no_reflect no_shear #
lump $-1 $-1 $56 $5 #
transform $-1 1 0 0 0 1 0 0 0 1 78.157902768028805 49.354424553190441 12.503010430420195 1 rotate no_reflect no_shear #
lump $-1 $-1 $57 $6 #
transform $-1 1 0 0 0 1 0 0 0 1 78.157902768028805 49.354424553190441 12.503010430420195 1 rotate no_reflect no_shear #
lump $-1 $-1 $58 $7 #
transform $-1 1 0 0 0 1 0 0 0 1 78.157902768028805 49.354424553190441 12.503010430420195 1 rotate no_reflect no_shear #
lump $-1 $-1 $59 $8 #
transform $-1 1 0 0 0 1 0 0 0 1 78.157902768028805 49.354424553190441 12.503010430420195 1 rotate no_reflect no_shear #
lump $-1 $-1 $60 $9 #
transform $-1 1 0 0 0 1 0 0 0 1 78.157902768028805 49.354424553190441 12.503010430420195 1 rotate no_reflect no_shear #
lump $-1 $-1 $61 $10 #
transform $-1 1 0 0 0 1 0 0 0 1 78.157902768028805 49.354424553190441 12.503010430420195 1 rotate no_reflect no_shear #
lump $-1 $-1 $62 $11 #
transform $-1 1 0 0 0 1 0 0 0 1 78.157902768028805 49.354424553190441 12.503010430420195 1 rotate no_reflect no_shear #
lump $-1 $-1 $63 $12 #
transform $-1 1 0 0 0 1 0 0 0 1 78.157902768028805 49.354424553190441 12.503010430420195 1 rotate no_reflect no_shear #
lump $-1 $-1 $64 $13 #
transform $-1 1 0 0 0 1 0 0 0 1 78.157902768028805 49.354424553190441 12.503010430420195 1 rotate no_reflect no_shear #
lump $-1 $-1 $65 $14 #
transform $-1 1 0 0 0 1 0 0 0 1 78.157902768028805 49.354424553190441 12.503010430420195 1 rotate no_reflect no_shear #
lump $-1 $-1 $66 $15 #
transform $-1 1 0 0 0 1 0 0 0 1 78.157902768028805 49.354424553190441 12.503010430420195 1 rotate no_reflect no_shear #
lump $-1 $-1 $67 $16 #
transform $-1 1 0 0 0 1 0 0 0 1 78.157902768028805 49.354424553190441 12.503010430420195 1 rotate no_reflect no_shear #
shell $-1 $-1 $-1 $68 $-1 $17 #
shell $-1 $-1 $-1 $69 $-1 $19 #
shell $-1 $-1 $-1 $70 $-1 $21 #
shell $-1 $-1 $-1 $71 $-1 $23 #
shell $-1 $-1 $-1 $72 $-1 $25 #
shell $-1 $-1 $-1 $73 $-1 $27 #
shell $-1 $-1 $-1 $74 $-1 $29 #
shell $-1 $-1 $-1 $75 $-1 $31 #
shell $-1 $-1 $-1 $76 $-1 $33 #
shell $-1 $-1 $-1 $77 $-1 $35 #
shell $-1 $-1 $-1 $78 $-1 $37 #
shell $-1 $-1 $-1 $79 $-1 $39 #
shell $-1 $-1 $-1 $80 $-1 $41 #
shell $-1 $-1 $-1 $81 $-1 $43 #
shell $-1 $-1 $-1 $82 $-1 $45 #
shell $-1 $-1 $-1 $83 $-1 $47 #
shell $-1 $-1 $-1 $84 $-1 $49 #
face $-1 $85 $86 $51 $-1 $87 forward single #
face $-1 $88 $89 $52 $-1 $90 forward single #
face $-1 $91 $92 $53 $-1 $93 reversed single #
face $-1 $94 $95 $54 $-1 $96 forward single #
face $-1 $97 $98 $55 $-1 $99 forward single #
face $-1 $100 $101 $56 $-1 $102 reversed single #
face $-1 $103 $104 $57 $-1 $105 forward single #
face $-1 $106 $107 $58 $-1 $108 forward single #
face $-1 $109 $110 $59 $-1 $111 reversed single #
face $-1 $112 $113 $60 $-1 $114 forward single #
face $-1 $115 $116 $61 $-1 $117 forward single #
face $-1 $118 $119 $62 $-1 $120 reversed single #
face $-1 $121 $122 $63 $-1 $123 forward single #
face $-1 $124 $125 $64 $-1 $126 forward single #
face $-1 $127 $128 $65 $-1 $129 reversed single #
face $-1 $130 $131 $66 $-1 $132 forward single #
face $-1 $133 $134 $67 $-1 $135 forward single #
face $-1 $136 $137 $51 $-1 $138 reversed single #
loop $-1 $-1 $139 $68 #
plane-surface $-1 0 0 12.503010430420195 0 0 1 1 0 0 forward_v I I I I #
face $-1 $140 $141 $52 $-1 $142 reversed single #
loop $-1 $-1 $143 $69 #
plane-surface $-1 0 -49.354424553190441 0 0 1 0 0 0 1 forward_v I I I I #
face $-1 $144 $145 $53 $-1 $146 reversed single #
loop $-1 $-1 $147 $70 #
plane-surface $-1 105.09882197789005 35.576695694759579 226.60540392210615 0 1 0 0.78801076186113728 0 0.61566146476048833 forward_v I I I I #
face $-1 $148 $149 $54 $-1 $150 forward single #
loop $-1 $151 $152 $71 #
cone-surface $-1 73.938424017494924 39.513189654311262 8.1712908371027968 -0.78801076186113728 0 -0.61566146476048833 0.9234921971407325 0 -1.182016142791706 1 I I 0 1 1.5 forward I I I I #
face $-1 $153 $154 $55 $-1 $155 forward single #
loop $-1 $156 $157 $72 #
cone-surface $-1 73.938424017494924 45.417930593638772 8.1712908371027968 -0.78801076186113728 0 -0.61566146476048833 0.9234921971407325 0 -1.182016142791706 1 I I 0 1 1.5 forward I I I I #
face $-1 $158 $159 $56 $-1 $160 reversed single #
loop $-1 $-1 $161 $73 #
plane-surface $-1 -212.14670108116314 -33.138031328656623 81.418665109164579 0 1 0 -0.85716730853699208 0 0.51503806187062418 forward_v I I I I #
face $-1 $162 $163 $57 $-1 $164 forward single #
loop $-1 $165 $166 $74 #
cone-surface $-1 -72.976878898869685 -28.93992021575793 5.6861885875043834 0.85716730853699208 0 -0.51503806187062418 0.77255709280593621 0 1.2857509628054882 1 I I 0 1 1.5 forward I I I I #
face $-1 $167 $168 $58 $-1 $169 forward single #
loop $-1 $170 $171 $75 #
cone-surface $-1 -72.976878898869685 -22.642753546409892 5.6861885875043834 0.85716730853699208 0 -0.51503806187062418 0.77255709280593621 0 1.2857509628054882 1 I I 0 1 1.5 forward I I I I #
face $-1 $172 $173 $59 $-1 $174 reversed single #
loop $-1 $-1 $175 $76 #
plane-surface $-1 -212.14670108116314 -11.647140688282828 81.418665109164579 0 1 0 -0.85716730853699208 0 0.51503806187062418 forward_v I I I I #
face $-1 $176 $177 $60 $-1 $178 forward single #
loop $-1 $179 $180 $77 #
cone-surface $-1 -72.976878898869685 -7.4490295753841309 5.6861885875043834 0.85716730853699208 0 -0.51503806187062418 0.77255709280593621 0 1.2857509628054882 1 I I 0 1 1.5 forward I I I I #
face $-1 $181 $182 $61 $-1 $183 forward single #
loop $-1 $184 $185 $78 #
cone-surface $-1 -72.976878898869685 -1.1518629060360936 5.6861885875043834 0.85716730853699208 0 -0.51503806187062418 0.77255709280593621 0 1.2857509628054882 1 I I 0 1 1.5 forward I I I I #
face $-1 $186 $187 $62 $-1 $188 reversed single #
loop $-1 $-1 $189 $79 #
plane-surface $-1 -212.14670108116314 9.8437499520909775 81.418665109164579 0 1 0 -0.85716730853699208 0 0.51503806187062418 forward_v I I I I #
face $-1 $190 $191 $63 $-1 $192 forward single #
loop $-1 $193 $194 $80 #
cone-surface $-1 -72.976878898869685 14.041861064989668 5.6861885875043834 0.85716730853699208 0 -0.51503806187062418 0.77255709280593621 0 1.2857509628054882 1 I I 0 1 1.5 forward I I I I #
face $-1 $195 $196 $64 $-1 $197 forward single #
loop $-1 $198 $199 $81 #
cone-surface $-1 -72.976878898869685 20.339027734337705 5.6861885875043834 0.85716730853699208 0 -0.51503806187062418 0.77255709280593621 0 1.2857509628054882 1 I I 0 1 1.5 forward I I I I #
face $-1 $200 $201 $65 $-1 $202 reversed single #
loop $-1 $-1 $203 $82 #
plane-surface $-1 -212.14670108116314 31.334640592464783 81.418665109164579 0 1 0 -0.85716730853699208 0 0.51503806187062418 forward_v I I I I #
face $-1 $204 $205 $66 $-1 $206 forward single #
loop $-1 $207 $208 $83 #
cone-surface $-1 -72.976878898869685 35.532751705363466 5.6861885875043834 0.85716730853699208 0 -0.51503806187062418 0.77255709280593621 0 1.2857509628054882 1 I I 0 1 1.5 forward I I I I #
face $-1 $209 $210 $67 $-1 $211 forward single #
loop $-1 $212 $213 $84 #
cone-surface $-1 -72.976878898869685 41.829918374711511 5.6861885875043834 0.85716730853699208 0 -0.51503806187062418 0.77255709280593621 0 1.2857509628054882 1 I I 0 1 1.5 forward I I I I #
face $-1 $214 $215 $51 $-1 $216 reversed single #
loop $-1 $-1 $217 $85 #
plane-surface $-1 0 0 -12.503010430420195 0 0 1 1 0 0 forward_v I I I I #
coedge $-1 $218 $219 $220 $221 forward $86 $-1 #
face $-1 $222 $223 $52 $-1 $224 reversed single #
loop $-1 $-1 $225 $88 #
plane-surface $-1 0 0 -12.503010430420195 0 0 1 1 0 0 forward_v I I I I #
coedge $-1 $226 $227 $228 $229 forward $89 $-1 #
face $-1 $230 $231 $53 $-1 $232 forward single #
loop $-1 $-1 $233 $91 #
plane-surface $-1 -18.079715033516081 42.46556012397501 130.36778612056128 0.78801076186113728 0 0.61566146476048833 0.61566146476048833 0 -0.78801076186113728 forward_v I I I I #
coedge $-1 $234 $235 $236 $237 reversed $92 $-1 #
face $-1 $-1 $238 $54 $-1 $239 forward single #
loop $-1 $240 $241 $94 #
cone-surface $-1 71.203719809695372 39.513189654311262 6.03470580584756 -0.78801076186113728 0 -0.61566146476048833 0.46174609857036625 0 -0.59100807139585299 1 I I -0.70710678118654757 0.70710678118654757 0.75 forward I I I I #
loop $-1 $-1 $242 $71 #
coedge $-1 $152 $152 $243 $244 reversed $95 $-1 #
face $-1 $-1 $245 $55 $-1 $246 forward single #
loop $-1 $247 $248 $97 #
cone-surface $-1 71.203719809695372 45.417930593638772 6.03470580584756 -0.78801076186113728 0 -0.61566146476048833 0.46174609857036625 0 -0.59100807139585299 1 I I -0.70710678118654757 0.70710678118654757 0.75 forward I I I I #
loop $-1 $-1 $249 $72 #
coedge $-1 $157 $157 $250 $251 reversed $98 $-1 #
face $-1 $252 $253 $56 $-1 $254 reversed single #
loop $-1 $-1 $255 $100 #
plane-surface $-1 -78.157902768028805 -25.791336881083911 0.91007558612808737 -0.85716730853699208 0 0.51503806187062418 0.51503806187062418 0 0.85716730853699208 forward_v I I I I #
coedge $-1 $256 $257 $258 $259 reversed $101 $-1 #
face $-1 $-1 $260 $57 $-1 $261 forward single #
loop $-1 $262 $263 $103 #
cone-surface $-1 -70.635848431739433 -28.93992021575793 4.2795556203316618 0.85716730853699208 0 -0.51503806187062418 0.3862785464029681 0 0.64287548140274409 1 I I -0.70710678118654724 0.70710678118654768 0.75 forward I I I I #
loop $-1 $-1 $264 $74 #
coedge $-1 $166 $166 $265 $266 reversed $104 $-1 #
face $-1 $-1 $267 $58 $-1 $268 forward single #
loop $-1 $269 $270 $106 #
cone-surface $-1 -70.635848431739433 -22.642753546409892 4.2795556203316618 0.85716730853699208 0 -0.51503806187062418 0.3862785464029681 0 0.64287548140274409 1 I I -0.70710678118654724 0.70710678118654768 0.75 forward I I I I #
loop $-1 $-1 $271 $75 #
coedge $-1 $171 $171 $272 $273 reversed $107 $-1 #
face $-1 $274 $275 $59 $-1 $276 reversed single #
loop $-1 $-1 $277 $109 #
plane-surface $-1 -78.157902768028805 -4.3004462407101158 0.91007558612808737 -0.85716730853699208 0 0.51503806187062418 0.51503806187062418 0 0.85716730853699208 forward_v I I I I #
coedge $-1 $278 $279 $280 $281 reversed $110 $-1 #
face $-1 $-1 $282 $60 $-1 $283 forward single #
loop $-1 $284 $285 $112 #
cone-surface $-1 -70.635848431739433 -7.4490295753841309 4.2795556203316618 0.85716730853699208 0 -0.51503806187062418 0.3862785464029681 0 0.64287548140274409 1 I I -0.70710678118654724 0.70710678118654768 0.75 forward I I I I #
loop $-1 $-1 $286 $77 #
coedge $-1 $180 $180 $287 $288 reversed $113 $-1 #
face $-1 $-1 $289 $61 $-1 $290 forward single #
loop $-1 $291 $292 $115 #
cone-surface $-1 -70.635848431739433 -1.1518629060360936 4.2795556203316618 0.85716730853699208 0 -0.51503806187062418 0.3862785464029681 0 0.64287548140274409 1 I I -0.70710678118654724 0.70710678118654768 0.75 forward I I I I #
loop $-1 $-1 $293 $78 #
coedge $-1 $185 $185 $294 $295 reversed $116 $-1 #
face $-1 $296 $297 $62 $-1 $298 reversed single #
loop $-1 $-1 $299 $118 #
plane-surface $-1 -78.157902768028805 17.19044439966369 0.91007558612808737 -0.85716730853699208 0 0.51503806187062418 0.51503806187062418 0 0.85716730853699208 forward_v I I I I #
coedge $-1 $300 $301 $302 $303 reversed $119 $-1 #
face $-1 $-1 $304 $63 $-1 $305 forward single #
loop $-1 $306 $307 $121 #
cone-surface $-1 -70.635848431739433 14.041861064989668 4.2795556203316618 0.85716730853699208 0 -0.51503806187062418 0.3862785464029681 0 0.64287548140274409 1 I I -0.70710678118654724 0.70710678118654768 0.75 forward I I I I #
loop $-1 $-1 $308 $80 #
coedge $-1 $194 $194 $309 $310 reversed $122 $-1 #
face $-1 $-1 $311 $64 $-1 $312 forward single #
loop $-1 $313 $314 $124 #
cone-surface $-1 -70.635848431739433 20.339027734337705 4.2795556203316618 0.85716730853699208 0 -0.51503806187062418 0.3862785464029681 0 0.64287548140274409 1 I I -0.70710678118654724 0.70710678118654768 0.75 forward I I I I #
loop $-1 $-1 $315 $81 #
coedge $-1 $199 $199 $316 $317 reversed $125 $-1 #
face $-1 $318 $319 $65 $-1 $320 reversed single #
loop $-1 $-1 $321 $127 #
plane-surface $-1 -78.157902768028805 38.681335040037496 0.91007558612808737 -0.85716730853699208 0 0.51503806187062418 0.51503806187062418 0 0.85716730853699208 forward_v I I I I #
coedge $-1 $322 $323 $324 $325 reversed $128 $-1 #
face $-1 $-1 $326 $66 $-1 $327 forward single #
loop $-1 $328 $329 $130 #
cone-surface $-1 -70.635848431739433 35.532751705363466 4.2795556203316618 0.85716730853699208 0 -0.51503806187062418 0.3862785464029681 0 0.64287548140274409 1 I I -0.70710678118654724 0.70710678118654768 0.75 forward I I I I #
loop $-1 $-1 $330 $83 #
coedge $-1 $208 $208 $331 $332 reversed $131 $-1 #
face $-1 $-1 $333 $67 $-1 $334 forward single #
loop $-1 $335 $336 $133 #
cone-surface $-1 -70.635848431739433 41.829918374711511 4.2795556203316618 0.85716730853699208 0 -0.51503806187062418 0.3862785464029681 0 0.64287548140274409 1 I I -0.70710678118654724 0.70710678118654768 0.75 forward I I I I #
loop $-1 $-1 $337 $84 #
coedge $-1 $213 $213 $338 $339 reversed $134 $-1 #
face $-1 $340 $341 $51 $-1 $342 reversed single #
loop $-1 $-1 $343 $136 #
plane-surface $-1 0 -49.354424553190441 0 0 1 0 0 0 1 forward_v I I I I #
coedge $-1 $344 $345 $346 $347 forward $137 $-1 #
coedge $-1 $348 $139 $349 $350 forward $86 $-1 #
coedge $-1 $139 $348 $351 $352 forward $86 $-1 #
coedge $-1 $353 $354 $139 $221 reversed $355 $-1 #
edge $-1 $356 -49.354424553190441 $357 49.354424553190441 $220 $358 forward 7 unknown #
face $-1 $359 $360 $52 $-1 $361 forward single #
loop $-1 $-1 $362 $140 #
plane-surface $-1 78.157902768028805 0 0 -1 0 0 0 0 1 forward_v I I I I #
coedge $-1 $363 $364 $365 $366 forward $141 $-1 #
coedge $-1 $365 $143 $362 $367 reversed $89 $-1 #
coedge $-1 $143 $365 $368 $369 reversed $89 $-1 #
coedge $-1 $370 $371 $143 $229 reversed $360 $-1 #
edge $-1 $372 -78.157902768028805 $373 78.157902768028805 $228 $374 forward 7 unknown #
face $-1 $375 $376 $53 $-1 $377 reversed single #
loop $-1 $-1 $378 $144 #
plane-surface $-1 0 0 12.503010430420195 0 0 1 1 0 0 forward_v I I I I #
coedge $-1 $379 $380 $381 $382 reversed $145 $-1 #
coedge $-1 $235 $147 $383 $384 reversed $92 $-1 #
coedge $-1 $147 $234 $379 $385 reversed $92 $-1 #
coedge $-1 $381 $386 $147 $237 forward $387 $-1 #
edge $-1 $388 100.79969153063288 $389 106.11345285189793 $236 $390 forward 7 unknown #
loop $-1 $-1 $243 $148 #
plane-surface $-1 -18.079715033516081 42.46556012397501 130.36778612056128 0.78801076186113728 0 0.61566146476048833 0.61566146476048833 0 -0.78801076186113728 forward_v I I I I #
loop $-1 $-1 $391 $94 #
coedge $-1 $241 $241 $242 $392 reversed $149 $-1 #
coedge $-1 $242 $242 $241 $392 forward $151 $-1 #
coedge $-1 $243 $243 $152 $244 forward $238 $-1 #
edge $-1 $393 0 $393 6.2831853071796004 $243 $394 forward 7 unknown #
loop $-1 $-1 $250 $153 #
plane-surface $-1 -18.079715033516081 42.46556012397501 130.36778612056128 0.78801076186113728 0 0.61566146476048833 0.61566146476048833 0 -0.78801076186113728 forward_v I I I I #
loop $-1 $-1 $395 $97 #
coedge $-1 $248 $248 $249 $396 reversed $154 $-1 #
coedge $-1 $249 $249 $248 $396 forward $156 $-1 #
coedge $-1 $250 $250 $157 $251 forward $245 $-1 #
edge $-1 $397 0 $397 6.2831853071796004 $250 $398 forward 7 unknown #
face $-1 $399 $400 $56 $-1 $401 reversed single #
loop $-1 $-1 $402 $158 #
plane-surface $-1 -212.14670108116314 -18.444642433511198 81.418665109164579 0 -1 0 0.85716730853699208 0 -0.51503806187062418 forward_v I I I I #
coedge $-1 $403 $404 $405 $406 reversed $159 $-1 #
coedge $-1 $257 $161 $407 $408 reversed $101 $-1 #
coedge $-1 $161 $256 $403 $409 reversed $101 $-1 #
coedge $-1 $405 $410 $161 $259 forward $411 $-1 #
edge $-1 $412 27.915447772552767 $413 34.881185539415995 $258 $414 forward 7 unknown #
loop $-1 $-1 $265 $162 #
plane-surface $-1 -78.157902768028805 -25.791336881083911 0.91007558612808737 -0.85716730853699208 0 0.51503806187062418 0.51503806187062418 0 0.85716730853699208 forward_v I I I I #
loop $-1 $-1 $415 $103 #
coedge $-1 $263 $263 $264 $416 reversed $163 $-1 #
coedge $-1 $264 $264 $263 $416 forward $165 $-1 #
coedge $-1 $265 $265 $166 $266 forward $260 $-1 #
edge $-1 $417 0 $417 6.2831853071796004 $265 $418 forward 7 unknown #
loop $-1 $-1 $272 $167 #
plane-surface $-1 -78.157902768028805 -25.791336881083911 0.91007558612808737 -0.85716730853699208 0 0.51503806187062418 0.51503806187062418 0 0.85716730853699208 forward_v I I I I #
loop $-1 $-1 $419 $106 #
coedge $-1 $270 $270 $271 $420 reversed $168 $-1 #
coedge $-1 $271 $271 $270 $420 forward $170 $-1 #
coedge $-1 $272 $272 $171 $273 forward $267 $-1 #
edge $-1 $421 0 $421 6.2831853071796004 $272 $422 forward 7 unknown #
face $-1 $423 $424 $59 $-1 $425 forward single #
loop $-1 $-1 $426 $172 #
plane-surface $-1 -212.14670108116314 3.0462482068625967 81.418665109164579 0 -1 0 0.85716730853699208 0 -0.51503806187062418 forward_v I I I I #
coedge $-1 $427 $428 $429 $430 reversed $173 $-1 #
coedge $-1 $279 $175 $431 $432 reversed $110 $-1 #
coedge $-1 $175 $278 $427 $433 reversed $110 $-1 #
coedge $-1 $429 $434 $175 $281 forward $424 $-1 #
edge $-1 $435 27.915447772552767 $436 34.881185539415995 $280 $437 forward 7 unknown #
loop $-1 $-1 $287 $176 #
plane-surface $-1 -78.157902768028805 -4.3004462407101158 0.91007558612808737 -0.85716730853699208 0 0.51503806187062418 0.51503806187062418 0 0.85716730853699208 forward_v I I I I #
loop $-1 $-1 $438 $112 #
coedge $-1 $285 $285 $286 $439 reversed $177 $-1 #
coedge $-1 $286 $286 $285 $439 forward $179 $-1 #
coedge $-1 $287 $287 $180 $288 forward $282 $-1 #
edge $-1 $440 0 $440 6.2831853071796004 $287 $441 forward 7 unknown #
loop $-1 $-1 $294 $181 #
plane-surface $-1 -78.157902768028805 -4.3004462407101158 0.91007558612808737 -0.85716730853699208 0 0.51503806187062418 0.51503806187062418 0 0.85716730853699208 forward_v I I I I #
loop $-1 $-1 $442 $115 #
coedge $-1 $292 $292 $293 $443 reversed $182 $-1 #
coedge $-1 $293 $293 $292 $443 forward $184 $-1 #
coedge $-1 $294 $294 $185 $295 forward $289 $-1 #
edge $-1 $444 0 $444 6.2831853071796004 $294 $445 forward 7 unknown #
face $-1 $446 $447 $62 $-1 $448 forward single #
loop $-1 $-1 $449 $186 #
plane-surface $-1 -212.14670108116314 24.537138847236402 81.418665109164579 0 -1 0 0.85716730853699208 0 -0.51503806187062418 forward_v I I I I #
coedge $-1 $450 $451 $452 $453 reversed $187 $-1 #
coedge $-1 $301 $189 $454 $455 reversed $119 $-1 #
coedge $-1 $189 $300 $450 $456 reversed $119 $-1 #
coedge $-1 $452 $457 $189 $303 forward $447 $-1 #
edge $-1 $458 27.915447772552767 $459 34.881185539415995 $302 $460 forward 7 unknown #
loop $-1 $-1 $309 $190 #
plane-surface $-1 -78.157902768028805 17.19044439966369 0.91007558612808737 -0.85716730853699208 0 0.51503806187062418 0.51503806187062418 0 0.85716730853699208 forward_v I I I I #
loop $-1 $-1 $461 $121 #
coedge $-1 $307 $307 $308 $462 reversed $191 $-1 #
coedge $-1 $308 $308 $307 $462 forward $193 $-1 #
coedge $-1 $309 $309 $194 $310 forward $304 $-1 #
edge $-1 $463 0 $463 6.2831853071796004 $309 $464 forward 7 unknown #
loop $-1 $-1 $316 $195 #
plane-surface $-1 -78.157902768028805 17.19044439966369 0.91007558612808737 -0.85716730853699208 0 0.51503806187062418 0.51503806187062418 0 0.85716730853699208 forward_v I I I I #
loop $-1 $-1 $465 $124 #
coedge $-1 $314 $314 $315 $466 reversed $196 $-1 #
coedge $-1 $315 $315 $314 $466 forward $198 $-1 #
coedge $-1 $316 $316 $199 $317 forward $311 $-1 #
edge $-1 $467 0 $467 6.2831853071796004 $316 $468 forward 7 unknown #
face $-1 $469 $470 $65 $-1 $471 forward single #
loop $-1 $-1 $472 $200 #
plane-surface $-1 -212.14670108116314 46.028029487610212 81.418665109164579 0 -1 0 0.85716730853699208 0 -0.51503806187062418 forward_v I I I I #
coedge $-1 $473 $474 $475 $476 reversed $201 $-1 #
coedge $-1 $323 $203 $477 $478 reversed $128 $-1 #
coedge $-1 $203 $322 $473 $479 reversed $128 $-1 #
coedge $-1 $475 $480 $203 $325 forward $470 $-1 #
edge $-1 $481 27.915447772552767 $482 34.881185539415995 $324 $483 forward 7 unknown #
loop $-1 $-1 $331 $204 #
plane-surface $-1 -78.157902768028805 38.681335040037496 0.91007558612808737 -0.85716730853699208 0 0.51503806187062418 0.51503806187062418 0 0.85716730853699208 forward_v I I I I #
loop $-1 $-1 $484 $130 #
coedge $-1 $329 $329 $330 $485 reversed $205 $-1 #
coedge $-1 $330 $330 $329 $485 forward $207 $-1 #
coedge $-1 $331 $331 $208 $332 forward $326 $-1 #
edge $-1 $486 0 $486 6.2831853071796004 $331 $487 forward 7 unknown #
loop $-1 $-1 $338 $209 #
plane-surface $-1 -78.157902768028805 38.681335040037496 0.91007558612808737 -0.85716730853699208 0 0.51503806187062418 0.51503806187062418 0 0.85716730853699208 forward_v I I I I #
loop $-1 $-1 $488 $133 #
coedge $-1 $336 $336 $337 $489 reversed $210 $-1 #
coedge $-1 $337 $337 $336 $489 forward $212 $-1 #
coedge $-1 $338 $338 $213 $339 forward $333 $-1 #
edge $-1 $490 0 $490 6.2831853071796004 $338 $491 forward 7 unknown #
face $-1 $492 $493 $51 $-1 $494 reversed single #
loop $-1 $-1 $495 $214 #
plane-surface $-1 -78.157902768028805 0 0 1 0 0 0 0 -1 forward_v I I I I #
coedge $-1 $351 $496 $353 $497 reversed $215 $-1 #
coedge $-1 $498 $217 $496 $499 forward $137 $-1 #
coedge $-1 $217 $498 $500 $501 forward $137 $-1 #
coedge $-1 $354 $353 $217 $347 reversed $355 $-1 #
edge $-1 $502 -49.354424553190441 $503 49.354424553190441 $346 $504 forward 7 unknown #
coedge $-1 $219 $218 $505 $506 forward $86 $-1 #
coedge $-1 $507 $508 $218 $350 reversed $493 $-1 #
edge $-1 $357 -78.157902768028805 $509 78.157902768028805 $349 $510 forward 7 unknown #
coedge $-1 $511 $343 $219 $352 reversed $215 $-1 #
edge $-1 $512 -78.157902768028805 $356 78.157902768028805 $351 $513 forward 7 unknown #
coedge $-1 $346 $220 $343 $497 forward $355 $-1 #
coedge $-1 $220 $346 $507 $514 reversed $355 $-1 #
loop $-1 $-1 $353 $492 #
vertex $-1 $221 $515 #
vertex $-1 $221 $516 #
straight-curve $-1 78.157902768028805 0 12.503010430420195 0 1 0 I I #
face $-1 $517 $518 $52 $-1 $519 reversed single #
loop $-1 $-1 $371 $222 #
plane-surface $-1 0 -55.727067825633284 -9.5030104304201952 0 0 1 1 0 0 forward_v I I I I #
coedge $-1 $520 $521 $226 $367 forward $223 $-1 #
coedge $-1 $522 $225 $521 $523 forward $141 $-1 #
coedge $-1 $225 $522 $524 $525 forward $141 $-1 #
coedge $-1 $227 $226 $225 $366 reversed $89 $-1 #
edge $-1 $526 -78.157902768028805 $527 78.157902768028805 $225 $528 forward 7 unknown #
edge $-1 $527 -12.503010430420195 $373 -9.5030104304201952 $362 $529 forward 7 unknown #
coedge $-1 $524 $530 $227 $369 forward $531 $-1 #
edge $-1 $372 9.5030104304201952 $526 12.503010430420195 $368 $532 forward 7 unknown #
coedge $-1 $533 $228 $530 $534 forward $360 $-1 #
coedge $-1 $228 $533 $520 $535 forward $360 $-1 #
vertex $-1 $369 $536 #
vertex $-1 $535 $537 #
straight-curve $-1 0 -49.354424553190441 -9.5030104304201952 1 0 0 I I #
face $-1 $-1 $387 $53 $-1 $538 reversed single #
loop $-1 $-1 $539 $230 #
plane-surface $-1 0 49.354424553190441 0 0 -1 0 0 0 -1 forward_v I I I I #
coedge $-1 $383 $540 $541 $542 forward $231 $-1 #
coedge $-1 $541 $233 $235 $385 forward $145 $-1 #
coedge $-1 $233 $541 $539 $543 reversed $145 $-1 #
coedge $-1 $544 $236 $233 $382 forward $387 $-1 #
edge $-1 $389 14.343915632772074 $545 28.121644491202936 $381 $546 forward 7 unknown #
coedge $-1 $547 $378 $234 $384 forward $231 $-1 #
edge $-1 $548 21.456926550823383 $388 25.608491779083778 $383 $549 forward 7 unknown #
edge $-1 $389 -156.31580553605761 $548 -149.57254569945979 $235 $550 forward 7 unknown #
coedge $-1 $236 $544 $547 $551 reversed $387 $-1 #
loop $-1 $-1 $381 $375 #
vertex $-1 $551 $552 #
vertex $-1 $237 $553 #
straight-curve $-1 78.157902768028805 35.576695694759579 113.30270196105307 0 0 -1 I I #
coedge $-1 $391 $391 $-1 $554 reversed $240 $-1 #
edge $-1 $555 0 $555 6.2831853071796004 $241 $556 forward 7 unknown #
vertex $-1 $244 $557 #
ellipse-curve $-1 76.082120153898614 39.513189654311262 9.8461297697876642 0.78801076186113728 0 0.61566146476048833 0.9234921971407325 0 -1.182016142791706 1 I I #
coedge $-1 $395 $395 $-1 $558 reversed $247 $-1 #
edge $-1 $559 0 $559 6.2831853071796004 $248 $560 forward 7 unknown #
vertex $-1 $251 $561 #
ellipse-curve $-1 76.082120153898614 45.417930593638772 9.8461297697876642 0.78801076186113728 0 0.61566146476048833 0.9234921971407325 0 -1.182016142791706 1 I I #
face $-1 $-1 $411 $56 $-1 $562 forward single #
loop $-1 $-1 $563 $252 #
plane-surface $-1 -78.157902768028805 0 0 1 0 0 0 0 -1 forward_v I I I I #
coedge $-1 $564 $565 $566 $567 reversed $253 $-1 #
coedge $-1 $568 $255 $257 $409 forward $159 $-1 #
coedge $-1 $255 $568 $564 $569 forward $159 $-1 #
coedge $-1 $566 $258 $255 $406 forward $411 $-1 #
edge $-1 $413 -20.24236288811467 $570 -5.548973992969243 $405 $571 forward 7 unknown #
coedge $-1 $572 $573 $256 $408 forward $400 $-1 #
edge $-1 $574 -39.799256968454202 $412 -28.206322124162092 $407 $575 forward 7 unknown #
edge $-1 $413 -13.52470483747083 $574 0 $257 $576 forward 7 unknown #
coedge $-1 $258 $566 $572 $577 forward $411 $-1 #
loop $-1 $-1 $566 $399 #
vertex $-1 $408 $578 #
vertex $-1 $259 $579 #
straight-curve $-1 -106.07335054058157 -33.138031328656623 12.503010430420197 1 0 0 I I #
coedge $-1 $415 $415 $-1 $580 reversed $262 $-1 #
edge $-1 $581 0 $581 6.2831853071796004 $263 $582 forward 7 unknown #
vertex $-1 $266 $583 #
ellipse-curve $-1 -74.675033884597198 -28.93992021575793 6.7065430082741377 -0.85716730853699208 0 0.51503806187062418 0.77255709280593621 0 1.2857509628054882 1 I I #
coedge $-1 $419 $419 $-1 $584 reversed $269 $-1 #
edge $-1 $585 0 $585 6.2831853071796004 $270 $586 forward 7 unknown #
vertex $-1 $273 $587 #
ellipse-curve $-1 -74.675033884597198 -22.642753546409892 6.7065430082741377 -0.85716730853699208 0 0.51503806187062418 0.77255709280593621 0 1.2857509628054882 1 I I #
face $-1 $-1 $588 $59 $-1 $589 reversed single #
loop $-1 $-1 $280 $274 #
plane-surface $-1 0 0 12.503010430420195 0 0 1 1 0 0 forward_v I I I I #
coedge $-1 $590 $591 $592 $593 reversed $275 $-1 #
coedge $-1 $594 $277 $279 $433 forward $173 $-1 #
coedge $-1 $277 $594 $590 $595 forward $173 $-1 #
coedge $-1 $592 $280 $277 $430 forward $424 $-1 #
edge $-1 $436 -9.4969175679277704 $596 5.1964713272176546 $429 $597 forward 7 unknown #
coedge $-1 $598 $599 $278 $432 forward $588 $-1 #
edge $-1 $600 -39.799256968454202 $435 -28.206322124162092 $431 $601 forward 7 unknown #
edge $-1 $436 -13.52470483747083 $600 0 $279 $602 forward 7 unknown #
coedge $-1 $280 $592 $598 $603 forward $424 $-1 #
vertex $-1 $432 $604 #
vertex $-1 $281 $605 #
straight-curve $-1 -106.07335054058157 -11.647140688282828 12.503010430420197 1 0 0 I I #
coedge $-1 $438 $438 $-1 $606 reversed $284 $-1 #
edge $-1 $607 0 $607 6.2831853071796004 $285 $608 forward 7 unknown #
vertex $-1 $288 $609 #
ellipse-curve $-1 -74.675033884597198 -7.4490295753841309 6.7065430082741377 -0.85716730853699208 0 0.51503806187062418 0.77255709280593621 0 1.2857509628054882 1 I I #
coedge $-1 $442 $442 $-1 $610 reversed $291 $-1 #
edge $-1 $611 0 $611 6.2831853071796004 $292 $612 forward 7 unknown #
vertex $-1 $295 $613 #
ellipse-curve $-1 -74.675033884597198 -1.1518629060360936 6.7065430082741377 -0.85716730853699208 0 0.51503806187062418 0.77255709280593621 0 1.2857509628054882 1 I I #
face $-1 $-1 $614 $62 $-1 $615 reversed single #
loop $-1 $-1 $302 $296 #
plane-surface $-1 0 0 12.503010430420195 0 0 1 1 0 0 forward_v I I I I #
coedge $-1 $616 $617 $618 $619 reversed $297 $-1 #
coedge $-1 $620 $299 $301 $456 forward $187 $-1 #
coedge $-1 $299 $620 $616 $621 forward $187 $-1 #
coedge $-1 $618 $302 $299 $453 forward $447 $-1 #
edge $-1 $459 1.2485277522591325 $622 15.941916647404557 $452 $623 forward 7 unknown #
coedge $-1 $624 $625 $300 $455 forward $614 $-1 #
edge $-1 $626 -39.799256968454202 $458 -28.206322124162092 $454 $627 forward 7 unknown #
edge $-1 $459 -13.52470483747083 $626 0 $301 $628 forward 7 unknown #
coedge $-1 $302 $618 $624 $629 forward $447 $-1 #
vertex $-1 $303 $630 #
vertex $-1 $303 $631 #
straight-curve $-1 -106.07335054058157 9.8437499520909775 12.503010430420197 1 0 0 I I #
coedge $-1 $461 $461 $-1 $632 reversed $306 $-1 #
edge $-1 $633 0 $633 6.2831853071796004 $307 $634 forward 7 unknown #
vertex $-1 $310 $635 #
ellipse-curve $-1 -74.675033884597198 14.041861064989668 6.7065430082741377 -0.85716730853699208 0 0.51503806187062418 0.77255709280593621 0 1.2857509628054882 1 I I #
coedge $-1 $465 $465 $-1 $636 reversed $313 $-1 #
edge $-1 $637 0 $637 6.2831853071796004 $314 $638 forward 7 unknown #
vertex $-1 $317 $639 #
ellipse-curve $-1 -74.675033884597198 20.339027734337705 6.7065430082741377 -0.85716730853699208 0 0.51503806187062418 0.77255709280593621 0 1.2857509628054882 1 I I #
face $-1 $-1 $640 $65 $-1 $641 reversed single #
loop $-1 $-1 $324 $318 #
plane-surface $-1 0 0 12.503010430420195 0 0 1 1 0 0 forward_v I I I I #
coedge $-1 $642 $643 $644 $645 reversed $319 $-1 #
coedge $-1 $646 $321 $323 $479 forward $201 $-1 #
coedge $-1 $321 $646 $642 $647 forward $201 $-1 #
coedge $-1 $644 $324 $321 $476 forward $470 $-1 #
edge $-1 $482 11.993973072446035 $648 26.687361967591464 $475 $649 forward 7 unknown #
coedge $-1 $650 $651 $322 $478 forward $640 $-1 #
edge $-1 $652 -39.799256968454202 $481 -28.206322124162092 $477 $653 forward 7 unknown #
edge $-1 $482 -13.52470483747083 $652 0 $323 $654 forward 7 unknown #
coedge $-1 $324 $644 $650 $655 forward $470 $-1 #
vertex $-1 $325 $656 #
vertex $-1 $325 $657 #
straight-curve $-1 -106.07335054058157 31.334640592464783 12.503010430420197 1 0 0 I I #
coedge $-1 $484 $484 $-1 $658 reversed $328 $-1 #
edge $-1 $659 0 $659 6.2831853071796004 $329 $660 forward 7 unknown #
vertex $-1 $332 $661 #
ellipse-curve $-1 -74.675033884597198 35.532751705363466 6.7065430082741377 -0.85716730853699208 0 0.51503806187062418 0.77255709280593621 0 1.2857509628054882 1 I I #
coedge $-1 $488 $488 $-1 $662 reversed $335 $-1 #
edge $-1 $663 0 $663 6.2831853071796004 $336 $664 forward 7 unknown #
vertex $-1 $339 $665 #
ellipse-curve $-1 -74.675033884597198 41.829918374711511 6.7065430082741377 -0.85716730853699208 0 0.51503806187062418 0.77255709280593621 0 1.2857509628054882 1 I I #
face $-1 $-1 $355 $51 $-1 $666 reversed single #
loop $-1 $-1 $507 $340 #
plane-surface $-1 0 49.354424553190441 0 0 -1 0 0 0 -1 forward_v I I I I #
coedge $-1 $667 $505 $508 $668 forward $341 $-1 #
coedge $-1 $343 $511 $344 $499 reversed $215 $-1 #
edge $-1 $356 -12.503010430420195 $503 12.503010430420195 $353 $669 forward 7 unknown #
coedge $-1 $345 $344 $667 $670 forward $137 $-1 #
edge $-1 $503 -78.157902768028805 $671 78.157902768028805 $496 $672 forward 7 unknown #
coedge $-1 $508 $507 $345 $501 reversed $493 $-1 #
edge $-1 $673 -78.157902768028805 $502 78.157902768028805 $500 $674 forward 7 unknown #
vertex $-1 $347 $675 #
vertex $-1 $497 $676 #
straight-curve $-1 78.157902768028805 0 -12.503010430420195 0 -1 0 I I #
coedge $-1 $495 $677 $348 $506 reversed $341 $-1 #
edge $-1 $509 -49.354424553190441 $512 49.354424553190441 $505 $678 forward 7 unknown #
coedge $-1 $500 $349 $354 $514 forward $493 $-1 #
coedge $-1 $349 $500 $495 $668 reversed $493 $-1 #
vertex $-1 $350 $679 #
straight-curve $-1 0 49.354424553190441 12.503010430420195 -1 0 0 I I #
coedge $-1 $496 $351 $677 $680 forward $215 $-1 #
vertex $-1 $506 $681 #
straight-curve $-1 0 -49.354424553190441 12.503010430420195 1 0 0 I I #
edge $-1 $357 -12.503010430420195 $502 12.503010430420195 $354 $682 forward 7 unknown #
point $-1 78.157902768028805 -49.354424553190441 12.503010430420195 #
point $-1 78.157902768028805 49.354424553190441 12.503010430420195 #
face $-1 $-1 $531 $52 $-1 $683 reversed single #
loop $-1 $-1 $684 $359 #
plane-surface $-1 0 -62.099711098076128 -11.003010430420195 0 1 0 0 0 1 forward_v I I I I #
coedge $-1 $685 $362 $371 $535 reversed $223 $-1 #
coedge $-1 $362 $685 $363 $523 reversed $223 $-1 #
coedge $-1 $364 $363 $686 $687 forward $141 $-1 #
edge $-1 $527 49.354424553190441 $688 62.099711098076128 $521 $689 forward 7 unknown #
coedge $-1 $690 $368 $364 $525 reversed $531 $-1 #
edge $-1 $691 -62.099711098076128 $526 -49.354424553190441 $524 $692 forward 7 unknown #
vertex $-1 $369 $693 #
vertex $-1 $523 $694 #
straight-curve $-1 0 -49.354424553190441 -12.503010430420195 1 0 0 I I #
straight-curve $-1 78.157902768028805 -49.354424553190441 0 0 0 1 I I #
coedge $-1 $368 $690 $370 $534 reversed $531 $-1 #
loop $-1 $-1 $368 $517 #
straight-curve $-1 -78.157902768028805 -49.354424553190441 0 0 0 -1 I I #
coedge $-1 $371 $370 $695 $696 forward $360 $-1 #
edge $-1 $372 -6.3726432724428435 $697 6.3726432724428435 $530 $698 forward 7 unknown #
edge $-1 $699 -6.3726432724428435 $373 6.3726432724428435 $520 $700 forward 7 unknown #
point $-1 -78.157902768028805 -49.354424553190441 -9.5030104304201952 #
point $-1 78.157902768028805 -49.354424553190441 -9.5030104304201952 #
plane-surface $-1 78.157902768028805 0 0 -1 0 0 0 0 1 forward_v I I I I #
coedge $-1 $701 $702 $380 $543 forward $376 $-1 #
coedge $-1 $378 $547 $701 $703 forward $231 $-1 #
coedge $-1 $380 $379 $378 $542 reversed $145 $-1 #
edge $-1 $704 -28.121644491202936 $548 -14.343915632772074 $378 $705 forward 7 unknown #
edge $-1 $545 -99.384704384557608 $704 -92.641444547959779 $539 $706 forward 7 unknown #
coedge $-1 $386 $381 $702 $707 reversed $387 $-1 #
vertex $-1 $382 $708 #
straight-curve $-1 78.157902768028805 21.232780061987505 7.1892491091551278 0 1 0 I I #
coedge $-1 $540 $383 $386 $551 forward $231 $-1 #
vertex $-1 $384 $709 #
straight-curve $-1 52.549410988945027 35.576695694759579 12.50301043042019 1 0 0 I I #
straight-curve $-1 -18.079715033516081 35.576695694759579 130.36778612056128 -0.61566146476048833 0 0.78801076186113728 I I #
edge $-1 $388 35.576695694759579 $710 49.354424553190441 $386 $711 forward 7 unknown #
point $-1 78.157902768028805 35.576695694759579 12.503010430420195 #
point $-1 78.157902768028805 35.576695694759579 7.189249109155142 #
edge $-1 $712 1 $712 0 $391 $-1 forward 7 unknown #
vertex $-1 $392 $713 #
ellipse-curve $-1 71.79472788109122 39.513189654311262 6.4964519044179259 0.78801076186113728 0 0.61566146476048833 0.9234921971407325 0 -1.182016142791706 1 I I #
point $-1 77.005612351039346 39.513189654311262 8.6641136269959613 #
edge $-1 $714 1 $714 0 $395 $-1 forward 7 unknown #
vertex $-1 $396 $715 #
ellipse-curve $-1 71.79472788109122 45.417930593638772 6.4964519044179259 0.78801076186113728 0 0.61566146476048833 0.9234921971407325 0 -1.182016142791706 1 I I #
point $-1 77.005612351039346 45.417930593638772 8.6641136269959613 #
plane-surface $-1 0 0 12.503010430420195 0 0 1 1 0 0 forward_v I I I I #
coedge $-1 $573 $572 $565 $716 forward $400 $-1 #
coedge $-1 $565 $402 $404 $569 reversed $253 $-1 #
coedge $-1 $402 $564 $563 $716 reversed $253 $-1 #
coedge $-1 $410 $405 $402 $567 forward $411 $-1 #
edge $-1 $570 -34.881185539415995 $717 -27.915447772552767 $566 $718 forward 7 unknown #
coedge $-1 $404 $403 $573 $719 reversed $159 $-1 #
edge $-1 $720 0 $570 13.52470483747083 $564 $721 forward 7 unknown #
vertex $-1 $406 $722 #
straight-curve $-1 -71.192165001165563 -12.895668440541955 12.503010430420195 0 1 0 I I #
coedge $-1 $563 $407 $410 $577 reversed $400 $-1 #
coedge $-1 $407 $563 $568 $719 forward $400 $-1 #
vertex $-1 $408 $723 #
straight-curve $-1 -78.157902768028805 -33.138031328656623 40.709332554582289 0 0 1 I I #
straight-curve $-1 -78.157902768028805 -33.138031328656623 0.91007558612808737 -0.51503806187062418 0 -0.85716730853699208 I I #
edge $-1 $717 18.444642433511198 $412 33.138031328656623 $572 $724 forward 7 unknown #
point $-1 -78.157902768028805 -33.138031328656623 12.503010430420195 #
point $-1 -71.192165001165577 -33.138031328656623 12.503010430420195 #
edge $-1 $725 1 $725 0 $415 $-1 forward 7 unknown #
vertex $-1 $416 $726 #
ellipse-curve $-1 -71.278723913142173 -28.93992021575793 4.6658341667346299 -0.85716730853699208 0 0.51503806187062418 0.77255709280593621 0 1.2857509628054882 1 I I #
point $-1 -73.902476791791244 -28.93992021575793 7.9922939710796248 #
edge $-1 $727 1 $727 0 $419 $-1 forward 7 unknown #
vertex $-1 $420 $728 #
ellipse-curve $-1 -71.278723913142173 -22.642753546409892 4.6658341667346299 -0.85716730853699208 0 0.51503806187062418 0.77255709280593621 0 1.2857509628054882 1 I I #
point $-1 -73.902476791791244 -22.642753546409892 7.9922939710796248 #
loop $-1 $-1 $431 $423 #
plane-surface $-1 -78.157902768028805 0 0 1 0 0 0 0 -1 forward_v I I I I #
coedge $-1 $591 $426 $428 $595 reversed $275 $-1 #
coedge $-1 $426 $590 $729 $730 reversed $275 $-1 #
coedge $-1 $434 $429 $426 $593 forward $424 $-1 #
edge $-1 $596 -34.881185539415995 $731 -27.915447772552767 $592 $732 forward 7 unknown #
coedge $-1 $428 $427 $599 $733 reversed $173 $-1 #
edge $-1 $734 0 $596 13.52470483747083 $590 $735 forward 7 unknown #
vertex $-1 $430 $736 #
straight-curve $-1 -71.192165001165563 -2.1502231203550579 12.503010430420195 0 1 0 I I #
coedge $-1 $729 $431 $434 $603 reversed $588 $-1 #
coedge $-1 $431 $729 $594 $733 forward $588 $-1 #
vertex $-1 $432 $737 #
straight-curve $-1 -78.157902768028805 -11.647140688282828 40.709332554582289 0 0 1 I I #
straight-curve $-1 -78.157902768028805 -11.647140688282828 0.91007558612808737 -0.51503806187062418 0 -0.85716730853699208 I I #
edge $-1 $731 -3.0462482068625967 $435 11.647140688282828 $598 $738 forward 7 unknown #
point $-1 -78.157902768028805 -11.647140688282828 12.503010430420195 #
point $-1 -71.192165001165577 -11.647140688282828 12.503010430420195 #
edge $-1 $739 1 $739 0 $438 $-1 forward 7 unknown #
vertex $-1 $439 $740 #
ellipse-curve $-1 -71.278723913142173 -7.4490295753841309 4.6658341667346299 -0.85716730853699208 0 0.51503806187062418 0.77255709280593621 0 1.2857509628054882 1 I I #
point $-1 -73.902476791791244 -7.4490295753841309 7.9922939710796248 #
edge $-1 $741 1 $741 0 $442 $-1 forward 7 unknown #
vertex $-1 $443 $742 #
ellipse-curve $-1 -71.278723913142173 -1.1518629060360936 4.6658341667346299 -0.85716730853699208 0 0.51503806187062418 0.77255709280593621 0 1.2857509628054882 1 I I #
point $-1 -73.902476791791244 -1.1518629060360936 7.9922939710796248 #
loop $-1 $-1 $454 $446 #
plane-surface $-1 -78.157902768028805 0 0 1 0 0 0 0 -1 forward_v I I I I #
coedge $-1 $617 $449 $451 $621 reversed $297 $-1 #
coedge $-1 $449 $616 $743 $744 reversed $297 $-1 #
coedge $-1 $457 $452 $449 $619 forward $447 $-1 #
edge $-1 $622 -34.881185539415995 $745 -27.915447772552767 $618 $746 forward 7 unknown #
coedge $-1 $451 $450 $625 $747 reversed $187 $-1 #
edge $-1 $748 0 $622 13.52470483747083 $616 $749 forward 7 unknown #
vertex $-1 $453 $750 #
straight-curve $-1 -71.192165001165563 8.595222199831845 12.503010430420195 0 1 0 I I #
coedge $-1 $743 $454 $457 $629 reversed $614 $-1 #
coedge $-1 $454 $743 $620 $747 forward $614 $-1 #
vertex $-1 $455 $751 #
straight-curve $-1 -78.157902768028805 9.8437499520909775 40.709332554582289 0 0 1 I I #
straight-curve $-1 -78.157902768028805 9.8437499520909775 0.91007558612808737 -0.51503806187062418 0 -0.85716730853699208 I I #
edge $-1 $745 -24.537138847236402 $458 -9.8437499520909775 $624 $752 forward 7 unknown #
point $-1 -78.157902768028805 9.8437499520909775 12.503010430420195 #
point $-1 -71.192165001165577 9.8437499520909775 12.503010430420195 #
edge $-1 $753 1 $753 0 $461 $-1 forward 7 unknown #
vertex $-1 $462 $754 #
ellipse-curve $-1 -71.278723913142173 14.041861064989668 4.6658341667346299 -0.85716730853699208 0 0.51503806187062418 0.77255709280593621 0 1.2857509628054882 1 I I #
point $-1 -73.902476791791244 14.041861064989668 7.9922939710796248 #
edge $-1 $755 1 $755 0 $465 $-1 forward 7 unknown #
vertex $-1 $466 $756 #
ellipse-curve $-1 -71.278723913142173 20.339027734337705 4.6658341667346299 -0.85716730853699208 0 0.51503806187062418 0.77255709280593621 0 1.2857509628054882 1 I I #
point $-1 -73.902476791791244 20.339027734337705 7.9922939710796248 #
loop $-1 $-1 $477 $469 #
plane-surface $-1 -78.157902768028805 0 0 1 0 0 0 0 -1 forward_v I I I I #
coedge $-1 $643 $472 $474 $647 reversed $319 $-1 #
coedge $-1 $472 $642 $757 $758 reversed $319 $-1 #
coedge $-1 $480 $475 $472 $645 forward $470 $-1 #
edge $-1 $648 -34.881185539415995 $759 -27.915447772552767 $644 $760 forward 7 unknown #
coedge $-1 $474 $473 $651 $761 reversed $201 $-1 #
edge $-1 $762 0 $648 13.52470483747083 $642 $763 forward 7 unknown #
vertex $-1 $476 $764 #
straight-curve $-1 -71.192165001165563 19.340667520018748 12.503010430420195 0 1 0 I I #
coedge $-1 $757 $477 $480 $655 reversed $640 $-1 #
coedge $-1 $477 $757 $646 $761 forward $640 $-1 #
vertex $-1 $478 $765 #
straight-curve $-1 -78.157902768028805 31.334640592464783 40.709332554582289 0 0 1 I I #
straight-curve $-1 -78.157902768028805 31.334640592464783 0.91007558612808737 -0.51503806187062418 0 -0.85716730853699208 I I #
edge $-1 $759 -46.028029487610212 $481 -31.334640592464783 $650 $766 forward 7 unknown #
point $-1 -78.157902768028805 31.334640592464783 12.503010430420195 #
point $-1 -71.192165001165577 31.334640592464783 12.503010430420195 #
edge $-1 $767 1 $767 0 $484 $-1 forward 7 unknown #
vertex $-1 $485 $768 #
ellipse-curve $-1 -71.278723913142173 35.532751705363466 4.6658341667346299 -0.85716730853699208 0 0.51503806187062418 0.77255709280593621 0 1.2857509628054882 1 I I #
point $-1 -73.902476791791244 35.532751705363466 7.9922939710796248 #
edge $-1 $769 1 $769 0 $488 $-1 forward 7 unknown #
vertex $-1 $489 $770 #
ellipse-curve $-1 -71.278723913142173 41.829918374711511 4.6658341667346299 -0.85716730853699208 0 0.51503806187062418 0.77255709280593621 0 1.2857509628054882 1 I I #
point $-1 -73.902476791791244 41.829918374711511 7.9922939710796248 #
plane-surface $-1 78.157902768028805 0 0 -1 0 0 0 0 1 forward_v I I I I #
coedge $-1 $677 $495 $498 $670 reversed $341 $-1 #
edge $-1 $509 -12.503010430420195 $673 12.503010430420195 $508 $771 forward 7 unknown #
straight-curve $-1 78.157902768028805 -49.354424553190441 0 0 0 -1 I I #
edge $-1 $671 -49.354424553190441 $673 49.354424553190441 $667 $772 forward 7 unknown #
vertex $-1 $670 $773 #
straight-curve $-1 0 -49.354424553190441 -12.503010430420195 -1 0 0 I I #
vertex $-1 $501 $774 #
straight-curve $-1 0 49.354424553190441 -12.503010430420195 1 0 0 I I #
point $-1 78.157902768028805 49.354424553190441 -12.503010430420195 #
point $-1 78.157902768028805 -49.354424553190441 -12.503010430420195 #
coedge $-1 $505 $667 $511 $680 reversed $341 $-1 #
straight-curve $-1 -78.157902768028805 0 12.503010430420195 0 -1 0 I I #
point $-1 -78.157902768028805 49.354424553190441 12.503010430420195 #
edge $-1 $512 -12.503010430420195 $671 12.503010430420195 $677 $775 forward 7 unknown #
point $-1 -78.157902768028805 -49.354424553190441 12.503010430420195 #
straight-curve $-1 78.157902768028805 49.354424553190441 0 0 0 -1 I I #
plane-surface $-1 -78.157902768028805 0 0 1 0 0 0 0 -1 forward_v I I I I #
coedge $-1 $686 $695 $690 $776 forward $518 $-1 #
coedge $-1 $521 $520 $777 $778 forward $223 $-1 #
coedge $-1 $777 $684 $522 $687 reversed $518 $-1 #
edge $-1 $688 -78.157902768028805 $691 78.157902768028805 $686 $779 forward 7 unknown #
vertex $-1 $778 $780 #
straight-curve $-1 78.157902768028805 0 -12.503010430420195 0 -1 0 I I #
coedge $-1 $530 $524 $684 $776 reversed $531 $-1 #
vertex $-1 $525 $781 #
straight-curve $-1 -78.157902768028805 0 -12.503010430420195 0 1 0 I I #
point $-1 -78.157902768028805 -49.354424553190441 -12.503010430420195 #
point $-1 78.157902768028805 -49.354424553190441 -12.503010430420195 #
coedge $-1 $684 $777 $533 $696 reversed $518 $-1 #
edge $-1 $697 -78.157902768028805 $699 78.157902768028805 $695 $782 forward 7 unknown #
vertex $-1 $534 $783 #
straight-curve $-1 -78.157902768028805 -55.727067825633284 -9.5030104304201952 0 -1 0 I I #
vertex $-1 $535 $784 #
straight-curve $-1 78.157902768028805 -55.727067825633284 -9.5030104304201952 0 1 0 I I #
coedge $-1 $702 $539 $540 $703 reversed $376 $-1 #
coedge $-1 $539 $701 $544 $707 forward $376 $-1 #
edge $-1 $710 -78.157902768028805 $704 -74.00633753976841 $701 $785 forward 7 unknown #
vertex $-1 $542 $786 #
straight-curve $-1 74.006337539768438 21.232780061987505 12.50301043042019 0 -1 0 I I #
straight-curve $-1 16.970570091843943 49.354424553190441 85.505465728574279 -0.61566146476048833 0 0.78801076186113728 I I #
edge $-1 $710 -12.503010430420195 $545 -7.1892491091551269 $544 $787 forward 7 unknown #
point $-1 78.157902768028805 49.354424553190441 7.1892491091551269 #
point $-1 74.00633753976841 35.576695694759579 12.50301043042019 #
vertex $-1 $551 $788 #
straight-curve $-1 78.157902768028805 0 12.503010430420195 0 1 0 I I #
vertex $-1 $554 $789 #
point $-1 72.718220078231951 39.513189654311262 5.3144357616262203 #
vertex $-1 $558 $790 #
point $-1 72.718220078231951 45.417930593638772 5.3144357616262203 #
edge $-1 $717 28.206322124162092 $720 39.799256968454202 $563 $791 forward 7 unknown #
vertex $-1 $577 $792 #
straight-curve $-1 -106.07335054058157 -18.444642433511198 12.503010430420197 -1 0 0 I I #
edge $-1 $720 5.548973992969243 $574 20.24236288811467 $573 $793 forward 7 unknown #
vertex $-1 $719 $794 #
straight-curve $-1 -78.157902768028805 -18.444642433511198 0.91007558612808737 0.51503806187062418 0 0.85716730853699208 I I #
point $-1 -71.192165001165577 -18.444642433511198 12.503010430420195 #
point $-1 -78.157902768028805 -33.138031328656623 0.91007558612808737 #
straight-curve $-1 -78.157902768028805 0 12.503010430420195 0 -1 0 I I #
vertex $-1 $580 $795 #
point $-1 -70.506166820336247 -28.93992021575793 5.9515851295401188 #
vertex $-1 $584 $796 #
point $-1 -70.506166820336247 -22.642753546409892 5.9515851295401188 #
coedge $-1 $599 $598 $591 $730 forward $588 $-1 #
edge $-1 $731 28.206322124162092 $734 39.799256968454202 $729 $797 forward 7 unknown #
vertex $-1 $603 $798 #
straight-curve $-1 -106.07335054058157 3.0462482068625967 12.503010430420197 -1 0 0 I I #
edge $-1 $734 -5.1964713272176546 $600 9.4969175679277704 $599 $799 forward 7 unknown #
vertex $-1 $733 $800 #
straight-curve $-1 -78.157902768028805 3.0462482068625967 0.91007558612808737 0.51503806187062418 0 0.85716730853699208 I I #
point $-1 -71.192165001165577 3.0462482068625967 12.503010430420195 #
point $-1 -78.157902768028805 -11.647140688282828 0.91007558612808737 #
straight-curve $-1 -78.157902768028805 0 12.503010430420195 0 -1 0 I I #
vertex $-1 $606 $801 #
point $-1 -70.506166820336247 -7.4490295753841309 5.9515851295401188 #
vertex $-1 $610 $802 #
point $-1 -70.506166820336247 -1.1518629060360936 5.9515851295401188 #
coedge $-1 $625 $624 $617 $744 forward $614 $-1 #
edge $-1 $745 28.206322124162092 $748 39.799256968454202 $743 $803 forward 7 unknown #
vertex $-1 $629 $804 #
straight-curve $-1 -106.07335054058157 24.537138847236402 12.503010430420197 -1 0 0 I I #
edge $-1 $748 -15.941916647404557 $626 -1.2485277522591325 $625 $805 forward 7 unknown #
vertex $-1 $747 $806 #
straight-curve $-1 -78.157902768028805 24.537138847236402 0.91007558612808737 0.51503806187062418 0 0.85716730853699208 I I #
point $-1 -71.192165001165577 24.537138847236402 12.503010430420195 #
point $-1 -78.157902768028805 9.8437499520909775 0.91007558612808737 #
straight-curve $-1 -78.157902768028805 0 12.503010430420195 0 -1 0 I I #
vertex $-1 $632 $807 #
point $-1 -70.506166820336247 14.041861064989668 5.9515851295401188 #
vertex $-1 $636 $808 #
point $-1 -70.506166820336247 20.339027734337705 5.9515851295401188 #
coedge $-1 $651 $650 $643 $758 forward $640 $-1 #
edge $-1 $759 28.206322124162092 $762 39.799256968454202 $757 $809 forward 7 unknown #
vertex $-1 $655 $810 #
straight-curve $-1 -106.07335054058157 46.028029487610212 12.503010430420197 -1 0 0 I I #
edge $-1 $762 -26.687361967591464 $652 -11.993973072446035 $651 $811 forward 7 unknown #
vertex $-1 $761 $812 #
straight-curve $-1 -78.157902768028805 46.028029487610212 0.91007558612808737 0.51503806187062418 0 0.85716730853699208 I I #
point $-1 -71.192165001165577 46.028029487610212 12.503010430420195 #
point $-1 -78.157902768028805 31.334640592464783 0.91007558612808737 #
straight-curve $-1 -78.157902768028805 0 12.503010430420195 0 -1 0 I I #
vertex $-1 $658 $813 #
point $-1 -70.506166820336247 35.532751705363466 5.9515851295401188 #
vertex $-1 $662 $814 #
point $-1 -70.506166820336247 41.829918374711511 5.9515851295401188 #
straight-curve $-1 -78.157902768028805 49.354424553190441 0 0 0 -1 I I #
straight-curve $-1 -78.157902768028805 0 -12.503010430420195 0 1 0 I I #
point $-1 -78.157902768028805 -49.354424553190441 -12.503010430420195 #
point $-1 -78.157902768028805 49.354424553190441 -12.503010430420195 #
straight-curve $-1 -78.157902768028805 -49.354424553190441 0 0 0 -1 I I #
edge $-1 $697 -1.5 $691 1.5 $690 $815 forward 7 unknown #
coedge $-1 $695 $686 $685 $778 reversed $518 $-1 #
edge $-1 $699 -1.5 $688 1.5 $685 $816 forward 7 unknown #
straight-curve $-1 0 -62.099711098076128 -12.503010430420195 -1 0 0 I I #
point $-1 78.157902768028805 -62.099711098076128 -12.503010430420195 #
point $-1 -78.157902768028805 -62.099711098076128 -12.503010430420195 #
straight-curve $-1 0 -62.099711098076128 -9.5030104304201952 1 0 0 I I #
point $-1 -78.157902768028805 -62.099711098076128 -9.5030104304201952 #
point $-1 78.157902768028805 -62.099711098076128 -9.5030104304201952 #
straight-curve $-1 0 49.354424553190441 12.503010430420195 -1 0 0 I I #
point $-1 74.00633753976841 49.354424553190441 12.50301043042019 #
straight-curve $-1 78.157902768028805 49.354424553190441 0 0 0 -1 I I #
point $-1 78.157902768028805 49.354424553190441 12.503010430420195 #
point $-1 70.612711738299524 39.513189654311262 5.5729597072771941 #
point $-1 70.612711738299524 45.417930593638772 5.5729597072771941 #
straight-curve $-1 -78.157902768028805 -18.444642433511198 40.709332554582289 0 0 -1 I I #
point $-1 -78.157902768028805 -18.444642433511198 12.503010430420195 #
straight-curve $-1 -78.157902768028805 -12.895668440541955 0.91007558612809181 0 -1 0 I I #
point $-1 -78.157902768028805 -18.444642433511198 0.91007558612808737 #
point $-1 -69.992972950336693 -28.93992021575793 3.8932770739286933 #
point $-1 -69.992972950336693 -22.642753546409892 3.8932770739286933 #
straight-curve $-1 -78.157902768028805 3.0462482068625967 40.709332554582289 0 0 -1 I I #
point $-1 -78.157902768028805 3.0462482068625967 12.503010430420195 #
straight-curve $-1 -78.157902768028805 -2.1502231203550579 0.91007558612809181 0 -1 0 I I #
point $-1 -78.157902768028805 3.0462482068625967 0.91007558612808737 #
point $-1 -69.992972950336693 -7.4490295753841309 3.8932770739286933 #
point $-1 -69.992972950336693 -1.1518629060360936 3.8932770739286933 #
straight-curve $-1 -78.157902768028805 24.537138847236402 40.709332554582289 0 0 -1 I I #
point $-1 -78.157902768028805 24.537138847236402 12.503010430420195 #
straight-curve $-1 -78.157902768028805 8.595222199831845 0.91007558612809181 0 -1 0 I I #
point $-1 -78.157902768028805 24.537138847236402 0.91007558612808737 #
point $-1 -69.992972950336693 14.041861064989668 3.8932770739286933 #
point $-1 -69.992972950336693 20.339027734337705 3.8932770739286933 #
straight-curve $-1 -78.157902768028805 46.028029487610212 40.709332554582289 0 0 -1 I I #
point $-1 -78.157902768028805 46.028029487610212 12.503010430420195 #
straight-curve $-1 -78.157902768028805 19.340667520018748 0.91007558612809181 0 -1 0 I I #
point $-1 -78.157902768028805 46.028029487610212 0.91007558612808737 #
point $-1 -69.992972950336693 35.532751705363466 3.8932770739286933 #
point $-1 -69.992972950336693 41.829918374711511 3.8932770739286933 #
straight-curve $-1 -78.157902768028805 -62.099711098076128 -11.003010430420195 0 0 -1 I I #
straight-curve $-1 78.157902768028805 -62.099711098076128 -11.003010430420195 0 0 -1 I I #
End-of-ACIS-data 