500 0 11 0           
7 Unknown 11 ACIS 5.0 NT 24 Thu Mar 25 17:02:42 1999 
-1 9.9999999999999995e-007 1e-010 
body $-1 $11 $-1 $12 #
body $-1 $13 $-1 $14 #
body $-1 $15 $-1 $16 #
body $-1 $17 $-1 $18 #
body $-1 $19 $-1 $20 #
body $-1 $21 $-1 $22 #
body $-1 $23 $-1 $24 #
body $-1 $25 $-1 $26 #
body $-1 $27 $-1 $28 #
body $-1 $29 $-1 $30 #
body $-1 $31 $-1 $32 #
lump $-1 $-1 $33 $0 #
transform $-1 1 0 0 0 1 0 0 0 1 50.244453260902738 27.665960372158317 12.492784901227726 1 rotate no_reflect no_shear #
lump $-1 $-1 $34 $1 #
transform $-1 1 0 0 0 1 0 0 0 1 50.244453260902738 27.665960372158317 12.492784901227726 1 rotate no_reflect no_shear #
lump $-1 $-1 $35 $2 #
transform $-1 1 0 0 0 1 0 0 0 1 50.244453260902738 27.665960372158317 12.492784901227726 1 rotate no_reflect no_shear #
lump $-1 $-1 $36 $3 #
transform $-1 1 0 0 0 1 0 0 0 1 50.244453260902738 27.665960372158317 12.492784901227726 1 rotate no_reflect no_shear #
lump $-1 $-1 $37 $4 #
transform $-1 1 0 0 0 1 0 0 0 1 50.244453260902738 27.665960372158317 12.492784901227726 1 rotate no_reflect no_shear #
lump $-1 $-1 $38 $5 #
transform $-1 1 0 0 0 1 0 0 0 1 50.244453260902738 27.665960372158317 12.492784901227726 1 rotate no_reflect no_shear #
lump $-1 $-1 $39 $6 #
transform $-1 1 0 0 0 1 0 0 0 1 50.244453260902738 27.665960372158317 12.492784901227726 1 rotate no_reflect no_shear #
lump $-1 $-1 $40 $7 #
transform $-1 1 0 0 0 1 0 0 0 1 50.244453260902738 27.665960372158317 12.492784901227726 1 rotate no_reflect no_shear #
lump $-1 $-1 $41 $8 #
transform $-1 1 0 0 0 1 0 0 0 1 50.244453260902738 27.665960372158317 12.492784901227726 1 rotate no_reflect no_shear #
lump $-1 $-1 $42 $9 #
transform $-1 1 0 0 0 1 0 0 0 1 50.244453260902738 27.665960372158317 12.492784901227726 1 rotate no_reflect no_shear #
lump $-1 $-1 $43 $10 #
transform $-1 1 0 0 0 1 0 0 0 1 50.244453260902738 27.665960372158317 12.492784901227726 1 rotate no_reflect no_shear #
shell $-1 $-1 $-1 $44 $-1 $11 #
shell $-1 $-1 $-1 $45 $-1 $13 #
shell $-1 $-1 $-1 $46 $-1 $15 #
shell $-1 $-1 $-1 $47 $-1 $17 #
shell $-1 $-1 $-1 $48 $-1 $19 #
shell $-1 $-1 $-1 $49 $-1 $21 #
shell $-1 $-1 $-1 $50 $-1 $23 #
shell $-1 $-1 $-1 $51 $-1 $25 #
shell $-1 $-1 $-1 $52 $-1 $27 #
shell $-1 $-1 $-1 $53 $-1 $29 #
shell $-1 $-1 $-1 $54 $-1 $31 #
face $-1 $55 $56 $33 $-1 $57 forward single #
face $-1 $58 $59 $34 $-1 $60 reversed single #
face $-1 $61 $62 $35 $-1 $63 reversed single #
face $-1 $64 $65 $36 $-1 $66 forward single #
face $-1 $67 $68 $37 $-1 $69 forward single #
face $-1 $70 $71 $38 $-1 $72 reversed single #
face $-1 $73 $74 $39 $-1 $75 forward single #
face $-1 $76 $77 $40 $-1 $78 forward single #
face $-1 $79 $80 $41 $-1 $81 reversed single #
face $-1 $82 $83 $42 $-1 $84 forward single #
face $-1 $85 $86 $43 $-1 $87 forward single #
face $-1 $88 $89 $33 $-1 $90 reversed single #
loop $-1 $-1 $91 $44 #
plane-surface $-1 0 0 12.492784901227726 0 0 1 1 0 0 forward_v I I I I #
face $-1 $92 $93 $34 $-1 $94 reversed single #
loop $-1 $-1 $95 $45 #
plane-surface $-1 0 -19.941349721424146 6.8158822667997789 0 0 1 1 0 0 forward_v I I I I #
face $-1 $96 $97 $35 $-1 $98 reversed single #
loop $-1 $-1 $99 $46 #
plane-surface $-1 -117.48465702286668 -0.38766186420684079 82.890096117490842 0 1 0 -0.66913061440640931 0 0.74314481823134659 forward_v I I I I #
face $-1 $100 $101 $36 $-1 $102 forward single #
loop $-1 $103 $104 $47 #
cone-surface $-1 -47.530684486526141 1.930130282919162 9.9785022701054196 0.66913061440640931 0 -0.74314481823134659 0.3715724091156733 0 0.33456530720320465 1 I I 0 1 0.5 forward I I I I #
face $-1 $105 $106 $37 $-1 $107 forward single #
loop $-1 $108 $109 $48 #
cone-surface $-1 -47.530684486526141 5.4068185036081644 9.9785022701054196 0.66913061440640931 0 -0.74314481823134659 0.3715724091156733 0 0.33456530720320465 1 I I 0 1 0.5 forward I I I I #
face $-1 $110 $111 $38 $-1 $112 reversed single #
loop $-1 $-1 $113 $49 #
plane-surface $-1 -117.48465702286668 19.553687857217305 82.890096117490842 0 1 0 -0.66913061440640931 0 0.74314481823134659 forward_v I I I I #
face $-1 $114 $115 $39 $-1 $116 forward single #
loop $-1 $117 $118 $50 #
cone-surface $-1 -47.530684486526141 21.871480004343304 9.9785022701054196 0.66913061440640931 0 -0.74314481823134659 0.3715724091156733 0 0.33456530720320465 1 I I 0 1 0.5 forward I I I I #
face $-1 $119 $120 $40 $-1 $121 forward single #
loop $-1 $122 $123 $51 #
cone-surface $-1 -47.530684486526141 25.34816822503231 9.9785022701054196 0.66913061440640931 0 -0.74314481823134659 0.3715724091156733 0 0.33456530720320465 1 I I 0 1 0.5 forward I I I I #
face $-1 $124 $125 $41 $-1 $126 reversed single #
loop $-1 $-1 $127 $52 #
plane-surface $-1 55.204119286047806 19.642915223559292 143.13751400653712 0 -1 0 -0.73135370988377701 0 -0.68199835119979291 forward_v I I I I #
face $-1 $128 $129 $42 $-1 $130 forward single #
loop $-1 $131 $132 $53 #
cone-surface $-1 43.313736889987844 11.405305405973948 5.287626280666009 -0.73135370988377701 0 -0.68199835119979291 1.0229975267996894 0 -1.0970305648256655 1 I I 0 1 1.5 forward I I I I #
face $-1 $133 $134 $43 $-1 $135 forward single #
loop $-1 $136 $137 $54 #
cone-surface $-1 43.313736889987844 16.347871296525149 5.287626280666009 -0.73135370988377701 0 -0.68199835119979291 1.0229975267996894 0 -1.0970305648256655 1 I I 0 1 1.5 forward I I I I #
face $-1 $138 $139 $33 $-1 $140 reversed single #
loop $-1 $-1 $141 $55 #
plane-surface $-1 0 0 -12.492784901227726 0 0 1 1 0 0 forward_v I I I I #
coedge $-1 $142 $143 $144 $145 forward $56 $-1 #
face $-1 $146 $147 $34 $-1 $148 reversed single #
loop $-1 $-1 $149 $58 #
plane-surface $-1 0 -12.216739070689975 9.6543335840137523 0 -1 0 0 0 -1 forward_v I I I I #
coedge $-1 $150 $151 $152 $153 reversed $59 $-1 #
face $-1 $154 $155 $35 $-1 $156 reversed single #
loop $-1 $-1 $157 $61 #
plane-surface $-1 -50.244453260902759 3.668474393263665 8.212285946076932 -0.66913061440640931 0 0.74314481823134659 0.74314481823134659 0 0.66913061440640931 forward_v I I I I #
coedge $-1 $158 $159 $160 $161 reversed $62 $-1 #
face $-1 $-1 $162 $36 $-1 $163 forward single #
loop $-1 $164 $165 $64 #
cone-surface $-1 -47.026620861435219 1.930130282919162 9.4186829120006799 0.66913061440640931 0 -0.74314481823134659 0.18578620455783665 0 0.16728265360160233 1 I I -0.70710678118654746 0.70710678118654746 0.25 forward I I I I #
loop $-1 $-1 $166 $47 #
coedge $-1 $104 $104 $167 $168 reversed $65 $-1 #
face $-1 $-1 $169 $37 $-1 $170 forward single #
loop $-1 $171 $172 $67 #
cone-surface $-1 -47.026620861435219 5.4068185036081644 9.4186829120006799 0.66913061440640931 0 -0.74314481823134659 0.18578620455783665 0 0.16728265360160233 1 I I -0.70710678118654746 0.70710678118654746 0.25 forward I I I I #
loop $-1 $-1 $173 $48 #
coedge $-1 $109 $109 $174 $175 reversed $68 $-1 #
face $-1 $176 $177 $38 $-1 $178 forward single #
loop $-1 $-1 $179 $70 #
plane-surface $-1 -50.244453260902759 23.609824114687811 8.212285946076932 -0.66913061440640931 0 0.74314481823134659 0.74314481823134659 0 0.66913061440640931 forward_v I I I I #
coedge $-1 $180 $181 $182 $183 reversed $71 $-1 #
face $-1 $-1 $184 $39 $-1 $185 forward single #
loop $-1 $186 $187 $73 #
cone-surface $-1 -47.026620861435219 21.871480004343304 9.4186829120006799 0.66913061440640931 0 -0.74314481823134659 0.18578620455783665 0 0.16728265360160233 1 I I -0.70710678118654746 0.70710678118654746 0.25 forward I I I I #
loop $-1 $-1 $188 $50 #
coedge $-1 $118 $118 $189 $190 reversed $74 $-1 #
face $-1 $-1 $191 $40 $-1 $192 forward single #
loop $-1 $193 $194 $76 #
cone-surface $-1 -47.026620861435219 25.34816822503231 9.4186829120006799 0.66913061440640931 0 -0.74314481823134659 0.18578620455783665 0 0.16728265360160233 1 I I -0.70710678118654746 0.70710678118654746 0.25 forward I I I I #
loop $-1 $-1 $195 $51 #
coedge $-1 $123 $123 $196 $197 reversed $77 $-1 #
face $-1 $198 $199 $41 $-1 $200 reversed single #
loop $-1 $-1 $201 $79 #
plane-surface $-1 -18.288815300838699 13.876588351249552 74.604245444795666 0.73135370988377701 0 0.68199835119979291 0.68199835119979291 0 -0.73135370988377701 forward_v I I I I #
coedge $-1 $202 $203 $204 $205 reversed $80 $-1 #
face $-1 $-1 $206 $42 $-1 $207 forward single #
loop $-1 $208 $209 $82 #
cone-surface $-1 41.141203231669955 11.405305405973948 3.2617059183637345 -0.73135370988377701 0 -0.68199835119979291 0.51149876339984468 0 -0.54851528241283276 1 I I -0.70710678118654757 0.70710678118654757 0.75 forward I I I I #
loop $-1 $-1 $210 $53 #
coedge $-1 $132 $132 $211 $212 reversed $83 $-1 #
face $-1 $-1 $213 $43 $-1 $214 forward single #
loop $-1 $215 $216 $85 #
cone-surface $-1 41.141203231669955 16.347871296525149 3.2617059183637345 -0.73135370988377701 0 -0.68199835119979291 0.51149876339984468 0 -0.54851528241283276 1 I I -0.70710678118654757 0.70710678118654757 0.75 forward I I I I #
loop $-1 $-1 $217 $54 #
coedge $-1 $137 $137 $218 $219 reversed $86 $-1 #
face $-1 $220 $221 $33 $-1 $222 reversed single #
loop $-1 $-1 $223 $88 #
plane-surface $-1 0 -27.665960372158317 0 0 1 0 0 0 1 forward_v I I I I #
coedge $-1 $224 $225 $226 $227 forward $89 $-1 #
coedge $-1 $228 $91 $229 $230 forward $56 $-1 #
coedge $-1 $91 $228 $231 $232 forward $56 $-1 #
coedge $-1 $233 $234 $91 $145 reversed $235 $-1 #
edge $-1 $236 -27.665960372158317 $237 27.665960372158317 $144 $238 forward 7 unknown #
face $-1 $239 $240 $34 $-1 $241 reversed single #
loop $-1 $-1 $242 $92 #
plane-surface $-1 -50.244453260902738 0 0 1 0 0 0 0 -1 forward_v I I I I #
coedge $-1 $243 $244 $245 $246 reversed $93 $-1 #
coedge $-1 $247 $95 $248 $249 reversed $59 $-1 #
coedge $-1 $95 $247 $243 $250 forward $59 $-1 #
coedge $-1 $245 $251 $95 $153 forward $252 $-1 #
edge $-1 $253 -17.695285511446244 $254 -2.2460642099779022 $152 $255 forward 7 unknown #
face $-1 $256 $257 $35 $-1 $258 forward single #
loop $-1 $-1 $259 $96 #
plane-surface $-1 -117.48465702286668 7.7246106507341707 82.890096117490842 0 -1 0 0.66913061440640931 0 -0.74314481823134659 forward_v I I I I #
coedge $-1 $260 $261 $262 $263 reversed $97 $-1 #
coedge $-1 $159 $99 $264 $265 reversed $62 $-1 #
coedge $-1 $99 $158 $260 $266 reversed $62 $-1 #
coedge $-1 $262 $267 $99 $161 forward $257 $-1 #
edge $-1 $268 8.4978752505306048 $269 13.251850856305133 $160 $270 forward 7 unknown #
loop $-1 $-1 $167 $100 #
plane-surface $-1 -50.244453260902759 3.668474393263665 8.212285946076932 -0.66913061440640931 0 0.74314481823134659 0.74314481823134659 0 0.66913061440640931 forward_v I I I I #
loop $-1 $-1 $271 $64 #
coedge $-1 $165 $165 $166 $272 reversed $101 $-1 #
coedge $-1 $166 $166 $165 $272 forward $103 $-1 #
coedge $-1 $167 $167 $104 $168 forward $162 $-1 #
edge $-1 $273 0 $273 6.2831853071796004 $167 $274 forward 7 unknown #
loop $-1 $-1 $174 $105 #
plane-surface $-1 -50.244453260902759 3.668474393263665 8.212285946076932 -0.66913061440640931 0 0.74314481823134659 0.74314481823134659 0 0.66913061440640931 forward_v I I I I #
loop $-1 $-1 $275 $67 #
coedge $-1 $172 $172 $173 $276 reversed $106 $-1 #
coedge $-1 $173 $173 $172 $276 forward $108 $-1 #
coedge $-1 $174 $174 $109 $175 forward $169 $-1 #
edge $-1 $277 0 $277 6.2831853071796004 $174 $278 forward 7 unknown #
face $-1 $279 $280 $38 $-1 $281 reversed single #
loop $-1 $-1 $182 $110 #
plane-surface $-1 0 0 12.492784901227726 0 0 1 1 0 0 forward_v I I I I #
coedge $-1 $282 $283 $284 $285 reversed $111 $-1 #
coedge $-1 $181 $113 $286 $287 reversed $71 $-1 #
coedge $-1 $113 $180 $282 $288 reversed $71 $-1 #
coedge $-1 $284 $289 $113 $183 forward $177 $-1 #
edge $-1 $290 8.4978752505306048 $291 13.251850856305133 $182 $292 forward 7 unknown #
loop $-1 $-1 $189 $114 #
plane-surface $-1 -50.244453260902759 23.609824114687811 8.212285946076932 -0.66913061440640931 0 0.74314481823134659 0.74314481823134659 0 0.66913061440640931 forward_v I I I I #
loop $-1 $-1 $293 $73 #
coedge $-1 $187 $187 $188 $294 reversed $115 $-1 #
coedge $-1 $188 $188 $187 $294 forward $117 $-1 #
coedge $-1 $189 $189 $118 $190 forward $184 $-1 #
edge $-1 $295 0 $295 6.2831853071796004 $189 $296 forward 7 unknown #
loop $-1 $-1 $196 $119 #
plane-surface $-1 -50.244453260902759 23.609824114687811 8.212285946076932 -0.66913061440640931 0 0.74314481823134659 0.74314481823134659 0 0.66913061440640931 forward_v I I I I #
loop $-1 $-1 $297 $76 #
coedge $-1 $194 $194 $195 $298 reversed $120 $-1 #
coedge $-1 $195 $195 $194 $298 forward $122 $-1 #
coedge $-1 $196 $196 $123 $197 forward $191 $-1 #
edge $-1 $299 0 $299 6.2831853071796004 $196 $300 forward 7 unknown #
face $-1 $301 $302 $41 $-1 $303 reversed single #
loop $-1 $-1 $304 $124 #
plane-surface $-1 55.204119286047806 8.1102614789398118 143.13751400653712 0 1 0 0.73135370988377701 0 0.68199835119979291 forward_v I I I I #
coedge $-1 $305 $306 $307 $308 reversed $125 $-1 #
coedge $-1 $203 $127 $309 $310 reversed $80 $-1 #
coedge $-1 $127 $202 $305 $311 reversed $80 $-1 #
coedge $-1 $307 $312 $127 $205 forward $313 $-1 #
edge $-1 $314 -22.642393617878835 $315 -12.028997627859166 $204 $316 forward 7 unknown #
loop $-1 $-1 $211 $128 #
plane-surface $-1 -18.288815300838699 13.876588351249552 74.604245444795666 0.73135370988377701 0 0.68199835119979291 0.68199835119979291 0 -0.73135370988377701 forward_v I I I I #
loop $-1 $-1 $317 $82 #
coedge $-1 $209 $209 $210 $318 reversed $129 $-1 #
coedge $-1 $210 $210 $209 $318 forward $131 $-1 #
coedge $-1 $211 $211 $132 $212 forward $206 $-1 #
edge $-1 $319 0 $319 6.2831853071796004 $211 $320 forward 7 unknown #
loop $-1 $-1 $218 $133 #
plane-surface $-1 -18.288815300838699 13.876588351249552 74.604245444795666 0.73135370988377701 0 0.68199835119979291 0.68199835119979291 0 -0.73135370988377701 forward_v I I I I #
loop $-1 $-1 $321 $85 #
coedge $-1 $216 $216 $217 $322 reversed $134 $-1 #
coedge $-1 $217 $217 $216 $322 forward $136 $-1 #
coedge $-1 $218 $218 $137 $219 forward $213 $-1 #
edge $-1 $323 0 $323 6.2831853071796004 $218 $324 forward 7 unknown #
face $-1 $325 $326 $33 $-1 $327 reversed single #
loop $-1 $-1 $328 $138 #
plane-surface $-1 -50.244453260902738 0 0 1 0 0 0 0 -1 forward_v I I I I #
coedge $-1 $329 $231 $330 $331 forward $139 $-1 #
coedge $-1 $332 $141 $329 $333 forward $89 $-1 #
coedge $-1 $141 $332 $334 $335 forward $89 $-1 #
coedge $-1 $234 $233 $141 $227 reversed $235 $-1 #
edge $-1 $336 -27.665960372158317 $337 27.665960372158317 $226 $338 forward 7 unknown #
coedge $-1 $143 $142 $339 $340 forward $56 $-1 #
coedge $-1 $341 $342 $142 $230 reversed $326 $-1 #
edge $-1 $237 -50.244453260902738 $343 50.244453260902738 $229 $344 forward 7 unknown #
coedge $-1 $223 $345 $143 $232 reversed $139 $-1 #
edge $-1 $346 -50.244453260902738 $236 50.244453260902738 $231 $347 forward 7 unknown #
coedge $-1 $226 $144 $345 $348 forward $235 $-1 #
coedge $-1 $144 $226 $341 $349 reversed $235 $-1 #
loop $-1 $-1 $233 $325 #
vertex $-1 $145 $350 #
vertex $-1 $145 $351 #
straight-curve $-1 50.244453260902738 0 12.492784901227726 0 1 0 I I #
face $-1 $352 $353 $34 $-1 $354 forward single #
loop $-1 $-1 $248 $146 #
plane-surface $-1 0 -27.665960372158317 0 0 1 0 0 0 1 forward_v I I I I #
coedge $-1 $355 $356 $357 $358 forward $147 $-1 #
coedge $-1 $357 $149 $151 $250 reversed $93 $-1 #
coedge $-1 $149 $357 $359 $360 reversed $93 $-1 #
coedge $-1 $361 $152 $149 $246 forward $252 $-1 #
edge $-1 $254 1.9887154747929028 $362 7.6656181092208495 $245 $363 forward 7 unknown #
coedge $-1 $151 $150 $355 $364 reversed $59 $-1 #
coedge $-1 $365 $366 $150 $249 forward $240 $-1 #
edge $-1 $367 -50.244453260902738 $253 50.244453260902738 $248 $368 forward 7 unknown #
edge $-1 $369 -50.244453260902738 $254 50.244453260902738 $243 $370 forward 7 unknown #
coedge $-1 $152 $361 $365 $371 forward $252 $-1 #
loop $-1 $-1 $245 $352 #
vertex $-1 $249 $372 #
vertex $-1 $153 $373 #
straight-curve $-1 50.244453260902738 -9.970674860712073 6.8158822667997789 0 1 0 I I #
face $-1 $-1 $374 $35 $-1 $375 reversed single #
loop $-1 $-1 $160 $154 #
plane-surface $-1 0 0 12.492784901227726 0 0 1 1 0 0 forward_v I I I I #
coedge $-1 $376 $377 $378 $379 reversed $155 $-1 #
coedge $-1 $380 $157 $159 $266 forward $97 $-1 #
coedge $-1 $157 $380 $376 $381 forward $97 $-1 #
coedge $-1 $378 $160 $157 $263 forward $257 $-1 #
edge $-1 $269 -2.2218990608386733 $382 5.8903734541023383 $262 $383 forward 7 unknown #
coedge $-1 $384 $385 $158 $265 forward $374 $-1 #
edge $-1 $386 -33.232762112668468 $268 -28.952263157517695 $264 $387 forward 7 unknown #
edge $-1 $269 -6.3971052332556271 $386 -2.8915846743243384e-014 $159 $388 forward 7 unknown #
coedge $-1 $160 $378 $384 $389 forward $257 $-1 #
vertex $-1 $265 $390 #
vertex $-1 $161 $391 #
straight-curve $-1 -58.742328511433342 -0.38766186420684079 12.492784901227722 1 0 0 I I #
coedge $-1 $271 $271 $-1 $392 reversed $164 $-1 #
edge $-1 $393 0 $393 6.2831853071796004 $165 $394 forward 7 unknown #
vertex $-1 $168 $395 #
ellipse-curve $-1 -47.867465458015474 1.930130282919162 10.352535423652338 -0.66913061440640931 0 0.74314481823134659 0.3715724091156733 0 0.33456530720320465 1 I I #
coedge $-1 $275 $275 $-1 $396 reversed $171 $-1 #
edge $-1 $397 0 $397 6.2831853071796004 $172 $398 forward 7 unknown #
vertex $-1 $175 $399 #
ellipse-curve $-1 -47.867465458015474 5.4068185036081644 10.352535423652338 -0.66913061440640931 0 0.74314481823134659 0.3715724091156733 0 0.33456530720320465 1 I I #
face $-1 $-1 $400 $38 $-1 $401 reversed single #
loop $-1 $-1 $402 $176 #
plane-surface $-1 0 27.665960372158317 0 0 -1 0 0 0 -1 forward_v I I I I #
coedge $-1 $403 $179 $181 $288 forward $111 $-1 #
coedge $-1 $179 $403 $402 $404 reversed $111 $-1 #
coedge $-1 $405 $182 $179 $285 forward $177 $-1 #
edge $-1 $291 7.7487757998733997 $406 15.861048314814411 $284 $407 forward 7 unknown #
coedge $-1 $408 $409 $180 $287 forward $400 $-1 #
edge $-1 $410 -33.232762112668468 $290 -28.952263157517695 $286 $411 forward 7 unknown #
edge $-1 $291 -6.3971052332556271 $410 -2.8915846743243384e-014 $181 $412 forward 7 unknown #
coedge $-1 $182 $405 $408 $413 forward $177 $-1 #
vertex $-1 $287 $414 #
vertex $-1 $183 $415 #
straight-curve $-1 -58.742328511433342 19.553687857217305 12.492784901227722 1 0 0 I I #
coedge $-1 $293 $293 $-1 $416 reversed $186 $-1 #
edge $-1 $417 0 $417 6.2831853071796004 $187 $418 forward 7 unknown #
vertex $-1 $190 $419 #
ellipse-curve $-1 -47.867465458015474 21.871480004343304 10.352535423652338 -0.66913061440640931 0 0.74314481823134659 0.3715724091156733 0 0.33456530720320465 1 I I #
coedge $-1 $297 $297 $-1 $420 reversed $193 $-1 #
edge $-1 $421 0 $421 6.2831853071796004 $194 $422 forward 7 unknown #
vertex $-1 $197 $423 #
ellipse-curve $-1 -47.867465458015474 25.34816822503231 10.352535423652338 -0.66913061440640931 0 0.74314481823134659 0.3715724091156733 0 0.33456530720320465 1 I I #
face $-1 $-1 $313 $41 $-1 $424 forward single #
loop $-1 $-1 $425 $198 #
plane-surface $-1 50.244453260902738 0 0 -1 0 0 0 0 1 forward_v I I I I #
coedge $-1 $426 $427 $428 $429 reversed $199 $-1 #
coedge $-1 $430 $201 $203 $311 forward $125 $-1 #
coedge $-1 $201 $430 $426 $431 forward $125 $-1 #
coedge $-1 $428 $204 $201 $308 forward $313 $-1 #
edge $-1 $315 -12.704621047934516 $432 -1.1719673033150357 $307 $433 forward 7 unknown #
coedge $-1 $434 $435 $202 $310 forward $302 $-1 #
edge $-1 $436 -70.457446145359398 $314 -59.075972102040836 $309 $437 forward 7 unknown #
edge $-1 $315 84.926704690454613 $436 100.48890652180546 $203 $438 forward 7 unknown #
coedge $-1 $204 $428 $434 $439 forward $313 $-1 #
loop $-1 $-1 $428 $301 #
vertex $-1 $310 $440 #
vertex $-1 $205 $441 #
straight-curve $-1 27.602059643023903 19.642915223559292 12.492784901227722 -1 0 0 I I #
coedge $-1 $317 $317 $-1 $442 reversed $208 $-1 #
edge $-1 $443 0 $443 6.2831853071796004 $209 $444 forward 7 unknown #
vertex $-1 $212 $445 #
ellipse-curve $-1 44.937755265892903 11.405305405973948 6.8020478795684447 0.73135370988377701 0 0.68199835119979291 1.0229975267996894 0 -1.0970305648256655 1 I I #
coedge $-1 $321 $321 $-1 $446 reversed $215 $-1 #
edge $-1 $447 0 $447 6.2831853071796004 $216 $448 forward 7 unknown #
vertex $-1 $219 $449 #
ellipse-curve $-1 44.937755265892903 16.347871296525149 6.8020478795684447 0.73135370988377701 0 0.68199835119979291 1.0229975267996894 0 -1.0970305648256655 1 I I #
face $-1 $-1 $235 $33 $-1 $450 reversed single #
loop $-1 $-1 $341 $220 #
plane-surface $-1 0 27.665960372158317 0 0 -1 0 0 0 -1 forward_v I I I I #
coedge $-1 $451 $339 $342 $452 forward $221 $-1 #
coedge $-1 $345 $223 $224 $333 reversed $139 $-1 #
coedge $-1 $339 $451 $223 $331 reversed $221 $-1 #
edge $-1 $346 -12.492784901227726 $453 12.492784901227726 $330 $454 forward 7 unknown #
coedge $-1 $225 $224 $451 $455 forward $89 $-1 #
edge $-1 $337 -50.244453260902738 $453 50.244453260902738 $329 $456 forward 7 unknown #
coedge $-1 $342 $341 $225 $335 reversed $326 $-1 #
edge $-1 $457 -50.244453260902738 $336 50.244453260902738 $334 $458 forward 7 unknown #
vertex $-1 $227 $459 #
vertex $-1 $348 $460 #
straight-curve $-1 50.244453260902738 0 -12.492784901227726 0 -1 0 I I #
coedge $-1 $328 $330 $228 $340 reversed $221 $-1 #
edge $-1 $343 -27.665960372158317 $346 27.665960372158317 $339 $461 forward 7 unknown #
coedge $-1 $334 $229 $234 $349 forward $326 $-1 #
coedge $-1 $229 $334 $328 $452 reversed $326 $-1 #
vertex $-1 $230 $462 #
straight-curve $-1 0 27.665960372158317 12.492784901227726 -1 0 0 I I #
coedge $-1 $231 $329 $233 $348 reversed $139 $-1 #
vertex $-1 $340 $463 #
straight-curve $-1 0 -27.665960372158317 12.492784901227726 1 0 0 I I #
edge $-1 $236 -12.492784901227726 $337 12.492784901227726 $233 $464 forward 7 unknown #
edge $-1 $237 -12.492784901227726 $336 12.492784901227726 $234 $465 forward 7 unknown #
point $-1 50.244453260902738 -27.665960372158317 12.492784901227726 #
point $-1 50.244453260902738 27.665960372158317 12.492784901227726 #
face $-1 $-1 $252 $34 $-1 $466 reversed single #
loop $-1 $-1 $359 $239 #
plane-surface $-1 0 0 12.492784901227726 0 0 1 1 0 0 forward_v I I I I #
coedge $-1 $467 $242 $247 $364 forward $147 $-1 #
coedge $-1 $242 $467 $468 $469 reversed $147 $-1 #
coedge $-1 $244 $243 $242 $358 reversed $93 $-1 #
edge $-1 $470 -7.6656181092208495 $369 -1.9887154747929028 $242 $471 forward 7 unknown #
coedge $-1 $468 $472 $244 $360 forward $353 $-1 #
edge $-1 $362 -50.244453260902738 $470 50.244453260902738 $359 $473 forward 7 unknown #
coedge $-1 $251 $245 $472 $474 reversed $252 $-1 #
vertex $-1 $246 $475 #
straight-curve $-1 50.244453260902738 -12.216739070689975 4.8271667920068762 0 0 1 I I #
edge $-1 $369 2.2460642099779022 $367 17.695285511446244 $355 $476 forward 7 unknown #
coedge $-1 $477 $248 $251 $371 reversed $240 $-1 #
coedge $-1 $248 $477 $467 $478 forward $240 $-1 #
vertex $-1 $249 $479 #
straight-curve $-1 0 -27.665960372158317 6.8158822667997789 1 0 0 I I #
vertex $-1 $364 $480 #
straight-curve $-1 0 -12.216739070689975 6.8158822667997789 1 0 0 I I #
edge $-1 $481 -12.492784901227726 $253 -6.8158822667997789 $251 $482 forward 7 unknown #
point $-1 50.244453260902738 -27.665960372158317 6.8158822667997789 #
point $-1 50.244453260902738 -12.216739070689975 6.8158822667997789 #
loop $-1 $-1 $264 $256 #
plane-surface $-1 -50.244453260902738 0 0 1 0 0 0 0 -1 forward_v I I I I #
coedge $-1 $377 $259 $261 $381 reversed $155 $-1 #
coedge $-1 $259 $376 $483 $484 reversed $155 $-1 #
coedge $-1 $267 $262 $259 $379 forward $257 $-1 #
edge $-1 $382 -13.251850856305133 $485 -8.4978752505306048 $378 $486 forward 7 unknown #
coedge $-1 $261 $260 $385 $487 reversed $97 $-1 #
edge $-1 $488 2.8915846743243384e-014 $382 6.3971052332556271 $376 $489 forward 7 unknown #
vertex $-1 $263 $490 #
straight-curve $-1 -45.49047765512821 1.8342371966318325 12.492784901227724 0 1 0 I I #
coedge $-1 $483 $264 $267 $389 reversed $374 $-1 #
coedge $-1 $264 $483 $380 $487 forward $374 $-1 #
vertex $-1 $265 $491 #
straight-curve $-1 -50.244453260902738 -0.38766186420684079 41.445048058745421 0 0 1 I I #
straight-curve $-1 -50.244453260902759 -0.38766186420684079 8.212285946076932 -0.74314481823134659 0 -0.66913061440640931 I I #
edge $-1 $485 -7.7246106507341707 $268 0.38766186420684079 $384 $492 forward 7 unknown #
point $-1 -50.244453260902738 -0.38766186420684079 12.492784901227726 #
point $-1 -45.49047765512821 -0.38766186420684079 12.492784901227726 #
edge $-1 $493 1 $493 0 $271 $-1 forward 7 unknown #
vertex $-1 $272 $494 #
ellipse-curve $-1 -47.193903515036823 1.930130282919162 9.6044691165585157 -0.66913061440640931 0 0.74314481823134659 0.3715724091156733 0 0.33456530720320465 1 I I #
point $-1 -47.495893048899788 1.930130282919162 10.687100730855526 #
edge $-1 $495 1 $495 0 $275 $-1 forward 7 unknown #
vertex $-1 $276 $496 #
ellipse-curve $-1 -47.193903515036823 5.4068185036081644 9.6044691165585157 -0.66913061440640931 0 0.74314481823134659 0.3715724091156733 0 0.33456530720320465 1 I I #
point $-1 -47.495893048899788 5.4068185036081644 10.687100730855526 #
loop $-1 $-1 $286 $279 #
plane-surface $-1 -50.244453260902738 0 0 1 0 0 0 0 -1 forward_v I I I I #
coedge $-1 $497 $498 $283 $404 forward $280 $-1 #
coedge $-1 $283 $282 $409 $499 reversed $111 $-1 #
edge $-1 $406 9.5248013392080715 $500 15.921906572463669 $402 $501 forward 7 unknown #
coedge $-1 $289 $284 $498 $502 forward $177 $-1 #
vertex $-1 $502 $503 #
straight-curve $-1 -45.49047765512821 11.804912057343905 12.492784901227724 0 1 0 I I #
coedge $-1 $504 $286 $289 $413 reversed $400 $-1 #
coedge $-1 $286 $504 $403 $499 forward $400 $-1 #
vertex $-1 $287 $505 #
straight-curve $-1 -50.244453260902738 19.553687857217305 41.445048058745421 0 0 1 I I #
straight-curve $-1 -50.244453260902759 19.553687857217305 8.212285946076932 -0.74314481823134659 0 -0.66913061440640931 I I #
edge $-1 $506 -27.665960372158317 $290 -19.553687857217305 $408 $507 forward 7 unknown #
point $-1 -50.244453260902738 19.553687857217305 12.492784901227726 #
point $-1 -45.49047765512821 19.553687857217305 12.492784901227726 #
edge $-1 $508 1 $508 0 $293 $-1 forward 7 unknown #
vertex $-1 $294 $509 #
ellipse-curve $-1 -47.193903515036823 21.871480004343304 9.6044691165585157 -0.66913061440640931 0 0.74314481823134659 0.3715724091156733 0 0.33456530720320465 1 I I #
point $-1 -47.495893048899788 21.871480004343304 10.687100730855526 #
edge $-1 $510 1 $510 0 $297 $-1 forward 7 unknown #
vertex $-1 $298 $511 #
ellipse-curve $-1 -47.193903515036823 25.34816822503231 9.6044691165585157 -0.66913061440640931 0 0.74314481823134659 0.3715724091156733 0 0.33456530720320465 1 I I #
point $-1 -47.495893048899788 25.34816822503231 10.687100730855526 #
plane-surface $-1 0 0 12.492784901227726 0 0 1 1 0 0 forward_v I I I I #
coedge $-1 $435 $434 $427 $512 forward $302 $-1 #
coedge $-1 $427 $304 $306 $431 reversed $199 $-1 #
coedge $-1 $304 $426 $425 $512 reversed $199 $-1 #
coedge $-1 $312 $307 $304 $429 forward $313 $-1 #
edge $-1 $432 12.028997627859166 $513 22.642393617878835 $428 $514 forward 7 unknown #
coedge $-1 $306 $305 $435 $515 reversed $125 $-1 #
edge $-1 $516 -100.48890652180546 $432 -84.926704690454613 $426 $517 forward 7 unknown #
vertex $-1 $308 $518 #
straight-curve $-1 39.631057270883062 6.938294175624776 12.492784901227722 0 -1 0 I I #
coedge $-1 $425 $309 $312 $439 reversed $302 $-1 #
coedge $-1 $309 $425 $430 $515 forward $302 $-1 #
vertex $-1 $310 $519 #
straight-curve $-1 50.244453260902738 19.642915223559292 71.568757003268558 0 0 1 I I #
straight-curve $-1 -18.288815300838699 19.642915223559292 74.604245444795666 0.68199835119979291 0 -0.73135370988377701 I I #
edge $-1 $513 8.1102614789398118 $314 19.642915223559292 $434 $520 forward 7 unknown #
point $-1 50.244453260902738 19.642915223559292 12.492784901227726 #
point $-1 39.631057270883069 19.642915223559292 12.492784901227715 #
edge $-1 $521 1 $521 0 $317 $-1 forward 7 unknown #
vertex $-1 $318 $522 #
ellipse-curve $-1 41.689718514082784 11.405305405973948 3.7732046817635791 0.73135370988377701 0 0.68199835119979291 1.0229975267996894 0 -1.0970305648256655 1 I I #
point $-1 45.960752792692588 11.405305405973948 5.7050173147427738 #
edge $-1 $523 1 $523 0 $321 $-1 forward 7 unknown #
vertex $-1 $322 $524 #
ellipse-curve $-1 41.689718514082784 16.347871296525149 3.7732046817635791 0.73135370988377701 0 0.68199835119979291 1.0229975267996894 0 -1.0970305648256655 1 I I #
point $-1 45.960752792692588 16.347871296525149 5.7050173147427738 #
plane-surface $-1 50.244453260902738 0 0 -1 0 0 0 0 1 forward_v I I I I #
coedge $-1 $330 $328 $332 $455 reversed $221 $-1 #
edge $-1 $343 -12.492784901227726 $457 12.492784901227726 $342 $525 forward 7 unknown #
vertex $-1 $455 $526 #
straight-curve $-1 -50.244453260902738 -27.665960372158317 0 0 0 -1 I I #
edge $-1 $453 -27.665960372158317 $457 27.665960372158317 $451 $527 forward 7 unknown #
straight-curve $-1 0 -27.665960372158317 -12.492784901227726 -1 0 0 I I #
vertex $-1 $335 $528 #
straight-curve $-1 0 27.665960372158317 -12.492784901227726 1 0 0 I I #
point $-1 50.244453260902738 27.665960372158317 -12.492784901227726 #
point $-1 50.244453260902738 -27.665960372158317 -12.492784901227726 #
straight-curve $-1 -50.244453260902738 0 12.492784901227726 0 -1 0 I I #
point $-1 -50.244453260902738 27.665960372158317 12.492784901227726 #
point $-1 -50.244453260902738 -27.665960372158317 12.492784901227726 #
straight-curve $-1 50.244453260902738 -27.665960372158317 0 0 0 -1 I I #
straight-curve $-1 50.244453260902738 27.665960372158317 0 0 0 -1 I I #
plane-surface $-1 50.244453260902738 0 0 -1 0 0 0 0 1 forward_v I I I I #
coedge $-1 $356 $355 $366 $478 reversed $147 $-1 #
coedge $-1 $529 $359 $356 $469 forward $353 $-1 #
edge $-1 $470 12.216739070689975 $530 27.665960372158317 $356 $531 forward 7 unknown #
vertex $-1 $469 $532 #
straight-curve $-1 -50.244453260902738 -12.216739070689975 4.8271667920068762 0 0 -1 I I #
coedge $-1 $359 $529 $361 $474 forward $353 $-1 #
straight-curve $-1 0 -12.216739070689975 12.492784901227726 -1 0 0 I I #
edge $-1 $481 -27.665960372158317 $362 -12.216739070689975 $361 $533 forward 7 unknown #
point $-1 50.244453260902738 -12.216739070689975 12.492784901227726 #
straight-curve $-1 -50.244453260902738 -9.970674860712073 6.8158822667997789 0 -1 0 I I #
coedge $-1 $366 $365 $529 $534 reversed $240 $-1 #
edge $-1 $530 -12.492784901227726 $367 -6.8158822667997789 $467 $535 forward 7 unknown #
point $-1 -50.244453260902738 -27.665960372158317 6.8158822667997789 #
point $-1 -50.244453260902738 -12.216739070689975 6.8158822667997789 #
vertex $-1 $474 $536 #
straight-curve $-1 50.244453260902738 -27.665960372158317 0 0 0 -1 I I #
coedge $-1 $385 $384 $377 $484 forward $374 $-1 #
edge $-1 $485 28.952263157517695 $488 33.232762112668468 $483 $537 forward 7 unknown #
vertex $-1 $389 $538 #
straight-curve $-1 -58.742328511433342 7.7246106507341707 12.492784901227722 -1 0 0 I I #
edge $-1 $488 -5.8903734541023383 $386 2.2218990608386733 $385 $539 forward 7 unknown #
vertex $-1 $487 $540 #
straight-curve $-1 -50.244453260902759 7.7246106507341707 8.212285946076932 0.74314481823134659 0 0.66913061440640931 I I #
point $-1 -45.49047765512821 7.7246106507341707 12.492784901227726 #
point $-1 -50.244453260902738 -0.38766186420684079 8.2122859460769515 #
straight-curve $-1 -50.244453260902738 0 12.492784901227726 0 -1 0 I I #
vertex $-1 $392 $541 #
point $-1 -46.822331105921151 1.930130282919162 9.9390344237617221 #
vertex $-1 $396 $542 #
point $-1 -46.822331105921151 5.4068185036081644 9.9390344237617221 #
coedge $-1 $498 $402 $504 $543 reversed $280 $-1 #
coedge $-1 $402 $497 $405 $502 reversed $280 $-1 #
edge $-1 $500 -15.861048314814411 $410 -7.7487757998733997 $409 $544 forward 7 unknown #
vertex $-1 $404 $545 #
straight-curve $-1 -38.412170895212739 27.665960372158317 18.86612107343101 -0.74314481823134659 0 -0.66913061440640931 I I #
edge $-1 $406 45.49047765512821 $506 50.244453260902738 $498 $546 forward 7 unknown #
point $-1 -45.49047765512821 27.665960372158317 12.492784901227726 #
coedge $-1 $409 $408 $497 $543 forward $400 $-1 #
point $-1 -50.244453260902738 19.553687857217305 8.2122859460769515 #
vertex $-1 $502 $547 #
straight-curve $-1 -50.244453260902738 0 12.492784901227726 0 -1 0 I I #
vertex $-1 $416 $548 #
point $-1 -46.822331105921151 21.871480004343304 9.9390344237617221 #
vertex $-1 $420 $549 #
point $-1 -46.822331105921151 25.34816822503231 9.9390344237617221 #
edge $-1 $513 59.075972102040836 $516 70.457446145359398 $425 $550 forward 7 unknown #
vertex $-1 $439 $551 #
straight-curve $-1 27.602059643023903 8.1102614789398118 12.492784901227722 1 0 0 I I #
edge $-1 $516 1.1719673033150357 $436 12.704621047934516 $435 $552 forward 7 unknown #
vertex $-1 $515 $553 #
straight-curve $-1 -18.288815300838699 8.1102614789398118 74.604245444795666 -0.68199835119979291 0 0.73135370988377701 I I #
point $-1 39.631057270883069 8.1102614789398118 12.492784901227715 #
point $-1 50.244453260902738 19.642915223559292 1.1113108579091602 #
straight-curve $-1 50.244453260902738 0 12.492784901227726 0 1 0 I I #
vertex $-1 $442 $554 #
point $-1 42.712716040882476 11.405305405973948 2.6761741169379136 #
vertex $-1 $446 $555 #
point $-1 42.712716040882476 16.347871296525149 2.6761741169379136 #
straight-curve $-1 -50.244453260902738 27.665960372158317 0 0 0 -1 I I #
point $-1 -50.244453260902738 -27.665960372158317 -12.492784901227726 #
straight-curve $-1 -50.244453260902738 0 -12.492784901227726 0 1 0 I I #
point $-1 -50.244453260902738 27.665960372158317 -12.492784901227726 #
coedge $-1 $472 $468 $477 $534 forward $353 $-1 #
vertex $-1 $469 $556 #
straight-curve $-1 -50.244453260902738 0 12.492784901227726 0 -1 0 I I #
point $-1 -50.244453260902738 -12.216739070689975 12.492784901227726 #
straight-curve $-1 50.244453260902738 0 12.492784901227726 0 1 0 I I #
edge $-1 $530 -50.244453260902738 $481 50.244453260902738 $477 $557 forward 7 unknown #
straight-curve $-1 -50.244453260902738 -27.665960372158317 0 0 0 -1 I I #
point $-1 50.244453260902738 -27.665960372158317 12.492784901227726 #
straight-curve $-1 -50.244453260902738 7.7246106507341707 41.445048058745421 0 0 -1 I I #
point $-1 -50.244453260902738 7.7246106507341707 12.492784901227726 #
straight-curve $-1 -50.244453260902738 1.8342371966318325 8.2122859460769462 0 -1 0 I I #
point $-1 -50.244453260902738 7.7246106507341707 8.2122859460769515 #
point $-1 -46.859338207833616 1.930130282919162 9.2328967074428441 #
point $-1 -46.859338207833616 5.4068185036081644 9.2328967074428441 #
edge $-1 $506 -12.492784901227726 $500 -8.2122859460769515 $497 $558 forward 7 unknown #
straight-curve $-1 -50.244453260902738 11.804912057343905 8.2122859460769462 0 -1 0 I I #
point $-1 -50.244453260902738 27.665960372158317 8.2122859460769515 #
straight-curve $-1 0 27.665960372158317 12.492784901227726 -1 0 0 I I #
point $-1 -50.244453260902738 27.665960372158317 12.492784901227726 #
point $-1 -46.859338207833616 21.871480004343304 9.2328967074428441 #
point $-1 -46.859338207833616 25.34816822503231 9.2328967074428441 #
straight-curve $-1 50.244453260902738 8.1102614789398118 71.568757003268558 0 0 -1 I I #
point $-1 50.244453260902738 8.1102614789398118 12.492784901227726 #
straight-curve $-1 50.244453260902745 6.938294175624776 1.1113108579091673 0 1 0 I I #
point $-1 50.244453260902738 8.1102614789398118 1.1113108579091602 #
point $-1 40.592687949257126 11.405305405973948 2.7502071549638898 #
point $-1 40.592687949257126 16.347871296525149 2.7502071549638898 #
point $-1 -50.244453260902738 -27.665960372158317 12.492784901227726 #
straight-curve $-1 0 -27.665960372158317 12.492784901227726 1 0 0 I I #
straight-curve $-1 -50.244453260902738 27.665960372158317 0 0 0 -1 I I #
End-of-ACIS-data 