500 0 14 0           
7 Unknown 11 ACIS 5.0 NT 24 Thu Mar 25 22:43:31 1999 
-1 9.9999999999999995e-007 1e-010 
body $-1 $14 $-1 $15 #
body $-1 $16 $-1 $17 #
body $-1 $18 $-1 $19 #
body $-1 $20 $-1 $21 #
body $-1 $22 $-1 $23 #
body $-1 $24 $-1 $25 #
body $-1 $26 $-1 $27 #
body $-1 $28 $-1 $29 #
body $-1 $30 $-1 $31 #
body $-1 $32 $-1 $33 #
body $-1 $34 $-1 $35 #
body $-1 $36 $-1 $37 #
body $-1 $38 $-1 $39 #
body $-1 $40 $-1 $41 #
lump $-1 $-1 $42 $0 #
transform $-1 1 0 0 0 1 0 0 0 1 48.333994567705311 22.198943584941176 7.8524520221557568 1 rotate no_reflect no_shear #
lump $-1 $-1 $43 $1 #
transform $-1 1 0 0 0 1 0 0 0 1 48.333994567705311 22.198943584941176 7.8524520221557568 1 rotate no_reflect no_shear #
lump $-1 $-1 $44 $2 #
transform $-1 1 0 0 0 1 0 0 0 1 48.333994567705311 22.198943584941176 7.8524520221557568 1 rotate no_reflect no_shear #
lump $-1 $-1 $45 $3 #
transform $-1 1 0 0 0 1 0 0 0 1 48.333994567705311 22.198943584941176 7.8524520221557568 1 rotate no_reflect no_shear #
lump $-1 $-1 $46 $4 #
transform $-1 1 0 0 0 1 0 0 0 1 48.333994567705311 22.198943584941176 7.8524520221557568 1 rotate no_reflect no_shear #
lump $-1 $-1 $47 $5 #
transform $-1 1 0 0 0 1 0 0 0 1 48.333994567705311 22.198943584941176 7.8524520221557568 1 rotate no_reflect no_shear #
lump $-1 $-1 $48 $6 #
transform $-1 1 0 0 0 1 0 0 0 1 48.333994567705311 22.198943584941176 7.8524520221557568 1 rotate no_reflect no_shear #
lump $-1 $-1 $49 $7 #
transform $-1 1 0 0 0 1 0 0 0 1 48.333994567705311 22.198943584941176 7.8524520221557568 1 rotate no_reflect no_shear #
lump $-1 $-1 $50 $8 #
transform $-1 1 0 0 0 1 0 0 0 1 48.333994567705311 22.198943584941176 7.8524520221557568 1 rotate no_reflect no_shear #
lump $-1 $-1 $51 $9 #
transform $-1 1 0 0 0 1 0 0 0 1 48.333994567705311 22.198943584941176 7.8524520221557568 1 rotate no_reflect no_shear #
lump $-1 $-1 $52 $10 #
transform $-1 1 0 0 0 1 0 0 0 1 48.333994567705311 22.198943584941176 7.8524520221557568 1 rotate no_reflect no_shear #
lump $-1 $-1 $53 $11 #
transform $-1 1 0 0 0 1 0 0 0 1 48.333994567705311 22.198943584941176 7.8524520221557568 1 rotate no_reflect no_shear #
lump $-1 $-1 $54 $12 #
transform $-1 1 0 0 0 1 0 0 0 1 48.333994567705311 22.198943584941176 7.8524520221557568 1 rotate no_reflect no_shear #
lump $-1 $-1 $55 $13 #
transform $-1 1 0 0 0 1 0 0 0 1 48.333994567705311 22.198943584941176 7.8524520221557568 1 rotate no_reflect no_shear #
shell $-1 $-1 $-1 $56 $-1 $14 #
shell $-1 $-1 $-1 $57 $-1 $16 #
shell $-1 $-1 $-1 $58 $-1 $18 #
shell $-1 $-1 $-1 $59 $-1 $20 #
shell $-1 $-1 $-1 $60 $-1 $22 #
shell $-1 $-1 $-1 $61 $-1 $24 #
shell $-1 $-1 $-1 $62 $-1 $26 #
shell $-1 $-1 $-1 $63 $-1 $28 #
shell $-1 $-1 $-1 $64 $-1 $30 #
shell $-1 $-1 $-1 $65 $-1 $32 #
shell $-1 $-1 $-1 $66 $-1 $34 #
shell $-1 $-1 $-1 $67 $-1 $36 #
shell $-1 $-1 $-1 $68 $-1 $38 #
shell $-1 $-1 $-1 $69 $-1 $40 #
face $-1 $70 $71 $42 $-1 $72 forward single #
face $-1 $73 $74 $43 $-1 $75 forward single #
face $-1 $76 $77 $44 $-1 $78 reversed single #
face $-1 $79 $80 $45 $-1 $81 forward single #
face $-1 $82 $83 $46 $-1 $84 forward single #
face $-1 $85 $86 $47 $-1 $87 forward single #
face $-1 $88 $89 $48 $-1 $90 reversed single #
face $-1 $91 $92 $49 $-1 $93 forward single #
face $-1 $94 $95 $50 $-1 $96 forward single #
face $-1 $97 $98 $51 $-1 $99 forward single #
face $-1 $100 $101 $52 $-1 $102 reversed single #
face $-1 $103 $104 $53 $-1 $105 forward single #
face $-1 $106 $107 $54 $-1 $108 forward single #
face $-1 $109 $110 $55 $-1 $111 forward single #
face $-1 $112 $113 $42 $-1 $114 reversed single #
loop $-1 $-1 $115 $56 #
plane-surface $-1 0 0 7.8524520221557568 0 0 1 1 0 0 forward_v I I I I #
face $-1 $116 $117 $43 $-1 $118 reversed single #
loop $-1 $-1 $119 $57 #
plane-surface $-1 0 -22.198943584941176 0 0 1 0 0 0 1 forward_v I I I I #
face $-1 $120 $121 $44 $-1 $122 reversed single #
loop $-1 $-1 $123 $58 #
plane-surface $-1 79.086871027725948 11.556022561974615 135.6776892856231 0 1 0 0.84804810408105047 0 0.52991925155115449 forward_v I I I I #
face $-1 $124 $125 $45 $-1 $126 forward single #
loop $-1 $127 $128 $59 #
cone-surface $-1 46.229041990074023 13.684606766567924 4.8974443465116044 -0.84804810408105047 0 -0.52991925155115449 0.26495962577557725 0 -0.42402405204052523 1 I I 0 1 0.5 forward I I I I #
face $-1 $129 $130 $46 $-1 $131 forward single #
loop $-1 $132 $133 $60 #
cone-surface $-1 46.229041990074023 16.877483073457896 4.8974443465116044 -0.84804810408105047 0 -0.52991925155115449 0.26495962577557725 0 -0.42402405204052523 1 I I 0 1 0.5 forward I I I I #
face $-1 $134 $135 $47 $-1 $136 forward single #
loop $-1 $137 $138 $61 #
cone-surface $-1 46.229041990074023 20.070359380347867 4.8974443465116044 -0.84804810408105047 0 -0.52991925155115449 0.26495962577557725 0 -0.42402405204052523 1 I I 0 1 0.5 forward I I I I #
face $-1 $139 $140 $48 $-1 $141 reversed single #
loop $-1 $-1 $142 $62 #
plane-surface $-1 -129.40659269180404 -4.9066087633343383 56.532808967263463 0 1 0 -0.83867057594974714 0 0.54463902268945019 forward_v I I I I #
face $-1 $143 $144 $49 $-1 $145 forward single #
loop $-1 $146 $147 $63 #
cone-surface $-1 -46.403496255003049 -3.2872936766311511 5.4512525672872485 0.83867057594974714 0 -0.54463902268945019 0.2723195113447251 0 0.41933528797487357 1 I I 0 1 0.5 forward I I I I #
face $-1 $148 $149 $50 $-1 $150 forward single #
loop $-1 $151 $152 $64 #
cone-surface $-1 -46.403496255003049 -0.85832104657637487 5.4512525672872485 0.83867057594974714 0 -0.54463902268945019 0.2723195113447251 0 0.41933528797487357 1 I I 0 1 0.5 forward I I I I #
face $-1 $153 $154 $51 $-1 $155 forward single #
loop $-1 $156 $157 $65 #
cone-surface $-1 -46.403496255003049 1.5706515834784014 5.4512525672872485 0.83867057594974714 0 -0.54463902268945019 0.2723195113447251 0 0.41933528797487357 1 I I 0 1 0.5 forward I I I I #
face $-1 $158 $159 $52 $-1 $160 reversed single #
loop $-1 $-1 $161 $66 #
plane-surface $-1 -129.40659269180404 14.102368151425255 56.532808967263463 0 1 0 -0.83867057594974714 0 0.54463902268945019 forward_v I I I I #
face $-1 $162 $163 $53 $-1 $164 forward single #
loop $-1 $165 $166 $67 #
cone-surface $-1 -46.403496255003049 15.721683238128442 5.4512525672872485 0.83867057594974714 0 -0.54463902268945019 0.2723195113447251 0 0.41933528797487357 1 I I 0 1 0.5 forward I I I I #
face $-1 $167 $168 $54 $-1 $169 forward single #
loop $-1 $170 $171 $68 #
cone-surface $-1 -46.403496255003049 18.150655868183222 5.4512525672872485 0.83867057594974714 0 -0.54463902268945019 0.2723195113447251 0 0.41933528797487357 1 I I 0 1 0.5 forward I I I I #
face $-1 $172 $173 $55 $-1 $174 forward single #
loop $-1 $175 $176 $69 #
cone-surface $-1 -46.403496255003049 20.579628498237994 5.4512525672872485 0.83867057594974714 0 -0.54463902268945019 0.2723195113447251 0 0.41933528797487357 1 I I 0 1 0.5 forward I I I I #
face $-1 $177 $178 $42 $-1 $179 reversed single #
loop $-1 $-1 $180 $70 #
plane-surface $-1 0 0 -7.8524520221557568 0 0 1 1 0 0 forward_v I I I I #
coedge $-1 $181 $182 $183 $184 forward $71 $-1 #
face $-1 $185 $186 $43 $-1 $187 forward single #
loop $-1 $-1 $188 $73 #
plane-surface $-1 -48.333994567705311 0 0 1 0 0 0 0 -1 forward_v I I I I #
coedge $-1 $189 $190 $191 $192 forward $74 $-1 #
face $-1 $193 $194 $44 $-1 $195 forward single #
loop $-1 $-1 $196 $76 #
plane-surface $-1 -2.8922338838866182 16.877483073457896 84.451460834031167 0.84804810408105047 0 0.52991925155115449 0.52991925155115449 0 -0.84804810408105047 forward_v I I I I #
coedge $-1 $197 $198 $199 $200 reversed $77 $-1 #
face $-1 $-1 $201 $45 $-1 $202 forward single #
loop $-1 $203 $204 $79 #
cone-surface $-1 45.593005912013233 13.684606766567924 4.5000049078482389 -0.84804810408105047 0 -0.52991925155115449 0.13247981288778862 0 -0.21201202602026262 1 I I -0.70710678118654746 0.70710678118654746 0.25 forward I I I I #
loop $-1 $-1 $205 $59 #
coedge $-1 $128 $128 $206 $207 reversed $80 $-1 #
face $-1 $-1 $208 $46 $-1 $209 forward single #
loop $-1 $210 $211 $82 #
cone-surface $-1 45.593005912013233 16.877483073457896 4.5000049078482389 -0.84804810408105047 0 -0.52991925155115449 0.13247981288778862 0 -0.21201202602026262 1 I I -0.70710678118654746 0.70710678118654746 0.25 forward I I I I #
loop $-1 $-1 $212 $60 #
coedge $-1 $133 $133 $213 $214 reversed $83 $-1 #
face $-1 $-1 $215 $47 $-1 $216 forward single #
loop $-1 $217 $218 $85 #
cone-surface $-1 45.593005912013233 20.070359380347867 4.5000049078482389 -0.84804810408105047 0 -0.52991925155115449 0.13247981288778862 0 -0.21201202602026262 1 I I -0.70710678118654746 0.70710678118654746 0.25 forward I I I I #
loop $-1 $-1 $219 $61 #
coedge $-1 $138 $138 $220 $221 reversed $86 $-1 #
face $-1 $222 $223 $48 $-1 $224 reversed single #
loop $-1 $-1 $225 $88 #
plane-surface $-1 -48.333994567705304 -0.85832104657637842 3.8836498391990304 -0.83867057594974714 0 0.54463902268945019 0.54463902268945019 0 0.83867057594974714 forward_v I I I I #
coedge $-1 $226 $227 $228 $229 reversed $89 $-1 #
face $-1 $-1 $230 $49 $-1 $231 forward single #
loop $-1 $232 $233 $91 #
cone-surface $-1 -45.552015393605664 -3.2872936766311511 4.8982944482247381 0.83867057594974714 0 -0.54463902268945019 0.13615975567236255 0 0.20966764398743679 1 I I -0.70710678118654746 0.70710678118654746 0.25 forward I I I I #
loop $-1 $-1 $234 $63 #
coedge $-1 $147 $147 $235 $236 reversed $92 $-1 #
face $-1 $-1 $237 $50 $-1 $238 forward single #
loop $-1 $239 $240 $94 #
cone-surface $-1 -45.552015393605664 -0.85832104657637487 4.8982944482247381 0.83867057594974714 0 -0.54463902268945019 0.13615975567236255 0 0.20966764398743679 1 I I -0.70710678118654746 0.70710678118654746 0.25 forward I I I I #
loop $-1 $-1 $241 $64 #
coedge $-1 $152 $152 $242 $243 reversed $95 $-1 #
face $-1 $-1 $244 $51 $-1 $245 forward single #
loop $-1 $246 $247 $97 #
cone-surface $-1 -45.552015393605664 1.5706515834784014 4.8982944482247381 0.83867057594974714 0 -0.54463902268945019 0.13615975567236255 0 0.20966764398743679 1 I I -0.70710678118654746 0.70710678118654746 0.25 forward I I I I #
loop $-1 $-1 $248 $65 #
coedge $-1 $157 $157 $249 $250 reversed $98 $-1 #
face $-1 $251 $252 $52 $-1 $253 forward single #
loop $-1 $-1 $254 $100 #
plane-surface $-1 -48.333994567705304 18.150655868183215 3.8836498391990304 -0.83867057594974714 0 0.54463902268945019 0.54463902268945019 0 0.83867057594974714 forward_v I I I I #
coedge $-1 $255 $256 $257 $258 reversed $101 $-1 #
face $-1 $-1 $259 $53 $-1 $260 forward single #
loop $-1 $261 $262 $103 #
cone-surface $-1 -45.552015393605664 15.721683238128442 4.8982944482247381 0.83867057594974714 0 -0.54463902268945019 0.13615975567236255 0 0.20966764398743679 1 I I -0.70710678118654746 0.70710678118654746 0.25 forward I I I I #
loop $-1 $-1 $263 $67 #
coedge $-1 $166 $166 $264 $265 reversed $104 $-1 #
face $-1 $-1 $266 $54 $-1 $267 forward single #
loop $-1 $268 $269 $106 #
cone-surface $-1 -45.552015393605664 18.150655868183222 4.8982944482247381 0.83867057594974714 0 -0.54463902268945019 0.13615975567236255 0 0.20966764398743679 1 I I -0.70710678118654746 0.70710678118654746 0.25 forward I I I I #
loop $-1 $-1 $270 $68 #
coedge $-1 $171 $171 $271 $272 reversed $107 $-1 #
face $-1 $-1 $273 $55 $-1 $274 forward single #
loop $-1 $275 $276 $109 #
cone-surface $-1 -45.552015393605664 20.579628498237994 4.8982944482247381 0.83867057594974714 0 -0.54463902268945019 0.13615975567236255 0 0.20966764398743679 1 I I -0.70710678118654746 0.70710678118654746 0.25 forward I I I I #
loop $-1 $-1 $277 $69 #
coedge $-1 $176 $176 $278 $279 reversed $110 $-1 #
face $-1 $280 $281 $42 $-1 $282 reversed single #
loop $-1 $-1 $283 $112 #
plane-surface $-1 0 -22.198943584941176 0 0 1 0 0 0 1 forward_v I I I I #
coedge $-1 $284 $285 $286 $287 forward $113 $-1 #
coedge $-1 $288 $115 $289 $290 forward $71 $-1 #
coedge $-1 $115 $288 $291 $292 forward $71 $-1 #
coedge $-1 $293 $294 $115 $184 reversed $295 $-1 #
edge $-1 $296 -22.198943584941176 $297 22.198943584941176 $183 $298 forward 7 unknown #
face $-1 $299 $300 $43 $-1 $301 reversed single #
loop $-1 $-1 $302 $116 #
plane-surface $-1 0 -25.388910255122759 4.37840554212519 0 0 1 1 0 0 forward_v I I I I #
coedge $-1 $303 $304 $190 $305 forward $117 $-1 #
coedge $-1 $306 $119 $307 $308 reversed $74 $-1 #
coedge $-1 $119 $306 $188 $305 reversed $74 $-1 #
coedge $-1 $309 $302 $119 $192 reversed $186 $-1 #
edge $-1 $310 -48.333994567705311 $311 48.333994567705311 $191 $312 forward 7 unknown #
face $-1 $313 $314 $44 $-1 $315 reversed single #
loop $-1 $-1 $316 $120 #
plane-surface $-1 0 0 7.8524520221557568 0 0 1 1 0 0 forward_v I I I I #
coedge $-1 $317 $318 $319 $320 reversed $121 $-1 #
coedge $-1 $198 $123 $321 $322 reversed $77 $-1 #
coedge $-1 $123 $197 $317 $323 reversed $77 $-1 #
coedge $-1 $319 $324 $123 $200 forward $314 $-1 #
edge $-1 $325 59.986392620655792 $326 65.366488720392951 $199 $327 forward 7 unknown #
loop $-1 $-1 $206 $124 #
plane-surface $-1 -2.8922338838866182 16.877483073457896 84.451460834031167 0.84804810408105047 0 0.52991925155115449 0.52991925155115449 0 -0.84804810408105047 forward_v I I I I #
loop $-1 $-1 $328 $79 #
coedge $-1 $204 $204 $205 $329 reversed $125 $-1 #
coedge $-1 $205 $205 $204 $329 forward $127 $-1 #
coedge $-1 $206 $206 $128 $207 forward $201 $-1 #
edge $-1 $330 0 $330 6.2831853071796004 $206 $331 forward 7 unknown #
loop $-1 $-1 $213 $129 #
plane-surface $-1 -2.8922338838866182 16.877483073457896 84.451460834031167 0.84804810408105047 0 0.52991925155115449 0.52991925155115449 0 -0.84804810408105047 forward_v I I I I #
loop $-1 $-1 $332 $82 #
coedge $-1 $211 $211 $212 $333 reversed $130 $-1 #
coedge $-1 $212 $212 $211 $333 forward $132 $-1 #
coedge $-1 $213 $213 $133 $214 forward $208 $-1 #
edge $-1 $334 0 $334 6.2831853071796004 $213 $335 forward 7 unknown #
loop $-1 $-1 $220 $134 #
plane-surface $-1 -2.8922338838866182 16.877483073457896 84.451460834031167 0.84804810408105047 0 0.52991925155115449 0.52991925155115449 0 -0.84804810408105047 forward_v I I I I #
loop $-1 $-1 $336 $85 #
coedge $-1 $218 $218 $219 $337 reversed $135 $-1 #
coedge $-1 $219 $219 $218 $337 forward $137 $-1 #
coedge $-1 $220 $220 $138 $221 forward $215 $-1 #
edge $-1 $338 0 $338 6.2831853071796004 $220 $339 forward 7 unknown #
face $-1 $340 $341 $48 $-1 $342 reversed single #
loop $-1 $-1 $343 $139 #
plane-surface $-1 -129.40659269180404 3.1899666701815814 56.532808967263463 0 -1 0 0.83867057594974714 0 -0.54463902268945019 forward_v I I I I #
coedge $-1 $344 $345 $346 $347 reversed $140 $-1 #
coedge $-1 $227 $142 $348 $349 reversed $89 $-1 #
coedge $-1 $142 $226 $344 $350 reversed $89 $-1 #
coedge $-1 $346 $351 $142 $229 forward $352 $-1 #
edge $-1 $353 16.369301778196707 $354 18.946671968781331 $228 $355 forward 7 unknown #
loop $-1 $-1 $235 $143 #
plane-surface $-1 -48.333994567705304 -0.85832104657637842 3.8836498391990304 -0.83867057594974714 0 0.54463902268945019 0.54463902268945019 0 0.83867057594974714 forward_v I I I I #
loop $-1 $-1 $356 $91 #
coedge $-1 $233 $233 $234 $357 reversed $144 $-1 #
coedge $-1 $234 $234 $233 $357 forward $146 $-1 #
coedge $-1 $235 $235 $147 $236 forward $230 $-1 #
edge $-1 $358 0 $358 6.2831853071796004 $235 $359 forward 7 unknown #
loop $-1 $-1 $242 $148 #
plane-surface $-1 -48.333994567705304 -0.85832104657637842 3.8836498391990304 -0.83867057594974714 0 0.54463902268945019 0.54463902268945019 0 0.83867057594974714 forward_v I I I I #
loop $-1 $-1 $360 $94 #
coedge $-1 $240 $240 $241 $361 reversed $149 $-1 #
coedge $-1 $241 $241 $240 $361 forward $151 $-1 #
coedge $-1 $242 $242 $152 $243 forward $237 $-1 #
edge $-1 $362 0 $362 6.2831853071796004 $242 $363 forward 7 unknown #
loop $-1 $-1 $249 $153 #
plane-surface $-1 -48.333994567705304 -0.85832104657637842 3.8836498391990304 -0.83867057594974714 0 0.54463902268945019 0.54463902268945019 0 0.83867057594974714 forward_v I I I I #
loop $-1 $-1 $364 $97 #
coedge $-1 $247 $247 $248 $365 reversed $154 $-1 #
coedge $-1 $248 $248 $247 $365 forward $156 $-1 #
coedge $-1 $249 $249 $157 $250 forward $244 $-1 #
edge $-1 $366 0 $366 6.2831853071796004 $249 $367 forward 7 unknown #
face $-1 $368 $369 $52 $-1 $370 reversed single #
loop $-1 $-1 $257 $158 #
plane-surface $-1 0 0 7.8524520221557568 0 0 1 1 0 0 forward_v I I I I #
coedge $-1 $371 $372 $373 $374 reversed $159 $-1 #
coedge $-1 $256 $161 $375 $376 reversed $101 $-1 #
coedge $-1 $161 $255 $371 $377 reversed $101 $-1 #
coedge $-1 $373 $378 $161 $258 forward $252 $-1 #
edge $-1 $379 16.369301778196707 $380 18.946671968781331 $257 $381 forward 7 unknown #
loop $-1 $-1 $264 $162 #
plane-surface $-1 -48.333994567705304 18.150655868183215 3.8836498391990304 -0.83867057594974714 0 0.54463902268945019 0.54463902268945019 0 0.83867057594974714 forward_v I I I I #
loop $-1 $-1 $382 $103 #
coedge $-1 $262 $262 $263 $383 reversed $163 $-1 #
coedge $-1 $263 $263 $262 $383 forward $165 $-1 #
coedge $-1 $264 $264 $166 $265 forward $259 $-1 #
edge $-1 $384 0 $384 6.2831853071796004 $264 $385 forward 7 unknown #
loop $-1 $-1 $271 $167 #
plane-surface $-1 -48.333994567705304 18.150655868183215 3.8836498391990304 -0.83867057594974714 0 0.54463902268945019 0.54463902268945019 0 0.83867057594974714 forward_v I I I I #
loop $-1 $-1 $386 $106 #
coedge $-1 $269 $269 $270 $387 reversed $168 $-1 #
coedge $-1 $270 $270 $269 $387 forward $170 $-1 #
coedge $-1 $271 $271 $171 $272 forward $266 $-1 #
edge $-1 $388 0 $388 6.2831853071796004 $271 $389 forward 7 unknown #
loop $-1 $-1 $278 $172 #
plane-surface $-1 -48.333994567705304 18.150655868183215 3.8836498391990304 -0.83867057594974714 0 0.54463902268945019 0.54463902268945019 0 0.83867057594974714 forward_v I I I I #
loop $-1 $-1 $390 $109 #
coedge $-1 $276 $276 $277 $391 reversed $173 $-1 #
coedge $-1 $277 $277 $276 $391 forward $175 $-1 #
coedge $-1 $278 $278 $176 $279 forward $273 $-1 #
edge $-1 $392 0 $392 6.2831853071796004 $278 $393 forward 7 unknown #
face $-1 $394 $395 $42 $-1 $396 reversed single #
loop $-1 $-1 $397 $177 #
plane-surface $-1 -48.333994567705311 0 0 1 0 0 0 0 -1 forward_v I I I I #
coedge $-1 $398 $291 $399 $400 forward $178 $-1 #
coedge $-1 $401 $180 $398 $402 forward $113 $-1 #
coedge $-1 $180 $401 $403 $404 forward $113 $-1 #
coedge $-1 $294 $293 $180 $287 reversed $295 $-1 #
edge $-1 $405 -22.198943584941176 $406 22.198943584941176 $286 $407 forward 7 unknown #
coedge $-1 $182 $181 $408 $409 forward $71 $-1 #
coedge $-1 $410 $411 $181 $290 reversed $395 $-1 #
edge $-1 $297 -48.333994567705311 $412 48.333994567705311 $289 $413 forward 7 unknown #
coedge $-1 $283 $414 $182 $292 reversed $178 $-1 #
edge $-1 $415 -48.333994567705311 $296 48.333994567705311 $291 $416 forward 7 unknown #
coedge $-1 $286 $183 $414 $417 forward $295 $-1 #
coedge $-1 $183 $286 $410 $418 reversed $295 $-1 #
loop $-1 $-1 $293 $394 #
vertex $-1 $184 $419 #
vertex $-1 $184 $420 #
straight-curve $-1 48.333994567705311 0 7.8524520221557568 0 1 0 I I #
face $-1 $421 $422 $43 $-1 $423 reversed single #
loop $-1 $-1 $424 $185 #
plane-surface $-1 0 -25.388910255122759 0.11641273737555613 0 0 1 1 0 0 forward_v I I I I #
coedge $-1 $191 $425 $426 $427 forward $186 $-1 #
coedge $-1 $428 $188 $429 $430 reversed $117 $-1 #
coedge $-1 $188 $428 $309 $431 reversed $117 $-1 #
edge $-1 $310 -4.37840554212519 $432 -0.11641273737555613 $188 $433 forward 7 unknown #
coedge $-1 $190 $189 $434 $435 forward $74 $-1 #
coedge $-1 $426 $436 $189 $308 forward $437 $-1 #
edge $-1 $438 0.11641273737555613 $311 4.37840554212519 $307 $439 forward 7 unknown #
coedge $-1 $425 $191 $304 $431 forward $186 $-1 #
vertex $-1 $305 $440 #
vertex $-1 $427 $441 #
straight-curve $-1 0 -22.198943584941176 4.37840554212519 1 0 0 I I #
face $-1 $-1 $442 $44 $-1 $443 reversed single #
loop $-1 $-1 $199 $193 #
plane-surface $-1 48.333994567705311 0 0 -1 0 0 0 0 1 forward_v I I I I #
coedge $-1 $321 $444 $445 $446 forward $194 $-1 #
coedge $-1 $445 $196 $198 $323 forward $121 $-1 #
coedge $-1 $196 $445 $447 $448 reversed $121 $-1 #
coedge $-1 $449 $199 $196 $320 forward $314 $-1 #
edge $-1 $326 3.1172810252456671 $450 13.760202048212228 $319 $451 forward 7 unknown #
coedge $-1 $452 $316 $197 $322 forward $194 $-1 #
edge $-1 $453 5.4287020026608133 $325 8.7905590538423368 $321 $454 forward 7 unknown #
edge $-1 $326 -96.667989135410608 $453 -90.323896065870585 $198 $455 forward 7 unknown #
coedge $-1 $199 $449 $452 $456 reversed $314 $-1 #
vertex $-1 $456 $457 #
vertex $-1 $200 $458 #
straight-curve $-1 48.333994567705311 11.556022561974615 67.838844642811551 0 0 -1 I I #
coedge $-1 $328 $328 $-1 $459 reversed $203 $-1 #
edge $-1 $460 0 $460 6.2831853071796004 $204 $461 forward 7 unknown #
vertex $-1 $207 $462 #
ellipse-curve $-1 46.653066042114553 13.684606766567924 5.1624039722871853 0.84804810408105047 0 0.52991925155115449 0.26495962577557725 0 -0.42402405204052523 1 I I #
coedge $-1 $332 $332 $-1 $463 reversed $210 $-1 #
edge $-1 $464 0 $464 6.2831853071796004 $211 $465 forward 7 unknown #
vertex $-1 $214 $466 #
ellipse-curve $-1 46.653066042114553 16.877483073457896 5.1624039722871853 0.84804810408105047 0 0.52991925155115449 0.26495962577557725 0 -0.42402405204052523 1 I I #
coedge $-1 $336 $336 $-1 $467 reversed $217 $-1 #
edge $-1 $468 0 $468 6.2831853071796004 $218 $469 forward 7 unknown #
vertex $-1 $221 $470 #
ellipse-curve $-1 46.653066042114553 20.070359380347867 5.1624039722871853 0.84804810408105047 0 0.52991925155115449 0.26495962577557725 0 -0.42402405204052523 1 I I #
face $-1 $-1 $352 $48 $-1 $471 forward single #
loop $-1 $-1 $472 $222 #
plane-surface $-1 -48.333994567705311 0 0 1 0 0 0 0 -1 forward_v I I I I #
coedge $-1 $473 $474 $475 $476 reversed $223 $-1 #
coedge $-1 $477 $225 $227 $350 forward $140 $-1 #
coedge $-1 $225 $477 $473 $478 forward $140 $-1 #
coedge $-1 $475 $228 $225 $347 forward $352 $-1 #
edge $-1 $354 -4.4774482400461491 $479 3.6191271934697706 $346 $480 forward 7 unknown #
coedge $-1 $481 $482 $226 $349 forward $341 $-1 #
edge $-1 $483 -24.382754644432712 $353 -20.413952461475976 $348 $484 forward 7 unknown #
edge $-1 $354 -4.7322539943198594 $483 1.3181006846785195e-014 $227 $485 forward 7 unknown #
coedge $-1 $228 $475 $481 $486 forward $352 $-1 #
loop $-1 $-1 $475 $340 #
vertex $-1 $349 $487 #
vertex $-1 $229 $488 #
straight-curve $-1 -64.703296345902018 -4.9066087633343383 7.8524520221557559 1 0 0 I I #
coedge $-1 $356 $356 $-1 $489 reversed $232 $-1 #
edge $-1 $490 0 $490 6.2831853071796004 $233 $491 forward 7 unknown #
vertex $-1 $236 $492 #
ellipse-curve $-1 -47.045309472412995 -3.2872936766311511 5.868050930677394 -0.83867057594974714 0 0.54463902268945019 0.2723195113447251 0 0.41933528797487357 1 I I #
coedge $-1 $360 $360 $-1 $493 reversed $239 $-1 #
edge $-1 $494 0 $494 6.2831853071796004 $240 $495 forward 7 unknown #
vertex $-1 $243 $496 #
ellipse-curve $-1 -47.045309472412995 -0.85832104657637487 5.868050930677394 -0.83867057594974714 0 0.54463902268945019 0.2723195113447251 0 0.41933528797487357 1 I I #
coedge $-1 $364 $364 $-1 $497 reversed $246 $-1 #
edge $-1 $498 0 $498 6.2831853071796004 $247 $499 forward 7 unknown #
vertex $-1 $250 $500 #
ellipse-curve $-1 -47.045309472412995 1.5706515834784014 5.868050930677394 -0.83867057594974714 0 0.54463902268945019 0.2723195113447251 0 0.41933528797487357 1 I I #
face $-1 $-1 $501 $52 $-1 $502 reversed single #
loop $-1 $-1 $503 $251 #
plane-surface $-1 0 22.198943584941176 0 0 -1 0 0 0 -1 forward_v I I I I #
coedge $-1 $504 $254 $256 $377 forward $159 $-1 #
coedge $-1 $254 $504 $503 $505 reversed $159 $-1 #
coedge $-1 $506 $257 $254 $374 forward $252 $-1 #
edge $-1 $380 5.0270402173336475 $507 13.123615650849569 $373 $508 forward 7 unknown #
coedge $-1 $509 $510 $255 $376 forward $501 $-1 #
edge $-1 $511 -24.382754644432712 $379 -20.413952461475976 $375 $512 forward 7 unknown #
edge $-1 $380 -4.7322539943198594 $511 1.3181006846785195e-014 $256 $513 forward 7 unknown #
coedge $-1 $257 $506 $509 $514 forward $252 $-1 #
vertex $-1 $376 $515 #
vertex $-1 $258 $516 #
straight-curve $-1 -64.703296345902018 14.102368151425255 7.8524520221557559 1 0 0 I I #
coedge $-1 $382 $382 $-1 $517 reversed $261 $-1 #
edge $-1 $518 0 $518 6.2831853071796004 $262 $519 forward 7 unknown #
vertex $-1 $265 $520 #
ellipse-curve $-1 -47.045309472412995 15.721683238128442 5.868050930677394 -0.83867057594974714 0 0.54463902268945019 0.2723195113447251 0 0.41933528797487357 1 I I #
coedge $-1 $386 $386 $-1 $521 reversed $268 $-1 #
edge $-1 $522 0 $522 6.2831853071796004 $269 $523 forward 7 unknown #
vertex $-1 $272 $524 #
ellipse-curve $-1 -47.045309472412995 18.150655868183222 5.868050930677394 -0.83867057594974714 0 0.54463902268945019 0.2723195113447251 0 0.41933528797487357 1 I I #
coedge $-1 $390 $390 $-1 $525 reversed $275 $-1 #
edge $-1 $526 0 $526 6.2831853071796004 $276 $527 forward 7 unknown #
vertex $-1 $279 $528 #
ellipse-curve $-1 -47.045309472412995 20.579628498237994 5.868050930677394 -0.83867057594974714 0 0.54463902268945019 0.2723195113447251 0 0.41933528797487357 1 I I #
face $-1 $-1 $295 $42 $-1 $529 reversed single #
loop $-1 $-1 $410 $280 #
plane-surface $-1 0 22.198943584941176 0 0 -1 0 0 0 -1 forward_v I I I I #
coedge $-1 $530 $408 $411 $531 forward $281 $-1 #
coedge $-1 $414 $283 $284 $402 reversed $178 $-1 #
coedge $-1 $408 $530 $283 $400 reversed $281 $-1 #
edge $-1 $415 -7.8524520221557568 $532 7.8524520221557568 $399 $533 forward 7 unknown #
coedge $-1 $285 $284 $530 $534 forward $113 $-1 #
edge $-1 $406 -48.333994567705311 $532 48.333994567705311 $398 $535 forward 7 unknown #
coedge $-1 $411 $410 $285 $404 reversed $395 $-1 #
edge $-1 $536 -48.333994567705311 $405 48.333994567705311 $403 $537 forward 7 unknown #
vertex $-1 $287 $538 #
vertex $-1 $417 $539 #
straight-curve $-1 48.333994567705311 0 -7.8524520221557568 0 -1 0 I I #
coedge $-1 $397 $399 $288 $409 reversed $281 $-1 #
edge $-1 $412 -22.198943584941176 $415 22.198943584941176 $408 $540 forward 7 unknown #
coedge $-1 $403 $289 $294 $418 forward $395 $-1 #
coedge $-1 $289 $403 $397 $531 reversed $395 $-1 #
vertex $-1 $290 $541 #
straight-curve $-1 0 22.198943584941176 7.8524520221557568 -1 0 0 I I #
coedge $-1 $291 $398 $293 $417 reversed $178 $-1 #
vertex $-1 $409 $542 #
straight-curve $-1 0 -22.198943584941176 7.8524520221557568 1 0 0 I I #
edge $-1 $296 -7.8524520221557568 $406 7.8524520221557568 $293 $543 forward 7 unknown #
edge $-1 $297 -7.8524520221557568 $405 7.8524520221557568 $294 $544 forward 7 unknown #
point $-1 48.333994567705311 -22.198943584941176 7.8524520221557568 #
point $-1 48.333994567705311 22.198943584941176 7.8524520221557568 #
face $-1 $-1 $437 $43 $-1 $545 reversed single #
loop $-1 $-1 $546 $299 #
plane-surface $-1 0 -28.578876925304343 2.2474091397503733 0 1 0 0 0 1 forward_v I I I I #
coedge $-1 $547 $434 $436 $548 forward $300 $-1 #
coedge $-1 $302 $309 $549 $550 forward $186 $-1 #
coedge $-1 $551 $307 $302 $427 reversed $437 $-1 #
edge $-1 $552 -3.1899666701815832 $311 3.1899666701815832 $426 $553 forward 7 unknown #
coedge $-1 $304 $303 $546 $554 reversed $117 $-1 #
coedge $-1 $434 $547 $303 $430 forward $300 $-1 #
edge $-1 $555 -3.1899666701815832 $432 3.1899666701815832 $303 $556 forward 7 unknown #
edge $-1 $310 -3.1899666701815832 $557 3.1899666701815832 $304 $558 forward 7 unknown #
vertex $-1 $305 $559 #
straight-curve $-1 -48.333994567705311 -22.198943584941176 0 0 0 -1 I I #
coedge $-1 $424 $429 $306 $435 reversed $300 $-1 #
edge $-1 $438 -48.333994567705311 $432 48.333994567705311 $434 $560 forward 7 unknown #
coedge $-1 $307 $551 $424 $548 reversed $437 $-1 #
loop $-1 $-1 $307 $421 #
vertex $-1 $308 $561 #
straight-curve $-1 48.333994567705311 -22.198943584941176 0 0 0 1 I I #
point $-1 -48.333994567705311 -22.198943584941176 4.37840554212519 #
point $-1 48.333994567705311 -22.198943584941176 4.37840554212519 #
loop $-1 $-1 $447 $313 #
plane-surface $-1 0 22.198943584941176 0 0 -1 0 0 0 -1 forward_v I I I I #
coedge $-1 $316 $452 $562 $563 forward $194 $-1 #
coedge $-1 $318 $317 $316 $446 reversed $121 $-1 #
edge $-1 $564 -13.760202048212228 $453 -3.1172810252456671 $316 $565 forward 7 unknown #
coedge $-1 $562 $566 $318 $448 forward $442 $-1 #
edge $-1 $450 -60.092213304292962 $564 -53.748120234752932 $447 $567 forward 7 unknown #
coedge $-1 $324 $319 $566 $568 reversed $314 $-1 #
vertex $-1 $320 $569 #
straight-curve $-1 48.333994567705311 8.4387415367289478 2.4723559224186076 0 1 0 I I #
coedge $-1 $444 $321 $324 $456 forward $194 $-1 #
vertex $-1 $322 $570 #
straight-curve $-1 39.543435513862974 11.556022561974615 7.8524520221557594 1 0 0 I I #
straight-curve $-1 -2.8922338838866182 11.556022561974615 84.451460834031167 -0.52991925155115449 0 0.84804810408105047 I I #
edge $-1 $325 11.556022561974615 $571 22.198943584941176 $324 $572 forward 7 unknown #
point $-1 48.333994567705311 11.556022561974615 7.8524520221557568 #
point $-1 48.333994567705311 11.556022561974615 2.4723559224186005 #
edge $-1 $573 1 $573 0 $328 $-1 forward 7 unknown #
vertex $-1 $329 $574 #
ellipse-curve $-1 45.805017938033494 13.684606766567924 4.6324847207360271 0.84804810408105047 0 0.52991925155115449 0.26495962577557725 0 -0.42402405204052523 1 I I #
point $-1 46.91802566789012 13.684606766567924 4.7383799202466568 #
edge $-1 $575 1 $575 0 $332 $-1 forward 7 unknown #
vertex $-1 $333 $576 #
ellipse-curve $-1 45.805017938033494 16.877483073457896 4.6324847207360271 0.84804810408105047 0 0.52991925155115449 0.26495962577557725 0 -0.42402405204052523 1 I I #
point $-1 46.91802566789012 16.877483073457896 4.7383799202466568 #
edge $-1 $577 1 $577 0 $336 $-1 forward 7 unknown #
vertex $-1 $337 $578 #
ellipse-curve $-1 45.805017938033494 20.070359380347867 4.6324847207360271 0.84804810408105047 0 0.52991925155115449 0.26495962577557725 0 -0.42402405204052523 1 I I #
point $-1 46.91802566789012 20.070359380347867 4.7383799202466568 #
plane-surface $-1 0 0 7.8524520221557568 0 0 1 1 0 0 forward_v I I I I #
coedge $-1 $482 $481 $474 $579 forward $341 $-1 #
coedge $-1 $474 $343 $345 $478 reversed $223 $-1 #
coedge $-1 $343 $473 $472 $579 reversed $223 $-1 #
coedge $-1 $351 $346 $343 $476 forward $352 $-1 #
edge $-1 $479 -18.946671968781331 $580 -16.369301778196707 $475 $581 forward 7 unknown #
coedge $-1 $345 $344 $482 $582 reversed $140 $-1 #
edge $-1 $583 -1.3181006846785195e-014 $479 4.7322539943198594 $473 $584 forward 7 unknown #
vertex $-1 $347 $585 #
straight-curve $-1 -45.756624377120694 -0.42916052328818921 7.8524520221557559 0 1 0 I I #
coedge $-1 $472 $348 $351 $486 reversed $341 $-1 #
coedge $-1 $348 $472 $477 $582 forward $341 $-1 #
vertex $-1 $349 $586 #
straight-curve $-1 -48.333994567705311 -4.9066087633343383 28.266404483631732 0 0 1 I I #
straight-curve $-1 -48.333994567705304 -4.9066087633343383 3.8836498391990304 -0.54463902268945019 0 -0.83867057594974714 I I #
edge $-1 $580 -3.1899666701815814 $353 4.9066087633343383 $481 $587 forward 7 unknown #
point $-1 -48.333994567705311 -4.9066087633343383 7.8524520221557568 #
point $-1 -45.756624377120687 -4.9066087633343383 7.8524520221557568 #
edge $-1 $588 1 $588 0 $356 $-1 forward 7 unknown #
vertex $-1 $357 $589 #
ellipse-curve $-1 -45.761683037593102 -3.2872936766311511 5.0344542038971003 -0.83867057594974714 0 0.54463902268945019 0.2723195113447251 0 0.41933528797487357 1 I I #
point $-1 -46.772989961068276 -3.2872936766311511 6.2873862186522693 #
edge $-1 $590 1 $590 0 $360 $-1 forward 7 unknown #
vertex $-1 $361 $591 #
ellipse-curve $-1 -45.761683037593102 -0.85832104657637487 5.0344542038971003 -0.83867057594974714 0 0.54463902268945019 0.2723195113447251 0 0.41933528797487357 1 I I #
point $-1 -46.772989961068276 -0.85832104657637487 6.2873862186522693 #
edge $-1 $592 1 $592 0 $364 $-1 forward 7 unknown #
vertex $-1 $365 $593 #
ellipse-curve $-1 -45.761683037593102 1.5706515834784014 5.0344542038971003 -0.83867057594974714 0 0.54463902268945019 0.2723195113447251 0 0.41933528797487357 1 I I #
point $-1 -46.772989961068276 1.5706515834784014 6.2873862186522693 #
loop $-1 $-1 $375 $368 #
plane-surface $-1 -48.333994567705311 0 0 1 0 0 0 0 -1 forward_v I I I I #
coedge $-1 $594 $595 $372 $505 forward $369 $-1 #
coedge $-1 $372 $371 $510 $596 reversed $159 $-1 #
edge $-1 $507 6.8014843639821496 $597 11.533738358302022 $503 $598 forward 7 unknown #
coedge $-1 $378 $373 $595 $599 forward $252 $-1 #
vertex $-1 $599 $600 #
straight-curve $-1 -45.756624377120694 9.0753279340916073 7.8524520221557559 0 1 0 I I #
coedge $-1 $601 $375 $378 $514 reversed $501 $-1 #
coedge $-1 $375 $601 $504 $596 forward $501 $-1 #
vertex $-1 $376 $602 #
straight-curve $-1 -48.333994567705311 14.102368151425255 28.266404483631732 0 0 1 I I #
straight-curve $-1 -48.333994567705304 14.102368151425255 3.8836498391990304 -0.54463902268945019 0 -0.83867057594974714 I I #
edge $-1 $603 -22.198943584941176 $379 -14.102368151425255 $509 $604 forward 7 unknown #
point $-1 -48.333994567705311 14.102368151425255 7.8524520221557568 #
point $-1 -45.756624377120687 14.102368151425255 7.8524520221557568 #
edge $-1 $605 1 $605 0 $382 $-1 forward 7 unknown #
vertex $-1 $383 $606 #
ellipse-curve $-1 -45.761683037593102 15.721683238128442 5.0344542038971003 -0.83867057594974714 0 0.54463902268945019 0.2723195113447251 0 0.41933528797487357 1 I I #
point $-1 -46.772989961068276 15.721683238128442 6.2873862186522693 #
edge $-1 $607 1 $607 0 $386 $-1 forward 7 unknown #
vertex $-1 $387 $608 #
ellipse-curve $-1 -45.761683037593102 18.150655868183222 5.0344542038971003 -0.83867057594974714 0 0.54463902268945019 0.2723195113447251 0 0.41933528797487357 1 I I #
point $-1 -46.772989961068276 18.150655868183222 6.2873862186522693 #
edge $-1 $609 1 $609 0 $390 $-1 forward 7 unknown #
vertex $-1 $391 $610 #
ellipse-curve $-1 -45.761683037593102 20.579628498237994 5.0344542038971003 -0.83867057594974714 0 0.54463902268945019 0.2723195113447251 0 0.41933528797487357 1 I I #
point $-1 -46.772989961068276 20.579628498237994 6.2873862186522693 #
plane-surface $-1 48.333994567705311 0 0 -1 0 0 0 0 1 forward_v I I I I #
coedge $-1 $399 $397 $401 $534 reversed $281 $-1 #
edge $-1 $412 -7.8524520221557568 $536 7.8524520221557568 $411 $611 forward 7 unknown #
vertex $-1 $534 $612 #
straight-curve $-1 -48.333994567705311 -22.198943584941176 0 0 0 -1 I I #
edge $-1 $532 -22.198943584941176 $536 22.198943584941176 $530 $613 forward 7 unknown #
straight-curve $-1 0 -22.198943584941176 -7.8524520221557568 -1 0 0 I I #
vertex $-1 $404 $614 #
straight-curve $-1 0 22.198943584941176 -7.8524520221557568 1 0 0 I I #
point $-1 48.333994567705311 22.198943584941176 -7.8524520221557568 #
point $-1 48.333994567705311 -22.198943584941176 -7.8524520221557568 #
straight-curve $-1 -48.333994567705311 0 7.8524520221557568 0 -1 0 I I #
point $-1 -48.333994567705311 22.198943584941176 7.8524520221557568 #
point $-1 -48.333994567705311 -22.198943584941176 7.8524520221557568 #
straight-curve $-1 48.333994567705311 -22.198943584941176 0 0 0 -1 I I #
straight-curve $-1 48.333994567705311 22.198943584941176 0 0 0 -1 I I #
plane-surface $-1 48.333994567705311 0 0 -1 0 0 0 0 1 forward_v I I I I #
coedge $-1 $615 $549 $428 $554 forward $422 $-1 #
coedge $-1 $429 $424 $615 $616 forward $300 $-1 #
edge $-1 $438 -3.1899666701815832 $617 3.1899666701815832 $436 $618 forward 7 unknown #
coedge $-1 $546 $619 $425 $550 reversed $422 $-1 #
edge $-1 $557 -48.333994567705311 $552 48.333994567705311 $549 $620 forward 7 unknown #
coedge $-1 $436 $426 $619 $621 forward $437 $-1 #
vertex $-1 $427 $622 #
straight-curve $-1 48.333994567705311 -25.388910255122759 4.37840554212519 0 1 0 I I #
edge $-1 $557 -2.1309964023748167 $555 2.1309964023748171 $428 $623 forward 7 unknown #
vertex $-1 $430 $624 #
straight-curve $-1 -48.333994567705311 -25.388910255122759 0.11641273737555613 0 1 0 I I #
vertex $-1 $431 $625 #
straight-curve $-1 -48.333994567705311 -25.388910255122759 4.37840554212519 0 -1 0 I I #
point $-1 -48.333994567705311 -22.198943584941176 0.11641273737555613 #
straight-curve $-1 0 -22.198943584941176 0.11641273737555613 -1 0 0 I I #
point $-1 48.333994567705311 -22.198943584941176 0.11641273737555613 #
coedge $-1 $566 $447 $444 $563 reversed $442 $-1 #
edge $-1 $571 -48.333994567705311 $564 -44.972137516523787 $562 $626 forward 7 unknown #
vertex $-1 $448 $627 #
straight-curve $-1 44.972137516523787 8.4387415367289478 7.8524520221557594 0 -1 0 I I #
coedge $-1 $447 $562 $449 $568 forward $442 $-1 #
straight-curve $-1 16.489973869442053 22.198943584941176 53.433443485158335 -0.52991925155115449 0 0.84804810408105047 I I #
edge $-1 $571 -7.8524520221557568 $450 -2.4723559224186129 $449 $628 forward 7 unknown #
point $-1 48.333994567705311 22.198943584941176 2.4723559224186129 #
point $-1 44.972137516523787 11.556022561974615 7.8524520221557594 #
vertex $-1 $456 $629 #
straight-curve $-1 48.333994567705311 0 7.8524520221557568 0 1 0 I I #
vertex $-1 $459 $630 #
point $-1 46.069977563809076 13.684606766567924 4.2084606686955022 #
vertex $-1 $463 $631 #
point $-1 46.069977563809076 16.877483073457896 4.2084606686955022 #
vertex $-1 $467 $632 #
point $-1 46.069977563809076 20.070359380347867 4.2084606686955022 #
edge $-1 $580 20.413952461475976 $583 24.382754644432712 $472 $633 forward 7 unknown #
vertex $-1 $486 $634 #
straight-curve $-1 -64.703296345902018 3.1899666701815814 7.8524520221557559 -1 0 0 I I #
edge $-1 $583 -3.6191271934697706 $483 4.4774482400461491 $482 $635 forward 7 unknown #
vertex $-1 $582 $636 #
straight-curve $-1 -48.333994567705304 3.1899666701815814 3.8836498391990304 0.54463902268945019 0 0.83867057594974714 I I #
point $-1 -45.756624377120687 3.1899666701815814 7.8524520221557568 #
point $-1 -48.333994567705311 -4.9066087633343383 3.8836498391990193 #
straight-curve $-1 -48.333994567705311 0 7.8524520221557568 0 -1 0 I I #
vertex $-1 $489 $637 #
point $-1 -45.489363526248376 -3.2872936766311511 5.4537894918719747 #
vertex $-1 $493 $638 #
point $-1 -45.489363526248376 -0.85832104657637487 5.4537894918719747 #
vertex $-1 $497 $639 #
point $-1 -45.489363526248376 1.5706515834784014 5.4537894918719747 #
coedge $-1 $595 $503 $601 $640 reversed $369 $-1 #
coedge $-1 $503 $594 $506 $599 reversed $369 $-1 #
edge $-1 $597 -13.123615650849569 $511 -5.0270402173336475 $510 $641 forward 7 unknown #
vertex $-1 $505 $642 #
straight-curve $-1 -42.052270580283874 22.198943584941176 13.556656831009867 -0.54463902268945019 0 -0.83867057594974714 I I #
edge $-1 $507 45.756624377120687 $603 48.333994567705311 $595 $643 forward 7 unknown #
point $-1 -45.756624377120687 22.198943584941176 7.8524520221557568 #
coedge $-1 $510 $509 $594 $640 forward $501 $-1 #
point $-1 -48.333994567705311 14.102368151425255 3.8836498391990193 #
vertex $-1 $599 $644 #
straight-curve $-1 -48.333994567705311 0 7.8524520221557568 0 -1 0 I I #
vertex $-1 $517 $645 #
point $-1 -45.489363526248376 15.721683238128442 5.4537894918719747 #
vertex $-1 $521 $646 #
point $-1 -45.489363526248376 18.150655868183222 5.4537894918719747 #
vertex $-1 $525 $647 #
point $-1 -45.489363526248376 20.579628498237994 5.4537894918719747 #
straight-curve $-1 -48.333994567705311 22.198943584941176 0 0 0 -1 I I #
point $-1 -48.333994567705311 -22.198943584941176 -7.8524520221557568 #
straight-curve $-1 -48.333994567705311 0 -7.8524520221557568 0 1 0 I I #
point $-1 -48.333994567705311 22.198943584941176 -7.8524520221557568 #
coedge $-1 $619 $546 $547 $616 reversed $422 $-1 #
edge $-1 $617 -48.333994567705311 $555 48.333994567705311 $615 $648 forward 7 unknown #
vertex $-1 $621 $649 #
straight-curve $-1 48.333994567705311 -25.388910255122759 0.11641273737555613 0 -1 0 I I #
coedge $-1 $549 $615 $551 $621 reversed $422 $-1 #
straight-curve $-1 0 -28.578876925304343 4.37840554212519 1 0 0 I I #
edge $-1 $552 -2.1309964023748167 $617 2.1309964023748171 $551 $650 forward 7 unknown #
point $-1 48.333994567705311 -28.578876925304343 4.37840554212519 #
straight-curve $-1 -48.333994567705311 -28.578876925304343 2.2474091397503733 0 0 -1 I I #
point $-1 -48.333994567705311 -28.578876925304343 0.11641273737555613 #
point $-1 -48.333994567705311 -28.578876925304343 4.37840554212519 #
straight-curve $-1 0 22.198943584941176 7.8524520221557568 -1 0 0 I I #
point $-1 44.972137516523787 22.198943584941176 7.8524520221557594 #
straight-curve $-1 48.333994567705311 22.198943584941176 0 0 0 -1 I I #
point $-1 48.333994567705311 22.198943584941176 7.8524520221557568 #
point $-1 45.380993885992972 13.684606766567924 4.3675250949604507 #
point $-1 45.380993885992972 16.877483073457896 4.3675250949604507 #
point $-1 45.380993885992972 20.070359380347867 4.3675250949604507 #
straight-curve $-1 -48.333994567705311 3.1899666701815814 28.266404483631732 0 0 -1 I I #
point $-1 -48.333994567705311 3.1899666701815814 7.8524520221557568 #
straight-curve $-1 -48.333994567705311 -0.42916052328818921 3.8836498391990153 0 -1 0 I I #
point $-1 -48.333994567705311 3.1899666701815814 3.8836498391990193 #
point $-1 -45.342347749618227 -3.2872936766311511 4.762134692552376 #
point $-1 -45.342347749618227 -0.85832104657637487 4.762134692552376 #
point $-1 -45.342347749618227 1.5706515834784014 4.762134692552376 #
edge $-1 $603 -7.8524520221557568 $597 -3.8836498391990193 $594 $651 forward 7 unknown #
straight-curve $-1 -48.333994567705311 9.0753279340916073 3.8836498391990153 0 -1 0 I I #
point $-1 -48.333994567705311 22.198943584941176 3.8836498391990193 #
straight-curve $-1 0 22.198943584941176 7.8524520221557568 -1 0 0 I I #
point $-1 -48.333994567705311 22.198943584941176 7.8524520221557568 #
point $-1 -45.342347749618227 15.721683238128442 4.762134692552376 #
point $-1 -45.342347749618227 18.150655868183222 4.762134692552376 #
point $-1 -45.342347749618227 20.579628498237994 4.762134692552376 #
straight-curve $-1 0 -28.578876925304343 0.11641273737555613 -1 0 0 I I #
point $-1 48.333994567705311 -28.578876925304343 0.11641273737555613 #
straight-curve $-1 48.333994567705311 -28.578876925304343 2.2474091397503733 0 0 -1 I I #
straight-curve $-1 -48.333994567705311 22.198943584941176 0 0 0 -1 I I #
End-of-ACIS-data 