500 0 6 0           
7 Unknown 11 ACIS 5.0 NT 24 Fri Mar 26 14:47:38 1999 
-1 9.9999999999999995e-007 1e-010 
body $-1 $6 $-1 $7 #
body $-1 $8 $-1 $9 #
body $-1 $10 $-1 $11 #
body $-1 $12 $-1 $13 #
body $-1 $14 $-1 $15 #
body $-1 $16 $-1 $17 #
lump $-1 $-1 $18 $0 #
transform $-1 1 0 0 0 1 0 0 0 1 47.796868800927761 27.074438381306191 8.486634620636492 1 rotate no_reflect no_shear #
lump $-1 $-1 $19 $1 #
transform $-1 1 0 0 0 1 0 0 0 1 47.796868800927761 27.074438381306191 8.486634620636492 1 rotate no_reflect no_shear #
lump $-1 $-1 $20 $2 #
transform $-1 1 0 0 0 1 0 0 0 1 47.796868800927761 27.074438381306191 8.486634620636492 1 rotate no_reflect no_shear #
lump $-1 $-1 $21 $3 #
transform $-1 1 0 0 0 1 0 0 0 1 47.796868800927761 27.074438381306191 8.486634620636492 1 rotate no_reflect no_shear #
lump $-1 $-1 $22 $4 #
transform $-1 1 0 0 0 1 0 0 0 1 47.796868800927761 27.074438381306191 8.486634620636492 1 rotate no_reflect no_shear #
lump $-1 $-1 $23 $5 #
transform $-1 1 0 0 0 1 0 0 0 1 47.796868800927761 27.074438381306191 8.486634620636492 1 rotate no_reflect no_shear #
shell $-1 $-1 $-1 $24 $-1 $6 #
shell $-1 $-1 $-1 $25 $-1 $8 #
shell $-1 $-1 $-1 $26 $-1 $10 #
shell $-1 $-1 $-1 $27 $-1 $12 #
shell $-1 $-1 $-1 $28 $-1 $14 #
shell $-1 $-1 $-1 $29 $-1 $16 #
face $-1 $30 $31 $18 $-1 $32 forward single #
face $-1 $33 $34 $19 $-1 $35 reversed single #
face $-1 $36 $37 $20 $-1 $38 reversed single #
face $-1 $39 $40 $21 $-1 $41 forward single #
face $-1 $42 $43 $22 $-1 $44 reversed single #
face $-1 $45 $46 $23 $-1 $47 forward single #
face $-1 $48 $49 $18 $-1 $50 reversed single #
loop $-1 $-1 $51 $24 #
plane-surface $-1 0 0 8.486634620636492 0 0 1 1 0 0 forward_v I I I I #
face $-1 $52 $53 $19 $-1 $54 reversed single #
loop $-1 $-1 $55 $25 #
plane-surface $-1 -42.381073979824571 0 4.9007873864462317 0 0 1 1 0 0 forward_v I I I I #
face $-1 $56 $57 $20 $-1 $58 reversed single #
loop $-1 $-1 $59 $26 #
plane-surface $-1 -33.915021141455867 70.831385622854967 104.16017616373787 1 0 0 0 -0.79863551827123203 -0.60181501223851219 forward_v I I I I #
face $-1 $60 $61 $21 $-1 $62 forward single #
loop $-1 $63 $64 $27 #
cone-surface $-1 -22.356228947007239 22.810395812246917 4.1711424692202499 0 -0.79863551827123203 -0.60181501223851219 1.5 0 0 1 I I 0 1 1.5 forward I I I I #
face $-1 $65 $66 $22 $-1 $67 reversed single #
loop $-1 $-1 $68 $28 #
plane-surface $-1 -12.043389613788237 -77.731402145452279 84.145538393817674 -1 0 0 0 -0.52991927123019833 0.84804809178421925 forward_v I I I I #
face $-1 $69 $70 $23 $-1 $71 forward single #
loop $-1 $72 $73 $29 #
cone-surface $-1 -17.123246422643515 -21.342189106101134 3.53517636882574 0 0.52991927123019833 -0.84804809178421925 1.5 0 0 1 I I 0 1 1.5 forward I I I I #
face $-1 $74 $75 $18 $-1 $76 reversed single #
loop $-1 $-1 $77 $30 #
plane-surface $-1 0 0 -8.486634620636492 0 0 1 1 0 0 forward_v I I I I #
coedge $-1 $78 $79 $80 $81 forward $31 $-1 #
face $-1 $82 $83 $19 $-1 $84 reversed single #
loop $-1 $-1 $85 $33 #
plane-surface $-1 -36.96527915872138 0 6.6937110035413614 -1 0 0 0 0 1 forward_v I I I I #
coedge $-1 $86 $87 $88 $89 forward $34 $-1 #
face $-1 $90 $91 $20 $-1 $92 reversed single #
loop $-1 $-1 $93 $36 #
plane-surface $-1 -22.356228947007239 -5.5131685502870766 46.630429798952065 0 0.79863551827123203 0.60181501223851219 1 0 0 forward_v I I I I #
coedge $-1 $94 $95 $96 $97 reversed $37 $-1 #
face $-1 $-1 $98 $21 $-1 $99 forward single #
loop $-1 $100 $101 $39 #
cone-surface $-1 -22.356228947007239 19.869474807439548 1.9549995980243384 0 -0.79863551827123203 -0.60181501223851219 0.75 0 0 1 I I -0.70710678118654757 0.70710678118654757 0.75 forward I I I I #
loop $-1 $-1 $102 $27 #
coedge $-1 $64 $64 $103 $104 reversed $40 $-1 #
face $-1 $105 $106 $22 $-1 $107 reversed single #
loop $-1 $-1 $108 $42 #
plane-surface $-1 -17.123246422643518 -27.074438381306194 3.0774516340427311 0 -0.52991927123019833 0.84804809178421925 1 0 0 forward_v I I I I #
coedge $-1 $109 $110 $111 $112 reversed $43 $-1 #
face $-1 $-1 $113 $23 $-1 $114 forward single #
loop $-1 $115 $116 $45 #
cone-surface $-1 -17.123246422643515 -19.54075145168261 0.65227354147370242 0 0.52991927123019833 -0.84804809178421925 0.75 0 0 1 I I -0.70710678118654757 0.70710678118654757 0.75 forward I I I I #
loop $-1 $-1 $117 $29 #
coedge $-1 $73 $73 $118 $119 reversed $46 $-1 #
face $-1 $120 $121 $18 $-1 $122 reversed single #
loop $-1 $-1 $123 $48 #
plane-surface $-1 0 -27.074438381306191 0 0 1 0 0 0 1 forward_v I I I I #
coedge $-1 $124 $125 $126 $127 forward $49 $-1 #
coedge $-1 $128 $51 $129 $130 forward $31 $-1 #
coedge $-1 $51 $128 $131 $132 forward $31 $-1 #
coedge $-1 $133 $134 $51 $81 reversed $135 $-1 #
edge $-1 $136 -27.074438381306191 $137 27.074438381306191 $80 $138 forward 7 unknown #
face $-1 $139 $140 $19 $-1 $141 reversed single #
loop $-1 $-1 $142 $52 #
plane-surface $-1 0 27.074438381306191 0 0 -1 0 0 0 -1 forward_v I I I I #
coedge $-1 $88 $143 $144 $145 reversed $53 $-1 #
coedge $-1 $146 $55 $147 $148 reversed $34 $-1 #
coedge $-1 $55 $146 $149 $150 reversed $34 $-1 #
coedge $-1 $151 $85 $55 $89 reversed $53 $-1 #
edge $-1 $152 -27.074438381306191 $153 27.074438381306191 $88 $154 forward 7 unknown #
face $-1 $155 $156 $20 $-1 $157 forward single #
loop $-1 $-1 $158 $56 #
plane-surface $-1 -10.79743675255861 70.831385622854967 104.16017616373787 -1 0 0 0 0.79863551827123203 0.60181501223851219 forward_v I I I I #
coedge $-1 $159 $160 $161 $162 reversed $57 $-1 #
coedge $-1 $95 $59 $163 $164 reversed $37 $-1 #
coedge $-1 $59 $94 $159 $165 reversed $37 $-1 #
coedge $-1 $161 $166 $59 $97 forward $156 $-1 #
edge $-1 $167 8.3412544301212925 $168 12.185450836031986 $96 $169 forward 7 unknown #
loop $-1 $-1 $103 $60 #
plane-surface $-1 -22.356228947007239 -5.5131685502870766 46.630429798952065 0 0.79863551827123203 0.60181501223851219 1 0 0 forward_v I I I I #
loop $-1 $-1 $170 $39 #
coedge $-1 $101 $101 $102 $171 reversed $61 $-1 #
coedge $-1 $102 $102 $101 $171 forward $63 $-1 #
coedge $-1 $103 $103 $64 $104 forward $98 $-1 #
edge $-1 $172 -4.4599674573327998e-016 $172 6.2831853071795996 $103 $173 forward 7 unknown #
face $-1 $174 $175 $22 $-1 $176 reversed single #
loop $-1 $-1 $177 $65 #
plane-surface $-1 -22.203103231498801 -77.731402145452279 84.145538393817674 1 0 0 0 0.52991927123019833 -0.84804809178421925 forward_v I I I I #
coedge $-1 $178 $179 $180 $181 reversed $66 $-1 #
coedge $-1 $110 $68 $182 $183 reversed $43 $-1 #
coedge $-1 $68 $109 $178 $184 reversed $43 $-1 #
coedge $-1 $180 $185 $68 $112 forward $186 $-1 #
edge $-1 $187 11.791262691419949 $188 20.447764839838303 $111 $189 forward 7 unknown #
loop $-1 $-1 $118 $69 #
plane-surface $-1 -17.123246422643518 -27.074438381306194 3.0774516340427311 0 -0.52991927123019833 0.84804809178421925 1 0 0 forward_v I I I I #
loop $-1 $-1 $190 $45 #
coedge $-1 $116 $116 $117 $191 reversed $70 $-1 #
coedge $-1 $117 $117 $116 $191 forward $72 $-1 #
coedge $-1 $118 $118 $73 $119 forward $113 $-1 #
edge $-1 $192 -6.2755048118650619e-016 $192 6.2831853071795996 $118 $193 forward 7 unknown #
face $-1 $194 $195 $18 $-1 $196 reversed single #
loop $-1 $-1 $197 $74 #
plane-surface $-1 -47.796868800927761 0 0 1 0 0 0 0 -1 forward_v I I I I #
coedge $-1 $198 $131 $199 $200 forward $75 $-1 #
coedge $-1 $201 $77 $198 $202 forward $49 $-1 #
coedge $-1 $77 $201 $203 $204 forward $49 $-1 #
coedge $-1 $134 $133 $77 $127 reversed $135 $-1 #
edge $-1 $205 -27.074438381306191 $206 27.074438381306191 $126 $207 forward 7 unknown #
coedge $-1 $79 $78 $208 $209 forward $31 $-1 #
coedge $-1 $210 $211 $78 $130 reversed $195 $-1 #
edge $-1 $137 -47.796868800927761 $212 47.796868800927761 $129 $213 forward 7 unknown #
coedge $-1 $123 $214 $79 $132 reversed $75 $-1 #
edge $-1 $215 -47.796868800927761 $136 47.796868800927761 $131 $216 forward 7 unknown #
coedge $-1 $126 $80 $214 $217 forward $135 $-1 #
coedge $-1 $80 $126 $210 $218 reversed $135 $-1 #
loop $-1 $-1 $133 $194 #
vertex $-1 $81 $219 #
vertex $-1 $81 $220 #
straight-curve $-1 47.796868800927761 0 8.486634620636492 0 1 0 I I #
face $-1 $221 $222 $19 $-1 $223 forward single #
loop $-1 $-1 $224 $82 #
plane-surface $-1 -47.796868800927761 0 0 1 0 0 0 0 -1 forward_v I I I I #
coedge $-1 $149 $225 $151 $226 forward $83 $-1 #
coedge $-1 $85 $151 $227 $228 reversed $53 $-1 #
coedge $-1 $229 $147 $85 $145 forward $230 $-1 #
edge $-1 $153 1.553931884675551 $231 5.1397791188658095 $144 $232 forward 7 unknown #
coedge $-1 $87 $86 $224 $233 reversed $34 $-1 #
coedge $-1 $144 $234 $86 $148 forward $230 $-1 #
edge $-1 $235 -26.606331811015476 $153 -15.774742168809095 $147 $236 forward 7 unknown #
coedge $-1 $237 $142 $87 $150 forward $83 $-1 #
edge $-1 $152 15.774742168809095 $238 26.606331811015476 $149 $239 forward 7 unknown #
coedge $-1 $143 $88 $142 $226 reversed $53 $-1 #
vertex $-1 $150 $240 #
vertex $-1 $148 $241 #
straight-curve $-1 -36.96527915872138 0 4.9007873864462317 0 -1 0 I I #
face $-1 $-1 $242 $20 $-1 $243 reversed single #
loop $-1 $-1 $96 $90 #
plane-surface $-1 0 0 8.486634620636492 0 0 1 1 0 0 forward_v I I I I #
coedge $-1 $244 $245 $246 $247 reversed $91 $-1 #
coedge $-1 $248 $93 $95 $165 forward $57 $-1 #
coedge $-1 $93 $248 $244 $249 forward $57 $-1 #
coedge $-1 $246 $96 $93 $162 forward $156 $-1 #
edge $-1 $168 -22.736906667952248 $250 0.38067772094500896 $161 $251 forward 7 unknown #
coedge $-1 $252 $253 $94 $164 forward $242 $-1 #
edge $-1 $254 -48.694874540030902 $167 -43.593453461232443 $163 $255 forward 7 unknown #
edge $-1 $168 47.76120558835602 $254 54.148876762612403 $95 $256 forward 7 unknown #
coedge $-1 $96 $246 $252 $257 forward $156 $-1 #
vertex $-1 $164 $258 #
vertex $-1 $97 $259 #
straight-curve $-1 -33.915021141455867 35.415692811427483 8.4866346206364938 0 -1 0 I I #
coedge $-1 $170 $170 $-1 $260 reversed $100 $-1 #
edge $-1 $261 0 $261 6.2831853071796004 $101 $262 forward 7 unknown #
vertex $-1 $104 $263 #
ellipse-curve $-1 -22.356228947007239 25.152340178350844 5.9359240812372649 0 0.79863551827123203 0.60181501223851219 1.5 0 0 1 I I #
face $-1 $-1 $186 $22 $-1 $264 forward single #
loop $-1 $-1 $265 $105 #
plane-surface $-1 0 -27.074438381306191 0 0 1 0 0 0 1 forward_v I I I I #
coedge $-1 $266 $267 $268 $269 reversed $106 $-1 #
coedge $-1 $270 $108 $110 $184 forward $66 $-1 #
coedge $-1 $108 $270 $266 $271 forward $66 $-1 #
coedge $-1 $268 $111 $108 $181 forward $186 $-1 #
edge $-1 $188 3.4817664024664783 $272 13.641480020177042 $180 $273 forward 7 unknown #
coedge $-1 $274 $275 $109 $183 forward $175 $-1 #
edge $-1 $276 -38.995317562866106 $187 -33.586134576272343 $182 $277 forward 7 unknown #
edge $-1 $188 -10.207560434698737 $276 -4.1895292081871576e-015 $110 $278 forward 7 unknown #
coedge $-1 $111 $268 $274 $279 forward $186 $-1 #
loop $-1 $-1 $268 $174 #
vertex $-1 $183 $280 #
vertex $-1 $112 $281 #
straight-curve $-1 -12.043389613788237 -38.865701072726139 8.4866346206364938 0 1 0 I I #
coedge $-1 $190 $190 $-1 $282 reversed $115 $-1 #
edge $-1 $283 0 $283 6.2831853071796004 $116 $284 forward 7 unknown #
vertex $-1 $119 $285 #
ellipse-curve $-1 -17.123246422643515 -22.74618730709701 5.7820431273396142 0 -0.52991927123019833 0.84804809178421925 1.5 0 0 1 I I #
face $-1 $-1 $135 $18 $-1 $286 reversed single #
loop $-1 $-1 $210 $120 #
plane-surface $-1 0 27.074438381306191 0 0 -1 0 0 0 -1 forward_v I I I I #
coedge $-1 $287 $208 $211 $288 forward $121 $-1 #
coedge $-1 $214 $123 $124 $202 reversed $75 $-1 #
coedge $-1 $208 $287 $123 $200 reversed $121 $-1 #
edge $-1 $215 -8.486634620636492 $289 8.486634620636492 $199 $290 forward 7 unknown #
coedge $-1 $125 $124 $287 $291 forward $49 $-1 #
edge $-1 $206 -47.796868800927761 $289 47.796868800927761 $198 $292 forward 7 unknown #
coedge $-1 $211 $210 $125 $204 reversed $195 $-1 #
edge $-1 $293 -47.796868800927761 $205 47.796868800927761 $203 $294 forward 7 unknown #
vertex $-1 $127 $295 #
vertex $-1 $217 $296 #
straight-curve $-1 47.796868800927761 0 -8.486634620636492 0 -1 0 I I #
coedge $-1 $197 $199 $128 $209 reversed $121 $-1 #
edge $-1 $212 -27.074438381306191 $215 27.074438381306191 $208 $297 forward 7 unknown #
coedge $-1 $203 $129 $134 $218 forward $195 $-1 #
coedge $-1 $129 $203 $197 $288 reversed $195 $-1 #
vertex $-1 $130 $298 #
straight-curve $-1 0 27.074438381306191 8.486634620636492 -1 0 0 I I #
coedge $-1 $131 $198 $133 $217 reversed $75 $-1 #
vertex $-1 $209 $299 #
straight-curve $-1 0 -27.074438381306191 8.486634620636492 1 0 0 I I #
edge $-1 $136 -8.486634620636492 $206 8.486634620636492 $133 $300 forward 7 unknown #
edge $-1 $137 -8.486634620636492 $205 8.486634620636492 $134 $301 forward 7 unknown #
point $-1 47.796868800927761 -27.074438381306191 8.486634620636492 #
point $-1 47.796868800927761 27.074438381306191 8.486634620636492 #
face $-1 $-1 $230 $19 $-1 $302 reversed single #
loop $-1 $-1 $227 $139 #
plane-surface $-1 0 0 8.486634620636492 0 0 1 1 0 0 forward_v I I I I #
coedge $-1 $303 $304 $146 $233 forward $140 $-1 #
coedge $-1 $142 $237 $305 $306 reversed $83 $-1 #
edge $-1 $307 -5.1397791188658095 $152 -1.553931884675551 $142 $308 forward 7 unknown #
coedge $-1 $305 $309 $143 $228 forward $222 $-1 #
edge $-1 $231 -27.074438381306191 $307 27.074438381306191 $227 $310 forward 7 unknown #
coedge $-1 $234 $144 $309 $311 reversed $230 $-1 #
loop $-1 $-1 $144 $221 #
vertex $-1 $145 $312 #
straight-curve $-1 -36.96527915872138 -27.074438381306191 3.3468555017706807 0 0 1 I I #
edge $-1 $238 -27.074438381306191 $235 27.074438381306191 $224 $313 forward 7 unknown #
coedge $-1 $147 $229 $303 $314 forward $230 $-1 #
vertex $-1 $233 $315 #
straight-curve $-1 -21.190536989912285 -27.074438381306191 4.9007873864462317 1 0 0 I I #
coedge $-1 $225 $149 $304 $316 reversed $83 $-1 #
vertex $-1 $233 $317 #
straight-curve $-1 -21.190536989912285 27.074438381306191 4.9007873864462317 -1 0 0 I I #
point $-1 -36.96527915872138 27.074438381306191 4.9007873864462317 #
point $-1 -36.96527915872138 -27.074438381306191 4.9007873864462317 #
loop $-1 $-1 $163 $155 #
plane-surface $-1 0 27.074438381306191 0 0 -1 0 0 0 -1 forward_v I I I I #
coedge $-1 $245 $158 $160 $249 reversed $91 $-1 #
coedge $-1 $158 $244 $318 $319 reversed $91 $-1 #
coedge $-1 $166 $161 $158 $247 forward $156 $-1 #
edge $-1 $250 -12.185450836031986 $320 -8.3412544301212925 $246 $321 forward 7 unknown #
coedge $-1 $160 $159 $253 $322 reversed $57 $-1 #
edge $-1 $323 -54.148876762612403 $250 -47.76120558835602 $244 $324 forward 7 unknown #
vertex $-1 $162 $325 #
straight-curve $-1 -11.178114473503619 23.23024197539549 8.4866346206364973 1 0 0 I I #
coedge $-1 $318 $163 $166 $257 reversed $242 $-1 #
coedge $-1 $163 $318 $248 $322 forward $242 $-1 #
vertex $-1 $164 $326 #
straight-curve $-1 -33.915021141455867 27.074438381306191 52.080088081868936 0 0 1 I I #
straight-curve $-1 -33.915021141455867 -5.5131685502870766 46.630429798952065 0 0.60181501223851219 -0.79863551827123203 I I #
edge $-1 $320 10.79743675255861 $167 33.915021141455867 $252 $327 forward 7 unknown #
point $-1 -33.915021141455867 27.074438381306191 8.486634620636492 #
point $-1 -33.915021141455867 23.230241975395497 8.4866346206364938 #
edge $-1 $328 1 $328 0 $170 $-1 forward 7 unknown #
vertex $-1 $171 $329 #
ellipse-curve $-1 -22.356228947007239 20.468451446142971 2.4063608572032225 0 0.79863551827123203 0.60181501223851219 1.5 0 0 1 I I #
point $-1 -20.856228947007239 25.152340178350858 5.9359240812372764 #
plane-surface $-1 0 0 8.486634620636492 0 0 1 1 0 0 forward_v I I I I #
coedge $-1 $275 $274 $267 $330 forward $175 $-1 #
coedge $-1 $267 $177 $179 $271 reversed $106 $-1 #
coedge $-1 $177 $266 $265 $330 reversed $106 $-1 #
coedge $-1 $185 $180 $177 $269 forward $186 $-1 #
edge $-1 $272 -20.447764839838303 $331 -11.791262691419949 $268 $332 forward 7 unknown #
coedge $-1 $179 $178 $275 $333 reversed $66 $-1 #
edge $-1 $334 4.1895292081871576e-015 $272 10.207560434698737 $266 $335 forward 7 unknown #
vertex $-1 $181 $336 #
straight-curve $-1 -8.5616232113217592 -18.417936232887836 8.486634620636492 -1 0 0 I I #
coedge $-1 $265 $182 $185 $279 reversed $175 $-1 #
coedge $-1 $182 $265 $270 $333 forward $175 $-1 #
vertex $-1 $183 $337 #
straight-curve $-1 -12.043389613788237 -27.074438381306191 42.072769196908837 0 0 1 I I #
straight-curve $-1 -12.043389613788237 -27.074438381306194 3.0774516340427311 0 -0.84804809178421925 -0.52991927123019833 I I #
edge $-1 $331 -22.203103231498801 $187 -12.043389613788237 $274 $338 forward 7 unknown #
point $-1 -12.043389613788237 -27.074438381306191 8.486634620636492 #
point $-1 -12.043389613788237 -18.417936232887836 8.486634620636492 #
edge $-1 $339 1 $339 0 $190 $-1 forward 7 unknown #
vertex $-1 $191 $340 #
ellipse-curve $-1 -17.123246422643515 -19.938190905105259 1.2883096103118667 0 -0.52991927123019833 0.84804809178421925 1.5 0 0 1 I I #
point $-1 -15.623246422643515 -22.74618730709701 5.7820431273396125 #
plane-surface $-1 47.796868800927761 0 0 -1 0 0 0 0 1 forward_v I I I I #
coedge $-1 $199 $197 $201 $291 reversed $121 $-1 #
edge $-1 $212 -8.486634620636492 $293 8.486634620636492 $211 $341 forward 7 unknown #
vertex $-1 $291 $342 #
straight-curve $-1 -47.796868800927761 -27.074438381306191 0 0 0 -1 I I #
edge $-1 $289 -27.074438381306191 $293 27.074438381306191 $287 $343 forward 7 unknown #
straight-curve $-1 0 -27.074438381306191 -8.486634620636492 -1 0 0 I I #
vertex $-1 $204 $344 #
straight-curve $-1 0 27.074438381306191 -8.486634620636492 1 0 0 I I #
point $-1 47.796868800927761 27.074438381306191 -8.486634620636492 #
point $-1 47.796868800927761 -27.074438381306191 -8.486634620636492 #
straight-curve $-1 -47.796868800927761 0 8.486634620636492 0 -1 0 I I #
point $-1 -47.796868800927761 27.074438381306191 8.486634620636492 #
point $-1 -47.796868800927761 -27.074438381306191 8.486634620636492 #
straight-curve $-1 47.796868800927761 -27.074438381306191 0 0 0 -1 I I #
straight-curve $-1 47.796868800927761 27.074438381306191 0 0 0 -1 I I #
plane-surface $-1 0 -27.074438381306191 0 0 1 0 0 0 1 forward_v I I I I #
coedge $-1 $345 $224 $234 $314 reversed $140 $-1 #
coedge $-1 $224 $345 $237 $316 forward $140 $-1 #
coedge $-1 $346 $227 $225 $306 forward $222 $-1 #
edge $-1 $307 36.96527915872138 $347 47.796868800927761 $225 $348 forward 7 unknown #
vertex $-1 $306 $349 #
straight-curve $-1 -36.96527915872138 27.074438381306191 3.3468555017706807 0 0 -1 I I #
coedge $-1 $227 $346 $229 $311 forward $222 $-1 #
straight-curve $-1 -36.96527915872138 0 8.486634620636492 0 1 0 I I #
edge $-1 $350 -47.796868800927761 $231 -36.96527915872138 $229 $351 forward 7 unknown #
point $-1 -36.96527915872138 -27.074438381306191 8.4866346206364902 #
straight-curve $-1 -47.796868800927761 0 4.9007873864462317 0 -1 0 I I #
edge $-1 $350 -8.486634620636492 $235 -4.9007873864462317 $303 $352 forward 7 unknown #
point $-1 -47.796868800927761 -27.074438381306191 4.9007873864462317 #
edge $-1 $347 -8.486634620636492 $238 -4.9007873864462317 $237 $353 forward 7 unknown #
point $-1 -47.796868800927761 27.074438381306191 4.9007873864462317 #
coedge $-1 $253 $252 $245 $319 forward $242 $-1 #
edge $-1 $320 43.593453461232443 $323 48.694874540030902 $318 $354 forward 7 unknown #
vertex $-1 $257 $355 #
straight-curve $-1 -10.79743675255861 35.415692811427483 8.4866346206364938 0 1 0 I I #
edge $-1 $323 -0.38067772094500896 $254 22.736906667952248 $253 $356 forward 7 unknown #
vertex $-1 $322 $357 #
straight-curve $-1 -10.79743675255861 -5.5131685502870766 46.630429798952065 0 -0.60181501223851219 0.79863551827123203 I I #
point $-1 -10.79743675255861 23.230241975395497 8.4866346206364938 #
point $-1 -33.915021141455867 27.074438381306194 3.3852135418380342 #
straight-curve $-1 0 27.074438381306191 8.486634620636492 -1 0 0 I I #
vertex $-1 $260 $358 #
point $-1 -20.856228947007239 20.468451446142971 2.4063608572032225 #
edge $-1 $331 33.586134576272343 $334 38.995317562866106 $265 $359 forward 7 unknown #
vertex $-1 $279 $360 #
straight-curve $-1 -22.203103231498801 -38.865701072726139 8.4866346206364938 0 -1 0 I I #
edge $-1 $334 -13.641480020177042 $276 -3.4817664024664783 $275 $361 forward 7 unknown #
vertex $-1 $333 $362 #
straight-curve $-1 -22.203103231498801 -27.074438381306194 3.0774516340427311 0 0.84804809178421925 0.52991927123019833 I I #
point $-1 -22.203103231498801 -18.417936232887836 8.486634620636492 #
point $-1 -12.043389613788237 -27.074438381306191 3.0774516340427334 #
straight-curve $-1 0 -27.074438381306191 8.486634620636492 1 0 0 I I #
vertex $-1 $282 $363 #
point $-1 -15.623246422643515 -19.938190905105259 1.2883096103118667 #
straight-curve $-1 -47.796868800927761 27.074438381306191 0 0 0 -1 I I #
point $-1 -47.796868800927761 -27.074438381306191 -8.486634620636492 #
straight-curve $-1 -47.796868800927761 0 -8.486634620636492 0 1 0 I I #
point $-1 -47.796868800927761 27.074438381306191 -8.486634620636492 #
coedge $-1 $304 $303 $346 $364 reversed $140 $-1 #
coedge $-1 $309 $305 $345 $364 forward $222 $-1 #
vertex $-1 $306 $365 #
straight-curve $-1 0 27.074438381306191 8.486634620636492 -1 0 0 I I #
point $-1 -36.96527915872138 27.074438381306191 8.4866346206364902 #
vertex $-1 $364 $366 #
straight-curve $-1 0 -27.074438381306191 8.486634620636492 1 0 0 I I #
straight-curve $-1 -47.796868800927761 -27.074438381306191 0 0 0 -1 I I #
straight-curve $-1 -47.796868800927761 27.074438381306191 0 0 0 -1 I I #
straight-curve $-1 -10.79743675255861 27.074438381306191 52.080088081868936 0 0 -1 I I #
point $-1 -10.79743675255861 27.074438381306191 8.486634620636492 #
straight-curve $-1 -11.178114473503619 27.074438381306194 3.3852135418380414 -1 0 0 I I #
point $-1 -10.79743675255861 27.074438381306194 3.3852135418380342 #
point $-1 -22.356228947007239 19.270498168736125 1.5036383388454544 #
straight-curve $-1 -22.203103231498801 -27.074438381306191 42.072769196908837 0 0 -1 I I #
point $-1 -22.203103231498801 -27.074438381306191 8.486634620636492 #
straight-curve $-1 -8.5616232113217592 -27.074438381306191 3.0774516340427347 1 0 0 I I #
point $-1 -22.203103231498801 -27.074438381306191 3.0774516340427334 #
point $-1 -17.123246422643515 -19.143311998259961 0.016237472635537986 #
edge $-1 $347 -27.074438381306191 $350 27.074438381306191 $345 $367 forward 7 unknown #
point $-1 -47.796868800927761 27.074438381306191 8.486634620636492 #
point $-1 -47.796868800927761 -27.074438381306191 8.486634620636492 #
straight-curve $-1 -47.796868800927761 0 8.486634620636492 0 -1 0 I I #
End-of-ACIS-data 