500 0 18 0           
7 Unknown 11 ACIS 5.0 NT 24 Thu Mar 25 19:54:53 1999 
-1 9.9999999999999995e-007 1e-010 
body $-1 $18 $-1 $19 #
body $-1 $20 $-1 $21 #
body $-1 $22 $-1 $23 #
body $-1 $24 $-1 $25 #
body $-1 $26 $-1 $27 #
body $-1 $28 $-1 $29 #
body $-1 $30 $-1 $31 #
body $-1 $32 $-1 $33 #
body $-1 $34 $-1 $35 #
body $-1 $36 $-1 $37 #
body $-1 $38 $-1 $39 #
body $-1 $40 $-1 $41 #
body $-1 $42 $-1 $43 #
body $-1 $44 $-1 $45 #
body $-1 $46 $-1 $47 #
body $-1 $48 $-1 $49 #
body $-1 $50 $-1 $51 #
body $-1 $52 $-1 $53 #
lump $-1 $-1 $54 $0 #
transform $-1 1 0 0 0 1 0 0 0 1 60.714743491927855 35.336732999232694 16.609461560746553 1 rotate no_reflect no_shear #
lump $-1 $-1 $55 $1 #
transform $-1 1 0 0 0 1 0 0 0 1 60.714743491927855 35.336732999232694 16.609461560746553 1 rotate no_reflect no_shear #
lump $-1 $-1 $56 $2 #
transform $-1 1 0 0 0 1 0 0 0 1 60.714743491927855 35.336732999232694 16.609461560746553 1 rotate no_reflect no_shear #
lump $-1 $-1 $57 $3 #
transform $-1 1 0 0 0 1 0 0 0 1 60.714743491927855 35.336732999232694 16.609461560746553 1 rotate no_reflect no_shear #
lump $-1 $-1 $58 $4 #
transform $-1 1 0 0 0 1 0 0 0 1 60.714743491927855 35.336732999232694 16.609461560746553 1 rotate no_reflect no_shear #
lump $-1 $-1 $59 $5 #
transform $-1 1 0 0 0 1 0 0 0 1 60.714743491927855 35.336732999232694 16.609461560746553 1 rotate no_reflect no_shear #
lump $-1 $-1 $60 $6 #
transform $-1 1 0 0 0 1 0 0 0 1 60.714743491927855 35.336732999232694 16.609461560746553 1 rotate no_reflect no_shear #
lump $-1 $-1 $61 $7 #
transform $-1 1 0 0 0 1 0 0 0 1 60.714743491927855 35.336732999232694 16.609461560746553 1 rotate no_reflect no_shear #
lump $-1 $-1 $62 $8 #
transform $-1 1 0 0 0 1 0 0 0 1 60.714743491927855 35.336732999232694 16.609461560746553 1 rotate no_reflect no_shear #
lump $-1 $-1 $63 $9 #
transform $-1 1 0 0 0 1 0 0 0 1 60.714743491927855 35.336732999232694 16.609461560746553 1 rotate no_reflect no_shear #
lump $-1 $-1 $64 $10 #
transform $-1 1 0 0 0 1 0 0 0 1 60.714743491927855 35.336732999232694 16.609461560746553 1 rotate no_reflect no_shear #
lump $-1 $-1 $65 $11 #
transform $-1 1 0 0 0 1 0 0 0 1 60.714743491927855 35.336732999232694 16.609461560746553 1 rotate no_reflect no_shear #
lump $-1 $-1 $66 $12 #
transform $-1 1 0 0 0 1 0 0 0 1 60.714743491927855 35.336732999232694 16.609461560746553 1 rotate no_reflect no_shear #
lump $-1 $-1 $67 $13 #
transform $-1 1 0 0 0 1 0 0 0 1 60.714743491927855 35.336732999232694 16.609461560746553 1 rotate no_reflect no_shear #
lump $-1 $-1 $68 $14 #
transform $-1 1 0 0 0 1 0 0 0 1 60.714743491927855 35.336732999232694 16.609461560746553 1 rotate no_reflect no_shear #
lump $-1 $-1 $69 $15 #
transform $-1 1 0 0 0 1 0 0 0 1 60.714743491927855 35.336732999232694 16.609461560746553 1 rotate no_reflect no_shear #
lump $-1 $-1 $70 $16 #
transform $-1 1 0 0 0 1 0 0 0 1 60.714743491927855 35.336732999232694 16.609461560746553 1 rotate no_reflect no_shear #
lump $-1 $-1 $71 $17 #
transform $-1 1 0 0 0 1 0 0 0 1 60.714743491927855 35.336732999232694 16.609461560746553 1 rotate no_reflect no_shear #
shell $-1 $-1 $-1 $72 $-1 $18 #
shell $-1 $-1 $-1 $73 $-1 $20 #
shell $-1 $-1 $-1 $74 $-1 $22 #
shell $-1 $-1 $-1 $75 $-1 $24 #
shell $-1 $-1 $-1 $76 $-1 $26 #
shell $-1 $-1 $-1 $77 $-1 $28 #
shell $-1 $-1 $-1 $78 $-1 $30 #
shell $-1 $-1 $-1 $79 $-1 $32 #
shell $-1 $-1 $-1 $80 $-1 $34 #
shell $-1 $-1 $-1 $81 $-1 $36 #
shell $-1 $-1 $-1 $82 $-1 $38 #
shell $-1 $-1 $-1 $83 $-1 $40 #
shell $-1 $-1 $-1 $84 $-1 $42 #
shell $-1 $-1 $-1 $85 $-1 $44 #
shell $-1 $-1 $-1 $86 $-1 $46 #
shell $-1 $-1 $-1 $87 $-1 $48 #
shell $-1 $-1 $-1 $88 $-1 $50 #
shell $-1 $-1 $-1 $89 $-1 $52 #
face $-1 $90 $91 $54 $-1 $92 forward single #
face $-1 $93 $94 $55 $-1 $95 forward single #
face $-1 $96 $97 $56 $-1 $98 reversed single #
face $-1 $99 $100 $57 $-1 $101 forward single #
face $-1 $102 $103 $58 $-1 $104 forward single #
face $-1 $105 $106 $59 $-1 $107 forward single #
face $-1 $108 $109 $60 $-1 $110 reversed single #
face $-1 $111 $112 $61 $-1 $113 forward single #
face $-1 $114 $115 $62 $-1 $116 forward single #
face $-1 $117 $118 $63 $-1 $119 forward single #
face $-1 $120 $121 $64 $-1 $122 reversed single #
face $-1 $123 $124 $65 $-1 $125 forward single #
face $-1 $126 $127 $66 $-1 $128 forward single #
face $-1 $129 $130 $67 $-1 $131 forward single #
face $-1 $132 $133 $68 $-1 $134 reversed single #
face $-1 $135 $136 $69 $-1 $137 forward single #
face $-1 $138 $139 $70 $-1 $140 forward single #
face $-1 $141 $142 $71 $-1 $143 forward single #
face $-1 $144 $145 $54 $-1 $146 reversed single #
loop $-1 $-1 $147 $72 #
plane-surface $-1 0 0 16.609461560746553 0 0 1 1 0 0 forward_v I I I I #
face $-1 $148 $149 $55 $-1 $150 reversed single #
loop $-1 $-1 $151 $73 #
plane-surface $-1 0 -35.336732999232694 0 0 1 0 0 0 1 forward_v I I I I #
face $-1 $152 $153 $56 $-1 $154 reversed single #
loop $-1 $-1 $155 $74 #
plane-surface $-1 -43.788843428580172 85.228916878611074 131.62117440459505 1 0 0 0 -0.77714596973225614 -0.62932038083071107 forward_v I I I I #
face $-1 $156 $157 $57 $-1 $158 forward single #
loop $-1 $159 $160 $75 #
cone-surface $-1 -41.102549092056925 28.203707130114136 8.0224619662254177 0 -0.77714596973225614 -0.62932038083071107 1 0 0 1 I I 0 1 1 forward I I I I #
face $-1 $161 $162 $58 $-1 $163 forward single #
loop $-1 $164 $165 $76 #
cone-surface $-1 -37.073107587272048 28.203707130114136 8.0224619662254177 0 -0.77714596973225614 -0.62932038083071107 1 0 0 1 I I 0 1 1 forward I I I I #
face $-1 $166 $167 $59 $-1 $168 forward single #
loop $-1 $169 $170 $77 #
cone-surface $-1 -33.043666082487178 28.203707130114136 8.0224619662254177 0 -0.77714596973225614 -0.62932038083071107 1 0 0 1 I I 0 1 1 forward I I I I #
face $-1 $171 $172 $60 $-1 $173 reversed single #
loop $-1 $-1 $174 $78 #
plane-surface $-1 -19.073438370398812 85.228916878611074 131.62117440459505 1 0 0 0 -0.77714596973225614 -0.62932038083071107 forward_v I I I I #
face $-1 $175 $176 $61 $-1 $177 forward single #
loop $-1 $178 $179 $79 #
cone-surface $-1 -16.387144033875565 28.203707130114136 8.0224619662254177 0 -0.77714596973225614 -0.62932038083071107 1 0 0 1 I I 0 1 1 forward I I I I #
face $-1 $180 $181 $62 $-1 $182 forward single #
loop $-1 $183 $184 $80 #
cone-surface $-1 -12.357702529090687 28.203707130114136 8.0224619662254177 0 -0.77714596973225614 -0.62932038083071107 1 0 0 1 I I 0 1 1 forward I I I I #
face $-1 $185 $186 $63 $-1 $187 forward single #
loop $-1 $188 $189 $81 #
cone-surface $-1 -8.3282610243058102 28.203707130114136 8.0224619662254177 0 -0.77714596973225614 -0.62932038083071107 1 0 0 1 I I 0 1 1 forward I I I I #
face $-1 $190 $191 $64 $-1 $192 reversed single #
loop $-1 $-1 $193 $82 #
plane-surface $-1 5.6419666877825563 85.228916878611074 131.62117440459505 1 0 0 0 -0.77714596973225614 -0.62932038083071107 forward_v I I I I #
face $-1 $194 $195 $65 $-1 $196 forward single #
loop $-1 $197 $198 $83 #
cone-surface $-1 8.328261024305796 28.203707130114136 8.0224619662254177 0 -0.77714596973225614 -0.62932038083071107 1 0 0 1 I I 0 1 1 forward I I I I #
face $-1 $199 $200 $66 $-1 $201 forward single #
loop $-1 $202 $203 $84 #
cone-surface $-1 12.35770252909068 28.203707130114136 8.0224619662254177 0 -0.77714596973225614 -0.62932038083071107 1 0 0 1 I I 0 1 1 forward I I I I #
face $-1 $204 $205 $67 $-1 $206 forward single #
loop $-1 $207 $208 $85 #
cone-surface $-1 16.387144033875551 28.203707130114136 8.0224619662254177 0 -0.77714596973225614 -0.62932038083071107 1 0 0 1 I I 0 1 1 forward I I I I #
face $-1 $209 $210 $68 $-1 $211 reversed single #
loop $-1 $-1 $212 $86 #
plane-surface $-1 30.357371745963917 85.228916878611074 131.62117440459505 1 0 0 0 -0.77714596973225614 -0.62932038083071107 forward_v I I I I #
face $-1 $213 $214 $69 $-1 $215 forward single #
loop $-1 $216 $217 $87 #
cone-surface $-1 33.043666082487157 28.203707130114136 8.0224619662254177 0 -0.77714596973225614 -0.62932038083071107 1 0 0 1 I I 0 1 1 forward I I I I #
face $-1 $218 $219 $70 $-1 $220 forward single #
loop $-1 $221 $222 $88 #
cone-surface $-1 37.073107587272041 28.203707130114136 8.0224619662254177 0 -0.77714596973225614 -0.62932038083071107 1 0 0 1 I I 0 1 1 forward I I I I #
face $-1 $223 $224 $71 $-1 $225 forward single #
loop $-1 $226 $227 $89 #
cone-surface $-1 41.102549092056911 28.203707130114136 8.0224619662254177 0 -0.77714596973225614 -0.62932038083071107 1 0 0 1 I I 0 1 1 forward I I I I #
face $-1 $228 $229 $54 $-1 $230 reversed single #
loop $-1 $-1 $231 $90 #
plane-surface $-1 0 0 -16.609461560746553 0 0 1 1 0 0 forward_v I I I I #
coedge $-1 $232 $233 $234 $235 forward $91 $-1 #
face $-1 $236 $237 $55 $-1 $238 reversed single #
loop $-1 $-1 $239 $93 #
plane-surface $-1 0 0 -16.609461560746553 0 0 1 1 0 0 forward_v I I I I #
coedge $-1 $240 $241 $242 $243 forward $94 $-1 #
face $-1 $244 $245 $56 $-1 $246 reversed single #
loop $-1 $-1 $247 $96 #
plane-surface $-1 -37.073107587272048 -9.1395195375478551 55.203123411837097 0 0.77714596973225614 0.62932038083071107 1 0 0 forward_v I I I I #
coedge $-1 $248 $249 $250 $251 reversed $97 $-1 #
face $-1 $-1 $252 $57 $-1 $253 forward single #
loop $-1 $254 $255 $99 #
cone-surface $-1 -41.102549092056925 27.293969389887536 7.2857708896021691 0 -0.77714596973225614 -0.62932038083071107 0.5 0 0 1 I I -0.70710678118654746 0.70710678118654746 0.5 forward I I I I #
loop $-1 $-1 $256 $75 #
coedge $-1 $160 $160 $257 $258 reversed $100 $-1 #
face $-1 $-1 $259 $58 $-1 $260 forward single #
loop $-1 $261 $262 $102 #
cone-surface $-1 -37.073107587272048 27.293969389887536 7.2857708896021691 0 -0.77714596973225614 -0.62932038083071107 0.5 0 0 1 I I -0.70710678118654746 0.70710678118654746 0.5 forward I I I I #
loop $-1 $-1 $263 $76 #
coedge $-1 $165 $165 $264 $265 reversed $103 $-1 #
face $-1 $-1 $266 $59 $-1 $267 forward single #
loop $-1 $268 $269 $105 #
cone-surface $-1 -33.043666082487178 27.293969389887536 7.2857708896021691 0 -0.77714596973225614 -0.62932038083071107 0.5 0 0 1 I I -0.70710678118654746 0.70710678118654746 0.5 forward I I I I #
loop $-1 $-1 $270 $77 #
coedge $-1 $170 $170 $271 $272 reversed $106 $-1 #
face $-1 $273 $274 $60 $-1 $275 reversed single #
loop $-1 $-1 $276 $108 #
plane-surface $-1 -12.357702529090687 -9.1395195375478551 55.203123411837097 0 0.77714596973225614 0.62932038083071107 1 0 0 forward_v I I I I #
coedge $-1 $277 $278 $279 $280 reversed $109 $-1 #
face $-1 $-1 $281 $61 $-1 $282 forward single #
loop $-1 $283 $284 $111 #
cone-surface $-1 -16.387144033875565 27.293969389887536 7.2857708896021691 0 -0.77714596973225614 -0.62932038083071107 0.5 0 0 1 I I -0.70710678118654746 0.70710678118654746 0.5 forward I I I I #
loop $-1 $-1 $285 $79 #
coedge $-1 $179 $179 $286 $287 reversed $112 $-1 #
face $-1 $-1 $288 $62 $-1 $289 forward single #
loop $-1 $290 $291 $114 #
cone-surface $-1 -12.357702529090687 27.293969389887536 7.2857708896021691 0 -0.77714596973225614 -0.62932038083071107 0.5 0 0 1 I I -0.70710678118654746 0.70710678118654746 0.5 forward I I I I #
loop $-1 $-1 $292 $80 #
coedge $-1 $184 $184 $293 $294 reversed $115 $-1 #
face $-1 $-1 $295 $63 $-1 $296 forward single #
loop $-1 $297 $298 $117 #
cone-surface $-1 -8.3282610243058102 27.293969389887536 7.2857708896021691 0 -0.77714596973225614 -0.62932038083071107 0.5 0 0 1 I I -0.70710678118654746 0.70710678118654746 0.5 forward I I I I #
loop $-1 $-1 $299 $81 #
coedge $-1 $189 $189 $300 $301 reversed $118 $-1 #
face $-1 $302 $303 $64 $-1 $304 reversed single #
loop $-1 $-1 $305 $120 #
plane-surface $-1 12.35770252909068 -9.1395195375478551 55.203123411837097 0 0.77714596973225614 0.62932038083071107 1 0 0 forward_v I I I I #
coedge $-1 $306 $307 $308 $309 reversed $121 $-1 #
face $-1 $-1 $310 $65 $-1 $311 forward single #
loop $-1 $312 $313 $123 #
cone-surface $-1 8.328261024305796 27.293969389887536 7.2857708896021691 0 -0.77714596973225614 -0.62932038083071107 0.5 0 0 1 I I -0.70710678118654746 0.70710678118654746 0.5 forward I I I I #
loop $-1 $-1 $314 $83 #
coedge $-1 $198 $198 $315 $316 reversed $124 $-1 #
face $-1 $-1 $317 $66 $-1 $318 forward single #
loop $-1 $319 $320 $126 #
cone-surface $-1 12.35770252909068 27.293969389887536 7.2857708896021691 0 -0.77714596973225614 -0.62932038083071107 0.5 0 0 1 I I -0.70710678118654746 0.70710678118654746 0.5 forward I I I I #
loop $-1 $-1 $321 $84 #
coedge $-1 $203 $203 $322 $323 reversed $127 $-1 #
face $-1 $-1 $324 $67 $-1 $325 forward single #
loop $-1 $326 $327 $129 #
cone-surface $-1 16.387144033875551 27.293969389887536 7.2857708896021691 0 -0.77714596973225614 -0.62932038083071107 0.5 0 0 1 I I -0.70710678118654746 0.70710678118654746 0.5 forward I I I I #
loop $-1 $-1 $328 $85 #
coedge $-1 $208 $208 $329 $330 reversed $130 $-1 #
face $-1 $331 $332 $68 $-1 $333 reversed single #
loop $-1 $-1 $334 $132 #
plane-surface $-1 37.073107587272041 -9.1395195375478551 55.203123411837097 0 0.77714596973225614 0.62932038083071107 1 0 0 forward_v I I I I #
coedge $-1 $335 $336 $337 $338 reversed $133 $-1 #
face $-1 $-1 $339 $69 $-1 $340 forward single #
loop $-1 $341 $342 $135 #
cone-surface $-1 33.043666082487157 27.293969389887536 7.2857708896021691 0 -0.77714596973225614 -0.62932038083071107 0.5 0 0 1 I I -0.70710678118654746 0.70710678118654746 0.5 forward I I I I #
loop $-1 $-1 $343 $87 #
coedge $-1 $217 $217 $344 $345 reversed $136 $-1 #
face $-1 $-1 $346 $70 $-1 $347 forward single #
loop $-1 $348 $349 $138 #
cone-surface $-1 37.073107587272041 27.293969389887536 7.2857708896021691 0 -0.77714596973225614 -0.62932038083071107 0.5 0 0 1 I I -0.70710678118654746 0.70710678118654746 0.5 forward I I I I #
loop $-1 $-1 $350 $88 #
coedge $-1 $222 $222 $351 $352 reversed $139 $-1 #
face $-1 $-1 $353 $71 $-1 $354 forward single #
loop $-1 $355 $356 $141 #
cone-surface $-1 41.102549092056911 27.293969389887536 7.2857708896021691 0 -0.77714596973225614 -0.62932038083071107 0.5 0 0 1 I I -0.70710678118654746 0.70710678118654746 0.5 forward I I I I #
loop $-1 $-1 $357 $89 #
coedge $-1 $227 $227 $358 $359 reversed $142 $-1 #
face $-1 $360 $361 $54 $-1 $362 reversed single #
loop $-1 $-1 $363 $144 #
plane-surface $-1 0 -35.336732999232694 0 0 1 0 0 0 1 forward_v I I I I #
coedge $-1 $364 $365 $366 $367 forward $145 $-1 #
coedge $-1 $368 $147 $369 $370 forward $91 $-1 #
coedge $-1 $147 $368 $371 $372 forward $91 $-1 #
coedge $-1 $373 $374 $147 $235 reversed $375 $-1 #
edge $-1 $376 -35.336732999232694 $377 35.336732999232694 $234 $378 forward 7 unknown #
face $-1 $379 $380 $55 $-1 $381 forward single #
loop $-1 $-1 $382 $148 #
plane-surface $-1 60.714743491927855 0 0 -1 0 0 0 0 1 forward_v I I I I #
coedge $-1 $383 $384 $385 $386 forward $149 $-1 #
coedge $-1 $385 $151 $382 $387 reversed $94 $-1 #
coedge $-1 $151 $385 $388 $389 reversed $94 $-1 #
coedge $-1 $390 $391 $151 $243 reversed $380 $-1 #
edge $-1 $392 -60.714743491927855 $393 60.714743491927855 $242 $394 forward 7 unknown #
face $-1 $395 $396 $56 $-1 $397 forward single #
loop $-1 $-1 $398 $152 #
plane-surface $-1 -30.357371745963924 85.228916878611074 131.62117440459505 -1 0 0 0 0.77714596973225614 0.62932038083071107 forward_v I I I I #
coedge $-1 $399 $400 $401 $402 reversed $153 $-1 #
coedge $-1 $249 $155 $403 $404 reversed $97 $-1 #
coedge $-1 $155 $248 $399 $405 reversed $97 $-1 #
coedge $-1 $401 $406 $155 $251 forward $396 $-1 #
edge $-1 $407 7.2777254400728424 $408 20.501447667589019 $250 $409 forward 7 unknown #
loop $-1 $-1 $257 $156 #
plane-surface $-1 -37.073107587272048 -9.1395195375478551 55.203123411837097 0 0.77714596973225614 0.62932038083071107 1 0 0 forward_v I I I I #
loop $-1 $-1 $410 $99 #
coedge $-1 $255 $255 $256 $411 reversed $157 $-1 #
coedge $-1 $256 $256 $255 $411 forward $159 $-1 #
coedge $-1 $257 $257 $160 $258 forward $252 $-1 #
edge $-1 $412 -5.2518199176725898e-016 $412 6.2831853071795996 $257 $413 forward 7 unknown #
loop $-1 $-1 $264 $161 #
plane-surface $-1 -37.073107587272048 -9.1395195375478551 55.203123411837097 0 0.77714596973225614 0.62932038083071107 1 0 0 forward_v I I I I #
loop $-1 $-1 $414 $102 #
coedge $-1 $262 $262 $263 $415 reversed $162 $-1 #
coedge $-1 $263 $263 $262 $415 forward $164 $-1 #
coedge $-1 $264 $264 $165 $265 forward $259 $-1 #
edge $-1 $416 -5.2518199176725898e-016 $416 6.2831853071795996 $264 $417 forward 7 unknown #
loop $-1 $-1 $271 $166 #
plane-surface $-1 -37.073107587272048 -9.1395195375478551 55.203123411837097 0 0.77714596973225614 0.62932038083071107 1 0 0 forward_v I I I I #
loop $-1 $-1 $418 $105 #
coedge $-1 $269 $269 $270 $419 reversed $167 $-1 #
coedge $-1 $270 $270 $269 $419 forward $169 $-1 #
coedge $-1 $271 $271 $170 $272 forward $266 $-1 #
edge $-1 $420 -5.2518199176725898e-016 $420 6.2831853071795996 $271 $421 forward 7 unknown #
face $-1 $422 $423 $60 $-1 $424 forward single #
loop $-1 $-1 $425 $171 #
plane-surface $-1 -5.6419666877825634 85.228916878611074 131.62117440459505 -1 0 0 0 0.77714596973225614 0.62932038083071107 forward_v I I I I #
coedge $-1 $426 $427 $428 $429 reversed $172 $-1 #
coedge $-1 $278 $174 $430 $431 reversed $109 $-1 #
coedge $-1 $174 $277 $426 $432 reversed $109 $-1 #
coedge $-1 $428 $433 $174 $280 forward $423 $-1 #
edge $-1 $434 7.2777254400728424 $435 20.501447667589019 $279 $436 forward 7 unknown #
loop $-1 $-1 $286 $175 #
plane-surface $-1 -12.357702529090687 -9.1395195375478551 55.203123411837097 0 0.77714596973225614 0.62932038083071107 1 0 0 forward_v I I I I #
loop $-1 $-1 $437 $111 #
coedge $-1 $284 $284 $285 $438 reversed $176 $-1 #
coedge $-1 $285 $285 $284 $438 forward $178 $-1 #
coedge $-1 $286 $286 $179 $287 forward $281 $-1 #
edge $-1 $439 -5.2518199176725898e-016 $439 6.2831853071795996 $286 $440 forward 7 unknown #
loop $-1 $-1 $293 $180 #
plane-surface $-1 -12.357702529090687 -9.1395195375478551 55.203123411837097 0 0.77714596973225614 0.62932038083071107 1 0 0 forward_v I I I I #
loop $-1 $-1 $441 $114 #
coedge $-1 $291 $291 $292 $442 reversed $181 $-1 #
coedge $-1 $292 $292 $291 $442 forward $183 $-1 #
coedge $-1 $293 $293 $184 $294 forward $288 $-1 #
edge $-1 $443 -5.2518199176725898e-016 $443 6.2831853071795996 $293 $444 forward 7 unknown #
loop $-1 $-1 $300 $185 #
plane-surface $-1 -12.357702529090687 -9.1395195375478551 55.203123411837097 0 0.77714596973225614 0.62932038083071107 1 0 0 forward_v I I I I #
loop $-1 $-1 $445 $117 #
coedge $-1 $298 $298 $299 $446 reversed $186 $-1 #
coedge $-1 $299 $299 $298 $446 forward $188 $-1 #
coedge $-1 $300 $300 $189 $301 forward $295 $-1 #
edge $-1 $447 -5.2518199176725898e-016 $447 6.2831853071795996 $300 $448 forward 7 unknown #
face $-1 $449 $450 $64 $-1 $451 forward single #
loop $-1 $-1 $452 $190 #
plane-surface $-1 19.073438370398804 85.228916878611074 131.62117440459505 -1 0 0 0 0.77714596973225614 0.62932038083071107 forward_v I I I I #
coedge $-1 $453 $454 $455 $456 reversed $191 $-1 #
coedge $-1 $307 $193 $457 $458 reversed $121 $-1 #
coedge $-1 $193 $306 $453 $459 reversed $121 $-1 #
coedge $-1 $455 $460 $193 $309 forward $450 $-1 #
edge $-1 $461 7.2777254400728424 $462 20.501447667589019 $308 $463 forward 7 unknown #
loop $-1 $-1 $315 $194 #
plane-surface $-1 12.35770252909068 -9.1395195375478551 55.203123411837097 0 0.77714596973225614 0.62932038083071107 1 0 0 forward_v I I I I #
loop $-1 $-1 $464 $123 #
coedge $-1 $313 $313 $314 $465 reversed $195 $-1 #
coedge $-1 $314 $314 $313 $465 forward $197 $-1 #
coedge $-1 $315 $315 $198 $316 forward $310 $-1 #
edge $-1 $466 -5.2518199176725898e-016 $466 6.2831853071795996 $315 $467 forward 7 unknown #
loop $-1 $-1 $322 $199 #
plane-surface $-1 12.35770252909068 -9.1395195375478551 55.203123411837097 0 0.77714596973225614 0.62932038083071107 1 0 0 forward_v I I I I #
loop $-1 $-1 $468 $126 #
coedge $-1 $320 $320 $321 $469 reversed $200 $-1 #
coedge $-1 $321 $321 $320 $469 forward $202 $-1 #
coedge $-1 $322 $322 $203 $323 forward $317 $-1 #
edge $-1 $470 -5.2518199176725898e-016 $470 6.2831853071795996 $322 $471 forward 7 unknown #
loop $-1 $-1 $329 $204 #
plane-surface $-1 12.35770252909068 -9.1395195375478551 55.203123411837097 0 0.77714596973225614 0.62932038083071107 1 0 0 forward_v I I I I #
loop $-1 $-1 $472 $129 #
coedge $-1 $327 $327 $328 $473 reversed $205 $-1 #
coedge $-1 $328 $328 $327 $473 forward $207 $-1 #
coedge $-1 $329 $329 $208 $330 forward $324 $-1 #
edge $-1 $474 -5.2518199176725898e-016 $474 6.2831853071795996 $329 $475 forward 7 unknown #
face $-1 $476 $477 $68 $-1 $478 forward single #
loop $-1 $-1 $479 $209 #
plane-surface $-1 43.788843428580165 85.228916878611074 131.62117440459505 -1 0 0 0 0.77714596973225614 0.62932038083071107 forward_v I I I I #
coedge $-1 $480 $481 $482 $483 reversed $210 $-1 #
coedge $-1 $336 $212 $484 $485 reversed $133 $-1 #
coedge $-1 $212 $335 $480 $486 reversed $133 $-1 #
coedge $-1 $482 $487 $212 $338 forward $477 $-1 #
edge $-1 $488 7.2777254400728424 $489 20.501447667589019 $337 $490 forward 7 unknown #
loop $-1 $-1 $344 $213 #
plane-surface $-1 37.073107587272041 -9.1395195375478551 55.203123411837097 0 0.77714596973225614 0.62932038083071107 1 0 0 forward_v I I I I #
loop $-1 $-1 $491 $135 #
coedge $-1 $342 $342 $343 $492 reversed $214 $-1 #
coedge $-1 $343 $343 $342 $492 forward $216 $-1 #
coedge $-1 $344 $344 $217 $345 forward $339 $-1 #
edge $-1 $493 -5.2518199176725898e-016 $493 6.2831853071795996 $344 $494 forward 7 unknown #
loop $-1 $-1 $351 $218 #
plane-surface $-1 37.073107587272041 -9.1395195375478551 55.203123411837097 0 0.77714596973225614 0.62932038083071107 1 0 0 forward_v I I I I #
loop $-1 $-1 $495 $138 #
coedge $-1 $349 $349 $350 $496 reversed $219 $-1 #
coedge $-1 $350 $350 $349 $496 forward $221 $-1 #
coedge $-1 $351 $351 $222 $352 forward $346 $-1 #
edge $-1 $497 -5.2518199176725898e-016 $497 6.2831853071795996 $351 $498 forward 7 unknown #
loop $-1 $-1 $358 $223 #
plane-surface $-1 37.073107587272041 -9.1395195375478551 55.203123411837097 0 0.77714596973225614 0.62932038083071107 1 0 0 forward_v I I I I #
loop $-1 $-1 $499 $141 #
coedge $-1 $356 $356 $357 $500 reversed $224 $-1 #
coedge $-1 $357 $357 $356 $500 forward $226 $-1 #
coedge $-1 $358 $358 $227 $359 forward $353 $-1 #
edge $-1 $501 -5.2518199176725898e-016 $501 6.2831853071795996 $358 $502 forward 7 unknown #
face $-1 $503 $504 $54 $-1 $505 reversed single #
loop $-1 $-1 $506 $228 #
plane-surface $-1 -60.714743491927855 0 0 1 0 0 0 0 -1 forward_v I I I I #
coedge $-1 $507 $371 $508 $509 forward $229 $-1 #
coedge $-1 $510 $231 $507 $511 forward $145 $-1 #
coedge $-1 $231 $510 $512 $513 forward $145 $-1 #
coedge $-1 $374 $373 $231 $367 reversed $375 $-1 #
edge $-1 $514 -35.336732999232694 $515 35.336732999232694 $366 $516 forward 7 unknown #
coedge $-1 $233 $232 $517 $518 forward $91 $-1 #
coedge $-1 $519 $520 $232 $370 reversed $504 $-1 #
edge $-1 $377 -60.714743491927855 $521 60.714743491927855 $369 $522 forward 7 unknown #
coedge $-1 $363 $523 $233 $372 reversed $229 $-1 #
edge $-1 $524 -60.714743491927855 $376 60.714743491927855 $371 $525 forward 7 unknown #
coedge $-1 $366 $234 $523 $526 forward $375 $-1 #
coedge $-1 $234 $366 $519 $527 reversed $375 $-1 #
loop $-1 $-1 $373 $503 #
vertex $-1 $235 $528 #
vertex $-1 $235 $529 #
straight-curve $-1 60.714743491927855 0 16.609461560746553 0 1 0 I I #
face $-1 $530 $531 $55 $-1 $532 reversed single #
loop $-1 $-1 $391 $236 #
plane-surface $-1 0 -41.238720933489134 -12.142389782731016 0 0 1 1 0 0 forward_v I I I I #
coedge $-1 $533 $534 $240 $387 forward $237 $-1 #
coedge $-1 $535 $239 $534 $536 forward $149 $-1 #
coedge $-1 $239 $535 $537 $538 forward $149 $-1 #
coedge $-1 $241 $240 $239 $386 reversed $94 $-1 #
edge $-1 $539 -60.714743491927855 $540 60.714743491927855 $239 $541 forward 7 unknown #
edge $-1 $540 -16.609461560746553 $393 -12.142389782731016 $382 $542 forward 7 unknown #
coedge $-1 $537 $543 $241 $389 forward $544 $-1 #
edge $-1 $392 12.142389782731016 $539 16.609461560746553 $388 $545 forward 7 unknown #
coedge $-1 $546 $242 $543 $547 forward $380 $-1 #
coedge $-1 $242 $546 $533 $548 forward $380 $-1 #
vertex $-1 $389 $549 #
vertex $-1 $548 $550 #
straight-curve $-1 0 -35.336732999232694 -12.142389782731016 1 0 0 I I #
face $-1 $-1 $551 $56 $-1 $552 reversed single #
loop $-1 $-1 $250 $244 #
plane-surface $-1 0 0 16.609461560746553 0 0 1 1 0 0 forward_v I I I I #
coedge $-1 $553 $554 $555 $556 reversed $245 $-1 #
coedge $-1 $557 $247 $249 $405 forward $153 $-1 #
coedge $-1 $247 $557 $553 $558 forward $153 $-1 #
coedge $-1 $555 $250 $247 $402 forward $396 $-1 #
edge $-1 $408 -25.252289634944148 $559 -11.8208179523279 $401 $560 forward 7 unknown #
coedge $-1 $561 $562 $248 $404 forward $551 $-1 #
edge $-1 $563 -65.531063058177438 $407 -49.201125641550973 $403 $564 forward 7 unknown #
edge $-1 $408 49.660763040934135 $563 70.673465998465389 $249 $565 forward 7 unknown #
coedge $-1 $250 $555 $561 $566 forward $396 $-1 #
vertex $-1 $404 $567 #
vertex $-1 $251 $568 #
straight-curve $-1 -43.788843428580172 42.614458439305537 16.609461560746553 0 -1 0 I I #
coedge $-1 $410 $410 $-1 $569 reversed $254 $-1 #
edge $-1 $570 0 $570 6.2831853071796004 $255 $571 forward 7 unknown #
vertex $-1 $258 $572 #
ellipse-curve $-1 -41.102549092056925 28.724871885474606 8.4444928524333083 0 0.77714596973225614 0.62932038083071107 1 0 0 1 I I #
coedge $-1 $414 $414 $-1 $573 reversed $261 $-1 #
edge $-1 $574 0 $574 6.2831853071796004 $262 $575 forward 7 unknown #
vertex $-1 $265 $576 #
ellipse-curve $-1 -37.073107587272048 28.724871885474606 8.4444928524333083 0 0.77714596973225614 0.62932038083071107 1 0 0 1 I I #
coedge $-1 $418 $418 $-1 $577 reversed $268 $-1 #
edge $-1 $578 0 $578 6.2831853071796004 $269 $579 forward 7 unknown #
vertex $-1 $272 $580 #
ellipse-curve $-1 -33.043666082487178 28.724871885474606 8.4444928524333083 0 0.77714596973225614 0.62932038083071107 1 0 0 1 I I #
face $-1 $-1 $581 $60 $-1 $582 reversed single #
loop $-1 $-1 $279 $273 #
plane-surface $-1 0 0 16.609461560746553 0 0 1 1 0 0 forward_v I I I I #
coedge $-1 $583 $584 $585 $586 reversed $274 $-1 #
coedge $-1 $587 $276 $278 $432 forward $172 $-1 #
coedge $-1 $276 $587 $583 $588 forward $172 $-1 #
coedge $-1 $585 $279 $276 $429 forward $423 $-1 #
edge $-1 $435 -12.894587105853468 $589 0.53688457676278034 $428 $590 forward 7 unknown #
coedge $-1 $591 $592 $277 $431 forward $581 $-1 #
edge $-1 $593 -65.531063058177438 $434 -49.201125641550973 $430 $594 forward 7 unknown #
edge $-1 $435 49.660763040934135 $593 70.673465998465389 $278 $595 forward 7 unknown #
coedge $-1 $279 $585 $591 $596 forward $423 $-1 #
vertex $-1 $280 $597 #
vertex $-1 $280 $598 #
straight-curve $-1 -19.073438370398812 42.614458439305537 16.609461560746553 0 -1 0 I I #
coedge $-1 $437 $437 $-1 $599 reversed $283 $-1 #
edge $-1 $600 0 $600 6.2831853071796004 $284 $601 forward 7 unknown #
vertex $-1 $287 $602 #
ellipse-curve $-1 -16.387144033875565 28.724871885474606 8.4444928524333083 0 0.77714596973225614 0.62932038083071107 1 0 0 1 I I #
coedge $-1 $441 $441 $-1 $603 reversed $290 $-1 #
edge $-1 $604 0 $604 6.2831853071796004 $291 $605 forward 7 unknown #
vertex $-1 $294 $606 #
ellipse-curve $-1 -12.357702529090687 28.724871885474606 8.4444928524333083 0 0.77714596973225614 0.62932038083071107 1 0 0 1 I I #
coedge $-1 $445 $445 $-1 $607 reversed $297 $-1 #
edge $-1 $608 0 $608 6.2831853071796004 $298 $609 forward 7 unknown #
vertex $-1 $301 $610 #
ellipse-curve $-1 -8.3282610243058102 28.724871885474606 8.4444928524333083 0 0.77714596973225614 0.62932038083071107 1 0 0 1 I I #
face $-1 $-1 $611 $64 $-1 $612 reversed single #
loop $-1 $-1 $308 $302 #
plane-surface $-1 0 0 16.609461560746553 0 0 1 1 0 0 forward_v I I I I #
coedge $-1 $613 $614 $615 $616 reversed $303 $-1 #
coedge $-1 $617 $305 $307 $459 forward $191 $-1 #
coedge $-1 $305 $617 $613 $618 forward $191 $-1 #
coedge $-1 $615 $308 $305 $456 forward $450 $-1 #
edge $-1 $462 -0.53688457676278389 $619 12.894587105853464 $455 $620 forward 7 unknown #
coedge $-1 $621 $622 $306 $458 forward $611 $-1 #
edge $-1 $623 -65.531063058177438 $461 -49.201125641550973 $457 $624 forward 7 unknown #
edge $-1 $462 49.660763040934135 $623 70.673465998465389 $307 $625 forward 7 unknown #
coedge $-1 $308 $615 $621 $626 forward $450 $-1 #
vertex $-1 $309 $627 #
vertex $-1 $309 $628 #
straight-curve $-1 5.6419666877825563 42.614458439305537 16.609461560746553 0 -1 0 I I #
coedge $-1 $464 $464 $-1 $629 reversed $312 $-1 #
edge $-1 $630 0 $630 6.2831853071796004 $313 $631 forward 7 unknown #
vertex $-1 $316 $632 #
ellipse-curve $-1 8.328261024305796 28.724871885474606 8.4444928524333083 0 0.77714596973225614 0.62932038083071107 1 0 0 1 I I #
coedge $-1 $468 $468 $-1 $633 reversed $319 $-1 #
edge $-1 $634 0 $634 6.2831853071796004 $320 $635 forward 7 unknown #
vertex $-1 $323 $636 #
ellipse-curve $-1 12.35770252909068 28.724871885474606 8.4444928524333083 0 0.77714596973225614 0.62932038083071107 1 0 0 1 I I #
coedge $-1 $472 $472 $-1 $637 reversed $326 $-1 #
edge $-1 $638 0 $638 6.2831853071796004 $327 $639 forward 7 unknown #
vertex $-1 $330 $640 #
ellipse-curve $-1 16.387144033875551 28.724871885474606 8.4444928524333083 0 0.77714596973225614 0.62932038083071107 1 0 0 1 I I #
face $-1 $-1 $641 $68 $-1 $642 reversed single #
loop $-1 $-1 $337 $331 #
plane-surface $-1 0 0 16.609461560746553 0 0 1 1 0 0 forward_v I I I I #
coedge $-1 $643 $644 $645 $646 reversed $332 $-1 #
coedge $-1 $647 $334 $336 $486 forward $210 $-1 #
coedge $-1 $334 $647 $643 $648 forward $210 $-1 #
coedge $-1 $645 $337 $334 $483 forward $477 $-1 #
edge $-1 $489 11.820817952327896 $649 25.252289634944145 $482 $650 forward 7 unknown #
coedge $-1 $651 $652 $335 $485 forward $641 $-1 #
edge $-1 $653 -65.531063058177438 $488 -49.201125641550973 $484 $654 forward 7 unknown #
edge $-1 $489 49.660763040934135 $653 70.673465998465389 $336 $655 forward 7 unknown #
coedge $-1 $337 $645 $651 $656 forward $477 $-1 #
vertex $-1 $338 $657 #
vertex $-1 $338 $658 #
straight-curve $-1 30.357371745963917 42.614458439305537 16.609461560746553 0 -1 0 I I #
coedge $-1 $491 $491 $-1 $659 reversed $341 $-1 #
edge $-1 $660 0 $660 6.2831853071796004 $342 $661 forward 7 unknown #
vertex $-1 $345 $662 #
ellipse-curve $-1 33.043666082487157 28.724871885474606 8.4444928524333083 0 0.77714596973225614 0.62932038083071107 1 0 0 1 I I #
coedge $-1 $495 $495 $-1 $663 reversed $348 $-1 #
edge $-1 $664 0 $664 6.2831853071796004 $349 $665 forward 7 unknown #
vertex $-1 $352 $666 #
ellipse-curve $-1 37.073107587272041 28.724871885474606 8.4444928524333083 0 0.77714596973225614 0.62932038083071107 1 0 0 1 I I #
coedge $-1 $499 $499 $-1 $667 reversed $355 $-1 #
edge $-1 $668 0 $668 6.2831853071796004 $356 $669 forward 7 unknown #
vertex $-1 $359 $670 #
ellipse-curve $-1 41.102549092056911 28.724871885474606 8.4444928524333083 0 0.77714596973225614 0.62932038083071107 1 0 0 1 I I #
face $-1 $-1 $375 $54 $-1 $671 reversed single #
loop $-1 $-1 $519 $360 #
plane-surface $-1 0 35.336732999232694 0 0 -1 0 0 0 -1 forward_v I I I I #
coedge $-1 $672 $517 $520 $673 forward $361 $-1 #
coedge $-1 $523 $363 $364 $511 reversed $229 $-1 #
coedge $-1 $517 $672 $363 $509 reversed $361 $-1 #
edge $-1 $524 -16.609461560746553 $674 16.609461560746553 $508 $675 forward 7 unknown #
coedge $-1 $365 $364 $672 $676 forward $145 $-1 #
edge $-1 $515 -60.714743491927855 $674 60.714743491927855 $507 $677 forward 7 unknown #
coedge $-1 $520 $519 $365 $513 reversed $504 $-1 #
edge $-1 $678 -60.714743491927855 $514 60.714743491927855 $512 $679 forward 7 unknown #
vertex $-1 $367 $680 #
vertex $-1 $526 $681 #
straight-curve $-1 60.714743491927855 0 -16.609461560746553 0 -1 0 I I #
coedge $-1 $506 $508 $368 $518 reversed $361 $-1 #
edge $-1 $521 -35.336732999232694 $524 35.336732999232694 $517 $682 forward 7 unknown #
coedge $-1 $512 $369 $374 $527 forward $504 $-1 #
coedge $-1 $369 $512 $506 $673 reversed $504 $-1 #
vertex $-1 $370 $683 #
straight-curve $-1 0 35.336732999232694 16.609461560746553 -1 0 0 I I #
coedge $-1 $371 $507 $373 $526 reversed $229 $-1 #
vertex $-1 $518 $684 #
straight-curve $-1 0 -35.336732999232694 16.609461560746553 1 0 0 I I #
edge $-1 $376 -16.609461560746553 $515 16.609461560746553 $373 $685 forward 7 unknown #
edge $-1 $377 -16.609461560746553 $514 16.609461560746553 $374 $686 forward 7 unknown #
point $-1 60.714743491927855 -35.336732999232694 16.609461560746553 #
point $-1 60.714743491927855 35.336732999232694 16.609461560746553 #
face $-1 $-1 $544 $55 $-1 $687 reversed single #
loop $-1 $-1 $688 $379 #
plane-surface $-1 0 -47.140708867745573 -14.375925671738784 0 1 0 0 0 1 forward_v I I I I #
coedge $-1 $689 $382 $391 $548 reversed $237 $-1 #
coedge $-1 $382 $689 $383 $536 reversed $237 $-1 #
coedge $-1 $384 $383 $690 $691 forward $149 $-1 #
edge $-1 $540 35.336732999232694 $692 47.140708867745573 $534 $693 forward 7 unknown #
coedge $-1 $694 $388 $384 $538 reversed $544 $-1 #
edge $-1 $695 -47.140708867745573 $539 -35.336732999232694 $537 $696 forward 7 unknown #
vertex $-1 $389 $697 #
vertex $-1 $536 $698 #
straight-curve $-1 0 -35.336732999232694 -16.609461560746553 1 0 0 I I #
straight-curve $-1 60.714743491927855 -35.336732999232694 0 0 0 1 I I #
coedge $-1 $388 $694 $390 $547 reversed $544 $-1 #
loop $-1 $-1 $388 $530 #
straight-curve $-1 -60.714743491927855 -35.336732999232694 0 0 0 -1 I I #
coedge $-1 $391 $390 $699 $700 forward $380 $-1 #
edge $-1 $392 -5.9019879342564394 $701 5.9019879342564394 $543 $702 forward 7 unknown #
edge $-1 $703 -5.9019879342564394 $393 5.9019879342564394 $533 $704 forward 7 unknown #
point $-1 -60.714743491927855 -35.336732999232694 -12.142389782731016 #
point $-1 60.714743491927855 -35.336732999232694 -12.142389782731016 #
loop $-1 $-1 $403 $395 #
plane-surface $-1 0 35.336732999232694 0 0 -1 0 0 0 -1 forward_v I I I I #
coedge $-1 $554 $398 $400 $558 reversed $245 $-1 #
coedge $-1 $398 $553 $705 $706 reversed $245 $-1 #
coedge $-1 $406 $401 $398 $556 forward $396 $-1 #
edge $-1 $559 -20.501447667589019 $707 -7.2777254400728424 $555 $708 forward 7 unknown #
coedge $-1 $400 $399 $562 $709 reversed $153 $-1 #
edge $-1 $710 -70.673465998465389 $559 -49.660763040934135 $553 $711 forward 7 unknown #
vertex $-1 $402 $712 #
straight-curve $-1 -18.536553793636024 22.113010771716514 16.609461560746556 1 0 0 I I #
coedge $-1 $705 $403 $406 $566 reversed $551 $-1 #
coedge $-1 $403 $705 $557 $709 forward $551 $-1 #
vertex $-1 $404 $713 #
straight-curve $-1 -43.788843428580172 35.336732999232694 65.810587202297526 0 0 1 I I #
straight-curve $-1 -43.788843428580172 -9.1395195375478551 55.203123411837097 0 0.62932038083071107 -0.77714596973225614 I I #
edge $-1 $707 30.357371745963924 $407 43.788843428580172 $561 $714 forward 7 unknown #
point $-1 -43.788843428580172 35.336732999232694 16.609461560746553 #
point $-1 -43.788843428580172 22.113010771716517 16.609461560746553 #
edge $-1 $715 1 $715 0 $410 $-1 forward 7 unknown #
vertex $-1 $411 $716 #
ellipse-curve $-1 -41.102549092056925 27.682542374753663 7.6004310800175245 0 0.77714596973225614 0.62932038083071107 1 0 0 1 I I #
point $-1 -40.102549092056925 28.724871885474609 8.4444928524333118 #
edge $-1 $717 1 $717 0 $414 $-1 forward 7 unknown #
vertex $-1 $415 $718 #
ellipse-curve $-1 -37.073107587272048 27.682542374753663 7.6004310800175245 0 0.77714596973225614 0.62932038083071107 1 0 0 1 I I #
point $-1 -36.073107587272048 28.724871885474609 8.4444928524333118 #
edge $-1 $719 1 $719 0 $418 $-1 forward 7 unknown #
vertex $-1 $419 $720 #
ellipse-curve $-1 -33.043666082487178 27.682542374753663 7.6004310800175245 0 0.77714596973225614 0.62932038083071107 1 0 0 1 I I #
point $-1 -32.043666082487178 28.724871885474609 8.4444928524333118 #
loop $-1 $-1 $430 $422 #
plane-surface $-1 0 35.336732999232694 0 0 -1 0 0 0 -1 forward_v I I I I #
coedge $-1 $584 $425 $427 $588 reversed $274 $-1 #
coedge $-1 $425 $583 $721 $722 reversed $274 $-1 #
coedge $-1 $433 $428 $425 $586 forward $423 $-1 #
edge $-1 $589 -20.501447667589019 $723 -7.2777254400728424 $585 $724 forward 7 unknown #
coedge $-1 $427 $426 $592 $725 reversed $172 $-1 #
edge $-1 $726 -70.673465998465389 $589 -49.660763040934135 $583 $727 forward 7 unknown #
vertex $-1 $429 $728 #
straight-curve $-1 -6.1788512645453437 22.113010771716514 16.609461560746556 1 0 0 I I #
coedge $-1 $721 $430 $433 $596 reversed $581 $-1 #
coedge $-1 $430 $721 $587 $725 forward $581 $-1 #
vertex $-1 $431 $729 #
straight-curve $-1 -19.073438370398812 35.336732999232694 65.810587202297526 0 0 1 I I #
straight-curve $-1 -19.073438370398812 -9.1395195375478551 55.203123411837097 0 0.62932038083071107 -0.77714596973225614 I I #
edge $-1 $723 5.6419666877825634 $434 19.073438370398812 $591 $730 forward 7 unknown #
point $-1 -19.073438370398812 35.336732999232694 16.609461560746553 #
point $-1 -19.073438370398812 22.113010771716517 16.609461560746553 #
edge $-1 $731 1 $731 0 $437 $-1 forward 7 unknown #
vertex $-1 $438 $732 #
ellipse-curve $-1 -16.387144033875565 27.682542374753663 7.6004310800175245 0 0.77714596973225614 0.62932038083071107 1 0 0 1 I I #
point $-1 -15.387144033875565 28.724871885474609 8.4444928524333118 #
edge $-1 $733 1 $733 0 $441 $-1 forward 7 unknown #
vertex $-1 $442 $734 #
ellipse-curve $-1 -12.357702529090687 27.682542374753663 7.6004310800175245 0 0.77714596973225614 0.62932038083071107 1 0 0 1 I I #
point $-1 -11.357702529090687 28.724871885474609 8.4444928524333118 #
edge $-1 $735 1 $735 0 $445 $-1 forward 7 unknown #
vertex $-1 $446 $736 #
ellipse-curve $-1 -8.3282610243058102 27.682542374753663 7.6004310800175245 0 0.77714596973225614 0.62932038083071107 1 0 0 1 I I #
point $-1 -7.3282610243058102 28.724871885474609 8.4444928524333118 #
loop $-1 $-1 $457 $449 #
plane-surface $-1 0 35.336732999232694 0 0 -1 0 0 0 -1 forward_v I I I I #
coedge $-1 $614 $452 $454 $618 reversed $303 $-1 #
coedge $-1 $452 $613 $737 $738 reversed $303 $-1 #
coedge $-1 $460 $455 $452 $616 forward $450 $-1 #
edge $-1 $619 -20.501447667589019 $739 -7.2777254400728424 $615 $740 forward 7 unknown #
coedge $-1 $454 $453 $622 $741 reversed $191 $-1 #
edge $-1 $742 -70.673465998465389 $619 -49.660763040934135 $613 $743 forward 7 unknown #
vertex $-1 $456 $744 #
straight-curve $-1 6.1788512645453402 22.113010771716514 16.609461560746556 1 0 0 I I #
coedge $-1 $737 $457 $460 $626 reversed $611 $-1 #
coedge $-1 $457 $737 $617 $741 forward $611 $-1 #
vertex $-1 $458 $745 #
straight-curve $-1 5.6419666877825563 35.336732999232694 65.810587202297526 0 0 1 I I #
straight-curve $-1 5.6419666877825563 -9.1395195375478551 55.203123411837097 0 0.62932038083071107 -0.77714596973225614 I I #
edge $-1 $739 -19.073438370398804 $461 -5.6419666877825563 $621 $746 forward 7 unknown #
point $-1 5.6419666877825563 35.336732999232694 16.609461560746553 #
point $-1 5.6419666877825563 22.113010771716517 16.609461560746553 #
edge $-1 $747 1 $747 0 $464 $-1 forward 7 unknown #
vertex $-1 $465 $748 #
ellipse-curve $-1 8.328261024305796 27.682542374753663 7.6004310800175245 0 0.77714596973225614 0.62932038083071107 1 0 0 1 I I #
point $-1 9.328261024305796 28.724871885474609 8.4444928524333118 #
edge $-1 $749 1 $749 0 $468 $-1 forward 7 unknown #
vertex $-1 $469 $750 #
ellipse-curve $-1 12.35770252909068 27.682542374753663 7.6004310800175245 0 0.77714596973225614 0.62932038083071107 1 0 0 1 I I #
point $-1 13.35770252909068 28.724871885474609 8.4444928524333118 #
edge $-1 $751 1 $751 0 $472 $-1 forward 7 unknown #
vertex $-1 $473 $752 #
ellipse-curve $-1 16.387144033875551 27.682542374753663 7.6004310800175245 0 0.77714596973225614 0.62932038083071107 1 0 0 1 I I #
point $-1 17.387144033875551 28.724871885474609 8.4444928524333118 #
loop $-1 $-1 $484 $476 #
plane-surface $-1 0 35.336732999232694 0 0 -1 0 0 0 -1 forward_v I I I I #
coedge $-1 $644 $479 $481 $648 reversed $332 $-1 #
coedge $-1 $479 $643 $753 $754 reversed $332 $-1 #
coedge $-1 $487 $482 $479 $646 forward $477 $-1 #
edge $-1 $649 -20.501447667589019 $755 -7.2777254400728424 $645 $756 forward 7 unknown #
coedge $-1 $481 $480 $652 $757 reversed $210 $-1 #
edge $-1 $758 -70.673465998465389 $649 -49.660763040934135 $643 $759 forward 7 unknown #
vertex $-1 $483 $760 #
straight-curve $-1 18.536553793636021 22.113010771716514 16.609461560746556 1 0 0 I I #
coedge $-1 $753 $484 $487 $656 reversed $641 $-1 #
coedge $-1 $484 $753 $647 $757 forward $641 $-1 #
vertex $-1 $485 $761 #
straight-curve $-1 30.357371745963917 35.336732999232694 65.810587202297526 0 0 1 I I #
straight-curve $-1 30.357371745963917 -9.1395195375478551 55.203123411837097 0 0.62932038083071107 -0.77714596973225614 I I #
edge $-1 $755 -43.788843428580165 $488 -30.357371745963917 $651 $762 forward 7 unknown #
point $-1 30.357371745963917 35.336732999232694 16.609461560746553 #
point $-1 30.357371745963917 22.113010771716517 16.609461560746553 #
edge $-1 $763 1 $763 0 $491 $-1 forward 7 unknown #
vertex $-1 $492 $764 #
ellipse-curve $-1 33.043666082487157 27.682542374753663 7.6004310800175245 0 0.77714596973225614 0.62932038083071107 1 0 0 1 I I #
point $-1 34.043666082487157 28.724871885474609 8.4444928524333118 #
edge $-1 $765 1 $765 0 $495 $-1 forward 7 unknown #
vertex $-1 $496 $766 #
ellipse-curve $-1 37.073107587272041 27.682542374753663 7.6004310800175245 0 0.77714596973225614 0.62932038083071107 1 0 0 1 I I #
point $-1 38.073107587272041 28.724871885474609 8.4444928524333118 #
edge $-1 $767 1 $767 0 $499 $-1 forward 7 unknown #
vertex $-1 $500 $768 #
ellipse-curve $-1 41.102549092056911 27.682542374753663 7.6004310800175245 0 0.77714596973225614 0.62932038083071107 1 0 0 1 I I #
point $-1 42.102549092056911 28.724871885474609 8.4444928524333118 #
plane-surface $-1 60.714743491927855 0 0 -1 0 0 0 0 1 forward_v I I I I #
coedge $-1 $508 $506 $510 $676 reversed $361 $-1 #
edge $-1 $521 -16.609461560746553 $678 16.609461560746553 $520 $769 forward 7 unknown #
vertex $-1 $676 $770 #
straight-curve $-1 -60.714743491927855 -35.336732999232694 0 0 0 -1 I I #
edge $-1 $674 -35.336732999232694 $678 35.336732999232694 $672 $771 forward 7 unknown #
straight-curve $-1 0 -35.336732999232694 -16.609461560746553 -1 0 0 I I #
vertex $-1 $513 $772 #
straight-curve $-1 0 35.336732999232694 -16.609461560746553 1 0 0 I I #
point $-1 60.714743491927855 35.336732999232694 -16.609461560746553 #
point $-1 60.714743491927855 -35.336732999232694 -16.609461560746553 #
straight-curve $-1 -60.714743491927855 0 16.609461560746553 0 -1 0 I I #
point $-1 -60.714743491927855 35.336732999232694 16.609461560746553 #
point $-1 -60.714743491927855 -35.336732999232694 16.609461560746553 #
straight-curve $-1 60.714743491927855 -35.336732999232694 0 0 0 -1 I I #
straight-curve $-1 60.714743491927855 35.336732999232694 0 0 0 -1 I I #
plane-surface $-1 -60.714743491927855 0 0 1 0 0 0 0 -1 forward_v I I I I #
coedge $-1 $690 $699 $694 $773 forward $531 $-1 #
coedge $-1 $534 $533 $774 $775 forward $237 $-1 #
coedge $-1 $774 $688 $535 $691 reversed $531 $-1 #
edge $-1 $692 -60.714743491927855 $695 60.714743491927855 $690 $776 forward 7 unknown #
vertex $-1 $775 $777 #
straight-curve $-1 60.714743491927855 0 -16.609461560746553 0 -1 0 I I #
coedge $-1 $543 $537 $688 $773 reversed $544 $-1 #
vertex $-1 $538 $778 #
straight-curve $-1 -60.714743491927855 0 -16.609461560746553 0 1 0 I I #
point $-1 -60.714743491927855 -35.336732999232694 -16.609461560746553 #
point $-1 60.714743491927855 -35.336732999232694 -16.609461560746553 #
coedge $-1 $688 $774 $546 $700 reversed $531 $-1 #
edge $-1 $701 -60.714743491927855 $703 60.714743491927855 $699 $779 forward 7 unknown #
vertex $-1 $547 $780 #
straight-curve $-1 -60.714743491927855 -41.238720933489134 -12.142389782731016 0 -1 0 I I #
vertex $-1 $548 $781 #
straight-curve $-1 60.714743491927855 -41.238720933489134 -12.142389782731016 0 1 0 I I #
coedge $-1 $562 $561 $554 $706 forward $551 $-1 #
edge $-1 $707 49.201125641550973 $710 65.531063058177438 $705 $782 forward 7 unknown #
vertex $-1 $566 $783 #
straight-curve $-1 -30.357371745963924 42.614458439305537 16.609461560746553 0 1 0 I I #
edge $-1 $710 11.8208179523279 $563 25.252289634944148 $562 $784 forward 7 unknown #
vertex $-1 $709 $785 #
straight-curve $-1 -30.357371745963924 -9.1395195375478551 55.203123411837097 0 -0.62932038083071107 0.77714596973225614 I I #
point $-1 -30.357371745963924 22.113010771716517 16.609461560746553 #
point $-1 -43.788843428580172 35.336732999232694 0.27952414412008153 #
straight-curve $-1 0 35.336732999232694 16.609461560746553 -1 0 0 I I #
vertex $-1 $569 $786 #
point $-1 -40.102549092056925 27.682542374753663 7.6004310800175245 #
vertex $-1 $573 $787 #
point $-1 -36.073107587272048 27.682542374753663 7.6004310800175245 #
vertex $-1 $577 $788 #
point $-1 -32.043666082487178 27.682542374753663 7.6004310800175245 #
coedge $-1 $592 $591 $584 $722 forward $581 $-1 #
edge $-1 $723 49.201125641550973 $726 65.531063058177438 $721 $789 forward 7 unknown #
vertex $-1 $596 $790 #
straight-curve $-1 -5.6419666877825634 42.614458439305537 16.609461560746553 0 1 0 I I #
edge $-1 $726 -0.53688457676278034 $593 12.894587105853468 $592 $791 forward 7 unknown #
vertex $-1 $725 $792 #
straight-curve $-1 -5.6419666877825634 -9.1395195375478551 55.203123411837097 0 -0.62932038083071107 0.77714596973225614 I I #
point $-1 -5.6419666877825634 22.113010771716517 16.609461560746553 #
point $-1 -19.073438370398812 35.336732999232694 0.27952414412008153 #
straight-curve $-1 0 35.336732999232694 16.609461560746553 -1 0 0 I I #
vertex $-1 $599 $793 #
point $-1 -15.387144033875565 27.682542374753663 7.6004310800175245 #
vertex $-1 $603 $794 #
point $-1 -11.357702529090687 27.682542374753663 7.6004310800175245 #
vertex $-1 $607 $795 #
point $-1 -7.3282610243058102 27.682542374753663 7.6004310800175245 #
coedge $-1 $622 $621 $614 $738 forward $611 $-1 #
edge $-1 $739 49.201125641550973 $742 65.531063058177438 $737 $796 forward 7 unknown #
vertex $-1 $626 $797 #
straight-curve $-1 19.073438370398804 42.614458439305537 16.609461560746553 0 1 0 I I #
edge $-1 $742 -12.894587105853464 $623 0.53688457676278389 $622 $798 forward 7 unknown #
vertex $-1 $741 $799 #
straight-curve $-1 19.073438370398804 -9.1395195375478551 55.203123411837097 0 -0.62932038083071107 0.77714596973225614 I I #
point $-1 19.073438370398804 22.113010771716517 16.609461560746553 #
point $-1 5.6419666877825563 35.336732999232694 0.27952414412008153 #
straight-curve $-1 0 35.336732999232694 16.609461560746553 -1 0 0 I I #
vertex $-1 $629 $800 #
point $-1 9.328261024305796 27.682542374753663 7.6004310800175245 #
vertex $-1 $633 $801 #
point $-1 13.35770252909068 27.682542374753663 7.6004310800175245 #
vertex $-1 $637 $802 #
point $-1 17.387144033875551 27.682542374753663 7.6004310800175245 #
coedge $-1 $652 $651 $644 $754 forward $641 $-1 #
edge $-1 $755 49.201125641550973 $758 65.531063058177438 $753 $803 forward 7 unknown #
vertex $-1 $656 $804 #
straight-curve $-1 43.788843428580165 42.614458439305537 16.609461560746553 0 1 0 I I #
edge $-1 $758 -25.252289634944145 $653 -11.820817952327896 $652 $805 forward 7 unknown #
vertex $-1 $757 $806 #
straight-curve $-1 43.788843428580165 -9.1395195375478551 55.203123411837097 0 -0.62932038083071107 0.77714596973225614 I I #
point $-1 43.788843428580165 22.113010771716517 16.609461560746553 #
point $-1 30.357371745963917 35.336732999232694 0.27952414412008153 #
straight-curve $-1 0 35.336732999232694 16.609461560746553 -1 0 0 I I #
vertex $-1 $659 $807 #
point $-1 34.043666082487157 27.682542374753663 7.6004310800175245 #
vertex $-1 $663 $808 #
point $-1 38.073107587272041 27.682542374753663 7.6004310800175245 #
vertex $-1 $667 $809 #
point $-1 42.102549092056911 27.682542374753663 7.6004310800175245 #
straight-curve $-1 -60.714743491927855 35.336732999232694 0 0 0 -1 I I #
point $-1 -60.714743491927855 -35.336732999232694 -16.609461560746553 #
straight-curve $-1 -60.714743491927855 0 -16.609461560746553 0 1 0 I I #
point $-1 -60.714743491927855 35.336732999232694 -16.609461560746553 #
edge $-1 $701 -2.2335358890077686 $695 2.2335358890077686 $694 $810 forward 7 unknown #
coedge $-1 $699 $690 $689 $775 reversed $531 $-1 #
edge $-1 $703 -2.2335358890077686 $692 2.2335358890077686 $689 $811 forward 7 unknown #
straight-curve $-1 0 -47.140708867745573 -16.609461560746553 -1 0 0 I I #
point $-1 60.714743491927855 -47.140708867745573 -16.609461560746553 #
point $-1 -60.714743491927855 -47.140708867745573 -16.609461560746553 #
straight-curve $-1 0 -47.140708867745573 -12.142389782731016 1 0 0 I I #
point $-1 -60.714743491927855 -47.140708867745573 -12.142389782731016 #
point $-1 60.714743491927855 -47.140708867745573 -12.142389782731016 #
straight-curve $-1 -30.357371745963924 35.336732999232694 65.810587202297526 0 0 -1 I I #
point $-1 -30.357371745963924 35.336732999232694 16.609461560746553 #
straight-curve $-1 -18.536553793636024 35.336732999232694 0.27952414412008153 -1 0 0 I I #
point $-1 -30.357371745963924 35.336732999232694 0.27952414412008153 #
point $-1 -41.102549092056925 26.90539640502141 6.9711106991868137 #
point $-1 -37.073107587272048 26.90539640502141 6.9711106991868137 #
point $-1 -33.043666082487178 26.90539640502141 6.9711106991868137 #
straight-curve $-1 -5.6419666877825634 35.336732999232694 65.810587202297526 0 0 -1 I I #
point $-1 -5.6419666877825634 35.336732999232694 16.609461560746553 #
straight-curve $-1 -6.1788512645453437 35.336732999232694 0.27952414412008153 -1 0 0 I I #
point $-1 -5.6419666877825634 35.336732999232694 0.27952414412008153 #
point $-1 -16.387144033875565 26.90539640502141 6.9711106991868137 #
point $-1 -12.357702529090687 26.90539640502141 6.9711106991868137 #
point $-1 -8.3282610243058102 26.90539640502141 6.9711106991868137 #
straight-curve $-1 19.073438370398804 35.336732999232694 65.810587202297526 0 0 -1 I I #
point $-1 19.073438370398804 35.336732999232694 16.609461560746553 #
straight-curve $-1 6.1788512645453402 35.336732999232694 0.27952414412008153 -1 0 0 I I #
point $-1 19.073438370398804 35.336732999232694 0.27952414412008153 #
point $-1 8.328261024305796 26.90539640502141 6.9711106991868137 #
point $-1 12.35770252909068 26.90539640502141 6.9711106991868137 #
point $-1 16.387144033875551 26.90539640502141 6.9711106991868137 #
straight-curve $-1 43.788843428580165 35.336732999232694 65.810587202297526 0 0 -1 I I #
point $-1 43.788843428580165 35.336732999232694 16.609461560746553 #
straight-curve $-1 18.536553793636021 35.336732999232694 0.27952414412008153 -1 0 0 I I #
point $-1 43.788843428580165 35.336732999232694 0.27952414412008153 #
point $-1 33.043666082487157 26.90539640502141 6.9711106991868137 #
point $-1 37.073107587272041 26.90539640502141 6.9711106991868137 #
point $-1 41.102549092056911 26.90539640502141 6.9711106991868137 #
straight-curve $-1 -60.714743491927855 -47.140708867745573 -14.375925671738784 0 0 -1 I I #
straight-curve $-1 60.714743491927855 -47.140708867745573 -14.375925671738784 0 0 -1 I I #
End-of-ACIS-data 