500 0 13 0           
7 Unknown 11 ACIS 5.0 NT 24 Thu Mar 25 21:05:57 1999 
-1 9.9999999999999995e-007 1e-010 
body $-1 $13 $-1 $14 #
body $-1 $15 $-1 $16 #
body $-1 $17 $-1 $18 #
body $-1 $19 $-1 $20 #
body $-1 $21 $-1 $22 #
body $-1 $23 $-1 $24 #
body $-1 $25 $-1 $26 #
body $-1 $27 $-1 $28 #
body $-1 $29 $-1 $30 #
body $-1 $31 $-1 $32 #
body $-1 $33 $-1 $34 #
body $-1 $35 $-1 $36 #
body $-1 $37 $-1 $38 #
lump $-1 $-1 $39 $0 #
transform $-1 1 0 0 0 1 0 0 0 1 68.842432935575431 41.090740786583581 11.199600112640745 1 rotate no_reflect no_shear #
lump $-1 $-1 $40 $1 #
transform $-1 1 0 0 0 1 0 0 0 1 68.842432935575431 41.090740786583581 11.199600112640745 1 rotate no_reflect no_shear #
lump $-1 $-1 $41 $2 #
transform $-1 1 0 0 0 1 0 0 0 1 68.842432935575431 41.090740786583581 11.199600112640745 1 rotate no_reflect no_shear #
lump $-1 $-1 $42 $3 #
transform $-1 1 0 0 0 1 0 0 0 1 68.842432935575431 41.090740786583581 11.199600112640745 1 rotate no_reflect no_shear #
lump $-1 $-1 $43 $4 #
transform $-1 1 0 0 0 1 0 0 0 1 68.842432935575431 41.090740786583581 11.199600112640745 1 rotate no_reflect no_shear #
lump $-1 $-1 $44 $5 #
transform $-1 1 0 0 0 1 0 0 0 1 68.842432935575431 41.090740786583581 11.199600112640745 1 rotate no_reflect no_shear #
lump $-1 $-1 $45 $6 #
transform $-1 1 0 0 0 1 0 0 0 1 68.842432935575431 41.090740786583581 11.199600112640745 1 rotate no_reflect no_shear #
lump $-1 $-1 $46 $7 #
transform $-1 1 0 0 0 1 0 0 0 1 68.842432935575431 41.090740786583581 11.199600112640745 1 rotate no_reflect no_shear #
lump $-1 $-1 $47 $8 #
transform $-1 1 0 0 0 1 0 0 0 1 68.842432935575431 41.090740786583581 11.199600112640745 1 rotate no_reflect no_shear #
lump $-1 $-1 $48 $9 #
transform $-1 1 0 0 0 1 0 0 0 1 68.842432935575431 41.090740786583581 11.199600112640745 1 rotate no_reflect no_shear #
lump $-1 $-1 $49 $10 #
transform $-1 1 0 0 0 1 0 0 0 1 68.842432935575431 41.090740786583581 11.199600112640745 1 rotate no_reflect no_shear #
lump $-1 $-1 $50 $11 #
transform $-1 1 0 0 0 1 0 0 0 1 68.842432935575431 41.090740786583581 11.199600112640745 1 rotate no_reflect no_shear #
lump $-1 $-1 $51 $12 #
transform $-1 1 0 0 0 1 0 0 0 1 68.842432935575431 41.090740786583581 11.199600112640745 1 rotate no_reflect no_shear #
shell $-1 $-1 $-1 $52 $-1 $13 #
shell $-1 $-1 $-1 $53 $-1 $15 #
shell $-1 $-1 $-1 $54 $-1 $17 #
shell $-1 $-1 $-1 $55 $-1 $19 #
shell $-1 $-1 $-1 $56 $-1 $21 #
shell $-1 $-1 $-1 $57 $-1 $23 #
shell $-1 $-1 $-1 $58 $-1 $25 #
shell $-1 $-1 $-1 $59 $-1 $27 #
shell $-1 $-1 $-1 $60 $-1 $29 #
shell $-1 $-1 $-1 $61 $-1 $31 #
shell $-1 $-1 $-1 $62 $-1 $33 #
shell $-1 $-1 $-1 $63 $-1 $35 #
shell $-1 $-1 $-1 $64 $-1 $37 #
face $-1 $65 $66 $39 $-1 $67 forward single #
face $-1 $68 $69 $40 $-1 $70 reversed single #
face $-1 $71 $72 $41 $-1 $73 forward single #
face $-1 $74 $75 $42 $-1 $76 forward single #
face $-1 $77 $78 $43 $-1 $79 forward single #
face $-1 $80 $81 $44 $-1 $82 reversed single #
face $-1 $83 $84 $45 $-1 $85 forward single #
face $-1 $86 $87 $46 $-1 $88 forward single #
face $-1 $89 $90 $47 $-1 $91 forward single #
face $-1 $92 $93 $48 $-1 $94 reversed single #
face $-1 $95 $96 $49 $-1 $97 forward single #
face $-1 $98 $99 $50 $-1 $100 forward single #
face $-1 $101 $102 $51 $-1 $103 forward single #
face $-1 $104 $105 $39 $-1 $106 reversed single #
loop $-1 $-1 $107 $52 #
plane-surface $-1 0 0 11.199600112640745 0 0 1 1 0 0 forward_v I I I I #
face $-1 $108 $109 $40 $-1 $110 reversed single #
loop $-1 $-1 $111 $53 #
plane-surface $-1 -12.792489484485479 -152.48013827136117 85.093619058179655 -1 0 0 0 -0.80901700255871778 0.5877852410284794 forward_v I I I I #
face $-1 $112 $113 $41 $-1 $114 forward single #
loop $-1 $115 $116 $54 #
cone-surface $-1 -37.585934028551407 -36.969487791183312 6.5445695944946767 0 0.80901700255871778 -0.5877852410284794 1.5 0 0 1 I I 0 1 1.5 forward I I I I #
face $-1 $117 $118 $42 $-1 $119 forward single #
loop $-1 $120 $121 $55 #
cone-surface $-1 -28.288392324526683 -36.969487791183312 6.5445695944946767 0 0.80901700255871778 -0.5877852410284794 1.5 0 0 1 I I 0 1 1.5 forward I I I I #
face $-1 $122 $123 $43 $-1 $124 forward single #
loop $-1 $125 $126 $56 #
cone-surface $-1 -18.990850620501959 -36.969487791183312 6.5445695944946767 0 0.80901700255871778 -0.5877852410284794 1.5 0 0 1 I I 0 1 1.5 forward I I I I #
face $-1 $127 $128 $44 $-1 $129 reversed single #
loop $-1 $-1 $130 $57 #
plane-surface $-1 43.784295164567887 -152.48013827136117 85.093619058179655 -1 0 0 0 -0.80901700255871778 0.5877852410284794 forward_v I I I I #
face $-1 $131 $132 $45 $-1 $133 forward single #
loop $-1 $134 $135 $58 #
cone-surface $-1 18.990850620501959 -36.969487791183312 6.5445695944946767 0 0.80901700255871778 -0.5877852410284794 1.5 0 0 1 I I 0 1 1.5 forward I I I I #
face $-1 $136 $137 $46 $-1 $138 forward single #
loop $-1 $139 $140 $59 #
cone-surface $-1 28.288392324526683 -36.969487791183312 6.5445695944946767 0 0.80901700255871778 -0.5877852410284794 1.5 0 0 1 I I 0 1 1.5 forward I I I I #
face $-1 $141 $142 $47 $-1 $143 forward single #
loop $-1 $144 $145 $60 #
cone-surface $-1 37.585934028551407 -36.969487791183312 6.5445695944946767 0 0.80901700255871778 -0.5877852410284794 1.5 0 0 1 I I 0 1 1.5 forward I I I I #
face $-1 $146 $147 $48 $-1 $148 reversed single #
loop $-1 $-1 $149 $61 #
plane-surface $-1 -24.707823751872638 58.318513596716983 167.34691404593141 1 0 0 0 -0.6018150307709319 -0.79863550430605224 forward_v I I I I #
face $-1 $150 $151 $49 $-1 $152 forward single #
loop $-1 $153 $154 $62 #
cone-surface $-1 -20.00795734735339 38.597268427771574 9.1352527956228631 0 -0.6018150307709319 -0.79863550430605224 1 0 0 1 I I 0 1 1 forward I I I I #
face $-1 $155 $156 $50 $-1 $157 forward single #
loop $-1 $158 $159 $63 #
cone-surface $-1 -12.958157740574514 38.597268427771574 9.1352527956228631 0 -0.6018150307709319 -0.79863550430605224 1 0 0 1 I I 0 1 1 forward I I I I #
face $-1 $160 $161 $51 $-1 $162 forward single #
loop $-1 $163 $164 $64 #
cone-surface $-1 -5.9083581337956375 38.597268427771574 9.1352527956228631 0 -0.6018150307709319 -0.79863550430605224 1 0 0 1 I I 0 1 1 forward I I I I #
face $-1 $165 $166 $39 $-1 $167 reversed single #
loop $-1 $-1 $168 $65 #
plane-surface $-1 0 0 -11.199600112640745 0 0 1 1 0 0 forward_v I I I I #
coedge $-1 $169 $170 $171 $172 forward $66 $-1 #
face $-1 $173 $174 $40 $-1 $175 reversed single #
loop $-1 $-1 $176 $68 #
plane-surface $-1 -28.288392324526683 -41.090740786583595 4.1644869861313936 0 -0.80901700255871778 0.5877852410284794 1 0 0 forward_v I I I I #
coedge $-1 $177 $178 $179 $180 reversed $69 $-1 #
face $-1 $-1 $181 $41 $-1 $182 forward single #
loop $-1 $183 $184 $71 #
cone-surface $-1 -37.585934028551407 -34.797126406905534 4.9662567088319278 0 0.80901700255871778 -0.5877852410284794 0.75 0 0 1 I I -0.70710678118654757 0.70710678118654757 0.75 forward I I I I #
loop $-1 $-1 $185 $54 #
coedge $-1 $116 $116 $186 $187 reversed $72 $-1 #
face $-1 $-1 $188 $42 $-1 $189 forward single #
loop $-1 $190 $191 $74 #
cone-surface $-1 -28.288392324526683 -34.797126406905534 4.9662567088319278 0 0.80901700255871778 -0.5877852410284794 0.75 0 0 1 I I -0.70710678118654757 0.70710678118654757 0.75 forward I I I I #
loop $-1 $-1 $192 $55 #
coedge $-1 $121 $121 $193 $194 reversed $75 $-1 #
face $-1 $-1 $195 $43 $-1 $196 forward single #
loop $-1 $197 $198 $77 #
cone-surface $-1 -18.990850620501959 -34.797126406905534 4.9662567088319278 0 0.80901700255871778 -0.5877852410284794 0.75 0 0 1 I I -0.70710678118654757 0.70710678118654757 0.75 forward I I I I #
loop $-1 $-1 $199 $56 #
coedge $-1 $126 $126 $200 $201 reversed $78 $-1 #
face $-1 $202 $203 $44 $-1 $204 reversed single #
loop $-1 $-1 $205 $80 #
plane-surface $-1 28.288392324526683 -41.090740786583595 4.1644869861313936 0 -0.80901700255871778 0.5877852410284794 1 0 0 forward_v I I I I #
coedge $-1 $206 $207 $208 $209 reversed $81 $-1 #
face $-1 $-1 $210 $45 $-1 $211 forward single #
loop $-1 $212 $213 $83 #
cone-surface $-1 18.990850620501959 -34.797126406905534 4.9662567088319278 0 0.80901700255871778 -0.5877852410284794 0.75 0 0 1 I I -0.70710678118654757 0.70710678118654757 0.75 forward I I I I #
loop $-1 $-1 $214 $58 #
coedge $-1 $135 $135 $215 $216 reversed $84 $-1 #
face $-1 $-1 $217 $46 $-1 $218 forward single #
loop $-1 $219 $220 $86 #
cone-surface $-1 28.288392324526683 -34.797126406905534 4.9662567088319278 0 0.80901700255871778 -0.5877852410284794 0.75 0 0 1 I I -0.70710678118654757 0.70710678118654757 0.75 forward I I I I #
loop $-1 $-1 $221 $59 #
coedge $-1 $140 $140 $222 $223 reversed $87 $-1 #
face $-1 $-1 $224 $47 $-1 $225 forward single #
loop $-1 $226 $227 $89 #
cone-surface $-1 37.585934028551407 -34.797126406905534 4.9662567088319278 0 0.80901700255871778 -0.5877852410284794 0.75 0 0 1 I I -0.70710678118654757 0.70710678118654757 0.75 forward I I I I #
loop $-1 $-1 $228 $60 #
coedge $-1 $145 $145 $229 $230 reversed $90 $-1 #
face $-1 $231 $232 $48 $-1 $233 reversed single #
loop $-1 $-1 $234 $92 #
plane-surface $-1 -12.958157740574514 -24.542308194221306 57.386891755613689 0 0.6018150307709319 0.79863550430605224 1 0 0 forward_v I I I I #
coedge $-1 $235 $236 $237 $238 reversed $93 $-1 #
face $-1 $-1 $239 $49 $-1 $240 forward single #
loop $-1 $241 $242 $95 #
cone-surface $-1 -20.00795734735339 37.973110552525014 8.3069673358436731 0 -0.6018150307709319 -0.79863550430605224 0.5 0 0 1 I I -0.70710678118654746 0.70710678118654746 0.5 forward I I I I #
loop $-1 $-1 $243 $62 #
coedge $-1 $154 $154 $244 $245 reversed $96 $-1 #
face $-1 $-1 $246 $50 $-1 $247 forward single #
loop $-1 $248 $249 $98 #
cone-surface $-1 -12.958157740574514 37.973110552525014 8.3069673358436731 0 -0.6018150307709319 -0.79863550430605224 0.5 0 0 1 I I -0.70710678118654746 0.70710678118654746 0.5 forward I I I I #
loop $-1 $-1 $250 $63 #
coedge $-1 $159 $159 $251 $252 reversed $99 $-1 #
face $-1 $-1 $253 $51 $-1 $254 forward single #
loop $-1 $255 $256 $101 #
cone-surface $-1 -5.9083581337956375 37.973110552525014 8.3069673358436731 0 -0.6018150307709319 -0.79863550430605224 0.5 0 0 1 I I -0.70710678118654746 0.70710678118654746 0.5 forward I I I I #
loop $-1 $-1 $257 $64 #
coedge $-1 $164 $164 $258 $259 reversed $102 $-1 #
face $-1 $260 $261 $39 $-1 $262 reversed single #
loop $-1 $-1 $263 $104 #
plane-surface $-1 0 -41.090740786583581 0 0 1 0 0 0 1 forward_v I I I I #
coedge $-1 $264 $265 $266 $267 forward $105 $-1 #
coedge $-1 $268 $107 $269 $270 forward $66 $-1 #
coedge $-1 $107 $268 $271 $272 forward $66 $-1 #
coedge $-1 $273 $274 $107 $172 reversed $275 $-1 #
edge $-1 $276 -41.090740786583581 $277 41.090740786583581 $171 $278 forward 7 unknown #
face $-1 $279 $280 $40 $-1 $281 reversed single #
loop $-1 $-1 $282 $108 #
plane-surface $-1 -43.784295164567887 -152.48013827136117 85.093619058179655 1 0 0 0 0.80901700255871778 -0.5877852410284794 forward_v I I I I #
coedge $-1 $283 $284 $285 $286 reversed $109 $-1 #
coedge $-1 $178 $111 $287 $288 reversed $69 $-1 #
coedge $-1 $111 $177 $283 $289 reversed $69 $-1 #
coedge $-1 $285 $290 $111 $180 forward $291 $-1 #
edge $-1 $292 35.149328349097004 $293 40.260637075180028 $179 $294 forward 7 unknown #
loop $-1 $-1 $186 $112 #
plane-surface $-1 -28.288392324526683 -41.090740786583595 4.1644869861313936 0 -0.80901700255871778 0.5877852410284794 1 0 0 forward_v I I I I #
loop $-1 $-1 $295 $71 #
coedge $-1 $184 $184 $185 $296 reversed $113 $-1 #
coedge $-1 $185 $185 $184 $296 forward $115 $-1 #
coedge $-1 $186 $186 $116 $187 forward $181 $-1 #
edge $-1 $297 -3.4431356166419246e-015 $297 6.2831853071795969 $186 $298 forward 7 unknown #
loop $-1 $-1 $193 $117 #
plane-surface $-1 -28.288392324526683 -41.090740786583595 4.1644869861313936 0 -0.80901700255871778 0.5877852410284794 1 0 0 forward_v I I I I #
loop $-1 $-1 $299 $74 #
coedge $-1 $191 $191 $192 $300 reversed $118 $-1 #
coedge $-1 $192 $192 $191 $300 forward $120 $-1 #
coedge $-1 $193 $193 $121 $194 forward $188 $-1 #
edge $-1 $301 -3.4431356166419246e-015 $301 6.2831853071795969 $193 $302 forward 7 unknown #
loop $-1 $-1 $200 $122 #
plane-surface $-1 -28.288392324526683 -41.090740786583595 4.1644869861313936 0 -0.80901700255871778 0.5877852410284794 1 0 0 forward_v I I I I #
loop $-1 $-1 $303 $77 #
coedge $-1 $198 $198 $199 $304 reversed $123 $-1 #
coedge $-1 $199 $199 $198 $304 forward $125 $-1 #
coedge $-1 $200 $200 $126 $201 forward $195 $-1 #
edge $-1 $305 -3.4431356166419246e-015 $305 6.2831853071795969 $200 $306 forward 7 unknown #
face $-1 $307 $308 $44 $-1 $309 reversed single #
loop $-1 $-1 $310 $127 #
plane-surface $-1 12.792489484485479 -152.48013827136117 85.093619058179655 1 0 0 0 0.80901700255871778 -0.5877852410284794 forward_v I I I I #
coedge $-1 $311 $312 $313 $314 reversed $128 $-1 #
coedge $-1 $207 $130 $315 $316 reversed $81 $-1 #
coedge $-1 $130 $206 $311 $317 reversed $81 $-1 #
coedge $-1 $313 $318 $130 $209 forward $319 $-1 #
edge $-1 $320 35.149328349097004 $321 40.260637075180028 $208 $322 forward 7 unknown #
loop $-1 $-1 $215 $131 #
plane-surface $-1 28.288392324526683 -41.090740786583595 4.1644869861313936 0 -0.80901700255871778 0.5877852410284794 1 0 0 forward_v I I I I #
loop $-1 $-1 $323 $83 #
coedge $-1 $213 $213 $214 $324 reversed $132 $-1 #
coedge $-1 $214 $214 $213 $324 forward $134 $-1 #
coedge $-1 $215 $215 $135 $216 forward $210 $-1 #
edge $-1 $325 -3.4431356166419246e-015 $325 6.2831853071795969 $215 $326 forward 7 unknown #
loop $-1 $-1 $222 $136 #
plane-surface $-1 28.288392324526683 -41.090740786583595 4.1644869861313936 0 -0.80901700255871778 0.5877852410284794 1 0 0 forward_v I I I I #
loop $-1 $-1 $327 $86 #
coedge $-1 $220 $220 $221 $328 reversed $137 $-1 #
coedge $-1 $221 $221 $220 $328 forward $139 $-1 #
coedge $-1 $222 $222 $140 $223 forward $217 $-1 #
edge $-1 $329 -3.4431356166419246e-015 $329 6.2831853071795969 $222 $330 forward 7 unknown #
loop $-1 $-1 $229 $141 #
plane-surface $-1 28.288392324526683 -41.090740786583595 4.1644869861313936 0 -0.80901700255871778 0.5877852410284794 1 0 0 forward_v I I I I #
loop $-1 $-1 $331 $89 #
coedge $-1 $227 $227 $228 $332 reversed $142 $-1 #
coedge $-1 $228 $228 $227 $332 forward $144 $-1 #
coedge $-1 $229 $229 $145 $230 forward $224 $-1 #
edge $-1 $333 -3.4431356166419246e-015 $333 6.2831853071795969 $229 $334 forward 7 unknown #
face $-1 $335 $336 $48 $-1 $337 reversed single #
loop $-1 $-1 $338 $146 #
plane-surface $-1 -1.208491729276389 58.318513596716983 167.34691404593141 -1 0 0 0 0.6018150307709319 0.79863550430605224 forward_v I I I I #
coedge $-1 $339 $340 $341 $342 reversed $147 $-1 #
coedge $-1 $236 $149 $343 $344 reversed $93 $-1 #
coedge $-1 $149 $235 $339 $345 reversed $93 $-1 #
coedge $-1 $341 $346 $149 $238 forward $347 $-1 #
edge $-1 $348 -11.931483988225089 $349 -7.5910399903233099 $237 $350 forward 7 unknown #
loop $-1 $-1 $244 $150 #
plane-surface $-1 -12.958157740574514 -24.542308194221306 57.386891755613689 0 0.6018150307709319 0.79863550430605224 1 0 0 forward_v I I I I #
loop $-1 $-1 $351 $95 #
coedge $-1 $242 $242 $243 $352 reversed $151 $-1 #
coedge $-1 $243 $243 $242 $352 forward $153 $-1 #
coedge $-1 $244 $244 $154 $245 forward $239 $-1 #
edge $-1 $353 1.4791658294704129e-015 $353 6.2831853071796022 $244 $354 forward 7 unknown #
loop $-1 $-1 $251 $155 #
plane-surface $-1 -12.958157740574514 -24.542308194221306 57.386891755613689 0 0.6018150307709319 0.79863550430605224 1 0 0 forward_v I I I I #
loop $-1 $-1 $355 $98 #
coedge $-1 $249 $249 $250 $356 reversed $156 $-1 #
coedge $-1 $250 $250 $249 $356 forward $158 $-1 #
coedge $-1 $251 $251 $159 $252 forward $246 $-1 #
edge $-1 $357 1.4791658294704129e-015 $357 6.2831853071796022 $251 $358 forward 7 unknown #
loop $-1 $-1 $258 $160 #
plane-surface $-1 -12.958157740574514 -24.542308194221306 57.386891755613689 0 0.6018150307709319 0.79863550430605224 1 0 0 forward_v I I I I #
loop $-1 $-1 $359 $101 #
coedge $-1 $256 $256 $257 $360 reversed $161 $-1 #
coedge $-1 $257 $257 $256 $360 forward $163 $-1 #
coedge $-1 $258 $258 $164 $259 forward $253 $-1 #
edge $-1 $361 1.4791658294704129e-015 $361 6.2831853071796022 $258 $362 forward 7 unknown #
face $-1 $363 $364 $39 $-1 $365 reversed single #
loop $-1 $-1 $366 $165 #
plane-surface $-1 -68.842432935575431 0 0 1 0 0 0 0 -1 forward_v I I I I #
coedge $-1 $367 $271 $368 $369 forward $166 $-1 #
coedge $-1 $370 $168 $367 $371 forward $105 $-1 #
coedge $-1 $168 $370 $372 $373 forward $105 $-1 #
coedge $-1 $274 $273 $168 $267 reversed $275 $-1 #
edge $-1 $374 -41.090740786583581 $375 41.090740786583581 $266 $376 forward 7 unknown #
coedge $-1 $170 $169 $377 $378 forward $66 $-1 #
coedge $-1 $379 $380 $169 $270 reversed $364 $-1 #
edge $-1 $277 -68.842432935575431 $381 68.842432935575431 $269 $382 forward 7 unknown #
coedge $-1 $263 $383 $170 $272 reversed $166 $-1 #
edge $-1 $384 -68.842432935575431 $276 68.842432935575431 $271 $385 forward 7 unknown #
coedge $-1 $266 $171 $383 $386 forward $275 $-1 #
coedge $-1 $171 $266 $379 $387 reversed $275 $-1 #
loop $-1 $-1 $273 $363 #
vertex $-1 $172 $388 #
vertex $-1 $172 $389 #
straight-curve $-1 68.842432935575431 0 11.199600112640745 0 1 0 I I #
face $-1 $-1 $291 $40 $-1 $390 forward single #
loop $-1 $-1 $391 $173 #
plane-surface $-1 0 -41.090740786583581 0 0 1 0 0 0 1 forward_v I I I I #
coedge $-1 $392 $393 $394 $395 reversed $174 $-1 #
coedge $-1 $396 $176 $178 $289 forward $109 $-1 #
coedge $-1 $176 $396 $392 $397 forward $109 $-1 #
coedge $-1 $394 $179 $176 $286 forward $291 $-1 #
edge $-1 $293 -1.3517066777778624 $398 29.640099002304545 $285 $399 forward 7 unknown #
coedge $-1 $400 $401 $177 $288 forward $280 $-1 #
edge $-1 $402 -38.382322542958413 $292 -31.347209416449083 $287 $403 forward 7 unknown #
edge $-1 $293 -8.695877965801774 $402 -2.4161062406544664e-014 $178 $404 forward 7 unknown #
coedge $-1 $179 $394 $400 $405 forward $291 $-1 #
loop $-1 $-1 $394 $279 #
vertex $-1 $288 $406 #
vertex $-1 $180 $407 #
straight-curve $-1 -12.792489484485479 -76.240069135680585 11.199600112640745 0 1 0 I I #
coedge $-1 $295 $295 $-1 $408 reversed $183 $-1 #
edge $-1 $409 0 $409 6.2831853071796004 $184 $410 forward 7 unknown #
vertex $-1 $187 $411 #
ellipse-curve $-1 -37.585934028551407 -38.535086423542069 7.6820435493860764 0 -0.80901700255871778 0.5877852410284794 1.5 0 0 1 I I #
coedge $-1 $299 $299 $-1 $412 reversed $190 $-1 #
edge $-1 $413 0 $413 6.2831853071796004 $191 $414 forward 7 unknown #
vertex $-1 $194 $415 #
ellipse-curve $-1 -28.288392324526683 -38.535086423542069 7.6820435493860764 0 -0.80901700255871778 0.5877852410284794 1.5 0 0 1 I I #
coedge $-1 $303 $303 $-1 $416 reversed $197 $-1 #
edge $-1 $417 0 $417 6.2831853071796004 $198 $418 forward 7 unknown #
vertex $-1 $201 $419 #
ellipse-curve $-1 -18.990850620501959 -38.535086423542069 7.6820435493860764 0 -0.80901700255871778 0.5877852410284794 1.5 0 0 1 I I #
face $-1 $-1 $319 $44 $-1 $420 forward single #
loop $-1 $-1 $421 $202 #
plane-surface $-1 0 -41.090740786583581 0 0 1 0 0 0 1 forward_v I I I I #
coedge $-1 $422 $423 $424 $425 reversed $203 $-1 #
coedge $-1 $426 $205 $207 $317 forward $128 $-1 #
coedge $-1 $205 $426 $422 $427 forward $128 $-1 #
coedge $-1 $424 $208 $205 $314 forward $319 $-1 #
edge $-1 $321 -29.640099002304545 $428 1.3517066777778624 $313 $429 forward 7 unknown #
coedge $-1 $430 $431 $206 $316 forward $308 $-1 #
edge $-1 $432 -38.382322542958413 $320 -31.347209416449083 $315 $433 forward 7 unknown #
edge $-1 $321 -8.695877965801774 $432 -2.4161062406544664e-014 $207 $434 forward 7 unknown #
coedge $-1 $208 $424 $430 $435 forward $319 $-1 #
loop $-1 $-1 $424 $307 #
vertex $-1 $316 $436 #
vertex $-1 $209 $437 #
straight-curve $-1 43.784295164567887 -76.240069135680585 11.199600112640745 0 1 0 I I #
coedge $-1 $323 $323 $-1 $438 reversed $212 $-1 #
edge $-1 $439 0 $439 6.2831853071796004 $213 $440 forward 7 unknown #
vertex $-1 $216 $441 #
ellipse-curve $-1 18.990850620501959 -38.535086423542069 7.6820435493860764 0 -0.80901700255871778 0.5877852410284794 1.5 0 0 1 I I #
coedge $-1 $327 $327 $-1 $442 reversed $219 $-1 #
edge $-1 $443 0 $443 6.2831853071796004 $220 $444 forward 7 unknown #
vertex $-1 $223 $445 #
ellipse-curve $-1 28.288392324526683 -38.535086423542069 7.6820435493860764 0 -0.80901700255871778 0.5877852410284794 1.5 0 0 1 I I #
coedge $-1 $331 $331 $-1 $446 reversed $226 $-1 #
edge $-1 $447 0 $447 6.2831853071796004 $227 $448 forward 7 unknown #
vertex $-1 $230 $449 #
ellipse-curve $-1 37.585934028551407 -38.535086423542069 7.6820435493860764 0 -0.80901700255871778 0.5877852410284794 1.5 0 0 1 I I #
face $-1 $-1 $347 $48 $-1 $450 forward single #
loop $-1 $-1 $451 $231 #
plane-surface $-1 0 41.090740786583581 0 0 -1 0 0 0 -1 forward_v I I I I #
coedge $-1 $452 $453 $454 $455 reversed $232 $-1 #
coedge $-1 $456 $234 $236 $345 forward $147 $-1 #
coedge $-1 $234 $456 $452 $457 forward $147 $-1 #
coedge $-1 $454 $237 $234 $342 forward $347 $-1 #
edge $-1 $349 -18.228744881585381 $458 5.2705871410108678 $341 $459 forward 7 unknown #
coedge $-1 $460 $461 $235 $344 forward $336 $-1 #
edge $-1 $462 -75.74461612910838 $348 -72.473856910324969 $343 $463 forward 7 unknown #
edge $-1 $349 76.746656832094246 $462 82.181481573167162 $236 $464 forward 7 unknown #
coedge $-1 $237 $454 $460 $465 forward $347 $-1 #
loop $-1 $-1 $454 $335 #
vertex $-1 $344 $466 #
vertex $-1 $238 $467 #
straight-curve $-1 -24.707823751872638 29.159256798358491 11.199600112640752 0 -1 0 I I #
coedge $-1 $351 $351 $-1 $468 reversed $241 $-1 #
edge $-1 $469 0 $469 6.2831853071796004 $242 $470 forward 7 unknown #
vertex $-1 $245 $471 #
ellipse-curve $-1 -20.00795734735339 38.92051878763268 9.5642205032490484 0 0.6018150307709319 0.79863550430605224 1 0 0 1 I I #
coedge $-1 $355 $355 $-1 $472 reversed $248 $-1 #
edge $-1 $473 0 $473 6.2831853071796004 $249 $474 forward 7 unknown #
vertex $-1 $252 $475 #
ellipse-curve $-1 -12.958157740574514 38.92051878763268 9.5642205032490484 0 0.6018150307709319 0.79863550430605224 1 0 0 1 I I #
coedge $-1 $359 $359 $-1 $476 reversed $255 $-1 #
edge $-1 $477 0 $477 6.2831853071796004 $256 $478 forward 7 unknown #
vertex $-1 $259 $479 #
ellipse-curve $-1 -5.9083581337956375 38.92051878763268 9.5642205032490484 0 0.6018150307709319 0.79863550430605224 1 0 0 1 I I #
face $-1 $-1 $275 $39 $-1 $480 reversed single #
loop $-1 $-1 $379 $260 #
plane-surface $-1 0 41.090740786583581 0 0 -1 0 0 0 -1 forward_v I I I I #
coedge $-1 $481 $377 $380 $482 forward $261 $-1 #
coedge $-1 $383 $263 $264 $371 reversed $166 $-1 #
coedge $-1 $377 $481 $263 $369 reversed $261 $-1 #
edge $-1 $384 -11.199600112640745 $483 11.199600112640745 $368 $484 forward 7 unknown #
coedge $-1 $265 $264 $481 $485 forward $105 $-1 #
edge $-1 $375 -68.842432935575431 $483 68.842432935575431 $367 $486 forward 7 unknown #
coedge $-1 $380 $379 $265 $373 reversed $364 $-1 #
edge $-1 $487 -68.842432935575431 $374 68.842432935575431 $372 $488 forward 7 unknown #
vertex $-1 $267 $489 #
vertex $-1 $386 $490 #
straight-curve $-1 68.842432935575431 0 -11.199600112640745 0 -1 0 I I #
coedge $-1 $366 $368 $268 $378 reversed $261 $-1 #
edge $-1 $381 -41.090740786583581 $384 41.090740786583581 $377 $491 forward 7 unknown #
coedge $-1 $372 $269 $274 $387 forward $364 $-1 #
coedge $-1 $269 $372 $366 $482 reversed $364 $-1 #
vertex $-1 $270 $492 #
straight-curve $-1 0 41.090740786583581 11.199600112640745 -1 0 0 I I #
coedge $-1 $271 $367 $273 $386 reversed $166 $-1 #
vertex $-1 $378 $493 #
straight-curve $-1 0 -41.090740786583581 11.199600112640745 1 0 0 I I #
edge $-1 $276 -11.199600112640745 $375 11.199600112640745 $273 $494 forward 7 unknown #
edge $-1 $277 -11.199600112640745 $374 11.199600112640745 $274 $495 forward 7 unknown #
point $-1 68.842432935575431 -41.090740786583581 11.199600112640745 #
point $-1 68.842432935575431 41.090740786583581 11.199600112640745 #
plane-surface $-1 0 0 11.199600112640745 0 0 1 1 0 0 forward_v I I I I #
coedge $-1 $401 $400 $393 $496 forward $280 $-1 #
coedge $-1 $393 $282 $284 $397 reversed $174 $-1 #
coedge $-1 $282 $392 $391 $496 reversed $174 $-1 #
coedge $-1 $290 $285 $282 $395 forward $291 $-1 #
edge $-1 $398 -40.260637075180028 $497 -35.149328349097004 $394 $498 forward 7 unknown #
coedge $-1 $284 $283 $401 $499 reversed $109 $-1 #
edge $-1 $500 2.4161062406544664e-014 $398 8.695877965801774 $392 $501 forward 7 unknown #
vertex $-1 $286 $502 #
straight-curve $-1 -14.144196162263341 -35.97943206050055 11.199600112640745 -1 0 0 I I #
coedge $-1 $391 $287 $290 $405 reversed $280 $-1 #
coedge $-1 $287 $391 $396 $499 forward $280 $-1 #
vertex $-1 $288 $503 #
straight-curve $-1 -12.792489484485479 -41.090740786583581 42.546809529089828 0 0 1 I I #
straight-curve $-1 -12.792489484485479 -41.090740786583595 4.1644869861313936 0 -0.5877852410284794 -0.80901700255871778 I I #
edge $-1 $497 -43.784295164567887 $292 -12.792489484485479 $400 $504 forward 7 unknown #
point $-1 -12.792489484485479 -41.090740786583581 11.199600112640745 #
point $-1 -12.792489484485479 -35.979432060500557 11.199600112640745 #
edge $-1 $505 1 $505 0 $295 $-1 forward 7 unknown #
vertex $-1 $296 $506 #
ellipse-curve $-1 -37.585934028551407 -35.403889158824569 5.4070956396032877 0 -0.80901700255871778 0.5877852410284794 1.5 0 0 1 I I #
point $-1 -36.085934028551407 -38.535086423542062 7.6820435493860648 #
edge $-1 $507 1 $507 0 $299 $-1 forward 7 unknown #
vertex $-1 $300 $508 #
ellipse-curve $-1 -28.288392324526683 -35.403889158824569 5.4070956396032877 0 -0.80901700255871778 0.5877852410284794 1.5 0 0 1 I I #
point $-1 -26.788392324526683 -38.535086423542062 7.6820435493860648 #
edge $-1 $509 1 $509 0 $303 $-1 forward 7 unknown #
vertex $-1 $304 $510 #
ellipse-curve $-1 -18.990850620501959 -35.403889158824569 5.4070956396032877 0 -0.80901700255871778 0.5877852410284794 1.5 0 0 1 I I #
point $-1 -17.490850620501959 -38.535086423542062 7.6820435493860648 #
plane-surface $-1 0 0 11.199600112640745 0 0 1 1 0 0 forward_v I I I I #
coedge $-1 $431 $430 $423 $511 forward $308 $-1 #
coedge $-1 $423 $310 $312 $427 reversed $203 $-1 #
coedge $-1 $310 $422 $421 $511 reversed $203 $-1 #
coedge $-1 $318 $313 $310 $425 forward $319 $-1 #
edge $-1 $428 -40.260637075180028 $512 -35.149328349097004 $424 $513 forward 7 unknown #
coedge $-1 $312 $311 $431 $514 reversed $128 $-1 #
edge $-1 $515 2.4161062406544664e-014 $428 8.695877965801774 $422 $516 forward 7 unknown #
vertex $-1 $314 $517 #
straight-curve $-1 14.144196162263341 -35.97943206050055 11.199600112640745 -1 0 0 I I #
coedge $-1 $421 $315 $318 $435 reversed $308 $-1 #
coedge $-1 $315 $421 $426 $514 forward $308 $-1 #
vertex $-1 $316 $518 #
straight-curve $-1 43.784295164567887 -41.090740786583581 42.546809529089828 0 0 1 I I #
straight-curve $-1 43.784295164567887 -41.090740786583595 4.1644869861313936 0 -0.5877852410284794 -0.80901700255871778 I I #
edge $-1 $512 12.792489484485479 $320 43.784295164567887 $430 $519 forward 7 unknown #
point $-1 43.784295164567887 -41.090740786583581 11.199600112640745 #
point $-1 43.784295164567887 -35.979432060500557 11.199600112640745 #
edge $-1 $520 1 $520 0 $323 $-1 forward 7 unknown #
vertex $-1 $324 $521 #
ellipse-curve $-1 18.990850620501959 -35.403889158824569 5.4070956396032877 0 -0.80901700255871778 0.5877852410284794 1.5 0 0 1 I I #
point $-1 20.490850620501959 -38.535086423542062 7.6820435493860648 #
edge $-1 $522 1 $522 0 $327 $-1 forward 7 unknown #
vertex $-1 $328 $523 #
ellipse-curve $-1 28.288392324526683 -35.403889158824569 5.4070956396032877 0 -0.80901700255871778 0.5877852410284794 1.5 0 0 1 I I #
point $-1 29.788392324526683 -38.535086423542062 7.6820435493860648 #
edge $-1 $524 1 $524 0 $331 $-1 forward 7 unknown #
vertex $-1 $332 $525 #
ellipse-curve $-1 37.585934028551407 -35.403889158824569 5.4070956396032877 0 -0.80901700255871778 0.5877852410284794 1.5 0 0 1 I I #
point $-1 39.085934028551407 -38.535086423542062 7.6820435493860648 #
plane-surface $-1 0 0 11.199600112640745 0 0 1 1 0 0 forward_v I I I I #
coedge $-1 $461 $460 $453 $526 forward $336 $-1 #
coedge $-1 $453 $338 $340 $457 reversed $232 $-1 #
coedge $-1 $338 $452 $451 $526 reversed $232 $-1 #
coedge $-1 $346 $341 $338 $455 forward $347 $-1 #
edge $-1 $458 7.5910399903233099 $527 11.931483988225089 $454 $528 forward 7 unknown #
coedge $-1 $340 $339 $461 $529 reversed $147 $-1 #
edge $-1 $530 -82.181481573167162 $458 -76.746656832094246 $452 $531 forward 7 unknown #
vertex $-1 $342 $532 #
straight-curve $-1 -6.4790788702872568 36.750296788681801 11.199600112640745 1 0 0 I I #
coedge $-1 $451 $343 $346 $465 reversed $336 $-1 #
coedge $-1 $343 $451 $456 $529 forward $336 $-1 #
vertex $-1 $344 $533 #
straight-curve $-1 -24.707823751872638 41.090740786583581 83.673457022965707 0 0 1 I I #
straight-curve $-1 -24.707823751872638 -24.542308194221306 57.386891755613689 0 0.79863550430605224 -0.6018150307709319 I I #
edge $-1 $527 1.208491729276389 $348 24.707823751872638 $460 $534 forward 7 unknown #
point $-1 -24.707823751872638 41.090740786583581 11.199600112640745 #
point $-1 -24.707823751872638 36.750296788681801 11.199600112640745 #
edge $-1 $535 1 $535 0 $351 $-1 forward 7 unknown #
vertex $-1 $352 $536 #
ellipse-curve $-1 -20.00795734735339 38.274018067910482 8.7062850879966991 0 0.6018150307709319 0.79863550430605224 1 0 0 1 I I #
point $-1 -19.00795734735339 38.920518787632666 9.5642205032490271 #
edge $-1 $537 1 $537 0 $355 $-1 forward 7 unknown #
vertex $-1 $356 $538 #
ellipse-curve $-1 -12.958157740574514 38.274018067910482 8.7062850879966991 0 0.6018150307709319 0.79863550430605224 1 0 0 1 I I #
point $-1 -11.958157740574514 38.920518787632666 9.5642205032490271 #
edge $-1 $539 1 $539 0 $359 $-1 forward 7 unknown #
vertex $-1 $360 $540 #
ellipse-curve $-1 -5.9083581337956375 38.274018067910482 8.7062850879966991 0 0.6018150307709319 0.79863550430605224 1 0 0 1 I I #
point $-1 -4.9083581337956375 38.920518787632666 9.5642205032490271 #
plane-surface $-1 68.842432935575431 0 0 -1 0 0 0 0 1 forward_v I I I I #
coedge $-1 $368 $366 $370 $485 reversed $261 $-1 #
edge $-1 $381 -11.199600112640745 $487 11.199600112640745 $380 $541 forward 7 unknown #
vertex $-1 $485 $542 #
straight-curve $-1 -68.842432935575431 -41.090740786583581 0 0 0 -1 I I #
edge $-1 $483 -41.090740786583581 $487 41.090740786583581 $481 $543 forward 7 unknown #
straight-curve $-1 0 -41.090740786583581 -11.199600112640745 -1 0 0 I I #
vertex $-1 $373 $544 #
straight-curve $-1 0 41.090740786583581 -11.199600112640745 1 0 0 I I #
point $-1 68.842432935575431 41.090740786583581 -11.199600112640745 #
point $-1 68.842432935575431 -41.090740786583581 -11.199600112640745 #
straight-curve $-1 -68.842432935575431 0 11.199600112640745 0 -1 0 I I #
point $-1 -68.842432935575431 41.090740786583581 11.199600112640745 #
point $-1 -68.842432935575431 -41.090740786583581 11.199600112640745 #
straight-curve $-1 68.842432935575431 -41.090740786583581 0 0 0 -1 I I #
straight-curve $-1 68.842432935575431 41.090740786583581 0 0 0 -1 I I #
edge $-1 $497 31.347209416449083 $500 38.382322542958413 $391 $545 forward 7 unknown #
vertex $-1 $405 $546 #
straight-curve $-1 -43.784295164567887 -76.240069135680585 11.199600112640745 0 -1 0 I I #
edge $-1 $500 -29.640099002304545 $402 1.3517066777778624 $401 $547 forward 7 unknown #
vertex $-1 $499 $548 #
straight-curve $-1 -43.784295164567887 -41.090740786583595 4.1644869861313936 0 0.5877852410284794 0.80901700255871778 I I #
point $-1 -43.784295164567887 -35.979432060500557 11.199600112640745 #
point $-1 -12.792489484485479 -41.090740786583581 4.1644869861314131 #
straight-curve $-1 0 -41.090740786583581 11.199600112640745 1 0 0 I I #
vertex $-1 $408 $549 #
point $-1 -36.085934028551407 -35.403889158824569 5.4070956396032877 #
vertex $-1 $412 $550 #
point $-1 -26.788392324526683 -35.403889158824569 5.4070956396032877 #
vertex $-1 $416 $551 #
point $-1 -17.490850620501959 -35.403889158824569 5.4070956396032877 #
edge $-1 $512 31.347209416449083 $515 38.382322542958413 $421 $552 forward 7 unknown #
vertex $-1 $435 $553 #
straight-curve $-1 12.792489484485479 -76.240069135680585 11.199600112640745 0 -1 0 I I #
edge $-1 $515 -1.3517066777778624 $432 29.640099002304545 $431 $554 forward 7 unknown #
vertex $-1 $514 $555 #
straight-curve $-1 12.792489484485479 -41.090740786583595 4.1644869861313936 0 0.5877852410284794 0.80901700255871778 I I #
point $-1 12.792489484485479 -35.979432060500557 11.199600112640745 #
point $-1 43.784295164567887 -41.090740786583581 4.1644869861314131 #
straight-curve $-1 0 -41.090740786583581 11.199600112640745 1 0 0 I I #
vertex $-1 $438 $556 #
point $-1 20.490850620501959 -35.403889158824569 5.4070956396032877 #
vertex $-1 $442 $557 #
point $-1 29.788392324526683 -35.403889158824569 5.4070956396032877 #
vertex $-1 $446 $558 #
point $-1 39.085934028551407 -35.403889158824569 5.4070956396032877 #
edge $-1 $527 72.473856910324969 $530 75.74461612910838 $451 $559 forward 7 unknown #
vertex $-1 $465 $560 #
straight-curve $-1 -1.208491729276389 29.159256798358491 11.199600112640752 0 1 0 I I #
edge $-1 $530 -5.2705871410108678 $462 18.228744881585381 $461 $561 forward 7 unknown #
vertex $-1 $529 $562 #
straight-curve $-1 -1.208491729276389 -24.542308194221306 57.386891755613689 0 -0.79863550430605224 0.6018150307709319 I I #
point $-1 -1.208491729276389 36.750296788681801 11.199600112640745 #
point $-1 -24.707823751872638 41.090740786583581 7.9288408938573269 #
straight-curve $-1 0 41.090740786583581 11.199600112640745 -1 0 0 I I #
vertex $-1 $468 $563 #
point $-1 -19.00795734735339 38.274018067910482 8.7062850879966991 #
vertex $-1 $472 $564 #
point $-1 -11.958157740574514 38.274018067910482 8.7062850879966991 #
vertex $-1 $476 $565 #
point $-1 -4.9083581337956375 38.274018067910482 8.7062850879966991 #
straight-curve $-1 -68.842432935575431 41.090740786583581 0 0 0 -1 I I #
point $-1 -68.842432935575431 -41.090740786583581 -11.199600112640745 #
straight-curve $-1 -68.842432935575431 0 -11.199600112640745 0 1 0 I I #
point $-1 -68.842432935575431 41.090740786583581 -11.199600112640745 #
straight-curve $-1 -43.784295164567887 -41.090740786583581 42.546809529089828 0 0 -1 I I #
point $-1 -43.784295164567887 -41.090740786583581 11.199600112640745 #
straight-curve $-1 -14.144196162263341 -41.090740786583581 4.1644869861314087 1 0 0 I I #
point $-1 -43.784295164567887 -41.090740786583581 4.1644869861314131 #
point $-1 -37.585934028551407 -34.190363654986498 4.525417778060568 #
point $-1 -28.288392324526683 -34.190363654986498 4.525417778060568 #
point $-1 -18.990850620501959 -34.190363654986498 4.525417778060568 #
straight-curve $-1 12.792489484485479 -41.090740786583581 42.546809529089828 0 0 -1 I I #
point $-1 12.792489484485479 -41.090740786583581 11.199600112640745 #
straight-curve $-1 14.144196162263341 -41.090740786583581 4.1644869861314087 1 0 0 I I #
point $-1 12.792489484485479 -41.090740786583581 4.1644869861314131 #
point $-1 18.990850620501959 -34.190363654986498 4.525417778060568 #
point $-1 28.288392324526683 -34.190363654986498 4.525417778060568 #
point $-1 37.585934028551407 -34.190363654986498 4.525417778060568 #
straight-curve $-1 -1.208491729276389 41.090740786583581 83.673457022965707 0 0 -1 I I #
point $-1 -1.208491729276389 41.090740786583581 11.199600112640745 #
straight-curve $-1 -6.4790788702872568 41.090740786583574 7.9288408938573269 -1 0 0 I I #
point $-1 -1.208491729276389 41.090740786583581 7.9288408938573269 #
point $-1 -20.00795734735339 37.672203037139546 7.9076495836906471 #
point $-1 -12.958157740574514 37.672203037139546 7.9076495836906471 #
point $-1 -5.9083581337956375 37.672203037139546 7.9076495836906471 #
End-of-ACIS-data 