500 0 2 0           
7 Unknown 11 ACIS 5.0 NT 24 Thu Mar 25 15:22:14 1999 
-1 9.9999999999999995e-007 1e-010 
body $-1 $2 $-1 $3 #
body $-1 $4 $-1 $5 #
lump $-1 $-1 $6 $0 #
transform $-1 1 0 0 0 1 0 0 0 1 62.326120792260511 26.816380772286944 6.148199729966298 1 rotate no_reflect no_shear #
lump $-1 $-1 $7 $1 #
transform $-1 1 0 0 0 1 0 0 0 1 62.326120792260511 26.816380772286944 6.148199729966298 1 rotate no_reflect no_shear #
shell $-1 $-1 $-1 $8 $-1 $2 #
shell $-1 $-1 $-1 $9 $-1 $4 #
face $-1 $10 $11 $6 $-1 $12 forward single #
face $-1 $13 $14 $7 $-1 $15 forward single #
face $-1 $16 $17 $6 $-1 $18 reversed single #
loop $-1 $-1 $19 $8 #
plane-surface $-1 0 0 6.148199729966298 0 0 1 1 0 0 forward_v I I I I #
face $-1 $20 $21 $7 $-1 $22 forward single #
loop $-1 $-1 $23 $9 #
plane-surface $-1 -60.104770056668649 -19.209487790942518 0 0 1 0 0 0 1 forward_v I I I I #
face $-1 $24 $25 $6 $-1 $26 reversed single #
loop $-1 $-1 $27 $10 #
plane-surface $-1 0 0 -6.148199729966298 0 0 1 1 0 0 forward_v I I I I #
coedge $-1 $28 $29 $30 $31 forward $11 $-1 #
face $-1 $32 $33 $7 $-1 $34 forward single #
loop $-1 $-1 $35 $13 #
plane-surface $-1 -60.104770056668649 -16.209487790942518 0 0 -1 0 0 0 -1 forward_v I I I I #
coedge $-1 $36 $37 $38 $39 reversed $14 $-1 #
face $-1 $40 $41 $6 $-1 $42 reversed single #
loop $-1 $-1 $43 $16 #
plane-surface $-1 0 -26.816380772286944 0 0 1 0 0 0 1 forward_v I I I I #
coedge $-1 $44 $45 $46 $47 forward $17 $-1 #
coedge $-1 $48 $19 $49 $50 forward $11 $-1 #
coedge $-1 $19 $48 $51 $52 forward $11 $-1 #
coedge $-1 $53 $54 $19 $31 reversed $55 $-1 #
edge $-1 $56 -26.816380772286944 $57 26.816380772286944 $30 $58 forward 7 unknown #
face $-1 $59 $60 $7 $-1 $61 forward single #
loop $-1 $-1 $62 $20 #
plane-surface $-1 -57.883419321076786 -17.709487790942518 0 -1 0 0 0 0 1 forward_v I I I I #
coedge $-1 $63 $64 $65 $66 reversed $21 $-1 #
coedge $-1 $67 $23 $68 $69 reversed $14 $-1 #
coedge $-1 $23 $67 $70 $71 reversed $14 $-1 #
coedge $-1 $72 $73 $23 $39 forward $74 $-1 #
edge $-1 $75 -6.148199729966298 $76 6.148199729966298 $38 $77 forward 7 unknown #
face $-1 $78 $79 $6 $-1 $80 reversed single #
loop $-1 $-1 $81 $24 #
plane-surface $-1 -62.326120792260511 0 0 1 0 0 0 0 -1 forward_v I I I I #
coedge $-1 $82 $51 $83 $84 forward $25 $-1 #
coedge $-1 $85 $27 $82 $86 forward $17 $-1 #
coedge $-1 $27 $85 $87 $88 forward $17 $-1 #
coedge $-1 $54 $53 $27 $47 reversed $55 $-1 #
edge $-1 $89 -26.816380772286944 $90 26.816380772286944 $46 $91 forward 7 unknown #
coedge $-1 $29 $28 $92 $93 forward $11 $-1 #
coedge $-1 $94 $95 $28 $50 reversed $79 $-1 #
edge $-1 $57 -62.326120792260511 $96 62.326120792260511 $49 $97 forward 7 unknown #
coedge $-1 $43 $98 $29 $52 reversed $25 $-1 #
edge $-1 $99 -62.326120792260511 $56 62.326120792260511 $51 $100 forward 7 unknown #
coedge $-1 $46 $30 $98 $101 forward $55 $-1 #
coedge $-1 $30 $46 $94 $102 reversed $55 $-1 #
loop $-1 $-1 $53 $78 #
vertex $-1 $31 $103 #
vertex $-1 $31 $104 #
straight-curve $-1 62.326120792260511 0 6.148199729966298 0 1 0 I I #
face $-1 $105 $74 $7 $-1 $106 reversed single #
loop $-1 $-1 $107 $32 #
plane-surface $-1 0 0 6.148199729966298 0 0 1 1 0 0 forward_v I I I I #
coedge $-1 $108 $109 $67 $110 reversed $33 $-1 #
coedge $-1 $111 $35 $107 $112 reversed $21 $-1 #
coedge $-1 $35 $111 $113 $114 reversed $21 $-1 #
coedge $-1 $109 $108 $35 $66 forward $33 $-1 #
edge $-1 $115 -6.148199729966298 $116 6.148199729966298 $65 $117 forward 7 unknown #
coedge $-1 $37 $36 $62 $110 forward $14 $-1 #
coedge $-1 $118 $119 $36 $69 forward $60 $-1 #
edge $-1 $120 27.831034292742462 $75 32.273735763926183 $68 $121 forward 7 unknown #
coedge $-1 $122 $123 $37 $71 forward $124 $-1 #
edge $-1 $76 -32.273735763926183 $125 -27.831034292742462 $70 $126 forward 7 unknown #
coedge $-1 $127 $38 $123 $128 reversed $74 $-1 #
coedge $-1 $38 $127 $118 $129 reversed $74 $-1 #
loop $-1 $-1 $38 $59 #
vertex $-1 $129 $130 #
vertex $-1 $39 $131 #
straight-curve $-1 -62.326120792260511 -19.209487790942518 0 0 0 -1 I I #
face $-1 $-1 $55 $6 $-1 $132 reversed single #
loop $-1 $-1 $94 $40 #
plane-surface $-1 0 26.816380772286944 0 0 -1 0 0 0 -1 forward_v I I I I #
coedge $-1 $133 $92 $95 $134 forward $41 $-1 #
coedge $-1 $98 $43 $44 $86 reversed $25 $-1 #
coedge $-1 $92 $133 $43 $84 reversed $41 $-1 #
edge $-1 $99 -6.148199729966298 $135 6.148199729966298 $83 $136 forward 7 unknown #
coedge $-1 $45 $44 $133 $137 forward $17 $-1 #
edge $-1 $90 -62.326120792260511 $135 62.326120792260511 $82 $138 forward 7 unknown #
coedge $-1 $95 $94 $45 $88 reversed $79 $-1 #
edge $-1 $139 -62.326120792260511 $89 62.326120792260511 $87 $140 forward 7 unknown #
vertex $-1 $47 $141 #
vertex $-1 $101 $142 #
straight-curve $-1 62.326120792260511 0 -6.148199729966298 0 -1 0 I I #
coedge $-1 $81 $83 $48 $93 reversed $41 $-1 #
edge $-1 $96 -26.816380772286944 $99 26.816380772286944 $92 $143 forward 7 unknown #
coedge $-1 $87 $49 $54 $102 forward $79 $-1 #
coedge $-1 $49 $87 $81 $134 reversed $79 $-1 #
vertex $-1 $50 $144 #
straight-curve $-1 0 26.816380772286944 6.148199729966298 -1 0 0 I I #
coedge $-1 $51 $82 $53 $101 reversed $25 $-1 #
vertex $-1 $93 $145 #
straight-curve $-1 0 -26.816380772286944 6.148199729966298 1 0 0 I I #
edge $-1 $56 -6.148199729966298 $90 6.148199729966298 $53 $146 forward 7 unknown #
edge $-1 $57 -6.148199729966298 $89 6.148199729966298 $54 $147 forward 7 unknown #
point $-1 62.326120792260511 -26.816380772286944 6.148199729966298 #
point $-1 62.326120792260511 26.816380772286944 6.148199729966298 #
face $-1 $148 $124 $7 $-1 $149 reversed single #
plane-surface $-1 -62.326120792260511 0 0 1 0 0 0 0 -1 forward_v I I I I #
coedge $-1 $119 $150 $63 $112 forward $60 $-1 #
coedge $-1 $65 $62 $119 $151 reversed $33 $-1 #
coedge $-1 $62 $65 $122 $152 reversed $33 $-1 #
edge $-1 $120 -6.148199729966298 $125 6.148199729966298 $62 $153 forward 7 unknown #
coedge $-1 $64 $63 $154 $155 reversed $21 $-1 #
edge $-1 $156 -32.273735763926183 $115 -27.831034292742462 $107 $157 forward 7 unknown #
coedge $-1 $158 $122 $64 $114 forward $124 $-1 #
edge $-1 $116 27.831034292742462 $159 32.273735763926183 $113 $160 forward 7 unknown #
vertex $-1 $112 $161 #
vertex $-1 $114 $162 #
straight-curve $-1 -57.883419321076786 -16.209487790942518 0 0 0 -1 I I #
coedge $-1 $163 $68 $73 $129 forward $60 $-1 #
coedge $-1 $68 $107 $108 $151 forward $60 $-1 #
vertex $-1 $69 $164 #
straight-curve $-1 -30.052385028334324 -19.209487790942518 6.148199729966298 -1 0 0 I I #
coedge $-1 $113 $70 $109 $152 forward $124 $-1 #
coedge $-1 $70 $165 $72 $128 forward $124 $-1 #
loop $-1 $-1 $113 $105 #
vertex $-1 $71 $166 #
straight-curve $-1 -30.052385028334324 -19.209487790942518 -6.148199729966298 1 0 0 I I #
coedge $-1 $73 $72 $167 $168 reversed $74 $-1 #
edge $-1 $169 -26.816380772286944 $76 -19.209487790942518 $72 $170 forward 7 unknown #
edge $-1 $75 19.209487790942518 $171 26.816380772286944 $73 $172 forward 7 unknown #
point $-1 -62.326120792260511 -19.209487790942518 6.148199729966298 #
point $-1 -62.326120792260511 -19.209487790942518 -6.148199729966298 #
plane-surface $-1 62.326120792260511 0 0 -1 0 0 0 0 1 forward_v I I I I #
coedge $-1 $83 $81 $85 $137 reversed $41 $-1 #
edge $-1 $96 -6.148199729966298 $139 6.148199729966298 $95 $173 forward 7 unknown #
vertex $-1 $137 $174 #
straight-curve $-1 -62.326120792260511 -26.816380772286944 0 0 0 -1 I I #
edge $-1 $135 -26.816380772286944 $139 26.816380772286944 $133 $175 forward 7 unknown #
straight-curve $-1 0 -26.816380772286944 -6.148199729966298 -1 0 0 I I #
vertex $-1 $88 $176 #
straight-curve $-1 0 26.816380772286944 -6.148199729966298 1 0 0 I I #
point $-1 62.326120792260511 26.816380772286944 -6.148199729966298 #
point $-1 62.326120792260511 -26.816380772286944 -6.148199729966298 #
straight-curve $-1 -62.326120792260511 0 6.148199729966298 0 -1 0 I I #
point $-1 -62.326120792260511 26.816380772286944 6.148199729966298 #
point $-1 -62.326120792260511 -26.816380772286944 6.148199729966298 #
straight-curve $-1 62.326120792260511 -26.816380772286944 0 0 0 -1 I I #
straight-curve $-1 62.326120792260511 26.816380772286944 0 0 0 -1 I I #
face $-1 $177 $178 $7 $-1 $179 reversed single #
plane-surface $-1 0 0 -6.148199729966298 0 0 1 1 0 0 forward_v I I I I #
coedge $-1 $107 $180 $181 $182 forward $60 $-1 #
edge $-1 $115 7.354743895471259 $120 10.354743895471259 $119 $183 forward 7 unknown #
edge $-1 $125 -10.354743895471259 $116 -7.354743895471259 $122 $184 forward 7 unknown #
straight-curve $-1 -57.883419321076786 -19.209487790942518 0 0 0 -1 I I #
coedge $-1 $181 $185 $111 $155 forward $186 $-1 #
edge $-1 $159 -6.148199729966298 $156 6.148199729966298 $154 $187 forward 7 unknown #
vertex $-1 $155 $188 #
straight-curve $-1 -30.052385028334324 -16.209487790942518 6.148199729966298 1 0 0 I I #
coedge $-1 $189 $113 $185 $190 forward $124 $-1 #
vertex $-1 $190 $191 #
straight-curve $-1 -30.052385028334324 -16.209487790942518 -6.148199729966298 -1 0 0 I I #
point $-1 -57.883419321076786 -16.209487790942518 6.148199729966298 #
point $-1 -57.883419321076786 -16.209487790942518 -6.148199729966298 #
coedge $-1 $192 $118 $193 $194 forward $60 $-1 #
point $-1 -57.883419321076786 -19.209487790942518 6.148199729966298 #
coedge $-1 $123 $195 $196 $197 forward $124 $-1 #
point $-1 -57.883419321076786 -19.209487790942518 -6.148199729966298 #
coedge $-1 $196 $193 $127 $168 forward $178 $-1 #
edge $-1 $171 -6.148199729966298 $169 6.148199729966298 $127 $198 forward 7 unknown #
vertex $-1 $128 $199 #
straight-curve $-1 -62.326120792260511 0 -6.148199729966298 0 1 0 I I #
vertex $-1 $129 $200 #
straight-curve $-1 -62.326120792260511 0 6.148199729966298 0 -1 0 I I #
straight-curve $-1 -62.326120792260511 26.816380772286944 0 0 0 -1 I I #
point $-1 -62.326120792260511 -26.816380772286944 -6.148199729966298 #
straight-curve $-1 -62.326120792260511 0 -6.148199729966298 0 1 0 I I #
point $-1 -62.326120792260511 26.816380772286944 -6.148199729966298 #
face $-1 $201 $186 $7 $-1 $106 reversed single #
loop $-1 $-1 $167 $148 #
plane-surface $-1 0 -26.816380772286944 0 0 1 0 0 0 1 forward_v I I I I #
coedge $-1 $150 $192 $202 $203 forward $60 $-1 #
coedge $-1 $204 $154 $150 $182 reversed $186 $-1 #
edge $-1 $205 -26.816380772286944 $156 16.209487790942518 $181 $172 forward 7 unknown #
straight-curve $-1 -57.883419321076786 -8.854743895471259 6.148199729966298 0 -1 0 I I #
straight-curve $-1 -57.883419321076786 -8.854743895471259 -6.148199729966298 0 1 0 I I #
coedge $-1 $154 $204 $158 $190 reversed $186 $-1 #
loop $-1 $-1 $154 $177 #
straight-curve $-1 -62.326120792260511 -16.209487790942518 0 0 0 1 I I #
point $-1 -62.326120792260511 -16.209487790942518 6.148199729966298 #
coedge $-1 $195 $158 $206 $207 forward $124 $-1 #
edge $-1 $159 -16.209487790942518 $208 26.816380772286944 $185 $170 forward 7 unknown #
point $-1 -62.326120792260511 -16.209487790942518 -6.148199729966298 #
coedge $-1 $180 $163 $209 $210 forward $60 $-1 #
coedge $-1 $167 $211 $163 $194 reversed $178 $-1 #
edge $-1 $171 -62.326120792260511 $212 62.326120792260511 $193 $213 forward 7 unknown #
coedge $-1 $165 $189 $214 $215 forward $124 $-1 #
coedge $-1 $211 $167 $165 $197 reversed $178 $-1 #
edge $-1 $216 -62.326120792260511 $169 62.326120792260511 $196 $217 forward 7 unknown #
straight-curve $-1 -62.326120792260511 -26.816380772286944 0 0 0 -1 I I #
point $-1 -62.326120792260511 -26.816380772286944 -6.148199729966298 #
point $-1 -62.326120792260511 -26.816380772286944 6.148199729966298 #
face $-1 $218 $219 $7 $-1 $220 reversed single #
coedge $-1 $221 $222 $180 $203 reversed $219 $-1 #
edge $-1 $223 -62.326120792260511 $205 62.326120792260511 $202 $224 forward 7 unknown #
coedge $-1 $185 $181 $222 $225 forward $186 $-1 #
vertex $-1 $203 $226 #
coedge $-1 $222 $221 $189 $207 reversed $219 $-1 #
edge $-1 $208 -62.326120792260511 $227 62.326120792260511 $206 $228 forward 7 unknown #
vertex $-1 $207 $229 #
coedge $-1 $230 $231 $192 $210 reversed $232 $-1 #
edge $-1 $212 -26.816380772286944 $223 26.816380772286944 $209 $233 forward 7 unknown #
coedge $-1 $193 $196 $230 $234 reversed $178 $-1 #
vertex $-1 $210 $235 #
straight-curve $-1 0 -26.816380772286944 6.148199729966298 1 0 0 I I #
coedge $-1 $231 $230 $195 $215 reversed $232 $-1 #
edge $-1 $227 -26.816380772286944 $216 26.816380772286944 $214 $236 forward 7 unknown #
vertex $-1 $234 $237 #
straight-curve $-1 0 -26.816380772286944 -6.148199729966298 -1 0 0 I I #
face $-1 $-1 $232 $7 $-1 $238 reversed single #
loop $-1 $-1 $221 $201 #
plane-surface $-1 0 26.816380772286944 0 0 -1 0 0 0 -1 forward_v I I I I #
coedge $-1 $206 $202 $231 $239 forward $219 $-1 #
coedge $-1 $202 $206 $204 $225 reversed $219 $-1 #
vertex $-1 $210 $240 #
straight-curve $-1 0 26.816380772286944 6.148199729966298 -1 0 0 I I #
edge $-1 $205 -6.148199729966298 $208 6.148199729966298 $222 $241 forward 7 unknown #
point $-1 -62.326120792260511 26.816380772286944 6.148199729966298 #
vertex $-1 $215 $242 #
straight-curve $-1 0 26.816380772286944 -6.148199729966298 1 0 0 I I #
point $-1 -62.326120792260511 26.816380772286944 -6.148199729966298 #
coedge $-1 $214 $209 $211 $234 forward $232 $-1 #
coedge $-1 $209 $214 $221 $239 reversed $232 $-1 #
loop $-1 $-1 $230 $218 #
straight-curve $-1 62.326120792260511 0 6.148199729966298 0 1 0 I I #
edge $-1 $212 -6.148199729966298 $216 6.148199729966298 $230 $243 forward 7 unknown #
point $-1 62.326120792260511 -26.816380772286944 6.148199729966298 #
straight-curve $-1 62.326120792260511 0 -6.148199729966298 0 -1 0 I I #
point $-1 62.326120792260511 -26.816380772286944 -6.148199729966298 #
plane-surface $-1 62.326120792260511 0 0 -1 0 0 0 0 1 forward_v I I I I #
edge $-1 $223 -6.148199729966298 $227 6.148199729966298 $231 $244 forward 7 unknown #
point $-1 62.326120792260511 26.816380772286944 6.148199729966298 #
straight-curve $-1 -62.326120792260511 26.816380772286944 0 0 0 -1 I I #
point $-1 62.326120792260511 26.816380772286944 -6.148199729966298 #
straight-curve $-1 62.326120792260511 -26.816380772286944 0 0 0 -1 I I #
straight-curve $-1 62.326120792260511 26.816380772286944 0 0 0 -1 I I #
End-of-ACIS-data 