500 0 8 0           
7 Unknown 11 ACIS 5.0 NT 24 Thu Mar 25 23:44:45 1999 
-1 9.9999999999999995e-007 1e-010 
body $-1 $8 $-1 $9 #
body $-1 $10 $-1 $11 #
body $-1 $12 $-1 $13 #
body $-1 $14 $-1 $15 #
body $-1 $16 $-1 $17 #
body $-1 $18 $-1 $19 #
body $-1 $20 $-1 $21 #
body $-1 $22 $-1 $23 #
lump $-1 $-1 $24 $0 #
transform $-1 1 0 0 0 1 0 0 0 1 46.732383190404981 26.31999996416052 7.7939875988722171 1 rotate no_reflect no_shear #
lump $-1 $-1 $25 $1 #
transform $-1 1 0 0 0 1 0 0 0 1 46.732383190404981 26.31999996416052 7.7939875988722171 1 rotate no_reflect no_shear #
lump $-1 $-1 $26 $2 #
transform $-1 1 0 0 0 1 0 0 0 1 46.732383190404981 26.31999996416052 7.7939875988722171 1 rotate no_reflect no_shear #
lump $-1 $-1 $27 $3 #
transform $-1 1 0 0 0 1 0 0 0 1 46.732383190404981 26.31999996416052 7.7939875988722171 1 rotate no_reflect no_shear #
lump $-1 $-1 $28 $4 #
transform $-1 1 0 0 0 1 0 0 0 1 46.732383190404981 26.31999996416052 7.7939875988722171 1 rotate no_reflect no_shear #
lump $-1 $-1 $29 $5 #
transform $-1 1 0 0 0 1 0 0 0 1 46.732383190404981 26.31999996416052 7.7939875988722171 1 rotate no_reflect no_shear #
lump $-1 $-1 $30 $6 #
transform $-1 1 0 0 0 1 0 0 0 1 46.732383190404981 26.31999996416052 7.7939875988722171 1 rotate no_reflect no_shear #
lump $-1 $-1 $31 $7 #
transform $-1 1 0 0 0 1 0 0 0 1 46.732383190404981 26.31999996416052 7.7939875988722171 1 rotate no_reflect no_shear #
shell $-1 $-1 $-1 $32 $-1 $8 #
shell $-1 $-1 $-1 $33 $-1 $10 #
shell $-1 $-1 $-1 $34 $-1 $12 #
shell $-1 $-1 $-1 $35 $-1 $14 #
shell $-1 $-1 $-1 $36 $-1 $16 #
shell $-1 $-1 $-1 $37 $-1 $18 #
shell $-1 $-1 $-1 $38 $-1 $20 #
shell $-1 $-1 $-1 $39 $-1 $22 #
face $-1 $40 $41 $24 $-1 $42 forward single #
face $-1 $43 $44 $25 $-1 $45 forward single #
face $-1 $46 $47 $26 $-1 $48 forward single #
face $-1 $49 $50 $27 $-1 $51 reversed single #
face $-1 $52 $53 $28 $-1 $54 forward single #
face $-1 $55 $56 $29 $-1 $57 forward single #
face $-1 $58 $59 $30 $-1 $60 reversed single #
face $-1 $61 $62 $31 $-1 $63 forward single #
face $-1 $64 $65 $24 $-1 $66 reversed single #
loop $-1 $-1 $67 $32 #
plane-surface $-1 0 0 7.7939875988722171 0 0 1 1 0 0 forward_v I I I I #
face $-1 $68 $69 $25 $-1 $70 reversed single #
loop $-1 $-1 $71 $33 #
plane-surface $-1 -42.042047226038591 0 -4.7939875988722171 0 0 1 1 0 0 forward_v I I I I #
face $-1 $72 $73 $26 $-1 $74 reversed single #
loop $-1 $-1 $75 $34 #
plane-surface $-1 42.042047226038598 0 -4.7939875988722171 0 0 1 1 0 0 forward_v I I I I #
face $-1 $76 $77 $27 $-1 $78 reversed single #
loop $-1 $-1 $79 $35 #
plane-surface $-1 -23.126667625257294 65.828341667154248 101.64499263251001 -1 0 0 0 0.77714596973225614 0.62932038083071107 forward_v I I I I #
face $-1 $80 $81 $28 $-1 $82 forward single #
loop $-1 $83 $84 $36 #
cone-surface $-1 -33.287413079839368 22.65634284373084 3.8155969364031614 0 -0.77714596973225614 -0.62932038083071107 1.5 0 0 1 I I 0 1 1.5 forward I I I I #
face $-1 $85 $86 $29 $-1 $87 forward single #
loop $-1 $88 $89 $37 #
cone-surface $-1 -27.190965807090123 22.65634284373084 3.8155969364031614 0 -0.77714596973225614 -0.62932038083071107 1.5 0 0 1 I I 0 1 1.5 forward I I I I #
face $-1 $90 $91 $30 $-1 $92 reversed single #
loop $-1 $-1 $93 $38 #
plane-surface $-1 -8.874577413034956 -104.70614941576297 52.814868050363998 1 0 0 0 0.83867057594974714 -0.54463902268945019 forward_v I I I I #
face $-1 $94 $95 $31 $-1 $96 forward single #
loop $-1 $97 $98 $39 #
cone-surface $-1 2.0493760826079424 -22.802688270304113 3.808641922091156 0 0.83867057594974714 -0.54463902268945019 1.5 0 0 1 I I 0 1 1.5 forward I I I I #
face $-1 $99 $100 $24 $-1 $101 reversed single #
loop $-1 $-1 $102 $40 #
plane-surface $-1 0 0 -7.7939875988722171 0 0 1 1 0 0 forward_v I I I I #
coedge $-1 $103 $104 $105 $106 forward $41 $-1 #
face $-1 $107 $108 $25 $-1 $109 reversed single #
loop $-1 $-1 $110 $43 #
plane-surface $-1 -37.3517112616722 0 -6.2939875988722171 -1 0 0 0 0 1 forward_v I I I I #
coedge $-1 $111 $112 $113 $114 forward $44 $-1 #
face $-1 $115 $116 $26 $-1 $117 reversed single #
loop $-1 $-1 $118 $46 #
plane-surface $-1 37.351711261672207 0 -6.2939875988722171 1 0 0 0 0 -1 forward_v I I I I #
coedge $-1 $119 $120 $121 $122 reversed $47 $-1 #
face $-1 $123 $124 $27 $-1 $125 reversed single #
loop $-1 $-1 $126 $49 #
plane-surface $-1 -30.239189443464749 -6.8074248376590987 42.825710259485234 0 0.77714596973225614 0.62932038083071107 1 0 0 forward_v I I I I #
coedge $-1 $127 $128 $129 $130 reversed $50 $-1 #
face $-1 $-1 $131 $28 $-1 $132 forward single #
loop $-1 $133 $134 $52 #
cone-surface $-1 -33.287413079839368 20.789474195333749 2.3038365535050325 0 -0.77714596973225614 -0.62932038083071107 0.75 0 0 1 I I -0.70710678118654757 0.70710678118654757 0.75 forward I I I I #
loop $-1 $-1 $135 $36 #
coedge $-1 $84 $84 $136 $137 reversed $53 $-1 #
face $-1 $-1 $138 $29 $-1 $139 forward single #
loop $-1 $140 $141 $55 #
cone-surface $-1 -27.190965807090123 20.789474195333749 2.3038365535050325 0 -0.77714596973225614 -0.62932038083071107 0.75 0 0 1 I I -0.70710678118654757 0.70710678118654757 0.75 forward I I I I #
loop $-1 $-1 $142 $37 #
coedge $-1 $89 $89 $143 $144 reversed $56 $-1 #
face $-1 $145 $146 $30 $-1 $147 reversed single #
loop $-1 $-1 $148 $58 #
plane-surface $-1 2.0493760826079424 -26.319999964160516 1.9103090328218784 0 -0.83867057594974714 0.54463902268945019 1 0 0 forward_v I I I I #
coedge $-1 $149 $150 $151 $152 reversed $59 $-1 #
face $-1 $-1 $153 $31 $-1 $154 forward single #
loop $-1 $155 $156 $61 #
cone-surface $-1 2.0493760826079424 -20.566826351380254 2.3566562613181752 0 0.83867057594974714 -0.54463902268945019 0.75 0 0 1 I I -0.70710678118654757 0.70710678118654757 0.75 forward I I I I #
loop $-1 $-1 $157 $39 #
coedge $-1 $98 $98 $158 $159 reversed $62 $-1 #
face $-1 $160 $161 $24 $-1 $162 reversed single #
loop $-1 $-1 $163 $64 #
plane-surface $-1 0 -26.31999996416052 0 0 1 0 0 0 1 forward_v I I I I #
coedge $-1 $164 $165 $166 $167 forward $65 $-1 #
coedge $-1 $168 $67 $169 $170 forward $41 $-1 #
coedge $-1 $67 $168 $171 $172 forward $41 $-1 #
coedge $-1 $173 $174 $67 $106 reversed $175 $-1 #
edge $-1 $176 -26.31999996416052 $177 26.31999996416052 $105 $178 forward 7 unknown #
face $-1 $179 $180 $25 $-1 $181 reversed single #
loop $-1 $-1 $182 $68 #
plane-surface $-1 0 0 -7.7939875988722171 0 0 1 1 0 0 forward_v I I I I #
coedge $-1 $183 $113 $184 $185 reversed $69 $-1 #
coedge $-1 $186 $71 $187 $188 reversed $44 $-1 #
coedge $-1 $71 $186 $189 $190 reversed $44 $-1 #
coedge $-1 $110 $191 $71 $114 reversed $69 $-1 #
edge $-1 $192 -26.31999996416052 $193 26.31999996416052 $113 $194 forward 7 unknown #
face $-1 $195 $196 $26 $-1 $197 reversed single #
loop $-1 $-1 $198 $72 #
plane-surface $-1 0 -26.31999996416052 0 0 1 0 0 0 1 forward_v I I I I #
coedge $-1 $199 $200 $201 $202 reversed $73 $-1 #
coedge $-1 $203 $75 $204 $205 reversed $47 $-1 #
coedge $-1 $75 $203 $198 $206 reversed $47 $-1 #
coedge $-1 $207 $208 $75 $122 forward $209 $-1 #
edge $-1 $210 -26.31999996416052 $211 26.31999996416052 $121 $212 forward 7 unknown #
face $-1 $213 $214 $27 $-1 $215 reversed single #
loop $-1 $-1 $216 $76 #
plane-surface $-1 -37.351711261672207 65.828341667154248 101.64499263251001 1 0 0 0 -0.77714596973225614 -0.62932038083071107 forward_v I I I I #
coedge $-1 $217 $218 $219 $220 reversed $77 $-1 #
coedge $-1 $128 $79 $221 $222 reversed $50 $-1 #
coedge $-1 $79 $127 $217 $223 reversed $50 $-1 #
coedge $-1 $219 $224 $79 $130 forward $214 $-1 #
edge $-1 $225 43.028508717382792 $226 48.905749847770736 $129 $227 forward 7 unknown #
loop $-1 $-1 $136 $80 #
plane-surface $-1 -30.239189443464749 -6.8074248376590987 42.825710259485234 0 0.77714596973225614 0.62932038083071107 1 0 0 forward_v I I I I #
loop $-1 $-1 $228 $52 #
coedge $-1 $134 $134 $135 $229 reversed $81 $-1 #
coedge $-1 $135 $135 $134 $229 forward $83 $-1 #
coedge $-1 $136 $136 $84 $137 forward $131 $-1 #
edge $-1 $230 2.0407377085696651e-015 $230 6.2831853071796022 $136 $231 forward 7 unknown #
loop $-1 $-1 $143 $85 #
plane-surface $-1 -30.239189443464749 -6.8074248376590987 42.825710259485234 0 0.77714596973225614 0.62932038083071107 1 0 0 forward_v I I I I #
loop $-1 $-1 $232 $55 #
coedge $-1 $141 $141 $142 $233 reversed $86 $-1 #
coedge $-1 $142 $142 $141 $233 forward $88 $-1 #
coedge $-1 $143 $143 $89 $144 forward $138 $-1 #
edge $-1 $234 2.0407377085696651e-015 $234 6.2831853071796022 $143 $235 forward 7 unknown #
face $-1 $236 $237 $30 $-1 $238 forward single #
loop $-1 $-1 $239 $90 #
plane-surface $-1 12.973329578250841 -104.70614941576297 52.814868050363998 -1 0 0 0 -0.83867057594974714 0.54463902268945019 forward_v I I I I #
coedge $-1 $240 $241 $242 $243 reversed $91 $-1 #
coedge $-1 $150 $93 $244 $245 reversed $59 $-1 #
coedge $-1 $93 $149 $240 $246 reversed $59 $-1 #
coedge $-1 $242 $247 $93 $152 forward $248 $-1 #
edge $-1 $249 18.613446426309782 $250 24.497124992360128 $151 $251 forward 7 unknown #
loop $-1 $-1 $158 $94 #
plane-surface $-1 2.0493760826079424 -26.319999964160516 1.9103090328218784 0 -0.83867057594974714 0.54463902268945019 1 0 0 forward_v I I I I #
loop $-1 $-1 $252 $61 #
coedge $-1 $156 $156 $157 $253 reversed $95 $-1 #
coedge $-1 $157 $157 $156 $253 forward $97 $-1 #
coedge $-1 $158 $158 $98 $159 forward $153 $-1 #
edge $-1 $254 -2.9677886155017717e-016 $254 6.2831853071796004 $158 $255 forward 7 unknown #
face $-1 $256 $257 $24 $-1 $258 reversed single #
loop $-1 $-1 $259 $99 #
plane-surface $-1 -46.732383190404981 0 0 1 0 0 0 0 -1 forward_v I I I I #
coedge $-1 $260 $171 $261 $262 forward $100 $-1 #
coedge $-1 $263 $102 $260 $264 forward $65 $-1 #
coedge $-1 $102 $263 $265 $266 forward $65 $-1 #
coedge $-1 $174 $173 $102 $167 reversed $175 $-1 #
edge $-1 $267 -26.31999996416052 $268 26.31999996416052 $166 $269 forward 7 unknown #
coedge $-1 $104 $103 $270 $271 forward $41 $-1 #
coedge $-1 $272 $273 $103 $170 reversed $257 $-1 #
edge $-1 $177 -46.732383190404981 $274 46.732383190404981 $169 $275 forward 7 unknown #
coedge $-1 $163 $276 $104 $172 reversed $100 $-1 #
edge $-1 $277 -46.732383190404981 $176 46.732383190404981 $171 $278 forward 7 unknown #
coedge $-1 $166 $105 $276 $279 forward $175 $-1 #
coedge $-1 $105 $166 $272 $280 reversed $175 $-1 #
loop $-1 $-1 $173 $256 #
vertex $-1 $106 $281 #
vertex $-1 $106 $282 #
straight-curve $-1 46.732383190404981 0 7.7939875988722171 0 1 0 I I #
face $-1 $283 $284 $25 $-1 $285 reversed single #
loop $-1 $-1 $184 $107 #
plane-surface $-1 0 -26.31999996416052 0 0 1 0 0 0 1 forward_v I I I I #
coedge $-1 $286 $287 $183 $288 forward $108 $-1 #
coedge $-1 $191 $110 $182 $288 reversed $69 $-1 #
coedge $-1 $189 $289 $110 $185 forward $180 $-1 #
edge $-1 $290 -4.6469937994361086 $192 -1.6469937994361086 $184 $291 forward 7 unknown #
coedge $-1 $112 $111 $292 $293 reversed $44 $-1 #
coedge $-1 $294 $295 $111 $188 forward $296 $-1 #
edge $-1 $297 -25.711359577385686 $193 -16.330687648652905 $187 $298 forward 7 unknown #
coedge $-1 $299 $184 $112 $190 forward $180 $-1 #
edge $-1 $192 16.330687648652905 $300 25.711359577385686 $189 $301 forward 7 unknown #
coedge $-1 $113 $183 $294 $302 reversed $69 $-1 #
vertex $-1 $190 $303 #
vertex $-1 $188 $304 #
straight-curve $-1 -37.3517112616722 0 -4.7939875988722171 0 1 0 I I #
face $-1 $305 $306 $26 $-1 $307 reversed single #
loop $-1 $-1 $308 $115 #
plane-surface $-1 0 0 -7.7939875988722171 0 0 1 1 0 0 forward_v I I I I #
coedge $-1 $309 $310 $120 $206 forward $116 $-1 #
coedge $-1 $311 $118 $308 $312 reversed $73 $-1 #
coedge $-1 $118 $311 $203 $313 reversed $73 $-1 #
coedge $-1 $204 $314 $118 $202 forward $306 $-1 #
edge $-1 $315 -4.6469937994361086 $316 -1.6469937994361086 $201 $317 forward 7 unknown #
coedge $-1 $120 $119 $200 $313 forward $47 $-1 #
coedge $-1 $318 $201 $119 $205 forward $306 $-1 #
edge $-1 $316 16.330687648652908 $210 25.711359577385689 $204 $319 forward 7 unknown #
edge $-1 $211 -25.711359577385689 $320 -16.330687648652908 $198 $321 forward 7 unknown #
coedge $-1 $322 $121 $310 $323 forward $209 $-1 #
coedge $-1 $121 $322 $318 $324 reversed $209 $-1 #
loop $-1 $-1 $121 $305 #
vertex $-1 $324 $325 #
vertex $-1 $323 $326 #
straight-curve $-1 46.732383190404981 0 -4.7939875988722171 0 -1 0 I I #
face $-1 $-1 $327 $27 $-1 $328 forward single #
loop $-1 $-1 $129 $123 #
plane-surface $-1 0 26.31999996416052 0 0 -1 0 0 0 -1 forward_v I I I I #
coedge $-1 $329 $330 $331 $332 reversed $124 $-1 #
coedge $-1 $333 $126 $128 $223 forward $77 $-1 #
coedge $-1 $126 $333 $329 $334 forward $77 $-1 #
coedge $-1 $331 $129 $126 $220 forward $214 $-1 #
edge $-1 $226 8.0070729035249197 $335 22.232116539939831 $219 $336 forward 7 unknown #
coedge $-1 $337 $338 $127 $222 forward $327 $-1 #
edge $-1 $339 -11.3534667680802 $225 -6.5941708694166046 $221 $340 forward 7 unknown #
edge $-1 $226 -52.63999992832106 $339 -45.077403763262403 $128 $341 forward 7 unknown #
coedge $-1 $129 $331 $337 $342 reversed $214 $-1 #
vertex $-1 $342 $343 #
vertex $-1 $130 $344 #
straight-curve $-1 -23.126667625257294 26.31999996416052 50.822496316255005 0 0 -1 I I #
coedge $-1 $228 $228 $-1 $345 reversed $133 $-1 #
edge $-1 $346 0 $346 6.2831853071796004 $134 $347 forward 7 unknown #
vertex $-1 $137 $348 #
ellipse-curve $-1 -33.287413079839368 23.940352014828722 4.8553670336782426 0 0.77714596973225614 0.62932038083071107 1.5 0 0 1 I I #
coedge $-1 $232 $232 $-1 $349 reversed $140 $-1 #
edge $-1 $350 0 $350 6.2831853071796004 $141 $351 forward 7 unknown #
vertex $-1 $144 $352 #
ellipse-curve $-1 -27.190965807090123 23.940352014828722 4.8553670336782426 0 0.77714596973225614 0.62932038083071107 1.5 0 0 1 I I #
face $-1 $-1 $248 $30 $-1 $353 reversed single #
loop $-1 $-1 $354 $145 #
plane-surface $-1 0 0 7.7939875988722171 0 0 1 1 0 0 forward_v I I I I #
coedge $-1 $355 $356 $357 $358 reversed $146 $-1 #
coedge $-1 $359 $148 $150 $246 forward $91 $-1 #
coedge $-1 $148 $359 $355 $360 forward $91 $-1 #
coedge $-1 $357 $151 $148 $243 forward $248 $-1 #
edge $-1 $250 -9.8992654543389271 $361 11.948641536946869 $242 $362 forward 7 unknown #
coedge $-1 $363 $364 $149 $245 forward $237 $-1 #
edge $-1 $365 -29.853980157510676 $249 -26.033074743720963 $244 $366 forward 7 unknown #
edge $-1 $250 -6.5905034233925976e-015 $365 7.015482282047877 $150 $367 forward 7 unknown #
coedge $-1 $151 $357 $363 $368 reversed $248 $-1 #
loop $-1 $-1 $357 $236 #
vertex $-1 $368 $369 #
vertex $-1 $152 $370 #
straight-curve $-1 -8.874577413034956 -26.319999964160516 26.407434025181999 0 0 -1 I I #
coedge $-1 $252 $252 $-1 $371 reversed $155 $-1 #
edge $-1 $372 0 $372 6.2831853071796004 $156 $373 forward 7 unknown #
vertex $-1 $159 $374 #
ellipse-curve $-1 2.0493760826079424 -24.409547257265661 4.8521483158470478 0 -0.83867057594974714 0.54463902268945019 1.5 0 0 1 I I #
face $-1 $-1 $175 $24 $-1 $375 reversed single #
loop $-1 $-1 $272 $160 #
plane-surface $-1 0 26.31999996416052 0 0 -1 0 0 0 -1 forward_v I I I I #
coedge $-1 $376 $270 $273 $377 forward $161 $-1 #
coedge $-1 $276 $163 $164 $264 reversed $100 $-1 #
coedge $-1 $270 $376 $163 $262 reversed $161 $-1 #
edge $-1 $277 -7.7939875988722171 $378 7.7939875988722171 $261 $379 forward 7 unknown #
coedge $-1 $165 $164 $376 $380 forward $65 $-1 #
edge $-1 $268 -46.732383190404981 $378 46.732383190404981 $260 $381 forward 7 unknown #
coedge $-1 $273 $272 $165 $266 reversed $257 $-1 #
edge $-1 $382 -46.732383190404981 $267 46.732383190404981 $265 $383 forward 7 unknown #
vertex $-1 $167 $384 #
vertex $-1 $279 $385 #
straight-curve $-1 46.732383190404981 0 -7.7939875988722171 0 -1 0 I I #
coedge $-1 $259 $261 $168 $271 reversed $161 $-1 #
edge $-1 $274 -26.31999996416052 $277 26.31999996416052 $270 $386 forward 7 unknown #
coedge $-1 $265 $169 $174 $280 forward $257 $-1 #
coedge $-1 $169 $265 $259 $377 reversed $257 $-1 #
vertex $-1 $170 $387 #
straight-curve $-1 0 26.31999996416052 7.7939875988722171 -1 0 0 I I #
coedge $-1 $171 $260 $173 $279 reversed $100 $-1 #
vertex $-1 $271 $388 #
straight-curve $-1 0 -26.31999996416052 7.7939875988722171 1 0 0 I I #
edge $-1 $176 -7.7939875988722171 $268 7.7939875988722171 $173 $389 forward 7 unknown #
edge $-1 $177 -7.7939875988722171 $267 7.7939875988722171 $174 $390 forward 7 unknown #
point $-1 46.732383190404981 -26.31999996416052 7.7939875988722171 #
point $-1 46.732383190404981 26.31999996416052 7.7939875988722171 #
face $-1 $-1 $296 $25 $-1 $391 reversed single #
loop $-1 $-1 $292 $179 #
plane-surface $-1 -46.732383190404981 0 0 1 0 0 0 0 -1 forward_v I I I I #
coedge $-1 $392 $182 $289 $393 forward $108 $-1 #
coedge $-1 $182 $392 $394 $395 forward $108 $-1 #
edge $-1 $396 -26.31999996416052 $290 26.31999996416052 $182 $397 forward 7 unknown #
coedge $-1 $184 $299 $286 $393 reversed $180 $-1 #
vertex $-1 $393 $398 #
straight-curve $-1 -37.3517112616722 -26.31999996416052 -3.1469937994361086 0 0 1 I I #
coedge $-1 $399 $400 $186 $293 forward $284 $-1 #
edge $-1 $300 -26.31999996416052 $297 26.31999996416052 $292 $401 forward 7 unknown #
coedge $-1 $394 $187 $191 $302 forward $296 $-1 #
coedge $-1 $187 $394 $399 $402 reversed $296 $-1 #
loop $-1 $-1 $294 $283 #
vertex $-1 $402 $403 #
straight-curve $-1 -21.021023613019295 26.31999996416052 -4.7939875988722171 1 0 0 I I #
coedge $-1 $289 $189 $400 $404 forward $180 $-1 #
vertex $-1 $404 $405 #
straight-curve $-1 -21.021023613019295 -26.31999996416052 -4.7939875988722171 -1 0 0 I I #
edge $-1 $193 1.6469937994361086 $396 4.6469937994361086 $294 $406 forward 7 unknown #
point $-1 -37.3517112616722 -26.31999996416052 -4.7939875988722171 #
point $-1 -37.3517112616722 26.31999996416052 -4.7939875988722171 #
face $-1 $-1 $209 $26 $-1 $407 reversed single #
loop $-1 $-1 $204 $195 #
plane-surface $-1 0 26.31999996416052 0 0 -1 0 0 0 -1 forward_v I I I I #
coedge $-1 $408 $409 $199 $312 forward $196 $-1 #
coedge $-1 $410 $198 $311 $411 forward $116 $-1 #
coedge $-1 $198 $410 $207 $323 reversed $116 $-1 #
coedge $-1 $200 $199 $309 $411 reversed $73 $-1 #
edge $-1 $412 -26.31999996416052 $315 26.31999996416052 $308 $413 forward 7 unknown #
edge $-1 $316 -26.31999996416052 $320 26.31999996416052 $200 $414 forward 7 unknown #
coedge $-1 $201 $318 $408 $415 reversed $306 $-1 #
vertex $-1 $415 $416 #
vertex $-1 $205 $417 #
straight-curve $-1 37.351711261672207 26.31999996416052 -3.1469937994361086 0 0 1 I I #
coedge $-1 $314 $204 $208 $324 forward $306 $-1 #
straight-curve $-1 21.021023613019299 26.31999996416052 -4.7939875988722171 1 0 0 I I #
vertex $-1 $206 $418 #
straight-curve $-1 21.021023613019299 -26.31999996416052 -4.7939875988722171 -1 0 0 I I #
coedge $-1 $208 $207 $419 $420 reversed $209 $-1 #
edge $-1 $211 4.7939875988722171 $421 7.7939875988722171 $207 $422 forward 7 unknown #
edge $-1 $210 4.7939875988722171 $423 7.7939875988722171 $208 $424 forward 7 unknown #
point $-1 46.732383190404988 26.31999996416052 -4.7939875988722171 #
point $-1 46.732383190404988 -26.31999996416052 -4.7939875988722171 #
loop $-1 $-1 $221 $213 #
plane-surface $-1 0 0 7.7939875988722171 0 0 1 1 0 0 forward_v I I I I #
coedge $-1 $330 $216 $218 $334 reversed $124 $-1 #
coedge $-1 $216 $329 $425 $426 reversed $124 $-1 #
coedge $-1 $224 $219 $216 $332 forward $214 $-1 #
edge $-1 $335 -48.905749847770736 $427 -43.028508717382792 $331 $428 forward 7 unknown #
coedge $-1 $218 $217 $338 $429 reversed $77 $-1 #
edge $-1 $430 45.077403763262403 $335 52.63999992832106 $329 $431 forward 7 unknown #
vertex $-1 $220 $432 #
straight-curve $-1 -15.119594721732375 26.31999996416052 1.9167464684842628 -1 0 0 I I #
coedge $-1 $425 $221 $224 $342 forward $327 $-1 #
coedge $-1 $221 $425 $333 $429 forward $327 $-1 #
vertex $-1 $222 $433 #
straight-curve $-1 -23.126667625257294 32.914170833577124 7.7939875988722207 0 1 0 I I #
straight-curve $-1 -23.126667625257294 -6.8074248376590987 42.825710259485234 0 -0.62932038083071107 0.77714596973225614 I I #
edge $-1 $225 23.126667625257294 $427 37.351711261672207 $224 $434 forward 7 unknown #
point $-1 -23.126667625257294 26.31999996416052 7.7939875988722171 #
point $-1 -23.126667625257294 26.319999964160516 1.9167464684842699 #
edge $-1 $435 1 $435 0 $228 $-1 forward 7 unknown #
vertex $-1 $229 $436 #
ellipse-curve $-1 -33.287413079839368 21.372333672632941 2.7758268391280656 0 0.77714596973225614 0.62932038083071107 1.5 0 0 1 I I #
point $-1 -31.787413079839368 23.940352014828743 4.855367033678256 #
edge $-1 $437 1 $437 0 $232 $-1 forward 7 unknown #
vertex $-1 $233 $438 #
ellipse-curve $-1 -27.190965807090123 21.372333672632941 2.7758268391280656 0 0.77714596973225614 0.62932038083071107 1.5 0 0 1 I I #
point $-1 -25.690965807090123 23.940352014828743 4.855367033678256 #
plane-surface $-1 0 -26.31999996416052 0 0 1 0 0 0 1 forward_v I I I I #
coedge $-1 $364 $363 $356 $439 forward $237 $-1 #
coedge $-1 $356 $239 $241 $360 reversed $146 $-1 #
coedge $-1 $239 $355 $354 $439 reversed $146 $-1 #
coedge $-1 $247 $242 $239 $358 forward $248 $-1 #
edge $-1 $361 -24.497124992360128 $440 -18.613446426309782 $357 $441 forward 7 unknown #
coedge $-1 $241 $240 $364 $442 reversed $91 $-1 #
edge $-1 $443 -7.015482282047877 $361 6.5905034233925976e-015 $355 $444 forward 7 unknown #
vertex $-1 $243 $445 #
straight-curve $-1 1.0246880413039712 -26.31999996416052 1.9103090328218708 1 0 0 I I #
coedge $-1 $354 $244 $247 $368 forward $237 $-1 #
coedge $-1 $244 $354 $359 $442 forward $237 $-1 #
vertex $-1 $245 $446 #
straight-curve $-1 -8.874577413034956 -52.353074707881483 7.7939875988722171 0 -1 0 I I #
straight-curve $-1 -8.874577413034956 -26.319999964160516 1.9103090328218784 0 0.54463902268945019 0.83867057594974714 I I #
edge $-1 $249 -8.874577413034956 $440 12.973329578250841 $247 $447 forward 7 unknown #
point $-1 -8.874577413034956 -26.31999996416052 7.7939875988722171 #
point $-1 -8.874577413034956 -26.31999996416052 1.9103090328218728 #
edge $-1 $448 1 $448 0 $252 $-1 forward 7 unknown #
vertex $-1 $253 $449 #
ellipse-curve $-1 2.0493760826079424 -21.195829283342565 2.765135528335263 0 -0.83867057594974714 0.54463902268945019 1.5 0 0 1 I I #
point $-1 3.5493760826079424 -24.409547257265665 4.8521483158470495 #
plane-surface $-1 46.732383190404981 0 0 -1 0 0 0 0 1 forward_v I I I I #
coedge $-1 $261 $259 $263 $380 reversed $161 $-1 #
edge $-1 $274 -7.7939875988722171 $382 7.7939875988722171 $273 $450 forward 7 unknown #
vertex $-1 $380 $451 #
straight-curve $-1 -46.732383190404981 -26.31999996416052 0 0 0 -1 I I #
edge $-1 $378 -26.31999996416052 $382 26.31999996416052 $376 $452 forward 7 unknown #
straight-curve $-1 0 -26.31999996416052 -7.7939875988722171 -1 0 0 I I #
vertex $-1 $266 $453 #
straight-curve $-1 0 26.31999996416052 -7.7939875988722171 1 0 0 I I #
point $-1 46.732383190404981 26.31999996416052 -7.7939875988722171 #
point $-1 46.732383190404981 -26.31999996416052 -7.7939875988722171 #
straight-curve $-1 -46.732383190404981 0 7.7939875988722171 0 -1 0 I I #
point $-1 -46.732383190404981 26.31999996416052 7.7939875988722171 #
point $-1 -46.732383190404981 -26.31999996416052 7.7939875988722171 #
straight-curve $-1 46.732383190404981 -26.31999996416052 0 0 0 -1 I I #
straight-curve $-1 46.732383190404981 26.31999996416052 0 0 0 -1 I I #
plane-surface $-1 0 26.31999996416052 0 0 -1 0 0 0 -1 forward_v I I I I #
coedge $-1 $287 $286 $454 $455 forward $108 $-1 #
edge $-1 $290 37.3517112616722 $456 46.732383190404981 $289 $457 forward 7 unknown #
coedge $-1 $295 $294 $287 $395 reversed $296 $-1 #
edge $-1 $458 -46.732383190404981 $396 -37.3517112616722 $394 $459 forward 7 unknown #
vertex $-1 $302 $460 #
straight-curve $-1 -37.3517112616722 0 -7.7939875988722171 0 -1 0 I I #
point $-1 -37.3517112616722 -26.31999996416052 -7.7939875988722171 #
coedge $-1 $454 $292 $295 $402 forward $284 $-1 #
coedge $-1 $292 $454 $299 $404 reversed $284 $-1 #
straight-curve $-1 -46.732383190404981 0 -4.7939875988722171 0 1 0 I I #
edge $-1 $297 4.7939875988722171 $458 7.7939875988722171 $295 $461 forward 7 unknown #
point $-1 -46.732383190404981 26.31999996416052 -4.7939875988722171 #
edge $-1 $300 4.7939875988722171 $456 7.7939875988722171 $400 $462 forward 7 unknown #
point $-1 -46.732383190404981 -26.31999996416052 -4.7939875988722171 #
straight-curve $-1 -37.3517112616722 26.31999996416052 -3.1469937994361086 0 0 -1 I I #
plane-surface $-1 46.732383190404981 0 0 -1 0 0 0 0 1 forward_v I I I I #
coedge $-1 $419 $308 $314 $415 forward $196 $-1 #
coedge $-1 $308 $419 $410 $463 forward $196 $-1 #
coedge $-1 $310 $309 $409 $463 reversed $116 $-1 #
edge $-1 $320 1.6469937994361086 $412 4.6469937994361086 $309 $464 forward 7 unknown #
vertex $-1 $312 $465 #
straight-curve $-1 37.351711261672207 0 -7.7939875988722171 0 1 0 I I #
straight-curve $-1 37.351711261672207 0 -4.7939875988722171 0 -1 0 I I #
edge $-1 $315 37.351711261672207 $423 46.732383190404981 $314 $466 forward 7 unknown #
point $-1 37.351711261672207 26.31999996416052 -7.7939875988722171 #
point $-1 37.351711261672207 26.31999996416052 -4.7939875988722171 #
point $-1 37.351711261672207 -26.31999996416052 -4.7939875988722171 #
coedge $-1 $409 $408 $322 $420 forward $196 $-1 #
edge $-1 $423 -26.31999996416052 $421 26.31999996416052 $322 $467 forward 7 unknown #
vertex $-1 $323 $468 #
straight-curve $-1 46.732383190404981 -26.31999996416052 0 0 0 -1 I I #
vertex $-1 $420 $469 #
straight-curve $-1 46.732383190404981 26.31999996416052 0 0 0 -1 I I #
coedge $-1 $338 $337 $330 $426 forward $327 $-1 #
edge $-1 $427 6.5941708694166046 $430 11.3534667680802 $425 $470 forward 7 unknown #
vertex $-1 $426 $471 #
straight-curve $-1 -37.351711261672207 26.31999996416052 50.822496316255005 0 0 1 I I #
edge $-1 $430 -22.232116539939831 $339 -8.0070729035249197 $338 $472 forward 7 unknown #
vertex $-1 $429 $473 #
straight-curve $-1 -37.351711261672207 -6.8074248376590987 42.825710259485234 0 0.62932038083071107 -0.77714596973225614 I I #
point $-1 -37.351711261672207 26.319999964160516 1.9167464684842699 #
point $-1 -23.126667625257294 21.560704065496925 7.7939875988722207 #
straight-curve $-1 0 26.31999996416052 7.7939875988722171 -1 0 0 I I #
vertex $-1 $345 $474 #
point $-1 -31.787413079839368 21.372333672632941 2.7758268391280656 #
vertex $-1 $349 $475 #
point $-1 -25.690965807090123 21.372333672632941 2.7758268391280656 #
edge $-1 $440 26.033074743720963 $443 29.853980157510676 $354 $476 forward 7 unknown #
vertex $-1 $358 $477 #
straight-curve $-1 12.973329578250841 -26.319999964160516 26.407434025181999 0 0 1 I I #
edge $-1 $443 -11.948641536946869 $365 9.8992654543389271 $364 $478 forward 7 unknown #
vertex $-1 $442 $479 #
straight-curve $-1 12.973329578250841 -26.319999964160516 1.9103090328218784 0 -0.54463902268945019 -0.83867057594974714 I I #
point $-1 12.973329578250841 -26.31999996416052 1.9103090328218728 #
point $-1 -8.874577413034956 -22.499094550370806 7.7939875988722171 #
straight-curve $-1 0 -26.31999996416052 7.7939875988722171 1 0 0 I I #
vertex $-1 $371 $480 #
point $-1 3.5493760826079424 -21.195829283342565 2.765135528335263 #
straight-curve $-1 -46.732383190404981 26.31999996416052 0 0 0 -1 I I #
point $-1 -46.732383190404981 -26.31999996416052 -7.7939875988722171 #
straight-curve $-1 -46.732383190404981 0 -7.7939875988722171 0 1 0 I I #
point $-1 -46.732383190404981 26.31999996416052 -7.7939875988722171 #
coedge $-1 $400 $399 $392 $455 reversed $284 $-1 #
edge $-1 $456 -26.31999996416052 $458 26.31999996416052 $454 $481 forward 7 unknown #
vertex $-1 $455 $482 #
straight-curve $-1 0 -26.31999996416052 -7.7939875988722171 -1 0 0 I I #
vertex $-1 $395 $483 #
straight-curve $-1 0 26.31999996416052 -7.7939875988722171 1 0 0 I I #
point $-1 -37.3517112616722 26.31999996416052 -7.7939875988722171 #
straight-curve $-1 -46.732383190404981 26.31999996416052 0 0 0 -1 I I #
straight-curve $-1 -46.732383190404981 -26.31999996416052 0 0 0 -1 I I #
edge $-1 $421 -46.732383190404981 $412 -37.351711261672207 $410 $484 forward 7 unknown #
straight-curve $-1 37.351711261672207 -26.31999996416052 -3.1469937994361086 0 0 -1 I I #
point $-1 37.351711261672207 -26.31999996416052 -7.7939875988722171 #
straight-curve $-1 0 26.31999996416052 -7.7939875988722171 1 0 0 I I #
straight-curve $-1 46.732383190404981 0 -7.7939875988722171 0 -1 0 I I #
point $-1 46.732383190404981 -26.31999996416052 -7.7939875988722171 #
point $-1 46.732383190404981 26.31999996416052 -7.7939875988722171 #
straight-curve $-1 -37.351711261672207 32.914170833577124 7.7939875988722207 0 -1 0 I I #
point $-1 -37.351711261672207 26.31999996416052 7.7939875988722171 #
straight-curve $-1 -15.119594721732375 21.560704065496928 7.7939875988722207 1 0 0 I I #
point $-1 -37.351711261672207 21.560704065496925 7.7939875988722207 #
point $-1 -33.287413079839368 20.206614718034558 1.8318462678819991 #
point $-1 -27.190965807090123 20.206614718034558 1.8318462678819991 #
straight-curve $-1 12.973329578250841 -52.353074707881483 7.7939875988722171 0 1 0 I I #
point $-1 12.973329578250841 -26.31999996416052 7.7939875988722171 #
straight-curve $-1 1.0246880413039712 -22.49909455037081 7.7939875988722171 -1 0 0 I I #
point $-1 12.973329578250841 -22.499094550370806 7.7939875988722171 #
point $-1 2.0493760826079424 -19.937823419417942 1.9481769943010876 #
straight-curve $-1 -46.732383190404981 0 -7.7939875988722171 0 1 0 I I #
point $-1 -46.732383190404981 -26.31999996416052 -7.7939875988722171 #
point $-1 -46.732383190404981 26.31999996416052 -7.7939875988722171 #
straight-curve $-1 0 -26.31999996416052 -7.7939875988722171 -1 0 0 I I #
End-of-ACIS-data 