500 0 7 0           
7 Unknown 11 ACIS 5.0 NT 24 Thu Mar 25 23:29:32 1999 
-1 9.9999999999999995e-007 1e-010 
body $-1 $7 $-1 $8 #
body $-1 $9 $-1 $10 #
body $-1 $11 $-1 $12 #
body $-1 $13 $-1 $14 #
body $-1 $15 $-1 $16 #
body $-1 $17 $-1 $18 #
body $-1 $19 $-1 $20 #
lump $-1 $-1 $21 $0 #
transform $-1 1 0 0 0 1 0 0 0 1 65.319376201666302 38.071705510113944 9.4784801541309101 1 rotate no_reflect no_shear #
lump $-1 $-1 $22 $1 #
transform $-1 1 0 0 0 1 0 0 0 1 65.319376201666302 38.071705510113944 9.4784801541309101 1 rotate no_reflect no_shear #
lump $-1 $-1 $23 $2 #
transform $-1 1 0 0 0 1 0 0 0 1 65.319376201666302 38.071705510113944 9.4784801541309101 1 rotate no_reflect no_shear #
lump $-1 $-1 $24 $3 #
transform $-1 1 0 0 0 1 0 0 0 1 65.319376201666302 38.071705510113944 9.4784801541309101 1 rotate no_reflect no_shear #
lump $-1 $-1 $25 $4 #
transform $-1 1 0 0 0 1 0 0 0 1 65.319376201666302 38.071705510113944 9.4784801541309101 1 rotate no_reflect no_shear #
lump $-1 $-1 $26 $5 #
transform $-1 1 0 0 0 1 0 0 0 1 65.319376201666302 38.071705510113944 9.4784801541309101 1 rotate no_reflect no_shear #
lump $-1 $-1 $27 $6 #
transform $-1 1 0 0 0 1 0 0 0 1 65.319376201666302 38.071705510113944 9.4784801541309101 1 rotate no_reflect no_shear #
shell $-1 $-1 $-1 $28 $-1 $7 #
shell $-1 $-1 $-1 $29 $-1 $9 #
shell $-1 $-1 $-1 $30 $-1 $11 #
shell $-1 $-1 $-1 $31 $-1 $13 #
shell $-1 $-1 $-1 $32 $-1 $15 #
shell $-1 $-1 $-1 $33 $-1 $17 #
shell $-1 $-1 $-1 $34 $-1 $19 #
face $-1 $35 $36 $21 $-1 $37 forward single #
face $-1 $38 $39 $22 $-1 $40 forward single #
face $-1 $41 $42 $23 $-1 $43 reversed single #
face $-1 $44 $45 $24 $-1 $46 reversed single #
face $-1 $47 $48 $25 $-1 $49 forward single #
face $-1 $50 $51 $26 $-1 $52 reversed single #
face $-1 $53 $54 $27 $-1 $55 forward single #
face $-1 $56 $57 $21 $-1 $58 reversed single #
loop $-1 $-1 $59 $28 #
plane-surface $-1 0 0 9.4784801541309101 0 0 1 1 0 0 forward_v I I I I #
face $-1 $60 $61 $22 $-1 $62 reversed single #
loop $-1 $-1 $63 $29 #
plane-surface $-1 0 -34.33649818311342 -6.4784801541309101 0 0 1 1 0 0 forward_v I I I I #
face $-1 $64 $65 $23 $-1 $66 reversed single #
loop $-1 $-1 $67 $30 #
plane-surface $-1 -59.976092278882241 30.162944053342912 0 0 1 0 0 0 1 forward_v I I I I #
face $-1 $68 $69 $24 $-1 $70 reversed single #
loop $-1 $-1 $71 $31 #
plane-surface $-1 78.206963466989549 -14.092564136106533 189.03727915585199 0 -1 0 -0.75470958851134928 0 -0.65605901945558964 forward_v I I I I #
face $-1 $72 $73 $25 $-1 $74 forward single #
loop $-1 $75 $76 $32 #
cone-surface $-1 61.884799351872957 -22.346927496109714 5.9134857765193232 -0.75470958851134928 0 -0.65605901945558964 0.98408852918338452 0 -1.132064382767024 1 I I 0 1 1.5 forward I I I I #
face $-1 $77 $78 $26 $-1 $79 reversed single #
loop $-1 $-1 $80 $33 #
plane-surface $-1 -163.91369527162149 -30.601290856112897 90.442960085896814 0 1 0 -0.75470958851134928 0 0.65605901945558964 forward_v I I I I #
face $-1 $81 $82 $27 $-1 $83 forward single #
loop $-1 $84 $85 $34 #
cone-surface $-1 -61.884799351872957 -22.346927496109714 5.9134857765193285 0.75470958851134928 0 -0.65605901945558964 0.98408852918338452 0 1.132064382767024 1 I I 0 1 1.5 forward I I I I #
face $-1 $86 $87 $21 $-1 $88 reversed single #
loop $-1 $-1 $89 $35 #
plane-surface $-1 0 0 -9.4784801541309101 0 0 1 1 0 0 forward_v I I I I #
coedge $-1 $90 $91 $92 $93 forward $36 $-1 #
face $-1 $94 $95 $22 $-1 $96 reversed single #
loop $-1 $-1 $97 $38 #
plane-surface $-1 0 -30.601290856112897 -7.9784801541309101 0 -1 0 0 0 -1 forward_v I I I I #
coedge $-1 $98 $99 $100 $101 reversed $39 $-1 #
face $-1 $102 $103 $23 $-1 $104 reversed single #
loop $-1 $-1 $105 $41 #
plane-surface $-1 -62.583129920079323 34.117324781728428 0 1 0 0 0 0 -1 forward_v I I I I #
coedge $-1 $106 $107 $108 $109 forward $42 $-1 #
face $-1 $110 $111 $24 $-1 $112 reversed single #
loop $-1 $-1 $113 $44 #
plane-surface $-1 -20.387355602965641 -22.346927496109714 103.33054735122005 0.75470958851134928 0 0.65605901945558964 0.65605901945558964 0 -0.75470958851134928 forward_v I I I I #
coedge $-1 $114 $115 $116 $117 reversed $45 $-1 #
face $-1 $-1 $118 $25 $-1 $119 forward single #
loop $-1 $120 $121 $47 #
cone-surface $-1 59.945378588335913 -22.346927496109714 4.2275730707490702 -0.75470958851134928 0 -0.65605901945558964 0.49204426459169226 0 -0.56603219138351202 1 I I -0.70710678118654757 0.70710678118654757 0.75 forward I I I I #
loop $-1 $-1 $122 $32 #
coedge $-1 $76 $76 $123 $124 reversed $48 $-1 #
face $-1 $125 $126 $26 $-1 $127 reversed single #
loop $-1 $-1 $128 $50 #
plane-surface $-1 -65.319376201666302 -22.346927496109714 4.7362282812648715 -0.75470958851134928 0 0.65605901945558964 0.65605901945558964 0 0.75470958851134928 forward_v I I I I #
coedge $-1 $129 $130 $131 $132 reversed $51 $-1 #
face $-1 $-1 $133 $27 $-1 $134 forward single #
loop $-1 $135 $136 $53 #
cone-surface $-1 -59.945378588335913 -22.346927496109714 4.2275730707490755 0.75470958851134928 0 -0.65605901945558964 0.49204426459169226 0 0.56603219138351202 1 I I -0.70710678118654757 0.70710678118654757 0.75 forward I I I I #
loop $-1 $-1 $137 $34 #
coedge $-1 $85 $85 $138 $139 reversed $54 $-1 #
face $-1 $140 $141 $21 $-1 $142 reversed single #
loop $-1 $-1 $143 $56 #
plane-surface $-1 0 -38.071705510113944 0 0 1 0 0 0 1 forward_v I I I I #
coedge $-1 $144 $145 $146 $147 forward $57 $-1 #
coedge $-1 $148 $59 $149 $150 forward $36 $-1 #
coedge $-1 $59 $148 $151 $152 forward $36 $-1 #
coedge $-1 $153 $154 $59 $93 reversed $155 $-1 #
edge $-1 $156 -38.071705510113944 $157 38.071705510113944 $92 $158 forward 7 unknown #
face $-1 $159 $160 $22 $-1 $161 reversed single #
loop $-1 $-1 $162 $60 #
plane-surface $-1 0 0 -9.4784801541309101 0 0 1 1 0 0 forward_v I I I I #
coedge $-1 $163 $164 $165 $166 reversed $61 $-1 #
coedge $-1 $167 $63 $164 $168 forward $39 $-1 #
coedge $-1 $63 $167 $169 $170 reversed $39 $-1 #
coedge $-1 $171 $165 $63 $101 forward $160 $-1 #
edge $-1 $172 13.433041764556187 $173 20.903456418557234 $100 $174 forward 7 unknown #
face $-1 $175 $176 $23 $-1 $177 reversed single #
loop $-1 $-1 $178 $64 #
plane-surface $-1 -57.36905463768516 34.117324781728428 0 -1 0 0 0 0 1 forward_v I I I I #
coedge $-1 $179 $180 $181 $182 reversed $65 $-1 #
coedge $-1 $183 $67 $184 $185 reversed $42 $-1 #
coedge $-1 $67 $183 $186 $187 reversed $42 $-1 #
coedge $-1 $180 $179 $67 $109 reversed $65 $-1 #
edge $-1 $188 -9.4784801541309101 $189 9.4784801541309101 $108 $190 forward 7 unknown #
face $-1 $191 $192 $24 $-1 $193 forward single #
loop $-1 $-1 $194 $68 #
plane-surface $-1 78.206963466989549 -30.601290856112897 189.03727915585199 0 1 0 0.75470958851134928 0 0.65605901945558964 forward_v I I I I #
coedge $-1 $195 $196 $197 $198 reversed $69 $-1 #
coedge $-1 $115 $71 $199 $200 reversed $45 $-1 #
coedge $-1 $71 $114 $195 $201 reversed $45 $-1 #
coedge $-1 $197 $202 $71 $117 forward $192 $-1 #
edge $-1 $203 -26.215894468171527 $204 -22.093517912891883 $116 $205 forward 7 unknown #
loop $-1 $-1 $123 $72 #
plane-surface $-1 -20.387355602965641 -22.346927496109714 103.33054735122005 0.75470958851134928 0 0.65605901945558964 0.65605901945558964 0 -0.75470958851134928 forward_v I I I I #
loop $-1 $-1 $206 $47 #
coedge $-1 $121 $121 $122 $207 reversed $73 $-1 #
coedge $-1 $122 $122 $121 $207 forward $75 $-1 #
coedge $-1 $123 $123 $76 $124 forward $118 $-1 #
edge $-1 $208 0 $208 6.2831853071796004 $123 $209 forward 7 unknown #
face $-1 $210 $211 $26 $-1 $212 reversed single #
loop $-1 $-1 $213 $77 #
plane-surface $-1 -163.91369527162149 -14.092564136106533 90.442960085896814 0 -1 0 0.75470958851134928 0 -0.65605901945558964 forward_v I I I I #
coedge $-1 $214 $215 $216 $217 reversed $78 $-1 #
coedge $-1 $130 $80 $218 $219 reversed $51 $-1 #
coedge $-1 $80 $129 $214 $220 reversed $51 $-1 #
coedge $-1 $216 $221 $80 $132 forward $222 $-1 #
edge $-1 $223 16.637471434144445 $224 20.759847989424081 $131 $225 forward 7 unknown #
loop $-1 $-1 $138 $81 #
plane-surface $-1 -65.319376201666302 -22.346927496109714 4.7362282812648715 -0.75470958851134928 0 0.65605901945558964 0.65605901945558964 0 0.75470958851134928 forward_v I I I I #
loop $-1 $-1 $226 $53 #
coedge $-1 $136 $136 $137 $227 reversed $82 $-1 #
coedge $-1 $137 $137 $136 $227 forward $84 $-1 #
coedge $-1 $138 $138 $85 $139 forward $133 $-1 #
edge $-1 $228 0 $228 6.2831853071796004 $138 $229 forward 7 unknown #
face $-1 $230 $231 $21 $-1 $232 reversed single #
loop $-1 $-1 $233 $86 #
plane-surface $-1 -65.319376201666302 0 0 1 0 0 0 0 -1 forward_v I I I I #
coedge $-1 $234 $151 $235 $236 forward $87 $-1 #
coedge $-1 $237 $89 $234 $238 forward $57 $-1 #
coedge $-1 $89 $237 $239 $240 forward $57 $-1 #
coedge $-1 $154 $153 $89 $147 reversed $155 $-1 #
edge $-1 $241 -38.071705510113944 $242 38.071705510113944 $146 $243 forward 7 unknown #
coedge $-1 $91 $90 $244 $245 forward $36 $-1 #
coedge $-1 $246 $247 $90 $150 reversed $231 $-1 #
edge $-1 $157 -65.319376201666302 $248 65.319376201666302 $149 $249 forward 7 unknown #
coedge $-1 $143 $250 $91 $152 reversed $87 $-1 #
edge $-1 $251 -65.319376201666302 $156 65.319376201666302 $151 $252 forward 7 unknown #
coedge $-1 $146 $92 $250 $253 forward $155 $-1 #
coedge $-1 $92 $146 $246 $254 reversed $155 $-1 #
loop $-1 $-1 $153 $230 #
vertex $-1 $93 $255 #
vertex $-1 $93 $256 #
straight-curve $-1 65.319376201666302 0 9.4784801541309101 0 1 0 I I #
face $-1 $257 $258 $22 $-1 $259 reversed single #
loop $-1 $-1 $165 $94 #
plane-surface $-1 65.319376201666302 0 0 -1 0 0 0 0 1 forward_v I I I I #
coedge $-1 $260 $261 $163 $262 forward $95 $-1 #
coedge $-1 $263 $97 $162 $262 reversed $61 $-1 #
coedge $-1 $97 $263 $98 $168 reversed $61 $-1 #
coedge $-1 $100 $264 $97 $166 forward $160 $-1 #
edge $-1 $265 -5.489240077065455 $172 -2.489240077065455 $165 $266 forward 7 unknown #
coedge $-1 $99 $98 $267 $268 reversed $39 $-1 #
edge $-1 $172 -65.319376201666302 $269 65.319376201666302 $164 $270 forward 7 unknown #
coedge $-1 $271 $272 $99 $170 forward $258 $-1 #
edge $-1 $173 -65.319376201666302 $273 65.319376201666302 $169 $274 forward 7 unknown #
coedge $-1 $264 $100 $272 $275 forward $160 $-1 #
vertex $-1 $101 $276 #
vertex $-1 $275 $277 #
straight-curve $-1 65.319376201666302 -17.16824909155671 -6.4784801541309101 0 -1 0 I I #
face $-1 $278 $279 $23 $-1 $280 forward single #
loop $-1 $-1 $281 $102 #
plane-surface $-1 0 0 -9.4784801541309101 0 0 1 1 0 0 forward_v I I I I #
coedge $-1 $282 $283 $183 $284 forward $103 $-1 #
coedge $-1 $108 $105 $285 $286 reversed $65 $-1 #
coedge $-1 $105 $108 $287 $288 reversed $65 $-1 #
coedge $-1 $289 $290 $105 $182 forward $291 $-1 #
edge $-1 $292 -9.4784801541309101 $293 9.4784801541309101 $181 $294 forward 7 unknown #
coedge $-1 $107 $106 $178 $284 reversed $42 $-1 #
coedge $-1 $285 $281 $106 $185 forward $176 $-1 #
edge $-1 $295 27.381008498244039 $189 32.595083780638205 $184 $296 forward 7 unknown #
coedge $-1 $297 $287 $107 $187 forward $279 $-1 #
edge $-1 $188 -32.595083780638205 $298 -27.381008498244039 $186 $299 forward 7 unknown #
vertex $-1 $187 $300 #
vertex $-1 $185 $301 #
straight-curve $-1 -62.583129920079323 30.162944053342912 0 0 0 -1 I I #
face $-1 $-1 $302 $24 $-1 $303 reversed single #
loop $-1 $-1 $116 $110 #
plane-surface $-1 0 0 9.4784801541309101 0 0 1 1 0 0 forward_v I I I I #
coedge $-1 $304 $305 $306 $307 reversed $111 $-1 #
coedge $-1 $308 $113 $115 $201 forward $69 $-1 #
coedge $-1 $113 $308 $304 $309 forward $69 $-1 #
coedge $-1 $306 $116 $113 $198 forward $192 $-1 #
edge $-1 $204 2.9191003880516764 $310 19.42782710805804 $197 $311 forward 7 unknown #
coedge $-1 $312 $313 $114 $200 forward $302 $-1 #
edge $-1 $314 -89.782411296661138 $203 -85.040159423795089 $199 $315 forward 7 unknown #
edge $-1 $204 124.35520712306125 $314 130.63875240333263 $115 $316 forward 7 unknown #
coedge $-1 $116 $306 $312 $317 forward $192 $-1 #
vertex $-1 $117 $318 #
vertex $-1 $117 $319 #
straight-curve $-1 39.103481733494775 -14.092564136106533 9.4784801541309065 -1 0 0 I I #
coedge $-1 $206 $206 $-1 $320 reversed $120 $-1 #
edge $-1 $321 0 $321 6.2831853071796004 $121 $322 forward 7 unknown #
vertex $-1 $124 $323 #
ellipse-curve $-1 63.25818792402648 -22.346927496109714 7.1073542176978783 0.75470958851134928 0 0.65605901945558964 0.98408852918338452 0 -1.132064382767024 1 I I #
face $-1 $-1 $222 $26 $-1 $324 forward single #
loop $-1 $-1 $325 $125 #
plane-surface $-1 -65.319376201666302 0 0 1 0 0 0 0 -1 forward_v I I I I #
coedge $-1 $326 $327 $328 $329 reversed $126 $-1 #
coedge $-1 $330 $128 $130 $220 forward $78 $-1 #
coedge $-1 $128 $330 $326 $331 forward $78 $-1 #
coedge $-1 $328 $131 $128 $217 forward $222 $-1 #
edge $-1 $224 -19.42782710805804 $332 -2.9191003880516764 $216 $333 forward 7 unknown #
coedge $-1 $334 $335 $129 $219 forward $211 $-1 #
edge $-1 $336 -40.485251761683536 $223 -35.742999888817494 $218 $337 forward 7 unknown #
edge $-1 $224 -6.2835452802713752 $336 0 $130 $338 forward 7 unknown #
coedge $-1 $131 $328 $334 $339 forward $222 $-1 #
loop $-1 $-1 $328 $210 #
vertex $-1 $219 $340 #
vertex $-1 $132 $341 #
straight-curve $-1 -81.956847635810746 -30.601290856112897 9.4784801541309065 1 0 0 I I #
coedge $-1 $226 $226 $-1 $342 reversed $135 $-1 #
edge $-1 $343 0 $343 6.2831853071796004 $136 $344 forward 7 unknown #
vertex $-1 $139 $345 #
ellipse-curve $-1 -63.258187924026487 -22.346927496109714 7.1073542176978881 -0.75470958851134928 0 0.65605901945558964 0.98408852918338452 0 1.132064382767024 1 I I #
face $-1 $-1 $155 $21 $-1 $346 reversed single #
loop $-1 $-1 $246 $140 #
plane-surface $-1 0 38.071705510113944 0 0 -1 0 0 0 -1 forward_v I I I I #
coedge $-1 $347 $244 $247 $348 forward $141 $-1 #
coedge $-1 $250 $143 $144 $238 reversed $87 $-1 #
coedge $-1 $244 $347 $143 $236 reversed $141 $-1 #
edge $-1 $251 -9.4784801541309101 $349 9.4784801541309101 $235 $350 forward 7 unknown #
coedge $-1 $145 $144 $347 $351 forward $57 $-1 #
edge $-1 $242 -65.319376201666302 $349 65.319376201666302 $234 $352 forward 7 unknown #
coedge $-1 $247 $246 $145 $240 reversed $231 $-1 #
edge $-1 $353 -65.319376201666302 $241 65.319376201666302 $239 $354 forward 7 unknown #
vertex $-1 $147 $355 #
vertex $-1 $253 $356 #
straight-curve $-1 65.319376201666302 0 -9.4784801541309101 0 -1 0 I I #
coedge $-1 $233 $235 $148 $245 reversed $141 $-1 #
edge $-1 $248 -38.071705510113944 $251 38.071705510113944 $244 $357 forward 7 unknown #
coedge $-1 $239 $149 $154 $254 forward $231 $-1 #
coedge $-1 $149 $239 $233 $348 reversed $231 $-1 #
vertex $-1 $150 $358 #
straight-curve $-1 0 38.071705510113944 9.4784801541309101 -1 0 0 I I #
coedge $-1 $151 $234 $153 $253 reversed $87 $-1 #
vertex $-1 $245 $359 #
straight-curve $-1 0 -38.071705510113944 9.4784801541309101 1 0 0 I I #
edge $-1 $156 -9.4784801541309101 $242 9.4784801541309101 $153 $360 forward 7 unknown #
edge $-1 $157 -9.4784801541309101 $241 9.4784801541309101 $154 $361 forward 7 unknown #
point $-1 65.319376201666302 -38.071705510113944 9.4784801541309101 #
point $-1 65.319376201666302 38.071705510113944 9.4784801541309101 #
face $-1 $-1 $362 $22 $-1 $363 reversed single #
loop $-1 $-1 $169 $159 #
plane-surface $-1 0 -38.071705510113944 0 0 1 0 0 0 1 forward_v I I I I #
coedge $-1 $364 $162 $264 $365 forward $95 $-1 #
coedge $-1 $162 $364 $366 $367 forward $95 $-1 #
edge $-1 $368 -65.319376201666302 $265 65.319376201666302 $162 $369 forward 7 unknown #
coedge $-1 $164 $163 $370 $371 reversed $61 $-1 #
coedge $-1 $165 $171 $260 $365 reversed $160 $-1 #
vertex $-1 $365 $372 #
straight-curve $-1 65.319376201666302 -30.601290856112897 -3.989240077065455 0 0 1 I I #
coedge $-1 $370 $373 $167 $268 forward $362 $-1 #
edge $-1 $273 -20.903456418557234 $269 -13.433041764556187 $267 $374 forward 7 unknown #
vertex $-1 $268 $375 #
straight-curve $-1 0 -30.601290856112897 -6.4784801541309101 -1 0 0 I I #
coedge $-1 $376 $169 $373 $377 forward $258 $-1 #
coedge $-1 $169 $376 $171 $275 reversed $258 $-1 #
vertex $-1 $377 $378 #
straight-curve $-1 0 -38.071705510113944 -6.4784801541309101 -1 0 0 I I #
edge $-1 $173 6.4784801541309101 $379 9.4784801541309101 $171 $380 forward 7 unknown #
point $-1 65.319376201666302 -30.601290856112897 -6.4784801541309101 #
point $-1 65.319376201666302 -38.071705510113944 -6.4784801541309101 #
face $-1 $-1 $291 $23 $-1 $381 reversed single #
loop $-1 $-1 $297 $175 #
plane-surface $-1 0 0 9.4784801541309101 0 0 1 1 0 0 forward_v I I I I #
coedge $-1 $184 $382 $282 $383 forward $176 $-1 #
coedge $-1 $384 $178 $281 $383 reversed $103 $-1 #
coedge $-1 $178 $384 $297 $385 reversed $103 $-1 #
edge $-1 $298 -9.4784801541309101 $295 9.4784801541309101 $178 $386 forward 7 unknown #
coedge $-1 $382 $184 $179 $286 forward $176 $-1 #
edge $-1 $189 13.104281662478698 $292 21.01304311924973 $285 $387 forward 7 unknown #
coedge $-1 $186 $388 $180 $288 forward $279 $-1 #
edge $-1 $293 -21.01304311924973 $188 -13.104281662478698 $287 $389 forward 7 unknown #
coedge $-1 $390 $181 $388 $391 reversed $291 $-1 #
coedge $-1 $181 $390 $382 $392 reversed $291 $-1 #
loop $-1 $-1 $390 $278 #
vertex $-1 $392 $393 #
vertex $-1 $182 $394 #
straight-curve $-1 -62.583129920079323 38.071705510113944 0 0 0 1 I I #
vertex $-1 $185 $395 #
straight-curve $-1 -29.988046139441121 30.162944053342912 -9.4784801541309101 -1 0 0 I I #
coedge $-1 $388 $186 $283 $385 forward $279 $-1 #
vertex $-1 $187 $396 #
straight-curve $-1 -29.988046139441121 30.162944053342912 9.4784801541309101 1 0 0 I I #
point $-1 -62.583129920079323 30.162944053342912 9.4784801541309101 #
point $-1 -62.583129920079323 30.162944053342912 -9.4784801541309101 #
loop $-1 $-1 $199 $191 #
plane-surface $-1 65.319376201666302 0 0 -1 0 0 0 0 1 forward_v I I I I #
coedge $-1 $305 $194 $196 $309 reversed $111 $-1 #
coedge $-1 $194 $304 $397 $398 reversed $111 $-1 #
coedge $-1 $202 $197 $194 $307 forward $192 $-1 #
edge $-1 $310 22.093517912891883 $399 26.215894468171527 $306 $400 forward 7 unknown #
coedge $-1 $196 $195 $313 $401 reversed $69 $-1 #
edge $-1 $402 -130.63875240333263 $310 -124.35520712306125 $304 $403 forward 7 unknown #
vertex $-1 $198 $404 #
straight-curve $-1 61.196999646386658 -11.173463748054857 9.4784801541308994 0 -1 0 I I #
coedge $-1 $397 $199 $202 $317 reversed $302 $-1 #
coedge $-1 $199 $397 $308 $401 forward $302 $-1 #
vertex $-1 $200 $405 #
straight-curve $-1 65.319376201666302 -14.092564136106533 94.518639577925995 0 0 1 I I #
straight-curve $-1 -20.387355602965641 -14.092564136106533 103.33054735122005 0.65605901945558964 0 -0.75470958851134928 I I #
edge $-1 $399 -30.601290856112897 $203 -14.092564136106533 $312 $406 forward 7 unknown #
point $-1 65.319376201666302 -14.092564136106533 9.4784801541309101 #
point $-1 61.196999646386658 -14.092564136106533 9.4784801541309065 #
edge $-1 $407 1 $407 0 $206 $-1 forward 7 unknown #
vertex $-1 $207 $408 #
ellipse-curve $-1 60.511410779719427 -22.346927496109714 4.7196173353407627 0.75470958851134928 0 0.65605901945558964 0.98408852918338452 0 -1.132064382767024 1 I I #
point $-1 64.242276453209868 -22.346927496109714 5.9752898349308596 #
plane-surface $-1 0 0 9.4784801541309101 0 0 1 1 0 0 forward_v I I I I #
coedge $-1 $335 $334 $327 $409 forward $211 $-1 #
coedge $-1 $327 $213 $215 $331 reversed $126 $-1 #
coedge $-1 $213 $326 $325 $409 reversed $126 $-1 #
coedge $-1 $221 $216 $213 $329 forward $222 $-1 #
edge $-1 $332 -20.759847989424081 $410 -16.637471434144445 $328 $411 forward 7 unknown #
coedge $-1 $215 $214 $335 $412 reversed $78 $-1 #
edge $-1 $413 0 $332 6.2835452802713752 $326 $414 forward 7 unknown #
vertex $-1 $217 $415 #
straight-curve $-1 -61.196999646386665 -11.173463748054857 9.4784801541309083 0 1 0 I I #
coedge $-1 $325 $218 $221 $339 reversed $211 $-1 #
coedge $-1 $218 $325 $330 $412 forward $211 $-1 #
vertex $-1 $219 $416 #
straight-curve $-1 -65.319376201666302 -30.601290856112897 45.221480042948407 0 0 1 I I #
straight-curve $-1 -65.319376201666302 -30.601290856112897 4.7362282812648715 -0.65605901945558964 0 -0.75470958851134928 I I #
edge $-1 $410 14.092564136106533 $223 30.601290856112897 $334 $417 forward 7 unknown #
point $-1 -65.319376201666302 -30.601290856112897 9.4784801541309101 #
point $-1 -61.196999646386665 -30.601290856112897 9.4784801541309101 #
edge $-1 $418 1 $418 0 $226 $-1 forward 7 unknown #
vertex $-1 $227 $419 #
ellipse-curve $-1 -60.511410779719427 -22.346927496109714 4.719617335340768 -0.75470958851134928 0 0.65605901945558964 0.98408852918338452 0 1.132064382767024 1 I I #
point $-1 -62.274099394843098 -22.346927496109714 8.2394186004649121 #
plane-surface $-1 65.319376201666302 0 0 -1 0 0 0 0 1 forward_v I I I I #
coedge $-1 $235 $233 $237 $351 reversed $141 $-1 #
edge $-1 $248 -9.4784801541309101 $353 9.4784801541309101 $247 $420 forward 7 unknown #
vertex $-1 $351 $421 #
straight-curve $-1 -65.319376201666302 -38.071705510113944 0 0 0 -1 I I #
edge $-1 $349 -38.071705510113944 $353 38.071705510113944 $347 $422 forward 7 unknown #
straight-curve $-1 0 -38.071705510113944 -9.4784801541309101 -1 0 0 I I #
vertex $-1 $240 $423 #
straight-curve $-1 0 38.071705510113944 -9.4784801541309101 1 0 0 I I #
point $-1 65.319376201666302 38.071705510113944 -9.4784801541309101 #
point $-1 65.319376201666302 -38.071705510113944 -9.4784801541309101 #
straight-curve $-1 -65.319376201666302 0 9.4784801541309101 0 -1 0 I I #
point $-1 -65.319376201666302 38.071705510113944 9.4784801541309101 #
point $-1 -65.319376201666302 -38.071705510113944 9.4784801541309101 #
straight-curve $-1 65.319376201666302 -38.071705510113944 0 0 0 -1 I I #
straight-curve $-1 65.319376201666302 38.071705510113944 0 0 0 -1 I I #
loop $-1 $-1 $370 $257 #
plane-surface $-1 -65.319376201666302 0 0 1 0 0 0 0 -1 forward_v I I I I #
coedge $-1 $261 $260 $376 $424 forward $95 $-1 #
edge $-1 $265 30.601290856112897 $379 38.071705510113944 $264 $425 forward 7 unknown #
coedge $-1 $373 $370 $261 $367 reversed $362 $-1 #
edge $-1 $426 -38.071705510113944 $368 -30.601290856112897 $366 $427 forward 7 unknown #
vertex $-1 $371 $428 #
straight-curve $-1 0 -30.601290856112897 -9.4784801541309101 1 0 0 I I #
coedge $-1 $366 $267 $263 $371 forward $362 $-1 #
edge $-1 $269 2.489240077065455 $368 5.489240077065455 $370 $429 forward 7 unknown #
point $-1 65.319376201666302 -30.601290856112897 -9.4784801541309101 #
coedge $-1 $267 $366 $271 $377 reversed $362 $-1 #
straight-curve $-1 -65.319376201666302 -17.16824909155671 -6.4784801541309101 0 1 0 I I #
point $-1 -65.319376201666302 -30.601290856112897 -6.4784801541309101 #
coedge $-1 $272 $271 $364 $424 reversed $258 $-1 #
edge $-1 $273 6.4784801541309101 $426 9.4784801541309101 $373 $430 forward 7 unknown #
point $-1 -65.319376201666302 -38.071705510113944 -6.4784801541309101 #
vertex $-1 $275 $431 #
straight-curve $-1 65.319376201666302 -38.071705510113944 0 0 0 -1 I I #
plane-surface $-1 0 38.071705510113944 0 0 -1 0 0 0 -1 forward_v I I I I #
coedge $-1 $281 $285 $290 $392 forward $176 $-1 #
edge $-1 $432 -21.01304311924973 $295 -13.104281662478698 $281 $433 forward 7 unknown #
coedge $-1 $283 $282 $390 $434 reversed $103 $-1 #
edge $-1 $298 13.104281662478698 $435 21.01304311924973 $297 $436 forward 7 unknown #
straight-curve $-1 -57.36905463768516 30.162944053342912 0 0 0 -1 I I #
straight-curve $-1 -62.583129920079323 17.058662390864214 -9.4784801541309101 0 1 0 I I #
coedge $-1 $287 $297 $289 $391 forward $279 $-1 #
straight-curve $-1 -62.583129920079323 17.058662390864214 9.4784801541309101 0 -1 0 I I #
coedge $-1 $290 $289 $384 $434 forward $291 $-1 #
edge $-1 $435 57.36905463768516 $293 62.583129920079323 $289 $437 forward 7 unknown #
edge $-1 $292 -62.583129920079323 $432 -57.36905463768516 $290 $438 forward 7 unknown #
point $-1 -62.583129920079323 38.071705510113944 -9.4784801541309101 #
point $-1 -62.583129920079323 38.071705510113944 9.4784801541309101 #
point $-1 -57.36905463768516 30.162944053342912 -9.4784801541309101 #
point $-1 -57.36905463768516 30.162944053342912 9.4784801541309101 #
coedge $-1 $313 $312 $305 $398 forward $302 $-1 #
edge $-1 $399 85.040159423795089 $402 89.782411296661138 $397 $439 forward 7 unknown #
vertex $-1 $317 $440 #
straight-curve $-1 39.103481733494775 -30.601290856112897 9.4784801541309065 1 0 0 I I #
edge $-1 $402 -19.42782710805804 $314 -2.9191003880516764 $313 $441 forward 7 unknown #
vertex $-1 $401 $442 #
straight-curve $-1 -20.387355602965641 -30.601290856112897 103.33054735122005 -0.65605901945558964 0 0.75470958851134928 I I #
point $-1 61.196999646386658 -30.601290856112897 9.4784801541309065 #
point $-1 65.319376201666302 -14.092564136106533 4.7362282812648573 #
straight-curve $-1 65.319376201666302 0 9.4784801541309101 0 1 0 I I #
vertex $-1 $320 $443 #
point $-1 61.495499308902808 -22.346927496109714 3.5875529525737386 #
edge $-1 $410 35.742999888817494 $413 40.485251761683536 $325 $444 forward 7 unknown #
vertex $-1 $339 $445 #
straight-curve $-1 -81.956847635810746 -14.092564136106533 9.4784801541309065 -1 0 0 I I #
edge $-1 $413 2.9191003880516764 $336 19.42782710805804 $335 $446 forward 7 unknown #
vertex $-1 $412 $447 #
straight-curve $-1 -65.319376201666302 -14.092564136106533 4.7362282812648715 0.65605901945558964 0 0.75470958851134928 I I #
point $-1 -61.196999646386665 -14.092564136106533 9.4784801541309101 #
point $-1 -65.319376201666302 -30.601290856112897 4.7362282812648715 #
straight-curve $-1 -65.319376201666302 0 9.4784801541309101 0 -1 0 I I #
vertex $-1 $342 $448 #
point $-1 -59.527322250536038 -22.346927496109714 5.851681718107792 #
straight-curve $-1 -65.319376201666302 38.071705510113944 0 0 0 -1 I I #
point $-1 -65.319376201666302 -38.071705510113944 -9.4784801541309101 #
straight-curve $-1 -65.319376201666302 0 -9.4784801541309101 0 1 0 I I #
point $-1 -65.319376201666302 38.071705510113944 -9.4784801541309101 #
edge $-1 $379 -65.319376201666302 $426 65.319376201666302 $376 $449 forward 7 unknown #
straight-curve $-1 65.319376201666302 0 -9.4784801541309101 0 -1 0 I I #
vertex $-1 $367 $450 #
straight-curve $-1 -65.319376201666302 0 -9.4784801541309101 0 1 0 I I #
point $-1 -65.319376201666302 -30.601290856112897 -9.4784801541309101 #
straight-curve $-1 -65.319376201666302 -30.601290856112897 -3.989240077065455 0 0 -1 I I #
straight-curve $-1 -65.319376201666302 -38.071705510113944 0 0 0 -1 I I #
point $-1 65.319376201666302 -38.071705510113944 -9.4784801541309101 #
vertex $-1 $434 $451 #
straight-curve $-1 -57.36905463768516 17.058662390864214 -9.4784801541309101 0 -1 0 I I #
edge $-1 $435 -9.4784801541309101 $432 9.4784801541309101 $390 $452 forward 7 unknown #
vertex $-1 $391 $453 #
straight-curve $-1 -57.36905463768516 17.058662390864214 9.4784801541309101 0 1 0 I I #
straight-curve $-1 0 38.071705510113944 9.4784801541309101 -1 0 0 I I #
straight-curve $-1 0 38.071705510113944 -9.4784801541309101 1 0 0 I I #
straight-curve $-1 65.319376201666302 -30.601290856112897 94.518639577925995 0 0 -1 I I #
point $-1 65.319376201666302 -30.601290856112897 9.4784801541309101 #
straight-curve $-1 65.319376201666302 -11.173463748054857 4.7362282812648573 0 1 0 I I #
point $-1 65.319376201666302 -30.601290856112897 4.7362282812648573 #
point $-1 59.3793463969524 -22.346927496109714 3.7355288061573777 #
straight-curve $-1 -65.319376201666302 -14.092564136106533 45.221480042948407 0 0 -1 I I #
point $-1 -65.319376201666302 -14.092564136106533 9.4784801541309101 #
straight-curve $-1 -65.319376201666302 -11.173463748054857 4.7362282812648706 0 -1 0 I I #
point $-1 -65.319376201666302 -14.092564136106533 4.7362282812648715 #
point $-1 -59.3793463969524 -22.346927496109714 3.735528806157383 #
straight-curve $-1 0 -38.071705510113944 -9.4784801541309101 -1 0 0 I I #
point $-1 -65.319376201666302 -38.071705510113944 -9.4784801541309101 #
point $-1 -57.36905463768516 38.071705510113944 -9.4784801541309101 #
straight-curve $-1 -57.36905463768516 38.071705510113944 0 0 0 -1 I I #
point $-1 -57.36905463768516 38.071705510113944 9.4784801541309101 #
End-of-ACIS-data 