500 0 4 0           
7 Unknown 11 ACIS 5.0 NT 24 Thu Mar 25 15:14:07 1999 
-1 9.9999999999999995e-007 1e-010 
body $-1 $4 $-1 $5 #
body $-1 $6 $-1 $7 #
body $-1 $8 $-1 $9 #
body $-1 $10 $-1 $11 #
lump $-1 $-1 $12 $0 #
transform $-1 1 0 0 0 1 0 0 0 1 63.592028565324867 28.866088274023529 11.54123770467711 1 rotate no_reflect no_shear #
lump $-1 $-1 $13 $1 #
transform $-1 1 0 0 0 1 0 0 0 1 63.592028565324867 28.866088274023529 11.54123770467711 1 rotate no_reflect no_shear #
lump $-1 $-1 $14 $2 #
transform $-1 1 0 0 0 1 0 0 0 1 63.592028565324867 28.866088274023529 11.54123770467711 1 rotate no_reflect no_shear #
lump $-1 $-1 $15 $3 #
transform $-1 1 0 0 0 1 0 0 0 1 63.592028565324867 28.866088274023529 11.54123770467711 1 rotate no_reflect no_shear #
shell $-1 $-1 $-1 $16 $-1 $4 #
shell $-1 $-1 $-1 $17 $-1 $6 #
shell $-1 $-1 $-1 $18 $-1 $8 #
shell $-1 $-1 $-1 $19 $-1 $10 #
face $-1 $20 $21 $12 $-1 $22 forward single #
face $-1 $23 $24 $13 $-1 $25 forward single #
face $-1 $26 $27 $14 $-1 $28 reversed single #
face $-1 $29 $30 $15 $-1 $31 forward single #
face $-1 $32 $33 $12 $-1 $34 reversed single #
loop $-1 $-1 $35 $16 #
plane-surface $-1 0 0 11.54123770467711 0 0 1 1 0 0 forward_v I I I I #
face $-1 $36 $37 $13 $-1 $38 reversed single #
loop $-1 $-1 $39 $17 #
plane-surface $-1 0 -28.866088274023529 0 0 1 0 0 0 1 forward_v I I I I #
face $-1 $40 $41 $14 $-1 $42 reversed single #
loop $-1 $-1 $43 $18 #
plane-surface $-1 44.682681627143587 99.935354291473033 124.40795119599929 1 0 0 0 -0.81915205242281985 -0.57357642473473569 forward_v I I I I #
face $-1 $44 $45 $15 $-1 $46 forward single #
loop $-1 $47 $48 $19 #
cone-surface $-1 54.137355096234231 25.219167477434063 7.1082117222082557 0 -0.81915205242281985 -0.57357642473473569 1.5 0 0 1 I I 0 1 1.5 forward I I I I #
face $-1 $49 $50 $12 $-1 $51 reversed single #
loop $-1 $-1 $52 $20 #
plane-surface $-1 0 0 -11.54123770467711 0 0 1 1 0 0 forward_v I I I I #
coedge $-1 $53 $54 $55 $56 forward $21 $-1 #
face $-1 $57 $58 $13 $-1 $59 reversed single #
loop $-1 $-1 $60 $23 #
plane-surface $-1 0 0 -11.54123770467711 0 0 1 1 0 0 forward_v I I I I #
coedge $-1 $61 $62 $63 $64 forward $24 $-1 #
face $-1 $65 $66 $14 $-1 $67 forward single #
loop $-1 $-1 $68 $26 #
plane-surface $-1 54.137355096234231 -4.2477271425598673 51.458174423742861 0 0.81915205242281985 0.57357642473473569 1 0 0 forward_v I I I I #
coedge $-1 $69 $70 $71 $72 reversed $27 $-1 #
face $-1 $-1 $73 $15 $-1 $74 forward single #
loop $-1 $75 $76 $29 #
cone-surface $-1 54.137355096234231 23.539720775149693 5.9322505167401527 0 -0.81915205242281985 -0.57357642473473569 0.75 0 0 1 I I -0.70710678118654757 0.70710678118654757 0.75 forward I I I I #
loop $-1 $-1 $77 $19 #
coedge $-1 $48 $48 $78 $79 reversed $30 $-1 #
face $-1 $80 $81 $12 $-1 $82 reversed single #
loop $-1 $-1 $83 $32 #
plane-surface $-1 0 -28.866088274023529 0 0 1 0 0 0 1 forward_v I I I I #
coedge $-1 $84 $85 $86 $87 forward $33 $-1 #
coedge $-1 $88 $35 $89 $90 forward $21 $-1 #
coedge $-1 $35 $88 $91 $92 forward $21 $-1 #
coedge $-1 $93 $94 $35 $56 reversed $95 $-1 #
edge $-1 $96 -28.866088274023529 $97 28.866088274023529 $55 $98 forward 7 unknown #
face $-1 $99 $100 $13 $-1 $101 forward single #
loop $-1 $-1 $102 $36 #
plane-surface $-1 63.592028565324867 0 0 -1 0 0 0 0 1 forward_v I I I I #
coedge $-1 $103 $104 $105 $106 forward $37 $-1 #
coedge $-1 $105 $39 $102 $107 reversed $24 $-1 #
coedge $-1 $39 $105 $108 $109 reversed $24 $-1 #
coedge $-1 $110 $111 $39 $64 reversed $100 $-1 #
edge $-1 $112 -63.592028565324867 $113 63.592028565324867 $63 $114 forward 7 unknown #
face $-1 $115 $116 $14 $-1 $117 reversed single #
loop $-1 $-1 $71 $40 #
plane-surface $-1 0 0 11.54123770467711 0 0 1 1 0 0 forward_v I I I I #
coedge $-1 $118 $119 $120 $121 reversed $41 $-1 #
coedge $-1 $70 $43 $122 $123 reversed $27 $-1 #
coedge $-1 $43 $69 $118 $124 reversed $27 $-1 #
coedge $-1 $120 $125 $43 $72 forward $66 $-1 #
edge $-1 $126 21.101588871712988 $127 26.265265138957414 $71 $128 forward 7 unknown #
loop $-1 $-1 $78 $44 #
plane-surface $-1 54.137355096234231 -4.2477271425598673 51.458174423742861 0 0.81915205242281985 0.57357642473473569 1 0 0 forward_v I I I I #
loop $-1 $-1 $129 $29 #
coedge $-1 $76 $76 $77 $130 reversed $45 $-1 #
coedge $-1 $77 $77 $76 $130 forward $47 $-1 #
coedge $-1 $78 $78 $48 $79 forward $73 $-1 #
edge $-1 $131 -4.8503545027667632e-016 $131 6.2831853071795996 $78 $132 forward 7 unknown #
face $-1 $133 $134 $12 $-1 $135 reversed single #
loop $-1 $-1 $136 $49 #
plane-surface $-1 -63.592028565324867 0 0 1 0 0 0 0 -1 forward_v I I I I #
coedge $-1 $91 $137 $93 $138 reversed $50 $-1 #
coedge $-1 $139 $52 $137 $140 forward $33 $-1 #
coedge $-1 $52 $139 $141 $142 forward $33 $-1 #
coedge $-1 $94 $93 $52 $87 reversed $95 $-1 #
edge $-1 $143 -28.866088274023529 $144 28.866088274023529 $86 $145 forward 7 unknown #
coedge $-1 $54 $53 $146 $147 forward $21 $-1 #
coedge $-1 $148 $149 $53 $90 reversed $134 $-1 #
edge $-1 $97 -63.592028565324867 $150 63.592028565324867 $89 $151 forward 7 unknown #
coedge $-1 $152 $83 $54 $92 reversed $50 $-1 #
edge $-1 $153 -63.592028565324867 $96 63.592028565324867 $91 $154 forward 7 unknown #
coedge $-1 $86 $55 $83 $138 forward $95 $-1 #
coedge $-1 $55 $86 $148 $155 reversed $95 $-1 #
loop $-1 $-1 $93 $133 #
vertex $-1 $56 $156 #
vertex $-1 $56 $157 #
straight-curve $-1 63.592028565324867 0 11.54123770467711 0 1 0 I I #
face $-1 $158 $159 $13 $-1 $160 reversed single #
loop $-1 $-1 $111 $57 #
plane-surface $-1 0 -34.619043224543503 -7.8529868272468937 0 0 1 1 0 0 forward_v I I I I #
coedge $-1 $161 $162 $61 $107 forward $58 $-1 #
coedge $-1 $163 $60 $162 $164 forward $37 $-1 #
coedge $-1 $60 $163 $165 $166 forward $37 $-1 #
coedge $-1 $62 $61 $60 $106 reversed $24 $-1 #
edge $-1 $167 -63.592028565324867 $168 63.592028565324867 $60 $169 forward 7 unknown #
edge $-1 $168 -11.54123770467711 $113 -7.8529868272468937 $102 $170 forward 7 unknown #
coedge $-1 $165 $171 $62 $109 forward $172 $-1 #
edge $-1 $112 7.8529868272468937 $167 11.54123770467711 $108 $173 forward 7 unknown #
coedge $-1 $174 $63 $171 $175 forward $100 $-1 #
coedge $-1 $63 $174 $161 $176 forward $100 $-1 #
vertex $-1 $109 $177 #
vertex $-1 $176 $178 #
straight-curve $-1 0 -28.866088274023529 -7.8529868272468937 1 0 0 I I #
face $-1 $-1 $179 $14 $-1 $180 reversed single #
loop $-1 $-1 $181 $65 #
plane-surface $-1 63.592028565324867 0 0 -1 0 0 0 0 1 forward_v I I I I #
coedge $-1 $182 $68 $70 $124 forward $41 $-1 #
coedge $-1 $68 $182 $181 $183 reversed $41 $-1 #
coedge $-1 $184 $71 $68 $121 forward $66 $-1 #
edge $-1 $127 17.614004079026472 $185 36.523351017207759 $120 $186 forward 7 unknown #
coedge $-1 $187 $188 $69 $123 forward $179 $-1 #
edge $-1 $189 -58.03723208442613 $126 -50.662737893322536 $122 $190 forward 7 unknown #
edge $-1 $127 48.729581523970751 $189 57.732176548047079 $70 $191 forward 7 unknown #
coedge $-1 $71 $184 $187 $192 forward $66 $-1 #
vertex $-1 $123 $193 #
vertex $-1 $72 $194 #
straight-curve $-1 44.682681627143587 49.967677145736516 11.541237704677108 0 -1 0 I I #
coedge $-1 $129 $129 $-1 $195 reversed $75 $-1 #
edge $-1 $196 0 $196 6.2831853071796004 $76 $197 forward 7 unknown #
vertex $-1 $79 $198 #
ellipse-curve $-1 54.137355096234231 26.284250140401316 7.8539906091253071 0 0.81915205242281985 0.57357642473473569 1.5 0 0 1 I I #
face $-1 $-1 $95 $12 $-1 $199 reversed single #
loop $-1 $-1 $148 $80 #
plane-surface $-1 0 28.866088274023529 0 0 -1 0 0 0 -1 forward_v I I I I #
coedge $-1 $200 $146 $149 $201 forward $81 $-1 #
coedge $-1 $83 $152 $84 $140 reversed $50 $-1 #
edge $-1 $96 -11.54123770467711 $144 11.54123770467711 $93 $202 forward 7 unknown #
coedge $-1 $85 $84 $200 $203 forward $33 $-1 #
edge $-1 $144 -63.592028565324867 $204 63.592028565324867 $137 $205 forward 7 unknown #
coedge $-1 $149 $148 $85 $142 reversed $134 $-1 #
edge $-1 $206 -63.592028565324867 $143 63.592028565324867 $141 $207 forward 7 unknown #
vertex $-1 $87 $208 #
vertex $-1 $138 $209 #
straight-curve $-1 63.592028565324867 0 -11.54123770467711 0 -1 0 I I #
coedge $-1 $136 $210 $88 $147 reversed $81 $-1 #
edge $-1 $150 -28.866088274023529 $153 28.866088274023529 $146 $211 forward 7 unknown #
coedge $-1 $141 $89 $94 $155 forward $134 $-1 #
coedge $-1 $89 $141 $136 $201 reversed $134 $-1 #
vertex $-1 $90 $212 #
straight-curve $-1 0 28.866088274023529 11.54123770467711 -1 0 0 I I #
coedge $-1 $137 $91 $210 $213 forward $50 $-1 #
vertex $-1 $147 $214 #
straight-curve $-1 0 -28.866088274023529 11.54123770467711 1 0 0 I I #
edge $-1 $97 -11.54123770467711 $143 11.54123770467711 $94 $215 forward 7 unknown #
point $-1 63.592028565324867 -28.866088274023529 11.54123770467711 #
point $-1 63.592028565324867 28.866088274023529 11.54123770467711 #
face $-1 $-1 $172 $13 $-1 $216 reversed single #
loop $-1 $-1 $217 $99 #
plane-surface $-1 0 -40.371998175063474 -9.6971122659620015 0 1 0 0 0 1 forward_v I I I I #
coedge $-1 $218 $102 $111 $176 reversed $58 $-1 #
coedge $-1 $102 $218 $103 $164 reversed $58 $-1 #
coedge $-1 $104 $103 $219 $220 forward $37 $-1 #
edge $-1 $168 28.866088274023529 $221 40.371998175063474 $162 $222 forward 7 unknown #
coedge $-1 $223 $108 $104 $166 reversed $172 $-1 #
edge $-1 $224 -40.371998175063474 $167 -28.866088274023529 $165 $225 forward 7 unknown #
vertex $-1 $109 $226 #
vertex $-1 $164 $227 #
straight-curve $-1 0 -28.866088274023529 -11.54123770467711 1 0 0 I I #
straight-curve $-1 63.592028565324867 -28.866088274023529 0 0 0 1 I I #
coedge $-1 $108 $223 $110 $175 reversed $172 $-1 #
loop $-1 $-1 $108 $158 #
straight-curve $-1 -63.592028565324867 -28.866088274023529 0 0 0 -1 I I #
coedge $-1 $111 $110 $228 $229 forward $100 $-1 #
edge $-1 $112 -5.7529549505199711 $230 5.7529549505199711 $171 $231 forward 7 unknown #
edge $-1 $232 -5.7529549505199711 $113 5.7529549505199711 $161 $233 forward 7 unknown #
point $-1 -63.592028565324867 -28.866088274023532 -7.8529868272468937 #
point $-1 63.592028565324867 -28.866088274023532 -7.8529868272468937 #
loop $-1 $-1 $122 $115 #
plane-surface $-1 0 28.866088274023529 0 0 -1 0 0 0 -1 forward_v I I I I #
coedge $-1 $234 $235 $119 $183 forward $116 $-1 #
coedge $-1 $119 $118 $188 $236 reversed $41 $-1 #
edge $-1 $185 26.435348853561443 $237 35.437943877637778 $181 $238 forward 7 unknown #
coedge $-1 $125 $120 $235 $239 forward $66 $-1 #
vertex $-1 $239 $240 #
straight-curve $-1 27.068677548117115 23.702412006779102 11.541237704677105 1 0 0 I I #
coedge $-1 $241 $122 $125 $192 reversed $179 $-1 #
coedge $-1 $122 $241 $182 $236 forward $179 $-1 #
vertex $-1 $123 $242 #
straight-curve $-1 44.682681627143587 28.866088274023525 62.203975597999644 0 0 1 I I #
straight-curve $-1 44.682681627143587 -4.2477271425598673 51.458174423742861 0 0.57357642473473569 -0.81915205242281985 I I #
edge $-1 $243 -63.592028565324867 $126 -44.682681627143587 $187 $244 forward 7 unknown #
point $-1 44.682681627143587 28.866088274023529 11.54123770467711 #
point $-1 44.682681627143587 23.702412006779102 11.541237704677108 #
edge $-1 $245 1 $245 0 $129 $-1 forward 7 unknown #
vertex $-1 $130 $246 #
ellipse-curve $-1 54.137355096234231 24.154084814466806 6.3624328352912043 0 0.81915205242281985 0.57357642473473569 1.5 0 0 1 I I #
point $-1 55.637355096234231 26.284250140401316 7.853990609125308 #
plane-surface $-1 63.592028565324867 0 0 -1 0 0 0 0 1 forward_v I I I I #
coedge $-1 $210 $136 $139 $203 reversed $81 $-1 #
edge $-1 $150 -11.54123770467711 $206 11.54123770467711 $149 $247 forward 7 unknown #
straight-curve $-1 63.592028565324867 -28.866088274023529 0 0 0 -1 I I #
edge $-1 $204 -28.866088274023529 $206 28.866088274023529 $200 $248 forward 7 unknown #
vertex $-1 $203 $249 #
straight-curve $-1 0 -28.866088274023529 -11.54123770467711 -1 0 0 I I #
vertex $-1 $142 $250 #
straight-curve $-1 0 28.866088274023529 -11.54123770467711 1 0 0 I I #
point $-1 63.592028565324867 28.866088274023529 -11.54123770467711 #
point $-1 63.592028565324867 -28.866088274023529 -11.54123770467711 #
coedge $-1 $146 $200 $152 $213 reversed $81 $-1 #
straight-curve $-1 -63.592028565324867 0 11.54123770467711 0 -1 0 I I #
point $-1 -63.592028565324867 28.866088274023529 11.54123770467711 #
edge $-1 $153 -11.54123770467711 $204 11.54123770467711 $210 $251 forward 7 unknown #
point $-1 -63.592028565324867 -28.866088274023529 11.54123770467711 #
straight-curve $-1 63.592028565324867 28.866088274023529 0 0 0 -1 I I #
plane-surface $-1 -63.592028565324867 0 0 1 0 0 0 0 -1 forward_v I I I I #
coedge $-1 $219 $228 $223 $252 forward $159 $-1 #
coedge $-1 $162 $161 $253 $254 forward $58 $-1 #
coedge $-1 $253 $217 $163 $220 reversed $159 $-1 #
edge $-1 $221 -63.592028565324867 $224 63.592028565324867 $219 $255 forward 7 unknown #
vertex $-1 $254 $256 #
straight-curve $-1 63.592028565324867 0 -11.54123770467711 0 -1 0 I I #
coedge $-1 $171 $165 $217 $252 reversed $172 $-1 #
vertex $-1 $166 $257 #
straight-curve $-1 -63.592028565324867 0 -11.54123770467711 0 1 0 I I #
point $-1 -63.592028565324867 -28.866088274023529 -11.54123770467711 #
point $-1 63.592028565324867 -28.866088274023529 -11.54123770467711 #
coedge $-1 $217 $253 $174 $229 reversed $159 $-1 #
edge $-1 $230 -63.592028565324867 $232 63.592028565324867 $228 $258 forward 7 unknown #
vertex $-1 $175 $259 #
straight-curve $-1 -63.592028565324867 -34.619043224543503 -7.8529868272468937 0 -1 0 I I #
vertex $-1 $176 $260 #
straight-curve $-1 63.592028565324867 -34.619043224543503 -7.8529868272468937 0 1 0 I I #
coedge $-1 $235 $181 $241 $261 reversed $116 $-1 #
coedge $-1 $181 $234 $184 $239 reversed $116 $-1 #
edge $-1 $237 -36.523351017207759 $189 -17.614004079026472 $188 $262 forward 7 unknown #
vertex $-1 $183 $263 #
straight-curve $-1 63.592028565324867 8.5397191247378395 33.1958079745852 0 0.57357642473473569 -0.81915205242281985 I I #
edge $-1 $185 23.702412006779102 $243 28.866088274023529 $235 $264 forward 7 unknown #
point $-1 63.592028565324874 23.702412006779102 11.541237704677108 #
coedge $-1 $188 $187 $234 $261 forward $179 $-1 #
point $-1 44.682681627143587 28.866088274023525 4.1667435135735147 #
vertex $-1 $239 $265 #
straight-curve $-1 0 28.866088274023529 11.54123770467711 -1 0 0 I I #
vertex $-1 $195 $266 #
point $-1 55.637355096234231 24.154084814466806 6.3624328352912043 #
straight-curve $-1 -63.592028565324867 28.866088274023529 0 0 0 -1 I I #
straight-curve $-1 -63.592028565324867 0 -11.54123770467711 0 1 0 I I #
point $-1 -63.592028565324867 -28.866088274023529 -11.54123770467711 #
point $-1 -63.592028565324867 28.866088274023529 -11.54123770467711 #
straight-curve $-1 -63.592028565324867 -28.866088274023529 0 0 0 -1 I I #
edge $-1 $230 -1.8441254387151078 $224 1.8441254387151087 $223 $267 forward 7 unknown #
coedge $-1 $228 $219 $218 $254 reversed $159 $-1 #
edge $-1 $232 -1.8441254387151078 $221 1.8441254387151087 $218 $268 forward 7 unknown #
straight-curve $-1 0 -40.371998175063474 -11.54123770467711 -1 0 0 I I #
point $-1 63.592028565324867 -40.371998175063474 -11.54123770467711 #
point $-1 -63.592028565324867 -40.371998175063474 -11.54123770467711 #
straight-curve $-1 0 -40.371998175063474 -7.8529868272468937 1 0 0 I I #
point $-1 -63.592028565324867 -40.371998175063474 -7.8529868272468937 #
point $-1 63.592028565324867 -40.371998175063474 -7.8529868272468937 #
edge $-1 $243 -11.54123770467711 $237 -4.1667435135735147 $234 $269 forward 7 unknown #
straight-curve $-1 27.068677548117115 28.866088274023532 4.1667435135735111 -1 0 0 I I #
point $-1 63.592028565324874 28.866088274023525 4.1667435135735147 #
straight-curve $-1 63.592028565324867 0 11.54123770467711 0 1 0 I I #
point $-1 63.592028565324867 28.866088274023529 11.54123770467711 #
point $-1 54.137355096234231 22.92535673583258 5.5020681981891011 #
straight-curve $-1 -63.592028565324867 -40.371998175063474 -9.6971122659620015 0 0 -1 I I #
straight-curve $-1 63.592028565324867 -40.371998175063474 -9.6971122659620015 0 0 -1 I I #
straight-curve $-1 63.592028565324867 28.866088274023529 0 0 0 -1 I I #
End-of-ACIS-data 