500 0 5 0           
7 Unknown 11 ACIS 5.0 NT 24 Thu Mar 25 18:18:27 1999 
-1 9.9999999999999995e-007 1e-010 
body $-1 $5 $-1 $6 #
body $-1 $7 $-1 $8 #
body $-1 $9 $-1 $10 #
body $-1 $11 $-1 $12 #
body $-1 $13 $-1 $14 #
lump $-1 $-1 $15 $0 #
transform $-1 1 0 0 0 1 0 0 0 1 67.139500106814779 30.965064469259225 15.242122297773031 1 rotate no_reflect no_shear #
lump $-1 $-1 $16 $1 #
transform $-1 1 0 0 0 1 0 0 0 1 67.139500106814779 30.965064469259225 15.242122297773031 1 rotate no_reflect no_shear #
lump $-1 $-1 $17 $2 #
transform $-1 1 0 0 0 1 0 0 0 1 67.139500106814779 30.965064469259225 15.242122297773031 1 rotate no_reflect no_shear #
lump $-1 $-1 $18 $3 #
transform $-1 1 0 0 0 1 0 0 0 1 67.139500106814779 30.965064469259225 15.242122297773031 1 rotate no_reflect no_shear #
lump $-1 $-1 $19 $4 #
transform $-1 1 0 0 0 1 0 0 0 1 67.139500106814779 30.965064469259225 15.242122297773031 1 rotate no_reflect no_shear #
shell $-1 $-1 $-1 $20 $-1 $5 #
shell $-1 $-1 $-1 $21 $-1 $7 #
shell $-1 $-1 $-1 $22 $-1 $9 #
shell $-1 $-1 $-1 $23 $-1 $11 #
shell $-1 $-1 $-1 $24 $-1 $13 #
face $-1 $25 $26 $15 $-1 $27 reversed single #
face $-1 $28 $29 $16 $-1 $30 forward single #
face $-1 $31 $32 $17 $-1 $33 reversed single #
face $-1 $34 $35 $18 $-1 $36 forward single #
face $-1 $37 $38 $19 $-1 $39 forward single #
face $-1 $40 $41 $15 $-1 $42 forward single #
loop $-1 $-1 $43 $20 #
plane-surface $-1 -67.139500106814779 0 0 1 0 0 0 0 -1 forward_v I I I I #
face $-1 $44 $45 $16 $-1 $46 reversed single #
loop $-1 $-1 $47 $21 #
plane-surface $-1 -67.139500106814779 0 0 1 0 0 0 0 -1 forward_v I I I I #
face $-1 $48 $49 $17 $-1 $50 reversed single #
loop $-1 $-1 $51 $22 #
plane-surface $-1 100.11514986960526 4.9539280135037433 194.65603353049474 0 -1 0 -0.81915205242281985 0 -0.57357642473473569 forward_v I I I I #
face $-1 $52 $53 $18 $-1 $54 forward single #
loop $-1 $55 $56 $23 #
cone-surface $-1 62.54010663111395 -4.4849430305222491 10.084626163209812 -0.81915205242281985 0 -0.57357642473473569 0.86036463710210354 0 -1.2287280786342298 1 I I 0 1 1.5 forward I I I I #
face $-1 $57 $58 $19 $-1 $59 forward single #
loop $-1 $60 $61 $24 #
cone-surface $-1 62.54010663111395 1.1783795958933467 10.084626163209812 -0.81915205242281985 0 -0.57357642473473569 0.86036463710210354 0 -1.2287280786342298 1 I I 0 1 1.5 forward I I I I #
face $-1 $62 $63 $15 $-1 $64 reversed single #
loop $-1 $-1 $65 $25 #
plane-surface $-1 0 0 15.242122297773031 0 0 1 1 0 0 forward_v I I I I #
coedge $-1 $66 $67 $68 $69 reversed $26 $-1 #
face $-1 $70 $71 $16 $-1 $72 reversed single #
loop $-1 $-1 $73 $28 #
plane-surface $-1 0 0 -15.242122297773031 0 0 1 1 0 0 forward_v I I I I #
coedge $-1 $74 $75 $76 $77 forward $29 $-1 #
face $-1 $78 $79 $17 $-1 $80 reversed single #
loop $-1 $-1 $81 $31 #
plane-surface $-1 -9.8797687526736553 -1.6532817173144494 117.63676467100629 0.81915205242281985 0 0.57357642473473569 0.57357642473473569 0 -0.81915205242281985 forward_v I I I I #
coedge $-1 $82 $83 $84 $85 reversed $32 $-1 #
face $-1 $-1 $86 $18 $-1 $87 forward single #
loop $-1 $88 $89 $34 #
cone-surface $-1 59.987234396814188 -4.4849430305222491 8.2970858346183771 -0.81915205242281985 0 -0.57357642473473569 0.43018231855105177 0 -0.61436403931711492 1 I I -0.70710678118654757 0.70710678118654757 0.75 forward I I I I #
loop $-1 $-1 $90 $23 #
coedge $-1 $56 $56 $91 $92 reversed $35 $-1 #
face $-1 $-1 $93 $19 $-1 $94 forward single #
loop $-1 $95 $96 $37 #
cone-surface $-1 59.987234396814188 1.1783795958933467 8.2970858346183771 -0.81915205242281985 0 -0.57357642473473569 0.43018231855105177 0 -0.61436403931711492 1 I I -0.70710678118654757 0.70710678118654757 0.75 forward I I I I #
loop $-1 $-1 $97 $24 #
coedge $-1 $61 $61 $98 $99 reversed $38 $-1 #
face $-1 $100 $101 $15 $-1 $102 reversed single #
loop $-1 $-1 $103 $40 #
plane-surface $-1 0 0 -15.242122297773031 0 0 1 1 0 0 forward_v I I I I #
coedge $-1 $104 $105 $106 $107 forward $41 $-1 #
coedge $-1 $108 $43 $109 $110 reversed $26 $-1 #
coedge $-1 $43 $108 $111 $112 forward $26 $-1 #
coedge $-1 $113 $114 $43 $69 forward $63 $-1 #
edge $-1 $115 -30.965064469259225 $116 30.965064469259225 $43 $117 forward 7 unknown #
face $-1 $118 $119 $16 $-1 $120 reversed single #
loop $-1 $-1 $121 $44 #
plane-surface $-1 -75.126828984698264 -17.833440279497466 0 0 1 0 0 0 1 forward_v I I I I #
coedge $-1 $122 $123 $75 $124 forward $45 $-1 #
coedge $-1 $125 $47 $126 $127 reversed $29 $-1 #
coedge $-1 $47 $125 $73 $124 reversed $29 $-1 #
coedge $-1 $128 $129 $47 $77 reversed $130 $-1 #
edge $-1 $131 -15.242122297773031 $132 15.242122297773031 $76 $133 forward 7 unknown #
face $-1 $134 $135 $17 $-1 $136 forward single #
loop $-1 $-1 $137 $48 #
plane-surface $-1 100.11514986960526 -8.2604914481326421 194.65603353049474 0 1 0 0.81915205242281985 0 0.57357642473473569 forward_v I I I I #
coedge $-1 $138 $139 $140 $141 reversed $49 $-1 #
coedge $-1 $83 $51 $142 $143 reversed $32 $-1 #
coedge $-1 $51 $82 $138 $144 reversed $32 $-1 #
coedge $-1 $140 $145 $51 $85 forward $135 $-1 #
edge $-1 $146 -17.081925172012149 $147 -11.76015461057581 $84 $148 forward 7 unknown #
loop $-1 $-1 $91 $52 #
plane-surface $-1 -9.8797687526736553 -1.6532817173144494 117.63676467100629 0.81915205242281985 0 0.57357642473473569 0.57357642473473569 0 -0.81915205242281985 forward_v I I I I #
loop $-1 $-1 $149 $34 #
coedge $-1 $89 $89 $90 $150 reversed $53 $-1 #
coedge $-1 $90 $90 $89 $150 forward $55 $-1 #
coedge $-1 $91 $91 $56 $92 forward $86 $-1 #
edge $-1 $151 0 $151 6.2831853071796004 $91 $152 forward 7 unknown #
loop $-1 $-1 $98 $57 #
plane-surface $-1 -9.8797687526736553 -1.6532817173144494 117.63676467100629 0.81915205242281985 0 0.57357642473473569 0.57357642473473569 0 -0.81915205242281985 forward_v I I I I #
loop $-1 $-1 $153 $37 #
coedge $-1 $96 $96 $97 $154 reversed $58 $-1 #
coedge $-1 $97 $97 $96 $154 forward $60 $-1 #
coedge $-1 $98 $98 $61 $99 forward $93 $-1 #
edge $-1 $155 0 $155 6.2831853071796004 $98 $156 forward 7 unknown #
face $-1 $157 $158 $15 $-1 $159 reversed single #
loop $-1 $-1 $109 $62 #
plane-surface $-1 0 -30.965064469259225 0 0 1 0 0 0 1 forward_v I I I I #
coedge $-1 $114 $113 $160 $161 forward $63 $-1 #
coedge $-1 $162 $65 $163 $164 forward $41 $-1 #
coedge $-1 $65 $162 $165 $166 forward $41 $-1 #
coedge $-1 $167 $168 $65 $107 reversed $169 $-1 #
edge $-1 $170 -30.965064469259225 $171 30.965064469259225 $106 $172 forward 7 unknown #
coedge $-1 $67 $66 $162 $173 reversed $26 $-1 #
coedge $-1 $174 $165 $66 $110 forward $101 $-1 #
edge $-1 $175 -15.242122297773031 $115 15.242122297773031 $66 $176 forward 7 unknown #
coedge $-1 $163 $177 $67 $112 reversed $158 $-1 #
edge $-1 $178 -15.242122297773031 $116 15.242122297773031 $111 $179 forward 7 unknown #
coedge $-1 $103 $68 $177 $180 forward $63 $-1 #
coedge $-1 $68 $103 $174 $181 forward $63 $-1 #
vertex $-1 $69 $182 #
vertex $-1 $180 $183 #
straight-curve $-1 -67.139500106814779 0 -15.242122297773031 0 1 0 I I #
face $-1 $184 $130 $16 $-1 $185 reversed single #
loop $-1 $-1 $186 $70 #
plane-surface $-1 -83.114157862581749 -14.085172288432513 0 1 0 0 0 0 -1 forward_v I I I I #
coedge $-1 $187 $188 $189 $190 forward $71 $-1 #
coedge $-1 $191 $73 $187 $192 forward $45 $-1 #
coedge $-1 $73 $191 $128 $193 forward $45 $-1 #
edge $-1 $131 10.33690429736756 $194 17.833440279497466 $73 $195 forward 7 unknown #
coedge $-1 $75 $74 $196 $197 forward $29 $-1 #
coedge $-1 $198 $199 $74 $127 forward $200 $-1 #
edge $-1 $201 -17.833440279497466 $132 -10.33690429736756 $126 $202 forward 7 unknown #
coedge $-1 $203 $76 $123 $193 reversed $130 $-1 #
coedge $-1 $76 $203 $198 $204 reversed $130 $-1 #
loop $-1 $-1 $76 $118 #
vertex $-1 $124 $205 #
vertex $-1 $204 $206 #
straight-curve $-1 -67.139500106814779 -10.33690429736756 0 0 0 1 I I #
face $-1 $-1 $207 $17 $-1 $208 reversed single #
loop $-1 $-1 $84 $78 #
plane-surface $-1 0 0 15.242122297773031 0 0 1 1 0 0 forward_v I I I I #
coedge $-1 $209 $210 $211 $212 reversed $79 $-1 #
coedge $-1 $213 $81 $83 $144 forward $49 $-1 #
coedge $-1 $81 $213 $209 $214 forward $49 $-1 #
coedge $-1 $211 $84 $81 $141 forward $135 $-1 #
edge $-1 $147 -5.780568872160968 $215 7.4338505894754174 $140 $216 forward 7 unknown #
coedge $-1 $217 $218 $82 $143 forward $207 $-1 #
edge $-1 $219 -89.686170716519968 $146 -82.085894467474333 $142 $220 forward 7 unknown #
edge $-1 $147 125.00077619335617 $219 134.27900021362956 $83 $221 forward 7 unknown #
coedge $-1 $84 $211 $217 $222 forward $135 $-1 #
vertex $-1 $85 $223 #
vertex $-1 $85 $224 #
straight-curve $-1 50.057574934802631 4.9539280135037433 15.242122297773037 -1 0 0 I I #
coedge $-1 $149 $149 $-1 $225 reversed $88 $-1 #
edge $-1 $226 0 $226 6.2831853071796004 $89 $227 forward 7 unknown #
vertex $-1 $92 $228 #
ellipse-curve $-1 64.478614826096617 -4.4849430305222491 11.44198417325021 0.81915205242281985 0 0.57357642473473569 0.86036463710210354 0 -1.2287280786342298 1 I I #
coedge $-1 $153 $153 $-1 $229 reversed $95 $-1 #
edge $-1 $230 0 $230 6.2831853071796004 $96 $231 forward 7 unknown #
vertex $-1 $99 $232 #
ellipse-curve $-1 64.478614826096617 1.1783795958933467 11.44198417325021 0.81915205242281985 0 0.57357642473473569 0.86036463710210354 0 -1.2287280786342298 1 I I #
face $-1 $-1 $169 $15 $-1 $233 reversed single #
loop $-1 $-1 $234 $100 #
plane-surface $-1 0 30.965064469259225 0 0 -1 0 0 0 -1 forward_v I I I I #
coedge $-1 $168 $167 $103 $161 reversed $169 $-1 #
edge $-1 $235 -30.965064469259225 $236 30.965064469259225 $160 $237 forward 7 unknown #
coedge $-1 $105 $104 $108 $173 forward $41 $-1 #
coedge $-1 $234 $111 $104 $164 reversed $158 $-1 #
edge $-1 $171 -67.139500106814779 $178 67.139500106814779 $163 $238 forward 7 unknown #
coedge $-1 $109 $239 $105 $166 reversed $101 $-1 #
edge $-1 $175 -67.139500106814779 $170 67.139500106814779 $165 $240 forward 7 unknown #
coedge $-1 $160 $106 $239 $241 forward $169 $-1 #
coedge $-1 $106 $160 $234 $242 reversed $169 $-1 #
loop $-1 $-1 $167 $157 #
vertex $-1 $107 $243 #
vertex $-1 $107 $244 #
straight-curve $-1 67.139500106814779 0 15.242122297773031 0 1 0 I I #
edge $-1 $178 -30.965064469259225 $175 30.965064469259225 $108 $245 forward 7 unknown #
coedge $-1 $239 $109 $114 $181 reversed $101 $-1 #
vertex $-1 $173 $246 #
straight-curve $-1 -67.139500106814779 -30.965064469259225 0 0 0 -1 I I #
coedge $-1 $111 $234 $113 $180 reversed $158 $-1 #
vertex $-1 $164 $247 #
straight-curve $-1 -67.139500106814779 30.965064469259225 0 0 0 -1 I I #
edge $-1 $116 -67.139500106814779 $235 67.139500106814779 $177 $248 forward 7 unknown #
edge $-1 $236 -67.139500106814779 $115 67.139500106814779 $174 $249 forward 7 unknown #
point $-1 -67.139500106814779 -30.965064469259225 -15.242122297773031 #
point $-1 -67.139500106814779 30.965064469259225 -15.242122297773031 #
face $-1 $-1 $200 $16 $-1 $250 forward single #
plane-surface $-1 -75.126828984698264 -10.33690429736756 0 0 -1 0 0 0 -1 forward_v I I I I #
coedge $-1 $251 $252 $203 $253 forward $119 $-1 #
coedge $-1 $196 $121 $122 $192 reversed $71 $-1 #
coedge $-1 $121 $196 $199 $254 reversed $71 $-1 #
coedge $-1 $252 $251 $121 $190 reversed $119 $-1 #
edge $-1 $255 -15.242122297773031 $256 15.242122297773031 $189 $257 forward 7 unknown #
coedge $-1 $123 $122 $251 $258 forward $45 $-1 #
edge $-1 $194 -7.9873288778834848 $256 7.9873288778834848 $187 $259 forward 7 unknown #
edge $-1 $260 -7.9873288778834848 $131 7.9873288778834848 $128 $261 forward 7 unknown #
vertex $-1 $192 $262 #
straight-curve $-1 -67.139500106814779 0 -15.242122297773031 0 -1 0 I I #
coedge $-1 $188 $187 $125 $197 reversed $71 $-1 #
edge $-1 $201 -15.242122297773031 $194 15.242122297773031 $196 $263 forward 7 unknown #
coedge $-1 $264 $126 $129 $204 forward $200 $-1 #
coedge $-1 $126 $264 $188 $254 forward $200 $-1 #
loop $-1 $-1 $126 $184 #
vertex $-1 $127 $265 #
straight-curve $-1 -67.139500106814779 0 15.242122297773031 0 1 0 I I #
coedge $-1 $129 $128 $186 $253 reversed $130 $-1 #
edge $-1 $132 -7.9873288778834848 $266 7.9873288778834848 $129 $267 forward 7 unknown #
point $-1 -67.139500106814779 -10.33690429736756 -15.242122297773031 #
point $-1 -67.139500106814779 -10.33690429736756 15.242122297773031 #
loop $-1 $-1 $142 $134 #
plane-surface $-1 67.139500106814779 0 0 -1 0 0 0 0 1 forward_v I I I I #
coedge $-1 $210 $137 $139 $214 reversed $79 $-1 #
coedge $-1 $137 $209 $268 $269 reversed $79 $-1 #
coedge $-1 $145 $140 $137 $212 forward $135 $-1 #
edge $-1 $215 11.76015461057581 $270 17.081925172012149 $211 $271 forward 7 unknown #
coedge $-1 $139 $138 $218 $272 reversed $49 $-1 #
edge $-1 $273 -134.27900021362956 $215 -125.00077619335617 $209 $274 forward 7 unknown #
vertex $-1 $141 $275 #
straight-curve $-1 61.817729545378427 -0.8266408586572247 15.242122297773037 0 -1 0 I I #
coedge $-1 $268 $142 $145 $222 reversed $207 $-1 #
coedge $-1 $142 $268 $213 $272 forward $207 $-1 #
vertex $-1 $143 $276 #
straight-curve $-1 67.139500106814779 4.9539280135037433 97.328016765247369 0 0 1 I I #
straight-curve $-1 -9.8797687526736553 4.9539280135037433 117.63676467100629 0.57357642473473569 0 -0.81915205242281985 I I #
edge $-1 $270 -8.2604914481326421 $146 4.9539280135037433 $217 $277 forward 7 unknown #
point $-1 67.139500106814779 4.9539280135037433 15.242122297773031 #
point $-1 61.817729545378441 4.9539280135037433 15.242122297773037 #
edge $-1 $278 1 $278 0 $149 $-1 forward 7 unknown #
vertex $-1 $150 $279 #
ellipse-curve $-1 60.601598436131304 -4.4849430305222491 8.7272681531694296 0.81915205242281985 0 0.57357642473473569 0.86036463710210354 0 -1.2287280786342298 1 I I #
point $-1 65.338979463198712 -4.4849430305222491 10.213256094615966 #
edge $-1 $280 1 $280 0 $153 $-1 forward 7 unknown #
vertex $-1 $154 $281 #
ellipse-curve $-1 60.601598436131304 1.1783795958933467 8.7272681531694296 0.81915205242281985 0 0.57357642473473569 0.86036463710210354 0 -1.2287280786342298 1 I I #
point $-1 65.338979463198712 1.1783795958933467 10.213256094615966 #
plane-surface $-1 67.139500106814779 0 0 -1 0 0 0 0 1 forward_v I I I I #
coedge $-1 $177 $163 $168 $242 forward $158 $-1 #
vertex $-1 $161 $282 #
vertex $-1 $241 $283 #
straight-curve $-1 67.139500106814779 0 -15.242122297773031 0 -1 0 I I #
straight-curve $-1 0 30.965064469259225 15.242122297773031 -1 0 0 I I #
coedge $-1 $165 $174 $167 $241 reversed $101 $-1 #
straight-curve $-1 0 -30.965064469259225 15.242122297773031 1 0 0 I I #
edge $-1 $170 -15.242122297773031 $236 15.242122297773031 $167 $284 forward 7 unknown #
edge $-1 $171 -15.242122297773031 $235 15.242122297773031 $168 $285 forward 7 unknown #
point $-1 67.139500106814779 -30.965064469259225 15.242122297773031 #
point $-1 67.139500106814779 30.965064469259225 15.242122297773031 #
straight-curve $-1 -67.139500106814779 0 15.242122297773031 0 -1 0 I I #
point $-1 -67.139500106814779 -30.965064469259225 15.242122297773031 #
point $-1 -67.139500106814779 30.965064469259225 15.242122297773031 #
straight-curve $-1 0 30.965064469259225 -15.242122297773031 1 0 0 I I #
straight-curve $-1 0 -30.965064469259225 -15.242122297773031 -1 0 0 I I #
plane-surface $-1 0 0 15.242122297773031 0 0 1 1 0 0 forward_v I I I I #
coedge $-1 $189 $186 $191 $258 reversed $119 $-1 #
coedge $-1 $186 $189 $264 $286 reversed $119 $-1 #
edge $-1 $266 -15.242122297773031 $260 15.242122297773031 $203 $287 forward 7 unknown #
edge $-1 $255 -7.9873288778834848 $201 7.9873288778834848 $188 $288 forward 7 unknown #
vertex $-1 $286 $289 #
vertex $-1 $258 $290 #
straight-curve $-1 -83.114157862581749 -17.833440279497466 0 0 0 -1 I I #
edge $-1 $256 -3.748267991064953 $260 3.748267991064953 $251 $291 forward 7 unknown #
straight-curve $-1 -75.126828984698264 -17.833440279497466 -15.242122297773031 -1 0 0 I I #
vertex $-1 $193 $292 #
straight-curve $-1 -75.126828984698264 -10.33690429736756 -15.242122297773031 1 0 0 I I #
point $-1 -67.139500106814779 -17.833440279497466 -15.242122297773031 #
straight-curve $-1 -67.139500106814779 -17.833440279497466 0 0 0 -1 I I #
coedge $-1 $199 $198 $252 $286 forward $200 $-1 #
point $-1 -67.139500106814779 -17.833440279497466 15.242122297773031 #
vertex $-1 $204 $293 #
straight-curve $-1 -75.126828984698264 -10.33690429736756 15.242122297773031 -1 0 0 I I #
coedge $-1 $218 $217 $210 $269 forward $207 $-1 #
edge $-1 $270 82.085894467474333 $273 89.686170716519968 $268 $294 forward 7 unknown #
vertex $-1 $222 $295 #
straight-curve $-1 50.057574934802631 -8.2604914481326421 15.242122297773037 1 0 0 I I #
edge $-1 $273 -7.4338505894754174 $219 5.780568872160968 $218 $296 forward 7 unknown #
vertex $-1 $272 $297 #
straight-curve $-1 -9.8797687526736553 -8.2604914481326421 117.63676467100629 -0.57357642473473569 0 0.81915205242281985 I I #
point $-1 61.817729545378441 -8.2604914481326421 15.242122297773037 #
point $-1 67.139500106814779 4.9539280135037433 7.6418460487274018 #
straight-curve $-1 67.139500106814779 0 15.242122297773031 0 1 0 I I #
vertex $-1 $225 $298 #
point $-1 61.461963073233406 -4.4849430305222491 7.4985400745351996 #
vertex $-1 $229 $299 #
point $-1 61.461963073233406 1.1783795958933467 7.4985400745351996 #
point $-1 67.139500106814779 30.965064469259225 -15.242122297773031 #
point $-1 67.139500106814779 -30.965064469259225 -15.242122297773031 #
straight-curve $-1 67.139500106814779 -30.965064469259225 0 0 0 -1 I I #
straight-curve $-1 67.139500106814779 30.965064469259225 0 0 0 -1 I I #
edge $-1 $266 -3.748267991064953 $255 3.748267991064953 $252 $300 forward 7 unknown #
straight-curve $-1 -83.114157862581749 -10.33690429736756 0 0 0 -1 I I #
straight-curve $-1 -75.126828984698264 -17.833440279497466 15.242122297773031 1 0 0 I I #
point $-1 -83.114157862581749 -17.833440279497466 15.242122297773031 #
point $-1 -83.114157862581749 -17.833440279497466 -15.242122297773031 #
straight-curve $-1 -83.114157862581749 -14.085172288432513 -15.242122297773031 0 1 0 I I #
point $-1 -83.114157862581749 -10.33690429736756 -15.242122297773031 #
point $-1 -83.114157862581749 -10.33690429736756 15.242122297773031 #
straight-curve $-1 67.139500106814779 -8.2604914481326421 97.328016765247369 0 0 -1 I I #
point $-1 67.139500106814779 -8.2604914481326421 15.242122297773031 #
straight-curve $-1 67.139500106814779 -0.8266408586572247 7.6418460487273947 0 1 0 I I #
point $-1 67.139500106814779 -8.2604914481326421 7.6418460487274018 #
point $-1 59.372870357497071 -4.4849430305222491 7.8669035160673255 #
point $-1 59.372870357497071 1.1783795958933467 7.8669035160673255 #
straight-curve $-1 -83.114157862581749 -14.085172288432513 15.242122297773031 0 -1 0 I I #
End-of-ACIS-data 