500 0 18 0           
7 Unknown 11 ACIS 5.0 NT 24 Thu Mar 25 20:22:03 1999 
-1 9.9999999999999995e-007 1e-010 
body $-1 $18 $-1 $19 #
body $-1 $20 $-1 $21 #
body $-1 $22 $-1 $23 #
body $-1 $24 $-1 $25 #
body $-1 $26 $-1 $27 #
body $-1 $28 $-1 $29 #
body $-1 $30 $-1 $31 #
body $-1 $32 $-1 $33 #
body $-1 $34 $-1 $35 #
body $-1 $36 $-1 $37 #
body $-1 $38 $-1 $39 #
body $-1 $40 $-1 $41 #
body $-1 $42 $-1 $43 #
body $-1 $44 $-1 $45 #
body $-1 $46 $-1 $47 #
body $-1 $48 $-1 $49 #
body $-1 $50 $-1 $51 #
body $-1 $52 $-1 $53 #
lump $-1 $-1 $54 $0 #
transform $-1 1 0 0 0 1 0 0 0 1 72.228766747032068 48.326945903152001 16.551392712452856 1 rotate no_reflect no_shear #
lump $-1 $-1 $55 $1 #
transform $-1 1 0 0 0 1 0 0 0 1 72.228766747032068 48.326945903152001 16.551392712452856 1 rotate no_reflect no_shear #
lump $-1 $-1 $56 $2 #
transform $-1 1 0 0 0 1 0 0 0 1 72.228766747032068 48.326945903152001 16.551392712452856 1 rotate no_reflect no_shear #
lump $-1 $-1 $57 $3 #
transform $-1 1 0 0 0 1 0 0 0 1 72.228766747032068 48.326945903152001 16.551392712452856 1 rotate no_reflect no_shear #
lump $-1 $-1 $58 $4 #
transform $-1 1 0 0 0 1 0 0 0 1 72.228766747032068 48.326945903152001 16.551392712452856 1 rotate no_reflect no_shear #
lump $-1 $-1 $59 $5 #
transform $-1 1 0 0 0 1 0 0 0 1 72.228766747032068 48.326945903152001 16.551392712452856 1 rotate no_reflect no_shear #
lump $-1 $-1 $60 $6 #
transform $-1 1 0 0 0 1 0 0 0 1 72.228766747032068 48.326945903152001 16.551392712452856 1 rotate no_reflect no_shear #
lump $-1 $-1 $61 $7 #
transform $-1 1 0 0 0 1 0 0 0 1 72.228766747032068 48.326945903152001 16.551392712452856 1 rotate no_reflect no_shear #
lump $-1 $-1 $62 $8 #
transform $-1 1 0 0 0 1 0 0 0 1 72.228766747032068 48.326945903152001 16.551392712452856 1 rotate no_reflect no_shear #
lump $-1 $-1 $63 $9 #
transform $-1 1 0 0 0 1 0 0 0 1 72.228766747032068 48.326945903152001 16.551392712452856 1 rotate no_reflect no_shear #
lump $-1 $-1 $64 $10 #
transform $-1 1 0 0 0 1 0 0 0 1 72.228766747032068 48.326945903152001 16.551392712452856 1 rotate no_reflect no_shear #
lump $-1 $-1 $65 $11 #
transform $-1 1 0 0 0 1 0 0 0 1 72.228766747032068 48.326945903152001 16.551392712452856 1 rotate no_reflect no_shear #
lump $-1 $-1 $66 $12 #
transform $-1 1 0 0 0 1 0 0 0 1 72.228766747032068 48.326945903152001 16.551392712452856 1 rotate no_reflect no_shear #
lump $-1 $-1 $67 $13 #
transform $-1 1 0 0 0 1 0 0 0 1 72.228766747032068 48.326945903152001 16.551392712452856 1 rotate no_reflect no_shear #
lump $-1 $-1 $68 $14 #
transform $-1 1 0 0 0 1 0 0 0 1 72.228766747032068 48.326945903152001 16.551392712452856 1 rotate no_reflect no_shear #
lump $-1 $-1 $69 $15 #
transform $-1 1 0 0 0 1 0 0 0 1 72.228766747032068 48.326945903152001 16.551392712452856 1 rotate no_reflect no_shear #
lump $-1 $-1 $70 $16 #
transform $-1 1 0 0 0 1 0 0 0 1 72.228766747032068 48.326945903152001 16.551392712452856 1 rotate no_reflect no_shear #
lump $-1 $-1 $71 $17 #
transform $-1 1 0 0 0 1 0 0 0 1 72.228766747032068 48.326945903152001 16.551392712452856 1 rotate no_reflect no_shear #
shell $-1 $-1 $-1 $72 $-1 $18 #
shell $-1 $-1 $-1 $73 $-1 $20 #
shell $-1 $-1 $-1 $74 $-1 $22 #
shell $-1 $-1 $-1 $75 $-1 $24 #
shell $-1 $-1 $-1 $76 $-1 $26 #
shell $-1 $-1 $-1 $77 $-1 $28 #
shell $-1 $-1 $-1 $78 $-1 $30 #
shell $-1 $-1 $-1 $79 $-1 $32 #
shell $-1 $-1 $-1 $80 $-1 $34 #
shell $-1 $-1 $-1 $81 $-1 $36 #
shell $-1 $-1 $-1 $82 $-1 $38 #
shell $-1 $-1 $-1 $83 $-1 $40 #
shell $-1 $-1 $-1 $84 $-1 $42 #
shell $-1 $-1 $-1 $85 $-1 $44 #
shell $-1 $-1 $-1 $86 $-1 $46 #
shell $-1 $-1 $-1 $87 $-1 $48 #
shell $-1 $-1 $-1 $88 $-1 $50 #
shell $-1 $-1 $-1 $89 $-1 $52 #
face $-1 $90 $91 $54 $-1 $92 forward single #
face $-1 $93 $94 $55 $-1 $95 reversed single #
face $-1 $96 $97 $56 $-1 $98 forward single #
face $-1 $99 $100 $57 $-1 $101 reversed single #
face $-1 $102 $103 $58 $-1 $104 forward single #
face $-1 $105 $106 $59 $-1 $107 forward single #
face $-1 $108 $109 $60 $-1 $110 reversed single #
face $-1 $111 $112 $61 $-1 $113 forward single #
face $-1 $114 $115 $62 $-1 $116 forward single #
face $-1 $117 $118 $63 $-1 $119 reversed single #
face $-1 $120 $121 $64 $-1 $122 forward single #
face $-1 $123 $124 $65 $-1 $125 forward single #
face $-1 $126 $127 $66 $-1 $128 reversed single #
face $-1 $129 $130 $67 $-1 $131 forward single #
face $-1 $132 $133 $68 $-1 $134 forward single #
face $-1 $135 $136 $69 $-1 $137 reversed single #
face $-1 $138 $139 $70 $-1 $140 forward single #
face $-1 $141 $142 $71 $-1 $143 forward single #
face $-1 $144 $145 $54 $-1 $146 reversed single #
loop $-1 $-1 $147 $72 #
plane-surface $-1 0 0 16.551392712452856 0 0 1 1 0 0 forward_v I I I I #
face $-1 $148 $149 $55 $-1 $150 reversed single #
loop $-1 $-1 $151 $73 #
plane-surface $-1 -43.652800109640019 -39.999070254735372 0 1 0 0 0 0 -1 forward_v I I I I #
face $-1 $152 $153 $56 $-1 $154 reversed single #
loop $-1 $-1 $155 $74 #
plane-surface $-1 0 39.700860296068093 9.2522787357122027 0 0 1 1 0 0 forward_v I I I I #
face $-1 $156 $157 $57 $-1 $158 reversed single #
loop $-1 $-1 $159 $75 #
plane-surface $-1 -194.73570414689803 -15.984702282493013 80.658388454310099 0 -1 0 0.84804810408105047 0 -0.52991925155115449 forward_v I I I I #
face $-1 $160 $161 $58 $-1 $162 forward single #
loop $-1 $163 $164 $76 #
cone-surface $-1 -67.548873254283762 -21.363557407941059 9.8345744883070356 0.84804810408105047 0 -0.52991925155115449 0.26495962577557725 0 0.42402405204052523 1 I I 0 1 0.5 forward I I I I #
face $-1 $165 $166 $59 $-1 $167 forward single #
loop $-1 $168 $169 $77 #
cone-surface $-1 -67.548873254283762 -18.136244332672231 9.8345744883070356 0.84804810408105047 0 -0.52991925155115449 0.26495962577557725 0 0.42402405204052523 1 I I 0 1 0.5 forward I I I I #
face $-1 $170 $171 $60 $-1 $172 reversed single #
loop $-1 $-1 $173 $78 #
plane-surface $-1 -194.73570414689803 -0.29820995866728772 80.658388454310099 0 -1 0 0.84804810408105047 0 -0.52991925155115449 forward_v I I I I #
face $-1 $174 $175 $61 $-1 $176 forward single #
loop $-1 $177 $178 $79 #
cone-surface $-1 -67.548873254283762 -5.6770650841153341 9.8345744883070356 0.84804810408105047 0 -0.52991925155115449 0.26495962577557725 0 0.42402405204052523 1 I I 0 1 0.5 forward I I I I #
face $-1 $179 $180 $62 $-1 $181 forward single #
loop $-1 $182 $183 $80 #
cone-surface $-1 -67.548873254283762 -2.4497520088465023 9.8345744883070356 0.84804810408105047 0 -0.52991925155115449 0.26495962577557725 0 0.42402405204052523 1 I I 0 1 0.5 forward I I I I #
face $-1 $184 $185 $63 $-1 $186 reversed single #
loop $-1 $-1 $187 $81 #
plane-surface $-1 -194.73570414689803 15.388282365158444 80.658388454310099 0 -1 0 0.84804810408105047 0 -0.52991925155115449 forward_v I I I I #
face $-1 $188 $189 $64 $-1 $190 forward single #
loop $-1 $191 $192 $82 #
cone-surface $-1 -67.548873254283762 10.009427239710398 9.8345744883070356 0.84804810408105047 0 -0.52991925155115449 0.26495962577557725 0 0.42402405204052523 1 I I 0 1 0.5 forward I I I I #
face $-1 $193 $194 $65 $-1 $195 forward single #
loop $-1 $196 $197 $83 #
cone-surface $-1 -67.548873254283762 13.236740314979222 9.8345744883070356 0.84804810408105047 0 -0.52991925155115449 0.26495962577557725 0 0.42402405204052523 1 I I 0 1 0.5 forward I I I I #
face $-1 $198 $199 $66 $-1 $200 reversed single #
loop $-1 $-1 $201 $84 #
plane-surface $-1 -72.228766747032097 27.309576101170542 4.1075604242097938 -0.84804810408105047 0 0.52991925155115449 0.52991925155115449 0 0.84804810408105047 forward_v I I I I #
face $-1 $202 $203 $67 $-1 $204 forward single #
loop $-1 $205 $206 $85 #
cone-surface $-1 -67.548873254283762 25.69591956353613 9.8345744883070356 0.84804810408105047 0 -0.52991925155115449 0.26495962577557725 0 0.42402405204052523 1 I I 0 1 0.5 forward I I I I #
face $-1 $207 $208 $68 $-1 $209 forward single #
loop $-1 $210 $211 $86 #
cone-surface $-1 -67.548873254283762 28.923232638804954 9.8345744883070356 0.84804810408105047 0 -0.52991925155115449 0.26495962577557725 0 0.42402405204052523 1 I I 0 1 0.5 forward I I I I #
face $-1 $212 $213 $69 $-1 $214 reversed single #
loop $-1 $-1 $215 $87 #
plane-surface $-1 29.753698430685048 18.983436637855561 207.67488444576452 0 1 0 0.54463904215088732 0 0.83867056331134215 forward_v I I I I #
face $-1 $216 $217 $70 $-1 $218 forward single #
loop $-1 $219 $220 $88 #
cone-surface $-1 65.011495010737789 22.438104652463743 11.406534394188064 -0.54463904215088732 0 -0.83867056331134215 0.83867056331134215 0 -0.54463904215088732 1 I I 0 1 1 forward I I I I #
face $-1 $221 $222 $71 $-1 $223 forward single #
loop $-1 $224 $225 $89 #
cone-surface $-1 65.011495010737789 27.620106674376011 11.406534394188064 -0.54463904215088732 0 -0.83867056331134215 0.83867056331134215 0 -0.54463904215088732 1 I I 0 1 1 forward I I I I #
face $-1 $226 $227 $54 $-1 $228 reversed single #
loop $-1 $-1 $229 $90 #
plane-surface $-1 0 0 -16.551392712452856 0 0 1 1 0 0 forward_v I I I I #
coedge $-1 $230 $231 $232 $233 forward $91 $-1 #
face $-1 $234 $235 $55 $-1 $236 reversed single #
loop $-1 $-1 $237 $93 #
plane-surface $-1 -41.389390715883188 -31.671194606318743 0 0 -1 0 0 0 -1 forward_v I I I I #
coedge $-1 $238 $239 $240 $241 forward $94 $-1 #
face $-1 $242 $243 $56 $-1 $244 reversed single #
loop $-1 $-1 $245 $96 #
plane-surface $-1 0 39.700860296068093 0.96996525724287608 0 0 1 1 0 0 forward_v I I I I #
coedge $-1 $246 $247 $248 $249 reversed $97 $-1 #
face $-1 $250 $251 $57 $-1 $252 reversed single #
loop $-1 $-1 $253 $99 #
plane-surface $-1 -72.228766747032097 -19.749900870306647 4.1075604242097938 -0.84804810408105047 0 0.52991925155115449 0.52991925155115449 0 0.84804810408105047 forward_v I I I I #
coedge $-1 $254 $255 $256 $257 reversed $100 $-1 #
face $-1 $-1 $258 $58 $-1 $259 forward single #
loop $-1 $260 $261 $102 #
cone-surface $-1 -66.544852314751054 -21.363557407941059 9.207192595394968 0.84804810408105047 0 -0.52991925155115449 0.13247981288778862 0 0.21201202602026262 1 I I -0.70710678118654746 0.70710678118654746 0.25 forward I I I I #
loop $-1 $-1 $262 $76 #
coedge $-1 $164 $164 $263 $264 reversed $103 $-1 #
face $-1 $-1 $265 $59 $-1 $266 forward single #
loop $-1 $267 $268 $105 #
cone-surface $-1 -66.544852314751054 -18.136244332672231 9.207192595394968 0.84804810408105047 0 -0.52991925155115449 0.13247981288778862 0 0.21201202602026262 1 I I -0.70710678118654746 0.70710678118654746 0.25 forward I I I I #
loop $-1 $-1 $269 $77 #
coedge $-1 $169 $169 $270 $271 reversed $106 $-1 #
face $-1 $272 $273 $60 $-1 $274 reversed single #
loop $-1 $-1 $275 $108 #
plane-surface $-1 -72.228766747032097 -4.0634085464809218 4.1075604242097938 -0.84804810408105047 0 0.52991925155115449 0.52991925155115449 0 0.84804810408105047 forward_v I I I I #
coedge $-1 $276 $277 $278 $279 reversed $109 $-1 #
face $-1 $-1 $280 $61 $-1 $281 forward single #
loop $-1 $282 $283 $111 #
cone-surface $-1 -66.544852314751054 -5.6770650841153341 9.207192595394968 0.84804810408105047 0 -0.52991925155115449 0.13247981288778862 0 0.21201202602026262 1 I I -0.70710678118654746 0.70710678118654746 0.25 forward I I I I #
loop $-1 $-1 $284 $79 #
coedge $-1 $178 $178 $285 $286 reversed $112 $-1 #
face $-1 $-1 $287 $62 $-1 $288 forward single #
loop $-1 $289 $290 $114 #
cone-surface $-1 -66.544852314751054 -2.4497520088465023 9.207192595394968 0.84804810408105047 0 -0.52991925155115449 0.13247981288778862 0 0.21201202602026262 1 I I -0.70710678118654746 0.70710678118654746 0.25 forward I I I I #
loop $-1 $-1 $291 $80 #
coedge $-1 $183 $183 $292 $293 reversed $115 $-1 #
face $-1 $294 $295 $63 $-1 $296 reversed single #
loop $-1 $-1 $297 $117 #
plane-surface $-1 -72.228766747032097 11.62308377734481 4.1075604242097938 -0.84804810408105047 0 0.52991925155115449 0.52991925155115449 0 0.84804810408105047 forward_v I I I I #
coedge $-1 $298 $299 $300 $301 reversed $118 $-1 #
face $-1 $-1 $302 $64 $-1 $303 forward single #
loop $-1 $304 $305 $120 #
cone-surface $-1 -66.544852314751054 10.009427239710398 9.207192595394968 0.84804810408105047 0 -0.52991925155115449 0.13247981288778862 0 0.21201202602026262 1 I I -0.70710678118654746 0.70710678118654746 0.25 forward I I I I #
loop $-1 $-1 $306 $82 #
coedge $-1 $192 $192 $307 $308 reversed $121 $-1 #
face $-1 $-1 $309 $65 $-1 $310 forward single #
loop $-1 $311 $312 $123 #
cone-surface $-1 -66.544852314751054 13.236740314979222 9.207192595394968 0.84804810408105047 0 -0.52991925155115449 0.13247981288778862 0 0.21201202602026262 1 I I -0.70710678118654746 0.70710678118654746 0.25 forward I I I I #
loop $-1 $-1 $313 $83 #
coedge $-1 $197 $197 $314 $315 reversed $124 $-1 #
face $-1 $316 $317 $66 $-1 $318 forward single #
loop $-1 $-1 $319 $126 #
plane-surface $-1 -194.73570414689803 23.544377513356906 80.658388454310099 0 1 0 -0.84804810408105047 0 0.52991925155115449 forward_v I I I I #
coedge $-1 $320 $321 $322 $323 reversed $127 $-1 #
face $-1 $-1 $324 $67 $-1 $325 forward single #
loop $-1 $326 $327 $129 #
cone-surface $-1 -66.544852314751054 25.69591956353613 9.207192595394968 0.84804810408105047 0 -0.52991925155115449 0.13247981288778862 0 0.21201202602026262 1 I I -0.70710678118654746 0.70710678118654746 0.25 forward I I I I #
loop $-1 $-1 $328 $85 #
coedge $-1 $206 $206 $329 $330 reversed $130 $-1 #
face $-1 $-1 $331 $68 $-1 $332 forward single #
loop $-1 $333 $334 $132 #
cone-surface $-1 -66.544852314751054 28.923232638804954 9.207192595394968 0.84804810408105047 0 -0.52991925155115449 0.13247981288778862 0 0.21201202602026262 1 I I -0.70710678118654746 0.70710678118654746 0.25 forward I I I I #
loop $-1 $-1 $335 $86 #
coedge $-1 $211 $211 $336 $337 reversed $133 $-1 #
face $-1 $338 $339 $69 $-1 $340 forward single #
loop $-1 $-1 $341 $135 #
plane-surface $-1 -48.923514243001762 25.029105663419863 86.522603455730675 0.54463904215088732 0 0.83867056331134215 0.83867056331134215 0 -0.54463904215088732 forward_v I I I I #
coedge $-1 $342 $343 $344 $345 reversed $136 $-1 #
face $-1 $-1 $346 $70 $-1 $347 forward single #
loop $-1 $348 $349 $138 #
cone-surface $-1 64.224937302276743 22.438104652463743 10.195341759472111 -0.54463904215088732 0 -0.83867056331134215 0.41933528165567108 0 -0.27231952107544366 1 I I -0.70710678118654746 0.70710678118654746 0.5 forward I I I I #
loop $-1 $-1 $350 $88 #
coedge $-1 $220 $220 $351 $352 reversed $139 $-1 #
face $-1 $-1 $353 $71 $-1 $354 forward single #
loop $-1 $355 $356 $141 #
cone-surface $-1 64.224937302276743 27.620106674376011 10.195341759472111 -0.54463904215088732 0 -0.83867056331134215 0.41933528165567108 0 -0.27231952107544366 1 I I -0.70710678118654746 0.70710678118654746 0.5 forward I I I I #
loop $-1 $-1 $357 $89 #
coedge $-1 $225 $225 $358 $359 reversed $142 $-1 #
face $-1 $360 $361 $54 $-1 $362 reversed single #
loop $-1 $-1 $363 $144 #
plane-surface $-1 0 -48.326945903152001 0 0 1 0 0 0 1 forward_v I I I I #
coedge $-1 $364 $365 $366 $367 forward $145 $-1 #
coedge $-1 $368 $147 $369 $370 forward $91 $-1 #
coedge $-1 $147 $368 $371 $372 forward $91 $-1 #
coedge $-1 $373 $374 $147 $233 reversed $375 $-1 #
edge $-1 $376 -48.326945903152001 $377 48.326945903152001 $232 $378 forward 7 unknown #
face $-1 $379 $380 $55 $-1 $381 forward single #
loop $-1 $-1 $382 $148 #
plane-surface $-1 -39.125981322126357 -39.999070254735372 0 -1 0 0 0 0 1 forward_v I I I I #
coedge $-1 $383 $384 $385 $386 forward $149 $-1 #
coedge $-1 $387 $151 $388 $389 reversed $94 $-1 #
coedge $-1 $151 $387 $390 $391 reversed $94 $-1 #
coedge $-1 $384 $383 $151 $241 reversed $149 $-1 #
edge $-1 $392 -16.551392712452856 $393 16.551392712452856 $240 $394 forward 7 unknown #
face $-1 $395 $396 $56 $-1 $397 reversed single #
loop $-1 $-1 $398 $152 #
plane-surface $-1 0 31.074774688984178 5.1111219964775394 0 1 0 0 0 1 forward_v I I I I #
coedge $-1 $399 $400 $401 $402 reversed $153 $-1 #
coedge $-1 $403 $155 $404 $405 reversed $97 $-1 #
coedge $-1 $155 $403 $406 $407 forward $97 $-1 #
coedge $-1 $408 $409 $155 $249 forward $410 $-1 #
edge $-1 $411 -28.476515755117962 $412 -11.224344540950131 $248 $413 forward 7 unknown #
face $-1 $414 $415 $57 $-1 $416 reversed single #
loop $-1 $-1 $417 $156 #
plane-surface $-1 -194.73570414689803 -23.515099458120282 80.658388454310099 0 1 0 -0.84804810408105047 0 0.52991925155115449 forward_v I I I I #
coedge $-1 $418 $419 $420 $421 reversed $157 $-1 #
coedge $-1 $255 $159 $422 $423 reversed $100 $-1 #
coedge $-1 $159 $254 $418 $424 reversed $100 $-1 #
coedge $-1 $420 $425 $159 $257 forward $415 $-1 #
edge $-1 $426 23.777801514702194 $427 36.221633802945213 $256 $428 forward 7 unknown #
loop $-1 $-1 $263 $160 #
plane-surface $-1 -72.228766747032097 -19.749900870306647 4.1075604242097938 -0.84804810408105047 0 0.52991925155115449 0.52991925155115449 0 0.84804810408105047 forward_v I I I I #
loop $-1 $-1 $429 $102 #
coedge $-1 $261 $261 $262 $430 reversed $161 $-1 #
coedge $-1 $262 $262 $261 $430 forward $163 $-1 #
coedge $-1 $263 $263 $164 $264 forward $258 $-1 #
edge $-1 $431 0 $431 6.2831853071796004 $263 $432 forward 7 unknown #
loop $-1 $-1 $270 $165 #
plane-surface $-1 -72.228766747032097 -19.749900870306647 4.1075604242097938 -0.84804810408105047 0 0.52991925155115449 0.52991925155115449 0 0.84804810408105047 forward_v I I I I #
loop $-1 $-1 $433 $105 #
coedge $-1 $268 $268 $269 $434 reversed $166 $-1 #
coedge $-1 $269 $269 $268 $434 forward $168 $-1 #
coedge $-1 $270 $270 $169 $271 forward $265 $-1 #
edge $-1 $435 0 $435 6.2831853071796004 $270 $436 forward 7 unknown #
face $-1 $437 $438 $60 $-1 $439 forward single #
loop $-1 $-1 $440 $170 #
plane-surface $-1 -194.73570414689803 -7.8286071342945558 80.658388454310099 0 1 0 -0.84804810408105047 0 0.52991925155115449 forward_v I I I I #
coedge $-1 $441 $442 $443 $444 reversed $171 $-1 #
coedge $-1 $277 $173 $445 $446 reversed $109 $-1 #
coedge $-1 $173 $276 $441 $447 reversed $109 $-1 #
coedge $-1 $443 $448 $173 $279 forward $449 $-1 #
edge $-1 $450 23.777801514702194 $451 36.221633802945213 $278 $452 forward 7 unknown #
loop $-1 $-1 $285 $174 #
plane-surface $-1 -72.228766747032097 -4.0634085464809218 4.1075604242097938 -0.84804810408105047 0 0.52991925155115449 0.52991925155115449 0 0.84804810408105047 forward_v I I I I #
loop $-1 $-1 $453 $111 #
coedge $-1 $283 $283 $284 $454 reversed $175 $-1 #
coedge $-1 $284 $284 $283 $454 forward $177 $-1 #
coedge $-1 $285 $285 $178 $286 forward $280 $-1 #
edge $-1 $455 0 $455 6.2831853071796004 $285 $456 forward 7 unknown #
loop $-1 $-1 $292 $179 #
plane-surface $-1 -72.228766747032097 -4.0634085464809218 4.1075604242097938 -0.84804810408105047 0 0.52991925155115449 0.52991925155115449 0 0.84804810408105047 forward_v I I I I #
loop $-1 $-1 $457 $114 #
coedge $-1 $290 $290 $291 $458 reversed $180 $-1 #
coedge $-1 $291 $291 $290 $458 forward $182 $-1 #
coedge $-1 $292 $292 $183 $293 forward $287 $-1 #
edge $-1 $459 0 $459 6.2831853071796004 $292 $460 forward 7 unknown #
face $-1 $461 $462 $63 $-1 $463 forward single #
loop $-1 $-1 $464 $184 #
plane-surface $-1 -194.73570414689803 7.8578851895311761 80.658388454310099 0 1 0 -0.84804810408105047 0 0.52991925155115449 forward_v I I I I #
coedge $-1 $465 $466 $467 $468 reversed $185 $-1 #
coedge $-1 $299 $187 $469 $470 reversed $118 $-1 #
coedge $-1 $187 $298 $465 $471 reversed $118 $-1 #
coedge $-1 $467 $472 $187 $301 forward $473 $-1 #
edge $-1 $474 23.777801514702194 $475 36.221633802945213 $300 $476 forward 7 unknown #
loop $-1 $-1 $307 $188 #
plane-surface $-1 -72.228766747032097 11.62308377734481 4.1075604242097938 -0.84804810408105047 0 0.52991925155115449 0.52991925155115449 0 0.84804810408105047 forward_v I I I I #
loop $-1 $-1 $477 $120 #
coedge $-1 $305 $305 $306 $478 reversed $189 $-1 #
coedge $-1 $306 $306 $305 $478 forward $191 $-1 #
coedge $-1 $307 $307 $192 $308 forward $302 $-1 #
edge $-1 $479 0 $479 6.2831853071796004 $307 $480 forward 7 unknown #
loop $-1 $-1 $314 $193 #
plane-surface $-1 -72.228766747032097 11.62308377734481 4.1075604242097938 -0.84804810408105047 0 0.52991925155115449 0.52991925155115449 0 0.84804810408105047 forward_v I I I I #
loop $-1 $-1 $481 $123 #
coedge $-1 $312 $312 $313 $482 reversed $194 $-1 #
coedge $-1 $313 $313 $312 $482 forward $196 $-1 #
coedge $-1 $314 $314 $197 $315 forward $309 $-1 #
edge $-1 $483 0 $483 6.2831853071796004 $314 $484 forward 7 unknown #
face $-1 $485 $486 $66 $-1 $487 reversed single #
loop $-1 $-1 $488 $198 #
plane-surface $-1 0 0 16.551392712452856 0 0 1 1 0 0 forward_v I I I I #
coedge $-1 $489 $490 $491 $492 reversed $199 $-1 #
coedge $-1 $493 $201 $494 $495 reversed $127 $-1 #
coedge $-1 $201 $493 $489 $496 forward $127 $-1 #
coedge $-1 $491 $497 $201 $323 forward $486 $-1 #
edge $-1 $498 -17.419986638398907 $499 -9.8895894627716352 $322 $500 forward 7 unknown #
loop $-1 $-1 $329 $202 #
plane-surface $-1 -72.228766747032097 27.309576101170542 4.1075604242097938 -0.84804810408105047 0 0.52991925155115449 0.52991925155115449 0 0.84804810408105047 forward_v I I I I #
loop $-1 $-1 $501 $129 #
coedge $-1 $327 $327 $328 $502 reversed $203 $-1 #
coedge $-1 $328 $328 $327 $502 forward $205 $-1 #
coedge $-1 $329 $329 $206 $330 forward $324 $-1 #
edge $-1 $503 0 $503 6.2831853071796004 $329 $504 forward 7 unknown #
loop $-1 $-1 $336 $207 #
plane-surface $-1 -72.228766747032097 27.309576101170542 4.1075604242097938 -0.84804810408105047 0 0.52991925155115449 0.52991925155115449 0 0.84804810408105047 forward_v I I I I #
loop $-1 $-1 $505 $132 #
coedge $-1 $334 $334 $335 $506 reversed $208 $-1 #
coedge $-1 $335 $335 $334 $506 forward $210 $-1 #
coedge $-1 $336 $336 $211 $337 forward $331 $-1 #
edge $-1 $507 0 $507 6.2831853071796004 $336 $508 forward 7 unknown #
face $-1 $509 $510 $69 $-1 $511 reversed single #
loop $-1 $-1 $512 $212 #
plane-surface $-1 0 0 16.551392712452856 0 0 1 1 0 0 forward_v I I I I #
coedge $-1 $513 $514 $515 $516 reversed $213 $-1 #
coedge $-1 $343 $215 $517 $518 reversed $136 $-1 #
coedge $-1 $215 $342 $513 $519 reversed $136 $-1 #
coedge $-1 $515 $520 $215 $345 forward $510 $-1 #
edge $-1 $521 87.286049510429407 $522 95.992051440838381 $344 $523 forward 7 unknown #
loop $-1 $-1 $351 $216 #
plane-surface $-1 -48.923514243001762 25.029105663419863 86.522603455730675 0.54463904215088732 0 0.83867056331134215 0.83867056331134215 0 -0.54463904215088732 forward_v I I I I #
loop $-1 $-1 $524 $138 #
coedge $-1 $349 $349 $350 $525 reversed $217 $-1 #
coedge $-1 $350 $350 $349 $525 forward $219 $-1 #
coedge $-1 $351 $351 $220 $352 forward $346 $-1 #
edge $-1 $526 0 $526 6.2831853071796004 $351 $527 forward 7 unknown #
loop $-1 $-1 $358 $221 #
plane-surface $-1 -48.923514243001762 25.029105663419863 86.522603455730675 0.54463904215088732 0 0.83867056331134215 0.83867056331134215 0 -0.54463904215088732 forward_v I I I I #
loop $-1 $-1 $528 $141 #
coedge $-1 $356 $356 $357 $529 reversed $222 $-1 #
coedge $-1 $357 $357 $356 $529 forward $224 $-1 #
coedge $-1 $358 $358 $225 $359 forward $353 $-1 #
edge $-1 $530 0 $530 6.2831853071796004 $358 $531 forward 7 unknown #
face $-1 $532 $533 $54 $-1 $534 reversed single #
loop $-1 $-1 $535 $226 #
plane-surface $-1 -72.228766747032068 0 0 1 0 0 0 0 -1 forward_v I I I I #
coedge $-1 $536 $371 $537 $538 forward $227 $-1 #
coedge $-1 $539 $229 $536 $540 forward $145 $-1 #
coedge $-1 $229 $539 $541 $542 forward $145 $-1 #
coedge $-1 $374 $373 $229 $367 reversed $375 $-1 #
edge $-1 $543 -48.326945903152001 $544 48.326945903152001 $366 $545 forward 7 unknown #
coedge $-1 $231 $230 $546 $547 forward $91 $-1 #
coedge $-1 $548 $549 $230 $370 reversed $533 $-1 #
edge $-1 $377 -72.228766747032068 $550 72.228766747032068 $369 $551 forward 7 unknown #
coedge $-1 $363 $552 $231 $372 reversed $227 $-1 #
edge $-1 $553 -72.228766747032068 $376 72.228766747032068 $371 $554 forward 7 unknown #
coedge $-1 $366 $232 $552 $555 forward $375 $-1 #
coedge $-1 $232 $366 $548 $556 reversed $375 $-1 #
loop $-1 $-1 $373 $532 #
vertex $-1 $233 $557 #
vertex $-1 $233 $558 #
straight-curve $-1 72.228766747032068 0 16.551392712452856 0 1 0 I I #
face $-1 $559 $560 $55 $-1 $561 reversed single #
loop $-1 $-1 $562 $234 #
plane-surface $-1 0 0 16.551392712452856 0 0 1 1 0 0 forward_v I I I I #
coedge $-1 $563 $564 $565 $566 reversed $235 $-1 #
coedge $-1 $240 $237 $567 $568 reversed $149 $-1 #
coedge $-1 $237 $240 $569 $570 reversed $149 $-1 #
coedge $-1 $564 $563 $237 $386 reversed $235 $-1 #
edge $-1 $571 -16.551392712452856 $572 16.551392712452856 $385 $573 forward 7 unknown #
coedge $-1 $239 $238 $574 $575 reversed $94 $-1 #
coedge $-1 $567 $576 $238 $389 forward $560 $-1 #
edge $-1 $577 -28.327410775784315 $393 -11.671659478951057 $388 $578 forward 7 unknown #
coedge $-1 $579 $569 $239 $391 forward $380 $-1 #
edge $-1 $392 11.671659478951057 $580 28.327410775784315 $390 $581 forward 7 unknown #
vertex $-1 $391 $582 #
vertex $-1 $389 $583 #
straight-curve $-1 -43.652800109640019 -31.671194606318743 0 0 0 -1 I I #
face $-1 $584 $410 $56 $-1 $585 reversed single #
loop $-1 $-1 $586 $242 #
plane-surface $-1 -72.228766747032068 0 0 1 0 0 0 0 -1 forward_v I I I I #
coedge $-1 $587 $406 $588 $589 reversed $243 $-1 #
coedge $-1 $590 $245 $587 $591 forward $153 $-1 #
coedge $-1 $245 $590 $592 $593 reversed $153 $-1 #
coedge $-1 $409 $408 $245 $402 forward $410 $-1 #
edge $-1 $594 11.224344540950131 $595 28.476515755117962 $401 $596 forward 7 unknown #
coedge $-1 $247 $246 $597 $598 reversed $97 $-1 #
coedge $-1 $599 $600 $246 $405 forward $601 $-1 #
edge $-1 $602 -72.228766747032068 $411 72.228766747032068 $404 $603 forward 7 unknown #
coedge $-1 $398 $604 $247 $407 reversed $243 $-1 #
edge $-1 $605 -72.228766747032068 $412 72.228766747032068 $406 $606 forward 7 unknown #
coedge $-1 $401 $248 $604 $607 forward $410 $-1 #
coedge $-1 $248 $401 $599 $608 reversed $410 $-1 #
loop $-1 $-1 $248 $395 #
vertex $-1 $608 $609 #
vertex $-1 $249 $610 #
straight-curve $-1 72.228766747032068 19.850430148034047 9.2522787357122027 0 -1 0 I I #
face $-1 $-1 $611 $57 $-1 $612 forward single #
loop $-1 $-1 $256 $250 #
plane-surface $-1 -72.228766747032068 0 0 1 0 0 0 0 -1 forward_v I I I I #
coedge $-1 $613 $614 $615 $616 reversed $251 $-1 #
coedge $-1 $617 $253 $255 $424 forward $157 $-1 #
coedge $-1 $253 $617 $613 $618 forward $157 $-1 #
coedge $-1 $615 $256 $253 $421 forward $415 $-1 #
edge $-1 $427 6.1097518473396892 $619 13.640149022966959 $420 $620 forward 7 unknown #
coedge $-1 $621 $622 $254 $423 forward $611 $-1 #
edge $-1 $623 -32.91485448488865 $426 -25.139085326416946 $422 $624 forward 7 unknown #
edge $-1 $427 5.3475330259696214e-014 $623 14.673498152238979 $255 $625 forward 7 unknown #
coedge $-1 $256 $615 $621 $626 reversed $415 $-1 #
vertex $-1 $626 $627 #
vertex $-1 $257 $628 #
straight-curve $-1 -72.228766747032068 -15.984702282493013 40.32919422715505 0 0 -1 I I #
coedge $-1 $429 $429 $-1 $629 reversed $260 $-1 #
edge $-1 $630 0 $630 6.2831853071796004 $261 $631 forward 7 unknown #
vertex $-1 $264 $632 #
ellipse-curve $-1 -68.340882167796238 -21.363557407941059 10.329476568331328 -0.84804810408105047 0 0.52991925155115449 0.26495962577557725 0 0.42402405204052523 1 I I #
coedge $-1 $433 $433 $-1 $633 reversed $267 $-1 #
edge $-1 $634 0 $634 6.2831853071796004 $268 $635 forward 7 unknown #
vertex $-1 $271 $636 #
ellipse-curve $-1 -68.340882167796238 -18.136244332672231 10.329476568331328 -0.84804810408105047 0 0.52991925155115449 0.26495962577557725 0 0.42402405204052523 1 I I #
face $-1 $-1 $449 $60 $-1 $637 reversed single #
loop $-1 $-1 $638 $272 #
plane-surface $-1 0 0 16.551392712452856 0 0 1 1 0 0 forward_v I I I I #
coedge $-1 $639 $640 $641 $642 reversed $273 $-1 #
coedge $-1 $643 $275 $277 $447 forward $171 $-1 #
coedge $-1 $275 $643 $639 $644 forward $171 $-1 #
coedge $-1 $641 $278 $275 $444 forward $449 $-1 #
edge $-1 $451 -1.7334943145731732 $645 5.7969028610540949 $443 $646 forward 7 unknown #
coedge $-1 $647 $648 $276 $446 forward $438 $-1 #
edge $-1 $649 -32.91485448488865 $450 -25.139085326416946 $445 $650 forward 7 unknown #
edge $-1 $451 5.3475330259696214e-014 $649 14.673498152238979 $277 $651 forward 7 unknown #
coedge $-1 $278 $641 $647 $652 reversed $449 $-1 #
loop $-1 $-1 $641 $437 #
vertex $-1 $652 $653 #
vertex $-1 $279 $654 #
straight-curve $-1 -72.228766747032068 -0.29820995866728772 40.32919422715505 0 0 -1 I I #
coedge $-1 $453 $453 $-1 $655 reversed $282 $-1 #
edge $-1 $656 0 $656 6.2831853071796004 $283 $657 forward 7 unknown #
vertex $-1 $286 $658 #
ellipse-curve $-1 -68.340882167796238 -5.6770650841153341 10.329476568331328 -0.84804810408105047 0 0.52991925155115449 0.26495962577557725 0 0.42402405204052523 1 I I #
coedge $-1 $457 $457 $-1 $659 reversed $289 $-1 #
edge $-1 $660 0 $660 6.2831853071796004 $290 $661 forward 7 unknown #
vertex $-1 $293 $662 #
ellipse-curve $-1 -68.340882167796238 -2.4497520088465023 10.329476568331328 -0.84804810408105047 0 0.52991925155115449 0.26495962577557725 0 0.42402405204052523 1 I I #
face $-1 $-1 $473 $63 $-1 $663 reversed single #
loop $-1 $-1 $664 $294 #
plane-surface $-1 0 0 16.551392712452856 0 0 1 1 0 0 forward_v I I I I #
coedge $-1 $665 $666 $667 $668 reversed $295 $-1 #
coedge $-1 $669 $297 $299 $471 forward $185 $-1 #
coedge $-1 $297 $669 $665 $670 forward $185 $-1 #
coedge $-1 $667 $300 $297 $468 forward $473 $-1 #
edge $-1 $475 -9.5767404764860391 $671 -2.046343300858771 $467 $672 forward 7 unknown #
coedge $-1 $673 $674 $298 $470 forward $462 $-1 #
edge $-1 $675 -32.91485448488865 $474 -25.139085326416946 $469 $676 forward 7 unknown #
edge $-1 $475 5.3475330259696214e-014 $675 14.673498152238979 $299 $677 forward 7 unknown #
coedge $-1 $300 $667 $673 $678 reversed $473 $-1 #
loop $-1 $-1 $667 $461 #
vertex $-1 $678 $679 #
vertex $-1 $301 $680 #
straight-curve $-1 -72.228766747032068 15.388282365158444 40.32919422715505 0 0 -1 I I #
coedge $-1 $477 $477 $-1 $681 reversed $304 $-1 #
edge $-1 $682 0 $682 6.2831853071796004 $305 $683 forward 7 unknown #
vertex $-1 $308 $684 #
ellipse-curve $-1 -68.340882167796238 10.009427239710398 10.329476568331328 -0.84804810408105047 0 0.52991925155115449 0.26495962577557725 0 0.42402405204052523 1 I I #
coedge $-1 $481 $481 $-1 $685 reversed $311 $-1 #
edge $-1 $686 0 $686 6.2831853071796004 $312 $687 forward 7 unknown #
vertex $-1 $315 $688 #
ellipse-curve $-1 -68.340882167796238 13.236740314979222 10.329476568331328 -0.84804810408105047 0 0.52991925155115449 0.26495962577557725 0 0.42402405204052523 1 I I #
face $-1 $-1 $689 $66 $-1 $690 forward single #
loop $-1 $-1 $491 $316 #
plane-surface $-1 -72.228766747032068 0 0 1 0 0 0 0 -1 forward_v I I I I #
coedge $-1 $691 $692 $490 $693 forward $317 $-1 #
coedge $-1 $490 $319 $321 $496 reversed $199 $-1 #
coedge $-1 $319 $489 $488 $693 reversed $199 $-1 #
coedge $-1 $694 $322 $319 $492 forward $486 $-1 #
edge $-1 $499 -36.221633802945213 $695 -23.777801514702194 $491 $696 forward 7 unknown #
coedge $-1 $321 $320 $691 $697 reversed $127 $-1 #
coedge $-1 $698 $699 $320 $495 forward $689 $-1 #
edge $-1 $700 4.8897430996312305 $498 19.563241251870156 $494 $701 forward 7 unknown #
edge $-1 $702 -14.673498152238979 $499 -5.3475330259696214e-014 $489 $703 forward 7 unknown #
coedge $-1 $322 $694 $698 $704 forward $486 $-1 #
vertex $-1 $495 $705 #
vertex $-1 $323 $706 #
straight-curve $-1 -72.228766747032068 13.654788050585271 4.10756042420984 0 -1 0 I I #
coedge $-1 $501 $501 $-1 $707 reversed $326 $-1 #
edge $-1 $708 0 $708 6.2831853071796004 $327 $709 forward 7 unknown #
vertex $-1 $330 $710 #
ellipse-curve $-1 -68.340882167796238 25.69591956353613 10.329476568331328 -0.84804810408105047 0 0.52991925155115449 0.26495962577557725 0 0.42402405204052523 1 I I #
coedge $-1 $505 $505 $-1 $711 reversed $333 $-1 #
edge $-1 $712 0 $712 6.2831853071796004 $334 $713 forward 7 unknown #
vertex $-1 $337 $714 #
ellipse-curve $-1 -68.340882167796238 28.923232638804954 10.329476568331328 -0.84804810408105047 0 0.52991925155115449 0.26495962577557725 0 0.42402405204052523 1 I I #
face $-1 $-1 $715 $69 $-1 $716 forward single #
loop $-1 $-1 $717 $338 #
plane-surface $-1 72.228766747032068 0 0 -1 0 0 0 0 1 forward_v I I I I #
coedge $-1 $718 $719 $720 $721 forward $339 $-1 #
coedge $-1 $722 $341 $343 $519 forward $213 $-1 #
coedge $-1 $341 $722 $723 $724 forward $213 $-1 #
coedge $-1 $717 $344 $341 $516 forward $510 $-1 #
edge $-1 $522 6.4688838061456302 $725 18.560221857274247 $515 $726 forward 7 unknown #
coedge $-1 $719 $718 $342 $518 forward $339 $-1 #
edge $-1 $727 43.945850433872259 $521 57.351917531689544 $517 $728 forward 7 unknown #
edge $-1 $522 -144.45753349406411 $727 -128.47263109700631 $343 $729 forward 7 unknown #
coedge $-1 $344 $717 $719 $730 reversed $510 $-1 #
vertex $-1 $730 $731 #
vertex $-1 $345 $732 #
straight-curve $-1 72.228766747032068 18.983436637855561 103.83744222288226 0 0 -1 I I #
coedge $-1 $524 $524 $-1 $733 reversed $348 $-1 #
edge $-1 $734 0 $734 6.2831853071796004 $349 $735 forward 7 unknown #
vertex $-1 $352 $736 #
ellipse-curve $-1 65.525733198123419 22.438104652463743 12.198391747248378 0.54463904215088732 0 0.83867056331134215 0.83867056331134215 0 -0.54463904215088732 1 I I #
coedge $-1 $528 $528 $-1 $737 reversed $355 $-1 #
edge $-1 $738 0 $738 6.2831853071796004 $356 $739 forward 7 unknown #
vertex $-1 $359 $740 #
ellipse-curve $-1 65.525733198123419 27.620106674376011 12.198391747248378 0.54463904215088732 0 0.83867056331134215 0.83867056331134215 0 -0.54463904215088732 1 I I #
face $-1 $-1 $375 $54 $-1 $741 reversed single #
loop $-1 $-1 $548 $360 #
plane-surface $-1 0 48.326945903152001 0 0 -1 0 0 0 -1 forward_v I I I I #
coedge $-1 $742 $546 $549 $743 forward $361 $-1 #
coedge $-1 $552 $363 $364 $540 reversed $227 $-1 #
coedge $-1 $546 $742 $363 $538 reversed $361 $-1 #
edge $-1 $553 -16.551392712452856 $744 16.551392712452856 $537 $745 forward 7 unknown #
coedge $-1 $365 $364 $742 $746 forward $145 $-1 #
edge $-1 $544 -72.228766747032068 $744 72.228766747032068 $536 $747 forward 7 unknown #
coedge $-1 $549 $548 $365 $542 reversed $533 $-1 #
edge $-1 $748 -72.228766747032068 $543 72.228766747032068 $541 $749 forward 7 unknown #
vertex $-1 $367 $750 #
vertex $-1 $555 $751 #
straight-curve $-1 72.228766747032068 0 -16.551392712452856 0 -1 0 I I #
coedge $-1 $535 $537 $368 $547 reversed $361 $-1 #
edge $-1 $550 -48.326945903152001 $553 48.326945903152001 $546 $752 forward 7 unknown #
coedge $-1 $541 $369 $374 $556 forward $533 $-1 #
coedge $-1 $369 $541 $535 $743 reversed $533 $-1 #
vertex $-1 $370 $753 #
straight-curve $-1 0 48.326945903152001 16.551392712452856 -1 0 0 I I #
coedge $-1 $371 $536 $373 $555 reversed $227 $-1 #
vertex $-1 $547 $754 #
straight-curve $-1 0 -48.326945903152001 16.551392712452856 1 0 0 I I #
edge $-1 $376 -16.551392712452856 $544 16.551392712452856 $373 $755 forward 7 unknown #
edge $-1 $377 -16.551392712452856 $543 16.551392712452856 $374 $756 forward 7 unknown #
point $-1 72.228766747032068 -48.326945903152001 16.551392712452856 #
point $-1 72.228766747032068 48.326945903152001 16.551392712452856 #
face $-1 $-1 $757 $55 $-1 $758 reversed single #
loop $-1 $-1 $759 $379 #
plane-surface $-1 0 0 -16.551392712452856 0 0 1 1 0 0 forward_v I I I I #
coedge $-1 $569 $579 $564 $760 forward $380 $-1 #
coedge $-1 $385 $382 $759 $761 reversed $235 $-1 #
coedge $-1 $382 $385 $562 $760 reversed $235 $-1 #
coedge $-1 $762 $763 $382 $566 forward $757 $-1 #
edge $-1 $764 -16.551392712452856 $765 16.551392712452856 $565 $766 forward 7 unknown #
coedge $-1 $759 $388 $383 $568 forward $560 $-1 #
edge $-1 $393 -22.958104751698425 $572 -18.431285964184763 $567 $767 forward 7 unknown #
coedge $-1 $390 $562 $384 $570 forward $380 $-1 #
edge $-1 $571 18.431285964184763 $392 22.958104751698425 $569 $768 forward 7 unknown #
vertex $-1 $570 $769 #
vertex $-1 $568 $770 #
straight-curve $-1 -39.125981322126357 -31.671194606318743 0 0 0 -1 I I #
coedge $-1 $763 $762 $387 $575 forward $757 $-1 #
edge $-1 $580 -16.551392712452856 $577 16.551392712452856 $574 $771 forward 7 unknown #
coedge $-1 $388 $759 $763 $772 forward $560 $-1 #
vertex $-1 $389 $773 #
straight-curve $-1 -43.652800109640019 -19.999535127367686 -16.551392712452856 0 1 0 I I #
coedge $-1 $562 $390 $762 $774 forward $380 $-1 #
vertex $-1 $774 $775 #
straight-curve $-1 -43.652800109640019 -19.999535127367686 16.551392712452856 0 -1 0 I I #
point $-1 -43.652800109640019 -31.671194606318743 16.551392712452856 #
point $-1 -43.652800109640019 -31.671194606318743 -16.551392712452856 #
face $-1 $-1 $601 $56 $-1 $776 reversed single #
plane-surface $-1 72.228766747032068 0 0 -1 0 0 0 0 1 forward_v I I I I #
coedge $-1 $588 $777 $590 $778 forward $396 $-1 #
coedge $-1 $604 $398 $399 $591 reversed $243 $-1 #
coedge $-1 $597 $586 $398 $589 forward $396 $-1 #
edge $-1 $779 -1.5855957409958936 $605 6.696717737473433 $588 $780 forward 7 unknown #
coedge $-1 $400 $399 $586 $778 reversed $153 $-1 #
edge $-1 $594 -72.228766747032068 $779 72.228766747032068 $587 $781 forward 7 unknown #
coedge $-1 $600 $599 $400 $593 forward $601 $-1 #
edge $-1 $595 -72.228766747032068 $782 72.228766747032068 $592 $783 forward 7 unknown #
vertex $-1 $402 $784 #
vertex $-1 $402 $785 #
straight-curve $-1 72.228766747032068 19.850430148034047 0.96996525724287608 0 1 0 I I #
coedge $-1 $777 $588 $403 $598 forward $396 $-1 #
edge $-1 $605 11.224344540950131 $602 28.476515755117962 $597 $786 forward 7 unknown #
coedge $-1 $592 $404 $409 $608 forward $601 $-1 #
coedge $-1 $404 $592 $777 $787 reversed $601 $-1 #
loop $-1 $-1 $592 $584 #
vertex $-1 $787 $788 #
straight-curve $-1 0 48.326945903152001 9.2522787357122027 1 0 0 I I #
coedge $-1 $406 $587 $408 $607 reversed $243 $-1 #
vertex $-1 $598 $789 #
straight-curve $-1 0 31.074774688984178 9.2522787357122027 1 0 0 I I #
edge $-1 $412 -6.696717737473433 $594 1.5855957409958936 $408 $790 forward 7 unknown #
edge $-1 $411 -9.2522787357122027 $595 -0.96996525724287608 $409 $791 forward 7 unknown #
point $-1 72.228766747032068 48.326945903152009 9.2522787357122027 #
point $-1 72.228766747032068 31.074774688984178 9.2522787357122027 #
loop $-1 $-1 $422 $414 #
plane-surface $-1 0 0 16.551392712452856 0 0 1 1 0 0 forward_v I I I I #
coedge $-1 $614 $417 $419 $618 reversed $251 $-1 #
coedge $-1 $417 $613 $792 $793 reversed $251 $-1 #
coedge $-1 $425 $420 $417 $616 forward $415 $-1 #
edge $-1 $619 -36.221633802945213 $794 -23.777801514702194 $615 $795 forward 7 unknown #
coedge $-1 $419 $418 $622 $796 reversed $157 $-1 #
edge $-1 $797 -14.673498152238979 $619 -5.3475330259696214e-014 $613 $798 forward 7 unknown #
vertex $-1 $421 $799 #
straight-curve $-1 -72.228766747032068 -9.8749504351533233 4.10756042420984 0 -1 0 I I #
coedge $-1 $792 $422 $425 $626 forward $611 $-1 #
coedge $-1 $422 $792 $617 $796 forward $611 $-1 #
vertex $-1 $423 $800 #
straight-curve $-1 -97.367852073449015 -15.984702282493013 16.551392712452852 -1 0 0 I I #
straight-curve $-1 -72.228766747032097 -15.984702282493013 4.1075604242097938 0.52991925155115449 0 0.84804810408105047 I I #
edge $-1 $426 15.984702282493013 $794 23.515099458120282 $425 $801 forward 7 unknown #
point $-1 -72.228766747032068 -15.984702282493013 16.551392712452856 #
point $-1 -72.228766747032068 -15.984702282493013 4.1075604242098391 #
edge $-1 $802 1 $802 0 $429 $-1 forward 7 unknown #
vertex $-1 $430 $803 #
ellipse-curve $-1 -66.756864340771315 -21.363557407941059 9.3396724082827571 -0.84804810408105047 0 0.52991925155115449 0.26495962577557725 0 0.42402405204052523 1 I I #
point $-1 -68.075922542020635 -21.363557407941059 10.75350062037184 #
edge $-1 $804 1 $804 0 $433 $-1 forward 7 unknown #
vertex $-1 $434 $805 #
ellipse-curve $-1 -66.756864340771315 -18.136244332672231 9.3396724082827571 -0.84804810408105047 0 0.52991925155115449 0.26495962577557725 0 0.42402405204052523 1 I I #
point $-1 -68.075922542020635 -18.136244332672231 10.75350062037184 #
plane-surface $-1 -72.228766747032068 0 0 1 0 0 0 0 -1 forward_v I I I I #
coedge $-1 $648 $647 $640 $806 forward $438 $-1 #
coedge $-1 $640 $440 $442 $644 reversed $273 $-1 #
coedge $-1 $440 $639 $638 $806 reversed $273 $-1 #
coedge $-1 $448 $443 $440 $642 forward $449 $-1 #
edge $-1 $645 -36.221633802945213 $807 -23.777801514702194 $641 $808 forward 7 unknown #
coedge $-1 $442 $441 $648 $809 reversed $171 $-1 #
edge $-1 $810 -14.673498152238979 $645 -5.3475330259696214e-014 $639 $811 forward 7 unknown #
vertex $-1 $444 $812 #
straight-curve $-1 -72.228766747032068 -2.0317042732404609 4.10756042420984 0 -1 0 I I #
coedge $-1 $638 $445 $448 $652 forward $438 $-1 #
coedge $-1 $445 $638 $643 $809 forward $438 $-1 #
vertex $-1 $446 $813 #
straight-curve $-1 -97.367852073449015 -0.29820995866728772 16.551392712452852 -1 0 0 I I #
straight-curve $-1 -72.228766747032097 -0.29820995866728772 4.1075604242097938 0.52991925155115449 0 0.84804810408105047 I I #
edge $-1 $450 0.29820995866728772 $807 7.8286071342945558 $448 $814 forward 7 unknown #
point $-1 -72.228766747032068 -0.29820995866728772 16.551392712452856 #
point $-1 -72.228766747032068 -0.29820995866728772 4.1075604242098391 #
edge $-1 $815 1 $815 0 $453 $-1 forward 7 unknown #
vertex $-1 $454 $816 #
ellipse-curve $-1 -66.756864340771315 -5.6770650841153341 9.3396724082827571 -0.84804810408105047 0 0.52991925155115449 0.26495962577557725 0 0.42402405204052523 1 I I #
point $-1 -68.075922542020635 -5.6770650841153341 10.75350062037184 #
edge $-1 $817 1 $817 0 $457 $-1 forward 7 unknown #
vertex $-1 $458 $818 #
ellipse-curve $-1 -66.756864340771315 -2.4497520088465023 9.3396724082827571 -0.84804810408105047 0 0.52991925155115449 0.26495962577557725 0 0.42402405204052523 1 I I #
point $-1 -68.075922542020635 -2.4497520088465023 10.75350062037184 #
plane-surface $-1 -72.228766747032068 0 0 1 0 0 0 0 -1 forward_v I I I I #
coedge $-1 $674 $673 $666 $819 forward $462 $-1 #
coedge $-1 $666 $464 $466 $670 reversed $295 $-1 #
coedge $-1 $464 $665 $664 $819 reversed $295 $-1 #
coedge $-1 $472 $467 $464 $668 forward $473 $-1 #
edge $-1 $671 -36.221633802945213 $820 -23.777801514702194 $667 $821 forward 7 unknown #
coedge $-1 $466 $465 $674 $822 reversed $185 $-1 #
edge $-1 $823 -14.673498152238979 $671 -5.3475330259696214e-014 $665 $824 forward 7 unknown #
vertex $-1 $468 $825 #
straight-curve $-1 -72.228766747032068 5.8115418886724051 4.10756042420984 0 -1 0 I I #
coedge $-1 $664 $469 $472 $678 forward $462 $-1 #
coedge $-1 $469 $664 $669 $822 forward $462 $-1 #
vertex $-1 $470 $826 #
straight-curve $-1 -97.367852073449015 15.388282365158444 16.551392712452852 -1 0 0 I I #
straight-curve $-1 -72.228766747032097 15.388282365158444 4.1075604242097938 0.52991925155115449 0 0.84804810408105047 I I #
edge $-1 $474 -15.388282365158444 $820 -7.8578851895311761 $472 $827 forward 7 unknown #
point $-1 -72.228766747032068 15.388282365158444 16.551392712452856 #
point $-1 -72.228766747032068 15.388282365158444 4.1075604242098391 #
edge $-1 $828 1 $828 0 $477 $-1 forward 7 unknown #
vertex $-1 $478 $829 #
ellipse-curve $-1 -66.756864340771315 10.009427239710398 9.3396724082827571 -0.84804810408105047 0 0.52991925155115449 0.26495962577557725 0 0.42402405204052523 1 I I #
point $-1 -68.075922542020635 10.009427239710398 10.75350062037184 #
edge $-1 $830 1 $830 0 $481 $-1 forward 7 unknown #
vertex $-1 $482 $831 #
ellipse-curve $-1 -66.756864340771315 13.236740314979222 9.3396724082827571 -0.84804810408105047 0 0.52991925155115449 0.26495962577557725 0 0.42402405204052523 1 I I #
point $-1 -68.075922542020635 13.236740314979222 10.75350062037184 #
loop $-1 $-1 $494 $485 #
plane-surface $-1 0 31.074774688984178 5.1111219964775394 0 1 0 0 0 1 forward_v I I I I #
coedge $-1 $832 $488 $493 $697 forward $317 $-1 #
coedge $-1 $488 $832 $694 $833 forward $317 $-1 #
edge $-1 $695 25.139085326416946 $702 32.91485448488865 $488 $834 forward 7 unknown #
coedge $-1 $497 $491 $692 $833 reversed $486 $-1 #
vertex $-1 $693 $835 #
straight-curve $-1 -72.228766747032068 23.544377513356906 40.32919422715505 0 0 1 I I #
edge $-1 $702 9.8895894627716352 $700 17.419986638398907 $691 $836 forward 7 unknown #
coedge $-1 $699 $494 $497 $704 reversed $689 $-1 #
coedge $-1 $494 $698 $832 $837 reversed $689 $-1 #
vertex $-1 $837 $838 #
straight-curve $-1 -61.861828584926364 31.074774688984178 20.698130077538522 -0.52991925155115449 0 -0.84804810408105047 I I #
vertex $-1 $697 $839 #
straight-curve $-1 -72.228766747032097 23.544377513356906 4.1075604242097938 -0.52991925155115449 0 -0.84804810408105047 I I #
edge $-1 $840 23.777801514702194 $498 36.221633802945213 $497 $841 forward 7 unknown #
point $-1 -72.228766747032068 31.074774688984178 4.1075604242098391 #
point $-1 -72.228766747032068 23.544377513356906 4.1075604242098391 #
edge $-1 $842 1 $842 0 $501 $-1 forward 7 unknown #
vertex $-1 $502 $843 #
ellipse-curve $-1 -66.756864340771315 25.69591956353613 9.3396724082827571 -0.84804810408105047 0 0.52991925155115449 0.26495962577557725 0 0.42402405204052523 1 I I #
point $-1 -68.075922542020635 25.69591956353613 10.75350062037184 #
edge $-1 $844 1 $844 0 $505 $-1 forward 7 unknown #
vertex $-1 $506 $845 #
ellipse-curve $-1 -66.756864340771315 28.923232638804954 9.3396724082827571 -0.84804810408105047 0 0.52991925155115449 0.26495962577557725 0 0.42402405204052523 1 I I #
point $-1 -68.075922542020635 28.923232638804954 10.75350062037184 #
loop $-1 $-1 $723 $509 #
plane-surface $-1 0 31.074774688984178 5.1111219964775394 0 1 0 0 0 1 forward_v I I I I #
coedge $-1 $520 $515 $846 $847 forward $510 $-1 #
coedge $-1 $517 $512 $722 $848 forward $339 $-1 #
coedge $-1 $512 $517 $520 $730 forward $339 $-1 #
coedge $-1 $846 $723 $512 $721 reversed $715 $-1 #
edge $-1 $849 -57.351917531689544 $850 -43.945850433872259 $512 $851 forward 7 unknown #
coedge $-1 $514 $513 $718 $848 reversed $213 $-1 #
coedge $-1 $720 $846 $514 $724 reversed $715 $-1 #
edge $-1 $850 128.47263109700631 $725 144.45753349406414 $723 $852 forward 7 unknown #
vertex $-1 $847 $853 #
straight-curve $-1 72.228766747032068 12.514552831709931 7.8453907820438786 0 1 0 I I #
vertex $-1 $518 $854 #
straight-curve $-1 14.876849215342524 18.983436637855561 16.551392712452852 1 0 0 I I #
straight-curve $-1 -48.923514243001762 18.983436637855561 86.522603455730675 -0.83867056331134215 0 0.54463904215088732 I I #
edge $-1 $521 18.983436637855561 $849 31.074774688984164 $520 $855 forward 7 unknown #
point $-1 72.228766747032068 18.983436637855561 16.551392712452856 #
point $-1 72.228766747032054 18.983436637855561 7.8453907820438786 #
edge $-1 $856 1 $856 0 $524 $-1 forward 7 unknown #
vertex $-1 $525 $857 #
ellipse-curve $-1 64.497256823352188 22.438104652463743 10.614677041127782 0.54463904215088732 0 0.83867056331134215 0.83867056331134215 0 -0.54463904215088732 1 I I #
point $-1 66.364403761434744 22.438104652463743 11.65375270509746 #
edge $-1 $858 1 $858 0 $528 $-1 forward 7 unknown #
vertex $-1 $529 $859 #
ellipse-curve $-1 64.497256823352188 27.620106674376011 10.614677041127782 0.54463904215088732 0 0.83867056331134215 0.83867056331134215 0 -0.54463904215088732 1 I I #
point $-1 66.364403761434744 27.620106674376011 11.65375270509746 #
plane-surface $-1 72.228766747032068 0 0 -1 0 0 0 0 1 forward_v I I I I #
coedge $-1 $537 $535 $539 $746 reversed $361 $-1 #
edge $-1 $550 -16.551392712452856 $748 16.551392712452856 $549 $860 forward 7 unknown #
vertex $-1 $746 $861 #
straight-curve $-1 -72.228766747032068 -48.326945903152001 0 0 0 -1 I I #
edge $-1 $744 -48.326945903152001 $748 48.326945903152001 $742 $862 forward 7 unknown #
straight-curve $-1 0 -48.326945903152001 -16.551392712452856 -1 0 0 I I #
vertex $-1 $542 $863 #
straight-curve $-1 0 48.326945903152001 -16.551392712452856 1 0 0 I I #
point $-1 72.228766747032068 48.326945903152001 -16.551392712452856 #
point $-1 72.228766747032068 -48.326945903152001 -16.551392712452856 #
straight-curve $-1 -72.228766747032068 0 16.551392712452856 0 -1 0 I I #
point $-1 -72.228766747032068 48.326945903152001 16.551392712452856 #
point $-1 -72.228766747032068 -48.326945903152001 16.551392712452856 #
straight-curve $-1 72.228766747032068 -48.326945903152001 0 0 0 -1 I I #
straight-curve $-1 72.228766747032068 48.326945903152001 0 0 0 -1 I I #
loop $-1 $-1 $565 $559 #
plane-surface $-1 0 -48.326945903152001 0 0 1 0 0 0 1 forward_v I I I I #
coedge $-1 $576 $567 $563 $761 forward $560 $-1 #
edge $-1 $765 -28.327410775784315 $571 -11.671659478951057 $562 $864 forward 7 unknown #
edge $-1 $572 11.671659478951057 $764 28.327410775784315 $759 $865 forward 7 unknown #
coedge $-1 $574 $565 $579 $774 reversed $757 $-1 #
coedge $-1 $565 $574 $576 $772 reversed $757 $-1 #
vertex $-1 $772 $866 #
vertex $-1 $566 $867 #
straight-curve $-1 -39.125981322126357 -48.326945903152001 0 0 0 1 I I #
straight-curve $-1 -20.694695357941594 -31.671194606318743 -16.551392712452856 1 0 0 I I #
straight-curve $-1 -20.694695357941594 -31.671194606318743 16.551392712452856 -1 0 0 I I #
point $-1 -39.125981322126357 -31.671194606318743 16.551392712452856 #
point $-1 -39.125981322126357 -31.671194606318743 -16.551392712452856 #
straight-curve $-1 -43.652800109640019 -48.326945903152001 0 0 0 -1 I I #
edge $-1 $764 39.125981322126357 $577 43.652800109640019 $763 $868 forward 7 unknown #
point $-1 -43.652800109640019 -48.326945903152001 -16.551392712452856 #
edge $-1 $580 -43.652800109640019 $765 -39.125981322126357 $762 $869 forward 7 unknown #
point $-1 -43.652800109640019 -48.326945903152001 16.551392712452856 #
plane-surface $-1 0 48.326945903152001 0 0 -1 0 0 0 -1 forward_v I I I I #
coedge $-1 $586 $597 $600 $787 forward $396 $-1 #
edge $-1 $782 -28.476515755117962 $779 -11.224344540950131 $586 $870 forward 7 unknown #
vertex $-1 $778 $871 #
straight-curve $-1 -72.228766747032068 31.074774688984178 2.5555609982387697 0 0 1 I I #
straight-curve $-1 0 31.074774688984178 0.96996525724287608 -1 0 0 I I #
vertex $-1 $593 $872 #
straight-curve $-1 0 48.326945903152001 0.96996525724287608 -1 0 0 I I #
point $-1 72.228766747032068 31.074774688984178 0.96996525724287608 #
point $-1 72.228766747032068 48.326945903152009 0.96996525724287608 #
straight-curve $-1 -72.228766747032068 19.850430148034047 9.2522787357122027 0 1 0 I I #
edge $-1 $602 -9.2522787357122027 $782 -0.96996525724287608 $600 $873 forward 7 unknown #
point $-1 -72.228766747032068 48.326945903152009 9.2522787357122027 #
point $-1 -72.228766747032068 31.074774688984178 9.2522787357122027 #
straight-curve $-1 72.228766747032068 31.074774688984178 2.5555609982387697 0 0 -1 I I #
straight-curve $-1 72.228766747032068 48.326945903152001 0 0 0 -1 I I #
coedge $-1 $622 $621 $614 $793 forward $611 $-1 #
edge $-1 $794 25.139085326416946 $797 32.91485448488865 $792 $874 forward 7 unknown #
vertex $-1 $793 $875 #
straight-curve $-1 -72.228766747032068 -23.515099458120282 40.32919422715505 0 0 1 I I #
edge $-1 $797 -13.640149022966959 $623 -6.1097518473396892 $622 $876 forward 7 unknown #
vertex $-1 $796 $877 #
straight-curve $-1 -72.228766747032097 -23.515099458120282 4.1075604242097938 -0.52991925155115449 0 -0.84804810408105047 I I #
point $-1 -72.228766747032068 -23.515099458120282 4.1075604242098391 #
point $-1 -64.452997588560365 -15.984702282493013 16.551392712452856 #
straight-curve $-1 -72.228766747032068 0 16.551392712452856 0 -1 0 I I #
vertex $-1 $629 $878 #
point $-1 -66.491904714995741 -21.363557407941059 9.7636964603232812 #
vertex $-1 $633 $879 #
point $-1 -66.491904714995741 -18.136244332672231 9.7636964603232812 #
edge $-1 $807 25.139085326416946 $810 32.91485448488865 $638 $880 forward 7 unknown #
vertex $-1 $642 $881 #
straight-curve $-1 -72.228766747032068 -7.8286071342945558 40.32919422715505 0 0 1 I I #
edge $-1 $810 -5.7969028610540949 $649 1.7334943145731732 $648 $882 forward 7 unknown #
vertex $-1 $809 $883 #
straight-curve $-1 -72.228766747032097 -7.8286071342945558 4.1075604242097938 -0.52991925155115449 0 -0.84804810408105047 I I #
point $-1 -72.228766747032068 -7.8286071342945558 4.1075604242098391 #
point $-1 -64.452997588560365 -0.29820995866728772 16.551392712452856 #
straight-curve $-1 -72.228766747032068 0 16.551392712452856 0 -1 0 I I #
vertex $-1 $655 $884 #
point $-1 -66.491904714995741 -5.6770650841153341 9.7636964603232812 #
vertex $-1 $659 $885 #
point $-1 -66.491904714995741 -2.4497520088465023 9.7636964603232812 #
edge $-1 $820 25.139085326416946 $823 32.91485448488865 $664 $886 forward 7 unknown #
vertex $-1 $668 $887 #
straight-curve $-1 -72.228766747032068 7.8578851895311761 40.32919422715505 0 0 1 I I #
edge $-1 $823 2.046343300858771 $675 9.5767404764860391 $674 $888 forward 7 unknown #
vertex $-1 $822 $889 #
straight-curve $-1 -72.228766747032097 7.8578851895311761 4.1075604242097938 -0.52991925155115449 0 -0.84804810408105047 I I #
point $-1 -72.228766747032068 7.8578851895311761 4.1075604242098391 #
point $-1 -64.452997588560365 15.388282365158444 16.551392712452856 #
straight-curve $-1 -72.228766747032068 0 16.551392712452856 0 -1 0 I I #
vertex $-1 $681 $890 #
point $-1 -66.491904714995741 10.009427239710398 9.7636964603232812 #
vertex $-1 $685 $891 #
point $-1 -66.491904714995741 13.236740314979222 9.7636964603232812 #
coedge $-1 $692 $691 $699 $837 forward $317 $-1 #
edge $-1 $840 -31.074774688984178 $695 -23.544377513356906 $694 $892 forward 7 unknown #
straight-curve $-1 -97.367852073449015 23.544377513356906 16.551392712452852 1 0 0 I I #
point $-1 -72.228766747032068 23.544377513356906 16.551392712452856 #
straight-curve $-1 -64.452997588560365 13.654788050585271 16.551392712452856 0 1 0 I I #
edge $-1 $700 -32.91485448488865 $840 -25.139085326416946 $832 $893 forward 7 unknown #
point $-1 -64.452997588560365 31.074774688984178 16.551392712452856 #
point $-1 -64.452997588560365 23.544377513356906 16.551392712452856 #
vertex $-1 $833 $894 #
straight-curve $-1 -72.228766747032068 31.074774688984178 40.32919422715505 0 0 -1 I I #
vertex $-1 $707 $895 #
point $-1 -66.491904714995741 25.69591956353613 9.7636964603232812 #
vertex $-1 $711 $896 #
point $-1 -66.491904714995741 28.923232638804954 9.7636964603232812 #
coedge $-1 $723 $720 $717 $847 reversed $715 $-1 #
edge $-1 $725 -95.992051440838395 $849 -87.286049510429407 $717 $897 forward 7 unknown #
edge $-1 $850 -18.560221857274232 $727 -6.4688838061456302 $718 $898 forward 7 unknown #
vertex $-1 $721 $899 #
vertex $-1 $848 $900 #
straight-curve $-1 14.876849215342524 31.074774688984164 16.551392712452852 -1 0 0 I I #
straight-curve $-1 -48.923514243001762 31.074774688984164 86.522603455730675 0.83867056331134215 0 -0.54463904215088732 I I #
point $-1 72.228766747032068 31.074774688984178 7.8453907820438609 #
point $-1 58.822699649214783 18.983436637855561 16.551392712452852 #
straight-curve $-1 72.228766747032068 0 16.551392712452856 0 1 0 I I #
vertex $-1 $733 $901 #
point $-1 65.335927386663528 22.438104652463743 10.070037998976895 #
vertex $-1 $737 $902 #
point $-1 65.335927386663528 27.620106674376011 10.070037998976895 #
straight-curve $-1 -72.228766747032068 48.326945903152001 0 0 0 -1 I I #
point $-1 -72.228766747032068 -48.326945903152001 -16.551392712452856 #
straight-curve $-1 -72.228766747032068 0 -16.551392712452856 0 1 0 I I #
point $-1 -72.228766747032068 48.326945903152001 -16.551392712452856 #
straight-curve $-1 -39.125981322126357 -19.999535127367686 16.551392712452856 0 1 0 I I #
straight-curve $-1 -39.125981322126357 -19.999535127367686 -16.551392712452856 0 -1 0 I I #
point $-1 -39.125981322126357 -48.326945903152001 -16.551392712452856 #
point $-1 -39.125981322126357 -48.326945903152001 16.551392712452856 #
straight-curve $-1 0 -48.326945903152001 -16.551392712452856 -1 0 0 I I #
straight-curve $-1 0 -48.326945903152001 16.551392712452856 1 0 0 I I #
straight-curve $-1 -72.228766747032068 19.850430148034047 0.96996525724287608 0 -1 0 I I #
point $-1 -72.228766747032068 31.074774688984178 0.96996525724287608 #
point $-1 -72.228766747032068 48.326945903152009 0.96996525724287608 #
straight-curve $-1 -72.228766747032068 48.326945903152001 0 0 0 -1 I I #
straight-curve $-1 -97.367852073449015 -23.515099458120282 16.551392712452852 1 0 0 I I #
point $-1 -72.228766747032068 -23.515099458120282 16.551392712452856 #
straight-curve $-1 -64.452997588560365 -9.8749504351533233 16.551392712452856 0 1 0 I I #
point $-1 -64.452997588560365 -23.515099458120282 16.551392712452856 #
point $-1 -66.332840288730793 -21.363557407941059 9.0747127825071789 #
point $-1 -66.332840288730793 -18.136244332672231 9.0747127825071789 #
straight-curve $-1 -97.367852073449015 -7.8286071342945558 16.551392712452852 1 0 0 I I #
point $-1 -72.228766747032068 -7.8286071342945558 16.551392712452856 #
straight-curve $-1 -64.452997588560365 -2.0317042732404609 16.551392712452856 0 1 0 I I #
point $-1 -64.452997588560365 -7.8286071342945558 16.551392712452856 #
point $-1 -66.332840288730793 -5.6770650841153341 9.0747127825071789 #
point $-1 -66.332840288730793 -2.4497520088465023 9.0747127825071789 #
straight-curve $-1 -97.367852073449015 7.8578851895311761 16.551392712452852 1 0 0 I I #
point $-1 -72.228766747032068 7.8578851895311761 16.551392712452856 #
straight-curve $-1 -64.452997588560365 5.8115418886724051 16.551392712452856 0 1 0 I I #
point $-1 -64.452997588560365 7.8578851895311761 16.551392712452856 #
point $-1 -66.332840288730793 10.009427239710398 9.0747127825071789 #
point $-1 -66.332840288730793 13.236740314979222 9.0747127825071789 #
straight-curve $-1 -72.228766747032068 0 16.551392712452856 0 -1 0 I I #
straight-curve $-1 -97.367852073449015 31.074774688984178 16.551392712452852 -1 0 0 I I #
point $-1 -72.228766747032068 31.074774688984178 16.551392712452856 #
point $-1 -66.332840288730793 25.69591956353613 9.0747127825071789 #
point $-1 -66.332840288730793 28.923232638804954 9.0747127825071789 #
straight-curve $-1 72.228766747032068 31.074774688984164 103.83744222288226 0 0 1 I I #
straight-curve $-1 58.822699649214805 12.514552831709931 16.551392712452845 0 -1 0 I I #
point $-1 72.228766747032068 31.074774688984164 16.551392712452856 #
point $-1 58.822699649214783 31.074774688984164 16.551392712452852 #
point $-1 63.952617781201297 22.438104652463743 9.7760064778164395 #
point $-1 63.952617781201297 27.620106674376011 9.7760064778164395 #
End-of-ACIS-data 