500 0 5 0           
7 Unknown 11 ACIS 5.0 NT 24 Fri Mar 26 02:11:57 1999 
-1 9.9999999999999995e-007 1e-010 
body $-1 $5 $-1 $6 #
body $-1 $7 $-1 $8 #
body $-1 $9 $-1 $10 #
body $-1 $11 $-1 $12 #
body $-1 $13 $-1 $14 #
lump $-1 $-1 $15 $0 #
transform $-1 1 0 0 0 1 0 0 0 1 65.351115451521338 43.794641064295675 18.26859497016283 1 rotate no_reflect no_shear #
lump $-1 $-1 $16 $1 #
transform $-1 1 0 0 0 1 0 0 0 1 65.351115451521338 43.794641064295675 18.26859497016283 1 rotate no_reflect no_shear #
lump $-1 $-1 $17 $2 #
transform $-1 1 0 0 0 1 0 0 0 1 65.351115451521338 43.794641064295675 18.26859497016283 1 rotate no_reflect no_shear #
lump $-1 $-1 $18 $3 #
transform $-1 1 0 0 0 1 0 0 0 1 65.351115451521338 43.794641064295675 18.26859497016283 1 rotate no_reflect no_shear #
lump $-1 $-1 $19 $4 #
transform $-1 1 0 0 0 1 0 0 0 1 65.351115451521338 43.794641064295675 18.26859497016283 1 rotate no_reflect no_shear #
shell $-1 $-1 $-1 $20 $-1 $5 #
shell $-1 $-1 $-1 $21 $-1 $7 #
shell $-1 $-1 $-1 $22 $-1 $9 #
shell $-1 $-1 $-1 $23 $-1 $11 #
shell $-1 $-1 $-1 $24 $-1 $13 #
face $-1 $25 $26 $15 $-1 $27 forward single #
face $-1 $28 $29 $16 $-1 $30 forward single #
face $-1 $31 $32 $17 $-1 $33 reversed single #
face $-1 $34 $35 $18 $-1 $36 forward single #
face $-1 $37 $38 $19 $-1 $39 reversed single #
face $-1 $40 $41 $15 $-1 $42 reversed single #
loop $-1 $-1 $43 $20 #
plane-surface $-1 0 0 18.26859497016283 0 0 1 1 0 0 forward_v I I I I #
face $-1 $44 $45 $16 $-1 $46 forward single #
loop $-1 $-1 $47 $21 #
plane-surface $-1 -55.530364373768535 0 7.4947681650717186 0 0 1 1 0 0 forward_v I I I I #
face $-1 $48 $49 $17 $-1 $50 reversed single #
loop $-1 $-1 $51 $22 #
plane-surface $-1 77.393301362216306 -16.53442060993234 0 0 1 0 0 0 1 forward_v I I I I #
face $-1 $52 $53 $18 $-1 $54 forward single #
loop $-1 $-1 $55 $23 #
plane-surface $-1 -45.709613296015732 -148.1780849807534 78.87291308024524 1 0 0 0 0.79863551827123203 -0.60181501223851219 forward_v I I I I #
face $-1 $56 $57 $19 $-1 $58 reversed single #
loop $-1 $59 $60 $24 #
cone-surface $-1 -35.792949559383167 -36.066510924286476 8.5439029347964563 0 0.79863551827123203 -0.60181501223851219 1 0 0 1 I I 0 1 1 forward I I I I #
face $-1 $61 $62 $15 $-1 $63 reversed single #
loop $-1 $-1 $64 $25 #
plane-surface $-1 0 0 -18.26859497016283 0 0 1 1 0 0 forward_v I I I I #
coedge $-1 $65 $66 $67 $68 forward $26 $-1 #
face $-1 $69 $70 $16 $-1 $71 forward single #
loop $-1 $-1 $72 $28 #
plane-surface $-1 -45.709613296015732 0 12.881681567617274 -1 0 0 0 0 1 forward_v I I I I #
coedge $-1 $73 $74 $75 $76 reversed $29 $-1 #
face $-1 $77 $78 $17 $-1 $79 reversed single #
loop $-1 $-1 $80 $31 #
plane-surface $-1 77.393301362216306 -7.2574511239700161 0 0 -1 0 0 0 -1 forward_v I I I I #
coedge $-1 $81 $82 $83 $84 reversed $32 $-1 #
face $-1 $85 $86 $18 $-1 $87 forward single #
loop $-1 $-1 $88 $34 #
plane-surface $-1 -25.876285822750603 -148.1780849807534 78.87291308024524 -1 0 0 0 -0.79863551827123203 0.60181501223851219 forward_v I I I I #
coedge $-1 $89 $90 $91 $92 forward $35 $-1 #
face $-1 $93 $94 $19 $-1 $95 forward single #
loop $-1 $96 $97 $37 #
cone-surface $-1 -35.792949559383167 -34.741488147856003 7.54542668352736 0 0.79863551827123203 -0.60181501223851219 0.5 0 0 1 I I -0.70710678118654691 0.70710678118654813 0.5 forward I I I I #
loop $-1 $-1 $98 $24 #
coedge $-1 $60 $60 $99 $100 reversed $38 $-1 #
face $-1 $101 $102 $15 $-1 $103 reversed single #
loop $-1 $-1 $104 $40 #
plane-surface $-1 0 -43.794641064295675 0 0 1 0 0 0 1 forward_v I I I I #
coedge $-1 $105 $106 $107 $108 forward $41 $-1 #
coedge $-1 $109 $43 $110 $111 forward $26 $-1 #
coedge $-1 $43 $109 $112 $113 forward $26 $-1 #
coedge $-1 $114 $115 $43 $68 reversed $116 $-1 #
edge $-1 $117 -43.794641064295675 $118 43.794641064295675 $67 $119 forward 7 unknown #
face $-1 $120 $121 $16 $-1 $122 reversed single #
loop $-1 $-1 $123 $44 #
plane-surface $-1 0 0 18.26859497016283 0 0 1 1 0 0 forward_v I I I I #
coedge $-1 $124 $75 $125 $126 reversed $45 $-1 #
coedge $-1 $127 $47 $128 $129 reversed $29 $-1 #
coedge $-1 $47 $127 $130 $131 reversed $29 $-1 #
coedge $-1 $72 $132 $47 $76 forward $45 $-1 #
edge $-1 $133 -43.794641064295675 $134 43.794641064295675 $75 $135 forward 7 unknown #
face $-1 $136 $137 $17 $-1 $138 reversed single #
loop $-1 $-1 $139 $48 #
plane-surface $-1 89.435487272911274 -11.895935866951177 0 -1 0 0 0 0 1 forward_v I I I I #
coedge $-1 $140 $141 $142 $143 forward $49 $-1 #
coedge $-1 $144 $51 $145 $146 reversed $32 $-1 #
coedge $-1 $51 $144 $147 $148 reversed $32 $-1 #
coedge $-1 $149 $150 $51 $84 forward $137 $-1 #
edge $-1 $151 -18.26859497016283 $152 18.26859497016283 $83 $153 forward 7 unknown #
face $-1 $154 $155 $18 $-1 $156 forward single #
loop $-1 $-1 $157 $52 #
plane-surface $-1 -35.792949559383167 -43.794641064295675 0.21434838972976422 0 -0.79863551827123203 0.60181501223851219 1 0 0 forward_v I I I I #
coedge $-1 $158 $159 $160 $161 reversed $53 $-1 #
coedge $-1 $90 $55 $162 $163 reversed $35 $-1 #
coedge $-1 $55 $89 $164 $165 forward $35 $-1 #
coedge $-1 $166 $167 $55 $92 reversed $168 $-1 #
edge $-1 $169 38.308451412120831 $170 43.794641064295675 $91 $171 forward 7 unknown #
face $-1 $172 $173 $19 $-1 $174 forward single #
loop $-1 $-1 $175 $56 #
plane-surface $-1 -45.709613296015732 -148.1780849807534 78.87291308024524 1 0 0 0 0.79863551827123203 -0.60181501223851219 forward_v I I I I #
loop $-1 $-1 $176 $37 #
coedge $-1 $97 $97 $98 $177 forward $57 $-1 #
coedge $-1 $98 $98 $97 $177 reversed $59 $-1 #
coedge $-1 $99 $99 $60 $100 forward $178 $-1 #
edge $-1 $179 0 $179 6.2831853071796004 $99 $180 forward 7 unknown #
face $-1 $181 $182 $15 $-1 $183 reversed single #
loop $-1 $-1 $184 $61 #
plane-surface $-1 -65.351115451521338 0 0 1 0 0 0 0 -1 forward_v I I I I #
coedge $-1 $185 $112 $186 $187 forward $62 $-1 #
coedge $-1 $188 $64 $185 $189 forward $41 $-1 #
coedge $-1 $64 $188 $190 $191 forward $41 $-1 #
coedge $-1 $115 $114 $64 $108 reversed $116 $-1 #
edge $-1 $192 -43.794641064295675 $193 43.794641064295675 $107 $194 forward 7 unknown #
coedge $-1 $66 $65 $195 $196 forward $26 $-1 #
coedge $-1 $197 $198 $65 $111 reversed $182 $-1 #
edge $-1 $118 -65.351115451521338 $199 65.351115451521338 $110 $200 forward 7 unknown #
coedge $-1 $104 $201 $66 $113 reversed $62 $-1 #
edge $-1 $202 -65.351115451521338 $117 65.351115451521338 $112 $203 forward 7 unknown #
coedge $-1 $107 $67 $201 $204 forward $116 $-1 #
coedge $-1 $67 $107 $197 $205 reversed $116 $-1 #
loop $-1 $-1 $114 $181 #
vertex $-1 $68 $206 #
vertex $-1 $68 $207 #
straight-curve $-1 65.351115451521338 0 18.26859497016283 0 1 0 I I #
face $-1 $208 $209 $16 $-1 $210 reversed single #
loop $-1 $-1 $125 $69 #
plane-surface $-1 0 -43.794641064295675 0 0 1 0 0 0 1 forward_v I I I I #
coedge $-1 $211 $212 $124 $213 forward $70 $-1 #
coedge $-1 $132 $72 $123 $213 reversed $45 $-1 #
coedge $-1 $130 $214 $72 $126 forward $121 $-1 #
edge $-1 $215 -11.827754186354193 $134 -1.0539273812630814 $125 $216 forward 7 unknown #
coedge $-1 $74 $73 $217 $218 reversed $29 $-1 #
coedge $-1 $219 $220 $73 $129 forward $221 $-1 #
edge $-1 $222 -37.58593326463707 $133 -17.944431109131465 $128 $223 forward 7 unknown #
coedge $-1 $224 $125 $74 $131 forward $121 $-1 #
edge $-1 $134 17.944431109131465 $225 37.58593326463707 $130 $226 forward 7 unknown #
coedge $-1 $75 $124 $219 $227 reversed $45 $-1 #
vertex $-1 $129 $228 #
vertex $-1 $131 $229 #
straight-curve $-1 -45.709613296015732 0 7.4947681650717186 0 -1 0 I I #
face $-1 $230 $231 $17 $-1 $138 reversed single #
loop $-1 $-1 $83 $77 #
plane-surface $-1 65.351115451521338 0 0 -1 0 0 0 0 1 forward_v I I I I #
coedge $-1 $232 $233 $144 $234 forward $78 $-1 #
coedge $-1 $235 $80 $236 $237 reversed $49 $-1 #
coedge $-1 $80 $235 $238 $239 reversed $49 $-1 #
coedge $-1 $233 $232 $80 $143 reversed $78 $-1 #
edge $-1 $240 -18.26859497016283 $241 18.26859497016283 $142 $242 forward 7 unknown #
coedge $-1 $82 $81 $139 $234 reversed $32 $-1 #
coedge $-1 $243 $244 $81 $146 forward $245 $-1 #
edge $-1 $246 -12.042185910694968 $151 12.042185910694968 $81 $247 forward 7 unknown #
coedge $-1 $248 $249 $82 $148 forward $250 $-1 #
edge $-1 $152 -12.042185910694968 $251 12.042185910694968 $82 $252 forward 7 unknown #
coedge $-1 $253 $83 $249 $254 reversed $137 $-1 #
coedge $-1 $83 $253 $243 $255 reversed $137 $-1 #
vertex $-1 $255 $256 #
vertex $-1 $148 $257 #
straight-curve $-1 65.351115451521338 -16.53442060993234 0 0 0 1 I I #
face $-1 $258 $259 $18 $-1 $260 reversed single #
loop $-1 $-1 $261 $85 #
plane-surface $-1 0 0 18.26859497016283 0 0 1 1 0 0 forward_v I I I I #
coedge $-1 $262 $263 $261 $264 reversed $86 $-1 #
coedge $-1 $159 $88 $263 $265 forward $53 $-1 #
coedge $-1 $88 $158 $266 $267 reversed $53 $-1 #
coedge $-1 $268 $261 $88 $161 forward $155 $-1 #
edge $-1 $269 -43.899251671509717 $270 -30.294401426081023 $160 $271 forward 7 unknown #
coedge $-1 $272 $273 $89 $163 forward $274 $-1 #
edge $-1 $275 -39.222108150392856 $170 -31.941688375050902 $162 $276 forward 7 unknown #
coedge $-1 $277 $262 $90 $165 reversed $86 $-1 #
edge $-1 $275 0 $169 9.11607311317875 $90 $278 forward 7 unknown #
coedge $-1 $279 $91 $280 $281 reversed $168 $-1 #
coedge $-1 $91 $282 $272 $283 reversed $168 $-1 #
loop $-1 $-1 $166 $284 #
vertex $-1 $92 $285 #
vertex $-1 $283 $286 #
straight-curve $-1 -45.709613296015732 0 7.4947681650717186 0 -1 0 I I #
face $-1 $287 $178 $19 $-1 $288 forward single #
loop $-1 $-1 $289 $93 #
plane-surface $-1 -25.876285822750603 -148.1780849807534 78.87291308024524 -1 0 0 0 -0.79863551827123203 0.60181501223851219 forward_v I I I I #
coedge $-1 $290 $291 $292 $293 forward $94 $-1 #
coedge $-1 $176 $176 $-1 $294 forward $96 $-1 #
edge $-1 $295 0 $295 6.2831853071796004 $97 $296 forward 7 unknown #
loop $-1 $297 $99 $172 #
vertex $-1 $100 $298 #
ellipse-curve $-1 -35.792949559383167 -36.992215941581328 9.2414716799462955 0 0.79863551827123203 -0.60181501223851219 1 0 0 1 I I #
face $-1 $-1 $116 $15 $-1 $299 reversed single #
loop $-1 $-1 $197 $101 #
plane-surface $-1 0 43.794641064295675 0 0 -1 0 0 0 -1 forward_v I I I I #
coedge $-1 $300 $195 $198 $301 forward $102 $-1 #
coedge $-1 $201 $104 $105 $189 reversed $62 $-1 #
coedge $-1 $195 $300 $104 $187 reversed $102 $-1 #
edge $-1 $202 -18.26859497016283 $302 18.26859497016283 $186 $303 forward 7 unknown #
coedge $-1 $106 $105 $300 $304 forward $41 $-1 #
edge $-1 $193 -65.351115451521338 $302 65.351115451521338 $185 $305 forward 7 unknown #
coedge $-1 $198 $197 $106 $191 reversed $182 $-1 #
edge $-1 $306 -65.351115451521338 $192 65.351115451521338 $190 $307 forward 7 unknown #
vertex $-1 $108 $308 #
vertex $-1 $204 $309 #
straight-curve $-1 65.351115451521338 0 -18.26859497016283 0 -1 0 I I #
coedge $-1 $184 $186 $109 $196 reversed $102 $-1 #
edge $-1 $199 -43.794641064295675 $202 43.794641064295675 $195 $310 forward 7 unknown #
coedge $-1 $190 $110 $115 $205 forward $182 $-1 #
coedge $-1 $110 $190 $184 $301 reversed $182 $-1 #
vertex $-1 $111 $311 #
straight-curve $-1 0 43.794641064295675 18.26859497016283 -1 0 0 I I #
coedge $-1 $112 $185 $114 $204 reversed $62 $-1 #
vertex $-1 $196 $312 #
straight-curve $-1 0 -43.794641064295675 18.26859497016283 1 0 0 I I #
edge $-1 $117 -18.26859497016283 $193 18.26859497016283 $114 $313 forward 7 unknown #
edge $-1 $118 -18.26859497016283 $192 18.26859497016283 $115 $314 forward 7 unknown #
point $-1 65.351115451521338 -43.794641064295675 18.26859497016283 #
point $-1 65.351115451521338 43.794641064295675 18.26859497016283 #
face $-1 $315 $316 $16 $-1 $317 reversed single #
loop $-1 $-1 $318 $120 #
plane-surface $-1 0 0 -18.26859497016283 0 0 1 1 0 0 forward_v I I I I #
coedge $-1 $319 $123 $214 $320 forward $70 $-1 #
coedge $-1 $123 $319 $321 $322 forward $70 $-1 #
edge $-1 $323 -43.794641064295675 $215 43.794641064295675 $123 $324 forward 7 unknown #
coedge $-1 $125 $325 $211 $320 reversed $121 $-1 #
vertex $-1 $320 $326 #
straight-curve $-1 -45.709613296015732 -43.794641064295675 6.4408407838086372 0 0 -1 I I #
coedge $-1 $327 $328 $127 $218 forward $316 $-1 #
edge $-1 $225 -43.794641064295675 $222 43.794641064295675 $217 $329 forward 7 unknown #
coedge $-1 $321 $128 $132 $227 forward $221 $-1 #
coedge $-1 $128 $330 $327 $331 reversed $221 $-1 #
loop $-1 $-1 $219 $315 #
vertex $-1 $331 $332 #
straight-curve $-1 -27.765182186884267 43.794641064295675 7.4947681650717186 1 0 0 I I #
coedge $-1 $333 $130 $328 $334 forward $121 $-1 #
vertex $-1 $334 $335 #
straight-curve $-1 -27.765182186884267 -43.794641064295675 7.4947681650717186 -1 0 0 I I #
edge $-1 $133 1.0539273812630814 $323 11.827754186354193 $219 $336 forward 7 unknown #
point $-1 -45.709613296015732 43.794641064295675 7.4947681650717186 #
point $-1 -45.709613296015732 -43.794641064295675 7.4947681650717186 #
face $-1 $337 $338 $17 $-1 $339 forward single #
loop $-1 $-1 $340 $136 #
coedge $-1 $142 $139 $244 $341 reversed $78 $-1 #
coedge $-1 $139 $142 $248 $342 reversed $78 $-1 #
edge $-1 $251 -18.26859497016283 $246 18.26859497016283 $139 $343 forward 7 unknown #
coedge $-1 $141 $140 $340 $344 reversed $49 $-1 #
coedge $-1 $244 $345 $140 $237 forward $245 $-1 #
edge $-1 $346 -12.042185910694968 $241 12.042185910694968 $140 $347 forward 7 unknown #
coedge $-1 $348 $248 $141 $239 forward $250 $-1 #
edge $-1 $240 -12.042185910694968 $349 12.042185910694968 $141 $350 forward 7 unknown #
vertex $-1 $342 $351 #
vertex $-1 $341 $352 #
straight-curve $-1 89.435487272911274 -7.2574511239700161 0 0 0 -1 I I #
coedge $-1 $353 $145 $150 $255 forward $245 $-1 #
coedge $-1 $145 $236 $232 $341 forward $245 $-1 #
loop $-1 $-1 $345 $354 #
vertex $-1 $234 $355 #
straight-curve $-1 77.393301362216306 -16.53442060993234 -18.26859497016283 -1 0 0 I I #
coedge $-1 $238 $147 $233 $342 forward $250 $-1 #
coedge $-1 $147 $356 $149 $254 forward $250 $-1 #
loop $-1 $-1 $357 $358 #
vertex $-1 $342 $359 #
straight-curve $-1 77.393301362216306 -16.53442060993234 18.26859497016283 1 0 0 I I #
coedge $-1 $150 $149 $360 $361 forward $137 $-1 #
edge $-1 $362 -43.794641064295675 $152 -16.53442060993234 $149 $363 forward 7 unknown #
edge $-1 $151 16.53442060993234 $364 43.794641064295675 $150 $365 forward 7 unknown #
point $-1 65.351115451521338 -16.53442060993234 -18.26859497016283 #
point $-1 65.351115451521338 -16.53442060993234 18.26859497016283 #
face $-1 $366 $367 $18 $-1 $368 reversed single #
loop $-1 $-1 $369 $154 #
plane-surface $-1 77.393301362216306 -16.53442060993234 0 0 1 0 0 0 1 forward_v I I I I #
coedge $-1 $160 $370 $157 $264 forward $155 $-1 #
coedge $-1 $164 $157 $371 $372 reversed $86 $-1 #
coedge $-1 $157 $277 $158 $265 reversed $86 $-1 #
edge $-1 $373 -27.813138516324148 $269 -7.9798110430590192 $261 $374 forward 7 unknown #
edge $-1 $269 -22.606365691716576 $375 0 $158 $376 forward 7 unknown #
coedge $-1 $273 $377 $159 $267 forward $274 $-1 #
edge $-1 $270 21.16786156995979 $375 39.222108150392856 $266 $378 forward 7 unknown #
coedge $-1 $379 $160 $377 $380 forward $155 $-1 #
vertex $-1 $264 $381 #
vertex $-1 $380 $382 #
straight-curve $-1 -25.876285822750603 -74.089042490376698 18.26859497016283 0 -1 0 I I #
coedge $-1 $383 $162 $167 $283 forward $274 $-1 #
coedge $-1 $162 $266 $277 $384 forward $274 $-1 #
loop $-1 $-1 $162 $385 #
vertex $-1 $384 $386 #
straight-curve $-1 -45.709613296015732 -43.794641064295675 39.43645654012262 0 0 1 I I #
coedge $-1 $263 $164 $273 $384 reversed $86 $-1 #
straight-curve $-1 -45.709613296015732 -43.794641064295675 0.21434838972976422 0 0.60181501223851219 0.79863551827123203 I I #
coedge $-1 $282 $166 $387 $388 reversed $168 $-1 #
coedge $-1 $371 $389 $166 $281 forward $390 $-1 #
edge $-1 $391 -43.794641064295675 $169 38.308451412120831 $280 $171 forward 7 unknown #
coedge $-1 $167 $279 $392 $393 reversed $168 $-1 #
edge $-1 $170 17.944431109131465 $394 37.58593326463707 $272 $395 forward 7 unknown #
face $-1 $396 $168 $18 $-1 $397 forward single #
point $-1 -45.709613296015732 -38.308451412120831 7.4947681650717186 #
point $-1 -45.709613296015732 -43.794641064295675 7.4947681650717186 #
face $-1 $398 $399 $19 $-1 $400 forward single #
plane-surface $-1 -35.792949559383167 -43.794641064295675 0.21434838972976422 0 -0.79863551827123203 0.60181501223851219 1 0 0 forward_v I I I I #
coedge $-1 $401 $402 $403 $404 reversed $173 $-1 #
coedge $-1 $291 $175 $405 $406 reversed $94 $-1 #
coedge $-1 $175 $290 $407 $408 forward $94 $-1 #
coedge $-1 $409 $410 $175 $293 reversed $411 $-1 #
edge $-1 $412 38.308451412120831 $413 43.794641064295675 $292 $414 forward 7 unknown #
edge $-1 $415 1 $415 0 $176 $-1 forward 7 unknown #
vertex $-1 $177 $416 #
ellipse-curve $-1 -35.792949559383167 -35.140805906991623 7.8463341896466163 0 -0.79863551827123203 0.60181501223851219 1 0 0 1 I I #
loop $-1 $-1 $417 $172 #
point $-1 -34.792949559383167 -36.992215941581328 9.2414716799462955 #
plane-surface $-1 65.351115451521338 0 0 -1 0 0 0 0 1 forward_v I I I I #
coedge $-1 $186 $184 $188 $304 reversed $102 $-1 #
edge $-1 $199 -18.26859497016283 $306 18.26859497016283 $198 $418 forward 7 unknown #
vertex $-1 $304 $419 #
straight-curve $-1 -65.351115451521338 -43.794641064295675 0 0 0 -1 I I #
edge $-1 $302 -43.794641064295675 $306 43.794641064295675 $300 $420 forward 7 unknown #
straight-curve $-1 0 -43.794641064295675 -18.26859497016283 -1 0 0 I I #
vertex $-1 $191 $421 #
straight-curve $-1 0 43.794641064295675 -18.26859497016283 1 0 0 I I #
point $-1 65.351115451521338 43.794641064295675 -18.26859497016283 #
point $-1 65.351115451521338 -43.794641064295675 -18.26859497016283 #
straight-curve $-1 -65.351115451521338 0 18.26859497016283 0 -1 0 I I #
point $-1 -65.351115451521338 43.794641064295675 18.26859497016283 #
point $-1 -65.351115451521338 -43.794641064295675 18.26859497016283 #
straight-curve $-1 65.351115451521338 -43.794641064295675 0 0 0 -1 I I #
straight-curve $-1 65.351115451521338 43.794641064295675 0 0 0 -1 I I #
face $-1 $422 $221 $16 $-1 $423 reversed single #
loop $-1 $-1 $217 $208 #
plane-surface $-1 -65.351115451521338 0 0 1 0 0 0 0 -1 forward_v I I I I #
coedge $-1 $424 $425 $426 $427 forward $209 $-1 #
coedge $-1 $212 $211 $428 $429 forward $70 $-1 #
edge $-1 $215 -45.709613296015732 $430 65.351115451521338 $214 $431 forward 7 unknown #
coedge $-1 $432 $219 $212 $322 reversed $221 $-1 #
edge $-1 $433 -65.351115451521338 $323 45.709613296015732 $321 $434 forward 7 unknown #
vertex $-1 $213 $435 #
straight-curve $-1 -45.709613296015732 0 18.26859497016283 0 -1 0 I I #
coedge $-1 $214 $333 $436 $437 reversed $121 $-1 #
point $-1 -45.709613296015732 -43.794641064295675 18.26859497016283 #
coedge $-1 $438 $217 $220 $331 forward $316 $-1 #
coedge $-1 $217 $438 $224 $334 reversed $316 $-1 #
straight-curve $-1 -65.351115451521338 0 7.4947681650717186 0 1 0 I I #
coedge $-1 $220 $432 $425 $439 reversed $221 $-1 #
edge $-1 $222 -7.4947681650717186 $440 18.26859497016283 $220 $441 forward 7 unknown #
point $-1 -65.351115451521338 43.794641064295675 7.4947681650717186 #
coedge $-1 $325 $224 $424 $442 reversed $121 $-1 #
edge $-1 $225 -7.4947681650717186 $443 18.26859497016283 $328 $444 forward 7 unknown #
point $-1 -65.351115451521338 -43.794641064295675 7.4947681650717186 #
straight-curve $-1 -45.709613296015732 43.794641064295675 6.4408407838086372 0 0 1 I I #
face $-1 $358 $445 $17 $-1 $446 forward single #
loop $-1 $-1 $447 $230 #
plane-surface $-1 -55.530364373768535 0 7.4947681650717186 0 0 1 1 0 0 forward_v I I I I #
coedge $-1 $448 $449 $235 $344 forward $231 $-1 #
edge $-1 $241 -4.6384847429811611 $246 4.6384847429811629 $232 $450 forward 7 unknown #
edge $-1 $251 -4.6384847429811629 $240 4.6384847429811611 $233 $451 forward 7 unknown #
straight-curve $-1 89.435487272911274 -16.53442060993234 0 0 0 -1 I I #
edge $-1 $349 -18.26859497016283 $346 18.26859497016283 $340 $452 forward 7 unknown #
coedge $-1 $236 $453 $448 $454 forward $245 $-1 #
vertex $-1 $237 $455 #
straight-curve $-1 77.393301362216306 -7.2574511239700161 -18.26859497016283 1 0 0 I I #
coedge $-1 $456 $238 $449 $457 forward $250 $-1 #
vertex $-1 $457 $458 #
straight-curve $-1 77.393301362216306 -7.2574511239700161 18.26859497016283 -1 0 0 I I #
point $-1 89.435487272911274 -7.2574511239700161 18.26859497016283 #
point $-1 89.435487272911274 -7.2574511239700161 -18.26859497016283 #
coedge $-1 $459 $243 $460 $461 forward $245 $-1 #
face $-1 $462 $245 $17 $-1 $463 reversed single #
point $-1 89.435487272911274 -16.53442060993234 -18.26859497016283 #
coedge $-1 $249 $357 $464 $465 forward $250 $-1 #
coedge $-1 $356 $456 $466 $467 forward $250 $-1 #
face $-1 $468 $250 $17 $-1 $469 forward single #
point $-1 89.435487272911274 -16.53442060993234 18.26859497016283 #
coedge $-1 $464 $460 $253 $361 reversed $470 $-1 #
edge $-1 $362 -18.26859497016283 $364 18.26859497016283 $253 $471 forward 7 unknown #
vertex $-1 $254 $472 #
straight-curve $-1 65.351115451521338 0 18.26859497016283 0 1 0 I I #
vertex $-1 $361 $473 #
straight-curve $-1 65.351115451521338 0 -18.26859497016283 0 -1 0 I I #
face $-1 $474 $475 $18 $-1 $476 reversed single #
loop $-1 $-1 $477 $258 #
plane-surface $-1 77.393301362216306 -7.2574511239700161 0 0 -1 0 0 0 -1 forward_v I I I I #
coedge $-1 $478 $479 $480 $481 reversed $259 $-1 #
coedge $-1 $261 $482 $483 $484 forward $155 $-1 #
coedge $-1 $483 $280 $262 $372 forward $390 $-1 #
edge $-1 $169 -9.1203542096847094 $373 4.3699383688531164 $371 $485 forward 7 unknown #
vertex $-1 $264 $486 #
straight-curve $-1 -17.896474779691584 -30.189790818866982 18.26859497016283 1 0 0 I I #
vertex $-1 $384 $487 #
straight-curve $-1 -25.876285822750603 -43.794641064295675 0.21434838972976422 0 -0.60181501223851219 -0.79863551827123203 I I #
coedge $-1 $266 $488 $268 $380 reversed $274 $-1 #
straight-curve $-1 -25.876285822750603 -43.794641064295675 39.43645654012262 0 0 -1 I I #
coedge $-1 $489 $268 $490 $491 forward $155 $-1 #
edge $-1 $270 -25.876285822750603 $492 65.351115451521338 $377 $493 forward 7 unknown #
point $-1 -25.876285822750603 -30.189790818866982 18.26859497016283 #
point $-1 -25.876285822750603 -43.794641064295675 18.26859497016283 #
coedge $-1 $494 $272 $495 $496 forward $274 $-1 #
edge $-1 $375 7.9798110430590192 $275 27.813138516324148 $273 $497 forward 7 unknown #
face $-1 $498 $274 $18 $-1 $499 reversed single #
point $-1 -45.709613296015732 -43.794641064295675 0.21434838972976422 #
coedge $-1 $500 $501 $279 $388 forward $502 $-1 #
edge $-1 $503 -37.58593326463707 $391 -17.944431109131465 $387 $504 forward 7 unknown #
coedge $-1 $280 $483 $500 $505 reversed $390 $-1 #
loop $-1 $-1 $371 $396 #
vertex $-1 $388 $506 #
coedge $-1 $507 $495 $282 $393 forward $508 $-1 #
edge $-1 $394 -43.794641064295675 $503 43.794641064295675 $392 $509 forward 7 unknown #
vertex $-1 $496 $510 #
straight-curve $-1 -27.765182186884267 -43.794641064295675 7.4947681650717186 -1 0 0 I I #
face $-1 $385 $390 $18 $-1 $511 forward single #
plane-surface $-1 -55.530364373768535 0 7.4947681650717186 0 0 1 1 0 0 forward_v I I I I #
face $-1 $512 $513 $19 $-1 $514 reversed single #
loop $-1 $-1 $515 $287 #
plane-surface $-1 0 0 18.26859497016283 0 0 1 1 0 0 forward_v I I I I #
coedge $-1 $402 $289 $516 $517 forward $173 $-1 #
coedge $-1 $289 $401 $518 $519 reversed $173 $-1 #
coedge $-1 $520 $515 $289 $404 forward $399 $-1 #
edge $-1 $521 -43.899251671509717 $522 -30.294401426081023 $403 $523 forward 7 unknown #
coedge $-1 $524 $525 $290 $406 forward $526 $-1 #
edge $-1 $527 -39.222108150392856 $413 -31.941688375050902 $405 $528 forward 7 unknown #
coedge $-1 $529 $530 $291 $408 reversed $297 $-1 #
edge $-1 $527 0 $412 9.11607311317875 $291 $531 forward 7 unknown #
coedge $-1 $532 $292 $533 $534 reversed $411 $-1 #
coedge $-1 $292 $535 $524 $536 reversed $411 $-1 #
loop $-1 $-1 $409 $537 #
vertex $-1 $293 $538 #
vertex $-1 $536 $539 #
straight-curve $-1 -45.709613296015732 0 7.4947681650717186 0 -1 0 I I #
vertex $-1 $294 $540 #
point $-1 -34.792949559383167 -35.140805906991623 7.8463341896466163 #
coedge $-1 $530 $516 $515 $541 reversed $297 $-1 #
straight-curve $-1 -65.351115451521338 43.794641064295675 0 0 0 -1 I I #
point $-1 -65.351115451521338 -43.794641064295675 -18.26859497016283 #
straight-curve $-1 -65.351115451521338 0 -18.26859497016283 0 1 0 I I #
point $-1 -65.351115451521338 43.794641064295675 -18.26859497016283 #
face $-1 $-1 $542 $16 $-1 $543 reversed single #
plane-surface $-1 0 43.794641064295675 0 0 -1 0 0 0 -1 forward_v I I I I #
coedge $-1 $544 $318 $333 $442 forward $209 $-1 #
coedge $-1 $318 $544 $330 $439 forward $209 $-1 #
coedge $-1 $545 $436 $318 $427 reversed $542 $-1 #
edge $-1 $546 -43.794641064295675 $547 43.794641064295675 $426 $548 forward 7 unknown #
coedge $-1 $436 $545 $319 $429 reversed $542 $-1 #
edge $-1 $430 -43.794641064295675 $433 43.794641064295675 $428 $549 forward 7 unknown #
vertex $-1 $429 $550 #
straight-curve $-1 0 -43.794641064295675 18.26859497016283 1 0 0 I I #
coedge $-1 $330 $321 $545 $551 forward $221 $-1 #
vertex $-1 $429 $552 #
straight-curve $-1 0 43.794641064295675 18.26859497016283 -1 0 0 I I #
point $-1 -45.709613296015732 43.794641064295675 18.26859497016283 #
coedge $-1 $426 $428 $325 $437 forward $542 $-1 #
edge $-1 $430 -18.26859497016283 $547 18.26859497016283 $436 $553 forward 7 unknown #
coedge $-1 $328 $327 $544 $554 reversed $316 $-1 #
edge $-1 $440 -65.351115451521338 $546 65.351115451521338 $330 $555 forward 7 unknown #
vertex $-1 $439 $556 #
straight-curve $-1 -65.351115451521338 43.794641064295675 0 0 0 -1 I I #
edge $-1 $547 -65.351115451521338 $443 65.351115451521338 $333 $557 forward 7 unknown #
vertex $-1 $554 $558 #
straight-curve $-1 -65.351115451521338 -43.794641064295675 0 0 0 -1 I I #
loop $-1 $-1 $559 $337 #
plane-surface $-1 -45.709613296015732 0 12.881681567617274 -1 0 0 0 0 1 forward_v I I I I #
coedge $-1 $560 $561 $562 $563 reversed $338 $-1 #
coedge $-1 $564 $340 $345 $454 reversed $231 $-1 #
coedge $-1 $340 $564 $348 $457 reversed $231 $-1 #
straight-curve $-1 89.435487272911274 -11.895935866951177 -18.26859497016283 0 -1 0 I I #
straight-curve $-1 89.435487272911274 -11.895935866951177 18.26859497016283 0 1 0 I I #
straight-curve $-1 65.351115451521338 -7.2574511239700161 0 0 0 -1 I I #
coedge $-1 $345 $459 $565 $566 forward $245 $-1 #
edge $-1 $567 -43.794641064295675 $346 7.2574511239700161 $448 $365 forward 7 unknown #
point $-1 65.351115451521338 -7.2574511239700161 -18.26859497016283 #
coedge $-1 $357 $348 $568 $569 forward $250 $-1 #
edge $-1 $349 -7.2574511239700161 $570 43.794641064295675 $449 $363 forward 7 unknown #
point $-1 65.351115451521338 -7.2574511239700161 18.26859497016283 #
coedge $-1 $453 $353 $571 $572 forward $245 $-1 #
coedge $-1 $360 $573 $353 $461 reversed $470 $-1 #
edge $-1 $364 -65.351115451521338 $574 65.351115451521338 $460 $575 forward 7 unknown #
face $-1 $576 $577 $17 $-1 $578 reversed single #
plane-surface $-1 0 0 -18.26859497016283 0 0 1 1 0 0 forward_v I I I I #
coedge $-1 $579 $360 $356 $465 reversed $470 $-1 #
edge $-1 $580 -45.709613296015732 $362 65.351115451521338 $464 $581 forward 7 unknown #
coedge $-1 $582 $559 $357 $467 reversed $445 $-1 #
edge $-1 $583 -43.794641064295675 $580 43.794641064295675 $357 $584 forward 7 unknown #
face $-1 $354 $470 $17 $-1 $585 reversed single #
plane-surface $-1 0 0 18.26859497016283 0 0 1 1 0 0 forward_v I I I I #
loop $-1 $-1 $579 $468 #
straight-curve $-1 65.351115451521338 -43.794641064295675 0 0 0 -1 I I #
point $-1 65.351115451521338 -43.794641064295675 18.26859497016283 #
point $-1 65.351115451521338 -43.794641064295675 -18.26859497016283 #
face $-1 $586 $587 $18 $-1 $588 reversed single #
loop $-1 $-1 $589 $366 #
plane-surface $-1 89.435487272911274 -11.895935866951177 0 -1 0 0 0 0 1 forward_v I I I I #
coedge $-1 $590 $591 $592 $593 forward $367 $-1 #
coedge $-1 $594 $369 $595 $596 reversed $259 $-1 #
coedge $-1 $369 $594 $489 $597 reversed $259 $-1 #
coedge $-1 $490 $598 $369 $481 forward $587 $-1 #
edge $-1 $599 -18.26859497016283 $600 18.26859497016283 $480 $601 forward 7 unknown #
coedge $-1 $370 $602 $603 $604 forward $155 $-1 #
coedge $-1 $389 $371 $370 $484 reversed $390 $-1 #
edge $-1 $605 -43.794641064295675 $373 30.189790818866978 $370 $606 forward 7 unknown #
straight-curve $-1 -45.709613296015732 -32.81968533179986 14.778606976140479 0 0.60181501223851219 0.79863551827123203 I I #
point $-1 -45.709613296015732 -30.189790818866978 18.26859497016283 #
point $-1 -25.876285822750603 -43.794641064295675 0.21434838972976422 #
coedge $-1 $377 $494 $607 $608 reversed $274 $-1 #
coedge $-1 $609 $379 $479 $597 forward $155 $-1 #
coedge $-1 $607 $480 $379 $491 reversed $587 $-1 #
edge $-1 $492 -43.794641064295675 $600 -16.53442060993234 $490 $610 forward 7 unknown #
vertex $-1 $491 $611 #
straight-curve $-1 0 -43.794641064295675 18.26859497016283 1 0 0 I I #
coedge $-1 $488 $383 $612 $613 reversed $274 $-1 #
coedge $-1 $392 $614 $383 $496 reversed $508 $-1 #
edge $-1 $394 -7.4947681650717186 $615 18.26859497016283 $495 $616 forward 7 unknown #
straight-curve $-1 -17.896474779691584 -43.794641064295675 0.21434838972976106 -1 0 0 I I #
face $-1 $617 $618 $18 $-1 $619 reversed single #
plane-surface $-1 0 -43.794641064295675 0 0 1 0 0 0 1 forward_v I I I I #
coedge $-1 $603 $387 $389 $505 forward $502 $-1 #
coedge $-1 $387 $620 $507 $621 reversed $502 $-1 #
loop $-1 $-1 $500 $622 #
vertex $-1 $621 $623 #
straight-curve $-1 -27.765182186884267 43.794641064295675 7.4947681650717186 1 0 0 I I #
edge $-1 $391 1.0539273812630814 $605 11.827754186354193 $500 $624 forward 7 unknown #
point $-1 -45.709613296015732 43.794641064295675 7.4947681650717186 #
coedge $-1 $614 $392 $501 $621 forward $508 $-1 #
loop $-1 $-1 $392 $617 #
straight-curve $-1 -65.351115451521338 0 7.4947681650717186 0 1 0 I I #
point $-1 -65.351115451521338 -43.794641064295675 7.4947681650717186 #
plane-surface $-1 -45.709613296015732 0 12.881681567617274 -1 0 0 0 0 1 forward_v I I I I #
face $-1 $625 $626 $19 $-1 $627 reversed single #
loop $-1 $-1 $628 $398 #
plane-surface $-1 77.393301362216306 -16.53442060993234 0 0 1 0 0 0 1 forward_v I I I I #
coedge $-1 $403 $629 $417 $541 forward $399 $-1 #
coedge $-1 $417 $529 $401 $517 reversed $297 $-1 #
edge $-1 $521 -22.606365691716576 $630 0 $401 $631 forward 7 unknown #
coedge $-1 $525 $632 $402 $519 forward $526 $-1 #
edge $-1 $522 21.16786156995979 $630 39.222108150392856 $518 $633 forward 7 unknown #
coedge $-1 $634 $403 $632 $635 forward $399 $-1 #
vertex $-1 $541 $636 #
vertex $-1 $635 $637 #
straight-curve $-1 -25.876285822750603 -74.089042490376698 18.26859497016283 0 -1 0 I I #
coedge $-1 $638 $405 $410 $536 forward $526 $-1 #
coedge $-1 $405 $518 $529 $639 forward $526 $-1 #
loop $-1 $-1 $405 $640 #
vertex $-1 $639 $641 #
straight-curve $-1 -45.709613296015732 -43.794641064295675 39.43645654012262 0 0 1 I I #
coedge $-1 $516 $407 $525 $639 reversed $297 $-1 #
coedge $-1 $407 $417 $642 $643 reversed $297 $-1 #
straight-curve $-1 -45.709613296015732 -43.794641064295675 0.21434838972976422 0 0.60181501223851219 0.79863551827123203 I I #
coedge $-1 $535 $409 $644 $645 reversed $411 $-1 #
coedge $-1 $642 $646 $409 $534 forward $647 $-1 #
edge $-1 $648 -43.794641064295675 $412 38.308451412120831 $533 $414 forward 7 unknown #
coedge $-1 $410 $532 $649 $650 reversed $411 $-1 #
edge $-1 $413 17.944431109131465 $651 37.58593326463707 $524 $652 forward 7 unknown #
face $-1 $653 $411 $19 $-1 $654 forward single #
point $-1 -45.709613296015732 -38.308451412120831 7.4947681650717186 #
point $-1 -45.709613296015732 -43.794641064295675 7.4947681650717186 #
point $-1 -35.792949559383167 -34.342170388720383 7.2445191774081037 #
edge $-1 $655 -27.813138516324148 $521 -7.9798110430590192 $515 $656 forward 7 unknown #
loop $-1 $-1 $436 $422 #
plane-surface $-1 65.351115451521338 0 0 -1 0 0 0 0 1 forward_v I I I I #
coedge $-1 $425 $424 $438 $554 forward $209 $-1 #
coedge $-1 $428 $426 $432 $551 reversed $542 $-1 #
vertex $-1 $427 $657 #
vertex $-1 $437 $658 #
straight-curve $-1 65.351115451521338 0 -18.26859497016283 0 -1 0 I I #
straight-curve $-1 65.351115451521338 0 18.26859497016283 0 1 0 I I #
point $-1 65.351115451521338 -43.794641064295675 18.26859497016283 #
edge $-1 $433 -18.26859497016283 $546 18.26859497016283 $545 $659 forward 7 unknown #
point $-1 65.351115451521338 43.794641064295675 18.26859497016283 #
straight-curve $-1 65.351115451521338 -43.794641064295675 0 0 0 -1 I I #
edge $-1 $443 -43.794641064295675 $440 43.794641064295675 $438 $660 forward 7 unknown #
straight-curve $-1 0 43.794641064295675 -18.26859497016283 1 0 0 I I #
point $-1 -65.351115451521338 43.794641064295675 -18.26859497016283 #
straight-curve $-1 0 -43.794641064295675 -18.26859497016283 -1 0 0 I I #
point $-1 -65.351115451521338 -43.794641064295675 -18.26859497016283 #
coedge $-1 $466 $562 $579 $661 reversed $445 $-1 #
coedge $-1 $662 $447 $663 $664 reversed $338 $-1 #
coedge $-1 $447 $662 $665 $666 reversed $338 $-1 #
coedge $-1 $559 $582 $447 $563 forward $445 $-1 #
edge $-1 $667 -43.794641064295675 $668 43.794641064295675 $562 $669 forward 7 unknown #
coedge $-1 $449 $448 $670 $671 reversed $231 $-1 #
coedge $-1 $672 $670 $453 $566 reversed $673 $-1 #
edge $-1 $674 -65.351115451521338 $567 65.351115451521338 $565 $675 forward 7 unknown #
vertex $-1 $454 $676 #
coedge $-1 $670 $677 $456 $569 reversed $673 $-1 #
edge $-1 $570 -65.351115451521338 $583 45.709613296015732 $568 $678 forward 7 unknown #
vertex $-1 $457 $679 #
coedge $-1 $680 $681 $459 $572 reversed $577 $-1 #
edge $-1 $574 -43.794641064295675 $674 43.794641064295675 $571 $682 forward 7 unknown #
coedge $-1 $460 $665 $680 $683 forward $470 $-1 #
vertex $-1 $572 $684 #
straight-curve $-1 0 -43.794641064295675 -18.26859497016283 -1 0 0 I I #
face $-1 $-1 $673 $17 $-1 $685 reversed single #
loop $-1 $-1 $686 $462 #
plane-surface $-1 -65.351115451521338 0 0 1 0 0 0 0 -1 forward_v I I I I #
coedge $-1 $665 $464 $559 $661 forward $470 $-1 #
vertex $-1 $465 $687 #
straight-curve $-1 0 -43.794641064295675 18.26859497016283 1 0 0 I I #
coedge $-1 $562 $466 $677 $688 reversed $445 $-1 #
vertex $-1 $467 $689 #
straight-curve $-1 -45.709613296015732 0 18.26859497016283 0 -1 0 I I #
plane-surface $-1 0 -43.794641064295675 0 0 1 0 0 0 1 forward_v I I I I #
face $-1 $284 $690 $18 $-1 $588 reversed single #
loop $-1 $-1 $480 $474 #
plane-surface $-1 65.351115451521338 0 0 -1 0 0 0 0 1 forward_v I I I I #
coedge $-1 $691 $692 $594 $693 forward $475 $-1 #
coedge $-1 $694 $477 $695 $696 reversed $367 $-1 #
coedge $-1 $477 $694 $697 $698 reversed $367 $-1 #
coedge $-1 $692 $691 $477 $593 reversed $475 $-1 #
edge $-1 $699 -18.26859497016283 $700 18.26859497016283 $592 $701 forward 7 unknown #
coedge $-1 $479 $478 $589 $693 reversed $259 $-1 #
coedge $-1 $702 $703 $478 $596 forward $618 $-1 #
edge $-1 $704 -12.042185910694968 $599 12.042185910694968 $478 $705 forward 7 unknown #
edge $-1 $600 -12.042185910694968 $706 12.042185910694968 $479 $707 forward 7 unknown #
coedge $-1 $480 $607 $702 $708 reversed $587 $-1 #
vertex $-1 $708 $709 #
vertex $-1 $597 $710 #
straight-curve $-1 65.351115451521338 -16.53442060993234 0 0 0 1 I I #
coedge $-1 $482 $697 $711 $712 forward $155 $-1 #
coedge $-1 $713 $500 $482 $604 reversed $502 $-1 #
edge $-1 $714 -65.351115451521338 $605 45.709613296015732 $603 $715 forward 7 unknown #
vertex $-1 $484 $716 #
straight-curve $-1 -45.709613296015732 0 18.26859497016283 0 -1 0 I I #
coedge $-1 $598 $490 $488 $608 forward $587 $-1 #
edge $-1 $492 -18.26859497016283 $717 18.26859497016283 $607 $718 forward 7 unknown #
coedge $-1 $697 $489 $692 $719 forward $155 $-1 #
straight-curve $-1 65.351115451521338 0 18.26859497016283 0 1 0 I I #
point $-1 65.351115451521338 -43.794641064295675 18.26859497016283 #
coedge $-1 $720 $702 $494 $613 forward $618 $-1 #
edge $-1 $717 -65.351115451521338 $615 65.351115451521338 $494 $721 forward 7 unknown #
coedge $-1 $495 $507 $720 $722 reversed $508 $-1 #
vertex $-1 $722 $723 #
straight-curve $-1 -65.351115451521338 -43.794641064295675 0 0 0 -1 I I #
face $-1 $622 $508 $18 $-1 $724 reversed single #
loop $-1 $-1 $725 $498 #
plane-surface $-1 0 0 -18.26859497016283 0 0 1 1 0 0 forward_v I I I I #
coedge $-1 $501 $713 $726 $727 reversed $502 $-1 #
edge $-1 $503 -7.4947681650717186 $728 18.26859497016283 $501 $729 forward 7 unknown #
face $-1 $-1 $502 $18 $-1 $730 reversed single #
point $-1 -65.351115451521338 43.794641064295675 7.4947681650717186 #
straight-curve $-1 -45.709613296015732 43.794641064295675 6.4408407838086372 0 0 1 I I #
face $-1 $731 $732 $19 $-1 $733 reversed single #
loop $-1 $-1 $734 $512 #
plane-surface $-1 77.393301362216306 -7.2574511239700161 0 0 -1 0 0 0 -1 forward_v I I I I #
coedge $-1 $735 $736 $737 $738 reversed $513 $-1 #
coedge $-1 $515 $739 $740 $741 forward $399 $-1 #
vertex $-1 $639 $742 #
straight-curve $-1 -25.876285822750603 -43.794641064295675 0.21434838972976422 0 -0.60181501223851219 -0.79863551827123203 I I #
coedge $-1 $518 $743 $520 $635 reversed $526 $-1 #
straight-curve $-1 -25.876285822750603 -43.794641064295675 39.43645654012262 0 0 -1 I I #
coedge $-1 $744 $520 $745 $746 forward $399 $-1 #
edge $-1 $522 -25.876285822750603 $747 65.351115451521338 $632 $748 forward 7 unknown #
point $-1 -25.876285822750603 -30.189790818866982 18.26859497016283 #
point $-1 -25.876285822750603 -43.794641064295675 18.26859497016283 #
coedge $-1 $749 $524 $750 $751 forward $526 $-1 #
edge $-1 $630 7.9798110430590192 $527 27.813138516324148 $525 $752 forward 7 unknown #
face $-1 $753 $526 $19 $-1 $754 reversed single #
point $-1 -45.709613296015732 -43.794641064295675 0.21434838972976422 #
coedge $-1 $740 $533 $530 $643 forward $647 $-1 #
edge $-1 $412 -9.1203542096847094 $655 4.3699383688531164 $642 $755 forward 7 unknown #
coedge $-1 $756 $757 $532 $645 forward $758 $-1 #
edge $-1 $759 -37.58593326463707 $648 -17.944431109131465 $644 $760 forward 7 unknown #
coedge $-1 $533 $740 $756 $761 reversed $647 $-1 #
loop $-1 $-1 $642 $653 #
vertex $-1 $645 $762 #
coedge $-1 $763 $750 $535 $650 forward $764 $-1 #
edge $-1 $651 -43.794641064295675 $759 43.794641064295675 $649 $765 forward 7 unknown #
vertex $-1 $751 $766 #
straight-curve $-1 -27.765182186884267 -43.794641064295675 7.4947681650717186 -1 0 0 I I #
face $-1 $640 $647 $19 $-1 $767 forward single #
plane-surface $-1 -55.530364373768535 0 7.4947681650717186 0 0 1 1 0 0 forward_v I I I I #
vertex $-1 $541 $768 #
straight-curve $-1 -17.896474779691584 -30.189790818866982 18.26859497016283 1 0 0 I I #
point $-1 65.351115451521338 43.794641064295675 -18.26859497016283 #
point $-1 65.351115451521338 -43.794641064295675 -18.26859497016283 #
straight-curve $-1 65.351115451521338 43.794641064295675 0 0 0 -1 I I #
straight-curve $-1 -65.351115451521338 0 -18.26859497016283 0 1 0 I I #
edge $-1 $580 -11.827754186354193 $668 -1.0539273812630814 $579 $769 forward 7 unknown #
coedge $-1 $561 $560 $686 $770 reversed $338 $-1 #
coedge $-1 $677 $672 $560 $664 forward $673 $-1 #
edge $-1 $771 -37.58593326463707 $667 -17.944431109131465 $663 $772 forward 7 unknown #
coedge $-1 $573 $579 $561 $666 forward $470 $-1 #
edge $-1 $668 17.944431109131465 $773 37.58593326463707 $665 $774 forward 7 unknown #
vertex $-1 $664 $775 #
vertex $-1 $666 $776 #
straight-curve $-1 -45.709613296015732 0 7.4947681650717186 0 -1 0 I I #
coedge $-1 $565 $568 $564 $671 forward $673 $-1 #
edge $-1 $570 -18.26859497016283 $567 18.26859497016283 $564 $777 forward 7 unknown #
coedge $-1 $663 $565 $681 $778 reversed $673 $-1 #
loop $-1 $-1 $677 $576 #
vertex $-1 $566 $779 #
straight-curve $-1 0 43.794641064295675 -18.26859497016283 1 0 0 I I #
point $-1 65.351115451521338 43.794641064295675 -18.26859497016283 #
coedge $-1 $568 $663 $582 $688 forward $673 $-1 #
straight-curve $-1 0 43.794641064295675 18.26859497016283 -1 0 0 I I #
point $-1 65.351115451521338 43.794641064295675 18.26859497016283 #
coedge $-1 $686 $571 $573 $683 reversed $577 $-1 #
coedge $-1 $571 $686 $672 $778 forward $577 $-1 #
straight-curve $-1 -65.351115451521338 0 -18.26859497016283 0 1 0 I I #
edge $-1 $773 -7.4947681650717186 $574 18.26859497016283 $680 $780 forward 7 unknown #
point $-1 -65.351115451521338 -43.794641064295675 -18.26859497016283 #
plane-surface $-1 0 43.794641064295675 0 0 -1 0 0 0 -1 forward_v I I I I #
coedge $-1 $681 $680 $662 $770 forward $577 $-1 #
point $-1 -45.709613296015732 -43.794641064295675 18.26859497016283 #
edge $-1 $667 1.0539273812630814 $583 11.827754186354193 $677 $781 forward 7 unknown #
point $-1 -45.709613296015732 43.794641064295675 18.26859497016283 #
loop $-1 $-1 $782 $586 #
coedge $-1 $592 $589 $703 $783 reversed $475 $-1 #
coedge $-1 $589 $592 $609 $719 reversed $475 $-1 #
edge $-1 $706 -18.26859497016283 $704 18.26859497016283 $589 $784 forward 7 unknown #
coedge $-1 $591 $590 $782 $785 reversed $367 $-1 #
coedge $-1 $703 $725 $590 $696 forward $618 $-1 #
edge $-1 $786 -12.042185910694968 $700 12.042185910694968 $590 $787 forward 7 unknown #
coedge $-1 $602 $609 $591 $698 forward $155 $-1 #
edge $-1 $699 -12.042185910694968 $788 12.042185910694968 $591 $789 forward 7 unknown #
vertex $-1 $719 $790 #
vertex $-1 $783 $791 #
straight-curve $-1 89.435487272911274 -7.2574511239700161 0 0 0 -1 I I #
coedge $-1 $612 $595 $598 $708 forward $618 $-1 #
coedge $-1 $595 $695 $691 $783 forward $618 $-1 #
vertex $-1 $693 $792 #
straight-curve $-1 77.393301362216306 -16.53442060993234 -18.26859497016283 -1 0 0 I I #
vertex $-1 $719 $793 #
straight-curve $-1 77.393301362216306 -16.53442060993234 18.26859497016283 1 0 0 I I #
edge $-1 $599 16.53442060993234 $717 43.794641064295675 $598 $794 forward 7 unknown #
point $-1 65.351115451521338 -16.53442060993234 -18.26859497016283 #
point $-1 65.351115451521338 -16.53442060993234 18.26859497016283 #
coedge $-1 $782 $795 $602 $712 reversed $690 $-1 #
edge $-1 $788 -7.2574511239700161 $714 43.794641064295675 $711 $610 forward 7 unknown #
coedge $-1 $620 $603 $795 $796 forward $502 $-1 #
vertex $-1 $712 $797 #
straight-curve $-1 0 43.794641064295675 18.26859497016283 -1 0 0 I I #
point $-1 -45.709613296015732 43.794641064295675 18.26859497016283 #
vertex $-1 $608 $798 #
straight-curve $-1 65.351115451521338 -43.794641064295675 0 0 0 -1 I I #
edge $-1 $706 -4.6384847429811629 $699 4.6384847429811611 $692 $799 forward 7 unknown #
coedge $-1 $726 $612 $614 $722 forward $618 $-1 #
straight-curve $-1 0 -43.794641064295675 -18.26859497016283 -1 0 0 I I #
edge $-1 $615 -43.794641064295675 $728 43.794641064295675 $614 $800 forward 7 unknown #
point $-1 -65.351115451521338 -43.794641064295675 -18.26859497016283 #
plane-surface $-1 -65.351115451521338 0 0 1 0 0 0 0 -1 forward_v I I I I #
coedge $-1 $695 $726 $801 $802 forward $618 $-1 #
coedge $-1 $725 $720 $620 $727 forward $618 $-1 #
edge $-1 $728 -65.351115451521338 $803 65.351115451521338 $620 $804 forward 7 unknown #
vertex $-1 $727 $805 #
straight-curve $-1 -65.351115451521338 43.794641064295675 0 0 0 -1 I I #
plane-surface $-1 0 43.794641064295675 0 0 -1 0 0 0 -1 forward_v I I I I #
face $-1 $806 $807 $19 $-1 $808 reversed single #
loop $-1 $-1 $809 $625 #
plane-surface $-1 89.435487272911274 -11.895935866951177 0 -1 0 0 0 0 1 forward_v I I I I #
coedge $-1 $810 $811 $812 $813 forward $626 $-1 #
coedge $-1 $814 $628 $815 $816 reversed $513 $-1 #
coedge $-1 $628 $814 $744 $817 reversed $513 $-1 #
coedge $-1 $745 $818 $628 $738 forward $807 $-1 #
edge $-1 $819 -18.26859497016283 $820 18.26859497016283 $737 $821 forward 7 unknown #
coedge $-1 $629 $822 $823 $824 forward $399 $-1 #
coedge $-1 $646 $642 $629 $741 reversed $647 $-1 #
edge $-1 $825 -43.794641064295675 $655 30.189790818866978 $629 $826 forward 7 unknown #
point $-1 -25.876285822750603 -43.794641064295675 0.21434838972976422 #
coedge $-1 $632 $749 $827 $828 reversed $526 $-1 #
coedge $-1 $829 $634 $736 $817 forward $399 $-1 #
coedge $-1 $827 $737 $634 $746 reversed $807 $-1 #
edge $-1 $747 -43.794641064295675 $820 -16.53442060993234 $745 $830 forward 7 unknown #
vertex $-1 $746 $831 #
straight-curve $-1 0 -43.794641064295675 18.26859497016283 1 0 0 I I #
coedge $-1 $743 $638 $832 $833 reversed $526 $-1 #
coedge $-1 $649 $834 $638 $751 reversed $764 $-1 #
edge $-1 $651 -7.4947681650717186 $835 18.26859497016283 $750 $836 forward 7 unknown #
straight-curve $-1 -17.896474779691584 -43.794641064295675 0.21434838972976106 -1 0 0 I I #
face $-1 $837 $838 $19 $-1 $839 reversed single #
plane-surface $-1 0 -43.794641064295675 0 0 1 0 0 0 1 forward_v I I I I #
straight-curve $-1 -45.709613296015732 -32.81968533179986 14.778606976140479 0 0.60181501223851219 0.79863551827123203 I I #
coedge $-1 $823 $644 $646 $761 forward $758 $-1 #
coedge $-1 $644 $840 $763 $841 reversed $758 $-1 #
loop $-1 $-1 $756 $842 #
vertex $-1 $841 $843 #
straight-curve $-1 -27.765182186884267 43.794641064295675 7.4947681650717186 1 0 0 I I #
edge $-1 $648 1.0539273812630814 $825 11.827754186354193 $756 $844 forward 7 unknown #
point $-1 -45.709613296015732 43.794641064295675 7.4947681650717186 #
coedge $-1 $834 $649 $757 $841 forward $764 $-1 #
loop $-1 $-1 $649 $837 #
straight-curve $-1 -65.351115451521338 0 7.4947681650717186 0 1 0 I I #
point $-1 -65.351115451521338 -43.794641064295675 7.4947681650717186 #
plane-surface $-1 -45.709613296015732 0 12.881681567617274 -1 0 0 0 0 1 forward_v I I I I #
point $-1 -45.709613296015732 -30.189790818866978 18.26859497016283 #
straight-curve $-1 -45.709613296015732 -43.794641064295675 6.4408407838086372 0 0 -1 I I #
edge $-1 $773 -43.794641064295675 $771 43.794641064295675 $686 $845 forward 7 unknown #
vertex $-1 $778 $846 #
straight-curve $-1 -27.765182186884267 43.794641064295675 7.4947681650717186 1 0 0 I I #
vertex $-1 $683 $847 #
straight-curve $-1 -27.765182186884267 -43.794641064295675 7.4947681650717186 -1 0 0 I I #
point $-1 -45.709613296015732 43.794641064295675 7.4947681650717186 #
point $-1 -45.709613296015732 -43.794641064295675 7.4947681650717186 #
straight-curve $-1 65.351115451521338 43.794641064295675 0 0 0 -1 I I #
edge $-1 $771 -7.4947681650717186 $674 18.26859497016283 $672 $848 forward 7 unknown #
point $-1 -65.351115451521338 43.794641064295675 -18.26859497016283 #
straight-curve $-1 -65.351115451521338 -43.794641064295675 0 0 0 -1 I I #
straight-curve $-1 -45.709613296015732 43.794641064295675 6.4408407838086372 0 0 1 I I #
coedge $-1 $801 $711 $694 $785 forward $690 $-1 #
edge $-1 $700 -4.6384847429811611 $704 4.6384847429811629 $691 $849 forward 7 unknown #
straight-curve $-1 89.435487272911274 -16.53442060993234 0 0 0 -1 I I #
edge $-1 $788 -18.26859497016283 $786 18.26859497016283 $782 $850 forward 7 unknown #
vertex $-1 $696 $851 #
straight-curve $-1 77.393301362216306 -7.2574511239700161 -18.26859497016283 1 0 0 I I #
vertex $-1 $712 $852 #
straight-curve $-1 77.393301362216306 -7.2574511239700161 18.26859497016283 -1 0 0 I I #
point $-1 89.435487272911274 -7.2574511239700161 18.26859497016283 #
point $-1 89.435487272911274 -7.2574511239700161 -18.26859497016283 #
point $-1 89.435487272911274 -16.53442060993234 -18.26859497016283 #
point $-1 89.435487272911274 -16.53442060993234 18.26859497016283 #
straight-curve $-1 65.351115451521338 0 -18.26859497016283 0 -1 0 I I #
coedge $-1 $711 $801 $713 $796 reversed $690 $-1 #
edge $-1 $714 -18.26859497016283 $803 18.26859497016283 $795 $853 forward 7 unknown #
point $-1 65.351115451521338 43.794641064295675 18.26859497016283 #
point $-1 65.351115451521338 -43.794641064295675 -18.26859497016283 #
straight-curve $-1 89.435487272911274 -11.895935866951177 18.26859497016283 0 1 0 I I #
straight-curve $-1 -65.351115451521338 0 -18.26859497016283 0 1 0 I I #
coedge $-1 $795 $782 $725 $802 reversed $690 $-1 #
edge $-1 $803 -43.794641064295675 $786 7.2574511239700161 $801 $794 forward 7 unknown #
vertex $-1 $802 $854 #
straight-curve $-1 0 43.794641064295675 -18.26859497016283 1 0 0 I I #
point $-1 -65.351115451521338 43.794641064295675 -18.26859497016283 #
face $-1 $537 $855 $19 $-1 $808 reversed single #
loop $-1 $-1 $737 $731 #
plane-surface $-1 65.351115451521338 0 0 -1 0 0 0 0 1 forward_v I I I I #
coedge $-1 $856 $857 $814 $858 forward $732 $-1 #
coedge $-1 $859 $734 $860 $861 reversed $626 $-1 #
coedge $-1 $734 $859 $862 $863 reversed $626 $-1 #
coedge $-1 $857 $856 $734 $813 reversed $732 $-1 #
edge $-1 $864 -18.26859497016283 $865 18.26859497016283 $812 $866 forward 7 unknown #
coedge $-1 $736 $735 $809 $858 reversed $513 $-1 #
coedge $-1 $867 $868 $735 $816 forward $838 $-1 #
edge $-1 $869 -12.042185910694968 $819 12.042185910694968 $735 $870 forward 7 unknown #
edge $-1 $820 -12.042185910694968 $871 12.042185910694968 $736 $872 forward 7 unknown #
coedge $-1 $737 $827 $867 $873 reversed $807 $-1 #
vertex $-1 $873 $874 #
vertex $-1 $817 $875 #
straight-curve $-1 65.351115451521338 -16.53442060993234 0 0 0 1 I I #
coedge $-1 $739 $862 $876 $877 forward $399 $-1 #
coedge $-1 $878 $756 $739 $824 reversed $758 $-1 #
edge $-1 $879 -65.351115451521338 $825 45.709613296015732 $823 $880 forward 7 unknown #
vertex $-1 $741 $881 #
straight-curve $-1 -45.709613296015732 0 18.26859497016283 0 -1 0 I I #
coedge $-1 $818 $745 $743 $828 forward $807 $-1 #
edge $-1 $747 -18.26859497016283 $882 18.26859497016283 $827 $883 forward 7 unknown #
coedge $-1 $862 $744 $857 $884 forward $399 $-1 #
straight-curve $-1 65.351115451521338 0 18.26859497016283 0 1 0 I I #
point $-1 65.351115451521338 -43.794641064295675 18.26859497016283 #
coedge $-1 $885 $867 $749 $833 forward $838 $-1 #
edge $-1 $882 -65.351115451521338 $835 65.351115451521338 $749 $886 forward 7 unknown #
coedge $-1 $750 $763 $885 $887 reversed $764 $-1 #
vertex $-1 $887 $888 #
straight-curve $-1 -65.351115451521338 -43.794641064295675 0 0 0 -1 I I #
face $-1 $842 $764 $19 $-1 $889 reversed single #
loop $-1 $-1 $890 $753 #
plane-surface $-1 0 0 -18.26859497016283 0 0 1 1 0 0 forward_v I I I I #
coedge $-1 $757 $878 $891 $892 reversed $758 $-1 #
edge $-1 $759 -7.4947681650717186 $893 18.26859497016283 $757 $894 forward 7 unknown #
face $-1 $-1 $758 $19 $-1 $895 reversed single #
point $-1 -65.351115451521338 43.794641064295675 7.4947681650717186 #
straight-curve $-1 -45.709613296015732 43.794641064295675 6.4408407838086372 0 0 1 I I #
straight-curve $-1 -65.351115451521338 0 7.4947681650717186 0 1 0 I I #
point $-1 -65.351115451521338 43.794641064295675 7.4947681650717186 #
point $-1 -65.351115451521338 -43.794641064295675 7.4947681650717186 #
straight-curve $-1 -65.351115451521338 43.794641064295675 0 0 0 -1 I I #
straight-curve $-1 89.435487272911274 -11.895935866951177 -18.26859497016283 0 -1 0 I I #
straight-curve $-1 65.351115451521338 -7.2574511239700161 0 0 0 -1 I I #
point $-1 65.351115451521338 -7.2574511239700161 -18.26859497016283 #
point $-1 65.351115451521338 -7.2574511239700161 18.26859497016283 #
straight-curve $-1 65.351115451521338 43.794641064295675 0 0 0 -1 I I #
point $-1 65.351115451521338 43.794641064295675 -18.26859497016283 #
loop $-1 $-1 $896 $806 #
coedge $-1 $812 $809 $868 $897 reversed $732 $-1 #
coedge $-1 $809 $812 $829 $884 reversed $732 $-1 #
edge $-1 $871 -18.26859497016283 $869 18.26859497016283 $809 $898 forward 7 unknown #
coedge $-1 $811 $810 $896 $899 reversed $626 $-1 #
coedge $-1 $868 $890 $810 $861 forward $838 $-1 #
edge $-1 $900 -12.042185910694968 $865 12.042185910694968 $810 $901 forward 7 unknown #
coedge $-1 $822 $829 $811 $863 forward $399 $-1 #
edge $-1 $864 -12.042185910694968 $902 12.042185910694968 $811 $903 forward 7 unknown #
vertex $-1 $884 $904 #
vertex $-1 $897 $905 #
straight-curve $-1 89.435487272911274 -7.2574511239700161 0 0 0 -1 I I #
coedge $-1 $832 $815 $818 $873 forward $838 $-1 #
coedge $-1 $815 $860 $856 $897 forward $838 $-1 #
vertex $-1 $858 $906 #
straight-curve $-1 77.393301362216306 -16.53442060993234 -18.26859497016283 -1 0 0 I I #
vertex $-1 $884 $907 #
straight-curve $-1 77.393301362216306 -16.53442060993234 18.26859497016283 1 0 0 I I #
edge $-1 $819 16.53442060993234 $882 43.794641064295675 $818 $908 forward 7 unknown #
point $-1 65.351115451521338 -16.53442060993234 -18.26859497016283 #
point $-1 65.351115451521338 -16.53442060993234 18.26859497016283 #
coedge $-1 $896 $909 $822 $877 reversed $855 $-1 #
edge $-1 $902 -7.2574511239700161 $879 43.794641064295675 $876 $830 forward 7 unknown #
coedge $-1 $840 $823 $909 $910 forward $758 $-1 #
vertex $-1 $877 $911 #
straight-curve $-1 0 43.794641064295675 18.26859497016283 -1 0 0 I I #
point $-1 -45.709613296015732 43.794641064295675 18.26859497016283 #
vertex $-1 $828 $912 #
straight-curve $-1 65.351115451521338 -43.794641064295675 0 0 0 -1 I I #
edge $-1 $871 -4.6384847429811629 $864 4.6384847429811611 $857 $913 forward 7 unknown #
coedge $-1 $891 $832 $834 $887 forward $838 $-1 #
straight-curve $-1 0 -43.794641064295675 -18.26859497016283 -1 0 0 I I #
edge $-1 $835 -43.794641064295675 $893 43.794641064295675 $834 $914 forward 7 unknown #
point $-1 -65.351115451521338 -43.794641064295675 -18.26859497016283 #
plane-surface $-1 -65.351115451521338 0 0 1 0 0 0 0 -1 forward_v I I I I #
coedge $-1 $860 $891 $915 $916 forward $838 $-1 #
coedge $-1 $890 $885 $840 $892 forward $838 $-1 #
edge $-1 $893 -65.351115451521338 $917 65.351115451521338 $840 $918 forward 7 unknown #
vertex $-1 $892 $919 #
straight-curve $-1 -65.351115451521338 43.794641064295675 0 0 0 -1 I I #
plane-surface $-1 0 43.794641064295675 0 0 -1 0 0 0 -1 forward_v I I I I #
coedge $-1 $915 $876 $859 $899 forward $855 $-1 #
edge $-1 $865 -4.6384847429811611 $869 4.6384847429811629 $856 $920 forward 7 unknown #
straight-curve $-1 89.435487272911274 -16.53442060993234 0 0 0 -1 I I #
edge $-1 $902 -18.26859497016283 $900 18.26859497016283 $896 $921 forward 7 unknown #
vertex $-1 $861 $922 #
straight-curve $-1 77.393301362216306 -7.2574511239700161 -18.26859497016283 1 0 0 I I #
vertex $-1 $877 $923 #
straight-curve $-1 77.393301362216306 -7.2574511239700161 18.26859497016283 -1 0 0 I I #
point $-1 89.435487272911274 -7.2574511239700161 18.26859497016283 #
point $-1 89.435487272911274 -7.2574511239700161 -18.26859497016283 #
point $-1 89.435487272911274 -16.53442060993234 -18.26859497016283 #
point $-1 89.435487272911274 -16.53442060993234 18.26859497016283 #
straight-curve $-1 65.351115451521338 0 -18.26859497016283 0 -1 0 I I #
coedge $-1 $876 $915 $878 $910 reversed $855 $-1 #
edge $-1 $879 -18.26859497016283 $917 18.26859497016283 $909 $924 forward 7 unknown #
point $-1 65.351115451521338 43.794641064295675 18.26859497016283 #
point $-1 65.351115451521338 -43.794641064295675 -18.26859497016283 #
straight-curve $-1 89.435487272911274 -11.895935866951177 18.26859497016283 0 1 0 I I #
straight-curve $-1 -65.351115451521338 0 -18.26859497016283 0 1 0 I I #
coedge $-1 $909 $896 $890 $916 reversed $855 $-1 #
edge $-1 $917 -43.794641064295675 $900 7.2574511239700161 $915 $908 forward 7 unknown #
vertex $-1 $916 $925 #
straight-curve $-1 0 43.794641064295675 -18.26859497016283 1 0 0 I I #
point $-1 -65.351115451521338 43.794641064295675 -18.26859497016283 #
straight-curve $-1 89.435487272911274 -11.895935866951177 -18.26859497016283 0 -1 0 I I #
straight-curve $-1 65.351115451521338 -7.2574511239700161 0 0 0 -1 I I #
point $-1 65.351115451521338 -7.2574511239700161 -18.26859497016283 #
point $-1 65.351115451521338 -7.2574511239700161 18.26859497016283 #
straight-curve $-1 65.351115451521338 43.794641064295675 0 0 0 -1 I I #
point $-1 65.351115451521338 43.794641064295675 -18.26859497016283 #
End-of-ACIS-data 