500 0 5 0           
7 Unknown 11 ACIS 5.0 NT 24 Thu Mar 25 20:35:58 1999 
-1 9.9999999999999995e-007 1e-010 
body $-1 $5 $-1 $6 #
body $-1 $7 $-1 $8 #
body $-1 $9 $-1 $10 #
body $-1 $11 $-1 $12 #
body $-1 $13 $-1 $14 #
lump $-1 $-1 $15 $0 #
transform $-1 1 0 0 0 1 0 0 0 1 63.859370708334609 41.055570826711254 10.75060300934928 1 rotate no_reflect no_shear #
lump $-1 $-1 $16 $1 #
transform $-1 1 0 0 0 1 0 0 0 1 63.859370708334609 41.055570826711254 10.75060300934928 1 rotate no_reflect no_shear #
lump $-1 $-1 $17 $2 #
transform $-1 1 0 0 0 1 0 0 0 1 63.859370708334609 41.055570826711254 10.75060300934928 1 rotate no_reflect no_shear #
lump $-1 $-1 $18 $3 #
transform $-1 1 0 0 0 1 0 0 0 1 63.859370708334609 41.055570826711254 10.75060300934928 1 rotate no_reflect no_shear #
lump $-1 $-1 $19 $4 #
transform $-1 1 0 0 0 1 0 0 0 1 63.859370708334609 41.055570826711254 10.75060300934928 1 rotate no_reflect no_shear #
shell $-1 $-1 $-1 $20 $-1 $5 #
shell $-1 $-1 $-1 $21 $-1 $7 #
shell $-1 $-1 $-1 $22 $-1 $9 #
shell $-1 $-1 $-1 $23 $-1 $11 #
shell $-1 $-1 $-1 $24 $-1 $13 #
face $-1 $25 $26 $15 $-1 $27 forward single #
face $-1 $28 $29 $16 $-1 $30 forward single #
face $-1 $31 $32 $17 $-1 $33 forward single #
face $-1 $34 $35 $18 $-1 $36 reversed single #
face $-1 $37 $38 $19 $-1 $39 forward single #
face $-1 $40 $41 $15 $-1 $42 reversed single #
loop $-1 $-1 $43 $20 #
plane-surface $-1 0 0 10.75060300934928 0 0 1 1 0 0 forward_v I I I I #
face $-1 $44 $45 $16 $-1 $46 reversed single #
loop $-1 $-1 $47 $21 #
plane-surface $-1 0 -41.055570826711254 0 0 1 0 0 0 1 forward_v I I I I #
face $-1 $48 $49 $17 $-1 $50 reversed single #
loop $-1 $-1 $51 $22 #
plane-surface $-1 0 35.115527189587418 -7.7506030093492804 0 0 1 1 0 0 forward_v I I I I #
face $-1 $52 $53 $18 $-1 $54 reversed single #
loop $-1 $-1 $55 $23 #
plane-surface $-1 -173.33570053819301 29.175483552463582 68.532828920221405 0 -1 0 0.85716730853699208 0 -0.51503806187062418 forward_v I I I I #
face $-1 $56 $57 $19 $-1 $58 forward single #
loop $-1 $59 $60 $24 #
cone-surface $-1 -60.606273059735678 21.843755089731154 6.240785618288438 0.85716730853699208 0 -0.51503806187062418 0.25751903093531209 0 0.42858365426849604 1 I I 0 1 0.5 forward I I I I #
face $-1 $61 $62 $15 $-1 $63 reversed single #
loop $-1 $-1 $64 $25 #
plane-surface $-1 0 0 -10.75060300934928 0 0 1 1 0 0 forward_v I I I I #
coedge $-1 $65 $66 $67 $68 forward $26 $-1 #
face $-1 $69 $70 $16 $-1 $71 forward single #
loop $-1 $-1 $72 $28 #
plane-surface $-1 -63.859370708334609 0 0 1 0 0 0 0 -1 forward_v I I I I #
coedge $-1 $73 $74 $75 $76 forward $29 $-1 #
face $-1 $77 $78 $17 $-1 $79 reversed single #
loop $-1 $-1 $80 $31 #
plane-surface $-1 0 29.175483552463582 -9.2506030093492804 0 1 0 0 0 1 forward_v I I I I #
coedge $-1 $81 $82 $83 $84 reversed $32 $-1 #
face $-1 $85 $86 $18 $-1 $87 reversed single #
loop $-1 $-1 $88 $34 #
plane-surface $-1 -63.859370708334595 21.843755089731154 2.7528158764246768 -0.85716730853699208 0 0.51503806187062418 0.51503806187062418 0 0.85716730853699208 forward_v I I I I #
coedge $-1 $89 $90 $91 $92 reversed $35 $-1 #
face $-1 $-1 $93 $19 $-1 $94 forward single #
loop $-1 $95 $96 $37 #
cone-surface $-1 -59.541661164977846 21.843755089731154 5.6011022782222497 0.85716730853699208 0 -0.51503806187062418 0.12875951546765604 0 0.21429182713424802 1 I I -0.70710678118654746 0.70710678118654746 0.25 forward I I I I #
loop $-1 $-1 $97 $24 #
coedge $-1 $60 $60 $98 $99 reversed $38 $-1 #
face $-1 $100 $101 $15 $-1 $102 reversed single #
loop $-1 $-1 $103 $40 #
plane-surface $-1 0 -41.055570826711254 0 0 1 0 0 0 1 forward_v I I I I #
coedge $-1 $104 $105 $106 $107 forward $41 $-1 #
coedge $-1 $108 $43 $109 $110 forward $26 $-1 #
coedge $-1 $43 $108 $111 $112 forward $26 $-1 #
coedge $-1 $113 $114 $43 $68 reversed $115 $-1 #
edge $-1 $116 -41.055570826711254 $117 41.055570826711254 $67 $118 forward 7 unknown #
face $-1 $119 $120 $16 $-1 $121 reversed single #
loop $-1 $-1 $122 $44 #
plane-surface $-1 0 -45.770750463201111 5.3676545050745696 0 0 1 1 0 0 forward_v I I I I #
coedge $-1 $123 $124 $74 $125 forward $45 $-1 #
coedge $-1 $126 $47 $127 $128 reversed $29 $-1 #
coedge $-1 $47 $126 $72 $125 reversed $29 $-1 #
coedge $-1 $129 $122 $47 $76 reversed $70 $-1 #
edge $-1 $130 -63.859370708334609 $131 63.859370708334609 $75 $132 forward 7 unknown #
face $-1 $133 $134 $17 $-1 $135 reversed single #
loop $-1 $-1 $83 $48 #
plane-surface $-1 63.859370708334609 0 0 -1 0 0 0 0 1 forward_v I I I I #
coedge $-1 $136 $137 $138 $139 reversed $49 $-1 #
coedge $-1 $140 $51 $141 $142 reversed $32 $-1 #
coedge $-1 $51 $140 $137 $143 forward $32 $-1 #
coedge $-1 $144 $145 $51 $84 forward $78 $-1 #
edge $-1 $146 -23.497807231917545 $147 -11.617719957669873 $83 $148 forward 7 unknown #
face $-1 $149 $150 $18 $-1 $151 reversed single #
loop $-1 $-1 $152 $52 #
plane-surface $-1 -173.33570053819301 14.512026626998725 68.532828920221405 0 1 0 -0.85716730853699208 0 0.51503806187062418 forward_v I I I I #
coedge $-1 $153 $154 $155 $156 reversed $53 $-1 #
coedge $-1 $90 $55 $157 $158 reversed $35 $-1 #
coedge $-1 $55 $89 $153 $159 reversed $35 $-1 #
coedge $-1 $155 $160 $55 $92 forward $150 $-1 #
edge $-1 $161 23.515811450761422 $162 31.513598583686051 $91 $163 forward 7 unknown #
loop $-1 $-1 $98 $56 #
plane-surface $-1 -63.859370708334595 21.843755089731154 2.7528158764246768 -0.85716730853699208 0 0.51503806187062418 0.51503806187062418 0 0.85716730853699208 forward_v I I I I #
loop $-1 $-1 $164 $37 #
coedge $-1 $96 $96 $97 $165 reversed $57 $-1 #
coedge $-1 $97 $97 $96 $165 forward $59 $-1 #
coedge $-1 $98 $98 $60 $99 forward $93 $-1 #
edge $-1 $166 0 $166 6.2831853071796004 $98 $167 forward 7 unknown #
face $-1 $168 $169 $15 $-1 $170 reversed single #
loop $-1 $-1 $171 $61 #
plane-surface $-1 -63.859370708334609 0 0 1 0 0 0 0 -1 forward_v I I I I #
coedge $-1 $172 $111 $173 $174 forward $62 $-1 #
coedge $-1 $175 $64 $172 $176 forward $41 $-1 #
coedge $-1 $64 $175 $177 $178 forward $41 $-1 #
coedge $-1 $114 $113 $64 $107 reversed $115 $-1 #
edge $-1 $179 -41.055570826711254 $180 41.055570826711254 $106 $181 forward 7 unknown #
coedge $-1 $66 $65 $182 $183 forward $26 $-1 #
coedge $-1 $184 $185 $65 $110 reversed $169 $-1 #
edge $-1 $117 -63.859370708334609 $186 63.859370708334609 $109 $187 forward 7 unknown #
coedge $-1 $103 $188 $66 $112 reversed $62 $-1 #
edge $-1 $189 -63.859370708334609 $116 63.859370708334609 $111 $190 forward 7 unknown #
coedge $-1 $106 $67 $188 $191 forward $115 $-1 #
coedge $-1 $67 $106 $184 $192 reversed $115 $-1 #
loop $-1 $-1 $113 $168 #
vertex $-1 $68 $193 #
vertex $-1 $68 $194 #
straight-curve $-1 63.859370708334609 0 10.75060300934928 0 1 0 I I #
face $-1 $195 $196 $16 $-1 $197 reversed single #
loop $-1 $-1 $198 $69 #
plane-surface $-1 0 -45.770750463201111 -0.24318451906818783 0 0 1 1 0 0 forward_v I I I I #
coedge $-1 $75 $199 $200 $201 forward $70 $-1 #
coedge $-1 $202 $72 $203 $204 reversed $45 $-1 #
coedge $-1 $72 $202 $129 $205 reversed $45 $-1 #
edge $-1 $130 -5.3676545050745696 $206 0.24318451906818783 $72 $207 forward 7 unknown #
coedge $-1 $74 $73 $208 $209 forward $29 $-1 #
coedge $-1 $200 $210 $73 $128 forward $211 $-1 #
edge $-1 $212 -0.24318451906818783 $131 5.3676545050745696 $127 $213 forward 7 unknown #
coedge $-1 $199 $75 $124 $205 forward $70 $-1 #
vertex $-1 $125 $214 #
vertex $-1 $201 $215 #
straight-curve $-1 0 -41.055570826711254 5.3676545050745696 1 0 0 I I #
face $-1 $216 $217 $17 $-1 $218 reversed single #
loop $-1 $-1 $219 $77 #
plane-surface $-1 0 0 -10.75060300934928 0 0 1 1 0 0 forward_v I I I I #
coedge $-1 $220 $80 $219 $221 reversed $49 $-1 #
coedge $-1 $80 $220 $82 $143 reversed $49 $-1 #
coedge $-1 $222 $223 $80 $139 forward $217 $-1 #
edge $-1 $224 -6.1253015046746402 $225 -3.1253015046746402 $138 $226 forward 7 unknown #
coedge $-1 $82 $81 $222 $227 reversed $32 $-1 #
coedge $-1 $228 $229 $81 $142 forward $230 $-1 #
edge $-1 $231 -63.859370708334609 $146 63.859370708334609 $141 $232 forward 7 unknown #
edge $-1 $225 -63.859370708334609 $147 63.859370708334609 $137 $233 forward 7 unknown #
coedge $-1 $234 $83 $220 $235 forward $78 $-1 #
coedge $-1 $83 $234 $228 $236 reversed $78 $-1 #
vertex $-1 $236 $237 #
vertex $-1 $84 $238 #
straight-curve $-1 63.859370708334609 17.557763594793709 -7.7506030093492804 0 -1 0 I I #
face $-1 $-1 $239 $18 $-1 $240 forward single #
loop $-1 $-1 $91 $85 #
plane-surface $-1 -63.859370708334609 0 0 1 0 0 0 0 -1 forward_v I I I I #
coedge $-1 $241 $242 $243 $244 reversed $86 $-1 #
coedge $-1 $245 $88 $90 $159 forward $53 $-1 #
coedge $-1 $88 $245 $241 $246 forward $53 $-1 #
coedge $-1 $243 $91 $88 $156 forward $150 $-1 #
edge $-1 $162 -18.253606007598005 $247 -3.5901490821331485 $155 $248 forward 7 unknown #
coedge $-1 $249 $250 $89 $158 forward $239 $-1 #
edge $-1 $251 -27.614034722712582 $161 -22.808479560761896 $157 $252 forward 7 unknown #
edge $-1 $162 -2.7494044966190042e-014 $251 9.3304854878042196 $90 $253 forward 7 unknown #
coedge $-1 $91 $243 $249 $254 reversed $150 $-1 #
vertex $-1 $254 $255 #
vertex $-1 $92 $256 #
straight-curve $-1 -63.859370708334609 29.175483552463582 34.266414460110703 0 0 -1 I I #
coedge $-1 $164 $164 $-1 $257 reversed $95 $-1 #
edge $-1 $258 0 $258 6.2831853071796004 $96 $259 forward 7 unknown #
vertex $-1 $99 $260 #
ellipse-curve $-1 -61.456593127359262 21.843755089731154 6.7517094428869706 -0.85716730853699208 0 0.51503806187062418 0.25751903093531209 0 0.42858365426849604 1 I I #
face $-1 $-1 $115 $15 $-1 $261 reversed single #
loop $-1 $-1 $184 $100 #
plane-surface $-1 0 41.055570826711254 0 0 -1 0 0 0 -1 forward_v I I I I #
coedge $-1 $262 $182 $185 $263 forward $101 $-1 #
coedge $-1 $188 $103 $104 $176 reversed $62 $-1 #
coedge $-1 $182 $262 $103 $174 reversed $101 $-1 #
edge $-1 $189 -10.75060300934928 $264 10.75060300934928 $173 $265 forward 7 unknown #
coedge $-1 $105 $104 $262 $266 forward $41 $-1 #
edge $-1 $180 -63.859370708334609 $264 63.859370708334609 $172 $267 forward 7 unknown #
coedge $-1 $185 $184 $105 $178 reversed $169 $-1 #
edge $-1 $268 -63.859370708334609 $179 63.859370708334609 $177 $269 forward 7 unknown #
vertex $-1 $107 $270 #
vertex $-1 $191 $271 #
straight-curve $-1 63.859370708334609 0 -10.75060300934928 0 -1 0 I I #
coedge $-1 $171 $173 $108 $183 reversed $101 $-1 #
edge $-1 $186 -41.055570826711254 $189 41.055570826711254 $182 $272 forward 7 unknown #
coedge $-1 $177 $109 $114 $192 forward $169 $-1 #
coedge $-1 $109 $177 $171 $263 reversed $169 $-1 #
vertex $-1 $110 $273 #
straight-curve $-1 0 41.055570826711254 10.75060300934928 -1 0 0 I I #
coedge $-1 $111 $172 $113 $191 reversed $62 $-1 #
vertex $-1 $183 $274 #
straight-curve $-1 0 -41.055570826711254 10.75060300934928 1 0 0 I I #
edge $-1 $116 -10.75060300934928 $180 10.75060300934928 $113 $275 forward 7 unknown #
edge $-1 $117 -10.75060300934928 $179 10.75060300934928 $114 $276 forward 7 unknown #
point $-1 63.859370708334609 -41.055570826711254 10.75060300934928 #
point $-1 63.859370708334609 41.055570826711254 10.75060300934928 #
face $-1 $-1 $211 $16 $-1 $277 reversed single #
loop $-1 $-1 $278 $119 #
plane-surface $-1 0 -50.485930099690968 2.5622349930031909 0 1 0 0 0 1 forward_v I I I I #
coedge $-1 $279 $208 $210 $280 forward $120 $-1 #
coedge $-1 $122 $129 $281 $282 forward $70 $-1 #
coedge $-1 $283 $127 $122 $201 reversed $211 $-1 #
edge $-1 $284 -4.7151796364898573 $131 4.7151796364898573 $200 $285 forward 7 unknown #
coedge $-1 $124 $123 $278 $286 reversed $45 $-1 #
coedge $-1 $208 $279 $123 $204 forward $120 $-1 #
edge $-1 $287 -4.7151796364898573 $206 4.7151796364898573 $123 $288 forward 7 unknown #
edge $-1 $130 -4.7151796364898573 $289 4.7151796364898573 $124 $290 forward 7 unknown #
vertex $-1 $125 $291 #
straight-curve $-1 -63.859370708334609 -41.055570826711254 0 0 0 -1 I I #
coedge $-1 $198 $203 $126 $209 reversed $120 $-1 #
edge $-1 $212 -63.859370708334609 $206 63.859370708334609 $208 $292 forward 7 unknown #
coedge $-1 $127 $283 $198 $280 reversed $211 $-1 #
loop $-1 $-1 $127 $195 #
vertex $-1 $128 $293 #
straight-curve $-1 63.859370708334609 -41.055570826711254 0 0 0 1 I I #
point $-1 -63.859370708334609 -41.055570826711254 5.3676545050745696 #
point $-1 63.859370708334609 -41.055570826711254 5.3676545050745696 #
face $-1 $-1 $230 $17 $-1 $294 reversed single #
loop $-1 $-1 $222 $133 #
plane-surface $-1 -63.859370708334609 0 0 1 0 0 0 0 -1 forward_v I I I I #
coedge $-1 $295 $296 $136 $221 forward $134 $-1 #
coedge $-1 $137 $136 $144 $235 reversed $49 $-1 #
edge $-1 $297 -63.859370708334609 $224 63.859370708334609 $219 $298 forward 7 unknown #
coedge $-1 $299 $138 $140 $227 forward $217 $-1 #
coedge $-1 $138 $299 $295 $300 reversed $217 $-1 #
vertex $-1 $300 $301 #
vertex $-1 $227 $302 #
straight-curve $-1 -63.859370708334609 29.175483552463582 -4.6253015046746402 0 0 1 I I #
edge $-1 $225 11.617719957669873 $231 23.497807231917545 $222 $303 forward 7 unknown #
coedge $-1 $304 $141 $145 $236 forward $230 $-1 #
coedge $-1 $141 $304 $299 $305 reversed $230 $-1 #
loop $-1 $-1 $141 $216 #
vertex $-1 $305 $306 #
straight-curve $-1 0 41.055570826711254 -7.7506030093492804 1 0 0 I I #
straight-curve $-1 0 29.175483552463582 -7.7506030093492804 1 0 0 I I #
coedge $-1 $145 $144 $296 $307 reversed $78 $-1 #
edge $-1 $147 3.1253015046746402 $297 6.1253015046746402 $144 $308 forward 7 unknown #
edge $-1 $146 7.7506030093492804 $309 10.75060300934928 $145 $310 forward 7 unknown #
point $-1 63.859370708334609 41.055570826711254 -7.7506030093492804 #
point $-1 63.859370708334609 29.175483552463582 -7.7506030093492804 #
loop $-1 $-1 $157 $149 #
plane-surface $-1 0 0 10.75060300934928 0 0 1 1 0 0 forward_v I I I I #
coedge $-1 $242 $152 $154 $246 reversed $86 $-1 #
coedge $-1 $152 $241 $311 $312 reversed $86 $-1 #
coedge $-1 $160 $155 $152 $244 forward $150 $-1 #
edge $-1 $247 -31.513598583686051 $313 -23.515811450761422 $243 $314 forward 7 unknown #
coedge $-1 $154 $153 $250 $315 reversed $53 $-1 #
edge $-1 $316 -9.3304854878042196 $247 2.7494044966190042e-014 $241 $317 forward 7 unknown #
vertex $-1 $156 $318 #
straight-curve $-1 -63.859370708334609 10.921877544865577 2.75281587642466 0 -1 0 I I #
coedge $-1 $311 $157 $160 $254 forward $239 $-1 #
coedge $-1 $157 $311 $245 $315 forward $239 $-1 #
vertex $-1 $158 $319 #
straight-curve $-1 -86.667850269096505 29.175483552463582 10.75060300934928 -1 0 0 I I #
straight-curve $-1 -63.859370708334595 29.175483552463582 2.7528158764246768 0.51503806187062418 0 0.85716730853699208 I I #
edge $-1 $161 -29.175483552463582 $313 -14.512026626998725 $160 $320 forward 7 unknown #
point $-1 -63.859370708334609 29.175483552463582 10.75060300934928 #
point $-1 -63.859370708334609 29.175483552463582 2.7528158764246533 #
edge $-1 $321 1 $321 0 $164 $-1 forward 7 unknown #
vertex $-1 $165 $322 #
ellipse-curve $-1 -59.755952992112093 21.843755089731154 5.7298617936899054 -0.85716730853699208 0 0.51503806187062418 0.25751903093531209 0 0.42858365426849604 1 I I #
point $-1 -61.199074096423956 21.843755089731154 7.1802930971554666 #
plane-surface $-1 63.859370708334609 0 0 -1 0 0 0 0 1 forward_v I I I I #
coedge $-1 $173 $171 $175 $266 reversed $101 $-1 #
edge $-1 $186 -10.75060300934928 $268 10.75060300934928 $185 $323 forward 7 unknown #
vertex $-1 $266 $324 #
straight-curve $-1 -63.859370708334609 -41.055570826711254 0 0 0 -1 I I #
edge $-1 $264 -41.055570826711254 $268 41.055570826711254 $262 $325 forward 7 unknown #
straight-curve $-1 0 -41.055570826711254 -10.75060300934928 -1 0 0 I I #
vertex $-1 $178 $326 #
straight-curve $-1 0 41.055570826711254 -10.75060300934928 1 0 0 I I #
point $-1 63.859370708334609 41.055570826711254 -10.75060300934928 #
point $-1 63.859370708334609 -41.055570826711254 -10.75060300934928 #
straight-curve $-1 -63.859370708334609 0 10.75060300934928 0 -1 0 I I #
point $-1 -63.859370708334609 41.055570826711254 10.75060300934928 #
point $-1 -63.859370708334609 -41.055570826711254 10.75060300934928 #
straight-curve $-1 63.859370708334609 -41.055570826711254 0 0 0 -1 I I #
straight-curve $-1 63.859370708334609 41.055570826711254 0 0 0 -1 I I #
plane-surface $-1 63.859370708334609 0 0 -1 0 0 0 0 1 forward_v I I I I #
coedge $-1 $327 $281 $202 $286 forward $196 $-1 #
coedge $-1 $203 $198 $327 $328 forward $120 $-1 #
edge $-1 $212 -4.7151796364898573 $329 4.7151796364898573 $210 $330 forward 7 unknown #
coedge $-1 $278 $331 $199 $282 reversed $196 $-1 #
edge $-1 $289 -63.859370708334609 $284 63.859370708334609 $281 $332 forward 7 unknown #
coedge $-1 $210 $200 $331 $333 forward $211 $-1 #
vertex $-1 $201 $334 #
straight-curve $-1 63.859370708334609 -45.770750463201111 5.3676545050745696 0 1 0 I I #
edge $-1 $289 -2.8054195120713787 $287 2.8054195120713787 $202 $335 forward 7 unknown #
vertex $-1 $204 $336 #
straight-curve $-1 -63.859370708334609 -45.770750463201111 -0.24318451906818783 0 1 0 I I #
vertex $-1 $205 $337 #
straight-curve $-1 -63.859370708334609 -45.770750463201111 5.3676545050745696 0 -1 0 I I #
point $-1 -63.859370708334609 -41.055570826711254 -0.24318451906818783 #
straight-curve $-1 0 -41.055570826711254 -0.24318451906818783 -1 0 0 I I #
point $-1 63.859370708334609 -41.055570826711254 -0.24318451906818783 #
plane-surface $-1 0 41.055570826711254 0 0 -1 0 0 0 -1 forward_v I I I I #
coedge $-1 $338 $219 $223 $300 forward $134 $-1 #
coedge $-1 $219 $338 $234 $307 forward $134 $-1 #
vertex $-1 $221 $339 #
straight-curve $-1 0 29.175483552463582 -10.75060300934928 -1 0 0 I I #
coedge $-1 $223 $222 $229 $305 forward $217 $-1 #
edge $-1 $224 29.175483552463582 $340 41.055570826711254 $223 $341 forward 7 unknown #
point $-1 -63.859370708334609 29.175483552463582 -10.75060300934928 #
point $-1 -63.859370708334609 29.175483552463582 -7.7506030093492804 #
straight-curve $-1 -63.859370708334609 17.557763594793709 -7.7506030093492804 0 1 0 I I #
coedge $-1 $229 $228 $338 $342 reversed $230 $-1 #
edge $-1 $231 7.7506030093492804 $340 10.75060300934928 $229 $343 forward 7 unknown #
point $-1 -63.859370708334609 41.055570826711254 -7.7506030093492804 #
edge $-1 $309 -41.055570826711254 $297 -29.175483552463582 $234 $344 forward 7 unknown #
straight-curve $-1 63.859370708334609 29.175483552463582 -4.6253015046746402 0 0 -1 I I #
vertex $-1 $307 $345 #
straight-curve $-1 63.859370708334609 41.055570826711254 0 0 0 -1 I I #
coedge $-1 $250 $249 $242 $312 forward $239 $-1 #
edge $-1 $313 22.808479560761896 $316 27.614034722712582 $311 $346 forward 7 unknown #
vertex $-1 $312 $347 #
straight-curve $-1 -63.859370708334609 14.512026626998725 34.266414460110703 0 0 1 I I #
edge $-1 $316 3.5901490821331485 $251 18.253606007598005 $250 $348 forward 7 unknown #
vertex $-1 $315 $349 #
straight-curve $-1 -63.859370708334595 14.512026626998725 2.7528158764246768 -0.51503806187062418 0 -0.85716730853699208 I I #
point $-1 -63.859370708334609 14.512026626998725 2.7528158764246533 #
point $-1 -59.053815546383923 29.175483552463582 10.75060300934928 #
straight-curve $-1 -63.859370708334609 0 10.75060300934928 0 -1 0 I I #
vertex $-1 $257 $350 #
point $-1 -59.498433961176779 21.843755089731154 6.1584454479584014 #
straight-curve $-1 -63.859370708334609 41.055570826711254 0 0 0 -1 I I #
point $-1 -63.859370708334609 -41.055570826711254 -10.75060300934928 #
straight-curve $-1 -63.859370708334609 0 -10.75060300934928 0 1 0 I I #
point $-1 -63.859370708334609 41.055570826711254 -10.75060300934928 #
coedge $-1 $331 $278 $279 $328 reversed $196 $-1 #
edge $-1 $329 -63.859370708334609 $287 63.859370708334609 $327 $351 forward 7 unknown #
vertex $-1 $333 $352 #
straight-curve $-1 63.859370708334609 -45.770750463201111 -0.24318451906818783 0 -1 0 I I #
coedge $-1 $281 $327 $283 $333 reversed $196 $-1 #
straight-curve $-1 0 -50.485930099690968 5.3676545050745696 1 0 0 I I #
edge $-1 $284 -2.8054195120713787 $329 2.8054195120713787 $283 $353 forward 7 unknown #
point $-1 63.859370708334609 -50.485930099690968 5.3676545050745696 #
straight-curve $-1 -63.859370708334609 -50.485930099690968 2.5622349930031909 0 0 -1 I I #
point $-1 -63.859370708334609 -50.485930099690968 -0.24318451906818783 #
point $-1 -63.859370708334609 -50.485930099690968 5.3676545050745696 #
coedge $-1 $296 $295 $304 $342 forward $134 $-1 #
point $-1 63.859370708334609 29.175483552463582 -10.75060300934928 #
vertex $-1 $342 $354 #
straight-curve $-1 -63.859370708334609 0 -10.75060300934928 0 1 0 I I #
edge $-1 $340 -63.859370708334609 $309 63.859370708334609 $304 $355 forward 7 unknown #
straight-curve $-1 -63.859370708334609 41.055570826711254 0 0 0 -1 I I #
straight-curve $-1 63.859370708334609 0 -10.75060300934928 0 -1 0 I I #
point $-1 63.859370708334609 41.055570826711254 -10.75060300934928 #
straight-curve $-1 -86.667850269096505 14.512026626998725 10.75060300934928 1 0 0 I I #
point $-1 -63.859370708334609 14.512026626998725 10.75060300934928 #
straight-curve $-1 -59.053815546383923 10.921877544865577 10.75060300934928 0 1 0 I I #
point $-1 -59.053815546383923 14.512026626998725 10.75060300934928 #
point $-1 -59.327369337843599 21.843755089731154 5.472342762754594 #
straight-curve $-1 0 -50.485930099690968 -0.24318451906818783 -1 0 0 I I #
point $-1 63.859370708334609 -50.485930099690968 -0.24318451906818783 #
straight-curve $-1 63.859370708334609 -50.485930099690968 2.5622349930031909 0 0 -1 I I #
point $-1 -63.859370708334609 41.055570826711254 -10.75060300934928 #
straight-curve $-1 0 41.055570826711254 -10.75060300934928 1 0 0 I I #
End-of-ACIS-data 