500 0 8 0           
7 Unknown 11 ACIS 5.0 NT 24 Fri Mar 26 01:14:16 1999 
-1 9.9999999999999995e-007 1e-010 
body $-1 $8 $-1 $9 #
body $-1 $10 $-1 $11 #
body $-1 $12 $-1 $13 #
body $-1 $14 $-1 $15 #
body $-1 $16 $-1 $17 #
body $-1 $18 $-1 $19 #
body $-1 $20 $-1 $21 #
body $-1 $22 $-1 $23 #
lump $-1 $-1 $24 $0 #
transform $-1 1 0 0 0 1 0 0 0 1 68.167363505966364 33.440640520655101 11.543639301528424 1 rotate no_reflect no_shear #
lump $-1 $-1 $25 $1 #
transform $-1 1 0 0 0 1 0 0 0 1 68.167363505966364 33.440640520655101 11.543639301528424 1 rotate no_reflect no_shear #
lump $-1 $-1 $26 $2 #
transform $-1 1 0 0 0 1 0 0 0 1 68.167363505966364 33.440640520655101 11.543639301528424 1 rotate no_reflect no_shear #
lump $-1 $-1 $27 $3 #
transform $-1 1 0 0 0 1 0 0 0 1 68.167363505966364 33.440640520655101 11.543639301528424 1 rotate no_reflect no_shear #
lump $-1 $-1 $28 $4 #
transform $-1 1 0 0 0 1 0 0 0 1 68.167363505966364 33.440640520655101 11.543639301528424 1 rotate no_reflect no_shear #
lump $-1 $-1 $29 $5 #
transform $-1 1 0 0 0 1 0 0 0 1 68.167363505966364 33.440640520655101 11.543639301528424 1 rotate no_reflect no_shear #
lump $-1 $-1 $30 $6 #
transform $-1 1 0 0 0 1 0 0 0 1 68.167363505966364 33.440640520655101 11.543639301528424 1 rotate no_reflect no_shear #
lump $-1 $-1 $31 $7 #
transform $-1 1 0 0 0 1 0 0 0 1 68.167363505966364 33.440640520655101 11.543639301528424 1 rotate no_reflect no_shear #
shell $-1 $-1 $-1 $32 $-1 $8 #
shell $-1 $-1 $-1 $33 $-1 $10 #
shell $-1 $-1 $-1 $34 $-1 $12 #
shell $-1 $-1 $-1 $35 $-1 $14 #
shell $-1 $-1 $-1 $36 $-1 $16 #
shell $-1 $-1 $-1 $37 $-1 $18 #
shell $-1 $-1 $-1 $38 $-1 $20 #
shell $-1 $-1 $-1 $39 $-1 $22 #
face $-1 $40 $41 $24 $-1 $42 forward single #
face $-1 $43 $44 $25 $-1 $45 forward single #
face $-1 $46 $47 $26 $-1 $48 reversed single #
face $-1 $49 $50 $27 $-1 $51 forward single #
face $-1 $52 $53 $28 $-1 $54 reversed single #
face $-1 $55 $56 $29 $-1 $57 forward single #
face $-1 $58 $59 $30 $-1 $60 reversed single #
face $-1 $61 $62 $31 $-1 $63 forward single #
face $-1 $64 $65 $24 $-1 $66 reversed single #
loop $-1 $-1 $67 $32 #
plane-surface $-1 0 0 11.543639301528424 0 0 1 1 0 0 forward_v I I I I #
face $-1 $68 $69 $25 $-1 $70 reversed single #
loop $-1 $-1 $71 $33 #
plane-surface $-1 0 -33.440640520655101 0 0 1 0 0 0 1 forward_v I I I I #
face $-1 $72 $73 $26 $-1 $74 reversed single #
loop $-1 $-1 $75 $34 #
plane-surface $-1 -177.0491188715082 9.8932182051565114 88.955525883042398 0 1 0 -0.79863551827123203 0 0.60181501223851219 forward_v I I I I #
face $-1 $76 $77 $27 $-1 $78 forward single #
loop $-1 $79 $80 $35 #
cone-surface $-1 -65.638157316005248 14.654328553834716 8.6359212472811073 0.79863551827123203 0 -0.60181501223851219 0.60181501223851219 0 0.79863551827123203 1 I I 0 1 1 forward I I I I #
face $-1 $81 $82 $28 $-1 $83 reversed single #
loop $-1 $-1 $84 $36 #
plane-surface $-1 78.258074247406057 -0.78535623837572643 201.00056294390663 0 -1 0 -0.74314483375859142 0 -0.66913059716165679 forward_v I I I I #
face $-1 $85 $86 $29 $-1 $87 forward single #
loop $-1 $88 $89 $37 #
cone-surface $-1 66.061286595448479 -5.9877273084330547 9.355341433342236 -0.74314483375859142 0 -0.66913059716165679 0.3345652985808284 0 -0.37157241687929571 1 I I 0 1 0.5 forward I I I I #
face $-1 $90 $91 $30 $-1 $92 reversed single #
loop $-1 $-1 $93 $38 #
plane-surface $-1 78.258074247406057 22.157573846525434 201.00056294390663 0 -1 0 -0.74314483375859142 0 -0.66913059716165679 forward_v I I I I #
face $-1 $94 $95 $31 $-1 $96 forward single #
loop $-1 $97 $98 $39 #
cone-surface $-1 66.061286595448479 16.955202776468106 9.355341433342236 -0.74314483375859142 0 -0.66913059716165679 0.3345652985808284 0 -0.37157241687929571 1 I I 0 1 0.5 forward I I I I #
face $-1 $99 $100 $24 $-1 $101 reversed single #
loop $-1 $-1 $102 $40 #
plane-surface $-1 0 0 -11.543639301528424 0 0 1 1 0 0 forward_v I I I I #
coedge $-1 $103 $104 $105 $106 forward $41 $-1 #
face $-1 $107 $108 $25 $-1 $109 reversed single #
loop $-1 $-1 $110 $43 #
plane-surface $-1 0 0 -11.543639301528424 0 0 1 1 0 0 forward_v I I I I #
coedge $-1 $111 $112 $113 $114 forward $44 $-1 #
face $-1 $115 $116 $26 $-1 $117 reversed single #
loop $-1 $-1 $118 $46 #
plane-surface $-1 -68.167363505966364 14.654328553834709 6.9072404778218868 -0.79863551827123203 0 0.60181501223851219 0.60181501223851219 0 0.79863551827123203 forward_v I I I I #
coedge $-1 $119 $120 $121 $122 reversed $47 $-1 #
face $-1 $-1 $123 $27 $-1 $124 forward single #
loop $-1 $125 $126 $49 #
cone-surface $-1 -64.456521872989171 14.654328553834716 7.7454950987678064 0.79863551827123203 0 -0.60181501223851219 0.3009075061192561 0 0.39931775913561601 1 I I -0.70710678118654746 0.70710678118654746 0.5 forward I I I I #
loop $-1 $-1 $127 $35 #
coedge $-1 $80 $80 $128 $129 reversed $50 $-1 #
face $-1 $130 $131 $28 $-1 $132 reversed single #
loop $-1 $-1 $133 $52 #
plane-surface $-1 -23.058373793399639 -5.9877273084330547 109.77482564454063 0.74314483375859142 0 0.66913059716165679 0.66913059716165679 0 -0.74314483375859142 forward_v I I I I #
coedge $-1 $134 $135 $136 $137 reversed $53 $-1 #
face $-1 $-1 $138 $29 $-1 $139 forward single #
loop $-1 $140 $141 $55 #
cone-surface $-1 65.158414497126358 -5.9877273084330547 8.5423917647623764 -0.74314483375859142 0 -0.66913059716165679 0.1672826492904142 0 -0.18578620843964785 1 I I -0.70710678118654746 0.70710678118654746 0.25 forward I I I I #
loop $-1 $-1 $142 $37 #
coedge $-1 $89 $89 $143 $144 reversed $56 $-1 #
face $-1 $145 $146 $30 $-1 $147 reversed single #
loop $-1 $-1 $148 $58 #
plane-surface $-1 -23.058373793399639 16.955202776468106 109.77482564454063 0.74314483375859142 0 0.66913059716165679 0.66913059716165679 0 -0.74314483375859142 forward_v I I I I #
coedge $-1 $149 $150 $151 $152 reversed $59 $-1 #
face $-1 $-1 $153 $31 $-1 $154 forward single #
loop $-1 $155 $156 $61 #
cone-surface $-1 65.158414497126358 16.955202776468106 8.5423917647623764 -0.74314483375859142 0 -0.66913059716165679 0.1672826492904142 0 -0.18578620843964785 1 I I -0.70710678118654746 0.70710678118654746 0.25 forward I I I I #
loop $-1 $-1 $157 $39 #
coedge $-1 $98 $98 $158 $159 reversed $62 $-1 #
face $-1 $160 $161 $24 $-1 $162 reversed single #
loop $-1 $-1 $163 $64 #
plane-surface $-1 0 -33.440640520655101 0 0 1 0 0 0 1 forward_v I I I I #
coedge $-1 $164 $165 $166 $167 forward $65 $-1 #
coedge $-1 $168 $67 $169 $170 forward $41 $-1 #
coedge $-1 $67 $168 $171 $172 forward $41 $-1 #
coedge $-1 $173 $174 $67 $106 reversed $175 $-1 #
edge $-1 $176 -33.440640520655101 $177 33.440640520655101 $105 $178 forward 7 unknown #
face $-1 $179 $180 $25 $-1 $181 forward single #
loop $-1 $-1 $182 $68 #
plane-surface $-1 68.167363505966364 0 0 -1 0 0 0 0 1 forward_v I I I I #
coedge $-1 $183 $184 $185 $186 forward $69 $-1 #
coedge $-1 $185 $71 $182 $187 reversed $44 $-1 #
coedge $-1 $71 $185 $188 $189 reversed $44 $-1 #
coedge $-1 $190 $191 $71 $114 reversed $180 $-1 #
edge $-1 $192 -68.167363505966364 $193 68.167363505966364 $113 $194 forward 7 unknown #
face $-1 $195 $196 $26 $-1 $197 forward single #
loop $-1 $-1 $198 $72 #
plane-surface $-1 -177.0491188715082 19.415438902512907 88.955525883042398 0 -1 0 0.79863551827123203 0 -0.60181501223851219 forward_v I I I I #
coedge $-1 $199 $200 $201 $202 reversed $73 $-1 #
coedge $-1 $120 $75 $203 $204 reversed $47 $-1 #
coedge $-1 $75 $119 $199 $205 reversed $47 $-1 #
coedge $-1 $201 $206 $75 $122 forward $196 $-1 #
edge $-1 $207 20.357195929787736 $208 23.850972941949053 $121 $209 forward 7 unknown #
loop $-1 $-1 $128 $76 #
plane-surface $-1 -68.167363505966364 14.654328553834709 6.9072404778218868 -0.79863551827123203 0 0.60181501223851219 0.60181501223851219 0 0.79863551827123203 forward_v I I I I #
loop $-1 $-1 $210 $49 #
coedge $-1 $126 $126 $127 $211 reversed $77 $-1 #
coedge $-1 $127 $127 $126 $211 forward $79 $-1 #
coedge $-1 $128 $128 $80 $129 forward $123 $-1 #
edge $-1 $212 0 $212 6.2831853071796004 $128 $213 forward 7 unknown #
face $-1 $214 $215 $28 $-1 $216 reversed single #
loop $-1 $-1 $217 $81 #
plane-surface $-1 78.258074247406057 -11.190098378490383 201.00056294390663 0 1 0 0.74314483375859142 0 0.66913059716165679 forward_v I I I I #
coedge $-1 $218 $219 $220 $221 reversed $82 $-1 #
coedge $-1 $135 $84 $222 $223 reversed $53 $-1 #
coedge $-1 $84 $134 $218 $224 reversed $53 $-1 #
coedge $-1 $220 $225 $84 $137 forward $226 $-1 #
edge $-1 $227 -29.038326382263335 $228 -26.260344340992532 $136 $229 forward 7 unknown #
loop $-1 $-1 $143 $85 #
plane-surface $-1 -23.058373793399639 -5.9877273084330547 109.77482564454063 0.74314483375859142 0 0.66913059716165679 0.66913059716165679 0 -0.74314483375859142 forward_v I I I I #
loop $-1 $-1 $230 $55 #
coedge $-1 $141 $141 $142 $231 reversed $86 $-1 #
coedge $-1 $142 $142 $141 $231 forward $88 $-1 #
coedge $-1 $143 $143 $89 $144 forward $138 $-1 #
edge $-1 $232 0 $232 6.2831853071796004 $143 $233 forward 7 unknown #
face $-1 $234 $235 $30 $-1 $236 reversed single #
loop $-1 $-1 $237 $90 #
plane-surface $-1 78.258074247406057 11.752831706410777 201.00056294390663 0 1 0 0.74314483375859142 0 0.66913059716165679 forward_v I I I I #
coedge $-1 $238 $239 $240 $241 reversed $91 $-1 #
coedge $-1 $150 $93 $242 $243 reversed $59 $-1 #
coedge $-1 $93 $149 $238 $244 reversed $59 $-1 #
coedge $-1 $240 $245 $93 $152 forward $246 $-1 #
edge $-1 $247 -29.038326382263335 $248 -26.260344340992532 $151 $249 forward 7 unknown #
loop $-1 $-1 $158 $94 #
plane-surface $-1 -23.058373793399639 16.955202776468106 109.77482564454063 0.74314483375859142 0 0.66913059716165679 0.66913059716165679 0 -0.74314483375859142 forward_v I I I I #
loop $-1 $-1 $250 $61 #
coedge $-1 $156 $156 $157 $251 reversed $95 $-1 #
coedge $-1 $157 $157 $156 $251 forward $97 $-1 #
coedge $-1 $158 $158 $98 $159 forward $153 $-1 #
edge $-1 $252 0 $252 6.2831853071796004 $158 $253 forward 7 unknown #
face $-1 $254 $255 $24 $-1 $256 reversed single #
loop $-1 $-1 $257 $99 #
plane-surface $-1 -68.167363505966364 0 0 1 0 0 0 0 -1 forward_v I I I I #
coedge $-1 $258 $171 $259 $260 forward $100 $-1 #
coedge $-1 $261 $102 $258 $262 forward $65 $-1 #
coedge $-1 $102 $261 $263 $264 forward $65 $-1 #
coedge $-1 $174 $173 $102 $167 reversed $175 $-1 #
edge $-1 $265 -33.440640520655101 $266 33.440640520655101 $166 $267 forward 7 unknown #
coedge $-1 $104 $103 $268 $269 forward $41 $-1 #
coedge $-1 $270 $271 $103 $170 reversed $255 $-1 #
edge $-1 $177 -68.167363505966364 $272 68.167363505966364 $169 $273 forward 7 unknown #
coedge $-1 $163 $274 $104 $172 reversed $100 $-1 #
edge $-1 $275 -68.167363505966364 $176 68.167363505966364 $171 $276 forward 7 unknown #
coedge $-1 $166 $105 $274 $277 forward $175 $-1 #
coedge $-1 $105 $166 $270 $278 reversed $175 $-1 #
loop $-1 $-1 $173 $254 #
vertex $-1 $106 $279 #
vertex $-1 $106 $280 #
straight-curve $-1 68.167363505966364 0 11.543639301528424 0 1 0 I I #
face $-1 $281 $282 $25 $-1 $283 reversed single #
loop $-1 $-1 $191 $107 #
plane-surface $-1 0 -38.924378254672625 -8.5436393015284242 0 0 1 1 0 0 forward_v I I I I #
coedge $-1 $284 $285 $111 $187 forward $108 $-1 #
coedge $-1 $286 $110 $285 $287 forward $69 $-1 #
coedge $-1 $110 $286 $288 $289 forward $69 $-1 #
coedge $-1 $112 $111 $110 $186 reversed $44 $-1 #
edge $-1 $290 -68.167363505966364 $291 68.167363505966364 $110 $292 forward 7 unknown #
edge $-1 $291 -11.543639301528424 $193 -8.5436393015284242 $182 $293 forward 7 unknown #
coedge $-1 $288 $294 $112 $189 forward $295 $-1 #
edge $-1 $192 8.5436393015284242 $290 11.543639301528424 $188 $296 forward 7 unknown #
coedge $-1 $297 $113 $294 $298 forward $180 $-1 #
coedge $-1 $113 $297 $284 $299 forward $180 $-1 #
vertex $-1 $189 $300 #
vertex $-1 $299 $301 #
straight-curve $-1 0 -33.440640520655101 -8.5436393015284242 1 0 0 I I #
face $-1 $-1 $302 $26 $-1 $303 reversed single #
loop $-1 $-1 $121 $115 #
plane-surface $-1 0 0 11.543639301528424 0 0 1 1 0 0 forward_v I I I I #
coedge $-1 $304 $305 $306 $307 reversed $116 $-1 #
coedge $-1 $308 $118 $120 $205 forward $73 $-1 #
coedge $-1 $118 $308 $304 $309 forward $73 $-1 #
coedge $-1 $306 $121 $118 $202 forward $196 $-1 #
edge $-1 $208 2.5660539282391568 $310 12.088274625595552 $201 $311 forward 7 unknown #
coedge $-1 $312 $313 $119 $204 forward $302 $-1 #
edge $-1 $314 -37.570522463699312 $207 -32.934123639992777 $203 $315 forward 7 unknown #
edge $-1 $208 -5.8054002328154972 $314 0 $120 $316 forward 7 unknown #
coedge $-1 $121 $306 $312 $317 forward $196 $-1 #
vertex $-1 $204 $318 #
vertex $-1 $122 $319 #
straight-curve $-1 -88.524559435754099 9.8932182051565114 11.543639301528422 1 0 0 I I #
coedge $-1 $210 $210 $-1 $320 reversed $125 $-1 #
edge $-1 $321 0 $321 6.2831853071796004 $126 $322 forward 7 unknown #
vertex $-1 $129 $323 #
ellipse-curve $-1 -66.420474999885698 14.654328553834716 9.2254398896751528 -0.79863551827123203 0 0.60181501223851219 0.60181501223851219 0 0.79863551827123203 1 I I #
face $-1 $-1 $226 $28 $-1 $324 forward single #
loop $-1 $-1 $325 $130 #
plane-surface $-1 68.167363505966364 0 0 -1 0 0 0 0 1 forward_v I I I I #
coedge $-1 $326 $327 $328 $329 reversed $131 $-1 #
coedge $-1 $330 $133 $135 $224 forward $82 $-1 #
coedge $-1 $133 $330 $326 $331 forward $82 $-1 #
coedge $-1 $328 $136 $133 $221 forward $226 $-1 #
edge $-1 $228 -2.2085074158408009 $332 8.1962347242738556 $220 $333 forward 7 unknown #
coedge $-1 $334 $335 $134 $223 forward $215 $-1 #
edge $-1 $336 -92.041903868218384 $227 -88.956642170424885 $222 $337 forward 7 unknown #
edge $-1 $228 132.18309793824432 $336 136.3347270119327 $135 $338 forward 7 unknown #
coedge $-1 $136 $328 $334 $339 forward $226 $-1 #
loop $-1 $-1 $328 $214 #
vertex $-1 $223 $340 #
vertex $-1 $137 $341 #
straight-curve $-1 39.129037123703029 -0.78535623837572643 11.54363930152843 -1 0 0 I I #
coedge $-1 $230 $230 $-1 $342 reversed $140 $-1 #
edge $-1 $343 0 $343 6.2831853071796004 $141 $344 forward 7 unknown #
vertex $-1 $144 $345 #
ellipse-curve $-1 66.778372485330962 -5.9877273084330547 10.001008452631691 0.74314483375859142 0 0.66913059716165679 0.3345652985808284 0 -0.37157241687929571 1 I I #
face $-1 $-1 $246 $30 $-1 $346 forward single #
loop $-1 $-1 $347 $145 #
plane-surface $-1 68.167363505966364 0 0 -1 0 0 0 0 1 forward_v I I I I #
coedge $-1 $348 $349 $350 $351 reversed $146 $-1 #
coedge $-1 $352 $148 $150 $244 forward $91 $-1 #
coedge $-1 $148 $352 $348 $353 forward $91 $-1 #
coedge $-1 $350 $151 $148 $241 forward $246 $-1 #
edge $-1 $248 -13.679972458291381 $354 -3.2752303181767246 $240 $355 forward 7 unknown #
coedge $-1 $356 $357 $149 $243 forward $235 $-1 #
edge $-1 $358 -92.041903868218384 $247 -88.956642170424885 $242 $359 forward 7 unknown #
edge $-1 $248 132.18309793824432 $358 136.3347270119327 $150 $360 forward 7 unknown #
coedge $-1 $151 $350 $356 $361 forward $246 $-1 #
loop $-1 $-1 $350 $234 #
vertex $-1 $243 $362 #
vertex $-1 $152 $363 #
straight-curve $-1 39.129037123703029 22.157573846525434 11.54363930152843 -1 0 0 I I #
coedge $-1 $250 $250 $-1 $364 reversed $155 $-1 #
edge $-1 $365 0 $365 6.2831853071796004 $156 $366 forward 7 unknown #
vertex $-1 $159 $367 #
ellipse-curve $-1 66.778372485330962 16.955202776468106 10.001008452631691 0.74314483375859142 0 0.66913059716165679 0.3345652985808284 0 -0.37157241687929571 1 I I #
face $-1 $-1 $175 $24 $-1 $368 reversed single #
loop $-1 $-1 $270 $160 #
plane-surface $-1 0 33.440640520655101 0 0 -1 0 0 0 -1 forward_v I I I I #
coedge $-1 $369 $268 $271 $370 forward $161 $-1 #
coedge $-1 $274 $163 $164 $262 reversed $100 $-1 #
coedge $-1 $268 $369 $163 $260 reversed $161 $-1 #
edge $-1 $275 -11.543639301528424 $371 11.543639301528424 $259 $372 forward 7 unknown #
coedge $-1 $165 $164 $369 $373 forward $65 $-1 #
edge $-1 $266 -68.167363505966364 $371 68.167363505966364 $258 $374 forward 7 unknown #
coedge $-1 $271 $270 $165 $264 reversed $255 $-1 #
edge $-1 $375 -68.167363505966364 $265 68.167363505966364 $263 $376 forward 7 unknown #
vertex $-1 $167 $377 #
vertex $-1 $277 $378 #
straight-curve $-1 68.167363505966364 0 -11.543639301528424 0 -1 0 I I #
coedge $-1 $257 $259 $168 $269 reversed $161 $-1 #
edge $-1 $272 -33.440640520655101 $275 33.440640520655101 $268 $379 forward 7 unknown #
coedge $-1 $263 $169 $174 $278 forward $255 $-1 #
coedge $-1 $169 $263 $257 $370 reversed $255 $-1 #
vertex $-1 $170 $380 #
straight-curve $-1 0 33.440640520655101 11.543639301528424 -1 0 0 I I #
coedge $-1 $171 $258 $173 $277 reversed $100 $-1 #
vertex $-1 $269 $381 #
straight-curve $-1 0 -33.440640520655101 11.543639301528424 1 0 0 I I #
edge $-1 $176 -11.543639301528424 $266 11.543639301528424 $173 $382 forward 7 unknown #
edge $-1 $177 -11.543639301528424 $265 11.543639301528424 $174 $383 forward 7 unknown #
point $-1 68.167363505966364 -33.440640520655101 11.543639301528424 #
point $-1 68.167363505966364 33.440640520655101 11.543639301528424 #
face $-1 $-1 $295 $25 $-1 $384 reversed single #
loop $-1 $-1 $385 $179 #
plane-surface $-1 0 -44.408115988690149 -10.043639301528424 0 1 0 0 0 1 forward_v I I I I #
coedge $-1 $386 $182 $191 $299 reversed $108 $-1 #
coedge $-1 $182 $386 $183 $287 reversed $108 $-1 #
coedge $-1 $184 $183 $387 $388 forward $69 $-1 #
edge $-1 $291 33.440640520655101 $389 44.408115988690149 $285 $390 forward 7 unknown #
coedge $-1 $391 $188 $184 $289 reversed $295 $-1 #
edge $-1 $392 -44.408115988690149 $290 -33.440640520655101 $288 $393 forward 7 unknown #
vertex $-1 $189 $394 #
vertex $-1 $287 $395 #
straight-curve $-1 0 -33.440640520655101 -11.543639301528424 1 0 0 I I #
straight-curve $-1 68.167363505966364 -33.440640520655101 0 0 0 1 I I #
coedge $-1 $188 $391 $190 $298 reversed $295 $-1 #
loop $-1 $-1 $188 $281 #
straight-curve $-1 -68.167363505966364 -33.440640520655101 0 0 0 -1 I I #
coedge $-1 $191 $190 $396 $397 forward $180 $-1 #
edge $-1 $192 -5.4837377340175237 $398 5.4837377340175237 $294 $399 forward 7 unknown #
edge $-1 $400 -5.4837377340175237 $193 5.4837377340175237 $284 $401 forward 7 unknown #
point $-1 -68.167363505966364 -33.440640520655101 -8.5436393015284242 #
point $-1 68.167363505966364 -33.440640520655101 -8.5436393015284242 #
loop $-1 $-1 $203 $195 #
plane-surface $-1 -68.167363505966364 0 0 1 0 0 0 0 -1 forward_v I I I I #
coedge $-1 $305 $198 $200 $309 reversed $116 $-1 #
coedge $-1 $198 $304 $402 $403 reversed $116 $-1 #
coedge $-1 $206 $201 $198 $307 forward $196 $-1 #
edge $-1 $310 -23.850972941949053 $404 -20.357195929787736 $306 $405 forward 7 unknown #
coedge $-1 $200 $199 $313 $406 reversed $73 $-1 #
edge $-1 $407 0 $310 5.8054002328154972 $304 $408 forward 7 unknown #
vertex $-1 $202 $409 #
straight-curve $-1 -64.673586493805033 7.3271642769173546 11.543639301528426 0 1 0 I I #
coedge $-1 $402 $203 $206 $317 reversed $302 $-1 #
coedge $-1 $203 $402 $308 $406 forward $302 $-1 #
vertex $-1 $204 $410 #
straight-curve $-1 -68.167363505966364 9.8932182051565114 44.477762941521199 0 0 1 I I #
straight-curve $-1 -68.167363505966364 9.8932182051565114 6.9072404778218868 -0.60181501223851219 0 -0.79863551827123203 I I #
edge $-1 $404 -19.415438902512907 $207 -9.8932182051565114 $312 $411 forward 7 unknown #
point $-1 -68.167363505966364 9.8932182051565114 11.543639301528424 #
point $-1 -64.673586493805047 9.8932182051565114 11.543639301528424 #
edge $-1 $412 1 $412 0 $210 $-1 forward 7 unknown #
vertex $-1 $211 $413 #
ellipse-curve $-1 -64.855839632124784 14.654328553834716 8.0464026048870618 -0.79863551827123203 0 0.60181501223851219 0.60181501223851219 0 0.79863551827123203 1 I I #
point $-1 -65.81865998764718 14.654328553834716 10.024075407946384 #
plane-surface $-1 0 0 11.543639301528424 0 0 1 1 0 0 forward_v I I I I #
coedge $-1 $335 $334 $327 $414 forward $215 $-1 #
coedge $-1 $327 $217 $219 $331 reversed $131 $-1 #
coedge $-1 $217 $326 $325 $414 reversed $131 $-1 #
coedge $-1 $225 $220 $217 $329 forward $226 $-1 #
edge $-1 $332 26.260344340992532 $415 29.038326382263335 $328 $416 forward 7 unknown #
coedge $-1 $219 $218 $335 $417 reversed $82 $-1 #
edge $-1 $418 -136.3347270119327 $332 -132.18309793824432 $326 $419 forward 7 unknown #
vertex $-1 $221 $420 #
straight-curve $-1 65.389381464695546 -2.9938636542165273 11.543639301528444 0 -1 0 I I #
coedge $-1 $325 $222 $225 $339 reversed $215 $-1 #
coedge $-1 $222 $325 $330 $417 forward $215 $-1 #
vertex $-1 $223 $421 #
straight-curve $-1 68.167363505966364 -0.78535623837572643 100.50028147195331 0 0 1 I I #
straight-curve $-1 -23.058373793399639 -0.78535623837572643 109.77482564454063 0.66913059716165679 0 -0.74314483375859142 I I #
edge $-1 $415 -11.190098378490383 $227 -0.78535623837572643 $334 $422 forward 7 unknown #
point $-1 68.167363505966364 -0.78535623837572643 11.543639301528424 #
point $-1 65.38938146469556 -0.78535623837572643 11.54363930152843 #
edge $-1 $423 1 $423 0 $230 $-1 forward 7 unknown #
vertex $-1 $231 $424 #
ellipse-curve $-1 65.34420070556601 -5.9877273084330547 8.70967441405279 0.74314483375859142 0 0.66913059716165679 0.3345652985808284 0 -0.37157241687929571 1 I I #
point $-1 67.112937783911789 -5.9877273084330547 9.629436035752386 #
plane-surface $-1 0 0 11.543639301528424 0 0 1 1 0 0 forward_v I I I I #
coedge $-1 $357 $356 $349 $425 forward $235 $-1 #
coedge $-1 $349 $237 $239 $353 reversed $146 $-1 #
coedge $-1 $237 $348 $347 $425 reversed $146 $-1 #
coedge $-1 $245 $240 $237 $351 forward $246 $-1 #
edge $-1 $354 26.260344340992532 $426 29.038326382263335 $350 $427 forward 7 unknown #
coedge $-1 $239 $238 $357 $428 reversed $91 $-1 #
edge $-1 $429 -136.3347270119327 $354 -132.18309793824432 $348 $430 forward 7 unknown #
vertex $-1 $241 $431 #
straight-curve $-1 65.389381464695546 8.4776013882340528 11.543639301528444 0 -1 0 I I #
coedge $-1 $347 $242 $245 $361 reversed $235 $-1 #
coedge $-1 $242 $347 $352 $428 forward $235 $-1 #
vertex $-1 $243 $432 #
straight-curve $-1 68.167363505966364 22.157573846525434 100.50028147195331 0 0 1 I I #
straight-curve $-1 -23.058373793399639 22.157573846525434 109.77482564454063 0.66913059716165679 0 -0.74314483375859142 I I #
edge $-1 $426 11.752831706410777 $247 22.157573846525434 $356 $433 forward 7 unknown #
point $-1 68.167363505966364 22.157573846525434 11.543639301528424 #
point $-1 65.38938146469556 22.157573846525434 11.54363930152843 #
edge $-1 $434 1 $434 0 $250 $-1 forward 7 unknown #
vertex $-1 $251 $435 #
ellipse-curve $-1 65.34420070556601 16.955202776468106 8.70967441405279 0.74314483375859142 0 0.66913059716165679 0.3345652985808284 0 -0.37157241687929571 1 I I #
point $-1 67.112937783911789 16.955202776468106 9.629436035752386 #
plane-surface $-1 68.167363505966364 0 0 -1 0 0 0 0 1 forward_v I I I I #
coedge $-1 $259 $257 $261 $373 reversed $161 $-1 #
edge $-1 $272 -11.543639301528424 $375 11.543639301528424 $271 $436 forward 7 unknown #
vertex $-1 $373 $437 #
straight-curve $-1 -68.167363505966364 -33.440640520655101 0 0 0 -1 I I #
edge $-1 $371 -33.440640520655101 $375 33.440640520655101 $369 $438 forward 7 unknown #
straight-curve $-1 0 -33.440640520655101 -11.543639301528424 -1 0 0 I I #
vertex $-1 $264 $439 #
straight-curve $-1 0 33.440640520655101 -11.543639301528424 1 0 0 I I #
point $-1 68.167363505966364 33.440640520655101 -11.543639301528424 #
point $-1 68.167363505966364 -33.440640520655101 -11.543639301528424 #
straight-curve $-1 -68.167363505966364 0 11.543639301528424 0 -1 0 I I #
point $-1 -68.167363505966364 33.440640520655101 11.543639301528424 #
point $-1 -68.167363505966364 -33.440640520655101 11.543639301528424 #
straight-curve $-1 68.167363505966364 -33.440640520655101 0 0 0 -1 I I #
straight-curve $-1 68.167363505966364 33.440640520655101 0 0 0 -1 I I #
plane-surface $-1 -68.167363505966364 0 0 1 0 0 0 0 -1 forward_v I I I I #
coedge $-1 $387 $396 $391 $440 forward $282 $-1 #
coedge $-1 $285 $284 $441 $442 forward $108 $-1 #
coedge $-1 $441 $385 $286 $388 reversed $282 $-1 #
edge $-1 $389 -68.167363505966364 $392 68.167363505966364 $387 $443 forward 7 unknown #
vertex $-1 $442 $444 #
straight-curve $-1 68.167363505966364 0 -11.543639301528424 0 -1 0 I I #
coedge $-1 $294 $288 $385 $440 reversed $295 $-1 #
vertex $-1 $289 $445 #
straight-curve $-1 -68.167363505966364 0 -11.543639301528424 0 1 0 I I #
point $-1 -68.167363505966364 -33.440640520655101 -11.543639301528424 #
point $-1 68.167363505966364 -33.440640520655101 -11.543639301528424 #
coedge $-1 $385 $441 $297 $397 reversed $282 $-1 #
edge $-1 $398 -68.167363505966364 $400 68.167363505966364 $396 $446 forward 7 unknown #
vertex $-1 $298 $447 #
straight-curve $-1 -68.167363505966364 -38.924378254672625 -8.5436393015284242 0 -1 0 I I #
vertex $-1 $299 $448 #
straight-curve $-1 68.167363505966364 -38.924378254672625 -8.5436393015284242 0 1 0 I I #
coedge $-1 $313 $312 $305 $403 forward $302 $-1 #
edge $-1 $404 32.934123639992777 $407 37.570522463699312 $402 $449 forward 7 unknown #
vertex $-1 $317 $450 #
straight-curve $-1 -88.524559435754099 19.415438902512907 11.543639301528422 -1 0 0 I I #
edge $-1 $407 -12.088274625595552 $314 -2.5660539282391568 $313 $451 forward 7 unknown #
vertex $-1 $406 $452 #
straight-curve $-1 -68.167363505966364 19.415438902512907 6.9072404778218868 0.60181501223851219 0 0.79863551827123203 I I #
point $-1 -64.673586493805047 19.415438902512907 11.543639301528424 #
point $-1 -68.167363505966364 9.8932182051565114 6.9072404778218868 #
straight-curve $-1 -68.167363505966364 0 11.543639301528424 0 -1 0 I I #
vertex $-1 $320 $453 #
point $-1 -64.25402461988628 14.654328553834716 8.8450381231582949 #
edge $-1 $415 88.956642170424885 $418 92.041903868218384 $325 $454 forward 7 unknown #
vertex $-1 $339 $455 #
straight-curve $-1 39.129037123703029 -11.190098378490383 11.54363930152843 1 0 0 I I #
edge $-1 $418 -8.1962347242738556 $336 2.2085074158408009 $335 $456 forward 7 unknown #
vertex $-1 $417 $457 #
straight-curve $-1 -23.058373793399639 -11.190098378490383 109.77482564454063 -0.66913059716165679 0 0.74314483375859142 I I #
point $-1 65.38938146469556 -11.190098378490383 11.54363930152843 #
point $-1 68.167363505966364 -0.78535623837572643 8.458377603734931 #
straight-curve $-1 68.167363505966364 0 11.543639301528424 0 1 0 I I #
vertex $-1 $342 $458 #
point $-1 65.678766004146837 -5.9877273084330547 8.3381019971734958 #
edge $-1 $426 88.956642170424885 $429 92.041903868218384 $347 $459 forward 7 unknown #
vertex $-1 $361 $460 #
straight-curve $-1 39.129037123703029 11.752831706410777 11.54363930152843 1 0 0 I I #
edge $-1 $429 3.2752303181767246 $358 13.679972458291381 $357 $461 forward 7 unknown #
vertex $-1 $428 $462 #
straight-curve $-1 -23.058373793399639 11.752831706410777 109.77482564454063 -0.66913059716165679 0 0.74314483375859142 I I #
point $-1 65.38938146469556 11.752831706410777 11.54363930152843 #
point $-1 68.167363505966364 22.157573846525434 8.458377603734931 #
straight-curve $-1 68.167363505966364 0 11.543639301528424 0 1 0 I I #
vertex $-1 $364 $463 #
point $-1 65.678766004146837 16.955202776468106 8.3381019971734958 #
straight-curve $-1 -68.167363505966364 33.440640520655101 0 0 0 -1 I I #
point $-1 -68.167363505966364 -33.440640520655101 -11.543639301528424 #
straight-curve $-1 -68.167363505966364 0 -11.543639301528424 0 1 0 I I #
point $-1 -68.167363505966364 33.440640520655101 -11.543639301528424 #
edge $-1 $398 -1.5 $392 1.5 $391 $464 forward 7 unknown #
coedge $-1 $396 $387 $386 $442 reversed $282 $-1 #
edge $-1 $400 -1.5 $389 1.5 $386 $465 forward 7 unknown #
straight-curve $-1 0 -44.408115988690149 -11.543639301528424 -1 0 0 I I #
point $-1 68.167363505966364 -44.408115988690149 -11.543639301528424 #
point $-1 -68.167363505966364 -44.408115988690149 -11.543639301528424 #
straight-curve $-1 0 -44.408115988690149 -8.5436393015284242 1 0 0 I I #
point $-1 -68.167363505966364 -44.408115988690149 -8.5436393015284242 #
point $-1 68.167363505966364 -44.408115988690149 -8.5436393015284242 #
straight-curve $-1 -68.167363505966364 19.415438902512907 44.477762941521199 0 0 -1 I I #
point $-1 -68.167363505966364 19.415438902512907 11.543639301528424 #
straight-curve $-1 -68.167363505966364 7.3271642769173546 6.9072404778218841 0 -1 0 I I #
point $-1 -68.167363505966364 19.415438902512907 6.9072404778218868 #
point $-1 -64.057204113853558 14.654328553834716 7.4445875926485501 #
straight-curve $-1 68.167363505966364 -11.190098378490383 100.50028147195331 0 0 -1 I I #
point $-1 68.167363505966364 -11.190098378490383 11.543639301528424 #
straight-curve $-1 68.167363505966364 -2.9938636542165273 8.4583776037349381 0 1 0 I I #
point $-1 68.167363505966364 -11.190098378490383 8.458377603734931 #
point $-1 64.972628288686707 -5.9877273084330547 8.3751091154719628 #
straight-curve $-1 68.167363505966364 11.752831706410777 100.50028147195331 0 0 -1 I I #
point $-1 68.167363505966364 11.752831706410777 11.543639301528424 #
straight-curve $-1 68.167363505966364 8.4776013882340528 8.4583776037349381 0 1 0 I I #
point $-1 68.167363505966364 11.752831706410777 8.458377603734931 #
point $-1 64.972628288686707 16.955202776468106 8.3751091154719628 #
straight-curve $-1 -68.167363505966364 -44.408115988690149 -10.043639301528424 0 0 -1 I I #
straight-curve $-1 68.167363505966364 -44.408115988690149 -10.043639301528424 0 0 -1 I I #
End-of-ACIS-data 