500 0 12 0           
7 Unknown 11 ACIS 5.0 NT 24 Fri Mar 26 19:38:49 1999 
-1 9.9999999999999995e-007 1e-010 
body $-1 $12 $-1 $13 #
body $-1 $14 $-1 $15 #
body $-1 $16 $-1 $17 #
body $-1 $18 $-1 $19 #
body $-1 $20 $-1 $21 #
body $-1 $22 $-1 $23 #
body $-1 $24 $-1 $25 #
body $-1 $26 $-1 $27 #
body $-1 $28 $-1 $29 #
body $-1 $30 $-1 $31 #
body $-1 $32 $-1 $33 #
body $-1 $34 $-1 $35 #
lump $-1 $-1 $36 $0 #
transform $-1 1 0 0 0 1 0 0 0 1 79.167455061494792 49.978155618932547 20.599993040978458 1 rotate no_reflect no_shear #
lump $-1 $-1 $37 $1 #
transform $-1 1 0 0 0 1 0 0 0 1 79.167455061494792 49.978155618932547 20.599993040978458 1 rotate no_reflect no_shear #
lump $-1 $-1 $38 $2 #
transform $-1 1 0 0 0 1 0 0 0 1 79.167455061494792 49.978155618932547 20.599993040978458 1 rotate no_reflect no_shear #
lump $-1 $-1 $39 $3 #
transform $-1 1 0 0 0 1 0 0 0 1 79.167455061494792 49.978155618932547 20.599993040978458 1 rotate no_reflect no_shear #
lump $-1 $-1 $40 $4 #
transform $-1 1 0 0 0 1 0 0 0 1 79.167455061494792 49.978155618932547 20.599993040978458 1 rotate no_reflect no_shear #
lump $-1 $-1 $41 $5 #
transform $-1 1 0 0 0 1 0 0 0 1 79.167455061494792 49.978155618932547 20.599993040978458 1 rotate no_reflect no_shear #
lump $-1 $-1 $42 $6 #
transform $-1 1 0 0 0 1 0 0 0 1 79.167455061494792 49.978155618932547 20.599993040978458 1 rotate no_reflect no_shear #
lump $-1 $-1 $43 $7 #
transform $-1 1 0 0 0 1 0 0 0 1 79.167455061494792 49.978155618932547 20.599993040978458 1 rotate no_reflect no_shear #
lump $-1 $-1 $44 $8 #
transform $-1 1 0 0 0 1 0 0 0 1 79.167455061494792 49.978155618932547 20.599993040978458 1 rotate no_reflect no_shear #
lump $-1 $-1 $45 $9 #
transform $-1 1 0 0 0 1 0 0 0 1 79.167455061494792 49.978155618932547 20.599993040978458 1 rotate no_reflect no_shear #
lump $-1 $-1 $46 $10 #
transform $-1 1 0 0 0 1 0 0 0 1 79.167455061494792 49.978155618932547 20.599993040978458 1 rotate no_reflect no_shear #
lump $-1 $-1 $47 $11 #
transform $-1 1 0 0 0 1 0 0 0 1 79.167455061494792 49.978155618932547 20.599993040978458 1 rotate no_reflect no_shear #
shell $-1 $-1 $-1 $48 $-1 $12 #
shell $-1 $-1 $-1 $49 $-1 $14 #
shell $-1 $-1 $-1 $50 $-1 $16 #
shell $-1 $-1 $-1 $51 $-1 $18 #
shell $-1 $-1 $-1 $52 $-1 $20 #
shell $-1 $-1 $-1 $53 $-1 $22 #
shell $-1 $-1 $-1 $54 $-1 $24 #
shell $-1 $-1 $-1 $55 $-1 $26 #
shell $-1 $-1 $-1 $56 $-1 $28 #
shell $-1 $-1 $-1 $57 $-1 $30 #
shell $-1 $-1 $-1 $58 $-1 $32 #
shell $-1 $-1 $-1 $59 $-1 $34 #
face $-1 $60 $61 $36 $-1 $62 forward single #
face $-1 $63 $64 $37 $-1 $65 forward single #
face $-1 $66 $67 $38 $-1 $68 forward single #
face $-1 $69 $70 $39 $-1 $71 reversed single #
face $-1 $72 $73 $40 $-1 $74 forward single #
face $-1 $75 $76 $41 $-1 $77 forward single #
face $-1 $78 $79 $42 $-1 $80 reversed single #
face $-1 $81 $82 $43 $-1 $83 forward single #
face $-1 $84 $85 $44 $-1 $86 forward single #
face $-1 $87 $88 $45 $-1 $89 reversed single #
face $-1 $90 $91 $46 $-1 $92 forward single #
face $-1 $93 $94 $47 $-1 $95 forward single #
face $-1 $96 $97 $36 $-1 $98 reversed single #
loop $-1 $-1 $99 $48 #
plane-surface $-1 0 0 20.599993040978458 0 0 1 1 0 0 forward_v I I I I #
face $-1 $100 $101 $37 $-1 $102 forward single #
loop $-1 $-1 $103 $49 #
plane-surface $-1 -79.167455061494792 0 0 1 0 0 0 0 -1 forward_v I I I I #
face $-1 $104 $105 $38 $-1 $106 reversed single #
loop $-1 $-1 $107 $50 #
plane-surface $-1 79.167455061494792 0 0 -1 0 0 0 0 1 forward_v I I I I #
face $-1 $108 $109 $39 $-1 $110 reversed single #
loop $-1 $-1 $111 $51 #
plane-surface $-1 -54.265437544937356 91.258060885857432 195.51061332631707 1 0 0 0 -0.70710678939079041 -0.70710677298230451 forward_v I I I I #
face $-1 $112 $113 $40 $-1 $114 forward single #
loop $-1 $115 $116 $52 #
cone-surface $-1 -45.800868501714945 44.220372740258803 14.842210116565816 0 -0.70710678939079041 -0.70710677298230451 1.5 0 0 1 I I 0 1 1.5 forward I I I I #
face $-1 $117 $118 $41 $-1 $119 forward single #
loop $-1 $120 $121 $53 #
cone-surface $-1 -33.104014936881327 44.220372740258803 14.842210116565816 0 -0.70710678939079041 -0.70710677298230451 1.5 0 0 1 I I 0 1 1.5 forward I I I I #
face $-1 $122 $123 $42 $-1 $124 reversed single #
loop $-1 $-1 $125 $54 #
plane-surface $-1 -38.961207567338036 -181.24374643641823 102.12634711565796 -1 0 0 0 -0.82903758062907751 0.55919289150049634 forward_v I I I I #
face $-1 $126 $127 $43 $-1 $128 forward single #
loop $-1 $129 $130 $55 #
cone-surface $-1 -52.338023555188101 -46.397326756158499 16.273407198843657 0 0.82903758062907751 -0.55919289150049634 1.5 0 0 1 I I 0 1 1.5 forward I I I I #
face $-1 $131 $132 $44 $-1 $133 forward single #
loop $-1 $134 $135 $56 #
cone-surface $-1 -44.311933962478065 -46.397326756158499 16.273407198843657 0 0.82903758062907751 -0.55919289150049634 1.5 0 0 1 I I 0 1 1.5 forward I I I I #
face $-1 $136 $137 $45 $-1 $138 reversed single #
loop $-1 $-1 $139 $57 #
plane-surface $-1 21.812007179518655 -181.24374643641823 102.12634711565796 -1 0 0 0 -0.82903758062907751 0.55919289150049634 forward_v I I I I #
face $-1 $140 $141 $46 $-1 $142 forward single #
loop $-1 $143 $144 $58 #
cone-surface $-1 8.4351911916685935 -46.397326756158499 16.273407198843657 0 0.82903758062907751 -0.55919289150049634 1.5 0 0 1 I I 0 1 1.5 forward I I I I #
face $-1 $145 $146 $47 $-1 $147 forward single #
loop $-1 $148 $149 $59 #
cone-surface $-1 16.46128078437863 -46.397326756158499 16.273407198843657 0 0.82903758062907751 -0.55919289150049634 1.5 0 0 1 I I 0 1 1.5 forward I I I I #
face $-1 $150 $151 $36 $-1 $152 reversed single #
loop $-1 $-1 $153 $60 #
plane-surface $-1 0 0 -20.599993040978458 0 0 1 1 0 0 forward_v I I I I #
coedge $-1 $154 $155 $156 $157 forward $61 $-1 #
face $-1 $158 $159 $37 $-1 $160 reversed single #
loop $-1 $-1 $161 $63 #
plane-surface $-1 0 0 20.599993040978458 0 0 1 1 0 0 forward_v I I I I #
coedge $-1 $162 $163 $164 $165 forward $64 $-1 #
face $-1 $166 $167 $38 $-1 $168 reversed single #
loop $-1 $-1 $169 $66 #
plane-surface $-1 0 -49.978155618932547 0 0 1 0 0 0 1 forward_v I I I I #
coedge $-1 $170 $171 $172 $173 forward $67 $-1 #
face $-1 $174 $175 $39 $-1 $176 reversed single #
loop $-1 $-1 $177 $69 #
plane-surface $-1 -39.452441719298136 -20.701629059689097 83.550925978806688 0 0.70710678939079041 0.70710677298230451 1 0 0 forward_v I I I I #
coedge $-1 $178 $179 $180 $181 reversed $70 $-1 #
face $-1 $-1 $182 $40 $-1 $183 forward single #
loop $-1 $184 $185 $72 #
cone-surface $-1 -45.800868501714945 41.796686370330121 12.418523802879026 0 -0.70710678939079041 -0.70710677298230451 0.75 0 0 1 I I -0.70710678118654757 0.70710678118654757 0.75 forward I I I I #
loop $-1 $-1 $186 $52 #
coedge $-1 $116 $116 $187 $188 reversed $73 $-1 #
face $-1 $-1 $189 $41 $-1 $190 forward single #
loop $-1 $191 $192 $75 #
cone-surface $-1 -33.104014936881327 41.796686370330121 12.418523802879026 0 -0.70710678939079041 -0.70710677298230451 0.75 0 0 1 I I -0.70710678118654757 0.70710678118654757 0.75 forward I I I I #
loop $-1 $-1 $193 $53 #
coedge $-1 $121 $121 $194 $195 reversed $76 $-1 #
face $-1 $196 $197 $42 $-1 $198 reversed single #
loop $-1 $-1 $199 $78 #
plane-surface $-1 -48.324978758833083 -49.978155618932504 13.586590898512213 0 -0.82903758062907751 0.55919289150049634 1 0 0 forward_v I I I I #
coedge $-1 $200 $201 $202 $203 reversed $79 $-1 #
face $-1 $-1 $204 $43 $-1 $205 forward single #
loop $-1 $206 $207 $81 #
cone-surface $-1 -52.338023555188101 -44.560019372811766 15.034127759316601 0 0.82903758062907751 -0.55919289150049634 0.75 0 0 1 I I -0.70710678118654757 0.70710678118654757 0.75 forward I I I I #
loop $-1 $-1 $208 $55 #
coedge $-1 $130 $130 $209 $210 reversed $82 $-1 #
face $-1 $-1 $211 $44 $-1 $212 forward single #
loop $-1 $213 $214 $84 #
cone-surface $-1 -44.311933962478065 -44.560019372811766 15.034127759316601 0 0.82903758062907751 -0.55919289150049634 0.75 0 0 1 I I -0.70710678118654757 0.70710678118654757 0.75 forward I I I I #
loop $-1 $-1 $215 $56 #
coedge $-1 $135 $135 $216 $217 reversed $85 $-1 #
face $-1 $218 $219 $45 $-1 $220 reversed single #
loop $-1 $-1 $221 $87 #
plane-surface $-1 12.448235988023612 -49.978155618932504 13.586590898512213 0 -0.82903758062907751 0.55919289150049634 1 0 0 forward_v I I I I #
coedge $-1 $222 $223 $224 $225 reversed $88 $-1 #
face $-1 $-1 $226 $46 $-1 $227 forward single #
loop $-1 $228 $229 $90 #
cone-surface $-1 8.4351911916685935 -44.560019372811766 15.034127759316601 0 0.82903758062907751 -0.55919289150049634 0.75 0 0 1 I I -0.70710678118654757 0.70710678118654757 0.75 forward I I I I #
loop $-1 $-1 $230 $58 #
coedge $-1 $144 $144 $231 $232 reversed $91 $-1 #
face $-1 $-1 $233 $47 $-1 $234 forward single #
loop $-1 $235 $236 $93 #
cone-surface $-1 16.46128078437863 -44.560019372811766 15.034127759316601 0 0.82903758062907751 -0.55919289150049634 0.75 0 0 1 I I -0.70710678118654757 0.70710678118654757 0.75 forward I I I I #
loop $-1 $-1 $237 $59 #
coedge $-1 $149 $149 $238 $239 reversed $94 $-1 #
face $-1 $240 $241 $36 $-1 $242 reversed single #
loop $-1 $-1 $243 $96 #
plane-surface $-1 0 -49.978155618932547 0 0 1 0 0 0 1 forward_v I I I I #
coedge $-1 $244 $245 $246 $247 forward $97 $-1 #
coedge $-1 $248 $99 $249 $250 forward $61 $-1 #
coedge $-1 $99 $248 $251 $252 forward $61 $-1 #
coedge $-1 $253 $254 $99 $157 reversed $255 $-1 #
edge $-1 $256 -49.978155618932547 $257 49.978155618932547 $156 $258 forward 7 unknown #
face $-1 $259 $260 $37 $-1 $261 reversed single #
loop $-1 $-1 $262 $100 #
plane-surface $-1 -97.561695376132889 -45.623344626301126 0 1 0 0 0 0 -1 forward_v I I I I #
coedge $-1 $263 $264 $162 $265 forward $101 $-1 #
coedge $-1 $266 $103 $161 $265 reversed $64 $-1 #
coedge $-1 $103 $266 $267 $268 reversed $64 $-1 #
coedge $-1 $269 $270 $103 $165 reversed $260 $-1 #
edge $-1 $271 -20.599993040978458 $272 20.599993040978458 $164 $273 forward 7 unknown #
face $-1 $274 $275 $38 $-1 $276 reversed single #
loop $-1 $-1 $277 $104 #
plane-surface $-1 0 0 -20.599993040978458 0 0 1 1 0 0 forward_v I I I I #
coedge $-1 $278 $279 $280 $281 forward $105 $-1 #
coedge $-1 $280 $107 $277 $282 reversed $67 $-1 #
coedge $-1 $107 $280 $283 $284 reversed $67 $-1 #
coedge $-1 $285 $286 $107 $173 reversed $275 $-1 #
edge $-1 $287 -20.599993040978458 $288 20.599993040978458 $172 $289 forward 7 unknown #
face $-1 $290 $291 $39 $-1 $292 reversed single #
loop $-1 $-1 $293 $108 #
plane-surface $-1 -24.639445893658916 91.258060885857432 195.51061332631707 -1 0 0 0 0.70710678939079041 0.70710677298230451 forward_v I I I I #
coedge $-1 $294 $295 $296 $297 reversed $109 $-1 #
coedge $-1 $179 $111 $298 $299 reversed $70 $-1 #
coedge $-1 $111 $178 $294 $300 reversed $70 $-1 #
coedge $-1 $296 $301 $111 $181 forward $302 $-1 #
edge $-1 $303 -4.349125176003831 $304 3.3797280255724687 $180 $305 forward 7 unknown #
loop $-1 $-1 $187 $112 #
plane-surface $-1 -39.452441719298136 -20.701629059689097 83.550925978806688 0 0.70710678939079041 0.70710677298230451 1 0 0 forward_v I I I I #
loop $-1 $-1 $306 $72 #
coedge $-1 $185 $185 $186 $307 reversed $113 $-1 #
coedge $-1 $186 $186 $185 $307 forward $115 $-1 #
coedge $-1 $187 $187 $116 $188 forward $182 $-1 #
edge $-1 $308 1.674765308694244e-015 $308 6.2831853071796022 $187 $309 forward 7 unknown #
loop $-1 $-1 $194 $117 #
plane-surface $-1 -39.452441719298136 -20.701629059689097 83.550925978806688 0 0.70710678939079041 0.70710677298230451 1 0 0 forward_v I I I I #
loop $-1 $-1 $310 $75 #
coedge $-1 $192 $192 $193 $311 reversed $118 $-1 #
coedge $-1 $193 $193 $192 $311 forward $120 $-1 #
coedge $-1 $194 $194 $121 $195 forward $189 $-1 #
edge $-1 $312 1.674765308694244e-015 $312 6.2831853071796022 $194 $313 forward 7 unknown #
face $-1 $314 $315 $42 $-1 $316 forward single #
loop $-1 $-1 $317 $122 #
plane-surface $-1 -57.68874995032813 -181.24374643641823 102.12634711565796 1 0 0 0 0.82903758062907751 -0.55919289150049634 forward_v I I I I #
coedge $-1 $318 $319 $320 $321 reversed $123 $-1 #
coedge $-1 $201 $125 $322 $323 reversed $79 $-1 #
coedge $-1 $125 $200 $318 $324 reversed $79 $-1 #
coedge $-1 $320 $325 $125 $203 forward $315 $-1 #
edge $-1 $326 40.64371759927657 $327 45.374316929074858 $202 $328 forward 7 unknown #
loop $-1 $-1 $209 $126 #
plane-surface $-1 -48.324978758833083 -49.978155618932504 13.586590898512213 0 -0.82903758062907751 0.55919289150049634 1 0 0 forward_v I I I I #
loop $-1 $-1 $329 $81 #
coedge $-1 $207 $207 $208 $330 reversed $127 $-1 #
coedge $-1 $208 $208 $207 $330 forward $129 $-1 #
coedge $-1 $209 $209 $130 $210 forward $204 $-1 #
edge $-1 $331 1.1858540265793587e-015 $331 6.2831853071796013 $209 $332 forward 7 unknown #
loop $-1 $-1 $216 $131 #
plane-surface $-1 -48.324978758833083 -49.978155618932504 13.586590898512213 0 -0.82903758062907751 0.55919289150049634 1 0 0 forward_v I I I I #
loop $-1 $-1 $333 $84 #
coedge $-1 $214 $214 $215 $334 reversed $132 $-1 #
coedge $-1 $215 $215 $214 $334 forward $134 $-1 #
coedge $-1 $216 $216 $135 $217 forward $211 $-1 #
edge $-1 $335 1.1858540265793587e-015 $335 6.2831853071796013 $216 $336 forward 7 unknown #
face $-1 $337 $338 $45 $-1 $339 reversed single #
loop $-1 $-1 $340 $136 #
plane-surface $-1 3.0844647965285681 -181.24374643641823 102.12634711565796 1 0 0 0 0.82903758062907751 -0.55919289150049634 forward_v I I I I #
coedge $-1 $341 $342 $343 $344 reversed $137 $-1 #
coedge $-1 $223 $139 $345 $346 reversed $88 $-1 #
coedge $-1 $139 $222 $341 $347 reversed $88 $-1 #
coedge $-1 $343 $348 $139 $225 forward $349 $-1 #
edge $-1 $350 40.64371759927657 $351 45.374316929074858 $224 $352 forward 7 unknown #
loop $-1 $-1 $231 $140 #
plane-surface $-1 12.448235988023612 -49.978155618932504 13.586590898512213 0 -0.82903758062907751 0.55919289150049634 1 0 0 forward_v I I I I #
loop $-1 $-1 $353 $90 #
coedge $-1 $229 $229 $230 $354 reversed $141 $-1 #
coedge $-1 $230 $230 $229 $354 forward $143 $-1 #
coedge $-1 $231 $231 $144 $232 forward $226 $-1 #
edge $-1 $355 1.1858540265793587e-015 $355 6.2831853071796013 $231 $356 forward 7 unknown #
loop $-1 $-1 $238 $145 #
plane-surface $-1 12.448235988023612 -49.978155618932504 13.586590898512213 0 -0.82903758062907751 0.55919289150049634 1 0 0 forward_v I I I I #
loop $-1 $-1 $357 $93 #
coedge $-1 $236 $236 $237 $358 reversed $146 $-1 #
coedge $-1 $237 $237 $236 $358 forward $148 $-1 #
coedge $-1 $238 $238 $149 $239 forward $233 $-1 #
edge $-1 $359 1.1858540265793587e-015 $359 6.2831853071796013 $238 $360 forward 7 unknown #
face $-1 $361 $362 $36 $-1 $363 reversed single #
loop $-1 $-1 $364 $150 #
plane-surface $-1 -79.167455061494792 0 0 1 0 0 0 0 -1 forward_v I I I I #
coedge $-1 $365 $251 $366 $367 forward $151 $-1 #
coedge $-1 $368 $153 $365 $369 forward $97 $-1 #
coedge $-1 $153 $368 $370 $371 forward $97 $-1 #
coedge $-1 $254 $253 $153 $247 reversed $255 $-1 #
edge $-1 $372 -49.978155618932547 $373 49.978155618932547 $246 $374 forward 7 unknown #
coedge $-1 $155 $154 $375 $376 forward $61 $-1 #
coedge $-1 $377 $378 $154 $250 reversed $362 $-1 #
edge $-1 $257 -79.167455061494792 $379 79.167455061494792 $249 $380 forward 7 unknown #
coedge $-1 $243 $381 $155 $252 reversed $151 $-1 #
edge $-1 $382 -79.167455061494792 $256 79.167455061494792 $251 $383 forward 7 unknown #
coedge $-1 $246 $156 $381 $384 forward $255 $-1 #
coedge $-1 $156 $246 $377 $385 reversed $255 $-1 #
loop $-1 $-1 $253 $361 #
vertex $-1 $157 $386 #
vertex $-1 $157 $387 #
straight-curve $-1 79.167455061494792 0 20.599993040978458 0 1 0 I I #
face $-1 $388 $389 $37 $-1 $390 reversed single #
loop $-1 $-1 $164 $158 #
plane-surface $-1 -88.36457521881384 -41.268533633669705 0 0 -1 0 0 0 -1 forward_v I I I I #
coedge $-1 $391 $392 $393 $394 forward $159 $-1 #
coedge $-1 $395 $161 $270 $396 forward $101 $-1 #
coedge $-1 $161 $395 $397 $398 forward $101 $-1 #
edge $-1 $399 -49.978155618932547 $272 -41.268533633669705 $161 $400 forward 7 unknown #
coedge $-1 $163 $162 $401 $402 reversed $64 $-1 #
coedge $-1 $403 $404 $163 $268 forward $389 $-1 #
edge $-1 $271 41.268533633669705 $405 49.978155618932547 $267 $406 forward 7 unknown #
coedge $-1 $393 $164 $404 $407 reversed $260 $-1 #
coedge $-1 $164 $393 $263 $396 reversed $260 $-1 #
vertex $-1 $268 $408 #
vertex $-1 $396 $409 #
straight-curve $-1 -79.167455061494792 -41.268533633669705 0 0 0 1 I I #
face $-1 $410 $411 $38 $-1 $412 reversed single #
loop $-1 $-1 $413 $166 #
plane-surface $-1 88.364575218813826 -41.268533633669705 0 0 -1 0 0 0 -1 forward_v I I I I #
coedge $-1 $414 $415 $170 $282 forward $167 $-1 #
coedge $-1 $416 $169 $415 $417 reversed $105 $-1 #
coedge $-1 $169 $416 $418 $419 reversed $105 $-1 #
coedge $-1 $171 $170 $169 $281 reversed $67 $-1 #
edge $-1 $420 -20.599993040978458 $421 20.599993040978458 $169 $422 forward 7 unknown #
edge $-1 $421 -49.978155618932547 $288 -41.268533633669705 $277 $423 forward 7 unknown #
coedge $-1 $418 $424 $171 $284 forward $425 $-1 #
edge $-1 $287 41.268533633669705 $420 49.978155618932547 $283 $426 forward 7 unknown #
coedge $-1 $413 $172 $424 $427 reversed $275 $-1 #
coedge $-1 $172 $413 $414 $428 reversed $275 $-1 #
vertex $-1 $284 $429 #
vertex $-1 $428 $430 #
straight-curve $-1 79.167455061494792 -41.268533633669705 0 0 0 -1 I I #
face $-1 $-1 $302 $39 $-1 $431 forward single #
loop $-1 $-1 $432 $174 #
plane-surface $-1 0 49.978155618932547 0 0 -1 0 0 0 -1 forward_v I I I I #
coedge $-1 $433 $434 $435 $436 reversed $175 $-1 #
coedge $-1 $437 $177 $179 $300 forward $109 $-1 #
coedge $-1 $177 $437 $433 $438 forward $109 $-1 #
coedge $-1 $435 $180 $177 $297 forward $302 $-1 #
edge $-1 $304 -34.539216685288288 $439 -4.913225034009848 $296 $440 forward 7 unknown #
coedge $-1 $441 $442 $178 $299 forward $291 $-1 #
edge $-1 $443 -84.884167003105219 $303 -77.155313622180074 $298 $444 forward 7 unknown #
edge $-1 $304 89.026062091786414 $443 99.956311237865123 $179 $445 forward 7 unknown #
coedge $-1 $180 $435 $441 $446 forward $302 $-1 #
loop $-1 $-1 $435 $290 #
vertex $-1 $299 $447 #
vertex $-1 $181 $448 #
straight-curve $-1 -54.265437544937356 45.629030442928716 20.599993040978461 0 -1 0 I I #
coedge $-1 $306 $306 $-1 $449 reversed $184 $-1 #
edge $-1 $450 0 $450 6.2831853071796004 $185 $451 forward 7 unknown #
vertex $-1 $188 $452 #
ellipse-curve $-1 -45.800868501714945 46.113729018144397 16.735566350515882 0 0.70710678939079041 0.70710677298230451 1.5 0 0 1 I I #
coedge $-1 $310 $310 $-1 $453 reversed $191 $-1 #
edge $-1 $454 0 $454 6.2831853071796004 $192 $455 forward 7 unknown #
vertex $-1 $195 $456 #
ellipse-curve $-1 -33.104014936881327 46.113729018144397 16.735566350515882 0 0.70710678939079041 0.70710677298230451 1.5 0 0 1 I I #
face $-1 $-1 $457 $42 $-1 $458 reversed single #
loop $-1 $-1 $202 $196 #
plane-surface $-1 0 0 20.599993040978458 0 0 1 1 0 0 forward_v I I I I #
coedge $-1 $459 $460 $461 $462 reversed $197 $-1 #
coedge $-1 $463 $199 $201 $324 forward $123 $-1 #
coedge $-1 $199 $463 $459 $464 forward $123 $-1 #
coedge $-1 $461 $202 $199 $321 forward $315 $-1 #
edge $-1 $327 14.798718187921494 $465 33.526260570911589 $320 $466 forward 7 unknown #
coedge $-1 $467 $468 $200 $323 forward $457 $-1 #
edge $-1 $469 -37.476582659316833 $326 -30.463180516850525 $322 $470 forward 7 unknown #
edge $-1 $327 -8.4596914619291947 $469 7.685582356959255e-014 $201 $471 forward 7 unknown #
coedge $-1 $202 $461 $467 $472 forward $315 $-1 #
vertex $-1 $203 $473 #
vertex $-1 $203 $474 #
straight-curve $-1 -38.961207567338036 -90.621873218209117 20.599993040978454 0 1 0 I I #
coedge $-1 $329 $329 $-1 $475 reversed $206 $-1 #
edge $-1 $476 0 $476 6.2831853071796004 $207 $477 forward 7 unknown #
vertex $-1 $210 $478 #
ellipse-curve $-1 -52.338023555188101 -47.612855954033392 17.093291969745319 0 -0.82903758062907751 0.55919289150049634 1.5 0 0 1 I I #
coedge $-1 $333 $333 $-1 $479 reversed $213 $-1 #
edge $-1 $480 0 $480 6.2831853071796004 $214 $481 forward 7 unknown #
vertex $-1 $217 $482 #
ellipse-curve $-1 -44.311933962478065 -47.612855954033392 17.093291969745319 0 -0.82903758062907751 0.55919289150049634 1.5 0 0 1 I I #
face $-1 $-1 $349 $45 $-1 $483 forward single #
loop $-1 $-1 $484 $218 #
plane-surface $-1 0 -49.978155618932547 0 0 1 0 0 0 1 forward_v I I I I #
coedge $-1 $485 $486 $487 $488 reversed $219 $-1 #
coedge $-1 $489 $221 $223 $347 forward $137 $-1 #
coedge $-1 $221 $489 $485 $490 forward $137 $-1 #
coedge $-1 $487 $224 $221 $344 forward $349 $-1 #
edge $-1 $351 -15.58788918550685 $491 3.1396531974832378 $343 $492 forward 7 unknown #
coedge $-1 $493 $494 $222 $346 forward $338 $-1 #
edge $-1 $495 -37.476582659316833 $350 -30.463180516850525 $345 $496 forward 7 unknown #
edge $-1 $351 -8.4596914619291947 $495 7.685582356959255e-014 $223 $497 forward 7 unknown #
coedge $-1 $224 $487 $493 $498 forward $349 $-1 #
loop $-1 $-1 $487 $337 #
vertex $-1 $346 $499 #
vertex $-1 $225 $500 #
straight-curve $-1 21.812007179518655 -90.621873218209117 20.599993040978454 0 1 0 I I #
coedge $-1 $353 $353 $-1 $501 reversed $228 $-1 #
edge $-1 $502 0 $502 6.2831853071796004 $229 $503 forward 7 unknown #
vertex $-1 $232 $504 #
ellipse-curve $-1 8.4351911916685935 -47.612855954033392 17.093291969745319 0 -0.82903758062907751 0.55919289150049634 1.5 0 0 1 I I #
coedge $-1 $357 $357 $-1 $505 reversed $235 $-1 #
edge $-1 $506 0 $506 6.2831853071796004 $236 $507 forward 7 unknown #
vertex $-1 $239 $508 #
ellipse-curve $-1 16.46128078437863 -47.612855954033392 17.093291969745319 0 -0.82903758062907751 0.55919289150049634 1.5 0 0 1 I I #
face $-1 $-1 $255 $36 $-1 $509 reversed single #
loop $-1 $-1 $377 $240 #
plane-surface $-1 0 49.978155618932547 0 0 -1 0 0 0 -1 forward_v I I I I #
coedge $-1 $510 $375 $378 $511 forward $241 $-1 #
coedge $-1 $381 $243 $244 $369 reversed $151 $-1 #
coedge $-1 $375 $510 $243 $367 reversed $241 $-1 #
edge $-1 $382 -20.599993040978458 $512 20.599993040978458 $366 $513 forward 7 unknown #
coedge $-1 $245 $244 $510 $514 forward $97 $-1 #
edge $-1 $373 -79.167455061494792 $512 79.167455061494792 $365 $515 forward 7 unknown #
coedge $-1 $378 $377 $245 $371 reversed $362 $-1 #
edge $-1 $516 -79.167455061494792 $372 79.167455061494792 $370 $517 forward 7 unknown #
vertex $-1 $247 $518 #
vertex $-1 $384 $519 #
straight-curve $-1 79.167455061494792 0 -20.599993040978458 0 -1 0 I I #
coedge $-1 $364 $366 $248 $376 reversed $241 $-1 #
edge $-1 $379 -49.978155618932547 $382 49.978155618932547 $375 $520 forward 7 unknown #
coedge $-1 $370 $249 $254 $385 forward $362 $-1 #
coedge $-1 $249 $370 $364 $511 reversed $362 $-1 #
vertex $-1 $250 $521 #
straight-curve $-1 0 49.978155618932547 20.599993040978458 -1 0 0 I I #
coedge $-1 $251 $365 $253 $384 reversed $151 $-1 #
vertex $-1 $376 $522 #
straight-curve $-1 0 -49.978155618932547 20.599993040978458 1 0 0 I I #
edge $-1 $256 -20.599993040978458 $373 20.599993040978458 $253 $523 forward 7 unknown #
edge $-1 $257 -20.599993040978458 $372 20.599993040978458 $254 $524 forward 7 unknown #
point $-1 79.167455061494792 -49.978155618932547 20.599993040978458 #
point $-1 79.167455061494792 49.978155618932547 20.599993040978458 #
face $-1 $-1 $525 $37 $-1 $526 reversed single #
loop $-1 $-1 $267 $259 #
plane-surface $-1 0 0 -20.599993040978458 0 0 1 1 0 0 forward_v I I I I #
coedge $-1 $527 $262 $528 $529 reversed $159 $-1 #
coedge $-1 $262 $527 $395 $530 reversed $159 $-1 #
coedge $-1 $270 $269 $262 $394 reversed $260 $-1 #
edge $-1 $531 -20.599993040978458 $532 20.599993040978458 $393 $533 forward 7 unknown #
coedge $-1 $264 $263 $392 $530 forward $101 $-1 #
edge $-1 $272 -9.1971201573190484 $531 9.1971201573190484 $270 $534 forward 7 unknown #
coedge $-1 $535 $401 $264 $398 reversed $525 $-1 #
edge $-1 $536 -97.561695376132889 $399 -79.167455061494792 $397 $537 forward 7 unknown #
vertex $-1 $402 $538 #
straight-curve $-1 -79.167455061494792 0 20.599993040978458 0 1 0 I I #
coedge $-1 $397 $539 $266 $402 forward $525 $-1 #
edge $-1 $405 -20.599993040978458 $399 20.599993040978458 $401 $540 forward 7 unknown #
coedge $-1 $528 $267 $539 $541 forward $389 $-1 #
coedge $-1 $267 $528 $269 $407 forward $389 $-1 #
vertex $-1 $541 $542 #
straight-curve $-1 -79.167455061494792 0 -20.599993040978458 0 -1 0 I I #
edge $-1 $532 -9.1971201573190484 $271 9.1971201573190484 $269 $543 forward 7 unknown #
point $-1 -79.167455061494792 -41.268533633669705 -20.599993040978458 #
point $-1 -79.167455061494792 -41.268533633669705 20.599993040978458 #
face $-1 $-1 $425 $38 $-1 $544 forward single #
loop $-1 $-1 $545 $274 #
plane-surface $-1 97.561695376132874 -45.623344626301126 0 -1 0 0 0 0 1 forward_v I I I I #
coedge $-1 $286 $285 $546 $547 forward $275 $-1 #
coedge $-1 $548 $277 $286 $428 forward $167 $-1 #
coedge $-1 $277 $548 $278 $417 forward $167 $-1 #
coedge $-1 $279 $278 $545 $549 reversed $105 $-1 #
edge $-1 $550 -9.1971201573190484 $421 9.1971201573190342 $278 $551 forward 7 unknown #
coedge $-1 $552 $283 $279 $419 forward $425 $-1 #
edge $-1 $420 -9.1971201573190342 $553 9.1971201573190484 $279 $554 forward 7 unknown #
vertex $-1 $419 $555 #
vertex $-1 $282 $556 #
straight-curve $-1 79.167455061494792 -49.978155618932547 0 0 0 -1 I I #
straight-curve $-1 79.167455061494792 0 -20.599993040978458 0 1 0 I I #
coedge $-1 $283 $552 $285 $427 forward $425 $-1 #
loop $-1 $-1 $283 $410 #
straight-curve $-1 79.167455061494792 0 20.599993040978458 0 -1 0 I I #
edge $-1 $557 -9.1971201573190484 $287 9.1971201573190484 $285 $558 forward 7 unknown #
edge $-1 $288 -9.1971201573190484 $559 9.1971201573190484 $286 $560 forward 7 unknown #
point $-1 79.167455061494778 -41.268533633669705 20.599993040978458 #
point $-1 79.167455061494778 -41.268533633669705 -20.599993040978458 #
plane-surface $-1 0 0 20.599993040978458 0 0 1 1 0 0 forward_v I I I I #
coedge $-1 $442 $441 $434 $561 forward $291 $-1 #
coedge $-1 $434 $293 $295 $438 reversed $175 $-1 #
coedge $-1 $293 $433 $432 $561 reversed $175 $-1 #
coedge $-1 $301 $296 $293 $436 forward $302 $-1 #
edge $-1 $439 -3.3797280255724687 $562 4.349125176003831 $435 $563 forward 7 unknown #
coedge $-1 $295 $294 $442 $564 reversed $109 $-1 #
edge $-1 $565 -99.956311237865123 $439 -89.026062091786414 $433 $566 forward 7 unknown #
vertex $-1 $297 $567 #
straight-curve $-1 -19.726220859649068 42.249302417356247 20.599993040978461 1 0 0 I I #
coedge $-1 $432 $298 $301 $446 reversed $291 $-1 #
coedge $-1 $298 $432 $437 $564 forward $291 $-1 #
vertex $-1 $299 $568 #
straight-curve $-1 -54.265437544937356 49.978155618932547 97.755306663158535 0 0 1 I I #
straight-curve $-1 -54.265437544937356 -20.701629059689097 83.550925978806688 0 0.70710677298230451 -0.70710678939079041 I I #
edge $-1 $562 24.639445893658916 $303 54.265437544937356 $441 $569 forward 7 unknown #
point $-1 -54.265437544937356 49.978155618932547 20.599993040978458 #
point $-1 -54.265437544937356 42.249302417356247 20.599993040978461 #
edge $-1 $570 1 $570 0 $306 $-1 forward 7 unknown #
vertex $-1 $307 $571 #
ellipse-curve $-1 -45.800868501714945 42.327016462373216 12.948853882615754 0 0.70710678939079041 0.70710677298230451 1.5 0 0 1 I I #
point $-1 -44.300868501714945 46.113729018144397 16.735566350515878 #
edge $-1 $572 1 $572 0 $310 $-1 forward 7 unknown #
vertex $-1 $311 $573 #
ellipse-curve $-1 -33.104014936881327 42.327016462373216 12.948853882615754 0 0.70710678939079041 0.70710677298230451 1.5 0 0 1 I I #
point $-1 -31.604014936881327 46.113729018144397 16.735566350515878 #
loop $-1 $-1 $322 $314 #
plane-surface $-1 0 -49.978155618932547 0 0 1 0 0 0 1 forward_v I I I I #
coedge $-1 $460 $317 $319 $464 reversed $197 $-1 #
coedge $-1 $317 $459 $574 $575 reversed $197 $-1 #
coedge $-1 $325 $320 $317 $462 forward $315 $-1 #
edge $-1 $465 -45.374316929074858 $576 -40.64371759927657 $461 $577 forward 7 unknown #
coedge $-1 $319 $318 $468 $578 reversed $123 $-1 #
edge $-1 $579 -7.685582356959255e-014 $465 8.4596914619291947 $459 $580 forward 7 unknown #
vertex $-1 $321 $581 #
straight-curve $-1 -24.162489379416542 -45.247556289134259 20.599993040978458 -1 0 0 I I #
coedge $-1 $574 $322 $325 $472 reversed $457 $-1 #
coedge $-1 $322 $574 $463 $578 forward $457 $-1 #
vertex $-1 $323 $582 #
straight-curve $-1 -38.961207567338036 -49.978155618932547 51.063173557828982 0 0 1 I I #
straight-curve $-1 -38.961207567338036 -49.978155618932504 13.586590898512213 0 -0.55919289150049634 -0.82903758062907751 I I #
edge $-1 $576 -146.05332516914194 $326 -127.32578278615186 $467 $583 forward 7 unknown #
point $-1 -38.961207567338036 -49.978155618932547 20.599993040978458 #
point $-1 -38.961207567338036 -45.247556289134259 20.599993040978458 #
edge $-1 $584 1 $584 0 $329 $-1 forward 7 unknown #
vertex $-1 $330 $585 #
ellipse-curve $-1 -52.338023555188101 -45.181797558283577 15.453522427941973 0 -0.82903758062907751 0.55919289150049634 1.5 0 0 1 I I #
point $-1 -50.838023555188101 -47.612855954033421 17.093291969745341 #
edge $-1 $586 1 $586 0 $333 $-1 forward 7 unknown #
vertex $-1 $334 $587 #
ellipse-curve $-1 -44.311933962478065 -45.181797558283577 15.453522427941973 0 -0.82903758062907751 0.55919289150049634 1.5 0 0 1 I I #
point $-1 -42.811933962478065 -47.612855954033421 17.093291969745341 #
plane-surface $-1 0 0 20.599993040978458 0 0 1 1 0 0 forward_v I I I I #
coedge $-1 $494 $493 $486 $588 forward $338 $-1 #
coedge $-1 $486 $340 $342 $490 reversed $219 $-1 #
coedge $-1 $340 $485 $484 $588 reversed $219 $-1 #
coedge $-1 $348 $343 $340 $488 forward $349 $-1 #
edge $-1 $491 -45.374316929074858 $589 -40.64371759927657 $487 $590 forward 7 unknown #
coedge $-1 $342 $341 $494 $591 reversed $137 $-1 #
edge $-1 $592 -7.685582356959255e-014 $491 8.4596914619291947 $485 $593 forward 7 unknown #
vertex $-1 $344 $594 #
straight-curve $-1 6.2241179940118059 -45.247556289134259 20.599993040978458 -1 0 0 I I #
coedge $-1 $484 $345 $348 $498 reversed $338 $-1 #
coedge $-1 $345 $484 $489 $591 forward $338 $-1 #
vertex $-1 $346 $595 #
straight-curve $-1 21.812007179518655 -49.978155618932547 51.063173557828982 0 0 1 I I #
straight-curve $-1 21.812007179518655 -49.978155618932504 13.586590898512213 0 -0.55919289150049634 -0.82903758062907751 I I #
edge $-1 $589 -85.280110422285262 $350 -66.552568039295167 $493 $596 forward 7 unknown #
point $-1 21.812007179518659 -49.978155618932547 20.599993040978458 #
point $-1 21.812007179518655 -45.247556289134259 20.599993040978458 #
edge $-1 $597 1 $597 0 $353 $-1 forward 7 unknown #
vertex $-1 $354 $598 #
ellipse-curve $-1 8.4351911916685935 -45.181797558283577 15.453522427941973 0 -0.82903758062907751 0.55919289150049634 1.5 0 0 1 I I #
point $-1 9.9351911916685935 -47.612855954033421 17.093291969745341 #
edge $-1 $599 1 $599 0 $357 $-1 forward 7 unknown #
vertex $-1 $358 $600 #
ellipse-curve $-1 16.46128078437863 -45.181797558283577 15.453522427941973 0 -0.82903758062907751 0.55919289150049634 1.5 0 0 1 I I #
point $-1 17.96128078437863 -47.612855954033421 17.093291969745341 #
plane-surface $-1 79.167455061494792 0 0 -1 0 0 0 0 1 forward_v I I I I #
coedge $-1 $366 $364 $368 $514 reversed $241 $-1 #
edge $-1 $379 -20.599993040978458 $516 20.599993040978458 $378 $601 forward 7 unknown #
vertex $-1 $514 $602 #
straight-curve $-1 -79.167455061494792 -49.978155618932547 0 0 0 -1 I I #
edge $-1 $512 -49.978155618932547 $516 49.978155618932547 $510 $603 forward 7 unknown #
straight-curve $-1 0 -49.978155618932547 -20.599993040978458 -1 0 0 I I #
vertex $-1 $371 $604 #
straight-curve $-1 0 49.978155618932547 -20.599993040978458 1 0 0 I I #
point $-1 79.167455061494792 49.978155618932547 -20.599993040978458 #
point $-1 79.167455061494792 -49.978155618932547 -20.599993040978458 #
straight-curve $-1 -79.167455061494792 0 20.599993040978458 0 -1 0 I I #
point $-1 -79.167455061494792 49.978155618932547 20.599993040978458 #
point $-1 -79.167455061494792 -49.978155618932547 20.599993040978458 #
straight-curve $-1 79.167455061494792 -49.978155618932547 0 0 0 -1 I I #
straight-curve $-1 79.167455061494792 49.978155618932547 0 0 0 -1 I I #
loop $-1 $-1 $401 $388 #
plane-surface $-1 0 -49.978155618932547 0 0 1 0 0 0 1 forward_v I I I I #
coedge $-1 $392 $391 $535 $605 reversed $159 $-1 #
coedge $-1 $404 $403 $391 $529 forward $389 $-1 #
edge $-1 $606 -4.3548109926314211 $532 4.3548109926314211 $391 $607 forward 7 unknown #
edge $-1 $531 -4.3548109926314211 $536 4.3548109926314211 $392 $608 forward 7 unknown #
vertex $-1 $396 $609 #
vertex $-1 $407 $610 #
straight-curve $-1 -97.561695376132889 -41.268533633669705 0 0 0 -1 I I #
straight-curve $-1 -88.36457521881384 -41.268533633669705 20.599993040978458 -1 0 0 I I #
coedge $-1 $539 $397 $527 $605 forward $525 $-1 #
vertex $-1 $530 $611 #
straight-curve $-1 0 -49.978155618932547 20.599993040978458 1 0 0 I I #
point $-1 -79.167455061494792 -49.978155618932547 20.599993040978458 #
coedge $-1 $401 $535 $403 $541 reversed $525 $-1 #
straight-curve $-1 -79.167455061494792 -49.978155618932547 0 0 0 1 I I #
edge $-1 $405 -9.1971201573190484 $606 9.1971201573190484 $539 $612 forward 7 unknown #
point $-1 -79.167455061494792 -49.978155618932547 -20.599993040978458 #
straight-curve $-1 -88.36457521881384 -41.268533633669705 -20.599993040978458 1 0 0 I I #
plane-surface $-1 0 0 20.599993040978458 0 0 1 1 0 0 forward_v I I I I #
coedge $-1 $613 $614 $416 $549 forward $411 $-1 #
coedge $-1 $614 $613 $413 $547 reversed $411 $-1 #
edge $-1 $557 -20.599993040978458 $559 20.599993040978458 $546 $615 forward 7 unknown #
coedge $-1 $415 $414 $613 $616 forward $167 $-1 #
edge $-1 $553 -20.599993040978458 $550 20.599993040978458 $545 $617 forward 7 unknown #
vertex $-1 $549 $618 #
straight-curve $-1 88.364575218813826 -49.978155618932547 -20.599993040978458 -1 0 0 I I #
coedge $-1 $424 $418 $614 $619 forward $425 $-1 #
vertex $-1 $619 $620 #
straight-curve $-1 88.364575218813826 -49.978155618932547 20.599993040978458 1 0 0 I I #
point $-1 79.167455061494792 -49.978155618932547 20.599993040978458 #
point $-1 79.167455061494792 -49.978155618932547 -20.599993040978458 #
vertex $-1 $619 $621 #
straight-curve $-1 88.364575218813826 -41.268533633669705 20.599993040978458 -1 0 0 I I #
vertex $-1 $616 $622 #
straight-curve $-1 88.364575218813826 -41.268533633669705 -20.599993040978458 1 0 0 I I #
edge $-1 $562 77.155313622180074 $565 84.884167003105219 $432 $623 forward 7 unknown #
vertex $-1 $446 $624 #
straight-curve $-1 -24.639445893658916 45.629030442928716 20.599993040978461 0 1 0 I I #
edge $-1 $565 4.913225034009848 $443 34.539216685288288 $442 $625 forward 7 unknown #
vertex $-1 $564 $626 #
straight-curve $-1 -24.639445893658916 -20.701629059689097 83.550925978806688 0 -0.70710677298230451 0.70710678939079041 I I #
point $-1 -24.639445893658916 42.249302417356247 20.599993040978461 #
point $-1 -54.265437544937356 49.978155618932547 12.871139660053316 #
straight-curve $-1 0 49.978155618932547 20.599993040978458 -1 0 0 I I #
vertex $-1 $449 $627 #
point $-1 -44.300868501714945 42.327016462373216 12.948853882615754 #
vertex $-1 $453 $628 #
point $-1 -31.604014936881327 42.327016462373216 12.948853882615754 #
coedge $-1 $468 $467 $460 $575 forward $457 $-1 #
edge $-1 $576 30.463180516850525 $579 37.476582659316833 $574 $629 forward 7 unknown #
vertex $-1 $472 $630 #
straight-curve $-1 -57.68874995032813 -90.621873218209117 20.599993040978454 0 -1 0 I I #
edge $-1 $579 -33.526260570911589 $469 -14.798718187921494 $468 $631 forward 7 unknown #
vertex $-1 $578 $632 #
straight-curve $-1 -57.68874995032813 -49.978155618932504 13.586590898512213 0 0.55919289150049634 0.82903758062907751 I I #
point $-1 -57.68874995032813 -45.247556289134259 20.599993040978458 #
point $-1 -38.961207567338036 -49.978155618932547 13.586590898512149 #
straight-curve $-1 88.364575218813826 -49.978155618932547 20.599993040978458 1 0 0 I I #
vertex $-1 $475 $633 #
point $-1 -50.838023555188101 -45.181797558283577 15.453522427941973 #
vertex $-1 $479 $634 #
point $-1 -42.811933962478065 -45.181797558283577 15.453522427941973 #
edge $-1 $589 30.463180516850525 $592 37.476582659316833 $484 $635 forward 7 unknown #
vertex $-1 $498 $636 #
straight-curve $-1 3.0844647965285681 -90.621873218209117 20.599993040978454 0 -1 0 I I #
edge $-1 $592 -3.1396531974832378 $495 15.58788918550685 $494 $637 forward 7 unknown #
vertex $-1 $591 $638 #
straight-curve $-1 3.0844647965285681 -49.978155618932504 13.586590898512213 0 0.55919289150049634 0.82903758062907751 I I #
point $-1 3.0844647965285681 -45.247556289134259 20.599993040978458 #
point $-1 21.812007179518655 -49.978155618932547 13.586590898512149 #
straight-curve $-1 88.364575218813826 -49.978155618932547 20.599993040978458 1 0 0 I I #
vertex $-1 $501 $639 #
point $-1 9.9351911916685935 -45.181797558283577 15.453522427941973 #
vertex $-1 $505 $640 #
point $-1 17.96128078437863 -45.181797558283577 15.453522427941973 #
straight-curve $-1 -79.167455061494792 49.978155618932547 0 0 0 -1 I I #
point $-1 -79.167455061494792 -49.978155618932547 -20.599993040978458 #
straight-curve $-1 -79.167455061494792 0 -20.599993040978458 0 1 0 I I #
point $-1 -79.167455061494792 49.978155618932547 -20.599993040978458 #
edge $-1 $536 -20.599993040978458 $606 20.599993040978458 $527 $641 forward 7 unknown #
vertex $-1 $529 $642 #
straight-curve $-1 -97.561695376132889 -45.623344626301126 -20.599993040978458 0 1 0 I I #
straight-curve $-1 -97.561695376132889 -45.623344626301126 20.599993040978458 0 -1 0 I I #
point $-1 -97.561695376132889 -41.268533633669705 20.599993040978458 #
point $-1 -97.561695376132889 -41.268533633669705 -20.599993040978458 #
point $-1 -97.561695376132889 -49.978155618932547 20.599993040978458 #
straight-curve $-1 -88.36457521881384 -49.978155618932547 -20.599993040978458 -1 0 0 I I #
coedge $-1 $546 $545 $548 $616 reversed $411 $-1 #
coedge $-1 $545 $546 $552 $619 reversed $411 $-1 #
straight-curve $-1 97.561695376132874 -41.268533633669705 0 0 0 -1 I I #
edge $-1 $559 -4.3548109926314211 $550 4.3548109926314211 $613 $643 forward 7 unknown #
straight-curve $-1 97.561695376132874 -49.978155618932547 0 0 0 -1 I I #
point $-1 97.561695376132874 -49.978155618932547 -20.599993040978458 #
edge $-1 $553 -4.3548109926314211 $557 4.3548109926314211 $614 $644 forward 7 unknown #
point $-1 97.561695376132874 -49.978155618932547 20.599993040978458 #
point $-1 97.561695376132874 -41.268533633669705 20.599993040978458 #
point $-1 97.561695376132874 -41.268533633669705 -20.599993040978458 #
straight-curve $-1 -24.639445893658916 49.978155618932547 97.755306663158535 0 0 -1 I I #
point $-1 -24.639445893658916 49.978155618932547 20.599993040978458 #
straight-curve $-1 -19.726220859649068 49.978155618932547 12.871139660053323 -1 0 0 I I #
point $-1 -24.639445893658916 49.978155618932547 12.871139660053316 #
point $-1 -45.800868501714945 41.266356278287027 11.888193723142297 #
point $-1 -33.104014936881327 41.266356278287027 11.888193723142297 #
straight-curve $-1 -57.68874995032813 -49.978155618932547 51.063173557828982 0 0 -1 I I #
point $-1 -57.688749950328116 -49.978155618932547 20.599993040978458 #
straight-curve $-1 -24.162489379416542 -49.978155618932547 13.586590898512155 1 0 0 I I #
point $-1 -57.68874995032813 -49.978155618932547 13.586590898512149 #
point $-1 -52.338023555188101 -43.938241187339955 14.614733090691228 #
point $-1 -44.311933962478065 -43.938241187339955 14.614733090691228 #
straight-curve $-1 3.0844647965285681 -49.978155618932547 51.063173557828982 0 0 -1 I I #
point $-1 3.0844647965285645 -49.978155618932547 20.599993040978458 #
straight-curve $-1 6.2241179940118059 -49.978155618932547 13.586590898512155 1 0 0 I I #
point $-1 3.0844647965285681 -49.978155618932547 13.586590898512149 #
point $-1 8.4351911916685935 -43.938241187339955 14.614733090691228 #
point $-1 16.46128078437863 -43.938241187339955 14.614733090691228 #
straight-curve $-1 -97.561695376132889 -49.978155618932547 0 0 0 -1 I I #
point $-1 -97.561695376132889 -49.978155618932547 -20.599993040978458 #
straight-curve $-1 97.561695376132874 -45.623344626301126 -20.599993040978458 0 -1 0 I I #
straight-curve $-1 97.561695376132874 -45.623344626301126 20.599993040978458 0 1 0 I I #
End-of-ACIS-data 