500 0 9 0           
7 Unknown 11 ACIS 5.0 NT 24 Fri Mar 26 00:44:44 1999 
-1 9.9999999999999995e-007 1e-010 
body $-1 $9 $-1 $10 #
body $-1 $11 $-1 $12 #
body $-1 $13 $-1 $14 #
body $-1 $15 $-1 $16 #
body $-1 $17 $-1 $18 #
body $-1 $19 $-1 $20 #
body $-1 $21 $-1 $22 #
body $-1 $23 $-1 $24 #
body $-1 $25 $-1 $26 #
lump $-1 $-1 $27 $0 #
transform $-1 1 0 0 0 1 0 0 0 1 56.471449934385205 33.324135744232684 16.394189294430532 1 rotate no_reflect no_shear #
lump $-1 $-1 $28 $1 #
transform $-1 1 0 0 0 1 0 0 0 1 56.471449934385205 33.324135744232684 16.394189294430532 1 rotate no_reflect no_shear #
lump $-1 $-1 $29 $2 #
transform $-1 1 0 0 0 1 0 0 0 1 56.471449934385205 33.324135744232684 16.394189294430532 1 rotate no_reflect no_shear #
lump $-1 $-1 $30 $3 #
transform $-1 1 0 0 0 1 0 0 0 1 56.471449934385205 33.324135744232684 16.394189294430532 1 rotate no_reflect no_shear #
lump $-1 $-1 $31 $4 #
transform $-1 1 0 0 0 1 0 0 0 1 56.471449934385205 33.324135744232684 16.394189294430532 1 rotate no_reflect no_shear #
lump $-1 $-1 $32 $5 #
transform $-1 1 0 0 0 1 0 0 0 1 56.471449934385205 33.324135744232684 16.394189294430532 1 rotate no_reflect no_shear #
lump $-1 $-1 $33 $6 #
transform $-1 1 0 0 0 1 0 0 0 1 56.471449934385205 33.324135744232684 16.394189294430532 1 rotate no_reflect no_shear #
lump $-1 $-1 $34 $7 #
transform $-1 1 0 0 0 1 0 0 0 1 56.471449934385205 33.324135744232684 16.394189294430532 1 rotate no_reflect no_shear #
lump $-1 $-1 $35 $8 #
transform $-1 1 0 0 0 1 0 0 0 1 56.471449934385205 33.324135744232684 16.394189294430532 1 rotate no_reflect no_shear #
shell $-1 $-1 $-1 $36 $-1 $9 #
shell $-1 $-1 $-1 $37 $-1 $11 #
shell $-1 $-1 $-1 $38 $-1 $13 #
shell $-1 $-1 $-1 $39 $-1 $15 #
shell $-1 $-1 $-1 $40 $-1 $17 #
shell $-1 $-1 $-1 $41 $-1 $19 #
shell $-1 $-1 $-1 $42 $-1 $21 #
shell $-1 $-1 $-1 $43 $-1 $23 #
shell $-1 $-1 $-1 $44 $-1 $25 #
face $-1 $45 $46 $27 $-1 $47 forward single #
face $-1 $48 $49 $28 $-1 $50 forward single #
face $-1 $51 $52 $29 $-1 $53 forward single #
face $-1 $54 $55 $30 $-1 $56 reversed single #
face $-1 $57 $58 $31 $-1 $59 forward single #
face $-1 $60 $61 $32 $-1 $62 forward single #
face $-1 $63 $64 $33 $-1 $65 reversed single #
face $-1 $66 $67 $34 $-1 $68 forward single #
face $-1 $69 $70 $35 $-1 $71 forward single #
face $-1 $72 $73 $27 $-1 $74 reversed single #
loop $-1 $-1 $75 $36 #
plane-surface $-1 0 0 16.394189294430532 0 0 1 1 0 0 forward_v I I I I #
face $-1 $76 $77 $28 $-1 $78 reversed single #
loop $-1 $-1 $79 $37 #
plane-surface $-1 0 -33.324135744232684 0 0 1 0 0 0 1 forward_v I I I I #
face $-1 $80 $81 $29 $-1 $82 reversed single #
loop $-1 $-1 $83 $38 #
plane-surface $-1 0 33.324135744232684 0 0 -1 0 0 0 -1 forward_v I I I I #
face $-1 $84 $85 $30 $-1 $86 reversed single #
loop $-1 $-1 $87 $39 #
plane-surface $-1 56.471451787607194 13.227325554012008 169.3498867326187 0 -1 0 -0.70710678939079041 0 -0.70710677298230451 forward_v I I I I #
face $-1 $88 $89 $31 $-1 $90 forward single #
loop $-1 $91 $92 $40 #
cone-surface $-1 52.03597200197774 5.9497541911558471 11.958711307857598 -0.70710678939079041 0 -0.70710677298230451 0.70710677298230451 0 -0.70710678939079041 1 I I 0 1 1 forward I I I I #
face $-1 $93 $94 $32 $-1 $95 forward single #
loop $-1 $96 $97 $41 #
cone-surface $-1 52.03597200197774 10.316297008869547 11.958711307857598 -0.70710678939079041 0 -0.70710677298230451 0.70710677298230451 0 -0.70710678939079041 1 I I 0 1 1 forward I I I I #
face $-1 $98 $99 $33 $-1 $100 reversed single #
loop $-1 $-1 $101 $42 #
plane-surface $-1 -116.32206912346928 -17.284917897313747 97.460649491435092 0 1 0 -0.52991927123019833 0 0.84804809178421925 forward_v I I I I #
face $-1 $102 $103 $34 $-1 $104 forward single #
loop $-1 $105 $106 $43 #
cone-surface $-1 -43.825877375564197 -14.666710217441107 7.6422687067104054 0.52991927123019833 0 -0.84804809178421925 0.84804809178421925 0 0.52991927123019833 1 I I 0 1 1 forward I I I I #
face $-1 $107 $108 $35 $-1 $109 forward single #
loop $-1 $110 $111 $44 #
cone-surface $-1 -43.825877375564197 -10.73939869763214 7.6422687067104054 0.52991927123019833 0 -0.84804809178421925 0.84804809178421925 0 0.52991927123019833 1 I I 0 1 1 forward I I I I #
face $-1 $112 $113 $27 $-1 $114 reversed single #
loop $-1 $-1 $115 $45 #
plane-surface $-1 0 0 -16.394189294430532 0 0 1 1 0 0 forward_v I I I I #
coedge $-1 $116 $117 $118 $119 forward $46 $-1 #
face $-1 $120 $121 $28 $-1 $122 reversed single #
loop $-1 $-1 $123 $48 #
plane-surface $-1 0 0 -16.394189294430532 0 0 1 1 0 0 forward_v I I I I #
coedge $-1 $124 $125 $126 $127 forward $49 $-1 #
face $-1 $128 $129 $29 $-1 $130 forward single #
loop $-1 $-1 $131 $51 #
plane-surface $-1 -56.471449934385205 0 0 1 0 0 0 0 -1 forward_v I I I I #
coedge $-1 $132 $133 $134 $135 forward $52 $-1 #
face $-1 $136 $137 $30 $-1 $138 reversed single #
loop $-1 $-1 $139 $54 #
plane-surface $-1 -23.391239523084579 8.1330256000126937 89.487197275148915 0.70710678939079041 0 0.70710677298230451 0.70710677298230451 0 -0.70710678939079041 forward_v I I I I #
coedge $-1 $140 $141 $142 $143 reversed $55 $-1 #
face $-1 $-1 $144 $31 $-1 $145 forward single #
loop $-1 $146 $147 $57 #
cone-surface $-1 50.631782261315976 5.9497541911558471 10.554521599780202 -0.70710678939079041 0 -0.70710677298230451 0.35355338649115226 0 -0.35355339469539521 1 I I -0.70710678118654746 0.70710678118654746 0.5 forward I I I I #
loop $-1 $-1 $148 $40 #
coedge $-1 $92 $92 $149 $150 reversed $58 $-1 #
face $-1 $-1 $151 $32 $-1 $152 forward single #
loop $-1 $153 $154 $60 #
cone-surface $-1 50.631782261315976 10.316297008869547 10.554521599780202 -0.70710678939079041 0 -0.70710677298230451 0.35355338649115226 0 -0.35355339469539521 1 I I -0.70710678118654746 0.70710678118654746 0.5 forward I I I I #
loop $-1 $-1 $155 $41 #
coedge $-1 $97 $97 $156 $157 reversed $61 $-1 #
face $-1 $158 $159 $33 $-1 $160 reversed single #
loop $-1 $-1 $161 $63 #
plane-surface $-1 -56.471449934385198 -12.703054457536624 1.6796387771481989 -0.52991927123019833 0 0.84804809178421925 0.84804809178421925 0 0.52991927123019833 forward_v I I I I #
coedge $-1 $162 $163 $164 $165 reversed $64 $-1 #
face $-1 $-1 $166 $34 $-1 $167 forward single #
loop $-1 $168 $169 $66 #
cone-surface $-1 -42.689446601024386 -14.666710217441107 5.8235993317393344 0.52991927123019833 0 -0.84804809178421925 0.42402404589210962 0 0.26495963561509916 1 I I -0.70710678118654746 0.70710678118654746 0.5 forward I I I I #
loop $-1 $-1 $170 $43 #
coedge $-1 $106 $106 $171 $172 reversed $67 $-1 #
face $-1 $-1 $173 $35 $-1 $174 forward single #
loop $-1 $175 $176 $69 #
cone-surface $-1 -42.689446601024386 -10.73939869763214 5.8235993317393344 0.52991927123019833 0 -0.84804809178421925 0.42402404589210962 0 0.26495963561509916 1 I I -0.70710678118654746 0.70710678118654746 0.5 forward I I I I #
loop $-1 $-1 $177 $44 #
coedge $-1 $111 $111 $178 $179 reversed $70 $-1 #
face $-1 $180 $181 $27 $-1 $182 reversed single #
loop $-1 $-1 $183 $72 #
plane-surface $-1 0 -33.324135744232684 0 0 1 0 0 0 1 forward_v I I I I #
coedge $-1 $184 $185 $186 $187 forward $73 $-1 #
coedge $-1 $188 $75 $189 $190 forward $46 $-1 #
coedge $-1 $75 $188 $191 $192 forward $46 $-1 #
coedge $-1 $193 $194 $75 $119 reversed $195 $-1 #
edge $-1 $196 -33.324135744232684 $197 33.324135744232684 $118 $198 forward 7 unknown #
face $-1 $199 $200 $28 $-1 $201 forward single #
loop $-1 $-1 $202 $76 #
plane-surface $-1 56.471449934385205 0 0 -1 0 0 0 0 1 forward_v I I I I #
coedge $-1 $203 $204 $205 $206 forward $77 $-1 #
coedge $-1 $205 $79 $202 $207 reversed $49 $-1 #
coedge $-1 $79 $205 $208 $209 reversed $49 $-1 #
coedge $-1 $210 $211 $79 $127 reversed $200 $-1 #
edge $-1 $212 -56.471449934385205 $213 56.471449934385205 $126 $214 forward 7 unknown #
face $-1 $215 $216 $29 $-1 $217 reversed single #
loop $-1 $-1 $218 $80 #
plane-surface $-1 0 41.343744667692157 -11.728046889031258 0 0 1 1 0 0 forward_v I I I I #
coedge $-1 $219 $220 $132 $221 forward $81 $-1 #
coedge $-1 $222 $83 $131 $221 reversed $52 $-1 #
coedge $-1 $83 $222 $223 $224 reversed $52 $-1 #
coedge $-1 $218 $225 $83 $135 reversed $129 $-1 #
edge $-1 $226 -56.471449934385205 $227 56.471449934385205 $134 $228 forward 7 unknown #
face $-1 $229 $230 $30 $-1 $231 forward single #
loop $-1 $-1 $232 $84 #
plane-surface $-1 56.471451787607194 3.0387256460133791 169.3498867326187 0 1 0 0.70710678939079041 0 0.70710677298230451 forward_v I I I I #
coedge $-1 $233 $234 $235 $236 reversed $85 $-1 #
coedge $-1 $141 $87 $237 $238 reversed $55 $-1 #
coedge $-1 $87 $140 $233 $239 reversed $55 $-1 #
coedge $-1 $235 $240 $87 $143 forward $230 $-1 #
edge $-1 $241 -28.235724040581609 $242 -21.466040867699427 $142 $243 forward 7 unknown #
loop $-1 $-1 $149 $88 #
plane-surface $-1 -23.391239523084579 8.1330256000126937 89.487197275148915 0.70710678939079041 0 0.70710677298230451 0.70710677298230451 0 -0.70710678939079041 forward_v I I I I #
loop $-1 $-1 $244 $57 #
coedge $-1 $147 $147 $148 $245 reversed $89 $-1 #
coedge $-1 $148 $148 $147 $245 forward $91 $-1 #
coedge $-1 $149 $149 $92 $150 forward $144 $-1 #
edge $-1 $246 0 $246 6.2831853071796004 $149 $247 forward 7 unknown #
loop $-1 $-1 $156 $93 #
plane-surface $-1 -23.391239523084579 8.1330256000126937 89.487197275148915 0.70710678939079041 0 0.70710677298230451 0.70710677298230451 0 -0.70710678939079041 forward_v I I I I #
loop $-1 $-1 $248 $60 #
coedge $-1 $154 $154 $155 $249 reversed $94 $-1 #
coedge $-1 $155 $155 $154 $249 forward $96 $-1 #
coedge $-1 $156 $156 $97 $157 forward $151 $-1 #
edge $-1 $250 0 $250 6.2831853071796004 $156 $251 forward 7 unknown #
face $-1 $252 $253 $33 $-1 $254 reversed single #
loop $-1 $-1 $255 $98 #
plane-surface $-1 -116.32206912346928 -8.1211910177594984 97.460649491435092 0 -1 0 0.52991927123019833 0 -0.84804809178421925 forward_v I I I I #
coedge $-1 $256 $257 $258 $259 reversed $99 $-1 #
coedge $-1 $163 $101 $260 $261 reversed $64 $-1 #
coedge $-1 $101 $162 $256 $262 reversed $64 $-1 #
coedge $-1 $258 $263 $101 $165 forward $264 $-1 #
edge $-1 $265 1.6895846273494328 $266 25.237787467142034 $164 $267 forward 7 unknown #
loop $-1 $-1 $171 $102 #
plane-surface $-1 -56.471449934385198 -12.703054457536624 1.6796387771481989 -0.52991927123019833 0 0.84804809178421925 0.84804809178421925 0 0.52991927123019833 forward_v I I I I #
loop $-1 $-1 $268 $66 #
coedge $-1 $169 $169 $170 $269 reversed $103 $-1 #
coedge $-1 $170 $170 $169 $269 forward $105 $-1 #
coedge $-1 $171 $171 $106 $172 forward $166 $-1 #
edge $-1 $270 0 $270 6.2831853071796004 $171 $271 forward 7 unknown #
loop $-1 $-1 $178 $107 #
plane-surface $-1 -56.471449934385198 -12.703054457536624 1.6796387771481989 -0.52991927123019833 0 0.84804809178421925 0.84804809178421925 0 0.52991927123019833 forward_v I I I I #
loop $-1 $-1 $272 $69 #
coedge $-1 $176 $176 $177 $273 reversed $108 $-1 #
coedge $-1 $177 $177 $176 $273 forward $110 $-1 #
coedge $-1 $178 $178 $111 $179 forward $173 $-1 #
edge $-1 $274 0 $274 6.2831853071796004 $178 $275 forward 7 unknown #
face $-1 $276 $277 $27 $-1 $278 reversed single #
loop $-1 $-1 $279 $112 #
plane-surface $-1 -56.471449934385205 0 0 1 0 0 0 0 -1 forward_v I I I I #
coedge $-1 $280 $191 $281 $282 forward $113 $-1 #
coedge $-1 $283 $115 $280 $284 forward $73 $-1 #
coedge $-1 $115 $283 $285 $286 forward $73 $-1 #
coedge $-1 $194 $193 $115 $187 reversed $195 $-1 #
edge $-1 $287 -33.324135744232684 $288 33.324135744232684 $186 $289 forward 7 unknown #
coedge $-1 $117 $116 $290 $291 forward $46 $-1 #
coedge $-1 $292 $293 $116 $190 reversed $277 $-1 #
edge $-1 $197 -56.471449934385205 $294 56.471449934385205 $189 $295 forward 7 unknown #
coedge $-1 $183 $296 $117 $192 reversed $113 $-1 #
edge $-1 $297 -56.471449934385205 $196 56.471449934385205 $191 $298 forward 7 unknown #
coedge $-1 $186 $118 $296 $299 forward $195 $-1 #
coedge $-1 $118 $186 $292 $300 reversed $195 $-1 #
loop $-1 $-1 $193 $276 #
vertex $-1 $119 $301 #
vertex $-1 $119 $302 #
straight-curve $-1 56.471449934385205 0 16.394189294430532 0 1 0 I I #
face $-1 $303 $304 $28 $-1 $305 reversed single #
loop $-1 $-1 $211 $120 #
plane-surface $-1 0 -41.34374466769215 -11.728046889031258 0 0 1 1 0 0 forward_v I I I I #
coedge $-1 $306 $307 $124 $207 forward $121 $-1 #
coedge $-1 $308 $123 $307 $309 forward $77 $-1 #
coedge $-1 $123 $308 $310 $311 forward $77 $-1 #
coedge $-1 $125 $124 $123 $206 reversed $49 $-1 #
edge $-1 $312 -56.471449934385205 $313 56.471449934385205 $123 $314 forward 7 unknown #
edge $-1 $313 -16.394189294430532 $213 -11.728046889031258 $202 $315 forward 7 unknown #
coedge $-1 $310 $316 $125 $209 forward $317 $-1 #
edge $-1 $212 11.728046889031258 $312 16.394189294430532 $208 $318 forward 7 unknown #
coedge $-1 $319 $126 $316 $320 forward $200 $-1 #
coedge $-1 $126 $319 $306 $321 forward $200 $-1 #
vertex $-1 $209 $322 #
vertex $-1 $321 $323 #
straight-curve $-1 0 -33.324135744232684 -11.728046889031258 1 0 0 I I #
face $-1 $324 $325 $29 $-1 $326 reversed single #
loop $-1 $-1 $327 $128 #
plane-surface $-1 0 49.363353591151622 -14.061118091730895 0 -1 0 0 0 -1 forward_v I I I I #
coedge $-1 $328 $134 $329 $330 forward $129 $-1 #
coedge $-1 $331 $131 $225 $332 reversed $81 $-1 #
coedge $-1 $131 $331 $333 $334 reversed $81 $-1 #
edge $-1 $335 -16.394189294430532 $227 -11.728046889031258 $131 $336 forward 7 unknown #
coedge $-1 $133 $132 $337 $338 reversed $52 $-1 #
coedge $-1 $339 $329 $133 $224 forward $340 $-1 #
edge $-1 $226 11.728046889031258 $341 16.394189294430532 $223 $342 forward 7 unknown #
coedge $-1 $134 $328 $219 $332 forward $129 $-1 #
vertex $-1 $224 $343 #
vertex $-1 $332 $344 #
straight-curve $-1 0 33.324135744232684 -11.728046889031258 -1 0 0 I I #
face $-1 $-1 $345 $30 $-1 $346 reversed single #
loop $-1 $-1 $142 $136 #
plane-surface $-1 0 0 16.394189294430532 0 0 1 1 0 0 forward_v I I I I #
coedge $-1 $347 $348 $349 $350 reversed $137 $-1 #
coedge $-1 $351 $139 $141 $239 forward $85 $-1 #
coedge $-1 $139 $351 $347 $352 forward $85 $-1 #
coedge $-1 $349 $142 $139 $236 forward $230 $-1 #
edge $-1 $242 -9.1608127540056614 $353 1.0277871539929677 $235 $354 forward 7 unknown #
coedge $-1 $355 $356 $140 $238 forward $345 $-1 #
edge $-1 $357 -75.050437401852193 $241 -68.280754071878818 $237 $358 forward 7 unknown #
edge $-1 $242 103.36912200163127 $357 112.94289986877043 $141 $359 forward 7 unknown #
coedge $-1 $142 $349 $355 $360 forward $230 $-1 #
vertex $-1 $238 $361 #
vertex $-1 $143 $362 #
straight-curve $-1 28.235725893803597 13.227325554012008 16.394189294430532 -1 0 0 I I #
coedge $-1 $244 $244 $-1 $363 reversed $146 $-1 #
edge $-1 $364 0 $364 6.2831853071796004 $147 $365 forward 7 unknown #
vertex $-1 $150 $366 #
ellipse-curve $-1 53.086608347944107 5.9497541911558471 13.009347629443843 0.70710678939079041 0 0.70710677298230451 0.70710677298230451 0 -0.70710678939079041 1 I I #
coedge $-1 $248 $248 $-1 $367 reversed $153 $-1 #
edge $-1 $368 0 $368 6.2831853071796004 $154 $369 forward 7 unknown #
vertex $-1 $157 $370 #
ellipse-curve $-1 53.086608347944107 10.316297008869547 13.009347629443843 0.70710678939079041 0 0.70710677298230451 0.70710677298230451 0 -0.70710678939079041 1 I I #
face $-1 $-1 $264 $33 $-1 $371 forward single #
loop $-1 $-1 $372 $158 #
plane-surface $-1 -56.471449934385205 0 0 1 0 0 0 0 -1 forward_v I I I I #
coedge $-1 $373 $374 $375 $376 reversed $159 $-1 #
coedge $-1 $377 $161 $163 $262 forward $99 $-1 #
coedge $-1 $161 $377 $373 $378 forward $99 $-1 #
coedge $-1 $375 $164 $161 $259 forward $264 $-1 #
edge $-1 $266 -10.933390668545435 $379 -1.7696637889911866 $258 $380 forward 7 unknown #
coedge $-1 $381 $382 $162 $261 forward $253 $-1 #
edge $-1 $383 -47.050685968569354 $265 -32.336135451287014 $260 $384 forward 7 unknown #
edge $-1 $266 -27.767532369832036 $383 8.3790584163743152e-015 $163 $385 forward 7 unknown #
coedge $-1 $164 $375 $381 $386 forward $264 $-1 #
loop $-1 $-1 $375 $252 #
vertex $-1 $261 $387 #
vertex $-1 $165 $388 #
straight-curve $-1 -58.161034561734638 -17.284917897313747 16.394189294430532 1 0 0 I I #
coedge $-1 $268 $268 $-1 $389 reversed $168 $-1 #
edge $-1 $390 0 $390 6.2831853071796004 $169 $391 forward 7 unknown #
vertex $-1 $172 $392 #
ellipse-curve $-1 -44.697348514488908 -14.666710217441107 9.036914035789362 -0.52991927123019833 0 0.84804809178421925 0.84804809178421925 0 0.52991927123019833 1 I I #
coedge $-1 $272 $272 $-1 $393 reversed $175 $-1 #
edge $-1 $394 0 $394 6.2831853071796004 $176 $395 forward 7 unknown #
vertex $-1 $179 $396 #
ellipse-curve $-1 -44.697348514488908 -10.73939869763214 9.036914035789362 -0.52991927123019833 0 0.84804809178421925 0.84804809178421925 0 0.52991927123019833 1 I I #
face $-1 $-1 $195 $27 $-1 $397 reversed single #
loop $-1 $-1 $292 $180 #
plane-surface $-1 0 33.324135744232684 0 0 -1 0 0 0 -1 forward_v I I I I #
coedge $-1 $398 $290 $293 $399 forward $181 $-1 #
coedge $-1 $296 $183 $184 $284 reversed $113 $-1 #
coedge $-1 $290 $398 $183 $282 reversed $181 $-1 #
edge $-1 $297 -16.394189294430532 $400 16.394189294430532 $281 $401 forward 7 unknown #
coedge $-1 $185 $184 $398 $402 forward $73 $-1 #
edge $-1 $288 -56.471449934385205 $400 56.471449934385205 $280 $403 forward 7 unknown #
coedge $-1 $293 $292 $185 $286 reversed $277 $-1 #
edge $-1 $404 -56.471449934385205 $287 56.471449934385205 $285 $405 forward 7 unknown #
vertex $-1 $187 $406 #
vertex $-1 $299 $407 #
straight-curve $-1 56.471449934385205 0 -16.394189294430532 0 -1 0 I I #
coedge $-1 $279 $281 $188 $291 reversed $181 $-1 #
edge $-1 $294 -33.324135744232684 $297 33.324135744232684 $290 $408 forward 7 unknown #
coedge $-1 $285 $189 $194 $300 forward $277 $-1 #
coedge $-1 $189 $285 $279 $399 reversed $277 $-1 #
vertex $-1 $190 $409 #
straight-curve $-1 0 33.324135744232684 16.394189294430532 -1 0 0 I I #
coedge $-1 $191 $280 $193 $299 reversed $113 $-1 #
vertex $-1 $291 $410 #
straight-curve $-1 0 -33.324135744232684 16.394189294430532 1 0 0 I I #
edge $-1 $196 -16.394189294430532 $288 16.394189294430532 $193 $411 forward 7 unknown #
edge $-1 $197 -16.394189294430532 $287 16.394189294430532 $194 $412 forward 7 unknown #
point $-1 56.471449934385205 -33.324135744232684 16.394189294430532 #
point $-1 56.471449934385205 33.324135744232684 16.394189294430532 #
face $-1 $-1 $317 $28 $-1 $413 reversed single #
loop $-1 $-1 $414 $199 #
plane-surface $-1 0 -49.363353591151615 -14.061118091730895 0 1 0 0 0 1 forward_v I I I I #
coedge $-1 $415 $202 $211 $321 reversed $121 $-1 #
coedge $-1 $202 $415 $203 $309 reversed $121 $-1 #
coedge $-1 $204 $203 $416 $417 forward $77 $-1 #
edge $-1 $313 33.324135744232684 $418 49.363353591151615 $307 $419 forward 7 unknown #
coedge $-1 $420 $208 $204 $311 reversed $317 $-1 #
edge $-1 $421 -49.363353591151615 $312 -33.324135744232684 $310 $422 forward 7 unknown #
vertex $-1 $209 $423 #
vertex $-1 $309 $424 #
straight-curve $-1 0 -33.324135744232684 -16.394189294430532 1 0 0 I I #
straight-curve $-1 56.471449934385205 -33.324135744232684 0 0 0 1 I I #
coedge $-1 $208 $420 $210 $320 reversed $317 $-1 #
loop $-1 $-1 $208 $303 #
straight-curve $-1 -56.471449934385205 -33.324135744232684 0 0 0 -1 I I #
coedge $-1 $211 $210 $425 $426 forward $200 $-1 #
edge $-1 $212 -8.0196089234594652 $427 8.0196089234594652 $316 $428 forward 7 unknown #
edge $-1 $429 -8.0196089234594652 $213 8.0196089234594652 $306 $430 forward 7 unknown #
point $-1 -56.471449934385205 -33.324135744232684 -11.728046889031258 #
point $-1 56.471449934385205 -33.324135744232684 -11.728046889031258 #
face $-1 $-1 $340 $29 $-1 $431 reversed single #
loop $-1 $-1 $337 $215 #
plane-surface $-1 0 0 -16.394189294430532 0 0 1 1 0 0 forward_v I I I I #
coedge $-1 $432 $433 $434 $435 forward $216 $-1 #
coedge $-1 $225 $218 $433 $436 forward $129 $-1 #
coedge $-1 $223 $434 $218 $330 reversed $340 $-1 #
edge $-1 $226 -8.0196089234594652 $437 8.0196089234594652 $329 $438 forward 7 unknown #
coedge $-1 $220 $219 $439 $440 forward $81 $-1 #
edge $-1 $441 -8.0196089234594652 $227 8.0196089234594652 $219 $442 forward 7 unknown #
coedge $-1 $443 $337 $220 $334 forward $325 $-1 #
edge $-1 $335 -8.0196089234594723 $444 8.0196089234594652 $220 $445 forward 7 unknown #
vertex $-1 $334 $446 #
straight-curve $-1 -56.471449934385205 33.324135744232684 0 0 0 1 I I #
coedge $-1 $333 $447 $222 $338 forward $325 $-1 #
edge $-1 $341 -56.471449934385205 $335 56.471449934385205 $337 $448 forward 7 unknown #
coedge $-1 $434 $223 $447 $449 reversed $340 $-1 #
loop $-1 $-1 $223 $324 #
vertex $-1 $224 $450 #
straight-curve $-1 56.471449934385205 33.324135744232684 0 0 0 -1 I I #
point $-1 56.471449934385205 33.324135744232692 -11.728046889031258 #
point $-1 -56.471449934385205 33.324135744232692 -11.728046889031258 #
loop $-1 $-1 $237 $229 #
plane-surface $-1 56.471449934385205 0 0 -1 0 0 0 0 1 forward_v I I I I #
coedge $-1 $348 $232 $234 $352 reversed $137 $-1 #
coedge $-1 $232 $347 $451 $452 reversed $137 $-1 #
coedge $-1 $240 $235 $232 $350 forward $230 $-1 #
edge $-1 $353 21.466040867699427 $453 28.235724040581609 $349 $454 forward 7 unknown #
coedge $-1 $234 $233 $356 $455 reversed $85 $-1 #
edge $-1 $456 -112.94289986877043 $353 -103.36912200163127 $347 $457 forward 7 unknown #
vertex $-1 $236 $458 #
straight-curve $-1 49.701766761503023 4.0665128000063469 16.394189294430532 0 -1 0 I I #
coedge $-1 $451 $237 $240 $360 reversed $345 $-1 #
coedge $-1 $237 $451 $351 $455 forward $345 $-1 #
vertex $-1 $238 $459 #
straight-curve $-1 56.471449934385205 13.227325554012008 84.67494336630935 0 0 1 I I #
straight-curve $-1 -23.391239523084579 13.227325554012008 89.487197275148915 0.70710677298230451 0 -0.70710678939079041 I I #
edge $-1 $453 3.0387256460133791 $241 13.227325554012008 $355 $460 forward 7 unknown #
point $-1 56.471449934385205 13.227325554012008 16.394189294430532 #
point $-1 49.701766761503023 13.227325554012008 16.394189294430532 #
edge $-1 $461 1 $461 0 $244 $-1 forward 7 unknown #
vertex $-1 $245 $462 #
ellipse-curve $-1 50.985335656011372 5.9497541911558471 10.908074986271354 0.70710678939079041 0 0.70710677298230451 0.70710677298230451 0 -0.70710678939079041 1 I I #
point $-1 53.793715120926414 5.9497541911558471 12.302240840053052 #
edge $-1 $463 1 $463 0 $248 $-1 forward 7 unknown #
vertex $-1 $249 $464 #
ellipse-curve $-1 50.985335656011372 10.316297008869547 10.908074986271354 0.70710678939079041 0 0.70710677298230451 0.70710677298230451 0 -0.70710678939079041 1 I I #
point $-1 53.793715120926414 10.316297008869547 12.302240840053052 #
plane-surface $-1 0 0 16.394189294430532 0 0 1 1 0 0 forward_v I I I I #
coedge $-1 $382 $381 $374 $465 forward $253 $-1 #
coedge $-1 $374 $255 $257 $378 reversed $159 $-1 #
coedge $-1 $255 $373 $372 $465 reversed $159 $-1 #
coedge $-1 $263 $258 $255 $376 forward $264 $-1 #
edge $-1 $379 -25.237787467142034 $466 -1.6895846273494328 $375 $467 forward 7 unknown #
coedge $-1 $257 $256 $382 $468 reversed $99 $-1 #
edge $-1 $469 -8.3790584163743152e-015 $379 27.767532369832036 $373 $470 forward 7 unknown #
vertex $-1 $259 $471 #
straight-curve $-1 -32.923247094592604 -6.3515272287683118 16.394189294430532 0 1 0 I I #
coedge $-1 $372 $260 $263 $386 reversed $253 $-1 #
coedge $-1 $260 $372 $377 $468 forward $253 $-1 #
vertex $-1 $261 $472 #
straight-curve $-1 -56.471449934385205 -17.284917897313747 48.730324745717546 0 0 1 I I #
straight-curve $-1 -56.471449934385198 -17.284917897313747 1.6796387771481989 -0.84804809178421925 0 -0.52991927123019833 I I #
edge $-1 $466 8.1211910177594984 $265 17.284917897313747 $381 $473 forward 7 unknown #
point $-1 -56.471449934385205 -17.284917897313747 16.394189294430532 #
point $-1 -32.923247094592604 -17.284917897313747 16.394189294430532 #
edge $-1 $474 1 $474 0 $268 $-1 forward 7 unknown #
vertex $-1 $269 $475 #
ellipse-curve $-1 -42.954406236639485 -14.666710217441107 6.2476233776314443 -0.52991927123019833 0 0.84804809178421925 0.84804809178421925 0 0.52991927123019833 1 I I #
point $-1 -43.849300422704694 -14.666710217441107 9.5668333070195644 #
edge $-1 $476 1 $476 0 $272 $-1 forward 7 unknown #
vertex $-1 $273 $477 #
ellipse-curve $-1 -42.954406236639485 -10.73939869763214 6.2476233776314443 -0.52991927123019833 0 0.84804809178421925 0.84804809178421925 0 0.52991927123019833 1 I I #
point $-1 -43.849300422704694 -10.73939869763214 9.5668333070195644 #
plane-surface $-1 56.471449934385205 0 0 -1 0 0 0 0 1 forward_v I I I I #
coedge $-1 $281 $279 $283 $402 reversed $181 $-1 #
edge $-1 $294 -16.394189294430532 $404 16.394189294430532 $293 $478 forward 7 unknown #
vertex $-1 $402 $479 #
straight-curve $-1 -56.471449934385205 -33.324135744232684 0 0 0 -1 I I #
edge $-1 $400 -33.324135744232684 $404 33.324135744232684 $398 $480 forward 7 unknown #
straight-curve $-1 0 -33.324135744232684 -16.394189294430532 -1 0 0 I I #
vertex $-1 $286 $481 #
straight-curve $-1 0 33.324135744232684 -16.394189294430532 1 0 0 I I #
point $-1 56.471449934385205 33.324135744232684 -16.394189294430532 #
point $-1 56.471449934385205 -33.324135744232684 -16.394189294430532 #
straight-curve $-1 -56.471449934385205 0 16.394189294430532 0 -1 0 I I #
point $-1 -56.471449934385205 33.324135744232684 16.394189294430532 #
point $-1 -56.471449934385205 -33.324135744232684 16.394189294430532 #
straight-curve $-1 56.471449934385205 -33.324135744232684 0 0 0 -1 I I #
straight-curve $-1 56.471449934385205 33.324135744232684 0 0 0 -1 I I #
plane-surface $-1 -56.471449934385205 0 0 1 0 0 0 0 -1 forward_v I I I I #
coedge $-1 $416 $425 $420 $482 forward $304 $-1 #
coedge $-1 $307 $306 $483 $484 forward $121 $-1 #
coedge $-1 $483 $414 $308 $417 reversed $304 $-1 #
edge $-1 $418 -56.471449934385205 $421 56.471449934385205 $416 $485 forward 7 unknown #
vertex $-1 $484 $486 #
straight-curve $-1 56.471449934385205 0 -16.394189294430532 0 -1 0 I I #
coedge $-1 $316 $310 $414 $482 reversed $317 $-1 #
vertex $-1 $311 $487 #
straight-curve $-1 -56.471449934385205 0 -16.394189294430532 0 1 0 I I #
point $-1 -56.471449934385205 -33.324135744232684 -16.394189294430532 #
point $-1 56.471449934385205 -33.324135744232684 -16.394189294430532 #
coedge $-1 $414 $483 $319 $426 reversed $304 $-1 #
edge $-1 $427 -56.471449934385205 $429 56.471449934385205 $425 $488 forward 7 unknown #
vertex $-1 $320 $489 #
straight-curve $-1 -56.471449934385205 -41.34374466769215 -11.728046889031258 0 -1 0 I I #
vertex $-1 $321 $490 #
straight-curve $-1 56.471449934385205 -41.34374466769215 -11.728046889031258 0 1 0 I I #
plane-surface $-1 56.471449934385205 0 0 -1 0 0 0 0 1 forward_v I I I I #
coedge $-1 $439 $327 $443 $491 reversed $216 $-1 #
coedge $-1 $327 $439 $328 $436 reversed $216 $-1 #
coedge $-1 $329 $339 $327 $435 reversed $340 $-1 #
edge $-1 $437 -2.333071202699637 $492 2.333071202699637 $434 $493 forward 7 unknown #
edge $-1 $437 -56.471449934385205 $441 56.471449934385205 $433 $494 forward 7 unknown #
vertex $-1 $330 $495 #
straight-curve $-1 56.471449934385205 41.343744667692157 -11.728046889031258 0 1 0 I I #
coedge $-1 $433 $432 $331 $440 reversed $216 $-1 #
edge $-1 $441 -2.333071202699637 $444 2.333071202699637 $439 $496 forward 7 unknown #
vertex $-1 $436 $497 #
straight-curve $-1 -56.471449934385205 41.343744667692157 -11.728046889031258 0 -1 0 I I #
coedge $-1 $447 $333 $432 $491 forward $325 $-1 #
vertex $-1 $491 $498 #
straight-curve $-1 -56.471449934385205 41.343744667692157 -16.394189294430532 0 1 0 I I #
point $-1 -56.471449934385205 33.324135744232684 -16.394189294430532 #
coedge $-1 $337 $443 $339 $449 forward $325 $-1 #
straight-curve $-1 0 33.324135744232684 -16.394189294430532 -1 0 0 I I #
edge $-1 $492 -49.363353591151622 $341 -33.324135744232684 $339 $499 forward 7 unknown #
point $-1 56.471449934385205 33.324135744232684 -16.394189294430532 #
coedge $-1 $356 $355 $348 $452 forward $345 $-1 #
edge $-1 $453 68.280754071878818 $456 75.050437401852193 $451 $500 forward 7 unknown #
vertex $-1 $360 $501 #
straight-curve $-1 28.235725893803597 3.0387256460133791 16.394189294430532 1 0 0 I I #
edge $-1 $456 -1.0277871539929677 $357 9.1608127540056614 $356 $502 forward 7 unknown #
vertex $-1 $455 $503 #
straight-curve $-1 -23.391239523084579 3.0387256460133791 89.487197275148915 -0.70710677298230451 0 0.70710678939079041 I I #
point $-1 49.701766761503023 3.0387256460133791 16.394189294430532 #
point $-1 56.471449934385205 13.227325554012008 9.6245059644571569 #
straight-curve $-1 56.471449934385205 0 16.394189294430532 0 1 0 I I #
vertex $-1 $363 $504 #
point $-1 51.692442428993672 5.9497541911558471 10.200968196880563 #
vertex $-1 $367 $505 #
point $-1 51.692442428993672 10.316297008869547 10.200968196880563 #
edge $-1 $466 32.336135451287014 $469 47.050685968569354 $372 $506 forward 7 unknown #
vertex $-1 $386 $507 #
straight-curve $-1 -58.161034561734638 -8.1211910177594984 16.394189294430532 -1 0 0 I I #
edge $-1 $469 1.7696637889911866 $383 10.933390668545435 $382 $508 forward 7 unknown #
vertex $-1 $468 $509 #
straight-curve $-1 -56.471449934385198 -8.1211910177594984 1.6796387771481989 0.84804809178421925 0 0.52991927123019833 I I #
point $-1 -32.923247094592604 -8.1211910177594984 16.394189294430532 #
point $-1 -56.471449934385205 -17.284917897313747 1.6796387771481944 #
straight-curve $-1 -56.471449934385205 0 16.394189294430532 0 -1 0 I I #
vertex $-1 $389 $510 #
point $-1 -42.106358144855264 -14.666710217441107 6.7775426488616421 #
vertex $-1 $393 $511 #
point $-1 -42.106358144855264 -10.73939869763214 6.7775426488616421 #
straight-curve $-1 -56.471449934385205 33.324135744232684 0 0 0 -1 I I #
point $-1 -56.471449934385205 -33.324135744232684 -16.394189294430532 #
straight-curve $-1 -56.471449934385205 0 -16.394189294430532 0 1 0 I I #
point $-1 -56.471449934385205 33.324135744232684 -16.394189294430532 #
edge $-1 $427 -2.333071202699637 $421 2.333071202699637 $420 $512 forward 7 unknown #
coedge $-1 $425 $416 $415 $484 reversed $304 $-1 #
edge $-1 $429 -2.333071202699637 $418 2.333071202699637 $415 $513 forward 7 unknown #
straight-curve $-1 0 -49.363353591151615 -16.394189294430532 -1 0 0 I I #
point $-1 56.471449934385205 -49.363353591151615 -16.394189294430532 #
point $-1 -56.471449934385205 -49.363353591151615 -16.394189294430532 #
straight-curve $-1 0 -49.363353591151615 -11.728046889031258 1 0 0 I I #
point $-1 -56.471449934385205 -49.363353591151615 -11.728046889031258 #
point $-1 56.471449934385205 -49.363353591151615 -11.728046889031258 #
edge $-1 $444 -56.471449934385205 $492 56.471449934385205 $432 $514 forward 7 unknown #
vertex $-1 $449 $515 #
straight-curve $-1 56.471449934385205 49.363353591151622 -14.061118091730895 0 0 -1 I I #
straight-curve $-1 0 49.363353591151622 -11.728046889031258 -1 0 0 I I #
point $-1 56.471449934385205 49.363353591151622 -11.728046889031258 #
straight-curve $-1 -56.471449934385205 49.363353591151622 -14.061118091730895 0 0 -1 I I #
point $-1 -56.471449934385205 49.363353591151622 -11.728046889031258 #
point $-1 -56.471449934385205 49.363353591151622 -16.394189294430532 #
straight-curve $-1 56.471449934385205 0 -16.394189294430532 0 -1 0 I I #
straight-curve $-1 56.471449934385205 3.0387256460133791 84.67494336630935 0 0 -1 I I #
point $-1 56.471449934385205 3.0387256460133791 16.394189294430532 #
straight-curve $-1 56.471449934385205 4.0665128000063469 9.6245059644571427 0 1 0 I I #
point $-1 56.471449934385205 3.0387256460133791 9.6245059644571569 #
point $-1 50.27822886662058 5.9497541911558471 10.20096821328905 #
point $-1 50.27822886662058 10.316297008869547 10.20096821328905 #
straight-curve $-1 -56.471449934385205 -8.1211910177594984 48.730324745717546 0 0 -1 I I #
point $-1 -56.471449934385205 -8.1211910177594984 16.394189294430532 #
straight-curve $-1 -56.471449934385205 -6.3515272287683118 1.6796387771481947 0 -1 0 I I #
point $-1 -56.471449934385205 -8.1211910177594984 1.6796387771481944 #
point $-1 -42.424486965409287 -14.666710217441107 5.3995752858472246 #
point $-1 -42.424486965409287 -10.73939869763214 5.3995752858472246 #
straight-curve $-1 -56.471449934385205 -49.363353591151615 -14.061118091730895 0 0 -1 I I #
straight-curve $-1 56.471449934385205 -49.363353591151615 -14.061118091730895 0 0 -1 I I #
straight-curve $-1 0 49.363353591151622 -16.394189294430532 1 0 0 I I #
point $-1 56.471449934385205 49.363353591151622 -16.394189294430532 #
End-of-ACIS-data 