500 0 14 0           
7 Unknown 11 ACIS 5.0 NT 24 Fri Mar 26 00:37:56 1999 
-1 9.9999999999999995e-007 1e-010 
body $-1 $14 $-1 $15 #
body $-1 $16 $-1 $17 #
body $-1 $18 $-1 $19 #
body $-1 $20 $-1 $21 #
body $-1 $22 $-1 $23 #
body $-1 $24 $-1 $25 #
body $-1 $26 $-1 $27 #
body $-1 $28 $-1 $29 #
body $-1 $30 $-1 $31 #
body $-1 $32 $-1 $33 #
body $-1 $34 $-1 $35 #
body $-1 $36 $-1 $37 #
body $-1 $38 $-1 $39 #
body $-1 $40 $-1 $41 #
lump $-1 $-1 $42 $0 #
transform $-1 1 0 0 0 1 0 0 0 1 57.393108920560323 25.455307228080176 7.2200408901350253 1 rotate no_reflect no_shear #
lump $-1 $-1 $43 $1 #
transform $-1 1 0 0 0 1 0 0 0 1 57.393108920560323 25.455307228080176 7.2200408901350253 1 rotate no_reflect no_shear #
lump $-1 $-1 $44 $2 #
transform $-1 1 0 0 0 1 0 0 0 1 57.393108920560323 25.455307228080176 7.2200408901350253 1 rotate no_reflect no_shear #
lump $-1 $-1 $45 $3 #
transform $-1 1 0 0 0 1 0 0 0 1 57.393108920560323 25.455307228080176 7.2200408901350253 1 rotate no_reflect no_shear #
lump $-1 $-1 $46 $4 #
transform $-1 1 0 0 0 1 0 0 0 1 57.393108920560323 25.455307228080176 7.2200408901350253 1 rotate no_reflect no_shear #
lump $-1 $-1 $47 $5 #
transform $-1 1 0 0 0 1 0 0 0 1 57.393108920560323 25.455307228080176 7.2200408901350253 1 rotate no_reflect no_shear #
lump $-1 $-1 $48 $6 #
transform $-1 1 0 0 0 1 0 0 0 1 57.393108920560323 25.455307228080176 7.2200408901350253 1 rotate no_reflect no_shear #
lump $-1 $-1 $49 $7 #
transform $-1 1 0 0 0 1 0 0 0 1 57.393108920560323 25.455307228080176 7.2200408901350253 1 rotate no_reflect no_shear #
lump $-1 $-1 $50 $8 #
transform $-1 1 0 0 0 1 0 0 0 1 57.393108920560323 25.455307228080176 7.2200408901350253 1 rotate no_reflect no_shear #
lump $-1 $-1 $51 $9 #
transform $-1 1 0 0 0 1 0 0 0 1 57.393108920560323 25.455307228080176 7.2200408901350253 1 rotate no_reflect no_shear #
lump $-1 $-1 $52 $10 #
transform $-1 1 0 0 0 1 0 0 0 1 57.393108920560323 25.455307228080176 7.2200408901350253 1 rotate no_reflect no_shear #
lump $-1 $-1 $53 $11 #
transform $-1 1 0 0 0 1 0 0 0 1 57.393108920560323 25.455307228080176 7.2200408901350253 1 rotate no_reflect no_shear #
lump $-1 $-1 $54 $12 #
transform $-1 1 0 0 0 1 0 0 0 1 57.393108920560323 25.455307228080176 7.2200408901350253 1 rotate no_reflect no_shear #
lump $-1 $-1 $55 $13 #
transform $-1 1 0 0 0 1 0 0 0 1 57.393108920560323 25.455307228080176 7.2200408901350253 1 rotate no_reflect no_shear #
shell $-1 $-1 $-1 $56 $-1 $14 #
shell $-1 $-1 $-1 $57 $-1 $16 #
shell $-1 $-1 $-1 $58 $-1 $18 #
shell $-1 $-1 $-1 $59 $-1 $20 #
shell $-1 $-1 $-1 $60 $-1 $22 #
shell $-1 $-1 $-1 $61 $-1 $24 #
shell $-1 $-1 $-1 $62 $-1 $26 #
shell $-1 $-1 $-1 $63 $-1 $28 #
shell $-1 $-1 $-1 $64 $-1 $30 #
shell $-1 $-1 $-1 $65 $-1 $32 #
shell $-1 $-1 $-1 $66 $-1 $34 #
shell $-1 $-1 $-1 $67 $-1 $36 #
shell $-1 $-1 $-1 $68 $-1 $38 #
shell $-1 $-1 $-1 $69 $-1 $40 #
face $-1 $70 $71 $42 $-1 $72 forward single #
face $-1 $73 $74 $43 $-1 $75 forward single #
face $-1 $76 $77 $44 $-1 $78 reversed single #
face $-1 $79 $80 $45 $-1 $81 forward single #
face $-1 $82 $83 $46 $-1 $84 forward single #
face $-1 $85 $86 $47 $-1 $87 reversed single #
face $-1 $88 $89 $48 $-1 $90 forward single #
face $-1 $91 $92 $49 $-1 $93 forward single #
face $-1 $94 $95 $50 $-1 $96 reversed single #
face $-1 $97 $98 $51 $-1 $99 forward single #
face $-1 $100 $101 $52 $-1 $102 forward single #
face $-1 $103 $104 $53 $-1 $105 reversed single #
face $-1 $106 $107 $54 $-1 $108 forward single #
face $-1 $109 $110 $55 $-1 $111 forward single #
face $-1 $112 $113 $42 $-1 $114 reversed single #
loop $-1 $-1 $115 $56 #
plane-surface $-1 0 0 7.2200408901350253 0 0 1 1 0 0 forward_v I I I I #
face $-1 $116 $117 $43 $-1 $118 reversed single #
loop $-1 $-1 $119 $57 #
plane-surface $-1 0 -21.710545885026349 -4.2200408901350253 0 0 1 1 0 0 forward_v I I I I #
face $-1 $120 $121 $44 $-1 $122 reversed single #
loop $-1 $-1 $123 $58 #
plane-surface $-1 37.609788697659113 -1.4226296322259104 163.40579054642541 0 -1 0 -0.61566148304635926 0 -0.78801074757464917 forward_v I I I I #
face $-1 $124 $125 $45 $-1 $126 forward single #
loop $-1 $127 $128 $59 #
cone-surface $-1 53.162583273770252 -7.7124201698854655 3.3805695249621355 -0.61566148304635926 0 -0.78801074757464917 0.78801074757464917 0 -0.61566148304635926 1 I I 0 1 1 forward I I I I #
face $-1 $129 $130 $46 $-1 $131 forward single #
loop $-1 $132 $133 $60 #
cone-surface $-1 53.162583273770252 -3.9385458472897312 3.3805695249621355 -0.61566148304635926 0 -0.78801074757464917 0.78801074757464917 0 -0.61566148304635926 1 I I 0 1 1 forward I I I I #
face $-1 $134 $135 $47 $-1 $136 reversed single #
loop $-1 $-1 $137 $61 #
plane-surface $-1 37.609788697659113 17.717859071056939 163.40579054642541 0 -1 0 -0.61566148304635926 0 -0.78801074757464917 forward_v I I I I #
face $-1 $138 $139 $48 $-1 $140 forward single #
loop $-1 $141 $142 $62 #
cone-surface $-1 53.162583273770252 11.428068533397383 3.3805695249621355 -0.61566148304635926 0 -0.78801074757464917 0.78801074757464917 0 -0.61566148304635926 1 I I 0 1 1 forward I I I I #
face $-1 $143 $144 $49 $-1 $145 forward single #
loop $-1 $146 $147 $63 #
cone-surface $-1 53.162583273770252 15.201942855993121 3.3805695249621355 -0.61566148304635926 0 -0.78801074757464917 0.78801074757464917 0 -0.61566148304635926 1 I I 0 1 1 forward I I I I #
face $-1 $148 $149 $50 $-1 $150 reversed single #
loop $-1 $-1 $151 $64 #
plane-surface $-1 -128.06256202990713 -10.228336384949291 92.736337437078603 0 1 0 -0.61566148304635926 0 0.78801074757464917 forward_v I I I I #
face $-1 $152 $153 $51 $-1 $154 forward single #
loop $-1 $155 $156 $65 #
cone-surface $-1 -53.162583273770245 -7.7124201698854655 3.3805695249621284 0.61566148304635926 0 -0.78801074757464917 0.78801074757464917 0 0.61566148304635926 1 I I 0 1 1 forward I I I I #
face $-1 $157 $158 $52 $-1 $159 forward single #
loop $-1 $160 $161 $66 #
cone-surface $-1 -53.162583273770245 -3.9385458472897312 3.3805695249621284 0.61566148304635926 0 -0.78801074757464917 0.78801074757464917 0 0.61566148304635926 1 I I 0 1 1 forward I I I I #
face $-1 $162 $163 $53 $-1 $164 reversed single #
loop $-1 $-1 $165 $67 #
plane-surface $-1 -128.06256202990713 8.9121523183335576 92.736337437078603 0 1 0 -0.61566148304635926 0 0.78801074757464917 forward_v I I I I #
face $-1 $166 $167 $54 $-1 $168 forward single #
loop $-1 $169 $170 $68 #
cone-surface $-1 -53.162583273770245 11.428068533397383 3.3805695249621284 0.61566148304635926 0 -0.78801074757464917 0.78801074757464917 0 0.61566148304635926 1 I I 0 1 1 forward I I I I #
face $-1 $171 $172 $55 $-1 $173 forward single #
loop $-1 $174 $175 $69 #
cone-surface $-1 -53.162583273770245 15.201942855993121 3.3805695249621284 0.61566148304635926 0 -0.78801074757464917 0.78801074757464917 0 0.61566148304635926 1 I I 0 1 1 forward I I I I #
face $-1 $176 $177 $42 $-1 $178 reversed single #
loop $-1 $-1 $179 $70 #
plane-surface $-1 0 0 -7.2200408901350253 0 0 1 1 0 0 forward_v I I I I #
coedge $-1 $180 $181 $182 $183 forward $71 $-1 #
face $-1 $184 $185 $43 $-1 $186 reversed single #
loop $-1 $-1 $187 $73 #
plane-surface $-1 0 -17.965784541972521 -5.7200408901350253 0 -1 0 0 0 -1 forward_v I I I I #
coedge $-1 $188 $189 $190 $191 reversed $74 $-1 #
face $-1 $192 $193 $44 $-1 $194 reversed single #
loop $-1 $-1 $195 $76 #
plane-surface $-1 -33.059664411687692 -5.8254830085876002 72.953017214177393 0.61566148304635926 0 0.78801074757464917 0.78801074757464917 0 -0.61566148304635926 forward_v I I I I #
coedge $-1 $196 $197 $198 $199 reversed $77 $-1 #
face $-1 $-1 $200 $45 $-1 $201 forward single #
loop $-1 $202 $203 $79 #
cone-surface $-1 51.783427898588855 -7.7124201698854655 1.61533117865413 -0.61566148304635926 0 -0.78801074757464917 0.39400537378732459 0 -0.30783074152317963 1 I I -0.70710678118654746 0.70710678118654746 0.5 forward I I I I #
loop $-1 $-1 $204 $59 #
coedge $-1 $128 $128 $205 $206 reversed $80 $-1 #
face $-1 $-1 $207 $46 $-1 $208 forward single #
loop $-1 $209 $210 $82 #
cone-surface $-1 51.783427898588855 -3.9385458472897312 1.61533117865413 -0.61566148304635926 0 -0.78801074757464917 0.39400537378732459 0 -0.30783074152317963 1 I I -0.70710678118654746 0.70710678118654746 0.5 forward I I I I #
loop $-1 $-1 $211 $60 #
coedge $-1 $133 $133 $212 $213 reversed $83 $-1 #
face $-1 $214 $215 $47 $-1 $216 reversed single #
loop $-1 $-1 $217 $85 #
plane-surface $-1 -33.059664411687692 13.315005694695248 72.953017214177393 0.61566148304635926 0 0.78801074757464917 0.78801074757464917 0 -0.61566148304635926 forward_v I I I I #
coedge $-1 $218 $219 $220 $221 reversed $86 $-1 #
face $-1 $-1 $222 $48 $-1 $223 forward single #
loop $-1 $224 $225 $88 #
cone-surface $-1 51.783427898588855 11.428068533397383 1.61533117865413 -0.61566148304635926 0 -0.78801074757464917 0.39400537378732459 0 -0.30783074152317963 1 I I -0.70710678118654746 0.70710678118654746 0.5 forward I I I I #
loop $-1 $-1 $226 $62 #
coedge $-1 $142 $142 $227 $228 reversed $89 $-1 #
face $-1 $-1 $229 $49 $-1 $230 forward single #
loop $-1 $231 $232 $91 #
cone-surface $-1 51.783427898588855 15.201942855993121 1.61533117865413 -0.61566148304635926 0 -0.78801074757464917 0.39400537378732459 0 -0.30783074152317963 1 I I -0.70710678118654746 0.70710678118654746 0.5 forward I I I I #
loop $-1 $-1 $233 $63 #
coedge $-1 $147 $147 $234 $235 reversed $92 $-1 #
face $-1 $236 $237 $50 $-1 $238 reversed single #
loop $-1 $-1 $239 $94 #
plane-surface $-1 -57.393108920560323 -5.8254830085876002 2.2835641048305888 -0.61566148304635926 0 0.78801074757464917 0.78801074757464917 0 0.61566148304635926 forward_v I I I I #
coedge $-1 $240 $241 $242 $243 reversed $95 $-1 #
face $-1 $-1 $244 $51 $-1 $245 forward single #
loop $-1 $246 $247 $97 #
cone-surface $-1 -51.783427898588847 -7.7124201698854655 1.6153311786541229 0.61566148304635926 0 -0.78801074757464917 0.39400537378732459 0 0.30783074152317963 1 I I -0.70710678118654746 0.70710678118654746 0.5 forward I I I I #
loop $-1 $-1 $248 $65 #
coedge $-1 $156 $156 $249 $250 reversed $98 $-1 #
face $-1 $-1 $251 $52 $-1 $252 forward single #
loop $-1 $253 $254 $100 #
cone-surface $-1 -51.783427898588847 -3.9385458472897312 1.6153311786541229 0.61566148304635926 0 -0.78801074757464917 0.39400537378732459 0 0.30783074152317963 1 I I -0.70710678118654746 0.70710678118654746 0.5 forward I I I I #
loop $-1 $-1 $255 $66 #
coedge $-1 $161 $161 $256 $257 reversed $101 $-1 #
face $-1 $258 $259 $53 $-1 $260 reversed single #
loop $-1 $-1 $261 $103 #
plane-surface $-1 -57.393108920560323 13.315005694695248 2.2835641048305888 -0.61566148304635926 0 0.78801074757464917 0.78801074757464917 0 0.61566148304635926 forward_v I I I I #
coedge $-1 $262 $263 $264 $265 reversed $104 $-1 #
face $-1 $-1 $266 $54 $-1 $267 forward single #
loop $-1 $268 $269 $106 #
cone-surface $-1 -51.783427898588847 11.428068533397383 1.6153311786541229 0.61566148304635926 0 -0.78801074757464917 0.39400537378732459 0 0.30783074152317963 1 I I -0.70710678118654746 0.70710678118654746 0.5 forward I I I I #
loop $-1 $-1 $270 $68 #
coedge $-1 $170 $170 $271 $272 reversed $107 $-1 #
face $-1 $-1 $273 $55 $-1 $274 forward single #
loop $-1 $275 $276 $109 #
cone-surface $-1 -51.783427898588847 15.201942855993121 1.6153311786541229 0.61566148304635926 0 -0.78801074757464917 0.39400537378732459 0 0.30783074152317963 1 I I -0.70710678118654746 0.70710678118654746 0.5 forward I I I I #
loop $-1 $-1 $277 $69 #
coedge $-1 $175 $175 $278 $279 reversed $110 $-1 #
face $-1 $280 $281 $42 $-1 $282 reversed single #
loop $-1 $-1 $283 $112 #
plane-surface $-1 0 -25.455307228080176 0 0 1 0 0 0 1 forward_v I I I I #
coedge $-1 $284 $285 $286 $287 forward $113 $-1 #
coedge $-1 $288 $115 $289 $290 forward $71 $-1 #
coedge $-1 $115 $288 $291 $292 forward $71 $-1 #
coedge $-1 $293 $294 $115 $183 reversed $295 $-1 #
edge $-1 $296 -25.455307228080176 $297 25.455307228080176 $182 $298 forward 7 unknown #
face $-1 $299 $300 $43 $-1 $301 reversed single #
loop $-1 $-1 $302 $116 #
plane-surface $-1 0 0 -7.2200408901350253 0 0 1 1 0 0 forward_v I I I I #
coedge $-1 $303 $304 $305 $306 reversed $117 $-1 #
coedge $-1 $307 $119 $304 $308 forward $74 $-1 #
coedge $-1 $119 $307 $309 $310 reversed $74 $-1 #
coedge $-1 $311 $305 $119 $191 forward $300 $-1 #
edge $-1 $312 7.1105115994593469 $313 14.600034285567002 $190 $314 forward 7 unknown #
face $-1 $315 $316 $44 $-1 $317 reversed single #
loop $-1 $-1 $318 $120 #
plane-surface $-1 37.609788697659113 -10.228336384949291 163.40579054642541 0 1 0 0.61566148304635926 0 0.78801074757464917 forward_v I I I I #
coedge $-1 $319 $320 $321 $322 reversed $121 $-1 #
coedge $-1 $197 $123 $323 $324 reversed $77 $-1 #
coedge $-1 $123 $196 $319 $325 reversed $77 $-1 #
coedge $-1 $321 $326 $123 $199 forward $327 $-1 #
edge $-1 $328 -38.588214571730767 $329 -32.26981254546704 $198 $330 forward 7 unknown #
loop $-1 $-1 $205 $124 #
plane-surface $-1 -33.059664411687692 -5.8254830085876002 72.953017214177393 0.61566148304635926 0 0.78801074757464917 0.78801074757464917 0 -0.61566148304635926 forward_v I I I I #
loop $-1 $-1 $331 $79 #
coedge $-1 $203 $203 $204 $332 reversed $125 $-1 #
coedge $-1 $204 $204 $203 $332 forward $127 $-1 #
coedge $-1 $205 $205 $128 $206 forward $200 $-1 #
edge $-1 $333 0 $333 6.2831853071796004 $205 $334 forward 7 unknown #
loop $-1 $-1 $212 $129 #
plane-surface $-1 -33.059664411687692 -5.8254830085876002 72.953017214177393 0.61566148304635926 0 0.78801074757464917 0.78801074757464917 0 -0.61566148304635926 forward_v I I I I #
loop $-1 $-1 $335 $82 #
coedge $-1 $210 $210 $211 $336 reversed $130 $-1 #
coedge $-1 $211 $211 $210 $336 forward $132 $-1 #
coedge $-1 $212 $212 $133 $213 forward $207 $-1 #
edge $-1 $337 0 $337 6.2831853071796004 $212 $338 forward 7 unknown #
face $-1 $339 $340 $47 $-1 $341 reversed single #
loop $-1 $-1 $342 $134 #
plane-surface $-1 37.609788697659113 8.9121523183335576 163.40579054642541 0 1 0 0.61566148304635926 0 0.78801074757464917 forward_v I I I I #
coedge $-1 $343 $344 $345 $346 reversed $135 $-1 #
coedge $-1 $219 $137 $347 $348 reversed $86 $-1 #
coedge $-1 $137 $218 $343 $349 reversed $86 $-1 #
coedge $-1 $345 $350 $137 $221 forward $351 $-1 #
edge $-1 $352 -38.588214571730767 $353 -32.26981254546704 $220 $354 forward 7 unknown #
loop $-1 $-1 $227 $138 #
plane-surface $-1 -33.059664411687692 13.315005694695248 72.953017214177393 0.61566148304635926 0 0.78801074757464917 0.78801074757464917 0 -0.61566148304635926 forward_v I I I I #
loop $-1 $-1 $355 $88 #
coedge $-1 $225 $225 $226 $356 reversed $139 $-1 #
coedge $-1 $226 $226 $225 $356 forward $141 $-1 #
coedge $-1 $227 $227 $142 $228 forward $222 $-1 #
edge $-1 $357 0 $357 6.2831853071796004 $227 $358 forward 7 unknown #
loop $-1 $-1 $234 $143 #
plane-surface $-1 -33.059664411687692 13.315005694695248 72.953017214177393 0.61566148304635926 0 0.78801074757464917 0.78801074757464917 0 -0.61566148304635926 forward_v I I I I #
loop $-1 $-1 $359 $91 #
coedge $-1 $232 $232 $233 $360 reversed $144 $-1 #
coedge $-1 $233 $233 $232 $360 forward $146 $-1 #
coedge $-1 $234 $234 $147 $235 forward $229 $-1 #
edge $-1 $361 0 $361 6.2831853071796004 $234 $362 forward 7 unknown #
face $-1 $363 $364 $50 $-1 $365 forward single #
loop $-1 $-1 $366 $148 #
plane-surface $-1 -128.06256202990713 -1.4226296322259104 92.736337437078603 0 -1 0 0.61566148304635926 0 -0.78801074757464917 forward_v I I I I #
coedge $-1 $367 $368 $369 $370 reversed $149 $-1 #
coedge $-1 $241 $151 $371 $372 reversed $95 $-1 #
coedge $-1 $151 $240 $367 $373 reversed $95 $-1 #
coedge $-1 $369 $374 $151 $243 forward $364 $-1 #
edge $-1 $375 6.6381720943932407 $376 12.956574120656974 $242 $377 forward 7 unknown #
loop $-1 $-1 $249 $152 #
plane-surface $-1 -57.393108920560323 -5.8254830085876002 2.2835641048305888 -0.61566148304635926 0 0.78801074757464917 0.78801074757464917 0 0.61566148304635926 forward_v I I I I #
loop $-1 $-1 $378 $97 #
coedge $-1 $247 $247 $248 $379 reversed $153 $-1 #
coedge $-1 $248 $248 $247 $379 forward $155 $-1 #
coedge $-1 $249 $249 $156 $250 forward $244 $-1 #
edge $-1 $380 0 $380 6.2831853071796004 $249 $381 forward 7 unknown #
loop $-1 $-1 $256 $157 #
plane-surface $-1 -57.393108920560323 -5.8254830085876002 2.2835641048305888 -0.61566148304635926 0 0.78801074757464917 0.78801074757464917 0 0.61566148304635926 forward_v I I I I #
loop $-1 $-1 $382 $100 #
coedge $-1 $254 $254 $255 $383 reversed $158 $-1 #
coedge $-1 $255 $255 $254 $383 forward $160 $-1 #
coedge $-1 $256 $256 $161 $257 forward $251 $-1 #
edge $-1 $384 0 $384 6.2831853071796004 $256 $385 forward 7 unknown #
face $-1 $386 $387 $53 $-1 $388 forward single #
loop $-1 $-1 $389 $162 #
plane-surface $-1 -128.06256202990713 17.717859071056939 92.736337437078603 0 -1 0 0.61566148304635926 0 -0.78801074757464917 forward_v I I I I #
coedge $-1 $390 $391 $392 $393 reversed $163 $-1 #
coedge $-1 $263 $165 $394 $395 reversed $104 $-1 #
coedge $-1 $165 $262 $390 $396 reversed $104 $-1 #
coedge $-1 $392 $397 $165 $265 forward $387 $-1 #
edge $-1 $398 6.6381720943932407 $399 12.956574120656974 $264 $400 forward 7 unknown #
loop $-1 $-1 $271 $166 #
plane-surface $-1 -57.393108920560323 13.315005694695248 2.2835641048305888 -0.61566148304635926 0 0.78801074757464917 0.78801074757464917 0 0.61566148304635926 forward_v I I I I #
loop $-1 $-1 $401 $106 #
coedge $-1 $269 $269 $270 $402 reversed $167 $-1 #
coedge $-1 $270 $270 $269 $402 forward $169 $-1 #
coedge $-1 $271 $271 $170 $272 forward $266 $-1 #
edge $-1 $403 0 $403 6.2831853071796004 $271 $404 forward 7 unknown #
loop $-1 $-1 $278 $171 #
plane-surface $-1 -57.393108920560323 13.315005694695248 2.2835641048305888 -0.61566148304635926 0 0.78801074757464917 0.78801074757464917 0 0.61566148304635926 forward_v I I I I #
loop $-1 $-1 $405 $109 #
coedge $-1 $276 $276 $277 $406 reversed $172 $-1 #
coedge $-1 $277 $277 $276 $406 forward $174 $-1 #
coedge $-1 $278 $278 $175 $279 forward $273 $-1 #
edge $-1 $407 0 $407 6.2831853071796004 $278 $408 forward 7 unknown #
face $-1 $409 $410 $42 $-1 $411 reversed single #
loop $-1 $-1 $412 $176 #
plane-surface $-1 -57.393108920560323 0 0 1 0 0 0 0 -1 forward_v I I I I #
coedge $-1 $413 $291 $414 $415 forward $177 $-1 #
coedge $-1 $416 $179 $413 $417 forward $113 $-1 #
coedge $-1 $179 $416 $418 $419 forward $113 $-1 #
coedge $-1 $294 $293 $179 $287 reversed $295 $-1 #
edge $-1 $420 -25.455307228080176 $421 25.455307228080176 $286 $422 forward 7 unknown #
coedge $-1 $181 $180 $423 $424 forward $71 $-1 #
coedge $-1 $425 $426 $180 $290 reversed $410 $-1 #
edge $-1 $297 -57.393108920560323 $427 57.393108920560323 $289 $428 forward 7 unknown #
coedge $-1 $283 $429 $181 $292 reversed $177 $-1 #
edge $-1 $430 -57.393108920560323 $296 57.393108920560323 $291 $431 forward 7 unknown #
coedge $-1 $286 $182 $429 $432 forward $295 $-1 #
coedge $-1 $182 $286 $425 $433 reversed $295 $-1 #
loop $-1 $-1 $293 $409 #
vertex $-1 $183 $434 #
vertex $-1 $183 $435 #
straight-curve $-1 57.393108920560323 0 7.2200408901350253 0 1 0 I I #
face $-1 $436 $437 $43 $-1 $438 reversed single #
loop $-1 $-1 $305 $184 #
plane-surface $-1 57.393108920560323 0 0 -1 0 0 0 0 1 forward_v I I I I #
coedge $-1 $439 $440 $303 $441 forward $185 $-1 #
coedge $-1 $442 $187 $302 $441 reversed $117 $-1 #
coedge $-1 $187 $442 $188 $308 reversed $117 $-1 #
coedge $-1 $190 $443 $187 $306 forward $300 $-1 #
edge $-1 $444 -4.3600204450675122 $312 -1.3600204450675126 $305 $445 forward 7 unknown #
coedge $-1 $189 $188 $446 $447 reversed $74 $-1 #
edge $-1 $312 -57.393108920560323 $448 57.393108920560323 $304 $449 forward 7 unknown #
coedge $-1 $450 $451 $189 $310 forward $437 $-1 #
edge $-1 $313 -57.393108920560323 $452 57.393108920560323 $309 $453 forward 7 unknown #
coedge $-1 $443 $190 $451 $454 forward $300 $-1 #
vertex $-1 $191 $455 #
vertex $-1 $454 $456 #
straight-curve $-1 57.393108920560323 -10.855272942513174 -4.2200408901350253 0 -1 0 I I #
face $-1 $-1 $327 $44 $-1 $457 forward single #
loop $-1 $-1 $458 $192 #
plane-surface $-1 57.393108920560323 0 0 -1 0 0 0 0 1 forward_v I I I I #
coedge $-1 $459 $460 $461 $462 reversed $193 $-1 #
coedge $-1 $463 $195 $197 $325 forward $121 $-1 #
coedge $-1 $195 $463 $459 $464 forward $121 $-1 #
coedge $-1 $461 $198 $195 $322 forward $327 $-1 #
edge $-1 $329 -1.4901118720678896 $465 7.3155948806554907 $321 $466 forward 7 unknown #
coedge $-1 $467 $468 $196 $324 forward $316 $-1 #
edge $-1 $469 -79.419331168382115 $328 -74.482854383077679 $323 $470 forward 7 unknown #
edge $-1 $329 106.76805051826294 $469 114.78621784112065 $197 $471 forward 7 unknown #
coedge $-1 $198 $461 $467 $472 forward $327 $-1 #
loop $-1 $-1 $461 $315 #
vertex $-1 $324 $473 #
vertex $-1 $199 $474 #
straight-curve $-1 18.804894348829556 -1.4226296322259104 7.2200408901350244 -1 0 0 I I #
coedge $-1 $331 $331 $-1 $475 reversed $202 $-1 #
edge $-1 $476 0 $476 6.2831853071796004 $203 $477 forward 7 unknown #
vertex $-1 $206 $478 #
ellipse-curve $-1 54.23390790742846 -7.7124201698854655 4.7518024974828048 0.61566148304635926 0 0.78801074757464917 0.78801074757464917 0 -0.61566148304635926 1 I I #
coedge $-1 $335 $335 $-1 $479 reversed $209 $-1 #
edge $-1 $480 0 $480 6.2831853071796004 $210 $481 forward 7 unknown #
vertex $-1 $213 $482 #
ellipse-curve $-1 54.23390790742846 -3.9385458472897312 4.7518024974828048 0.61566148304635926 0 0.78801074757464917 0.78801074757464917 0 -0.61566148304635926 1 I I #
face $-1 $-1 $351 $47 $-1 $483 forward single #
loop $-1 $-1 $484 $214 #
plane-surface $-1 57.393108920560323 0 0 -1 0 0 0 0 1 forward_v I I I I #
coedge $-1 $485 $486 $487 $488 reversed $215 $-1 #
coedge $-1 $489 $217 $219 $349 forward $135 $-1 #
coedge $-1 $217 $489 $485 $490 forward $135 $-1 #
coedge $-1 $487 $220 $217 $346 forward $351 $-1 #
edge $-1 $353 -11.060356223709315 $491 -2.2546494709859335 $345 $492 forward 7 unknown #
coedge $-1 $493 $494 $218 $348 forward $340 $-1 #
edge $-1 $495 -79.419331168382115 $352 -74.482854383077679 $347 $496 forward 7 unknown #
edge $-1 $353 106.76805051826294 $495 114.78621784112065 $219 $497 forward 7 unknown #
coedge $-1 $220 $487 $493 $498 forward $351 $-1 #
loop $-1 $-1 $487 $339 #
vertex $-1 $348 $499 #
vertex $-1 $221 $500 #
straight-curve $-1 18.804894348829556 17.717859071056939 7.2200408901350244 -1 0 0 I I #
coedge $-1 $355 $355 $-1 $501 reversed $224 $-1 #
edge $-1 $502 0 $502 6.2831853071796004 $225 $503 forward 7 unknown #
vertex $-1 $228 $504 #
ellipse-curve $-1 54.23390790742846 11.428068533397383 4.7518024974828048 0.61566148304635926 0 0.78801074757464917 0.78801074757464917 0 -0.61566148304635926 1 I I #
coedge $-1 $359 $359 $-1 $505 reversed $231 $-1 #
edge $-1 $506 0 $506 6.2831853071796004 $232 $507 forward 7 unknown #
vertex $-1 $235 $508 #
ellipse-curve $-1 54.23390790742846 15.201942855993121 4.7518024974828048 0.61566148304635926 0 0.78801074757464917 0.78801074757464917 0 -0.61566148304635926 1 I I #
face $-1 $-1 $509 $50 $-1 $510 reversed single #
loop $-1 $-1 $242 $236 #
plane-surface $-1 0 0 7.2200408901350253 0 0 1 1 0 0 forward_v I I I I #
coedge $-1 $511 $512 $513 $514 reversed $237 $-1 #
coedge $-1 $515 $239 $241 $373 forward $149 $-1 #
coedge $-1 $239 $515 $511 $516 forward $149 $-1 #
coedge $-1 $513 $242 $239 $370 forward $364 $-1 #
edge $-1 $376 -7.3155948806554907 $517 1.4901118720678896 $369 $518 forward 7 unknown #
coedge $-1 $519 $520 $240 $372 forward $509 $-1 #
edge $-1 $521 -44.084604613708713 $375 -39.148127828404277 $371 $522 forward 7 unknown #
edge $-1 $376 -8.0181673228577157 $521 0 $241 $523 forward 7 unknown #
coedge $-1 $242 $513 $519 $524 forward $364 $-1 #
vertex $-1 $372 $525 #
vertex $-1 $243 $526 #
straight-curve $-1 -64.031281014953564 -10.228336384949291 7.2200408901350244 1 0 0 I I #
coedge $-1 $378 $378 $-1 $527 reversed $246 $-1 #
edge $-1 $528 0 $528 6.2831853071796004 $247 $529 forward 7 unknown #
vertex $-1 $250 $530 #
ellipse-curve $-1 -54.23390790742846 -7.7124201698854655 4.7518024974828048 -0.61566148304635926 0 0.78801074757464917 0.78801074757464917 0 0.61566148304635926 1 I I #
coedge $-1 $382 $382 $-1 $531 reversed $253 $-1 #
edge $-1 $532 0 $532 6.2831853071796004 $254 $533 forward 7 unknown #
vertex $-1 $257 $534 #
ellipse-curve $-1 -54.23390790742846 -3.9385458472897312 4.7518024974828048 -0.61566148304635926 0 0.78801074757464917 0.78801074757464917 0 0.61566148304635926 1 I I #
face $-1 $-1 $535 $53 $-1 $536 reversed single #
loop $-1 $-1 $264 $258 #
plane-surface $-1 0 0 7.2200408901350253 0 0 1 1 0 0 forward_v I I I I #
coedge $-1 $537 $538 $539 $540 reversed $259 $-1 #
coedge $-1 $541 $261 $263 $396 forward $163 $-1 #
coedge $-1 $261 $541 $537 $542 forward $163 $-1 #
coedge $-1 $539 $264 $261 $393 forward $387 $-1 #
edge $-1 $399 2.2546494709859335 $543 11.060356223709315 $392 $544 forward 7 unknown #
coedge $-1 $545 $546 $262 $395 forward $535 $-1 #
edge $-1 $547 -44.084604613708713 $398 -39.148127828404277 $394 $548 forward 7 unknown #
edge $-1 $399 -8.0181673228577157 $547 0 $263 $549 forward 7 unknown #
coedge $-1 $264 $539 $545 $550 forward $387 $-1 #
vertex $-1 $265 $551 #
vertex $-1 $265 $552 #
straight-curve $-1 -64.031281014953564 8.9121523183335576 7.2200408901350244 1 0 0 I I #
coedge $-1 $401 $401 $-1 $553 reversed $268 $-1 #
edge $-1 $554 0 $554 6.2831853071796004 $269 $555 forward 7 unknown #
vertex $-1 $272 $556 #
ellipse-curve $-1 -54.23390790742846 11.428068533397383 4.7518024974828048 -0.61566148304635926 0 0.78801074757464917 0.78801074757464917 0 0.61566148304635926 1 I I #
coedge $-1 $405 $405 $-1 $557 reversed $275 $-1 #
edge $-1 $558 0 $558 6.2831853071796004 $276 $559 forward 7 unknown #
vertex $-1 $279 $560 #
ellipse-curve $-1 -54.23390790742846 15.201942855993121 4.7518024974828048 -0.61566148304635926 0 0.78801074757464917 0.78801074757464917 0 0.61566148304635926 1 I I #
face $-1 $-1 $295 $42 $-1 $561 reversed single #
loop $-1 $-1 $425 $280 #
plane-surface $-1 0 25.455307228080176 0 0 -1 0 0 0 -1 forward_v I I I I #
coedge $-1 $562 $423 $426 $563 forward $281 $-1 #
coedge $-1 $429 $283 $284 $417 reversed $177 $-1 #
coedge $-1 $423 $562 $283 $415 reversed $281 $-1 #
edge $-1 $430 -7.2200408901350253 $564 7.2200408901350253 $414 $565 forward 7 unknown #
coedge $-1 $285 $284 $562 $566 forward $113 $-1 #
edge $-1 $421 -57.393108920560323 $564 57.393108920560323 $413 $567 forward 7 unknown #
coedge $-1 $426 $425 $285 $419 reversed $410 $-1 #
edge $-1 $568 -57.393108920560323 $420 57.393108920560323 $418 $569 forward 7 unknown #
vertex $-1 $287 $570 #
vertex $-1 $432 $571 #
straight-curve $-1 57.393108920560323 0 -7.2200408901350253 0 -1 0 I I #
coedge $-1 $412 $414 $288 $424 reversed $281 $-1 #
edge $-1 $427 -25.455307228080176 $430 25.455307228080176 $423 $572 forward 7 unknown #
coedge $-1 $418 $289 $294 $433 forward $410 $-1 #
coedge $-1 $289 $418 $412 $563 reversed $410 $-1 #
vertex $-1 $290 $573 #
straight-curve $-1 0 25.455307228080176 7.2200408901350253 -1 0 0 I I #
coedge $-1 $291 $413 $293 $432 reversed $177 $-1 #
vertex $-1 $424 $574 #
straight-curve $-1 0 -25.455307228080176 7.2200408901350253 1 0 0 I I #
edge $-1 $296 -7.2200408901350253 $421 7.2200408901350253 $293 $575 forward 7 unknown #
edge $-1 $297 -7.2200408901350253 $420 7.2200408901350253 $294 $576 forward 7 unknown #
point $-1 57.393108920560323 -25.455307228080176 7.2200408901350253 #
point $-1 57.393108920560323 25.455307228080176 7.2200408901350253 #
face $-1 $-1 $577 $43 $-1 $578 reversed single #
loop $-1 $-1 $309 $299 #
plane-surface $-1 0 -25.455307228080176 0 0 1 0 0 0 1 forward_v I I I I #
coedge $-1 $579 $302 $443 $580 forward $185 $-1 #
coedge $-1 $302 $579 $581 $582 forward $185 $-1 #
edge $-1 $583 -57.393108920560323 $444 57.393108920560323 $302 $584 forward 7 unknown #
coedge $-1 $304 $303 $585 $586 reversed $117 $-1 #
coedge $-1 $305 $311 $439 $580 reversed $300 $-1 #
vertex $-1 $580 $587 #
straight-curve $-1 57.393108920560323 -17.965784541972521 -2.8600204450675126 0 0 1 I I #
coedge $-1 $585 $588 $307 $447 forward $577 $-1 #
edge $-1 $452 -14.600034285567002 $448 -7.1105115994593469 $446 $589 forward 7 unknown #
vertex $-1 $447 $590 #
straight-curve $-1 0 -17.965784541972521 -4.2200408901350253 -1 0 0 I I #
coedge $-1 $591 $309 $588 $592 forward $437 $-1 #
coedge $-1 $309 $591 $311 $454 reversed $437 $-1 #
vertex $-1 $592 $593 #
straight-curve $-1 0 -25.455307228080176 -4.2200408901350253 -1 0 0 I I #
edge $-1 $313 4.2200408901350253 $594 7.2200408901350253 $311 $595 forward 7 unknown #
point $-1 57.393108920560323 -17.965784541972521 -4.2200408901350253 #
point $-1 57.393108920560323 -25.455307228080176 -4.2200408901350253 #
plane-surface $-1 0 0 7.2200408901350253 0 0 1 1 0 0 forward_v I I I I #
coedge $-1 $468 $467 $460 $596 forward $316 $-1 #
coedge $-1 $460 $318 $320 $464 reversed $193 $-1 #
coedge $-1 $318 $459 $458 $596 reversed $193 $-1 #
coedge $-1 $326 $321 $318 $462 forward $327 $-1 #
edge $-1 $465 32.26981254546704 $597 38.588214571730767 $461 $598 forward 7 unknown #
coedge $-1 $320 $319 $468 $599 reversed $121 $-1 #
edge $-1 $600 -114.78621784112065 $465 -106.76805051826294 $459 $601 forward 7 unknown #
vertex $-1 $322 $602 #
straight-curve $-1 51.074706894296604 -2.9127415042938001 7.2200408901350173 0 -1 0 I I #
coedge $-1 $458 $323 $326 $472 reversed $316 $-1 #
coedge $-1 $323 $458 $463 $599 forward $316 $-1 #
vertex $-1 $324 $603 #
straight-curve $-1 57.393108920560323 -1.4226296322259104 81.702895273212704 0 0 1 I I #
straight-curve $-1 -33.059664411687692 -1.4226296322259104 72.953017214177393 0.78801074757464917 0 -0.61566148304635926 I I #
edge $-1 $597 -10.228336384949291 $328 -1.4226296322259104 $467 $604 forward 7 unknown #
point $-1 57.393108920560323 -1.4226296322259104 7.2200408901350253 #
point $-1 51.074706894296597 -1.4226296322259104 7.2200408901350244 #
edge $-1 $605 1 $605 0 $331 $-1 forward 7 unknown #
vertex $-1 $332 $606 #
ellipse-curve $-1 52.091258640112031 -7.7124201698854655 2.0093365524414546 0.61566148304635926 0 0.78801074757464917 0.78801074757464917 0 -0.61566148304635926 1 I I #
point $-1 55.02191865500312 -7.7124201698854655 4.1361410144364568 #
edge $-1 $607 1 $607 0 $335 $-1 forward 7 unknown #
vertex $-1 $336 $608 #
ellipse-curve $-1 52.091258640112031 -3.9385458472897312 2.0093365524414546 0.61566148304635926 0 0.78801074757464917 0.78801074757464917 0 -0.61566148304635926 1 I I #
point $-1 55.02191865500312 -3.9385458472897312 4.1361410144364568 #
plane-surface $-1 0 0 7.2200408901350253 0 0 1 1 0 0 forward_v I I I I #
coedge $-1 $494 $493 $486 $609 forward $340 $-1 #
coedge $-1 $486 $342 $344 $490 reversed $215 $-1 #
coedge $-1 $342 $485 $484 $609 reversed $215 $-1 #
coedge $-1 $350 $345 $342 $488 forward $351 $-1 #
edge $-1 $491 32.26981254546704 $610 38.588214571730767 $487 $611 forward 7 unknown #
coedge $-1 $344 $343 $494 $612 reversed $135 $-1 #
edge $-1 $613 -114.78621784112065 $491 -106.76805051826294 $485 $614 forward 7 unknown #
vertex $-1 $346 $615 #
straight-curve $-1 51.074706894296604 6.6575028473476241 7.2200408901350173 0 -1 0 I I #
coedge $-1 $484 $347 $350 $498 reversed $340 $-1 #
coedge $-1 $347 $484 $489 $612 forward $340 $-1 #
vertex $-1 $348 $616 #
straight-curve $-1 57.393108920560323 17.717859071056939 81.702895273212704 0 0 1 I I #
straight-curve $-1 -33.059664411687692 17.717859071056939 72.953017214177393 0.78801074757464917 0 -0.61566148304635926 I I #
edge $-1 $610 8.9121523183335576 $352 17.717859071056939 $493 $617 forward 7 unknown #
point $-1 57.393108920560323 17.717859071056939 7.2200408901350253 #
point $-1 51.074706894296597 17.717859071056939 7.2200408901350244 #
edge $-1 $618 1 $618 0 $355 $-1 forward 7 unknown #
vertex $-1 $356 $619 #
ellipse-curve $-1 52.091258640112031 11.428068533397383 2.0093365524414546 0.61566148304635926 0 0.78801074757464917 0.78801074757464917 0 -0.61566148304635926 1 I I #
point $-1 55.02191865500312 11.428068533397383 4.1361410144364568 #
edge $-1 $620 1 $620 0 $359 $-1 forward 7 unknown #
vertex $-1 $360 $621 #
ellipse-curve $-1 52.091258640112031 15.201942855993121 2.0093365524414546 0.61566148304635926 0 0.78801074757464917 0.78801074757464917 0 -0.61566148304635926 1 I I #
point $-1 55.02191865500312 15.201942855993121 4.1361410144364568 #
loop $-1 $-1 $371 $363 #
plane-surface $-1 -57.393108920560323 0 0 1 0 0 0 0 -1 forward_v I I I I #
coedge $-1 $512 $366 $368 $516 reversed $237 $-1 #
coedge $-1 $366 $511 $622 $623 reversed $237 $-1 #
coedge $-1 $374 $369 $366 $514 forward $364 $-1 #
edge $-1 $517 -12.956574120656974 $624 -6.6381720943932407 $513 $625 forward 7 unknown #
coedge $-1 $368 $367 $520 $626 reversed $149 $-1 #
edge $-1 $627 0 $517 8.0181673228577157 $511 $628 forward 7 unknown #
vertex $-1 $370 $629 #
straight-curve $-1 -51.074706894296597 -2.9127415042938001 7.2200408901350244 0 1 0 I I #
coedge $-1 $622 $371 $374 $524 reversed $509 $-1 #
coedge $-1 $371 $622 $515 $626 forward $509 $-1 #
vertex $-1 $372 $630 #
straight-curve $-1 -57.393108920560323 -10.228336384949291 46.368168718539302 0 0 1 I I #
straight-curve $-1 -57.393108920560323 -10.228336384949291 2.2835641048305888 -0.78801074757464917 0 -0.61566148304635926 I I #
edge $-1 $624 1.4226296322259104 $375 10.228336384949291 $519 $631 forward 7 unknown #
point $-1 -57.393108920560323 -10.228336384949291 7.2200408901350253 #
point $-1 -51.07470689429659 -10.228336384949291 7.2200408901350253 #
edge $-1 $632 1 $632 0 $378 $-1 forward 7 unknown #
vertex $-1 $379 $633 #
ellipse-curve $-1 -52.091258640112024 -7.7124201698854655 2.0093365524414475 -0.61566148304635926 0 0.78801074757464917 0.78801074757464917 0 0.61566148304635926 1 I I #
point $-1 -53.445897159853814 -7.7124201698854655 5.367463980529168 #
edge $-1 $634 1 $634 0 $382 $-1 forward 7 unknown #
vertex $-1 $383 $635 #
ellipse-curve $-1 -52.091258640112024 -3.9385458472897312 2.0093365524414475 -0.61566148304635926 0 0.78801074757464917 0.78801074757464917 0 0.61566148304635926 1 I I #
point $-1 -53.445897159853814 -3.9385458472897312 5.367463980529168 #
loop $-1 $-1 $394 $386 #
plane-surface $-1 -57.393108920560323 0 0 1 0 0 0 0 -1 forward_v I I I I #
coedge $-1 $538 $389 $391 $542 reversed $259 $-1 #
coedge $-1 $389 $537 $636 $637 reversed $259 $-1 #
coedge $-1 $397 $392 $389 $540 forward $387 $-1 #
edge $-1 $543 -12.956574120656974 $638 -6.6381720943932407 $539 $639 forward 7 unknown #
coedge $-1 $391 $390 $546 $640 reversed $163 $-1 #
edge $-1 $641 0 $543 8.0181673228577157 $537 $642 forward 7 unknown #
vertex $-1 $393 $643 #
straight-curve $-1 -51.074706894296597 6.6575028473476241 7.2200408901350244 0 1 0 I I #
coedge $-1 $636 $394 $397 $550 reversed $535 $-1 #
coedge $-1 $394 $636 $541 $640 forward $535 $-1 #
vertex $-1 $395 $644 #
straight-curve $-1 -57.393108920560323 8.9121523183335576 46.368168718539302 0 0 1 I I #
straight-curve $-1 -57.393108920560323 8.9121523183335576 2.2835641048305888 -0.78801074757464917 0 -0.61566148304635926 I I #
edge $-1 $638 -17.717859071056939 $398 -8.9121523183335576 $545 $645 forward 7 unknown #
point $-1 -57.393108920560323 8.9121523183335576 7.2200408901350253 #
point $-1 -51.07470689429659 8.9121523183335576 7.2200408901350253 #
edge $-1 $646 1 $646 0 $401 $-1 forward 7 unknown #
vertex $-1 $402 $647 #
ellipse-curve $-1 -52.091258640112024 11.428068533397383 2.0093365524414475 -0.61566148304635926 0 0.78801074757464917 0.78801074757464917 0 0.61566148304635926 1 I I #
point $-1 -53.445897159853814 11.428068533397383 5.367463980529168 #
edge $-1 $648 1 $648 0 $405 $-1 forward 7 unknown #
vertex $-1 $406 $649 #
ellipse-curve $-1 -52.091258640112024 15.201942855993121 2.0093365524414475 -0.61566148304635926 0 0.78801074757464917 0.78801074757464917 0 0.61566148304635926 1 I I #
point $-1 -53.445897159853814 15.201942855993121 5.367463980529168 #
plane-surface $-1 57.393108920560323 0 0 -1 0 0 0 0 1 forward_v I I I I #
coedge $-1 $414 $412 $416 $566 reversed $281 $-1 #
edge $-1 $427 -7.2200408901350253 $568 7.2200408901350253 $426 $650 forward 7 unknown #
vertex $-1 $566 $651 #
straight-curve $-1 -57.393108920560323 -25.455307228080176 0 0 0 -1 I I #
edge $-1 $564 -25.455307228080176 $568 25.455307228080176 $562 $652 forward 7 unknown #
straight-curve $-1 0 -25.455307228080176 -7.2200408901350253 -1 0 0 I I #
vertex $-1 $419 $653 #
straight-curve $-1 0 25.455307228080176 -7.2200408901350253 1 0 0 I I #
point $-1 57.393108920560323 25.455307228080176 -7.2200408901350253 #
point $-1 57.393108920560323 -25.455307228080176 -7.2200408901350253 #
straight-curve $-1 -57.393108920560323 0 7.2200408901350253 0 -1 0 I I #
point $-1 -57.393108920560323 25.455307228080176 7.2200408901350253 #
point $-1 -57.393108920560323 -25.455307228080176 7.2200408901350253 #
straight-curve $-1 57.393108920560323 -25.455307228080176 0 0 0 -1 I I #
straight-curve $-1 57.393108920560323 25.455307228080176 0 0 0 -1 I I #
loop $-1 $-1 $585 $436 #
plane-surface $-1 -57.393108920560323 0 0 1 0 0 0 0 -1 forward_v I I I I #
coedge $-1 $440 $439 $591 $654 forward $185 $-1 #
edge $-1 $444 17.965784541972521 $594 25.455307228080176 $443 $655 forward 7 unknown #
coedge $-1 $588 $585 $440 $582 reversed $577 $-1 #
edge $-1 $656 -25.455307228080176 $583 -17.965784541972521 $581 $657 forward 7 unknown #
vertex $-1 $586 $658 #
straight-curve $-1 0 -17.965784541972521 -7.2200408901350253 1 0 0 I I #
coedge $-1 $581 $446 $442 $586 forward $577 $-1 #
edge $-1 $448 1.3600204450675126 $583 4.3600204450675122 $585 $659 forward 7 unknown #
point $-1 57.393108920560323 -17.965784541972521 -7.2200408901350253 #
coedge $-1 $446 $581 $450 $592 reversed $577 $-1 #
straight-curve $-1 -57.393108920560323 -10.855272942513174 -4.2200408901350253 0 1 0 I I #
point $-1 -57.393108920560323 -17.965784541972521 -4.2200408901350253 #
coedge $-1 $451 $450 $579 $654 reversed $437 $-1 #
edge $-1 $452 4.2200408901350253 $656 7.2200408901350253 $588 $660 forward 7 unknown #
point $-1 -57.393108920560323 -25.455307228080176 -4.2200408901350253 #
vertex $-1 $454 $661 #
straight-curve $-1 57.393108920560323 -25.455307228080176 0 0 0 -1 I I #
edge $-1 $597 74.482854383077679 $600 79.419331168382115 $458 $662 forward 7 unknown #
vertex $-1 $472 $663 #
straight-curve $-1 18.804894348829556 -10.228336384949291 7.2200408901350244 1 0 0 I I #
edge $-1 $600 -7.3155948806554907 $469 1.4901118720678896 $468 $664 forward 7 unknown #
vertex $-1 $599 $665 #
straight-curve $-1 -33.059664411687692 -10.228336384949291 72.953017214177393 -0.78801074757464917 0 0.61566148304635926 I I #
point $-1 51.074706894296597 -10.228336384949291 7.2200408901350244 #
point $-1 57.393108920560323 -1.4226296322259104 2.2835641048305888 #
straight-curve $-1 57.393108920560323 0 7.2200408901350253 0 1 0 I I #
vertex $-1 $475 $666 #
point $-1 52.879269387686684 -7.7124201698854655 1.3936750693950954 #
vertex $-1 $479 $667 #
point $-1 52.879269387686684 -3.9385458472897312 1.3936750693950954 #
edge $-1 $610 74.482854383077679 $613 79.419331168382115 $484 $668 forward 7 unknown #
vertex $-1 $498 $669 #
straight-curve $-1 18.804894348829556 8.9121523183335576 7.2200408901350244 1 0 0 I I #
edge $-1 $613 2.2546494709859335 $495 11.060356223709315 $494 $670 forward 7 unknown #
vertex $-1 $612 $671 #
straight-curve $-1 -33.059664411687692 8.9121523183335576 72.953017214177393 -0.78801074757464917 0 0.61566148304635926 I I #
point $-1 51.074706894296597 8.9121523183335576 7.2200408901350244 #
point $-1 57.393108920560323 17.717859071056939 2.2835641048305888 #
straight-curve $-1 57.393108920560323 0 7.2200408901350253 0 1 0 I I #
vertex $-1 $501 $672 #
point $-1 52.879269387686684 11.428068533397383 1.3936750693950954 #
vertex $-1 $505 $673 #
point $-1 52.879269387686684 15.201942855993121 1.3936750693950954 #
coedge $-1 $520 $519 $512 $623 forward $509 $-1 #
edge $-1 $624 39.148127828404277 $627 44.084604613708713 $622 $674 forward 7 unknown #
vertex $-1 $524 $675 #
straight-curve $-1 -64.031281014953564 -1.4226296322259104 7.2200408901350244 -1 0 0 I I #
edge $-1 $627 -1.4901118720678896 $521 7.3155948806554907 $520 $676 forward 7 unknown #
vertex $-1 $626 $677 #
straight-curve $-1 -57.393108920560323 -1.4226296322259104 2.2835641048305888 0.78801074757464917 0 0.61566148304635926 I I #
point $-1 -51.07470689429659 -1.4226296322259104 7.2200408901350253 #
point $-1 -57.393108920560323 -10.228336384949291 2.2835641048305888 #
straight-curve $-1 -57.393108920560323 0 7.2200408901350253 0 -1 0 I I #
vertex $-1 $527 $678 #
point $-1 -51.303247892537378 -7.7124201698854655 2.6249980354878066 #
vertex $-1 $531 $679 #
point $-1 -51.303247892537378 -3.9385458472897312 2.6249980354878066 #
coedge $-1 $546 $545 $538 $637 forward $535 $-1 #
edge $-1 $638 39.148127828404277 $641 44.084604613708713 $636 $680 forward 7 unknown #
vertex $-1 $550 $681 #
straight-curve $-1 -64.031281014953564 17.717859071056939 7.2200408901350244 -1 0 0 I I #
edge $-1 $641 -11.060356223709315 $547 -2.2546494709859335 $546 $682 forward 7 unknown #
vertex $-1 $640 $683 #
straight-curve $-1 -57.393108920560323 17.717859071056939 2.2835641048305888 0.78801074757464917 0 0.61566148304635926 I I #
point $-1 -51.07470689429659 17.717859071056939 7.2200408901350253 #
point $-1 -57.393108920560323 8.9121523183335576 2.2835641048305888 #
straight-curve $-1 -57.393108920560323 0 7.2200408901350253 0 -1 0 I I #
vertex $-1 $553 $684 #
point $-1 -51.303247892537378 11.428068533397383 2.6249980354878066 #
vertex $-1 $557 $685 #
point $-1 -51.303247892537378 15.201942855993121 2.6249980354878066 #
straight-curve $-1 -57.393108920560323 25.455307228080176 0 0 0 -1 I I #
point $-1 -57.393108920560323 -25.455307228080176 -7.2200408901350253 #
straight-curve $-1 -57.393108920560323 0 -7.2200408901350253 0 1 0 I I #
point $-1 -57.393108920560323 25.455307228080176 -7.2200408901350253 #
edge $-1 $594 -57.393108920560323 $656 57.393108920560323 $591 $686 forward 7 unknown #
straight-curve $-1 57.393108920560323 0 -7.2200408901350253 0 -1 0 I I #
vertex $-1 $582 $687 #
straight-curve $-1 -57.393108920560323 0 -7.2200408901350253 0 1 0 I I #
point $-1 -57.393108920560323 -17.965784541972521 -7.2200408901350253 #
straight-curve $-1 -57.393108920560323 -17.965784541972521 -2.8600204450675126 0 0 -1 I I #
straight-curve $-1 -57.393108920560323 -25.455307228080176 0 0 0 -1 I I #
point $-1 57.393108920560323 -25.455307228080176 -7.2200408901350253 #
straight-curve $-1 57.393108920560323 -10.228336384949291 81.702895273212704 0 0 -1 I I #
point $-1 57.393108920560323 -10.228336384949291 7.2200408901350253 #
straight-curve $-1 57.393108920560323 -2.9127415042938001 2.283564104830603 0 1 0 I I #
point $-1 57.393108920560323 -10.228336384949291 2.2835641048305888 #
point $-1 51.475597157065678 -7.7124201698854655 1.2213258048668054 #
point $-1 51.475597157065678 -3.9385458472897312 1.2213258048668054 #
straight-curve $-1 57.393108920560323 8.9121523183335576 81.702895273212704 0 0 -1 I I #
point $-1 57.393108920560323 8.9121523183335576 7.2200408901350253 #
straight-curve $-1 57.393108920560323 6.6575028473476241 2.283564104830603 0 1 0 I I #
point $-1 57.393108920560323 8.9121523183335576 2.2835641048305888 #
point $-1 51.475597157065678 11.428068533397383 1.2213258048668054 #
point $-1 51.475597157065678 15.201942855993121 1.2213258048668054 #
straight-curve $-1 -57.393108920560323 -1.4226296322259104 46.368168718539302 0 0 -1 I I #
point $-1 -57.393108920560323 -1.4226296322259104 7.2200408901350253 #
straight-curve $-1 -57.393108920560323 -2.9127415042938001 2.2835641048305892 0 -1 0 I I #
point $-1 -57.393108920560323 -1.4226296322259104 2.2835641048305888 #
point $-1 -51.475597157065671 -7.7124201698854655 1.2213258048667983 #
point $-1 -51.475597157065671 -3.9385458472897312 1.2213258048667983 #
straight-curve $-1 -57.393108920560323 17.717859071056939 46.368168718539302 0 0 -1 I I #
point $-1 -57.393108920560323 17.717859071056939 7.2200408901350253 #
straight-curve $-1 -57.393108920560323 6.6575028473476241 2.2835641048305892 0 -1 0 I I #
point $-1 -57.393108920560323 17.717859071056939 2.2835641048305888 #
point $-1 -51.475597157065671 11.428068533397383 1.2213258048667983 #
point $-1 -51.475597157065671 15.201942855993121 1.2213258048667983 #
straight-curve $-1 0 -25.455307228080176 -7.2200408901350253 -1 0 0 I I #
point $-1 -57.393108920560323 -25.455307228080176 -7.2200408901350253 #
End-of-ACIS-data 