500 0 5 0           
7 Unknown 11 ACIS 5.0 NT 24 Thu Mar 25 22:39:36 1999 
-1 9.9999999999999995e-007 1e-010 
body $-1 $5 $-1 $6 #
body $-1 $7 $-1 $8 #
body $-1 $9 $-1 $10 #
body $-1 $11 $-1 $12 #
body $-1 $13 $-1 $14 #
lump $-1 $-1 $15 $0 #
transform $-1 1 0 0 0 1 0 0 0 1 53.439130832850125 28.140227267326757 5.9240730525451433 1 rotate no_reflect no_shear #
lump $-1 $-1 $16 $1 #
transform $-1 1 0 0 0 1 0 0 0 1 53.439130832850125 28.140227267326757 5.9240730525451433 1 rotate no_reflect no_shear #
lump $-1 $-1 $17 $2 #
transform $-1 1 0 0 0 1 0 0 0 1 53.439130832850125 28.140227267326757 5.9240730525451433 1 rotate no_reflect no_shear #
lump $-1 $-1 $18 $3 #
transform $-1 1 0 0 0 1 0 0 0 1 53.439130832850125 28.140227267326757 5.9240730525451433 1 rotate no_reflect no_shear #
lump $-1 $-1 $19 $4 #
transform $-1 1 0 0 0 1 0 0 0 1 53.439130832850125 28.140227267326757 5.9240730525451433 1 rotate no_reflect no_shear #
shell $-1 $-1 $-1 $20 $-1 $5 #
shell $-1 $-1 $-1 $21 $-1 $7 #
shell $-1 $-1 $-1 $22 $-1 $9 #
shell $-1 $-1 $-1 $23 $-1 $11 #
shell $-1 $-1 $-1 $24 $-1 $13 #
face $-1 $25 $26 $15 $-1 $27 forward single #
face $-1 $28 $29 $16 $-1 $30 forward single #
face $-1 $31 $32 $17 $-1 $33 forward single #
face $-1 $34 $35 $18 $-1 $36 reversed single #
face $-1 $37 $38 $19 $-1 $39 reversed single #
face $-1 $40 $41 $15 $-1 $42 reversed single #
loop $-1 $-1 $43 $20 #
plane-surface $-1 0 0 5.9240730525451433 0 0 1 1 0 0 forward_v I I I I #
face $-1 $44 $45 $16 $-1 $46 reversed single #
loop $-1 $-1 $47 $21 #
plane-surface $-1 -56.093492334835418 0 -2.9240730525451433 0 0 1 1 0 0 forward_v I I I I #
face $-1 $48 $49 $17 $-1 $50 forward single #
loop $-1 $-1 $51 $22 #
plane-surface $-1 44.261543272416887 -28.140227267326736 0.90139658509349374 0 -0.86602541151947299 0.49999998660252726 1 0 0 forward_v I I I I #
face $-1 $52 $53 $18 $-1 $54 reversed single #
loop $-1 $55 $56 $23 #
cone-surface $-1 40.328291460802632 -25.462178562665496 2.7036754182805769 0 0.86602541151947299 -0.49999998660252726 1 0 0 1 I I 0 1 1 forward I I I I #
face $-1 $57 $58 $19 $-1 $59 reversed single #
loop $-1 $60 $61 $24 #
cone-surface $-1 48.194795084031128 -25.462178562665496 2.7036754182805769 0 0.86602541151947299 -0.49999998660252726 1 0 0 1 I I 0 1 1 forward I I I I #
face $-1 $62 $63 $15 $-1 $64 reversed single #
loop $-1 $-1 $65 $25 #
plane-surface $-1 0 0 -5.9240730525451433 0 0 1 1 0 0 forward_v I I I I #
coedge $-1 $66 $67 $68 $69 forward $26 $-1 #
face $-1 $70 $71 $16 $-1 $72 forward single #
loop $-1 $-1 $73 $28 #
plane-surface $-1 -58.74785383682071 0 -4.4240730525451433 1 0 0 0 0 -1 forward_v I I I I #
coedge $-1 $74 $75 $76 $77 reversed $29 $-1 #
face $-1 $78 $79 $17 $-1 $80 forward single #
loop $-1 $-1 $81 $31 #
plane-surface $-1 35.083955711983641 -120.69951780885071 54.340525986045023 1 0 0 0 0.86602541151947299 -0.49999998660252726 forward_v I I I I #
coedge $-1 $82 $83 $84 $85 reversed $32 $-1 #
face $-1 $86 $87 $18 $-1 $88 forward single #
loop $-1 $89 $90 $34 #
cone-surface $-1 40.328291460802632 -23.801038905711536 1.744616024440572 0 0.86602541151947299 -0.49999998660252726 0.5 0 0 1 I I -0.70710678118654746 0.70710678118654746 0.5 forward I I I I #
loop $-1 $-1 $91 $23 #
coedge $-1 $56 $56 $92 $93 reversed $35 $-1 #
face $-1 $94 $95 $19 $-1 $96 reversed single #
loop $-1 $97 $98 $37 #
cone-surface $-1 48.194795084031128 -23.801038905711536 1.744616024440572 0 0.86602541151947299 -0.49999998660252726 0.5 0 0 1 I I -0.70710678118654746 0.70710678118654746 0.5 forward I I I I #
loop $-1 $-1 $99 $24 #
coedge $-1 $61 $61 $100 $101 reversed $38 $-1 #
face $-1 $102 $103 $15 $-1 $104 reversed single #
loop $-1 $-1 $105 $40 #
plane-surface $-1 0 -28.140227267326757 0 0 1 0 0 0 1 forward_v I I I I #
coedge $-1 $106 $107 $108 $109 forward $41 $-1 #
coedge $-1 $110 $43 $111 $112 forward $26 $-1 #
coedge $-1 $43 $110 $113 $114 forward $26 $-1 #
coedge $-1 $115 $116 $43 $69 reversed $117 $-1 #
edge $-1 $118 -28.140227267326757 $119 28.140227267326757 $68 $120 forward 7 unknown #
face $-1 $121 $122 $16 $-1 $123 reversed single #
loop $-1 $-1 $124 $44 #
plane-surface $-1 0 0 5.9240730525451433 0 0 1 1 0 0 forward_v I I I I #
coedge $-1 $125 $126 $127 $128 forward $45 $-1 #
coedge $-1 $129 $47 $130 $131 forward $29 $-1 #
coedge $-1 $47 $129 $132 $133 forward $29 $-1 #
coedge $-1 $134 $135 $47 $77 forward $136 $-1 #
edge $-1 $137 -28.140227267326757 $138 28.140227267326757 $76 $139 forward 7 unknown #
face $-1 $140 $141 $17 $-1 $142 reversed single #
loop $-1 $-1 $143 $48 #
plane-surface $-1 0 0 5.9240730525451433 0 0 1 1 0 0 forward_v I I I I #
coedge $-1 $144 $145 $143 $146 reversed $49 $-1 #
coedge $-1 $147 $51 $145 $148 reversed $32 $-1 #
coedge $-1 $51 $147 $149 $150 reversed $32 $-1 #
coedge $-1 $151 $143 $51 $85 forward $79 $-1 #
edge $-1 $152 12.953184075775198 $153 31.308359196641689 $84 $154 forward 7 unknown #
face $-1 $155 $156 $18 $-1 $157 forward single #
loop $-1 $158 $92 $52 #
plane-surface $-1 44.261543272416887 -28.140227267326736 0.90139658509349374 0 -0.86602541151947299 0.49999998660252726 1 0 0 forward_v I I I I #
loop $-1 $-1 $159 $34 #
coedge $-1 $90 $90 $91 $160 forward $53 $-1 #
coedge $-1 $91 $91 $90 $160 reversed $55 $-1 #
coedge $-1 $92 $92 $56 $93 forward $87 $-1 #
edge $-1 $161 -5.8642364702369861e-016 $161 6.2831853071795996 $92 $162 forward 7 unknown #
face $-1 $163 $164 $19 $-1 $165 reversed single #
loop $-1 $166 $167 $57 #
cone-surface $-1 40.328291460802632 -25.462178562665496 2.7036754182805769 0 0.86602541151947299 -0.49999998660252726 1 0 0 1 I I 0 1 1 forward I I I I #
loop $-1 $-1 $168 $37 #
coedge $-1 $98 $98 $99 $169 forward $58 $-1 #
coedge $-1 $99 $99 $98 $169 reversed $60 $-1 #
coedge $-1 $100 $100 $61 $101 forward $170 $-1 #
edge $-1 $171 -5.8642364702369861e-016 $171 6.2831853071795996 $100 $172 forward 7 unknown #
face $-1 $173 $174 $15 $-1 $175 reversed single #
loop $-1 $-1 $176 $62 #
plane-surface $-1 -53.439130832850125 0 0 1 0 0 0 0 -1 forward_v I I I I #
coedge $-1 $177 $113 $178 $179 forward $63 $-1 #
coedge $-1 $180 $65 $177 $181 forward $41 $-1 #
coedge $-1 $65 $180 $182 $183 forward $41 $-1 #
coedge $-1 $116 $115 $65 $109 reversed $117 $-1 #
edge $-1 $184 -28.140227267326757 $185 28.140227267326757 $108 $186 forward 7 unknown #
coedge $-1 $67 $66 $187 $188 forward $26 $-1 #
coedge $-1 $189 $190 $66 $112 reversed $174 $-1 #
edge $-1 $119 -53.439130832850125 $191 53.439130832850125 $111 $192 forward 7 unknown #
coedge $-1 $105 $193 $67 $114 reversed $63 $-1 #
edge $-1 $194 -53.439130832850125 $118 53.439130832850125 $113 $195 forward 7 unknown #
coedge $-1 $108 $68 $193 $196 forward $117 $-1 #
coedge $-1 $68 $108 $189 $197 reversed $117 $-1 #
loop $-1 $-1 $115 $173 #
vertex $-1 $69 $198 #
vertex $-1 $69 $199 #
straight-curve $-1 53.439130832850125 0 5.9240730525451433 0 1 0 I I #
face $-1 $200 $201 $16 $-1 $202 reversed single #
loop $-1 $-1 $203 $70 #
plane-surface $-1 0 0 -5.9240730525451433 0 0 1 1 0 0 forward_v I I I I #
coedge $-1 $204 $205 $206 $207 forward $71 $-1 #
coedge $-1 $208 $73 $209 $210 reversed $45 $-1 #
coedge $-1 $73 $208 $129 $211 reversed $45 $-1 #
coedge $-1 $130 $212 $73 $128 reversed $213 $-1 #
edge $-1 $214 -1.5 $215 1.5 $127 $216 forward 7 unknown #
coedge $-1 $75 $74 $126 $211 forward $29 $-1 #
coedge $-1 $217 $127 $74 $131 reversed $213 $-1 #
edge $-1 $137 -2.6543615019852922 $214 2.6543615019852922 $130 $218 forward 7 unknown #
coedge $-1 $219 $220 $75 $133 reversed $201 $-1 #
edge $-1 $221 -2.6543615019852922 $138 2.6543615019852922 $132 $222 forward 7 unknown #
coedge $-1 $223 $76 $220 $224 reversed $136 $-1 #
coedge $-1 $76 $223 $217 $225 forward $136 $-1 #
loop $-1 $-1 $76 $200 #
vertex $-1 $225 $226 #
vertex $-1 $133 $227 #
straight-curve $-1 -53.439130832850125 0 -2.9240730525451433 0 -1 0 I I #
face $-1 $228 $229 $17 $-1 $230 forward single #
loop $-1 $-1 $149 $78 #
plane-surface $-1 53.439130832850125 0 0 -1 0 0 0 0 1 forward_v I I I I #
coedge $-1 $84 $231 $81 $146 forward $79 $-1 #
coedge $-1 $145 $81 $232 $233 reversed $49 $-1 #
coedge $-1 $81 $144 $82 $148 forward $49 $-1 #
edge $-1 $234 32.2095316370986 $152 35.109375144032697 $143 $235 forward 7 unknown #
coedge $-1 $83 $82 $236 $237 reversed $32 $-1 #
edge $-1 $238 -4.2675469765071053e-014 $152 5.7996871692704515 $145 $239 forward 7 unknown #
coedge $-1 $240 $241 $83 $150 forward $141 $-1 #
edge $-1 $153 0.84505328478335018 $242 6.6447404540538439 $149 $243 forward 7 unknown #
coedge $-1 $244 $84 $241 $245 forward $79 $-1 #
vertex $-1 $85 $246 #
vertex $-1 $245 $247 #
straight-curve $-1 22.130771636208443 -25.24038376039266 5.9240730525451433 1 0 0 I I #
face $-1 $248 $249 $18 $-1 $250 forward single #
loop $-1 $-1 $251 $86 #
plane-surface $-1 35.083955711983641 -120.69951780885071 54.340525986045023 1 0 0 0 0.86602541151947299 -0.49999998660252726 forward_v I I I I #
loop $-1 $-1 $252 $52 #
coedge $-1 $159 $159 $-1 $253 forward $89 $-1 #
edge $-1 $254 0 $254 6.2831853071796004 $90 $255 forward 7 unknown #
vertex $-1 $93 $256 #
ellipse-curve $-1 40.328291460802632 -26.690305513859705 3.4127348188193092 0 0.86602541151947299 -0.49999998660252726 1 0 0 1 I I #
face $-1 $257 $170 $19 $-1 $258 forward single #
loop $-1 $259 $260 $94 #
cone-surface $-1 40.328291460802632 -23.801038905711536 1.744616024440572 0 0.86602541151947299 -0.49999998660252726 0.5 0 0 1 I I -0.70710678118654746 0.70710678118654746 0.5 forward I I I I #
loop $-1 $-1 $261 $57 #
coedge $-1 $167 $167 $262 $263 reversed $95 $-1 #
coedge $-1 $168 $168 $-1 $264 forward $97 $-1 #
edge $-1 $265 0 $265 6.2831853071796004 $98 $266 forward 7 unknown #
loop $-1 $267 $100 $163 #
vertex $-1 $101 $268 #
ellipse-curve $-1 48.194795084031128 -26.690305513859705 3.4127348188193092 0 0.86602541151947299 -0.49999998660252726 1 0 0 1 I I #
face $-1 $-1 $117 $15 $-1 $269 reversed single #
loop $-1 $-1 $189 $102 #
plane-surface $-1 0 28.140227267326757 0 0 -1 0 0 0 -1 forward_v I I I I #
coedge $-1 $270 $187 $190 $271 forward $103 $-1 #
coedge $-1 $193 $105 $106 $181 reversed $63 $-1 #
coedge $-1 $187 $270 $105 $179 reversed $103 $-1 #
edge $-1 $194 -5.9240730525451433 $272 5.9240730525451433 $178 $273 forward 7 unknown #
coedge $-1 $107 $106 $270 $274 forward $41 $-1 #
edge $-1 $185 -53.439130832850125 $272 53.439130832850125 $177 $275 forward 7 unknown #
coedge $-1 $190 $189 $107 $183 reversed $174 $-1 #
edge $-1 $276 -53.439130832850125 $184 53.439130832850125 $182 $277 forward 7 unknown #
vertex $-1 $109 $278 #
vertex $-1 $196 $279 #
straight-curve $-1 53.439130832850125 0 -5.9240730525451433 0 -1 0 I I #
coedge $-1 $176 $178 $110 $188 reversed $103 $-1 #
edge $-1 $191 -28.140227267326757 $194 28.140227267326757 $187 $280 forward 7 unknown #
coedge $-1 $182 $111 $116 $197 forward $174 $-1 #
coedge $-1 $111 $182 $176 $271 reversed $174 $-1 #
vertex $-1 $112 $281 #
straight-curve $-1 0 28.140227267326757 5.9240730525451433 -1 0 0 I I #
coedge $-1 $113 $177 $115 $196 reversed $63 $-1 #
vertex $-1 $188 $282 #
straight-curve $-1 0 -28.140227267326757 5.9240730525451433 1 0 0 I I #
edge $-1 $118 -5.9240730525451433 $185 5.9240730525451433 $115 $283 forward 7 unknown #
edge $-1 $119 -5.9240730525451433 $184 5.9240730525451433 $116 $284 forward 7 unknown #
point $-1 53.439130832850125 -28.140227267326757 5.9240730525451433 #
point $-1 53.439130832850125 28.140227267326757 5.9240730525451433 #
face $-1 $285 $136 $16 $-1 $286 reversed single #
loop $-1 $-1 $220 $121 #
plane-surface $-1 0 -28.140227267326757 0 0 1 0 0 0 1 forward_v I I I I #
coedge $-1 $287 $288 $289 $290 forward $122 $-1 #
coedge $-1 $291 $124 $292 $293 forward $71 $-1 #
coedge $-1 $124 $291 $294 $295 forward $71 $-1 #
coedge $-1 $296 $297 $124 $207 reversed $298 $-1 #
edge $-1 $299 -28.140227267326757 $300 28.140227267326757 $206 $301 forward 7 unknown #
coedge $-1 $126 $125 $219 $302 reversed $45 $-1 #
coedge $-1 $288 $287 $125 $210 forward $122 $-1 #
edge $-1 $303 -28.140227267326757 $215 28.140227267326757 $125 $304 forward 7 unknown #
edge $-1 $214 -28.140227267326757 $221 28.140227267326757 $126 $305 forward 7 unknown #
coedge $-1 $127 $306 $288 $307 reversed $213 $-1 #
loop $-1 $-1 $306 $285 #
vertex $-1 $131 $308 #
vertex $-1 $307 $309 #
straight-curve $-1 -58.74785383682071 28.140227267326757 -4.4240730525451433 0 0 -1 I I #
coedge $-1 $292 $130 $135 $225 reversed $213 $-1 #
straight-curve $-1 -56.093492334835418 28.140227267326757 -2.9240730525451433 -1 0 0 I I #
coedge $-1 $310 $132 $208 $302 forward $201 $-1 #
coedge $-1 $132 $294 $134 $224 forward $201 $-1 #
vertex $-1 $211 $311 #
straight-curve $-1 -56.093492334835418 -28.140227267326757 -2.9240730525451433 1 0 0 I I #
coedge $-1 $135 $134 $291 $312 reversed $136 $-1 #
edge $-1 $313 -5.9240730525451433 $138 2.9240730525451433 $134 $314 forward 7 unknown #
edge $-1 $315 -5.9240730525451433 $137 2.9240730525451433 $217 $316 forward 7 unknown #
point $-1 -53.439130832850125 28.140227267326757 -2.9240730525451433 #
point $-1 -53.439130832850125 -28.140227267326757 -2.9240730525451433 #
face $-1 $317 $318 $17 $-1 $319 reversed single #
loop $-1 $-1 $320 $140 #
plane-surface $-1 -56.093492334835418 0 -2.9240730525451433 0 0 1 1 0 0 forward_v I I I I #
coedge $-1 $143 $321 $322 $323 forward $79 $-1 #
coedge $-1 $322 $236 $144 $233 forward $324 $-1 #
edge $-1 $238 -26.268866407929053 $234 -21.246189940477368 $232 $325 forward 7 unknown #
vertex $-1 $233 $326 #
straight-curve $-1 35.083955711983641 -60.349758904425357 5.9240730525451433 0 1 0 I I #
coedge $-1 $232 $327 $147 $237 forward $324 $-1 #
edge $-1 $242 -31.308359196641689 $238 -12.953184075775198 $236 $328 forward 7 unknown #
vertex $-1 $237 $329 #
straight-curve $-1 35.083955711983641 -28.140227267326736 0.90139658509349374 0 0.49999998660252726 0.86602541151947299 I I #
coedge $-1 $330 $149 $327 $331 forward $141 $-1 #
coedge $-1 $149 $332 $151 $245 reversed $141 $-1 #
vertex $-1 $331 $333 #
straight-curve $-1 53.439130832850125 -24.817857129322562 6.6559106712555254 0 -0.49999998660252726 -0.86602541151947299 I I #
coedge $-1 $321 $151 $334 $335 forward $79 $-1 #
edge $-1 $153 -25.24038376039266 $336 28.140227267326757 $241 $337 forward 7 unknown #
point $-1 35.083955711983641 -25.24038376039266 5.9240730525451433 #
point $-1 53.439130832850132 -25.24038376039266 5.9240730525451433 #
face $-1 $338 $339 $18 $-1 $340 reversed single #
loop $-1 $-1 $341 $155 #
plane-surface $-1 0 0 5.9240730525451433 0 0 1 1 0 0 forward_v I I I I #
coedge $-1 $342 $343 $341 $344 reversed $156 $-1 #
coedge $-1 $345 $346 $347 $348 reversed $158 $-1 #
edge $-1 $349 1 $349 0 $159 $-1 forward 7 unknown #
vertex $-1 $160 $350 #
ellipse-curve $-1 40.328291460802632 -24.234051611471273 1.9946160177418355 0 -0.86602541151947299 0.49999998660252726 1 0 0 1 I I #
point $-1 41.328291460802632 -26.69030551385972 3.4127348188193181 #
face $-1 $351 $352 $19 $-1 $353 forward single #
plane-surface $-1 44.261543272416887 -28.140227267326736 0.90139658509349374 0 -0.86602541151947299 0.49999998660252726 1 0 0 forward_v I I I I #
loop $-1 $-1 $354 $94 #
coedge $-1 $260 $260 $261 $355 forward $164 $-1 #
coedge $-1 $261 $261 $260 $355 reversed $166 $-1 #
coedge $-1 $262 $262 $167 $263 forward $267 $-1 #
edge $-1 $356 -5.8642364702369861e-016 $356 6.2831853071795996 $262 $357 forward 7 unknown #
edge $-1 $358 1 $358 0 $168 $-1 forward 7 unknown #
vertex $-1 $169 $359 #
ellipse-curve $-1 48.194795084031128 -24.234051611471273 1.9946160177418355 0 -0.86602541151947299 0.49999998660252726 1 0 0 1 I I #
loop $-1 $360 $262 $163 #
point $-1 49.194795084031128 -26.69030551385972 3.4127348188193181 #
plane-surface $-1 53.439130832850125 0 0 -1 0 0 0 0 1 forward_v I I I I #
coedge $-1 $178 $176 $180 $274 reversed $103 $-1 #
edge $-1 $191 -5.9240730525451433 $276 5.9240730525451433 $190 $361 forward 7 unknown #
vertex $-1 $274 $362 #
straight-curve $-1 -53.439130832850125 -28.140227267326757 0 0 0 -1 I I #
edge $-1 $272 -28.140227267326757 $276 28.140227267326757 $270 $363 forward 7 unknown #
straight-curve $-1 0 -28.140227267326757 -5.9240730525451433 -1 0 0 I I #
vertex $-1 $183 $364 #
straight-curve $-1 0 28.140227267326757 -5.9240730525451433 1 0 0 I I #
point $-1 53.439130832850125 28.140227267326757 -5.9240730525451433 #
point $-1 53.439130832850125 -28.140227267326757 -5.9240730525451433 #
straight-curve $-1 -53.439130832850125 0 5.9240730525451433 0 -1 0 I I #
point $-1 -53.439130832850125 28.140227267326757 5.9240730525451433 #
point $-1 -53.439130832850125 -28.140227267326757 5.9240730525451433 #
straight-curve $-1 53.439130832850125 -28.140227267326757 0 0 0 -1 I I #
straight-curve $-1 53.439130832850125 28.140227267326757 0 0 0 -1 I I #
face $-1 $365 $213 $16 $-1 $366 reversed single #
plane-surface $-1 -53.439130832850125 0 0 1 0 0 0 0 -1 forward_v I I I I #
coedge $-1 $209 $203 $310 $367 forward $122 $-1 #
coedge $-1 $203 $209 $212 $307 forward $122 $-1 #
coedge $-1 $297 $296 $203 $290 reversed $298 $-1 #
edge $-1 $368 -28.140227267326757 $369 28.140227267326757 $289 $370 forward 7 unknown #
coedge $-1 $205 $204 $223 $312 forward $71 $-1 #
coedge $-1 $306 $217 $204 $293 reversed $213 $-1 #
edge $-1 $300 -53.439130832850125 $315 53.439130832850125 $292 $371 forward 7 unknown #
coedge $-1 $220 $372 $205 $295 reversed $201 $-1 #
edge $-1 $313 -53.439130832850125 $299 53.439130832850125 $294 $373 forward 7 unknown #
coedge $-1 $289 $206 $372 $374 forward $298 $-1 #
coedge $-1 $206 $289 $306 $375 reversed $298 $-1 #
loop $-1 $-1 $296 $365 #
vertex $-1 $207 $376 #
vertex $-1 $207 $377 #
straight-curve $-1 53.439130832850125 0 5.9240730525451433 0 1 0 I I #
edge $-1 $221 -1.5 $303 1.5 $208 $378 forward 7 unknown #
vertex $-1 $210 $379 #
straight-curve $-1 -58.74785383682071 0 -5.9240730525451433 0 1 0 I I #
straight-curve $-1 -58.74785383682071 0 -2.9240730525451433 0 -1 0 I I #
coedge $-1 $212 $292 $297 $375 forward $213 $-1 #
edge $-1 $215 -58.74785383682071 $368 53.439130832850125 $212 $380 forward 7 unknown #
point $-1 -58.74785383682071 28.140227267326757 -2.9240730525451433 #
point $-1 -58.74785383682071 28.140227267326757 -5.9240730525451433 #
coedge $-1 $372 $219 $287 $367 reversed $201 $-1 #
point $-1 -58.74785383682071 -28.140227267326757 -2.9240730525451433 #
edge $-1 $315 -28.140227267326757 $313 28.140227267326757 $223 $381 forward 7 unknown #
vertex $-1 $312 $382 #
straight-curve $-1 -53.439130832850125 -28.140227267326757 0 0 0 -1 I I #
vertex $-1 $293 $383 #
straight-curve $-1 -53.439130832850125 28.140227267326757 0 0 0 -1 I I #
face $-1 $384 $385 $17 $-1 $386 reversed single #
loop $-1 $-1 $387 $228 #
plane-surface $-1 -58.74785383682071 0 -4.4240730525451433 1 0 0 0 0 -1 forward_v I I I I #
coedge $-1 $388 $389 $390 $391 reversed $229 $-1 #
coedge $-1 $231 $244 $392 $393 forward $79 $-1 #
coedge $-1 $394 $232 $231 $323 reversed $324 $-1 #
edge $-1 $395 -53.439130832850125 $234 35.083955711983641 $322 $396 forward 7 unknown #
loop $-1 $-1 $232 $384 #
straight-curve $-1 35.083955711983641 -28.140227267326757 27.170262993022511 0 0 1 I I #
point $-1 35.083955711983641 -28.140227267326757 5.9240730525451433 #
coedge $-1 $236 $397 $240 $331 reversed $324 $-1 #
straight-curve $-1 22.130771636208443 -28.140227267326757 0.90139658509345888 -1 0 0 I I #
point $-1 35.083955711983641 -28.140227267326757 0.90139658509345677 #
coedge $-1 $332 $240 $398 $399 reversed $141 $-1 #
edge $-1 $242 -0.90139658509345677 $400 5.9240730525451433 $240 $401 forward 7 unknown #
coedge $-1 $241 $330 $402 $403 reversed $141 $-1 #
point $-1 53.439130832850132 -28.140227267326757 0.90139658509345677 #
coedge $-1 $402 $404 $244 $335 reversed $405 $-1 #
edge $-1 $336 -53.439130832850125 $406 53.439130832850125 $334 $407 forward 7 unknown #
vertex $-1 $245 $408 #
straight-curve $-1 53.439130832850125 0 5.9240730525451433 0 1 0 I I #
face $-1 $409 $410 $18 $-1 $411 forward single #
loop $-1 $-1 $412 $248 #
plane-surface $-1 53.439130832850125 0 0 -1 0 0 0 0 1 forward_v I I I I #
coedge $-1 $347 $413 $251 $344 forward $249 $-1 #
coedge $-1 $343 $251 $414 $415 reversed $156 $-1 #
coedge $-1 $251 $342 $345 $416 forward $156 $-1 #
edge $-1 $417 32.2095316370986 $418 35.109375144032697 $341 $419 forward 7 unknown #
coedge $-1 $420 $252 $343 $416 reversed $158 $-1 #
coedge $-1 $252 $420 $412 $421 reversed $158 $-1 #
coedge $-1 $422 $341 $252 $348 forward $249 $-1 #
edge $-1 $418 12.953184075775198 $423 31.308359196641689 $347 $424 forward 7 unknown #
vertex $-1 $253 $425 #
point $-1 41.328291460802632 -24.234051611471273 1.9946160177418355 #
face $-1 $426 $427 $19 $-1 $428 forward single #
loop $-1 $-1 $429 $257 #
plane-surface $-1 35.083955711983641 -120.69951780885071 54.340525986045023 1 0 0 0 0.86602541151947299 -0.49999998660252726 forward_v I I I I #
coedge $-1 $354 $354 $-1 $430 forward $259 $-1 #
edge $-1 $431 0 $431 6.2831853071796004 $260 $432 forward 7 unknown #
vertex $-1 $263 $433 #
ellipse-curve $-1 40.328291460802632 -26.690305513859705 3.4127348188193092 0 0.86602541151947299 -0.49999998660252726 1 0 0 1 I I #
vertex $-1 $264 $434 #
point $-1 49.194795084031128 -24.234051611471273 1.9946160177418355 #
loop $-1 $-1 $435 $163 #
straight-curve $-1 -53.439130832850125 28.140227267326757 0 0 0 -1 I I #
point $-1 -53.439130832850125 -28.140227267326757 -5.9240730525451433 #
straight-curve $-1 -53.439130832850125 0 -5.9240730525451433 0 1 0 I I #
point $-1 -53.439130832850125 28.140227267326757 -5.9240730525451433 #
face $-1 $-1 $298 $16 $-1 $436 reversed single #
plane-surface $-1 0 28.140227267326757 0 0 -1 0 0 0 -1 forward_v I I I I #
edge $-1 $369 -109.53262316768554 $303 2.6543615019852922 $310 $437 forward 7 unknown #
vertex $-1 $290 $438 #
vertex $-1 $374 $439 #
straight-curve $-1 53.439130832850125 0 -5.9240730525451433 0 -1 0 I I #
straight-curve $-1 0 28.140227267326757 5.9240730525451433 -1 0 0 I I #
coedge $-1 $294 $310 $296 $374 reversed $201 $-1 #
straight-curve $-1 0 -28.140227267326757 5.9240730525451433 1 0 0 I I #
edge $-1 $299 -5.9240730525451433 $369 5.9240730525451433 $296 $440 forward 7 unknown #
edge $-1 $300 -5.9240730525451433 $368 5.9240730525451433 $297 $441 forward 7 unknown #
point $-1 53.439130832850125 -28.140227267326757 5.9240730525451433 #
point $-1 53.439130832850125 28.140227267326757 5.9240730525451433 #
straight-curve $-1 -58.74785383682071 -28.140227267326757 -4.4240730525451433 0 0 -1 I I #
point $-1 -58.74785383682071 -28.140227267326757 -5.9240730525451433 #
straight-curve $-1 0 28.140227267326757 -5.9240730525451433 1 0 0 I I #
straight-curve $-1 -53.439130832850125 0 5.9240730525451433 0 -1 0 I I #
point $-1 -53.439130832850125 -28.140227267326757 5.9240730525451433 #
point $-1 -53.439130832850125 28.140227267326757 5.9240730525451433 #
face $-1 $442 $324 $17 $-1 $443 reversed single #
loop $-1 $-1 $398 $317 #
plane-surface $-1 0 0 -5.9240730525451433 0 0 1 1 0 0 forward_v I I I I #
coedge $-1 $444 $445 $446 $447 forward $318 $-1 #
coedge $-1 $448 $320 $449 $450 forward $229 $-1 #
coedge $-1 $320 $448 $451 $452 forward $229 $-1 #
coedge $-1 $453 $454 $320 $391 forward $455 $-1 #
edge $-1 $456 -28.140227267326757 $457 28.140227267326757 $390 $458 forward 7 unknown #
coedge $-1 $454 $453 $321 $393 reversed $455 $-1 #
edge $-1 $406 -28.140227267326757 $395 28.140227267326757 $392 $459 forward 7 unknown #
coedge $-1 $451 $322 $453 $460 forward $324 $-1 #
vertex $-1 $393 $461 #
straight-curve $-1 0 -28.140227267326757 5.9240730525451433 1 0 0 I I #
coedge $-1 $327 $462 $463 $464 reversed $324 $-1 #
coedge $-1 $463 $465 $330 $399 forward $385 $-1 #
edge $-1 $466 -28.140227267326757 $400 28.140227267326757 $330 $467 forward 7 unknown #
vertex $-1 $331 $468 #
straight-curve $-1 53.439130832850125 -28.140227267326757 0 0 0 -1 I I #
coedge $-1 $469 $334 $332 $403 forward $405 $-1 #
edge $-1 $336 -5.9240730525451433 $466 5.9240730525451433 $332 $470 forward 7 unknown #
coedge $-1 $334 $449 $454 $471 reversed $405 $-1 #
loop $-1 $-1 $402 $472 #
vertex $-1 $335 $473 #
straight-curve $-1 0 28.140227267326757 5.9240730525451433 -1 0 0 I I #
point $-1 53.439130832850125 28.140227267326757 5.9240730525451433 #
face $-1 $474 $475 $18 $-1 $476 reversed single #
loop $-1 $-1 $477 $338 #
plane-surface $-1 -56.093492334835418 0 -2.9240730525451433 0 0 1 1 0 0 forward_v I I I I #
coedge $-1 $478 $479 $346 $421 forward $339 $-1 #
coedge $-1 $341 $480 $481 $482 forward $249 $-1 #
coedge $-1 $481 $483 $342 $415 forward $484 $-1 #
edge $-1 $485 -26.268866407929053 $417 -21.246189940477368 $414 $486 forward 7 unknown #
edge $-1 $485 -4.2675469765071053e-014 $418 5.7996871692704515 $343 $487 forward 7 unknown #
vertex $-1 $415 $488 #
vertex $-1 $348 $489 #
straight-curve $-1 35.083955711983641 -60.349758904425357 5.9240730525451433 0 1 0 I I #
coedge $-1 $346 $345 $483 $490 reversed $158 $-1 #
edge $-1 $423 0.84505328478335018 $491 6.6447404540538439 $412 $492 forward 7 unknown #
coedge $-1 $493 $347 $479 $494 forward $249 $-1 #
vertex $-1 $494 $495 #
straight-curve $-1 22.130771636208443 -25.24038376039266 5.9240730525451433 1 0 0 I I #
point $-1 40.328291460802632 -23.3680261999518 1.4946160311393084 #
face $-1 $496 $497 $19 $-1 $498 reversed single #
loop $-1 $-1 $499 $351 #
plane-surface $-1 0 0 5.9240730525451433 0 0 1 1 0 0 forward_v I I I I #
coedge $-1 $500 $501 $499 $502 reversed $352 $-1 #
edge $-1 $503 1 $503 0 $354 $-1 forward 7 unknown #
vertex $-1 $355 $504 #
ellipse-curve $-1 40.328291460802632 -24.234051611471273 1.9946160177418355 0 -0.86602541151947299 0.49999998660252726 1 0 0 1 I I #
point $-1 41.328291460802632 -26.69030551385972 3.4127348188193181 #
point $-1 48.194795084031128 -23.3680261999518 1.4946160311393084 #
coedge $-1 $505 $506 $507 $508 reversed $360 $-1 #
plane-surface $-1 53.439130832850125 0 0 -1 0 0 0 0 1 forward_v I I I I #
straight-curve $-1 -56.093492334835418 -28.140227267326757 -5.9240730525451433 -1 0 0 I I #
point $-1 53.439130832850125 28.140227267326757 -5.9240730525451433 #
point $-1 53.439130832850125 -28.140227267326757 -5.9240730525451433 #
straight-curve $-1 53.439130832850125 -28.140227267326757 0 0 0 -1 I I #
straight-curve $-1 53.439130832850125 28.140227267326757 0 0 0 -1 I I #
face $-1 $472 $455 $17 $-1 $509 reversed single #
plane-surface $-1 0 -28.140227267326757 0 0 1 0 0 0 1 forward_v I I I I #
coedge $-1 $510 $387 $511 $512 reversed $318 $-1 #
coedge $-1 $387 $510 $448 $513 reversed $318 $-1 #
coedge $-1 $449 $469 $387 $447 reversed $405 $-1 #
edge $-1 $514 -1.5 $515 1.5 $446 $516 forward 7 unknown #
coedge $-1 $389 $388 $445 $513 forward $229 $-1 #
coedge $-1 $404 $446 $388 $450 reversed $405 $-1 #
edge $-1 $456 -2.6543615019852922 $514 2.6543615019852922 $449 $517 forward 7 unknown #
coedge $-1 $462 $394 $389 $452 reversed $324 $-1 #
edge $-1 $518 -2.6543615019852922 $457 2.6543615019852922 $451 $519 forward 7 unknown #
coedge $-1 $392 $390 $394 $460 reversed $455 $-1 #
coedge $-1 $390 $392 $404 $471 forward $455 $-1 #
loop $-1 $-1 $390 $442 #
vertex $-1 $471 $520 #
vertex $-1 $452 $521 #
straight-curve $-1 -53.439130832850125 0 -2.9240730525451433 0 -1 0 I I #
straight-curve $-1 -53.439130832850125 0 5.9240730525451433 0 -1 0 I I #
edge $-1 $395 -5.9240730525451433 $457 2.9240730525451433 $453 $522 forward 7 unknown #
point $-1 -53.439130832850125 -28.140227267326757 5.9240730525451433 #
coedge $-1 $397 $451 $510 $523 forward $324 $-1 #
coedge $-1 $511 $398 $397 $464 forward $385 $-1 #
edge $-1 $400 -109.53262316768554 $524 2.6543615019852922 $397 $525 forward 7 unknown #
coedge $-1 $398 $511 $469 $526 forward $385 $-1 #
vertex $-1 $399 $527 #
straight-curve $-1 53.439130832850125 0 -5.9240730525451433 0 -1 0 I I #
point $-1 53.439130832850125 -28.140227267326757 -5.9240730525451433 #
coedge $-1 $446 $402 $465 $526 reversed $405 $-1 #
straight-curve $-1 53.439130832850125 28.140227267326757 0 0 0 -1 I I #
edge $-1 $406 -5.9240730525451433 $456 2.9240730525451433 $404 $528 forward 7 unknown #
face $-1 $-1 $405 $17 $-1 $529 reversed single #
point $-1 -53.439130832850125 28.140227267326757 5.9240730525451433 #
face $-1 $530 $531 $18 $-1 $532 reversed single #
loop $-1 $-1 $533 $409 #
plane-surface $-1 -58.74785383682071 0 -4.4240730525451433 1 0 0 0 0 -1 forward_v I I I I #
coedge $-1 $534 $535 $536 $537 reversed $410 $-1 #
coedge $-1 $538 $412 $539 $540 forward $339 $-1 #
coedge $-1 $412 $541 $422 $494 reversed $339 $-1 #
coedge $-1 $413 $493 $542 $543 forward $249 $-1 #
coedge $-1 $544 $414 $413 $482 reversed $484 $-1 #
edge $-1 $545 -53.439130832850125 $417 35.083955711983641 $481 $546 forward 7 unknown #
coedge $-1 $414 $539 $420 $490 forward $484 $-1 #
loop $-1 $-1 $414 $530 #
vertex $-1 $490 $547 #
straight-curve $-1 35.083955711983641 -28.140227267326757 27.170262993022511 0 0 1 I I #
straight-curve $-1 35.083955711983641 -28.140227267326736 0.90139658509349374 0 0.49999998660252726 0.86602541151947299 I I #
point $-1 35.083955711983641 -28.140227267326757 5.9240730525451433 #
point $-1 35.083955711983641 -25.24038376039266 5.9240730525451433 #
edge $-1 $491 -31.308359196641689 $485 -12.953184075775198 $483 $548 forward 7 unknown #
vertex $-1 $540 $549 #
straight-curve $-1 53.439130832850125 -24.817857129322562 6.6559106712555254 0 -0.49999998660252726 -0.86602541151947299 I I #
coedge $-1 $480 $422 $550 $551 forward $249 $-1 #
edge $-1 $423 -25.24038376039266 $552 28.140227267326757 $479 $553 forward 7 unknown #
point $-1 53.439130832850132 -25.24038376039266 5.9240730525451433 #
face $-1 $554 $555 $19 $-1 $556 forward single #
loop $-1 $-1 $557 $426 #
plane-surface $-1 53.439130832850125 0 0 -1 0 0 0 0 1 forward_v I I I I #
coedge $-1 $507 $558 $429 $502 forward $427 $-1 #
coedge $-1 $501 $429 $559 $560 reversed $352 $-1 #
coedge $-1 $429 $500 $505 $561 forward $352 $-1 #
edge $-1 $562 32.2095316370986 $563 35.109375144032697 $499 $564 forward 7 unknown #
vertex $-1 $430 $565 #
point $-1 41.328291460802632 -24.234051611471273 1.9946160177418355 #
coedge $-1 $566 $435 $501 $561 reversed $360 $-1 #
coedge $-1 $435 $566 $557 $567 reversed $360 $-1 #
coedge $-1 $568 $499 $435 $508 forward $427 $-1 #
edge $-1 $563 12.953184075775198 $569 31.308359196641689 $507 $570 forward 7 unknown #
plane-surface $-1 -53.439130832850125 0 0 1 0 0 0 0 -1 forward_v I I I I #
coedge $-1 $445 $444 $462 $523 reversed $318 $-1 #
coedge $-1 $465 $463 $444 $512 forward $385 $-1 #
edge $-1 $524 -28.140227267326757 $515 28.140227267326757 $444 $571 forward 7 unknown #
edge $-1 $514 -28.140227267326757 $518 28.140227267326757 $445 $572 forward 7 unknown #
vertex $-1 $450 $573 #
vertex $-1 $526 $574 #
straight-curve $-1 -58.74785383682071 28.140227267326757 -4.4240730525451433 0 0 -1 I I #
straight-curve $-1 -56.093492334835418 28.140227267326757 -2.9240730525451433 -1 0 0 I I #
vertex $-1 $513 $575 #
straight-curve $-1 -56.093492334835418 -28.140227267326757 -2.9240730525451433 1 0 0 I I #
point $-1 -53.439130832850125 28.140227267326757 -2.9240730525451433 #
point $-1 -53.439130832850125 -28.140227267326757 -2.9240730525451433 #
straight-curve $-1 -53.439130832850125 -28.140227267326757 0 0 0 -1 I I #
edge $-1 $518 -1.5 $524 1.5 $510 $576 forward 7 unknown #
vertex $-1 $512 $577 #
straight-curve $-1 -56.093492334835418 -28.140227267326757 -5.9240730525451433 -1 0 0 I I #
edge $-1 $515 -58.74785383682071 $466 53.439130832850125 $469 $578 forward 7 unknown #
point $-1 53.439130832850125 28.140227267326757 -5.9240730525451433 #
straight-curve $-1 -53.439130832850125 28.140227267326757 0 0 0 -1 I I #
plane-surface $-1 0 28.140227267326757 0 0 -1 0 0 0 -1 forward_v I I I I #
face $-1 $579 $484 $18 $-1 $580 reversed single #
loop $-1 $-1 $581 $474 #
plane-surface $-1 0 0 -5.9240730525451433 0 0 1 1 0 0 forward_v I I I I #
coedge $-1 $582 $583 $584 $585 forward $475 $-1 #
coedge $-1 $586 $477 $587 $588 forward $410 $-1 #
coedge $-1 $477 $586 $589 $590 forward $410 $-1 #
coedge $-1 $591 $592 $477 $537 forward $593 $-1 #
edge $-1 $594 -28.140227267326757 $595 28.140227267326757 $536 $596 forward 7 unknown #
coedge $-1 $541 $478 $581 $597 reversed $339 $-1 #
coedge $-1 $483 $598 $478 $540 reversed $484 $-1 #
edge $-1 $491 -0.90139658509345677 $599 5.9240730525451433 $478 $600 forward 7 unknown #
coedge $-1 $479 $538 $601 $602 reversed $339 $-1 #
coedge $-1 $592 $591 $480 $543 reversed $593 $-1 #
edge $-1 $603 -28.140227267326757 $545 28.140227267326757 $542 $604 forward 7 unknown #
coedge $-1 $589 $481 $591 $605 forward $484 $-1 #
vertex $-1 $543 $606 #
straight-curve $-1 0 -28.140227267326757 5.9240730525451433 1 0 0 I I #
point $-1 35.083955711983641 -28.140227267326757 0.90139658509345677 #
straight-curve $-1 22.130771636208443 -28.140227267326757 0.90139658509345888 -1 0 0 I I #
point $-1 53.439130832850132 -28.140227267326757 0.90139658509345677 #
coedge $-1 $601 $607 $493 $551 reversed $608 $-1 #
edge $-1 $552 -53.439130832850125 $603 53.439130832850125 $550 $609 forward 7 unknown #
vertex $-1 $494 $610 #
straight-curve $-1 53.439130832850125 0 5.9240730525451433 0 1 0 I I #
face $-1 $611 $612 $19 $-1 $613 reversed single #
loop $-1 $-1 $614 $496 #
plane-surface $-1 -56.093492334835418 0 -2.9240730525451433 0 0 1 1 0 0 forward_v I I I I #
coedge $-1 $615 $616 $506 $567 forward $497 $-1 #
coedge $-1 $499 $617 $618 $619 forward $427 $-1 #
coedge $-1 $618 $620 $500 $560 forward $621 $-1 #
edge $-1 $622 -26.268866407929053 $562 -21.246189940477368 $559 $623 forward 7 unknown #
edge $-1 $622 -4.2675469765071053e-014 $563 5.7996871692704515 $501 $624 forward 7 unknown #
vertex $-1 $560 $625 #
vertex $-1 $508 $626 #
straight-curve $-1 35.083955711983641 -60.349758904425357 5.9240730525451433 0 1 0 I I #
point $-1 40.328291460802632 -23.3680261999518 1.4946160311393084 #
coedge $-1 $506 $505 $620 $627 reversed $360 $-1 #
edge $-1 $569 0.84505328478335018 $628 6.6447404540538439 $557 $629 forward 7 unknown #
coedge $-1 $630 $507 $616 $631 forward $427 $-1 #
vertex $-1 $631 $632 #
straight-curve $-1 22.130771636208443 -25.24038376039266 5.9240730525451433 1 0 0 I I #
straight-curve $-1 -58.74785383682071 0 -5.9240730525451433 0 1 0 I I #
straight-curve $-1 -58.74785383682071 0 -2.9240730525451433 0 -1 0 I I #
point $-1 -58.74785383682071 28.140227267326757 -2.9240730525451433 #
point $-1 -58.74785383682071 28.140227267326757 -5.9240730525451433 #
point $-1 -58.74785383682071 -28.140227267326757 -2.9240730525451433 #
straight-curve $-1 -58.74785383682071 -28.140227267326757 -4.4240730525451433 0 0 -1 I I #
point $-1 -58.74785383682071 -28.140227267326757 -5.9240730525451433 #
straight-curve $-1 0 28.140227267326757 -5.9240730525451433 1 0 0 I I #
face $-1 $633 $593 $18 $-1 $634 reversed single #
plane-surface $-1 0 -28.140227267326757 0 0 1 0 0 0 1 forward_v I I I I #
coedge $-1 $635 $636 $538 $597 forward $531 $-1 #
coedge $-1 $637 $533 $638 $639 reversed $475 $-1 #
coedge $-1 $533 $637 $586 $640 reversed $475 $-1 #
coedge $-1 $587 $641 $533 $585 reversed $608 $-1 #
edge $-1 $642 -1.5 $643 1.5 $584 $644 forward 7 unknown #
coedge $-1 $535 $534 $583 $640 forward $410 $-1 #
coedge $-1 $607 $584 $534 $588 reversed $608 $-1 #
edge $-1 $594 -2.6543615019852922 $642 2.6543615019852922 $587 $645 forward 7 unknown #
coedge $-1 $646 $544 $535 $590 reversed $484 $-1 #
edge $-1 $647 -2.6543615019852922 $595 2.6543615019852922 $589 $648 forward 7 unknown #
coedge $-1 $542 $536 $544 $605 reversed $593 $-1 #
coedge $-1 $536 $542 $607 $649 forward $593 $-1 #
loop $-1 $-1 $536 $579 #
vertex $-1 $649 $650 #
vertex $-1 $590 $651 #
straight-curve $-1 -53.439130832850125 0 -2.9240730525451433 0 -1 0 I I #
edge $-1 $652 -28.140227267326757 $599 28.140227267326757 $538 $653 forward 7 unknown #
coedge $-1 $539 $646 $635 $654 reversed $484 $-1 #
vertex $-1 $540 $655 #
straight-curve $-1 53.439130832850125 -28.140227267326757 0 0 0 -1 I I #
coedge $-1 $641 $550 $541 $602 forward $608 $-1 #
edge $-1 $552 -5.9240730525451433 $652 5.9240730525451433 $541 $656 forward 7 unknown #
vertex $-1 $551 $657 #
straight-curve $-1 -53.439130832850125 0 5.9240730525451433 0 -1 0 I I #
edge $-1 $545 -5.9240730525451433 $595 2.9240730525451433 $591 $658 forward 7 unknown #
point $-1 -53.439130832850125 -28.140227267326757 5.9240730525451433 #
coedge $-1 $550 $587 $592 $649 reversed $608 $-1 #
loop $-1 $-1 $601 $633 #
straight-curve $-1 0 28.140227267326757 5.9240730525451433 -1 0 0 I I #
point $-1 53.439130832850125 28.140227267326757 5.9240730525451433 #
face $-1 $659 $660 $19 $-1 $661 reversed single #
loop $-1 $-1 $662 $554 #
plane-surface $-1 -58.74785383682071 0 -4.4240730525451433 1 0 0 0 0 -1 forward_v I I I I #
coedge $-1 $663 $664 $665 $666 reversed $555 $-1 #
coedge $-1 $667 $557 $668 $669 forward $497 $-1 #
coedge $-1 $557 $670 $568 $631 reversed $497 $-1 #
coedge $-1 $558 $630 $671 $672 forward $427 $-1 #
coedge $-1 $673 $559 $558 $619 reversed $621 $-1 #
edge $-1 $674 -53.439130832850125 $562 35.083955711983641 $618 $675 forward 7 unknown #
coedge $-1 $559 $668 $566 $627 forward $621 $-1 #
loop $-1 $-1 $559 $659 #
vertex $-1 $627 $676 #
straight-curve $-1 35.083955711983641 -28.140227267326757 27.170262993022511 0 0 1 I I #
straight-curve $-1 35.083955711983641 -28.140227267326736 0.90139658509349374 0 0.49999998660252726 0.86602541151947299 I I #
point $-1 35.083955711983641 -28.140227267326757 5.9240730525451433 #
point $-1 35.083955711983641 -25.24038376039266 5.9240730525451433 #
edge $-1 $628 -31.308359196641689 $622 -12.953184075775198 $620 $677 forward 7 unknown #
vertex $-1 $669 $678 #
straight-curve $-1 53.439130832850125 -24.817857129322562 6.6559106712555254 0 -0.49999998660252726 -0.86602541151947299 I I #
coedge $-1 $617 $568 $679 $680 forward $427 $-1 #
edge $-1 $569 -25.24038376039266 $681 28.140227267326757 $616 $682 forward 7 unknown #
point $-1 53.439130832850132 -25.24038376039266 5.9240730525451433 #
face $-1 $-1 $608 $18 $-1 $683 reversed single #
plane-surface $-1 -53.439130832850125 0 0 1 0 0 0 0 -1 forward_v I I I I #
coedge $-1 $638 $581 $598 $654 forward $531 $-1 #
coedge $-1 $581 $638 $641 $684 forward $531 $-1 #
coedge $-1 $583 $582 $646 $685 reversed $475 $-1 #
coedge $-1 $636 $635 $582 $639 forward $531 $-1 #
edge $-1 $686 -28.140227267326757 $643 28.140227267326757 $582 $687 forward 7 unknown #
edge $-1 $642 -28.140227267326757 $647 28.140227267326757 $583 $688 forward 7 unknown #
coedge $-1 $584 $601 $636 $684 reversed $608 $-1 #
vertex $-1 $588 $689 #
vertex $-1 $684 $690 #
straight-curve $-1 -58.74785383682071 28.140227267326757 -4.4240730525451433 0 0 -1 I I #
straight-curve $-1 -56.093492334835418 28.140227267326757 -2.9240730525451433 -1 0 0 I I #
coedge $-1 $598 $589 $637 $685 forward $484 $-1 #
vertex $-1 $640 $691 #
straight-curve $-1 -56.093492334835418 -28.140227267326757 -2.9240730525451433 1 0 0 I I #
edge $-1 $603 -5.9240730525451433 $594 2.9240730525451433 $607 $692 forward 7 unknown #
point $-1 -53.439130832850125 28.140227267326757 -2.9240730525451433 #
point $-1 -53.439130832850125 -28.140227267326757 -2.9240730525451433 #
vertex $-1 $597 $693 #
straight-curve $-1 53.439130832850125 0 -5.9240730525451433 0 -1 0 I I #
edge $-1 $599 -109.53262316768554 $686 2.6543615019852922 $598 $694 forward 7 unknown #
point $-1 53.439130832850125 -28.140227267326757 -5.9240730525451433 #
straight-curve $-1 53.439130832850125 28.140227267326757 0 0 0 -1 I I #
point $-1 -53.439130832850125 28.140227267326757 5.9240730525451433 #
straight-curve $-1 -53.439130832850125 -28.140227267326757 0 0 0 -1 I I #
face $-1 $695 $621 $19 $-1 $696 reversed single #
loop $-1 $-1 $697 $611 #
plane-surface $-1 0 0 -5.9240730525451433 0 0 1 1 0 0 forward_v I I I I #
coedge $-1 $698 $699 $700 $701 forward $612 $-1 #
coedge $-1 $702 $614 $703 $704 forward $555 $-1 #
coedge $-1 $614 $702 $705 $706 forward $555 $-1 #
coedge $-1 $707 $708 $614 $666 forward $709 $-1 #
edge $-1 $710 -28.140227267326757 $711 28.140227267326757 $665 $712 forward 7 unknown #
coedge $-1 $670 $615 $697 $713 reversed $497 $-1 #
coedge $-1 $620 $714 $615 $669 reversed $621 $-1 #
edge $-1 $628 -0.90139658509345677 $715 5.9240730525451433 $615 $716 forward 7 unknown #
coedge $-1 $616 $667 $717 $718 reversed $497 $-1 #
coedge $-1 $708 $707 $617 $672 reversed $709 $-1 #
edge $-1 $719 -28.140227267326757 $674 28.140227267326757 $671 $720 forward 7 unknown #
coedge $-1 $705 $618 $707 $721 forward $621 $-1 #
vertex $-1 $672 $722 #
straight-curve $-1 0 -28.140227267326757 5.9240730525451433 1 0 0 I I #
point $-1 35.083955711983641 -28.140227267326757 0.90139658509345677 #
straight-curve $-1 22.130771636208443 -28.140227267326757 0.90139658509345888 -1 0 0 I I #
point $-1 53.439130832850132 -28.140227267326757 0.90139658509345677 #
coedge $-1 $717 $723 $630 $680 reversed $724 $-1 #
edge $-1 $681 -53.439130832850125 $719 53.439130832850125 $679 $725 forward 7 unknown #
vertex $-1 $631 $726 #
straight-curve $-1 53.439130832850125 0 5.9240730525451433 0 1 0 I I #
plane-surface $-1 0 28.140227267326757 0 0 -1 0 0 0 -1 forward_v I I I I #
edge $-1 $643 -58.74785383682071 $652 53.439130832850125 $641 $727 forward 7 unknown #
edge $-1 $647 -1.5 $686 1.5 $637 $728 forward 7 unknown #
vertex $-1 $639 $729 #
straight-curve $-1 -58.74785383682071 0 -5.9240730525451433 0 1 0 I I #
straight-curve $-1 -58.74785383682071 0 -2.9240730525451433 0 -1 0 I I #
point $-1 -58.74785383682071 28.140227267326757 -2.9240730525451433 #
point $-1 -58.74785383682071 28.140227267326757 -5.9240730525451433 #
point $-1 -58.74785383682071 -28.140227267326757 -2.9240730525451433 #
straight-curve $-1 -53.439130832850125 28.140227267326757 0 0 0 -1 I I #
point $-1 53.439130832850125 28.140227267326757 -5.9240730525451433 #
straight-curve $-1 -56.093492334835418 -28.140227267326757 -5.9240730525451433 -1 0 0 I I #
face $-1 $730 $709 $19 $-1 $731 reversed single #
plane-surface $-1 0 -28.140227267326757 0 0 1 0 0 0 1 forward_v I I I I #
coedge $-1 $732 $733 $667 $713 forward $660 $-1 #
coedge $-1 $734 $662 $735 $736 reversed $612 $-1 #
coedge $-1 $662 $734 $702 $737 reversed $612 $-1 #
coedge $-1 $703 $738 $662 $701 reversed $724 $-1 #
edge $-1 $739 -1.5 $740 1.5 $700 $741 forward 7 unknown #
coedge $-1 $664 $663 $699 $737 forward $555 $-1 #
coedge $-1 $723 $700 $663 $704 reversed $724 $-1 #
edge $-1 $710 -2.6543615019852922 $739 2.6543615019852922 $703 $742 forward 7 unknown #
coedge $-1 $743 $673 $664 $706 reversed $621 $-1 #
edge $-1 $744 -2.6543615019852922 $711 2.6543615019852922 $705 $745 forward 7 unknown #
coedge $-1 $671 $665 $673 $721 reversed $709 $-1 #
coedge $-1 $665 $671 $723 $746 forward $709 $-1 #
loop $-1 $-1 $665 $695 #
vertex $-1 $746 $747 #
vertex $-1 $706 $748 #
straight-curve $-1 -53.439130832850125 0 -2.9240730525451433 0 -1 0 I I #
edge $-1 $749 -28.140227267326757 $715 28.140227267326757 $667 $750 forward 7 unknown #
coedge $-1 $668 $743 $732 $751 reversed $621 $-1 #
vertex $-1 $669 $752 #
straight-curve $-1 53.439130832850125 -28.140227267326757 0 0 0 -1 I I #
coedge $-1 $738 $679 $670 $718 forward $724 $-1 #
edge $-1 $681 -5.9240730525451433 $749 5.9240730525451433 $670 $753 forward 7 unknown #
vertex $-1 $680 $754 #
straight-curve $-1 -53.439130832850125 0 5.9240730525451433 0 -1 0 I I #
edge $-1 $674 -5.9240730525451433 $711 2.9240730525451433 $707 $755 forward 7 unknown #
point $-1 -53.439130832850125 -28.140227267326757 5.9240730525451433 #
coedge $-1 $679 $703 $708 $746 reversed $724 $-1 #
loop $-1 $-1 $717 $730 #
straight-curve $-1 0 28.140227267326757 5.9240730525451433 -1 0 0 I I #
point $-1 53.439130832850125 28.140227267326757 5.9240730525451433 #
straight-curve $-1 0 28.140227267326757 -5.9240730525451433 1 0 0 I I #
straight-curve $-1 -58.74785383682071 -28.140227267326757 -4.4240730525451433 0 0 -1 I I #
point $-1 -58.74785383682071 -28.140227267326757 -5.9240730525451433 #
face $-1 $-1 $724 $19 $-1 $756 reversed single #
plane-surface $-1 -53.439130832850125 0 0 1 0 0 0 0 -1 forward_v I I I I #
coedge $-1 $735 $697 $714 $751 forward $660 $-1 #
coedge $-1 $697 $735 $738 $757 forward $660 $-1 #
coedge $-1 $699 $698 $743 $758 reversed $612 $-1 #
coedge $-1 $733 $732 $698 $736 forward $660 $-1 #
edge $-1 $759 -28.140227267326757 $740 28.140227267326757 $698 $760 forward 7 unknown #
edge $-1 $739 -28.140227267326757 $744 28.140227267326757 $699 $761 forward 7 unknown #
coedge $-1 $700 $717 $733 $757 reversed $724 $-1 #
vertex $-1 $704 $762 #
vertex $-1 $757 $763 #
straight-curve $-1 -58.74785383682071 28.140227267326757 -4.4240730525451433 0 0 -1 I I #
straight-curve $-1 -56.093492334835418 28.140227267326757 -2.9240730525451433 -1 0 0 I I #
coedge $-1 $714 $705 $734 $758 forward $621 $-1 #
vertex $-1 $737 $764 #
straight-curve $-1 -56.093492334835418 -28.140227267326757 -2.9240730525451433 1 0 0 I I #
edge $-1 $719 -5.9240730525451433 $710 2.9240730525451433 $723 $765 forward 7 unknown #
point $-1 -53.439130832850125 28.140227267326757 -2.9240730525451433 #
point $-1 -53.439130832850125 -28.140227267326757 -2.9240730525451433 #
vertex $-1 $713 $766 #
straight-curve $-1 53.439130832850125 0 -5.9240730525451433 0 -1 0 I I #
edge $-1 $715 -109.53262316768554 $759 2.6543615019852922 $714 $767 forward 7 unknown #
point $-1 53.439130832850125 -28.140227267326757 -5.9240730525451433 #
straight-curve $-1 53.439130832850125 28.140227267326757 0 0 0 -1 I I #
point $-1 -53.439130832850125 28.140227267326757 5.9240730525451433 #
straight-curve $-1 -53.439130832850125 -28.140227267326757 0 0 0 -1 I I #
plane-surface $-1 0 28.140227267326757 0 0 -1 0 0 0 -1 forward_v I I I I #
edge $-1 $740 -58.74785383682071 $749 53.439130832850125 $738 $768 forward 7 unknown #
edge $-1 $744 -1.5 $759 1.5 $734 $769 forward 7 unknown #
vertex $-1 $736 $770 #
straight-curve $-1 -58.74785383682071 0 -5.9240730525451433 0 1 0 I I #
straight-curve $-1 -58.74785383682071 0 -2.9240730525451433 0 -1 0 I I #
point $-1 -58.74785383682071 28.140227267326757 -2.9240730525451433 #
point $-1 -58.74785383682071 28.140227267326757 -5.9240730525451433 #
point $-1 -58.74785383682071 -28.140227267326757 -2.9240730525451433 #
straight-curve $-1 -53.439130832850125 28.140227267326757 0 0 0 -1 I I #
point $-1 53.439130832850125 28.140227267326757 -5.9240730525451433 #
straight-curve $-1 -56.093492334835418 -28.140227267326757 -5.9240730525451433 -1 0 0 I I #
straight-curve $-1 0 28.140227267326757 -5.9240730525451433 1 0 0 I I #
straight-curve $-1 -58.74785383682071 -28.140227267326757 -4.4240730525451433 0 0 -1 I I #
point $-1 -58.74785383682071 -28.140227267326757 -5.9240730525451433 #
End-of-ACIS-data 