500 0 18 0           
7 Unknown 11 ACIS 5.0 NT 24 Thu Mar 25 23:03:04 1999 
-1 9.9999999999999995e-007 1e-010 
body $-1 $18 $-1 $19 #
body $-1 $20 $-1 $21 #
body $-1 $22 $-1 $23 #
body $-1 $24 $-1 $25 #
body $-1 $26 $-1 $27 #
body $-1 $28 $-1 $29 #
body $-1 $30 $-1 $31 #
body $-1 $32 $-1 $33 #
body $-1 $34 $-1 $35 #
body $-1 $36 $-1 $37 #
body $-1 $38 $-1 $39 #
body $-1 $40 $-1 $41 #
body $-1 $42 $-1 $43 #
body $-1 $44 $-1 $45 #
body $-1 $46 $-1 $47 #
body $-1 $48 $-1 $49 #
body $-1 $50 $-1 $51 #
body $-1 $52 $-1 $53 #
lump $-1 $-1 $54 $0 #
transform $-1 1 0 0 0 1 0 0 0 1 49.444868312631613 25.975343307595388 11.710823438656123 1 rotate no_reflect no_shear #
lump $-1 $-1 $55 $1 #
transform $-1 1 0 0 0 1 0 0 0 1 6.9206581262788127 25.975343307595388 20.242643102554741 1 rotate no_reflect no_shear #
lump $-1 $-1 $56 $2 #
transform $-1 1 0 0 0 0.61566146476048833 -0.78801076186113728 0 0.78801076186113728 0.61566146476048833 19.180170040671506 97.892827496690217 118.65946911562921 1 rotate no_reflect no_shear #
lump $-1 $-1 $57 $3 #
transform $-1 1 0 0 0 -0.61566146476048833 0.78801076186113728 0 -0.78801076186113728 -0.61566146476048833 15.976857767803178 47.924576171990587 18.993861714872573 1 rotate no_reflect no_shear #
lump $-1 $-1 $58 $4 #
transform $-1 1 0 0 0 -0.61566146476048833 0.78801076186113728 0 -0.78801076186113728 -0.61566146476048833 19.180170040671506 47.924576171990587 18.993861714872573 1 rotate no_reflect no_shear #
lump $-1 $-1 $59 $5 #
transform $-1 1 0 0 0 -0.61566146476048833 0.78801076186113728 0 -0.78801076186113728 -0.61566146476048833 22.383482313539833 47.924576171990587 18.993861714872573 1 rotate no_reflect no_shear #
lump $-1 $-1 $60 $6 #
transform $-1 1 0 0 0 0.61566146476048833 -0.78801076186113728 0 0.78801076186113728 0.61566146476048833 61.704380227024309 97.892827496690217 118.65946911562921 1 rotate no_reflect no_shear #
lump $-1 $-1 $61 $7 #
transform $-1 1 0 0 0 -0.61566146476048833 0.78801076186113728 0 -0.78801076186113728 -0.61566146476048833 58.501067954155985 47.924576171990587 18.993861714872573 1 rotate no_reflect no_shear #
lump $-1 $-1 $62 $8 #
transform $-1 1 0 0 0 -0.61566146476048833 0.78801076186113728 0 -0.78801076186113728 -0.61566146476048833 61.704380227024309 47.924576171990587 18.993861714872573 1 rotate no_reflect no_shear #
lump $-1 $-1 $63 $9 #
transform $-1 1 0 0 0 -0.61566146476048833 0.78801076186113728 0 -0.78801076186113728 -0.61566146476048833 64.907692499892633 47.924576171990587 18.993861714872573 1 rotate no_reflect no_shear #
lump $-1 $-1 $64 $10 #
transform $-1 1 0 0 0 0.61566146476048833 0.78801076186113728 0 -0.78801076186113728 0.61566146476048833 19.180170040671506 -77.926176698320901 77.721768976783537 1 rotate no_reflect no_shear #
lump $-1 $-1 $65 $11 #
transform $-1 1 0 0 0 -0.61566146476048833 -0.78801076186113728 0 0.78801076186113728 -0.61566146476048833 15.976857767803178 4.0261104432001922 18.993861714872573 1 rotate no_reflect no_shear #
lump $-1 $-1 $66 $12 #
transform $-1 1 0 0 0 -0.61566146476048833 -0.78801076186113728 0 0.78801076186113728 -0.61566146476048833 19.180170040671506 4.0261104432001922 18.993861714872573 1 rotate no_reflect no_shear #
lump $-1 $-1 $67 $13 #
transform $-1 1 0 0 0 -0.61566146476048833 -0.78801076186113728 0 0.78801076186113728 -0.61566146476048833 22.383482313539833 4.0261104432001922 18.993861714872573 1 rotate no_reflect no_shear #
lump $-1 $-1 $68 $14 #
transform $-1 1 0 0 0 0.61566146476048833 0.78801076186113728 0 -0.78801076186113728 0.61566146476048833 61.704380227024309 -77.926176698320901 77.721768976783537 1 rotate no_reflect no_shear #
lump $-1 $-1 $69 $15 #
transform $-1 1 0 0 0 -0.61566146476048833 -0.78801076186113728 0 0.78801076186113728 -0.61566146476048833 58.501067954155985 4.0261104432001922 18.993861714872573 1 rotate no_reflect no_shear #
lump $-1 $-1 $70 $16 #
transform $-1 1 0 0 0 -0.61566146476048833 -0.78801076186113728 0 0.78801076186113728 -0.61566146476048833 61.704380227024309 4.0261104432001922 18.993861714872573 1 rotate no_reflect no_shear #
lump $-1 $-1 $71 $17 #
transform $-1 1 0 0 0 -0.61566146476048833 -0.78801076186113728 0 0.78801076186113728 -0.61566146476048833 64.907692499892633 4.0261104432001922 18.993861714872573 1 rotate no_reflect no_shear #
shell $-1 $-1 $-1 $72 $-1 $18 #
shell $-1 $-1 $-1 $73 $-1 $20 #
shell $-1 $-1 $-1 $74 $-1 $22 #
shell $-1 $-1 $-1 $75 $-1 $24 #
shell $-1 $-1 $-1 $76 $-1 $26 #
shell $-1 $-1 $-1 $77 $-1 $28 #
shell $-1 $-1 $-1 $78 $-1 $30 #
shell $-1 $-1 $-1 $79 $-1 $32 #
shell $-1 $-1 $-1 $80 $-1 $34 #
shell $-1 $-1 $-1 $81 $-1 $36 #
shell $-1 $-1 $-1 $82 $-1 $38 #
shell $-1 $-1 $-1 $83 $-1 $40 #
shell $-1 $-1 $-1 $84 $-1 $42 #
shell $-1 $-1 $-1 $85 $-1 $44 #
shell $-1 $-1 $-1 $86 $-1 $46 #
shell $-1 $-1 $-1 $87 $-1 $48 #
shell $-1 $-1 $-1 $88 $-1 $50 #
shell $-1 $-1 $-1 $89 $-1 $52 #
face $-1 $90 $91 $54 $-1 $92 forward single #
face $-1 $93 $94 $55 $-1 $95 forward single #
face $-1 $96 $97 $56 $-1 $98 forward single #
face $-1 $99 $100 $57 $-1 $101 forward single #
face $-1 $102 $103 $58 $-1 $104 forward single #
face $-1 $105 $106 $59 $-1 $107 forward single #
face $-1 $108 $109 $60 $-1 $110 forward single #
face $-1 $111 $112 $61 $-1 $113 forward single #
face $-1 $114 $115 $62 $-1 $116 forward single #
face $-1 $117 $118 $63 $-1 $119 forward single #
face $-1 $120 $121 $64 $-1 $122 forward single #
face $-1 $123 $124 $65 $-1 $125 forward single #
face $-1 $126 $127 $66 $-1 $128 forward single #
face $-1 $129 $130 $67 $-1 $131 forward single #
face $-1 $132 $133 $68 $-1 $134 forward single #
face $-1 $135 $136 $69 $-1 $137 forward single #
face $-1 $138 $139 $70 $-1 $140 forward single #
face $-1 $141 $142 $71 $-1 $143 forward single #
face $-1 $144 $145 $54 $-1 $146 reversed single #
loop $-1 $-1 $147 $72 #
plane-surface $-1 0 0 11.710823438656123 0 0 1 1 0 0 forward_v I I I I #
face $-1 $148 $149 $55 $-1 $150 reversed single #
loop $-1 $-1 $151 $73 #
plane-surface $-1 0 0 1.5 0 0 1 1 0 0 forward_v I I I I #
face $-1 $152 $153 $56 $-1 $154 reversed single #
loop $-1 $-1 $155 $74 #
plane-surface $-1 0 0 98.889736625263225 0 0 1 1 0 0 forward_v I I I I #
face $-1 $156 $157 $57 $-1 $158 forward single #
loop $-1 $159 $160 $75 #
cone-surface $-1 0 0 -1.0480285042878492 0 0 1 0.5 0 0 1 I I 0 1 0.5 forward I I I I #
face $-1 $161 $162 $58 $-1 $163 forward single #
loop $-1 $164 $165 $76 #
cone-surface $-1 0 0 -1.0480285042878492 0 0 1 0.5 0 0 1 I I 0 1 0.5 forward I I I I #
face $-1 $166 $167 $59 $-1 $168 forward single #
loop $-1 $169 $170 $77 #
cone-surface $-1 0 0 -1.0480285042878492 0 0 1 0.5 0 0 1 I I 0 1 0.5 forward I I I I #
face $-1 $171 $172 $60 $-1 $173 reversed single #
loop $-1 $-1 $174 $78 #
plane-surface $-1 0 0 98.889736625263225 0 0 1 1 0 0 forward_v I I I I #
face $-1 $175 $176 $61 $-1 $177 forward single #
loop $-1 $178 $179 $79 #
cone-surface $-1 0 0 -1.0480285042878492 0 0 1 0.5 0 0 1 I I 0 1 0.5 forward I I I I #
face $-1 $180 $181 $62 $-1 $182 forward single #
loop $-1 $183 $184 $80 #
cone-surface $-1 0 0 -1.0480285042878492 0 0 1 0.5 0 0 1 I I 0 1 0.5 forward I I I I #
face $-1 $185 $186 $63 $-1 $187 forward single #
loop $-1 $188 $189 $81 #
cone-surface $-1 0 0 -1.0480285042878492 0 0 1 0.5 0 0 1 I I 0 1 0.5 forward I I I I #
face $-1 $190 $191 $64 $-1 $192 reversed single #
loop $-1 $-1 $193 $82 #
plane-surface $-1 0 0 98.889736625263225 0 0 1 1 0 0 forward_v I I I I #
face $-1 $194 $195 $65 $-1 $196 forward single #
loop $-1 $197 $198 $83 #
cone-surface $-1 0 0 -1.0480285042878492 0 0 1 0.5 0 0 1 I I 0 1 0.5 forward I I I I #
face $-1 $199 $200 $66 $-1 $201 forward single #
loop $-1 $202 $203 $84 #
cone-surface $-1 0 0 -1.0480285042878492 0 0 1 0.5 0 0 1 I I 0 1 0.5 forward I I I I #
face $-1 $204 $205 $67 $-1 $206 forward single #
loop $-1 $207 $208 $85 #
cone-surface $-1 0 0 -1.0480285042878492 0 0 1 0.5 0 0 1 I I 0 1 0.5 forward I I I I #
face $-1 $209 $210 $68 $-1 $211 reversed single #
loop $-1 $-1 $212 $86 #
plane-surface $-1 0 0 98.889736625263225 0 0 1 1 0 0 forward_v I I I I #
face $-1 $213 $214 $69 $-1 $215 forward single #
loop $-1 $216 $217 $87 #
cone-surface $-1 0 0 -1.0480285042878492 0 0 1 0.5 0 0 1 I I 0 1 0.5 forward I I I I #
face $-1 $218 $219 $70 $-1 $220 forward single #
loop $-1 $221 $222 $88 #
cone-surface $-1 0 0 -1.0480285042878492 0 0 1 0.5 0 0 1 I I 0 1 0.5 forward I I I I #
face $-1 $223 $224 $71 $-1 $225 forward single #
loop $-1 $226 $227 $89 #
cone-surface $-1 0 0 -1.0480285042878492 0 0 1 0.5 0 0 1 I I 0 1 0.5 forward I I I I #
face $-1 $228 $229 $54 $-1 $230 reversed single #
loop $-1 $-1 $231 $90 #
plane-surface $-1 0 0 -11.710823438656123 0 0 1 1 0 0 forward_v I I I I #
coedge $-1 $232 $233 $234 $235 forward $91 $-1 #
face $-1 $236 $237 $55 $-1 $238 reversed single #
loop $-1 $-1 $239 $93 #
plane-surface $-1 0 0 -1.5 0 0 1 1 0 0 forward_v I I I I #
coedge $-1 $240 $241 $242 $243 forward $94 $-1 #
face $-1 $244 $245 $56 $-1 $246 reversed single #
loop $-1 $-1 $247 $96 #
plane-surface $-1 0 0 -98.889736625263225 0 0 1 1 0 0 forward_v I I I I #
coedge $-1 $248 $249 $250 $251 forward $97 $-1 #
face $-1 $-1 $252 $57 $-1 $253 forward single #
loop $-1 $-1 $254 $99 #
plane-surface $-1 0 0 -1.8460570085757002 0 0 -1 -1 0 0 forward_v I I I I #
loop $-1 $-1 $255 $75 #
coedge $-1 $160 $160 $254 $256 reversed $100 $-1 #
face $-1 $-1 $257 $58 $-1 $258 forward single #
loop $-1 $-1 $259 $102 #
plane-surface $-1 0 0 -1.8460570085757002 0 0 -1 -1 0 0 forward_v I I I I #
loop $-1 $-1 $260 $76 #
coedge $-1 $165 $165 $259 $261 reversed $103 $-1 #
face $-1 $-1 $262 $59 $-1 $263 forward single #
loop $-1 $-1 $264 $105 #
plane-surface $-1 0 0 -1.8460570085757002 0 0 -1 -1 0 0 forward_v I I I I #
loop $-1 $-1 $265 $77 #
coedge $-1 $170 $170 $264 $266 reversed $106 $-1 #
face $-1 $267 $268 $60 $-1 $269 reversed single #
loop $-1 $-1 $270 $108 #
plane-surface $-1 0 0 -98.889736625263225 0 0 1 1 0 0 forward_v I I I I #
coedge $-1 $271 $272 $273 $274 forward $109 $-1 #
face $-1 $-1 $275 $61 $-1 $276 forward single #
loop $-1 $-1 $277 $111 #
plane-surface $-1 0 0 -1.8460570085757002 0 0 -1 -1 0 0 forward_v I I I I #
loop $-1 $-1 $278 $79 #
coedge $-1 $179 $179 $277 $279 reversed $112 $-1 #
face $-1 $-1 $280 $62 $-1 $281 forward single #
loop $-1 $-1 $282 $114 #
plane-surface $-1 0 0 -1.8460570085757002 0 0 -1 -1 0 0 forward_v I I I I #
loop $-1 $-1 $283 $80 #
coedge $-1 $184 $184 $282 $284 reversed $115 $-1 #
face $-1 $-1 $285 $63 $-1 $286 forward single #
loop $-1 $-1 $287 $117 #
plane-surface $-1 0 0 -1.8460570085757002 0 0 -1 -1 0 0 forward_v I I I I #
loop $-1 $-1 $288 $81 #
coedge $-1 $189 $189 $287 $289 reversed $118 $-1 #
face $-1 $290 $291 $64 $-1 $292 reversed single #
loop $-1 $-1 $293 $120 #
plane-surface $-1 0 0 -98.889736625263225 0 0 1 1 0 0 forward_v I I I I #
coedge $-1 $294 $295 $296 $297 forward $121 $-1 #
face $-1 $-1 $298 $65 $-1 $299 forward single #
loop $-1 $-1 $300 $123 #
plane-surface $-1 0 0 -1.8460570085757002 0 0 -1 -1 0 0 forward_v I I I I #
loop $-1 $-1 $301 $83 #
coedge $-1 $198 $198 $300 $302 reversed $124 $-1 #
face $-1 $-1 $303 $66 $-1 $304 forward single #
loop $-1 $-1 $305 $126 #
plane-surface $-1 0 0 -1.8460570085757002 0 0 -1 -1 0 0 forward_v I I I I #
loop $-1 $-1 $306 $84 #
coedge $-1 $203 $203 $305 $307 reversed $127 $-1 #
face $-1 $-1 $308 $67 $-1 $309 forward single #
loop $-1 $-1 $310 $129 #
plane-surface $-1 0 0 -1.8460570085757002 0 0 -1 -1 0 0 forward_v I I I I #
loop $-1 $-1 $311 $85 #
coedge $-1 $208 $208 $310 $312 reversed $130 $-1 #
face $-1 $313 $314 $68 $-1 $315 reversed single #
loop $-1 $-1 $316 $132 #
plane-surface $-1 0 0 -98.889736625263225 0 0 1 1 0 0 forward_v I I I I #
coedge $-1 $317 $318 $319 $320 forward $133 $-1 #
face $-1 $-1 $321 $69 $-1 $322 forward single #
loop $-1 $-1 $323 $135 #
plane-surface $-1 0 0 -1.8460570085757002 0 0 -1 -1 0 0 forward_v I I I I #
loop $-1 $-1 $324 $87 #
coedge $-1 $217 $217 $323 $325 reversed $136 $-1 #
face $-1 $-1 $326 $70 $-1 $327 forward single #
loop $-1 $-1 $328 $138 #
plane-surface $-1 0 0 -1.8460570085757002 0 0 -1 -1 0 0 forward_v I I I I #
loop $-1 $-1 $329 $88 #
coedge $-1 $222 $222 $328 $330 reversed $139 $-1 #
face $-1 $-1 $331 $71 $-1 $332 forward single #
loop $-1 $-1 $333 $141 #
plane-surface $-1 0 0 -1.8460570085757002 0 0 -1 -1 0 0 forward_v I I I I #
loop $-1 $-1 $334 $89 #
coedge $-1 $227 $227 $333 $335 reversed $142 $-1 #
face $-1 $336 $337 $54 $-1 $338 reversed single #
loop $-1 $-1 $339 $144 #
plane-surface $-1 0 -25.975343307595388 0 0 1 0 0 0 1 forward_v I I I I #
coedge $-1 $340 $341 $342 $343 forward $145 $-1 #
coedge $-1 $344 $147 $345 $346 forward $91 $-1 #
coedge $-1 $147 $344 $347 $348 forward $91 $-1 #
coedge $-1 $349 $350 $147 $235 reversed $351 $-1 #
edge $-1 $352 -25.975343307595388 $353 25.975343307595388 $234 $354 forward 7 unknown #
face $-1 $355 $356 $55 $-1 $357 reversed single #
loop $-1 $-1 $358 $148 #
plane-surface $-1 0 -25.975343307595388 0 0 1 0 0 0 1 forward_v I I I I #
coedge $-1 $359 $360 $361 $362 forward $149 $-1 #
coedge $-1 $363 $151 $364 $365 forward $94 $-1 #
coedge $-1 $151 $363 $366 $367 forward $94 $-1 #
coedge $-1 $368 $369 $151 $243 reversed $370 $-1 #
edge $-1 $371 -25.975343307595388 $372 25.975343307595388 $242 $373 forward 7 unknown #
face $-1 $374 $375 $56 $-1 $376 reversed single #
loop $-1 $-1 $377 $152 #
plane-surface $-1 0 -197.77947325052645 0 0 1 0 0 0 1 forward_v I I I I #
coedge $-1 $378 $379 $380 $381 forward $153 $-1 #
coedge $-1 $382 $155 $383 $384 forward $97 $-1 #
coedge $-1 $155 $382 $385 $386 forward $97 $-1 #
coedge $-1 $387 $388 $155 $251 reversed $389 $-1 #
edge $-1 $390 -197.77947325052645 $391 197.77947325052645 $250 $392 forward 7 unknown #
loop $-1 $393 $394 $156 #
cone-surface $-1 0 0 0 0 0 1 0.25 0 0 1 I I -0.70710678118654746 0.70710678118654746 0.25 forward I I I I #
coedge $-1 $254 $254 $160 $256 forward $157 $-1 #
coedge $-1 $255 $255 $394 $395 forward $159 $-1 #
edge $-1 $396 0 $396 6.2831853071796004 $254 $397 forward 7 unknown #
loop $-1 $398 $399 $161 #
cone-surface $-1 0 0 0 0 0 1 0.25 0 0 1 I I -0.70710678118654746 0.70710678118654746 0.25 forward I I I I #
coedge $-1 $259 $259 $165 $261 forward $162 $-1 #
coedge $-1 $260 $260 $399 $400 forward $164 $-1 #
edge $-1 $401 0 $401 6.2831853071796004 $259 $402 forward 7 unknown #
loop $-1 $403 $404 $166 #
cone-surface $-1 0 0 0 0 0 1 0.25 0 0 1 I I -0.70710678118654746 0.70710678118654746 0.25 forward I I I I #
coedge $-1 $264 $264 $170 $266 forward $167 $-1 #
coedge $-1 $265 $265 $404 $405 forward $169 $-1 #
edge $-1 $406 0 $406 6.2831853071796004 $264 $407 forward 7 unknown #
face $-1 $408 $409 $60 $-1 $410 reversed single #
loop $-1 $-1 $411 $171 #
plane-surface $-1 0 -197.77947325052645 0 0 1 0 0 0 1 forward_v I I I I #
coedge $-1 $412 $413 $414 $415 forward $172 $-1 #
coedge $-1 $416 $174 $417 $418 forward $109 $-1 #
coedge $-1 $174 $416 $419 $420 forward $109 $-1 #
coedge $-1 $421 $422 $174 $274 reversed $423 $-1 #
edge $-1 $424 -197.77947325052645 $425 197.77947325052645 $273 $426 forward 7 unknown #
loop $-1 $427 $428 $175 #
cone-surface $-1 0 0 0 0 0 1 0.25 0 0 1 I I -0.70710678118654746 0.70710678118654746 0.25 forward I I I I #
coedge $-1 $277 $277 $179 $279 forward $176 $-1 #
coedge $-1 $278 $278 $428 $429 forward $178 $-1 #
edge $-1 $430 0 $430 6.2831853071796004 $277 $431 forward 7 unknown #
loop $-1 $432 $433 $180 #
cone-surface $-1 0 0 0 0 0 1 0.25 0 0 1 I I -0.70710678118654746 0.70710678118654746 0.25 forward I I I I #
coedge $-1 $282 $282 $184 $284 forward $181 $-1 #
coedge $-1 $283 $283 $433 $434 forward $183 $-1 #
edge $-1 $435 0 $435 6.2831853071796004 $282 $436 forward 7 unknown #
loop $-1 $437 $438 $185 #
cone-surface $-1 0 0 0 0 0 1 0.25 0 0 1 I I -0.70710678118654746 0.70710678118654746 0.25 forward I I I I #
coedge $-1 $287 $287 $189 $289 forward $186 $-1 #
coedge $-1 $288 $288 $438 $439 forward $188 $-1 #
edge $-1 $440 0 $440 6.2831853071796004 $287 $441 forward 7 unknown #
face $-1 $442 $443 $64 $-1 $444 reversed single #
loop $-1 $-1 $445 $190 #
plane-surface $-1 0 -197.77947325052645 0 0 1 0 0 0 1 forward_v I I I I #
coedge $-1 $446 $447 $448 $449 forward $191 $-1 #
coedge $-1 $450 $193 $451 $452 forward $121 $-1 #
coedge $-1 $193 $450 $453 $454 forward $121 $-1 #
coedge $-1 $455 $456 $193 $297 reversed $457 $-1 #
edge $-1 $458 -197.77947325052645 $459 197.77947325052645 $296 $460 forward 7 unknown #
loop $-1 $461 $462 $194 #
cone-surface $-1 0 0 0 0 0 1 0.25 0 0 1 I I -0.70710678118654746 0.70710678118654746 0.25 forward I I I I #
coedge $-1 $300 $300 $198 $302 forward $195 $-1 #
coedge $-1 $301 $301 $462 $463 forward $197 $-1 #
edge $-1 $464 0 $464 6.2831853071796004 $300 $465 forward 7 unknown #
loop $-1 $466 $467 $199 #
cone-surface $-1 0 0 0 0 0 1 0.25 0 0 1 I I -0.70710678118654746 0.70710678118654746 0.25 forward I I I I #
coedge $-1 $305 $305 $203 $307 forward $200 $-1 #
coedge $-1 $306 $306 $467 $468 forward $202 $-1 #
edge $-1 $469 0 $469 6.2831853071796004 $305 $470 forward 7 unknown #
loop $-1 $471 $472 $204 #
cone-surface $-1 0 0 0 0 0 1 0.25 0 0 1 I I -0.70710678118654746 0.70710678118654746 0.25 forward I I I I #
coedge $-1 $310 $310 $208 $312 forward $205 $-1 #
coedge $-1 $311 $311 $472 $473 forward $207 $-1 #
edge $-1 $474 0 $474 6.2831853071796004 $310 $475 forward 7 unknown #
face $-1 $476 $477 $68 $-1 $478 reversed single #
loop $-1 $-1 $479 $209 #
plane-surface $-1 0 -197.77947325052645 0 0 1 0 0 0 1 forward_v I I I I #
coedge $-1 $480 $481 $482 $483 forward $210 $-1 #
coedge $-1 $484 $212 $485 $486 forward $133 $-1 #
coedge $-1 $212 $484 $487 $488 forward $133 $-1 #
coedge $-1 $489 $490 $212 $320 reversed $491 $-1 #
edge $-1 $492 -197.77947325052645 $493 197.77947325052645 $319 $494 forward 7 unknown #
loop $-1 $495 $496 $213 #
cone-surface $-1 0 0 0 0 0 1 0.25 0 0 1 I I -0.70710678118654746 0.70710678118654746 0.25 forward I I I I #
coedge $-1 $323 $323 $217 $325 forward $214 $-1 #
coedge $-1 $324 $324 $496 $497 forward $216 $-1 #
edge $-1 $498 0 $498 6.2831853071796004 $323 $499 forward 7 unknown #
loop $-1 $500 $501 $218 #
cone-surface $-1 0 0 0 0 0 1 0.25 0 0 1 I I -0.70710678118654746 0.70710678118654746 0.25 forward I I I I #
coedge $-1 $328 $328 $222 $330 forward $219 $-1 #
coedge $-1 $329 $329 $501 $502 forward $221 $-1 #
edge $-1 $503 0 $503 6.2831853071796004 $328 $504 forward 7 unknown #
loop $-1 $505 $506 $223 #
cone-surface $-1 0 0 0 0 0 1 0.25 0 0 1 I I -0.70710678118654746 0.70710678118654746 0.25 forward I I I I #
coedge $-1 $333 $333 $227 $335 forward $224 $-1 #
coedge $-1 $334 $334 $506 $507 forward $226 $-1 #
edge $-1 $508 0 $508 6.2831853071796004 $333 $509 forward 7 unknown #
face $-1 $510 $511 $54 $-1 $512 reversed single #
loop $-1 $-1 $513 $228 #
plane-surface $-1 -49.444868312631613 0 0 1 0 0 0 0 -1 forward_v I I I I #
coedge $-1 $514 $347 $515 $516 forward $229 $-1 #
coedge $-1 $517 $231 $514 $518 forward $145 $-1 #
coedge $-1 $231 $517 $519 $520 forward $145 $-1 #
coedge $-1 $350 $349 $231 $343 reversed $351 $-1 #
edge $-1 $521 -25.975343307595388 $522 25.975343307595388 $342 $523 forward 7 unknown #
coedge $-1 $233 $232 $524 $525 forward $91 $-1 #
coedge $-1 $526 $527 $232 $346 reversed $511 $-1 #
edge $-1 $353 -49.444868312631613 $528 49.444868312631613 $345 $529 forward 7 unknown #
coedge $-1 $339 $530 $233 $348 reversed $229 $-1 #
edge $-1 $531 -49.444868312631613 $352 49.444868312631613 $347 $532 forward 7 unknown #
coedge $-1 $342 $234 $530 $533 forward $351 $-1 #
coedge $-1 $234 $342 $526 $534 reversed $351 $-1 #
loop $-1 $-1 $349 $510 #
vertex $-1 $235 $535 #
vertex $-1 $235 $536 #
straight-curve $-1 49.444868312631613 0 11.710823438656123 0 1 0 I I #
face $-1 $537 $538 $55 $-1 $539 reversed single #
loop $-1 $-1 $540 $236 #
plane-surface $-1 -6.9206581262788127 0 0 1 0 0 0 0 -1 forward_v I I I I #
coedge $-1 $541 $366 $542 $543 forward $237 $-1 #
coedge $-1 $544 $239 $541 $545 forward $149 $-1 #
coedge $-1 $239 $544 $546 $547 forward $149 $-1 #
coedge $-1 $369 $368 $239 $362 reversed $370 $-1 #
edge $-1 $548 -25.975343307595388 $549 25.975343307595388 $361 $550 forward 7 unknown #
coedge $-1 $241 $240 $551 $552 forward $94 $-1 #
coedge $-1 $553 $554 $240 $365 reversed $538 $-1 #
edge $-1 $372 -6.9206581262788127 $555 6.9206581262788127 $364 $556 forward 7 unknown #
coedge $-1 $358 $557 $241 $367 reversed $237 $-1 #
edge $-1 $558 -6.9206581262788127 $371 6.9206581262788127 $366 $559 forward 7 unknown #
coedge $-1 $361 $242 $557 $560 forward $370 $-1 #
coedge $-1 $242 $361 $553 $561 reversed $370 $-1 #
loop $-1 $-1 $368 $537 #
vertex $-1 $243 $562 #
vertex $-1 $243 $563 #
straight-curve $-1 6.9206581262788127 0 1.5 0 1 0 I I #
face $-1 $564 $565 $56 $-1 $566 reversed single #
loop $-1 $-1 $567 $244 #
plane-surface $-1 -5.3388537881138802 0 0 1 0 0 0 0 -1 forward_v I I I I #
coedge $-1 $568 $385 $569 $570 forward $245 $-1 #
coedge $-1 $571 $247 $568 $572 forward $153 $-1 #
coedge $-1 $247 $571 $573 $574 forward $153 $-1 #
coedge $-1 $388 $387 $247 $381 reversed $389 $-1 #
edge $-1 $575 -197.77947325052645 $576 197.77947325052645 $380 $577 forward 7 unknown #
coedge $-1 $249 $248 $578 $579 forward $97 $-1 #
coedge $-1 $580 $581 $248 $384 reversed $565 $-1 #
edge $-1 $391 -5.3388537881138802 $582 5.3388537881138802 $383 $583 forward 7 unknown #
coedge $-1 $377 $584 $249 $386 reversed $245 $-1 #
edge $-1 $585 -5.3388537881138802 $390 5.3388537881138802 $385 $586 forward 7 unknown #
coedge $-1 $380 $250 $584 $587 forward $389 $-1 #
coedge $-1 $250 $380 $580 $588 reversed $389 $-1 #
loop $-1 $-1 $387 $564 #
vertex $-1 $251 $589 #
vertex $-1 $251 $590 #
straight-curve $-1 5.3388537881138802 0 98.889736625263225 0 1 0 I I #
loop $-1 $-1 $591 $156 #
coedge $-1 $394 $394 $255 $395 reversed $252 $-1 #
edge $-1 $592 0 $592 6.2831853071796004 $394 $593 forward 7 unknown #
vertex $-1 $256 $594 #
ellipse-curve $-1 0 0 -1.8460570085757002 0 0 -1 0.5 0 0 1 I I #
loop $-1 $-1 $595 $161 #
coedge $-1 $399 $399 $260 $400 reversed $257 $-1 #
edge $-1 $596 0 $596 6.2831853071796004 $399 $597 forward 7 unknown #
vertex $-1 $261 $598 #
ellipse-curve $-1 0 0 -1.8460570085757002 0 0 -1 0.5 0 0 1 I I #
loop $-1 $-1 $599 $166 #
coedge $-1 $404 $404 $265 $405 reversed $262 $-1 #
edge $-1 $600 0 $600 6.2831853071796004 $404 $601 forward 7 unknown #
vertex $-1 $266 $602 #
ellipse-curve $-1 0 0 -1.8460570085757002 0 0 -1 0.5 0 0 1 I I #
face $-1 $603 $604 $60 $-1 $605 reversed single #
loop $-1 $-1 $606 $267 #
plane-surface $-1 -5.3388537881138802 0 0 1 0 0 0 0 -1 forward_v I I I I #
coedge $-1 $607 $419 $608 $609 forward $268 $-1 #
coedge $-1 $610 $270 $607 $611 forward $172 $-1 #
coedge $-1 $270 $610 $612 $613 forward $172 $-1 #
coedge $-1 $422 $421 $270 $415 reversed $423 $-1 #
edge $-1 $614 -197.77947325052645 $615 197.77947325052645 $414 $616 forward 7 unknown #
coedge $-1 $272 $271 $617 $618 forward $109 $-1 #
coedge $-1 $619 $620 $271 $418 reversed $604 $-1 #
edge $-1 $425 -5.3388537881138802 $621 5.3388537881138802 $417 $622 forward 7 unknown #
coedge $-1 $411 $623 $272 $420 reversed $268 $-1 #
edge $-1 $624 -5.3388537881138802 $424 5.3388537881138802 $419 $625 forward 7 unknown #
coedge $-1 $414 $273 $623 $626 forward $423 $-1 #
coedge $-1 $273 $414 $619 $627 reversed $423 $-1 #
loop $-1 $-1 $421 $603 #
vertex $-1 $274 $628 #
vertex $-1 $274 $629 #
straight-curve $-1 5.3388537881138802 0 98.889736625263225 0 1 0 I I #
loop $-1 $-1 $630 $175 #
coedge $-1 $428 $428 $278 $429 reversed $275 $-1 #
edge $-1 $631 0 $631 6.2831853071796004 $428 $632 forward 7 unknown #
vertex $-1 $279 $633 #
ellipse-curve $-1 0 0 -1.8460570085757002 0 0 -1 0.5 0 0 1 I I #
loop $-1 $-1 $634 $180 #
coedge $-1 $433 $433 $283 $434 reversed $280 $-1 #
edge $-1 $635 0 $635 6.2831853071796004 $433 $636 forward 7 unknown #
vertex $-1 $284 $637 #
ellipse-curve $-1 0 0 -1.8460570085757002 0 0 -1 0.5 0 0 1 I I #
loop $-1 $-1 $638 $185 #
coedge $-1 $438 $438 $288 $439 reversed $285 $-1 #
edge $-1 $639 0 $639 6.2831853071796004 $438 $640 forward 7 unknown #
vertex $-1 $289 $641 #
ellipse-curve $-1 0 0 -1.8460570085757002 0 0 -1 0.5 0 0 1 I I #
face $-1 $642 $643 $64 $-1 $644 reversed single #
loop $-1 $-1 $645 $290 #
plane-surface $-1 -5.3388537881138802 0 0 1 0 0 0 0 -1 forward_v I I I I #
coedge $-1 $646 $453 $647 $648 forward $291 $-1 #
coedge $-1 $649 $293 $646 $650 forward $191 $-1 #
coedge $-1 $293 $649 $651 $652 forward $191 $-1 #
coedge $-1 $456 $455 $293 $449 reversed $457 $-1 #
edge $-1 $653 -197.77947325052645 $654 197.77947325052645 $448 $655 forward 7 unknown #
coedge $-1 $295 $294 $656 $657 forward $121 $-1 #
coedge $-1 $658 $659 $294 $452 reversed $643 $-1 #
edge $-1 $459 -5.3388537881138802 $660 5.3388537881138802 $451 $661 forward 7 unknown #
coedge $-1 $445 $662 $295 $454 reversed $291 $-1 #
edge $-1 $663 -5.3388537881138802 $458 5.3388537881138802 $453 $664 forward 7 unknown #
coedge $-1 $448 $296 $662 $665 forward $457 $-1 #
coedge $-1 $296 $448 $658 $666 reversed $457 $-1 #
loop $-1 $-1 $455 $642 #
vertex $-1 $297 $667 #
vertex $-1 $297 $668 #
straight-curve $-1 5.3388537881138802 0 98.889736625263225 0 1 0 I I #
loop $-1 $-1 $669 $194 #
coedge $-1 $462 $462 $301 $463 reversed $298 $-1 #
edge $-1 $670 0 $670 6.2831853071796004 $462 $671 forward 7 unknown #
vertex $-1 $302 $672 #
ellipse-curve $-1 0 0 -1.8460570085757002 0 0 -1 0.5 0 0 1 I I #
loop $-1 $-1 $673 $199 #
coedge $-1 $467 $467 $306 $468 reversed $303 $-1 #
edge $-1 $674 0 $674 6.2831853071796004 $467 $675 forward 7 unknown #
vertex $-1 $307 $676 #
ellipse-curve $-1 0 0 -1.8460570085757002 0 0 -1 0.5 0 0 1 I I #
loop $-1 $-1 $677 $204 #
coedge $-1 $472 $472 $311 $473 reversed $308 $-1 #
edge $-1 $678 0 $678 6.2831853071796004 $472 $679 forward 7 unknown #
vertex $-1 $312 $680 #
ellipse-curve $-1 0 0 -1.8460570085757002 0 0 -1 0.5 0 0 1 I I #
face $-1 $681 $682 $68 $-1 $683 reversed single #
loop $-1 $-1 $684 $313 #
plane-surface $-1 -5.3388537881138802 0 0 1 0 0 0 0 -1 forward_v I I I I #
coedge $-1 $685 $487 $686 $687 forward $314 $-1 #
coedge $-1 $688 $316 $685 $689 forward $210 $-1 #
coedge $-1 $316 $688 $690 $691 forward $210 $-1 #
coedge $-1 $490 $489 $316 $483 reversed $491 $-1 #
edge $-1 $692 -197.77947325052645 $693 197.77947325052645 $482 $694 forward 7 unknown #
coedge $-1 $318 $317 $695 $696 forward $133 $-1 #
coedge $-1 $697 $698 $317 $486 reversed $682 $-1 #
edge $-1 $493 -5.3388537881138802 $699 5.3388537881138802 $485 $700 forward 7 unknown #
coedge $-1 $479 $701 $318 $488 reversed $314 $-1 #
edge $-1 $702 -5.3388537881138802 $492 5.3388537881138802 $487 $703 forward 7 unknown #
coedge $-1 $482 $319 $701 $704 forward $491 $-1 #
coedge $-1 $319 $482 $697 $705 reversed $491 $-1 #
loop $-1 $-1 $489 $681 #
vertex $-1 $320 $706 #
vertex $-1 $320 $707 #
straight-curve $-1 5.3388537881138802 0 98.889736625263225 0 1 0 I I #
loop $-1 $-1 $708 $213 #
coedge $-1 $496 $496 $324 $497 reversed $321 $-1 #
edge $-1 $709 0 $709 6.2831853071796004 $496 $710 forward 7 unknown #
vertex $-1 $325 $711 #
ellipse-curve $-1 0 0 -1.8460570085757002 0 0 -1 0.5 0 0 1 I I #
loop $-1 $-1 $712 $218 #
coedge $-1 $501 $501 $329 $502 reversed $326 $-1 #
edge $-1 $713 0 $713 6.2831853071796004 $501 $714 forward 7 unknown #
vertex $-1 $330 $715 #
ellipse-curve $-1 0 0 -1.8460570085757002 0 0 -1 0.5 0 0 1 I I #
loop $-1 $-1 $716 $223 #
coedge $-1 $506 $506 $334 $507 reversed $331 $-1 #
edge $-1 $717 0 $717 6.2831853071796004 $506 $718 forward 7 unknown #
vertex $-1 $335 $719 #
ellipse-curve $-1 0 0 -1.8460570085757002 0 0 -1 0.5 0 0 1 I I #
face $-1 $-1 $351 $54 $-1 $720 reversed single #
loop $-1 $-1 $526 $336 #
plane-surface $-1 0 25.975343307595388 0 0 -1 0 0 0 -1 forward_v I I I I #
coedge $-1 $721 $524 $527 $722 forward $337 $-1 #
coedge $-1 $530 $339 $340 $518 reversed $229 $-1 #
coedge $-1 $524 $721 $339 $516 reversed $337 $-1 #
edge $-1 $531 -11.710823438656123 $723 11.710823438656123 $515 $724 forward 7 unknown #
coedge $-1 $341 $340 $721 $725 forward $145 $-1 #
edge $-1 $522 -49.444868312631613 $723 49.444868312631613 $514 $726 forward 7 unknown #
coedge $-1 $527 $526 $341 $520 reversed $511 $-1 #
edge $-1 $727 -49.444868312631613 $521 49.444868312631613 $519 $728 forward 7 unknown #
vertex $-1 $343 $729 #
vertex $-1 $533 $730 #
straight-curve $-1 49.444868312631613 0 -11.710823438656123 0 -1 0 I I #
coedge $-1 $513 $515 $344 $525 reversed $337 $-1 #
edge $-1 $528 -25.975343307595388 $531 25.975343307595388 $524 $731 forward 7 unknown #
coedge $-1 $519 $345 $350 $534 forward $511 $-1 #
coedge $-1 $345 $519 $513 $722 reversed $511 $-1 #
vertex $-1 $346 $732 #
straight-curve $-1 0 25.975343307595388 11.710823438656123 -1 0 0 I I #
coedge $-1 $347 $514 $349 $533 reversed $229 $-1 #
vertex $-1 $525 $733 #
straight-curve $-1 0 -25.975343307595388 11.710823438656123 1 0 0 I I #
edge $-1 $352 -11.710823438656123 $522 11.710823438656123 $349 $734 forward 7 unknown #
edge $-1 $353 -11.710823438656123 $521 11.710823438656123 $350 $735 forward 7 unknown #
point $-1 49.444868312631613 -25.975343307595388 11.710823438656123 #
point $-1 49.444868312631613 25.975343307595388 11.710823438656123 #
face $-1 $-1 $370 $55 $-1 $736 reversed single #
loop $-1 $-1 $553 $355 #
plane-surface $-1 0 25.975343307595388 0 0 -1 0 0 0 -1 forward_v I I I I #
coedge $-1 $737 $551 $554 $738 forward $356 $-1 #
coedge $-1 $557 $358 $359 $545 reversed $237 $-1 #
coedge $-1 $551 $737 $358 $543 reversed $356 $-1 #
edge $-1 $558 -1.5 $739 1.5 $542 $740 forward 7 unknown #
coedge $-1 $360 $359 $737 $741 forward $149 $-1 #
edge $-1 $549 -6.9206581262788127 $739 6.9206581262788127 $541 $742 forward 7 unknown #
coedge $-1 $554 $553 $360 $547 reversed $538 $-1 #
edge $-1 $743 -6.9206581262788127 $548 6.9206581262788127 $546 $744 forward 7 unknown #
vertex $-1 $362 $745 #
vertex $-1 $560 $746 #
straight-curve $-1 6.9206581262788127 0 -1.5 0 -1 0 I I #
coedge $-1 $540 $542 $363 $552 reversed $356 $-1 #
edge $-1 $555 -25.975343307595388 $558 25.975343307595388 $551 $747 forward 7 unknown #
coedge $-1 $546 $364 $369 $561 forward $538 $-1 #
coedge $-1 $364 $546 $540 $738 reversed $538 $-1 #
vertex $-1 $365 $748 #
straight-curve $-1 0 25.975343307595388 1.5 -1 0 0 I I #
coedge $-1 $366 $541 $368 $560 reversed $237 $-1 #
vertex $-1 $552 $749 #
straight-curve $-1 0 -25.975343307595388 1.5 1 0 0 I I #
edge $-1 $371 -1.5 $549 1.5 $368 $750 forward 7 unknown #
edge $-1 $372 -1.5 $548 1.5 $369 $751 forward 7 unknown #
point $-1 6.9206581262788127 -25.975343307595388 1.5 #
point $-1 6.9206581262788127 25.975343307595388 1.5 #
face $-1 $-1 $389 $56 $-1 $752 reversed single #
loop $-1 $-1 $580 $374 #
plane-surface $-1 0 197.77947325052645 0 0 -1 0 0 0 -1 forward_v I I I I #
coedge $-1 $753 $578 $581 $754 forward $375 $-1 #
coedge $-1 $584 $377 $378 $572 reversed $245 $-1 #
coedge $-1 $578 $753 $377 $570 reversed $375 $-1 #
edge $-1 $585 -98.889736625263225 $755 98.889736625263225 $569 $756 forward 7 unknown #
coedge $-1 $379 $378 $753 $757 forward $153 $-1 #
edge $-1 $576 -5.3388537881138802 $755 5.3388537881138802 $568 $758 forward 7 unknown #
coedge $-1 $581 $580 $379 $574 reversed $565 $-1 #
edge $-1 $759 -5.3388537881138802 $575 5.3388537881138802 $573 $760 forward 7 unknown #
vertex $-1 $381 $761 #
vertex $-1 $587 $762 #
straight-curve $-1 5.3388537881138802 0 -98.889736625263225 0 -1 0 I I #
coedge $-1 $567 $569 $382 $579 reversed $375 $-1 #
edge $-1 $582 -197.77947325052645 $585 197.77947325052645 $578 $763 forward 7 unknown #
coedge $-1 $573 $383 $388 $588 forward $565 $-1 #
coedge $-1 $383 $573 $567 $754 reversed $565 $-1 #
vertex $-1 $384 $764 #
straight-curve $-1 0 197.77947325052645 98.889736625263225 -1 0 0 I I #
coedge $-1 $385 $568 $387 $587 reversed $245 $-1 #
vertex $-1 $579 $765 #
straight-curve $-1 0 -197.77947325052645 98.889736625263225 1 0 0 I I #
edge $-1 $390 -98.889736625263225 $576 98.889736625263225 $387 $766 forward 7 unknown #
edge $-1 $391 -98.889736625263225 $575 98.889736625263225 $388 $767 forward 7 unknown #
point $-1 5.3388537881138802 -197.77947325052645 98.889736625263225 #
point $-1 5.3388537881138802 197.77947325052645 98.889736625263225 #
coedge $-1 $591 $591 $-1 $768 reversed $393 $-1 #
vertex $-1 $395 $769 #
ellipse-curve $-1 0 0 -0.25 0 0 -1 0.5 0 0 1 I I #
point $-1 0.5 0 -1.8460570085757002 #
coedge $-1 $595 $595 $-1 $770 reversed $398 $-1 #
vertex $-1 $400 $771 #
ellipse-curve $-1 0 0 -0.25 0 0 -1 0.5 0 0 1 I I #
point $-1 0.5 0 -1.8460570085757002 #
coedge $-1 $599 $599 $-1 $772 reversed $403 $-1 #
vertex $-1 $405 $773 #
ellipse-curve $-1 0 0 -0.25 0 0 -1 0.5 0 0 1 I I #
point $-1 0.5 0 -1.8460570085757002 #
face $-1 $-1 $423 $60 $-1 $774 reversed single #
loop $-1 $-1 $619 $408 #
plane-surface $-1 0 197.77947325052645 0 0 -1 0 0 0 -1 forward_v I I I I #
coedge $-1 $775 $617 $620 $776 forward $409 $-1 #
coedge $-1 $623 $411 $412 $611 reversed $268 $-1 #
coedge $-1 $617 $775 $411 $609 reversed $409 $-1 #
edge $-1 $624 -98.889736625263225 $777 98.889736625263225 $608 $778 forward 7 unknown #
coedge $-1 $413 $412 $775 $779 forward $172 $-1 #
edge $-1 $615 -5.3388537881138802 $777 5.3388537881138802 $607 $780 forward 7 unknown #
coedge $-1 $620 $619 $413 $613 reversed $604 $-1 #
edge $-1 $781 -5.3388537881138802 $614 5.3388537881138802 $612 $782 forward 7 unknown #
vertex $-1 $415 $783 #
vertex $-1 $626 $784 #
straight-curve $-1 5.3388537881138802 0 -98.889736625263225 0 -1 0 I I #
coedge $-1 $606 $608 $416 $618 reversed $409 $-1 #
edge $-1 $621 -197.77947325052645 $624 197.77947325052645 $617 $785 forward 7 unknown #
coedge $-1 $612 $417 $422 $627 forward $604 $-1 #
coedge $-1 $417 $612 $606 $776 reversed $604 $-1 #
vertex $-1 $418 $786 #
straight-curve $-1 0 197.77947325052645 98.889736625263225 -1 0 0 I I #
coedge $-1 $419 $607 $421 $626 reversed $268 $-1 #
vertex $-1 $618 $787 #
straight-curve $-1 0 -197.77947325052645 98.889736625263225 1 0 0 I I #
edge $-1 $424 -98.889736625263225 $615 98.889736625263225 $421 $788 forward 7 unknown #
edge $-1 $425 -98.889736625263225 $614 98.889736625263225 $422 $789 forward 7 unknown #
point $-1 5.3388537881138802 -197.77947325052645 98.889736625263225 #
point $-1 5.3388537881138802 197.77947325052645 98.889736625263225 #
coedge $-1 $630 $630 $-1 $790 reversed $427 $-1 #
vertex $-1 $429 $791 #
ellipse-curve $-1 0 0 -0.25 0 0 -1 0.5 0 0 1 I I #
point $-1 0.5 0 -1.8460570085757002 #
coedge $-1 $634 $634 $-1 $792 reversed $432 $-1 #
vertex $-1 $434 $793 #
ellipse-curve $-1 0 0 -0.25 0 0 -1 0.5 0 0 1 I I #
point $-1 0.5 0 -1.8460570085757002 #
coedge $-1 $638 $638 $-1 $794 reversed $437 $-1 #
vertex $-1 $439 $795 #
ellipse-curve $-1 0 0 -0.25 0 0 -1 0.5 0 0 1 I I #
point $-1 0.5 0 -1.8460570085757002 #
face $-1 $-1 $457 $64 $-1 $796 reversed single #
loop $-1 $-1 $658 $442 #
plane-surface $-1 0 197.77947325052645 0 0 -1 0 0 0 -1 forward_v I I I I #
coedge $-1 $797 $656 $659 $798 forward $443 $-1 #
coedge $-1 $662 $445 $446 $650 reversed $291 $-1 #
coedge $-1 $656 $797 $445 $648 reversed $443 $-1 #
edge $-1 $663 -98.889736625263225 $799 98.889736625263225 $647 $800 forward 7 unknown #
coedge $-1 $447 $446 $797 $801 forward $191 $-1 #
edge $-1 $654 -5.3388537881138802 $799 5.3388537881138802 $646 $802 forward 7 unknown #
coedge $-1 $659 $658 $447 $652 reversed $643 $-1 #
edge $-1 $803 -5.3388537881138802 $653 5.3388537881138802 $651 $804 forward 7 unknown #
vertex $-1 $449 $805 #
vertex $-1 $665 $806 #
straight-curve $-1 5.3388537881138802 0 -98.889736625263225 0 -1 0 I I #
coedge $-1 $645 $647 $450 $657 reversed $443 $-1 #
edge $-1 $660 -197.77947325052645 $663 197.77947325052645 $656 $807 forward 7 unknown #
coedge $-1 $651 $451 $456 $666 forward $643 $-1 #
coedge $-1 $451 $651 $645 $798 reversed $643 $-1 #
vertex $-1 $452 $808 #
straight-curve $-1 0 197.77947325052645 98.889736625263225 -1 0 0 I I #
coedge $-1 $453 $646 $455 $665 reversed $291 $-1 #
vertex $-1 $657 $809 #
straight-curve $-1 0 -197.77947325052645 98.889736625263225 1 0 0 I I #
edge $-1 $458 -98.889736625263225 $654 98.889736625263225 $455 $810 forward 7 unknown #
edge $-1 $459 -98.889736625263225 $653 98.889736625263225 $456 $811 forward 7 unknown #
point $-1 5.3388537881138802 -197.77947325052645 98.889736625263225 #
point $-1 5.3388537881138802 197.77947325052645 98.889736625263225 #
coedge $-1 $669 $669 $-1 $812 reversed $461 $-1 #
vertex $-1 $463 $813 #
ellipse-curve $-1 0 0 -0.25 0 0 -1 0.5 0 0 1 I I #
point $-1 0.5 0 -1.8460570085757002 #
coedge $-1 $673 $673 $-1 $814 reversed $466 $-1 #
vertex $-1 $468 $815 #
ellipse-curve $-1 0 0 -0.25 0 0 -1 0.5 0 0 1 I I #
point $-1 0.5 0 -1.8460570085757002 #
coedge $-1 $677 $677 $-1 $816 reversed $471 $-1 #
vertex $-1 $473 $817 #
ellipse-curve $-1 0 0 -0.25 0 0 -1 0.5 0 0 1 I I #
point $-1 0.5 0 -1.8460570085757002 #
face $-1 $-1 $491 $68 $-1 $818 reversed single #
loop $-1 $-1 $697 $476 #
plane-surface $-1 0 197.77947325052645 0 0 -1 0 0 0 -1 forward_v I I I I #
coedge $-1 $819 $695 $698 $820 forward $477 $-1 #
coedge $-1 $701 $479 $480 $689 reversed $314 $-1 #
coedge $-1 $695 $819 $479 $687 reversed $477 $-1 #
edge $-1 $702 -98.889736625263225 $821 98.889736625263225 $686 $822 forward 7 unknown #
coedge $-1 $481 $480 $819 $823 forward $210 $-1 #
edge $-1 $693 -5.3388537881138802 $821 5.3388537881138802 $685 $824 forward 7 unknown #
coedge $-1 $698 $697 $481 $691 reversed $682 $-1 #
edge $-1 $825 -5.3388537881138802 $692 5.3388537881138802 $690 $826 forward 7 unknown #
vertex $-1 $483 $827 #
vertex $-1 $704 $828 #
straight-curve $-1 5.3388537881138802 0 -98.889736625263225 0 -1 0 I I #
coedge $-1 $684 $686 $484 $696 reversed $477 $-1 #
edge $-1 $699 -197.77947325052645 $702 197.77947325052645 $695 $829 forward 7 unknown #
coedge $-1 $690 $485 $490 $705 forward $682 $-1 #
coedge $-1 $485 $690 $684 $820 reversed $682 $-1 #
vertex $-1 $486 $830 #
straight-curve $-1 0 197.77947325052645 98.889736625263225 -1 0 0 I I #
coedge $-1 $487 $685 $489 $704 reversed $314 $-1 #
vertex $-1 $696 $831 #
straight-curve $-1 0 -197.77947325052645 98.889736625263225 1 0 0 I I #
edge $-1 $492 -98.889736625263225 $693 98.889736625263225 $489 $832 forward 7 unknown #
edge $-1 $493 -98.889736625263225 $692 98.889736625263225 $490 $833 forward 7 unknown #
point $-1 5.3388537881138802 -197.77947325052645 98.889736625263225 #
point $-1 5.3388537881138802 197.77947325052645 98.889736625263225 #
coedge $-1 $708 $708 $-1 $834 reversed $495 $-1 #
vertex $-1 $497 $835 #
ellipse-curve $-1 0 0 -0.25 0 0 -1 0.5 0 0 1 I I #
point $-1 0.5 0 -1.8460570085757002 #
coedge $-1 $712 $712 $-1 $836 reversed $500 $-1 #
vertex $-1 $502 $837 #
ellipse-curve $-1 0 0 -0.25 0 0 -1 0.5 0 0 1 I I #
point $-1 0.5 0 -1.8460570085757002 #
coedge $-1 $716 $716 $-1 $838 reversed $505 $-1 #
vertex $-1 $507 $839 #
ellipse-curve $-1 0 0 -0.25 0 0 -1 0.5 0 0 1 I I #
point $-1 0.5 0 -1.8460570085757002 #
plane-surface $-1 49.444868312631613 0 0 -1 0 0 0 0 1 forward_v I I I I #
coedge $-1 $515 $513 $517 $725 reversed $337 $-1 #
edge $-1 $528 -11.710823438656123 $727 11.710823438656123 $527 $840 forward 7 unknown #
vertex $-1 $725 $841 #
straight-curve $-1 -49.444868312631613 -25.975343307595388 0 0 0 -1 I I #
edge $-1 $723 -25.975343307595388 $727 25.975343307595388 $721 $842 forward 7 unknown #
straight-curve $-1 0 -25.975343307595388 -11.710823438656123 -1 0 0 I I #
vertex $-1 $520 $843 #
straight-curve $-1 0 25.975343307595388 -11.710823438656123 1 0 0 I I #
point $-1 49.444868312631613 25.975343307595388 -11.710823438656123 #
point $-1 49.444868312631613 -25.975343307595388 -11.710823438656123 #
straight-curve $-1 -49.444868312631613 0 11.710823438656123 0 -1 0 I I #
point $-1 -49.444868312631613 25.975343307595388 11.710823438656123 #
point $-1 -49.444868312631613 -25.975343307595388 11.710823438656123 #
straight-curve $-1 49.444868312631613 -25.975343307595388 0 0 0 -1 I I #
straight-curve $-1 49.444868312631613 25.975343307595388 0 0 0 -1 I I #
plane-surface $-1 6.9206581262788127 0 0 -1 0 0 0 0 1 forward_v I I I I #
coedge $-1 $542 $540 $544 $741 reversed $356 $-1 #
edge $-1 $555 -1.5 $743 1.5 $554 $844 forward 7 unknown #
vertex $-1 $741 $845 #
straight-curve $-1 -6.9206581262788127 -25.975343307595388 0 0 0 -1 I I #
edge $-1 $739 -25.975343307595388 $743 25.975343307595388 $737 $846 forward 7 unknown #
straight-curve $-1 0 -25.975343307595388 -1.5 -1 0 0 I I #
vertex $-1 $547 $847 #
straight-curve $-1 0 25.975343307595388 -1.5 1 0 0 I I #
point $-1 6.9206581262788127 25.975343307595388 -1.5 #
point $-1 6.9206581262788127 -25.975343307595388 -1.5 #
straight-curve $-1 -6.9206581262788127 0 1.5 0 -1 0 I I #
point $-1 -6.9206581262788127 25.975343307595388 1.5 #
point $-1 -6.9206581262788127 -25.975343307595388 1.5 #
straight-curve $-1 6.9206581262788127 -25.975343307595388 0 0 0 -1 I I #
straight-curve $-1 6.9206581262788127 25.975343307595388 0 0 0 -1 I I #
plane-surface $-1 5.3388537881138802 0 0 -1 0 0 0 0 1 forward_v I I I I #
coedge $-1 $569 $567 $571 $757 reversed $375 $-1 #
edge $-1 $582 -98.889736625263225 $759 98.889736625263225 $581 $848 forward 7 unknown #
vertex $-1 $757 $849 #
straight-curve $-1 -5.3388537881138802 -197.77947325052645 0 0 0 -1 I I #
edge $-1 $755 -197.77947325052645 $759 197.77947325052645 $753 $850 forward 7 unknown #
straight-curve $-1 0 -197.77947325052645 -98.889736625263225 -1 0 0 I I #
vertex $-1 $574 $851 #
straight-curve $-1 0 197.77947325052645 -98.889736625263225 1 0 0 I I #
point $-1 5.3388537881138802 197.77947325052645 -98.889736625263225 #
point $-1 5.3388537881138802 -197.77947325052645 -98.889736625263225 #
straight-curve $-1 -5.3388537881138802 0 98.889736625263225 0 -1 0 I I #
point $-1 -5.3388537881138802 197.77947325052645 98.889736625263225 #
point $-1 -5.3388537881138802 -197.77947325052645 98.889736625263225 #
straight-curve $-1 5.3388537881138802 -197.77947325052645 0 0 0 -1 I I #
straight-curve $-1 5.3388537881138802 197.77947325052645 0 0 0 -1 I I #
edge $-1 $852 1 $852 0 $591 $-1 forward 7 unknown #
point $-1 0.5 0 -0.25 #
edge $-1 $853 1 $853 0 $595 $-1 forward 7 unknown #
point $-1 0.5 0 -0.25 #
edge $-1 $854 1 $854 0 $599 $-1 forward 7 unknown #
point $-1 0.5 0 -0.25 #
plane-surface $-1 5.3388537881138802 0 0 -1 0 0 0 0 1 forward_v I I I I #
coedge $-1 $608 $606 $610 $779 reversed $409 $-1 #
edge $-1 $621 -98.889736625263225 $781 98.889736625263225 $620 $855 forward 7 unknown #
vertex $-1 $779 $856 #
straight-curve $-1 -5.3388537881138802 -197.77947325052645 0 0 0 -1 I I #
edge $-1 $777 -197.77947325052645 $781 197.77947325052645 $775 $857 forward 7 unknown #
straight-curve $-1 0 -197.77947325052645 -98.889736625263225 -1 0 0 I I #
vertex $-1 $613 $858 #
straight-curve $-1 0 197.77947325052645 -98.889736625263225 1 0 0 I I #
point $-1 5.3388537881138802 197.77947325052645 -98.889736625263225 #
point $-1 5.3388537881138802 -197.77947325052645 -98.889736625263225 #
straight-curve $-1 -5.3388537881138802 0 98.889736625263225 0 -1 0 I I #
point $-1 -5.3388537881138802 197.77947325052645 98.889736625263225 #
point $-1 -5.3388537881138802 -197.77947325052645 98.889736625263225 #
straight-curve $-1 5.3388537881138802 -197.77947325052645 0 0 0 -1 I I #
straight-curve $-1 5.3388537881138802 197.77947325052645 0 0 0 -1 I I #
edge $-1 $859 1 $859 0 $630 $-1 forward 7 unknown #
point $-1 0.5 0 -0.25 #
edge $-1 $860 1 $860 0 $634 $-1 forward 7 unknown #
point $-1 0.5 0 -0.25 #
edge $-1 $861 1 $861 0 $638 $-1 forward 7 unknown #
point $-1 0.5 0 -0.25 #
plane-surface $-1 5.3388537881138802 0 0 -1 0 0 0 0 1 forward_v I I I I #
coedge $-1 $647 $645 $649 $801 reversed $443 $-1 #
edge $-1 $660 -98.889736625263225 $803 98.889736625263225 $659 $862 forward 7 unknown #
vertex $-1 $801 $863 #
straight-curve $-1 -5.3388537881138802 -197.77947325052645 0 0 0 -1 I I #
edge $-1 $799 -197.77947325052645 $803 197.77947325052645 $797 $864 forward 7 unknown #
straight-curve $-1 0 -197.77947325052645 -98.889736625263225 -1 0 0 I I #
vertex $-1 $652 $865 #
straight-curve $-1 0 197.77947325052645 -98.889736625263225 1 0 0 I I #
point $-1 5.3388537881138802 197.77947325052645 -98.889736625263225 #
point $-1 5.3388537881138802 -197.77947325052645 -98.889736625263225 #
straight-curve $-1 -5.3388537881138802 0 98.889736625263225 0 -1 0 I I #
point $-1 -5.3388537881138802 197.77947325052645 98.889736625263225 #
point $-1 -5.3388537881138802 -197.77947325052645 98.889736625263225 #
straight-curve $-1 5.3388537881138802 -197.77947325052645 0 0 0 -1 I I #
straight-curve $-1 5.3388537881138802 197.77947325052645 0 0 0 -1 I I #
edge $-1 $866 1 $866 0 $669 $-1 forward 7 unknown #
point $-1 0.5 0 -0.25 #
edge $-1 $867 1 $867 0 $673 $-1 forward 7 unknown #
point $-1 0.5 0 -0.25 #
edge $-1 $868 1 $868 0 $677 $-1 forward 7 unknown #
point $-1 0.5 0 -0.25 #
plane-surface $-1 5.3388537881138802 0 0 -1 0 0 0 0 1 forward_v I I I I #
coedge $-1 $686 $684 $688 $823 reversed $477 $-1 #
edge $-1 $699 -98.889736625263225 $825 98.889736625263225 $698 $869 forward 7 unknown #
vertex $-1 $823 $870 #
straight-curve $-1 -5.3388537881138802 -197.77947325052645 0 0 0 -1 I I #
edge $-1 $821 -197.77947325052645 $825 197.77947325052645 $819 $871 forward 7 unknown #
straight-curve $-1 0 -197.77947325052645 -98.889736625263225 -1 0 0 I I #
vertex $-1 $691 $872 #
straight-curve $-1 0 197.77947325052645 -98.889736625263225 1 0 0 I I #
point $-1 5.3388537881138802 197.77947325052645 -98.889736625263225 #
point $-1 5.3388537881138802 -197.77947325052645 -98.889736625263225 #
straight-curve $-1 -5.3388537881138802 0 98.889736625263225 0 -1 0 I I #
point $-1 -5.3388537881138802 197.77947325052645 98.889736625263225 #
point $-1 -5.3388537881138802 -197.77947325052645 98.889736625263225 #
straight-curve $-1 5.3388537881138802 -197.77947325052645 0 0 0 -1 I I #
straight-curve $-1 5.3388537881138802 197.77947325052645 0 0 0 -1 I I #
edge $-1 $873 1 $873 0 $708 $-1 forward 7 unknown #
point $-1 0.5 0 -0.25 #
edge $-1 $874 1 $874 0 $712 $-1 forward 7 unknown #
point $-1 0.5 0 -0.25 #
edge $-1 $875 1 $875 0 $716 $-1 forward 7 unknown #
point $-1 0.5 0 -0.25 #
straight-curve $-1 -49.444868312631613 25.975343307595388 0 0 0 -1 I I #
point $-1 -49.444868312631613 -25.975343307595388 -11.710823438656123 #
straight-curve $-1 -49.444868312631613 0 -11.710823438656123 0 1 0 I I #
point $-1 -49.444868312631613 25.975343307595388 -11.710823438656123 #
straight-curve $-1 -6.9206581262788127 25.975343307595388 0 0 0 -1 I I #
point $-1 -6.9206581262788127 -25.975343307595388 -1.5 #
straight-curve $-1 -6.9206581262788127 0 -1.5 0 1 0 I I #
point $-1 -6.9206581262788127 25.975343307595388 -1.5 #
straight-curve $-1 -5.3388537881138802 197.77947325052645 0 0 0 -1 I I #
point $-1 -5.3388537881138802 -197.77947325052645 -98.889736625263225 #
straight-curve $-1 -5.3388537881138802 0 -98.889736625263225 0 1 0 I I #
point $-1 -5.3388537881138802 197.77947325052645 -98.889736625263225 #
vertex $-1 $768 $876 #
vertex $-1 $770 $877 #
vertex $-1 $772 $878 #
straight-curve $-1 -5.3388537881138802 197.77947325052645 0 0 0 -1 I I #
point $-1 -5.3388537881138802 -197.77947325052645 -98.889736625263225 #
straight-curve $-1 -5.3388537881138802 0 -98.889736625263225 0 1 0 I I #
point $-1 -5.3388537881138802 197.77947325052645 -98.889736625263225 #
vertex $-1 $790 $879 #
vertex $-1 $792 $880 #
vertex $-1 $794 $881 #
straight-curve $-1 -5.3388537881138802 197.77947325052645 0 0 0 -1 I I #
point $-1 -5.3388537881138802 -197.77947325052645 -98.889736625263225 #
straight-curve $-1 -5.3388537881138802 0 -98.889736625263225 0 1 0 I I #
point $-1 -5.3388537881138802 197.77947325052645 -98.889736625263225 #
vertex $-1 $812 $882 #
vertex $-1 $814 $883 #
vertex $-1 $816 $884 #
straight-curve $-1 -5.3388537881138802 197.77947325052645 0 0 0 -1 I I #
point $-1 -5.3388537881138802 -197.77947325052645 -98.889736625263225 #
straight-curve $-1 -5.3388537881138802 0 -98.889736625263225 0 1 0 I I #
point $-1 -5.3388537881138802 197.77947325052645 -98.889736625263225 #
vertex $-1 $834 $885 #
vertex $-1 $836 $886 #
vertex $-1 $838 $887 #
point $-1 0 0 0.25 #
point $-1 0 0 0.25 #
point $-1 0 0 0.25 #
point $-1 0 0 0.25 #
point $-1 0 0 0.25 #
point $-1 0 0 0.25 #
point $-1 0 0 0.25 #
point $-1 0 0 0.25 #
point $-1 0 0 0.25 #
point $-1 0 0 0.25 #
point $-1 0 0 0.25 #
point $-1 0 0 0.25 #
End-of-ACIS-data 