500 0 6 0           
7 Unknown 11 ACIS 5.0 NT 24 Thu Mar 25 15:56:21 1999 
-1 9.9999999999999995e-007 1e-010 
body $-1 $6 $-1 $7 #
body $-1 $8 $-1 $9 #
body $-1 $10 $-1 $11 #
body $-1 $12 $-1 $13 #
body $-1 $14 $-1 $15 #
body $-1 $16 $-1 $17 #
lump $-1 $-1 $18 $0 #
transform $-1 1 0 0 0 1 0 0 0 1 61.039460432752463 25.060138229428667 9.807770398699704 1 rotate no_reflect no_shear #
lump $-1 $-1 $19 $1 #
transform $-1 1 0 0 0 1 0 0 0 1 61.039460432752463 25.060138229428667 9.807770398699704 1 rotate no_reflect no_shear #
lump $-1 $-1 $20 $2 #
transform $-1 1 0 0 0 1 0 0 0 1 61.039460432752463 25.060138229428667 9.807770398699704 1 rotate no_reflect no_shear #
lump $-1 $-1 $21 $3 #
transform $-1 1 0 0 0 1 0 0 0 1 61.039460432752463 25.060138229428667 9.807770398699704 1 rotate no_reflect no_shear #
lump $-1 $-1 $22 $4 #
transform $-1 1 0 0 0 1 0 0 0 1 61.039460432752463 25.060138229428667 9.807770398699704 1 rotate no_reflect no_shear #
lump $-1 $-1 $23 $5 #
transform $-1 1 0 0 0 1 0 0 0 1 61.039460432752463 25.060138229428667 9.807770398699704 1 rotate no_reflect no_shear #
shell $-1 $-1 $-1 $24 $-1 $6 #
shell $-1 $-1 $-1 $25 $-1 $8 #
shell $-1 $-1 $-1 $26 $-1 $10 #
shell $-1 $-1 $-1 $27 $-1 $12 #
shell $-1 $-1 $-1 $28 $-1 $14 #
shell $-1 $-1 $-1 $29 $-1 $16 #
face $-1 $30 $31 $18 $-1 $32 forward single #
face $-1 $33 $34 $19 $-1 $35 reversed single #
face $-1 $36 $37 $20 $-1 $38 reversed single #
face $-1 $39 $40 $21 $-1 $41 forward single #
face $-1 $42 $43 $22 $-1 $44 reversed single #
face $-1 $45 $46 $23 $-1 $47 forward single #
face $-1 $48 $49 $18 $-1 $50 reversed single #
loop $-1 $-1 $51 $24 #
plane-surface $-1 0 0 9.807770398699704 0 0 1 1 0 0 forward_v I I I I #
face $-1 $52 $53 $19 $-1 $54 reversed single #
loop $-1 $-1 $55 $25 #
plane-surface $-1 -55.618484507062767 0 5.7989972748316303 0 0 1 1 0 0 forward_v I I I I #
face $-1 $56 $57 $20 $-1 $58 reversed single #
loop $-1 $-1 $59 $26 #
plane-surface $-1 28.097115915301828 -3.8770051074565375 175.29665246761337 0 -1 0 -0.55919291073839883 0 -0.82903756765294845 forward_v I I I I #
face $-1 $60 $61 $21 $-1 $62 forward single #
loop $-1 $63 $64 $27 #
cone-surface $-1 56.624824322916382 -9.6393357449593715 5.6496705103336051 -0.55919291073839883 0 -0.82903756765294845 1.2435563514794228 0 -0.83878936610759824 1 I I 0 1 1.5 forward I I I I #
face $-1 $65 $66 $22 $-1 $67 reversed single #
loop $-1 $-1 $68 $28 #
plane-surface $-1 28.097115915301828 21.183133121972133 175.29665246761337 0 -1 0 -0.55919291073839883 0 -0.82903756765294845 forward_v I I I I #
face $-1 $69 $70 $23 $-1 $71 forward single #
loop $-1 $72 $73 $29 #
cone-surface $-1 56.624824322916382 15.420802484469299 5.6496705103336051 -0.55919291073839883 0 -0.82903756765294845 1.2435563514794228 0 -0.83878936610759824 1 I I 0 1 1.5 forward I I I I #
face $-1 $74 $75 $18 $-1 $76 reversed single #
loop $-1 $-1 $77 $30 #
plane-surface $-1 0 0 -9.807770398699704 0 0 1 1 0 0 forward_v I I I I #
coedge $-1 $78 $79 $80 $81 forward $31 $-1 #
face $-1 $82 $83 $19 $-1 $84 reversed single #
loop $-1 $-1 $85 $33 #
plane-surface $-1 -50.197508581373071 0 7.8033838367656667 -1 0 0 0 0 1 forward_v I I I I #
coedge $-1 $86 $87 $88 $89 forward $34 $-1 #
face $-1 $90 $91 $20 $-1 $92 reversed single #
loop $-1 $-1 $93 $36 #
plane-surface $-1 -40.168551183282517 -9.6393357449593715 74.08864085157839 0.55919291073839883 0 0.82903756765294845 0.82903756765294845 0 -0.55919291073839883 forward_v I I I I #
coedge $-1 $94 $95 $96 $97 reversed $37 $-1 #
face $-1 $-1 $98 $21 $-1 $99 forward single #
loop $-1 $100 $101 $39 #
cone-surface $-1 54.744645461361955 -9.6393357449593715 2.862190769080625 -0.55919291073839883 0 -0.82903756765294845 0.62177817573971139 0 -0.41939468305379912 1 I I -0.70710678118654757 0.70710678118654757 0.75 forward I I I I #
loop $-1 $-1 $102 $27 #
coedge $-1 $64 $64 $103 $104 reversed $40 $-1 #
face $-1 $105 $106 $22 $-1 $107 reversed single #
loop $-1 $-1 $108 $42 #
plane-surface $-1 -40.168551183282517 15.420802484469299 74.08864085157839 0.55919291073839883 0 0.82903756765294845 0.82903756765294845 0 -0.55919291073839883 forward_v I I I I #
coedge $-1 $109 $110 $111 $112 reversed $43 $-1 #
face $-1 $-1 $113 $23 $-1 $114 forward single #
loop $-1 $115 $116 $45 #
cone-surface $-1 54.744645461361955 15.420802484469299 2.862190769080625 -0.55919291073839883 0 -0.82903756765294845 0.62177817573971139 0 -0.41939468305379912 1 I I -0.70710678118654757 0.70710678118654757 0.75 forward I I I I #
loop $-1 $-1 $117 $29 #
coedge $-1 $73 $73 $118 $119 reversed $46 $-1 #
face $-1 $120 $121 $18 $-1 $122 reversed single #
loop $-1 $-1 $123 $48 #
plane-surface $-1 0 -25.060138229428667 0 0 1 0 0 0 1 forward_v I I I I #
coedge $-1 $124 $125 $126 $127 forward $49 $-1 #
coedge $-1 $128 $51 $129 $130 forward $31 $-1 #
coedge $-1 $51 $128 $131 $132 forward $31 $-1 #
coedge $-1 $133 $134 $51 $81 reversed $135 $-1 #
edge $-1 $136 -25.060138229428667 $137 25.060138229428667 $80 $138 forward 7 unknown #
face $-1 $139 $140 $19 $-1 $141 reversed single #
loop $-1 $-1 $142 $52 #
plane-surface $-1 0 25.060138229428667 0 0 -1 0 0 0 -1 forward_v I I I I #
coedge $-1 $88 $143 $144 $145 reversed $53 $-1 #
coedge $-1 $146 $55 $147 $148 reversed $34 $-1 #
coedge $-1 $55 $146 $149 $150 reversed $34 $-1 #
coedge $-1 $151 $85 $55 $89 reversed $53 $-1 #
edge $-1 $152 -25.060138229428667 $153 25.060138229428667 $88 $154 forward 7 unknown #
face $-1 $155 $156 $20 $-1 $157 forward single #
loop $-1 $-1 $158 $56 #
plane-surface $-1 28.097115915301828 -15.401666382462206 175.29665246761337 0 1 0 0.55919291073839883 0 0.82903756765294845 forward_v I I I I #
coedge $-1 $159 $160 $161 $162 reversed $57 $-1 #
coedge $-1 $95 $59 $163 $164 reversed $37 $-1 #
coedge $-1 $59 $94 $159 $165 reversed $37 $-1 #
coedge $-1 $161 $166 $59 $97 forward $156 $-1 #
edge $-1 $167 -46.990902475101549 $168 -41.083198612430607 $96 $169 forward 7 unknown #
loop $-1 $-1 $103 $60 #
plane-surface $-1 -40.168551183282517 -9.6393357449593715 74.08864085157839 0.55919291073839883 0 0.82903756765294845 0.82903756765294845 0 -0.55919291073839883 forward_v I I I I #
loop $-1 $-1 $170 $39 #
coedge $-1 $101 $101 $102 $171 reversed $61 $-1 #
coedge $-1 $102 $102 $101 $171 forward $63 $-1 #
coedge $-1 $103 $103 $64 $104 forward $98 $-1 #
edge $-1 $172 0 $172 6.2831853071796004 $103 $173 forward 7 unknown #
face $-1 $174 $175 $22 $-1 $176 reversed single #
loop $-1 $-1 $177 $65 #
plane-surface $-1 28.097115915301828 9.6584718469664637 175.29665246761337 0 1 0 0.55919291073839883 0 0.82903756765294845 forward_v I I I I #
coedge $-1 $178 $179 $180 $181 reversed $66 $-1 #
coedge $-1 $110 $68 $182 $183 reversed $43 $-1 #
coedge $-1 $68 $109 $178 $184 reversed $43 $-1 #
coedge $-1 $180 $185 $68 $112 forward $186 $-1 #
edge $-1 $187 -46.990902475101549 $188 -41.083198612430607 $111 $189 forward 7 unknown #
loop $-1 $-1 $118 $69 #
plane-surface $-1 -40.168551183282517 15.420802484469299 74.08864085157839 0.55919291073839883 0 0.82903756765294845 0.82903756765294845 0 -0.55919291073839883 forward_v I I I I #
loop $-1 $-1 $190 $45 #
coedge $-1 $116 $116 $117 $191 reversed $70 $-1 #
coedge $-1 $117 $117 $116 $191 forward $72 $-1 #
coedge $-1 $118 $118 $73 $119 forward $113 $-1 #
edge $-1 $192 0 $192 6.2831853071796004 $118 $193 forward 7 unknown #
face $-1 $194 $195 $18 $-1 $196 reversed single #
loop $-1 $-1 $197 $74 #
plane-surface $-1 -61.039460432752463 0 0 1 0 0 0 0 -1 forward_v I I I I #
coedge $-1 $198 $131 $199 $200 forward $75 $-1 #
coedge $-1 $201 $77 $198 $202 forward $49 $-1 #
coedge $-1 $77 $201 $203 $204 forward $49 $-1 #
coedge $-1 $134 $133 $77 $127 reversed $135 $-1 #
edge $-1 $205 -25.060138229428667 $206 25.060138229428667 $126 $207 forward 7 unknown #
coedge $-1 $79 $78 $208 $209 forward $31 $-1 #
coedge $-1 $210 $211 $78 $130 reversed $195 $-1 #
edge $-1 $137 -61.039460432752463 $212 61.039460432752463 $129 $213 forward 7 unknown #
coedge $-1 $123 $214 $79 $132 reversed $75 $-1 #
edge $-1 $215 -61.039460432752463 $136 61.039460432752463 $131 $216 forward 7 unknown #
coedge $-1 $126 $80 $214 $217 forward $135 $-1 #
coedge $-1 $80 $126 $210 $218 reversed $135 $-1 #
loop $-1 $-1 $133 $194 #
vertex $-1 $81 $219 #
vertex $-1 $81 $220 #
straight-curve $-1 61.039460432752463 0 9.807770398699704 0 1 0 I I #
face $-1 $221 $222 $19 $-1 $223 forward single #
loop $-1 $-1 $224 $82 #
plane-surface $-1 -61.039460432752463 0 0 1 0 0 0 0 -1 forward_v I I I I #
coedge $-1 $149 $225 $151 $226 forward $83 $-1 #
coedge $-1 $85 $151 $227 $228 reversed $53 $-1 #
coedge $-1 $229 $147 $85 $145 forward $230 $-1 #
edge $-1 $153 1.8973053564487969 $231 5.9060784803168689 $144 $232 forward 7 unknown #
coedge $-1 $87 $86 $224 $233 reversed $34 $-1 #
coedge $-1 $144 $234 $86 $148 forward $230 $-1 #
edge $-1 $235 -33.230218179221083 $153 -22.388266327841688 $147 $236 forward 7 unknown #
coedge $-1 $237 $142 $87 $150 forward $83 $-1 #
edge $-1 $152 22.388266327841688 $238 33.230218179221083 $149 $239 forward 7 unknown #
coedge $-1 $143 $88 $142 $226 reversed $53 $-1 #
vertex $-1 $150 $240 #
vertex $-1 $148 $241 #
straight-curve $-1 -50.197508581373071 0 5.7989972748316303 0 -1 0 I I #
face $-1 $-1 $242 $20 $-1 $243 reversed single #
loop $-1 $-1 $96 $90 #
plane-surface $-1 0 0 9.807770398699704 0 0 1 1 0 0 forward_v I I I I #
coedge $-1 $244 $245 $246 $247 reversed $91 $-1 #
coedge $-1 $248 $93 $95 $165 forward $57 $-1 #
coedge $-1 $93 $248 $244 $249 forward $57 $-1 #
coedge $-1 $246 $96 $93 $162 forward $156 $-1 #
edge $-1 $168 -0.94266276502314827 $250 10.581998509982521 $161 $251 forward 7 unknown #
coedge $-1 $252 $253 $94 $164 forward $242 $-1 #
edge $-1 $254 -81.82535248081264 $167 -77.840555835106983 $163 $255 forward 7 unknown #
edge $-1 $168 114.9529423897695 $254 122.07892086550493 $95 $256 forward 7 unknown #
coedge $-1 $96 $246 $252 $257 forward $156 $-1 #
vertex $-1 $164 $258 #
vertex $-1 $97 $259 #
straight-curve $-1 14.048557957650914 -3.8770051074565375 9.8077703986997022 -1 0 0 I I #
coedge $-1 $170 $170 $-1 $260 reversed $100 $-1 #
edge $-1 $261 0 $261 6.2831853071796004 $101 $262 forward 7 unknown #
vertex $-1 $104 $263 #
ellipse-curve $-1 58.085608501416999 -9.6393357449593715 7.8153720758468586 0.55919291073839883 0 0.82903756765294845 1.2435563514794228 0 -0.83878936610759824 1 I I #
face $-1 $-1 $186 $22 $-1 $264 forward single #
loop $-1 $-1 $265 $105 #
plane-surface $-1 61.039460432752463 0 0 -1 0 0 0 0 1 forward_v I I I I #
coedge $-1 $266 $267 $268 $269 reversed $106 $-1 #
coedge $-1 $270 $108 $110 $184 forward $66 $-1 #
coedge $-1 $108 $270 $266 $271 forward $66 $-1 #
coedge $-1 $268 $111 $108 $181 forward $186 $-1 #
edge $-1 $188 -13.472731879737484 $272 -1.9480706047318144 $180 $273 forward 7 unknown #
coedge $-1 $274 $275 $109 $183 forward $175 $-1 #
edge $-1 $276 -81.82535248081264 $187 -77.840555835106983 $182 $277 forward 7 unknown #
edge $-1 $188 114.9529423897695 $276 122.07892086550493 $110 $278 forward 7 unknown #
coedge $-1 $111 $268 $274 $279 forward $186 $-1 #
loop $-1 $-1 $268 $174 #
vertex $-1 $183 $280 #
vertex $-1 $112 $281 #
straight-curve $-1 14.048557957650914 21.183133121972133 9.8077703986997022 -1 0 0 I I #
coedge $-1 $190 $190 $-1 $282 reversed $115 $-1 #
edge $-1 $283 0 $283 6.2831853071796004 $116 $284 forward 7 unknown #
vertex $-1 $119 $285 #
ellipse-curve $-1 58.085608501416999 15.420802484469299 7.8153720758468586 0.55919291073839883 0 0.82903756765294845 1.2435563514794228 0 -0.83878936610759824 1 I I #
face $-1 $-1 $135 $18 $-1 $286 reversed single #
loop $-1 $-1 $210 $120 #
plane-surface $-1 0 25.060138229428667 0 0 -1 0 0 0 -1 forward_v I I I I #
coedge $-1 $287 $208 $211 $288 forward $121 $-1 #
coedge $-1 $214 $123 $124 $202 reversed $75 $-1 #
coedge $-1 $208 $287 $123 $200 reversed $121 $-1 #
edge $-1 $215 -9.807770398699704 $289 9.807770398699704 $199 $290 forward 7 unknown #
coedge $-1 $125 $124 $287 $291 forward $49 $-1 #
edge $-1 $206 -61.039460432752463 $289 61.039460432752463 $198 $292 forward 7 unknown #
coedge $-1 $211 $210 $125 $204 reversed $195 $-1 #
edge $-1 $293 -61.039460432752463 $205 61.039460432752463 $203 $294 forward 7 unknown #
vertex $-1 $127 $295 #
vertex $-1 $217 $296 #
straight-curve $-1 61.039460432752463 0 -9.807770398699704 0 -1 0 I I #
coedge $-1 $197 $199 $128 $209 reversed $121 $-1 #
edge $-1 $212 -25.060138229428667 $215 25.060138229428667 $208 $297 forward 7 unknown #
coedge $-1 $203 $129 $134 $218 forward $195 $-1 #
coedge $-1 $129 $203 $197 $288 reversed $195 $-1 #
vertex $-1 $130 $298 #
straight-curve $-1 0 25.060138229428667 9.807770398699704 -1 0 0 I I #
coedge $-1 $131 $198 $133 $217 reversed $75 $-1 #
vertex $-1 $209 $299 #
straight-curve $-1 0 -25.060138229428667 9.807770398699704 1 0 0 I I #
edge $-1 $136 -9.807770398699704 $206 9.807770398699704 $133 $300 forward 7 unknown #
edge $-1 $137 -9.807770398699704 $205 9.807770398699704 $134 $301 forward 7 unknown #
point $-1 61.039460432752463 -25.060138229428667 9.807770398699704 #
point $-1 61.039460432752463 25.060138229428667 9.807770398699704 #
face $-1 $-1 $230 $19 $-1 $302 reversed single #
loop $-1 $-1 $227 $139 #
plane-surface $-1 0 0 9.807770398699704 0 0 1 1 0 0 forward_v I I I I #
coedge $-1 $303 $304 $146 $233 forward $140 $-1 #
coedge $-1 $142 $237 $305 $306 reversed $83 $-1 #
edge $-1 $307 -5.9060784803168689 $152 -1.8973053564487969 $142 $308 forward 7 unknown #
coedge $-1 $305 $309 $143 $228 forward $222 $-1 #
edge $-1 $231 -25.060138229428667 $307 25.060138229428667 $227 $310 forward 7 unknown #
coedge $-1 $234 $144 $309 $311 reversed $230 $-1 #
loop $-1 $-1 $144 $221 #
vertex $-1 $145 $312 #
straight-curve $-1 -50.197508581373071 -25.060138229428667 3.9016919183828334 0 0 1 I I #
edge $-1 $238 -25.060138229428667 $235 25.060138229428667 $224 $313 forward 7 unknown #
coedge $-1 $147 $229 $303 $314 forward $230 $-1 #
vertex $-1 $233 $315 #
straight-curve $-1 -27.809242253531384 -25.060138229428667 5.7989972748316303 1 0 0 I I #
coedge $-1 $225 $149 $304 $316 reversed $83 $-1 #
vertex $-1 $233 $317 #
straight-curve $-1 -27.809242253531384 25.060138229428667 5.7989972748316303 -1 0 0 I I #
point $-1 -50.197508581373071 25.060138229428667 5.7989972748316303 #
point $-1 -50.197508581373071 -25.060138229428667 5.7989972748316303 #
loop $-1 $-1 $163 $155 #
plane-surface $-1 61.039460432752463 0 0 -1 0 0 0 0 1 forward_v I I I I #
coedge $-1 $245 $158 $160 $249 reversed $91 $-1 #
coedge $-1 $158 $244 $318 $319 reversed $91 $-1 #
coedge $-1 $166 $161 $158 $247 forward $156 $-1 #
edge $-1 $250 41.083198612430607 $320 46.990902475101549 $246 $321 forward 7 unknown #
coedge $-1 $160 $159 $253 $322 reversed $57 $-1 #
edge $-1 $323 -122.07892086550493 $250 -114.9529423897695 $244 $324 forward 7 unknown #
vertex $-1 $162 $325 #
straight-curve $-1 55.131756570081521 -4.8196678724796858 9.8077703986996951 0 -1 0 I I #
coedge $-1 $318 $163 $166 $257 reversed $242 $-1 #
coedge $-1 $163 $318 $248 $322 forward $242 $-1 #
vertex $-1 $164 $326 #
straight-curve $-1 61.039460432752463 -3.8770051074565375 87.648326233806685 0 0 1 I I #
straight-curve $-1 -40.168551183282517 -3.8770051074565375 74.08864085157839 0.82903756765294845 0 -0.55919291073839883 I I #
edge $-1 $320 -15.401666382462206 $167 -3.8770051074565375 $252 $327 forward 7 unknown #
point $-1 61.039460432752463 -3.8770051074565375 9.807770398699704 #
point $-1 55.131756570081521 -3.8770051074565375 9.8077703986997022 #
edge $-1 $328 1 $328 0 $170 $-1 forward 7 unknown #
vertex $-1 $171 $329 #
ellipse-curve $-1 55.164040144415758 -9.6393357449593715 3.4839689448203366 0.55919291073839883 0 0.82903756765294845 1.2435563514794228 0 -0.83878936610759824 1 I I #
point $-1 59.329164852896433 -9.6393357449593715 6.9765827097392741 #
plane-surface $-1 0 0 9.807770398699704 0 0 1 1 0 0 forward_v I I I I #
coedge $-1 $275 $274 $267 $330 forward $175 $-1 #
coedge $-1 $267 $177 $179 $271 reversed $106 $-1 #
coedge $-1 $177 $266 $265 $330 reversed $106 $-1 #
coedge $-1 $185 $180 $177 $269 forward $186 $-1 #
edge $-1 $272 41.083198612430607 $331 46.990902475101549 $268 $332 forward 7 unknown #
coedge $-1 $179 $178 $275 $333 reversed $66 $-1 #
edge $-1 $334 -122.07892086550493 $272 -114.9529423897695 $266 $335 forward 7 unknown #
vertex $-1 $181 $336 #
straight-curve $-1 55.131756570081521 7.7104012422346493 9.8077703986996951 0 -1 0 I I #
coedge $-1 $265 $182 $185 $279 reversed $175 $-1 #
coedge $-1 $182 $265 $270 $333 forward $175 $-1 #
vertex $-1 $183 $337 #
straight-curve $-1 61.039460432752463 21.183133121972133 87.648326233806685 0 0 1 I I #
straight-curve $-1 -40.168551183282517 21.183133121972133 74.08864085157839 0.82903756765294845 0 -0.55919291073839883 I I #
edge $-1 $331 9.6584718469664637 $187 21.183133121972133 $274 $338 forward 7 unknown #
point $-1 61.039460432752463 21.183133121972133 9.807770398699704 #
point $-1 55.131756570081521 21.183133121972133 9.8077703986997022 #
edge $-1 $339 1 $339 0 $190 $-1 forward 7 unknown #
vertex $-1 $191 $340 #
ellipse-curve $-1 55.164040144415758 15.420802484469299 3.4839689448203366 0.55919291073839883 0 0.82903756765294845 1.2435563514794228 0 -0.83878936610759824 1 I I #
point $-1 59.329164852896433 15.420802484469299 6.9765827097392741 #
plane-surface $-1 61.039460432752463 0 0 -1 0 0 0 0 1 forward_v I I I I #
coedge $-1 $199 $197 $201 $291 reversed $121 $-1 #
edge $-1 $212 -9.807770398699704 $293 9.807770398699704 $211 $341 forward 7 unknown #
vertex $-1 $291 $342 #
straight-curve $-1 -61.039460432752463 -25.060138229428667 0 0 0 -1 I I #
edge $-1 $289 -25.060138229428667 $293 25.060138229428667 $287 $343 forward 7 unknown #
straight-curve $-1 0 -25.060138229428667 -9.807770398699704 -1 0 0 I I #
vertex $-1 $204 $344 #
straight-curve $-1 0 25.060138229428667 -9.807770398699704 1 0 0 I I #
point $-1 61.039460432752463 25.060138229428667 -9.807770398699704 #
point $-1 61.039460432752463 -25.060138229428667 -9.807770398699704 #
straight-curve $-1 -61.039460432752463 0 9.807770398699704 0 -1 0 I I #
point $-1 -61.039460432752463 25.060138229428667 9.807770398699704 #
point $-1 -61.039460432752463 -25.060138229428667 9.807770398699704 #
straight-curve $-1 61.039460432752463 -25.060138229428667 0 0 0 -1 I I #
straight-curve $-1 61.039460432752463 25.060138229428667 0 0 0 -1 I I #
plane-surface $-1 0 -25.060138229428667 0 0 1 0 0 0 1 forward_v I I I I #
coedge $-1 $345 $224 $234 $314 reversed $140 $-1 #
coedge $-1 $224 $345 $237 $316 forward $140 $-1 #
coedge $-1 $346 $227 $225 $306 forward $222 $-1 #
edge $-1 $307 50.197508581373071 $347 61.039460432752463 $225 $348 forward 7 unknown #
vertex $-1 $306 $349 #
straight-curve $-1 -50.197508581373071 25.060138229428667 3.9016919183828334 0 0 -1 I I #
coedge $-1 $227 $346 $229 $311 forward $222 $-1 #
straight-curve $-1 -50.197508581373071 0 9.807770398699704 0 1 0 I I #
edge $-1 $350 -61.039460432752463 $231 -50.197508581373071 $229 $351 forward 7 unknown #
point $-1 -50.197508581373071 -25.060138229428667 9.8077703986997022 #
straight-curve $-1 -61.039460432752463 0 5.7989972748316303 0 -1 0 I I #
edge $-1 $350 -9.807770398699704 $235 -5.7989972748316303 $303 $352 forward 7 unknown #
point $-1 -61.039460432752463 -25.060138229428667 5.7989972748316303 #
edge $-1 $347 -9.807770398699704 $238 -5.7989972748316303 $237 $353 forward 7 unknown #
point $-1 -61.039460432752463 25.060138229428667 5.7989972748316303 #
coedge $-1 $253 $252 $245 $319 forward $242 $-1 #
edge $-1 $320 77.840555835106983 $323 81.82535248081264 $318 $354 forward 7 unknown #
vertex $-1 $257 $355 #
straight-curve $-1 14.048557957650914 -15.401666382462206 9.8077703986997022 1 0 0 I I #
edge $-1 $323 -10.581998509982521 $254 0.94266276502314827 $253 $356 forward 7 unknown #
vertex $-1 $322 $357 #
straight-curve $-1 -40.168551183282517 -15.401666382462206 74.08864085157839 -0.82903756765294845 0 0.55919291073839883 I I #
point $-1 55.131756570081521 -15.401666382462206 9.8077703986997022 #
point $-1 61.039460432752463 -3.8770051074565375 5.8229737529940451 #
straight-curve $-1 61.039460432752463 0 9.807770398699704 0 1 0 I I #
vertex $-1 $260 $358 #
point $-1 56.407596495895177 -9.6393357449593715 2.6451795787127379 #
edge $-1 $331 77.840555835106983 $334 81.82535248081264 $265 $359 forward 7 unknown #
vertex $-1 $279 $360 #
straight-curve $-1 14.048557957650914 9.6584718469664637 9.8077703986997022 1 0 0 I I #
edge $-1 $334 1.9480706047318144 $276 13.472731879737484 $275 $361 forward 7 unknown #
vertex $-1 $333 $362 #
straight-curve $-1 -40.168551183282517 9.6584718469664637 74.08864085157839 -0.82903756765294845 0 0.55919291073839883 I I #
point $-1 55.131756570081521 9.6584718469664637 9.8077703986997022 #
point $-1 61.039460432752463 21.183133121972133 5.8229737529940451 #
straight-curve $-1 61.039460432752463 0 9.807770398699704 0 1 0 I I #
vertex $-1 $282 $363 #
point $-1 56.407596495895177 15.420802484469299 2.6451795787127379 #
straight-curve $-1 -61.039460432752463 25.060138229428667 0 0 0 -1 I I #
point $-1 -61.039460432752463 -25.060138229428667 -9.807770398699704 #
straight-curve $-1 -61.039460432752463 0 -9.807770398699704 0 1 0 I I #
point $-1 -61.039460432752463 25.060138229428667 -9.807770398699704 #
coedge $-1 $304 $303 $346 $364 reversed $140 $-1 #
coedge $-1 $309 $305 $345 $364 forward $222 $-1 #
vertex $-1 $306 $365 #
straight-curve $-1 0 25.060138229428667 9.807770398699704 -1 0 0 I I #
point $-1 -50.197508581373071 25.060138229428667 9.8077703986997022 #
vertex $-1 $364 $366 #
straight-curve $-1 0 -25.060138229428667 9.807770398699704 1 0 0 I I #
straight-curve $-1 -61.039460432752463 -25.060138229428667 0 0 0 -1 I I #
straight-curve $-1 -61.039460432752463 25.060138229428667 0 0 0 -1 I I #
straight-curve $-1 61.039460432752463 -15.401666382462206 87.648326233806685 0 0 -1 I I #
point $-1 61.039460432752463 -15.401666382462206 9.807770398699704 #
straight-curve $-1 61.03946043275247 -4.8196678724796858 5.8229737529940309 0 1 0 I I #
point $-1 61.039460432752463 -15.401666382462206 5.8229737529940451 #
point $-1 54.325250778308153 -9.6393357449593715 2.2404125933409134 #
straight-curve $-1 61.039460432752463 9.6584718469664637 87.648326233806685 0 0 -1 I I #
point $-1 61.039460432752463 9.6584718469664637 9.807770398699704 #
straight-curve $-1 61.03946043275247 7.7104012422346493 5.8229737529940309 0 1 0 I I #
point $-1 61.039460432752463 9.6584718469664637 5.8229737529940451 #
point $-1 54.325250778308153 15.420802484469299 2.2404125933409134 #
edge $-1 $347 -25.060138229428667 $350 25.060138229428667 $345 $367 forward 7 unknown #
point $-1 -61.039460432752463 25.060138229428667 9.807770398699704 #
point $-1 -61.039460432752463 -25.060138229428667 9.807770398699704 #
straight-curve $-1 -61.039460432752463 0 9.807770398699704 0 -1 0 I I #
End-of-ACIS-data 