500 0 12 0           
7 Unknown 11 ACIS 5.0 NT 24 Thu Mar 25 23:41:53 1999 
-1 9.9999999999999995e-007 1e-010 
body $-1 $12 $-1 $13 #
body $-1 $14 $-1 $15 #
body $-1 $16 $-1 $17 #
body $-1 $18 $-1 $19 #
body $-1 $20 $-1 $21 #
body $-1 $22 $-1 $23 #
body $-1 $24 $-1 $25 #
body $-1 $26 $-1 $27 #
body $-1 $28 $-1 $29 #
body $-1 $30 $-1 $31 #
body $-1 $32 $-1 $33 #
body $-1 $34 $-1 $35 #
lump $-1 $-1 $36 $0 #
transform $-1 1 0 0 0 1 0 0 0 1 71.932126834925384 34.399744483879537 11.377730973019844 1 rotate no_reflect no_shear #
lump $-1 $-1 $37 $1 #
transform $-1 1 0 0 0 1 0 0 0 1 71.932126834925384 34.399744483879537 11.377730973019844 1 rotate no_reflect no_shear #
lump $-1 $-1 $38 $2 #
transform $-1 1 0 0 0 1 0 0 0 1 71.932126834925384 34.399744483879537 11.377730973019844 1 rotate no_reflect no_shear #
lump $-1 $-1 $39 $3 #
transform $-1 1 0 0 0 1 0 0 0 1 71.932126834925384 34.399744483879537 11.377730973019844 1 rotate no_reflect no_shear #
lump $-1 $-1 $40 $4 #
transform $-1 1 0 0 0 1 0 0 0 1 71.932126834925384 34.399744483879537 11.377730973019844 1 rotate no_reflect no_shear #
lump $-1 $-1 $41 $5 #
transform $-1 1 0 0 0 1 0 0 0 1 71.932126834925384 34.399744483879537 11.377730973019844 1 rotate no_reflect no_shear #
lump $-1 $-1 $42 $6 #
transform $-1 1 0 0 0 1 0 0 0 1 71.932126834925384 34.399744483879537 11.377730973019844 1 rotate no_reflect no_shear #
lump $-1 $-1 $43 $7 #
transform $-1 1 0 0 0 1 0 0 0 1 71.932126834925384 34.399744483879537 11.377730973019844 1 rotate no_reflect no_shear #
lump $-1 $-1 $44 $8 #
transform $-1 1 0 0 0 1 0 0 0 1 71.932126834925384 34.399744483879537 11.377730973019844 1 rotate no_reflect no_shear #
lump $-1 $-1 $45 $9 #
transform $-1 1 0 0 0 1 0 0 0 1 71.932126834925384 34.399744483879537 11.377730973019844 1 rotate no_reflect no_shear #
lump $-1 $-1 $46 $10 #
transform $-1 1 0 0 0 1 0 0 0 1 71.932126834925384 34.399744483879537 11.377730973019844 1 rotate no_reflect no_shear #
lump $-1 $-1 $47 $11 #
transform $-1 1 0 0 0 1 0 0 0 1 71.932126834925384 34.399744483879537 11.377730973019844 1 rotate no_reflect no_shear #
shell $-1 $-1 $-1 $48 $-1 $12 #
shell $-1 $-1 $-1 $49 $-1 $14 #
shell $-1 $-1 $-1 $50 $-1 $16 #
shell $-1 $-1 $-1 $51 $-1 $18 #
shell $-1 $-1 $-1 $52 $-1 $20 #
shell $-1 $-1 $-1 $53 $-1 $22 #
shell $-1 $-1 $-1 $54 $-1 $24 #
shell $-1 $-1 $-1 $55 $-1 $26 #
shell $-1 $-1 $-1 $56 $-1 $28 #
shell $-1 $-1 $-1 $57 $-1 $30 #
shell $-1 $-1 $-1 $58 $-1 $32 #
shell $-1 $-1 $-1 $59 $-1 $34 #
face $-1 $60 $61 $36 $-1 $62 forward single #
face $-1 $63 $64 $37 $-1 $65 reversed single #
face $-1 $66 $67 $38 $-1 $68 forward single #
face $-1 $69 $70 $39 $-1 $71 reversed single #
face $-1 $72 $73 $40 $-1 $74 forward single #
face $-1 $75 $76 $41 $-1 $77 forward single #
face $-1 $78 $79 $42 $-1 $80 reversed single #
face $-1 $81 $82 $43 $-1 $83 forward single #
face $-1 $84 $85 $44 $-1 $86 forward single #
face $-1 $87 $88 $45 $-1 $89 reversed single #
face $-1 $90 $91 $46 $-1 $92 forward single #
face $-1 $93 $94 $47 $-1 $95 forward single #
face $-1 $96 $97 $36 $-1 $98 reversed single #
loop $-1 $-1 $99 $48 #
plane-surface $-1 0 0 11.377730973019844 0 0 1 1 0 0 forward_v I I I I #
face $-1 $100 $101 $37 $-1 $102 reversed single #
loop $-1 $-1 $103 $49 #
plane-surface $-1 -67.596408187998563 0 4.8167938492303595 0 0 1 1 0 0 forward_v I I I I #
face $-1 $104 $105 $38 $-1 $106 reversed single #
loop $-1 $-1 $107 $50 #
plane-surface $-1 71.932126834925384 0 0 -1 0 0 0 0 1 forward_v I I I I #
face $-1 $108 $109 $39 $-1 $110 reversed single #
loop $-1 $-1 $111 $51 #
plane-surface $-1 -27.80599639425359 -139.61540012498568 106.18047886897594 -1 0 0 0 -0.73135370988377701 0.68199835119979291 forward_v I I I I #
face $-1 $112 $113 $40 $-1 $114 forward single #
loop $-1 $115 $116 $52 #
cone-surface $-1 -38.589093147595435 -32.213936120499369 9.1234349970000324 0 0.73135370988377701 -0.68199835119979291 0.5 0 0 1 I I 0 1 0.5 forward I I I I #
face $-1 $117 $118 $41 $-1 $119 forward single #
loop $-1 $120 $121 $53 #
cone-surface $-1 -32.119235095590327 -32.213936120499369 9.1234349970000324 0 0.73135370988377701 -0.68199835119979291 0.5 0 0 1 I I 0 1 0.5 forward I I I I #
face $-1 $122 $123 $42 $-1 $124 reversed single #
loop $-1 $-1 $125 $54 #
plane-surface $-1 35.872589597617406 -139.61540012498568 106.18047886897594 -1 0 0 0 -0.73135370988377701 0.68199835119979291 forward_v I I I I #
face $-1 $126 $127 $43 $-1 $128 forward single #
loop $-1 $129 $130 $55 #
cone-surface $-1 25.089492844275554 -32.213936120499369 9.1234349970000324 0 0.73135370988377701 -0.68199835119979291 0.5 0 0 1 I I 0 1 0.5 forward I I I I #
face $-1 $131 $132 $44 $-1 $133 forward single #
loop $-1 $134 $135 $56 #
cone-surface $-1 31.559350896280662 -32.213936120499369 9.1234349970000324 0 0.73135370988377701 -0.68199835119979291 0.5 0 0 1 I I 0 1 0.5 forward I I I I #
face $-1 $136 $137 $45 $-1 $138 reversed single #
loop $-1 $-1 $139 $57 #
plane-surface $-1 37.377012280548769 119.94537835273496 138.34909763840469 1 0 0 0 -0.84804810408105047 -0.52991925155115449 forward_v I I I I #
face $-1 $140 $141 $46 $-1 $142 forward single #
loop $-1 $143 $144 $58 #
cone-surface $-1 45.011146612583474 31.597984166761062 7.3075977746637157 0 -0.84804810408105047 -0.52991925155115449 0.5 0 0 1 I I 0 1 0.5 forward I I I I #
face $-1 $145 $146 $47 $-1 $147 forward single #
loop $-1 $148 $149 $59 #
cone-surface $-1 56.462348110635531 31.597984166761062 7.3075977746637157 0 -0.84804810408105047 -0.52991925155115449 0.5 0 0 1 I I 0 1 0.5 forward I I I I #
face $-1 $150 $151 $36 $-1 $152 reversed single #
loop $-1 $-1 $153 $60 #
plane-surface $-1 0 0 -11.377730973019844 0 0 1 1 0 0 forward_v I I I I #
coedge $-1 $154 $155 $156 $157 forward $61 $-1 #
face $-1 $158 $159 $37 $-1 $160 reversed single #
loop $-1 $-1 $161 $63 #
plane-surface $-1 -63.260689541071741 0 8.0972624111251008 -1 0 0 0 0 1 forward_v I I I I #
coedge $-1 $162 $163 $164 $165 forward $64 $-1 #
face $-1 $166 $167 $38 $-1 $168 reversed single #
loop $-1 $-1 $169 $66 #
plane-surface $-1 0 0 -11.377730973019844 0 0 1 1 0 0 forward_v I I I I #
coedge $-1 $170 $171 $172 $173 forward $67 $-1 #
face $-1 $174 $175 $39 $-1 $176 reversed single #
loop $-1 $-1 $177 $69 #
plane-surface $-1 -35.354164121592881 -34.399744483879545 8.0652950695489523 0 -0.73135370988377701 0.68199835119979291 1 0 0 forward_v I I I I #
coedge $-1 $178 $179 $180 $181 reversed $70 $-1 #
face $-1 $-1 $182 $40 $-1 $183 forward single #
loop $-1 $184 $185 $72 #
cone-surface $-1 -38.589093147595435 -31.389737518050232 8.3548573849157108 0 0.73135370988377701 -0.68199835119979291 0.25 0 0 1 I I -0.70710678118654746 0.70710678118654746 0.25 forward I I I I #
loop $-1 $-1 $186 $52 #
coedge $-1 $116 $116 $187 $188 reversed $73 $-1 #
face $-1 $-1 $189 $41 $-1 $190 forward single #
loop $-1 $191 $192 $75 #
cone-surface $-1 -32.119235095590327 -31.389737518050232 8.3548573849157108 0 0.73135370988377701 -0.68199835119979291 0.25 0 0 1 I I -0.70710678118654746 0.70710678118654746 0.25 forward I I I I #
loop $-1 $-1 $193 $53 #
coedge $-1 $121 $121 $194 $195 reversed $76 $-1 #
face $-1 $196 $197 $42 $-1 $198 reversed single #
loop $-1 $-1 $199 $78 #
plane-surface $-1 28.324421870278115 -34.399744483879545 8.0652950695489523 0 -0.73135370988377701 0.68199835119979291 1 0 0 forward_v I I I I #
coedge $-1 $200 $201 $202 $203 reversed $79 $-1 #
face $-1 $-1 $204 $43 $-1 $205 forward single #
loop $-1 $206 $207 $81 #
cone-surface $-1 25.089492844275554 -31.389737518050232 8.3548573849157108 0 0.73135370988377701 -0.68199835119979291 0.25 0 0 1 I I -0.70710678118654746 0.70710678118654746 0.25 forward I I I I #
loop $-1 $-1 $208 $55 #
coedge $-1 $130 $130 $209 $210 reversed $82 $-1 #
face $-1 $-1 $211 $44 $-1 $212 forward single #
loop $-1 $213 $214 $84 #
cone-surface $-1 31.559350896280662 -31.389737518050232 8.3548573849157108 0 0.73135370988377701 -0.68199835119979291 0.25 0 0 1 I I -0.70710678118654746 0.70710678118654746 0.25 forward I I I I #
loop $-1 $-1 $215 $56 #
coedge $-1 $135 $135 $216 $217 reversed $85 $-1 #
face $-1 $218 $219 $45 $-1 $220 reversed single #
loop $-1 $-1 $221 $87 #
plane-surface $-1 50.736747361609503 -2.0584292170172915 62.112660008711941 0 0.84804810408105047 0.52991925155115449 1 0 0 forward_v I I I I #
coedge $-1 $222 $223 $224 $225 reversed $88 $-1 #
face $-1 $-1 $226 $46 $-1 $227 forward single #
loop $-1 $228 $229 $90 #
cone-surface $-1 45.011146612583474 30.961948088700275 6.9101583360003502 0 -0.84804810408105047 -0.52991925155115449 0.25 0 0 1 I I -0.70710678118654746 0.70710678118654746 0.25 forward I I I I #
loop $-1 $-1 $230 $58 #
coedge $-1 $144 $144 $231 $232 reversed $91 $-1 #
face $-1 $-1 $233 $47 $-1 $234 forward single #
loop $-1 $235 $236 $93 #
cone-surface $-1 56.462348110635531 30.961948088700275 6.9101583360003502 0 -0.84804810408105047 -0.52991925155115449 0.25 0 0 1 I I -0.70710678118654746 0.70710678118654746 0.25 forward I I I I #
loop $-1 $-1 $237 $59 #
coedge $-1 $149 $149 $238 $239 reversed $94 $-1 #
face $-1 $240 $241 $36 $-1 $242 reversed single #
loop $-1 $-1 $243 $96 #
plane-surface $-1 0 -34.399744483879537 0 0 1 0 0 0 1 forward_v I I I I #
coedge $-1 $244 $245 $246 $247 forward $97 $-1 #
coedge $-1 $248 $99 $249 $250 forward $61 $-1 #
coedge $-1 $99 $248 $251 $252 forward $61 $-1 #
coedge $-1 $253 $254 $99 $157 reversed $255 $-1 #
edge $-1 $256 -34.399744483879537 $257 34.399744483879537 $156 $258 forward 7 unknown #
face $-1 $259 $260 $37 $-1 $261 reversed single #
loop $-1 $-1 $262 $100 #
plane-surface $-1 0 34.399744483879537 0 0 -1 0 0 0 -1 forward_v I I I I #
coedge $-1 $164 $263 $264 $265 reversed $101 $-1 #
coedge $-1 $266 $103 $267 $268 reversed $64 $-1 #
coedge $-1 $103 $266 $269 $270 reversed $64 $-1 #
coedge $-1 $271 $161 $103 $165 reversed $101 $-1 #
edge $-1 $272 -34.399744483879537 $273 34.399744483879537 $164 $274 forward 7 unknown #
face $-1 $275 $276 $38 $-1 $277 reversed single #
loop $-1 $-1 $172 $104 #
plane-surface $-1 75.849949031052972 -18.373578693063294 0 0 1 0 0 0 1 forward_v I I I I #
coedge $-1 $278 $279 $171 $280 forward $105 $-1 #
coedge $-1 $281 $107 $282 $283 reversed $67 $-1 #
coedge $-1 $107 $281 $169 $280 reversed $67 $-1 #
coedge $-1 $284 $285 $107 $173 reversed $167 $-1 #
edge $-1 $286 -11.377730973019844 $287 11.377730973019844 $172 $288 forward 7 unknown #
face $-1 $289 $290 $39 $-1 $291 forward single #
loop $-1 $-1 $292 $108 #
plane-surface $-1 -42.902331848932171 -139.61540012498568 106.18047886897594 1 0 0 0 0.73135370988377701 -0.68199835119979291 forward_v I I I I #
coedge $-1 $293 $294 $295 $296 reversed $109 $-1 #
coedge $-1 $179 $111 $297 $298 reversed $70 $-1 #
coedge $-1 $111 $178 $293 $299 reversed $70 $-1 #
coedge $-1 $295 $300 $111 $181 forward $290 $-1 #
edge $-1 $301 35.407955578613304 $302 38.49685195541727 $180 $303 forward 7 unknown #
loop $-1 $-1 $187 $112 #
plane-surface $-1 -35.354164121592881 -34.399744483879545 8.0652950695489523 0 -0.73135370988377701 0.68199835119979291 1 0 0 forward_v I I I I #
loop $-1 $-1 $304 $72 #
coedge $-1 $185 $185 $186 $305 reversed $113 $-1 #
coedge $-1 $186 $186 $185 $305 forward $115 $-1 #
coedge $-1 $187 $187 $116 $188 forward $182 $-1 #
edge $-1 $306 -4.4951988266163937e-015 $306 6.283185307179596 $187 $307 forward 7 unknown #
loop $-1 $-1 $194 $117 #
plane-surface $-1 -35.354164121592881 -34.399744483879545 8.0652950695489523 0 -0.73135370988377701 0.68199835119979291 1 0 0 forward_v I I I I #
loop $-1 $-1 $308 $75 #
coedge $-1 $192 $192 $193 $309 reversed $118 $-1 #
coedge $-1 $193 $193 $192 $309 forward $120 $-1 #
coedge $-1 $194 $194 $121 $195 forward $189 $-1 #
edge $-1 $310 -4.4951988266163937e-015 $310 6.283185307179596 $194 $311 forward 7 unknown #
face $-1 $312 $313 $42 $-1 $314 reversed single #
loop $-1 $-1 $315 $122 #
plane-surface $-1 20.776254142938825 -139.61540012498568 106.18047886897594 1 0 0 0 0.73135370988377701 -0.68199835119979291 forward_v I I I I #
coedge $-1 $316 $317 $318 $319 reversed $123 $-1 #
coedge $-1 $201 $125 $320 $321 reversed $79 $-1 #
coedge $-1 $125 $200 $316 $322 reversed $79 $-1 #
coedge $-1 $318 $323 $125 $203 forward $324 $-1 #
edge $-1 $325 35.407955578613304 $326 38.49685195541727 $202 $327 forward 7 unknown #
loop $-1 $-1 $209 $126 #
plane-surface $-1 28.324421870278115 -34.399744483879545 8.0652950695489523 0 -0.73135370988377701 0.68199835119979291 1 0 0 forward_v I I I I #
loop $-1 $-1 $328 $81 #
coedge $-1 $207 $207 $208 $329 reversed $127 $-1 #
coedge $-1 $208 $208 $207 $329 forward $129 $-1 #
coedge $-1 $209 $209 $130 $210 forward $204 $-1 #
edge $-1 $330 -4.4951988266163937e-015 $330 6.283185307179596 $209 $331 forward 7 unknown #
loop $-1 $-1 $216 $131 #
plane-surface $-1 28.324421870278115 -34.399744483879545 8.0652950695489523 0 -0.73135370988377701 0.68199835119979291 1 0 0 forward_v I I I I #
loop $-1 $-1 $332 $84 #
coedge $-1 $214 $214 $215 $333 reversed $132 $-1 #
coedge $-1 $215 $215 $214 $333 forward $134 $-1 #
coedge $-1 $216 $216 $135 $217 forward $211 $-1 #
edge $-1 $334 -4.4951988266163937e-015 $334 6.283185307179596 $216 $335 forward 7 unknown #
face $-1 $336 $337 $45 $-1 $338 reversed single #
loop $-1 $-1 $339 $136 #
plane-surface $-1 64.096482442670236 119.94537835273496 138.34909763840469 -1 0 0 0 0.84804810408105047 0.52991925155115449 forward_v I I I I #
coedge $-1 $340 $341 $342 $343 reversed $137 $-1 #
coedge $-1 $223 $139 $344 $345 reversed $88 $-1 #
coedge $-1 $139 $222 $340 $346 reversed $88 $-1 #
coedge $-1 $342 $347 $139 $225 forward $348 $-1 #
edge $-1 $349 25.572944692487944 $350 30.328417222643903 $224 $351 forward 7 unknown #
loop $-1 $-1 $231 $140 #
plane-surface $-1 50.736747361609503 -2.0584292170172915 62.112660008711941 0 0.84804810408105047 0.52991925155115449 1 0 0 forward_v I I I I #
loop $-1 $-1 $352 $90 #
coedge $-1 $229 $229 $230 $353 reversed $141 $-1 #
coedge $-1 $230 $230 $229 $353 forward $143 $-1 #
coedge $-1 $231 $231 $144 $232 forward $226 $-1 #
edge $-1 $354 -9.4485272514436921e-018 $354 6.2831853071796004 $231 $355 forward 7 unknown #
loop $-1 $-1 $238 $145 #
plane-surface $-1 50.736747361609503 -2.0584292170172915 62.112660008711941 0 0.84804810408105047 0.52991925155115449 1 0 0 forward_v I I I I #
loop $-1 $-1 $356 $93 #
coedge $-1 $236 $236 $237 $357 reversed $146 $-1 #
coedge $-1 $237 $237 $236 $357 forward $148 $-1 #
coedge $-1 $238 $238 $149 $239 forward $233 $-1 #
edge $-1 $358 -9.4485272514436921e-018 $358 6.2831853071796004 $238 $359 forward 7 unknown #
face $-1 $360 $361 $36 $-1 $362 reversed single #
loop $-1 $-1 $363 $150 #
plane-surface $-1 -71.932126834925384 0 0 1 0 0 0 0 -1 forward_v I I I I #
coedge $-1 $364 $251 $365 $366 forward $151 $-1 #
coedge $-1 $367 $153 $364 $368 forward $97 $-1 #
coedge $-1 $153 $367 $369 $370 forward $97 $-1 #
coedge $-1 $254 $253 $153 $247 reversed $255 $-1 #
edge $-1 $371 -34.399744483879537 $372 34.399744483879537 $246 $373 forward 7 unknown #
coedge $-1 $155 $154 $374 $375 forward $61 $-1 #
coedge $-1 $376 $377 $154 $250 reversed $361 $-1 #
edge $-1 $257 -71.932126834925384 $378 71.932126834925384 $249 $379 forward 7 unknown #
coedge $-1 $243 $380 $155 $252 reversed $151 $-1 #
edge $-1 $381 -71.932126834925384 $256 71.932126834925384 $251 $382 forward 7 unknown #
coedge $-1 $246 $156 $380 $383 forward $255 $-1 #
coedge $-1 $156 $246 $376 $384 reversed $255 $-1 #
loop $-1 $-1 $253 $360 #
vertex $-1 $157 $385 #
vertex $-1 $157 $386 #
straight-curve $-1 71.932126834925384 0 11.377730973019844 0 1 0 I I #
face $-1 $387 $388 $37 $-1 $389 forward single #
loop $-1 $-1 $390 $158 #
plane-surface $-1 -71.932126834925384 0 0 1 0 0 0 0 -1 forward_v I I I I #
coedge $-1 $269 $391 $271 $392 forward $159 $-1 #
coedge $-1 $161 $271 $393 $394 reversed $101 $-1 #
coedge $-1 $395 $267 $161 $265 forward $396 $-1 #
edge $-1 $273 0.76816264366780906 $397 7.3290997674572917 $264 $398 forward 7 unknown #
coedge $-1 $163 $162 $390 $399 reversed $64 $-1 #
coedge $-1 $264 $400 $162 $268 forward $396 $-1 #
edge $-1 $401 -38.133922740926103 $273 -29.46248544707246 $267 $402 forward 7 unknown #
coedge $-1 $403 $262 $163 $270 forward $159 $-1 #
edge $-1 $272 29.46248544707246 $404 38.133922740926103 $269 $405 forward 7 unknown #
coedge $-1 $263 $164 $262 $392 reversed $101 $-1 #
vertex $-1 $270 $406 #
vertex $-1 $268 $407 #
straight-curve $-1 -63.260689541071741 0 4.8167938492303595 0 -1 0 I I #
face $-1 $408 $409 $38 $-1 $410 reversed single #
loop $-1 $-1 $411 $166 #
plane-surface $-1 75.849949031052972 -13.796860627235317 0 0 -1 0 0 0 -1 forward_v I I I I #
coedge $-1 $412 $169 $413 $414 forward $105 $-1 #
coedge $-1 $169 $412 $284 $415 forward $105 $-1 #
edge $-1 $286 -18.373578693063294 $416 -13.796860627235317 $169 $417 forward 7 unknown #
coedge $-1 $171 $170 $418 $419 forward $67 $-1 #
coedge $-1 $420 $421 $170 $283 forward $422 $-1 #
edge $-1 $423 13.796860627235317 $287 18.373578693063294 $282 $424 forward 7 unknown #
coedge $-1 $425 $172 $279 $415 reversed $167 $-1 #
coedge $-1 $172 $425 $420 $426 reversed $167 $-1 #
vertex $-1 $280 $427 #
vertex $-1 $426 $428 #
straight-curve $-1 71.932126834925384 -18.373578693063294 0 0 0 1 I I #
face $-1 $-1 $429 $39 $-1 $430 reversed single #
loop $-1 $-1 $180 $174 #
plane-surface $-1 0 0 11.377730973019844 0 0 1 1 0 0 forward_v I I I I #
coedge $-1 $431 $432 $433 $434 reversed $175 $-1 #
coedge $-1 $435 $177 $179 $299 forward $109 $-1 #
coedge $-1 $177 $435 $431 $436 forward $109 $-1 #
coedge $-1 $433 $180 $177 $296 forward $290 $-1 #
edge $-1 $302 10.12891433345715 $437 25.225249788135731 $295 $438 forward 7 unknown #
coedge $-1 $439 $440 $178 $298 forward $429 $-1 #
edge $-1 $441 -45.02494436493901 $301 -41.712508461468126 $297 $442 forward 7 unknown #
edge $-1 $302 -4.5291845227629839 $441 -1.004247040074496e-014 $179 $443 forward 7 unknown #
coedge $-1 $180 $433 $439 $444 forward $290 $-1 #
vertex $-1 $181 $445 #
vertex $-1 $181 $446 #
straight-curve $-1 -27.80599639425359 -69.807700062492842 11.377730973019844 0 1 0 I I #
coedge $-1 $304 $304 $-1 $447 reversed $184 $-1 #
edge $-1 $448 0 $448 6.2831853071796004 $185 $449 forward 7 unknown #
vertex $-1 $188 $450 #
ellipse-curve $-1 -38.589093147595435 -32.855296295477551 9.7215130212844016 0 -0.73135370988377701 0.68199835119979291 0.5 0 0 1 I I #
coedge $-1 $308 $308 $-1 $451 reversed $191 $-1 #
edge $-1 $452 0 $452 6.2831853071796004 $192 $453 forward 7 unknown #
vertex $-1 $195 $454 #
ellipse-curve $-1 -32.119235095590327 -32.855296295477551 9.7215130212844016 0 -0.73135370988377701 0.68199835119979291 0.5 0 0 1 I I #
face $-1 $-1 $324 $42 $-1 $455 forward single #
loop $-1 $-1 $456 $196 #
plane-surface $-1 0 -34.399744483879537 0 0 1 0 0 0 1 forward_v I I I I #
coedge $-1 $457 $458 $459 $460 reversed $197 $-1 #
coedge $-1 $461 $199 $201 $322 forward $123 $-1 #
coedge $-1 $199 $461 $457 $462 forward $123 $-1 #
coedge $-1 $459 $202 $199 $319 forward $324 $-1 #
edge $-1 $326 -21.710378662478348 $463 -6.6140432077997673 $318 $464 forward 7 unknown #
coedge $-1 $465 $466 $200 $321 forward $313 $-1 #
edge $-1 $467 -45.02494436493901 $325 -41.712508461468126 $320 $468 forward 7 unknown #
edge $-1 $326 -4.5291845227629839 $467 -1.004247040074496e-014 $201 $469 forward 7 unknown #
coedge $-1 $202 $459 $465 $470 forward $324 $-1 #
loop $-1 $-1 $459 $312 #
vertex $-1 $321 $471 #
vertex $-1 $203 $472 #
straight-curve $-1 35.872589597617406 -69.807700062492842 11.377730973019844 0 1 0 I I #
coedge $-1 $328 $328 $-1 $473 reversed $206 $-1 #
edge $-1 $474 0 $474 6.2831853071796004 $207 $475 forward 7 unknown #
vertex $-1 $210 $476 #
ellipse-curve $-1 25.089492844275554 -32.855296295477551 9.7215130212844016 0 -0.73135370988377701 0.68199835119979291 0.5 0 0 1 I I #
coedge $-1 $332 $332 $-1 $477 reversed $213 $-1 #
edge $-1 $478 0 $478 6.2831853071796004 $214 $479 forward 7 unknown #
vertex $-1 $217 $480 #
ellipse-curve $-1 31.559350896280662 -32.855296295477551 9.7215130212844016 0 -0.73135370988377701 0.68199835119979291 0.5 0 0 1 I I #
face $-1 $-1 $348 $45 $-1 $481 forward single #
loop $-1 $-1 $482 $218 #
plane-surface $-1 0 34.399744483879537 0 0 -1 0 0 0 -1 forward_v I I I I #
coedge $-1 $483 $484 $485 $486 reversed $219 $-1 #
coedge $-1 $487 $221 $223 $346 forward $137 $-1 #
coedge $-1 $221 $487 $483 $488 forward $137 $-1 #
coedge $-1 $485 $224 $221 $343 forward $348 $-1 #
edge $-1 $350 12.008638599744017 $489 38.728108761865485 $342 $490 forward 7 unknown #
coedge $-1 $491 $492 $222 $345 forward $337 $-1 #
edge $-1 $493 -65.407164991343677 $349 -57.796817846182499 $344 $494 forward 7 unknown #
edge $-1 $350 59.825532055954234 $493 68.799488967759132 $223 $495 forward 7 unknown #
coedge $-1 $224 $485 $491 $496 forward $348 $-1 #
loop $-1 $-1 $485 $336 #
vertex $-1 $345 $497 #
vertex $-1 $225 $498 #
straight-curve $-1 37.377012280548769 59.972689176367481 11.377730973019844 0 -1 0 I I #
coedge $-1 $352 $352 $-1 $499 reversed $228 $-1 #
edge $-1 $500 0 $500 6.2831853071796004 $229 $501 forward 7 unknown #
vertex $-1 $232 $502 #
ellipse-curve $-1 45.011146612583474 32.022008218801545 7.5725574004392664 0 0.84804810408105047 0.52991925155115449 0.5 0 0 1 I I #
coedge $-1 $356 $356 $-1 $503 reversed $235 $-1 #
edge $-1 $504 0 $504 6.2831853071796004 $236 $505 forward 7 unknown #
vertex $-1 $239 $506 #
ellipse-curve $-1 56.462348110635531 32.022008218801545 7.5725574004392664 0 0.84804810408105047 0.52991925155115449 0.5 0 0 1 I I #
face $-1 $-1 $255 $36 $-1 $507 reversed single #
loop $-1 $-1 $376 $240 #
plane-surface $-1 0 34.399744483879537 0 0 -1 0 0 0 -1 forward_v I I I I #
coedge $-1 $508 $374 $377 $509 forward $241 $-1 #
coedge $-1 $380 $243 $244 $368 reversed $151 $-1 #
coedge $-1 $374 $508 $243 $366 reversed $241 $-1 #
edge $-1 $381 -11.377730973019844 $510 11.377730973019844 $365 $511 forward 7 unknown #
coedge $-1 $245 $244 $508 $512 forward $97 $-1 #
edge $-1 $372 -71.932126834925384 $510 71.932126834925384 $364 $513 forward 7 unknown #
coedge $-1 $377 $376 $245 $370 reversed $361 $-1 #
edge $-1 $514 -71.932126834925384 $371 71.932126834925384 $369 $515 forward 7 unknown #
vertex $-1 $247 $516 #
vertex $-1 $383 $517 #
straight-curve $-1 71.932126834925384 0 -11.377730973019844 0 -1 0 I I #
coedge $-1 $363 $365 $248 $375 reversed $241 $-1 #
edge $-1 $378 -34.399744483879537 $381 34.399744483879537 $374 $518 forward 7 unknown #
coedge $-1 $369 $249 $254 $384 forward $361 $-1 #
coedge $-1 $249 $369 $363 $509 reversed $361 $-1 #
vertex $-1 $250 $519 #
straight-curve $-1 0 34.399744483879537 11.377730973019844 -1 0 0 I I #
coedge $-1 $251 $364 $253 $383 reversed $151 $-1 #
vertex $-1 $375 $520 #
straight-curve $-1 0 -34.399744483879537 11.377730973019844 1 0 0 I I #
edge $-1 $256 -11.377730973019844 $372 11.377730973019844 $253 $521 forward 7 unknown #
edge $-1 $257 -11.377730973019844 $371 11.377730973019844 $254 $522 forward 7 unknown #
point $-1 71.932126834925384 -34.399744483879537 11.377730973019844 #
point $-1 71.932126834925384 34.399744483879537 11.377730973019844 #
face $-1 $-1 $396 $37 $-1 $523 reversed single #
loop $-1 $-1 $393 $259 #
plane-surface $-1 0 0 11.377730973019844 0 0 1 1 0 0 forward_v I I I I #
coedge $-1 $524 $525 $266 $399 forward $260 $-1 #
coedge $-1 $262 $403 $526 $527 reversed $159 $-1 #
edge $-1 $528 -7.3290997674572917 $272 -0.76816264366780906 $262 $529 forward 7 unknown #
coedge $-1 $526 $530 $263 $394 forward $388 $-1 #
edge $-1 $397 -34.399744483879537 $528 34.399744483879537 $393 $531 forward 7 unknown #
coedge $-1 $400 $264 $530 $532 reversed $396 $-1 #
loop $-1 $-1 $264 $387 #
vertex $-1 $265 $533 #
straight-curve $-1 -63.260689541071741 -34.399744483879537 4.0486312055625504 0 0 1 I I #
edge $-1 $404 -34.399744483879537 $401 34.399744483879537 $390 $534 forward 7 unknown #
coedge $-1 $267 $395 $524 $535 forward $396 $-1 #
vertex $-1 $399 $536 #
straight-curve $-1 -33.798204093999281 -34.399744483879537 4.8167938492303595 1 0 0 I I #
coedge $-1 $391 $269 $525 $537 reversed $159 $-1 #
vertex $-1 $399 $538 #
straight-curve $-1 -33.798204093999281 34.399744483879537 4.8167938492303595 -1 0 0 I I #
point $-1 -63.260689541071741 34.399744483879537 4.8167938492303595 #
point $-1 -63.260689541071741 -34.399744483879537 4.8167938492303595 #
face $-1 $-1 $422 $38 $-1 $539 forward single #
loop $-1 $-1 $540 $275 #
plane-surface $-1 79.767771227180546 -16.085219660149306 0 -1 0 0 0 0 1 forward_v I I I I #
coedge $-1 $413 $541 $542 $543 forward $276 $-1 #
coedge $-1 $279 $278 $544 $545 forward $105 $-1 #
coedge $-1 $418 $411 $278 $414 reversed $276 $-1 #
edge $-1 $416 -3.9178221961275739 $546 3.9178221961275739 $413 $547 forward 7 unknown #
edge $-1 $548 -3.9178221961275739 $286 3.9178221961275739 $284 $549 forward 7 unknown #
vertex $-1 $414 $550 #
straight-curve $-1 71.932126834925384 0 -11.377730973019844 0 1 0 I I #
coedge $-1 $541 $413 $281 $419 reversed $276 $-1 #
edge $-1 $423 -11.377730973019844 $416 11.377730973019844 $418 $551 forward 7 unknown #
coedge $-1 $552 $282 $285 $426 forward $422 $-1 #
coedge $-1 $282 $552 $541 $553 forward $422 $-1 #
loop $-1 $-1 $282 $408 #
vertex $-1 $283 $554 #
straight-curve $-1 71.932126834925384 0 11.377730973019844 0 -1 0 I I #
coedge $-1 $285 $284 $540 $555 reversed $167 $-1 #
edge $-1 $287 -3.9178221961275739 $556 3.9178221961275739 $285 $557 forward 7 unknown #
point $-1 71.932126834925398 -18.373578693063294 -11.377730973019844 #
point $-1 71.932126834925398 -18.373578693063294 11.377730973019844 #
loop $-1 $-1 $297 $289 #
plane-surface $-1 0 -34.399744483879537 0 0 1 0 0 0 1 forward_v I I I I #
coedge $-1 $432 $292 $294 $436 reversed $175 $-1 #
coedge $-1 $292 $431 $558 $559 reversed $175 $-1 #
coedge $-1 $300 $295 $292 $434 forward $290 $-1 #
edge $-1 $437 -38.49685195541727 $560 -35.407955578613304 $433 $561 forward 7 unknown #
coedge $-1 $294 $293 $440 $562 reversed $109 $-1 #
edge $-1 $563 1.004247040074496e-014 $437 4.5291845227629839 $431 $564 forward 7 unknown #
vertex $-1 $296 $565 #
straight-curve $-1 -17.67708206079644 -31.310848107075572 11.377730973019844 -1 0 0 I I #
coedge $-1 $558 $297 $300 $444 reversed $429 $-1 #
coedge $-1 $297 $558 $435 $562 forward $429 $-1 #
vertex $-1 $298 $566 #
straight-curve $-1 -27.80599639425359 -34.399744483879537 53.09023943448797 0 0 1 I I #
straight-curve $-1 -27.80599639425359 -34.399744483879545 8.0652950695489523 0 -0.68199835119979291 -0.73135370988377701 I I #
edge $-1 $560 -42.902331848932171 $301 -27.80599639425359 $439 $567 forward 7 unknown #
point $-1 -27.80599639425359 -34.399744483879537 11.377730973019844 #
point $-1 -27.80599639425359 -31.310848107075568 11.377730973019844 #
edge $-1 $568 1 $568 0 $304 $-1 forward 7 unknown #
vertex $-1 $305 $569 #
ellipse-curve $-1 -38.589093147595435 -31.572575945521177 8.5253569727156595 0 -0.73135370988377701 0.68199835119979291 0.5 0 0 1 I I #
point $-1 -38.089093147595435 -32.855296295477558 9.7215130212844052 #
edge $-1 $570 1 $570 0 $308 $-1 forward 7 unknown #
vertex $-1 $309 $571 #
ellipse-curve $-1 -32.119235095590327 -31.572575945521177 8.5253569727156595 0 -0.73135370988377701 0.68199835119979291 0.5 0 0 1 I I #
point $-1 -31.619235095590327 -32.855296295477558 9.7215130212844052 #
plane-surface $-1 0 0 11.377730973019844 0 0 1 1 0 0 forward_v I I I I #
coedge $-1 $466 $465 $458 $572 forward $313 $-1 #
coedge $-1 $458 $315 $317 $462 reversed $197 $-1 #
coedge $-1 $315 $457 $456 $572 reversed $197 $-1 #
coedge $-1 $323 $318 $315 $460 forward $324 $-1 #
edge $-1 $463 -38.49685195541727 $573 -35.407955578613304 $459 $574 forward 7 unknown #
coedge $-1 $317 $316 $466 $575 reversed $123 $-1 #
edge $-1 $576 1.004247040074496e-014 $463 4.5291845227629839 $457 $577 forward 7 unknown #
vertex $-1 $319 $578 #
straight-curve $-1 14.162210935139058 -31.310848107075572 11.377730973019844 -1 0 0 I I #
coedge $-1 $456 $320 $323 $470 reversed $313 $-1 #
coedge $-1 $320 $456 $461 $575 forward $313 $-1 #
vertex $-1 $321 $579 #
straight-curve $-1 35.872589597617406 -34.399744483879537 53.09023943448797 0 0 1 I I #
straight-curve $-1 35.872589597617406 -34.399744483879545 8.0652950695489523 0 -0.68199835119979291 -0.73135370988377701 I I #
edge $-1 $573 20.776254142938825 $325 35.872589597617406 $465 $580 forward 7 unknown #
point $-1 35.872589597617406 -34.399744483879537 11.377730973019844 #
point $-1 35.872589597617406 -31.310848107075568 11.377730973019844 #
edge $-1 $581 1 $581 0 $328 $-1 forward 7 unknown #
vertex $-1 $329 $582 #
ellipse-curve $-1 25.089492844275554 -31.572575945521177 8.5253569727156595 0 -0.73135370988377701 0.68199835119979291 0.5 0 0 1 I I #
point $-1 25.589492844275554 -32.855296295477558 9.7215130212844052 #
edge $-1 $583 1 $583 0 $332 $-1 forward 7 unknown #
vertex $-1 $333 $584 #
ellipse-curve $-1 31.559350896280662 -31.572575945521177 8.5253569727156595 0 -0.73135370988377701 0.68199835119979291 0.5 0 0 1 I I #
point $-1 32.059350896280662 -32.855296295477558 9.7215130212844052 #
plane-surface $-1 0 0 11.377730973019844 0 0 1 1 0 0 forward_v I I I I #
coedge $-1 $492 $491 $484 $585 forward $337 $-1 #
coedge $-1 $484 $339 $341 $488 reversed $219 $-1 #
coedge $-1 $339 $483 $482 $585 reversed $219 $-1 #
coedge $-1 $347 $342 $339 $486 forward $348 $-1 #
edge $-1 $489 -30.328417222643903 $586 -25.572944692487944 $485 $587 forward 7 unknown #
coedge $-1 $341 $340 $492 $588 reversed $137 $-1 #
edge $-1 $589 -68.799488967759132 $489 -59.825532055954234 $483 $590 forward 7 unknown #
vertex $-1 $343 $591 #
straight-curve $-1 25.368373680804751 29.644271953723578 11.377730973019844 1 0 0 I I #
coedge $-1 $482 $344 $347 $496 reversed $337 $-1 #
coedge $-1 $344 $482 $487 $588 forward $337 $-1 #
vertex $-1 $345 $592 #
straight-curve $-1 37.377012280548769 34.399744483879537 69.174548819202343 0 0 1 I I #
straight-curve $-1 37.377012280548769 -2.0584292170172915 62.112660008711941 0 0.52991925155115449 -0.84804810408105047 I I #
edge $-1 $586 -64.096482442670236 $349 -37.377012280548769 $491 $593 forward 7 unknown #
point $-1 37.377012280548769 34.399744483879537 11.377730973019844 #
point $-1 37.377012280548769 29.644271953723578 11.377730973019844 #
edge $-1 $594 1 $594 0 $352 $-1 forward 7 unknown #
vertex $-1 $353 $595 #
ellipse-curve $-1 45.011146612583474 31.173960114720536 7.0426381488881384 0 0.84804810408105047 0.52991925155115449 0.5 0 0 1 I I #
point $-1 45.511146612583474 32.022008218801588 7.572557400439293 #
edge $-1 $596 1 $596 0 $356 $-1 forward 7 unknown #
vertex $-1 $357 $597 #
ellipse-curve $-1 56.462348110635531 31.173960114720536 7.0426381488881384 0 0.84804810408105047 0.52991925155115449 0.5 0 0 1 I I #
point $-1 56.962348110635531 32.022008218801588 7.572557400439293 #
plane-surface $-1 71.932126834925384 0 0 -1 0 0 0 0 1 forward_v I I I I #
coedge $-1 $365 $363 $367 $512 reversed $241 $-1 #
edge $-1 $378 -11.377730973019844 $514 11.377730973019844 $377 $598 forward 7 unknown #
vertex $-1 $512 $599 #
straight-curve $-1 -71.932126834925384 -34.399744483879537 0 0 0 -1 I I #
edge $-1 $510 -34.399744483879537 $514 34.399744483879537 $508 $600 forward 7 unknown #
straight-curve $-1 0 -34.399744483879537 -11.377730973019844 -1 0 0 I I #
vertex $-1 $370 $601 #
straight-curve $-1 0 34.399744483879537 -11.377730973019844 1 0 0 I I #
point $-1 71.932126834925384 34.399744483879537 -11.377730973019844 #
point $-1 71.932126834925384 -34.399744483879537 -11.377730973019844 #
straight-curve $-1 -71.932126834925384 0 11.377730973019844 0 -1 0 I I #
point $-1 -71.932126834925384 34.399744483879537 11.377730973019844 #
point $-1 -71.932126834925384 -34.399744483879537 11.377730973019844 #
straight-curve $-1 71.932126834925384 -34.399744483879537 0 0 0 -1 I I #
straight-curve $-1 71.932126834925384 34.399744483879537 0 0 0 -1 I I #
plane-surface $-1 0 -34.399744483879537 0 0 1 0 0 0 1 forward_v I I I I #
coedge $-1 $602 $390 $400 $535 reversed $260 $-1 #
coedge $-1 $390 $602 $403 $537 forward $260 $-1 #
coedge $-1 $603 $393 $391 $527 forward $388 $-1 #
edge $-1 $528 63.260689541071741 $604 71.932126834925384 $391 $605 forward 7 unknown #
vertex $-1 $527 $606 #
straight-curve $-1 -63.260689541071741 34.399744483879537 4.0486312055625504 0 0 -1 I I #
coedge $-1 $393 $603 $395 $532 forward $388 $-1 #
straight-curve $-1 -63.260689541071741 0 11.377730973019844 0 1 0 I I #
edge $-1 $607 -71.932126834925384 $397 -63.260689541071741 $395 $608 forward 7 unknown #
point $-1 -63.260689541071741 -34.399744483879537 11.377730973019842 #
straight-curve $-1 -71.932126834925384 0 4.8167938492303595 0 -1 0 I I #
edge $-1 $607 -11.377730973019844 $401 -4.8167938492303595 $524 $609 forward 7 unknown #
point $-1 -71.932126834925384 -34.399744483879537 4.8167938492303595 #
edge $-1 $604 -11.377730973019844 $404 -4.8167938492303595 $403 $610 forward 7 unknown #
point $-1 -71.932126834925384 34.399744483879537 4.8167938492303595 #
plane-surface $-1 0 0 11.377730973019844 0 0 1 1 0 0 forward_v I I I I #
coedge $-1 $544 $611 $425 $555 forward $409 $-1 #
coedge $-1 $411 $418 $421 $553 reversed $276 $-1 #
coedge $-1 $611 $544 $411 $543 reversed $409 $-1 #
edge $-1 $612 -11.377730973019844 $546 11.377730973019844 $542 $613 forward 7 unknown #
coedge $-1 $542 $540 $412 $545 reversed $409 $-1 #
edge $-1 $546 -2.2883590329139896 $548 2.2883590329139878 $544 $614 forward 7 unknown #
vertex $-1 $545 $615 #
straight-curve $-1 75.849949031052972 -13.796860627235317 -11.377730973019844 1 0 0 I I #
vertex $-1 $555 $616 #
straight-curve $-1 75.849949031052972 -18.373578693063294 -11.377730973019844 -1 0 0 I I #
point $-1 71.932126834925398 -13.796860627235317 -11.377730973019844 #
straight-curve $-1 71.932126834925384 -13.796860627235317 0 0 0 -1 I I #
coedge $-1 $421 $420 $611 $617 forward $422 $-1 #
edge $-1 $612 -3.9178221961275739 $423 3.9178221961275739 $541 $618 forward 7 unknown #
point $-1 71.932126834925398 -13.796860627235317 11.377730973019844 #
edge $-1 $556 -11.377730973019844 $548 11.377730973019844 $540 $619 forward 7 unknown #
vertex $-1 $617 $620 #
straight-curve $-1 75.849949031052972 -18.373578693063294 11.377730973019844 1 0 0 I I #
coedge $-1 $440 $439 $432 $559 forward $429 $-1 #
edge $-1 $560 41.712508461468126 $563 45.02494436493901 $558 $621 forward 7 unknown #
vertex $-1 $444 $622 #
straight-curve $-1 -42.902331848932171 -69.807700062492842 11.377730973019844 0 -1 0 I I #
edge $-1 $563 -25.225249788135731 $441 -10.12891433345715 $440 $623 forward 7 unknown #
vertex $-1 $562 $624 #
straight-curve $-1 -42.902331848932171 -34.399744483879545 8.0652950695489523 0 0.68199835119979291 0.73135370988377701 I I #
point $-1 -42.902331848932171 -31.310848107075568 11.377730973019844 #
point $-1 -27.80599639425359 -34.399744483879537 8.0652950695489594 #
straight-curve $-1 0 -34.399744483879537 11.377730973019844 1 0 0 I I #
vertex $-1 $447 $625 #
point $-1 -38.089093147595435 -31.572575945521177 8.5253569727156595 #
vertex $-1 $451 $626 #
point $-1 -31.619235095590327 -31.572575945521177 8.5253569727156595 #
edge $-1 $573 41.712508461468126 $576 45.02494436493901 $456 $627 forward 7 unknown #
vertex $-1 $470 $628 #
straight-curve $-1 20.776254142938825 -69.807700062492842 11.377730973019844 0 -1 0 I I #
edge $-1 $576 6.6140432077997673 $467 21.710378662478348 $466 $629 forward 7 unknown #
vertex $-1 $575 $630 #
straight-curve $-1 20.776254142938825 -34.399744483879545 8.0652950695489523 0 0.68199835119979291 0.73135370988377701 I I #
point $-1 20.776254142938825 -31.310848107075568 11.377730973019844 #
point $-1 35.872589597617406 -34.399744483879537 8.0652950695489594 #
straight-curve $-1 0 -34.399744483879537 11.377730973019844 1 0 0 I I #
vertex $-1 $473 $631 #
point $-1 25.589492844275554 -31.572575945521177 8.5253569727156595 #
vertex $-1 $477 $632 #
point $-1 32.059350896280662 -31.572575945521177 8.5253569727156595 #
edge $-1 $586 57.796817846182499 $589 65.407164991343677 $482 $633 forward 7 unknown #
vertex $-1 $496 $634 #
straight-curve $-1 64.096482442670236 59.972689176367481 11.377730973019844 0 1 0 I I #
edge $-1 $589 -38.728108761865485 $493 -12.008638599744017 $492 $635 forward 7 unknown #
vertex $-1 $588 $636 #
straight-curve $-1 64.096482442670236 -2.0584292170172915 62.112660008711941 0 -0.52991925155115449 0.84804810408105047 I I #
point $-1 64.096482442670236 29.644271953723578 11.377730973019844 #
point $-1 37.377012280548769 34.399744483879537 3.7673838278586587 #
straight-curve $-1 0 34.399744483879537 11.377730973019844 -1 0 0 I I #
vertex $-1 $499 $637 #
point $-1 45.511146612583474 31.173960114720536 7.0426381488881384 #
vertex $-1 $503 $638 #
point $-1 56.962348110635531 31.173960114720536 7.0426381488881384 #
straight-curve $-1 -71.932126834925384 34.399744483879537 0 0 0 -1 I I #
point $-1 -71.932126834925384 -34.399744483879537 -11.377730973019844 #
straight-curve $-1 -71.932126834925384 0 -11.377730973019844 0 1 0 I I #
point $-1 -71.932126834925384 34.399744483879537 -11.377730973019844 #
coedge $-1 $525 $524 $603 $639 reversed $260 $-1 #
coedge $-1 $530 $526 $602 $639 forward $388 $-1 #
vertex $-1 $527 $640 #
straight-curve $-1 0 34.399744483879537 11.377730973019844 -1 0 0 I I #
point $-1 -63.260689541071741 34.399744483879537 11.377730973019842 #
vertex $-1 $639 $641 #
straight-curve $-1 0 -34.399744483879537 11.377730973019844 1 0 0 I I #
straight-curve $-1 -71.932126834925384 -34.399744483879537 0 0 0 -1 I I #
straight-curve $-1 -71.932126834925384 34.399744483879537 0 0 0 -1 I I #
coedge $-1 $540 $542 $552 $617 reversed $409 $-1 #
vertex $-1 $617 $642 #
straight-curve $-1 79.767771227180546 -13.796860627235317 0 0 0 -1 I I #
straight-curve $-1 79.767771227180546 -16.085219660149306 -11.377730973019844 0 -1 0 I I #
point $-1 79.767771227180546 -13.796860627235317 -11.377730973019844 #
point $-1 79.767771227180546 -18.373578693063294 -11.377730973019844 #
edge $-1 $556 -2.2883590329139878 $612 2.2883590329139896 $611 $643 forward 7 unknown #
straight-curve $-1 75.849949031052972 -13.796860627235317 11.377730973019844 -1 0 0 I I #
straight-curve $-1 79.767771227180546 -18.373578693063294 0 0 0 -1 I I #
point $-1 79.767771227180546 -18.373578693063294 11.377730973019844 #
straight-curve $-1 -42.902331848932171 -34.399744483879537 53.09023943448797 0 0 -1 I I #
point $-1 -42.902331848932171 -34.399744483879537 11.377730973019844 #
straight-curve $-1 -17.67708206079644 -34.399744483879537 8.0652950695489629 1 0 0 I I #
point $-1 -42.902331848932171 -34.399744483879537 8.0652950695489594 #
point $-1 -38.589093147595435 -31.206899090579288 8.1843577971157622 #
point $-1 -32.119235095590327 -31.206899090579288 8.1843577971157622 #
straight-curve $-1 20.776254142938825 -34.399744483879537 53.09023943448797 0 0 -1 I I #
point $-1 20.776254142938825 -34.399744483879537 11.377730973019844 #
straight-curve $-1 14.162210935139058 -34.399744483879537 8.0652950695489629 1 0 0 I I #
point $-1 20.776254142938825 -34.399744483879537 8.0652950695489594 #
point $-1 25.089492844275554 -31.206899090579288 8.1843577971157622 #
point $-1 31.559350896280662 -31.206899090579288 8.1843577971157622 #
straight-curve $-1 64.096482442670236 34.399744483879537 69.174548819202343 0 0 -1 I I #
point $-1 64.096482442670236 34.399744483879537 11.377730973019844 #
straight-curve $-1 25.368373680804751 34.399744483879537 3.7673838278586622 -1 0 0 I I #
point $-1 64.096482442670236 34.399744483879537 3.7673838278586587 #
point $-1 45.011146612583474 30.749936062680014 6.777678523112562 #
point $-1 56.462348110635531 30.749936062680014 6.777678523112562 #
edge $-1 $604 -34.399744483879537 $607 34.399744483879537 $602 $644 forward 7 unknown #
point $-1 -71.932126834925384 34.399744483879537 11.377730973019844 #
point $-1 -71.932126834925384 -34.399744483879537 11.377730973019844 #
point $-1 79.767771227180546 -13.796860627235317 11.377730973019844 #
straight-curve $-1 79.767771227180546 -16.085219660149306 11.377730973019844 0 1 0 I I #
straight-curve $-1 -71.932126834925384 0 11.377730973019844 0 -1 0 I I #
End-of-ACIS-data 