500 0 5 0           
7 Unknown 11 ACIS 5.0 NT 24 Fri Mar 26 18:22:05 1999 
-1 9.9999999999999995e-007 1e-010 
body $-1 $5 $-1 $6 #
body $-1 $7 $-1 $8 #
body $-1 $9 $-1 $10 #
body $-1 $11 $-1 $12 #
body $-1 $13 $-1 $14 #
lump $-1 $-1 $15 $0 #
transform $-1 1 0 0 0 1 0 0 0 1 63.744621112704856 38.799069122406593 13.27151483314791 1 rotate no_reflect no_shear #
lump $-1 $-1 $16 $1 #
transform $-1 1 0 0 0 1 0 0 0 1 63.744621112704856 38.799069122406593 13.27151483314791 1 rotate no_reflect no_shear #
lump $-1 $-1 $17 $2 #
transform $-1 1 0 0 0 1 0 0 0 1 63.744621112704856 38.799069122406593 13.27151483314791 1 rotate no_reflect no_shear #
lump $-1 $-1 $18 $3 #
transform $-1 1 0 0 0 1 0 0 0 1 63.744621112704856 38.799069122406593 13.27151483314791 1 rotate no_reflect no_shear #
lump $-1 $-1 $19 $4 #
transform $-1 1 0 0 0 1 0 0 0 1 63.744621112704856 38.799069122406593 13.27151483314791 1 rotate no_reflect no_shear #
shell $-1 $-1 $-1 $20 $-1 $5 #
shell $-1 $-1 $-1 $21 $-1 $7 #
shell $-1 $-1 $-1 $22 $-1 $9 #
shell $-1 $-1 $-1 $23 $-1 $11 #
shell $-1 $-1 $-1 $24 $-1 $13 #
face $-1 $25 $26 $15 $-1 $27 forward single #
face $-1 $28 $29 $16 $-1 $30 reversed single #
face $-1 $31 $32 $17 $-1 $33 reversed single #
face $-1 $34 $35 $18 $-1 $36 forward single #
face $-1 $37 $38 $19 $-1 $39 forward single #
face $-1 $40 $41 $15 $-1 $42 reversed single #
loop $-1 $-1 $43 $20 #
plane-surface $-1 0 0 13.27151483314791 0 0 1 1 0 0 forward_v I I I I #
face $-1 $44 $45 $16 $-1 $46 reversed single #
loop $-1 $-1 $47 $21 #
plane-surface $-1 0 -31.911494361638386 9.9458393579754016 0 0 1 1 0 0 forward_v I I I I #
face $-1 $48 $49 $17 $-1 $50 reversed single #
loop $-1 $-1 $51 $22 #
plane-surface $-1 48.030702671695344 -17.5559267707693 186.7765719642673 0 -1 0 -0.64278761758704617 0 -0.76604443648966558 forward_v I I I I #
face $-1 $52 $53 $18 $-1 $54 forward single #
loop $-1 $55 $56 $23 #
cone-surface $-1 59.781749923517481 -22.890207363698497 9.8318268056732219 -0.64278761758704617 0 -0.76604443648966558 0.38302221824483279 0 -0.32139380879352308 1 I I 0 1 0.5 forward I I I I #
face $-1 $57 $58 $19 $-1 $59 forward single #
loop $-1 $60 $61 $24 #
cone-surface $-1 59.781749923517481 -19.689639007940979 9.8318268056732219 -0.64278761758704617 0 -0.76604443648966558 0.38302221824483279 0 -0.32139380879352308 1 I I 0 1 0.5 forward I I I I #
face $-1 $62 $63 $15 $-1 $64 reversed single #
loop $-1 $-1 $65 $25 #
plane-surface $-1 0 0 -13.27151483314791 0 0 1 1 0 0 forward_v I I I I #
coedge $-1 $66 $67 $68 $69 forward $26 $-1 #
face $-1 $70 $71 $16 $-1 $72 reversed single #
loop $-1 $-1 $73 $28 #
plane-surface $-1 0 -25.02391960087018 11.608677095561655 0 -1 0 0 0 -1 forward_v I I I I #
coedge $-1 $74 $75 $76 $77 reversed $29 $-1 #
face $-1 $78 $79 $17 $-1 $80 forward single #
loop $-1 $-1 $81 $31 #
plane-surface $-1 -33.917803606353608 -21.289923185819738 89.114147245208841 0.64278761758704617 0 0.76604443648966558 0.76604443648966558 0 -0.64278761758704617 forward_v I I I I #
coedge $-1 $82 $83 $84 $85 reversed $32 $-1 #
face $-1 $-1 $86 $18 $-1 $87 forward single #
loop $-1 $88 $89 $34 #
cone-surface $-1 59.296530311587453 -22.890207363698497 9.2535646020701225 -0.64278761758704617 0 -0.76604443648966558 0.1915111091224164 0 -0.16069690439676154 1 I I -0.70710678118654746 0.70710678118654746 0.25 forward I I I I #
loop $-1 $-1 $90 $23 #
coedge $-1 $56 $56 $91 $92 reversed $35 $-1 #
face $-1 $-1 $93 $19 $-1 $94 forward single #
loop $-1 $95 $96 $37 #
cone-surface $-1 59.296530311587453 -19.689639007940979 9.2535646020701225 -0.64278761758704617 0 -0.76604443648966558 0.1915111091224164 0 -0.16069690439676154 1 I I -0.70710678118654746 0.70710678118654746 0.25 forward I I I I #
loop $-1 $-1 $97 $24 #
coedge $-1 $61 $61 $98 $99 reversed $38 $-1 #
face $-1 $100 $101 $15 $-1 $102 reversed single #
loop $-1 $-1 $103 $40 #
plane-surface $-1 0 -38.799069122406593 0 0 1 0 0 0 1 forward_v I I I I #
coedge $-1 $104 $105 $106 $107 forward $41 $-1 #
coedge $-1 $108 $43 $109 $110 forward $26 $-1 #
coedge $-1 $43 $108 $111 $112 forward $26 $-1 #
coedge $-1 $113 $114 $43 $69 reversed $115 $-1 #
edge $-1 $116 -38.799069122406593 $117 38.799069122406593 $68 $118 forward 7 unknown #
face $-1 $119 $120 $16 $-1 $121 reversed single #
loop $-1 $-1 $122 $44 #
plane-surface $-1 -63.744621112704856 0 0 1 0 0 0 0 -1 forward_v I I I I #
coedge $-1 $123 $124 $125 $126 reversed $45 $-1 #
coedge $-1 $127 $47 $128 $129 reversed $29 $-1 #
coedge $-1 $47 $127 $123 $130 forward $29 $-1 #
coedge $-1 $125 $131 $47 $77 forward $132 $-1 #
edge $-1 $133 -22.843321941587398 $134 -9.0681724200509866 $76 $135 forward 7 unknown #
face $-1 $136 $137 $17 $-1 $138 forward single #
loop $-1 $-1 $139 $48 #
plane-surface $-1 0 -25.02391960087018 11.608677095561655 0 -1 0 0 0 -1 forward_v I I I I #
coedge $-1 $140 $141 $142 $143 reversed $49 $-1 #
coedge $-1 $83 $51 $144 $145 reversed $32 $-1 #
coedge $-1 $51 $82 $140 $146 reversed $32 $-1 #
coedge $-1 $142 $147 $51 $85 forward $137 $-1 #
edge $-1 $148 -39.72926977685718 $149 -32.452572813548983 $84 $150 forward 7 unknown #
loop $-1 $-1 $91 $52 #
plane-surface $-1 -33.917803606353608 -21.289923185819738 89.114147245208841 0.64278761758704617 0 0.76604443648966558 0.76604443648966558 0 -0.64278761758704617 forward_v I I I I #
loop $-1 $-1 $151 $34 #
coedge $-1 $89 $89 $90 $152 reversed $53 $-1 #
coedge $-1 $90 $90 $89 $152 forward $55 $-1 #
coedge $-1 $91 $91 $56 $92 forward $86 $-1 #
edge $-1 $153 0 $153 6.2831853071796004 $91 $154 forward 7 unknown #
loop $-1 $-1 $98 $57 #
plane-surface $-1 -33.917803606353608 -21.289923185819738 89.114147245208841 0.64278761758704617 0 0.76604443648966558 0.76604443648966558 0 -0.64278761758704617 forward_v I I I I #
loop $-1 $-1 $155 $37 #
coedge $-1 $96 $96 $97 $156 reversed $58 $-1 #
coedge $-1 $97 $97 $96 $156 forward $60 $-1 #
coedge $-1 $98 $98 $61 $99 forward $93 $-1 #
edge $-1 $157 0 $157 6.2831853071796004 $98 $158 forward 7 unknown #
face $-1 $159 $160 $15 $-1 $161 reversed single #
loop $-1 $-1 $162 $62 #
plane-surface $-1 -63.744621112704856 0 0 1 0 0 0 0 -1 forward_v I I I I #
coedge $-1 $163 $111 $164 $165 forward $63 $-1 #
coedge $-1 $166 $65 $163 $167 forward $41 $-1 #
coedge $-1 $65 $166 $168 $169 forward $41 $-1 #
coedge $-1 $114 $113 $65 $107 reversed $115 $-1 #
edge $-1 $170 -38.799069122406593 $171 38.799069122406593 $106 $172 forward 7 unknown #
coedge $-1 $67 $66 $173 $174 forward $26 $-1 #
coedge $-1 $175 $176 $66 $110 reversed $160 $-1 #
edge $-1 $117 -63.744621112704856 $177 63.744621112704856 $109 $178 forward 7 unknown #
coedge $-1 $103 $179 $67 $112 reversed $63 $-1 #
edge $-1 $180 -63.744621112704856 $116 63.744621112704856 $111 $181 forward 7 unknown #
coedge $-1 $106 $68 $179 $182 forward $115 $-1 #
coedge $-1 $68 $106 $175 $183 reversed $115 $-1 #
loop $-1 $-1 $113 $159 #
vertex $-1 $69 $184 #
vertex $-1 $69 $185 #
straight-curve $-1 63.744621112704856 0 13.27151483314791 0 1 0 I I #
face $-1 $186 $187 $16 $-1 $188 forward single #
loop $-1 $-1 $128 $70 #
plane-surface $-1 0 -38.799069122406593 0 0 1 0 0 0 1 forward_v I I I I #
coedge $-1 $189 $190 $191 $192 forward $71 $-1 #
coedge $-1 $191 $73 $75 $130 reversed $45 $-1 #
coedge $-1 $73 $191 $193 $194 reversed $45 $-1 #
coedge $-1 $195 $76 $73 $126 forward $132 $-1 #
edge $-1 $134 4.1415008101945743 $196 7.4671762853670804 $125 $197 forward 7 unknown #
coedge $-1 $75 $74 $189 $198 reversed $29 $-1 #
coedge $-1 $199 $200 $74 $129 forward $120 $-1 #
edge $-1 $201 -63.744621112704856 $133 63.744621112704856 $128 $202 forward 7 unknown #
edge $-1 $203 -63.744621112704856 $134 63.744621112704856 $123 $204 forward 7 unknown #
coedge $-1 $76 $195 $199 $205 forward $132 $-1 #
loop $-1 $-1 $125 $186 #
vertex $-1 $129 $206 #
vertex $-1 $77 $207 #
straight-curve $-1 63.744621112704856 -15.955747180819193 9.9458393579754016 0 1 0 I I #
face $-1 $-1 $208 $17 $-1 $209 reversed single #
loop $-1 $-1 $142 $78 #
plane-surface $-1 0 0 13.27151483314791 0 0 1 1 0 0 forward_v I I I I #
coedge $-1 $210 $211 $141 $212 reversed $79 $-1 #
coedge $-1 $213 $81 $83 $146 forward $49 $-1 #
coedge $-1 $81 $213 $139 $212 forward $49 $-1 #
coedge $-1 $214 $84 $81 $143 forward $137 $-1 #
edge $-1 $149 6.9109651778594312 $215 14.378958007960311 $142 $216 forward 7 unknown #
coedge $-1 $217 $218 $82 $145 forward $208 $-1 #
edge $-1 $219 -86.222645014973764 $148 -80.116771148985748 $144 $220 forward 7 unknown #
edge $-1 $149 117.99018888504077 $219 127.4892422254097 $83 $221 forward 7 unknown #
coedge $-1 $84 $214 $217 $222 forward $137 $-1 #
vertex $-1 $145 $223 #
vertex $-1 $85 $224 #
straight-curve $-1 24.015351335847672 -17.5559267707693 13.271514833147904 -1 0 0 I I #
coedge $-1 $151 $151 $-1 $225 reversed $88 $-1 #
edge $-1 $226 0 $226 6.2831853071796004 $89 $227 forward 7 unknown #
vertex $-1 $92 $228 #
ellipse-curve $-1 60.10627263105075 -22.890207363698497 10.21857790015391 0.64278761758704617 0 0.76604443648966558 0.38302221824483279 0 -0.32139380879352308 1 I I #
coedge $-1 $155 $155 $-1 $229 reversed $95 $-1 #
edge $-1 $230 0 $230 6.2831853071796004 $96 $231 forward 7 unknown #
vertex $-1 $99 $232 #
ellipse-curve $-1 60.10627263105075 -19.689639007940979 10.21857790015391 0.64278761758704617 0 0.76604443648966558 0.38302221824483279 0 -0.32139380879352308 1 I I #
face $-1 $-1 $115 $15 $-1 $233 reversed single #
loop $-1 $-1 $175 $100 #
plane-surface $-1 0 38.799069122406593 0 0 -1 0 0 0 -1 forward_v I I I I #
coedge $-1 $234 $173 $176 $235 forward $101 $-1 #
coedge $-1 $179 $103 $104 $167 reversed $63 $-1 #
coedge $-1 $173 $234 $103 $165 reversed $101 $-1 #
edge $-1 $180 -13.27151483314791 $236 13.27151483314791 $164 $237 forward 7 unknown #
coedge $-1 $105 $104 $234 $238 forward $41 $-1 #
edge $-1 $171 -63.744621112704856 $236 63.744621112704856 $163 $239 forward 7 unknown #
coedge $-1 $176 $175 $105 $169 reversed $160 $-1 #
edge $-1 $240 -63.744621112704856 $170 63.744621112704856 $168 $241 forward 7 unknown #
vertex $-1 $107 $242 #
vertex $-1 $182 $243 #
straight-curve $-1 63.744621112704856 0 -13.27151483314791 0 -1 0 I I #
coedge $-1 $162 $164 $108 $174 reversed $101 $-1 #
edge $-1 $177 -38.799069122406593 $180 38.799069122406593 $173 $244 forward 7 unknown #
coedge $-1 $168 $109 $114 $183 forward $160 $-1 #
coedge $-1 $109 $168 $162 $235 reversed $160 $-1 #
vertex $-1 $110 $245 #
straight-curve $-1 0 38.799069122406593 13.27151483314791 -1 0 0 I I #
coedge $-1 $111 $163 $113 $182 reversed $63 $-1 #
vertex $-1 $174 $246 #
straight-curve $-1 0 -38.799069122406593 13.27151483314791 1 0 0 I I #
edge $-1 $116 -13.27151483314791 $171 13.27151483314791 $113 $247 forward 7 unknown #
edge $-1 $117 -13.27151483314791 $170 13.27151483314791 $114 $248 forward 7 unknown #
point $-1 63.744621112704856 -38.799069122406593 13.27151483314791 #
point $-1 63.744621112704856 38.799069122406593 13.27151483314791 #
face $-1 $-1 $132 $16 $-1 $249 reversed single #
loop $-1 $-1 $193 $119 #
plane-surface $-1 0 0 13.27151483314791 0 0 1 1 0 0 forward_v I I I I #
coedge $-1 $250 $122 $127 $198 forward $71 $-1 #
coedge $-1 $122 $250 $251 $252 reversed $71 $-1 #
coedge $-1 $124 $123 $122 $192 reversed $45 $-1 #
edge $-1 $253 -7.4671762853670804 $203 -4.1415008101945743 $122 $254 forward 7 unknown #
coedge $-1 $251 $255 $124 $194 forward $187 $-1 #
edge $-1 $196 -63.744621112704856 $253 63.744621112704856 $193 $256 forward 7 unknown #
coedge $-1 $131 $125 $255 $257 reversed $132 $-1 #
vertex $-1 $126 $258 #
straight-curve $-1 63.744621112704856 -25.02391960087018 5.8043385477808274 0 0 1 I I #
edge $-1 $203 9.0681724200509866 $201 22.843321941587398 $189 $259 forward 7 unknown #
coedge $-1 $260 $128 $131 $205 reversed $120 $-1 #
coedge $-1 $128 $260 $250 $261 forward $120 $-1 #
vertex $-1 $129 $262 #
straight-curve $-1 0 -38.799069122406593 9.9458393579754016 1 0 0 I I #
vertex $-1 $198 $263 #
straight-curve $-1 0 -25.02391960087018 9.9458393579754016 1 0 0 I I #
edge $-1 $264 -13.27151483314791 $133 -9.9458393579754016 $131 $265 forward 7 unknown #
point $-1 63.744621112704856 -38.799069122406593 9.9458393579754016 #
point $-1 63.744621112704856 -25.02391960087018 9.9458393579754016 #
loop $-1 $-1 $144 $136 #
plane-surface $-1 63.744621112704856 0 0 -1 0 0 0 0 1 forward_v I I I I #
coedge $-1 $211 $139 $266 $267 reversed $79 $-1 #
coedge $-1 $139 $210 $214 $268 reversed $79 $-1 #
edge $-1 $269 -127.4892422254097 $215 -117.99018888504077 $139 $270 forward 7 unknown #
coedge $-1 $141 $140 $218 $271 reversed $49 $-1 #
coedge $-1 $147 $142 $211 $268 forward $137 $-1 #
vertex $-1 $268 $272 #
straight-curve $-1 56.467924149396637 -10.644961592909869 13.271514833147918 0 -1 0 I I #
coedge $-1 $266 $144 $147 $222 reversed $208 $-1 #
coedge $-1 $144 $266 $213 $271 forward $208 $-1 #
vertex $-1 $145 $273 #
straight-curve $-1 63.744621112704856 -17.5559267707693 93.388285982133652 0 0 1 I I #
straight-curve $-1 -33.917803606353608 -17.5559267707693 89.114147245208841 0.76604443648966558 0 -0.64278761758704617 I I #
edge $-1 $274 -25.02391960087018 $148 -17.5559267707693 $217 $275 forward 7 unknown #
point $-1 63.744621112704856 -17.5559267707693 13.27151483314791 #
point $-1 56.467924149396659 -17.5559267707693 13.271514833147904 #
edge $-1 $276 1 $276 0 $151 $-1 forward 7 unknown #
vertex $-1 $152 $277 #
ellipse-curve $-1 59.457227215984211 -22.890207363698497 9.4450757111925387 0.64278761758704617 0 0.76604443648966558 0.38302221824483279 0 -0.32139380879352308 1 I I #
point $-1 60.489294849295575 -22.890207363698497 9.8971840913603817 #
edge $-1 $278 1 $278 0 $155 $-1 forward 7 unknown #
vertex $-1 $156 $279 #
ellipse-curve $-1 59.457227215984211 -19.689639007940979 9.4450757111925387 0.64278761758704617 0 0.76604443648966558 0.38302221824483279 0 -0.32139380879352308 1 I I #
point $-1 60.489294849295575 -19.689639007940979 9.8971840913603817 #
plane-surface $-1 63.744621112704856 0 0 -1 0 0 0 0 1 forward_v I I I I #
coedge $-1 $164 $162 $166 $238 reversed $101 $-1 #
edge $-1 $177 -13.27151483314791 $240 13.27151483314791 $176 $280 forward 7 unknown #
vertex $-1 $238 $281 #
straight-curve $-1 -63.744621112704856 -38.799069122406593 0 0 0 -1 I I #
edge $-1 $236 -38.799069122406593 $240 38.799069122406593 $234 $282 forward 7 unknown #
straight-curve $-1 0 -38.799069122406593 -13.27151483314791 -1 0 0 I I #
vertex $-1 $169 $283 #
straight-curve $-1 0 38.799069122406593 -13.27151483314791 1 0 0 I I #
point $-1 63.744621112704856 38.799069122406593 -13.27151483314791 #
point $-1 63.744621112704856 -38.799069122406593 -13.27151483314791 #
straight-curve $-1 -63.744621112704856 0 13.27151483314791 0 -1 0 I I #
point $-1 -63.744621112704856 38.799069122406593 13.27151483314791 #
point $-1 -63.744621112704856 -38.799069122406593 13.27151483314791 #
straight-curve $-1 63.744621112704856 -38.799069122406593 0 0 0 -1 I I #
straight-curve $-1 63.744621112704856 38.799069122406593 0 0 0 -1 I I #
plane-surface $-1 63.744621112704856 0 0 -1 0 0 0 0 1 forward_v I I I I #
coedge $-1 $190 $189 $200 $261 reversed $71 $-1 #
coedge $-1 $284 $193 $190 $252 forward $187 $-1 #
edge $-1 $253 25.02391960087018 $285 38.799069122406593 $190 $286 forward 7 unknown #
vertex $-1 $252 $287 #
straight-curve $-1 -63.744621112704856 -25.02391960087018 5.8043385477808274 0 0 -1 I I #
coedge $-1 $193 $284 $195 $257 forward $187 $-1 #
straight-curve $-1 0 -25.02391960087018 13.27151483314791 -1 0 0 I I #
edge $-1 $264 -38.799069122406593 $196 -25.02391960087018 $195 $288 forward 7 unknown #
point $-1 63.744621112704856 -25.02391960087018 13.271514833147908 #
straight-curve $-1 -63.744621112704856 -15.955747180819193 9.9458393579754016 0 -1 0 I I #
coedge $-1 $200 $199 $284 $289 reversed $120 $-1 #
edge $-1 $285 -13.27151483314791 $201 -9.9458393579754016 $250 $290 forward 7 unknown #
point $-1 -63.744621112704856 -38.799069122406593 9.9458393579754016 #
point $-1 -63.744621112704856 -25.02391960087018 9.9458393579754016 #
vertex $-1 $257 $291 #
straight-curve $-1 63.744621112704856 -38.799069122406593 0 0 0 -1 I I #
coedge $-1 $218 $217 $210 $267 forward $208 $-1 #
edge $-1 $274 80.116771148985748 $269 86.222645014973764 $266 $292 forward 7 unknown #
edge $-1 $215 56.467924149396659 $274 63.744621112704856 $214 $293 forward 7 unknown #
vertex $-1 $267 $294 #
straight-curve $-1 -33.917803606353608 -25.023919600870176 89.114147245208841 -0.76604443648966558 0 0.64278761758704617 I I #
edge $-1 $269 -14.378958007960307 $219 -6.9109651778594312 $218 $295 forward 7 unknown #
point $-1 56.467924149396659 -25.02391960087018 13.27151483314791 #
point $-1 63.744621112704856 -17.5559267707693 7.165640967159888 #
vertex $-1 $222 $296 #
straight-curve $-1 63.744621112704856 0 13.27151483314791 0 1 0 I I #
vertex $-1 $225 $297 #
point $-1 59.840249434229051 -22.890207363698497 9.1236819023990154 #
vertex $-1 $229 $298 #
point $-1 59.840249434229051 -19.689639007940979 9.1236819023990154 #
straight-curve $-1 -63.744621112704856 38.799069122406593 0 0 0 -1 I I #
point $-1 -63.744621112704856 -38.799069122406593 -13.27151483314791 #
straight-curve $-1 -63.744621112704856 0 -13.27151483314791 0 1 0 I I #
point $-1 -63.744621112704856 38.799069122406593 -13.27151483314791 #
coedge $-1 $255 $251 $260 $289 forward $187 $-1 #
vertex $-1 $252 $299 #
straight-curve $-1 -63.744621112704856 0 13.27151483314791 0 -1 0 I I #
point $-1 -63.744621112704856 -25.02391960087018 13.271514833147908 #
straight-curve $-1 63.744621112704856 0 13.27151483314791 0 1 0 I I #
edge $-1 $285 -63.744621112704856 $264 63.744621112704856 $260 $300 forward 7 unknown #
straight-curve $-1 -63.744621112704856 -38.799069122406593 0 0 0 -1 I I #
point $-1 63.744621112704856 -38.799069122406593 13.27151483314791 #
straight-curve $-1 63.744621112704856 -25.023919600870176 93.388285982133652 0 0 -1 I I #
straight-curve $-1 0 -25.02391960087018 13.27151483314791 1 0 0 I I #
point $-1 63.744621112704856 -25.023919600870176 7.165640967159888 #
straight-curve $-1 63.744621112704849 -10.644961592909869 7.1656409671598809 0 1 0 I I #
point $-1 63.744621112704856 -25.02391960087018 13.271514833147908 #
point $-1 59.135833407190695 -22.890207363698497 9.0620534929477063 #
point $-1 59.135833407190695 -19.689639007940979 9.0620534929477063 #
point $-1 -63.744621112704856 -38.799069122406593 13.27151483314791 #
straight-curve $-1 0 -38.799069122406593 13.27151483314791 1 0 0 I I #
End-of-ACIS-data 