500 0 8 0           
7 Unknown 11 ACIS 5.0 NT 24 Thu Mar 25 16:48:36 1999 
-1 9.9999999999999995e-007 1e-010 
body $-1 $8 $-1 $9 #
body $-1 $10 $-1 $11 #
body $-1 $12 $-1 $13 #
body $-1 $14 $-1 $15 #
body $-1 $16 $-1 $17 #
body $-1 $18 $-1 $19 #
body $-1 $20 $-1 $21 #
body $-1 $22 $-1 $23 #
lump $-1 $-1 $24 $0 #
transform $-1 1 0 0 0 1 0 0 0 1 65.470748008667258 40.6523253527861 18.736147717070239 1 rotate no_reflect no_shear #
lump $-1 $-1 $25 $1 #
transform $-1 1 0 0 0 1 0 0 0 1 65.470748008667258 40.6523253527861 18.736147717070239 1 rotate no_reflect no_shear #
lump $-1 $-1 $26 $2 #
transform $-1 1 0 0 0 1 0 0 0 1 65.470748008667258 40.6523253527861 18.736147717070239 1 rotate no_reflect no_shear #
lump $-1 $-1 $27 $3 #
transform $-1 1 0 0 0 1 0 0 0 1 65.470748008667258 40.6523253527861 18.736147717070239 1 rotate no_reflect no_shear #
lump $-1 $-1 $28 $4 #
transform $-1 1 0 0 0 1 0 0 0 1 65.470748008667258 40.6523253527861 18.736147717070239 1 rotate no_reflect no_shear #
lump $-1 $-1 $29 $5 #
transform $-1 1 0 0 0 1 0 0 0 1 65.470748008667258 40.6523253527861 18.736147717070239 1 rotate no_reflect no_shear #
lump $-1 $-1 $30 $6 #
transform $-1 1 0 0 0 1 0 0 0 1 65.470748008667258 40.6523253527861 18.736147717070239 1 rotate no_reflect no_shear #
lump $-1 $-1 $31 $7 #
transform $-1 1 0 0 0 1 0 0 0 1 65.470748008667258 40.6523253527861 18.736147717070239 1 rotate no_reflect no_shear #
shell $-1 $-1 $-1 $32 $-1 $8 #
shell $-1 $-1 $-1 $33 $-1 $10 #
shell $-1 $-1 $-1 $34 $-1 $12 #
shell $-1 $-1 $-1 $35 $-1 $14 #
shell $-1 $-1 $-1 $36 $-1 $16 #
shell $-1 $-1 $-1 $37 $-1 $18 #
shell $-1 $-1 $-1 $38 $-1 $20 #
shell $-1 $-1 $-1 $39 $-1 $22 #
face $-1 $40 $41 $24 $-1 $42 forward single #
face $-1 $43 $44 $25 $-1 $45 forward single #
face $-1 $46 $47 $26 $-1 $48 reversed single #
face $-1 $49 $50 $27 $-1 $51 forward single #
face $-1 $52 $53 $28 $-1 $54 forward single #
face $-1 $55 $56 $29 $-1 $57 reversed single #
face $-1 $58 $59 $30 $-1 $60 forward single #
face $-1 $61 $62 $31 $-1 $63 forward single #
face $-1 $64 $65 $24 $-1 $66 reversed single #
loop $-1 $-1 $67 $32 #
plane-surface $-1 0 0 18.736147717070239 0 0 1 1 0 0 forward_v I I I I #
face $-1 $68 $69 $25 $-1 $70 reversed single #
loop $-1 $-1 $71 $33 #
plane-surface $-1 -58.878165088355054 0 16.027259632736467 0 0 1 1 0 0 forward_v I I I I #
face $-1 $72 $73 $26 $-1 $74 reversed single #
loop $-1 $-1 $75 $34 #
plane-surface $-1 -37.131646645332737 -1.2226643676799256 69.81511126655289 0 0.85716730853699208 0.51503806187062418 1 0 0 forward_v I I I I #
face $-1 $76 $77 $27 $-1 $78 forward single #
loop $-1 $79 $80 $35 #
cone-surface $-1 -43.626190440779922 34.17883314168143 8.9000270328686621 0 -0.85716730853699208 -0.51503806187062418 1.5 0 0 1 I I 0 1 1.5 forward I I I I #
face $-1 $81 $82 $28 $-1 $83 forward single #
loop $-1 $84 $85 $36 #
cone-surface $-1 -30.637102849885537 34.17883314168143 8.9000270328686621 0 -0.85716730853699208 -0.51503806187062418 1.5 0 0 1 I I 0 1 1.5 forward I I I I #
face $-1 $86 $87 $29 $-1 $88 reversed single #
loop $-1 $-1 $89 $37 #
plane-surface $-1 -37.131646645332737 -40.65232535278605 0.12342264971728412 0 -0.85716730853699208 0.51503806187062418 1 0 0 forward_v I I I I #
face $-1 $90 $91 $30 $-1 $92 forward single #
loop $-1 $93 $94 $38 #
cone-surface $-1 -43.626190440779922 -34.17883314168143 8.900027032868655 0 0.85716730853699208 -0.51503806187062418 1.5 0 0 1 I I 0 1 1.5 forward I I I I #
face $-1 $95 $96 $31 $-1 $97 forward single #
loop $-1 $98 $99 $39 #
cone-surface $-1 -30.637102849885537 -34.17883314168143 8.900027032868655 0 0.85716730853699208 -0.51503806187062418 1.5 0 0 1 I I 0 1 1.5 forward I I I I #
face $-1 $100 $101 $24 $-1 $102 reversed single #
loop $-1 $-1 $103 $40 #
plane-surface $-1 0 0 -18.736147717070239 0 0 1 1 0 0 forward_v I I I I #
coedge $-1 $104 $105 $106 $107 forward $41 $-1 #
face $-1 $108 $109 $25 $-1 $110 reversed single #
loop $-1 $-1 $111 $43 #
plane-surface $-1 -58.878165088355054 0 8.2412972619286862 0 0 1 1 0 0 forward_v I I I I #
coedge $-1 $112 $113 $114 $115 forward $44 $-1 #
face $-1 $116 $117 $26 $-1 $118 forward single #
loop $-1 $-1 $119 $46 #
plane-surface $-1 -21.977711122622619 111.01610534930597 137.25496559376091 -1 0 0 0 0.85716730853699208 0.51503806187062418 forward_v I I I I #
coedge $-1 $120 $121 $122 $123 reversed $47 $-1 #
face $-1 $-1 $124 $27 $-1 $125 forward single #
loop $-1 $126 $127 $49 #
cone-surface $-1 -43.626190440779922 32.654292009371481 7.9839903359405753 0 -0.85716730853699208 -0.51503806187062418 0.75 0 0 1 I I -0.70710678118654791 0.70710678118654702 0.75 forward I I I I #
loop $-1 $-1 $128 $35 #
coedge $-1 $80 $80 $129 $130 reversed $50 $-1 #
face $-1 $-1 $131 $28 $-1 $132 forward single #
loop $-1 $133 $134 $52 #
cone-surface $-1 -30.637102849885537 32.654292009371481 7.9839903359405753 0 -0.85716730853699208 -0.51503806187062418 0.75 0 0 1 I I -0.70710678118654791 0.70710678118654702 0.75 forward I I I I #
loop $-1 $-1 $135 $36 #
coedge $-1 $85 $85 $136 $137 reversed $53 $-1 #
face $-1 $138 $139 $29 $-1 $140 reversed single #
loop $-1 $-1 $141 $55 #
plane-surface $-1 -21.977711122622619 -152.89109506977195 67.563276976925309 -1 0 0 0 -0.85716730853699208 0.51503806187062418 forward_v I I I I #
coedge $-1 $142 $143 $144 $145 reversed $56 $-1 #
face $-1 $-1 $146 $30 $-1 $147 forward single #
loop $-1 $148 $149 $58 #
cone-surface $-1 -43.626190440779922 -32.654292009371481 7.9839903359405682 0 0.85716730853699208 -0.51503806187062418 0.75 0 0 1 I I -0.70710678118654791 0.70710678118654702 0.75 forward I I I I #
loop $-1 $-1 $150 $38 #
coedge $-1 $94 $94 $151 $152 reversed $59 $-1 #
face $-1 $-1 $153 $31 $-1 $154 forward single #
loop $-1 $155 $156 $61 #
cone-surface $-1 -30.637102849885537 -32.654292009371481 7.9839903359405682 0 0.85716730853699208 -0.51503806187062418 0.75 0 0 1 I I -0.70710678118654791 0.70710678118654702 0.75 forward I I I I #
loop $-1 $-1 $157 $39 #
coedge $-1 $99 $99 $158 $159 reversed $62 $-1 #
face $-1 $160 $161 $24 $-1 $162 reversed single #
loop $-1 $-1 $163 $64 #
plane-surface $-1 0 -40.6523253527861 0 0 1 0 0 0 1 forward_v I I I I #
coedge $-1 $164 $165 $166 $167 forward $65 $-1 #
coedge $-1 $168 $67 $169 $170 forward $41 $-1 #
coedge $-1 $67 $168 $171 $172 forward $41 $-1 #
coedge $-1 $173 $174 $67 $107 reversed $175 $-1 #
edge $-1 $176 -40.6523253527861 $177 40.6523253527861 $106 $178 forward 7 unknown #
face $-1 $179 $180 $25 $-1 $181 reversed single #
loop $-1 $-1 $182 $68 #
plane-surface $-1 -52.285582168042851 0 12.134278447332576 -1 0 0 0 0 1 forward_v I I I I #
coedge $-1 $183 $184 $185 $186 forward $69 $-1 #
coedge $-1 $187 $71 $188 $189 reversed $44 $-1 #
coedge $-1 $71 $187 $190 $191 reversed $44 $-1 #
coedge $-1 $182 $192 $71 $115 reversed $109 $-1 #
edge $-1 $193 -40.6523253527861 $194 40.6523253527861 $114 $195 forward 7 unknown #
face $-1 $196 $197 $26 $-1 $198 forward single #
loop $-1 $-1 $199 $72 #
plane-surface $-1 -52.285582168042851 0 12.134278447332576 -1 0 0 0 0 1 forward_v I I I I #
coedge $-1 $200 $201 $202 $203 reversed $73 $-1 #
coedge $-1 $204 $75 $199 $205 forward $47 $-1 #
coedge $-1 $75 $204 $200 $206 forward $47 $-1 #
coedge $-1 $202 $207 $75 $123 forward $197 $-1 #
edge $-1 $208 -33.719758845376482 $209 -3.4118877999562507 $122 $210 forward 7 unknown #
loop $-1 $-1 $129 $76 #
plane-surface $-1 -37.131646645332737 -1.2226643676799256 69.81511126655289 0 0.85716730853699208 0.51503806187062418 1 0 0 forward_v I I I I #
loop $-1 $-1 $211 $49 #
coedge $-1 $127 $127 $128 $212 reversed $77 $-1 #
coedge $-1 $128 $128 $127 $212 forward $79 $-1 #
coedge $-1 $129 $129 $80 $130 forward $124 $-1 #
edge $-1 $213 1.0325617025178386e-015 $213 6.2831853071796013 $129 $214 forward 7 unknown #
loop $-1 $-1 $136 $81 #
plane-surface $-1 -37.131646645332737 -1.2226643676799256 69.81511126655289 0 0.85716730853699208 0.51503806187062418 1 0 0 forward_v I I I I #
loop $-1 $-1 $215 $52 #
coedge $-1 $134 $134 $135 $216 reversed $82 $-1 #
coedge $-1 $135 $135 $134 $216 forward $84 $-1 #
coedge $-1 $136 $136 $85 $137 forward $131 $-1 #
edge $-1 $217 1.0325617025178386e-015 $217 6.2831853071796013 $136 $218 forward 7 unknown #
face $-1 $219 $220 $29 $-1 $221 forward single #
loop $-1 $-1 $222 $86 #
plane-surface $-1 0 -40.6523253527861 0 0 1 0 0 0 1 forward_v I I I I #
coedge $-1 $223 $224 $225 $226 reversed $87 $-1 #
coedge $-1 $227 $89 $228 $229 forward $56 $-1 #
coedge $-1 $89 $227 $223 $230 forward $56 $-1 #
coedge $-1 $225 $222 $89 $145 forward $139 $-1 #
edge $-1 $231 -33.719758845376482 $232 -3.4118877999562507 $144 $233 forward 7 unknown #
loop $-1 $-1 $151 $90 #
plane-surface $-1 -37.131646645332737 -40.65232535278605 0.12342264971728412 0 -0.85716730853699208 0.51503806187062418 1 0 0 forward_v I I I I #
loop $-1 $-1 $234 $58 #
coedge $-1 $149 $149 $150 $235 reversed $91 $-1 #
coedge $-1 $150 $150 $149 $235 forward $93 $-1 #
coedge $-1 $151 $151 $94 $152 forward $146 $-1 #
edge $-1 $236 -1.8516223864663018e-015 $236 6.2831853071795987 $151 $237 forward 7 unknown #
loop $-1 $-1 $158 $95 #
plane-surface $-1 -37.131646645332737 -40.65232535278605 0.12342264971728412 0 -0.85716730853699208 0.51503806187062418 1 0 0 forward_v I I I I #
loop $-1 $-1 $238 $61 #
coedge $-1 $156 $156 $157 $239 reversed $96 $-1 #
coedge $-1 $157 $157 $156 $239 forward $98 $-1 #
coedge $-1 $158 $158 $99 $159 forward $153 $-1 #
edge $-1 $240 -1.8516223864663018e-015 $240 6.2831853071795987 $158 $241 forward 7 unknown #
face $-1 $242 $243 $24 $-1 $244 reversed single #
loop $-1 $-1 $245 $100 #
plane-surface $-1 -65.470748008667258 0 0 1 0 0 0 0 -1 forward_v I I I I #
coedge $-1 $246 $171 $247 $248 forward $101 $-1 #
coedge $-1 $249 $103 $246 $250 forward $65 $-1 #
coedge $-1 $103 $249 $251 $252 forward $65 $-1 #
coedge $-1 $174 $173 $103 $167 reversed $175 $-1 #
edge $-1 $253 -40.6523253527861 $254 40.6523253527861 $166 $255 forward 7 unknown #
coedge $-1 $105 $104 $256 $257 forward $41 $-1 #
coedge $-1 $258 $259 $104 $170 reversed $243 $-1 #
edge $-1 $177 -65.470748008667258 $260 65.470748008667258 $169 $261 forward 7 unknown #
coedge $-1 $163 $262 $105 $172 reversed $101 $-1 #
edge $-1 $263 -65.470748008667258 $176 65.470748008667258 $171 $264 forward 7 unknown #
coedge $-1 $166 $106 $262 $265 forward $175 $-1 #
coedge $-1 $106 $166 $258 $266 reversed $175 $-1 #
loop $-1 $-1 $173 $242 #
vertex $-1 $107 $267 #
vertex $-1 $107 $268 #
straight-curve $-1 65.470748008667258 0 18.736147717070239 0 1 0 I I #
face $-1 $269 $270 $25 $-1 $271 reversed single #
loop $-1 $-1 $272 $108 #
plane-surface $-1 0 -40.6523253527861 0 0 1 0 0 0 1 forward_v I I I I #
coedge $-1 $185 $114 $273 $274 reversed $109 $-1 #
coedge $-1 $275 $111 $272 $276 reversed $69 $-1 #
coedge $-1 $111 $275 $277 $278 reversed $69 $-1 #
coedge $-1 $192 $182 $111 $186 reversed $109 $-1 #
edge $-1 $279 -40.6523253527861 $280 40.6523253527861 $185 $281 forward 7 unknown #
coedge $-1 $113 $112 $282 $283 reversed $44 $-1 #
coedge $-1 $284 $285 $112 $189 forward $286 $-1 #
edge $-1 $287 -36.031665464489734 $194 -22.846499623865324 $188 $288 forward 7 unknown #
coedge $-1 $289 $273 $113 $191 forward $180 $-1 #
edge $-1 $193 22.846499623865324 $290 36.031665464489734 $190 $291 forward 7 unknown #
coedge $-1 $114 $185 $284 $292 reversed $109 $-1 #
vertex $-1 $191 $293 #
vertex $-1 $189 $294 #
straight-curve $-1 -52.285582168042851 0 16.027259632736467 0 1 0 I I #
face $-1 $-1 $295 $26 $-1 $296 reversed single #
loop $-1 $-1 $202 $116 #
plane-surface $-1 0 0 18.736147717070239 0 0 1 1 0 0 forward_v I I I I #
coedge $-1 $297 $298 $120 $205 reversed $117 $-1 #
coedge $-1 $201 $119 $121 $206 reversed $73 $-1 #
coedge $-1 $119 $200 $299 $300 reversed $73 $-1 #
coedge $-1 $301 $122 $119 $203 forward $197 $-1 #
edge $-1 $209 -26.03938044226183 $302 -14.855727321866887 $202 $303 forward 7 unknown #
coedge $-1 $121 $120 $304 $305 reversed $47 $-1 #
edge $-1 $208 59.59042422728875 $306 81.3046507055723 $199 $307 forward 7 unknown #
edge $-1 $308 -81.3046507055723 $209 -59.59042422728875 $200 $309 forward 7 unknown #
coedge $-1 $122 $301 $297 $310 forward $197 $-1 #
vertex $-1 $310 $311 #
vertex $-1 $123 $312 #
straight-curve $-1 -18.565823322666368 29.46867223239115 18.736147717070239 1 0 0 I I #
coedge $-1 $211 $211 $-1 $313 reversed $126 $-1 #
edge $-1 $314 0 $314 6.2831853071796004 $127 $315 forward 7 unknown #
vertex $-1 $130 $316 #
ellipse-curve $-1 -43.626190440779922 35.060498792588611 9.4297851833937631 0 0.85716730853699208 0.51503806187062418 1.5 0 0 1 I I #
coedge $-1 $215 $215 $-1 $317 reversed $133 $-1 #
edge $-1 $318 0 $318 6.2831853071796004 $134 $319 forward 7 unknown #
vertex $-1 $137 $320 #
ellipse-curve $-1 -30.637102849885537 35.060498792588611 9.4297851833937631 0 0.85716730853699208 0.51503806187062418 1.5 0 0 1 I I #
face $-1 $-1 $321 $29 $-1 $322 forward single #
loop $-1 $-1 $228 $138 #
plane-surface $-1 -52.285582168042851 0 12.134278447332576 -1 0 0 0 0 1 forward_v I I I I #
coedge $-1 $144 $323 $324 $325 forward $139 $-1 #
coedge $-1 $224 $141 $143 $230 reversed $87 $-1 #
coedge $-1 $141 $223 $326 $327 reversed $87 $-1 #
coedge $-1 $323 $144 $141 $226 forward $139 $-1 #
edge $-1 $232 -33.658215838745456 $328 -15.045490771392416 $225 $329 forward 7 unknown #
coedge $-1 $143 $142 $330 $331 reversed $56 $-1 #
coedge $-1 $324 $332 $142 $229 reversed $220 $-1 #
edge $-1 $231 -9.6574129376351635e-014 $333 21.714226478283503 $228 $334 forward 7 unknown #
edge $-1 $335 -21.714226478283503 $232 9.6574129376351635e-014 $223 $336 forward 7 unknown #
vertex $-1 $145 $337 #
vertex $-1 $145 $338 #
straight-curve $-1 -18.565823322666368 -40.6523253527861 0.12342264971721181 1 0 0 I I #
coedge $-1 $234 $234 $-1 $339 reversed $148 $-1 #
edge $-1 $340 0 $340 6.2831853071796004 $149 $341 forward 7 unknown #
vertex $-1 $152 $342 #
ellipse-curve $-1 -43.626190440779922 -35.060498792588596 9.4297851833937489 0 -0.85716730853699208 0.51503806187062418 1.5 0 0 1 I I #
coedge $-1 $238 $238 $-1 $343 reversed $155 $-1 #
edge $-1 $344 0 $344 6.2831853071796004 $156 $345 forward 7 unknown #
vertex $-1 $159 $346 #
ellipse-curve $-1 -30.637102849885537 -35.060498792588596 9.4297851833937489 0 -0.85716730853699208 0.51503806187062418 1.5 0 0 1 I I #
face $-1 $-1 $175 $24 $-1 $347 reversed single #
loop $-1 $-1 $258 $160 #
plane-surface $-1 0 40.6523253527861 0 0 -1 0 0 0 -1 forward_v I I I I #
coedge $-1 $348 $256 $259 $349 forward $161 $-1 #
coedge $-1 $262 $163 $164 $250 reversed $101 $-1 #
coedge $-1 $256 $348 $163 $248 reversed $161 $-1 #
edge $-1 $263 -18.736147717070239 $350 18.736147717070239 $247 $351 forward 7 unknown #
coedge $-1 $165 $164 $348 $352 forward $65 $-1 #
edge $-1 $254 -65.470748008667258 $350 65.470748008667258 $246 $353 forward 7 unknown #
coedge $-1 $259 $258 $165 $252 reversed $243 $-1 #
edge $-1 $354 -65.470748008667258 $253 65.470748008667258 $251 $355 forward 7 unknown #
vertex $-1 $167 $356 #
vertex $-1 $265 $357 #
straight-curve $-1 65.470748008667258 0 -18.736147717070239 0 -1 0 I I #
coedge $-1 $245 $247 $168 $257 reversed $161 $-1 #
edge $-1 $260 -40.6523253527861 $263 40.6523253527861 $256 $358 forward 7 unknown #
coedge $-1 $251 $169 $174 $266 forward $243 $-1 #
coedge $-1 $169 $251 $245 $349 reversed $243 $-1 #
vertex $-1 $170 $359 #
straight-curve $-1 0 40.6523253527861 18.736147717070239 -1 0 0 I I #
coedge $-1 $171 $246 $173 $265 reversed $101 $-1 #
vertex $-1 $257 $360 #
straight-curve $-1 0 -40.6523253527861 18.736147717070239 1 0 0 I I #
edge $-1 $176 -18.736147717070239 $254 18.736147717070239 $173 $361 forward 7 unknown #
edge $-1 $177 -18.736147717070239 $253 18.736147717070239 $174 $362 forward 7 unknown #
point $-1 65.470748008667258 -40.6523253527861 18.736147717070239 #
point $-1 65.470748008667258 40.6523253527861 18.736147717070239 #
face $-1 $-1 $286 $25 $-1 $363 reversed single #
loop $-1 $-1 $364 $179 #
plane-surface $-1 -65.470748008667258 0 0 1 0 0 0 0 -1 forward_v I I I I #
coedge $-1 $273 $289 $183 $276 forward $180 $-1 #
coedge $-1 $190 $272 $182 $274 forward $180 $-1 #
edge $-1 $280 2.174158038262398 $193 9.9601204090701785 $273 $365 forward 7 unknown #
coedge $-1 $184 $183 $364 $366 reversed $69 $-1 #
edge $-1 $367 -36.031665464489734 $280 -22.846499623865324 $272 $368 forward 7 unknown #
coedge $-1 $285 $284 $184 $278 forward $286 $-1 #
edge $-1 $279 22.846499623865324 $369 36.031665464489734 $277 $370 forward 7 unknown #
vertex $-1 $278 $371 #
vertex $-1 $276 $372 #
straight-curve $-1 -52.285582168042851 0 8.2412972619286862 0 -1 0 I I #
coedge $-1 $373 $374 $187 $283 forward $270 $-1 #
edge $-1 $290 -40.6523253527861 $287 40.6523253527861 $282 $375 forward 7 unknown #
coedge $-1 $277 $188 $192 $292 forward $286 $-1 #
coedge $-1 $188 $277 $373 $376 reversed $286 $-1 #
loop $-1 $-1 $277 $269 #
vertex $-1 $376 $377 #
straight-curve $-1 -29.439082544177527 40.6523253527861 16.027259632736467 1 0 0 I I #
coedge $-1 $272 $190 $374 $378 forward $180 $-1 #
vertex $-1 $378 $379 #
straight-curve $-1 -29.439082544177527 -40.6523253527861 16.027259632736467 -1 0 0 I I #
edge $-1 $194 -9.9601204090701785 $279 -2.174158038262398 $284 $380 forward 7 unknown #
point $-1 -52.285582168042851 -40.6523253527861 16.027259632736467 #
point $-1 -52.285582168042851 40.6523253527861 16.027259632736467 #
loop $-1 $-1 $381 $196 #
plane-surface $-1 0 40.6523253527861 0 0 -1 0 0 0 -1 forward_v I I I I #
coedge $-1 $298 $199 $207 $310 reversed $117 $-1 #
coedge $-1 $199 $297 $381 $382 reversed $117 $-1 #
coedge $-1 $304 $383 $201 $300 forward $295 $-1 #
edge $-1 $302 49.891335079810219 $308 68.504060147163216 $299 $384 forward 7 unknown #
coedge $-1 $207 $202 $383 $385 forward $197 $-1 #
vertex $-1 $385 $386 #
straight-curve $-1 -21.977711122622619 55.508052674652987 18.736147717070239 0 1 0 I I #
coedge $-1 $381 $299 $204 $305 forward $295 $-1 #
edge $-1 $308 3.4118877999562507 $306 33.719758845376482 $304 $387 forward 7 unknown #
vertex $-1 $382 $388 #
straight-curve $-1 -52.285582168042851 -1.2226643676799256 69.81511126655289 0 0.51503806187062418 -0.85716730853699208 I I #
vertex $-1 $305 $389 #
straight-curve $-1 -21.977711122622619 -1.2226643676799256 69.81511126655289 0 -0.51503806187062418 0.85716730853699208 I I #
edge $-1 $390 14.855727321866887 $208 26.03938044226183 $207 $391 forward 7 unknown #
point $-1 -52.285582168042851 29.468672232391157 18.736147717070239 #
point $-1 -21.977711122622619 29.468672232391157 18.736147717070239 #
edge $-1 $392 1 $392 0 $211 $-1 forward 7 unknown #
vertex $-1 $212 $393 #
ellipse-curve $-1 -43.626190440779922 33.297167490774221 8.3702688823435434 0 0.85716730853699208 0.51503806187062418 1.5 0 0 1 I I #
point $-1 -42.126190440779922 35.060498792588646 9.4297851833937827 #
edge $-1 $394 1 $394 0 $215 $-1 forward 7 unknown #
vertex $-1 $216 $395 #
ellipse-curve $-1 -30.637102849885537 33.297167490774221 8.3702688823435434 0 0.85716730853699208 0.51503806187062418 1.5 0 0 1 I I #
point $-1 -29.137102849885537 35.060498792588646 9.4297851833937827 #
loop $-1 $-1 $396 $219 #
plane-surface $-1 0 0 18.736147717070239 0 0 1 1 0 0 forward_v I I I I #
coedge $-1 $222 $225 $397 $398 reversed $139 $-1 #
coedge $-1 $332 $228 $222 $325 reversed $220 $-1 #
edge $-1 $399 15.045490771392416 $231 33.658215838745456 $222 $400 forward 7 unknown #
coedge $-1 $330 $397 $224 $327 forward $321 $-1 #
edge $-1 $328 35.793222182099875 $335 46.976875302494847 $326 $401 forward 7 unknown #
vertex $-1 $327 $402 #
straight-curve $-1 -21.977711122622619 -40.6523253527861 33.781638488462654 0 0 1 I I #
coedge $-1 $396 $326 $227 $331 forward $321 $-1 #
edge $-1 $335 3.4118877999562507 $333 33.719758845376482 $330 $403 forward 7 unknown #
coedge $-1 $228 $324 $396 $404 reversed $220 $-1 #
vertex $-1 $404 $405 #
straight-curve $-1 -52.285582168042851 -40.65232535278605 0.12342264971728412 0 0.51503806187062418 0.85716730853699208 I I #
vertex $-1 $331 $406 #
straight-curve $-1 -21.977711122622619 -40.65232535278605 0.12342264971728412 0 -0.51503806187062418 -0.85716730853699208 I I #
point $-1 -52.285582168042851 -40.6523253527861 0.12342264971720134 #
point $-1 -21.977711122622619 -40.6523253527861 0.12342264971720134 #
edge $-1 $407 1 $407 0 $234 $-1 forward 7 unknown #
vertex $-1 $235 $408 #
ellipse-curve $-1 -43.626190440779922 -33.297167490774221 8.3702688823435363 0 -0.85716730853699208 0.51503806187062418 1.5 0 0 1 I I #
point $-1 -42.126190440779922 -35.060498792588646 9.4297851833937756 #
edge $-1 $409 1 $409 0 $238 $-1 forward 7 unknown #
vertex $-1 $239 $410 #
ellipse-curve $-1 -30.637102849885537 -33.297167490774221 8.3702688823435363 0 -0.85716730853699208 0.51503806187062418 1.5 0 0 1 I I #
point $-1 -29.137102849885537 -35.060498792588646 9.4297851833937756 #
plane-surface $-1 65.470748008667258 0 0 -1 0 0 0 0 1 forward_v I I I I #
coedge $-1 $247 $245 $249 $352 reversed $161 $-1 #
edge $-1 $260 -18.736147717070239 $354 18.736147717070239 $259 $411 forward 7 unknown #
vertex $-1 $352 $412 #
straight-curve $-1 -65.470748008667258 -40.6523253527861 0 0 0 -1 I I #
edge $-1 $350 -40.6523253527861 $354 40.6523253527861 $348 $413 forward 7 unknown #
straight-curve $-1 0 -40.6523253527861 -18.736147717070239 -1 0 0 I I #
vertex $-1 $252 $414 #
straight-curve $-1 0 40.6523253527861 -18.736147717070239 1 0 0 I I #
point $-1 65.470748008667258 40.6523253527861 -18.736147717070239 #
point $-1 65.470748008667258 -40.6523253527861 -18.736147717070239 #
straight-curve $-1 -65.470748008667258 0 18.736147717070239 0 -1 0 I I #
point $-1 -65.470748008667258 40.6523253527861 18.736147717070239 #
point $-1 -65.470748008667258 -40.6523253527861 18.736147717070239 #
straight-curve $-1 65.470748008667258 -40.6523253527861 0 0 0 -1 I I #
straight-curve $-1 65.470748008667258 40.6523253527861 0 0 0 -1 I I #
plane-surface $-1 0 40.6523253527861 0 0 -1 0 0 0 -1 forward_v I I I I #
coedge $-1 $374 $373 $275 $366 forward $270 $-1 #
straight-curve $-1 -52.285582168042851 -40.6523253527861 6.0671392236662882 0 0 1 I I #
edge $-1 $369 -40.6523253527861 $367 40.6523253527861 $364 $415 forward 7 unknown #
vertex $-1 $276 $416 #
straight-curve $-1 -29.439082544177527 -40.6523253527861 8.2412972619286862 1 0 0 I I #
vertex $-1 $278 $417 #
straight-curve $-1 -29.439082544177527 40.6523253527861 8.2412972619286862 -1 0 0 I I #
point $-1 -52.285582168042851 40.6523253527861 8.2412972619286862 #
point $-1 -52.285582168042851 -40.6523253527861 8.2412972619286862 #
coedge $-1 $364 $282 $285 $376 forward $270 $-1 #
coedge $-1 $282 $364 $289 $378 reversed $270 $-1 #
straight-curve $-1 -65.470748008667258 0 16.027259632736467 0 1 0 I I #
edge $-1 $287 -16.027259632736467 $369 -8.2412972619286862 $285 $418 forward 7 unknown #
point $-1 -65.470748008667258 40.6523253527861 16.027259632736467 #
edge $-1 $290 -16.027259632736467 $367 -8.2412972619286862 $374 $419 forward 7 unknown #
point $-1 -65.470748008667258 -40.6523253527861 16.027259632736467 #
straight-curve $-1 -52.285582168042851 40.6523253527861 6.0671392236662882 0 0 -1 I I #
coedge $-1 $383 $304 $298 $382 forward $295 $-1 #
edge $-1 $306 -68.504060147163216 $390 -49.891335079810219 $381 $420 forward 7 unknown #
coedge $-1 $299 $381 $301 $385 reversed $295 $-1 #
straight-curve $-1 -21.977711122622619 40.6523253527861 68.627482796880457 0 0 -1 I I #
edge $-1 $302 21.977711122622619 $390 52.285582168042851 $383 $421 forward 7 unknown #
point $-1 -21.977711122622619 40.6523253527861 18.736147717070239 #
straight-curve $-1 -18.565823322666368 40.6523253527861 0.12342264971723438 -1 0 0 I I #
point $-1 -52.285582168042851 40.6523253527861 0.12342264971724148 #
point $-1 -21.977711122622619 40.6523253527861 0.12342264971724148 #
vertex $-1 $310 $422 #
straight-curve $-1 -52.285582168042851 55.508052674652987 18.736147717070239 0 -1 0 I I #
vertex $-1 $313 $423 #
point $-1 -42.126190440779922 33.297167490774221 8.3702688823435434 #
vertex $-1 $317 $424 #
point $-1 -29.137102849885537 33.297167490774221 8.3702688823435434 #
coedge $-1 $397 $330 $332 $404 forward $321 $-1 #
coedge $-1 $326 $396 $323 $398 forward $321 $-1 #
edge $-1 $399 -52.285582168042851 $328 -21.977711122622619 $323 $425 forward 7 unknown #
vertex $-1 $398 $426 #
straight-curve $-1 -52.285582168042851 -40.6523253527861 33.781638488462654 0 0 -1 I I #
straight-curve $-1 -21.977711122622619 -76.445547534885975 18.736147717070239 0 1 0 I I #
point $-1 -21.977711122622619 -40.6523253527861 18.736147717070239 #
straight-curve $-1 -18.565823322666368 -29.468672232391125 18.736147717070239 -1 0 0 I I #
edge $-1 $333 -46.976875302494847 $399 -35.793222182099875 $396 $427 forward 7 unknown #
point $-1 -52.285582168042851 -29.468672232391128 18.736147717070239 #
point $-1 -21.977711122622619 -29.468672232391128 18.736147717070239 #
vertex $-1 $339 $428 #
point $-1 -42.126190440779922 -33.297167490774221 8.3702688823435363 #
vertex $-1 $343 $429 #
point $-1 -29.137102849885537 -33.297167490774221 8.3702688823435363 #
straight-curve $-1 -65.470748008667258 40.6523253527861 0 0 0 -1 I I #
point $-1 -65.470748008667258 -40.6523253527861 -18.736147717070239 #
straight-curve $-1 -65.470748008667258 0 -18.736147717070239 0 1 0 I I #
point $-1 -65.470748008667258 40.6523253527861 -18.736147717070239 #
straight-curve $-1 -65.470748008667258 0 8.2412972619286862 0 -1 0 I I #
point $-1 -65.470748008667258 -40.6523253527861 8.2412972619286862 #
point $-1 -65.470748008667258 40.6523253527861 8.2412972619286862 #
straight-curve $-1 -65.470748008667258 40.6523253527861 0 0 0 -1 I I #
straight-curve $-1 -65.470748008667258 -40.6523253527861 0 0 0 -1 I I #
straight-curve $-1 -52.285582168042851 40.6523253527861 68.627482796880457 0 0 1 I I #
straight-curve $-1 0 40.6523253527861 18.736147717070239 -1 0 0 I I #
point $-1 -52.285582168042851 40.6523253527861 18.736147717070239 #
point $-1 -43.626190440779922 32.011416527968741 7.5977117895376072 #
point $-1 -30.637102849885537 32.011416527968741 7.5977117895376072 #
straight-curve $-1 0 -40.6523253527861 18.736147717070239 1 0 0 I I #
point $-1 -52.285582168042851 -40.6523253527861 18.736147717070239 #
straight-curve $-1 -52.285582168042851 -76.445547534885975 18.736147717070239 0 -1 0 I I #
point $-1 -43.626190440779922 -32.011416527968741 7.5977117895376001 #
point $-1 -30.637102849885537 -32.011416527968741 7.5977117895376001 #
End-of-ACIS-data 