500 0 6 0           
7 Unknown 11 ACIS 5.0 NT 24 Fri Mar 26 17:44:58 1999 
-1 9.9999999999999995e-007 1e-010 
body $-1 $6 $-1 $7 #
body $-1 $8 $-1 $9 #
body $-1 $10 $-1 $11 #
body $-1 $12 $-1 $13 #
body $-1 $14 $-1 $15 #
body $-1 $16 $-1 $17 #
lump $-1 $-1 $18 $0 #
transform $-1 1 0 0 0 1 0 0 0 1 60.542619098483229 27.821668007423046 13.011917413255919 1 rotate no_reflect no_shear #
lump $-1 $-1 $19 $1 #
transform $-1 1 0 0 0 1 0 0 0 1 60.542619098483229 27.821668007423046 13.011917413255919 1 rotate no_reflect no_shear #
lump $-1 $-1 $20 $2 #
transform $-1 1 0 0 0 1 0 0 0 1 60.542619098483229 27.821668007423046 13.011917413255919 1 rotate no_reflect no_shear #
lump $-1 $-1 $21 $3 #
transform $-1 1 0 0 0 1 0 0 0 1 60.542619098483229 27.821668007423046 13.011917413255919 1 rotate no_reflect no_shear #
lump $-1 $-1 $22 $4 #
transform $-1 1 0 0 0 1 0 0 0 1 60.542619098483229 27.821668007423046 13.011917413255919 1 rotate no_reflect no_shear #
lump $-1 $-1 $23 $5 #
transform $-1 1 0 0 0 1 0 0 0 1 60.542619098483229 27.821668007423046 13.011917413255919 1 rotate no_reflect no_shear #
shell $-1 $-1 $-1 $24 $-1 $6 #
shell $-1 $-1 $-1 $25 $-1 $8 #
shell $-1 $-1 $-1 $26 $-1 $10 #
shell $-1 $-1 $-1 $27 $-1 $12 #
shell $-1 $-1 $-1 $28 $-1 $14 #
shell $-1 $-1 $-1 $29 $-1 $16 #
face $-1 $30 $31 $18 $-1 $32 forward single #
face $-1 $33 $34 $19 $-1 $35 forward single #
face $-1 $36 $37 $20 $-1 $38 reversed single #
face $-1 $39 $40 $21 $-1 $41 forward single #
face $-1 $42 $43 $22 $-1 $44 forward single #
face $-1 $45 $46 $23 $-1 $47 forward single #
face $-1 $48 $49 $18 $-1 $50 reversed single #
loop $-1 $-1 $51 $24 #
plane-surface $-1 0 0 13.011917413255919 0 0 1 1 0 0 forward_v I I I I #
face $-1 $52 $53 $19 $-1 $54 reversed single #
loop $-1 $-1 $55 $25 #
plane-surface $-1 -53.168356046121716 0 -5.9950045718082805 0 0 1 1 0 0 forward_v I I I I #
face $-1 $56 $57 $20 $-1 $58 reversed single #
loop $-1 $-1 $59 $26 #
plane-surface $-1 -45.794092993760216 71.908077467521153 128.94538577271203 1 0 0 0 -0.69465837861970381 -0.71933979245794832 forward_v I I I I #
face $-1 $60 $61 $21 $-1 $62 forward single #
loop $-1 $63 $64 $27 #
cone-surface $-1 -42.125351484916521 21.864918120482869 7.198667056719362 0 -0.69465837861970381 -0.71933979245794832 1 0 0 1 I I 0 1 1 forward I I I I #
face $-1 $65 $66 $22 $-1 $67 forward single #
loop $-1 $68 $69 $28 #
cone-surface $-1 -36.622239221650986 21.864918120482869 7.198667056719362 0 -0.69465837861970381 -0.71933979245794832 1 0 0 1 I I 0 1 1 forward I I I I #
face $-1 $70 $71 $23 $-1 $72 forward single #
loop $-1 $73 $74 $29 #
cone-surface $-1 -31.119126958385447 21.864918120482869 7.198667056719362 0 -0.69465837861970381 -0.71933979245794832 1 0 0 1 I I 0 1 1 forward I I I I #
face $-1 $75 $76 $18 $-1 $77 reversed single #
loop $-1 $-1 $78 $30 #
plane-surface $-1 0 0 -13.011917413255919 0 0 1 1 0 0 forward_v I I I I #
coedge $-1 $79 $80 $81 $82 forward $31 $-1 #
face $-1 $83 $84 $19 $-1 $85 reversed single #
loop $-1 $-1 $86 $33 #
plane-surface $-1 -45.794092993760202 0 -9.5034609925320996 -1 0 0 0 0 1 forward_v I I I I #
coedge $-1 $87 $88 $89 $90 forward $34 $-1 #
face $-1 $91 $92 $20 $-1 $93 reversed single #
loop $-1 $-1 $94 $36 #
plane-surface $-1 -36.622239221650986 -12.204797773164188 41.843955658384942 0 0.69465837861970381 0.71933979245794832 1 0 0 forward_v I I I I #
coedge $-1 $95 $96 $97 $98 reversed $37 $-1 #
face $-1 $-1 $99 $21 $-1 $100 forward single #
loop $-1 $101 $102 $39 #
cone-surface $-1 -42.125351484916521 20.645847467845822 5.9362824699214976 0 -0.69465837861970381 -0.71933979245794832 0.5 0 0 1 I I -0.70710678118654746 0.70710678118654746 0.5 forward I I I I #
loop $-1 $-1 $103 $27 #
coedge $-1 $64 $64 $104 $105 reversed $40 $-1 #
face $-1 $-1 $106 $22 $-1 $107 forward single #
loop $-1 $108 $109 $42 #
cone-surface $-1 -36.622239221650986 20.645847467845822 5.9362824699214976 0 -0.69465837861970381 -0.71933979245794832 0.5 0 0 1 I I -0.70710678118654746 0.70710678118654746 0.5 forward I I I I #
loop $-1 $-1 $110 $28 #
coedge $-1 $69 $69 $111 $112 reversed $43 $-1 #
face $-1 $-1 $113 $23 $-1 $114 forward single #
loop $-1 $115 $116 $45 #
cone-surface $-1 -31.119126958385447 20.645847467845822 5.9362824699214976 0 -0.69465837861970381 -0.71933979245794832 0.5 0 0 1 I I -0.70710678118654746 0.70710678118654746 0.5 forward I I I I #
loop $-1 $-1 $117 $29 #
coedge $-1 $74 $74 $118 $119 reversed $46 $-1 #
face $-1 $120 $121 $18 $-1 $122 reversed single #
loop $-1 $-1 $123 $48 #
plane-surface $-1 0 -27.821668007423046 0 0 1 0 0 0 1 forward_v I I I I #
coedge $-1 $124 $125 $126 $127 forward $49 $-1 #
coedge $-1 $128 $51 $129 $130 forward $31 $-1 #
coedge $-1 $51 $128 $131 $132 forward $31 $-1 #
coedge $-1 $133 $134 $51 $82 reversed $135 $-1 #
edge $-1 $136 -27.821668007423046 $137 27.821668007423046 $81 $138 forward 7 unknown #
face $-1 $139 $140 $19 $-1 $141 reversed single #
loop $-1 $-1 $142 $52 #
plane-surface $-1 0 0 -13.011917413255919 0 0 1 1 0 0 forward_v I I I I #
coedge $-1 $143 $89 $144 $145 reversed $53 $-1 #
coedge $-1 $146 $55 $147 $148 reversed $34 $-1 #
coedge $-1 $55 $146 $149 $150 reversed $34 $-1 #
coedge $-1 $86 $151 $55 $90 reversed $53 $-1 #
edge $-1 $152 -27.821668007423046 $153 27.821668007423046 $89 $154 forward 7 unknown #
face $-1 $155 $156 $20 $-1 $157 reversed single #
loop $-1 $-1 $158 $56 #
plane-surface $-1 -27.450385449541759 71.908077467521153 128.94538577271203 -1 0 0 0 0.69465837861970381 0.71933979245794832 forward_v I I I I #
coedge $-1 $159 $160 $161 $162 reversed $57 $-1 #
coedge $-1 $96 $59 $163 $164 reversed $37 $-1 #
coedge $-1 $59 $95 $159 $165 reversed $37 $-1 #
coedge $-1 $161 $166 $59 $98 forward $167 $-1 #
edge $-1 $168 8.1323707263375304 $169 18.302387573563472 $97 $170 forward 7 unknown #
loop $-1 $-1 $104 $60 #
plane-surface $-1 -36.622239221650986 -12.204797773164188 41.843955658384942 0 0.69465837861970381 0.71933979245794832 1 0 0 forward_v I I I I #
loop $-1 $-1 $171 $39 #
coedge $-1 $102 $102 $103 $172 reversed $61 $-1 #
coedge $-1 $103 $103 $102 $172 forward $63 $-1 #
coedge $-1 $104 $104 $64 $105 forward $99 $-1 #
edge $-1 $173 8.8321717568673142e-016 $173 6.2831853071796013 $104 $174 forward 7 unknown #
loop $-1 $-1 $111 $65 #
plane-surface $-1 -36.622239221650986 -12.204797773164188 41.843955658384942 0 0.69465837861970381 0.71933979245794832 1 0 0 forward_v I I I I #
loop $-1 $-1 $175 $42 #
coedge $-1 $109 $109 $110 $176 reversed $66 $-1 #
coedge $-1 $110 $110 $109 $176 forward $68 $-1 #
coedge $-1 $111 $111 $69 $112 forward $106 $-1 #
edge $-1 $177 8.8321717568673142e-016 $177 6.2831853071796013 $111 $178 forward 7 unknown #
loop $-1 $-1 $118 $70 #
plane-surface $-1 -36.622239221650986 -12.204797773164188 41.843955658384942 0 0.69465837861970381 0.71933979245794832 1 0 0 forward_v I I I I #
loop $-1 $-1 $179 $45 #
coedge $-1 $116 $116 $117 $180 reversed $71 $-1 #
coedge $-1 $117 $117 $116 $180 forward $73 $-1 #
coedge $-1 $118 $118 $74 $119 forward $113 $-1 #
edge $-1 $181 8.8321717568673142e-016 $181 6.2831853071796013 $118 $182 forward 7 unknown #
face $-1 $183 $184 $18 $-1 $185 reversed single #
loop $-1 $-1 $186 $75 #
plane-surface $-1 -60.542619098483229 0 0 1 0 0 0 0 -1 forward_v I I I I #
coedge $-1 $187 $131 $188 $189 forward $76 $-1 #
coedge $-1 $190 $78 $187 $191 forward $49 $-1 #
coedge $-1 $78 $190 $192 $193 forward $49 $-1 #
coedge $-1 $134 $133 $78 $127 reversed $135 $-1 #
edge $-1 $194 -27.821668007423046 $195 27.821668007423046 $126 $196 forward 7 unknown #
coedge $-1 $80 $79 $197 $198 forward $31 $-1 #
coedge $-1 $199 $200 $79 $130 reversed $184 $-1 #
edge $-1 $137 -60.542619098483229 $201 60.542619098483229 $129 $202 forward 7 unknown #
coedge $-1 $123 $203 $80 $132 reversed $76 $-1 #
edge $-1 $204 -60.542619098483229 $136 60.542619098483229 $131 $205 forward 7 unknown #
coedge $-1 $126 $81 $203 $206 forward $135 $-1 #
coedge $-1 $81 $126 $199 $207 reversed $135 $-1 #
loop $-1 $-1 $133 $183 #
vertex $-1 $82 $208 #
vertex $-1 $82 $209 #
straight-curve $-1 60.542619098483229 0 13.011917413255919 0 1 0 I I #
face $-1 $210 $211 $19 $-1 $212 reversed single #
loop $-1 $-1 $144 $83 #
plane-surface $-1 0 -27.821668007423046 0 0 1 0 0 0 1 forward_v I I I I #
coedge $-1 $213 $214 $143 $215 forward $84 $-1 #
coedge $-1 $151 $86 $142 $215 reversed $53 $-1 #
coedge $-1 $149 $216 $86 $145 forward $140 $-1 #
edge $-1 $217 -8.2601869169898698 $152 -1.2432740755422307 $144 $218 forward 7 unknown #
coedge $-1 $88 $87 $219 $220 reversed $34 $-1 #
coedge $-1 $221 $222 $87 $148 forward $223 $-1 #
edge $-1 $224 -33.958441075422371 $153 -19.209914970699344 $147 $225 forward 7 unknown #
coedge $-1 $226 $144 $88 $150 forward $140 $-1 #
edge $-1 $152 19.209914970699344 $227 33.958441075422371 $149 $228 forward 7 unknown #
coedge $-1 $89 $143 $221 $229 reversed $53 $-1 #
vertex $-1 $150 $230 #
vertex $-1 $148 $231 #
straight-curve $-1 -45.794092993760202 0 -5.9950045718082805 0 1 0 I I #
face $-1 $-1 $167 $20 $-1 $232 forward single #
loop $-1 $-1 $233 $91 #
plane-surface $-1 0 27.821668007423046 0 0 -1 0 0 0 -1 forward_v I I I I #
coedge $-1 $234 $235 $236 $237 reversed $92 $-1 #
coedge $-1 $238 $94 $96 $165 forward $57 $-1 #
coedge $-1 $94 $238 $234 $239 forward $57 $-1 #
coedge $-1 $236 $97 $94 $162 forward $167 $-1 #
edge $-1 $169 -27.482973382934723 $240 -9.1392658387162662 $161 $241 forward 7 unknown #
coedge $-1 $242 $243 $95 $164 forward $156 $-1 #
edge $-1 $244 -61.281846805035393 $168 -51.460775473100099 $163 $245 forward 7 unknown #
edge $-1 $169 41.505348718918057 $244 55.643336014846035 $96 $246 forward 7 unknown #
coedge $-1 $97 $236 $242 $247 forward $167 $-1 #
loop $-1 $-1 $236 $155 #
vertex $-1 $164 $248 #
vertex $-1 $98 $249 #
straight-curve $-1 -45.794092993760216 35.954038733760576 13.011917413255915 0 -1 0 I I #
coedge $-1 $171 $171 $-1 $250 reversed $101 $-1 #
edge $-1 $251 0 $251 6.2831853071796004 $102 $252 forward 7 unknown #
vertex $-1 $105 $253 #
ellipse-curve $-1 -42.125351484916521 22.736659583810081 8.1013817472882685 0 0.69465837861970381 0.71933979245794832 1 0 0 1 I I #
coedge $-1 $175 $175 $-1 $254 reversed $108 $-1 #
edge $-1 $255 0 $255 6.2831853071796004 $109 $256 forward 7 unknown #
vertex $-1 $112 $257 #
ellipse-curve $-1 -36.622239221650986 22.736659583810081 8.1013817472882685 0 0.69465837861970381 0.71933979245794832 1 0 0 1 I I #
coedge $-1 $179 $179 $-1 $258 reversed $115 $-1 #
edge $-1 $259 0 $259 6.2831853071796004 $116 $260 forward 7 unknown #
vertex $-1 $119 $261 #
ellipse-curve $-1 -31.119126958385447 22.736659583810081 8.1013817472882685 0 0.69465837861970381 0.71933979245794832 1 0 0 1 I I #
face $-1 $-1 $135 $18 $-1 $262 reversed single #
loop $-1 $-1 $199 $120 #
plane-surface $-1 0 27.821668007423046 0 0 -1 0 0 0 -1 forward_v I I I I #
coedge $-1 $263 $197 $200 $264 forward $121 $-1 #
coedge $-1 $203 $123 $124 $191 reversed $76 $-1 #
coedge $-1 $197 $263 $123 $189 reversed $121 $-1 #
edge $-1 $204 -13.011917413255919 $265 13.011917413255919 $188 $266 forward 7 unknown #
coedge $-1 $125 $124 $263 $267 forward $49 $-1 #
edge $-1 $195 -60.542619098483229 $265 60.542619098483229 $187 $268 forward 7 unknown #
coedge $-1 $200 $199 $125 $193 reversed $184 $-1 #
edge $-1 $269 -60.542619098483229 $194 60.542619098483229 $192 $270 forward 7 unknown #
vertex $-1 $127 $271 #
vertex $-1 $206 $272 #
straight-curve $-1 60.542619098483229 0 -13.011917413255919 0 -1 0 I I #
coedge $-1 $186 $188 $128 $198 reversed $121 $-1 #
edge $-1 $201 -27.821668007423046 $204 27.821668007423046 $197 $273 forward 7 unknown #
coedge $-1 $192 $129 $134 $207 forward $184 $-1 #
coedge $-1 $129 $192 $186 $264 reversed $184 $-1 #
vertex $-1 $130 $274 #
straight-curve $-1 0 27.821668007423046 13.011917413255919 -1 0 0 I I #
coedge $-1 $131 $187 $133 $206 reversed $76 $-1 #
vertex $-1 $198 $275 #
straight-curve $-1 0 -27.821668007423046 13.011917413255919 1 0 0 I I #
edge $-1 $136 -13.011917413255919 $195 13.011917413255919 $133 $276 forward 7 unknown #
edge $-1 $137 -13.011917413255919 $194 13.011917413255919 $134 $277 forward 7 unknown #
point $-1 60.542619098483229 -27.821668007423046 13.011917413255919 #
point $-1 60.542619098483229 27.821668007423046 13.011917413255919 #
face $-1 $-1 $223 $19 $-1 $278 reversed single #
loop $-1 $-1 $219 $139 #
plane-surface $-1 -60.542619098483229 0 0 1 0 0 0 0 -1 forward_v I I I I #
coedge $-1 $279 $142 $216 $280 forward $84 $-1 #
coedge $-1 $142 $279 $281 $282 forward $84 $-1 #
edge $-1 $283 -27.821668007423046 $217 27.821668007423046 $142 $284 forward 7 unknown #
coedge $-1 $144 $226 $213 $280 reversed $140 $-1 #
vertex $-1 $280 $285 #
straight-curve $-1 -45.794092993760202 -27.821668007423046 -4.7517304962660498 0 0 1 I I #
coedge $-1 $286 $287 $146 $220 forward $211 $-1 #
edge $-1 $227 -27.821668007423046 $224 27.821668007423046 $219 $288 forward 7 unknown #
coedge $-1 $281 $147 $151 $229 forward $223 $-1 #
coedge $-1 $147 $281 $286 $289 reversed $223 $-1 #
loop $-1 $-1 $221 $210 #
vertex $-1 $289 $290 #
straight-curve $-1 -26.584178023060858 27.821668007423046 -5.9950045718082805 1 0 0 I I #
coedge $-1 $216 $149 $287 $291 forward $140 $-1 #
vertex $-1 $291 $292 #
straight-curve $-1 -26.584178023060858 -27.821668007423046 -5.9950045718082805 -1 0 0 I I #
edge $-1 $153 1.2432740755422307 $283 8.2601869169898698 $221 $293 forward 7 unknown #
point $-1 -45.794092993760202 -27.821668007423046 -5.9950045718082805 #
point $-1 -45.794092993760202 27.821668007423046 -5.9950045718082805 #
plane-surface $-1 0 0 13.011917413255919 0 0 1 1 0 0 forward_v I I I I #
coedge $-1 $243 $242 $235 $294 forward $156 $-1 #
coedge $-1 $235 $158 $160 $239 reversed $92 $-1 #
coedge $-1 $158 $234 $233 $294 reversed $92 $-1 #
coedge $-1 $166 $161 $158 $237 forward $167 $-1 #
edge $-1 $240 -18.302387573563472 $295 -8.1323707263375304 $236 $296 forward 7 unknown #
coedge $-1 $160 $159 $243 $297 reversed $57 $-1 #
edge $-1 $298 -55.643336014846035 $240 -41.505348718918057 $234 $299 forward 7 unknown #
vertex $-1 $162 $300 #
straight-curve $-1 -18.311119610825493 17.651651160197101 13.011917413255919 1 0 0 I I #
coedge $-1 $233 $163 $166 $247 reversed $156 $-1 #
coedge $-1 $163 $233 $238 $297 forward $156 $-1 #
vertex $-1 $164 $301 #
straight-curve $-1 -45.794092993760216 27.821668007423046 64.472692886356015 0 0 1 I I #
straight-curve $-1 -45.794092993760216 -12.204797773164188 41.843955658384942 0 0.71933979245794832 -0.69465837861970381 I I #
edge $-1 $295 27.450385449541759 $168 45.794092993760216 $242 $302 forward 7 unknown #
point $-1 -45.794092993760216 27.821668007423046 13.011917413255919 #
point $-1 -45.794092993760216 17.651651160197105 13.011917413255919 #
edge $-1 $303 1 $303 0 $171 $-1 forward 7 unknown #
vertex $-1 $172 $304 #
ellipse-curve $-1 -42.125351484916521 20.993176657155676 6.2959523661504715 0 0.69465837861970381 0.71933979245794832 1 0 0 1 I I #
point $-1 -41.125351484916521 22.736659583810066 8.1013817472882526 #
edge $-1 $305 1 $305 0 $175 $-1 forward 7 unknown #
vertex $-1 $176 $306 #
ellipse-curve $-1 -36.622239221650986 20.993176657155676 6.2959523661504715 0 0.69465837861970381 0.71933979245794832 1 0 0 1 I I #
point $-1 -35.622239221650986 22.736659583810066 8.1013817472882526 #
edge $-1 $307 1 $307 0 $179 $-1 forward 7 unknown #
vertex $-1 $180 $308 #
ellipse-curve $-1 -31.119126958385447 20.993176657155676 6.2959523661504715 0 0.69465837861970381 0.71933979245794832 1 0 0 1 I I #
point $-1 -30.119126958385447 22.736659583810066 8.1013817472882526 #
plane-surface $-1 60.542619098483229 0 0 -1 0 0 0 0 1 forward_v I I I I #
coedge $-1 $188 $186 $190 $267 reversed $121 $-1 #
edge $-1 $201 -13.011917413255919 $269 13.011917413255919 $200 $309 forward 7 unknown #
vertex $-1 $267 $310 #
straight-curve $-1 -60.542619098483229 -27.821668007423046 0 0 0 -1 I I #
edge $-1 $265 -27.821668007423046 $269 27.821668007423046 $263 $311 forward 7 unknown #
straight-curve $-1 0 -27.821668007423046 -13.011917413255919 -1 0 0 I I #
vertex $-1 $193 $312 #
straight-curve $-1 0 27.821668007423046 -13.011917413255919 1 0 0 I I #
point $-1 60.542619098483229 27.821668007423046 -13.011917413255919 #
point $-1 60.542619098483229 -27.821668007423046 -13.011917413255919 #
straight-curve $-1 -60.542619098483229 0 13.011917413255919 0 -1 0 I I #
point $-1 -60.542619098483229 27.821668007423046 13.011917413255919 #
point $-1 -60.542619098483229 -27.821668007423046 13.011917413255919 #
straight-curve $-1 60.542619098483229 -27.821668007423046 0 0 0 -1 I I #
straight-curve $-1 60.542619098483229 27.821668007423046 0 0 0 -1 I I #
plane-surface $-1 0 27.821668007423046 0 0 -1 0 0 0 -1 forward_v I I I I #
coedge $-1 $214 $213 $313 $314 forward $84 $-1 #
edge $-1 $217 45.794092993760202 $315 60.542619098483229 $216 $316 forward 7 unknown #
coedge $-1 $222 $221 $214 $282 reversed $223 $-1 #
edge $-1 $317 -60.542619098483229 $283 -45.794092993760202 $281 $318 forward 7 unknown #
vertex $-1 $229 $319 #
straight-curve $-1 -45.794092993760202 0 -13.011917413255919 0 -1 0 I I #
point $-1 -45.794092993760202 -27.821668007423046 -13.011917413255919 #
coedge $-1 $313 $219 $222 $289 forward $211 $-1 #
coedge $-1 $219 $313 $226 $291 reversed $211 $-1 #
straight-curve $-1 -60.542619098483229 0 -5.9950045718082805 0 1 0 I I #
edge $-1 $224 5.9950045718082805 $317 13.011917413255919 $222 $320 forward 7 unknown #
point $-1 -60.542619098483229 27.821668007423046 -5.9950045718082805 #
edge $-1 $227 5.9950045718082805 $315 13.011917413255919 $287 $321 forward 7 unknown #
point $-1 -60.542619098483229 -27.821668007423046 -5.9950045718082805 #
straight-curve $-1 -45.794092993760202 27.821668007423046 -4.7517304962660498 0 0 -1 I I #
edge $-1 $295 51.460775473100099 $298 61.281846805035393 $233 $322 forward 7 unknown #
vertex $-1 $247 $323 #
straight-curve $-1 -27.450385449541759 35.954038733760576 13.011917413255915 0 1 0 I I #
edge $-1 $298 9.1392658387162662 $244 27.482973382934723 $243 $324 forward 7 unknown #
vertex $-1 $297 $325 #
straight-curve $-1 -27.450385449541759 -12.204797773164188 41.843955658384942 0 -0.71933979245794832 0.69465837861970381 I I #
point $-1 -27.450385449541759 17.651651160197105 13.011917413255919 #
point $-1 -45.794092993760216 27.821668007423042 3.1908460813206219 #
straight-curve $-1 0 27.821668007423046 13.011917413255919 -1 0 0 I I #
vertex $-1 $250 $326 #
point $-1 -41.125351484916521 20.993176657155676 6.2959523661504715 #
vertex $-1 $254 $327 #
point $-1 -35.622239221650986 20.993176657155676 6.2959523661504715 #
vertex $-1 $258 $328 #
point $-1 -30.119126958385447 20.993176657155676 6.2959523661504715 #
straight-curve $-1 -60.542619098483229 27.821668007423046 0 0 0 -1 I I #
point $-1 -60.542619098483229 -27.821668007423046 -13.011917413255919 #
straight-curve $-1 -60.542619098483229 0 -13.011917413255919 0 1 0 I I #
point $-1 -60.542619098483229 27.821668007423046 -13.011917413255919 #
coedge $-1 $287 $286 $279 $314 reversed $211 $-1 #
edge $-1 $315 -27.821668007423046 $317 27.821668007423046 $313 $329 forward 7 unknown #
vertex $-1 $314 $330 #
straight-curve $-1 0 -27.821668007423046 -13.011917413255919 -1 0 0 I I #
vertex $-1 $282 $331 #
straight-curve $-1 0 27.821668007423046 -13.011917413255919 1 0 0 I I #
point $-1 -45.794092993760202 27.821668007423046 -13.011917413255919 #
straight-curve $-1 -60.542619098483229 27.821668007423046 0 0 0 -1 I I #
straight-curve $-1 -60.542619098483229 -27.821668007423046 0 0 0 -1 I I #
straight-curve $-1 -27.450385449541759 27.821668007423046 64.472692886356015 0 0 -1 I I #
point $-1 -27.450385449541759 27.821668007423046 13.011917413255919 #
straight-curve $-1 -18.311119610825493 27.82166800742305 3.1908460813206183 -1 0 0 I I #
point $-1 -27.450385449541759 27.821668007423042 3.1908460813206219 #
point $-1 -42.125351484916521 20.298518278535969 5.5766125736925236 #
point $-1 -36.622239221650986 20.298518278535969 5.5766125736925236 #
point $-1 -31.119126958385447 20.298518278535969 5.5766125736925236 #
straight-curve $-1 -60.542619098483229 0 -13.011917413255919 0 1 0 I I #
point $-1 -60.542619098483229 -27.821668007423046 -13.011917413255919 #
point $-1 -60.542619098483229 27.821668007423046 -13.011917413255919 #
End-of-ACIS-data 