500 0 8 0           
7 Unknown 11 ACIS 5.0 NT 24 Fri Mar 26 17:09:03 1999 
-1 9.9999999999999995e-007 1e-010 
body $-1 $8 $-1 $9 #
body $-1 $10 $-1 $11 #
body $-1 $12 $-1 $13 #
body $-1 $14 $-1 $15 #
body $-1 $16 $-1 $17 #
body $-1 $18 $-1 $19 #
body $-1 $20 $-1 $21 #
body $-1 $22 $-1 $23 #
lump $-1 $-1 $24 $0 #
transform $-1 1 0 0 0 1 0 0 0 1 69.38444166386914 39.161648641008597 16.583016669933851 1 rotate no_reflect no_shear #
lump $-1 $-1 $25 $1 #
transform $-1 1 0 0 0 1 0 0 0 1 69.38444166386914 39.161648641008597 16.583016669933851 1 rotate no_reflect no_shear #
lump $-1 $-1 $26 $2 #
transform $-1 1 0 0 0 1 0 0 0 1 69.38444166386914 39.161648641008597 16.583016669933851 1 rotate no_reflect no_shear #
lump $-1 $-1 $27 $3 #
transform $-1 1 0 0 0 1 0 0 0 1 69.38444166386914 39.161648641008597 16.583016669933851 1 rotate no_reflect no_shear #
lump $-1 $-1 $28 $4 #
transform $-1 1 0 0 0 1 0 0 0 1 69.38444166386914 39.161648641008597 16.583016669933851 1 rotate no_reflect no_shear #
lump $-1 $-1 $29 $5 #
transform $-1 1 0 0 0 1 0 0 0 1 69.38444166386914 39.161648641008597 16.583016669933851 1 rotate no_reflect no_shear #
lump $-1 $-1 $30 $6 #
transform $-1 1 0 0 0 1 0 0 0 1 69.38444166386914 39.161648641008597 16.583016669933851 1 rotate no_reflect no_shear #
lump $-1 $-1 $31 $7 #
transform $-1 1 0 0 0 1 0 0 0 1 69.38444166386914 39.161648641008597 16.583016669933851 1 rotate no_reflect no_shear #
shell $-1 $-1 $-1 $32 $-1 $8 #
shell $-1 $-1 $-1 $33 $-1 $10 #
shell $-1 $-1 $-1 $34 $-1 $12 #
shell $-1 $-1 $-1 $35 $-1 $14 #
shell $-1 $-1 $-1 $36 $-1 $16 #
shell $-1 $-1 $-1 $37 $-1 $18 #
shell $-1 $-1 $-1 $38 $-1 $20 #
shell $-1 $-1 $-1 $39 $-1 $22 #
face $-1 $40 $41 $24 $-1 $42 forward single #
face $-1 $43 $44 $25 $-1 $45 reversed single #
face $-1 $46 $47 $26 $-1 $48 forward single #
face $-1 $49 $50 $27 $-1 $51 forward single #
face $-1 $52 $53 $28 $-1 $54 reversed single #
face $-1 $55 $56 $29 $-1 $57 forward single #
face $-1 $58 $59 $30 $-1 $60 forward single #
face $-1 $61 $62 $31 $-1 $63 forward single #
face $-1 $64 $65 $24 $-1 $66 reversed single #
loop $-1 $-1 $67 $32 #
plane-surface $-1 0 0 16.583016669933851 0 0 1 1 0 0 forward_v I I I I #
face $-1 $68 $69 $25 $-1 $70 reversed single #
loop $-1 $-1 $71 $33 #
plane-surface $-1 48.38859335697083 -120.72795278020924 117.93015430329335 -1 0 0 0 -0.5877852598018023 0.80901698891910034 forward_v I I I I #
face $-1 $72 $73 $26 $-1 $74 forward single #
loop $-1 $75 $76 $34 #
cone-surface $-1 38.354319699971825 -29.926746504792739 8.7554996694915026 0 0.5877852598018023 -0.80901698891910034 2 0 0 1 I I 0 1 2 forward I I I I #
face $-1 $77 $78 $27 $-1 $79 forward single #
loop $-1 $80 $81 $35 #
cone-surface $-1 44.374883894171219 -29.926746504792739 8.7554996694915026 0 0.5877852598018023 -0.80901698891910034 2 0 0 1 I I 0 1 2 forward I I I I #
face $-1 $82 $83 $28 $-1 $84 reversed single #
loop $-1 $-1 $85 $36 #
plane-surface $-1 -17.383808659757634 43.496739127394221 166.45698491156151 1 0 0 0 -0.51503808176128008 -0.85716729658548041 forward_v I I I I #
face $-1 $86 $87 $29 $-1 $88 forward single #
loop $-1 $89 $90 $37 #
cone-surface $-1 -11.681354928845451 30.10896977427759 9.8471007946459874 0 -0.51503808176128008 -0.85716729658548041 2 0 0 1 I I 0 1 2 forward I I I I #
face $-1 $91 $92 $30 $-1 $93 forward single #
loop $-1 $94 $95 $38 #
cone-surface $-1 -3.1276743324771701 30.10896977427759 9.8471007946459874 0 -0.51503808176128008 -0.85716729658548041 2 0 0 1 I I 0 1 2 forward I I I I #
face $-1 $96 $97 $31 $-1 $98 forward single #
loop $-1 $99 $100 $39 #
cone-surface $-1 5.4260062638911108 30.10896977427759 9.8471007946459874 0 -0.51503808176128008 -0.85716729658548041 2 0 0 1 I I 0 1 2 forward I I I I #
face $-1 $101 $102 $24 $-1 $103 reversed single #
loop $-1 $-1 $104 $40 #
plane-surface $-1 0 0 -16.583016669933851 0 0 1 1 0 0 forward_v I I I I #
coedge $-1 $105 $106 $107 $108 forward $41 $-1 #
face $-1 $109 $110 $25 $-1 $111 reversed single #
loop $-1 $-1 $112 $43 #
plane-surface $-1 41.364601797071529 -39.161648641008597 5.6637701578205792 0 -0.5877852598018023 0.80901698891910034 1 0 0 forward_v I I I I #
coedge $-1 $113 $114 $115 $116 reversed $44 $-1 #
face $-1 $-1 $117 $26 $-1 $118 forward single #
loop $-1 $119 $120 $46 #
cone-surface $-1 38.354319699971825 -27.618585704316114 5.5785889361866978 0 0.5877852598018023 -0.80901698891910034 1 0 0 1 I I -0.70710678118654746 0.70710678118654746 1 forward I I I I #
loop $-1 $-1 $121 $34 #
coedge $-1 $76 $76 $122 $123 reversed $47 $-1 #
face $-1 $-1 $124 $27 $-1 $125 forward single #
loop $-1 $126 $127 $49 #
cone-surface $-1 44.374883894171219 -27.618585704316114 5.5785889361866978 0 0.5877852598018023 -0.80901698891910034 1 0 0 1 I I -0.70710678118654746 0.70710678118654746 1 forward I I I I #
loop $-1 $-1 $128 $35 #
coedge $-1 $81 $81 $129 $130 reversed $50 $-1 #
face $-1 $131 $132 $28 $-1 $133 reversed single #
loop $-1 $-1 $134 $52 #
plane-surface $-1 -3.1276743324771701 -27.974520349878986 47.508836339338146 0 0.51503808176128008 0.85716729658548041 1 0 0 forward_v I I I I #
coedge $-1 $135 $136 $137 $138 reversed $53 $-1 #
face $-1 $-1 $139 $29 $-1 $140 forward single #
loop $-1 $141 $142 $55 #
cone-surface $-1 -11.681354928845451 28.374734211822457 6.9608481827448117 0 -0.51503808176128008 -0.85716729658548041 1 0 0 1 I I -0.70710678118654746 0.70710678118654746 1 forward I I I I #
loop $-1 $-1 $143 $37 #
coedge $-1 $90 $90 $144 $145 reversed $56 $-1 #
face $-1 $-1 $146 $30 $-1 $147 forward single #
loop $-1 $148 $149 $58 #
cone-surface $-1 -3.1276743324771701 28.374734211822457 6.9608481827448117 0 -0.51503808176128008 -0.85716729658548041 1 0 0 1 I I -0.70710678118654746 0.70710678118654746 1 forward I I I I #
loop $-1 $-1 $150 $38 #
coedge $-1 $95 $95 $151 $152 reversed $59 $-1 #
face $-1 $-1 $153 $31 $-1 $154 forward single #
loop $-1 $155 $156 $61 #
cone-surface $-1 5.4260062638911108 28.374734211822457 6.9608481827448117 0 -0.51503808176128008 -0.85716729658548041 1 0 0 1 I I -0.70710678118654746 0.70710678118654746 1 forward I I I I #
loop $-1 $-1 $157 $39 #
coedge $-1 $100 $100 $158 $159 reversed $62 $-1 #
face $-1 $160 $161 $24 $-1 $162 reversed single #
loop $-1 $-1 $163 $64 #
plane-surface $-1 0 -39.161648641008597 0 0 1 0 0 0 1 forward_v I I I I #
coedge $-1 $164 $165 $166 $167 forward $65 $-1 #
coedge $-1 $168 $67 $169 $170 forward $41 $-1 #
coedge $-1 $67 $168 $171 $172 forward $41 $-1 #
coedge $-1 $173 $174 $67 $108 reversed $175 $-1 #
edge $-1 $176 -39.161648641008597 $177 39.161648641008597 $107 $178 forward 7 unknown #
face $-1 $179 $180 $25 $-1 $181 reversed single #
loop $-1 $-1 $182 $68 #
plane-surface $-1 34.340610237172228 -120.72795278020924 117.93015430329335 1 0 0 0 0.5877852598018023 -0.80901698891910034 forward_v I I I I #
coedge $-1 $183 $184 $185 $186 reversed $69 $-1 #
coedge $-1 $114 $71 $187 $188 reversed $44 $-1 #
coedge $-1 $71 $113 $183 $189 reversed $44 $-1 #
coedge $-1 $185 $190 $71 $116 forward $191 $-1 #
edge $-1 $192 21.202327749096021 $193 36.23138094017807 $115 $194 forward 7 unknown #
loop $-1 $-1 $122 $72 #
plane-surface $-1 41.364601797071529 -39.161648641008597 5.6637701578205792 0 -0.5877852598018023 0.80901698891910034 1 0 0 forward_v I I I I #
loop $-1 $-1 $195 $46 #
coedge $-1 $120 $120 $121 $196 reversed $73 $-1 #
coedge $-1 $121 $121 $120 $196 forward $75 $-1 #
coedge $-1 $122 $122 $76 $123 forward $117 $-1 #
edge $-1 $197 1.1789594853295674e-015 $197 6.2831853071796013 $122 $198 forward 7 unknown #
loop $-1 $-1 $129 $77 #
plane-surface $-1 41.364601797071529 -39.161648641008597 5.6637701578205792 0 -0.5877852598018023 0.80901698891910034 1 0 0 forward_v I I I I #
loop $-1 $-1 $199 $49 #
coedge $-1 $127 $127 $128 $200 reversed $78 $-1 #
coedge $-1 $128 $128 $127 $200 forward $80 $-1 #
coedge $-1 $129 $129 $81 $130 forward $124 $-1 #
edge $-1 $201 1.1789594853295674e-015 $201 6.2831853071796013 $129 $202 forward 7 unknown #
face $-1 $203 $204 $28 $-1 $205 reversed single #
loop $-1 $-1 $206 $82 #
plane-surface $-1 11.128459994803293 43.496739127394221 166.45698491156151 -1 0 0 0 0.51503808176128008 0.85716729658548041 forward_v I I I I #
coedge $-1 $207 $208 $209 $210 reversed $83 $-1 #
coedge $-1 $136 $85 $211 $212 reversed $53 $-1 #
coedge $-1 $85 $135 $207 $213 reversed $53 $-1 #
coedge $-1 $209 $214 $85 $138 forward $215 $-1 #
edge $-1 $216 -17.413279077311486 $217 -1.7463163052372082 $137 $218 forward 7 unknown #
loop $-1 $-1 $144 $86 #
plane-surface $-1 -3.1276743324771701 -27.974520349878986 47.508836339338146 0 0.51503808176128008 0.85716729658548041 1 0 0 forward_v I I I I #
loop $-1 $-1 $219 $55 #
coedge $-1 $142 $142 $143 $220 reversed $87 $-1 #
coedge $-1 $143 $143 $142 $220 forward $89 $-1 #
coedge $-1 $144 $144 $90 $145 forward $139 $-1 #
edge $-1 $221 -1.8232307121348171e-015 $221 6.2831853071795987 $144 $222 forward 7 unknown #
loop $-1 $-1 $151 $91 #
plane-surface $-1 -3.1276743324771701 -27.974520349878986 47.508836339338146 0 0.51503808176128008 0.85716729658548041 1 0 0 forward_v I I I I #
loop $-1 $-1 $223 $58 #
coedge $-1 $149 $149 $150 $224 reversed $92 $-1 #
coedge $-1 $150 $150 $149 $224 forward $94 $-1 #
coedge $-1 $151 $151 $95 $152 forward $146 $-1 #
edge $-1 $225 -1.8232307121348171e-015 $225 6.2831853071795987 $151 $226 forward 7 unknown #
loop $-1 $-1 $158 $96 #
plane-surface $-1 -3.1276743324771701 -27.974520349878986 47.508836339338146 0 0.51503808176128008 0.85716729658548041 1 0 0 forward_v I I I I #
loop $-1 $-1 $227 $61 #
coedge $-1 $156 $156 $157 $228 reversed $97 $-1 #
coedge $-1 $157 $157 $156 $228 forward $99 $-1 #
coedge $-1 $158 $158 $100 $159 forward $153 $-1 #
edge $-1 $229 -1.8232307121348171e-015 $229 6.2831853071795987 $158 $230 forward 7 unknown #
face $-1 $231 $232 $24 $-1 $233 reversed single #
loop $-1 $-1 $234 $101 #
plane-surface $-1 -69.38444166386914 0 0 1 0 0 0 0 -1 forward_v I I I I #
coedge $-1 $235 $171 $236 $237 forward $102 $-1 #
coedge $-1 $238 $104 $235 $239 forward $65 $-1 #
coedge $-1 $104 $238 $240 $241 forward $65 $-1 #
coedge $-1 $174 $173 $104 $167 reversed $175 $-1 #
edge $-1 $242 -39.161648641008597 $243 39.161648641008597 $166 $244 forward 7 unknown #
coedge $-1 $106 $105 $245 $246 forward $41 $-1 #
coedge $-1 $247 $248 $105 $170 reversed $232 $-1 #
edge $-1 $177 -69.38444166386914 $249 69.38444166386914 $169 $250 forward 7 unknown #
coedge $-1 $163 $251 $106 $172 reversed $102 $-1 #
edge $-1 $252 -69.38444166386914 $176 69.38444166386914 $171 $253 forward 7 unknown #
coedge $-1 $166 $107 $251 $254 forward $175 $-1 #
coedge $-1 $107 $166 $247 $255 reversed $175 $-1 #
loop $-1 $-1 $173 $231 #
vertex $-1 $108 $256 #
vertex $-1 $108 $257 #
straight-curve $-1 69.38444166386914 0 16.583016669933851 0 1 0 I I #
face $-1 $-1 $191 $25 $-1 $258 forward single #
loop $-1 $-1 $259 $109 #
plane-surface $-1 0 -39.161648641008597 0 0 1 0 0 0 1 forward_v I I I I #
coedge $-1 $260 $261 $262 $263 reversed $110 $-1 #
coedge $-1 $264 $112 $114 $189 forward $69 $-1 #
coedge $-1 $112 $264 $260 $265 forward $69 $-1 #
coedge $-1 $262 $115 $112 $186 forward $191 $-1 #
edge $-1 $193 -27.706292458435065 $266 -13.658309338636464 $185 $267 forward 7 unknown #
coedge $-1 $268 $269 $113 $188 forward $180 $-1 #
edge $-1 $270 -53.301306993826095 $192 -42.382060481712827 $187 $271 forward 7 unknown #
edge $-1 $193 -18.576931506916619 $270 0 $114 $272 forward 7 unknown #
coedge $-1 $115 $262 $268 $273 forward $191 $-1 #
loop $-1 $-1 $262 $179 #
vertex $-1 $188 $274 #
vertex $-1 $116 $275 #
straight-curve $-1 48.38859335697083 -60.363976390104618 16.583016669933855 0 1 0 I I #
coedge $-1 $195 $195 $-1 $276 reversed $119 $-1 #
edge $-1 $277 0 $277 6.2831853071796004 $120 $278 forward 7 unknown #
vertex $-1 $123 $279 #
ellipse-curve $-1 38.354319699971825 -31.647122045467569 11.123393413877217 0 -0.5877852598018023 0.80901698891910034 2 0 0 1 I I #
coedge $-1 $199 $199 $-1 $280 reversed $126 $-1 #
edge $-1 $281 0 $281 6.2831853071796004 $127 $282 forward 7 unknown #
vertex $-1 $130 $283 #
ellipse-curve $-1 44.374883894171219 -31.647122045467569 11.123393413877217 0 -0.5877852598018023 0.80901698891910034 2 0 0 1 I I #
face $-1 $-1 $215 $28 $-1 $284 forward single #
loop $-1 $-1 $285 $131 #
plane-surface $-1 0 39.161648641008597 0 0 -1 0 0 0 -1 forward_v I I I I #
coedge $-1 $286 $287 $288 $289 reversed $132 $-1 #
coedge $-1 $290 $134 $136 $213 forward $83 $-1 #
coedge $-1 $134 $290 $286 $291 forward $83 $-1 #
coedge $-1 $288 $137 $134 $210 forward $215 $-1 #
edge $-1 $217 -15.819971493519049 $292 12.692297161041878 $209 $293 forward 7 unknown #
coedge $-1 $294 $295 $135 $212 forward $204 $-1 #
edge $-1 $296 -76.059136905791235 $216 -66.645475785846898 $211 $297 forward 7 unknown #
edge $-1 $217 60.045695191406054 $296 78.323297282017194 $136 $298 forward 7 unknown #
coedge $-1 $137 $288 $294 $299 forward $215 $-1 #
loop $-1 $-1 $288 $203 #
vertex $-1 $212 $300 #
vertex $-1 $138 $301 #
straight-curve $-1 -17.383808659757634 21.748369563697111 16.583016669933855 0 -1 0 I I #
coedge $-1 $219 $219 $-1 $302 reversed $141 $-1 #
edge $-1 $303 0 $303 6.2831853071796004 $142 $304 forward 7 unknown #
vertex $-1 $145 $305 #
ellipse-curve $-1 -11.681354928845451 31.328167254971451 11.876186109961694 0 0.51503808176128008 0.85716729658548041 2 0 0 1 I I #
coedge $-1 $223 $223 $-1 $306 reversed $148 $-1 #
edge $-1 $307 0 $307 6.2831853071796004 $149 $308 forward 7 unknown #
vertex $-1 $152 $309 #
ellipse-curve $-1 -3.1276743324771701 31.328167254971451 11.876186109961694 0 0.51503808176128008 0.85716729658548041 2 0 0 1 I I #
coedge $-1 $227 $227 $-1 $310 reversed $155 $-1 #
edge $-1 $311 0 $311 6.2831853071796004 $156 $312 forward 7 unknown #
vertex $-1 $159 $313 #
ellipse-curve $-1 5.4260062638911108 31.328167254971451 11.876186109961694 0 0.51503808176128008 0.85716729658548041 2 0 0 1 I I #
face $-1 $-1 $175 $24 $-1 $314 reversed single #
loop $-1 $-1 $247 $160 #
plane-surface $-1 0 39.161648641008597 0 0 -1 0 0 0 -1 forward_v I I I I #
coedge $-1 $315 $245 $248 $316 forward $161 $-1 #
coedge $-1 $251 $163 $164 $239 reversed $102 $-1 #
coedge $-1 $245 $315 $163 $237 reversed $161 $-1 #
edge $-1 $252 -16.583016669933851 $317 16.583016669933851 $236 $318 forward 7 unknown #
coedge $-1 $165 $164 $315 $319 forward $65 $-1 #
edge $-1 $243 -69.38444166386914 $317 69.38444166386914 $235 $320 forward 7 unknown #
coedge $-1 $248 $247 $165 $241 reversed $232 $-1 #
edge $-1 $321 -69.38444166386914 $242 69.38444166386914 $240 $322 forward 7 unknown #
vertex $-1 $167 $323 #
vertex $-1 $254 $324 #
straight-curve $-1 69.38444166386914 0 -16.583016669933851 0 -1 0 I I #
coedge $-1 $234 $236 $168 $246 reversed $161 $-1 #
edge $-1 $249 -39.161648641008597 $252 39.161648641008597 $245 $325 forward 7 unknown #
coedge $-1 $240 $169 $174 $255 forward $232 $-1 #
coedge $-1 $169 $240 $234 $316 reversed $232 $-1 #
vertex $-1 $170 $326 #
straight-curve $-1 0 39.161648641008597 16.583016669933851 -1 0 0 I I #
coedge $-1 $171 $235 $173 $254 reversed $102 $-1 #
vertex $-1 $246 $327 #
straight-curve $-1 0 -39.161648641008597 16.583016669933851 1 0 0 I I #
edge $-1 $176 -16.583016669933851 $243 16.583016669933851 $173 $328 forward 7 unknown #
edge $-1 $177 -16.583016669933851 $242 16.583016669933851 $174 $329 forward 7 unknown #
point $-1 69.38444166386914 -39.161648641008597 16.583016669933851 #
point $-1 69.38444166386914 39.161648641008597 16.583016669933851 #
plane-surface $-1 0 0 16.583016669933851 0 0 1 1 0 0 forward_v I I I I #
coedge $-1 $269 $268 $261 $330 forward $180 $-1 #
coedge $-1 $261 $182 $184 $265 reversed $110 $-1 #
coedge $-1 $182 $260 $259 $330 reversed $110 $-1 #
coedge $-1 $190 $185 $182 $263 forward $191 $-1 #
edge $-1 $266 -36.23138094017807 $331 -21.202327749096021 $262 $332 forward 7 unknown #
coedge $-1 $184 $183 $269 $333 reversed $69 $-1 #
edge $-1 $334 0 $266 18.576931506916619 $260 $335 forward 7 unknown #
vertex $-1 $186 $336 #
straight-curve $-1 20.682300898535765 -24.132595449926551 16.583016669933851 -1 0 0 I I #
coedge $-1 $259 $187 $190 $273 reversed $180 $-1 #
coedge $-1 $187 $259 $264 $333 forward $180 $-1 #
vertex $-1 $188 $337 #
straight-curve $-1 48.38859335697083 -39.161648641008597 58.965077151646675 0 0 1 I I #
straight-curve $-1 48.38859335697083 -39.161648641008597 5.6637701578205792 0 -0.80901698891910034 -0.5877852598018023 I I #
edge $-1 $331 34.340610237172228 $192 48.38859335697083 $268 $338 forward 7 unknown #
point $-1 48.38859335697083 -39.161648641008597 16.583016669933851 #
point $-1 48.38859335697083 -24.132595449926548 16.583016669933851 #
edge $-1 $339 1 $339 0 $195 $-1 forward 7 unknown #
vertex $-1 $196 $340 #
ellipse-curve $-1 38.354319699971825 -28.206370964117916 6.3876059251057979 0 -0.5877852598018023 0.80901698891910034 2 0 0 1 I I #
point $-1 40.354319699971825 -31.647122045467558 11.123393413877206 #
edge $-1 $341 1 $341 0 $199 $-1 forward 7 unknown #
vertex $-1 $200 $342 #
ellipse-curve $-1 44.374883894171219 -28.206370964117916 6.3876059251057979 0 -0.5877852598018023 0.80901698891910034 2 0 0 1 I I #
point $-1 46.374883894171219 -31.647122045467558 11.123393413877206 #
plane-surface $-1 0 0 16.583016669933851 0 0 1 1 0 0 forward_v I I I I #
coedge $-1 $295 $294 $287 $343 forward $204 $-1 #
coedge $-1 $287 $206 $208 $291 reversed $132 $-1 #
coedge $-1 $206 $286 $285 $343 reversed $132 $-1 #
coedge $-1 $214 $209 $206 $289 forward $215 $-1 #
edge $-1 $292 1.7463163052372082 $344 17.413279077311486 $288 $345 forward 7 unknown #
coedge $-1 $208 $207 $295 $346 reversed $83 $-1 #
edge $-1 $347 -78.323297282017194 $292 -60.045695191406054 $286 $348 forward 7 unknown #
vertex $-1 $210 $349 #
straight-curve $-1 -1.563837166238585 23.494685868934329 16.583016669933848 1 0 0 I I #
coedge $-1 $285 $211 $214 $299 reversed $204 $-1 #
coedge $-1 $211 $285 $290 $346 forward $204 $-1 #
vertex $-1 $212 $350 #
straight-curve $-1 -17.383808659757634 39.161648641008597 83.228492455780753 0 0 1 I I #
straight-curve $-1 -17.383808659757634 -27.974520349878986 47.508836339338146 0 0.85716729658548041 -0.51503808176128008 I I #
edge $-1 $344 -11.128459994803293 $216 17.383808659757634 $294 $351 forward 7 unknown #
point $-1 -17.383808659757634 39.161648641008597 16.583016669933851 #
point $-1 -17.383808659757634 23.494685868934319 16.583016669933851 #
edge $-1 $352 1 $352 0 $219 $-1 forward 7 unknown #
vertex $-1 $220 $353 #
ellipse-curve $-1 -11.681354928845451 28.889772293583736 7.8180154793302918 0 0.51503808176128008 0.85716729658548041 2 0 0 1 I I #
point $-1 -9.681354928845451 31.32816725497144 11.876186109961683 #
edge $-1 $354 1 $354 0 $223 $-1 forward 7 unknown #
vertex $-1 $224 $355 #
ellipse-curve $-1 -3.1276743324771701 28.889772293583736 7.8180154793302918 0 0.51503808176128008 0.85716729658548041 2 0 0 1 I I #
point $-1 -1.1276743324771701 31.32816725497144 11.876186109961683 #
edge $-1 $356 1 $356 0 $227 $-1 forward 7 unknown #
vertex $-1 $228 $357 #
ellipse-curve $-1 5.4260062638911108 28.889772293583736 7.8180154793302918 0 0.51503808176128008 0.85716729658548041 2 0 0 1 I I #
point $-1 7.4260062638911108 31.32816725497144 11.876186109961683 #
plane-surface $-1 69.38444166386914 0 0 -1 0 0 0 0 1 forward_v I I I I #
coedge $-1 $236 $234 $238 $319 reversed $161 $-1 #
edge $-1 $249 -16.583016669933851 $321 16.583016669933851 $248 $358 forward 7 unknown #
vertex $-1 $319 $359 #
straight-curve $-1 -69.38444166386914 -39.161648641008597 0 0 0 -1 I I #
edge $-1 $317 -39.161648641008597 $321 39.161648641008597 $315 $360 forward 7 unknown #
straight-curve $-1 0 -39.161648641008597 -16.583016669933851 -1 0 0 I I #
vertex $-1 $241 $361 #
straight-curve $-1 0 39.161648641008597 -16.583016669933851 1 0 0 I I #
point $-1 69.38444166386914 39.161648641008597 -16.583016669933851 #
point $-1 69.38444166386914 -39.161648641008597 -16.583016669933851 #
straight-curve $-1 -69.38444166386914 0 16.583016669933851 0 -1 0 I I #
point $-1 -69.38444166386914 39.161648641008597 16.583016669933851 #
point $-1 -69.38444166386914 -39.161648641008597 16.583016669933851 #
straight-curve $-1 69.38444166386914 -39.161648641008597 0 0 0 -1 I I #
straight-curve $-1 69.38444166386914 39.161648641008597 0 0 0 -1 I I #
edge $-1 $331 42.382060481712827 $334 53.301306993826095 $259 $362 forward 7 unknown #
vertex $-1 $273 $363 #
straight-curve $-1 34.340610237172228 -60.363976390104618 16.583016669933855 0 -1 0 I I #
edge $-1 $334 13.658309338636464 $270 27.706292458435065 $269 $364 forward 7 unknown #
vertex $-1 $333 $365 #
straight-curve $-1 34.340610237172228 -39.161648641008597 5.6637701578205792 0 0.80901698891910034 0.5877852598018023 I I #
point $-1 34.340610237172228 -24.132595449926548 16.583016669933851 #
point $-1 48.38859335697083 -39.161648641008597 5.6637701578205792 #
straight-curve $-1 0 -39.161648641008597 16.583016669933851 1 0 0 I I #
vertex $-1 $276 $366 #
point $-1 40.354319699971825 -28.206370964117916 6.3876059251057979 #
vertex $-1 $280 $367 #
point $-1 46.374883894171219 -28.206370964117916 6.3876059251057979 #
edge $-1 $344 66.645475785846898 $347 76.059136905791235 $285 $368 forward 7 unknown #
vertex $-1 $299 $369 #
straight-curve $-1 11.128459994803293 21.748369563697111 16.583016669933855 0 1 0 I I #
edge $-1 $347 -12.692297161041878 $296 15.819971493519049 $295 $370 forward 7 unknown #
vertex $-1 $346 $371 #
straight-curve $-1 11.128459994803293 -27.974520349878986 47.508836339338146 0 -0.85716729658548041 0.51503808176128008 I I #
point $-1 11.128459994803293 23.494685868934319 16.583016669933851 #
point $-1 -17.383808659757634 39.161648641008597 7.1693555499895254 #
straight-curve $-1 0 39.161648641008597 16.583016669933851 -1 0 0 I I #
vertex $-1 $302 $372 #
point $-1 -9.681354928845451 28.889772293583736 7.8180154793302918 #
vertex $-1 $306 $373 #
point $-1 -1.1276743324771701 28.889772293583736 7.8180154793302918 #
vertex $-1 $310 $374 #
point $-1 7.4260062638911108 28.889772293583736 7.8180154793302918 #
straight-curve $-1 -69.38444166386914 39.161648641008597 0 0 0 -1 I I #
point $-1 -69.38444166386914 -39.161648641008597 -16.583016669933851 #
straight-curve $-1 -69.38444166386914 0 -16.583016669933851 0 1 0 I I #
point $-1 -69.38444166386914 39.161648641008597 -16.583016669933851 #
straight-curve $-1 34.340610237172228 -39.161648641008597 58.965077151646675 0 0 -1 I I #
point $-1 34.340610237172228 -39.161648641008597 16.583016669933851 #
straight-curve $-1 20.682300898535765 -39.161648641008597 5.6637701578205801 1 0 0 I I #
point $-1 34.340610237172228 -39.161648641008597 5.6637701578205792 #
point $-1 38.354319699971825 -27.030800444514313 4.7695719472675977 #
point $-1 44.374883894171219 -27.030800444514313 4.7695719472675977 #
straight-curve $-1 11.128459994803293 39.161648641008597 83.228492455780753 0 0 -1 I I #
point $-1 11.128459994803293 39.161648641008597 16.583016669933851 #
straight-curve $-1 -1.563837166238585 39.16164864100859 7.1693555499895325 -1 0 0 I I #
point $-1 11.128459994803293 39.161648641008597 7.1693555499895254 #
point $-1 -11.681354928845451 27.859696130061177 6.1036808861593315 #
point $-1 -3.1276743324771701 27.859696130061177 6.1036808861593315 #
point $-1 5.4260062638911108 27.859696130061177 6.1036808861593315 #
End-of-ACIS-data 