500 0 9 0           
7 Unknown 11 ACIS 5.0 NT 24 Fri Mar 26 17:42:36 1999 
-1 9.9999999999999995e-007 1e-010 
body $-1 $9 $-1 $10 #
body $-1 $11 $-1 $12 #
body $-1 $13 $-1 $14 #
body $-1 $15 $-1 $16 #
body $-1 $17 $-1 $18 #
body $-1 $19 $-1 $20 #
body $-1 $21 $-1 $22 #
body $-1 $23 $-1 $24 #
body $-1 $25 $-1 $26 #
lump $-1 $-1 $27 $0 #
transform $-1 1 0 0 0 1 0 0 0 1 61.093173009430217 28.422020000480796 13.302324183641268 1 rotate no_reflect no_shear #
lump $-1 $-1 $28 $1 #
transform $-1 1 0 0 0 1 0 0 0 1 61.093173009430217 28.422020000480796 13.302324183641268 1 rotate no_reflect no_shear #
lump $-1 $-1 $29 $2 #
transform $-1 1 0 0 0 1 0 0 0 1 61.093173009430217 28.422020000480796 13.302324183641268 1 rotate no_reflect no_shear #
lump $-1 $-1 $30 $3 #
transform $-1 1 0 0 0 1 0 0 0 1 61.093173009430217 28.422020000480796 13.302324183641268 1 rotate no_reflect no_shear #
lump $-1 $-1 $31 $4 #
transform $-1 1 0 0 0 1 0 0 0 1 61.093173009430217 28.422020000480796 13.302324183641268 1 rotate no_reflect no_shear #
lump $-1 $-1 $32 $5 #
transform $-1 1 0 0 0 1 0 0 0 1 61.093173009430217 28.422020000480796 13.302324183641268 1 rotate no_reflect no_shear #
lump $-1 $-1 $33 $6 #
transform $-1 1 0 0 0 1 0 0 0 1 61.093173009430217 28.422020000480796 13.302324183641268 1 rotate no_reflect no_shear #
lump $-1 $-1 $34 $7 #
transform $-1 1 0 0 0 1 0 0 0 1 61.093173009430217 28.422020000480796 13.302324183641268 1 rotate no_reflect no_shear #
lump $-1 $-1 $35 $8 #
transform $-1 1 0 0 0 1 0 0 0 1 61.093173009430217 28.422020000480796 13.302324183641268 1 rotate no_reflect no_shear #
shell $-1 $-1 $-1 $36 $-1 $9 #
shell $-1 $-1 $-1 $37 $-1 $11 #
shell $-1 $-1 $-1 $38 $-1 $13 #
shell $-1 $-1 $-1 $39 $-1 $15 #
shell $-1 $-1 $-1 $40 $-1 $17 #
shell $-1 $-1 $-1 $41 $-1 $19 #
shell $-1 $-1 $-1 $42 $-1 $21 #
shell $-1 $-1 $-1 $43 $-1 $23 #
shell $-1 $-1 $-1 $44 $-1 $25 #
face $-1 $45 $46 $27 $-1 $47 forward single #
face $-1 $48 $49 $28 $-1 $50 forward single #
face $-1 $51 $52 $29 $-1 $53 forward single #
face $-1 $54 $55 $30 $-1 $56 reversed single #
face $-1 $57 $58 $31 $-1 $59 forward single #
face $-1 $60 $61 $32 $-1 $62 forward single #
face $-1 $63 $64 $33 $-1 $65 reversed single #
face $-1 $66 $67 $34 $-1 $68 forward single #
face $-1 $69 $70 $35 $-1 $71 forward single #
face $-1 $72 $73 $27 $-1 $74 reversed single #
loop $-1 $-1 $75 $36 #
plane-surface $-1 0 0 13.302324183641268 0 0 1 1 0 0 forward_v I I I I #
face $-1 $76 $77 $28 $-1 $78 reversed single #
loop $-1 $-1 $79 $37 #
plane-surface $-1 0 -28.422020000480796 0 0 1 0 0 0 1 forward_v I I I I #
face $-1 $80 $81 $29 $-1 $82 reversed single #
loop $-1 $-1 $83 $38 #
plane-surface $-1 0 28.422020000480796 0 0 -1 0 0 0 -1 forward_v I I I I #
face $-1 $84 $85 $30 $-1 $86 reversed single #
loop $-1 $-1 $87 $39 #
plane-surface $-1 -144.42406160706179 -8.6808585489573122 89.400108148456042 0 1 0 -0.68199836817093118 0 0.7313536940579346 forward_v I I I I #
face $-1 $88 $89 $31 $-1 $90 forward single #
loop $-1 $91 $92 $40 #
cone-surface $-1 -53.483331486450425 -6.2006132492552197 6.1363738402761099 0.68199836817093118 0 -0.7313536940579346 0.3656768470289673 0 0.34099918408546559 1 I I 0 1 0.5 forward I I I I #
face $-1 $93 $94 $32 $-1 $95 forward single #
loop $-1 $96 $97 $41 #
cone-surface $-1 -53.483331486450425 -2.4802452997020872 6.1363738402761099 0.68199836817093118 0 -0.7313536940579346 0.3656768470289673 0 0.34099918408546559 1 I I 0 1 0.5 forward I I I I #
face $-1 $98 $99 $33 $-1 $100 reversed single #
loop $-1 $-1 $101 $42 #
plane-surface $-1 -61.093173009430217 -4.3404292744786552 0.03867262412144612 -0.68199836817093118 0 0.7313536940579346 0.7313536940579346 0 0.68199836817093118 forward_v I I I I #
face $-1 $102 $103 $34 $-1 $104 forward single #
loop $-1 $105 $106 $43 #
cone-surface $-1 -53.483331486450425 2.4802452997020943 6.1363738402761099 0.68199836817093118 0 -0.7313536940579346 0.3656768470289673 0 0.34099918408546559 1 I I 0 1 0.5 forward I I I I #
face $-1 $107 $108 $35 $-1 $109 forward single #
loop $-1 $110 $111 $44 #
cone-surface $-1 -53.483331486450425 6.2006132492552233 6.1363738402761099 0.68199836817093118 0 -0.7313536940579346 0.3656768470289673 0 0.34099918408546559 1 I I 0 1 0.5 forward I I I I #
face $-1 $112 $113 $27 $-1 $114 reversed single #
loop $-1 $-1 $115 $45 #
plane-surface $-1 0 0 -13.302324183641268 0 0 1 1 0 0 forward_v I I I I #
coedge $-1 $116 $117 $118 $119 forward $46 $-1 #
face $-1 $120 $121 $28 $-1 $122 reversed single #
loop $-1 $-1 $123 $48 #
plane-surface $-1 0 0 -13.302324183641268 0 0 1 1 0 0 forward_v I I I I #
coedge $-1 $124 $125 $126 $127 forward $49 $-1 #
face $-1 $128 $129 $29 $-1 $130 reversed single #
loop $-1 $-1 $131 $51 #
plane-surface $-1 0 0 -13.302324183641268 0 0 1 1 0 0 forward_v I I I I #
coedge $-1 $132 $133 $134 $135 forward $52 $-1 #
face $-1 $136 $137 $30 $-1 $138 reversed single #
loop $-1 $-1 $139 $54 #
plane-surface $-1 -61.093173009430217 -4.3404292744786552 0.03867262412144612 -0.68199836817093118 0 0.7313536940579346 0.7313536940579346 0 0.68199836817093118 forward_v I I I I #
coedge $-1 $140 $141 $142 $143 reversed $55 $-1 #
face $-1 $-1 $144 $31 $-1 $145 forward single #
loop $-1 $146 $147 $57 #
cone-surface $-1 -52.814752669897835 -6.2006132492552197 5.4194108531563714 0.68199836817093118 0 -0.7313536940579346 0.18283842351448365 0 0.17049959204273279 1 I I -0.70710678118654746 0.70710678118654746 0.25 forward I I I I #
loop $-1 $-1 $148 $40 #
coedge $-1 $92 $92 $149 $150 reversed $58 $-1 #
face $-1 $-1 $151 $32 $-1 $152 forward single #
loop $-1 $153 $154 $60 #
cone-surface $-1 -52.814752669897835 -2.4802452997020872 5.4194108531563714 0.68199836817093118 0 -0.7313536940579346 0.18283842351448365 0 0.17049959204273279 1 I I -0.70710678118654746 0.70710678118654746 0.25 forward I I I I #
loop $-1 $-1 $155 $41 #
coedge $-1 $97 $97 $156 $157 reversed $61 $-1 #
face $-1 $158 $159 $33 $-1 $160 reversed single #
loop $-1 $-1 $161 $63 #
plane-surface $-1 -144.42406160706179 8.6808585489573122 89.400108148456042 0 -1 0 0.68199836817093118 0 -0.7313536940579346 forward_v I I I I #
coedge $-1 $162 $163 $164 $165 reversed $64 $-1 #
face $-1 $-1 $166 $34 $-1 $167 forward single #
loop $-1 $168 $169 $66 #
cone-surface $-1 -52.814752669897835 2.4802452997020943 5.4194108531563714 0.68199836817093118 0 -0.7313536940579346 0.18283842351448365 0 0.17049959204273279 1 I I -0.70710678118654746 0.70710678118654746 0.25 forward I I I I #
loop $-1 $-1 $170 $43 #
coedge $-1 $106 $106 $171 $172 reversed $67 $-1 #
face $-1 $-1 $173 $35 $-1 $174 forward single #
loop $-1 $175 $176 $69 #
cone-surface $-1 -52.814752669897835 6.2006132492552233 5.4194108531563714 0.68199836817093118 0 -0.7313536940579346 0.18283842351448365 0 0.17049959204273279 1 I I -0.70710678118654746 0.70710678118654746 0.25 forward I I I I #
loop $-1 $-1 $177 $44 #
coedge $-1 $111 $111 $178 $179 reversed $70 $-1 #
face $-1 $180 $181 $27 $-1 $182 reversed single #
loop $-1 $-1 $183 $72 #
plane-surface $-1 0 -28.422020000480796 0 0 1 0 0 0 1 forward_v I I I I #
coedge $-1 $184 $185 $186 $187 forward $73 $-1 #
coedge $-1 $188 $75 $189 $190 forward $46 $-1 #
coedge $-1 $75 $188 $191 $192 forward $46 $-1 #
coedge $-1 $193 $194 $75 $119 reversed $195 $-1 #
edge $-1 $196 -28.422020000480796 $197 28.422020000480796 $118 $198 forward 7 unknown #
face $-1 $199 $200 $28 $-1 $201 reversed single #
loop $-1 $-1 $202 $76 #
plane-surface $-1 -37.762608760579283 -38.476940223939579 0 0 1 0 0 0 1 forward_v I I I I #
coedge $-1 $203 $204 $125 $205 forward $77 $-1 #
coedge $-1 $206 $79 $207 $208 reversed $49 $-1 #
coedge $-1 $79 $206 $123 $205 reversed $49 $-1 #
coedge $-1 $209 $210 $79 $127 reversed $200 $-1 #
edge $-1 $211 -13.302324183641268 $212 13.302324183641268 $126 $213 forward 7 unknown #
face $-1 $214 $215 $29 $-1 $216 reversed single #
loop $-1 $-1 $217 $80 #
plane-surface $-1 -41.036692879010886 33.449480112210182 0 1 0 0 0 0 -1 forward_v I I I I #
coedge $-1 $218 $219 $133 $220 forward $81 $-1 #
coedge $-1 $221 $83 $222 $223 reversed $52 $-1 #
coedge $-1 $83 $221 $131 $220 reversed $52 $-1 #
coedge $-1 $224 $225 $83 $135 reversed $226 $-1 #
edge $-1 $227 -13.302324183641268 $228 13.302324183641268 $134 $229 forward 7 unknown #
face $-1 $230 $231 $30 $-1 $232 reversed single #
loop $-1 $-1 $233 $84 #
plane-surface $-1 -144.42406160706179 1.7763568394002505e-015 89.400108148456042 0 -1 0 0.68199836817093118 0 -0.7313536940579346 forward_v I I I I #
coedge $-1 $234 $235 $236 $237 reversed $85 $-1 #
coedge $-1 $141 $87 $238 $239 reversed $55 $-1 #
coedge $-1 $87 $140 $234 $240 reversed $55 $-1 #
coedge $-1 $236 $241 $87 $143 forward $242 $-1 #
edge $-1 $243 11.118857794100677 $244 25.342382391040573 $142 $245 forward 7 unknown #
loop $-1 $-1 $149 $88 #
plane-surface $-1 -61.093173009430217 -4.3404292744786552 0.03867262412144612 -0.68199836817093118 0 0.7313536940579346 0.7313536940579346 0 0.68199836817093118 forward_v I I I I #
loop $-1 $-1 $246 $57 #
coedge $-1 $147 $147 $148 $247 reversed $89 $-1 #
coedge $-1 $148 $148 $147 $247 forward $91 $-1 #
coedge $-1 $149 $149 $92 $150 forward $144 $-1 #
edge $-1 $248 0 $248 6.2831853071796004 $149 $249 forward 7 unknown #
loop $-1 $-1 $156 $93 #
plane-surface $-1 -61.093173009430217 -4.3404292744786552 0.03867262412144612 -0.68199836817093118 0 0.7313536940579346 0.7313536940579346 0 0.68199836817093118 forward_v I I I I #
loop $-1 $-1 $250 $60 #
coedge $-1 $154 $154 $155 $251 reversed $94 $-1 #
coedge $-1 $155 $155 $154 $251 forward $96 $-1 #
coedge $-1 $156 $156 $97 $157 forward $151 $-1 #
edge $-1 $252 0 $252 6.2831853071796004 $156 $253 forward 7 unknown #
face $-1 $254 $255 $33 $-1 $256 forward single #
loop $-1 $-1 $257 $98 #
plane-surface $-1 -61.093173009430217 0 0 1 0 0 0 0 -1 forward_v I I I I #
coedge $-1 $258 $259 $260 $261 reversed $99 $-1 #
coedge $-1 $262 $101 $263 $264 reversed $64 $-1 #
coedge $-1 $101 $262 $265 $266 reversed $64 $-1 #
coedge $-1 $267 $268 $101 $165 forward $255 $-1 #
edge $-1 $269 0 $270 19.448215976076234 $164 $271 forward 7 unknown #
loop $-1 $-1 $171 $102 #
plane-surface $-1 -61.093173009430217 -4.3404292744786552 0.03867262412144612 -0.68199836817093118 0 0.7313536940579346 0.7313536940579346 0 0.68199836817093118 forward_v I I I I #
loop $-1 $-1 $272 $66 #
coedge $-1 $169 $169 $170 $273 reversed $103 $-1 #
coedge $-1 $170 $170 $169 $273 forward $105 $-1 #
coedge $-1 $171 $171 $106 $172 forward $166 $-1 #
edge $-1 $274 0 $274 6.2831853071796004 $171 $275 forward 7 unknown #
loop $-1 $-1 $178 $107 #
plane-surface $-1 -61.093173009430217 -4.3404292744786552 0.03867262412144612 -0.68199836817093118 0 0.7313536940579346 0.7313536940579346 0 0.68199836817093118 forward_v I I I I #
loop $-1 $-1 $276 $69 #
coedge $-1 $176 $176 $177 $277 reversed $108 $-1 #
coedge $-1 $177 $177 $176 $277 forward $110 $-1 #
coedge $-1 $178 $178 $111 $179 forward $173 $-1 #
edge $-1 $278 0 $278 6.2831853071796004 $178 $279 forward 7 unknown #
face $-1 $280 $281 $27 $-1 $282 reversed single #
loop $-1 $-1 $283 $112 #
plane-surface $-1 -61.093173009430217 0 0 1 0 0 0 0 -1 forward_v I I I I #
coedge $-1 $284 $191 $285 $286 forward $113 $-1 #
coedge $-1 $287 $115 $284 $288 forward $73 $-1 #
coedge $-1 $115 $287 $289 $290 forward $73 $-1 #
coedge $-1 $194 $193 $115 $187 reversed $195 $-1 #
edge $-1 $291 -28.422020000480796 $292 28.422020000480796 $186 $293 forward 7 unknown #
coedge $-1 $117 $116 $294 $295 forward $46 $-1 #
coedge $-1 $296 $297 $116 $190 reversed $281 $-1 #
edge $-1 $197 -61.093173009430217 $298 61.093173009430217 $189 $299 forward 7 unknown #
coedge $-1 $183 $300 $117 $192 reversed $113 $-1 #
edge $-1 $301 -61.093173009430217 $196 61.093173009430217 $191 $302 forward 7 unknown #
coedge $-1 $186 $118 $300 $303 forward $195 $-1 #
coedge $-1 $118 $186 $296 $304 reversed $195 $-1 #
loop $-1 $-1 $193 $280 #
vertex $-1 $119 $305 #
vertex $-1 $119 $306 #
straight-curve $-1 61.093173009430217 0 13.302324183641268 0 1 0 I I #
face $-1 $307 $308 $28 $-1 $309 reversed single #
loop $-1 $-1 $126 $120 #
plane-surface $-1 -41.036692879010886 -33.449480112210189 0 1 0 0 0 0 -1 forward_v I I I I #
coedge $-1 $310 $311 $312 $313 forward $121 $-1 #
coedge $-1 $314 $123 $315 $316 forward $77 $-1 #
coedge $-1 $123 $314 $209 $317 forward $77 $-1 #
edge $-1 $211 -41.036692879010886 $318 -34.488524642147681 $123 $319 forward 7 unknown #
coedge $-1 $125 $124 $320 $321 forward $49 $-1 #
coedge $-1 $322 $323 $124 $208 forward $324 $-1 #
edge $-1 $325 34.488524642147681 $212 41.036692879010886 $207 $326 forward 7 unknown #
coedge $-1 $312 $126 $204 $317 reversed $200 $-1 #
coedge $-1 $126 $312 $322 $327 reversed $200 $-1 #
vertex $-1 $205 $328 #
vertex $-1 $327 $329 #
straight-curve $-1 -41.036692879010886 -28.422020000480796 0 0 0 1 I I #
face $-1 $330 $226 $29 $-1 $331 reversed single #
loop $-1 $-1 $332 $128 #
plane-surface $-1 -37.762608760579283 38.476940223939579 0 0 -1 0 0 0 -1 forward_v I I I I #
coedge $-1 $333 $334 $335 $336 forward $129 $-1 #
coedge $-1 $337 $131 $333 $338 forward $81 $-1 #
coedge $-1 $131 $337 $224 $339 forward $81 $-1 #
edge $-1 $227 34.488524642147681 $340 41.036692879010886 $131 $341 forward 7 unknown #
coedge $-1 $133 $132 $342 $343 forward $52 $-1 #
coedge $-1 $344 $345 $132 $223 forward $346 $-1 #
edge $-1 $347 -41.036692879010886 $228 -34.488524642147681 $222 $348 forward 7 unknown #
coedge $-1 $349 $134 $219 $339 reversed $226 $-1 #
coedge $-1 $134 $349 $344 $350 reversed $226 $-1 #
loop $-1 $-1 $134 $214 #
vertex $-1 $220 $351 #
vertex $-1 $350 $352 #
straight-curve $-1 -34.488524642147681 28.422020000480796 0 0 0 1 I I #
face $-1 $-1 $242 $30 $-1 $353 forward single #
loop $-1 $-1 $354 $136 #
plane-surface $-1 -61.093173009430217 0 0 1 0 0 0 0 -1 forward_v I I I I #
coedge $-1 $355 $356 $357 $358 reversed $137 $-1 #
coedge $-1 $359 $139 $141 $240 forward $85 $-1 #
coedge $-1 $139 $359 $355 $360 forward $85 $-1 #
coedge $-1 $357 $142 $139 $237 forward $242 $-1 #
edge $-1 $244 -6.5106439117179846 $361 2.1702146372393294 $236 $362 forward 7 unknown #
coedge $-1 $363 $364 $140 $239 forward $231 $-1 #
edge $-1 $365 -44.661381450106575 $243 -31.397729890586753 $238 $366 forward 7 unknown #
edge $-1 $244 -19.448215976076234 $365 0 $141 $367 forward 7 unknown #
coedge $-1 $142 $357 $363 $368 forward $242 $-1 #
loop $-1 $-1 $357 $230 #
vertex $-1 $239 $369 #
vertex $-1 $143 $370 #
straight-curve $-1 -72.212030803530894 -8.6808585489573122 13.302324183641268 1 0 0 I I #
coedge $-1 $246 $246 $-1 $371 reversed $146 $-1 #
edge $-1 $372 0 $372 6.2831853071796004 $147 $373 forward 7 unknown #
vertex $-1 $150 $374 #
ellipse-curve $-1 -53.981410710960276 -6.2006132492552197 6.6704984038813571 -0.68199836817093118 0 0.7313536940579346 0.3656768470289673 0 0.34099918408546559 1 I I #
coedge $-1 $250 $250 $-1 $375 reversed $153 $-1 #
edge $-1 $376 0 $376 6.2831853071796004 $154 $377 forward 7 unknown #
vertex $-1 $157 $378 #
ellipse-curve $-1 -53.981410710960276 -2.4802452997020872 6.6704984038813571 -0.68199836817093118 0 0.7313536940579346 0.3656768470289673 0 0.34099918408546559 1 I I #
face $-1 $-1 $379 $33 $-1 $380 forward single #
loop $-1 $-1 $267 $158 #
plane-surface $-1 -144.42406160706179 1.7763568394002505e-015 89.400108148456042 0 -1 0 0.68199836817093118 0 -0.7313536940579346 forward_v I I I I #
coedge $-1 $263 $381 $259 $382 forward $159 $-1 #
coedge $-1 $259 $161 $262 $383 reversed $99 $-1 #
coedge $-1 $161 $258 $257 $382 reversed $99 $-1 #
coedge $-1 $384 $265 $161 $261 forward $379 $-1 #
edge $-1 $385 -25.342382391040573 $386 -11.118857794100677 $260 $387 forward 7 unknown #
coedge $-1 $163 $162 $258 $383 forward $64 $-1 #
coedge $-1 $388 $257 $162 $264 forward $159 $-1 #
edge $-1 $389 -10.85107318619664 $269 -2.1702146372393294 $263 $390 forward 7 unknown #
coedge $-1 $260 $391 $163 $266 forward $379 $-1 #
edge $-1 $270 2.1702146372393294 $385 10.85107318619664 $265 $392 forward 7 unknown #
coedge $-1 $268 $164 $391 $393 reversed $255 $-1 #
coedge $-1 $164 $267 $388 $394 reversed $255 $-1 #
vertex $-1 $264 $395 #
vertex $-1 $266 $396 #
straight-curve $-1 -61.093173009430217 1.7763568394002505e-015 0.03867262412144612 0.7313536940579346 0 0.68199836817093118 I I #
coedge $-1 $272 $272 $-1 $397 reversed $168 $-1 #
edge $-1 $398 0 $398 6.2831853071796004 $169 $399 forward 7 unknown #
vertex $-1 $172 $400 #
ellipse-curve $-1 -53.981410710960276 2.4802452997020943 6.6704984038813571 -0.68199836817093118 0 0.7313536940579346 0.3656768470289673 0 0.34099918408546559 1 I I #
coedge $-1 $276 $276 $-1 $401 reversed $175 $-1 #
edge $-1 $402 0 $402 6.2831853071796004 $176 $403 forward 7 unknown #
vertex $-1 $179 $404 #
ellipse-curve $-1 -53.981410710960276 6.2006132492552233 6.6704984038813571 -0.68199836817093118 0 0.7313536940579346 0.3656768470289673 0 0.34099918408546559 1 I I #
face $-1 $-1 $195 $27 $-1 $405 reversed single #
loop $-1 $-1 $296 $180 #
plane-surface $-1 0 28.422020000480796 0 0 -1 0 0 0 -1 forward_v I I I I #
coedge $-1 $406 $294 $297 $407 forward $181 $-1 #
coedge $-1 $300 $183 $184 $288 reversed $113 $-1 #
coedge $-1 $294 $406 $183 $286 reversed $181 $-1 #
edge $-1 $301 -13.302324183641268 $408 13.302324183641268 $285 $409 forward 7 unknown #
coedge $-1 $185 $184 $406 $410 forward $73 $-1 #
edge $-1 $292 -61.093173009430217 $408 61.093173009430217 $284 $411 forward 7 unknown #
coedge $-1 $297 $296 $185 $290 reversed $281 $-1 #
edge $-1 $412 -61.093173009430217 $291 61.093173009430217 $289 $413 forward 7 unknown #
vertex $-1 $187 $414 #
vertex $-1 $303 $415 #
straight-curve $-1 61.093173009430217 0 -13.302324183641268 0 -1 0 I I #
coedge $-1 $283 $285 $188 $295 reversed $181 $-1 #
edge $-1 $298 -28.422020000480796 $301 28.422020000480796 $294 $416 forward 7 unknown #
coedge $-1 $289 $189 $194 $304 forward $281 $-1 #
coedge $-1 $189 $289 $283 $407 reversed $281 $-1 #
vertex $-1 $190 $417 #
straight-curve $-1 0 28.422020000480796 13.302324183641268 -1 0 0 I I #
coedge $-1 $191 $284 $193 $303 reversed $113 $-1 #
vertex $-1 $295 $418 #
straight-curve $-1 0 -28.422020000480796 13.302324183641268 1 0 0 I I #
edge $-1 $196 -13.302324183641268 $292 13.302324183641268 $193 $419 forward 7 unknown #
edge $-1 $197 -13.302324183641268 $291 13.302324183641268 $194 $420 forward 7 unknown #
point $-1 61.093173009430217 -28.422020000480796 13.302324183641268 #
point $-1 61.093173009430217 28.422020000480796 13.302324183641268 #
face $-1 $-1 $324 $28 $-1 $421 forward single #
loop $-1 $-1 $422 $199 #
plane-surface $-1 -34.488524642147681 -33.449480112210189 0 -1 0 0 0 0 1 forward_v I I I I #
coedge $-1 $423 $202 $314 $424 reversed $121 $-1 #
coedge $-1 $202 $423 $425 $426 reversed $121 $-1 #
coedge $-1 $210 $209 $202 $313 reversed $200 $-1 #
edge $-1 $427 -13.302324183641268 $428 13.302324183641268 $312 $429 forward 7 unknown #
coedge $-1 $204 $203 $310 $424 forward $77 $-1 #
coedge $-1 $320 $422 $203 $316 reversed $308 $-1 #
edge $-1 $318 -5.0274601117293898 $430 5.0274601117293898 $315 $431 forward 7 unknown #
edge $-1 $428 -5.0274601117293898 $211 5.0274601117293898 $209 $432 forward 7 unknown #
vertex $-1 $316 $433 #
straight-curve $-1 0 -28.422020000480796 -13.302324183641268 1 0 0 I I #
coedge $-1 $434 $315 $206 $321 reversed $308 $-1 #
edge $-1 $325 -13.302324183641268 $318 13.302324183641268 $320 $435 forward 7 unknown #
coedge $-1 $425 $207 $210 $327 forward $324 $-1 #
coedge $-1 $207 $425 $434 $436 forward $324 $-1 #
loop $-1 $-1 $207 $307 #
vertex $-1 $208 $437 #
straight-curve $-1 0 -28.422020000480796 13.302324183641268 -1 0 0 I I #
edge $-1 $212 -5.0274601117293898 $427 5.0274601117293898 $210 $438 forward 7 unknown #
point $-1 -41.036692879010886 -28.422020000480799 -13.302324183641268 #
point $-1 -41.036692879010886 -28.422020000480799 13.302324183641268 #
face $-1 $-1 $346 $29 $-1 $439 forward single #
plane-surface $-1 -34.488524642147681 33.449480112210182 0 -1 0 0 0 0 1 forward_v I I I I #
coedge $-1 $440 $441 $349 $442 forward $215 $-1 #
coedge $-1 $342 $217 $218 $338 reversed $129 $-1 #
coedge $-1 $217 $342 $345 $443 reversed $129 $-1 #
coedge $-1 $441 $440 $217 $336 reversed $215 $-1 #
edge $-1 $444 -13.302324183641268 $445 13.302324183641268 $335 $446 forward 7 unknown #
coedge $-1 $219 $218 $440 $447 forward $81 $-1 #
edge $-1 $340 -5.0274601117293933 $445 5.0274601117293969 $333 $448 forward 7 unknown #
edge $-1 $449 -5.0274601117293969 $227 5.0274601117293933 $224 $450 forward 7 unknown #
vertex $-1 $338 $451 #
straight-curve $-1 0 28.422020000480796 -13.302324183641268 -1 0 0 I I #
coedge $-1 $334 $333 $221 $343 reversed $129 $-1 #
edge $-1 $347 -13.302324183641268 $340 13.302324183641268 $342 $452 forward 7 unknown #
coedge $-1 $453 $222 $225 $350 forward $346 $-1 #
coedge $-1 $222 $453 $334 $443 forward $346 $-1 #
loop $-1 $-1 $222 $330 #
vertex $-1 $223 $454 #
straight-curve $-1 0 28.422020000480796 13.302324183641268 1 0 0 I I #
coedge $-1 $225 $224 $332 $442 reversed $226 $-1 #
edge $-1 $228 -5.0274601117293933 $455 5.0274601117293969 $225 $456 forward 7 unknown #
point $-1 -34.488524642147681 28.422020000480789 -13.302324183641268 #
point $-1 -34.488524642147681 28.422020000480789 13.302324183641268 #
plane-surface $-1 0 0 13.302324183641268 0 0 1 1 0 0 forward_v I I I I #
coedge $-1 $364 $363 $356 $457 forward $231 $-1 #
coedge $-1 $356 $233 $235 $360 reversed $137 $-1 #
coedge $-1 $233 $355 $354 $457 reversed $137 $-1 #
coedge $-1 $241 $236 $233 $358 forward $242 $-1 #
edge $-1 $361 -25.342382391040573 $458 -11.118857794100677 $357 $459 forward 7 unknown #
coedge $-1 $235 $234 $364 $460 reversed $85 $-1 #
edge $-1 $461 0 $361 19.448215976076234 $355 $462 forward 7 unknown #
vertex $-1 $237 $463 #
straight-curve $-1 -46.869648412490328 -2.1702146372393276 13.302324183641268 0 1 0 I I #
coedge $-1 $354 $238 $241 $368 reversed $231 $-1 #
coedge $-1 $238 $354 $359 $460 forward $231 $-1 #
vertex $-1 $239 $464 #
straight-curve $-1 -61.093173009430217 -8.6808585489573122 44.700054074228021 0 0 1 I I #
straight-curve $-1 -61.093173009430217 -8.6808585489573122 0.03867262412144612 -0.7313536940579346 0 -0.68199836817093118 I I #
edge $-1 $458 -1.7763568394002505e-015 $243 8.6808585489573122 $363 $465 forward 7 unknown #
point $-1 -61.093173009430217 -8.6808585489573122 13.302324183641268 #
point $-1 -46.869648412490321 -8.6808585489573122 13.30232418364127 #
edge $-1 $466 1 $466 0 $246 $-1 forward 7 unknown #
vertex $-1 $247 $467 #
ellipse-curve $-1 -52.985252261940566 -6.2006132492552197 5.6022492766708547 -0.68199836817093118 0 0.7313536940579346 0.3656768470289673 0 0.34099918408546559 1 I I #
point $-1 -53.615733863931311 -6.2006132492552197 7.0114975879668302 #
edge $-1 $468 1 $468 0 $250 $-1 forward 7 unknown #
vertex $-1 $251 $469 #
ellipse-curve $-1 -52.985252261940566 -2.4802452997020872 5.6022492766708547 -0.68199836817093118 0 0.7313536940579346 0.3656768470289673 0 0.34099918408546559 1 I I #
point $-1 -53.615733863931311 -2.4802452997020872 7.0114975879668302 #
loop $-1 $-1 $260 $254 #
plane-surface $-1 0 0 13.302324183641268 0 0 1 1 0 0 forward_v I I I I #
coedge $-1 $257 $388 $384 $470 reversed $159 $-1 #
edge $-1 $386 31.397729890586753 $389 44.661381450106575 $257 $471 forward 7 unknown #
edge $-1 $389 0 $385 19.448215976076234 $258 $472 forward 7 unknown #
coedge $-1 $391 $260 $381 $470 forward $379 $-1 #
vertex $-1 $261 $473 #
vertex $-1 $470 $474 #
straight-curve $-1 -72.212030803530894 8.6808585489573122 13.302324183641268 -1 0 0 I I #
coedge $-1 $381 $263 $268 $394 forward $159 $-1 #
vertex $-1 $382 $475 #
straight-curve $-1 -61.093173009430217 -2.1702146372393276 0.038672624121444704 0 -1 0 I I #
coedge $-1 $265 $384 $267 $393 forward $379 $-1 #
straight-curve $-1 -46.869648412490328 -2.1702146372393276 13.302324183641268 0 1 0 I I #
edge $-1 $476 11.118857794100677 $270 25.342382391040573 $391 $477 forward 7 unknown #
edge $-1 $269 -44.661381450106575 $476 -31.397729890586753 $388 $478 forward 7 unknown #
point $-1 -61.093173009430217 1.7763568394002505e-015 0.03867262412144612 #
point $-1 -46.869648412490321 1.7763568394002505e-015 13.30232418364127 #
edge $-1 $479 1 $479 0 $272 $-1 forward 7 unknown #
vertex $-1 $273 $480 #
ellipse-curve $-1 -52.985252261940566 2.4802452997020943 5.6022492766708547 -0.68199836817093118 0 0.7313536940579346 0.3656768470289673 0 0.34099918408546559 1 I I #
point $-1 -53.615733863931311 2.4802452997020943 7.0114975879668302 #
edge $-1 $481 1 $481 0 $276 $-1 forward 7 unknown #
vertex $-1 $277 $482 #
ellipse-curve $-1 -52.985252261940566 6.2006132492552233 5.6022492766708547 -0.68199836817093118 0 0.7313536940579346 0.3656768470289673 0 0.34099918408546559 1 I I #
point $-1 -53.615733863931311 6.2006132492552233 7.0114975879668302 #
plane-surface $-1 61.093173009430217 0 0 -1 0 0 0 0 1 forward_v I I I I #
coedge $-1 $285 $283 $287 $410 reversed $181 $-1 #
edge $-1 $298 -13.302324183641268 $412 13.302324183641268 $297 $483 forward 7 unknown #
vertex $-1 $410 $484 #
straight-curve $-1 -61.093173009430217 -28.422020000480796 0 0 0 -1 I I #
edge $-1 $408 -28.422020000480796 $412 28.422020000480796 $406 $485 forward 7 unknown #
straight-curve $-1 0 -28.422020000480796 -13.302324183641268 -1 0 0 I I #
vertex $-1 $290 $486 #
straight-curve $-1 0 28.422020000480796 -13.302324183641268 1 0 0 I I #
point $-1 61.093173009430217 28.422020000480796 -13.302324183641268 #
point $-1 61.093173009430217 -28.422020000480796 -13.302324183641268 #
straight-curve $-1 -61.093173009430217 0 13.302324183641268 0 -1 0 I I #
point $-1 -61.093173009430217 28.422020000480796 13.302324183641268 #
point $-1 -61.093173009430217 -28.422020000480796 13.302324183641268 #
straight-curve $-1 61.093173009430217 -28.422020000480796 0 0 0 -1 I I #
straight-curve $-1 61.093173009430217 28.422020000480796 0 0 0 -1 I I #
plane-surface $-1 0 0 13.302324183641268 0 0 1 1 0 0 forward_v I I I I #
coedge $-1 $315 $434 $423 $487 forward $308 $-1 #
coedge $-1 $311 $310 $422 $487 reversed $121 $-1 #
edge $-1 $430 -3.2740841184316025 $428 3.2740841184316025 $310 $488 forward 7 unknown #
coedge $-1 $323 $322 $311 $426 forward $324 $-1 #
edge $-1 $427 -3.2740841184316025 $489 3.2740841184316025 $311 $490 forward 7 unknown #
vertex $-1 $327 $491 #
vertex $-1 $317 $492 #
straight-curve $-1 -41.036692879010886 -38.476940223939579 0 0 0 -1 I I #
vertex $-1 $487 $493 #
straight-curve $-1 -34.488524642147681 -33.449480112210189 -13.302324183641268 0 -1 0 I I #
straight-curve $-1 -41.036692879010886 -33.449480112210189 -13.302324183641268 0 1 0 I I #
point $-1 -34.488524642147681 -28.422020000480799 -13.302324183641268 #
coedge $-1 $422 $320 $323 $436 reversed $308 $-1 #
straight-curve $-1 -34.488524642147681 -28.422020000480796 0 0 0 -1 I I #
edge $-1 $489 -5.0274601117293898 $325 5.0274601117293898 $434 $494 forward 7 unknown #
point $-1 -34.488524642147681 -28.422020000480799 13.302324183641268 #
straight-curve $-1 -41.036692879010886 -33.449480112210189 13.302324183641268 0 -1 0 I I #
plane-surface $-1 0 0 13.302324183641268 0 0 1 1 0 0 forward_v I I I I #
coedge $-1 $335 $332 $337 $447 reversed $215 $-1 #
coedge $-1 $332 $335 $453 $495 reversed $215 $-1 #
edge $-1 $455 -13.302324183641268 $449 13.302324183641268 $349 $496 forward 7 unknown #
edge $-1 $444 -5.0274601117293969 $347 5.0274601117293933 $334 $497 forward 7 unknown #
vertex $-1 $495 $498 #
vertex $-1 $447 $499 #
straight-curve $-1 -41.036692879010886 38.476940223939579 0 0 0 -1 I I #
edge $-1 $445 -3.2740841184316025 $449 3.2740841184316025 $440 $500 forward 7 unknown #
straight-curve $-1 -41.036692879010886 33.449480112210182 -13.302324183641268 0 1 0 I I #
vertex $-1 $339 $501 #
straight-curve $-1 -34.488524642147681 33.449480112210182 -13.302324183641268 0 -1 0 I I #
point $-1 -41.036692879010886 28.422020000480789 -13.302324183641268 #
straight-curve $-1 -41.036692879010886 28.422020000480796 0 0 0 -1 I I #
coedge $-1 $345 $344 $441 $495 forward $346 $-1 #
point $-1 -41.036692879010886 28.422020000480789 13.302324183641268 #
vertex $-1 $350 $502 #
straight-curve $-1 -34.488524642147681 33.449480112210182 13.302324183641268 0 1 0 I I #
edge $-1 $458 31.397729890586753 $461 44.661381450106575 $354 $503 forward 7 unknown #
vertex $-1 $368 $504 #
straight-curve $-1 -72.212030803530894 1.7763568394002505e-015 13.302324183641268 -1 0 0 I I #
edge $-1 $461 -2.1702146372393294 $365 6.5106439117179846 $364 $505 forward 7 unknown #
vertex $-1 $460 $506 #
straight-curve $-1 -61.093173009430217 1.7763568394002505e-015 0.03867262412144612 0.7313536940579346 0 0.68199836817093118 I I #
point $-1 -46.869648412490321 1.7763568394002505e-015 13.30232418364127 #
point $-1 -61.093173009430217 -8.6808585489573122 0.03867262412144612 #
straight-curve $-1 -61.093173009430217 0 13.302324183641268 0 -1 0 I I #
vertex $-1 $371 $507 #
point $-1 -52.619575414911601 -6.2006132492552197 5.9432484607563207 #
vertex $-1 $375 $508 #
point $-1 -52.619575414911601 -2.4802452997020872 5.9432484607563207 #
edge $-1 $386 -8.6808585489573122 $476 -1.7763568394002505e-015 $381 $509 forward 7 unknown #
straight-curve $-1 -61.093173009430217 8.6808585489573122 44.700054074228021 0 0 -1 I I #
straight-curve $-1 -61.093173009430217 8.6808585489573122 0.03867262412144612 0.7313536940579346 0 0.68199836817093118 I I #
point $-1 -46.869648412490321 8.6808585489573122 13.30232418364127 #
point $-1 -61.093173009430217 8.6808585489573122 13.302324183641268 #
point $-1 -61.093173009430217 8.6808585489573122 0.03867262412144612 #
vertex $-1 $394 $510 #
straight-curve $-1 -72.212030803530894 1.7763568394002505e-015 13.302324183641268 1 0 0 I I #
straight-curve $-1 -61.093173009430217 1.7763568394002505e-015 44.700054074228021 0 0 1 I I #
vertex $-1 $397 $511 #
point $-1 -52.619575414911601 2.4802452997020943 5.9432484607563207 #
vertex $-1 $401 $512 #
point $-1 -52.619575414911601 6.2006132492552233 5.9432484607563207 #
straight-curve $-1 -61.093173009430217 28.422020000480796 0 0 0 -1 I I #
point $-1 -61.093173009430217 -28.422020000480796 -13.302324183641268 #
straight-curve $-1 -61.093173009430217 0 -13.302324183641268 0 1 0 I I #
point $-1 -61.093173009430217 28.422020000480796 -13.302324183641268 #
edge $-1 $489 -13.302324183641268 $430 13.302324183641268 $422 $513 forward 7 unknown #
straight-curve $-1 -37.762608760579283 -38.476940223939579 -13.302324183641268 -1 0 0 I I #
vertex $-1 $436 $514 #
straight-curve $-1 -37.762608760579283 -38.476940223939579 13.302324183641268 1 0 0 I I #
point $-1 -41.036692879010886 -38.476940223939579 13.302324183641268 #
point $-1 -41.036692879010886 -38.476940223939579 -13.302324183641268 #
point $-1 -34.488524642147681 -38.476940223939579 -13.302324183641268 #
straight-curve $-1 -34.488524642147681 -33.449480112210189 13.302324183641268 0 1 0 I I #
edge $-1 $455 -3.2740841184316025 $444 3.2740841184316025 $441 $515 forward 7 unknown #
straight-curve $-1 -34.488524642147681 38.476940223939579 0 0 0 -1 I I #
straight-curve $-1 -41.036692879010886 33.449480112210182 13.302324183641268 0 -1 0 I I #
point $-1 -41.036692879010886 38.476940223939579 13.302324183641268 #
point $-1 -41.036692879010886 38.476940223939579 -13.302324183641268 #
straight-curve $-1 -37.762608760579283 38.476940223939579 -13.302324183641268 1 0 0 I I #
point $-1 -34.488524642147681 38.476940223939579 -13.302324183641268 #
point $-1 -34.488524642147681 38.476940223939579 13.302324183641268 #
straight-curve $-1 -61.093173009430217 1.7763568394002505e-015 44.700054074228021 0 0 -1 I I #
point $-1 -61.093173009430217 1.7763568394002505e-015 13.302324183641268 #
straight-curve $-1 -61.093173009430217 -2.1702146372393276 0.038672624121444704 0 -1 0 I I #
point $-1 -61.093173009430217 1.7763568394002505e-015 0.03867262412144612 #
point $-1 -52.644253077855105 -6.2006132492552197 5.2365724296418881 #
point $-1 -52.644253077855105 -2.4802452997020872 5.2365724296418881 #
straight-curve $-1 -61.093173009430217 0 13.302324183641268 0 -1 0 I I #
point $-1 -61.093173009430217 1.7763568394002505e-015 13.302324183641268 #
point $-1 -52.644253077855105 2.4802452997020943 5.2365724296418881 #
point $-1 -52.644253077855105 6.2006132492552233 5.2365724296418881 #
straight-curve $-1 -34.488524642147681 -38.476940223939579 0 0 0 -1 I I #
point $-1 -34.488524642147681 -38.476940223939579 13.302324183641268 #
straight-curve $-1 -37.762608760579283 38.476940223939579 13.302324183641268 -1 0 0 I I #
End-of-ACIS-data 