500 0 5 0           
7 Unknown 11 ACIS 5.0 NT 24 Thu Mar 25 17:54:15 1999 
-1 9.9999999999999995e-007 1e-010 
body $-1 $5 $-1 $6 #
body $-1 $7 $-1 $8 #
body $-1 $9 $-1 $10 #
body $-1 $11 $-1 $12 #
body $-1 $13 $-1 $14 #
lump $-1 $-1 $15 $0 #
transform $-1 1 0 0 0 1 0 0 0 1 77.714774010437338 52.669920983977327 10.899508658349971 1 rotate no_reflect no_shear #
lump $-1 $-1 $16 $1 #
transform $-1 1 0 0 0 1 0 0 0 1 77.714774010437338 52.669920983977327 10.899508658349971 1 rotate no_reflect no_shear #
lump $-1 $-1 $17 $2 #
transform $-1 1 0 0 0 1 0 0 0 1 77.714774010437338 52.669920983977327 10.899508658349971 1 rotate no_reflect no_shear #
lump $-1 $-1 $18 $3 #
transform $-1 1 0 0 0 1 0 0 0 1 77.714774010437338 52.669920983977327 10.899508658349971 1 rotate no_reflect no_shear #
lump $-1 $-1 $19 $4 #
transform $-1 1 0 0 0 1 0 0 0 1 77.714774010437338 52.669920983977327 10.899508658349971 1 rotate no_reflect no_shear #
shell $-1 $-1 $-1 $20 $-1 $5 #
shell $-1 $-1 $-1 $21 $-1 $7 #
shell $-1 $-1 $-1 $22 $-1 $9 #
shell $-1 $-1 $-1 $23 $-1 $11 #
shell $-1 $-1 $-1 $24 $-1 $13 #
face $-1 $25 $26 $15 $-1 $27 forward single #
face $-1 $28 $29 $16 $-1 $30 forward single #
face $-1 $31 $32 $17 $-1 $33 reversed single #
face $-1 $34 $35 $18 $-1 $36 forward single #
face $-1 $37 $38 $19 $-1 $39 reversed single #
face $-1 $40 $41 $15 $-1 $42 reversed single #
loop $-1 $-1 $43 $20 #
plane-surface $-1 0 0 10.899508658349971 0 0 1 1 0 0 forward_v I I I I #
face $-1 $44 $45 $16 $-1 $46 forward single #
loop $-1 $-1 $47 $21 #
plane-surface $-1 -58.962509817468309 -47.306771961186449 0 1 0 0 0 0 -1 forward_v I I I I #
face $-1 $48 $49 $17 $-1 $50 reversed single #
loop $-1 $-1 $51 $22 #
plane-surface $-1 -75.873330180310703 65.378448041257442 0 0 -1 0 0 0 -1 forward_v I I I I #
face $-1 $52 $53 $18 $-1 $54 forward single #
loop $-1 $-1 $55 $23 #
plane-surface $-1 -208.06896256871318 -41.943622938395571 90.70244843166715 0 1 0 -0.83867057594974714 0 0.54463902268945019 forward_v I I I I #
face $-1 $56 $57 $19 $-1 $58 reversed single #
loop $-1 $59 $60 $24 #
cone-surface $-1 -74.470279364172811 -31.946521595547722 7.3901884054060805 0.83867057594974714 0 -0.54463902268945019 0.54463902268945019 0 0.83867057594974714 1 I I 0 1 1 forward I I I I #
face $-1 $61 $62 $15 $-1 $63 reversed single #
loop $-1 $-1 $64 $25 #
plane-surface $-1 0 0 -10.899508658349971 0 0 1 1 0 0 forward_v I I I I #
coedge $-1 $65 $66 $67 $68 forward $26 $-1 #
face $-1 $69 $70 $16 $-1 $71 forward single #
loop $-1 $-1 $72 $28 #
plane-surface $-1 -57.439133255602854 -41.943622938395571 0 0 -1 0 0 0 -1 forward_v I I I I #
coedge $-1 $73 $74 $75 $76 reversed $29 $-1 #
face $-1 $77 $78 $17 $-1 $79 forward single #
loop $-1 $-1 $80 $31 #
plane-surface $-1 -74.031886350184067 59.024184512617389 0 -1 0 0 0 0 1 forward_v I I I I #
coedge $-1 $81 $82 $83 $84 forward $32 $-1 #
face $-1 $85 $86 $18 $-1 $87 forward single #
loop $-1 $-1 $88 $34 #
plane-surface $-1 -77.714774010437338 -31.946521595547726 6.0494513005150026 -0.83867057594974714 0 0.54463902268945019 0.54463902268945019 0 0.83867057594974714 forward_v I I I I #
coedge $-1 $89 $90 $91 $92 reversed $35 $-1 #
face $-1 $93 $94 $19 $-1 $95 forward single #
loop $-1 $96 $97 $37 #
cone-surface $-1 -72.381281417074248 -31.946521595547722 6.0335773200349383 0.83867057594974714 0 -0.54463902268945019 0.2723195113447251 0 0.41933528797487357 1 I I -0.70710678118654746 0.70710678118654746 0.5 forward I I I I #
loop $-1 $-1 $98 $24 #
coedge $-1 $60 $60 $99 $100 reversed $38 $-1 #
face $-1 $101 $102 $15 $-1 $103 reversed single #
loop $-1 $-1 $104 $40 #
plane-surface $-1 0 -52.669920983977327 0 0 1 0 0 0 1 forward_v I I I I #
coedge $-1 $105 $106 $107 $108 forward $41 $-1 #
coedge $-1 $109 $43 $110 $111 forward $26 $-1 #
coedge $-1 $43 $109 $112 $113 forward $26 $-1 #
coedge $-1 $114 $115 $43 $68 reversed $116 $-1 #
edge $-1 $117 -52.669920983977327 $118 52.669920983977327 $67 $119 forward 7 unknown #
face $-1 $120 $121 $16 $-1 $122 forward single #
loop $-1 $-1 $123 $44 #
plane-surface $-1 -55.9157566937374 -47.306771961186449 0 -1 0 0 0 0 1 forward_v I I I I #
coedge $-1 $124 $125 $126 $127 reversed $45 $-1 #
coedge $-1 $128 $47 $129 $130 reversed $29 $-1 #
coedge $-1 $47 $128 $131 $132 reversed $29 $-1 #
coedge $-1 $125 $124 $47 $76 forward $45 $-1 #
edge $-1 $133 -10.899508658349971 $134 10.899508658349971 $75 $135 forward 7 unknown #
face $-1 $136 $137 $17 $-1 $138 forward single #
loop $-1 $-1 $139 $48 #
plane-surface $-1 -58.962509817468309 -47.306771961186449 0 1 0 0 0 0 -1 forward_v I I I I #
coedge $-1 $140 $141 $142 $143 reversed $49 $-1 #
coedge $-1 $144 $51 $145 $146 reversed $32 $-1 #
coedge $-1 $51 $144 $147 $148 reversed $32 $-1 #
coedge $-1 $141 $140 $51 $84 reversed $49 $-1 #
edge $-1 $149 -10.899508658349971 $150 10.899508658349971 $83 $151 forward 7 unknown #
face $-1 $152 $153 $18 $-1 $154 forward single #
loop $-1 $-1 $155 $52 #
plane-surface $-1 -208.06896256871318 -21.949420252699881 90.70244843166715 0 -1 0 0.83867057594974714 0 -0.54463902268945019 forward_v I I I I #
coedge $-1 $156 $157 $158 $159 reversed $53 $-1 #
coedge $-1 $90 $55 $157 $160 forward $35 $-1 #
coedge $-1 $55 $89 $161 $162 reversed $35 $-1 #
coedge $-1 $163 $158 $55 $92 forward $153 $-1 #
edge $-1 $164 -29.469371248200957 $165 -26.319707273919249 $91 $166 forward 7 unknown #
face $-1 $167 $168 $19 $-1 $169 forward single #
loop $-1 $-1 $170 $56 #
plane-surface $-1 -208.06896256871318 -41.943622938395571 90.70244843166715 0 1 0 -0.83867057594974714 0 0.54463902268945019 forward_v I I I I #
loop $-1 $-1 $171 $37 #
coedge $-1 $97 $97 $98 $172 forward $57 $-1 #
coedge $-1 $98 $98 $97 $172 reversed $59 $-1 #
coedge $-1 $99 $99 $60 $100 forward $168 $-1 #
edge $-1 $173 0 $173 6.2831853071796004 $99 $174 forward 7 unknown #
face $-1 $175 $176 $15 $-1 $177 reversed single #
loop $-1 $-1 $178 $61 #
plane-surface $-1 -77.714774010437338 0 0 1 0 0 0 0 -1 forward_v I I I I #
coedge $-1 $179 $112 $180 $181 forward $62 $-1 #
coedge $-1 $182 $64 $179 $183 forward $41 $-1 #
coedge $-1 $64 $182 $184 $185 forward $41 $-1 #
coedge $-1 $115 $114 $64 $108 reversed $116 $-1 #
edge $-1 $186 -52.669920983977327 $187 52.669920983977327 $107 $188 forward 7 unknown #
coedge $-1 $66 $65 $189 $190 forward $26 $-1 #
coedge $-1 $191 $192 $65 $111 reversed $176 $-1 #
edge $-1 $118 -77.714774010437338 $193 77.714774010437338 $110 $194 forward 7 unknown #
coedge $-1 $104 $195 $66 $113 reversed $62 $-1 #
edge $-1 $196 -77.714774010437338 $117 77.714774010437338 $112 $197 forward 7 unknown #
coedge $-1 $107 $67 $195 $198 forward $116 $-1 #
coedge $-1 $67 $107 $191 $199 reversed $116 $-1 #
loop $-1 $-1 $114 $175 #
vertex $-1 $68 $200 #
vertex $-1 $68 $201 #
straight-curve $-1 77.714774010437338 0 10.899508658349971 0 1 0 I I #
face $-1 $202 $203 $16 $-1 $204 reversed single #
loop $-1 $-1 $129 $69 #
plane-surface $-1 0 0 10.899508658349971 0 0 1 1 0 0 forward_v I I I I #
coedge $-1 $205 $206 $207 $208 reversed $70 $-1 #
coedge $-1 $75 $72 $209 $210 reversed $45 $-1 #
coedge $-1 $72 $75 $211 $212 reversed $45 $-1 #
coedge $-1 $206 $205 $72 $127 forward $70 $-1 #
edge $-1 $213 -10.899508658349971 $214 10.899508658349971 $126 $215 forward 7 unknown #
coedge $-1 $74 $73 $216 $217 reversed $29 $-1 #
coedge $-1 $209 $218 $73 $130 forward $121 $-1 #
edge $-1 $219 -29.016535003384103 $133 -18.290236957802346 $129 $220 forward 7 unknown #
coedge $-1 $221 $211 $74 $132 forward $222 $-1 #
edge $-1 $134 18.290236957802346 $223 29.016535003384103 $131 $224 forward 7 unknown #
vertex $-1 $130 $225 #
vertex $-1 $132 $226 #
straight-curve $-1 -58.962509817468309 -41.943622938395571 0 0 0 -1 I I #
face $-1 $227 $228 $17 $-1 $229 forward single #
loop $-1 $-1 $230 $77 #
plane-surface $-1 -57.439133255602854 -41.943622938395571 0 0 -1 0 0 0 -1 forward_v I I I I #
coedge $-1 $231 $232 $233 $234 reversed $78 $-1 #
coedge $-1 $83 $80 $235 $236 reversed $49 $-1 #
coedge $-1 $80 $83 $237 $238 reversed $49 $-1 #
coedge $-1 $239 $240 $80 $143 forward $241 $-1 #
edge $-1 $242 -10.899508658349971 $243 10.899508658349971 $142 $244 forward 7 unknown #
coedge $-1 $82 $81 $245 $246 reversed $32 $-1 #
coedge $-1 $235 $247 $81 $146 forward $248 $-1 #
edge $-1 $249 -1.8414438301266358 $150 1.8414438301266358 $81 $250 forward 7 unknown #
coedge $-1 $251 $237 $82 $148 forward $252 $-1 #
edge $-1 $149 -1.8414438301266358 $253 1.8414438301266358 $82 $254 forward 7 unknown #
vertex $-1 $238 $255 #
vertex $-1 $236 $256 #
straight-curve $-1 -74.031886350184067 65.378448041257442 0 0 0 -1 I I #
face $-1 $257 $258 $18 $-1 $259 reversed single #
loop $-1 $-1 $260 $85 #
plane-surface $-1 0 0 10.899508658349971 0 0 1 1 0 0 forward_v I I I I #
coedge $-1 $261 $262 $260 $263 reversed $86 $-1 #
coedge $-1 $264 $88 $262 $265 reversed $53 $-1 #
coedge $-1 $88 $264 $89 $160 reversed $53 $-1 #
coedge $-1 $91 $260 $88 $159 forward $153 $-1 #
edge $-1 $266 5.9761594549260177 $164 25.97036214062171 $158 $267 forward 7 unknown #
edge $-1 $164 -5.7830303064377215 $268 0 $89 $269 forward 7 unknown #
coedge $-1 $270 $271 $90 $162 forward $272 $-1 #
edge $-1 $165 34.451715557483602 $268 39.301772915318573 $161 $273 forward 7 unknown #
coedge $-1 $274 $91 $271 $275 forward $153 $-1 #
vertex $-1 $159 $276 #
vertex $-1 $275 $277 #
straight-curve $-1 -104.03448128435659 -41.943622938395571 10.899508658349973 -1 0 0 I I #
face $-1 $278 $279 $19 $-1 $280 forward single #
loop $-1 $281 $99 $93 #
plane-surface $-1 -77.714774010437338 -31.946521595547726 6.0494513005150026 -0.83867057594974714 0 0.54463902268945019 0.54463902268945019 0 0.83867057594974714 forward_v I I I I #
coedge $-1 $282 $283 $284 $285 reversed $94 $-1 #
coedge $-1 $171 $171 $-1 $286 forward $96 $-1 #
edge $-1 $287 0 $287 6.2831853071796004 $97 $288 forward 7 unknown #
vertex $-1 $100 $289 #
ellipse-curve $-1 -76.139942023296484 -31.946521595547722 8.4744799794324877 0.83867057594974714 0 -0.54463902268945019 0.54463902268945019 0 0.83867057594974714 1 I I #
face $-1 $-1 $116 $15 $-1 $290 reversed single #
loop $-1 $-1 $191 $101 #
plane-surface $-1 0 52.669920983977327 0 0 -1 0 0 0 -1 forward_v I I I I #
coedge $-1 $291 $189 $192 $292 forward $102 $-1 #
coedge $-1 $195 $104 $105 $183 reversed $62 $-1 #
coedge $-1 $189 $291 $104 $181 reversed $102 $-1 #
edge $-1 $196 -10.899508658349971 $293 10.899508658349971 $180 $294 forward 7 unknown #
coedge $-1 $106 $105 $291 $295 forward $41 $-1 #
edge $-1 $187 -77.714774010437338 $293 77.714774010437338 $179 $296 forward 7 unknown #
coedge $-1 $192 $191 $106 $185 reversed $176 $-1 #
edge $-1 $297 -77.714774010437338 $186 77.714774010437338 $184 $298 forward 7 unknown #
vertex $-1 $108 $299 #
vertex $-1 $198 $300 #
straight-curve $-1 77.714774010437338 0 -10.899508658349971 0 -1 0 I I #
coedge $-1 $178 $180 $109 $190 reversed $102 $-1 #
edge $-1 $193 -52.669920983977327 $196 52.669920983977327 $189 $301 forward 7 unknown #
coedge $-1 $184 $110 $115 $199 forward $176 $-1 #
coedge $-1 $110 $184 $178 $292 reversed $176 $-1 #
vertex $-1 $111 $302 #
straight-curve $-1 0 52.669920983977327 10.899508658349971 -1 0 0 I I #
coedge $-1 $112 $179 $114 $198 reversed $62 $-1 #
vertex $-1 $190 $303 #
straight-curve $-1 0 -52.669920983977327 10.899508658349971 1 0 0 I I #
edge $-1 $117 -10.899508658349971 $187 10.899508658349971 $114 $304 forward 7 unknown #
edge $-1 $118 -10.899508658349971 $186 10.899508658349971 $115 $305 forward 7 unknown #
point $-1 77.714774010437338 -52.669920983977327 10.899508658349971 #
point $-1 77.714774010437338 52.669920983977327 10.899508658349971 #
face $-1 $306 $222 $16 $-1 $307 reversed single #
loop $-1 $-1 $207 $120 #
plane-surface $-1 0 -52.669920983977327 0 0 1 0 0 0 1 forward_v I I I I #
coedge $-1 $126 $123 $308 $309 reversed $70 $-1 #
coedge $-1 $123 $126 $310 $311 reversed $70 $-1 #
coedge $-1 $312 $313 $123 $208 forward $203 $-1 #
edge $-1 $314 -10.899508658349971 $315 10.899508658349971 $207 $316 forward 7 unknown #
coedge $-1 $308 $129 $124 $210 forward $121 $-1 #
edge $-1 $133 -30.242943189666882 $213 -27.196190065935973 $209 $317 forward 7 unknown #
coedge $-1 $131 $310 $125 $212 forward $222 $-1 #
edge $-1 $214 27.196190065935973 $134 30.242943189666882 $211 $318 forward 7 unknown #
vertex $-1 $210 $319 #
vertex $-1 $212 $320 #
straight-curve $-1 -55.9157566937374 -41.943622938395571 0 0 0 -1 I I #
coedge $-1 $321 $322 $128 $217 forward $323 $-1 #
edge $-1 $223 -10.899508658349971 $219 10.899508658349971 $216 $324 forward 7 unknown #
coedge $-1 $129 $325 $321 $326 forward $121 $-1 #
vertex $-1 $217 $327 #
straight-curve $-1 -58.962509817468309 -23.653385980593225 10.899508658349971 0 1 0 I I #
coedge $-1 $328 $131 $322 $329 forward $222 $-1 #
loop $-1 $-1 $131 $202 #
vertex $-1 $329 $330 #
straight-curve $-1 -58.962509817468309 -23.653385980593225 -10.899508658349971 0 -1 0 I I #
point $-1 -58.962509817468309 -41.943622938395571 10.899508658349971 #
point $-1 -58.962509817468309 -41.943622938395571 -10.899508658349971 #
face $-1 $331 $252 $17 $-1 $332 forward single #
loop $-1 $-1 $333 $136 #
plane-surface $-1 -55.9157566937374 -47.306771961186449 0 -1 0 0 0 0 1 forward_v I I I I #
coedge $-1 $334 $335 $336 $337 reversed $137 $-1 #
coedge $-1 $338 $139 $339 $340 reversed $78 $-1 #
coedge $-1 $139 $338 $341 $342 reversed $78 $-1 #
coedge $-1 $335 $334 $139 $234 forward $137 $-1 #
edge $-1 $343 -10.899508658349971 $344 10.899508658349971 $233 $345 forward 7 unknown #
coedge $-1 $346 $145 $140 $236 forward $248 $-1 #
edge $-1 $150 -6.3542635286400539 $242 6.3542635286400539 $140 $347 forward 7 unknown #
coedge $-1 $147 $348 $141 $238 forward $252 $-1 #
edge $-1 $243 -6.3542635286400539 $149 6.3542635286400539 $141 $349 forward 7 unknown #
coedge $-1 $350 $142 $348 $351 reversed $241 $-1 #
coedge $-1 $142 $350 $346 $352 reversed $241 $-1 #
loop $-1 $-1 $142 $353 #
vertex $-1 $352 $354 #
vertex $-1 $238 $355 #
straight-curve $-1 -74.031886350184067 52.669920983977327 0 0 0 1 I I #
coedge $-1 $356 $357 $144 $246 forward $358 $-1 #
edge $-1 $253 -10.899508658349971 $249 10.899508658349971 $144 $359 forward 7 unknown #
coedge $-1 $145 $360 $356 $361 forward $248 $-1 #
loop $-1 $-1 $341 $362 #
vertex $-1 $146 $363 #
straight-curve $-1 -75.873330180310703 65.378448041257442 -10.899508658349971 1 0 0 I I #
coedge $-1 $364 $147 $357 $365 forward $252 $-1 #
loop $-1 $-1 $339 $227 #
vertex $-1 $148 $366 #
straight-curve $-1 -75.873330180310703 65.378448041257442 10.899508658349971 -1 0 0 I I #
point $-1 -74.031886350184067 65.378448041257442 10.899508658349971 #
point $-1 -74.031886350184067 65.378448041257442 -10.899508658349971 #
face $-1 $367 $368 $18 $-1 $369 reversed single #
loop $-1 $-1 $370 $152 #
plane-surface $-1 -75.873330180310703 65.378448041257442 0 0 -1 0 0 0 -1 forward_v I I I I #
coedge $-1 $158 $371 $155 $263 forward $153 $-1 #
coedge $-1 $262 $155 $372 $373 reversed $86 $-1 #
coedge $-1 $155 $261 $156 $265 forward $86 $-1 #
edge $-1 $374 26.319707273919249 $266 29.469371248200957 $260 $375 forward 7 unknown #
coedge $-1 $157 $156 $270 $376 reversed $53 $-1 #
edge $-1 $377 0 $266 5.7830303064377215 $262 $378 forward 7 unknown #
vertex $-1 $159 $379 #
straight-curve $-1 -74.56511003615563 -15.973260797773863 10.899508658349973 0 -1 0 I I #
vertex $-1 $376 $380 #
straight-curve $-1 -77.714774010437338 -41.943622938395571 6.0494513005150026 -0.54463902268945019 0 -0.83867057594974714 I I #
coedge $-1 $372 $161 $264 $376 forward $272 $-1 #
coedge $-1 $161 $381 $163 $275 reversed $272 $-1 #
loop $-1 $-1 $372 $382 #
straight-curve $-1 -77.714774010437338 -41.943622938395571 45.351224215833575 0 0 -1 I I #
coedge $-1 $383 $163 $384 $385 forward $153 $-1 #
edge $-1 $165 41.943622938395571 $386 52.669920983977327 $271 $387 forward 7 unknown #
point $-1 -74.56511003615563 -41.943622938395571 10.899508658349971 #
point $-1 -77.714774010437338 -41.943622938395571 10.899508658349971 #
face $-1 $388 $389 $19 $-1 $390 forward single #
loop $-1 $-1 $391 $167 #
plane-surface $-1 -208.06896256871318 -21.949420252699881 90.70244843166715 0 -1 0 0.83867057594974714 0 -0.54463902268945019 forward_v I I I I #
loop $-1 $-1 $392 $93 #
coedge $-1 $283 $170 $393 $394 forward $94 $-1 #
coedge $-1 $170 $282 $395 $396 reversed $94 $-1 #
coedge $-1 $397 $398 $170 $285 forward $389 $-1 #
edge $-1 $399 -29.469371248200957 $400 -26.319707273919249 $284 $401 forward 7 unknown #
edge $-1 $402 1 $402 0 $171 $-1 forward 7 unknown #
vertex $-1 $172 $403 #
ellipse-curve $-1 -72.800616705049123 -31.946521595547722 6.3058968313796635 -0.83867057594974714 0 0.54463902268945019 0.54463902268945019 0 0.83867057594974714 1 I I #
point $-1 -75.595303000607046 -31.946521595547722 9.3131505553822436 #
plane-surface $-1 77.714774010437338 0 0 -1 0 0 0 0 1 forward_v I I I I #
coedge $-1 $180 $178 $182 $295 reversed $102 $-1 #
edge $-1 $193 -10.899508658349971 $297 10.899508658349971 $192 $404 forward 7 unknown #
vertex $-1 $295 $405 #
straight-curve $-1 -77.714774010437338 -52.669920983977327 0 0 0 -1 I I #
edge $-1 $293 -52.669920983977327 $297 52.669920983977327 $291 $406 forward 7 unknown #
straight-curve $-1 0 -52.669920983977327 -10.899508658349971 -1 0 0 I I #
vertex $-1 $185 $407 #
straight-curve $-1 0 52.669920983977327 -10.899508658349971 1 0 0 I I #
point $-1 77.714774010437338 52.669920983977327 -10.899508658349971 #
point $-1 77.714774010437338 -52.669920983977327 -10.899508658349971 #
straight-curve $-1 -77.714774010437338 0 10.899508658349971 0 -1 0 I I #
point $-1 -77.714774010437338 52.669920983977327 10.899508658349971 #
point $-1 -77.714774010437338 -52.669920983977327 10.899508658349971 #
straight-curve $-1 77.714774010437338 -52.669920983977327 0 0 0 -1 I I #
straight-curve $-1 77.714774010437338 52.669920983977327 0 0 0 -1 I I #
face $-1 $408 $323 $16 $-1 $204 reversed single #
plane-surface $-1 0 0 -10.899508658349971 0 0 1 1 0 0 forward_v I I I I #
coedge $-1 $409 $209 $205 $309 forward $121 $-1 #
edge $-1 $213 18.290236957802346 $314 29.016535003384103 $308 $410 forward 7 unknown #
coedge $-1 $211 $411 $206 $311 forward $222 $-1 #
edge $-1 $315 -29.016535003384103 $214 -18.290236957802346 $310 $412 forward 7 unknown #
coedge $-1 $413 $207 $411 $414 reversed $203 $-1 #
coedge $-1 $207 $413 $409 $415 reversed $203 $-1 #
vertex $-1 $415 $416 #
vertex $-1 $208 $417 #
straight-curve $-1 -55.9157566937374 -52.669920983977327 0 0 0 -1 I I #
straight-curve $-1 -28.719566627801427 -41.943622938395571 10.899508658349971 1 0 0 I I #
straight-curve $-1 -28.719566627801427 -41.943622938395571 -10.899508658349971 -1 0 0 I I #
point $-1 -55.9157566937374 -41.943622938395571 10.899508658349971 #
point $-1 -55.9157566937374 -41.943622938395571 -10.899508658349971 #
coedge $-1 $418 $216 $218 $326 reversed $323 $-1 #
coedge $-1 $216 $418 $221 $329 reversed $323 $-1 #
loop $-1 $-1 $216 $306 #
straight-curve $-1 -58.962509817468309 -52.669920983977327 0 0 0 1 I I #
coedge $-1 $218 $419 $420 $421 forward $121 $-1 #
edge $-1 $422 -77.714774010437338 $219 -58.962509817468309 $321 $423 forward 7 unknown #
point $-1 -58.962509817468309 -52.669920983977327 10.899508658349971 #
coedge $-1 $424 $221 $425 $426 forward $222 $-1 #
edge $-1 $223 58.962509817468309 $427 77.714774010437338 $322 $428 forward 7 unknown #
point $-1 -58.962509817468309 -52.669920983977327 -10.899508658349971 #
face $-1 $362 $429 $17 $-1 $430 reversed single #
plane-surface $-1 0 0 10.899508658349971 0 0 1 1 0 0 forward_v I I I I #
coedge $-1 $431 $432 $433 $434 reversed $228 $-1 #
coedge $-1 $233 $230 $435 $436 reversed $137 $-1 #
coedge $-1 $230 $233 $437 $438 reversed $137 $-1 #
coedge $-1 $432 $431 $230 $337 forward $228 $-1 #
edge $-1 $439 -10.899508658349971 $440 10.899508658349971 $336 $441 forward 7 unknown #
coedge $-1 $232 $231 $442 $443 reversed $78 $-1 #
coedge $-1 $435 $364 $231 $340 forward $252 $-1 #
edge $-1 $444 -29.016535003384103 $343 -18.290236957802346 $339 $445 forward 7 unknown #
coedge $-1 $360 $437 $232 $342 forward $248 $-1 #
edge $-1 $344 18.290236957802346 $446 29.016535003384103 $341 $447 forward 7 unknown #
vertex $-1 $340 $448 #
vertex $-1 $342 $449 #
straight-curve $-1 -58.962509817468309 -41.943622938395571 0 0 0 -1 I I #
coedge $-1 $450 $235 $240 $352 forward $248 $-1 #
straight-curve $-1 -74.031886350184067 59.024184512617389 -10.899508658349971 0 -1 0 I I #
coedge $-1 $237 $451 $239 $351 forward $252 $-1 #
straight-curve $-1 -74.031886350184067 59.024184512617389 10.899508658349971 0 1 0 I I #
coedge $-1 $240 $239 $452 $453 forward $241 $-1 #
edge $-1 $454 -77.714774010437338 $243 74.031886350184067 $239 $455 forward 7 unknown #
edge $-1 $242 -74.031886350184067 $456 77.714774010437338 $240 $457 forward 7 unknown #
face $-1 $458 $241 $17 $-1 $459 reversed single #
point $-1 -74.031886350184067 52.669920983977335 -10.899508658349971 #
point $-1 -74.031886350184067 52.669920983977335 10.899508658349971 #
coedge $-1 $460 $245 $247 $361 reversed $358 $-1 #
coedge $-1 $245 $460 $251 $365 reversed $358 $-1 #
loop $-1 $-1 $356 $461 #
straight-curve $-1 -77.714774010437338 65.378448041257442 0 0 0 -1 I I #
coedge $-1 $247 $341 $462 $463 forward $248 $-1 #
edge $-1 $464 -111.69410549659472 $249 6.3542635286400539 $356 $465 forward 7 unknown #
face $-1 $466 $248 $17 $-1 $467 reversed single #
point $-1 -77.714774010437338 65.378448041257442 -10.899508658349971 #
coedge $-1 $339 $251 $468 $469 forward $252 $-1 #
edge $-1 $253 -65.378448041257442 $470 52.669920983977327 $357 $471 forward 7 unknown #
point $-1 -77.714774010437338 65.378448041257442 10.899508658349971 #
face $-1 $472 $473 $18 $-1 $474 forward single #
loop $-1 $-1 $475 $257 #
plane-surface $-1 -74.031886350184067 59.024184512617389 0 -1 0 0 0 0 1 forward_v I I I I #
coedge $-1 $476 $477 $478 $479 forward $258 $-1 #
coedge $-1 $260 $480 $481 $482 forward $153 $-1 #
coedge $-1 $481 $270 $261 $373 forward $272 $-1 #
edge $-1 $377 -39.301772915318573 $374 -34.451715557483602 $372 $483 forward 7 unknown #
vertex $-1 $373 $484 #
straight-curve $-1 -104.03448128435659 -21.949420252699881 10.899508658349973 1 0 0 I I #
edge $-1 $268 -25.97036214062171 $377 -5.9761594549260177 $270 $485 forward 7 unknown #
vertex $-1 $376 $486 #
straight-curve $-1 -77.714774010437338 -21.949420252699881 6.0494513005150026 0.54463902268945019 0 0.83867057594974714 I I #
point $-1 -74.56511003615563 -21.949420252699881 10.899508658349971 #
point $-1 -77.714774010437338 -41.943622938395571 6.0494513005150026 #
coedge $-1 $271 $487 $488 $489 reversed $272 $-1 #
face $-1 $490 $272 $18 $-1 $491 reversed single #
coedge $-1 $492 $274 $493 $494 forward $153 $-1 #
coedge $-1 $488 $495 $274 $385 reversed $496 $-1 #
edge $-1 $386 -77.714774010437338 $497 -58.962509817468309 $384 $498 forward 7 unknown #
vertex $-1 $275 $499 #
straight-curve $-1 -77.714774010437338 0 10.899508658349971 0 -1 0 I I #
face $-1 $500 $501 $19 $-1 $502 reversed single #
loop $-1 $-1 $503 $278 #
plane-surface $-1 0 0 10.899508658349971 0 0 1 1 0 0 forward_v I I I I #
coedge $-1 $504 $505 $503 $506 reversed $279 $-1 #
coedge $-1 $507 $393 $398 $508 reversed $281 $-1 #
coedge $-1 $392 $509 $282 $394 reversed $281 $-1 #
edge $-1 $399 -5.7830303064377215 $510 0 $282 $511 forward 7 unknown #
coedge $-1 $512 $513 $283 $396 forward $514 $-1 #
edge $-1 $400 34.451715557483602 $510 39.301772915318573 $395 $515 forward 7 unknown #
coedge $-1 $516 $284 $513 $517 forward $389 $-1 #
coedge $-1 $284 $503 $392 $508 forward $389 $-1 #
vertex $-1 $508 $518 #
vertex $-1 $517 $519 #
straight-curve $-1 -104.03448128435659 -41.943622938395571 10.899508658349973 -1 0 0 I I #
vertex $-1 $286 $520 #
point $-1 -72.255977682359671 -31.946521595547722 7.1445674073294105 #
straight-curve $-1 -77.714774010437338 52.669920983977327 0 0 0 -1 I I #
point $-1 -77.714774010437338 -52.669920983977327 -10.899508658349971 #
straight-curve $-1 -77.714774010437338 0 -10.899508658349971 0 1 0 I I #
point $-1 -77.714774010437338 52.669920983977327 -10.899508658349971 #
face $-1 $521 $522 $16 $-1 $523 reversed single #
coedge $-1 $524 $308 $313 $415 forward $121 $-1 #
straight-curve $-1 -55.9157566937374 -23.653385980593225 10.899508658349971 0 -1 0 I I #
coedge $-1 $310 $525 $312 $414 forward $222 $-1 #
straight-curve $-1 -55.9157566937374 -23.653385980593225 -10.899508658349971 0 1 0 I I #
coedge $-1 $313 $312 $526 $527 reversed $203 $-1 #
edge $-1 $528 -77.714774010437338 $315 55.9157566937374 $312 $428 forward 7 unknown #
edge $-1 $314 -55.9157566937374 $529 77.714774010437338 $313 $423 forward 7 unknown #
point $-1 -55.9157566937374 -52.669920983977327 10.899508658349971 #
point $-1 -55.9157566937374 -52.669920983977327 -10.899508658349971 #
coedge $-1 $322 $321 $530 $531 forward $323 $-1 #
coedge $-1 $325 $524 $532 $533 forward $121 $-1 #
coedge $-1 $534 $530 $325 $421 reversed $522 $-1 #
edge $-1 $535 -52.669920983977327 $422 52.669920983977327 $420 $536 forward 7 unknown #
vertex $-1 $421 $537 #
straight-curve $-1 0 -52.669920983977327 10.899508658349971 1 0 0 I I #
coedge $-1 $525 $328 $538 $539 forward $222 $-1 #
coedge $-1 $530 $534 $328 $426 reversed $522 $-1 #
edge $-1 $427 -52.669920983977327 $540 52.669920983977327 $425 $541 forward 7 unknown #
vertex $-1 $426 $542 #
straight-curve $-1 0 -52.669920983977327 -10.899508658349971 -1 0 0 I I #
loop $-1 $-1 $433 $331 #
plane-surface $-1 0 -52.669920983977327 0 0 1 0 0 0 1 forward_v I I I I #
coedge $-1 $336 $333 $543 $544 reversed $228 $-1 #
coedge $-1 $333 $336 $545 $546 reversed $228 $-1 #
coedge $-1 $547 $548 $333 $434 forward $429 $-1 #
edge $-1 $549 -10.899508658349971 $550 10.899508658349971 $433 $551 forward 7 unknown #
coedge $-1 $543 $339 $334 $436 forward $252 $-1 #
edge $-1 $343 -30.242943189666882 $439 -27.196190065935973 $435 $552 forward 7 unknown #
coedge $-1 $341 $545 $335 $438 forward $248 $-1 #
edge $-1 $440 27.196190065935973 $344 30.242943189666882 $437 $553 forward 7 unknown #
vertex $-1 $436 $554 #
vertex $-1 $438 $555 #
straight-curve $-1 -55.9157566937374 -41.943622938395571 0 0 0 -1 I I #
coedge $-1 $468 $462 $338 $443 forward $556 $-1 #
edge $-1 $446 -10.899508658349971 $444 10.899508658349971 $442 $557 forward 7 unknown #
vertex $-1 $443 $558 #
straight-curve $-1 -58.962509817468309 -23.653385980593225 10.899508658349971 0 1 0 I I #
vertex $-1 $463 $559 #
straight-curve $-1 -58.962509817468309 -23.653385980593225 -10.899508658349971 0 -1 0 I I #
point $-1 -58.962509817468309 -41.943622938395571 10.899508658349971 #
point $-1 -58.962509817468309 -41.943622938395571 -10.899508658349971 #
coedge $-1 $560 $346 $561 $562 forward $248 $-1 #
coedge $-1 $348 $563 $564 $565 forward $252 $-1 #
coedge $-1 $564 $561 $350 $453 reversed $566 $-1 #
edge $-1 $454 -10.899508658349971 $456 10.899508658349971 $452 $567 forward 7 unknown #
vertex $-1 $565 $568 #
straight-curve $-1 0 52.669920983977327 10.899508658349971 -1 0 0 I I #
vertex $-1 $562 $569 #
straight-curve $-1 0 52.669920983977327 -10.899508658349971 1 0 0 I I #
face $-1 $-1 $566 $17 $-1 $570 reversed single #
plane-surface $-1 0 52.669920983977327 0 0 -1 0 0 0 -1 forward_v I I I I #
coedge $-1 $357 $356 $571 $572 reversed $358 $-1 #
face $-1 $353 $358 $17 $-1 $573 reversed single #
coedge $-1 $442 $571 $360 $463 reversed $556 $-1 #
edge $-1 $446 58.962509817468309 $464 77.714774010437338 $462 $574 forward 7 unknown #
vertex $-1 $361 $575 #
straight-curve $-1 -77.714774010437338 59.024184512617389 -10.899508658349971 0 1 0 I I #
face $-1 $461 $556 $17 $-1 $430 reversed single #
plane-surface $-1 0 0 -10.899508658349971 0 0 1 1 0 0 forward_v I I I I #
coedge $-1 $571 $442 $364 $469 reversed $556 $-1 #
edge $-1 $470 -77.714774010437338 $444 -58.962509817468309 $468 $576 forward 7 unknown #
vertex $-1 $365 $577 #
straight-curve $-1 -77.714774010437338 0 10.899508658349971 0 -1 0 I I #
face $-1 $578 $579 $18 $-1 $580 forward single #
loop $-1 $-1 $581 $367 #
plane-surface $-1 -58.962509817468309 -47.306771961186449 0 1 0 0 0 0 -1 forward_v I I I I #
coedge $-1 $582 $583 $584 $585 reversed $368 $-1 #
coedge $-1 $586 $370 $587 $588 reversed $258 $-1 #
coedge $-1 $370 $586 $480 $589 reversed $258 $-1 #
coedge $-1 $583 $582 $370 $479 reversed $368 $-1 #
edge $-1 $590 -10.899508658349971 $591 10.899508658349971 $478 $592 forward 7 unknown #
coedge $-1 $371 $593 $477 $589 forward $153 $-1 #
coedge $-1 $594 $372 $371 $482 reversed $272 $-1 #
edge $-1 $595 -65.378448041257442 $374 21.949420252699881 $481 $387 forward 7 unknown #
straight-curve $-1 -77.714774010437338 -21.949420252699881 45.351224215833575 0 0 1 I I #
point $-1 -77.714774010437338 -21.949420252699881 10.899508658349971 #
straight-curve $-1 -77.714774010437338 -15.973260797773863 6.0494513005150079 0 1 0 I I #
point $-1 -77.714774010437338 -21.949420252699881 6.0494513005150026 #
coedge $-1 $381 $594 $596 $597 reversed $272 $-1 #
coedge $-1 $598 $384 $381 $489 forward $496 $-1 #
edge $-1 $386 -10.899508658349971 $599 10.899508658349971 $381 $600 forward 7 unknown #
face $-1 $601 $602 $18 $-1 $603 reversed single #
plane-surface $-1 -77.714774010437338 0 0 1 0 0 0 0 -1 forward_v I I I I #
coedge $-1 $604 $383 $605 $606 forward $153 $-1 #
coedge $-1 $607 $581 $383 $494 reversed $473 $-1 #
edge $-1 $497 -29.016535003384103 $608 -18.290236957802346 $383 $609 forward 7 unknown #
coedge $-1 $384 $598 $607 $610 forward $496 $-1 #
loop $-1 $-1 $495 $611 #
vertex $-1 $610 $612 #
straight-curve $-1 0 -52.669920983977327 10.899508658349971 1 0 0 I I #
point $-1 -77.714774010437338 -52.669920983977327 10.899508658349971 #
face $-1 $613 $614 $19 $-1 $615 reversed single #
loop $-1 $-1 $616 $388 #
plane-surface $-1 -75.873330180310703 65.378448041257442 0 0 -1 0 0 0 -1 forward_v I I I I #
coedge $-1 $398 $617 $391 $506 forward $389 $-1 #
coedge $-1 $505 $391 $618 $619 reversed $279 $-1 #
coedge $-1 $391 $504 $507 $620 forward $279 $-1 #
edge $-1 $621 26.319707273919249 $622 29.469371248200957 $503 $623 forward 7 unknown #
coedge $-1 $509 $392 $505 $620 reversed $281 $-1 #
edge $-1 $622 5.9761594549260177 $399 25.97036214062171 $398 $624 forward 7 unknown #
coedge $-1 $393 $507 $512 $625 reversed $281 $-1 #
vertex $-1 $625 $626 #
straight-curve $-1 -77.714774010437338 -41.943622938395571 6.0494513005150026 -0.54463902268945019 0 -0.83867057594974714 I I #
coedge $-1 $618 $395 $509 $625 forward $514 $-1 #
coedge $-1 $395 $627 $397 $517 reversed $514 $-1 #
loop $-1 $-1 $618 $628 #
straight-curve $-1 -77.714774010437338 -41.943622938395571 45.351224215833575 0 0 -1 I I #
coedge $-1 $629 $397 $630 $631 forward $389 $-1 #
edge $-1 $400 41.943622938395571 $632 52.669920983977327 $513 $633 forward 7 unknown #
point $-1 -74.56511003615563 -41.943622938395571 10.899508658349971 #
point $-1 -77.714774010437338 -41.943622938395571 10.899508658349971 #
point $-1 -71.961946129099374 -31.946521595547722 5.7612578086902131 #
face $-1 $634 $635 $16 $-1 $636 reversed single #
loop $-1 $-1 $534 $408 #
plane-surface $-1 -77.714774010437338 0 0 1 0 0 0 0 -1 forward_v I I I I #
coedge $-1 $419 $409 $637 $638 forward $121 $-1 #
coedge $-1 $411 $424 $639 $640 forward $222 $-1 #
coedge $-1 $639 $637 $413 $527 forward $641 $-1 #
edge $-1 $529 -10.899508658349971 $528 10.899508658349971 $526 $642 forward 7 unknown #
vertex $-1 $527 $643 #
vertex $-1 $638 $644 #
coedge $-1 $420 $425 $418 $531 reversed $522 $-1 #
edge $-1 $422 -10.899508658349971 $427 10.899508658349971 $530 $645 forward 7 unknown #
coedge $-1 $646 $647 $419 $533 reversed $635 $-1 #
edge $-1 $648 -77.714774010437338 $535 77.714774010437338 $532 $649 forward 7 unknown #
coedge $-1 $425 $420 $647 $650 forward $522 $-1 #
vertex $-1 $533 $651 #
straight-curve $-1 -77.714774010437338 0 10.899508658349971 0 -1 0 I I #
point $-1 -77.714774010437338 -52.669920983977327 10.899508658349971 #
coedge $-1 $647 $646 $424 $539 reversed $635 $-1 #
edge $-1 $540 -77.714774010437338 $652 77.714774010437338 $538 $653 forward 7 unknown #
vertex $-1 $539 $654 #
straight-curve $-1 -77.714774010437338 0 -10.899508658349971 0 1 0 I I #
point $-1 -77.714774010437338 -52.669920983977327 -10.899508658349971 #
coedge $-1 $563 $435 $431 $544 forward $252 $-1 #
edge $-1 $439 18.290236957802346 $549 29.016535003384103 $543 $655 forward 7 unknown #
coedge $-1 $437 $560 $432 $546 forward $248 $-1 #
edge $-1 $550 -29.016535003384103 $440 -18.290236957802346 $545 $656 forward 7 unknown #
coedge $-1 $657 $433 $560 $658 reversed $429 $-1 #
coedge $-1 $433 $657 $563 $659 reversed $429 $-1 #
vertex $-1 $659 $660 #
vertex $-1 $434 $661 #
straight-curve $-1 -55.9157566937374 -52.669920983977327 0 0 0 -1 I I #
straight-curve $-1 -28.719566627801427 -41.943622938395571 10.899508658349971 1 0 0 I I #
straight-curve $-1 -28.719566627801427 -41.943622938395571 -10.899508658349971 -1 0 0 I I #
point $-1 -55.9157566937374 -41.943622938395571 10.899508658349971 #
point $-1 -55.9157566937374 -41.943622938395571 -10.899508658349971 #
loop $-1 $-1 $442 $466 #
straight-curve $-1 -58.962509817468309 -52.669920983977327 0 0 0 1 I I #
point $-1 -58.962509817468309 -52.669920983977327 10.899508658349971 #
point $-1 -58.962509817468309 -52.669920983977327 -10.899508658349971 #
coedge $-1 $545 $450 $547 $658 forward $248 $-1 #
coedge $-1 $452 $662 $450 $562 reversed $566 $-1 #
edge $-1 $456 -52.669920983977327 $663 52.669920983977327 $561 $664 forward 7 unknown #
coedge $-1 $451 $543 $548 $659 forward $252 $-1 #
coedge $-1 $662 $452 $451 $565 reversed $566 $-1 #
edge $-1 $665 -52.669920983977327 $454 52.669920983977327 $564 $666 forward 7 unknown #
loop $-1 $-1 $662 $458 #
straight-curve $-1 77.714774010437338 52.669920983977327 0 0 0 -1 I I #
point $-1 77.714774010437338 52.669920983977327 10.899508658349971 #
point $-1 77.714774010437338 52.669920983977327 -10.899508658349971 #
plane-surface $-1 77.714774010437338 0 0 -1 0 0 0 0 1 forward_v I I I I #
coedge $-1 $462 $468 $460 $572 forward $556 $-1 #
edge $-1 $470 -10.899508658349971 $464 10.899508658349971 $460 $667 forward 7 unknown #
plane-surface $-1 -77.714774010437338 0 0 1 0 0 0 0 -1 forward_v I I I I #
straight-curve $-1 0 -52.669920983977327 -10.899508658349971 -1 0 0 I I #
point $-1 -77.714774010437338 -52.669920983977327 -10.899508658349971 #
straight-curve $-1 0 -52.669920983977327 10.899508658349971 1 0 0 I I #
point $-1 -77.714774010437338 -52.669920983977327 10.899508658349971 #
face $-1 $668 $669 $18 $-1 $670 forward single #
loop $-1 $-1 $671 $472 #
plane-surface $-1 -57.439133255602854 -41.943622938395571 0 0 -1 0 0 0 -1 forward_v I I I I #
coedge $-1 $493 $672 $673 $674 reversed $473 $-1 #
coedge $-1 $478 $475 $675 $676 reversed $368 $-1 #
coedge $-1 $475 $478 $593 $677 reversed $368 $-1 #
coedge $-1 $678 $679 $475 $585 forward $602 $-1 #
edge $-1 $680 -10.899508658349971 $681 10.899508658349971 $584 $682 forward 7 unknown #
coedge $-1 $477 $476 $594 $683 reversed $258 $-1 #
coedge $-1 $675 $596 $476 $588 forward $684 $-1 #
edge $-1 $685 -1.8414438301266358 $591 1.8414438301266358 $476 $686 forward 7 unknown #
edge $-1 $590 -1.8414438301266358 $595 1.8414438301266358 $477 $687 forward 7 unknown #
vertex $-1 $677 $688 #
vertex $-1 $676 $689 #
straight-curve $-1 -74.031886350184067 65.378448041257442 0 0 0 -1 I I #
coedge $-1 $480 $690 $583 $677 forward $153 $-1 #
coedge $-1 $487 $481 $586 $683 forward $272 $-1 #
vertex $-1 $589 $691 #
coedge $-1 $587 $692 $487 $597 forward $684 $-1 #
edge $-1 $599 -111.69410549659472 $685 6.3542635286400539 $487 $693 forward 7 unknown #
coedge $-1 $495 $488 $692 $694 reversed $496 $-1 #
vertex $-1 $597 $695 #
straight-curve $-1 -77.714774010437338 -52.669920983977327 0 0 0 -1 I I #
face $-1 $-1 $696 $18 $-1 $697 reversed single #
loop $-1 $-1 $584 $490 #
plane-surface $-1 0 52.669920983977327 0 0 -1 0 0 0 -1 forward_v I I I I #
coedge $-1 $698 $492 $699 $700 forward $153 $-1 #
coedge $-1 $673 $671 $492 $606 reversed $579 $-1 #
edge $-1 $608 -30.242943189666882 $701 -27.196190065935973 $492 $702 forward 7 unknown #
coedge $-1 $672 $493 $495 $610 reversed $473 $-1 #
vertex $-1 $494 $703 #
straight-curve $-1 -58.962509817468309 -23.653385980593225 10.899508658349971 0 1 0 I I #
edge $-1 $704 -10.899508658349971 $497 10.899508658349971 $495 $705 forward 7 unknown #
face $-1 $382 $496 $18 $-1 $706 reversed single #
point $-1 -58.962509817468309 -52.669920983977327 10.899508658349971 #
face $-1 $707 $708 $19 $-1 $709 forward single #
loop $-1 $-1 $710 $500 #
plane-surface $-1 -74.031886350184067 59.024184512617389 0 -1 0 0 0 0 1 forward_v I I I I #
coedge $-1 $711 $712 $713 $714 forward $501 $-1 #
coedge $-1 $503 $715 $716 $717 forward $389 $-1 #
coedge $-1 $716 $512 $504 $619 forward $514 $-1 #
edge $-1 $718 -39.301772915318573 $621 -34.451715557483602 $618 $719 forward 7 unknown #
edge $-1 $718 0 $622 5.7830303064377215 $505 $720 forward 7 unknown #
vertex $-1 $619 $721 #
vertex $-1 $508 $722 #
straight-curve $-1 -104.03448128435659 -21.949420252699881 10.899508658349973 1 0 0 I I #
straight-curve $-1 -74.56511003615563 -15.973260797773863 10.899508658349973 0 -1 0 I I #
edge $-1 $510 -25.97036214062171 $718 -5.9761594549260177 $512 $723 forward 7 unknown #
point $-1 -77.714774010437338 -41.943622938395571 6.0494513005150026 #
coedge $-1 $513 $724 $725 $726 reversed $514 $-1 #
face $-1 $727 $514 $19 $-1 $728 reversed single #
coedge $-1 $729 $516 $730 $731 forward $389 $-1 #
coedge $-1 $725 $732 $516 $631 reversed $733 $-1 #
edge $-1 $632 -77.714774010437338 $734 -58.962509817468309 $630 $735 forward 7 unknown #
vertex $-1 $517 $736 #
straight-curve $-1 -77.714774010437338 0 10.899508658349971 0 -1 0 I I #
face $-1 $-1 $641 $16 $-1 $737 reversed single #
loop $-1 $-1 $646 $521 #
plane-surface $-1 0 52.669920983977327 0 0 -1 0 0 0 -1 forward_v I I I I #
coedge $-1 $526 $738 $524 $638 reversed $641 $-1 #
edge $-1 $529 -52.669920983977327 $648 52.669920983977327 $637 $739 forward 7 unknown #
coedge $-1 $738 $526 $525 $640 reversed $641 $-1 #
edge $-1 $652 -52.669920983977327 $528 52.669920983977327 $639 $740 forward 7 unknown #
loop $-1 $-1 $526 $634 #
straight-curve $-1 77.714774010437338 -52.669920983977327 0 0 0 -1 I I #
point $-1 77.714774010437338 -52.669920983977327 -10.899508658349971 #
point $-1 77.714774010437338 -52.669920983977327 10.899508658349971 #
straight-curve $-1 -77.714774010437338 -52.669920983977327 0 0 0 -1 I I #
coedge $-1 $538 $532 $738 $741 forward $635 $-1 #
coedge $-1 $532 $538 $534 $650 reversed $635 $-1 #
vertex $-1 $638 $742 #
straight-curve $-1 0 52.669920983977327 10.899508658349971 -1 0 0 I I #
edge $-1 $535 -10.899508658349971 $540 10.899508658349971 $647 $743 forward 7 unknown #
point $-1 -77.714774010437338 52.669920983977327 10.899508658349971 #
vertex $-1 $640 $744 #
straight-curve $-1 0 52.669920983977327 -10.899508658349971 1 0 0 I I #
point $-1 -77.714774010437338 52.669920983977327 -10.899508658349971 #
straight-curve $-1 -55.9157566937374 -23.653385980593225 10.899508658349971 0 -1 0 I I #
straight-curve $-1 -55.9157566937374 -23.653385980593225 -10.899508658349971 0 1 0 I I #
coedge $-1 $548 $547 $662 $745 reversed $429 $-1 #
edge $-1 $663 -77.714774010437338 $550 55.9157566937374 $547 $574 forward 7 unknown #
edge $-1 $549 -55.9157566937374 $665 77.714774010437338 $548 $576 forward 7 unknown #
point $-1 -55.9157566937374 -52.669920983977327 10.899508658349971 #
point $-1 -55.9157566937374 -52.669920983977327 -10.899508658349971 #
coedge $-1 $561 $564 $657 $745 forward $566 $-1 #
vertex $-1 $745 $746 #
straight-curve $-1 77.714774010437338 0 -10.899508658349971 0 -1 0 I I #
vertex $-1 $565 $747 #
straight-curve $-1 77.714774010437338 0 10.899508658349971 0 1 0 I I #
straight-curve $-1 -77.714774010437338 -52.669920983977327 0 0 0 -1 I I #
face $-1 $748 $749 $18 $-1 $706 reversed single #
loop $-1 $-1 $750 $578 #
plane-surface $-1 -55.9157566937374 -47.306771961186449 0 -1 0 0 0 0 1 forward_v I I I I #
coedge $-1 $605 $751 $752 $753 reversed $579 $-1 #
coedge $-1 $581 $607 $754 $755 reversed $473 $-1 #
coedge $-1 $751 $605 $581 $674 forward $579 $-1 #
edge $-1 $608 -10.899508658349971 $756 10.899508658349971 $673 $757 forward 7 unknown #
coedge $-1 $758 $587 $582 $676 forward $684 $-1 #
edge $-1 $591 -6.3542635286400539 $680 6.3542635286400539 $582 $759 forward 7 unknown #
edge $-1 $681 -6.3542635286400539 $590 6.3542635286400539 $583 $760 forward 7 unknown #
coedge $-1 $761 $584 $690 $762 reversed $602 $-1 #
coedge $-1 $584 $761 $758 $763 reversed $602 $-1 #
vertex $-1 $763 $764 #
vertex $-1 $677 $765 #
straight-curve $-1 -74.031886350184067 52.669920983977327 0 0 0 1 I I #
edge $-1 $595 -10.899508658349971 $685 10.899508658349971 $586 $766 forward 7 unknown #
loop $-1 $-1 $754 $748 #
vertex $-1 $588 $767 #
straight-curve $-1 -75.873330180310703 65.378448041257442 -10.899508658349971 1 0 0 I I #
straight-curve $-1 -75.873330180310703 65.378448041257442 10.899508658349971 -1 0 0 I I #
point $-1 -74.031886350184067 65.378448041257442 10.899508658349971 #
point $-1 -74.031886350184067 65.378448041257442 -10.899508658349971 #
coedge $-1 $593 $768 $678 $762 forward $153 $-1 #
point $-1 -77.714774010437338 65.378448041257442 10.899508658349971 #
coedge $-1 $596 $754 $598 $694 forward $684 $-1 #
straight-curve $-1 -77.714774010437338 59.024184512617389 -10.899508658349971 0 1 0 I I #
edge $-1 $704 58.962509817468309 $599 77.714774010437338 $598 $769 forward 7 unknown #
point $-1 -77.714774010437338 -52.669920983977327 -10.899508658349971 #
loop $-1 $-1 $770 $601 #
plane-surface $-1 77.714774010437338 0 0 -1 0 0 0 0 1 forward_v I I I I #
coedge $-1 $768 $604 $771 $772 forward $153 $-1 #
coedge $-1 $752 $750 $604 $700 reversed $669 $-1 #
edge $-1 $701 18.290236957802346 $773 29.016535003384103 $604 $774 forward 7 unknown #
vertex $-1 $606 $775 #
straight-curve $-1 -28.719566627801427 -41.943622938395571 10.899508658349971 1 0 0 I I #
point $-1 -58.962509817468309 -41.943622938395571 10.899508658349971 #
vertex $-1 $694 $776 #
straight-curve $-1 -58.962509817468309 -52.669920983977327 0 0 0 1 I I #
plane-surface $-1 0 -52.669920983977327 0 0 1 0 0 0 1 forward_v I I I I #
face $-1 $777 $778 $19 $-1 $779 forward single #
loop $-1 $-1 $780 $613 #
plane-surface $-1 -58.962509817468309 -47.306771961186449 0 1 0 0 0 0 -1 forward_v I I I I #
coedge $-1 $781 $782 $783 $784 reversed $614 $-1 #
coedge $-1 $785 $616 $786 $787 reversed $501 $-1 #
coedge $-1 $616 $785 $715 $788 reversed $501 $-1 #
coedge $-1 $782 $781 $616 $714 reversed $614 $-1 #
edge $-1 $789 -10.899508658349971 $790 10.899508658349971 $713 $791 forward 7 unknown #
coedge $-1 $617 $792 $712 $788 forward $389 $-1 #
coedge $-1 $793 $618 $617 $717 reversed $514 $-1 #
edge $-1 $794 -65.378448041257442 $621 21.949420252699881 $716 $633 forward 7 unknown #
vertex $-1 $625 $795 #
straight-curve $-1 -77.714774010437338 -21.949420252699881 45.351224215833575 0 0 1 I I #
straight-curve $-1 -77.714774010437338 -21.949420252699881 6.0494513005150026 0.54463902268945019 0 0.83867057594974714 I I #
point $-1 -77.714774010437338 -21.949420252699881 10.899508658349971 #
point $-1 -74.56511003615563 -21.949420252699881 10.899508658349971 #
straight-curve $-1 -77.714774010437338 -15.973260797773863 6.0494513005150079 0 1 0 I I #
coedge $-1 $627 $793 $796 $797 reversed $514 $-1 #
coedge $-1 $798 $630 $627 $726 forward $733 $-1 #
edge $-1 $632 -10.899508658349971 $799 10.899508658349971 $627 $800 forward 7 unknown #
face $-1 $801 $802 $19 $-1 $803 reversed single #
plane-surface $-1 -77.714774010437338 0 0 1 0 0 0 0 -1 forward_v I I I I #
coedge $-1 $804 $629 $805 $806 forward $389 $-1 #
coedge $-1 $807 $780 $629 $731 reversed $708 $-1 #
edge $-1 $734 -29.016535003384103 $808 -18.290236957802346 $629 $809 forward 7 unknown #
coedge $-1 $630 $798 $807 $810 forward $733 $-1 #
loop $-1 $-1 $732 $811 #
vertex $-1 $810 $812 #
straight-curve $-1 0 -52.669920983977327 10.899508658349971 1 0 0 I I #
point $-1 -77.714774010437338 -52.669920983977327 10.899508658349971 #
plane-surface $-1 77.714774010437338 0 0 -1 0 0 0 0 1 forward_v I I I I #
coedge $-1 $637 $639 $646 $741 reversed $641 $-1 #
straight-curve $-1 77.714774010437338 0 10.899508658349971 0 1 0 I I #
straight-curve $-1 77.714774010437338 0 -10.899508658349971 0 -1 0 I I #
edge $-1 $648 -10.899508658349971 $652 10.899508658349971 $738 $813 forward 7 unknown #
point $-1 77.714774010437338 52.669920983977327 10.899508658349971 #
straight-curve $-1 -77.714774010437338 52.669920983977327 0 0 0 -1 I I #
point $-1 77.714774010437338 52.669920983977327 -10.899508658349971 #
edge $-1 $665 -10.899508658349971 $663 10.899508658349971 $662 $814 forward 7 unknown #
point $-1 77.714774010437338 -52.669920983977327 -10.899508658349971 #
point $-1 77.714774010437338 -52.669920983977327 10.899508658349971 #
face $-1 $611 $684 $18 $-1 $815 reversed single #
loop $-1 $-1 $816 $668 #
coedge $-1 $699 $817 $816 $818 reversed $669 $-1 #
coedge $-1 $671 $673 $819 $820 reversed $579 $-1 #
coedge $-1 $817 $699 $671 $753 forward $669 $-1 #
edge $-1 $701 -10.899508658349971 $821 10.899508658349971 $752 $822 forward 7 unknown #
coedge $-1 $692 $819 $672 $755 forward $684 $-1 #
edge $-1 $756 18.290236957802346 $704 29.016535003384103 $754 $823 forward 7 unknown #
vertex $-1 $755 $824 #
straight-curve $-1 -58.962509817468309 -41.943622938395571 0 0 0 -1 I I #
coedge $-1 $825 $675 $679 $763 forward $684 $-1 #
straight-curve $-1 -74.031886350184067 59.024184512617389 -10.899508658349971 0 -1 0 I I #
straight-curve $-1 -74.031886350184067 59.024184512617389 10.899508658349971 0 1 0 I I #
coedge $-1 $679 $678 $826 $827 forward $602 $-1 #
edge $-1 $828 -77.714774010437338 $681 74.031886350184067 $678 $829 forward 7 unknown #
edge $-1 $680 -74.031886350184067 $830 77.714774010437338 $679 $831 forward 7 unknown #
point $-1 -74.031886350184067 52.669920983977335 -10.899508658349971 #
point $-1 -74.031886350184067 52.669920983977335 10.899508658349971 #
straight-curve $-1 -77.714774010437338 65.378448041257442 0 0 0 -1 I I #
point $-1 -77.714774010437338 65.378448041257442 -10.899508658349971 #
coedge $-1 $690 $698 $832 $833 forward $153 $-1 #
straight-curve $-1 0 -52.669920983977327 -10.899508658349971 -1 0 0 I I #
coedge $-1 $834 $832 $835 $836 forward $696 $-1 #
coedge $-1 $816 $835 $698 $772 reversed $749 $-1 #
edge $-1 $773 -55.9157566937374 $837 77.714774010437338 $771 $498 forward 7 unknown #
vertex $-1 $772 $838 #
straight-curve $-1 -55.9157566937374 -23.653385980593225 10.899508658349971 0 -1 0 I I #
point $-1 -55.9157566937374 -41.943622938395571 10.899508658349971 #
point $-1 -58.962509817468309 -52.669920983977327 -10.899508658349971 #
face $-1 $839 $840 $19 $-1 $841 forward single #
loop $-1 $-1 $842 $707 #
plane-surface $-1 -57.439133255602854 -41.943622938395571 0 0 -1 0 0 0 -1 forward_v I I I I #
coedge $-1 $730 $843 $844 $845 reversed $708 $-1 #
coedge $-1 $713 $710 $846 $847 reversed $614 $-1 #
coedge $-1 $710 $713 $792 $848 reversed $614 $-1 #
coedge $-1 $849 $850 $710 $784 forward $802 $-1 #
edge $-1 $851 -10.899508658349971 $852 10.899508658349971 $783 $853 forward 7 unknown #
coedge $-1 $712 $711 $793 $854 reversed $501 $-1 #
coedge $-1 $846 $796 $711 $787 forward $855 $-1 #
edge $-1 $856 -1.8414438301266358 $790 1.8414438301266358 $711 $857 forward 7 unknown #
edge $-1 $789 -1.8414438301266358 $794 1.8414438301266358 $712 $858 forward 7 unknown #
vertex $-1 $848 $859 #
vertex $-1 $847 $860 #
straight-curve $-1 -74.031886350184067 65.378448041257442 0 0 0 -1 I I #
coedge $-1 $715 $861 $782 $848 forward $389 $-1 #
coedge $-1 $724 $716 $785 $854 forward $514 $-1 #
vertex $-1 $788 $862 #
point $-1 -77.714774010437338 -21.949420252699881 6.0494513005150026 #
coedge $-1 $786 $863 $724 $797 forward $855 $-1 #
edge $-1 $799 -111.69410549659472 $856 6.3542635286400539 $724 $864 forward 7 unknown #
coedge $-1 $732 $725 $863 $865 reversed $733 $-1 #
vertex $-1 $797 $866 #
straight-curve $-1 -77.714774010437338 -52.669920983977327 0 0 0 -1 I I #
face $-1 $-1 $867 $19 $-1 $868 reversed single #
loop $-1 $-1 $783 $727 #
plane-surface $-1 0 52.669920983977327 0 0 -1 0 0 0 -1 forward_v I I I I #
coedge $-1 $869 $729 $870 $871 forward $389 $-1 #
coedge $-1 $844 $842 $729 $806 reversed $778 $-1 #
edge $-1 $808 -30.242943189666882 $872 -27.196190065935973 $729 $873 forward 7 unknown #
coedge $-1 $843 $730 $732 $810 reversed $708 $-1 #
vertex $-1 $731 $874 #
straight-curve $-1 -58.962509817468309 -23.653385980593225 10.899508658349971 0 1 0 I I #
edge $-1 $875 -10.899508658349971 $734 10.899508658349971 $732 $876 forward 7 unknown #
face $-1 $628 $733 $19 $-1 $877 reversed single #
point $-1 -58.962509817468309 -52.669920983977327 10.899508658349971 #
straight-curve $-1 77.714774010437338 52.669920983977327 0 0 0 -1 I I #
straight-curve $-1 77.714774010437338 -52.669920983977327 0 0 0 -1 I I #
plane-surface $-1 0 0 -10.899508658349971 0 0 1 1 0 0 forward_v I I I I #
coedge $-1 $878 $771 $750 $818 forward $749 $-1 #
coedge $-1 $750 $752 $879 $880 reversed $669 $-1 #
edge $-1 $773 -10.899508658349971 $881 10.899508658349971 $816 $882 forward 7 unknown #
coedge $-1 $754 $879 $751 $820 forward $684 $-1 #
edge $-1 $821 27.196190065935973 $756 30.242943189666882 $819 $883 forward 7 unknown #
vertex $-1 $820 $884 #
straight-curve $-1 -55.9157566937374 -41.943622938395571 0 0 0 -1 I I #
straight-curve $-1 -58.962509817468309 -23.653385980593225 -10.899508658349971 0 -1 0 I I #
point $-1 -58.962509817468309 -41.943622938395571 -10.899508658349971 #
coedge $-1 $885 $758 $834 $886 forward $684 $-1 #
coedge $-1 $832 $834 $761 $827 reversed $696 $-1 #
edge $-1 $828 -10.899508658349971 $830 10.899508658349971 $826 $887 forward 7 unknown #
vertex $-1 $833 $888 #
straight-curve $-1 0 52.669920983977327 10.899508658349971 -1 0 0 I I #
vertex $-1 $886 $889 #
straight-curve $-1 0 52.669920983977327 -10.899508658349971 1 0 0 I I #
coedge $-1 $770 $826 $768 $833 reversed $696 $-1 #
edge $-1 $837 -52.669920983977327 $828 52.669920983977327 $832 $890 forward 7 unknown #
coedge $-1 $826 $770 $825 $886 reversed $696 $-1 #
coedge $-1 $771 $878 $770 $836 reversed $749 $-1 #
edge $-1 $837 -10.899508658349971 $891 10.899508658349971 $770 $892 forward 7 unknown #
vertex $-1 $833 $893 #
point $-1 -55.9157566937374 -52.669920983977327 10.899508658349971 #
face $-1 $894 $895 $19 $-1 $877 reversed single #
loop $-1 $-1 $896 $777 #
plane-surface $-1 -55.9157566937374 -47.306771961186449 0 -1 0 0 0 0 1 forward_v I I I I #
coedge $-1 $805 $897 $898 $899 reversed $778 $-1 #
coedge $-1 $780 $807 $900 $901 reversed $708 $-1 #
coedge $-1 $897 $805 $780 $845 forward $778 $-1 #
edge $-1 $808 -10.899508658349971 $902 10.899508658349971 $844 $903 forward 7 unknown #
coedge $-1 $904 $786 $781 $847 forward $855 $-1 #
edge $-1 $790 -6.3542635286400539 $851 6.3542635286400539 $781 $905 forward 7 unknown #
edge $-1 $852 -6.3542635286400539 $789 6.3542635286400539 $782 $906 forward 7 unknown #
coedge $-1 $907 $783 $861 $908 reversed $802 $-1 #
coedge $-1 $783 $907 $904 $909 reversed $802 $-1 #
vertex $-1 $909 $910 #
vertex $-1 $848 $911 #
straight-curve $-1 -74.031886350184067 52.669920983977327 0 0 0 1 I I #
edge $-1 $794 -10.899508658349971 $856 10.899508658349971 $785 $912 forward 7 unknown #
loop $-1 $-1 $900 $894 #
vertex $-1 $787 $913 #
straight-curve $-1 -75.873330180310703 65.378448041257442 -10.899508658349971 1 0 0 I I #
straight-curve $-1 -75.873330180310703 65.378448041257442 10.899508658349971 -1 0 0 I I #
point $-1 -74.031886350184067 65.378448041257442 10.899508658349971 #
point $-1 -74.031886350184067 65.378448041257442 -10.899508658349971 #
coedge $-1 $792 $914 $849 $908 forward $389 $-1 #
point $-1 -77.714774010437338 65.378448041257442 10.899508658349971 #
coedge $-1 $796 $900 $798 $865 forward $855 $-1 #
straight-curve $-1 -77.714774010437338 59.024184512617389 -10.899508658349971 0 1 0 I I #
edge $-1 $875 58.962509817468309 $799 77.714774010437338 $798 $915 forward 7 unknown #
point $-1 -77.714774010437338 -52.669920983977327 -10.899508658349971 #
loop $-1 $-1 $916 $801 #
plane-surface $-1 77.714774010437338 0 0 -1 0 0 0 0 1 forward_v I I I I #
coedge $-1 $914 $804 $917 $918 forward $389 $-1 #
coedge $-1 $898 $896 $804 $871 reversed $840 $-1 #
edge $-1 $872 18.290236957802346 $919 29.016535003384103 $804 $920 forward 7 unknown #
vertex $-1 $806 $921 #
straight-curve $-1 -28.719566627801427 -41.943622938395571 10.899508658349971 1 0 0 I I #
point $-1 -58.962509817468309 -41.943622938395571 10.899508658349971 #
vertex $-1 $865 $922 #
straight-curve $-1 -58.962509817468309 -52.669920983977327 0 0 0 1 I I #
plane-surface $-1 0 -52.669920983977327 0 0 1 0 0 0 1 forward_v I I I I #
coedge $-1 $835 $816 $885 $923 reversed $749 $-1 #
coedge $-1 $819 $885 $817 $880 forward $684 $-1 #
edge $-1 $881 -29.016535003384103 $821 -18.290236957802346 $879 $924 forward 7 unknown #
vertex $-1 $818 $925 #
straight-curve $-1 -55.9157566937374 -52.669920983977327 0 0 0 -1 I I #
straight-curve $-1 -28.719566627801427 -41.943622938395571 -10.899508658349971 -1 0 0 I I #
point $-1 -55.9157566937374 -41.943622938395571 -10.899508658349971 #
coedge $-1 $879 $825 $878 $923 forward $684 $-1 #
edge $-1 $830 -52.669920983977327 $891 52.669920983977327 $834 $926 forward 7 unknown #
straight-curve $-1 77.714774010437338 52.669920983977327 0 0 0 -1 I I #
point $-1 77.714774010437338 52.669920983977327 10.899508658349971 #
point $-1 77.714774010437338 52.669920983977327 -10.899508658349971 #
straight-curve $-1 77.714774010437338 0 10.899508658349971 0 1 0 I I #
vertex $-1 $836 $927 #
straight-curve $-1 77.714774010437338 -52.669920983977327 0 0 0 -1 I I #
point $-1 77.714774010437338 -52.669920983977327 10.899508658349971 #
face $-1 $811 $855 $19 $-1 $928 reversed single #
loop $-1 $-1 $929 $839 #
coedge $-1 $870 $930 $929 $931 reversed $840 $-1 #
coedge $-1 $842 $844 $932 $933 reversed $778 $-1 #
coedge $-1 $930 $870 $842 $899 forward $840 $-1 #
edge $-1 $872 -10.899508658349971 $934 10.899508658349971 $898 $935 forward 7 unknown #
coedge $-1 $863 $932 $843 $901 forward $855 $-1 #
edge $-1 $902 18.290236957802346 $875 29.016535003384103 $900 $936 forward 7 unknown #
vertex $-1 $901 $937 #
straight-curve $-1 -58.962509817468309 -41.943622938395571 0 0 0 -1 I I #
coedge $-1 $938 $846 $850 $909 forward $855 $-1 #
straight-curve $-1 -74.031886350184067 59.024184512617389 -10.899508658349971 0 -1 0 I I #
straight-curve $-1 -74.031886350184067 59.024184512617389 10.899508658349971 0 1 0 I I #
coedge $-1 $850 $849 $939 $940 forward $802 $-1 #
edge $-1 $941 -77.714774010437338 $852 74.031886350184067 $849 $942 forward 7 unknown #
edge $-1 $851 -74.031886350184067 $943 77.714774010437338 $850 $944 forward 7 unknown #
point $-1 -74.031886350184067 52.669920983977335 -10.899508658349971 #
point $-1 -74.031886350184067 52.669920983977335 10.899508658349971 #
straight-curve $-1 -77.714774010437338 65.378448041257442 0 0 0 -1 I I #
point $-1 -77.714774010437338 65.378448041257442 -10.899508658349971 #
coedge $-1 $861 $869 $945 $946 forward $389 $-1 #
straight-curve $-1 0 -52.669920983977327 -10.899508658349971 -1 0 0 I I #
coedge $-1 $947 $945 $948 $949 forward $867 $-1 #
coedge $-1 $929 $948 $869 $918 reversed $895 $-1 #
edge $-1 $919 -55.9157566937374 $950 77.714774010437338 $917 $735 forward 7 unknown #
vertex $-1 $918 $951 #
straight-curve $-1 -55.9157566937374 -23.653385980593225 10.899508658349971 0 -1 0 I I #
point $-1 -55.9157566937374 -41.943622938395571 10.899508658349971 #
point $-1 -58.962509817468309 -52.669920983977327 -10.899508658349971 #
edge $-1 $891 -77.714774010437338 $881 55.9157566937374 $878 $769 forward 7 unknown #
straight-curve $-1 -55.9157566937374 -23.653385980593225 -10.899508658349971 0 1 0 I I #
point $-1 -55.9157566937374 -52.669920983977327 -10.899508658349971 #
straight-curve $-1 77.714774010437338 0 -10.899508658349971 0 -1 0 I I #
point $-1 77.714774010437338 -52.669920983977327 -10.899508658349971 #
plane-surface $-1 0 0 -10.899508658349971 0 0 1 1 0 0 forward_v I I I I #
coedge $-1 $952 $917 $896 $931 forward $895 $-1 #
coedge $-1 $896 $898 $953 $954 reversed $840 $-1 #
edge $-1 $919 -10.899508658349971 $955 10.899508658349971 $929 $956 forward 7 unknown #
coedge $-1 $900 $953 $897 $933 forward $855 $-1 #
edge $-1 $934 27.196190065935973 $902 30.242943189666882 $932 $957 forward 7 unknown #
vertex $-1 $933 $958 #
straight-curve $-1 -55.9157566937374 -41.943622938395571 0 0 0 -1 I I #
straight-curve $-1 -58.962509817468309 -23.653385980593225 -10.899508658349971 0 -1 0 I I #
point $-1 -58.962509817468309 -41.943622938395571 -10.899508658349971 #
coedge $-1 $959 $904 $947 $960 forward $855 $-1 #
coedge $-1 $945 $947 $907 $940 reversed $867 $-1 #
edge $-1 $941 -10.899508658349971 $943 10.899508658349971 $939 $961 forward 7 unknown #
vertex $-1 $946 $962 #
straight-curve $-1 0 52.669920983977327 10.899508658349971 -1 0 0 I I #
vertex $-1 $960 $963 #
straight-curve $-1 0 52.669920983977327 -10.899508658349971 1 0 0 I I #
coedge $-1 $916 $939 $914 $946 reversed $867 $-1 #
edge $-1 $950 -52.669920983977327 $941 52.669920983977327 $945 $964 forward 7 unknown #
coedge $-1 $939 $916 $938 $960 reversed $867 $-1 #
coedge $-1 $917 $952 $916 $949 reversed $895 $-1 #
edge $-1 $950 -10.899508658349971 $965 10.899508658349971 $916 $966 forward 7 unknown #
vertex $-1 $946 $967 #
point $-1 -55.9157566937374 -52.669920983977327 10.899508658349971 #
coedge $-1 $948 $929 $959 $968 reversed $895 $-1 #
coedge $-1 $932 $959 $930 $954 forward $855 $-1 #
edge $-1 $955 -29.016535003384103 $934 -18.290236957802346 $953 $969 forward 7 unknown #
vertex $-1 $931 $970 #
straight-curve $-1 -55.9157566937374 -52.669920983977327 0 0 0 -1 I I #
straight-curve $-1 -28.719566627801427 -41.943622938395571 -10.899508658349971 -1 0 0 I I #
point $-1 -55.9157566937374 -41.943622938395571 -10.899508658349971 #
coedge $-1 $953 $938 $952 $968 forward $855 $-1 #
edge $-1 $943 -52.669920983977327 $965 52.669920983977327 $947 $971 forward 7 unknown #
straight-curve $-1 77.714774010437338 52.669920983977327 0 0 0 -1 I I #
point $-1 77.714774010437338 52.669920983977327 10.899508658349971 #
point $-1 77.714774010437338 52.669920983977327 -10.899508658349971 #
straight-curve $-1 77.714774010437338 0 10.899508658349971 0 1 0 I I #
vertex $-1 $949 $972 #
straight-curve $-1 77.714774010437338 -52.669920983977327 0 0 0 -1 I I #
point $-1 77.714774010437338 -52.669920983977327 10.899508658349971 #
edge $-1 $965 -77.714774010437338 $955 55.9157566937374 $952 $915 forward 7 unknown #
straight-curve $-1 -55.9157566937374 -23.653385980593225 -10.899508658349971 0 1 0 I I #
point $-1 -55.9157566937374 -52.669920983977327 -10.899508658349971 #
straight-curve $-1 77.714774010437338 0 -10.899508658349971 0 -1 0 I I #
point $-1 77.714774010437338 -52.669920983977327 -10.899508658349971 #
End-of-ACIS-data 