500 0 9 0           
7 Unknown 11 ACIS 5.0 NT 24 Fri Mar 26 02:15:03 1999 
-1 9.9999999999999995e-007 1e-010 
body $-1 $9 $-1 $10 #
body $-1 $11 $-1 $12 #
body $-1 $13 $-1 $14 #
body $-1 $15 $-1 $16 #
body $-1 $17 $-1 $18 #
body $-1 $19 $-1 $20 #
body $-1 $21 $-1 $22 #
body $-1 $23 $-1 $24 #
body $-1 $25 $-1 $26 #
lump $-1 $-1 $27 $0 #
transform $-1 1 0 0 0 1 0 0 0 1 49.176305429242838 32.800312072459299 13.375784477511388 1 rotate no_reflect no_shear #
lump $-1 $-1 $28 $1 #
transform $-1 1 0 0 0 1 0 0 0 1 49.176305429242838 32.800312072459299 13.375784477511388 1 rotate no_reflect no_shear #
lump $-1 $-1 $29 $2 #
transform $-1 1 0 0 0 1 0 0 0 1 49.176305429242838 32.800312072459299 13.375784477511388 1 rotate no_reflect no_shear #
lump $-1 $-1 $30 $3 #
transform $-1 1 0 0 0 1 0 0 0 1 49.176305429242838 32.800312072459299 13.375784477511388 1 rotate no_reflect no_shear #
lump $-1 $-1 $31 $4 #
transform $-1 1 0 0 0 1 0 0 0 1 49.176305429242838 32.800312072459299 13.375784477511388 1 rotate no_reflect no_shear #
lump $-1 $-1 $32 $5 #
transform $-1 1 0 0 0 1 0 0 0 1 49.176305429242838 32.800312072459299 13.375784477511388 1 rotate no_reflect no_shear #
lump $-1 $-1 $33 $6 #
transform $-1 1 0 0 0 1 0 0 0 1 49.176305429242838 32.800312072459299 13.375784477511388 1 rotate no_reflect no_shear #
lump $-1 $-1 $34 $7 #
transform $-1 1 0 0 0 1 0 0 0 1 49.176305429242838 32.800312072459299 13.375784477511388 1 rotate no_reflect no_shear #
lump $-1 $-1 $35 $8 #
transform $-1 1 0 0 0 1 0 0 0 1 49.176305429242838 32.800312072459299 13.375784477511388 1 rotate no_reflect no_shear #
shell $-1 $-1 $-1 $36 $-1 $9 #
shell $-1 $-1 $-1 $37 $-1 $11 #
shell $-1 $-1 $-1 $38 $-1 $13 #
shell $-1 $-1 $-1 $39 $-1 $15 #
shell $-1 $-1 $-1 $40 $-1 $17 #
shell $-1 $-1 $-1 $41 $-1 $19 #
shell $-1 $-1 $-1 $42 $-1 $21 #
shell $-1 $-1 $-1 $43 $-1 $23 #
shell $-1 $-1 $-1 $44 $-1 $25 #
face $-1 $45 $46 $27 $-1 $47 forward single #
face $-1 $48 $49 $28 $-1 $50 reversed single #
face $-1 $51 $52 $29 $-1 $53 reversed single #
face $-1 $54 $55 $30 $-1 $56 forward single #
face $-1 $57 $58 $31 $-1 $59 forward single #
face $-1 $60 $61 $32 $-1 $62 forward single #
face $-1 $63 $64 $33 $-1 $65 reversed single #
face $-1 $66 $67 $34 $-1 $68 forward single #
face $-1 $69 $70 $35 $-1 $71 forward single #
face $-1 $72 $73 $27 $-1 $74 reversed single #
loop $-1 $-1 $75 $36 #
plane-surface $-1 0 0 13.375784477511388 0 0 1 1 0 0 forward_v I I I I #
face $-1 $76 $77 $28 $-1 $78 reversed single #
loop $-1 $-1 $79 $37 #
plane-surface $-1 0 -25.731189361539762 8.164343390118681 0 0 1 1 0 0 forward_v I I I I #
face $-1 $80 $81 $29 $-1 $82 reversed single #
loop $-1 $-1 $83 $38 #
plane-surface $-1 -122.2665400753956 7.9955298867286828 66.076413503263865 0 1 0 -0.74314483375859142 0 0.66913059716165679 forward_v I I I I #
face $-1 $84 $85 $30 $-1 $86 forward single #
loop $-1 $87 $88 $39 #
cone-surface $-1 -42.754605966674667 9.8078205957998037 6.3529679591369028 0.74314483375859142 0 -0.66913059716165679 0.3345652985808284 0 0.37157241687929571 1 I I 0 1 0.5 forward I I I I #
face $-1 $89 $90 $31 $-1 $91 forward single #
loop $-1 $92 $93 $40 #
cone-surface $-1 -42.754605966674667 12.526256659406478 6.3529679591369028 0.74314483375859142 0 -0.66913059716165679 0.3345652985808284 0 0.37157241687929571 1 I I 0 1 0.5 forward I I I I #
face $-1 $94 $95 $32 $-1 $96 forward single #
loop $-1 $97 $98 $41 #
cone-surface $-1 -42.754605966674667 15.244692723013152 6.3529679591369028 0.74314483375859142 0 -0.66913059716165679 0.3345652985808284 0 0.37157241687929571 1 I I 0 1 0.5 forward I I I I #
face $-1 $99 $100 $33 $-1 $101 reversed single #
loop $-1 $-1 $102 $42 #
plane-surface $-1 80.465108664972291 19.379159228803669 143.58805131905589 0 -1 0 -0.84804810408105047 0 -0.52991925155115449 forward_v I I I I #
face $-1 $103 $104 $34 $-1 $105 forward single #
loop $-1 $106 $107 $43 #
cone-surface $-1 45.860912332860352 12.375435820680423 9.6844256142303493 -0.84804810408105047 0 -0.52991925155115449 0.52991925155115449 0 -0.84804810408105047 1 I I 0 1 1 forward I I I I #
face $-1 $108 $109 $35 $-1 $110 forward single #
loop $-1 $111 $112 $44 #
cone-surface $-1 45.860912332860352 16.57766986555437 9.6844256142303493 -0.84804810408105047 0 -0.52991925155115449 0.52991925155115449 0 -0.84804810408105047 1 I I 0 1 1 forward I I I I #
face $-1 $113 $114 $27 $-1 $115 reversed single #
loop $-1 $-1 $116 $45 #
plane-surface $-1 0 0 -13.375784477511388 0 0 1 1 0 0 forward_v I I I I #
coedge $-1 $117 $118 $119 $120 forward $46 $-1 #
face $-1 $121 $122 $28 $-1 $123 reversed single #
loop $-1 $-1 $124 $48 #
plane-surface $-1 0 -18.662066650620226 10.770063933815035 0 -1 0 0 0 -1 forward_v I I I I #
coedge $-1 $125 $126 $127 $128 reversed $49 $-1 #
face $-1 $129 $130 $29 $-1 $131 reversed single #
loop $-1 $-1 $132 $51 #
plane-surface $-1 -49.176305429242831 12.526256659406478 0.26567226711729575 -0.74314483375859142 0 0.66913059716165679 0.66913059716165679 0 0.74314483375859142 forward_v I I I I #
coedge $-1 $133 $134 $135 $136 reversed $52 $-1 #
face $-1 $-1 $137 $30 $-1 $138 forward single #
loop $-1 $139 $140 $54 #
cone-surface $-1 -42.049319176488922 9.8078205957998037 5.7179248966690572 0.74314483375859142 0 -0.66913059716165679 0.1672826492904142 0 0.18578620843964785 1 I I -0.70710678118654746 0.70710678118654746 0.25 forward I I I I #
loop $-1 $-1 $141 $39 #
coedge $-1 $88 $88 $142 $143 reversed $55 $-1 #
face $-1 $-1 $144 $31 $-1 $145 forward single #
loop $-1 $146 $147 $57 #
cone-surface $-1 -42.049319176488922 12.526256659406478 5.7179248966690572 0.74314483375859142 0 -0.66913059716165679 0.1672826492904142 0 0.18578620843964785 1 I I -0.70710678118654746 0.70710678118654746 0.25 forward I I I I #
loop $-1 $-1 $148 $40 #
coedge $-1 $93 $93 $149 $150 reversed $58 $-1 #
face $-1 $-1 $151 $32 $-1 $152 forward single #
loop $-1 $153 $154 $60 #
cone-surface $-1 -42.049319176488922 15.244692723013152 5.7179248966690572 0.74314483375859142 0 -0.66913059716165679 0.1672826492904142 0 0.18578620843964785 1 I I -0.70710678118654746 0.70710678118654746 0.25 forward I I I I #
loop $-1 $-1 $155 $41 #
coedge $-1 $98 $98 $156 $157 reversed $61 $-1 #
face $-1 $158 $159 $33 $-1 $160 reversed single #
loop $-1 $-1 $161 $63 #
plane-surface $-1 -2.9426365049878171 14.476552843117396 91.469109384825217 0.84804810408105047 0 0.52991925155115449 0.52991925155115449 0 -0.84804810408105047 forward_v I I I I #
coedge $-1 $162 $163 $164 $165 reversed $64 $-1 #
face $-1 $-1 $166 $34 $-1 $167 forward single #
loop $-1 $168 $169 $66 #
cone-surface $-1 43.781904301831368 12.375435820680423 8.3853172564968759 -0.84804810408105047 0 -0.52991925155115449 0.26495962577557725 0 -0.42402405204052523 1 I I -0.70710678118654746 0.70710678118654746 0.5 forward I I I I #
loop $-1 $-1 $170 $43 #
coedge $-1 $107 $107 $171 $172 reversed $67 $-1 #
face $-1 $-1 $173 $35 $-1 $174 forward single #
loop $-1 $175 $176 $69 #
cone-surface $-1 43.781904301831368 16.57766986555437 8.3853172564968759 -0.84804810408105047 0 -0.52991925155115449 0.26495962577557725 0 -0.42402405204052523 1 I I -0.70710678118654746 0.70710678118654746 0.5 forward I I I I #
loop $-1 $-1 $177 $44 #
coedge $-1 $112 $112 $178 $179 reversed $70 $-1 #
face $-1 $180 $181 $27 $-1 $182 reversed single #
loop $-1 $-1 $183 $72 #
plane-surface $-1 0 -32.800312072459299 0 0 1 0 0 0 1 forward_v I I I I #
coedge $-1 $184 $185 $186 $187 forward $73 $-1 #
coedge $-1 $188 $75 $189 $190 forward $46 $-1 #
coedge $-1 $75 $188 $191 $192 forward $46 $-1 #
coedge $-1 $193 $194 $75 $120 reversed $195 $-1 #
edge $-1 $196 -32.800312072459299 $197 32.800312072459299 $119 $198 forward 7 unknown #
face $-1 $199 $200 $28 $-1 $201 reversed single #
loop $-1 $-1 $202 $76 #
plane-surface $-1 -49.176305429242838 0 0 1 0 0 0 0 -1 forward_v I I I I #
coedge $-1 $203 $204 $205 $206 reversed $77 $-1 #
coedge $-1 $207 $79 $208 $209 reversed $49 $-1 #
coedge $-1 $79 $207 $203 $210 forward $49 $-1 #
coedge $-1 $205 $211 $79 $128 forward $212 $-1 #
edge $-1 $213 -19.934717391689418 $214 -5.7964719698503444 $127 $215 forward 7 unknown #
face $-1 $216 $217 $29 $-1 $218 forward single #
loop $-1 $-1 $219 $80 #
plane-surface $-1 -122.2665400753956 17.056983432084273 66.076413503263865 0 -1 0 0.74314483375859142 0 -0.66913059716165679 forward_v I I I I #
coedge $-1 $220 $221 $222 $223 reversed $81 $-1 #
coedge $-1 $134 $83 $224 $225 reversed $52 $-1 #
coedge $-1 $83 $133 $220 $226 reversed $52 $-1 #
coedge $-1 $222 $227 $83 $136 forward $217 $-1 #
edge $-1 $228 11.95696460845496 $229 23.761362370099114 $135 $230 forward 7 unknown #
loop $-1 $-1 $142 $84 #
plane-surface $-1 -49.176305429242831 12.526256659406478 0.26567226711729575 -0.74314483375859142 0 0.66913059716165679 0.66913059716165679 0 0.74314483375859142 forward_v I I I I #
loop $-1 $-1 $231 $54 #
coedge $-1 $140 $140 $141 $232 reversed $85 $-1 #
coedge $-1 $141 $141 $140 $232 forward $87 $-1 #
coedge $-1 $142 $142 $88 $143 forward $137 $-1 #
edge $-1 $233 0 $233 6.2831853071796004 $142 $234 forward 7 unknown #
loop $-1 $-1 $149 $89 #
plane-surface $-1 -49.176305429242831 12.526256659406478 0.26567226711729575 -0.74314483375859142 0 0.66913059716165679 0.66913059716165679 0 0.74314483375859142 forward_v I I I I #
loop $-1 $-1 $235 $57 #
coedge $-1 $147 $147 $148 $236 reversed $90 $-1 #
coedge $-1 $148 $148 $147 $236 forward $92 $-1 #
coedge $-1 $149 $149 $93 $150 forward $144 $-1 #
edge $-1 $237 0 $237 6.2831853071796004 $149 $238 forward 7 unknown #
loop $-1 $-1 $156 $94 #
plane-surface $-1 -49.176305429242831 12.526256659406478 0.26567226711729575 -0.74314483375859142 0 0.66913059716165679 0.66913059716165679 0 0.74314483375859142 forward_v I I I I #
loop $-1 $-1 $239 $60 #
coedge $-1 $154 $154 $155 $240 reversed $95 $-1 #
coedge $-1 $155 $155 $154 $240 forward $97 $-1 #
coedge $-1 $156 $156 $98 $157 forward $151 $-1 #
edge $-1 $241 0 $241 6.2831853071796004 $156 $242 forward 7 unknown #
face $-1 $243 $244 $33 $-1 $245 reversed single #
loop $-1 $-1 $246 $99 #
plane-surface $-1 80.465108664972291 9.5739464574311235 143.58805131905589 0 1 0 0.84804810408105047 0 0.52991925155115449 forward_v I I I I #
coedge $-1 $247 $248 $249 $250 reversed $100 $-1 #
coedge $-1 $163 $102 $251 $252 reversed $64 $-1 #
coedge $-1 $102 $162 $247 $253 reversed $64 $-1 #
coedge $-1 $249 $254 $102 $165 forward $255 $-1 #
edge $-1 $256 -8.9437510967566922 $257 -5.6229328619686356 $164 $258 forward 7 unknown #
loop $-1 $-1 $171 $103 #
plane-surface $-1 -2.9426365049878171 14.476552843117396 91.469109384825217 0.84804810408105047 0 0.52991925155115449 0.52991925155115449 0 -0.84804810408105047 forward_v I I I I #
loop $-1 $-1 $259 $66 #
coedge $-1 $169 $169 $170 $260 reversed $104 $-1 #
coedge $-1 $170 $170 $169 $260 forward $106 $-1 #
coedge $-1 $171 $171 $107 $172 forward $166 $-1 #
edge $-1 $261 0 $261 6.2831853071796004 $171 $262 forward 7 unknown #
loop $-1 $-1 $178 $108 #
plane-surface $-1 -2.9426365049878171 14.476552843117396 91.469109384825217 0.84804810408105047 0 0.52991925155115449 0.52991925155115449 0 -0.84804810408105047 forward_v I I I I #
loop $-1 $-1 $263 $69 #
coedge $-1 $176 $176 $177 $264 reversed $109 $-1 #
coedge $-1 $177 $177 $176 $264 forward $111 $-1 #
coedge $-1 $178 $178 $112 $179 forward $173 $-1 #
edge $-1 $265 0 $265 6.2831853071796004 $178 $266 forward 7 unknown #
face $-1 $267 $268 $27 $-1 $269 reversed single #
loop $-1 $-1 $270 $113 #
plane-surface $-1 -49.176305429242838 0 0 1 0 0 0 0 -1 forward_v I I I I #
coedge $-1 $271 $191 $272 $273 forward $114 $-1 #
coedge $-1 $274 $116 $271 $275 forward $73 $-1 #
coedge $-1 $116 $274 $276 $277 forward $73 $-1 #
coedge $-1 $194 $193 $116 $187 reversed $195 $-1 #
edge $-1 $278 -32.800312072459299 $279 32.800312072459299 $186 $280 forward 7 unknown #
coedge $-1 $118 $117 $281 $282 forward $46 $-1 #
coedge $-1 $283 $284 $117 $190 reversed $268 $-1 #
edge $-1 $197 -49.176305429242838 $285 49.176305429242838 $189 $286 forward 7 unknown #
coedge $-1 $183 $287 $118 $192 reversed $114 $-1 #
edge $-1 $288 -49.176305429242838 $196 49.176305429242838 $191 $289 forward 7 unknown #
coedge $-1 $186 $119 $287 $290 forward $195 $-1 #
coedge $-1 $119 $186 $283 $291 reversed $195 $-1 #
loop $-1 $-1 $193 $267 #
vertex $-1 $120 $292 #
vertex $-1 $120 $293 #
straight-curve $-1 49.176305429242838 0 13.375784477511388 0 1 0 I I #
face $-1 $294 $295 $28 $-1 $296 forward single #
loop $-1 $-1 $208 $121 #
plane-surface $-1 0 -32.800312072459299 0 0 1 0 0 0 1 forward_v I I I I #
coedge $-1 $297 $298 $299 $300 forward $122 $-1 #
coedge $-1 $299 $124 $126 $210 reversed $77 $-1 #
coedge $-1 $124 $299 $301 $302 reversed $77 $-1 #
coedge $-1 $303 $127 $124 $206 forward $212 $-1 #
edge $-1 $214 2.7793114232111638 $304 7.9907525106038708 $205 $305 forward 7 unknown #
coedge $-1 $126 $125 $297 $306 reversed $49 $-1 #
coedge $-1 $307 $308 $125 $209 forward $200 $-1 #
edge $-1 $309 -49.176305429242838 $213 49.176305429242838 $208 $310 forward 7 unknown #
edge $-1 $311 -49.176305429242838 $214 49.176305429242838 $203 $312 forward 7 unknown #
coedge $-1 $127 $303 $307 $313 forward $212 $-1 #
loop $-1 $-1 $205 $294 #
vertex $-1 $209 $314 #
vertex $-1 $128 $315 #
straight-curve $-1 49.176305429242838 -12.865594680769881 8.164343390118681 0 1 0 I I #
face $-1 $-1 $316 $29 $-1 $317 reversed single #
loop $-1 $-1 $135 $129 #
plane-surface $-1 0 0 13.375784477511388 0 0 1 1 0 0 forward_v I I I I #
coedge $-1 $318 $319 $320 $321 reversed $130 $-1 #
coedge $-1 $322 $132 $134 $226 forward $81 $-1 #
coedge $-1 $132 $322 $318 $323 forward $81 $-1 #
coedge $-1 $320 $135 $132 $223 forward $217 $-1 #
edge $-1 $229 1.7324015570254439 $324 10.793855102381034 $222 $325 forward 7 unknown #
coedge $-1 $326 $327 $133 $225 forward $316 $-1 #
edge $-1 $328 -32.772534484514644 $228 -19.662422274120544 $224 $329 forward 7 unknown #
edge $-1 $229 -17.641395882532471 $328 1.0612360036877491e-014 $134 $330 forward 7 unknown #
coedge $-1 $135 $320 $326 $331 forward $217 $-1 #
vertex $-1 $225 $332 #
vertex $-1 $136 $333 #
straight-curve $-1 -61.133270037697798 7.9955298867286828 13.375784477511388 1 0 0 I I #
coedge $-1 $231 $231 $-1 $334 reversed $139 $-1 #
edge $-1 $335 0 $335 6.2831853071796004 $140 $336 forward 7 unknown #
vertex $-1 $143 $337 #
ellipse-curve $-1 -43.274106548420761 9.8078205957998037 6.8207283723143357 -0.74314483375859142 0 0.66913059716165679 0.3345652985808284 0 0.37157241687929571 1 I I #
coedge $-1 $235 $235 $-1 $338 reversed $146 $-1 #
edge $-1 $339 0 $339 6.2831853071796004 $147 $340 forward 7 unknown #
vertex $-1 $150 $341 #
ellipse-curve $-1 -43.274106548420761 12.526256659406478 6.8207283723143357 -0.74314483375859142 0 0.66913059716165679 0.3345652985808284 0 0.37157241687929571 1 I I #
coedge $-1 $239 $239 $-1 $342 reversed $153 $-1 #
edge $-1 $343 0 $343 6.2831853071796004 $154 $344 forward 7 unknown #
vertex $-1 $157 $345 #
ellipse-curve $-1 -43.274106548420761 15.244692723013152 6.8207283723143357 -0.74314483375859142 0 0.66913059716165679 0.3345652985808284 0 0.37157241687929571 1 I I #
face $-1 $-1 $255 $33 $-1 $346 forward single #
loop $-1 $-1 $347 $158 #
plane-surface $-1 49.176305429242838 0 0 -1 0 0 0 0 1 forward_v I I I I #
coedge $-1 $348 $349 $350 $351 reversed $159 $-1 #
coedge $-1 $352 $161 $163 $253 forward $100 $-1 #
coedge $-1 $161 $352 $348 $353 forward $100 $-1 #
coedge $-1 $350 $164 $161 $250 forward $255 $-1 #
edge $-1 $257 -12.140882807244971 $354 -2.3356700358724254 $249 $355 forward 7 unknown #
coedge $-1 $356 $357 $162 $252 forward $244 $-1 #
edge $-1 $358 -63.73266144466281 $256 -58.418241182016558 $251 $359 forward 7 unknown #
edge $-1 $257 92.085961316942246 $358 98.352610858485633 $163 $360 forward 7 unknown #
coedge $-1 $164 $350 $356 $361 forward $255 $-1 #
loop $-1 $-1 $350 $243 #
vertex $-1 $252 $362 #
vertex $-1 $165 $363 #
straight-curve $-1 40.232554332486146 19.379159228803669 13.375784477511388 -1 0 0 I I #
coedge $-1 $259 $259 $-1 $364 reversed $168 $-1 #
edge $-1 $365 0 $365 6.2831853071796004 $169 $366 forward 7 unknown #
vertex $-1 $172 $367 #
ellipse-curve $-1 47.51589631184882 12.375435820680423 10.718574346188248 0.84804810408105047 0 0.52991925155115449 0.52991925155115449 0 -0.84804810408105047 1 I I #
coedge $-1 $263 $263 $-1 $368 reversed $175 $-1 #
edge $-1 $369 0 $369 6.2831853071796004 $176 $370 forward 7 unknown #
vertex $-1 $179 $371 #
ellipse-curve $-1 47.51589631184882 16.57766986555437 10.718574346188248 0.84804810408105047 0 0.52991925155115449 0.52991925155115449 0 -0.84804810408105047 1 I I #
face $-1 $-1 $195 $27 $-1 $372 reversed single #
loop $-1 $-1 $283 $180 #
plane-surface $-1 0 32.800312072459299 0 0 -1 0 0 0 -1 forward_v I I I I #
coedge $-1 $373 $281 $284 $374 forward $181 $-1 #
coedge $-1 $287 $183 $184 $275 reversed $114 $-1 #
coedge $-1 $281 $373 $183 $273 reversed $181 $-1 #
edge $-1 $288 -13.375784477511388 $375 13.375784477511388 $272 $376 forward 7 unknown #
coedge $-1 $185 $184 $373 $377 forward $73 $-1 #
edge $-1 $279 -49.176305429242838 $375 49.176305429242838 $271 $378 forward 7 unknown #
coedge $-1 $284 $283 $185 $277 reversed $268 $-1 #
edge $-1 $379 -49.176305429242838 $278 49.176305429242838 $276 $380 forward 7 unknown #
vertex $-1 $187 $381 #
vertex $-1 $290 $382 #
straight-curve $-1 49.176305429242838 0 -13.375784477511388 0 -1 0 I I #
coedge $-1 $270 $272 $188 $282 reversed $181 $-1 #
edge $-1 $285 -32.800312072459299 $288 32.800312072459299 $281 $383 forward 7 unknown #
coedge $-1 $276 $189 $194 $291 forward $268 $-1 #
coedge $-1 $189 $276 $270 $374 reversed $268 $-1 #
vertex $-1 $190 $384 #
straight-curve $-1 0 32.800312072459299 13.375784477511388 -1 0 0 I I #
coedge $-1 $191 $271 $193 $290 reversed $114 $-1 #
vertex $-1 $282 $385 #
straight-curve $-1 0 -32.800312072459299 13.375784477511388 1 0 0 I I #
edge $-1 $196 -13.375784477511388 $279 13.375784477511388 $193 $386 forward 7 unknown #
edge $-1 $197 -13.375784477511388 $278 13.375784477511388 $194 $387 forward 7 unknown #
point $-1 49.176305429242838 -32.800312072459299 13.375784477511388 #
point $-1 49.176305429242838 32.800312072459299 13.375784477511388 #
face $-1 $-1 $212 $28 $-1 $388 reversed single #
loop $-1 $-1 $301 $199 #
plane-surface $-1 0 0 13.375784477511388 0 0 1 1 0 0 forward_v I I I I #
coedge $-1 $389 $202 $207 $306 forward $122 $-1 #
coedge $-1 $202 $389 $390 $391 reversed $122 $-1 #
coedge $-1 $204 $203 $202 $300 reversed $77 $-1 #
edge $-1 $392 -7.9907525106038708 $311 -2.7793114232111638 $202 $393 forward 7 unknown #
coedge $-1 $390 $394 $204 $302 forward $295 $-1 #
edge $-1 $304 -49.176305429242838 $392 49.176305429242838 $301 $395 forward 7 unknown #
coedge $-1 $211 $205 $394 $396 reversed $212 $-1 #
vertex $-1 $206 $397 #
straight-curve $-1 49.176305429242838 -18.662066650620226 5.3850319669075173 0 0 1 I I #
edge $-1 $311 5.7964719698503444 $309 19.934717391689418 $297 $398 forward 7 unknown #
coedge $-1 $399 $208 $211 $313 reversed $200 $-1 #
coedge $-1 $208 $399 $389 $400 forward $200 $-1 #
vertex $-1 $209 $401 #
straight-curve $-1 0 -32.800312072459299 8.164343390118681 1 0 0 I I #
vertex $-1 $306 $402 #
straight-curve $-1 0 -18.662066650620226 8.164343390118681 1 0 0 I I #
edge $-1 $403 -13.375784477511388 $213 -8.164343390118681 $211 $404 forward 7 unknown #
point $-1 49.176305429242838 -32.800312072459299 8.164343390118681 #
point $-1 49.176305429242838 -18.662066650620226 8.164343390118681 #
loop $-1 $-1 $224 $216 #
plane-surface $-1 -49.176305429242838 0 0 1 0 0 0 0 -1 forward_v I I I I #
coedge $-1 $319 $219 $221 $323 reversed $130 $-1 #
coedge $-1 $219 $318 $405 $406 reversed $130 $-1 #
coedge $-1 $227 $222 $219 $321 forward $217 $-1 #
edge $-1 $324 -23.761362370099114 $407 -11.95696460845496 $320 $408 forward 7 unknown #
coedge $-1 $221 $220 $327 $409 reversed $81 $-1 #
edge $-1 $410 -1.0612360036877491e-014 $324 17.641395882532471 $318 $411 forward 7 unknown #
vertex $-1 $223 $412 #
straight-curve $-1 -37.371907667598684 6.263128329703239 13.375784477511388 0 1 0 I I #
coedge $-1 $405 $224 $227 $331 reversed $316 $-1 #
coedge $-1 $224 $405 $322 $409 forward $316 $-1 #
vertex $-1 $225 $413 #
straight-curve $-1 -49.176305429242838 7.9955298867286828 33.038206751631932 0 0 1 I I #
straight-curve $-1 -49.176305429242831 7.9955298867286828 0.26567226711729575 -0.66913059716165679 0 -0.74314483375859142 I I #
edge $-1 $407 -17.056983432084273 $228 -7.9955298867286828 $326 $414 forward 7 unknown #
point $-1 -49.176305429242838 7.9955298867286828 13.375784477511388 #
point $-1 -37.371907667598684 7.9955298867286828 13.375784477511388 #
edge $-1 $415 1 $415 0 $231 $-1 forward 7 unknown #
vertex $-1 $232 $416 #
ellipse-curve $-1 -42.235105384928566 9.8078205957998037 5.8852075459594717 -0.74314483375859142 0 0.66913059716165679 0.3345652985808284 0 0.37157241687929571 1 I I #
point $-1 -42.939541249839934 9.8078205957998037 7.1923007891936308 #
edge $-1 $417 1 $417 0 $235 $-1 forward 7 unknown #
vertex $-1 $236 $418 #
ellipse-curve $-1 -42.235105384928566 12.526256659406478 5.8852075459594717 -0.74314483375859142 0 0.66913059716165679 0.3345652985808284 0 0.37157241687929571 1 I I #
point $-1 -42.939541249839934 12.526256659406478 7.1923007891936308 #
edge $-1 $419 1 $419 0 $239 $-1 forward 7 unknown #
vertex $-1 $240 $420 #
ellipse-curve $-1 -42.235105384928566 15.244692723013152 5.8852075459594717 -0.74314483375859142 0 0.66913059716165679 0.3345652985808284 0 0.37157241687929571 1 I I #
point $-1 -42.939541249839934 15.244692723013152 7.1923007891936308 #
plane-surface $-1 0 0 13.375784477511388 0 0 1 1 0 0 forward_v I I I I #
coedge $-1 $357 $356 $349 $421 forward $244 $-1 #
coedge $-1 $349 $246 $248 $353 reversed $159 $-1 #
coedge $-1 $246 $348 $347 $421 reversed $159 $-1 #
coedge $-1 $254 $249 $246 $351 forward $255 $-1 #
edge $-1 $354 5.6229328619686356 $422 8.9437510967566922 $350 $423 forward 7 unknown #
coedge $-1 $248 $247 $357 $424 reversed $100 $-1 #
edge $-1 $425 -98.352610858485633 $354 -92.085961316942246 $348 $426 forward 7 unknown #
vertex $-1 $250 $427 #
straight-curve $-1 45.855487194454781 7.2382764215586981 13.375784477511395 0 -1 0 I I #
coedge $-1 $347 $251 $254 $361 reversed $244 $-1 #
coedge $-1 $251 $347 $352 $424 forward $244 $-1 #
vertex $-1 $252 $428 #
straight-curve $-1 49.176305429242838 19.379159228803669 71.794025659527946 0 0 1 I I #
straight-curve $-1 -2.9426365049878171 19.379159228803669 91.469109384825217 0.52991925155115449 0 -0.84804810408105047 I I #
edge $-1 $422 9.5739464574311235 $256 19.379159228803669 $356 $429 forward 7 unknown #
point $-1 49.176305429242838 19.379159228803669 13.375784477511388 #
point $-1 45.855487194454781 19.379159228803669 13.375784477511388 #
edge $-1 $430 1 $430 0 $259 $-1 forward 7 unknown #
vertex $-1 $260 $431 #
ellipse-curve $-1 44.20592835387189 12.375435820680423 8.6502768822724523 0.84804810408105047 0 0.52991925155115449 0.52991925155115449 0 -0.84804810408105047 1 I I #
point $-1 48.045815563399962 12.375435820680423 9.8705262421071929 #
edge $-1 $432 1 $432 0 $263 $-1 forward 7 unknown #
vertex $-1 $264 $433 #
ellipse-curve $-1 44.20592835387189 16.57766986555437 8.6502768822724523 0.84804810408105047 0 0.52991925155115449 0.52991925155115449 0 -0.84804810408105047 1 I I #
point $-1 48.045815563399962 16.57766986555437 9.8705262421071929 #
plane-surface $-1 49.176305429242838 0 0 -1 0 0 0 0 1 forward_v I I I I #
coedge $-1 $272 $270 $274 $377 reversed $181 $-1 #
edge $-1 $285 -13.375784477511388 $379 13.375784477511388 $284 $434 forward 7 unknown #
vertex $-1 $377 $435 #
straight-curve $-1 -49.176305429242838 -32.800312072459299 0 0 0 -1 I I #
edge $-1 $375 -32.800312072459299 $379 32.800312072459299 $373 $436 forward 7 unknown #
straight-curve $-1 0 -32.800312072459299 -13.375784477511388 -1 0 0 I I #
vertex $-1 $277 $437 #
straight-curve $-1 0 32.800312072459299 -13.375784477511388 1 0 0 I I #
point $-1 49.176305429242838 32.800312072459299 -13.375784477511388 #
point $-1 49.176305429242838 -32.800312072459299 -13.375784477511388 #
straight-curve $-1 -49.176305429242838 0 13.375784477511388 0 -1 0 I I #
point $-1 -49.176305429242838 32.800312072459299 13.375784477511388 #
point $-1 -49.176305429242838 -32.800312072459299 13.375784477511388 #
straight-curve $-1 49.176305429242838 -32.800312072459299 0 0 0 -1 I I #
straight-curve $-1 49.176305429242838 32.800312072459299 0 0 0 -1 I I #
plane-surface $-1 49.176305429242838 0 0 -1 0 0 0 0 1 forward_v I I I I #
coedge $-1 $298 $297 $308 $400 reversed $122 $-1 #
coedge $-1 $438 $301 $298 $391 forward $295 $-1 #
edge $-1 $392 18.662066650620226 $439 32.800312072459299 $298 $440 forward 7 unknown #
vertex $-1 $391 $441 #
straight-curve $-1 -49.176305429242838 -18.662066650620226 5.3850319669075173 0 0 -1 I I #
coedge $-1 $301 $438 $303 $396 forward $295 $-1 #
straight-curve $-1 0 -18.662066650620226 13.375784477511388 -1 0 0 I I #
edge $-1 $403 -32.800312072459299 $304 -18.662066650620226 $303 $442 forward 7 unknown #
point $-1 49.176305429242838 -18.662066650620226 13.375784477511388 #
straight-curve $-1 -49.176305429242838 -12.865594680769881 8.164343390118681 0 -1 0 I I #
coedge $-1 $308 $307 $438 $443 reversed $200 $-1 #
edge $-1 $439 -13.375784477511388 $309 -8.164343390118681 $389 $444 forward 7 unknown #
point $-1 -49.176305429242838 -32.800312072459299 8.164343390118681 #
point $-1 -49.176305429242838 -18.662066650620226 8.164343390118681 #
vertex $-1 $396 $445 #
straight-curve $-1 49.176305429242838 -32.800312072459299 0 0 0 -1 I I #
coedge $-1 $327 $326 $319 $406 forward $316 $-1 #
edge $-1 $407 19.662422274120544 $410 32.772534484514644 $405 $446 forward 7 unknown #
vertex $-1 $331 $447 #
straight-curve $-1 -61.133270037697798 17.056983432084273 13.375784477511388 -1 0 0 I I #
edge $-1 $410 -10.793855102381034 $328 -1.7324015570254439 $327 $448 forward 7 unknown #
vertex $-1 $409 $449 #
straight-curve $-1 -49.176305429242831 17.056983432084273 0.26567226711729575 0.66913059716165679 0 0.74314483375859142 I I #
point $-1 -37.371907667598684 17.056983432084273 13.375784477511388 #
point $-1 -49.176305429242838 7.9955298867286828 0.26567226711728786 #
straight-curve $-1 -49.176305429242838 0 13.375784477511388 0 -1 0 I I #
vertex $-1 $334 $450 #
point $-1 -41.900540086347739 9.8078205957998037 6.2567799628387668 #
vertex $-1 $338 $451 #
point $-1 -41.900540086347739 12.526256659406478 6.2567799628387668 #
vertex $-1 $342 $452 #
point $-1 -41.900540086347739 15.244692723013152 6.2567799628387668 #
edge $-1 $422 58.418241182016558 $425 63.73266144466281 $347 $453 forward 7 unknown #
vertex $-1 $361 $454 #
straight-curve $-1 40.232554332486146 9.5739464574311235 13.375784477511388 1 0 0 I I #
edge $-1 $425 2.3356700358724254 $358 12.140882807244971 $357 $455 forward 7 unknown #
vertex $-1 $424 $456 #
straight-curve $-1 -2.9426365049878171 9.5739464574311235 91.469109384825217 -0.52991925155115449 0 0.84804810408105047 I I #
point $-1 45.855487194454781 9.5739464574311235 13.375784477511388 #
point $-1 49.176305429242838 19.379159228803669 8.0613642148651365 #
straight-curve $-1 49.176305429242838 0 13.375784477511388 0 1 0 I I #
vertex $-1 $364 $457 #
point $-1 44.735847605423047 12.375435820680423 7.8022287781914024 #
vertex $-1 $368 $458 #
point $-1 44.735847605423047 16.57766986555437 7.8022287781914024 #
straight-curve $-1 -49.176305429242838 32.800312072459299 0 0 0 -1 I I #
point $-1 -49.176305429242838 -32.800312072459299 -13.375784477511388 #
straight-curve $-1 -49.176305429242838 0 -13.375784477511388 0 1 0 I I #
point $-1 -49.176305429242838 32.800312072459299 -13.375784477511388 #
coedge $-1 $394 $390 $399 $443 forward $295 $-1 #
vertex $-1 $391 $459 #
straight-curve $-1 -49.176305429242838 0 13.375784477511388 0 -1 0 I I #
point $-1 -49.176305429242838 -18.662066650620226 13.375784477511388 #
straight-curve $-1 49.176305429242838 0 13.375784477511388 0 1 0 I I #
edge $-1 $439 -49.176305429242838 $403 49.176305429242838 $399 $460 forward 7 unknown #
straight-curve $-1 -49.176305429242838 -32.800312072459299 0 0 0 -1 I I #
point $-1 49.176305429242838 -32.800312072459299 13.375784477511388 #
straight-curve $-1 -49.176305429242838 17.056983432084273 33.038206751631932 0 0 -1 I I #
point $-1 -49.176305429242838 17.056983432084273 13.375784477511388 #
straight-curve $-1 -49.176305429242838 6.263128329703239 0.26567226711728209 0 -1 0 I I #
point $-1 -49.176305429242838 17.056983432084273 0.26567226711728786 #
point $-1 -41.863532968049277 9.8078205957998037 5.5506422473786428 #
point $-1 -41.863532968049277 12.526256659406478 5.5506422473786428 #
point $-1 -41.863532968049277 15.244692723013152 5.5506422473786428 #
straight-curve $-1 49.176305429242838 9.5739464574311235 71.794025659527946 0 0 -1 I I #
point $-1 49.176305429242838 9.5739464574311235 13.375784477511388 #
straight-curve $-1 49.176305429242838 7.2382764215586981 8.0613642148651365 0 1 0 I I #
point $-1 49.176305429242838 9.5739464574311235 8.0613642148651365 #
point $-1 43.357880249790846 12.375435820680423 8.1203576307212995 #
point $-1 43.357880249790846 16.57766986555437 8.1203576307212995 #
point $-1 -49.176305429242838 -32.800312072459299 13.375784477511388 #
straight-curve $-1 0 -32.800312072459299 13.375784477511388 1 0 0 I I #
End-of-ACIS-data 