500 0 8 0           
7 Unknown 11 ACIS 5.0 NT 24 Thu Mar 25 17:02:07 1999 
-1 9.9999999999999995e-007 1e-010 
body $-1 $8 $-1 $9 #
body $-1 $10 $-1 $11 #
body $-1 $12 $-1 $13 #
body $-1 $14 $-1 $15 #
body $-1 $16 $-1 $17 #
body $-1 $18 $-1 $19 #
body $-1 $20 $-1 $21 #
body $-1 $22 $-1 $23 #
lump $-1 $-1 $24 $0 #
transform $-1 1 0 0 0 1 0 0 0 1 47.903073213904236 29.788439897269633 9.488445841724376 1 rotate no_reflect no_shear #
lump $-1 $-1 $25 $1 #
transform $-1 1 0 0 0 1 0 0 0 1 47.903073213904236 29.788439897269633 9.488445841724376 1 rotate no_reflect no_shear #
lump $-1 $-1 $26 $2 #
transform $-1 1 0 0 0 1 0 0 0 1 47.903073213904236 29.788439897269633 9.488445841724376 1 rotate no_reflect no_shear #
lump $-1 $-1 $27 $3 #
transform $-1 1 0 0 0 1 0 0 0 1 47.903073213904236 29.788439897269633 9.488445841724376 1 rotate no_reflect no_shear #
lump $-1 $-1 $28 $4 #
transform $-1 1 0 0 0 1 0 0 0 1 47.903073213904236 29.788439897269633 9.488445841724376 1 rotate no_reflect no_shear #
lump $-1 $-1 $29 $5 #
transform $-1 1 0 0 0 1 0 0 0 1 47.903073213904236 29.788439897269633 9.488445841724376 1 rotate no_reflect no_shear #
lump $-1 $-1 $30 $6 #
transform $-1 1 0 0 0 1 0 0 0 1 47.903073213904236 29.788439897269633 9.488445841724376 1 rotate no_reflect no_shear #
lump $-1 $-1 $31 $7 #
transform $-1 1 0 0 0 1 0 0 0 1 47.903073213904236 29.788439897269633 9.488445841724376 1 rotate no_reflect no_shear #
shell $-1 $-1 $-1 $32 $-1 $8 #
shell $-1 $-1 $-1 $33 $-1 $10 #
shell $-1 $-1 $-1 $34 $-1 $12 #
shell $-1 $-1 $-1 $35 $-1 $14 #
shell $-1 $-1 $-1 $36 $-1 $16 #
shell $-1 $-1 $-1 $37 $-1 $18 #
shell $-1 $-1 $-1 $38 $-1 $20 #
shell $-1 $-1 $-1 $39 $-1 $22 #
face $-1 $40 $41 $24 $-1 $42 forward single #
face $-1 $43 $44 $25 $-1 $45 forward single #
face $-1 $46 $47 $26 $-1 $48 reversed single #
face $-1 $49 $50 $27 $-1 $51 forward single #
face $-1 $52 $53 $28 $-1 $54 forward single #
face $-1 $55 $56 $29 $-1 $57 reversed single #
face $-1 $58 $59 $30 $-1 $60 forward single #
face $-1 $61 $62 $31 $-1 $63 forward single #
face $-1 $64 $65 $24 $-1 $66 reversed single #
loop $-1 $-1 $67 $32 #
plane-surface $-1 0 0 9.488445841724376 0 0 1 1 0 0 forward_v I I I I #
face $-1 $68 $69 $25 $-1 $70 reversed single #
loop $-1 $-1 $71 $33 #
plane-surface $-1 0 -29.788439897269633 0 0 1 0 0 0 1 forward_v I I I I #
face $-1 $72 $73 $26 $-1 $74 reversed single #
loop $-1 $-1 $75 $34 #
plane-surface $-1 45.538442065672044 21.280542952987965 141.79598517569698 0 1 0 0.69465837861970381 0 0.71933979245794832 forward_v I I I I #
face $-1 $76 $77 $27 $-1 $78 forward single #
loop $-1 $79 $80 $35 #
cone-surface $-1 44.968520618040984 23.711370651354159 6.5639767572166194 -0.69465837861970381 0 -0.71933979245794832 0.71933979245794832 0 -0.69465837861970381 1 I I 0 1 1 forward I I I I #
face $-1 $81 $82 $28 $-1 $83 forward single #
loop $-1 $84 $85 $36 #
cone-surface $-1 44.968520618040984 27.357612198903446 6.5639767572166194 -0.69465837861970381 0 -0.71933979245794832 0.71933979245794832 0 -0.69465837861970381 1 I I 0 1 1 forward I I I I #
face $-1 $86 $87 $29 $-1 $88 reversed single #
loop $-1 $-1 $89 $37 #
plane-surface $-1 -100.08284103651351 -15.716855854216366 85.077665300730672 0 1 0 -0.54463904215088732 0 0.83867056331134215 forward_v I I I I #
face $-1 $90 $91 $30 $-1 $92 forward single #
loop $-1 $93 $94 $38 #
cone-surface $-1 -43.965432178665928 -13.595350612107772 6.6888228929223157 0.54463904215088732 0 -0.83867056331134215 0.41933528165567108 0 0.27231952107544366 1 I I 0 1 0.5 forward I I I I #
face $-1 $95 $96 $31 $-1 $97 forward single #
loop $-1 $98 $99 $39 #
cone-surface $-1 -43.965432178665928 -10.413092748944887 6.6888228929223157 0.54463904215088732 0 -0.83867056331134215 0.41933528165567108 0 0.27231952107544366 1 I I 0 1 0.5 forward I I I I #
face $-1 $100 $101 $24 $-1 $102 reversed single #
loop $-1 $-1 $103 $40 #
plane-surface $-1 0 0 -9.488445841724376 0 0 1 1 0 0 forward_v I I I I #
coedge $-1 $104 $105 $106 $107 forward $41 $-1 #
face $-1 $108 $109 $25 $-1 $110 forward single #
loop $-1 $-1 $111 $43 #
plane-surface $-1 -47.903073213904236 0 0 1 0 0 0 0 -1 forward_v I I I I #
coedge $-1 $112 $113 $114 $115 forward $44 $-1 #
face $-1 $116 $117 $26 $-1 $118 forward single #
loop $-1 $-1 $119 $46 #
plane-surface $-1 -21.014100273671318 25.534491425128799 72.878811688121431 0.69465837861970381 0 0.71933979245794832 0.71933979245794832 0 -0.69465837861970381 forward_v I I I I #
coedge $-1 $120 $121 $122 $123 reversed $47 $-1 #
face $-1 $-1 $124 $27 $-1 $125 forward single #
loop $-1 $126 $127 $49 #
cone-surface $-1 43.323903603697545 23.711370651354159 4.8609260229530609 -0.69465837861970381 0 -0.71933979245794832 0.35966989622897416 0 -0.3473291893098519 1 I I -0.70710678118654746 0.70710678118654746 0.5 forward I I I I #
loop $-1 $-1 $128 $35 #
coedge $-1 $80 $80 $129 $130 reversed $50 $-1 #
face $-1 $-1 $131 $28 $-1 $132 forward single #
loop $-1 $133 $134 $52 #
cone-surface $-1 43.323903603697545 27.357612198903446 4.8609260229530609 -0.69465837861970381 0 -0.71933979245794832 0.35966989622897416 0 -0.3473291893098519 1 I I -0.70710678118654746 0.70710678118654746 0.5 forward I I I I #
loop $-1 $-1 $135 $36 #
coedge $-1 $85 $85 $136 $137 reversed $53 $-1 #
face $-1 $138 $139 $29 $-1 $140 reversed single #
loop $-1 $-1 $141 $55 #
plane-surface $-1 -47.903073213904257 -12.004221680526332 4.7278705074316036 -0.54463904215088732 0 0.83867056331134215 0.83867056331134215 0 0.54463904215088732 forward_v I I I I #
coedge $-1 $142 $143 $144 $145 reversed $56 $-1 #
face $-1 $-1 $146 $30 $-1 $147 forward single #
loop $-1 $148 $149 $58 #
cone-surface $-1 -43.55695289705276 -13.595350612107772 6.0598199704388094 0.54463904215088732 0 -0.83867056331134215 0.20966764082783554 0 0.13615976053772183 1 I I -0.70710678118654746 0.70710678118654746 0.25 forward I I I I #
loop $-1 $-1 $150 $38 #
coedge $-1 $94 $94 $151 $152 reversed $59 $-1 #
face $-1 $-1 $153 $31 $-1 $154 forward single #
loop $-1 $155 $156 $61 #
cone-surface $-1 -43.55695289705276 -10.413092748944887 6.0598199704388094 0.54463904215088732 0 -0.83867056331134215 0.20966764082783554 0 0.13615976053772183 1 I I -0.70710678118654746 0.70710678118654746 0.25 forward I I I I #
loop $-1 $-1 $157 $39 #
coedge $-1 $99 $99 $158 $159 reversed $62 $-1 #
face $-1 $160 $161 $24 $-1 $162 reversed single #
loop $-1 $-1 $163 $64 #
plane-surface $-1 0 -29.788439897269633 0 0 1 0 0 0 1 forward_v I I I I #
coedge $-1 $164 $165 $166 $167 forward $65 $-1 #
coedge $-1 $168 $67 $169 $170 forward $41 $-1 #
coedge $-1 $67 $168 $171 $172 forward $41 $-1 #
coedge $-1 $173 $174 $67 $107 reversed $175 $-1 #
edge $-1 $176 -29.788439897269633 $177 29.788439897269633 $106 $178 forward 7 unknown #
face $-1 $179 $180 $25 $-1 $181 reversed single #
loop $-1 $-1 $182 $68 #
plane-surface $-1 0 -35.549797455798746 8.988445841724376 0 0 1 1 0 0 forward_v I I I I #
coedge $-1 $183 $184 $113 $185 forward $69 $-1 #
coedge $-1 $186 $71 $187 $188 reversed $44 $-1 #
coedge $-1 $71 $186 $111 $185 reversed $44 $-1 #
coedge $-1 $189 $182 $71 $115 reversed $109 $-1 #
edge $-1 $190 -47.903073213904236 $191 47.903073213904236 $114 $192 forward 7 unknown #
face $-1 $193 $194 $26 $-1 $195 reversed single #
loop $-1 $-1 $196 $72 #
plane-surface $-1 0 0 9.488445841724376 0 0 1 1 0 0 forward_v I I I I #
coedge $-1 $197 $198 $199 $200 reversed $73 $-1 #
coedge $-1 $121 $75 $201 $202 reversed $47 $-1 #
coedge $-1 $75 $120 $197 $203 reversed $47 $-1 #
coedge $-1 $199 $204 $75 $123 forward $194 $-1 #
edge $-1 $205 61.409546746124114 $206 64.571723239070423 $122 $207 forward 7 unknown #
loop $-1 $-1 $129 $76 #
plane-surface $-1 -21.014100273671318 25.534491425128799 72.878811688121431 0.69465837861970381 0 0.71933979245794832 0.71933979245794832 0 -0.69465837861970381 forward_v I I I I #
loop $-1 $-1 $208 $49 #
coedge $-1 $127 $127 $128 $209 reversed $77 $-1 #
coedge $-1 $128 $128 $127 $209 forward $79 $-1 #
coedge $-1 $129 $129 $80 $130 forward $124 $-1 #
edge $-1 $210 0 $210 6.2831853071796004 $129 $211 forward 7 unknown #
loop $-1 $-1 $136 $81 #
plane-surface $-1 -21.014100273671318 25.534491425128799 72.878811688121431 0.69465837861970381 0 0.71933979245794832 0.71933979245794832 0 -0.69465837861970381 forward_v I I I I #
loop $-1 $-1 $212 $52 #
coedge $-1 $134 $134 $135 $213 reversed $82 $-1 #
coedge $-1 $135 $135 $134 $213 forward $84 $-1 #
coedge $-1 $136 $136 $85 $137 forward $131 $-1 #
edge $-1 $214 0 $214 6.2831853071796004 $136 $215 forward 7 unknown #
face $-1 $216 $217 $29 $-1 $218 reversed single #
loop $-1 $-1 $219 $86 #
plane-surface $-1 -100.08284103651351 -8.2915875068362972 85.077665300730672 0 -1 0 0.54463904215088732 0 -0.83867056331134215 forward_v I I I I #
coedge $-1 $220 $221 $222 $223 reversed $87 $-1 #
coedge $-1 $143 $89 $224 $225 reversed $56 $-1 #
coedge $-1 $89 $142 $220 $226 reversed $56 $-1 #
coedge $-1 $222 $227 $89 $145 forward $228 $-1 #
edge $-1 $229 2.1383473043525214 $230 9.4689903326782172 $144 $231 forward 7 unknown #
loop $-1 $-1 $151 $90 #
plane-surface $-1 -47.903073213904257 -12.004221680526332 4.7278705074316036 -0.54463904215088732 0 0.83867056331134215 0.83867056331134215 0 0.54463904215088732 forward_v I I I I #
loop $-1 $-1 $232 $58 #
coedge $-1 $149 $149 $150 $233 reversed $91 $-1 #
coedge $-1 $150 $150 $149 $233 forward $93 $-1 #
coedge $-1 $151 $151 $94 $152 forward $146 $-1 #
edge $-1 $234 0 $234 6.2831853071796004 $151 $235 forward 7 unknown #
loop $-1 $-1 $158 $95 #
plane-surface $-1 -47.903073213904257 -12.004221680526332 4.7278705074316036 -0.54463904215088732 0 0.83867056331134215 0.83867056331134215 0 0.54463904215088732 forward_v I I I I #
loop $-1 $-1 $236 $61 #
coedge $-1 $156 $156 $157 $237 reversed $96 $-1 #
coedge $-1 $157 $157 $156 $237 forward $98 $-1 #
coedge $-1 $158 $158 $99 $159 forward $153 $-1 #
edge $-1 $238 0 $238 6.2831853071796004 $158 $239 forward 7 unknown #
face $-1 $240 $241 $24 $-1 $242 reversed single #
loop $-1 $-1 $243 $100 #
plane-surface $-1 -47.903073213904236 0 0 1 0 0 0 0 -1 forward_v I I I I #
coedge $-1 $244 $171 $245 $246 forward $101 $-1 #
coedge $-1 $247 $103 $244 $248 forward $65 $-1 #
coedge $-1 $103 $247 $249 $250 forward $65 $-1 #
coedge $-1 $174 $173 $103 $167 reversed $175 $-1 #
edge $-1 $251 -29.788439897269633 $252 29.788439897269633 $166 $253 forward 7 unknown #
coedge $-1 $105 $104 $254 $255 forward $41 $-1 #
coedge $-1 $256 $257 $104 $170 reversed $241 $-1 #
edge $-1 $177 -47.903073213904236 $258 47.903073213904236 $169 $259 forward 7 unknown #
coedge $-1 $163 $260 $105 $172 reversed $101 $-1 #
edge $-1 $261 -47.903073213904236 $176 47.903073213904236 $171 $262 forward 7 unknown #
coedge $-1 $166 $106 $260 $263 forward $175 $-1 #
coedge $-1 $106 $166 $256 $264 reversed $175 $-1 #
loop $-1 $-1 $173 $240 #
vertex $-1 $107 $265 #
vertex $-1 $107 $266 #
straight-curve $-1 47.903073213904236 0 9.488445841724376 0 1 0 I I #
face $-1 $267 $268 $25 $-1 $269 reversed single #
loop $-1 $-1 $270 $108 #
plane-surface $-1 0 -35.549797455798746 3.5619015323659848 0 0 1 1 0 0 forward_v I I I I #
coedge $-1 $114 $271 $272 $273 forward $109 $-1 #
coedge $-1 $274 $111 $275 $276 reversed $69 $-1 #
coedge $-1 $111 $274 $189 $277 reversed $69 $-1 #
edge $-1 $190 -8.988445841724376 $278 -3.5619015323659848 $111 $279 forward 7 unknown #
coedge $-1 $113 $112 $280 $281 forward $44 $-1 #
coedge $-1 $272 $282 $112 $188 forward $283 $-1 #
edge $-1 $284 3.5619015323659848 $191 8.988445841724376 $187 $285 forward 7 unknown #
coedge $-1 $271 $114 $184 $277 forward $109 $-1 #
vertex $-1 $185 $286 #
vertex $-1 $273 $287 #
straight-curve $-1 0 -29.788439897269633 8.988445841724376 1 0 0 I I #
face $-1 $-1 $288 $26 $-1 $289 reversed single #
loop $-1 $-1 $122 $116 #
plane-surface $-1 47.903073213904236 0 0 -1 0 0 0 0 1 forward_v I I I I #
coedge $-1 $201 $290 $291 $292 forward $117 $-1 #
coedge $-1 $291 $119 $121 $203 forward $73 $-1 #
coedge $-1 $119 $291 $293 $294 reversed $73 $-1 #
coedge $-1 $295 $122 $119 $200 forward $194 $-1 #
edge $-1 $206 8.5132972404235652 $296 17.021194184705234 $199 $297 forward 7 unknown #
coedge $-1 $298 $196 $120 $202 forward $117 $-1 #
edge $-1 $299 21.859322639408866 $205 25.133852181068214 $201 $300 forward 7 unknown #
edge $-1 $206 -95.806146427808471 $299 -91.254014631414378 $121 $301 forward 7 unknown #
coedge $-1 $122 $295 $298 $302 reversed $194 $-1 #
vertex $-1 $302 $303 #
vertex $-1 $123 $304 #
straight-curve $-1 47.903073213904236 21.280542952987965 70.897992587848492 0 0 -1 I I #
coedge $-1 $208 $208 $-1 $305 reversed $126 $-1 #
edge $-1 $306 0 $306 6.2831853071796004 $127 $307 forward 7 unknown #
vertex $-1 $130 $308 #
ellipse-curve $-1 46.265808443074576 23.711370651354159 7.9073575952512067 0.69465837861970381 0 0.71933979245794832 0.71933979245794832 0 -0.69465837861970381 1 I I #
coedge $-1 $212 $212 $-1 $309 reversed $133 $-1 #
edge $-1 $310 0 $310 6.2831853071796004 $134 $311 forward 7 unknown #
vertex $-1 $137 $312 #
ellipse-curve $-1 46.265808443074576 27.357612198903446 7.9073575952512067 0.69465837861970381 0 0.71933979245794832 0.71933979245794832 0 -0.69465837861970381 1 I I #
face $-1 $-1 $228 $29 $-1 $313 forward single #
loop $-1 $-1 $314 $138 #
plane-surface $-1 -47.903073213904236 0 0 1 0 0 0 0 -1 forward_v I I I I #
coedge $-1 $315 $316 $317 $318 reversed $139 $-1 #
coedge $-1 $319 $141 $143 $226 forward $87 $-1 #
coedge $-1 $141 $319 $315 $320 forward $87 $-1 #
coedge $-1 $317 $144 $141 $223 forward $228 $-1 #
edge $-1 $230 -9.7147450139532001 $321 -2.2894766665731314 $222 $322 forward 7 unknown #
coedge $-1 $323 $324 $142 $225 forward $217 $-1 #
edge $-1 $325 -37.810962142933718 $229 -33.050386808640958 $224 $326 forward 7 unknown #
edge $-1 $230 -8.7407897081566475 $325 -2.5617124593934202e-014 $143 $327 forward 7 unknown #
coedge $-1 $144 $317 $323 $328 forward $228 $-1 #
loop $-1 $-1 $317 $216 #
vertex $-1 $225 $329 #
vertex $-1 $145 $330 #
straight-curve $-1 -50.041420518256757 -15.716855854216366 9.4884458417243778 1 0 0 I I #
coedge $-1 $232 $232 $-1 $331 reversed $148 $-1 #
edge $-1 $332 0 $332 6.2831853071796004 $149 $333 forward 7 unknown #
vertex $-1 $152 $334 #
ellipse-curve $-1 -44.237751699741381 -13.595350612107772 7.1081581745780005 -0.54463904215088732 0 0.83867056331134215 0.41933528165567108 0 0.27231952107544366 1 I I #
coedge $-1 $236 $236 $-1 $335 reversed $155 $-1 #
edge $-1 $336 0 $336 6.2831853071796004 $156 $337 forward 7 unknown #
vertex $-1 $159 $338 #
ellipse-curve $-1 -44.237751699741381 -10.413092748944887 7.1081581745780005 -0.54463904215088732 0 0.83867056331134215 0.41933528165567108 0 0.27231952107544366 1 I I #
face $-1 $-1 $175 $24 $-1 $339 reversed single #
loop $-1 $-1 $256 $160 #
plane-surface $-1 0 29.788439897269633 0 0 -1 0 0 0 -1 forward_v I I I I #
coedge $-1 $340 $254 $257 $341 forward $161 $-1 #
coedge $-1 $260 $163 $164 $248 reversed $101 $-1 #
coedge $-1 $254 $340 $163 $246 reversed $161 $-1 #
edge $-1 $261 -9.488445841724376 $342 9.488445841724376 $245 $343 forward 7 unknown #
coedge $-1 $165 $164 $340 $344 forward $65 $-1 #
edge $-1 $252 -47.903073213904236 $342 47.903073213904236 $244 $345 forward 7 unknown #
coedge $-1 $257 $256 $165 $250 reversed $241 $-1 #
edge $-1 $346 -47.903073213904236 $251 47.903073213904236 $249 $347 forward 7 unknown #
vertex $-1 $167 $348 #
vertex $-1 $263 $349 #
straight-curve $-1 47.903073213904236 0 -9.488445841724376 0 -1 0 I I #
coedge $-1 $243 $245 $168 $255 reversed $161 $-1 #
edge $-1 $258 -29.788439897269633 $261 29.788439897269633 $254 $350 forward 7 unknown #
coedge $-1 $249 $169 $174 $264 forward $241 $-1 #
coedge $-1 $169 $249 $243 $341 reversed $241 $-1 #
vertex $-1 $170 $351 #
straight-curve $-1 0 29.788439897269633 9.488445841724376 -1 0 0 I I #
coedge $-1 $171 $244 $173 $263 reversed $101 $-1 #
vertex $-1 $255 $352 #
straight-curve $-1 0 -29.788439897269633 9.488445841724376 1 0 0 I I #
edge $-1 $176 -9.488445841724376 $252 9.488445841724376 $173 $353 forward 7 unknown #
edge $-1 $177 -9.488445841724376 $251 9.488445841724376 $174 $354 forward 7 unknown #
point $-1 47.903073213904236 -29.788439897269633 9.488445841724376 #
point $-1 47.903073213904236 29.788439897269633 9.488445841724376 #
face $-1 $-1 $283 $25 $-1 $355 reversed single #
loop $-1 $-1 $356 $179 #
plane-surface $-1 0 -41.311155014327859 6.2751736870451804 0 1 0 0 0 1 forward_v I I I I #
coedge $-1 $357 $280 $282 $358 forward $180 $-1 #
coedge $-1 $182 $189 $359 $360 forward $109 $-1 #
coedge $-1 $361 $187 $182 $273 reversed $283 $-1 #
edge $-1 $362 -5.761357558529113 $191 5.761357558529113 $272 $363 forward 7 unknown #
coedge $-1 $184 $183 $356 $364 reversed $69 $-1 #
coedge $-1 $280 $357 $183 $276 forward $180 $-1 #
edge $-1 $365 -5.761357558529113 $278 5.761357558529113 $183 $366 forward 7 unknown #
edge $-1 $190 -5.761357558529113 $367 5.761357558529113 $184 $368 forward 7 unknown #
vertex $-1 $185 $369 #
straight-curve $-1 -47.903073213904236 -29.788439897269633 0 0 0 -1 I I #
coedge $-1 $270 $275 $186 $281 reversed $180 $-1 #
edge $-1 $284 -47.903073213904236 $278 47.903073213904236 $280 $370 forward 7 unknown #
coedge $-1 $187 $361 $270 $358 reversed $283 $-1 #
loop $-1 $-1 $187 $267 #
vertex $-1 $188 $371 #
straight-curve $-1 47.903073213904236 -29.788439897269633 0 0 0 1 I I #
point $-1 -47.903073213904236 -29.788439897269633 8.988445841724376 #
point $-1 47.903073213904236 -29.788439897269633 8.988445841724376 #
loop $-1 $-1 $293 $193 #
plane-surface $-1 0 29.788439897269633 0 0 -1 0 0 0 -1 forward_v I I I I #
coedge $-1 $196 $298 $372 $373 forward $117 $-1 #
coedge $-1 $198 $197 $196 $292 reversed $73 $-1 #
edge $-1 $374 -17.021194184705234 $299 -8.5132972404235652 $196 $375 forward 7 unknown #
coedge $-1 $372 $376 $198 $294 forward $288 $-1 #
edge $-1 $296 -62.935068581531269 $374 -58.38293678513719 $293 $377 forward 7 unknown #
coedge $-1 $204 $199 $376 $378 reversed $194 $-1 #
vertex $-1 $200 $379 #
straight-curve $-1 47.903073213904236 12.767245712564399 6.3262693487780659 0 1 0 I I #
coedge $-1 $290 $201 $204 $302 forward $117 $-1 #
vertex $-1 $202 $380 #
straight-curve $-1 22.769221032836022 21.280542952987965 9.4884458417243707 1 0 0 I I #
straight-curve $-1 -21.014100273671318 21.280542952987965 72.878811688121431 -0.71933979245794832 0 0.69465837861970381 I I #
edge $-1 $205 21.280542952987965 $381 29.788439897269633 $204 $382 forward 7 unknown #
point $-1 47.903073213904236 21.280542952987965 9.488445841724376 #
point $-1 47.903073213904236 21.280542952987965 6.3262693487780695 #
edge $-1 $383 1 $383 0 $208 $-1 forward 7 unknown #
vertex $-1 $209 $384 #
ellipse-curve $-1 43.671232793007398 23.711370651354159 5.2205959191820348 0.69465837861970381 0 0.71933979245794832 0.71933979245794832 0 -0.69465837861970381 1 I I #
point $-1 46.98514823553252 23.711370651354159 7.2126992166315009 #
edge $-1 $385 1 $385 0 $212 $-1 forward 7 unknown #
vertex $-1 $213 $386 #
ellipse-curve $-1 43.671232793007398 27.357612198903446 5.2205959191820348 0.69465837861970381 0 0.71933979245794832 0.71933979245794832 0 -0.69465837861970381 1 I I #
point $-1 46.98514823553252 27.357612198903446 7.2126992166315009 #
plane-surface $-1 0 0 9.488445841724376 0 0 1 1 0 0 forward_v I I I I #
coedge $-1 $324 $323 $316 $387 forward $217 $-1 #
coedge $-1 $316 $219 $221 $320 reversed $139 $-1 #
coedge $-1 $219 $315 $314 $387 reversed $139 $-1 #
coedge $-1 $227 $222 $219 $318 forward $228 $-1 #
edge $-1 $321 -9.4689903326782172 $388 -2.1383473043525214 $317 $389 forward 7 unknown #
coedge $-1 $221 $220 $324 $390 reversed $87 $-1 #
edge $-1 $391 2.5617124593934202e-014 $321 8.7407897081566475 $315 $392 forward 7 unknown #
vertex $-1 $223 $393 #
straight-curve $-1 -40.57243018557854 -6.0021108402631658 9.488445841724376 0 1 0 I I #
coedge $-1 $314 $224 $227 $328 reversed $217 $-1 #
coedge $-1 $224 $314 $319 $390 forward $217 $-1 #
vertex $-1 $225 $394 #
straight-curve $-1 -47.903073213904236 -15.716855854216366 42.538832650365336 0 0 1 I I #
straight-curve $-1 -47.903073213904257 -15.716855854216366 4.7278705074316036 -0.83867056331134215 0 -0.54463904215088732 I I #
edge $-1 $388 8.2915875068362972 $229 15.716855854216366 $323 $395 forward 7 unknown #
point $-1 -47.903073213904236 -15.716855854216366 9.488445841724376 #
point $-1 -40.57243018557854 -15.716855854216366 9.488445841724376 #
edge $-1 $396 1 $396 0 $232 $-1 forward 7 unknown #
vertex $-1 $233 $397 #
ellipse-curve $-1 -43.693112657590483 -13.595350612107772 6.2694876112666451 -0.54463904215088732 0 0.83867056331134215 0.41933528165567108 0 0.27231952107544366 1 I I #
point $-1 -43.818416418085697 -13.595350612107772 7.3804776956534308 #
edge $-1 $398 1 $398 0 $236 $-1 forward 7 unknown #
vertex $-1 $237 $399 #
ellipse-curve $-1 -43.693112657590483 -10.413092748944887 6.2694876112666451 -0.54463904215088732 0 0.83867056331134215 0.41933528165567108 0 0.27231952107544366 1 I I #
point $-1 -43.818416418085697 -10.413092748944887 7.3804776956534308 #
plane-surface $-1 47.903073213904236 0 0 -1 0 0 0 0 1 forward_v I I I I #
coedge $-1 $245 $243 $247 $344 reversed $161 $-1 #
edge $-1 $258 -9.488445841724376 $346 9.488445841724376 $257 $400 forward 7 unknown #
vertex $-1 $344 $401 #
straight-curve $-1 -47.903073213904236 -29.788439897269633 0 0 0 -1 I I #
edge $-1 $342 -29.788439897269633 $346 29.788439897269633 $340 $402 forward 7 unknown #
straight-curve $-1 0 -29.788439897269633 -9.488445841724376 -1 0 0 I I #
vertex $-1 $250 $403 #
straight-curve $-1 0 29.788439897269633 -9.488445841724376 1 0 0 I I #
point $-1 47.903073213904236 29.788439897269633 -9.488445841724376 #
point $-1 47.903073213904236 -29.788439897269633 -9.488445841724376 #
straight-curve $-1 -47.903073213904236 0 9.488445841724376 0 -1 0 I I #
point $-1 -47.903073213904236 29.788439897269633 9.488445841724376 #
point $-1 -47.903073213904236 -29.788439897269633 9.488445841724376 #
straight-curve $-1 47.903073213904236 -29.788439897269633 0 0 0 -1 I I #
straight-curve $-1 47.903073213904236 29.788439897269633 0 0 0 -1 I I #
plane-surface $-1 47.903073213904236 0 0 -1 0 0 0 0 1 forward_v I I I I #
coedge $-1 $404 $359 $274 $364 forward $268 $-1 #
coedge $-1 $275 $270 $404 $405 forward $180 $-1 #
edge $-1 $284 -5.761357558529113 $406 5.761357558529113 $282 $407 forward 7 unknown #
coedge $-1 $356 $408 $271 $360 reversed $268 $-1 #
edge $-1 $367 -47.903073213904236 $362 47.903073213904236 $359 $409 forward 7 unknown #
coedge $-1 $282 $272 $408 $410 forward $283 $-1 #
vertex $-1 $273 $411 #
straight-curve $-1 47.903073213904236 -35.549797455798746 8.988445841724376 0 1 0 I I #
edge $-1 $367 -2.7132721546791956 $365 2.7132721546791956 $274 $412 forward 7 unknown #
vertex $-1 $276 $413 #
straight-curve $-1 -47.903073213904236 -35.549797455798746 3.5619015323659848 0 1 0 I I #
vertex $-1 $277 $414 #
straight-curve $-1 -47.903073213904236 -35.549797455798746 8.988445841724376 0 -1 0 I I #
point $-1 -47.903073213904236 -29.788439897269633 3.5619015323659848 #
straight-curve $-1 0 -29.788439897269633 3.5619015323659848 -1 0 0 I I #
point $-1 47.903073213904236 -29.788439897269633 3.5619015323659848 #
coedge $-1 $376 $293 $290 $373 reversed $288 $-1 #
edge $-1 $381 -47.903073213904236 $374 -44.628543672244888 $372 $415 forward 7 unknown #
vertex $-1 $294 $416 #
straight-curve $-1 44.628543672244888 12.767245712564399 9.4884458417243778 0 -1 0 I I #
coedge $-1 $293 $372 $295 $378 forward $288 $-1 #
straight-curve $-1 2.6313740421387841 29.788439897269633 50.04464204794445 -0.71933979245794832 0 0.69465837861970381 I I #
edge $-1 $381 -9.488445841724376 $296 -6.3262693487780695 $295 $417 forward 7 unknown #
point $-1 47.903073213904236 29.788439897269633 6.3262693487780695 #
point $-1 44.628543672244888 21.280542952987965 9.4884458417243778 #
vertex $-1 $302 $418 #
straight-curve $-1 47.903073213904236 0 9.488445841724376 0 1 0 I I #
vertex $-1 $305 $419 #
point $-1 44.390572585465343 23.711370651354159 4.5259375405623317 #
vertex $-1 $309 $420 #
point $-1 44.390572585465343 27.357612198903446 4.5259375405623317 #
edge $-1 $388 33.050386808640958 $391 37.810962142933718 $314 $421 forward 7 unknown #
vertex $-1 $328 $422 #
straight-curve $-1 -50.041420518256757 -8.2915875068362972 9.4884458417243778 -1 0 0 I I #
edge $-1 $391 2.2894766665731314 $325 9.7147450139532001 $324 $423 forward 7 unknown #
vertex $-1 $390 $424 #
straight-curve $-1 -47.903073213904257 -8.2915875068362972 4.7278705074316036 0.83867056331134215 0 0.54463904215088732 I I #
point $-1 -40.57243018557854 -8.2915875068362972 9.488445841724376 #
point $-1 -47.903073213904236 -15.716855854216366 4.7278705074316179 #
straight-curve $-1 -47.903073213904236 0 9.488445841724376 0 -1 0 I I #
vertex $-1 $331 $425 #
point $-1 -43.273777375934813 -13.595350612107772 6.5418071323420888 #
vertex $-1 $335 $426 #
point $-1 -43.273777375934813 -10.413092748944887 6.5418071323420888 #
straight-curve $-1 -47.903073213904236 29.788439897269633 0 0 0 -1 I I #
point $-1 -47.903073213904236 -29.788439897269633 -9.488445841724376 #
straight-curve $-1 -47.903073213904236 0 -9.488445841724376 0 1 0 I I #
point $-1 -47.903073213904236 29.788439897269633 -9.488445841724376 #
coedge $-1 $408 $356 $357 $405 reversed $268 $-1 #
edge $-1 $406 -47.903073213904236 $365 47.903073213904236 $404 $427 forward 7 unknown #
vertex $-1 $410 $428 #
straight-curve $-1 47.903073213904236 -35.549797455798746 3.5619015323659848 0 -1 0 I I #
coedge $-1 $359 $404 $361 $410 reversed $268 $-1 #
straight-curve $-1 0 -41.311155014327859 8.988445841724376 1 0 0 I I #
edge $-1 $362 -2.7132721546791956 $406 2.7132721546791956 $361 $429 forward 7 unknown #
point $-1 47.903073213904236 -41.311155014327859 8.988445841724376 #
straight-curve $-1 -47.903073213904236 -41.311155014327859 6.2751736870451804 0 0 -1 I I #
point $-1 -47.903073213904236 -41.311155014327859 3.5619015323659848 #
point $-1 -47.903073213904236 -41.311155014327859 8.988445841724376 #
straight-curve $-1 0 29.788439897269633 9.488445841724376 -1 0 0 I I #
point $-1 44.628543672244888 29.788439897269633 9.4884458417243778 #
straight-curve $-1 47.903073213904236 29.788439897269633 0 0 0 -1 I I #
point $-1 47.903073213904236 29.788439897269633 9.488445841724376 #
point $-1 42.976574414387692 23.711370651354159 4.5012561267240869 #
point $-1 42.976574414387692 27.357612198903446 4.5012561267240869 #
straight-curve $-1 -47.903073213904236 -8.2915875068362972 42.538832650365336 0 0 -1 I I #
point $-1 -47.903073213904236 -8.2915875068362972 9.488445841724376 #
straight-curve $-1 -47.903073213904236 -6.0021108402631658 4.7278705074316187 0 -1 0 I I #
point $-1 -47.903073213904236 -8.2915875068362972 4.7278705074316179 #
point $-1 -43.420793136515037 -13.595350612107772 5.8501523296109736 #
point $-1 -43.420793136515037 -10.413092748944887 5.8501523296109736 #
straight-curve $-1 0 -41.311155014327859 3.5619015323659848 -1 0 0 I I #
point $-1 47.903073213904236 -41.311155014327859 3.5619015323659848 #
straight-curve $-1 47.903073213904236 -41.311155014327859 6.2751736870451804 0 0 -1 I I #
End-of-ACIS-data 