500 0 15 0           
7 Unknown 11 ACIS 5.0 NT 24 Fri Mar 26 17:21:45 1999 
-1 9.9999999999999995e-007 1e-010 
body $-1 $15 $-1 $16 #
body $-1 $17 $-1 $18 #
body $-1 $19 $-1 $20 #
body $-1 $21 $-1 $22 #
body $-1 $23 $-1 $24 #
body $-1 $25 $-1 $26 #
body $-1 $27 $-1 $28 #
body $-1 $29 $-1 $30 #
body $-1 $31 $-1 $32 #
body $-1 $33 $-1 $34 #
body $-1 $35 $-1 $36 #
body $-1 $37 $-1 $38 #
body $-1 $39 $-1 $40 #
body $-1 $41 $-1 $42 #
body $-1 $43 $-1 $44 #
lump $-1 $-1 $45 $0 #
transform $-1 1 0 0 0 1 0 0 0 1 63.605456709494305 42.974204654341584 12.821702229750654 1 rotate no_reflect no_shear #
lump $-1 $-1 $46 $1 #
transform $-1 1 0 0 0 1 0 0 0 1 63.605456709494305 42.974204654341584 12.821702229750654 1 rotate no_reflect no_shear #
lump $-1 $-1 $47 $2 #
transform $-1 1 0 0 0 1 0 0 0 1 63.605456709494305 42.974204654341584 12.821702229750654 1 rotate no_reflect no_shear #
lump $-1 $-1 $48 $3 #
transform $-1 1 0 0 0 1 0 0 0 1 63.605456709494305 42.974204654341584 12.821702229750654 1 rotate no_reflect no_shear #
lump $-1 $-1 $49 $4 #
transform $-1 1 0 0 0 1 0 0 0 1 63.605456709494305 42.974204654341584 12.821702229750654 1 rotate no_reflect no_shear #
lump $-1 $-1 $50 $5 #
transform $-1 1 0 0 0 1 0 0 0 1 63.605456709494305 42.974204654341584 12.821702229750654 1 rotate no_reflect no_shear #
lump $-1 $-1 $51 $6 #
transform $-1 1 0 0 0 1 0 0 0 1 63.605456709494305 42.974204654341584 12.821702229750654 1 rotate no_reflect no_shear #
lump $-1 $-1 $52 $7 #
transform $-1 1 0 0 0 1 0 0 0 1 63.605456709494305 42.974204654341584 12.821702229750654 1 rotate no_reflect no_shear #
lump $-1 $-1 $53 $8 #
transform $-1 1 0 0 0 1 0 0 0 1 63.605456709494305 42.974204654341584 12.821702229750654 1 rotate no_reflect no_shear #
lump $-1 $-1 $54 $9 #
transform $-1 1 0 0 0 1 0 0 0 1 63.605456709494305 42.974204654341584 12.821702229750654 1 rotate no_reflect no_shear #
lump $-1 $-1 $55 $10 #
transform $-1 1 0 0 0 1 0 0 0 1 63.605456709494305 42.974204654341584 12.821702229750654 1 rotate no_reflect no_shear #
lump $-1 $-1 $56 $11 #
transform $-1 1 0 0 0 1 0 0 0 1 63.605456709494305 42.974204654341584 12.821702229750654 1 rotate no_reflect no_shear #
lump $-1 $-1 $57 $12 #
transform $-1 1 0 0 0 1 0 0 0 1 63.605456709494305 42.974204654341584 12.821702229750654 1 rotate no_reflect no_shear #
lump $-1 $-1 $58 $13 #
transform $-1 1 0 0 0 1 0 0 0 1 63.605456709494305 42.974204654341584 12.821702229750654 1 rotate no_reflect no_shear #
lump $-1 $-1 $59 $14 #
transform $-1 1 0 0 0 1 0 0 0 1 63.605456709494305 42.974204654341584 12.821702229750654 1 rotate no_reflect no_shear #
shell $-1 $-1 $-1 $60 $-1 $15 #
shell $-1 $-1 $-1 $61 $-1 $17 #
shell $-1 $-1 $-1 $62 $-1 $19 #
shell $-1 $-1 $-1 $63 $-1 $21 #
shell $-1 $-1 $-1 $64 $-1 $23 #
shell $-1 $-1 $-1 $65 $-1 $25 #
shell $-1 $-1 $-1 $66 $-1 $27 #
shell $-1 $-1 $-1 $67 $-1 $29 #
shell $-1 $-1 $-1 $68 $-1 $31 #
shell $-1 $-1 $-1 $69 $-1 $33 #
shell $-1 $-1 $-1 $70 $-1 $35 #
shell $-1 $-1 $-1 $71 $-1 $37 #
shell $-1 $-1 $-1 $72 $-1 $39 #
shell $-1 $-1 $-1 $73 $-1 $41 #
shell $-1 $-1 $-1 $74 $-1 $43 #
face $-1 $75 $76 $45 $-1 $77 reversed single #
face $-1 $78 $79 $46 $-1 $80 forward single #
face $-1 $81 $82 $47 $-1 $83 forward single #
face $-1 $84 $85 $48 $-1 $86 reversed single #
face $-1 $87 $88 $49 $-1 $89 forward single #
face $-1 $90 $91 $50 $-1 $92 forward single #
face $-1 $93 $94 $51 $-1 $95 reversed single #
face $-1 $96 $97 $52 $-1 $98 forward single #
face $-1 $99 $100 $53 $-1 $101 forward single #
face $-1 $102 $103 $54 $-1 $104 reversed single #
face $-1 $105 $106 $55 $-1 $107 forward single #
face $-1 $108 $109 $56 $-1 $110 forward single #
face $-1 $111 $112 $57 $-1 $113 reversed single #
face $-1 $114 $115 $58 $-1 $116 forward single #
face $-1 $117 $118 $59 $-1 $119 forward single #
face $-1 $120 $121 $45 $-1 $122 forward single #
loop $-1 $-1 $123 $60 #
plane-surface $-1 63.605456709494305 0 0 -1 0 0 0 0 1 forward_v I I I I #
face $-1 $124 $125 $46 $-1 $126 reversed single #
loop $-1 $-1 $127 $61 #
plane-surface $-1 -63.605456709494305 0 0 1 0 0 0 0 -1 forward_v I I I I #
face $-1 $128 $129 $47 $-1 $130 reversed single #
loop $-1 $-1 $131 $62 #
plane-surface $-1 63.605456709494305 0 0 -1 0 0 0 0 1 forward_v I I I I #
face $-1 $132 $133 $48 $-1 $134 reversed single #
loop $-1 $-1 $135 $63 #
plane-surface $-1 -14.508867519343358 48.213181146649156 154.46761531673496 1 0 0 0 -0.5877852598018023 -0.80901698891910034 forward_v I I I I #
face $-1 $136 $137 $49 $-1 $138 forward single #
loop $-1 $139 $140 $64 #
cone-surface $-1 -10.363476799530972 33.879656954488993 5.5763701623005222 0 -0.5877852598018023 -0.80901698891910034 1 0 0 1 I I 0 1 1 forward I I I I #
face $-1 $141 $142 $50 $-1 $143 forward single #
loop $-1 $144 $145 $65 #
cone-surface $-1 -4.1453907198123972 33.879656954488993 5.5763701623005222 0 -0.5877852598018023 -0.80901698891910034 1 0 0 1 I I 0 1 1 forward I I I I #
face $-1 $146 $147 $51 $-1 $148 reversed single #
loop $-1 $-1 $149 $66 #
plane-surface $-1 39.666058354546848 48.213181146649156 154.46761531673496 1 0 0 0 -0.5877852598018023 -0.80901698891910034 forward_v I I I I #
face $-1 $150 $151 $52 $-1 $152 forward single #
loop $-1 $153 $154 $67 #
cone-surface $-1 43.811449074359231 33.879656954488993 5.5763701623005222 0 -0.5877852598018023 -0.80901698891910034 1 0 0 1 I I 0 1 1 forward I I I I #
face $-1 $155 $156 $53 $-1 $157 forward single #
loop $-1 $158 $159 $68 #
cone-surface $-1 50.029535154077806 33.879656954488993 5.5763701623005222 0 -0.5877852598018023 -0.80901698891910034 1 0 0 1 I I 0 1 1 forward I I I I #
face $-1 $160 $161 $54 $-1 $162 reversed single #
loop $-1 $-1 $163 $69 #
plane-surface $-1 -21.013721246174445 -153.14208829778926 70.320313654161822 -1 0 0 0 -0.86602541151947299 0.49999998660252726 forward_v I I I I #
face $-1 $164 $165 $55 $-1 $166 forward single #
loop $-1 $167 $168 $70 #
cone-surface $-1 -30.567298622411194 -39.106573325185884 8.5531097208613733 0 0.86602541151947299 -0.49999998660252726 1.5 0 0 1 I I 0 1 1.5 forward I I I I #
face $-1 $169 $170 $56 $-1 $171 forward single #
loop $-1 $172 $173 $71 #
cone-surface $-1 -24.835152196669142 -39.106573325185884 8.5531097208613733 0 0.86602541151947299 -0.49999998660252726 1.5 0 0 1 I I 0 1 1.5 forward I I I I #
face $-1 $174 $175 $57 $-1 $176 reversed single #
loop $-1 $-1 $177 $72 #
plane-surface $-1 34.388729572905888 -153.14208829778926 70.320313654161822 -1 0 0 0 -0.86602541151947299 0.49999998660252726 forward_v I I I I #
face $-1 $178 $179 $58 $-1 $180 forward single #
loop $-1 $181 $182 $73 #
cone-surface $-1 24.835152196669128 -39.106573325185884 8.5531097208613733 0 0.86602541151947299 -0.49999998660252726 1.5 0 0 1 I I 0 1 1.5 forward I I I I #
face $-1 $183 $184 $59 $-1 $185 forward single #
loop $-1 $186 $187 $74 #
cone-surface $-1 30.567298622411172 -39.106573325185884 8.5531097208613733 0 0.86602541151947299 -0.49999998660252726 1.5 0 0 1 I I 0 1 1.5 forward I I I I #
face $-1 $188 $189 $45 $-1 $190 reversed single #
loop $-1 $-1 $191 $75 #
plane-surface $-1 0 0 12.821702229750654 0 0 1 1 0 0 forward_v I I I I #
coedge $-1 $192 $193 $194 $195 reversed $76 $-1 #
face $-1 $196 $197 $46 $-1 $198 forward single #
loop $-1 $-1 $199 $78 #
plane-surface $-1 0 42.974204654341584 0 0 -1 0 0 0 -1 forward_v I I I I #
coedge $-1 $200 $201 $202 $203 forward $79 $-1 #
face $-1 $204 $205 $47 $-1 $206 forward single #
loop $-1 $-1 $207 $81 #
plane-surface $-1 0 -42.974204654341584 0 0 1 0 0 0 1 forward_v I I I I #
coedge $-1 $208 $209 $210 $211 forward $82 $-1 #
face $-1 $212 $213 $48 $-1 $214 reversed single #
loop $-1 $-1 $215 $84 #
plane-surface $-1 -7.2544337596716844 -26.559518646955645 51.551825184856412 0 0.5877852598018023 0.80901698891910034 1 0 0 forward_v I I I I #
coedge $-1 $216 $217 $218 $219 reversed $85 $-1 #
face $-1 $-1 $220 $49 $-1 $221 forward single #
loop $-1 $222 $223 $87 #
cone-surface $-1 -10.363476799530972 32.60435828913301 3.8210721703659534 0 -0.5877852598018023 -0.80901698891910034 0.5 0 0 1 I I -0.70710678118654746 0.70710678118654746 0.5 forward I I I I #
loop $-1 $-1 $224 $64 #
coedge $-1 $140 $140 $225 $226 reversed $88 $-1 #
face $-1 $-1 $227 $50 $-1 $228 forward single #
loop $-1 $229 $230 $90 #
cone-surface $-1 -4.1453907198123972 32.60435828913301 3.8210721703659534 0 -0.5877852598018023 -0.80901698891910034 0.5 0 0 1 I I -0.70710678118654746 0.70710678118654746 0.5 forward I I I I #
loop $-1 $-1 $231 $65 #
coedge $-1 $145 $145 $232 $233 reversed $91 $-1 #
face $-1 $234 $235 $51 $-1 $236 reversed single #
loop $-1 $-1 $237 $93 #
plane-surface $-1 46.920492114218519 -26.559518646955645 51.551825184856412 0 0.5877852598018023 0.80901698891910034 1 0 0 forward_v I I I I #
coedge $-1 $238 $239 $240 $241 reversed $94 $-1 #
face $-1 $-1 $242 $52 $-1 $243 forward single #
loop $-1 $244 $245 $96 #
cone-surface $-1 43.811449074359231 32.60435828913301 3.8210721703659534 0 -0.5877852598018023 -0.80901698891910034 0.5 0 0 1 I I -0.70710678118654746 0.70710678118654746 0.5 forward I I I I #
loop $-1 $-1 $246 $67 #
coedge $-1 $154 $154 $247 $248 reversed $97 $-1 #
face $-1 $-1 $249 $53 $-1 $250 forward single #
loop $-1 $251 $252 $99 #
cone-surface $-1 50.029535154077806 32.60435828913301 3.8210721703659534 0 -0.5877852598018023 -0.80901698891910034 0.5 0 0 1 I I -0.70710678118654746 0.70710678118654746 0.5 forward I I I I #
loop $-1 $-1 $253 $68 #
coedge $-1 $159 $159 $254 $255 reversed $100 $-1 #
face $-1 $256 $257 $54 $-1 $258 reversed single #
loop $-1 $-1 $259 $102 #
plane-surface $-1 -27.701225409540172 -42.974204654341591 6.7148586489722604 0 -0.86602541151947299 0.49999998660252726 1 0 0 forward_v I I I I #
coedge $-1 $260 $261 $262 $263 reversed $103 $-1 #
face $-1 $-1 $264 $55 $-1 $265 forward single #
loop $-1 $266 $267 $105 #
cone-surface $-1 -30.567298622411194 -36.352316767039056 6.9629390124093948 0 0.86602541151947299 -0.49999998660252726 0.75 0 0 1 I I -0.70710678118654757 0.70710678118654757 0.75 forward I I I I #
loop $-1 $-1 $268 $70 #
coedge $-1 $168 $168 $269 $270 reversed $106 $-1 #
face $-1 $-1 $271 $56 $-1 $272 forward single #
loop $-1 $273 $274 $108 #
cone-surface $-1 -24.835152196669142 -36.352316767039056 6.9629390124093948 0 0.86602541151947299 -0.49999998660252726 0.75 0 0 1 I I -0.70710678118654757 0.70710678118654757 0.75 forward I I I I #
loop $-1 $-1 $275 $71 #
coedge $-1 $173 $173 $276 $277 reversed $109 $-1 #
face $-1 $278 $279 $57 $-1 $280 reversed single #
loop $-1 $-1 $281 $111 #
plane-surface $-1 27.701225409540157 -42.974204654341591 6.7148586489722604 0 -0.86602541151947299 0.49999998660252726 1 0 0 forward_v I I I I #
coedge $-1 $282 $283 $284 $285 reversed $112 $-1 #
face $-1 $-1 $286 $58 $-1 $287 forward single #
loop $-1 $288 $289 $114 #
cone-surface $-1 24.835152196669128 -36.352316767039056 6.9629390124093948 0 0.86602541151947299 -0.49999998660252726 0.75 0 0 1 I I -0.70710678118654757 0.70710678118654757 0.75 forward I I I I #
loop $-1 $-1 $290 $73 #
coedge $-1 $182 $182 $291 $292 reversed $115 $-1 #
face $-1 $-1 $293 $59 $-1 $294 forward single #
loop $-1 $295 $296 $117 #
cone-surface $-1 30.567298622411172 -36.352316767039056 6.9629390124093948 0 0.86602541151947299 -0.49999998660252726 0.75 0 0 1 I I -0.70710678118654757 0.70710678118654757 0.75 forward I I I I #
loop $-1 $-1 $297 $74 #
coedge $-1 $187 $187 $298 $299 reversed $118 $-1 #
face $-1 $300 $301 $45 $-1 $302 reversed single #
loop $-1 $-1 $303 $120 #
plane-surface $-1 0 0 -12.821702229750654 0 0 1 1 0 0 forward_v I I I I #
coedge $-1 $304 $305 $192 $306 forward $121 $-1 #
coedge $-1 $307 $123 $191 $306 reversed $76 $-1 #
coedge $-1 $123 $307 $303 $308 reversed $76 $-1 #
coedge $-1 $309 $310 $123 $195 forward $311 $-1 #
edge $-1 $312 -12.821702229750654 $313 12.821702229750654 $123 $314 forward 7 unknown #
face $-1 $315 $316 $46 $-1 $317 reversed single #
loop $-1 $-1 $202 $124 #
plane-surface $-1 -68.320722127296349 0 10.97534189706094 0 0 1 1 0 0 forward_v I I I I #
coedge $-1 $318 $319 $201 $320 forward $125 $-1 #
coedge $-1 $321 $127 $322 $323 reversed $79 $-1 #
coedge $-1 $127 $321 $199 $320 reversed $79 $-1 #
coedge $-1 $324 $325 $127 $203 reversed $197 $-1 #
edge $-1 $326 -42.974204654341584 $327 42.974204654341584 $202 $328 forward 7 unknown #
face $-1 $329 $330 $47 $-1 $331 reversed single #
loop $-1 $-1 $332 $128 #
plane-surface $-1 68.320722127296349 0 10.97534189706094 0 0 1 1 0 0 forward_v I I I I #
coedge $-1 $333 $334 $209 $335 forward $129 $-1 #
coedge $-1 $336 $131 $337 $338 reversed $82 $-1 #
coedge $-1 $131 $336 $207 $335 reversed $82 $-1 #
coedge $-1 $339 $340 $131 $211 reversed $205 $-1 #
edge $-1 $341 -42.974204654341584 $342 42.974204654341584 $210 $343 forward 7 unknown #
face $-1 $344 $345 $48 $-1 $346 reversed single #
loop $-1 $-1 $347 $132 #
plane-surface $-1 -1.0658141036401503e-014 48.213181146649156 154.46761531673496 -1 0 0 0 0.5877852598018023 0.80901698891910034 forward_v I I I I #
coedge $-1 $348 $349 $350 $351 reversed $133 $-1 #
coedge $-1 $217 $135 $352 $353 reversed $85 $-1 #
coedge $-1 $135 $216 $348 $354 reversed $85 $-1 #
coedge $-1 $350 $355 $135 $219 forward $356 $-1 #
edge $-1 $357 -18.867614081017006 $358 -2.6413307522219718 $218 $359 forward 7 unknown #
loop $-1 $-1 $225 $136 #
plane-surface $-1 -7.2544337596716844 -26.559518646955645 51.551825184856412 0 0.5877852598018023 0.80901698891910034 1 0 0 forward_v I I I I #
loop $-1 $-1 $360 $87 #
coedge $-1 $223 $223 $224 $361 reversed $137 $-1 #
coedge $-1 $224 $224 $223 $361 forward $139 $-1 #
coedge $-1 $225 $225 $140 $226 forward $220 $-1 #
edge $-1 $362 1.0441163663475846e-015 $362 6.2831853071796013 $225 $363 forward 7 unknown #
loop $-1 $-1 $232 $141 #
plane-surface $-1 -7.2544337596716844 -26.559518646955645 51.551825184856412 0 0.5877852598018023 0.80901698891910034 1 0 0 forward_v I I I I #
loop $-1 $-1 $364 $90 #
coedge $-1 $230 $230 $231 $365 reversed $142 $-1 #
coedge $-1 $231 $231 $230 $365 forward $144 $-1 #
coedge $-1 $232 $232 $145 $233 forward $227 $-1 #
edge $-1 $366 1.0441163663475846e-015 $366 6.2831853071796013 $232 $367 forward 7 unknown #
face $-1 $368 $369 $51 $-1 $370 forward single #
loop $-1 $-1 $371 $146 #
plane-surface $-1 54.174925873890189 48.213181146649156 154.46761531673496 -1 0 0 0 0.5877852598018023 0.80901698891910034 forward_v I I I I #
coedge $-1 $372 $373 $374 $375 reversed $147 $-1 #
coedge $-1 $239 $149 $376 $377 reversed $94 $-1 #
coedge $-1 $149 $238 $372 $378 reversed $94 $-1 #
coedge $-1 $374 $379 $149 $241 forward $369 $-1 #
edge $-1 $380 -18.867614081017006 $381 -2.6413307522219718 $240 $382 forward 7 unknown #
loop $-1 $-1 $247 $150 #
plane-surface $-1 46.920492114218519 -26.559518646955645 51.551825184856412 0 0.5877852598018023 0.80901698891910034 1 0 0 forward_v I I I I #
loop $-1 $-1 $383 $96 #
coedge $-1 $245 $245 $246 $384 reversed $151 $-1 #
coedge $-1 $246 $246 $245 $384 forward $153 $-1 #
coedge $-1 $247 $247 $154 $248 forward $242 $-1 #
edge $-1 $385 1.0441163663475846e-015 $385 6.2831853071796013 $247 $386 forward 7 unknown #
loop $-1 $-1 $254 $155 #
plane-surface $-1 46.920492114218519 -26.559518646955645 51.551825184856412 0 0.5877852598018023 0.80901698891910034 1 0 0 forward_v I I I I #
loop $-1 $-1 $387 $99 #
coedge $-1 $252 $252 $253 $388 reversed $156 $-1 #
coedge $-1 $253 $253 $252 $388 forward $158 $-1 #
coedge $-1 $254 $254 $159 $255 forward $249 $-1 #
edge $-1 $389 1.0441163663475846e-015 $389 6.2831853071796013 $254 $390 forward 7 unknown #
face $-1 $391 $392 $54 $-1 $393 forward single #
loop $-1 $-1 $394 $160 #
plane-surface $-1 -34.388729572905902 -153.14208829778926 70.320313654161822 1 0 0 0 0.86602541151947299 -0.49999998660252726 forward_v I I I I #
coedge $-1 $395 $396 $397 $398 reversed $161 $-1 #
coedge $-1 $261 $163 $399 $400 reversed $103 $-1 #
coedge $-1 $163 $260 $395 $401 reversed $103 $-1 #
coedge $-1 $397 $402 $163 $263 forward $392 $-1 #
edge $-1 $403 33.596839494553045 $404 37.122627153849997 $262 $405 forward 7 unknown #
loop $-1 $-1 $269 $164 #
plane-surface $-1 -27.701225409540172 -42.974204654341591 6.7148586489722604 0 -0.86602541151947299 0.49999998660252726 1 0 0 forward_v I I I I #
loop $-1 $-1 $406 $105 #
coedge $-1 $267 $267 $268 $407 reversed $165 $-1 #
coedge $-1 $268 $268 $267 $407 forward $167 $-1 #
coedge $-1 $269 $269 $168 $270 forward $264 $-1 #
edge $-1 $408 2.3684757224038211e-015 $408 6.2831853071796031 $269 $409 forward 7 unknown #
loop $-1 $-1 $276 $169 #
plane-surface $-1 -27.701225409540172 -42.974204654341591 6.7148586489722604 0 -0.86602541151947299 0.49999998660252726 1 0 0 forward_v I I I I #
loop $-1 $-1 $410 $108 #
coedge $-1 $274 $274 $275 $411 reversed $170 $-1 #
coedge $-1 $275 $275 $274 $411 forward $172 $-1 #
coedge $-1 $276 $276 $173 $277 forward $271 $-1 #
edge $-1 $412 2.3684757224038211e-015 $412 6.2831853071796031 $276 $413 forward 7 unknown #
face $-1 $414 $415 $57 $-1 $416 reversed single #
loop $-1 $-1 $417 $174 #
plane-surface $-1 21.01372124617443 -153.14208829778926 70.320313654161822 1 0 0 0 0.86602541151947299 -0.49999998660252726 forward_v I I I I #
coedge $-1 $418 $419 $420 $421 reversed $175 $-1 #
coedge $-1 $283 $177 $422 $423 reversed $112 $-1 #
coedge $-1 $177 $282 $418 $424 reversed $112 $-1 #
coedge $-1 $420 $425 $177 $285 forward $426 $-1 #
edge $-1 $427 33.596839494553045 $428 37.122627153849997 $284 $429 forward 7 unknown #
loop $-1 $-1 $291 $178 #
plane-surface $-1 27.701225409540157 -42.974204654341591 6.7148586489722604 0 -0.86602541151947299 0.49999998660252726 1 0 0 forward_v I I I I #
loop $-1 $-1 $430 $114 #
coedge $-1 $289 $289 $290 $431 reversed $179 $-1 #
coedge $-1 $290 $290 $289 $431 forward $181 $-1 #
coedge $-1 $291 $291 $182 $292 forward $286 $-1 #
edge $-1 $432 2.3684757224038211e-015 $432 6.2831853071796031 $291 $433 forward 7 unknown #
loop $-1 $-1 $298 $183 #
plane-surface $-1 27.701225409540157 -42.974204654341591 6.7148586489722604 0 -0.86602541151947299 0.49999998660252726 1 0 0 forward_v I I I I #
loop $-1 $-1 $434 $117 #
coedge $-1 $296 $296 $297 $435 reversed $184 $-1 #
coedge $-1 $297 $297 $296 $435 forward $186 $-1 #
coedge $-1 $298 $298 $187 $299 forward $293 $-1 #
edge $-1 $436 2.3684757224038211e-015 $436 6.2831853071796031 $298 $437 forward 7 unknown #
face $-1 $438 $439 $45 $-1 $440 reversed single #
loop $-1 $-1 $441 $188 #
plane-surface $-1 0 -42.974204654341584 0 0 1 0 0 0 1 forward_v I I I I #
coedge $-1 $442 $443 $193 $308 forward $189 $-1 #
coedge $-1 $444 $191 $310 $445 forward $121 $-1 #
coedge $-1 $191 $444 $446 $447 forward $121 $-1 #
edge $-1 $448 -42.974204654341584 $312 42.974204654341584 $192 $449 forward 7 unknown #
coedge $-1 $193 $192 $450 $451 forward $76 $-1 #
edge $-1 $313 -42.974204654341584 $452 42.974204654341584 $193 $453 forward 7 unknown #
coedge $-1 $454 $194 $443 $455 reversed $311 $-1 #
coedge $-1 $194 $454 $304 $445 reversed $311 $-1 #
loop $-1 $-1 $194 $438 #
vertex $-1 $306 $456 #
vertex $-1 $308 $457 #
straight-curve $-1 63.605456709494305 42.974204654341584 0 0 0 -1 I I #
face $-1 $458 $459 $46 $-1 $460 reversed single #
loop $-1 $-1 $461 $196 #
plane-surface $-1 -68.320722127296349 0 7.3078506308918989 0 0 1 1 0 0 forward_v I I I I #
coedge $-1 $462 $199 $463 $464 reversed $125 $-1 #
coedge $-1 $199 $462 $324 $465 reversed $125 $-1 #
edge $-1 $326 -10.97534189706094 $466 -7.3078506308918989 $199 $467 forward 7 unknown #
coedge $-1 $201 $200 $461 $468 forward $79 $-1 #
coedge $-1 $469 $470 $200 $323 forward $471 $-1 #
edge $-1 $472 7.3078506308918989 $327 10.97534189706094 $322 $473 forward 7 unknown #
coedge $-1 $474 $202 $319 $465 forward $197 $-1 #
coedge $-1 $202 $474 $469 $475 forward $197 $-1 #
vertex $-1 $320 $476 #
vertex $-1 $475 $477 #
straight-curve $-1 -63.605456709494305 0 10.97534189706094 0 -1 0 I I #
face $-1 $478 $479 $47 $-1 $480 reversed single #
loop $-1 $-1 $481 $204 #
plane-surface $-1 68.320722127296349 0 7.3078506308918989 0 0 1 1 0 0 forward_v I I I I #
coedge $-1 $340 $339 $482 $483 forward $205 $-1 #
coedge $-1 $484 $207 $485 $486 reversed $129 $-1 #
coedge $-1 $207 $484 $339 $487 reversed $129 $-1 #
edge $-1 $341 -10.97534189706094 $488 -7.3078506308918989 $207 $489 forward 7 unknown #
coedge $-1 $209 $208 $490 $491 forward $82 $-1 #
coedge $-1 $492 $493 $208 $338 forward $494 $-1 #
edge $-1 $495 7.3078506308918989 $342 10.97534189706094 $337 $496 forward 7 unknown #
coedge $-1 $332 $210 $334 $487 forward $205 $-1 #
coedge $-1 $210 $332 $492 $497 forward $205 $-1 #
vertex $-1 $335 $498 #
vertex $-1 $497 $499 #
straight-curve $-1 63.605456709494305 0 10.97534189706094 0 1 0 I I #
face $-1 $-1 $356 $48 $-1 $500 forward single #
loop $-1 $-1 $501 $212 #
plane-surface $-1 0 42.974204654341584 0 0 -1 0 0 0 -1 forward_v I I I I #
coedge $-1 $502 $503 $504 $505 reversed $213 $-1 #
coedge $-1 $506 $215 $217 $354 forward $133 $-1 #
coedge $-1 $215 $506 $502 $507 forward $133 $-1 #
coedge $-1 $504 $218 $215 $351 forward $356 $-1 #
edge $-1 $358 -10.881650639507516 $508 3.6272168798358315 $350 $509 forward 7 unknown #
coedge $-1 $510 $511 $216 $353 forward $345 $-1 #
edge $-1 $512 -76.201190568567057 $357 -64.412105428616826 $352 $513 forward 7 unknown #
edge $-1 $358 65.891619956862002 $512 85.948409308683154 $217 $514 forward 7 unknown #
coedge $-1 $218 $504 $510 $515 forward $356 $-1 #
loop $-1 $-1 $504 $344 #
vertex $-1 $353 $516 #
vertex $-1 $219 $517 #
straight-curve $-1 -14.508867519343358 24.106590573324578 12.821702229750656 0 -1 0 I I #
coedge $-1 $360 $360 $-1 $518 reversed $222 $-1 #
edge $-1 $519 0 $519 6.2831853071796004 $223 $520 forward 7 unknown #
vertex $-1 $226 $521 #
ellipse-curve $-1 -10.363476799530972 34.861062989944074 6.927159659775544 0 0.5877852598018023 0.80901698891910034 1 0 0 1 I I #
coedge $-1 $364 $364 $-1 $522 reversed $229 $-1 #
edge $-1 $523 0 $523 6.2831853071796004 $230 $524 forward 7 unknown #
vertex $-1 $233 $525 #
ellipse-curve $-1 -4.1453907198123972 34.861062989944074 6.927159659775544 0 0.5877852598018023 0.80901698891910034 1 0 0 1 I I #
face $-1 $-1 $526 $51 $-1 $527 reversed single #
loop $-1 $-1 $240 $234 #
plane-surface $-1 0 0 12.821702229750654 0 0 1 1 0 0 forward_v I I I I #
coedge $-1 $528 $529 $530 $531 reversed $235 $-1 #
coedge $-1 $532 $237 $239 $378 forward $147 $-1 #
coedge $-1 $237 $532 $528 $533 forward $147 $-1 #
coedge $-1 $530 $240 $237 $375 forward $369 $-1 #
edge $-1 $381 16.205812297437589 $534 30.714679816780929 $374 $535 forward 7 unknown #
coedge $-1 $536 $537 $238 $377 forward $526 $-1 #
edge $-1 $538 -76.201190568567057 $380 -64.412105428616826 $376 $539 forward 7 unknown #
edge $-1 $381 65.891619956862002 $538 85.948409308683154 $239 $540 forward 7 unknown #
coedge $-1 $240 $530 $536 $541 forward $369 $-1 #
vertex $-1 $241 $542 #
vertex $-1 $241 $543 #
straight-curve $-1 39.666058354546848 24.106590573324578 12.821702229750656 0 -1 0 I I #
coedge $-1 $383 $383 $-1 $544 reversed $244 $-1 #
edge $-1 $545 0 $545 6.2831853071796004 $245 $546 forward 7 unknown #
vertex $-1 $248 $547 #
ellipse-curve $-1 43.811449074359231 34.861062989944074 6.927159659775544 0 0.5877852598018023 0.80901698891910034 1 0 0 1 I I #
coedge $-1 $387 $387 $-1 $548 reversed $251 $-1 #
edge $-1 $549 0 $549 6.2831853071796004 $252 $550 forward 7 unknown #
vertex $-1 $255 $551 #
ellipse-curve $-1 50.029535154077806 34.861062989944074 6.927159659775544 0 0.5877852598018023 0.80901698891910034 1 0 0 1 I I #
face $-1 $-1 $552 $54 $-1 $553 reversed single #
loop $-1 $-1 $262 $256 #
plane-surface $-1 0 0 12.821702229750654 0 0 1 1 0 0 forward_v I I I I #
coedge $-1 $554 $555 $556 $557 reversed $257 $-1 #
coedge $-1 $558 $259 $261 $401 forward $161 $-1 #
coedge $-1 $259 $558 $554 $559 forward $161 $-1 #
coedge $-1 $556 $262 $259 $398 forward $392 $-1 #
edge $-1 $404 7.1631085414043589 $560 20.538116868135816 $397 $561 forward 7 unknown #
coedge $-1 $562 $563 $260 $400 forward $552 $-1 #
edge $-1 $564 -28.445298178108636 $403 -22.338454597330255 $399 $565 forward 7 unknown #
edge $-1 $404 -7.0515755075404964 $564 -1.4321304723534956e-014 $261 $566 forward 7 unknown #
coedge $-1 $262 $556 $562 $567 forward $392 $-1 #
vertex $-1 $400 $568 #
vertex $-1 $263 $569 #
straight-curve $-1 -21.013721246174445 -76.571044148894629 12.821702229750656 0 1 0 I I #
coedge $-1 $406 $406 $-1 $570 reversed $266 $-1 #
edge $-1 $571 0 $571 6.2831853071796004 $267 $572 forward 7 unknown #
vertex $-1 $270 $573 #
ellipse-curve $-1 -30.567298622411194 -41.211310824693115 9.7682804393614582 0 -0.86602541151947299 0.49999998660252726 1.5 0 0 1 I I #
coedge $-1 $410 $410 $-1 $574 reversed $273 $-1 #
edge $-1 $575 0 $575 6.2831853071796004 $274 $576 forward 7 unknown #
vertex $-1 $277 $577 #
ellipse-curve $-1 -24.835152196669142 -41.211310824693115 9.7682804393614582 0 -0.86602541151947299 0.49999998660252726 1.5 0 0 1 I I #
face $-1 $-1 $426 $57 $-1 $578 forward single #
loop $-1 $-1 $579 $278 #
plane-surface $-1 0 -42.974204654341584 0 0 1 0 0 0 1 forward_v I I I I #
coedge $-1 $580 $581 $582 $583 reversed $279 $-1 #
coedge $-1 $584 $281 $283 $424 forward $175 $-1 #
coedge $-1 $281 $584 $580 $585 forward $175 $-1 #
coedge $-1 $582 $284 $281 $421 forward $426 $-1 #
edge $-1 $428 -20.538116868135809 $586 -7.1631085414043518 $420 $587 forward 7 unknown #
coedge $-1 $588 $589 $282 $423 forward $415 $-1 #
edge $-1 $590 -28.445298178108636 $427 -22.338454597330255 $422 $591 forward 7 unknown #
edge $-1 $428 -7.0515755075404964 $590 -1.4321304723534956e-014 $283 $592 forward 7 unknown #
coedge $-1 $284 $582 $588 $593 forward $426 $-1 #
loop $-1 $-1 $582 $414 #
vertex $-1 $423 $594 #
vertex $-1 $285 $595 #
straight-curve $-1 34.388729572905888 -76.571044148894629 12.821702229750656 0 1 0 I I #
coedge $-1 $430 $430 $-1 $596 reversed $288 $-1 #
edge $-1 $597 0 $597 6.2831853071796004 $289 $598 forward 7 unknown #
vertex $-1 $292 $599 #
ellipse-curve $-1 24.835152196669128 -41.211310824693115 9.7682804393614582 0 -0.86602541151947299 0.49999998660252726 1.5 0 0 1 I I #
coedge $-1 $434 $434 $-1 $600 reversed $295 $-1 #
edge $-1 $601 0 $601 6.2831853071796004 $296 $602 forward 7 unknown #
vertex $-1 $299 $603 #
ellipse-curve $-1 30.567298622411172 -41.211310824693115 9.7682804393614582 0 -0.86602541151947299 0.49999998660252726 1.5 0 0 1 I I #
face $-1 $-1 $311 $45 $-1 $604 reversed single #
loop $-1 $-1 $605 $300 #
plane-surface $-1 -63.605456709494305 0 0 1 0 0 0 0 -1 forward_v I I I I #
coedge $-1 $606 $446 $605 $607 forward $301 $-1 #
coedge $-1 $608 $303 $606 $609 forward $189 $-1 #
coedge $-1 $303 $608 $309 $455 forward $189 $-1 #
coedge $-1 $305 $304 $610 $611 forward $121 $-1 #
edge $-1 $312 -63.605456709494305 $612 63.605456709494305 $310 $613 forward 7 unknown #
coedge $-1 $441 $450 $305 $447 reversed $301 $-1 #
edge $-1 $614 -63.605456709494305 $448 63.605456709494305 $446 $615 forward 7 unknown #
vertex $-1 $306 $616 #
straight-curve $-1 63.605456709494305 0 12.821702229750654 0 1 0 I I #
coedge $-1 $446 $606 $307 $451 reversed $301 $-1 #
edge $-1 $448 -12.821702229750654 $452 12.821702229750654 $307 $617 forward 7 unknown #
vertex $-1 $451 $618 #
straight-curve $-1 63.605456709494305 0 -12.821702229750654 0 -1 0 I I #
coedge $-1 $310 $309 $619 $620 reversed $311 $-1 #
edge $-1 $621 -63.605456709494305 $313 63.605456709494305 $309 $622 forward 7 unknown #
point $-1 63.605456709494305 42.974204654341584 12.821702229750654 #
point $-1 63.605456709494305 42.974204654341584 -12.821702229750654 #
face $-1 $-1 $471 $46 $-1 $623 reversed single #
loop $-1 $-1 $624 $315 #
plane-surface $-1 -73.035987545098394 0 9.1415962639764192 1 0 0 0 0 -1 forward_v I I I I #
coedge $-1 $625 $463 $321 $468 reversed $316 $-1 #
coedge $-1 $319 $318 $624 $626 reversed $125 $-1 #
coedge $-1 $461 $627 $318 $464 forward $316 $-1 #
edge $-1 $628 -4.7152654178020441 $466 4.7152654178020512 $318 $629 forward 7 unknown #
edge $-1 $326 -4.7152654178020512 $630 4.7152654178020441 $319 $631 forward 7 unknown #
vertex $-1 $320 $632 #
straight-curve $-1 -63.605456709494305 42.974204654341584 0 0 0 -1 I I #
edge $-1 $472 -42.974204654341584 $466 42.974204654341584 $461 $633 forward 7 unknown #
coedge $-1 $634 $322 $325 $475 reversed $471 $-1 #
coedge $-1 $322 $634 $625 $635 reversed $471 $-1 #
loop $-1 $-1 $322 $458 #
vertex $-1 $323 $636 #
straight-curve $-1 -63.605456709494305 -42.974204654341584 0 0 0 1 I I #
coedge $-1 $325 $324 $637 $638 forward $197 $-1 #
edge $-1 $639 -4.7152654178020441 $327 4.7152654178020512 $469 $640 forward 7 unknown #
point $-1 -63.605456709494298 42.974204654341584 10.97534189706094 #
point $-1 -63.605456709494298 -42.974204654341584 10.97534189706094 #
face $-1 $-1 $494 $47 $-1 $641 reversed single #
loop $-1 $-1 $642 $329 #
plane-surface $-1 73.035987545098394 0 9.1415962639764192 -1 0 0 0 0 1 forward_v I I I I #
coedge $-1 $485 $643 $644 $645 forward $330 $-1 #
coedge $-1 $642 $646 $332 $483 reversed $479 $-1 #
edge $-1 $647 -42.974204654341584 $648 42.974204654341584 $482 $649 forward 7 unknown #
coedge $-1 $334 $333 $642 $650 reversed $129 $-1 #
coedge $-1 $490 $481 $333 $486 forward $330 $-1 #
edge $-1 $651 -4.7152654178020441 $488 4.7152654178020441 $333 $652 forward 7 unknown #
edge $-1 $341 -4.7152654178020441 $647 4.7152654178020441 $334 $653 forward 7 unknown #
vertex $-1 $335 $654 #
straight-curve $-1 63.605456709494305 -42.974204654341584 0 0 0 -1 I I #
coedge $-1 $643 $485 $336 $491 reversed $330 $-1 #
edge $-1 $495 -42.974204654341584 $488 42.974204654341584 $490 $655 forward 7 unknown #
coedge $-1 $656 $337 $340 $497 reversed $494 $-1 #
coedge $-1 $337 $656 $643 $657 reversed $494 $-1 #
loop $-1 $-1 $337 $478 #
vertex $-1 $338 $658 #
straight-curve $-1 63.605456709494305 42.974204654341584 0 0 0 1 I I #
edge $-1 $648 -4.7152654178020441 $342 4.7152654178020441 $492 $659 forward 7 unknown #
point $-1 63.605456709494305 -42.974204654341584 10.97534189706094 #
point $-1 63.605456709494305 42.974204654341584 10.97534189706094 #
plane-surface $-1 0 0 12.821702229750654 0 0 1 1 0 0 forward_v I I I I #
coedge $-1 $511 $510 $503 $660 forward $345 $-1 #
coedge $-1 $503 $347 $349 $507 reversed $213 $-1 #
coedge $-1 $347 $502 $501 $660 reversed $213 $-1 #
coedge $-1 $355 $350 $347 $505 forward $356 $-1 #
edge $-1 $508 2.6413307522219718 $661 18.867614081017006 $504 $662 forward 7 unknown #
coedge $-1 $349 $348 $511 $663 reversed $133 $-1 #
edge $-1 $664 -85.948409308683154 $508 -65.891619956862002 $502 $665 forward 7 unknown #
vertex $-1 $351 $666 #
straight-curve $-1 -3.6272168798358422 26.747921325546564 12.821702229750656 1 0 0 I I #
coedge $-1 $501 $352 $355 $515 reversed $345 $-1 #
coedge $-1 $352 $501 $506 $663 forward $345 $-1 #
vertex $-1 $353 $667 #
straight-curve $-1 -14.508867519343358 42.974204654341584 77.233807658367482 0 0 1 I I #
straight-curve $-1 -14.508867519343358 -26.559518646955645 51.551825184856412 0 0.80901698891910034 -0.5877852598018023 I I #
edge $-1 $661 1.0658141036401503e-014 $357 14.508867519343358 $510 $668 forward 7 unknown #
point $-1 -14.508867519343358 42.974204654341584 12.821702229750654 #
point $-1 -14.508867519343358 26.74792132554655 12.821702229750656 #
edge $-1 $669 1 $669 0 $360 $-1 forward 7 unknown #
vertex $-1 $361 $670 #
ellipse-curve $-1 -10.363476799530972 32.898250919033913 4.2255806648255039 0 0.5877852598018023 0.80901698891910034 1 0 0 1 I I #
point $-1 -9.3634767995309716 34.861062989944074 6.9271596597755423 #
edge $-1 $671 1 $671 0 $364 $-1 forward 7 unknown #
vertex $-1 $365 $672 #
ellipse-curve $-1 -4.1453907198123972 32.898250919033913 4.2255806648255039 0 0.5877852598018023 0.80901698891910034 1 0 0 1 I I #
point $-1 -3.1453907198123972 34.861062989944074 6.9271596597755423 #
loop $-1 $-1 $376 $368 #
plane-surface $-1 0 42.974204654341584 0 0 -1 0 0 0 -1 forward_v I I I I #
coedge $-1 $529 $371 $373 $533 reversed $235 $-1 #
coedge $-1 $371 $528 $673 $674 reversed $235 $-1 #
coedge $-1 $379 $374 $371 $531 forward $369 $-1 #
edge $-1 $534 2.6413307522219718 $675 18.867614081017006 $530 $676 forward 7 unknown #
coedge $-1 $373 $372 $537 $677 reversed $147 $-1 #
edge $-1 $678 -85.948409308683154 $534 -65.891619956862002 $528 $679 forward 7 unknown #
vertex $-1 $375 $680 #
straight-curve $-1 23.460246057109259 26.747921325546564 12.821702229750656 1 0 0 I I #
coedge $-1 $673 $376 $379 $541 reversed $526 $-1 #
coedge $-1 $376 $673 $532 $677 forward $526 $-1 #
vertex $-1 $377 $681 #
straight-curve $-1 39.666058354546848 42.974204654341584 77.233807658367482 0 0 1 I I #
straight-curve $-1 39.666058354546848 -26.559518646955645 51.551825184856412 0 0.80901698891910034 -0.5877852598018023 I I #
edge $-1 $675 -54.174925873890189 $380 -39.666058354546848 $536 $682 forward 7 unknown #
point $-1 39.666058354546848 42.974204654341584 12.821702229750654 #
point $-1 39.666058354546848 26.74792132554655 12.821702229750656 #
edge $-1 $683 1 $683 0 $383 $-1 forward 7 unknown #
vertex $-1 $384 $684 #
ellipse-curve $-1 43.811449074359231 32.898250919033913 4.2255806648255039 0 0.5877852598018023 0.80901698891910034 1 0 0 1 I I #
point $-1 44.811449074359231 34.861062989944074 6.9271596597755423 #
edge $-1 $685 1 $685 0 $387 $-1 forward 7 unknown #
vertex $-1 $388 $686 #
ellipse-curve $-1 50.029535154077806 32.898250919033913 4.2255806648255039 0 0.5877852598018023 0.80901698891910034 1 0 0 1 I I #
point $-1 51.029535154077806 34.861062989944074 6.9271596597755423 #
loop $-1 $-1 $399 $391 #
plane-surface $-1 0 -42.974204654341584 0 0 1 0 0 0 1 forward_v I I I I #
coedge $-1 $555 $394 $396 $559 reversed $257 $-1 #
coedge $-1 $394 $554 $687 $688 reversed $257 $-1 #
coedge $-1 $402 $397 $394 $557 forward $392 $-1 #
edge $-1 $560 -37.122627153849997 $689 -33.596839494553045 $556 $690 forward 7 unknown #
coedge $-1 $396 $395 $563 $691 reversed $161 $-1 #
edge $-1 $692 1.4321304723534956e-014 $560 7.0515755075404964 $554 $693 forward 7 unknown #
vertex $-1 $398 $694 #
straight-curve $-1 -13.850612704770086 -39.448416995044632 12.821702229750654 -1 0 0 I I #
coedge $-1 $687 $399 $402 $567 reversed $552 $-1 #
coedge $-1 $399 $687 $558 $691 forward $552 $-1 #
vertex $-1 $400 $695 #
straight-curve $-1 -21.013721246174445 -42.974204654341584 35.160156827080911 0 0 1 I I #
straight-curve $-1 -21.013721246174445 -42.974204654341591 6.7148586489722604 0 -0.49999998660252726 -0.86602541151947299 I I #
edge $-1 $689 -34.388729572905902 $403 -21.013721246174445 $562 $696 forward 7 unknown #
point $-1 -21.013721246174445 -42.974204654341584 12.821702229750654 #
point $-1 -21.013721246174445 -39.448416995044632 12.821702229750654 #
edge $-1 $697 1 $697 0 $406 $-1 forward 7 unknown #
vertex $-1 $407 $698 #
ellipse-curve $-1 -30.567298622411194 -37.001835825678661 7.3379390023612903 0 -0.86602541151947299 0.49999998660252726 1.5 0 0 1 I I #
point $-1 -29.067298622411194 -41.211310824693108 9.7682804393614582 #
edge $-1 $699 1 $699 0 $410 $-1 forward 7 unknown #
vertex $-1 $411 $700 #
ellipse-curve $-1 -24.835152196669142 -37.001835825678661 7.3379390023612903 0 -0.86602541151947299 0.49999998660252726 1.5 0 0 1 I I #
point $-1 -23.335152196669142 -41.211310824693108 9.7682804393614582 #
plane-surface $-1 0 0 12.821702229750654 0 0 1 1 0 0 forward_v I I I I #
coedge $-1 $589 $588 $581 $701 forward $415 $-1 #
coedge $-1 $581 $417 $419 $585 reversed $279 $-1 #
coedge $-1 $417 $580 $579 $701 reversed $279 $-1 #
coedge $-1 $425 $420 $417 $583 forward $426 $-1 #
edge $-1 $586 -37.122627153849997 $702 -33.596839494553045 $582 $703 forward 7 unknown #
coedge $-1 $419 $418 $589 $704 reversed $175 $-1 #
edge $-1 $705 1.4321304723534956e-014 $586 7.0515755075404964 $580 $706 forward 7 unknown #
vertex $-1 $421 $707 #
straight-curve $-1 13.850612704770079 -39.448416995044632 12.821702229750654 -1 0 0 I I #
coedge $-1 $579 $422 $425 $593 reversed $415 $-1 #
coedge $-1 $422 $579 $584 $704 forward $415 $-1 #
vertex $-1 $423 $708 #
straight-curve $-1 34.388729572905888 -42.974204654341584 35.160156827080911 0 0 1 I I #
straight-curve $-1 34.388729572905888 -42.974204654341591 6.7148586489722604 0 -0.49999998660252726 -0.86602541151947299 I I #
edge $-1 $702 21.01372124617443 $427 34.388729572905888 $588 $709 forward 7 unknown #
point $-1 34.388729572905888 -42.974204654341584 12.821702229750654 #
point $-1 34.388729572905888 -39.448416995044632 12.821702229750654 #
edge $-1 $710 1 $710 0 $430 $-1 forward 7 unknown #
vertex $-1 $431 $711 #
ellipse-curve $-1 24.835152196669128 -37.001835825678661 7.3379390023612903 0 -0.86602541151947299 0.49999998660252726 1.5 0 0 1 I I #
point $-1 26.335152196669128 -41.211310824693108 9.7682804393614582 #
edge $-1 $712 1 $712 0 $434 $-1 forward 7 unknown #
vertex $-1 $435 $713 #
ellipse-curve $-1 30.567298622411172 -37.001835825678661 7.3379390023612903 0 -0.86602541151947299 0.49999998660252726 1.5 0 0 1 I I #
point $-1 32.067298622411172 -41.211310824693108 9.7682804393614582 #
plane-surface $-1 0 42.974204654341584 0 0 -1 0 0 0 -1 forward_v I I I I #
coedge $-1 $610 $714 $441 $607 reversed $439 $-1 #
coedge $-1 $450 $441 $442 $609 reversed $301 $-1 #
edge $-1 $614 -12.821702229750654 $715 12.821702229750654 $605 $716 forward 7 unknown #
coedge $-1 $443 $442 $714 $717 forward $189 $-1 #
edge $-1 $452 -63.605456709494305 $715 63.605456709494305 $606 $718 forward 7 unknown #
coedge $-1 $619 $605 $444 $611 reversed $439 $-1 #
edge $-1 $612 -42.974204654341584 $614 42.974204654341584 $610 $719 forward 7 unknown #
vertex $-1 $445 $720 #
straight-curve $-1 0 42.974204654341584 12.821702229750654 -1 0 0 I I #
vertex $-1 $611 $721 #
straight-curve $-1 0 -42.974204654341584 12.821702229750654 1 0 0 I I #
point $-1 63.605456709494305 -42.974204654341584 12.821702229750654 #
straight-curve $-1 63.605456709494305 -42.974204654341584 0 0 0 -1 I I #
point $-1 63.605456709494305 -42.974204654341584 -12.821702229750654 #
coedge $-1 $714 $610 $454 $620 forward $439 $-1 #
edge $-1 $612 -12.821702229750654 $621 12.821702229750654 $454 $722 forward 7 unknown #
vertex $-1 $455 $723 #
straight-curve $-1 0 42.974204654341584 -12.821702229750654 1 0 0 I I #
plane-surface $-1 0 -42.974204654341584 0 0 1 0 0 0 1 forward_v I I I I #
coedge $-1 $724 $637 $462 $626 forward $459 $-1 #
coedge $-1 $627 $461 $470 $635 forward $316 $-1 #
edge $-1 $630 -1.8337456330845203 $628 1.8337456330845203 $462 $725 forward 7 unknown #
coedge $-1 $463 $625 $724 $726 forward $316 $-1 #
vertex $-1 $464 $727 #
straight-curve $-1 -68.320722127296349 42.974204654341584 7.3078506308918989 1 0 0 I I #
vertex $-1 $465 $728 #
straight-curve $-1 -68.320722127296349 42.974204654341584 10.97534189706094 -1 0 0 I I #
point $-1 -63.605456709494298 42.974204654341584 7.3078506308918989 #
straight-curve $-1 -63.605456709494305 0 7.3078506308918989 0 1 0 I I #
coedge $-1 $470 $469 $729 $730 forward $471 $-1 #
edge $-1 $472 -4.7152654178020512 $731 4.7152654178020441 $470 $732 forward 7 unknown #
point $-1 -63.605456709494298 -42.974204654341584 7.3078506308918989 #
coedge $-1 $624 $729 $474 $638 reversed $459 $-1 #
edge $-1 $630 -42.974204654341584 $639 42.974204654341584 $637 $733 forward 7 unknown #
vertex $-1 $638 $734 #
straight-curve $-1 -68.320722127296349 -42.974204654341584 10.97534189706094 1 0 0 I I #
plane-surface $-1 0 42.974204654341584 0 0 -1 0 0 0 -1 forward_v I I I I #
coedge $-1 $644 $482 $484 $650 forward $479 $-1 #
coedge $-1 $481 $490 $493 $657 forward $330 $-1 #
coedge $-1 $646 $642 $481 $645 reversed $479 $-1 #
edge $-1 $735 -42.974204654341584 $651 42.974204654341584 $644 $736 forward 7 unknown #
coedge $-1 $482 $644 $656 $737 reversed $479 $-1 #
vertex $-1 $483 $738 #
vertex $-1 $483 $739 #
straight-curve $-1 73.035987545098394 0 10.97534189706094 0 1 0 I I #
edge $-1 $647 -1.8337456330845203 $651 1.8337456330845203 $642 $740 forward 7 unknown #
vertex $-1 $650 $741 #
straight-curve $-1 68.320722127296349 -42.974204654341584 7.3078506308918989 -1 0 0 I I #
straight-curve $-1 68.320722127296349 -42.974204654341584 10.97534189706094 1 0 0 I I #
point $-1 63.605456709494305 -42.974204654341584 7.3078506308918989 #
straight-curve $-1 63.605456709494305 0 7.3078506308918989 0 -1 0 I I #
coedge $-1 $493 $492 $646 $737 forward $494 $-1 #
edge $-1 $495 -4.7152654178020441 $735 4.7152654178020441 $493 $742 forward 7 unknown #
point $-1 63.605456709494305 42.974204654341584 7.3078506308918989 #
straight-curve $-1 68.320722127296349 42.974204654341584 10.97534189706094 -1 0 0 I I #
edge $-1 $661 64.412105428616826 $664 76.201190568567057 $501 $743 forward 7 unknown #
vertex $-1 $515 $744 #
straight-curve $-1 -1.0658141036401503e-014 24.106590573324578 12.821702229750656 0 1 0 I I #
edge $-1 $664 -3.6272168798358315 $512 10.881650639507516 $511 $745 forward 7 unknown #
vertex $-1 $663 $746 #
straight-curve $-1 -1.0658141036401503e-014 -26.559518646955645 51.551825184856412 0 -0.80901698891910034 0.5877852598018023 I I #
point $-1 -1.0658141036401503e-014 26.74792132554655 12.821702229750656 #
point $-1 -14.508867519343358 42.974204654341584 1.0326170898004321 #
straight-curve $-1 0 42.974204654341584 12.821702229750654 -1 0 0 I I #
vertex $-1 $518 $747 #
point $-1 -9.3634767995309716 32.898250919033913 4.2255806648255039 #
vertex $-1 $522 $748 #
point $-1 -3.1453907198123972 32.898250919033913 4.2255806648255039 #
coedge $-1 $537 $536 $529 $674 forward $526 $-1 #
edge $-1 $675 64.412105428616826 $678 76.201190568567057 $673 $749 forward 7 unknown #
vertex $-1 $541 $750 #
straight-curve $-1 54.174925873890189 24.106590573324578 12.821702229750656 0 1 0 I I #
edge $-1 $678 -30.714679816780929 $538 -16.205812297437589 $537 $751 forward 7 unknown #
vertex $-1 $677 $752 #
straight-curve $-1 54.174925873890189 -26.559518646955645 51.551825184856412 0 -0.80901698891910034 0.5877852598018023 I I #
point $-1 54.174925873890189 26.74792132554655 12.821702229750656 #
point $-1 39.666058354546848 42.974204654341584 1.0326170898004321 #
straight-curve $-1 0 42.974204654341584 12.821702229750654 -1 0 0 I I #
vertex $-1 $544 $753 #
point $-1 44.811449074359231 32.898250919033913 4.2255806648255039 #
vertex $-1 $548 $754 #
point $-1 51.029535154077806 32.898250919033913 4.2255806648255039 #
coedge $-1 $563 $562 $555 $688 forward $552 $-1 #
edge $-1 $689 22.338454597330255 $692 28.445298178108636 $687 $755 forward 7 unknown #
vertex $-1 $567 $756 #
straight-curve $-1 -34.388729572905902 -76.571044148894629 12.821702229750656 0 -1 0 I I #
edge $-1 $692 -20.538116868135816 $564 -7.1631085414043589 $563 $757 forward 7 unknown #
vertex $-1 $691 $758 #
straight-curve $-1 -34.388729572905902 -42.974204654341591 6.7148586489722604 0 0.49999998660252726 0.86602541151947299 I I #
point $-1 -34.388729572905902 -39.448416995044632 12.821702229750654 #
point $-1 -21.013721246174445 -42.974204654341584 6.7148586489722728 #
straight-curve $-1 0 -42.974204654341584 12.821702229750654 1 0 0 I I #
vertex $-1 $570 $759 #
point $-1 -29.067298622411194 -37.001835825678661 7.3379390023612903 #
vertex $-1 $574 $760 #
point $-1 -23.335152196669142 -37.001835825678661 7.3379390023612903 #
edge $-1 $702 22.338454597330255 $705 28.445298178108636 $579 $761 forward 7 unknown #
vertex $-1 $593 $762 #
straight-curve $-1 21.01372124617443 -76.571044148894629 12.821702229750656 0 -1 0 I I #
edge $-1 $705 7.1631085414043518 $590 20.538116868135809 $589 $763 forward 7 unknown #
vertex $-1 $704 $764 #
straight-curve $-1 21.01372124617443 -42.974204654341591 6.7148586489722604 0 0.49999998660252726 0.86602541151947299 I I #
point $-1 21.01372124617443 -39.448416995044632 12.821702229750654 #
point $-1 34.388729572905888 -42.974204654341584 6.7148586489722728 #
straight-curve $-1 0 -42.974204654341584 12.821702229750654 1 0 0 I I #
vertex $-1 $596 $765 #
point $-1 26.335152196669128 -37.001835825678661 7.3379390023612903 #
vertex $-1 $600 $766 #
point $-1 32.067298622411172 -37.001835825678661 7.3379390023612903 #
coedge $-1 $605 $619 $608 $717 reversed $439 $-1 #
vertex $-1 $717 $767 #
straight-curve $-1 -63.605456709494305 -42.974204654341584 0 0 0 -1 I I #
edge $-1 $715 -42.974204654341584 $621 42.974204654341584 $714 $768 forward 7 unknown #
straight-curve $-1 0 -42.974204654341584 -12.821702229750654 -1 0 0 I I #
straight-curve $-1 -63.605456709494305 0 12.821702229750654 0 -1 0 I I #
point $-1 -63.605456709494305 42.974204654341584 12.821702229750654 #
point $-1 -63.605456709494305 -42.974204654341584 12.821702229750654 #
straight-curve $-1 -63.605456709494305 42.974204654341584 0 0 0 -1 I I #
point $-1 -63.605456709494305 42.974204654341584 -12.821702229750654 #
coedge $-1 $729 $624 $627 $726 reversed $459 $-1 #
straight-curve $-1 -73.035987545098394 42.974204654341584 9.1415962639764192 0 0 -1 I I #
edge $-1 $731 -42.974204654341584 $628 42.974204654341584 $724 $769 forward 7 unknown #
point $-1 -73.035987545098394 42.974204654341584 7.3078506308918989 #
point $-1 -73.035987545098394 42.974204654341584 10.97534189706094 #
coedge $-1 $637 $724 $634 $730 reversed $459 $-1 #
edge $-1 $639 -1.8337456330845203 $731 1.8337456330845203 $729 $770 forward 7 unknown #
vertex $-1 $726 $771 #
straight-curve $-1 -68.320722127296349 -42.974204654341584 7.3078506308918989 -1 0 0 I I #
straight-curve $-1 -73.035987545098394 0 10.97534189706094 0 -1 0 I I #
point $-1 -73.035987545098394 -42.974204654341584 10.97534189706094 #
vertex $-1 $645 $772 #
straight-curve $-1 73.035987545098394 0 7.3078506308918989 0 -1 0 I I #
edge $-1 $648 -1.8337456330845203 $735 1.8337456330845203 $646 $773 forward 7 unknown #
point $-1 73.035987545098394 -42.974204654341584 10.97534189706094 #
point $-1 73.035987545098394 42.974204654341584 10.97534189706094 #
straight-curve $-1 73.035987545098394 -42.974204654341584 9.1415962639764192 0 0 -1 I I #
point $-1 73.035987545098394 -42.974204654341584 7.3078506308918989 #
straight-curve $-1 68.320722127296349 42.974204654341584 7.3078506308918989 1 0 0 I I #
straight-curve $-1 -1.0658141036401503e-014 42.974204654341584 77.233807658367482 0 0 -1 I I #
point $-1 -1.0658141036401503e-014 42.974204654341584 12.821702229750654 #
straight-curve $-1 -3.6272168798358422 42.974204654341584 1.0326170898004321 -1 0 0 I I #
point $-1 -1.0658141036401503e-014 42.974204654341584 1.0326170898004321 #
point $-1 -10.363476799530972 32.310465659232108 3.4165636759064033 #
point $-1 -4.1453907198123972 32.310465659232108 3.4165636759064033 #
straight-curve $-1 54.174925873890189 42.974204654341584 77.233807658367482 0 0 -1 I I #
point $-1 54.174925873890189 42.974204654341584 12.821702229750654 #
straight-curve $-1 23.460246057109259 42.974204654341584 1.0326170898004321 -1 0 0 I I #
point $-1 54.174925873890189 42.974204654341584 1.0326170898004321 #
point $-1 43.811449074359231 32.310465659232108 3.4165636759064033 #
point $-1 50.029535154077806 32.310465659232108 3.4165636759064033 #
straight-curve $-1 -34.388729572905902 -42.974204654341584 35.160156827080911 0 0 -1 I I #
point $-1 -34.388729572905902 -42.974204654341584 12.821702229750654 #
straight-curve $-1 -13.850612704770086 -42.974204654341584 6.7148586489722772 1 0 0 I I #
point $-1 -34.388729572905902 -42.974204654341584 6.7148586489722728 #
point $-1 -30.567298622411194 -35.702797708399451 6.5879390224574994 #
point $-1 -24.835152196669142 -35.702797708399451 6.5879390224574994 #
straight-curve $-1 21.01372124617443 -42.974204654341584 35.160156827080911 0 0 -1 I I #
point $-1 21.01372124617443 -42.974204654341584 12.821702229750654 #
straight-curve $-1 13.850612704770079 -42.974204654341584 6.7148586489722772 1 0 0 I I #
point $-1 21.01372124617443 -42.974204654341584 6.7148586489722728 #
point $-1 24.835152196669128 -35.702797708399451 6.5879390224574994 #
point $-1 30.567298622411172 -35.702797708399451 6.5879390224574994 #
point $-1 -63.605456709494305 -42.974204654341584 -12.821702229750654 #
straight-curve $-1 -63.605456709494305 0 -12.821702229750654 0 1 0 I I #
straight-curve $-1 -73.035987545098394 0 7.3078506308918989 0 1 0 I I #
straight-curve $-1 -73.035987545098394 -42.974204654341584 9.1415962639764192 0 0 -1 I I #
point $-1 -73.035987545098394 -42.974204654341584 7.3078506308918989 #
point $-1 73.035987545098394 42.974204654341584 7.3078506308918989 #
straight-curve $-1 73.035987545098394 42.974204654341584 9.1415962639764192 0 0 -1 I I #
End-of-ACIS-data 