500 0 5 0           
7 Unknown 11 ACIS 5.0 NT 24 Fri Mar 26 01:01:47 1999 
-1 9.9999999999999995e-007 1e-010 
body $-1 $5 $-1 $6 #
body $-1 $7 $-1 $8 #
body $-1 $9 $-1 $10 #
body $-1 $11 $-1 $12 #
body $-1 $13 $-1 $14 #
lump $-1 $-1 $15 $0 #
transform $-1 1 0 0 0 1 0 0 0 1 62.100283822138124 33.751761058029658 8.2994495795422942 1 rotate no_reflect no_shear #
lump $-1 $-1 $16 $1 #
transform $-1 1 0 0 0 1 0 0 0 1 62.100283822138124 33.751761058029658 8.2994495795422942 1 rotate no_reflect no_shear #
lump $-1 $-1 $17 $2 #
transform $-1 1 0 0 0 1 0 0 0 1 62.100283822138124 33.751761058029658 8.2994495795422942 1 rotate no_reflect no_shear #
lump $-1 $-1 $18 $3 #
transform $-1 1 0 0 0 1 0 0 0 1 62.100283822138124 33.751761058029658 8.2994495795422942 1 rotate no_reflect no_shear #
lump $-1 $-1 $19 $4 #
transform $-1 1 0 0 0 1 0 0 0 1 62.100283822138124 33.751761058029658 8.2994495795422942 1 rotate no_reflect no_shear #
shell $-1 $-1 $-1 $20 $-1 $5 #
shell $-1 $-1 $-1 $21 $-1 $7 #
shell $-1 $-1 $-1 $22 $-1 $9 #
shell $-1 $-1 $-1 $23 $-1 $11 #
shell $-1 $-1 $-1 $24 $-1 $13 #
face $-1 $25 $26 $15 $-1 $27 forward single #
face $-1 $28 $29 $16 $-1 $30 forward single #
face $-1 $31 $32 $17 $-1 $33 reversed single #
face $-1 $34 $35 $18 $-1 $36 forward single #
face $-1 $37 $38 $19 $-1 $39 forward single #
face $-1 $40 $41 $15 $-1 $42 reversed single #
loop $-1 $-1 $43 $20 #
plane-surface $-1 0 0 8.2994495795422942 0 0 1 1 0 0 forward_v I I I I #
face $-1 $44 $45 $16 $-1 $46 reversed single #
loop $-1 $-1 $47 $21 #
plane-surface $-1 -62.100283822138124 0 0 1 0 0 0 0 -1 forward_v I I I I #
face $-1 $48 $49 $17 $-1 $50 reversed single #
loop $-1 $-1 $51 $22 #
plane-surface $-1 53.801130284547156 -33.751761058029643 2.0593246710504758 0 -0.50000000669873634 0.8660253999169214 1 0 0 forward_v I I I I #
face $-1 $52 $53 $18 $-1 $54 forward single #
loop $-1 $55 $56 $23 #
cone-surface $-1 50.244350197008174 -28.025714700247413 4.621771112617572 0 0.50000000669873634 -0.8660253999169214 1 0 0 1 I I 0 1 1 forward I I I I #
face $-1 $57 $58 $19 $-1 $59 forward single #
loop $-1 $60 $61 $24 #
cone-surface $-1 57.357910372086138 -28.025714700247413 4.621771112617572 0 0.50000000669873634 -0.8660253999169214 1 0 0 1 I I 0 1 1 forward I I I I #
face $-1 $62 $63 $15 $-1 $64 reversed single #
loop $-1 $-1 $65 $25 #
plane-surface $-1 0 0 -8.2994495795422942 0 0 1 1 0 0 forward_v I I I I #
coedge $-1 $66 $67 $68 $69 forward $26 $-1 #
face $-1 $70 $71 $16 $-1 $72 reversed single #
loop $-1 $-1 $73 $28 #
plane-surface $-1 0 33.751761058029658 0 0 -1 0 0 0 -1 forward_v I I I I #
coedge $-1 $74 $75 $76 $77 forward $29 $-1 #
face $-1 $78 $79 $17 $-1 $80 reversed single #
loop $-1 $-1 $81 $31 #
plane-surface $-1 45.501976746956196 -95.85204571215462 109.62017093509346 1 0 0 0 0.50000000669873634 -0.8660253999169214 forward_v I I I I #
coedge $-1 $82 $83 $84 $85 reversed $32 $-1 #
face $-1 $-1 $86 $18 $-1 $87 forward single #
loop $-1 $88 $89 $34 #
cone-surface $-1 50.244350197008174 -27.453774936122571 3.6311423999802823 0 0.50000000669873634 -0.8660253999169214 0.5 0 0 1 I I -0.70710678118654813 0.70710678118654691 0.5 forward I I I I #
loop $-1 $-1 $90 $23 #
coedge $-1 $56 $56 $91 $92 reversed $35 $-1 #
face $-1 $-1 $93 $19 $-1 $94 forward single #
loop $-1 $95 $96 $37 #
cone-surface $-1 57.357910372086138 -27.453774936122571 3.6311423999802823 0 0.50000000669873634 -0.8660253999169214 0.5 0 0 1 I I -0.70710678118654813 0.70710678118654691 0.5 forward I I I I #
loop $-1 $-1 $97 $24 #
coedge $-1 $61 $61 $98 $99 reversed $38 $-1 #
face $-1 $100 $101 $15 $-1 $102 reversed single #
loop $-1 $-1 $103 $40 #
plane-surface $-1 0 -33.751761058029658 0 0 1 0 0 0 1 forward_v I I I I #
coedge $-1 $104 $105 $106 $107 forward $41 $-1 #
coedge $-1 $108 $43 $109 $110 forward $26 $-1 #
coedge $-1 $43 $108 $111 $112 forward $26 $-1 #
coedge $-1 $113 $114 $43 $69 reversed $115 $-1 #
edge $-1 $116 -33.751761058029658 $117 33.751761058029658 $68 $118 forward 7 unknown #
face $-1 $119 $120 $16 $-1 $121 reversed single #
loop $-1 $-1 $76 $44 #
plane-surface $-1 -67.367955893509674 0 4.3944251968513131 0 0 1 1 0 0 forward_v I I I I #
coedge $-1 $122 $123 $74 $124 forward $45 $-1 #
coedge $-1 $125 $47 $73 $124 reversed $29 $-1 #
coedge $-1 $47 $125 $126 $127 reversed $29 $-1 #
coedge $-1 $128 $129 $47 $77 reversed $71 $-1 #
edge $-1 $130 -33.751761058029658 $131 33.751761058029658 $76 $132 forward 7 unknown #
face $-1 $133 $134 $17 $-1 $135 forward single #
loop $-1 $-1 $136 $48 #
plane-surface $-1 62.100283822138124 0 0 -1 0 0 0 0 1 forward_v I I I I #
coedge $-1 $137 $138 $139 $140 reversed $49 $-1 #
coedge $-1 $141 $51 $136 $142 reversed $32 $-1 #
coedge $-1 $51 $141 $137 $143 forward $32 $-1 #
coedge $-1 $139 $144 $51 $85 forward $134 $-1 #
edge $-1 $145 -35.199718679864539 $146 -18.601411604682617 $84 $147 forward 7 unknown #
loop $-1 $-1 $91 $52 #
plane-surface $-1 53.801130284547156 -33.751761058029643 2.0593246710504758 0 -0.50000000669873634 0.8660253999169214 1 0 0 forward_v I I I I #
loop $-1 $-1 $148 $34 #
coedge $-1 $89 $89 $90 $149 reversed $53 $-1 #
coedge $-1 $90 $90 $89 $149 forward $55 $-1 #
coedge $-1 $91 $91 $56 $92 forward $86 $-1 #
edge $-1 $150 3.2361614150966661e-015 $150 6.283185307179604 $91 $151 forward 7 unknown #
loop $-1 $-1 $98 $57 #
plane-surface $-1 53.801130284547156 -33.751761058029643 2.0593246710504758 0 -0.50000000669873634 0.8660253999169214 1 0 0 forward_v I I I I #
loop $-1 $-1 $152 $37 #
coedge $-1 $96 $96 $97 $153 reversed $58 $-1 #
coedge $-1 $97 $97 $96 $153 forward $60 $-1 #
coedge $-1 $98 $98 $61 $99 forward $93 $-1 #
edge $-1 $154 3.2361614150966661e-015 $154 6.283185307179604 $98 $155 forward 7 unknown #
face $-1 $156 $157 $15 $-1 $158 reversed single #
loop $-1 $-1 $159 $62 #
plane-surface $-1 -62.100283822138124 0 0 1 0 0 0 0 -1 forward_v I I I I #
coedge $-1 $160 $111 $161 $162 forward $63 $-1 #
coedge $-1 $163 $65 $160 $164 forward $41 $-1 #
coedge $-1 $65 $163 $165 $166 forward $41 $-1 #
coedge $-1 $114 $113 $65 $107 reversed $115 $-1 #
edge $-1 $167 -33.751761058029658 $168 33.751761058029658 $106 $169 forward 7 unknown #
coedge $-1 $67 $66 $170 $171 forward $26 $-1 #
coedge $-1 $172 $173 $66 $110 reversed $157 $-1 #
edge $-1 $117 -62.100283822138124 $174 62.100283822138124 $109 $175 forward 7 unknown #
coedge $-1 $103 $176 $67 $112 reversed $63 $-1 #
edge $-1 $177 -62.100283822138124 $116 62.100283822138124 $111 $178 forward 7 unknown #
coedge $-1 $106 $68 $176 $179 forward $115 $-1 #
coedge $-1 $68 $106 $172 $180 reversed $115 $-1 #
loop $-1 $-1 $113 $156 #
vertex $-1 $69 $181 #
vertex $-1 $69 $182 #
straight-curve $-1 62.100283822138124 0 8.2994495795422942 0 1 0 I I #
face $-1 $183 $184 $16 $-1 $185 forward single #
loop $-1 $-1 $186 $70 #
plane-surface $-1 -72.635627964881223 0 6.3469373881968032 1 0 0 0 0 -1 forward_v I I I I #
coedge $-1 $187 $73 $129 $188 reversed $45 $-1 #
coedge $-1 $73 $187 $189 $190 reversed $45 $-1 #
edge $-1 $191 -8.2994495795422942 $131 -4.3944251968513131 $73 $192 forward 7 unknown #
coedge $-1 $75 $74 $193 $194 reversed $29 $-1 #
coedge $-1 $195 $196 $75 $127 forward $197 $-1 #
edge $-1 $130 4.3944251968513131 $198 8.2994495795422942 $126 $199 forward 7 unknown #
coedge $-1 $200 $76 $196 $201 forward $71 $-1 #
coedge $-1 $76 $200 $122 $188 forward $71 $-1 #
vertex $-1 $127 $202 #
vertex $-1 $124 $203 #
straight-curve $-1 -62.100283822138124 0 4.3944251968513131 0 1 0 I I #
face $-1 $-1 $204 $17 $-1 $205 reversed single #
loop $-1 $-1 $84 $78 #
plane-surface $-1 0 0 8.2994495795422942 0 0 1 1 0 0 forward_v I I I I #
coedge $-1 $206 $207 $82 $142 forward $79 $-1 #
coedge $-1 $138 $81 $83 $143 reversed $49 $-1 #
coedge $-1 $81 $137 $208 $209 reversed $49 $-1 #
coedge $-1 $210 $84 $81 $140 forward $134 $-1 #
edge $-1 $146 -24.982474992061263 $211 -14.174261798047652 $139 $212 forward 7 unknown #
coedge $-1 $83 $82 $213 $214 reversed $32 $-1 #
edge $-1 $215 -14.10011000943021 $145 -1.6198603596503607 $136 $216 forward 7 unknown #
edge $-1 $217 -1.6303764080091705e-014 $146 12.480249649779832 $137 $218 forward 7 unknown #
coedge $-1 $84 $210 $206 $219 forward $134 $-1 #
vertex $-1 $85 $220 #
vertex $-1 $85 $221 #
straight-curve $-1 26.900565142273578 -22.943547864016047 8.2994495795422942 -1 0 0 I I #
coedge $-1 $148 $148 $-1 $222 reversed $88 $-1 #
edge $-1 $223 0 $223 6.2831853071796004 $89 $224 forward 7 unknown #
vertex $-1 $92 $225 #
ellipse-curve $-1 50.244350197008174 -28.34765446102287 5.1793871252963708 0 -0.50000000669873634 0.8660253999169214 1 0 0 1 I I #
coedge $-1 $152 $152 $-1 $226 reversed $95 $-1 #
edge $-1 $227 0 $227 6.2831853071796004 $96 $228 forward 7 unknown #
vertex $-1 $99 $229 #
ellipse-curve $-1 57.357910372086138 -28.34765446102287 5.1793871252963708 0 -0.50000000669873634 0.8660253999169214 1 0 0 1 I I #
face $-1 $-1 $115 $15 $-1 $230 reversed single #
loop $-1 $-1 $172 $100 #
plane-surface $-1 0 33.751761058029658 0 0 -1 0 0 0 -1 forward_v I I I I #
coedge $-1 $231 $170 $173 $232 forward $101 $-1 #
coedge $-1 $176 $103 $104 $164 reversed $63 $-1 #
coedge $-1 $170 $231 $103 $162 reversed $101 $-1 #
edge $-1 $177 -8.2994495795422942 $233 8.2994495795422942 $161 $234 forward 7 unknown #
coedge $-1 $105 $104 $231 $235 forward $41 $-1 #
edge $-1 $168 -62.100283822138124 $233 62.100283822138124 $160 $236 forward 7 unknown #
coedge $-1 $173 $172 $105 $166 reversed $157 $-1 #
edge $-1 $237 -62.100283822138124 $167 62.100283822138124 $165 $238 forward 7 unknown #
vertex $-1 $107 $239 #
vertex $-1 $179 $240 #
straight-curve $-1 62.100283822138124 0 -8.2994495795422942 0 -1 0 I I #
coedge $-1 $159 $161 $108 $171 reversed $101 $-1 #
edge $-1 $174 -33.751761058029658 $177 33.751761058029658 $170 $241 forward 7 unknown #
coedge $-1 $165 $109 $114 $180 forward $157 $-1 #
coedge $-1 $109 $165 $159 $232 reversed $157 $-1 #
vertex $-1 $110 $242 #
straight-curve $-1 0 33.751761058029658 8.2994495795422942 -1 0 0 I I #
coedge $-1 $111 $160 $113 $179 reversed $63 $-1 #
vertex $-1 $171 $243 #
straight-curve $-1 0 -33.751761058029658 8.2994495795422942 1 0 0 I I #
edge $-1 $116 -8.2994495795422942 $168 8.2994495795422942 $113 $244 forward 7 unknown #
edge $-1 $117 -8.2994495795422942 $167 8.2994495795422942 $114 $245 forward 7 unknown #
point $-1 62.100283822138124 -33.751761058029658 8.2994495795422942 #
point $-1 62.100283822138124 33.751761058029658 8.2994495795422942 #
face $-1 $-1 $197 $16 $-1 $246 reversed single #
loop $-1 $-1 $193 $119 #
plane-surface $-1 0 0 8.2994495795422942 0 0 1 1 0 0 forward_v I I I I #
coedge $-1 $247 $248 $187 $249 forward $120 $-1 #
coedge $-1 $123 $122 $186 $249 reversed $45 $-1 #
edge $-1 $250 -5.2676720713715497 $131 5.2676720713715568 $122 $251 forward 7 unknown #
coedge $-1 $252 $193 $123 $190 forward $184 $-1 #
edge $-1 $191 62.100283822138124 $253 72.635627964881223 $123 $254 forward 7 unknown #
vertex $-1 $190 $255 #
straight-curve $-1 -62.100283822138124 33.751761058029658 0 0 0 -1 I I #
coedge $-1 $189 $256 $125 $194 forward $184 $-1 #
edge $-1 $198 -33.751761058029658 $191 33.751761058029658 $193 $257 forward 7 unknown #
coedge $-1 $258 $126 $256 $259 reversed $197 $-1 #
coedge $-1 $126 $258 $128 $201 reversed $197 $-1 #
loop $-1 $-1 $126 $183 #
vertex $-1 $127 $260 #
straight-curve $-1 -62.100283822138124 -33.751761058029658 0 0 0 1 I I #
coedge $-1 $129 $128 $247 $261 forward $71 $-1 #
edge $-1 $130 -5.2676720713715568 $262 5.2676720713715497 $196 $263 forward 7 unknown #
point $-1 -62.100283822138117 -33.751761058029658 4.3944251968513131 #
point $-1 -62.100283822138117 33.751761058029658 4.3944251968513131 #
loop $-1 $-1 $213 $133 #
plane-surface $-1 0 -33.751761058029658 0 0 1 0 0 0 1 forward_v I I I I #
coedge $-1 $207 $136 $144 $219 reversed $79 $-1 #
coedge $-1 $136 $206 $264 $265 forward $79 $-1 #
coedge $-1 $213 $266 $138 $209 forward $204 $-1 #
edge $-1 $211 46.51063588800443 $217 52.750760796496259 $208 $267 forward 7 unknown #
coedge $-1 $144 $139 $266 $268 forward $134 $-1 #
vertex $-1 $268 $269 #
straight-curve $-1 45.501976746956196 -47.92602285607731 8.2994495795422907 0 -1 0 I I #
coedge $-1 $264 $208 $141 $214 forward $204 $-1 #
edge $-1 $217 18.601411604682617 $215 35.199718679864539 $213 $270 forward 7 unknown #
vertex $-1 $214 $271 #
straight-curve $-1 62.100283822138124 -21.540707648240275 9.1093797702184922 0 0.8660253999169214 0.50000000669873634 I I #
vertex $-1 $214 $272 #
straight-curve $-1 45.501976746956196 -33.751761058029643 2.0593246710504758 0 0.8660253999169214 0.50000000669873634 I I #
edge $-1 $273 -33.751761058029658 $145 -22.943547864016047 $206 $274 forward 7 unknown #
point $-1 62.100283822138117 -22.943547864016047 8.2994495795422942 #
point $-1 45.501976746956196 -22.943547864016047 8.2994495795422942 #
edge $-1 $275 1 $275 0 $148 $-1 forward 7 unknown #
vertex $-1 $149 $276 #
ellipse-curve $-1 50.244350197008174 -27.703774939471938 4.0641550999387421 0 -0.50000000669873634 0.8660253999169214 1 0 0 1 I I #
point $-1 51.244350197008174 -28.347654461022884 5.1793871252964019 #
edge $-1 $277 1 $277 0 $152 $-1 forward 7 unknown #
vertex $-1 $153 $278 #
ellipse-curve $-1 57.357910372086138 -27.703774939471938 4.0641550999387421 0 -0.50000000669873634 0.8660253999169214 1 0 0 1 I I #
point $-1 58.357910372086138 -28.347654461022884 5.1793871252964019 #
plane-surface $-1 62.100283822138124 0 0 -1 0 0 0 0 1 forward_v I I I I #
coedge $-1 $161 $159 $163 $235 reversed $101 $-1 #
edge $-1 $174 -8.2994495795422942 $237 8.2994495795422942 $173 $279 forward 7 unknown #
vertex $-1 $235 $280 #
straight-curve $-1 -62.100283822138124 -33.751761058029658 0 0 0 -1 I I #
edge $-1 $233 -33.751761058029658 $237 33.751761058029658 $231 $281 forward 7 unknown #
straight-curve $-1 0 -33.751761058029658 -8.2994495795422942 -1 0 0 I I #
vertex $-1 $166 $282 #
straight-curve $-1 0 33.751761058029658 -8.2994495795422942 1 0 0 I I #
point $-1 62.100283822138124 33.751761058029658 -8.2994495795422942 #
point $-1 62.100283822138124 -33.751761058029658 -8.2994495795422942 #
straight-curve $-1 -62.100283822138124 0 8.2994495795422942 0 -1 0 I I #
point $-1 -62.100283822138124 33.751761058029658 8.2994495795422942 #
point $-1 -62.100283822138124 -33.751761058029658 8.2994495795422942 #
straight-curve $-1 62.100283822138124 -33.751761058029658 0 0 0 -1 I I #
straight-curve $-1 62.100283822138124 33.751761058029658 0 0 0 -1 I I #
plane-surface $-1 0 -33.751761058029658 0 0 1 0 0 0 1 forward_v I I I I #
coedge $-1 $283 $186 $200 $261 reversed $120 $-1 #
coedge $-1 $186 $283 $252 $284 reversed $120 $-1 #
edge $-1 $253 -1.952512191345491 $250 1.9525121913454901 $187 $285 forward 7 unknown #
vertex $-1 $188 $286 #
straight-curve $-1 -67.367955893509674 33.751761058029658 4.3944251968513131 1 0 0 I I #
coedge $-1 $256 $189 $248 $284 forward $184 $-1 #
vertex $-1 $190 $287 #
straight-curve $-1 0 33.751761058029658 8.2994495795422942 -1 0 0 I I #
point $-1 -62.100283822138124 33.751761058029658 8.2994495795422942 #
coedge $-1 $193 $252 $195 $259 forward $184 $-1 #
straight-curve $-1 -62.100283822138124 0 8.2994495795422942 0 1 0 I I #
coedge $-1 $196 $195 $283 $288 forward $197 $-1 #
edge $-1 $289 -72.635627964881223 $198 -62.100283822138124 $195 $290 forward 7 unknown #
point $-1 -62.100283822138124 -33.751761058029658 8.2994495795422942 #
edge $-1 $262 -33.751761058029658 $250 33.751761058029658 $247 $291 forward 7 unknown #
vertex $-1 $261 $292 #
straight-curve $-1 -67.367955893509674 -33.751761058029658 4.3944251968513131 -1 0 0 I I #
coedge $-1 $266 $213 $207 $265 reversed $204 $-1 #
edge $-1 $273 -8.2994495795422942 $215 -2.0593246710504678 $207 $293 forward 7 unknown #
coedge $-1 $208 $264 $210 $268 reversed $204 $-1 #
straight-curve $-1 45.501976746956196 -33.751761058029658 54.810085467546728 0 0 -1 I I #
edge $-1 $211 45.501976746956196 $273 62.100283822138124 $266 $294 forward 7 unknown #
point $-1 45.501976746956196 -33.751761058029658 8.2994495795422942 #
straight-curve $-1 26.900565142273578 -33.751761058029658 2.059324671050466 1 0 0 I I #
point $-1 62.100283822138117 -33.751761058029658 2.0593246710504678 #
point $-1 45.501976746956196 -33.751761058029658 2.0593246710504678 #
vertex $-1 $219 $295 #
straight-curve $-1 62.100283822138124 0 8.2994495795422942 0 1 0 I I #
vertex $-1 $222 $296 #
point $-1 51.244350197008174 -27.703774939471938 4.0641550999387421 #
vertex $-1 $226 $297 #
point $-1 58.357910372086138 -27.703774939471938 4.0641550999387421 #
straight-curve $-1 -62.100283822138124 33.751761058029658 0 0 0 -1 I I #
point $-1 -62.100283822138124 -33.751761058029658 -8.2994495795422942 #
straight-curve $-1 -62.100283822138124 0 -8.2994495795422942 0 1 0 I I #
point $-1 -62.100283822138124 33.751761058029658 -8.2994495795422942 #
coedge $-1 $248 $247 $258 $288 reversed $120 $-1 #
edge $-1 $253 -33.751761058029658 $289 33.751761058029658 $248 $298 forward 7 unknown #
straight-curve $-1 -72.635627964881223 33.751761058029658 6.3469373881968032 0 0 -1 I I #
point $-1 -72.635627964881223 33.751761058029658 4.3944251968513131 #
point $-1 -72.635627964881223 33.751761058029658 8.2994495795422942 #
edge $-1 $289 -1.952512191345491 $262 1.9525121913454901 $283 $299 forward 7 unknown #
vertex $-1 $284 $300 #
straight-curve $-1 0 -33.751761058029658 8.2994495795422942 1 0 0 I I #
straight-curve $-1 -72.635627964881223 0 4.3944251968513131 0 1 0 I I #
point $-1 -72.635627964881223 -33.751761058029658 4.3944251968513131 #
straight-curve $-1 62.100283822138124 -33.751761058029658 0 0 0 -1 I I #
straight-curve $-1 0 -33.751761058029658 8.2994495795422942 1 0 0 I I #
point $-1 62.100283822138124 -33.751761058029658 8.2994495795422942 #
point $-1 50.244350197008174 -27.203774932773204 3.1981297000218225 #
point $-1 57.357910372086138 -27.203774932773204 3.1981297000218225 #
straight-curve $-1 -72.635627964881223 0 8.2994495795422942 0 -1 0 I I #
straight-curve $-1 -72.635627964881223 -33.751761058029658 6.3469373881968032 0 0 -1 I I #
point $-1 -72.635627964881223 -33.751761058029658 8.2994495795422942 #
End-of-ACIS-data 