500 0 10 0           
7 Unknown 11 ACIS 5.0 NT 24 Thu Mar 25 19:29:04 1999 
-1 9.9999999999999995e-007 1e-010 
body $-1 $10 $-1 $11 #
body $-1 $12 $-1 $13 #
body $-1 $14 $-1 $15 #
body $-1 $16 $-1 $17 #
body $-1 $18 $-1 $19 #
body $-1 $20 $-1 $21 #
body $-1 $22 $-1 $23 #
body $-1 $24 $-1 $25 #
body $-1 $26 $-1 $27 #
body $-1 $28 $-1 $29 #
lump $-1 $-1 $30 $0 #
transform $-1 1 0 0 0 1 0 0 0 1 78.703573717459648 49.930304250204046 16.028988416343314 1 rotate no_reflect no_shear #
lump $-1 $-1 $31 $1 #
transform $-1 1 0 0 0 1 0 0 0 1 78.703573717459648 49.930304250204046 16.028988416343314 1 rotate no_reflect no_shear #
lump $-1 $-1 $32 $2 #
transform $-1 1 0 0 0 1 0 0 0 1 78.703573717459648 49.930304250204046 16.028988416343314 1 rotate no_reflect no_shear #
lump $-1 $-1 $33 $3 #
transform $-1 1 0 0 0 1 0 0 0 1 78.703573717459648 49.930304250204046 16.028988416343314 1 rotate no_reflect no_shear #
lump $-1 $-1 $34 $4 #
transform $-1 1 0 0 0 1 0 0 0 1 78.703573717459648 49.930304250204046 16.028988416343314 1 rotate no_reflect no_shear #
lump $-1 $-1 $35 $5 #
transform $-1 1 0 0 0 1 0 0 0 1 78.703573717459648 49.930304250204046 16.028988416343314 1 rotate no_reflect no_shear #
lump $-1 $-1 $36 $6 #
transform $-1 1 0 0 0 1 0 0 0 1 78.703573717459648 49.930304250204046 16.028988416343314 1 rotate no_reflect no_shear #
lump $-1 $-1 $37 $7 #
transform $-1 1 0 0 0 1 0 0 0 1 78.703573717459648 49.930304250204046 16.028988416343314 1 rotate no_reflect no_shear #
lump $-1 $-1 $38 $8 #
transform $-1 1 0 0 0 1 0 0 0 1 78.703573717459648 49.930304250204046 16.028988416343314 1 rotate no_reflect no_shear #
lump $-1 $-1 $39 $9 #
transform $-1 1 0 0 0 1 0 0 0 1 78.703573717459648 49.930304250204046 16.028988416343314 1 rotate no_reflect no_shear #
shell $-1 $-1 $-1 $40 $-1 $10 #
shell $-1 $-1 $-1 $41 $-1 $12 #
shell $-1 $-1 $-1 $42 $-1 $14 #
shell $-1 $-1 $-1 $43 $-1 $16 #
shell $-1 $-1 $-1 $44 $-1 $18 #
shell $-1 $-1 $-1 $45 $-1 $20 #
shell $-1 $-1 $-1 $46 $-1 $22 #
shell $-1 $-1 $-1 $47 $-1 $24 #
shell $-1 $-1 $-1 $48 $-1 $26 #
shell $-1 $-1 $-1 $49 $-1 $28 #
face $-1 $50 $51 $30 $-1 $52 forward single #
face $-1 $53 $54 $31 $-1 $55 reversed single #
face $-1 $56 $57 $32 $-1 $58 reversed single #
face $-1 $59 $60 $33 $-1 $61 forward single #
face $-1 $62 $63 $34 $-1 $64 forward single #
face $-1 $65 $66 $35 $-1 $67 forward single #
face $-1 $68 $69 $36 $-1 $70 reversed single #
face $-1 $71 $72 $37 $-1 $73 forward single #
face $-1 $74 $75 $38 $-1 $76 reversed single #
face $-1 $77 $78 $39 $-1 $79 forward single #
face $-1 $80 $81 $30 $-1 $82 reversed single #
loop $-1 $-1 $83 $40 #
plane-surface $-1 0 0 16.028988416343314 0 0 1 1 0 0 forward_v I I I I #
face $-1 $84 $85 $31 $-1 $86 reversed single #
loop $-1 $-1 $87 $41 #
plane-surface $-1 -70.634188527806685 -28.839051664057173 0 0 1 0 0 0 1 forward_v I I I I #
face $-1 $88 $89 $32 $-1 $90 reversed single #
loop $-1 $-1 $91 $42 #
plane-surface $-1 54.846983717470778 -155.25624552529186 118.13458848651749 -1 0 0 0 -0.66913061440640931 0.74314481823134659 forward_v I I I I #
face $-1 $92 $93 $33 $-1 $94 forward single #
loop $-1 $95 $96 $43 #
cone-surface $-1 42.637036352998535 -40.462132855614634 7.2493772775586844 0 0.66913061440640931 -0.74314481823134659 1 0 0 1 I I 0 1 1 forward I I I I #
face $-1 $97 $98 $34 $-1 $99 forward single #
loop $-1 $100 $101 $44 #
cone-surface $-1 47.215766614675616 -40.462132855614634 7.2493772775586844 0 0.66913061440640931 -0.74314481823134659 1 0 0 1 I I 0 1 1 forward I I I I #
face $-1 $102 $103 $35 $-1 $104 forward single #
loop $-1 $105 $106 $45 #
cone-surface $-1 51.794496876352696 -40.462132855614634 7.2493772775586844 0 0.66913061440640931 -0.74314481823134659 1 0 0 1 I I 0 1 1 forward I I I I #
face $-1 $107 $108 $36 $-1 $109 reversed single #
loop $-1 $-1 $110 $46 #
plane-surface $-1 -13.353466020080702 58.414315015527265 197.13527889976666 1 0 0 0 -0.57357644374324357 -0.81915203911291934 forward_v I I I I #
face $-1 $111 $112 $37 $-1 $113 forward single #
loop $-1 $114 $115 $47 #
cone-surface $-1 -2.6420404152138701 44.549489911279871 11.001513693648599 0 -0.57357644374324357 -0.81915203911291934 2 0 0 1 I I 0 1 2 forward I I I I #
face $-1 $116 $117 $38 $-1 $118 reversed single #
loop $-1 $-1 $119 $48 #
plane-surface $-1 57.280722507725983 58.414315015527265 197.13527889976666 1 0 0 0 -0.57357644374324357 -0.81915203911291934 forward_v I I I I #
face $-1 $120 $121 $39 $-1 $122 forward single #
loop $-1 $123 $124 $49 #
cone-surface $-1 67.992148112592815 44.549489911279871 11.001513693648599 0 -0.57357644374324357 -0.81915203911291934 2 0 0 1 I I 0 1 2 forward I I I I #
face $-1 $125 $126 $30 $-1 $127 reversed single #
loop $-1 $-1 $128 $50 #
plane-surface $-1 0 0 -16.028988416343314 0 0 1 1 0 0 forward_v I I I I #
coedge $-1 $129 $130 $131 $132 forward $51 $-1 #
face $-1 $133 $134 $31 $-1 $135 reversed single #
loop $-1 $-1 $136 $53 #
plane-surface $-1 -70.634188527806685 -24.477026159478378 0 0 -1 0 0 0 -1 forward_v I I I I #
coedge $-1 $137 $138 $139 $140 reversed $54 $-1 #
face $-1 $141 $142 $32 $-1 $143 reversed single #
loop $-1 $-1 $144 $56 #
plane-surface $-1 47.21576661467563 -49.93030425020406 1.1582825176796092 0 -0.66913061440640931 0.74314481823134659 1 0 0 forward_v I I I I #
coedge $-1 $145 $146 $147 $148 reversed $57 $-1 #
face $-1 $-1 $149 $33 $-1 $150 forward single #
loop $-1 $151 $152 $59 #
cone-surface $-1 42.637036352998535 -38.917192011688826 5.5335466789902306 0 0.66913061440640931 -0.74314481823134659 0.5 0 0 1 I I -0.70710678118654746 0.70710678118654746 0.5 forward I I I I #
loop $-1 $-1 $153 $43 #
coedge $-1 $96 $96 $154 $155 reversed $60 $-1 #
face $-1 $-1 $156 $34 $-1 $157 forward single #
loop $-1 $158 $159 $62 #
cone-surface $-1 47.215766614675616 -38.917192011688826 5.5335466789902306 0 0.66913061440640931 -0.74314481823134659 0.5 0 0 1 I I -0.70710678118654746 0.70710678118654746 0.5 forward I I I I #
loop $-1 $-1 $160 $44 #
coedge $-1 $101 $101 $161 $162 reversed $63 $-1 #
face $-1 $-1 $163 $35 $-1 $164 forward single #
loop $-1 $165 $166 $65 #
cone-surface $-1 51.794496876352696 -38.917192011688826 5.5335466789902306 0 0.66913061440640931 -0.74314481823134659 0.5 0 0 1 I I -0.70710678118654746 0.70710678118654746 0.5 forward I I I I #
loop $-1 $-1 $167 $45 #
coedge $-1 $106 $106 $168 $169 reversed $66 $-1 #
face $-1 $170 $171 $36 $-1 $172 reversed single #
loop $-1 $-1 $173 $68 #
plane-surface $-1 -2.6420404152138701 -31.870716829962163 68.194893107504583 0 0.57357644374324357 0.81915203911291934 1 0 0 forward_v I I I I #
coedge $-1 $174 $175 $176 $177 reversed $69 $-1 #
face $-1 $-1 $178 $37 $-1 $179 forward single #
loop $-1 $180 $181 $71 #
cone-surface $-1 -2.6420404152138701 42.245293981861423 7.7107809331105308 0 -0.57357644374324357 -0.81915203911291934 1 0 0 1 I I -0.70710678118654746 0.70710678118654746 1 forward I I I I #
loop $-1 $-1 $182 $47 #
coedge $-1 $115 $115 $183 $184 reversed $72 $-1 #
face $-1 $185 $186 $38 $-1 $187 forward single #
loop $-1 $-1 $188 $74 #
plane-surface $-1 67.992148112592815 -31.870716829962163 68.194893107504583 0 0.57357644374324357 0.81915203911291934 1 0 0 forward_v I I I I #
coedge $-1 $189 $190 $191 $192 reversed $75 $-1 #
face $-1 $-1 $193 $39 $-1 $194 forward single #
loop $-1 $195 $196 $77 #
cone-surface $-1 67.992148112592815 42.245293981861423 7.7107809331105308 0 -0.57357644374324357 -0.81915203911291934 1 0 0 1 I I -0.70710678118654746 0.70710678118654746 1 forward I I I I #
loop $-1 $-1 $197 $49 #
coedge $-1 $124 $124 $198 $199 reversed $78 $-1 #
face $-1 $200 $201 $30 $-1 $202 reversed single #
loop $-1 $-1 $203 $80 #
plane-surface $-1 0 -49.930304250204046 0 0 1 0 0 0 1 forward_v I I I I #
coedge $-1 $204 $205 $206 $207 forward $81 $-1 #
coedge $-1 $208 $83 $209 $210 forward $51 $-1 #
coedge $-1 $83 $208 $211 $212 forward $51 $-1 #
coedge $-1 $213 $214 $83 $132 reversed $215 $-1 #
edge $-1 $216 -49.930304250204046 $217 49.930304250204046 $131 $218 forward 7 unknown #
face $-1 $219 $220 $31 $-1 $221 reversed single #
loop $-1 $-1 $222 $84 #
plane-surface $-1 -62.564803338153723 -26.658038911767775 0 -1 0 0 0 0 1 forward_v I I I I #
coedge $-1 $223 $224 $225 $226 forward $85 $-1 #
coedge $-1 $227 $87 $228 $229 reversed $54 $-1 #
coedge $-1 $87 $227 $230 $231 reversed $54 $-1 #
coedge $-1 $232 $233 $87 $140 forward $234 $-1 #
edge $-1 $235 -16.028988416343314 $236 16.028988416343314 $139 $237 forward 7 unknown #
face $-1 $238 $239 $32 $-1 $240 reversed single #
loop $-1 $-1 $241 $88 #
plane-surface $-1 39.584549511880482 -155.25624552529186 118.13458848651749 1 0 0 0 0.66913061440640931 -0.74314481823134659 forward_v I I I I #
coedge $-1 $242 $243 $244 $245 reversed $89 $-1 #
coedge $-1 $146 $91 $246 $247 reversed $57 $-1 #
coedge $-1 $91 $145 $242 $248 reversed $57 $-1 #
coedge $-1 $244 $249 $91 $148 forward $250 $-1 #
edge $-1 $251 27.697818512441884 $252 44.213410228175505 $147 $253 forward 7 unknown #
loop $-1 $-1 $154 $92 #
plane-surface $-1 47.21576661467563 -49.93030425020406 1.1582825176796092 0 -0.66913061440640931 0.74314481823134659 1 0 0 forward_v I I I I #
loop $-1 $-1 $254 $59 #
coedge $-1 $152 $152 $153 $255 reversed $93 $-1 #
coedge $-1 $153 $153 $152 $255 forward $95 $-1 #
coedge $-1 $154 $154 $96 $155 forward $149 $-1 #
edge $-1 $256 0 $256 6.2831853071796004 $154 $257 forward 7 unknown #
loop $-1 $-1 $161 $97 #
plane-surface $-1 47.21576661467563 -49.93030425020406 1.1582825176796092 0 -0.66913061440640931 0.74314481823134659 1 0 0 forward_v I I I I #
loop $-1 $-1 $258 $62 #
coedge $-1 $159 $159 $160 $259 reversed $98 $-1 #
coedge $-1 $160 $160 $159 $259 forward $100 $-1 #
coedge $-1 $161 $161 $101 $162 forward $156 $-1 #
edge $-1 $260 0 $260 6.2831853071796004 $161 $261 forward 7 unknown #
loop $-1 $-1 $168 $102 #
plane-surface $-1 47.21576661467563 -49.93030425020406 1.1582825176796092 0 -0.66913061440640931 0.74314481823134659 1 0 0 forward_v I I I I #
loop $-1 $-1 $262 $65 #
coedge $-1 $166 $166 $167 $263 reversed $103 $-1 #
coedge $-1 $167 $167 $166 $263 forward $105 $-1 #
coedge $-1 $168 $168 $106 $169 forward $163 $-1 #
edge $-1 $264 0 $264 6.2831853071796004 $168 $265 forward 7 unknown #
face $-1 $266 $267 $36 $-1 $268 reversed single #
loop $-1 $-1 $269 $107 #
plane-surface $-1 8.0693851896529623 58.414315015527265 197.13527889976666 -1 0 0 0 0.57357644374324357 0.81915203911291934 forward_v I I I I #
coedge $-1 $270 $271 $272 $273 reversed $108 $-1 #
coedge $-1 $175 $110 $274 $275 reversed $69 $-1 #
coedge $-1 $110 $174 $270 $276 reversed $69 $-1 #
coedge $-1 $272 $277 $110 $177 forward $278 $-1 #
edge $-1 $279 -20.723146742440413 $280 -13.42275703594246 $176 $281 forward 7 unknown #
loop $-1 $-1 $183 $111 #
plane-surface $-1 -2.6420404152138701 -31.870716829962163 68.194893107504583 0 0.57357644374324357 0.81915203911291934 1 0 0 forward_v I I I I #
loop $-1 $-1 $282 $71 #
coedge $-1 $181 $181 $182 $283 reversed $112 $-1 #
coedge $-1 $182 $182 $181 $283 forward $114 $-1 #
coedge $-1 $183 $183 $115 $184 forward $178 $-1 #
edge $-1 $284 1.5283146581432758e-015 $284 6.2831853071796022 $183 $285 forward 7 unknown #
face $-1 $286 $287 $38 $-1 $288 reversed single #
loop $-1 $-1 $191 $116 #
plane-surface $-1 0 0 16.028988416343314 0 0 1 1 0 0 forward_v I I I I #
coedge $-1 $289 $290 $291 $292 reversed $117 $-1 #
coedge $-1 $190 $119 $293 $294 reversed $75 $-1 #
coedge $-1 $119 $189 $289 $295 reversed $75 $-1 #
coedge $-1 $291 $296 $119 $192 forward $186 $-1 #
edge $-1 $297 -20.723146742440413 $298 -13.42275703594246 $191 $299 forward 7 unknown #
loop $-1 $-1 $198 $120 #
plane-surface $-1 67.992148112592815 -31.870716829962163 68.194893107504583 0 0.57357644374324357 0.81915203911291934 1 0 0 forward_v I I I I #
loop $-1 $-1 $300 $77 #
coedge $-1 $196 $196 $197 $301 reversed $121 $-1 #
coedge $-1 $197 $197 $196 $301 forward $123 $-1 #
coedge $-1 $198 $198 $124 $199 forward $193 $-1 #
edge $-1 $302 1.5283146581432758e-015 $302 6.2831853071796022 $198 $303 forward 7 unknown #
face $-1 $304 $305 $30 $-1 $306 reversed single #
loop $-1 $-1 $307 $125 #
plane-surface $-1 -78.703573717459648 0 0 1 0 0 0 0 -1 forward_v I I I I #
coedge $-1 $308 $211 $309 $310 forward $126 $-1 #
coedge $-1 $311 $128 $308 $312 forward $81 $-1 #
coedge $-1 $128 $311 $313 $314 forward $81 $-1 #
coedge $-1 $214 $213 $128 $207 reversed $215 $-1 #
edge $-1 $315 -49.930304250204046 $316 49.930304250204046 $206 $317 forward 7 unknown #
coedge $-1 $130 $129 $318 $319 forward $51 $-1 #
coedge $-1 $320 $321 $129 $210 reversed $305 $-1 #
edge $-1 $217 -78.703573717459648 $322 78.703573717459648 $209 $323 forward 7 unknown #
coedge $-1 $203 $324 $130 $212 reversed $126 $-1 #
edge $-1 $325 -78.703573717459648 $216 78.703573717459648 $211 $326 forward 7 unknown #
coedge $-1 $206 $131 $324 $327 forward $215 $-1 #
coedge $-1 $131 $206 $320 $328 reversed $215 $-1 #
loop $-1 $-1 $213 $304 #
vertex $-1 $132 $329 #
vertex $-1 $132 $330 #
straight-curve $-1 78.703573717459648 0 16.028988416343314 0 1 0 I I #
face $-1 $331 $332 $31 $-1 $333 forward single #
loop $-1 $-1 $334 $133 #
plane-surface $-1 0 0 -16.028988416343314 0 0 1 1 0 0 forward_v I I I I #
coedge $-1 $335 $336 $227 $337 forward $134 $-1 #
coedge $-1 $338 $136 $334 $339 reversed $85 $-1 #
coedge $-1 $136 $338 $340 $341 reversed $85 $-1 #
coedge $-1 $336 $335 $136 $226 reversed $134 $-1 #
edge $-1 $342 -16.028988416343314 $343 16.028988416343314 $225 $344 forward 7 unknown #
coedge $-1 $138 $137 $222 $337 reversed $54 $-1 #
coedge $-1 $345 $346 $137 $229 forward $220 $-1 #
edge $-1 $347 27.24770907425038 $235 43.386479453556305 $228 $348 forward 7 unknown #
coedge $-1 $349 $350 $138 $231 forward $332 $-1 #
edge $-1 $236 -43.386479453556305 $351 -27.24770907425038 $230 $352 forward 7 unknown #
coedge $-1 $353 $139 $350 $354 reversed $234 $-1 #
coedge $-1 $139 $353 $345 $355 reversed $234 $-1 #
loop $-1 $-1 $353 $331 #
vertex $-1 $355 $356 #
vertex $-1 $140 $357 #
straight-curve $-1 -78.703573717459648 -28.839051664057173 0 0 0 1 I I #
face $-1 $-1 $250 $32 $-1 $358 forward single #
loop $-1 $-1 $359 $141 #
plane-surface $-1 0 -49.930304250204046 0 0 1 0 0 0 1 forward_v I I I I #
coedge $-1 $360 $361 $362 $363 reversed $142 $-1 #
coedge $-1 $364 $144 $146 $248 forward $89 $-1 #
coedge $-1 $144 $364 $360 $365 forward $89 $-1 #
coedge $-1 $362 $147 $144 $245 forward $250 $-1 #
edge $-1 $252 -31.239100410132963 $366 -15.976666204542667 $244 $367 forward 7 unknown #
coedge $-1 $368 $369 $145 $247 forward $239 $-1 #
edge $-1 $370 -57.90901172557912 $251 -43.038305826915433 $246 $371 forward 7 unknown #
edge $-1 $252 -22.223920978201864 $370 -1.9178179933549516e-014 $146 $372 forward 7 unknown #
coedge $-1 $147 $362 $368 $373 forward $250 $-1 #
loop $-1 $-1 $362 $238 #
vertex $-1 $247 $374 #
vertex $-1 $148 $375 #
straight-curve $-1 54.846983717470778 -77.62812276264593 16.02898841634331 0 1 0 I I #
coedge $-1 $254 $254 $-1 $376 reversed $151 $-1 #
edge $-1 $377 0 $377 6.2831853071796004 $152 $378 forward 7 unknown #
vertex $-1 $155 $379 #
ellipse-curve $-1 42.637036352998535 -41.672508392337235 8.593635467011465 0 -0.66913061440640931 0.74314481823134659 1 0 0 1 I I #
coedge $-1 $258 $258 $-1 $380 reversed $158 $-1 #
edge $-1 $381 0 $381 6.2831853071796004 $159 $382 forward 7 unknown #
vertex $-1 $162 $383 #
ellipse-curve $-1 47.215766614675616 -41.672508392337235 8.593635467011465 0 -0.66913061440640931 0.74314481823134659 1 0 0 1 I I #
coedge $-1 $262 $262 $-1 $384 reversed $165 $-1 #
edge $-1 $385 0 $385 6.2831853071796004 $166 $386 forward 7 unknown #
vertex $-1 $169 $387 #
ellipse-curve $-1 51.794496876352696 -41.672508392337235 8.593635467011465 0 -0.66913061440640931 0.74314481823134659 1 0 0 1 I I #
face $-1 $-1 $278 $36 $-1 $388 forward single #
loop $-1 $-1 $389 $170 #
plane-surface $-1 0 49.930304250204046 0 0 -1 0 0 0 -1 forward_v I I I I #
coedge $-1 $390 $391 $392 $393 reversed $171 $-1 #
coedge $-1 $394 $173 $175 $276 forward $108 $-1 #
coedge $-1 $173 $394 $390 $395 forward $108 $-1 #
coedge $-1 $392 $176 $173 $273 forward $278 $-1 #
edge $-1 $280 -12.032445812473767 $396 9.3904053972598973 $272 $397 forward 7 unknown #
coedge $-1 $398 $399 $174 $275 forward $267 $-1 #
edge $-1 $400 -87.650439036079149 $279 -82.53865103354002 $274 $401 forward 7 unknown #
edge $-1 $280 90.948478202345541 $400 99.860608500408091 $175 $402 forward 7 unknown #
coedge $-1 $176 $392 $398 $403 forward $278 $-1 #
loop $-1 $-1 $392 $266 #
vertex $-1 $275 $404 #
vertex $-1 $177 $405 #
straight-curve $-1 -13.353466020080702 29.207157507763633 16.02898841634331 0 -1 0 I I #
coedge $-1 $282 $282 $-1 $406 reversed $180 $-1 #
edge $-1 $407 0 $407 6.2831853071796004 $181 $408 forward 7 unknown #
vertex $-1 $184 $409 #
ellipse-curve $-1 -2.6420404152138701 46.280109396955083 13.473094415073755 0 0.57357644374324357 0.81915203911291934 2 0 0 1 I I #
face $-1 $-1 $410 $38 $-1 $411 reversed single #
loop $-1 $-1 $412 $185 #
plane-surface $-1 78.703573717459648 0 0 -1 0 0 0 0 1 forward_v I I I I #
coedge $-1 $413 $188 $190 $295 forward $117 $-1 #
coedge $-1 $188 $413 $412 $414 reversed $117 $-1 #
coedge $-1 $415 $191 $188 $292 forward $186 $-1 #
edge $-1 $298 23.284648451429575 $416 44.70749966116324 $291 $417 forward 7 unknown #
coedge $-1 $418 $419 $189 $294 forward $410 $-1 #
edge $-1 $420 -87.650439036079149 $297 -82.53865103354002 $293 $421 forward 7 unknown #
edge $-1 $298 90.948478202345541 $420 99.860608500408091 $190 $422 forward 7 unknown #
coedge $-1 $191 $415 $418 $423 forward $186 $-1 #
vertex $-1 $294 $424 #
vertex $-1 $192 $425 #
straight-curve $-1 57.280722507725983 29.207157507763633 16.02898841634331 0 -1 0 I I #
coedge $-1 $300 $300 $-1 $426 reversed $195 $-1 #
edge $-1 $427 0 $427 6.2831853071796004 $196 $428 forward 7 unknown #
vertex $-1 $199 $429 #
ellipse-curve $-1 67.992148112592815 46.280109396955083 13.473094415073755 0 0.57357644374324357 0.81915203911291934 2 0 0 1 I I #
face $-1 $-1 $215 $30 $-1 $430 reversed single #
loop $-1 $-1 $320 $200 #
plane-surface $-1 0 49.930304250204046 0 0 -1 0 0 0 -1 forward_v I I I I #
coedge $-1 $431 $318 $321 $432 forward $201 $-1 #
coedge $-1 $324 $203 $204 $312 reversed $126 $-1 #
coedge $-1 $318 $431 $203 $310 reversed $201 $-1 #
edge $-1 $325 -16.028988416343314 $433 16.028988416343314 $309 $434 forward 7 unknown #
coedge $-1 $205 $204 $431 $435 forward $81 $-1 #
edge $-1 $316 -78.703573717459648 $433 78.703573717459648 $308 $436 forward 7 unknown #
coedge $-1 $321 $320 $205 $314 reversed $305 $-1 #
edge $-1 $437 -78.703573717459648 $315 78.703573717459648 $313 $438 forward 7 unknown #
vertex $-1 $207 $439 #
vertex $-1 $327 $440 #
straight-curve $-1 78.703573717459648 0 -16.028988416343314 0 -1 0 I I #
coedge $-1 $307 $309 $208 $319 reversed $201 $-1 #
edge $-1 $322 -49.930304250204046 $325 49.930304250204046 $318 $441 forward 7 unknown #
coedge $-1 $313 $209 $214 $328 forward $305 $-1 #
coedge $-1 $209 $313 $307 $432 reversed $305 $-1 #
vertex $-1 $210 $442 #
straight-curve $-1 0 49.930304250204046 16.028988416343314 -1 0 0 I I #
coedge $-1 $211 $308 $213 $327 reversed $126 $-1 #
vertex $-1 $319 $443 #
straight-curve $-1 0 -49.930304250204046 16.028988416343314 1 0 0 I I #
edge $-1 $216 -16.028988416343314 $316 16.028988416343314 $213 $444 forward 7 unknown #
edge $-1 $217 -16.028988416343314 $315 16.028988416343314 $214 $445 forward 7 unknown #
point $-1 78.703573717459648 -49.930304250204046 16.028988416343314 #
point $-1 78.703573717459648 49.930304250204046 16.028988416343314 #
face $-1 $-1 $234 $31 $-1 $446 reversed single #
loop $-1 $-1 $340 $219 #
plane-surface $-1 0 0 16.028988416343314 0 0 1 1 0 0 forward_v I I I I #
coedge $-1 $346 $345 $223 $339 forward $220 $-1 #
coedge $-1 $225 $222 $346 $447 reversed $134 $-1 #
coedge $-1 $222 $225 $349 $448 reversed $134 $-1 #
edge $-1 $351 -16.028988416343314 $347 16.028988416343314 $222 $449 forward 7 unknown #
coedge $-1 $224 $223 $353 $450 reversed $85 $-1 #
edge $-1 $451 -43.386479453556305 $343 -27.24770907425038 $334 $452 forward 7 unknown #
coedge $-1 $350 $349 $224 $341 forward $332 $-1 #
edge $-1 $342 27.24770907425038 $453 43.386479453556305 $340 $454 forward 7 unknown #
vertex $-1 $341 $455 #
vertex $-1 $339 $456 #
straight-curve $-1 -62.564803338153723 -24.477026159478378 0 0 0 -1 I I #
coedge $-1 $334 $228 $233 $355 forward $220 $-1 #
coedge $-1 $228 $334 $335 $447 forward $220 $-1 #
vertex $-1 $229 $457 #
straight-curve $-1 -35.317094263903343 -28.839051664057173 -16.028988416343314 -1 0 0 I I #
coedge $-1 $340 $230 $336 $448 forward $332 $-1 #
coedge $-1 $230 $340 $232 $354 forward $332 $-1 #
vertex $-1 $231 $458 #
straight-curve $-1 -35.317094263903343 -28.839051664057173 16.028988416343314 1 0 0 I I #
coedge $-1 $233 $232 $338 $450 forward $234 $-1 #
edge $-1 $453 24.477026159478378 $236 28.839051664057173 $232 $459 forward 7 unknown #
edge $-1 $235 -28.839051664057173 $451 -24.477026159478378 $233 $460 forward 7 unknown #
point $-1 -78.703573717459648 -28.839051664057173 -16.028988416343314 #
point $-1 -78.703573717459648 -28.839051664057173 16.028988416343314 #
plane-surface $-1 0 0 16.028988416343314 0 0 1 1 0 0 forward_v I I I I #
coedge $-1 $369 $368 $361 $461 forward $239 $-1 #
coedge $-1 $361 $241 $243 $365 reversed $142 $-1 #
coedge $-1 $241 $360 $359 $461 reversed $142 $-1 #
coedge $-1 $249 $244 $241 $363 forward $250 $-1 #
edge $-1 $366 -44.213410228175505 $462 -27.697818512441884 $362 $463 forward 7 unknown #
coedge $-1 $243 $242 $369 $464 reversed $89 $-1 #
edge $-1 $465 1.9178179933549516e-014 $366 22.223920978201864 $360 $466 forward 7 unknown #
vertex $-1 $245 $467 #
straight-curve $-1 23.607883307337815 -33.414712534470418 16.028988416343314 -1 0 0 I I #
coedge $-1 $359 $246 $249 $373 reversed $239 $-1 #
coedge $-1 $246 $359 $364 $464 forward $239 $-1 #
vertex $-1 $247 $468 #
straight-curve $-1 54.846983717470778 -49.930304250204046 59.067294243258743 0 0 1 I I #
straight-curve $-1 54.846983717470778 -49.93030425020406 1.1582825176796092 0 -0.74314481823134659 -0.66913061440640931 I I #
edge $-1 $462 39.584549511880482 $251 54.846983717470778 $368 $469 forward 7 unknown #
point $-1 54.846983717470778 -49.930304250204046 16.028988416343314 #
point $-1 54.846983717470778 -33.414712534470425 16.028988416343314 #
edge $-1 $470 1 $470 0 $254 $-1 forward 7 unknown #
vertex $-1 $255 $471 #
ellipse-curve $-1 42.637036352998535 -39.251757318892032 5.9051190881059039 0 -0.66913061440640931 0.74314481823134659 1 0 0 1 I I #
point $-1 43.637036352998535 -41.672508392337235 8.593635467011465 #
edge $-1 $472 1 $472 0 $258 $-1 forward 7 unknown #
vertex $-1 $259 $473 #
ellipse-curve $-1 47.215766614675616 -39.251757318892032 5.9051190881059039 0 -0.66913061440640931 0.74314481823134659 1 0 0 1 I I #
point $-1 48.215766614675616 -41.672508392337235 8.593635467011465 #
edge $-1 $474 1 $474 0 $262 $-1 forward 7 unknown #
vertex $-1 $263 $475 #
ellipse-curve $-1 51.794496876352696 -39.251757318892032 5.9051190881059039 0 -0.66913061440640931 0.74314481823134659 1 0 0 1 I I #
point $-1 52.794496876352696 -41.672508392337235 8.593635467011465 #
plane-surface $-1 0 0 16.028988416343314 0 0 1 1 0 0 forward_v I I I I #
coedge $-1 $399 $398 $391 $476 forward $267 $-1 #
coedge $-1 $391 $269 $271 $395 reversed $171 $-1 #
coedge $-1 $269 $390 $389 $476 reversed $171 $-1 #
coedge $-1 $277 $272 $269 $393 forward $278 $-1 #
edge $-1 $396 13.42275703594246 $477 20.723146742440413 $392 $478 forward 7 unknown #
coedge $-1 $271 $270 $399 $479 reversed $108 $-1 #
edge $-1 $480 -99.860608500408091 $396 -90.948478202345541 $390 $481 forward 7 unknown #
vertex $-1 $273 $482 #
straight-curve $-1 -1.3210202076069351 42.629914543706086 16.028988416343317 1 0 0 I I #
coedge $-1 $389 $274 $277 $403 reversed $267 $-1 #
coedge $-1 $274 $389 $394 $479 forward $267 $-1 #
vertex $-1 $275 $483 #
straight-curve $-1 -13.353466020080702 49.930304250204046 98.56763944988333 0 0 1 I I #
straight-curve $-1 -13.353466020080702 -31.870716829962163 68.194893107504583 0 0.81915203911291934 -0.57357644374324357 I I #
edge $-1 $477 -8.0693851896529623 $279 13.353466020080702 $398 $484 forward 7 unknown #
point $-1 -13.353466020080702 49.930304250204046 16.028988416343314 #
point $-1 -13.353466020080702 42.629914543706093 16.028988416343317 #
edge $-1 $485 1 $485 0 $282 $-1 forward 7 unknown #
vertex $-1 $283 $486 #
ellipse-curve $-1 -2.6420404152138701 42.818870425604665 8.5299329722234507 0 0.57357644374324357 0.81915203911291934 2 0 0 1 I I #
point $-1 -0.64204041521387012 46.280109396955083 13.473094415073749 #
loop $-1 $-1 $293 $286 #
plane-surface $-1 0 49.930304250204046 0 0 -1 0 0 0 -1 forward_v I I I I #
coedge $-1 $487 $488 $290 $414 forward $287 $-1 #
coedge $-1 $290 $289 $419 $489 reversed $117 $-1 #
edge $-1 $416 58.337504727692021 $490 67.249635025754557 $412 $491 forward 7 unknown #
coedge $-1 $296 $291 $488 $492 forward $186 $-1 #
vertex $-1 $492 $493 #
straight-curve $-1 33.996074056296408 42.629914543706086 16.028988416343317 1 0 0 I I #
coedge $-1 $494 $293 $296 $423 reversed $410 $-1 #
coedge $-1 $293 $494 $413 $489 forward $410 $-1 #
vertex $-1 $294 $495 #
straight-curve $-1 57.280722507725983 49.930304250204046 98.56763944988333 0 0 1 I I #
straight-curve $-1 57.280722507725983 -31.870716829962163 68.194893107504583 0 0.81915203911291934 -0.57357644374324357 I I #
edge $-1 $496 -78.703573717459648 $297 -57.280722507725983 $418 $497 forward 7 unknown #
point $-1 57.280722507725983 49.930304250204046 16.028988416343314 #
point $-1 57.280722507725983 42.629914543706093 16.028988416343317 #
edge $-1 $498 1 $498 0 $300 $-1 forward 7 unknown #
vertex $-1 $301 $499 #
ellipse-curve $-1 67.992148112592815 42.818870425604665 8.5299329722234507 0 0.57357644374324357 0.81915203911291934 2 0 0 1 I I #
point $-1 69.992148112592815 46.280109396955083 13.473094415073749 #
plane-surface $-1 78.703573717459648 0 0 -1 0 0 0 0 1 forward_v I I I I #
coedge $-1 $309 $307 $311 $435 reversed $201 $-1 #
edge $-1 $322 -16.028988416343314 $437 16.028988416343314 $321 $500 forward 7 unknown #
vertex $-1 $435 $501 #
straight-curve $-1 -78.703573717459648 -49.930304250204046 0 0 0 -1 I I #
edge $-1 $433 -49.930304250204046 $437 49.930304250204046 $431 $502 forward 7 unknown #
straight-curve $-1 0 -49.930304250204046 -16.028988416343314 -1 0 0 I I #
vertex $-1 $314 $503 #
straight-curve $-1 0 49.930304250204046 -16.028988416343314 1 0 0 I I #
point $-1 78.703573717459648 49.930304250204046 -16.028988416343314 #
point $-1 78.703573717459648 -49.930304250204046 -16.028988416343314 #
straight-curve $-1 -78.703573717459648 0 16.028988416343314 0 -1 0 I I #
point $-1 -78.703573717459648 49.930304250204046 16.028988416343314 #
point $-1 -78.703573717459648 -49.930304250204046 16.028988416343314 #
straight-curve $-1 78.703573717459648 -49.930304250204046 0 0 0 -1 I I #
straight-curve $-1 78.703573717459648 49.930304250204046 0 0 0 -1 I I #
plane-surface $-1 -78.703573717459648 0 0 1 0 0 0 0 -1 forward_v I I I I #
edge $-1 $343 11.14800670359449 $347 15.510032208173286 $346 $504 forward 7 unknown #
edge $-1 $351 -15.510032208173286 $342 -11.14800670359449 $349 $505 forward 7 unknown #
straight-curve $-1 -62.564803338153723 -28.839051664057173 0 0 0 -1 I I #
edge $-1 $453 -16.028988416343314 $451 16.028988416343314 $353 $506 forward 7 unknown #
vertex $-1 $450 $507 #
straight-curve $-1 -35.317094263903343 -24.477026159478378 -16.028988416343314 1 0 0 I I #
vertex $-1 $354 $508 #
straight-curve $-1 -35.317094263903343 -24.477026159478378 16.028988416343314 -1 0 0 I I #
point $-1 -62.564803338153723 -24.477026159478378 16.028988416343314 #
point $-1 -62.564803338153723 -24.477026159478378 -16.028988416343314 #
point $-1 -62.564803338153723 -28.839051664057173 -16.028988416343314 #
point $-1 -62.564803338153723 -28.839051664057173 16.028988416343314 #
straight-curve $-1 -78.703573717459648 0 16.028988416343314 0 -1 0 I I #
straight-curve $-1 -78.703573717459648 0 -16.028988416343314 0 1 0 I I #
edge $-1 $462 43.038305826915433 $465 57.90901172557912 $359 $509 forward 7 unknown #
vertex $-1 $373 $510 #
straight-curve $-1 39.584549511880482 -77.62812276264593 16.02898841634331 0 -1 0 I I #
edge $-1 $465 15.976666204542667 $370 31.239100410132963 $369 $511 forward 7 unknown #
vertex $-1 $464 $512 #
straight-curve $-1 39.584549511880482 -49.93030425020406 1.1582825176796092 0 0.74314481823134659 0.66913061440640931 I I #
point $-1 39.584549511880482 -33.414712534470425 16.028988416343314 #
point $-1 54.846983717470778 -49.930304250204046 1.1582825176796221 #
straight-curve $-1 0 -49.930304250204046 16.028988416343314 1 0 0 I I #
vertex $-1 $376 $513 #
point $-1 43.637036352998535 -39.251757318892032 5.9051190881059039 #
vertex $-1 $380 $514 #
point $-1 48.215766614675616 -39.251757318892032 5.9051190881059039 #
vertex $-1 $384 $515 #
point $-1 52.794496876352696 -39.251757318892032 5.9051190881059039 #
edge $-1 $477 82.53865103354002 $480 87.650439036079149 $389 $516 forward 7 unknown #
vertex $-1 $403 $517 #
straight-curve $-1 8.0693851896529623 29.207157507763633 16.02898841634331 0 1 0 I I #
edge $-1 $480 -9.3904053972598973 $400 12.032445812473767 $399 $518 forward 7 unknown #
vertex $-1 $479 $519 #
straight-curve $-1 8.0693851896529623 -31.870716829962163 68.194893107504583 0 -0.81915203911291934 0.57357644374324357 I I #
point $-1 8.0693851896529623 42.629914543706093 16.028988416343317 #
point $-1 -13.353466020080702 49.930304250204046 10.917200413804188 #
straight-curve $-1 0 49.930304250204046 16.028988416343314 -1 0 0 I I #
vertex $-1 $406 $520 #
point $-1 -0.64204041521387012 42.818870425604665 8.5299329722234507 #
coedge $-1 $488 $412 $494 $521 reversed $287 $-1 #
coedge $-1 $412 $487 $415 $492 reversed $287 $-1 #
edge $-1 $490 -44.70749966116324 $420 -23.284648451429575 $419 $522 forward 7 unknown #
vertex $-1 $414 $523 #
straight-curve $-1 78.703573717459648 -5.1573714107424014 49.490006914907568 0 0.81915203911291934 -0.57357644374324357 I I #
edge $-1 $416 42.629914543706093 $496 49.930304250204046 $488 $524 forward 7 unknown #
point $-1 78.703573717459648 42.629914543706093 16.028988416343317 #
coedge $-1 $419 $418 $487 $521 forward $410 $-1 #
point $-1 57.280722507725983 49.930304250204046 10.917200413804188 #
vertex $-1 $492 $525 #
straight-curve $-1 0 49.930304250204046 16.028988416343314 -1 0 0 I I #
vertex $-1 $426 $526 #
point $-1 69.992148112592815 42.818870425604665 8.5299329722234507 #
straight-curve $-1 -78.703573717459648 49.930304250204046 0 0 0 -1 I I #
point $-1 -78.703573717459648 -49.930304250204046 -16.028988416343314 #
straight-curve $-1 -78.703573717459648 0 -16.028988416343314 0 1 0 I I #
point $-1 -78.703573717459648 49.930304250204046 -16.028988416343314 #
straight-curve $-1 -62.564803338153723 -13.329019455883888 -16.028988416343314 0 -1 0 I I #
straight-curve $-1 -62.564803338153723 -13.329019455883888 16.028988416343314 0 1 0 I I #
straight-curve $-1 -78.703573717459648 -24.477026159478378 0 0 0 -1 I I #
point $-1 -78.703573717459648 -24.477026159478378 -16.028988416343314 #
point $-1 -78.703573717459648 -24.477026159478378 16.028988416343314 #
straight-curve $-1 39.584549511880482 -49.930304250204046 59.067294243258743 0 0 -1 I I #
point $-1 39.584549511880482 -49.930304250204046 16.028988416343314 #
straight-curve $-1 23.607883307337815 -49.930304250204046 1.1582825176796234 1 0 0 I I #
point $-1 39.584549511880482 -49.930304250204046 1.1582825176796221 #
point $-1 42.637036352998535 -38.582626704485619 5.1619742698745572 #
point $-1 47.215766614675616 -38.582626704485619 5.1619742698745572 #
point $-1 51.794496876352696 -38.582626704485619 5.1619742698745572 #
straight-curve $-1 8.0693851896529623 49.930304250204046 98.56763944988333 0 0 -1 I I #
point $-1 8.0693851896529623 49.930304250204046 16.028988416343314 #
straight-curve $-1 -1.3210202076069351 49.930304250204046 10.917200413804196 -1 0 0 I I #
point $-1 8.0693851896529623 49.930304250204046 10.917200413804188 #
point $-1 -2.6420404152138701 41.67171753811818 6.8916288939976118 #
edge $-1 $496 -16.028988416343314 $490 -10.917200413804188 $487 $527 forward 7 unknown #
straight-curve $-1 33.996074056296408 49.930304250204046 10.917200413804196 -1 0 0 I I #
point $-1 78.703573717459648 49.930304250204046 10.917200413804188 #
straight-curve $-1 78.703573717459648 0 16.028988416343314 0 1 0 I I #
point $-1 78.703573717459648 49.930304250204046 16.028988416343314 #
point $-1 67.992148112592815 41.67171753811818 6.8916288939976118 #
straight-curve $-1 78.703573717459648 49.930304250204046 0 0 0 -1 I I #
End-of-ACIS-data 