500 0 15 0           
7 Unknown 11 ACIS 5.0 NT 24 Fri Mar 26 15:13:33 1999 
-1 9.9999999999999995e-007 1e-010 
body $-1 $15 $-1 $16 #
body $-1 $17 $-1 $18 #
body $-1 $19 $-1 $20 #
body $-1 $21 $-1 $22 #
body $-1 $23 $-1 $24 #
body $-1 $25 $-1 $26 #
body $-1 $27 $-1 $28 #
body $-1 $29 $-1 $30 #
body $-1 $31 $-1 $32 #
body $-1 $33 $-1 $34 #
body $-1 $35 $-1 $36 #
body $-1 $37 $-1 $38 #
body $-1 $39 $-1 $40 #
body $-1 $41 $-1 $42 #
body $-1 $43 $-1 $44 #
lump $-1 $-1 $45 $0 #
transform $-1 1 0 0 0 1 0 0 0 1 45.031891842402416 27.076168813484902 10.620581149508919 1 rotate no_reflect no_shear #
lump $-1 $-1 $46 $1 #
transform $-1 1 0 0 0 1 0 0 0 1 45.031891842402416 27.076168813484902 10.620581149508919 1 rotate no_reflect no_shear #
lump $-1 $-1 $47 $2 #
transform $-1 1 0 0 0 1 0 0 0 1 45.031891842402416 27.076168813484902 10.620581149508919 1 rotate no_reflect no_shear #
lump $-1 $-1 $48 $3 #
transform $-1 1 0 0 0 1 0 0 0 1 45.031891842402416 27.076168813484902 10.620581149508919 1 rotate no_reflect no_shear #
lump $-1 $-1 $49 $4 #
transform $-1 1 0 0 0 1 0 0 0 1 45.031891842402416 27.076168813484902 10.620581149508919 1 rotate no_reflect no_shear #
lump $-1 $-1 $50 $5 #
transform $-1 1 0 0 0 1 0 0 0 1 45.031891842402416 27.076168813484902 10.620581149508919 1 rotate no_reflect no_shear #
lump $-1 $-1 $51 $6 #
transform $-1 1 0 0 0 1 0 0 0 1 45.031891842402416 27.076168813484902 10.620581149508919 1 rotate no_reflect no_shear #
lump $-1 $-1 $52 $7 #
transform $-1 1 0 0 0 1 0 0 0 1 45.031891842402416 27.076168813484902 10.620581149508919 1 rotate no_reflect no_shear #
lump $-1 $-1 $53 $8 #
transform $-1 1 0 0 0 1 0 0 0 1 45.031891842402416 27.076168813484902 10.620581149508919 1 rotate no_reflect no_shear #
lump $-1 $-1 $54 $9 #
transform $-1 1 0 0 0 1 0 0 0 1 45.031891842402416 27.076168813484902 10.620581149508919 1 rotate no_reflect no_shear #
lump $-1 $-1 $55 $10 #
transform $-1 1 0 0 0 1 0 0 0 1 45.031891842402416 27.076168813484902 10.620581149508919 1 rotate no_reflect no_shear #
lump $-1 $-1 $56 $11 #
transform $-1 1 0 0 0 1 0 0 0 1 45.031891842402416 27.076168813484902 10.620581149508919 1 rotate no_reflect no_shear #
lump $-1 $-1 $57 $12 #
transform $-1 1 0 0 0 1 0 0 0 1 45.031891842402416 27.076168813484902 10.620581149508919 1 rotate no_reflect no_shear #
lump $-1 $-1 $58 $13 #
transform $-1 1 0 0 0 1 0 0 0 1 45.031891842402416 27.076168813484902 10.620581149508919 1 rotate no_reflect no_shear #
lump $-1 $-1 $59 $14 #
transform $-1 1 0 0 0 1 0 0 0 1 45.031891842402416 27.076168813484902 10.620581149508919 1 rotate no_reflect no_shear #
shell $-1 $-1 $-1 $60 $-1 $15 #
shell $-1 $-1 $-1 $61 $-1 $17 #
shell $-1 $-1 $-1 $62 $-1 $19 #
shell $-1 $-1 $-1 $63 $-1 $21 #
shell $-1 $-1 $-1 $64 $-1 $23 #
shell $-1 $-1 $-1 $65 $-1 $25 #
shell $-1 $-1 $-1 $66 $-1 $27 #
shell $-1 $-1 $-1 $67 $-1 $29 #
shell $-1 $-1 $-1 $68 $-1 $31 #
shell $-1 $-1 $-1 $69 $-1 $33 #
shell $-1 $-1 $-1 $70 $-1 $35 #
shell $-1 $-1 $-1 $71 $-1 $37 #
shell $-1 $-1 $-1 $72 $-1 $39 #
shell $-1 $-1 $-1 $73 $-1 $41 #
shell $-1 $-1 $-1 $74 $-1 $43 #
face $-1 $75 $76 $45 $-1 $77 forward single #
face $-1 $78 $79 $46 $-1 $80 forward single #
face $-1 $81 $82 $47 $-1 $83 forward single #
face $-1 $84 $85 $48 $-1 $86 reversed single #
face $-1 $87 $88 $49 $-1 $89 forward single #
face $-1 $90 $91 $50 $-1 $92 forward single #
face $-1 $93 $94 $51 $-1 $95 reversed single #
face $-1 $96 $97 $52 $-1 $98 forward single #
face $-1 $99 $100 $53 $-1 $101 forward single #
face $-1 $102 $103 $54 $-1 $104 reversed single #
face $-1 $105 $106 $55 $-1 $107 forward single #
face $-1 $108 $109 $56 $-1 $110 forward single #
face $-1 $111 $112 $57 $-1 $113 reversed single #
face $-1 $114 $115 $58 $-1 $116 forward single #
face $-1 $117 $118 $59 $-1 $119 forward single #
face $-1 $120 $121 $45 $-1 $122 reversed single #
loop $-1 $-1 $123 $60 #
plane-surface $-1 0 0 10.620581149508919 0 0 1 1 0 0 forward_v I I I I #
face $-1 $124 $125 $46 $-1 $126 reversed single #
loop $-1 $-1 $127 $61 #
plane-surface $-1 0 -20.326072692068266 8.4233546963898451 0 0 1 1 0 0 forward_v I I I I #
face $-1 $128 $129 $47 $-1 $130 reversed single #
loop $-1 $-1 $131 $62 #
plane-surface $-1 0 20.326072692068262 8.4233546963898451 0 0 1 1 0 0 forward_v I I I I #
face $-1 $132 $133 $48 $-1 $134 reversed single #
loop $-1 $-1 $135 $63 #
plane-surface $-1 -120.56573717755111 -7.0742343426466938 55.901169069831781 0 -1 0 0.83867057594974714 0 -0.54463902268945019 forward_v I I I I #
face $-1 $136 $137 $49 $-1 $138 forward single #
loop $-1 $139 $140 $64 #
cone-surface $-1 -43.012756865700737 -11.718335934078791 8.2188201328897552 0.83867057594974714 0 -0.54463902268945019 0.2723195113447251 0 0.41933528797487357 1 I I 0 1 0.5 forward I I I I #
face $-1 $141 $142 $50 $-1 $143 forward single #
loop $-1 $144 $145 $65 #
cone-surface $-1 -43.012756865700737 -8.9318749792195327 8.2188201328897552 0.83867057594974714 0 -0.54463902268945019 0.2723195113447251 0 0.41933528797487357 1 I I 0 1 0.5 forward I I I I #
face $-1 $146 $147 $51 $-1 $148 reversed single #
loop $-1 $-1 $149 $66 #
plane-surface $-1 -120.56573717755111 7.0742343426466974 55.901169069831781 0 1 0 -0.83867057594974714 0 0.54463902268945019 forward_v I I I I #
face $-1 $150 $151 $52 $-1 $152 forward single #
loop $-1 $153 $154 $67 #
cone-surface $-1 -43.012756865700737 8.9318749792195327 8.2188201328897552 0.83867057594974714 0 -0.54463902268945019 0.2723195113447251 0 0.41933528797487357 1 I I 0 1 0.5 forward I I I I #
face $-1 $155 $156 $53 $-1 $157 forward single #
loop $-1 $158 $159 $68 #
cone-surface $-1 -43.012756865700737 11.718335934078791 8.2188201328897552 0.83867057594974714 0 -0.54463902268945019 0.2723195113447251 0 0.41933528797487357 1 I I 0 1 0.5 forward I I I I #
face $-1 $160 $161 $54 $-1 $162 reversed single #
loop $-1 $-1 $163 $69 #
plane-surface $-1 71.513486051744962 -7.0742343426466938 131.43501440498051 0 -1 0 -0.83867057594974714 0 -0.54463902268945019 forward_v I I I I #
face $-1 $164 $165 $55 $-1 $166 forward single #
loop $-1 $167 $168 $70 #
cone-surface $-1 43.012756865700737 -11.718335934078791 8.2188201328897694 -0.83867057594974714 0 -0.54463902268945019 0.2723195113447251 0 -0.41933528797487357 1 I I 0 1 0.5 forward I I I I #
face $-1 $169 $170 $56 $-1 $171 forward single #
loop $-1 $172 $173 $71 #
cone-surface $-1 43.012756865700737 -8.9318749792195327 8.2188201328897694 -0.83867057594974714 0 -0.54463902268945019 0.2723195113447251 0 -0.41933528797487357 1 I I 0 1 0.5 forward I I I I #
face $-1 $174 $175 $57 $-1 $176 reversed single #
loop $-1 $-1 $177 $72 #
plane-surface $-1 -4.0203592834037494 10.325105456649165 82.382763279174355 0.83867057594974714 0 0.54463902268945019 0.54463902268945019 0 -0.83867057594974714 forward_v I I I I #
face $-1 $178 $179 $58 $-1 $180 forward single #
loop $-1 $181 $182 $73 #
cone-surface $-1 43.012756865700737 8.9318749792195327 8.2188201328897694 -0.83867057594974714 0 -0.54463902268945019 0.2723195113447251 0 -0.41933528797487357 1 I I 0 1 0.5 forward I I I I #
face $-1 $183 $184 $59 $-1 $185 forward single #
loop $-1 $186 $187 $74 #
cone-surface $-1 43.012756865700737 11.718335934078791 8.2188201328897694 -0.83867057594974714 0 -0.54463902268945019 0.2723195113447251 0 -0.41933528797487357 1 I I 0 1 0.5 forward I I I I #
face $-1 $188 $189 $45 $-1 $190 reversed single #
loop $-1 $-1 $191 $75 #
plane-surface $-1 0 0 -10.620581149508919 0 0 1 1 0 0 forward_v I I I I #
coedge $-1 $192 $193 $194 $195 forward $76 $-1 #
face $-1 $196 $197 $46 $-1 $198 reversed single #
loop $-1 $-1 $199 $78 #
plane-surface $-1 0 -20.326072692068266 4.0669295430926393 0 0 1 1 0 0 forward_v I I I I #
coedge $-1 $200 $201 $202 $203 reversed $79 $-1 #
face $-1 $204 $205 $47 $-1 $206 reversed single #
loop $-1 $-1 $207 $81 #
plane-surface $-1 0 20.326072692068262 4.0669295430926393 0 0 1 1 0 0 forward_v I I I I #
coedge $-1 $208 $209 $210 $211 reversed $82 $-1 #
face $-1 $212 $213 $48 $-1 $214 forward single #
loop $-1 $-1 $215 $84 #
plane-surface $-1 -45.031891842402402 -10.325105456649162 6.8489179440256294 -0.83867057594974714 0 0.54463902268945019 0.54463902268945019 0 0.83867057594974714 forward_v I I I I #
coedge $-1 $216 $217 $218 $219 reversed $85 $-1 #
face $-1 $-1 $220 $49 $-1 $221 forward single #
loop $-1 $222 $223 $87 #
cone-surface $-1 -42.008627567920271 -11.718335934078791 7.5667309633398681 0.83867057594974714 0 -0.54463902268945019 0.13615975567236255 0 0.20966764398743679 1 I I -0.70710678118654746 0.70710678118654746 0.25 forward I I I I #
loop $-1 $-1 $224 $64 #
coedge $-1 $140 $140 $225 $226 reversed $88 $-1 #
face $-1 $-1 $227 $50 $-1 $228 forward single #
loop $-1 $229 $230 $90 #
cone-surface $-1 -42.008627567920271 -8.9318749792195327 7.5667309633398681 0.83867057594974714 0 -0.54463902268945019 0.13615975567236255 0 0.20966764398743679 1 I I -0.70710678118654746 0.70710678118654746 0.25 forward I I I I #
loop $-1 $-1 $231 $65 #
coedge $-1 $145 $145 $232 $233 reversed $91 $-1 #
face $-1 $234 $235 $51 $-1 $236 forward single #
loop $-1 $-1 $237 $93 #
plane-surface $-1 -45.031891842402402 10.325105456649165 6.8489179440256294 -0.83867057594974714 0 0.54463902268945019 0.54463902268945019 0 0.83867057594974714 forward_v I I I I #
coedge $-1 $238 $239 $240 $241 reversed $94 $-1 #
face $-1 $-1 $242 $52 $-1 $243 forward single #
loop $-1 $244 $245 $96 #
cone-surface $-1 -42.008627567920271 8.9318749792195327 7.5667309633398681 0.83867057594974714 0 -0.54463902268945019 0.13615975567236255 0 0.20966764398743679 1 I I -0.70710678118654746 0.70710678118654746 0.25 forward I I I I #
loop $-1 $-1 $246 $67 #
coedge $-1 $154 $154 $247 $248 reversed $97 $-1 #
face $-1 $-1 $249 $53 $-1 $250 forward single #
loop $-1 $251 $252 $99 #
cone-surface $-1 -42.008627567920271 11.718335934078791 7.5667309633398681 0.83867057594974714 0 -0.54463902268945019 0.13615975567236255 0 0.20966764398743679 1 I I -0.70710678118654746 0.70710678118654746 0.25 forward I I I I #
loop $-1 $-1 $253 $68 #
coedge $-1 $159 $159 $254 $255 reversed $100 $-1 #
face $-1 $256 $257 $54 $-1 $258 reversed single #
loop $-1 $-1 $259 $102 #
plane-surface $-1 -4.0203592834037494 -10.325105456649162 82.382763279174355 0.83867057594974714 0 0.54463902268945019 0.54463902268945019 0 -0.83867057594974714 forward_v I I I I #
coedge $-1 $260 $261 $262 $263 reversed $103 $-1 #
face $-1 $-1 $264 $55 $-1 $265 forward single #
loop $-1 $266 $267 $105 #
cone-surface $-1 42.008627567920271 -11.718335934078791 7.5667309633398823 -0.83867057594974714 0 -0.54463902268945019 0.13615975567236255 0 -0.20966764398743679 1 I I -0.70710678118654746 0.70710678118654746 0.25 forward I I I I #
loop $-1 $-1 $268 $70 #
coedge $-1 $168 $168 $269 $270 reversed $106 $-1 #
face $-1 $-1 $271 $56 $-1 $272 forward single #
loop $-1 $273 $274 $108 #
cone-surface $-1 42.008627567920271 -8.9318749792195327 7.5667309633398823 -0.83867057594974714 0 -0.54463902268945019 0.13615975567236255 0 -0.20966764398743679 1 I I -0.70710678118654746 0.70710678118654746 0.25 forward I I I I #
loop $-1 $-1 $275 $71 #
coedge $-1 $173 $173 $276 $277 reversed $109 $-1 #
face $-1 $278 $279 $57 $-1 $280 forward single #
loop $-1 $-1 $281 $111 #
plane-surface $-1 71.513486051744962 7.0742343426466974 131.43501440498051 0 1 0 0.83867057594974714 0 0.54463902268945019 forward_v I I I I #
coedge $-1 $282 $283 $284 $285 reversed $112 $-1 #
face $-1 $-1 $286 $58 $-1 $287 forward single #
loop $-1 $288 $289 $114 #
cone-surface $-1 42.008627567920271 8.9318749792195327 7.5667309633398823 -0.83867057594974714 0 -0.54463902268945019 0.13615975567236255 0 -0.20966764398743679 1 I I -0.70710678118654746 0.70710678118654746 0.25 forward I I I I #
loop $-1 $-1 $290 $73 #
coedge $-1 $182 $182 $291 $292 reversed $115 $-1 #
face $-1 $-1 $293 $59 $-1 $294 forward single #
loop $-1 $295 $296 $117 #
cone-surface $-1 42.008627567920271 11.718335934078791 7.5667309633398823 -0.83867057594974714 0 -0.54463902268945019 0.13615975567236255 0 -0.20966764398743679 1 I I -0.70710678118654746 0.70710678118654746 0.25 forward I I I I #
loop $-1 $-1 $297 $74 #
coedge $-1 $187 $187 $298 $299 reversed $118 $-1 #
face $-1 $300 $301 $45 $-1 $302 reversed single #
loop $-1 $-1 $303 $120 #
plane-surface $-1 0 -27.076168813484902 0 0 1 0 0 0 1 forward_v I I I I #
coedge $-1 $304 $305 $306 $307 forward $121 $-1 #
coedge $-1 $308 $123 $309 $310 forward $76 $-1 #
coedge $-1 $123 $308 $311 $312 forward $76 $-1 #
coedge $-1 $313 $314 $123 $195 reversed $315 $-1 #
edge $-1 $316 -27.076168813484902 $317 27.076168813484902 $194 $318 forward 7 unknown #
face $-1 $319 $320 $46 $-1 $321 reversed single #
loop $-1 $-1 $322 $124 #
plane-surface $-1 0 -13.57597657065163 6.2451421197412422 0 -1 0 0 0 -1 forward_v I I I I #
coedge $-1 $323 $324 $325 $326 reversed $125 $-1 #
coedge $-1 $327 $127 $328 $329 forward $79 $-1 #
coedge $-1 $127 $327 $330 $331 reversed $79 $-1 #
coedge $-1 $332 $333 $127 $203 forward $334 $-1 #
edge $-1 $335 3.4129402246174969 $336 16.913132467450769 $202 $337 forward 7 unknown #
face $-1 $338 $339 $47 $-1 $340 reversed single #
loop $-1 $-1 $341 $128 #
plane-surface $-1 0 13.575976570651626 6.2451421197412422 0 1 0 0 0 1 forward_v I I I I #
coedge $-1 $342 $343 $344 $345 reversed $129 $-1 #
coedge $-1 $346 $131 $347 $348 reversed $82 $-1 #
coedge $-1 $131 $346 $349 $350 forward $82 $-1 #
coedge $-1 $351 $352 $131 $211 forward $339 $-1 #
edge $-1 $353 -16.913132467450765 $354 -3.4129402246174951 $210 $355 forward 7 unknown #
face $-1 $356 $357 $48 $-1 $358 reversed single #
loop $-1 $-1 $359 $132 #
plane-surface $-1 0 0 10.620581149508919 0 0 1 1 0 0 forward_v I I I I #
coedge $-1 $360 $361 $362 $363 reversed $133 $-1 #
coedge $-1 $217 $135 $364 $365 reversed $85 $-1 #
coedge $-1 $135 $216 $360 $366 reversed $85 $-1 #
coedge $-1 $362 $367 $135 $219 forward $357 $-1 #
edge $-1 $368 17.330003385406972 $369 21.101666590890282 $218 $370 forward 7 unknown #
loop $-1 $-1 $225 $136 #
plane-surface $-1 -45.031891842402402 -10.325105456649162 6.8489179440256294 -0.83867057594974714 0 0.54463902268945019 0.54463902268945019 0 0.83867057594974714 forward_v I I I I #
loop $-1 $-1 $371 $87 #
coedge $-1 $223 $223 $224 $372 reversed $137 $-1 #
coedge $-1 $224 $224 $223 $372 forward $139 $-1 #
coedge $-1 $225 $225 $140 $226 forward $220 $-1 #
edge $-1 $373 0 $373 6.2831853071796004 $225 $374 forward 7 unknown #
loop $-1 $-1 $232 $141 #
plane-surface $-1 -45.031891842402402 -10.325105456649162 6.8489179440256294 -0.83867057594974714 0 0.54463902268945019 0.54463902268945019 0 0.83867057594974714 forward_v I I I I #
loop $-1 $-1 $375 $90 #
coedge $-1 $230 $230 $231 $376 reversed $142 $-1 #
coedge $-1 $231 $231 $230 $376 forward $144 $-1 #
coedge $-1 $232 $232 $145 $233 forward $227 $-1 #
edge $-1 $377 0 $377 6.2831853071796004 $232 $378 forward 7 unknown #
face $-1 $379 $380 $51 $-1 $381 forward single #
loop $-1 $-1 $240 $146 #
plane-surface $-1 0 0 10.620581149508919 0 0 1 1 0 0 forward_v I I I I #
coedge $-1 $382 $383 $384 $385 reversed $147 $-1 #
coedge $-1 $239 $149 $386 $387 reversed $94 $-1 #
coedge $-1 $149 $238 $382 $388 reversed $94 $-1 #
coedge $-1 $384 $389 $149 $241 forward $235 $-1 #
edge $-1 $390 15.250976746373141 $391 17.700323392190455 $240 $392 forward 7 unknown #
loop $-1 $-1 $247 $150 #
plane-surface $-1 -45.031891842402402 10.325105456649165 6.8489179440256294 -0.83867057594974714 0 0.54463902268945019 0.54463902268945019 0 0.83867057594974714 forward_v I I I I #
loop $-1 $-1 $393 $96 #
coedge $-1 $245 $245 $246 $394 reversed $151 $-1 #
coedge $-1 $246 $246 $245 $394 forward $153 $-1 #
coedge $-1 $247 $247 $154 $248 forward $242 $-1 #
edge $-1 $395 0 $395 6.2831853071796004 $247 $396 forward 7 unknown #
loop $-1 $-1 $254 $155 #
plane-surface $-1 -45.031891842402402 10.325105456649165 6.8489179440256294 -0.83867057594974714 0 0.54463902268945019 0.54463902268945019 0 0.83867057594974714 forward_v I I I I #
loop $-1 $-1 $397 $99 #
coedge $-1 $252 $252 $253 $398 reversed $156 $-1 #
coedge $-1 $253 $253 $252 $398 forward $158 $-1 #
coedge $-1 $254 $254 $159 $255 forward $249 $-1 #
edge $-1 $399 0 $399 6.2831853071796004 $254 $400 forward 7 unknown #
face $-1 $401 $402 $54 $-1 $403 forward single #
loop $-1 $-1 $404 $160 #
plane-surface $-1 45.031891842402416 0 0 -1 0 0 0 0 1 forward_v I I I I #
coedge $-1 $405 $406 $407 $408 reversed $161 $-1 #
coedge $-1 $261 $163 $409 $410 reversed $103 $-1 #
coedge $-1 $163 $260 $405 $411 reversed $103 $-1 #
coedge $-1 $407 $412 $163 $263 forward $413 $-1 #
edge $-1 $414 -9.2751488165299349 $415 -6.8258021707126275 $262 $416 forward 7 unknown #
loop $-1 $-1 $269 $164 #
plane-surface $-1 -4.0203592834037494 -10.325105456649162 82.382763279174355 0.83867057594974714 0 0.54463902268945019 0.54463902268945019 0 -0.83867057594974714 forward_v I I I I #
loop $-1 $-1 $417 $105 #
coedge $-1 $267 $267 $268 $418 reversed $165 $-1 #
coedge $-1 $268 $268 $267 $418 forward $167 $-1 #
coedge $-1 $269 $269 $168 $270 forward $264 $-1 #
edge $-1 $419 0 $419 6.2831853071796004 $269 $420 forward 7 unknown #
loop $-1 $-1 $276 $169 #
plane-surface $-1 -4.0203592834037494 -10.325105456649162 82.382763279174355 0.83867057594974714 0 0.54463902268945019 0.54463902268945019 0 -0.83867057594974714 forward_v I I I I #
loop $-1 $-1 $421 $108 #
coedge $-1 $274 $274 $275 $422 reversed $170 $-1 #
coedge $-1 $275 $275 $274 $422 forward $172 $-1 #
coedge $-1 $276 $276 $173 $277 forward $271 $-1 #
edge $-1 $423 0 $423 6.2831853071796004 $276 $424 forward 7 unknown #
face $-1 $425 $426 $57 $-1 $427 reversed single #
loop $-1 $-1 $428 $174 #
plane-surface $-1 0 0 10.620581149508919 0 0 1 1 0 0 forward_v I I I I #
coedge $-1 $429 $430 $431 $432 reversed $175 $-1 #
coedge $-1 $433 $177 $434 $435 forward $112 $-1 #
coedge $-1 $177 $433 $429 $436 forward $112 $-1 #
coedge $-1 $431 $428 $177 $285 forward $279 $-1 #
edge $-1 $437 -8.4134238423270507 $438 -1.9116816143221147 $284 $439 forward 7 unknown #
loop $-1 $-1 $291 $178 #
plane-surface $-1 -4.0203592834037494 10.325105456649165 82.382763279174355 0.83867057594974714 0 0.54463902268945019 0.54463902268945019 0 -0.83867057594974714 forward_v I I I I #
loop $-1 $-1 $440 $114 #
coedge $-1 $289 $289 $290 $441 reversed $179 $-1 #
coedge $-1 $290 $290 $289 $441 forward $181 $-1 #
coedge $-1 $291 $291 $182 $292 forward $286 $-1 #
edge $-1 $442 0 $442 6.2831853071796004 $291 $443 forward 7 unknown #
loop $-1 $-1 $298 $183 #
plane-surface $-1 -4.0203592834037494 10.325105456649165 82.382763279174355 0.83867057594974714 0 0.54463902268945019 0.54463902268945019 0 -0.83867057594974714 forward_v I I I I #
loop $-1 $-1 $444 $117 #
coedge $-1 $296 $296 $297 $445 reversed $184 $-1 #
coedge $-1 $297 $297 $296 $445 forward $186 $-1 #
coedge $-1 $298 $298 $187 $299 forward $293 $-1 #
edge $-1 $446 0 $446 6.2831853071796004 $298 $447 forward 7 unknown #
face $-1 $448 $449 $45 $-1 $450 reversed single #
loop $-1 $-1 $451 $188 #
plane-surface $-1 -45.031891842402416 0 0 1 0 0 0 0 -1 forward_v I I I I #
coedge $-1 $452 $311 $453 $454 forward $189 $-1 #
coedge $-1 $455 $191 $452 $456 forward $121 $-1 #
coedge $-1 $191 $455 $457 $458 forward $121 $-1 #
coedge $-1 $314 $313 $191 $307 reversed $315 $-1 #
edge $-1 $459 -27.076168813484902 $460 27.076168813484902 $306 $461 forward 7 unknown #
coedge $-1 $193 $192 $462 $463 forward $76 $-1 #
coedge $-1 $464 $465 $192 $310 reversed $449 $-1 #
edge $-1 $317 -45.031891842402416 $466 45.031891842402416 $309 $467 forward 7 unknown #
coedge $-1 $303 $468 $193 $312 reversed $189 $-1 #
edge $-1 $469 -45.031891842402416 $316 45.031891842402416 $311 $470 forward 7 unknown #
coedge $-1 $306 $194 $468 $471 forward $315 $-1 #
coedge $-1 $194 $306 $464 $472 reversed $315 $-1 #
loop $-1 $-1 $313 $448 #
vertex $-1 $195 $473 #
vertex $-1 $195 $474 #
straight-curve $-1 45.031891842402416 0 10.620581149508919 0 1 0 I I #
face $-1 $475 $476 $46 $-1 $477 reversed single #
loop $-1 $-1 $478 $196 #
plane-surface $-1 -45.031891842402416 0 0 1 0 0 0 0 -1 forward_v I I I I #
coedge $-1 $479 $328 $333 $480 reversed $197 $-1 #
coedge $-1 $481 $199 $482 $483 reversed $125 $-1 #
coedge $-1 $199 $481 $479 $484 forward $125 $-1 #
coedge $-1 $333 $332 $199 $326 forward $334 $-1 #
edge $-1 $485 -16.913132467450769 $486 -3.4129402246174969 $325 $487 forward 7 unknown #
coedge $-1 $201 $200 $478 $488 reversed $79 $-1 #
coedge $-1 $322 $489 $200 $329 reversed $197 $-1 #
edge $-1 $335 -45.031891842402416 $490 45.031891842402416 $328 $491 forward 7 unknown #
coedge $-1 $492 $493 $201 $331 forward $476 $-1 #
edge $-1 $336 -45.031891842402416 $494 45.031891842402416 $330 $495 forward 7 unknown #
coedge $-1 $325 $202 $493 $496 forward $334 $-1 #
coedge $-1 $202 $325 $322 $480 forward $334 $-1 #
loop $-1 $-1 $202 $475 #
vertex $-1 $203 $497 #
vertex $-1 $496 $498 #
straight-curve $-1 45.031891842402416 -10.163036346034133 8.4233546963898451 0 -1 0 I I #
face $-1 $499 $500 $47 $-1 $501 reversed single #
loop $-1 $-1 $210 $204 #
plane-surface $-1 45.031891842402416 0 0 -1 0 0 0 0 1 forward_v I I I I #
coedge $-1 $502 $349 $503 $504 reversed $205 $-1 #
coedge $-1 $505 $207 $502 $506 forward $129 $-1 #
coedge $-1 $207 $505 $507 $508 reversed $129 $-1 #
coedge $-1 $352 $351 $207 $345 forward $339 $-1 #
edge $-1 $509 3.4129402246174951 $510 16.913132467450765 $344 $511 forward 7 unknown #
coedge $-1 $209 $208 $512 $513 reversed $82 $-1 #
coedge $-1 $514 $515 $208 $348 forward $516 $-1 #
edge $-1 $517 -45.031891842402416 $353 45.031891842402416 $347 $518 forward 7 unknown #
coedge $-1 $341 $519 $209 $350 reversed $205 $-1 #
edge $-1 $520 -45.031891842402416 $354 45.031891842402416 $349 $521 forward 7 unknown #
coedge $-1 $344 $210 $519 $522 forward $339 $-1 #
coedge $-1 $210 $344 $514 $523 reversed $339 $-1 #
vertex $-1 $523 $524 #
vertex $-1 $211 $525 #
straight-curve $-1 45.031891842402416 10.163036346034131 8.4233546963898451 0 -1 0 I I #
face $-1 $-1 $526 $48 $-1 $527 forward single #
loop $-1 $-1 $528 $212 #
plane-surface $-1 -45.031891842402416 0 0 1 0 0 0 0 -1 forward_v I I I I #
coedge $-1 $529 $530 $531 $532 forward $213 $-1 #
coedge $-1 $533 $215 $217 $366 forward $133 $-1 #
coedge $-1 $215 $533 $534 $535 forward $133 $-1 #
coedge $-1 $528 $218 $215 $363 forward $357 $-1 #
edge $-1 $369 1.9116816143221129 $536 8.4134238423270489 $362 $537 forward 7 unknown #
coedge $-1 $530 $529 $216 $365 forward $213 $-1 #
edge $-1 $538 -17.700323392190455 $368 -15.250976746373141 $364 $539 forward 7 unknown #
edge $-1 $369 -2.636201369357039e-014 $538 4.4971927162367571 $217 $540 forward 7 unknown #
coedge $-1 $218 $528 $530 $541 reversed $357 $-1 #
vertex $-1 $541 $542 #
vertex $-1 $219 $543 #
straight-curve $-1 -45.031891842402416 -7.0742343426466938 27.95058453491589 0 0 -1 I I #
coedge $-1 $371 $371 $-1 $544 reversed $222 $-1 #
edge $-1 $545 0 $545 6.2831853071796004 $223 $546 forward 7 unknown #
vertex $-1 $226 $547 #
ellipse-curve $-1 -43.807218519493752 -11.718335934078791 8.7347495467672722 -0.83867057594974714 0 0.54463902268945019 0.2723195113447251 0 0.41933528797487357 1 I I #
coedge $-1 $375 $375 $-1 $548 reversed $229 $-1 #
edge $-1 $549 0 $549 6.2831853071796004 $230 $550 forward 7 unknown #
vertex $-1 $233 $551 #
ellipse-curve $-1 -43.807218519493752 -8.9318749792195327 8.7347495467672722 -0.83867057594974714 0 0.54463902268945019 0.2723195113447251 0 0.41933528797487357 1 I I #
face $-1 $-1 $552 $51 $-1 $553 reversed single #
loop $-1 $-1 $554 $234 #
plane-surface $-1 0 13.575976570651626 6.2451421197412422 0 1 0 0 0 1 forward_v I I I I #
coedge $-1 $555 $237 $239 $388 forward $147 $-1 #
coedge $-1 $237 $555 $554 $556 reversed $147 $-1 #
coedge $-1 $557 $240 $237 $385 forward $235 $-1 #
edge $-1 $391 1.9116816143221147 $558 8.4134238423270507 $384 $559 forward 7 unknown #
coedge $-1 $560 $561 $238 $387 forward $552 $-1 #
edge $-1 $562 -21.101666590890282 $390 -17.330003385406972 $386 $563 forward 7 unknown #
edge $-1 $391 -4.4971927162367571 $562 2.636201369357039e-014 $239 $564 forward 7 unknown #
coedge $-1 $240 $557 $560 $565 forward $235 $-1 #
vertex $-1 $387 $566 #
vertex $-1 $241 $567 #
straight-curve $-1 -60.282868588775557 7.0742343426466974 10.620581149508919 1 0 0 I I #
coedge $-1 $393 $393 $-1 $568 reversed $244 $-1 #
edge $-1 $569 0 $569 6.2831853071796004 $245 $570 forward 7 unknown #
vertex $-1 $248 $571 #
ellipse-curve $-1 -43.807218519493752 8.9318749792195327 8.7347495467672722 -0.83867057594974714 0 0.54463902268945019 0.2723195113447251 0 0.41933528797487357 1 I I #
coedge $-1 $397 $397 $-1 $572 reversed $251 $-1 #
edge $-1 $573 0 $573 6.2831853071796004 $252 $574 forward 7 unknown #
vertex $-1 $255 $575 #
ellipse-curve $-1 -43.807218519493752 11.718335934078791 8.7347495467672722 -0.83867057594974714 0 0.54463902268945019 0.2723195113447251 0 0.41933528797487357 1 I I #
face $-1 $-1 $413 $54 $-1 $576 forward single #
loop $-1 $-1 $577 $256 #
plane-surface $-1 0 -13.57597657065163 6.2451421197412422 0 -1 0 0 0 -1 forward_v I I I I #
coedge $-1 $578 $579 $580 $581 forward $257 $-1 #
coedge $-1 $582 $259 $261 $411 forward $161 $-1 #
coedge $-1 $259 $582 $577 $583 reversed $161 $-1 #
coedge $-1 $584 $262 $259 $408 forward $413 $-1 #
edge $-1 $415 1.9116816143221129 $585 8.4134238423270489 $407 $586 forward 7 unknown #
coedge $-1 $579 $578 $260 $410 forward $257 $-1 #
edge $-1 $587 -58.868589258464624 $414 -55.096926052981331 $409 $588 forward 7 unknown #
edge $-1 $415 85.566590968568093 $587 90.063783684804861 $261 $589 forward 7 unknown #
coedge $-1 $262 $584 $579 $590 forward $413 $-1 #
loop $-1 $-1 $584 $401 #
vertex $-1 $410 $591 #
vertex $-1 $263 $592 #
straight-curve $-1 35.756743025872481 -7.0742343426466938 10.620581149508922 -1 0 0 I I #
coedge $-1 $417 $417 $-1 $593 reversed $266 $-1 #
edge $-1 $594 0 $594 6.2831853071796004 $267 $595 forward 7 unknown #
vertex $-1 $270 $596 #
ellipse-curve $-1 43.807218519493752 -11.718335934078791 8.7347495467672829 0.83867057594974714 0 0.54463902268945019 0.2723195113447251 0 -0.41933528797487357 1 I I #
coedge $-1 $421 $421 $-1 $597 reversed $273 $-1 #
edge $-1 $598 0 $598 6.2831853071796004 $274 $599 forward 7 unknown #
vertex $-1 $277 $600 #
ellipse-curve $-1 43.807218519493752 -8.9318749792195327 8.7347495467672829 0.83867057594974714 0 0.54463902268945019 0.2723195113447251 0 -0.41933528797487357 1 I I #
face $-1 $-1 $601 $57 $-1 $602 forward single #
loop $-1 $-1 $603 $278 #
plane-surface $-1 45.031891842402416 0 0 -1 0 0 0 0 1 forward_v I I I I #
coedge $-1 $284 $604 $605 $606 forward $279 $-1 #
coedge $-1 $430 $281 $283 $436 reversed $175 $-1 #
coedge $-1 $281 $429 $607 $608 reversed $175 $-1 #
coedge $-1 $604 $284 $281 $432 forward $279 $-1 #
edge $-1 $438 6.8258021707126275 $609 9.2751488165299349 $431 $610 forward 7 unknown #
coedge $-1 $283 $282 $611 $612 reversed $112 $-1 #
coedge $-1 $605 $613 $282 $435 reversed $601 $-1 #
edge $-1 $437 85.566590968568093 $614 90.063783684804861 $434 $615 forward 7 unknown #
edge $-1 $616 -90.063783684804861 $438 -85.566590968568093 $429 $617 forward 7 unknown #
vertex $-1 $606 $618 #
vertex $-1 $285 $619 #
straight-curve $-1 42.582545196585109 5.1625527283245827 10.620581149508922 0 -1 0 I I #
coedge $-1 $440 $440 $-1 $620 reversed $288 $-1 #
edge $-1 $621 0 $621 6.2831853071796004 $289 $622 forward 7 unknown #
vertex $-1 $292 $623 #
ellipse-curve $-1 43.807218519493752 8.9318749792195327 8.7347495467672829 0.83867057594974714 0 0.54463902268945019 0.2723195113447251 0 -0.41933528797487357 1 I I #
coedge $-1 $444 $444 $-1 $624 reversed $295 $-1 #
edge $-1 $625 0 $625 6.2831853071796004 $296 $626 forward 7 unknown #
vertex $-1 $299 $627 #
ellipse-curve $-1 43.807218519493752 11.718335934078791 8.7347495467672829 0.83867057594974714 0 0.54463902268945019 0.2723195113447251 0 -0.41933528797487357 1 I I #
face $-1 $-1 $315 $45 $-1 $628 reversed single #
loop $-1 $-1 $464 $300 #
plane-surface $-1 0 27.076168813484902 0 0 -1 0 0 0 -1 forward_v I I I I #
coedge $-1 $629 $462 $465 $630 forward $301 $-1 #
coedge $-1 $468 $303 $304 $456 reversed $189 $-1 #
coedge $-1 $462 $629 $303 $454 reversed $301 $-1 #
edge $-1 $469 -10.620581149508919 $631 10.620581149508919 $453 $632 forward 7 unknown #
coedge $-1 $305 $304 $629 $633 forward $121 $-1 #
edge $-1 $460 -45.031891842402416 $631 45.031891842402416 $452 $634 forward 7 unknown #
coedge $-1 $465 $464 $305 $458 reversed $449 $-1 #
edge $-1 $635 -45.031891842402416 $459 45.031891842402416 $457 $636 forward 7 unknown #
vertex $-1 $307 $637 #
vertex $-1 $471 $638 #
straight-curve $-1 45.031891842402416 0 -10.620581149508919 0 -1 0 I I #
coedge $-1 $451 $453 $308 $463 reversed $301 $-1 #
edge $-1 $466 -27.076168813484902 $469 27.076168813484902 $462 $639 forward 7 unknown #
coedge $-1 $457 $309 $314 $472 forward $449 $-1 #
coedge $-1 $309 $457 $451 $630 reversed $449 $-1 #
vertex $-1 $310 $640 #
straight-curve $-1 0 27.076168813484902 10.620581149508919 -1 0 0 I I #
coedge $-1 $311 $452 $313 $471 reversed $189 $-1 #
vertex $-1 $463 $641 #
straight-curve $-1 0 -27.076168813484902 10.620581149508919 1 0 0 I I #
edge $-1 $316 -10.620581149508919 $460 10.620581149508919 $313 $642 forward 7 unknown #
edge $-1 $317 -10.620581149508919 $459 10.620581149508919 $314 $643 forward 7 unknown #
point $-1 45.031891842402416 -27.076168813484902 10.620581149508919 #
point $-1 45.031891842402416 27.076168813484902 10.620581149508919 #
face $-1 $-1 $334 $46 $-1 $644 reversed single #
loop $-1 $-1 $330 $319 #
plane-surface $-1 0 -27.076168813484902 0 0 1 0 0 0 1 forward_v I I I I #
coedge $-1 $645 $646 $327 $488 forward $320 $-1 #
coedge $-1 $489 $322 $324 $484 reversed $197 $-1 #
edge $-1 $486 0.94435848322201821 $335 5.300783636519224 $333 $647 forward 7 unknown #
coedge $-1 $324 $323 $648 $649 reversed $125 $-1 #
coedge $-1 $493 $492 $323 $483 forward $476 $-1 #
edge $-1 $650 -45.031891842402416 $485 45.031891842402416 $482 $651 forward 7 unknown #
edge $-1 $652 -45.031891842402416 $486 45.031891842402416 $479 $653 forward 7 unknown #
vertex $-1 $483 $654 #
vertex $-1 $326 $655 #
straight-curve $-1 45.031891842402416 -10.163036346034133 4.0669295430926393 0 1 0 I I #
edge $-1 $494 -16.913132467450769 $490 -3.4129402246174969 $478 $656 forward 7 unknown #
coedge $-1 $328 $479 $645 $657 reversed $197 $-1 #
vertex $-1 $488 $658 #
straight-curve $-1 0 -13.57597657065163 8.4233546963898451 -1 0 0 I I #
coedge $-1 $482 $330 $646 $659 forward $476 $-1 #
coedge $-1 $330 $482 $332 $496 reversed $476 $-1 #
vertex $-1 $659 $660 #
straight-curve $-1 0 -27.076168813484902 8.4233546963898451 -1 0 0 I I #
edge $-1 $336 -8.4233546963898451 $485 -4.0669295430926393 $332 $661 forward 7 unknown #
point $-1 45.031891842402416 -13.57597657065163 8.4233546963898451 #
point $-1 45.031891842402416 -27.076168813484902 8.4233546963898451 #
face $-1 $-1 $516 $47 $-1 $662 reversed single #
loop $-1 $-1 $512 $338 #
plane-surface $-1 -45.031891842402416 0 0 1 0 0 0 0 -1 forward_v I I I I #
coedge $-1 $519 $341 $342 $506 reversed $205 $-1 #
coedge $-1 $512 $663 $341 $504 forward $500 $-1 #
edge $-1 $664 0.94435848322201821 $520 5.300783636519224 $503 $665 forward 7 unknown #
coedge $-1 $343 $342 $663 $666 reversed $129 $-1 #
edge $-1 $509 -45.031891842402416 $664 45.031891842402416 $502 $667 forward 7 unknown #
coedge $-1 $515 $514 $343 $508 forward $516 $-1 #
edge $-1 $510 -45.031891842402416 $668 45.031891842402416 $507 $669 forward 7 unknown #
vertex $-1 $345 $670 #
vertex $-1 $508 $671 #
straight-curve $-1 45.031891842402416 10.163036346034131 4.0669295430926393 0 1 0 I I #
coedge $-1 $672 $503 $346 $513 forward $500 $-1 #
edge $-1 $520 3.4129402246174951 $517 16.913132467450765 $512 $673 forward 7 unknown #
coedge $-1 $507 $347 $352 $523 forward $516 $-1 #
coedge $-1 $347 $507 $672 $674 reversed $516 $-1 #
loop $-1 $-1 $347 $499 #
vertex $-1 $674 $675 #
straight-curve $-1 0 27.076168813484902 8.4233546963898451 1 0 0 I I #
coedge $-1 $349 $502 $351 $522 reversed $205 $-1 #
vertex $-1 $513 $676 #
straight-curve $-1 0 13.575976570651626 8.4233546963898451 1 0 0 I I #
edge $-1 $354 -5.300783636519224 $509 -0.94435848322201821 $351 $677 forward 7 unknown #
edge $-1 $353 -8.4233546963898451 $510 -4.0669295430926393 $352 $678 forward 7 unknown #
point $-1 45.031891842402416 27.076168813484898 8.4233546963898451 #
point $-1 45.031891842402416 13.575976570651626 8.4233546963898451 #
loop $-1 $-1 $534 $356 #
plane-surface $-1 0 -13.57597657065163 6.2451421197412422 0 -1 0 0 0 -1 forward_v I I I I #
coedge $-1 $367 $362 $679 $680 forward $357 $-1 #
coedge $-1 $364 $359 $533 $681 forward $213 $-1 #
coedge $-1 $359 $364 $367 $541 forward $213 $-1 #
coedge $-1 $679 $534 $359 $532 reversed $526 $-1 #
edge $-1 $682 15.250976746373141 $683 17.700323392190455 $359 $684 forward 7 unknown #
coedge $-1 $361 $360 $529 $681 reversed $133 $-1 #
coedge $-1 $531 $679 $361 $535 reversed $526 $-1 #
edge $-1 $683 -4.4971927162367571 $536 2.636201369357039e-014 $534 $685 forward 7 unknown #
vertex $-1 $680 $686 #
straight-curve $-1 -45.031891842402416 -5.1625527283245809 6.8489179440256045 0 -1 0 I I #
vertex $-1 $365 $687 #
straight-curve $-1 -60.282868588775557 -7.0742343426466938 10.620581149508919 -1 0 0 I I #
straight-curve $-1 -45.031891842402402 -7.0742343426466938 6.8489179440256294 0.54463902268945019 0 0.83867057594974714 I I #
edge $-1 $368 7.0742343426466938 $682 13.57597657065163 $367 $688 forward 7 unknown #
point $-1 -45.031891842402416 -7.0742343426466938 10.620581149508919 #
point $-1 -45.031891842402416 -7.0742343426466938 6.8489179440256072 #
edge $-1 $689 1 $689 0 $371 $-1 forward 7 unknown #
vertex $-1 $372 $690 #
ellipse-curve $-1 -42.218295211907709 -11.718335934078791 7.7028907190122302 -0.83867057594974714 0 0.54463902268945019 0.2723195113447251 0 0.41933528797487357 1 I I #
point $-1 -43.53489900814904 -11.718335934078791 9.1540848347421537 #
edge $-1 $691 1 $691 0 $375 $-1 forward 7 unknown #
vertex $-1 $376 $692 #
ellipse-curve $-1 -42.218295211907709 -8.9318749792195327 7.7028907190122302 -0.83867057594974714 0 0.54463902268945019 0.2723195113447251 0 0.41933528797487357 1 I I #
point $-1 -43.53489900814904 -8.9318749792195327 9.1540848347421537 #
loop $-1 $-1 $386 $379 #
plane-surface $-1 -45.031891842402416 0 0 1 0 0 0 0 -1 forward_v I I I I #
coedge $-1 $693 $694 $383 $556 forward $380 $-1 #
coedge $-1 $383 $382 $561 $695 reversed $147 $-1 #
edge $-1 $558 7.5126855560662165 $696 12.009878272302998 $554 $697 forward 7 unknown #
coedge $-1 $389 $384 $694 $698 forward $235 $-1 #
vertex $-1 $385 $699 #
straight-curve $-1 -42.582545196585102 5.1625527283245827 10.620581149508919 0 1 0 I I #
coedge $-1 $700 $386 $389 $565 reversed $552 $-1 #
coedge $-1 $386 $700 $555 $695 forward $552 $-1 #
vertex $-1 $387 $701 #
straight-curve $-1 -45.031891842402416 7.0742343426466974 27.95058453491589 0 0 1 I I #
straight-curve $-1 -45.031891842402402 7.0742343426466974 6.8489179440256294 -0.54463902268945019 0 -0.83867057594974714 I I #
edge $-1 $702 -13.575976570651633 $390 -7.0742343426466974 $560 $703 forward 7 unknown #
point $-1 -45.031891842402416 7.0742343426466974 10.620581149508919 #
point $-1 -42.582545196585102 7.0742343426466974 10.620581149508919 #
edge $-1 $704 1 $704 0 $393 $-1 forward 7 unknown #
vertex $-1 $394 $705 #
ellipse-curve $-1 -42.218295211907709 8.9318749792195327 7.7028907190122302 -0.83867057594974714 0 0.54463902268945019 0.2723195113447251 0 0.41933528797487357 1 I I #
point $-1 -43.53489900814904 8.9318749792195327 9.1540848347421537 #
edge $-1 $706 1 $706 0 $397 $-1 forward 7 unknown #
vertex $-1 $398 $707 #
ellipse-curve $-1 -42.218295211907709 11.718335934078791 7.7028907190122302 -0.83867057594974714 0 0.54463902268945019 0.2723195113447251 0 0.41933528797487357 1 I I #
point $-1 -43.53489900814904 11.718335934078791 9.1540848347421537 #
plane-surface $-1 0 0 10.620581149508919 0 0 1 1 0 0 forward_v I I I I #
coedge $-1 $580 $708 $406 $583 forward $402 $-1 #
coedge $-1 $409 $404 $582 $709 forward $257 $-1 #
coedge $-1 $404 $409 $412 $590 reversed $257 $-1 #
coedge $-1 $708 $577 $404 $581 reversed $402 $-1 #
edge $-1 $710 55.096926052981331 $711 58.868589258464624 $404 $712 forward 7 unknown #
coedge $-1 $406 $405 $578 $709 reversed $161 $-1 #
edge $-1 $585 52.544577398468647 $711 57.041770114705407 $577 $713 forward 7 unknown #
coedge $-1 $412 $407 $708 $714 forward $413 $-1 #
vertex $-1 $408 $715 #
straight-curve $-1 42.582545196585109 -5.1625527283245809 10.620581149508922 0 -1 0 I I #
vertex $-1 $410 $716 #
straight-curve $-1 45.031891842402416 -7.0742343426466938 65.717507202490253 0 0 1 I I #
straight-curve $-1 -4.0203592834037494 -7.0742343426466938 82.382763279174355 0.54463902268945019 0 -0.83867057594974714 I I #
edge $-1 $710 -13.57597657065163 $414 -7.0742343426466938 $579 $717 forward 7 unknown #
point $-1 45.031891842402416 -7.0742343426466938 10.620581149508919 #
point $-1 42.582545196585109 -7.0742343426466938 10.620581149508922 #
edge $-1 $718 1 $718 0 $417 $-1 forward 7 unknown #
vertex $-1 $418 $719 #
ellipse-curve $-1 42.218295211907709 -11.718335934078791 7.7028907190122444 0.83867057594974714 0 0.54463902268945019 0.2723195113447251 0 -0.41933528797487357 1 I I #
point $-1 44.079538030838485 -11.718335934078791 8.3154142587924191 #
edge $-1 $720 1 $720 0 $421 $-1 forward 7 unknown #
vertex $-1 $422 $721 #
ellipse-curve $-1 42.218295211907709 -8.9318749792195327 7.7028907190122444 0.83867057594974714 0 0.54463902268945019 0.2723195113447251 0 -0.41933528797487357 1 I I #
point $-1 44.079538030838485 -8.9318749792195327 8.3154142587924191 #
loop $-1 $-1 $434 $425 #
plane-surface $-1 0 13.575976570651626 6.2451421197412422 0 1 0 0 0 1 forward_v I I I I #
coedge $-1 $722 $611 $613 $723 forward $426 $-1 #
coedge $-1 $428 $431 $722 $724 forward $279 $-1 #
coedge $-1 $613 $434 $428 $606 reversed $601 $-1 #
edge $-1 $725 -9.2751488165299349 $437 -6.8258021707126275 $428 $726 forward 7 unknown #
coedge $-1 $611 $722 $430 $608 forward $426 $-1 #
edge $-1 $609 55.096926052981331 $616 58.868589258464624 $607 $727 forward 7 unknown #
vertex $-1 $724 $728 #
straight-curve $-1 35.756743025872481 7.0742343426466974 10.620581149508922 1 0 0 I I #
coedge $-1 $603 $607 $433 $612 forward $426 $-1 #
edge $-1 $616 1.9116816143221147 $614 8.4134238423270507 $611 $729 forward 7 unknown #
coedge $-1 $434 $605 $603 $723 reversed $601 $-1 #
vertex $-1 $723 $730 #
straight-curve $-1 -4.0203592834037494 13.575976570651633 82.382763279174355 0.54463902268945019 0 -0.83867057594974714 I I #
vertex $-1 $612 $731 #
straight-curve $-1 -4.0203592834037494 7.0742343426466974 82.382763279174355 -0.54463902268945019 0 0.83867057594974714 I I #
point $-1 42.582545196585109 13.575976570651633 10.620581149508922 #
point $-1 42.582545196585109 7.0742343426466974 10.620581149508922 #
edge $-1 $732 1 $732 0 $440 $-1 forward 7 unknown #
vertex $-1 $441 $733 #
ellipse-curve $-1 42.218295211907709 8.9318749792195327 7.7028907190122444 0.83867057594974714 0 0.54463902268945019 0.2723195113447251 0 -0.41933528797487357 1 I I #
point $-1 44.079538030838485 8.9318749792195327 8.3154142587924191 #
edge $-1 $734 1 $734 0 $444 $-1 forward 7 unknown #
vertex $-1 $445 $735 #
ellipse-curve $-1 42.218295211907709 11.718335934078791 7.7028907190122444 0.83867057594974714 0 0.54463902268945019 0.2723195113447251 0 -0.41933528797487357 1 I I #
point $-1 44.079538030838485 11.718335934078791 8.3154142587924191 #
plane-surface $-1 45.031891842402416 0 0 -1 0 0 0 0 1 forward_v I I I I #
coedge $-1 $453 $451 $455 $633 reversed $301 $-1 #
edge $-1 $466 -10.620581149508919 $635 10.620581149508919 $465 $736 forward 7 unknown #
vertex $-1 $633 $737 #
straight-curve $-1 -45.031891842402416 -27.076168813484902 0 0 0 -1 I I #
edge $-1 $631 -27.076168813484902 $635 27.076168813484902 $629 $738 forward 7 unknown #
straight-curve $-1 0 -27.076168813484902 -10.620581149508919 -1 0 0 I I #
vertex $-1 $458 $739 #
straight-curve $-1 0 27.076168813484902 -10.620581149508919 1 0 0 I I #
point $-1 45.031891842402416 27.076168813484902 -10.620581149508919 #
point $-1 45.031891842402416 -27.076168813484902 -10.620581149508919 #
straight-curve $-1 -45.031891842402416 0 10.620581149508919 0 -1 0 I I #
point $-1 -45.031891842402416 27.076168813484902 10.620581149508919 #
point $-1 -45.031891842402416 -27.076168813484902 10.620581149508919 #
straight-curve $-1 45.031891842402416 -27.076168813484902 0 0 0 -1 I I #
straight-curve $-1 45.031891842402416 27.076168813484902 0 0 0 -1 I I #
plane-surface $-1 45.031891842402416 0 0 -1 0 0 0 0 1 forward_v I I I I #
coedge $-1 $648 $478 $489 $657 forward $320 $-1 #
coedge $-1 $478 $648 $492 $659 reversed $320 $-1 #
straight-curve $-1 45.031891842402416 -13.57597657065163 3.1225710598706211 0 0 1 I I #
coedge $-1 $646 $645 $481 $649 forward $320 $-1 #
edge $-1 $652 3.4129402246174969 $650 16.913132467450769 $648 $740 forward 7 unknown #
vertex $-1 $483 $741 #
straight-curve $-1 0 -27.076168813484902 4.0669295430926393 1 0 0 I I #
vertex $-1 $649 $742 #
straight-curve $-1 0 -13.57597657065163 4.0669295430926393 1 0 0 I I #
point $-1 45.031891842402416 -27.076168813484902 4.0669295430926393 #
point $-1 45.031891842402416 -13.57597657065163 4.0669295430926393 #
straight-curve $-1 -45.031891842402416 -10.163036346034133 8.4233546963898451 0 1 0 I I #
edge $-1 $490 -5.300783636519224 $652 -0.94435848322201821 $645 $743 forward 7 unknown #
point $-1 -45.031891842402416 -13.57597657065163 8.4233546963898451 #
edge $-1 $494 -8.4233546963898451 $650 -4.0669295430926393 $646 $744 forward 7 unknown #
point $-1 -45.031891842402416 -27.076168813484902 8.4233546963898451 #
straight-curve $-1 45.031891842402416 -27.076168813484902 0 0 0 -1 I I #
plane-surface $-1 0 27.076168813484902 0 0 -1 0 0 0 -1 forward_v I I I I #
coedge $-1 $503 $672 $505 $666 forward $500 $-1 #
vertex $-1 $666 $745 #
straight-curve $-1 -45.031891842402416 13.575976570651626 3.1225710598706211 0 0 1 I I #
edge $-1 $668 -16.913132467450765 $664 -3.4129402246174951 $663 $746 forward 7 unknown #
straight-curve $-1 0 13.575976570651626 4.0669295430926393 -1 0 0 I I #
vertex $-1 $508 $747 #
straight-curve $-1 0 27.076168813484902 4.0669295430926393 -1 0 0 I I #
point $-1 45.031891842402416 13.575976570651626 4.0669295430926393 #
point $-1 45.031891842402416 27.076168813484898 4.0669295430926393 #
coedge $-1 $663 $512 $515 $674 forward $500 $-1 #
straight-curve $-1 -45.031891842402416 10.163036346034131 8.4233546963898451 0 1 0 I I #
edge $-1 $517 -8.4233546963898451 $668 -4.0669295430926393 $515 $748 forward 7 unknown #
point $-1 -45.031891842402416 27.076168813484898 8.4233546963898451 #
point $-1 -45.031891842402416 13.575976570651626 8.4233546963898451 #
straight-curve $-1 45.031891842402416 13.575976570651626 3.1225710598706211 0 0 -1 I I #
straight-curve $-1 45.031891842402416 27.076168813484902 0 0 0 -1 I I #
coedge $-1 $534 $531 $528 $680 reversed $526 $-1 #
edge $-1 $536 -21.101666590890282 $682 -17.330003385406972 $528 $749 forward 7 unknown #
edge $-1 $683 -8.4134238423270489 $538 -1.9116816143221129 $529 $750 forward 7 unknown #
vertex $-1 $680 $751 #
vertex $-1 $532 $752 #
straight-curve $-1 -60.282868588775557 -13.57597657065163 10.620581149508919 1 0 0 I I #
straight-curve $-1 -45.031891842402402 -13.57597657065163 6.8489179440256294 -0.54463902268945019 0 -0.83867057594974714 I I #
point $-1 -45.031891842402416 -13.57597657065163 6.8489179440256072 #
point $-1 -42.582545196585102 -7.0742343426466938 10.620581149508919 #
straight-curve $-1 -45.031891842402416 0 10.620581149508919 0 -1 0 I I #
vertex $-1 $544 $753 #
point $-1 -41.945975700562983 -11.718335934078791 8.1222260069871037 #
vertex $-1 $548 $754 #
point $-1 -41.945975700562983 -8.9318749792195327 8.1222260069871037 #
coedge $-1 $694 $554 $700 $755 reversed $380 $-1 #
coedge $-1 $554 $693 $557 $698 reversed $380 $-1 #
edge $-1 $696 -8.4134238423270435 $562 -1.9116816143221147 $561 $756 forward 7 unknown #
vertex $-1 $556 $757 #
straight-curve $-1 -38.490843477556048 13.575976570651626 16.921249471744318 -0.54463902268945019 0 -0.83867057594974714 I I #
edge $-1 $558 -17.700323392190455 $702 -15.250976746373141 $557 $758 forward 7 unknown #
point $-1 -42.582545196585102 13.575976570651633 10.620581149508919 #
coedge $-1 $561 $560 $693 $755 forward $552 $-1 #
point $-1 -45.031891842402416 7.0742343426466974 6.8489179440256072 #
vertex $-1 $565 $759 #
straight-curve $-1 -45.031891842402416 0 10.620581149508919 0 -1 0 I I #
vertex $-1 $568 $760 #
point $-1 -41.945975700562983 8.9318749792195327 8.1222260069871037 #
vertex $-1 $572 $761 #
point $-1 -41.945975700562983 11.718335934078791 8.1222260069871037 #
coedge $-1 $577 $580 $584 $714 reversed $402 $-1 #
edge $-1 $711 -8.4134238423270489 $587 -1.9116816143221129 $578 $762 forward 7 unknown #
vertex $-1 $590 $763 #
vertex $-1 $583 $764 #
straight-curve $-1 45.031891842402416 -13.57597657065163 65.717507202490253 0 0 -1 I I #
straight-curve $-1 13.964717914652978 -13.57597657065163 54.688172139318688 0.54463902268945019 0 -0.83867057594974714 I I #
edge $-1 $585 6.8258021707126275 $710 9.2751488165299349 $584 $765 forward 7 unknown #
point $-1 42.582545196585109 -13.57597657065163 10.620581149508922 #
point $-1 45.031891842402416 -7.0742343426466938 6.8489179440256294 #
straight-curve $-1 45.031891842402416 0 10.620581149508919 0 1 0 I I #
vertex $-1 $593 $766 #
point $-1 42.490614723252435 -11.718335934078791 7.2835554310373709 #
vertex $-1 $597 $767 #
point $-1 42.490614723252435 -8.9318749792195327 7.2835554310373709 #
coedge $-1 $607 $603 $604 $724 reversed $426 $-1 #
edge $-1 $614 -58.868589258464624 $725 -55.096926052981331 $603 $768 forward 7 unknown #
edge $-1 $609 7.0742343426466974 $725 13.575976570651633 $722 $769 forward 7 unknown #
vertex $-1 $606 $770 #
straight-curve $-1 35.756743025872481 13.575976570651633 10.620581149508922 -1 0 0 I I #
straight-curve $-1 45.031891842402416 7.0742343426466974 65.717507202490253 0 0 -1 I I #
point $-1 45.031891842402416 7.0742343426466974 10.620581149508919 #
straight-curve $-1 45.031891842402416 5.1625527283245827 6.8489179440256223 0 1 0 I I #
point $-1 45.031891842402416 13.575976570651633 6.8489179440256294 #
point $-1 45.031891842402416 7.0742343426466974 6.8489179440256294 #
vertex $-1 $620 $771 #
point $-1 42.490614723252435 8.9318749792195327 7.2835554310373709 #
vertex $-1 $624 $772 #
point $-1 42.490614723252435 11.718335934078791 7.2835554310373709 #
straight-curve $-1 -45.031891842402416 27.076168813484902 0 0 0 -1 I I #
point $-1 -45.031891842402416 -27.076168813484902 -10.620581149508919 #
straight-curve $-1 -45.031891842402416 0 -10.620581149508919 0 1 0 I I #
point $-1 -45.031891842402416 27.076168813484902 -10.620581149508919 #
straight-curve $-1 -45.031891842402416 -10.163036346034133 4.0669295430926393 0 -1 0 I I #
point $-1 -45.031891842402416 -27.076168813484902 4.0669295430926393 #
point $-1 -45.031891842402416 -13.57597657065163 4.0669295430926393 #
straight-curve $-1 -45.031891842402416 -13.57597657065163 3.1225710598706211 0 0 -1 I I #
straight-curve $-1 -45.031891842402416 -27.076168813484902 0 0 0 -1 I I #
point $-1 -45.031891842402416 13.575976570651626 4.0669295430926393 #
straight-curve $-1 -45.031891842402416 10.163036346034131 4.0669295430926393 0 -1 0 I I #
point $-1 -45.031891842402416 27.076168813484898 4.0669295430926393 #
straight-curve $-1 -45.031891842402416 27.076168813484902 0 0 0 -1 I I #
straight-curve $-1 -45.031891842402416 -13.57597657065163 27.95058453491589 0 0 1 I I #
straight-curve $-1 -42.582545196585102 -5.1625527283245809 10.620581149508919 0 1 0 I I #
point $-1 -45.031891842402416 -13.57597657065163 10.620581149508919 #
point $-1 -42.582545196585102 -13.57597657065163 10.620581149508919 #
point $-1 -41.798959923932834 -11.718335934078791 7.4305712076675059 #
point $-1 -41.798959923932834 -8.9318749792195327 7.4305712076675059 #
edge $-1 $702 17.330003385406972 $696 21.101666590890282 $700 $773 forward 7 unknown #
straight-curve $-1 -45.031891842402416 5.1625527283245827 6.8489179440256045 0 -1 0 I I #
point $-1 -45.031891842402416 13.575976570651626 6.8489179440256072 #
straight-curve $-1 -60.282868588775557 13.575976570651633 10.620581149508919 -1 0 0 I I #
point $-1 -45.031891842402416 13.575976570651633 10.620581149508919 #
point $-1 -41.798959923932834 8.9318749792195327 7.4305712076675059 #
point $-1 -41.798959923932834 11.718335934078791 7.4305712076675059 #
straight-curve $-1 45.031891842402416 -5.1625527283245809 6.8489179440256223 0 1 0 I I #
point $-1 45.031891842402416 -13.57597657065163 10.620581149508919 #
point $-1 45.031891842402416 -13.57597657065163 6.8489179440256311 #
straight-curve $-1 35.756743025872481 -13.57597657065163 10.620581149508922 1 0 0 I I #
point $-1 41.798959923932834 -11.718335934078791 7.4305712076675201 #
point $-1 41.798959923932834 -8.9318749792195327 7.4305712076675201 #
straight-curve $-1 45.031891842402416 13.575976570651633 65.717507202490253 0 0 1 I I #
straight-curve $-1 45.031891842402416 0 10.620581149508919 0 1 0 I I #
point $-1 45.031891842402416 13.575976570651633 10.620581149508919 #
point $-1 41.798959923932834 8.9318749792195327 7.4305712076675201 #
point $-1 41.798959923932834 11.718335934078791 7.4305712076675201 #
straight-curve $-1 -45.031891842402416 13.575976570651633 27.95058453491589 0 0 -1 I I #
End-of-ACIS-data 