500 0 5 0           
7 Unknown 11 ACIS 5.0 NT 24 Fri Mar 26 01:51:05 1999 
-1 9.9999999999999995e-007 1e-010 
body $-1 $5 $-1 $6 #
body $-1 $7 $-1 $8 #
body $-1 $9 $-1 $10 #
body $-1 $11 $-1 $12 #
body $-1 $13 $-1 $14 #
lump $-1 $-1 $15 $0 #
transform $-1 1 0 0 0 1 0 0 0 1 78.947721793267618 53.363860473591956 24.692450212547801 1 rotate no_reflect no_shear #
lump $-1 $-1 $16 $1 #
transform $-1 1 0 0 0 1 0 0 0 1 78.947721793267618 53.363860473591956 24.692450212547801 1 rotate no_reflect no_shear #
lump $-1 $-1 $17 $2 #
transform $-1 1 0 0 0 1 0 0 0 1 78.947721793267618 53.363860473591956 24.692450212547801 1 rotate no_reflect no_shear #
lump $-1 $-1 $18 $3 #
transform $-1 1 0 0 0 1 0 0 0 1 78.947721793267618 53.363860473591956 24.692450212547801 1 rotate no_reflect no_shear #
lump $-1 $-1 $19 $4 #
transform $-1 1 0 0 0 1 0 0 0 1 78.947721793267618 53.363860473591956 24.692450212547801 1 rotate no_reflect no_shear #
shell $-1 $-1 $-1 $20 $-1 $5 #
shell $-1 $-1 $-1 $21 $-1 $7 #
shell $-1 $-1 $-1 $22 $-1 $9 #
shell $-1 $-1 $-1 $23 $-1 $11 #
shell $-1 $-1 $-1 $24 $-1 $13 #
face $-1 $25 $26 $15 $-1 $27 forward single #
face $-1 $28 $29 $16 $-1 $30 forward single #
face $-1 $31 $32 $17 $-1 $33 reversed single #
face $-1 $34 $35 $18 $-1 $36 forward single #
face $-1 $37 $38 $19 $-1 $39 forward single #
face $-1 $40 $41 $15 $-1 $42 reversed single #
loop $-1 $-1 $43 $20 #
plane-surface $-1 0 0 24.692450212547801 0 0 1 1 0 0 forward_v I I I I #
face $-1 $44 $45 $16 $-1 $46 reversed single #
loop $-1 $-1 $47 $21 #
plane-surface $-1 -68.640419226197253 0 18.280901097713642 0 0 1 1 0 0 forward_v I I I I #
face $-1 $48 $49 $17 $-1 $50 reversed single #
loop $-1 $-1 $51 $22 #
plane-surface $-1 46.417521586852125 -179.46476989499058 103.15015912589341 1 0 0 0 0.79863551827123203 -0.60181501223851219 forward_v I I I I #
face $-1 $52 $53 $18 $-1 $54 forward single #
loop $-1 $55 $56 $23 #
cone-surface $-1 55.711864502970826 -45.517195720375675 15.199983407419273 0 0.79863551827123203 -0.60181501223851219 2 0 0 1 I I 0 1 2 forward I I I I #
face $-1 $57 $58 $19 $-1 $59 forward single #
loop $-1 $60 $61 $24 #
cone-surface $-1 69.653378877148896 -45.517195720375675 15.199983407419273 0 0.79863551827123203 -0.60181501223851219 2 0 0 1 I I 0 1 2 forward I I I I #
face $-1 $62 $63 $15 $-1 $64 reversed single #
loop $-1 $-1 $65 $25 #
plane-surface $-1 0 0 -24.692450212547801 0 0 1 1 0 0 forward_v I I I I #
coedge $-1 $66 $67 $68 $69 forward $26 $-1 #
face $-1 $70 $71 $16 $-1 $72 reversed single #
loop $-1 $-1 $73 $28 #
plane-surface $-1 -68.640419226197253 0 13.236910306592467 0 0 1 1 0 0 forward_v I I I I #
coedge $-1 $74 $75 $76 $77 forward $29 $-1 #
face $-1 $78 $79 $17 $-1 $80 forward single #
loop $-1 $-1 $81 $31 #
plane-surface $-1 62.682621690059875 -53.363860473591927 8.126310811457401 0 -0.79863551827123203 0.60181501223851219 1 0 0 forward_v I I I I #
coedge $-1 $82 $83 $84 $85 reversed $32 $-1 #
face $-1 $-1 $86 $18 $-1 $87 forward single #
loop $-1 $88 $89 $34 #
cone-surface $-1 55.711864502970826 -43.113635991553458 13.388771290597443 0 0.79863551827123203 -0.60181501223851219 1 0 0 1 I I -0.70710678118654746 0.70710678118654746 1 forward I I I I #
loop $-1 $-1 $90 $23 #
coedge $-1 $56 $56 $91 $92 reversed $35 $-1 #
face $-1 $-1 $93 $19 $-1 $94 forward single #
loop $-1 $95 $96 $37 #
cone-surface $-1 69.653378877148896 -43.113635991553458 13.388771290597443 0 0.79863551827123203 -0.60181501223851219 1 0 0 1 I I -0.70710678118654746 0.70710678118654746 1 forward I I I I #
loop $-1 $-1 $97 $24 #
coedge $-1 $61 $61 $98 $99 reversed $38 $-1 #
face $-1 $100 $101 $15 $-1 $102 reversed single #
loop $-1 $-1 $103 $40 #
plane-surface $-1 0 -53.363860473591956 0 0 1 0 0 0 1 forward_v I I I I #
coedge $-1 $104 $105 $106 $107 forward $41 $-1 #
coedge $-1 $108 $43 $109 $110 forward $26 $-1 #
coedge $-1 $43 $108 $111 $112 forward $26 $-1 #
coedge $-1 $113 $114 $43 $69 reversed $115 $-1 #
edge $-1 $116 -53.363860473591956 $117 53.363860473591956 $68 $118 forward 7 unknown #
face $-1 $119 $120 $16 $-1 $121 reversed single #
loop $-1 $-1 $122 $44 #
plane-surface $-1 -58.33311665912688 0 15.758905702153054 -1 0 0 0 0 1 forward_v I I I I #
coedge $-1 $123 $124 $125 $126 forward $45 $-1 #
coedge $-1 $127 $47 $128 $129 reversed $29 $-1 #
coedge $-1 $47 $127 $130 $131 reversed $29 $-1 #
coedge $-1 $122 $132 $47 $77 reversed $71 $-1 #
edge $-1 $133 -53.363860473591956 $134 53.363860473591956 $76 $135 forward 7 unknown #
face $-1 $136 $137 $17 $-1 $138 reversed single #
loop $-1 $-1 $139 $48 #
plane-surface $-1 0 0 24.692450212547801 0 0 1 1 0 0 forward_v I I I I #
coedge $-1 $140 $141 $142 $143 reversed $49 $-1 #
coedge $-1 $83 $51 $144 $145 reversed $32 $-1 #
coedge $-1 $51 $82 $140 $146 reversed $32 $-1 #
coedge $-1 $142 $147 $51 $85 forward $137 $-1 #
edge $-1 $148 26.882629350398904 $149 43.448768751489339 $84 $150 forward 7 unknown #
loop $-1 $-1 $91 $52 #
plane-surface $-1 62.682621690059875 -53.363860473591927 8.126310811457401 0 -0.79863551827123203 0.60181501223851219 1 0 0 forward_v I I I I #
loop $-1 $-1 $151 $34 #
coedge $-1 $89 $89 $90 $152 reversed $53 $-1 #
coedge $-1 $90 $90 $89 $152 forward $55 $-1 #
coedge $-1 $91 $91 $56 $92 forward $86 $-1 #
edge $-1 $153 -1.4388295220363729e-015 $153 6.2831853071795987 $91 $154 forward 7 unknown #
loop $-1 $-1 $98 $57 #
plane-surface $-1 62.682621690059875 -53.363860473591927 8.126310811457401 0 -0.79863551827123203 0.60181501223851219 1 0 0 forward_v I I I I #
loop $-1 $-1 $155 $37 #
coedge $-1 $96 $96 $97 $156 reversed $58 $-1 #
coedge $-1 $97 $97 $96 $156 forward $60 $-1 #
coedge $-1 $98 $98 $61 $99 forward $93 $-1 #
edge $-1 $157 -1.4388295220363729e-015 $157 6.2831853071795987 $98 $158 forward 7 unknown #
face $-1 $159 $160 $15 $-1 $161 reversed single #
loop $-1 $-1 $162 $62 #
plane-surface $-1 -78.947721793267618 0 0 1 0 0 0 0 -1 forward_v I I I I #
coedge $-1 $163 $111 $164 $165 forward $63 $-1 #
coedge $-1 $166 $65 $163 $167 forward $41 $-1 #
coedge $-1 $65 $166 $168 $169 forward $41 $-1 #
coedge $-1 $114 $113 $65 $107 reversed $115 $-1 #
edge $-1 $170 -53.363860473591956 $171 53.363860473591956 $106 $172 forward 7 unknown #
coedge $-1 $67 $66 $173 $174 forward $26 $-1 #
coedge $-1 $175 $176 $66 $110 reversed $160 $-1 #
edge $-1 $117 -78.947721793267618 $177 78.947721793267618 $109 $178 forward 7 unknown #
coedge $-1 $103 $179 $67 $112 reversed $63 $-1 #
edge $-1 $180 -78.947721793267618 $116 78.947721793267618 $111 $181 forward 7 unknown #
coedge $-1 $106 $68 $179 $182 forward $115 $-1 #
coedge $-1 $68 $106 $175 $183 reversed $115 $-1 #
loop $-1 $-1 $113 $159 #
vertex $-1 $69 $184 #
vertex $-1 $69 $185 #
straight-curve $-1 78.947721793267618 0 24.692450212547801 0 1 0 I I #
face $-1 $186 $187 $16 $-1 $188 reversed single #
loop $-1 $-1 $189 $70 #
plane-surface $-1 0 -53.363860473591956 0 0 1 0 0 0 1 forward_v I I I I #
coedge $-1 $125 $76 $190 $191 reversed $71 $-1 #
coedge $-1 $192 $73 $189 $193 reversed $45 $-1 #
coedge $-1 $73 $192 $194 $195 reversed $45 $-1 #
coedge $-1 $132 $122 $73 $126 reversed $71 $-1 #
edge $-1 $196 -53.363860473591956 $197 53.363860473591956 $125 $198 forward 7 unknown #
coedge $-1 $75 $74 $199 $200 reversed $29 $-1 #
coedge $-1 $201 $202 $74 $129 forward $203 $-1 #
edge $-1 $204 -44.627512180168992 $134 -24.012907046028253 $128 $205 forward 7 unknown #
coedge $-1 $206 $190 $75 $131 forward $120 $-1 #
edge $-1 $133 24.012907046028253 $207 44.627512180168992 $130 $208 forward 7 unknown #
coedge $-1 $76 $125 $201 $209 reversed $71 $-1 #
vertex $-1 $131 $210 #
vertex $-1 $129 $211 #
straight-curve $-1 -58.33311665912688 0 18.280901097713642 0 1 0 I I #
face $-1 $-1 $212 $17 $-1 $213 reversed single #
loop $-1 $-1 $84 $78 #
plane-surface $-1 0 -53.363860473591956 0 0 1 0 0 0 1 forward_v I I I I #
coedge $-1 $144 $214 $215 $216 forward $79 $-1 #
coedge $-1 $215 $81 $83 $146 forward $49 $-1 #
coedge $-1 $81 $215 $217 $218 reversed $49 $-1 #
coedge $-1 $219 $84 $81 $143 forward $137 $-1 #
edge $-1 $149 15.076210741822187 $220 47.606410948237681 $142 $221 forward 7 unknown #
coedge $-1 $222 $139 $82 $145 forward $79 $-1 #
edge $-1 $223 -48.852005559233959 $148 -36.368524473903335 $144 $224 forward 7 unknown #
edge $-1 $149 -4.6896506375148425e-014 $223 20.743053648490779 $83 $225 forward 7 unknown #
coedge $-1 $84 $219 $222 $226 reversed $137 $-1 #
vertex $-1 $226 $227 #
vertex $-1 $85 $228 #
straight-curve $-1 46.417521586852125 -53.363860473591956 51.575079562946705 0 0 -1 I I #
coedge $-1 $151 $151 $-1 $229 reversed $88 $-1 #
edge $-1 $230 0 $230 6.2831853071796004 $89 $231 forward 7 unknown #
vertex $-1 $92 $232 #
ellipse-curve $-1 55.711864502970826 -47.122119930926644 16.409380512002581 0 -0.79863551827123203 0.60181501223851219 2 0 0 1 I I #
coedge $-1 $155 $155 $-1 $233 reversed $95 $-1 #
edge $-1 $234 0 $234 6.2831853071796004 $96 $235 forward 7 unknown #
vertex $-1 $99 $236 #
ellipse-curve $-1 69.653378877148896 -47.122119930926644 16.409380512002581 0 -0.79863551827123203 0.60181501223851219 2 0 0 1 I I #
face $-1 $-1 $115 $15 $-1 $237 reversed single #
loop $-1 $-1 $175 $100 #
plane-surface $-1 0 53.363860473591956 0 0 -1 0 0 0 -1 forward_v I I I I #
coedge $-1 $238 $173 $176 $239 forward $101 $-1 #
coedge $-1 $179 $103 $104 $167 reversed $63 $-1 #
coedge $-1 $173 $238 $103 $165 reversed $101 $-1 #
edge $-1 $180 -24.692450212547801 $240 24.692450212547801 $164 $241 forward 7 unknown #
coedge $-1 $105 $104 $238 $242 forward $41 $-1 #
edge $-1 $171 -78.947721793267618 $240 78.947721793267618 $163 $243 forward 7 unknown #
coedge $-1 $176 $175 $105 $169 reversed $160 $-1 #
edge $-1 $244 -78.947721793267618 $170 78.947721793267618 $168 $245 forward 7 unknown #
vertex $-1 $107 $246 #
vertex $-1 $182 $247 #
straight-curve $-1 78.947721793267618 0 -24.692450212547801 0 -1 0 I I #
coedge $-1 $162 $164 $108 $174 reversed $101 $-1 #
edge $-1 $177 -53.363860473591956 $180 53.363860473591956 $173 $248 forward 7 unknown #
coedge $-1 $168 $109 $114 $183 forward $160 $-1 #
coedge $-1 $109 $168 $162 $239 reversed $160 $-1 #
vertex $-1 $110 $249 #
straight-curve $-1 0 53.363860473591956 24.692450212547801 -1 0 0 I I #
coedge $-1 $111 $163 $113 $182 reversed $63 $-1 #
vertex $-1 $174 $250 #
straight-curve $-1 0 -53.363860473591956 24.692450212547801 1 0 0 I I #
edge $-1 $116 -24.692450212547801 $171 24.692450212547801 $113 $251 forward 7 unknown #
edge $-1 $117 -24.692450212547801 $170 24.692450212547801 $114 $252 forward 7 unknown #
point $-1 78.947721793267618 -53.363860473591956 24.692450212547801 #
point $-1 78.947721793267618 53.363860473591956 24.692450212547801 #
face $-1 $-1 $203 $16 $-1 $253 reversed single #
loop $-1 $-1 $254 $119 #
plane-surface $-1 -78.947721793267618 0 0 1 0 0 0 0 -1 forward_v I I I I #
coedge $-1 $190 $206 $123 $193 forward $120 $-1 #
coedge $-1 $130 $189 $122 $191 forward $120 $-1 #
edge $-1 $197 5.3574574555159398 $133 10.401448246637115 $190 $255 forward 7 unknown #
coedge $-1 $124 $123 $254 $256 reversed $45 $-1 #
edge $-1 $257 -44.627512180168992 $197 -24.012907046028253 $189 $258 forward 7 unknown #
coedge $-1 $202 $201 $124 $195 forward $203 $-1 #
edge $-1 $196 24.012907046028253 $259 44.627512180168992 $194 $260 forward 7 unknown #
vertex $-1 $195 $261 #
vertex $-1 $193 $262 #
straight-curve $-1 -58.33311665912688 0 13.236910306592467 0 -1 0 I I #
coedge $-1 $263 $264 $127 $200 forward $187 $-1 #
edge $-1 $207 -53.363860473591956 $204 53.363860473591956 $199 $265 forward 7 unknown #
coedge $-1 $194 $128 $132 $209 forward $203 $-1 #
coedge $-1 $128 $194 $263 $266 reversed $203 $-1 #
loop $-1 $-1 $194 $186 #
vertex $-1 $266 $267 #
straight-curve $-1 -34.320209613098626 53.363860473591956 18.280901097713642 1 0 0 I I #
coedge $-1 $189 $130 $264 $268 forward $120 $-1 #
vertex $-1 $268 $269 #
straight-curve $-1 -34.320209613098626 -53.363860473591956 18.280901097713642 -1 0 0 I I #
edge $-1 $134 -10.401448246637115 $196 -5.3574574555159398 $201 $270 forward 7 unknown #
point $-1 -58.33311665912688 -53.363860473591956 18.280901097713642 #
point $-1 -58.33311665912688 53.363860473591956 18.280901097713642 #
loop $-1 $-1 $217 $136 #
plane-surface $-1 78.947721793267618 0 0 -1 0 0 0 0 1 forward_v I I I I #
coedge $-1 $139 $222 $271 $272 forward $79 $-1 #
coedge $-1 $141 $140 $139 $216 reversed $49 $-1 #
edge $-1 $273 -47.606410948237681 $223 -15.076210741822187 $139 $274 forward 7 unknown #
coedge $-1 $271 $275 $141 $218 forward $212 $-1 #
edge $-1 $220 -12.81260594873384 $273 7.9304476997569822 $217 $276 forward 7 unknown #
coedge $-1 $147 $142 $275 $277 reversed $137 $-1 #
vertex $-1 $143 $278 #
straight-curve $-1 31.341310845029938 -53.363860473591956 8.1263108114573583 1 0 0 I I #
coedge $-1 $214 $144 $147 $226 forward $79 $-1 #
vertex $-1 $145 $279 #
straight-curve $-1 46.417521586852125 -89.732384947495291 24.692450212547797 0 -1 0 I I #
straight-curve $-1 46.417521586852125 -53.363860473591927 8.126310811457401 0 0.60181501223851219 0.79863551827123203 I I #
edge $-1 $148 46.417521586852125 $280 78.947721793267618 $147 $281 forward 7 unknown #
point $-1 46.417521586852125 -53.363860473591956 24.692450212547801 #
point $-1 46.417521586852125 -53.363860473591956 8.1263108114573637 #
edge $-1 $282 1 $282 0 $151 $-1 forward 7 unknown #
vertex $-1 $152 $283 #
ellipse-curve $-1 55.711864502970826 -43.912271509824691 13.990586302835956 0 -0.79863551827123203 0.60181501223851219 2 0 0 1 I I #
point $-1 57.711864502970826 -47.122119930926658 16.409380512002588 #
edge $-1 $284 1 $284 0 $155 $-1 forward 7 unknown #
vertex $-1 $156 $285 #
ellipse-curve $-1 69.653378877148896 -43.912271509824691 13.990586302835956 0 -0.79863551827123203 0.60181501223851219 2 0 0 1 I I #
point $-1 71.653378877148896 -47.122119930926658 16.409380512002588 #
plane-surface $-1 78.947721793267618 0 0 -1 0 0 0 0 1 forward_v I I I I #
coedge $-1 $164 $162 $166 $242 reversed $101 $-1 #
edge $-1 $177 -24.692450212547801 $244 24.692450212547801 $176 $286 forward 7 unknown #
vertex $-1 $242 $287 #
straight-curve $-1 -78.947721793267618 -53.363860473591956 0 0 0 -1 I I #
edge $-1 $240 -53.363860473591956 $244 53.363860473591956 $238 $288 forward 7 unknown #
straight-curve $-1 0 -53.363860473591956 -24.692450212547801 -1 0 0 I I #
vertex $-1 $169 $289 #
straight-curve $-1 0 53.363860473591956 -24.692450212547801 1 0 0 I I #
point $-1 78.947721793267618 53.363860473591956 -24.692450212547801 #
point $-1 78.947721793267618 -53.363860473591956 -24.692450212547801 #
straight-curve $-1 -78.947721793267618 0 24.692450212547801 0 -1 0 I I #
point $-1 -78.947721793267618 53.363860473591956 24.692450212547801 #
point $-1 -78.947721793267618 -53.363860473591956 24.692450212547801 #
straight-curve $-1 78.947721793267618 -53.363860473591956 0 0 0 -1 I I #
straight-curve $-1 78.947721793267618 53.363860473591956 0 0 0 -1 I I #
plane-surface $-1 0 53.363860473591956 0 0 -1 0 0 0 -1 forward_v I I I I #
coedge $-1 $264 $263 $192 $256 forward $187 $-1 #
straight-curve $-1 -58.33311665912688 -53.363860473591956 7.8794528510765272 0 0 1 I I #
edge $-1 $259 -53.363860473591956 $257 53.363860473591956 $254 $290 forward 7 unknown #
vertex $-1 $193 $291 #
straight-curve $-1 -34.320209613098626 -53.363860473591956 13.236910306592467 1 0 0 I I #
vertex $-1 $195 $292 #
straight-curve $-1 -34.320209613098626 53.363860473591956 13.236910306592467 -1 0 0 I I #
point $-1 -58.33311665912688 53.363860473591956 13.236910306592467 #
point $-1 -58.33311665912688 -53.363860473591956 13.236910306592467 #
coedge $-1 $254 $199 $202 $266 forward $187 $-1 #
coedge $-1 $199 $254 $206 $268 reversed $187 $-1 #
straight-curve $-1 -78.947721793267618 0 18.280901097713642 0 1 0 I I #
edge $-1 $204 -18.280901097713642 $259 -13.236910306592467 $202 $293 forward 7 unknown #
point $-1 -78.947721793267618 53.363860473591956 18.280901097713642 #
edge $-1 $207 -18.280901097713642 $257 -13.236910306592467 $264 $294 forward 7 unknown #
point $-1 -78.947721793267618 -53.363860473591956 18.280901097713642 #
straight-curve $-1 -58.33311665912688 53.363860473591956 7.8794528510765272 0 0 -1 I I #
coedge $-1 $275 $217 $214 $272 reversed $212 $-1 #
edge $-1 $280 -53.363860473591956 $273 -40.880379388261332 $271 $295 forward 7 unknown #
vertex $-1 $218 $296 #
straight-curve $-1 31.341310845029938 -40.880379388261332 24.692450212547801 -1 0 0 I I #
coedge $-1 $217 $271 $219 $277 forward $212 $-1 #
straight-curve $-1 78.947721793267618 -45.653041867747461 18.358913003729484 0 0.60181501223851219 0.79863551827123203 I I #
edge $-1 $280 -24.692450212547801 $220 -8.1263108114573637 $275 $297 forward 7 unknown #
point $-1 78.947721793267618 -53.363860473591956 8.1263108114573637 #
point $-1 46.417521586852125 -40.880379388261332 24.692450212547801 #
vertex $-1 $272 $298 #
straight-curve $-1 0 -53.363860473591956 24.692450212547801 1 0 0 I I #
vertex $-1 $229 $299 #
point $-1 57.711864502970826 -43.912271509824691 13.990586302835956 #
vertex $-1 $233 $300 #
point $-1 71.653378877148896 -43.912271509824691 13.990586302835956 #
straight-curve $-1 -78.947721793267618 53.363860473591956 0 0 0 -1 I I #
point $-1 -78.947721793267618 -53.363860473591956 -24.692450212547801 #
straight-curve $-1 -78.947721793267618 0 -24.692450212547801 0 1 0 I I #
point $-1 -78.947721793267618 53.363860473591956 -24.692450212547801 #
straight-curve $-1 -78.947721793267618 0 13.236910306592467 0 -1 0 I I #
point $-1 -78.947721793267618 -53.363860473591956 13.236910306592467 #
point $-1 -78.947721793267618 53.363860473591956 13.236910306592467 #
straight-curve $-1 -78.947721793267618 53.363860473591956 0 0 0 -1 I I #
straight-curve $-1 -78.947721793267618 -53.363860473591956 0 0 0 -1 I I #
straight-curve $-1 78.947721793267618 0 24.692450212547801 0 1 0 I I #
point $-1 78.947721793267618 -40.880379388261332 24.692450212547801 #
straight-curve $-1 78.947721793267618 -53.363860473591956 0 0 0 -1 I I #
point $-1 78.947721793267618 -53.363860473591956 24.692450212547801 #
point $-1 55.711864502970826 -42.315000473282225 12.786956278358931 #
point $-1 69.653378877148896 -42.315000473282225 12.786956278358931 #
End-of-ACIS-data 