500 0 12 0           
7 Unknown 11 ACIS 5.0 NT 24 Thu Mar 25 21:11:49 1999 
-1 9.9999999999999995e-007 1e-010 
body $-1 $12 $-1 $13 #
body $-1 $14 $-1 $15 #
body $-1 $16 $-1 $17 #
body $-1 $18 $-1 $19 #
body $-1 $20 $-1 $21 #
body $-1 $22 $-1 $23 #
body $-1 $24 $-1 $25 #
body $-1 $26 $-1 $27 #
body $-1 $28 $-1 $29 #
body $-1 $30 $-1 $31 #
body $-1 $32 $-1 $33 #
body $-1 $34 $-1 $35 #
lump $-1 $-1 $36 $0 #
transform $-1 1 0 0 0 1 0 0 0 1 41.138950773644218 26.115895346926116 11.946585495913885 1 rotate no_reflect no_shear #
lump $-1 $-1 $37 $1 #
transform $-1 1 0 0 0 1 0 0 0 1 41.138950773644218 26.115895346926116 11.946585495913885 1 rotate no_reflect no_shear #
lump $-1 $-1 $38 $2 #
transform $-1 1 0 0 0 1 0 0 0 1 41.138950773644218 26.115895346926116 11.946585495913885 1 rotate no_reflect no_shear #
lump $-1 $-1 $39 $3 #
transform $-1 1 0 0 0 1 0 0 0 1 41.138950773644218 26.115895346926116 11.946585495913885 1 rotate no_reflect no_shear #
lump $-1 $-1 $40 $4 #
transform $-1 1 0 0 0 1 0 0 0 1 41.138950773644218 26.115895346926116 11.946585495913885 1 rotate no_reflect no_shear #
lump $-1 $-1 $41 $5 #
transform $-1 1 0 0 0 1 0 0 0 1 41.138950773644218 26.115895346926116 11.946585495913885 1 rotate no_reflect no_shear #
lump $-1 $-1 $42 $6 #
transform $-1 1 0 0 0 1 0 0 0 1 41.138950773644218 26.115895346926116 11.946585495913885 1 rotate no_reflect no_shear #
lump $-1 $-1 $43 $7 #
transform $-1 1 0 0 0 1 0 0 0 1 41.138950773644218 26.115895346926116 11.946585495913885 1 rotate no_reflect no_shear #
lump $-1 $-1 $44 $8 #
transform $-1 1 0 0 0 1 0 0 0 1 41.138950773644218 26.115895346926116 11.946585495913885 1 rotate no_reflect no_shear #
lump $-1 $-1 $45 $9 #
transform $-1 1 0 0 0 1 0 0 0 1 41.138950773644218 26.115895346926116 11.946585495913885 1 rotate no_reflect no_shear #
lump $-1 $-1 $46 $10 #
transform $-1 1 0 0 0 1 0 0 0 1 41.138950773644218 26.115895346926116 11.946585495913885 1 rotate no_reflect no_shear #
lump $-1 $-1 $47 $11 #
transform $-1 1 0 0 0 1 0 0 0 1 41.138950773644218 26.115895346926116 11.946585495913885 1 rotate no_reflect no_shear #
shell $-1 $-1 $-1 $48 $-1 $12 #
shell $-1 $-1 $-1 $49 $-1 $14 #
shell $-1 $-1 $-1 $50 $-1 $16 #
shell $-1 $-1 $-1 $51 $-1 $18 #
shell $-1 $-1 $-1 $52 $-1 $20 #
shell $-1 $-1 $-1 $53 $-1 $22 #
shell $-1 $-1 $-1 $54 $-1 $24 #
shell $-1 $-1 $-1 $55 $-1 $26 #
shell $-1 $-1 $-1 $56 $-1 $28 #
shell $-1 $-1 $-1 $57 $-1 $30 #
shell $-1 $-1 $-1 $58 $-1 $32 #
shell $-1 $-1 $-1 $59 $-1 $34 #
face $-1 $60 $61 $36 $-1 $62 forward single #
face $-1 $63 $64 $37 $-1 $65 forward single #
face $-1 $66 $67 $38 $-1 $68 forward single #
face $-1 $69 $70 $39 $-1 $71 reversed single #
face $-1 $72 $73 $40 $-1 $74 forward single #
face $-1 $75 $76 $41 $-1 $77 forward single #
face $-1 $78 $79 $42 $-1 $80 reversed single #
face $-1 $81 $82 $43 $-1 $83 forward single #
face $-1 $84 $85 $44 $-1 $86 forward single #
face $-1 $87 $88 $45 $-1 $89 reversed single #
face $-1 $90 $91 $46 $-1 $92 forward single #
face $-1 $93 $94 $47 $-1 $95 forward single #
face $-1 $96 $97 $36 $-1 $98 reversed single #
loop $-1 $-1 $99 $48 #
plane-surface $-1 0 0 11.946585495913885 0 0 1 1 0 0 forward_v I I I I #
face $-1 $100 $101 $37 $-1 $102 forward single #
loop $-1 $-1 $103 $49 #
plane-surface $-1 0 -26.115895346926116 0 0 1 0 0 0 1 forward_v I I I I #
face $-1 $104 $105 $38 $-1 $106 reversed single #
loop $-1 $-1 $107 $50 #
plane-surface $-1 0 26.115895346926116 0 0 -1 0 0 0 -1 forward_v I I I I #
face $-1 $108 $109 $39 $-1 $110 reversed single #
loop $-1 $-1 $111 $51 #
plane-surface $-1 -106.84900531813233 -17.344184127880055 50.122763327950359 0 1 0 -0.79863551827123203 0 0.60181501223851219 forward_v I I I I #
face $-1 $112 $113 $40 $-1 $114 forward single #
loop $-1 $115 $116 $52 #
cone-surface $-1 -35.99814114295522 -15.2244984507401 5.6224032534964241 0.79863551827123203 0 -0.60181501223851219 0.60181501223851219 0 0.79863551827123203 1 I I 0 1 1 forward I I I I #
face $-1 $117 $118 $41 $-1 $119 forward single #
loop $-1 $120 $121 $53 #
cone-surface $-1 -35.99814114295522 -12.044969935030164 5.6224032534964241 0.79863551827123203 0 -0.60181501223851219 0.60181501223851219 0 0.79863551827123203 1 I I 0 1 1 forward I I I I #
face $-1 $122 $123 $42 $-1 $124 reversed single #
loop $-1 $-1 $125 $54 #
plane-surface $-1 55.319489272235764 -9.4132842624675384 122.93254079035434 0 -1 0 -0.78801076186113728 0 -0.61566146476048833 forward_v I I I I #
face $-1 $126 $127 $43 $-1 $128 forward single #
loop $-1 $129 $130 $55 #
cone-surface $-1 37.836786523501345 -15.078212737762195 8.4890456185256724 -0.78801076186113728 0 -0.61566146476048833 0.61566146476048833 0 -0.78801076186113728 1 I I 0 1 1 forward I I I I #
face $-1 $131 $132 $44 $-1 $133 forward single #
loop $-1 $134 $135 $56 #
cone-surface $-1 37.836786523501345 -11.6792556525854 8.4890456185256724 -0.78801076186113728 0 -0.61566146476048833 0.61566146476048833 0 -0.78801076186113728 1 I I 0 1 1 forward I I I I #
face $-1 $136 $137 $45 $-1 $138 reversed single #
loop $-1 $-1 $139 $57 #
plane-surface $-1 55.319489272235764 7.930899865412516 122.93254079035434 0 -1 0 -0.78801076186113728 0 -0.61566146476048833 forward_v I I I I #
face $-1 $140 $141 $46 $-1 $142 forward single #
loop $-1 $143 $144 $58 #
cone-surface $-1 37.836786523501345 2.265971390117862 8.4890456185256724 -0.78801076186113728 0 -0.61566146476048833 0.61566146476048833 0 -0.78801076186113728 1 I I 0 1 1 forward I I I I #
face $-1 $145 $146 $47 $-1 $147 forward single #
loop $-1 $148 $149 $59 #
cone-surface $-1 37.836786523501345 5.6649284752946549 8.4890456185256724 -0.78801076186113728 0 -0.61566146476048833 0.61566146476048833 0 -0.78801076186113728 1 I I 0 1 1 forward I I I I #
face $-1 $150 $151 $36 $-1 $152 reversed single #
loop $-1 $-1 $153 $60 #
plane-surface $-1 0 0 -11.946585495913885 0 0 1 1 0 0 forward_v I I I I #
coedge $-1 $154 $155 $156 $157 forward $61 $-1 #
face $-1 $158 $159 $37 $-1 $160 reversed single #
loop $-1 $-1 $161 $63 #
plane-surface $-1 0 0 11.946585495913885 0 0 1 1 0 0 forward_v I I I I #
coedge $-1 $162 $163 $164 $165 forward $64 $-1 #
face $-1 $166 $167 $38 $-1 $168 reversed single #
loop $-1 $-1 $169 $66 #
plane-surface $-1 41.138950773644218 0 0 -1 0 0 0 0 1 forward_v I I I I #
coedge $-1 $170 $171 $172 $173 forward $67 $-1 #
face $-1 $174 $175 $39 $-1 $176 reversed single #
loop $-1 $-1 $177 $69 #
plane-surface $-1 -41.138950773644225 -13.63473419288513 0.60668700130986508 -0.79863551827123203 0 0.60181501223851219 0.60181501223851219 0 0.79863551827123203 forward_v I I I I #
coedge $-1 $178 $179 $180 $181 reversed $70 $-1 #
face $-1 $-1 $182 $40 $-1 $183 forward single #
loop $-1 $184 $185 $72 #
cone-surface $-1 -34.730626850833993 -15.2244984507401 4.6672627522617152 0.79863551827123203 0 -0.60181501223851219 0.3009075061192561 0 0.39931775913561601 1 I I -0.70710678118654746 0.70710678118654746 0.5 forward I I I I #
loop $-1 $-1 $186 $52 #
coedge $-1 $116 $116 $187 $188 reversed $73 $-1 #
face $-1 $-1 $189 $41 $-1 $190 forward single #
loop $-1 $191 $192 $75 #
cone-surface $-1 -34.730626850833993 -12.044969935030164 4.6672627522617152 0.79863551827123203 0 -0.60181501223851219 0.3009075061192561 0 0.39931775913561601 1 I I -0.70710678118654746 0.70710678118654746 0.5 forward I I I I #
loop $-1 $-1 $193 $53 #
coedge $-1 $121 $121 $194 $195 reversed $76 $-1 #
face $-1 $196 $197 $42 $-1 $198 reversed single #
loop $-1 $-1 $199 $78 #
plane-surface $-1 -9.5163826103786491 -13.378734195173799 72.277207406331485 0.78801076186113728 0 0.61566146476048833 0.61566146476048833 0 -0.78801076186113728 forward_v I I I I #
coedge $-1 $200 $201 $202 $203 reversed $79 $-1 #
face $-1 $-1 $204 $43 $-1 $205 forward single #
loop $-1 $206 $207 $81 #
cone-surface $-1 35.900560367339232 -15.078212737762195 6.9762999948556246 -0.78801076186113728 0 -0.61566146476048833 0.30783073238024417 0 -0.39400538093056864 1 I I -0.70710678118654746 0.70710678118654746 0.5 forward I I I I #
loop $-1 $-1 $208 $55 #
coedge $-1 $130 $130 $209 $210 reversed $82 $-1 #
face $-1 $-1 $211 $44 $-1 $212 forward single #
loop $-1 $213 $214 $84 #
cone-surface $-1 35.900560367339232 -11.6792556525854 6.9762999948556246 -0.78801076186113728 0 -0.61566146476048833 0.30783073238024417 0 -0.39400538093056864 1 I I -0.70710678118654746 0.70710678118654746 0.5 forward I I I I #
loop $-1 $-1 $215 $56 #
coedge $-1 $135 $135 $216 $217 reversed $85 $-1 #
face $-1 $218 $219 $45 $-1 $220 reversed single #
loop $-1 $-1 $221 $87 #
plane-surface $-1 -9.5163826103786491 3.9654499327062567 72.277207406331485 0.78801076186113728 0 0.61566146476048833 0.61566146476048833 0 -0.78801076186113728 forward_v I I I I #
coedge $-1 $222 $223 $224 $225 reversed $88 $-1 #
face $-1 $-1 $226 $46 $-1 $227 forward single #
loop $-1 $228 $229 $90 #
cone-surface $-1 35.900560367339232 2.265971390117862 6.9762999948556246 -0.78801076186113728 0 -0.61566146476048833 0.30783073238024417 0 -0.39400538093056864 1 I I -0.70710678118654746 0.70710678118654746 0.5 forward I I I I #
loop $-1 $-1 $230 $58 #
coedge $-1 $144 $144 $231 $232 reversed $91 $-1 #
face $-1 $-1 $233 $47 $-1 $234 forward single #
loop $-1 $235 $236 $93 #
cone-surface $-1 35.900560367339232 5.6649284752946549 6.9762999948556246 -0.78801076186113728 0 -0.61566146476048833 0.30783073238024417 0 -0.39400538093056864 1 I I -0.70710678118654746 0.70710678118654746 0.5 forward I I I I #
loop $-1 $-1 $237 $59 #
coedge $-1 $149 $149 $238 $239 reversed $94 $-1 #
face $-1 $240 $241 $36 $-1 $242 reversed single #
loop $-1 $-1 $243 $96 #
plane-surface $-1 0 -26.115895346926116 0 0 1 0 0 0 1 forward_v I I I I #
coedge $-1 $244 $245 $246 $247 forward $97 $-1 #
coedge $-1 $248 $99 $249 $250 forward $61 $-1 #
coedge $-1 $99 $248 $251 $252 forward $61 $-1 #
coedge $-1 $253 $254 $99 $157 reversed $255 $-1 #
edge $-1 $256 -26.115895346926116 $257 26.115895346926116 $156 $258 forward 7 unknown #
face $-1 $259 $260 $37 $-1 $261 reversed single #
loop $-1 $-1 $262 $100 #
plane-surface $-1 -41.138950773644218 0 0 1 0 0 0 0 -1 forward_v I I I I #
coedge $-1 $263 $264 $265 $266 forward $101 $-1 #
coedge $-1 $265 $103 $262 $267 reversed $64 $-1 #
coedge $-1 $103 $265 $268 $269 reversed $64 $-1 #
coedge $-1 $270 $271 $103 $165 reversed $260 $-1 #
edge $-1 $272 -41.138950773644218 $273 41.138950773644218 $164 $274 forward 7 unknown #
face $-1 $275 $276 $38 $-1 $277 reversed single #
loop $-1 $-1 $278 $104 #
plane-surface $-1 0 30.50175095644915 7.0068745596078816 0 0 1 1 0 0 forward_v I I I I #
coedge $-1 $279 $280 $170 $281 forward $105 $-1 #
coedge $-1 $282 $107 $169 $281 reversed $67 $-1 #
coedge $-1 $107 $282 $283 $284 reversed $67 $-1 #
coedge $-1 $285 $278 $107 $173 reversed $167 $-1 #
edge $-1 $286 -41.138950773644218 $287 41.138950773644218 $172 $288 forward 7 unknown #
face $-1 $289 $290 $39 $-1 $291 reversed single #
loop $-1 $-1 $292 $108 #
plane-surface $-1 -106.84900531813233 -9.9252842578902047 50.122763327950359 0 -1 0 0.79863551827123203 0 -0.60181501223851219 forward_v I I I I #
coedge $-1 $293 $294 $295 $296 reversed $109 $-1 #
coedge $-1 $179 $111 $297 $298 reversed $70 $-1 #
coedge $-1 $111 $178 $293 $299 reversed $70 $-1 #
coedge $-1 $295 $300 $111 $181 forward $301 $-1 #
edge $-1 $302 12.285551885421945 $303 20.830778080828722 $180 $304 forward 7 unknown #
loop $-1 $-1 $187 $112 #
plane-surface $-1 -41.138950773644225 -13.63473419288513 0.60668700130986508 -0.79863551827123203 0 0.60181501223851219 0.60181501223851219 0 0.79863551827123203 forward_v I I I I #
loop $-1 $-1 $305 $72 #
coedge $-1 $185 $185 $186 $306 reversed $113 $-1 #
coedge $-1 $186 $186 $185 $306 forward $115 $-1 #
coedge $-1 $187 $187 $116 $188 forward $182 $-1 #
edge $-1 $307 0 $307 6.2831853071796004 $187 $308 forward 7 unknown #
loop $-1 $-1 $194 $117 #
plane-surface $-1 -41.138950773644225 -13.63473419288513 0.60668700130986508 -0.79863551827123203 0 0.60181501223851219 0.60181501223851219 0 0.79863551827123203 forward_v I I I I #
loop $-1 $-1 $309 $75 #
coedge $-1 $192 $192 $193 $310 reversed $118 $-1 #
coedge $-1 $193 $193 $192 $310 forward $120 $-1 #
coedge $-1 $194 $194 $121 $195 forward $189 $-1 #
edge $-1 $311 0 $311 6.2831853071796004 $194 $312 forward 7 unknown #
face $-1 $313 $314 $42 $-1 $315 forward single #
loop $-1 $-1 $316 $122 #
plane-surface $-1 55.319489272235764 -17.344184127880059 122.93254079035434 0 1 0 0.78801076186113728 0 0.61566146476048833 forward_v I I I I #
coedge $-1 $317 $318 $319 $320 reversed $123 $-1 #
coedge $-1 $201 $125 $321 $322 reversed $79 $-1 #
coedge $-1 $125 $200 $317 $323 reversed $79 $-1 #
coedge $-1 $319 $324 $125 $203 forward $314 $-1 #
edge $-1 $325 -13.479206137526337 $326 -9.9593191877036453 $202 $327 forward 7 unknown #
loop $-1 $-1 $209 $126 #
plane-surface $-1 -9.5163826103786491 -13.378734195173799 72.277207406331485 0.78801076186113728 0 0.61566146476048833 0.61566146476048833 0 -0.78801076186113728 forward_v I I I I #
loop $-1 $-1 $328 $81 #
coedge $-1 $207 $207 $208 $329 reversed $127 $-1 #
coedge $-1 $208 $208 $207 $329 forward $129 $-1 #
coedge $-1 $209 $209 $130 $210 forward $204 $-1 #
edge $-1 $330 0 $330 6.2831853071796004 $209 $331 forward 7 unknown #
loop $-1 $-1 $216 $131 #
plane-surface $-1 -9.5163826103786491 -13.378734195173799 72.277207406331485 0.78801076186113728 0 0.61566146476048833 0.61566146476048833 0 -0.78801076186113728 forward_v I I I I #
loop $-1 $-1 $332 $84 #
coedge $-1 $214 $214 $215 $333 reversed $132 $-1 #
coedge $-1 $215 $215 $214 $333 forward $134 $-1 #
coedge $-1 $216 $216 $135 $217 forward $211 $-1 #
edge $-1 $334 0 $334 6.2831853071796004 $216 $335 forward 7 unknown #
face $-1 $336 $337 $45 $-1 $338 reversed single #
loop $-1 $-1 $339 $136 #
plane-surface $-1 55.319489272235764 -2.6645352591003757e-015 122.93254079035434 0 1 0 0.78801076186113728 0 0.61566146476048833 forward_v I I I I #
coedge $-1 $340 $341 $342 $343 reversed $137 $-1 #
coedge $-1 $223 $139 $344 $345 reversed $88 $-1 #
coedge $-1 $139 $222 $340 $346 reversed $88 $-1 #
coedge $-1 $342 $347 $139 $225 forward $348 $-1 #
edge $-1 $349 -13.479206137526337 $350 -9.9593191877036453 $224 $351 forward 7 unknown #
loop $-1 $-1 $231 $140 #
plane-surface $-1 -9.5163826103786491 3.9654499327062567 72.277207406331485 0.78801076186113728 0 0.61566146476048833 0.61566146476048833 0 -0.78801076186113728 forward_v I I I I #
loop $-1 $-1 $352 $90 #
coedge $-1 $229 $229 $230 $353 reversed $141 $-1 #
coedge $-1 $230 $230 $229 $353 forward $143 $-1 #
coedge $-1 $231 $231 $144 $232 forward $226 $-1 #
edge $-1 $354 0 $354 6.2831853071796004 $231 $355 forward 7 unknown #
loop $-1 $-1 $238 $145 #
plane-surface $-1 -9.5163826103786491 3.9654499327062567 72.277207406331485 0.78801076186113728 0 0.61566146476048833 0.61566146476048833 0 -0.78801076186113728 forward_v I I I I #
loop $-1 $-1 $356 $93 #
coedge $-1 $236 $236 $237 $357 reversed $146 $-1 #
coedge $-1 $237 $237 $236 $357 forward $148 $-1 #
coedge $-1 $238 $238 $149 $239 forward $233 $-1 #
edge $-1 $358 0 $358 6.2831853071796004 $238 $359 forward 7 unknown #
face $-1 $360 $361 $36 $-1 $362 reversed single #
loop $-1 $-1 $363 $150 #
plane-surface $-1 -41.138950773644218 0 0 1 0 0 0 0 -1 forward_v I I I I #
coedge $-1 $364 $251 $365 $366 forward $151 $-1 #
coedge $-1 $367 $153 $364 $368 forward $97 $-1 #
coedge $-1 $153 $367 $369 $370 forward $97 $-1 #
coedge $-1 $254 $253 $153 $247 reversed $255 $-1 #
edge $-1 $371 -26.115895346926116 $372 26.115895346926116 $246 $373 forward 7 unknown #
coedge $-1 $155 $154 $374 $375 forward $61 $-1 #
coedge $-1 $376 $377 $154 $250 reversed $361 $-1 #
edge $-1 $257 -41.138950773644218 $378 41.138950773644218 $249 $379 forward 7 unknown #
coedge $-1 $243 $380 $155 $252 reversed $151 $-1 #
edge $-1 $381 -41.138950773644218 $256 41.138950773644218 $251 $382 forward 7 unknown #
coedge $-1 $246 $156 $380 $383 forward $255 $-1 #
coedge $-1 $156 $246 $376 $384 reversed $255 $-1 #
loop $-1 $-1 $253 $360 #
vertex $-1 $157 $385 #
vertex $-1 $157 $386 #
straight-curve $-1 41.138950773644218 0 11.946585495913885 0 1 0 I I #
face $-1 $387 $388 $37 $-1 $389 reversed single #
loop $-1 $-1 $270 $158 #
plane-surface $-1 0 -30.501750956449147 7.0068745596078816 0 0 1 1 0 0 forward_v I I I I #
coedge $-1 $390 $391 $162 $267 forward $159 $-1 #
coedge $-1 $392 $161 $391 $393 forward $101 $-1 #
coedge $-1 $161 $392 $394 $395 forward $101 $-1 #
coedge $-1 $163 $162 $161 $266 reversed $64 $-1 #
edge $-1 $396 -41.138950773644218 $397 41.138950773644218 $161 $398 forward 7 unknown #
edge $-1 $397 -11.946585495913885 $273 -7.0068745596078816 $262 $399 forward 7 unknown #
coedge $-1 $394 $400 $163 $269 forward $401 $-1 #
edge $-1 $272 7.0068745596078816 $396 11.946585495913885 $268 $402 forward 7 unknown #
coedge $-1 $403 $164 $400 $404 forward $260 $-1 #
coedge $-1 $164 $403 $390 $405 forward $260 $-1 #
vertex $-1 $269 $406 #
vertex $-1 $267 $407 #
straight-curve $-1 0 -26.115895346926116 7.0068745596078816 -1 0 0 I I #
face $-1 $408 $409 $38 $-1 $410 forward single #
loop $-1 $-1 $411 $166 #
plane-surface $-1 0 34.887606565972177 9.476730027760885 0 -1 0 0 0 -1 forward_v I I I I #
coedge $-1 $172 $412 $279 $413 forward $167 $-1 #
coedge $-1 $414 $169 $278 $413 reversed $105 $-1 #
coedge $-1 $169 $414 $415 $416 reversed $105 $-1 #
edge $-1 $417 -11.946585495913885 $287 -7.0068745596078816 $169 $418 forward 7 unknown #
coedge $-1 $171 $170 $419 $420 reversed $67 $-1 #
coedge $-1 $421 $422 $171 $284 forward $423 $-1 #
edge $-1 $286 7.0068745596078816 $424 11.946585495913885 $283 $425 forward 7 unknown #
coedge $-1 $412 $172 $422 $426 forward $167 $-1 #
vertex $-1 $284 $427 #
vertex $-1 $281 $428 #
straight-curve $-1 0 26.115895346926116 7.0068745596078816 1 0 0 I I #
face $-1 $-1 $301 $39 $-1 $429 forward single #
loop $-1 $-1 $430 $174 #
plane-surface $-1 -41.138950773644218 0 0 1 0 0 0 0 -1 forward_v I I I I #
coedge $-1 $431 $432 $433 $434 reversed $175 $-1 #
coedge $-1 $435 $177 $179 $299 forward $109 $-1 #
coedge $-1 $177 $435 $431 $436 forward $109 $-1 #
coedge $-1 $433 $180 $177 $296 forward $301 $-1 #
edge $-1 $303 -10.52681703143749 $437 -3.1079171614476397 $295 $438 forward 7 unknown #
coedge $-1 $439 $440 $178 $298 forward $290 $-1 #
edge $-1 $441 -24.454694662665304 $302 -13.114796168061295 $297 $442 forward 7 unknown #
edge $-1 $303 -14.199091118750834 $441 -1.1812792947853924e-014 $179 $443 forward 7 unknown #
coedge $-1 $180 $433 $439 $444 forward $301 $-1 #
loop $-1 $-1 $433 $289 #
vertex $-1 $298 $445 #
vertex $-1 $181 $446 #
straight-curve $-1 -53.424502659066164 -17.344184127880055 11.946585495913887 1 0 0 I I #
coedge $-1 $305 $305 $-1 $447 reversed $184 $-1 #
edge $-1 $448 0 $448 6.2831853071796004 $185 $449 forward 7 unknown #
vertex $-1 $188 $450 #
ellipse-curve $-1 -36.866337675940834 -15.2244984507401 6.2766362486118776 -0.79863551827123203 0 0.60181501223851219 0.60181501223851219 0 0.79863551827123203 1 I I #
coedge $-1 $309 $309 $-1 $451 reversed $191 $-1 #
edge $-1 $452 0 $452 6.2831853071796004 $192 $453 forward 7 unknown #
vertex $-1 $195 $454 #
ellipse-curve $-1 -36.866337675940834 -12.044969935030164 6.2766362486118776 -0.79863551827123203 0 0.60181501223851219 0.60181501223851219 0 0.79863551827123203 1 I I #
face $-1 $-1 $455 $42 $-1 $456 reversed single #
loop $-1 $-1 $202 $196 #
plane-surface $-1 0 0 11.946585495913885 0 0 1 1 0 0 forward_v I I I I #
coedge $-1 $457 $458 $459 $460 reversed $197 $-1 #
coedge $-1 $461 $199 $201 $323 forward $123 $-1 #
coedge $-1 $199 $461 $457 $462 forward $123 $-1 #
coedge $-1 $459 $202 $199 $320 forward $314 $-1 #
edge $-1 $326 2.7239171648806391 $463 10.65481703029316 $319 $464 forward 7 unknown #
coedge $-1 $465 $466 $200 $322 forward $455 $-1 #
edge $-1 $467 -54.024934871460111 $325 -49.519684899263282 $321 $468 forward 7 unknown #
edge $-1 $326 76.560657329003604 $467 82.277901547288465 $201 $469 forward 7 unknown #
coedge $-1 $202 $459 $465 $470 forward $314 $-1 #
vertex $-1 $322 $471 #
vertex $-1 $203 $472 #
straight-curve $-1 27.659744636117882 -9.4132842624675384 11.946585495913887 -1 0 0 I I #
coedge $-1 $328 $328 $-1 $473 reversed $206 $-1 #
edge $-1 $474 0 $474 6.2831853071796004 $207 $475 forward 7 unknown #
vertex $-1 $210 $476 #
ellipse-curve $-1 39.379007298732873 -15.078212737762195 9.6939605098154633 0.78801076186113728 0 0.61566146476048833 0.61566146476048833 0 -0.78801076186113728 1 I I #
coedge $-1 $332 $332 $-1 $477 reversed $213 $-1 #
edge $-1 $478 0 $478 6.2831853071796004 $214 $479 forward 7 unknown #
vertex $-1 $217 $480 #
ellipse-curve $-1 39.379007298732873 -11.6792556525854 9.6939605098154633 0.78801076186113728 0 0.61566146476048833 0.61566146476048833 0 -0.78801076186113728 1 I I #
face $-1 $-1 $348 $45 $-1 $481 forward single #
loop $-1 $-1 $482 $218 #
plane-surface $-1 41.138950773644218 0 0 -1 0 0 0 0 1 forward_v I I I I #
coedge $-1 $483 $484 $485 $486 reversed $219 $-1 #
coedge $-1 $487 $221 $223 $346 forward $137 $-1 #
coedge $-1 $221 $487 $483 $488 forward $137 $-1 #
coedge $-1 $485 $224 $221 $343 forward $348 $-1 #
edge $-1 $350 -5.9481748990593877 $489 1.982724966353131 $342 $490 forward 7 unknown #
coedge $-1 $491 $492 $222 $345 forward $337 $-1 #
edge $-1 $493 -54.024934871460111 $349 -49.519684899263282 $344 $494 forward 7 unknown #
edge $-1 $350 76.560657329003604 $493 82.277901547288465 $223 $495 forward 7 unknown #
coedge $-1 $224 $485 $491 $496 forward $348 $-1 #
loop $-1 $-1 $485 $336 #
vertex $-1 $345 $497 #
vertex $-1 $225 $498 #
straight-curve $-1 27.659744636117882 7.930899865412516 11.946585495913887 -1 0 0 I I #
coedge $-1 $352 $352 $-1 $499 reversed $228 $-1 #
edge $-1 $500 0 $500 6.2831853071796004 $229 $501 forward 7 unknown #
vertex $-1 $232 $502 #
ellipse-curve $-1 39.379007298732873 2.265971390117862 9.6939605098154633 0.78801076186113728 0 0.61566146476048833 0.61566146476048833 0 -0.78801076186113728 1 I I #
coedge $-1 $356 $356 $-1 $503 reversed $235 $-1 #
edge $-1 $504 0 $504 6.2831853071796004 $236 $505 forward 7 unknown #
vertex $-1 $239 $506 #
ellipse-curve $-1 39.379007298732873 5.6649284752946549 9.6939605098154633 0.78801076186113728 0 0.61566146476048833 0.61566146476048833 0 -0.78801076186113728 1 I I #
face $-1 $-1 $255 $36 $-1 $507 reversed single #
loop $-1 $-1 $376 $240 #
plane-surface $-1 0 26.115895346926116 0 0 -1 0 0 0 -1 forward_v I I I I #
coedge $-1 $508 $374 $377 $509 forward $241 $-1 #
coedge $-1 $380 $243 $244 $368 reversed $151 $-1 #
coedge $-1 $374 $508 $243 $366 reversed $241 $-1 #
edge $-1 $381 -11.946585495913885 $510 11.946585495913885 $365 $511 forward 7 unknown #
coedge $-1 $245 $244 $508 $512 forward $97 $-1 #
edge $-1 $372 -41.138950773644218 $510 41.138950773644218 $364 $513 forward 7 unknown #
coedge $-1 $377 $376 $245 $370 reversed $361 $-1 #
edge $-1 $514 -41.138950773644218 $371 41.138950773644218 $369 $515 forward 7 unknown #
vertex $-1 $247 $516 #
vertex $-1 $383 $517 #
straight-curve $-1 41.138950773644218 0 -11.946585495913885 0 -1 0 I I #
coedge $-1 $363 $365 $248 $375 reversed $241 $-1 #
edge $-1 $378 -26.115895346926116 $381 26.115895346926116 $374 $518 forward 7 unknown #
coedge $-1 $369 $249 $254 $384 forward $361 $-1 #
coedge $-1 $249 $369 $363 $509 reversed $361 $-1 #
vertex $-1 $250 $519 #
straight-curve $-1 0 26.115895346926116 11.946585495913885 -1 0 0 I I #
coedge $-1 $251 $364 $253 $383 reversed $151 $-1 #
vertex $-1 $375 $520 #
straight-curve $-1 0 -26.115895346926116 11.946585495913885 1 0 0 I I #
edge $-1 $256 -11.946585495913885 $372 11.946585495913885 $253 $521 forward 7 unknown #
edge $-1 $257 -11.946585495913885 $371 11.946585495913885 $254 $522 forward 7 unknown #
point $-1 41.138950773644218 -26.115895346926116 11.946585495913885 #
point $-1 41.138950773644218 26.115895346926116 11.946585495913885 #
face $-1 $-1 $401 $37 $-1 $523 reversed single #
loop $-1 $-1 $524 $259 #
plane-surface $-1 0 -34.887606565972177 9.476730027760885 0 1 0 0 0 1 forward_v I I I I #
coedge $-1 $525 $262 $271 $405 reversed $159 $-1 #
coedge $-1 $262 $525 $263 $393 reversed $159 $-1 #
coedge $-1 $264 $263 $526 $527 forward $101 $-1 #
edge $-1 $397 26.115895346926116 $528 34.887606565972177 $391 $529 forward 7 unknown #
coedge $-1 $530 $268 $264 $395 reversed $401 $-1 #
edge $-1 $531 -34.887606565972177 $396 -26.115895346926116 $394 $532 forward 7 unknown #
vertex $-1 $269 $533 #
vertex $-1 $393 $534 #
straight-curve $-1 0 -26.115895346926116 11.946585495913885 -1 0 0 I I #
straight-curve $-1 -41.138950773644218 -26.115895346926116 0 0 0 -1 I I #
coedge $-1 $268 $530 $270 $404 reversed $401 $-1 #
loop $-1 $-1 $268 $387 #
straight-curve $-1 41.138950773644218 -26.115895346926116 0 0 0 1 I I #
coedge $-1 $271 $270 $535 $536 forward $260 $-1 #
edge $-1 $272 -4.3858556095230306 $537 4.3858556095230306 $400 $538 forward 7 unknown #
edge $-1 $539 -4.3858556095230306 $273 4.3858556095230306 $390 $540 forward 7 unknown #
point $-1 41.138950773644218 -26.115895346926116 7.0068745596078816 #
point $-1 -41.138950773644218 -26.115895346926116 7.0068745596078816 #
face $-1 $-1 $423 $38 $-1 $541 reversed single #
loop $-1 $-1 $419 $275 #
plane-surface $-1 0 0 11.946585495913885 0 0 1 1 0 0 forward_v I I I I #
coedge $-1 $542 $543 $414 $544 forward $276 $-1 #
coedge $-1 $278 $285 $542 $545 forward $167 $-1 #
edge $-1 $546 -4.385855609523027 $287 4.3858556095230306 $279 $547 forward 7 unknown #
coedge $-1 $280 $279 $411 $544 reversed $105 $-1 #
coedge $-1 $548 $419 $280 $416 forward $409 $-1 #
edge $-1 $417 26.115895346926116 $549 34.887606565972177 $280 $550 forward 7 unknown #
vertex $-1 $416 $551 #
straight-curve $-1 41.138950773644218 26.115895346926116 0 0 0 -1 I I #
coedge $-1 $415 $552 $282 $420 forward $409 $-1 #
edge $-1 $424 -41.138950773644218 $417 41.138950773644218 $419 $553 forward 7 unknown #
coedge $-1 $554 $283 $552 $555 reversed $423 $-1 #
coedge $-1 $283 $554 $285 $426 reversed $423 $-1 #
loop $-1 $-1 $283 $408 #
vertex $-1 $284 $556 #
straight-curve $-1 -41.138950773644218 26.115895346926116 0 0 0 1 I I #
edge $-1 $286 -4.3858556095230306 $557 4.385855609523027 $422 $558 forward 7 unknown #
point $-1 -41.138950773644218 26.11589534692612 7.0068745596078816 #
point $-1 41.138950773644218 26.11589534692612 7.0068745596078816 #
plane-surface $-1 0 0 11.946585495913885 0 0 1 1 0 0 forward_v I I I I #
coedge $-1 $440 $439 $432 $559 forward $290 $-1 #
coedge $-1 $432 $292 $294 $436 reversed $175 $-1 #
coedge $-1 $292 $431 $430 $559 reversed $175 $-1 #
coedge $-1 $300 $295 $292 $434 forward $301 $-1 #
edge $-1 $437 -20.830778080828722 $560 -12.285551885421945 $433 $561 forward 7 unknown #
coedge $-1 $294 $293 $440 $562 reversed $109 $-1 #
edge $-1 $563 1.1812792947853924e-014 $437 14.199091118750834 $431 $564 forward 7 unknown #
vertex $-1 $296 $565 #
straight-curve $-1 -32.593724578237442 -6.817367096442565 11.946585495913885 0 1 0 I I #
coedge $-1 $430 $297 $300 $444 reversed $290 $-1 #
coedge $-1 $297 $430 $435 $562 forward $290 $-1 #
vertex $-1 $298 $566 #
straight-curve $-1 -41.138950773644218 -17.344184127880055 25.06138166397518 0 0 1 I I #
straight-curve $-1 -41.138950773644225 -17.344184127880055 0.60668700130986508 -0.60181501223851219 0 -0.79863551827123203 I I #
edge $-1 $560 9.9252842578902047 $302 17.344184127880055 $439 $567 forward 7 unknown #
point $-1 -41.138950773644218 -17.344184127880055 11.946585495913885 #
point $-1 -32.593724578237442 -17.344184127880055 11.946585495913885 #
edge $-1 $568 1 $568 0 $305 $-1 forward 7 unknown #
vertex $-1 $306 $569 #
ellipse-curve $-1 -35.129944609969606 -15.2244984507401 4.9681702583809715 -0.79863551827123203 0 0.60181501223851219 0.60181501223851219 0 0.79863551827123203 1 I I #
point $-1 -36.264522663702323 -15.2244984507401 7.0752717668831089 #
edge $-1 $570 1 $570 0 $309 $-1 forward 7 unknown #
vertex $-1 $310 $571 #
ellipse-curve $-1 -35.129944609969606 -12.044969935030164 4.9681702583809715 -0.79863551827123203 0 0.60181501223851219 0.60181501223851219 0 0.79863551827123203 1 I I #
point $-1 -36.264522663702323 -12.044969935030164 7.0752717668831089 #
loop $-1 $-1 $321 $313 #
plane-surface $-1 41.138950773644218 0 0 -1 0 0 0 0 1 forward_v I I I I #
coedge $-1 $458 $316 $318 $462 reversed $197 $-1 #
coedge $-1 $316 $457 $572 $573 reversed $197 $-1 #
coedge $-1 $324 $319 $316 $460 forward $314 $-1 #
edge $-1 $463 9.9593191877036453 $574 13.479206137526337 $459 $575 forward 7 unknown #
coedge $-1 $318 $317 $466 $576 reversed $123 $-1 #
edge $-1 $577 -82.277901547288465 $463 -76.560657329003604 $457 $578 forward 7 unknown #
vertex $-1 $320 $579 #
straight-curve $-1 37.619063823821527 -6.6893670975868993 11.946585495913887 0 -1 0 I I #
coedge $-1 $572 $321 $324 $470 reversed $455 $-1 #
coedge $-1 $321 $572 $461 $576 forward $455 $-1 #
vertex $-1 $322 $580 #
straight-curve $-1 41.138950773644218 -9.4132842624675384 61.466270395177169 0 0 1 I I #
straight-curve $-1 -9.5163826103786491 -9.4132842624675384 72.277207406331485 0.61566146476048833 0 -0.78801076186113728 I I #
edge $-1 $574 -17.344184127880059 $325 -9.4132842624675384 $465 $581 forward 7 unknown #
point $-1 41.138950773644218 -9.4132842624675384 11.946585495913885 #
point $-1 37.619063823821527 -9.4132842624675384 11.946585495913894 #
edge $-1 $582 1 $582 0 $328 $-1 forward 7 unknown #
vertex $-1 $329 $583 #
ellipse-curve $-1 36.294565748269797 -15.078212737762195 7.2841307272358691 0.78801076186113728 0 0.61566146476048833 0.61566146476048833 0 -0.78801076186113728 1 I I #
point $-1 39.994668763493372 -15.078212737762195 8.9059497479543381 #
edge $-1 $584 1 $584 0 $332 $-1 forward 7 unknown #
vertex $-1 $333 $585 #
ellipse-curve $-1 36.294565748269797 -11.6792556525854 7.2841307272358691 0.78801076186113728 0 0.61566146476048833 0.61566146476048833 0 -0.78801076186113728 1 I I #
point $-1 39.994668763493372 -11.6792556525854 8.9059497479543381 #
plane-surface $-1 0 0 11.946585495913885 0 0 1 1 0 0 forward_v I I I I #
coedge $-1 $492 $491 $484 $586 forward $337 $-1 #
coedge $-1 $484 $339 $341 $488 reversed $219 $-1 #
coedge $-1 $339 $483 $482 $586 reversed $219 $-1 #
coedge $-1 $347 $342 $339 $486 forward $348 $-1 #
edge $-1 $489 9.9593191877036453 $587 13.479206137526337 $485 $588 forward 7 unknown #
coedge $-1 $341 $340 $492 $589 reversed $137 $-1 #
edge $-1 $590 -82.277901547288465 $489 -76.560657329003604 $483 $591 forward 7 unknown #
vertex $-1 $343 $592 #
straight-curve $-1 37.619063823821527 1.9827249663531283 11.946585495913887 0 -1 0 I I #
coedge $-1 $482 $344 $347 $496 reversed $337 $-1 #
coedge $-1 $344 $482 $487 $589 forward $337 $-1 #
vertex $-1 $345 $593 #
straight-curve $-1 41.138950773644218 7.930899865412516 61.466270395177169 0 0 1 I I #
straight-curve $-1 -9.5163826103786491 7.930899865412516 72.277207406331485 0.61566146476048833 0 -0.78801076186113728 I I #
edge $-1 $587 -2.6645352591003757e-015 $349 7.930899865412516 $491 $594 forward 7 unknown #
point $-1 41.138950773644218 7.930899865412516 11.946585495913885 #
point $-1 37.619063823821527 7.930899865412516 11.946585495913894 #
edge $-1 $595 1 $595 0 $352 $-1 forward 7 unknown #
vertex $-1 $353 $596 #
ellipse-curve $-1 36.294565748269797 2.265971390117862 7.2841307272358691 0.78801076186113728 0 0.61566146476048833 0.61566146476048833 0 -0.78801076186113728 1 I I #
point $-1 39.994668763493372 2.265971390117862 8.9059497479543381 #
edge $-1 $597 1 $597 0 $356 $-1 forward 7 unknown #
vertex $-1 $357 $598 #
ellipse-curve $-1 36.294565748269797 5.6649284752946549 7.2841307272358691 0.78801076186113728 0 0.61566146476048833 0.61566146476048833 0 -0.78801076186113728 1 I I #
point $-1 39.994668763493372 5.6649284752946549 8.9059497479543381 #
plane-surface $-1 41.138950773644218 0 0 -1 0 0 0 0 1 forward_v I I I I #
coedge $-1 $365 $363 $367 $512 reversed $241 $-1 #
edge $-1 $378 -11.946585495913885 $514 11.946585495913885 $377 $599 forward 7 unknown #
vertex $-1 $512 $600 #
straight-curve $-1 -41.138950773644218 -26.115895346926116 0 0 0 -1 I I #
edge $-1 $510 -26.115895346926116 $514 26.115895346926116 $508 $601 forward 7 unknown #
straight-curve $-1 0 -26.115895346926116 -11.946585495913885 -1 0 0 I I #
vertex $-1 $370 $602 #
straight-curve $-1 0 26.115895346926116 -11.946585495913885 1 0 0 I I #
point $-1 41.138950773644218 26.115895346926116 -11.946585495913885 #
point $-1 41.138950773644218 -26.115895346926116 -11.946585495913885 #
straight-curve $-1 -41.138950773644218 0 11.946585495913885 0 -1 0 I I #
point $-1 -41.138950773644218 26.115895346926116 11.946585495913885 #
point $-1 -41.138950773644218 -26.115895346926116 11.946585495913885 #
straight-curve $-1 41.138950773644218 -26.115895346926116 0 0 0 -1 I I #
straight-curve $-1 41.138950773644218 26.115895346926116 0 0 0 -1 I I #
plane-surface $-1 41.138950773644218 0 0 -1 0 0 0 0 1 forward_v I I I I #
coedge $-1 $535 $526 $525 $603 forward $388 $-1 #
coedge $-1 $391 $390 $524 $603 reversed $159 $-1 #
coedge $-1 $524 $604 $392 $527 reversed $388 $-1 #
edge $-1 $528 -41.138950773644218 $531 41.138950773644218 $526 $605 forward 7 unknown #
vertex $-1 $393 $606 #
straight-curve $-1 -41.138950773644218 0 11.946585495913885 0 -1 0 I I #
coedge $-1 $400 $394 $604 $607 forward $401 $-1 #
vertex $-1 $395 $608 #
straight-curve $-1 41.138950773644218 0 11.946585495913885 0 1 0 I I #
point $-1 41.138950773644218 -26.115895346926116 11.946585495913885 #
point $-1 -41.138950773644218 -26.115895346926116 11.946585495913885 #
coedge $-1 $604 $524 $403 $536 reversed $388 $-1 #
edge $-1 $537 -41.138950773644218 $539 41.138950773644218 $535 $609 forward 7 unknown #
vertex $-1 $607 $610 #
straight-curve $-1 41.138950773644218 -30.501750956449147 7.0068745596078816 0 -1 0 I I #
vertex $-1 $405 $611 #
straight-curve $-1 -41.138950773644218 -30.501750956449147 7.0068745596078816 0 1 0 I I #
plane-surface $-1 -41.138950773644218 0 0 1 0 0 0 0 -1 forward_v I I I I #
coedge $-1 $612 $411 $412 $545 reversed $276 $-1 #
coedge $-1 $411 $612 $548 $613 reversed $276 $-1 #
edge $-1 $549 -2.4698554681530034 $546 2.4698554681530034 $414 $614 forward 7 unknown #
edge $-1 $557 -41.138950773644218 $546 41.138950773644218 $542 $615 forward 7 unknown #
vertex $-1 $413 $616 #
straight-curve $-1 41.138950773644218 30.50175095644915 7.0068745596078816 0 -1 0 I I #
coedge $-1 $552 $415 $543 $613 forward $409 $-1 #
vertex $-1 $416 $617 #
straight-curve $-1 41.138950773644218 0 11.946585495913885 0 1 0 I I #
point $-1 41.138950773644218 26.115895346926116 11.946585495913885 #
coedge $-1 $419 $548 $421 $555 forward $409 $-1 #
straight-curve $-1 0 26.115895346926116 11.946585495913885 1 0 0 I I #
coedge $-1 $422 $421 $612 $618 forward $423 $-1 #
edge $-1 $619 -34.887606565972177 $424 -26.115895346926116 $421 $620 forward 7 unknown #
point $-1 -41.138950773644218 26.115895346926116 11.946585495913885 #
vertex $-1 $545 $621 #
straight-curve $-1 -41.138950773644218 30.50175095644915 7.0068745596078816 0 1 0 I I #
edge $-1 $560 13.114796168061295 $563 24.454694662665304 $430 $622 forward 7 unknown #
vertex $-1 $444 $623 #
straight-curve $-1 -53.424502659066164 -9.9252842578902047 11.946585495913887 -1 0 0 I I #
edge $-1 $563 3.1079171614476397 $441 10.52681703143749 $440 $624 forward 7 unknown #
vertex $-1 $562 $625 #
straight-curve $-1 -41.138950773644225 -9.9252842578902047 0.60668700130986508 0.60181501223851219 0 0.79863551827123203 I I #
point $-1 -32.593724578237442 -9.9252842578902047 11.946585495913885 #
point $-1 -41.138950773644218 -17.344184127880055 0.60668700130987452 #
straight-curve $-1 -41.138950773644218 0 11.946585495913885 0 -1 0 I I #
vertex $-1 $447 $626 #
point $-1 -34.528129597731095 -15.2244984507401 5.7668057766522036 #
vertex $-1 $451 $627 #
point $-1 -34.528129597731095 -12.044969935030164 5.7668057766522036 #
coedge $-1 $466 $465 $458 $573 forward $455 $-1 #
edge $-1 $574 49.519684899263282 $577 54.024934871460111 $572 $628 forward 7 unknown #
vertex $-1 $470 $629 #
straight-curve $-1 27.659744636117882 -17.344184127880059 11.946585495913887 1 0 0 I I #
edge $-1 $577 -10.65481703029316 $467 -2.7239171648806391 $466 $630 forward 7 unknown #
vertex $-1 $576 $631 #
straight-curve $-1 -9.5163826103786491 -17.344184127880059 72.277207406331485 -0.61566146476048833 0 0.78801076186113728 I I #
point $-1 37.619063823821527 -17.344184127880059 11.946585495913894 #
point $-1 41.138950773644218 -9.4132842624675384 7.4413355237170578 #
straight-curve $-1 41.138950773644218 0 11.946585495913885 0 1 0 I I #
vertex $-1 $473 $632 #
point $-1 36.910227213030289 -15.078212737762195 6.4961199653747315 #
vertex $-1 $477 $633 #
point $-1 36.910227213030289 -11.6792556525854 6.4961199653747315 #
edge $-1 $587 49.519684899263282 $590 54.024934871460111 $482 $634 forward 7 unknown #
vertex $-1 $496 $635 #
straight-curve $-1 27.659744636117882 -2.6645352591003757e-015 11.946585495913887 1 0 0 I I #
edge $-1 $590 -1.982724966353131 $493 5.9481748990593877 $492 $636 forward 7 unknown #
vertex $-1 $589 $637 #
straight-curve $-1 -9.5163826103786491 -2.6645352591003757e-015 72.277207406331485 -0.61566146476048833 0 0.78801076186113728 I I #
point $-1 37.619063823821527 -2.6645352591003757e-015 11.946585495913894 #
point $-1 41.138950773644218 7.930899865412516 7.4413355237170578 #
straight-curve $-1 41.138950773644218 0 11.946585495913885 0 1 0 I I #
vertex $-1 $499 $638 #
point $-1 36.910227213030289 2.265971390117862 6.4961199653747315 #
vertex $-1 $503 $639 #
point $-1 36.910227213030289 5.6649284752946549 6.4961199653747315 #
straight-curve $-1 -41.138950773644218 26.115895346926116 0 0 0 -1 I I #
point $-1 -41.138950773644218 -26.115895346926116 -11.946585495913885 #
straight-curve $-1 -41.138950773644218 0 -11.946585495913885 0 1 0 I I #
point $-1 -41.138950773644218 26.115895346926116 -11.946585495913885 #
edge $-1 $528 -2.4698554681530034 $539 2.4698554681530034 $525 $640 forward 7 unknown #
coedge $-1 $526 $535 $530 $607 reversed $388 $-1 #
straight-curve $-1 0 -34.887606565972177 11.946585495913888 1 0 0 I I #
point $-1 -41.138950773644218 -34.887606565972177 11.946585495913888 #
edge $-1 $531 -2.4698554681530034 $537 2.4698554681530034 $530 $641 forward 7 unknown #
point $-1 41.138950773644218 -34.887606565972177 11.946585495913888 #
straight-curve $-1 0 -34.887606565972177 7.0068745596078816 -1 0 0 I I #
point $-1 41.138950773644218 -34.887606565972177 7.0068745596078816 #
point $-1 -41.138950773644218 -34.887606565972177 7.0068745596078816 #
coedge $-1 $543 $542 $554 $618 reversed $276 $-1 #
edge $-1 $549 -41.138950773644218 $619 41.138950773644218 $543 $642 forward 7 unknown #
straight-curve $-1 41.138950773644218 34.887606565972177 9.476730027760885 0 0 -1 I I #
straight-curve $-1 0 34.887606565972177 7.0068745596078816 1 0 0 I I #
point $-1 41.138950773644218 34.887606565972177 7.0068745596078816 #
point $-1 41.138950773644218 34.887606565972177 11.946585495913888 #
edge $-1 $619 -2.4698554681530034 $557 2.4698554681530034 $612 $643 forward 7 unknown #
vertex $-1 $613 $644 #
straight-curve $-1 -41.138950773644218 0 11.946585495913885 0 -1 0 I I #
point $-1 -41.138950773644218 34.887606565972177 7.0068745596078816 #
straight-curve $-1 -41.138950773644218 -9.9252842578902047 25.06138166397518 0 0 -1 I I #
point $-1 -41.138950773644218 -9.9252842578902047 11.946585495913885 #
straight-curve $-1 -41.138950773644218 -6.817367096442565 0.6066870013098814 0 -1 0 I I #
point $-1 -41.138950773644218 -9.9252842578902047 0.60668700130987452 #
point $-1 -34.33130909169838 -15.2244984507401 4.3663552461424588 #
point $-1 -34.33130909169838 -12.044969935030164 4.3663552461424588 #
straight-curve $-1 41.138950773644218 -17.344184127880059 61.466270395177169 0 0 -1 I I #
point $-1 41.138950773644218 -17.344184127880059 11.946585495913885 #
straight-curve $-1 41.138950773644225 -6.6893670975868993 7.4413355237170542 0 1 0 I I #
point $-1 41.138950773644218 -17.344184127880059 7.4413355237170578 #
point $-1 35.506554986408666 -15.078212737762195 6.6684692624753801 #
point $-1 35.506554986408666 -11.6792556525854 6.6684692624753801 #
straight-curve $-1 41.138950773644218 -2.6645352591003757e-015 61.466270395177169 0 0 -1 I I #
point $-1 41.138950773644218 -2.6645352591003757e-015 11.946585495913885 #
straight-curve $-1 41.138950773644225 1.9827249663531283 7.4413355237170542 0 1 0 I I #
point $-1 41.138950773644218 -2.6645352591003757e-015 7.4413355237170578 #
point $-1 35.506554986408666 2.265971390117862 6.6684692624753801 #
point $-1 35.506554986408666 5.6649284752946549 6.6684692624753801 #
straight-curve $-1 -41.138950773644218 -34.887606565972177 9.476730027760885 0 0 -1 I I #
straight-curve $-1 41.138950773644218 -34.887606565972177 9.476730027760885 0 0 -1 I I #
straight-curve $-1 0 34.887606565972177 11.946585495913888 -1 0 0 I I #
straight-curve $-1 -41.138950773644218 34.887606565972177 9.476730027760885 0 0 -1 I I #
point $-1 -41.138950773644218 34.887606565972177 11.946585495913888 #
End-of-ACIS-data 