500 0 7 0           
7 Unknown 11 ACIS 5.0 NT 24 Thu Mar 25 15:27:10 1999 
-1 9.9999999999999995e-007 1e-010 
body $-1 $7 $-1 $8 #
body $-1 $9 $-1 $10 #
body $-1 $11 $-1 $12 #
body $-1 $13 $-1 $14 #
body $-1 $15 $-1 $16 #
body $-1 $17 $-1 $18 #
body $-1 $19 $-1 $20 #
lump $-1 $-1 $21 $0 #
transform $-1 1 0 0 0 1 0 0 0 1 65.545213171788689 31.186935316590564 12.233022316265609 1 rotate no_reflect no_shear #
lump $-1 $-1 $22 $1 #
transform $-1 1 0 0 0 1 0 0 0 1 65.545213171788689 31.186935316590564 12.233022316265609 1 rotate no_reflect no_shear #
lump $-1 $-1 $23 $2 #
transform $-1 1 0 0 0 1 0 0 0 1 65.545213171788689 31.186935316590564 12.233022316265609 1 rotate no_reflect no_shear #
lump $-1 $-1 $24 $3 #
transform $-1 1 0 0 0 1 0 0 0 1 65.545213171788689 31.186935316590564 12.233022316265609 1 rotate no_reflect no_shear #
lump $-1 $-1 $25 $4 #
transform $-1 1 0 0 0 1 0 0 0 1 65.545213171788689 31.186935316590564 12.233022316265609 1 rotate no_reflect no_shear #
lump $-1 $-1 $26 $5 #
transform $-1 1 0 0 0 1 0 0 0 1 65.545213171788689 31.186935316590564 12.233022316265609 1 rotate no_reflect no_shear #
lump $-1 $-1 $27 $6 #
transform $-1 1 0 0 0 1 0 0 0 1 65.545213171788689 31.186935316590564 12.233022316265609 1 rotate no_reflect no_shear #
shell $-1 $-1 $-1 $28 $-1 $7 #
shell $-1 $-1 $-1 $29 $-1 $9 #
shell $-1 $-1 $-1 $30 $-1 $11 #
shell $-1 $-1 $-1 $31 $-1 $13 #
shell $-1 $-1 $-1 $32 $-1 $15 #
shell $-1 $-1 $-1 $33 $-1 $17 #
shell $-1 $-1 $-1 $34 $-1 $19 #
face $-1 $35 $36 $21 $-1 $37 forward single #
face $-1 $38 $39 $22 $-1 $40 reversed single #
face $-1 $41 $42 $23 $-1 $43 forward single #
face $-1 $44 $45 $24 $-1 $46 forward single #
face $-1 $47 $48 $25 $-1 $49 reversed single #
face $-1 $50 $51 $26 $-1 $52 forward single #
face $-1 $53 $54 $27 $-1 $55 forward single #
face $-1 $56 $57 $21 $-1 $58 reversed single #
loop $-1 $-1 $59 $28 #
plane-surface $-1 0 0 12.233022316265609 0 0 1 1 0 0 forward_v I I I I #
face $-1 $60 $61 $22 $-1 $62 reversed single #
loop $-1 $-1 $63 $29 #
plane-surface $-1 -36.133381531721611 -108.23995562247921 108.39285827464671 -1 0 0 0 -0.5877852598018023 0.80901698891910034 forward_v I I I I #
face $-1 $64 $65 $23 $-1 $66 forward single #
loop $-1 $67 $68 $30 #
cone-surface $-1 -57.141832703198098 -23.283068681215713 5.7792585335778881 0 0.5877852598018023 -0.80901698891910034 1.5 0 0 1 I I 0 1 1.5 forward I I I I #
face $-1 $69 $70 $24 $-1 $71 forward single #
loop $-1 $72 $73 $31 #
cone-surface $-1 -44.536762000312208 -23.283068681215713 5.7792585335778881 0 0.5877852598018023 -0.80901698891910034 1.5 0 0 1 I I 0 1 1.5 forward I I I I #
face $-1 $74 $75 $25 $-1 $76 reversed single #
loop $-1 $-1 $77 $32 #
plane-surface $-1 34.993186472426615 42.714793107052444 152.52602654134608 1 0 0 0 -0.50000000669873634 -0.8660253999169214 forward_v I I I I #
face $-1 $78 $79 $26 $-1 $80 forward single #
loop $-1 $81 $82 $33 #
cone-surface $-1 43.722336957958632 26.816955091179508 9.0855648448512127 0 -0.50000000669873634 -0.8660253999169214 2 0 0 1 I I 0 1 2 forward I I I I #
face $-1 $83 $84 $27 $-1 $85 forward single #
loop $-1 $86 $87 $34 #
cone-surface $-1 56.816062686256672 26.816955091179508 9.0855648448512127 0 -0.50000000669873634 -0.8660253999169214 2 0 0 1 I I 0 1 2 forward I I I I #
face $-1 $88 $89 $21 $-1 $90 reversed single #
loop $-1 $-1 $91 $35 #
plane-surface $-1 0 0 -12.233022316265609 0 0 1 1 0 0 forward_v I I I I #
coedge $-1 $92 $93 $94 $95 forward $36 $-1 #
face $-1 $96 $97 $22 $-1 $98 forward single #
loop $-1 $-1 $99 $38 #
plane-surface $-1 -50.83929735175515 -31.186935316590564 2.338476278044638 0 -0.5877852598018023 0.80901698891910034 1 0 0 forward_v I I I I #
coedge $-1 $100 $101 $102 $103 reversed $39 $-1 #
face $-1 $-1 $104 $23 $-1 $105 forward single #
loop $-1 $106 $107 $41 #
cone-surface $-1 -57.141832703198098 -21.747700107213639 3.6660050283113339 0 0.5877852598018023 -0.80901698891910034 0.75 0 0 1 I I -0.70710678118654757 0.70710678118654757 0.75 forward I I I I #
loop $-1 $-1 $108 $30 #
coedge $-1 $68 $68 $109 $110 reversed $42 $-1 #
face $-1 $-1 $111 $24 $-1 $112 forward single #
loop $-1 $113 $114 $44 #
cone-surface $-1 -44.536762000312208 -21.747700107213639 3.6660050283113339 0 0.5877852598018023 -0.80901698891910034 0.75 0 0 1 I I -0.70710678118654757 0.70710678118654757 0.75 forward I I I I #
loop $-1 $-1 $115 $31 #
coedge $-1 $73 $73 $116 $117 reversed $45 $-1 #
face $-1 $118 $119 $25 $-1 $120 forward single #
loop $-1 $-1 $121 $47 #
plane-surface $-1 50.269199822107652 -22.830420942876444 38.998387641869755 0 0.50000000669873634 0.8660253999169214 1 0 0 forward_v I I I I #
coedge $-1 $122 $123 $124 $125 reversed $48 $-1 #
face $-1 $-1 $126 $26 $-1 $127 forward single #
loop $-1 $128 $129 $50 #
cone-surface $-1 43.722336957958632 25.776167089320907 7.2828671779261516 0 -0.50000000669873634 -0.8660253999169214 1 0 0 1 I I -0.70710678118654746 0.70710678118654746 1 forward I I I I #
loop $-1 $-1 $130 $33 #
coedge $-1 $82 $82 $131 $132 reversed $51 $-1 #
face $-1 $-1 $133 $27 $-1 $134 forward single #
loop $-1 $135 $136 $53 #
cone-surface $-1 56.816062686256672 25.776167089320907 7.2828671779261516 0 -0.50000000669873634 -0.8660253999169214 1 0 0 1 I I -0.70710678118654746 0.70710678118654746 1 forward I I I I #
loop $-1 $-1 $137 $34 #
coedge $-1 $87 $87 $138 $139 reversed $54 $-1 #
face $-1 $140 $141 $21 $-1 $142 reversed single #
loop $-1 $-1 $143 $56 #
plane-surface $-1 0 -31.186935316590564 0 0 1 0 0 0 1 forward_v I I I I #
coedge $-1 $144 $145 $146 $147 forward $57 $-1 #
coedge $-1 $148 $59 $149 $150 forward $36 $-1 #
coedge $-1 $59 $148 $151 $152 forward $36 $-1 #
coedge $-1 $153 $154 $59 $95 reversed $155 $-1 #
edge $-1 $156 -31.186935316590564 $157 31.186935316590564 $94 $158 forward 7 unknown #
face $-1 $159 $160 $22 $-1 $161 reversed single #
loop $-1 $-1 $102 $60 #
plane-surface $-1 0 0 12.233022316265609 0 0 1 1 0 0 forward_v I I I I #
coedge $-1 $162 $163 $164 $165 reversed $61 $-1 #
coedge $-1 $101 $63 $166 $167 reversed $39 $-1 #
coedge $-1 $63 $100 $162 $168 reversed $39 $-1 #
coedge $-1 $164 $169 $63 $103 forward $97 $-1 #
edge $-1 $170 22.933042494649044 $171 36.551716507097289 $102 $172 forward 7 unknown #
loop $-1 $-1 $109 $64 #
plane-surface $-1 -50.83929735175515 -31.186935316590564 2.338476278044638 0 -0.5877852598018023 0.80901698891910034 1 0 0 forward_v I I I I #
loop $-1 $-1 $173 $41 #
coedge $-1 $107 $107 $108 $174 reversed $65 $-1 #
coedge $-1 $108 $108 $107 $174 forward $67 $-1 #
coedge $-1 $109 $109 $68 $110 forward $104 $-1 #
edge $-1 $175 -8.6817316165030489e-016 $175 6.2831853071795996 $109 $176 forward 7 unknown #
loop $-1 $-1 $116 $69 #
plane-surface $-1 -50.83929735175515 -31.186935316590564 2.338476278044638 0 -0.5877852598018023 0.80901698891910034 1 0 0 forward_v I I I I #
loop $-1 $-1 $177 $44 #
coedge $-1 $114 $114 $115 $178 reversed $70 $-1 #
coedge $-1 $115 $115 $114 $178 forward $72 $-1 #
coedge $-1 $116 $116 $73 $117 forward $111 $-1 #
edge $-1 $179 -8.6817316165030489e-016 $179 6.2831853071795996 $116 $180 forward 7 unknown #
face $-1 $181 $182 $25 $-1 $183 reversed single #
loop $-1 $-1 $124 $74 #
plane-surface $-1 0 0 12.233022316265609 0 0 1 1 0 0 forward_v I I I I #
coedge $-1 $184 $185 $186 $187 reversed $75 $-1 #
coedge $-1 $123 $77 $188 $189 reversed $48 $-1 #
coedge $-1 $77 $122 $184 $190 reversed $48 $-1 #
coedge $-1 $186 $191 $77 $125 forward $119 $-1 #
edge $-1 $192 -9.8295387630643418 $193 -2.1711543025619378 $124 $194 forward 7 unknown #
loop $-1 $-1 $131 $78 #
plane-surface $-1 50.269199822107652 -22.830420942876444 38.998387641869755 0 0.50000000669873634 0.8660253999169214 1 0 0 forward_v I I I I #
loop $-1 $-1 $195 $50 #
coedge $-1 $129 $129 $130 $196 reversed $79 $-1 #
coedge $-1 $130 $130 $129 $196 forward $81 $-1 #
coedge $-1 $131 $131 $82 $132 forward $126 $-1 #
edge $-1 $197 -1.1261651525616534e-015 $197 6.2831853071795996 $131 $198 forward 7 unknown #
loop $-1 $-1 $138 $83 #
plane-surface $-1 50.269199822107652 -22.830420942876444 38.998387641869755 0 0.50000000669873634 0.8660253999169214 1 0 0 forward_v I I I I #
loop $-1 $-1 $199 $53 #
coedge $-1 $136 $136 $137 $200 reversed $84 $-1 #
coedge $-1 $137 $137 $136 $200 forward $86 $-1 #
coedge $-1 $138 $138 $87 $139 forward $133 $-1 #
edge $-1 $201 -1.1261651525616534e-015 $201 6.2831853071795996 $138 $202 forward 7 unknown #
face $-1 $203 $204 $21 $-1 $205 reversed single #
loop $-1 $-1 $206 $88 #
plane-surface $-1 -65.545213171788689 0 0 1 0 0 0 0 -1 forward_v I I I I #
coedge $-1 $207 $151 $208 $209 forward $89 $-1 #
coedge $-1 $210 $91 $207 $211 forward $57 $-1 #
coedge $-1 $91 $210 $212 $213 forward $57 $-1 #
coedge $-1 $154 $153 $91 $147 reversed $155 $-1 #
edge $-1 $214 -31.186935316590564 $215 31.186935316590564 $146 $216 forward 7 unknown #
coedge $-1 $93 $92 $217 $218 forward $36 $-1 #
coedge $-1 $219 $220 $92 $150 reversed $204 $-1 #
edge $-1 $157 -65.545213171788689 $221 65.545213171788689 $149 $222 forward 7 unknown #
coedge $-1 $143 $223 $93 $152 reversed $89 $-1 #
edge $-1 $224 -65.545213171788689 $156 65.545213171788689 $151 $225 forward 7 unknown #
coedge $-1 $146 $94 $223 $226 forward $155 $-1 #
coedge $-1 $94 $146 $219 $227 reversed $155 $-1 #
loop $-1 $-1 $153 $203 #
vertex $-1 $95 $228 #
vertex $-1 $95 $229 #
straight-curve $-1 65.545213171788689 0 12.233022316265609 0 1 0 I I #
face $-1 $-1 $230 $22 $-1 $231 reversed single #
loop $-1 $-1 $232 $96 #
plane-surface $-1 -65.545213171788689 0 0 1 0 0 0 0 -1 forward_v I I I I #
coedge $-1 $233 $99 $101 $168 forward $61 $-1 #
coedge $-1 $99 $233 $232 $234 reversed $61 $-1 #
coedge $-1 $235 $102 $99 $165 forward $97 $-1 #
edge $-1 $171 10.713732855844036 $236 40.125564495911114 $164 $237 forward 7 unknown #
coedge $-1 $238 $239 $100 $167 forward $230 $-1 #
edge $-1 $240 -51.857952859278718 $170 -41.963406821057745 $166 $241 forward 7 unknown #
edge $-1 $171 -16.833606956318288 $240 0 $101 $242 forward 7 unknown #
coedge $-1 $102 $235 $238 $243 forward $97 $-1 #
vertex $-1 $167 $244 #
vertex $-1 $103 $245 #
straight-curve $-1 -36.133381531721611 -54.119977811239607 12.233022316265611 0 1 0 I I #
coedge $-1 $173 $173 $-1 $246 reversed $106 $-1 #
edge $-1 $247 0 $247 6.2831853071796004 $107 $248 forward 7 unknown #
vertex $-1 $110 $249 #
ellipse-curve $-1 -57.141832703198098 -24.377598310366441 7.2857492971551245 0 -0.5877852598018023 0.80901698891910034 1.5 0 0 1 I I #
coedge $-1 $177 $177 $-1 $250 reversed $113 $-1 #
edge $-1 $251 0 $251 6.2831853071796004 $114 $252 forward 7 unknown #
vertex $-1 $117 $253 #
ellipse-curve $-1 -44.536762000312208 -24.377598310366441 7.2857492971551245 0 -0.5877852598018023 0.80901698891910034 1.5 0 0 1 I I #
face $-1 $-1 $254 $25 $-1 $255 reversed single #
loop $-1 $-1 $256 $118 #
plane-surface $-1 65.545213171788689 0 0 -1 0 0 0 0 1 forward_v I I I I #
coedge $-1 $257 $121 $123 $190 forward $75 $-1 #
coedge $-1 $121 $257 $256 $258 reversed $75 $-1 #
coedge $-1 $259 $124 $121 $187 forward $119 $-1 #
edge $-1 $193 9.858586561372789 $260 40.410613260734863 $186 $261 forward 7 unknown #
coedge $-1 $262 $263 $122 $189 forward $254 $-1 #
edge $-1 $264 -68.451561363219966 $192 -64.029990954407438 $188 $265 forward 7 unknown #
edge $-1 $193 53.530729934031797 $264 62.373870633181127 $123 $266 forward 7 unknown #
coedge $-1 $124 $259 $262 $267 forward $119 $-1 #
vertex $-1 $189 $268 #
vertex $-1 $125 $269 #
straight-curve $-1 34.993186472426615 21.357396553526222 12.233022316265604 0 -1 0 I I #
coedge $-1 $195 $195 $-1 $270 reversed $128 $-1 #
edge $-1 $271 0 $271 6.2831853071796004 $129 $272 forward 7 unknown #
vertex $-1 $132 $273 #
ellipse-curve $-1 43.722336957958632 27.357743086339365 10.02223711185934 0 0.50000000669873634 0.8660253999169214 2 0 0 1 I I #
coedge $-1 $199 $199 $-1 $274 reversed $135 $-1 #
edge $-1 $275 0 $275 6.2831853071796004 $136 $276 forward 7 unknown #
vertex $-1 $139 $277 #
ellipse-curve $-1 56.816062686256672 27.357743086339365 10.02223711185934 0 0.50000000669873634 0.8660253999169214 2 0 0 1 I I #
face $-1 $-1 $155 $21 $-1 $278 reversed single #
loop $-1 $-1 $219 $140 #
plane-surface $-1 0 31.186935316590564 0 0 -1 0 0 0 -1 forward_v I I I I #
coedge $-1 $279 $217 $220 $280 forward $141 $-1 #
coedge $-1 $223 $143 $144 $211 reversed $89 $-1 #
coedge $-1 $217 $279 $143 $209 reversed $141 $-1 #
edge $-1 $224 -12.233022316265609 $281 12.233022316265609 $208 $282 forward 7 unknown #
coedge $-1 $145 $144 $279 $283 forward $57 $-1 #
edge $-1 $215 -65.545213171788689 $281 65.545213171788689 $207 $284 forward 7 unknown #
coedge $-1 $220 $219 $145 $213 reversed $204 $-1 #
edge $-1 $285 -65.545213171788689 $214 65.545213171788689 $212 $286 forward 7 unknown #
vertex $-1 $147 $287 #
vertex $-1 $226 $288 #
straight-curve $-1 65.545213171788689 0 -12.233022316265609 0 -1 0 I I #
coedge $-1 $206 $208 $148 $218 reversed $141 $-1 #
edge $-1 $221 -31.186935316590564 $224 31.186935316590564 $217 $289 forward 7 unknown #
coedge $-1 $212 $149 $154 $227 forward $204 $-1 #
coedge $-1 $149 $212 $206 $280 reversed $204 $-1 #
vertex $-1 $150 $290 #
straight-curve $-1 0 31.186935316590564 12.233022316265609 -1 0 0 I I #
coedge $-1 $151 $207 $153 $226 reversed $89 $-1 #
vertex $-1 $218 $291 #
straight-curve $-1 0 -31.186935316590564 12.233022316265609 1 0 0 I I #
edge $-1 $156 -12.233022316265609 $215 12.233022316265609 $153 $292 forward 7 unknown #
edge $-1 $157 -12.233022316265609 $214 12.233022316265609 $154 $293 forward 7 unknown #
point $-1 65.545213171788689 -31.186935316590564 12.233022316265609 #
point $-1 65.545213171788689 31.186935316590564 12.233022316265609 #
loop $-1 $-1 $166 $159 #
plane-surface $-1 0 -31.186935316590564 0 0 1 0 0 0 1 forward_v I I I I #
coedge $-1 $294 $295 $163 $234 forward $160 $-1 #
coedge $-1 $163 $162 $239 $296 reversed $61 $-1 #
edge $-1 $236 -4.9054876479122758 $297 11.928119308406014 $232 $298 forward 7 unknown #
coedge $-1 $169 $164 $295 $299 forward $97 $-1 #
vertex $-1 $299 $300 #
straight-curve $-1 -25.419648675877575 -17.568261304142322 12.233022316265609 -1 0 0 I I #
coedge $-1 $301 $166 $169 $243 reversed $230 $-1 #
coedge $-1 $166 $301 $233 $296 forward $230 $-1 #
vertex $-1 $167 $302 #
straight-curve $-1 -36.133381531721611 -31.186935316590564 54.196429137323356 0 0 1 I I #
straight-curve $-1 -36.133381531721611 -31.186935316590564 2.338476278044638 0 -0.80901698891910034 -0.5877852598018023 I I #
edge $-1 $303 -65.545213171788689 $170 -36.133381531721611 $238 $304 forward 7 unknown #
point $-1 -36.133381531721611 -31.186935316590564 12.233022316265609 #
point $-1 -36.133381531721611 -17.568261304142318 12.233022316265609 #
edge $-1 $305 1 $305 0 $173 $-1 forward 7 unknown #
vertex $-1 $174 $306 #
ellipse-curve $-1 -57.141832703198098 -22.188539052064989 4.2727677700006588 0 -0.5877852598018023 0.80901698891910034 1.5 0 0 1 I I #
point $-1 -55.641832703198098 -24.377598310366437 7.2857492971551174 #
edge $-1 $307 1 $307 0 $177 $-1 forward 7 unknown #
vertex $-1 $178 $308 #
ellipse-curve $-1 -44.536762000312208 -22.188539052064989 4.2727677700006588 0 -0.5877852598018023 0.80901698891910034 1.5 0 0 1 I I #
point $-1 -43.036762000312208 -24.377598310366437 7.2857492971551174 #
loop $-1 $-1 $188 $181 #
plane-surface $-1 0 31.186935316590564 0 0 -1 0 0 0 -1 forward_v I I I I #
coedge $-1 $309 $310 $185 $258 forward $182 $-1 #
coedge $-1 $185 $184 $263 $311 reversed $75 $-1 #
edge $-1 $260 33.895270679281282 $312 42.738411378430619 $256 $313 forward 7 unknown #
coedge $-1 $191 $186 $310 $314 forward $119 $-1 #
vertex $-1 $314 $315 #
straight-curve $-1 25.134599911053826 23.52855085608816 12.233022316265611 1 0 0 I I #
coedge $-1 $316 $188 $191 $267 reversed $254 $-1 #
coedge $-1 $188 $316 $257 $311 forward $254 $-1 #
vertex $-1 $189 $317 #
straight-curve $-1 34.993186472426615 31.186935316590564 76.263013270673042 0 0 1 I I #
straight-curve $-1 34.993186472426615 -22.830420942876444 38.998387641869755 0 0.8660253999169214 -0.50000000669873634 I I #
edge $-1 $318 -65.545213171788689 $192 -34.993186472426615 $262 $319 forward 7 unknown #
point $-1 34.993186472426615 31.186935316590564 12.233022316265609 #
point $-1 34.993186472426615 23.52855085608816 12.233022316265611 #
edge $-1 $320 1 $320 0 $195 $-1 forward 7 unknown #
vertex $-1 $196 $321 #
ellipse-curve $-1 43.722336957958632 26.276167096019645 8.148892577843073 0 0.50000000669873634 0.8660253999169214 2 0 0 1 I I #
point $-1 45.722336957958632 27.357743086339369 10.022237111859351 #
edge $-1 $322 1 $322 0 $199 $-1 forward 7 unknown #
vertex $-1 $200 $323 #
ellipse-curve $-1 56.816062686256672 26.276167096019645 8.148892577843073 0 0.50000000669873634 0.8660253999169214 2 0 0 1 I I #
point $-1 58.816062686256672 27.357743086339369 10.022237111859351 #
plane-surface $-1 65.545213171788689 0 0 -1 0 0 0 0 1 forward_v I I I I #
coedge $-1 $208 $206 $210 $283 reversed $141 $-1 #
edge $-1 $221 -12.233022316265609 $285 12.233022316265609 $220 $324 forward 7 unknown #
vertex $-1 $283 $325 #
straight-curve $-1 -65.545213171788689 -31.186935316590564 0 0 0 -1 I I #
edge $-1 $281 -31.186935316590564 $285 31.186935316590564 $279 $326 forward 7 unknown #
straight-curve $-1 0 -31.186935316590564 -12.233022316265609 -1 0 0 I I #
vertex $-1 $213 $327 #
straight-curve $-1 0 31.186935316590564 -12.233022316265609 1 0 0 I I #
point $-1 65.545213171788689 31.186935316590564 -12.233022316265609 #
point $-1 65.545213171788689 -31.186935316590564 -12.233022316265609 #
straight-curve $-1 -65.545213171788689 0 12.233022316265609 0 -1 0 I I #
point $-1 -65.545213171788689 31.186935316590564 12.233022316265609 #
point $-1 -65.545213171788689 -31.186935316590564 12.233022316265609 #
straight-curve $-1 65.545213171788689 -31.186935316590564 0 0 0 -1 I I #
straight-curve $-1 65.545213171788689 31.186935316590564 0 0 0 -1 I I #
coedge $-1 $295 $232 $301 $328 reversed $160 $-1 #
coedge $-1 $232 $294 $235 $299 reversed $160 $-1 #
edge $-1 $297 -40.125564495911114 $240 -10.713732855844036 $239 $329 forward 7 unknown #
vertex $-1 $234 $330 #
straight-curve $-1 -65.545213171788689 -21.536884150236148 9.3496489846829611 0 -0.80901698891910034 -0.5877852598018023 I I #
edge $-1 $236 17.568261304142318 $303 31.186935316590564 $295 $331 forward 7 unknown #
point $-1 -65.545213171788689 -17.568261304142318 12.233022316265609 #
coedge $-1 $239 $238 $294 $328 forward $230 $-1 #
point $-1 -36.133381531721611 -31.186935316590564 2.338476278044638 #
vertex $-1 $299 $332 #
straight-curve $-1 0 -31.186935316590564 12.233022316265609 1 0 0 I I #
vertex $-1 $246 $333 #
point $-1 -55.641832703198098 -22.188539052064989 4.2727677700006588 #
vertex $-1 $250 $334 #
point $-1 -43.036762000312208 -22.188539052064989 4.2727677700006588 #
coedge $-1 $310 $256 $316 $335 reversed $182 $-1 #
coedge $-1 $256 $309 $259 $314 reversed $182 $-1 #
edge $-1 $312 -40.410613260734863 $264 -9.858586561372789 $263 $336 forward 7 unknown #
vertex $-1 $258 $337 #
straight-curve $-1 65.545213171788689 -5.8256144892287169 29.180657882961732 0 0.8660253999169214 -0.50000000669873634 I I #
edge $-1 $260 23.52855085608816 $318 31.186935316590564 $310 $338 forward 7 unknown #
point $-1 65.545213171788689 23.52855085608816 12.233022316265611 #
coedge $-1 $263 $262 $309 $335 forward $254 $-1 #
point $-1 34.993186472426615 31.186935316590564 7.8114519074530762 #
vertex $-1 $314 $339 #
straight-curve $-1 0 31.186935316590564 12.233022316265609 -1 0 0 I I #
vertex $-1 $270 $340 #
point $-1 45.722336957958632 26.276167096019645 8.148892577843073 #
vertex $-1 $274 $341 #
point $-1 58.816062686256672 26.276167096019645 8.148892577843073 #
straight-curve $-1 -65.545213171788689 31.186935316590564 0 0 0 -1 I I #
point $-1 -65.545213171788689 -31.186935316590564 -12.233022316265609 #
straight-curve $-1 -65.545213171788689 0 -12.233022316265609 0 1 0 I I #
point $-1 -65.545213171788689 31.186935316590564 -12.233022316265609 #
edge $-1 $303 -12.233022316265609 $297 -2.338476278044638 $294 $342 forward 7 unknown #
straight-curve $-1 -25.419648675877575 -31.186935316590564 2.3384762780446366 1 0 0 I I #
point $-1 -65.545213171788689 -31.186935316590564 2.338476278044638 #
straight-curve $-1 -65.545213171788689 0 12.233022316265609 0 -1 0 I I #
point $-1 -65.545213171788689 -31.186935316590564 12.233022316265609 #
point $-1 -57.141832703198098 -21.306861162362289 3.0592422866220086 #
point $-1 -44.536762000312208 -21.306861162362289 3.0592422866220086 #
edge $-1 $318 -12.233022316265609 $312 -7.8114519074530762 $309 $343 forward 7 unknown #
straight-curve $-1 25.134599911053826 31.186935316590564 7.8114519074530779 -1 0 0 I I #
point $-1 65.545213171788689 31.186935316590564 7.8114519074530762 #
straight-curve $-1 65.545213171788689 0 12.233022316265609 0 1 0 I I #
point $-1 65.545213171788689 31.186935316590564 12.233022316265609 #
point $-1 43.722336957958632 25.27616708262217 6.4168417780092302 #
point $-1 56.816062686256672 25.27616708262217 6.4168417780092302 #
straight-curve $-1 -65.545213171788689 -31.186935316590564 0 0 0 -1 I I #
straight-curve $-1 65.545213171788689 31.186935316590564 0 0 0 -1 I I #
End-of-ACIS-data 