500 0 5 0           
7 Unknown 11 ACIS 5.0 NT 24 Fri Mar 26 20:46:45 1999 
-1 9.9999999999999995e-007 1e-010 
body $-1 $5 $-1 $6 #
body $-1 $7 $-1 $8 #
body $-1 $9 $-1 $10 #
body $-1 $11 $-1 $12 #
body $-1 $13 $-1 $14 #
lump $-1 $-1 $15 $0 #
transform $-1 1 0 0 0 1 0 0 0 1 69.613940855128646 31.051467535947424 15.072285871738146 1 rotate no_reflect no_shear #
lump $-1 $-1 $16 $1 #
transform $-1 1 0 0 0 1 0 0 0 1 69.613940855128646 31.051467535947424 15.072285871738146 1 rotate no_reflect no_shear #
lump $-1 $-1 $17 $2 #
transform $-1 1 0 0 0 1 0 0 0 1 69.613940855128646 31.051467535947424 15.072285871738146 1 rotate no_reflect no_shear #
lump $-1 $-1 $18 $3 #
transform $-1 1 0 0 0 1 0 0 0 1 69.613940855128646 31.051467535947424 15.072285871738146 1 rotate no_reflect no_shear #
lump $-1 $-1 $19 $4 #
transform $-1 1 0 0 0 1 0 0 0 1 69.613940855128646 31.051467535947424 15.072285871738146 1 rotate no_reflect no_shear #
shell $-1 $-1 $-1 $20 $-1 $5 #
shell $-1 $-1 $-1 $21 $-1 $7 #
shell $-1 $-1 $-1 $22 $-1 $9 #
shell $-1 $-1 $-1 $23 $-1 $11 #
shell $-1 $-1 $-1 $24 $-1 $13 #
face $-1 $25 $26 $15 $-1 $27 forward single #
face $-1 $28 $29 $16 $-1 $30 forward single #
face $-1 $31 $32 $17 $-1 $33 reversed single #
face $-1 $34 $35 $18 $-1 $36 forward single #
face $-1 $37 $38 $19 $-1 $39 reversed single #
face $-1 $40 $41 $15 $-1 $42 reversed single #
loop $-1 $-1 $43 $20 #
plane-surface $-1 0 0 15.072285871738146 0 0 1 1 0 0 forward_v I I I I #
face $-1 $44 $45 $16 $-1 $46 forward single #
loop $-1 $-1 $47 $21 #
plane-surface $-1 0 -23.472513917193659 8.5205540505303716 0 0 1 1 0 0 forward_v I I I I #
face $-1 $48 $49 $17 $-1 $50 forward single #
loop $-1 $-1 $51 $22 #
plane-surface $-1 0 23.006200842291065 -9.9076808938426559 0 0 1 1 0 0 forward_v I I I I #
face $-1 $52 $53 $18 $-1 $54 forward single #
loop $-1 $-1 $55 $23 #
plane-surface $-1 -157.23288690608211 14.960934148634696 113.60227895216143 0 -1 0 0.62932039886446345 0 -0.77714595512881146 forward_v I I I I #
face $-1 $56 $57 $19 $-1 $58 reversed single #
loop $-1 $59 $60 $24 #
cone-surface $-1 -61.756479222864257 11.36848685123578 7.9074663666427902 0.62932039886446345 0 -0.77714595512881146 1.1657189326932171 0 0.94398059829669512 1 I I 0 1 1.5 forward I I I I #
face $-1 $61 $62 $15 $-1 $63 reversed single #
loop $-1 $-1 $64 $25 #
plane-surface $-1 0 0 -15.072285871738146 0 0 1 1 0 0 forward_v I I I I #
coedge $-1 $65 $66 $67 $68 forward $26 $-1 #
face $-1 $69 $70 $16 $-1 $71 forward single #
loop $-1 $-1 $72 $28 #
plane-surface $-1 0 -15.893560298439894 11.796419961134259 0 -1 0 0 0 -1 forward_v I I I I #
coedge $-1 $73 $74 $75 $76 reversed $29 $-1 #
face $-1 $77 $78 $17 $-1 $79 reversed single #
loop $-1 $-1 $80 $31 #
plane-surface $-1 0 14.960934148634706 -12.489983382790401 0 1 0 0 0 1 forward_v I I I I #
coedge $-1 $81 $82 $83 $84 reversed $32 $-1 #
face $-1 $85 $86 $18 $-1 $87 forward single #
loop $-1 $-1 $88 $34 #
plane-surface $-1 -69.613940855128661 11.368486851235772 5.4018938398823479 -0.62932039886446345 0 0.77714595512881146 0.77714595512881146 0 0.62932039886446345 forward_v I I I I #
coedge $-1 $89 $90 $91 $92 reversed $35 $-1 #
face $-1 $93 $94 $19 $-1 $95 forward single #
loop $-1 $96 $97 $37 #
cone-surface $-1 -59.397996980045065 11.36848685123578 4.9949834111287288 0.62932039886446345 0 -0.77714595512881146 0.58285946634660857 0 0.47199029914834756 1 I I -0.70710678118654757 0.70710678118654757 0.75 forward I I I I #
loop $-1 $-1 $98 $24 #
coedge $-1 $60 $60 $99 $100 reversed $38 $-1 #
face $-1 $101 $102 $15 $-1 $103 reversed single #
loop $-1 $-1 $104 $40 #
plane-surface $-1 0 -31.051467535947424 0 0 1 0 0 0 1 forward_v I I I I #
coedge $-1 $105 $106 $107 $108 forward $41 $-1 #
coedge $-1 $109 $43 $110 $111 forward $26 $-1 #
coedge $-1 $43 $109 $112 $113 forward $26 $-1 #
coedge $-1 $114 $115 $43 $68 reversed $116 $-1 #
edge $-1 $117 -31.051467535947424 $118 31.051467535947424 $67 $119 forward 7 unknown #
face $-1 $120 $121 $16 $-1 $122 reversed single #
loop $-1 $-1 $123 $44 #
plane-surface $-1 0 0 15.072285871738146 0 0 1 1 0 0 forward_v I I I I #
coedge $-1 $124 $125 $126 $127 reversed $45 $-1 #
coedge $-1 $128 $47 $125 $129 reversed $29 $-1 #
coedge $-1 $47 $128 $130 $131 reversed $29 $-1 #
coedge $-1 $132 $126 $47 $76 forward $121 $-1 #
edge $-1 $133 4.1573033398430645 $134 19.315210577350594 $75 $135 forward 7 unknown #
face $-1 $136 $137 $17 $-1 $138 reversed single #
loop $-1 $-1 $139 $48 #
plane-surface $-1 0 31.051467535947424 0 0 -1 0 0 0 -1 forward_v I I I I #
coedge $-1 $140 $141 $142 $143 reversed $49 $-1 #
coedge $-1 $144 $51 $140 $145 reversed $32 $-1 #
coedge $-1 $51 $144 $139 $146 reversed $32 $-1 #
coedge $-1 $147 $148 $51 $84 forward $149 $-1 #
edge $-1 $150 3.4578337274891737 $151 19.548367114801891 $83 $152 forward 7 unknown #
face $-1 $153 $154 $18 $-1 $155 reversed single #
loop $-1 $-1 $156 $52 #
plane-surface $-1 -157.23288690608211 7.7760395538368492 113.60227895216143 0 1 0 -0.62932039886446345 0 0.77714595512881146 forward_v I I I I #
coedge $-1 $157 $158 $159 $160 reversed $53 $-1 #
coedge $-1 $90 $55 $158 $161 forward $35 $-1 #
coedge $-1 $55 $89 $162 $163 reversed $35 $-1 #
coedge $-1 $164 $159 $55 $92 forward $154 $-1 #
edge $-1 $165 -51.399245636198351 $166 -41.728853604342568 $91 $167 forward 7 unknown #
face $-1 $168 $169 $19 $-1 $170 forward single #
loop $-1 $-1 $171 $56 #
plane-surface $-1 -157.23288690608211 14.960934148634696 113.60227895216143 0 -1 0 0.62932039886446345 0 -0.77714595512881146 forward_v I I I I #
loop $-1 $-1 $172 $37 #
coedge $-1 $97 $97 $98 $173 forward $57 $-1 #
coedge $-1 $98 $98 $97 $173 reversed $59 $-1 #
coedge $-1 $99 $99 $60 $100 forward $169 $-1 #
edge $-1 $174 0 $174 6.2831853071796004 $99 $175 forward 7 unknown #
face $-1 $176 $177 $15 $-1 $178 reversed single #
loop $-1 $-1 $179 $61 #
plane-surface $-1 -69.613940855128646 0 0 1 0 0 0 0 -1 forward_v I I I I #
coedge $-1 $180 $112 $181 $182 forward $62 $-1 #
coedge $-1 $183 $64 $180 $184 forward $41 $-1 #
coedge $-1 $64 $183 $185 $186 forward $41 $-1 #
coedge $-1 $115 $114 $64 $108 reversed $116 $-1 #
edge $-1 $187 -31.051467535947424 $188 31.051467535947424 $107 $189 forward 7 unknown #
coedge $-1 $66 $65 $190 $191 forward $26 $-1 #
coedge $-1 $192 $193 $65 $111 reversed $177 $-1 #
edge $-1 $118 -69.613940855128646 $194 69.613940855128646 $110 $195 forward 7 unknown #
coedge $-1 $104 $196 $66 $113 reversed $62 $-1 #
edge $-1 $197 -69.613940855128646 $117 69.613940855128646 $112 $198 forward 7 unknown #
coedge $-1 $107 $67 $196 $199 forward $116 $-1 #
coedge $-1 $67 $107 $192 $200 reversed $116 $-1 #
loop $-1 $-1 $114 $176 #
vertex $-1 $68 $201 #
vertex $-1 $68 $202 #
straight-curve $-1 69.613940855128646 0 15.072285871738146 0 1 0 I I #
face $-1 $203 $204 $16 $-1 $205 reversed single #
loop $-1 $-1 $126 $69 #
plane-surface $-1 69.613940855128646 0 0 -1 0 0 0 0 1 forward_v I I I I #
coedge $-1 $206 $207 $124 $208 forward $70 $-1 #
coedge $-1 $209 $72 $123 $208 reversed $45 $-1 #
coedge $-1 $72 $209 $73 $129 forward $45 $-1 #
coedge $-1 $75 $210 $72 $127 forward $121 $-1 #
edge $-1 $211 -9.1740758911710163 $133 -2.6223440699632423 $126 $212 forward 7 unknown #
coedge $-1 $74 $73 $213 $214 reversed $29 $-1 #
edge $-1 $215 -69.613940855128646 $133 69.613940855128646 $125 $216 forward 7 unknown #
coedge $-1 $217 $218 $74 $131 forward $219 $-1 #
edge $-1 $134 -69.613940855128646 $220 69.613940855128646 $130 $221 forward 7 unknown #
coedge $-1 $222 $75 $218 $223 forward $121 $-1 #
vertex $-1 $76 $224 #
vertex $-1 $223 $225 #
straight-curve $-1 69.613940855128646 -11.736256958596829 8.5205540505303716 0 -1 0 I I #
face $-1 $226 $227 $17 $-1 $228 forward single #
loop $-1 $-1 $229 $77 #
plane-surface $-1 -69.613940855128646 0 0 1 0 0 0 0 -1 forward_v I I I I #
coedge $-1 $230 $231 $82 $146 forward $78 $-1 #
coedge $-1 $232 $80 $81 $145 forward $49 $-1 #
coedge $-1 $80 $232 $233 $234 reversed $49 $-1 #
coedge $-1 $235 $229 $80 $143 forward $137 $-1 #
edge $-1 $236 3.6626892024474555 $237 8.8272941803429461 $142 $238 forward 7 unknown #
coedge $-1 $82 $81 $229 $239 reversed $32 $-1 #
edge $-1 $236 -69.613940855128646 $150 69.613940855128646 $140 $240 forward 7 unknown #
edge $-1 $151 -69.613940855128646 $241 69.613940855128646 $139 $242 forward 7 unknown #
coedge $-1 $243 $83 $231 $244 reversed $149 $-1 #
coedge $-1 $83 $245 $232 $246 forward $149 $-1 #
loop $-1 $-1 $83 $247 #
vertex $-1 $84 $248 #
vertex $-1 $146 $249 #
straight-curve $-1 69.613940855128646 11.503100421145533 -9.9076808938426559 0 1 0 I I #
face $-1 $250 $251 $18 $-1 $252 reversed single #
loop $-1 $-1 $253 $85 #
plane-surface $-1 -69.613940855128646 0 0 1 0 0 0 0 -1 forward_v I I I I #
coedge $-1 $254 $255 $253 $256 reversed $86 $-1 #
coedge $-1 $257 $88 $255 $258 reversed $53 $-1 #
coedge $-1 $88 $257 $89 $161 reversed $53 $-1 #
coedge $-1 $91 $253 $88 $160 forward $154 $-1 #
edge $-1 $259 2.091796128218963 $165 9.2766907230168094 $159 $260 forward 7 unknown #
edge $-1 $165 1.8310242626372826e-014 $261 15.366404854037645 $89 $262 forward 7 unknown #
coedge $-1 $263 $264 $90 $163 forward $265 $-1 #
edge $-1 $166 9.0025025979124109 $261 20.944441975099487 $162 $266 forward 7 unknown #
coedge $-1 $267 $91 $264 $268 reversed $154 $-1 #
vertex $-1 $160 $269 #
vertex $-1 $163 $270 #
straight-curve $-1 -69.613940855128646 14.960934148634696 56.801139476080714 0 0 1 I I #
face $-1 $271 $272 $19 $-1 $273 forward single #
loop $-1 $274 $99 $93 #
plane-surface $-1 -69.613940855128661 11.368486851235772 5.4018938398823479 -0.62932039886446345 0 0.77714595512881146 0.77714595512881146 0 0.62932039886446345 forward_v I I I I #
coedge $-1 $275 $276 $277 $278 reversed $94 $-1 #
coedge $-1 $172 $172 $-1 $279 forward $96 $-1 #
edge $-1 $280 0 $280 6.2831853071796004 $97 $281 forward 7 unknown #
vertex $-1 $100 $282 #
ellipse-curve $-1 -63.642971166535105 11.36848685123578 10.237089855810254 0.62932039886446345 0 -0.77714595512881146 1.1657189326932171 0 0.94398059829669512 1 I I #
face $-1 $-1 $116 $15 $-1 $283 reversed single #
loop $-1 $-1 $192 $101 #
plane-surface $-1 0 31.051467535947424 0 0 -1 0 0 0 -1 forward_v I I I I #
coedge $-1 $284 $190 $193 $285 forward $102 $-1 #
coedge $-1 $196 $104 $105 $184 reversed $62 $-1 #
coedge $-1 $190 $284 $104 $182 reversed $102 $-1 #
edge $-1 $197 -15.072285871738146 $286 15.072285871738146 $181 $287 forward 7 unknown #
coedge $-1 $106 $105 $284 $288 forward $41 $-1 #
edge $-1 $188 -69.613940855128646 $286 69.613940855128646 $180 $289 forward 7 unknown #
coedge $-1 $193 $192 $106 $186 reversed $177 $-1 #
edge $-1 $290 -69.613940855128646 $187 69.613940855128646 $185 $291 forward 7 unknown #
vertex $-1 $108 $292 #
vertex $-1 $199 $293 #
straight-curve $-1 69.613940855128646 0 -15.072285871738146 0 -1 0 I I #
coedge $-1 $179 $181 $109 $191 reversed $102 $-1 #
edge $-1 $194 -31.051467535947424 $197 31.051467535947424 $190 $294 forward 7 unknown #
coedge $-1 $185 $110 $115 $200 forward $177 $-1 #
coedge $-1 $110 $185 $179 $285 reversed $177 $-1 #
vertex $-1 $111 $295 #
straight-curve $-1 0 31.051467535947424 15.072285871738146 -1 0 0 I I #
coedge $-1 $112 $180 $114 $199 reversed $62 $-1 #
vertex $-1 $191 $296 #
straight-curve $-1 0 -31.051467535947424 15.072285871738146 1 0 0 I I #
edge $-1 $117 -15.072285871738146 $188 15.072285871738146 $114 $297 forward 7 unknown #
edge $-1 $118 -15.072285871738146 $187 15.072285871738146 $115 $298 forward 7 unknown #
point $-1 69.613940855128646 -31.051467535947424 15.072285871738146 #
point $-1 69.613940855128646 31.051467535947424 15.072285871738146 #
face $-1 $299 $219 $16 $-1 $300 reversed single #
loop $-1 $-1 $301 $120 #
plane-surface $-1 0 0 -15.072285871738146 0 0 1 1 0 0 forward_v I I I I #
coedge $-1 $302 $123 $210 $303 forward $70 $-1 #
coedge $-1 $123 $302 $304 $305 forward $70 $-1 #
edge $-1 $306 -69.613940855128646 $211 69.613940855128646 $123 $307 forward 7 unknown #
coedge $-1 $125 $124 $308 $309 reversed $45 $-1 #
coedge $-1 $126 $310 $206 $303 reversed $121 $-1 #
vertex $-1 $303 $311 #
straight-curve $-1 69.613940855128646 -15.893560298439894 5.8982099805671293 0 0 -1 I I #
coedge $-1 $308 $312 $128 $214 forward $313 $-1 #
edge $-1 $220 -19.315210577350594 $215 -4.1573033398430645 $213 $314 forward 7 unknown #
vertex $-1 $214 $315 #
straight-curve $-1 0 -15.893560298439894 8.5205540505303716 1 0 0 I I #
coedge $-1 $316 $130 $312 $317 forward $219 $-1 #
coedge $-1 $130 $316 $132 $223 reversed $219 $-1 #
loop $-1 $-1 $130 $203 #
vertex $-1 $317 $318 #
straight-curve $-1 0 -31.051467535947424 8.5205540505303716 -1 0 0 I I #
coedge $-1 $310 $132 $301 $319 reversed $121 $-1 #
edge $-1 $134 -8.5205540505303716 $320 15.072285871738146 $132 $321 forward 7 unknown #
point $-1 69.613940855128646 -15.893560298439894 8.5205540505303716 #
point $-1 69.613940855128646 -31.051467535947424 8.5205540505303716 #
face $-1 $322 $323 $17 $-1 $324 forward single #
loop $-1 $-1 $325 $136 #
plane-surface $-1 0 -23.472513917193659 8.5205540505303716 0 0 1 1 0 0 forward_v I I I I #
coedge $-1 $142 $326 $144 $239 forward $137 $-1 #
coedge $-1 $327 $139 $326 $328 reversed $78 $-1 #
coedge $-1 $139 $327 $147 $244 forward $78 $-1 #
coedge $-1 $141 $140 $148 $246 reversed $49 $-1 #
coedge $-1 $329 $330 $141 $234 forward $331 $-1 #
edge $-1 $237 -69.613940855128646 $332 69.613940855128646 $233 $333 forward 7 unknown #
coedge $-1 $334 $142 $330 $335 reversed $137 $-1 #
vertex $-1 $239 $336 #
vertex $-1 $143 $337 #
straight-curve $-1 -69.613940855128646 14.960934148634706 -6.2449916913952004 0 0 -1 I I #
edge $-1 $241 -19.548367114801891 $236 -3.4578337274891737 $229 $338 forward 7 unknown #
straight-curve $-1 0 14.960934148634706 -9.9076808938426559 1 0 0 I I #
vertex $-1 $239 $339 #
straight-curve $-1 0 31.051467535947424 -9.9076808938426559 -1 0 0 I I #
coedge $-1 $340 $147 $341 $342 reversed $149 $-1 #
edge $-1 $343 -15.072285871738146 $151 9.9076808938426559 $147 $344 forward 7 unknown #
coedge $-1 $148 $345 $329 $346 reversed $149 $-1 #
edge $-1 $332 -8.8272941803429461 $150 -3.6626892024474555 $148 $347 forward 7 unknown #
face $-1 $348 $149 $17 $-1 $349 reversed single #
point $-1 69.613940855128646 14.960934148634706 -9.9076808938426559 #
point $-1 69.613940855128646 31.051467535947424 -9.9076808938426559 #
face $-1 $350 $351 $18 $-1 $352 forward single #
loop $-1 $-1 $353 $153 #
plane-surface $-1 0 23.006200842291065 -9.9076808938426559 0 0 1 1 0 0 forward_v I I I I #
coedge $-1 $159 $354 $156 $256 forward $154 $-1 #
coedge $-1 $255 $156 $355 $356 reversed $86 $-1 #
coedge $-1 $156 $254 $157 $258 forward $86 $-1 #
edge $-1 $357 41.728853604342568 $259 51.399245636198351 $253 $358 forward 7 unknown #
coedge $-1 $158 $157 $263 $359 reversed $53 $-1 #
edge $-1 $360 -15.366404854037645 $259 -1.8310242626372826e-014 $255 $361 forward 7 unknown #
vertex $-1 $160 $362 #
straight-curve $-1 -69.613940855128646 5.6842434256178862 5.4018938398823471 0 1 0 I I #
vertex $-1 $359 $363 #
straight-curve $-1 -69.613940855128661 14.960934148634696 5.4018938398823479 0.77714595512881146 0 0.62932039886446345 I I #
coedge $-1 $355 $162 $257 $359 forward $265 $-1 #
coedge $-1 $162 $364 $164 $268 forward $265 $-1 #
loop $-1 $-1 $355 $365 #
straight-curve $-1 -78.616443453041057 14.960934148634696 15.072285871738146 1 0 0 I I #
coedge $-1 $366 $164 $367 $368 forward $154 $-1 #
edge $-1 $369 -31.051467535947424 $166 -14.960934148634696 $164 $370 forward 7 unknown #
point $-1 -69.613940855128646 14.960934148634696 5.4018938398823595 #
point $-1 -69.613940855128646 14.960934148634696 15.072285871738146 #
face $-1 $371 $372 $19 $-1 $373 reversed single #
loop $-1 $-1 $374 $168 #
plane-surface $-1 -157.23288690608211 7.7760395538368492 113.60227895216143 0 1 0 -0.62932039886446345 0 0.77714595512881146 forward_v I I I I #
loop $-1 $-1 $375 $93 #
coedge $-1 $276 $171 $376 $377 forward $94 $-1 #
coedge $-1 $171 $275 $378 $379 reversed $94 $-1 #
coedge $-1 $380 $381 $171 $278 forward $372 $-1 #
edge $-1 $382 -51.399245636198351 $383 -41.728853604342568 $277 $384 forward 7 unknown #
edge $-1 $385 1 $385 0 $172 $-1 forward 7 unknown #
vertex $-1 $173 $386 #
ellipse-curve $-1 -59.86998727919341 11.36848685123578 5.5778428774753372 -0.62932039886446345 0 0.77714595512881146 1.1657189326932171 0 0.94398059829669512 1 I I #
point $-1 -62.477252233841881 11.36848685123578 11.181070454106939 #
plane-surface $-1 69.613940855128646 0 0 -1 0 0 0 0 1 forward_v I I I I #
coedge $-1 $181 $179 $183 $288 reversed $102 $-1 #
edge $-1 $194 -15.072285871738146 $290 15.072285871738146 $193 $387 forward 7 unknown #
vertex $-1 $288 $388 #
straight-curve $-1 -69.613940855128646 -31.051467535947424 0 0 0 -1 I I #
edge $-1 $286 -31.051467535947424 $290 31.051467535947424 $284 $389 forward 7 unknown #
straight-curve $-1 0 -31.051467535947424 -15.072285871738146 -1 0 0 I I #
vertex $-1 $186 $390 #
straight-curve $-1 0 31.051467535947424 -15.072285871738146 1 0 0 I I #
point $-1 69.613940855128646 31.051467535947424 -15.072285871738146 #
point $-1 69.613940855128646 -31.051467535947424 -15.072285871738146 #
straight-curve $-1 -69.613940855128646 0 15.072285871738146 0 -1 0 I I #
point $-1 -69.613940855128646 31.051467535947424 15.072285871738146 #
point $-1 -69.613940855128646 -31.051467535947424 15.072285871738146 #
straight-curve $-1 69.613940855128646 -31.051467535947424 0 0 0 -1 I I #
straight-curve $-1 69.613940855128646 31.051467535947424 0 0 0 -1 I I #
face $-1 $391 $313 $16 $-1 $392 reversed single #
plane-surface $-1 0 -31.051467535947424 0 0 1 0 0 0 1 forward_v I I I I #
coedge $-1 $393 $394 $222 $319 forward $204 $-1 #
coedge $-1 $207 $206 $395 $396 forward $70 $-1 #
edge $-1 $211 -15.893560298439894 $397 31.051467535947424 $210 $398 forward 7 unknown #
coedge $-1 $399 $308 $207 $305 reversed $313 $-1 #
edge $-1 $400 -31.051467535947424 $306 15.893560298439894 $304 $401 forward 7 unknown #
vertex $-1 $309 $402 #
straight-curve $-1 0 -15.893560298439894 15.072285871738146 1 0 0 I I #
coedge $-1 $304 $213 $209 $309 forward $313 $-1 #
edge $-1 $215 2.6223440699632423 $306 9.1740758911710163 $308 $403 forward 7 unknown #
coedge $-1 $210 $222 $404 $405 reversed $121 $-1 #
point $-1 69.613940855128646 -15.893560298439894 15.072285871738146 #
coedge $-1 $213 $406 $217 $317 reversed $313 $-1 #
loop $-1 $-1 $308 $299 #
straight-curve $-1 -69.613940855128646 -11.736256958596829 8.5205540505303716 0 1 0 I I #
point $-1 -69.613940855128646 -15.893560298439894 8.5205540505303716 #
coedge $-1 $218 $217 $393 $407 reversed $219 $-1 #
edge $-1 $220 -8.5205540505303716 $408 15.072285871738146 $312 $409 forward 7 unknown #
point $-1 -69.613940855128646 -31.051467535947424 8.5205540505303716 #
edge $-1 $410 -31.051467535947424 $320 31.051467535947424 $222 $411 forward 7 unknown #
vertex $-1 $223 $412 #
straight-curve $-1 69.613940855128646 -31.051467535947424 0 0 0 -1 I I #
face $-1 $247 $413 $17 $-1 $414 forward single #
loop $-1 $-1 $415 $226 #
plane-surface $-1 0 -15.893560298439894 11.796419961134259 0 -1 0 0 0 -1 forward_v I I I I #
coedge $-1 $416 $417 $418 $419 reversed $227 $-1 #
coedge $-1 $229 $420 $230 $328 forward $137 $-1 #
coedge $-1 $231 $230 $421 $422 reversed $78 $-1 #
edge $-1 $423 -15.072285871738146 $241 9.9076808938426559 $230 $424 forward 7 unknown #
coedge $-1 $425 $233 $245 $346 forward $331 $-1 #
coedge $-1 $233 $425 $235 $335 forward $331 $-1 #
loop $-1 $-1 $233 $348 #
vertex $-1 $346 $426 #
straight-curve $-1 0 14.960934148634706 -15.072285871738146 1 0 0 I I #
coedge $-1 $427 $235 $428 $429 reversed $137 $-1 #
edge $-1 $430 -31.051467535947424 $237 14.960934148634706 $235 $431 forward 7 unknown #
point $-1 -69.613940855128646 14.960934148634706 -9.9076808938426559 #
point $-1 -69.613940855128646 14.960934148634706 -15.072285871738146 #
straight-curve $-1 -69.613940855128646 11.503100421145533 -9.9076808938426559 0 -1 0 I I #
point $-1 -69.613940855128646 31.051467535947424 -9.9076808938426559 #
coedge $-1 $418 $243 $415 $432 forward $149 $-1 #
coedge $-1 $421 $433 $243 $342 forward $413 $-1 #
edge $-1 $434 -15.893560298439894 $343 31.051467535947424 $243 $435 forward 7 unknown #
vertex $-1 $342 $436 #
straight-curve $-1 69.613940855128646 31.051467535947424 0 0 0 -1 I I #
coedge $-1 $245 $418 $437 $438 forward $149 $-1 #
edge $-1 $332 -14.960934148634706 $439 31.051467535947424 $245 $440 forward 7 unknown #
straight-curve $-1 69.613940855128646 14.960934148634706 -6.2449916913952004 0 0 1 I I #
face $-1 $441 $331 $17 $-1 $442 reversed single #
plane-surface $-1 69.613940855128646 0 0 -1 0 0 0 0 1 forward_v I I I I #
face $-1 $443 $444 $18 $-1 $445 reversed single #
loop $-1 $-1 $446 $250 #
plane-surface $-1 0 14.960934148634706 -12.489983382790401 0 1 0 0 0 1 forward_v I I I I #
coedge $-1 $447 $448 $449 $450 reversed $251 $-1 #
coedge $-1 $253 $451 $452 $453 reversed $154 $-1 #
coedge $-1 $452 $263 $254 $356 forward $265 $-1 #
edge $-1 $360 -20.944441975099487 $357 -9.0025025979124109 $355 $454 forward 7 unknown #
vertex $-1 $453 $455 #
straight-curve $-1 -69.613940855128646 7.7760395538368492 56.801139476080714 0 0 -1 I I #
edge $-1 $261 -9.2766907230168094 $360 -2.091796128218963 $263 $456 forward 7 unknown #
vertex $-1 $359 $457 #
straight-curve $-1 -69.613940855128661 7.7760395538368492 5.4018938398823479 -0.77714595512881146 0 -0.62932039886446345 I I #
point $-1 -69.613940855128646 7.7760395538368492 5.4018938398823595 #
point $-1 -57.672001477941571 14.960934148634696 15.072285871738146 #
coedge $-1 $264 $458 $459 $460 forward $265 $-1 #
face $-1 $461 $265 $18 $-1 $462 forward single #
coedge $-1 $463 $267 $464 $465 forward $154 $-1 #
coedge $-1 $459 $466 $267 $368 reversed $444 $-1 #
edge $-1 $369 -15.072285871738146 $467 9.9076808938426559 $367 $468 forward 7 unknown #
vertex $-1 $460 $469 #
straight-curve $-1 -69.613940855128646 0 15.072285871738146 0 -1 0 I I #
face $-1 $470 $471 $19 $-1 $472 reversed single #
loop $-1 $-1 $473 $271 #
plane-surface $-1 -69.613940855128646 0 0 1 0 0 0 0 -1 forward_v I I I I #
coedge $-1 $474 $475 $473 $476 reversed $272 $-1 #
coedge $-1 $477 $376 $381 $478 reversed $274 $-1 #
coedge $-1 $375 $479 $275 $377 reversed $274 $-1 #
edge $-1 $382 1.8310242626372826e-014 $480 15.366404854037645 $275 $481 forward 7 unknown #
coedge $-1 $482 $483 $276 $379 forward $484 $-1 #
edge $-1 $383 9.0025025979124109 $480 20.944441975099487 $378 $485 forward 7 unknown #
coedge $-1 $486 $277 $483 $487 reversed $372 $-1 #
coedge $-1 $277 $473 $375 $478 forward $372 $-1 #
vertex $-1 $478 $488 #
vertex $-1 $379 $489 #
straight-curve $-1 -69.613940855128646 14.960934148634696 56.801139476080714 0 0 1 I I #
vertex $-1 $279 $490 #
point $-1 -58.704268346500193 11.36848685123578 6.5218234757720328 #
straight-curve $-1 -69.613940855128646 31.051467535947424 0 0 0 -1 I I #
point $-1 -69.613940855128646 -31.051467535947424 -15.072285871738146 #
straight-curve $-1 -69.613940855128646 0 -15.072285871738146 0 1 0 I I #
point $-1 -69.613940855128646 31.051467535947424 -15.072285871738146 #
face $-1 $-1 $491 $16 $-1 $492 reversed single #
plane-surface $-1 -69.613940855128646 0 0 1 0 0 0 0 -1 forward_v I I I I #
coedge $-1 $493 $301 $316 $407 forward $204 $-1 #
coedge $-1 $301 $493 $494 $495 forward $204 $-1 #
coedge $-1 $404 $496 $302 $396 reversed $491 $-1 #
edge $-1 $397 -69.613940855128646 $400 69.613940855128646 $395 $497 forward 7 unknown #
vertex $-1 $303 $498 #
straight-curve $-1 69.613940855128646 0 15.072285871738146 0 1 0 I I #
coedge $-1 $406 $304 $496 $499 forward $313 $-1 #
vertex $-1 $396 $500 #
straight-curve $-1 -69.613940855128646 0 15.072285871738146 0 -1 0 I I #
point $-1 -69.613940855128646 -15.893560298439894 15.072285871738146 #
straight-curve $-1 -69.613940855128646 -15.893560298439894 5.8982099805671293 0 0 1 I I #
coedge $-1 $494 $395 $310 $405 forward $491 $-1 #
edge $-1 $397 -15.072285871738146 $410 15.072285871738146 $310 $501 forward 7 unknown #
coedge $-1 $312 $399 $493 $502 reversed $313 $-1 #
edge $-1 $320 -69.613940855128646 $408 69.613940855128646 $316 $503 forward 7 unknown #
vertex $-1 $502 $504 #
straight-curve $-1 -69.613940855128646 -31.051467535947424 0 0 0 -1 I I #
vertex $-1 $319 $505 #
straight-curve $-1 69.613940855128646 0 -15.072285871738146 0 -1 0 I I #
point $-1 69.613940855128646 -31.051467535947424 -15.072285871738146 #
loop $-1 $-1 $433 $322 #
plane-surface $-1 0 0 15.072285871738146 0 0 1 1 0 0 forward_v I I I I #
coedge $-1 $506 $507 $340 $432 reversed $323 $-1 #
coedge $-1 $508 $325 $507 $509 reversed $227 $-1 #
coedge $-1 $325 $508 $510 $511 reversed $227 $-1 #
coedge $-1 $345 $340 $325 $419 forward $149 $-1 #
edge $-1 $512 4.1573033398430645 $513 19.315210577350594 $418 $514 forward 7 unknown #
coedge $-1 $326 $515 $516 $517 reversed $137 $-1 #
coedge $-1 $516 $341 $327 $422 forward $413 $-1 #
edge $-1 $343 -69.613940855128646 $423 69.613940855128646 $327 $518 forward 7 unknown #
vertex $-1 $422 $519 #
straight-curve $-1 -69.613940855128646 31.051467535947424 0 0 0 -1 I I #
coedge $-1 $330 $329 $520 $521 forward $331 $-1 #
point $-1 69.613940855128646 14.960934148634706 -15.072285871738146 #
coedge $-1 $515 $334 $508 $522 forward $137 $-1 #
coedge $-1 $520 $510 $334 $429 forward $523 $-1 #
edge $-1 $524 -8.5205540505303716 $430 15.072285871738146 $334 $525 forward 7 unknown #
vertex $-1 $335 $526 #
straight-curve $-1 -69.613940855128646 0 -15.072285871738146 0 1 0 I I #
edge $-1 $434 -9.1740758911710163 $512 -2.6223440699632423 $340 $527 forward 7 unknown #
coedge $-1 $341 $516 $506 $528 forward $413 $-1 #
vertex $-1 $342 $529 #
straight-curve $-1 69.613940855128646 0 15.072285871738146 0 1 0 I I #
point $-1 69.613940855128646 31.051467535947424 15.072285871738146 #
coedge $-1 $510 $520 $345 $438 reversed $523 $-1 #
edge $-1 $513 -8.5205540505303716 $439 15.072285871738146 $345 $530 forward 7 unknown #
vertex $-1 $438 $531 #
straight-curve $-1 69.613940855128646 0 -15.072285871738146 0 -1 0 I I #
face $-1 $-1 $523 $17 $-1 $532 reversed single #
plane-surface $-1 0 0 -15.072285871738146 0 0 1 1 0 0 forward_v I I I I #
face $-1 $533 $534 $18 $-1 $535 forward single #
loop $-1 $-1 $466 $350 #
plane-surface $-1 0 31.051467535947424 0 0 -1 0 0 0 -1 forward_v I I I I #
coedge $-1 $536 $537 $463 $538 reversed $351 $-1 #
coedge $-1 $464 $353 $536 $539 reversed $251 $-1 #
coedge $-1 $353 $464 $466 $540 reversed $251 $-1 #
coedge $-1 $541 $542 $353 $450 forward $543 $-1 #
edge $-1 $544 3.4578337274891737 $545 19.548367114801891 $449 $546 forward 7 unknown #
coedge $-1 $354 $547 $548 $549 forward $154 $-1 #
coedge $-1 $550 $355 $354 $453 forward $265 $-1 #
edge $-1 $357 -7.7760395538368492 $551 15.893560298439894 $354 $370 forward 7 unknown #
straight-curve $-1 -78.616443453041057 7.7760395538368492 15.072285871738146 -1 0 0 I I #
point $-1 -69.613940855128646 7.7760395538368492 15.072285871738146 #
straight-curve $-1 -57.672001477941571 5.6842434256178862 15.072285871738146 0 -1 0 I I #
point $-1 -57.672001477941571 7.7760395538368492 15.072285871738146 #
coedge $-1 $364 $550 $552 $553 forward $265 $-1 #
coedge $-1 $554 $367 $364 $460 reversed $444 $-1 #
edge $-1 $555 -69.613940855128646 $369 69.613940855128646 $459 $556 forward 7 unknown #
face $-1 $557 $543 $18 $-1 $558 reversed single #
plane-surface $-1 0 0 15.072285871738146 0 0 1 1 0 0 forward_v I I I I #
coedge $-1 $559 $366 $446 $538 forward $154 $-1 #
coedge $-1 $448 $447 $366 $465 reversed $251 $-1 #
edge $-1 $467 -19.548367114801891 $560 -3.4578337274891737 $366 $561 forward 7 unknown #
coedge $-1 $367 $554 $448 $540 forward $444 $-1 #
vertex $-1 $465 $562 #
straight-curve $-1 -69.613940855128646 31.051467535947424 0 0 0 -1 I I #
point $-1 -69.613940855128646 31.051467535947424 15.072285871738146 #
face $-1 $563 $564 $19 $-1 $565 forward single #
loop $-1 $-1 $566 $371 #
plane-surface $-1 0 23.006200842291065 -9.9076808938426559 0 0 1 1 0 0 forward_v I I I I #
coedge $-1 $381 $567 $374 $476 forward $372 $-1 #
coedge $-1 $475 $374 $568 $569 reversed $272 $-1 #
coedge $-1 $374 $474 $477 $570 forward $272 $-1 #
edge $-1 $571 41.728853604342568 $572 51.399245636198351 $473 $573 forward 7 unknown #
coedge $-1 $479 $375 $475 $570 reversed $274 $-1 #
edge $-1 $572 2.091796128218963 $382 9.2766907230168094 $381 $574 forward 7 unknown #
coedge $-1 $376 $477 $482 $575 reversed $274 $-1 #
vertex $-1 $575 $576 #
straight-curve $-1 -69.613940855128661 14.960934148634696 5.4018938398823479 0.77714595512881146 0 0.62932039886446345 I I #
coedge $-1 $568 $378 $479 $575 forward $484 $-1 #
coedge $-1 $378 $577 $380 $487 forward $484 $-1 #
loop $-1 $-1 $568 $578 #
straight-curve $-1 -78.616443453041057 14.960934148634696 15.072285871738146 1 0 0 I I #
coedge $-1 $579 $380 $580 $581 forward $372 $-1 #
edge $-1 $582 -31.051467535947424 $383 -14.960934148634696 $380 $583 forward 7 unknown #
point $-1 -69.613940855128646 14.960934148634696 5.4018938398823595 #
point $-1 -69.613940855128646 14.960934148634696 15.072285871738146 #
point $-1 -58.92600668089672 11.36848685123578 4.4121239447821203 #
loop $-1 $-1 $404 $391 #
plane-surface $-1 0 31.051467535947424 0 0 -1 0 0 0 -1 forward_v I I I I #
coedge $-1 $394 $393 $406 $502 forward $204 $-1 #
coedge $-1 $496 $404 $394 $495 reversed $491 $-1 #
edge $-1 $584 -69.613940855128646 $410 69.613940855128646 $494 $585 forward 7 unknown #
coedge $-1 $395 $494 $399 $499 reversed $491 $-1 #
straight-curve $-1 0 31.051467535947424 15.072285871738146 -1 0 0 I I #
point $-1 69.613940855128646 31.051467535947424 15.072285871738146 #
edge $-1 $400 -15.072285871738146 $584 15.072285871738146 $496 $586 forward 7 unknown #
point $-1 -69.613940855128646 31.051467535947424 15.072285871738146 #
straight-curve $-1 69.613940855128646 31.051467535947424 0 0 0 -1 I I #
edge $-1 $408 -31.051467535947424 $584 31.051467535947424 $406 $587 forward 7 unknown #
straight-curve $-1 0 -31.051467535947424 -15.072285871738146 -1 0 0 I I #
point $-1 -69.613940855128646 -31.051467535947424 -15.072285871738146 #
point $-1 69.613940855128646 31.051467535947424 -15.072285871738146 #
coedge $-1 $588 $415 $433 $528 reversed $323 $-1 #
coedge $-1 $415 $588 $416 $509 forward $323 $-1 #
coedge $-1 $417 $416 $427 $522 reversed $227 $-1 #
edge $-1 $589 -69.613940855128646 $512 69.613940855128646 $507 $590 forward 7 unknown #
coedge $-1 $428 $437 $417 $511 forward $523 $-1 #
edge $-1 $513 -69.613940855128646 $524 69.613940855128646 $510 $591 forward 7 unknown #
vertex $-1 $419 $592 #
vertex $-1 $438 $593 #
straight-curve $-1 69.613940855128646 -11.736256958596829 8.5205540505303716 0 -1 0 I I #
coedge $-1 $420 $427 $588 $594 forward $137 $-1 #
coedge $-1 $433 $421 $420 $517 forward $413 $-1 #
edge $-1 $423 -31.051467535947424 $595 15.893560298439894 $420 $596 forward 7 unknown #
straight-curve $-1 0 31.051467535947424 15.072285871738146 -1 0 0 I I #
point $-1 -69.613940855128646 31.051467535947424 15.072285871738146 #
coedge $-1 $437 $428 $425 $521 reversed $523 $-1 #
edge $-1 $439 -69.613940855128646 $430 69.613940855128646 $520 $597 forward 7 unknown #
edge $-1 $524 -19.315210577350594 $589 -4.1573033398430645 $427 $598 forward 7 unknown #
loop $-1 $-1 $510 $441 #
vertex $-1 $429 $599 #
straight-curve $-1 -69.613940855128646 -31.051467535947424 0 0 0 -1 I I #
point $-1 -69.613940855128646 -31.051467535947424 -15.072285871738146 #
straight-curve $-1 69.613940855128646 -15.893560298439894 5.8982099805671293 0 0 -1 I I #
edge $-1 $595 -69.613940855128646 $434 69.613940855128646 $433 $600 forward 7 unknown #
point $-1 69.613940855128646 -15.893560298439894 15.072285871738146 #
straight-curve $-1 69.613940855128646 -31.051467535947424 0 0 0 -1 I I #
point $-1 69.613940855128646 -31.051467535947424 -15.072285871738146 #
plane-surface $-1 0 -31.051467535947424 0 0 1 0 0 0 1 forward_v I I I I #
face $-1 $365 $601 $18 $-1 $602 forward single #
loop $-1 $-1 $603 $443 #
plane-surface $-1 0 -23.472513917193659 8.5205540505303716 0 0 1 1 0 0 forward_v I I I I #
coedge $-1 $604 $446 $447 $539 forward $351 $-1 #
coedge $-1 $446 $604 $605 $606 reversed $351 $-1 #
edge $-1 $560 3.6626892024474555 $607 8.8272941803429461 $463 $608 forward 7 unknown #
edge $-1 $560 -69.613940855128646 $544 69.613940855128646 $536 $609 forward 7 unknown #
edge $-1 $545 -69.613940855128646 $467 69.613940855128646 $466 $610 forward 7 unknown #
coedge $-1 $552 $449 $554 $611 reversed $543 $-1 #
coedge $-1 $449 $612 $604 $613 forward $543 $-1 #
loop $-1 $-1 $449 $461 #
vertex $-1 $450 $614 #
vertex $-1 $540 $615 #
straight-curve $-1 69.613940855128646 11.503100421145533 -9.9076808938426559 0 1 0 I I #
coedge $-1 $451 $616 $617 $618 forward $154 $-1 #
coedge $-1 $619 $620 $451 $549 reversed $601 $-1 #
edge $-1 $621 2.6223440699632423 $551 9.1740758911710163 $451 $622 forward 7 unknown #
coedge $-1 $458 $452 $620 $623 forward $265 $-1 #
vertex $-1 $549 $624 #
coedge $-1 $625 $541 $458 $553 reversed $543 $-1 #
edge $-1 $626 -15.893560298439894 $555 31.051467535947424 $552 $627 forward 7 unknown #
coedge $-1 $466 $459 $541 $611 forward $444 $-1 #
vertex $-1 $553 $628 #
straight-curve $-1 0 31.051467535947424 15.072285871738146 -1 0 0 I I #
face $-1 $629 $630 $18 $-1 $631 reversed single #
plane-surface $-1 69.613940855128646 0 0 -1 0 0 0 0 1 forward_v I I I I #
coedge $-1 $616 $463 $632 $633 reversed $154 $-1 #
vertex $-1 $465 $634 #
straight-curve $-1 -69.613940855128646 11.503100421145533 -9.9076808938426559 0 -1 0 I I #
point $-1 -69.613940855128646 31.051467535947424 -9.9076808938426559 #
face $-1 $635 $636 $19 $-1 $637 reversed single #
loop $-1 $-1 $638 $470 #
plane-surface $-1 0 14.960934148634706 -12.489983382790401 0 1 0 0 0 1 forward_v I I I I #
coedge $-1 $639 $640 $641 $642 reversed $471 $-1 #
coedge $-1 $473 $643 $644 $645 reversed $372 $-1 #
coedge $-1 $644 $482 $474 $569 forward $484 $-1 #
edge $-1 $646 -20.944441975099487 $571 -9.0025025979124109 $568 $647 forward 7 unknown #
edge $-1 $646 -15.366404854037645 $572 -1.8310242626372826e-014 $475 $648 forward 7 unknown #
vertex $-1 $645 $649 #
vertex $-1 $478 $650 #
straight-curve $-1 -69.613940855128646 7.7760395538368492 56.801139476080714 0 0 -1 I I #
straight-curve $-1 -69.613940855128646 5.6842434256178862 5.4018938398823471 0 1 0 I I #
edge $-1 $480 -9.2766907230168094 $646 -2.091796128218963 $482 $651 forward 7 unknown #
point $-1 -57.672001477941571 14.960934148634696 15.072285871738146 #
coedge $-1 $483 $652 $653 $654 forward $484 $-1 #
face $-1 $655 $484 $19 $-1 $656 forward single #
coedge $-1 $657 $486 $658 $659 forward $372 $-1 #
coedge $-1 $653 $660 $486 $581 reversed $636 $-1 #
edge $-1 $582 -15.072285871738146 $661 9.9076808938426559 $580 $662 forward 7 unknown #
vertex $-1 $654 $663 #
straight-curve $-1 -69.613940855128646 0 15.072285871738146 0 -1 0 I I #
vertex $-1 $495 $664 #
straight-curve $-1 0 31.051467535947424 -15.072285871738146 1 0 0 I I #
straight-curve $-1 -69.613940855128646 31.051467535947424 0 0 0 -1 I I #
straight-curve $-1 -69.613940855128646 0 -15.072285871738146 0 1 0 I I #
coedge $-1 $507 $506 $515 $594 reversed $323 $-1 #
vertex $-1 $522 $665 #
straight-curve $-1 0 -15.893560298439894 8.5205540505303716 1 0 0 I I #
straight-curve $-1 0 -31.051467535947424 8.5205540505303716 -1 0 0 I I #
point $-1 69.613940855128646 -15.893560298439894 8.5205540505303716 #
point $-1 69.613940855128646 -31.051467535947424 8.5205540505303716 #
edge $-1 $589 2.6223440699632423 $595 9.1740758911710163 $515 $666 forward 7 unknown #
vertex $-1 $594 $667 #
straight-curve $-1 -69.613940855128646 0 15.072285871738146 0 -1 0 I I #
straight-curve $-1 0 -31.051467535947424 -15.072285871738146 -1 0 0 I I #
straight-curve $-1 -69.613940855128646 -11.736256958596829 8.5205540505303716 0 1 0 I I #
point $-1 -69.613940855128646 -31.051467535947424 8.5205540505303716 #
straight-curve $-1 0 -15.893560298439894 15.072285871738146 1 0 0 I I #
loop $-1 $-1 $668 $533 #
plane-surface $-1 0 -15.893560298439894 11.796419961134259 0 -1 0 0 0 -1 forward_v I I I I #
coedge $-1 $669 $670 $671 $672 reversed $534 $-1 #
coedge $-1 $537 $536 $542 $613 reversed $351 $-1 #
coedge $-1 $673 $632 $537 $606 forward $630 $-1 #
edge $-1 $607 -69.613940855128646 $674 69.613940855128646 $605 $675 forward 7 unknown #
vertex $-1 $538 $676 #
straight-curve $-1 -69.613940855128646 14.960934148634706 -6.2449916913952004 0 0 -1 I I #
straight-curve $-1 0 14.960934148634706 -9.9076808938426559 1 0 0 I I #
straight-curve $-1 0 31.051467535947424 -9.9076808938426559 -1 0 0 I I #
edge $-1 $555 -15.072285871738146 $545 9.9076808938426559 $541 $677 forward 7 unknown #
coedge $-1 $542 $678 $673 $679 reversed $543 $-1 #
edge $-1 $674 -8.8272941803429461 $544 -3.6626892024474555 $542 $680 forward 7 unknown #
point $-1 69.613940855128646 14.960934148634706 -9.9076808938426559 #
point $-1 69.613940855128646 31.051467535947424 -9.9076808938426559 #
coedge $-1 $547 $559 $681 $682 reversed $154 $-1 #
coedge $-1 $670 $669 $547 $618 reversed $534 $-1 #
edge $-1 $683 -19.315210577350594 $621 -4.1573033398430645 $547 $684 forward 7 unknown #
coedge $-1 $668 $548 $669 $685 forward $601 $-1 #
coedge $-1 $548 $668 $550 $623 reversed $601 $-1 #
vertex $-1 $618 $686 #
straight-curve $-1 -69.613940855128646 -15.893560298439894 5.8982099805671293 0 0 1 I I #
edge $-1 $551 -69.613940855128646 $626 69.613940855128646 $550 $687 forward 7 unknown #
point $-1 -69.613940855128646 -15.893560298439894 15.072285871738146 #
coedge $-1 $671 $552 $668 $688 forward $543 $-1 #
vertex $-1 $553 $689 #
straight-curve $-1 69.613940855128646 0 15.072285871738146 0 1 0 I I #
point $-1 69.613940855128646 31.051467535947424 15.072285871738146 #
face $-1 $-1 $690 $18 $-1 $691 reversed single #
loop $-1 $-1 $605 $557 #
plane-surface $-1 0 0 -15.072285871738146 0 0 1 1 0 0 forward_v I I I I #
coedge $-1 $605 $692 $559 $633 forward $630 $-1 #
edge $-1 $693 -31.051467535947424 $607 14.960934148634706 $559 $694 forward 7 unknown #
point $-1 -69.613940855128646 14.960934148634706 -9.9076808938426559 #
face $-1 $695 $696 $19 $-1 $697 forward single #
loop $-1 $-1 $660 $563 #
plane-surface $-1 0 31.051467535947424 0 0 -1 0 0 0 -1 forward_v I I I I #
coedge $-1 $698 $699 $657 $700 reversed $564 $-1 #
coedge $-1 $658 $566 $698 $701 reversed $471 $-1 #
coedge $-1 $566 $658 $660 $702 reversed $471 $-1 #
coedge $-1 $703 $704 $566 $642 forward $705 $-1 #
edge $-1 $706 3.4578337274891737 $707 19.548367114801891 $641 $708 forward 7 unknown #
coedge $-1 $567 $709 $710 $711 forward $372 $-1 #
coedge $-1 $712 $568 $567 $645 forward $484 $-1 #
edge $-1 $571 -7.7760395538368492 $713 15.893560298439894 $567 $583 forward 7 unknown #
vertex $-1 $575 $714 #
straight-curve $-1 -78.616443453041057 7.7760395538368492 15.072285871738146 -1 0 0 I I #
straight-curve $-1 -69.613940855128661 7.7760395538368492 5.4018938398823479 -0.77714595512881146 0 -0.62932039886446345 I I #
point $-1 -69.613940855128646 7.7760395538368492 15.072285871738146 #
point $-1 -69.613940855128646 7.7760395538368492 5.4018938398823595 #
straight-curve $-1 -57.672001477941571 5.6842434256178862 15.072285871738146 0 -1 0 I I #
coedge $-1 $577 $712 $715 $716 forward $484 $-1 #
coedge $-1 $717 $580 $577 $654 reversed $636 $-1 #
edge $-1 $718 -69.613940855128646 $582 69.613940855128646 $653 $719 forward 7 unknown #
face $-1 $720 $705 $19 $-1 $721 reversed single #
plane-surface $-1 0 0 15.072285871738146 0 0 1 1 0 0 forward_v I I I I #
coedge $-1 $722 $579 $638 $700 forward $372 $-1 #
coedge $-1 $640 $639 $579 $659 reversed $471 $-1 #
edge $-1 $661 -19.548367114801891 $723 -3.4578337274891737 $579 $724 forward 7 unknown #
coedge $-1 $580 $717 $640 $702 forward $636 $-1 #
vertex $-1 $659 $725 #
straight-curve $-1 -69.613940855128646 31.051467535947424 0 0 0 -1 I I #
point $-1 -69.613940855128646 31.051467535947424 15.072285871738146 #
point $-1 -69.613940855128646 31.051467535947424 -15.072285871738146 #
point $-1 -69.613940855128646 -15.893560298439894 8.5205540505303716 #
straight-curve $-1 -69.613940855128646 -15.893560298439894 5.8982099805671293 0 0 1 I I #
point $-1 -69.613940855128646 -15.893560298439894 15.072285871738146 #
coedge $-1 $620 $619 $625 $688 reversed $601 $-1 #
coedge $-1 $617 $603 $619 $685 reversed $534 $-1 #
coedge $-1 $603 $617 $726 $727 reversed $534 $-1 #
coedge $-1 $678 $625 $603 $672 forward $543 $-1 #
edge $-1 $728 4.1573033398430645 $729 19.315210577350594 $671 $730 forward 7 unknown #
coedge $-1 $692 $605 $612 $679 forward $630 $-1 #
vertex $-1 $679 $731 #
straight-curve $-1 0 14.960934148634706 -15.072285871738146 1 0 0 I I #
point $-1 -69.613940855128646 14.960934148634706 -15.072285871738146 #
straight-curve $-1 69.613940855128646 31.051467535947424 0 0 0 -1 I I #
coedge $-1 $612 $671 $732 $733 forward $543 $-1 #
edge $-1 $674 -14.960934148634706 $734 31.051467535947424 $612 $735 forward 7 unknown #
straight-curve $-1 69.613940855128646 14.960934148634706 -6.2449916913952004 0 0 1 I I #
coedge $-1 $736 $726 $616 $682 forward $690 $-1 #
edge $-1 $683 -8.5205540505303716 $693 15.072285871738146 $616 $737 forward 7 unknown #
vertex $-1 $682 $738 #
straight-curve $-1 -69.613940855128646 -11.736256958596829 8.5205540505303716 0 1 0 I I #
edge $-1 $621 -69.613940855128646 $728 69.613940855128646 $619 $739 forward 7 unknown #
point $-1 -69.613940855128646 -15.893560298439894 8.5205540505303716 #
straight-curve $-1 0 -15.893560298439894 15.072285871738146 1 0 0 I I #
edge $-1 $626 -9.1740758911710163 $728 -2.6223440699632423 $625 $740 forward 7 unknown #
point $-1 69.613940855128646 -15.893560298439894 15.072285871738146 #
loop $-1 $-1 $726 $629 #
plane-surface $-1 0 -31.051467535947424 0 0 1 0 0 0 1 forward_v I I I I #
coedge $-1 $632 $673 $736 $741 forward $630 $-1 #
vertex $-1 $633 $742 #
straight-curve $-1 -69.613940855128646 0 -15.072285871738146 0 1 0 I I #
face $-1 $578 $743 $19 $-1 $744 forward single #
loop $-1 $-1 $745 $635 #
plane-surface $-1 0 -23.472513917193659 8.5205540505303716 0 0 1 1 0 0 forward_v I I I I #
coedge $-1 $746 $638 $639 $701 forward $564 $-1 #
coedge $-1 $638 $746 $747 $748 reversed $564 $-1 #
edge $-1 $723 3.6626892024474555 $749 8.8272941803429461 $657 $750 forward 7 unknown #
edge $-1 $723 -69.613940855128646 $706 69.613940855128646 $698 $751 forward 7 unknown #
edge $-1 $707 -69.613940855128646 $661 69.613940855128646 $660 $752 forward 7 unknown #
coedge $-1 $715 $641 $717 $753 reversed $705 $-1 #
coedge $-1 $641 $754 $746 $755 forward $705 $-1 #
loop $-1 $-1 $641 $655 #
vertex $-1 $642 $756 #
vertex $-1 $702 $757 #
straight-curve $-1 69.613940855128646 11.503100421145533 -9.9076808938426559 0 1 0 I I #
coedge $-1 $643 $758 $759 $760 forward $372 $-1 #
coedge $-1 $761 $762 $643 $711 reversed $743 $-1 #
edge $-1 $763 2.6223440699632423 $713 9.1740758911710163 $643 $764 forward 7 unknown #
coedge $-1 $652 $644 $762 $765 forward $484 $-1 #
vertex $-1 $711 $766 #
point $-1 -57.672001477941571 7.7760395538368492 15.072285871738146 #
coedge $-1 $767 $703 $652 $716 reversed $705 $-1 #
edge $-1 $768 -15.893560298439894 $718 31.051467535947424 $715 $769 forward 7 unknown #
coedge $-1 $660 $653 $703 $753 forward $636 $-1 #
vertex $-1 $716 $770 #
straight-curve $-1 0 31.051467535947424 15.072285871738146 -1 0 0 I I #
face $-1 $771 $772 $19 $-1 $773 reversed single #
plane-surface $-1 69.613940855128646 0 0 -1 0 0 0 0 1 forward_v I I I I #
coedge $-1 $758 $657 $774 $775 reversed $372 $-1 #
vertex $-1 $659 $776 #
straight-curve $-1 -69.613940855128646 11.503100421145533 -9.9076808938426559 0 -1 0 I I #
point $-1 -69.613940855128646 31.051467535947424 -9.9076808938426559 #
coedge $-1 $681 $732 $670 $727 forward $690 $-1 #
edge $-1 $729 -69.613940855128646 $683 69.613940855128646 $726 $777 forward 7 unknown #
vertex $-1 $672 $778 #
vertex $-1 $733 $779 #
straight-curve $-1 69.613940855128646 -11.736256958596829 8.5205540505303716 0 -1 0 I I #
point $-1 69.613940855128646 14.960934148634706 -15.072285871738146 #
coedge $-1 $726 $736 $678 $733 reversed $690 $-1 #
edge $-1 $729 -8.5205540505303716 $734 15.072285871738146 $678 $780 forward 7 unknown #
vertex $-1 $733 $781 #
straight-curve $-1 69.613940855128646 0 -15.072285871738146 0 -1 0 I I #
coedge $-1 $732 $681 $692 $741 reversed $690 $-1 #
straight-curve $-1 -69.613940855128646 -31.051467535947424 0 0 0 -1 I I #
point $-1 -69.613940855128646 -31.051467535947424 8.5205540505303716 #
straight-curve $-1 0 -15.893560298439894 8.5205540505303716 1 0 0 I I #
straight-curve $-1 69.613940855128646 -15.893560298439894 5.8982099805671293 0 0 -1 I I #
edge $-1 $734 -69.613940855128646 $693 69.613940855128646 $736 $782 forward 7 unknown #
point $-1 -69.613940855128646 -31.051467535947424 -15.072285871738146 #
loop $-1 $-1 $783 $695 #
plane-surface $-1 0 -15.893560298439894 11.796419961134259 0 -1 0 0 0 -1 forward_v I I I I #
coedge $-1 $784 $785 $786 $787 reversed $696 $-1 #
coedge $-1 $699 $698 $704 $755 reversed $564 $-1 #
coedge $-1 $788 $774 $699 $748 forward $772 $-1 #
edge $-1 $749 -69.613940855128646 $789 69.613940855128646 $747 $790 forward 7 unknown #
vertex $-1 $700 $791 #
straight-curve $-1 -69.613940855128646 14.960934148634706 -6.2449916913952004 0 0 -1 I I #
straight-curve $-1 0 14.960934148634706 -9.9076808938426559 1 0 0 I I #
straight-curve $-1 0 31.051467535947424 -9.9076808938426559 -1 0 0 I I #
edge $-1 $718 -15.072285871738146 $707 9.9076808938426559 $703 $792 forward 7 unknown #
coedge $-1 $704 $793 $788 $794 reversed $705 $-1 #
edge $-1 $789 -8.8272941803429461 $706 -3.6626892024474555 $704 $795 forward 7 unknown #
point $-1 69.613940855128646 14.960934148634706 -9.9076808938426559 #
point $-1 69.613940855128646 31.051467535947424 -9.9076808938426559 #
coedge $-1 $709 $722 $796 $797 reversed $372 $-1 #
coedge $-1 $785 $784 $709 $760 reversed $696 $-1 #
edge $-1 $798 -19.315210577350594 $763 -4.1573033398430645 $709 $799 forward 7 unknown #
coedge $-1 $783 $710 $784 $800 forward $743 $-1 #
coedge $-1 $710 $783 $712 $765 reversed $743 $-1 #
vertex $-1 $760 $801 #
straight-curve $-1 -69.613940855128646 -15.893560298439894 5.8982099805671293 0 0 1 I I #
edge $-1 $713 -69.613940855128646 $768 69.613940855128646 $712 $802 forward 7 unknown #
point $-1 -69.613940855128646 -15.893560298439894 15.072285871738146 #
coedge $-1 $786 $715 $783 $803 forward $705 $-1 #
vertex $-1 $716 $804 #
straight-curve $-1 69.613940855128646 0 15.072285871738146 0 1 0 I I #
point $-1 69.613940855128646 31.051467535947424 15.072285871738146 #
face $-1 $-1 $805 $19 $-1 $806 reversed single #
loop $-1 $-1 $747 $720 #
plane-surface $-1 0 0 -15.072285871738146 0 0 1 1 0 0 forward_v I I I I #
coedge $-1 $747 $807 $722 $775 forward $772 $-1 #
edge $-1 $808 -31.051467535947424 $749 14.960934148634706 $722 $809 forward 7 unknown #
point $-1 -69.613940855128646 14.960934148634706 -9.9076808938426559 #
straight-curve $-1 0 -31.051467535947424 8.5205540505303716 -1 0 0 I I #
point $-1 69.613940855128646 -15.893560298439894 8.5205540505303716 #
point $-1 69.613940855128646 -31.051467535947424 8.5205540505303716 #
straight-curve $-1 69.613940855128646 -31.051467535947424 0 0 0 -1 I I #
point $-1 69.613940855128646 -31.051467535947424 -15.072285871738146 #
straight-curve $-1 0 -31.051467535947424 -15.072285871738146 -1 0 0 I I #
coedge $-1 $762 $761 $767 $803 reversed $743 $-1 #
coedge $-1 $759 $745 $761 $800 reversed $696 $-1 #
coedge $-1 $745 $759 $810 $811 reversed $696 $-1 #
coedge $-1 $793 $767 $745 $787 forward $705 $-1 #
edge $-1 $812 4.1573033398430645 $813 19.315210577350594 $786 $814 forward 7 unknown #
coedge $-1 $807 $747 $754 $794 forward $772 $-1 #
vertex $-1 $794 $815 #
straight-curve $-1 0 14.960934148634706 -15.072285871738146 1 0 0 I I #
point $-1 -69.613940855128646 14.960934148634706 -15.072285871738146 #
straight-curve $-1 69.613940855128646 31.051467535947424 0 0 0 -1 I I #
coedge $-1 $754 $786 $816 $817 forward $705 $-1 #
edge $-1 $789 -14.960934148634706 $818 31.051467535947424 $754 $819 forward 7 unknown #
straight-curve $-1 69.613940855128646 14.960934148634706 -6.2449916913952004 0 0 1 I I #
coedge $-1 $820 $810 $758 $797 forward $805 $-1 #
edge $-1 $798 -8.5205540505303716 $808 15.072285871738146 $758 $821 forward 7 unknown #
vertex $-1 $797 $822 #
straight-curve $-1 -69.613940855128646 -11.736256958596829 8.5205540505303716 0 1 0 I I #
edge $-1 $763 -69.613940855128646 $812 69.613940855128646 $761 $823 forward 7 unknown #
point $-1 -69.613940855128646 -15.893560298439894 8.5205540505303716 #
straight-curve $-1 0 -15.893560298439894 15.072285871738146 1 0 0 I I #
edge $-1 $768 -9.1740758911710163 $812 -2.6223440699632423 $767 $824 forward 7 unknown #
point $-1 69.613940855128646 -15.893560298439894 15.072285871738146 #
loop $-1 $-1 $810 $771 #
plane-surface $-1 0 -31.051467535947424 0 0 1 0 0 0 1 forward_v I I I I #
coedge $-1 $774 $788 $820 $825 forward $772 $-1 #
vertex $-1 $775 $826 #
straight-curve $-1 -69.613940855128646 0 -15.072285871738146 0 1 0 I I #
coedge $-1 $796 $816 $785 $811 forward $805 $-1 #
edge $-1 $813 -69.613940855128646 $798 69.613940855128646 $810 $827 forward 7 unknown #
vertex $-1 $787 $828 #
vertex $-1 $817 $829 #
straight-curve $-1 69.613940855128646 -11.736256958596829 8.5205540505303716 0 -1 0 I I #
point $-1 69.613940855128646 14.960934148634706 -15.072285871738146 #
coedge $-1 $810 $820 $793 $817 reversed $805 $-1 #
edge $-1 $813 -8.5205540505303716 $818 15.072285871738146 $793 $830 forward 7 unknown #
vertex $-1 $817 $831 #
straight-curve $-1 69.613940855128646 0 -15.072285871738146 0 -1 0 I I #
coedge $-1 $816 $796 $807 $825 reversed $805 $-1 #
straight-curve $-1 -69.613940855128646 -31.051467535947424 0 0 0 -1 I I #
point $-1 -69.613940855128646 -31.051467535947424 8.5205540505303716 #
straight-curve $-1 0 -15.893560298439894 8.5205540505303716 1 0 0 I I #
straight-curve $-1 69.613940855128646 -15.893560298439894 5.8982099805671293 0 0 -1 I I #
edge $-1 $818 -69.613940855128646 $808 69.613940855128646 $820 $832 forward 7 unknown #
point $-1 -69.613940855128646 -31.051467535947424 -15.072285871738146 #
straight-curve $-1 0 -31.051467535947424 8.5205540505303716 -1 0 0 I I #
point $-1 69.613940855128646 -15.893560298439894 8.5205540505303716 #
point $-1 69.613940855128646 -31.051467535947424 8.5205540505303716 #
straight-curve $-1 69.613940855128646 -31.051467535947424 0 0 0 -1 I I #
point $-1 69.613940855128646 -31.051467535947424 -15.072285871738146 #
straight-curve $-1 0 -31.051467535947424 -15.072285871738146 -1 0 0 I I #
End-of-ACIS-data 