500 0 3 0           
7 Unknown 11 ACIS 5.0 NT 24 Fri Mar 26 17:38:20 1999 
-1 9.9999999999999995e-007 1e-010 
body $-1 $3 $-1 $4 #
body $-1 $5 $-1 $6 #
body $-1 $7 $-1 $8 #
lump $-1 $-1 $9 $0 #
transform $-1 1 0 0 0 1 0 0 0 1 66.662190618610197 45.430668431199756 13.636548853670524 1 rotate no_reflect no_shear #
lump $-1 $-1 $10 $1 #
transform $-1 1 0 0 0 0.77714595512881146 -0.62932039886446345 0 0.62932039886446345 0.77714595512881146 6.7484100619828453 104.15256922075469 175.98158873700868 1 rotate no_reflect no_shear #
lump $-1 $-1 $11 $2 #
transform $-1 1 0 0 0 -0.77714595512881146 0.62932039886446345 0 -0.62932039886446345 -0.77714595512881146 6.7484100619828453 78.103952951956614 14.691152875828443 1 rotate no_reflect no_shear #
shell $-1 $-1 $-1 $12 $-1 $3 #
shell $-1 $-1 $-1 $13 $-1 $5 #
shell $-1 $-1 $-1 $14 $-1 $7 #
face $-1 $15 $16 $9 $-1 $17 forward single #
face $-1 $18 $19 $10 $-1 $20 forward single #
face $-1 $21 $22 $11 $-1 $23 forward single #
face $-1 $24 $25 $9 $-1 $26 reversed single #
loop $-1 $-1 $27 $12 #
plane-surface $-1 0 0 13.636548853670524 0 0 1 1 0 0 forward_v I I I I #
face $-1 $28 $29 $10 $-1 $30 reversed single #
loop $-1 $-1 $31 $13 #
plane-surface $-1 0 0 133.32438123722039 0 0 1 1 0 0 forward_v I I I I #
face $-1 $32 $33 $11 $-1 $34 forward single #
loop $-1 $35 $36 $14 #
cone-surface $-1 0 0 -4.8323770867030849 0 0 1 2.5 0 0 1 I I 0 1 2.5 forward I I I I #
face $-1 $37 $38 $9 $-1 $39 reversed single #
loop $-1 $-1 $40 $15 #
plane-surface $-1 0 0 -13.636548853670524 0 0 1 1 0 0 forward_v I I I I #
coedge $-1 $41 $42 $43 $44 forward $16 $-1 #
face $-1 $45 $46 $10 $-1 $47 reversed single #
loop $-1 $-1 $48 $18 #
plane-surface $-1 0 0 -133.32438123722039 0 0 1 1 0 0 forward_v I I I I #
coedge $-1 $49 $50 $51 $52 forward $19 $-1 #
face $-1 $-1 $53 $11 $-1 $54 forward single #
loop $-1 $-1 $55 $21 #
plane-surface $-1 0 0 -8.4147541734061697 0 0 -1 -1 0 0 forward_v I I I I #
loop $-1 $-1 $56 $14 #
coedge $-1 $36 $36 $55 $57 reversed $22 $-1 #
face $-1 $58 $59 $9 $-1 $60 reversed single #
loop $-1 $-1 $61 $24 #
plane-surface $-1 0 -45.430668431199756 0 0 1 0 0 0 1 forward_v I I I I #
coedge $-1 $62 $63 $64 $65 forward $25 $-1 #
coedge $-1 $66 $27 $67 $68 forward $16 $-1 #
coedge $-1 $27 $66 $69 $70 forward $16 $-1 #
coedge $-1 $71 $72 $27 $44 reversed $73 $-1 #
edge $-1 $74 -45.430668431199756 $75 45.430668431199756 $43 $76 forward 7 unknown #
face $-1 $77 $78 $10 $-1 $79 reversed single #
loop $-1 $-1 $80 $28 #
plane-surface $-1 0 -266.64876247444079 0 0 1 0 0 0 1 forward_v I I I I #
coedge $-1 $81 $82 $83 $84 forward $29 $-1 #
coedge $-1 $85 $31 $86 $87 forward $19 $-1 #
coedge $-1 $31 $85 $88 $89 forward $19 $-1 #
coedge $-1 $90 $91 $31 $52 reversed $92 $-1 #
edge $-1 $93 -266.64876247444079 $94 266.64876247444079 $51 $95 forward 7 unknown #
loop $-1 $96 $97 $32 #
cone-surface $-1 0 0 0 0 0 1 1.25 0 0 1 I I -0.70710678118654746 0.70710678118654746 1.25 forward I I I I #
coedge $-1 $55 $55 $36 $57 forward $33 $-1 #
coedge $-1 $56 $56 $97 $98 forward $35 $-1 #
edge $-1 $99 0 $99 6.2831853071796004 $55 $100 forward 7 unknown #
face $-1 $101 $102 $9 $-1 $103 reversed single #
loop $-1 $-1 $104 $37 #
plane-surface $-1 -66.662190618610197 0 0 1 0 0 0 0 -1 forward_v I I I I #
coedge $-1 $105 $69 $106 $107 forward $38 $-1 #
coedge $-1 $108 $40 $105 $109 forward $25 $-1 #
coedge $-1 $40 $108 $110 $111 forward $25 $-1 #
coedge $-1 $72 $71 $40 $65 reversed $73 $-1 #
edge $-1 $112 -45.430668431199756 $113 45.430668431199756 $64 $114 forward 7 unknown #
coedge $-1 $42 $41 $115 $116 forward $16 $-1 #
coedge $-1 $117 $118 $41 $68 reversed $102 $-1 #
edge $-1 $75 -66.662190618610197 $119 66.662190618610197 $67 $120 forward 7 unknown #
coedge $-1 $61 $121 $42 $70 reversed $38 $-1 #
edge $-1 $122 -66.662190618610197 $74 66.662190618610197 $69 $123 forward 7 unknown #
coedge $-1 $64 $43 $121 $124 forward $73 $-1 #
coedge $-1 $43 $64 $117 $125 reversed $73 $-1 #
loop $-1 $-1 $71 $101 #
vertex $-1 $44 $126 #
vertex $-1 $44 $127 #
straight-curve $-1 66.662190618610197 0 13.636548853670524 0 1 0 I I #
face $-1 $128 $129 $10 $-1 $130 reversed single #
loop $-1 $-1 $131 $45 #
plane-surface $-1 -6.7484100619828453 0 0 1 0 0 0 0 -1 forward_v I I I I #
coedge $-1 $132 $88 $133 $134 forward $46 $-1 #
coedge $-1 $135 $48 $132 $136 forward $29 $-1 #
coedge $-1 $48 $135 $137 $138 forward $29 $-1 #
coedge $-1 $91 $90 $48 $84 reversed $92 $-1 #
edge $-1 $139 -266.64876247444079 $140 266.64876247444079 $83 $141 forward 7 unknown #
coedge $-1 $50 $49 $142 $143 forward $19 $-1 #
coedge $-1 $144 $145 $49 $87 reversed $129 $-1 #
edge $-1 $94 -6.7484100619828453 $146 6.7484100619828453 $86 $147 forward 7 unknown #
coedge $-1 $80 $148 $50 $89 reversed $46 $-1 #
edge $-1 $149 -6.7484100619828453 $93 6.7484100619828453 $88 $150 forward 7 unknown #
coedge $-1 $83 $51 $148 $151 forward $92 $-1 #
coedge $-1 $51 $83 $144 $152 reversed $92 $-1 #
loop $-1 $-1 $90 $128 #
vertex $-1 $52 $153 #
vertex $-1 $52 $154 #
straight-curve $-1 6.7484100619828453 0 133.32438123722039 0 1 0 I I #
loop $-1 $-1 $155 $32 #
coedge $-1 $97 $97 $56 $98 reversed $53 $-1 #
edge $-1 $156 0 $156 6.2831853071796004 $97 $157 forward 7 unknown #
vertex $-1 $57 $158 #
ellipse-curve $-1 0 0 -8.4147541734061697 0 0 -1 2.5 0 0 1 I I #
face $-1 $-1 $73 $9 $-1 $159 reversed single #
loop $-1 $-1 $117 $58 #
plane-surface $-1 0 45.430668431199756 0 0 -1 0 0 0 -1 forward_v I I I I #
coedge $-1 $160 $115 $118 $161 forward $59 $-1 #
coedge $-1 $121 $61 $62 $109 reversed $38 $-1 #
coedge $-1 $115 $160 $61 $107 reversed $59 $-1 #
edge $-1 $122 -13.636548853670524 $162 13.636548853670524 $106 $163 forward 7 unknown #
coedge $-1 $63 $62 $160 $164 forward $25 $-1 #
edge $-1 $113 -66.662190618610197 $162 66.662190618610197 $105 $165 forward 7 unknown #
coedge $-1 $118 $117 $63 $111 reversed $102 $-1 #
edge $-1 $166 -66.662190618610197 $112 66.662190618610197 $110 $167 forward 7 unknown #
vertex $-1 $65 $168 #
vertex $-1 $124 $169 #
straight-curve $-1 66.662190618610197 0 -13.636548853670524 0 -1 0 I I #
coedge $-1 $104 $106 $66 $116 reversed $59 $-1 #
edge $-1 $119 -45.430668431199756 $122 45.430668431199756 $115 $170 forward 7 unknown #
coedge $-1 $110 $67 $72 $125 forward $102 $-1 #
coedge $-1 $67 $110 $104 $161 reversed $102 $-1 #
vertex $-1 $68 $171 #
straight-curve $-1 0 45.430668431199756 13.636548853670524 -1 0 0 I I #
coedge $-1 $69 $105 $71 $124 reversed $38 $-1 #
vertex $-1 $116 $172 #
straight-curve $-1 0 -45.430668431199756 13.636548853670524 1 0 0 I I #
edge $-1 $74 -13.636548853670524 $113 13.636548853670524 $71 $173 forward 7 unknown #
edge $-1 $75 -13.636548853670524 $112 13.636548853670524 $72 $174 forward 7 unknown #
point $-1 66.662190618610197 -45.430668431199756 13.636548853670524 #
point $-1 66.662190618610197 45.430668431199756 13.636548853670524 #
face $-1 $-1 $92 $10 $-1 $175 reversed single #
loop $-1 $-1 $144 $77 #
plane-surface $-1 0 266.64876247444079 0 0 -1 0 0 0 -1 forward_v I I I I #
coedge $-1 $176 $142 $145 $177 forward $78 $-1 #
coedge $-1 $148 $80 $81 $136 reversed $46 $-1 #
coedge $-1 $142 $176 $80 $134 reversed $78 $-1 #
edge $-1 $149 -133.32438123722039 $178 133.32438123722039 $133 $179 forward 7 unknown #
coedge $-1 $82 $81 $176 $180 forward $29 $-1 #
edge $-1 $140 -6.7484100619828453 $178 6.7484100619828453 $132 $181 forward 7 unknown #
coedge $-1 $145 $144 $82 $138 reversed $129 $-1 #
edge $-1 $182 -6.7484100619828453 $139 6.7484100619828453 $137 $183 forward 7 unknown #
vertex $-1 $84 $184 #
vertex $-1 $151 $185 #
straight-curve $-1 6.7484100619828453 0 -133.32438123722039 0 -1 0 I I #
coedge $-1 $131 $133 $85 $143 reversed $78 $-1 #
edge $-1 $146 -266.64876247444079 $149 266.64876247444079 $142 $186 forward 7 unknown #
coedge $-1 $137 $86 $91 $152 forward $129 $-1 #
coedge $-1 $86 $137 $131 $177 reversed $129 $-1 #
vertex $-1 $87 $187 #
straight-curve $-1 0 266.64876247444079 133.32438123722039 -1 0 0 I I #
coedge $-1 $88 $132 $90 $151 reversed $46 $-1 #
vertex $-1 $143 $188 #
straight-curve $-1 0 -266.64876247444079 133.32438123722039 1 0 0 I I #
edge $-1 $93 -133.32438123722039 $140 133.32438123722039 $90 $189 forward 7 unknown #
edge $-1 $94 -133.32438123722039 $139 133.32438123722039 $91 $190 forward 7 unknown #
point $-1 6.7484100619828453 -266.64876247444079 133.32438123722039 #
point $-1 6.7484100619828453 266.64876247444079 133.32438123722039 #
coedge $-1 $155 $155 $-1 $191 reversed $96 $-1 #
vertex $-1 $98 $192 #
ellipse-curve $-1 0 0 -1.25 0 0 -1 2.5 0 0 1 I I #
point $-1 2.5 0 -8.4147541734061697 #
plane-surface $-1 66.662190618610197 0 0 -1 0 0 0 0 1 forward_v I I I I #
coedge $-1 $106 $104 $108 $164 reversed $59 $-1 #
edge $-1 $119 -13.636548853670524 $166 13.636548853670524 $118 $193 forward 7 unknown #
vertex $-1 $164 $194 #
straight-curve $-1 -66.662190618610197 -45.430668431199756 0 0 0 -1 I I #
edge $-1 $162 -45.430668431199756 $166 45.430668431199756 $160 $195 forward 7 unknown #
straight-curve $-1 0 -45.430668431199756 -13.636548853670524 -1 0 0 I I #
vertex $-1 $111 $196 #
straight-curve $-1 0 45.430668431199756 -13.636548853670524 1 0 0 I I #
point $-1 66.662190618610197 45.430668431199756 -13.636548853670524 #
point $-1 66.662190618610197 -45.430668431199756 -13.636548853670524 #
straight-curve $-1 -66.662190618610197 0 13.636548853670524 0 -1 0 I I #
point $-1 -66.662190618610197 45.430668431199756 13.636548853670524 #
point $-1 -66.662190618610197 -45.430668431199756 13.636548853670524 #
straight-curve $-1 66.662190618610197 -45.430668431199756 0 0 0 -1 I I #
straight-curve $-1 66.662190618610197 45.430668431199756 0 0 0 -1 I I #
plane-surface $-1 6.7484100619828453 0 0 -1 0 0 0 0 1 forward_v I I I I #
coedge $-1 $133 $131 $135 $180 reversed $78 $-1 #
edge $-1 $146 -133.32438123722039 $182 133.32438123722039 $145 $197 forward 7 unknown #
vertex $-1 $180 $198 #
straight-curve $-1 -6.7484100619828453 -266.64876247444079 0 0 0 -1 I I #
edge $-1 $178 -266.64876247444079 $182 266.64876247444079 $176 $199 forward 7 unknown #
straight-curve $-1 0 -266.64876247444079 -133.32438123722039 -1 0 0 I I #
vertex $-1 $138 $200 #
straight-curve $-1 0 266.64876247444079 -133.32438123722039 1 0 0 I I #
point $-1 6.7484100619828453 266.64876247444079 -133.32438123722039 #
point $-1 6.7484100619828453 -266.64876247444079 -133.32438123722039 #
straight-curve $-1 -6.7484100619828453 0 133.32438123722039 0 -1 0 I I #
point $-1 -6.7484100619828453 266.64876247444079 133.32438123722039 #
point $-1 -6.7484100619828453 -266.64876247444079 133.32438123722039 #
straight-curve $-1 6.7484100619828453 -266.64876247444079 0 0 0 -1 I I #
straight-curve $-1 6.7484100619828453 266.64876247444079 0 0 0 -1 I I #
edge $-1 $201 1 $201 0 $155 $-1 forward 7 unknown #
point $-1 2.5 0 -1.25 #
straight-curve $-1 -66.662190618610197 45.430668431199756 0 0 0 -1 I I #
point $-1 -66.662190618610197 -45.430668431199756 -13.636548853670524 #
straight-curve $-1 -66.662190618610197 0 -13.636548853670524 0 1 0 I I #
point $-1 -66.662190618610197 45.430668431199756 -13.636548853670524 #
straight-curve $-1 -6.7484100619828453 266.64876247444079 0 0 0 -1 I I #
point $-1 -6.7484100619828453 -266.64876247444079 -133.32438123722039 #
straight-curve $-1 -6.7484100619828453 0 -133.32438123722039 0 1 0 I I #
point $-1 -6.7484100619828453 266.64876247444079 -133.32438123722039 #
vertex $-1 $191 $202 #
point $-1 0 0 1.25 #
End-of-ACIS-data 