500 0 5 0           
7 Unknown 11 ACIS 5.0 NT 24 Thu Mar 25 19:46:32 1999 
-1 9.9999999999999995e-007 1e-010 
body $-1 $5 $-1 $6 #
body $-1 $7 $-1 $8 #
body $-1 $9 $-1 $10 #
body $-1 $11 $-1 $12 #
body $-1 $13 $-1 $14 #
lump $-1 $-1 $15 $0 #
transform $-1 1 0 0 0 1 0 0 0 1 63.159886471144745 32.63565995728159 14.718964506384435 1 rotate no_reflect no_shear #
lump $-1 $-1 $16 $1 #
transform $-1 1 0 0 0 1 0 0 0 1 63.159886471144745 32.63565995728159 14.718964506384435 1 rotate no_reflect no_shear #
lump $-1 $-1 $17 $2 #
transform $-1 1 0 0 0 1 0 0 0 1 63.159886471144745 32.63565995728159 14.718964506384435 1 rotate no_reflect no_shear #
lump $-1 $-1 $18 $3 #
transform $-1 1 0 0 0 1 0 0 0 1 63.159886471144745 32.63565995728159 14.718964506384435 1 rotate no_reflect no_shear #
lump $-1 $-1 $19 $4 #
transform $-1 1 0 0 0 1 0 0 0 1 63.159886471144745 32.63565995728159 14.718964506384435 1 rotate no_reflect no_shear #
shell $-1 $-1 $-1 $20 $-1 $5 #
shell $-1 $-1 $-1 $21 $-1 $7 #
shell $-1 $-1 $-1 $22 $-1 $9 #
shell $-1 $-1 $-1 $23 $-1 $11 #
shell $-1 $-1 $-1 $24 $-1 $13 #
face $-1 $25 $26 $15 $-1 $27 forward single #
face $-1 $28 $29 $16 $-1 $30 forward single #
face $-1 $31 $32 $17 $-1 $33 forward single #
face $-1 $34 $35 $18 $-1 $36 reversed single #
face $-1 $37 $38 $19 $-1 $39 reversed single #
face $-1 $40 $41 $15 $-1 $42 reversed single #
loop $-1 $-1 $43 $20 #
plane-surface $-1 0 0 14.718964506384435 0 0 1 1 0 0 forward_v I I I I #
face $-1 $44 $45 $16 $-1 $46 forward single #
loop $-1 $-1 $47 $21 #
plane-surface $-1 0 -26.067013782218893 9.7715560991327202 0 0 1 1 0 0 forward_v I I I I #
face $-1 $48 $49 $17 $-1 $50 forward single #
loop $-1 $-1 $51 $22 #
plane-surface $-1 97.246606331549771 6.1638967324414153 183.92906718590083 0 -1 0 -0.82903758062907751 0 -0.55919289150049634 forward_v I I I I #
face $-1 $52 $53 $18 $-1 $54 reversed single #
loop $-1 $55 $56 $23 #
cone-surface $-1 60.181960676640699 -4.7389035148610716 11.034102419559336 -0.82903758062907751 0 -0.55919289150049634 0.55919289150049634 0 -0.82903758062907751 1 I I 0 1 1 forward I I I I #
face $-1 $57 $58 $19 $-1 $59 reversed single #
loop $-1 $60 $61 $24 #
cone-surface $-1 60.181960676640699 1.8027766335204234 11.034102419559336 -0.82903758062907751 0 -0.55919289150049634 0.55919289150049634 0 -0.82903758062907751 1 I I 0 1 1 forward I I I I #
face $-1 $62 $63 $15 $-1 $64 reversed single #
loop $-1 $-1 $65 $25 #
plane-surface $-1 0 0 -14.718964506384435 0 0 1 1 0 0 forward_v I I I I #
coedge $-1 $66 $67 $68 $69 forward $26 $-1 #
face $-1 $70 $71 $16 $-1 $72 forward single #
loop $-1 $-1 $73 $28 #
plane-surface $-1 0 -19.498367607156197 12.245260302758577 0 -1 0 0 0 -1 forward_v I I I I #
coedge $-1 $74 $75 $76 $77 reversed $29 $-1 #
face $-1 $78 $79 $17 $-1 $80 forward single #
loop $-1 $-1 $81 $31 #
plane-surface $-1 -7.4772326141403056 -1.4680634406703277 113.29194810061583 0.82903758062907751 0 0.55919289150049634 0.55919289150049634 0 -0.82903758062907751 forward_v I I I I #
coedge $-1 $82 $83 $84 $85 reversed $32 $-1 #
face $-1 $86 $87 $18 $-1 $88 forward single #
loop $-1 $89 $90 $34 #
cone-surface $-1 58.863918187426506 -4.7389035148610716 10.145071562713344 -0.82903758062907751 0 -0.55919289150049634 0.27959644575024817 0 -0.41451879031453875 1 I I -0.70710678118654746 0.70710678118654746 0.5 forward I I I I #
loop $-1 $-1 $91 $23 #
coedge $-1 $56 $56 $92 $93 reversed $35 $-1 #
face $-1 $94 $95 $19 $-1 $96 reversed single #
loop $-1 $97 $98 $37 #
cone-surface $-1 58.863918187426506 1.8027766335204234 10.145071562713344 -0.82903758062907751 0 -0.55919289150049634 0.27959644575024817 0 -0.41451879031453875 1 I I -0.70710678118654746 0.70710678118654746 0.5 forward I I I I #
loop $-1 $-1 $99 $24 #
coedge $-1 $61 $61 $100 $101 reversed $38 $-1 #
face $-1 $102 $103 $15 $-1 $104 reversed single #
loop $-1 $-1 $105 $40 #
plane-surface $-1 0 -32.63565995728159 0 0 1 0 0 0 1 forward_v I I I I #
coedge $-1 $106 $107 $108 $109 forward $41 $-1 #
coedge $-1 $110 $43 $111 $112 forward $26 $-1 #
coedge $-1 $43 $110 $113 $114 forward $26 $-1 #
coedge $-1 $115 $116 $43 $69 reversed $117 $-1 #
edge $-1 $118 -32.63565995728159 $119 32.63565995728159 $68 $120 forward 7 unknown #
face $-1 $121 $122 $16 $-1 $123 reversed single #
loop $-1 $-1 $124 $44 #
plane-surface $-1 0 0 14.718964506384435 0 0 1 1 0 0 forward_v I I I I #
coedge $-1 $125 $126 $127 $128 reversed $45 $-1 #
coedge $-1 $129 $47 $126 $130 reversed $29 $-1 #
coedge $-1 $47 $129 $131 $132 reversed $29 $-1 #
coedge $-1 $133 $127 $47 $77 forward $122 $-1 #
edge $-1 $134 6.4648607160467506 $135 19.602153066172143 $76 $136 forward 7 unknown #
face $-1 $137 $138 $17 $-1 $139 forward single #
loop $-1 $-1 $140 $48 #
plane-surface $-1 97.246606331549771 -9.1000236137820707 183.92906718590083 0 1 0 0.82903758062907751 0 0.55919289150049634 forward_v I I I I #
coedge $-1 $141 $142 $143 $144 reversed $49 $-1 #
coedge $-1 $83 $51 $142 $145 forward $32 $-1 #
coedge $-1 $51 $82 $146 $147 reversed $32 $-1 #
coedge $-1 $148 $143 $51 $85 forward $138 $-1 #
edge $-1 $149 10.387779114161063 $150 14.536583305369859 $84 $151 forward 7 unknown #
face $-1 $152 $153 $18 $-1 $154 forward single #
loop $-1 $-1 $155 $52 #
plane-surface $-1 97.246606331549771 6.1638967324414153 183.92906718590083 0 -1 0 -0.82903758062907751 0 -0.55919289150049634 forward_v I I I I #
loop $-1 $-1 $156 $34 #
coedge $-1 $90 $90 $91 $157 forward $53 $-1 #
coedge $-1 $91 $91 $90 $157 reversed $55 $-1 #
coedge $-1 $92 $92 $56 $93 forward $153 $-1 #
edge $-1 $158 0 $158 6.2831853071796004 $92 $159 forward 7 unknown #
face $-1 $160 $161 $19 $-1 $162 reversed single #
loop $-1 $163 $164 $57 #
cone-surface $-1 60.181960676640699 -4.7389035148610716 11.034102419559336 -0.82903758062907751 0 -0.55919289150049634 0.55919289150049634 0 -0.82903758062907751 1 I I 0 1 1 forward I I I I #
loop $-1 $-1 $165 $37 #
coedge $-1 $98 $98 $99 $166 forward $58 $-1 #
coedge $-1 $99 $99 $98 $166 reversed $60 $-1 #
coedge $-1 $100 $100 $61 $101 forward $167 $-1 #
edge $-1 $168 0 $168 6.2831853071796004 $100 $169 forward 7 unknown #
face $-1 $170 $171 $15 $-1 $172 reversed single #
loop $-1 $-1 $173 $62 #
plane-surface $-1 -63.159886471144745 0 0 1 0 0 0 0 -1 forward_v I I I I #
coedge $-1 $174 $113 $175 $176 forward $63 $-1 #
coedge $-1 $177 $65 $174 $178 forward $41 $-1 #
coedge $-1 $65 $177 $179 $180 forward $41 $-1 #
coedge $-1 $116 $115 $65 $109 reversed $117 $-1 #
edge $-1 $181 -32.63565995728159 $182 32.63565995728159 $108 $183 forward 7 unknown #
coedge $-1 $67 $66 $184 $185 forward $26 $-1 #
coedge $-1 $186 $187 $66 $112 reversed $171 $-1 #
edge $-1 $119 -63.159886471144745 $188 63.159886471144745 $111 $189 forward 7 unknown #
coedge $-1 $105 $190 $67 $114 reversed $63 $-1 #
edge $-1 $191 -63.159886471144745 $118 63.159886471144745 $113 $192 forward 7 unknown #
coedge $-1 $108 $68 $190 $193 forward $117 $-1 #
coedge $-1 $68 $108 $186 $194 reversed $117 $-1 #
loop $-1 $-1 $115 $170 #
vertex $-1 $69 $195 #
vertex $-1 $69 $196 #
straight-curve $-1 63.159886471144745 0 14.718964506384435 0 1 0 I I #
face $-1 $197 $198 $16 $-1 $199 reversed single #
loop $-1 $-1 $127 $70 #
plane-surface $-1 63.159886471144745 0 0 -1 0 0 0 0 1 forward_v I I I I #
coedge $-1 $200 $201 $125 $202 forward $71 $-1 #
coedge $-1 $203 $73 $124 $202 reversed $45 $-1 #
coedge $-1 $73 $203 $74 $130 forward $45 $-1 #
coedge $-1 $76 $204 $73 $128 forward $122 $-1 #
edge $-1 $205 -8.5963343550051459 $134 -3.6489259477534315 $127 $206 forward 7 unknown #
coedge $-1 $75 $74 $207 $208 reversed $29 $-1 #
edge $-1 $209 -63.159886471144745 $134 63.159886471144745 $126 $210 forward 7 unknown #
coedge $-1 $211 $212 $75 $132 forward $213 $-1 #
edge $-1 $135 -63.159886471144745 $214 63.159886471144745 $131 $215 forward 7 unknown #
coedge $-1 $216 $76 $212 $217 forward $122 $-1 #
vertex $-1 $77 $218 #
vertex $-1 $217 $219 #
straight-curve $-1 63.159886471144745 -13.033506891109447 9.7715560991327202 0 -1 0 I I #
face $-1 $220 $221 $17 $-1 $222 forward single #
loop $-1 $-1 $223 $78 #
plane-surface $-1 0 0 14.718964506384435 0 0 1 1 0 0 forward_v I I I I #
coedge $-1 $224 $225 $223 $226 reversed $79 $-1 #
coedge $-1 $227 $81 $225 $228 reversed $49 $-1 #
coedge $-1 $81 $227 $82 $145 reversed $49 $-1 #
coedge $-1 $84 $223 $81 $144 forward $138 $-1 #
edge $-1 $229 -8.3659918934469069 $149 6.8979284527765792 $143 $230 forward 7 unknown #
edge $-1 $149 118.90050089096536 $231 126.31977294228955 $82 $232 forward 7 unknown #
coedge $-1 $233 $234 $83 $147 forward $235 $-1 #
edge $-1 $150 77.245569086565979 $231 83.396424438024724 $146 $236 forward 7 unknown #
coedge $-1 $237 $84 $234 $238 forward $138 $-1 #
vertex $-1 $144 $239 #
vertex $-1 $238 $240 #
straight-curve $-1 48.623303165774885 6.1638967324414153 14.718964506384438 1 0 0 I I #
face $-1 $241 $242 $18 $-1 $243 forward single #
loop $-1 $244 $92 $86 #
plane-surface $-1 -7.4772326141403056 -1.4680634406703277 113.29194810061583 0.82903758062907751 0 0.55919289150049634 0.55919289150049634 0 -0.82903758062907751 forward_v I I I I #
coedge $-1 $245 $246 $247 $248 reversed $87 $-1 #
coedge $-1 $156 $156 $-1 $249 forward $89 $-1 #
edge $-1 $250 0 $250 6.2831853071796004 $90 $251 forward 7 unknown #
vertex $-1 $93 $252 #
ellipse-curve $-1 61.085484375540346 -4.7389035148610716 11.643536830655073 -0.82903758062907751 0 -0.55919289150049634 0.55919289150049634 0 -0.82903758062907751 1 I I #
face $-1 $253 $254 $19 $-1 $255 forward single #
loop $-1 $256 $257 $94 #
cone-surface $-1 58.863918187426506 -4.7389035148610716 10.145071562713344 -0.82903758062907751 0 -0.55919289150049634 0.27959644575024817 0 -0.41451879031453875 1 I I -0.70710678118654746 0.70710678118654746 0.5 forward I I I I #
loop $-1 $-1 $258 $57 #
coedge $-1 $164 $164 $259 $260 reversed $95 $-1 #
coedge $-1 $165 $165 $-1 $261 forward $97 $-1 #
edge $-1 $262 0 $262 6.2831853071796004 $98 $263 forward 7 unknown #
loop $-1 $264 $100 $253 #
vertex $-1 $101 $265 #
ellipse-curve $-1 61.085484375540346 1.8027766335204234 11.643536830655073 -0.82903758062907751 0 -0.55919289150049634 0.55919289150049634 0 -0.82903758062907751 1 I I #
face $-1 $-1 $117 $15 $-1 $266 reversed single #
loop $-1 $-1 $186 $102 #
plane-surface $-1 0 32.63565995728159 0 0 -1 0 0 0 -1 forward_v I I I I #
coedge $-1 $267 $184 $187 $268 forward $103 $-1 #
coedge $-1 $190 $105 $106 $178 reversed $63 $-1 #
coedge $-1 $184 $267 $105 $176 reversed $103 $-1 #
edge $-1 $191 -14.718964506384435 $269 14.718964506384435 $175 $270 forward 7 unknown #
coedge $-1 $107 $106 $267 $271 forward $41 $-1 #
edge $-1 $182 -63.159886471144745 $269 63.159886471144745 $174 $272 forward 7 unknown #
coedge $-1 $187 $186 $107 $180 reversed $171 $-1 #
edge $-1 $273 -63.159886471144745 $181 63.159886471144745 $179 $274 forward 7 unknown #
vertex $-1 $109 $275 #
vertex $-1 $193 $276 #
straight-curve $-1 63.159886471144745 0 -14.718964506384435 0 -1 0 I I #
coedge $-1 $173 $175 $110 $185 reversed $103 $-1 #
edge $-1 $188 -32.63565995728159 $191 32.63565995728159 $184 $277 forward 7 unknown #
coedge $-1 $179 $111 $116 $194 forward $171 $-1 #
coedge $-1 $111 $179 $173 $268 reversed $171 $-1 #
vertex $-1 $112 $278 #
straight-curve $-1 0 32.63565995728159 14.718964506384435 -1 0 0 I I #
coedge $-1 $113 $174 $115 $193 reversed $63 $-1 #
vertex $-1 $185 $279 #
straight-curve $-1 0 -32.63565995728159 14.718964506384435 1 0 0 I I #
edge $-1 $118 -14.718964506384435 $182 14.718964506384435 $115 $280 forward 7 unknown #
edge $-1 $119 -14.718964506384435 $181 14.718964506384435 $116 $281 forward 7 unknown #
point $-1 63.159886471144745 -32.63565995728159 14.718964506384435 #
point $-1 63.159886471144745 32.63565995728159 14.718964506384435 #
face $-1 $282 $213 $16 $-1 $283 reversed single #
loop $-1 $-1 $284 $121 #
plane-surface $-1 0 0 -14.718964506384435 0 0 1 1 0 0 forward_v I I I I #
coedge $-1 $285 $124 $204 $286 forward $71 $-1 #
coedge $-1 $124 $285 $287 $288 forward $71 $-1 #
edge $-1 $289 -63.159886471144745 $205 63.159886471144745 $124 $290 forward 7 unknown #
coedge $-1 $126 $125 $291 $292 reversed $45 $-1 #
coedge $-1 $127 $293 $200 $286 reversed $122 $-1 #
vertex $-1 $286 $294 #
straight-curve $-1 63.159886471144745 -19.498367607156197 6.1226301513792887 0 0 -1 I I #
coedge $-1 $291 $295 $129 $208 forward $296 $-1 #
edge $-1 $214 -19.602153066172143 $209 -6.4648607160467506 $207 $297 forward 7 unknown #
vertex $-1 $208 $298 #
straight-curve $-1 0 -19.498367607156197 9.7715560991327202 1 0 0 I I #
coedge $-1 $299 $131 $295 $300 forward $213 $-1 #
coedge $-1 $131 $299 $133 $217 reversed $213 $-1 #
loop $-1 $-1 $131 $197 #
vertex $-1 $300 $301 #
straight-curve $-1 0 -32.63565995728159 9.7715560991327202 -1 0 0 I I #
coedge $-1 $293 $133 $284 $302 reversed $122 $-1 #
edge $-1 $135 -9.7715560991327202 $303 14.718964506384435 $133 $304 forward 7 unknown #
point $-1 63.159886471144745 -19.498367607156197 9.7715560991327202 #
point $-1 63.159886471144745 -32.63565995728159 9.7715560991327202 #
face $-1 $305 $306 $17 $-1 $307 forward single #
loop $-1 $-1 $308 $137 #
plane-surface $-1 0 -26.067013782218893 9.7715560991327202 0 0 1 1 0 0 forward_v I I I I #
coedge $-1 $143 $309 $140 $226 forward $138 $-1 #
coedge $-1 $225 $140 $310 $311 reversed $79 $-1 #
coedge $-1 $140 $224 $141 $228 forward $79 $-1 #
edge $-1 $312 -14.536583305369859 $229 -10.387779114161063 $223 $313 forward 7 unknown #
coedge $-1 $142 $141 $233 $314 reversed $49 $-1 #
edge $-1 $315 -126.31977294228955 $229 -118.90050089096536 $225 $316 forward 7 unknown #
vertex $-1 $144 $317 #
straight-curve $-1 59.011082279935941 -0.73403172033516384 14.718964506384438 0 1 0 I I #
vertex $-1 $314 $318 #
straight-curve $-1 -7.4772326141403056 6.1638967324414153 113.29194810061583 0.55919289150049634 0 -0.82903758062907751 I I #
coedge $-1 $310 $146 $227 $314 forward $235 $-1 #
coedge $-1 $146 $319 $148 $238 reversed $235 $-1 #
loop $-1 $-1 $310 $305 #
straight-curve $-1 63.159886471144745 6.1638967324414153 91.964533592950417 0 0 -1 I I #
coedge $-1 $320 $148 $321 $322 forward $138 $-1 #
edge $-1 $150 6.1638967324414153 $323 32.63565995728159 $234 $324 forward 7 unknown #
point $-1 59.011082279935948 6.1638967324414153 14.718964506384438 #
point $-1 63.159886471144745 6.1638967324414153 14.718964506384435 #
face $-1 $325 $326 $18 $-1 $327 forward single #
loop $-1 $-1 $328 $152 #
plane-surface $-1 97.246606331549771 -9.1000236137820707 183.92906718590083 0 1 0 0.82903758062907751 0 0.55919289150049634 forward_v I I I I #
loop $-1 $-1 $329 $86 #
coedge $-1 $246 $155 $330 $331 forward $87 $-1 #
coedge $-1 $155 $245 $332 $333 reversed $87 $-1 #
coedge $-1 $334 $335 $155 $248 forward $326 $-1 #
edge $-1 $336 10.387779114161063 $337 14.536583305369859 $247 $338 forward 7 unknown #
edge $-1 $339 1 $339 0 $156 $-1 forward 7 unknown #
vertex $-1 $157 $340 #
ellipse-curve $-1 59.278436977741045 -4.7389035148610716 10.424668008463593 0.82903758062907751 0 0.55919289150049634 0.55919289150049634 0 -0.82903758062907751 1 I I #
point $-1 61.644677267040855 -4.7389035148610716 10.814499250026003 #
face $-1 $341 $167 $19 $-1 $342 forward single #
loop $-1 $-1 $343 $160 #
plane-surface $-1 97.246606331549771 6.1638967324414153 183.92906718590083 0 -1 0 -0.82903758062907751 0 -0.55919289150049634 forward_v I I I I #
loop $-1 $-1 $344 $94 #
coedge $-1 $257 $257 $258 $345 forward $161 $-1 #
coedge $-1 $258 $258 $257 $345 reversed $163 $-1 #
coedge $-1 $259 $259 $164 $260 forward $264 $-1 #
edge $-1 $346 0 $346 6.2831853071796004 $259 $347 forward 7 unknown #
edge $-1 $348 1 $348 0 $165 $-1 forward 7 unknown #
vertex $-1 $166 $349 #
ellipse-curve $-1 59.278436977741045 1.8027766335204234 10.424668008463593 0.82903758062907751 0 0.55919289150049634 0.55919289150049634 0 -0.82903758062907751 1 I I #
loop $-1 $350 $259 $253 #
point $-1 61.644677267040855 1.8027766335204234 10.814499250026003 #
plane-surface $-1 63.159886471144745 0 0 -1 0 0 0 0 1 forward_v I I I I #
coedge $-1 $175 $173 $177 $271 reversed $103 $-1 #
edge $-1 $188 -14.718964506384435 $273 14.718964506384435 $187 $351 forward 7 unknown #
vertex $-1 $271 $352 #
straight-curve $-1 -63.159886471144745 -32.63565995728159 0 0 0 -1 I I #
edge $-1 $269 -32.63565995728159 $273 32.63565995728159 $267 $353 forward 7 unknown #
straight-curve $-1 0 -32.63565995728159 -14.718964506384435 -1 0 0 I I #
vertex $-1 $180 $354 #
straight-curve $-1 0 32.63565995728159 -14.718964506384435 1 0 0 I I #
point $-1 63.159886471144745 32.63565995728159 -14.718964506384435 #
point $-1 63.159886471144745 -32.63565995728159 -14.718964506384435 #
straight-curve $-1 -63.159886471144745 0 14.718964506384435 0 -1 0 I I #
point $-1 -63.159886471144745 32.63565995728159 14.718964506384435 #
point $-1 -63.159886471144745 -32.63565995728159 14.718964506384435 #
straight-curve $-1 63.159886471144745 -32.63565995728159 0 0 0 -1 I I #
straight-curve $-1 63.159886471144745 32.63565995728159 0 0 0 -1 I I #
face $-1 $355 $296 $16 $-1 $356 reversed single #
plane-surface $-1 0 -32.63565995728159 0 0 1 0 0 0 1 forward_v I I I I #
coedge $-1 $357 $358 $216 $302 forward $198 $-1 #
coedge $-1 $201 $200 $359 $360 forward $71 $-1 #
edge $-1 $205 -19.498367607156197 $361 32.63565995728159 $204 $362 forward 7 unknown #
coedge $-1 $363 $291 $201 $288 reversed $296 $-1 #
edge $-1 $364 -32.63565995728159 $289 19.498367607156197 $287 $365 forward 7 unknown #
vertex $-1 $292 $366 #
straight-curve $-1 0 -19.498367607156197 14.718964506384435 1 0 0 I I #
coedge $-1 $287 $207 $203 $292 forward $296 $-1 #
edge $-1 $209 3.6489259477534315 $289 8.5963343550051459 $291 $367 forward 7 unknown #
coedge $-1 $204 $216 $368 $369 reversed $122 $-1 #
point $-1 63.159886471144745 -19.498367607156197 14.718964506384435 #
coedge $-1 $207 $370 $211 $300 reversed $296 $-1 #
loop $-1 $-1 $291 $282 #
straight-curve $-1 -63.159886471144745 -13.033506891109447 9.7715560991327202 0 1 0 I I #
point $-1 -63.159886471144745 -19.498367607156197 9.7715560991327202 #
coedge $-1 $212 $211 $357 $371 reversed $213 $-1 #
edge $-1 $214 -9.7715560991327202 $372 14.718964506384435 $295 $373 forward 7 unknown #
point $-1 -63.159886471144745 -32.63565995728159 9.7715560991327202 #
edge $-1 $374 -32.63565995728159 $303 32.63565995728159 $216 $375 forward 7 unknown #
vertex $-1 $217 $376 #
straight-curve $-1 63.159886471144745 -32.63565995728159 0 0 0 -1 I I #
face $-1 $377 $235 $17 $-1 $378 reversed single #
loop $-1 $-1 $379 $220 #
plane-surface $-1 0 -19.498367607156197 12.245260302758577 0 -1 0 0 0 -1 forward_v I I I I #
coedge $-1 $380 $381 $382 $383 reversed $221 $-1 #
coedge $-1 $223 $384 $385 $386 forward $138 $-1 #
coedge $-1 $385 $233 $224 $311 forward $235 $-1 #
edge $-1 $315 -83.396424438024724 $312 -77.245569086565979 $310 $387 forward 7 unknown #
vertex $-1 $311 $388 #
straight-curve $-1 48.623303165774885 -9.1000236137820707 14.718964506384438 -1 0 0 I I #
edge $-1 $231 -6.8979284527765792 $315 8.3659918934469069 $233 $389 forward 7 unknown #
vertex $-1 $314 $390 #
straight-curve $-1 -7.4772326141403056 -9.1000236137820707 113.29194810061583 -0.55919289150049634 0 0.82903758062907751 I I #
point $-1 59.011082279935948 -9.1000236137820707 14.718964506384438 #
point $-1 63.159886471144745 6.1638967324414153 8.5681091549256934 #
coedge $-1 $234 $391 $392 $393 reversed $235 $-1 #
coedge $-1 $384 $237 $394 $395 forward $138 $-1 #
coedge $-1 $392 $396 $237 $322 reversed $397 $-1 #
edge $-1 $323 -63.159886471144745 $398 63.159886471144745 $321 $399 forward 7 unknown #
vertex $-1 $238 $400 #
straight-curve $-1 63.159886471144745 0 14.718964506384435 0 1 0 I I #
face $-1 $401 $402 $18 $-1 $403 forward single #
loop $-1 $-1 $404 $241 #
plane-surface $-1 0 0 14.718964506384435 0 0 1 1 0 0 forward_v I I I I #
coedge $-1 $405 $406 $404 $407 reversed $242 $-1 #
coedge $-1 $408 $330 $335 $409 reversed $244 $-1 #
coedge $-1 $329 $410 $245 $331 reversed $244 $-1 #
edge $-1 $336 118.90050089096536 $411 126.31977294228955 $245 $412 forward 7 unknown #
coedge $-1 $413 $414 $246 $333 forward $415 $-1 #
edge $-1 $337 77.245569086565979 $411 83.396424438024724 $332 $416 forward 7 unknown #
coedge $-1 $417 $247 $414 $418 forward $326 $-1 #
coedge $-1 $247 $404 $329 $409 forward $326 $-1 #
vertex $-1 $409 $419 #
vertex $-1 $418 $420 #
straight-curve $-1 48.623303165774885 6.1638967324414153 14.718964506384438 1 0 0 I I #
vertex $-1 $249 $421 #
point $-1 59.837629869241539 -4.7389035148610716 9.5956304278345144 #
face $-1 $422 $423 $19 $-1 $424 forward single #
plane-surface $-1 -7.4772326141403056 -1.4680634406703277 113.29194810061583 0.82903758062907751 0 0.55919289150049634 0.55919289150049634 0 -0.82903758062907751 forward_v I I I I #
coedge $-1 $425 $426 $427 $428 reversed $254 $-1 #
coedge $-1 $344 $344 $-1 $429 forward $256 $-1 #
edge $-1 $430 0 $430 6.2831853071796004 $257 $431 forward 7 unknown #
vertex $-1 $260 $432 #
ellipse-curve $-1 61.085484375540346 -4.7389035148610716 11.643536830655073 -0.82903758062907751 0 -0.55919289150049634 0.55919289150049634 0 -0.82903758062907751 1 I I #
vertex $-1 $261 $433 #
point $-1 59.837629869241539 1.8027766335204234 9.5956304278345144 #
loop $-1 $-1 $434 $253 #
straight-curve $-1 -63.159886471144745 32.63565995728159 0 0 0 -1 I I #
point $-1 -63.159886471144745 -32.63565995728159 -14.718964506384435 #
straight-curve $-1 -63.159886471144745 0 -14.718964506384435 0 1 0 I I #
point $-1 -63.159886471144745 32.63565995728159 -14.718964506384435 #
face $-1 $-1 $435 $16 $-1 $436 reversed single #
plane-surface $-1 -63.159886471144745 0 0 1 0 0 0 0 -1 forward_v I I I I #
coedge $-1 $437 $284 $299 $371 forward $198 $-1 #
coedge $-1 $284 $437 $438 $439 forward $198 $-1 #
coedge $-1 $368 $440 $285 $360 reversed $435 $-1 #
edge $-1 $361 -63.159886471144745 $364 63.159886471144745 $359 $441 forward 7 unknown #
vertex $-1 $286 $442 #
straight-curve $-1 63.159886471144745 0 14.718964506384435 0 1 0 I I #
coedge $-1 $370 $287 $440 $443 forward $296 $-1 #
vertex $-1 $360 $444 #
straight-curve $-1 -63.159886471144745 0 14.718964506384435 0 -1 0 I I #
point $-1 -63.159886471144745 -19.498367607156197 14.718964506384435 #
straight-curve $-1 -63.159886471144745 -19.498367607156197 6.1226301513792887 0 0 1 I I #
coedge $-1 $438 $359 $293 $369 forward $435 $-1 #
edge $-1 $361 -14.718964506384435 $374 14.718964506384435 $293 $445 forward 7 unknown #
coedge $-1 $295 $363 $437 $446 reversed $296 $-1 #
edge $-1 $303 -63.159886471144745 $372 63.159886471144745 $299 $447 forward 7 unknown #
vertex $-1 $446 $448 #
straight-curve $-1 -63.159886471144745 -32.63565995728159 0 0 0 -1 I I #
vertex $-1 $302 $449 #
straight-curve $-1 63.159886471144745 0 -14.718964506384435 0 -1 0 I I #
point $-1 63.159886471144745 -32.63565995728159 -14.718964506384435 #
face $-1 $450 $451 $17 $-1 $452 reversed single #
plane-surface $-1 63.159886471144745 0 0 -1 0 0 0 0 1 forward_v I I I I #
coedge $-1 $453 $454 $455 $456 reversed $306 $-1 #
coedge $-1 $457 $308 $454 $458 reversed $221 $-1 #
coedge $-1 $308 $457 $459 $460 reversed $221 $-1 #
coedge $-1 $461 $455 $308 $383 forward $235 $-1 #
edge $-1 $462 6.4648607160467506 $463 19.602153066172143 $382 $464 forward 7 unknown #
coedge $-1 $309 $320 $453 $465 forward $138 $-1 #
coedge $-1 $455 $310 $309 $386 reversed $235 $-1 #
edge $-1 $466 -19.498367607156197 $312 -9.1000236137820707 $385 $324 forward 7 unknown #
straight-curve $-1 63.159886471144745 -9.1000236137820707 91.964533592950417 0 0 1 I I #
point $-1 63.159886471144745 -9.1000236137820707 14.718964506384435 #
straight-curve $-1 63.159886471144745 -0.73403172033516384 8.5681091549257005 0 -1 0 I I #
point $-1 63.159886471144745 -9.1000236137820707 8.5681091549256934 #
coedge $-1 $319 $461 $467 $468 reversed $235 $-1 #
coedge $-1 $469 $321 $319 $393 forward $397 $-1 #
edge $-1 $323 -14.718964506384435 $470 14.718964506384435 $319 $471 forward 7 unknown #
coedge $-1 $472 $473 $320 $395 reversed $474 $-1 #
edge $-1 $398 -32.63565995728159 $475 19.498367607156197 $394 $476 forward 7 unknown #
coedge $-1 $321 $469 $472 $477 reversed $397 $-1 #
loop $-1 $-1 $392 $478 #
vertex $-1 $322 $479 #
straight-curve $-1 0 32.63565995728159 14.718964506384435 -1 0 0 I I #
point $-1 63.159886471144745 32.63565995728159 14.718964506384435 #
face $-1 $480 $481 $18 $-1 $482 forward single #
loop $-1 $-1 $483 $325 #
plane-surface $-1 0 -26.067013782218893 9.7715560991327202 0 0 1 1 0 0 forward_v I I I I #
coedge $-1 $335 $484 $328 $407 forward $326 $-1 #
coedge $-1 $406 $328 $485 $486 reversed $242 $-1 #
coedge $-1 $328 $405 $408 $487 forward $242 $-1 #
edge $-1 $488 -14.536583305369859 $489 -10.387779114161063 $404 $490 forward 7 unknown #
coedge $-1 $410 $329 $406 $487 reversed $244 $-1 #
edge $-1 $489 -8.3659918934469069 $336 6.8979284527765792 $335 $491 forward 7 unknown #
coedge $-1 $330 $408 $413 $492 reversed $244 $-1 #
vertex $-1 $492 $493 #
straight-curve $-1 -7.4772326141403056 6.1638967324414153 113.29194810061583 0.55919289150049634 0 -0.82903758062907751 I I #
coedge $-1 $485 $332 $410 $492 forward $415 $-1 #
coedge $-1 $332 $494 $334 $418 reversed $415 $-1 #
loop $-1 $-1 $485 $480 #
straight-curve $-1 63.159886471144745 6.1638967324414153 91.964533592950417 0 0 -1 I I #
coedge $-1 $495 $334 $496 $497 forward $326 $-1 #
edge $-1 $337 6.1638967324414153 $498 32.63565995728159 $414 $499 forward 7 unknown #
point $-1 59.011082279935948 6.1638967324414153 14.718964506384438 #
point $-1 63.159886471144745 6.1638967324414153 14.718964506384435 #
point $-1 58.449399397111968 -4.7389035148610716 9.8654751169630952 #
face $-1 $500 $501 $19 $-1 $502 forward single #
loop $-1 $-1 $503 $341 #
plane-surface $-1 97.246606331549771 -9.1000236137820707 183.92906718590083 0 1 0 0.82903758062907751 0 0.55919289150049634 forward_v I I I I #
coedge $-1 $426 $343 $504 $505 forward $254 $-1 #
coedge $-1 $343 $425 $506 $507 reversed $254 $-1 #
coedge $-1 $508 $509 $343 $428 forward $501 $-1 #
edge $-1 $510 10.387779114161063 $511 14.536583305369859 $427 $512 forward 7 unknown #
edge $-1 $513 1 $513 0 $344 $-1 forward 7 unknown #
vertex $-1 $345 $514 #
ellipse-curve $-1 59.278436977741045 -4.7389035148610716 10.424668008463593 0.82903758062907751 0 0.55919289150049634 0.55919289150049634 0 -0.82903758062907751 1 I I #
point $-1 61.644677267040855 -4.7389035148610716 10.814499250026003 #
point $-1 58.449399397111968 1.8027766335204234 9.8654751169630952 #
coedge $-1 $515 $504 $509 $516 reversed $350 $-1 #
loop $-1 $-1 $368 $355 #
plane-surface $-1 0 32.63565995728159 0 0 -1 0 0 0 -1 forward_v I I I I #
coedge $-1 $358 $357 $370 $446 forward $198 $-1 #
coedge $-1 $440 $368 $358 $439 reversed $435 $-1 #
edge $-1 $517 -63.159886471144745 $374 63.159886471144745 $438 $518 forward 7 unknown #
coedge $-1 $359 $438 $363 $443 reversed $435 $-1 #
straight-curve $-1 0 32.63565995728159 14.718964506384435 -1 0 0 I I #
point $-1 63.159886471144745 32.63565995728159 14.718964506384435 #
edge $-1 $364 -14.718964506384435 $517 14.718964506384435 $440 $519 forward 7 unknown #
point $-1 -63.159886471144745 32.63565995728159 14.718964506384435 #
straight-curve $-1 63.159886471144745 32.63565995728159 0 0 0 -1 I I #
edge $-1 $372 -32.63565995728159 $517 32.63565995728159 $370 $520 forward 7 unknown #
straight-curve $-1 0 -32.63565995728159 -14.718964506384435 -1 0 0 I I #
point $-1 -63.159886471144745 -32.63565995728159 -14.718964506384435 #
point $-1 63.159886471144745 32.63565995728159 -14.718964506384435 #
face $-1 $521 $522 $17 $-1 $523 reversed single #
loop $-1 $-1 $467 $377 #
plane-surface $-1 0 0 -14.718964506384435 0 0 1 1 0 0 forward_v I I I I #
coedge $-1 $524 $379 $384 $465 reversed $306 $-1 #
coedge $-1 $379 $524 $380 $458 forward $306 $-1 #
coedge $-1 $382 $385 $379 $456 forward $235 $-1 #
edge $-1 $466 -8.5963343550051459 $462 -3.6489259477534315 $455 $525 forward 7 unknown #
coedge $-1 $381 $380 $526 $527 reversed $221 $-1 #
edge $-1 $528 -63.159886471144745 $462 63.159886471144745 $454 $529 forward 7 unknown #
coedge $-1 $530 $531 $381 $460 forward $522 $-1 #
edge $-1 $463 -63.159886471144745 $532 63.159886471144745 $459 $533 forward 7 unknown #
coedge $-1 $391 $382 $531 $534 forward $235 $-1 #
vertex $-1 $383 $535 #
vertex $-1 $534 $536 #
straight-curve $-1 63.159886471144745 -13.033506891109447 9.7715560991327202 0 -1 0 I I #
edge $-1 $475 -63.159886471144745 $466 63.159886471144745 $384 $537 forward 7 unknown #
vertex $-1 $386 $538 #
coedge $-1 $539 $540 $391 $468 forward $451 $-1 #
edge $-1 $470 -32.63565995728159 $541 32.63565995728159 $391 $542 forward 7 unknown #
coedge $-1 $396 $392 $540 $543 reversed $397 $-1 #
vertex $-1 $468 $544 #
straight-curve $-1 63.159886471144745 32.63565995728159 0 0 0 -1 I I #
coedge $-1 $545 $394 $396 $477 forward $474 $-1 #
coedge $-1 $394 $526 $524 $546 forward $474 $-1 #
loop $-1 $-1 $473 $521 #
vertex $-1 $546 $547 #
straight-curve $-1 -63.159886471144745 0 14.718964506384435 0 -1 0 I I #
edge $-1 $398 -14.718964506384435 $548 14.718964506384435 $396 $549 forward 7 unknown #
face $-1 $-1 $397 $17 $-1 $550 reversed single #
point $-1 -63.159886471144745 32.63565995728159 14.718964506384435 #
face $-1 $551 $415 $18 $-1 $552 reversed single #
loop $-1 $-1 $553 $401 #
plane-surface $-1 0 -19.498367607156197 12.245260302758577 0 -1 0 0 0 -1 forward_v I I I I #
coedge $-1 $554 $555 $556 $557 reversed $402 $-1 #
coedge $-1 $404 $558 $559 $560 forward $326 $-1 #
coedge $-1 $559 $413 $405 $486 forward $415 $-1 #
edge $-1 $561 -83.396424438024724 $488 -77.245569086565979 $485 $562 forward 7 unknown #
edge $-1 $561 -126.31977294228955 $489 -118.90050089096536 $406 $563 forward 7 unknown #
vertex $-1 $486 $564 #
vertex $-1 $409 $565 #
straight-curve $-1 48.623303165774885 -9.1000236137820707 14.718964506384438 -1 0 0 I I #
straight-curve $-1 59.011082279935941 -0.73403172033516384 14.718964506384438 0 1 0 I I #
edge $-1 $411 -6.8979284527765792 $561 8.3659918934469069 $413 $566 forward 7 unknown #
point $-1 63.159886471144745 6.1638967324414153 8.5681091549256934 #
coedge $-1 $414 $567 $568 $569 reversed $415 $-1 #
coedge $-1 $558 $417 $570 $571 forward $326 $-1 #
coedge $-1 $568 $572 $417 $497 reversed $573 $-1 #
edge $-1 $498 -63.159886471144745 $574 63.159886471144745 $496 $575 forward 7 unknown #
vertex $-1 $418 $576 #
straight-curve $-1 63.159886471144745 0 14.718964506384435 0 1 0 I I #
face $-1 $577 $578 $19 $-1 $579 forward single #
loop $-1 $-1 $580 $422 #
plane-surface $-1 0 0 14.718964506384435 0 0 1 1 0 0 forward_v I I I I #
coedge $-1 $581 $582 $580 $583 reversed $423 $-1 #
coedge $-1 $434 $584 $425 $505 reversed $350 $-1 #
edge $-1 $510 118.90050089096536 $585 126.31977294228955 $425 $586 forward 7 unknown #
coedge $-1 $587 $588 $426 $507 forward $589 $-1 #
edge $-1 $511 77.245569086565979 $585 83.396424438024724 $506 $590 forward 7 unknown #
coedge $-1 $591 $427 $588 $592 forward $501 $-1 #
coedge $-1 $427 $580 $434 $516 forward $501 $-1 #
vertex $-1 $516 $593 #
vertex $-1 $592 $594 #
straight-curve $-1 48.623303165774885 6.1638967324414153 14.718964506384438 1 0 0 I I #
vertex $-1 $429 $595 #
point $-1 59.837629869241539 -4.7389035148610716 9.5956304278345144 #
coedge $-1 $584 $434 $582 $596 reversed $350 $-1 #
edge $-1 $597 -8.3659918934469069 $510 6.8979284527765792 $509 $598 forward 7 unknown #
vertex $-1 $439 $599 #
straight-curve $-1 0 32.63565995728159 -14.718964506384435 1 0 0 I I #
straight-curve $-1 -63.159886471144745 32.63565995728159 0 0 0 -1 I I #
straight-curve $-1 -63.159886471144745 0 -14.718964506384435 0 1 0 I I #
face $-1 $478 $474 $17 $-1 $600 reversed single #
loop $-1 $-1 $459 $450 #
plane-surface $-1 0 -32.63565995728159 0 0 1 0 0 0 1 forward_v I I I I #
coedge $-1 $454 $453 $473 $546 reversed $306 $-1 #
straight-curve $-1 63.159886471144745 -19.498367607156197 6.1226301513792887 0 0 -1 I I #
coedge $-1 $473 $601 $457 $527 forward $474 $-1 #
edge $-1 $532 -19.602153066172143 $528 -6.4648607160467506 $526 $602 forward 7 unknown #
vertex $-1 $527 $603 #
straight-curve $-1 0 -19.498367607156197 9.7715560991327202 1 0 0 I I #
coedge $-1 $604 $459 $601 $605 forward $522 $-1 #
coedge $-1 $459 $604 $461 $534 reversed $522 $-1 #
vertex $-1 $605 $606 #
straight-curve $-1 0 -32.63565995728159 9.7715560991327202 -1 0 0 I I #
edge $-1 $463 -9.7715560991327202 $541 14.718964506384435 $461 $607 forward 7 unknown #
point $-1 63.159886471144745 -19.498367607156197 9.7715560991327202 #
point $-1 63.159886471144745 -32.63565995728159 9.7715560991327202 #
straight-curve $-1 0 -19.498367607156197 14.718964506384435 1 0 0 I I #
point $-1 63.159886471144745 -19.498367607156197 14.718964506384435 #
coedge $-1 $608 $467 $604 $609 forward $451 $-1 #
coedge $-1 $467 $608 $469 $543 forward $451 $-1 #
vertex $-1 $534 $610 #
straight-curve $-1 63.159886471144745 0 -14.718964506384435 0 -1 0 I I #
edge $-1 $548 -63.159886471144745 $470 63.159886471144745 $469 $611 forward 7 unknown #
point $-1 63.159886471144745 32.63565995728159 -14.718964506384435 #
coedge $-1 $601 $472 $608 $612 reversed $474 $-1 #
edge $-1 $528 3.6489259477534315 $475 8.5963343550051459 $473 $613 forward 7 unknown #
point $-1 -63.159886471144745 -19.498367607156197 14.718964506384435 #
vertex $-1 $543 $614 #
straight-curve $-1 -63.159886471144745 32.63565995728159 0 0 0 -1 I I #
plane-surface $-1 0 32.63565995728159 0 0 -1 0 0 0 -1 forward_v I I I I #
face $-1 $615 $616 $18 $-1 $617 reversed single #
plane-surface $-1 63.159886471144745 0 0 -1 0 0 0 0 1 forward_v I I I I #
coedge $-1 $618 $619 $620 $621 reversed $481 $-1 #
coedge $-1 $622 $483 $619 $623 reversed $402 $-1 #
coedge $-1 $483 $622 $624 $625 reversed $402 $-1 #
coedge $-1 $626 $620 $483 $557 forward $415 $-1 #
edge $-1 $627 6.4648607160467506 $628 19.602153066172143 $556 $629 forward 7 unknown #
coedge $-1 $484 $495 $618 $630 forward $326 $-1 #
coedge $-1 $620 $485 $484 $560 reversed $415 $-1 #
edge $-1 $631 -19.498367607156197 $488 -9.1000236137820707 $559 $499 forward 7 unknown #
vertex $-1 $492 $632 #
straight-curve $-1 63.159886471144745 -9.1000236137820707 91.964533592950417 0 0 1 I I #
straight-curve $-1 -7.4772326141403056 -9.1000236137820707 113.29194810061583 -0.55919289150049634 0 0.82903758062907751 I I #
point $-1 63.159886471144745 -9.1000236137820707 14.718964506384435 #
point $-1 59.011082279935948 -9.1000236137820707 14.718964506384438 #
straight-curve $-1 63.159886471144745 -0.73403172033516384 8.5681091549257005 0 -1 0 I I #
coedge $-1 $494 $626 $633 $634 reversed $415 $-1 #
coedge $-1 $635 $496 $494 $569 forward $573 $-1 #
edge $-1 $498 -14.718964506384435 $636 14.718964506384435 $494 $637 forward 7 unknown #
coedge $-1 $638 $639 $495 $571 reversed $640 $-1 #
edge $-1 $574 -32.63565995728159 $641 19.498367607156197 $570 $642 forward 7 unknown #
coedge $-1 $496 $635 $638 $643 reversed $573 $-1 #
loop $-1 $-1 $568 $644 #
vertex $-1 $497 $645 #
straight-curve $-1 0 32.63565995728159 14.718964506384435 -1 0 0 I I #
point $-1 63.159886471144745 32.63565995728159 14.718964506384435 #
face $-1 $646 $647 $19 $-1 $648 forward single #
loop $-1 $-1 $649 $500 #
plane-surface $-1 0 -26.067013782218893 9.7715560991327202 0 0 1 1 0 0 forward_v I I I I #
coedge $-1 $509 $650 $503 $583 forward $501 $-1 #
coedge $-1 $582 $503 $651 $652 reversed $423 $-1 #
coedge $-1 $503 $581 $515 $596 forward $423 $-1 #
edge $-1 $653 -14.536583305369859 $597 -10.387779114161063 $580 $654 forward 7 unknown #
coedge $-1 $504 $515 $587 $655 reversed $350 $-1 #
vertex $-1 $655 $656 #
straight-curve $-1 -7.4772326141403056 6.1638967324414153 113.29194810061583 0.55919289150049634 0 -0.82903758062907751 I I #
coedge $-1 $651 $506 $584 $655 forward $589 $-1 #
coedge $-1 $506 $657 $508 $592 reversed $589 $-1 #
loop $-1 $-1 $651 $646 #
straight-curve $-1 63.159886471144745 6.1638967324414153 91.964533592950417 0 0 -1 I I #
coedge $-1 $658 $508 $659 $660 forward $501 $-1 #
edge $-1 $511 6.1638967324414153 $661 32.63565995728159 $588 $662 forward 7 unknown #
point $-1 59.011082279935948 6.1638967324414153 14.718964506384438 #
point $-1 63.159886471144745 6.1638967324414153 14.718964506384435 #
point $-1 58.449399397111968 -4.7389035148610716 9.8654751169630952 #
edge $-1 $663 -126.31977294228955 $597 -118.90050089096536 $582 $664 forward 7 unknown #
vertex $-1 $516 $665 #
straight-curve $-1 59.011082279935941 -0.73403172033516384 14.718964506384438 0 1 0 I I #
point $-1 -63.159886471144745 32.63565995728159 -14.718964506384435 #
plane-surface $-1 -63.159886471144745 0 0 1 0 0 0 0 -1 forward_v I I I I #
coedge $-1 $526 $545 $530 $605 reversed $474 $-1 #
straight-curve $-1 -63.159886471144745 -13.033506891109447 9.7715560991327202 0 1 0 I I #
point $-1 -63.159886471144745 -19.498367607156197 9.7715560991327202 #
coedge $-1 $531 $530 $539 $609 reversed $522 $-1 #
edge $-1 $532 -9.7715560991327202 $666 14.718964506384435 $601 $667 forward 7 unknown #
point $-1 -63.159886471144745 -32.63565995728159 9.7715560991327202 #
straight-curve $-1 63.159886471144745 -32.63565995728159 0 0 0 -1 I I #
coedge $-1 $540 $539 $545 $612 forward $451 $-1 #
edge $-1 $541 -63.159886471144745 $666 63.159886471144745 $604 $668 forward 7 unknown #
point $-1 63.159886471144745 -32.63565995728159 -14.718964506384435 #
straight-curve $-1 0 32.63565995728159 -14.718964506384435 1 0 0 I I #
edge $-1 $666 -32.63565995728159 $548 32.63565995728159 $545 $669 forward 7 unknown #
straight-curve $-1 -63.159886471144745 -19.498367607156197 6.1226301513792887 0 0 1 I I #
point $-1 -63.159886471144745 32.63565995728159 -14.718964506384435 #
face $-1 $670 $671 $18 $-1 $672 reversed single #
loop $-1 $-1 $633 $551 #
plane-surface $-1 0 0 -14.718964506384435 0 0 1 1 0 0 forward_v I I I I #
coedge $-1 $673 $553 $558 $630 reversed $481 $-1 #
coedge $-1 $553 $673 $554 $623 forward $481 $-1 #
coedge $-1 $556 $559 $553 $621 forward $415 $-1 #
edge $-1 $631 -8.5963343550051459 $627 -3.6489259477534315 $620 $674 forward 7 unknown #
coedge $-1 $555 $554 $675 $676 reversed $402 $-1 #
edge $-1 $677 -63.159886471144745 $627 63.159886471144745 $619 $678 forward 7 unknown #
coedge $-1 $679 $680 $555 $625 forward $671 $-1 #
edge $-1 $628 -63.159886471144745 $681 63.159886471144745 $624 $682 forward 7 unknown #
coedge $-1 $567 $556 $680 $683 forward $415 $-1 #
vertex $-1 $557 $684 #
vertex $-1 $683 $685 #
straight-curve $-1 63.159886471144745 -13.033506891109447 9.7715560991327202 0 -1 0 I I #
edge $-1 $641 -63.159886471144745 $631 63.159886471144745 $558 $686 forward 7 unknown #
vertex $-1 $560 $687 #
point $-1 63.159886471144745 -9.1000236137820707 8.5681091549256934 #
coedge $-1 $688 $689 $567 $634 forward $616 $-1 #
edge $-1 $636 -32.63565995728159 $690 32.63565995728159 $567 $691 forward 7 unknown #
coedge $-1 $572 $568 $689 $692 reversed $573 $-1 #
vertex $-1 $634 $693 #
straight-curve $-1 63.159886471144745 32.63565995728159 0 0 0 -1 I I #
coedge $-1 $694 $570 $572 $643 forward $640 $-1 #
coedge $-1 $570 $675 $673 $695 forward $640 $-1 #
loop $-1 $-1 $639 $670 #
vertex $-1 $695 $696 #
straight-curve $-1 -63.159886471144745 0 14.718964506384435 0 -1 0 I I #
edge $-1 $574 -14.718964506384435 $697 14.718964506384435 $572 $698 forward 7 unknown #
face $-1 $-1 $573 $18 $-1 $699 reversed single #
point $-1 -63.159886471144745 32.63565995728159 14.718964506384435 #
face $-1 $700 $589 $19 $-1 $701 reversed single #
loop $-1 $-1 $702 $577 #
plane-surface $-1 0 -19.498367607156197 12.245260302758577 0 -1 0 0 0 -1 forward_v I I I I #
coedge $-1 $703 $704 $705 $706 reversed $578 $-1 #
coedge $-1 $580 $707 $708 $709 forward $501 $-1 #
coedge $-1 $708 $587 $581 $652 forward $589 $-1 #
edge $-1 $663 -83.396424438024724 $653 -77.245569086565979 $651 $710 forward 7 unknown #
vertex $-1 $652 $711 #
straight-curve $-1 48.623303165774885 -9.1000236137820707 14.718964506384438 -1 0 0 I I #
edge $-1 $585 -6.8979284527765792 $663 8.3659918934469069 $587 $712 forward 7 unknown #
point $-1 63.159886471144745 6.1638967324414153 8.5681091549256934 #
coedge $-1 $588 $713 $714 $715 reversed $589 $-1 #
coedge $-1 $707 $591 $716 $717 forward $501 $-1 #
coedge $-1 $714 $718 $591 $660 reversed $719 $-1 #
edge $-1 $661 -63.159886471144745 $720 63.159886471144745 $659 $721 forward 7 unknown #
vertex $-1 $592 $722 #
straight-curve $-1 63.159886471144745 0 14.718964506384435 0 1 0 I I #
vertex $-1 $655 $723 #
straight-curve $-1 -7.4772326141403056 -9.1000236137820707 113.29194810061583 -0.55919289150049634 0 0.82903758062907751 I I #
point $-1 59.011082279935948 -9.1000236137820707 14.718964506384438 #
vertex $-1 $612 $724 #
straight-curve $-1 -63.159886471144745 -32.63565995728159 0 0 0 -1 I I #
straight-curve $-1 0 -32.63565995728159 -14.718964506384435 -1 0 0 I I #
straight-curve $-1 -63.159886471144745 0 -14.718964506384435 0 1 0 I I #
face $-1 $644 $640 $18 $-1 $725 reversed single #
loop $-1 $-1 $624 $615 #
plane-surface $-1 0 -32.63565995728159 0 0 1 0 0 0 1 forward_v I I I I #
coedge $-1 $619 $618 $639 $695 reversed $481 $-1 #
straight-curve $-1 63.159886471144745 -19.498367607156197 6.1226301513792887 0 0 -1 I I #
coedge $-1 $639 $726 $622 $676 forward $640 $-1 #
edge $-1 $681 -19.602153066172143 $677 -6.4648607160467506 $675 $727 forward 7 unknown #
vertex $-1 $676 $728 #
straight-curve $-1 0 -19.498367607156197 9.7715560991327202 1 0 0 I I #
coedge $-1 $729 $624 $726 $730 forward $671 $-1 #
coedge $-1 $624 $729 $626 $683 reversed $671 $-1 #
vertex $-1 $730 $731 #
straight-curve $-1 0 -32.63565995728159 9.7715560991327202 -1 0 0 I I #
edge $-1 $628 -9.7715560991327202 $690 14.718964506384435 $626 $732 forward 7 unknown #
point $-1 63.159886471144745 -19.498367607156197 9.7715560991327202 #
point $-1 63.159886471144745 -32.63565995728159 9.7715560991327202 #
straight-curve $-1 0 -19.498367607156197 14.718964506384435 1 0 0 I I #
point $-1 63.159886471144745 -19.498367607156197 14.718964506384435 #
coedge $-1 $733 $633 $729 $734 forward $616 $-1 #
coedge $-1 $633 $733 $635 $692 forward $616 $-1 #
vertex $-1 $683 $735 #
straight-curve $-1 63.159886471144745 0 -14.718964506384435 0 -1 0 I I #
edge $-1 $697 -63.159886471144745 $636 63.159886471144745 $635 $736 forward 7 unknown #
point $-1 63.159886471144745 32.63565995728159 -14.718964506384435 #
coedge $-1 $726 $638 $733 $737 reversed $640 $-1 #
edge $-1 $677 3.6489259477534315 $641 8.5963343550051459 $639 $738 forward 7 unknown #
point $-1 -63.159886471144745 -19.498367607156197 14.718964506384435 #
vertex $-1 $692 $739 #
straight-curve $-1 -63.159886471144745 32.63565995728159 0 0 0 -1 I I #
plane-surface $-1 0 32.63565995728159 0 0 -1 0 0 0 -1 forward_v I I I I #
face $-1 $740 $741 $19 $-1 $742 reversed single #
plane-surface $-1 63.159886471144745 0 0 -1 0 0 0 0 1 forward_v I I I I #
coedge $-1 $743 $744 $745 $746 reversed $647 $-1 #
coedge $-1 $747 $649 $744 $748 reversed $578 $-1 #
coedge $-1 $649 $747 $749 $750 reversed $578 $-1 #
coedge $-1 $751 $745 $649 $706 forward $589 $-1 #
edge $-1 $752 6.4648607160467506 $753 19.602153066172143 $705 $754 forward 7 unknown #
coedge $-1 $650 $658 $743 $755 forward $501 $-1 #
coedge $-1 $745 $651 $650 $709 reversed $589 $-1 #
edge $-1 $756 -19.498367607156197 $653 -9.1000236137820707 $708 $662 forward 7 unknown #
straight-curve $-1 63.159886471144745 -9.1000236137820707 91.964533592950417 0 0 1 I I #
point $-1 63.159886471144745 -9.1000236137820707 14.718964506384435 #
straight-curve $-1 63.159886471144745 -0.73403172033516384 8.5681091549257005 0 -1 0 I I #
coedge $-1 $657 $751 $757 $758 reversed $589 $-1 #
coedge $-1 $759 $659 $657 $715 forward $719 $-1 #
edge $-1 $661 -14.718964506384435 $760 14.718964506384435 $657 $761 forward 7 unknown #
coedge $-1 $762 $763 $658 $717 reversed $764 $-1 #
edge $-1 $720 -32.63565995728159 $765 19.498367607156197 $716 $766 forward 7 unknown #
coedge $-1 $659 $759 $762 $767 reversed $719 $-1 #
loop $-1 $-1 $714 $768 #
vertex $-1 $660 $769 #
straight-curve $-1 0 32.63565995728159 14.718964506384435 -1 0 0 I I #
point $-1 63.159886471144745 32.63565995728159 14.718964506384435 #
point $-1 63.159886471144745 -9.1000236137820707 8.5681091549256934 #
point $-1 -63.159886471144745 -32.63565995728159 -14.718964506384435 #
plane-surface $-1 -63.159886471144745 0 0 1 0 0 0 0 -1 forward_v I I I I #
coedge $-1 $675 $694 $679 $730 reversed $640 $-1 #
straight-curve $-1 -63.159886471144745 -13.033506891109447 9.7715560991327202 0 1 0 I I #
point $-1 -63.159886471144745 -19.498367607156197 9.7715560991327202 #
coedge $-1 $680 $679 $688 $734 reversed $671 $-1 #
edge $-1 $681 -9.7715560991327202 $770 14.718964506384435 $726 $771 forward 7 unknown #
point $-1 -63.159886471144745 -32.63565995728159 9.7715560991327202 #
straight-curve $-1 63.159886471144745 -32.63565995728159 0 0 0 -1 I I #
coedge $-1 $689 $688 $694 $737 forward $616 $-1 #
edge $-1 $690 -63.159886471144745 $770 63.159886471144745 $729 $772 forward 7 unknown #
point $-1 63.159886471144745 -32.63565995728159 -14.718964506384435 #
straight-curve $-1 0 32.63565995728159 -14.718964506384435 1 0 0 I I #
edge $-1 $770 -32.63565995728159 $697 32.63565995728159 $694 $773 forward 7 unknown #
straight-curve $-1 -63.159886471144745 -19.498367607156197 6.1226301513792887 0 0 1 I I #
point $-1 -63.159886471144745 32.63565995728159 -14.718964506384435 #
face $-1 $774 $775 $19 $-1 $776 reversed single #
loop $-1 $-1 $757 $700 #
plane-surface $-1 0 0 -14.718964506384435 0 0 1 1 0 0 forward_v I I I I #
coedge $-1 $777 $702 $707 $755 reversed $647 $-1 #
coedge $-1 $702 $777 $703 $748 forward $647 $-1 #
coedge $-1 $705 $708 $702 $746 forward $589 $-1 #
edge $-1 $756 -8.5963343550051459 $752 -3.6489259477534315 $745 $778 forward 7 unknown #
coedge $-1 $704 $703 $779 $780 reversed $578 $-1 #
edge $-1 $781 -63.159886471144745 $752 63.159886471144745 $744 $782 forward 7 unknown #
coedge $-1 $783 $784 $704 $750 forward $775 $-1 #
edge $-1 $753 -63.159886471144745 $785 63.159886471144745 $749 $786 forward 7 unknown #
coedge $-1 $713 $705 $784 $787 forward $589 $-1 #
vertex $-1 $706 $788 #
vertex $-1 $787 $789 #
straight-curve $-1 63.159886471144745 -13.033506891109447 9.7715560991327202 0 -1 0 I I #
edge $-1 $765 -63.159886471144745 $756 63.159886471144745 $707 $790 forward 7 unknown #
vertex $-1 $709 $791 #
coedge $-1 $792 $793 $713 $758 forward $741 $-1 #
edge $-1 $760 -32.63565995728159 $794 32.63565995728159 $713 $795 forward 7 unknown #
coedge $-1 $718 $714 $793 $796 reversed $719 $-1 #
vertex $-1 $758 $797 #
straight-curve $-1 63.159886471144745 32.63565995728159 0 0 0 -1 I I #
coedge $-1 $798 $716 $718 $767 forward $764 $-1 #
coedge $-1 $716 $779 $777 $799 forward $764 $-1 #
loop $-1 $-1 $763 $774 #
vertex $-1 $799 $800 #
straight-curve $-1 -63.159886471144745 0 14.718964506384435 0 -1 0 I I #
edge $-1 $720 -14.718964506384435 $801 14.718964506384435 $718 $802 forward 7 unknown #
face $-1 $-1 $719 $19 $-1 $803 reversed single #
point $-1 -63.159886471144745 32.63565995728159 14.718964506384435 #
vertex $-1 $737 $804 #
straight-curve $-1 -63.159886471144745 -32.63565995728159 0 0 0 -1 I I #
straight-curve $-1 0 -32.63565995728159 -14.718964506384435 -1 0 0 I I #
straight-curve $-1 -63.159886471144745 0 -14.718964506384435 0 1 0 I I #
face $-1 $768 $764 $19 $-1 $805 reversed single #
loop $-1 $-1 $749 $740 #
plane-surface $-1 0 -32.63565995728159 0 0 1 0 0 0 1 forward_v I I I I #
coedge $-1 $744 $743 $763 $799 reversed $647 $-1 #
straight-curve $-1 63.159886471144745 -19.498367607156197 6.1226301513792887 0 0 -1 I I #
coedge $-1 $763 $806 $747 $780 forward $764 $-1 #
edge $-1 $785 -19.602153066172143 $781 -6.4648607160467506 $779 $807 forward 7 unknown #
vertex $-1 $780 $808 #
straight-curve $-1 0 -19.498367607156197 9.7715560991327202 1 0 0 I I #
coedge $-1 $809 $749 $806 $810 forward $775 $-1 #
coedge $-1 $749 $809 $751 $787 reversed $775 $-1 #
vertex $-1 $810 $811 #
straight-curve $-1 0 -32.63565995728159 9.7715560991327202 -1 0 0 I I #
edge $-1 $753 -9.7715560991327202 $794 14.718964506384435 $751 $812 forward 7 unknown #
point $-1 63.159886471144745 -19.498367607156197 9.7715560991327202 #
point $-1 63.159886471144745 -32.63565995728159 9.7715560991327202 #
straight-curve $-1 0 -19.498367607156197 14.718964506384435 1 0 0 I I #
point $-1 63.159886471144745 -19.498367607156197 14.718964506384435 #
coedge $-1 $813 $757 $809 $814 forward $741 $-1 #
coedge $-1 $757 $813 $759 $796 forward $741 $-1 #
vertex $-1 $787 $815 #
straight-curve $-1 63.159886471144745 0 -14.718964506384435 0 -1 0 I I #
edge $-1 $801 -63.159886471144745 $760 63.159886471144745 $759 $816 forward 7 unknown #
point $-1 63.159886471144745 32.63565995728159 -14.718964506384435 #
coedge $-1 $806 $762 $813 $817 reversed $764 $-1 #
edge $-1 $781 3.6489259477534315 $765 8.5963343550051459 $763 $818 forward 7 unknown #
point $-1 -63.159886471144745 -19.498367607156197 14.718964506384435 #
vertex $-1 $796 $819 #
straight-curve $-1 -63.159886471144745 32.63565995728159 0 0 0 -1 I I #
plane-surface $-1 0 32.63565995728159 0 0 -1 0 0 0 -1 forward_v I I I I #
point $-1 -63.159886471144745 -32.63565995728159 -14.718964506384435 #
plane-surface $-1 -63.159886471144745 0 0 1 0 0 0 0 -1 forward_v I I I I #
coedge $-1 $779 $798 $783 $810 reversed $764 $-1 #
straight-curve $-1 -63.159886471144745 -13.033506891109447 9.7715560991327202 0 1 0 I I #
point $-1 -63.159886471144745 -19.498367607156197 9.7715560991327202 #
coedge $-1 $784 $783 $792 $814 reversed $775 $-1 #
edge $-1 $785 -9.7715560991327202 $820 14.718964506384435 $806 $821 forward 7 unknown #
point $-1 -63.159886471144745 -32.63565995728159 9.7715560991327202 #
straight-curve $-1 63.159886471144745 -32.63565995728159 0 0 0 -1 I I #
coedge $-1 $793 $792 $798 $817 forward $741 $-1 #
edge $-1 $794 -63.159886471144745 $820 63.159886471144745 $809 $822 forward 7 unknown #
point $-1 63.159886471144745 -32.63565995728159 -14.718964506384435 #
straight-curve $-1 0 32.63565995728159 -14.718964506384435 1 0 0 I I #
edge $-1 $820 -32.63565995728159 $801 32.63565995728159 $798 $823 forward 7 unknown #
straight-curve $-1 -63.159886471144745 -19.498367607156197 6.1226301513792887 0 0 1 I I #
point $-1 -63.159886471144745 32.63565995728159 -14.718964506384435 #
vertex $-1 $817 $824 #
straight-curve $-1 -63.159886471144745 -32.63565995728159 0 0 0 -1 I I #
straight-curve $-1 0 -32.63565995728159 -14.718964506384435 -1 0 0 I I #
straight-curve $-1 -63.159886471144745 0 -14.718964506384435 0 1 0 I I #
point $-1 -63.159886471144745 -32.63565995728159 -14.718964506384435 #
End-of-ACIS-data 