500 0 9 0           
7 Unknown 11 ACIS 5.0 NT 24 Fri Mar 26 20:07:32 1999 
-1 9.9999999999999995e-007 1e-010 
body $-1 $9 $-1 $10 #
body $-1 $11 $-1 $12 #
body $-1 $13 $-1 $14 #
body $-1 $15 $-1 $16 #
body $-1 $17 $-1 $18 #
body $-1 $19 $-1 $20 #
body $-1 $21 $-1 $22 #
body $-1 $23 $-1 $24 #
body $-1 $25 $-1 $26 #
lump $-1 $-1 $27 $0 #
transform $-1 1 0 0 0 1 0 0 0 1 77.654957731864386 50.883940137007166 11.270186332112477 1 rotate no_reflect no_shear #
lump $-1 $-1 $28 $1 #
transform $-1 1 0 0 0 1 0 0 0 1 77.654957731864386 50.883940137007166 11.270186332112477 1 rotate no_reflect no_shear #
lump $-1 $-1 $29 $2 #
transform $-1 1 0 0 0 1 0 0 0 1 77.654957731864386 50.883940137007166 11.270186332112477 1 rotate no_reflect no_shear #
lump $-1 $-1 $30 $3 #
transform $-1 1 0 0 0 1 0 0 0 1 77.654957731864386 50.883940137007166 11.270186332112477 1 rotate no_reflect no_shear #
lump $-1 $-1 $31 $4 #
transform $-1 1 0 0 0 1 0 0 0 1 77.654957731864386 50.883940137007166 11.270186332112477 1 rotate no_reflect no_shear #
lump $-1 $-1 $32 $5 #
transform $-1 1 0 0 0 1 0 0 0 1 77.654957731864386 50.883940137007166 11.270186332112477 1 rotate no_reflect no_shear #
lump $-1 $-1 $33 $6 #
transform $-1 1 0 0 0 1 0 0 0 1 77.654957731864386 50.883940137007166 11.270186332112477 1 rotate no_reflect no_shear #
lump $-1 $-1 $34 $7 #
transform $-1 1 0 0 0 1 0 0 0 1 77.654957731864386 50.883940137007166 11.270186332112477 1 rotate no_reflect no_shear #
lump $-1 $-1 $35 $8 #
transform $-1 1 0 0 0 1 0 0 0 1 77.654957731864386 50.883940137007166 11.270186332112477 1 rotate no_reflect no_shear #
shell $-1 $-1 $-1 $36 $-1 $9 #
shell $-1 $-1 $-1 $37 $-1 $11 #
shell $-1 $-1 $-1 $38 $-1 $13 #
shell $-1 $-1 $-1 $39 $-1 $15 #
shell $-1 $-1 $-1 $40 $-1 $17 #
shell $-1 $-1 $-1 $41 $-1 $19 #
shell $-1 $-1 $-1 $42 $-1 $21 #
shell $-1 $-1 $-1 $43 $-1 $23 #
shell $-1 $-1 $-1 $44 $-1 $25 #
face $-1 $45 $46 $27 $-1 $47 forward single #
face $-1 $48 $49 $28 $-1 $50 reversed single #
face $-1 $51 $52 $29 $-1 $53 reversed single #
face $-1 $54 $55 $30 $-1 $56 forward single #
face $-1 $57 $58 $31 $-1 $59 forward single #
face $-1 $60 $61 $32 $-1 $62 forward single #
face $-1 $63 $64 $33 $-1 $65 reversed single #
face $-1 $66 $67 $34 $-1 $68 forward single #
face $-1 $69 $70 $35 $-1 $71 forward single #
face $-1 $72 $73 $27 $-1 $74 reversed single #
loop $-1 $-1 $75 $36 #
plane-surface $-1 0 0 11.270186332112477 0 0 1 1 0 0 forward_v I I I I #
face $-1 $76 $77 $28 $-1 $78 reversed single #
loop $-1 $-1 $79 $37 #
plane-surface $-1 -74.465344006138963 -39.805794450564768 0 0 -1 0 0 0 -1 forward_v I I I I #
face $-1 $80 $81 $29 $-1 $82 reversed single #
loop $-1 $-1 $83 $38 #
plane-surface $-1 119.56451358876049 2.0728920648228772 218.6992951925003 0 -1 0 -0.82903758062907751 0 -0.55919289150049634 forward_v I I I I #
face $-1 $84 $85 $30 $-1 $86 forward single #
loop $-1 $87 $88 $39 #
cone-surface $-1 73.143593263707743 -15.886924681541991 5.9988849368808905 -0.82903758062907751 0 -0.55919289150049634 1.1183857830009927 0 -1.658075161258155 1 I I 0 1 2 forward I I I I #
face $-1 $89 $90 $31 $-1 $91 forward single #
loop $-1 $92 $93 $40 #
cone-surface $-1 73.143593263707743 -9.1519934016551616 5.9988849368808905 -0.82903758062907751 0 -0.55919289150049634 1.1183857830009927 0 -1.658075161258155 1 I I 0 1 2 forward I I I I #
face $-1 $94 $95 $32 $-1 $96 forward single #
loop $-1 $97 $98 $41 #
cone-surface $-1 73.143593263707743 -2.4170621217683319 5.9988849368808905 -0.82903758062907751 0 -0.55919289150049634 1.1183857830009927 0 -1.658075161258155 1 I I 0 1 2 forward I I I I #
face $-1 $99 $100 $33 $-1 $101 reversed single #
loop $-1 $-1 $102 $42 #
plane-surface $-1 -209.36523708586779 -32.777600325664899 87.981078547290963 0 1 0 -0.84804810408105047 0 0.52991925155115449 forward_v I I I I #
face $-1 $103 $104 $34 $-1 $105 forward single #
loop $-1 $106 $107 $43 #
cone-surface $-1 -74.514128123914759 -28.728274358314646 7.6036681304120268 0.84804810408105047 0 -0.52991925155115449 0.52991925155115449 0 0.84804810408105047 1 I I 0 1 1 forward I I I I #
face $-1 $108 $109 $35 $-1 $110 forward single #
loop $-1 $111 $112 $44 #
cone-surface $-1 -74.514128123914759 -22.654285407289272 7.6036681304120268 0.84804810408105047 0 -0.52991925155115449 0.52991925155115449 0 0.84804810408105047 1 I I 0 1 1 forward I I I I #
face $-1 $113 $114 $27 $-1 $115 reversed single #
loop $-1 $-1 $116 $45 #
plane-surface $-1 0 0 -11.270186332112477 0 0 1 1 0 0 forward_v I I I I #
coedge $-1 $117 $118 $119 $120 forward $46 $-1 #
face $-1 $121 $122 $28 $-1 $123 forward single #
loop $-1 $-1 $124 $48 #
plane-surface $-1 -71.275730280413541 -45.344867293785967 0 -1 0 0 0 0 1 forward_v I I I I #
coedge $-1 $125 $126 $127 $128 forward $49 $-1 #
face $-1 $129 $130 $29 $-1 $131 reversed single #
loop $-1 $-1 $132 $51 #
plane-surface $-1 -9.1932429749957691 -9.1519934016551687 131.85109448564015 0.82903758062907751 0 0.55919289150049634 0.55919289150049634 0 -0.82903758062907751 forward_v I I I I #
coedge $-1 $133 $134 $135 $136 reversed $52 $-1 #
face $-1 $-1 $137 $30 $-1 $138 forward single #
loop $-1 $139 $140 $54 #
cone-surface $-1 70.560868075847509 -15.886924681541991 4.2568148552630838 -0.82903758062907751 0 -0.55919289150049634 0.55919289150049634 0 -0.82903758062907751 1 I I -0.70710678118654746 0.70710678118654746 1 forward I I I I #
loop $-1 $-1 $141 $39 #
coedge $-1 $88 $88 $142 $143 reversed $55 $-1 #
face $-1 $-1 $144 $31 $-1 $145 forward single #
loop $-1 $146 $147 $57 #
cone-surface $-1 70.560868075847509 -9.1519934016551616 4.2568148552630838 -0.82903758062907751 0 -0.55919289150049634 0.55919289150049634 0 -0.82903758062907751 1 I I -0.70710678118654746 0.70710678118654746 1 forward I I I I #
loop $-1 $-1 $148 $40 #
coedge $-1 $93 $93 $149 $150 reversed $58 $-1 #
face $-1 $-1 $151 $32 $-1 $152 forward single #
loop $-1 $153 $154 $60 #
cone-surface $-1 70.560868075847509 -2.4170621217683319 4.2568148552630838 -0.82903758062907751 0 -0.55919289150049634 0.55919289150049634 0 -0.82903758062907751 1 I I -0.70710678118654746 0.70710678118654746 1 forward I I I I #
loop $-1 $-1 $155 $41 #
coedge $-1 $98 $98 $156 $157 reversed $61 $-1 #
face $-1 $158 $159 $33 $-1 $160 reversed single #
loop $-1 $-1 $161 $63 #
plane-surface $-1 -77.654957731864386 -25.691279882801965 5.6793643862787349 -0.84804810408105047 0 0.52991925155115449 0.52991925155115449 0 0.84804810408105047 forward_v I I I I #
coedge $-1 $162 $163 $164 $165 reversed $64 $-1 #
face $-1 $-1 $166 $34 $-1 $167 forward single #
loop $-1 $168 $169 $66 #
cone-surface $-1 -72.696041048764954 -28.728274358314646 6.4676012758528749 0.84804810408105047 0 -0.52991925155115449 0.26495962577557725 0 0.42402405204052523 1 I I -0.70710678118654746 0.70710678118654746 0.5 forward I I I I #
loop $-1 $-1 $170 $43 #
coedge $-1 $107 $107 $171 $172 reversed $67 $-1 #
face $-1 $-1 $173 $35 $-1 $174 forward single #
loop $-1 $175 $176 $69 #
cone-surface $-1 -72.696041048764954 -22.654285407289272 6.4676012758528749 0.84804810408105047 0 -0.52991925155115449 0.26495962577557725 0 0.42402405204052523 1 I I -0.70710678118654746 0.70710678118654746 0.5 forward I I I I #
loop $-1 $-1 $177 $44 #
coedge $-1 $112 $112 $178 $179 reversed $70 $-1 #
face $-1 $180 $181 $27 $-1 $182 reversed single #
loop $-1 $-1 $183 $72 #
plane-surface $-1 0 -50.883940137007166 0 0 1 0 0 0 1 forward_v I I I I #
coedge $-1 $184 $185 $186 $187 forward $73 $-1 #
coedge $-1 $188 $75 $189 $190 forward $46 $-1 #
coedge $-1 $75 $188 $191 $192 forward $46 $-1 #
coedge $-1 $193 $194 $75 $120 reversed $195 $-1 #
edge $-1 $196 -50.883940137007166 $197 50.883940137007166 $119 $198 forward 7 unknown #
face $-1 $199 $200 $28 $-1 $201 reversed single #
loop $-1 $-1 $202 $76 #
plane-surface $-1 0 0 11.270186332112477 0 0 1 1 0 0 forward_v I I I I #
coedge $-1 $203 $204 $205 $206 reversed $77 $-1 #
coedge $-1 $207 $79 $208 $209 reversed $49 $-1 #
coedge $-1 $79 $207 $210 $211 reversed $49 $-1 #
coedge $-1 $204 $203 $79 $128 reversed $77 $-1 #
edge $-1 $212 -11.270186332112477 $213 11.270186332112477 $127 $214 forward 7 unknown #
face $-1 $215 $216 $29 $-1 $217 reversed single #
loop $-1 $-1 $218 $80 #
plane-surface $-1 119.56451358876049 -20.376878868133215 218.6992951925003 0 1 0 0.82903758062907751 0 0.55919289150049634 forward_v I I I I #
coedge $-1 $219 $220 $221 $222 reversed $81 $-1 #
coedge $-1 $134 $83 $223 $224 reversed $52 $-1 #
coedge $-1 $83 $133 $219 $225 reversed $52 $-1 #
coedge $-1 $221 $226 $83 $136 forward $227 $-1 #
edge $-1 $228 -17.87270093748414 $229 -12.357347215633098 $135 $230 forward 7 unknown #
loop $-1 $-1 $142 $84 #
plane-surface $-1 -9.1932429749957691 -9.1519934016551687 131.85109448564015 0.82903758062907751 0 0.55919289150049634 0.55919289150049634 0 -0.82903758062907751 forward_v I I I I #
loop $-1 $-1 $231 $54 #
coedge $-1 $140 $140 $141 $232 reversed $85 $-1 #
coedge $-1 $141 $141 $140 $232 forward $87 $-1 #
coedge $-1 $142 $142 $88 $143 forward $137 $-1 #
edge $-1 $233 0 $233 6.2831853071796004 $142 $234 forward 7 unknown #
loop $-1 $-1 $149 $89 #
plane-surface $-1 -9.1932429749957691 -9.1519934016551687 131.85109448564015 0.82903758062907751 0 0.55919289150049634 0.55919289150049634 0 -0.82903758062907751 forward_v I I I I #
loop $-1 $-1 $235 $57 #
coedge $-1 $147 $147 $148 $236 reversed $90 $-1 #
coedge $-1 $148 $148 $147 $236 forward $92 $-1 #
coedge $-1 $149 $149 $93 $150 forward $144 $-1 #
edge $-1 $237 0 $237 6.2831853071796004 $149 $238 forward 7 unknown #
loop $-1 $-1 $156 $94 #
plane-surface $-1 -9.1932429749957691 -9.1519934016551687 131.85109448564015 0.82903758062907751 0 0.55919289150049634 0.55919289150049634 0 -0.82903758062907751 forward_v I I I I #
loop $-1 $-1 $239 $60 #
coedge $-1 $154 $154 $155 $240 reversed $95 $-1 #
coedge $-1 $155 $155 $154 $240 forward $97 $-1 #
coedge $-1 $156 $156 $98 $157 forward $151 $-1 #
edge $-1 $241 0 $241 6.2831853071796004 $156 $242 forward 7 unknown #
face $-1 $243 $244 $33 $-1 $245 reversed single #
loop $-1 $-1 $246 $99 #
plane-surface $-1 -209.36523708586779 -18.60495943993903 87.981078547290963 0 -1 0 0.84804810408105047 0 -0.52991925155115449 forward_v I I I I #
coedge $-1 $247 $248 $249 $250 reversed $100 $-1 #
coedge $-1 $163 $102 $251 $252 reversed $64 $-1 #
coedge $-1 $102 $162 $247 $253 reversed $64 $-1 #
coedge $-1 $249 $254 $102 $165 forward $255 $-1 #
edge $-1 $256 27.027660811069509 $257 30.521193980750212 $164 $258 forward 7 unknown #
loop $-1 $-1 $171 $103 #
plane-surface $-1 -77.654957731864386 -25.691279882801965 5.6793643862787349 -0.84804810408105047 0 0.52991925155115449 0.52991925155115449 0 0.84804810408105047 forward_v I I I I #
loop $-1 $-1 $259 $66 #
coedge $-1 $169 $169 $170 $260 reversed $104 $-1 #
coedge $-1 $170 $170 $169 $260 forward $106 $-1 #
coedge $-1 $171 $171 $107 $172 forward $166 $-1 #
edge $-1 $261 0 $261 6.2831853071796004 $171 $262 forward 7 unknown #
loop $-1 $-1 $178 $108 #
plane-surface $-1 -77.654957731864386 -25.691279882801965 5.6793643862787349 -0.84804810408105047 0 0.52991925155115449 0.52991925155115449 0 0.84804810408105047 forward_v I I I I #
loop $-1 $-1 $263 $69 #
coedge $-1 $176 $176 $177 $264 reversed $109 $-1 #
coedge $-1 $177 $177 $176 $264 forward $111 $-1 #
coedge $-1 $178 $178 $112 $179 forward $173 $-1 #
edge $-1 $265 0 $265 6.2831853071796004 $178 $266 forward 7 unknown #
face $-1 $267 $268 $27 $-1 $269 reversed single #
loop $-1 $-1 $270 $113 #
plane-surface $-1 -77.654957731864386 0 0 1 0 0 0 0 -1 forward_v I I I I #
coedge $-1 $271 $191 $272 $273 forward $114 $-1 #
coedge $-1 $274 $116 $271 $275 forward $73 $-1 #
coedge $-1 $116 $274 $276 $277 forward $73 $-1 #
coedge $-1 $194 $193 $116 $187 reversed $195 $-1 #
edge $-1 $278 -50.883940137007166 $279 50.883940137007166 $186 $280 forward 7 unknown #
coedge $-1 $118 $117 $281 $282 forward $46 $-1 #
coedge $-1 $283 $284 $117 $190 reversed $268 $-1 #
edge $-1 $197 -77.654957731864386 $285 77.654957731864386 $189 $286 forward 7 unknown #
coedge $-1 $183 $287 $118 $192 reversed $114 $-1 #
edge $-1 $288 -77.654957731864386 $196 77.654957731864386 $191 $289 forward 7 unknown #
coedge $-1 $186 $119 $287 $290 forward $195 $-1 #
coedge $-1 $119 $186 $283 $291 reversed $195 $-1 #
loop $-1 $-1 $193 $267 #
vertex $-1 $120 $292 #
vertex $-1 $120 $293 #
straight-curve $-1 77.654957731864386 0 11.270186332112477 0 1 0 I I #
face $-1 $294 $295 $28 $-1 $296 reversed single #
loop $-1 $-1 $297 $121 #
plane-surface $-1 -77.654957731864386 0 0 1 0 0 0 0 -1 forward_v I I I I #
coedge $-1 $210 $298 $204 $299 forward $122 $-1 #
coedge $-1 $127 $124 $300 $301 reversed $77 $-1 #
coedge $-1 $124 $127 $202 $299 reversed $77 $-1 #
coedge $-1 $302 $303 $124 $206 forward $304 $-1 #
edge $-1 $305 -11.270186332112477 $306 11.270186332112477 $205 $307 forward 7 unknown #
coedge $-1 $126 $125 $297 $308 reversed $49 $-1 #
coedge $-1 $300 $309 $125 $209 forward $295 $-1 #
edge $-1 $310 -40.422285728794904 $213 -34.043058277344059 $208 $311 forward 7 unknown #
coedge $-1 $312 $202 $126 $211 forward $122 $-1 #
edge $-1 $212 34.043058277344059 $313 40.422285728794904 $210 $314 forward 7 unknown #
vertex $-1 $211 $315 #
vertex $-1 $209 $316 #
straight-curve $-1 -71.275730280413541 -39.805794450564768 0 0 0 -1 I I #
face $-1 $-1 $227 $29 $-1 $317 forward single #
loop $-1 $-1 $318 $129 #
plane-surface $-1 77.654957731864386 0 0 -1 0 0 0 0 1 forward_v I I I I #
coedge $-1 $319 $320 $321 $322 reversed $130 $-1 #
coedge $-1 $323 $132 $134 $225 forward $81 $-1 #
coedge $-1 $132 $323 $319 $324 forward $81 $-1 #
coedge $-1 $321 $135 $132 $222 forward $227 $-1 #
edge $-1 $229 -6.6488887656504616 $325 15.80088216730563 $221 $326 forward 7 unknown #
coedge $-1 $327 $328 $133 $224 forward $216 $-1 #
edge $-1 $329 -106.25630967436629 $228 -98.079461264137677 $223 $330 forward 7 unknown #
edge $-1 $229 145.44685424517226 $329 155.30991546372883 $134 $331 forward 7 unknown #
coedge $-1 $135 $321 $327 $332 forward $227 $-1 #
loop $-1 $-1 $321 $215 #
vertex $-1 $224 $333 #
vertex $-1 $136 $334 #
straight-curve $-1 59.782256794380245 2.0728920648228772 11.270186332112473 -1 0 0 I I #
coedge $-1 $231 $231 $-1 $335 reversed $139 $-1 #
edge $-1 $336 0 $336 6.2831853071796004 $140 $337 forward 7 unknown #
vertex $-1 $143 $338 #
ellipse-curve $-1 74.897280870938857 -15.886924681541991 7.1817621269981746 0.82903758062907751 0 0.55919289150049634 1.1183857830009927 0 -1.658075161258155 1 I I #
coedge $-1 $235 $235 $-1 $339 reversed $146 $-1 #
edge $-1 $340 0 $340 6.2831853071796004 $147 $341 forward 7 unknown #
vertex $-1 $150 $342 #
ellipse-curve $-1 74.897280870938857 -9.1519934016551616 7.1817621269981746 0.82903758062907751 0 0.55919289150049634 1.1183857830009927 0 -1.658075161258155 1 I I #
coedge $-1 $239 $239 $-1 $343 reversed $153 $-1 #
edge $-1 $344 0 $344 6.2831853071796004 $154 $345 forward 7 unknown #
vertex $-1 $157 $346 #
ellipse-curve $-1 74.897280870938857 -2.4170621217683319 7.1817621269981746 0.82903758062907751 0 0.55919289150049634 1.1183857830009927 0 -1.658075161258155 1 I I #
face $-1 $-1 $255 $33 $-1 $347 forward single #
loop $-1 $-1 $348 $158 #
plane-surface $-1 -77.654957731864386 0 0 1 0 0 0 0 -1 forward_v I I I I #
coedge $-1 $349 $350 $351 $352 reversed $159 $-1 #
coedge $-1 $353 $161 $163 $253 forward $100 $-1 #
coedge $-1 $161 $353 $349 $354 forward $100 $-1 #
coedge $-1 $351 $164 $161 $250 forward $255 $-1 #
edge $-1 $257 -19.931960384263917 $355 -5.7593194985380478 $249 $356 forward 7 unknown #
coedge $-1 $357 $358 $162 $252 forward $244 $-1 #
edge $-1 $359 -38.311174887366747 $256 -32.720352941533008 $251 $360 forward 7 unknown #
edge $-1 $257 -6.5925764339653652 $359 0 $163 $361 forward 7 unknown #
coedge $-1 $164 $351 $357 $362 forward $255 $-1 #
loop $-1 $-1 $351 $243 #
vertex $-1 $252 $363 #
vertex $-1 $165 $364 #
straight-curve $-1 -104.68261854293389 -32.777600325664899 11.270186332112473 1 0 0 I I #
coedge $-1 $259 $259 $-1 $365 reversed $168 $-1 #
edge $-1 $366 0 $366 6.2831853071796004 $169 $367 forward 7 unknown #
vertex $-1 $172 $368 #
ellipse-curve $-1 -75.908191147024041 -28.728274358314646 8.4747753591956005 -0.84804810408105047 0 0.52991925155115449 0.52991925155115449 0 0.84804810408105047 1 I I #
coedge $-1 $263 $263 $-1 $369 reversed $175 $-1 #
edge $-1 $370 0 $370 6.2831853071796004 $176 $371 forward 7 unknown #
vertex $-1 $179 $372 #
ellipse-curve $-1 -75.908191147024041 -22.654285407289272 8.4747753591956005 -0.84804810408105047 0 0.52991925155115449 0.52991925155115449 0 0.84804810408105047 1 I I #
face $-1 $-1 $195 $27 $-1 $373 reversed single #
loop $-1 $-1 $283 $180 #
plane-surface $-1 0 50.883940137007166 0 0 -1 0 0 0 -1 forward_v I I I I #
coedge $-1 $374 $281 $284 $375 forward $181 $-1 #
coedge $-1 $287 $183 $184 $275 reversed $114 $-1 #
coedge $-1 $281 $374 $183 $273 reversed $181 $-1 #
edge $-1 $288 -11.270186332112477 $376 11.270186332112477 $272 $377 forward 7 unknown #
coedge $-1 $185 $184 $374 $378 forward $73 $-1 #
edge $-1 $279 -77.654957731864386 $376 77.654957731864386 $271 $379 forward 7 unknown #
coedge $-1 $284 $283 $185 $277 reversed $268 $-1 #
edge $-1 $380 -77.654957731864386 $278 77.654957731864386 $276 $381 forward 7 unknown #
vertex $-1 $187 $382 #
vertex $-1 $290 $383 #
straight-curve $-1 77.654957731864386 0 -11.270186332112477 0 -1 0 I I #
coedge $-1 $270 $272 $188 $282 reversed $181 $-1 #
edge $-1 $285 -50.883940137007166 $288 50.883940137007166 $281 $384 forward 7 unknown #
coedge $-1 $276 $189 $194 $291 forward $268 $-1 #
coedge $-1 $189 $276 $270 $375 reversed $268 $-1 #
vertex $-1 $190 $385 #
straight-curve $-1 0 50.883940137007166 11.270186332112477 -1 0 0 I I #
coedge $-1 $191 $271 $193 $290 reversed $114 $-1 #
vertex $-1 $282 $386 #
straight-curve $-1 0 -50.883940137007166 11.270186332112477 1 0 0 I I #
edge $-1 $196 -11.270186332112477 $279 11.270186332112477 $193 $387 forward 7 unknown #
edge $-1 $197 -11.270186332112477 $278 11.270186332112477 $194 $388 forward 7 unknown #
point $-1 77.654957731864386 -50.883940137007166 11.270186332112477 #
point $-1 77.654957731864386 50.883940137007166 11.270186332112477 #
face $-1 $-1 $304 $28 $-1 $389 reversed single #
loop $-1 $-1 $300 $199 #
plane-surface $-1 0 0 -11.270186332112477 0 0 1 1 0 0 forward_v I I I I #
coedge $-1 $390 $391 $207 $308 forward $200 $-1 #
coedge $-1 $202 $312 $302 $392 forward $122 $-1 #
edge $-1 $306 -28.211506490114182 $212 -17.133360803671785 $202 $393 forward 7 unknown #
coedge $-1 $394 $208 $203 $301 forward $295 $-1 #
edge $-1 $213 17.133360803671785 $305 28.211506490114182 $300 $395 forward 7 unknown #
coedge $-1 $396 $205 $298 $392 reversed $304 $-1 #
coedge $-1 $205 $396 $394 $397 reversed $304 $-1 #
loop $-1 $-1 $205 $294 #
vertex $-1 $397 $398 #
vertex $-1 $206 $399 #
straight-curve $-1 -71.275730280413541 -50.883940137007166 0 0 0 1 I I #
edge $-1 $313 -11.270186332112477 $310 11.270186332112477 $297 $400 forward 7 unknown #
coedge $-1 $208 $394 $390 $401 forward $295 $-1 #
vertex $-1 $209 $402 #
straight-curve $-1 -37.232672003069482 -39.805794450564768 -11.270186332112477 1 0 0 I I #
coedge $-1 $298 $210 $391 $403 forward $122 $-1 #
vertex $-1 $403 $404 #
straight-curve $-1 -37.232672003069482 -39.805794450564768 11.270186332112477 -1 0 0 I I #
point $-1 -71.275730280413541 -39.805794450564768 11.270186332112477 #
point $-1 -71.275730280413541 -39.805794450564768 -11.270186332112477 #
plane-surface $-1 0 0 11.270186332112477 0 0 1 1 0 0 forward_v I I I I #
coedge $-1 $328 $327 $320 $405 forward $216 $-1 #
coedge $-1 $320 $218 $220 $324 reversed $130 $-1 #
coedge $-1 $218 $319 $318 $405 reversed $130 $-1 #
coedge $-1 $226 $221 $218 $322 forward $227 $-1 #
edge $-1 $325 12.357347215633098 $406 17.87270093748414 $321 $407 forward 7 unknown #
coedge $-1 $220 $219 $328 $408 reversed $81 $-1 #
edge $-1 $409 -155.30991546372883 $325 -145.44685424517226 $319 $410 forward 7 unknown #
vertex $-1 $222 $411 #
straight-curve $-1 72.139604010013343 -4.5759967008275844 11.270186332112473 0 -1 0 I I #
coedge $-1 $318 $223 $226 $332 reversed $216 $-1 #
coedge $-1 $223 $318 $323 $408 forward $216 $-1 #
vertex $-1 $224 $412 #
straight-curve $-1 77.654957731864386 2.0728920648228772 109.34964759625015 0 0 1 I I #
straight-curve $-1 -9.1932429749957691 2.0728920648228772 131.85109448564015 0.55919289150049634 0 -0.82903758062907751 I I #
edge $-1 $406 -20.376878868133215 $228 2.0728920648228772 $327 $413 forward 7 unknown #
point $-1 77.654957731864386 2.0728920648228772 11.270186332112477 #
point $-1 72.139604010013343 2.0728920648228772 11.270186332112459 #
edge $-1 $414 1 $414 0 $231 $-1 forward 7 unknown #
vertex $-1 $232 $415 #
ellipse-curve $-1 71.389905656476586 -15.886924681541991 4.8160077467635798 0.82903758062907751 0 0.55919289150049634 1.1183857830009927 0 -1.658075161258155 1 I I #
point $-1 76.015666653939888 -15.886924681541991 5.5236869657400458 #
edge $-1 $416 1 $416 0 $235 $-1 forward 7 unknown #
vertex $-1 $236 $417 #
ellipse-curve $-1 71.389905656476586 -9.1519934016551616 4.8160077467635798 0.82903758062907751 0 0.55919289150049634 1.1183857830009927 0 -1.658075161258155 1 I I #
point $-1 76.015666653939888 -9.1519934016551616 5.5236869657400458 #
edge $-1 $418 1 $418 0 $239 $-1 forward 7 unknown #
vertex $-1 $240 $419 #
ellipse-curve $-1 71.389905656476586 -2.4170621217683319 4.8160077467635798 0.82903758062907751 0 0.55919289150049634 1.1183857830009927 0 -1.658075161258155 1 I I #
point $-1 76.015666653939888 -2.4170621217683319 5.5236869657400458 #
plane-surface $-1 0 0 11.270186332112477 0 0 1 1 0 0 forward_v I I I I #
coedge $-1 $358 $357 $350 $420 forward $244 $-1 #
coedge $-1 $350 $246 $248 $354 reversed $159 $-1 #
coedge $-1 $246 $349 $348 $420 reversed $159 $-1 #
coedge $-1 $254 $249 $246 $352 forward $255 $-1 #
edge $-1 $355 -30.521193980750212 $421 -27.027660811069509 $351 $422 forward 7 unknown #
coedge $-1 $248 $247 $358 $423 reversed $100 $-1 #
edge $-1 $424 0 $355 6.5925764339653652 $349 $425 forward 7 unknown #
vertex $-1 $250 $426 #
straight-curve $-1 -74.161424562183669 -12.845639941400982 11.270186332112477 0 1 0 I I #
coedge $-1 $348 $251 $254 $362 reversed $244 $-1 #
coedge $-1 $251 $348 $353 $423 forward $244 $-1 #
vertex $-1 $252 $427 #
straight-curve $-1 -77.654957731864386 -32.777600325664899 43.990539273645481 0 0 1 I I #
straight-curve $-1 -77.654957731864386 -32.777600325664899 5.6793643862787349 -0.52991925155115449 0 -0.84804810408105047 I I #
edge $-1 $421 18.60495943993903 $256 32.777600325664899 $357 $428 forward 7 unknown #
point $-1 -77.654957731864386 -32.777600325664899 11.270186332112477 #
point $-1 -74.161424562183683 -32.777600325664899 11.270186332112477 #
edge $-1 $429 1 $429 0 $259 $-1 forward 7 unknown #
vertex $-1 $260 $430 #
ellipse-curve $-1 -73.120065100805476 -28.728274358314646 6.7325609016284522 -0.84804810408105047 0 0.52991925155115449 0.52991925155115449 0 0.84804810408105047 1 I I #
point $-1 -75.378271895472878 -28.728274358314646 9.3228234632766505 #
edge $-1 $431 1 $431 0 $263 $-1 forward 7 unknown #
vertex $-1 $264 $432 #
ellipse-curve $-1 -73.120065100805476 -22.654285407289272 6.7325609016284522 -0.84804810408105047 0 0.52991925155115449 0.52991925155115449 0 0.84804810408105047 1 I I #
point $-1 -75.378271895472878 -22.654285407289272 9.3228234632766505 #
plane-surface $-1 77.654957731864386 0 0 -1 0 0 0 0 1 forward_v I I I I #
coedge $-1 $272 $270 $274 $378 reversed $181 $-1 #
edge $-1 $285 -11.270186332112477 $380 11.270186332112477 $284 $433 forward 7 unknown #
vertex $-1 $378 $434 #
straight-curve $-1 -77.654957731864386 -50.883940137007166 0 0 0 -1 I I #
edge $-1 $376 -50.883940137007166 $380 50.883940137007166 $374 $435 forward 7 unknown #
straight-curve $-1 0 -50.883940137007166 -11.270186332112477 -1 0 0 I I #
vertex $-1 $277 $436 #
straight-curve $-1 0 50.883940137007166 -11.270186332112477 1 0 0 I I #
point $-1 77.654957731864386 50.883940137007166 -11.270186332112477 #
point $-1 77.654957731864386 -50.883940137007166 -11.270186332112477 #
straight-curve $-1 -77.654957731864386 0 11.270186332112477 0 -1 0 I I #
point $-1 -77.654957731864386 50.883940137007166 11.270186332112477 #
point $-1 -77.654957731864386 -50.883940137007166 11.270186332112477 #
straight-curve $-1 77.654957731864386 -50.883940137007166 0 0 0 -1 I I #
straight-curve $-1 77.654957731864386 50.883940137007166 0 0 0 -1 I I #
plane-surface $-1 0 -50.883940137007166 0 0 1 0 0 0 1 forward_v I I I I #
coedge $-1 $437 $297 $309 $401 reversed $200 $-1 #
coedge $-1 $297 $437 $312 $403 reversed $200 $-1 #
edge $-1 $438 -77.654957731864386 $306 -71.275730280413541 $302 $439 forward 7 unknown #
straight-curve $-1 -71.275730280413541 -22.672433646892983 11.270186332112477 0 1 0 I I #
coedge $-1 $309 $300 $303 $397 forward $295 $-1 #
straight-curve $-1 -71.275730280413541 -22.672433646892983 -11.270186332112477 0 -1 0 I I #
coedge $-1 $303 $302 $437 $440 forward $304 $-1 #
edge $-1 $305 71.275730280413541 $441 77.654957731864386 $303 $442 forward 7 unknown #
point $-1 -71.275730280413541 -50.883940137007166 -11.270186332112477 #
point $-1 -71.275730280413541 -50.883940137007166 11.270186332112477 #
straight-curve $-1 -77.654957731864386 -39.805794450564768 0 0 0 -1 I I #
edge $-1 $441 -50.883940137007166 $310 -39.805794450564768 $390 $443 forward 7 unknown #
point $-1 -77.654957731864386 -39.805794450564768 -11.270186332112477 #
edge $-1 $313 39.805794450564768 $438 50.883940137007166 $391 $444 forward 7 unknown #
point $-1 -77.654957731864386 -39.805794450564768 11.270186332112477 #
edge $-1 $406 98.079461264137677 $409 106.25630967436629 $318 $445 forward 7 unknown #
vertex $-1 $332 $446 #
straight-curve $-1 59.782256794380245 -20.376878868133215 11.270186332112473 1 0 0 I I #
edge $-1 $409 -15.80088216730563 $329 6.6488887656504616 $328 $447 forward 7 unknown #
vertex $-1 $408 $448 #
straight-curve $-1 -9.1932429749957691 -20.376878868133215 131.85109448564015 -0.55919289150049634 0 0.82903758062907751 I I #
point $-1 72.139604010013343 -20.376878868133215 11.270186332112459 #
point $-1 77.654957731864386 2.0728920648228772 3.0933379218838581 #
straight-curve $-1 77.654957731864386 0 11.270186332112477 0 1 0 I I #
vertex $-1 $335 $449 #
point $-1 72.508291439477574 -15.886924681541991 3.1579325855054252 #
vertex $-1 $339 $450 #
point $-1 72.508291439477574 -9.1519934016551616 3.1579325855054252 #
vertex $-1 $343 $451 #
point $-1 72.508291439477574 -2.4170621217683319 3.1579325855054252 #
edge $-1 $421 32.720352941533008 $424 38.311174887366747 $348 $452 forward 7 unknown #
vertex $-1 $362 $453 #
straight-curve $-1 -104.68261854293389 -18.60495943993903 11.270186332112473 -1 0 0 I I #
edge $-1 $424 5.7593194985380478 $359 19.931960384263917 $358 $454 forward 7 unknown #
vertex $-1 $423 $455 #
straight-curve $-1 -77.654957731864386 -18.60495943993903 5.6793643862787349 0.52991925155115449 0 0.84804810408105047 I I #
point $-1 -74.161424562183683 -18.60495943993903 11.270186332112477 #
point $-1 -77.654957731864386 -32.777600325664899 5.6793643862787349 #
straight-curve $-1 -77.654957731864386 0 11.270186332112477 0 -1 0 I I #
vertex $-1 $365 $456 #
point $-1 -72.590145849254327 -28.728274358314646 7.580609005709503 #
vertex $-1 $369 $457 #
point $-1 -72.590145849254327 -22.654285407289272 7.580609005709503 #
straight-curve $-1 -77.654957731864386 50.883940137007166 0 0 0 -1 I I #
point $-1 -77.654957731864386 -50.883940137007166 -11.270186332112477 #
straight-curve $-1 -77.654957731864386 0 -11.270186332112477 0 1 0 I I #
point $-1 -77.654957731864386 50.883940137007166 -11.270186332112477 #
coedge $-1 $391 $390 $396 $440 reversed $200 $-1 #
vertex $-1 $403 $458 #
straight-curve $-1 0 -50.883940137007166 11.270186332112477 1 0 0 I I #
edge $-1 $438 -11.270186332112477 $441 11.270186332112477 $437 $459 forward 7 unknown #
vertex $-1 $401 $460 #
straight-curve $-1 0 -50.883940137007166 -11.270186332112477 -1 0 0 I I #
straight-curve $-1 -77.654957731864386 0 -11.270186332112477 0 1 0 I I #
straight-curve $-1 -77.654957731864386 0 11.270186332112477 0 -1 0 I I #
straight-curve $-1 77.654957731864386 -20.376878868133215 109.34964759625015 0 0 -1 I I #
point $-1 77.654957731864386 -20.376878868133215 11.270186332112477 #
straight-curve $-1 77.654957731864386 -4.5759967008275844 3.0933379218838581 0 1 0 I I #
point $-1 77.654957731864386 -20.376878868133215 3.0933379218838581 #
point $-1 69.731830495218432 -15.886924681541991 3.6976219637625873 #
point $-1 69.731830495218432 -9.1519934016551616 3.6976219637625873 #
point $-1 69.731830495218432 -2.4170621217683319 3.6976219637625873 #
straight-curve $-1 -77.654957731864386 -18.60495943993903 43.990539273645481 0 0 -1 I I #
point $-1 -77.654957731864386 -18.60495943993903 11.270186332112477 #
straight-curve $-1 -77.654957731864386 -12.845639941400982 5.6793643862787313 0 -1 0 I I #
point $-1 -77.654957731864386 -18.60495943993903 5.6793643862787349 #
point $-1 -72.272016996724432 -28.728274358314646 6.2026416500772976 #
point $-1 -72.272016996724432 -22.654285407289272 6.2026416500772976 #
point $-1 -77.654957731864386 -50.883940137007166 11.270186332112477 #
straight-curve $-1 -77.654957731864386 -50.883940137007166 0 0 0 -1 I I #
point $-1 -77.654957731864386 -50.883940137007166 -11.270186332112477 #
End-of-ACIS-data 