500 0 13 0           
7 Unknown 11 ACIS 5.0 NT 24 Fri Mar 26 15:39:09 1999 
-1 9.9999999999999995e-007 1e-010 
body $-1 $13 $-1 $14 #
body $-1 $15 $-1 $16 #
body $-1 $17 $-1 $18 #
body $-1 $19 $-1 $20 #
body $-1 $21 $-1 $22 #
body $-1 $23 $-1 $24 #
body $-1 $25 $-1 $26 #
body $-1 $27 $-1 $28 #
body $-1 $29 $-1 $30 #
body $-1 $31 $-1 $32 #
body $-1 $33 $-1 $34 #
body $-1 $35 $-1 $36 #
body $-1 $37 $-1 $38 #
lump $-1 $-1 $39 $0 #
transform $-1 1 0 0 0 1 0 0 0 1 50.326242866298408 21.457499125232147 6.8029839598494428 1 rotate no_reflect no_shear #
lump $-1 $-1 $40 $1 #
transform $-1 1 0 0 0 1 0 0 0 1 50.326242866298408 21.457499125232147 6.8029839598494428 1 rotate no_reflect no_shear #
lump $-1 $-1 $41 $2 #
transform $-1 1 0 0 0 1 0 0 0 1 50.326242866298408 21.457499125232147 6.8029839598494428 1 rotate no_reflect no_shear #
lump $-1 $-1 $42 $3 #
transform $-1 1 0 0 0 1 0 0 0 1 50.326242866298408 21.457499125232147 6.8029839598494428 1 rotate no_reflect no_shear #
lump $-1 $-1 $43 $4 #
transform $-1 1 0 0 0 1 0 0 0 1 50.326242866298408 21.457499125232147 6.8029839598494428 1 rotate no_reflect no_shear #
lump $-1 $-1 $44 $5 #
transform $-1 1 0 0 0 1 0 0 0 1 50.326242866298408 21.457499125232147 6.8029839598494428 1 rotate no_reflect no_shear #
lump $-1 $-1 $45 $6 #
transform $-1 1 0 0 0 1 0 0 0 1 50.326242866298408 21.457499125232147 6.8029839598494428 1 rotate no_reflect no_shear #
lump $-1 $-1 $46 $7 #
transform $-1 1 0 0 0 1 0 0 0 1 50.326242866298408 21.457499125232147 6.8029839598494428 1 rotate no_reflect no_shear #
lump $-1 $-1 $47 $8 #
transform $-1 1 0 0 0 1 0 0 0 1 50.326242866298408 21.457499125232147 6.8029839598494428 1 rotate no_reflect no_shear #
lump $-1 $-1 $48 $9 #
transform $-1 1 0 0 0 1 0 0 0 1 50.326242866298408 21.457499125232147 6.8029839598494428 1 rotate no_reflect no_shear #
lump $-1 $-1 $49 $10 #
transform $-1 1 0 0 0 1 0 0 0 1 50.326242866298408 21.457499125232147 6.8029839598494428 1 rotate no_reflect no_shear #
lump $-1 $-1 $50 $11 #
transform $-1 1 0 0 0 1 0 0 0 1 50.326242866298408 21.457499125232147 6.8029839598494428 1 rotate no_reflect no_shear #
lump $-1 $-1 $51 $12 #
transform $-1 1 0 0 0 1 0 0 0 1 50.326242866298408 21.457499125232147 6.8029839598494428 1 rotate no_reflect no_shear #
shell $-1 $-1 $-1 $52 $-1 $13 #
shell $-1 $-1 $-1 $53 $-1 $15 #
shell $-1 $-1 $-1 $54 $-1 $17 #
shell $-1 $-1 $-1 $55 $-1 $19 #
shell $-1 $-1 $-1 $56 $-1 $21 #
shell $-1 $-1 $-1 $57 $-1 $23 #
shell $-1 $-1 $-1 $58 $-1 $25 #
shell $-1 $-1 $-1 $59 $-1 $27 #
shell $-1 $-1 $-1 $60 $-1 $29 #
shell $-1 $-1 $-1 $61 $-1 $31 #
shell $-1 $-1 $-1 $62 $-1 $33 #
shell $-1 $-1 $-1 $63 $-1 $35 #
shell $-1 $-1 $-1 $64 $-1 $37 #
face $-1 $65 $66 $39 $-1 $67 reversed single #
face $-1 $68 $69 $40 $-1 $70 reversed single #
face $-1 $71 $72 $41 $-1 $73 forward single #
face $-1 $74 $75 $42 $-1 $76 reversed single #
face $-1 $77 $78 $43 $-1 $79 forward single #
face $-1 $80 $81 $44 $-1 $82 reversed single #
face $-1 $83 $84 $45 $-1 $85 forward single #
face $-1 $86 $87 $46 $-1 $88 reversed single #
face $-1 $89 $90 $47 $-1 $91 forward single #
face $-1 $92 $93 $48 $-1 $94 forward single #
face $-1 $95 $96 $49 $-1 $97 reversed single #
face $-1 $98 $99 $50 $-1 $100 forward single #
face $-1 $101 $102 $51 $-1 $103 forward single #
face $-1 $104 $105 $39 $-1 $106 forward single #
loop $-1 $-1 $107 $52 #
plane-surface $-1 50.326242866298408 0 0 -1 0 0 0 0 1 forward_v I I I I #
face $-1 $108 $109 $40 $-1 $110 reversed single #
loop $-1 $-1 $111 $53 #
plane-surface $-1 -46.737569690393542 0 3.8029839598494428 0 0 1 1 0 0 forward_v I I I I #
face $-1 $112 $113 $41 $-1 $114 reversed single #
loop $-1 $-1 $115 $54 #
plane-surface $-1 50.326242866298408 0 0 -1 0 0 0 0 1 forward_v I I I I #
face $-1 $116 $117 $42 $-1 $118 reversed single #
loop $-1 $-1 $119 $55 #
plane-surface $-1 -17.041807480186417 76.015259036253482 96.765301347873915 1 0 0 0 -0.79863551827123203 -0.60181501223851219 forward_v I I I I #
face $-1 $120 $121 $43 $-1 $122 forward single #
loop $-1 $123 $124 $56 #
cone-surface $-1 -8.9632959716519949 18.655253620375966 3.6357336153417421 0 -0.79863551827123203 -0.60181501223851219 1.5 0 0 1 I I 0 1 1.5 forward I I I I #
face $-1 $125 $126 $44 $-1 $127 reversed single #
loop $-1 $-1 $128 $57 #
plane-surface $-1 25.222304571184683 76.015259036253482 96.765301347873915 1 0 0 0 -0.79863551827123203 -0.60181501223851219 forward_v I I I I #
face $-1 $129 $130 $45 $-1 $131 forward single #
loop $-1 $132 $133 $58 #
cone-surface $-1 33.300816079719105 18.655253620375966 3.6357336153417421 0 -0.79863551827123203 -0.60181501223851219 1.5 0 0 1 I I 0 1 1.5 forward I I I I #
face $-1 $134 $135 $46 $-1 $136 reversed single #
loop $-1 $-1 $137 $59 #
plane-surface $-1 -0.88478446311757253 -84.80016159316969 81.247741095504168 -1 0 0 0 -0.62932039886446345 0.77714595512881146 forward_v I I I I #
face $-1 $138 $139 $47 $-1 $140 forward single #
loop $-1 $141 $142 $60 #
cone-surface $-1 -12.570069143722954 -17.927997625861966 3.4357979701650887 0 0.62932039886446345 -0.77714595512881146 1 0 0 1 I I 0 1 1 forward I I I I #
face $-1 $143 $144 $48 $-1 $145 forward single #
loop $-1 $146 $147 $61 #
cone-surface $-1 -5.5588983353597214 -17.927997625861966 3.4357979701650887 0 0.62932039886446345 -0.77714595512881146 1 0 0 1 I I 0 1 1 forward I I I I #
face $-1 $148 $149 $49 $-1 $150 reversed single #
loop $-1 $-1 $151 $62 #
plane-surface $-1 -9.0644837395413376 -21.457499125232147 3.0260689347561538 0 -0.62932039886446345 0.77714595512881146 1 0 0 forward_v I I I I #
face $-1 $152 $153 $50 $-1 $154 forward single #
loop $-1 $155 $156 $63 #
cone-surface $-1 3.7893294091245764 -17.927997625861966 3.4357979701650887 0 0.62932039886446345 -0.77714595512881146 1 0 0 1 I I 0 1 1 forward I I I I #
face $-1 $157 $158 $51 $-1 $159 forward single #
loop $-1 $160 $161 $64 #
cone-surface $-1 10.800500217487809 -17.927997625861966 3.4357979701650887 0 0.62932039886446345 -0.77714595512881146 1 0 0 1 I I 0 1 1 forward I I I I #
face $-1 $162 $163 $39 $-1 $164 reversed single #
loop $-1 $-1 $165 $65 #
plane-surface $-1 0 0 6.8029839598494428 0 0 1 1 0 0 forward_v I I I I #
coedge $-1 $166 $167 $168 $169 reversed $66 $-1 #
face $-1 $170 $171 $40 $-1 $172 reversed single #
loop $-1 $-1 $173 $68 #
plane-surface $-1 -43.148896514488676 0 5.3029839598494428 -1 0 0 0 0 1 forward_v I I I I #
coedge $-1 $174 $175 $176 $177 forward $69 $-1 #
face $-1 $178 $179 $41 $-1 $180 reversed single #
loop $-1 $-1 $181 $71 #
plane-surface $-1 0 0 -6.8029839598494428 0 0 1 1 0 0 forward_v I I I I #
coedge $-1 $182 $183 $184 $185 forward $72 $-1 #
face $-1 $186 $187 $42 $-1 $188 reversed single #
loop $-1 $-1 $189 $74 #
plane-surface $-1 -8.9632959716519949 -4.3693910720867564 36.191124414874487 0 0.79863551827123203 0.60181501223851219 1 0 0 forward_v I I I I #
coedge $-1 $190 $191 $192 $193 reversed $75 $-1 #
face $-1 $-1 $194 $43 $-1 $195 forward single #
loop $-1 $196 $197 $77 #
cone-surface $-1 -8.9632959716519949 17.094700757858455 2.4597727188269145 0 -0.79863551827123203 -0.60181501223851219 0.75 0 0 1 I I -0.70710678118654757 0.70710678118654757 0.75 forward I I I I #
loop $-1 $-1 $198 $56 #
coedge $-1 $124 $124 $199 $200 reversed $78 $-1 #
face $-1 $201 $202 $44 $-1 $203 reversed single #
loop $-1 $-1 $204 $80 #
plane-surface $-1 33.300816079719105 -4.3693910720867564 36.191124414874487 0 0.79863551827123203 0.60181501223851219 1 0 0 forward_v I I I I #
coedge $-1 $205 $206 $207 $208 reversed $81 $-1 #
face $-1 $-1 $209 $45 $-1 $210 forward single #
loop $-1 $211 $212 $83 #
cone-surface $-1 33.300816079719105 17.094700757858455 2.4597727188269145 0 -0.79863551827123203 -0.60181501223851219 0.75 0 0 1 I I -0.70710678118654757 0.70710678118654757 0.75 forward I I I I #
loop $-1 $-1 $213 $58 #
coedge $-1 $133 $133 $214 $215 reversed $84 $-1 #
face $-1 $216 $217 $46 $-1 $218 reversed single #
loop $-1 $-1 $219 $86 #
plane-surface $-1 -9.0644837395413376 -21.457499125232147 3.0260689347561538 0 -0.62932039886446345 0.77714595512881146 1 0 0 forward_v I I I I #
coedge $-1 $220 $221 $222 $223 reversed $87 $-1 #
face $-1 $-1 $224 $47 $-1 $225 forward single #
loop $-1 $226 $227 $89 #
cone-surface $-1 -12.570069143722954 -16.415886691592807 1.5684965154629795 0 0.62932039886446345 -0.77714595512881146 0.5 0 0 1 I I -0.70710678118654746 0.70710678118654746 0.5 forward I I I I #
loop $-1 $-1 $228 $60 #
coedge $-1 $142 $142 $229 $230 reversed $90 $-1 #
face $-1 $-1 $231 $48 $-1 $232 forward single #
loop $-1 $233 $234 $92 #
cone-surface $-1 -5.5588983353597214 -16.415886691592807 1.5684965154629795 0 0.62932039886446345 -0.77714595512881146 0.5 0 0 1 I I -0.70710678118654746 0.70710678118654746 0.5 forward I I I I #
loop $-1 $-1 $235 $61 #
coedge $-1 $147 $147 $236 $237 reversed $93 $-1 #
face $-1 $238 $239 $49 $-1 $240 reversed single #
loop $-1 $-1 $241 $95 #
plane-surface $-1 15.474614089729958 -84.80016159316969 81.247741095504168 -1 0 0 0 -0.62932039886446345 0.77714595512881146 forward_v I I I I #
coedge $-1 $242 $243 $244 $245 reversed $96 $-1 #
face $-1 $-1 $246 $50 $-1 $247 forward single #
loop $-1 $248 $249 $98 #
cone-surface $-1 3.7893294091245764 -16.415886691592807 1.5684965154629795 0 0.62932039886446345 -0.77714595512881146 0.5 0 0 1 I I -0.70710678118654746 0.70710678118654746 0.5 forward I I I I #
loop $-1 $-1 $250 $63 #
coedge $-1 $156 $156 $251 $252 reversed $99 $-1 #
face $-1 $-1 $253 $51 $-1 $254 forward single #
loop $-1 $255 $256 $101 #
cone-surface $-1 10.800500217487809 -16.415886691592807 1.5684965154629795 0 0.62932039886446345 -0.77714595512881146 0.5 0 0 1 I I -0.70710678118654746 0.70710678118654746 0.5 forward I I I I #
loop $-1 $-1 $257 $64 #
coedge $-1 $161 $161 $258 $259 reversed $102 $-1 #
face $-1 $260 $261 $39 $-1 $262 reversed single #
loop $-1 $-1 $168 $104 #
plane-surface $-1 0 0 -6.8029839598494428 0 0 1 1 0 0 forward_v I I I I #
coedge $-1 $263 $264 $265 $266 forward $105 $-1 #
coedge $-1 $265 $107 $267 $268 reversed $66 $-1 #
coedge $-1 $107 $265 $269 $270 forward $66 $-1 #
coedge $-1 $271 $272 $107 $169 forward $163 $-1 #
edge $-1 $273 -21.457499125232147 $274 21.457499125232147 $107 $275 forward 7 unknown #
face $-1 $276 $277 $40 $-1 $278 reversed single #
loop $-1 $-1 $279 $108 #
plane-surface $-1 0 21.457499125232147 0 0 -1 0 0 0 -1 forward_v I I I I #
coedge $-1 $176 $280 $281 $282 reversed $109 $-1 #
coedge $-1 $283 $111 $284 $285 reversed $69 $-1 #
coedge $-1 $111 $283 $286 $287 reversed $69 $-1 #
coedge $-1 $288 $173 $111 $177 reversed $109 $-1 #
edge $-1 $289 -21.457499125232147 $290 21.457499125232147 $176 $291 forward 7 unknown #
face $-1 $292 $293 $41 $-1 $294 reversed single #
loop $-1 $-1 $184 $112 #
plane-surface $-1 54.79970050532085 -12.399660714405059 0 0 1 0 0 0 1 forward_v I I I I #
coedge $-1 $295 $296 $183 $297 forward $113 $-1 #
coedge $-1 $298 $115 $299 $300 reversed $72 $-1 #
coedge $-1 $115 $298 $181 $297 reversed $72 $-1 #
coedge $-1 $301 $302 $115 $185 reversed $179 $-1 #
edge $-1 $303 -6.8029839598494428 $304 6.8029839598494428 $184 $305 forward 7 unknown #
face $-1 $306 $307 $42 $-1 $308 reversed single #
loop $-1 $-1 $309 $116 #
plane-surface $-1 -0.88478446311757253 76.015259036253482 96.765301347873915 -1 0 0 0 0.79863551827123203 0.60181501223851219 forward_v I I I I #
coedge $-1 $310 $311 $312 $313 reversed $117 $-1 #
coedge $-1 $191 $119 $314 $315 reversed $75 $-1 #
coedge $-1 $119 $190 $310 $316 reversed $75 $-1 #
coedge $-1 $312 $317 $119 $193 forward $318 $-1 #
edge $-1 $319 16.550130392894594 $320 20.231468954978777 $192 $321 forward 7 unknown #
loop $-1 $-1 $199 $120 #
plane-surface $-1 -8.9632959716519949 -4.3693910720867564 36.191124414874487 0 0.79863551827123203 0.60181501223851219 1 0 0 forward_v I I I I #
loop $-1 $-1 $322 $77 #
coedge $-1 $197 $197 $198 $323 reversed $121 $-1 #
coedge $-1 $198 $198 $197 $323 forward $123 $-1 #
coedge $-1 $199 $199 $124 $200 forward $194 $-1 #
edge $-1 $324 9.5249706236848006e-016 $324 6.2831853071796013 $199 $325 forward 7 unknown #
face $-1 $326 $327 $44 $-1 $328 forward single #
loop $-1 $-1 $329 $125 #
plane-surface $-1 41.379327588253531 76.015259036253482 96.765301347873915 -1 0 0 0 0.79863551827123203 0.60181501223851219 forward_v I I I I #
coedge $-1 $330 $331 $332 $333 reversed $126 $-1 #
coedge $-1 $206 $128 $334 $335 reversed $81 $-1 #
coedge $-1 $128 $205 $330 $336 reversed $81 $-1 #
coedge $-1 $332 $337 $128 $208 forward $327 $-1 #
edge $-1 $338 16.550130392894594 $339 20.231468954978777 $207 $340 forward 7 unknown #
loop $-1 $-1 $214 $129 #
plane-surface $-1 33.300816079719105 -4.3693910720867564 36.191124414874487 0 0.79863551827123203 0.60181501223851219 1 0 0 forward_v I I I I #
loop $-1 $-1 $341 $83 #
coedge $-1 $212 $212 $213 $342 reversed $130 $-1 #
coedge $-1 $213 $213 $212 $342 forward $132 $-1 #
coedge $-1 $214 $214 $133 $215 forward $209 $-1 #
edge $-1 $343 9.5249706236848006e-016 $343 6.2831853071796013 $214 $344 forward 7 unknown #
face $-1 $345 $346 $46 $-1 $347 forward single #
loop $-1 $-1 $348 $134 #
plane-surface $-1 -17.244183015965103 -84.80016159316969 81.247741095504168 1 0 0 0 0.62932039886446345 -0.77714595512881146 forward_v I I I I #
coedge $-1 $349 $350 $351 $352 reversed $135 $-1 #
coedge $-1 $221 $137 $353 $354 reversed $87 $-1 #
coedge $-1 $137 $220 $349 $355 reversed $87 $-1 #
coedge $-1 $351 $356 $137 $223 forward $346 $-1 #
edge $-1 $357 20.942581671352698 $358 25.606683200419198 $222 $359 forward 7 unknown #
loop $-1 $-1 $229 $138 #
plane-surface $-1 -9.0644837395413376 -21.457499125232147 3.0260689347561538 0 -0.62932039886446345 0.77714595512881146 1 0 0 forward_v I I I I #
loop $-1 $-1 $360 $89 #
coedge $-1 $227 $227 $228 $361 reversed $139 $-1 #
coedge $-1 $228 $228 $227 $361 forward $141 $-1 #
coedge $-1 $229 $229 $142 $230 forward $224 $-1 #
edge $-1 $362 2.168261346330268e-015 $362 6.2831853071796022 $229 $363 forward 7 unknown #
loop $-1 $-1 $236 $143 #
plane-surface $-1 -9.0644837395413376 -21.457499125232147 3.0260689347561538 0 -0.62932039886446345 0.77714595512881146 1 0 0 forward_v I I I I #
loop $-1 $-1 $364 $92 #
coedge $-1 $234 $234 $235 $365 reversed $144 $-1 #
coedge $-1 $235 $235 $234 $365 forward $146 $-1 #
coedge $-1 $236 $236 $147 $237 forward $231 $-1 #
edge $-1 $366 2.168261346330268e-015 $366 6.2831853071796022 $236 $367 forward 7 unknown #
face $-1 $368 $369 $49 $-1 $370 forward single #
loop $-1 $-1 $371 $148 #
plane-surface $-1 0 -21.457499125232147 0 0 1 0 0 0 1 forward_v I I I I #
coedge $-1 $372 $373 $374 $375 reversed $149 $-1 #
coedge $-1 $376 $151 $377 $378 reversed $96 $-1 #
coedge $-1 $151 $376 $371 $379 reversed $96 $-1 #
coedge $-1 $380 $381 $151 $245 forward $369 $-1 #
edge $-1 $382 -6.0015773076930277 $383 0 $244 $384 forward 7 unknown #
loop $-1 $-1 $251 $152 #
plane-surface $-1 -9.0644837395413376 -21.457499125232147 3.0260689347561538 0 -0.62932039886446345 0.77714595512881146 1 0 0 forward_v I I I I #
loop $-1 $-1 $385 $98 #
coedge $-1 $249 $249 $250 $386 reversed $153 $-1 #
coedge $-1 $250 $250 $249 $386 forward $155 $-1 #
coedge $-1 $251 $251 $156 $252 forward $246 $-1 #
edge $-1 $387 2.168261346330268e-015 $387 6.2831853071796022 $251 $388 forward 7 unknown #
loop $-1 $-1 $258 $157 #
plane-surface $-1 -9.0644837395413376 -21.457499125232147 3.0260689347561538 0 -0.62932039886446345 0.77714595512881146 1 0 0 forward_v I I I I #
loop $-1 $-1 $389 $101 #
coedge $-1 $256 $256 $257 $390 reversed $158 $-1 #
coedge $-1 $257 $257 $256 $390 forward $160 $-1 #
coedge $-1 $258 $258 $161 $259 forward $253 $-1 #
edge $-1 $391 2.168261346330268e-015 $391 6.2831853071796022 $258 $392 forward 7 unknown #
face $-1 $393 $394 $39 $-1 $395 reversed single #
loop $-1 $-1 $396 $162 #
plane-surface $-1 0 -21.457499125232147 0 0 1 0 0 0 1 forward_v I I I I #
coedge $-1 $397 $165 $398 $399 forward $105 $-1 #
coedge $-1 $165 $397 $400 $401 forward $105 $-1 #
coedge $-1 $167 $166 $165 $266 reversed $66 $-1 #
edge $-1 $402 -21.457499125232147 $403 21.457499125232147 $265 $404 forward 7 unknown #
coedge $-1 $405 $398 $166 $268 forward $406 $-1 #
edge $-1 $403 -6.8029839598494428 $273 6.8029839598494428 $166 $407 forward 7 unknown #
coedge $-1 $400 $408 $167 $270 reversed $261 $-1 #
edge $-1 $402 -6.8029839598494428 $274 6.8029839598494428 $167 $409 forward 7 unknown #
coedge $-1 $410 $168 $408 $411 forward $163 $-1 #
coedge $-1 $168 $410 $405 $412 forward $163 $-1 #
vertex $-1 $169 $413 #
vertex $-1 $270 $414 #
straight-curve $-1 50.326242866298408 0 -6.8029839598494428 0 -1 0 I I #
face $-1 $415 $416 $40 $-1 $417 forward single #
loop $-1 $-1 $418 $170 #
plane-surface $-1 -50.326242866298408 0 0 1 0 0 0 0 -1 forward_v I I I I #
coedge $-1 $286 $419 $288 $420 forward $171 $-1 #
coedge $-1 $173 $288 $421 $422 reversed $109 $-1 #
coedge $-1 $423 $284 $173 $282 forward $424 $-1 #
edge $-1 $290 1.1514919799247214 $425 4.151491979924721 $281 $426 forward 7 unknown #
coedge $-1 $175 $174 $418 $427 reversed $69 $-1 #
coedge $-1 $281 $428 $174 $285 forward $424 $-1 #
edge $-1 $429 -26.957458021101637 $290 -19.780111669291905 $284 $430 forward 7 unknown #
coedge $-1 $431 $279 $175 $287 forward $171 $-1 #
edge $-1 $289 19.780111669291905 $432 26.957458021101637 $286 $433 forward 7 unknown #
coedge $-1 $280 $176 $279 $420 reversed $109 $-1 #
vertex $-1 $287 $434 #
vertex $-1 $285 $435 #
straight-curve $-1 -43.148896514488676 0 3.8029839598494428 0 -1 0 I I #
face $-1 $436 $437 $41 $-1 $438 reversed single #
loop $-1 $-1 $439 $178 #
plane-surface $-1 54.79970050532085 -9.1070638144980691 0 0 -1 0 0 0 -1 forward_v I I I I #
coedge $-1 $440 $181 $441 $442 forward $113 $-1 #
coedge $-1 $181 $440 $301 $443 forward $113 $-1 #
edge $-1 $303 -12.399660714405059 $444 -9.1070638144980691 $181 $445 forward 7 unknown #
coedge $-1 $183 $182 $446 $447 forward $72 $-1 #
coedge $-1 $448 $449 $182 $300 forward $450 $-1 #
edge $-1 $451 9.1070638144980691 $304 12.399660714405059 $299 $452 forward 7 unknown #
coedge $-1 $453 $184 $296 $443 reversed $179 $-1 #
coedge $-1 $184 $453 $448 $454 reversed $179 $-1 #
vertex $-1 $297 $455 #
vertex $-1 $454 $456 #
straight-curve $-1 50.326242866298408 -12.399660714405059 0 0 0 1 I I #
face $-1 $-1 $318 $42 $-1 $457 forward single #
loop $-1 $-1 $458 $186 #
plane-surface $-1 0 21.457499125232147 0 0 -1 0 0 0 -1 forward_v I I I I #
coedge $-1 $459 $460 $461 $462 reversed $187 $-1 #
coedge $-1 $463 $189 $191 $316 forward $117 $-1 #
coedge $-1 $189 $463 $459 $464 forward $117 $-1 #
coedge $-1 $461 $192 $189 $313 forward $318 $-1 #
edge $-1 $320 -12.56015949436042 $465 3.5968635227084249 $312 $466 forward 7 unknown #
coedge $-1 $467 $468 $190 $315 forward $307 $-1 #
edge $-1 $469 -46.464968128431046 $319 -41.579666714087516 $314 $470 forward 7 unknown #
edge $-1 $320 36.797938211714076 $469 42.914998250464301 $191 $471 forward 7 unknown #
coedge $-1 $192 $461 $467 $472 forward $318 $-1 #
loop $-1 $-1 $461 $306 #
vertex $-1 $315 $473 #
vertex $-1 $193 $474 #
straight-curve $-1 -17.041807480186417 38.007629518126741 6.8029839598494419 0 -1 0 I I #
coedge $-1 $322 $322 $-1 $475 reversed $196 $-1 #
edge $-1 $476 0 $476 6.2831853071796004 $197 $477 forward 7 unknown #
vertex $-1 $200 $478 #
ellipse-curve $-1 -8.9632959716519949 19.61682984419005 4.3603332526776839 0 0.79863551827123203 0.60181501223851219 1.5 0 0 1 I I #
face $-1 $-1 $479 $44 $-1 $480 reversed single #
loop $-1 $-1 $207 $201 #
plane-surface $-1 0 0 6.8029839598494428 0 0 1 1 0 0 forward_v I I I I #
coedge $-1 $481 $482 $483 $484 reversed $202 $-1 #
coedge $-1 $485 $204 $206 $336 forward $126 $-1 #
coedge $-1 $204 $485 $481 $486 forward $126 $-1 #
coedge $-1 $483 $207 $204 $333 forward $327 $-1 #
edge $-1 $339 8.5718965313251303 $487 24.728919548393979 $332 $488 forward 7 unknown #
coedge $-1 $489 $490 $205 $335 forward $479 $-1 #
edge $-1 $491 -46.464968128431046 $338 -41.579666714087516 $334 $492 forward 7 unknown #
edge $-1 $339 36.797938211714076 $491 42.914998250464301 $206 $493 forward 7 unknown #
coedge $-1 $207 $483 $489 $494 forward $327 $-1 #
vertex $-1 $335 $495 #
vertex $-1 $208 $496 #
straight-curve $-1 25.222304571184683 38.007629518126741 6.8029839598494419 0 -1 0 I I #
coedge $-1 $341 $341 $-1 $497 reversed $211 $-1 #
edge $-1 $498 0 $498 6.2831853071796004 $212 $499 forward 7 unknown #
vertex $-1 $215 $500 #
ellipse-curve $-1 33.300816079719105 19.61682984419005 4.3603332526776839 0 0.79863551827123203 0.60181501223851219 1.5 0 0 1 I I #
face $-1 $-1 $501 $46 $-1 $502 reversed single #
loop $-1 $-1 $222 $216 #
plane-surface $-1 0 0 6.8029839598494428 0 0 1 1 0 0 forward_v I I I I #
coedge $-1 $503 $504 $505 $506 reversed $217 $-1 #
coedge $-1 $507 $219 $221 $355 forward $135 $-1 #
coedge $-1 $219 $507 $503 $508 forward $135 $-1 #
coedge $-1 $505 $222 $219 $352 forward $346 $-1 #
edge $-1 $358 -3.6474574066530963 $509 12.711941146194434 $351 $510 forward 7 unknown #
coedge $-1 $511 $512 $220 $354 forward $501 $-1 #
edge $-1 $513 -37.59780161299593 $357 -33.820886587902642 $353 $514 forward 7 unknown #
edge $-1 $358 -6.0015773076930277 $513 0 $221 $515 forward 7 unknown #
coedge $-1 $222 $505 $511 $516 forward $346 $-1 #
vertex $-1 $223 $517 #
vertex $-1 $223 $518 #
straight-curve $-1 -0.88478446311757253 -42.400080796584845 6.8029839598494419 0 1 0 I I #
coedge $-1 $360 $360 $-1 $519 reversed $226 $-1 #
edge $-1 $520 0 $520 6.2831853071796004 $227 $521 forward 7 unknown #
vertex $-1 $230 $522 #
ellipse-curve $-1 -12.570069143722954 -19.125448360698897 4.9145264473027979 0 -0.62932039886446345 0.77714595512881146 1 0 0 1 I I #
coedge $-1 $364 $364 $-1 $523 reversed $233 $-1 #
edge $-1 $524 0 $524 6.2831853071796004 $234 $525 forward 7 unknown #
vertex $-1 $237 $526 #
ellipse-curve $-1 -5.5588983353597214 -19.125448360698897 4.9145264473027979 0 -0.62932039886446345 0.77714595512881146 1 0 0 1 I I #
face $-1 $-1 $527 $49 $-1 $528 forward single #
loop $-1 $-1 $381 $238 #
plane-surface $-1 -0.88478446311757253 -84.80016159316969 81.247741095504168 -1 0 0 0 -0.62932039886446345 0.77714595512881146 forward_v I I I I #
coedge $-1 $374 $529 $243 $379 forward $239 $-1 #
coedge $-1 $373 $241 $376 $530 reversed $149 $-1 #
coedge $-1 $241 $372 $531 $532 reversed $149 $-1 #
coedge $-1 $533 $371 $241 $375 forward $239 $-1 #
edge $-1 $534 -37.59780161299593 $535 -33.820886587902642 $374 $536 forward 7 unknown #
coedge $-1 $243 $242 $372 $530 forward $96 $-1 #
coedge $-1 $537 $531 $242 $378 forward $527 $-1 #
edge $-1 $538 -20.006855959500626 $382 -3.6474574066530963 $377 $539 forward 7 unknown #
edge $-1 $383 3.6474574066530963 $534 20.006855959500626 $371 $540 forward 7 unknown #
coedge $-1 $381 $244 $529 $541 reversed $369 $-1 #
coedge $-1 $244 $380 $537 $542 reversed $369 $-1 #
vertex $-1 $378 $543 #
vertex $-1 $379 $544 #
straight-curve $-1 -0.88478446311757253 -21.457499125232147 3.0260689347561538 0 -0.77714595512881146 -0.62932039886446345 I I #
coedge $-1 $385 $385 $-1 $545 reversed $248 $-1 #
edge $-1 $546 0 $546 6.2831853071796004 $249 $547 forward 7 unknown #
vertex $-1 $252 $548 #
ellipse-curve $-1 3.7893294091245764 -19.125448360698897 4.9145264473027979 0 -0.62932039886446345 0.77714595512881146 1 0 0 1 I I #
coedge $-1 $389 $389 $-1 $549 reversed $255 $-1 #
edge $-1 $550 0 $550 6.2831853071796004 $256 $551 forward 7 unknown #
vertex $-1 $259 $552 #
ellipse-curve $-1 10.800500217487809 -19.125448360698897 4.9145264473027979 0 -0.62932039886446345 0.77714595512881146 1 0 0 1 I I #
face $-1 $-1 $406 $39 $-1 $553 reversed single #
loop $-1 $-1 $554 $260 #
plane-surface $-1 -50.326242866298408 0 0 1 0 0 0 0 -1 forward_v I I I I #
coedge $-1 $408 $400 $555 $556 forward $261 $-1 #
coedge $-1 $264 $263 $557 $558 forward $105 $-1 #
coedge $-1 $267 $559 $263 $399 reversed $406 $-1 #
edge $-1 $403 -50.326242866298408 $560 50.326242866298408 $398 $561 forward 7 unknown #
coedge $-1 $396 $269 $264 $401 reversed $261 $-1 #
edge $-1 $562 -50.326242866298408 $402 50.326242866298408 $400 $563 forward 7 unknown #
vertex $-1 $266 $564 #
vertex $-1 $266 $565 #
straight-curve $-1 50.326242866298408 0 6.8029839598494428 0 1 0 I I #
coedge $-1 $559 $267 $272 $412 reversed $406 $-1 #
loop $-1 $-1 $267 $393 #
straight-curve $-1 50.326242866298408 21.457499125232147 0 0 0 -1 I I #
coedge $-1 $269 $396 $271 $411 reversed $261 $-1 #
straight-curve $-1 50.326242866298408 -21.457499125232147 0 0 0 -1 I I #
coedge $-1 $272 $271 $566 $567 forward $163 $-1 #
edge $-1 $274 -50.326242866298408 $568 50.326242866298408 $408 $569 forward 7 unknown #
edge $-1 $570 -50.326242866298408 $273 50.326242866298408 $405 $571 forward 7 unknown #
point $-1 50.326242866298408 21.457499125232147 -6.8029839598494428 #
point $-1 50.326242866298408 -21.457499125232147 -6.8029839598494428 #
face $-1 $-1 $424 $40 $-1 $572 reversed single #
loop $-1 $-1 $421 $276 #
plane-surface $-1 0 0 6.8029839598494428 0 0 1 1 0 0 forward_v I I I I #
coedge $-1 $573 $574 $283 $427 forward $277 $-1 #
coedge $-1 $279 $431 $575 $576 reversed $171 $-1 #
edge $-1 $577 -4.151491979924721 $289 -1.1514919799247214 $279 $578 forward 7 unknown #
coedge $-1 $575 $579 $280 $422 forward $416 $-1 #
edge $-1 $425 -21.457499125232147 $577 21.457499125232147 $421 $580 forward 7 unknown #
coedge $-1 $428 $281 $579 $581 reversed $424 $-1 #
loop $-1 $-1 $281 $415 #
vertex $-1 $282 $582 #
straight-curve $-1 -43.148896514488676 -21.457499125232147 2.6514919799247214 0 0 1 I I #
edge $-1 $432 -21.457499125232147 $429 21.457499125232147 $418 $583 forward 7 unknown #
coedge $-1 $284 $423 $573 $584 forward $424 $-1 #
vertex $-1 $427 $585 #
straight-curve $-1 -23.368784845196771 -21.457499125232147 3.8029839598494428 1 0 0 I I #
coedge $-1 $419 $286 $574 $586 reversed $171 $-1 #
vertex $-1 $427 $587 #
straight-curve $-1 -23.368784845196771 21.457499125232147 3.8029839598494428 -1 0 0 I I #
point $-1 -43.148896514488676 21.457499125232147 3.8029839598494428 #
point $-1 -43.148896514488676 -21.457499125232147 3.8029839598494428 #
face $-1 $-1 $450 $41 $-1 $588 forward single #
loop $-1 $-1 $589 $292 #
plane-surface $-1 59.273158144343292 -10.753362264451564 0 -1 0 0 0 0 1 forward_v I I I I #
coedge $-1 $441 $590 $591 $592 forward $293 $-1 #
coedge $-1 $296 $295 $593 $594 forward $113 $-1 #
coedge $-1 $446 $439 $295 $442 reversed $293 $-1 #
edge $-1 $444 -4.4734576390224419 $595 4.4734576390224419 $441 $596 forward 7 unknown #
edge $-1 $597 -4.4734576390224419 $303 4.4734576390224419 $301 $598 forward 7 unknown #
vertex $-1 $442 $599 #
straight-curve $-1 50.326242866298408 0 -6.8029839598494428 0 1 0 I I #
coedge $-1 $590 $441 $298 $447 reversed $293 $-1 #
edge $-1 $451 -6.8029839598494428 $444 6.8029839598494428 $446 $600 forward 7 unknown #
coedge $-1 $601 $299 $302 $454 forward $450 $-1 #
coedge $-1 $299 $601 $590 $602 forward $450 $-1 #
loop $-1 $-1 $299 $436 #
vertex $-1 $300 $603 #
straight-curve $-1 50.326242866298408 0 6.8029839598494428 0 -1 0 I I #
coedge $-1 $302 $301 $589 $604 reversed $179 $-1 #
edge $-1 $304 -4.4734576390224419 $605 4.4734576390224419 $302 $606 forward 7 unknown #
point $-1 50.326242866298408 -12.399660714405059 -6.8029839598494428 #
point $-1 50.326242866298408 -12.399660714405059 6.8029839598494428 #
plane-surface $-1 0 0 6.8029839598494428 0 0 1 1 0 0 forward_v I I I I #
coedge $-1 $468 $467 $460 $607 forward $307 $-1 #
coedge $-1 $460 $309 $311 $464 reversed $187 $-1 #
coedge $-1 $309 $459 $458 $607 reversed $187 $-1 #
coedge $-1 $317 $312 $309 $462 forward $318 $-1 #
edge $-1 $465 -20.231468954978777 $608 -16.550130392894594 $461 $609 forward 7 unknown #
coedge $-1 $311 $310 $468 $610 reversed $117 $-1 #
edge $-1 $611 -42.914998250464301 $465 -36.797938211714076 $459 $612 forward 7 unknown #
vertex $-1 $313 $613 #
straight-curve $-1 -4.4816479858259974 17.776160563147961 6.8029839598494455 1 0 0 I I #
coedge $-1 $458 $314 $317 $472 reversed $307 $-1 #
coedge $-1 $314 $458 $463 $610 forward $307 $-1 #
vertex $-1 $315 $614 #
straight-curve $-1 -17.041807480186417 21.457499125232147 48.382650673936958 0 0 1 I I #
straight-curve $-1 -17.041807480186417 -4.3693910720867564 36.191124414874487 0 0.60181501223851219 -0.79863551827123203 I I #
edge $-1 $608 0.88478446311757253 $319 17.041807480186417 $467 $615 forward 7 unknown #
point $-1 -17.041807480186417 21.457499125232147 6.8029839598494428 #
point $-1 -17.041807480186417 17.776160563147965 6.8029839598494419 #
edge $-1 $616 1 $616 0 $322 $-1 forward 7 unknown #
vertex $-1 $323 $617 #
ellipse-curve $-1 -8.9632959716519949 17.693677396561878 2.9111339780057985 0 0.79863551827123203 0.60181501223851219 1.5 0 0 1 I I #
point $-1 -7.4632959716519949 19.616829844190054 4.3603332526776848 #
loop $-1 $-1 $334 $326 #
plane-surface $-1 0 21.457499125232147 0 0 -1 0 0 0 -1 forward_v I I I I #
coedge $-1 $482 $329 $331 $486 reversed $202 $-1 #
coedge $-1 $329 $481 $618 $619 reversed $202 $-1 #
coedge $-1 $337 $332 $329 $484 forward $327 $-1 #
edge $-1 $487 -20.231468954978777 $620 -16.550130392894594 $483 $621 forward 7 unknown #
coedge $-1 $331 $330 $490 $622 reversed $126 $-1 #
edge $-1 $623 -42.914998250464301 $487 -36.797938211714076 $481 $624 forward 7 unknown #
vertex $-1 $333 $625 #
straight-curve $-1 16.650408039859553 17.776160563147961 6.8029839598494455 1 0 0 I I #
coedge $-1 $618 $334 $337 $494 reversed $479 $-1 #
coedge $-1 $334 $618 $485 $622 forward $479 $-1 #
vertex $-1 $335 $626 #
straight-curve $-1 25.222304571184683 21.457499125232147 48.382650673936958 0 0 1 I I #
straight-curve $-1 25.222304571184683 -4.3693910720867564 36.191124414874487 0 0.60181501223851219 -0.79863551827123203 I I #
edge $-1 $620 -41.379327588253531 $338 -25.222304571184683 $489 $627 forward 7 unknown #
point $-1 25.222304571184683 21.457499125232147 6.8029839598494428 #
point $-1 25.222304571184683 17.776160563147965 6.8029839598494419 #
edge $-1 $628 1 $628 0 $341 $-1 forward 7 unknown #
vertex $-1 $342 $629 #
ellipse-curve $-1 33.300816079719105 17.693677396561878 2.9111339780057985 0 0.79863551827123203 0.60181501223851219 1.5 0 0 1 I I #
point $-1 34.800816079719105 19.616829844190054 4.3603332526776848 #
loop $-1 $-1 $353 $345 #
plane-surface $-1 0 -21.457499125232147 0 0 1 0 0 0 1 forward_v I I I I #
coedge $-1 $504 $348 $350 $508 reversed $217 $-1 #
coedge $-1 $348 $503 $630 $631 reversed $217 $-1 #
coedge $-1 $356 $351 $348 $506 forward $346 $-1 #
edge $-1 $509 -25.606683200419198 $632 -20.942581671352698 $505 $633 forward 7 unknown #
coedge $-1 $350 $349 $512 $634 reversed $135 $-1 #
edge $-1 $635 0 $509 6.0015773076930277 $503 $636 forward 7 unknown #
vertex $-1 $352 $637 #
straight-curve $-1 -4.5322418697706688 -16.793397596165647 6.8029839598494419 -1 0 0 I I #
coedge $-1 $630 $353 $356 $516 reversed $501 $-1 #
coedge $-1 $353 $630 $507 $634 forward $501 $-1 #
vertex $-1 $354 $638 #
straight-curve $-1 -0.88478446311757253 -21.457499125232147 40.623870547752084 0 0 1 I I #
straight-curve $-1 -0.88478446311757253 -21.457499125232147 3.0260689347561538 0 -0.77714595512881146 -0.62932039886446345 I I #
edge $-1 $632 -17.244183015965103 $357 -0.88478446311757253 $511 $639 forward 7 unknown #
point $-1 -0.88478446311757253 -21.457499125232147 6.8029839598494428 #
point $-1 -0.88478446311757253 -16.793397596165647 6.8029839598494428 #
edge $-1 $640 1 $640 0 $360 $-1 forward 7 unknown #
vertex $-1 $361 $641 #
ellipse-curve $-1 -12.570069143722954 -16.730546891025039 1.9570694930273853 0 -0.62932039886446345 0.77714595512881146 1 0 0 1 I I #
point $-1 -11.570069143722954 -19.12544836069889 4.9145264473027925 #
edge $-1 $642 1 $642 0 $364 $-1 forward 7 unknown #
vertex $-1 $365 $643 #
ellipse-curve $-1 -5.5588983353597214 -16.730546891025039 1.9570694930273853 0 -0.62932039886446345 0.77714595512881146 1 0 0 1 I I #
point $-1 -4.5588983353597214 -19.12544836069889 4.9145264473027925 #
loop $-1 $-1 $377 $368 #
plane-surface $-1 0 0 6.8029839598494428 0 0 1 1 0 0 forward_v I I I I #
coedge $-1 $371 $533 $380 $541 forward $239 $-1 #
edge $-1 $538 -6.0015773076930277 $534 0 $372 $644 forward 7 unknown #
coedge $-1 $377 $645 $373 $532 forward $527 $-1 #
edge $-1 $535 20.942581671352698 $538 25.606683200419198 $531 $646 forward 7 unknown #
coedge $-1 $529 $374 $645 $647 reversed $239 $-1 #
vertex $-1 $375 $648 #
vertex $-1 $375 $649 #
straight-curve $-1 15.474614089729958 -21.457499125232147 40.623870547752084 0 0 1 I I #
coedge $-1 $645 $377 $381 $542 forward $527 $-1 #
vertex $-1 $532 $650 #
straight-curve $-1 -4.5322418697706688 -16.793397596165647 6.8029839598494419 -1 0 0 I I #
straight-curve $-1 -4.5322418697706688 -21.457499125232147 3.0260689347561529 1 0 0 I I #
edge $-1 $651 33.820886587902642 $383 37.59780161299593 $529 $652 forward 7 unknown #
edge $-1 $382 -25.606683200419198 $651 -20.942581671352698 $537 $653 forward 7 unknown #
point $-1 -0.88478446311757253 -16.793397596165647 6.8029839598494428 #
point $-1 -0.88478446311757253 -21.457499125232147 3.0260689347561538 #
edge $-1 $654 1 $654 0 $385 $-1 forward 7 unknown #
vertex $-1 $386 $655 #
ellipse-curve $-1 3.7893294091245764 -16.730546891025039 1.9570694930273853 0 -0.62932039886446345 0.77714595512881146 1 0 0 1 I I #
point $-1 4.7893294091245764 -19.12544836069889 4.9145264473027925 #
edge $-1 $656 1 $656 0 $389 $-1 forward 7 unknown #
vertex $-1 $390 $657 #
ellipse-curve $-1 10.800500217487809 -16.730546891025039 1.9570694930273853 0 -0.62932039886446345 0.77714595512881146 1 0 0 1 I I #
point $-1 11.800500217487809 -19.12544836069889 4.9145264473027925 #
plane-surface $-1 0 21.457499125232147 0 0 -1 0 0 0 -1 forward_v I I I I #
coedge $-1 $566 $557 $559 $658 forward $394 $-1 #
coedge $-1 $557 $566 $396 $556 reversed $394 $-1 #
edge $-1 $562 -6.8029839598494428 $568 6.8029839598494428 $555 $659 forward 7 unknown #
coedge $-1 $554 $555 $397 $558 reversed $394 $-1 #
edge $-1 $560 -21.457499125232147 $562 21.457499125232147 $557 $660 forward 7 unknown #
coedge $-1 $398 $405 $554 $658 reversed $406 $-1 #
vertex $-1 $399 $661 #
straight-curve $-1 0 21.457499125232147 6.8029839598494428 -1 0 0 I I #
vertex $-1 $558 $662 #
straight-curve $-1 0 -21.457499125232147 6.8029839598494428 1 0 0 I I #
point $-1 50.326242866298408 -21.457499125232147 6.8029839598494428 #
point $-1 50.326242866298408 21.457499125232147 6.8029839598494428 #
coedge $-1 $555 $554 $410 $567 reversed $394 $-1 #
edge $-1 $568 -21.457499125232147 $570 21.457499125232147 $566 $663 forward 7 unknown #
vertex $-1 $567 $664 #
straight-curve $-1 0 -21.457499125232147 -6.8029839598494428 -1 0 0 I I #
vertex $-1 $412 $665 #
straight-curve $-1 0 21.457499125232147 -6.8029839598494428 1 0 0 I I #
plane-surface $-1 0 -21.457499125232147 0 0 1 0 0 0 1 forward_v I I I I #
coedge $-1 $666 $418 $428 $584 reversed $277 $-1 #
coedge $-1 $418 $666 $431 $586 forward $277 $-1 #
coedge $-1 $667 $421 $419 $576 forward $416 $-1 #
edge $-1 $577 43.148896514488676 $668 50.326242866298408 $419 $669 forward 7 unknown #
vertex $-1 $576 $670 #
straight-curve $-1 -43.148896514488676 21.457499125232147 2.6514919799247214 0 0 -1 I I #
coedge $-1 $421 $667 $423 $581 forward $416 $-1 #
straight-curve $-1 -43.148896514488676 0 6.8029839598494428 0 1 0 I I #
edge $-1 $671 -50.326242866298408 $425 -43.148896514488676 $423 $672 forward 7 unknown #
point $-1 -43.148896514488676 -21.457499125232147 6.8029839598494428 #
straight-curve $-1 -50.326242866298408 0 3.8029839598494428 0 -1 0 I I #
edge $-1 $671 -6.8029839598494428 $429 -3.8029839598494428 $573 $673 forward 7 unknown #
point $-1 -50.326242866298408 -21.457499125232147 3.8029839598494428 #
edge $-1 $668 -6.8029839598494428 $432 -3.8029839598494428 $431 $674 forward 7 unknown #
point $-1 -50.326242866298408 21.457499125232147 3.8029839598494428 #
plane-surface $-1 0 0 6.8029839598494428 0 0 1 1 0 0 forward_v I I I I #
coedge $-1 $593 $675 $453 $604 forward $437 $-1 #
coedge $-1 $439 $446 $449 $602 reversed $293 $-1 #
coedge $-1 $675 $593 $439 $592 reversed $437 $-1 #
edge $-1 $676 -6.8029839598494428 $595 6.8029839598494428 $591 $677 forward 7 unknown #
coedge $-1 $591 $589 $440 $594 reversed $437 $-1 #
edge $-1 $595 -1.6462984499534947 $597 1.6462984499534947 $593 $678 forward 7 unknown #
vertex $-1 $594 $679 #
straight-curve $-1 54.79970050532085 -9.1070638144980691 -6.8029839598494428 1 0 0 I I #
vertex $-1 $604 $680 #
straight-curve $-1 54.79970050532085 -12.399660714405059 -6.8029839598494428 -1 0 0 I I #
point $-1 50.326242866298408 -9.1070638144980691 -6.8029839598494428 #
straight-curve $-1 50.326242866298408 -9.1070638144980691 0 0 0 -1 I I #
coedge $-1 $449 $448 $675 $681 forward $450 $-1 #
edge $-1 $676 -4.4734576390224419 $451 4.4734576390224419 $590 $682 forward 7 unknown #
point $-1 50.326242866298408 -9.1070638144980691 6.8029839598494428 #
edge $-1 $605 -6.8029839598494428 $597 6.8029839598494428 $589 $683 forward 7 unknown #
vertex $-1 $681 $684 #
straight-curve $-1 54.79970050532085 -12.399660714405059 6.8029839598494428 1 0 0 I I #
edge $-1 $608 41.579666714087516 $611 46.464968128431046 $458 $685 forward 7 unknown #
vertex $-1 $472 $686 #
straight-curve $-1 -0.88478446311757253 38.007629518126741 6.8029839598494419 0 1 0 I I #
edge $-1 $611 -3.5968635227084249 $469 12.56015949436042 $468 $687 forward 7 unknown #
vertex $-1 $610 $688 #
straight-curve $-1 -0.88478446311757253 -4.3693910720867564 36.191124414874487 0 -0.60181501223851219 0.79863551827123203 I I #
point $-1 -0.88478446311757253 17.776160563147965 6.8029839598494419 #
point $-1 -17.041807480186417 21.457499125232147 1.9176825455059117 #
straight-curve $-1 0 21.457499125232147 6.8029839598494428 -1 0 0 I I #
vertex $-1 $475 $689 #
point $-1 -7.4632959716519949 17.693677396561878 2.9111339780057985 #
coedge $-1 $490 $489 $482 $619 forward $479 $-1 #
edge $-1 $620 41.579666714087516 $623 46.464968128431046 $618 $690 forward 7 unknown #
vertex $-1 $494 $691 #
straight-curve $-1 41.379327588253531 38.007629518126741 6.8029839598494419 0 1 0 I I #
edge $-1 $623 -24.728919548393979 $491 -8.5718965313251303 $490 $692 forward 7 unknown #
vertex $-1 $622 $693 #
straight-curve $-1 41.379327588253531 -4.3693910720867564 36.191124414874487 0 -0.60181501223851219 0.79863551827123203 I I #
point $-1 41.379327588253531 17.776160563147965 6.8029839598494419 #
point $-1 25.222304571184683 21.457499125232147 1.9176825455059117 #
straight-curve $-1 0 21.457499125232147 6.8029839598494428 -1 0 0 I I #
vertex $-1 $497 $694 #
point $-1 34.800816079719105 17.693677396561878 2.9111339780057985 #
coedge $-1 $512 $511 $504 $631 forward $501 $-1 #
edge $-1 $632 33.820886587902642 $635 37.59780161299593 $630 $695 forward 7 unknown #
vertex $-1 $516 $696 #
straight-curve $-1 -17.244183015965103 -42.400080796584845 6.8029839598494419 0 -1 0 I I #
edge $-1 $635 -12.711941146194434 $513 3.6474574066530963 $512 $697 forward 7 unknown #
vertex $-1 $634 $698 #
straight-curve $-1 -17.244183015965103 -21.457499125232147 3.0260689347561538 0 0.77714595512881146 0.62932039886446345 I I #
point $-1 -17.244183015965103 -16.793397596165647 6.8029839598494428 #
point $-1 -0.88478446311757253 -21.457499125232147 3.0260689347561538 #
straight-curve $-1 0 -21.457499125232147 6.8029839598494428 1 0 0 I I #
vertex $-1 $519 $699 #
point $-1 -11.570069143722954 -16.730546891025039 1.9570694930273853 #
vertex $-1 $523 $700 #
point $-1 -4.5588983353597214 -16.730546891025039 1.9570694930273853 #
straight-curve $-1 15.474614089729958 -21.457499125232147 3.0260689347561538 0 -0.77714595512881146 -0.62932039886446345 I I #
coedge $-1 $531 $537 $533 $647 forward $527 $-1 #
straight-curve $-1 15.474614089729958 -42.400080796584845 6.8029839598494419 0 1 0 I I #
edge $-1 $651 -0.88478446311757253 $535 15.474614089729958 $533 $701 forward 7 unknown #
point $-1 15.474614089729958 -21.457499125232147 3.0260689347561538 #
point $-1 15.474614089729958 -21.457499125232147 6.8029839598494428 #
point $-1 15.474614089729958 -16.793397596165647 6.8029839598494428 #
vertex $-1 $647 $702 #
straight-curve $-1 -0.88478446311757253 -21.457499125232147 40.623870547752084 0 0 -1 I I #
straight-curve $-1 -0.88478446311757253 -42.400080796584845 6.8029839598494419 0 -1 0 I I #
vertex $-1 $545 $703 #
point $-1 4.7893294091245764 -16.730546891025039 1.9570694930273853 #
vertex $-1 $549 $704 #
point $-1 11.800500217487809 -16.730546891025039 1.9570694930273853 #
edge $-1 $560 -6.8029839598494428 $570 6.8029839598494428 $559 $705 forward 7 unknown #
straight-curve $-1 -50.326242866298408 -21.457499125232147 0 0 0 -1 I I #
straight-curve $-1 -50.326242866298408 0 6.8029839598494428 0 -1 0 I I #
point $-1 -50.326242866298408 21.457499125232147 6.8029839598494428 #
point $-1 -50.326242866298408 -21.457499125232147 6.8029839598494428 #
straight-curve $-1 -50.326242866298408 0 -6.8029839598494428 0 1 0 I I #
point $-1 -50.326242866298408 -21.457499125232147 -6.8029839598494428 #
point $-1 -50.326242866298408 21.457499125232147 -6.8029839598494428 #
coedge $-1 $574 $573 $667 $706 reversed $277 $-1 #
coedge $-1 $579 $575 $666 $706 forward $416 $-1 #
vertex $-1 $576 $707 #
straight-curve $-1 0 21.457499125232147 6.8029839598494428 -1 0 0 I I #
point $-1 -43.148896514488676 21.457499125232147 6.8029839598494428 #
vertex $-1 $706 $708 #
straight-curve $-1 0 -21.457499125232147 6.8029839598494428 1 0 0 I I #
straight-curve $-1 -50.326242866298408 -21.457499125232147 0 0 0 -1 I I #
straight-curve $-1 -50.326242866298408 21.457499125232147 0 0 0 -1 I I #
coedge $-1 $589 $591 $601 $681 reversed $437 $-1 #
vertex $-1 $681 $709 #
straight-curve $-1 59.273158144343292 -9.1070638144980691 0 0 0 -1 I I #
straight-curve $-1 59.273158144343292 -10.753362264451564 -6.8029839598494428 0 -1 0 I I #
point $-1 59.273158144343292 -9.1070638144980691 -6.8029839598494428 #
point $-1 59.273158144343292 -12.399660714405059 -6.8029839598494428 #
edge $-1 $605 -1.6462984499534947 $676 1.6462984499534947 $675 $710 forward 7 unknown #
straight-curve $-1 54.79970050532085 -9.1070638144980691 6.8029839598494428 -1 0 0 I I #
straight-curve $-1 59.273158144343292 -12.399660714405059 0 0 0 -1 I I #
point $-1 59.273158144343292 -12.399660714405059 6.8029839598494428 #
straight-curve $-1 -0.88478446311757253 21.457499125232147 48.382650673936958 0 0 -1 I I #
point $-1 -0.88478446311757253 21.457499125232147 6.8029839598494428 #
straight-curve $-1 -4.4816479858259974 21.457499125232147 1.9176825455059117 -1 0 0 I I #
point $-1 -0.88478446311757253 21.457499125232147 1.9176825455059117 #
point $-1 -8.9632959716519949 16.495724119155032 2.0084114596480305 #
straight-curve $-1 41.379327588253531 21.457499125232147 48.382650673936958 0 0 -1 I I #
point $-1 41.379327588253531 21.457499125232147 6.8029839598494428 #
straight-curve $-1 16.650408039859553 21.457499125232147 1.9176825455059117 -1 0 0 I I #
point $-1 41.379327588253531 21.457499125232147 1.9176825455059117 #
point $-1 33.300816079719105 16.495724119155032 2.0084114596480305 #
straight-curve $-1 -17.244183015965103 -21.457499125232147 40.623870547752084 0 0 -1 I I #
point $-1 -17.244183015965103 -21.457499125232147 6.8029839598494428 #
straight-curve $-1 -4.5322418697706688 -21.457499125232147 3.0260689347561529 1 0 0 I I #
point $-1 -17.244183015965103 -21.457499125232147 3.0260689347561538 #
point $-1 -12.570069143722954 -16.101226492160574 1.1799235378985737 #
point $-1 -5.5588983353597214 -16.101226492160574 1.1799235378985737 #
straight-curve $-1 0 -21.457499125232147 6.8029839598494428 1 0 0 I I #
point $-1 -0.88478446311757253 -21.457499125232147 6.8029839598494428 #
point $-1 3.7893294091245764 -16.101226492160574 1.1799235378985737 #
point $-1 10.800500217487809 -16.101226492160574 1.1799235378985737 #
straight-curve $-1 -50.326242866298408 21.457499125232147 0 0 0 -1 I I #
edge $-1 $668 -21.457499125232147 $671 21.457499125232147 $666 $711 forward 7 unknown #
point $-1 -50.326242866298408 21.457499125232147 6.8029839598494428 #
point $-1 -50.326242866298408 -21.457499125232147 6.8029839598494428 #
point $-1 59.273158144343292 -9.1070638144980691 6.8029839598494428 #
straight-curve $-1 59.273158144343292 -10.753362264451564 6.8029839598494428 0 1 0 I I #
straight-curve $-1 -50.326242866298408 0 6.8029839598494428 0 -1 0 I I #
End-of-ACIS-data 