500 0 4 0           
7 Unknown 11 ACIS 5.0 NT 24 Fri Mar 26 00:33:23 1999 
-1 9.9999999999999995e-007 1e-010 
body $-1 $4 $-1 $5 #
body $-1 $6 $-1 $7 #
body $-1 $8 $-1 $9 #
body $-1 $10 $-1 $11 #
lump $-1 $-1 $12 $0 #
transform $-1 1 0 0 0 1 0 0 0 1 48.531754509109774 21.069182843805915 4.7261790135972852 1 rotate no_reflect no_shear #
lump $-1 $-1 $13 $1 #
transform $-1 1 0 0 0 1 0 0 0 1 48.531754509109774 21.069182843805915 4.7261790135972852 1 rotate no_reflect no_shear #
lump $-1 $-1 $14 $2 #
transform $-1 1 0 0 0 1 0 0 0 1 48.531754509109774 21.069182843805915 4.7261790135972852 1 rotate no_reflect no_shear #
lump $-1 $-1 $15 $3 #
transform $-1 1 0 0 0 1 0 0 0 1 48.531754509109774 21.069182843805915 4.7261790135972852 1 rotate no_reflect no_shear #
shell $-1 $-1 $-1 $16 $-1 $4 #
shell $-1 $-1 $-1 $17 $-1 $6 #
shell $-1 $-1 $-1 $18 $-1 $8 #
shell $-1 $-1 $-1 $19 $-1 $10 #
face $-1 $20 $21 $12 $-1 $22 forward single #
face $-1 $23 $24 $13 $-1 $25 forward single #
face $-1 $26 $27 $14 $-1 $28 reversed single #
face $-1 $29 $30 $15 $-1 $31 forward single #
face $-1 $32 $33 $12 $-1 $34 reversed single #
loop $-1 $-1 $35 $16 #
plane-surface $-1 0 0 4.7261790135972852 0 0 1 1 0 0 forward_v I I I I #
face $-1 $36 $37 $13 $-1 $38 reversed single #
loop $-1 $-1 $39 $17 #
plane-surface $-1 -48.531754509109774 0 0 1 0 0 0 0 -1 forward_v I I I I #
face $-1 $40 $41 $14 $-1 $42 reversed single #
loop $-1 $-1 $43 $18 #
plane-surface $-1 74.72382692586045 2.1852684024377336 135.35234567262904 0 -1 0 -0.82903758062907751 0 -0.55919289150049634 forward_v I I I I #
face $-1 $44 $45 $15 $-1 $46 forward single #
loop $-1 $47 $48 $19 #
cone-surface $-1 46.727628730932921 -1.0291765351289683 2.3864054219048576 -0.82903758062907751 0 -0.55919289150049634 0.27959644575024817 0 -0.41451879031453875 1 I I 0 1 0.5 forward I I I I #
face $-1 $49 $50 $12 $-1 $51 reversed single #
loop $-1 $-1 $52 $20 #
plane-surface $-1 0 0 -4.7261790135972852 0 0 1 1 0 0 forward_v I I I I #
coedge $-1 $53 $54 $55 $56 forward $21 $-1 #
face $-1 $57 $58 $13 $-1 $59 forward single #
loop $-1 $-1 $60 $23 #
plane-surface $-1 0 21.069182843805915 0 0 -1 0 0 0 -1 forward_v I I I I #
coedge $-1 $61 $62 $63 $64 forward $24 $-1 #
face $-1 $65 $66 $14 $-1 $67 reversed single #
loop $-1 $-1 $68 $26 #
plane-surface $-1 -5.745469757972927 -1.0291765351289648 81.075121405546355 0.82903758062907751 0 0.55919289150049634 0.55919289150049634 0 -0.82903758062907751 forward_v I I I I #
coedge $-1 $69 $70 $71 $72 reversed $27 $-1 #
face $-1 $-1 $73 $15 $-1 $74 forward single #
loop $-1 $75 $76 $29 #
cone-surface $-1 46.105850545461109 -1.0291765351289683 1.9670107532794852 -0.82903758062907751 0 -0.55919289150049634 0.13979822287512408 0 -0.20725939515726938 1 I I -0.70710678118654746 0.70710678118654746 0.25 forward I I I I #
loop $-1 $-1 $77 $19 #
coedge $-1 $48 $48 $78 $79 reversed $30 $-1 #
face $-1 $80 $81 $12 $-1 $82 reversed single #
loop $-1 $-1 $83 $32 #
plane-surface $-1 0 -21.069182843805915 0 0 1 0 0 0 1 forward_v I I I I #
coedge $-1 $84 $85 $86 $87 forward $33 $-1 #
coedge $-1 $88 $35 $89 $90 forward $21 $-1 #
coedge $-1 $35 $88 $91 $92 forward $21 $-1 #
coedge $-1 $93 $94 $35 $56 reversed $95 $-1 #
edge $-1 $96 -21.069182843805915 $97 21.069182843805915 $55 $98 forward 7 unknown #
face $-1 $99 $100 $13 $-1 $101 reversed single #
loop $-1 $-1 $63 $36 #
plane-surface $-1 -50.814071890061847 0 -1.7261790135972852 0 0 1 1 0 0 forward_v I I I I #
coedge $-1 $102 $103 $62 $104 forward $37 $-1 #
coedge $-1 $105 $39 $106 $107 reversed $24 $-1 #
coedge $-1 $39 $105 $60 $104 reversed $24 $-1 #
coedge $-1 $108 $109 $39 $64 reversed $58 $-1 #
edge $-1 $110 -21.069182843805915 $111 21.069182843805915 $63 $112 forward 7 unknown #
face $-1 $113 $114 $14 $-1 $115 forward single #
loop $-1 $-1 $116 $40 #
plane-surface $-1 74.72382692586045 -4.2436214726956631 135.35234567262904 0 1 0 0.82903758062907751 0 0.55919289150049634 forward_v I I I I #
coedge $-1 $117 $118 $119 $120 reversed $41 $-1 #
coedge $-1 $70 $43 $121 $122 reversed $27 $-1 #
coedge $-1 $43 $69 $117 $123 reversed $27 $-1 #
coedge $-1 $119 $124 $43 $72 forward $114 $-1 #
edge $-1 $125 -11.169841046179549 $126 -8.3906270704549044 $71 $127 forward 7 unknown #
loop $-1 $-1 $78 $44 #
plane-surface $-1 -5.745469757972927 -1.0291765351289648 81.075121405546355 0.82903758062907751 0 0.55919289150049634 0.55919289150049634 0 -0.82903758062907751 forward_v I I I I #
loop $-1 $-1 $128 $29 #
coedge $-1 $76 $76 $77 $129 reversed $45 $-1 #
coedge $-1 $77 $77 $76 $129 forward $47 $-1 #
coedge $-1 $78 $78 $48 $79 forward $73 $-1 #
edge $-1 $130 0 $130 6.2831853071796004 $78 $131 forward 7 unknown #
face $-1 $132 $133 $12 $-1 $134 reversed single #
loop $-1 $-1 $135 $49 #
plane-surface $-1 -48.531754509109774 0 0 1 0 0 0 0 -1 forward_v I I I I #
coedge $-1 $136 $91 $135 $137 forward $50 $-1 #
coedge $-1 $138 $52 $136 $139 forward $33 $-1 #
coedge $-1 $52 $138 $140 $141 forward $33 $-1 #
coedge $-1 $94 $93 $52 $87 reversed $95 $-1 #
edge $-1 $142 -21.069182843805915 $143 21.069182843805915 $86 $144 forward 7 unknown #
coedge $-1 $54 $53 $145 $146 forward $21 $-1 #
coedge $-1 $147 $148 $53 $90 reversed $133 $-1 #
edge $-1 $97 -48.531754509109774 $149 48.531754509109774 $89 $150 forward 7 unknown #
coedge $-1 $83 $151 $54 $92 reversed $50 $-1 #
edge $-1 $152 -48.531754509109774 $96 48.531754509109774 $91 $153 forward 7 unknown #
coedge $-1 $86 $55 $151 $154 forward $95 $-1 #
coedge $-1 $55 $86 $147 $155 reversed $95 $-1 #
loop $-1 $-1 $93 $132 #
vertex $-1 $56 $156 #
vertex $-1 $56 $157 #
straight-curve $-1 48.531754509109774 0 4.7261790135972852 0 1 0 I I #
face $-1 $158 $159 $13 $-1 $160 reversed single #
loop $-1 $-1 $161 $57 #
plane-surface $-1 -53.096389271013919 0 -3.2261790135972852 1 0 0 0 0 -1 forward_v I I I I #
coedge $-1 $162 $60 $163 $164 reversed $37 $-1 #
coedge $-1 $60 $162 $108 $165 reversed $37 $-1 #
edge $-1 $110 1.7261790135972852 $166 4.7261790135972852 $60 $167 forward 7 unknown #
coedge $-1 $62 $61 $168 $169 reversed $24 $-1 #
coedge $-1 $170 $171 $61 $107 forward $172 $-1 #
edge $-1 $173 -4.7261790135972852 $111 -1.7261790135972852 $106 $174 forward 7 unknown #
coedge $-1 $175 $63 $103 $165 forward $58 $-1 #
coedge $-1 $63 $175 $170 $176 forward $58 $-1 #
vertex $-1 $104 $177 #
vertex $-1 $176 $178 #
straight-curve $-1 -48.531754509109774 0 -1.7261790135972852 0 -1 0 I I #
face $-1 $-1 $179 $14 $-1 $180 reversed single #
loop $-1 $-1 $71 $65 #
plane-surface $-1 0 0 4.7261790135972852 0 0 1 1 0 0 forward_v I I I I #
coedge $-1 $181 $182 $183 $184 reversed $66 $-1 #
coedge $-1 $185 $68 $70 $123 forward $41 $-1 #
coedge $-1 $68 $185 $181 $186 forward $41 $-1 #
coedge $-1 $183 $71 $68 $120 forward $114 $-1 #
edge $-1 $126 -2.699856670002216 $187 3.7290332051311808 $119 $188 forward 7 unknown #
coedge $-1 $189 $190 $69 $122 forward $179 $-1 #
edge $-1 $191 -67.070348114601558 $125 -62.949993822717232 $121 $192 forward 7 unknown #
edge $-1 $126 92.09346376555709 $191 97.063509018219577 $70 $193 forward 7 unknown #
coedge $-1 $71 $183 $189 $194 forward $114 $-1 #
vertex $-1 $122 $195 #
vertex $-1 $72 $196 #
straight-curve $-1 37.361913462930225 2.1852684024377336 4.7261790135972888 -1 0 0 I I #
coedge $-1 $128 $128 $-1 $197 reversed $75 $-1 #
edge $-1 $198 0 $198 6.2831853071796004 $76 $199 forward 7 unknown #
vertex $-1 $79 $200 #
ellipse-curve $-1 47.142147521247466 -1.0291765351289683 2.6660018676551096 0.82903758062907751 0 0.55919289150049634 0.27959644575024817 0 -0.41451879031453875 1 I I #
face $-1 $-1 $95 $12 $-1 $201 reversed single #
loop $-1 $-1 $147 $80 #
plane-surface $-1 0 21.069182843805915 0 0 -1 0 0 0 -1 forward_v I I I I #
coedge $-1 $145 $202 $83 $137 reversed $81 $-1 #
coedge $-1 $151 $83 $84 $139 reversed $50 $-1 #
edge $-1 $152 -4.7261790135972852 $203 4.7261790135972852 $135 $204 forward 7 unknown #
coedge $-1 $85 $84 $202 $205 forward $33 $-1 #
edge $-1 $143 -48.531754509109774 $203 48.531754509109774 $136 $206 forward 7 unknown #
coedge $-1 $148 $147 $85 $141 reversed $133 $-1 #
edge $-1 $207 -48.531754509109774 $142 48.531754509109774 $140 $208 forward 7 unknown #
vertex $-1 $87 $209 #
vertex $-1 $154 $210 #
straight-curve $-1 48.531754509109774 0 -4.7261790135972852 0 -1 0 I I #
coedge $-1 $211 $135 $88 $146 reversed $81 $-1 #
edge $-1 $149 -21.069182843805915 $152 21.069182843805915 $145 $212 forward 7 unknown #
coedge $-1 $140 $89 $94 $155 forward $133 $-1 #
coedge $-1 $89 $140 $211 $213 reversed $133 $-1 #
vertex $-1 $90 $214 #
straight-curve $-1 0 21.069182843805915 4.7261790135972852 -1 0 0 I I #
coedge $-1 $91 $136 $93 $154 reversed $50 $-1 #
vertex $-1 $146 $215 #
straight-curve $-1 0 -21.069182843805915 4.7261790135972852 1 0 0 I I #
edge $-1 $96 -4.7261790135972852 $143 4.7261790135972852 $93 $216 forward 7 unknown #
edge $-1 $97 -4.7261790135972852 $142 4.7261790135972852 $94 $217 forward 7 unknown #
point $-1 48.531754509109774 -21.069182843805915 4.7261790135972852 #
point $-1 48.531754509109774 21.069182843805915 4.7261790135972852 #
face $-1 $-1 $172 $13 $-1 $218 reversed single #
loop $-1 $-1 $168 $99 #
plane-surface $-1 0 0 -4.7261790135972852 0 0 1 1 0 0 forward_v I I I I #
coedge $-1 $219 $220 $162 $221 forward $100 $-1 #
coedge $-1 $103 $102 $161 $221 reversed $37 $-1 #
coedge $-1 $168 $222 $102 $164 forward $159 $-1 #
edge $-1 $223 -53.096389271013919 $166 -48.531754509109774 $102 $224 forward 7 unknown #
edge $-1 $110 -2.2823173809520725 $225 2.2823173809520725 $103 $226 forward 7 unknown #
vertex $-1 $104 $227 #
straight-curve $-1 -48.531754509109774 21.069182843805915 0 0 0 -1 I I #
coedge $-1 $228 $163 $105 $169 forward $159 $-1 #
edge $-1 $166 -21.069182843805915 $173 21.069182843805915 $168 $229 forward 7 unknown #
coedge $-1 $230 $106 $109 $176 reversed $172 $-1 #
coedge $-1 $106 $230 $228 $231 reversed $172 $-1 #
loop $-1 $-1 $106 $158 #
vertex $-1 $231 $232 #
straight-curve $-1 -48.531754509109774 -21.069182843805915 0 0 0 1 I I #
coedge $-1 $109 $108 $220 $233 forward $58 $-1 #
edge $-1 $234 -2.2823173809520725 $111 2.2823173809520725 $170 $235 forward 7 unknown #
point $-1 -48.531754509109774 21.069182843805915 -1.7261790135972852 #
point $-1 -48.531754509109774 -21.069182843805915 -1.7261790135972852 #
loop $-1 $-1 $121 $113 #
plane-surface $-1 48.531754509109774 0 0 -1 0 0 0 0 1 forward_v I I I I #
coedge $-1 $182 $116 $118 $186 reversed $66 $-1 #
coedge $-1 $116 $181 $236 $237 reversed $66 $-1 #
coedge $-1 $124 $119 $116 $184 forward $114 $-1 #
edge $-1 $187 8.3906270704549044 $238 11.169841046179549 $183 $239 forward 7 unknown #
coedge $-1 $118 $117 $190 $240 reversed $41 $-1 #
edge $-1 $241 -97.063509018219577 $187 -92.09346376555709 $181 $242 forward 7 unknown #
vertex $-1 $120 $243 #
straight-curve $-1 45.752540533385144 -0.51458826756448239 4.7261790135972817 0 -1 0 I I #
coedge $-1 $236 $121 $124 $194 reversed $179 $-1 #
coedge $-1 $121 $236 $185 $240 forward $179 $-1 #
vertex $-1 $122 $244 #
straight-curve $-1 48.531754509109774 2.1852684024377336 67.676172836314521 0 0 1 I I #
straight-curve $-1 -5.745469757972927 2.1852684024377336 81.075121405546355 0.55919289150049634 0 -0.82903758062907751 I I #
edge $-1 $238 -4.2436214726956631 $125 2.1852684024377336 $189 $245 forward 7 unknown #
point $-1 48.531754509109774 2.1852684024377336 4.7261790135972852 #
point $-1 45.75254053338513 2.1852684024377336 4.7261790135972888 #
edge $-1 $246 1 $246 0 $128 $-1 forward 7 unknown #
vertex $-1 $129 $247 #
ellipse-curve $-1 46.313109940618382 -1.0291765351289683 2.1068089761546092 0.82903758062907751 0 0.55919289150049634 0.27959644575024817 0 -0.41451879031453875 1 I I #
point $-1 47.421743966997703 -1.0291765351289683 2.2514830773405667 #
plane-surface $-1 48.531754509109774 0 0 -1 0 0 0 0 1 forward_v I I I I #
coedge $-1 $135 $211 $138 $205 reversed $81 $-1 #
vertex $-1 $205 $248 #
straight-curve $-1 -48.531754509109774 -21.069182843805915 0 0 0 -1 I I #
edge $-1 $203 -21.069182843805915 $207 21.069182843805915 $202 $249 forward 7 unknown #
straight-curve $-1 0 -21.069182843805915 -4.7261790135972852 -1 0 0 I I #
vertex $-1 $141 $250 #
straight-curve $-1 0 21.069182843805915 -4.7261790135972852 1 0 0 I I #
point $-1 48.531754509109774 21.069182843805915 -4.7261790135972852 #
point $-1 48.531754509109774 -21.069182843805915 -4.7261790135972852 #
coedge $-1 $202 $145 $148 $213 forward $81 $-1 #
straight-curve $-1 -48.531754509109774 0 4.7261790135972852 0 -1 0 I I #
edge $-1 $149 -4.7261790135972852 $207 4.7261790135972852 $148 $251 forward 7 unknown #
point $-1 -48.531754509109774 21.069182843805915 4.7261790135972852 #
point $-1 -48.531754509109774 -21.069182843805915 4.7261790135972852 #
straight-curve $-1 48.531754509109774 -21.069182843805915 0 0 0 -1 I I #
straight-curve $-1 48.531754509109774 21.069182843805915 0 0 0 -1 I I #
plane-surface $-1 0 -21.069182843805915 0 0 1 0 0 0 1 forward_v I I I I #
coedge $-1 $252 $161 $222 $253 reversed $100 $-1 #
coedge $-1 $161 $252 $175 $233 reversed $100 $-1 #
edge $-1 $225 -1.5 $223 1.5 $162 $254 forward 7 unknown #
coedge $-1 $163 $228 $219 $253 forward $159 $-1 #
vertex $-1 $164 $255 #
straight-curve $-1 0 21.069182843805915 -4.7261790135972852 1 0 0 I I #
vertex $-1 $165 $256 #
straight-curve $-1 -50.814071890061847 21.069182843805915 -1.7261790135972852 -1 0 0 I I #
point $-1 -48.531754509109774 21.069182843805915 -4.7261790135972852 #
coedge $-1 $222 $168 $171 $231 forward $159 $-1 #
straight-curve $-1 -48.531754509109774 0 -4.7261790135972852 0 -1 0 I I #
coedge $-1 $171 $170 $252 $257 forward $172 $-1 #
edge $-1 $173 -2.2823173809520725 $258 2.2823173809520725 $171 $259 forward 7 unknown #
point $-1 -48.531754509109774 -21.069182843805915 -4.7261790135972852 #
edge $-1 $225 -21.069182843805915 $234 21.069182843805915 $220 $260 forward 7 unknown #
vertex $-1 $233 $261 #
straight-curve $-1 -50.814071890061847 -21.069182843805915 -1.7261790135972852 1 0 0 I I #
coedge $-1 $190 $189 $182 $237 forward $179 $-1 #
edge $-1 $238 62.949993822717232 $241 67.070348114601558 $236 $262 forward 7 unknown #
vertex $-1 $194 $263 #
straight-curve $-1 37.361913462930225 -4.2436214726956631 4.7261790135972888 1 0 0 I I #
edge $-1 $241 -3.7290332051311808 $191 2.699856670002216 $190 $264 forward 7 unknown #
vertex $-1 $240 $265 #
straight-curve $-1 -5.745469757972927 -4.2436214726956631 81.075121405546355 -0.55919289150049634 0 0.82903758062907751 I I #
point $-1 45.75254053338513 -4.2436214726956631 4.7261790135972888 #
point $-1 48.531754509109774 2.1852684024377336 0.60582472171296331 #
straight-curve $-1 48.531754509109774 0 4.7261790135972852 0 1 0 I I #
vertex $-1 $197 $266 #
point $-1 46.592706386368626 -1.0291765351289683 1.6922901858400705 #
point $-1 -48.531754509109774 -21.069182843805915 -4.7261790135972852 #
straight-curve $-1 -48.531754509109774 0 -4.7261790135972852 0 1 0 I I #
point $-1 -48.531754509109774 21.069182843805915 -4.7261790135972852 #
straight-curve $-1 -48.531754509109774 21.069182843805915 0 0 0 -1 I I #
coedge $-1 $220 $219 $230 $257 reversed $100 $-1 #
edge $-1 $258 -21.069182843805915 $223 21.069182843805915 $219 $267 forward 7 unknown #
straight-curve $-1 -53.096389271013919 21.069182843805915 -3.2261790135972852 0 0 -1 I I #
point $-1 -53.096389271013919 21.069182843805915 -4.7261790135972852 #
point $-1 -53.096389271013919 21.069182843805915 -1.7261790135972852 #
edge $-1 $234 -1.5 $258 1.5 $252 $268 forward 7 unknown #
vertex $-1 $253 $269 #
straight-curve $-1 -50.814071890061847 -21.069182843805915 -4.7261790135972852 -1 0 0 I I #
straight-curve $-1 -53.096389271013919 0 -1.7261790135972852 0 -1 0 I I #
point $-1 -53.096389271013919 -21.069182843805915 -1.7261790135972852 #
straight-curve $-1 48.531754509109774 -4.2436214726956631 67.676172836314521 0 0 -1 I I #
point $-1 48.531754509109774 -4.2436214726956631 4.7261790135972852 #
straight-curve $-1 48.531754509109774 -0.51458826756448239 0.6058247217129491 0 1 0 I I #
point $-1 48.531754509109774 -4.2436214726956631 0.60582472171296331 #
point $-1 45.898591150303837 -1.0291765351289683 1.8272125304043612 #
straight-curve $-1 -53.096389271013919 0 -4.7261790135972852 0 1 0 I I #
straight-curve $-1 -53.096389271013919 -21.069182843805915 -3.2261790135972852 0 0 -1 I I #
point $-1 -53.096389271013919 -21.069182843805915 -4.7261790135972852 #
End-of-ACIS-data 