500 0 8 0           
7 Unknown 11 ACIS 5.0 NT 24 Thu Mar 25 16:51:46 1999 
-1 9.9999999999999995e-007 1e-010 
body $-1 $8 $-1 $9 #
body $-1 $10 $-1 $11 #
body $-1 $12 $-1 $13 #
body $-1 $14 $-1 $15 #
body $-1 $16 $-1 $17 #
body $-1 $18 $-1 $19 #
body $-1 $20 $-1 $21 #
body $-1 $22 $-1 $23 #
lump $-1 $-1 $24 $0 #
transform $-1 1 0 0 0 1 0 0 0 1 72.375255592516851 44.575046786750818 20.236774681835541 1 rotate no_reflect no_shear #
lump $-1 $-1 $25 $1 #
transform $-1 1 0 0 0 1 0 0 0 1 72.375255592516851 44.575046786750818 20.236774681835541 1 rotate no_reflect no_shear #
lump $-1 $-1 $26 $2 #
transform $-1 1 0 0 0 1 0 0 0 1 72.375255592516851 44.575046786750818 20.236774681835541 1 rotate no_reflect no_shear #
lump $-1 $-1 $27 $3 #
transform $-1 1 0 0 0 1 0 0 0 1 72.375255592516851 44.575046786750818 20.236774681835541 1 rotate no_reflect no_shear #
lump $-1 $-1 $28 $4 #
transform $-1 1 0 0 0 1 0 0 0 1 72.375255592516851 44.575046786750818 20.236774681835541 1 rotate no_reflect no_shear #
lump $-1 $-1 $29 $5 #
transform $-1 1 0 0 0 1 0 0 0 1 72.375255592516851 44.575046786750818 20.236774681835541 1 rotate no_reflect no_shear #
lump $-1 $-1 $30 $6 #
transform $-1 1 0 0 0 1 0 0 0 1 72.375255592516851 44.575046786750818 20.236774681835541 1 rotate no_reflect no_shear #
lump $-1 $-1 $31 $7 #
transform $-1 1 0 0 0 1 0 0 0 1 72.375255592516851 44.575046786750818 20.236774681835541 1 rotate no_reflect no_shear #
shell $-1 $-1 $-1 $32 $-1 $8 #
shell $-1 $-1 $-1 $33 $-1 $10 #
shell $-1 $-1 $-1 $34 $-1 $12 #
shell $-1 $-1 $-1 $35 $-1 $14 #
shell $-1 $-1 $-1 $36 $-1 $16 #
shell $-1 $-1 $-1 $37 $-1 $18 #
shell $-1 $-1 $-1 $38 $-1 $20 #
shell $-1 $-1 $-1 $39 $-1 $22 #
face $-1 $40 $41 $24 $-1 $42 forward single #
face $-1 $43 $44 $25 $-1 $45 reversed single #
face $-1 $46 $47 $26 $-1 $48 reversed single #
face $-1 $49 $50 $27 $-1 $51 forward single #
face $-1 $52 $53 $28 $-1 $54 forward single #
face $-1 $55 $56 $29 $-1 $57 reversed single #
face $-1 $58 $59 $30 $-1 $60 forward single #
face $-1 $61 $62 $31 $-1 $63 forward single #
face $-1 $64 $65 $24 $-1 $66 reversed single #
loop $-1 $-1 $67 $32 #
plane-surface $-1 0 0 20.236774681835541 0 0 1 1 0 0 forward_v I I I I #
face $-1 $68 $69 $25 $-1 $70 reversed single #
loop $-1 $-1 $71 $33 #
plane-surface $-1 -61.511540805646362 0 9.7125648779692533 0 0 1 1 0 0 forward_v I I I I #
face $-1 $72 $73 $26 $-1 $74 reversed single #
loop $-1 $-1 $75 $34 #
plane-surface $-1 54.876745614009451 78.09440894626097 171.7913578361148 1 0 0 0 -0.68199836817093118 -0.7313536940579346 forward_v I I I I #
face $-1 $76 $77 $27 $-1 $78 forward single #
loop $-1 $79 $80 $35 #
cone-surface $-1 59.876319893583002 36.034062267238063 12.210707656407648 0 -0.68199836817093118 -0.7313536940579346 1 0 0 1 I I 0 1 1 forward I I I I #
face $-1 $81 $82 $28 $-1 $83 forward single #
loop $-1 $84 $85 $36 #
cone-surface $-1 67.375681312943328 36.034062267238063 12.210707656407648 0 -0.68199836817093118 -0.7313536940579346 1 0 0 1 I I 0 1 1 forward I I I I #
face $-1 $86 $87 $29 $-1 $88 reversed single #
loop $-1 $-1 $89 $37 #
plane-surface $-1 63.626000603263151 -44.575046786750818 5.1273184247521044 0 -0.68199836817093118 0.7313536940579346 1 0 0 forward_v I I I I #
face $-1 $90 $91 $30 $-1 $92 forward single #
loop $-1 $93 $94 $38 #
cone-surface $-1 59.876319893583002 -36.03406226723807 12.210707656407655 0 0.68199836817093118 -0.7313536940579346 1 0 0 1 I I 0 1 1 forward I I I I #
face $-1 $95 $96 $31 $-1 $97 forward single #
loop $-1 $98 $99 $39 #
cone-surface $-1 67.375681312943328 -36.03406226723807 12.210707656407655 0 0.68199836817093118 -0.7313536940579346 1 0 0 1 I I 0 1 1 forward I I I I #
face $-1 $100 $101 $24 $-1 $102 reversed single #
loop $-1 $-1 $103 $40 #
plane-surface $-1 0 0 -20.236774681835541 0 0 1 1 0 0 forward_v I I I I #
coedge $-1 $104 $105 $106 $107 forward $41 $-1 #
face $-1 $108 $109 $25 $-1 $110 reversed single #
loop $-1 $-1 $111 $43 #
plane-surface $-1 -50.647826018775874 0 14.974669779902399 -1 0 0 0 0 1 forward_v I I I I #
coedge $-1 $112 $113 $114 $115 forward $44 $-1 #
face $-1 $116 $117 $26 $-1 $118 forward single #
loop $-1 $-1 $119 $46 #
plane-surface $-1 63.626000603263151 -20.625203473840131 65.927536764166021 0 0.68199836817093118 0.7313536940579346 1 0 0 forward_v I I I I #
coedge $-1 $120 $121 $122 $123 reversed $47 $-1 #
face $-1 $-1 $124 $27 $-1 $125 forward single #
loop $-1 $126 $127 $49 #
cone-surface $-1 59.876319893583002 35.253532441352931 11.373691912492532 0 -0.68199836817093118 -0.7313536940579346 0.5 0 0 1 I I -0.70710678118654746 0.70710678118654746 0.5 forward I I I I #
loop $-1 $-1 $128 $35 #
coedge $-1 $80 $80 $129 $130 reversed $50 $-1 #
face $-1 $-1 $131 $28 $-1 $132 forward single #
loop $-1 $133 $134 $52 #
cone-surface $-1 67.375681312943328 35.253532441352931 11.373691912492532 0 -0.68199836817093118 -0.7313536940579346 0.5 0 0 1 I I -0.70710678118654746 0.70710678118654746 0.5 forward I I I I #
loop $-1 $-1 $135 $36 #
coedge $-1 $85 $85 $136 $137 reversed $53 $-1 #
face $-1 $138 $139 $29 $-1 $140 forward single #
loop $-1 $-1 $141 $55 #
plane-surface $-1 54.876745614009451 -143.29465920685192 110.99113949670088 1 0 0 0 0.68199836817093118 -0.7313536940579346 forward_v I I I I #
coedge $-1 $142 $143 $144 $145 reversed $56 $-1 #
face $-1 $-1 $146 $30 $-1 $147 forward single #
loop $-1 $148 $149 $58 #
cone-surface $-1 59.876319893583002 -35.253532441352938 11.373691912492539 0 0.68199836817093118 -0.7313536940579346 0.5 0 0 1 I I -0.70710678118654746 0.70710678118654746 0.5 forward I I I I #
loop $-1 $-1 $150 $38 #
coedge $-1 $94 $94 $151 $152 reversed $59 $-1 #
face $-1 $-1 $153 $31 $-1 $154 forward single #
loop $-1 $155 $156 $61 #
cone-surface $-1 67.375681312943328 -35.253532441352938 11.373691912492539 0 0.68199836817093118 -0.7313536940579346 0.5 0 0 1 I I -0.70710678118654746 0.70710678118654746 0.5 forward I I I I #
loop $-1 $-1 $157 $39 #
coedge $-1 $99 $99 $158 $159 reversed $62 $-1 #
face $-1 $160 $161 $24 $-1 $162 reversed single #
loop $-1 $-1 $163 $64 #
plane-surface $-1 0 -44.575046786750818 0 0 1 0 0 0 1 forward_v I I I I #
coedge $-1 $164 $165 $166 $167 forward $65 $-1 #
coedge $-1 $168 $67 $169 $170 forward $41 $-1 #
coedge $-1 $67 $168 $171 $172 forward $41 $-1 #
coedge $-1 $173 $174 $67 $107 reversed $175 $-1 #
edge $-1 $176 -44.575046786750818 $177 44.575046786750818 $106 $178 forward 7 unknown #
face $-1 $179 $180 $25 $-1 $181 reversed single #
loop $-1 $-1 $182 $68 #
plane-surface $-1 0 44.575046786750818 0 0 -1 0 0 0 -1 forward_v I I I I #
coedge $-1 $114 $183 $184 $185 reversed $69 $-1 #
coedge $-1 $186 $71 $187 $188 reversed $44 $-1 #
coedge $-1 $71 $186 $189 $190 reversed $44 $-1 #
coedge $-1 $191 $111 $71 $115 reversed $69 $-1 #
edge $-1 $192 -44.575046786750818 $193 44.575046786750818 $114 $194 forward 7 unknown #
face $-1 $195 $196 $26 $-1 $197 reversed single #
loop $-1 $-1 $122 $72 #
plane-surface $-1 0 0 20.236774681835541 0 0 1 1 0 0 forward_v I I I I #
coedge $-1 $198 $199 $200 $201 reversed $73 $-1 #
coedge $-1 $121 $75 $202 $203 reversed $47 $-1 #
coedge $-1 $75 $120 $198 $204 reversed $47 $-1 #
coedge $-1 $200 $205 $75 $123 forward $117 $-1 #
edge $-1 $206 -5.527842313620333 $207 10.675065441805806 $122 $208 forward 7 unknown #
loop $-1 $-1 $129 $76 #
plane-surface $-1 63.626000603263151 -20.625203473840131 65.927536764166021 0 0.68199836817093118 0.7313536940579346 1 0 0 forward_v I I I I #
loop $-1 $-1 $209 $49 #
coedge $-1 $127 $127 $128 $210 reversed $77 $-1 #
coedge $-1 $128 $128 $127 $210 forward $79 $-1 #
coedge $-1 $129 $129 $80 $130 forward $124 $-1 #
edge $-1 $211 -3.4750169799229693e-015 $211 6.2831853071795969 $129 $212 forward 7 unknown #
loop $-1 $-1 $136 $81 #
plane-surface $-1 63.626000603263151 -20.625203473840131 65.927536764166021 0 0.68199836817093118 0.7313536940579346 1 0 0 forward_v I I I I #
loop $-1 $-1 $213 $52 #
coedge $-1 $134 $134 $135 $214 reversed $82 $-1 #
coedge $-1 $135 $135 $134 $214 forward $84 $-1 #
coedge $-1 $136 $136 $85 $137 forward $131 $-1 #
edge $-1 $215 -3.4750169799229693e-015 $215 6.2831853071795969 $136 $216 forward 7 unknown #
face $-1 $217 $218 $29 $-1 $219 reversed single #
loop $-1 $-1 $144 $86 #
plane-surface $-1 0 0 20.236774681835541 0 0 1 1 0 0 forward_v I I I I #
coedge $-1 $220 $221 $222 $223 reversed $87 $-1 #
coedge $-1 $224 $89 $225 $226 reversed $56 $-1 #
coedge $-1 $89 $224 $220 $227 forward $56 $-1 #
coedge $-1 $222 $228 $89 $145 forward $139 $-1 #
edge $-1 $229 -40.562255290885275 $230 -23.063745312377876 $144 $231 forward 7 unknown #
loop $-1 $-1 $151 $90 #
plane-surface $-1 63.626000603263151 -44.575046786750818 5.1273184247521044 0 -0.68199836817093118 0.7313536940579346 1 0 0 forward_v I I I I #
loop $-1 $-1 $232 $58 #
coedge $-1 $149 $149 $150 $233 reversed $91 $-1 #
coedge $-1 $150 $150 $149 $233 forward $93 $-1 #
coedge $-1 $151 $151 $94 $152 forward $146 $-1 #
edge $-1 $234 2.263544514162724e-015 $234 6.2831853071796031 $151 $235 forward 7 unknown #
loop $-1 $-1 $158 $95 #
plane-surface $-1 63.626000603263151 -44.575046786750818 5.1273184247521044 0 -0.68199836817093118 0.7313536940579346 1 0 0 forward_v I I I I #
loop $-1 $-1 $236 $61 #
coedge $-1 $156 $156 $157 $237 reversed $96 $-1 #
coedge $-1 $157 $157 $156 $237 forward $98 $-1 #
coedge $-1 $158 $158 $99 $159 forward $153 $-1 #
edge $-1 $238 2.263544514162724e-015 $238 6.2831853071796031 $158 $239 forward 7 unknown #
face $-1 $240 $241 $24 $-1 $242 reversed single #
loop $-1 $-1 $243 $100 #
plane-surface $-1 -72.375255592516851 0 0 1 0 0 0 0 -1 forward_v I I I I #
coedge $-1 $244 $171 $245 $246 forward $101 $-1 #
coedge $-1 $247 $103 $244 $248 forward $65 $-1 #
coedge $-1 $103 $247 $249 $250 forward $65 $-1 #
coedge $-1 $174 $173 $103 $167 reversed $175 $-1 #
edge $-1 $251 -44.575046786750818 $252 44.575046786750818 $166 $253 forward 7 unknown #
coedge $-1 $105 $104 $254 $255 forward $41 $-1 #
coedge $-1 $256 $257 $104 $170 reversed $241 $-1 #
edge $-1 $177 -72.375255592516851 $258 72.375255592516851 $169 $259 forward 7 unknown #
coedge $-1 $163 $260 $105 $172 reversed $101 $-1 #
edge $-1 $261 -72.375255592516851 $176 72.375255592516851 $171 $262 forward 7 unknown #
coedge $-1 $166 $106 $260 $263 forward $175 $-1 #
coedge $-1 $106 $166 $256 $264 reversed $175 $-1 #
loop $-1 $-1 $173 $240 #
vertex $-1 $107 $265 #
vertex $-1 $107 $266 #
straight-curve $-1 72.375255592516851 0 20.236774681835541 0 1 0 I I #
face $-1 $267 $268 $25 $-1 $269 forward single #
loop $-1 $-1 $270 $108 #
plane-surface $-1 -72.375255592516851 0 0 1 0 0 0 0 -1 forward_v I I I I #
coedge $-1 $189 $271 $191 $272 forward $109 $-1 #
coedge $-1 $111 $191 $273 $274 reversed $69 $-1 #
coedge $-1 $275 $187 $111 $185 forward $276 $-1 #
edge $-1 $193 2.2252299880180537 $277 12.749439791884345 $184 $278 forward 7 unknown #
coedge $-1 $113 $112 $270 $279 reversed $44 $-1 #
coedge $-1 $184 $280 $112 $188 forward $276 $-1 #
edge $-1 $281 -41.61948518969367 $193 -19.892055615952692 $187 $282 forward 7 unknown #
coedge $-1 $283 $182 $113 $190 forward $109 $-1 #
edge $-1 $192 19.892055615952692 $284 41.61948518969367 $189 $285 forward 7 unknown #
coedge $-1 $183 $114 $182 $272 reversed $69 $-1 #
vertex $-1 $190 $286 #
vertex $-1 $188 $287 #
straight-curve $-1 -50.647826018775874 0 9.7125648779692533 0 -1 0 I I #
face $-1 $-1 $288 $26 $-1 $289 reversed single #
loop $-1 $-1 $290 $116 #
plane-surface $-1 72.375255592516851 0 0 -1 0 0 0 0 1 forward_v I I I I #
coedge $-1 $291 $119 $121 $204 forward $73 $-1 #
coedge $-1 $119 $291 $290 $292 reversed $73 $-1 #
coedge $-1 $293 $122 $119 $201 forward $117 $-1 #
edge $-1 $207 23.063745312377876 $294 40.562255290885275 $200 $295 forward 7 unknown #
coedge $-1 $296 $297 $120 $203 forward $288 $-1 #
edge $-1 $298 -80.768360493305295 $206 -65.658904236221858 $202 $299 forward 7 unknown #
edge $-1 $207 66.995412620809788 $298 89.150093573501621 $121 $300 forward 7 unknown #
coedge $-1 $122 $293 $296 $301 forward $117 $-1 #
vertex $-1 $203 $302 #
vertex $-1 $123 $303 #
straight-curve $-1 54.876745614009451 39.047204473130485 20.236774681835541 0 -1 0 I I #
coedge $-1 $209 $209 $-1 $304 reversed $126 $-1 #
edge $-1 $305 0 $305 6.2831853071796004 $127 $306 forward 7 unknown #
vertex $-1 $130 $307 #
ellipse-curve $-1 59.876319893583002 36.473592909037748 12.682046553293814 0 0.68199836817093118 0.7313536940579346 1 0 0 1 I I #
coedge $-1 $213 $213 $-1 $308 reversed $133 $-1 #
edge $-1 $309 0 $309 6.2831853071796004 $134 $310 forward 7 unknown #
vertex $-1 $137 $311 #
ellipse-curve $-1 67.375681312943328 36.473592909037748 12.682046553293814 0 0.68199836817093118 0.7313536940579346 1 0 0 1 I I #
face $-1 $-1 $312 $29 $-1 $313 reversed single #
loop $-1 $-1 $314 $138 #
plane-surface $-1 0 -44.575046786750818 0 0 1 0 0 0 1 forward_v I I I I #
coedge $-1 $221 $141 $143 $227 reversed $87 $-1 #
coedge $-1 $141 $220 $315 $316 reversed $87 $-1 #
coedge $-1 $317 $144 $141 $223 forward $139 $-1 #
edge $-1 $230 -43.275190572101266 $318 -27.072282816675141 $222 $319 forward 7 unknown #
coedge $-1 $143 $142 $314 $320 reversed $56 $-1 #
coedge $-1 $321 $322 $142 $226 forward $312 $-1 #
edge $-1 $323 -14.551651165760898 $229 7.6030297869309287 $225 $324 forward 7 unknown #
edge $-1 $325 0 $230 22.154680952691827 $220 $326 forward 7 unknown #
coedge $-1 $144 $317 $321 $327 forward $139 $-1 #
vertex $-1 $226 $328 #
vertex $-1 $145 $329 #
straight-curve $-1 31.813000301631575 -28.372139031324686 20.236774681835541 -1 0 0 I I #
coedge $-1 $232 $232 $-1 $330 reversed $148 $-1 #
edge $-1 $331 0 $331 6.2831853071796004 $149 $332 forward 7 unknown #
vertex $-1 $152 $333 #
ellipse-curve $-1 59.876319893583002 -36.473592909037755 12.682046553293823 0 -0.68199836817093118 0.7313536940579346 1 0 0 1 I I #
coedge $-1 $236 $236 $-1 $334 reversed $155 $-1 #
edge $-1 $335 0 $335 6.2831853071796004 $156 $336 forward 7 unknown #
vertex $-1 $159 $337 #
ellipse-curve $-1 67.375681312943328 -36.473592909037755 12.682046553293823 0 -0.68199836817093118 0.7313536940579346 1 0 0 1 I I #
face $-1 $-1 $175 $24 $-1 $338 reversed single #
loop $-1 $-1 $256 $160 #
plane-surface $-1 0 44.575046786750818 0 0 -1 0 0 0 -1 forward_v I I I I #
coedge $-1 $339 $254 $257 $340 forward $161 $-1 #
coedge $-1 $260 $163 $164 $248 reversed $101 $-1 #
coedge $-1 $254 $339 $163 $246 reversed $161 $-1 #
edge $-1 $261 -20.236774681835541 $341 20.236774681835541 $245 $342 forward 7 unknown #
coedge $-1 $165 $164 $339 $343 forward $65 $-1 #
edge $-1 $252 -72.375255592516851 $341 72.375255592516851 $244 $344 forward 7 unknown #
coedge $-1 $257 $256 $165 $250 reversed $241 $-1 #
edge $-1 $345 -72.375255592516851 $251 72.375255592516851 $249 $346 forward 7 unknown #
vertex $-1 $167 $347 #
vertex $-1 $263 $348 #
straight-curve $-1 72.375255592516851 0 -20.236774681835541 0 -1 0 I I #
coedge $-1 $243 $245 $168 $255 reversed $161 $-1 #
edge $-1 $258 -44.575046786750818 $261 44.575046786750818 $254 $349 forward 7 unknown #
coedge $-1 $249 $169 $174 $264 forward $241 $-1 #
coedge $-1 $169 $249 $243 $340 reversed $241 $-1 #
vertex $-1 $170 $350 #
straight-curve $-1 0 44.575046786750818 20.236774681835541 -1 0 0 I I #
coedge $-1 $171 $244 $173 $263 reversed $101 $-1 #
vertex $-1 $255 $351 #
straight-curve $-1 0 -44.575046786750818 20.236774681835541 1 0 0 I I #
edge $-1 $176 -20.236774681835541 $252 20.236774681835541 $173 $352 forward 7 unknown #
edge $-1 $177 -20.236774681835541 $251 20.236774681835541 $174 $353 forward 7 unknown #
point $-1 72.375255592516851 -44.575046786750818 20.236774681835541 #
point $-1 72.375255592516851 44.575046786750818 20.236774681835541 #
face $-1 $-1 $276 $25 $-1 $354 reversed single #
loop $-1 $-1 $273 $179 #
plane-surface $-1 0 0 20.236774681835541 0 0 1 1 0 0 forward_v I I I I #
coedge $-1 $355 $356 $186 $279 forward $180 $-1 #
coedge $-1 $182 $283 $357 $358 reversed $109 $-1 #
edge $-1 $359 -12.749439791884345 $192 -2.2252299880180537 $182 $360 forward 7 unknown #
coedge $-1 $357 $361 $183 $274 forward $268 $-1 #
edge $-1 $277 -44.575046786750818 $359 44.575046786750818 $273 $362 forward 7 unknown #
coedge $-1 $280 $184 $361 $363 reversed $276 $-1 #
loop $-1 $-1 $184 $267 #
vertex $-1 $185 $364 #
straight-curve $-1 -50.647826018775874 -44.575046786750818 7.4873348899511996 0 0 1 I I #
edge $-1 $284 -44.575046786750818 $281 44.575046786750818 $270 $365 forward 7 unknown #
coedge $-1 $187 $275 $355 $366 forward $276 $-1 #
vertex $-1 $279 $367 #
straight-curve $-1 -30.755770402823181 -44.575046786750818 9.7125648779692533 1 0 0 I I #
coedge $-1 $271 $189 $356 $368 reversed $109 $-1 #
vertex $-1 $279 $369 #
straight-curve $-1 -30.755770402823181 44.575046786750818 9.7125648779692533 -1 0 0 I I #
point $-1 -50.647826018775874 44.575046786750818 9.7125648779692533 #
point $-1 -50.647826018775874 -44.575046786750818 9.7125648779692533 #
loop $-1 $-1 $202 $195 #
plane-surface $-1 0 44.575046786750818 0 0 -1 0 0 0 -1 forward_v I I I I #
coedge $-1 $370 $371 $199 $292 forward $196 $-1 #
coedge $-1 $199 $198 $297 $372 reversed $73 $-1 #
edge $-1 $294 36.972016999819871 $373 59.126697952511712 $290 $374 forward 7 unknown #
coedge $-1 $205 $200 $371 $375 forward $117 $-1 #
vertex $-1 $375 $376 #
straight-curve $-1 31.813000301631575 28.372139031324679 20.236774681835541 1 0 0 I I #
coedge $-1 $377 $202 $205 $301 reversed $288 $-1 #
coedge $-1 $202 $377 $291 $372 forward $288 $-1 #
vertex $-1 $203 $378 #
straight-curve $-1 54.876745614009451 44.575046786750818 85.895678918057399 0 0 1 I I #
straight-curve $-1 54.876745614009451 -20.625203473840131 65.927536764166021 0 0.7313536940579346 -0.68199836817093118 I I #
edge $-1 $379 -72.375255592516851 $206 -54.876745614009451 $296 $380 forward 7 unknown #
point $-1 54.876745614009451 44.575046786750818 20.236774681835541 #
point $-1 54.876745614009451 28.372139031324679 20.236774681835541 #
edge $-1 $381 1 $381 0 $209 $-1 forward 7 unknown #
vertex $-1 $210 $382 #
ellipse-curve $-1 59.876319893583002 35.5945316254384 11.739368759521499 0 0.68199836817093118 0.7313536940579346 1 0 0 1 I I #
point $-1 60.876319893583002 36.473592909037727 12.682046553293796 #
edge $-1 $383 1 $383 0 $213 $-1 forward 7 unknown #
vertex $-1 $214 $384 #
ellipse-curve $-1 67.375681312943328 35.5945316254384 11.739368759521499 0 0.68199836817093118 0.7313536940579346 1 0 0 1 I I #
point $-1 68.375681312943328 36.473592909037727 12.682046553293796 #
loop $-1 $-1 $225 $217 #
plane-surface $-1 72.375255592516851 0 0 -1 0 0 0 0 1 forward_v I I I I #
coedge $-1 $385 $315 $224 $320 forward $218 $-1 #
coedge $-1 $314 $386 $221 $316 forward $218 $-1 #
edge $-1 $318 35.258795066514899 $325 50.368251323598336 $315 $387 forward 7 unknown #
coedge $-1 $228 $222 $386 $388 forward $139 $-1 #
vertex $-1 $388 $389 #
straight-curve $-1 54.876745614009451 -71.647329603425959 20.236774681835541 0 -1 0 I I #
edge $-1 $325 23.063745312377876 $323 40.562255290885275 $314 $390 forward 7 unknown #
coedge $-1 $322 $225 $228 $327 reversed $312 $-1 #
coedge $-1 $225 $321 $385 $391 forward $312 $-1 #
vertex $-1 $320 $392 #
straight-curve $-1 72.375255592516851 -33.932642952029134 15.051520773993664 0 0.7313536940579346 0.68199836817093118 I I #
vertex $-1 $320 $393 #
straight-curve $-1 54.876745614009451 -44.575046786750818 5.1273184247521044 0 0.7313536940579346 0.68199836817093118 I I #
edge $-1 $394 -44.575046786750818 $229 -28.372139031324689 $321 $395 forward 7 unknown #
point $-1 72.375255592516851 -28.372139031324689 20.236774681835541 #
point $-1 54.876745614009451 -28.372139031324689 20.236774681835541 #
edge $-1 $396 1 $396 0 $232 $-1 forward 7 unknown #
vertex $-1 $233 $397 #
ellipse-curve $-1 59.876319893583002 -35.594531625438407 11.739368759521506 0 -0.68199836817093118 0.7313536940579346 1 0 0 1 I I #
point $-1 60.876319893583002 -36.473592909037734 12.682046553293803 #
edge $-1 $398 1 $398 0 $236 $-1 forward 7 unknown #
vertex $-1 $237 $399 #
ellipse-curve $-1 67.375681312943328 -35.594531625438407 11.739368759521506 0 -0.68199836817093118 0.7313536940579346 1 0 0 1 I I #
point $-1 68.375681312943328 -36.473592909037734 12.682046553293803 #
plane-surface $-1 72.375255592516851 0 0 -1 0 0 0 0 1 forward_v I I I I #
coedge $-1 $245 $243 $247 $343 reversed $161 $-1 #
edge $-1 $258 -20.236774681835541 $345 20.236774681835541 $257 $400 forward 7 unknown #
vertex $-1 $343 $401 #
straight-curve $-1 -72.375255592516851 -44.575046786750818 0 0 0 -1 I I #
edge $-1 $341 -44.575046786750818 $345 44.575046786750818 $339 $402 forward 7 unknown #
straight-curve $-1 0 -44.575046786750818 -20.236774681835541 -1 0 0 I I #
vertex $-1 $250 $403 #
straight-curve $-1 0 44.575046786750818 -20.236774681835541 1 0 0 I I #
point $-1 72.375255592516851 44.575046786750818 -20.236774681835541 #
point $-1 72.375255592516851 -44.575046786750818 -20.236774681835541 #
straight-curve $-1 -72.375255592516851 0 20.236774681835541 0 -1 0 I I #
point $-1 -72.375255592516851 44.575046786750818 20.236774681835541 #
point $-1 -72.375255592516851 -44.575046786750818 20.236774681835541 #
straight-curve $-1 72.375255592516851 -44.575046786750818 0 0 0 -1 I I #
straight-curve $-1 72.375255592516851 44.575046786750818 0 0 0 -1 I I #
plane-surface $-1 0 -44.575046786750818 0 0 1 0 0 0 1 forward_v I I I I #
coedge $-1 $404 $270 $280 $366 reversed $180 $-1 #
coedge $-1 $270 $404 $283 $368 forward $180 $-1 #
coedge $-1 $405 $273 $271 $358 forward $268 $-1 #
edge $-1 $359 50.647826018775874 $406 72.375255592516851 $271 $407 forward 7 unknown #
vertex $-1 $358 $408 #
straight-curve $-1 -50.647826018775874 44.575046786750818 7.4873348899511996 0 0 -1 I I #
coedge $-1 $273 $405 $275 $363 forward $268 $-1 #
straight-curve $-1 -50.647826018775874 0 20.236774681835541 0 1 0 I I #
edge $-1 $409 -72.375255592516851 $277 -50.647826018775874 $275 $410 forward 7 unknown #
point $-1 -50.647826018775874 -44.575046786750818 20.236774681835545 #
straight-curve $-1 -72.375255592516851 0 9.7125648779692533 0 -1 0 I I #
edge $-1 $409 -20.236774681835541 $281 -9.7125648779692533 $355 $411 forward 7 unknown #
point $-1 -72.375255592516851 -44.575046786750818 9.7125648779692533 #
edge $-1 $406 -20.236774681835541 $284 -9.7125648779692533 $283 $412 forward 7 unknown #
point $-1 -72.375255592516851 44.575046786750818 9.7125648779692533 #
coedge $-1 $371 $290 $377 $413 reversed $196 $-1 #
coedge $-1 $290 $370 $293 $375 reversed $196 $-1 #
edge $-1 $373 -40.562255290885275 $298 -23.063745312377876 $297 $414 forward 7 unknown #
vertex $-1 $292 $415 #
straight-curve $-1 72.375255592516851 1.33251782173366 45.451629943700624 0 0.7313536940579346 -0.68199836817093118 I I #
edge $-1 $294 28.372139031324679 $379 44.575046786750818 $371 $416 forward 7 unknown #
point $-1 72.375255592516851 28.372139031324679 20.236774681835541 #
coedge $-1 $297 $296 $370 $413 forward $288 $-1 #
point $-1 54.876745614009451 44.575046786750818 5.1273184247520973 #
vertex $-1 $375 $417 #
straight-curve $-1 0 44.575046786750818 20.236774681835541 -1 0 0 I I #
vertex $-1 $304 $418 #
point $-1 60.876319893583002 35.5945316254384 11.739368759521499 #
vertex $-1 $308 $419 #
point $-1 68.375681312943328 35.5945316254384 11.739368759521499 #
coedge $-1 $386 $314 $322 $391 reversed $218 $-1 #
coedge $-1 $315 $385 $317 $388 reversed $218 $-1 #
straight-curve $-1 54.876745614009451 -44.575046786750818 55.495569748350441 0 0 -1 I I #
edge $-1 $318 54.876745614009451 $394 72.375255592516851 $386 $420 forward 7 unknown #
point $-1 54.876745614009451 -44.575046786750818 20.236774681835541 #
straight-curve $-1 31.813000301631575 -44.575046786750818 5.1273184247521071 1 0 0 I I #
edge $-1 $394 -20.236774681835541 $323 -5.1273184247521044 $322 $421 forward 7 unknown #
point $-1 72.375255592516851 -44.575046786750818 5.1273184247521044 #
point $-1 54.876745614009451 -44.575046786750818 5.1273184247521044 #
vertex $-1 $327 $422 #
straight-curve $-1 72.375255592516851 0 20.236774681835541 0 1 0 I I #
vertex $-1 $330 $423 #
point $-1 60.876319893583002 -35.594531625438407 11.739368759521506 #
vertex $-1 $334 $424 #
point $-1 68.375681312943328 -35.594531625438407 11.739368759521506 #
straight-curve $-1 -72.375255592516851 44.575046786750818 0 0 0 -1 I I #
point $-1 -72.375255592516851 -44.575046786750818 -20.236774681835541 #
straight-curve $-1 -72.375255592516851 0 -20.236774681835541 0 1 0 I I #
point $-1 -72.375255592516851 44.575046786750818 -20.236774681835541 #
coedge $-1 $356 $355 $405 $425 reversed $180 $-1 #
coedge $-1 $361 $357 $404 $425 forward $268 $-1 #
vertex $-1 $358 $426 #
straight-curve $-1 0 44.575046786750818 20.236774681835541 -1 0 0 I I #
point $-1 -50.647826018775874 44.575046786750818 20.236774681835545 #
vertex $-1 $425 $427 #
straight-curve $-1 0 -44.575046786750818 20.236774681835541 1 0 0 I I #
straight-curve $-1 -72.375255592516851 -44.575046786750818 0 0 0 -1 I I #
straight-curve $-1 -72.375255592516851 44.575046786750818 0 0 0 -1 I I #
edge $-1 $379 -20.236774681835541 $373 -5.1273184247520973 $370 $428 forward 7 unknown #
straight-curve $-1 31.813000301631575 44.575046786750811 5.1273184247521009 -1 0 0 I I #
point $-1 72.375255592516851 44.575046786750818 5.1273184247520973 #
straight-curve $-1 72.375255592516851 0 20.236774681835541 0 1 0 I I #
point $-1 72.375255592516851 44.575046786750818 20.236774681835541 #
point $-1 59.876319893583002 34.912533257267462 11.008015065463566 #
point $-1 67.375681312943328 34.912533257267462 11.008015065463566 #
straight-curve $-1 0 -44.575046786750818 20.236774681835541 1 0 0 I I #
straight-curve $-1 72.375255592516851 -44.575046786750818 0 0 0 -1 I I #
point $-1 72.375255592516851 -44.575046786750818 20.236774681835541 #
point $-1 59.876319893583002 -34.912533257267469 11.008015065463573 #
point $-1 67.375681312943328 -34.912533257267469 11.008015065463573 #
edge $-1 $406 -44.575046786750818 $409 44.575046786750818 $404 $429 forward 7 unknown #
point $-1 -72.375255592516851 44.575046786750818 20.236774681835541 #
point $-1 -72.375255592516851 -44.575046786750818 20.236774681835541 #
straight-curve $-1 72.375255592516851 44.575046786750818 0 0 0 -1 I I #
straight-curve $-1 -72.375255592516851 0 20.236774681835541 0 -1 0 I I #
End-of-ACIS-data 