500 0 8 0           
7 Unknown 11 ACIS 5.0 NT 24 Fri Mar 26 19:04:13 1999 
-1 9.9999999999999995e-007 1e-010 
body $-1 $8 $-1 $9 #
body $-1 $10 $-1 $11 #
body $-1 $12 $-1 $13 #
body $-1 $14 $-1 $15 #
body $-1 $16 $-1 $17 #
body $-1 $18 $-1 $19 #
body $-1 $20 $-1 $21 #
body $-1 $22 $-1 $23 #
lump $-1 $-1 $24 $0 #
transform $-1 1 0 0 0 1 0 0 0 1 64.737083040864292 43.333956672670823 18.547361941939734 1 rotate no_reflect no_shear #
lump $-1 $-1 $25 $1 #
transform $-1 1 0 0 0 1 0 0 0 1 64.737083040864292 43.333956672670823 18.547361941939734 1 rotate no_reflect no_shear #
lump $-1 $-1 $26 $2 #
transform $-1 1 0 0 0 1 0 0 0 1 64.737083040864292 43.333956672670823 18.547361941939734 1 rotate no_reflect no_shear #
lump $-1 $-1 $27 $3 #
transform $-1 1 0 0 0 1 0 0 0 1 64.737083040864292 43.333956672670823 18.547361941939734 1 rotate no_reflect no_shear #
lump $-1 $-1 $28 $4 #
transform $-1 1 0 0 0 1 0 0 0 1 64.737083040864292 43.333956672670823 18.547361941939734 1 rotate no_reflect no_shear #
lump $-1 $-1 $29 $5 #
transform $-1 1 0 0 0 1 0 0 0 1 64.737083040864292 43.333956672670823 18.547361941939734 1 rotate no_reflect no_shear #
lump $-1 $-1 $30 $6 #
transform $-1 1 0 0 0 1 0 0 0 1 64.737083040864292 43.333956672670823 18.547361941939734 1 rotate no_reflect no_shear #
lump $-1 $-1 $31 $7 #
transform $-1 1 0 0 0 1 0 0 0 1 64.737083040864292 43.333956672670823 18.547361941939734 1 rotate no_reflect no_shear #
shell $-1 $-1 $-1 $32 $-1 $8 #
shell $-1 $-1 $-1 $33 $-1 $10 #
shell $-1 $-1 $-1 $34 $-1 $12 #
shell $-1 $-1 $-1 $35 $-1 $14 #
shell $-1 $-1 $-1 $36 $-1 $16 #
shell $-1 $-1 $-1 $37 $-1 $18 #
shell $-1 $-1 $-1 $38 $-1 $20 #
shell $-1 $-1 $-1 $39 $-1 $22 #
face $-1 $40 $41 $24 $-1 $42 forward single #
face $-1 $43 $44 $25 $-1 $45 forward single #
face $-1 $46 $47 $26 $-1 $48 reversed single #
face $-1 $49 $50 $27 $-1 $51 forward single #
face $-1 $52 $53 $28 $-1 $54 forward single #
face $-1 $55 $56 $29 $-1 $57 reversed single #
face $-1 $58 $59 $30 $-1 $60 forward single #
face $-1 $61 $62 $31 $-1 $63 forward single #
face $-1 $64 $65 $24 $-1 $66 reversed single #
loop $-1 $-1 $67 $32 #
plane-surface $-1 0 0 18.547361941939734 0 0 1 1 0 0 forward_v I I I I #
face $-1 $68 $69 $25 $-1 $70 reversed single #
loop $-1 $-1 $71 $33 #
plane-surface $-1 0 -35.372860851612877 -13.443625143157611 0 0 1 1 0 0 forward_v I I I I #
face $-1 $72 $73 $26 $-1 $74 reversed single #
loop $-1 $-1 $75 $34 #
plane-surface $-1 48.778509199561014 35.903140595947534 184.73991040027909 0 1 0 0.64278761758704617 0 0.76604443648966558 forward_v I I I I #
face $-1 $76 $77 $27 $-1 $78 forward single #
loop $-1 $79 $80 $35 #
cone-surface $-1 54.065785142587892 38.026230903582757 9.2371562796746929 -0.64278761758704617 0 -0.76604443648966558 0.76604443648966558 0 -0.64278761758704617 1 I I 0 1 1 forward I I I I #
face $-1 $81 $82 $28 $-1 $83 forward single #
loop $-1 $84 $85 $36 #
cone-surface $-1 54.065785142587892 41.210866365035599 9.2371562796746929 -0.64278761758704617 0 -0.76604443648966558 0.76604443648966558 0 -0.64278761758704617 1 I I 0 1 1 forward I I I I #
face $-1 $86 $87 $29 $-1 $88 reversed single #
loop $-1 $-1 $89 $37 #
plane-surface $-1 -147.96147379560816 35.903140595947534 101.51551964553522 0 1 0 -0.64278761758704617 0 0.76604443648966558 forward_v I I I I #
face $-1 $90 $91 $30 $-1 $92 forward single #
loop $-1 $93 $94 $38 #
cone-surface $-1 -54.065785142587892 38.026230903582757 9.2371562796746929 0.64278761758704617 0 -0.76604443648966558 0.76604443648966558 0 0.64278761758704617 1 I I 0 1 1 forward I I I I #
face $-1 $95 $96 $31 $-1 $97 forward single #
loop $-1 $98 $99 $39 #
cone-surface $-1 -54.065785142587892 41.210866365035599 9.2371562796746929 0.64278761758704617 0 -0.76604443648966558 0.76604443648966558 0 0.64278761758704617 1 I I 0 1 1 forward I I I I #
face $-1 $100 $101 $24 $-1 $102 reversed single #
loop $-1 $-1 $103 $40 #
plane-surface $-1 0 0 -18.547361941939734 0 0 1 1 0 0 forward_v I I I I #
coedge $-1 $104 $105 $106 $107 forward $41 $-1 #
face $-1 $108 $109 $25 $-1 $110 reversed single #
loop $-1 $-1 $111 $43 #
plane-surface $-1 0 -27.411765030554935 -15.995493542548672 0 -1 0 0 0 -1 forward_v I I I I #
coedge $-1 $112 $113 $114 $115 reversed $44 $-1 #
face $-1 $116 $117 $26 $-1 $118 forward single #
loop $-1 $-1 $119 $46 #
plane-surface $-1 -34.445881555182837 39.618548634309178 85.556945804231944 0.64278761758704617 0 0.76604443648966558 0.76604443648966558 0 -0.64278761758704617 forward_v I I I I #
coedge $-1 $120 $121 $122 $123 reversed $47 $-1 #
face $-1 $-1 $124 $27 $-1 $125 forward single #
loop $-1 $126 $127 $49 #
cone-surface $-1 52.735120416797514 38.026230903582757 7.6513318453906507 -0.64278761758704617 0 -0.76604443648966558 0.38302221824483279 0 -0.32139380879352308 1 I I -0.70710678118654746 0.70710678118654746 0.5 forward I I I I #
loop $-1 $-1 $128 $35 #
coedge $-1 $80 $80 $129 $130 reversed $50 $-1 #
face $-1 $-1 $131 $28 $-1 $132 forward single #
loop $-1 $133 $134 $52 #
cone-surface $-1 52.735120416797514 41.210866365035599 7.6513318453906507 -0.64278761758704617 0 -0.76604443648966558 0.38302221824483279 0 -0.32139380879352308 1 I I -0.70710678118654746 0.70710678118654746 0.5 forward I I I I #
loop $-1 $-1 $135 $36 #
coedge $-1 $85 $85 $136 $137 reversed $53 $-1 #
face $-1 $138 $139 $29 $-1 $140 reversed single #
loop $-1 $-1 $141 $55 #
plane-surface $-1 -64.737083040864306 39.618548634309178 2.3325550494880787 -0.64278761758704617 0 0.76604443648966558 0.76604443648966558 0 0.64278761758704617 forward_v I I I I #
coedge $-1 $142 $143 $144 $145 reversed $56 $-1 #
face $-1 $-1 $146 $30 $-1 $147 forward single #
loop $-1 $148 $149 $58 #
cone-surface $-1 -52.735120416797514 38.026230903582757 7.6513318453906507 0.64278761758704617 0 -0.76604443648966558 0.38302221824483279 0 0.32139380879352308 1 I I -0.70710678118654746 0.70710678118654746 0.5 forward I I I I #
loop $-1 $-1 $150 $38 #
coedge $-1 $94 $94 $151 $152 reversed $59 $-1 #
face $-1 $-1 $153 $31 $-1 $154 forward single #
loop $-1 $155 $156 $61 #
cone-surface $-1 -52.735120416797514 41.210866365035599 7.6513318453906507 0.64278761758704617 0 -0.76604443648966558 0.38302221824483279 0 0.32139380879352308 1 I I -0.70710678118654746 0.70710678118654746 0.5 forward I I I I #
loop $-1 $-1 $157 $39 #
coedge $-1 $99 $99 $158 $159 reversed $62 $-1 #
face $-1 $160 $161 $24 $-1 $162 reversed single #
loop $-1 $-1 $163 $64 #
plane-surface $-1 0 -43.333956672670823 0 0 1 0 0 0 1 forward_v I I I I #
coedge $-1 $164 $165 $166 $167 forward $65 $-1 #
coedge $-1 $168 $67 $169 $170 forward $41 $-1 #
coedge $-1 $67 $168 $171 $172 forward $41 $-1 #
coedge $-1 $173 $174 $67 $107 reversed $175 $-1 #
edge $-1 $176 -43.333956672670823 $177 43.333956672670823 $106 $178 forward 7 unknown #
face $-1 $179 $180 $25 $-1 $181 reversed single #
loop $-1 $-1 $182 $68 #
plane-surface $-1 0 0 -18.547361941939734 0 0 1 1 0 0 forward_v I I I I #
coedge $-1 $183 $184 $185 $186 reversed $69 $-1 #
coedge $-1 $187 $71 $184 $188 forward $44 $-1 #
coedge $-1 $71 $187 $189 $190 reversed $44 $-1 #
coedge $-1 $191 $185 $71 $115 forward $180 $-1 #
edge $-1 $192 9.7253346047484968 $193 25.647526246864384 $114 $194 forward 7 unknown #
face $-1 $195 $196 $26 $-1 $197 reversed single #
loop $-1 $-1 $198 $72 #
plane-surface $-1 0 0 18.547361941939734 0 0 1 1 0 0 forward_v I I I I #
coedge $-1 $199 $200 $201 $202 reversed $73 $-1 #
coedge $-1 $121 $75 $203 $204 reversed $47 $-1 #
coedge $-1 $75 $120 $199 $205 reversed $47 $-1 #
coedge $-1 $201 $206 $75 $123 forward $207 $-1 #
edge $-1 $208 73.822593258199817 $209 90.037400150651436 $122 $210 forward 7 unknown #
loop $-1 $-1 $129 $76 #
plane-surface $-1 -34.445881555182837 39.618548634309178 85.556945804231944 0.64278761758704617 0 0.76604443648966558 0.76604443648966558 0 -0.64278761758704617 forward_v I I I I #
loop $-1 $-1 $211 $49 #
coedge $-1 $127 $127 $128 $212 reversed $77 $-1 #
coedge $-1 $128 $128 $127 $212 forward $79 $-1 #
coedge $-1 $129 $129 $80 $130 forward $124 $-1 #
edge $-1 $213 0 $213 6.2831853071796004 $129 $214 forward 7 unknown #
loop $-1 $-1 $136 $81 #
plane-surface $-1 -34.445881555182837 39.618548634309178 85.556945804231944 0.64278761758704617 0 0.76604443648966558 0.76604443648966558 0 -0.64278761758704617 forward_v I I I I #
loop $-1 $-1 $215 $52 #
coedge $-1 $134 $134 $135 $216 reversed $82 $-1 #
coedge $-1 $135 $135 $134 $216 forward $84 $-1 #
coedge $-1 $136 $136 $85 $137 forward $131 $-1 #
edge $-1 $217 0 $217 6.2831853071796004 $136 $218 forward 7 unknown #
face $-1 $219 $220 $29 $-1 $221 reversed single #
loop $-1 $-1 $222 $86 #
plane-surface $-1 0 43.333956672670823 0 0 -1 0 0 0 -1 forward_v I I I I #
coedge $-1 $223 $224 $225 $226 reversed $87 $-1 #
coedge $-1 $143 $89 $227 $228 reversed $56 $-1 #
coedge $-1 $89 $142 $223 $229 reversed $56 $-1 #
coedge $-1 $225 $230 $89 $145 forward $231 $-1 #
edge $-1 $232 9.2436538569397868 $233 28.567707819498857 $144 $234 forward 7 unknown #
loop $-1 $-1 $151 $90 #
plane-surface $-1 -64.737083040864306 39.618548634309178 2.3325550494880787 -0.64278761758704617 0 0.76604443648966558 0.76604443648966558 0 0.64278761758704617 forward_v I I I I #
loop $-1 $-1 $235 $58 #
coedge $-1 $149 $149 $150 $236 reversed $91 $-1 #
coedge $-1 $150 $150 $149 $236 forward $93 $-1 #
coedge $-1 $151 $151 $94 $152 forward $146 $-1 #
edge $-1 $237 0 $237 6.2831853071796004 $151 $238 forward 7 unknown #
loop $-1 $-1 $158 $95 #
plane-surface $-1 -64.737083040864306 39.618548634309178 2.3325550494880787 -0.64278761758704617 0 0.76604443648966558 0.76604443648966558 0 0.64278761758704617 forward_v I I I I #
loop $-1 $-1 $239 $61 #
coedge $-1 $156 $156 $157 $240 reversed $96 $-1 #
coedge $-1 $157 $157 $156 $240 forward $98 $-1 #
coedge $-1 $158 $158 $99 $159 forward $153 $-1 #
edge $-1 $241 0 $241 6.2831853071796004 $158 $242 forward 7 unknown #
face $-1 $243 $244 $24 $-1 $245 reversed single #
loop $-1 $-1 $246 $100 #
plane-surface $-1 -64.737083040864292 0 0 1 0 0 0 0 -1 forward_v I I I I #
coedge $-1 $247 $171 $248 $249 forward $101 $-1 #
coedge $-1 $250 $103 $247 $251 forward $65 $-1 #
coedge $-1 $103 $250 $252 $253 forward $65 $-1 #
coedge $-1 $174 $173 $103 $167 reversed $175 $-1 #
edge $-1 $254 -43.333956672670823 $255 43.333956672670823 $166 $256 forward 7 unknown #
coedge $-1 $105 $104 $257 $258 forward $41 $-1 #
coedge $-1 $259 $260 $104 $170 reversed $244 $-1 #
edge $-1 $177 -64.737083040864292 $261 64.737083040864292 $169 $262 forward 7 unknown #
coedge $-1 $163 $263 $105 $172 reversed $101 $-1 #
edge $-1 $264 -64.737083040864292 $176 64.737083040864292 $171 $265 forward 7 unknown #
coedge $-1 $166 $106 $263 $266 forward $175 $-1 #
coedge $-1 $106 $166 $259 $267 reversed $175 $-1 #
loop $-1 $-1 $173 $243 #
vertex $-1 $107 $268 #
vertex $-1 $107 $269 #
straight-curve $-1 64.737083040864292 0 18.547361941939734 0 1 0 I I #
face $-1 $270 $271 $25 $-1 $272 reversed single #
loop $-1 $-1 $185 $108 #
plane-surface $-1 64.737083040864292 0 0 -1 0 0 0 0 1 forward_v I I I I #
coedge $-1 $273 $274 $183 $275 forward $109 $-1 #
coedge $-1 $276 $111 $182 $275 reversed $69 $-1 #
coedge $-1 $111 $276 $112 $188 reversed $69 $-1 #
coedge $-1 $114 $277 $111 $186 forward $180 $-1 #
edge $-1 $278 -10.549615170665398 $192 -5.4458783718832748 $185 $279 forward 7 unknown #
coedge $-1 $113 $112 $280 $281 reversed $44 $-1 #
edge $-1 $192 -64.737083040864292 $282 64.737083040864292 $184 $283 forward 7 unknown #
coedge $-1 $284 $285 $113 $190 forward $271 $-1 #
edge $-1 $193 -64.737083040864292 $286 64.737083040864292 $189 $287 forward 7 unknown #
coedge $-1 $277 $114 $285 $288 forward $180 $-1 #
vertex $-1 $115 $289 #
vertex $-1 $288 $290 #
straight-curve $-1 64.737083040864292 -17.686430425806439 -13.443625143157611 0 -1 0 I I #
face $-1 $-1 $207 $26 $-1 $291 reversed single #
loop $-1 $-1 $292 $116 #
plane-surface $-1 0 43.333956672670823 0 0 -1 0 0 0 -1 forward_v I I I I #
coedge $-1 $203 $293 $294 $295 forward $117 $-1 #
coedge $-1 $294 $119 $121 $205 forward $73 $-1 #
coedge $-1 $119 $294 $292 $296 reversed $73 $-1 #
coedge $-1 $297 $122 $119 $202 forward $207 $-1 #
edge $-1 $209 16.093866278792945 $298 23.524682355516234 $201 $299 forward 7 unknown #
coedge $-1 $300 $198 $120 $204 forward $117 $-1 #
edge $-1 $301 21.023774478524722 $208 40.347828441083784 $203 $302 forward 7 unknown #
edge $-1 $209 -129.47416608172855 $301 -104.24840496125111 $121 $303 forward 7 unknown #
coedge $-1 $122 $297 $300 $304 reversed $207 $-1 #
loop $-1 $-1 $201 $195 #
vertex $-1 $304 $305 #
vertex $-1 $123 $306 #
straight-curve $-1 64.737083040864292 35.903140595947534 92.369955200139543 0 0 -1 I I #
coedge $-1 $211 $211 $-1 $307 reversed $126 $-1 #
edge $-1 $308 0 $308 6.2831853071796004 $127 $309 forward 7 unknown #
vertex $-1 $130 $310 #
ellipse-curve $-1 55.07505605958476 38.026230903582757 10.439958495713924 0.64278761758704617 0 0.76604443648966558 0.76604443648966558 0 -0.64278761758704617 1 I I #
coedge $-1 $215 $215 $-1 $311 reversed $133 $-1 #
edge $-1 $312 0 $312 6.2831853071796004 $134 $313 forward 7 unknown #
vertex $-1 $137 $314 #
ellipse-curve $-1 55.07505605958476 41.210866365035599 10.439958495713924 0.64278761758704617 0 0.76604443648966558 0.76604443648966558 0 -0.64278761758704617 1 I I #
face $-1 $-1 $231 $29 $-1 $315 forward single #
loop $-1 $-1 $316 $138 #
plane-surface $-1 -64.737083040864292 0 0 1 0 0 0 0 -1 forward_v I I I I #
coedge $-1 $317 $318 $224 $319 forward $139 $-1 #
coedge $-1 $320 $141 $143 $229 forward $87 $-1 #
coedge $-1 $141 $320 $222 $319 reversed $87 $-1 #
coedge $-1 $321 $144 $141 $226 forward $231 $-1 #
edge $-1 $233 16.093866278792945 $322 23.524682355516234 $225 $323 forward 7 unknown #
coedge $-1 $324 $316 $142 $228 forward $220 $-1 #
edge $-1 $325 -48.425204773279518 $232 -32.210397880827877 $227 $326 forward 7 unknown #
edge $-1 $233 -25.225761120477479 $325 -1.8593432412625586e-014 $143 $327 forward 7 unknown #
coedge $-1 $144 $321 $324 $328 forward $231 $-1 #
loop $-1 $-1 $225 $219 #
vertex $-1 $228 $329 #
vertex $-1 $145 $330 #
straight-curve $-1 -73.980736897804078 35.903140595947534 18.547361941939734 1 0 0 I I #
coedge $-1 $235 $235 $-1 $331 reversed $148 $-1 #
edge $-1 $332 0 $332 6.2831853071796004 $149 $333 forward 7 unknown #
vertex $-1 $152 $334 #
ellipse-curve $-1 -55.075056059584753 38.026230903582757 10.439958495713913 -0.64278761758704617 0 0.76604443648966558 0.76604443648966558 0 0.64278761758704617 1 I I #
coedge $-1 $239 $239 $-1 $335 reversed $155 $-1 #
edge $-1 $336 0 $336 6.2831853071796004 $156 $337 forward 7 unknown #
vertex $-1 $159 $338 #
ellipse-curve $-1 -55.075056059584753 41.210866365035599 10.439958495713913 -0.64278761758704617 0 0.76604443648966558 0.76604443648966558 0 0.64278761758704617 1 I I #
face $-1 $-1 $175 $24 $-1 $339 reversed single #
loop $-1 $-1 $259 $160 #
plane-surface $-1 0 43.333956672670823 0 0 -1 0 0 0 -1 forward_v I I I I #
coedge $-1 $340 $257 $260 $341 forward $161 $-1 #
coedge $-1 $263 $163 $164 $251 reversed $101 $-1 #
coedge $-1 $257 $340 $163 $249 reversed $161 $-1 #
edge $-1 $264 -18.547361941939734 $342 18.547361941939734 $248 $343 forward 7 unknown #
coedge $-1 $165 $164 $340 $344 forward $65 $-1 #
edge $-1 $255 -64.737083040864292 $342 64.737083040864292 $247 $345 forward 7 unknown #
coedge $-1 $260 $259 $165 $253 reversed $244 $-1 #
edge $-1 $346 -64.737083040864292 $254 64.737083040864292 $252 $347 forward 7 unknown #
vertex $-1 $167 $348 #
vertex $-1 $266 $349 #
straight-curve $-1 64.737083040864292 0 -18.547361941939734 0 -1 0 I I #
coedge $-1 $246 $248 $168 $258 reversed $161 $-1 #
edge $-1 $261 -43.333956672670823 $264 43.333956672670823 $257 $350 forward 7 unknown #
coedge $-1 $252 $169 $174 $267 forward $244 $-1 #
coedge $-1 $169 $252 $246 $341 reversed $244 $-1 #
vertex $-1 $170 $351 #
straight-curve $-1 0 43.333956672670823 18.547361941939734 -1 0 0 I I #
coedge $-1 $171 $247 $173 $266 reversed $101 $-1 #
vertex $-1 $258 $352 #
straight-curve $-1 0 -43.333956672670823 18.547361941939734 1 0 0 I I #
edge $-1 $176 -18.547361941939734 $255 18.547361941939734 $173 $353 forward 7 unknown #
edge $-1 $177 -18.547361941939734 $254 18.547361941939734 $174 $354 forward 7 unknown #
point $-1 64.737083040864292 -43.333956672670823 18.547361941939734 #
point $-1 64.737083040864292 43.333956672670823 18.547361941939734 #
face $-1 $-1 $355 $25 $-1 $356 reversed single #
loop $-1 $-1 $189 $179 #
plane-surface $-1 0 -43.333956672670823 0 0 1 0 0 0 1 forward_v I I I I #
coedge $-1 $357 $182 $277 $358 forward $109 $-1 #
coedge $-1 $182 $357 $359 $360 forward $109 $-1 #
edge $-1 $361 -64.737083040864292 $278 64.737083040864292 $182 $362 forward 7 unknown #
coedge $-1 $184 $183 $363 $364 reversed $69 $-1 #
coedge $-1 $185 $191 $273 $358 reversed $180 $-1 #
vertex $-1 $358 $365 #
straight-curve $-1 64.737083040864292 -27.411765030554935 -7.9977467712743362 0 0 1 I I #
coedge $-1 $363 $366 $187 $281 forward $355 $-1 #
edge $-1 $286 -25.647526246864384 $282 -9.7253346047484968 $280 $367 forward 7 unknown #
vertex $-1 $281 $368 #
straight-curve $-1 0 -27.411765030554935 -13.443625143157611 -1 0 0 I I #
coedge $-1 $369 $189 $366 $370 forward $271 $-1 #
coedge $-1 $189 $369 $191 $288 reversed $271 $-1 #
vertex $-1 $370 $371 #
straight-curve $-1 0 -43.333956672670823 -13.443625143157611 -1 0 0 I I #
edge $-1 $193 13.443625143157611 $372 18.547361941939734 $191 $373 forward 7 unknown #
point $-1 64.737083040864292 -27.411765030554935 -13.443625143157611 #
point $-1 64.737083040864292 -43.333956672670823 -13.443625143157611 #
plane-surface $-1 64.737083040864292 0 0 -1 0 0 0 0 1 forward_v I I I I #
coedge $-1 $374 $375 $200 $296 forward $196 $-1 #
coedge $-1 $198 $300 $374 $376 forward $117 $-1 #
coedge $-1 $200 $199 $198 $295 reversed $73 $-1 #
edge $-1 $377 -23.524682355516234 $301 -16.093866278792945 $198 $378 forward 7 unknown #
edge $-1 $298 -88.783155438300525 $377 -63.557394317823068 $292 $379 forward 7 unknown #
coedge $-1 $206 $201 $375 $380 reversed $207 $-1 #
vertex $-1 $202 $381 #
straight-curve $-1 64.737083040864292 19.809274317154589 2.3325550494881071 0 1 0 I I #
coedge $-1 $293 $203 $206 $304 forward $117 $-1 #
vertex $-1 $204 $382 #
straight-curve $-1 24.389254599780507 35.903140595947534 18.547361941939741 1 0 0 I I #
straight-curve $-1 -34.445881555182837 35.903140595947534 85.556945804231944 -0.76604443648966558 0 0.64278761758704617 I I #
edge $-1 $208 35.903140595947534 $383 43.333956672670823 $206 $384 forward 7 unknown #
point $-1 64.737083040864292 35.903140595947534 18.547361941939734 #
point $-1 64.737083040864292 35.903140595947534 2.3325550494881071 #
edge $-1 $385 1 $385 0 $211 $-1 forward 7 unknown #
vertex $-1 $212 $386 #
ellipse-curve $-1 53.056514225591037 38.026230903582757 8.0343540636354831 0.64278761758704617 0 0.76604443648966558 0.76604443648966558 0 -0.64278761758704617 1 I I #
point $-1 55.841100496074411 38.026230903582757 9.7971708781268561 #
edge $-1 $387 1 $387 0 $215 $-1 forward 7 unknown #
vertex $-1 $216 $388 #
ellipse-curve $-1 53.056514225591037 41.210866365035599 8.0343540636354831 0.64278761758704617 0 0.76604443648966558 0.76604443648966558 0 -0.64278761758704617 1 I I #
point $-1 55.841100496074411 41.210866365035599 9.7971708781268561 #
plane-surface $-1 0 0 18.547361941939734 0 0 1 1 0 0 forward_v I I I I #
coedge $-1 $227 $389 $320 $390 forward $220 $-1 #
coedge $-1 $318 $222 $389 $391 reversed $139 $-1 #
coedge $-1 $222 $317 $321 $392 reversed $139 $-1 #
edge $-1 $322 -1.1796887230412256 $393 24.046072397436234 $222 $394 forward 7 unknown #
coedge $-1 $224 $223 $316 $390 reversed $87 $-1 #
coedge $-1 $230 $225 $318 $392 forward $231 $-1 #
vertex $-1 $392 $395 #
straight-curve $-1 -45.413029078305229 19.809274317154589 18.547361941939734 0 1 0 I I #
coedge $-1 $389 $227 $230 $328 reversed $220 $-1 #
vertex $-1 $228 $396 #
straight-curve $-1 -64.737083040864292 35.903140595947534 50.757759822767611 0 0 1 I I #
straight-curve $-1 -64.737083040864306 35.903140595947534 2.3325550494880787 -0.76604443648966558 0 -0.64278761758704617 I I #
edge $-1 $397 -43.333956672670823 $232 -35.903140595947534 $324 $398 forward 7 unknown #
point $-1 -64.737083040864292 35.903140595947534 18.547361941939734 #
point $-1 -45.413029078305222 35.903140595947534 18.547361941939734 #
edge $-1 $399 1 $399 0 $235 $-1 forward 7 unknown #
vertex $-1 $236 $400 #
ellipse-curve $-1 -53.056514225591037 38.026230903582757 8.0343540636354831 -0.64278761758704617 0 0.76604443648966558 0.76604443648966558 0 0.64278761758704617 1 I I #
point $-1 -54.309011623095081 38.026230903582757 11.082746113300949 #
edge $-1 $401 1 $401 0 $239 $-1 forward 7 unknown #
vertex $-1 $240 $402 #
ellipse-curve $-1 -53.056514225591037 41.210866365035599 8.0343540636354831 -0.64278761758704617 0 0.76604443648966558 0.76604443648966558 0 0.64278761758704617 1 I I #
point $-1 -54.309011623095081 41.210866365035599 11.082746113300949 #
plane-surface $-1 64.737083040864292 0 0 -1 0 0 0 0 1 forward_v I I I I #
coedge $-1 $248 $246 $250 $344 reversed $161 $-1 #
edge $-1 $261 -18.547361941939734 $346 18.547361941939734 $260 $403 forward 7 unknown #
vertex $-1 $344 $404 #
straight-curve $-1 -64.737083040864292 -43.333956672670823 0 0 0 -1 I I #
edge $-1 $342 -43.333956672670823 $346 43.333956672670823 $340 $405 forward 7 unknown #
straight-curve $-1 0 -43.333956672670823 -18.547361941939734 -1 0 0 I I #
vertex $-1 $253 $406 #
straight-curve $-1 0 43.333956672670823 -18.547361941939734 1 0 0 I I #
point $-1 64.737083040864292 43.333956672670823 -18.547361941939734 #
point $-1 64.737083040864292 -43.333956672670823 -18.547361941939734 #
straight-curve $-1 -64.737083040864292 0 18.547361941939734 0 -1 0 I I #
point $-1 -64.737083040864292 43.333956672670823 18.547361941939734 #
point $-1 -64.737083040864292 -43.333956672670823 18.547361941939734 #
straight-curve $-1 64.737083040864292 -43.333956672670823 0 0 0 -1 I I #
straight-curve $-1 64.737083040864292 43.333956672670823 0 0 0 -1 I I #
loop $-1 $-1 $363 $270 #
plane-surface $-1 -64.737083040864292 0 0 1 0 0 0 0 -1 forward_v I I I I #
coedge $-1 $274 $273 $369 $407 forward $109 $-1 #
edge $-1 $278 27.411765030554935 $372 43.333956672670823 $277 $408 forward 7 unknown #
coedge $-1 $366 $363 $274 $360 reversed $355 $-1 #
edge $-1 $409 -43.333956672670823 $361 -27.411765030554935 $359 $410 forward 7 unknown #
vertex $-1 $364 $411 #
straight-curve $-1 0 -27.411765030554935 -18.547361941939734 1 0 0 I I #
coedge $-1 $359 $280 $276 $364 forward $355 $-1 #
edge $-1 $282 5.4458783718832748 $361 10.549615170665398 $363 $412 forward 7 unknown #
point $-1 64.737083040864292 -27.411765030554935 -18.547361941939734 #
coedge $-1 $280 $359 $284 $370 reversed $355 $-1 #
straight-curve $-1 -64.737083040864292 -17.686430425806439 -13.443625143157611 0 1 0 I I #
point $-1 -64.737083040864292 -27.411765030554935 -13.443625143157611 #
coedge $-1 $285 $284 $357 $407 reversed $271 $-1 #
edge $-1 $286 13.443625143157611 $409 18.547361941939734 $366 $413 forward 7 unknown #
point $-1 -64.737083040864292 -43.333956672670823 -13.443625143157611 #
vertex $-1 $288 $414 #
straight-curve $-1 64.737083040864292 -43.333956672670823 0 0 0 -1 I I #
coedge $-1 $375 $292 $293 $376 reversed $196 $-1 #
coedge $-1 $292 $374 $297 $380 forward $196 $-1 #
edge $-1 $383 -64.737083040864292 $377 -45.413029078305229 $374 $415 forward 7 unknown #
vertex $-1 $295 $416 #
straight-curve $-1 45.413029078305222 19.809274317154589 18.547361941939741 0 -1 0 I I #
straight-curve $-1 -3.2747592366430194 43.333956672670823 59.401268015533695 -0.76604443648966558 0 0.64278761758704617 I I #
edge $-1 $383 -18.547361941939734 $298 -2.332555049488104 $297 $417 forward 7 unknown #
point $-1 64.737083040864292 43.333956672670823 2.332555049488104 #
point $-1 45.413029078305229 35.903140595947534 18.547361941939741 #
vertex $-1 $304 $418 #
straight-curve $-1 64.737083040864292 0 18.547361941939734 0 1 0 I I #
vertex $-1 $307 $419 #
point $-1 53.822558662080702 38.026230903582757 7.3915664460484374 #
vertex $-1 $311 $420 #
point $-1 53.822558662080702 41.210866365035599 7.3915664460484374 #
coedge $-1 $316 $324 $317 $391 forward $220 $-1 #
edge $-1 $393 -23.524682355516234 $325 -16.093866278792945 $316 $421 forward 7 unknown #
edge $-1 $397 -18.547361941939734 $393 -2.3325550494880907 $317 $422 forward 7 unknown #
edge $-1 $322 45.413029078305222 $397 64.737083040864292 $318 $423 forward 7 unknown #
vertex $-1 $390 $424 #
straight-curve $-1 -46.31672306138055 43.333956672670823 17.789072638161759 -0.76604443648966558 0 -0.64278761758704617 I I #
point $-1 -45.413029078305222 43.333956672670823 18.547361941939734 #
point $-1 -64.737083040864292 35.903140595947534 2.3325550494880907 #
vertex $-1 $392 $425 #
straight-curve $-1 -64.737083040864292 0 18.547361941939734 0 -1 0 I I #
vertex $-1 $331 $426 #
point $-1 -52.290469789101373 38.026230903582757 8.6771416812225297 #
vertex $-1 $335 $427 #
point $-1 -52.290469789101373 41.210866365035599 8.6771416812225297 #
straight-curve $-1 -64.737083040864292 43.333956672670823 0 0 0 -1 I I #
point $-1 -64.737083040864292 -43.333956672670823 -18.547361941939734 #
straight-curve $-1 -64.737083040864292 0 -18.547361941939734 0 1 0 I I #
point $-1 -64.737083040864292 43.333956672670823 -18.547361941939734 #
edge $-1 $372 -64.737083040864292 $409 64.737083040864292 $369 $428 forward 7 unknown #
straight-curve $-1 64.737083040864292 0 -18.547361941939734 0 -1 0 I I #
vertex $-1 $360 $429 #
straight-curve $-1 -64.737083040864292 0 -18.547361941939734 0 1 0 I I #
point $-1 -64.737083040864292 -27.411765030554935 -18.547361941939734 #
straight-curve $-1 -64.737083040864292 -27.411765030554935 -7.9977467712743362 0 0 -1 I I #
straight-curve $-1 -64.737083040864292 -43.333956672670823 0 0 0 -1 I I #
point $-1 64.737083040864292 -43.333956672670823 -18.547361941939734 #
straight-curve $-1 0 43.333956672670823 18.547361941939734 -1 0 0 I I #
point $-1 45.413029078305229 43.333956672670823 18.547361941939741 #
straight-curve $-1 64.737083040864292 43.333956672670823 0 0 0 -1 I I #
point $-1 64.737083040864292 43.333956672670823 18.547361941939734 #
point $-1 52.413726608003991 38.026230903582757 7.2683096271458183 #
point $-1 52.413726608003991 41.210866365035599 7.2683096271458183 #
straight-curve $-1 -64.737083040864292 19.809274317154589 2.3325550494880858 0 -1 0 I I #
straight-curve $-1 -64.737083040864292 43.333956672670823 0 0 0 -1 I I #
straight-curve $-1 0 43.333956672670823 18.547361941939734 -1 0 0 I I #
point $-1 -64.737083040864292 43.333956672670823 2.3325550494880907 #
point $-1 -64.737083040864292 43.333956672670823 18.547361941939734 #
point $-1 -52.413726608003991 38.026230903582757 7.2683096271458183 #
point $-1 -52.413726608003991 41.210866365035599 7.2683096271458183 #
straight-curve $-1 0 -43.333956672670823 -18.547361941939734 -1 0 0 I I #
point $-1 -64.737083040864292 -43.333956672670823 -18.547361941939734 #
End-of-ACIS-data 