500 0 13 0           
7 Unknown 11 ACIS 5.0 NT 24 Fri Mar 26 15:07:09 1999 
-1 9.9999999999999995e-007 1e-010 
body $-1 $13 $-1 $14 #
body $-1 $15 $-1 $16 #
body $-1 $17 $-1 $18 #
body $-1 $19 $-1 $20 #
body $-1 $21 $-1 $22 #
body $-1 $23 $-1 $24 #
body $-1 $25 $-1 $26 #
body $-1 $27 $-1 $28 #
body $-1 $29 $-1 $30 #
body $-1 $31 $-1 $32 #
body $-1 $33 $-1 $34 #
body $-1 $35 $-1 $36 #
body $-1 $37 $-1 $38 #
lump $-1 $-1 $39 $0 #
transform $-1 1 0 0 0 1 0 0 0 1 72.062746055482648 33.589988268801193 14.016108664291453 1 rotate no_reflect no_shear #
lump $-1 $-1 $40 $1 #
transform $-1 1 0 0 0 1 0 0 0 1 72.062746055482648 33.589988268801193 14.016108664291453 1 rotate no_reflect no_shear #
lump $-1 $-1 $41 $2 #
transform $-1 1 0 0 0 1 0 0 0 1 72.062746055482648 33.589988268801193 14.016108664291453 1 rotate no_reflect no_shear #
lump $-1 $-1 $42 $3 #
transform $-1 1 0 0 0 1 0 0 0 1 72.062746055482648 33.589988268801193 14.016108664291453 1 rotate no_reflect no_shear #
lump $-1 $-1 $43 $4 #
transform $-1 1 0 0 0 1 0 0 0 1 72.062746055482648 33.589988268801193 14.016108664291453 1 rotate no_reflect no_shear #
lump $-1 $-1 $44 $5 #
transform $-1 1 0 0 0 1 0 0 0 1 72.062746055482648 33.589988268801193 14.016108664291453 1 rotate no_reflect no_shear #
lump $-1 $-1 $45 $6 #
transform $-1 1 0 0 0 1 0 0 0 1 72.062746055482648 33.589988268801193 14.016108664291453 1 rotate no_reflect no_shear #
lump $-1 $-1 $46 $7 #
transform $-1 1 0 0 0 1 0 0 0 1 72.062746055482648 33.589988268801193 14.016108664291453 1 rotate no_reflect no_shear #
lump $-1 $-1 $47 $8 #
transform $-1 1 0 0 0 1 0 0 0 1 72.062746055482648 33.589988268801193 14.016108664291453 1 rotate no_reflect no_shear #
lump $-1 $-1 $48 $9 #
transform $-1 1 0 0 0 1 0 0 0 1 72.062746055482648 33.589988268801193 14.016108664291453 1 rotate no_reflect no_shear #
lump $-1 $-1 $49 $10 #
transform $-1 1 0 0 0 1 0 0 0 1 72.062746055482648 33.589988268801193 14.016108664291453 1 rotate no_reflect no_shear #
lump $-1 $-1 $50 $11 #
transform $-1 1 0 0 0 1 0 0 0 1 72.062746055482648 33.589988268801193 14.016108664291453 1 rotate no_reflect no_shear #
lump $-1 $-1 $51 $12 #
transform $-1 1 0 0 0 1 0 0 0 1 72.062746055482648 33.589988268801193 14.016108664291453 1 rotate no_reflect no_shear #
shell $-1 $-1 $-1 $52 $-1 $13 #
shell $-1 $-1 $-1 $53 $-1 $15 #
shell $-1 $-1 $-1 $54 $-1 $17 #
shell $-1 $-1 $-1 $55 $-1 $19 #
shell $-1 $-1 $-1 $56 $-1 $21 #
shell $-1 $-1 $-1 $57 $-1 $23 #
shell $-1 $-1 $-1 $58 $-1 $25 #
shell $-1 $-1 $-1 $59 $-1 $27 #
shell $-1 $-1 $-1 $60 $-1 $29 #
shell $-1 $-1 $-1 $61 $-1 $31 #
shell $-1 $-1 $-1 $62 $-1 $33 #
shell $-1 $-1 $-1 $63 $-1 $35 #
shell $-1 $-1 $-1 $64 $-1 $37 #
face $-1 $65 $66 $39 $-1 $67 reversed single #
face $-1 $68 $69 $40 $-1 $70 forward single #
face $-1 $71 $72 $41 $-1 $73 reversed single #
face $-1 $74 $75 $42 $-1 $76 forward single #
face $-1 $77 $78 $43 $-1 $79 forward single #
face $-1 $80 $81 $44 $-1 $82 reversed single #
face $-1 $83 $84 $45 $-1 $85 forward single #
face $-1 $86 $87 $46 $-1 $88 forward single #
face $-1 $89 $90 $47 $-1 $91 forward single #
face $-1 $92 $93 $48 $-1 $94 reversed single #
face $-1 $95 $96 $49 $-1 $97 forward single #
face $-1 $98 $99 $50 $-1 $100 forward single #
face $-1 $101 $102 $51 $-1 $103 forward single #
face $-1 $104 $105 $39 $-1 $106 forward single #
loop $-1 $-1 $107 $52 #
plane-surface $-1 0 -33.589988268801193 0 0 1 0 0 0 1 forward_v I I I I #
face $-1 $108 $109 $40 $-1 $110 forward single #
loop $-1 $-1 $111 $53 #
plane-surface $-1 0 -33.589988268801193 0 0 1 0 0 0 1 forward_v I I I I #
face $-1 $112 $113 $41 $-1 $114 reversed single #
loop $-1 $-1 $115 $54 #
plane-surface $-1 128.24431974030614 6.348271394921273 197.45172044261449 0 -1 0 -0.87461971476443456 0 -0.48480960649040278 forward_v I I I I #
face $-1 $116 $117 $42 $-1 $118 forward single #
loop $-1 $119 $120 $55 #
cone-surface $-1 67.258336350041318 0.75899243218963619 7.0258376630286596 -0.87461971476443456 0 -0.48480960649040278 0.48480960649040278 0 -0.87461971476443456 1 I I 0 1 1 forward I I I I #
face $-1 $121 $122 $43 $-1 $123 forward single #
loop $-1 $124 $125 $56 #
cone-surface $-1 67.258336350041318 4.1125598098286176 7.0258376630286596 -0.87461971476443456 0 -0.48480960649040278 0.48480960649040278 0 -0.87461971476443456 1 I I 0 1 1 forward I I I I #
face $-1 $126 $127 $44 $-1 $128 reversed single #
loop $-1 $-1 $129 $57 #
plane-surface $-1 -164.70482776305064 -14.012781442682584 113.15896162673388 0 1 0 -0.64278761758704617 0 0.76604443648966558 forward_v I I I I #
face $-1 $130 $131 $45 $-1 $132 forward single #
loop $-1 $133 $134 $58 #
cone-surface $-1 -65.029587772560362 -12.188377990306698 8.0012472332977591 0.64278761758704617 0 -0.76604443648966558 0.38302221824483279 0 0.32139380879352308 1 I I 0 1 0.5 forward I I I I #
face $-1 $135 $136 $46 $-1 $137 forward single #
loop $-1 $138 $139 $59 #
cone-surface $-1 -65.029587772560362 -9.4517728117428703 8.0012472332977591 0.64278761758704617 0 -0.76604443648966558 0.38302221824483279 0 0.32139380879352308 1 I I 0 1 0.5 forward I I I I #
face $-1 $140 $141 $47 $-1 $142 forward single #
loop $-1 $143 $144 $60 #
cone-surface $-1 -65.029587772560362 -6.7151676331790426 8.0012472332977591 0.64278761758704617 0 -0.76604443648966558 0.38302221824483279 0 0.32139380879352308 1 I I 0 1 0.5 forward I I I I #
face $-1 $145 $146 $48 $-1 $147 reversed single #
loop $-1 $-1 $148 $61 #
plane-surface $-1 -164.70482776305064 13.236400881235316 113.15896162673388 0 1 0 -0.64278761758704617 0 0.76604443648966558 forward_v I I I I #
face $-1 $149 $150 $49 $-1 $151 forward single #
loop $-1 $152 $153 $62 #
cone-surface $-1 -65.029587772560362 15.060804333611202 8.0012472332977591 0.64278761758704617 0 -0.76604443648966558 0.38302221824483279 0 0.32139380879352308 1 I I 0 1 0.5 forward I I I I #
face $-1 $154 $155 $50 $-1 $156 forward single #
loop $-1 $157 $158 $63 #
cone-surface $-1 -65.029587772560362 17.79740951217503 8.0012472332977591 0.64278761758704617 0 -0.76604443648966558 0.38302221824483279 0 0.32139380879352308 1 I I 0 1 0.5 forward I I I I #
face $-1 $159 $160 $51 $-1 $161 forward single #
loop $-1 $162 $163 $64 #
cone-surface $-1 -65.029587772560362 20.534014690738857 8.0012472332977591 0.64278761758704617 0 -0.76604443648966558 0.38302221824483279 0 0.32139380879352308 1 I I 0 1 0.5 forward I I I I #
face $-1 $164 $165 $39 $-1 $166 reversed single #
loop $-1 $-1 $167 $65 #
plane-surface $-1 0 0 14.016108664291453 0 0 1 1 0 0 forward_v I I I I #
coedge $-1 $168 $169 $170 $171 reversed $66 $-1 #
face $-1 $172 $173 $40 $-1 $174 reversed single #
loop $-1 $-1 $175 $68 #
plane-surface $-1 0 0 14.016108664291453 0 0 1 1 0 0 forward_v I I I I #
coedge $-1 $176 $177 $178 $179 forward $69 $-1 #
face $-1 $180 $181 $41 $-1 $182 reversed single #
loop $-1 $-1 $183 $71 #
plane-surface $-1 2.1893229399299088 2.4357761210091269 127.57829732706175 0.87461971476443456 0 0.48480960649040278 0.48480960649040278 0 -0.87461971476443456 forward_v I I I I #
coedge $-1 $184 $185 $186 $187 reversed $72 $-1 #
face $-1 $-1 $188 $42 $-1 $189 forward single #
loop $-1 $190 $191 $74 #
cone-surface $-1 65.479054973157872 0.75899243218963619 6.0395659273236202 -0.87461971476443456 0 -0.48480960649040278 0.24240480324520139 0 -0.43730985738221728 1 I I -0.70710678118654746 0.70710678118654746 0.5 forward I I I I #
loop $-1 $-1 $192 $55 #
coedge $-1 $120 $120 $193 $194 reversed $75 $-1 #
face $-1 $-1 $195 $43 $-1 $196 forward single #
loop $-1 $197 $198 $77 #
cone-surface $-1 65.479054973157872 4.1125598098286176 6.0395659273236202 -0.87461971476443456 0 -0.48480960649040278 0.24240480324520139 0 -0.43730985738221728 1 I I -0.70710678118654746 0.70710678118654746 0.5 forward I I I I #
loop $-1 $-1 $199 $56 #
coedge $-1 $125 $125 $200 $201 reversed $78 $-1 #
face $-1 $202 $203 $44 $-1 $204 reversed single #
loop $-1 $-1 $205 $80 #
plane-surface $-1 -72.062746055482648 -9.4517728117428703 2.7524302387937354 -0.64278761758704617 0 0.76604443648966558 0.76604443648966558 0 0.64278761758704617 forward_v I I I I #
coedge $-1 $206 $207 $208 $209 reversed $81 $-1 #
face $-1 $-1 $210 $45 $-1 $211 forward single #
loop $-1 $212 $213 $83 #
cone-surface $-1 -64.547497059370073 -12.188377990306698 7.4267139059305105 0.64278761758704617 0 -0.76604443648966558 0.1915111091224164 0 0.16069690439676154 1 I I -0.70710678118654746 0.70710678118654746 0.25 forward I I I I #
loop $-1 $-1 $214 $58 #
coedge $-1 $134 $134 $215 $216 reversed $84 $-1 #
face $-1 $-1 $217 $46 $-1 $218 forward single #
loop $-1 $219 $220 $86 #
cone-surface $-1 -64.547497059370073 -9.4517728117428703 7.4267139059305105 0.64278761758704617 0 -0.76604443648966558 0.1915111091224164 0 0.16069690439676154 1 I I -0.70710678118654746 0.70710678118654746 0.25 forward I I I I #
loop $-1 $-1 $221 $59 #
coedge $-1 $139 $139 $222 $223 reversed $87 $-1 #
face $-1 $-1 $224 $47 $-1 $225 forward single #
loop $-1 $226 $227 $89 #
cone-surface $-1 -64.547497059370073 -6.7151676331790426 7.4267139059305105 0.64278761758704617 0 -0.76604443648966558 0.1915111091224164 0 0.16069690439676154 1 I I -0.70710678118654746 0.70710678118654746 0.25 forward I I I I #
loop $-1 $-1 $228 $60 #
coedge $-1 $144 $144 $229 $230 reversed $90 $-1 #
face $-1 $231 $232 $48 $-1 $233 reversed single #
loop $-1 $-1 $234 $92 #
plane-surface $-1 -72.062746055482648 17.79740951217503 2.7524302387937354 -0.64278761758704617 0 0.76604443648966558 0.76604443648966558 0 0.64278761758704617 forward_v I I I I #
coedge $-1 $235 $236 $237 $238 reversed $93 $-1 #
face $-1 $-1 $239 $49 $-1 $240 forward single #
loop $-1 $241 $242 $95 #
cone-surface $-1 -64.547497059370073 15.060804333611202 7.4267139059305105 0.64278761758704617 0 -0.76604443648966558 0.1915111091224164 0 0.16069690439676154 1 I I -0.70710678118654746 0.70710678118654746 0.25 forward I I I I #
loop $-1 $-1 $243 $62 #
coedge $-1 $153 $153 $244 $245 reversed $96 $-1 #
face $-1 $-1 $246 $50 $-1 $247 forward single #
loop $-1 $248 $249 $98 #
cone-surface $-1 -64.547497059370073 17.79740951217503 7.4267139059305105 0.64278761758704617 0 -0.76604443648966558 0.1915111091224164 0 0.16069690439676154 1 I I -0.70710678118654746 0.70710678118654746 0.25 forward I I I I #
loop $-1 $-1 $250 $63 #
coedge $-1 $158 $158 $251 $252 reversed $99 $-1 #
face $-1 $-1 $253 $51 $-1 $254 forward single #
loop $-1 $255 $256 $101 #
cone-surface $-1 -64.547497059370073 20.534014690738857 7.4267139059305105 0.64278761758704617 0 -0.76604443648966558 0.1915111091224164 0 0.16069690439676154 1 I I -0.70710678118654746 0.70710678118654746 0.25 forward I I I I #
loop $-1 $-1 $257 $64 #
coedge $-1 $163 $163 $258 $259 reversed $102 $-1 #
face $-1 $260 $261 $39 $-1 $262 reversed single #
loop $-1 $-1 $263 $104 #
plane-surface $-1 0 0 -14.016108664291453 0 0 1 1 0 0 forward_v I I I I #
coedge $-1 $264 $265 $266 $267 forward $105 $-1 #
coedge $-1 $268 $107 $269 $270 reversed $66 $-1 #
coedge $-1 $107 $268 $271 $272 forward $66 $-1 #
coedge $-1 $273 $263 $107 $171 forward $165 $-1 #
edge $-1 $274 -72.062746055482648 $275 72.062746055482648 $107 $276 forward 7 unknown #
face $-1 $277 $278 $40 $-1 $279 reversed single #
loop $-1 $-1 $280 $108 #
plane-surface $-1 -72.062746055482648 0 0 1 0 0 0 0 -1 forward_v I I I I #
coedge $-1 $281 $282 $177 $283 forward $109 $-1 #
coedge $-1 $284 $111 $285 $286 reversed $69 $-1 #
coedge $-1 $111 $284 $175 $283 reversed $69 $-1 #
coedge $-1 $287 $288 $111 $179 reversed $289 $-1 #
edge $-1 $290 -14.016108664291453 $291 14.016108664291453 $178 $292 forward 7 unknown #
face $-1 $293 $294 $41 $-1 $295 forward single #
loop $-1 $-1 $296 $112 #
plane-surface $-1 128.24431974030614 -1.4767191529030192 197.45172044261449 0 1 0 0.87461971476443456 0 0.48480960649040278 forward_v I I I I #
coedge $-1 $297 $298 $299 $300 reversed $113 $-1 #
coedge $-1 $185 $115 $301 $302 reversed $72 $-1 #
coedge $-1 $115 $184 $297 $303 reversed $72 $-1 #
coedge $-1 $299 $304 $115 $187 forward $294 $-1 #
edge $-1 $305 -7.9405861853295789 $306 -1.0157098134493765 $186 $307 forward 7 unknown #
loop $-1 $-1 $193 $116 #
plane-surface $-1 2.1893229399299088 2.4357761210091269 127.57829732706175 0.87461971476443456 0 0.48480960649040278 0.48480960649040278 0 -0.87461971476443456 forward_v I I I I #
loop $-1 $-1 $308 $74 #
coedge $-1 $191 $191 $192 $309 reversed $117 $-1 #
coedge $-1 $192 $192 $191 $309 forward $119 $-1 #
coedge $-1 $193 $193 $120 $194 forward $188 $-1 #
edge $-1 $310 0 $310 6.2831853071796004 $193 $311 forward 7 unknown #
loop $-1 $-1 $200 $121 #
plane-surface $-1 2.1893229399299088 2.4357761210091269 127.57829732706175 0.87461971476443456 0 0.48480960649040278 0.48480960649040278 0 -0.87461971476443456 forward_v I I I I #
loop $-1 $-1 $312 $77 #
coedge $-1 $198 $198 $199 $313 reversed $122 $-1 #
coedge $-1 $199 $199 $198 $313 forward $124 $-1 #
coedge $-1 $200 $200 $125 $201 forward $195 $-1 #
edge $-1 $314 0 $314 6.2831853071796004 $200 $315 forward 7 unknown #
face $-1 $316 $317 $44 $-1 $318 reversed single #
loop $-1 $-1 $319 $126 #
plane-surface $-1 -164.70482776305064 -4.8907641808031563 113.15896162673388 0 -1 0 0.64278761758704617 0 -0.76604443648966558 forward_v I I I I #
coedge $-1 $320 $321 $322 $323 reversed $127 $-1 #
coedge $-1 $207 $129 $324 $325 reversed $81 $-1 #
coedge $-1 $129 $206 $320 $326 reversed $81 $-1 #
coedge $-1 $322 $327 $129 $209 forward $328 $-1 #
edge $-1 $329 10.289667826042674 $330 23.713196774300201 $208 $331 forward 7 unknown #
loop $-1 $-1 $215 $130 #
plane-surface $-1 -72.062746055482648 -9.4517728117428703 2.7524302387937354 -0.64278761758704617 0 0.76604443648966558 0.76604443648966558 0 0.64278761758704617 forward_v I I I I #
loop $-1 $-1 $332 $83 #
coedge $-1 $213 $213 $214 $333 reversed $131 $-1 #
coedge $-1 $214 $214 $213 $333 forward $133 $-1 #
coedge $-1 $215 $215 $134 $216 forward $210 $-1 #
edge $-1 $334 0 $334 6.2831853071796004 $215 $335 forward 7 unknown #
loop $-1 $-1 $222 $135 #
plane-surface $-1 -72.062746055482648 -9.4517728117428703 2.7524302387937354 -0.64278761758704617 0 0.76604443648966558 0.76604443648966558 0 0.64278761758704617 forward_v I I I I #
loop $-1 $-1 $336 $86 #
coedge $-1 $220 $220 $221 $337 reversed $136 $-1 #
coedge $-1 $221 $221 $220 $337 forward $138 $-1 #
coedge $-1 $222 $222 $139 $223 forward $217 $-1 #
edge $-1 $338 0 $338 6.2831853071796004 $222 $339 forward 7 unknown #
loop $-1 $-1 $229 $140 #
plane-surface $-1 -72.062746055482648 -9.4517728117428703 2.7524302387937354 -0.64278761758704617 0 0.76604443648966558 0.76604443648966558 0 0.64278761758704617 forward_v I I I I #
loop $-1 $-1 $340 $89 #
coedge $-1 $227 $227 $228 $341 reversed $141 $-1 #
coedge $-1 $228 $228 $227 $341 forward $143 $-1 #
coedge $-1 $229 $229 $144 $230 forward $224 $-1 #
edge $-1 $342 0 $342 6.2831853071796004 $229 $343 forward 7 unknown #
face $-1 $344 $345 $48 $-1 $346 forward single #
loop $-1 $-1 $347 $145 #
plane-surface $-1 -164.70482776305064 22.358418143114744 113.15896162673388 0 -1 0 0.64278761758704617 0 -0.76604443648966558 forward_v I I I I #
coedge $-1 $348 $349 $350 $351 reversed $146 $-1 #
coedge $-1 $236 $148 $352 $353 reversed $93 $-1 #
coedge $-1 $148 $235 $348 $354 reversed $93 $-1 #
coedge $-1 $350 $355 $148 $238 forward $345 $-1 #
edge $-1 $356 10.289667826042674 $357 23.713196774300201 $237 $358 forward 7 unknown #
loop $-1 $-1 $244 $149 #
plane-surface $-1 -72.062746055482648 17.79740951217503 2.7524302387937354 -0.64278761758704617 0 0.76604443648966558 0.76604443648966558 0 0.64278761758704617 forward_v I I I I #
loop $-1 $-1 $359 $95 #
coedge $-1 $242 $242 $243 $360 reversed $150 $-1 #
coedge $-1 $243 $243 $242 $360 forward $152 $-1 #
coedge $-1 $244 $244 $153 $245 forward $239 $-1 #
edge $-1 $361 0 $361 6.2831853071796004 $244 $362 forward 7 unknown #
loop $-1 $-1 $251 $154 #
plane-surface $-1 -72.062746055482648 17.79740951217503 2.7524302387937354 -0.64278761758704617 0 0.76604443648966558 0.76604443648966558 0 0.64278761758704617 forward_v I I I I #
loop $-1 $-1 $363 $98 #
coedge $-1 $249 $249 $250 $364 reversed $155 $-1 #
coedge $-1 $250 $250 $249 $364 forward $157 $-1 #
coedge $-1 $251 $251 $158 $252 forward $246 $-1 #
edge $-1 $365 0 $365 6.2831853071796004 $251 $366 forward 7 unknown #
loop $-1 $-1 $258 $159 #
plane-surface $-1 -72.062746055482648 17.79740951217503 2.7524302387937354 -0.64278761758704617 0 0.76604443648966558 0.76604443648966558 0 0.64278761758704617 forward_v I I I I #
loop $-1 $-1 $367 $101 #
coedge $-1 $256 $256 $257 $368 reversed $160 $-1 #
coedge $-1 $257 $257 $256 $368 forward $162 $-1 #
coedge $-1 $258 $258 $163 $259 forward $253 $-1 #
edge $-1 $369 0 $369 6.2831853071796004 $258 $370 forward 7 unknown #
face $-1 $371 $372 $39 $-1 $373 reversed single #
loop $-1 $-1 $374 $164 #
plane-surface $-1 -72.062746055482648 0 0 1 0 0 0 0 -1 forward_v I I I I #
coedge $-1 $170 $375 $376 $377 forward $165 $-1 #
coedge $-1 $378 $167 $379 $380 forward $105 $-1 #
coedge $-1 $167 $378 $268 $381 forward $105 $-1 #
coedge $-1 $269 $382 $167 $267 reversed $383 $-1 #
edge $-1 $384 -33.589988268801193 $385 33.589988268801193 $266 $386 forward 7 unknown #
coedge $-1 $169 $168 $265 $381 reversed $66 $-1 #
coedge $-1 $376 $266 $168 $270 forward $383 $-1 #
edge $-1 $384 -14.016108664291453 $274 14.016108664291453 $269 $387 forward 7 unknown #
coedge $-1 $388 $389 $169 $272 reversed $261 $-1 #
edge $-1 $390 -14.016108664291453 $275 14.016108664291453 $271 $391 forward 7 unknown #
coedge $-1 $375 $170 $389 $392 forward $165 $-1 #
vertex $-1 $270 $393 #
vertex $-1 $392 $394 #
straight-curve $-1 0 -33.589988268801193 -14.016108664291453 -1 0 0 I I #
face $-1 $395 $289 $40 $-1 $396 reversed single #
loop $-1 $-1 $397 $172 #
plane-surface $-1 -68.314409051352897 -46.271600158567779 0 0 1 0 0 0 1 forward_v I I I I #
coedge $-1 $398 $399 $284 $400 forward $173 $-1 #
coedge $-1 $401 $175 $399 $402 forward $109 $-1 #
coedge $-1 $175 $401 $287 $403 forward $109 $-1 #
edge $-1 $290 64.566072047223145 $404 72.062746055482648 $175 $405 forward 7 unknown #
coedge $-1 $177 $176 $280 $400 reversed $69 $-1 #
coedge $-1 $406 $407 $176 $286 forward $408 $-1 #
edge $-1 $409 -72.062746055482648 $291 -64.566072047223145 $285 $410 forward 7 unknown #
coedge $-1 $411 $178 $282 $403 reversed $289 $-1 #
coedge $-1 $178 $411 $406 $412 reversed $289 $-1 #
loop $-1 $-1 $411 $277 #
vertex $-1 $283 $413 #
vertex $-1 $412 $414 #
straight-curve $-1 -64.566072047223145 -33.589988268801193 0 0 0 -1 I I #
face $-1 $-1 $415 $41 $-1 $416 reversed single #
loop $-1 $-1 $186 $180 #
plane-surface $-1 0 0 14.016108664291453 0 0 1 1 0 0 forward_v I I I I #
coedge $-1 $417 $418 $419 $420 reversed $181 $-1 #
coedge $-1 $421 $183 $185 $303 forward $113 $-1 #
coedge $-1 $183 $421 $417 $422 forward $113 $-1 #
coedge $-1 $419 $186 $183 $300 forward $294 $-1 #
edge $-1 $306 -5.1303833344167096 $423 2.6946072134075827 $299 $424 forward 7 unknown #
coedge $-1 $425 $426 $184 $302 forward $415 $-1 #
edge $-1 $427 -97.202559694621726 $305 -84.709751557015792 $301 $428 forward 7 unknown #
edge $-1 $306 129.84178923219969 $427 144.1254921109653 $185 $429 forward 7 unknown #
coedge $-1 $186 $419 $425 $430 forward $294 $-1 #
vertex $-1 $302 $431 #
vertex $-1 $187 $432 #
straight-curve $-1 64.12215987015307 6.348271394921273 14.016108664291451 -1 0 0 I I #
coedge $-1 $308 $308 $-1 $433 reversed $190 $-1 #
edge $-1 $434 0 $434 6.2831853071796004 $191 $435 forward 7 unknown #
vertex $-1 $194 $436 #
ellipse-curve $-1 68.600307869542533 0.75899243218963619 7.7697045954884931 0.87461971476443456 0 0.48480960649040278 0.48480960649040278 0 -0.87461971476443456 1 I I #
coedge $-1 $312 $312 $-1 $437 reversed $197 $-1 #
edge $-1 $438 0 $438 6.2831853071796004 $198 $439 forward 7 unknown #
vertex $-1 $201 $440 #
ellipse-curve $-1 68.600307869542533 4.1125598098286176 7.7697045954884931 0.87461971476443456 0 0.48480960649040278 0.48480960649040278 0 -0.87461971476443456 1 I I #
face $-1 $-1 $328 $44 $-1 $441 forward single #
loop $-1 $-1 $442 $202 #
plane-surface $-1 -72.062746055482648 0 0 1 0 0 0 0 -1 forward_v I I I I #
coedge $-1 $443 $444 $445 $446 reversed $203 $-1 #
coedge $-1 $447 $205 $207 $326 forward $127 $-1 #
coedge $-1 $205 $447 $443 $448 forward $127 $-1 #
coedge $-1 $445 $208 $205 $323 forward $328 $-1 #
edge $-1 $330 -9.2868950368111491 $449 -0.16487777493172118 $322 $450 forward 7 unknown #
coedge $-1 $451 $452 $206 $325 forward $317 $-1 #
edge $-1 $453 -53.827050574573207 $329 -42.563372149075491 $324 $454 forward 7 unknown #
edge $-1 $330 -17.523172689262939 $453 0 $207 $455 forward 7 unknown #
coedge $-1 $208 $445 $451 $456 forward $328 $-1 #
loop $-1 $-1 $445 $316 #
vertex $-1 $325 $457 #
vertex $-1 $209 $458 #
straight-curve $-1 -82.352413881525322 -14.012781442682584 14.016108664291451 1 0 0 I I #
coedge $-1 $332 $332 $-1 $459 reversed $212 $-1 #
edge $-1 $460 0 $460 6.2831853071796004 $213 $461 forward 7 unknown #
vertex $-1 $216 $462 #
ellipse-curve $-1 -65.350981581353892 -12.188377990306698 8.3842694515425933 -0.64278761758704617 0 0.76604443648966558 0.38302221824483279 0 0.32139380879352308 1 I I #
coedge $-1 $336 $336 $-1 $463 reversed $219 $-1 #
edge $-1 $464 0 $464 6.2831853071796004 $220 $465 forward 7 unknown #
vertex $-1 $223 $466 #
ellipse-curve $-1 -65.350981581353892 -9.4517728117428703 8.3842694515425933 -0.64278761758704617 0 0.76604443648966558 0.38302221824483279 0 0.32139380879352308 1 I I #
coedge $-1 $340 $340 $-1 $467 reversed $226 $-1 #
edge $-1 $468 0 $468 6.2831853071796004 $227 $469 forward 7 unknown #
vertex $-1 $230 $470 #
ellipse-curve $-1 -65.350981581353892 -6.7151676331790426 8.3842694515425933 -0.64278761758704617 0 0.76604443648966558 0.38302221824483279 0 0.32139380879352308 1 I I #
face $-1 $-1 $471 $48 $-1 $472 reversed single #
loop $-1 $-1 $237 $231 #
plane-surface $-1 0 0 14.016108664291453 0 0 1 1 0 0 forward_v I I I I #
coedge $-1 $473 $474 $475 $476 reversed $232 $-1 #
coedge $-1 $477 $234 $236 $354 forward $146 $-1 #
coedge $-1 $234 $477 $473 $478 forward $146 $-1 #
coedge $-1 $475 $237 $234 $351 forward $345 $-1 #
edge $-1 $357 4.3376961251478008 $479 13.459713387027229 $350 $480 forward 7 unknown #
coedge $-1 $481 $482 $235 $353 forward $471 $-1 #
edge $-1 $483 -53.827050574573207 $356 -42.563372149075491 $352 $484 forward 7 unknown #
edge $-1 $357 -17.523172689262939 $483 0 $236 $485 forward 7 unknown #
coedge $-1 $237 $475 $481 $486 forward $345 $-1 #
vertex $-1 $353 $487 #
vertex $-1 $238 $488 #
straight-curve $-1 -82.352413881525322 13.236400881235316 14.016108664291451 1 0 0 I I #
coedge $-1 $359 $359 $-1 $489 reversed $241 $-1 #
edge $-1 $490 0 $490 6.2831853071796004 $242 $491 forward 7 unknown #
vertex $-1 $245 $492 #
ellipse-curve $-1 -65.350981581353892 15.060804333611202 8.3842694515425933 -0.64278761758704617 0 0.76604443648966558 0.38302221824483279 0 0.32139380879352308 1 I I #
coedge $-1 $363 $363 $-1 $493 reversed $248 $-1 #
edge $-1 $494 0 $494 6.2831853071796004 $249 $495 forward 7 unknown #
vertex $-1 $252 $496 #
ellipse-curve $-1 -65.350981581353892 17.79740951217503 8.3842694515425933 -0.64278761758704617 0 0.76604443648966558 0.38302221824483279 0 0.32139380879352308 1 I I #
coedge $-1 $367 $367 $-1 $497 reversed $255 $-1 #
edge $-1 $498 0 $498 6.2831853071796004 $256 $499 forward 7 unknown #
vertex $-1 $259 $500 #
ellipse-curve $-1 -65.350981581353892 20.534014690738857 8.3842694515425933 -0.64278761758704617 0 0.76604443648966558 0.38302221824483279 0 0.32139380879352308 1 I I #
face $-1 $-1 $383 $39 $-1 $501 reversed single #
loop $-1 $-1 $502 $260 #
plane-surface $-1 0 33.589988268801193 0 0 -1 0 0 0 -1 forward_v I I I I #
coedge $-1 $389 $388 $503 $504 forward $261 $-1 #
coedge $-1 $263 $273 $505 $506 forward $165 $-1 #
coedge $-1 $382 $269 $263 $377 reversed $383 $-1 #
edge $-1 $507 -33.589988268801193 $274 33.589988268801193 $376 $508 forward 7 unknown #
coedge $-1 $265 $264 $388 $509 forward $105 $-1 #
coedge $-1 $502 $503 $264 $380 reversed $372 $-1 #
edge $-1 $385 -72.062746055482648 $510 72.062746055482648 $379 $511 forward 7 unknown #
edge $-1 $390 -72.062746055482648 $384 72.062746055482648 $268 $512 forward 7 unknown #
coedge $-1 $266 $376 $502 $513 reversed $383 $-1 #
loop $-1 $-1 $269 $371 #
vertex $-1 $267 $514 #
vertex $-1 $267 $515 #
straight-curve $-1 72.062746055482648 0 14.016108664291453 0 1 0 I I #
straight-curve $-1 72.062746055482648 -33.589988268801193 0 0 0 -1 I I #
coedge $-1 $374 $271 $378 $509 reversed $261 $-1 #
coedge $-1 $271 $374 $273 $392 reversed $261 $-1 #
vertex $-1 $509 $516 #
straight-curve $-1 -72.062746055482648 -33.589988268801193 0 0 0 -1 I I #
edge $-1 $275 -33.589988268801193 $517 33.589988268801193 $389 $518 forward 7 unknown #
point $-1 72.062746055482648 -33.589988268801193 -14.016108664291453 #
point $-1 -72.062746055482648 -33.589988268801193 -14.016108664291453 #
face $-1 $-1 $408 $40 $-1 $519 reversed single #
plane-surface $-1 -64.566072047223145 -39.930794213684486 0 -1 0 0 0 0 1 forward_v I I I I #
coedge $-1 $520 $521 $522 $523 forward $278 $-1 #
coedge $-1 $522 $280 $407 $524 reversed $173 $-1 #
coedge $-1 $280 $522 $281 $402 reversed $173 $-1 #
edge $-1 $404 -14.016108664291453 $409 14.016108664291453 $280 $525 forward 7 unknown #
coedge $-1 $282 $281 $521 $526 forward $109 $-1 #
edge $-1 $404 33.589988268801193 $527 46.271600158567779 $399 $528 forward 7 unknown #
edge $-1 $529 -6.340805944883293 $290 6.340805944883293 $287 $530 forward 7 unknown #
vertex $-1 $402 $531 #
straight-curve $-1 0 -33.589988268801193 14.016108664291453 -1 0 0 I I #
coedge $-1 $532 $285 $288 $412 forward $408 $-1 #
coedge $-1 $285 $532 $398 $524 forward $408 $-1 #
loop $-1 $-1 $285 $395 #
vertex $-1 $400 $533 #
straight-curve $-1 0 -33.589988268801193 -14.016108664291453 1 0 0 I I #
coedge $-1 $288 $287 $534 $535 forward $289 $-1 #
edge $-1 $291 -6.340805944883293 $536 6.340805944883293 $288 $537 forward 7 unknown #
point $-1 -64.566072047223145 -33.589988268801193 14.016108664291453 #
point $-1 -64.566072047223145 -33.589988268801193 -14.016108664291453 #
loop $-1 $-1 $301 $293 #
plane-surface $-1 72.062746055482648 0 0 -1 0 0 0 0 1 forward_v I I I I #
coedge $-1 $418 $296 $298 $422 reversed $181 $-1 #
coedge $-1 $296 $417 $538 $539 reversed $181 $-1 #
coedge $-1 $304 $299 $296 $420 forward $294 $-1 #
edge $-1 $423 1.0157098134493765 $540 7.9405861853295789 $419 $541 forward 7 unknown #
coedge $-1 $298 $297 $426 $542 reversed $113 $-1 #
edge $-1 $543 -144.1254921109653 $423 -129.84178923219969 $417 $544 forward 7 unknown #
vertex $-1 $300 $545 #
straight-curve $-1 65.137869683602432 1.2178880605045634 14.016108664291465 0 -1 0 I I #
coedge $-1 $538 $301 $304 $430 reversed $415 $-1 #
coedge $-1 $301 $538 $421 $542 forward $415 $-1 #
vertex $-1 $302 $546 #
straight-curve $-1 72.062746055482648 6.348271394921273 98.725860221307244 0 0 1 I I #
straight-curve $-1 2.1893229399299088 6.348271394921273 127.57829732706175 0.48480960649040278 0 -0.87461971476443456 I I #
edge $-1 $540 -1.4767191529030192 $305 6.348271394921273 $425 $547 forward 7 unknown #
point $-1 72.062746055482648 6.348271394921273 14.016108664291453 #
point $-1 65.137869683602446 6.348271394921273 14.016108664291451 #
edge $-1 $548 1 $548 0 $308 $-1 forward 7 unknown #
vertex $-1 $309 $549 #
ellipse-curve $-1 65.91636483054009 0.75899243218963619 6.2819707305688217 0.87461971476443456 0 0.48480960649040278 0.48480960649040278 0 -0.87461971476443456 1 I I #
point $-1 69.085117476032949 0.75899243218963619 6.8950848807240623 #
edge $-1 $550 1 $550 0 $312 $-1 forward 7 unknown #
vertex $-1 $313 $551 #
ellipse-curve $-1 65.91636483054009 4.1125598098286176 6.2819707305688217 0.87461971476443456 0 0.48480960649040278 0.48480960649040278 0 -0.87461971476443456 1 I I #
point $-1 69.085117476032949 4.1125598098286176 6.8950848807240623 #
plane-surface $-1 0 0 14.016108664291453 0 0 1 1 0 0 forward_v I I I I #
coedge $-1 $452 $451 $444 $552 forward $317 $-1 #
coedge $-1 $444 $319 $321 $448 reversed $203 $-1 #
coedge $-1 $319 $443 $442 $552 reversed $203 $-1 #
coedge $-1 $327 $322 $319 $446 forward $328 $-1 #
edge $-1 $449 -23.713196774300201 $553 -10.289667826042674 $445 $554 forward 7 unknown #
coedge $-1 $321 $320 $452 $555 reversed $127 $-1 #
edge $-1 $556 0 $449 17.523172689262939 $443 $557 forward 7 unknown #
vertex $-1 $323 $558 #
straight-curve $-1 -58.639217107225129 -4.7258864058714352 14.016108664291455 0 1 0 I I #
coedge $-1 $442 $324 $327 $456 reversed $317 $-1 #
coedge $-1 $324 $442 $447 $555 forward $317 $-1 #
vertex $-1 $325 $559 #
straight-curve $-1 -72.062746055482648 -14.012781442682584 56.579480813366942 0 0 1 I I #
straight-curve $-1 -72.062746055482648 -14.012781442682584 2.7524302387937354 -0.76604443648966558 0 -0.64278761758704617 I I #
edge $-1 $553 4.8907641808031563 $329 14.012781442682584 $451 $560 forward 7 unknown #
point $-1 -72.062746055482648 -14.012781442682584 14.016108664291453 #
point $-1 -58.639217107225122 -14.012781442682584 14.016108664291453 #
edge $-1 $561 1 $561 0 $332 $-1 forward 7 unknown #
vertex $-1 $333 $562 #
ellipse-curve $-1 -64.708193963766831 -12.188377990306698 7.6182250150529267 -0.64278761758704617 0 0.76604443648966558 0.38302221824483279 0 0.32139380879352308 1 I I #
point $-1 -64.967959363109046 -12.188377990306698 8.7056632603361166 #
edge $-1 $563 1 $563 0 $336 $-1 forward 7 unknown #
vertex $-1 $337 $564 #
ellipse-curve $-1 -64.708193963766831 -9.4517728117428703 7.6182250150529267 -0.64278761758704617 0 0.76604443648966558 0.38302221824483279 0 0.32139380879352308 1 I I #
point $-1 -64.967959363109046 -9.4517728117428703 8.7056632603361166 #
edge $-1 $565 1 $565 0 $340 $-1 forward 7 unknown #
vertex $-1 $341 $566 #
ellipse-curve $-1 -64.708193963766831 -6.7151676331790426 7.6182250150529267 -0.64278761758704617 0 0.76604443648966558 0.38302221824483279 0 0.32139380879352308 1 I I #
point $-1 -64.967959363109046 -6.7151676331790426 8.7056632603361166 #
loop $-1 $-1 $352 $344 #
plane-surface $-1 -72.062746055482648 0 0 1 0 0 0 0 -1 forward_v I I I I #
coedge $-1 $474 $347 $349 $478 reversed $232 $-1 #
coedge $-1 $347 $473 $567 $568 reversed $232 $-1 #
coedge $-1 $355 $350 $347 $476 forward $345 $-1 #
edge $-1 $479 -23.713196774300201 $569 -10.289667826042674 $475 $570 forward 7 unknown #
coedge $-1 $349 $348 $482 $571 reversed $146 $-1 #
edge $-1 $572 0 $479 17.523172689262939 $473 $573 forward 7 unknown #
vertex $-1 $351 $574 #
straight-curve $-1 -58.639217107225129 8.8987047560875148 14.016108664291455 0 1 0 I I #
coedge $-1 $567 $352 $355 $486 reversed $471 $-1 #
coedge $-1 $352 $567 $477 $571 forward $471 $-1 #
vertex $-1 $353 $575 #
straight-curve $-1 -72.062746055482648 13.236400881235316 56.579480813366942 0 0 1 I I #
straight-curve $-1 -72.062746055482648 13.236400881235316 2.7524302387937354 -0.76604443648966558 0 -0.64278761758704617 I I #
edge $-1 $569 -22.358418143114744 $356 -13.236400881235316 $481 $576 forward 7 unknown #
point $-1 -72.062746055482648 13.236400881235316 14.016108664291453 #
point $-1 -58.639217107225122 13.236400881235316 14.016108664291453 #
edge $-1 $577 1 $577 0 $359 $-1 forward 7 unknown #
vertex $-1 $360 $578 #
ellipse-curve $-1 -64.708193963766831 15.060804333611202 7.6182250150529267 -0.64278761758704617 0 0.76604443648966558 0.38302221824483279 0 0.32139380879352308 1 I I #
point $-1 -64.967959363109046 15.060804333611202 8.7056632603361166 #
edge $-1 $579 1 $579 0 $363 $-1 forward 7 unknown #
vertex $-1 $364 $580 #
ellipse-curve $-1 -64.708193963766831 17.79740951217503 7.6182250150529267 -0.64278761758704617 0 0.76604443648966558 0.38302221824483279 0 0.32139380879352308 1 I I #
point $-1 -64.967959363109046 17.79740951217503 8.7056632603361166 #
edge $-1 $581 1 $581 0 $367 $-1 forward 7 unknown #
vertex $-1 $368 $582 #
ellipse-curve $-1 -64.708193963766831 20.534014690738857 7.6182250150529267 -0.64278761758704617 0 0.76604443648966558 0.38302221824483279 0 0.32139380879352308 1 I I #
point $-1 -64.967959363109046 20.534014690738857 8.7056632603361166 #
plane-surface $-1 72.062746055482648 0 0 -1 0 0 0 0 1 forward_v I I I I #
coedge $-1 $505 $379 $382 $513 forward $372 $-1 #
coedge $-1 $379 $505 $374 $504 reversed $372 $-1 #
edge $-1 $510 -14.016108664291453 $517 14.016108664291453 $503 $583 forward 7 unknown #
coedge $-1 $503 $502 $375 $506 reversed $372 $-1 #
edge $-1 $517 -72.062746055482648 $507 72.062746055482648 $505 $584 forward 7 unknown #
vertex $-1 $377 $585 #
straight-curve $-1 72.062746055482648 0 -14.016108664291453 0 -1 0 I I #
edge $-1 $510 -33.589988268801193 $390 33.589988268801193 $388 $586 forward 7 unknown #
vertex $-1 $380 $587 #
straight-curve $-1 0 33.589988268801193 14.016108664291453 -1 0 0 I I #
straight-curve $-1 0 -33.589988268801193 14.016108664291453 1 0 0 I I #
edge $-1 $385 -14.016108664291453 $507 14.016108664291453 $382 $588 forward 7 unknown #
point $-1 72.062746055482648 -33.589988268801193 14.016108664291453 #
point $-1 72.062746055482648 33.589988268801193 14.016108664291453 #
point $-1 -72.062746055482648 -33.589988268801193 14.016108664291453 #
vertex $-1 $506 $589 #
straight-curve $-1 -72.062746055482648 0 -14.016108664291453 0 1 0 I I #
plane-surface $-1 0 0 -14.016108664291453 0 0 1 1 0 0 forward_v I I I I #
coedge $-1 $534 $397 $532 $590 reversed $278 $-1 #
coedge $-1 $397 $534 $401 $526 reversed $278 $-1 #
coedge $-1 $399 $398 $397 $523 reversed $173 $-1 #
edge $-1 $527 -14.016108664291453 $591 14.016108664291453 $522 $592 forward 7 unknown #
edge $-1 $591 -46.271600158567779 $409 -33.589988268801193 $398 $593 forward 7 unknown #
straight-curve $-1 -72.062746055482648 -33.589988268801193 0 0 0 -1 I I #
edge $-1 $527 -3.7483370041297519 $529 3.7483370041297519 $521 $594 forward 7 unknown #
vertex $-1 $402 $595 #
straight-curve $-1 -72.062746055482648 0 14.016108664291453 0 -1 0 I I #
vertex $-1 $403 $596 #
straight-curve $-1 -64.566072047223145 -39.930794213684486 14.016108664291453 0 1 0 I I #
point $-1 -72.062746055482648 -33.589988268801193 14.016108664291453 #
coedge $-1 $407 $406 $520 $590 forward $408 $-1 #
point $-1 -72.062746055482648 -33.589988268801193 -14.016108664291453 #
coedge $-1 $521 $520 $411 $535 reversed $278 $-1 #
edge $-1 $529 -14.016108664291453 $536 14.016108664291453 $411 $597 forward 7 unknown #
vertex $-1 $535 $598 #
straight-curve $-1 -64.566072047223145 -39.930794213684486 -14.016108664291453 0 -1 0 I I #
coedge $-1 $426 $425 $418 $539 forward $415 $-1 #
edge $-1 $540 84.709751557015792 $543 97.202559694621726 $538 $599 forward 7 unknown #
vertex $-1 $430 $600 #
straight-curve $-1 64.12215987015307 -1.4767191529030192 14.016108664291451 1 0 0 I I #
edge $-1 $543 -2.6946072134075827 $427 5.1303833344167096 $426 $601 forward 7 unknown #
vertex $-1 $542 $602 #
straight-curve $-1 2.1893229399299088 -1.4767191529030192 127.57829732706175 -0.48480960649040278 0 0.87461971476443456 I I #
point $-1 65.137869683602446 -1.4767191529030192 14.016108664291451 #
point $-1 72.062746055482648 6.348271394921273 1.5233005266855173 #
straight-curve $-1 72.062746055482648 0 14.016108664291453 0 1 0 I I #
vertex $-1 $433 $603 #
point $-1 66.401174437030491 0.75899243218963619 5.4073510158043874 #
vertex $-1 $437 $604 #
point $-1 66.401174437030491 4.1125598098286176 5.4073510158043874 #
edge $-1 $553 42.563372149075491 $556 53.827050574573207 $442 $605 forward 7 unknown #
vertex $-1 $456 $606 #
straight-curve $-1 -82.352413881525322 -4.8907641808031563 14.016108664291451 -1 0 0 I I #
edge $-1 $556 0.16487777493172118 $453 9.2868950368111491 $452 $607 forward 7 unknown #
vertex $-1 $555 $608 #
straight-curve $-1 -72.062746055482648 -4.8907641808031563 2.7524302387937354 0.76604443648966558 0 0.64278761758704617 I I #
point $-1 -58.639217107225122 -4.8907641808031563 14.016108664291453 #
point $-1 -72.062746055482648 -14.012781442682584 2.7524302387937354 #
straight-curve $-1 -72.062746055482648 0 14.016108664291453 0 -1 0 I I #
vertex $-1 $459 $609 #
point $-1 -64.325171745521999 -12.188377990306698 7.93961882384645 #
vertex $-1 $463 $610 #
point $-1 -64.325171745521999 -9.4517728117428703 7.93961882384645 #
vertex $-1 $467 $611 #
point $-1 -64.325171745521999 -6.7151676331790426 7.93961882384645 #
coedge $-1 $482 $481 $474 $568 forward $471 $-1 #
edge $-1 $569 42.563372149075491 $572 53.827050574573207 $567 $612 forward 7 unknown #
vertex $-1 $486 $613 #
straight-curve $-1 -82.352413881525322 22.358418143114744 14.016108664291451 -1 0 0 I I #
edge $-1 $572 -13.459713387027229 $483 -4.3376961251478008 $482 $614 forward 7 unknown #
vertex $-1 $571 $615 #
straight-curve $-1 -72.062746055482648 22.358418143114744 2.7524302387937354 0.76604443648966558 0 0.64278761758704617 I I #
point $-1 -58.639217107225122 22.358418143114744 14.016108664291453 #
point $-1 -72.062746055482648 13.236400881235316 2.7524302387937354 #
straight-curve $-1 -72.062746055482648 0 14.016108664291453 0 -1 0 I I #
vertex $-1 $489 $616 #
point $-1 -64.325171745521999 15.060804333611202 7.93961882384645 #
vertex $-1 $493 $617 #
point $-1 -64.325171745521999 17.79740951217503 7.93961882384645 #
vertex $-1 $497 $618 #
point $-1 -64.325171745521999 20.534014690738857 7.93961882384645 #
straight-curve $-1 -72.062746055482648 33.589988268801193 0 0 0 -1 I I #
straight-curve $-1 0 33.589988268801193 -14.016108664291453 1 0 0 I I #
point $-1 72.062746055482648 33.589988268801193 -14.016108664291453 #
straight-curve $-1 -72.062746055482648 0 14.016108664291453 0 -1 0 I I #
point $-1 -72.062746055482648 33.589988268801193 14.016108664291453 #
straight-curve $-1 72.062746055482648 33.589988268801193 0 0 0 -1 I I #
point $-1 -72.062746055482648 33.589988268801193 -14.016108664291453 #
edge $-1 $536 -3.7483370041297519 $591 3.7483370041297519 $520 $619 forward 7 unknown #
vertex $-1 $524 $620 #
straight-curve $-1 -72.062746055482648 -46.271600158567779 0 0 0 -1 I I #
straight-curve $-1 -72.062746055482648 0 -14.016108664291453 0 1 0 I I #
straight-curve $-1 -68.314409051352897 -46.271600158567779 14.016108664291453 1 0 0 I I #
point $-1 -72.062746055482648 -46.271600158567779 14.016108664291453 #
point $-1 -64.566072047223145 -46.271600158567779 14.016108664291453 #
straight-curve $-1 -64.566072047223145 -46.271600158567779 0 0 0 -1 I I #
point $-1 -64.566072047223145 -46.271600158567779 -14.016108664291453 #
straight-curve $-1 72.062746055482648 -1.4767191529030192 98.725860221307244 0 0 -1 I I #
point $-1 72.062746055482648 -1.4767191529030192 14.016108664291453 #
straight-curve $-1 72.062746055482648 1.2178880605045634 1.5233005266855173 0 1 0 I I #
point $-1 72.062746055482648 -1.4767191529030192 1.5233005266855173 #
point $-1 65.041745115775655 0.75899243218963619 5.7971611240784187 #
point $-1 65.041745115775655 4.1125598098286176 5.7971611240784187 #
straight-curve $-1 -72.062746055482648 -4.8907641808031563 56.579480813366942 0 0 -1 I I #
point $-1 -72.062746055482648 -4.8907641808031563 14.016108664291453 #
straight-curve $-1 -72.062746055482648 -4.7258864058714352 2.7524302387937314 0 -1 0 I I #
point $-1 -72.062746055482648 -4.8907641808031563 2.7524302387937354 #
point $-1 -64.386800154973315 -12.188377990306698 7.2352027968080943 #
point $-1 -64.386800154973315 -9.4517728117428703 7.2352027968080943 #
point $-1 -64.386800154973315 -6.7151676331790426 7.2352027968080943 #
straight-curve $-1 -72.062746055482648 22.358418143114744 56.579480813366942 0 0 -1 I I #
point $-1 -72.062746055482648 22.358418143114744 14.016108664291453 #
straight-curve $-1 -72.062746055482648 8.8987047560875148 2.7524302387937314 0 -1 0 I I #
point $-1 -72.062746055482648 22.358418143114744 2.7524302387937354 #
point $-1 -64.386800154973315 15.060804333611202 7.2352027968080943 #
point $-1 -64.386800154973315 17.79740951217503 7.2352027968080943 #
point $-1 -64.386800154973315 20.534014690738857 7.2352027968080943 #
straight-curve $-1 -68.314409051352897 -46.271600158567779 -14.016108664291453 -1 0 0 I I #
point $-1 -72.062746055482648 -46.271600158567779 -14.016108664291453 #
End-of-ACIS-data 