500 0 8 0           
7 Unknown 11 ACIS 5.0 NT 24 Thu Mar 25 19:02:57 1999 
-1 9.9999999999999995e-007 1e-010 
body $-1 $8 $-1 $9 #
body $-1 $10 $-1 $11 #
body $-1 $12 $-1 $13 #
body $-1 $14 $-1 $15 #
body $-1 $16 $-1 $17 #
body $-1 $18 $-1 $19 #
body $-1 $20 $-1 $21 #
body $-1 $22 $-1 $23 #
lump $-1 $-1 $24 $0 #
transform $-1 1 0 0 0 1 0 0 0 1 50.040589617603075 28.444807829783414 9.3469324278952612 1 rotate no_reflect no_shear #
lump $-1 $-1 $25 $1 #
transform $-1 1 0 0 0 1 0 0 0 1 50.040589617603075 28.444807829783414 9.3469324278952612 1 rotate no_reflect no_shear #
lump $-1 $-1 $26 $2 #
transform $-1 1 0 0 0 1 0 0 0 1 50.040589617603075 28.444807829783414 9.3469324278952612 1 rotate no_reflect no_shear #
lump $-1 $-1 $27 $3 #
transform $-1 1 0 0 0 1 0 0 0 1 50.040589617603075 28.444807829783414 9.3469324278952612 1 rotate no_reflect no_shear #
lump $-1 $-1 $28 $4 #
transform $-1 1 0 0 0 1 0 0 0 1 50.040589617603075 28.444807829783414 9.3469324278952612 1 rotate no_reflect no_shear #
lump $-1 $-1 $29 $5 #
transform $-1 1 0 0 0 1 0 0 0 1 50.040589617603075 28.444807829783414 9.3469324278952612 1 rotate no_reflect no_shear #
lump $-1 $-1 $30 $6 #
transform $-1 1 0 0 0 1 0 0 0 1 50.040589617603075 28.444807829783414 9.3469324278952612 1 rotate no_reflect no_shear #
lump $-1 $-1 $31 $7 #
transform $-1 1 0 0 0 1 0 0 0 1 50.040589617603075 28.444807829783414 9.3469324278952612 1 rotate no_reflect no_shear #
shell $-1 $-1 $-1 $32 $-1 $8 #
shell $-1 $-1 $-1 $33 $-1 $10 #
shell $-1 $-1 $-1 $34 $-1 $12 #
shell $-1 $-1 $-1 $35 $-1 $14 #
shell $-1 $-1 $-1 $36 $-1 $16 #
shell $-1 $-1 $-1 $37 $-1 $18 #
shell $-1 $-1 $-1 $38 $-1 $20 #
shell $-1 $-1 $-1 $39 $-1 $22 #
face $-1 $40 $41 $24 $-1 $42 forward single #
face $-1 $43 $44 $25 $-1 $45 reversed single #
face $-1 $46 $47 $26 $-1 $48 reversed single #
face $-1 $49 $50 $27 $-1 $51 forward single #
face $-1 $52 $53 $28 $-1 $54 forward single #
face $-1 $55 $56 $29 $-1 $57 reversed single #
face $-1 $58 $59 $30 $-1 $60 forward single #
face $-1 $61 $62 $31 $-1 $63 forward single #
face $-1 $64 $65 $24 $-1 $66 reversed single #
loop $-1 $-1 $67 $32 #
plane-surface $-1 0 0 9.3469324278952612 0 0 1 1 0 0 forward_v I I I I #
face $-1 $68 $69 $25 $-1 $70 forward single #
loop $-1 $-1 $71 $33 #
plane-surface $-1 0 -21.194233144958815 7.046122404430136 0 -1 0 0 0 -1 forward_v I I I I #
face $-1 $72 $73 $26 $-1 $74 reversed single #
loop $-1 $-1 $75 $34 #
plane-surface $-1 -127.8182747062951 -3.4536646953398407 69.16618897402401 0 1 0 -0.77714596973225614 0 0.62932038083071107 forward_v I I I I #
face $-1 $76 $77 $27 $-1 $78 forward single #
loop $-1 $79 $80 $35 #
cone-surface $-1 -47.774666257288466 0.77668768282547518 6.9674431486946578 0.77714596973225614 0 -0.62932038083071107 0.62932038083071107 0 0.77714596973225614 1 I I 0 1 1 forward I I I I #
face $-1 $81 $82 $28 $-1 $83 forward single #
loop $-1 $84 $85 $36 #
cone-surface $-1 -47.774666257288466 7.1222162500734498 6.9674431486946578 0.77714596973225614 0 -0.62932038083071107 0.62932038083071107 0 0.77714596973225614 1 I I 0 1 1 forward I I I I #
face $-1 $86 $87 $29 $-1 $88 reversed single #
loop $-1 $-1 $89 $37 #
plane-surface $-1 52.510737903587753 -9.7553284702242493 146.61721492278966 0 -1 0 -0.71933980857756763 0 -0.69465836192734942 forward_v I I I I #
face $-1 $90 $91 $30 $-1 $92 forward single #
loop $-1 $93 $94 $38 #
cone-surface $-1 47.536537469572316 -17.925974666463226 6.7856677933599077 -0.71933980857756763 0 -0.69465836192734942 0.69465836192734942 0 -0.71933980857756763 1 I I 0 1 1 forward I I I I #
face $-1 $95 $96 $31 $-1 $97 forward single #
loop $-1 $98 $99 $39 #
cone-surface $-1 47.536537469572316 -13.023586948719842 6.7856677933599077 -0.71933980857756763 0 -0.69465836192734942 0.69465836192734942 0 -0.71933980857756763 1 I I 0 1 1 forward I I I I #
face $-1 $100 $101 $24 $-1 $102 reversed single #
loop $-1 $-1 $103 $40 #
plane-surface $-1 0 0 -9.3469324278952612 0 0 1 1 0 0 forward_v I I I I #
coedge $-1 $104 $105 $106 $107 forward $41 $-1 #
face $-1 $108 $109 $25 $-1 $110 reversed single #
loop $-1 $-1 $111 $43 #
plane-surface $-1 0 -24.819520487371115 8.546122404430136 0 0 1 1 0 0 forward_v I I I I #
coedge $-1 $112 $113 $114 $115 reversed $44 $-1 #
face $-1 $116 $117 $26 $-1 $118 reversed single #
loop $-1 $-1 $119 $46 #
plane-surface $-1 -50.040589617603075 3.9494519664494661 6.1830631437374208 -0.77714596973225614 0 0.62932038083071107 0.62932038083071107 0 0.77714596973225614 forward_v I I I I #
coedge $-1 $120 $121 $122 $123 reversed $47 $-1 #
face $-1 $-1 $124 $27 $-1 $125 forward single #
loop $-1 $126 $127 $49 #
cone-surface $-1 -46.401195292378802 0.77668768282547518 5.8552283211576093 0.77714596973225614 0 -0.62932038083071107 0.31466019041535553 0 0.38857298486612807 1 I I -0.70710678118654746 0.70710678118654746 0.5 forward I I I I #
loop $-1 $-1 $128 $35 #
coedge $-1 $80 $80 $129 $130 reversed $50 $-1 #
face $-1 $-1 $131 $28 $-1 $132 forward single #
loop $-1 $133 $134 $52 #
cone-surface $-1 -46.401195292378802 7.1222162500734498 5.8552283211576093 0.77714596973225614 0 -0.62932038083071107 0.31466019041535553 0 0.38857298486612807 1 I I -0.70710678118654746 0.70710678118654746 0.5 forward I I I I #
loop $-1 $-1 $135 $36 #
coedge $-1 $85 $85 $136 $137 reversed $53 $-1 #
face $-1 $138 $139 $29 $-1 $140 forward single #
loop $-1 $-1 $141 $55 #
plane-surface $-1 -19.481638409682674 -15.474780807591534 77.094986895503894 0.71933980857756763 0 0.69465836192734942 0.69465836192734942 0 -0.71933980857756763 forward_v I I I I #
coedge $-1 $142 $143 $144 $145 reversed $56 $-1 #
face $-1 $-1 $146 $30 $-1 $147 forward single #
loop $-1 $148 $149 $58 #
cone-surface $-1 46.722162350123071 -17.925974666463226 5.9992349006917678 -0.71933980857756763 0 -0.69465836192734942 0.34732918096367471 0 -0.35966990428878381 1 I I -0.70710678118654746 0.70710678118654746 0.5 forward I I I I #
loop $-1 $-1 $150 $38 #
coedge $-1 $94 $94 $151 $152 reversed $59 $-1 #
face $-1 $-1 $153 $31 $-1 $154 forward single #
loop $-1 $155 $156 $61 #
cone-surface $-1 46.722162350123071 -13.023586948719842 5.9992349006917678 -0.71933980857756763 0 -0.69465836192734942 0.34732918096367471 0 -0.35966990428878381 1 I I -0.70710678118654746 0.70710678118654746 0.5 forward I I I I #
loop $-1 $-1 $157 $39 #
coedge $-1 $99 $99 $158 $159 reversed $62 $-1 #
face $-1 $160 $161 $24 $-1 $162 reversed single #
loop $-1 $-1 $163 $64 #
plane-surface $-1 0 -28.444807829783414 0 0 1 0 0 0 1 forward_v I I I I #
coedge $-1 $164 $165 $166 $167 forward $65 $-1 #
coedge $-1 $168 $67 $169 $170 forward $41 $-1 #
coedge $-1 $67 $168 $171 $172 forward $41 $-1 #
coedge $-1 $173 $174 $67 $107 reversed $175 $-1 #
edge $-1 $176 -28.444807829783414 $177 28.444807829783414 $106 $178 forward 7 unknown #
face $-1 $179 $180 $25 $-1 $181 reversed single #
loop $-1 $-1 $182 $68 #
plane-surface $-1 0 -24.819520487371115 5.546122404430136 0 0 1 1 0 0 forward_v I I I I #
coedge $-1 $183 $184 $185 $186 reversed $69 $-1 #
coedge $-1 $187 $71 $188 $189 reversed $44 $-1 #
coedge $-1 $71 $187 $190 $191 reversed $44 $-1 #
coedge $-1 $182 $192 $71 $115 forward $109 $-1 #
edge $-1 $193 -50.040589617603075 $194 50.040589617603075 $71 $195 forward 7 unknown #
face $-1 $196 $197 $26 $-1 $198 reversed single #
loop $-1 $-1 $199 $72 #
plane-surface $-1 -127.8182747062951 11.352568628238773 69.16618897402401 0 -1 0 0.77714596973225614 0 -0.62932038083071107 forward_v I I I I #
coedge $-1 $200 $201 $202 $203 reversed $73 $-1 #
coedge $-1 $121 $75 $204 $205 reversed $47 $-1 #
coedge $-1 $75 $120 $200 $206 reversed $47 $-1 #
coedge $-1 $202 $207 $75 $123 forward $208 $-1 #
edge $-1 $209 13.868547735544475 $210 16.430598496086631 $122 $211 forward 7 unknown #
loop $-1 $-1 $129 $76 #
plane-surface $-1 -50.040589617603075 3.9494519664494661 6.1830631437374208 -0.77714596973225614 0 0.62932038083071107 0.62932038083071107 0 0.77714596973225614 forward_v I I I I #
loop $-1 $-1 $212 $49 #
coedge $-1 $127 $127 $128 $213 reversed $77 $-1 #
coedge $-1 $128 $128 $127 $213 forward $79 $-1 #
coedge $-1 $129 $129 $80 $130 forward $124 $-1 #
edge $-1 $214 0 $214 6.2831853071796004 $129 $215 forward 7 unknown #
loop $-1 $-1 $136 $81 #
plane-surface $-1 -50.040589617603075 3.9494519664494661 6.1830631437374208 -0.77714596973225614 0 0.62932038083071107 0.62932038083071107 0 0.77714596973225614 forward_v I I I I #
loop $-1 $-1 $216 $52 #
coedge $-1 $134 $134 $135 $217 reversed $82 $-1 #
coedge $-1 $135 $135 $134 $217 forward $84 $-1 #
coedge $-1 $136 $136 $85 $137 forward $131 $-1 #
edge $-1 $218 0 $218 6.2831853071796004 $136 $219 forward 7 unknown #
face $-1 $220 $221 $29 $-1 $222 reversed single #
loop $-1 $-1 $144 $86 #
plane-surface $-1 0 0 9.3469324278952612 0 0 1 1 0 0 forward_v I I I I #
coedge $-1 $223 $224 $225 $226 reversed $87 $-1 #
coedge $-1 $143 $89 $227 $228 reversed $56 $-1 #
coedge $-1 $89 $142 $223 $229 reversed $56 $-1 #
coedge $-1 $225 $230 $89 $145 forward $139 $-1 #
edge $-1 $231 -23.785220665809199 $232 -19.686526800068613 $144 $233 forward 7 unknown #
loop $-1 $-1 $151 $90 #
plane-surface $-1 -19.481638409682674 -15.474780807591534 77.094986895503894 0.71933980857756763 0 0.69465836192734942 0.69465836192734942 0 -0.71933980857756763 forward_v I I I I #
loop $-1 $-1 $234 $58 #
coedge $-1 $149 $149 $150 $235 reversed $91 $-1 #
coedge $-1 $150 $150 $149 $235 forward $93 $-1 #
coedge $-1 $151 $151 $94 $152 forward $146 $-1 #
edge $-1 $236 0 $236 6.2831853071796004 $151 $237 forward 7 unknown #
loop $-1 $-1 $158 $95 #
plane-surface $-1 -19.481638409682674 -15.474780807591534 77.094986895503894 0.71933980857756763 0 0.69465836192734942 0.69465836192734942 0 -0.71933980857756763 forward_v I I I I #
loop $-1 $-1 $238 $61 #
coedge $-1 $156 $156 $157 $239 reversed $96 $-1 #
coedge $-1 $157 $157 $156 $239 forward $98 $-1 #
coedge $-1 $158 $158 $99 $159 forward $153 $-1 #
edge $-1 $240 0 $240 6.2831853071796004 $158 $241 forward 7 unknown #
face $-1 $242 $243 $24 $-1 $244 reversed single #
loop $-1 $-1 $245 $100 #
plane-surface $-1 -50.040589617603075 0 0 1 0 0 0 0 -1 forward_v I I I I #
coedge $-1 $246 $171 $247 $248 forward $101 $-1 #
coedge $-1 $249 $103 $246 $250 forward $65 $-1 #
coedge $-1 $103 $249 $251 $252 forward $65 $-1 #
coedge $-1 $174 $173 $103 $167 reversed $175 $-1 #
edge $-1 $253 -28.444807829783414 $254 28.444807829783414 $166 $255 forward 7 unknown #
coedge $-1 $105 $104 $256 $257 forward $41 $-1 #
coedge $-1 $258 $259 $104 $170 reversed $243 $-1 #
edge $-1 $177 -50.040589617603075 $260 50.040589617603075 $169 $261 forward 7 unknown #
coedge $-1 $163 $262 $105 $172 reversed $101 $-1 #
edge $-1 $263 -50.040589617603075 $176 50.040589617603075 $171 $264 forward 7 unknown #
coedge $-1 $166 $106 $262 $265 forward $175 $-1 #
coedge $-1 $106 $166 $258 $266 reversed $175 $-1 #
loop $-1 $-1 $173 $242 #
vertex $-1 $107 $267 #
vertex $-1 $107 $268 #
straight-curve $-1 50.040589617603075 0 9.3469324278952612 0 1 0 I I #
face $-1 $269 $270 $25 $-1 $271 reversed single #
loop $-1 $-1 $272 $108 #
plane-surface $-1 -50.040589617603075 0 0 1 0 0 0 0 -1 forward_v I I I I #
coedge $-1 $273 $114 $274 $275 reversed $109 $-1 #
coedge $-1 $276 $111 $187 $277 forward $69 $-1 #
coedge $-1 $111 $276 $278 $279 reversed $69 $-1 #
coedge $-1 $280 $190 $111 $186 forward $281 $-1 #
edge $-1 $282 8.7844729012732579 $283 16.035047586097857 $185 $284 forward 7 unknown #
coedge $-1 $113 $112 $183 $277 reversed $44 $-1 #
coedge $-1 $285 $272 $112 $189 forward $180 $-1 #
edge $-1 $286 -5.023061202215068 $193 -2.023061202215068 $188 $287 forward 7 unknown #
coedge $-1 $185 $274 $113 $191 forward $281 $-1 #
edge $-1 $194 2.023061202215068 $282 5.023061202215068 $190 $288 forward 7 unknown #
coedge $-1 $114 $273 $285 $289 reversed $109 $-1 #
vertex $-1 $289 $290 #
vertex $-1 $275 $291 #
straight-curve $-1 0 -21.194233144958815 5.546122404430136 1 0 0 I I #
face $-1 $-1 $208 $26 $-1 $292 forward single #
loop $-1 $-1 $293 $116 #
plane-surface $-1 -50.040589617603075 0 0 1 0 0 0 0 -1 forward_v I I I I #
coedge $-1 $294 $295 $296 $297 reversed $117 $-1 #
coedge $-1 $298 $119 $121 $206 forward $73 $-1 #
coedge $-1 $119 $298 $294 $299 forward $73 $-1 #
coedge $-1 $296 $122 $119 $203 forward $208 $-1 #
edge $-1 $210 -5.4283906785645737 $300 9.3778426450140397 $202 $301 forward 7 unknown #
coedge $-1 $302 $303 $120 $205 forward $197 $-1 #
edge $-1 $304 -28.400031343274584 $209 -25.236162059116744 $204 $305 forward 7 unknown #
edge $-1 $210 -4.0711390232749469 $304 0 $121 $306 forward 7 unknown #
coedge $-1 $122 $296 $302 $307 forward $208 $-1 #
loop $-1 $-1 $296 $196 #
vertex $-1 $205 $308 #
vertex $-1 $123 $309 #
straight-curve $-1 -63.90913735314755 -3.4536646953398407 9.3469324278952612 1 0 0 I I #
coedge $-1 $212 $212 $-1 $310 reversed $126 $-1 #
edge $-1 $311 0 $311 6.2831853071796004 $127 $312 forward 7 unknown #
vertex $-1 $130 $313 #
ellipse-curve $-1 -48.759564237331993 0.77668768282547518 7.7649977858163437 -0.77714596973225614 0 0.62932038083071107 0.62932038083071107 0 0.77714596973225614 1 I I #
coedge $-1 $216 $216 $-1 $314 reversed $133 $-1 #
edge $-1 $315 0 $315 6.2831853071796004 $134 $316 forward 7 unknown #
vertex $-1 $137 $317 #
ellipse-curve $-1 -48.759564237331993 7.1222162500734498 7.7649977858163437 -0.77714596973225614 0 0.62932038083071107 0.62932038083071107 0 0.77714596973225614 1 I I #
face $-1 $-1 $318 $29 $-1 $319 forward single #
loop $-1 $-1 $320 $138 #
plane-surface $-1 50.040589617603075 0 0 -1 0 0 0 0 1 forward_v I I I I #
coedge $-1 $321 $141 $143 $229 forward $87 $-1 #
coedge $-1 $141 $321 $322 $323 forward $87 $-1 #
coedge $-1 $324 $144 $141 $226 forward $139 $-1 #
edge $-1 $232 2.0179380664284823 $325 13.456842741163051 $225 $326 forward 7 unknown #
coedge $-1 $327 $328 $142 $228 forward $221 $-1 #
edge $-1 $329 -68.205996879161347 $231 -63.961675033499567 $227 $330 forward 7 unknown #
edge $-1 $232 94.180877604389167 $329 100.08117923520612 $143 $331 forward 7 unknown #
coedge $-1 $144 $324 $327 $332 forward $139 $-1 #
vertex $-1 $228 $333 #
vertex $-1 $145 $334 #
straight-curve $-1 26.255368951793876 -9.7553284702242493 9.3469324278952683 -1 0 0 I I #
coedge $-1 $234 $234 $-1 $335 reversed $148 $-1 #
edge $-1 $336 0 $336 6.2831853071796004 $149 $337 forward 7 unknown #
vertex $-1 $152 $338 #
ellipse-curve $-1 47.991242684732789 -17.925974666463226 7.2247715050643802 0.71933980857756763 0 0.69465836192734942 0.69465836192734942 0 -0.71933980857756763 1 I I #
coedge $-1 $238 $238 $-1 $339 reversed $155 $-1 #
edge $-1 $340 0 $340 6.2831853071796004 $156 $341 forward 7 unknown #
vertex $-1 $159 $342 #
ellipse-curve $-1 47.991242684732789 -13.023586948719842 7.2247715050643802 0.71933980857756763 0 0.69465836192734942 0.69465836192734942 0 -0.71933980857756763 1 I I #
face $-1 $-1 $175 $24 $-1 $343 reversed single #
loop $-1 $-1 $258 $160 #
plane-surface $-1 0 28.444807829783414 0 0 -1 0 0 0 -1 forward_v I I I I #
coedge $-1 $344 $256 $259 $345 forward $161 $-1 #
coedge $-1 $262 $163 $164 $250 reversed $101 $-1 #
coedge $-1 $256 $344 $163 $248 reversed $161 $-1 #
edge $-1 $263 -9.3469324278952612 $346 9.3469324278952612 $247 $347 forward 7 unknown #
coedge $-1 $165 $164 $344 $348 forward $65 $-1 #
edge $-1 $254 -50.040589617603075 $346 50.040589617603075 $246 $349 forward 7 unknown #
coedge $-1 $259 $258 $165 $252 reversed $243 $-1 #
edge $-1 $350 -50.040589617603075 $253 50.040589617603075 $251 $351 forward 7 unknown #
vertex $-1 $167 $352 #
vertex $-1 $265 $353 #
straight-curve $-1 50.040589617603075 0 -9.3469324278952612 0 -1 0 I I #
coedge $-1 $245 $247 $168 $257 reversed $161 $-1 #
edge $-1 $260 -28.444807829783414 $263 28.444807829783414 $256 $354 forward 7 unknown #
coedge $-1 $251 $169 $174 $266 forward $243 $-1 #
coedge $-1 $169 $251 $245 $345 reversed $243 $-1 #
vertex $-1 $170 $355 #
straight-curve $-1 0 28.444807829783414 9.3469324278952612 -1 0 0 I I #
coedge $-1 $171 $246 $173 $265 reversed $101 $-1 #
vertex $-1 $257 $356 #
straight-curve $-1 0 -28.444807829783414 9.3469324278952612 1 0 0 I I #
edge $-1 $176 -9.3469324278952612 $254 9.3469324278952612 $173 $357 forward 7 unknown #
edge $-1 $177 -9.3469324278952612 $253 9.3469324278952612 $174 $358 forward 7 unknown #
point $-1 50.040589617603075 -28.444807829783414 9.3469324278952612 #
point $-1 50.040589617603075 28.444807829783414 9.3469324278952612 #
face $-1 $-1 $281 $25 $-1 $359 reversed single #
loop $-1 $-1 $278 $179 #
plane-surface $-1 0 -28.444807829783414 0 0 1 0 0 0 1 forward_v I I I I #
coedge $-1 $188 $360 $276 $361 forward $180 $-1 #
coedge $-1 $192 $182 $362 $363 reversed $109 $-1 #
coedge $-1 $190 $280 $182 $275 forward $281 $-1 #
edge $-1 $364 -16.035047586097857 $194 -8.7844729012732579 $274 $365 forward 7 unknown #
coedge $-1 $184 $183 $272 $361 reversed $69 $-1 #
edge $-1 $282 -50.040589617603075 $286 50.040589617603075 $187 $366 forward 7 unknown #
coedge $-1 $367 $368 $184 $279 forward $270 $-1 #
edge $-1 $283 -50.040589617603075 $369 50.040589617603075 $278 $370 forward 7 unknown #
coedge $-1 $274 $185 $368 $371 forward $281 $-1 #
loop $-1 $-1 $185 $269 #
vertex $-1 $186 $372 #
vertex $-1 $371 $373 #
straight-curve $-1 50.040589617603075 -12.409760243685557 8.546122404430136 0 -1 0 I I #
coedge $-1 $360 $188 $192 $289 forward $180 $-1 #
vertex $-1 $361 $374 #
straight-curve $-1 -50.040589617603075 -21.194233144958815 3.523061202215068 0 0 -1 I I #
straight-curve $-1 50.040589617603075 -21.194233144958815 3.523061202215068 0 0 1 I I #
edge $-1 $193 8.7844729012732579 $375 16.035047586097857 $285 $376 forward 7 unknown #
point $-1 -50.040589617603075 -21.194233144958815 5.546122404430136 #
point $-1 50.040589617603075 -21.194233144958815 5.546122404430136 #
plane-surface $-1 0 0 9.3469324278952612 0 0 1 1 0 0 forward_v I I I I #
coedge $-1 $303 $302 $295 $377 forward $197 $-1 #
coedge $-1 $295 $199 $201 $299 reversed $117 $-1 #
coedge $-1 $199 $294 $293 $377 reversed $117 $-1 #
coedge $-1 $207 $202 $199 $297 forward $208 $-1 #
edge $-1 $300 -16.430598496086631 $378 -13.868547735544475 $296 $379 forward 7 unknown #
coedge $-1 $201 $200 $303 $380 reversed $73 $-1 #
edge $-1 $381 0 $300 4.0711390232749469 $294 $382 forward 7 unknown #
vertex $-1 $203 $383 #
straight-curve $-1 -47.478538857060911 1.974725983224733 9.3469324278952612 0 1 0 I I #
coedge $-1 $293 $204 $207 $307 reversed $197 $-1 #
coedge $-1 $204 $293 $298 $380 forward $197 $-1 #
vertex $-1 $205 $384 #
straight-curve $-1 -50.040589617603075 -3.4536646953398407 34.583094487012005 0 0 1 I I #
straight-curve $-1 -50.040589617603075 -3.4536646953398407 6.1830631437374208 -0.62932038083071107 0 -0.77714596973225614 I I #
edge $-1 $378 -11.352568628238773 $209 3.4536646953398407 $302 $385 forward 7 unknown #
point $-1 -50.040589617603075 -3.4536646953398407 9.3469324278952612 #
point $-1 -47.478538857060919 -3.4536646953398407 9.3469324278952612 #
edge $-1 $386 1 $386 0 $212 $-1 forward 7 unknown #
vertex $-1 $213 $387 #
ellipse-curve $-1 -46.789768277244931 0.77668768282547518 6.1698885115729647 -0.77714596973225614 0 0.62932038083071107 0.62932038083071107 0 0.77714596973225614 1 I I #
point $-1 -48.130243856501288 0.77668768282547518 8.5421437555486079 #
edge $-1 $388 1 $388 0 $216 $-1 forward 7 unknown #
vertex $-1 $217 $389 #
ellipse-curve $-1 -46.789768277244931 7.1222162500734498 6.1698885115729647 -0.77714596973225614 0 0.62932038083071107 0.62932038083071107 0 0.77714596973225614 1 I I #
point $-1 -48.130243856501288 7.1222162500734498 8.5421437555486079 #
loop $-1 $-1 $322 $220 #
plane-surface $-1 0 -21.194233144958815 7.046122404430136 0 -1 0 0 0 -1 forward_v I I I I #
coedge $-1 $328 $327 $390 $391 forward $221 $-1 #
coedge $-1 $224 $223 $328 $392 reversed $87 $-1 #
coedge $-1 $390 $393 $224 $323 reversed $318 $-1 #
edge $-1 $394 -100.08117923520612 $325 -94.180877604389167 $322 $395 forward 7 unknown #
coedge $-1 $230 $225 $393 $396 forward $139 $-1 #
vertex $-1 $396 $397 #
straight-curve $-1 45.941895751862489 -7.737390403795767 9.3469324278952683 0 -1 0 I I #
coedge $-1 $320 $227 $230 $332 reversed $221 $-1 #
coedge $-1 $227 $320 $321 $392 forward $221 $-1 #
vertex $-1 $228 $398 #
straight-curve $-1 50.040589617603075 -9.7553284702242493 73.308607461394828 0 0 1 I I #
straight-curve $-1 -19.481638409682674 -9.7553284702242493 77.094986895503894 0.69465836192734942 0 -0.71933980857756763 I I #
edge $-1 $399 -21.194233144958819 $231 -9.7553284702242493 $327 $400 forward 7 unknown #
point $-1 50.040589617603075 -9.7553284702242493 9.3469324278952612 #
point $-1 45.941895751862489 -9.7553284702242493 9.3469324278952683 #
edge $-1 $401 1 $401 0 $234 $-1 forward 7 unknown #
vertex $-1 $235 $402 #
ellipse-curve $-1 47.081832254411857 -17.925974666463226 6.3465640816554423 0.71933980857756763 0 0.69465836192734942 0.69465836192734942 0 -0.71933980857756763 1 I I #
point $-1 48.685901046660128 -17.925974666463226 6.5054316964868057 #
edge $-1 $403 1 $403 0 $238 $-1 forward 7 unknown #
vertex $-1 $239 $404 #
ellipse-curve $-1 47.081832254411857 -13.023586948719842 6.3465640816554423 0.71933980857756763 0 0.69465836192734942 0.69465836192734942 0 -0.71933980857756763 1 I I #
point $-1 48.685901046660128 -13.023586948719842 6.5054316964868057 #
plane-surface $-1 50.040589617603075 0 0 -1 0 0 0 0 1 forward_v I I I I #
coedge $-1 $247 $245 $249 $348 reversed $161 $-1 #
edge $-1 $260 -9.3469324278952612 $350 9.3469324278952612 $259 $405 forward 7 unknown #
vertex $-1 $348 $406 #
straight-curve $-1 -50.040589617603075 -28.444807829783414 0 0 0 -1 I I #
edge $-1 $346 -28.444807829783414 $350 28.444807829783414 $344 $407 forward 7 unknown #
straight-curve $-1 0 -28.444807829783414 -9.3469324278952612 -1 0 0 I I #
vertex $-1 $252 $408 #
straight-curve $-1 0 28.444807829783414 -9.3469324278952612 1 0 0 I I #
point $-1 50.040589617603075 28.444807829783414 -9.3469324278952612 #
point $-1 50.040589617603075 -28.444807829783414 -9.3469324278952612 #
straight-curve $-1 -50.040589617603075 0 9.3469324278952612 0 -1 0 I I #
point $-1 -50.040589617603075 28.444807829783414 9.3469324278952612 #
point $-1 -50.040589617603075 -28.444807829783414 9.3469324278952612 #
straight-curve $-1 50.040589617603075 -28.444807829783414 0 0 0 -1 I I #
straight-curve $-1 50.040589617603075 28.444807829783414 0 0 0 -1 I I #
plane-surface $-1 50.040589617603075 0 0 -1 0 0 0 0 1 forward_v I I I I #
coedge $-1 $272 $285 $367 $409 reversed $180 $-1 #
edge $-1 $369 -16.035047586097857 $286 -8.7844729012732579 $272 $410 forward 7 unknown #
coedge $-1 $368 $367 $273 $363 forward $270 $-1 #
edge $-1 $375 -50.040589617603075 $364 50.040589617603075 $362 $411 forward 7 unknown #
vertex $-1 $363 $412 #
straight-curve $-1 50.040589617603075 -12.409760243685557 5.546122404430136 0 1 0 I I #
straight-curve $-1 0 -21.194233144958815 8.546122404430136 -1 0 0 I I #
coedge $-1 $362 $278 $360 $409 forward $270 $-1 #
coedge $-1 $278 $362 $280 $371 reversed $270 $-1 #
vertex $-1 $409 $413 #
straight-curve $-1 0 -28.444807829783414 8.546122404430136 -1 0 0 I I #
edge $-1 $283 -8.546122404430136 $364 -5.546122404430136 $280 $414 forward 7 unknown #
point $-1 50.040589617603075 -21.194233144958815 8.546122404430136 #
point $-1 50.040589617603075 -28.444807829783414 8.546122404430136 #
point $-1 -50.040589617603075 -21.194233144958815 8.546122404430136 #
vertex $-1 $363 $415 #
straight-curve $-1 -50.040589617603075 -12.409760243685557 5.546122404430136 0 -1 0 I I #
edge $-1 $378 25.236162059116744 $381 28.400031343274584 $293 $416 forward 7 unknown #
vertex $-1 $307 $417 #
straight-curve $-1 -63.90913735314755 11.352568628238773 9.3469324278952612 -1 0 0 I I #
edge $-1 $381 -9.3778426450140397 $304 5.4283906785645737 $303 $418 forward 7 unknown #
vertex $-1 $380 $419 #
straight-curve $-1 -50.040589617603075 11.352568628238773 6.1830631437374208 0.62932038083071107 0 0.77714596973225614 I I #
point $-1 -47.478538857060919 11.352568628238773 9.3469324278952612 #
point $-1 -50.040589617603075 -3.4536646953398407 6.1830631437374208 #
straight-curve $-1 -50.040589617603075 0 9.3469324278952612 0 -1 0 I I #
vertex $-1 $310 $420 #
point $-1 -46.160447896414219 0.77668768282547518 6.9470344813052209 #
vertex $-1 $314 $421 #
point $-1 -46.160447896414219 7.1222162500734498 6.9470344813052209 #
coedge $-1 $393 $322 $320 $391 reversed $318 $-1 #
edge $-1 $399 63.961675033499567 $394 68.205996879161347 $320 $422 forward 7 unknown #
edge $-1 $394 -13.456842741163051 $329 -2.0179380664284823 $328 $423 forward 7 unknown #
coedge $-1 $322 $390 $324 $396 reversed $318 $-1 #
vertex $-1 $391 $424 #
straight-curve $-1 -19.481638409682674 -21.194233144958819 77.094986895503894 -0.69465836192734942 0 0.71933980857756763 I I #
edge $-1 $325 19.686526800068613 $399 23.785220665809199 $324 $425 forward 7 unknown #
point $-1 45.941895751862489 -21.194233144958819 9.3469324278952683 #
point $-1 50.040589617603075 -9.7553284702242493 5.1026105822334813 #
vertex $-1 $332 $426 #
straight-curve $-1 50.040589617603075 0 9.3469324278952612 0 1 0 I I #
vertex $-1 $335 $427 #
point $-1 47.776490616339203 -17.925974666463226 5.627224273077875 #
vertex $-1 $339 $428 #
point $-1 47.776490616339203 -13.023586948719842 5.627224273077875 #
straight-curve $-1 -50.040589617603075 28.444807829783414 0 0 0 -1 I I #
point $-1 -50.040589617603075 -28.444807829783414 -9.3469324278952612 #
straight-curve $-1 -50.040589617603075 0 -9.3469324278952612 0 1 0 I I #
point $-1 -50.040589617603075 28.444807829783414 -9.3469324278952612 #
edge $-1 $369 -8.546122404430136 $375 -5.546122404430136 $360 $429 forward 7 unknown #
straight-curve $-1 -50.040589617603075 -12.409760243685557 8.546122404430136 0 1 0 I I #
straight-curve $-1 0 -28.444807829783414 5.546122404430136 1 0 0 I I #
point $-1 50.040589617603075 -28.444807829783414 5.546122404430136 #
point $-1 -50.040589617603075 -28.444807829783414 8.546122404430136 #
straight-curve $-1 50.040589617603075 -28.444807829783414 0 0 0 -1 I I #
point $-1 -50.040589617603075 -28.444807829783414 5.546122404430136 #
straight-curve $-1 -50.040589617603075 11.352568628238773 34.583094487012005 0 0 -1 I I #
point $-1 -50.040589617603075 11.352568628238773 9.3469324278952612 #
straight-curve $-1 -50.040589617603075 1.974725983224733 6.1830631437374173 0 -1 0 I I #
point $-1 -50.040589617603075 11.352568628238773 6.1830631437374208 #
point $-1 -46.012622307512672 0.77668768282547518 5.5405681307422538 #
point $-1 -46.012622307512672 7.1222162500734498 5.5405681307422538 #
straight-curve $-1 50.040589617603075 -21.194233144958819 73.308607461394828 0 0 -1 I I #
straight-curve $-1 50.040589617603061 -7.737390403795767 5.1026105822334813 0 1 0 I I #
point $-1 50.040589617603075 -21.194233144958819 5.1026105822334813 #
straight-curve $-1 26.255368951793876 -21.194233144958819 9.3469324278952683 1 0 0 I I #
point $-1 50.040589617603075 -21.194233144958819 9.3469324278952612 #
point $-1 46.362492445834285 -17.925974666463226 5.6519057197280933 #
point $-1 46.362492445834285 -13.023586948719842 5.6519057197280933 #
straight-curve $-1 -50.040589617603075 -28.444807829783414 0 0 0 -1 I I #
End-of-ACIS-data 