500 0 10 0           
7 Unknown 11 ACIS 5.0 NT 24 Thu Mar 25 18:20:21 1999 
-1 9.9999999999999995e-007 1e-010 
body $-1 $10 $-1 $11 #
body $-1 $12 $-1 $13 #
body $-1 $14 $-1 $15 #
body $-1 $16 $-1 $17 #
body $-1 $18 $-1 $19 #
body $-1 $20 $-1 $21 #
body $-1 $22 $-1 $23 #
body $-1 $24 $-1 $25 #
body $-1 $26 $-1 $27 #
body $-1 $28 $-1 $29 #
lump $-1 $-1 $30 $0 #
transform $-1 1 0 0 0 1 0 0 0 1 62.05389568773461 37.320588138647061 16.235657452313983 1 rotate no_reflect no_shear #
lump $-1 $-1 $31 $1 #
transform $-1 1 0 0 0 1 0 0 0 1 62.05389568773461 37.320588138647061 16.235657452313983 1 rotate no_reflect no_shear #
lump $-1 $-1 $32 $2 #
transform $-1 1 0 0 0 1 0 0 0 1 62.05389568773461 37.320588138647061 16.235657452313983 1 rotate no_reflect no_shear #
lump $-1 $-1 $33 $3 #
transform $-1 1 0 0 0 1 0 0 0 1 62.05389568773461 37.320588138647061 16.235657452313983 1 rotate no_reflect no_shear #
lump $-1 $-1 $34 $4 #
transform $-1 1 0 0 0 1 0 0 0 1 62.05389568773461 37.320588138647061 16.235657452313983 1 rotate no_reflect no_shear #
lump $-1 $-1 $35 $5 #
transform $-1 1 0 0 0 1 0 0 0 1 62.05389568773461 37.320588138647061 16.235657452313983 1 rotate no_reflect no_shear #
lump $-1 $-1 $36 $6 #
transform $-1 1 0 0 0 1 0 0 0 1 62.05389568773461 37.320588138647061 16.235657452313983 1 rotate no_reflect no_shear #
lump $-1 $-1 $37 $7 #
transform $-1 1 0 0 0 1 0 0 0 1 62.05389568773461 37.320588138647061 16.235657452313983 1 rotate no_reflect no_shear #
lump $-1 $-1 $38 $8 #
transform $-1 1 0 0 0 1 0 0 0 1 62.05389568773461 37.320588138647061 16.235657452313983 1 rotate no_reflect no_shear #
lump $-1 $-1 $39 $9 #
transform $-1 1 0 0 0 1 0 0 0 1 62.05389568773461 37.320588138647061 16.235657452313983 1 rotate no_reflect no_shear #
shell $-1 $-1 $-1 $40 $-1 $10 #
shell $-1 $-1 $-1 $41 $-1 $12 #
shell $-1 $-1 $-1 $42 $-1 $14 #
shell $-1 $-1 $-1 $43 $-1 $16 #
shell $-1 $-1 $-1 $44 $-1 $18 #
shell $-1 $-1 $-1 $45 $-1 $20 #
shell $-1 $-1 $-1 $46 $-1 $22 #
shell $-1 $-1 $-1 $47 $-1 $24 #
shell $-1 $-1 $-1 $48 $-1 $26 #
shell $-1 $-1 $-1 $49 $-1 $28 #
face $-1 $50 $51 $30 $-1 $52 forward single #
face $-1 $53 $54 $31 $-1 $55 forward single #
face $-1 $56 $57 $32 $-1 $58 forward single #
face $-1 $59 $60 $33 $-1 $61 reversed single #
face $-1 $62 $63 $34 $-1 $64 forward single #
face $-1 $65 $66 $35 $-1 $67 forward single #
face $-1 $68 $69 $36 $-1 $70 reversed single #
face $-1 $71 $72 $37 $-1 $73 forward single #
face $-1 $74 $75 $38 $-1 $76 forward single #
face $-1 $77 $78 $39 $-1 $79 forward single #
face $-1 $80 $81 $30 $-1 $82 reversed single #
loop $-1 $-1 $83 $40 #
plane-surface $-1 0 0 16.235657452313983 0 0 1 1 0 0 forward_v I I I I #
face $-1 $84 $85 $31 $-1 $86 forward single #
loop $-1 $-1 $87 $41 #
plane-surface $-1 0 -37.320588138647061 0 0 1 0 0 0 1 forward_v I I I I #
face $-1 $88 $89 $32 $-1 $90 reversed single #
loop $-1 $-1 $91 $42 #
plane-surface $-1 0 37.320588138647061 0 0 -1 0 0 0 -1 forward_v I I I I #
face $-1 $92 $93 $33 $-1 $94 reversed single #
loop $-1 $-1 $95 $43 #
plane-surface $-1 80.40020303508345 0.46028419512461483 180.8834592055604 0 -1 0 -0.77714596973225614 0 -0.62932038083071107 forward_v I I I I #
face $-1 $96 $97 $34 $-1 $98 forward single #
loop $-1 $99 $100 $44 #
cone-surface $-1 57.233143106706464 -8.2425970931450934 10.62688313091526 -0.77714596973225614 0 -0.62932038083071107 0.62932038083071107 0 -0.77714596973225614 1 I I 0 1 1 forward I I I I #
face $-1 $101 $102 $35 $-1 $103 forward single #
loop $-1 $104 $105 $45 #
cone-surface $-1 57.233143106706464 -3.0208683201832685 10.62688313091526 -0.77714596973225614 0 -0.62932038083071107 0.62932038083071107 0 -0.77714596973225614 1 I I 0 1 1 forward I I I I #
face $-1 $106 $107 $36 $-1 $108 reversed single #
loop $-1 $-1 $109 $46 #
plane-surface $-1 -168.43503718951609 -25.079496014305157 72.969940900515681 0 1 0 -0.85716730853699208 0 0.51503806187062418 forward_v I I I I #
face $-1 $110 $111 $37 $-1 $112 forward single #
loop $-1 $113 $114 $47 #
cone-surface $-1 -59.466434058505342 -23.761370917807099 12.385161978946806 0.85716730853699208 0 -0.51503806187062418 0.25751903093531209 0 0.42858365426849604 1 I I 0 1 0.5 forward I I I I #
face $-1 $115 $116 $38 $-1 $117 forward single #
loop $-1 $118 $119 $48 #
cone-surface $-1 -59.466434058505342 -21.784183273060009 12.385161978946806 0.85716730853699208 0 -0.51503806187062418 0.25751903093531209 0 0.42858365426849604 1 I I 0 1 0.5 forward I I I I #
face $-1 $120 $121 $39 $-1 $122 forward single #
loop $-1 $123 $124 $49 #
cone-surface $-1 -59.466434058505342 -19.806995628312926 12.385161978946806 0.85716730853699208 0 -0.51503806187062418 0.25751903093531209 0 0.42858365426849604 1 I I 0 1 0.5 forward I I I I #
face $-1 $125 $126 $30 $-1 $127 reversed single #
loop $-1 $-1 $128 $50 #
plane-surface $-1 0 0 -16.235657452313983 0 0 1 1 0 0 forward_v I I I I #
coedge $-1 $129 $130 $131 $132 forward $51 $-1 #
face $-1 $133 $134 $31 $-1 $135 reversed single #
loop $-1 $-1 $136 $53 #
plane-surface $-1 0 0 16.235657452313983 0 0 1 1 0 0 forward_v I I I I #
coedge $-1 $137 $138 $139 $140 forward $54 $-1 #
face $-1 $141 $142 $32 $-1 $143 reversed single #
loop $-1 $-1 $144 $56 #
plane-surface $-1 62.05389568773461 0 0 -1 0 0 0 0 1 forward_v I I I I #
coedge $-1 $145 $146 $147 $148 forward $57 $-1 #
face $-1 $149 $150 $33 $-1 $151 reversed single #
loop $-1 $-1 $152 $59 #
plane-surface $-1 -16.049666844734119 -5.6317327066641809 102.77989667309166 0.77714596973225614 0 0.62932038083071107 0.62932038083071107 0 -0.77714596973225614 forward_v I I I I #
coedge $-1 $153 $154 $155 $156 reversed $60 $-1 #
face $-1 $-1 $157 $34 $-1 $158 forward single #
loop $-1 $159 $160 $62 #
cone-surface $-1 56.034528206186309 -8.2425970931450934 9.6562639486211204 -0.77714596973225614 0 -0.62932038083071107 0.31466019041535553 0 -0.38857298486612807 1 I I -0.70710678118654746 0.70710678118654746 0.5 forward I I I I #
loop $-1 $-1 $161 $44 #
coedge $-1 $100 $100 $162 $163 reversed $63 $-1 #
face $-1 $-1 $164 $35 $-1 $165 forward single #
loop $-1 $166 $167 $65 #
cone-surface $-1 56.034528206186309 -3.0208683201832685 9.6562639486211204 -0.77714596973225614 0 -0.62932038083071107 0.31466019041535553 0 -0.38857298486612807 1 I I -0.70710678118654746 0.70710678118654746 0.5 forward I I I I #
loop $-1 $-1 $168 $45 #
coedge $-1 $105 $105 $169 $170 reversed $66 $-1 #
face $-1 $171 $172 $36 $-1 $173 reversed single #
loop $-1 $-1 $174 $68 #
plane-surface $-1 -62.053895687734624 -21.784183273060012 9.0497045674502488 -0.85716730853699208 0 0.51503806187062418 0.51503806187062418 0 0.85716730853699208 forward_v I I I I #
coedge $-1 $175 $176 $177 $178 reversed $69 $-1 #
face $-1 $-1 $179 $37 $-1 $180 forward single #
loop $-1 $181 $182 $71 #
cone-surface $-1 -58.823558577102595 -23.761370917807099 11.998883432543838 0.85716730853699208 0 -0.51503806187062418 0.12875951546765604 0 0.21429182713424802 1 I I -0.70710678118654746 0.70710678118654746 0.25 forward I I I I #
loop $-1 $-1 $183 $47 #
coedge $-1 $114 $114 $184 $185 reversed $72 $-1 #
face $-1 $-1 $186 $38 $-1 $187 forward single #
loop $-1 $188 $189 $74 #
cone-surface $-1 -58.823558577102595 -21.784183273060009 11.998883432543838 0.85716730853699208 0 -0.51503806187062418 0.12875951546765604 0 0.21429182713424802 1 I I -0.70710678118654746 0.70710678118654746 0.25 forward I I I I #
loop $-1 $-1 $190 $48 #
coedge $-1 $119 $119 $191 $192 reversed $75 $-1 #
face $-1 $-1 $193 $39 $-1 $194 forward single #
loop $-1 $195 $196 $77 #
cone-surface $-1 -58.823558577102595 -19.806995628312926 11.998883432543838 0.85716730853699208 0 -0.51503806187062418 0.12875951546765604 0 0.21429182713424802 1 I I -0.70710678118654746 0.70710678118654746 0.25 forward I I I I #
loop $-1 $-1 $197 $49 #
coedge $-1 $124 $124 $198 $199 reversed $78 $-1 #
face $-1 $200 $201 $30 $-1 $202 reversed single #
loop $-1 $-1 $203 $80 #
plane-surface $-1 0 -37.320588138647061 0 0 1 0 0 0 1 forward_v I I I I #
coedge $-1 $204 $205 $206 $207 forward $81 $-1 #
coedge $-1 $208 $83 $209 $210 forward $51 $-1 #
coedge $-1 $83 $208 $211 $212 forward $51 $-1 #
coedge $-1 $213 $214 $83 $132 reversed $215 $-1 #
edge $-1 $216 -37.320588138647061 $217 37.320588138647061 $131 $218 forward 7 unknown #
face $-1 $219 $220 $31 $-1 $221 reversed single #
loop $-1 $-1 $222 $84 #
plane-surface $-1 -62.05389568773461 0 0 1 0 0 0 0 -1 forward_v I I I I #
coedge $-1 $223 $224 $225 $226 forward $85 $-1 #
coedge $-1 $225 $87 $222 $227 reversed $54 $-1 #
coedge $-1 $87 $225 $228 $229 reversed $54 $-1 #
coedge $-1 $230 $231 $87 $140 reversed $220 $-1 #
edge $-1 $232 -62.05389568773461 $233 62.05389568773461 $139 $234 forward 7 unknown #
face $-1 $235 $236 $32 $-1 $237 reversed single #
loop $-1 $-1 $238 $88 #
plane-surface $-1 0 43.44113420081802 11.951964928181919 0 0 1 1 0 0 forward_v I I I I #
coedge $-1 $239 $240 $145 $241 forward $89 $-1 #
coedge $-1 $242 $91 $144 $241 reversed $57 $-1 #
coedge $-1 $91 $242 $243 $244 reversed $57 $-1 #
coedge $-1 $245 $238 $91 $148 reversed $142 $-1 #
edge $-1 $246 -62.05389568773461 $247 62.05389568773461 $147 $248 forward 7 unknown #
face $-1 $249 $250 $33 $-1 $251 forward single #
loop $-1 $-1 $252 $92 #
plane-surface $-1 80.40020303508345 -11.723749608452977 180.8834592055604 0 1 0 0.77714596973225614 0 0.62932038083071107 forward_v I I I I #
coedge $-1 $253 $254 $255 $256 reversed $93 $-1 #
coedge $-1 $154 $95 $257 $258 reversed $60 $-1 #
coedge $-1 $95 $153 $253 $259 reversed $60 $-1 #
coedge $-1 $255 $260 $95 $156 forward $250 $-1 #
edge $-1 $261 -21.853794170192884 $262 -13.832372839444645 $155 $263 forward 7 unknown #
loop $-1 $-1 $162 $96 #
plane-surface $-1 -16.049666844734119 -5.6317327066641809 102.77989667309166 0.77714596973225614 0 0.62932038083071107 0.62932038083071107 0 -0.77714596973225614 forward_v I I I I #
loop $-1 $-1 $264 $62 #
coedge $-1 $160 $160 $161 $265 reversed $97 $-1 #
coedge $-1 $161 $161 $160 $265 forward $99 $-1 #
coedge $-1 $162 $162 $100 $163 forward $157 $-1 #
edge $-1 $266 0 $266 6.2831853071796004 $162 $267 forward 7 unknown #
loop $-1 $-1 $169 $101 #
plane-surface $-1 -16.049666844734119 -5.6317327066641809 102.77989667309166 0.77714596973225614 0 0.62932038083071107 0.62932038083071107 0 -0.77714596973225614 forward_v I I I I #
loop $-1 $-1 $268 $65 #
coedge $-1 $167 $167 $168 $269 reversed $102 $-1 #
coedge $-1 $168 $168 $167 $269 forward $104 $-1 #
coedge $-1 $169 $169 $105 $170 forward $164 $-1 #
edge $-1 $270 0 $270 6.2831853071796004 $169 $271 forward 7 unknown #
face $-1 $272 $273 $36 $-1 $274 reversed single #
loop $-1 $-1 $275 $106 #
plane-surface $-1 -168.43503718951609 -18.488870531814868 72.969940900515681 0 -1 0 0.85716730853699208 0 -0.51503806187062418 forward_v I I I I #
coedge $-1 $276 $277 $278 $279 reversed $107 $-1 #
coedge $-1 $176 $109 $280 $281 reversed $69 $-1 #
coedge $-1 $109 $175 $276 $282 reversed $69 $-1 #
coedge $-1 $278 $283 $109 $178 forward $284 $-1 #
edge $-1 $285 22.163622907023438 $286 26.481378856944971 $177 $287 forward 7 unknown #
loop $-1 $-1 $184 $110 #
plane-surface $-1 -62.053895687734624 -21.784183273060012 9.0497045674502488 -0.85716730853699208 0 0.51503806187062418 0.51503806187062418 0 0.85716730853699208 forward_v I I I I #
loop $-1 $-1 $288 $71 #
coedge $-1 $182 $182 $183 $289 reversed $111 $-1 #
coedge $-1 $183 $183 $182 $289 forward $113 $-1 #
coedge $-1 $184 $184 $114 $185 forward $179 $-1 #
edge $-1 $290 0 $290 6.2831853071796004 $184 $291 forward 7 unknown #
loop $-1 $-1 $191 $115 #
plane-surface $-1 -62.053895687734624 -21.784183273060012 9.0497045674502488 -0.85716730853699208 0 0.51503806187062418 0.51503806187062418 0 0.85716730853699208 forward_v I I I I #
loop $-1 $-1 $292 $74 #
coedge $-1 $189 $189 $190 $293 reversed $116 $-1 #
coedge $-1 $190 $190 $189 $293 forward $118 $-1 #
coedge $-1 $191 $191 $119 $192 forward $186 $-1 #
edge $-1 $294 0 $294 6.2831853071796004 $191 $295 forward 7 unknown #
loop $-1 $-1 $198 $120 #
plane-surface $-1 -62.053895687734624 -21.784183273060012 9.0497045674502488 -0.85716730853699208 0 0.51503806187062418 0.51503806187062418 0 0.85716730853699208 forward_v I I I I #
loop $-1 $-1 $296 $77 #
coedge $-1 $196 $196 $197 $297 reversed $121 $-1 #
coedge $-1 $197 $197 $196 $297 forward $123 $-1 #
coedge $-1 $198 $198 $124 $199 forward $193 $-1 #
edge $-1 $298 0 $298 6.2831853071796004 $198 $299 forward 7 unknown #
face $-1 $300 $301 $30 $-1 $302 reversed single #
loop $-1 $-1 $303 $125 #
plane-surface $-1 -62.05389568773461 0 0 1 0 0 0 0 -1 forward_v I I I I #
coedge $-1 $304 $211 $305 $306 forward $126 $-1 #
coedge $-1 $307 $128 $304 $308 forward $81 $-1 #
coedge $-1 $128 $307 $309 $310 forward $81 $-1 #
coedge $-1 $214 $213 $128 $207 reversed $215 $-1 #
edge $-1 $311 -37.320588138647061 $312 37.320588138647061 $206 $313 forward 7 unknown #
coedge $-1 $130 $129 $314 $315 forward $51 $-1 #
coedge $-1 $316 $317 $129 $210 reversed $301 $-1 #
edge $-1 $217 -62.05389568773461 $318 62.05389568773461 $209 $319 forward 7 unknown #
coedge $-1 $203 $320 $130 $212 reversed $126 $-1 #
edge $-1 $321 -62.05389568773461 $216 62.05389568773461 $211 $322 forward 7 unknown #
coedge $-1 $206 $131 $320 $323 forward $215 $-1 #
coedge $-1 $131 $206 $316 $324 reversed $215 $-1 #
loop $-1 $-1 $213 $300 #
vertex $-1 $132 $325 #
vertex $-1 $132 $326 #
straight-curve $-1 62.05389568773461 0 16.235657452313983 0 1 0 I I #
face $-1 $327 $328 $31 $-1 $329 reversed single #
loop $-1 $-1 $230 $133 #
plane-surface $-1 0 -43.441134200818013 11.951964928181919 0 0 1 1 0 0 forward_v I I I I #
coedge $-1 $330 $331 $137 $227 forward $134 $-1 #
coedge $-1 $332 $136 $331 $333 forward $85 $-1 #
coedge $-1 $136 $332 $334 $335 forward $85 $-1 #
coedge $-1 $138 $137 $136 $226 reversed $54 $-1 #
edge $-1 $336 -62.05389568773461 $337 62.05389568773461 $136 $338 forward 7 unknown #
edge $-1 $337 -16.235657452313983 $233 -11.951964928181919 $222 $339 forward 7 unknown #
coedge $-1 $334 $340 $138 $229 forward $341 $-1 #
edge $-1 $232 11.951964928181919 $336 16.235657452313983 $228 $342 forward 7 unknown #
coedge $-1 $343 $139 $340 $344 forward $220 $-1 #
coedge $-1 $139 $343 $330 $345 forward $220 $-1 #
vertex $-1 $229 $346 #
vertex $-1 $227 $347 #
straight-curve $-1 0 -37.320588138647061 11.951964928181919 -1 0 0 I I #
face $-1 $348 $349 $32 $-1 $350 forward single #
loop $-1 $-1 $351 $141 #
plane-surface $-1 0 49.561680262988972 14.093811190247951 0 -1 0 0 0 -1 forward_v I I I I #
coedge $-1 $147 $352 $239 $353 forward $142 $-1 #
coedge $-1 $354 $144 $238 $353 reversed $89 $-1 #
coedge $-1 $144 $354 $355 $356 reversed $89 $-1 #
edge $-1 $357 -16.235657452313983 $247 -11.951964928181919 $144 $358 forward 7 unknown #
coedge $-1 $146 $145 $359 $360 reversed $57 $-1 #
coedge $-1 $361 $362 $146 $244 forward $363 $-1 #
edge $-1 $246 11.951964928181919 $364 16.235657452313983 $243 $365 forward 7 unknown #
coedge $-1 $352 $147 $362 $366 forward $142 $-1 #
vertex $-1 $244 $367 #
vertex $-1 $241 $368 #
straight-curve $-1 0 37.320588138647061 11.951964928181919 1 0 0 I I #
face $-1 $-1 $369 $33 $-1 $370 reversed single #
loop $-1 $-1 $155 $149 #
plane-surface $-1 0 0 16.235657452313983 0 0 1 1 0 0 forward_v I I I I #
coedge $-1 $371 $372 $373 $374 reversed $150 $-1 #
coedge $-1 $375 $152 $154 $259 forward $93 $-1 #
coedge $-1 $152 $375 $371 $376 forward $93 $-1 #
coedge $-1 $373 $155 $152 $256 forward $250 $-1 #
edge $-1 $262 -3.2761505484567053 $377 8.9078832551208862 $255 $378 forward 7 unknown #
coedge $-1 $379 $380 $153 $258 forward $369 $-1 #
edge $-1 $381 -84.111702809506099 $261 -74.206072150466213 $257 $382 forward 7 unknown #
edge $-1 $262 111.36162650447002 $381 124.10779137546922 $154 $383 forward 7 unknown #
coedge $-1 $155 $373 $379 $384 forward $250 $-1 #
vertex $-1 $258 $385 #
vertex $-1 $156 $386 #
straight-curve $-1 40.200101517541725 0.46028419512461483 16.235657452313987 -1 0 0 I I #
coedge $-1 $264 $264 $-1 $387 reversed $159 $-1 #
edge $-1 $388 0 $388 6.2831853071796004 $160 $389 forward 7 unknown #
vertex $-1 $163 $390 #
ellipse-curve $-1 58.043185022360483 -8.2425970931450934 11.282842122794039 0.77714596973225614 0 0.62932038083071107 0.62932038083071107 0 -0.77714596973225614 1 I I #
coedge $-1 $268 $268 $-1 $391 reversed $166 $-1 #
edge $-1 $392 0 $392 6.2831853071796004 $167 $393 forward 7 unknown #
vertex $-1 $170 $394 #
ellipse-curve $-1 58.043185022360483 -3.0208683201832685 11.282842122794039 0.77714596973225614 0 0.62932038083071107 0.62932038083071107 0 -0.77714596973225614 1 I I #
face $-1 $-1 $284 $36 $-1 $395 forward single #
loop $-1 $-1 $396 $171 #
plane-surface $-1 -62.05389568773461 0 0 1 0 0 0 0 -1 forward_v I I I I #
coedge $-1 $397 $398 $399 $400 reversed $172 $-1 #
coedge $-1 $401 $174 $176 $282 forward $107 $-1 #
coedge $-1 $174 $401 $397 $402 forward $107 $-1 #
coedge $-1 $399 $177 $174 $279 forward $284 $-1 #
edge $-1 $286 -14.187404377775151 $403 -7.5967788952848618 $278 $404 forward 7 unknown #
coedge $-1 $405 $406 $175 $281 forward $273 $-1 #
edge $-1 $407 -27.43526588280757 $285 -20.249312997943857 $280 $408 forward 7 unknown #
edge $-1 $286 -8.3833725496702343 $407 -2.7113386213432547e-014 $176 $409 forward 7 unknown #
coedge $-1 $177 $399 $405 $410 forward $284 $-1 #
loop $-1 $-1 $399 $272 #
vertex $-1 $281 $411 #
vertex $-1 $178 $412 #
straight-curve $-1 -84.217518594758047 -25.079496014305157 16.235657452313983 1 0 0 I I #
coedge $-1 $288 $288 $-1 $413 reversed $181 $-1 #
edge $-1 $414 0 $414 6.2831853071796004 $182 $415 forward 7 unknown #
vertex $-1 $185 $416 #
ellipse-curve $-1 -59.895017712773843 -23.761370917807099 12.642681009882123 -0.85716730853699208 0 0.51503806187062418 0.25751903093531209 0 0.42858365426849604 1 I I #
coedge $-1 $292 $292 $-1 $417 reversed $188 $-1 #
edge $-1 $418 0 $418 6.2831853071796004 $189 $419 forward 7 unknown #
vertex $-1 $192 $420 #
ellipse-curve $-1 -59.895017712773843 -21.784183273060009 12.642681009882123 -0.85716730853699208 0 0.51503806187062418 0.25751903093531209 0 0.42858365426849604 1 I I #
coedge $-1 $296 $296 $-1 $421 reversed $195 $-1 #
edge $-1 $422 0 $422 6.2831853071796004 $196 $423 forward 7 unknown #
vertex $-1 $199 $424 #
ellipse-curve $-1 -59.895017712773843 -19.806995628312926 12.642681009882123 -0.85716730853699208 0 0.51503806187062418 0.25751903093531209 0 0.42858365426849604 1 I I #
face $-1 $-1 $215 $30 $-1 $425 reversed single #
loop $-1 $-1 $316 $200 #
plane-surface $-1 0 37.320588138647061 0 0 -1 0 0 0 -1 forward_v I I I I #
coedge $-1 $426 $314 $317 $427 forward $201 $-1 #
coedge $-1 $320 $203 $204 $308 reversed $126 $-1 #
coedge $-1 $314 $426 $203 $306 reversed $201 $-1 #
edge $-1 $321 -16.235657452313983 $428 16.235657452313983 $305 $429 forward 7 unknown #
coedge $-1 $205 $204 $426 $430 forward $81 $-1 #
edge $-1 $312 -62.05389568773461 $428 62.05389568773461 $304 $431 forward 7 unknown #
coedge $-1 $317 $316 $205 $310 reversed $301 $-1 #
edge $-1 $432 -62.05389568773461 $311 62.05389568773461 $309 $433 forward 7 unknown #
vertex $-1 $207 $434 #
vertex $-1 $323 $435 #
straight-curve $-1 62.05389568773461 0 -16.235657452313983 0 -1 0 I I #
coedge $-1 $303 $305 $208 $315 reversed $201 $-1 #
edge $-1 $318 -37.320588138647061 $321 37.320588138647061 $314 $436 forward 7 unknown #
coedge $-1 $309 $209 $214 $324 forward $301 $-1 #
coedge $-1 $209 $309 $303 $427 reversed $301 $-1 #
vertex $-1 $210 $437 #
straight-curve $-1 0 37.320588138647061 16.235657452313983 -1 0 0 I I #
coedge $-1 $211 $304 $213 $323 reversed $126 $-1 #
vertex $-1 $315 $438 #
straight-curve $-1 0 -37.320588138647061 16.235657452313983 1 0 0 I I #
edge $-1 $216 -16.235657452313983 $312 16.235657452313983 $213 $439 forward 7 unknown #
edge $-1 $217 -16.235657452313983 $311 16.235657452313983 $214 $440 forward 7 unknown #
point $-1 62.05389568773461 -37.320588138647061 16.235657452313983 #
point $-1 62.05389568773461 37.320588138647061 16.235657452313983 #
face $-1 $-1 $341 $31 $-1 $441 reversed single #
loop $-1 $-1 $442 $219 #
plane-surface $-1 0 -49.561680262988965 14.093811190247951 0 1 0 0 0 1 forward_v I I I I #
coedge $-1 $443 $222 $231 $345 reversed $134 $-1 #
coedge $-1 $222 $443 $223 $333 reversed $134 $-1 #
coedge $-1 $224 $223 $444 $445 forward $85 $-1 #
edge $-1 $337 37.320588138647061 $446 49.561680262988965 $331 $447 forward 7 unknown #
coedge $-1 $448 $228 $224 $335 reversed $341 $-1 #
edge $-1 $449 -49.561680262988965 $336 -37.320588138647061 $334 $450 forward 7 unknown #
vertex $-1 $229 $451 #
vertex $-1 $333 $452 #
straight-curve $-1 0 -37.320588138647061 16.235657452313983 -1 0 0 I I #
straight-curve $-1 -62.05389568773461 -37.320588138647061 0 0 0 -1 I I #
coedge $-1 $228 $448 $230 $344 reversed $341 $-1 #
loop $-1 $-1 $228 $327 #
straight-curve $-1 62.05389568773461 -37.320588138647061 0 0 0 1 I I #
coedge $-1 $231 $230 $453 $454 forward $220 $-1 #
edge $-1 $232 -6.120546062170952 $455 6.120546062170952 $340 $456 forward 7 unknown #
edge $-1 $457 -6.120546062170952 $233 6.120546062170952 $330 $458 forward 7 unknown #
point $-1 62.05389568773461 -37.320588138647061 11.951964928181919 #
point $-1 -62.05389568773461 -37.320588138647061 11.951964928181919 #
face $-1 $-1 $363 $32 $-1 $459 reversed single #
loop $-1 $-1 $359 $235 #
plane-surface $-1 0 0 16.235657452313983 0 0 1 1 0 0 forward_v I I I I #
coedge $-1 $460 $461 $354 $462 forward $236 $-1 #
coedge $-1 $238 $245 $460 $463 forward $142 $-1 #
edge $-1 $464 -6.120546062170952 $247 6.120546062170952 $239 $465 forward 7 unknown #
coedge $-1 $240 $239 $351 $462 reversed $89 $-1 #
coedge $-1 $466 $359 $240 $356 forward $349 $-1 #
edge $-1 $357 37.320588138647061 $467 49.561680262988972 $240 $468 forward 7 unknown #
vertex $-1 $356 $469 #
straight-curve $-1 62.05389568773461 37.320588138647061 0 0 0 -1 I I #
coedge $-1 $355 $470 $242 $360 forward $349 $-1 #
edge $-1 $364 -62.05389568773461 $357 62.05389568773461 $359 $471 forward 7 unknown #
coedge $-1 $472 $243 $470 $473 reversed $363 $-1 #
coedge $-1 $243 $472 $245 $366 reversed $363 $-1 #
loop $-1 $-1 $243 $348 #
vertex $-1 $244 $474 #
straight-curve $-1 -62.05389568773461 37.320588138647061 0 0 0 1 I I #
edge $-1 $246 -6.120546062170952 $475 6.120546062170952 $362 $476 forward 7 unknown #
point $-1 -62.05389568773461 37.320588138647068 11.951964928181919 #
point $-1 62.05389568773461 37.320588138647068 11.951964928181919 #
loop $-1 $-1 $257 $249 #
plane-surface $-1 62.05389568773461 0 0 -1 0 0 0 0 1 forward_v I I I I #
coedge $-1 $372 $252 $254 $376 reversed $150 $-1 #
coedge $-1 $252 $371 $477 $478 reversed $150 $-1 #
coedge $-1 $260 $255 $252 $374 forward $250 $-1 #
edge $-1 $377 13.832372839444645 $479 21.853794170192884 $373 $480 forward 7 unknown #
coedge $-1 $254 $253 $380 $481 reversed $93 $-1 #
edge $-1 $482 -124.10779137546922 $377 -111.36162650447002 $371 $483 forward 7 unknown #
vertex $-1 $256 $484 #
straight-curve $-1 54.032474356986356 -2.8158663533320905 16.235657452313994 0 -1 0 I I #
coedge $-1 $477 $257 $260 $384 reversed $369 $-1 #
coedge $-1 $257 $477 $375 $481 forward $369 $-1 #
vertex $-1 $258 $485 #
straight-curve $-1 62.05389568773461 0.46028419512461483 90.4417296027802 0 0 1 I I #
straight-curve $-1 -16.049666844734119 0.46028419512461483 102.77989667309166 0.62932038083071107 0 -0.77714596973225614 I I #
edge $-1 $479 -11.723749608452977 $261 0.46028419512461483 $379 $486 forward 7 unknown #
point $-1 62.05389568773461 0.46028419512461483 16.235657452313983 #
point $-1 54.03247435698637 0.46028419512461483 16.235657452313987 #
edge $-1 $487 1 $487 0 $264 $-1 forward 7 unknown #
vertex $-1 $265 $488 #
ellipse-curve $-1 56.423101191052439 -8.2425970931450934 9.9709241390364767 0.77714596973225614 0 0.62932038083071107 0.62932038083071107 0 -0.77714596973225614 1 I I #
point $-1 58.672505403191202 -8.2425970931450934 10.505696153061789 #
edge $-1 $489 1 $489 0 $268 $-1 forward 7 unknown #
vertex $-1 $269 $490 #
ellipse-curve $-1 56.423101191052439 -3.0208683201832685 9.9709241390364767 0.77714596973225614 0 0.62932038083071107 0.62932038083071107 0 -0.77714596973225614 1 I I #
point $-1 58.672505403191202 -3.0208683201832685 10.505696153061789 #
plane-surface $-1 0 0 16.235657452313983 0 0 1 1 0 0 forward_v I I I I #
coedge $-1 $406 $405 $398 $491 forward $273 $-1 #
coedge $-1 $398 $275 $277 $402 reversed $172 $-1 #
coedge $-1 $275 $397 $396 $491 reversed $172 $-1 #
coedge $-1 $283 $278 $275 $400 forward $284 $-1 #
edge $-1 $403 -26.481378856944971 $492 -22.163622907023438 $399 $493 forward 7 unknown #
coedge $-1 $277 $276 $406 $494 reversed $107 $-1 #
edge $-1 $495 2.7113386213432547e-014 $403 8.3833725496702343 $397 $496 forward 7 unknown #
vertex $-1 $279 $497 #
straight-curve $-1 -57.736139737813076 -10.892091636530006 16.235657452313983 0 1 0 I I #
coedge $-1 $396 $280 $283 $410 reversed $273 $-1 #
coedge $-1 $280 $396 $401 $494 forward $273 $-1 #
vertex $-1 $281 $498 #
straight-curve $-1 -62.05389568773461 -25.079496014305157 36.48497045025784 0 0 1 I I #
straight-curve $-1 -62.053895687734624 -25.079496014305157 9.0497045674502488 -0.51503806187062418 0 -0.85716730853699208 I I #
edge $-1 $492 18.488870531814868 $285 25.079496014305157 $405 $499 forward 7 unknown #
point $-1 -62.05389568773461 -25.079496014305157 16.235657452313983 #
point $-1 -57.736139737813076 -25.079496014305157 16.235657452313983 #
edge $-1 $500 1 $500 0 $288 $-1 forward 7 unknown #
vertex $-1 $289 $501 #
ellipse-curve $-1 -59.037850404236842 -23.761370917807099 12.127642948011495 -0.85716730853699208 0 0.51503806187062418 0.25751903093531209 0 0.42858365426849604 1 I I #
point $-1 -59.637498681838522 -23.761370917807099 13.071264664150615 #
edge $-1 $502 1 $502 0 $292 $-1 forward 7 unknown #
vertex $-1 $293 $503 #
ellipse-curve $-1 -59.037850404236842 -21.784183273060009 12.127642948011495 -0.85716730853699208 0 0.51503806187062418 0.25751903093531209 0 0.42858365426849604 1 I I #
point $-1 -59.637498681838522 -21.784183273060009 13.071264664150615 #
edge $-1 $504 1 $504 0 $296 $-1 forward 7 unknown #
vertex $-1 $297 $505 #
ellipse-curve $-1 -59.037850404236842 -19.806995628312926 12.127642948011495 -0.85716730853699208 0 0.51503806187062418 0.25751903093531209 0 0.42858365426849604 1 I I #
point $-1 -59.637498681838522 -19.806995628312926 13.071264664150615 #
plane-surface $-1 62.05389568773461 0 0 -1 0 0 0 0 1 forward_v I I I I #
coedge $-1 $305 $303 $307 $430 reversed $201 $-1 #
edge $-1 $318 -16.235657452313983 $432 16.235657452313983 $317 $506 forward 7 unknown #
vertex $-1 $430 $507 #
straight-curve $-1 -62.05389568773461 -37.320588138647061 0 0 0 -1 I I #
edge $-1 $428 -37.320588138647061 $432 37.320588138647061 $426 $508 forward 7 unknown #
straight-curve $-1 0 -37.320588138647061 -16.235657452313983 -1 0 0 I I #
vertex $-1 $310 $509 #
straight-curve $-1 0 37.320588138647061 -16.235657452313983 1 0 0 I I #
point $-1 62.05389568773461 37.320588138647061 -16.235657452313983 #
point $-1 62.05389568773461 -37.320588138647061 -16.235657452313983 #
straight-curve $-1 -62.05389568773461 0 16.235657452313983 0 -1 0 I I #
point $-1 -62.05389568773461 37.320588138647061 16.235657452313983 #
point $-1 -62.05389568773461 -37.320588138647061 16.235657452313983 #
straight-curve $-1 62.05389568773461 -37.320588138647061 0 0 0 -1 I I #
straight-curve $-1 62.05389568773461 37.320588138647061 0 0 0 -1 I I #
plane-surface $-1 62.05389568773461 0 0 -1 0 0 0 0 1 forward_v I I I I #
coedge $-1 $453 $444 $443 $510 forward $328 $-1 #
coedge $-1 $331 $330 $442 $510 reversed $134 $-1 #
coedge $-1 $442 $511 $332 $445 reversed $328 $-1 #
edge $-1 $446 -62.05389568773461 $449 62.05389568773461 $444 $512 forward 7 unknown #
vertex $-1 $333 $513 #
straight-curve $-1 -62.05389568773461 0 16.235657452313983 0 -1 0 I I #
coedge $-1 $340 $334 $511 $514 forward $341 $-1 #
vertex $-1 $335 $515 #
straight-curve $-1 62.05389568773461 0 16.235657452313983 0 1 0 I I #
point $-1 62.05389568773461 -37.320588138647061 16.235657452313983 #
point $-1 -62.05389568773461 -37.320588138647061 16.235657452313983 #
coedge $-1 $511 $442 $343 $454 reversed $328 $-1 #
edge $-1 $455 -62.05389568773461 $457 62.05389568773461 $453 $516 forward 7 unknown #
vertex $-1 $514 $517 #
straight-curve $-1 62.05389568773461 -43.441134200818013 11.951964928181919 0 -1 0 I I #
vertex $-1 $345 $518 #
straight-curve $-1 -62.05389568773461 -43.441134200818013 11.951964928181919 0 1 0 I I #
plane-surface $-1 -62.05389568773461 0 0 1 0 0 0 0 -1 forward_v I I I I #
coedge $-1 $519 $351 $352 $463 reversed $236 $-1 #
coedge $-1 $351 $519 $466 $520 reversed $236 $-1 #
edge $-1 $467 -2.1418462620660321 $464 2.1418462620660321 $354 $521 forward 7 unknown #
edge $-1 $475 -62.05389568773461 $464 62.05389568773461 $460 $522 forward 7 unknown #
vertex $-1 $353 $523 #
straight-curve $-1 62.05389568773461 43.44113420081802 11.951964928181919 0 -1 0 I I #
coedge $-1 $470 $355 $461 $520 forward $349 $-1 #
vertex $-1 $356 $524 #
straight-curve $-1 62.05389568773461 0 16.235657452313983 0 1 0 I I #
point $-1 62.05389568773461 37.320588138647061 16.235657452313983 #
coedge $-1 $359 $466 $361 $473 forward $349 $-1 #
straight-curve $-1 0 37.320588138647061 16.235657452313983 1 0 0 I I #
coedge $-1 $362 $361 $519 $525 forward $363 $-1 #
edge $-1 $526 -49.561680262988972 $364 -37.320588138647061 $361 $527 forward 7 unknown #
point $-1 -62.05389568773461 37.320588138647061 16.235657452313983 #
vertex $-1 $463 $528 #
straight-curve $-1 -62.05389568773461 43.44113420081802 11.951964928181919 0 1 0 I I #
coedge $-1 $380 $379 $372 $478 forward $369 $-1 #
edge $-1 $479 74.206072150466213 $482 84.111702809506099 $477 $529 forward 7 unknown #
vertex $-1 $384 $530 #
straight-curve $-1 40.200101517541725 -11.723749608452977 16.235657452313987 1 0 0 I I #
edge $-1 $482 -8.9078832551208862 $381 3.2761505484567053 $380 $531 forward 7 unknown #
vertex $-1 $481 $532 #
straight-curve $-1 -16.049666844734119 -11.723749608452977 102.77989667309166 -0.62932038083071107 0 0.77714596973225614 I I #
point $-1 54.03247435698637 -11.723749608452977 16.235657452313987 #
point $-1 62.05389568773461 0.46028419512461483 6.3300267932741008 #
straight-curve $-1 62.05389568773461 0 16.235657452313983 0 1 0 I I #
vertex $-1 $387 $533 #
point $-1 57.052421571883151 -8.2425970931450934 9.1937781693042204 #
vertex $-1 $391 $534 #
point $-1 57.052421571883151 -3.0208683201832685 9.1937781693042204 #
edge $-1 $492 20.249312997943857 $495 27.43526588280757 $396 $535 forward 7 unknown #
vertex $-1 $410 $536 #
straight-curve $-1 -84.217518594758047 -18.488870531814868 16.235657452313983 -1 0 0 I I #
edge $-1 $495 7.5967788952848618 $407 14.187404377775151 $406 $537 forward 7 unknown #
vertex $-1 $494 $538 #
straight-curve $-1 -62.053895687734624 -18.488870531814868 9.0497045674502488 0.51503806187062418 0 0.85716730853699208 I I #
point $-1 -57.736139737813076 -18.488870531814868 16.235657452313983 #
point $-1 -62.05389568773461 -25.079496014305157 9.0497045674502719 #
straight-curve $-1 -62.05389568773461 0 16.235657452313983 0 -1 0 I I #
vertex $-1 $413 $539 #
point $-1 -58.780331373301529 -23.761370917807099 12.55622660227999 #
vertex $-1 $417 $540 #
point $-1 -58.780331373301529 -21.784183273060009 12.55622660227999 #
vertex $-1 $421 $541 #
point $-1 -58.780331373301529 -19.806995628312926 12.55622660227999 #
straight-curve $-1 -62.05389568773461 37.320588138647061 0 0 0 -1 I I #
point $-1 -62.05389568773461 -37.320588138647061 -16.235657452313983 #
straight-curve $-1 -62.05389568773461 0 -16.235657452313983 0 1 0 I I #
point $-1 -62.05389568773461 37.320588138647061 -16.235657452313983 #
edge $-1 $446 -2.1418462620660321 $457 2.1418462620660321 $443 $542 forward 7 unknown #
coedge $-1 $444 $453 $448 $514 reversed $328 $-1 #
straight-curve $-1 0 -49.561680262988965 16.235657452313983 1 0 0 I I #
point $-1 -62.05389568773461 -49.561680262988965 16.235657452313983 #
edge $-1 $449 -2.1418462620660321 $455 2.1418462620660321 $448 $543 forward 7 unknown #
point $-1 62.05389568773461 -49.561680262988965 16.235657452313983 #
straight-curve $-1 0 -49.561680262988965 11.951964928181919 -1 0 0 I I #
point $-1 62.05389568773461 -49.561680262988965 11.951964928181919 #
point $-1 -62.05389568773461 -49.561680262988965 11.951964928181919 #
coedge $-1 $461 $460 $472 $525 reversed $236 $-1 #
edge $-1 $467 -62.05389568773461 $526 62.05389568773461 $461 $544 forward 7 unknown #
straight-curve $-1 62.05389568773461 49.561680262988972 14.093811190247951 0 0 -1 I I #
straight-curve $-1 0 49.561680262988972 11.951964928181919 1 0 0 I I #
point $-1 62.05389568773461 49.561680262988972 11.951964928181919 #
point $-1 62.05389568773461 49.561680262988972 16.235657452313983 #
edge $-1 $526 -2.1418462620660321 $475 2.1418462620660321 $519 $545 forward 7 unknown #
vertex $-1 $520 $546 #
straight-curve $-1 -62.05389568773461 0 16.235657452313983 0 -1 0 I I #
point $-1 -62.05389568773461 49.561680262988972 11.951964928181919 #
straight-curve $-1 62.05389568773461 -11.723749608452977 90.4417296027802 0 0 -1 I I #
point $-1 62.05389568773461 -11.723749608452977 16.235657452313983 #
straight-curve $-1 62.05389568773461 -2.8158663533320905 6.3300267932740937 0 1 0 I I #
point $-1 62.05389568773461 -11.723749608452977 6.3300267932741008 #
point $-1 55.645955221320179 -8.2425970931450934 9.3416037582057641 #
point $-1 55.645955221320179 -3.0208683201832685 9.3416037582057641 #
straight-curve $-1 -62.05389568773461 -18.488870531814868 36.48497045025784 0 0 -1 I I #
point $-1 -62.05389568773461 -18.488870531814868 16.235657452313983 #
straight-curve $-1 -62.05389568773461 -10.892091636530006 9.0497045674502807 0 -1 0 I I #
point $-1 -62.05389568773461 -18.488870531814868 9.0497045674502719 #
point $-1 -58.609266749968349 -23.761370917807099 11.870123917076182 #
point $-1 -58.609266749968349 -21.784183273060009 11.870123917076182 #
point $-1 -58.609266749968349 -19.806995628312926 11.870123917076182 #
straight-curve $-1 -62.05389568773461 -49.561680262988965 14.093811190247951 0 0 -1 I I #
straight-curve $-1 62.05389568773461 -49.561680262988965 14.093811190247951 0 0 -1 I I #
straight-curve $-1 0 49.561680262988972 16.235657452313983 -1 0 0 I I #
straight-curve $-1 -62.05389568773461 49.561680262988972 14.093811190247951 0 0 -1 I I #
point $-1 -62.05389568773461 49.561680262988972 16.235657452313983 #
End-of-ACIS-data 