500 0 8 0           
7 Unknown 11 ACIS 5.0 NT 24 Thu Mar 25 22:05:15 1999 
-1 9.9999999999999995e-007 1e-010 
body $-1 $8 $-1 $9 #
body $-1 $10 $-1 $11 #
body $-1 $12 $-1 $13 #
body $-1 $14 $-1 $15 #
body $-1 $16 $-1 $17 #
body $-1 $18 $-1 $19 #
body $-1 $20 $-1 $21 #
body $-1 $22 $-1 $23 #
lump $-1 $-1 $24 $0 #
transform $-1 1 0 0 0 1 0 0 0 1 48.26197088534196 24.320840114966902 10.533810324766085 1 rotate no_reflect no_shear #
lump $-1 $-1 $25 $1 #
transform $-1 1 0 0 0 1 0 0 0 1 48.26197088534196 24.320840114966902 10.533810324766085 1 rotate no_reflect no_shear #
lump $-1 $-1 $26 $2 #
transform $-1 1 0 0 0 1 0 0 0 1 48.26197088534196 24.320840114966902 10.533810324766085 1 rotate no_reflect no_shear #
lump $-1 $-1 $27 $3 #
transform $-1 1 0 0 0 1 0 0 0 1 48.26197088534196 24.320840114966902 10.533810324766085 1 rotate no_reflect no_shear #
lump $-1 $-1 $28 $4 #
transform $-1 1 0 0 0 1 0 0 0 1 48.26197088534196 24.320840114966902 10.533810324766085 1 rotate no_reflect no_shear #
lump $-1 $-1 $29 $5 #
transform $-1 1 0 0 0 1 0 0 0 1 48.26197088534196 24.320840114966902 10.533810324766085 1 rotate no_reflect no_shear #
lump $-1 $-1 $30 $6 #
transform $-1 1 0 0 0 1 0 0 0 1 48.26197088534196 24.320840114966902 10.533810324766085 1 rotate no_reflect no_shear #
lump $-1 $-1 $31 $7 #
transform $-1 1 0 0 0 1 0 0 0 1 48.26197088534196 24.320840114966902 10.533810324766085 1 rotate no_reflect no_shear #
shell $-1 $-1 $-1 $32 $-1 $8 #
shell $-1 $-1 $-1 $33 $-1 $10 #
shell $-1 $-1 $-1 $34 $-1 $12 #
shell $-1 $-1 $-1 $35 $-1 $14 #
shell $-1 $-1 $-1 $36 $-1 $16 #
shell $-1 $-1 $-1 $37 $-1 $18 #
shell $-1 $-1 $-1 $38 $-1 $20 #
shell $-1 $-1 $-1 $39 $-1 $22 #
face $-1 $40 $41 $24 $-1 $42 forward single #
face $-1 $43 $44 $25 $-1 $45 reversed single #
face $-1 $46 $47 $26 $-1 $48 reversed single #
face $-1 $49 $50 $27 $-1 $51 forward single #
face $-1 $52 $53 $28 $-1 $54 forward single #
face $-1 $55 $56 $29 $-1 $57 forward single #
face $-1 $58 $59 $30 $-1 $60 reversed single #
face $-1 $61 $62 $31 $-1 $63 forward single #
face $-1 $64 $65 $24 $-1 $66 reversed single #
loop $-1 $-1 $67 $32 #
plane-surface $-1 0 0 10.533810324766085 0 0 1 1 0 0 forward_v I I I I #
face $-1 $68 $69 $25 $-1 $70 reversed single #
loop $-1 $-1 $71 $33 #
plane-surface $-1 0 -18.122274450008256 4.3373567583771511 0 0 1 1 0 0 forward_v I I I I #
face $-1 $72 $73 $26 $-1 $74 reversed single #
loop $-1 $-1 $75 $34 #
plane-surface $-1 -48.261970885341967 -8.0578897467966719 3.8939363280202173 -0.80901700255871778 0 0.5877852410284794 0.5877852410284794 0 0.80901700255871778 forward_v I I I I #
face $-1 $76 $77 $27 $-1 $78 forward single #
loop $-1 $79 $80 $35 #
cone-surface $-1 -45.445387035069707 -10.377381169748432 6.9199807058789116 0.80901700255871778 0 -0.5877852410284794 0.2938926205142397 0 0.40450850127935889 1 I I 0 1 0.5 forward I I I I #
face $-1 $81 $82 $28 $-1 $83 forward single #
loop $-1 $84 $85 $36 #
cone-surface $-1 -45.445387035069707 -8.0578897467966719 6.9199807058789116 0.80901700255871778 0 -0.5877852410284794 0.2938926205142397 0 0.40450850127935889 1 I I 0 1 0.5 forward I I I I #
face $-1 $86 $87 $29 $-1 $88 forward single #
loop $-1 $89 $90 $37 #
cone-surface $-1 -45.445387035069707 -5.7383983238449119 6.9199807058789116 0.80901700255871778 0 -0.5877852410284794 0.2938926205142397 0 0.40450850127935889 1 I I 0 1 0.5 forward I I I I #
face $-1 $91 $92 $30 $-1 $93 reversed single #
loop $-1 $-1 $94 $38 #
plane-surface $-1 19.880889458104598 5.4819864701285592 139.25257854151312 0 -1 0 -0.54463904215088732 0 -0.83867056331134215 forward_v I I I I #
face $-1 $95 $96 $31 $-1 $97 forward single #
loop $-1 $98 $99 $39 #
cone-surface $-1 43.014178207277496 1.7777602146741849 5.7463156443420242 -0.54463904215088732 0 -0.83867056331134215 1.2580058449670133 0 -0.81695856322633098 1 I I 0 1 1.5 forward I I I I #
face $-1 $100 $101 $24 $-1 $102 reversed single #
loop $-1 $-1 $103 $40 #
plane-surface $-1 0 0 -10.533810324766085 0 0 1 1 0 0 forward_v I I I I #
coedge $-1 $104 $105 $106 $107 forward $41 $-1 #
face $-1 $108 $109 $25 $-1 $110 reversed single #
loop $-1 $-1 $111 $43 #
plane-surface $-1 0 -11.923708785049607 7.4355835415716189 0 -1 0 0 0 -1 forward_v I I I I #
coedge $-1 $112 $113 $114 $115 reversed $44 $-1 #
face $-1 $116 $117 $26 $-1 $118 forward single #
loop $-1 $-1 $119 $46 #
plane-surface $-1 -126.35148093181289 -4.1920707085437403 60.629284706720576 0 -1 0 0.80901700255871778 0 -0.5877852410284794 forward_v I I I I #
coedge $-1 $120 $121 $122 $123 reversed $47 $-1 #
face $-1 $-1 $124 $27 $-1 $125 forward single #
loop $-1 $126 $127 $49 #
cone-surface $-1 -44.838624283150672 -10.377381169748432 6.4791417751075517 0.80901700255871778 0 -0.5877852410284794 0.14694631025711985 0 0.20225425063967944 1 I I -0.70710678118654746 0.70710678118654746 0.25 forward I I I I #
loop $-1 $-1 $128 $35 #
coedge $-1 $80 $80 $129 $130 reversed $50 $-1 #
face $-1 $-1 $131 $28 $-1 $132 forward single #
loop $-1 $133 $134 $52 #
cone-surface $-1 -44.838624283150672 -8.0578897467966719 6.4791417751075517 0.80901700255871778 0 -0.5877852410284794 0.14694631025711985 0 0.20225425063967944 1 I I -0.70710678118654746 0.70710678118654746 0.25 forward I I I I #
loop $-1 $-1 $135 $36 #
coedge $-1 $85 $85 $136 $137 reversed $53 $-1 #
face $-1 $-1 $138 $29 $-1 $139 forward single #
loop $-1 $140 $141 $55 #
cone-surface $-1 -44.838624283150672 -5.7383983238449119 6.4791417751075517 0.80901700255871778 0 -0.5877852410284794 0.14694631025711985 0 0.20225425063967944 1 I I -0.70710678118654746 0.70710678118654746 0.25 forward I I I I #
loop $-1 $-1 $142 $37 #
coedge $-1 $90 $90 $143 $144 reversed $56 $-1 #
face $-1 $145 $146 $30 $-1 $147 reversed single #
loop $-1 $-1 $148 $58 #
plane-surface $-1 -32.689817732508715 1.7777602146741849 58.30078992366245 0.54463904215088732 0 0.83867056331134215 0.83867056331134215 0 -0.54463904215088732 forward_v I I I I #
coedge $-1 $149 $150 $151 $152 reversed $59 $-1 #
face $-1 $-1 $153 $31 $-1 $154 forward single #
loop $-1 $155 $156 $61 #
cone-surface $-1 41.056452085802341 1.7777602146741849 2.7316818372929408 -0.54463904215088732 0 -0.83867056331134215 0.62900292248350664 0 -0.40847928161316549 1 I I -0.70710678118654757 0.70710678118654757 0.75 forward I I I I #
loop $-1 $-1 $157 $39 #
coedge $-1 $99 $99 $158 $159 reversed $62 $-1 #
face $-1 $160 $161 $24 $-1 $162 reversed single #
loop $-1 $-1 $163 $64 #
plane-surface $-1 0 -24.320840114966902 0 0 1 0 0 0 1 forward_v I I I I #
coedge $-1 $164 $165 $166 $167 forward $65 $-1 #
coedge $-1 $168 $67 $169 $170 forward $41 $-1 #
coedge $-1 $67 $168 $171 $172 forward $41 $-1 #
coedge $-1 $173 $174 $67 $107 reversed $175 $-1 #
edge $-1 $176 -24.320840114966902 $177 24.320840114966902 $106 $178 forward 7 unknown #
face $-1 $179 $180 $25 $-1 $181 reversed single #
loop $-1 $-1 $182 $68 #
plane-surface $-1 -48.26197088534196 0 0 1 0 0 0 0 -1 forward_v I I I I #
coedge $-1 $183 $184 $185 $186 reversed $69 $-1 #
coedge $-1 $187 $71 $188 $189 reversed $44 $-1 #
coedge $-1 $71 $187 $183 $190 forward $44 $-1 #
coedge $-1 $185 $191 $71 $115 forward $192 $-1 #
edge $-1 $193 -15.259702889962778 $194 -2.8625715600454793 $114 $195 forward 7 unknown #
face $-1 $196 $197 $26 $-1 $198 reversed single #
loop $-1 $-1 $122 $72 #
plane-surface $-1 0 0 10.533810324766085 0 0 1 1 0 0 forward_v I I I I #
coedge $-1 $199 $200 $201 $202 reversed $73 $-1 #
coedge $-1 $203 $75 $204 $205 reversed $47 $-1 #
coedge $-1 $75 $203 $199 $206 forward $47 $-1 #
coedge $-1 $201 $207 $75 $123 forward $117 $-1 #
edge $-1 $208 -7.8947639116512711 $209 -0.16312583514540435 $122 $210 forward 7 unknown #
loop $-1 $-1 $129 $76 #
plane-surface $-1 -48.261970885341967 -8.0578897467966719 3.8939363280202173 -0.80901700255871778 0 0.5877852410284794 0.5877852410284794 0 0.80901700255871778 forward_v I I I I #
loop $-1 $-1 $211 $49 #
coedge $-1 $127 $127 $128 $212 reversed $77 $-1 #
coedge $-1 $128 $128 $127 $212 forward $79 $-1 #
coedge $-1 $129 $129 $80 $130 forward $124 $-1 #
edge $-1 $213 0 $213 6.2831853071796004 $129 $214 forward 7 unknown #
loop $-1 $-1 $136 $81 #
plane-surface $-1 -48.261970885341967 -8.0578897467966719 3.8939363280202173 -0.80901700255871778 0 0.5877852410284794 0.5877852410284794 0 0.80901700255871778 forward_v I I I I #
loop $-1 $-1 $215 $52 #
coedge $-1 $134 $134 $135 $216 reversed $82 $-1 #
coedge $-1 $135 $135 $134 $216 forward $84 $-1 #
coedge $-1 $136 $136 $85 $137 forward $131 $-1 #
edge $-1 $217 0 $217 6.2831853071796004 $136 $218 forward 7 unknown #
loop $-1 $-1 $143 $86 #
plane-surface $-1 -48.261970885341967 -8.0578897467966719 3.8939363280202173 -0.80901700255871778 0 0.5877852410284794 0.5877852410284794 0 0.80901700255871778 forward_v I I I I #
loop $-1 $-1 $219 $55 #
coedge $-1 $141 $141 $142 $220 reversed $87 $-1 #
coedge $-1 $142 $142 $141 $220 forward $89 $-1 #
coedge $-1 $143 $143 $90 $144 forward $138 $-1 #
edge $-1 $221 0 $221 6.2831853071796004 $143 $222 forward 7 unknown #
face $-1 $223 $224 $30 $-1 $225 reversed single #
loop $-1 $-1 $226 $91 #
plane-surface $-1 19.880889458104598 -1.9264660407801895 139.25257854151312 0 1 0 0.54463904215088732 0 0.83867056331134215 forward_v I I I I #
coedge $-1 $227 $228 $229 $230 reversed $92 $-1 #
coedge $-1 $150 $94 $231 $232 reversed $59 $-1 #
coedge $-1 $94 $149 $227 $233 reversed $59 $-1 #
coedge $-1 $229 $234 $94 $152 forward $235 $-1 #
edge $-1 $236 -38.321526156289664 $237 -30.924434479884713 $151 $238 forward 7 unknown #
loop $-1 $-1 $158 $95 #
plane-surface $-1 -32.689817732508715 1.7777602146741849 58.30078992366245 0.54463904215088732 0 0.83867056331134215 0.83867056331134215 0 -0.54463904215088732 forward_v I I I I #
loop $-1 $-1 $239 $61 #
coedge $-1 $156 $156 $157 $240 reversed $96 $-1 #
coedge $-1 $157 $157 $156 $240 forward $98 $-1 #
coedge $-1 $158 $158 $99 $159 forward $153 $-1 #
edge $-1 $241 0 $241 6.2831853071796004 $158 $242 forward 7 unknown #
face $-1 $243 $244 $24 $-1 $245 reversed single #
loop $-1 $-1 $246 $100 #
plane-surface $-1 -48.26197088534196 0 0 1 0 0 0 0 -1 forward_v I I I I #
coedge $-1 $247 $171 $248 $249 forward $101 $-1 #
coedge $-1 $250 $103 $247 $251 forward $65 $-1 #
coedge $-1 $103 $250 $252 $253 forward $65 $-1 #
coedge $-1 $174 $173 $103 $167 reversed $175 $-1 #
edge $-1 $254 -24.320840114966902 $255 24.320840114966902 $166 $256 forward 7 unknown #
coedge $-1 $105 $104 $257 $258 forward $41 $-1 #
coedge $-1 $259 $260 $104 $170 reversed $244 $-1 #
edge $-1 $177 -48.26197088534196 $261 48.26197088534196 $169 $262 forward 7 unknown #
coedge $-1 $163 $263 $105 $172 reversed $101 $-1 #
edge $-1 $264 -48.26197088534196 $176 48.26197088534196 $171 $265 forward 7 unknown #
coedge $-1 $166 $106 $263 $266 forward $175 $-1 #
coedge $-1 $106 $166 $259 $267 reversed $175 $-1 #
loop $-1 $-1 $173 $243 #
vertex $-1 $107 $268 #
vertex $-1 $107 $269 #
straight-curve $-1 48.26197088534196 0 10.533810324766085 0 1 0 I I #
face $-1 $270 $271 $25 $-1 $272 forward single #
loop $-1 $-1 $188 $108 #
plane-surface $-1 0 -24.320840114966902 0 0 1 0 0 0 1 forward_v I I I I #
coedge $-1 $273 $274 $275 $276 forward $109 $-1 #
coedge $-1 $275 $111 $113 $190 reversed $69 $-1 #
coedge $-1 $111 $275 $277 $278 reversed $69 $-1 #
coedge $-1 $279 $114 $111 $186 forward $192 $-1 #
edge $-1 $194 0.6195649875913416 $280 6.8160185539802773 $185 $281 forward 7 unknown #
coedge $-1 $113 $112 $273 $282 reversed $44 $-1 #
coedge $-1 $283 $284 $112 $189 forward $180 $-1 #
edge $-1 $285 -48.26197088534196 $193 48.26197088534196 $188 $286 forward 7 unknown #
edge $-1 $287 -48.26197088534196 $194 48.26197088534196 $183 $288 forward 7 unknown #
coedge $-1 $114 $279 $283 $289 forward $192 $-1 #
loop $-1 $-1 $185 $270 #
vertex $-1 $189 $290 #
vertex $-1 $115 $291 #
straight-curve $-1 48.26197088534196 -9.0611372250041278 4.3373567583771511 0 1 0 I I #
face $-1 $-1 $292 $26 $-1 $293 forward single #
loop $-1 $-1 $294 $116 #
plane-surface $-1 -48.26197088534196 0 0 1 0 0 0 0 -1 forward_v I I I I #
coedge $-1 $200 $119 $121 $206 reversed $73 $-1 #
coedge $-1 $119 $199 $294 $295 reversed $73 $-1 #
coedge $-1 $296 $122 $119 $202 forward $117 $-1 #
edge $-1 $209 -19.737920278550256 $297 -14.913769580564484 $201 $298 forward 7 unknown #
coedge $-1 $121 $120 $299 $300 reversed $47 $-1 #
coedge $-1 $301 $302 $120 $205 forward $292 $-1 #
edge $-1 $303 -15.616463501088976 $208 -7.4091279621007953 $204 $304 forward 7 unknown #
edge $-1 $305 1.2080531203272332e-014 $209 8.2073355389881932 $199 $306 forward 7 unknown #
coedge $-1 $122 $296 $301 $307 forward $117 $-1 #
vertex $-1 $205 $308 #
vertex $-1 $123 $309 #
straight-curve $-1 -43.437820187356188 -4.028944873398336 10.533810324766083 0 1 0 I I #
coedge $-1 $211 $211 $-1 $310 reversed $126 $-1 #
edge $-1 $311 0 $311 6.2831853071796004 $127 $312 forward 7 unknown #
vertex $-1 $130 $313 #
ellipse-curve $-1 -45.849895536349074 -10.377381169748432 7.2138733263931556 -0.80901700255871778 0 0.5877852410284794 0.2938926205142397 0 0.40450850127935889 1 I I #
coedge $-1 $215 $215 $-1 $314 reversed $133 $-1 #
edge $-1 $315 0 $315 6.2831853071796004 $134 $316 forward 7 unknown #
vertex $-1 $137 $317 #
ellipse-curve $-1 -45.849895536349074 -8.0578897467966719 7.2138733263931556 -0.80901700255871778 0 0.5877852410284794 0.2938926205142397 0 0.40450850127935889 1 I I #
coedge $-1 $219 $219 $-1 $318 reversed $140 $-1 #
edge $-1 $319 0 $319 6.2831853071796004 $141 $320 forward 7 unknown #
vertex $-1 $144 $321 #
ellipse-curve $-1 -45.849895536349074 -5.7383983238449119 7.2138733263931556 -0.80901700255871778 0 0.5877852410284794 0.2938926205142397 0 0.40450850127935889 1 I I #
face $-1 $-1 $235 $30 $-1 $322 forward single #
loop $-1 $-1 $323 $145 #
plane-surface $-1 48.26197088534196 0 0 -1 0 0 0 0 1 forward_v I I I I #
coedge $-1 $324 $325 $326 $327 reversed $146 $-1 #
coedge $-1 $328 $148 $150 $233 forward $92 $-1 #
coedge $-1 $148 $328 $324 $329 forward $92 $-1 #
coedge $-1 $326 $151 $148 $230 forward $235 $-1 #
edge $-1 $237 -4.5931063627914668 $330 2.8153461481172819 $229 $331 forward 7 unknown #
coedge $-1 $332 $333 $149 $232 forward $224 $-1 #
edge $-1 $334 -63.896206537707421 $236 -59.092478945990472 $231 $335 forward 7 unknown #
edge $-1 $237 87.703921133261233 $334 96.523941770683919 $150 $336 forward 7 unknown #
coedge $-1 $151 $326 $332 $337 forward $235 $-1 #
loop $-1 $-1 $326 $223 #
vertex $-1 $232 $338 #
vertex $-1 $152 $339 #
straight-curve $-1 9.9404447290522988 5.4819864701285592 10.53381032476608 -1 0 0 I I #
coedge $-1 $239 $239 $-1 $340 reversed $155 $-1 #
edge $-1 $341 0 $341 6.2831853071796004 $156 $342 forward 7 unknown #
vertex $-1 $159 $343 #
ellipse-curve $-1 44.563425047139489 1.7777602146741849 8.1319465289076049 0.54463904215088732 0 0.83867056331134215 1.2580058449670133 0 -0.81695856322633098 1 I I #
face $-1 $-1 $175 $24 $-1 $344 reversed single #
loop $-1 $-1 $259 $160 #
plane-surface $-1 0 24.320840114966902 0 0 -1 0 0 0 -1 forward_v I I I I #
coedge $-1 $345 $257 $260 $346 forward $161 $-1 #
coedge $-1 $263 $163 $164 $251 reversed $101 $-1 #
coedge $-1 $257 $345 $163 $249 reversed $161 $-1 #
edge $-1 $264 -10.533810324766085 $347 10.533810324766085 $248 $348 forward 7 unknown #
coedge $-1 $165 $164 $345 $349 forward $65 $-1 #
edge $-1 $255 -48.26197088534196 $347 48.26197088534196 $247 $350 forward 7 unknown #
coedge $-1 $260 $259 $165 $253 reversed $244 $-1 #
edge $-1 $351 -48.26197088534196 $254 48.26197088534196 $252 $352 forward 7 unknown #
vertex $-1 $167 $353 #
vertex $-1 $266 $354 #
straight-curve $-1 48.26197088534196 0 -10.533810324766085 0 -1 0 I I #
coedge $-1 $246 $248 $168 $258 reversed $161 $-1 #
edge $-1 $261 -24.320840114966902 $264 24.320840114966902 $257 $355 forward 7 unknown #
coedge $-1 $252 $169 $174 $267 forward $244 $-1 #
coedge $-1 $169 $252 $246 $346 reversed $244 $-1 #
vertex $-1 $170 $356 #
straight-curve $-1 0 24.320840114966902 10.533810324766085 -1 0 0 I I #
coedge $-1 $171 $247 $173 $266 reversed $101 $-1 #
vertex $-1 $258 $357 #
straight-curve $-1 0 -24.320840114966902 10.533810324766085 1 0 0 I I #
edge $-1 $176 -10.533810324766085 $255 10.533810324766085 $173 $358 forward 7 unknown #
edge $-1 $177 -10.533810324766085 $254 10.533810324766085 $174 $359 forward 7 unknown #
point $-1 48.26197088534196 -24.320840114966902 10.533810324766085 #
point $-1 48.26197088534196 24.320840114966902 10.533810324766085 #
face $-1 $-1 $192 $25 $-1 $360 reversed single #
loop $-1 $-1 $277 $179 #
plane-surface $-1 0 0 10.533810324766085 0 0 1 1 0 0 forward_v I I I I #
coedge $-1 $361 $182 $187 $282 forward $109 $-1 #
coedge $-1 $182 $361 $362 $363 reversed $109 $-1 #
coedge $-1 $184 $183 $182 $276 reversed $69 $-1 #
edge $-1 $364 -6.8160185539802773 $287 -0.6195649875913416 $182 $365 forward 7 unknown #
coedge $-1 $362 $366 $184 $278 forward $271 $-1 #
edge $-1 $280 -48.26197088534196 $364 48.26197088534196 $277 $367 forward 7 unknown #
coedge $-1 $191 $185 $366 $368 reversed $192 $-1 #
vertex $-1 $186 $369 #
straight-curve $-1 48.26197088534196 -11.923708785049607 3.7177917707858095 0 0 1 I I #
edge $-1 $287 2.8625715600454793 $285 15.259702889962778 $273 $370 forward 7 unknown #
coedge $-1 $371 $188 $191 $289 reversed $180 $-1 #
coedge $-1 $188 $371 $361 $372 forward $180 $-1 #
vertex $-1 $189 $373 #
straight-curve $-1 0 -24.320840114966902 4.3373567583771511 1 0 0 I I #
vertex $-1 $282 $374 #
straight-curve $-1 0 -11.923708785049607 4.3373567583771511 1 0 0 I I #
edge $-1 $375 -10.533810324766085 $193 -4.3373567583771511 $191 $376 forward 7 unknown #
point $-1 48.26197088534196 -24.320840114966906 4.3373567583771511 #
point $-1 48.26197088534196 -11.923708785049607 4.3373567583771511 #
loop $-1 $-1 $204 $196 #
plane-surface $-1 0 -11.923708785049607 7.4355835415716189 0 -1 0 0 0 -1 forward_v I I I I #
coedge $-1 $299 $377 $200 $295 forward $197 $-1 #
edge $-1 $297 19.780832028594205 $305 26.42070602534006 $294 $378 forward 7 unknown #
coedge $-1 $207 $201 $377 $379 forward $117 $-1 #
vertex $-1 $379 $380 #
straight-curve $-1 -63.175740465906443 -4.1920707085437403 10.533810324766087 -1 0 0 I I #
coedge $-1 $381 $294 $203 $300 forward $197 $-1 #
edge $-1 $305 0.16312583514540435 $303 7.8947639116512676 $299 $382 forward 7 unknown #
coedge $-1 $302 $204 $207 $307 reversed $292 $-1 #
coedge $-1 $204 $301 $381 $383 reversed $292 $-1 #
vertex $-1 $383 $384 #
straight-curve $-1 -39.082844122341925 -11.923708785049607 16.527920820238851 0.5877852410284794 0 0.80901700255871778 I I #
vertex $-1 $300 $385 #
straight-curve $-1 -48.261970885341967 -4.1920707085437403 3.8939363280202173 0.5877852410284794 0 0.80901700255871778 I I #
edge $-1 $386 -48.26197088534196 $208 -43.437820187356188 $207 $387 forward 7 unknown #
point $-1 -43.437820187356188 -11.923708785049607 10.533810324766085 #
point $-1 -43.437820187356188 -4.1920707085437403 10.533810324766085 #
edge $-1 $388 1 $388 0 $211 $-1 forward 7 unknown #
vertex $-1 $212 $389 #
ellipse-curve $-1 -45.040878533790348 -10.377381169748432 6.626088085364672 -0.80901700255871778 0 0.5877852410284794 0.2938926205142397 0 0.40450850127935889 1 I I #
point $-1 -45.556002915834831 -10.377381169748432 7.6183818276725095 #
edge $-1 $390 1 $390 0 $215 $-1 forward 7 unknown #
vertex $-1 $216 $391 #
ellipse-curve $-1 -45.040878533790348 -8.0578897467966719 6.626088085364672 -0.80901700255871778 0 0.5877852410284794 0.2938926205142397 0 0.40450850127935889 1 I I #
point $-1 -45.556002915834831 -8.0578897467966719 7.6183818276725095 #
edge $-1 $392 1 $392 0 $219 $-1 forward 7 unknown #
vertex $-1 $220 $393 #
ellipse-curve $-1 -45.040878533790348 -5.7383983238449119 6.626088085364672 -0.80901700255871778 0 0.5877852410284794 0.2938926205142397 0 0.40450850127935889 1 I I #
point $-1 -45.556002915834831 -5.7383983238449119 7.6183818276725095 #
plane-surface $-1 0 0 10.533810324766085 0 0 1 1 0 0 forward_v I I I I #
coedge $-1 $333 $332 $325 $394 forward $224 $-1 #
coedge $-1 $325 $226 $228 $329 reversed $146 $-1 #
coedge $-1 $226 $324 $323 $394 reversed $146 $-1 #
coedge $-1 $234 $229 $226 $327 forward $235 $-1 #
edge $-1 $330 30.924434479884713 $395 38.321526156289664 $326 $396 forward 7 unknown #
coedge $-1 $228 $227 $333 $397 reversed $92 $-1 #
edge $-1 $398 -96.523941770683919 $330 -87.703921133261233 $324 $399 forward 7 unknown #
vertex $-1 $230 $400 #
straight-curve $-1 40.864879208937012 0.88888010733709244 10.533810324766087 0 -1 0 I I #
coedge $-1 $323 $231 $234 $337 reversed $224 $-1 #
coedge $-1 $231 $323 $328 $397 forward $224 $-1 #
vertex $-1 $232 $401 #
straight-curve $-1 48.26197088534196 5.4819864701285592 69.626289270756558 0 0 1 I I #
straight-curve $-1 -32.689817732508715 5.4819864701285592 58.30078992366245 0.83867056331134215 0 -0.54463904215088732 I I #
edge $-1 $395 -1.9264660407801895 $236 5.4819864701285592 $332 $402 forward 7 unknown #
point $-1 48.26197088534196 5.4819864701285592 10.533810324766085 #
point $-1 40.864879208937012 5.4819864701285592 10.533810324766087 #
edge $-1 $403 1 $403 0 $239 $-1 forward 7 unknown #
vertex $-1 $240 $404 #
ellipse-curve $-1 41.46493136741551 1.7777602146741849 3.3606847597764475 0.54463904215088732 0 0.83867056331134215 1.2580058449670133 0 -0.81695856322633098 1 I I #
point $-1 45.821430892106498 1.7777602146741849 7.3149879656812704 #
plane-surface $-1 48.26197088534196 0 0 -1 0 0 0 0 1 forward_v I I I I #
coedge $-1 $248 $246 $250 $349 reversed $161 $-1 #
edge $-1 $261 -10.533810324766085 $351 10.533810324766085 $260 $405 forward 7 unknown #
vertex $-1 $349 $406 #
straight-curve $-1 -48.26197088534196 -24.320840114966902 0 0 0 -1 I I #
edge $-1 $347 -24.320840114966902 $351 24.320840114966902 $345 $407 forward 7 unknown #
straight-curve $-1 0 -24.320840114966902 -10.533810324766085 -1 0 0 I I #
vertex $-1 $253 $408 #
straight-curve $-1 0 24.320840114966902 -10.533810324766085 1 0 0 I I #
point $-1 48.26197088534196 24.320840114966902 -10.533810324766085 #
point $-1 48.26197088534196 -24.320840114966902 -10.533810324766085 #
straight-curve $-1 -48.26197088534196 0 10.533810324766085 0 -1 0 I I #
point $-1 -48.26197088534196 24.320840114966902 10.533810324766085 #
point $-1 -48.26197088534196 -24.320840114966902 10.533810324766085 #
straight-curve $-1 48.26197088534196 -24.320840114966902 0 0 0 -1 I I #
straight-curve $-1 48.26197088534196 24.320840114966902 0 0 0 -1 I I #
plane-surface $-1 48.26197088534196 0 0 -1 0 0 0 0 1 forward_v I I I I #
coedge $-1 $274 $273 $284 $372 reversed $109 $-1 #
coedge $-1 $409 $277 $274 $363 forward $271 $-1 #
edge $-1 $364 11.923708785049607 $410 24.320840114966902 $274 $411 forward 7 unknown #
vertex $-1 $363 $412 #
straight-curve $-1 -48.26197088534196 -11.923708785049607 3.7177917707858095 0 0 -1 I I #
coedge $-1 $277 $409 $279 $368 forward $271 $-1 #
straight-curve $-1 0 -11.923708785049607 10.533810324766085 -1 0 0 I I #
edge $-1 $375 -24.320840114966902 $280 -11.923708785049607 $279 $413 forward 7 unknown #
point $-1 48.26197088534196 -11.923708785049607 10.533810324766087 #
straight-curve $-1 -48.26197088534196 -9.0611372250041278 4.3373567583771511 0 -1 0 I I #
coedge $-1 $284 $283 $409 $414 reversed $180 $-1 #
edge $-1 $410 -10.533810324766085 $285 -4.3373567583771511 $361 $415 forward 7 unknown #
point $-1 -48.26197088534196 -24.320840114966906 4.3373567583771511 #
point $-1 -48.26197088534196 -11.923708785049607 4.3373567583771511 #
vertex $-1 $368 $416 #
straight-curve $-1 48.26197088534196 -24.320840114966902 0 0 0 -1 I I #
coedge $-1 $294 $381 $296 $379 reversed $197 $-1 #
straight-curve $-1 -48.26197088534196 -4.1920707085437403 30.314642353360288 0 0 -1 I I #
edge $-1 $297 4.1920707085437403 $386 11.923708785049607 $377 $417 forward 7 unknown #
point $-1 -48.26197088534196 -4.1920707085437403 10.533810324766085 #
coedge $-1 $377 $299 $302 $383 forward $197 $-1 #
straight-curve $-1 -48.26197088534196 -4.028944873398336 3.8939363280202315 0 -1 0 I I #
edge $-1 $303 -26.42070602534006 $386 -19.780832028594201 $381 $418 forward 7 unknown #
point $-1 -48.26197088534196 -11.923708785049604 3.893936328020227 #
point $-1 -48.26197088534196 -4.1920707085437403 3.893936328020227 #
vertex $-1 $383 $419 #
straight-curve $-1 0 -11.923708785049607 10.533810324766085 1 0 0 I I #
vertex $-1 $310 $420 #
point $-1 -44.746985913276113 -10.377381169748432 7.0305965866440303 #
vertex $-1 $314 $421 #
point $-1 -44.746985913276113 -8.0578897467966719 7.0305965866440303 #
vertex $-1 $318 $422 #
point $-1 -44.746985913276113 -5.7383983238449119 7.0305965866440303 #
edge $-1 $395 59.092478945990472 $398 63.896206537707421 $323 $423 forward 7 unknown #
vertex $-1 $337 $424 #
straight-curve $-1 9.9404447290522988 -1.9264660407801895 10.53381032476608 1 0 0 I I #
edge $-1 $398 -2.8153461481172819 $334 4.5931063627914668 $333 $425 forward 7 unknown #
vertex $-1 $397 $426 #
straight-curve $-1 -32.689817732508715 -1.9264660407801895 58.30078992366245 -0.83867056331134215 0 0.54463904215088732 I I #
point $-1 40.864879208937012 -1.9264660407801895 10.533810324766087 #
point $-1 48.261970885341952 5.4819864701285592 5.7300827330491373 #
straight-curve $-1 48.26197088534196 0 10.533810324766085 0 1 0 I I #
vertex $-1 $340 $427 #
point $-1 42.722937212382519 1.7777602146741849 2.5437261965501166 #
straight-curve $-1 -48.26197088534196 24.320840114966902 0 0 0 -1 I I #
point $-1 -48.26197088534196 -24.320840114966902 -10.533810324766085 #
straight-curve $-1 -48.26197088534196 0 -10.533810324766085 0 1 0 I I #
point $-1 -48.26197088534196 24.320840114966902 -10.533810324766085 #
coedge $-1 $366 $362 $371 $414 forward $271 $-1 #
vertex $-1 $363 $428 #
straight-curve $-1 -48.26197088534196 0 10.533810324766085 0 -1 0 I I #
point $-1 -48.26197088534196 -11.923708785049607 10.533810324766087 #
straight-curve $-1 48.26197088534196 0 10.533810324766085 0 1 0 I I #
edge $-1 $410 -48.26197088534196 $375 48.26197088534196 $371 $429 forward 7 unknown #
straight-curve $-1 -48.26197088534196 -24.320840114966902 0 0 0 -1 I I #
point $-1 48.26197088534196 -24.320840114966902 10.533810324766085 #
straight-curve $-1 -48.26197088534196 0 10.533810324766085 0 -1 0 I I #
straight-curve $-1 -48.26197088534196 -11.923708785049604 30.314642353360288 0 0 1 I I #
point $-1 -48.26197088534196 -11.923708785049607 10.533810324766087 #
point $-1 -44.636370032510996 -10.377381169748432 6.3321954648504315 #
point $-1 -44.636370032510996 -8.0578897467966719 6.3321954648504315 #
point $-1 -44.636370032510996 -5.7383983238449119 6.3321954648504315 #
straight-curve $-1 48.26197088534196 -1.9264660407801895 69.626289270756558 0 0 -1 I I #
point $-1 48.26197088534196 -1.9264660407801895 10.533810324766085 #
straight-curve $-1 48.261970885341952 0.88888010733709244 5.7300827330491408 0 1 0 I I #
point $-1 48.261970885341952 -1.9264660407801895 5.7300827330491373 #
point $-1 40.647972804189173 1.7777602146741849 2.102678914809434 #
point $-1 -48.26197088534196 -24.320840114966902 10.533810324766085 #
straight-curve $-1 0 -24.320840114966902 10.533810324766085 1 0 0 I I #
End-of-ACIS-data 