500 0 13 0           
7 Unknown 11 ACIS 5.0 NT 24 Fri Mar 26 03:06:38 1999 
-1 9.9999999999999995e-007 1e-010 
body $-1 $13 $-1 $14 #
body $-1 $15 $-1 $16 #
body $-1 $17 $-1 $18 #
body $-1 $19 $-1 $20 #
body $-1 $21 $-1 $22 #
body $-1 $23 $-1 $24 #
body $-1 $25 $-1 $26 #
body $-1 $27 $-1 $28 #
body $-1 $29 $-1 $30 #
body $-1 $31 $-1 $32 #
body $-1 $33 $-1 $34 #
body $-1 $35 $-1 $36 #
body $-1 $37 $-1 $38 #
lump $-1 $-1 $39 $0 #
transform $-1 1 0 0 0 1 0 0 0 1 49.428998687704095 22.046114817387014 5.7401847339096976 1 rotate no_reflect no_shear #
lump $-1 $-1 $40 $1 #
transform $-1 1 0 0 0 1 0 0 0 1 49.428998687704095 22.046114817387014 5.7401847339096976 1 rotate no_reflect no_shear #
lump $-1 $-1 $41 $2 #
transform $-1 1 0 0 0 1 0 0 0 1 49.428998687704095 22.046114817387014 5.7401847339096976 1 rotate no_reflect no_shear #
lump $-1 $-1 $42 $3 #
transform $-1 1 0 0 0 1 0 0 0 1 49.428998687704095 22.046114817387014 5.7401847339096976 1 rotate no_reflect no_shear #
lump $-1 $-1 $43 $4 #
transform $-1 1 0 0 0 1 0 0 0 1 49.428998687704095 22.046114817387014 5.7401847339096976 1 rotate no_reflect no_shear #
lump $-1 $-1 $44 $5 #
transform $-1 1 0 0 0 1 0 0 0 1 49.428998687704095 22.046114817387014 5.7401847339096976 1 rotate no_reflect no_shear #
lump $-1 $-1 $45 $6 #
transform $-1 1 0 0 0 1 0 0 0 1 49.428998687704095 22.046114817387014 5.7401847339096976 1 rotate no_reflect no_shear #
lump $-1 $-1 $46 $7 #
transform $-1 1 0 0 0 1 0 0 0 1 49.428998687704095 22.046114817387014 5.7401847339096976 1 rotate no_reflect no_shear #
lump $-1 $-1 $47 $8 #
transform $-1 1 0 0 0 1 0 0 0 1 49.428998687704095 22.046114817387014 5.7401847339096976 1 rotate no_reflect no_shear #
lump $-1 $-1 $48 $9 #
transform $-1 1 0 0 0 1 0 0 0 1 49.428998687704095 22.046114817387014 5.7401847339096976 1 rotate no_reflect no_shear #
lump $-1 $-1 $49 $10 #
transform $-1 1 0 0 0 1 0 0 0 1 49.428998687704095 22.046114817387014 5.7401847339096976 1 rotate no_reflect no_shear #
lump $-1 $-1 $50 $11 #
transform $-1 1 0 0 0 1 0 0 0 1 49.428998687704095 22.046114817387014 5.7401847339096976 1 rotate no_reflect no_shear #
lump $-1 $-1 $51 $12 #
transform $-1 1 0 0 0 1 0 0 0 1 49.428998687704095 22.046114817387014 5.7401847339096976 1 rotate no_reflect no_shear #
shell $-1 $-1 $-1 $52 $-1 $13 #
shell $-1 $-1 $-1 $53 $-1 $15 #
shell $-1 $-1 $-1 $54 $-1 $17 #
shell $-1 $-1 $-1 $55 $-1 $19 #
shell $-1 $-1 $-1 $56 $-1 $21 #
shell $-1 $-1 $-1 $57 $-1 $23 #
shell $-1 $-1 $-1 $58 $-1 $25 #
shell $-1 $-1 $-1 $59 $-1 $27 #
shell $-1 $-1 $-1 $60 $-1 $29 #
shell $-1 $-1 $-1 $61 $-1 $31 #
shell $-1 $-1 $-1 $62 $-1 $33 #
shell $-1 $-1 $-1 $63 $-1 $35 #
shell $-1 $-1 $-1 $64 $-1 $37 #
face $-1 $65 $66 $39 $-1 $67 forward single #
face $-1 $68 $69 $40 $-1 $70 reversed single #
face $-1 $71 $72 $41 $-1 $73 forward single #
face $-1 $74 $75 $42 $-1 $76 forward single #
face $-1 $77 $78 $43 $-1 $79 reversed single #
face $-1 $80 $81 $44 $-1 $82 forward single #
face $-1 $83 $84 $45 $-1 $85 forward single #
face $-1 $86 $87 $46 $-1 $88 reversed single #
face $-1 $89 $90 $47 $-1 $91 forward single #
face $-1 $92 $93 $48 $-1 $94 forward single #
face $-1 $95 $96 $49 $-1 $97 reversed single #
face $-1 $98 $99 $50 $-1 $100 forward single #
face $-1 $101 $102 $51 $-1 $103 forward single #
face $-1 $104 $105 $39 $-1 $106 reversed single #
loop $-1 $-1 $107 $52 #
plane-surface $-1 0 0 5.7401847339096976 0 0 1 1 0 0 forward_v I I I I #
face $-1 $108 $109 $40 $-1 $110 reversed single #
loop $-1 $-1 $111 $53 #
plane-surface $-1 -17.991992525237748 -18.83456602671356 73.318983000138658 0.73135370988377701 0 0.68199835119979291 0.68199835119979291 0 -0.73135370988377701 forward_v I I I I #
face $-1 $112 $113 $41 $-1 $114 forward single #
loop $-1 $115 $116 $54 #
cone-surface $-1 46.861949903913541 -20.210944079859328 3.038503125331566 -0.73135370988377701 0 -0.68199835119979291 0.17049958779994823 0 -0.18283842747094425 1 I I 0 1 0.25 forward I I I I #
face $-1 $117 $118 $42 $-1 $119 forward single #
loop $-1 $120 $121 $55 #
cone-surface $-1 46.861949903913541 -17.458187973567796 3.038503125331566 -0.73135370988377701 0 -0.68199835119979291 0.17049958779994823 0 -0.18283842747094425 1 I I 0 1 0.25 forward I I I I #
face $-1 $122 $123 $43 $-1 $124 reversed single #
loop $-1 $-1 $125 $56 #
plane-surface $-1 54.308170606947726 1.3322676295501878e-015 140.7399742130805 0 1 0 0.73135370988377701 0 0.68199835119979291 forward_v I I I I #
face $-1 $126 $127 $44 $-1 $128 forward single #
loop $-1 $129 $130 $57 #
cone-surface $-1 46.861949903913541 1.8351707375276867 3.038503125331566 -0.73135370988377701 0 -0.68199835119979291 0.17049958779994823 0 -0.18283842747094425 1 I I 0 1 0.25 forward I I I I #
face $-1 $131 $132 $45 $-1 $133 forward single #
loop $-1 $134 $135 $58 #
cone-surface $-1 46.861949903913541 4.5879268438192184 3.038503125331566 -0.73135370988377701 0 -0.68199835119979291 0.17049958779994823 0 -0.18283842747094425 1 I I 0 1 0.25 forward I I I I #
face $-1 $136 $137 $46 $-1 $138 reversed single #
loop $-1 $-1 $139 $59 #
plane-surface $-1 -121.72916181988957 -15.623017236040107 68.439811080895012 0 -1 0 0.73135370988377701 0 -0.68199835119979291 forward_v I I I I #
face $-1 $140 $141 $47 $-1 $142 forward single #
loop $-1 $143 $144 $60 #
cone-surface $-1 -46.861949903913526 -20.210944079859328 3.0385031253315411 0.73135370988377701 0 -0.68199835119979291 0.17049958779994823 0 0.18283842747094425 1 I I 0 1 0.25 forward I I I I #
face $-1 $145 $146 $48 $-1 $147 forward single #
loop $-1 $148 $149 $61 #
cone-surface $-1 -46.861949903913526 -17.458187973567796 3.0385031253315411 0.73135370988377701 0 -0.68199835119979291 0.17049958779994823 0 0.18283842747094425 1 I I 0 1 0.25 forward I I I I #
face $-1 $150 $151 $49 $-1 $152 reversed single #
loop $-1 $-1 $153 $62 #
plane-surface $-1 -121.72916181988957 1.3322676295501878e-015 68.439811080895012 0 1 0 -0.73135370988377701 0 0.68199835119979291 forward_v I I I I #
face $-1 $154 $155 $50 $-1 $156 forward single #
loop $-1 $157 $158 $63 #
cone-surface $-1 -46.861949903913526 1.8351707375276867 3.0385031253315411 0.73135370988377701 0 -0.68199835119979291 0.17049958779994823 0 0.18283842747094425 1 I I 0 1 0.25 forward I I I I #
face $-1 $159 $160 $51 $-1 $161 forward single #
loop $-1 $162 $163 $64 #
cone-surface $-1 -46.861949903913526 4.5879268438192184 3.0385031253315411 0.73135370988377701 0 -0.68199835119979291 0.17049958779994823 0 0.18283842747094425 1 I I 0 1 0.25 forward I I I I #
face $-1 $164 $165 $39 $-1 $166 reversed single #
loop $-1 $-1 $167 $65 #
plane-surface $-1 0 0 -5.7401847339096976 0 0 1 1 0 0 forward_v I I I I #
coedge $-1 $168 $169 $170 $171 forward $66 $-1 #
face $-1 $172 $173 $40 $-1 $174 forward single #
loop $-1 $-1 $175 $68 #
plane-surface $-1 54.308170606947726 -15.623017236040107 140.7399742130805 0 -1 0 -0.73135370988377701 0 -0.68199835119979291 forward_v I I I I #
coedge $-1 $176 $177 $178 $179 reversed $69 $-1 #
face $-1 $-1 $180 $41 $-1 $181 forward single #
loop $-1 $182 $183 $71 #
cone-surface $-1 46.404853835236182 -20.210944079859328 2.6122541558316952 -0.73135370988377701 0 -0.68199835119979291 0.085249793899974113 0 -0.091419213735472127 1 I I -0.70710678118654746 0.70710678118654746 0.125 forward I I I I #
loop $-1 $-1 $184 $54 #
coedge $-1 $116 $116 $185 $186 reversed $72 $-1 #
face $-1 $-1 $187 $42 $-1 $188 forward single #
loop $-1 $189 $190 $74 #
cone-surface $-1 46.404853835236182 -17.458187973567796 2.6122541558316952 -0.73135370988377701 0 -0.68199835119979291 0.085249793899974113 0 -0.091419213735472127 1 I I -0.70710678118654746 0.70710678118654746 0.125 forward I I I I #
loop $-1 $-1 $191 $55 #
coedge $-1 $121 $121 $192 $193 reversed $75 $-1 #
face $-1 $194 $195 $43 $-1 $196 reversed single #
loop $-1 $-1 $197 $77 #
plane-surface $-1 -17.991992525237748 3.2115487906734543 73.318983000138658 0.73135370988377701 0 0.68199835119979291 0.68199835119979291 0 -0.73135370988377701 forward_v I I I I #
coedge $-1 $198 $199 $200 $201 reversed $78 $-1 #
face $-1 $-1 $202 $44 $-1 $203 forward single #
loop $-1 $204 $205 $80 #
cone-surface $-1 46.404853835236182 1.8351707375276867 2.6122541558316952 -0.73135370988377701 0 -0.68199835119979291 0.085249793899974113 0 -0.091419213735472127 1 I I -0.70710678118654746 0.70710678118654746 0.125 forward I I I I #
loop $-1 $-1 $206 $57 #
coedge $-1 $130 $130 $207 $208 reversed $81 $-1 #
face $-1 $-1 $209 $45 $-1 $210 forward single #
loop $-1 $211 $212 $83 #
cone-surface $-1 46.404853835236182 4.5879268438192184 2.6122541558316952 -0.73135370988377701 0 -0.68199835119979291 0.085249793899974113 0 -0.091419213735472127 1 I I -0.70710678118654746 0.70710678118654746 0.125 forward I I I I #
loop $-1 $-1 $213 $58 #
coedge $-1 $135 $135 $214 $215 reversed $84 $-1 #
face $-1 $216 $217 $46 $-1 $218 reversed single #
loop $-1 $-1 $219 $86 #
plane-surface $-1 -49.428998687704095 -18.83456602671356 1.0188198679531695 -0.73135370988377701 0 0.68199835119979291 0.68199835119979291 0 0.73135370988377701 forward_v I I I I #
coedge $-1 $220 $221 $222 $223 reversed $87 $-1 #
face $-1 $-1 $224 $47 $-1 $225 forward single #
loop $-1 $226 $227 $89 #
cone-surface $-1 -46.404853835236167 -20.210944079859328 2.6122541558316703 0.73135370988377701 0 -0.68199835119979291 0.085249793899974113 0 0.091419213735472127 1 I I -0.70710678118654746 0.70710678118654746 0.125 forward I I I I #
loop $-1 $-1 $228 $60 #
coedge $-1 $144 $144 $229 $230 reversed $90 $-1 #
face $-1 $-1 $231 $48 $-1 $232 forward single #
loop $-1 $233 $234 $92 #
cone-surface $-1 -46.404853835236167 -17.458187973567796 2.6122541558316703 0.73135370988377701 0 -0.68199835119979291 0.085249793899974113 0 0.091419213735472127 1 I I -0.70710678118654746 0.70710678118654746 0.125 forward I I I I #
loop $-1 $-1 $235 $61 #
coedge $-1 $149 $149 $236 $237 reversed $93 $-1 #
face $-1 $238 $239 $49 $-1 $240 reversed single #
loop $-1 $-1 $241 $95 #
plane-surface $-1 -49.428998687704095 3.2115487906734543 1.0188198679531695 -0.73135370988377701 0 0.68199835119979291 0.68199835119979291 0 0.73135370988377701 forward_v I I I I #
coedge $-1 $242 $243 $244 $245 reversed $96 $-1 #
face $-1 $-1 $246 $50 $-1 $247 forward single #
loop $-1 $248 $249 $98 #
cone-surface $-1 -46.404853835236167 1.8351707375276867 2.6122541558316703 0.73135370988377701 0 -0.68199835119979291 0.085249793899974113 0 0.091419213735472127 1 I I -0.70710678118654746 0.70710678118654746 0.125 forward I I I I #
loop $-1 $-1 $250 $63 #
coedge $-1 $158 $158 $251 $252 reversed $99 $-1 #
face $-1 $-1 $253 $51 $-1 $254 forward single #
loop $-1 $255 $256 $101 #
cone-surface $-1 -46.404853835236167 4.5879268438192184 2.6122541558316703 0.73135370988377701 0 -0.68199835119979291 0.085249793899974113 0 0.091419213735472127 1 I I -0.70710678118654746 0.70710678118654746 0.125 forward I I I I #
loop $-1 $-1 $257 $64 #
coedge $-1 $163 $163 $258 $259 reversed $102 $-1 #
face $-1 $260 $261 $39 $-1 $262 reversed single #
loop $-1 $-1 $263 $104 #
plane-surface $-1 0 -22.046114817387014 0 0 1 0 0 0 1 forward_v I I I I #
coedge $-1 $264 $265 $266 $267 forward $105 $-1 #
coedge $-1 $268 $107 $269 $270 forward $66 $-1 #
coedge $-1 $107 $268 $271 $272 forward $66 $-1 #
coedge $-1 $273 $274 $107 $171 reversed $275 $-1 #
edge $-1 $276 -22.046114817387014 $277 22.046114817387014 $170 $278 forward 7 unknown #
face $-1 $279 $280 $40 $-1 $281 reversed single #
loop $-1 $-1 $282 $108 #
plane-surface $-1 0 0 5.7401847339096976 0 0 1 1 0 0 forward_v I I I I #
coedge $-1 $283 $284 $285 $286 reversed $109 $-1 #
coedge $-1 $287 $111 $288 $289 reversed $69 $-1 #
coedge $-1 $111 $287 $283 $290 forward $69 $-1 #
coedge $-1 $285 $291 $111 $179 forward $292 $-1 #
edge $-1 $293 -12.628831804030234 $294 -6.2057342226833274 $178 $295 forward 7 unknown #
loop $-1 $-1 $185 $112 #
plane-surface $-1 -17.991992525237748 -18.83456602671356 73.318983000138658 0.73135370988377701 0 0.68199835119979291 0.68199835119979291 0 -0.73135370988377701 forward_v I I I I #
loop $-1 $-1 $296 $71 #
coedge $-1 $183 $183 $184 $297 reversed $113 $-1 #
coedge $-1 $184 $184 $183 $297 forward $115 $-1 #
coedge $-1 $185 $185 $116 $186 forward $180 $-1 #
edge $-1 $298 0 $298 6.2831853071796004 $185 $299 forward 7 unknown #
loop $-1 $-1 $192 $117 #
plane-surface $-1 -17.991992525237748 -18.83456602671356 73.318983000138658 0.73135370988377701 0 0.68199835119979291 0.68199835119979291 0 -0.73135370988377701 forward_v I I I I #
loop $-1 $-1 $300 $74 #
coedge $-1 $190 $190 $191 $301 reversed $118 $-1 #
coedge $-1 $191 $191 $190 $301 forward $120 $-1 #
coedge $-1 $192 $192 $121 $193 forward $187 $-1 #
edge $-1 $302 0 $302 6.2831853071796004 $192 $303 forward 7 unknown #
face $-1 $304 $305 $43 $-1 $306 forward single #
loop $-1 $-1 $307 $122 #
plane-surface $-1 54.308170606947726 6.4230975813469069 140.7399742130805 0 -1 0 -0.73135370988377701 0 -0.68199835119979291 forward_v I I I I #
coedge $-1 $308 $309 $310 $311 reversed $123 $-1 #
coedge $-1 $199 $125 $312 $313 reversed $78 $-1 #
coedge $-1 $125 $198 $308 $314 reversed $78 $-1 #
coedge $-1 $310 $315 $125 $201 forward $316 $-1 #
edge $-1 $317 64.62980237263055 $318 69.351167238587067 $200 $319 forward 7 unknown #
loop $-1 $-1 $207 $126 #
plane-surface $-1 -17.991992525237748 3.2115487906734543 73.318983000138658 0.73135370988377701 0 0.68199835119979291 0.68199835119979291 0 -0.73135370988377701 forward_v I I I I #
loop $-1 $-1 $320 $80 #
coedge $-1 $205 $205 $206 $321 reversed $127 $-1 #
coedge $-1 $206 $206 $205 $321 forward $129 $-1 #
coedge $-1 $207 $207 $130 $208 forward $202 $-1 #
edge $-1 $322 0 $322 6.2831853071796004 $207 $323 forward 7 unknown #
loop $-1 $-1 $214 $131 #
plane-surface $-1 -17.991992525237748 3.2115487906734543 73.318983000138658 0.73135370988377701 0 0.68199835119979291 0.68199835119979291 0 -0.73135370988377701 forward_v I I I I #
loop $-1 $-1 $324 $83 #
coedge $-1 $212 $212 $213 $325 reversed $132 $-1 #
coedge $-1 $213 $213 $212 $325 forward $134 $-1 #
coedge $-1 $214 $214 $135 $215 forward $209 $-1 #
edge $-1 $326 0 $326 6.2831853071796004 $214 $327 forward 7 unknown #
face $-1 $328 $329 $46 $-1 $330 reversed single #
loop $-1 $-1 $222 $136 #
plane-surface $-1 -49.428998687704095 0 0 1 0 0 0 0 -1 forward_v I I I I #
coedge $-1 $331 $332 $333 $334 reversed $137 $-1 #
coedge $-1 $221 $139 $335 $336 reversed $87 $-1 #
coedge $-1 $139 $220 $331 $337 reversed $87 $-1 #
coedge $-1 $333 $338 $139 $223 forward $217 $-1 #
edge $-1 $339 28.479720806537809 $340 33.201085672494337 $222 $341 forward 7 unknown #
loop $-1 $-1 $229 $140 #
plane-surface $-1 -49.428998687704095 -18.83456602671356 1.0188198679531695 -0.73135370988377701 0 0.68199835119979291 0.68199835119979291 0 0.73135370988377701 forward_v I I I I #
loop $-1 $-1 $342 $89 #
coedge $-1 $227 $227 $228 $343 reversed $141 $-1 #
coedge $-1 $228 $228 $227 $343 forward $143 $-1 #
coedge $-1 $229 $229 $144 $230 forward $224 $-1 #
edge $-1 $344 0 $344 6.2831853071796004 $229 $345 forward 7 unknown #
loop $-1 $-1 $236 $145 #
plane-surface $-1 -49.428998687704095 -18.83456602671356 1.0188198679531695 -0.73135370988377701 0 0.68199835119979291 0.68199835119979291 0 0.73135370988377701 forward_v I I I I #
loop $-1 $-1 $346 $92 #
coedge $-1 $234 $234 $235 $347 reversed $146 $-1 #
coedge $-1 $235 $235 $234 $347 forward $148 $-1 #
coedge $-1 $236 $236 $149 $237 forward $231 $-1 #
edge $-1 $348 0 $348 6.2831853071796004 $236 $349 forward 7 unknown #
face $-1 $350 $351 $49 $-1 $352 reversed single #
loop $-1 $-1 $353 $150 #
plane-surface $-1 -121.72916181988957 6.4230975813469069 68.439811080895012 0 -1 0 0.73135370988377701 0 -0.68199835119979291 forward_v I I I I #
coedge $-1 $354 $355 $356 $357 reversed $151 $-1 #
coedge $-1 $243 $153 $358 $359 reversed $96 $-1 #
coedge $-1 $153 $242 $354 $360 reversed $96 $-1 #
coedge $-1 $356 $361 $153 $245 forward $362 $-1 #
edge $-1 $363 11.43558222224069 $364 15.838326079938064 $244 $365 forward 7 unknown #
loop $-1 $-1 $251 $154 #
plane-surface $-1 -49.428998687704095 3.2115487906734543 1.0188198679531695 -0.73135370988377701 0 0.68199835119979291 0.68199835119979291 0 0.73135370988377701 forward_v I I I I #
loop $-1 $-1 $366 $98 #
coedge $-1 $249 $249 $250 $367 reversed $155 $-1 #
coedge $-1 $250 $250 $249 $367 forward $157 $-1 #
coedge $-1 $251 $251 $158 $252 forward $246 $-1 #
edge $-1 $368 0 $368 6.2831853071796004 $251 $369 forward 7 unknown #
loop $-1 $-1 $258 $159 #
plane-surface $-1 -49.428998687704095 3.2115487906734543 1.0188198679531695 -0.73135370988377701 0 0.68199835119979291 0.68199835119979291 0 0.73135370988377701 forward_v I I I I #
loop $-1 $-1 $370 $101 #
coedge $-1 $256 $256 $257 $371 reversed $160 $-1 #
coedge $-1 $257 $257 $256 $371 forward $162 $-1 #
coedge $-1 $258 $258 $163 $259 forward $253 $-1 #
edge $-1 $372 0 $372 6.2831853071796004 $258 $373 forward 7 unknown #
face $-1 $374 $375 $39 $-1 $376 reversed single #
loop $-1 $-1 $377 $164 #
plane-surface $-1 -49.428998687704095 0 0 1 0 0 0 0 -1 forward_v I I I I #
coedge $-1 $378 $271 $379 $380 forward $165 $-1 #
coedge $-1 $381 $167 $378 $382 forward $105 $-1 #
coedge $-1 $167 $381 $383 $384 forward $105 $-1 #
coedge $-1 $274 $273 $167 $267 reversed $275 $-1 #
edge $-1 $385 -22.046114817387014 $386 22.046114817387014 $266 $387 forward 7 unknown #
coedge $-1 $169 $168 $388 $389 forward $66 $-1 #
coedge $-1 $390 $391 $168 $270 reversed $375 $-1 #
edge $-1 $277 -49.428998687704095 $392 49.428998687704095 $269 $393 forward 7 unknown #
coedge $-1 $263 $394 $169 $272 reversed $165 $-1 #
edge $-1 $395 -49.428998687704095 $276 49.428998687704095 $271 $396 forward 7 unknown #
coedge $-1 $266 $170 $394 $397 forward $275 $-1 #
coedge $-1 $170 $266 $390 $398 reversed $275 $-1 #
loop $-1 $-1 $273 $374 #
vertex $-1 $171 $399 #
vertex $-1 $171 $400 #
straight-curve $-1 49.428998687704095 0 5.7401847339096976 0 1 0 I I #
face $-1 $-1 $292 $40 $-1 $401 reversed single #
loop $-1 $-1 $288 $172 #
plane-surface $-1 0 -22.046114817387014 0 0 1 0 0 0 1 forward_v I I I I #
coedge $-1 $402 $403 $284 $404 forward $173 $-1 #
coedge $-1 $284 $175 $177 $290 reversed $109 $-1 #
coedge $-1 $175 $283 $282 $404 reversed $109 $-1 #
coedge $-1 $405 $178 $175 $286 forward $292 $-1 #
edge $-1 $294 -69.351167238587067 $406 -64.62980237263055 $285 $407 forward 7 unknown #
coedge $-1 $177 $176 $402 $408 reversed $69 $-1 #
coedge $-1 $409 $410 $176 $289 forward $280 $-1 #
edge $-1 $411 59.456035883737293 $293 65.91168764587411 $288 $412 forward 7 unknown #
edge $-1 $413 92.402345613271365 $294 98.857997375408189 $283 $414 forward 7 unknown #
coedge $-1 $178 $405 $409 $415 forward $292 $-1 #
loop $-1 $-1 $285 $279 #
vertex $-1 $289 $416 #
vertex $-1 $179 $417 #
straight-curve $-1 49.428998687704087 -9.41728301335678 1.0188198679531837 0 1 0 I I #
coedge $-1 $296 $296 $-1 $418 reversed $182 $-1 #
edge $-1 $419 0 $419 6.2831853071796004 $183 $420 forward 7 unknown #
vertex $-1 $186 $421 #
ellipse-curve $-1 47.227626758855415 -20.210944079859328 3.3795023009314478 0.73135370988377701 0 0.68199835119979291 0.17049958779994823 0 -0.18283842747094425 1 I I #
coedge $-1 $300 $300 $-1 $422 reversed $189 $-1 #
edge $-1 $423 0 $423 6.2831853071796004 $190 $424 forward 7 unknown #
vertex $-1 $193 $425 #
ellipse-curve $-1 47.227626758855415 -17.458187973567796 3.3795023009314478 0.73135370988377701 0 0.68199835119979291 0.17049958779994823 0 -0.18283842747094425 1 I I #
face $-1 $-1 $316 $43 $-1 $426 reversed single #
loop $-1 $-1 $427 $194 #
plane-surface $-1 0 0 5.7401847339096976 0 0 1 1 0 0 forward_v I I I I #
coedge $-1 $428 $429 $430 $431 reversed $195 $-1 #
coedge $-1 $432 $197 $199 $314 forward $123 $-1 #
coedge $-1 $197 $432 $428 $433 forward $123 $-1 #
coedge $-1 $430 $200 $197 $311 forward $316 $-1 #
edge $-1 $318 -1.6057743953367258 $434 4.8173231860101797 $310 $435 forward 7 unknown #
coedge $-1 $436 $437 $198 $313 forward $305 $-1 #
edge $-1 $438 17.872169526532879 $317 22.274913384230231 $312 $439 forward 7 unknown #
edge $-1 $318 -98.857997375408189 $438 -92.402345613271365 $199 $440 forward 7 unknown #
coedge $-1 $200 $430 $436 $441 reversed $316 $-1 #
loop $-1 $-1 $430 $304 #
vertex $-1 $441 $442 #
vertex $-1 $201 $443 #
straight-curve $-1 49.428998687704095 1.3322676295501878e-015 70.36998710654025 0 0 -1 I I #
coedge $-1 $320 $320 $-1 $444 reversed $204 $-1 #
edge $-1 $445 0 $445 6.2831853071796004 $205 $446 forward 7 unknown #
vertex $-1 $208 $447 #
ellipse-curve $-1 47.227626758855415 1.8351707375276867 3.3795023009314478 0.73135370988377701 0 0.68199835119979291 0.17049958779994823 0 -0.18283842747094425 1 I I #
coedge $-1 $324 $324 $-1 $448 reversed $211 $-1 #
edge $-1 $449 0 $449 6.2831853071796004 $212 $450 forward 7 unknown #
vertex $-1 $215 $451 #
ellipse-curve $-1 47.227626758855415 4.5879268438192184 3.3795023009314478 0.73135370988377701 0 0.68199835119979291 0.17049958779994823 0 -0.18283842747094425 1 I I #
face $-1 $-1 $452 $46 $-1 $453 forward single #
loop $-1 $-1 $454 $216 #
plane-surface $-1 0 -22.046114817387014 0 0 1 0 0 0 1 forward_v I I I I #
coedge $-1 $455 $219 $221 $337 forward $137 $-1 #
coedge $-1 $219 $455 $454 $456 reversed $137 $-1 #
coedge $-1 $457 $222 $219 $334 forward $217 $-1 #
edge $-1 $340 6.2057342226833274 $458 12.628831804030234 $333 $459 forward 7 unknown #
coedge $-1 $460 $461 $220 $336 forward $452 $-1 #
edge $-1 $462 -15.838326079938064 $339 -11.43558222224069 $335 $463 forward 7 unknown #
edge $-1 $340 0 $462 6.4556517621368528 $221 $464 forward 7 unknown #
coedge $-1 $222 $457 $460 $465 reversed $217 $-1 #
vertex $-1 $465 $466 #
vertex $-1 $223 $467 #
straight-curve $-1 -49.428998687704095 -15.623017236040107 34.219905540447506 0 0 -1 I I #
coedge $-1 $342 $342 $-1 $468 reversed $226 $-1 #
edge $-1 $469 0 $469 6.2831853071796004 $227 $470 forward 7 unknown #
vertex $-1 $230 $471 #
ellipse-curve $-1 -47.227626758855408 -20.210944079859328 3.3795023009314331 -0.73135370988377701 0 0.68199835119979291 0.17049958779994823 0 0.18283842747094425 1 I I #
coedge $-1 $346 $346 $-1 $472 reversed $233 $-1 #
edge $-1 $473 0 $473 6.2831853071796004 $234 $474 forward 7 unknown #
vertex $-1 $237 $475 #
ellipse-curve $-1 -47.227626758855408 -17.458187973567796 3.3795023009314331 -0.73135370988377701 0 0.68199835119979291 0.17049958779994823 0 0.18283842747094425 1 I I #
face $-1 $-1 $362 $49 $-1 $476 forward single #
loop $-1 $-1 $477 $238 #
plane-surface $-1 -49.428998687704095 0 0 1 0 0 0 0 -1 forward_v I I I I #
coedge $-1 $478 $479 $480 $481 reversed $239 $-1 #
coedge $-1 $482 $241 $243 $360 forward $151 $-1 #
coedge $-1 $241 $482 $478 $483 forward $151 $-1 #
coedge $-1 $480 $244 $241 $357 forward $362 $-1 #
edge $-1 $364 -1.6057743953367258 $484 4.8173231860101797 $356 $485 forward 7 unknown #
coedge $-1 $486 $487 $242 $359 forward $351 $-1 #
edge $-1 $488 -33.201085672494337 $363 -28.479720806537809 $358 $489 forward 7 unknown #
edge $-1 $364 -6.4556517621368528 $488 0 $243 $490 forward 7 unknown #
coedge $-1 $244 $480 $486 $491 forward $362 $-1 #
loop $-1 $-1 $480 $350 #
vertex $-1 $359 $492 #
vertex $-1 $245 $493 #
straight-curve $-1 -60.864580909944785 1.3322676295501878e-015 5.7401847339096967 1 0 0 I I #
coedge $-1 $366 $366 $-1 $494 reversed $248 $-1 #
edge $-1 $495 0 $495 6.2831853071796004 $249 $496 forward 7 unknown #
vertex $-1 $252 $497 #
ellipse-curve $-1 -47.227626758855408 1.8351707375276867 3.3795023009314331 -0.73135370988377701 0 0.68199835119979291 0.17049958779994823 0 0.18283842747094425 1 I I #
coedge $-1 $370 $370 $-1 $498 reversed $255 $-1 #
edge $-1 $499 0 $499 6.2831853071796004 $256 $500 forward 7 unknown #
vertex $-1 $259 $501 #
ellipse-curve $-1 -47.227626758855408 4.5879268438192184 3.3795023009314331 -0.73135370988377701 0 0.68199835119979291 0.17049958779994823 0 0.18283842747094425 1 I I #
face $-1 $-1 $275 $39 $-1 $502 reversed single #
loop $-1 $-1 $390 $260 #
plane-surface $-1 0 22.046114817387014 0 0 -1 0 0 0 -1 forward_v I I I I #
coedge $-1 $503 $388 $391 $504 forward $261 $-1 #
coedge $-1 $394 $263 $264 $382 reversed $165 $-1 #
coedge $-1 $388 $503 $263 $380 reversed $261 $-1 #
edge $-1 $395 -5.7401847339096976 $505 5.7401847339096976 $379 $506 forward 7 unknown #
coedge $-1 $265 $264 $503 $507 forward $105 $-1 #
edge $-1 $386 -49.428998687704095 $505 49.428998687704095 $378 $508 forward 7 unknown #
coedge $-1 $391 $390 $265 $384 reversed $375 $-1 #
edge $-1 $509 -49.428998687704095 $385 49.428998687704095 $383 $510 forward 7 unknown #
vertex $-1 $267 $511 #
vertex $-1 $397 $512 #
straight-curve $-1 49.428998687704095 0 -5.7401847339096976 0 -1 0 I I #
coedge $-1 $377 $379 $268 $389 reversed $261 $-1 #
edge $-1 $392 -22.046114817387014 $395 22.046114817387014 $388 $513 forward 7 unknown #
coedge $-1 $383 $269 $274 $398 forward $375 $-1 #
coedge $-1 $269 $383 $377 $504 reversed $375 $-1 #
vertex $-1 $270 $514 #
straight-curve $-1 0 22.046114817387014 5.7401847339096976 -1 0 0 I I #
coedge $-1 $271 $378 $273 $397 reversed $165 $-1 #
vertex $-1 $389 $515 #
straight-curve $-1 0 -22.046114817387014 5.7401847339096976 1 0 0 I I #
edge $-1 $276 -5.7401847339096976 $386 5.7401847339096976 $273 $516 forward 7 unknown #
edge $-1 $277 -5.7401847339096976 $385 5.7401847339096976 $274 $517 forward 7 unknown #
point $-1 49.428998687704095 -22.046114817387014 5.7401847339096976 #
point $-1 49.428998687704095 22.046114817387014 5.7401847339096976 #
plane-surface $-1 49.428998687704095 0 0 -1 0 0 0 0 1 forward_v I I I I #
coedge $-1 $518 $282 $287 $408 forward $173 $-1 #
coedge $-1 $282 $518 $405 $519 forward $173 $-1 #
edge $-1 $406 -22.274913384230231 $413 -17.872169526532879 $282 $520 forward 7 unknown #
coedge $-1 $291 $285 $403 $519 reversed $292 $-1 #
vertex $-1 $286 $521 #
straight-curve $-1 49.428998687704095 -15.623017236040107 70.36998710654025 0 0 1 I I #
edge $-1 $413 6.2057342226833274 $411 12.628831804030234 $402 $522 forward 7 unknown #
coedge $-1 $410 $288 $291 $415 reversed $280 $-1 #
coedge $-1 $288 $409 $518 $523 reversed $280 $-1 #
vertex $-1 $523 $524 #
straight-curve $-1 4.4773363884221808 -22.046114817387014 49.223577152463939 0.68199835119979291 0 -0.73135370988377701 I I #
vertex $-1 $408 $525 #
straight-curve $-1 -17.991992525237748 -15.623017236040107 73.318983000138658 0.68199835119979291 0 -0.73135370988377701 I I #
edge $-1 $526 -5.7401847339096976 $293 -1.0188198679531872 $291 $527 forward 7 unknown #
point $-1 49.428998687704095 -22.046114817387014 1.0188198679531872 #
point $-1 49.428998687704095 -15.623017236040107 1.0188198679531837 #
edge $-1 $528 1 $528 0 $296 $-1 forward 7 unknown #
vertex $-1 $297 $529 #
ellipse-curve $-1 46.496273048971652 -20.210944079859328 2.6975039497316695 0.73135370988377701 0 0.68199835119979291 0.17049958779994823 0 -0.18283842747094425 1 I I #
point $-1 47.398126346655381 -20.210944079859328 3.1966638734605182 #
edge $-1 $530 1 $530 0 $300 $-1 forward 7 unknown #
vertex $-1 $301 $531 #
ellipse-curve $-1 46.496273048971652 -17.458187973567796 2.6975039497316695 0.73135370988377701 0 0.68199835119979291 0.17049958779994823 0 -0.18283842747094425 1 I I #
point $-1 47.398126346655381 -17.458187973567796 3.1966638734605182 #
plane-surface $-1 49.428998687704095 0 0 -1 0 0 0 0 1 forward_v I I I I #
coedge $-1 $437 $436 $429 $532 forward $305 $-1 #
coedge $-1 $429 $307 $309 $433 reversed $195 $-1 #
coedge $-1 $307 $428 $427 $532 reversed $195 $-1 #
coedge $-1 $315 $310 $307 $431 forward $316 $-1 #
edge $-1 $434 -69.351167238587067 $533 -64.62980237263055 $430 $534 forward 7 unknown #
coedge $-1 $309 $308 $437 $535 reversed $123 $-1 #
edge $-1 $536 92.402345613271365 $434 98.857997375408189 $428 $537 forward 7 unknown #
vertex $-1 $311 $538 #
straight-curve $-1 49.428998687704087 1.6057743953367272 1.0188198679531837 0 1 0 I I #
coedge $-1 $427 $312 $315 $441 forward $305 $-1 #
coedge $-1 $312 $427 $432 $535 forward $305 $-1 #
vertex $-1 $313 $539 #
straight-curve $-1 27.154085303473863 1.3322676295501878e-015 5.7401847339097003 1 0 0 I I #
straight-curve $-1 -17.991992525237748 1.3322676295501878e-015 73.318983000138658 -0.68199835119979291 0 0.73135370988377701 I I #
edge $-1 $317 1.3322676295501878e-015 $533 6.4230975813469069 $315 $540 forward 7 unknown #
point $-1 49.428998687704095 1.3322676295501878e-015 5.7401847339096976 #
point $-1 49.428998687704095 1.3322676295501878e-015 1.0188198679531837 #
edge $-1 $541 1 $541 0 $320 $-1 forward 7 unknown #
vertex $-1 $321 $542 #
ellipse-curve $-1 46.496273048971652 1.8351707375276867 2.6975039497316695 0.73135370988377701 0 0.68199835119979291 0.17049958779994823 0 -0.18283842747094425 1 I I #
point $-1 47.398126346655381 1.8351707375276867 3.1966638734605182 #
edge $-1 $543 1 $543 0 $324 $-1 forward 7 unknown #
vertex $-1 $325 $544 #
ellipse-curve $-1 46.496273048971652 4.5879268438192184 2.6975039497316695 0.73135370988377701 0 0.68199835119979291 0.17049958779994823 0 -0.18283842747094425 1 I I #
point $-1 47.398126346655381 4.5879268438192184 3.1966638734605182 #
loop $-1 $-1 $335 $328 #
plane-surface $-1 0 0 5.7401847339096976 0 0 1 1 0 0 forward_v I I I I #
coedge $-1 $545 $546 $332 $456 forward $329 $-1 #
coedge $-1 $332 $331 $461 $547 reversed $137 $-1 #
edge $-1 $458 -16.482688958170037 $548 -10.027037196033188 $454 $549 forward 7 unknown #
coedge $-1 $338 $333 $546 $550 reversed $217 $-1 #
vertex $-1 $456 $551 #
straight-curve $-1 -49.428998687704095 -9.41728301335678 1.0188198679531717 0 -1 0 I I #
coedge $-1 $552 $335 $338 $465 forward $452 $-1 #
coedge $-1 $335 $552 $455 $547 forward $452 $-1 #
vertex $-1 $336 $553 #
straight-curve $-1 -60.864580909944785 -15.623017236040107 5.7401847339096967 -1 0 0 I I #
straight-curve $-1 -49.428998687704095 -15.623017236040107 1.0188198679531695 0.68199835119979291 0 0.73135370988377701 I I #
edge $-1 $339 15.623017236040107 $554 22.046114817387014 $338 $555 forward 7 unknown #
point $-1 -49.428998687704095 -15.623017236040107 5.7401847339096976 #
point $-1 -49.428998687704095 -15.623017236040107 1.0188198679531695 #
edge $-1 $556 1 $556 0 $342 $-1 forward 7 unknown #
vertex $-1 $343 $557 #
ellipse-curve $-1 -46.496273048971638 -20.210944079859328 2.6975039497316446 -0.73135370988377701 0 0.68199835119979291 0.17049958779994823 0 0.18283842747094425 1 I I #
point $-1 -47.05712717105547 -20.210944079859328 3.5623407284023818 #
edge $-1 $558 1 $558 0 $346 $-1 forward 7 unknown #
vertex $-1 $347 $559 #
ellipse-curve $-1 -46.496273048971638 -17.458187973567796 2.6975039497316446 -0.73135370988377701 0 0.68199835119979291 0.17049958779994823 0 0.18283842747094425 1 I I #
point $-1 -47.05712717105547 -17.458187973567796 3.5623407284023818 #
plane-surface $-1 0 0 5.7401847339096976 0 0 1 1 0 0 forward_v I I I I #
coedge $-1 $487 $486 $479 $560 forward $351 $-1 #
coedge $-1 $479 $353 $355 $483 reversed $239 $-1 #
coedge $-1 $353 $478 $477 $560 reversed $239 $-1 #
coedge $-1 $361 $356 $353 $481 forward $362 $-1 #
edge $-1 $484 -15.838326079938064 $561 -11.43558222224069 $480 $562 forward 7 unknown #
coedge $-1 $355 $354 $487 $563 reversed $151 $-1 #
edge $-1 $564 0 $484 6.4556517621368528 $478 $565 forward 7 unknown #
vertex $-1 $357 $566 #
straight-curve $-1 -45.026254830006728 1.6057743953367272 5.7401847339096985 0 1 0 I I #
coedge $-1 $477 $358 $361 $491 reversed $351 $-1 #
coedge $-1 $358 $477 $482 $563 forward $351 $-1 #
vertex $-1 $359 $567 #
straight-curve $-1 -49.428998687704095 1.3322676295501878e-015 34.219905540447506 0 0 1 I I #
straight-curve $-1 -49.428998687704095 1.3322676295501878e-015 1.0188198679531695 -0.68199835119979291 0 -0.73135370988377701 I I #
edge $-1 $561 -6.4230975813469069 $363 -1.3322676295501878e-015 $486 $568 forward 7 unknown #
point $-1 -49.428998687704095 1.3322676295501878e-015 5.7401847339096976 #
point $-1 -45.026254830006721 1.3322676295501878e-015 5.7401847339096976 #
edge $-1 $569 1 $569 0 $366 $-1 forward 7 unknown #
vertex $-1 $367 $570 #
ellipse-curve $-1 -46.496273048971638 1.8351707375276867 2.6975039497316446 -0.73135370988377701 0 0.68199835119979291 0.17049958779994823 0 0.18283842747094425 1 I I #
point $-1 -47.05712717105547 1.8351707375276867 3.5623407284023818 #
edge $-1 $571 1 $571 0 $370 $-1 forward 7 unknown #
vertex $-1 $371 $572 #
ellipse-curve $-1 -46.496273048971638 4.5879268438192184 2.6975039497316446 -0.73135370988377701 0 0.68199835119979291 0.17049958779994823 0 0.18283842747094425 1 I I #
point $-1 -47.05712717105547 4.5879268438192184 3.5623407284023818 #
plane-surface $-1 49.428998687704095 0 0 -1 0 0 0 0 1 forward_v I I I I #
coedge $-1 $379 $377 $381 $507 reversed $261 $-1 #
edge $-1 $392 -5.7401847339096976 $509 5.7401847339096976 $391 $573 forward 7 unknown #
vertex $-1 $507 $574 #
straight-curve $-1 -49.428998687704095 -22.046114817387014 0 0 0 -1 I I #
edge $-1 $505 -22.046114817387014 $509 22.046114817387014 $503 $575 forward 7 unknown #
straight-curve $-1 0 -22.046114817387014 -5.7401847339096976 -1 0 0 I I #
vertex $-1 $384 $576 #
straight-curve $-1 0 22.046114817387014 -5.7401847339096976 1 0 0 I I #
point $-1 49.428998687704095 22.046114817387014 -5.7401847339096976 #
point $-1 49.428998687704095 -22.046114817387014 -5.7401847339096976 #
straight-curve $-1 -49.428998687704095 0 5.7401847339096976 0 -1 0 I I #
point $-1 -49.428998687704095 22.046114817387014 5.7401847339096976 #
point $-1 -49.428998687704095 -22.046114817387014 5.7401847339096976 #
straight-curve $-1 49.428998687704095 -22.046114817387014 0 0 0 -1 I I #
straight-curve $-1 49.428998687704095 22.046114817387014 0 0 0 -1 I I #
coedge $-1 $403 $402 $410 $523 forward $173 $-1 #
edge $-1 $526 -22.046114817387014 $406 -15.623017236040107 $405 $577 forward 7 unknown #
straight-curve $-1 27.154085303473863 -15.623017236040107 5.7401847339097003 -1 0 0 I I #
point $-1 49.428998687704095 -15.623017236040107 5.7401847339096976 #
straight-curve $-1 45.026254830006735 -9.41728301335678 5.7401847339097003 0 -1 0 I I #
edge $-1 $411 45.026254830006742 $526 49.428998687704095 $410 $578 forward 7 unknown #
point $-1 45.026254830006742 -22.046114817387014 5.7401847339097003 #
point $-1 45.026254830006742 -15.623017236040107 5.7401847339097003 #
vertex $-1 $519 $579 #
straight-curve $-1 49.428998687704095 -22.046114817387014 0 0 0 -1 I I #
vertex $-1 $418 $580 #
point $-1 46.666772636771604 -20.210944079859328 2.5146655222607253 #
vertex $-1 $422 $581 #
point $-1 46.666772636771604 -17.458187973567796 2.5146655222607253 #
edge $-1 $533 -22.274913384230231 $536 -17.872169526532879 $427 $582 forward 7 unknown #
vertex $-1 $431 $583 #
straight-curve $-1 49.428998687704095 6.4230975813469069 70.36998710654025 0 0 1 I I #
edge $-1 $536 -4.8173231860101797 $438 1.6057743953367258 $437 $584 forward 7 unknown #
vertex $-1 $535 $585 #
straight-curve $-1 -17.991992525237748 6.4230975813469069 73.318983000138658 0.68199835119979291 0 -0.73135370988377701 I I #
point $-1 49.428998687704095 6.4230975813469069 1.0188198679531837 #
point $-1 45.026254830006742 1.3322676295501878e-015 5.7401847339097003 #
straight-curve $-1 49.428998687704095 0 5.7401847339096976 0 1 0 I I #
vertex $-1 $444 $586 #
point $-1 46.666772636771604 1.8351707375276867 2.5146655222607253 #
vertex $-1 $448 $587 #
point $-1 46.666772636771604 4.5879268438192184 2.5146655222607253 #
coedge $-1 $546 $454 $552 $588 reversed $329 $-1 #
coedge $-1 $454 $545 $457 $550 forward $329 $-1 #
edge $-1 $548 -12.628831804030234 $462 -6.2057342226833274 $461 $589 forward 7 unknown #
vertex $-1 $547 $590 #
straight-curve $-1 -38.187831994893095 -22.046114817387014 13.073495586371191 0.68199835119979291 0 0.73135370988377701 I I #
edge $-1 $554 -5.7401847339096976 $458 -1.0188198679531695 $457 $591 forward 7 unknown #
point $-1 -49.428998687704095 -22.046114817387014 1.0188198679531695 #
coedge $-1 $461 $460 $545 $588 forward $452 $-1 #
point $-1 -45.026254830006721 -15.623017236040107 5.7401847339096976 #
vertex $-1 $465 $592 #
straight-curve $-1 -49.428998687704095 0 5.7401847339096976 0 -1 0 I I #
vertex $-1 $468 $593 #
point $-1 -46.325773461171693 -20.210944079859328 2.8803423772025889 #
vertex $-1 $472 $594 #
point $-1 -46.325773461171693 -17.458187973567796 2.8803423772025889 #
edge $-1 $561 28.479720806537809 $564 33.201085672494337 $477 $595 forward 7 unknown #
vertex $-1 $491 $596 #
straight-curve $-1 -60.864580909944785 6.4230975813469069 5.7401847339096967 -1 0 0 I I #
edge $-1 $564 -4.8173231860101797 $488 1.6057743953367258 $487 $597 forward 7 unknown #
vertex $-1 $563 $598 #
straight-curve $-1 -49.428998687704095 6.4230975813469069 1.0188198679531695 0.68199835119979291 0 0.73135370988377701 I I #
point $-1 -45.026254830006721 6.4230975813469069 5.7401847339096976 #
point $-1 -49.428998687704095 1.3322676295501878e-015 1.0188198679531695 #
straight-curve $-1 -49.428998687704095 0 5.7401847339096976 0 -1 0 I I #
vertex $-1 $494 $599 #
point $-1 -46.325773461171693 1.8351707375276867 2.8803423772025889 #
vertex $-1 $498 $600 #
point $-1 -46.325773461171693 4.5879268438192184 2.8803423772025889 #
straight-curve $-1 -49.428998687704095 22.046114817387014 0 0 0 -1 I I #
point $-1 -49.428998687704095 -22.046114817387014 -5.7401847339096976 #
straight-curve $-1 -49.428998687704095 0 -5.7401847339096976 0 1 0 I I #
point $-1 -49.428998687704095 22.046114817387014 -5.7401847339096976 #
straight-curve $-1 49.428998687704095 0 5.7401847339096976 0 1 0 I I #
straight-curve $-1 0 -22.046114817387014 5.7401847339096976 1 0 0 I I #
point $-1 49.428998687704095 -22.046114817387014 5.7401847339096976 #
point $-1 46.313434621500711 -20.210944079859328 2.5270043619317208 #
point $-1 46.313434621500711 -17.458187973567796 2.5270043619317208 #
straight-curve $-1 27.154085303473863 6.4230975813469069 5.7401847339097003 -1 0 0 I I #
point $-1 49.428998687704095 6.4230975813469069 5.7401847339096976 #
straight-curve $-1 45.026254830006735 1.6057743953367272 5.7401847339097003 0 -1 0 I I #
point $-1 45.026254830006742 6.4230975813469069 5.7401847339097003 #
point $-1 46.313434621500711 1.8351707375276867 2.5270043619317208 #
point $-1 46.313434621500711 4.5879268438192184 2.5270043619317208 #
edge $-1 $554 -49.428998687704095 $548 -45.026254830006728 $545 $601 forward 7 unknown #
straight-curve $-1 -45.026254830006728 -9.41728301335678 5.7401847339096985 0 1 0 I I #
point $-1 -45.026254830006728 -22.046114817387014 5.7401847339096976 #
straight-curve $-1 -49.428998687704095 -22.046114817387014 0 0 0 -1 I I #
point $-1 -49.428998687704095 -22.046114817387014 5.7401847339096976 #
point $-1 -46.313434621500697 -20.210944079859328 2.527004361931696 #
point $-1 -46.313434621500697 -17.458187973567796 2.527004361931696 #
straight-curve $-1 -49.428998687704095 6.4230975813469069 34.219905540447506 0 0 -1 I I #
point $-1 -49.428998687704095 6.4230975813469069 5.7401847339096976 #
straight-curve $-1 -49.428998687704095 1.6057743953367272 1.0188198679531717 0 -1 0 I I #
point $-1 -49.428998687704095 6.4230975813469069 1.0188198679531695 #
point $-1 -46.313434621500697 1.8351707375276867 2.527004361931696 #
point $-1 -46.313434621500697 4.5879268438192184 2.527004361931696 #
straight-curve $-1 0 -22.046114817387014 5.7401847339096976 1 0 0 I I #
End-of-ACIS-data 