500 0 11 0           
7 Unknown 11 ACIS 5.0 NT 24 Thu Mar 25 21:10:21 1999 
-1 9.9999999999999995e-007 1e-010 
body $-1 $11 $-1 $12 #
body $-1 $13 $-1 $14 #
body $-1 $15 $-1 $16 #
body $-1 $17 $-1 $18 #
body $-1 $19 $-1 $20 #
body $-1 $21 $-1 $22 #
body $-1 $23 $-1 $24 #
body $-1 $25 $-1 $26 #
body $-1 $27 $-1 $28 #
body $-1 $29 $-1 $30 #
body $-1 $31 $-1 $32 #
lump $-1 $-1 $33 $0 #
transform $-1 1 0 0 0 1 0 0 0 1 55.994140446180609 31.534234788340378 8.9560806844463414 1 rotate no_reflect no_shear #
lump $-1 $-1 $34 $1 #
transform $-1 1 0 0 0 1 0 0 0 1 55.994140446180609 31.534234788340378 8.9560806844463414 1 rotate no_reflect no_shear #
lump $-1 $-1 $35 $2 #
transform $-1 1 0 0 0 1 0 0 0 1 55.994140446180609 31.534234788340378 8.9560806844463414 1 rotate no_reflect no_shear #
lump $-1 $-1 $36 $3 #
transform $-1 1 0 0 0 1 0 0 0 1 55.994140446180609 31.534234788340378 8.9560806844463414 1 rotate no_reflect no_shear #
lump $-1 $-1 $37 $4 #
transform $-1 1 0 0 0 1 0 0 0 1 55.994140446180609 31.534234788340378 8.9560806844463414 1 rotate no_reflect no_shear #
lump $-1 $-1 $38 $5 #
transform $-1 1 0 0 0 1 0 0 0 1 55.994140446180609 31.534234788340378 8.9560806844463414 1 rotate no_reflect no_shear #
lump $-1 $-1 $39 $6 #
transform $-1 1 0 0 0 1 0 0 0 1 55.994140446180609 31.534234788340378 8.9560806844463414 1 rotate no_reflect no_shear #
lump $-1 $-1 $40 $7 #
transform $-1 1 0 0 0 1 0 0 0 1 55.994140446180609 31.534234788340378 8.9560806844463414 1 rotate no_reflect no_shear #
lump $-1 $-1 $41 $8 #
transform $-1 1 0 0 0 1 0 0 0 1 55.994140446180609 31.534234788340378 8.9560806844463414 1 rotate no_reflect no_shear #
lump $-1 $-1 $42 $9 #
transform $-1 1 0 0 0 1 0 0 0 1 55.994140446180609 31.534234788340378 8.9560806844463414 1 rotate no_reflect no_shear #
lump $-1 $-1 $43 $10 #
transform $-1 1 0 0 0 1 0 0 0 1 55.994140446180609 31.534234788340378 8.9560806844463414 1 rotate no_reflect no_shear #
shell $-1 $-1 $-1 $44 $-1 $11 #
shell $-1 $-1 $-1 $45 $-1 $13 #
shell $-1 $-1 $-1 $46 $-1 $15 #
shell $-1 $-1 $-1 $47 $-1 $17 #
shell $-1 $-1 $-1 $48 $-1 $19 #
shell $-1 $-1 $-1 $49 $-1 $21 #
shell $-1 $-1 $-1 $50 $-1 $23 #
shell $-1 $-1 $-1 $51 $-1 $25 #
shell $-1 $-1 $-1 $52 $-1 $27 #
shell $-1 $-1 $-1 $53 $-1 $29 #
shell $-1 $-1 $-1 $54 $-1 $31 #
face $-1 $55 $56 $33 $-1 $57 forward single #
face $-1 $58 $59 $34 $-1 $60 forward single #
face $-1 $61 $62 $35 $-1 $63 forward single #
face $-1 $64 $65 $36 $-1 $66 reversed single #
face $-1 $67 $68 $37 $-1 $69 forward single #
face $-1 $70 $71 $38 $-1 $72 forward single #
face $-1 $73 $74 $39 $-1 $75 forward single #
face $-1 $76 $77 $40 $-1 $78 reversed single #
face $-1 $79 $80 $41 $-1 $81 forward single #
face $-1 $82 $83 $42 $-1 $84 forward single #
face $-1 $85 $86 $43 $-1 $87 forward single #
face $-1 $88 $89 $33 $-1 $90 reversed single #
loop $-1 $-1 $91 $44 #
plane-surface $-1 0 0 8.9560806844463414 0 0 1 1 0 0 forward_v I I I I #
face $-1 $92 $93 $34 $-1 $94 reversed single #
loop $-1 $-1 $95 $45 #
plane-surface $-1 -50.59337533991345 0 -4.79053422468197 0 0 1 1 0 0 forward_v I I I I #
face $-1 $96 $97 $35 $-1 $98 reversed single #
loop $-1 $-1 $99 $46 #
plane-surface $-1 55.994140446180609 0 0 -1 0 0 0 0 1 forward_v I I I I #
face $-1 $100 $101 $36 $-1 $102 reversed single #
loop $-1 $-1 $103 $47 #
plane-surface $-1 -7.9678198696235221 41.871156935683864 128.44911721021046 1 0 0 0 -0.55919291073839883 -0.82903756765294845 forward_v I I I I #
face $-1 $104 $105 $37 $-1 $106 forward single #
loop $-1 $107 $108 $48 #
cone-surface $-1 -6.1016785763418113 24.8671012069242 4.2331136259826341 0 -0.55919291073839883 -0.82903756765294845 0.5 0 0 1 I I 0 1 0.5 forward I I I I #
face $-1 $109 $110 $38 $-1 $111 forward single #
loop $-1 $112 $113 $49 #
cone-surface $-1 -3.302466636419247 24.8671012069242 4.2331136259826341 0 -0.55919291073839883 -0.82903756765294845 0.5 0 0 1 I I 0 1 0.5 forward I I I I #
face $-1 $114 $115 $39 $-1 $116 forward single #
loop $-1 $117 $118 $50 #
cone-surface $-1 -0.50325469649668264 24.8671012069242 4.2331136259826341 0 -0.55919291073839883 -0.82903756765294845 0.5 0 0 1 I I 0 1 0.5 forward I I I I #
face $-1 $119 $120 $40 $-1 $121 reversed single #
loop $-1 $-1 $122 $51 #
plane-surface $-1 -3.3024666364192541 -20.751895825105017 35.606625213572158 0 0.55919291073839883 0.82903756765294845 1 0 0 forward_v I I I I #
face $-1 $123 $124 $41 $-1 $125 forward single #
loop $-1 $126 $127 $52 #
cone-surface $-1 3.2290278900667175 24.8671012069242 4.2331136259826341 0 -0.55919291073839883 -0.82903756765294845 0.5 0 0 1 I I 0 1 0.5 forward I I I I #
face $-1 $128 $129 $42 $-1 $130 forward single #
loop $-1 $131 $132 $53 #
cone-surface $-1 6.0282398299892819 24.8671012069242 4.2331136259826341 0 -0.55919291073839883 -0.82903756765294845 0.5 0 0 1 I I 0 1 0.5 forward I I I I #
face $-1 $133 $134 $43 $-1 $135 forward single #
loop $-1 $136 $137 $54 #
cone-surface $-1 8.8274517699118462 24.8671012069242 4.2331136259826341 0 -0.55919291073839883 -0.82903756765294845 0.5 0 0 1 I I 0 1 0.5 forward I I I I #
face $-1 $138 $139 $33 $-1 $140 reversed single #
loop $-1 $-1 $141 $55 #
plane-surface $-1 0 0 -8.9560806844463414 0 0 1 1 0 0 forward_v I I I I #
coedge $-1 $142 $143 $144 $145 forward $56 $-1 #
face $-1 $146 $147 $34 $-1 $148 reversed single #
loop $-1 $-1 $149 $58 #
plane-surface $-1 -45.192610233646292 0 -6.8733074545641557 -1 0 0 0 0 1 forward_v I I I I #
coedge $-1 $150 $151 $152 $153 forward $59 $-1 #
face $-1 $154 $155 $35 $-1 $156 forward single #
loop $-1 $-1 $157 $61 #
plane-surface $-1 0 31.534234788340378 0 0 -1 0 0 0 -1 forward_v I I I I #
coedge $-1 $158 $159 $160 $161 forward $62 $-1 #
face $-1 $162 $163 $36 $-1 $164 reversed single #
loop $-1 $-1 $165 $64 #
plane-surface $-1 -3.3024666364192541 -20.751895825105017 35.606625213572158 0 0.55919291073839883 0.82903756765294845 1 0 0 forward_v I I I I #
coedge $-1 $166 $167 $168 $169 reversed $65 $-1 #
face $-1 $-1 $170 $37 $-1 $171 forward single #
loop $-1 $172 $173 $67 #
cone-surface $-1 -6.1016785763418113 24.447706523870401 3.6113354502429225 0 -0.55919291073839883 -0.82903756765294845 0.25 0 0 1 I I -0.70710678118654746 0.70710678118654746 0.25 forward I I I I #
loop $-1 $-1 $174 $48 #
coedge $-1 $108 $108 $175 $176 reversed $68 $-1 #
face $-1 $-1 $177 $38 $-1 $178 forward single #
loop $-1 $179 $180 $70 #
cone-surface $-1 -3.302466636419247 24.447706523870401 3.6113354502429225 0 -0.55919291073839883 -0.82903756765294845 0.25 0 0 1 I I -0.70710678118654746 0.70710678118654746 0.25 forward I I I I #
loop $-1 $-1 $181 $49 #
coedge $-1 $113 $113 $182 $183 reversed $71 $-1 #
face $-1 $-1 $184 $39 $-1 $185 forward single #
loop $-1 $186 $187 $73 #
cone-surface $-1 -0.50325469649668264 24.447706523870401 3.6113354502429225 0 -0.55919291073839883 -0.82903756765294845 0.25 0 0 1 I I -0.70710678118654746 0.70710678118654746 0.25 forward I I I I #
loop $-1 $-1 $188 $50 #
coedge $-1 $118 $118 $189 $190 reversed $74 $-1 #
face $-1 $191 $192 $40 $-1 $193 forward single #
loop $-1 $-1 $194 $76 #
plane-surface $-1 10.693593063193543 41.871156935683864 128.44911721021046 -1 0 0 0 0.55919291073839883 0.82903756765294845 forward_v I I I I #
coedge $-1 $195 $196 $197 $198 reversed $77 $-1 #
face $-1 $-1 $199 $41 $-1 $200 forward single #
loop $-1 $201 $202 $79 #
cone-surface $-1 3.2290278900667175 24.447706523870401 3.6113354502429225 0 -0.55919291073839883 -0.82903756765294845 0.25 0 0 1 I I -0.70710678118654746 0.70710678118654746 0.25 forward I I I I #
loop $-1 $-1 $203 $52 #
coedge $-1 $127 $127 $204 $205 reversed $80 $-1 #
face $-1 $-1 $206 $42 $-1 $207 forward single #
loop $-1 $208 $209 $82 #
cone-surface $-1 6.0282398299892819 24.447706523870401 3.6113354502429225 0 -0.55919291073839883 -0.82903756765294845 0.25 0 0 1 I I -0.70710678118654746 0.70710678118654746 0.25 forward I I I I #
loop $-1 $-1 $210 $53 #
coedge $-1 $132 $132 $211 $212 reversed $83 $-1 #
face $-1 $-1 $213 $43 $-1 $214 forward single #
loop $-1 $215 $216 $85 #
cone-surface $-1 8.8274517699118462 24.447706523870401 3.6113354502429225 0 -0.55919291073839883 -0.82903756765294845 0.25 0 0 1 I I -0.70710678118654746 0.70710678118654746 0.25 forward I I I I #
loop $-1 $-1 $217 $54 #
coedge $-1 $137 $137 $218 $219 reversed $86 $-1 #
face $-1 $220 $221 $33 $-1 $222 reversed single #
loop $-1 $-1 $223 $88 #
plane-surface $-1 0 -31.534234788340378 0 0 1 0 0 0 1 forward_v I I I I #
coedge $-1 $224 $225 $226 $227 forward $89 $-1 #
coedge $-1 $228 $91 $229 $230 forward $56 $-1 #
coedge $-1 $91 $228 $231 $232 forward $56 $-1 #
coedge $-1 $233 $234 $91 $145 reversed $235 $-1 #
edge $-1 $236 -31.534234788340378 $237 31.534234788340378 $144 $238 forward 7 unknown #
face $-1 $239 $240 $34 $-1 $241 reversed single #
loop $-1 $-1 $242 $92 #
plane-surface $-1 0 0 -8.9560806844463414 0 0 1 1 0 0 forward_v I I I I #
coedge $-1 $243 $152 $244 $245 reversed $93 $-1 #
coedge $-1 $246 $95 $247 $248 reversed $59 $-1 #
coedge $-1 $95 $246 $249 $250 reversed $59 $-1 #
coedge $-1 $149 $251 $95 $153 reversed $93 $-1 #
edge $-1 $252 -31.534234788340378 $253 31.534234788340378 $152 $254 forward 7 unknown #
face $-1 $255 $256 $35 $-1 $257 reversed single #
loop $-1 $-1 $258 $96 #
plane-surface $-1 60.03201895566275 0 4.8291444550522504 0 0 1 1 0 0 forward_v I I I I #
coedge $-1 $259 $260 $159 $261 forward $97 $-1 #
coedge $-1 $262 $99 $263 $264 reversed $62 $-1 #
coedge $-1 $99 $262 $157 $261 reversed $62 $-1 #
coedge $-1 $265 $266 $99 $161 reversed $256 $-1 #
edge $-1 $267 -31.534234788340378 $268 31.534234788340378 $160 $269 forward 7 unknown #
face $-1 $270 $271 $36 $-1 $272 reversed single #
loop $-1 $-1 $273 $100 #
plane-surface $-1 1.3628865967850139 41.871156935683864 128.44911721021046 -1 0 0 0 0.55919291073839883 0.82903756765294845 forward_v I I I I #
coedge $-1 $274 $275 $276 $277 reversed $101 $-1 #
coedge $-1 $167 $103 $278 $279 reversed $65 $-1 #
coedge $-1 $103 $166 $274 $280 reversed $65 $-1 #
coedge $-1 $276 $281 $103 $169 forward $282 $-1 #
edge $-1 $283 -10.598656320498446 $284 2.176417931595477 $168 $285 forward 7 unknown #
loop $-1 $-1 $175 $104 #
plane-surface $-1 -3.3024666364192541 -20.751895825105017 35.606625213572158 0 0.55919291073839883 0.82903756765294845 1 0 0 forward_v I I I I #
loop $-1 $-1 $286 $67 #
coedge $-1 $173 $173 $174 $287 reversed $105 $-1 #
coedge $-1 $174 $174 $173 $287 forward $107 $-1 #
coedge $-1 $175 $175 $108 $176 forward $170 $-1 #
edge $-1 $288 -3.6961418240352355e-015 $288 6.2831853071795969 $175 $289 forward 7 unknown #
loop $-1 $-1 $182 $109 #
plane-surface $-1 -3.3024666364192541 -20.751895825105017 35.606625213572158 0 0.55919291073839883 0.82903756765294845 1 0 0 forward_v I I I I #
loop $-1 $-1 $290 $70 #
coedge $-1 $180 $180 $181 $291 reversed $110 $-1 #
coedge $-1 $181 $181 $180 $291 forward $112 $-1 #
coedge $-1 $182 $182 $113 $183 forward $177 $-1 #
edge $-1 $292 -3.6961418240352355e-015 $292 6.2831853071795969 $182 $293 forward 7 unknown #
loop $-1 $-1 $189 $114 #
plane-surface $-1 -3.3024666364192541 -20.751895825105017 35.606625213572158 0 0.55919291073839883 0.82903756765294845 1 0 0 forward_v I I I I #
loop $-1 $-1 $294 $73 #
coedge $-1 $187 $187 $188 $295 reversed $115 $-1 #
coedge $-1 $188 $188 $187 $295 forward $117 $-1 #
coedge $-1 $189 $189 $118 $190 forward $184 $-1 #
edge $-1 $296 -3.6961418240352355e-015 $296 6.2831853071795969 $189 $297 forward 7 unknown #
face $-1 $298 $299 $40 $-1 $300 forward single #
loop $-1 $-1 $301 $119 #
plane-surface $-1 0 0 8.9560806844463414 0 0 1 1 0 0 forward_v I I I I #
coedge $-1 $302 $303 $304 $305 reversed $120 $-1 #
coedge $-1 $306 $122 $307 $308 reversed $77 $-1 #
coedge $-1 $122 $306 $301 $309 reversed $77 $-1 #
coedge $-1 $310 $311 $122 $198 forward $299 $-1 #
edge $-1 $312 -63.068469576680755 $313 -47.658945629218557 $197 $314 forward 7 unknown #
loop $-1 $-1 $204 $123 #
plane-surface $-1 -3.3024666364192541 -20.751895825105017 35.606625213572158 0 0.55919291073839883 0.82903756765294845 1 0 0 forward_v I I I I #
loop $-1 $-1 $315 $79 #
coedge $-1 $202 $202 $203 $316 reversed $124 $-1 #
coedge $-1 $203 $203 $202 $316 forward $126 $-1 #
coedge $-1 $204 $204 $127 $205 forward $199 $-1 #
edge $-1 $317 -3.6961418240352355e-015 $317 6.2831853071795969 $204 $318 forward 7 unknown #
loop $-1 $-1 $211 $128 #
plane-surface $-1 -3.3024666364192541 -20.751895825105017 35.606625213572158 0 0.55919291073839883 0.82903756765294845 1 0 0 forward_v I I I I #
loop $-1 $-1 $319 $82 #
coedge $-1 $209 $209 $210 $320 reversed $129 $-1 #
coedge $-1 $210 $210 $209 $320 forward $131 $-1 #
coedge $-1 $211 $211 $132 $212 forward $206 $-1 #
edge $-1 $321 -3.6961418240352355e-015 $321 6.2831853071795969 $211 $322 forward 7 unknown #
loop $-1 $-1 $218 $133 #
plane-surface $-1 -3.3024666364192541 -20.751895825105017 35.606625213572158 0 0.55919291073839883 0.82903756765294845 1 0 0 forward_v I I I I #
loop $-1 $-1 $323 $85 #
coedge $-1 $216 $216 $217 $324 reversed $134 $-1 #
coedge $-1 $217 $217 $216 $324 forward $136 $-1 #
coedge $-1 $218 $218 $137 $219 forward $213 $-1 #
edge $-1 $325 -3.6961418240352355e-015 $325 6.2831853071795969 $218 $326 forward 7 unknown #
face $-1 $327 $328 $33 $-1 $329 reversed single #
loop $-1 $-1 $330 $138 #
plane-surface $-1 -55.994140446180609 0 0 1 0 0 0 0 -1 forward_v I I I I #
coedge $-1 $331 $231 $332 $333 forward $139 $-1 #
coedge $-1 $334 $141 $331 $335 forward $89 $-1 #
coedge $-1 $141 $334 $336 $337 forward $89 $-1 #
coedge $-1 $234 $233 $141 $227 reversed $235 $-1 #
edge $-1 $338 -31.534234788340378 $339 31.534234788340378 $226 $340 forward 7 unknown #
coedge $-1 $143 $142 $341 $342 forward $56 $-1 #
coedge $-1 $343 $344 $142 $230 reversed $328 $-1 #
edge $-1 $237 -55.994140446180609 $345 55.994140446180609 $229 $346 forward 7 unknown #
coedge $-1 $223 $347 $143 $232 reversed $139 $-1 #
edge $-1 $348 -55.994140446180609 $236 55.994140446180609 $231 $349 forward 7 unknown #
coedge $-1 $226 $144 $347 $350 forward $235 $-1 #
coedge $-1 $144 $226 $343 $351 reversed $235 $-1 #
loop $-1 $-1 $233 $327 #
vertex $-1 $145 $352 #
vertex $-1 $145 $353 #
straight-curve $-1 55.994140446180609 0 8.9560806844463414 0 1 0 I I #
face $-1 $354 $355 $34 $-1 $356 reversed single #
loop $-1 $-1 $244 $146 #
plane-surface $-1 0 -31.534234788340378 0 0 1 0 0 0 1 forward_v I I I I #
coedge $-1 $357 $358 $243 $359 forward $147 $-1 #
coedge $-1 $251 $149 $242 $359 reversed $93 $-1 #
coedge $-1 $249 $360 $149 $245 forward $240 $-1 #
edge $-1 $361 -5.5194269571642636 $252 -1.3538804973998921 $244 $362 forward 7 unknown #
coedge $-1 $151 $150 $363 $364 reversed $59 $-1 #
coedge $-1 $365 $366 $150 $248 forward $367 $-1 #
edge $-1 $368 -30.697452776223884 $253 -19.895922563689567 $247 $369 forward 7 unknown #
coedge $-1 $370 $244 $151 $250 forward $240 $-1 #
edge $-1 $252 19.895922563689567 $371 30.697452776223884 $249 $372 forward 7 unknown #
coedge $-1 $152 $243 $365 $373 reversed $93 $-1 #
vertex $-1 $250 $374 #
vertex $-1 $248 $375 #
straight-curve $-1 -45.192610233646292 0 -4.79053422468197 0 1 0 I I #
face $-1 $376 $377 $35 $-1 $378 reversed single #
loop $-1 $-1 $379 $154 #
plane-surface $-1 60.03201895566275 0 -0.44140530043890802 0 0 1 1 0 0 forward_v I I I I #
coedge $-1 $380 $381 $382 $383 forward $155 $-1 #
coedge $-1 $384 $157 $380 $385 reversed $97 $-1 #
coedge $-1 $157 $384 $265 $386 reversed $97 $-1 #
edge $-1 $267 -0.44140530043890802 $387 4.8291444550522504 $157 $388 forward 7 unknown #
coedge $-1 $159 $158 $389 $390 forward $62 $-1 #
coedge $-1 $391 $392 $158 $264 forward $393 $-1 #
edge $-1 $394 -4.8291444550522504 $268 0.44140530043890802 $263 $395 forward 7 unknown #
coedge $-1 $379 $160 $260 $386 forward $256 $-1 #
coedge $-1 $160 $379 $391 $396 forward $256 $-1 #
vertex $-1 $261 $397 #
vertex $-1 $264 $398 #
straight-curve $-1 55.994140446180609 0 -0.44140530043890802 0 -1 0 I I #
face $-1 $-1 $282 $36 $-1 $399 forward single #
loop $-1 $-1 $400 $162 #
plane-surface $-1 0 31.534234788340378 0 0 -1 0 0 0 -1 forward_v I I I I #
coedge $-1 $401 $402 $403 $404 reversed $163 $-1 #
coedge $-1 $405 $165 $167 $280 forward $101 $-1 #
coedge $-1 $165 $405 $401 $406 forward $101 $-1 #
coedge $-1 $403 $168 $165 $277 forward $282 $-1 #
edge $-1 $284 -6.316586551413895 $407 3.0141199149946409 $276 $408 forward 7 unknown #
coedge $-1 $409 $410 $166 $279 forward $271 $-1 #
edge $-1 $411 -63.885374469933332 $283 -55.268477920658889 $278 $412 forward 7 unknown #
edge $-1 $284 47.658945629218557 $411 63.068469576680755 $167 $413 forward 7 unknown #
coedge $-1 $168 $403 $409 $414 forward $282 $-1 #
loop $-1 $-1 $403 $270 #
vertex $-1 $279 $415 #
vertex $-1 $169 $416 #
straight-curve $-1 -7.9678198696235221 20.935578467841932 8.9560806844463414 0 -1 0 I I #
coedge $-1 $286 $286 $-1 $417 reversed $172 $-1 #
edge $-1 $418 0 $418 6.2831853071796004 $173 $419 forward 7 unknown #
vertex $-1 $176 $420 #
ellipse-curve $-1 -6.1016785763418113 25.146697662293413 4.647632409809126 0 0.55919291073839883 0.82903756765294845 0.5 0 0 1 I I #
coedge $-1 $290 $290 $-1 $421 reversed $179 $-1 #
edge $-1 $422 0 $422 6.2831853071796004 $180 $423 forward 7 unknown #
vertex $-1 $183 $424 #
ellipse-curve $-1 -3.302466636419247 25.146697662293413 4.647632409809126 0 0.55919291073839883 0.82903756765294845 0.5 0 0 1 I I #
coedge $-1 $294 $294 $-1 $425 reversed $186 $-1 #
edge $-1 $426 0 $426 6.2831853071796004 $187 $427 forward 7 unknown #
vertex $-1 $190 $428 #
ellipse-curve $-1 -0.50325469649668264 25.146697662293413 4.647632409809126 0 0.55919291073839883 0.82903756765294845 0.5 0 0 1 I I #
face $-1 $-1 $429 $40 $-1 $430 reversed single #
loop $-1 $-1 $310 $191 #
plane-surface $-1 1.3628865967850139 41.871156935683864 128.44911721021046 -1 0 0 0 0.55919291073839883 0.82903756765294845 forward_v I I I I #
coedge $-1 $304 $431 $196 $309 forward $192 $-1 #
coedge $-1 $303 $194 $306 $432 reversed $120 $-1 #
coedge $-1 $194 $302 $433 $434 reversed $120 $-1 #
coedge $-1 $435 $301 $194 $305 forward $192 $-1 #
edge $-1 $436 -2.176417931595477 $437 10.598656320498446 $304 $438 forward 7 unknown #
coedge $-1 $196 $195 $302 $432 forward $77 $-1 #
coedge $-1 $439 $433 $195 $308 forward $429 $-1 #
edge $-1 $440 -12.34482638140317 $312 -3.0141199149946409 $307 $441 forward 7 unknown #
edge $-1 $313 3.0141199149946409 $436 12.34482638140317 $301 $442 forward 7 unknown #
coedge $-1 $311 $197 $431 $443 reversed $299 $-1 #
coedge $-1 $197 $310 $439 $444 reversed $299 $-1 #
vertex $-1 $308 $445 #
vertex $-1 $309 $446 #
straight-curve $-1 1.3628865967850139 -20.751895825105017 35.606625213572158 0 -0.82903756765294845 0.55919291073839883 I I #
coedge $-1 $315 $315 $-1 $447 reversed $201 $-1 #
edge $-1 $448 0 $448 6.2831853071796004 $202 $449 forward 7 unknown #
vertex $-1 $205 $450 #
ellipse-curve $-1 3.2290278900667175 25.146697662293413 4.647632409809126 0 0.55919291073839883 0.82903756765294845 0.5 0 0 1 I I #
coedge $-1 $319 $319 $-1 $451 reversed $208 $-1 #
edge $-1 $452 0 $452 6.2831853071796004 $209 $453 forward 7 unknown #
vertex $-1 $212 $454 #
ellipse-curve $-1 6.0282398299892819 25.146697662293413 4.647632409809126 0 0.55919291073839883 0.82903756765294845 0.5 0 0 1 I I #
coedge $-1 $323 $323 $-1 $455 reversed $215 $-1 #
edge $-1 $456 0 $456 6.2831853071796004 $216 $457 forward 7 unknown #
vertex $-1 $219 $458 #
ellipse-curve $-1 8.8274517699118462 25.146697662293413 4.647632409809126 0 0.55919291073839883 0.82903756765294845 0.5 0 0 1 I I #
face $-1 $-1 $235 $33 $-1 $459 reversed single #
loop $-1 $-1 $343 $220 #
plane-surface $-1 0 31.534234788340378 0 0 -1 0 0 0 -1 forward_v I I I I #
coedge $-1 $460 $341 $344 $461 forward $221 $-1 #
coedge $-1 $347 $223 $224 $335 reversed $139 $-1 #
coedge $-1 $341 $460 $223 $333 reversed $221 $-1 #
edge $-1 $348 -8.9560806844463414 $462 8.9560806844463414 $332 $463 forward 7 unknown #
coedge $-1 $225 $224 $460 $464 forward $89 $-1 #
edge $-1 $339 -55.994140446180609 $462 55.994140446180609 $331 $465 forward 7 unknown #
coedge $-1 $344 $343 $225 $337 reversed $328 $-1 #
edge $-1 $466 -55.994140446180609 $338 55.994140446180609 $336 $467 forward 7 unknown #
vertex $-1 $227 $468 #
vertex $-1 $350 $469 #
straight-curve $-1 55.994140446180609 0 -8.9560806844463414 0 -1 0 I I #
coedge $-1 $330 $332 $228 $342 reversed $221 $-1 #
edge $-1 $345 -31.534234788340378 $348 31.534234788340378 $341 $470 forward 7 unknown #
coedge $-1 $336 $229 $234 $351 forward $328 $-1 #
coedge $-1 $229 $336 $330 $461 reversed $328 $-1 #
vertex $-1 $230 $471 #
straight-curve $-1 0 31.534234788340378 8.9560806844463414 -1 0 0 I I #
coedge $-1 $231 $331 $233 $350 reversed $139 $-1 #
vertex $-1 $342 $472 #
straight-curve $-1 0 -31.534234788340378 8.9560806844463414 1 0 0 I I #
edge $-1 $236 -8.9560806844463414 $339 8.9560806844463414 $233 $473 forward 7 unknown #
edge $-1 $237 -8.9560806844463414 $338 8.9560806844463414 $234 $474 forward 7 unknown #
point $-1 55.994140446180609 -31.534234788340378 8.9560806844463414 #
point $-1 55.994140446180609 31.534234788340378 8.9560806844463414 #
face $-1 $-1 $367 $34 $-1 $475 reversed single #
loop $-1 $-1 $363 $239 #
plane-surface $-1 -55.994140446180609 0 0 1 0 0 0 0 -1 forward_v I I I I #
coedge $-1 $476 $242 $360 $477 forward $147 $-1 #
coedge $-1 $242 $476 $478 $479 forward $147 $-1 #
edge $-1 $480 -31.534234788340378 $361 31.534234788340378 $242 $481 forward 7 unknown #
coedge $-1 $244 $370 $357 $477 reversed $240 $-1 #
vertex $-1 $477 $482 #
straight-curve $-1 -45.192610233646292 -31.534234788340378 -3.4366537272820779 0 0 1 I I #
coedge $-1 $483 $484 $246 $364 forward $355 $-1 #
edge $-1 $371 -31.534234788340378 $368 31.534234788340378 $363 $485 forward 7 unknown #
coedge $-1 $478 $247 $251 $373 forward $367 $-1 #
coedge $-1 $247 $478 $483 $486 reversed $367 $-1 #
loop $-1 $-1 $365 $354 #
vertex $-1 $486 $487 #
straight-curve $-1 -25.296687669956725 31.534234788340378 -4.79053422468197 1 0 0 I I #
coedge $-1 $360 $249 $484 $488 forward $240 $-1 #
vertex $-1 $488 $489 #
straight-curve $-1 -25.296687669956725 -31.534234788340378 -4.79053422468197 -1 0 0 I I #
edge $-1 $253 1.3538804973998921 $480 5.5194269571642636 $365 $490 forward 7 unknown #
point $-1 -45.192610233646292 -31.534234788340378 -4.79053422468197 #
point $-1 -45.192610233646292 31.534234788340378 -4.79053422468197 #
face $-1 $-1 $393 $35 $-1 $491 reversed single #
loop $-1 $-1 $492 $255 #
plane-surface $-1 64.069897465144891 0 2.1938695773066712 -1 0 0 0 0 1 forward_v I I I I #
coedge $-1 $266 $265 $493 $494 forward $256 $-1 #
coedge $-1 $389 $258 $259 $385 forward $155 $-1 #
coedge $-1 $258 $389 $392 $495 forward $155 $-1 #
coedge $-1 $492 $496 $258 $383 reversed $377 $-1 #
edge $-1 $497 -31.534234788340378 $498 31.534234788340378 $382 $499 forward 7 unknown #
coedge $-1 $260 $259 $496 $500 forward $97 $-1 #
edge $-1 $498 -4.037878509482141 $387 4.0378785094821339 $259 $501 forward 7 unknown #
edge $-1 $267 -4.0378785094821339 $502 4.037878509482141 $260 $503 forward 7 unknown #
vertex $-1 $385 $504 #
straight-curve $-1 55.994140446180609 31.534234788340378 0 0 0 1 I I #
coedge $-1 $381 $380 $262 $390 reversed $155 $-1 #
edge $-1 $394 -31.534234788340378 $387 31.534234788340378 $389 $505 forward 7 unknown #
coedge $-1 $506 $263 $266 $396 reversed $393 $-1 #
coedge $-1 $263 $506 $381 $495 reversed $393 $-1 #
loop $-1 $-1 $263 $376 #
vertex $-1 $264 $507 #
straight-curve $-1 55.994140446180609 -31.534234788340378 0 0 0 -1 I I #
edge $-1 $508 -4.037878509482141 $268 4.0378785094821339 $391 $509 forward 7 unknown #
point $-1 55.994140446180616 31.534234788340378 -0.44140530043890802 #
point $-1 55.994140446180616 -31.534234788340378 -0.44140530043890802 #
plane-surface $-1 0 0 8.9560806844463414 0 0 1 1 0 0 forward_v I I I I #
coedge $-1 $410 $409 $402 $510 forward $271 $-1 #
coedge $-1 $402 $273 $275 $406 reversed $163 $-1 #
coedge $-1 $273 $401 $400 $510 reversed $163 $-1 #
coedge $-1 $281 $276 $273 $404 forward $282 $-1 #
edge $-1 $407 -2.176417931595477 $511 10.598656320498446 $403 $512 forward 7 unknown #
coedge $-1 $275 $274 $410 $513 reversed $101 $-1 #
edge $-1 $514 -63.068469576680755 $407 -47.658945629218557 $401 $515 forward 7 unknown #
vertex $-1 $277 $516 #
straight-curve $-1 -1.651233318209627 18.759160536246462 8.9560806844463414 1 0 0 I I #
coedge $-1 $400 $278 $281 $414 reversed $271 $-1 #
coedge $-1 $278 $400 $405 $513 forward $271 $-1 #
vertex $-1 $279 $517 #
straight-curve $-1 -7.9678198696235221 31.534234788340378 64.22455860510523 0 0 1 I I #
straight-curve $-1 -7.9678198696235221 -20.751895825105017 35.606625213572158 0 0.82903756765294845 -0.55919291073839883 I I #
edge $-1 $511 -1.3628865967850139 $283 7.9678198696235221 $409 $518 forward 7 unknown #
point $-1 -7.9678198696235221 31.534234788340378 8.9560806844463414 #
point $-1 -7.9678198696235221 18.759160536246455 8.9560806844463414 #
edge $-1 $519 1 $519 0 $286 $-1 forward 7 unknown #
vertex $-1 $287 $520 #
ellipse-curve $-1 -6.1016785763418113 24.587504751555002 3.8185948421561595 0 0.55919291073839883 0.82903756765294845 0.5 0 0 1 I I #
point $-1 -5.6016785763418113 25.146697662293398 4.6476324098091082 #
edge $-1 $521 1 $521 0 $290 $-1 forward 7 unknown #
vertex $-1 $291 $522 #
ellipse-curve $-1 -3.302466636419247 24.587504751555002 3.8185948421561595 0 0.55919291073839883 0.82903756765294845 0.5 0 0 1 I I #
point $-1 -2.802466636419247 25.146697662293398 4.6476324098091082 #
edge $-1 $523 1 $523 0 $294 $-1 forward 7 unknown #
vertex $-1 $295 $524 #
ellipse-curve $-1 -0.50325469649668264 24.587504751555002 3.8185948421561595 0 0.55919291073839883 0.82903756765294845 0.5 0 0 1 I I #
point $-1 -0.0032546964966826408 25.146697662293398 4.6476324098091082 #
loop $-1 $-1 $307 $298 #
plane-surface $-1 0 31.534234788340378 0 0 -1 0 0 0 -1 forward_v I I I I #
coedge $-1 $301 $435 $310 $443 forward $192 $-1 #
edge $-1 $440 -63.068469576680755 $436 -47.658945629218557 $302 $525 forward 7 unknown #
coedge $-1 $307 $526 $303 $434 forward $429 $-1 #
edge $-1 $437 55.268477920658889 $440 63.885374469933332 $433 $527 forward 7 unknown #
coedge $-1 $431 $304 $526 $528 forward $192 $-1 #
vertex $-1 $305 $529 #
vertex $-1 $528 $530 #
straight-curve $-1 10.693593063193543 20.935578467841932 8.9560806844463414 0 1 0 I I #
coedge $-1 $526 $307 $311 $444 forward $429 $-1 #
vertex $-1 $434 $531 #
straight-curve $-1 -1.651233318209627 31.534234788340385 0.33918413517189094 -1 0 0 I I #
straight-curve $-1 -1.651233318209627 18.759160536246462 8.9560806844463414 1 0 0 I I #
edge $-1 $532 -10.598656320498446 $313 2.176417931595477 $431 $533 forward 7 unknown #
edge $-1 $312 -63.885374469933332 $532 -55.268477920658889 $439 $534 forward 7 unknown #
point $-1 1.3628865967850139 31.534234788340378 0.33918413517189805 #
point $-1 1.3628865967850139 18.759160536246455 8.9560806844463414 #
edge $-1 $535 1 $535 0 $315 $-1 forward 7 unknown #
vertex $-1 $316 $536 #
ellipse-curve $-1 3.2290278900667175 24.587504751555002 3.8185948421561595 0 0.55919291073839883 0.82903756765294845 0.5 0 0 1 I I #
point $-1 3.7290278900667175 25.146697662293398 4.6476324098091082 #
edge $-1 $537 1 $537 0 $319 $-1 forward 7 unknown #
vertex $-1 $320 $538 #
ellipse-curve $-1 6.0282398299892819 24.587504751555002 3.8185948421561595 0 0.55919291073839883 0.82903756765294845 0.5 0 0 1 I I #
point $-1 6.5282398299892819 25.146697662293398 4.6476324098091082 #
edge $-1 $539 1 $539 0 $323 $-1 forward 7 unknown #
vertex $-1 $324 $540 #
ellipse-curve $-1 8.8274517699118462 24.587504751555002 3.8185948421561595 0 0.55919291073839883 0.82903756765294845 0.5 0 0 1 I I #
point $-1 9.3274517699118462 25.146697662293398 4.6476324098091082 #
plane-surface $-1 55.994140446180609 0 0 -1 0 0 0 0 1 forward_v I I I I #
coedge $-1 $332 $330 $334 $464 reversed $221 $-1 #
edge $-1 $345 -8.9560806844463414 $466 8.9560806844463414 $344 $541 forward 7 unknown #
vertex $-1 $464 $542 #
straight-curve $-1 -55.994140446180609 -31.534234788340378 0 0 0 -1 I I #
edge $-1 $462 -31.534234788340378 $466 31.534234788340378 $460 $543 forward 7 unknown #
straight-curve $-1 0 -31.534234788340378 -8.9560806844463414 -1 0 0 I I #
vertex $-1 $337 $544 #
straight-curve $-1 0 31.534234788340378 -8.9560806844463414 1 0 0 I I #
point $-1 55.994140446180609 31.534234788340378 -8.9560806844463414 #
point $-1 55.994140446180609 -31.534234788340378 -8.9560806844463414 #
straight-curve $-1 -55.994140446180609 0 8.9560806844463414 0 -1 0 I I #
point $-1 -55.994140446180609 31.534234788340378 8.9560806844463414 #
point $-1 -55.994140446180609 -31.534234788340378 8.9560806844463414 #
straight-curve $-1 55.994140446180609 -31.534234788340378 0 0 0 -1 I I #
straight-curve $-1 55.994140446180609 31.534234788340378 0 0 0 -1 I I #
plane-surface $-1 0 31.534234788340378 0 0 -1 0 0 0 -1 forward_v I I I I #
coedge $-1 $358 $357 $545 $546 forward $147 $-1 #
edge $-1 $361 45.192610233646292 $547 55.994140446180609 $360 $548 forward 7 unknown #
coedge $-1 $366 $365 $358 $479 reversed $367 $-1 #
edge $-1 $549 -55.994140446180609 $480 -45.192610233646292 $478 $550 forward 7 unknown #
vertex $-1 $373 $551 #
straight-curve $-1 -45.192610233646292 0 -8.9560806844463414 0 -1 0 I I #
point $-1 -45.192610233646292 -31.534234788340378 -8.9560806844463414 #
coedge $-1 $545 $363 $366 $486 forward $355 $-1 #
coedge $-1 $363 $545 $370 $488 reversed $355 $-1 #
straight-curve $-1 -55.994140446180609 0 -4.79053422468197 0 1 0 I I #
edge $-1 $368 4.79053422468197 $549 8.9560806844463414 $366 $552 forward 7 unknown #
point $-1 -55.994140446180609 31.534234788340378 -4.79053422468197 #
edge $-1 $371 4.79053422468197 $547 8.9560806844463414 $484 $553 forward 7 unknown #
point $-1 -55.994140446180609 -31.534234788340378 -4.79053422468197 #
straight-curve $-1 -45.192610233646292 31.534234788340378 -3.4366537272820779 0 0 -1 I I #
plane-surface $-1 0 -31.534234788340378 0 0 1 0 0 0 1 forward_v I I I I #
coedge $-1 $493 $382 $506 $554 forward $377 $-1 #
coedge $-1 $496 $492 $379 $494 reversed $377 $-1 #
edge $-1 $502 -31.534234788340378 $508 31.534234788340378 $493 $555 forward 7 unknown #
edge $-1 $394 -4.0378785094821339 $497 4.037878509482141 $392 $556 forward 7 unknown #
coedge $-1 $382 $493 $384 $500 reversed $377 $-1 #
vertex $-1 $383 $557 #
vertex $-1 $383 $558 #
straight-curve $-1 64.069897465144891 0 4.8291444550522504 0 1 0 I I #
edge $-1 $498 -2.6352748777455792 $502 2.6352748777455792 $496 $559 forward 7 unknown #
straight-curve $-1 60.03201895566275 31.534234788340378 4.8291444550522504 -1 0 0 I I #
vertex $-1 $494 $560 #
straight-curve $-1 60.03201895566275 31.534234788340378 -0.44140530043890802 1 0 0 I I #
point $-1 55.994140446180616 31.534234788340378 4.8291444550522504 #
straight-curve $-1 55.994140446180609 0 4.8291444550522504 0 1 0 I I #
coedge $-1 $392 $391 $492 $554 reversed $393 $-1 #
point $-1 55.994140446180616 -31.534234788340378 4.8291444550522504 #
vertex $-1 $554 $561 #
straight-curve $-1 60.03201895566275 -31.534234788340378 -0.44140530043890802 -1 0 0 I I #
edge $-1 $511 55.268477920658889 $514 63.885374469933332 $400 $562 forward 7 unknown #
vertex $-1 $414 $563 #
straight-curve $-1 1.3628865967850139 20.935578467841932 8.9560806844463414 0 1 0 I I #
edge $-1 $514 -3.0141199149946409 $411 6.316586551413895 $410 $564 forward 7 unknown #
vertex $-1 $513 $565 #
straight-curve $-1 1.3628865967850139 -20.751895825105017 35.606625213572158 0 -0.82903756765294845 0.55919291073839883 I I #
point $-1 1.3628865967850139 18.759160536246455 8.9560806844463414 #
point $-1 -7.9678198696235221 31.534234788340378 0.33918413517189805 #
straight-curve $-1 0 31.534234788340378 8.9560806844463414 -1 0 0 I I #
vertex $-1 $417 $566 #
point $-1 -5.6016785763418113 24.587504751555002 3.8185948421561595 #
vertex $-1 $421 $567 #
point $-1 -2.802466636419247 24.587504751555002 3.8185948421561595 #
vertex $-1 $425 $568 #
point $-1 -0.0032546964966826408 24.587504751555002 3.8185948421561595 #
straight-curve $-1 10.693593063193543 -20.751895825105017 35.606625213572158 0 -0.82903756765294845 0.55919291073839883 I I #
coedge $-1 $433 $439 $435 $528 reversed $429 $-1 #
straight-curve $-1 10.693593063193543 31.534234788340378 64.22455860510523 0 0 -1 I I #
edge $-1 $437 -10.693593063193543 $532 -1.3628865967850139 $526 $569 forward 7 unknown #
point $-1 10.693593063193543 18.759160536246455 8.9560806844463414 #
point $-1 10.693593063193543 31.534234788340378 8.9560806844463414 #
point $-1 10.693593063193543 31.534234788340378 0.33918413517189805 #
vertex $-1 $444 $570 #
straight-curve $-1 1.3628865967850139 20.935578467841932 8.9560806844463414 0 -1 0 I I #
straight-curve $-1 1.3628865967850139 31.534234788340378 64.22455860510523 0 0 1 I I #
vertex $-1 $447 $571 #
point $-1 3.7290278900667175 24.587504751555002 3.8185948421561595 #
vertex $-1 $451 $572 #
point $-1 6.5282398299892819 24.587504751555002 3.8185948421561595 #
vertex $-1 $455 $573 #
point $-1 9.3274517699118462 24.587504751555002 3.8185948421561595 #
straight-curve $-1 -55.994140446180609 31.534234788340378 0 0 0 -1 I I #
point $-1 -55.994140446180609 -31.534234788340378 -8.9560806844463414 #
straight-curve $-1 -55.994140446180609 0 -8.9560806844463414 0 1 0 I I #
point $-1 -55.994140446180609 31.534234788340378 -8.9560806844463414 #
coedge $-1 $484 $483 $476 $546 reversed $355 $-1 #
edge $-1 $547 -31.534234788340378 $549 31.534234788340378 $545 $574 forward 7 unknown #
vertex $-1 $546 $575 #
straight-curve $-1 0 -31.534234788340378 -8.9560806844463414 -1 0 0 I I #
vertex $-1 $479 $576 #
straight-curve $-1 0 31.534234788340378 -8.9560806844463414 1 0 0 I I #
point $-1 -45.192610233646292 31.534234788340378 -8.9560806844463414 #
straight-curve $-1 -55.994140446180609 31.534234788340378 0 0 0 -1 I I #
straight-curve $-1 -55.994140446180609 -31.534234788340378 0 0 0 -1 I I #
edge $-1 $497 -2.6352748777455792 $508 2.6352748777455792 $492 $577 forward 7 unknown #
straight-curve $-1 64.069897465144891 0 -0.44140530043890802 0 -1 0 I I #
straight-curve $-1 60.03201895566275 -31.534234788340378 4.8291444550522504 1 0 0 I I #
point $-1 64.069897465144891 -31.534234788340378 4.8291444550522504 #
point $-1 64.069897465144891 31.534234788340378 4.8291444550522504 #
straight-curve $-1 64.069897465144891 31.534234788340378 2.1938695773066712 0 0 -1 I I #
point $-1 64.069897465144891 31.534234788340378 -0.44140530043890802 #
point $-1 64.069897465144891 -31.534234788340378 -0.44140530043890802 #
straight-curve $-1 1.3628865967850139 31.534234788340378 64.22455860510523 0 0 -1 I I #
point $-1 1.3628865967850139 31.534234788340378 8.9560806844463414 #
straight-curve $-1 -1.651233318209627 31.534234788340385 0.33918413517189094 -1 0 0 I I #
point $-1 1.3628865967850139 31.534234788340378 0.33918413517189805 #
point $-1 -6.1016785763418113 24.307908296185801 3.4040760583296854 #
point $-1 -3.302466636419247 24.307908296185801 3.4040760583296854 #
point $-1 -0.50325469649668264 24.307908296185801 3.4040760583296854 #
straight-curve $-1 0 31.534234788340378 8.9560806844463414 -1 0 0 I I #
point $-1 1.3628865967850139 31.534234788340378 8.9560806844463414 #
point $-1 3.2290278900667175 24.307908296185801 3.4040760583296854 #
point $-1 6.0282398299892819 24.307908296185801 3.4040760583296854 #
point $-1 8.8274517699118462 24.307908296185801 3.4040760583296854 #
straight-curve $-1 -55.994140446180609 0 -8.9560806844463414 0 1 0 I I #
point $-1 -55.994140446180609 -31.534234788340378 -8.9560806844463414 #
point $-1 -55.994140446180609 31.534234788340378 -8.9560806844463414 #
straight-curve $-1 64.069897465144891 -31.534234788340378 2.1938695773066712 0 0 -1 I I #
End-of-ACIS-data 