500 0 10 0           
7 Unknown 11 ACIS 5.0 NT 24 Fri Mar 26 17:44:14 1999 
-1 9.9999999999999995e-007 1e-010 
body $-1 $10 $-1 $11 #
body $-1 $12 $-1 $13 #
body $-1 $14 $-1 $15 #
body $-1 $16 $-1 $17 #
body $-1 $18 $-1 $19 #
body $-1 $20 $-1 $21 #
body $-1 $22 $-1 $23 #
body $-1 $24 $-1 $25 #
body $-1 $26 $-1 $27 #
body $-1 $28 $-1 $29 #
lump $-1 $-1 $30 $0 #
transform $-1 1 0 0 0 1 0 0 0 1 68.64955595568712 30.163106846816099 13.782221006211453 1 rotate no_reflect no_shear #
lump $-1 $-1 $31 $1 #
transform $-1 1 0 0 0 1 0 0 0 1 68.64955595568712 30.163106846816099 13.782221006211453 1 rotate no_reflect no_shear #
lump $-1 $-1 $32 $2 #
transform $-1 1 0 0 0 1 0 0 0 1 68.64955595568712 30.163106846816099 13.782221006211453 1 rotate no_reflect no_shear #
lump $-1 $-1 $33 $3 #
transform $-1 1 0 0 0 1 0 0 0 1 68.64955595568712 30.163106846816099 13.782221006211453 1 rotate no_reflect no_shear #
lump $-1 $-1 $34 $4 #
transform $-1 1 0 0 0 1 0 0 0 1 68.64955595568712 30.163106846816099 13.782221006211453 1 rotate no_reflect no_shear #
lump $-1 $-1 $35 $5 #
transform $-1 1 0 0 0 1 0 0 0 1 68.64955595568712 30.163106846816099 13.782221006211453 1 rotate no_reflect no_shear #
lump $-1 $-1 $36 $6 #
transform $-1 1 0 0 0 1 0 0 0 1 68.64955595568712 30.163106846816099 13.782221006211453 1 rotate no_reflect no_shear #
lump $-1 $-1 $37 $7 #
transform $-1 1 0 0 0 1 0 0 0 1 68.64955595568712 30.163106846816099 13.782221006211453 1 rotate no_reflect no_shear #
lump $-1 $-1 $38 $8 #
transform $-1 1 0 0 0 1 0 0 0 1 68.64955595568712 30.163106846816099 13.782221006211453 1 rotate no_reflect no_shear #
lump $-1 $-1 $39 $9 #
transform $-1 1 0 0 0 1 0 0 0 1 68.64955595568712 30.163106846816099 13.782221006211453 1 rotate no_reflect no_shear #
shell $-1 $-1 $-1 $40 $-1 $10 #
shell $-1 $-1 $-1 $41 $-1 $12 #
shell $-1 $-1 $-1 $42 $-1 $14 #
shell $-1 $-1 $-1 $43 $-1 $16 #
shell $-1 $-1 $-1 $44 $-1 $18 #
shell $-1 $-1 $-1 $45 $-1 $20 #
shell $-1 $-1 $-1 $46 $-1 $22 #
shell $-1 $-1 $-1 $47 $-1 $24 #
shell $-1 $-1 $-1 $48 $-1 $26 #
shell $-1 $-1 $-1 $49 $-1 $28 #
face $-1 $50 $51 $30 $-1 $52 forward single #
face $-1 $53 $54 $31 $-1 $55 forward single #
face $-1 $56 $57 $32 $-1 $58 forward single #
face $-1 $59 $60 $33 $-1 $61 reversed single #
face $-1 $62 $63 $34 $-1 $64 forward single #
face $-1 $65 $66 $35 $-1 $67 forward single #
face $-1 $68 $69 $36 $-1 $70 forward single #
face $-1 $71 $72 $37 $-1 $73 reversed single #
face $-1 $74 $75 $38 $-1 $76 forward single #
face $-1 $77 $78 $39 $-1 $79 forward single #
face $-1 $80 $81 $30 $-1 $82 reversed single #
loop $-1 $-1 $83 $40 #
plane-surface $-1 0 0 13.782221006211453 0 0 1 1 0 0 forward_v I I I I #
face $-1 $84 $85 $31 $-1 $86 forward single #
loop $-1 $-1 $87 $41 #
plane-surface $-1 -68.64955595568712 0 0 1 0 0 0 0 -1 forward_v I I I I #
face $-1 $88 $89 $32 $-1 $90 reversed single #
loop $-1 $-1 $91 $42 #
plane-surface $-1 68.64955595568712 0 0 -1 0 0 0 0 1 forward_v I I I I #
face $-1 $92 $93 $33 $-1 $94 reversed single #
loop $-1 $-1 $95 $43 #
plane-surface $-1 0.39053565562949188 -133.78406310042305 91.172081588154171 -1 0 0 0 -0.75470958851134928 0.65605901945558964 forward_v I I I I #
face $-1 $96 $97 $34 $-1 $98 forward single #
loop $-1 $99 $100 $44 #
cone-surface $-1 -14.839738434465254 -23.166233488359122 6.1500232639805379 0 0.75470958851134928 -0.65605901945558964 1.5 0 0 1 I I 0 1 1.5 forward I I I I #
face $-1 $101 $102 $35 $-1 $103 forward single #
loop $-1 $104 $105 $45 #
cone-surface $-1 -9.128385650679725 -23.166233488359122 6.1500232639805379 0 0.75470958851134928 -0.65605901945558964 1.5 0 0 1 I I 0 1 1.5 forward I I I I #
face $-1 $106 $107 $36 $-1 $108 forward single #
loop $-1 $109 $110 $46 #
cone-surface $-1 -3.4170328668941892 -23.166233488359122 6.1500232639805379 0 0.75470958851134928 -0.65605901945558964 1.5 0 0 1 I I 0 1 1.5 forward I I I I #
face $-1 $111 $112 $37 $-1 $113 reversed single #
loop $-1 $-1 $114 $47 #
plane-surface $-1 24.200423259950512 59.49830222694721 153.96231898885998 1 0 0 0 -0.57357644374324357 -0.81915203911291934 forward_v I I I I #
face $-1 $115 $116 $38 $-1 $117 forward single #
loop $-1 $118 $119 $48 #
cone-surface $-1 29.346201759345405 23.221267619654292 7.4499233697106071 0 -0.57357644374324357 -0.81915203911291934 2.5 0 0 1 I I 0 1 2.5 forward I I I I #
face $-1 $120 $121 $39 $-1 $122 forward single #
loop $-1 $123 $124 $49 #
cone-surface $-1 37.064869508437738 23.221267619654292 7.4499233697106071 0 -0.57357644374324357 -0.81915203911291934 2.5 0 0 1 I I 0 1 2.5 forward I I I I #
face $-1 $125 $126 $30 $-1 $127 reversed single #
loop $-1 $-1 $128 $50 #
plane-surface $-1 0 0 -13.782221006211453 0 0 1 1 0 0 forward_v I I I I #
coedge $-1 $129 $130 $131 $132 forward $51 $-1 #
face $-1 $133 $134 $31 $-1 $135 reversed single #
loop $-1 $-1 $136 $53 #
plane-surface $-1 0 0 13.782221006211453 0 0 1 1 0 0 forward_v I I I I #
coedge $-1 $137 $138 $139 $140 forward $54 $-1 #
face $-1 $141 $142 $32 $-1 $143 reversed single #
loop $-1 $-1 $144 $56 #
plane-surface $-1 0 -30.163106846816099 0 0 1 0 0 0 1 forward_v I I I I #
coedge $-1 $145 $146 $147 $148 forward $57 $-1 #
face $-1 $149 $150 $33 $-1 $151 reversed single #
loop $-1 $-1 $152 $59 #
plane-surface $-1 -9.128385650679725 -30.163106846816106 1.0957608554547136 0 -0.75470958851134928 0.65605901945558964 1 0 0 forward_v I I I I #
coedge $-1 $153 $154 $155 $156 reversed $60 $-1 #
face $-1 $-1 $157 $34 $-1 $158 forward single #
loop $-1 $159 $160 $62 #
cone-surface $-1 -14.839738434465254 -21.117413577264116 4.3690113325363082 0 0.75470958851134928 -0.65605901945558964 0.75 0 0 1 I I -0.70710678118654757 0.70710678118654757 0.75 forward I I I I #
loop $-1 $-1 $161 $44 #
coedge $-1 $100 $100 $162 $163 reversed $63 $-1 #
face $-1 $-1 $164 $35 $-1 $165 forward single #
loop $-1 $166 $167 $65 #
cone-surface $-1 -9.128385650679725 -21.117413577264116 4.3690113325363082 0 0.75470958851134928 -0.65605901945558964 0.75 0 0 1 I I -0.70710678118654757 0.70710678118654757 0.75 forward I I I I #
loop $-1 $-1 $168 $45 #
coedge $-1 $105 $105 $169 $170 reversed $66 $-1 #
face $-1 $-1 $171 $36 $-1 $172 forward single #
loop $-1 $173 $174 $68 #
cone-surface $-1 -3.4170328668941892 -21.117413577264116 4.3690113325363082 0 0.75470958851134928 -0.65605901945558964 0.75 0 0 1 I I -0.70710678118654757 0.70710678118654757 0.75 forward I I I I #
loop $-1 $-1 $175 $46 #
coedge $-1 $110 $110 $176 $177 reversed $69 $-1 #
face $-1 $178 $179 $37 $-1 $180 reversed single #
loop $-1 $-1 $181 $71 #
plane-surface $-1 33.205535633891571 -19.253234112284439 41.493471498264853 0 0.57357644374324357 0.81915203911291934 1 0 0 forward_v I I I I #
coedge $-1 $182 $183 $184 $185 reversed $72 $-1 #
face $-1 $-1 $186 $38 $-1 $187 forward single #
loop $-1 $188 $189 $74 #
cone-surface $-1 29.346201759345405 20.482745120145282 3.538907995736162 0 -0.57357644374324357 -0.81915203911291934 1.25 0 0 1 I I -0.70710678118654746 0.70710678118654746 1.25 forward I I I I #
loop $-1 $-1 $190 $48 #
coedge $-1 $119 $119 $191 $192 reversed $75 $-1 #
face $-1 $-1 $193 $39 $-1 $194 forward single #
loop $-1 $195 $196 $77 #
cone-surface $-1 37.064869508437738 20.482745120145282 3.538907995736162 0 -0.57357644374324357 -0.81915203911291934 1.25 0 0 1 I I -0.70710678118654746 0.70710678118654746 1.25 forward I I I I #
loop $-1 $-1 $197 $49 #
coedge $-1 $124 $124 $198 $199 reversed $78 $-1 #
face $-1 $200 $201 $30 $-1 $202 reversed single #
loop $-1 $-1 $203 $80 #
plane-surface $-1 0 -30.163106846816099 0 0 1 0 0 0 1 forward_v I I I I #
coedge $-1 $204 $205 $206 $207 forward $81 $-1 #
coedge $-1 $208 $83 $209 $210 forward $51 $-1 #
coedge $-1 $83 $208 $211 $212 forward $51 $-1 #
coedge $-1 $213 $214 $83 $132 reversed $215 $-1 #
edge $-1 $216 -30.163106846816099 $217 30.163106846816099 $131 $218 forward 7 unknown #
face $-1 $219 $220 $31 $-1 $221 reversed single #
loop $-1 $-1 $222 $84 #
plane-surface $-1 -79.284028221134847 -28.663106846816099 0 1 0 0 0 0 -1 forward_v I I I I #
coedge $-1 $223 $224 $137 $225 forward $85 $-1 #
coedge $-1 $226 $87 $136 $225 reversed $54 $-1 #
coedge $-1 $87 $226 $227 $228 reversed $54 $-1 #
coedge $-1 $229 $230 $87 $140 reversed $220 $-1 #
edge $-1 $231 -13.782221006211453 $232 13.782221006211453 $139 $233 forward 7 unknown #
face $-1 $234 $235 $32 $-1 $236 reversed single #
loop $-1 $-1 $237 $88 #
plane-surface $-1 0 0 -13.782221006211453 0 0 1 1 0 0 forward_v I I I I #
coedge $-1 $238 $239 $240 $241 forward $89 $-1 #
coedge $-1 $240 $91 $237 $242 reversed $57 $-1 #
coedge $-1 $91 $240 $243 $244 reversed $57 $-1 #
coedge $-1 $245 $246 $91 $148 reversed $235 $-1 #
edge $-1 $247 -13.782221006211453 $248 13.782221006211453 $147 $249 forward 7 unknown #
face $-1 $250 $251 $33 $-1 $252 forward single #
loop $-1 $-1 $253 $92 #
plane-surface $-1 -18.647306956988942 -133.78406310042305 91.172081588154171 1 0 0 0 0.75470958851134928 -0.65605901945558964 forward_v I I I I #
coedge $-1 $254 $255 $256 $257 reversed $93 $-1 #
coedge $-1 $154 $95 $258 $259 reversed $60 $-1 #
coedge $-1 $95 $153 $254 $260 reversed $60 $-1 #
coedge $-1 $256 $261 $95 $156 forward $251 $-1 #
edge $-1 $262 36.728924703395428 $263 47.757095980886376 $155 $264 forward 7 unknown #
loop $-1 $-1 $162 $96 #
plane-surface $-1 -9.128385650679725 -30.163106846816106 1.0957608554547136 0 -0.75470958851134928 0.65605901945558964 1 0 0 forward_v I I I I #
loop $-1 $-1 $265 $62 #
coedge $-1 $160 $160 $161 $266 reversed $97 $-1 #
coedge $-1 $161 $161 $160 $266 forward $99 $-1 #
coedge $-1 $162 $162 $100 $163 forward $157 $-1 #
edge $-1 $267 -7.0095445221170148e-016 $267 6.2831853071795996 $162 $268 forward 7 unknown #
loop $-1 $-1 $169 $101 #
plane-surface $-1 -9.128385650679725 -30.163106846816106 1.0957608554547136 0 -0.75470958851134928 0.65605901945558964 1 0 0 forward_v I I I I #
loop $-1 $-1 $269 $65 #
coedge $-1 $167 $167 $168 $270 reversed $102 $-1 #
coedge $-1 $168 $168 $167 $270 forward $104 $-1 #
coedge $-1 $169 $169 $105 $170 forward $164 $-1 #
edge $-1 $271 -7.0095445221170148e-016 $271 6.2831853071795996 $169 $272 forward 7 unknown #
loop $-1 $-1 $176 $106 #
plane-surface $-1 -9.128385650679725 -30.163106846816106 1.0957608554547136 0 -0.75470958851134928 0.65605901945558964 1 0 0 forward_v I I I I #
loop $-1 $-1 $273 $68 #
coedge $-1 $174 $174 $175 $274 reversed $107 $-1 #
coedge $-1 $175 $175 $174 $274 forward $109 $-1 #
coedge $-1 $176 $176 $110 $177 forward $171 $-1 #
edge $-1 $275 -7.0095445221170148e-016 $275 6.2831853071795996 $176 $276 forward 7 unknown #
face $-1 $277 $278 $37 $-1 $279 reversed single #
loop $-1 $-1 $280 $111 #
plane-surface $-1 42.210648007832631 59.49830222694721 153.96231898885998 -1 0 0 0 0.57357644374324357 0.81915203911291934 forward_v I I I I #
coedge $-1 $281 $282 $283 $284 reversed $112 $-1 #
coedge $-1 $183 $114 $285 $286 reversed $72 $-1 #
coedge $-1 $114 $182 $281 $287 reversed $72 $-1 #
coedge $-1 $283 $288 $114 $185 forward $289 $-1 #
edge $-1 $290 -0.41395573334249391 $291 9.4266188313212318 $184 $292 forward 7 unknown #
loop $-1 $-1 $191 $115 #
plane-surface $-1 33.205535633891571 -19.253234112284439 41.493471498264853 0 0.57357644374324357 0.81915203911291934 1 0 0 forward_v I I I I #
loop $-1 $-1 $293 $74 #
coedge $-1 $189 $189 $190 $294 reversed $116 $-1 #
coedge $-1 $190 $190 $189 $294 forward $118 $-1 #
coedge $-1 $191 $191 $119 $192 forward $186 $-1 #
edge $-1 $295 -5.246839050350813e-016 $295 6.2831853071795996 $191 $296 forward 7 unknown #
loop $-1 $-1 $198 $120 #
plane-surface $-1 33.205535633891571 -19.253234112284439 41.493471498264853 0 0.57357644374324357 0.81915203911291934 1 0 0 forward_v I I I I #
loop $-1 $-1 $297 $77 #
coedge $-1 $196 $196 $197 $298 reversed $121 $-1 #
coedge $-1 $197 $197 $196 $298 forward $123 $-1 #
coedge $-1 $198 $198 $124 $199 forward $193 $-1 #
edge $-1 $299 -5.246839050350813e-016 $299 6.2831853071795996 $198 $300 forward 7 unknown #
face $-1 $301 $302 $30 $-1 $303 reversed single #
loop $-1 $-1 $304 $125 #
plane-surface $-1 -68.64955595568712 0 0 1 0 0 0 0 -1 forward_v I I I I #
coedge $-1 $305 $211 $306 $307 forward $126 $-1 #
coedge $-1 $308 $128 $305 $309 forward $81 $-1 #
coedge $-1 $128 $308 $310 $311 forward $81 $-1 #
coedge $-1 $214 $213 $128 $207 reversed $215 $-1 #
edge $-1 $312 -30.163106846816099 $313 30.163106846816099 $206 $314 forward 7 unknown #
coedge $-1 $130 $129 $315 $316 forward $51 $-1 #
coedge $-1 $317 $318 $129 $210 reversed $302 $-1 #
edge $-1 $217 -68.64955595568712 $319 68.64955595568712 $209 $320 forward 7 unknown #
coedge $-1 $203 $321 $130 $212 reversed $126 $-1 #
edge $-1 $322 -68.64955595568712 $216 68.64955595568712 $211 $323 forward 7 unknown #
coedge $-1 $206 $131 $321 $324 forward $215 $-1 #
coedge $-1 $131 $206 $317 $325 reversed $215 $-1 #
loop $-1 $-1 $213 $301 #
vertex $-1 $132 $326 #
vertex $-1 $132 $327 #
straight-curve $-1 68.64955595568712 0 13.782221006211453 0 1 0 I I #
face $-1 $328 $329 $31 $-1 $330 reversed single #
loop $-1 $-1 $139 $133 #
plane-surface $-1 -73.966792088410983 -27.163106846816099 0 0 -1 0 0 0 -1 forward_v I I I I #
coedge $-1 $331 $332 $333 $334 forward $134 $-1 #
coedge $-1 $335 $136 $230 $336 forward $85 $-1 #
coedge $-1 $136 $335 $337 $338 forward $85 $-1 #
edge $-1 $339 -30.163106846816099 $232 -27.163106846816099 $136 $340 forward 7 unknown #
coedge $-1 $138 $137 $341 $342 reversed $54 $-1 #
coedge $-1 $343 $344 $138 $228 forward $329 $-1 #
edge $-1 $231 27.163106846816099 $345 30.163106846816099 $227 $346 forward 7 unknown #
coedge $-1 $333 $139 $344 $347 reversed $220 $-1 #
coedge $-1 $139 $333 $223 $336 reversed $220 $-1 #
vertex $-1 $228 $348 #
vertex $-1 $336 $349 #
straight-curve $-1 -68.64955595568712 -27.163106846816099 0 0 0 1 I I #
face $-1 $350 $351 $32 $-1 $352 reversed single #
loop $-1 $-1 $353 $141 #
plane-surface $-1 73.966792088410998 -27.163106846816099 0 0 -1 0 0 0 -1 forward_v I I I I #
coedge $-1 $354 $355 $145 $242 forward $142 $-1 #
coedge $-1 $356 $144 $355 $357 reversed $89 $-1 #
coedge $-1 $144 $356 $358 $359 reversed $89 $-1 #
coedge $-1 $146 $145 $144 $241 reversed $57 $-1 #
edge $-1 $360 -13.782221006211453 $361 13.782221006211453 $144 $362 forward 7 unknown #
edge $-1 $361 -30.163106846816099 $248 -27.163106846816099 $237 $363 forward 7 unknown #
coedge $-1 $358 $364 $146 $244 forward $365 $-1 #
edge $-1 $247 27.163106846816099 $360 30.163106846816099 $243 $366 forward 7 unknown #
coedge $-1 $353 $147 $364 $367 reversed $235 $-1 #
coedge $-1 $147 $353 $354 $368 reversed $235 $-1 #
vertex $-1 $244 $369 #
vertex $-1 $368 $370 #
straight-curve $-1 68.64955595568712 -27.163106846816099 0 0 0 -1 I I #
face $-1 $-1 $371 $33 $-1 $372 reversed single #
loop $-1 $-1 $155 $149 #
plane-surface $-1 0 0 13.782221006211453 0 0 1 1 0 0 forward_v I I I I #
coedge $-1 $373 $374 $375 $376 reversed $150 $-1 #
coedge $-1 $377 $152 $154 $260 forward $93 $-1 #
coedge $-1 $152 $377 $373 $378 forward $93 $-1 #
coedge $-1 $375 $155 $152 $257 forward $251 $-1 #
edge $-1 $263 -4.9547284809693544 $379 14.083114131649079 $256 $380 forward 7 unknown #
coedge $-1 $381 $382 $153 $259 forward $371 $-1 #
edge $-1 $383 -44.490279938622365 $262 -31.803819787865635 $258 $384 forward 7 unknown #
edge $-1 $263 -16.809724354742265 $383 -1.086200982436365e-014 $154 $385 forward 7 unknown #
coedge $-1 $155 $375 $381 $386 forward $251 $-1 #
vertex $-1 $156 $387 #
vertex $-1 $156 $388 #
straight-curve $-1 0.39053565562949188 -66.892031550211527 13.782221006211451 0 1 0 I I #
coedge $-1 $265 $265 $-1 $389 reversed $159 $-1 #
edge $-1 $390 0 $390 6.2831853071796004 $160 $391 forward 7 unknown #
vertex $-1 $163 $392 #
ellipse-curve $-1 -14.839738434465254 -24.649021208070629 7.4389909308330857 0 -0.75470958851134928 0.65605901945558964 1.5 0 0 1 I I #
coedge $-1 $269 $269 $-1 $393 reversed $166 $-1 #
edge $-1 $394 0 $394 6.2831853071796004 $167 $395 forward 7 unknown #
vertex $-1 $170 $396 #
ellipse-curve $-1 -9.128385650679725 -24.649021208070629 7.4389909308330857 0 -0.75470958851134928 0.65605901945558964 1.5 0 0 1 I I #
coedge $-1 $273 $273 $-1 $397 reversed $173 $-1 #
edge $-1 $398 0 $398 6.2831853071796004 $174 $399 forward 7 unknown #
vertex $-1 $177 $400 #
ellipse-curve $-1 -3.4170328668941892 -24.649021208070629 7.4389909308330857 0 -0.75470958851134928 0.65605901945558964 1.5 0 0 1 I I #
face $-1 $-1 $289 $37 $-1 $401 forward single #
loop $-1 $-1 $402 $178 #
plane-surface $-1 0 30.163106846816099 0 0 -1 0 0 0 -1 forward_v I I I I #
coedge $-1 $403 $404 $405 $406 reversed $179 $-1 #
coedge $-1 $407 $181 $183 $287 forward $112 $-1 #
coedge $-1 $181 $407 $403 $408 forward $112 $-1 #
coedge $-1 $405 $184 $181 $284 forward $289 $-1 #
edge $-1 $291 7.5976554430047258 $409 25.607880190886846 $283 $410 forward 7 unknown #
coedge $-1 $411 $412 $182 $286 forward $278 $-1 #
edge $-1 $413 -70.08938311105365 $290 -63.198938488218538 $285 $414 forward 7 unknown #
edge $-1 $291 48.313090250369662 $413 60.326213693632198 $183 $415 forward 7 unknown #
coedge $-1 $184 $405 $411 $416 forward $289 $-1 #
loop $-1 $-1 $405 $277 #
vertex $-1 $286 $417 #
vertex $-1 $185 $418 #
straight-curve $-1 24.200423259950512 29.749151113473605 13.782221006211458 0 -1 0 I I #
coedge $-1 $293 $293 $-1 $419 reversed $188 $-1 #
edge $-1 $420 0 $420 6.2831853071796004 $189 $421 forward 7 unknown #
vertex $-1 $192 $422 #
ellipse-curve $-1 29.346201759345405 25.24281956448424 10.336998694793891 0 0.57357644374324357 0.81915203911291934 2.5 0 0 1 I I #
coedge $-1 $297 $297 $-1 $423 reversed $195 $-1 #
edge $-1 $424 0 $424 6.2831853071796004 $196 $425 forward 7 unknown #
vertex $-1 $199 $426 #
ellipse-curve $-1 37.064869508437738 25.24281956448424 10.336998694793891 0 0.57357644374324357 0.81915203911291934 2.5 0 0 1 I I #
face $-1 $-1 $215 $30 $-1 $427 reversed single #
loop $-1 $-1 $317 $200 #
plane-surface $-1 0 30.163106846816099 0 0 -1 0 0 0 -1 forward_v I I I I #
coedge $-1 $428 $315 $318 $429 forward $201 $-1 #
coedge $-1 $321 $203 $204 $309 reversed $126 $-1 #
coedge $-1 $315 $428 $203 $307 reversed $201 $-1 #
edge $-1 $322 -13.782221006211453 $430 13.782221006211453 $306 $431 forward 7 unknown #
coedge $-1 $205 $204 $428 $432 forward $81 $-1 #
edge $-1 $313 -68.64955595568712 $430 68.64955595568712 $305 $433 forward 7 unknown #
coedge $-1 $318 $317 $205 $311 reversed $302 $-1 #
edge $-1 $434 -68.64955595568712 $312 68.64955595568712 $310 $435 forward 7 unknown #
vertex $-1 $207 $436 #
vertex $-1 $324 $437 #
straight-curve $-1 68.64955595568712 0 -13.782221006211453 0 -1 0 I I #
coedge $-1 $304 $306 $208 $316 reversed $201 $-1 #
edge $-1 $319 -30.163106846816099 $322 30.163106846816099 $315 $438 forward 7 unknown #
coedge $-1 $310 $209 $214 $325 forward $302 $-1 #
coedge $-1 $209 $310 $304 $429 reversed $302 $-1 #
vertex $-1 $210 $439 #
straight-curve $-1 0 30.163106846816099 13.782221006211453 -1 0 0 I I #
coedge $-1 $211 $305 $213 $324 reversed $126 $-1 #
vertex $-1 $316 $440 #
straight-curve $-1 0 -30.163106846816099 13.782221006211453 1 0 0 I I #
edge $-1 $216 -13.782221006211453 $313 13.782221006211453 $213 $441 forward 7 unknown #
edge $-1 $217 -13.782221006211453 $312 13.782221006211453 $214 $442 forward 7 unknown #
point $-1 68.64955595568712 -30.163106846816099 13.782221006211453 #
point $-1 68.64955595568712 30.163106846816099 13.782221006211453 #
face $-1 $-1 $443 $31 $-1 $444 reversed single #
loop $-1 $-1 $227 $219 #
plane-surface $-1 0 0 -13.782221006211453 0 0 1 1 0 0 forward_v I I I I #
coedge $-1 $445 $222 $446 $447 reversed $134 $-1 #
coedge $-1 $222 $445 $335 $448 reversed $134 $-1 #
coedge $-1 $230 $229 $222 $334 reversed $220 $-1 #
edge $-1 $449 -13.782221006211453 $450 13.782221006211453 $333 $451 forward 7 unknown #
coedge $-1 $224 $223 $332 $448 forward $85 $-1 #
edge $-1 $232 -5.3172361327238633 $449 5.3172361327238633 $230 $452 forward 7 unknown #
coedge $-1 $453 $341 $224 $338 reversed $443 $-1 #
edge $-1 $454 -79.284028221134847 $339 -68.64955595568712 $337 $455 forward 7 unknown #
vertex $-1 $342 $456 #
straight-curve $-1 -68.64955595568712 0 13.782221006211453 0 1 0 I I #
coedge $-1 $337 $457 $226 $342 forward $443 $-1 #
edge $-1 $345 -13.782221006211453 $339 13.782221006211453 $341 $458 forward 7 unknown #
coedge $-1 $446 $227 $457 $459 forward $329 $-1 #
coedge $-1 $227 $446 $229 $347 forward $329 $-1 #
vertex $-1 $459 $460 #
straight-curve $-1 -68.64955595568712 0 -13.782221006211453 0 -1 0 I I #
edge $-1 $450 -5.3172361327238633 $231 5.3172361327238633 $229 $461 forward 7 unknown #
point $-1 -68.64955595568712 -27.163106846816099 -13.782221006211453 #
point $-1 -68.64955595568712 -27.163106846816099 13.782221006211453 #
face $-1 $-1 $365 $32 $-1 $462 forward single #
loop $-1 $-1 $463 $234 #
plane-surface $-1 79.284028221134861 -28.663106846816099 0 -1 0 0 0 0 1 forward_v I I I I #
coedge $-1 $246 $245 $464 $465 forward $235 $-1 #
coedge $-1 $466 $237 $246 $368 forward $142 $-1 #
coedge $-1 $237 $466 $238 $357 forward $142 $-1 #
coedge $-1 $239 $238 $463 $467 reversed $89 $-1 #
edge $-1 $468 -5.3172361327238633 $361 5.3172361327238775 $238 $469 forward 7 unknown #
coedge $-1 $470 $243 $239 $359 forward $365 $-1 #
edge $-1 $360 -5.3172361327238775 $471 5.3172361327238633 $239 $472 forward 7 unknown #
vertex $-1 $359 $473 #
vertex $-1 $242 $474 #
straight-curve $-1 68.64955595568712 -30.163106846816099 0 0 0 -1 I I #
straight-curve $-1 68.64955595568712 0 -13.782221006211453 0 1 0 I I #
coedge $-1 $243 $470 $245 $367 forward $365 $-1 #
loop $-1 $-1 $243 $350 #
straight-curve $-1 68.64955595568712 0 13.782221006211453 0 -1 0 I I #
edge $-1 $475 -5.3172361327238633 $247 5.3172361327238633 $245 $476 forward 7 unknown #
edge $-1 $248 -5.3172361327238633 $477 5.3172361327238633 $246 $478 forward 7 unknown #
point $-1 68.649555955687134 -27.163106846816099 13.782221006211453 #
point $-1 68.649555955687134 -27.163106846816099 -13.782221006211453 #
loop $-1 $-1 $258 $250 #
plane-surface $-1 0 -30.163106846816099 0 0 1 0 0 0 1 forward_v I I I I #
coedge $-1 $374 $253 $255 $378 reversed $150 $-1 #
coedge $-1 $253 $373 $479 $480 reversed $150 $-1 #
coedge $-1 $261 $256 $253 $376 forward $251 $-1 #
edge $-1 $379 -47.757095980886376 $481 -36.728924703395428 $375 $482 forward 7 unknown #
coedge $-1 $255 $254 $382 $483 reversed $93 $-1 #
edge $-1 $484 1.086200982436365e-014 $379 16.809724354742265 $373 $485 forward 7 unknown #
vertex $-1 $257 $486 #
straight-curve $-1 -4.5641928253398625 -19.134935569325151 13.782221006211453 -1 0 0 I I #
coedge $-1 $479 $258 $261 $386 reversed $371 $-1 #
coedge $-1 $258 $479 $377 $483 forward $371 $-1 #
vertex $-1 $259 $487 #
straight-curve $-1 0.39053565562949188 -30.163106846816099 45.586040794077086 0 0 1 I I #
straight-curve $-1 0.39053565562949188 -30.163106846816106 1.0957608554547136 0 -0.65605901945558964 -0.75470958851134928 I I #
edge $-1 $481 -92.614099045399939 $262 -73.576256432781506 $381 $488 forward 7 unknown #
point $-1 0.39053565562949188 -30.163106846816099 13.782221006211453 #
point $-1 0.39053565562949188 -19.134935569325155 13.782221006211451 #
edge $-1 $489 1 $489 0 $265 $-1 forward 7 unknown #
vertex $-1 $266 $490 #
ellipse-curve $-1 -14.839738434465254 -21.68344576864763 4.8610555971280007 0 -0.75470958851134928 0.65605901945558964 1.5 0 0 1 I I #
point $-1 -13.339738434465254 -24.649021208070618 7.4389909308330751 #
edge $-1 $491 1 $491 0 $269 $-1 forward 7 unknown #
vertex $-1 $270 $492 #
ellipse-curve $-1 -9.128385650679725 -21.68344576864763 4.8610555971280007 0 -0.75470958851134928 0.65605901945558964 1.5 0 0 1 I I #
point $-1 -7.628385650679725 -24.649021208070618 7.4389909308330751 #
edge $-1 $493 1 $493 0 $273 $-1 forward 7 unknown #
vertex $-1 $274 $494 #
ellipse-curve $-1 -3.4170328668941892 -21.68344576864763 4.8610555971280007 0 -0.75470958851134928 0.65605901945558964 1.5 0 0 1 I I #
point $-1 -1.9170328668941892 -24.649021208070618 7.4389909308330751 #
plane-surface $-1 0 0 13.782221006211453 0 0 1 1 0 0 forward_v I I I I #
coedge $-1 $412 $411 $404 $495 forward $278 $-1 #
coedge $-1 $404 $280 $282 $408 reversed $179 $-1 #
coedge $-1 $280 $403 $402 $495 reversed $179 $-1 #
coedge $-1 $288 $283 $280 $406 forward $289 $-1 #
edge $-1 $409 -9.4266188313212318 $496 0.41395573334249391 $405 $497 forward 7 unknown #
coedge $-1 $282 $281 $412 $498 reversed $112 $-1 #
edge $-1 $499 -60.326213693632198 $409 -48.313090250369662 $403 $500 forward 7 unknown #
vertex $-1 $284 $501 #
straight-curve $-1 16.602767816945786 20.322532282152373 13.782221006211451 1 0 0 I I #
coedge $-1 $402 $285 $288 $416 reversed $278 $-1 #
coedge $-1 $285 $402 $407 $498 forward $278 $-1 #
vertex $-1 $286 $502 #
straight-curve $-1 24.200423259950512 30.163106846816099 76.981159494429988 0 0 1 I I #
straight-curve $-1 24.200423259950512 -19.253234112284439 41.493471498264853 0 0.81915203911291934 -0.57357644374324357 I I #
edge $-1 $496 -42.210648007832631 $290 -24.200423259950512 $411 $503 forward 7 unknown #
point $-1 24.200423259950512 30.163106846816099 13.782221006211453 #
point $-1 24.200423259950512 20.322532282152373 13.782221006211451 #
edge $-1 $504 1 $504 0 $293 $-1 forward 7 unknown #
vertex $-1 $294 $505 #
ellipse-curve $-1 29.346201759345405 21.199715674824336 4.5628480446273114 0 0.57357644374324357 0.81915203911291934 2.5 0 0 1 I I #
point $-1 31.846201759345405 25.242819564484247 10.336998694793904 #
edge $-1 $506 1 $506 0 $297 $-1 forward 7 unknown #
vertex $-1 $298 $507 #
ellipse-curve $-1 37.064869508437738 21.199715674824336 4.5628480446273114 0 0.57357644374324357 0.81915203911291934 2.5 0 0 1 I I #
point $-1 39.564869508437738 25.242819564484247 10.336998694793904 #
plane-surface $-1 68.64955595568712 0 0 -1 0 0 0 0 1 forward_v I I I I #
coedge $-1 $306 $304 $308 $432 reversed $201 $-1 #
edge $-1 $319 -13.782221006211453 $434 13.782221006211453 $318 $508 forward 7 unknown #
vertex $-1 $432 $509 #
straight-curve $-1 -68.64955595568712 -30.163106846816099 0 0 0 -1 I I #
edge $-1 $430 -30.163106846816099 $434 30.163106846816099 $428 $510 forward 7 unknown #
straight-curve $-1 0 -30.163106846816099 -13.782221006211453 -1 0 0 I I #
vertex $-1 $311 $511 #
straight-curve $-1 0 30.163106846816099 -13.782221006211453 1 0 0 I I #
point $-1 68.64955595568712 30.163106846816099 -13.782221006211453 #
point $-1 68.64955595568712 -30.163106846816099 -13.782221006211453 #
straight-curve $-1 -68.64955595568712 0 13.782221006211453 0 -1 0 I I #
point $-1 -68.64955595568712 30.163106846816099 13.782221006211453 #
point $-1 -68.64955595568712 -30.163106846816099 13.782221006211453 #
straight-curve $-1 68.64955595568712 -30.163106846816099 0 0 0 -1 I I #
straight-curve $-1 68.64955595568712 30.163106846816099 0 0 0 -1 I I #
loop $-1 $-1 $341 $328 #
plane-surface $-1 0 -30.163106846816099 0 0 1 0 0 0 1 forward_v I I I I #
coedge $-1 $332 $331 $453 $512 reversed $134 $-1 #
coedge $-1 $344 $343 $331 $447 forward $329 $-1 #
edge $-1 $513 -1.5 $450 1.5 $331 $514 forward 7 unknown #
edge $-1 $449 -1.5 $454 1.5 $332 $515 forward 7 unknown #
vertex $-1 $336 $516 #
vertex $-1 $347 $517 #
straight-curve $-1 -79.284028221134847 -27.163106846816099 0 0 0 -1 I I #
straight-curve $-1 -73.966792088410983 -27.163106846816099 13.782221006211453 -1 0 0 I I #
coedge $-1 $457 $337 $445 $512 forward $443 $-1 #
vertex $-1 $448 $518 #
straight-curve $-1 0 -30.163106846816099 13.782221006211453 1 0 0 I I #
point $-1 -68.64955595568712 -30.163106846816099 13.782221006211453 #
coedge $-1 $341 $453 $343 $459 reversed $443 $-1 #
straight-curve $-1 -68.64955595568712 -30.163106846816099 0 0 0 1 I I #
edge $-1 $345 -5.3172361327238633 $513 5.3172361327238633 $457 $519 forward 7 unknown #
point $-1 -68.64955595568712 -30.163106846816099 -13.782221006211453 #
straight-curve $-1 -73.966792088410983 -27.163106846816099 -13.782221006211453 1 0 0 I I #
plane-surface $-1 0 0 13.782221006211453 0 0 1 1 0 0 forward_v I I I I #
coedge $-1 $520 $521 $356 $467 forward $351 $-1 #
coedge $-1 $521 $520 $353 $465 reversed $351 $-1 #
edge $-1 $475 -13.782221006211453 $477 13.782221006211453 $464 $522 forward 7 unknown #
coedge $-1 $355 $354 $520 $523 forward $142 $-1 #
edge $-1 $471 -13.782221006211453 $468 13.782221006211453 $463 $524 forward 7 unknown #
vertex $-1 $467 $525 #
straight-curve $-1 73.966792088410998 -30.163106846816099 -13.782221006211453 -1 0 0 I I #
coedge $-1 $364 $358 $521 $526 forward $365 $-1 #
vertex $-1 $526 $527 #
straight-curve $-1 73.966792088410998 -30.163106846816099 13.782221006211453 1 0 0 I I #
point $-1 68.64955595568712 -30.163106846816099 13.782221006211453 #
point $-1 68.64955595568712 -30.163106846816099 -13.782221006211453 #
vertex $-1 $526 $528 #
straight-curve $-1 73.966792088410998 -27.163106846816099 13.782221006211453 -1 0 0 I I #
vertex $-1 $523 $529 #
straight-curve $-1 73.966792088410998 -27.163106846816099 -13.782221006211453 1 0 0 I I #
coedge $-1 $382 $381 $374 $480 forward $371 $-1 #
edge $-1 $481 31.803819787865635 $484 44.490279938622365 $479 $530 forward 7 unknown #
vertex $-1 $386 $531 #
straight-curve $-1 -18.647306956988942 -66.892031550211527 13.782221006211451 0 -1 0 I I #
edge $-1 $484 -14.083114131649079 $383 4.9547284809693544 $382 $532 forward 7 unknown #
vertex $-1 $483 $533 #
straight-curve $-1 -18.647306956988942 -30.163106846816106 1.0957608554547136 0 0.65605901945558964 0.75470958851134928 I I #
point $-1 -18.647306956988942 -19.134935569325155 13.782221006211451 #
point $-1 0.39053565562949188 -30.163106846816099 1.0957608554547218 #
straight-curve $-1 73.966792088410998 -30.163106846816099 13.782221006211453 1 0 0 I I #
vertex $-1 $389 $534 #
point $-1 -13.339738434465254 -21.68344576864763 4.8610555971280007 #
vertex $-1 $393 $535 #
point $-1 -7.628385650679725 -21.68344576864763 4.8610555971280007 #
vertex $-1 $397 $536 #
point $-1 -1.9170328668941892 -21.68344576864763 4.8610555971280007 #
edge $-1 $496 63.198938488218538 $499 70.08938311105365 $402 $537 forward 7 unknown #
vertex $-1 $416 $538 #
straight-curve $-1 42.210648007832631 29.749151113473605 13.782221006211458 0 1 0 I I #
edge $-1 $499 -25.607880190886846 $413 -7.5976554430047258 $412 $539 forward 7 unknown #
vertex $-1 $498 $540 #
straight-curve $-1 42.210648007832631 -19.253234112284439 41.493471498264853 0 -0.81915203911291934 0.57357644374324357 I I #
point $-1 42.210648007832631 20.322532282152373 13.782221006211451 #
point $-1 24.200423259950512 30.163106846816099 6.8917763833763317 #
straight-curve $-1 0 30.163106846816099 13.782221006211453 -1 0 0 I I #
vertex $-1 $419 $541 #
point $-1 31.846201759345405 21.199715674824336 4.5628480446273114 #
vertex $-1 $423 $542 #
point $-1 39.564869508437738 21.199715674824336 4.5628480446273114 #
straight-curve $-1 -68.64955595568712 30.163106846816099 0 0 0 -1 I I #
point $-1 -68.64955595568712 -30.163106846816099 -13.782221006211453 #
straight-curve $-1 -68.64955595568712 0 -13.782221006211453 0 1 0 I I #
point $-1 -68.64955595568712 30.163106846816099 -13.782221006211453 #
edge $-1 $454 -13.782221006211453 $513 13.782221006211453 $445 $543 forward 7 unknown #
vertex $-1 $447 $544 #
straight-curve $-1 -79.284028221134847 -28.663106846816099 -13.782221006211453 0 1 0 I I #
straight-curve $-1 -79.284028221134847 -28.663106846816099 13.782221006211453 0 -1 0 I I #
point $-1 -79.284028221134847 -27.163106846816099 13.782221006211453 #
point $-1 -79.284028221134847 -27.163106846816099 -13.782221006211453 #
point $-1 -79.284028221134847 -30.163106846816099 13.782221006211453 #
straight-curve $-1 -73.966792088410983 -30.163106846816099 -13.782221006211453 -1 0 0 I I #
coedge $-1 $464 $463 $466 $523 reversed $351 $-1 #
coedge $-1 $463 $464 $470 $526 reversed $351 $-1 #
straight-curve $-1 79.284028221134861 -27.163106846816099 0 0 0 -1 I I #
edge $-1 $477 -1.5 $468 1.5 $520 $545 forward 7 unknown #
straight-curve $-1 79.284028221134861 -30.163106846816099 0 0 0 -1 I I #
point $-1 79.284028221134861 -30.163106846816099 -13.782221006211453 #
edge $-1 $471 -1.5 $475 1.5 $521 $546 forward 7 unknown #
point $-1 79.284028221134861 -30.163106846816099 13.782221006211453 #
point $-1 79.284028221134861 -27.163106846816099 13.782221006211453 #
point $-1 79.284028221134861 -27.163106846816099 -13.782221006211453 #
straight-curve $-1 -18.647306956988942 -30.163106846816099 45.586040794077086 0 0 -1 I I #
point $-1 -18.647306956988942 -30.163106846816099 13.782221006211453 #
straight-curve $-1 -4.5641928253398625 -30.163106846816099 1.09576085545472 1 0 0 I I #
point $-1 -18.647306956988942 -30.163106846816099 1.0957608554547218 #
point $-1 -14.839738434465254 -20.551381385880603 3.8769670679446158 #
point $-1 -9.128385650679725 -20.551381385880603 3.8769670679446158 #
point $-1 -3.4170328668941892 -20.551381385880603 3.8769670679446158 #
straight-curve $-1 42.210648007832631 30.163106846816099 76.981159494429988 0 0 -1 I I #
point $-1 42.210648007832631 30.163106846816099 13.782221006211453 #
straight-curve $-1 16.602767816945786 30.163106846816103 6.8917763833763281 -1 0 0 I I #
point $-1 42.210648007832631 30.163106846816099 6.8917763833763317 #
point $-1 29.346201759345405 19.765774565466227 2.5149679468450126 #
point $-1 37.064869508437738 19.765774565466227 2.5149679468450126 #
straight-curve $-1 -79.284028221134847 -30.163106846816099 0 0 0 -1 I I #
point $-1 -79.284028221134847 -30.163106846816099 -13.782221006211453 #
straight-curve $-1 79.284028221134861 -28.663106846816099 -13.782221006211453 0 -1 0 I I #
straight-curve $-1 79.284028221134861 -28.663106846816099 13.782221006211453 0 1 0 I I #
End-of-ACIS-data 