500 0 3 0           
7 Unknown 11 ACIS 5.0 NT 24 Fri Mar 26 19:44:45 1999 
-1 9.9999999999999995e-007 1e-010 
body $-1 $3 $-1 $4 #
body $-1 $5 $-1 $6 #
body $-1 $7 $-1 $8 #
lump $-1 $-1 $9 $0 #
transform $-1 1 0 0 0 1 0 0 0 1 48.077639088106935 30.61140123585238 12.299305454588181 1 rotate no_reflect no_shear #
lump $-1 $-1 $10 $1 #
transform $-1 1 0 0 0 1 0 0 0 1 48.077639088106935 30.61140123585238 12.299305454588181 1 rotate no_reflect no_shear #
lump $-1 $-1 $11 $2 #
transform $-1 1 0 0 0 1 0 0 0 1 48.077639088106935 30.61140123585238 12.299305454588181 1 rotate no_reflect no_shear #
shell $-1 $-1 $-1 $12 $-1 $3 #
shell $-1 $-1 $-1 $13 $-1 $5 #
shell $-1 $-1 $-1 $14 $-1 $7 #
face $-1 $15 $16 $9 $-1 $17 forward single #
face $-1 $18 $19 $10 $-1 $20 reversed single #
face $-1 $21 $22 $11 $-1 $23 forward single #
face $-1 $24 $25 $9 $-1 $26 reversed single #
loop $-1 $-1 $27 $12 #
plane-surface $-1 0 0 12.299305454588181 0 0 1 1 0 0 forward_v I I I I #
face $-1 $28 $29 $10 $-1 $30 reversed single #
loop $-1 $-1 $31 $13 #
plane-surface $-1 -99.032174024183178 -5.1173668132040468 81.629156653868137 0 1 0 -0.52991927123019833 0 0.84804809178421925 forward_v I I I I #
face $-1 $32 $33 $11 $-1 $34 forward single #
loop $-1 $35 $36 $14 #
cone-surface $-1 -37.683035119568288 -0.31167483354926517 5.1982701621840324 0.52991927123019833 0 -0.84804809178421925 0.84804809178421925 0 0.52991927123019833 1 I I 0 1 1 forward I I I I #
face $-1 $37 $38 $9 $-1 $39 reversed single #
loop $-1 $-1 $40 $15 #
plane-surface $-1 0 0 -12.299305454588181 0 0 1 1 0 0 forward_v I I I I #
coedge $-1 $41 $42 $43 $44 forward $16 $-1 #
face $-1 $45 $46 $10 $-1 $47 reversed single #
loop $-1 $-1 $48 $18 #
plane-surface $-1 -48.077639088106928 -0.31167483354926517 0.08485648154918124 -0.52991927123019833 0 0.84804809178421925 0.84804809178421925 0 0.52991927123019833 forward_v I I I I #
coedge $-1 $49 $50 $51 $52 reversed $19 $-1 #
face $-1 $-1 $53 $11 $-1 $54 forward single #
loop $-1 $55 $56 $21 #
cone-surface $-1 -36.797073558358278 -0.31167483354926517 3.7804353104072757 0.52991927123019833 0 -0.84804809178421925 0.42402404589210962 0 0.26495963561509916 1 I I -0.70710678118654746 0.70710678118654746 0.5 forward I I I I #
loop $-1 $-1 $57 $14 #
coedge $-1 $36 $36 $58 $59 reversed $22 $-1 #
face $-1 $60 $61 $9 $-1 $62 reversed single #
loop $-1 $-1 $63 $24 #
plane-surface $-1 0 -30.61140123585238 0 0 1 0 0 0 1 forward_v I I I I #
coedge $-1 $64 $65 $66 $67 forward $25 $-1 #
coedge $-1 $68 $27 $69 $70 forward $16 $-1 #
coedge $-1 $27 $68 $71 $72 forward $16 $-1 #
coedge $-1 $73 $74 $27 $44 reversed $75 $-1 #
edge $-1 $76 -30.61140123585238 $77 30.61140123585238 $43 $78 forward 7 unknown #
face $-1 $79 $80 $10 $-1 $81 reversed single #
loop $-1 $-1 $82 $28 #
plane-surface $-1 -99.032174024183178 4.4940171461055165 81.629156653868137 0 -1 0 0.52991927123019833 0 -0.84804809178421925 forward_v I I I I #
coedge $-1 $83 $84 $85 $86 reversed $29 $-1 #
coedge $-1 $50 $31 $87 $88 reversed $19 $-1 #
coedge $-1 $31 $49 $83 $89 reversed $19 $-1 #
coedge $-1 $85 $90 $31 $52 forward $91 $-1 #
edge $-1 $92 1.4384479239846542 $93 20.985652009872123 $51 $94 forward 7 unknown #
loop $-1 $-1 $58 $32 #
plane-surface $-1 -48.077639088106928 -0.31167483354926517 0.08485648154918124 -0.52991927123019833 0 0.84804809178421925 0.84804809178421925 0 0.52991927123019833 forward_v I I I I #
loop $-1 $-1 $95 $21 #
coedge $-1 $56 $56 $57 $96 reversed $33 $-1 #
coedge $-1 $57 $57 $56 $96 forward $35 $-1 #
coedge $-1 $58 $58 $36 $59 forward $53 $-1 #
edge $-1 $97 0 $97 6.2831853071796004 $58 $98 forward 7 unknown #
face $-1 $99 $100 $9 $-1 $101 reversed single #
loop $-1 $-1 $102 $37 #
plane-surface $-1 -48.077639088106935 0 0 1 0 0 0 0 -1 forward_v I I I I #
coedge $-1 $103 $71 $104 $105 forward $38 $-1 #
coedge $-1 $106 $40 $103 $107 forward $25 $-1 #
coedge $-1 $40 $106 $108 $109 forward $25 $-1 #
coedge $-1 $74 $73 $40 $67 reversed $75 $-1 #
edge $-1 $110 -30.61140123585238 $111 30.61140123585238 $66 $112 forward 7 unknown #
coedge $-1 $42 $41 $113 $114 forward $16 $-1 #
coedge $-1 $115 $116 $41 $70 reversed $100 $-1 #
edge $-1 $77 -48.077639088106935 $117 48.077639088106935 $69 $118 forward 7 unknown #
coedge $-1 $63 $119 $42 $72 reversed $38 $-1 #
edge $-1 $120 -48.077639088106935 $76 48.077639088106935 $71 $121 forward 7 unknown #
coedge $-1 $66 $43 $119 $122 forward $75 $-1 #
coedge $-1 $43 $66 $115 $123 reversed $75 $-1 #
loop $-1 $-1 $73 $99 #
vertex $-1 $44 $124 #
vertex $-1 $44 $125 #
straight-curve $-1 48.077639088106935 0 12.299305454588181 0 1 0 I I #
face $-1 $-1 $91 $10 $-1 $126 forward single #
loop $-1 $-1 $127 $45 #
plane-surface $-1 -48.077639088106935 0 0 1 0 0 0 0 -1 forward_v I I I I #
coedge $-1 $128 $129 $130 $131 reversed $46 $-1 #
coedge $-1 $132 $48 $50 $89 forward $29 $-1 #
coedge $-1 $48 $132 $128 $133 forward $29 $-1 #
coedge $-1 $130 $51 $48 $86 forward $91 $-1 #
edge $-1 $93 -4.9615293964294143 $134 4.6498545628801491 $85 $135 forward 7 unknown #
coedge $-1 $136 $137 $49 $88 forward $80 $-1 #
edge $-1 $138 -40.729721845384894 $92 -28.515272872345889 $87 $139 forward 7 unknown #
edge $-1 $93 -23.049641023024826 $138 8.3790584163743152e-015 $50 $140 forward 7 unknown #
coedge $-1 $51 $130 $136 $141 forward $91 $-1 #
loop $-1 $-1 $130 $79 #
vertex $-1 $88 $142 #
vertex $-1 $52 $143 #
straight-curve $-1 -49.516087012091589 -5.1173668132040468 12.299305454588179 1 0 0 I I #
coedge $-1 $95 $95 $-1 $144 reversed $55 $-1 #
edge $-1 $145 0 $145 6.2831853071796004 $56 $146 forward 7 unknown #
vertex $-1 $59 $147 #
ellipse-curve $-1 -38.304037045163199 -0.31167483354926517 6.1920809680686801 -0.52991927123019833 0 0.84804809178421925 0.84804809178421925 0 0.52991927123019833 1 I I #
face $-1 $-1 $75 $9 $-1 $148 reversed single #
loop $-1 $-1 $115 $60 #
plane-surface $-1 0 30.61140123585238 0 0 -1 0 0 0 -1 forward_v I I I I #
coedge $-1 $149 $113 $116 $150 forward $61 $-1 #
coedge $-1 $119 $63 $64 $107 reversed $38 $-1 #
coedge $-1 $113 $149 $63 $105 reversed $61 $-1 #
edge $-1 $120 -12.299305454588181 $151 12.299305454588181 $104 $152 forward 7 unknown #
coedge $-1 $65 $64 $149 $153 forward $25 $-1 #
edge $-1 $111 -48.077639088106935 $151 48.077639088106935 $103 $154 forward 7 unknown #
coedge $-1 $116 $115 $65 $109 reversed $100 $-1 #
edge $-1 $155 -48.077639088106935 $110 48.077639088106935 $108 $156 forward 7 unknown #
vertex $-1 $67 $157 #
vertex $-1 $122 $158 #
straight-curve $-1 48.077639088106935 0 -12.299305454588181 0 -1 0 I I #
coedge $-1 $102 $104 $68 $114 reversed $61 $-1 #
edge $-1 $117 -30.61140123585238 $120 30.61140123585238 $113 $159 forward 7 unknown #
coedge $-1 $108 $69 $74 $123 forward $100 $-1 #
coedge $-1 $69 $108 $102 $150 reversed $100 $-1 #
vertex $-1 $70 $160 #
straight-curve $-1 0 30.61140123585238 12.299305454588181 -1 0 0 I I #
coedge $-1 $71 $103 $73 $122 reversed $38 $-1 #
vertex $-1 $114 $161 #
straight-curve $-1 0 -30.61140123585238 12.299305454588181 1 0 0 I I #
edge $-1 $76 -12.299305454588181 $111 12.299305454588181 $73 $162 forward 7 unknown #
edge $-1 $77 -12.299305454588181 $110 12.299305454588181 $74 $163 forward 7 unknown #
point $-1 48.077639088106935 -30.61140123585238 12.299305454588181 #
point $-1 48.077639088106935 30.61140123585238 12.299305454588181 #
plane-surface $-1 0 0 12.299305454588181 0 0 1 1 0 0 forward_v I I I I #
coedge $-1 $137 $136 $129 $164 forward $80 $-1 #
coedge $-1 $129 $82 $84 $133 reversed $46 $-1 #
coedge $-1 $82 $128 $127 $164 reversed $46 $-1 #
coedge $-1 $90 $85 $82 $131 forward $91 $-1 #
edge $-1 $134 -20.985652009872123 $165 -1.4384479239846542 $130 $166 forward 7 unknown #
coedge $-1 $84 $83 $137 $167 reversed $29 $-1 #
edge $-1 $168 -8.3790584163743152e-015 $134 23.049641023024826 $128 $169 forward 7 unknown #
vertex $-1 $86 $170 #
straight-curve $-1 -28.530435002219466 -0.15583741677463259 12.299305454588181 0 1 0 I I #
coedge $-1 $127 $87 $90 $141 reversed $80 $-1 #
coedge $-1 $87 $127 $132 $167 forward $80 $-1 #
vertex $-1 $88 $171 #
straight-curve $-1 -48.077639088106935 -5.1173668132040468 40.814578326934068 0 0 1 I I #
straight-curve $-1 -48.077639088106928 -5.1173668132040468 0.08485648154918124 -0.84804809178421925 0 -0.52991927123019833 I I #
edge $-1 $165 -4.4940171461055165 $92 5.1173668132040468 $136 $172 forward 7 unknown #
point $-1 -48.077639088106935 -5.1173668132040468 12.299305454588181 #
point $-1 -28.530435002219466 -5.1173668132040468 12.299305454588181 #
edge $-1 $173 1 $173 0 $95 $-1 forward 7 unknown #
vertex $-1 $96 $174 #
ellipse-curve $-1 -37.062033193973377 -0.31167483354926517 4.2044593562993855 -0.52991927123019833 0 0.84804809178421925 0.84804809178421925 0 0.52991927123019833 1 I I #
point $-1 -37.455988953378977 -0.31167483354926517 6.7220002392988789 #
plane-surface $-1 48.077639088106935 0 0 -1 0 0 0 0 1 forward_v I I I I #
coedge $-1 $104 $102 $106 $153 reversed $61 $-1 #
edge $-1 $117 -12.299305454588181 $155 12.299305454588181 $116 $175 forward 7 unknown #
vertex $-1 $153 $176 #
straight-curve $-1 -48.077639088106935 -30.61140123585238 0 0 0 -1 I I #
edge $-1 $151 -30.61140123585238 $155 30.61140123585238 $149 $177 forward 7 unknown #
straight-curve $-1 0 -30.61140123585238 -12.299305454588181 -1 0 0 I I #
vertex $-1 $109 $178 #
straight-curve $-1 0 30.61140123585238 -12.299305454588181 1 0 0 I I #
point $-1 48.077639088106935 30.61140123585238 -12.299305454588181 #
point $-1 48.077639088106935 -30.61140123585238 -12.299305454588181 #
straight-curve $-1 -48.077639088106935 0 12.299305454588181 0 -1 0 I I #
point $-1 -48.077639088106935 30.61140123585238 12.299305454588181 #
point $-1 -48.077639088106935 -30.61140123585238 12.299305454588181 #
straight-curve $-1 48.077639088106935 -30.61140123585238 0 0 0 -1 I I #
straight-curve $-1 48.077639088106935 30.61140123585238 0 0 0 -1 I I #
edge $-1 $165 28.515272872345889 $168 40.729721845384894 $127 $179 forward 7 unknown #
vertex $-1 $141 $180 #
straight-curve $-1 -49.516087012091589 4.4940171461055165 12.299305454588179 -1 0 0 I I #
edge $-1 $168 -4.6498545628801491 $138 4.9615293964294143 $137 $181 forward 7 unknown #
vertex $-1 $167 $182 #
straight-curve $-1 -48.077639088106928 4.4940171461055165 0.08485648154918124 0.84804809178421925 0 0.52991927123019833 I I #
point $-1 -28.530435002219466 4.4940171461055165 12.299305454588181 #
point $-1 -48.077639088106935 -5.1173668132040468 0.084856481549176799 #
straight-curve $-1 -48.077639088106935 0 12.299305454588181 0 -1 0 I I #
vertex $-1 $144 $183 #
point $-1 -36.213985102189156 -0.31167483354926517 4.7343786275295834 #
straight-curve $-1 -48.077639088106935 30.61140123585238 0 0 0 -1 I I #
point $-1 -48.077639088106935 -30.61140123585238 -12.299305454588181 #
straight-curve $-1 -48.077639088106935 0 -12.299305454588181 0 1 0 I I #
point $-1 -48.077639088106935 30.61140123585238 -12.299305454588181 #
straight-curve $-1 -48.077639088106935 4.4940171461055165 40.814578326934068 0 0 -1 I I #
point $-1 -48.077639088106935 4.4940171461055165 12.299305454588181 #
straight-curve $-1 -48.077639088106935 -0.15583741677463259 0.084856481549181059 0 -1 0 I I #
point $-1 -48.077639088106935 4.4940171461055165 0.084856481549176799 #
point $-1 -36.532113922743179 -0.31167483354926517 3.3564112645151658 #
End-of-ACIS-data 