500 0 10 0           
7 Unknown 11 ACIS 5.0 NT 24 Fri Mar 26 02:43:57 1999 
-1 9.9999999999999995e-007 1e-010 
body $-1 $10 $-1 $11 #
body $-1 $12 $-1 $13 #
body $-1 $14 $-1 $15 #
body $-1 $16 $-1 $17 #
body $-1 $18 $-1 $19 #
body $-1 $20 $-1 $21 #
body $-1 $22 $-1 $23 #
body $-1 $24 $-1 $25 #
body $-1 $26 $-1 $27 #
body $-1 $28 $-1 $29 #
lump $-1 $-1 $30 $0 #
transform $-1 1 0 0 0 1 0 0 0 1 73.56547746208075 49.334468057718276 16.801151434555443 1 rotate no_reflect no_shear #
lump $-1 $-1 $31 $1 #
transform $-1 1 0 0 0 1 0 0 0 1 73.56547746208075 49.334468057718276 16.801151434555443 1 rotate no_reflect no_shear #
lump $-1 $-1 $32 $2 #
transform $-1 1 0 0 0 1 0 0 0 1 73.56547746208075 49.334468057718276 16.801151434555443 1 rotate no_reflect no_shear #
lump $-1 $-1 $33 $3 #
transform $-1 1 0 0 0 1 0 0 0 1 73.56547746208075 49.334468057718276 16.801151434555443 1 rotate no_reflect no_shear #
lump $-1 $-1 $34 $4 #
transform $-1 1 0 0 0 1 0 0 0 1 73.56547746208075 49.334468057718276 16.801151434555443 1 rotate no_reflect no_shear #
lump $-1 $-1 $35 $5 #
transform $-1 1 0 0 0 1 0 0 0 1 73.56547746208075 49.334468057718276 16.801151434555443 1 rotate no_reflect no_shear #
lump $-1 $-1 $36 $6 #
transform $-1 1 0 0 0 1 0 0 0 1 73.56547746208075 49.334468057718276 16.801151434555443 1 rotate no_reflect no_shear #
lump $-1 $-1 $37 $7 #
transform $-1 1 0 0 0 1 0 0 0 1 73.56547746208075 49.334468057718276 16.801151434555443 1 rotate no_reflect no_shear #
lump $-1 $-1 $38 $8 #
transform $-1 1 0 0 0 1 0 0 0 1 73.56547746208075 49.334468057718276 16.801151434555443 1 rotate no_reflect no_shear #
lump $-1 $-1 $39 $9 #
transform $-1 1 0 0 0 1 0 0 0 1 73.56547746208075 49.334468057718276 16.801151434555443 1 rotate no_reflect no_shear #
shell $-1 $-1 $-1 $40 $-1 $10 #
shell $-1 $-1 $-1 $41 $-1 $12 #
shell $-1 $-1 $-1 $42 $-1 $14 #
shell $-1 $-1 $-1 $43 $-1 $16 #
shell $-1 $-1 $-1 $44 $-1 $18 #
shell $-1 $-1 $-1 $45 $-1 $20 #
shell $-1 $-1 $-1 $46 $-1 $22 #
shell $-1 $-1 $-1 $47 $-1 $24 #
shell $-1 $-1 $-1 $48 $-1 $26 #
shell $-1 $-1 $-1 $49 $-1 $28 #
face $-1 $50 $51 $30 $-1 $52 forward single #
face $-1 $53 $54 $31 $-1 $55 reversed single #
face $-1 $56 $57 $32 $-1 $58 reversed single #
face $-1 $59 $60 $33 $-1 $61 forward single #
face $-1 $62 $63 $34 $-1 $64 forward single #
face $-1 $65 $66 $35 $-1 $67 forward single #
face $-1 $68 $69 $36 $-1 $70 reversed single #
face $-1 $71 $72 $37 $-1 $73 forward single #
face $-1 $74 $75 $38 $-1 $76 forward single #
face $-1 $77 $78 $39 $-1 $79 forward single #
face $-1 $80 $81 $30 $-1 $82 reversed single #
loop $-1 $-1 $83 $40 #
plane-surface $-1 0 0 16.801151434555443 0 0 1 1 0 0 forward_v I I I I #
face $-1 $84 $85 $31 $-1 $86 reversed single #
loop $-1 $-1 $87 $41 #
plane-surface $-1 0 -39.147069606267358 12.117420916226328 0 0 1 1 0 0 forward_v I I I I #
face $-1 $88 $89 $32 $-1 $90 reversed single #
loop $-1 $-1 $91 $42 #
plane-surface $-1 123.90328023158743 1.3492226092284252 207.56690229871398 0 -1 0 -0.85716730853699208 0 -0.51503806187062418 forward_v I I I I #
face $-1 $92 $93 $33 $-1 $94 forward single #
loop $-1 $95 $96 $43 #
cone-surface $-1 68.138509330414834 -15.623117431768293 9.9850469462029636 -0.85716730853699208 0 -0.51503806187062418 0.77255709280593621 0 -1.2857509628054882 1 I I 0 1 1.5 forward I I I I #
face $-1 $97 $98 $34 $-1 $99 forward single #
loop $-1 $100 $101 $44 #
cone-surface $-1 68.138509330414834 -9.2584899163945238 9.9850469462029636 -0.85716730853699208 0 -0.51503806187062418 0.77255709280593621 0 -1.2857509628054882 1 I I 0 1 1.5 forward I I I I #
face $-1 $102 $103 $35 $-1 $104 forward single #
loop $-1 $105 $106 $45 #
cone-surface $-1 68.138509330414834 -2.8938624010207548 9.9850469462029636 -0.85716730853699208 0 -0.51503806187062418 0.77255709280593621 0 -1.2857509628054882 1 I I 0 1 1.5 forward I I I I #
face $-1 $107 $108 $36 $-1 $109 reversed single #
loop $-1 $-1 $110 $46 #
plane-surface $-1 -73.565477462080736 -20.732777145120167 4.4962093436652566 -0.81915205242281985 0 0.57357642473473569 0.57357642473473569 0 0.81915205242281985 forward_v I I I I #
face $-1 $111 $112 $37 $-1 $113 forward single #
loop $-1 $114 $115 $47 #
cone-surface $-1 -66.860594383134256 -25.66891355093793 8.9703693732526038 0.81915205242281985 0 -0.57357642473473569 0.86036463710210354 0 1.2287280786342298 1 I I 0 1 1.5 forward I I I I #
face $-1 $116 $117 $38 $-1 $118 forward single #
loop $-1 $119 $120 $48 #
cone-surface $-1 -66.860594383134256 -20.732777145120167 8.9703693732526038 0.81915205242281985 0 -0.57357642473473569 0.86036463710210354 0 1.2287280786342298 1 I I 0 1 1.5 forward I I I I #
face $-1 $121 $122 $39 $-1 $123 forward single #
loop $-1 $124 $125 $49 #
cone-surface $-1 -66.860594383134256 -15.796640739302404 8.9703693732526038 0.81915205242281985 0 -0.57357642473473569 0.86036463710210354 0 1.2287280786342298 1 I I 0 1 1.5 forward I I I I #
face $-1 $126 $127 $30 $-1 $128 reversed single #
loop $-1 $-1 $129 $50 #
plane-surface $-1 0 0 -16.801151434555443 0 0 1 1 0 0 forward_v I I I I #
coedge $-1 $130 $131 $132 $133 forward $51 $-1 #
face $-1 $134 $135 $31 $-1 $136 reversed single #
loop $-1 $-1 $137 $53 #
plane-surface $-1 0 -28.959671154816441 14.459286175390886 0 -1 0 0 0 -1 forward_v I I I I #
coedge $-1 $138 $139 $140 $141 reversed $54 $-1 #
face $-1 $142 $143 $32 $-1 $144 reversed single #
loop $-1 $-1 $145 $56 #
plane-surface $-1 -2.2125644032335856 -9.2584899163945238 131.78886043339969 0.85716730853699208 0 0.51503806187062418 0.51503806187062418 0 -0.85716730853699208 forward_v I I I I #
coedge $-1 $146 $147 $148 $149 reversed $57 $-1 #
face $-1 $-1 $150 $33 $-1 $151 forward single #
loop $-1 $152 $153 $59 #
cone-surface $-1 65.411894835573534 -15.623117431768293 8.3467317294359091 -0.85716730853699208 0 -0.51503806187062418 0.3862785464029681 0 -0.64287548140274409 1 I I -0.70710678118654757 0.70710678118654757 0.75 forward I I I I #
loop $-1 $-1 $154 $43 #
coedge $-1 $96 $96 $155 $156 reversed $60 $-1 #
face $-1 $-1 $157 $34 $-1 $158 forward single #
loop $-1 $159 $160 $62 #
cone-surface $-1 65.411894835573534 -9.2584899163945238 8.3467317294359091 -0.85716730853699208 0 -0.51503806187062418 0.3862785464029681 0 -0.64287548140274409 1 I I -0.70710678118654757 0.70710678118654757 0.75 forward I I I I #
loop $-1 $-1 $161 $44 #
coedge $-1 $101 $101 $162 $163 reversed $63 $-1 #
face $-1 $-1 $164 $35 $-1 $165 forward single #
loop $-1 $166 $167 $65 #
cone-surface $-1 65.411894835573534 -2.8938624010207548 8.3467317294359091 -0.85716730853699208 0 -0.51503806187062418 0.3862785464029681 0 -0.64287548140274409 1 I I -0.70710678118654757 0.70710678118654757 0.75 forward I I I I #
loop $-1 $-1 $168 $45 #
coedge $-1 $106 $106 $169 $170 reversed $66 $-1 #
face $-1 $171 $172 $36 $-1 $173 forward single #
loop $-1 $-1 $174 $68 #
plane-surface $-1 -194.08810116313703 -12.505883135423899 88.887056436873365 0 -1 0 0.81915205242281985 0 -0.57357642473473569 forward_v I I I I #
coedge $-1 $175 $176 $177 $178 reversed $69 $-1 #
face $-1 $-1 $179 $37 $-1 $180 forward single #
loop $-1 $181 $182 $71 #
cone-surface $-1 -63.849353739484059 -25.66891355093793 6.8618760388438034 0.81915205242281985 0 -0.57357642473473569 0.43018231855105177 0 0.61436403931711492 1 I I -0.70710678118654757 0.70710678118654757 0.75 forward I I I I #
loop $-1 $-1 $183 $47 #
coedge $-1 $115 $115 $184 $185 reversed $72 $-1 #
face $-1 $-1 $186 $38 $-1 $187 forward single #
loop $-1 $188 $189 $74 #
cone-surface $-1 -63.849353739484059 -20.732777145120167 6.8618760388438034 0.81915205242281985 0 -0.57357642473473569 0.43018231855105177 0 0.61436403931711492 1 I I -0.70710678118654757 0.70710678118654757 0.75 forward I I I I #
loop $-1 $-1 $190 $48 #
coedge $-1 $120 $120 $191 $192 reversed $75 $-1 #
face $-1 $-1 $193 $39 $-1 $194 forward single #
loop $-1 $195 $196 $77 #
cone-surface $-1 -63.849353739484059 -15.796640739302404 6.8618760388438034 0.81915205242281985 0 -0.57357642473473569 0.43018231855105177 0 0.61436403931711492 1 I I -0.70710678118654757 0.70710678118654757 0.75 forward I I I I #
loop $-1 $-1 $197 $49 #
coedge $-1 $125 $125 $198 $199 reversed $78 $-1 #
face $-1 $200 $201 $30 $-1 $202 reversed single #
loop $-1 $-1 $203 $80 #
plane-surface $-1 0 -49.334468057718276 0 0 1 0 0 0 1 forward_v I I I I #
coedge $-1 $204 $205 $206 $207 forward $81 $-1 #
coedge $-1 $208 $83 $209 $210 forward $51 $-1 #
coedge $-1 $83 $208 $211 $212 forward $51 $-1 #
coedge $-1 $213 $214 $83 $133 reversed $215 $-1 #
edge $-1 $216 -49.334468057718276 $217 49.334468057718276 $132 $218 forward 7 unknown #
face $-1 $219 $220 $31 $-1 $221 reversed single #
loop $-1 $-1 $222 $84 #
plane-surface $-1 -73.56547746208075 0 0 1 0 0 0 0 -1 forward_v I I I I #
coedge $-1 $223 $224 $225 $226 reversed $85 $-1 #
coedge $-1 $227 $87 $228 $229 reversed $54 $-1 #
coedge $-1 $87 $227 $223 $230 forward $54 $-1 #
coedge $-1 $225 $231 $87 $141 forward $232 $-1 #
edge $-1 $233 -29.760933254584597 $234 -9.3861363516827616 $140 $235 forward 7 unknown #
face $-1 $236 $237 $32 $-1 $238 reversed single #
loop $-1 $-1 $239 $88 #
plane-surface $-1 123.90328023158743 -19.866202442017475 207.56690229871398 0 1 0 0.85716730853699208 0 0.51503806187062418 forward_v I I I I #
coedge $-1 $240 $241 $242 $243 reversed $89 $-1 #
coedge $-1 $147 $91 $244 $245 reversed $57 $-1 #
coedge $-1 $91 $146 $240 $246 reversed $57 $-1 #
coedge $-1 $242 $247 $91 $149 forward $248 $-1 #
edge $-1 $249 -11.613837346287035 $250 -4.9273791098322945 $148 $251 forward 7 unknown #
loop $-1 $-1 $155 $92 #
plane-surface $-1 -2.2125644032335856 -9.2584899163945238 131.78886043339969 0.85716730853699208 0 0.51503806187062418 0.51503806187062418 0 -0.85716730853699208 forward_v I I I I #
loop $-1 $-1 $252 $59 #
coedge $-1 $153 $153 $154 $253 reversed $93 $-1 #
coedge $-1 $154 $154 $153 $253 forward $95 $-1 #
coedge $-1 $155 $155 $96 $156 forward $150 $-1 #
edge $-1 $254 0 $254 6.2831853071796004 $155 $255 forward 7 unknown #
loop $-1 $-1 $162 $97 #
plane-surface $-1 -2.2125644032335856 -9.2584899163945238 131.78886043339969 0.85716730853699208 0 0.51503806187062418 0.51503806187062418 0 -0.85716730853699208 forward_v I I I I #
loop $-1 $-1 $256 $62 #
coedge $-1 $160 $160 $161 $257 reversed $98 $-1 #
coedge $-1 $161 $161 $160 $257 forward $100 $-1 #
coedge $-1 $162 $162 $101 $163 forward $157 $-1 #
edge $-1 $258 0 $258 6.2831853071796004 $162 $259 forward 7 unknown #
loop $-1 $-1 $169 $102 #
plane-surface $-1 -2.2125644032335856 -9.2584899163945238 131.78886043339969 0.85716730853699208 0 0.51503806187062418 0.51503806187062418 0 -0.85716730853699208 forward_v I I I I #
loop $-1 $-1 $260 $65 #
coedge $-1 $167 $167 $168 $261 reversed $103 $-1 #
coedge $-1 $168 $168 $167 $261 forward $105 $-1 #
coedge $-1 $169 $169 $106 $170 forward $164 $-1 #
edge $-1 $262 0 $262 6.2831853071796004 $169 $263 forward 7 unknown #
face $-1 $264 $265 $36 $-1 $266 reversed single #
loop $-1 $-1 $177 $107 #
plane-surface $-1 0 0 16.801151434555443 0 0 1 1 0 0 forward_v I I I I #
coedge $-1 $267 $268 $269 $270 reversed $108 $-1 #
coedge $-1 $271 $110 $272 $273 reversed $69 $-1 #
coedge $-1 $110 $271 $267 $274 forward $69 $-1 #
coedge $-1 $269 $275 $110 $178 forward $172 $-1 #
edge $-1 $276 -18.59328258225635 $277 -2.1394945628638151 $177 $278 forward 7 unknown #
loop $-1 $-1 $184 $111 #
plane-surface $-1 -73.565477462080736 -20.732777145120167 4.4962093436652566 -0.81915205242281985 0 0.57357642473473569 0.57357642473473569 0 0.81915205242281985 forward_v I I I I #
loop $-1 $-1 $279 $71 #
coedge $-1 $182 $182 $183 $280 reversed $112 $-1 #
coedge $-1 $183 $183 $182 $280 forward $114 $-1 #
coedge $-1 $184 $184 $115 $185 forward $179 $-1 #
edge $-1 $281 0 $281 6.2831853071796004 $184 $282 forward 7 unknown #
loop $-1 $-1 $191 $116 #
plane-surface $-1 -73.565477462080736 -20.732777145120167 4.4962093436652566 -0.81915205242281985 0 0.57357642473473569 0.57357642473473569 0 0.81915205242281985 forward_v I I I I #
loop $-1 $-1 $283 $74 #
coedge $-1 $189 $189 $190 $284 reversed $117 $-1 #
coedge $-1 $190 $190 $189 $284 forward $119 $-1 #
coedge $-1 $191 $191 $120 $192 forward $186 $-1 #
edge $-1 $285 0 $285 6.2831853071796004 $191 $286 forward 7 unknown #
loop $-1 $-1 $198 $121 #
plane-surface $-1 -73.565477462080736 -20.732777145120167 4.4962093436652566 -0.81915205242281985 0 0.57357642473473569 0.57357642473473569 0 0.81915205242281985 forward_v I I I I #
loop $-1 $-1 $287 $77 #
coedge $-1 $196 $196 $197 $288 reversed $122 $-1 #
coedge $-1 $197 $197 $196 $288 forward $124 $-1 #
coedge $-1 $198 $198 $125 $199 forward $193 $-1 #
edge $-1 $289 0 $289 6.2831853071796004 $198 $290 forward 7 unknown #
face $-1 $291 $292 $30 $-1 $293 reversed single #
loop $-1 $-1 $294 $126 #
plane-surface $-1 -73.56547746208075 0 0 1 0 0 0 0 -1 forward_v I I I I #
coedge $-1 $295 $211 $296 $297 forward $127 $-1 #
coedge $-1 $298 $129 $295 $299 forward $81 $-1 #
coedge $-1 $129 $298 $300 $301 forward $81 $-1 #
coedge $-1 $214 $213 $129 $207 reversed $215 $-1 #
edge $-1 $302 -49.334468057718276 $303 49.334468057718276 $206 $304 forward 7 unknown #
coedge $-1 $131 $130 $305 $306 forward $51 $-1 #
coedge $-1 $307 $308 $130 $210 reversed $292 $-1 #
edge $-1 $217 -73.56547746208075 $309 73.56547746208075 $209 $310 forward 7 unknown #
coedge $-1 $203 $311 $131 $212 reversed $127 $-1 #
edge $-1 $312 -73.56547746208075 $216 73.56547746208075 $211 $313 forward 7 unknown #
coedge $-1 $206 $132 $311 $314 forward $215 $-1 #
coedge $-1 $132 $206 $307 $315 reversed $215 $-1 #
loop $-1 $-1 $213 $291 #
vertex $-1 $133 $316 #
vertex $-1 $133 $317 #
straight-curve $-1 73.56547746208075 0 16.801151434555443 0 1 0 I I #
face $-1 $318 $319 $31 $-1 $320 forward single #
loop $-1 $-1 $228 $134 #
plane-surface $-1 0 -49.334468057718276 0 0 1 0 0 0 1 forward_v I I I I #
coedge $-1 $321 $322 $323 $324 forward $135 $-1 #
coedge $-1 $323 $137 $139 $230 reversed $85 $-1 #
coedge $-1 $137 $323 $325 $326 reversed $85 $-1 #
coedge $-1 $327 $140 $137 $226 forward $232 $-1 #
edge $-1 $234 4.8877778285308846 $328 9.57150834686 $225 $329 forward 7 unknown #
coedge $-1 $139 $138 $321 $330 reversed $54 $-1 #
coedge $-1 $331 $332 $138 $229 forward $220 $-1 #
edge $-1 $333 -73.56547746208075 $233 73.56547746208075 $228 $334 forward 7 unknown #
edge $-1 $335 -73.56547746208075 $234 73.56547746208075 $223 $336 forward 7 unknown #
coedge $-1 $140 $327 $331 $337 forward $232 $-1 #
loop $-1 $-1 $225 $318 #
vertex $-1 $229 $338 #
vertex $-1 $141 $339 #
straight-curve $-1 73.56547746208075 -19.573534803133679 12.117420916226328 0 1 0 I I #
face $-1 $-1 $248 $32 $-1 $340 forward single #
loop $-1 $-1 $341 $142 #
plane-surface $-1 73.56547746208075 0 0 -1 0 0 0 0 1 forward_v I I I I #
coedge $-1 $342 $343 $344 $345 reversed $143 $-1 #
coedge $-1 $346 $145 $147 $246 forward $89 $-1 #
coedge $-1 $145 $346 $342 $347 forward $89 $-1 #
coedge $-1 $344 $148 $145 $243 forward $248 $-1 #
edge $-1 $250 -5.9784675674256871 $348 15.236957483820213 $242 $349 forward 7 unknown #
coedge $-1 $350 $351 $146 $245 forward $237 $-1 #
edge $-1 $352 -98.11043535077836 $249 -86.982299714801542 $244 $353 forward 7 unknown #
edge $-1 $250 134.14850036115425 $352 147.13095492416159 $147 $354 forward 7 unknown #
coedge $-1 $148 $344 $350 $355 forward $248 $-1 #
loop $-1 $-1 $344 $236 #
vertex $-1 $245 $356 #
vertex $-1 $149 $357 #
straight-curve $-1 61.951640115793715 1.3492226092284252 16.80115143455545 -1 0 0 I I #
coedge $-1 $252 $252 $-1 $358 reversed $152 $-1 #
edge $-1 $359 0 $359 6.2831853071796004 $153 $360 forward 7 unknown #
vertex $-1 $156 $361 #
ellipse-curve $-1 70.222248343853366 -15.623117431768293 11.237083616567038 0.85716730853699208 0 0.51503806187062418 0.77255709280593621 0 -1.2857509628054882 1 I I #
coedge $-1 $256 $256 $-1 $362 reversed $159 $-1 #
edge $-1 $363 0 $363 6.2831853071796004 $160 $364 forward 7 unknown #
vertex $-1 $163 $365 #
ellipse-curve $-1 70.222248343853366 -9.2584899163945238 11.237083616567038 0.85716730853699208 0 0.51503806187062418 0.77255709280593621 0 -1.2857509628054882 1 I I #
coedge $-1 $260 $260 $-1 $366 reversed $166 $-1 #
edge $-1 $367 0 $367 6.2831853071796004 $167 $368 forward 7 unknown #
vertex $-1 $170 $369 #
ellipse-curve $-1 70.222248343853366 -2.8938624010207548 11.237083616567038 0.85716730853699208 0 0.51503806187062418 0.77255709280593621 0 -1.2857509628054882 1 I I #
face $-1 $-1 $370 $36 $-1 $371 forward single #
loop $-1 $-1 $372 $171 #
plane-surface $-1 -73.56547746208075 0 0 1 0 0 0 0 -1 forward_v I I I I #
coedge $-1 $268 $174 $176 $274 reversed $108 $-1 #
coedge $-1 $174 $267 $372 $373 reversed $108 $-1 #
coedge $-1 $374 $177 $174 $270 forward $172 $-1 #
edge $-1 $277 -32.094586068714619 $375 -23.478573119487763 $269 $376 forward 7 unknown #
coedge $-1 $176 $175 $377 $378 reversed $69 $-1 #
coedge $-1 $379 $380 $175 $273 forward $370 $-1 #
edge $-1 $381 -25.178349190879196 $276 -10.156788719296811 $272 $382 forward 7 unknown #
edge $-1 $383 -2.4884734274515653e-014 $277 15.021560471582358 $267 $384 forward 7 unknown #
coedge $-1 $177 $374 $379 $385 forward $172 $-1 #
vertex $-1 $273 $386 #
vertex $-1 $178 $387 #
straight-curve $-1 -64.949464512853908 -10.366388572560084 16.801151434555443 0 1 0 I I #
coedge $-1 $279 $279 $-1 $388 reversed $181 $-1 #
edge $-1 $389 0 $389 6.2831853071796004 $182 $390 forward 7 unknown #
vertex $-1 $185 $391 #
ellipse-curve $-1 -69.257470987467329 -25.66891355093793 10.648680389110343 -0.81915205242281985 0 0.57357642473473569 0.86036463710210354 0 1.2287280786342298 1 I I #
coedge $-1 $283 $283 $-1 $392 reversed $188 $-1 #
edge $-1 $393 0 $393 6.2831853071796004 $189 $394 forward 7 unknown #
vertex $-1 $192 $395 #
ellipse-curve $-1 -69.257470987467329 -20.732777145120167 10.648680389110343 -0.81915205242281985 0 0.57357642473473569 0.86036463710210354 0 1.2287280786342298 1 I I #
coedge $-1 $287 $287 $-1 $396 reversed $195 $-1 #
edge $-1 $397 0 $397 6.2831853071796004 $196 $398 forward 7 unknown #
vertex $-1 $199 $399 #
ellipse-curve $-1 -69.257470987467329 -15.796640739302404 10.648680389110343 -0.81915205242281985 0 0.57357642473473569 0.86036463710210354 0 1.2287280786342298 1 I I #
face $-1 $-1 $215 $30 $-1 $400 reversed single #
loop $-1 $-1 $307 $200 #
plane-surface $-1 0 49.334468057718276 0 0 -1 0 0 0 -1 forward_v I I I I #
coedge $-1 $401 $305 $308 $402 forward $201 $-1 #
coedge $-1 $311 $203 $204 $299 reversed $127 $-1 #
coedge $-1 $305 $401 $203 $297 reversed $201 $-1 #
edge $-1 $312 -16.801151434555443 $403 16.801151434555443 $296 $404 forward 7 unknown #
coedge $-1 $205 $204 $401 $405 forward $81 $-1 #
edge $-1 $303 -73.56547746208075 $403 73.56547746208075 $295 $406 forward 7 unknown #
coedge $-1 $308 $307 $205 $301 reversed $292 $-1 #
edge $-1 $407 -73.56547746208075 $302 73.56547746208075 $300 $408 forward 7 unknown #
vertex $-1 $207 $409 #
vertex $-1 $314 $410 #
straight-curve $-1 73.56547746208075 0 -16.801151434555443 0 -1 0 I I #
coedge $-1 $294 $296 $208 $306 reversed $201 $-1 #
edge $-1 $309 -49.334468057718276 $312 49.334468057718276 $305 $411 forward 7 unknown #
coedge $-1 $300 $209 $214 $315 forward $292 $-1 #
coedge $-1 $209 $300 $294 $402 reversed $292 $-1 #
vertex $-1 $210 $412 #
straight-curve $-1 0 49.334468057718276 16.801151434555443 -1 0 0 I I #
coedge $-1 $211 $295 $213 $314 reversed $127 $-1 #
vertex $-1 $306 $413 #
straight-curve $-1 0 -49.334468057718276 16.801151434555443 1 0 0 I I #
edge $-1 $216 -16.801151434555443 $303 16.801151434555443 $213 $414 forward 7 unknown #
edge $-1 $217 -16.801151434555443 $302 16.801151434555443 $214 $415 forward 7 unknown #
point $-1 73.56547746208075 -49.334468057718276 16.801151434555443 #
point $-1 73.56547746208075 49.334468057718276 16.801151434555443 #
face $-1 $-1 $232 $31 $-1 $416 reversed single #
loop $-1 $-1 $325 $219 #
plane-surface $-1 0 0 16.801151434555443 0 0 1 1 0 0 forward_v I I I I #
coedge $-1 $417 $222 $227 $330 forward $135 $-1 #
coedge $-1 $222 $417 $418 $419 reversed $135 $-1 #
coedge $-1 $224 $223 $222 $324 reversed $85 $-1 #
edge $-1 $420 -9.57150834686 $335 -4.8877778285308846 $222 $421 forward 7 unknown #
coedge $-1 $418 $422 $224 $326 forward $319 $-1 #
edge $-1 $328 -73.56547746208075 $420 73.56547746208075 $325 $423 forward 7 unknown #
coedge $-1 $231 $225 $422 $424 reversed $232 $-1 #
vertex $-1 $226 $425 #
straight-curve $-1 73.56547746208075 -28.959671154816441 7.2296430876954432 0 0 1 I I #
edge $-1 $335 9.3861363516827616 $333 29.760933254584597 $321 $426 forward 7 unknown #
coedge $-1 $427 $228 $231 $337 reversed $220 $-1 #
coedge $-1 $228 $427 $417 $428 forward $220 $-1 #
vertex $-1 $229 $429 #
straight-curve $-1 0 -49.334468057718276 12.117420916226328 1 0 0 I I #
vertex $-1 $330 $430 #
straight-curve $-1 0 -28.959671154816441 12.117420916226328 1 0 0 I I #
edge $-1 $431 -16.801151434555443 $233 -12.117420916226328 $231 $432 forward 7 unknown #
point $-1 73.56547746208075 -49.334468057718276 12.117420916226328 #
point $-1 73.56547746208075 -28.959671154816441 12.117420916226328 #
plane-surface $-1 0 0 16.801151434555443 0 0 1 1 0 0 forward_v I I I I #
coedge $-1 $351 $350 $343 $433 forward $237 $-1 #
coedge $-1 $343 $239 $241 $347 reversed $143 $-1 #
coedge $-1 $239 $342 $341 $433 reversed $143 $-1 #
coedge $-1 $247 $242 $239 $345 forward $248 $-1 #
edge $-1 $348 4.9273791098322945 $434 11.613837346287035 $344 $435 forward 7 unknown #
coedge $-1 $241 $240 $351 $436 reversed $89 $-1 #
edge $-1 $437 -147.13095492416159 $348 -134.14850036115425 $342 $438 forward 7 unknown #
vertex $-1 $243 $439 #
straight-curve $-1 66.879019225625996 -4.6292449581972619 16.801151434555436 0 -1 0 I I #
coedge $-1 $341 $244 $247 $355 reversed $237 $-1 #
coedge $-1 $244 $341 $346 $436 forward $237 $-1 #
vertex $-1 $245 $440 #
straight-curve $-1 73.56547746208075 1.3492226092284252 103.78345114935699 0 0 1 I I #
straight-curve $-1 -2.2125644032335856 1.3492226092284252 131.78886043339969 0.51503806187062418 0 -0.85716730853699208 I I #
edge $-1 $434 -19.866202442017475 $249 1.3492226092284252 $350 $441 forward 7 unknown #
point $-1 73.56547746208075 1.3492226092284252 16.801151434555443 #
point $-1 66.87901922562601 1.3492226092284252 16.801151434555422 #
edge $-1 $442 1 $442 0 $252 $-1 forward 7 unknown #
vertex $-1 $253 $443 #
ellipse-curve $-1 66.054770316976274 -15.623117431768293 8.7330102758388772 0.85716730853699208 0 0.51503806187062418 0.77255709280593621 0 -1.2857509628054882 1 I I #
point $-1 70.994805436659334 -15.623117431768293 9.951332653761563 #
edge $-1 $444 1 $444 0 $256 $-1 forward 7 unknown #
vertex $-1 $257 $445 #
ellipse-curve $-1 66.054770316976274 -9.2584899163945238 8.7330102758388772 0.85716730853699208 0 0.51503806187062418 0.77255709280593621 0 -1.2857509628054882 1 I I #
point $-1 70.994805436659334 -9.2584899163945238 9.951332653761563 #
edge $-1 $446 1 $446 0 $260 $-1 forward 7 unknown #
vertex $-1 $261 $447 #
ellipse-curve $-1 66.054770316976274 -2.8938624010207548 8.7330102758388772 0.85716730853699208 0 0.51503806187062418 0.77255709280593621 0 -1.2857509628054882 1 I I #
point $-1 70.994805436659334 -2.8938624010207548 9.951332653761563 #
loop $-1 $-1 $272 $264 #
plane-surface $-1 0 -28.959671154816441 14.459286175390886 0 -1 0 0 0 -1 forward_v I I I I #
coedge $-1 $377 $448 $268 $373 forward $265 $-1 #
edge $-1 $375 27.64237678388124 $383 39.947318874771447 $372 $449 forward 7 unknown #
coedge $-1 $275 $269 $448 $450 forward $172 $-1 #
vertex $-1 $450 $451 #
straight-curve $-1 -97.044050581568513 -12.505883135423899 16.801151434555443 -1 0 0 I I #
coedge $-1 $452 $372 $271 $378 forward $265 $-1 #
edge $-1 $383 2.1394945628638151 $381 18.59328258225635 $377 $453 forward 7 unknown #
coedge $-1 $380 $272 $275 $385 reversed $370 $-1 #
coedge $-1 $272 $379 $452 $454 reversed $370 $-1 #
vertex $-1 $454 $455 #
straight-curve $-1 -59.123769952453543 -28.959671154816441 25.121105759992375 0.57357642473473569 0 0.81915205242281985 I I #
vertex $-1 $378 $456 #
straight-curve $-1 -73.565477462080736 -12.505883135423899 4.4962093436652566 0.57357642473473569 0 0.81915205242281985 I I #
edge $-1 $457 -73.56547746208075 $276 -64.949464512853893 $275 $458 forward 7 unknown #
point $-1 -64.949464512853893 -28.959671154816434 16.801151434555443 #
point $-1 -64.949464512853893 -12.505883135423899 16.801151434555443 #
edge $-1 $459 1 $459 0 $279 $-1 forward 7 unknown #
vertex $-1 $280 $460 #
ellipse-curve $-1 -64.463717778801168 -25.66891355093793 7.292058357394855 -0.81915205242281985 0 0.57357642473473569 0.86036463710210354 0 1.2287280786342298 1 I I #
point $-1 -68.397106350365235 -25.66891355093793 11.87740846774458 #
edge $-1 $461 1 $461 0 $283 $-1 forward 7 unknown #
vertex $-1 $284 $462 #
ellipse-curve $-1 -64.463717778801168 -20.732777145120167 7.292058357394855 -0.81915205242281985 0 0.57357642473473569 0.86036463710210354 0 1.2287280786342298 1 I I #
point $-1 -68.397106350365235 -20.732777145120167 11.87740846774458 #
edge $-1 $463 1 $463 0 $287 $-1 forward 7 unknown #
vertex $-1 $288 $464 #
ellipse-curve $-1 -64.463717778801168 -15.796640739302404 7.292058357394855 -0.81915205242281985 0 0.57357642473473569 0.86036463710210354 0 1.2287280786342298 1 I I #
point $-1 -68.397106350365235 -15.796640739302404 11.87740846774458 #
plane-surface $-1 73.56547746208075 0 0 -1 0 0 0 0 1 forward_v I I I I #
coedge $-1 $296 $294 $298 $405 reversed $201 $-1 #
edge $-1 $309 -16.801151434555443 $407 16.801151434555443 $308 $465 forward 7 unknown #
vertex $-1 $405 $466 #
straight-curve $-1 -73.56547746208075 -49.334468057718276 0 0 0 -1 I I #
edge $-1 $403 -49.334468057718276 $407 49.334468057718276 $401 $467 forward 7 unknown #
straight-curve $-1 0 -49.334468057718276 -16.801151434555443 -1 0 0 I I #
vertex $-1 $301 $468 #
straight-curve $-1 0 49.334468057718276 -16.801151434555443 1 0 0 I I #
point $-1 73.56547746208075 49.334468057718276 -16.801151434555443 #
point $-1 73.56547746208075 -49.334468057718276 -16.801151434555443 #
straight-curve $-1 -73.56547746208075 0 16.801151434555443 0 -1 0 I I #
point $-1 -73.56547746208075 49.334468057718276 16.801151434555443 #
point $-1 -73.56547746208075 -49.334468057718276 16.801151434555443 #
straight-curve $-1 73.56547746208075 -49.334468057718276 0 0 0 -1 I I #
straight-curve $-1 73.56547746208075 49.334468057718276 0 0 0 -1 I I #
plane-surface $-1 73.56547746208075 0 0 -1 0 0 0 0 1 forward_v I I I I #
coedge $-1 $322 $321 $332 $428 reversed $135 $-1 #
coedge $-1 $469 $325 $322 $419 forward $319 $-1 #
edge $-1 $420 28.959671154816441 $470 49.334468057718276 $322 $471 forward 7 unknown #
vertex $-1 $419 $472 #
straight-curve $-1 -73.56547746208075 -28.959671154816441 7.2296430876954432 0 0 -1 I I #
coedge $-1 $325 $469 $327 $424 forward $319 $-1 #
straight-curve $-1 0 -28.959671154816441 16.801151434555443 -1 0 0 I I #
edge $-1 $431 -49.334468057718276 $328 -28.959671154816441 $327 $473 forward 7 unknown #
point $-1 73.56547746208075 -28.959671154816441 16.801151434555443 #
straight-curve $-1 -73.56547746208075 -19.573534803133679 12.117420916226328 0 -1 0 I I #
coedge $-1 $332 $331 $469 $474 reversed $220 $-1 #
edge $-1 $470 -16.801151434555443 $333 -12.117420916226328 $417 $475 forward 7 unknown #
point $-1 -73.56547746208075 -49.334468057718276 12.117420916226328 #
point $-1 -73.56547746208075 -28.959671154816441 12.117420916226328 #
vertex $-1 $424 $476 #
straight-curve $-1 73.56547746208075 -49.334468057718276 0 0 0 -1 I I #
edge $-1 $434 86.982299714801542 $437 98.11043535077836 $341 $477 forward 7 unknown #
vertex $-1 $355 $478 #
straight-curve $-1 61.951640115793715 -19.866202442017475 16.80115143455545 1 0 0 I I #
edge $-1 $437 -15.236957483820213 $352 5.9784675674256871 $351 $479 forward 7 unknown #
vertex $-1 $436 $480 #
straight-curve $-1 -2.2125644032335856 -19.866202442017475 131.78886043339969 -0.51503806187062418 0 0.85716730853699208 I I #
point $-1 66.87901922562601 -19.866202442017475 16.801151434555422 #
point $-1 73.56547746208075 1.3492226092284252 5.673015798578632 #
straight-curve $-1 73.56547746208075 0 16.801151434555443 0 1 0 I I #
vertex $-1 $358 $481 #
point $-1 66.827327409782214 -15.623117431768293 7.4472593130333893 #
vertex $-1 $362 $482 #
point $-1 66.827327409782214 -9.2584899163945238 7.4472593130333893 #
vertex $-1 $366 $483 #
point $-1 66.827327409782214 -2.8938624010207548 7.4472593130333893 #
coedge $-1 $372 $452 $374 $450 reversed $265 $-1 #
straight-curve $-1 -73.56547746208075 -12.505883135423899 44.443528218436683 0 0 -1 I I #
edge $-1 $375 12.505883135423899 $457 28.959671154816441 $448 $484 forward 7 unknown #
point $-1 -73.56547746208075 -12.505883135423899 16.801151434555443 #
coedge $-1 $448 $377 $380 $454 forward $265 $-1 #
straight-curve $-1 -73.56547746208075 -10.366388572560084 4.4962093436652228 0 -1 0 I I #
edge $-1 $381 -39.947318874771447 $457 -27.64237678388124 $452 $485 forward 7 unknown #
point $-1 -73.56547746208075 -28.959671154816434 4.4962093436652362 #
point $-1 -73.56547746208075 -12.505883135423899 4.4962093436652362 #
vertex $-1 $454 $486 #
straight-curve $-1 0 -28.959671154816441 16.801151434555443 1 0 0 I I #
vertex $-1 $388 $487 #
point $-1 -63.603353141699067 -25.66891355093793 8.5207864360290841 #
vertex $-1 $392 $488 #
point $-1 -63.603353141699067 -20.732777145120167 8.5207864360290841 #
vertex $-1 $396 $489 #
point $-1 -63.603353141699067 -15.796640739302404 8.5207864360290841 #
straight-curve $-1 -73.56547746208075 49.334468057718276 0 0 0 -1 I I #
point $-1 -73.56547746208075 -49.334468057718276 -16.801151434555443 #
straight-curve $-1 -73.56547746208075 0 -16.801151434555443 0 1 0 I I #
point $-1 -73.56547746208075 49.334468057718276 -16.801151434555443 #
coedge $-1 $422 $418 $427 $474 forward $319 $-1 #
vertex $-1 $419 $490 #
straight-curve $-1 -73.56547746208075 0 16.801151434555443 0 -1 0 I I #
point $-1 -73.56547746208075 -28.959671154816441 16.801151434555443 #
straight-curve $-1 73.56547746208075 0 16.801151434555443 0 1 0 I I #
edge $-1 $470 -73.56547746208075 $431 73.56547746208075 $427 $491 forward 7 unknown #
straight-curve $-1 -73.56547746208075 -49.334468057718276 0 0 0 -1 I I #
point $-1 73.56547746208075 -49.334468057718276 16.801151434555443 #
straight-curve $-1 73.56547746208075 -19.866202442017475 103.78345114935699 0 0 -1 I I #
point $-1 73.56547746208075 -19.866202442017475 16.801151434555443 #
straight-curve $-1 73.56547746208075 -4.6292449581972619 5.673015798578632 0 1 0 I I #
point $-1 73.56547746208075 -19.866202442017475 5.673015798578632 #
point $-1 64.769019354170794 -15.623117431768293 7.960453183032941 #
point $-1 64.769019354170794 -9.2584899163945238 7.960453183032941 #
point $-1 64.769019354170794 -2.8938624010207548 7.960453183032941 #
straight-curve $-1 -73.56547746208075 0 16.801151434555443 0 -1 0 I I #
straight-curve $-1 -73.56547746208075 -28.959671154816434 44.443528218436683 0 0 1 I I #
point $-1 -73.56547746208075 -28.959671154816441 16.801151434555443 #
point $-1 -63.234989700166942 -25.66891355093793 6.4316937202927518 #
point $-1 -63.234989700166942 -20.732777145120167 6.4316937202927518 #
point $-1 -63.234989700166942 -15.796640739302404 6.4316937202927518 #
point $-1 -73.56547746208075 -49.334468057718276 16.801151434555443 #
straight-curve $-1 0 -49.334468057718276 16.801151434555443 1 0 0 I I #
End-of-ACIS-data 