500 0 11 0           
7 Unknown 11 ACIS 5.0 NT 24 Thu Mar 25 16:18:44 1999 
-1 9.9999999999999995e-007 1e-010 
body $-1 $11 $-1 $12 #
body $-1 $13 $-1 $14 #
body $-1 $15 $-1 $16 #
body $-1 $17 $-1 $18 #
body $-1 $19 $-1 $20 #
body $-1 $21 $-1 $22 #
body $-1 $23 $-1 $24 #
body $-1 $25 $-1 $26 #
body $-1 $27 $-1 $28 #
body $-1 $29 $-1 $30 #
body $-1 $31 $-1 $32 #
lump $-1 $-1 $33 $0 #
transform $-1 1 0 0 0 1 0 0 0 1 77.313150425733198 49.477160187152087 23.170326101133153 1 rotate no_reflect no_shear #
lump $-1 $-1 $34 $1 #
transform $-1 1 0 0 0 1 0 0 0 1 77.313150425733198 49.477160187152087 23.170326101133153 1 rotate no_reflect no_shear #
lump $-1 $-1 $35 $2 #
transform $-1 1 0 0 0 1 0 0 0 1 77.313150425733198 49.477160187152087 23.170326101133153 1 rotate no_reflect no_shear #
lump $-1 $-1 $36 $3 #
transform $-1 1 0 0 0 1 0 0 0 1 77.313150425733198 49.477160187152087 23.170326101133153 1 rotate no_reflect no_shear #
lump $-1 $-1 $37 $4 #
transform $-1 1 0 0 0 1 0 0 0 1 77.313150425733198 49.477160187152087 23.170326101133153 1 rotate no_reflect no_shear #
lump $-1 $-1 $38 $5 #
transform $-1 1 0 0 0 1 0 0 0 1 77.313150425733198 49.477160187152087 23.170326101133153 1 rotate no_reflect no_shear #
lump $-1 $-1 $39 $6 #
transform $-1 1 0 0 0 1 0 0 0 1 77.313150425733198 49.477160187152087 23.170326101133153 1 rotate no_reflect no_shear #
lump $-1 $-1 $40 $7 #
transform $-1 1 0 0 0 1 0 0 0 1 77.313150425733198 49.477160187152087 23.170326101133153 1 rotate no_reflect no_shear #
lump $-1 $-1 $41 $8 #
transform $-1 1 0 0 0 1 0 0 0 1 77.313150425733198 49.477160187152087 23.170326101133153 1 rotate no_reflect no_shear #
lump $-1 $-1 $42 $9 #
transform $-1 1 0 0 0 1 0 0 0 1 77.313150425733198 49.477160187152087 23.170326101133153 1 rotate no_reflect no_shear #
lump $-1 $-1 $43 $10 #
transform $-1 1 0 0 0 1 0 0 0 1 77.313150425733198 49.477160187152087 23.170326101133153 1 rotate no_reflect no_shear #
shell $-1 $-1 $-1 $44 $-1 $11 #
shell $-1 $-1 $-1 $45 $-1 $13 #
shell $-1 $-1 $-1 $46 $-1 $15 #
shell $-1 $-1 $-1 $47 $-1 $17 #
shell $-1 $-1 $-1 $48 $-1 $19 #
shell $-1 $-1 $-1 $49 $-1 $21 #
shell $-1 $-1 $-1 $50 $-1 $23 #
shell $-1 $-1 $-1 $51 $-1 $25 #
shell $-1 $-1 $-1 $52 $-1 $27 #
shell $-1 $-1 $-1 $53 $-1 $29 #
shell $-1 $-1 $-1 $54 $-1 $31 #
face $-1 $55 $56 $33 $-1 $57 forward single #
face $-1 $58 $59 $34 $-1 $60 reversed single #
face $-1 $61 $62 $35 $-1 $63 reversed single #
face $-1 $64 $65 $36 $-1 $66 reversed single #
face $-1 $67 $68 $37 $-1 $69 forward single #
face $-1 $70 $71 $38 $-1 $72 reversed single #
face $-1 $73 $74 $39 $-1 $75 forward single #
face $-1 $76 $77 $40 $-1 $78 forward single #
face $-1 $79 $80 $41 $-1 $81 reversed single #
face $-1 $82 $83 $42 $-1 $84 forward single #
face $-1 $85 $86 $43 $-1 $87 forward single #
face $-1 $88 $89 $33 $-1 $90 reversed single #
loop $-1 $-1 $91 $44 #
plane-surface $-1 0 0 23.170326101133153 0 0 1 1 0 0 forward_v I I I I #
face $-1 $92 $93 $34 $-1 $94 reversed single #
loop $-1 $-1 $95 $45 #
plane-surface $-1 -64.03081950275444 -9.8693166930168097 0 0 1 0 0 0 1 forward_v I I I I #
face $-1 $96 $97 $35 $-1 $98 reversed single #
loop $-1 $-1 $99 $46 #
plane-surface $-1 64.03081950275444 -9.8693166930168097 0 0 1 0 0 0 1 forward_v I I I I #
face $-1 $100 $101 $36 $-1 $102 reversed single #
loop $-1 $-1 $103 $47 #
plane-surface $-1 36.734923884578485 41.093356773022172 202.02379480939706 1 0 0 0 -0.50000000669873634 -0.8660253999169214 forward_v I I I I #
face $-1 $104 $105 $37 $-1 $106 forward single #
loop $-1 $107 $108 $48 #
cone-surface $-1 43.741706232177094 45.143640060353903 20.198445131322178 0 -0.50000000669873634 -0.8660253999169214 1.5 0 0 1 I I 0 1 1.5 forward I I I I #
face $-1 $109 $110 $38 $-1 $111 reversed single #
loop $-1 $-1 $112 $49 #
plane-surface $-1 -20.667732006974585 -154.93204504415965 132.90904634450462 -1 0 0 0 -0.68199836817093118 0.7313536940579346 forward_v I I I I #
face $-1 $113 $114 $39 $-1 $115 forward single #
loop $-1 $116 $117 $50 #
cone-surface $-1 -34.817942310544616 -47.33682195320975 21.12613658892835 0 0.68199836817093118 -0.7313536940579346 0.5 0 0 1 I I 0 1 0.5 forward I I I I #
face $-1 $118 $119 $40 $-1 $120 forward single #
loop $-1 $121 $122 $51 #
cone-surface $-1 -26.327816128402603 -47.33682195320975 21.12613658892835 0 0.68199836817093118 -0.7313536940579346 0.5 0 0 1 I I 0 1 0.5 forward I I I I #
face $-1 $123 $124 $41 $-1 $125 reversed single #
loop $-1 $-1 $126 $52 #
plane-surface $-1 40.478026431972609 -154.93204504415965 132.90904634450462 -1 0 0 0 -0.68199836817093118 0.7313536940579346 forward_v I I I I #
face $-1 $127 $128 $42 $-1 $129 forward single #
loop $-1 $130 $131 $53 #
cone-surface $-1 26.327816128402588 -47.33682195320975 21.12613658892835 0 0.68199836817093118 -0.7313536940579346 0.5 0 0 1 I I 0 1 0.5 forward I I I I #
face $-1 $132 $133 $43 $-1 $134 forward single #
loop $-1 $135 $136 $54 #
cone-surface $-1 34.817942310544595 -47.33682195320975 21.12613658892835 0 0.68199836817093118 -0.7313536940579346 0.5 0 0 1 I I 0 1 0.5 forward I I I I #
face $-1 $137 $138 $33 $-1 $139 reversed single #
loop $-1 $-1 $140 $55 #
plane-surface $-1 0 0 -23.170326101133153 0 0 1 1 0 0 forward_v I I I I #
coedge $-1 $141 $142 $143 $144 forward $56 $-1 #
face $-1 $145 $146 $34 $-1 $147 reversed single #
loop $-1 $-1 $148 $58 #
plane-surface $-1 -64.03081950275444 -3.1365079848857853 0 0 -1 0 0 0 -1 forward_v I I I I #
coedge $-1 $149 $150 $151 $152 reversed $59 $-1 #
face $-1 $153 $154 $35 $-1 $155 reversed single #
loop $-1 $-1 $156 $61 #
plane-surface $-1 50.748488579775682 -6.5029123389512975 0 1 0 0 0 0 -1 forward_v I I I I #
coedge $-1 $157 $158 $159 $160 forward $62 $-1 #
face $-1 $161 $162 $36 $-1 $163 reversed single #
loop $-1 $-1 $164 $64 #
plane-surface $-1 43.74170623217708 -36.219794688511847 68.113490776831668 0 0.50000000669873634 0.8660253999169214 1 0 0 forward_v I I I I #
coedge $-1 $165 $166 $167 $168 reversed $65 $-1 #
face $-1 $-1 $169 $37 $-1 $170 forward single #
loop $-1 $171 $172 $67 #
cone-surface $-1 43.741706232177094 44.361675726015129 18.844043198734735 0 -0.50000000669873634 -0.8660253999169214 0.75 0 0 1 I I -0.70710678118654757 0.70710678118654757 0.75 forward I I I I #
loop $-1 $-1 $173 $48 #
coedge $-1 $108 $108 $174 $175 reversed $68 $-1 #
face $-1 $176 $177 $38 $-1 $178 reversed single #
loop $-1 $-1 $179 $70 #
plane-surface $-1 -30.572879219473606 -49.477160187152109 19.822530018271109 0 -0.68199836817093118 0.7313536940579346 1 0 0 forward_v I I I I #
coedge $-1 $180 $181 $182 $183 reversed $71 $-1 #
face $-1 $-1 $184 $39 $-1 $185 forward single #
loop $-1 $186 $187 $73 #
cone-surface $-1 -34.817942310544616 -46.821019970727008 20.573006694640082 0 0.68199836817093118 -0.7313536940579346 0.25 0 0 1 I I -0.70710678118654746 0.70710678118654746 0.25 forward I I I I #
loop $-1 $-1 $188 $50 #
coedge $-1 $117 $117 $189 $190 reversed $74 $-1 #
face $-1 $-1 $191 $40 $-1 $192 forward single #
loop $-1 $193 $194 $76 #
cone-surface $-1 -26.327816128402603 -46.821019970727008 20.573006694640082 0 0.68199836817093118 -0.7313536940579346 0.25 0 0 1 I I -0.70710678118654746 0.70710678118654746 0.25 forward I I I I #
loop $-1 $-1 $195 $51 #
coedge $-1 $122 $122 $196 $197 reversed $77 $-1 #
face $-1 $198 $199 $41 $-1 $200 reversed single #
loop $-1 $-1 $201 $79 #
plane-surface $-1 30.572879219473592 -49.477160187152109 19.822530018271109 0 -0.68199836817093118 0.7313536940579346 1 0 0 forward_v I I I I #
coedge $-1 $202 $203 $204 $205 reversed $80 $-1 #
face $-1 $-1 $206 $42 $-1 $207 forward single #
loop $-1 $208 $209 $82 #
cone-surface $-1 26.327816128402588 -46.821019970727008 20.573006694640082 0 0.68199836817093118 -0.7313536940579346 0.25 0 0 1 I I -0.70710678118654746 0.70710678118654746 0.25 forward I I I I #
loop $-1 $-1 $210 $53 #
coedge $-1 $131 $131 $211 $212 reversed $83 $-1 #
face $-1 $-1 $213 $43 $-1 $214 forward single #
loop $-1 $215 $216 $85 #
cone-surface $-1 34.817942310544595 -46.821019970727008 20.573006694640082 0 0.68199836817093118 -0.7313536940579346 0.25 0 0 1 I I -0.70710678118654746 0.70710678118654746 0.25 forward I I I I #
loop $-1 $-1 $217 $54 #
coedge $-1 $136 $136 $218 $219 reversed $86 $-1 #
face $-1 $220 $221 $33 $-1 $222 reversed single #
loop $-1 $-1 $223 $88 #
plane-surface $-1 0 -49.477160187152087 0 0 1 0 0 0 1 forward_v I I I I #
coedge $-1 $224 $225 $226 $227 forward $89 $-1 #
coedge $-1 $228 $91 $229 $230 forward $56 $-1 #
coedge $-1 $91 $228 $231 $232 forward $56 $-1 #
coedge $-1 $233 $234 $91 $144 reversed $235 $-1 #
edge $-1 $236 -49.477160187152087 $237 49.477160187152087 $143 $238 forward 7 unknown #
face $-1 $239 $240 $34 $-1 $241 reversed single #
loop $-1 $-1 $242 $92 #
plane-surface $-1 -50.748488579775689 -6.5029123389512975 0 -1 0 0 0 0 1 forward_v I I I I #
coedge $-1 $243 $244 $245 $246 forward $93 $-1 #
coedge $-1 $247 $95 $248 $249 reversed $59 $-1 #
coedge $-1 $95 $247 $250 $251 reversed $59 $-1 #
coedge $-1 $252 $253 $95 $152 forward $254 $-1 #
edge $-1 $255 -23.170326101133153 $256 23.170326101133153 $151 $257 forward 7 unknown #
face $-1 $258 $259 $35 $-1 $260 reversed single #
loop $-1 $-1 $261 $96 #
plane-surface $-1 64.03081950275444 -3.1365079848857853 0 0 -1 0 0 0 -1 forward_v I I I I #
coedge $-1 $262 $263 $264 $265 forward $97 $-1 #
coedge $-1 $266 $99 $267 $268 reversed $62 $-1 #
coedge $-1 $99 $266 $269 $270 reversed $62 $-1 #
coedge $-1 $263 $262 $99 $160 reversed $97 $-1 #
edge $-1 $271 -23.170326101133153 $272 23.170326101133153 $159 $273 forward 7 unknown #
face $-1 $274 $275 $36 $-1 $276 reversed single #
loop $-1 $-1 $277 $100 #
plane-surface $-1 50.748488579775675 41.093356773022172 202.02379480939706 -1 0 0 0 0.50000000669873634 0.8660253999169214 forward_v I I I I #
coedge $-1 $278 $279 $280 $281 reversed $101 $-1 #
coedge $-1 $166 $103 $282 $283 reversed $65 $-1 #
coedge $-1 $103 $165 $278 $284 reversed $65 $-1 #
coedge $-1 $280 $285 $103 $168 forward $286 $-1 #
edge $-1 $287 -28.930481800641001 $288 -21.077370205674026 $167 $289 forward 7 unknown #
loop $-1 $-1 $174 $104 #
plane-surface $-1 43.74170623217708 -36.219794688511847 68.113490776831668 0 0.50000000669873634 0.8660253999169214 1 0 0 forward_v I I I I #
loop $-1 $-1 $290 $67 #
coedge $-1 $172 $172 $173 $291 reversed $105 $-1 #
coedge $-1 $173 $173 $172 $291 forward $107 $-1 #
coedge $-1 $174 $174 $108 $175 forward $169 $-1 #
edge $-1 $292 -4.1873449822970389e-015 $292 6.283185307179596 $174 $293 forward 7 unknown #
face $-1 $294 $295 $38 $-1 $296 forward single #
loop $-1 $-1 $297 $109 #
plane-surface $-1 -40.478026431972623 -154.93204504415965 132.90904634450462 1 0 0 0 0.68199836817093118 -0.7313536940579346 forward_v I I I I #
coedge $-1 $298 $299 $300 $301 reversed $110 $-1 #
coedge $-1 $181 $112 $302 $303 reversed $71 $-1 #
coedge $-1 $112 $180 $298 $304 reversed $71 $-1 #
coedge $-1 $300 $305 $112 $183 forward $295 $-1 #
edge $-1 $306 27.988862334927738 $307 31.578934021932376 $182 $308 forward 7 unknown #
loop $-1 $-1 $189 $113 #
plane-surface $-1 -30.572879219473606 -49.477160187152109 19.822530018271109 0 -0.68199836817093118 0.7313536940579346 1 0 0 forward_v I I I I #
loop $-1 $-1 $309 $73 #
coedge $-1 $187 $187 $188 $310 reversed $114 $-1 #
coedge $-1 $188 $188 $187 $310 forward $116 $-1 #
coedge $-1 $189 $189 $117 $190 forward $184 $-1 #
edge $-1 $311 7.0138136560165447e-016 $311 6.2831853071796013 $189 $312 forward 7 unknown #
loop $-1 $-1 $196 $118 #
plane-surface $-1 -30.572879219473606 -49.477160187152109 19.822530018271109 0 -0.68199836817093118 0.7313536940579346 1 0 0 forward_v I I I I #
loop $-1 $-1 $313 $76 #
coedge $-1 $194 $194 $195 $314 reversed $119 $-1 #
coedge $-1 $195 $195 $194 $314 forward $121 $-1 #
coedge $-1 $196 $196 $122 $197 forward $191 $-1 #
edge $-1 $315 7.0138136560165447e-016 $315 6.2831853071796013 $196 $316 forward 7 unknown #
face $-1 $317 $318 $41 $-1 $319 reversed single #
loop $-1 $-1 $320 $123 #
plane-surface $-1 20.667732006974571 -154.93204504415965 132.90904634450462 1 0 0 0 0.68199836817093118 -0.7313536940579346 forward_v I I I I #
coedge $-1 $321 $322 $323 $324 reversed $124 $-1 #
coedge $-1 $203 $126 $325 $326 reversed $80 $-1 #
coedge $-1 $126 $202 $321 $327 reversed $80 $-1 #
coedge $-1 $323 $328 $126 $205 forward $329 $-1 #
edge $-1 $330 27.988862334927738 $331 31.578934021932376 $204 $332 forward 7 unknown #
loop $-1 $-1 $211 $127 #
plane-surface $-1 30.572879219473592 -49.477160187152109 19.822530018271109 0 -0.68199836817093118 0.7313536940579346 1 0 0 forward_v I I I I #
loop $-1 $-1 $333 $82 #
coedge $-1 $209 $209 $210 $334 reversed $128 $-1 #
coedge $-1 $210 $210 $209 $334 forward $130 $-1 #
coedge $-1 $211 $211 $131 $212 forward $206 $-1 #
edge $-1 $335 7.0138136560165447e-016 $335 6.2831853071796013 $211 $336 forward 7 unknown #
loop $-1 $-1 $218 $132 #
plane-surface $-1 30.572879219473592 -49.477160187152109 19.822530018271109 0 -0.68199836817093118 0.7313536940579346 1 0 0 forward_v I I I I #
loop $-1 $-1 $337 $85 #
coedge $-1 $216 $216 $217 $338 reversed $133 $-1 #
coedge $-1 $217 $217 $216 $338 forward $135 $-1 #
coedge $-1 $218 $218 $136 $219 forward $213 $-1 #
edge $-1 $339 7.0138136560165447e-016 $339 6.2831853071796013 $218 $340 forward 7 unknown #
face $-1 $341 $342 $33 $-1 $343 reversed single #
loop $-1 $-1 $344 $137 #
plane-surface $-1 -77.313150425733198 0 0 1 0 0 0 0 -1 forward_v I I I I #
coedge $-1 $345 $231 $346 $347 forward $138 $-1 #
coedge $-1 $348 $140 $345 $349 forward $89 $-1 #
coedge $-1 $140 $348 $350 $351 forward $89 $-1 #
coedge $-1 $234 $233 $140 $227 reversed $235 $-1 #
edge $-1 $352 -49.477160187152087 $353 49.477160187152087 $226 $354 forward 7 unknown #
coedge $-1 $142 $141 $355 $356 forward $56 $-1 #
coedge $-1 $357 $358 $141 $230 reversed $342 $-1 #
edge $-1 $237 -77.313150425733198 $359 77.313150425733198 $229 $360 forward 7 unknown #
coedge $-1 $223 $361 $142 $232 reversed $138 $-1 #
edge $-1 $362 -77.313150425733198 $236 77.313150425733198 $231 $363 forward 7 unknown #
coedge $-1 $226 $143 $361 $364 forward $235 $-1 #
coedge $-1 $143 $226 $357 $365 reversed $235 $-1 #
loop $-1 $-1 $233 $341 #
vertex $-1 $144 $366 #
vertex $-1 $144 $367 #
straight-curve $-1 77.313150425733198 0 23.170326101133153 0 1 0 I I #
face $-1 $368 $369 $34 $-1 $370 forward single #
loop $-1 $-1 $371 $145 #
plane-surface $-1 0 0 -23.170326101133153 0 0 1 1 0 0 forward_v I I I I #
coedge $-1 $372 $373 $247 $374 forward $146 $-1 #
coedge $-1 $375 $148 $371 $376 reversed $93 $-1 #
coedge $-1 $148 $375 $377 $378 reversed $93 $-1 #
coedge $-1 $373 $372 $148 $246 reversed $146 $-1 #
edge $-1 $379 -23.170326101133153 $380 23.170326101133153 $245 $381 forward 7 unknown #
coedge $-1 $150 $149 $242 $374 reversed $59 $-1 #
coedge $-1 $382 $383 $149 $249 forward $240 $-1 #
edge $-1 $384 18.733078828398469 $255 45.297740674355978 $248 $385 forward 7 unknown #
coedge $-1 $386 $387 $150 $251 forward $369 $-1 #
edge $-1 $256 -45.297740674355978 $388 -18.733078828398469 $250 $389 forward 7 unknown #
coedge $-1 $390 $151 $387 $391 reversed $254 $-1 #
coedge $-1 $151 $390 $382 $392 reversed $254 $-1 #
loop $-1 $-1 $390 $368 #
vertex $-1 $392 $393 #
vertex $-1 $152 $394 #
straight-curve $-1 -77.313150425733198 -9.8693166930168097 0 0 0 1 I I #
face $-1 $395 $396 $35 $-1 $397 forward single #
loop $-1 $-1 $267 $153 #
plane-surface $-1 0 0 -23.170326101133153 0 0 1 1 0 0 forward_v I I I I #
coedge $-1 $398 $399 $400 $401 reversed $154 $-1 #
coedge $-1 $159 $156 $402 $403 reversed $97 $-1 #
coedge $-1 $156 $159 $404 $405 reversed $97 $-1 #
coedge $-1 $399 $398 $156 $265 reversed $154 $-1 #
edge $-1 $406 -23.170326101133153 $407 23.170326101133153 $264 $408 forward 7 unknown #
coedge $-1 $158 $157 $409 $410 reversed $62 $-1 #
coedge $-1 $402 $411 $157 $268 forward $259 $-1 #
edge $-1 $412 -45.297740674355978 $272 -18.733078828398462 $267 $413 forward 7 unknown #
coedge $-1 $414 $404 $158 $270 forward $396 $-1 #
edge $-1 $271 18.733078828398462 $415 45.297740674355978 $269 $416 forward 7 unknown #
vertex $-1 $270 $417 #
vertex $-1 $268 $418 #
straight-curve $-1 50.748488579775682 -9.8693166930168097 0 0 0 -1 I I #
face $-1 $-1 $286 $36 $-1 $419 forward single #
loop $-1 $-1 $420 $161 #
plane-surface $-1 0 49.477160187152087 0 0 -1 0 0 0 -1 forward_v I I I I #
coedge $-1 $421 $422 $423 $424 reversed $162 $-1 #
coedge $-1 $425 $164 $166 $284 forward $101 $-1 #
coedge $-1 $164 $425 $421 $426 forward $101 $-1 #
coedge $-1 $423 $167 $164 $281 forward $286 $-1 #
edge $-1 $288 14.864070768489945 $427 28.877635463687135 $280 $428 forward 7 unknown #
coedge $-1 $429 $430 $165 $283 forward $275 $-1 #
edge $-1 $431 -82.375567477887842 $287 -77.841571303565374 $282 $432 forward 7 unknown #
edge $-1 $288 89.88632814714741 $431 98.954320374304174 $166 $433 forward 7 unknown #
coedge $-1 $167 $423 $429 $434 forward $286 $-1 #
loop $-1 $-1 $423 $274 #
vertex $-1 $283 $435 #
vertex $-1 $168 $436 #
straight-curve $-1 36.734923884578485 20.546678386511086 23.170326101133156 0 -1 0 I I #
coedge $-1 $290 $290 $-1 $437 reversed $171 $-1 #
edge $-1 $438 0 $438 6.2831853071796004 $172 $439 forward 7 unknown #
vertex $-1 $175 $440 #
ellipse-curve $-1 43.741706232177094 45.550604389668607 20.903328013971905 0 0.50000000669873634 0.8660253999169214 1.5 0 0 1 I I #
face $-1 $-1 $441 $38 $-1 $442 reversed single #
loop $-1 $-1 $182 $176 #
plane-surface $-1 0 0 23.170326101133153 0 0 1 1 0 0 forward_v I I I I #
coedge $-1 $443 $444 $445 $446 reversed $177 $-1 #
coedge $-1 $447 $179 $181 $304 forward $110 $-1 #
coedge $-1 $179 $447 $443 $448 forward $110 $-1 #
coedge $-1 $445 $182 $179 $301 forward $295 $-1 #
edge $-1 $307 5.3812923972377824 $449 25.19158682223582 $300 $450 forward 7 unknown #
coedge $-1 $451 $452 $180 $303 forward $441 $-1 #
edge $-1 $453 -46.631993153981178 $306 -43.284197071119152 $302 $454 forward 7 unknown #
edge $-1 $307 -4.9088036557046077 $453 -3.0127411226648333e-014 $181 $455 forward 7 unknown #
coedge $-1 $182 $445 $451 $456 forward $295 $-1 #
vertex $-1 $183 $457 #
vertex $-1 $183 $458 #
straight-curve $-1 -20.667732006974585 -77.466022522079825 23.170326101133156 0 1 0 I I #
coedge $-1 $309 $309 $-1 $459 reversed $186 $-1 #
edge $-1 $460 0 $460 6.2831853071796004 $187 $461 forward 7 unknown #
vertex $-1 $190 $462 #
ellipse-curve $-1 -34.817942310544616 -47.682124343649768 21.496428059702144 0 -0.68199836817093118 0.7313536940579346 0.5 0 0 1 I I #
coedge $-1 $313 $313 $-1 $463 reversed $193 $-1 #
edge $-1 $464 0 $464 6.2831853071796004 $194 $465 forward 7 unknown #
vertex $-1 $197 $466 #
ellipse-curve $-1 -26.327816128402603 -47.682124343649768 21.496428059702144 0 -0.68199836817093118 0.7313536940579346 0.5 0 0 1 I I #
face $-1 $-1 $329 $41 $-1 $467 forward single #
loop $-1 $-1 $468 $198 #
plane-surface $-1 0 -49.477160187152087 0 0 1 0 0 0 1 forward_v I I I I #
coedge $-1 $469 $470 $471 $472 reversed $199 $-1 #
coedge $-1 $473 $201 $203 $327 forward $124 $-1 #
coedge $-1 $201 $473 $469 $474 forward $124 $-1 #
coedge $-1 $471 $204 $201 $324 forward $329 $-1 #
edge $-1 $331 -25.191586822235813 $475 -5.3812923972377753 $323 $476 forward 7 unknown #
coedge $-1 $477 $478 $202 $326 forward $318 $-1 #
edge $-1 $479 -46.631993153981178 $330 -43.284197071119152 $325 $480 forward 7 unknown #
edge $-1 $331 -4.9088036557046077 $479 -3.0127411226648333e-014 $203 $481 forward 7 unknown #
coedge $-1 $204 $471 $477 $482 forward $329 $-1 #
loop $-1 $-1 $471 $317 #
vertex $-1 $326 $483 #
vertex $-1 $205 $484 #
straight-curve $-1 40.478026431972609 -77.466022522079825 23.170326101133156 0 1 0 I I #
coedge $-1 $333 $333 $-1 $485 reversed $208 $-1 #
edge $-1 $486 0 $486 6.2831853071796004 $209 $487 forward 7 unknown #
vertex $-1 $212 $488 #
ellipse-curve $-1 26.327816128402588 -47.682124343649768 21.496428059702144 0 -0.68199836817093118 0.7313536940579346 0.5 0 0 1 I I #
coedge $-1 $337 $337 $-1 $489 reversed $215 $-1 #
edge $-1 $490 0 $490 6.2831853071796004 $216 $491 forward 7 unknown #
vertex $-1 $219 $492 #
ellipse-curve $-1 34.817942310544595 -47.682124343649768 21.496428059702144 0 -0.68199836817093118 0.7313536940579346 0.5 0 0 1 I I #
face $-1 $-1 $235 $33 $-1 $493 reversed single #
loop $-1 $-1 $357 $220 #
plane-surface $-1 0 49.477160187152087 0 0 -1 0 0 0 -1 forward_v I I I I #
coedge $-1 $494 $355 $358 $495 forward $221 $-1 #
coedge $-1 $361 $223 $224 $349 reversed $138 $-1 #
coedge $-1 $355 $494 $223 $347 reversed $221 $-1 #
edge $-1 $362 -23.170326101133153 $496 23.170326101133153 $346 $497 forward 7 unknown #
coedge $-1 $225 $224 $494 $498 forward $89 $-1 #
edge $-1 $353 -77.313150425733198 $496 77.313150425733198 $345 $499 forward 7 unknown #
coedge $-1 $358 $357 $225 $351 reversed $342 $-1 #
edge $-1 $500 -77.313150425733198 $352 77.313150425733198 $350 $501 forward 7 unknown #
vertex $-1 $227 $502 #
vertex $-1 $364 $503 #
straight-curve $-1 77.313150425733198 0 -23.170326101133153 0 -1 0 I I #
coedge $-1 $344 $346 $228 $356 reversed $221 $-1 #
edge $-1 $359 -49.477160187152087 $362 49.477160187152087 $355 $504 forward 7 unknown #
coedge $-1 $350 $229 $234 $365 forward $342 $-1 #
coedge $-1 $229 $350 $344 $495 reversed $342 $-1 #
vertex $-1 $230 $505 #
straight-curve $-1 0 49.477160187152087 23.170326101133153 -1 0 0 I I #
coedge $-1 $231 $345 $233 $364 reversed $138 $-1 #
vertex $-1 $356 $506 #
straight-curve $-1 0 -49.477160187152087 23.170326101133153 1 0 0 I I #
edge $-1 $236 -23.170326101133153 $353 23.170326101133153 $233 $507 forward 7 unknown #
edge $-1 $237 -23.170326101133153 $352 23.170326101133153 $234 $508 forward 7 unknown #
point $-1 77.313150425733198 -49.477160187152087 23.170326101133153 #
point $-1 77.313150425733198 49.477160187152087 23.170326101133153 #
face $-1 $-1 $254 $34 $-1 $509 reversed single #
loop $-1 $-1 $377 $239 #
plane-surface $-1 0 0 23.170326101133153 0 0 1 1 0 0 forward_v I I I I #
coedge $-1 $383 $382 $243 $376 forward $240 $-1 #
coedge $-1 $245 $242 $383 $510 reversed $146 $-1 #
coedge $-1 $242 $245 $386 $511 reversed $146 $-1 #
edge $-1 $388 -23.170326101133153 $384 23.170326101133153 $242 $512 forward 7 unknown #
coedge $-1 $244 $243 $390 $513 reversed $93 $-1 #
edge $-1 $514 -45.297740674355978 $380 -18.733078828398469 $371 $515 forward 7 unknown #
coedge $-1 $387 $386 $244 $378 forward $369 $-1 #
edge $-1 $379 18.733078828398469 $516 45.297740674355978 $377 $517 forward 7 unknown #
vertex $-1 $378 $518 #
vertex $-1 $376 $519 #
straight-curve $-1 -50.748488579775689 -3.1365079848857853 0 0 0 -1 I I #
coedge $-1 $371 $248 $253 $392 forward $240 $-1 #
coedge $-1 $248 $371 $372 $510 forward $240 $-1 #
vertex $-1 $249 $520 #
straight-curve $-1 -32.01540975137722 -9.8693166930168097 -23.170326101133153 -1 0 0 I I #
coedge $-1 $377 $250 $373 $511 forward $369 $-1 #
coedge $-1 $250 $377 $252 $391 forward $369 $-1 #
vertex $-1 $251 $521 #
straight-curve $-1 -32.01540975137722 -9.8693166930168097 23.170326101133153 1 0 0 I I #
coedge $-1 $253 $252 $375 $513 forward $254 $-1 #
edge $-1 $516 3.1365079848857853 $256 9.8693166930168097 $252 $522 forward 7 unknown #
edge $-1 $255 -9.8693166930168097 $514 -3.1365079848857853 $253 $523 forward 7 unknown #
point $-1 -77.313150425733198 -9.8693166930168097 -23.170326101133153 #
point $-1 -77.313150425733198 -9.8693166930168097 23.170326101133153 #
face $-1 $-1 $524 $35 $-1 $525 reversed single #
loop $-1 $-1 $269 $258 #
plane-surface $-1 0 0 23.170326101133153 0 0 1 1 0 0 forward_v I I I I #
coedge $-1 $264 $261 $526 $527 reversed $154 $-1 #
coedge $-1 $261 $264 $528 $529 reversed $154 $-1 #
coedge $-1 $530 $531 $261 $401 forward $524 $-1 #
edge $-1 $532 -23.170326101133153 $533 23.170326101133153 $400 $534 forward 7 unknown #
coedge $-1 $526 $267 $262 $403 forward $259 $-1 #
edge $-1 $272 -6.6178605235411609 $407 0.11494818458986344 $402 $535 forward 7 unknown #
coedge $-1 $269 $528 $263 $405 forward $396 $-1 #
edge $-1 $406 -0.11494818458986344 $271 6.6178605235411609 $404 $536 forward 7 unknown #
vertex $-1 $405 $537 #
vertex $-1 $403 $538 #
straight-curve $-1 50.748488579775682 -3.1365079848857853 0 0 0 -1 I I #
coedge $-1 $531 $530 $266 $410 forward $524 $-1 #
edge $-1 $415 -23.170326101133153 $412 23.170326101133153 $409 $539 forward 7 unknown #
coedge $-1 $267 $526 $531 $540 forward $259 $-1 #
vertex $-1 $410 $541 #
straight-curve $-1 32.01540975137722 -9.8693166930168097 -23.170326101133153 -1 0 0 I I #
coedge $-1 $528 $269 $530 $542 forward $396 $-1 #
vertex $-1 $542 $543 #
straight-curve $-1 32.01540975137722 -9.8693166930168097 23.170326101133153 1 0 0 I I #
point $-1 50.748488579775682 -9.8693166930168097 23.170326101133153 #
point $-1 50.748488579775682 -9.8693166930168097 -23.170326101133153 #
plane-surface $-1 0 0 23.170326101133153 0 0 1 1 0 0 forward_v I I I I #
coedge $-1 $430 $429 $422 $544 forward $275 $-1 #
coedge $-1 $422 $277 $279 $426 reversed $162 $-1 #
coedge $-1 $277 $421 $420 $544 reversed $162 $-1 #
coedge $-1 $285 $280 $277 $424 forward $286 $-1 #
edge $-1 $427 21.077370205674026 $545 28.930481800641001 $423 $546 forward 7 unknown #
coedge $-1 $279 $278 $430 $547 reversed $101 $-1 #
edge $-1 $548 -98.954320374304174 $427 -89.88632814714741 $421 $549 forward 7 unknown #
vertex $-1 $281 $550 #
straight-curve $-1 21.87085311608854 41.624048592185112 23.170326101133156 1 0 0 I I #
coedge $-1 $420 $282 $285 $434 reversed $275 $-1 #
coedge $-1 $282 $420 $425 $547 forward $275 $-1 #
vertex $-1 $283 $551 #
straight-curve $-1 36.734923884578485 49.477160187152087 101.01189740469853 0 0 1 I I #
straight-curve $-1 36.734923884578485 -36.219794688511847 68.113490776831668 0 0.8660253999169214 -0.50000000669873634 I I #
edge $-1 $545 -50.748488579775675 $287 -36.734923884578485 $429 $552 forward 7 unknown #
point $-1 36.734923884578485 49.477160187152087 23.170326101133153 #
point $-1 36.734923884578485 41.624048592185112 23.170326101133156 #
edge $-1 $553 1 $553 0 $290 $-1 forward 7 unknown #
vertex $-1 $291 $554 #
ellipse-curve $-1 43.741706232177094 44.736675731039185 19.493562248672426 0 0.50000000669873634 0.8660253999169214 1.5 0 0 1 I I #
point $-1 45.241706232177094 45.550604389668614 20.90332801397193 #
loop $-1 $-1 $302 $294 #
plane-surface $-1 0 -49.477160187152087 0 0 1 0 0 0 1 forward_v I I I I #
coedge $-1 $444 $297 $299 $448 reversed $177 $-1 #
coedge $-1 $297 $443 $555 $556 reversed $177 $-1 #
coedge $-1 $305 $300 $297 $446 forward $295 $-1 #
edge $-1 $449 -31.578934021932376 $557 -27.988862334927738 $445 $558 forward 7 unknown #
coedge $-1 $299 $298 $452 $559 reversed $110 $-1 #
edge $-1 $560 3.0127411226648333e-014 $449 4.9088036557046077 $443 $561 forward 7 unknown #
vertex $-1 $301 $562 #
straight-curve $-1 -15.286439609736803 -45.887088500147456 23.170326101133153 -1 0 0 I I #
coedge $-1 $555 $302 $305 $456 reversed $441 $-1 #
coedge $-1 $302 $555 $447 $559 forward $441 $-1 #
vertex $-1 $303 $563 #
straight-curve $-1 -20.667732006974585 -49.477160187152087 66.454523172252308 0 0 1 I I #
straight-curve $-1 -20.667732006974585 -49.477160187152109 19.822530018271109 0 -0.7313536940579346 -0.68199836817093118 I I #
edge $-1 $557 -40.478026431972623 $306 -20.667732006974585 $451 $564 forward 7 unknown #
point $-1 -20.667732006974585 -49.477160187152087 23.170326101133153 #
point $-1 -20.667732006974585 -45.887088500147449 23.170326101133153 #
edge $-1 $565 1 $565 0 $309 $-1 forward 7 unknown #
vertex $-1 $310 $566 #
ellipse-curve $-1 -34.817942310544616 -46.991519562769739 20.755845118154564 0 -0.68199836817093118 0.7313536940579346 0.5 0 0 1 I I #
point $-1 -34.317942310544616 -47.682124343649761 21.496428059702136 #
edge $-1 $567 1 $567 0 $313 $-1 forward 7 unknown #
vertex $-1 $314 $568 #
ellipse-curve $-1 -26.327816128402603 -46.991519562769739 20.755845118154564 0 -0.68199836817093118 0.7313536940579346 0.5 0 0 1 I I #
point $-1 -25.827816128402603 -47.682124343649761 21.496428059702136 #
plane-surface $-1 0 0 23.170326101133153 0 0 1 1 0 0 forward_v I I I I #
coedge $-1 $478 $477 $470 $569 forward $318 $-1 #
coedge $-1 $470 $320 $322 $474 reversed $199 $-1 #
coedge $-1 $320 $469 $468 $569 reversed $199 $-1 #
coedge $-1 $328 $323 $320 $472 forward $329 $-1 #
edge $-1 $475 -31.578934021932376 $570 -27.988862334927738 $471 $571 forward 7 unknown #
coedge $-1 $322 $321 $478 $572 reversed $124 $-1 #
edge $-1 $573 3.0127411226648333e-014 $475 4.9088036557046077 $469 $574 forward 7 unknown #
vertex $-1 $324 $575 #
straight-curve $-1 15.286439609736796 -45.887088500147456 23.170326101133153 -1 0 0 I I #
coedge $-1 $468 $325 $328 $482 reversed $318 $-1 #
coedge $-1 $325 $468 $473 $572 forward $318 $-1 #
vertex $-1 $326 $576 #
straight-curve $-1 40.478026431972609 -49.477160187152087 66.454523172252308 0 0 1 I I #
straight-curve $-1 40.478026431972609 -49.477160187152109 19.822530018271109 0 -0.7313536940579346 -0.68199836817093118 I I #
edge $-1 $570 20.667732006974571 $330 40.478026431972609 $477 $577 forward 7 unknown #
point $-1 40.478026431972609 -49.477160187152087 23.170326101133153 #
point $-1 40.478026431972609 -45.887088500147449 23.170326101133153 #
edge $-1 $578 1 $578 0 $333 $-1 forward 7 unknown #
vertex $-1 $334 $579 #
ellipse-curve $-1 26.327816128402588 -46.991519562769739 20.755845118154564 0 -0.68199836817093118 0.7313536940579346 0.5 0 0 1 I I #
point $-1 26.827816128402588 -47.682124343649761 21.496428059702136 #
edge $-1 $580 1 $580 0 $337 $-1 forward 7 unknown #
vertex $-1 $338 $581 #
ellipse-curve $-1 34.817942310544595 -46.991519562769739 20.755845118154564 0 -0.68199836817093118 0.7313536940579346 0.5 0 0 1 I I #
point $-1 35.317942310544595 -47.682124343649761 21.496428059702136 #
plane-surface $-1 77.313150425733198 0 0 -1 0 0 0 0 1 forward_v I I I I #
coedge $-1 $346 $344 $348 $498 reversed $221 $-1 #
edge $-1 $359 -23.170326101133153 $500 23.170326101133153 $358 $582 forward 7 unknown #
vertex $-1 $498 $583 #
straight-curve $-1 -77.313150425733198 -49.477160187152087 0 0 0 -1 I I #
edge $-1 $496 -49.477160187152087 $500 49.477160187152087 $494 $584 forward 7 unknown #
straight-curve $-1 0 -49.477160187152087 -23.170326101133153 -1 0 0 I I #
vertex $-1 $351 $585 #
straight-curve $-1 0 49.477160187152087 -23.170326101133153 1 0 0 I I #
point $-1 77.313150425733198 49.477160187152087 -23.170326101133153 #
point $-1 77.313150425733198 -49.477160187152087 -23.170326101133153 #
straight-curve $-1 -77.313150425733198 0 23.170326101133153 0 -1 0 I I #
point $-1 -77.313150425733198 49.477160187152087 23.170326101133153 #
point $-1 -77.313150425733198 -49.477160187152087 23.170326101133153 #
straight-curve $-1 77.313150425733198 -49.477160187152087 0 0 0 -1 I I #
straight-curve $-1 77.313150425733198 49.477160187152087 0 0 0 -1 I I #
plane-surface $-1 -77.313150425733198 0 0 1 0 0 0 0 -1 forward_v I I I I #
edge $-1 $380 -0.11494818458986344 $384 6.6178605235411609 $383 $586 forward 7 unknown #
edge $-1 $388 -6.6178605235411609 $379 0.11494818458986344 $386 $587 forward 7 unknown #
straight-curve $-1 -50.748488579775689 -9.8693166930168097 0 0 0 -1 I I #
edge $-1 $516 -23.170326101133153 $514 23.170326101133153 $390 $588 forward 7 unknown #
vertex $-1 $513 $589 #
straight-curve $-1 -32.01540975137722 -3.1365079848857853 -23.170326101133153 1 0 0 I I #
vertex $-1 $391 $590 #
straight-curve $-1 -32.01540975137722 -3.1365079848857853 23.170326101133153 -1 0 0 I I #
point $-1 -50.748488579775689 -3.1365079848857853 23.170326101133153 #
point $-1 -50.748488579775689 -3.1365079848857853 -23.170326101133153 #
point $-1 -50.748488579775689 -9.8693166930168097 -23.170326101133153 #
point $-1 -50.748488579775689 -9.8693166930168097 23.170326101133153 #
straight-curve $-1 -77.313150425733198 0 23.170326101133153 0 -1 0 I I #
straight-curve $-1 -77.313150425733198 0 -23.170326101133153 0 1 0 I I #
loop $-1 $-1 $409 $395 #
plane-surface $-1 77.313150425733198 0 0 -1 0 0 0 0 1 forward_v I I I I #
coedge $-1 $411 $402 $398 $527 forward $259 $-1 #
edge $-1 $407 18.733078828398462 $532 45.297740674355978 $526 $591 forward 7 unknown #
coedge $-1 $404 $414 $399 $529 forward $396 $-1 #
edge $-1 $533 -45.297740674355978 $406 -18.733078828398462 $528 $592 forward 7 unknown #
coedge $-1 $409 $400 $414 $542 reversed $524 $-1 #
coedge $-1 $400 $409 $411 $540 reversed $524 $-1 #
vertex $-1 $540 $593 #
vertex $-1 $401 $594 #
straight-curve $-1 77.313150425733198 -3.1365079848857853 0 0 0 1 I I #
straight-curve $-1 50.748488579775682 -3.2514561694756487 -23.170326101133153 0 1 0 I I #
straight-curve $-1 50.748488579775682 -3.2514561694756487 23.170326101133153 0 -1 0 I I #
point $-1 50.748488579775682 -3.1365079848857853 23.170326101133153 #
point $-1 50.748488579775682 -3.1365079848857853 -23.170326101133153 #
straight-curve $-1 77.313150425733198 -9.8693166930168097 0 0 0 -1 I I #
edge $-1 $532 3.1365079848857853 $412 9.8693166930168097 $531 $595 forward 7 unknown #
point $-1 77.313150425733198 -9.8693166930168097 -23.170326101133153 #
edge $-1 $415 -9.8693166930168097 $533 -3.1365079848857853 $530 $596 forward 7 unknown #
point $-1 77.313150425733198 -9.8693166930168097 23.170326101133153 #
edge $-1 $545 77.841571303565374 $548 82.375567477887842 $420 $597 forward 7 unknown #
vertex $-1 $434 $598 #
straight-curve $-1 50.748488579775675 20.546678386511086 23.170326101133156 0 1 0 I I #
edge $-1 $548 -28.877635463687135 $431 -14.864070768489945 $430 $599 forward 7 unknown #
vertex $-1 $547 $600 #
straight-curve $-1 50.748488579775675 -36.219794688511847 68.113490776831668 0 -0.8660253999169214 0.50000000669873634 I I #
point $-1 50.748488579775675 41.624048592185112 23.170326101133156 #
point $-1 36.734923884578485 49.477160187152087 18.636329926810681 #
straight-curve $-1 0 49.477160187152087 23.170326101133153 -1 0 0 I I #
vertex $-1 $437 $601 #
point $-1 45.241706232177094 44.736675731039185 19.493562248672426 #
coedge $-1 $452 $451 $444 $556 forward $441 $-1 #
edge $-1 $557 43.284197071119152 $560 46.631993153981178 $555 $602 forward 7 unknown #
vertex $-1 $456 $603 #
straight-curve $-1 -40.478026431972623 -77.466022522079825 23.170326101133156 0 -1 0 I I #
edge $-1 $560 -25.19158682223582 $453 -5.3812923972377824 $452 $604 forward 7 unknown #
vertex $-1 $559 $605 #
straight-curve $-1 -40.478026431972623 -49.477160187152109 19.822530018271109 0 0.7313536940579346 0.68199836817093118 I I #
point $-1 -40.478026431972623 -45.887088500147449 23.170326101133153 #
point $-1 -20.667732006974585 -49.477160187152087 19.822530018271131 #
straight-curve $-1 0 -49.477160187152087 23.170326101133153 1 0 0 I I #
vertex $-1 $459 $606 #
point $-1 -34.317942310544616 -46.991519562769739 20.755845118154564 #
vertex $-1 $463 $607 #
point $-1 -25.827816128402603 -46.991519562769739 20.755845118154564 #
edge $-1 $570 43.284197071119152 $573 46.631993153981178 $468 $608 forward 7 unknown #
vertex $-1 $482 $609 #
straight-curve $-1 20.667732006974571 -77.466022522079825 23.170326101133156 0 -1 0 I I #
edge $-1 $573 5.3812923972377753 $479 25.191586822235813 $478 $610 forward 7 unknown #
vertex $-1 $572 $611 #
straight-curve $-1 20.667732006974571 -49.477160187152109 19.822530018271109 0 0.7313536940579346 0.68199836817093118 I I #
point $-1 20.667732006974571 -45.887088500147449 23.170326101133153 #
point $-1 40.478026431972609 -49.477160187152087 19.822530018271131 #
straight-curve $-1 0 -49.477160187152087 23.170326101133153 1 0 0 I I #
vertex $-1 $485 $612 #
point $-1 26.827816128402588 -46.991519562769739 20.755845118154564 #
vertex $-1 $489 $613 #
point $-1 35.317942310544595 -46.991519562769739 20.755845118154564 #
straight-curve $-1 -77.313150425733198 49.477160187152087 0 0 0 -1 I I #
point $-1 -77.313150425733198 -49.477160187152087 -23.170326101133153 #
straight-curve $-1 -77.313150425733198 0 -23.170326101133153 0 1 0 I I #
point $-1 -77.313150425733198 49.477160187152087 -23.170326101133153 #
straight-curve $-1 -50.748488579775689 -3.2514561694756487 -23.170326101133153 0 -1 0 I I #
straight-curve $-1 -50.748488579775689 -3.2514561694756487 23.170326101133153 0 1 0 I I #
straight-curve $-1 -77.313150425733198 -3.1365079848857853 0 0 0 -1 I I #
point $-1 -77.313150425733198 -3.1365079848857853 -23.170326101133153 #
point $-1 -77.313150425733198 -3.1365079848857853 23.170326101133153 #
straight-curve $-1 32.01540975137722 -3.1365079848857853 -23.170326101133153 1 0 0 I I #
straight-curve $-1 32.01540975137722 -3.1365079848857853 23.170326101133153 -1 0 0 I I #
point $-1 77.313150425733198 -3.1365079848857853 -23.170326101133153 #
point $-1 77.313150425733198 -3.1365079848857853 23.170326101133153 #
straight-curve $-1 77.313150425733198 0 -23.170326101133153 0 -1 0 I I #
straight-curve $-1 77.313150425733198 0 23.170326101133153 0 1 0 I I #
straight-curve $-1 50.748488579775675 49.477160187152087 101.01189740469853 0 0 -1 I I #
point $-1 50.748488579775675 49.477160187152087 23.170326101133153 #
straight-curve $-1 21.87085311608854 49.47716018715208 18.636329926810685 -1 0 0 I I #
point $-1 50.748488579775675 49.477160187152087 18.636329926810681 #
point $-1 43.741706232177094 43.986675720991073 18.194524148797043 #
straight-curve $-1 -40.478026431972623 -49.477160187152087 66.454523172252308 0 0 -1 I I #
point $-1 -40.478026431972623 -49.477160187152087 23.170326101133153 #
straight-curve $-1 -15.286439609736803 -49.477160187152087 19.822530018271127 1 0 0 I I #
point $-1 -40.478026431972623 -49.477160187152087 19.822530018271131 #
point $-1 -34.817942310544616 -46.650520378684277 20.390168271125599 #
point $-1 -26.327816128402603 -46.650520378684277 20.390168271125599 #
straight-curve $-1 20.667732006974571 -49.477160187152087 66.454523172252308 0 0 -1 I I #
point $-1 20.667732006974571 -49.477160187152087 23.170326101133153 #
straight-curve $-1 15.286439609736796 -49.477160187152087 19.822530018271127 1 0 0 I I #
point $-1 20.667732006974571 -49.477160187152087 19.822530018271131 #
point $-1 26.327816128402588 -46.650520378684277 20.390168271125599 #
point $-1 34.817942310544595 -46.650520378684277 20.390168271125599 #
End-of-ACIS-data 