500 0 11 0           
7 Unknown 11 ACIS 5.0 NT 24 Thu Mar 25 23:08:37 1999 
-1 9.9999999999999995e-007 1e-010 
body $-1 $11 $-1 $12 #
body $-1 $13 $-1 $14 #
body $-1 $15 $-1 $16 #
body $-1 $17 $-1 $18 #
body $-1 $19 $-1 $20 #
body $-1 $21 $-1 $22 #
body $-1 $23 $-1 $24 #
body $-1 $25 $-1 $26 #
body $-1 $27 $-1 $28 #
body $-1 $29 $-1 $30 #
body $-1 $31 $-1 $32 #
lump $-1 $-1 $33 $0 #
transform $-1 1 0 0 0 1 0 0 0 1 45.169835505233927 27.629735099794125 8.7115415581683724 1 rotate no_reflect no_shear #
lump $-1 $-1 $34 $1 #
transform $-1 1 0 0 0 1 0 0 0 1 45.169835505233927 27.629735099794125 8.7115415581683724 1 rotate no_reflect no_shear #
lump $-1 $-1 $35 $2 #
transform $-1 1 0 0 0 1 0 0 0 1 45.169835505233927 27.629735099794125 8.7115415581683724 1 rotate no_reflect no_shear #
lump $-1 $-1 $36 $3 #
transform $-1 1 0 0 0 1 0 0 0 1 45.169835505233927 27.629735099794125 8.7115415581683724 1 rotate no_reflect no_shear #
lump $-1 $-1 $37 $4 #
transform $-1 1 0 0 0 1 0 0 0 1 45.169835505233927 27.629735099794125 8.7115415581683724 1 rotate no_reflect no_shear #
lump $-1 $-1 $38 $5 #
transform $-1 1 0 0 0 1 0 0 0 1 45.169835505233927 27.629735099794125 8.7115415581683724 1 rotate no_reflect no_shear #
lump $-1 $-1 $39 $6 #
transform $-1 1 0 0 0 1 0 0 0 1 45.169835505233927 27.629735099794125 8.7115415581683724 1 rotate no_reflect no_shear #
lump $-1 $-1 $40 $7 #
transform $-1 1 0 0 0 1 0 0 0 1 45.169835505233927 27.629735099794125 8.7115415581683724 1 rotate no_reflect no_shear #
lump $-1 $-1 $41 $8 #
transform $-1 1 0 0 0 1 0 0 0 1 45.169835505233927 27.629735099794125 8.7115415581683724 1 rotate no_reflect no_shear #
lump $-1 $-1 $42 $9 #
transform $-1 1 0 0 0 1 0 0 0 1 45.169835505233927 27.629735099794125 8.7115415581683724 1 rotate no_reflect no_shear #
lump $-1 $-1 $43 $10 #
transform $-1 1 0 0 0 1 0 0 0 1 45.169835505233927 27.629735099794125 8.7115415581683724 1 rotate no_reflect no_shear #
shell $-1 $-1 $-1 $44 $-1 $11 #
shell $-1 $-1 $-1 $45 $-1 $13 #
shell $-1 $-1 $-1 $46 $-1 $15 #
shell $-1 $-1 $-1 $47 $-1 $17 #
shell $-1 $-1 $-1 $48 $-1 $19 #
shell $-1 $-1 $-1 $49 $-1 $21 #
shell $-1 $-1 $-1 $50 $-1 $23 #
shell $-1 $-1 $-1 $51 $-1 $25 #
shell $-1 $-1 $-1 $52 $-1 $27 #
shell $-1 $-1 $-1 $53 $-1 $29 #
shell $-1 $-1 $-1 $54 $-1 $31 #
face $-1 $55 $56 $33 $-1 $57 forward single #
face $-1 $58 $59 $34 $-1 $60 reversed single #
face $-1 $61 $62 $35 $-1 $63 reversed single #
face $-1 $64 $65 $36 $-1 $66 forward single #
face $-1 $67 $68 $37 $-1 $69 forward single #
face $-1 $70 $71 $38 $-1 $72 reversed single #
face $-1 $73 $74 $39 $-1 $75 forward single #
face $-1 $76 $77 $40 $-1 $78 forward single #
face $-1 $79 $80 $41 $-1 $81 reversed single #
face $-1 $82 $83 $42 $-1 $84 forward single #
face $-1 $85 $86 $43 $-1 $87 forward single #
face $-1 $88 $89 $33 $-1 $90 reversed single #
loop $-1 $-1 $91 $44 #
plane-surface $-1 0 0 8.7115415581683724 0 0 1 1 0 0 forward_v I I I I #
face $-1 $92 $93 $34 $-1 $94 reversed single #
loop $-1 $-1 $95 $45 #
plane-surface $-1 -41.921802624340529 0 4.8333941321299188 0 0 1 1 0 0 forward_v I I I I #
face $-1 $96 $97 $35 $-1 $98 reversed single #
loop $-1 $-1 $99 $46 #
plane-surface $-1 -9.3456517448793655 43.367747292449245 108.54443389447871 1 0 0 0 -0.64278761758704617 -0.76604443648966558 forward_v I I I I #
face $-1 $100 $101 $36 $-1 $102 forward single #
loop $-1 $103 $104 $47 #
cone-surface $-1 -5.7474561375157194 23.667237348639684 5.0170939049043728 0 -0.64278761758704617 -0.76604443648966558 1 0 0 1 I I 0 1 1 forward I I I I #
face $-1 $105 $106 $37 $-1 $107 forward single #
loop $-1 $108 $109 $48 #
cone-surface $-1 -0.35016272647025204 23.667237348639684 5.0170939049043728 0 -0.64278761758704617 -0.76604443648966558 1 0 0 1 I I 0 1 1 forward I I I I #
face $-1 $110 $111 $38 $-1 $112 reversed single #
loop $-1 $-1 $113 $49 #
plane-surface $-1 32.576150879461167 43.367747292449245 108.54443389447871 1 0 0 0 -0.64278761758704617 -0.76604443648966558 forward_v I I I I #
face $-1 $114 $115 $39 $-1 $116 forward single #
loop $-1 $117 $118 $50 #
cone-surface $-1 36.17434648682481 23.667237348639684 5.0170939049043728 0 -0.64278761758704617 -0.76604443648966558 1 0 0 1 I I 0 1 1 forward I I I I #
face $-1 $119 $120 $40 $-1 $121 forward single #
loop $-1 $122 $123 $51 #
cone-surface $-1 41.571639897870277 23.667237348639684 5.0170939049043728 0 -0.64278761758704617 -0.76604443648966558 1 0 0 1 I I 0 1 1 forward I I I I #
face $-1 $124 $125 $41 $-1 $126 reversed single #
loop $-1 $-1 $127 $52 #
plane-surface $-1 5.240104104508891 -105.86618586316834 45.432516051805074 -1 0 0 0 -0.86602541151947299 0.49999998660252726 forward_v I I I I #
face $-1 $128 $129 $42 $-1 $130 forward single #
loop $-1 $131 $132 $53 #
cone-surface $-1 -9.9892172234524992 -23.343573786740052 3.4206385576550851 0 0.86602541151947299 -0.49999998660252726 1.5 0 0 1 I I 0 1 1.5 forward I I I I #
face $-1 $133 $134 $43 $-1 $135 forward single #
loop $-1 $136 $137 $54 #
cone-surface $-1 -0.85162442667567007 -23.343573786740052 3.4206385576550851 0 0.86602541151947299 -0.49999998660252726 1.5 0 0 1 I I 0 1 1.5 forward I I I I #
face $-1 $138 $139 $33 $-1 $140 reversed single #
loop $-1 $-1 $141 $55 #
plane-surface $-1 0 0 -8.7115415581683724 0 0 1 1 0 0 forward_v I I I I #
coedge $-1 $142 $143 $144 $145 forward $56 $-1 #
face $-1 $146 $147 $34 $-1 $148 reversed single #
loop $-1 $-1 $149 $58 #
plane-surface $-1 -38.673769743447131 0 6.772467845149146 -1 0 0 0 0 1 forward_v I I I I #
coedge $-1 $150 $151 $152 $153 forward $59 $-1 #
face $-1 $154 $155 $35 $-1 $156 reversed single #
loop $-1 $-1 $157 $61 #
plane-surface $-1 -3.0488094319929857 -14.70147460996693 39.340231522603091 0 0.64278761758704617 0.76604443648966558 1 0 0 forward_v I I I I #
coedge $-1 $158 $159 $160 $161 reversed $62 $-1 #
face $-1 $-1 $162 $36 $-1 $163 forward single #
loop $-1 $164 $165 $64 #
cone-surface $-1 -5.7474561375157194 22.298025375052482 3.3853306505360319 0 -0.64278761758704617 -0.76604443648966558 0.5 0 0 1 I I -0.70710678118654746 0.70710678118654746 0.5 forward I I I I #
loop $-1 $-1 $166 $47 #
coedge $-1 $104 $104 $167 $168 reversed $65 $-1 #
face $-1 $-1 $169 $37 $-1 $170 forward single #
loop $-1 $171 $172 $67 #
cone-surface $-1 -0.35016272647025204 22.298025375052482 3.3853306505360319 0 -0.64278761758704617 -0.76604443648966558 0.5 0 0 1 I I -0.70710678118654746 0.70710678118654746 0.5 forward I I I I #
loop $-1 $-1 $173 $48 #
coedge $-1 $109 $109 $174 $175 reversed $68 $-1 #
face $-1 $176 $177 $38 $-1 $178 forward single #
loop $-1 $-1 $179 $70 #
plane-surface $-1 38.872993192347543 -14.70147460996693 39.340231522603091 0 0.64278761758704617 0.76604443648966558 1 0 0 forward_v I I I I #
coedge $-1 $180 $181 $182 $183 reversed $71 $-1 #
face $-1 $-1 $184 $39 $-1 $185 forward single #
loop $-1 $186 $187 $73 #
cone-surface $-1 36.17434648682481 22.298025375052482 3.3853306505360319 0 -0.64278761758704617 -0.76604443648966558 0.5 0 0 1 I I -0.70710678118654746 0.70710678118654746 0.5 forward I I I I #
loop $-1 $-1 $188 $50 #
coedge $-1 $118 $118 $189 $190 reversed $74 $-1 #
face $-1 $-1 $191 $40 $-1 $192 forward single #
loop $-1 $193 $194 $76 #
cone-surface $-1 41.571639897870277 22.298025375052482 3.3853306505360319 0 -0.64278761758704617 -0.76604443648966558 0.5 0 0 1 I I -0.70710678118654746 0.70710678118654746 0.5 forward I I I I #
loop $-1 $-1 $195 $51 #
coedge $-1 $123 $123 $196 $197 reversed $77 $-1 #
face $-1 $198 $199 $41 $-1 $200 reversed single #
loop $-1 $-1 $201 $79 #
plane-surface $-1 -5.4204208250640775 -27.629735099794118 0.26268175689443041 0 -0.86602541151947299 0.49999998660252726 1 0 0 forward_v I I I I #
coedge $-1 $202 $203 $204 $205 reversed $80 $-1 #
face $-1 $-1 $206 $42 $-1 $207 forward single #
loop $-1 $208 $209 $82 #
cone-surface $-1 -9.9892172234524992 -20.846869068215536 1.9791654678268724 0 0.86602541151947299 -0.49999998660252726 0.75 0 0 1 I I -0.70710678118654757 0.70710678118654757 0.75 forward I I I I #
loop $-1 $-1 $210 $53 #
coedge $-1 $132 $132 $211 $212 reversed $83 $-1 #
face $-1 $-1 $213 $43 $-1 $214 forward single #
loop $-1 $215 $216 $85 #
cone-surface $-1 -0.85162442667567007 -20.846869068215536 1.9791654678268724 0 0.86602541151947299 -0.49999998660252726 0.75 0 0 1 I I -0.70710678118654757 0.70710678118654757 0.75 forward I I I I #
loop $-1 $-1 $217 $54 #
coedge $-1 $137 $137 $218 $219 reversed $86 $-1 #
face $-1 $220 $221 $33 $-1 $222 reversed single #
loop $-1 $-1 $223 $88 #
plane-surface $-1 0 -27.629735099794125 0 0 1 0 0 0 1 forward_v I I I I #
coedge $-1 $224 $225 $226 $227 forward $89 $-1 #
coedge $-1 $228 $91 $229 $230 forward $56 $-1 #
coedge $-1 $91 $228 $231 $232 forward $56 $-1 #
coedge $-1 $233 $234 $91 $145 reversed $235 $-1 #
edge $-1 $236 -27.629735099794125 $237 27.629735099794125 $144 $238 forward 7 unknown #
face $-1 $239 $240 $34 $-1 $241 reversed single #
loop $-1 $-1 $242 $92 #
plane-surface $-1 0 27.629735099794125 0 0 -1 0 0 0 -1 forward_v I I I I #
coedge $-1 $152 $243 $244 $245 reversed $93 $-1 #
coedge $-1 $246 $95 $247 $248 reversed $59 $-1 #
coedge $-1 $95 $246 $249 $250 reversed $59 $-1 #
coedge $-1 $251 $149 $95 $153 reversed $93 $-1 #
edge $-1 $252 -27.629735099794125 $253 27.629735099794125 $152 $254 forward 7 unknown #
face $-1 $255 $256 $35 $-1 $257 forward single #
loop $-1 $-1 $258 $96 #
plane-surface $-1 3.248032880893394 43.367747292449245 108.54443389447871 -1 0 0 0 0.64278761758704617 0.76604443648966558 forward_v I I I I #
coedge $-1 $259 $260 $261 $262 reversed $97 $-1 #
coedge $-1 $159 $99 $263 $264 reversed $62 $-1 #
coedge $-1 $99 $158 $259 $265 reversed $62 $-1 #
coedge $-1 $261 $266 $99 $161 forward $256 $-1 #
edge $-1 $267 -5.9458614535695027 $268 -0.1165022808479641 $160 $269 forward 7 unknown #
loop $-1 $-1 $167 $100 #
plane-surface $-1 -3.0488094319929857 -14.70147460996693 39.340231522603091 0 0.64278761758704617 0.76604443648966558 1 0 0 forward_v I I I I #
loop $-1 $-1 $270 $64 #
coedge $-1 $165 $165 $166 $271 reversed $101 $-1 #
coedge $-1 $166 $166 $165 $271 forward $103 $-1 #
coedge $-1 $167 $167 $104 $168 forward $162 $-1 #
edge $-1 $272 -2.2836403615650844e-015 $272 6.2831853071795978 $167 $273 forward 7 unknown #
loop $-1 $-1 $174 $105 #
plane-surface $-1 -3.0488094319929857 -14.70147460996693 39.340231522603091 0 0.64278761758704617 0.76604443648966558 1 0 0 forward_v I I I I #
loop $-1 $-1 $274 $67 #
coedge $-1 $172 $172 $173 $275 reversed $106 $-1 #
coedge $-1 $173 $173 $172 $275 forward $108 $-1 #
coedge $-1 $174 $174 $109 $175 forward $169 $-1 #
edge $-1 $276 -2.2836403615650844e-015 $276 6.2831853071795978 $174 $277 forward 7 unknown #
face $-1 $278 $279 $38 $-1 $280 reversed single #
loop $-1 $-1 $182 $110 #
plane-surface $-1 0 0 8.7115415581683724 0 0 1 1 0 0 forward_v I I I I #
coedge $-1 $281 $282 $283 $284 reversed $111 $-1 #
coedge $-1 $181 $113 $285 $286 reversed $71 $-1 #
coedge $-1 $113 $180 $281 $287 reversed $71 $-1 #
coedge $-1 $283 $288 $113 $183 forward $177 $-1 #
edge $-1 $289 -5.9458614535695027 $290 -0.1165022808479641 $182 $291 forward 7 unknown #
loop $-1 $-1 $189 $114 #
plane-surface $-1 38.872993192347543 -14.70147460996693 39.340231522603091 0 0.64278761758704617 0.76604443648966558 1 0 0 forward_v I I I I #
loop $-1 $-1 $292 $73 #
coedge $-1 $187 $187 $188 $293 reversed $115 $-1 #
coedge $-1 $188 $188 $187 $293 forward $117 $-1 #
coedge $-1 $189 $189 $118 $190 forward $184 $-1 #
edge $-1 $294 -2.2836403615650844e-015 $294 6.2831853071795978 $189 $295 forward 7 unknown #
loop $-1 $-1 $196 $119 #
plane-surface $-1 38.872993192347543 -14.70147460996693 39.340231522603091 0 0.64278761758704617 0.76604443648966558 1 0 0 forward_v I I I I #
loop $-1 $-1 $296 $76 #
coedge $-1 $194 $194 $195 $297 reversed $120 $-1 #
coedge $-1 $195 $195 $194 $297 forward $122 $-1 #
coedge $-1 $196 $196 $123 $197 forward $191 $-1 #
edge $-1 $298 -2.2836403615650844e-015 $298 6.2831853071795978 $196 $299 forward 7 unknown #
face $-1 $300 $301 $41 $-1 $302 reversed single #
loop $-1 $-1 $303 $124 #
plane-surface $-1 -16.080945754637046 -105.86618586316834 45.432516051805074 1 0 0 0 0.86602541151947299 -0.49999998660252726 forward_v I I I I #
coedge $-1 $304 $305 $306 $307 reversed $125 $-1 #
coedge $-1 $203 $127 $308 $309 reversed $80 $-1 #
coedge $-1 $127 $202 $304 $310 reversed $80 $-1 #
coedge $-1 $306 $311 $127 $205 forward $312 $-1 #
edge $-1 $313 25.303357831790045 $314 30.18130913812838 $204 $315 forward 7 unknown #
loop $-1 $-1 $211 $128 #
plane-surface $-1 -5.4204208250640775 -27.629735099794118 0.26268175689443041 0 -0.86602541151947299 0.49999998660252726 1 0 0 forward_v I I I I #
loop $-1 $-1 $316 $82 #
coedge $-1 $209 $209 $210 $317 reversed $129 $-1 #
coedge $-1 $210 $210 $209 $317 forward $131 $-1 #
coedge $-1 $211 $211 $132 $212 forward $206 $-1 #
edge $-1 $318 8.669223559274659e-016 $318 6.2831853071796013 $211 $319 forward 7 unknown #
loop $-1 $-1 $218 $133 #
plane-surface $-1 -5.4204208250640775 -27.629735099794118 0.26268175689443041 0 -0.86602541151947299 0.49999998660252726 1 0 0 forward_v I I I I #
loop $-1 $-1 $320 $85 #
coedge $-1 $216 $216 $217 $321 reversed $134 $-1 #
coedge $-1 $217 $217 $216 $321 forward $136 $-1 #
coedge $-1 $218 $218 $137 $219 forward $213 $-1 #
edge $-1 $322 8.669223559274659e-016 $322 6.2831853071796013 $218 $323 forward 7 unknown #
face $-1 $324 $325 $33 $-1 $326 reversed single #
loop $-1 $-1 $327 $138 #
plane-surface $-1 -45.169835505233927 0 0 1 0 0 0 0 -1 forward_v I I I I #
coedge $-1 $328 $231 $329 $330 forward $139 $-1 #
coedge $-1 $331 $141 $328 $332 forward $89 $-1 #
coedge $-1 $141 $331 $333 $334 forward $89 $-1 #
coedge $-1 $234 $233 $141 $227 reversed $235 $-1 #
edge $-1 $335 -27.629735099794125 $336 27.629735099794125 $226 $337 forward 7 unknown #
coedge $-1 $143 $142 $338 $339 forward $56 $-1 #
coedge $-1 $340 $341 $142 $230 reversed $325 $-1 #
edge $-1 $237 -45.169835505233927 $342 45.169835505233927 $229 $343 forward 7 unknown #
coedge $-1 $223 $344 $143 $232 reversed $139 $-1 #
edge $-1 $345 -45.169835505233927 $236 45.169835505233927 $231 $346 forward 7 unknown #
coedge $-1 $226 $144 $344 $347 forward $235 $-1 #
coedge $-1 $144 $226 $340 $348 reversed $235 $-1 #
loop $-1 $-1 $233 $324 #
vertex $-1 $145 $349 #
vertex $-1 $145 $350 #
straight-curve $-1 45.169835505233927 0 8.7115415581683724 0 1 0 I I #
face $-1 $351 $352 $34 $-1 $353 forward single #
loop $-1 $-1 $354 $146 #
plane-surface $-1 -45.169835505233927 0 0 1 0 0 0 0 -1 forward_v I I I I #
coedge $-1 $249 $355 $251 $356 forward $147 $-1 #
coedge $-1 $149 $251 $357 $358 reversed $93 $-1 #
coedge $-1 $359 $247 $149 $245 forward $360 $-1 #
edge $-1 $253 1.4471602095553457 $361 5.3253076355938012 $244 $362 forward 7 unknown #
coedge $-1 $151 $150 $354 $363 reversed $59 $-1 #
coedge $-1 $244 $364 $150 $248 forward $360 $-1 #
edge $-1 $365 -24.208934193063662 $253 -17.712868431276867 $247 $366 forward 7 unknown #
coedge $-1 $367 $242 $151 $250 forward $147 $-1 #
edge $-1 $252 17.712868431276867 $368 24.208934193063662 $249 $369 forward 7 unknown #
coedge $-1 $243 $152 $242 $356 reversed $93 $-1 #
vertex $-1 $250 $370 #
vertex $-1 $248 $371 #
straight-curve $-1 -38.673769743447131 0 4.8333941321299188 0 -1 0 I I #
face $-1 $-1 $372 $35 $-1 $373 reversed single #
loop $-1 $-1 $160 $154 #
plane-surface $-1 0 0 8.7115415581683724 0 0 1 1 0 0 forward_v I I I I #
coedge $-1 $374 $375 $376 $377 reversed $155 $-1 #
coedge $-1 $378 $157 $159 $265 forward $97 $-1 #
coedge $-1 $157 $378 $374 $379 forward $97 $-1 #
coedge $-1 $376 $160 $157 $262 forward $256 $-1 #
edge $-1 $268 -7.8212470288828726 $380 4.7724375968898869 $261 $381 forward 7 unknown #
coedge $-1 $382 $383 $158 $264 forward $372 $-1 #
edge $-1 $384 -50.452088623351976 $267 -45.560675389070987 $263 $385 forward 7 unknown #
edge $-1 $268 47.649782177527698 $384 55.25947019958825 $159 $386 forward 7 unknown #
coedge $-1 $160 $376 $382 $387 forward $256 $-1 #
vertex $-1 $264 $388 #
vertex $-1 $161 $389 #
straight-curve $-1 -9.3456517448793655 21.683873646224622 8.7115415581683706 0 -1 0 I I #
coedge $-1 $270 $270 $-1 $390 reversed $164 $-1 #
edge $-1 $391 0 $391 6.2831853071796004 $165 $392 forward 7 unknown #
vertex $-1 $168 $393 #
ellipse-curve $-1 -5.7474561375157194 24.715055513433363 6.2658349410278777 0 0.64278761758704617 0.76604443648966558 1 0 0 1 I I #
coedge $-1 $274 $274 $-1 $394 reversed $171 $-1 #
edge $-1 $395 0 $395 6.2831853071796004 $172 $396 forward 7 unknown #
vertex $-1 $175 $397 #
ellipse-curve $-1 -0.35016272647025204 24.715055513433363 6.2658349410278777 0 0.64278761758704617 0.76604443648966558 1 0 0 1 I I #
face $-1 $-1 $398 $38 $-1 $399 reversed single #
loop $-1 $-1 $400 $176 #
plane-surface $-1 45.169835505233927 0 0 -1 0 0 0 0 1 forward_v I I I I #
coedge $-1 $401 $179 $181 $287 forward $111 $-1 #
coedge $-1 $179 $401 $400 $402 reversed $111 $-1 #
coedge $-1 $403 $182 $179 $284 forward $177 $-1 #
edge $-1 $290 13.139654283287395 $404 25.733338909060148 $283 $405 forward 7 unknown #
coedge $-1 $406 $407 $180 $286 forward $398 $-1 #
edge $-1 $408 -50.452088623351976 $289 -45.560675389070987 $285 $409 forward 7 unknown #
edge $-1 $290 47.649782177527698 $408 55.25947019958825 $181 $410 forward 7 unknown #
coedge $-1 $182 $403 $406 $411 forward $177 $-1 #
vertex $-1 $286 $412 #
vertex $-1 $183 $413 #
straight-curve $-1 32.576150879461167 21.683873646224622 8.7115415581683706 0 -1 0 I I #
coedge $-1 $292 $292 $-1 $414 reversed $186 $-1 #
edge $-1 $415 0 $415 6.2831853071796004 $187 $416 forward 7 unknown #
vertex $-1 $190 $417 #
ellipse-curve $-1 36.17434648682481 24.715055513433363 6.2658349410278777 0 0.64278761758704617 0.76604443648966558 1 0 0 1 I I #
coedge $-1 $296 $296 $-1 $418 reversed $193 $-1 #
edge $-1 $419 0 $419 6.2831853071796004 $194 $420 forward 7 unknown #
vertex $-1 $197 $421 #
ellipse-curve $-1 41.571639897870277 24.715055513433363 6.2658349410278777 0 0.64278761758704617 0.76604443648966558 1 0 0 1 I I #
face $-1 $-1 $312 $41 $-1 $422 forward single #
loop $-1 $-1 $423 $198 #
plane-surface $-1 0 -27.629735099794125 0 0 1 0 0 0 1 forward_v I I I I #
coedge $-1 $424 $425 $426 $427 reversed $199 $-1 #
coedge $-1 $428 $201 $203 $310 forward $125 $-1 #
coedge $-1 $201 $428 $424 $429 forward $125 $-1 #
coedge $-1 $426 $204 $201 $307 forward $312 $-1 #
edge $-1 $314 -7.9503145170409297 $430 13.370735342105007 $306 $431 forward 7 unknown #
coedge $-1 $432 $433 $202 $309 forward $301 $-1 #
edge $-1 $434 -22.453576269008117 $313 -14.004716467734164 $308 $435 forward 7 unknown #
edge $-1 $314 -9.7559028740855425 $434 1.4225156588357017e-014 $203 $436 forward 7 unknown #
coedge $-1 $204 $426 $432 $437 forward $312 $-1 #
loop $-1 $-1 $426 $300 #
vertex $-1 $309 $438 #
vertex $-1 $205 $439 #
straight-curve $-1 5.240104104508891 -52.93309293158417 8.7115415581683706 0 1 0 I I #
coedge $-1 $316 $316 $-1 $440 reversed $208 $-1 #
edge $-1 $441 0 $441 6.2831853071796004 $209 $442 forward 7 unknown #
vertex $-1 $212 $443 #
ellipse-curve $-1 -9.9892172234524992 -25.190759446624956 4.4871116575313987 0 -0.86602541151947299 0.49999998660252726 1.5 0 0 1 I I #
coedge $-1 $320 $320 $-1 $444 reversed $215 $-1 #
edge $-1 $445 0 $445 6.2831853071796004 $216 $446 forward 7 unknown #
vertex $-1 $219 $447 #
ellipse-curve $-1 -0.85162442667567007 -25.190759446624956 4.4871116575313987 0 -0.86602541151947299 0.49999998660252726 1.5 0 0 1 I I #
face $-1 $-1 $235 $33 $-1 $448 reversed single #
loop $-1 $-1 $340 $220 #
plane-surface $-1 0 27.629735099794125 0 0 -1 0 0 0 -1 forward_v I I I I #
coedge $-1 $449 $338 $341 $450 forward $221 $-1 #
coedge $-1 $344 $223 $224 $332 reversed $139 $-1 #
coedge $-1 $338 $449 $223 $330 reversed $221 $-1 #
edge $-1 $345 -8.7115415581683724 $451 8.7115415581683724 $329 $452 forward 7 unknown #
coedge $-1 $225 $224 $449 $453 forward $89 $-1 #
edge $-1 $336 -45.169835505233927 $451 45.169835505233927 $328 $454 forward 7 unknown #
coedge $-1 $341 $340 $225 $334 reversed $325 $-1 #
edge $-1 $455 -45.169835505233927 $335 45.169835505233927 $333 $456 forward 7 unknown #
vertex $-1 $227 $457 #
vertex $-1 $347 $458 #
straight-curve $-1 45.169835505233927 0 -8.7115415581683724 0 -1 0 I I #
coedge $-1 $327 $329 $228 $339 reversed $221 $-1 #
edge $-1 $342 -27.629735099794125 $345 27.629735099794125 $338 $459 forward 7 unknown #
coedge $-1 $333 $229 $234 $348 forward $325 $-1 #
coedge $-1 $229 $333 $327 $450 reversed $325 $-1 #
vertex $-1 $230 $460 #
straight-curve $-1 0 27.629735099794125 8.7115415581683724 -1 0 0 I I #
coedge $-1 $231 $328 $233 $347 reversed $139 $-1 #
vertex $-1 $339 $461 #
straight-curve $-1 0 -27.629735099794125 8.7115415581683724 1 0 0 I I #
edge $-1 $236 -8.7115415581683724 $336 8.7115415581683724 $233 $462 forward 7 unknown #
edge $-1 $237 -8.7115415581683724 $335 8.7115415581683724 $234 $463 forward 7 unknown #
point $-1 45.169835505233927 -27.629735099794125 8.7115415581683724 #
point $-1 45.169835505233927 27.629735099794125 8.7115415581683724 #
face $-1 $-1 $360 $34 $-1 $464 reversed single #
loop $-1 $-1 $357 $239 #
plane-surface $-1 0 0 8.7115415581683724 0 0 1 1 0 0 forward_v I I I I #
coedge $-1 $465 $466 $246 $363 forward $240 $-1 #
coedge $-1 $242 $367 $467 $468 reversed $147 $-1 #
edge $-1 $469 -5.3253076355938012 $252 -1.4471602095553457 $242 $470 forward 7 unknown #
coedge $-1 $467 $471 $243 $358 forward $352 $-1 #
edge $-1 $361 -27.629735099794125 $469 27.629735099794125 $357 $472 forward 7 unknown #
coedge $-1 $364 $244 $471 $473 reversed $360 $-1 #
loop $-1 $-1 $244 $351 #
vertex $-1 $245 $474 #
straight-curve $-1 -38.673769743447131 -27.629735099794125 3.386233922574573 0 0 1 I I #
edge $-1 $368 -27.629735099794125 $365 27.629735099794125 $354 $475 forward 7 unknown #
coedge $-1 $247 $359 $465 $476 forward $360 $-1 #
vertex $-1 $363 $477 #
straight-curve $-1 -20.960901312170265 -27.629735099794125 4.8333941321299188 1 0 0 I I #
coedge $-1 $355 $249 $466 $478 reversed $147 $-1 #
vertex $-1 $363 $479 #
straight-curve $-1 -20.960901312170265 27.629735099794125 4.8333941321299188 -1 0 0 I I #
point $-1 -38.673769743447131 27.629735099794125 4.8333941321299188 #
point $-1 -38.673769743447131 -27.629735099794125 4.8333941321299188 #
loop $-1 $-1 $263 $255 #
plane-surface $-1 0 27.629735099794125 0 0 -1 0 0 0 -1 forward_v I I I I #
coedge $-1 $375 $258 $260 $379 reversed $155 $-1 #
coedge $-1 $258 $374 $480 $481 reversed $155 $-1 #
coedge $-1 $266 $261 $258 $377 forward $256 $-1 #
edge $-1 $380 0.1165022808479641 $482 5.9458614535695027 $376 $483 forward 7 unknown #
coedge $-1 $260 $259 $383 $484 reversed $97 $-1 #
edge $-1 $485 -55.25947019958825 $380 -47.649782177527698 $374 $486 forward 7 unknown #
vertex $-1 $262 $487 #
straight-curve $-1 -1.5244047159964929 21.800375927072587 8.7115415581683742 1 0 0 I I #
coedge $-1 $480 $263 $266 $387 reversed $372 $-1 #
coedge $-1 $263 $480 $378 $484 forward $372 $-1 #
vertex $-1 $264 $488 #
straight-curve $-1 -9.3456517448793655 27.629735099794125 54.272216947239357 0 0 1 I I #
straight-curve $-1 -9.3456517448793655 -14.70147460996693 39.340231522603091 0 0.76604443648966558 -0.64278761758704617 I I #
edge $-1 $482 -3.248032880893394 $267 9.3456517448793655 $382 $489 forward 7 unknown #
point $-1 -9.3456517448793655 27.629735099794125 8.7115415581683724 #
point $-1 -9.3456517448793655 21.800375927072587 8.7115415581683706 #
edge $-1 $490 1 $490 0 $270 $-1 forward 7 unknown #
vertex $-1 $271 $491 #
ellipse-curve $-1 -5.7474561375157194 22.619419183846006 3.7683528687808647 0 0.64278761758704617 0.76604443648966558 1 0 0 1 I I #
point $-1 -4.7474561375157194 24.715055513433363 6.2658349410278813 #
edge $-1 $492 1 $492 0 $274 $-1 forward 7 unknown #
vertex $-1 $275 $493 #
ellipse-curve $-1 -0.35016272647025204 22.619419183846006 3.7683528687808647 0 0.64278761758704617 0.76604443648966558 1 0 0 1 I I #
point $-1 0.64983727352974796 24.715055513433363 6.2658349410278813 #
loop $-1 $-1 $285 $278 #
plane-surface $-1 0 27.629735099794125 0 0 -1 0 0 0 -1 forward_v I I I I #
coedge $-1 $494 $495 $282 $402 forward $279 $-1 #
coedge $-1 $282 $281 $407 $496 reversed $111 $-1 #
edge $-1 $404 29.375083913079649 $497 36.984771935140202 $400 $498 forward 7 unknown #
coedge $-1 $288 $283 $495 $499 forward $177 $-1 #
vertex $-1 $499 $500 #
straight-curve $-1 19.436496596173772 21.800375927072587 8.7115415581683742 1 0 0 I I #
coedge $-1 $501 $285 $288 $411 reversed $398 $-1 #
coedge $-1 $285 $501 $401 $496 forward $398 $-1 #
vertex $-1 $286 $502 #
straight-curve $-1 32.576150879461167 27.629735099794125 54.272216947239357 0 0 1 I I #
straight-curve $-1 32.576150879461167 -14.70147460996693 39.340231522603091 0 0.76604443648966558 -0.64278761758704617 I I #
edge $-1 $503 -45.169835505233927 $289 -32.576150879461167 $406 $504 forward 7 unknown #
point $-1 32.576150879461167 27.629735099794125 8.7115415581683724 #
point $-1 32.576150879461167 21.800375927072587 8.7115415581683706 #
edge $-1 $505 1 $505 0 $292 $-1 forward 7 unknown #
vertex $-1 $293 $506 #
ellipse-curve $-1 36.17434648682481 22.619419183846006 3.7683528687808647 0 0.64278761758704617 0.76604443648966558 1 0 0 1 I I #
point $-1 37.17434648682481 24.715055513433363 6.2658349410278813 #
edge $-1 $507 1 $507 0 $296 $-1 forward 7 unknown #
vertex $-1 $297 $508 #
ellipse-curve $-1 41.571639897870277 22.619419183846006 3.7683528687808647 0 0.64278761758704617 0.76604443648966558 1 0 0 1 I I #
point $-1 42.571639897870277 24.715055513433363 6.2658349410278813 #
plane-surface $-1 0 0 8.7115415581683724 0 0 1 1 0 0 forward_v I I I I #
coedge $-1 $433 $432 $425 $509 forward $301 $-1 #
coedge $-1 $425 $303 $305 $429 reversed $199 $-1 #
coedge $-1 $303 $424 $423 $509 reversed $199 $-1 #
coedge $-1 $311 $306 $303 $427 forward $312 $-1 #
edge $-1 $430 -30.18130913812838 $510 -25.303357831790045 $426 $511 forward 7 unknown #
coedge $-1 $305 $304 $433 $512 reversed $125 $-1 #
edge $-1 $513 -1.4225156588357017e-014 $430 9.7559028740855425 $424 $514 forward 7 unknown #
vertex $-1 $307 $515 #
straight-curve $-1 -2.7102104125320388 -22.751783793455786 8.7115415581683724 -1 0 0 I I #
coedge $-1 $423 $308 $311 $437 reversed $301 $-1 #
coedge $-1 $308 $423 $428 $512 forward $301 $-1 #
vertex $-1 $309 $516 #
straight-curve $-1 5.240104104508891 -27.629735099794125 22.716258025902537 0 0 1 I I #
straight-curve $-1 5.240104104508891 -27.629735099794118 0.26268175689443041 0 -0.49999998660252726 -0.86602541151947299 I I #
edge $-1 $510 -16.080945754637046 $313 5.240104104508891 $432 $517 forward 7 unknown #
point $-1 5.240104104508891 -27.629735099794125 8.7115415581683724 #
point $-1 5.240104104508891 -22.75178379345579 8.7115415581683724 #
edge $-1 $518 1 $518 0 $316 $-1 forward 7 unknown #
vertex $-1 $317 $519 #
ellipse-curve $-1 -9.9892172234524992 -21.496388126855141 2.3541654577787678 0 -0.86602541151947299 0.49999998660252726 1.5 0 0 1 I I #
point $-1 -8.4892172234524992 -25.190759446624959 4.4871116575314023 #
edge $-1 $520 1 $520 0 $320 $-1 forward 7 unknown #
vertex $-1 $321 $521 #
ellipse-curve $-1 -0.85162442667567007 -21.496388126855141 2.3541654577787678 0 -0.86602541151947299 0.49999998660252726 1.5 0 0 1 I I #
point $-1 0.64837557332432993 -25.190759446624959 4.4871116575314023 #
plane-surface $-1 45.169835505233927 0 0 -1 0 0 0 0 1 forward_v I I I I #
coedge $-1 $329 $327 $331 $453 reversed $221 $-1 #
edge $-1 $342 -8.7115415581683724 $455 8.7115415581683724 $341 $522 forward 7 unknown #
vertex $-1 $453 $523 #
straight-curve $-1 -45.169835505233927 -27.629735099794125 0 0 0 -1 I I #
edge $-1 $451 -27.629735099794125 $455 27.629735099794125 $449 $524 forward 7 unknown #
straight-curve $-1 0 -27.629735099794125 -8.7115415581683724 -1 0 0 I I #
vertex $-1 $334 $525 #
straight-curve $-1 0 27.629735099794125 -8.7115415581683724 1 0 0 I I #
point $-1 45.169835505233927 27.629735099794125 -8.7115415581683724 #
point $-1 45.169835505233927 -27.629735099794125 -8.7115415581683724 #
straight-curve $-1 -45.169835505233927 0 8.7115415581683724 0 -1 0 I I #
point $-1 -45.169835505233927 27.629735099794125 8.7115415581683724 #
point $-1 -45.169835505233927 -27.629735099794125 8.7115415581683724 #
straight-curve $-1 45.169835505233927 -27.629735099794125 0 0 0 -1 I I #
straight-curve $-1 45.169835505233927 27.629735099794125 0 0 0 -1 I I #
plane-surface $-1 0 -27.629735099794125 0 0 1 0 0 0 1 forward_v I I I I #
coedge $-1 $526 $354 $364 $476 reversed $240 $-1 #
coedge $-1 $354 $526 $367 $478 forward $240 $-1 #
coedge $-1 $527 $357 $355 $468 forward $352 $-1 #
edge $-1 $469 38.673769743447131 $528 45.169835505233927 $355 $529 forward 7 unknown #
vertex $-1 $468 $530 #
straight-curve $-1 -38.673769743447131 27.629735099794125 3.386233922574573 0 0 -1 I I #
coedge $-1 $357 $527 $359 $473 forward $352 $-1 #
straight-curve $-1 -38.673769743447131 0 8.7115415581683724 0 1 0 I I #
edge $-1 $531 -45.169835505233927 $361 -38.673769743447131 $359 $532 forward 7 unknown #
point $-1 -38.673769743447131 -27.629735099794125 8.7115415581683742 #
straight-curve $-1 -45.169835505233927 0 4.8333941321299188 0 -1 0 I I #
edge $-1 $531 -8.7115415581683724 $365 -4.8333941321299188 $465 $533 forward 7 unknown #
point $-1 -45.169835505233927 -27.629735099794125 4.8333941321299188 #
edge $-1 $528 -8.7115415581683724 $368 -4.8333941321299188 $367 $534 forward 7 unknown #
point $-1 -45.169835505233927 27.629735099794125 4.8333941321299188 #
coedge $-1 $383 $382 $375 $481 forward $372 $-1 #
edge $-1 $482 45.560675389070987 $485 50.452088623351976 $480 $535 forward 7 unknown #
vertex $-1 $387 $536 #
straight-curve $-1 3.248032880893394 21.683873646224622 8.7115415581683706 0 1 0 I I #
edge $-1 $485 -4.7724375968898869 $384 7.8212470288828726 $383 $537 forward 7 unknown #
vertex $-1 $484 $538 #
straight-curve $-1 3.248032880893394 -14.70147460996693 39.340231522603091 0 -0.76604443648966558 0.64278761758704617 I I #
point $-1 3.248032880893394 21.800375927072587 8.7115415581683706 #
point $-1 -9.3456517448793655 27.629735099794125 3.8201283238873813 #
straight-curve $-1 0 27.629735099794125 8.7115415581683724 -1 0 0 I I #
vertex $-1 $390 $539 #
point $-1 -4.7474561375157194 22.619419183846006 3.7683528687808647 #
vertex $-1 $394 $540 #
point $-1 0.64983727352974796 22.619419183846006 3.7683528687808647 #
coedge $-1 $495 $400 $501 $541 reversed $279 $-1 #
coedge $-1 $400 $494 $403 $499 reversed $279 $-1 #
edge $-1 $497 -25.733338909060148 $408 -13.139654283287395 $407 $542 forward 7 unknown #
vertex $-1 $402 $543 #
straight-curve $-1 45.169835505233927 -0.7022436759591546 27.593481763076401 0 0.76604443648966558 -0.64278761758704617 I I #
edge $-1 $404 21.800375927072587 $503 27.629735099794125 $495 $544 forward 7 unknown #
point $-1 45.16983550523392 21.800375927072587 8.7115415581683706 #
coedge $-1 $407 $406 $494 $541 forward $398 $-1 #
point $-1 32.576150879461167 27.629735099794125 3.8201283238873813 #
vertex $-1 $499 $545 #
straight-curve $-1 0 27.629735099794125 8.7115415581683724 -1 0 0 I I #
vertex $-1 $414 $546 #
point $-1 37.17434648682481 22.619419183846006 3.7683528687808647 #
vertex $-1 $418 $547 #
point $-1 42.571639897870277 22.619419183846006 3.7683528687808647 #
edge $-1 $510 14.004716467734164 $513 22.453576269008117 $423 $548 forward 7 unknown #
vertex $-1 $437 $549 #
straight-curve $-1 -16.080945754637046 -52.93309293158417 8.7115415581683706 0 -1 0 I I #
edge $-1 $513 -13.370735342105007 $434 7.9503145170409297 $433 $550 forward 7 unknown #
vertex $-1 $512 $551 #
straight-curve $-1 -16.080945754637046 -27.629735099794118 0.26268175689443041 0 0.49999998660252726 0.86602541151947299 I I #
point $-1 -16.080945754637046 -22.75178379345579 8.7115415581683724 #
point $-1 5.240104104508891 -27.629735099794125 0.26268175689441808 #
straight-curve $-1 0 -27.629735099794125 8.7115415581683724 1 0 0 I I #
vertex $-1 $440 $552 #
point $-1 -8.4892172234524992 -21.496388126855141 2.3541654577787678 #
vertex $-1 $444 $553 #
point $-1 0.64837557332432993 -21.496388126855141 2.3541654577787678 #
straight-curve $-1 -45.169835505233927 27.629735099794125 0 0 0 -1 I I #
point $-1 -45.169835505233927 -27.629735099794125 -8.7115415581683724 #
straight-curve $-1 -45.169835505233927 0 -8.7115415581683724 0 1 0 I I #
point $-1 -45.169835505233927 27.629735099794125 -8.7115415581683724 #
coedge $-1 $466 $465 $527 $554 reversed $240 $-1 #
coedge $-1 $471 $467 $526 $554 forward $352 $-1 #
vertex $-1 $468 $555 #
straight-curve $-1 0 27.629735099794125 8.7115415581683724 -1 0 0 I I #
point $-1 -38.673769743447131 27.629735099794125 8.7115415581683742 #
vertex $-1 $554 $556 #
straight-curve $-1 0 -27.629735099794125 8.7115415581683724 1 0 0 I I #
straight-curve $-1 -45.169835505233927 -27.629735099794125 0 0 0 -1 I I #
straight-curve $-1 -45.169835505233927 27.629735099794125 0 0 0 -1 I I #
straight-curve $-1 3.248032880893394 27.629735099794125 54.272216947239357 0 0 -1 I I #
point $-1 3.248032880893394 27.629735099794125 8.7115415581683724 #
straight-curve $-1 -1.5244047159964929 27.629735099794122 3.8201283238873849 -1 0 0 I I #
point $-1 3.248032880893394 27.629735099794125 3.8201283238873813 #
point $-1 -5.7474561375157194 21.976631566258959 3.002308432291199 #
point $-1 -0.35016272647025204 21.976631566258959 3.002308432291199 #
edge $-1 $503 -8.7115415581683724 $497 -3.8201283238873813 $494 $557 forward 7 unknown #
straight-curve $-1 19.436496596173772 27.629735099794122 3.8201283238873849 -1 0 0 I I #
point $-1 45.16983550523392 27.629735099794125 3.8201283238873813 #
straight-curve $-1 45.169835505233927 0 8.7115415581683724 0 1 0 I I #
point $-1 45.169835505233927 27.629735099794125 8.7115415581683724 #
point $-1 36.17434648682481 21.976631566258959 3.002308432291199 #
point $-1 41.571639897870277 21.976631566258959 3.002308432291199 #
straight-curve $-1 -16.080945754637046 -27.629735099794125 22.716258025902537 0 0 -1 I I #
point $-1 -16.080945754637046 -27.629735099794125 8.7115415581683724 #
straight-curve $-1 -2.7102104125320388 -27.629735099794125 0.2626817568944193 1 0 0 I I #
point $-1 -16.080945754637046 -27.629735099794125 0.26268175689441808 #
point $-1 -9.9892172234524992 -20.197350009575931 1.604165477874977 #
point $-1 -0.85162442667567007 -20.197350009575931 1.604165477874977 #
edge $-1 $528 -27.629735099794125 $531 27.629735099794125 $526 $558 forward 7 unknown #
point $-1 -45.169835505233927 27.629735099794125 8.7115415581683724 #
point $-1 -45.169835505233927 -27.629735099794125 8.7115415581683724 #
straight-curve $-1 45.169835505233927 27.629735099794125 0 0 0 -1 I I #
straight-curve $-1 -45.169835505233927 0 8.7115415581683724 0 -1 0 I I #
End-of-ACIS-data 