500 0 14 0           
7 Unknown 11 ACIS 5.0 NT 24 Fri Mar 26 20:45:29 1999 
-1 9.9999999999999995e-007 1e-010 
body $-1 $14 $-1 $15 #
body $-1 $16 $-1 $17 #
body $-1 $18 $-1 $19 #
body $-1 $20 $-1 $21 #
body $-1 $22 $-1 $23 #
body $-1 $24 $-1 $25 #
body $-1 $26 $-1 $27 #
body $-1 $28 $-1 $29 #
body $-1 $30 $-1 $31 #
body $-1 $32 $-1 $33 #
body $-1 $34 $-1 $35 #
body $-1 $36 $-1 $37 #
body $-1 $38 $-1 $39 #
body $-1 $40 $-1 $41 #
lump $-1 $-1 $42 $0 #
transform $-1 1 0 0 0 1 0 0 0 1 41.440473647267069 19.132277635685035 8.6957360873052174 1 rotate no_reflect no_shear #
lump $-1 $-1 $43 $1 #
transform $-1 1 0 0 0 1 0 0 0 1 41.440473647267069 19.132277635685035 8.6957360873052174 1 rotate no_reflect no_shear #
lump $-1 $-1 $44 $2 #
transform $-1 1 0 0 0 1 0 0 0 1 41.440473647267069 19.132277635685035 8.6957360873052174 1 rotate no_reflect no_shear #
lump $-1 $-1 $45 $3 #
transform $-1 1 0 0 0 1 0 0 0 1 41.440473647267069 19.132277635685035 8.6957360873052174 1 rotate no_reflect no_shear #
lump $-1 $-1 $46 $4 #
transform $-1 1 0 0 0 1 0 0 0 1 41.440473647267069 19.132277635685035 8.6957360873052174 1 rotate no_reflect no_shear #
lump $-1 $-1 $47 $5 #
transform $-1 1 0 0 0 1 0 0 0 1 41.440473647267069 19.132277635685035 8.6957360873052174 1 rotate no_reflect no_shear #
lump $-1 $-1 $48 $6 #
transform $-1 1 0 0 0 1 0 0 0 1 41.440473647267069 19.132277635685035 8.6957360873052174 1 rotate no_reflect no_shear #
lump $-1 $-1 $49 $7 #
transform $-1 1 0 0 0 1 0 0 0 1 41.440473647267069 19.132277635685035 8.6957360873052174 1 rotate no_reflect no_shear #
lump $-1 $-1 $50 $8 #
transform $-1 1 0 0 0 1 0 0 0 1 41.440473647267069 19.132277635685035 8.6957360873052174 1 rotate no_reflect no_shear #
lump $-1 $-1 $51 $9 #
transform $-1 1 0 0 0 1 0 0 0 1 41.440473647267069 19.132277635685035 8.6957360873052174 1 rotate no_reflect no_shear #
lump $-1 $-1 $52 $10 #
transform $-1 1 0 0 0 1 0 0 0 1 41.440473647267069 19.132277635685035 8.6957360873052174 1 rotate no_reflect no_shear #
lump $-1 $-1 $53 $11 #
transform $-1 1 0 0 0 1 0 0 0 1 41.440473647267069 19.132277635685035 8.6957360873052174 1 rotate no_reflect no_shear #
lump $-1 $-1 $54 $12 #
transform $-1 1 0 0 0 1 0 0 0 1 41.440473647267069 19.132277635685035 8.6957360873052174 1 rotate no_reflect no_shear #
lump $-1 $-1 $55 $13 #
transform $-1 1 0 0 0 1 0 0 0 1 41.440473647267069 19.132277635685035 8.6957360873052174 1 rotate no_reflect no_shear #
shell $-1 $-1 $-1 $56 $-1 $14 #
shell $-1 $-1 $-1 $57 $-1 $16 #
shell $-1 $-1 $-1 $58 $-1 $18 #
shell $-1 $-1 $-1 $59 $-1 $20 #
shell $-1 $-1 $-1 $60 $-1 $22 #
shell $-1 $-1 $-1 $61 $-1 $24 #
shell $-1 $-1 $-1 $62 $-1 $26 #
shell $-1 $-1 $-1 $63 $-1 $28 #
shell $-1 $-1 $-1 $64 $-1 $30 #
shell $-1 $-1 $-1 $65 $-1 $32 #
shell $-1 $-1 $-1 $66 $-1 $34 #
shell $-1 $-1 $-1 $67 $-1 $36 #
shell $-1 $-1 $-1 $68 $-1 $38 #
shell $-1 $-1 $-1 $69 $-1 $40 #
face $-1 $70 $71 $42 $-1 $72 forward single #
face $-1 $73 $74 $43 $-1 $75 reversed single #
face $-1 $76 $77 $44 $-1 $78 reversed single #
face $-1 $79 $80 $45 $-1 $81 forward single #
face $-1 $82 $83 $46 $-1 $84 forward single #
face $-1 $85 $86 $47 $-1 $87 reversed single #
face $-1 $88 $89 $48 $-1 $90 forward single #
face $-1 $91 $92 $49 $-1 $93 forward single #
face $-1 $94 $95 $50 $-1 $96 reversed single #
face $-1 $97 $98 $51 $-1 $99 forward single #
face $-1 $100 $101 $52 $-1 $102 forward single #
face $-1 $103 $104 $53 $-1 $105 reversed single #
face $-1 $106 $107 $54 $-1 $108 forward single #
face $-1 $109 $110 $55 $-1 $111 forward single #
face $-1 $112 $113 $42 $-1 $114 reversed single #
loop $-1 $-1 $115 $56 #
plane-surface $-1 0 0 8.6957360873052174 0 0 1 1 0 0 forward_v I I I I #
face $-1 $116 $117 $43 $-1 $118 reversed single #
loop $-1 $-1 $119 $57 #
plane-surface $-1 -39.69068465554836 -7.6644150842477226 0 0 -1 0 0 0 -1 forward_v I I I I #
face $-1 $120 $121 $44 $-1 $122 reversed single #
loop $-1 $-1 $123 $58 #
plane-surface $-1 -103.99151927535576 -5.6881030637558325 54.838037639984748 0 1 0 -0.75470958851134928 0 0.65605901945558964 forward_v I I I I #
face $-1 $124 $125 $45 $-1 $126 forward single #
loop $-1 $127 $128 $59 #
cone-surface $-1 -37.253621876098599 -4.2265413380653367 4.0503954859865319 0.75470958851134928 0 -0.65605901945558964 0.32802950972779482 0 0.37735479425567464 1 I I 0 1 0.5 forward I I I I #
face $-1 $129 $130 $46 $-1 $131 forward single #
loop $-1 $132 $133 $60 #
cone-surface $-1 -37.253621876098599 -2.0341987495295939 4.0503954859865319 0.75470958851134928 0 -0.65605901945558964 0.32802950972779482 0 0.37735479425567464 1 I I 0 1 0.5 forward I I I I #
face $-1 $134 $135 $47 $-1 $136 reversed single #
loop $-1 $-1 $137 $61 #
plane-surface $-1 -103.99151927535576 3.176198255760287 54.838037639984748 0 1 0 -0.75470958851134928 0 0.65605901945558964 forward_v I I I I #
face $-1 $138 $139 $48 $-1 $140 forward single #
loop $-1 $141 $142 $62 #
cone-surface $-1 -37.253621876098599 4.6377599814507846 4.0503954859865319 0.75470958851134928 0 -0.65605901945558964 0.32802950972779482 0 0.37735479425567464 1 I I 0 1 0.5 forward I I I I #
face $-1 $143 $144 $49 $-1 $145 forward single #
loop $-1 $146 $147 $63 #
cone-surface $-1 -37.253621876098599 6.8301025699865292 4.0503954859865319 0.75470958851134928 0 -0.65605901945558964 0.32802950972779482 0 0.37735479425567464 1 I I 0 1 0.5 forward I I I I #
face $-1 $148 $149 $50 $-1 $150 reversed single #
loop $-1 $-1 $151 $64 #
plane-surface $-1 -103.99151927535576 12.04049957527641 54.838037639984748 0 1 0 -0.75470958851134928 0 0.65605901945558964 forward_v I I I I #
face $-1 $152 $153 $51 $-1 $154 forward single #
loop $-1 $155 $156 $65 #
cone-surface $-1 -37.253621876098599 13.502061300966908 4.0503954859865319 0.75470958851134928 0 -0.65605901945558964 0.32802950972779482 0 0.37735479425567464 1 I I 0 1 0.5 forward I I I I #
face $-1 $157 $158 $52 $-1 $159 forward single #
loop $-1 $160 $161 $66 #
cone-surface $-1 -37.253621876098599 15.694403889502652 4.0503954859865319 0.75470958851134928 0 -0.65605901945558964 0.32802950972779482 0 0.37735479425567464 1 I I 0 1 0.5 forward I I I I #
face $-1 $162 $163 $53 $-1 $164 reversed single #
loop $-1 $-1 $165 $67 #
plane-surface $-1 27.15600333764614 12.073041482127842 120.89434256489542 0 1 0 0.61566148304635926 0 0.78801074757464917 forward_v I I I I #
face $-1 $166 $167 $54 $-1 $168 forward single #
loop $-1 $169 $170 $68 #
cone-surface $-1 38.483754033803784 14.089966097429901 6.2321918698625129 -0.61566148304635926 0 -0.78801074757464917 0.19700268689366229 0 -0.15391537076158981 1 I I 0 1 0.25 forward I I I I #
face $-1 $171 $172 $55 $-1 $173 forward single #
loop $-1 $174 $175 $69 #
cone-surface $-1 38.483754033803784 17.115353020382983 6.2321918698625129 -0.61566148304635926 0 -0.78801074757464917 0.19700268689366229 0 -0.15391537076158981 1 I I 0 1 0.25 forward I I I I #
face $-1 $176 $177 $42 $-1 $178 reversed single #
loop $-1 $-1 $179 $70 #
plane-surface $-1 0 0 -8.6957360873052174 0 0 1 1 0 0 forward_v I I I I #
coedge $-1 $180 $181 $182 $183 forward $71 $-1 #
face $-1 $184 $185 $43 $-1 $186 forward single #
loop $-1 $-1 $187 $73 #
plane-surface $-1 -37.94089566382965 -13.398346359966379 0 -1 0 0 0 0 1 forward_v I I I I #
coedge $-1 $188 $189 $190 $191 forward $74 $-1 #
face $-1 $192 $193 $44 $-1 $194 reversed single #
loop $-1 $-1 $195 $76 #
plane-surface $-1 -41.440473647267069 -3.1303700437974662 0.46324462638227715 -0.75470958851134928 0 0.65605901945558964 0.65605901945558964 0 0.75470958851134928 forward_v I I I I #
coedge $-1 $196 $197 $198 $199 reversed $77 $-1 #
face $-1 $-1 $200 $45 $-1 $201 forward single #
loop $-1 $202 $203 $79 #
cone-surface $-1 -36.456290439583455 -4.2265413380653367 3.3572858602654136 0.75470958851134928 0 -0.65605901945558964 0.16401475486389741 0 0.18867739712783732 1 I I -0.70710678118654746 0.70710678118654746 0.25 forward I I I I #
loop $-1 $-1 $204 $59 #
coedge $-1 $128 $128 $205 $206 reversed $80 $-1 #
face $-1 $-1 $207 $46 $-1 $208 forward single #
loop $-1 $209 $210 $82 #
cone-surface $-1 -36.456290439583455 -2.0341987495295939 3.3572858602654136 0.75470958851134928 0 -0.65605901945558964 0.16401475486389741 0 0.18867739712783732 1 I I -0.70710678118654746 0.70710678118654746 0.25 forward I I I I #
loop $-1 $-1 $211 $60 #
coedge $-1 $133 $133 $212 $213 reversed $83 $-1 #
face $-1 $214 $215 $47 $-1 $216 reversed single #
loop $-1 $-1 $217 $85 #
plane-surface $-1 -41.440473647267069 5.7339312757186534 0.46324462638227715 -0.75470958851134928 0 0.65605901945558964 0.65605901945558964 0 0.75470958851134928 forward_v I I I I #
coedge $-1 $218 $219 $220 $221 reversed $86 $-1 #
face $-1 $-1 $222 $48 $-1 $223 forward single #
loop $-1 $224 $225 $88 #
cone-surface $-1 -36.456290439583455 4.6377599814507846 3.3572858602654136 0.75470958851134928 0 -0.65605901945558964 0.16401475486389741 0 0.18867739712783732 1 I I -0.70710678118654746 0.70710678118654746 0.25 forward I I I I #
loop $-1 $-1 $226 $62 #
coedge $-1 $142 $142 $227 $228 reversed $89 $-1 #
face $-1 $-1 $229 $49 $-1 $230 forward single #
loop $-1 $231 $232 $91 #
cone-surface $-1 -36.456290439583455 6.8301025699865292 3.3572858602654136 0.75470958851134928 0 -0.65605901945558964 0.16401475486389741 0 0.18867739712783732 1 I I -0.70710678118654746 0.70710678118654746 0.25 forward I I I I #
loop $-1 $-1 $233 $63 #
coedge $-1 $147 $147 $234 $235 reversed $92 $-1 #
face $-1 $236 $237 $50 $-1 $238 reversed single #
loop $-1 $-1 $239 $94 #
plane-surface $-1 -41.440473647267069 14.598232595234776 0.46324462638227715 -0.75470958851134928 0 0.65605901945558964 0.65605901945558964 0 0.75470958851134928 forward_v I I I I #
coedge $-1 $240 $241 $242 $243 reversed $95 $-1 #
face $-1 $-1 $244 $51 $-1 $245 forward single #
loop $-1 $246 $247 $97 #
cone-surface $-1 -36.456290439583455 13.502061300966908 3.3572858602654136 0.75470958851134928 0 -0.65605901945558964 0.16401475486389741 0 0.18867739712783732 1 I I -0.70710678118654746 0.70710678118654746 0.25 forward I I I I #
loop $-1 $-1 $248 $65 #
coedge $-1 $156 $156 $249 $250 reversed $98 $-1 #
face $-1 $-1 $251 $52 $-1 $252 forward single #
loop $-1 $253 $254 $100 #
cone-surface $-1 -36.456290439583455 15.694403889502652 3.3572858602654136 0.75470958851134928 0 -0.65605901945558964 0.16401475486389741 0 0.18867739712783732 1 I I -0.70710678118654746 0.70710678118654746 0.25 forward I I I I #
loop $-1 $-1 $255 $66 #
coedge $-1 $161 $161 $256 $257 reversed $101 $-1 #
face $-1 $258 $259 $53 $-1 $260 forward single #
loop $-1 $-1 $261 $103 #
plane-surface $-1 -23.870603589993884 15.602659558906439 55.583265327634479 0.61566148304635926 0 0.78801074757464917 0.78801074757464917 0 -0.61566148304635926 forward_v I I I I #
coedge $-1 $262 $263 $264 $265 reversed $104 $-1 #
face $-1 $-1 $266 $54 $-1 $267 forward single #
loop $-1 $268 $269 $106 #
cone-surface $-1 38.09896560689981 14.089966097429901 5.7396851526283577 -0.61566148304635926 0 -0.78801074757464917 0.098501343446831147 0 -0.076957685380794907 1 I I -0.70710678118654746 0.70710678118654746 0.125 forward I I I I #
loop $-1 $-1 $270 $68 #
coedge $-1 $170 $170 $271 $272 reversed $107 $-1 #
face $-1 $-1 $273 $55 $-1 $274 forward single #
loop $-1 $275 $276 $109 #
cone-surface $-1 38.09896560689981 17.115353020382983 5.7396851526283577 -0.61566148304635926 0 -0.78801074757464917 0.098501343446831147 0 -0.076957685380794907 1 I I -0.70710678118654746 0.70710678118654746 0.125 forward I I I I #
loop $-1 $-1 $277 $69 #
coedge $-1 $175 $175 $278 $279 reversed $110 $-1 #
face $-1 $280 $281 $42 $-1 $282 reversed single #
loop $-1 $-1 $283 $112 #
plane-surface $-1 0 -19.132277635685035 0 0 1 0 0 0 1 forward_v I I I I #
coedge $-1 $284 $285 $286 $287 forward $113 $-1 #
coedge $-1 $288 $115 $289 $290 forward $71 $-1 #
coedge $-1 $115 $288 $291 $292 forward $71 $-1 #
coedge $-1 $293 $294 $115 $183 reversed $295 $-1 #
edge $-1 $296 -19.132277635685035 $297 19.132277635685035 $182 $298 forward 7 unknown #
face $-1 $299 $300 $43 $-1 $301 reversed single #
loop $-1 $-1 $302 $116 #
plane-surface $-1 0 0 8.6957360873052174 0 0 1 1 0 0 forward_v I I I I #
coedge $-1 $303 $304 $305 $306 reversed $117 $-1 #
coedge $-1 $307 $119 $308 $309 reversed $74 $-1 #
coedge $-1 $119 $307 $310 $311 reversed $74 $-1 #
coedge $-1 $304 $303 $119 $191 reversed $117 $-1 #
edge $-1 $312 -8.6957360873052174 $313 8.6957360873052174 $190 $314 forward 7 unknown #
face $-1 $315 $316 $44 $-1 $317 reversed single #
loop $-1 $-1 $318 $120 #
plane-surface $-1 -103.99151927535576 -0.57263702383909987 54.838037639984748 0 -1 0 0.75470958851134928 0 -0.65605901945558964 forward_v I I I I #
coedge $-1 $319 $320 $321 $322 reversed $121 $-1 #
coedge $-1 $197 $123 $323 $324 reversed $77 $-1 #
coedge $-1 $123 $196 $319 $325 reversed $77 $-1 #
coedge $-1 $321 $326 $123 $199 forward $327 $-1 #
edge $-1 $328 10.555285990410809 $329 17.711681453973149 $198 $330 forward 7 unknown #
loop $-1 $-1 $205 $124 #
plane-surface $-1 -41.440473647267069 -3.1303700437974662 0.46324462638227715 -0.75470958851134928 0 0.65605901945558964 0.65605901945558964 0 0.75470958851134928 forward_v I I I I #
loop $-1 $-1 $331 $79 #
coedge $-1 $203 $203 $204 $332 reversed $125 $-1 #
coedge $-1 $204 $204 $203 $332 forward $127 $-1 #
coedge $-1 $205 $205 $128 $206 forward $200 $-1 #
edge $-1 $333 0 $333 6.2831853071796004 $205 $334 forward 7 unknown #
loop $-1 $-1 $212 $129 #
plane-surface $-1 -41.440473647267069 -3.1303700437974662 0.46324462638227715 -0.75470958851134928 0 0.65605901945558964 0.65605901945558964 0 0.75470958851134928 forward_v I I I I #
loop $-1 $-1 $335 $82 #
coedge $-1 $210 $210 $211 $336 reversed $130 $-1 #
coedge $-1 $211 $211 $210 $336 forward $132 $-1 #
coedge $-1 $212 $212 $133 $213 forward $207 $-1 #
edge $-1 $337 0 $337 6.2831853071796004 $212 $338 forward 7 unknown #
face $-1 $339 $340 $47 $-1 $341 forward single #
loop $-1 $-1 $342 $134 #
plane-surface $-1 -103.99151927535576 8.2916642956770197 54.838037639984748 0 -1 0 0.75470958851134928 0 -0.65605901945558964 forward_v I I I I #
coedge $-1 $343 $344 $345 $346 reversed $135 $-1 #
coedge $-1 $219 $137 $347 $348 reversed $86 $-1 #
coedge $-1 $137 $218 $343 $349 reversed $86 $-1 #
coedge $-1 $345 $350 $137 $221 forward $340 $-1 #
edge $-1 $351 10.555285990410809 $352 17.711681453973149 $220 $353 forward 7 unknown #
loop $-1 $-1 $227 $138 #
plane-surface $-1 -41.440473647267069 5.7339312757186534 0.46324462638227715 -0.75470958851134928 0 0.65605901945558964 0.65605901945558964 0 0.75470958851134928 forward_v I I I I #
loop $-1 $-1 $354 $88 #
coedge $-1 $225 $225 $226 $355 reversed $139 $-1 #
coedge $-1 $226 $226 $225 $355 forward $141 $-1 #
coedge $-1 $227 $227 $142 $228 forward $222 $-1 #
edge $-1 $356 0 $356 6.2831853071796004 $227 $357 forward 7 unknown #
loop $-1 $-1 $234 $143 #
plane-surface $-1 -41.440473647267069 5.7339312757186534 0.46324462638227715 -0.75470958851134928 0 0.65605901945558964 0.65605901945558964 0 0.75470958851134928 forward_v I I I I #
loop $-1 $-1 $358 $91 #
coedge $-1 $232 $232 $233 $359 reversed $144 $-1 #
coedge $-1 $233 $233 $232 $359 forward $146 $-1 #
coedge $-1 $234 $234 $147 $235 forward $229 $-1 #
edge $-1 $360 0 $360 6.2831853071796004 $234 $361 forward 7 unknown #
face $-1 $362 $363 $50 $-1 $364 forward single #
loop $-1 $-1 $365 $148 #
plane-surface $-1 -103.99151927535576 17.155965615193143 54.838037639984748 0 -1 0 0.75470958851134928 0 -0.65605901945558964 forward_v I I I I #
coedge $-1 $366 $367 $368 $369 reversed $149 $-1 #
coedge $-1 $241 $151 $370 $371 reversed $95 $-1 #
coedge $-1 $151 $240 $366 $372 reversed $95 $-1 #
coedge $-1 $368 $373 $151 $243 forward $363 $-1 #
edge $-1 $374 10.555285990410809 $375 17.711681453973149 $242 $376 forward 7 unknown #
loop $-1 $-1 $249 $152 #
plane-surface $-1 -41.440473647267069 14.598232595234776 0.46324462638227715 -0.75470958851134928 0 0.65605901945558964 0.65605901945558964 0 0.75470958851134928 forward_v I I I I #
loop $-1 $-1 $377 $97 #
coedge $-1 $247 $247 $248 $378 reversed $153 $-1 #
coedge $-1 $248 $248 $247 $378 forward $155 $-1 #
coedge $-1 $249 $249 $156 $250 forward $244 $-1 #
edge $-1 $379 0 $379 6.2831853071796004 $249 $380 forward 7 unknown #
loop $-1 $-1 $256 $157 #
plane-surface $-1 -41.440473647267069 14.598232595234776 0.46324462638227715 -0.75470958851134928 0 0.65605901945558964 0.65605901945558964 0 0.75470958851134928 forward_v I I I I #
loop $-1 $-1 $381 $100 #
coedge $-1 $254 $254 $255 $382 reversed $158 $-1 #
coedge $-1 $255 $255 $254 $382 forward $160 $-1 #
coedge $-1 $256 $256 $161 $257 forward $251 $-1 #
edge $-1 $383 0 $383 6.2831853071796004 $256 $384 forward 7 unknown #
face $-1 $385 $386 $53 $-1 $387 reversed single #
loop $-1 $-1 $388 $162 #
plane-surface $-1 0 0 8.6957360873052174 0 0 1 1 0 0 forward_v I I I I #
coedge $-1 $389 $390 $391 $392 reversed $163 $-1 #
coedge $-1 $263 $165 $393 $394 reversed $104 $-1 #
coedge $-1 $165 $262 $389 $395 reversed $104 $-1 #
coedge $-1 $391 $396 $165 $265 forward $397 $-1 #
edge $-1 $398 51.751435195142491 $399 55.890512882453258 $264 $400 forward 7 unknown #
loop $-1 $-1 $271 $166 #
plane-surface $-1 -23.870603589993884 15.602659558906439 55.583265327634479 0.61566148304635926 0 0.78801074757464917 0.78801074757464917 0 -0.61566148304635926 forward_v I I I I #
loop $-1 $-1 $401 $106 #
coedge $-1 $269 $269 $270 $402 reversed $167 $-1 #
coedge $-1 $270 $270 $269 $402 forward $169 $-1 #
coedge $-1 $271 $271 $170 $272 forward $266 $-1 #
edge $-1 $403 0 $403 6.2831853071796004 $271 $404 forward 7 unknown #
loop $-1 $-1 $278 $171 #
plane-surface $-1 -23.870603589993884 15.602659558906439 55.583265327634479 0.61566148304635926 0 0.78801074757464917 0.78801074757464917 0 -0.61566148304635926 forward_v I I I I #
loop $-1 $-1 $405 $109 #
coedge $-1 $276 $276 $277 $406 reversed $172 $-1 #
coedge $-1 $277 $277 $276 $406 forward $174 $-1 #
coedge $-1 $278 $278 $175 $279 forward $273 $-1 #
edge $-1 $407 0 $407 6.2831853071796004 $278 $408 forward 7 unknown #
face $-1 $409 $410 $42 $-1 $411 reversed single #
loop $-1 $-1 $412 $176 #
plane-surface $-1 -41.440473647267069 0 0 1 0 0 0 0 -1 forward_v I I I I #
coedge $-1 $413 $291 $414 $415 forward $177 $-1 #
coedge $-1 $416 $179 $413 $417 forward $113 $-1 #
coedge $-1 $179 $416 $418 $419 forward $113 $-1 #
coedge $-1 $294 $293 $179 $287 reversed $295 $-1 #
edge $-1 $420 -19.132277635685035 $421 19.132277635685035 $286 $422 forward 7 unknown #
coedge $-1 $181 $180 $423 $424 forward $71 $-1 #
coedge $-1 $425 $426 $180 $290 reversed $410 $-1 #
edge $-1 $297 -41.440473647267069 $427 41.440473647267069 $289 $428 forward 7 unknown #
coedge $-1 $283 $429 $181 $292 reversed $177 $-1 #
edge $-1 $430 -41.440473647267069 $296 41.440473647267069 $291 $431 forward 7 unknown #
coedge $-1 $286 $182 $429 $432 forward $295 $-1 #
coedge $-1 $182 $286 $425 $433 reversed $295 $-1 #
loop $-1 $-1 $293 $409 #
vertex $-1 $183 $434 #
vertex $-1 $183 $435 #
straight-curve $-1 41.440473647267069 0 8.6957360873052174 0 1 0 I I #
face $-1 $436 $437 $43 $-1 $438 reversed single #
loop $-1 $-1 $439 $184 #
plane-surface $-1 -41.440473647267069 0 0 1 0 0 0 0 -1 forward_v I I I I #
coedge $-1 $310 $440 $304 $441 forward $185 $-1 #
coedge $-1 $190 $187 $442 $443 reversed $117 $-1 #
coedge $-1 $187 $190 $302 $441 reversed $117 $-1 #
coedge $-1 $444 $445 $187 $306 forward $446 $-1 #
edge $-1 $447 -8.6957360873052174 $448 8.6957360873052174 $305 $449 forward 7 unknown #
coedge $-1 $189 $188 $439 $450 reversed $74 $-1 #
coedge $-1 $442 $451 $188 $309 forward $437 $-1 #
edge $-1 $452 -21.595131319492889 $313 -18.09555333605547 $308 $453 forward 7 unknown #
coedge $-1 $454 $302 $189 $311 forward $185 $-1 #
edge $-1 $312 18.09555333605547 $455 21.595131319492889 $310 $456 forward 7 unknown #
vertex $-1 $311 $457 #
vertex $-1 $309 $458 #
straight-curve $-1 -37.94089566382965 -7.6644150842477226 0 0 0 -1 I I #
face $-1 $-1 $327 $44 $-1 $459 forward single #
loop $-1 $-1 $460 $192 #
plane-surface $-1 -41.440473647267069 0 0 1 0 0 0 0 -1 forward_v I I I I #
coedge $-1 $461 $462 $463 $464 reversed $193 $-1 #
coedge $-1 $465 $195 $197 $325 forward $121 $-1 #
coedge $-1 $195 $465 $461 $466 forward $121 $-1 #
coedge $-1 $463 $198 $195 $322 forward $327 $-1 #
edge $-1 $329 -4.1229180418570994 $467 0.99254799805963323 $321 $468 forward 7 unknown #
coedge $-1 $469 $470 $196 $324 forward $316 $-1 #
edge $-1 $471 -26.955774193610097 $328 -18.723282732687156 $323 $472 forward 7 unknown #
edge $-1 $329 -10.908158033557493 $471 0 $197 $473 forward 7 unknown #
coedge $-1 $198 $463 $469 $474 forward $327 $-1 #
loop $-1 $-1 $463 $315 #
vertex $-1 $324 $475 #
vertex $-1 $199 $476 #
straight-curve $-1 -51.995759637677878 -5.6881030637558325 8.6957360873052174 1 0 0 I I #
coedge $-1 $331 $331 $-1 $477 reversed $202 $-1 #
edge $-1 $478 0 $478 6.2831853071796004 $203 $479 forward 7 unknown #
vertex $-1 $206 $480 #
ellipse-curve $-1 -37.862275915485895 -4.2265413380653367 4.5794903568437491 -0.75470958851134928 0 0.65605901945558964 0.32802950972779482 0 0.37735479425567464 1 I I #
coedge $-1 $335 $335 $-1 $481 reversed $209 $-1 #
edge $-1 $482 0 $482 6.2831853071796004 $210 $483 forward 7 unknown #
vertex $-1 $213 $484 #
ellipse-curve $-1 -37.862275915485895 -2.0341987495295939 4.5794903568437491 -0.75470958851134928 0 0.65605901945558964 0.32802950972779482 0 0.37735479425567464 1 I I #
face $-1 $-1 $485 $47 $-1 $486 reversed single #
loop $-1 $-1 $220 $214 #
plane-surface $-1 0 0 8.6957360873052174 0 0 1 1 0 0 forward_v I I I I #
coedge $-1 $487 $488 $489 $490 reversed $215 $-1 #
coedge $-1 $491 $217 $219 $349 forward $135 $-1 #
coedge $-1 $217 $491 $487 $492 forward $135 $-1 #
coedge $-1 $489 $220 $217 $346 forward $340 $-1 #
edge $-1 $352 0.30923261790096035 $493 5.424698657817693 $345 $494 forward 7 unknown #
coedge $-1 $495 $496 $218 $348 forward $485 $-1 #
edge $-1 $497 -26.955774193610097 $351 -18.723282732687156 $347 $498 forward 7 unknown #
edge $-1 $352 -10.908158033557493 $497 0 $219 $499 forward 7 unknown #
coedge $-1 $220 $489 $495 $500 forward $340 $-1 #
vertex $-1 $348 $501 #
vertex $-1 $221 $502 #
straight-curve $-1 -51.995759637677878 3.176198255760287 8.6957360873052174 1 0 0 I I #
coedge $-1 $354 $354 $-1 $503 reversed $224 $-1 #
edge $-1 $504 0 $504 6.2831853071796004 $225 $505 forward 7 unknown #
vertex $-1 $228 $506 #
ellipse-curve $-1 -37.862275915485895 4.6377599814507846 4.5794903568437491 -0.75470958851134928 0 0.65605901945558964 0.32802950972779482 0 0.37735479425567464 1 I I #
coedge $-1 $358 $358 $-1 $507 reversed $231 $-1 #
edge $-1 $508 0 $508 6.2831853071796004 $232 $509 forward 7 unknown #
vertex $-1 $235 $510 #
ellipse-curve $-1 -37.862275915485895 6.8301025699865292 4.5794903568437491 -0.75470958851134928 0 0.65605901945558964 0.32802950972779482 0 0.37735479425567464 1 I I #
face $-1 $-1 $511 $50 $-1 $512 reversed single #
loop $-1 $-1 $242 $236 #
plane-surface $-1 0 0 8.6957360873052174 0 0 1 1 0 0 forward_v I I I I #
coedge $-1 $513 $514 $515 $516 reversed $237 $-1 #
coedge $-1 $517 $239 $241 $372 forward $149 $-1 #
coedge $-1 $239 $517 $513 $518 forward $149 $-1 #
coedge $-1 $515 $242 $239 $369 forward $363 $-1 #
edge $-1 $375 4.7413832776590219 $519 9.8568493175757546 $368 $520 forward 7 unknown #
coedge $-1 $521 $522 $240 $371 forward $511 $-1 #
edge $-1 $523 -26.955774193610097 $374 -18.723282732687156 $370 $524 forward 7 unknown #
edge $-1 $375 -10.908158033557493 $523 0 $241 $525 forward 7 unknown #
coedge $-1 $242 $515 $521 $526 forward $363 $-1 #
vertex $-1 $243 $527 #
vertex $-1 $243 $528 #
straight-curve $-1 -51.995759637677878 12.04049957527641 8.6957360873052174 1 0 0 I I #
coedge $-1 $377 $377 $-1 $529 reversed $246 $-1 #
edge $-1 $530 0 $530 6.2831853071796004 $247 $531 forward 7 unknown #
vertex $-1 $250 $532 #
ellipse-curve $-1 -37.862275915485895 13.502061300966908 4.5794903568437491 -0.75470958851134928 0 0.65605901945558964 0.32802950972779482 0 0.37735479425567464 1 I I #
coedge $-1 $381 $381 $-1 $533 reversed $253 $-1 #
edge $-1 $534 0 $534 6.2831853071796004 $254 $535 forward 7 unknown #
vertex $-1 $257 $536 #
ellipse-curve $-1 -37.862275915485895 15.694403889502652 4.5794903568437491 -0.75470958851134928 0 0.65605901945558964 0.32802950972779482 0 0.37735479425567464 1 I I #
face $-1 $-1 $397 $53 $-1 $537 reversed single #
loop $-1 $-1 $538 $258 #
plane-surface $-1 0 19.132277635685035 0 0 -1 0 0 0 -1 forward_v I I I I #
coedge $-1 $393 $539 $540 $541 forward $259 $-1 #
coedge $-1 $540 $261 $263 $395 forward $163 $-1 #
coedge $-1 $261 $540 $538 $542 reversed $163 $-1 #
coedge $-1 $543 $264 $261 $392 forward $397 $-1 #
edge $-1 $399 4.2717117026746223 $544 11.330947856231816 $391 $545 forward 7 unknown #
coedge $-1 $546 $388 $262 $394 forward $259 $-1 #
edge $-1 $547 22.564694234563746 $398 27.862471978443999 $393 $548 forward 7 unknown #
edge $-1 $399 -82.880947294534138 $547 -76.157970786680892 $263 $549 forward 7 unknown #
coedge $-1 $264 $543 $546 $550 reversed $397 $-1 #
loop $-1 $-1 $391 $385 #
vertex $-1 $550 $551 #
vertex $-1 $265 $552 #
straight-curve $-1 41.440473647267069 12.073041482127842 60.447171282447712 0 0 -1 I I #
coedge $-1 $401 $401 $-1 $553 reversed $268 $-1 #
edge $-1 $554 0 $554 6.2831853071796004 $269 $555 forward 7 unknown #
vertex $-1 $272 $556 #
ellipse-curve $-1 38.791584775326953 14.089966097429901 6.626197243649826 0.61566148304635926 0 0.78801074757464917 0.19700268689366229 0 -0.15391537076158981 1 I I #
coedge $-1 $405 $405 $-1 $557 reversed $275 $-1 #
edge $-1 $558 0 $558 6.2831853071796004 $276 $559 forward 7 unknown #
vertex $-1 $279 $560 #
ellipse-curve $-1 38.791584775326953 17.115353020382983 6.626197243649826 0.61566148304635926 0 0.78801074757464917 0.19700268689366229 0 -0.15391537076158981 1 I I #
face $-1 $-1 $295 $42 $-1 $561 reversed single #
loop $-1 $-1 $425 $280 #
plane-surface $-1 0 19.132277635685035 0 0 -1 0 0 0 -1 forward_v I I I I #
coedge $-1 $562 $423 $426 $563 forward $281 $-1 #
coedge $-1 $429 $283 $284 $417 reversed $177 $-1 #
coedge $-1 $423 $562 $283 $415 reversed $281 $-1 #
edge $-1 $430 -8.6957360873052174 $564 8.6957360873052174 $414 $565 forward 7 unknown #
coedge $-1 $285 $284 $562 $566 forward $113 $-1 #
edge $-1 $421 -41.440473647267069 $564 41.440473647267069 $413 $567 forward 7 unknown #
coedge $-1 $426 $425 $285 $419 reversed $410 $-1 #
edge $-1 $568 -41.440473647267069 $420 41.440473647267069 $418 $569 forward 7 unknown #
vertex $-1 $287 $570 #
vertex $-1 $432 $571 #
straight-curve $-1 41.440473647267069 0 -8.6957360873052174 0 -1 0 I I #
coedge $-1 $412 $414 $288 $424 reversed $281 $-1 #
edge $-1 $427 -19.132277635685035 $430 19.132277635685035 $423 $572 forward 7 unknown #
coedge $-1 $418 $289 $294 $433 forward $410 $-1 #
coedge $-1 $289 $418 $412 $563 reversed $410 $-1 #
vertex $-1 $290 $573 #
straight-curve $-1 0 19.132277635685035 8.6957360873052174 -1 0 0 I I #
coedge $-1 $291 $413 $293 $432 reversed $177 $-1 #
vertex $-1 $424 $574 #
straight-curve $-1 0 -19.132277635685035 8.6957360873052174 1 0 0 I I #
edge $-1 $296 -8.6957360873052174 $421 8.6957360873052174 $293 $575 forward 7 unknown #
edge $-1 $297 -8.6957360873052174 $420 8.6957360873052174 $294 $576 forward 7 unknown #
point $-1 41.440473647267069 -19.132277635685035 8.6957360873052174 #
point $-1 41.440473647267069 19.132277635685035 8.6957360873052174 #
face $-1 $-1 $446 $43 $-1 $577 reversed single #
loop $-1 $-1 $442 $299 #
plane-surface $-1 0 0 -8.6957360873052174 0 0 1 1 0 0 forward_v I I I I #
coedge $-1 $578 $579 $307 $450 forward $300 $-1 #
coedge $-1 $302 $454 $444 $580 forward $185 $-1 #
edge $-1 $448 -12.433104455701846 $312 -0.96524190426453327 $302 $581 forward 7 unknown #
coedge $-1 $582 $308 $303 $443 forward $437 $-1 #
edge $-1 $313 0.96524190426453327 $447 12.433104455701846 $442 $583 forward 7 unknown #
coedge $-1 $584 $305 $440 $580 reversed $446 $-1 #
coedge $-1 $305 $584 $582 $585 reversed $446 $-1 #
loop $-1 $-1 $305 $436 #
vertex $-1 $585 $586 #
vertex $-1 $306 $587 #
straight-curve $-1 -37.94089566382965 -19.132277635685035 0 0 0 1 I I #
edge $-1 $455 -8.6957360873052174 $452 8.6957360873052174 $439 $588 forward 7 unknown #
coedge $-1 $308 $582 $578 $589 forward $437 $-1 #
vertex $-1 $309 $590 #
straight-curve $-1 -19.84534232777418 -7.6644150842477226 -8.6957360873052174 1 0 0 I I #
coedge $-1 $440 $310 $579 $591 forward $185 $-1 #
vertex $-1 $591 $592 #
straight-curve $-1 -19.84534232777418 -7.6644150842477226 8.6957360873052174 -1 0 0 I I #
point $-1 -37.94089566382965 -7.6644150842477226 8.6957360873052174 #
point $-1 -37.94089566382965 -7.6644150842477226 -8.6957360873052174 #
plane-surface $-1 0 0 8.6957360873052174 0 0 1 1 0 0 forward_v I I I I #
coedge $-1 $470 $469 $462 $593 forward $316 $-1 #
coedge $-1 $462 $318 $320 $466 reversed $193 $-1 #
coedge $-1 $318 $461 $460 $593 reversed $193 $-1 #
coedge $-1 $326 $321 $318 $464 forward $327 $-1 #
edge $-1 $467 -17.711681453973149 $594 -10.555285990410809 $463 $595 forward 7 unknown #
coedge $-1 $320 $319 $470 $596 reversed $121 $-1 #
edge $-1 $597 0 $467 10.908158033557493 $461 $598 forward 7 unknown #
vertex $-1 $322 $599 #
straight-curve $-1 -34.284078183704729 -1.5651850218987331 8.6957360873052174 0 1 0 I I #
coedge $-1 $460 $323 $326 $474 reversed $316 $-1 #
coedge $-1 $323 $460 $465 $596 forward $316 $-1 #
vertex $-1 $324 $600 #
straight-curve $-1 -41.440473647267069 -5.6881030637558325 27.419018819992374 0 0 1 I I #
straight-curve $-1 -41.440473647267069 -5.6881030637558325 0.46324462638227715 -0.65605901945558964 0 -0.75470958851134928 I I #
edge $-1 $594 0.57263702383909987 $328 5.6881030637558325 $469 $601 forward 7 unknown #
point $-1 -41.440473647267069 -5.6881030637558325 8.6957360873052174 #
point $-1 -34.284078183704729 -5.6881030637558325 8.6957360873052174 #
edge $-1 $602 1 $602 0 $331 $-1 forward 7 unknown #
vertex $-1 $332 $603 #
ellipse-curve $-1 -36.644967836711295 -4.2265413380653367 3.5213006151293111 -0.75470958851134928 0 0.65605901945558964 0.32802950972779482 0 0.37735479425567464 1 I I #
point $-1 -37.534246405758104 -4.2265413380653367 4.9568451510994276 #
edge $-1 $604 1 $604 0 $335 $-1 forward 7 unknown #
vertex $-1 $336 $605 #
ellipse-curve $-1 -36.644967836711295 -2.0341987495295939 3.5213006151293111 -0.75470958851134928 0 0.65605901945558964 0.32802950972779482 0 0.37735479425567464 1 I I #
point $-1 -37.534246405758104 -2.0341987495295939 4.9568451510994276 #
loop $-1 $-1 $347 $339 #
plane-surface $-1 -41.440473647267069 0 0 1 0 0 0 0 -1 forward_v I I I I #
coedge $-1 $488 $342 $344 $492 reversed $215 $-1 #
coedge $-1 $342 $487 $606 $607 reversed $215 $-1 #
coedge $-1 $350 $345 $342 $490 forward $340 $-1 #
edge $-1 $493 -17.711681453973149 $608 -10.555285990410809 $489 $609 forward 7 unknown #
coedge $-1 $344 $343 $496 $610 reversed $135 $-1 #
edge $-1 $611 0 $493 10.908158033557493 $487 $612 forward 7 unknown #
vertex $-1 $346 $613 #
straight-curve $-1 -34.284078183704729 2.8669656378593267 8.6957360873052174 0 1 0 I I #
coedge $-1 $606 $347 $350 $500 reversed $485 $-1 #
coedge $-1 $347 $606 $491 $610 forward $485 $-1 #
vertex $-1 $348 $614 #
straight-curve $-1 -41.440473647267069 3.176198255760287 27.419018819992374 0 0 1 I I #
straight-curve $-1 -41.440473647267069 3.176198255760287 0.46324462638227715 -0.65605901945558964 0 -0.75470958851134928 I I #
edge $-1 $608 -8.2916642956770197 $351 -3.176198255760287 $495 $615 forward 7 unknown #
point $-1 -41.440473647267069 3.176198255760287 8.6957360873052174 #
point $-1 -34.284078183704729 3.176198255760287 8.6957360873052174 #
edge $-1 $616 1 $616 0 $354 $-1 forward 7 unknown #
vertex $-1 $355 $617 #
ellipse-curve $-1 -36.644967836711295 4.6377599814507846 3.5213006151293111 -0.75470958851134928 0 0.65605901945558964 0.32802950972779482 0 0.37735479425567464 1 I I #
point $-1 -37.534246405758104 4.6377599814507846 4.9568451510994276 #
edge $-1 $618 1 $618 0 $358 $-1 forward 7 unknown #
vertex $-1 $359 $619 #
ellipse-curve $-1 -36.644967836711295 6.8301025699865292 3.5213006151293111 -0.75470958851134928 0 0.65605901945558964 0.32802950972779482 0 0.37735479425567464 1 I I #
point $-1 -37.534246405758104 6.8301025699865292 4.9568451510994276 #
loop $-1 $-1 $370 $362 #
plane-surface $-1 -41.440473647267069 0 0 1 0 0 0 0 -1 forward_v I I I I #
coedge $-1 $514 $365 $367 $518 reversed $237 $-1 #
coedge $-1 $365 $513 $620 $621 reversed $237 $-1 #
coedge $-1 $373 $368 $365 $516 forward $363 $-1 #
edge $-1 $519 -17.711681453973149 $622 -10.555285990410809 $515 $623 forward 7 unknown #
coedge $-1 $367 $366 $522 $624 reversed $149 $-1 #
edge $-1 $625 0 $519 10.908158033557493 $513 $626 forward 7 unknown #
vertex $-1 $369 $627 #
straight-curve $-1 -34.284078183704729 7.2991162976173882 8.6957360873052174 0 1 0 I I #
coedge $-1 $620 $370 $373 $526 reversed $511 $-1 #
coedge $-1 $370 $620 $517 $624 forward $511 $-1 #
vertex $-1 $371 $628 #
straight-curve $-1 -41.440473647267069 12.04049957527641 27.419018819992374 0 0 1 I I #
straight-curve $-1 -41.440473647267069 12.04049957527641 0.46324462638227715 -0.65605901945558964 0 -0.75470958851134928 I I #
edge $-1 $622 -17.155965615193143 $374 -12.04049957527641 $521 $629 forward 7 unknown #
point $-1 -41.440473647267069 12.04049957527641 8.6957360873052174 #
point $-1 -34.284078183704729 12.04049957527641 8.6957360873052174 #
edge $-1 $630 1 $630 0 $377 $-1 forward 7 unknown #
vertex $-1 $378 $631 #
ellipse-curve $-1 -36.644967836711295 13.502061300966908 3.5213006151293111 -0.75470958851134928 0 0.65605901945558964 0.32802950972779482 0 0.37735479425567464 1 I I #
point $-1 -37.534246405758104 13.502061300966908 4.9568451510994276 #
edge $-1 $632 1 $632 0 $381 $-1 forward 7 unknown #
vertex $-1 $382 $633 #
ellipse-curve $-1 -36.644967836711295 15.694403889502652 3.5213006151293111 -0.75470958851134928 0 0.65605901945558964 0.32802950972779482 0 0.37735479425567464 1 I I #
point $-1 -37.534246405758104 15.694403889502652 4.9568451510994276 #
plane-surface $-1 41.440473647267069 0 0 -1 0 0 0 0 1 forward_v I I I I #
coedge $-1 $634 $635 $390 $542 forward $386 $-1 #
coedge $-1 $388 $546 $634 $636 forward $259 $-1 #
coedge $-1 $390 $389 $388 $541 reversed $163 $-1 #
edge $-1 $637 -11.330947856231816 $547 -4.2717117026746223 $388 $638 forward 7 unknown #
edge $-1 $544 -56.365563422444197 $637 -49.642586914590936 $538 $639 forward 7 unknown #
coedge $-1 $396 $391 $635 $640 reversed $397 $-1 #
vertex $-1 $392 $641 #
straight-curve $-1 41.440473647267069 7.8013297794532193 4.556658399994447 0 1 0 I I #
coedge $-1 $539 $393 $396 $550 forward $259 $-1 #
vertex $-1 $394 $642 #
straight-curve $-1 13.57800166882307 12.073041482127842 8.695736087305221 1 0 0 I I #
straight-curve $-1 -23.870603589993884 12.073041482127842 55.583265327634479 -0.78801074757464917 0 0.61566148304635926 I I #
edge $-1 $398 12.073041482127842 $643 19.132277635685035 $396 $644 forward 7 unknown #
point $-1 41.440473647267069 12.073041482127842 8.6957360873052174 #
point $-1 41.440473647267062 12.073041482127842 4.5566583999944541 #
edge $-1 $645 1 $645 0 $401 $-1 forward 7 unknown #
vertex $-1 $402 $646 #
ellipse-curve $-1 38.175923292280608 14.089966097429901 5.8381864960751884 0.61566148304635926 0 0.78801074757464917 0.19700268689366229 0 -0.15391537076158981 1 I I #
point $-1 38.988587462220629 14.089966097429901 6.4722818728882485 #
edge $-1 $647 1 $647 0 $405 $-1 forward 7 unknown #
vertex $-1 $406 $648 #
ellipse-curve $-1 38.175923292280608 17.115353020382983 5.8381864960751884 0.61566148304635926 0 0.78801074757464917 0.19700268689366229 0 -0.15391537076158981 1 I I #
point $-1 38.988587462220629 17.115353020382983 6.4722818728882485 #
plane-surface $-1 41.440473647267069 0 0 -1 0 0 0 0 1 forward_v I I I I #
coedge $-1 $414 $412 $416 $566 reversed $281 $-1 #
edge $-1 $427 -8.6957360873052174 $568 8.6957360873052174 $426 $649 forward 7 unknown #
vertex $-1 $566 $650 #
straight-curve $-1 -41.440473647267069 -19.132277635685035 0 0 0 -1 I I #
edge $-1 $564 -19.132277635685035 $568 19.132277635685035 $562 $651 forward 7 unknown #
straight-curve $-1 0 -19.132277635685035 -8.6957360873052174 -1 0 0 I I #
vertex $-1 $419 $652 #
straight-curve $-1 0 19.132277635685035 -8.6957360873052174 1 0 0 I I #
point $-1 41.440473647267069 19.132277635685035 -8.6957360873052174 #
point $-1 41.440473647267069 -19.132277635685035 -8.6957360873052174 #
straight-curve $-1 -41.440473647267069 0 8.6957360873052174 0 -1 0 I I #
point $-1 -41.440473647267069 19.132277635685035 8.6957360873052174 #
point $-1 -41.440473647267069 -19.132277635685035 8.6957360873052174 #
straight-curve $-1 41.440473647267069 -19.132277635685035 0 0 0 -1 I I #
straight-curve $-1 41.440473647267069 19.132277635685035 0 0 0 -1 I I #
plane-surface $-1 0 -19.132277635685035 0 0 1 0 0 0 1 forward_v I I I I #
coedge $-1 $653 $439 $451 $589 reversed $300 $-1 #
coedge $-1 $439 $653 $454 $591 reversed $300 $-1 #
edge $-1 $654 -41.440473647267069 $448 -37.94089566382965 $444 $655 forward 7 unknown #
straight-curve $-1 -37.94089566382965 -6.6991731799831893 8.6957360873052174 0 1 0 I I #
coedge $-1 $451 $442 $445 $585 forward $437 $-1 #
straight-curve $-1 -37.94089566382965 -6.6991731799831893 -8.6957360873052174 0 -1 0 I I #
coedge $-1 $445 $444 $653 $656 forward $446 $-1 #
edge $-1 $447 37.94089566382965 $657 41.440473647267069 $445 $658 forward 7 unknown #
point $-1 -37.94089566382965 -19.132277635685035 -8.6957360873052174 #
point $-1 -37.94089566382965 -19.132277635685035 8.6957360873052174 #
straight-curve $-1 -41.440473647267069 -7.6644150842477226 0 0 0 -1 I I #
edge $-1 $657 -19.132277635685035 $452 -7.6644150842477226 $578 $659 forward 7 unknown #
point $-1 -41.440473647267069 -7.6644150842477226 -8.6957360873052174 #
edge $-1 $455 7.6644150842477226 $654 19.132277635685035 $579 $660 forward 7 unknown #
point $-1 -41.440473647267069 -7.6644150842477226 8.6957360873052174 #
edge $-1 $594 18.723282732687156 $597 26.955774193610097 $460 $661 forward 7 unknown #
vertex $-1 $474 $662 #
straight-curve $-1 -51.995759637677878 -0.57263702383909987 8.6957360873052174 -1 0 0 I I #
edge $-1 $597 -0.99254799805963323 $471 4.1229180418570994 $470 $663 forward 7 unknown #
vertex $-1 $596 $664 #
straight-curve $-1 -41.440473647267069 -0.57263702383909987 0.46324462638227715 0.65605901945558964 0 0.75470958851134928 I I #
point $-1 -34.284078183704729 -0.57263702383909987 8.6957360873052174 #
point $-1 -41.440473647267069 -5.6881030637558325 0.46324462638227715 #
straight-curve $-1 -41.440473647267069 0 8.6957360873052174 0 -1 0 I I #
vertex $-1 $477 $665 #
point $-1 -36.316938326983497 -4.2265413380653367 3.8986554093849857 #
vertex $-1 $481 $666 #
point $-1 -36.316938326983497 -2.0341987495295939 3.8986554093849857 #
coedge $-1 $496 $495 $488 $607 forward $485 $-1 #
edge $-1 $608 18.723282732687156 $611 26.955774193610097 $606 $667 forward 7 unknown #
vertex $-1 $500 $668 #
straight-curve $-1 -51.995759637677878 8.2916642956770197 8.6957360873052174 -1 0 0 I I #
edge $-1 $611 -5.424698657817693 $497 -0.30923261790096035 $496 $669 forward 7 unknown #
vertex $-1 $610 $670 #
straight-curve $-1 -41.440473647267069 8.2916642956770197 0.46324462638227715 0.65605901945558964 0 0.75470958851134928 I I #
point $-1 -34.284078183704729 8.2916642956770197 8.6957360873052174 #
point $-1 -41.440473647267069 3.176198255760287 0.46324462638227715 #
straight-curve $-1 -41.440473647267069 0 8.6957360873052174 0 -1 0 I I #
vertex $-1 $503 $671 #
point $-1 -36.316938326983497 4.6377599814507846 3.8986554093849857 #
vertex $-1 $507 $672 #
point $-1 -36.316938326983497 6.8301025699865292 3.8986554093849857 #
coedge $-1 $522 $521 $514 $621 forward $511 $-1 #
edge $-1 $622 18.723282732687156 $625 26.955774193610097 $620 $673 forward 7 unknown #
vertex $-1 $526 $674 #
straight-curve $-1 -51.995759637677878 17.155965615193143 8.6957360873052174 -1 0 0 I I #
edge $-1 $625 -9.8568493175757546 $523 -4.7413832776590219 $522 $675 forward 7 unknown #
vertex $-1 $624 $676 #
straight-curve $-1 -41.440473647267069 17.155965615193143 0.46324462638227715 0.65605901945558964 0 0.75470958851134928 I I #
point $-1 -34.284078183704729 17.155965615193143 8.6957360873052174 #
point $-1 -41.440473647267069 12.04049957527641 0.46324462638227715 #
straight-curve $-1 -41.440473647267069 0 8.6957360873052174 0 -1 0 I I #
vertex $-1 $529 $677 #
point $-1 -36.316938326983497 13.502061300966908 3.8986554093849857 #
vertex $-1 $533 $678 #
point $-1 -36.316938326983497 15.694403889502652 3.8986554093849857 #
coedge $-1 $635 $538 $539 $636 reversed $386 $-1 #
coedge $-1 $538 $634 $543 $640 forward $386 $-1 #
edge $-1 $643 -41.440473647267069 $637 -36.142695903386816 $634 $679 forward 7 unknown #
vertex $-1 $541 $680 #
straight-curve $-1 36.142695903386816 7.8013297794532193 8.695736087305221 0 -1 0 I I #
straight-curve $-1 -2.9761961227194842 19.132277635685035 39.258764769400059 -0.78801074757464917 0 0.61566148304635926 I I #
edge $-1 $643 -8.6957360873052174 $544 -4.556658399994447 $543 $681 forward 7 unknown #
point $-1 41.440473647267069 19.132277635685035 4.556658399994447 #
point $-1 36.142695903386816 12.073041482127842 8.6957360873052139 #
vertex $-1 $550 $682 #
straight-curve $-1 41.440473647267069 0 8.6957360873052174 0 1 0 I I #
vertex $-1 $553 $683 #
point $-1 38.372925979174269 14.089966097429901 5.6842711253135993 #
vertex $-1 $557 $684 #
point $-1 38.372925979174269 17.115353020382983 5.6842711253135993 #
straight-curve $-1 -41.440473647267069 19.132277635685035 0 0 0 -1 I I #
point $-1 -41.440473647267069 -19.132277635685035 -8.6957360873052174 #
straight-curve $-1 -41.440473647267069 0 -8.6957360873052174 0 1 0 I I #
point $-1 -41.440473647267069 19.132277635685035 -8.6957360873052174 #
coedge $-1 $579 $578 $584 $656 reversed $300 $-1 #
vertex $-1 $591 $685 #
straight-curve $-1 0 -19.132277635685035 8.6957360873052174 1 0 0 I I #
edge $-1 $654 -8.6957360873052174 $657 8.6957360873052174 $653 $686 forward 7 unknown #
vertex $-1 $589 $687 #
straight-curve $-1 0 -19.132277635685035 -8.6957360873052174 -1 0 0 I I #
straight-curve $-1 -41.440473647267069 0 -8.6957360873052174 0 1 0 I I #
straight-curve $-1 -41.440473647267069 0 8.6957360873052174 0 -1 0 I I #
straight-curve $-1 -41.440473647267069 -0.57263702383909987 27.419018819992374 0 0 -1 I I #
point $-1 -41.440473647267069 -0.57263702383909987 8.6957360873052174 #
straight-curve $-1 -41.440473647267069 -1.5651850218987331 0.46324462638227482 0 -1 0 I I #
point $-1 -41.440473647267069 -0.57263702383909987 0.46324462638227715 #
point $-1 -36.267613042455615 -4.2265413380653367 3.1932711054015162 #
point $-1 -36.267613042455615 -2.0341987495295939 3.1932711054015162 #
straight-curve $-1 -41.440473647267069 8.2916642956770197 27.419018819992374 0 0 -1 I I #
point $-1 -41.440473647267069 8.2916642956770197 8.6957360873052174 #
straight-curve $-1 -41.440473647267069 2.8669656378593267 0.46324462638227482 0 -1 0 I I #
point $-1 -41.440473647267069 8.2916642956770197 0.46324462638227715 #
point $-1 -36.267613042455615 4.6377599814507846 3.1932711054015162 #
point $-1 -36.267613042455615 6.8301025699865292 3.1932711054015162 #
straight-curve $-1 -41.440473647267069 17.155965615193143 27.419018819992374 0 0 -1 I I #
point $-1 -41.440473647267069 17.155965615193143 8.6957360873052174 #
straight-curve $-1 -41.440473647267069 7.2991162976173882 0.46324462638227482 0 -1 0 I I #
point $-1 -41.440473647267069 17.155965615193143 0.46324462638227715 #
point $-1 -36.267613042455615 13.502061300966908 3.1932711054015162 #
point $-1 -36.267613042455615 15.694403889502652 3.1932711054015162 #
straight-curve $-1 0 19.132277635685035 8.6957360873052174 -1 0 0 I I #
point $-1 36.142695903386816 19.132277635685035 8.6957360873052139 #
straight-curve $-1 41.440473647267069 19.132277635685035 0 0 0 -1 I I #
point $-1 41.440473647267069 19.132277635685035 8.6957360873052174 #
point $-1 38.022007921519013 14.089966097429901 5.641183809181527 #
point $-1 38.022007921519013 17.115353020382983 5.641183809181527 #
point $-1 -41.440473647267069 -19.132277635685035 8.6957360873052174 #
straight-curve $-1 -41.440473647267069 -19.132277635685035 0 0 0 -1 I I #
point $-1 -41.440473647267069 -19.132277635685035 -8.6957360873052174 #
End-of-ACIS-data 