500 0 13 0           
7 Unknown 11 ACIS 5.0 NT 24 Thu Mar 25 17:35:08 1999 
-1 9.9999999999999995e-007 1e-010 
body $-1 $13 $-1 $14 #
body $-1 $15 $-1 $16 #
body $-1 $17 $-1 $18 #
body $-1 $19 $-1 $20 #
body $-1 $21 $-1 $22 #
body $-1 $23 $-1 $24 #
body $-1 $25 $-1 $26 #
body $-1 $27 $-1 $28 #
body $-1 $29 $-1 $30 #
body $-1 $31 $-1 $32 #
body $-1 $33 $-1 $34 #
body $-1 $35 $-1 $36 #
body $-1 $37 $-1 $38 #
lump $-1 $-1 $39 $0 #
transform $-1 1 0 0 0 1 0 0 0 1 71.407208471938233 30.704642002204075 9.231820506653472 1 rotate no_reflect no_shear #
lump $-1 $-1 $40 $1 #
transform $-1 1 0 0 0 1 0 0 0 1 3.9636028384141846 16.832780910070042 9.231820506653472 1 rotate no_reflect no_shear #
lump $-1 $-1 $41 $2 #
transform $-1 1 0 0 0 1 0 0 0 1 147.41368755002395 1.5 9.231820506653472 1 rotate no_reflect no_shear #
lump $-1 $-1 $42 $3 #
transform $-1 1 0 0 0 0.7313536940579346 0.68199836817093118 0 -0.68199836817093118 0.7313536940579346 31.754276353269464 -97.399199307006754 116.83884944276396 1 rotate no_reflect no_shear #
lump $-1 $-1 $43 $4 #
transform $-1 1 0 0 0 -0.7313536940579346 -0.68199836817093118 0 0.68199836817093118 -0.7313536940579346 27.996792330658764 7.6969494279098409 10.66504456493384 1 rotate no_reflect no_shear #
lump $-1 $-1 $44 $5 #
transform $-1 1 0 0 0 -0.7313536940579346 -0.68199836817093118 0 0.68199836817093118 -0.7313536940579346 35.511760375880165 7.6969494279098409 10.66504456493384 1 rotate no_reflect no_shear #
lump $-1 $-1 $45 $6 #
transform $-1 1 0 0 0 0.7313536940579346 0.68199836817093118 0 -0.68199836817093118 0.7313536940579346 94.598611380646048 -97.399199307006754 116.83884944276396 1 rotate no_reflect no_shear #
lump $-1 $-1 $46 $7 #
transform $-1 1 0 0 0 -0.7313536940579346 -0.68199836817093118 0 0.68199836817093118 -0.7313536940579346 90.841127358035351 7.6969494279098409 10.66504456493384 1 rotate no_reflect no_shear #
lump $-1 $-1 $47 $8 #
transform $-1 1 0 0 0 -0.7313536940579346 -0.68199836817093118 0 0.68199836817093118 -0.7313536940579346 98.356095403256745 7.6969494279098409 10.66504456493384 1 rotate no_reflect no_shear #
lump $-1 $-1 $48 $9 #
transform $-1 1 0 0 0 0.70710677298230451 -0.70710678939079041 0 0.70710678939079041 0.70710677298230451 18.343692086445859 118.97140720479943 153.81703689214004 1 rotate no_reflect no_shear #
lump $-1 $-1 $49 $10 #
transform $-1 1 0 0 0 -0.70710677298230451 0.70710678939079041 0 -0.70710678939079041 -0.70710677298230451 18.343692086445859 52.481832261314558 9.5361892672636372 1 rotate no_reflect no_shear #
lump $-1 $-1 $50 $11 #
transform $-1 1 0 0 0 0.70710677298230451 -0.70710678939079041 0 0.70710678939079041 0.70710677298230451 123.19938932196403 118.97140720479943 153.81703689214004 1 rotate no_reflect no_shear #
lump $-1 $-1 $51 $12 #
transform $-1 1 0 0 0 -0.70710677298230451 0.70710678939079041 0 -0.70710678939079041 -0.70710677298230451 123.19938932196403 52.481832261314558 9.5361892672636372 1 rotate no_reflect no_shear #
shell $-1 $-1 $-1 $52 $-1 $13 #
shell $-1 $-1 $-1 $53 $-1 $15 #
shell $-1 $-1 $-1 $54 $-1 $17 #
shell $-1 $-1 $-1 $55 $-1 $19 #
shell $-1 $-1 $-1 $56 $-1 $21 #
shell $-1 $-1 $-1 $57 $-1 $23 #
shell $-1 $-1 $-1 $58 $-1 $25 #
shell $-1 $-1 $-1 $59 $-1 $27 #
shell $-1 $-1 $-1 $60 $-1 $29 #
shell $-1 $-1 $-1 $61 $-1 $31 #
shell $-1 $-1 $-1 $62 $-1 $33 #
shell $-1 $-1 $-1 $63 $-1 $35 #
shell $-1 $-1 $-1 $64 $-1 $37 #
face $-1 $65 $66 $39 $-1 $67 forward single #
face $-1 $68 $69 $40 $-1 $70 forward single #
face $-1 $71 $72 $41 $-1 $73 forward single #
face $-1 $74 $75 $42 $-1 $76 forward single #
face $-1 $77 $78 $43 $-1 $79 forward single #
face $-1 $80 $81 $44 $-1 $82 forward single #
face $-1 $83 $84 $45 $-1 $85 forward single #
face $-1 $86 $87 $46 $-1 $88 forward single #
face $-1 $89 $90 $47 $-1 $91 forward single #
face $-1 $92 $93 $48 $-1 $94 forward single #
face $-1 $95 $96 $49 $-1 $97 forward single #
face $-1 $98 $99 $50 $-1 $100 forward single #
face $-1 $101 $102 $51 $-1 $103 forward single #
face $-1 $104 $105 $39 $-1 $106 reversed single #
loop $-1 $-1 $107 $52 #
plane-surface $-1 0 0 9.231820506653472 0 0 1 1 0 0 forward_v I I I I #
face $-1 $108 $109 $40 $-1 $110 reversed single #
loop $-1 $-1 $111 $53 #
plane-surface $-1 0 0 9.231820506653472 0 0 1 1 0 0 forward_v I I I I #
face $-1 $112 $113 $41 $-1 $114 reversed single #
loop $-1 $-1 $115 $54 #
plane-surface $-1 0 0 9.231820506653472 0 0 1 1 0 0 forward_v I I I I #
face $-1 $116 $117 $42 $-1 $118 reversed single #
loop $-1 $-1 $119 $55 #
plane-surface $-1 0 0 142.81441694387647 0 0 1 1 0 0 forward_v I I I I #
face $-1 $120 $121 $43 $-1 $122 forward single #
loop $-1 $123 $124 $56 #
cone-surface $-1 0 0 -3.6307947019867548 0 0 1 1.5 0 0 1 I I 0 1 1.5 forward I I I I #
face $-1 $125 $126 $44 $-1 $127 forward single #
loop $-1 $128 $129 $57 #
cone-surface $-1 0 0 -3.6307947019867548 0 0 1 1.5 0 0 1 I I 0 1 1.5 forward I I I I #
face $-1 $130 $131 $45 $-1 $132 reversed single #
loop $-1 $-1 $133 $58 #
plane-surface $-1 0 0 142.81441694387647 0 0 1 1 0 0 forward_v I I I I #
face $-1 $134 $135 $46 $-1 $136 forward single #
loop $-1 $137 $138 $59 #
cone-surface $-1 0 0 -3.6307947019867548 0 0 1 1.5 0 0 1 I I 0 1 1.5 forward I I I I #
face $-1 $139 $140 $47 $-1 $141 forward single #
loop $-1 $142 $143 $60 #
cone-surface $-1 0 0 -3.6307947019867548 0 0 1 1.5 0 0 1 I I 0 1 1.5 forward I I I I #
face $-1 $144 $145 $48 $-1 $146 reversed single #
loop $-1 $-1 $147 $61 #
plane-surface $-1 0 0 142.81441694387647 0 0 1 1 0 0 forward_v I I I I #
face $-1 $148 $149 $49 $-1 $150 forward single #
loop $-1 $151 $152 $62 #
cone-surface $-1 0 0 -3.4863887447737056 0 0 1 1.5 0 0 1 I I 0 1 1.5 forward I I I I #
face $-1 $153 $154 $50 $-1 $155 reversed single #
loop $-1 $-1 $156 $63 #
plane-surface $-1 0 0 142.81441694387647 0 0 1 1 0 0 forward_v I I I I #
face $-1 $157 $158 $51 $-1 $159 forward single #
loop $-1 $160 $161 $64 #
cone-surface $-1 0 0 -3.4863887447737056 0 0 1 1.5 0 0 1 I I 0 1 1.5 forward I I I I #
face $-1 $162 $163 $39 $-1 $164 reversed single #
loop $-1 $-1 $165 $65 #
plane-surface $-1 0 0 -9.231820506653472 0 0 1 1 0 0 forward_v I I I I #
coedge $-1 $166 $167 $168 $169 forward $66 $-1 #
face $-1 $170 $171 $40 $-1 $172 reversed single #
loop $-1 $-1 $173 $68 #
plane-surface $-1 0 0 -9.231820506653472 0 0 1 1 0 0 forward_v I I I I #
coedge $-1 $174 $175 $176 $177 forward $69 $-1 #
face $-1 $178 $179 $41 $-1 $180 reversed single #
loop $-1 $-1 $181 $71 #
plane-surface $-1 0 0 -9.231820506653472 0 0 1 1 0 0 forward_v I I I I #
coedge $-1 $182 $183 $184 $185 forward $72 $-1 #
face $-1 $186 $187 $42 $-1 $188 reversed single #
loop $-1 $-1 $189 $74 #
plane-surface $-1 0 0 -142.81441694387647 0 0 1 1 0 0 forward_v I I I I #
coedge $-1 $190 $191 $192 $193 forward $75 $-1 #
face $-1 $-1 $194 $43 $-1 $195 forward single #
loop $-1 $-1 $196 $77 #
plane-surface $-1 0 0 -6.5115894039735096 0 0 -1 -1 0 0 forward_v I I I I #
loop $-1 $-1 $197 $56 #
coedge $-1 $124 $124 $196 $198 reversed $78 $-1 #
face $-1 $-1 $199 $44 $-1 $200 forward single #
loop $-1 $-1 $201 $80 #
plane-surface $-1 0 0 -6.5115894039735096 0 0 -1 -1 0 0 forward_v I I I I #
loop $-1 $-1 $202 $57 #
coedge $-1 $129 $129 $201 $203 reversed $81 $-1 #
face $-1 $204 $205 $45 $-1 $206 reversed single #
loop $-1 $-1 $207 $83 #
plane-surface $-1 0 0 -142.81441694387647 0 0 1 1 0 0 forward_v I I I I #
coedge $-1 $208 $209 $210 $211 forward $84 $-1 #
face $-1 $-1 $212 $46 $-1 $213 forward single #
loop $-1 $-1 $214 $86 #
plane-surface $-1 0 0 -6.5115894039735096 0 0 -1 -1 0 0 forward_v I I I I #
loop $-1 $-1 $215 $59 #
coedge $-1 $138 $138 $214 $216 reversed $87 $-1 #
face $-1 $-1 $217 $47 $-1 $218 forward single #
loop $-1 $-1 $219 $89 #
plane-surface $-1 0 0 -6.5115894039735096 0 0 -1 -1 0 0 forward_v I I I I #
loop $-1 $-1 $220 $60 #
coedge $-1 $143 $143 $219 $221 reversed $90 $-1 #
face $-1 $222 $223 $48 $-1 $224 reversed single #
loop $-1 $-1 $225 $92 #
plane-surface $-1 0 0 -142.81441694387647 0 0 1 1 0 0 forward_v I I I I #
coedge $-1 $226 $227 $228 $229 forward $93 $-1 #
face $-1 $-1 $230 $49 $-1 $231 forward single #
loop $-1 $-1 $232 $95 #
plane-surface $-1 0 0 -6.2227774895474113 0 0 -1 -1 0 0 forward_v I I I I #
loop $-1 $-1 $233 $62 #
coedge $-1 $152 $152 $232 $234 reversed $96 $-1 #
face $-1 $235 $236 $50 $-1 $237 reversed single #
loop $-1 $-1 $238 $98 #
plane-surface $-1 0 0 -142.81441694387647 0 0 1 1 0 0 forward_v I I I I #
coedge $-1 $239 $240 $241 $242 forward $99 $-1 #
face $-1 $-1 $243 $51 $-1 $244 forward single #
loop $-1 $-1 $245 $101 #
plane-surface $-1 0 0 -6.2227774895474113 0 0 -1 -1 0 0 forward_v I I I I #
loop $-1 $-1 $246 $64 #
coedge $-1 $161 $161 $245 $247 reversed $102 $-1 #
face $-1 $248 $249 $39 $-1 $250 reversed single #
loop $-1 $-1 $251 $104 #
plane-surface $-1 0 -30.704642002204075 0 0 1 0 0 0 1 forward_v I I I I #
coedge $-1 $252 $253 $254 $255 forward $105 $-1 #
coedge $-1 $256 $107 $257 $258 forward $66 $-1 #
coedge $-1 $107 $256 $259 $260 forward $66 $-1 #
coedge $-1 $261 $262 $107 $169 reversed $263 $-1 #
edge $-1 $264 -30.704642002204075 $265 30.704642002204075 $168 $266 forward 7 unknown #
face $-1 $267 $268 $40 $-1 $269 reversed single #
loop $-1 $-1 $270 $108 #
plane-surface $-1 0 -1.6308601032369037 0 0 1 0 0 0 1 forward_v I I I I #
coedge $-1 $271 $272 $273 $274 forward $109 $-1 #
coedge $-1 $275 $111 $276 $277 forward $69 $-1 #
coedge $-1 $111 $275 $278 $279 forward $69 $-1 #
coedge $-1 $280 $281 $111 $177 reversed $282 $-1 #
edge $-1 $283 -1.6308601032369037 $284 1.6308601032369037 $176 $285 forward 7 unknown #
face $-1 $286 $287 $41 $-1 $288 reversed single #
loop $-1 $-1 $289 $112 #
plane-surface $-1 0 -1.5 0 0 1 0 0 0 1 forward_v I I I I #
coedge $-1 $290 $291 $292 $293 forward $113 $-1 #
coedge $-1 $294 $115 $295 $296 forward $72 $-1 #
coedge $-1 $115 $294 $297 $298 forward $72 $-1 #
coedge $-1 $299 $300 $115 $185 reversed $301 $-1 #
edge $-1 $302 -1.5 $303 1.5 $184 $304 forward 7 unknown #
face $-1 $305 $306 $42 $-1 $307 reversed single #
loop $-1 $-1 $308 $116 #
plane-surface $-1 0 -285.62883388775293 0 0 1 0 0 0 1 forward_v I I I I #
coedge $-1 $309 $310 $311 $312 forward $117 $-1 #
coedge $-1 $313 $119 $314 $315 forward $75 $-1 #
coedge $-1 $119 $313 $316 $317 forward $75 $-1 #
coedge $-1 $318 $319 $119 $193 reversed $320 $-1 #
edge $-1 $321 -285.62883388775293 $322 285.62883388775293 $192 $323 forward 7 unknown #
loop $-1 $324 $325 $120 #
cone-surface $-1 0 0 0 0 0 1 0.75 0 0 1 I I -0.70710678118654757 0.70710678118654757 0.75 forward I I I I #
coedge $-1 $196 $196 $124 $198 forward $121 $-1 #
coedge $-1 $197 $197 $325 $326 forward $123 $-1 #
edge $-1 $327 0 $327 6.2831853071796004 $196 $328 forward 7 unknown #
loop $-1 $329 $330 $125 #
cone-surface $-1 0 0 0 0 0 1 0.75 0 0 1 I I -0.70710678118654757 0.70710678118654757 0.75 forward I I I I #
coedge $-1 $201 $201 $129 $203 forward $126 $-1 #
coedge $-1 $202 $202 $330 $331 forward $128 $-1 #
edge $-1 $332 0 $332 6.2831853071796004 $201 $333 forward 7 unknown #
face $-1 $334 $335 $45 $-1 $336 reversed single #
loop $-1 $-1 $337 $130 #
plane-surface $-1 0 -285.62883388775293 0 0 1 0 0 0 1 forward_v I I I I #
coedge $-1 $338 $339 $340 $341 forward $131 $-1 #
coedge $-1 $342 $133 $343 $344 forward $84 $-1 #
coedge $-1 $133 $342 $345 $346 forward $84 $-1 #
coedge $-1 $347 $348 $133 $211 reversed $349 $-1 #
edge $-1 $350 -285.62883388775293 $351 285.62883388775293 $210 $352 forward 7 unknown #
loop $-1 $353 $354 $134 #
cone-surface $-1 0 0 0 0 0 1 0.75 0 0 1 I I -0.70710678118654757 0.70710678118654757 0.75 forward I I I I #
coedge $-1 $214 $214 $138 $216 forward $135 $-1 #
coedge $-1 $215 $215 $354 $355 forward $137 $-1 #
edge $-1 $356 0 $356 6.2831853071796004 $214 $357 forward 7 unknown #
loop $-1 $358 $359 $139 #
cone-surface $-1 0 0 0 0 0 1 0.75 0 0 1 I I -0.70710678118654757 0.70710678118654757 0.75 forward I I I I #
coedge $-1 $219 $219 $143 $221 forward $140 $-1 #
coedge $-1 $220 $220 $359 $360 forward $142 $-1 #
edge $-1 $361 0 $361 6.2831853071796004 $219 $362 forward 7 unknown #
face $-1 $363 $364 $48 $-1 $365 reversed single #
loop $-1 $-1 $366 $144 #
plane-surface $-1 0 -285.62883388775293 0 0 1 0 0 0 1 forward_v I I I I #
coedge $-1 $367 $368 $369 $370 forward $145 $-1 #
coedge $-1 $371 $147 $372 $373 forward $93 $-1 #
coedge $-1 $147 $371 $374 $375 forward $93 $-1 #
coedge $-1 $376 $377 $147 $229 reversed $378 $-1 #
edge $-1 $379 -285.62883388775293 $380 285.62883388775293 $228 $381 forward 7 unknown #
loop $-1 $382 $383 $148 #
cone-surface $-1 0 0 0 0 0 1 0.75 0 0 1 I I -0.70710678118654757 0.70710678118654757 0.75 forward I I I I #
coedge $-1 $232 $232 $152 $234 forward $149 $-1 #
coedge $-1 $233 $233 $383 $384 forward $151 $-1 #
edge $-1 $385 0 $385 6.2831853071796004 $232 $386 forward 7 unknown #
face $-1 $387 $388 $50 $-1 $389 reversed single #
loop $-1 $-1 $390 $153 #
plane-surface $-1 0 -285.62883388775293 0 0 1 0 0 0 1 forward_v I I I I #
coedge $-1 $391 $392 $393 $394 forward $154 $-1 #
coedge $-1 $395 $156 $396 $397 forward $99 $-1 #
coedge $-1 $156 $395 $398 $399 forward $99 $-1 #
coedge $-1 $400 $401 $156 $242 reversed $402 $-1 #
edge $-1 $403 -285.62883388775293 $404 285.62883388775293 $241 $405 forward 7 unknown #
loop $-1 $406 $407 $157 #
cone-surface $-1 0 0 0 0 0 1 0.75 0 0 1 I I -0.70710678118654757 0.70710678118654757 0.75 forward I I I I #
coedge $-1 $245 $245 $161 $247 forward $158 $-1 #
coedge $-1 $246 $246 $407 $408 forward $160 $-1 #
edge $-1 $409 0 $409 6.2831853071796004 $245 $410 forward 7 unknown #
face $-1 $411 $412 $39 $-1 $413 reversed single #
loop $-1 $-1 $414 $162 #
plane-surface $-1 -71.407208471938233 0 0 1 0 0 0 0 -1 forward_v I I I I #
coedge $-1 $415 $259 $416 $417 forward $163 $-1 #
coedge $-1 $418 $165 $415 $419 forward $105 $-1 #
coedge $-1 $165 $418 $420 $421 forward $105 $-1 #
coedge $-1 $262 $261 $165 $255 reversed $263 $-1 #
edge $-1 $422 -30.704642002204075 $423 30.704642002204075 $254 $424 forward 7 unknown #
coedge $-1 $167 $166 $425 $426 forward $66 $-1 #
coedge $-1 $427 $428 $166 $258 reversed $412 $-1 #
edge $-1 $265 -71.407208471938233 $429 71.407208471938233 $257 $430 forward 7 unknown #
coedge $-1 $251 $431 $167 $260 reversed $163 $-1 #
edge $-1 $432 -71.407208471938233 $264 71.407208471938233 $259 $433 forward 7 unknown #
coedge $-1 $254 $168 $431 $434 forward $263 $-1 #
coedge $-1 $168 $254 $427 $435 reversed $263 $-1 #
loop $-1 $-1 $261 $411 #
vertex $-1 $169 $436 #
vertex $-1 $169 $437 #
straight-curve $-1 71.407208471938233 0 9.231820506653472 0 1 0 I I #
face $-1 $438 $439 $40 $-1 $440 reversed single #
loop $-1 $-1 $441 $170 #
plane-surface $-1 -3.9636028384141846 0 0 1 0 0 0 0 -1 forward_v I I I I #
coedge $-1 $442 $278 $443 $444 forward $171 $-1 #
coedge $-1 $445 $173 $442 $446 forward $109 $-1 #
coedge $-1 $173 $445 $447 $448 forward $109 $-1 #
coedge $-1 $281 $280 $173 $274 reversed $282 $-1 #
edge $-1 $449 -1.6308601032369037 $450 1.6308601032369037 $273 $451 forward 7 unknown #
coedge $-1 $175 $174 $452 $453 forward $69 $-1 #
coedge $-1 $454 $455 $174 $277 reversed $439 $-1 #
edge $-1 $284 -3.9636028384141846 $456 3.9636028384141846 $276 $457 forward 7 unknown #
coedge $-1 $270 $458 $175 $279 reversed $171 $-1 #
edge $-1 $459 -3.9636028384141846 $283 3.9636028384141846 $278 $460 forward 7 unknown #
coedge $-1 $273 $176 $458 $461 forward $282 $-1 #
coedge $-1 $176 $273 $454 $462 reversed $282 $-1 #
loop $-1 $-1 $280 $438 #
vertex $-1 $177 $463 #
vertex $-1 $177 $464 #
straight-curve $-1 3.9636028384141846 0 9.231820506653472 0 1 0 I I #
face $-1 $465 $466 $41 $-1 $467 reversed single #
loop $-1 $-1 $468 $178 #
plane-surface $-1 -4.5992706061474706 0 0 1 0 0 0 0 -1 forward_v I I I I #
coedge $-1 $469 $297 $470 $471 forward $179 $-1 #
coedge $-1 $472 $181 $469 $473 forward $113 $-1 #
coedge $-1 $181 $472 $474 $475 forward $113 $-1 #
coedge $-1 $300 $299 $181 $293 reversed $301 $-1 #
edge $-1 $476 -1.5 $477 1.5 $292 $478 forward 7 unknown #
coedge $-1 $183 $182 $479 $480 forward $72 $-1 #
coedge $-1 $481 $482 $182 $296 reversed $466 $-1 #
edge $-1 $303 -4.5992706061474706 $483 4.5992706061474706 $295 $484 forward 7 unknown #
coedge $-1 $289 $485 $183 $298 reversed $179 $-1 #
edge $-1 $486 -4.5992706061474706 $302 4.5992706061474706 $297 $487 forward 7 unknown #
coedge $-1 $292 $184 $485 $488 forward $301 $-1 #
coedge $-1 $184 $292 $481 $489 reversed $301 $-1 #
loop $-1 $-1 $299 $465 #
vertex $-1 $185 $490 #
vertex $-1 $185 $491 #
straight-curve $-1 4.5992706061474706 0 9.231820506653472 0 1 0 I I #
face $-1 $492 $493 $42 $-1 $494 reversed single #
loop $-1 $-1 $495 $186 #
plane-surface $-1 -8.7674627194249659 0 0 1 0 0 0 0 -1 forward_v I I I I #
coedge $-1 $496 $316 $497 $498 forward $187 $-1 #
coedge $-1 $499 $189 $496 $500 forward $117 $-1 #
coedge $-1 $189 $499 $501 $502 forward $117 $-1 #
coedge $-1 $319 $318 $189 $312 reversed $320 $-1 #
edge $-1 $503 -285.62883388775293 $504 285.62883388775293 $311 $505 forward 7 unknown #
coedge $-1 $191 $190 $506 $507 forward $75 $-1 #
coedge $-1 $508 $509 $190 $315 reversed $493 $-1 #
edge $-1 $322 -8.7674627194249659 $510 8.7674627194249659 $314 $511 forward 7 unknown #
coedge $-1 $308 $512 $191 $317 reversed $187 $-1 #
edge $-1 $513 -8.7674627194249659 $321 8.7674627194249659 $316 $514 forward 7 unknown #
coedge $-1 $311 $192 $512 $515 forward $320 $-1 #
coedge $-1 $192 $311 $508 $516 reversed $320 $-1 #
loop $-1 $-1 $318 $492 #
vertex $-1 $193 $517 #
vertex $-1 $193 $518 #
straight-curve $-1 8.7674627194249659 0 142.81441694387647 0 1 0 I I #
loop $-1 $-1 $519 $120 #
coedge $-1 $325 $325 $197 $326 reversed $194 $-1 #
edge $-1 $520 0 $520 6.2831853071796004 $325 $521 forward 7 unknown #
vertex $-1 $198 $522 #
ellipse-curve $-1 0 0 -6.5115894039735096 0 0 -1 1.5 0 0 1 I I #
loop $-1 $-1 $523 $125 #
coedge $-1 $330 $330 $202 $331 reversed $199 $-1 #
edge $-1 $524 0 $524 6.2831853071796004 $330 $525 forward 7 unknown #
vertex $-1 $203 $526 #
ellipse-curve $-1 0 0 -6.5115894039735096 0 0 -1 1.5 0 0 1 I I #
face $-1 $527 $528 $45 $-1 $529 reversed single #
loop $-1 $-1 $530 $204 #
plane-surface $-1 -8.7674627194249659 0 0 1 0 0 0 0 -1 forward_v I I I I #
coedge $-1 $531 $345 $532 $533 forward $205 $-1 #
coedge $-1 $534 $207 $531 $535 forward $131 $-1 #
coedge $-1 $207 $534 $536 $537 forward $131 $-1 #
coedge $-1 $348 $347 $207 $341 reversed $349 $-1 #
edge $-1 $538 -285.62883388775293 $539 285.62883388775293 $340 $540 forward 7 unknown #
coedge $-1 $209 $208 $541 $542 forward $84 $-1 #
coedge $-1 $543 $544 $208 $344 reversed $528 $-1 #
edge $-1 $351 -8.7674627194249659 $545 8.7674627194249659 $343 $546 forward 7 unknown #
coedge $-1 $337 $547 $209 $346 reversed $205 $-1 #
edge $-1 $548 -8.7674627194249659 $350 8.7674627194249659 $345 $549 forward 7 unknown #
coedge $-1 $340 $210 $547 $550 forward $349 $-1 #
coedge $-1 $210 $340 $543 $551 reversed $349 $-1 #
loop $-1 $-1 $347 $527 #
vertex $-1 $211 $552 #
vertex $-1 $211 $553 #
straight-curve $-1 8.7674627194249659 0 142.81441694387647 0 1 0 I I #
loop $-1 $-1 $554 $134 #
coedge $-1 $354 $354 $215 $355 reversed $212 $-1 #
edge $-1 $555 0 $555 6.2831853071796004 $354 $556 forward 7 unknown #
vertex $-1 $216 $557 #
ellipse-curve $-1 0 0 -6.5115894039735096 0 0 -1 1.5 0 0 1 I I #
loop $-1 $-1 $558 $139 #
coedge $-1 $359 $359 $220 $360 reversed $217 $-1 #
edge $-1 $559 0 $559 6.2831853071796004 $359 $560 forward 7 unknown #
vertex $-1 $221 $561 #
ellipse-curve $-1 0 0 -6.5115894039735096 0 0 -1 1.5 0 0 1 I I #
face $-1 $562 $563 $48 $-1 $564 reversed single #
loop $-1 $-1 $565 $222 #
plane-surface $-1 -10.416486409617489 0 0 1 0 0 0 0 -1 forward_v I I I I #
coedge $-1 $566 $374 $567 $568 forward $223 $-1 #
coedge $-1 $569 $225 $566 $570 forward $145 $-1 #
coedge $-1 $225 $569 $571 $572 forward $145 $-1 #
coedge $-1 $377 $376 $225 $370 reversed $378 $-1 #
edge $-1 $573 -285.62883388775293 $574 285.62883388775293 $369 $575 forward 7 unknown #
coedge $-1 $227 $226 $576 $577 forward $93 $-1 #
coedge $-1 $578 $579 $226 $373 reversed $563 $-1 #
edge $-1 $380 -10.416486409617489 $580 10.416486409617489 $372 $581 forward 7 unknown #
coedge $-1 $366 $582 $227 $375 reversed $223 $-1 #
edge $-1 $583 -10.416486409617489 $379 10.416486409617489 $374 $584 forward 7 unknown #
coedge $-1 $369 $228 $582 $585 forward $378 $-1 #
coedge $-1 $228 $369 $578 $586 reversed $378 $-1 #
loop $-1 $-1 $376 $562 #
vertex $-1 $229 $587 #
vertex $-1 $229 $588 #
straight-curve $-1 10.416486409617489 0 142.81441694387647 0 1 0 I I #
loop $-1 $-1 $589 $148 #
coedge $-1 $383 $383 $233 $384 reversed $230 $-1 #
edge $-1 $590 0 $590 6.2831853071796004 $383 $591 forward 7 unknown #
vertex $-1 $234 $592 #
ellipse-curve $-1 0 0 -6.2227774895474113 0 0 -1 1.5 0 0 1 I I #
face $-1 $593 $594 $50 $-1 $595 reversed single #
loop $-1 $-1 $596 $235 #
plane-surface $-1 -10.416486409617489 0 0 1 0 0 0 0 -1 forward_v I I I I #
coedge $-1 $597 $398 $598 $599 forward $236 $-1 #
coedge $-1 $600 $238 $597 $601 forward $154 $-1 #
coedge $-1 $238 $600 $602 $603 forward $154 $-1 #
coedge $-1 $401 $400 $238 $394 reversed $402 $-1 #
edge $-1 $604 -285.62883388775293 $605 285.62883388775293 $393 $606 forward 7 unknown #
coedge $-1 $240 $239 $607 $608 forward $99 $-1 #
coedge $-1 $609 $610 $239 $397 reversed $594 $-1 #
edge $-1 $404 -10.416486409617489 $611 10.416486409617489 $396 $612 forward 7 unknown #
coedge $-1 $390 $613 $240 $399 reversed $236 $-1 #
edge $-1 $614 -10.416486409617489 $403 10.416486409617489 $398 $615 forward 7 unknown #
coedge $-1 $393 $241 $613 $616 forward $402 $-1 #
coedge $-1 $241 $393 $609 $617 reversed $402 $-1 #
loop $-1 $-1 $400 $593 #
vertex $-1 $242 $618 #
vertex $-1 $242 $619 #
straight-curve $-1 10.416486409617489 0 142.81441694387647 0 1 0 I I #
loop $-1 $-1 $620 $157 #
coedge $-1 $407 $407 $246 $408 reversed $243 $-1 #
edge $-1 $621 0 $621 6.2831853071796004 $407 $622 forward 7 unknown #
vertex $-1 $247 $623 #
ellipse-curve $-1 0 0 -6.2227774895474113 0 0 -1 1.5 0 0 1 I I #
face $-1 $-1 $263 $39 $-1 $624 reversed single #
loop $-1 $-1 $427 $248 #
plane-surface $-1 0 30.704642002204075 0 0 -1 0 0 0 -1 forward_v I I I I #
coedge $-1 $625 $425 $428 $626 forward $249 $-1 #
coedge $-1 $431 $251 $252 $419 reversed $163 $-1 #
coedge $-1 $425 $625 $251 $417 reversed $249 $-1 #
edge $-1 $432 -9.231820506653472 $627 9.231820506653472 $416 $628 forward 7 unknown #
coedge $-1 $253 $252 $625 $629 forward $105 $-1 #
edge $-1 $423 -71.407208471938233 $627 71.407208471938233 $415 $630 forward 7 unknown #
coedge $-1 $428 $427 $253 $421 reversed $412 $-1 #
edge $-1 $631 -71.407208471938233 $422 71.407208471938233 $420 $632 forward 7 unknown #
vertex $-1 $255 $633 #
vertex $-1 $434 $634 #
straight-curve $-1 71.407208471938233 0 -9.231820506653472 0 -1 0 I I #
coedge $-1 $414 $416 $256 $426 reversed $249 $-1 #
edge $-1 $429 -30.704642002204075 $432 30.704642002204075 $425 $635 forward 7 unknown #
coedge $-1 $420 $257 $262 $435 forward $412 $-1 #
coedge $-1 $257 $420 $414 $626 reversed $412 $-1 #
vertex $-1 $258 $636 #
straight-curve $-1 0 30.704642002204075 9.231820506653472 -1 0 0 I I #
coedge $-1 $259 $415 $261 $434 reversed $163 $-1 #
vertex $-1 $426 $637 #
straight-curve $-1 0 -30.704642002204075 9.231820506653472 1 0 0 I I #
edge $-1 $264 -9.231820506653472 $423 9.231820506653472 $261 $638 forward 7 unknown #
edge $-1 $265 -9.231820506653472 $422 9.231820506653472 $262 $639 forward 7 unknown #
point $-1 71.407208471938233 -30.704642002204075 9.231820506653472 #
point $-1 71.407208471938233 30.704642002204075 9.231820506653472 #
face $-1 $-1 $282 $40 $-1 $640 reversed single #
loop $-1 $-1 $454 $267 #
plane-surface $-1 0 1.6308601032369037 0 0 -1 0 0 0 -1 forward_v I I I I #
coedge $-1 $641 $452 $455 $642 forward $268 $-1 #
coedge $-1 $458 $270 $271 $446 reversed $171 $-1 #
coedge $-1 $452 $641 $270 $444 reversed $268 $-1 #
edge $-1 $459 -9.231820506653472 $643 9.231820506653472 $443 $644 forward 7 unknown #
coedge $-1 $272 $271 $641 $645 forward $109 $-1 #
edge $-1 $450 -3.9636028384141846 $643 3.9636028384141846 $442 $646 forward 7 unknown #
coedge $-1 $455 $454 $272 $448 reversed $439 $-1 #
edge $-1 $647 -3.9636028384141846 $449 3.9636028384141846 $447 $648 forward 7 unknown #
vertex $-1 $274 $649 #
vertex $-1 $461 $650 #
straight-curve $-1 3.9636028384141846 0 -9.231820506653472 0 -1 0 I I #
coedge $-1 $441 $443 $275 $453 reversed $268 $-1 #
edge $-1 $456 -1.6308601032369037 $459 1.6308601032369037 $452 $651 forward 7 unknown #
coedge $-1 $447 $276 $281 $462 forward $439 $-1 #
coedge $-1 $276 $447 $441 $642 reversed $439 $-1 #
vertex $-1 $277 $652 #
straight-curve $-1 0 1.6308601032369037 9.231820506653472 -1 0 0 I I #
coedge $-1 $278 $442 $280 $461 reversed $171 $-1 #
vertex $-1 $453 $653 #
straight-curve $-1 0 -1.6308601032369037 9.231820506653472 1 0 0 I I #
edge $-1 $283 -9.231820506653472 $450 9.231820506653472 $280 $654 forward 7 unknown #
edge $-1 $284 -9.231820506653472 $449 9.231820506653472 $281 $655 forward 7 unknown #
point $-1 3.9636028384141846 -1.6308601032369037 9.231820506653472 #
point $-1 3.9636028384141846 1.6308601032369037 9.231820506653472 #
face $-1 $-1 $301 $41 $-1 $656 reversed single #
loop $-1 $-1 $481 $286 #
plane-surface $-1 0 1.5 0 0 -1 0 0 0 -1 forward_v I I I I #
coedge $-1 $657 $479 $482 $658 forward $287 $-1 #
coedge $-1 $485 $289 $290 $473 reversed $179 $-1 #
coedge $-1 $479 $657 $289 $471 reversed $287 $-1 #
edge $-1 $486 -9.231820506653472 $659 9.231820506653472 $470 $660 forward 7 unknown #
coedge $-1 $291 $290 $657 $661 forward $113 $-1 #
edge $-1 $477 -4.5992706061474706 $659 4.5992706061474706 $469 $662 forward 7 unknown #
coedge $-1 $482 $481 $291 $475 reversed $466 $-1 #
edge $-1 $663 -4.5992706061474706 $476 4.5992706061474706 $474 $664 forward 7 unknown #
vertex $-1 $293 $665 #
vertex $-1 $488 $666 #
straight-curve $-1 4.5992706061474706 0 -9.231820506653472 0 -1 0 I I #
coedge $-1 $468 $470 $294 $480 reversed $287 $-1 #
edge $-1 $483 -1.5 $486 1.5 $479 $667 forward 7 unknown #
coedge $-1 $474 $295 $300 $489 forward $466 $-1 #
coedge $-1 $295 $474 $468 $658 reversed $466 $-1 #
vertex $-1 $296 $668 #
straight-curve $-1 0 1.5 9.231820506653472 -1 0 0 I I #
coedge $-1 $297 $469 $299 $488 reversed $179 $-1 #
vertex $-1 $480 $669 #
straight-curve $-1 0 -1.5 9.231820506653472 1 0 0 I I #
edge $-1 $302 -9.231820506653472 $477 9.231820506653472 $299 $670 forward 7 unknown #
edge $-1 $303 -9.231820506653472 $476 9.231820506653472 $300 $671 forward 7 unknown #
point $-1 4.5992706061474706 -1.5 9.231820506653472 #
point $-1 4.5992706061474706 1.5 9.231820506653472 #
face $-1 $-1 $320 $42 $-1 $672 reversed single #
loop $-1 $-1 $508 $305 #
plane-surface $-1 0 285.62883388775293 0 0 -1 0 0 0 -1 forward_v I I I I #
coedge $-1 $673 $506 $509 $674 forward $306 $-1 #
coedge $-1 $512 $308 $309 $500 reversed $187 $-1 #
coedge $-1 $506 $673 $308 $498 reversed $306 $-1 #
edge $-1 $513 -142.81441694387647 $675 142.81441694387647 $497 $676 forward 7 unknown #
coedge $-1 $310 $309 $673 $677 forward $117 $-1 #
edge $-1 $504 -8.7674627194249659 $675 8.7674627194249659 $496 $678 forward 7 unknown #
coedge $-1 $509 $508 $310 $502 reversed $493 $-1 #
edge $-1 $679 -8.7674627194249659 $503 8.7674627194249659 $501 $680 forward 7 unknown #
vertex $-1 $312 $681 #
vertex $-1 $515 $682 #
straight-curve $-1 8.7674627194249659 0 -142.81441694387647 0 -1 0 I I #
coedge $-1 $495 $497 $313 $507 reversed $306 $-1 #
edge $-1 $510 -285.62883388775293 $513 285.62883388775293 $506 $683 forward 7 unknown #
coedge $-1 $501 $314 $319 $516 forward $493 $-1 #
coedge $-1 $314 $501 $495 $674 reversed $493 $-1 #
vertex $-1 $315 $684 #
straight-curve $-1 0 285.62883388775293 142.81441694387647 -1 0 0 I I #
coedge $-1 $316 $496 $318 $515 reversed $187 $-1 #
vertex $-1 $507 $685 #
straight-curve $-1 0 -285.62883388775293 142.81441694387647 1 0 0 I I #
edge $-1 $321 -142.81441694387647 $504 142.81441694387647 $318 $686 forward 7 unknown #
edge $-1 $322 -142.81441694387647 $503 142.81441694387647 $319 $687 forward 7 unknown #
point $-1 8.7674627194249659 -285.62883388775293 142.81441694387647 #
point $-1 8.7674627194249659 285.62883388775293 142.81441694387647 #
coedge $-1 $519 $519 $-1 $688 reversed $324 $-1 #
vertex $-1 $326 $689 #
ellipse-curve $-1 0 0 -0.75 0 0 -1 1.5 0 0 1 I I #
point $-1 1.5 0 -6.5115894039735096 #
coedge $-1 $523 $523 $-1 $690 reversed $329 $-1 #
vertex $-1 $331 $691 #
ellipse-curve $-1 0 0 -0.75 0 0 -1 1.5 0 0 1 I I #
point $-1 1.5 0 -6.5115894039735096 #
face $-1 $-1 $349 $45 $-1 $692 reversed single #
loop $-1 $-1 $543 $334 #
plane-surface $-1 0 285.62883388775293 0 0 -1 0 0 0 -1 forward_v I I I I #
coedge $-1 $693 $541 $544 $694 forward $335 $-1 #
coedge $-1 $547 $337 $338 $535 reversed $205 $-1 #
coedge $-1 $541 $693 $337 $533 reversed $335 $-1 #
edge $-1 $548 -142.81441694387647 $695 142.81441694387647 $532 $696 forward 7 unknown #
coedge $-1 $339 $338 $693 $697 forward $131 $-1 #
edge $-1 $539 -8.7674627194249659 $695 8.7674627194249659 $531 $698 forward 7 unknown #
coedge $-1 $544 $543 $339 $537 reversed $528 $-1 #
edge $-1 $699 -8.7674627194249659 $538 8.7674627194249659 $536 $700 forward 7 unknown #
vertex $-1 $341 $701 #
vertex $-1 $550 $702 #
straight-curve $-1 8.7674627194249659 0 -142.81441694387647 0 -1 0 I I #
coedge $-1 $530 $532 $342 $542 reversed $335 $-1 #
edge $-1 $545 -285.62883388775293 $548 285.62883388775293 $541 $703 forward 7 unknown #
coedge $-1 $536 $343 $348 $551 forward $528 $-1 #
coedge $-1 $343 $536 $530 $694 reversed $528 $-1 #
vertex $-1 $344 $704 #
straight-curve $-1 0 285.62883388775293 142.81441694387647 -1 0 0 I I #
coedge $-1 $345 $531 $347 $550 reversed $205 $-1 #
vertex $-1 $542 $705 #
straight-curve $-1 0 -285.62883388775293 142.81441694387647 1 0 0 I I #
edge $-1 $350 -142.81441694387647 $539 142.81441694387647 $347 $706 forward 7 unknown #
edge $-1 $351 -142.81441694387647 $538 142.81441694387647 $348 $707 forward 7 unknown #
point $-1 8.7674627194249659 -285.62883388775293 142.81441694387647 #
point $-1 8.7674627194249659 285.62883388775293 142.81441694387647 #
coedge $-1 $554 $554 $-1 $708 reversed $353 $-1 #
vertex $-1 $355 $709 #
ellipse-curve $-1 0 0 -0.75 0 0 -1 1.5 0 0 1 I I #
point $-1 1.5 0 -6.5115894039735096 #
coedge $-1 $558 $558 $-1 $710 reversed $358 $-1 #
vertex $-1 $360 $711 #
ellipse-curve $-1 0 0 -0.75 0 0 -1 1.5 0 0 1 I I #
point $-1 1.5 0 -6.5115894039735096 #
face $-1 $-1 $378 $48 $-1 $712 reversed single #
loop $-1 $-1 $578 $363 #
plane-surface $-1 0 285.62883388775293 0 0 -1 0 0 0 -1 forward_v I I I I #
coedge $-1 $713 $576 $579 $714 forward $364 $-1 #
coedge $-1 $582 $366 $367 $570 reversed $223 $-1 #
coedge $-1 $576 $713 $366 $568 reversed $364 $-1 #
edge $-1 $583 -142.81441694387647 $715 142.81441694387647 $567 $716 forward 7 unknown #
coedge $-1 $368 $367 $713 $717 forward $145 $-1 #
edge $-1 $574 -10.416486409617489 $715 10.416486409617489 $566 $718 forward 7 unknown #
coedge $-1 $579 $578 $368 $572 reversed $563 $-1 #
edge $-1 $719 -10.416486409617489 $573 10.416486409617489 $571 $720 forward 7 unknown #
vertex $-1 $370 $721 #
vertex $-1 $585 $722 #
straight-curve $-1 10.416486409617489 0 -142.81441694387647 0 -1 0 I I #
coedge $-1 $565 $567 $371 $577 reversed $364 $-1 #
edge $-1 $580 -285.62883388775293 $583 285.62883388775293 $576 $723 forward 7 unknown #
coedge $-1 $571 $372 $377 $586 forward $563 $-1 #
coedge $-1 $372 $571 $565 $714 reversed $563 $-1 #
vertex $-1 $373 $724 #
straight-curve $-1 0 285.62883388775293 142.81441694387647 -1 0 0 I I #
coedge $-1 $374 $566 $376 $585 reversed $223 $-1 #
vertex $-1 $577 $725 #
straight-curve $-1 0 -285.62883388775293 142.81441694387647 1 0 0 I I #
edge $-1 $379 -142.81441694387647 $574 142.81441694387647 $376 $726 forward 7 unknown #
edge $-1 $380 -142.81441694387647 $573 142.81441694387647 $377 $727 forward 7 unknown #
point $-1 10.416486409617489 -285.62883388775293 142.81441694387647 #
point $-1 10.416486409617489 285.62883388775293 142.81441694387647 #
coedge $-1 $589 $589 $-1 $728 reversed $382 $-1 #
vertex $-1 $384 $729 #
ellipse-curve $-1 0 0 -0.75 0 0 -1 1.5 0 0 1 I I #
point $-1 1.5 0 -6.2227774895474113 #
face $-1 $-1 $402 $50 $-1 $730 reversed single #
loop $-1 $-1 $609 $387 #
plane-surface $-1 0 285.62883388775293 0 0 -1 0 0 0 -1 forward_v I I I I #
coedge $-1 $731 $607 $610 $732 forward $388 $-1 #
coedge $-1 $613 $390 $391 $601 reversed $236 $-1 #
coedge $-1 $607 $731 $390 $599 reversed $388 $-1 #
edge $-1 $614 -142.81441694387647 $733 142.81441694387647 $598 $734 forward 7 unknown #
coedge $-1 $392 $391 $731 $735 forward $154 $-1 #
edge $-1 $605 -10.416486409617489 $733 10.416486409617489 $597 $736 forward 7 unknown #
coedge $-1 $610 $609 $392 $603 reversed $594 $-1 #
edge $-1 $737 -10.416486409617489 $604 10.416486409617489 $602 $738 forward 7 unknown #
vertex $-1 $394 $739 #
vertex $-1 $616 $740 #
straight-curve $-1 10.416486409617489 0 -142.81441694387647 0 -1 0 I I #
coedge $-1 $596 $598 $395 $608 reversed $388 $-1 #
edge $-1 $611 -285.62883388775293 $614 285.62883388775293 $607 $741 forward 7 unknown #
coedge $-1 $602 $396 $401 $617 forward $594 $-1 #
coedge $-1 $396 $602 $596 $732 reversed $594 $-1 #
vertex $-1 $397 $742 #
straight-curve $-1 0 285.62883388775293 142.81441694387647 -1 0 0 I I #
coedge $-1 $398 $597 $400 $616 reversed $236 $-1 #
vertex $-1 $608 $743 #
straight-curve $-1 0 -285.62883388775293 142.81441694387647 1 0 0 I I #
edge $-1 $403 -142.81441694387647 $605 142.81441694387647 $400 $744 forward 7 unknown #
edge $-1 $404 -142.81441694387647 $604 142.81441694387647 $401 $745 forward 7 unknown #
point $-1 10.416486409617489 -285.62883388775293 142.81441694387647 #
point $-1 10.416486409617489 285.62883388775293 142.81441694387647 #
coedge $-1 $620 $620 $-1 $746 reversed $406 $-1 #
vertex $-1 $408 $747 #
ellipse-curve $-1 0 0 -0.75 0 0 -1 1.5 0 0 1 I I #
point $-1 1.5 0 -6.2227774895474113 #
plane-surface $-1 71.407208471938233 0 0 -1 0 0 0 0 1 forward_v I I I I #
coedge $-1 $416 $414 $418 $629 reversed $249 $-1 #
edge $-1 $429 -9.231820506653472 $631 9.231820506653472 $428 $748 forward 7 unknown #
vertex $-1 $629 $749 #
straight-curve $-1 -71.407208471938233 -30.704642002204075 0 0 0 -1 I I #
edge $-1 $627 -30.704642002204075 $631 30.704642002204075 $625 $750 forward 7 unknown #
straight-curve $-1 0 -30.704642002204075 -9.231820506653472 -1 0 0 I I #
vertex $-1 $421 $751 #
straight-curve $-1 0 30.704642002204075 -9.231820506653472 1 0 0 I I #
point $-1 71.407208471938233 30.704642002204075 -9.231820506653472 #
point $-1 71.407208471938233 -30.704642002204075 -9.231820506653472 #
straight-curve $-1 -71.407208471938233 0 9.231820506653472 0 -1 0 I I #
point $-1 -71.407208471938233 30.704642002204075 9.231820506653472 #
point $-1 -71.407208471938233 -30.704642002204075 9.231820506653472 #
straight-curve $-1 71.407208471938233 -30.704642002204075 0 0 0 -1 I I #
straight-curve $-1 71.407208471938233 30.704642002204075 0 0 0 -1 I I #
plane-surface $-1 3.9636028384141846 0 0 -1 0 0 0 0 1 forward_v I I I I #
coedge $-1 $443 $441 $445 $645 reversed $268 $-1 #
edge $-1 $456 -9.231820506653472 $647 9.231820506653472 $455 $752 forward 7 unknown #
vertex $-1 $645 $753 #
straight-curve $-1 -3.9636028384141846 -1.6308601032369037 0 0 0 -1 I I #
edge $-1 $643 -1.6308601032369037 $647 1.6308601032369037 $641 $754 forward 7 unknown #
straight-curve $-1 0 -1.6308601032369037 -9.231820506653472 -1 0 0 I I #
vertex $-1 $448 $755 #
straight-curve $-1 0 1.6308601032369037 -9.231820506653472 1 0 0 I I #
point $-1 3.9636028384141846 1.6308601032369037 -9.231820506653472 #
point $-1 3.9636028384141846 -1.6308601032369037 -9.231820506653472 #
straight-curve $-1 -3.9636028384141846 0 9.231820506653472 0 -1 0 I I #
point $-1 -3.9636028384141846 1.6308601032369037 9.231820506653472 #
point $-1 -3.9636028384141846 -1.6308601032369037 9.231820506653472 #
straight-curve $-1 3.9636028384141846 -1.6308601032369037 0 0 0 -1 I I #
straight-curve $-1 3.9636028384141846 1.6308601032369037 0 0 0 -1 I I #
plane-surface $-1 4.5992706061474706 0 0 -1 0 0 0 0 1 forward_v I I I I #
coedge $-1 $470 $468 $472 $661 reversed $287 $-1 #
edge $-1 $483 -9.231820506653472 $663 9.231820506653472 $482 $756 forward 7 unknown #
vertex $-1 $661 $757 #
straight-curve $-1 -4.5992706061474706 -1.5 0 0 0 -1 I I #
edge $-1 $659 -1.5 $663 1.5 $657 $758 forward 7 unknown #
straight-curve $-1 0 -1.5 -9.231820506653472 -1 0 0 I I #
vertex $-1 $475 $759 #
straight-curve $-1 0 1.5 -9.231820506653472 1 0 0 I I #
point $-1 4.5992706061474706 1.5 -9.231820506653472 #
point $-1 4.5992706061474706 -1.5 -9.231820506653472 #
straight-curve $-1 -4.5992706061474706 0 9.231820506653472 0 -1 0 I I #
point $-1 -4.5992706061474706 1.5 9.231820506653472 #
point $-1 -4.5992706061474706 -1.5 9.231820506653472 #
straight-curve $-1 4.5992706061474706 -1.5 0 0 0 -1 I I #
straight-curve $-1 4.5992706061474706 1.5 0 0 0 -1 I I #
plane-surface $-1 8.7674627194249659 0 0 -1 0 0 0 0 1 forward_v I I I I #
coedge $-1 $497 $495 $499 $677 reversed $306 $-1 #
edge $-1 $510 -142.81441694387647 $679 142.81441694387647 $509 $760 forward 7 unknown #
vertex $-1 $677 $761 #
straight-curve $-1 -8.7674627194249659 -285.62883388775293 0 0 0 -1 I I #
edge $-1 $675 -285.62883388775293 $679 285.62883388775293 $673 $762 forward 7 unknown #
straight-curve $-1 0 -285.62883388775293 -142.81441694387647 -1 0 0 I I #
vertex $-1 $502 $763 #
straight-curve $-1 0 285.62883388775293 -142.81441694387647 1 0 0 I I #
point $-1 8.7674627194249659 285.62883388775293 -142.81441694387647 #
point $-1 8.7674627194249659 -285.62883388775293 -142.81441694387647 #
straight-curve $-1 -8.7674627194249659 0 142.81441694387647 0 -1 0 I I #
point $-1 -8.7674627194249659 285.62883388775293 142.81441694387647 #
point $-1 -8.7674627194249659 -285.62883388775293 142.81441694387647 #
straight-curve $-1 8.7674627194249659 -285.62883388775293 0 0 0 -1 I I #
straight-curve $-1 8.7674627194249659 285.62883388775293 0 0 0 -1 I I #
edge $-1 $764 1 $764 0 $519 $-1 forward 7 unknown #
point $-1 1.5 0 -0.75 #
edge $-1 $765 1 $765 0 $523 $-1 forward 7 unknown #
point $-1 1.5 0 -0.75 #
plane-surface $-1 8.7674627194249659 0 0 -1 0 0 0 0 1 forward_v I I I I #
coedge $-1 $532 $530 $534 $697 reversed $335 $-1 #
edge $-1 $545 -142.81441694387647 $699 142.81441694387647 $544 $766 forward 7 unknown #
vertex $-1 $697 $767 #
straight-curve $-1 -8.7674627194249659 -285.62883388775293 0 0 0 -1 I I #
edge $-1 $695 -285.62883388775293 $699 285.62883388775293 $693 $768 forward 7 unknown #
straight-curve $-1 0 -285.62883388775293 -142.81441694387647 -1 0 0 I I #
vertex $-1 $537 $769 #
straight-curve $-1 0 285.62883388775293 -142.81441694387647 1 0 0 I I #
point $-1 8.7674627194249659 285.62883388775293 -142.81441694387647 #
point $-1 8.7674627194249659 -285.62883388775293 -142.81441694387647 #
straight-curve $-1 -8.7674627194249659 0 142.81441694387647 0 -1 0 I I #
point $-1 -8.7674627194249659 285.62883388775293 142.81441694387647 #
point $-1 -8.7674627194249659 -285.62883388775293 142.81441694387647 #
straight-curve $-1 8.7674627194249659 -285.62883388775293 0 0 0 -1 I I #
straight-curve $-1 8.7674627194249659 285.62883388775293 0 0 0 -1 I I #
edge $-1 $770 1 $770 0 $554 $-1 forward 7 unknown #
point $-1 1.5 0 -0.75 #
edge $-1 $771 1 $771 0 $558 $-1 forward 7 unknown #
point $-1 1.5 0 -0.75 #
plane-surface $-1 10.416486409617489 0 0 -1 0 0 0 0 1 forward_v I I I I #
coedge $-1 $567 $565 $569 $717 reversed $364 $-1 #
edge $-1 $580 -142.81441694387647 $719 142.81441694387647 $579 $772 forward 7 unknown #
vertex $-1 $717 $773 #
straight-curve $-1 -10.416486409617489 -285.62883388775293 0 0 0 -1 I I #
edge $-1 $715 -285.62883388775293 $719 285.62883388775293 $713 $774 forward 7 unknown #
straight-curve $-1 0 -285.62883388775293 -142.81441694387647 -1 0 0 I I #
vertex $-1 $572 $775 #
straight-curve $-1 0 285.62883388775293 -142.81441694387647 1 0 0 I I #
point $-1 10.416486409617489 285.62883388775293 -142.81441694387647 #
point $-1 10.416486409617489 -285.62883388775293 -142.81441694387647 #
straight-curve $-1 -10.416486409617489 0 142.81441694387647 0 -1 0 I I #
point $-1 -10.416486409617489 285.62883388775293 142.81441694387647 #
point $-1 -10.416486409617489 -285.62883388775293 142.81441694387647 #
straight-curve $-1 10.416486409617489 -285.62883388775293 0 0 0 -1 I I #
straight-curve $-1 10.416486409617489 285.62883388775293 0 0 0 -1 I I #
edge $-1 $776 1 $776 0 $589 $-1 forward 7 unknown #
point $-1 1.5 0 -0.75 #
plane-surface $-1 10.416486409617489 0 0 -1 0 0 0 0 1 forward_v I I I I #
coedge $-1 $598 $596 $600 $735 reversed $388 $-1 #
edge $-1 $611 -142.81441694387647 $737 142.81441694387647 $610 $777 forward 7 unknown #
vertex $-1 $735 $778 #
straight-curve $-1 -10.416486409617489 -285.62883388775293 0 0 0 -1 I I #
edge $-1 $733 -285.62883388775293 $737 285.62883388775293 $731 $779 forward 7 unknown #
straight-curve $-1 0 -285.62883388775293 -142.81441694387647 -1 0 0 I I #
vertex $-1 $603 $780 #
straight-curve $-1 0 285.62883388775293 -142.81441694387647 1 0 0 I I #
point $-1 10.416486409617489 285.62883388775293 -142.81441694387647 #
point $-1 10.416486409617489 -285.62883388775293 -142.81441694387647 #
straight-curve $-1 -10.416486409617489 0 142.81441694387647 0 -1 0 I I #
point $-1 -10.416486409617489 285.62883388775293 142.81441694387647 #
point $-1 -10.416486409617489 -285.62883388775293 142.81441694387647 #
straight-curve $-1 10.416486409617489 -285.62883388775293 0 0 0 -1 I I #
straight-curve $-1 10.416486409617489 285.62883388775293 0 0 0 -1 I I #
edge $-1 $781 1 $781 0 $620 $-1 forward 7 unknown #
point $-1 1.5 0 -0.75 #
straight-curve $-1 -71.407208471938233 30.704642002204075 0 0 0 -1 I I #
point $-1 -71.407208471938233 -30.704642002204075 -9.231820506653472 #
straight-curve $-1 -71.407208471938233 0 -9.231820506653472 0 1 0 I I #
point $-1 -71.407208471938233 30.704642002204075 -9.231820506653472 #
straight-curve $-1 -3.9636028384141846 1.6308601032369037 0 0 0 -1 I I #
point $-1 -3.9636028384141846 -1.6308601032369037 -9.231820506653472 #
straight-curve $-1 -3.9636028384141846 0 -9.231820506653472 0 1 0 I I #
point $-1 -3.9636028384141846 1.6308601032369037 -9.231820506653472 #
straight-curve $-1 -4.5992706061474706 1.5 0 0 0 -1 I I #
point $-1 -4.5992706061474706 -1.5 -9.231820506653472 #
straight-curve $-1 -4.5992706061474706 0 -9.231820506653472 0 1 0 I I #
point $-1 -4.5992706061474706 1.5 -9.231820506653472 #
straight-curve $-1 -8.7674627194249659 285.62883388775293 0 0 0 -1 I I #
point $-1 -8.7674627194249659 -285.62883388775293 -142.81441694387647 #
straight-curve $-1 -8.7674627194249659 0 -142.81441694387647 0 1 0 I I #
point $-1 -8.7674627194249659 285.62883388775293 -142.81441694387647 #
vertex $-1 $688 $782 #
vertex $-1 $690 $783 #
straight-curve $-1 -8.7674627194249659 285.62883388775293 0 0 0 -1 I I #
point $-1 -8.7674627194249659 -285.62883388775293 -142.81441694387647 #
straight-curve $-1 -8.7674627194249659 0 -142.81441694387647 0 1 0 I I #
point $-1 -8.7674627194249659 285.62883388775293 -142.81441694387647 #
vertex $-1 $708 $784 #
vertex $-1 $710 $785 #
straight-curve $-1 -10.416486409617489 285.62883388775293 0 0 0 -1 I I #
point $-1 -10.416486409617489 -285.62883388775293 -142.81441694387647 #
straight-curve $-1 -10.416486409617489 0 -142.81441694387647 0 1 0 I I #
point $-1 -10.416486409617489 285.62883388775293 -142.81441694387647 #
vertex $-1 $728 $786 #
straight-curve $-1 -10.416486409617489 285.62883388775293 0 0 0 -1 I I #
point $-1 -10.416486409617489 -285.62883388775293 -142.81441694387647 #
straight-curve $-1 -10.416486409617489 0 -142.81441694387647 0 1 0 I I #
point $-1 -10.416486409617489 285.62883388775293 -142.81441694387647 #
vertex $-1 $746 $787 #
point $-1 0 0 0.75 #
point $-1 0 0 0.75 #
point $-1 0 0 0.75 #
point $-1 0 0 0.75 #
point $-1 0 0 0.75 #
point $-1 0 0 0.75 #
End-of-ACIS-data 