500 0 11 0           
7 Unknown 11 ACIS 5.0 NT 24 Fri Mar 26 00:59:33 1999 
-1 9.9999999999999995e-007 1e-010 
body $-1 $11 $-1 $12 #
body $-1 $13 $-1 $14 #
body $-1 $15 $-1 $16 #
body $-1 $17 $-1 $18 #
body $-1 $19 $-1 $20 #
body $-1 $21 $-1 $22 #
body $-1 $23 $-1 $24 #
body $-1 $25 $-1 $26 #
body $-1 $27 $-1 $28 #
body $-1 $29 $-1 $30 #
body $-1 $31 $-1 $32 #
lump $-1 $-1 $33 $0 #
transform $-1 1 0 0 0 1 0 0 0 1 50.913418988616598 23.599916510776186 5.7489099883729216 1 rotate no_reflect no_shear #
lump $-1 $-1 $34 $1 #
transform $-1 1 0 0 0 1 0 0 0 1 50.913418988616598 23.599916510776186 5.7489099883729216 1 rotate no_reflect no_shear #
lump $-1 $-1 $35 $2 #
transform $-1 1 0 0 0 1 0 0 0 1 50.913418988616598 23.599916510776186 5.7489099883729216 1 rotate no_reflect no_shear #
lump $-1 $-1 $36 $3 #
transform $-1 1 0 0 0 1 0 0 0 1 50.913418988616598 23.599916510776186 5.7489099883729216 1 rotate no_reflect no_shear #
lump $-1 $-1 $37 $4 #
transform $-1 1 0 0 0 1 0 0 0 1 50.913418988616598 23.599916510776186 5.7489099883729216 1 rotate no_reflect no_shear #
lump $-1 $-1 $38 $5 #
transform $-1 1 0 0 0 1 0 0 0 1 50.913418988616598 23.599916510776186 5.7489099883729216 1 rotate no_reflect no_shear #
lump $-1 $-1 $39 $6 #
transform $-1 1 0 0 0 1 0 0 0 1 50.913418988616598 23.599916510776186 5.7489099883729216 1 rotate no_reflect no_shear #
lump $-1 $-1 $40 $7 #
transform $-1 1 0 0 0 1 0 0 0 1 50.913418988616598 23.599916510776186 5.7489099883729216 1 rotate no_reflect no_shear #
lump $-1 $-1 $41 $8 #
transform $-1 1 0 0 0 1 0 0 0 1 50.913418988616598 23.599916510776186 5.7489099883729216 1 rotate no_reflect no_shear #
lump $-1 $-1 $42 $9 #
transform $-1 1 0 0 0 1 0 0 0 1 50.913418988616598 23.599916510776186 5.7489099883729216 1 rotate no_reflect no_shear #
lump $-1 $-1 $43 $10 #
transform $-1 1 0 0 0 1 0 0 0 1 50.913418988616598 23.599916510776186 5.7489099883729216 1 rotate no_reflect no_shear #
shell $-1 $-1 $-1 $44 $-1 $11 #
shell $-1 $-1 $-1 $45 $-1 $13 #
shell $-1 $-1 $-1 $46 $-1 $15 #
shell $-1 $-1 $-1 $47 $-1 $17 #
shell $-1 $-1 $-1 $48 $-1 $19 #
shell $-1 $-1 $-1 $49 $-1 $21 #
shell $-1 $-1 $-1 $50 $-1 $23 #
shell $-1 $-1 $-1 $51 $-1 $25 #
shell $-1 $-1 $-1 $52 $-1 $27 #
shell $-1 $-1 $-1 $53 $-1 $29 #
shell $-1 $-1 $-1 $54 $-1 $31 #
face $-1 $55 $56 $33 $-1 $57 forward single #
face $-1 $58 $59 $34 $-1 $60 reversed single #
face $-1 $61 $62 $35 $-1 $63 reversed single #
face $-1 $64 $65 $36 $-1 $66 reversed single #
face $-1 $67 $68 $37 $-1 $69 forward single #
face $-1 $70 $71 $38 $-1 $72 forward single #
face $-1 $73 $74 $39 $-1 $75 forward single #
face $-1 $76 $77 $40 $-1 $78 reversed single #
face $-1 $79 $80 $41 $-1 $81 forward single #
face $-1 $82 $83 $42 $-1 $84 forward single #
face $-1 $85 $86 $43 $-1 $87 forward single #
face $-1 $88 $89 $33 $-1 $90 reversed single #
loop $-1 $-1 $91 $44 #
plane-surface $-1 0 0 5.7489099883729216 0 0 1 1 0 0 forward_v I I I I #
face $-1 $92 $93 $34 $-1 $94 reversed single #
loop $-1 $-1 $95 $45 #
plane-surface $-1 -47.434739817060908 -15.272479946362761 0 0 1 0 0 0 1 forward_v I I I I #
face $-1 $96 $97 $35 $-1 $98 reversed single #
loop $-1 $-1 $99 $46 #
plane-surface $-1 47.434739817060915 -15.272479946362761 0 0 1 0 0 0 1 forward_v I I I I #
face $-1 $100 $101 $36 $-1 $102 reversed single #
loop $-1 $-1 $103 $47 #
plane-surface $-1 28.225138047599366 88.184629895318565 93.379270098534747 1 0 0 0 -0.86602541151947299 -0.49999998660252726 forward_v I I I I #
face $-1 $104 $105 $37 $-1 $106 forward single #
loop $-1 $107 $108 $48 #
cone-surface $-1 31.371322567180528 21.645534372905846 3.2341094822963763 0 -0.86602541151947299 -0.49999998660252726 0.5 0 0 1 I I 0 1 0.5 forward I I I I #
face $-1 $109 $110 $38 $-1 $111 forward single #
loop $-1 $112 $113 $49 #
cone-surface $-1 36.090599346552281 21.645534372905846 3.2341094822963763 0 -0.86602541151947299 -0.49999998660252726 0.5 0 0 1 I I 0 1 0.5 forward I I I I #
face $-1 $114 $115 $39 $-1 $116 forward single #
loop $-1 $117 $118 $50 #
cone-surface $-1 40.809876125924035 21.645534372905846 3.2341094822963763 0 -0.86602541151947299 -0.49999998660252726 0.5 0 0 1 I I 0 1 0.5 forward I I I I #
face $-1 $119 $120 $40 $-1 $121 reversed single #
loop $-1 $-1 $122 $51 #
plane-surface $-1 43.956060645505225 -111.78454577373627 52.503015282394436 -1 0 0 0 -0.86602541151947299 0.49999998660252726 forward_v I I I I #
face $-1 $123 $124 $41 $-1 $125 forward single #
loop $-1 $126 $127 $52 #
cone-surface $-1 31.371322567180528 -21.64553437290585 3.234109482296371 0 0.86602541151947299 -0.49999998660252726 0.5 0 0 1 I I 0 1 0.5 forward I I I I #
face $-1 $128 $129 $42 $-1 $130 forward single #
loop $-1 $131 $132 $53 #
cone-surface $-1 36.090599346552281 -21.64553437290585 3.234109482296371 0 0.86602541151947299 -0.49999998660252726 0.5 0 0 1 I I 0 1 0.5 forward I I I I #
face $-1 $133 $134 $43 $-1 $135 forward single #
loop $-1 $136 $137 $54 #
cone-surface $-1 40.809876125924035 -21.64553437290585 3.234109482296371 0 0.86602541151947299 -0.49999998660252726 0.5 0 0 1 I I 0 1 0.5 forward I I I I #
face $-1 $138 $139 $33 $-1 $140 reversed single #
loop $-1 $-1 $141 $55 #
plane-surface $-1 0 0 -5.7489099883729216 0 0 1 1 0 0 forward_v I I I I #
coedge $-1 $142 $143 $144 $145 forward $56 $-1 #
face $-1 $146 $147 $34 $-1 $148 reversed single #
loop $-1 $-1 $149 $58 #
plane-surface $-1 -47.434739817060908 -12.102096534030341 0 0 -1 0 0 0 -1 forward_v I I I I #
coedge $-1 $150 $151 $152 $153 reversed $59 $-1 #
face $-1 $154 $155 $35 $-1 $156 reversed single #
loop $-1 $-1 $157 $61 #
plane-surface $-1 43.956060645505225 -13.687288240196551 0 1 0 0 0 0 -1 forward_v I I I I #
coedge $-1 $158 $159 $160 $161 forward $62 $-1 #
face $-1 $162 $163 $36 $-1 $164 reversed single #
loop $-1 $-1 $165 $64 #
plane-surface $-1 36.090599346552295 6.323584784695413e-007 42.465852474140434 0 0.86602541151947299 0.49999998660252726 1 0 0 forward_v I I I I #
coedge $-1 $166 $167 $168 $169 reversed $65 $-1 #
face $-1 $-1 $170 $37 $-1 $171 forward single #
loop $-1 $172 $173 $67 #
cone-surface $-1 31.371322567180528 20.675335886051311 2.6739651447555923 0 -0.86602541151947299 -0.49999998660252726 0.25 0 0 1 I I -0.70710678118654746 0.70710678118654746 0.25 forward I I I I #
loop $-1 $-1 $174 $48 #
coedge $-1 $108 $108 $175 $176 reversed $68 $-1 #
face $-1 $-1 $177 $38 $-1 $178 forward single #
loop $-1 $179 $180 $70 #
cone-surface $-1 36.090599346552281 20.675335886051311 2.6739651447555923 0 -0.86602541151947299 -0.49999998660252726 0.25 0 0 1 I I -0.70710678118654746 0.70710678118654746 0.25 forward I I I I #
loop $-1 $-1 $181 $49 #
coedge $-1 $113 $113 $182 $183 reversed $71 $-1 #
face $-1 $-1 $184 $39 $-1 $185 forward single #
loop $-1 $186 $187 $73 #
cone-surface $-1 40.809876125924035 20.675335886051311 2.6739651447555923 0 -0.86602541151947299 -0.49999998660252726 0.25 0 0 1 I I -0.70710678118654746 0.70710678118654746 0.25 forward I I I I #
loop $-1 $-1 $188 $50 #
coedge $-1 $118 $118 $189 $190 reversed $74 $-1 #
face $-1 $191 $192 $40 $-1 $193 reversed single #
loop $-1 $-1 $194 $76 #
plane-surface $-1 36.090599346552295 -23.599916510776183 1.5895976580001232 0 -0.86602541151947299 0.49999998660252726 1 0 0 forward_v I I I I #
coedge $-1 $195 $196 $197 $198 reversed $77 $-1 #
face $-1 $-1 $199 $41 $-1 $200 forward single #
loop $-1 $201 $202 $79 #
cone-surface $-1 31.371322567180528 -20.675335886051315 2.673965144755587 0 0.86602541151947299 -0.49999998660252726 0.25 0 0 1 I I -0.70710678118654746 0.70710678118654746 0.25 forward I I I I #
loop $-1 $-1 $203 $52 #
coedge $-1 $127 $127 $204 $205 reversed $80 $-1 #
face $-1 $-1 $206 $42 $-1 $207 forward single #
loop $-1 $208 $209 $82 #
cone-surface $-1 36.090599346552281 -20.675335886051315 2.673965144755587 0 0.86602541151947299 -0.49999998660252726 0.25 0 0 1 I I -0.70710678118654746 0.70710678118654746 0.25 forward I I I I #
loop $-1 $-1 $210 $53 #
coedge $-1 $132 $132 $211 $212 reversed $83 $-1 #
face $-1 $-1 $213 $43 $-1 $214 forward single #
loop $-1 $215 $216 $85 #
cone-surface $-1 40.809876125924035 -20.675335886051315 2.673965144755587 0 0.86602541151947299 -0.49999998660252726 0.25 0 0 1 I I -0.70710678118654746 0.70710678118654746 0.25 forward I I I I #
loop $-1 $-1 $217 $54 #
coedge $-1 $137 $137 $218 $219 reversed $86 $-1 #
face $-1 $220 $221 $33 $-1 $222 reversed single #
loop $-1 $-1 $223 $88 #
plane-surface $-1 0 -23.599916510776186 0 0 1 0 0 0 1 forward_v I I I I #
coedge $-1 $224 $225 $226 $227 forward $89 $-1 #
coedge $-1 $228 $91 $229 $230 forward $56 $-1 #
coedge $-1 $91 $228 $231 $232 forward $56 $-1 #
coedge $-1 $233 $234 $91 $145 reversed $235 $-1 #
edge $-1 $236 -23.599916510776186 $237 23.599916510776186 $144 $238 forward 7 unknown #
face $-1 $239 $240 $34 $-1 $241 reversed single #
loop $-1 $-1 $242 $92 #
plane-surface $-1 -43.956060645505218 -13.687288240196551 0 -1 0 0 0 0 1 forward_v I I I I #
coedge $-1 $243 $244 $245 $246 forward $93 $-1 #
coedge $-1 $247 $95 $248 $249 reversed $59 $-1 #
coedge $-1 $95 $247 $250 $251 reversed $59 $-1 #
coedge $-1 $252 $253 $95 $153 forward $254 $-1 #
edge $-1 $255 -5.7489099883729216 $256 5.7489099883729216 $152 $257 forward 7 unknown #
face $-1 $258 $259 $35 $-1 $260 reversed single #
loop $-1 $-1 $261 $96 #
plane-surface $-1 47.434739817060915 -12.102096534030341 0 0 -1 0 0 0 -1 forward_v I I I I #
coedge $-1 $262 $263 $264 $265 forward $97 $-1 #
coedge $-1 $266 $99 $267 $268 reversed $62 $-1 #
coedge $-1 $99 $266 $269 $270 reversed $62 $-1 #
coedge $-1 $263 $262 $99 $161 reversed $97 $-1 #
edge $-1 $271 -5.7489099883729216 $272 5.7489099883729216 $160 $273 forward 7 unknown #
face $-1 $274 $275 $36 $-1 $276 reversed single #
loop $-1 $-1 $277 $100 #
plane-surface $-1 43.956060645505225 88.184629895318565 93.379270098534747 -1 0 0 0 0.86602541151947299 0.49999998660252726 forward_v I I I I #
coedge $-1 $278 $279 $280 $281 reversed $101 $-1 #
coedge $-1 $167 $103 $282 $283 reversed $65 $-1 #
coedge $-1 $103 $166 $278 $284 reversed $65 $-1 #
coedge $-1 $280 $285 $103 $169 forward $286 $-1 #
edge $-1 $287 20.492398436883096 $288 22.893778444674425 $168 $289 forward 7 unknown #
loop $-1 $-1 $175 $104 #
plane-surface $-1 36.090599346552295 6.323584784695413e-007 42.465852474140434 0 0.86602541151947299 0.49999998660252726 1 0 0 forward_v I I I I #
loop $-1 $-1 $290 $67 #
coedge $-1 $173 $173 $174 $291 reversed $105 $-1 #
coedge $-1 $174 $174 $173 $291 forward $107 $-1 #
coedge $-1 $175 $175 $108 $176 forward $170 $-1 #
edge $-1 $292 -1.7211315972468495e-015 $292 6.2831853071795987 $175 $293 forward 7 unknown #
loop $-1 $-1 $182 $109 #
plane-surface $-1 36.090599346552295 6.323584784695413e-007 42.465852474140434 0 0.86602541151947299 0.49999998660252726 1 0 0 forward_v I I I I #
loop $-1 $-1 $294 $70 #
coedge $-1 $180 $180 $181 $295 reversed $110 $-1 #
coedge $-1 $181 $181 $180 $295 forward $112 $-1 #
coedge $-1 $182 $182 $113 $183 forward $177 $-1 #
edge $-1 $296 -1.7211315972468495e-015 $296 6.2831853071795987 $182 $297 forward 7 unknown #
loop $-1 $-1 $189 $114 #
plane-surface $-1 36.090599346552295 6.323584784695413e-007 42.465852474140434 0 0.86602541151947299 0.49999998660252726 1 0 0 forward_v I I I I #
loop $-1 $-1 $298 $73 #
coedge $-1 $187 $187 $188 $299 reversed $115 $-1 #
coedge $-1 $188 $188 $187 $299 forward $117 $-1 #
coedge $-1 $189 $189 $118 $190 forward $184 $-1 #
edge $-1 $300 -1.7211315972468495e-015 $300 6.2831853071795987 $189 $301 forward 7 unknown #
face $-1 $302 $303 $40 $-1 $304 forward single #
loop $-1 $-1 $305 $119 #
plane-surface $-1 28.225138047599366 -111.78454577373627 52.503015282394436 1 0 0 0 0.86602541151947299 -0.49999998660252726 forward_v I I I I #
coedge $-1 $306 $307 $308 $309 reversed $120 $-1 #
coedge $-1 $196 $122 $310 $311 reversed $77 $-1 #
coedge $-1 $122 $195 $306 $312 reversed $77 $-1 #
coedge $-1 $308 $313 $122 $198 forward $303 $-1 #
edge $-1 $314 32.292356376091945 $315 34.693736383883291 $197 $316 forward 7 unknown #
loop $-1 $-1 $204 $123 #
plane-surface $-1 36.090599346552295 -23.599916510776183 1.5895976580001232 0 -0.86602541151947299 0.49999998660252726 1 0 0 forward_v I I I I #
loop $-1 $-1 $317 $79 #
coedge $-1 $202 $202 $203 $318 reversed $124 $-1 #
coedge $-1 $203 $203 $202 $318 forward $126 $-1 #
coedge $-1 $204 $204 $127 $205 forward $199 $-1 #
edge $-1 $319 3.0767403256940646e-015 $319 6.2831853071796031 $204 $320 forward 7 unknown #
loop $-1 $-1 $211 $128 #
plane-surface $-1 36.090599346552295 -23.599916510776183 1.5895976580001232 0 -0.86602541151947299 0.49999998660252726 1 0 0 forward_v I I I I #
loop $-1 $-1 $321 $82 #
coedge $-1 $209 $209 $210 $322 reversed $129 $-1 #
coedge $-1 $210 $210 $209 $322 forward $131 $-1 #
coedge $-1 $211 $211 $132 $212 forward $206 $-1 #
edge $-1 $323 3.0767403256940646e-015 $323 6.2831853071796031 $211 $324 forward 7 unknown #
loop $-1 $-1 $218 $133 #
plane-surface $-1 36.090599346552295 -23.599916510776183 1.5895976580001232 0 -0.86602541151947299 0.49999998660252726 1 0 0 forward_v I I I I #
loop $-1 $-1 $325 $85 #
coedge $-1 $216 $216 $217 $326 reversed $134 $-1 #
coedge $-1 $217 $217 $216 $326 forward $136 $-1 #
coedge $-1 $218 $218 $137 $219 forward $213 $-1 #
edge $-1 $327 3.0767403256940646e-015 $327 6.2831853071796031 $218 $328 forward 7 unknown #
face $-1 $329 $330 $33 $-1 $331 reversed single #
loop $-1 $-1 $332 $138 #
plane-surface $-1 -50.913418988616598 0 0 1 0 0 0 0 -1 forward_v I I I I #
coedge $-1 $333 $231 $334 $335 forward $139 $-1 #
coedge $-1 $336 $141 $333 $337 forward $89 $-1 #
coedge $-1 $141 $336 $338 $339 forward $89 $-1 #
coedge $-1 $234 $233 $141 $227 reversed $235 $-1 #
edge $-1 $340 -23.599916510776186 $341 23.599916510776186 $226 $342 forward 7 unknown #
coedge $-1 $143 $142 $343 $344 forward $56 $-1 #
coedge $-1 $345 $346 $142 $230 reversed $330 $-1 #
edge $-1 $237 -50.913418988616598 $347 50.913418988616598 $229 $348 forward 7 unknown #
coedge $-1 $223 $349 $143 $232 reversed $139 $-1 #
edge $-1 $350 -50.913418988616598 $236 50.913418988616598 $231 $351 forward 7 unknown #
coedge $-1 $226 $144 $349 $352 forward $235 $-1 #
coedge $-1 $144 $226 $345 $353 reversed $235 $-1 #
loop $-1 $-1 $233 $329 #
vertex $-1 $145 $354 #
vertex $-1 $145 $355 #
straight-curve $-1 50.913418988616598 0 5.7489099883729216 0 1 0 I I #
face $-1 $356 $357 $34 $-1 $358 forward single #
loop $-1 $-1 $359 $146 #
plane-surface $-1 0 0 -5.7489099883729216 0 0 1 1 0 0 forward_v I I I I #
coedge $-1 $360 $361 $247 $362 forward $147 $-1 #
coedge $-1 $363 $149 $359 $364 reversed $93 $-1 #
coedge $-1 $149 $363 $365 $366 reversed $93 $-1 #
coedge $-1 $361 $360 $149 $246 reversed $147 $-1 #
edge $-1 $367 -5.7489099883729216 $368 5.7489099883729216 $245 $369 forward 7 unknown #
coedge $-1 $151 $150 $242 $362 reversed $59 $-1 #
coedge $-1 $370 $371 $150 $249 forward $240 $-1 #
edge $-1 $372 20.238690736974764 $255 27.196049080086144 $248 $373 forward 7 unknown #
coedge $-1 $374 $375 $151 $251 forward $357 $-1 #
edge $-1 $256 -27.196049080086144 $376 -20.238690736974764 $250 $377 forward 7 unknown #
coedge $-1 $378 $152 $375 $379 reversed $254 $-1 #
coedge $-1 $152 $378 $370 $380 reversed $254 $-1 #
loop $-1 $-1 $378 $356 #
vertex $-1 $380 $381 #
vertex $-1 $153 $382 #
straight-curve $-1 -50.913418988616598 -15.272479946362761 0 0 0 1 I I #
face $-1 $383 $384 $35 $-1 $385 forward single #
loop $-1 $-1 $267 $154 #
plane-surface $-1 0 0 -5.7489099883729216 0 0 1 1 0 0 forward_v I I I I #
coedge $-1 $386 $387 $388 $389 reversed $155 $-1 #
coedge $-1 $160 $157 $390 $391 reversed $97 $-1 #
coedge $-1 $157 $160 $392 $393 reversed $97 $-1 #
coedge $-1 $387 $386 $157 $265 reversed $155 $-1 #
edge $-1 $394 -5.7489099883729216 $395 5.7489099883729216 $264 $396 forward 7 unknown #
coedge $-1 $159 $158 $397 $398 reversed $62 $-1 #
coedge $-1 $390 $399 $158 $268 forward $259 $-1 #
edge $-1 $400 -27.196049080086148 $272 -20.238690736974768 $267 $401 forward 7 unknown #
coedge $-1 $402 $392 $159 $270 forward $384 $-1 #
edge $-1 $271 20.238690736974768 $403 27.196049080086148 $269 $404 forward 7 unknown #
vertex $-1 $270 $405 #
vertex $-1 $268 $406 #
straight-curve $-1 43.956060645505225 -15.272479946362761 0 0 0 -1 I I #
face $-1 $-1 $286 $36 $-1 $407 forward single #
loop $-1 $-1 $408 $162 #
plane-surface $-1 0 23.599916510776186 0 0 -1 0 0 0 -1 forward_v I I I I #
coedge $-1 $409 $410 $411 $412 reversed $163 $-1 #
coedge $-1 $413 $165 $167 $284 forward $101 $-1 #
coedge $-1 $165 $413 $409 $414 forward $101 $-1 #
coedge $-1 $411 $168 $165 $281 forward $286 $-1 #
edge $-1 $288 10.179838374323218 $415 25.910760972229077 $280 $416 forward 7 unknown #
coedge $-1 $417 $418 $166 $283 forward $275 $-1 #
edge $-1 $419 -45.100037391267236 $287 -40.940725060894451 $282 $420 forward 7 unknown #
edge $-1 $288 42.39707287728001 $419 47.199833021552365 $167 $421 forward 7 unknown #
coedge $-1 $168 $411 $417 $422 forward $286 $-1 #
loop $-1 $-1 $411 $274 #
vertex $-1 $283 $423 #
vertex $-1 $169 $424 #
straight-curve $-1 28.225138047599366 44.092314947659283 5.7489099883729224 0 -1 0 I I #
coedge $-1 $290 $290 $-1 $425 reversed $172 $-1 #
edge $-1 $426 0 $426 6.2831853071796004 $173 $427 forward 7 unknown #
vertex $-1 $176 $428 #
ellipse-curve $-1 31.371322567180528 22.39922650688052 3.6692538231865321 0 0.86602541151947299 0.49999998660252726 0.5 0 0 1 I I #
coedge $-1 $294 $294 $-1 $429 reversed $179 $-1 #
edge $-1 $430 0 $430 6.2831853071796004 $180 $431 forward 7 unknown #
vertex $-1 $183 $432 #
ellipse-curve $-1 36.090599346552281 22.39922650688052 3.6692538231865321 0 0.86602541151947299 0.49999998660252726 0.5 0 0 1 I I #
coedge $-1 $298 $298 $-1 $433 reversed $186 $-1 #
edge $-1 $434 0 $434 6.2831853071796004 $187 $435 forward 7 unknown #
vertex $-1 $190 $436 #
ellipse-curve $-1 40.809876125924035 22.39922650688052 3.6692538231865321 0 0.86602541151947299 0.49999998660252726 0.5 0 0 1 I I #
face $-1 $-1 $437 $40 $-1 $438 reversed single #
loop $-1 $-1 $197 $191 #
plane-surface $-1 0 0 5.7489099883729216 0 0 1 1 0 0 forward_v I I I I #
coedge $-1 $439 $440 $441 $442 reversed $192 $-1 #
coedge $-1 $443 $194 $196 $312 forward $120 $-1 #
coedge $-1 $194 $443 $439 $444 forward $120 $-1 #
coedge $-1 $441 $197 $194 $309 forward $303 $-1 #
edge $-1 $315 -25.910760972229077 $445 -10.179838374323218 $308 $446 forward 7 unknown #
coedge $-1 $447 $448 $195 $311 forward $437 $-1 #
edge $-1 $449 -24.661909983197102 $314 -20.502597652824296 $310 $450 forward 7 unknown #
edge $-1 $315 -4.8027601442723657 $449 7.160652361767478e-015 $196 $451 forward 7 unknown #
coedge $-1 $197 $441 $447 $452 forward $303 $-1 #
vertex $-1 $198 $453 #
vertex $-1 $198 $454 #
straight-curve $-1 43.956060645505225 -55.892272886868135 5.7489099883729224 0 1 0 I I #
coedge $-1 $317 $317 $-1 $455 reversed $201 $-1 #
edge $-1 $456 0 $456 6.2831853071796004 $202 $457 forward 7 unknown #
vertex $-1 $205 $458 #
ellipse-curve $-1 31.371322567180528 -22.399226506880517 3.6692538231865219 0 -0.86602541151947299 0.49999998660252726 0.5 0 0 1 I I #
coedge $-1 $321 $321 $-1 $459 reversed $208 $-1 #
edge $-1 $460 0 $460 6.2831853071796004 $209 $461 forward 7 unknown #
vertex $-1 $212 $462 #
ellipse-curve $-1 36.090599346552281 -22.399226506880517 3.6692538231865219 0 -0.86602541151947299 0.49999998660252726 0.5 0 0 1 I I #
coedge $-1 $325 $325 $-1 $463 reversed $215 $-1 #
edge $-1 $464 0 $464 6.2831853071796004 $216 $465 forward 7 unknown #
vertex $-1 $219 $466 #
ellipse-curve $-1 40.809876125924035 -22.399226506880517 3.6692538231865219 0 -0.86602541151947299 0.49999998660252726 0.5 0 0 1 I I #
face $-1 $-1 $235 $33 $-1 $467 reversed single #
loop $-1 $-1 $345 $220 #
plane-surface $-1 0 23.599916510776186 0 0 -1 0 0 0 -1 forward_v I I I I #
coedge $-1 $468 $343 $346 $469 forward $221 $-1 #
coedge $-1 $349 $223 $224 $337 reversed $139 $-1 #
coedge $-1 $343 $468 $223 $335 reversed $221 $-1 #
edge $-1 $350 -5.7489099883729216 $470 5.7489099883729216 $334 $471 forward 7 unknown #
coedge $-1 $225 $224 $468 $472 forward $89 $-1 #
edge $-1 $341 -50.913418988616598 $470 50.913418988616598 $333 $473 forward 7 unknown #
coedge $-1 $346 $345 $225 $339 reversed $330 $-1 #
edge $-1 $474 -50.913418988616598 $340 50.913418988616598 $338 $475 forward 7 unknown #
vertex $-1 $227 $476 #
vertex $-1 $352 $477 #
straight-curve $-1 50.913418988616598 0 -5.7489099883729216 0 -1 0 I I #
coedge $-1 $332 $334 $228 $344 reversed $221 $-1 #
edge $-1 $347 -23.599916510776186 $350 23.599916510776186 $343 $478 forward 7 unknown #
coedge $-1 $338 $229 $234 $353 forward $330 $-1 #
coedge $-1 $229 $338 $332 $469 reversed $330 $-1 #
vertex $-1 $230 $479 #
straight-curve $-1 0 23.599916510776186 5.7489099883729216 -1 0 0 I I #
coedge $-1 $231 $333 $233 $352 reversed $139 $-1 #
vertex $-1 $344 $480 #
straight-curve $-1 0 -23.599916510776186 5.7489099883729216 1 0 0 I I #
edge $-1 $236 -5.7489099883729216 $341 5.7489099883729216 $233 $481 forward 7 unknown #
edge $-1 $237 -5.7489099883729216 $340 5.7489099883729216 $234 $482 forward 7 unknown #
point $-1 50.913418988616598 -23.599916510776186 5.7489099883729216 #
point $-1 50.913418988616598 23.599916510776186 5.7489099883729216 #
face $-1 $-1 $254 $34 $-1 $483 reversed single #
loop $-1 $-1 $365 $239 #
plane-surface $-1 0 0 5.7489099883729216 0 0 1 1 0 0 forward_v I I I I #
coedge $-1 $371 $370 $243 $364 forward $240 $-1 #
coedge $-1 $245 $242 $371 $484 reversed $147 $-1 #
coedge $-1 $242 $245 $374 $485 reversed $147 $-1 #
edge $-1 $376 -5.7489099883729216 $372 5.7489099883729216 $242 $486 forward 7 unknown #
coedge $-1 $244 $243 $378 $487 reversed $93 $-1 #
edge $-1 $488 -27.196049080086144 $368 -20.238690736974764 $359 $489 forward 7 unknown #
coedge $-1 $375 $374 $244 $366 forward $357 $-1 #
edge $-1 $367 20.238690736974764 $490 27.196049080086144 $365 $491 forward 7 unknown #
vertex $-1 $366 $492 #
vertex $-1 $364 $493 #
straight-curve $-1 -43.956060645505218 -12.102096534030341 0 0 0 -1 I I #
coedge $-1 $359 $248 $253 $380 forward $240 $-1 #
coedge $-1 $248 $359 $360 $484 forward $240 $-1 #
vertex $-1 $249 $494 #
straight-curve $-1 -23.717369908530454 -15.272479946362761 -5.7489099883729216 -1 0 0 I I #
coedge $-1 $365 $250 $361 $485 forward $357 $-1 #
coedge $-1 $250 $365 $252 $379 forward $357 $-1 #
vertex $-1 $251 $495 #
straight-curve $-1 -23.717369908530454 -15.272479946362761 5.7489099883729216 1 0 0 I I #
coedge $-1 $253 $252 $363 $487 forward $254 $-1 #
edge $-1 $490 12.102096534030341 $256 15.272479946362761 $252 $496 forward 7 unknown #
edge $-1 $255 -15.272479946362761 $488 -12.102096534030341 $253 $497 forward 7 unknown #
point $-1 -50.913418988616598 -15.272479946362761 -5.7489099883729216 #
point $-1 -50.913418988616598 -15.272479946362761 5.7489099883729216 #
face $-1 $-1 $498 $35 $-1 $499 reversed single #
loop $-1 $-1 $269 $258 #
plane-surface $-1 0 0 5.7489099883729216 0 0 1 1 0 0 forward_v I I I I #
coedge $-1 $264 $261 $500 $501 reversed $155 $-1 #
coedge $-1 $261 $264 $502 $503 reversed $155 $-1 #
coedge $-1 $504 $505 $261 $389 forward $498 $-1 #
edge $-1 $506 -5.7489099883729216 $507 5.7489099883729216 $388 $508 forward 7 unknown #
coedge $-1 $500 $267 $262 $391 forward $259 $-1 #
edge $-1 $272 -8.4288358262644856 $395 -5.2584524139320656 $390 $509 forward 7 unknown #
coedge $-1 $269 $502 $263 $393 forward $384 $-1 #
edge $-1 $394 5.2584524139320656 $271 8.4288358262644856 $392 $510 forward 7 unknown #
vertex $-1 $393 $511 #
vertex $-1 $391 $512 #
straight-curve $-1 43.956060645505225 -12.102096534030341 0 0 0 -1 I I #
coedge $-1 $505 $504 $266 $398 forward $498 $-1 #
edge $-1 $403 -5.7489099883729216 $400 5.7489099883729216 $397 $513 forward 7 unknown #
coedge $-1 $267 $500 $505 $514 forward $259 $-1 #
vertex $-1 $398 $515 #
straight-curve $-1 23.717369908530458 -15.272479946362761 -5.7489099883729216 -1 0 0 I I #
coedge $-1 $502 $269 $504 $516 forward $384 $-1 #
vertex $-1 $516 $517 #
straight-curve $-1 23.717369908530458 -15.272479946362761 5.7489099883729216 1 0 0 I I #
point $-1 43.956060645505225 -15.272479946362761 5.7489099883729216 #
point $-1 43.956060645505225 -15.272479946362761 -5.7489099883729216 #
plane-surface $-1 0 0 5.7489099883729216 0 0 1 1 0 0 forward_v I I I I #
coedge $-1 $418 $417 $410 $518 forward $275 $-1 #
coedge $-1 $410 $277 $279 $414 reversed $163 $-1 #
coedge $-1 $277 $409 $408 $518 reversed $163 $-1 #
coedge $-1 $285 $280 $277 $412 forward $286 $-1 #
edge $-1 $415 -22.893778444674425 $519 -20.492398436883096 $411 $520 forward 7 unknown #
coedge $-1 $279 $278 $418 $521 reversed $101 $-1 #
edge $-1 $522 -47.199833021552365 $415 -42.39707287728001 $409 $523 forward 7 unknown #
vertex $-1 $281 $524 #
straight-curve $-1 18.045299673276148 21.198536502984858 5.7489099883729189 1 0 0 I I #
coedge $-1 $408 $282 $285 $422 reversed $275 $-1 #
coedge $-1 $282 $408 $413 $521 forward $275 $-1 #
vertex $-1 $283 $525 #
straight-curve $-1 28.225138047599366 23.59991651077619 46.689635049267373 0 0 1 I I #
straight-curve $-1 28.225138047599366 6.323584784695413e-007 42.465852474140434 0 0.49999998660252726 -0.86602541151947299 I I #
edge $-1 $519 -43.956060645505225 $287 -28.225138047599366 $417 $526 forward 7 unknown #
point $-1 28.225138047599366 23.599916510776186 5.7489099883729216 #
point $-1 28.225138047599366 21.198536502984858 5.7489099883729224 #
edge $-1 $527 1 $527 0 $290 $-1 forward 7 unknown #
vertex $-1 $291 $528 #
ellipse-curve $-1 31.371322567180528 20.891842238931179 2.798965141406224 0 0.86602541151947299 0.49999998660252726 0.5 0 0 1 I I #
point $-1 31.871322567180528 22.399226506880513 3.669253823186529 #
edge $-1 $529 1 $529 0 $294 $-1 forward 7 unknown #
vertex $-1 $295 $530 #
ellipse-curve $-1 36.090599346552281 20.891842238931179 2.798965141406224 0 0.86602541151947299 0.49999998660252726 0.5 0 0 1 I I #
point $-1 36.590599346552281 22.399226506880513 3.669253823186529 #
edge $-1 $531 1 $531 0 $298 $-1 forward 7 unknown #
vertex $-1 $299 $532 #
ellipse-curve $-1 40.809876125924035 20.891842238931179 2.798965141406224 0 0.86602541151947299 0.49999998660252726 0.5 0 0 1 I I #
point $-1 41.309876125924035 22.399226506880513 3.669253823186529 #
loop $-1 $-1 $310 $302 #
plane-surface $-1 0 -23.599916510776186 0 0 1 0 0 0 1 forward_v I I I I #
coedge $-1 $440 $305 $307 $444 reversed $192 $-1 #
coedge $-1 $305 $439 $533 $534 reversed $192 $-1 #
coedge $-1 $313 $308 $305 $442 forward $303 $-1 #
edge $-1 $445 -34.693736383883291 $535 -32.292356376091945 $441 $536 forward 7 unknown #
coedge $-1 $307 $306 $448 $537 reversed $120 $-1 #
edge $-1 $538 -7.160652361767478e-015 $445 4.8027601442723657 $439 $539 forward 7 unknown #
vertex $-1 $309 $540 #
straight-curve $-1 18.045299673276148 -21.198536502984847 5.7489099883729216 -1 0 0 I I #
coedge $-1 $533 $310 $313 $452 reversed $437 $-1 #
coedge $-1 $310 $533 $443 $537 forward $437 $-1 #
vertex $-1 $311 $541 #
straight-curve $-1 43.956060645505225 -23.599916510776183 26.251507641197218 0 0 1 I I #
straight-curve $-1 43.956060645505225 -23.599916510776183 1.5895976580001232 0 -0.49999998660252726 -0.86602541151947299 I I #
edge $-1 $535 28.225138047599366 $314 43.956060645505225 $447 $542 forward 7 unknown #
point $-1 43.956060645505225 -23.599916510776186 5.7489099883729216 #
point $-1 43.956060645505225 -21.198536502984847 5.7489099883729216 #
edge $-1 $543 1 $543 0 $317 $-1 forward 7 unknown #
vertex $-1 $318 $544 #
ellipse-curve $-1 31.371322567180528 -20.891842238931183 2.7989651414062187 0 -0.86602541151947299 0.49999998660252726 0.5 0 0 1 I I #
point $-1 31.871322567180528 -22.399226506880517 3.6692538231865237 #
edge $-1 $545 1 $545 0 $321 $-1 forward 7 unknown #
vertex $-1 $322 $546 #
ellipse-curve $-1 36.090599346552281 -20.891842238931183 2.7989651414062187 0 -0.86602541151947299 0.49999998660252726 0.5 0 0 1 I I #
point $-1 36.590599346552281 -22.399226506880517 3.6692538231865237 #
edge $-1 $547 1 $547 0 $325 $-1 forward 7 unknown #
vertex $-1 $326 $548 #
ellipse-curve $-1 40.809876125924035 -20.891842238931183 2.7989651414062187 0 -0.86602541151947299 0.49999998660252726 0.5 0 0 1 I I #
point $-1 41.309876125924035 -22.399226506880517 3.6692538231865237 #
plane-surface $-1 50.913418988616598 0 0 -1 0 0 0 0 1 forward_v I I I I #
coedge $-1 $334 $332 $336 $472 reversed $221 $-1 #
edge $-1 $347 -5.7489099883729216 $474 5.7489099883729216 $346 $549 forward 7 unknown #
vertex $-1 $472 $550 #
straight-curve $-1 -50.913418988616598 -23.599916510776186 0 0 0 -1 I I #
edge $-1 $470 -23.599916510776186 $474 23.599916510776186 $468 $551 forward 7 unknown #
straight-curve $-1 0 -23.599916510776186 -5.7489099883729216 -1 0 0 I I #
vertex $-1 $339 $552 #
straight-curve $-1 0 23.599916510776186 -5.7489099883729216 1 0 0 I I #
point $-1 50.913418988616598 23.599916510776186 -5.7489099883729216 #
point $-1 50.913418988616598 -23.599916510776186 -5.7489099883729216 #
straight-curve $-1 -50.913418988616598 0 5.7489099883729216 0 -1 0 I I #
point $-1 -50.913418988616598 23.599916510776186 5.7489099883729216 #
point $-1 -50.913418988616598 -23.599916510776186 5.7489099883729216 #
straight-curve $-1 50.913418988616598 -23.599916510776186 0 0 0 -1 I I #
straight-curve $-1 50.913418988616598 23.599916510776186 0 0 0 -1 I I #
plane-surface $-1 -50.913418988616598 0 0 1 0 0 0 0 -1 forward_v I I I I #
edge $-1 $368 5.2584524139320656 $372 8.4288358262644856 $371 $553 forward 7 unknown #
edge $-1 $376 -8.4288358262644856 $367 -5.2584524139320656 $374 $554 forward 7 unknown #
straight-curve $-1 -43.956060645505218 -15.272479946362761 0 0 0 -1 I I #
edge $-1 $490 -5.7489099883729216 $488 5.7489099883729216 $378 $555 forward 7 unknown #
vertex $-1 $487 $556 #
straight-curve $-1 -23.717369908530454 -12.102096534030341 -5.7489099883729216 1 0 0 I I #
vertex $-1 $379 $557 #
straight-curve $-1 -23.717369908530454 -12.102096534030341 5.7489099883729216 -1 0 0 I I #
point $-1 -43.956060645505218 -12.102096534030341 5.7489099883729216 #
point $-1 -43.956060645505218 -12.102096534030341 -5.7489099883729216 #
point $-1 -43.956060645505218 -15.272479946362761 -5.7489099883729216 #
point $-1 -43.956060645505218 -15.272479946362761 5.7489099883729216 #
straight-curve $-1 -50.913418988616598 0 5.7489099883729216 0 -1 0 I I #
straight-curve $-1 -50.913418988616598 0 -5.7489099883729216 0 1 0 I I #
loop $-1 $-1 $397 $383 #
plane-surface $-1 50.913418988616598 0 0 -1 0 0 0 0 1 forward_v I I I I #
coedge $-1 $399 $390 $386 $501 forward $259 $-1 #
edge $-1 $395 20.238690736974768 $506 27.196049080086148 $500 $558 forward 7 unknown #
coedge $-1 $392 $402 $387 $503 forward $384 $-1 #
edge $-1 $507 -27.196049080086148 $394 -20.238690736974768 $502 $559 forward 7 unknown #
coedge $-1 $397 $388 $402 $516 reversed $498 $-1 #
coedge $-1 $388 $397 $399 $514 reversed $498 $-1 #
vertex $-1 $514 $560 #
vertex $-1 $389 $561 #
straight-curve $-1 50.913418988616598 -12.102096534030341 0 0 0 1 I I #
straight-curve $-1 43.956060645505225 -6.8436441200982756 -5.7489099883729216 0 1 0 I I #
straight-curve $-1 43.956060645505225 -6.8436441200982756 5.7489099883729216 0 -1 0 I I #
point $-1 43.956060645505225 -12.102096534030341 5.7489099883729216 #
point $-1 43.956060645505225 -12.102096534030341 -5.7489099883729216 #
straight-curve $-1 50.913418988616598 -15.272479946362761 0 0 0 -1 I I #
edge $-1 $506 12.102096534030341 $400 15.272479946362761 $505 $562 forward 7 unknown #
point $-1 50.913418988616606 -15.272479946362761 -5.7489099883729216 #
edge $-1 $403 -15.272479946362761 $507 -12.102096534030341 $504 $563 forward 7 unknown #
point $-1 50.913418988616606 -15.272479946362761 5.7489099883729216 #
edge $-1 $519 40.940725060894451 $522 45.100037391267236 $408 $564 forward 7 unknown #
vertex $-1 $422 $565 #
straight-curve $-1 43.956060645505225 44.092314947659283 5.7489099883729224 0 1 0 I I #
edge $-1 $522 -25.910760972229077 $419 -10.179838374323218 $418 $566 forward 7 unknown #
vertex $-1 $521 $567 #
straight-curve $-1 43.956060645505225 6.323584784695413e-007 42.465852474140434 0 -0.49999998660252726 0.86602541151947299 I I #
point $-1 43.956060645505225 21.198536502984858 5.7489099883729224 #
point $-1 28.225138047599366 23.599916510776186 1.5895976580001374 #
straight-curve $-1 0 23.599916510776186 5.7489099883729216 -1 0 0 I I #
vertex $-1 $425 $568 #
point $-1 31.871322567180528 20.891842238931179 2.798965141406224 #
vertex $-1 $429 $569 #
point $-1 36.590599346552281 20.891842238931179 2.798965141406224 #
vertex $-1 $433 $570 #
point $-1 41.309876125924035 20.891842238931179 2.798965141406224 #
coedge $-1 $448 $447 $440 $534 forward $437 $-1 #
edge $-1 $535 20.502597652824296 $538 24.661909983197102 $533 $571 forward 7 unknown #
vertex $-1 $452 $572 #
straight-curve $-1 28.225138047599366 -55.892272886868135 5.7489099883729224 0 -1 0 I I #
edge $-1 $538 10.179838374323218 $449 25.910760972229077 $448 $573 forward 7 unknown #
vertex $-1 $537 $574 #
straight-curve $-1 28.225138047599366 -23.599916510776183 1.5895976580001232 0 0.49999998660252726 0.86602541151947299 I I #
point $-1 28.225138047599366 -21.198536502984847 5.7489099883729216 #
point $-1 43.956060645505225 -23.599916510776186 1.589597658000117 #
straight-curve $-1 0 -23.599916510776186 5.7489099883729216 1 0 0 I I #
vertex $-1 $455 $575 #
point $-1 31.871322567180528 -20.891842238931183 2.7989651414062187 #
vertex $-1 $459 $576 #
point $-1 36.590599346552281 -20.891842238931183 2.7989651414062187 #
vertex $-1 $463 $577 #
point $-1 41.309876125924035 -20.891842238931183 2.7989651414062187 #
straight-curve $-1 -50.913418988616598 23.599916510776186 0 0 0 -1 I I #
point $-1 -50.913418988616598 -23.599916510776186 -5.7489099883729216 #
straight-curve $-1 -50.913418988616598 0 -5.7489099883729216 0 1 0 I I #
point $-1 -50.913418988616598 23.599916510776186 -5.7489099883729216 #
straight-curve $-1 -43.956060645505218 -6.8436441200982756 -5.7489099883729216 0 -1 0 I I #
straight-curve $-1 -43.956060645505218 -6.8436441200982756 5.7489099883729216 0 1 0 I I #
straight-curve $-1 -50.913418988616598 -12.102096534030341 0 0 0 -1 I I #
point $-1 -50.913418988616598 -12.102096534030341 -5.7489099883729216 #
point $-1 -50.913418988616598 -12.102096534030341 5.7489099883729216 #
straight-curve $-1 23.717369908530458 -12.102096534030341 -5.7489099883729216 1 0 0 I I #
straight-curve $-1 23.717369908530458 -12.102096534030341 5.7489099883729216 -1 0 0 I I #
point $-1 50.913418988616606 -12.102096534030341 -5.7489099883729216 #
point $-1 50.913418988616606 -12.102096534030341 5.7489099883729216 #
straight-curve $-1 50.913418988616598 0 -5.7489099883729216 0 -1 0 I I #
straight-curve $-1 50.913418988616598 0 5.7489099883729216 0 1 0 I I #
straight-curve $-1 43.956060645505225 23.59991651077619 46.689635049267373 0 0 -1 I I #
point $-1 43.956060645505225 23.599916510776186 5.7489099883729216 #
straight-curve $-1 18.045299673276148 23.599916510776186 1.5895976580001339 -1 0 0 I I #
point $-1 43.956060645505225 23.599916510776186 1.5895976580001374 #
point $-1 31.371322567180528 20.458829533171443 2.5489651481049607 #
point $-1 36.090599346552281 20.458829533171443 2.5489651481049607 #
point $-1 40.809876125924035 20.458829533171443 2.5489651481049607 #
straight-curve $-1 28.225138047599366 -23.599916510776183 26.251507641197218 0 0 -1 I I #
point $-1 28.225138047599366 -23.599916510776186 5.7489099883729216 #
straight-curve $-1 18.045299673276148 -23.599916510776186 1.5895976580001154 1 0 0 I I #
point $-1 28.225138047599366 -23.599916510776186 1.589597658000117 #
point $-1 31.371322567180528 -20.458829533171446 2.5489651481049553 #
point $-1 36.090599346552281 -20.458829533171446 2.5489651481049553 #
point $-1 40.809876125924035 -20.458829533171446 2.5489651481049553 #
End-of-ACIS-data 