500 0 15 0           
7 Unknown 11 ACIS 5.0 NT 24 Thu Mar 25 23:26:39 1999 
-1 9.9999999999999995e-007 1e-010 
body $-1 $15 $-1 $16 #
body $-1 $17 $-1 $18 #
body $-1 $19 $-1 $20 #
body $-1 $21 $-1 $22 #
body $-1 $23 $-1 $24 #
body $-1 $25 $-1 $26 #
body $-1 $27 $-1 $28 #
body $-1 $29 $-1 $30 #
body $-1 $31 $-1 $32 #
body $-1 $33 $-1 $34 #
body $-1 $35 $-1 $36 #
body $-1 $37 $-1 $38 #
body $-1 $39 $-1 $40 #
body $-1 $41 $-1 $42 #
body $-1 $43 $-1 $44 #
lump $-1 $-1 $45 $0 #
transform $-1 1 0 0 0 1 0 0 0 1 45.881527146214182 23.973997585411894 11.497085502408032 1 rotate no_reflect no_shear #
lump $-1 $-1 $46 $1 #
transform $-1 1 0 0 0 1 0 0 0 1 45.881527146214182 23.973997585411894 11.497085502408032 1 rotate no_reflect no_shear #
lump $-1 $-1 $47 $2 #
transform $-1 1 0 0 0 1 0 0 0 1 45.881527146214182 23.973997585411894 11.497085502408032 1 rotate no_reflect no_shear #
lump $-1 $-1 $48 $3 #
transform $-1 1 0 0 0 1 0 0 0 1 45.881527146214182 23.973997585411894 11.497085502408032 1 rotate no_reflect no_shear #
lump $-1 $-1 $49 $4 #
transform $-1 1 0 0 0 1 0 0 0 1 45.881527146214182 23.973997585411894 11.497085502408032 1 rotate no_reflect no_shear #
lump $-1 $-1 $50 $5 #
transform $-1 1 0 0 0 1 0 0 0 1 45.881527146214182 23.973997585411894 11.497085502408032 1 rotate no_reflect no_shear #
lump $-1 $-1 $51 $6 #
transform $-1 1 0 0 0 1 0 0 0 1 45.881527146214182 23.973997585411894 11.497085502408032 1 rotate no_reflect no_shear #
lump $-1 $-1 $52 $7 #
transform $-1 1 0 0 0 1 0 0 0 1 45.881527146214182 23.973997585411894 11.497085502408032 1 rotate no_reflect no_shear #
lump $-1 $-1 $53 $8 #
transform $-1 1 0 0 0 1 0 0 0 1 45.881527146214182 23.973997585411894 11.497085502408032 1 rotate no_reflect no_shear #
lump $-1 $-1 $54 $9 #
transform $-1 1 0 0 0 1 0 0 0 1 45.881527146214182 23.973997585411894 11.497085502408032 1 rotate no_reflect no_shear #
lump $-1 $-1 $55 $10 #
transform $-1 1 0 0 0 1 0 0 0 1 45.881527146214182 23.973997585411894 11.497085502408032 1 rotate no_reflect no_shear #
lump $-1 $-1 $56 $11 #
transform $-1 1 0 0 0 1 0 0 0 1 45.881527146214182 23.973997585411894 11.497085502408032 1 rotate no_reflect no_shear #
lump $-1 $-1 $57 $12 #
transform $-1 1 0 0 0 1 0 0 0 1 45.881527146214182 23.973997585411894 11.497085502408032 1 rotate no_reflect no_shear #
lump $-1 $-1 $58 $13 #
transform $-1 1 0 0 0 1 0 0 0 1 45.881527146214182 23.973997585411894 11.497085502408032 1 rotate no_reflect no_shear #
lump $-1 $-1 $59 $14 #
transform $-1 1 0 0 0 1 0 0 0 1 45.881527146214182 23.973997585411894 11.497085502408032 1 rotate no_reflect no_shear #
shell $-1 $-1 $-1 $60 $-1 $15 #
shell $-1 $-1 $-1 $61 $-1 $17 #
shell $-1 $-1 $-1 $62 $-1 $19 #
shell $-1 $-1 $-1 $63 $-1 $21 #
shell $-1 $-1 $-1 $64 $-1 $23 #
shell $-1 $-1 $-1 $65 $-1 $25 #
shell $-1 $-1 $-1 $66 $-1 $27 #
shell $-1 $-1 $-1 $67 $-1 $29 #
shell $-1 $-1 $-1 $68 $-1 $31 #
shell $-1 $-1 $-1 $69 $-1 $33 #
shell $-1 $-1 $-1 $70 $-1 $35 #
shell $-1 $-1 $-1 $71 $-1 $37 #
shell $-1 $-1 $-1 $72 $-1 $39 #
shell $-1 $-1 $-1 $73 $-1 $41 #
shell $-1 $-1 $-1 $74 $-1 $43 #
face $-1 $75 $76 $45 $-1 $77 forward single #
face $-1 $78 $79 $46 $-1 $80 forward single #
face $-1 $81 $82 $47 $-1 $83 forward single #
face $-1 $84 $85 $48 $-1 $86 reversed single #
face $-1 $87 $88 $49 $-1 $89 forward single #
face $-1 $90 $91 $50 $-1 $92 forward single #
face $-1 $93 $94 $51 $-1 $95 reversed single #
face $-1 $96 $97 $52 $-1 $98 forward single #
face $-1 $99 $100 $53 $-1 $101 forward single #
face $-1 $102 $103 $54 $-1 $104 reversed single #
face $-1 $105 $106 $55 $-1 $107 forward single #
face $-1 $108 $109 $56 $-1 $110 forward single #
face $-1 $111 $112 $57 $-1 $113 reversed single #
face $-1 $114 $115 $58 $-1 $116 forward single #
face $-1 $117 $118 $59 $-1 $119 forward single #
face $-1 $120 $121 $45 $-1 $122 reversed single #
loop $-1 $-1 $123 $60 #
plane-surface $-1 0 0 11.497085502408032 0 0 1 1 0 0 forward_v I I I I #
face $-1 $124 $125 $46 $-1 $126 forward single #
loop $-1 $-1 $127 $61 #
plane-surface $-1 0 -23.973997585411894 0 0 1 0 0 0 1 forward_v I I I I #
face $-1 $128 $129 $47 $-1 $130 reversed single #
loop $-1 $-1 $131 $62 #
plane-surface $-1 0 23.973997585411894 0 0 -1 0 0 0 -1 forward_v I I I I #
face $-1 $132 $133 $48 $-1 $134 reversed single #
loop $-1 $-1 $135 $63 #
plane-surface $-1 23.346760455411186 -4.0820076711303326 133.88774050613216 0 -1 0 -0.57357644374324357 0 -0.81915203911291934 forward_v I I I I #
face $-1 $136 $137 $49 $-1 $138 forward single #
loop $-1 $139 $140 $64 #
cone-surface $-1 41.72024921745799 -7.4389995928189414 8.3664902351566628 -0.57357644374324357 0 -0.81915203911291934 0.40957601955645967 0 -0.28678822187162178 1 I I 0 1 0.5 forward I I I I #
face $-1 $141 $142 $50 $-1 $143 forward single #
loop $-1 $144 $145 $65 #
cone-surface $-1 41.72024921745799 -5.4248044398057758 8.3664902351566628 -0.57357644374324357 0 -0.81915203911291934 0.40957601955645967 0 -0.28678822187162178 1 I I 0 1 0.5 forward I I I I #
face $-1 $146 $147 $51 $-1 $148 reversed single #
loop $-1 $-1 $149 $66 #
plane-surface $-1 23.346760455411186 4.0820076711303361 133.88774050613216 0 -1 0 -0.57357644374324357 0 -0.81915203911291934 forward_v I I I I #
face $-1 $150 $151 $52 $-1 $152 forward single #
loop $-1 $153 $154 $67 #
cone-surface $-1 41.72024921745799 0.72501574944172731 8.3664902351566628 -0.57357644374324357 0 -0.81915203911291934 0.40957601955645967 0 -0.28678822187162178 1 I I 0 1 0.5 forward I I I I #
face $-1 $155 $156 $53 $-1 $157 forward single #
loop $-1 $158 $159 $68 #
cone-surface $-1 41.72024921745799 2.739210902454893 8.3664902351566628 -0.57357644374324357 0 -0.81915203911291934 0.40957601955645967 0 -0.28678822187162178 1 I I 0 1 0.5 forward I I I I #
face $-1 $160 $161 $54 $-1 $162 reversed single #
loop $-1 $-1 $163 $69 #
plane-surface $-1 23.346760455411186 12.246023013391005 133.88774050613216 0 -1 0 -0.57357644374324357 0 -0.81915203911291934 forward_v I I I I #
face $-1 $164 $165 $55 $-1 $166 forward single #
loop $-1 $167 $168 $70 #
cone-surface $-1 41.72024921745799 8.8890310917023925 8.3664902351566628 -0.57357644374324357 0 -0.81915203911291934 0.40957601955645967 0 -0.28678822187162178 1 I I 0 1 0.5 forward I I I I #
face $-1 $169 $170 $56 $-1 $171 forward single #
loop $-1 $172 $173 $71 #
cone-surface $-1 41.72024921745799 10.903226244715562 8.3664902351566628 -0.57357644374324357 0 -0.81915203911291934 0.40957601955645967 0 -0.28678822187162178 1 I I 0 1 0.5 forward I I I I #
face $-1 $174 $175 $57 $-1 $176 reversed single #
loop $-1 $-1 $177 $72 #
plane-surface $-1 -119.16676156919891 -4.2499422177547075 60.262939851391529 0 1 0 -0.79863551827123203 0 0.60181501223851219 forward_v I I I I #
face $-1 $178 $179 $58 $-1 $180 forward single #
loop $-1 $181 $182 $73 #
cone-surface $-1 -42.998922599427722 -2.2941695425551885 7.9293400882076304 0.79863551827123203 0 -0.60181501223851219 0.3009075061192561 0 0.39931775913561601 1 I I 0 1 0.5 forward I I I I #
face $-1 $183 $184 $59 $-1 $185 forward single #
loop $-1 $186 $187 $74 #
cone-surface $-1 -42.998922599427722 0.63948947024408653 7.9293400882076304 0.79863551827123203 0 -0.60181501223851219 0.3009075061192561 0 0.39931775913561601 1 I I 0 1 0.5 forward I I I I #
face $-1 $188 $189 $45 $-1 $190 reversed single #
loop $-1 $-1 $191 $75 #
plane-surface $-1 0 0 -11.497085502408032 0 0 1 1 0 0 forward_v I I I I #
coedge $-1 $192 $193 $194 $195 forward $76 $-1 #
face $-1 $196 $197 $46 $-1 $198 reversed single #
loop $-1 $-1 $199 $78 #
plane-surface $-1 0 0 11.497085502408032 0 0 1 1 0 0 forward_v I I I I #
coedge $-1 $200 $201 $202 $203 forward $79 $-1 #
face $-1 $204 $205 $47 $-1 $206 reversed single #
loop $-1 $-1 $207 $81 #
plane-surface $-1 45.881527146214182 0 0 -1 0 0 0 0 1 forward_v I I I I #
coedge $-1 $208 $209 $210 $211 forward $82 $-1 #
face $-1 $212 $213 $48 $-1 $214 reversed single #
loop $-1 $-1 $215 $84 #
plane-surface $-1 -29.286365892658054 -6.4319020163123568 58.719847467259939 0.57357644374324357 0 0.81915203911291934 0.81915203911291934 0 -0.57357644374324357 forward_v I I I I #
coedge $-1 $216 $217 $218 $219 reversed $85 $-1 #
face $-1 $-1 $220 $49 $-1 $221 forward single #
loop $-1 $222 $223 $87 #
cone-surface $-1 41.278977658382928 -7.4389995928189414 7.7362891497357271 -0.57357644374324357 0 -0.81915203911291934 0.20478800977822983 0 -0.14339411093581089 1 I I -0.70710678118654746 0.70710678118654746 0.25 forward I I I I #
loop $-1 $-1 $224 $64 #
coedge $-1 $140 $140 $225 $226 reversed $88 $-1 #
face $-1 $-1 $227 $50 $-1 $228 forward single #
loop $-1 $229 $230 $90 #
cone-surface $-1 41.278977658382928 -5.4248044398057758 7.7362891497357271 -0.57357644374324357 0 -0.81915203911291934 0.20478800977822983 0 -0.14339411093581089 1 I I -0.70710678118654746 0.70710678118654746 0.25 forward I I I I #
loop $-1 $-1 $231 $65 #
coedge $-1 $145 $145 $232 $233 reversed $91 $-1 #
face $-1 $234 $235 $51 $-1 $236 reversed single #
loop $-1 $-1 $237 $93 #
plane-surface $-1 -29.286365892658054 1.7321133259483119 58.719847467259939 0.57357644374324357 0 0.81915203911291934 0.81915203911291934 0 -0.57357644374324357 forward_v I I I I #
coedge $-1 $238 $239 $240 $241 reversed $94 $-1 #
face $-1 $-1 $242 $52 $-1 $243 forward single #
loop $-1 $244 $245 $96 #
cone-surface $-1 41.278977658382928 0.72501574944172731 7.7362891497357271 -0.57357644374324357 0 -0.81915203911291934 0.20478800977822983 0 -0.14339411093581089 1 I I -0.70710678118654746 0.70710678118654746 0.25 forward I I I I #
loop $-1 $-1 $246 $67 #
coedge $-1 $154 $154 $247 $248 reversed $97 $-1 #
face $-1 $-1 $249 $53 $-1 $250 forward single #
loop $-1 $251 $252 $99 #
cone-surface $-1 41.278977658382928 2.739210902454893 7.7362891497357271 -0.57357644374324357 0 -0.81915203911291934 0.20478800977822983 0 -0.14339411093581089 1 I I -0.70710678118654746 0.70710678118654746 0.25 forward I I I I #
loop $-1 $-1 $253 $68 #
coedge $-1 $159 $159 $254 $255 reversed $100 $-1 #
face $-1 $256 $257 $54 $-1 $258 reversed single #
loop $-1 $-1 $259 $102 #
plane-surface $-1 -29.286365892658054 9.8961286682089806 58.719847467259939 0.57357644374324357 0 0.81915203911291934 0.81915203911291934 0 -0.57357644374324357 forward_v I I I I #
coedge $-1 $260 $261 $262 $263 reversed $103 $-1 #
face $-1 $-1 $264 $55 $-1 $265 forward single #
loop $-1 $266 $267 $105 #
cone-surface $-1 41.278977658382928 8.8890310917023925 7.7362891497357271 -0.57357644374324357 0 -0.81915203911291934 0.20478800977822983 0 -0.14339411093581089 1 I I -0.70710678118654746 0.70710678118654746 0.25 forward I I I I #
loop $-1 $-1 $268 $70 #
coedge $-1 $168 $168 $269 $270 reversed $106 $-1 #
face $-1 $-1 $271 $56 $-1 $272 forward single #
loop $-1 $273 $274 $108 #
cone-surface $-1 41.278977658382928 10.903226244715562 7.7362891497357271 -0.57357644374324357 0 -0.81915203911291934 0.20478800977822983 0 -0.14339411093581089 1 I I -0.70710678118654746 0.70710678118654746 0.25 forward I I I I #
loop $-1 $-1 $275 $71 #
coedge $-1 $173 $173 $276 $277 reversed $109 $-1 #
face $-1 $278 $279 $57 $-1 $280 reversed single #
loop $-1 $-1 $281 $111 #
plane-surface $-1 -45.881527146214182 -0.82734003615555096 5.0385562093504959 -0.79863551827123203 0 0.60181501223851219 0.60181501223851219 0 0.79863551827123203 forward_v I I I I #
coedge $-1 $282 $283 $284 $285 reversed $112 $-1 #
face $-1 $-1 $286 $58 $-1 $287 forward single #
loop $-1 $288 $289 $114 #
cone-surface $-1 -42.350084557132163 -2.2941695425551885 7.4404055674763629 0.79863551827123203 0 -0.60181501223851219 0.15045375305962805 0 0.19965887956780801 1 I I -0.70710678118654746 0.70710678118654746 0.25 forward I I I I #
loop $-1 $-1 $290 $73 #
coedge $-1 $182 $182 $291 $292 reversed $115 $-1 #
face $-1 $-1 $293 $59 $-1 $294 forward single #
loop $-1 $295 $296 $117 #
cone-surface $-1 -42.350084557132163 0.63948947024408653 7.4404055674763629 0.79863551827123203 0 -0.60181501223851219 0.15045375305962805 0 0.19965887956780801 1 I I -0.70710678118654746 0.70710678118654746 0.25 forward I I I I #
loop $-1 $-1 $297 $74 #
coedge $-1 $187 $187 $298 $299 reversed $118 $-1 #
face $-1 $300 $301 $45 $-1 $302 reversed single #
loop $-1 $-1 $303 $120 #
plane-surface $-1 0 -23.973997585411894 0 0 1 0 0 0 1 forward_v I I I I #
coedge $-1 $304 $305 $306 $307 forward $121 $-1 #
coedge $-1 $308 $123 $309 $310 forward $76 $-1 #
coedge $-1 $123 $308 $311 $312 forward $76 $-1 #
coedge $-1 $313 $314 $123 $195 reversed $315 $-1 #
edge $-1 $316 -23.973997585411894 $317 23.973997585411894 $194 $318 forward 7 unknown #
face $-1 $319 $320 $46 $-1 $321 reversed single #
loop $-1 $-1 $322 $124 #
plane-surface $-1 -45.881527146214182 0 0 1 0 0 0 0 -1 forward_v I I I I #
coedge $-1 $323 $324 $325 $326 forward $125 $-1 #
coedge $-1 $325 $127 $322 $327 reversed $79 $-1 #
coedge $-1 $127 $325 $328 $329 reversed $79 $-1 #
coedge $-1 $330 $331 $127 $203 reversed $320 $-1 #
edge $-1 $332 -45.881527146214182 $333 45.881527146214182 $202 $334 forward 7 unknown #
face $-1 $335 $336 $47 $-1 $337 reversed single #
loop $-1 $-1 $338 $128 #
plane-surface $-1 0 29.837984871422336 4.7582713069629783 0 0 1 1 0 0 forward_v I I I I #
coedge $-1 $339 $340 $208 $341 forward $129 $-1 #
coedge $-1 $342 $131 $207 $341 reversed $82 $-1 #
coedge $-1 $131 $342 $343 $344 reversed $82 $-1 #
coedge $-1 $345 $338 $131 $211 reversed $205 $-1 #
edge $-1 $346 -45.881527146214182 $347 45.881527146214182 $210 $348 forward 7 unknown #
face $-1 $349 $350 $48 $-1 $351 forward single #
loop $-1 $-1 $352 $132 #
plane-surface $-1 23.346760455411186 -8.781796361494381 133.88774050613216 0 1 0 0.57357644374324357 0 0.81915203911291934 forward_v I I I I #
coedge $-1 $353 $354 $355 $356 reversed $133 $-1 #
coedge $-1 $217 $135 $357 $358 reversed $85 $-1 #
coedge $-1 $135 $216 $353 $359 reversed $85 $-1 #
coedge $-1 $355 $360 $135 $219 forward $350 $-1 #
edge $-1 $361 -34.208146918508589 $362 -26.481345957274712 $218 $363 forward 7 unknown #
loop $-1 $-1 $225 $136 #
plane-surface $-1 -29.286365892658054 -6.4319020163123568 58.719847467259939 0.57357644374324357 0 0.81915203911291934 0.81915203911291934 0 -0.57357644374324357 forward_v I I I I #
loop $-1 $-1 $364 $87 #
coedge $-1 $223 $223 $224 $365 reversed $137 $-1 #
coedge $-1 $224 $224 $223 $365 forward $139 $-1 #
coedge $-1 $225 $225 $140 $226 forward $220 $-1 #
edge $-1 $366 0 $366 6.2831853071796004 $225 $367 forward 7 unknown #
loop $-1 $-1 $232 $141 #
plane-surface $-1 -29.286365892658054 -6.4319020163123568 58.719847467259939 0.57357644374324357 0 0.81915203911291934 0.81915203911291934 0 -0.57357644374324357 forward_v I I I I #
loop $-1 $-1 $368 $90 #
coedge $-1 $230 $230 $231 $369 reversed $142 $-1 #
coedge $-1 $231 $231 $230 $369 forward $144 $-1 #
coedge $-1 $232 $232 $145 $233 forward $227 $-1 #
edge $-1 $370 0 $370 6.2831853071796004 $232 $371 forward 7 unknown #
face $-1 $372 $373 $51 $-1 $374 reversed single #
loop $-1 $-1 $375 $146 #
plane-surface $-1 23.346760455411186 -0.61778101923371231 133.88774050613216 0 1 0 0.57357644374324357 0 0.81915203911291934 forward_v I I I I #
coedge $-1 $376 $377 $378 $379 reversed $147 $-1 #
coedge $-1 $239 $149 $380 $381 reversed $94 $-1 #
coedge $-1 $149 $238 $376 $382 reversed $94 $-1 #
coedge $-1 $378 $383 $149 $241 forward $384 $-1 #
edge $-1 $385 -34.208146918508589 $386 -26.481345957274712 $240 $387 forward 7 unknown #
loop $-1 $-1 $247 $150 #
plane-surface $-1 -29.286365892658054 1.7321133259483119 58.719847467259939 0.57357644374324357 0 0.81915203911291934 0.81915203911291934 0 -0.57357644374324357 forward_v I I I I #
loop $-1 $-1 $388 $96 #
coedge $-1 $245 $245 $246 $389 reversed $151 $-1 #
coedge $-1 $246 $246 $245 $389 forward $153 $-1 #
coedge $-1 $247 $247 $154 $248 forward $242 $-1 #
edge $-1 $390 0 $390 6.2831853071796004 $247 $391 forward 7 unknown #
loop $-1 $-1 $254 $155 #
plane-surface $-1 -29.286365892658054 1.7321133259483119 58.719847467259939 0.57357644374324357 0 0.81915203911291934 0.81915203911291934 0 -0.57357644374324357 forward_v I I I I #
loop $-1 $-1 $392 $99 #
coedge $-1 $252 $252 $253 $393 reversed $156 $-1 #
coedge $-1 $253 $253 $252 $393 forward $158 $-1 #
coedge $-1 $254 $254 $159 $255 forward $249 $-1 #
edge $-1 $394 0 $394 6.2831853071796004 $254 $395 forward 7 unknown #
face $-1 $396 $397 $54 $-1 $398 reversed single #
loop $-1 $-1 $399 $160 #
plane-surface $-1 23.346760455411186 7.5462343230269564 133.88774050613216 0 1 0 0.57357644374324357 0 0.81915203911291934 forward_v I I I I #
coedge $-1 $400 $401 $402 $403 reversed $161 $-1 #
coedge $-1 $261 $163 $404 $405 reversed $103 $-1 #
coedge $-1 $163 $260 $400 $406 reversed $103 $-1 #
coedge $-1 $402 $407 $163 $263 forward $408 $-1 #
edge $-1 $409 -34.208146918508589 $410 -26.481345957274712 $262 $411 forward 7 unknown #
loop $-1 $-1 $269 $164 #
plane-surface $-1 -29.286365892658054 9.8961286682089806 58.719847467259939 0.57357644374324357 0 0.81915203911291934 0.81915203911291934 0 -0.57357644374324357 forward_v I I I I #
loop $-1 $-1 $412 $105 #
coedge $-1 $267 $267 $268 $413 reversed $165 $-1 #
coedge $-1 $268 $268 $267 $413 forward $167 $-1 #
coedge $-1 $269 $269 $168 $270 forward $264 $-1 #
edge $-1 $414 0 $414 6.2831853071796004 $269 $415 forward 7 unknown #
loop $-1 $-1 $276 $169 #
plane-surface $-1 -29.286365892658054 9.8961286682089806 58.719847467259939 0.57357644374324357 0 0.81915203911291934 0.81915203911291934 0 -0.57357644374324357 forward_v I I I I #
loop $-1 $-1 $416 $108 #
coedge $-1 $274 $274 $275 $417 reversed $170 $-1 #
coedge $-1 $275 $275 $274 $417 forward $172 $-1 #
coedge $-1 $276 $276 $173 $277 forward $271 $-1 #
edge $-1 $418 0 $418 6.2831853071796004 $276 $419 forward 7 unknown #
face $-1 $420 $421 $57 $-1 $422 reversed single #
loop $-1 $-1 $423 $174 #
plane-surface $-1 -119.16676156919891 2.5952621454436056 60.262939851391529 0 -1 0 0.79863551827123203 0 -0.60181501223851219 forward_v I I I I #
coedge $-1 $424 $425 $426 $427 reversed $175 $-1 #
coedge $-1 $283 $177 $428 $429 reversed $112 $-1 #
coedge $-1 $177 $282 $424 $430 reversed $112 $-1 #
coedge $-1 $426 $431 $177 $285 forward $432 $-1 #
edge $-1 $433 13.701853638385273 $434 18.568704406502704 $284 $435 forward 7 unknown #
loop $-1 $-1 $291 $178 #
plane-surface $-1 -45.881527146214182 -0.82734003615555096 5.0385562093504959 -0.79863551827123203 0 0.60181501223851219 0.60181501223851219 0 0.79863551827123203 forward_v I I I I #
loop $-1 $-1 $436 $114 #
coedge $-1 $289 $289 $290 $437 reversed $179 $-1 #
coedge $-1 $290 $290 $289 $437 forward $181 $-1 #
coedge $-1 $291 $291 $182 $292 forward $286 $-1 #
edge $-1 $438 0 $438 6.2831853071796004 $291 $439 forward 7 unknown #
loop $-1 $-1 $298 $183 #
plane-surface $-1 -45.881527146214182 -0.82734003615555096 5.0385562093504959 -0.79863551827123203 0 0.60181501223851219 0.60181501223851219 0 0.79863551827123203 forward_v I I I I #
loop $-1 $-1 $440 $117 #
coedge $-1 $296 $296 $297 $441 reversed $184 $-1 #
coedge $-1 $297 $297 $296 $441 forward $186 $-1 #
coedge $-1 $298 $298 $187 $299 forward $293 $-1 #
edge $-1 $442 0 $442 6.2831853071796004 $298 $443 forward 7 unknown #
face $-1 $444 $445 $45 $-1 $446 reversed single #
loop $-1 $-1 $447 $188 #
plane-surface $-1 -45.881527146214182 0 0 1 0 0 0 0 -1 forward_v I I I I #
coedge $-1 $448 $311 $449 $450 forward $189 $-1 #
coedge $-1 $451 $191 $448 $452 forward $121 $-1 #
coedge $-1 $191 $451 $453 $454 forward $121 $-1 #
coedge $-1 $314 $313 $191 $307 reversed $315 $-1 #
edge $-1 $455 -23.973997585411894 $456 23.973997585411894 $306 $457 forward 7 unknown #
coedge $-1 $193 $192 $458 $459 forward $76 $-1 #
coedge $-1 $460 $461 $192 $310 reversed $445 $-1 #
edge $-1 $317 -45.881527146214182 $462 45.881527146214182 $309 $463 forward 7 unknown #
coedge $-1 $303 $464 $193 $312 reversed $189 $-1 #
edge $-1 $465 -45.881527146214182 $316 45.881527146214182 $311 $466 forward 7 unknown #
coedge $-1 $306 $194 $464 $467 forward $315 $-1 #
coedge $-1 $194 $306 $460 $468 reversed $315 $-1 #
loop $-1 $-1 $313 $444 #
vertex $-1 $195 $469 #
vertex $-1 $195 $470 #
straight-curve $-1 45.881527146214182 0 11.497085502408032 0 1 0 I I #
face $-1 $471 $472 $46 $-1 $473 reversed single #
loop $-1 $-1 $330 $196 #
plane-surface $-1 0 -29.837984871422339 4.7582713069629783 0 0 1 1 0 0 forward_v I I I I #
coedge $-1 $474 $475 $200 $327 forward $197 $-1 #
coedge $-1 $476 $199 $475 $477 forward $125 $-1 #
coedge $-1 $199 $476 $478 $479 forward $125 $-1 #
coedge $-1 $201 $200 $199 $326 reversed $79 $-1 #
edge $-1 $480 -45.881527146214182 $481 45.881527146214182 $199 $482 forward 7 unknown #
edge $-1 $481 -11.497085502408032 $333 -4.7582713069629783 $322 $483 forward 7 unknown #
coedge $-1 $478 $484 $201 $329 forward $485 $-1 #
edge $-1 $332 4.7582713069629783 $480 11.497085502408032 $328 $486 forward 7 unknown #
coedge $-1 $487 $202 $484 $488 forward $320 $-1 #
coedge $-1 $202 $487 $474 $489 forward $320 $-1 #
vertex $-1 $329 $490 #
vertex $-1 $327 $491 #
straight-curve $-1 0 -23.973997585411894 4.7582713069629783 -1 0 0 I I #
face $-1 $492 $493 $47 $-1 $494 forward single #
loop $-1 $-1 $495 $204 #
plane-surface $-1 0 35.701972157432778 8.127678404685506 0 -1 0 0 0 -1 forward_v I I I I #
coedge $-1 $210 $496 $339 $497 forward $205 $-1 #
coedge $-1 $498 $207 $338 $497 reversed $129 $-1 #
coedge $-1 $207 $498 $499 $500 reversed $129 $-1 #
edge $-1 $501 -11.497085502408032 $347 -4.7582713069629783 $207 $502 forward 7 unknown #
coedge $-1 $209 $208 $503 $504 reversed $82 $-1 #
coedge $-1 $505 $506 $209 $344 forward $507 $-1 #
edge $-1 $346 4.7582713069629783 $508 11.497085502408032 $343 $509 forward 7 unknown #
coedge $-1 $496 $210 $506 $510 forward $205 $-1 #
vertex $-1 $344 $511 #
vertex $-1 $341 $512 #
straight-curve $-1 0 23.973997585411894 4.7582713069629783 1 0 0 I I #
face $-1 $-1 $513 $48 $-1 $514 reversed single #
loop $-1 $-1 $218 $212 #
plane-surface $-1 0 0 11.497085502408032 0 0 1 1 0 0 forward_v I I I I #
coedge $-1 $515 $516 $517 $518 reversed $213 $-1 #
coedge $-1 $519 $215 $217 $359 forward $133 $-1 #
coedge $-1 $215 $519 $515 $520 forward $133 $-1 #
coedge $-1 $517 $218 $215 $356 forward $350 $-1 #
edge $-1 $362 0.86605666297415418 $521 5.5658453533382026 $355 $522 forward 7 unknown #
coedge $-1 $523 $524 $216 $358 forward $513 $-1 #
edge $-1 $525 -60.857149133875396 $361 -55.446784750658047 $357 $526 forward 7 unknown #
edge $-1 $362 82.330371966933072 $525 91.763054292428379 $217 $527 forward 7 unknown #
coedge $-1 $218 $517 $523 $528 forward $350 $-1 #
vertex $-1 $358 $529 #
vertex $-1 $219 $530 #
straight-curve $-1 11.673380227705593 -4.0820076711303326 11.497085502408034 -1 0 0 I I #
coedge $-1 $364 $364 $-1 $531 reversed $222 $-1 #
edge $-1 $532 0 $532 6.2831853071796004 $223 $533 forward 7 unknown #
vertex $-1 $226 $534 #
ellipse-curve $-1 42.018126665597237 -7.4389995928189414 8.791903310799368 0.57357644374324357 0 0.81915203911291934 0.40957601955645967 0 -0.28678822187162178 1 I I #
coedge $-1 $368 $368 $-1 $535 reversed $229 $-1 #
edge $-1 $536 0 $536 6.2831853071796004 $230 $537 forward 7 unknown #
vertex $-1 $233 $538 #
ellipse-curve $-1 42.018126665597237 -5.4248044398057758 8.791903310799368 0.57357644374324357 0 0.81915203911291934 0.40957601955645967 0 -0.28678822187162178 1 I I #
face $-1 $-1 $384 $51 $-1 $539 forward single #
loop $-1 $-1 $540 $234 #
plane-surface $-1 45.881527146214182 0 0 -1 0 0 0 0 1 forward_v I I I I #
coedge $-1 $541 $542 $543 $544 reversed $235 $-1 #
coedge $-1 $545 $237 $239 $382 forward $147 $-1 #
coedge $-1 $237 $545 $541 $546 forward $147 $-1 #
coedge $-1 $543 $240 $237 $379 forward $384 $-1 #
edge $-1 $386 -3.2159510081561802 $547 1.4838376822078683 $378 $548 forward 7 unknown #
coedge $-1 $549 $550 $238 $381 forward $373 $-1 #
edge $-1 $551 -60.857149133875396 $385 -55.446784750658047 $380 $552 forward 7 unknown #
edge $-1 $386 82.330371966933072 $551 91.763054292428379 $239 $553 forward 7 unknown #
coedge $-1 $240 $543 $549 $554 forward $384 $-1 #
loop $-1 $-1 $543 $372 #
vertex $-1 $381 $555 #
vertex $-1 $241 $556 #
straight-curve $-1 11.673380227705593 4.0820076711303361 11.497085502408034 -1 0 0 I I #
coedge $-1 $388 $388 $-1 $557 reversed $244 $-1 #
edge $-1 $558 0 $558 6.2831853071796004 $245 $559 forward 7 unknown #
vertex $-1 $248 $560 #
ellipse-curve $-1 42.018126665597237 0.72501574944172731 8.791903310799368 0.57357644374324357 0 0.81915203911291934 0.40957601955645967 0 -0.28678822187162178 1 I I #
coedge $-1 $392 $392 $-1 $561 reversed $251 $-1 #
edge $-1 $562 0 $562 6.2831853071796004 $252 $563 forward 7 unknown #
vertex $-1 $255 $564 #
ellipse-curve $-1 42.018126665597237 2.739210902454893 8.791903310799368 0.57357644374324357 0 0.81915203911291934 0.40957601955645967 0 -0.28678822187162178 1 I I #
face $-1 $-1 $408 $54 $-1 $565 forward single #
loop $-1 $-1 $566 $256 #
plane-surface $-1 45.881527146214182 0 0 -1 0 0 0 0 1 forward_v I I I I #
coedge $-1 $567 $568 $569 $570 reversed $257 $-1 #
coedge $-1 $571 $259 $261 $406 forward $161 $-1 #
coedge $-1 $259 $571 $567 $572 forward $161 $-1 #
coedge $-1 $569 $262 $259 $403 forward $408 $-1 #
edge $-1 $410 -7.2979586792865145 $573 -2.5981699889224661 $402 $574 forward 7 unknown #
coedge $-1 $575 $576 $260 $405 forward $397 $-1 #
edge $-1 $577 -60.857149133875396 $409 -55.446784750658047 $404 $578 forward 7 unknown #
edge $-1 $410 82.330371966933072 $577 91.763054292428379 $261 $579 forward 7 unknown #
coedge $-1 $262 $569 $575 $580 forward $408 $-1 #
loop $-1 $-1 $569 $396 #
vertex $-1 $405 $581 #
vertex $-1 $263 $582 #
straight-curve $-1 11.673380227705593 12.246023013391005 11.497085502408034 -1 0 0 I I #
coedge $-1 $412 $412 $-1 $583 reversed $266 $-1 #
edge $-1 $584 0 $584 6.2831853071796004 $267 $585 forward 7 unknown #
vertex $-1 $270 $586 #
ellipse-curve $-1 42.018126665597237 8.8890310917023925 8.791903310799368 0.57357644374324357 0 0.81915203911291934 0.40957601955645967 0 -0.28678822187162178 1 I I #
coedge $-1 $416 $416 $-1 $587 reversed $273 $-1 #
edge $-1 $588 0 $588 6.2831853071796004 $274 $589 forward 7 unknown #
vertex $-1 $277 $590 #
ellipse-curve $-1 42.018126665597237 10.903226244715562 8.791903310799368 0.57357644374324357 0 0.81915203911291934 0.40957601955645967 0 -0.28678822187162178 1 I I #
face $-1 $-1 $432 $57 $-1 $591 forward single #
loop $-1 $-1 $592 $278 #
plane-surface $-1 -45.881527146214182 0 0 1 0 0 0 0 -1 forward_v I I I I #
coedge $-1 $593 $594 $595 $596 reversed $279 $-1 #
coedge $-1 $597 $281 $283 $430 forward $175 $-1 #
coedge $-1 $281 $597 $593 $598 forward $175 $-1 #
coedge $-1 $595 $284 $281 $427 forward $432 $-1 #
edge $-1 $434 -3.836272199676932 $599 3.008932163521381 $426 $600 forward 7 unknown #
coedge $-1 $601 $602 $282 $429 forward $421 $-1 #
edge $-1 $603 -25.092913716345269 $433 -18.634384423287734 $428 $604 forward 7 unknown #
edge $-1 $434 -8.0869547438085423 $603 0 $283 $605 forward 7 unknown #
coedge $-1 $284 $595 $601 $606 forward $432 $-1 #
loop $-1 $-1 $595 $420 #
vertex $-1 $429 $607 #
vertex $-1 $285 $608 #
straight-curve $-1 -59.583380784599456 -4.2499422177547075 11.497085502408034 1 0 0 I I #
coedge $-1 $436 $436 $-1 $609 reversed $288 $-1 #
edge $-1 $610 0 $610 6.2831853071796004 $289 $611 forward 7 unknown #
vertex $-1 $292 $612 #
ellipse-curve $-1 -43.448101762155467 -2.2941695425551885 8.2678208558792647 -0.79863551827123203 0 0.60181501223851219 0.3009075061192561 0 0.39931775913561601 1 I I #
coedge $-1 $440 $440 $-1 $613 reversed $295 $-1 #
edge $-1 $614 0 $614 6.2831853071796004 $296 $615 forward 7 unknown #
vertex $-1 $299 $616 #
ellipse-curve $-1 -43.448101762155467 0.63948947024408653 8.2678208558792647 -0.79863551827123203 0 0.60181501223851219 0.3009075061192561 0 0.39931775913561601 1 I I #
face $-1 $-1 $315 $45 $-1 $617 reversed single #
loop $-1 $-1 $460 $300 #
plane-surface $-1 0 23.973997585411894 0 0 -1 0 0 0 -1 forward_v I I I I #
coedge $-1 $618 $458 $461 $619 forward $301 $-1 #
coedge $-1 $464 $303 $304 $452 reversed $189 $-1 #
coedge $-1 $458 $618 $303 $450 reversed $301 $-1 #
edge $-1 $465 -11.497085502408032 $620 11.497085502408032 $449 $621 forward 7 unknown #
coedge $-1 $305 $304 $618 $622 forward $121 $-1 #
edge $-1 $456 -45.881527146214182 $620 45.881527146214182 $448 $623 forward 7 unknown #
coedge $-1 $461 $460 $305 $454 reversed $445 $-1 #
edge $-1 $624 -45.881527146214182 $455 45.881527146214182 $453 $625 forward 7 unknown #
vertex $-1 $307 $626 #
vertex $-1 $467 $627 #
straight-curve $-1 45.881527146214182 0 -11.497085502408032 0 -1 0 I I #
coedge $-1 $447 $449 $308 $459 reversed $301 $-1 #
edge $-1 $462 -23.973997585411894 $465 23.973997585411894 $458 $628 forward 7 unknown #
coedge $-1 $453 $309 $314 $468 forward $445 $-1 #
coedge $-1 $309 $453 $447 $619 reversed $445 $-1 #
vertex $-1 $310 $629 #
straight-curve $-1 0 23.973997585411894 11.497085502408032 -1 0 0 I I #
coedge $-1 $311 $448 $313 $467 reversed $189 $-1 #
vertex $-1 $459 $630 #
straight-curve $-1 0 -23.973997585411894 11.497085502408032 1 0 0 I I #
edge $-1 $316 -11.497085502408032 $456 11.497085502408032 $313 $631 forward 7 unknown #
edge $-1 $317 -11.497085502408032 $455 11.497085502408032 $314 $632 forward 7 unknown #
point $-1 45.881527146214182 -23.973997585411894 11.497085502408032 #
point $-1 45.881527146214182 23.973997585411894 11.497085502408032 #
face $-1 $-1 $485 $46 $-1 $633 reversed single #
loop $-1 $-1 $634 $319 #
plane-surface $-1 0 -35.701972157432785 8.127678404685506 0 1 0 0 0 1 forward_v I I I I #
coedge $-1 $635 $322 $331 $489 reversed $197 $-1 #
coedge $-1 $322 $635 $323 $477 reversed $197 $-1 #
coedge $-1 $324 $323 $636 $637 forward $125 $-1 #
edge $-1 $481 23.973997585411894 $638 35.701972157432785 $475 $639 forward 7 unknown #
coedge $-1 $640 $328 $324 $479 reversed $485 $-1 #
edge $-1 $641 -35.701972157432785 $480 -23.973997585411894 $478 $642 forward 7 unknown #
vertex $-1 $329 $643 #
vertex $-1 $477 $644 #
straight-curve $-1 0 -23.973997585411894 11.497085502408032 -1 0 0 I I #
straight-curve $-1 -45.881527146214182 -23.973997585411894 0 0 0 -1 I I #
coedge $-1 $328 $640 $330 $488 reversed $485 $-1 #
loop $-1 $-1 $328 $471 #
straight-curve $-1 45.881527146214182 -23.973997585411894 0 0 0 1 I I #
coedge $-1 $331 $330 $645 $646 forward $320 $-1 #
edge $-1 $332 -5.8639872860104454 $647 5.8639872860104454 $484 $648 forward 7 unknown #
edge $-1 $649 -5.8639872860104454 $333 5.8639872860104454 $474 $650 forward 7 unknown #
point $-1 45.881527146214182 -23.973997585411894 4.7582713069629783 #
point $-1 -45.881527146214182 -23.973997585411894 4.7582713069629783 #
face $-1 $-1 $507 $47 $-1 $651 reversed single #
loop $-1 $-1 $503 $335 #
plane-surface $-1 0 0 11.497085502408032 0 0 1 1 0 0 forward_v I I I I #
coedge $-1 $652 $653 $498 $654 forward $336 $-1 #
coedge $-1 $338 $345 $652 $655 forward $205 $-1 #
edge $-1 $656 -5.8639872860104418 $347 5.8639872860104454 $339 $657 forward 7 unknown #
coedge $-1 $340 $339 $495 $654 reversed $129 $-1 #
coedge $-1 $658 $503 $340 $500 forward $493 $-1 #
edge $-1 $501 23.973997585411894 $659 35.701972157432778 $340 $660 forward 7 unknown #
vertex $-1 $500 $661 #
straight-curve $-1 45.881527146214182 23.973997585411894 0 0 0 -1 I I #
coedge $-1 $499 $662 $342 $504 forward $493 $-1 #
edge $-1 $508 -45.881527146214182 $501 45.881527146214182 $503 $663 forward 7 unknown #
coedge $-1 $664 $343 $662 $665 reversed $507 $-1 #
coedge $-1 $343 $664 $345 $510 reversed $507 $-1 #
loop $-1 $-1 $343 $492 #
vertex $-1 $344 $666 #
straight-curve $-1 -45.881527146214182 23.973997585411894 0 0 0 1 I I #
edge $-1 $346 -5.8639872860104454 $667 5.8639872860104418 $506 $668 forward 7 unknown #
point $-1 -45.881527146214182 23.97399758541189 4.7582713069629783 #
point $-1 45.881527146214182 23.97399758541189 4.7582713069629783 #
loop $-1 $-1 $357 $349 #
plane-surface $-1 45.881527146214182 0 0 -1 0 0 0 0 1 forward_v I I I I #
coedge $-1 $516 $352 $354 $520 reversed $213 $-1 #
coedge $-1 $352 $515 $669 $670 reversed $213 $-1 #
coedge $-1 $360 $355 $352 $518 forward $350 $-1 #
edge $-1 $521 26.481345957274712 $671 34.208146918508589 $517 $672 forward 7 unknown #
coedge $-1 $354 $353 $524 $673 reversed $133 $-1 #
edge $-1 $674 -91.763054292428379 $521 -82.330371966933072 $515 $675 forward 7 unknown #
vertex $-1 $356 $676 #
straight-curve $-1 38.154726184980298 -3.2159510081561784 11.497085502408034 0 -1 0 I I #
coedge $-1 $669 $357 $360 $528 reversed $513 $-1 #
coedge $-1 $357 $669 $519 $673 forward $513 $-1 #
vertex $-1 $358 $677 #
straight-curve $-1 45.881527146214182 -4.0820076711303326 66.943870253066081 0 0 1 I I #
straight-curve $-1 -29.286365892658054 -4.0820076711303326 58.719847467259939 0.81915203911291934 0 -0.57357644374324357 I I #
edge $-1 $671 -8.781796361494381 $361 -4.0820076711303326 $523 $678 forward 7 unknown #
point $-1 45.881527146214182 -4.0820076711303326 11.497085502408032 #
point $-1 38.154726184980305 -4.0820076711303326 11.497085502408034 #
edge $-1 $679 1 $679 0 $364 $-1 forward 7 unknown #
vertex $-1 $365 $680 #
ellipse-curve $-1 41.422371769318737 -7.4389995928189414 7.9410771595139567 0.57357644374324357 0 0.81915203911291934 0.40957601955645967 0 -0.28678822187162178 1 I I #
point $-1 42.427702685153697 -7.4389995928189414 8.5051150889277469 #
edge $-1 $681 1 $681 0 $368 $-1 forward 7 unknown #
vertex $-1 $369 $682 #
ellipse-curve $-1 41.422371769318737 -5.4248044398057758 7.9410771595139567 0.57357644374324357 0 0.81915203911291934 0.40957601955645967 0 -0.28678822187162178 1 I I #
point $-1 42.427702685153697 -5.4248044398057758 8.5051150889277469 #
plane-surface $-1 0 0 11.497085502408032 0 0 1 1 0 0 forward_v I I I I #
coedge $-1 $550 $549 $542 $683 forward $373 $-1 #
coedge $-1 $542 $375 $377 $546 reversed $235 $-1 #
coedge $-1 $375 $541 $540 $683 reversed $235 $-1 #
coedge $-1 $383 $378 $375 $544 forward $384 $-1 #
edge $-1 $547 26.481345957274712 $684 34.208146918508589 $543 $685 forward 7 unknown #
coedge $-1 $377 $376 $550 $686 reversed $147 $-1 #
edge $-1 $687 -91.763054292428379 $547 -82.330371966933072 $541 $688 forward 7 unknown #
vertex $-1 $379 $689 #
straight-curve $-1 38.154726184980298 0.86605666297415596 11.497085502408034 0 -1 0 I I #
coedge $-1 $540 $380 $383 $554 reversed $373 $-1 #
coedge $-1 $380 $540 $545 $686 forward $373 $-1 #
vertex $-1 $381 $690 #
straight-curve $-1 45.881527146214182 4.0820076711303361 66.943870253066081 0 0 1 I I #
straight-curve $-1 -29.286365892658054 4.0820076711303361 58.719847467259939 0.81915203911291934 0 -0.57357644374324357 I I #
edge $-1 $684 -0.61778101923371231 $385 4.0820076711303361 $549 $691 forward 7 unknown #
point $-1 45.881527146214182 4.0820076711303361 11.497085502408032 #
point $-1 38.154726184980305 4.0820076711303361 11.497085502408034 #
edge $-1 $692 1 $692 0 $388 $-1 forward 7 unknown #
vertex $-1 $389 $693 #
ellipse-curve $-1 41.422371769318737 0.72501574944172731 7.9410771595139567 0.57357644374324357 0 0.81915203911291934 0.40957601955645967 0 -0.28678822187162178 1 I I #
point $-1 42.427702685153697 0.72501574944172731 8.5051150889277469 #
edge $-1 $694 1 $694 0 $392 $-1 forward 7 unknown #
vertex $-1 $393 $695 #
ellipse-curve $-1 41.422371769318737 2.739210902454893 7.9410771595139567 0.57357644374324357 0 0.81915203911291934 0.40957601955645967 0 -0.28678822187162178 1 I I #
point $-1 42.427702685153697 2.739210902454893 8.5051150889277469 #
plane-surface $-1 0 0 11.497085502408032 0 0 1 1 0 0 forward_v I I I I #
coedge $-1 $576 $575 $568 $696 forward $397 $-1 #
coedge $-1 $568 $399 $401 $572 reversed $257 $-1 #
coedge $-1 $399 $567 $566 $696 reversed $257 $-1 #
coedge $-1 $407 $402 $399 $570 forward $408 $-1 #
edge $-1 $573 26.481345957274712 $697 34.208146918508589 $569 $698 forward 7 unknown #
coedge $-1 $401 $400 $576 $699 reversed $161 $-1 #
edge $-1 $700 -91.763054292428379 $573 -82.330371966933072 $567 $701 forward 7 unknown #
vertex $-1 $403 $702 #
straight-curve $-1 38.154726184980298 4.9480643341044903 11.497085502408034 0 -1 0 I I #
coedge $-1 $566 $404 $407 $580 reversed $397 $-1 #
coedge $-1 $404 $566 $571 $699 forward $397 $-1 #
vertex $-1 $405 $703 #
straight-curve $-1 45.881527146214182 12.246023013391005 66.943870253066081 0 0 1 I I #
straight-curve $-1 -29.286365892658054 12.246023013391005 58.719847467259939 0.81915203911291934 0 -0.57357644374324357 I I #
edge $-1 $697 7.5462343230269564 $409 12.246023013391005 $575 $704 forward 7 unknown #
point $-1 45.881527146214182 12.246023013391005 11.497085502408032 #
point $-1 38.154726184980305 12.246023013391005 11.497085502408034 #
edge $-1 $705 1 $705 0 $412 $-1 forward 7 unknown #
vertex $-1 $413 $706 #
ellipse-curve $-1 41.422371769318737 8.8890310917023925 7.9410771595139567 0.57357644374324357 0 0.81915203911291934 0.40957601955645967 0 -0.28678822187162178 1 I I #
point $-1 42.427702685153697 8.8890310917023925 8.5051150889277469 #
edge $-1 $707 1 $707 0 $416 $-1 forward 7 unknown #
vertex $-1 $417 $708 #
ellipse-curve $-1 41.422371769318737 10.903226244715562 7.9410771595139567 0.57357644374324357 0 0.81915203911291934 0.40957601955645967 0 -0.28678822187162178 1 I I #
point $-1 42.427702685153697 10.903226244715562 8.5051150889277469 #
plane-surface $-1 0 0 11.497085502408032 0 0 1 1 0 0 forward_v I I I I #
coedge $-1 $602 $601 $594 $709 forward $421 $-1 #
coedge $-1 $594 $423 $425 $598 reversed $279 $-1 #
coedge $-1 $423 $593 $592 $709 reversed $279 $-1 #
coedge $-1 $431 $426 $423 $596 forward $432 $-1 #
edge $-1 $599 -18.568704406502704 $710 -13.701853638385273 $595 $711 forward 7 unknown #
coedge $-1 $425 $424 $602 $712 reversed $175 $-1 #
edge $-1 $713 0 $599 8.0869547438085423 $593 $714 forward 7 unknown #
vertex $-1 $427 $715 #
straight-curve $-1 -41.014676378096752 -0.41367001807777548 11.497085502408034 0 1 0 I I #
coedge $-1 $592 $428 $431 $606 reversed $421 $-1 #
coedge $-1 $428 $592 $597 $712 forward $421 $-1 #
vertex $-1 $429 $716 #
straight-curve $-1 -45.881527146214182 -4.2499422177547075 30.131469925695765 0 0 1 I I #
straight-curve $-1 -45.881527146214182 -4.2499422177547075 5.0385562093504959 -0.60181501223851219 0 -0.79863551827123203 I I #
edge $-1 $710 -2.5952621454436056 $433 4.2499422177547075 $601 $717 forward 7 unknown #
point $-1 -45.881527146214182 -4.2499422177547075 11.497085502408032 #
point $-1 -41.014676378096752 -4.2499422177547075 11.497085502408032 #
edge $-1 $718 1 $718 0 $436 $-1 forward 7 unknown #
vertex $-1 $437 $719 #
ellipse-curve $-1 -42.54974343669997 -2.2941695425551885 7.5908593205359907 -0.79863551827123203 0 0.60181501223851219 0.3009075061192561 0 0.39931775913561601 1 I I #
point $-1 -43.147194256036208 -2.2941695425551885 8.6671386150148848 #
edge $-1 $720 1 $720 0 $440 $-1 forward 7 unknown #
vertex $-1 $441 $721 #
ellipse-curve $-1 -42.54974343669997 0.63948947024408653 7.5908593205359907 -0.79863551827123203 0 0.60181501223851219 0.3009075061192561 0 0.39931775913561601 1 I I #
point $-1 -43.147194256036208 0.63948947024408653 8.6671386150148848 #
plane-surface $-1 45.881527146214182 0 0 -1 0 0 0 0 1 forward_v I I I I #
coedge $-1 $449 $447 $451 $622 reversed $301 $-1 #
edge $-1 $462 -11.497085502408032 $624 11.497085502408032 $461 $722 forward 7 unknown #
vertex $-1 $622 $723 #
straight-curve $-1 -45.881527146214182 -23.973997585411894 0 0 0 -1 I I #
edge $-1 $620 -23.973997585411894 $624 23.973997585411894 $618 $724 forward 7 unknown #
straight-curve $-1 0 -23.973997585411894 -11.497085502408032 -1 0 0 I I #
vertex $-1 $454 $725 #
straight-curve $-1 0 23.973997585411894 -11.497085502408032 1 0 0 I I #
point $-1 45.881527146214182 23.973997585411894 -11.497085502408032 #
point $-1 45.881527146214182 -23.973997585411894 -11.497085502408032 #
straight-curve $-1 -45.881527146214182 0 11.497085502408032 0 -1 0 I I #
point $-1 -45.881527146214182 23.973997585411894 11.497085502408032 #
point $-1 -45.881527146214182 -23.973997585411894 11.497085502408032 #
straight-curve $-1 45.881527146214182 -23.973997585411894 0 0 0 -1 I I #
straight-curve $-1 45.881527146214182 23.973997585411894 0 0 0 -1 I I #
plane-surface $-1 45.881527146214182 0 0 -1 0 0 0 0 1 forward_v I I I I #
coedge $-1 $645 $636 $635 $726 forward $472 $-1 #
coedge $-1 $475 $474 $634 $726 reversed $197 $-1 #
coedge $-1 $634 $727 $476 $637 reversed $472 $-1 #
edge $-1 $638 -45.881527146214182 $641 45.881527146214182 $636 $728 forward 7 unknown #
vertex $-1 $477 $729 #
straight-curve $-1 -45.881527146214182 0 11.497085502408032 0 -1 0 I I #
coedge $-1 $484 $478 $727 $730 forward $485 $-1 #
vertex $-1 $479 $731 #
straight-curve $-1 45.881527146214182 0 11.497085502408032 0 1 0 I I #
point $-1 45.881527146214182 -23.973997585411894 11.497085502408032 #
point $-1 -45.881527146214182 -23.973997585411894 11.497085502408032 #
coedge $-1 $727 $634 $487 $646 reversed $472 $-1 #
edge $-1 $647 -45.881527146214182 $649 45.881527146214182 $645 $732 forward 7 unknown #
vertex $-1 $730 $733 #
straight-curve $-1 45.881527146214182 -29.837984871422339 4.7582713069629783 0 -1 0 I I #
vertex $-1 $489 $734 #
straight-curve $-1 -45.881527146214182 -29.837984871422339 4.7582713069629783 0 1 0 I I #
plane-surface $-1 -45.881527146214182 0 0 1 0 0 0 0 -1 forward_v I I I I #
coedge $-1 $735 $495 $496 $655 reversed $336 $-1 #
coedge $-1 $495 $735 $658 $736 reversed $336 $-1 #
edge $-1 $659 -3.3694070977225277 $656 3.3694070977225277 $498 $737 forward 7 unknown #
edge $-1 $667 -45.881527146214182 $656 45.881527146214182 $652 $738 forward 7 unknown #
vertex $-1 $497 $739 #
straight-curve $-1 45.881527146214182 29.837984871422336 4.7582713069629783 0 -1 0 I I #
coedge $-1 $662 $499 $653 $736 forward $493 $-1 #
vertex $-1 $500 $740 #
straight-curve $-1 45.881527146214182 0 11.497085502408032 0 1 0 I I #
point $-1 45.881527146214182 23.973997585411894 11.497085502408032 #
coedge $-1 $503 $658 $505 $665 forward $493 $-1 #
straight-curve $-1 0 23.973997585411894 11.497085502408032 1 0 0 I I #
coedge $-1 $506 $505 $735 $741 forward $507 $-1 #
edge $-1 $742 -35.701972157432778 $508 -23.973997585411894 $505 $743 forward 7 unknown #
point $-1 -45.881527146214182 23.973997585411894 11.497085502408032 #
vertex $-1 $655 $744 #
straight-curve $-1 -45.881527146214182 29.837984871422336 4.7582713069629783 0 1 0 I I #
coedge $-1 $524 $523 $516 $670 forward $513 $-1 #
edge $-1 $671 55.446784750658047 $674 60.857149133875396 $669 $745 forward 7 unknown #
vertex $-1 $528 $746 #
straight-curve $-1 11.673380227705593 -8.781796361494381 11.497085502408034 1 0 0 I I #
edge $-1 $674 -5.5658453533382026 $525 -0.86605666297415418 $524 $747 forward 7 unknown #
vertex $-1 $673 $748 #
straight-curve $-1 -29.286365892658054 -8.781796361494381 58.719847467259939 -0.81915203911291934 0 0.57357644374324357 I I #
point $-1 38.154726184980305 -8.781796361494381 11.497085502408034 #
point $-1 45.881527146214182 -4.0820076711303326 6.0867211191906847 #
straight-curve $-1 45.881527146214182 0 11.497085502408032 0 1 0 I I #
vertex $-1 $531 $749 #
point $-1 41.831947788875198 -7.4389995928189414 7.6542889376423355 #
vertex $-1 $535 $750 #
point $-1 41.831947788875198 -5.4248044398057758 7.6542889376423355 #
edge $-1 $684 55.446784750658047 $687 60.857149133875396 $540 $751 forward 7 unknown #
vertex $-1 $554 $752 #
straight-curve $-1 11.673380227705593 -0.61778101923371231 11.497085502408034 1 0 0 I I #
edge $-1 $687 -1.4838376822078683 $551 3.2159510081561802 $550 $753 forward 7 unknown #
vertex $-1 $686 $754 #
straight-curve $-1 -29.286365892658054 -0.61778101923371231 58.719847467259939 -0.81915203911291934 0 0.57357644374324357 I I #
point $-1 38.154726184980305 -0.61778101923371231 11.497085502408034 #
point $-1 45.881527146214182 4.0820076711303361 6.0867211191906847 #
straight-curve $-1 45.881527146214182 0 11.497085502408032 0 1 0 I I #
vertex $-1 $557 $755 #
point $-1 41.831947788875198 0.72501574944172731 7.6542889376423355 #
vertex $-1 $561 $756 #
point $-1 41.831947788875198 2.739210902454893 7.6542889376423355 #
edge $-1 $697 55.446784750658047 $700 60.857149133875396 $566 $757 forward 7 unknown #
vertex $-1 $580 $758 #
straight-curve $-1 11.673380227705593 7.5462343230269564 11.497085502408034 1 0 0 I I #
edge $-1 $700 2.5981699889224661 $577 7.2979586792865145 $576 $759 forward 7 unknown #
vertex $-1 $699 $760 #
straight-curve $-1 -29.286365892658054 7.5462343230269564 58.719847467259939 -0.81915203911291934 0 0.57357644374324357 I I #
point $-1 38.154726184980305 7.5462343230269564 11.497085502408034 #
point $-1 45.881527146214182 12.246023013391005 6.0867211191906847 #
straight-curve $-1 45.881527146214182 0 11.497085502408032 0 1 0 I I #
vertex $-1 $583 $761 #
point $-1 41.831947788875198 8.8890310917023925 7.6542889376423355 #
vertex $-1 $587 $762 #
point $-1 41.831947788875198 10.903226244715562 7.6542889376423355 #
edge $-1 $710 18.634384423287734 $713 25.092913716345269 $592 $763 forward 7 unknown #
vertex $-1 $606 $764 #
straight-curve $-1 -59.583380784599456 2.5952621454436056 11.497085502408034 -1 0 0 I I #
edge $-1 $713 -3.008932163521381 $603 3.836272199676932 $602 $765 forward 7 unknown #
vertex $-1 $712 $766 #
straight-curve $-1 -45.881527146214182 2.5952621454436056 5.0385562093504959 0.60181501223851219 0 0.79863551827123203 I I #
point $-1 -41.014676378096752 2.5952621454436056 11.497085502408032 #
point $-1 -45.881527146214182 -4.2499422177547075 5.0385562093504959 #
straight-curve $-1 -45.881527146214182 0 11.497085502408032 0 -1 0 I I #
vertex $-1 $609 $767 #
point $-1 -42.248835930580718 -2.2941695425551885 7.9901770796716072 #
vertex $-1 $613 $768 #
point $-1 -42.248835930580718 0.63948947024408653 7.9901770796716072 #
straight-curve $-1 -45.881527146214182 23.973997585411894 0 0 0 -1 I I #
point $-1 -45.881527146214182 -23.973997585411894 -11.497085502408032 #
straight-curve $-1 -45.881527146214182 0 -11.497085502408032 0 1 0 I I #
point $-1 -45.881527146214182 23.973997585411894 -11.497085502408032 #
edge $-1 $638 -3.3694070977225277 $649 3.3694070977225277 $635 $769 forward 7 unknown #
coedge $-1 $636 $645 $640 $730 reversed $472 $-1 #
straight-curve $-1 0 -35.701972157432785 11.497085502408034 1 0 0 I I #
point $-1 -45.881527146214182 -35.701972157432785 11.497085502408034 #
edge $-1 $641 -3.3694070977225277 $647 3.3694070977225277 $640 $770 forward 7 unknown #
point $-1 45.881527146214182 -35.701972157432785 11.497085502408034 #
straight-curve $-1 0 -35.701972157432785 4.7582713069629783 -1 0 0 I I #
point $-1 45.881527146214182 -35.701972157432785 4.7582713069629783 #
point $-1 -45.881527146214182 -35.701972157432785 4.7582713069629783 #
coedge $-1 $653 $652 $664 $741 reversed $336 $-1 #
edge $-1 $659 -45.881527146214182 $742 45.881527146214182 $653 $771 forward 7 unknown #
straight-curve $-1 45.881527146214182 35.701972157432778 8.127678404685506 0 0 -1 I I #
straight-curve $-1 0 35.701972157432778 4.7582713069629783 1 0 0 I I #
point $-1 45.881527146214182 35.701972157432778 4.7582713069629783 #
point $-1 45.881527146214182 35.701972157432778 11.497085502408034 #
edge $-1 $742 -3.3694070977225277 $667 3.3694070977225277 $735 $772 forward 7 unknown #
vertex $-1 $736 $773 #
straight-curve $-1 -45.881527146214182 0 11.497085502408032 0 -1 0 I I #
point $-1 -45.881527146214182 35.701972157432778 4.7582713069629783 #
straight-curve $-1 45.881527146214182 -8.781796361494381 66.943870253066081 0 0 -1 I I #
point $-1 45.881527146214182 -8.781796361494381 11.497085502408032 #
straight-curve $-1 45.881527146214182 -3.2159510081561784 6.0867211191906812 0 1 0 I I #
point $-1 45.881527146214182 -8.781796361494381 6.0867211191906847 #
point $-1 41.135583547447119 -7.4389995928189414 7.5315011399574976 #
point $-1 41.135583547447119 -5.4248044398057758 7.5315011399574976 #
straight-curve $-1 45.881527146214182 -0.61778101923371231 66.943870253066081 0 0 -1 I I #
point $-1 45.881527146214182 -0.61778101923371231 11.497085502408032 #
straight-curve $-1 45.881527146214182 0.86605666297415596 6.0867211191906812 0 1 0 I I #
point $-1 45.881527146214182 -0.61778101923371231 6.0867211191906847 #
point $-1 41.135583547447119 0.72501574944172731 7.5315011399574976 #
point $-1 41.135583547447119 2.739210902454893 7.5315011399574976 #
straight-curve $-1 45.881527146214182 7.5462343230269564 66.943870253066081 0 0 -1 I I #
point $-1 45.881527146214182 7.5462343230269564 11.497085502408032 #
straight-curve $-1 45.881527146214182 4.9480643341044903 6.0867211191906812 0 1 0 I I #
point $-1 45.881527146214182 7.5462343230269564 6.0867211191906847 #
point $-1 41.135583547447119 8.8890310917023925 7.5315011399574976 #
point $-1 41.135583547447119 10.903226244715562 7.5315011399574976 #
straight-curve $-1 -45.881527146214182 2.5952621454436056 30.131469925695765 0 0 -1 I I #
point $-1 -45.881527146214182 2.5952621454436056 11.497085502408032 #
straight-curve $-1 -45.881527146214182 -0.41367001807777548 5.0385562093504941 0 -1 0 I I #
point $-1 -45.881527146214182 2.5952621454436056 5.0385562093504959 #
point $-1 -42.150425677564357 -2.2941695425551885 7.2899518144167352 #
point $-1 -42.150425677564357 0.63948947024408653 7.2899518144167352 #
straight-curve $-1 -45.881527146214182 -35.701972157432785 8.127678404685506 0 0 -1 I I #
straight-curve $-1 45.881527146214182 -35.701972157432785 8.127678404685506 0 0 -1 I I #
straight-curve $-1 0 35.701972157432778 11.497085502408034 -1 0 0 I I #
straight-curve $-1 -45.881527146214182 35.701972157432778 8.127678404685506 0 0 -1 I I #
point $-1 -45.881527146214182 35.701972157432778 11.497085502408034 #
End-of-ACIS-data 