500 0 16 0           
7 Unknown 11 ACIS 5.0 NT 24 Fri Mar 26 16:29:50 1999 
-1 9.9999999999999995e-007 1e-010 
body $-1 $16 $-1 $17 #
body $-1 $18 $-1 $19 #
body $-1 $20 $-1 $21 #
body $-1 $22 $-1 $23 #
body $-1 $24 $-1 $25 #
body $-1 $26 $-1 $27 #
body $-1 $28 $-1 $29 #
body $-1 $30 $-1 $31 #
body $-1 $32 $-1 $33 #
body $-1 $34 $-1 $35 #
body $-1 $36 $-1 $37 #
body $-1 $38 $-1 $39 #
body $-1 $40 $-1 $41 #
body $-1 $42 $-1 $43 #
body $-1 $44 $-1 $45 #
body $-1 $46 $-1 $47 #
lump $-1 $-1 $48 $0 #
transform $-1 1 0 0 0 1 0 0 0 1 64.423352763451035 33.470769832749838 15.296326701085817 1 rotate no_reflect no_shear #
lump $-1 $-1 $49 $1 #
transform $-1 1 0 0 0 1 0 0 0 1 64.423352763451035 33.470769832749838 15.296326701085817 1 rotate no_reflect no_shear #
lump $-1 $-1 $50 $2 #
transform $-1 1 0 0 0 1 0 0 0 1 64.423352763451035 33.470769832749838 15.296326701085817 1 rotate no_reflect no_shear #
lump $-1 $-1 $51 $3 #
transform $-1 1 0 0 0 1 0 0 0 1 64.423352763451035 33.470769832749838 15.296326701085817 1 rotate no_reflect no_shear #
lump $-1 $-1 $52 $4 #
transform $-1 1 0 0 0 1 0 0 0 1 64.423352763451035 33.470769832749838 15.296326701085817 1 rotate no_reflect no_shear #
lump $-1 $-1 $53 $5 #
transform $-1 1 0 0 0 1 0 0 0 1 64.423352763451035 33.470769832749838 15.296326701085817 1 rotate no_reflect no_shear #
lump $-1 $-1 $54 $6 #
transform $-1 1 0 0 0 1 0 0 0 1 64.423352763451035 33.470769832749838 15.296326701085817 1 rotate no_reflect no_shear #
lump $-1 $-1 $55 $7 #
transform $-1 1 0 0 0 1 0 0 0 1 64.423352763451035 33.470769832749838 15.296326701085817 1 rotate no_reflect no_shear #
lump $-1 $-1 $56 $8 #
transform $-1 1 0 0 0 1 0 0 0 1 64.423352763451035 33.470769832749838 15.296326701085817 1 rotate no_reflect no_shear #
lump $-1 $-1 $57 $9 #
transform $-1 1 0 0 0 1 0 0 0 1 64.423352763451035 33.470769832749838 15.296326701085817 1 rotate no_reflect no_shear #
lump $-1 $-1 $58 $10 #
transform $-1 1 0 0 0 1 0 0 0 1 64.423352763451035 33.470769832749838 15.296326701085817 1 rotate no_reflect no_shear #
lump $-1 $-1 $59 $11 #
transform $-1 1 0 0 0 1 0 0 0 1 64.423352763451035 33.470769832749838 15.296326701085817 1 rotate no_reflect no_shear #
lump $-1 $-1 $60 $12 #
transform $-1 1 0 0 0 1 0 0 0 1 64.423352763451035 33.470769832749838 15.296326701085817 1 rotate no_reflect no_shear #
lump $-1 $-1 $61 $13 #
transform $-1 1 0 0 0 1 0 0 0 1 64.423352763451035 33.470769832749838 15.296326701085817 1 rotate no_reflect no_shear #
lump $-1 $-1 $62 $14 #
transform $-1 1 0 0 0 1 0 0 0 1 64.423352763451035 33.470769832749838 15.296326701085817 1 rotate no_reflect no_shear #
lump $-1 $-1 $63 $15 #
transform $-1 1 0 0 0 1 0 0 0 1 64.423352763451035 33.470769832749838 15.296326701085817 1 rotate no_reflect no_shear #
shell $-1 $-1 $-1 $64 $-1 $16 #
shell $-1 $-1 $-1 $65 $-1 $18 #
shell $-1 $-1 $-1 $66 $-1 $20 #
shell $-1 $-1 $-1 $67 $-1 $22 #
shell $-1 $-1 $-1 $68 $-1 $24 #
shell $-1 $-1 $-1 $69 $-1 $26 #
shell $-1 $-1 $-1 $70 $-1 $28 #
shell $-1 $-1 $-1 $71 $-1 $30 #
shell $-1 $-1 $-1 $72 $-1 $32 #
shell $-1 $-1 $-1 $73 $-1 $34 #
shell $-1 $-1 $-1 $74 $-1 $36 #
shell $-1 $-1 $-1 $75 $-1 $38 #
shell $-1 $-1 $-1 $76 $-1 $40 #
shell $-1 $-1 $-1 $77 $-1 $42 #
shell $-1 $-1 $-1 $78 $-1 $44 #
shell $-1 $-1 $-1 $79 $-1 $46 #
face $-1 $80 $81 $48 $-1 $82 forward single #
face $-1 $83 $84 $49 $-1 $85 reversed single #
face $-1 $86 $87 $50 $-1 $88 reversed single #
face $-1 $89 $90 $51 $-1 $91 forward single #
face $-1 $92 $93 $52 $-1 $94 forward single #
face $-1 $95 $96 $53 $-1 $97 forward single #
face $-1 $98 $99 $54 $-1 $100 reversed single #
face $-1 $101 $102 $55 $-1 $103 forward single #
face $-1 $104 $105 $56 $-1 $106 forward single #
face $-1 $107 $108 $57 $-1 $109 forward single #
face $-1 $110 $111 $58 $-1 $112 reversed single #
face $-1 $113 $114 $59 $-1 $115 forward single #
face $-1 $116 $117 $60 $-1 $118 forward single #
face $-1 $119 $120 $61 $-1 $121 reversed single #
face $-1 $122 $123 $62 $-1 $124 forward single #
face $-1 $125 $126 $63 $-1 $127 forward single #
face $-1 $128 $129 $48 $-1 $130 reversed single #
loop $-1 $-1 $131 $64 #
plane-surface $-1 0 0 15.296326701085817 0 0 1 1 0 0 forward_v I I I I #
face $-1 $132 $133 $49 $-1 $134 forward single #
loop $-1 $-1 $135 $65 #
plane-surface $-1 -53.813555035741132 0 12.450597399035395 -1 0 0 0 0 1 forward_v I I I I #
face $-1 $136 $137 $50 $-1 $138 reversed single #
loop $-1 $-1 $139 $66 #
plane-surface $-1 -41.855270406494554 -33.470769832749838 9.13471433325698 0 -0.75470958851134928 0.65605901945558964 1 0 0 forward_v I I I I #
face $-1 $140 $141 $51 $-1 $142 forward single #
loop $-1 $143 $144 $67 #
cone-surface $-1 -49.030241184042502 -29.786964226954638 11.34127737497761 0 0.75470958851134928 -0.65605901945558964 1.5 0 0 1 I I 0 1 1.5 forward I I I I #
face $-1 $145 $146 $52 $-1 $147 forward single #
loop $-1 $148 $149 $68 #
cone-surface $-1 -41.855270406494554 -29.786964226954638 11.34127737497761 0 0.75470958851134928 -0.65605901945558964 1.5 0 0 1 I I 0 1 1.5 forward I I I I #
face $-1 $150 $151 $53 $-1 $152 forward single #
loop $-1 $153 $154 $69 #
cone-surface $-1 -34.680299628946599 -29.786964226954638 11.34127737497761 0 0.75470958851134928 -0.65605901945558964 1.5 0 0 1 I I 0 1 1.5 forward I I I I #
face $-1 $155 $156 $54 $-1 $157 reversed single #
loop $-1 $-1 $158 $70 #
plane-surface $-1 5.3048988638549481 -130.7126139420011 93.665757621319457 1 0 0 0 0.75470958851134928 -0.65605901945558964 forward_v I I I I #
face $-1 $159 $160 $55 $-1 $161 forward single #
loop $-1 $162 $163 $71 #
cone-surface $-1 10.088212715553581 -29.786964226954638 11.34127737497761 0 0.75470958851134928 -0.65605901945558964 1.5 0 0 1 I I 0 1 1.5 forward I I I I #
face $-1 $164 $165 $56 $-1 $166 forward single #
loop $-1 $167 $168 $72 #
cone-surface $-1 17.263183493101536 -29.786964226954638 11.34127737497761 0 0.75470958851134928 -0.65605901945558964 1.5 0 0 1 I I 0 1 1.5 forward I I I I #
face $-1 $169 $170 $57 $-1 $171 forward single #
loop $-1 $172 $173 $73 #
cone-surface $-1 24.438154270649491 -29.786964226954638 11.34127737497761 0 0.75470958851134928 -0.65605901945558964 1.5 0 0 1 I I 0 1 1.5 forward I I I I #
face $-1 $174 $175 $58 $-1 $176 reversed single #
loop $-1 $-1 $177 $74 #
plane-surface $-1 -41.66151516548878 89.143882074293757 143.9144540895503 1 0 0 0 -0.7660444514056185 -0.64278759981090561 forward_v I I I I #
face $-1 $178 $179 $59 $-1 $180 forward single #
loop $-1 $181 $182 $75 #
cone-surface $-1 -35.991150008073816 30.561072314219668 12.043538760825358 0 -0.7660444514056185 -0.64278759981090561 1.5 0 0 1 I I 0 1 1.5 forward I I I I #
face $-1 $183 $184 $60 $-1 $185 forward single #
loop $-1 $186 $187 $76 #
cone-surface $-1 -27.485602271951365 30.561072314219668 12.043538760825358 0 -0.7660444514056185 -0.64278759981090561 1.5 0 0 1 I I 0 1 1.5 forward I I I I #
face $-1 $188 $189 $61 $-1 $190 reversed single #
loop $-1 $-1 $191 $77 #
plane-surface $-1 17.456938734107307 89.143882074293757 143.9144540895503 1 0 0 0 -0.7660444514056185 -0.64278759981090561 forward_v I I I I #
face $-1 $192 $193 $62 $-1 $194 forward single #
loop $-1 $195 $196 $78 #
cone-surface $-1 23.12730389152226 30.561072314219668 12.043538760825358 0 -0.7660444514056185 -0.64278759981090561 1.5 0 0 1 I I 0 1 1.5 forward I I I I #
face $-1 $197 $198 $63 $-1 $199 forward single #
loop $-1 $200 $201 $79 #
cone-surface $-1 31.632851627644712 30.561072314219668 12.043538760825358 0 -0.7660444514056185 -0.64278759981090561 1.5 0 0 1 I I 0 1 1.5 forward I I I I #
face $-1 $202 $203 $48 $-1 $204 reversed single #
loop $-1 $-1 $205 $80 #
plane-surface $-1 0 0 -15.296326701085817 0 0 1 1 0 0 forward_v I I I I #
coedge $-1 $206 $207 $208 $209 forward $81 $-1 #
face $-1 $210 $211 $49 $-1 $212 reversed single #
loop $-1 $-1 $213 $83 #
plane-surface $-1 -59.118453899596084 0 14.796326701085816 0 0 1 1 0 0 forward_v I I I I #
coedge $-1 $214 $215 $216 $217 reversed $84 $-1 #
face $-1 $218 $219 $50 $-1 $220 reversed single #
loop $-1 $-1 $221 $86 #
plane-surface $-1 -29.896985777247966 -130.7126139420011 93.665757621319457 -1 0 0 0 -0.75470958851134928 0.65605901945558964 forward_v I I I I #
coedge $-1 $222 $223 $224 $225 reversed $87 $-1 #
face $-1 $-1 $226 $51 $-1 $227 forward single #
loop $-1 $228 $229 $89 #
cone-surface $-1 -49.030241184042502 -28.215230318900183 9.9749899681921299 0 0.75470958851134928 -0.65605901945558964 0.75 0 0 1 I I -0.70710678118654668 0.70710678118654835 0.75 forward I I I I #
loop $-1 $-1 $230 $67 #
coedge $-1 $144 $144 $231 $232 reversed $90 $-1 #
face $-1 $-1 $233 $52 $-1 $234 forward single #
loop $-1 $235 $236 $92 #
cone-surface $-1 -41.855270406494554 -28.215230318900183 9.9749899681921299 0 0.75470958851134928 -0.65605901945558964 0.75 0 0 1 I I -0.70710678118654668 0.70710678118654835 0.75 forward I I I I #
loop $-1 $-1 $237 $68 #
coedge $-1 $149 $149 $238 $239 reversed $93 $-1 #
face $-1 $-1 $240 $53 $-1 $241 forward single #
loop $-1 $242 $243 $95 #
cone-surface $-1 -34.680299628946599 -28.215230318900183 9.9749899681921299 0 0.75470958851134928 -0.65605901945558964 0.75 0 0 1 I I -0.70710678118654668 0.70710678118654835 0.75 forward I I I I #
loop $-1 $-1 $244 $69 #
coedge $-1 $154 $154 $245 $246 reversed $96 $-1 #
face $-1 $247 $248 $54 $-1 $249 reversed single #
loop $-1 $-1 $250 $98 #
plane-surface $-1 17.263183493101536 -33.470769832749838 9.13471433325698 0 -0.75470958851134928 0.65605901945558964 1 0 0 forward_v I I I I #
coedge $-1 $251 $252 $253 $254 reversed $99 $-1 #
face $-1 $-1 $255 $55 $-1 $256 forward single #
loop $-1 $257 $258 $101 #
cone-surface $-1 10.088212715553581 -28.215230318900183 9.9749899681921299 0 0.75470958851134928 -0.65605901945558964 0.75 0 0 1 I I -0.70710678118654668 0.70710678118654835 0.75 forward I I I I #
loop $-1 $-1 $259 $71 #
coedge $-1 $163 $163 $260 $261 reversed $102 $-1 #
face $-1 $-1 $262 $56 $-1 $263 forward single #
loop $-1 $264 $265 $104 #
cone-surface $-1 17.263183493101536 -28.215230318900183 9.9749899681921299 0 0.75470958851134928 -0.65605901945558964 0.75 0 0 1 I I -0.70710678118654668 0.70710678118654835 0.75 forward I I I I #
loop $-1 $-1 $266 $72 #
coedge $-1 $168 $168 $267 $268 reversed $105 $-1 #
face $-1 $-1 $269 $57 $-1 $270 forward single #
loop $-1 $271 $272 $107 #
cone-surface $-1 24.438154270649491 -28.215230318900183 9.9749899681921299 0 0.75470958851134928 -0.65605901945558964 0.75 0 0 1 I I -0.70710678118654668 0.70710678118654835 0.75 forward I I I I #
loop $-1 $-1 $273 $73 #
coedge $-1 $173 $173 $274 $275 reversed $108 $-1 #
face $-1 $276 $277 $58 $-1 $278 reversed single #
loop $-1 $-1 $279 $110 #
plane-surface $-1 -31.738376140012591 -9.5584217764832147 61.093389500370378 0 0.7660444514056185 0.64278759981090561 1 0 0 forward_v I I I I #
coedge $-1 $280 $281 $282 $283 reversed $111 $-1 #
face $-1 $-1 $284 $59 $-1 $285 forward single #
loop $-1 $286 $287 $113 #
cone-surface $-1 -35.991150008073816 29.37728851286009 11.050226235717012 0 -0.7660444514056185 -0.64278759981090561 0.75 0 0 1 I I -0.70710678118654757 0.70710678118654757 0.75 forward I I I I #
loop $-1 $-1 $288 $75 #
coedge $-1 $182 $182 $289 $290 reversed $114 $-1 #
face $-1 $-1 $291 $60 $-1 $292 forward single #
loop $-1 $293 $294 $116 #
cone-surface $-1 -27.485602271951365 29.37728851286009 11.050226235717012 0 -0.7660444514056185 -0.64278759981090561 0.75 0 0 1 I I -0.70710678118654757 0.70710678118654757 0.75 forward I I I I #
loop $-1 $-1 $295 $76 #
coedge $-1 $187 $187 $296 $297 reversed $117 $-1 #
face $-1 $298 $299 $61 $-1 $300 reversed single #
loop $-1 $-1 $301 $119 #
plane-surface $-1 27.3800777595835 -9.5584217764832147 61.093389500370378 0 0.7660444514056185 0.64278759981090561 1 0 0 forward_v I I I I #
coedge $-1 $302 $303 $304 $305 reversed $120 $-1 #
face $-1 $-1 $306 $62 $-1 $307 forward single #
loop $-1 $308 $309 $122 #
cone-surface $-1 23.12730389152226 29.37728851286009 11.050226235717012 0 -0.7660444514056185 -0.64278759981090561 0.75 0 0 1 I I -0.70710678118654757 0.70710678118654757 0.75 forward I I I I #
loop $-1 $-1 $310 $78 #
coedge $-1 $196 $196 $311 $312 reversed $123 $-1 #
face $-1 $-1 $313 $63 $-1 $314 forward single #
loop $-1 $315 $316 $125 #
cone-surface $-1 31.632851627644712 29.37728851286009 11.050226235717012 0 -0.7660444514056185 -0.64278759981090561 0.75 0 0 1 I I -0.70710678118654757 0.70710678118654757 0.75 forward I I I I #
loop $-1 $-1 $317 $79 #
coedge $-1 $201 $201 $318 $319 reversed $126 $-1 #
face $-1 $320 $321 $48 $-1 $322 reversed single #
loop $-1 $-1 $323 $128 #
plane-surface $-1 0 -33.470769832749838 0 0 1 0 0 0 1 forward_v I I I I #
coedge $-1 $324 $325 $326 $327 forward $129 $-1 #
coedge $-1 $328 $131 $329 $330 forward $81 $-1 #
coedge $-1 $131 $328 $331 $332 forward $81 $-1 #
coedge $-1 $333 $334 $131 $209 reversed $335 $-1 #
edge $-1 $336 -33.470769832749838 $337 33.470769832749838 $208 $338 forward 7 unknown #
face $-1 $339 $340 $49 $-1 $341 reversed single #
loop $-1 $-1 $216 $132 #
plane-surface $-1 -59.118453899596084 0 10.104868096984974 0 0 1 1 0 0 forward_v I I I I #
coedge $-1 $342 $343 $344 $345 forward $133 $-1 #
coedge $-1 $344 $135 $346 $347 reversed $84 $-1 #
coedge $-1 $135 $344 $348 $349 reversed $84 $-1 #
coedge $-1 $350 $351 $135 $217 forward $211 $-1 #
edge $-1 $352 -33.470769832749838 $353 33.470769832749838 $135 $354 forward 7 unknown #
face $-1 $355 $356 $50 $-1 $357 forward single #
loop $-1 $-1 $358 $136 #
plane-surface $-1 0 -33.470769832749838 0 0 1 0 0 0 1 forward_v I I I I #
coedge $-1 $359 $360 $361 $362 reversed $137 $-1 #
coedge $-1 $363 $139 $364 $365 forward $87 $-1 #
coedge $-1 $139 $363 $359 $366 forward $87 $-1 #
coedge $-1 $361 $358 $139 $225 forward $219 $-1 #
edge $-1 $367 -32.885919832493869 $368 -8.9693505740006891 $224 $369 forward 7 unknown #
loop $-1 $-1 $231 $140 #
plane-surface $-1 -41.855270406494554 -33.470769832749838 9.13471433325698 0 -0.75470958851134928 0.65605901945558964 1 0 0 forward_v I I I I #
loop $-1 $-1 $370 $89 #
coedge $-1 $229 $229 $230 $371 reversed $141 $-1 #
coedge $-1 $230 $230 $229 $371 forward $143 $-1 #
coedge $-1 $231 $231 $144 $232 forward $226 $-1 #
edge $-1 $372 -1.127407176945957e-015 $372 6.2831853071795996 $231 $373 forward 7 unknown #
loop $-1 $-1 $238 $145 #
plane-surface $-1 -41.855270406494554 -33.470769832749838 9.13471433325698 0 -0.75470958851134928 0.65605901945558964 1 0 0 forward_v I I I I #
loop $-1 $-1 $374 $92 #
coedge $-1 $236 $236 $237 $375 reversed $146 $-1 #
coedge $-1 $237 $237 $236 $375 forward $148 $-1 #
coedge $-1 $238 $238 $149 $239 forward $233 $-1 #
edge $-1 $376 -1.127407176945957e-015 $376 6.2831853071795996 $238 $377 forward 7 unknown #
loop $-1 $-1 $245 $150 #
plane-surface $-1 -41.855270406494554 -33.470769832749838 9.13471433325698 0 -0.75470958851134928 0.65605901945558964 1 0 0 forward_v I I I I #
loop $-1 $-1 $378 $95 #
coedge $-1 $243 $243 $244 $379 reversed $151 $-1 #
coedge $-1 $244 $244 $243 $379 forward $153 $-1 #
coedge $-1 $245 $245 $154 $246 forward $240 $-1 #
edge $-1 $380 -1.127407176945957e-015 $380 6.2831853071795996 $245 $381 forward 7 unknown #
face $-1 $382 $383 $54 $-1 $384 forward single #
loop $-1 $-1 $385 $155 #
plane-surface $-1 29.221468122348124 -130.7126139420011 93.665757621319457 -1 0 0 0 -0.75470958851134928 0.65605901945558964 forward_v I I I I #
coedge $-1 $386 $387 $388 $389 reversed $156 $-1 #
coedge $-1 $252 $158 $390 $391 reversed $99 $-1 #
coedge $-1 $158 $251 $386 $392 reversed $99 $-1 #
coedge $-1 $388 $393 $158 $254 forward $394 $-1 #
edge $-1 $395 31.536552109573911 $396 37.698164477402749 $253 $397 forward 7 unknown #
loop $-1 $-1 $260 $159 #
plane-surface $-1 17.263183493101536 -33.470769832749838 9.13471433325698 0 -0.75470958851134928 0.65605901945558964 1 0 0 forward_v I I I I #
loop $-1 $-1 $398 $101 #
coedge $-1 $258 $258 $259 $399 reversed $160 $-1 #
coedge $-1 $259 $259 $258 $399 forward $162 $-1 #
coedge $-1 $260 $260 $163 $261 forward $255 $-1 #
edge $-1 $400 -1.127407176945957e-015 $400 6.2831853071795996 $260 $401 forward 7 unknown #
loop $-1 $-1 $267 $164 #
plane-surface $-1 17.263183493101536 -33.470769832749838 9.13471433325698 0 -0.75470958851134928 0.65605901945558964 1 0 0 forward_v I I I I #
loop $-1 $-1 $402 $104 #
coedge $-1 $265 $265 $266 $403 reversed $165 $-1 #
coedge $-1 $266 $266 $265 $403 forward $167 $-1 #
coedge $-1 $267 $267 $168 $268 forward $262 $-1 #
edge $-1 $404 -1.127407176945957e-015 $404 6.2831853071795996 $267 $405 forward 7 unknown #
loop $-1 $-1 $274 $169 #
plane-surface $-1 17.263183493101536 -33.470769832749838 9.13471433325698 0 -0.75470958851134928 0.65605901945558964 1 0 0 forward_v I I I I #
loop $-1 $-1 $406 $107 #
coedge $-1 $272 $272 $273 $407 reversed $170 $-1 #
coedge $-1 $273 $273 $272 $407 forward $172 $-1 #
coedge $-1 $274 $274 $173 $275 forward $269 $-1 #
edge $-1 $408 -1.127407176945957e-015 $408 6.2831853071795996 $274 $409 forward 7 unknown #
face $-1 $410 $411 $58 $-1 $412 reversed single #
loop $-1 $-1 $413 $174 #
plane-surface $-1 -21.815237114536398 89.143882074293757 143.9144540895503 -1 0 0 0 0.7660444514056185 0.64278759981090561 forward_v I I I I #
coedge $-1 $414 $415 $416 $417 reversed $175 $-1 #
coedge $-1 $281 $177 $418 $419 reversed $111 $-1 #
coedge $-1 $177 $280 $414 $420 reversed $111 $-1 #
coedge $-1 $416 $421 $177 $283 forward $422 $-1 #
edge $-1 $423 11.101171204397041 $424 15.702065315846625 $282 $425 forward 7 unknown #
loop $-1 $-1 $289 $178 #
plane-surface $-1 -31.738376140012591 -9.5584217764832147 61.093389500370378 0 0.7660444514056185 0.64278759981090561 1 0 0 forward_v I I I I #
loop $-1 $-1 $426 $113 #
coedge $-1 $287 $287 $288 $427 reversed $179 $-1 #
coedge $-1 $288 $288 $287 $427 forward $181 $-1 #
coedge $-1 $289 $289 $182 $290 forward $284 $-1 #
edge $-1 $428 -9.3856512871913786e-016 $428 6.2831853071795996 $289 $429 forward 7 unknown #
loop $-1 $-1 $296 $183 #
plane-surface $-1 -31.738376140012591 -9.5584217764832147 61.093389500370378 0 0.7660444514056185 0.64278759981090561 1 0 0 forward_v I I I I #
loop $-1 $-1 $430 $116 #
coedge $-1 $294 $294 $295 $431 reversed $184 $-1 #
coedge $-1 $295 $295 $294 $431 forward $186 $-1 #
coedge $-1 $296 $296 $187 $297 forward $291 $-1 #
edge $-1 $432 -9.3856512871913786e-016 $432 6.2831853071795996 $296 $433 forward 7 unknown #
face $-1 $434 $435 $61 $-1 $436 forward single #
loop $-1 $-1 $437 $188 #
plane-surface $-1 37.303216785059689 89.143882074293757 143.9144540895503 -1 0 0 0 0.7660444514056185 0.64278759981090561 forward_v I I I I #
coedge $-1 $438 $439 $440 $441 reversed $189 $-1 #
coedge $-1 $303 $191 $442 $443 reversed $120 $-1 #
coedge $-1 $191 $302 $438 $444 reversed $120 $-1 #
coedge $-1 $440 $445 $191 $305 forward $435 $-1 #
edge $-1 $446 11.101171204397041 $447 15.702065315846625 $304 $448 forward 7 unknown #
loop $-1 $-1 $311 $192 #
plane-surface $-1 27.3800777595835 -9.5584217764832147 61.093389500370378 0 0.7660444514056185 0.64278759981090561 1 0 0 forward_v I I I I #
loop $-1 $-1 $449 $122 #
coedge $-1 $309 $309 $310 $450 reversed $193 $-1 #
coedge $-1 $310 $310 $309 $450 forward $195 $-1 #
coedge $-1 $311 $311 $196 $312 forward $306 $-1 #
edge $-1 $451 -9.3856512871913786e-016 $451 6.2831853071795996 $311 $452 forward 7 unknown #
loop $-1 $-1 $318 $197 #
plane-surface $-1 27.3800777595835 -9.5584217764832147 61.093389500370378 0 0.7660444514056185 0.64278759981090561 1 0 0 forward_v I I I I #
loop $-1 $-1 $453 $125 #
coedge $-1 $316 $316 $317 $454 reversed $198 $-1 #
coedge $-1 $317 $317 $316 $454 forward $200 $-1 #
coedge $-1 $318 $318 $201 $319 forward $313 $-1 #
edge $-1 $455 -9.3856512871913786e-016 $455 6.2831853071795996 $318 $456 forward 7 unknown #
face $-1 $457 $458 $48 $-1 $459 reversed single #
loop $-1 $-1 $460 $202 #
plane-surface $-1 -64.423352763451035 0 0 1 0 0 0 0 -1 forward_v I I I I #
coedge $-1 $461 $331 $462 $463 forward $203 $-1 #
coedge $-1 $464 $205 $461 $465 forward $129 $-1 #
coedge $-1 $205 $464 $466 $467 forward $129 $-1 #
coedge $-1 $334 $333 $205 $327 reversed $335 $-1 #
edge $-1 $468 -33.470769832749838 $469 33.470769832749838 $326 $470 forward 7 unknown #
coedge $-1 $207 $206 $471 $472 forward $81 $-1 #
coedge $-1 $473 $474 $206 $330 reversed $458 $-1 #
edge $-1 $337 -64.423352763451035 $475 64.423352763451035 $329 $476 forward 7 unknown #
coedge $-1 $323 $477 $207 $332 reversed $203 $-1 #
edge $-1 $478 -64.423352763451035 $336 64.423352763451035 $331 $479 forward 7 unknown #
coedge $-1 $326 $208 $477 $480 forward $335 $-1 #
coedge $-1 $208 $326 $473 $481 reversed $335 $-1 #
loop $-1 $-1 $333 $457 #
vertex $-1 $209 $482 #
vertex $-1 $209 $483 #
straight-curve $-1 64.423352763451035 0 15.296326701085817 0 1 0 I I #
face $-1 $484 $485 $49 $-1 $486 reversed single #
loop $-1 $-1 $487 $210 #
plane-surface $-1 0 -33.470769832749838 0 0 1 0 0 0 1 forward_v I I I I #
coedge $-1 $488 $213 $489 $490 reversed $133 $-1 #
coedge $-1 $213 $488 $491 $492 reversed $133 $-1 #
coedge $-1 $215 $214 $213 $345 reversed $84 $-1 #
edge $-1 $493 -33.470769832749838 $494 33.470769832749838 $344 $495 forward 7 unknown #
coedge $-1 $496 $489 $214 $347 forward $497 $-1 #
edge $-1 $494 -8.5710280015681182 $352 -3.8795693974672769 $346 $498 forward 7 unknown #
coedge $-1 $491 $487 $215 $349 forward $340 $-1 #
edge $-1 $353 3.8795693974672769 $493 8.5710280015681182 $348 $499 forward 7 unknown #
coedge $-1 $500 $216 $487 $501 reversed $211 $-1 #
coedge $-1 $216 $500 $496 $502 reversed $211 $-1 #
vertex $-1 $502 $503 #
vertex $-1 $501 $504 #
straight-curve $-1 -53.813555035741132 0 10.104868096984974 0 -1 0 I I #
face $-1 $-1 $505 $50 $-1 $506 forward single #
loop $-1 $-1 $364 $218 #
plane-surface $-1 -53.813555035741132 0 12.450597399035395 -1 0 0 0 0 1 forward_v I I I I #
coedge $-1 $224 $507 $508 $509 forward $219 $-1 #
coedge $-1 $360 $221 $223 $366 reversed $137 $-1 #
coedge $-1 $221 $359 $510 $511 reversed $137 $-1 #
coedge $-1 $507 $224 $221 $362 forward $219 $-1 #
edge $-1 $368 -37.698164477402749 $512 -31.536552109573911 $361 $513 forward 7 unknown #
coedge $-1 $223 $222 $514 $515 reversed $87 $-1 #
coedge $-1 $508 $516 $222 $365 reversed $356 $-1 #
edge $-1 $367 0 $517 8.1642163576886659 $364 $518 forward 7 unknown #
edge $-1 $519 -8.1642163576886659 $368 0 $359 $520 forward 7 unknown #
vertex $-1 $225 $521 #
vertex $-1 $225 $522 #
straight-curve $-1 -20.927635203247277 -33.470769832749838 9.1347143332569765 1 0 0 I I #
coedge $-1 $370 $370 $-1 $523 reversed $228 $-1 #
edge $-1 $524 0 $524 6.2831853071796004 $229 $525 forward 7 unknown #
vertex $-1 $232 $526 #
ellipse-curve $-1 -49.030241184042502 -30.792665943625583 12.215520517171399 0 -0.75470958851134928 0.65605901945558964 1.5 0 0 1 I I #
coedge $-1 $374 $374 $-1 $527 reversed $235 $-1 #
edge $-1 $528 0 $528 6.2831853071796004 $236 $529 forward 7 unknown #
vertex $-1 $239 $530 #
ellipse-curve $-1 -41.855270406494554 -30.792665943625583 12.215520517171399 0 -0.75470958851134928 0.65605901945558964 1.5 0 0 1 I I #
coedge $-1 $378 $378 $-1 $531 reversed $242 $-1 #
edge $-1 $532 0 $532 6.2831853071796004 $243 $533 forward 7 unknown #
vertex $-1 $246 $534 #
ellipse-curve $-1 -34.680299628946599 -30.792665943625583 12.215520517171399 0 -0.75470958851134928 0.65605901945558964 1.5 0 0 1 I I #
face $-1 $-1 $394 $54 $-1 $535 reversed single #
loop $-1 $-1 $536 $247 #
plane-surface $-1 0 0 15.296326701085817 0 0 1 1 0 0 forward_v I I I I #
coedge $-1 $537 $538 $539 $540 reversed $248 $-1 #
coedge $-1 $541 $250 $252 $392 forward $156 $-1 #
coedge $-1 $250 $541 $537 $542 forward $156 $-1 #
coedge $-1 $539 $253 $250 $389 forward $394 $-1 #
edge $-1 $396 -3.32669288269582 $543 20.589876375797356 $388 $544 forward 7 unknown #
coedge $-1 $545 $546 $251 $391 forward $383 $-1 #
edge $-1 $547 -37.241744916499222 $395 -31.885537138250712 $390 $548 forward 7 unknown #
edge $-1 $396 0 $547 8.1642163576886659 $252 $549 forward 7 unknown #
coedge $-1 $253 $539 $545 $550 reversed $394 $-1 #
loop $-1 $-1 $539 $382 #
vertex $-1 $550 $551 #
vertex $-1 $254 $552 #
straight-curve $-1 5.3048988638549481 -33.470769832749838 46.832878810659729 0 0 -1 I I #
coedge $-1 $398 $398 $-1 $553 reversed $257 $-1 #
edge $-1 $554 0 $554 6.2831853071796004 $258 $555 forward 7 unknown #
vertex $-1 $261 $556 #
ellipse-curve $-1 10.088212715553581 -30.792665943625583 12.215520517171399 0 -0.75470958851134928 0.65605901945558964 1.5 0 0 1 I I #
coedge $-1 $402 $402 $-1 $557 reversed $264 $-1 #
edge $-1 $558 0 $558 6.2831853071796004 $265 $559 forward 7 unknown #
vertex $-1 $268 $560 #
ellipse-curve $-1 17.263183493101536 -30.792665943625583 12.215520517171399 0 -0.75470958851134928 0.65605901945558964 1.5 0 0 1 I I #
coedge $-1 $406 $406 $-1 $561 reversed $271 $-1 #
edge $-1 $562 0 $562 6.2831853071796004 $272 $563 forward 7 unknown #
vertex $-1 $275 $564 #
ellipse-curve $-1 24.438154270649491 -30.792665943625583 12.215520517171399 0 -0.75470958851134928 0.65605901945558964 1.5 0 0 1 I I #
face $-1 $-1 $422 $58 $-1 $565 forward single #
loop $-1 $-1 $566 $276 #
plane-surface $-1 0 33.470769832749838 0 0 -1 0 0 0 -1 forward_v I I I I #
coedge $-1 $567 $568 $569 $570 reversed $277 $-1 #
coedge $-1 $571 $279 $281 $420 forward $175 $-1 #
coedge $-1 $279 $571 $567 $572 forward $175 $-1 #
coedge $-1 $569 $282 $279 $417 forward $422 $-1 #
edge $-1 $424 -25.792327095482484 $573 -5.9460490445301026 $416 $574 forward 7 unknown #
coedge $-1 $575 $576 $280 $419 forward $411 $-1 #
edge $-1 $577 -62.1440325737099 $423 -56.660900343689335 $418 $578 forward 7 unknown #
edge $-1 $424 59.783818961486283 $577 66.941539665499675 $281 $579 forward 7 unknown #
coedge $-1 $282 $569 $575 $580 forward $422 $-1 #
loop $-1 $-1 $569 $410 #
vertex $-1 $419 $581 #
vertex $-1 $283 $582 #
straight-curve $-1 -41.66151516548878 44.571941037146878 15.296326701085817 0 -1 0 I I #
coedge $-1 $426 $426 $-1 $583 reversed $286 $-1 #
edge $-1 $584 0 $584 6.2831853071796004 $287 $585 forward 7 unknown #
vertex $-1 $290 $586 #
ellipse-curve $-1 -35.991150008073816 31.170322777025039 12.554760586075531 0 0.7660444514056185 0.64278759981090561 1.5 0 0 1 I I #
coedge $-1 $430 $430 $-1 $587 reversed $293 $-1 #
edge $-1 $588 0 $588 6.2831853071796004 $294 $589 forward 7 unknown #
vertex $-1 $297 $590 #
ellipse-curve $-1 -27.485602271951365 31.170322777025039 12.554760586075531 0 0.7660444514056185 0.64278759981090561 1.5 0 0 1 I I #
face $-1 $-1 $591 $61 $-1 $592 reversed single #
loop $-1 $-1 $304 $298 #
plane-surface $-1 0 0 15.296326701085817 0 0 1 1 0 0 forward_v I I I I #
coedge $-1 $593 $594 $595 $596 reversed $299 $-1 #
coedge $-1 $597 $301 $303 $444 forward $189 $-1 #
coedge $-1 $301 $597 $593 $598 forward $189 $-1 #
coedge $-1 $595 $304 $301 $441 forward $435 $-1 #
edge $-1 $447 3.7668998543155574 $599 23.613177905267939 $440 $600 forward 7 unknown #
coedge $-1 $601 $602 $302 $443 forward $591 $-1 #
edge $-1 $603 -62.1440325737099 $446 -56.660900343689335 $442 $604 forward 7 unknown #
edge $-1 $447 59.783818961486283 $603 66.941539665499675 $303 $605 forward 7 unknown #
coedge $-1 $304 $595 $601 $606 forward $435 $-1 #
vertex $-1 $305 $607 #
vertex $-1 $305 $608 #
straight-curve $-1 17.456938734107307 44.571941037146878 15.296326701085817 0 -1 0 I I #
coedge $-1 $449 $449 $-1 $609 reversed $308 $-1 #
edge $-1 $610 0 $610 6.2831853071796004 $309 $611 forward 7 unknown #
vertex $-1 $312 $612 #
ellipse-curve $-1 23.12730389152226 31.170322777025039 12.554760586075531 0 0.7660444514056185 0.64278759981090561 1.5 0 0 1 I I #
coedge $-1 $453 $453 $-1 $613 reversed $315 $-1 #
edge $-1 $614 0 $614 6.2831853071796004 $316 $615 forward 7 unknown #
vertex $-1 $319 $616 #
ellipse-curve $-1 31.632851627644712 31.170322777025039 12.554760586075531 0 0.7660444514056185 0.64278759981090561 1.5 0 0 1 I I #
face $-1 $-1 $335 $48 $-1 $617 reversed single #
loop $-1 $-1 $473 $320 #
plane-surface $-1 0 33.470769832749838 0 0 -1 0 0 0 -1 forward_v I I I I #
coedge $-1 $618 $471 $474 $619 forward $321 $-1 #
coedge $-1 $477 $323 $324 $465 reversed $203 $-1 #
coedge $-1 $471 $618 $323 $463 reversed $321 $-1 #
edge $-1 $478 -15.296326701085817 $620 15.296326701085817 $462 $621 forward 7 unknown #
coedge $-1 $325 $324 $618 $622 forward $129 $-1 #
edge $-1 $469 -64.423352763451035 $620 64.423352763451035 $461 $623 forward 7 unknown #
coedge $-1 $474 $473 $325 $467 reversed $458 $-1 #
edge $-1 $624 -64.423352763451035 $468 64.423352763451035 $466 $625 forward 7 unknown #
vertex $-1 $327 $626 #
vertex $-1 $480 $627 #
straight-curve $-1 64.423352763451035 0 -15.296326701085817 0 -1 0 I I #
coedge $-1 $460 $462 $328 $472 reversed $321 $-1 #
edge $-1 $475 -33.470769832749838 $478 33.470769832749838 $471 $628 forward 7 unknown #
coedge $-1 $466 $329 $334 $481 forward $458 $-1 #
coedge $-1 $329 $466 $460 $619 reversed $458 $-1 #
vertex $-1 $330 $629 #
straight-curve $-1 0 33.470769832749838 15.296326701085817 -1 0 0 I I #
coedge $-1 $331 $461 $333 $480 reversed $203 $-1 #
vertex $-1 $472 $630 #
straight-curve $-1 0 -33.470769832749838 15.296326701085817 1 0 0 I I #
edge $-1 $336 -15.296326701085817 $469 15.296326701085817 $333 $631 forward 7 unknown #
edge $-1 $337 -15.296326701085817 $468 15.296326701085817 $334 $632 forward 7 unknown #
point $-1 64.423352763451035 -33.470769832749838 15.296326701085817 #
point $-1 64.423352763451035 33.470769832749838 15.296326701085817 #
face $-1 $-1 $497 $49 $-1 $633 reversed single #
loop $-1 $-1 $634 $339 #
plane-surface $-1 -64.423352763451035 0 0 1 0 0 0 0 -1 forward_v I I I I #
coedge $-1 $348 $635 $350 $501 forward $340 $-1 #
coedge $-1 $343 $342 $636 $637 reversed $133 $-1 #
coedge $-1 $346 $638 $342 $490 forward $497 $-1 #
edge $-1 $639 -34.86412581365299 $494 -24.25432808594309 $489 $640 forward 7 unknown #
coedge $-1 $635 $348 $343 $492 forward $340 $-1 #
edge $-1 $493 24.25432808594309 $641 34.86412581365299 $491 $642 forward 7 unknown #
vertex $-1 $492 $643 #
vertex $-1 $490 $644 #
straight-curve $-1 -53.813555035741132 0 14.796326701085816 0 1 0 I I #
coedge $-1 $638 $346 $351 $502 forward $497 $-1 #
loop $-1 $-1 $496 $484 #
straight-curve $-1 -53.813555035741132 33.470769832749838 6.2252986995176975 0 0 -1 I I #
straight-curve $-1 -53.813555035741132 -33.470769832749838 6.2252986995176975 0 0 1 I I #
coedge $-1 $351 $350 $634 $645 reversed $211 $-1 #
edge $-1 $646 -34.86412581365299 $353 -24.25432808594309 $487 $647 forward 7 unknown #
edge $-1 $352 24.25432808594309 $648 34.86412581365299 $496 $649 forward 7 unknown #
point $-1 -53.813555035741132 33.470769832749838 10.104868096984974 #
point $-1 -53.813555035741132 -33.470769832749838 10.104868096984974 #
loop $-1 $-1 $650 $355 #
plane-surface $-1 0 0 15.296326701085817 0 0 1 1 0 0 forward_v I I I I #
coedge $-1 $358 $361 $651 $652 reversed $219 $-1 #
coedge $-1 $516 $364 $358 $509 reversed $356 $-1 #
edge $-1 $653 31.536552109573911 $367 37.698164477402749 $358 $654 forward 7 unknown #
coedge $-1 $514 $651 $360 $511 forward $505 $-1 #
edge $-1 $512 31.885537138250712 $519 37.241744916499222 $510 $655 forward 7 unknown #
vertex $-1 $362 $656 #
straight-curve $-1 -29.896985777247966 -33.470769832749838 46.832878810659729 0 0 1 I I #
coedge $-1 $650 $510 $363 $515 forward $505 $-1 #
edge $-1 $519 8.9693505740006891 $517 32.885919832493869 $514 $657 forward 7 unknown #
coedge $-1 $364 $508 $650 $658 reversed $356 $-1 #
vertex $-1 $658 $659 #
straight-curve $-1 -53.813555035741146 -33.470769832749838 9.13471433325698 0 0.65605901945558964 0.75470958851134928 I I #
vertex $-1 $515 $660 #
straight-curve $-1 -29.896985777247966 -33.470769832749838 9.13471433325698 0 -0.65605901945558964 -0.75470958851134928 I I #
point $-1 -53.813555035741146 -33.470769832749838 9.13471433325698 #
point $-1 -29.896985777247966 -33.470769832749838 9.13471433325698 #
edge $-1 $661 1 $661 0 $370 $-1 forward 7 unknown #
vertex $-1 $371 $662 #
ellipse-curve $-1 -49.030241184042502 -28.781262510283696 10.467034232783824 0 -0.75470958851134928 0.65605901945558964 1.5 0 0 1 I I #
point $-1 -47.530241184042502 -30.792665943625579 12.215520517171393 #
edge $-1 $663 1 $663 0 $374 $-1 forward 7 unknown #
vertex $-1 $375 $664 #
ellipse-curve $-1 -41.855270406494554 -28.781262510283696 10.467034232783824 0 -0.75470958851134928 0.65605901945558964 1.5 0 0 1 I I #
point $-1 -40.355270406494554 -30.792665943625579 12.215520517171393 #
edge $-1 $665 1 $665 0 $378 $-1 forward 7 unknown #
vertex $-1 $379 $666 #
ellipse-curve $-1 -34.680299628946599 -28.781262510283696 10.467034232783824 0 -0.75470958851134928 0.65605901945558964 1.5 0 0 1 I I #
point $-1 -33.180299628946599 -30.792665943625579 12.215520517171393 #
plane-surface $-1 0 -33.470769832749838 0 0 1 0 0 0 1 forward_v I I I I #
coedge $-1 $546 $545 $538 $667 forward $383 $-1 #
coedge $-1 $538 $385 $387 $542 reversed $248 $-1 #
coedge $-1 $385 $537 $536 $667 reversed $248 $-1 #
coedge $-1 $393 $388 $385 $540 forward $394 $-1 #
edge $-1 $543 -37.698164477402749 $668 -31.536552109573911 $539 $669 forward 7 unknown #
coedge $-1 $387 $386 $546 $670 reversed $156 $-1 #
edge $-1 $671 -8.1642163576886659 $543 0 $537 $672 forward 7 unknown #
vertex $-1 $389 $673 #
straight-curve $-1 8.6315917465507681 -33.470769832749838 9.1347143332569765 1 0 0 I I #
coedge $-1 $536 $390 $393 $550 forward $383 $-1 #
coedge $-1 $390 $536 $541 $670 forward $383 $-1 #
vertex $-1 $391 $674 #
straight-curve $-1 5.3048988638549481 -65.356306971000549 15.296326701085817 0 -1 0 I I #
straight-curve $-1 5.3048988638549481 -33.470769832749838 9.13471433325698 0 0.65605901945558964 0.75470958851134928 I I #
edge $-1 $395 5.3048988638549481 $668 29.221468122348124 $393 $675 forward 7 unknown #
point $-1 5.3048988638549481 -33.470769832749838 15.296326701085817 #
point $-1 5.3048988638549481 -33.470769832749838 9.13471433325698 #
edge $-1 $676 1 $676 0 $398 $-1 forward 7 unknown #
vertex $-1 $399 $677 #
ellipse-curve $-1 10.088212715553581 -28.781262510283696 10.467034232783824 0 -0.75470958851134928 0.65605901945558964 1.5 0 0 1 I I #
point $-1 11.588212715553581 -30.792665943625579 12.215520517171393 #
edge $-1 $678 1 $678 0 $402 $-1 forward 7 unknown #
vertex $-1 $403 $679 #
ellipse-curve $-1 17.263183493101536 -28.781262510283696 10.467034232783824 0 -0.75470958851134928 0.65605901945558964 1.5 0 0 1 I I #
point $-1 18.763183493101536 -30.792665943625579 12.215520517171393 #
edge $-1 $680 1 $680 0 $406 $-1 forward 7 unknown #
vertex $-1 $407 $681 #
ellipse-curve $-1 24.438154270649491 -28.781262510283696 10.467034232783824 0 -0.75470958851134928 0.65605901945558964 1.5 0 0 1 I I #
point $-1 25.938154270649491 -30.792665943625579 12.215520517171393 #
plane-surface $-1 0 0 15.296326701085817 0 0 1 1 0 0 forward_v I I I I #
coedge $-1 $576 $575 $568 $682 forward $411 $-1 #
coedge $-1 $568 $413 $415 $572 reversed $277 $-1 #
coedge $-1 $413 $567 $566 $682 reversed $277 $-1 #
coedge $-1 $421 $416 $413 $570 forward $422 $-1 #
edge $-1 $573 -15.702065315846625 $683 -11.101171204397041 $569 $684 forward 7 unknown #
coedge $-1 $415 $414 $576 $685 reversed $175 $-1 #
edge $-1 $686 -66.941539665499675 $573 -59.783818961486283 $567 $687 forward 7 unknown #
vertex $-1 $417 $688 #
straight-curve $-1 -15.869188070006295 28.86987572130025 15.296326701085821 1 0 0 I I #
coedge $-1 $566 $418 $421 $580 reversed $411 $-1 #
coedge $-1 $418 $566 $571 $685 forward $411 $-1 #
vertex $-1 $419 $689 #
straight-curve $-1 -41.66151516548878 33.470769832749838 71.957227044775152 0 0 1 I I #
straight-curve $-1 -41.66151516548878 -9.5584217764832147 61.093389500370378 0 0.64278759981090561 -0.7660444514056185 I I #
edge $-1 $683 21.815237114536398 $423 41.66151516548878 $575 $690 forward 7 unknown #
point $-1 -41.66151516548878 33.470769832749838 15.296326701085817 #
point $-1 -41.66151516548878 28.869875721300254 15.296326701085817 #
edge $-1 $691 1 $691 0 $426 $-1 forward 7 unknown #
vertex $-1 $427 $692 #
ellipse-curve $-1 -35.991150008073816 29.951821851414305 11.532316935575192 0 0.7660444514056185 0.64278759981090561 1.5 0 0 1 I I #
point $-1 -34.491150008073816 31.170322777025028 12.554760586075524 #
edge $-1 $693 1 $693 0 $430 $-1 forward 7 unknown #
vertex $-1 $431 $694 #
ellipse-curve $-1 -27.485602271951365 29.951821851414305 11.532316935575192 0 0.7660444514056185 0.64278759981090561 1.5 0 0 1 I I #
point $-1 -25.985602271951365 31.170322777025028 12.554760586075524 #
loop $-1 $-1 $442 $434 #
plane-surface $-1 0 33.470769832749838 0 0 -1 0 0 0 -1 forward_v I I I I #
coedge $-1 $594 $437 $439 $598 reversed $299 $-1 #
coedge $-1 $437 $593 $695 $696 reversed $299 $-1 #
coedge $-1 $445 $440 $437 $596 forward $435 $-1 #
edge $-1 $599 -15.702065315846625 $697 -11.101171204397041 $595 $698 forward 7 unknown #
coedge $-1 $439 $438 $602 $699 reversed $189 $-1 #
edge $-1 $700 -66.941539665499675 $599 -59.783818961486283 $593 $701 forward 7 unknown #
vertex $-1 $441 $702 #
straight-curve $-1 13.69003887979175 28.86987572130025 15.296326701085821 1 0 0 I I #
coedge $-1 $695 $442 $445 $606 reversed $591 $-1 #
coedge $-1 $442 $695 $597 $699 forward $591 $-1 #
vertex $-1 $443 $703 #
straight-curve $-1 17.456938734107307 33.470769832749838 71.957227044775152 0 0 1 I I #
straight-curve $-1 17.456938734107307 -9.5584217764832147 61.093389500370378 0 0.64278759981090561 -0.7660444514056185 I I #
edge $-1 $697 -37.303216785059689 $446 -17.456938734107307 $601 $704 forward 7 unknown #
point $-1 17.456938734107307 33.470769832749838 15.296326701085817 #
point $-1 17.456938734107307 28.869875721300254 15.296326701085817 #
edge $-1 $705 1 $705 0 $449 $-1 forward 7 unknown #
vertex $-1 $450 $706 #
ellipse-curve $-1 23.12730389152226 29.951821851414305 11.532316935575192 0 0.7660444514056185 0.64278759981090561 1.5 0 0 1 I I #
point $-1 24.62730389152226 31.170322777025028 12.554760586075524 #
edge $-1 $707 1 $707 0 $453 $-1 forward 7 unknown #
vertex $-1 $454 $708 #
ellipse-curve $-1 31.632851627644712 29.951821851414305 11.532316935575192 0 0.7660444514056185 0.64278759981090561 1.5 0 0 1 I I #
point $-1 33.132851627644712 31.170322777025028 12.554760586075524 #
plane-surface $-1 64.423352763451035 0 0 -1 0 0 0 0 1 forward_v I I I I #
coedge $-1 $462 $460 $464 $622 reversed $321 $-1 #
edge $-1 $475 -15.296326701085817 $624 15.296326701085817 $474 $709 forward 7 unknown #
vertex $-1 $622 $710 #
straight-curve $-1 -64.423352763451035 -33.470769832749838 0 0 0 -1 I I #
edge $-1 $620 -33.470769832749838 $624 33.470769832749838 $618 $711 forward 7 unknown #
straight-curve $-1 0 -33.470769832749838 -15.296326701085817 -1 0 0 I I #
vertex $-1 $467 $712 #
straight-curve $-1 0 33.470769832749838 -15.296326701085817 1 0 0 I I #
point $-1 64.423352763451035 33.470769832749838 -15.296326701085817 #
point $-1 64.423352763451035 -33.470769832749838 -15.296326701085817 #
straight-curve $-1 -64.423352763451035 0 15.296326701085817 0 -1 0 I I #
point $-1 -64.423352763451035 33.470769832749838 15.296326701085817 #
point $-1 -64.423352763451035 -33.470769832749838 15.296326701085817 #
straight-curve $-1 64.423352763451035 -33.470769832749838 0 0 0 -1 I I #
straight-curve $-1 64.423352763451035 33.470769832749838 0 0 0 -1 I I #
plane-surface $-1 0 33.470769832749838 0 0 -1 0 0 0 -1 forward_v I I I I #
coedge $-1 $713 $714 $500 $645 forward $485 $-1 #
coedge $-1 $487 $491 $713 $715 forward $340 $-1 #
coedge $-1 $714 $713 $488 $637 forward $485 $-1 #
edge $-1 $641 -33.470769832749838 $639 33.470769832749838 $636 $716 forward 7 unknown #
coedge $-1 $489 $496 $714 $717 reversed $497 $-1 #
vertex $-1 $717 $718 #
straight-curve $-1 -29.559226949798042 33.470769832749838 14.796326701085816 1 0 0 I I #
vertex $-1 $715 $719 #
straight-curve $-1 -29.559226949798042 -33.470769832749838 14.796326701085816 -1 0 0 I I #
point $-1 -53.813555035741132 -33.470769832749838 14.796326701085816 #
point $-1 -53.813555035741132 33.470769832749838 14.796326701085816 #
edge $-1 $648 -33.470769832749838 $646 33.470769832749838 $634 $720 forward 7 unknown #
vertex $-1 $501 $721 #
straight-curve $-1 -29.559226949798042 -33.470769832749838 10.104868096984974 1 0 0 I I #
vertex $-1 $502 $722 #
straight-curve $-1 -29.559226949798042 33.470769832749838 10.104868096984974 -1 0 0 I I #
coedge $-1 $651 $514 $516 $658 forward $505 $-1 #
coedge $-1 $510 $650 $507 $652 forward $505 $-1 #
edge $-1 $653 -53.813555035741146 $512 -29.896985777247966 $507 $723 forward 7 unknown #
vertex $-1 $652 $724 #
straight-curve $-1 -53.813555035741146 -33.470769832749838 46.832878810659729 0 0 -1 I I #
straight-curve $-1 -29.896985777247966 -65.356306971000549 15.296326701085817 0 1 0 I I #
point $-1 -29.896985777247966 -33.470769832749838 15.296326701085817 #
straight-curve $-1 -20.927635203247277 -28.114562054501327 15.296326701085817 -1 0 0 I I #
edge $-1 $517 -37.241744916499222 $653 -31.885537138250712 $650 $725 forward 7 unknown #
point $-1 -53.813555035741146 -28.114562054501327 15.296326701085817 #
point $-1 -29.896985777247966 -28.114562054501327 15.296326701085817 #
vertex $-1 $523 $726 #
point $-1 -47.530241184042502 -28.781262510283696 10.467034232783824 #
vertex $-1 $527 $727 #
point $-1 -40.355270406494554 -28.781262510283696 10.467034232783824 #
vertex $-1 $531 $728 #
point $-1 -33.180299628946599 -28.781262510283696 10.467034232783824 #
edge $-1 $668 31.885537138250712 $671 37.241744916499222 $536 $729 forward 7 unknown #
vertex $-1 $667 $730 #
straight-curve $-1 29.221468122348124 -33.470769832749838 46.832878810659729 0 0 1 I I #
edge $-1 $671 -20.589876375797356 $547 3.32669288269582 $546 $731 forward 7 unknown #
vertex $-1 $670 $732 #
straight-curve $-1 29.221468122348124 -33.470769832749838 9.13471433325698 0 -0.65605901945558964 -0.75470958851134928 I I #
point $-1 29.221468122348124 -33.470769832749838 9.13471433325698 #
point $-1 5.3048988638549481 -28.114562054501327 15.296326701085817 #
straight-curve $-1 0 -33.470769832749838 15.296326701085817 1 0 0 I I #
vertex $-1 $553 $733 #
point $-1 11.588212715553581 -28.781262510283696 10.467034232783824 #
vertex $-1 $557 $734 #
point $-1 18.763183493101536 -28.781262510283696 10.467034232783824 #
vertex $-1 $561 $735 #
point $-1 25.938154270649491 -28.781262510283696 10.467034232783824 #
edge $-1 $683 56.660900343689335 $686 62.1440325737099 $566 $736 forward 7 unknown #
vertex $-1 $580 $737 #
straight-curve $-1 -21.815237114536398 44.571941037146878 15.296326701085817 0 1 0 I I #
edge $-1 $686 5.9460490445301026 $577 25.792327095482484 $576 $738 forward 7 unknown #
vertex $-1 $685 $739 #
straight-curve $-1 -21.815237114536398 -9.5584217764832147 61.093389500370378 0 -0.64278759981090561 0.7660444514056185 I I #
point $-1 -21.815237114536398 28.869875721300254 15.296326701085817 #
point $-1 -41.66151516548878 33.470769832749838 9.8131944710652519 #
straight-curve $-1 0 33.470769832749838 15.296326701085817 -1 0 0 I I #
vertex $-1 $583 $740 #
point $-1 -34.491150008073816 29.951821851414305 11.532316935575192 #
vertex $-1 $587 $741 #
point $-1 -25.985602271951365 29.951821851414305 11.532316935575192 #
coedge $-1 $602 $601 $594 $696 forward $591 $-1 #
edge $-1 $697 56.660900343689335 $700 62.1440325737099 $695 $742 forward 7 unknown #
vertex $-1 $606 $743 #
straight-curve $-1 37.303216785059689 44.571941037146878 15.296326701085817 0 1 0 I I #
edge $-1 $700 -23.613177905267939 $603 -3.7668998543155574 $602 $744 forward 7 unknown #
vertex $-1 $699 $745 #
straight-curve $-1 37.303216785059689 -9.5584217764832147 61.093389500370378 0 -0.64278759981090561 0.7660444514056185 I I #
point $-1 37.303216785059689 28.869875721300254 15.296326701085817 #
point $-1 17.456938734107307 33.470769832749838 9.8131944710652519 #
straight-curve $-1 0 33.470769832749838 15.296326701085817 -1 0 0 I I #
vertex $-1 $609 $746 #
point $-1 24.62730389152226 29.951821851414305 11.532316935575192 #
vertex $-1 $613 $747 #
point $-1 33.132851627644712 29.951821851414305 11.532316935575192 #
straight-curve $-1 -64.423352763451035 33.470769832749838 0 0 0 -1 I I #
point $-1 -64.423352763451035 -33.470769832749838 -15.296326701085817 #
straight-curve $-1 -64.423352763451035 0 -15.296326701085817 0 1 0 I I #
point $-1 -64.423352763451035 33.470769832749838 -15.296326701085817 #
coedge $-1 $636 $634 $635 $715 reversed $485 $-1 #
coedge $-1 $634 $636 $638 $717 forward $485 $-1 #
edge $-1 $641 -14.796326701085816 $646 -10.104868096984974 $713 $748 forward 7 unknown #
straight-curve $-1 -64.423352763451035 0 14.796326701085816 0 1 0 I I #
edge $-1 $639 -14.796326701085816 $648 -10.104868096984974 $638 $749 forward 7 unknown #
point $-1 -64.423352763451035 33.470769832749838 14.796326701085816 #
point $-1 -64.423352763451035 -33.470769832749838 14.796326701085816 #
straight-curve $-1 -64.423352763451035 0 10.104868096984974 0 -1 0 I I #
point $-1 -64.423352763451035 -33.470769832749838 10.104868096984974 #
point $-1 -64.423352763451035 33.470769832749838 10.104868096984974 #
straight-curve $-1 0 -33.470769832749838 15.296326701085817 1 0 0 I I #
point $-1 -53.813555035741146 -33.470769832749838 15.296326701085817 #
straight-curve $-1 -53.813555035741146 -65.356306971000549 15.296326701085817 0 -1 0 I I #
point $-1 -49.030241184042502 -27.649198127516669 9.4829457036004356 #
point $-1 -41.855270406494554 -27.649198127516669 9.4829457036004356 #
point $-1 -34.680299628946599 -27.649198127516669 9.4829457036004356 #
straight-curve $-1 29.221468122348124 -65.356306971000549 15.296326701085817 0 1 0 I I #
point $-1 29.221468122348124 -33.470769832749838 15.296326701085817 #
straight-curve $-1 8.6315917465507681 -28.114562054501327 15.296326701085817 -1 0 0 I I #
point $-1 29.221468122348124 -28.114562054501327 15.296326701085817 #
point $-1 10.088212715553581 -27.649198127516669 9.4829457036004356 #
point $-1 17.263183493101536 -27.649198127516669 9.4829457036004356 #
point $-1 24.438154270649491 -27.649198127516669 9.4829457036004356 #
straight-curve $-1 -21.815237114536398 33.470769832749838 71.957227044775152 0 0 -1 I I #
point $-1 -21.815237114536398 33.470769832749838 15.296326701085817 #
straight-curve $-1 -15.869188070006295 33.470769832749838 9.8131944710652483 -1 0 0 I I #
point $-1 -21.815237114536398 33.470769832749838 9.8131944710652519 #
point $-1 -35.991150008073816 28.802755174305876 10.568135535858833 #
point $-1 -27.485602271951365 28.802755174305876 10.568135535858833 #
straight-curve $-1 37.303216785059689 33.470769832749838 71.957227044775152 0 0 -1 I I #
point $-1 37.303216785059689 33.470769832749838 15.296326701085817 #
straight-curve $-1 13.69003887979175 33.470769832749838 9.8131944710652483 -1 0 0 I I #
point $-1 37.303216785059689 33.470769832749838 9.8131944710652519 #
point $-1 23.12730389152226 28.802755174305876 10.568135535858833 #
point $-1 31.632851627644712 28.802755174305876 10.568135535858833 #
straight-curve $-1 -64.423352763451035 -33.470769832749838 0 0 0 -1 I I #
straight-curve $-1 -64.423352763451035 33.470769832749838 0 0 0 -1 I I #
End-of-ACIS-data 