500 0 4 0           
7 Unknown 11 ACIS 5.0 NT 24 Thu Mar 25 18:42:31 1999 
-1 9.9999999999999995e-007 1e-010 
body $-1 $4 $-1 $5 #
body $-1 $6 $-1 $7 #
body $-1 $8 $-1 $9 #
body $-1 $10 $-1 $11 #
lump $-1 $-1 $12 $0 #
transform $-1 1 0 0 0 1 0 0 0 1 45.683767204809719 28.375325896761048 11.869280963737173 1 rotate no_reflect no_shear #
lump $-1 $-1 $13 $1 #
transform $-1 1 0 0 0 1 0 0 0 1 45.683767204809719 28.375325896761048 11.869280963737173 1 rotate no_reflect no_shear #
lump $-1 $-1 $14 $2 #
transform $-1 1 0 0 0 1 0 0 0 1 45.683767204809719 28.375325896761048 11.869280963737173 1 rotate no_reflect no_shear #
lump $-1 $-1 $15 $3 #
transform $-1 1 0 0 0 1 0 0 0 1 45.683767204809719 28.375325896761048 11.869280963737173 1 rotate no_reflect no_shear #
shell $-1 $-1 $-1 $16 $-1 $4 #
shell $-1 $-1 $-1 $17 $-1 $6 #
shell $-1 $-1 $-1 $18 $-1 $8 #
shell $-1 $-1 $-1 $19 $-1 $10 #
face $-1 $20 $21 $12 $-1 $22 forward single #
face $-1 $23 $24 $13 $-1 $25 forward single #
face $-1 $26 $27 $14 $-1 $28 forward single #
face $-1 $29 $30 $15 $-1 $31 reversed single #
face $-1 $32 $33 $12 $-1 $34 reversed single #
loop $-1 $-1 $35 $16 #
plane-surface $-1 0 0 11.869280963737173 0 0 1 1 0 0 forward_v I I I I #
face $-1 $36 $37 $13 $-1 $38 reversed single #
loop $-1 $-1 $39 $17 #
plane-surface $-1 0 -34.517485906548437 -8.8692809637371735 0 0 1 1 0 0 forward_v I I I I #
face $-1 $40 $41 $14 $-1 $42 forward single #
loop $-1 $-1 $43 $18 #
plane-surface $-1 7.8370254416115621 28.665461184199565 113.48380531069543 1 0 0 0 -0.52991927123019833 -0.84804809178421925 forward_v I I I I #
face $-1 $44 $45 $15 $-1 $46 reversed single #
loop $-1 $47 $48 $19 #
cone-surface $-1 17.195596179313675 21.828274535289005 6.03037597859639 0 -0.52991927123019833 -0.84804809178421925 2.5 0 0 1 I I 0 1 2.5 forward I I I I #
face $-1 $49 $50 $12 $-1 $51 reversed single #
loop $-1 $-1 $52 $20 #
plane-surface $-1 0 0 -11.869280963737173 0 0 1 1 0 0 forward_v I I I I #
coedge $-1 $53 $54 $55 $56 forward $21 $-1 #
face $-1 $57 $58 $13 $-1 $59 forward single #
loop $-1 $-1 $60 $23 #
plane-surface $-1 0 -40.659645916335826 -10.369280963737173 0 1 0 0 0 1 forward_v I I I I #
coedge $-1 $61 $62 $63 $64 forward $24 $-1 #
face $-1 $65 $66 $14 $-1 $67 forward single #
loop $-1 $-1 $68 $26 #
plane-surface $-1 17.195596179313675 -19.751956064246038 35.999742103588673 0 0.52991927123019833 0.84804809178421925 1 0 0 forward_v I I I I #
coedge $-1 $69 $70 $71 $72 reversed $27 $-1 #
face $-1 $73 $74 $15 $-1 $75 forward single #
loop $-1 $76 $77 $29 #
cone-surface $-1 17.195596179313675 19.374060337881559 2.1028123289305842 0 -0.52991927123019833 -0.84804809178421925 1.25 0 0 1 I I -0.70710678118654746 0.70710678118654746 1.25 forward I I I I #
loop $-1 $-1 $78 $19 #
coedge $-1 $48 $48 $79 $80 reversed $30 $-1 #
face $-1 $81 $82 $12 $-1 $83 reversed single #
loop $-1 $-1 $84 $32 #
plane-surface $-1 0 -28.375325896761048 0 0 1 0 0 0 1 forward_v I I I I #
coedge $-1 $85 $86 $87 $88 forward $33 $-1 #
coedge $-1 $89 $35 $90 $91 forward $21 $-1 #
coedge $-1 $35 $89 $92 $93 forward $21 $-1 #
coedge $-1 $94 $95 $35 $56 reversed $96 $-1 #
edge $-1 $97 -28.375325896761048 $98 28.375325896761048 $55 $99 forward 7 unknown #
face $-1 $100 $101 $13 $-1 $102 reversed single #
loop $-1 $-1 $103 $36 #
plane-surface $-1 0 0 11.869280963737173 0 0 1 1 0 0 forward_v I I I I #
coedge $-1 $104 $105 $106 $107 forward $37 $-1 #
coedge $-1 $108 $39 $109 $110 reversed $24 $-1 #
coedge $-1 $39 $108 $105 $111 forward $24 $-1 #
coedge $-1 $112 $113 $39 $64 reversed $114 $-1 #
edge $-1 $115 -6.1421600097873892 $116 6.1421600097873892 $63 $117 forward 7 unknown #
face $-1 $118 $119 $14 $-1 $120 forward single #
loop $-1 $-1 $121 $40 #
plane-surface $-1 26.554166917015788 28.665461184199565 113.48380531069543 -1 0 0 0 0.52991927123019833 0.84804809178421925 forward_v I I I I #
coedge $-1 $122 $123 $124 $125 reversed $41 $-1 #
coedge $-1 $70 $43 $123 $126 forward $27 $-1 #
coedge $-1 $43 $69 $127 $128 reversed $27 $-1 #
coedge $-1 $129 $124 $43 $72 forward $119 $-1 #
edge $-1 $130 4.5321227984565802 $131 14.042595304661265 $71 $132 forward 7 unknown #
face $-1 $133 $134 $15 $-1 $135 forward single #
loop $-1 $-1 $136 $44 #
plane-surface $-1 7.8370254416115621 28.665461184199565 113.48380531069543 1 0 0 0 -0.52991927123019833 -0.84804809178421925 forward_v I I I I #
loop $-1 $-1 $137 $29 #
coedge $-1 $77 $77 $78 $138 forward $45 $-1 #
coedge $-1 $78 $78 $77 $138 reversed $47 $-1 #
coedge $-1 $79 $79 $48 $80 forward $134 $-1 #
edge $-1 $139 6.0320415745972033e-016 $139 6.2831853071796013 $79 $140 forward 7 unknown #
face $-1 $141 $142 $12 $-1 $143 reversed single #
loop $-1 $-1 $144 $49 #
plane-surface $-1 -45.683767204809719 0 0 1 0 0 0 0 -1 forward_v I I I I #
coedge $-1 $145 $92 $146 $147 forward $50 $-1 #
coedge $-1 $148 $52 $145 $149 forward $33 $-1 #
coedge $-1 $52 $148 $150 $151 forward $33 $-1 #
coedge $-1 $95 $94 $52 $88 reversed $96 $-1 #
edge $-1 $152 -28.375325896761048 $153 28.375325896761048 $87 $154 forward 7 unknown #
coedge $-1 $54 $53 $155 $156 forward $21 $-1 #
coedge $-1 $157 $158 $53 $91 reversed $142 $-1 #
edge $-1 $98 -45.683767204809719 $159 45.683767204809719 $90 $160 forward 7 unknown #
coedge $-1 $84 $161 $54 $93 reversed $50 $-1 #
edge $-1 $162 -45.683767204809719 $97 45.683767204809719 $92 $163 forward 7 unknown #
coedge $-1 $87 $55 $161 $164 forward $96 $-1 #
coedge $-1 $55 $87 $157 $165 reversed $96 $-1 #
loop $-1 $-1 $94 $141 #
vertex $-1 $56 $166 #
vertex $-1 $56 $167 #
straight-curve $-1 45.683767204809719 0 11.869280963737173 0 1 0 I I #
face $-1 $168 $169 $13 $-1 $170 reversed single #
loop $-1 $-1 $171 $57 #
plane-surface $-1 0 0 -11.869280963737173 0 0 1 1 0 0 forward_v I I I I #
coedge $-1 $172 $173 $174 $175 forward $58 $-1 #
coedge $-1 $176 $60 $177 $178 reversed $37 $-1 #
coedge $-1 $60 $176 $62 $111 reversed $37 $-1 #
coedge $-1 $179 $180 $60 $107 reversed $181 $-1 #
edge $-1 $182 -1.5 $183 1.5 $106 $184 forward 7 unknown #
coedge $-1 $62 $61 $179 $185 forward $24 $-1 #
coedge $-1 $186 $187 $61 $110 forward $169 $-1 #
edge $-1 $188 -45.683767204809719 $116 45.683767204809719 $109 $189 forward 7 unknown #
edge $-1 $182 -45.683767204809719 $115 45.683767204809719 $105 $190 forward 7 unknown #
coedge $-1 $191 $63 $176 $192 forward $114 $-1 #
coedge $-1 $63 $174 $186 $193 forward $114 $-1 #
loop $-1 $-1 $113 $194 #
vertex $-1 $64 $195 #
vertex $-1 $64 $196 #
straight-curve $-1 45.683767204809719 -34.517485906548437 -8.8692809637371735 0 1 0 I I #
face $-1 $197 $198 $14 $-1 $199 forward single #
loop $-1 $-1 $200 $65 #
plane-surface $-1 0 0 11.869280963737173 0 0 1 1 0 0 forward_v I I I I #
coedge $-1 $201 $202 $200 $203 reversed $66 $-1 #
coedge $-1 $204 $68 $202 $205 reversed $41 $-1 #
coedge $-1 $68 $204 $69 $126 reversed $41 $-1 #
coedge $-1 $71 $200 $68 $125 forward $119 $-1 #
edge $-1 $206 -17.956368827358951 $130 0.76077264804527545 $124 $207 forward 7 unknown #
edge $-1 $130 45.5361079506187 $208 56.750651793522096 $69 $209 forward 7 unknown #
coedge $-1 $210 $211 $70 $128 forward $212 $-1 #
edge $-1 $131 44.87262169161054 $208 50.815424592021017 $127 $213 forward 7 unknown #
coedge $-1 $214 $71 $211 $215 forward $119 $-1 #
vertex $-1 $125 $216 #
vertex $-1 $215 $217 #
straight-curve $-1 7.8370254416115621 14.332730592099782 11.869280963737175 0 1 0 I I #
face $-1 $218 $219 $15 $-1 $220 forward single #
loop $-1 $221 $79 $73 #
plane-surface $-1 17.195596179313675 -19.751956064246038 35.999742103588673 0 0.52991927123019833 0.84804809178421925 1 0 0 forward_v I I I I #
coedge $-1 $222 $223 $224 $225 reversed $74 $-1 #
coedge $-1 $137 $137 $-1 $226 forward $76 $-1 #
edge $-1 $227 0 $227 6.2831853071796004 $77 $228 forward 7 unknown #
vertex $-1 $80 $229 #
ellipse-curve $-1 17.195596179313675 23.620089643658709 8.8978795135319366 0 -0.52991927123019833 -0.84804809178421925 2.5 0 0 1 I I #
face $-1 $-1 $96 $12 $-1 $230 reversed single #
loop $-1 $-1 $157 $81 #
plane-surface $-1 0 28.375325896761048 0 0 -1 0 0 0 -1 forward_v I I I I #
coedge $-1 $231 $155 $158 $232 forward $82 $-1 #
coedge $-1 $161 $84 $85 $149 reversed $50 $-1 #
coedge $-1 $155 $231 $84 $147 reversed $82 $-1 #
edge $-1 $162 -11.869280963737173 $233 11.869280963737173 $146 $234 forward 7 unknown #
coedge $-1 $86 $85 $231 $235 forward $33 $-1 #
edge $-1 $153 -45.683767204809719 $233 45.683767204809719 $145 $236 forward 7 unknown #
coedge $-1 $158 $157 $86 $151 reversed $142 $-1 #
edge $-1 $237 -45.683767204809719 $152 45.683767204809719 $150 $238 forward 7 unknown #
vertex $-1 $88 $239 #
vertex $-1 $164 $240 #
straight-curve $-1 45.683767204809719 0 -11.869280963737173 0 -1 0 I I #
coedge $-1 $144 $146 $89 $156 reversed $82 $-1 #
edge $-1 $159 -28.375325896761048 $162 28.375325896761048 $155 $241 forward 7 unknown #
coedge $-1 $150 $90 $95 $165 forward $142 $-1 #
coedge $-1 $90 $150 $144 $232 reversed $142 $-1 #
vertex $-1 $91 $242 #
straight-curve $-1 0 28.375325896761048 11.869280963737173 -1 0 0 I I #
coedge $-1 $92 $145 $94 $164 reversed $50 $-1 #
vertex $-1 $156 $243 #
straight-curve $-1 0 -28.375325896761048 11.869280963737173 1 0 0 I I #
edge $-1 $97 -11.869280963737173 $153 11.869280963737173 $94 $244 forward 7 unknown #
edge $-1 $98 -11.869280963737173 $152 11.869280963737173 $95 $245 forward 7 unknown #
point $-1 45.683767204809719 -28.375325896761048 11.869280963737173 #
point $-1 45.683767204809719 28.375325896761048 11.869280963737173 #
face $-1 $246 $181 $13 $-1 $247 reversed single #
loop $-1 $-1 $109 $100 #
plane-surface $-1 0 -28.375325896761048 0 0 1 0 0 0 1 forward_v I I I I #
coedge $-1 $177 $248 $191 $249 forward $101 $-1 #
coedge $-1 $250 $103 $251 $252 forward $58 $-1 #
coedge $-1 $103 $250 $253 $254 forward $58 $-1 #
coedge $-1 $113 $255 $103 $175 reversed $114 $-1 #
edge $-1 $256 -28.375325896761048 $257 28.375325896761048 $174 $258 forward 7 unknown #
coedge $-1 $105 $104 $112 $192 reversed $37 $-1 #
coedge $-1 $259 $171 $104 $178 forward $101 $-1 #
edge $-1 $260 -45.683767204809719 $183 45.683767204809719 $104 $261 forward 7 unknown #
coedge $-1 $262 $106 $108 $185 reversed $181 $-1 #
coedge $-1 $106 $263 $259 $264 reversed $181 $-1 #
loop $-1 $-1 $263 $168 #
vertex $-1 $185 $265 #
vertex $-1 $264 $266 #
straight-curve $-1 -45.683767204809719 -40.659645916335826 -10.369280963737173 0 0 -1 I I #
edge $-1 $188 -6.1421600097873892 $182 6.1421600097873892 $179 $267 forward 7 unknown #
coedge $-1 $253 $109 $113 $193 reversed $169 $-1 #
coedge $-1 $109 $253 $262 $268 forward $169 $-1 #
vertex $-1 $268 $269 #
straight-curve $-1 0 -28.375325896761048 -8.8692809637371735 1 0 0 I I #
straight-curve $-1 0 -40.659645916335826 -8.8692809637371735 1 0 0 I I #
coedge $-1 $255 $112 $171 $249 reversed $114 $-1 #
edge $-1 $115 -1.5 $260 1.5 $112 $270 forward 7 unknown #
edge $-1 $256 -11.869280963737173 $116 8.8692809637371735 $113 $271 forward 7 unknown #
face $-1 $-1 $114 $13 $-1 $272 reversed single #
point $-1 45.683767204809719 -40.659645916335826 -8.8692809637371735 #
point $-1 45.683767204809719 -28.375325896761048 -8.8692809637371735 #
face $-1 $273 $274 $14 $-1 $275 reversed single #
loop $-1 $-1 $276 $118 #
plane-surface $-1 0 -34.517485906548437 -8.8692809637371735 0 0 1 1 0 0 forward_v I I I I #
coedge $-1 $124 $277 $121 $203 forward $119 $-1 #
coedge $-1 $202 $121 $278 $279 reversed $66 $-1 #
coedge $-1 $121 $201 $122 $205 forward $66 $-1 #
edge $-1 $280 -14.042595304661265 $206 -4.5321227984565802 $200 $281 forward 7 unknown #
coedge $-1 $123 $122 $210 $282 reversed $41 $-1 #
edge $-1 $283 -56.750651793522096 $206 -45.5361079506187 $202 $284 forward 7 unknown #
vertex $-1 $125 $285 #
straight-curve $-1 8.5977980896568376 18.864853390556362 11.869280963737175 -1 0 0 I I #
vertex $-1 $282 $286 #
straight-curve $-1 7.8370254416115621 -19.751956064246038 35.999742103588673 0 0.84804809178421925 -0.52991927123019833 I I #
coedge $-1 $278 $127 $204 $282 forward $212 $-1 #
coedge $-1 $127 $287 $129 $215 reversed $212 $-1 #
loop $-1 $-1 $278 $288 #
straight-curve $-1 7.8370254416115621 28.375325896761048 56.741902655347715 0 0 -1 I I #
coedge $-1 $289 $129 $290 $291 forward $119 $-1 #
edge $-1 $131 -7.8370254416115621 $292 45.683767204809719 $211 $293 forward 7 unknown #
point $-1 7.8370254416115621 18.864853390556362 11.869280963737175 #
point $-1 7.8370254416115621 28.375325896761048 11.869280963737173 #
face $-1 $294 $295 $15 $-1 $296 forward single #
loop $-1 $-1 $297 $133 #
plane-surface $-1 26.554166917015788 28.665461184199565 113.48380531069543 -1 0 0 0 0.52991927123019833 0.84804809178421925 forward_v I I I I #
loop $-1 $-1 $298 $73 #
coedge $-1 $223 $136 $299 $300 forward $74 $-1 #
coedge $-1 $136 $222 $301 $302 reversed $74 $-1 #
coedge $-1 $303 $304 $136 $225 forward $295 $-1 #
edge $-1 $305 4.5321227984565802 $306 14.042595304661265 $224 $307 forward 7 unknown #
edge $-1 $308 1 $308 0 $137 $-1 forward 7 unknown #
vertex $-1 $138 $309 #
ellipse-curve $-1 17.195596179313675 20.036459426919308 3.1628724436608584 0 0.52991927123019833 0.84804809178421925 2.5 0 0 1 I I #
point $-1 19.695596179313675 23.620089643658698 8.8978795135319224 #
plane-surface $-1 45.683767204809719 0 0 -1 0 0 0 0 1 forward_v I I I I #
coedge $-1 $146 $144 $148 $235 reversed $82 $-1 #
edge $-1 $159 -11.869280963737173 $237 11.869280963737173 $158 $310 forward 7 unknown #
vertex $-1 $235 $311 #
straight-curve $-1 -45.683767204809719 -28.375325896761048 0 0 0 -1 I I #
edge $-1 $233 -28.375325896761048 $237 28.375325896761048 $231 $312 forward 7 unknown #
straight-curve $-1 0 -28.375325896761048 -11.869280963737173 -1 0 0 I I #
vertex $-1 $151 $313 #
straight-curve $-1 0 28.375325896761048 -11.869280963737173 1 0 0 I I #
point $-1 45.683767204809719 28.375325896761048 -11.869280963737173 #
point $-1 45.683767204809719 -28.375325896761048 -11.869280963737173 #
straight-curve $-1 -45.683767204809719 0 11.869280963737173 0 -1 0 I I #
point $-1 -45.683767204809719 28.375325896761048 11.869280963737173 #
point $-1 -45.683767204809719 -28.375325896761048 11.869280963737173 #
straight-curve $-1 45.683767204809719 -28.375325896761048 0 0 0 -1 I I #
straight-curve $-1 45.683767204809719 28.375325896761048 0 0 0 -1 I I #
face $-1 $194 $314 $13 $-1 $315 reversed single #
plane-surface $-1 -45.683767204809719 0 0 1 0 0 0 0 -1 forward_v I I I I #
coedge $-1 $171 $259 $316 $317 forward $101 $-1 #
edge $-1 $318 -28.375325896761048 $260 40.659645916335826 $191 $319 forward 7 unknown #
coedge $-1 $173 $172 $320 $321 forward $58 $-1 #
coedge $-1 $322 $323 $172 $252 reversed $314 $-1 #
edge $-1 $257 -45.683767204809719 $324 45.683767204809719 $251 $325 forward 7 unknown #
coedge $-1 $187 $186 $173 $254 reversed $169 $-1 #
edge $-1 $326 -45.683767204809719 $256 45.683767204809719 $253 $327 forward 7 unknown #
coedge $-1 $174 $191 $322 $328 reversed $114 $-1 #
vertex $-1 $175 $329 #
vertex $-1 $175 $330 #
straight-curve $-1 45.683767204809719 0 11.869280963737173 0 1 0 I I #
coedge $-1 $248 $177 $180 $264 forward $101 $-1 #
vertex $-1 $192 $331 #
straight-curve $-1 0 -40.659645916335826 -11.869280963737173 -1 0 0 I I #
coedge $-1 $320 $179 $187 $268 reversed $181 $-1 #
coedge $-1 $180 $320 $323 $332 forward $181 $-1 #
edge $-1 $183 -40.659645916335826 $333 28.375325896761048 $180 $334 forward 7 unknown #
point $-1 -45.683767204809719 -40.659645916335826 -8.8692809637371735 #
point $-1 -45.683767204809719 -40.659645916335826 -11.869280963737173 #
straight-curve $-1 -45.683767204809719 -34.517485906548437 -8.8692809637371735 0 -1 0 I I #
edge $-1 $326 -11.869280963737173 $188 8.8692809637371735 $262 $335 forward 7 unknown #
point $-1 -45.683767204809719 -28.375325896761048 -8.8692809637371735 #
straight-curve $-1 45.683767204809719 -40.659645916335826 -10.369280963737173 0 0 -1 I I #
straight-curve $-1 45.683767204809719 -28.375325896761048 0 0 0 -1 I I #
plane-surface $-1 45.683767204809719 0 0 -1 0 0 0 0 1 forward_v I I I I #
face $-1 $336 $337 $14 $-1 $338 reversed single #
loop $-1 $-1 $339 $197 #
plane-surface $-1 0 -40.659645916335826 -10.369280963737173 0 1 0 0 0 1 forward_v I I I I #
coedge $-1 $340 $341 $342 $343 forward $198 $-1 #
coedge $-1 $200 $344 $345 $346 forward $119 $-1 #
coedge $-1 $345 $210 $201 $279 forward $212 $-1 #
edge $-1 $283 -50.815424592021017 $280 -44.87262169161054 $278 $347 forward 7 unknown #
vertex $-1 $279 $348 #
straight-curve $-1 26.554166917015788 14.332730592099782 11.869280963737175 0 -1 0 I I #
edge $-1 $208 -0.76077264804527545 $283 17.956368827358951 $210 $349 forward 7 unknown #
vertex $-1 $282 $350 #
straight-curve $-1 26.554166917015788 -19.751956064246038 35.999742103588673 0 -0.84804809178421925 0.52991927123019833 I I #
point $-1 26.554166917015788 18.864853390556362 11.869280963737175 #
point $-1 7.8370254416115621 28.375325896761048 5.9264780633267016 #
coedge $-1 $211 $351 $352 $353 reversed $212 $-1 #
face $-1 $354 $212 $14 $-1 $355 reversed single #
coedge $-1 $344 $214 $356 $357 forward $119 $-1 #
coedge $-1 $352 $358 $214 $291 reversed $359 $-1 #
edge $-1 $292 -28.375325896761048 $360 28.375325896761048 $290 $361 forward 7 unknown #
vertex $-1 $215 $362 #
straight-curve $-1 0 28.375325896761048 11.869280963737173 -1 0 0 I I #
face $-1 $363 $364 $15 $-1 $365 forward single #
loop $-1 $-1 $366 $218 #
plane-surface $-1 0 0 11.869280963737173 0 0 1 1 0 0 forward_v I I I I #
coedge $-1 $367 $368 $366 $369 reversed $219 $-1 #
coedge $-1 $370 $299 $304 $371 reversed $221 $-1 #
coedge $-1 $298 $372 $222 $300 reversed $221 $-1 #
edge $-1 $305 45.5361079506187 $373 56.750651793522096 $222 $374 forward 7 unknown #
coedge $-1 $375 $376 $223 $302 forward $377 $-1 #
edge $-1 $306 44.87262169161054 $373 50.815424592021017 $301 $378 forward 7 unknown #
coedge $-1 $379 $224 $376 $380 forward $295 $-1 #
coedge $-1 $224 $366 $298 $371 forward $295 $-1 #
vertex $-1 $371 $381 #
vertex $-1 $380 $382 #
straight-curve $-1 7.8370254416115621 14.332730592099782 11.869280963737175 0 1 0 I I #
vertex $-1 $226 $383 #
point $-1 19.695596179313675 20.036459426919308 3.1628724436608584 #
straight-curve $-1 -45.683767204809719 28.375325896761048 0 0 0 -1 I I #
point $-1 -45.683767204809719 -28.375325896761048 -11.869280963737173 #
straight-curve $-1 -45.683767204809719 0 -11.869280963737173 0 1 0 I I #
point $-1 -45.683767204809719 28.375325896761048 -11.869280963737173 #
loop $-1 $-1 $322 $246 #
plane-surface $-1 0 28.375325896761048 0 0 -1 0 0 0 -1 forward_v I I I I #
coedge $-1 $323 $322 $248 $317 reversed $314 $-1 #
edge $-1 $333 -45.683767204809719 $318 45.683767204809719 $316 $384 forward 7 unknown #
vertex $-1 $249 $385 #
straight-curve $-1 45.683767204809719 0 -11.869280963737173 0 -1 0 I I #
coedge $-1 $263 $262 $250 $321 reversed $181 $-1 #
edge $-1 $324 -28.375325896761048 $326 28.375325896761048 $320 $386 forward 7 unknown #
coedge $-1 $316 $251 $255 $328 forward $314 $-1 #
coedge $-1 $251 $316 $263 $332 reversed $314 $-1 #
vertex $-1 $252 $387 #
straight-curve $-1 0 28.375325896761048 11.869280963737173 -1 0 0 I I #
vertex $-1 $321 $388 #
straight-curve $-1 0 -28.375325896761048 11.869280963737173 1 0 0 I I #
edge $-1 $257 -11.869280963737173 $318 11.869280963737173 $255 $389 forward 7 unknown #
point $-1 45.683767204809719 -28.375325896761048 11.869280963737173 #
point $-1 45.683767204809719 28.375325896761048 11.869280963737173 #
point $-1 45.683767204809719 -40.659645916335826 -11.869280963737173 #
edge $-1 $324 -11.869280963737173 $333 11.869280963737173 $323 $390 forward 7 unknown #
vertex $-1 $317 $391 #
straight-curve $-1 -45.683767204809719 0 -11.869280963737173 0 1 0 I I #
straight-curve $-1 -45.683767204809719 -28.375325896761048 0 0 0 -1 I I #
face $-1 $392 $393 $14 $-1 $394 reversed single #
loop $-1 $-1 $395 $273 #
plane-surface $-1 0 0 -11.869280963737173 0 0 1 1 0 0 forward_v I I I I #
coedge $-1 $396 $397 $398 $399 forward $274 $-1 #
coedge $-1 $400 $276 $401 $402 reversed $198 $-1 #
coedge $-1 $276 $400 $397 $403 forward $198 $-1 #
coedge $-1 $404 $405 $276 $343 reversed $406 $-1 #
edge $-1 $407 -6.1421600097873892 $408 6.1421600097873892 $342 $409 forward 7 unknown #
coedge $-1 $277 $289 $410 $411 forward $119 $-1 #
coedge $-1 $412 $278 $277 $346 reversed $212 $-1 #
edge $-1 $413 -45.683767204809719 $280 -26.554166917015788 $345 $293 forward 7 unknown #
straight-curve $-1 26.554166917015788 28.375325896761048 56.741902655347715 0 0 1 I I #
point $-1 26.554166917015788 28.375325896761048 11.869280963737173 #
straight-curve $-1 8.5977980896568376 28.375325896761051 5.9264780633266998 1 0 0 I I #
point $-1 26.554166917015788 28.375325896761048 5.9264780633267016 #
coedge $-1 $287 $412 $414 $415 reversed $212 $-1 #
coedge $-1 $416 $290 $287 $353 forward $359 $-1 #
edge $-1 $292 -11.869280963737173 $417 11.869280963737173 $287 $418 forward 7 unknown #
face $-1 $-1 $406 $14 $-1 $419 reversed single #
plane-surface $-1 0 28.375325896761048 0 0 -1 0 0 0 -1 forward_v I I I I #
coedge $-1 $420 $421 $289 $357 reversed $393 $-1 #
edge $-1 $360 -45.683767204809719 $422 45.683767204809719 $356 $423 forward 7 unknown #
coedge $-1 $290 $424 $420 $425 reversed $359 $-1 #
loop $-1 $-1 $352 $392 #
vertex $-1 $291 $426 #
straight-curve $-1 -45.683767204809719 0 11.869280963737173 0 -1 0 I I #
point $-1 -45.683767204809719 28.375325896761048 11.869280963737173 #
face $-1 $427 $428 $15 $-1 $429 reversed single #
loop $-1 $-1 $430 $294 #
plane-surface $-1 0 -34.517485906548437 -8.8692809637371735 0 0 1 1 0 0 forward_v I I I I #
coedge $-1 $304 $431 $297 $369 forward $295 $-1 #
coedge $-1 $368 $297 $432 $433 reversed $219 $-1 #
coedge $-1 $297 $367 $370 $434 forward $219 $-1 #
edge $-1 $435 -14.042595304661265 $436 -4.5321227984565802 $366 $437 forward 7 unknown #
coedge $-1 $372 $298 $368 $434 reversed $221 $-1 #
edge $-1 $436 -17.956368827358951 $305 0.76077264804527545 $304 $438 forward 7 unknown #
coedge $-1 $299 $370 $375 $439 reversed $221 $-1 #
vertex $-1 $439 $440 #
straight-curve $-1 7.8370254416115621 -19.751956064246038 35.999742103588673 0 0.84804809178421925 -0.52991927123019833 I I #
coedge $-1 $432 $301 $372 $439 forward $377 $-1 #
coedge $-1 $301 $441 $303 $380 reversed $377 $-1 #
loop $-1 $-1 $432 $442 #
straight-curve $-1 7.8370254416115621 28.375325896761048 56.741902655347715 0 0 -1 I I #
coedge $-1 $443 $303 $444 $445 forward $295 $-1 #
edge $-1 $306 -7.8370254416115621 $446 45.683767204809719 $376 $447 forward 7 unknown #
point $-1 7.8370254416115621 18.864853390556362 11.869280963737175 #
point $-1 7.8370254416115621 28.375325896761048 11.869280963737173 #
point $-1 17.195596179313675 18.711661248843811 1.0427522142003101 #
straight-curve $-1 0 28.375325896761048 -11.869280963737173 1 0 0 I I #
point $-1 45.683767204809719 28.375325896761048 -11.869280963737173 #
straight-curve $-1 -45.683767204809719 0 11.869280963737173 0 -1 0 I I #
point $-1 -45.683767204809719 28.375325896761048 11.869280963737173 #
point $-1 -45.683767204809719 -28.375325896761048 11.869280963737173 #
straight-curve $-1 45.683767204809719 28.375325896761048 0 0 0 -1 I I #
straight-curve $-1 -45.683767204809719 28.375325896761048 0 0 0 -1 I I #
point $-1 -45.683767204809719 28.375325896761048 -11.869280963737173 #
face $-1 $288 $359 $14 $-1 $448 reversed single #
loop $-1 $-1 $401 $336 #
plane-surface $-1 0 -28.375325896761048 0 0 1 0 0 0 1 forward_v I I I I #
coedge $-1 $449 $414 $450 $451 forward $337 $-1 #
coedge $-1 $452 $339 $449 $453 reversed $274 $-1 #
coedge $-1 $339 $452 $341 $403 reversed $274 $-1 #
coedge $-1 $424 $416 $339 $399 reversed $359 $-1 #
edge $-1 $454 -1.5 $455 1.5 $398 $456 forward 7 unknown #
coedge $-1 $341 $340 $424 $457 forward $198 $-1 #
coedge $-1 $421 $420 $340 $402 forward $393 $-1 #
edge $-1 $458 -45.683767204809719 $408 45.683767204809719 $401 $459 forward 7 unknown #
edge $-1 $454 -45.683767204809719 $407 45.683767204809719 $397 $460 forward 7 unknown #
coedge $-1 $450 $342 $452 $461 forward $406 $-1 #
coedge $-1 $342 $410 $421 $462 forward $406 $-1 #
loop $-1 $-1 $405 $354 #
vertex $-1 $343 $463 #
vertex $-1 $343 $464 #
straight-curve $-1 45.683767204809719 -34.517485906548437 -8.8692809637371735 0 1 0 I I #
coedge $-1 $405 $465 $344 $411 reversed $406 $-1 #
edge $-1 $422 -28.375325896761048 $413 28.375325896761048 $410 $466 forward 7 unknown #
coedge $-1 $351 $345 $465 $467 forward $212 $-1 #
vertex $-1 $411 $468 #
coedge $-1 $395 $469 $351 $415 forward $337 $-1 #
edge $-1 $417 -45.683767204809719 $470 45.683767204809719 $351 $471 forward 7 unknown #
coedge $-1 $398 $352 $469 $472 reversed $359 $-1 #
vertex $-1 $415 $473 #
straight-curve $-1 -45.683767204809719 28.375325896761048 0 0 0 -1 I I #
plane-surface $-1 45.683767204809719 0 0 -1 0 0 0 0 1 forward_v I I I I #
coedge $-1 $401 $356 $358 $425 forward $393 $-1 #
coedge $-1 $356 $401 $405 $462 reversed $393 $-1 #
vertex $-1 $411 $474 #
straight-curve $-1 0 -28.375325896761048 11.869280963737173 1 0 0 I I #
coedge $-1 $358 $398 $400 $457 reversed $359 $-1 #
edge $-1 $360 -11.869280963737173 $458 8.8692809637371735 $358 $475 forward 7 unknown #
point $-1 -45.683767204809719 -28.375325896761048 11.869280963737173 #
face $-1 $476 $477 $15 $-1 $478 reversed single #
loop $-1 $-1 $479 $363 #
plane-surface $-1 0 -40.659645916335826 -10.369280963737173 0 1 0 0 0 1 forward_v I I I I #
coedge $-1 $480 $481 $482 $483 forward $364 $-1 #
coedge $-1 $366 $484 $485 $486 forward $295 $-1 #
coedge $-1 $485 $375 $367 $433 forward $377 $-1 #
edge $-1 $487 -50.815424592021017 $435 -44.87262169161054 $432 $488 forward 7 unknown #
edge $-1 $487 -56.750651793522096 $436 -45.5361079506187 $368 $489 forward 7 unknown #
vertex $-1 $433 $490 #
vertex $-1 $371 $491 #
straight-curve $-1 26.554166917015788 14.332730592099782 11.869280963737175 0 -1 0 I I #
straight-curve $-1 8.5977980896568376 18.864853390556362 11.869280963737175 -1 0 0 I I #
edge $-1 $373 -0.76077264804527545 $487 17.956368827358951 $375 $492 forward 7 unknown #
point $-1 7.8370254416115621 28.375325896761048 5.9264780633267016 #
coedge $-1 $376 $493 $494 $495 reversed $377 $-1 #
face $-1 $496 $377 $15 $-1 $497 reversed single #
coedge $-1 $484 $379 $498 $499 forward $295 $-1 #
coedge $-1 $494 $500 $379 $445 reversed $501 $-1 #
edge $-1 $446 -28.375325896761048 $502 28.375325896761048 $444 $503 forward 7 unknown #
vertex $-1 $380 $504 #
straight-curve $-1 0 28.375325896761048 11.869280963737173 -1 0 0 I I #
plane-surface $-1 -45.683767204809719 0 0 1 0 0 0 0 -1 forward_v I I I I #
coedge $-1 $469 $395 $396 $453 forward $337 $-1 #
coedge $-1 $465 $404 $395 $451 reversed $406 $-1 #
edge $-1 $470 -28.375325896761048 $505 40.659645916335826 $450 $506 forward 7 unknown #
coedge $-1 $397 $396 $404 $461 reversed $274 $-1 #
edge $-1 $505 -45.683767204809719 $455 45.683767204809719 $396 $507 forward 7 unknown #
vertex $-1 $457 $508 #
vertex $-1 $472 $509 #
straight-curve $-1 -45.683767204809719 -40.659645916335826 -10.369280963737173 0 0 -1 I I #
edge $-1 $458 -6.1421600097873892 $454 6.1421600097873892 $424 $510 forward 7 unknown #
vertex $-1 $425 $511 #
straight-curve $-1 0 -28.375325896761048 -8.8692809637371735 1 0 0 I I #
straight-curve $-1 0 -40.659645916335826 -8.8692809637371735 1 0 0 I I #
edge $-1 $407 -1.5 $505 1.5 $404 $512 forward 7 unknown #
edge $-1 $422 -11.869280963737173 $408 8.8692809637371735 $405 $513 forward 7 unknown #
point $-1 45.683767204809719 -40.659645916335826 -8.8692809637371735 #
point $-1 45.683767204809719 -28.375325896761048 -8.8692809637371735 #
coedge $-1 $410 $450 $412 $467 reversed $406 $-1 #
straight-curve $-1 45.683767204809719 0 11.869280963737173 0 1 0 I I #
edge $-1 $413 -11.869280963737173 $470 11.869280963737173 $465 $514 forward 7 unknown #
point $-1 45.683767204809719 28.375325896761048 11.869280963737173 #
coedge $-1 $414 $449 $416 $472 forward $337 $-1 #
vertex $-1 $451 $515 #
straight-curve $-1 0 28.375325896761048 -11.869280963737173 1 0 0 I I #
edge $-1 $455 -40.659645916335826 $417 28.375325896761048 $416 $516 forward 7 unknown #
point $-1 -45.683767204809719 28.375325896761048 -11.869280963737173 #
point $-1 45.683767204809719 -28.375325896761048 11.869280963737173 #
straight-curve $-1 -45.683767204809719 -28.375325896761048 0 0 0 -1 I I #
face $-1 $517 $518 $15 $-1 $519 reversed single #
loop $-1 $-1 $520 $427 #
plane-surface $-1 0 0 -11.869280963737173 0 0 1 1 0 0 forward_v I I I I #
coedge $-1 $521 $522 $523 $524 forward $428 $-1 #
coedge $-1 $525 $430 $526 $527 reversed $364 $-1 #
coedge $-1 $430 $525 $522 $528 forward $364 $-1 #
coedge $-1 $529 $530 $430 $483 reversed $531 $-1 #
edge $-1 $532 -6.1421600097873892 $533 6.1421600097873892 $482 $534 forward 7 unknown #
coedge $-1 $431 $443 $535 $536 forward $295 $-1 #
coedge $-1 $537 $432 $431 $486 reversed $377 $-1 #
edge $-1 $538 -45.683767204809719 $435 -26.554166917015788 $485 $447 forward 7 unknown #
vertex $-1 $439 $539 #
straight-curve $-1 26.554166917015788 28.375325896761048 56.741902655347715 0 0 1 I I #
straight-curve $-1 26.554166917015788 -19.751956064246038 35.999742103588673 0 -0.84804809178421925 0.52991927123019833 I I #
point $-1 26.554166917015788 28.375325896761048 11.869280963737173 #
point $-1 26.554166917015788 18.864853390556362 11.869280963737175 #
straight-curve $-1 8.5977980896568376 28.375325896761051 5.9264780633266998 1 0 0 I I #
coedge $-1 $441 $537 $540 $541 reversed $377 $-1 #
coedge $-1 $542 $444 $441 $495 forward $501 $-1 #
edge $-1 $446 -11.869280963737173 $543 11.869280963737173 $441 $544 forward 7 unknown #
face $-1 $-1 $531 $15 $-1 $545 reversed single #
plane-surface $-1 0 28.375325896761048 0 0 -1 0 0 0 -1 forward_v I I I I #
coedge $-1 $546 $547 $443 $499 reversed $518 $-1 #
edge $-1 $502 -45.683767204809719 $548 45.683767204809719 $498 $549 forward 7 unknown #
coedge $-1 $444 $550 $546 $551 reversed $501 $-1 #
loop $-1 $-1 $494 $517 #
vertex $-1 $445 $552 #
straight-curve $-1 -45.683767204809719 0 11.869280963737173 0 -1 0 I I #
point $-1 -45.683767204809719 28.375325896761048 11.869280963737173 #
vertex $-1 $461 $553 #
straight-curve $-1 45.683767204809719 0 -11.869280963737173 0 -1 0 I I #
straight-curve $-1 0 -40.659645916335826 -11.869280963737173 -1 0 0 I I #
point $-1 -45.683767204809719 -40.659645916335826 -8.8692809637371735 #
point $-1 -45.683767204809719 -40.659645916335826 -11.869280963737173 #
straight-curve $-1 -45.683767204809719 -34.517485906548437 -8.8692809637371735 0 -1 0 I I #
point $-1 -45.683767204809719 -28.375325896761048 -8.8692809637371735 #
straight-curve $-1 45.683767204809719 -40.659645916335826 -10.369280963737173 0 0 -1 I I #
straight-curve $-1 45.683767204809719 -28.375325896761048 0 0 0 -1 I I #
straight-curve $-1 45.683767204809719 28.375325896761048 0 0 0 -1 I I #
point $-1 45.683767204809719 28.375325896761048 -11.869280963737173 #
straight-curve $-1 -45.683767204809719 0 -11.869280963737173 0 1 0 I I #
face $-1 $442 $501 $15 $-1 $554 reversed single #
loop $-1 $-1 $526 $476 #
plane-surface $-1 0 -28.375325896761048 0 0 1 0 0 0 1 forward_v I I I I #
coedge $-1 $555 $540 $556 $557 forward $477 $-1 #
coedge $-1 $558 $479 $555 $559 reversed $428 $-1 #
coedge $-1 $479 $558 $481 $528 reversed $428 $-1 #
coedge $-1 $550 $542 $479 $524 reversed $501 $-1 #
edge $-1 $560 -1.5 $561 1.5 $523 $562 forward 7 unknown #
coedge $-1 $481 $480 $550 $563 forward $364 $-1 #
coedge $-1 $547 $546 $480 $527 forward $518 $-1 #
edge $-1 $564 -45.683767204809719 $533 45.683767204809719 $526 $565 forward 7 unknown #
edge $-1 $560 -45.683767204809719 $532 45.683767204809719 $522 $566 forward 7 unknown #
coedge $-1 $556 $482 $558 $567 forward $531 $-1 #
coedge $-1 $482 $535 $547 $568 forward $531 $-1 #
loop $-1 $-1 $530 $496 #
vertex $-1 $483 $569 #
vertex $-1 $483 $570 #
straight-curve $-1 45.683767204809719 -34.517485906548437 -8.8692809637371735 0 1 0 I I #
coedge $-1 $530 $571 $484 $536 reversed $531 $-1 #
edge $-1 $548 -28.375325896761048 $538 28.375325896761048 $535 $572 forward 7 unknown #
coedge $-1 $493 $485 $571 $573 forward $377 $-1 #
vertex $-1 $536 $574 #
point $-1 26.554166917015788 28.375325896761048 5.9264780633267016 #
coedge $-1 $520 $575 $493 $541 forward $477 $-1 #
edge $-1 $543 -45.683767204809719 $576 45.683767204809719 $493 $577 forward 7 unknown #
coedge $-1 $523 $494 $575 $578 reversed $501 $-1 #
vertex $-1 $541 $579 #
straight-curve $-1 -45.683767204809719 28.375325896761048 0 0 0 -1 I I #
plane-surface $-1 45.683767204809719 0 0 -1 0 0 0 0 1 forward_v I I I I #
coedge $-1 $526 $498 $500 $551 forward $518 $-1 #
coedge $-1 $498 $526 $530 $568 reversed $518 $-1 #
vertex $-1 $536 $580 #
straight-curve $-1 0 -28.375325896761048 11.869280963737173 1 0 0 I I #
coedge $-1 $500 $523 $525 $563 reversed $501 $-1 #
edge $-1 $502 -11.869280963737173 $564 8.8692809637371735 $500 $581 forward 7 unknown #
point $-1 -45.683767204809719 -28.375325896761048 11.869280963737173 #
point $-1 45.683767204809719 -40.659645916335826 -11.869280963737173 #
plane-surface $-1 -45.683767204809719 0 0 1 0 0 0 0 -1 forward_v I I I I #
coedge $-1 $575 $520 $521 $559 forward $477 $-1 #
coedge $-1 $571 $529 $520 $557 reversed $531 $-1 #
edge $-1 $576 -28.375325896761048 $582 40.659645916335826 $556 $583 forward 7 unknown #
coedge $-1 $522 $521 $529 $567 reversed $428 $-1 #
edge $-1 $582 -45.683767204809719 $561 45.683767204809719 $521 $584 forward 7 unknown #
vertex $-1 $563 $585 #
vertex $-1 $578 $586 #
straight-curve $-1 -45.683767204809719 -40.659645916335826 -10.369280963737173 0 0 -1 I I #
edge $-1 $564 -6.1421600097873892 $560 6.1421600097873892 $550 $587 forward 7 unknown #
vertex $-1 $551 $588 #
straight-curve $-1 0 -28.375325896761048 -8.8692809637371735 1 0 0 I I #
straight-curve $-1 0 -40.659645916335826 -8.8692809637371735 1 0 0 I I #
edge $-1 $532 -1.5 $582 1.5 $529 $589 forward 7 unknown #
edge $-1 $548 -11.869280963737173 $533 8.8692809637371735 $530 $590 forward 7 unknown #
point $-1 45.683767204809719 -40.659645916335826 -8.8692809637371735 #
point $-1 45.683767204809719 -28.375325896761048 -8.8692809637371735 #
coedge $-1 $535 $556 $537 $573 reversed $531 $-1 #
straight-curve $-1 45.683767204809719 0 11.869280963737173 0 1 0 I I #
edge $-1 $538 -11.869280963737173 $576 11.869280963737173 $571 $591 forward 7 unknown #
point $-1 45.683767204809719 28.375325896761048 11.869280963737173 #
coedge $-1 $540 $555 $542 $578 forward $477 $-1 #
vertex $-1 $557 $592 #
straight-curve $-1 0 28.375325896761048 -11.869280963737173 1 0 0 I I #
edge $-1 $561 -40.659645916335826 $543 28.375325896761048 $542 $593 forward 7 unknown #
point $-1 -45.683767204809719 28.375325896761048 -11.869280963737173 #
point $-1 45.683767204809719 -28.375325896761048 11.869280963737173 #
straight-curve $-1 -45.683767204809719 -28.375325896761048 0 0 0 -1 I I #
vertex $-1 $567 $594 #
straight-curve $-1 45.683767204809719 0 -11.869280963737173 0 -1 0 I I #
straight-curve $-1 0 -40.659645916335826 -11.869280963737173 -1 0 0 I I #
point $-1 -45.683767204809719 -40.659645916335826 -8.8692809637371735 #
point $-1 -45.683767204809719 -40.659645916335826 -11.869280963737173 #
straight-curve $-1 -45.683767204809719 -34.517485906548437 -8.8692809637371735 0 -1 0 I I #
point $-1 -45.683767204809719 -28.375325896761048 -8.8692809637371735 #
straight-curve $-1 45.683767204809719 -40.659645916335826 -10.369280963737173 0 0 -1 I I #
straight-curve $-1 45.683767204809719 -28.375325896761048 0 0 0 -1 I I #
straight-curve $-1 45.683767204809719 28.375325896761048 0 0 0 -1 I I #
point $-1 45.683767204809719 28.375325896761048 -11.869280963737173 #
straight-curve $-1 -45.683767204809719 0 -11.869280963737173 0 1 0 I I #
point $-1 45.683767204809719 -40.659645916335826 -11.869280963737173 #
End-of-ACIS-data 