500 0 13 0           
7 Unknown 11 ACIS 5.0 NT 24 Thu Mar 25 17:16:40 1999 
-1 9.9999999999999995e-007 1e-010 
body $-1 $13 $-1 $14 #
body $-1 $15 $-1 $16 #
body $-1 $17 $-1 $18 #
body $-1 $19 $-1 $20 #
body $-1 $21 $-1 $22 #
body $-1 $23 $-1 $24 #
body $-1 $25 $-1 $26 #
body $-1 $27 $-1 $28 #
body $-1 $29 $-1 $30 #
body $-1 $31 $-1 $32 #
body $-1 $33 $-1 $34 #
body $-1 $35 $-1 $36 #
body $-1 $37 $-1 $38 #
lump $-1 $-1 $39 $0 #
transform $-1 1 0 0 0 1 0 0 0 1 42.850428785058135 21.041395280360891 4.9482308301607389 1 rotate no_reflect no_shear #
lump $-1 $-1 $40 $1 #
transform $-1 1 0 0 0 1 0 0 0 1 42.850428785058135 21.041395280360891 4.9482308301607389 1 rotate no_reflect no_shear #
lump $-1 $-1 $41 $2 #
transform $-1 1 0 0 0 1 0 0 0 1 42.850428785058135 21.041395280360891 4.9482308301607389 1 rotate no_reflect no_shear #
lump $-1 $-1 $42 $3 #
transform $-1 1 0 0 0 1 0 0 0 1 42.850428785058135 21.041395280360891 4.9482308301607389 1 rotate no_reflect no_shear #
lump $-1 $-1 $43 $4 #
transform $-1 1 0 0 0 1 0 0 0 1 42.850428785058135 21.041395280360891 4.9482308301607389 1 rotate no_reflect no_shear #
lump $-1 $-1 $44 $5 #
transform $-1 1 0 0 0 1 0 0 0 1 42.850428785058135 21.041395280360891 4.9482308301607389 1 rotate no_reflect no_shear #
lump $-1 $-1 $45 $6 #
transform $-1 1 0 0 0 1 0 0 0 1 42.850428785058135 21.041395280360891 4.9482308301607389 1 rotate no_reflect no_shear #
lump $-1 $-1 $46 $7 #
transform $-1 1 0 0 0 1 0 0 0 1 42.850428785058135 21.041395280360891 4.9482308301607389 1 rotate no_reflect no_shear #
lump $-1 $-1 $47 $8 #
transform $-1 1 0 0 0 1 0 0 0 1 42.850428785058135 21.041395280360891 4.9482308301607389 1 rotate no_reflect no_shear #
lump $-1 $-1 $48 $9 #
transform $-1 1 0 0 0 1 0 0 0 1 42.850428785058135 21.041395280360891 4.9482308301607389 1 rotate no_reflect no_shear #
lump $-1 $-1 $49 $10 #
transform $-1 1 0 0 0 1 0 0 0 1 42.850428785058135 21.041395280360891 4.9482308301607389 1 rotate no_reflect no_shear #
lump $-1 $-1 $50 $11 #
transform $-1 1 0 0 0 1 0 0 0 1 42.850428785058135 21.041395280360891 4.9482308301607389 1 rotate no_reflect no_shear #
lump $-1 $-1 $51 $12 #
transform $-1 1 0 0 0 1 0 0 0 1 42.850428785058135 21.041395280360891 4.9482308301607389 1 rotate no_reflect no_shear #
shell $-1 $-1 $-1 $52 $-1 $13 #
shell $-1 $-1 $-1 $53 $-1 $15 #
shell $-1 $-1 $-1 $54 $-1 $17 #
shell $-1 $-1 $-1 $55 $-1 $19 #
shell $-1 $-1 $-1 $56 $-1 $21 #
shell $-1 $-1 $-1 $57 $-1 $23 #
shell $-1 $-1 $-1 $58 $-1 $25 #
shell $-1 $-1 $-1 $59 $-1 $27 #
shell $-1 $-1 $-1 $60 $-1 $29 #
shell $-1 $-1 $-1 $61 $-1 $31 #
shell $-1 $-1 $-1 $62 $-1 $33 #
shell $-1 $-1 $-1 $63 $-1 $35 #
shell $-1 $-1 $-1 $64 $-1 $37 #
face $-1 $65 $66 $39 $-1 $67 forward single #
face $-1 $68 $69 $40 $-1 $70 forward single #
face $-1 $71 $72 $41 $-1 $73 reversed single #
face $-1 $74 $75 $42 $-1 $76 forward single #
face $-1 $77 $78 $43 $-1 $79 forward single #
face $-1 $80 $81 $44 $-1 $82 reversed single #
face $-1 $83 $84 $45 $-1 $85 forward single #
face $-1 $86 $87 $46 $-1 $88 forward single #
face $-1 $89 $90 $47 $-1 $91 reversed single #
face $-1 $92 $93 $48 $-1 $94 forward single #
face $-1 $95 $96 $49 $-1 $97 forward single #
face $-1 $98 $99 $50 $-1 $100 reversed single #
face $-1 $101 $102 $51 $-1 $103 forward single #
face $-1 $104 $105 $39 $-1 $106 reversed single #
loop $-1 $-1 $107 $52 #
plane-surface $-1 0 0 4.9482308301607389 0 0 1 1 0 0 forward_v I I I I #
face $-1 $108 $109 $40 $-1 $110 reversed single #
loop $-1 $-1 $111 $53 #
plane-surface $-1 0 -21.041395280360891 0 0 1 0 0 0 1 forward_v I I I I #
face $-1 $112 $113 $41 $-1 $114 reversed single #
loop $-1 $-1 $115 $54 #
plane-surface $-1 -93.22412961714619 -10.484766864477159 70.976606183824671 0 1 0 -0.5877852598018023 0 0.80901698891910034 forward_v I I I I #
face $-1 $116 $117 $42 $-1 $118 forward single #
loop $-1 $119 $120 $55 #
cone-surface $-1 -39.456572659463419 -8.3241133894410897 1.7550627865088837 0.5877852598018023 0 -0.80901698891910034 0.80901698891910034 0 0.5877852598018023 1 I I 0 1 1 forward I I I I #
face $-1 $121 $122 $43 $-1 $123 forward single #
loop $-1 $124 $125 $56 #
cone-surface $-1 -39.456572659463419 -5.0831331768869816 1.7550627865088837 0.5877852598018023 0 -0.80901698891910034 0.80901698891910034 0 0.5877852598018023 1 I I 0 1 1 forward I I I I #
face $-1 $126 $127 $44 $-1 $128 reversed single #
loop $-1 $-1 $129 $57 #
plane-surface $-1 -93.22412961714619 1.4971706266287397 70.976606183824671 0 1 0 -0.5877852598018023 0 0.80901698891910034 forward_v I I I I #
face $-1 $130 $131 $45 $-1 $132 forward single #
loop $-1 $133 $134 $58 #
cone-surface $-1 -39.456572659463419 3.6578241016648114 1.7550627865088837 0.5877852598018023 0 -0.80901698891910034 0.80901698891910034 0 0.5877852598018023 1 I I 0 1 1 forward I I I I #
face $-1 $135 $136 $46 $-1 $137 forward single #
loop $-1 $138 $139 $59 #
cone-surface $-1 -39.456572659463419 6.8988043142189177 1.7550627865088837 0.5877852598018023 0 -0.80901698891910034 0.80901698891910034 0 0.5877852598018023 1 I I 0 1 1 forward I I I I #
face $-1 $140 $141 $47 $-1 $142 reversed single #
loop $-1 $-1 $143 $60 #
plane-surface $-1 -93.22412961714619 13.479108117734643 70.976606183824671 0 1 0 -0.5877852598018023 0 0.80901698891910034 forward_v I I I I #
face $-1 $144 $145 $48 $-1 $146 forward single #
loop $-1 $147 $148 $61 #
cone-surface $-1 -39.456572659463419 15.639761592770714 1.7550627865088837 0.5877852598018023 0 -0.80901698891910034 0.80901698891910034 0 0.5877852598018023 1 I I 0 1 1 forward I I I I #
face $-1 $149 $150 $49 $-1 $151 forward single #
loop $-1 $152 $153 $62 #
cone-surface $-1 -39.456572659463419 18.880741805324821 1.7550627865088837 0.5877852598018023 0 -0.80901698891910034 0.80901698891910034 0 0.5877852598018023 1 I I 0 1 1 forward I I I I #
face $-1 $154 $155 $50 $-1 $156 reversed single #
loop $-1 $-1 $157 $63 #
plane-surface $-1 44.965649929052908 12.387511448130832 122.88043704840943 0 -1 0 -0.71933980857756763 0 -0.69465836192734942 forward_v I I I I #
face $-1 $158 $159 $51 $-1 $160 forward single #
loop $-1 $161 $162 $64 #
cone-surface $-1 40.646665276736506 7.6173496123908144 2.7105282314635657 -0.71933980857756763 0 -0.69465836192734942 0.34732918096367471 0 -0.35966990428878381 1 I I 0 1 0.5 forward I I I I #
face $-1 $163 $164 $39 $-1 $165 reversed single #
loop $-1 $-1 $166 $65 #
plane-surface $-1 0 0 -4.9482308301607389 0 0 1 1 0 0 forward_v I I I I #
coedge $-1 $167 $168 $169 $170 forward $66 $-1 #
face $-1 $171 $172 $40 $-1 $173 reversed single #
loop $-1 $-1 $174 $68 #
plane-surface $-1 0 0 -4.9482308301607389 0 0 1 1 0 0 forward_v I I I I #
coedge $-1 $175 $176 $177 $178 forward $69 $-1 #
face $-1 $179 $180 $41 $-1 $181 reversed single #
loop $-1 $-1 $182 $71 #
plane-surface $-1 -42.850428785058142 -6.7036232831640348 1.6431564446645268 -0.5877852598018023 0 0.80901698891910034 0.80901698891910034 0 0.5877852598018023 forward_v I I I I #
coedge $-1 $183 $184 $185 $186 reversed $72 $-1 #
face $-1 $-1 $187 $42 $-1 $188 forward single #
loop $-1 $189 $190 $74 #
cone-surface $-1 -38.043346174575099 -8.3241133894410897 -0.19007655885440933 0.5877852598018023 0 -0.80901698891910034 0.40450849445955017 0 0.29389262990090115 1 I I -0.70710678118654746 0.70710678118654746 0.5 forward I I I I #
loop $-1 $-1 $191 $55 #
coedge $-1 $120 $120 $192 $193 reversed $75 $-1 #
face $-1 $-1 $194 $43 $-1 $195 forward single #
loop $-1 $196 $197 $77 #
cone-surface $-1 -38.043346174575099 -5.0831331768869816 -0.19007655885440933 0.5877852598018023 0 -0.80901698891910034 0.40450849445955017 0 0.29389262990090115 1 I I -0.70710678118654746 0.70710678118654746 0.5 forward I I I I #
loop $-1 $-1 $198 $56 #
coedge $-1 $125 $125 $199 $200 reversed $78 $-1 #
face $-1 $201 $202 $44 $-1 $203 reversed single #
loop $-1 $-1 $204 $80 #
plane-surface $-1 -42.850428785058142 5.2783142079418646 1.6431564446645268 -0.5877852598018023 0 0.80901698891910034 0.80901698891910034 0 0.5877852598018023 forward_v I I I I #
coedge $-1 $205 $206 $207 $208 reversed $81 $-1 #
face $-1 $-1 $209 $45 $-1 $210 forward single #
loop $-1 $211 $212 $83 #
cone-surface $-1 -38.043346174575099 3.6578241016648114 -0.19007655885440933 0.5877852598018023 0 -0.80901698891910034 0.40450849445955017 0 0.29389262990090115 1 I I -0.70710678118654746 0.70710678118654746 0.5 forward I I I I #
loop $-1 $-1 $213 $58 #
coedge $-1 $134 $134 $214 $215 reversed $84 $-1 #
face $-1 $-1 $216 $46 $-1 $217 forward single #
loop $-1 $218 $219 $86 #
cone-surface $-1 -38.043346174575099 6.8988043142189177 -0.19007655885440933 0.5877852598018023 0 -0.80901698891910034 0.40450849445955017 0 0.29389262990090115 1 I I -0.70710678118654746 0.70710678118654746 0.5 forward I I I I #
loop $-1 $-1 $220 $59 #
coedge $-1 $139 $139 $221 $222 reversed $87 $-1 #
face $-1 $223 $224 $47 $-1 $225 forward single #
loop $-1 $-1 $226 $89 #
plane-surface $-1 -42.850428785058142 17.260251699047767 1.6431564446645268 -0.5877852598018023 0 0.80901698891910034 0.80901698891910034 0 0.5877852598018023 forward_v I I I I #
coedge $-1 $227 $228 $229 $230 reversed $90 $-1 #
face $-1 $-1 $231 $48 $-1 $232 forward single #
loop $-1 $233 $234 $92 #
cone-surface $-1 -38.043346174575099 15.639761592770714 -0.19007655885440933 0.5877852598018023 0 -0.80901698891910034 0.40450849445955017 0 0.29389262990090115 1 I I -0.70710678118654746 0.70710678118654746 0.5 forward I I I I #
loop $-1 $-1 $235 $61 #
coedge $-1 $148 $148 $236 $237 reversed $93 $-1 #
face $-1 $-1 $238 $49 $-1 $239 forward single #
loop $-1 $240 $241 $95 #
cone-surface $-1 -38.043346174575099 18.880741805324821 -0.19007655885440933 0.5877852598018023 0 -0.80901698891910034 0.40450849445955017 0 0.29389262990090115 1 I I -0.70710678118654746 0.70710678118654746 0.5 forward I I I I #
loop $-1 $-1 $242 $62 #
coedge $-1 $153 $153 $243 $244 reversed $96 $-1 #
face $-1 $245 $246 $50 $-1 $247 reversed single #
loop $-1 $-1 $248 $98 #
plane-surface $-1 -16.682388550367918 7.6173496123908144 63.347619712983381 0.71933980857756763 0 0.69465836192734942 0.69465836192734942 0 -0.71933980857756763 forward_v I I I I #
coedge $-1 $249 $250 $251 $252 reversed $99 $-1 #
face $-1 $-1 $253 $51 $-1 $254 forward single #
loop $-1 $255 $256 $101 #
cone-surface $-1 39.831659003397782 7.6173496123908144 1.9234858405836448 -0.71933980857756763 0 -0.69465836192734942 0.17366459048183736 0 -0.17983495214439191 1 I I -0.70710678118654746 0.70710678118654746 0.25 forward I I I I #
loop $-1 $-1 $257 $64 #
coedge $-1 $162 $162 $258 $259 reversed $102 $-1 #
face $-1 $260 $261 $39 $-1 $262 reversed single #
loop $-1 $-1 $263 $104 #
plane-surface $-1 0 -21.041395280360891 0 0 1 0 0 0 1 forward_v I I I I #
coedge $-1 $264 $265 $266 $267 forward $105 $-1 #
coedge $-1 $268 $107 $269 $270 forward $66 $-1 #
coedge $-1 $107 $268 $271 $272 forward $66 $-1 #
coedge $-1 $273 $274 $107 $170 reversed $275 $-1 #
edge $-1 $276 -21.041395280360891 $277 21.041395280360891 $169 $278 forward 7 unknown #
face $-1 $279 $280 $40 $-1 $281 forward single #
loop $-1 $-1 $282 $108 #
plane-surface $-1 42.850428785058135 0 0 -1 0 0 0 0 1 forward_v I I I I #
coedge $-1 $283 $284 $285 $286 forward $109 $-1 #
coedge $-1 $285 $111 $282 $287 reversed $69 $-1 #
coedge $-1 $111 $285 $288 $289 reversed $69 $-1 #
coedge $-1 $290 $291 $111 $178 reversed $280 $-1 #
edge $-1 $292 -42.850428785058135 $293 42.850428785058135 $177 $294 forward 7 unknown #
face $-1 $295 $296 $41 $-1 $297 forward single #
loop $-1 $-1 $298 $112 #
plane-surface $-1 -93.22412961714619 -2.9224797018509099 70.976606183824671 0 -1 0 0.5877852598018023 0 -0.80901698891910034 forward_v I I I I #
coedge $-1 $299 $300 $301 $302 reversed $113 $-1 #
coedge $-1 $184 $115 $303 $304 reversed $72 $-1 #
coedge $-1 $115 $183 $299 $305 reversed $72 $-1 #
coedge $-1 $301 $306 $115 $186 forward $296 $-1 #
edge $-1 $307 3.76163602351496 $308 8.3106805647295516 $185 $309 forward 7 unknown #
loop $-1 $-1 $192 $116 #
plane-surface $-1 -42.850428785058142 -6.7036232831640348 1.6431564446645268 -0.5877852598018023 0 0.80901698891910034 0.80901698891910034 0 0.5877852598018023 forward_v I I I I #
loop $-1 $-1 $310 $74 #
coedge $-1 $190 $190 $191 $311 reversed $117 $-1 #
coedge $-1 $191 $191 $190 $311 forward $119 $-1 #
coedge $-1 $192 $192 $120 $193 forward $187 $-1 #
edge $-1 $312 0 $312 6.2831853071796004 $192 $313 forward 7 unknown #
loop $-1 $-1 $199 $121 #
plane-surface $-1 -42.850428785058142 -6.7036232831640348 1.6431564446645268 -0.5877852598018023 0 0.80901698891910034 0.80901698891910034 0 0.5877852598018023 forward_v I I I I #
loop $-1 $-1 $314 $77 #
coedge $-1 $197 $197 $198 $315 reversed $122 $-1 #
coedge $-1 $198 $198 $197 $315 forward $124 $-1 #
coedge $-1 $199 $199 $125 $200 forward $194 $-1 #
edge $-1 $316 0 $316 6.2831853071796004 $199 $317 forward 7 unknown #
face $-1 $318 $319 $44 $-1 $320 forward single #
loop $-1 $-1 $321 $126 #
plane-surface $-1 -93.22412961714619 9.0594577892549886 70.976606183824671 0 -1 0 0.5877852598018023 0 -0.80901698891910034 forward_v I I I I #
coedge $-1 $322 $323 $324 $325 reversed $127 $-1 #
coedge $-1 $206 $129 $326 $327 reversed $81 $-1 #
coedge $-1 $129 $205 $322 $328 reversed $81 $-1 #
coedge $-1 $324 $329 $129 $208 forward $319 $-1 #
edge $-1 $330 3.76163602351496 $331 8.3106805647295516 $207 $332 forward 7 unknown #
loop $-1 $-1 $214 $130 #
plane-surface $-1 -42.850428785058142 5.2783142079418646 1.6431564446645268 -0.5877852598018023 0 0.80901698891910034 0.80901698891910034 0 0.5877852598018023 forward_v I I I I #
loop $-1 $-1 $333 $83 #
coedge $-1 $212 $212 $213 $334 reversed $131 $-1 #
coedge $-1 $213 $213 $212 $334 forward $133 $-1 #
coedge $-1 $214 $214 $134 $215 forward $209 $-1 #
edge $-1 $335 0 $335 6.2831853071796004 $214 $336 forward 7 unknown #
loop $-1 $-1 $221 $135 #
plane-surface $-1 -42.850428785058142 5.2783142079418646 1.6431564446645268 -0.5877852598018023 0 0.80901698891910034 0.80901698891910034 0 0.5877852598018023 forward_v I I I I #
loop $-1 $-1 $337 $86 #
coedge $-1 $219 $219 $220 $338 reversed $136 $-1 #
coedge $-1 $220 $220 $219 $338 forward $138 $-1 #
coedge $-1 $221 $221 $139 $222 forward $216 $-1 #
edge $-1 $339 0 $339 6.2831853071796004 $221 $340 forward 7 unknown #
face $-1 $341 $342 $47 $-1 $343 reversed single #
loop $-1 $-1 $229 $140 #
plane-surface $-1 0 0 4.9482308301607389 0 0 1 1 0 0 forward_v I I I I #
coedge $-1 $344 $345 $346 $347 reversed $141 $-1 #
coedge $-1 $228 $143 $348 $349 reversed $90 $-1 #
coedge $-1 $143 $227 $344 $350 reversed $90 $-1 #
coedge $-1 $346 $351 $143 $230 forward $224 $-1 #
edge $-1 $352 3.76163602351496 $353 8.3106805647295516 $229 $354 forward 7 unknown #
loop $-1 $-1 $236 $144 #
plane-surface $-1 -42.850428785058142 17.260251699047767 1.6431564446645268 -0.5877852598018023 0 0.80901698891910034 0.80901698891910034 0 0.5877852598018023 forward_v I I I I #
loop $-1 $-1 $355 $92 #
coedge $-1 $234 $234 $235 $356 reversed $145 $-1 #
coedge $-1 $235 $235 $234 $356 forward $147 $-1 #
coedge $-1 $236 $236 $148 $237 forward $231 $-1 #
edge $-1 $357 0 $357 6.2831853071796004 $236 $358 forward 7 unknown #
loop $-1 $-1 $243 $149 #
plane-surface $-1 -42.850428785058142 17.260251699047767 1.6431564446645268 -0.5877852598018023 0 0.80901698891910034 0.80901698891910034 0 0.5877852598018023 forward_v I I I I #
loop $-1 $-1 $359 $95 #
coedge $-1 $241 $241 $242 $360 reversed $150 $-1 #
coedge $-1 $242 $242 $241 $360 forward $152 $-1 #
coedge $-1 $243 $243 $153 $244 forward $238 $-1 #
edge $-1 $361 0 $361 6.2831853071796004 $243 $362 forward 7 unknown #
face $-1 $363 $364 $50 $-1 $365 forward single #
loop $-1 $-1 $366 $154 #
plane-surface $-1 44.965649929052908 2.8471877766507969 122.88043704840943 0 1 0 0.71933980857756763 0 0.69465836192734942 forward_v I I I I #
coedge $-1 $367 $368 $369 $370 reversed $155 $-1 #
coedge $-1 $250 $157 $371 $372 reversed $99 $-1 #
coedge $-1 $157 $249 $367 $373 reversed $99 $-1 #
coedge $-1 $369 $374 $157 $252 forward $364 $-1 #
edge $-1 $375 -20.367603820531681 $376 -17.230419446277079 $251 $377 forward 7 unknown #
loop $-1 $-1 $258 $158 #
plane-surface $-1 -16.682388550367918 7.6173496123908144 63.347619712983381 0.71933980857756763 0 0.69465836192734942 0.69465836192734942 0 -0.71933980857756763 forward_v I I I I #
loop $-1 $-1 $378 $101 #
coedge $-1 $256 $256 $257 $379 reversed $159 $-1 #
coedge $-1 $257 $257 $256 $379 forward $161 $-1 #
coedge $-1 $258 $258 $162 $259 forward $253 $-1 #
edge $-1 $380 0 $380 6.2831853071796004 $258 $381 forward 7 unknown #
face $-1 $382 $383 $39 $-1 $384 reversed single #
loop $-1 $-1 $385 $163 #
plane-surface $-1 -42.850428785058135 0 0 1 0 0 0 0 -1 forward_v I I I I #
coedge $-1 $386 $271 $387 $388 forward $164 $-1 #
coedge $-1 $389 $166 $386 $390 forward $105 $-1 #
coedge $-1 $166 $389 $391 $392 forward $105 $-1 #
coedge $-1 $274 $273 $166 $267 reversed $275 $-1 #
edge $-1 $393 -21.041395280360891 $394 21.041395280360891 $266 $395 forward 7 unknown #
coedge $-1 $168 $167 $396 $397 forward $66 $-1 #
coedge $-1 $398 $399 $167 $270 reversed $383 $-1 #
edge $-1 $277 -42.850428785058135 $400 42.850428785058135 $269 $401 forward 7 unknown #
coedge $-1 $263 $402 $168 $272 reversed $164 $-1 #
edge $-1 $403 -42.850428785058135 $276 42.850428785058135 $271 $404 forward 7 unknown #
coedge $-1 $266 $169 $402 $405 forward $275 $-1 #
coedge $-1 $169 $266 $398 $406 reversed $275 $-1 #
loop $-1 $-1 $273 $382 #
vertex $-1 $170 $407 #
vertex $-1 $170 $408 #
straight-curve $-1 42.850428785058135 0 4.9482308301607389 0 1 0 I I #
face $-1 $409 $410 $40 $-1 $411 reversed single #
loop $-1 $-1 $291 $171 #
plane-surface $-1 0 -24.109884324062932 -1.9482308301607389 0 0 1 1 0 0 forward_v I I I I #
coedge $-1 $412 $413 $175 $287 forward $172 $-1 #
coedge $-1 $414 $174 $413 $415 forward $109 $-1 #
coedge $-1 $174 $414 $416 $417 forward $109 $-1 #
coedge $-1 $176 $175 $174 $286 reversed $69 $-1 #
edge $-1 $418 -42.850428785058135 $419 42.850428785058135 $174 $420 forward 7 unknown #
edge $-1 $419 -4.9482308301607389 $293 -1.9482308301607389 $282 $421 forward 7 unknown #
coedge $-1 $416 $422 $176 $289 forward $423 $-1 #
edge $-1 $292 1.9482308301607389 $418 4.9482308301607389 $288 $424 forward 7 unknown #
coedge $-1 $425 $177 $422 $426 forward $280 $-1 #
coedge $-1 $177 $425 $412 $427 forward $280 $-1 #
vertex $-1 $289 $428 #
vertex $-1 $427 $429 #
straight-curve $-1 0 -21.041395280360891 -1.9482308301607389 1 0 0 I I #
face $-1 $-1 $430 $41 $-1 $431 reversed single #
loop $-1 $-1 $185 $179 #
plane-surface $-1 0 0 4.9482308301607389 0 0 1 1 0 0 forward_v I I I I #
coedge $-1 $432 $433 $434 $435 reversed $180 $-1 #
coedge $-1 $436 $182 $184 $305 forward $113 $-1 #
coedge $-1 $182 $436 $432 $437 forward $113 $-1 #
coedge $-1 $434 $185 $182 $302 forward $296 $-1 #
edge $-1 $308 -7.1329552228951414 $438 0.4293319397311075 $301 $439 forward 7 unknown #
coedge $-1 $440 $441 $183 $304 forward $430 $-1 #
edge $-1 $442 -33.845146647247802 $307 -30.540072261751597 $303 $443 forward 7 unknown #
edge $-1 $308 -5.6229283235354783 $442 -8.7502459990790685e-015 $184 $444 forward 7 unknown #
coedge $-1 $185 $434 $440 $445 forward $296 $-1 #
vertex $-1 $304 $446 #
vertex $-1 $186 $447 #
straight-curve $-1 -46.612064808573095 -10.484766864477159 4.9482308301607389 1 0 0 I I #
coedge $-1 $310 $310 $-1 $448 reversed $189 $-1 #
edge $-1 $449 0 $449 6.2831853071796004 $190 $450 forward 7 unknown #
vertex $-1 $193 $451 #
ellipse-curve $-1 -40.575906514450843 -8.3241133894410897 3.2956936374126355 -0.5877852598018023 0 0.80901698891910034 0.80901698891910034 0 0.5877852598018023 1 I I #
coedge $-1 $314 $314 $-1 $452 reversed $196 $-1 #
edge $-1 $453 0 $453 6.2831853071796004 $197 $454 forward 7 unknown #
vertex $-1 $200 $455 #
ellipse-curve $-1 -40.575906514450843 -5.0831331768869816 3.2956936374126355 -0.5877852598018023 0 0.80901698891910034 0.80901698891910034 0 0.5877852598018023 1 I I #
face $-1 $-1 $456 $44 $-1 $457 reversed single #
loop $-1 $-1 $207 $201 #
plane-surface $-1 0 0 4.9482308301607389 0 0 1 1 0 0 forward_v I I I I #
coedge $-1 $458 $459 $460 $461 reversed $202 $-1 #
coedge $-1 $462 $204 $206 $328 forward $127 $-1 #
coedge $-1 $204 $462 $458 $463 forward $127 $-1 #
coedge $-1 $460 $207 $204 $325 forward $319 $-1 #
edge $-1 $331 -1.1419864773421926 $464 6.4203006852840563 $324 $465 forward 7 unknown #
coedge $-1 $466 $467 $205 $327 forward $456 $-1 #
edge $-1 $468 -33.845146647247802 $330 -30.540072261751597 $326 $469 forward 7 unknown #
edge $-1 $331 -5.6229283235354783 $468 -8.7502459990790685e-015 $206 $470 forward 7 unknown #
coedge $-1 $207 $460 $466 $471 forward $319 $-1 #
vertex $-1 $208 $472 #
vertex $-1 $208 $473 #
straight-curve $-1 -46.612064808573095 1.4971706266287397 4.9482308301607389 1 0 0 I I #
coedge $-1 $333 $333 $-1 $474 reversed $211 $-1 #
edge $-1 $475 0 $475 6.2831853071796004 $212 $476 forward 7 unknown #
vertex $-1 $215 $477 #
ellipse-curve $-1 -40.575906514450843 3.6578241016648114 3.2956936374126355 -0.5877852598018023 0 0.80901698891910034 0.80901698891910034 0 0.5877852598018023 1 I I #
coedge $-1 $337 $337 $-1 $478 reversed $218 $-1 #
edge $-1 $479 0 $479 6.2831853071796004 $219 $480 forward 7 unknown #
vertex $-1 $222 $481 #
ellipse-curve $-1 -40.575906514450843 6.8988043142189177 3.2956936374126355 -0.5877852598018023 0 0.80901698891910034 0.80901698891910034 0 0.5877852598018023 1 I I #
face $-1 $-1 $482 $47 $-1 $483 reversed single #
loop $-1 $-1 $484 $223 #
plane-surface $-1 0 21.041395280360891 0 0 -1 0 0 0 -1 forward_v I I I I #
coedge $-1 $485 $226 $228 $350 forward $141 $-1 #
coedge $-1 $226 $485 $484 $486 reversed $141 $-1 #
coedge $-1 $487 $229 $226 $347 forward $224 $-1 #
edge $-1 $353 4.8489822682107597 $488 12.411269430837008 $346 $489 forward 7 unknown #
coedge $-1 $490 $491 $227 $349 forward $482 $-1 #
edge $-1 $492 -33.845146647247802 $352 -30.540072261751597 $348 $493 forward 7 unknown #
edge $-1 $353 -5.6229283235354783 $492 -8.7502459990790685e-015 $228 $494 forward 7 unknown #
coedge $-1 $229 $487 $490 $495 forward $224 $-1 #
vertex $-1 $349 $496 #
vertex $-1 $230 $497 #
straight-curve $-1 -46.612064808573095 13.479108117734643 4.9482308301607389 1 0 0 I I #
coedge $-1 $355 $355 $-1 $498 reversed $233 $-1 #
edge $-1 $499 0 $499 6.2831853071796004 $234 $500 forward 7 unknown #
vertex $-1 $237 $501 #
ellipse-curve $-1 -40.575906514450843 15.639761592770714 3.2956936374126355 -0.5877852598018023 0 0.80901698891910034 0.80901698891910034 0 0.5877852598018023 1 I I #
coedge $-1 $359 $359 $-1 $502 reversed $240 $-1 #
edge $-1 $503 0 $503 6.2831853071796004 $241 $504 forward 7 unknown #
vertex $-1 $244 $505 #
ellipse-curve $-1 -40.575906514450843 18.880741805324821 3.2956936374126355 -0.5877852598018023 0 0.80901698891910034 0.80901698891910034 0 0.5877852598018023 1 I I #
face $-1 $-1 $506 $50 $-1 $507 reversed single #
loop $-1 $-1 $251 $245 #
plane-surface $-1 0 0 4.9482308301607389 0 0 1 1 0 0 forward_v I I I I #
coedge $-1 $508 $509 $510 $511 reversed $246 $-1 #
coedge $-1 $512 $248 $250 $373 forward $155 $-1 #
coedge $-1 $248 $512 $508 $513 forward $155 $-1 #
coedge $-1 $510 $251 $248 $370 forward $364 $-1 #
edge $-1 $376 -8.5788366419354247 $514 0.96148702954461029 $369 $515 forward 7 unknown #
coedge $-1 $516 $517 $249 $372 forward $506 $-1 #
edge $-1 $518 -59.740637290642162 $375 -56.491987694043978 $371 $519 forward 7 unknown #
edge $-1 $376 81.184703232679965 $518 85.70085757011627 $250 $520 forward 7 unknown #
coedge $-1 $251 $510 $516 $521 forward $364 $-1 #
vertex $-1 $372 $522 #
vertex $-1 $252 $523 #
straight-curve $-1 22.482824964526454 12.387511448130832 4.9482308301607389 -1 0 0 I I #
coedge $-1 $378 $378 $-1 $524 reversed $255 $-1 #
edge $-1 $525 0 $525 6.2831853071796004 $256 $526 forward 7 unknown #
vertex $-1 $259 $527 #
ellipse-curve $-1 41.281836597930841 7.6173496123908144 3.3239060318616467 0.71933980857756763 0 0.69465836192734942 0.34732918096367471 0 -0.35966990428878381 1 I I #
face $-1 $-1 $275 $39 $-1 $528 reversed single #
loop $-1 $-1 $398 $260 #
plane-surface $-1 0 21.041395280360891 0 0 -1 0 0 0 -1 forward_v I I I I #
coedge $-1 $529 $396 $399 $530 forward $261 $-1 #
coedge $-1 $402 $263 $264 $390 reversed $164 $-1 #
coedge $-1 $396 $529 $263 $388 reversed $261 $-1 #
edge $-1 $403 -4.9482308301607389 $531 4.9482308301607389 $387 $532 forward 7 unknown #
coedge $-1 $265 $264 $529 $533 forward $105 $-1 #
edge $-1 $394 -42.850428785058135 $531 42.850428785058135 $386 $534 forward 7 unknown #
coedge $-1 $399 $398 $265 $392 reversed $383 $-1 #
edge $-1 $535 -42.850428785058135 $393 42.850428785058135 $391 $536 forward 7 unknown #
vertex $-1 $267 $537 #
vertex $-1 $405 $538 #
straight-curve $-1 42.850428785058135 0 -4.9482308301607389 0 -1 0 I I #
coedge $-1 $385 $387 $268 $397 reversed $261 $-1 #
edge $-1 $400 -21.041395280360891 $403 21.041395280360891 $396 $539 forward 7 unknown #
coedge $-1 $391 $269 $274 $406 forward $383 $-1 #
coedge $-1 $269 $391 $385 $530 reversed $383 $-1 #
vertex $-1 $270 $540 #
straight-curve $-1 0 21.041395280360891 4.9482308301607389 -1 0 0 I I #
coedge $-1 $271 $386 $273 $405 reversed $164 $-1 #
vertex $-1 $397 $541 #
straight-curve $-1 0 -21.041395280360891 4.9482308301607389 1 0 0 I I #
edge $-1 $276 -4.9482308301607389 $394 4.9482308301607389 $273 $542 forward 7 unknown #
edge $-1 $277 -4.9482308301607389 $393 4.9482308301607389 $274 $543 forward 7 unknown #
point $-1 42.850428785058135 -21.041395280360891 4.9482308301607389 #
point $-1 42.850428785058135 21.041395280360891 4.9482308301607389 #
face $-1 $-1 $423 $40 $-1 $544 reversed single #
loop $-1 $-1 $545 $279 #
plane-surface $-1 0 -27.178373367764973 -3.4482308301607389 0 1 0 0 0 1 forward_v I I I I #
coedge $-1 $546 $282 $291 $427 reversed $172 $-1 #
coedge $-1 $282 $546 $283 $415 reversed $172 $-1 #
coedge $-1 $284 $283 $547 $548 forward $109 $-1 #
edge $-1 $419 21.041395280360891 $549 27.178373367764973 $413 $550 forward 7 unknown #
coedge $-1 $551 $288 $284 $417 reversed $423 $-1 #
edge $-1 $552 -27.178373367764973 $418 -21.041395280360891 $416 $553 forward 7 unknown #
vertex $-1 $289 $554 #
vertex $-1 $415 $555 #
straight-curve $-1 0 -21.041395280360891 -4.9482308301607389 1 0 0 I I #
straight-curve $-1 42.850428785058135 -21.041395280360891 0 0 0 1 I I #
coedge $-1 $288 $551 $290 $426 reversed $423 $-1 #
loop $-1 $-1 $288 $409 #
straight-curve $-1 -42.850428785058135 -21.041395280360891 0 0 0 -1 I I #
coedge $-1 $291 $290 $556 $557 forward $280 $-1 #
edge $-1 $292 -3.0684890437020407 $558 3.0684890437020407 $422 $559 forward 7 unknown #
edge $-1 $560 -3.0684890437020407 $293 3.0684890437020407 $412 $561 forward 7 unknown #
point $-1 -42.850428785058135 -21.041395280360891 -1.9482308301607389 #
point $-1 42.850428785058135 -21.041395280360891 -1.9482308301607389 #
loop $-1 $-1 $303 $295 #
plane-surface $-1 -42.850428785058135 0 0 1 0 0 0 0 -1 forward_v I I I I #
coedge $-1 $433 $298 $300 $437 reversed $180 $-1 #
coedge $-1 $298 $432 $562 $563 reversed $180 $-1 #
coedge $-1 $306 $301 $298 $435 forward $296 $-1 #
edge $-1 $438 -8.3106805647295516 $564 -3.76163602351496 $434 $565 forward 7 unknown #
coedge $-1 $300 $299 $441 $566 reversed $113 $-1 #
edge $-1 $567 8.7502459990790685e-015 $438 5.6229283235354783 $432 $568 forward 7 unknown #
vertex $-1 $302 $569 #
straight-curve $-1 -38.301384243843543 -3.3518116415820174 4.9482308301607389 0 1 0 I I #
coedge $-1 $562 $303 $306 $445 reversed $430 $-1 #
coedge $-1 $303 $562 $436 $566 forward $430 $-1 #
vertex $-1 $304 $570 #
straight-curve $-1 -42.850428785058135 -10.484766864477159 35.488303091912336 0 0 1 I I #
straight-curve $-1 -42.850428785058142 -10.484766864477159 1.6431564446645268 -0.80901698891910034 0 -0.5877852598018023 I I #
edge $-1 $564 2.9224797018509099 $307 10.484766864477159 $440 $571 forward 7 unknown #
point $-1 -42.850428785058135 -10.484766864477159 4.9482308301607389 #
point $-1 -38.301384243843543 -10.484766864477159 4.9482308301607389 #
edge $-1 $572 1 $572 0 $310 $-1 forward 7 unknown #
vertex $-1 $311 $573 #
ellipse-curve $-1 -38.337238804476002 -8.3241133894410897 0.21443193560514084 -0.5877852598018023 0 0.80901698891910034 0.80901698891910034 0 0.5877852598018023 1 I I #
point $-1 -39.766889525531731 -8.3241133894410897 3.8834788972144292 #
edge $-1 $574 1 $574 0 $314 $-1 forward 7 unknown #
vertex $-1 $315 $575 #
ellipse-curve $-1 -38.337238804476002 -5.0831331768869816 0.21443193560514084 -0.5877852598018023 0 0.80901698891910034 0.80901698891910034 0 0.5877852598018023 1 I I #
point $-1 -39.766889525531731 -5.0831331768869816 3.8834788972144292 #
loop $-1 $-1 $326 $318 #
plane-surface $-1 -42.850428785058135 0 0 1 0 0 0 0 -1 forward_v I I I I #
coedge $-1 $459 $321 $323 $463 reversed $202 $-1 #
coedge $-1 $321 $458 $576 $577 reversed $202 $-1 #
coedge $-1 $329 $324 $321 $461 forward $319 $-1 #
edge $-1 $464 -8.3106805647295516 $578 -3.76163602351496 $460 $579 forward 7 unknown #
coedge $-1 $323 $322 $467 $580 reversed $127 $-1 #
edge $-1 $581 8.7502459990790685e-015 $464 5.6229283235354783 $458 $582 forward 7 unknown #
vertex $-1 $325 $583 #
straight-curve $-1 -38.301384243843543 2.6391571039709323 4.9482308301607389 0 1 0 I I #
coedge $-1 $576 $326 $329 $471 reversed $456 $-1 #
coedge $-1 $326 $576 $462 $580 forward $456 $-1 #
vertex $-1 $327 $584 #
straight-curve $-1 -42.850428785058135 1.4971706266287397 35.488303091912336 0 0 1 I I #
straight-curve $-1 -42.850428785058142 1.4971706266287397 1.6431564446645268 -0.80901698891910034 0 -0.5877852598018023 I I #
edge $-1 $578 -9.0594577892549886 $330 -1.4971706266287397 $466 $585 forward 7 unknown #
point $-1 -42.850428785058135 1.4971706266287397 4.9482308301607389 #
point $-1 -38.301384243843543 1.4971706266287397 4.9482308301607389 #
edge $-1 $586 1 $586 0 $333 $-1 forward 7 unknown #
vertex $-1 $334 $587 #
ellipse-curve $-1 -38.337238804476002 3.6578241016648114 0.21443193560514084 -0.5877852598018023 0 0.80901698891910034 0.80901698891910034 0 0.5877852598018023 1 I I #
point $-1 -39.766889525531731 3.6578241016648114 3.8834788972144292 #
edge $-1 $588 1 $588 0 $337 $-1 forward 7 unknown #
vertex $-1 $338 $589 #
ellipse-curve $-1 -38.337238804476002 6.8988043142189177 0.21443193560514084 -0.5877852598018023 0 0.80901698891910034 0.80901698891910034 0 0.5877852598018023 1 I I #
point $-1 -39.766889525531731 6.8988043142189177 3.8834788972144292 #
loop $-1 $-1 $348 $341 #
plane-surface $-1 -42.850428785058135 0 0 1 0 0 0 0 -1 forward_v I I I I #
coedge $-1 $590 $591 $345 $486 forward $342 $-1 #
coedge $-1 $345 $344 $491 $592 reversed $141 $-1 #
edge $-1 $488 11.227522542393489 $593 16.850450865928959 $484 $594 forward 7 unknown #
coedge $-1 $351 $346 $591 $595 forward $224 $-1 #
vertex $-1 $595 $596 #
straight-curve $-1 -38.301384243843543 8.6301258495238837 4.9482308301607389 0 1 0 I I #
coedge $-1 $597 $348 $351 $495 reversed $482 $-1 #
coedge $-1 $348 $597 $485 $592 forward $482 $-1 #
vertex $-1 $349 $598 #
straight-curve $-1 -42.850428785058135 13.479108117734643 35.488303091912336 0 0 1 I I #
straight-curve $-1 -42.850428785058142 13.479108117734643 1.6431564446645268 -0.80901698891910034 0 -0.5877852598018023 I I #
edge $-1 $599 -21.041395280360891 $352 -13.479108117734643 $490 $600 forward 7 unknown #
point $-1 -42.850428785058135 13.479108117734643 4.9482308301607389 #
point $-1 -38.301384243843543 13.479108117734643 4.9482308301607389 #
edge $-1 $601 1 $601 0 $355 $-1 forward 7 unknown #
vertex $-1 $356 $602 #
ellipse-curve $-1 -38.337238804476002 15.639761592770714 0.21443193560514084 -0.5877852598018023 0 0.80901698891910034 0.80901698891910034 0 0.5877852598018023 1 I I #
point $-1 -39.766889525531731 15.639761592770714 3.8834788972144292 #
edge $-1 $603 1 $603 0 $359 $-1 forward 7 unknown #
vertex $-1 $360 $604 #
ellipse-curve $-1 -38.337238804476002 18.880741805324821 0.21443193560514084 -0.5877852598018023 0 0.80901698891910034 0.80901698891910034 0 0.5877852598018023 1 I I #
point $-1 -39.766889525531731 18.880741805324821 3.8834788972144292 #
loop $-1 $-1 $371 $363 #
plane-surface $-1 42.850428785058135 0 0 -1 0 0 0 0 1 forward_v I I I I #
coedge $-1 $509 $366 $368 $513 reversed $246 $-1 #
coedge $-1 $366 $508 $605 $606 reversed $246 $-1 #
coedge $-1 $374 $369 $366 $511 forward $364 $-1 #
edge $-1 $514 17.230419446277079 $607 20.367603820531681 $510 $608 forward 7 unknown #
coedge $-1 $368 $367 $517 $609 reversed $155 $-1 #
edge $-1 $610 -85.70085757011627 $514 -81.184703232679965 $508 $611 forward 7 unknown #
vertex $-1 $370 $612 #
straight-curve $-1 39.71324441080354 3.8086748061954072 4.9482308301607461 0 -1 0 I I #
coedge $-1 $605 $371 $374 $521 reversed $506 $-1 #
coedge $-1 $371 $605 $512 $609 forward $506 $-1 #
vertex $-1 $372 $613 #
straight-curve $-1 42.850428785058135 12.387511448130832 61.440218524204717 0 0 1 I I #
straight-curve $-1 -16.682388550367918 12.387511448130832 63.347619712983381 0.69465836192734942 0 -0.71933980857756763 I I #
edge $-1 $607 2.8471877766507969 $375 12.387511448130832 $516 $614 forward 7 unknown #
point $-1 42.850428785058135 12.387511448130832 4.9482308301607389 #
point $-1 39.713244410803533 12.387511448130832 4.9482308301607389 #
edge $-1 $615 1 $615 0 $378 $-1 forward 7 unknown #
vertex $-1 $379 $616 #
ellipse-curve $-1 40.011493955542171 7.6173496123908144 2.097150431065482 0.71933980857756763 0 0.69465836192734942 0.34732918096367471 0 -0.35966990428878381 1 I I #
point $-1 41.629165778894517 7.6173496123908144 2.9642361275728648 #
plane-surface $-1 42.850428785058135 0 0 -1 0 0 0 0 1 forward_v I I I I #
coedge $-1 $387 $385 $389 $533 reversed $261 $-1 #
edge $-1 $400 -4.9482308301607389 $535 4.9482308301607389 $399 $617 forward 7 unknown #
vertex $-1 $533 $618 #
straight-curve $-1 -42.850428785058135 -21.041395280360891 0 0 0 -1 I I #
edge $-1 $531 -21.041395280360891 $535 21.041395280360891 $529 $619 forward 7 unknown #
straight-curve $-1 0 -21.041395280360891 -4.9482308301607389 -1 0 0 I I #
vertex $-1 $392 $620 #
straight-curve $-1 0 21.041395280360891 -4.9482308301607389 1 0 0 I I #
point $-1 42.850428785058135 21.041395280360891 -4.9482308301607389 #
point $-1 42.850428785058135 -21.041395280360891 -4.9482308301607389 #
straight-curve $-1 -42.850428785058135 0 4.9482308301607389 0 -1 0 I I #
point $-1 -42.850428785058135 21.041395280360891 4.9482308301607389 #
point $-1 -42.850428785058135 -21.041395280360891 4.9482308301607389 #
straight-curve $-1 42.850428785058135 -21.041395280360891 0 0 0 -1 I I #
straight-curve $-1 42.850428785058135 21.041395280360891 0 0 0 -1 I I #
plane-surface $-1 -42.850428785058135 0 0 1 0 0 0 0 -1 forward_v I I I I #
coedge $-1 $547 $556 $551 $621 forward $410 $-1 #
coedge $-1 $413 $412 $622 $623 forward $172 $-1 #
coedge $-1 $622 $545 $414 $548 reversed $410 $-1 #
edge $-1 $549 -42.850428785058135 $552 42.850428785058135 $547 $624 forward 7 unknown #
vertex $-1 $623 $625 #
straight-curve $-1 42.850428785058135 0 -4.9482308301607389 0 -1 0 I I #
coedge $-1 $422 $416 $545 $621 reversed $423 $-1 #
vertex $-1 $417 $626 #
straight-curve $-1 -42.850428785058135 0 -4.9482308301607389 0 1 0 I I #
point $-1 -42.850428785058135 -21.041395280360891 -4.9482308301607389 #
point $-1 42.850428785058135 -21.041395280360891 -4.9482308301607389 #
coedge $-1 $545 $622 $425 $557 reversed $410 $-1 #
edge $-1 $558 -42.850428785058135 $560 42.850428785058135 $556 $627 forward 7 unknown #
vertex $-1 $426 $628 #
straight-curve $-1 -42.850428785058135 -24.109884324062932 -1.9482308301607389 0 -1 0 I I #
vertex $-1 $427 $629 #
straight-curve $-1 42.850428785058135 -24.109884324062932 -1.9482308301607389 0 1 0 I I #
coedge $-1 $441 $440 $433 $563 forward $430 $-1 #
edge $-1 $564 30.540072261751597 $567 33.845146647247802 $562 $630 forward 7 unknown #
vertex $-1 $445 $631 #
straight-curve $-1 -46.612064808573095 -2.9224797018509099 4.9482308301607389 -1 0 0 I I #
edge $-1 $567 -0.4293319397311075 $442 7.1329552228951414 $441 $632 forward 7 unknown #
vertex $-1 $566 $633 #
straight-curve $-1 -42.850428785058142 -2.9224797018509099 1.6431564446645268 0.80901698891910034 0 0.5877852598018023 I I #
point $-1 -38.301384243843543 -2.9224797018509099 4.9482308301607389 #
point $-1 -42.850428785058135 -10.484766864477159 1.6431564446645319 #
straight-curve $-1 -42.850428785058135 0 4.9482308301607389 0 -1 0 I I #
vertex $-1 $448 $634 #
point $-1 -37.528221815556897 -8.3241133894410897 0.80221719540694314 #
vertex $-1 $452 $635 #
point $-1 -37.528221815556897 -5.0831331768869816 0.80221719540694314 #
coedge $-1 $467 $466 $459 $577 forward $456 $-1 #
edge $-1 $578 30.540072261751597 $581 33.845146647247802 $576 $636 forward 7 unknown #
vertex $-1 $471 $637 #
straight-curve $-1 -46.612064808573095 9.0594577892549886 4.9482308301607389 -1 0 0 I I #
edge $-1 $581 -6.4203006852840563 $468 1.1419864773421926 $467 $638 forward 7 unknown #
vertex $-1 $580 $639 #
straight-curve $-1 -42.850428785058142 9.0594577892549886 1.6431564446645268 0.80901698891910034 0 0.5877852598018023 I I #
point $-1 -38.301384243843543 9.0594577892549886 4.9482308301607389 #
point $-1 -42.850428785058135 1.4971706266287397 1.6431564446645319 #
straight-curve $-1 -42.850428785058135 0 4.9482308301607389 0 -1 0 I I #
vertex $-1 $474 $640 #
point $-1 -37.528221815556897 3.6578241016648114 0.80221719540694314 #
vertex $-1 $478 $641 #
point $-1 -37.528221815556897 6.8988043142189177 0.80221719540694314 #
coedge $-1 $591 $484 $597 $642 reversed $342 $-1 #
coedge $-1 $484 $590 $487 $595 reversed $342 $-1 #
edge $-1 $593 -12.411269430837008 $492 -4.8489822682107597 $491 $643 forward 7 unknown #
vertex $-1 $486 $644 #
straight-curve $-1 -29.21812776357504 21.041395280360891 11.547603084672089 -0.80901698891910034 0 -0.5877852598018023 I I #
edge $-1 $488 38.301384243843543 $599 42.850428785058135 $591 $645 forward 7 unknown #
point $-1 -38.301384243843543 21.041395280360891 4.9482308301607389 #
coedge $-1 $491 $490 $590 $642 forward $482 $-1 #
point $-1 -42.850428785058135 13.479108117734643 1.6431564446645319 #
vertex $-1 $595 $646 #
straight-curve $-1 -42.850428785058135 0 4.9482308301607389 0 -1 0 I I #
vertex $-1 $498 $647 #
point $-1 -37.528221815556897 15.639761592770714 0.80221719540694314 #
vertex $-1 $502 $648 #
point $-1 -37.528221815556897 18.880741805324821 0.80221719540694314 #
coedge $-1 $517 $516 $509 $606 forward $506 $-1 #
edge $-1 $607 56.491987694043978 $610 59.740637290642162 $605 $649 forward 7 unknown #
vertex $-1 $521 $650 #
straight-curve $-1 22.482824964526454 2.8471877766507969 4.9482308301607389 1 0 0 I I #
edge $-1 $610 -0.96148702954461029 $518 8.5788366419354247 $517 $651 forward 7 unknown #
vertex $-1 $609 $652 #
straight-curve $-1 -16.682388550367918 2.8471877766507969 63.347619712983381 -0.69465836192734942 0 0.71933980857756763 I I #
point $-1 39.713244410803533 2.8471877766507969 4.9482308301607389 #
point $-1 42.850428785058135 12.387511448130832 1.6995812335625544 #
straight-curve $-1 42.850428785058135 0 4.9482308301607389 0 1 0 I I #
vertex $-1 $524 $653 #
point $-1 40.358823136505848 7.6173496123908144 1.7374805267766984 #
straight-curve $-1 -42.850428785058135 21.041395280360891 0 0 0 -1 I I #
point $-1 -42.850428785058135 -21.041395280360891 -4.9482308301607389 #
straight-curve $-1 -42.850428785058135 0 -4.9482308301607389 0 1 0 I I #
point $-1 -42.850428785058135 21.041395280360891 -4.9482308301607389 #
edge $-1 $558 -1.5 $552 1.5 $551 $654 forward 7 unknown #
coedge $-1 $556 $547 $546 $623 reversed $410 $-1 #
edge $-1 $560 -1.5 $549 1.5 $546 $655 forward 7 unknown #
straight-curve $-1 0 -27.178373367764973 -4.9482308301607389 -1 0 0 I I #
point $-1 42.850428785058135 -27.178373367764973 -4.9482308301607389 #
point $-1 -42.850428785058135 -27.178373367764973 -4.9482308301607389 #
straight-curve $-1 0 -27.178373367764973 -1.9482308301607389 1 0 0 I I #
point $-1 -42.850428785058135 -27.178373367764973 -1.9482308301607389 #
point $-1 42.850428785058135 -27.178373367764973 -1.9482308301607389 #
straight-curve $-1 -42.850428785058135 -2.9224797018509099 35.488303091912336 0 0 -1 I I #
point $-1 -42.850428785058135 -2.9224797018509099 4.9482308301607389 #
straight-curve $-1 -42.850428785058135 -3.3518116415820174 1.6431564446645321 0 -1 0 I I #
point $-1 -42.850428785058135 -2.9224797018509099 1.6431564446645319 #
point $-1 -37.749453544674196 -8.3241133894410897 -0.5945850533139595 #
point $-1 -37.749453544674196 -5.0831331768869816 -0.5945850533139595 #
straight-curve $-1 -42.850428785058135 9.0594577892549886 35.488303091912336 0 0 -1 I I #
point $-1 -42.850428785058135 9.0594577892549886 4.9482308301607389 #
straight-curve $-1 -42.850428785058135 2.6391571039709323 1.6431564446645321 0 -1 0 I I #
point $-1 -42.850428785058135 9.0594577892549886 1.6431564446645319 #
point $-1 -37.749453544674196 3.6578241016648114 -0.5945850533139595 #
point $-1 -37.749453544674196 6.8988043142189177 -0.5945850533139595 #
edge $-1 $599 -4.9482308301607389 $593 -1.6431564446645319 $590 $656 forward 7 unknown #
straight-curve $-1 -42.850428785058135 8.6301258495238837 1.6431564446645321 0 -1 0 I I #
point $-1 -42.850428785058135 21.041395280360891 1.6431564446645319 #
straight-curve $-1 0 21.041395280360891 4.9482308301607389 -1 0 0 I I #
point $-1 -42.850428785058135 21.041395280360891 4.9482308301607389 #
point $-1 -37.749453544674196 15.639761592770714 -0.5945850533139595 #
point $-1 -37.749453544674196 18.880741805324821 -0.5945850533139595 #
straight-curve $-1 42.850428785058135 2.8471877766507969 61.440218524204717 0 0 -1 I I #
point $-1 42.850428785058135 2.8471877766507969 4.9482308301607389 #
straight-curve $-1 42.850428785058128 3.8086748061954072 1.699581233562558 0 1 0 I I #
point $-1 42.850428785058135 2.8471877766507969 1.6995812335625544 #
point $-1 39.651824051253392 7.6173496123908144 1.7498212501018076 #
straight-curve $-1 -42.850428785058135 -27.178373367764973 -3.4482308301607389 0 0 -1 I I #
straight-curve $-1 42.850428785058135 -27.178373367764973 -3.4482308301607389 0 0 -1 I I #
straight-curve $-1 -42.850428785058135 21.041395280360891 0 0 0 -1 I I #
End-of-ACIS-data 