500 0 5 0           
7 Unknown 11 ACIS 5.0 NT 24 Fri Mar 26 17:36:33 1999 
-1 9.9999999999999995e-007 1e-010 
body $-1 $5 $-1 $6 #
body $-1 $7 $-1 $8 #
body $-1 $9 $-1 $10 #
body $-1 $11 $-1 $12 #
body $-1 $13 $-1 $14 #
lump $-1 $-1 $15 $0 #
transform $-1 1 0 0 0 1 0 0 0 1 49.306924649800102 25.790469443812036 7.578149322549109 1 rotate no_reflect no_shear #
lump $-1 $-1 $16 $1 #
transform $-1 1 0 0 0 1 0 0 0 1 49.306924649800102 25.790469443812036 7.578149322549109 1 rotate no_reflect no_shear #
lump $-1 $-1 $17 $2 #
transform $-1 1 0 0 0 1 0 0 0 1 49.306924649800102 25.790469443812036 7.578149322549109 1 rotate no_reflect no_shear #
lump $-1 $-1 $18 $3 #
transform $-1 1 0 0 0 1 0 0 0 1 49.306924649800102 25.790469443812036 7.578149322549109 1 rotate no_reflect no_shear #
lump $-1 $-1 $19 $4 #
transform $-1 1 0 0 0 1 0 0 0 1 49.306924649800102 25.790469443812036 7.578149322549109 1 rotate no_reflect no_shear #
shell $-1 $-1 $-1 $20 $-1 $5 #
shell $-1 $-1 $-1 $21 $-1 $7 #
shell $-1 $-1 $-1 $22 $-1 $9 #
shell $-1 $-1 $-1 $23 $-1 $11 #
shell $-1 $-1 $-1 $24 $-1 $13 #
face $-1 $25 $26 $15 $-1 $27 reversed single #
face $-1 $28 $29 $16 $-1 $30 forward single #
face $-1 $31 $32 $17 $-1 $33 reversed single #
face $-1 $34 $35 $18 $-1 $36 forward single #
face $-1 $37 $38 $19 $-1 $39 forward single #
face $-1 $40 $41 $15 $-1 $42 forward single #
loop $-1 $-1 $43 $20 #
plane-surface $-1 0 -25.790469443812036 0 0 1 0 0 0 1 forward_v I I I I #
face $-1 $44 $45 $16 $-1 $46 forward single #
loop $-1 $-1 $47 $21 #
plane-surface $-1 0 -25.790469443812036 0 0 1 0 0 0 1 forward_v I I I I #
face $-1 $48 $49 $17 $-1 $50 reversed single #
loop $-1 $-1 $51 $22 #
plane-surface $-1 71.123440241628117 14.756221783942031 139.84568852101879 0 1 0 0.80901700255871778 0 0.5877852410284794 forward_v I I I I #
face $-1 $52 $53 $18 $-1 $54 forward single #
loop $-1 $55 $56 $23 #
cone-surface $-1 46.376321677525077 17.908863972476318 4.1561137354878905 -0.80901700255871778 0 -0.5877852410284794 0.5877852410284794 0 -0.80901700255871778 1 I I 0 1 1 forward I I I I #
face $-1 $57 $58 $19 $-1 $59 forward single #
loop $-1 $60 $61 $24 #
cone-surface $-1 46.376321677525077 22.637827255277749 4.1561137354878905 -0.80901700255871778 0 -0.5877852410284794 0.5877852410284794 0 -0.80901700255871778 1 I I 0 1 1 forward I I I I #
face $-1 $62 $63 $15 $-1 $64 reversed single #
loop $-1 $-1 $65 $25 #
plane-surface $-1 0 0 7.578149322549109 0 0 1 1 0 0 forward_v I I I I #
coedge $-1 $66 $67 $68 $69 reversed $26 $-1 #
face $-1 $70 $71 $16 $-1 $72 reversed single #
loop $-1 $-1 $73 $28 #
plane-surface $-1 0 0 7.578149322549109 0 0 1 1 0 0 forward_v I I I I #
coedge $-1 $74 $75 $76 $77 forward $29 $-1 #
face $-1 $78 $79 $17 $-1 $80 reversed single #
loop $-1 $-1 $81 $31 #
plane-surface $-1 -8.6568405295115554 20.273345613877034 81.881923341707136 0.80901700255871778 0 0.5877852410284794 0.5877852410284794 0 -0.80901700255871778 forward_v I I I I #
coedge $-1 $82 $83 $84 $85 reversed $32 $-1 #
face $-1 $-1 $86 $18 $-1 $87 forward single #
loop $-1 $88 $89 $34 #
cone-surface $-1 45.030667675832667 17.908863972476318 3.1784389039032419 -0.80901700255871778 0 -0.5877852410284794 0.2938926205142397 0 -0.40450850127935889 1 I I -0.70710678118654746 0.70710678118654746 0.5 forward I I I I #
loop $-1 $-1 $90 $23 #
coedge $-1 $56 $56 $91 $92 reversed $35 $-1 #
face $-1 $-1 $93 $19 $-1 $94 forward single #
loop $-1 $95 $96 $37 #
cone-surface $-1 45.030667675832667 22.637827255277749 3.1784389039032419 -0.80901700255871778 0 -0.5877852410284794 0.2938926205142397 0 -0.40450850127935889 1 I I -0.70710678118654746 0.70710678118654746 0.5 forward I I I I #
loop $-1 $-1 $97 $24 #
coedge $-1 $61 $61 $98 $99 reversed $38 $-1 #
face $-1 $100 $101 $15 $-1 $102 reversed single #
loop $-1 $-1 $103 $40 #
plane-surface $-1 0 0 -7.578149322549109 0 0 1 1 0 0 forward_v I I I I #
coedge $-1 $104 $105 $106 $107 forward $41 $-1 #
coedge $-1 $108 $43 $109 $110 reversed $26 $-1 #
coedge $-1 $43 $108 $111 $112 forward $26 $-1 #
coedge $-1 $113 $103 $43 $69 forward $63 $-1 #
edge $-1 $114 -49.306924649800102 $115 49.306924649800102 $43 $116 forward 7 unknown #
face $-1 $117 $118 $16 $-1 $119 reversed single #
loop $-1 $-1 $120 $44 #
plane-surface $-1 -49.306924649800102 0 0 1 0 0 0 0 -1 forward_v I I I I #
coedge $-1 $121 $122 $75 $123 forward $45 $-1 #
coedge $-1 $124 $47 $125 $126 reversed $29 $-1 #
coedge $-1 $47 $124 $73 $123 reversed $29 $-1 #
coedge $-1 $127 $128 $47 $77 reversed $129 $-1 #
edge $-1 $130 -7.578149322549109 $131 7.578149322549109 $76 $132 forward 7 unknown #
face $-1 $133 $134 $17 $-1 $135 forward single #
loop $-1 $-1 $136 $48 #
plane-surface $-1 0 25.790469443812036 0 0 -1 0 0 0 -1 forward_v I I I I #
coedge $-1 $137 $138 $139 $140 reversed $49 $-1 #
coedge $-1 $83 $51 $141 $142 reversed $32 $-1 #
coedge $-1 $51 $82 $137 $143 reversed $32 $-1 #
coedge $-1 $139 $144 $51 $85 forward $145 $-1 #
edge $-1 $146 62.344694937960284 $147 67.82120168994193 $84 $148 forward 7 unknown #
loop $-1 $-1 $91 $52 #
plane-surface $-1 -8.6568405295115554 20.273345613877034 81.881923341707136 0.80901700255871778 0 0.5877852410284794 0.5877852410284794 0 -0.80901700255871778 forward_v I I I I #
loop $-1 $-1 $149 $34 #
coedge $-1 $89 $89 $90 $150 reversed $53 $-1 #
coedge $-1 $90 $90 $89 $150 forward $55 $-1 #
coedge $-1 $91 $91 $56 $92 forward $86 $-1 #
edge $-1 $151 0 $151 6.2831853071796004 $91 $152 forward 7 unknown #
loop $-1 $-1 $98 $57 #
plane-surface $-1 -8.6568405295115554 20.273345613877034 81.881923341707136 0.80901700255871778 0 0.5877852410284794 0.5877852410284794 0 -0.80901700255871778 forward_v I I I I #
loop $-1 $-1 $153 $37 #
coedge $-1 $96 $96 $97 $154 reversed $58 $-1 #
coedge $-1 $97 $97 $96 $154 forward $60 $-1 #
coedge $-1 $98 $98 $61 $99 forward $93 $-1 #
edge $-1 $155 0 $155 6.2831853071796004 $98 $156 forward 7 unknown #
face $-1 $157 $158 $15 $-1 $159 reversed single #
loop $-1 $-1 $160 $62 #
plane-surface $-1 -49.306924649800102 0 0 1 0 0 0 0 -1 forward_v I I I I #
coedge $-1 $68 $161 $162 $163 forward $63 $-1 #
coedge $-1 $164 $65 $165 $166 forward $41 $-1 #
coedge $-1 $65 $164 $108 $167 forward $41 $-1 #
coedge $-1 $109 $168 $65 $107 reversed $169 $-1 #
edge $-1 $170 -25.790469443812036 $171 25.790469443812036 $106 $172 forward 7 unknown #
coedge $-1 $67 $66 $105 $167 reversed $26 $-1 #
coedge $-1 $162 $106 $66 $110 forward $169 $-1 #
edge $-1 $170 -7.578149322549109 $114 7.578149322549109 $109 $173 forward 7 unknown #
coedge $-1 $174 $175 $67 $112 reversed $101 $-1 #
edge $-1 $176 -7.578149322549109 $115 7.578149322549109 $111 $177 forward 7 unknown #
coedge $-1 $161 $68 $175 $178 forward $63 $-1 #
vertex $-1 $110 $179 #
vertex $-1 $178 $180 #
straight-curve $-1 0 -25.790469443812036 -7.578149322549109 -1 0 0 I I #
face $-1 $181 $129 $16 $-1 $182 reversed single #
loop $-1 $-1 $183 $70 #
plane-surface $-1 -47.53663917998437 -32.906122002780492 0 0 1 0 0 0 1 forward_v I I I I #
coedge $-1 $184 $185 $124 $186 forward $71 $-1 #
coedge $-1 $187 $73 $185 $188 forward $45 $-1 #
coedge $-1 $73 $187 $127 $189 forward $45 $-1 #
edge $-1 $130 45.766353710168637 $190 49.306924649800102 $73 $191 forward 7 unknown #
coedge $-1 $75 $74 $120 $186 reversed $29 $-1 #
coedge $-1 $192 $193 $74 $126 forward $194 $-1 #
edge $-1 $195 -49.306924649800102 $131 -45.766353710168637 $125 $196 forward 7 unknown #
coedge $-1 $197 $76 $122 $189 reversed $129 $-1 #
coedge $-1 $76 $197 $192 $198 reversed $129 $-1 #
loop $-1 $-1 $197 $117 #
vertex $-1 $123 $199 #
vertex $-1 $198 $200 #
straight-curve $-1 -45.766353710168637 -25.790469443812036 0 0 0 -1 I I #
face $-1 $-1 $145 $17 $-1 $201 reversed single #
loop $-1 $-1 $141 $78 #
plane-surface $-1 0 0 7.578149322549109 0 0 1 1 0 0 forward_v I I I I #
coedge $-1 $202 $203 $138 $204 forward $79 $-1 #
coedge $-1 $205 $81 $83 $143 forward $49 $-1 #
coedge $-1 $81 $205 $136 $204 reversed $49 $-1 #
coedge $-1 $206 $84 $81 $140 forward $145 $-1 #
edge $-1 $147 4.6195489770035145 $207 15.653796636873519 $139 $208 forward 7 unknown #
coedge $-1 $209 $210 $82 $142 forward $134 $-1 #
edge $-1 $211 9.7662895852621077 $146 13.745204528986044 $141 $212 forward 7 unknown #
edge $-1 $147 -98.613849299600204 $211 -91.844514743390846 $83 $213 forward 7 unknown #
coedge $-1 $84 $206 $209 $214 reversed $145 $-1 #
loop $-1 $-1 $139 $133 #
vertex $-1 $214 $215 #
vertex $-1 $85 $216 #
straight-curve $-1 49.306924649800102 14.756221783942031 69.922844260509393 0 0 -1 I I #
coedge $-1 $149 $149 $-1 $217 reversed $88 $-1 #
edge $-1 $218 0 $218 6.2831853071796004 $89 $219 forward 7 unknown #
vertex $-1 $92 $220 #
ellipse-curve $-1 47.317467177938127 17.908863972476318 4.8398959465582969 0.80901700255871778 0 0.5877852410284794 0.5877852410284794 0 -0.80901700255871778 1 I I #
coedge $-1 $153 $153 $-1 $221 reversed $95 $-1 #
edge $-1 $222 0 $222 6.2831853071796004 $96 $223 forward 7 unknown #
vertex $-1 $99 $224 #
ellipse-curve $-1 47.317467177938127 22.637827255277749 4.8398959465582969 0.80901700255871778 0 0.5877852410284794 0.5877852410284794 0 -0.80901700255871778 1 I I #
face $-1 $-1 $169 $15 $-1 $225 reversed single #
loop $-1 $-1 $226 $100 #
plane-surface $-1 0 25.790469443812036 0 0 -1 0 0 0 -1 forward_v I I I I #
coedge $-1 $175 $174 $227 $228 forward $101 $-1 #
coedge $-1 $103 $113 $229 $230 forward $63 $-1 #
coedge $-1 $168 $109 $103 $163 reversed $169 $-1 #
edge $-1 $231 -25.790469443812036 $114 25.790469443812036 $162 $232 forward 7 unknown #
coedge $-1 $105 $104 $174 $233 forward $41 $-1 #
coedge $-1 $226 $227 $104 $166 reversed $158 $-1 #
edge $-1 $171 -49.306924649800102 $234 49.306924649800102 $165 $235 forward 7 unknown #
edge $-1 $176 -49.306924649800102 $170 49.306924649800102 $108 $236 forward 7 unknown #
coedge $-1 $106 $162 $226 $237 reversed $169 $-1 #
loop $-1 $-1 $109 $157 #
vertex $-1 $107 $238 #
vertex $-1 $107 $239 #
straight-curve $-1 49.306924649800102 0 7.578149322549109 0 1 0 I I #
straight-curve $-1 49.306924649800102 -25.790469443812036 0 0 0 -1 I I #
coedge $-1 $160 $111 $164 $233 reversed $101 $-1 #
coedge $-1 $111 $160 $113 $178 reversed $101 $-1 #
vertex $-1 $233 $240 #
straight-curve $-1 -49.306924649800102 -25.790469443812036 0 0 0 -1 I I #
edge $-1 $115 -25.790469443812036 $241 25.790469443812036 $175 $242 forward 7 unknown #
point $-1 49.306924649800102 -25.790469443812036 -7.578149322549109 #
point $-1 -49.306924649800102 -25.790469443812036 -7.578149322549109 #
face $-1 $-1 $194 $16 $-1 $243 reversed single #
plane-surface $-1 -45.766353710168637 -29.348295723296264 0 -1 0 0 0 0 1 forward_v I I I I #
coedge $-1 $244 $245 $246 $247 forward $118 $-1 #
coedge $-1 $246 $120 $193 $248 reversed $71 $-1 #
coedge $-1 $120 $246 $121 $188 reversed $71 $-1 #
edge $-1 $190 -7.578149322549109 $195 7.578149322549109 $120 $249 forward 7 unknown #
coedge $-1 $122 $121 $245 $250 forward $45 $-1 #
edge $-1 $190 25.790469443812036 $251 32.906122002780492 $185 $252 forward 7 unknown #
edge $-1 $253 -3.5578262794842281 $130 3.5578262794842281 $127 $254 forward 7 unknown #
vertex $-1 $188 $255 #
straight-curve $-1 0 -25.790469443812036 7.578149322549109 -1 0 0 I I #
coedge $-1 $256 $125 $128 $198 forward $194 $-1 #
coedge $-1 $125 $256 $184 $248 forward $194 $-1 #
loop $-1 $-1 $125 $181 #
vertex $-1 $186 $257 #
straight-curve $-1 0 -25.790469443812036 -7.578149322549109 1 0 0 I I #
coedge $-1 $128 $127 $258 $259 forward $129 $-1 #
edge $-1 $131 -3.5578262794842281 $260 3.5578262794842281 $128 $261 forward 7 unknown #
point $-1 -45.766353710168637 -25.790469443812036 7.578149322549109 #
point $-1 -45.766353710168637 -25.790469443812036 -7.578149322549109 #
plane-surface $-1 49.306924649800102 0 0 -1 0 0 0 0 1 forward_v I I I I #
coedge $-1 $203 $136 $262 $263 reversed $79 $-1 #
coedge $-1 $136 $202 $206 $264 forward $79 $-1 #
edge $-1 $207 -62.947733658182877 $265 -56.178399101973518 $136 $266 forward 7 unknown #
coedge $-1 $138 $137 $210 $267 reversed $49 $-1 #
coedge $-1 $144 $139 $203 $264 reversed $145 $-1 #
vertex $-1 $204 $268 #
straight-curve $-1 49.306924649800102 10.136672806938517 2.1016425705674635 0 1 0 I I #
coedge $-1 $262 $141 $144 $214 forward $134 $-1 #
coedge $-1 $141 $262 $205 $267 forward $134 $-1 #
vertex $-1 $142 $269 #
straight-curve $-1 35.561720120814059 14.756221783942031 7.578149322549109 1 0 0 I I #
straight-curve $-1 -8.6568405295115554 14.756221783942031 81.881923341707136 -0.5877852410284794 0 0.80901700255871778 I I #
edge $-1 $146 14.756221783942031 $270 25.790469443812036 $144 $271 forward 7 unknown #
point $-1 49.306924649800102 14.756221783942031 7.578149322549109 #
point $-1 49.306924649800102 14.756221783942031 2.1016425705674635 #
edge $-1 $272 1 $272 0 $149 $-1 forward 7 unknown #
vertex $-1 $150 $273 #
ellipse-curve $-1 45.435176177112027 17.908863972476318 3.4723315244174815 0.80901700255871778 0 0.5877852410284794 0.5877852410284794 0 -0.80901700255871778 1 I I #
point $-1 47.905252418966612 17.908863972476318 4.030878943999582 #
edge $-1 $274 1 $274 0 $153 $-1 forward 7 unknown #
vertex $-1 $154 $275 #
ellipse-curve $-1 45.435176177112027 22.637827255277749 3.4723315244174815 0.80901700255871778 0 0.5877852410284794 0.5877852410284794 0 -0.80901700255871778 1 I I #
point $-1 47.905252418966612 22.637827255277749 4.030878943999582 #
plane-surface $-1 49.306924649800102 0 0 -1 0 0 0 0 1 forward_v I I I I #
coedge $-1 $229 $165 $168 $237 forward $158 $-1 #
coedge $-1 $165 $229 $160 $228 reversed $158 $-1 #
edge $-1 $234 -7.578149322549109 $241 7.578149322549109 $227 $276 forward 7 unknown #
coedge $-1 $227 $226 $161 $230 reversed $158 $-1 #
edge $-1 $241 -49.306924649800102 $231 49.306924649800102 $229 $277 forward 7 unknown #
vertex $-1 $163 $278 #
straight-curve $-1 49.306924649800102 0 -7.578149322549109 0 -1 0 I I #
edge $-1 $234 -25.790469443812036 $176 25.790469443812036 $174 $279 forward 7 unknown #
vertex $-1 $166 $280 #
straight-curve $-1 0 25.790469443812036 7.578149322549109 -1 0 0 I I #
straight-curve $-1 0 -25.790469443812036 7.578149322549109 1 0 0 I I #
edge $-1 $171 -7.578149322549109 $231 7.578149322549109 $168 $281 forward 7 unknown #
point $-1 49.306924649800102 -25.790469443812036 7.578149322549109 #
point $-1 49.306924649800102 25.790469443812036 7.578149322549109 #
point $-1 -49.306924649800102 -25.790469443812036 7.578149322549109 #
vertex $-1 $230 $282 #
straight-curve $-1 -49.306924649800102 0 -7.578149322549109 0 1 0 I I #
plane-surface $-1 0 0 -7.578149322549109 0 0 1 1 0 0 forward_v I I I I #
coedge $-1 $258 $183 $256 $283 reversed $118 $-1 #
coedge $-1 $183 $258 $187 $250 reversed $118 $-1 #
coedge $-1 $185 $184 $183 $247 reversed $71 $-1 #
edge $-1 $251 -7.578149322549109 $284 7.578149322549109 $246 $285 forward 7 unknown #
edge $-1 $284 -32.906122002780492 $195 -25.790469443812036 $184 $286 forward 7 unknown #
straight-curve $-1 -49.306924649800102 -25.790469443812036 0 0 0 -1 I I #
edge $-1 $251 -1.7702854698157324 $253 1.7702854698157324 $245 $287 forward 7 unknown #
vertex $-1 $188 $288 #
straight-curve $-1 -49.306924649800102 0 7.578149322549109 0 -1 0 I I #
vertex $-1 $189 $289 #
straight-curve $-1 -45.766353710168637 -29.348295723296264 7.578149322549109 0 1 0 I I #
point $-1 -49.306924649800102 -25.790469443812036 7.578149322549109 #
coedge $-1 $193 $192 $244 $283 forward $194 $-1 #
point $-1 -49.306924649800102 -25.790469443812036 -7.578149322549109 #
coedge $-1 $245 $244 $197 $259 reversed $118 $-1 #
edge $-1 $253 -7.578149322549109 $260 7.578149322549109 $197 $290 forward 7 unknown #
vertex $-1 $259 $291 #
straight-curve $-1 -45.766353710168637 -29.348295723296264 -7.578149322549109 0 -1 0 I I #
coedge $-1 $210 $209 $202 $263 forward $134 $-1 #
edge $-1 $270 -49.306924649800102 $265 -45.328009706076166 $202 $292 forward 7 unknown #
edge $-1 $270 -7.578149322549109 $207 -2.1016425705674675 $206 $293 forward 7 unknown #
vertex $-1 $204 $294 #
straight-curve $-1 12.307175849328555 25.790469443812036 53.027429372575085 -0.5877852410284794 0 0.80901700255871778 I I #
edge $-1 $265 -15.653796636873519 $211 -4.6195489770035145 $210 $295 forward 7 unknown #
point $-1 49.306924649800102 25.790469443812036 2.1016425705674675 #
point $-1 45.328009706076166 14.756221783942031 7.578149322549109 #
vertex $-1 $214 $296 #
straight-curve $-1 49.306924649800102 0 7.578149322549109 0 1 0 I I #
vertex $-1 $217 $297 #
point $-1 46.022961418140504 17.908863972476318 2.6633145218587639 #
vertex $-1 $221 $298 #
point $-1 46.022961418140504 22.637827255277749 2.6633145218587639 #
straight-curve $-1 -49.306924649800102 25.790469443812036 0 0 0 -1 I I #
straight-curve $-1 0 25.790469443812036 -7.578149322549109 1 0 0 I I #
point $-1 49.306924649800102 25.790469443812036 -7.578149322549109 #
straight-curve $-1 -49.306924649800102 0 7.578149322549109 0 -1 0 I I #
point $-1 -49.306924649800102 25.790469443812036 7.578149322549109 #
straight-curve $-1 49.306924649800102 25.790469443812036 0 0 0 -1 I I #
point $-1 -49.306924649800102 25.790469443812036 -7.578149322549109 #
edge $-1 $260 -1.7702854698157324 $284 1.7702854698157324 $244 $299 forward 7 unknown #
vertex $-1 $248 $300 #
straight-curve $-1 -49.306924649800102 -32.906122002780492 0 0 0 -1 I I #
straight-curve $-1 -49.306924649800102 0 -7.578149322549109 0 1 0 I I #
straight-curve $-1 -47.53663917998437 -32.906122002780492 7.578149322549109 1 0 0 I I #
point $-1 -49.306924649800102 -32.906122002780492 7.578149322549109 #
point $-1 -45.766353710168637 -32.906122002780492 7.578149322549109 #
straight-curve $-1 -45.766353710168637 -32.906122002780492 0 0 0 -1 I I #
point $-1 -45.766353710168637 -32.906122002780492 -7.578149322549109 #
straight-curve $-1 0 25.790469443812036 7.578149322549109 -1 0 0 I I #
straight-curve $-1 49.306924649800102 25.790469443812036 0 0 0 -1 I I #
point $-1 45.328009706076166 25.790469443812036 7.578149322549109 #
straight-curve $-1 45.328009706076159 10.136672806938517 7.578149322549109 0 -1 0 I I #
point $-1 49.306924649800102 25.790469443812036 7.578149322549109 #
point $-1 44.626159174553308 17.908863972476318 2.8845462833890023 #
point $-1 44.626159174553308 22.637827255277749 2.8845462833890023 #
straight-curve $-1 -47.53663917998437 -32.906122002780492 -7.578149322549109 -1 0 0 I I #
point $-1 -49.306924649800102 -32.906122002780492 -7.578149322549109 #
End-of-ACIS-data 