500 0 12 0           
7 Unknown 11 ACIS 5.0 NT 24 Thu Mar 25 18:39:44 1999 
-1 9.9999999999999995e-007 1e-010 
body $-1 $12 $-1 $13 #
body $-1 $14 $-1 $15 #
body $-1 $16 $-1 $17 #
body $-1 $18 $-1 $19 #
body $-1 $20 $-1 $21 #
body $-1 $22 $-1 $23 #
body $-1 $24 $-1 $25 #
body $-1 $26 $-1 $27 #
body $-1 $28 $-1 $29 #
body $-1 $30 $-1 $31 #
body $-1 $32 $-1 $33 #
body $-1 $34 $-1 $35 #
lump $-1 $-1 $36 $0 #
transform $-1 1 0 0 0 1 0 0 0 1 68.639790032654801 29.623389103268163 11.412241818515122 1 rotate no_reflect no_shear #
lump $-1 $-1 $37 $1 #
transform $-1 1 0 0 0 1 0 0 0 1 68.639790032654801 29.623389103268163 11.412241818515122 1 rotate no_reflect no_shear #
lump $-1 $-1 $38 $2 #
transform $-1 1 0 0 0 1 0 0 0 1 68.639790032654801 29.623389103268163 11.412241818515122 1 rotate no_reflect no_shear #
lump $-1 $-1 $39 $3 #
transform $-1 1 0 0 0 1 0 0 0 1 68.639790032654801 29.623389103268163 11.412241818515122 1 rotate no_reflect no_shear #
lump $-1 $-1 $40 $4 #
transform $-1 1 0 0 0 1 0 0 0 1 68.639790032654801 29.623389103268163 11.412241818515122 1 rotate no_reflect no_shear #
lump $-1 $-1 $41 $5 #
transform $-1 1 0 0 0 1 0 0 0 1 68.639790032654801 29.623389103268163 11.412241818515122 1 rotate no_reflect no_shear #
lump $-1 $-1 $42 $6 #
transform $-1 1 0 0 0 1 0 0 0 1 68.639790032654801 29.623389103268163 11.412241818515122 1 rotate no_reflect no_shear #
lump $-1 $-1 $43 $7 #
transform $-1 1 0 0 0 1 0 0 0 1 68.639790032654801 29.623389103268163 11.412241818515122 1 rotate no_reflect no_shear #
lump $-1 $-1 $44 $8 #
transform $-1 1 0 0 0 1 0 0 0 1 68.639790032654801 29.623389103268163 11.412241818515122 1 rotate no_reflect no_shear #
lump $-1 $-1 $45 $9 #
transform $-1 1 0 0 0 1 0 0 0 1 68.639790032654801 29.623389103268163 11.412241818515122 1 rotate no_reflect no_shear #
lump $-1 $-1 $46 $10 #
transform $-1 1 0 0 0 1 0 0 0 1 68.639790032654801 29.623389103268163 11.412241818515122 1 rotate no_reflect no_shear #
lump $-1 $-1 $47 $11 #
transform $-1 1 0 0 0 1 0 0 0 1 68.639790032654801 29.623389103268163 11.412241818515122 1 rotate no_reflect no_shear #
shell $-1 $-1 $-1 $48 $-1 $12 #
shell $-1 $-1 $-1 $49 $-1 $14 #
shell $-1 $-1 $-1 $50 $-1 $16 #
shell $-1 $-1 $-1 $51 $-1 $18 #
shell $-1 $-1 $-1 $52 $-1 $20 #
shell $-1 $-1 $-1 $53 $-1 $22 #
shell $-1 $-1 $-1 $54 $-1 $24 #
shell $-1 $-1 $-1 $55 $-1 $26 #
shell $-1 $-1 $-1 $56 $-1 $28 #
shell $-1 $-1 $-1 $57 $-1 $30 #
shell $-1 $-1 $-1 $58 $-1 $32 #
shell $-1 $-1 $-1 $59 $-1 $34 #
face $-1 $60 $61 $36 $-1 $62 forward single #
face $-1 $63 $64 $37 $-1 $65 reversed single #
face $-1 $66 $67 $38 $-1 $68 reversed single #
face $-1 $69 $70 $39 $-1 $71 reversed single #
face $-1 $72 $73 $40 $-1 $74 forward single #
face $-1 $75 $76 $41 $-1 $77 forward single #
face $-1 $78 $79 $42 $-1 $80 reversed single #
face $-1 $81 $82 $43 $-1 $83 forward single #
face $-1 $84 $85 $44 $-1 $86 forward single #
face $-1 $87 $88 $45 $-1 $89 reversed single #
face $-1 $90 $91 $46 $-1 $92 forward single #
face $-1 $93 $94 $47 $-1 $95 forward single #
face $-1 $96 $97 $36 $-1 $98 reversed single #
loop $-1 $-1 $99 $48 #
plane-surface $-1 0 0 11.412241818515122 0 0 1 1 0 0 forward_v I I I I #
face $-1 $100 $101 $37 $-1 $102 reversed single #
loop $-1 $-1 $103 $49 #
plane-surface $-1 -65.903631307399621 -21.462850821234117 0 0 -1 0 0 0 -1 forward_v I I I I #
face $-1 $104 $105 $38 $-1 $106 reversed single #
loop $-1 $-1 $107 $50 #
plane-surface $-1 -65.903631307399621 21.46285082123412 0 0 1 0 0 0 1 forward_v I I I I #
face $-1 $108 $109 $39 $-1 $110 reversed single #
loop $-1 $-1 $111 $51 #
plane-surface $-1 99.010393352634637 -3.7221477978962456 194.01318172696668 0 -1 0 -0.80901700255871778 0 -0.5877852410284794 forward_v I I I I #
face $-1 $112 $113 $40 $-1 $114 forward single #
loop $-1 $115 $116 $52 #
cone-surface $-1 64.352174131420284 -11.162915802961788 6.1367337931657922 -0.80901700255871778 0 -0.5877852410284794 0.5877852410284794 0 -0.80901700255871778 1 I I 0 1 1 forward I I I I #
face $-1 $117 $118 $41 $-1 $119 forward single #
loop $-1 $120 $121 $53 #
cone-surface $-1 64.352174131420284 -6.6984549999224612 6.1367337931657922 -0.80901700255871778 0 -0.5877852410284794 0.5877852410284794 0 -0.80901700255871778 1 I I 0 1 1 forward I I I I #
face $-1 $122 $123 $42 $-1 $124 reversed single #
loop $-1 $-1 $125 $54 #
plane-surface $-1 99.010393352634637 14.139223004988004 194.01318172696668 0 -1 0 -0.80901700255871778 0 -0.5877852410284794 forward_v I I I I #
face $-1 $126 $127 $43 $-1 $128 forward single #
loop $-1 $129 $130 $55 #
cone-surface $-1 64.352174131420284 6.6984549999224576 6.1367337931657922 -0.80901700255871778 0 -0.5877852410284794 0.5877852410284794 0 -0.80901700255871778 1 I I 0 1 1 forward I I I I #
face $-1 $131 $132 $44 $-1 $133 forward single #
loop $-1 $134 $135 $56 #
cone-surface $-1 64.352174131420284 11.162915802961781 6.1367337931657922 -0.80901700255871778 0 -0.5877852410284794 0.5877852410284794 0 -0.80901700255871778 1 I I 0 1 1 forward I I I I #
face $-1 $136 $137 $45 $-1 $138 reversed single #
loop $-1 $-1 $139 $57 #
plane-surface $-1 -164.00220053841656 -9.3001608779793425 102.92174202250605 0 1 0 -0.69465837861970381 0 0.71933979245794832 forward_v I I I I #
face $-1 $140 $141 $46 $-1 $142 forward single #
loop $-1 $143 $144 $58 #
cone-surface $-1 -64.35434684148251 -6.1798019784524385 7.236386889425793 0.69465837861970381 0 -0.71933979245794832 0.71933979245794832 0 0.69465837861970381 1 I I 0 1 1 forward I I I I #
face $-1 $145 $146 $47 $-1 $147 forward single #
loop $-1 $148 $149 $59 #
cone-surface $-1 -64.35434684148251 -1.4992636291620833 7.236386889425793 0.69465837861970381 0 -0.71933979245794832 0.71933979245794832 0 0.69465837861970381 1 I I 0 1 1 forward I I I I #
face $-1 $150 $151 $36 $-1 $152 reversed single #
loop $-1 $-1 $153 $60 #
plane-surface $-1 0 0 -11.412241818515122 0 0 1 1 0 0 forward_v I I I I #
coedge $-1 $154 $155 $156 $157 forward $61 $-1 #
face $-1 $158 $159 $37 $-1 $160 forward single #
loop $-1 $-1 $161 $63 #
plane-surface $-1 -63.167472582144434 -25.54311996225114 0 -1 0 0 0 0 1 forward_v I I I I #
coedge $-1 $162 $163 $164 $165 forward $64 $-1 #
face $-1 $166 $167 $38 $-1 $168 reversed single #
loop $-1 $-1 $169 $66 #
plane-surface $-1 -63.167472582144434 25.543119962251144 0 -1 0 0 0 0 1 forward_v I I I I #
coedge $-1 $170 $171 $172 $173 reversed $67 $-1 #
face $-1 $174 $175 $39 $-1 $176 reversed single #
loop $-1 $-1 $177 $69 #
plane-surface $-1 -12.051121024321645 -8.9306854014421262 113.32227066999023 0.80901700255871778 0 0.5877852410284794 0.5877852410284794 0 -0.80901700255871778 forward_v I I I I #
coedge $-1 $178 $179 $180 $181 reversed $70 $-1 #
face $-1 $-1 $182 $40 $-1 $183 forward single #
loop $-1 $184 $185 $72 #
cone-surface $-1 62.984521345912455 -11.162915802961788 5.1430759100428158 -0.80901700255871778 0 -0.5877852410284794 0.2938926205142397 0 -0.40450850127935889 1 I I -0.70710678118654746 0.70710678118654746 0.5 forward I I I I #
loop $-1 $-1 $186 $52 #
coedge $-1 $116 $116 $187 $188 reversed $73 $-1 #
face $-1 $-1 $189 $41 $-1 $190 forward single #
loop $-1 $191 $192 $75 #
cone-surface $-1 62.984521345912455 -6.6984549999224612 5.1430759100428158 -0.80901700255871778 0 -0.5877852410284794 0.2938926205142397 0 -0.40450850127935889 1 I I -0.70710678118654746 0.70710678118654746 0.5 forward I I I I #
loop $-1 $-1 $193 $53 #
coedge $-1 $121 $121 $194 $195 reversed $76 $-1 #
face $-1 $196 $197 $42 $-1 $198 reversed single #
loop $-1 $-1 $199 $78 #
plane-surface $-1 -12.051121024321645 8.9306854014421226 113.32227066999023 0.80901700255871778 0 0.5877852410284794 0.5877852410284794 0 -0.80901700255871778 forward_v I I I I #
coedge $-1 $200 $201 $202 $203 reversed $79 $-1 #
face $-1 $-1 $204 $43 $-1 $205 forward single #
loop $-1 $206 $207 $81 #
cone-surface $-1 62.984521345912455 6.6984549999224576 5.1430759100428158 -0.80901700255871778 0 -0.5877852410284794 0.2938926205142397 0 -0.40450850127935889 1 I I -0.70710678118654746 0.70710678118654746 0.5 forward I I I I #
loop $-1 $-1 $208 $55 #
coedge $-1 $130 $130 $209 $210 reversed $82 $-1 #
face $-1 $-1 $211 $44 $-1 $212 forward single #
loop $-1 $213 $214 $84 #
cone-surface $-1 62.984521345912455 11.162915802961781 5.1430759100428158 -0.80901700255871778 0 -0.5877852410284794 0.2938926205142397 0 -0.40450850127935889 1 I I -0.70710678118654746 0.70710678118654746 0.5 forward I I I I #
loop $-1 $-1 $215 $56 #
coedge $-1 $135 $135 $216 $217 reversed $85 $-1 #
face $-1 $218 $219 $45 $-1 $220 reversed single #
loop $-1 $-1 $221 $87 #
plane-surface $-1 -68.639790032654773 -3.8395328038072627 4.1710773896119377 -0.69465837861970381 0 0.71933979245794832 0.71933979245794832 0 0.69465837861970381 forward_v I I I I #
coedge $-1 $222 $223 $224 $225 reversed $88 $-1 #
face $-1 $-1 $226 $46 $-1 $227 forward single #
loop $-1 $228 $229 $90 #
cone-surface $-1 -63.470797012516371 -6.1798019784524385 6.3214442785590688 0.69465837861970381 0 -0.71933979245794832 0.35966989622897416 0 0.3473291893098519 1 I I -0.70710678118654746 0.70710678118654746 0.5 forward I I I I #
loop $-1 $-1 $230 $58 #
coedge $-1 $144 $144 $231 $232 reversed $91 $-1 #
face $-1 $-1 $233 $47 $-1 $234 forward single #
loop $-1 $235 $236 $93 #
cone-surface $-1 -63.470797012516371 -1.4992636291620833 6.3214442785590688 0.69465837861970381 0 -0.71933979245794832 0.35966989622897416 0 0.3473291893098519 1 I I -0.70710678118654746 0.70710678118654746 0.5 forward I I I I #
loop $-1 $-1 $237 $59 #
coedge $-1 $149 $149 $238 $239 reversed $94 $-1 #
face $-1 $240 $241 $36 $-1 $242 reversed single #
loop $-1 $-1 $243 $96 #
plane-surface $-1 0 -29.623389103268163 0 0 1 0 0 0 1 forward_v I I I I #
coedge $-1 $244 $245 $246 $247 forward $97 $-1 #
coedge $-1 $248 $99 $249 $250 forward $61 $-1 #
coedge $-1 $99 $248 $251 $252 forward $61 $-1 #
coedge $-1 $253 $254 $99 $157 reversed $255 $-1 #
edge $-1 $256 -29.623389103268163 $257 29.623389103268163 $156 $258 forward 7 unknown #
face $-1 $259 $260 $37 $-1 $261 reversed single #
loop $-1 $-1 $262 $100 #
plane-surface $-1 0 0 11.412241818515122 0 0 1 1 0 0 forward_v I I I I #
coedge $-1 $263 $264 $265 $266 reversed $101 $-1 #
coedge $-1 $267 $103 $268 $269 reversed $64 $-1 #
coedge $-1 $103 $267 $270 $271 reversed $64 $-1 #
coedge $-1 $264 $263 $103 $165 reversed $101 $-1 #
edge $-1 $272 -11.412241818515122 $273 11.412241818515122 $164 $274 forward 7 unknown #
face $-1 $275 $276 $38 $-1 $277 reversed single #
loop $-1 $-1 $278 $104 #
plane-surface $-1 0 0 -11.412241818515122 0 0 1 1 0 0 forward_v I I I I #
coedge $-1 $279 $280 $281 $282 forward $105 $-1 #
coedge $-1 $281 $107 $283 $284 reversed $67 $-1 #
coedge $-1 $107 $281 $285 $286 reversed $67 $-1 #
coedge $-1 $287 $288 $107 $173 forward $276 $-1 #
edge $-1 $289 -11.412241818515122 $290 11.412241818515122 $172 $291 forward 7 unknown #
face $-1 $292 $293 $39 $-1 $294 reversed single #
loop $-1 $-1 $295 $108 #
plane-surface $-1 99.010393352634637 -14.139223004988008 194.01318172696668 0 1 0 0.80901700255871778 0 0.5877852410284794 forward_v I I I I #
coedge $-1 $296 $297 $298 $299 reversed $109 $-1 #
coedge $-1 $179 $111 $300 $301 reversed $70 $-1 #
coedge $-1 $111 $178 $296 $302 reversed $70 $-1 #
coedge $-1 $298 $303 $111 $181 forward $304 $-1 #
edge $-1 $305 -19.134593356337483 $306 -12.485650122325303 $180 $307 forward 7 unknown #
loop $-1 $-1 $187 $112 #
plane-surface $-1 -12.051121024321645 -8.9306854014421262 113.32227066999023 0.80901700255871778 0 0.5877852410284794 0.5877852410284794 0 -0.80901700255871778 forward_v I I I I #
loop $-1 $-1 $308 $72 #
coedge $-1 $185 $185 $186 $309 reversed $113 $-1 #
coedge $-1 $186 $186 $185 $309 forward $115 $-1 #
coedge $-1 $187 $187 $116 $188 forward $182 $-1 #
edge $-1 $310 0 $310 6.2831853071796004 $187 $311 forward 7 unknown #
loop $-1 $-1 $194 $117 #
plane-surface $-1 -12.051121024321645 -8.9306854014421262 113.32227066999023 0.80901700255871778 0 0.5877852410284794 0.5877852410284794 0 -0.80901700255871778 forward_v I I I I #
loop $-1 $-1 $312 $75 #
coedge $-1 $192 $192 $193 $313 reversed $118 $-1 #
coedge $-1 $193 $193 $192 $313 forward $120 $-1 #
coedge $-1 $194 $194 $121 $195 forward $189 $-1 #
edge $-1 $314 0 $314 6.2831853071796004 $194 $315 forward 7 unknown #
face $-1 $316 $317 $42 $-1 $318 reversed single #
loop $-1 $-1 $319 $122 #
plane-surface $-1 99.010393352634637 3.7221477978962421 194.01318172696668 0 1 0 0.80901700255871778 0 0.5877852410284794 forward_v I I I I #
coedge $-1 $320 $321 $322 $323 reversed $123 $-1 #
coedge $-1 $201 $125 $324 $325 reversed $79 $-1 #
coedge $-1 $125 $200 $320 $326 reversed $79 $-1 #
coedge $-1 $322 $327 $125 $203 forward $328 $-1 #
edge $-1 $329 -19.134593356337483 $330 -12.485650122325303 $202 $331 forward 7 unknown #
loop $-1 $-1 $209 $126 #
plane-surface $-1 -12.051121024321645 8.9306854014421226 113.32227066999023 0.80901700255871778 0 0.5877852410284794 0.5877852410284794 0 -0.80901700255871778 forward_v I I I I #
loop $-1 $-1 $332 $81 #
coedge $-1 $207 $207 $208 $333 reversed $127 $-1 #
coedge $-1 $208 $208 $207 $333 forward $129 $-1 #
coedge $-1 $209 $209 $130 $210 forward $204 $-1 #
edge $-1 $334 0 $334 6.2831853071796004 $209 $335 forward 7 unknown #
loop $-1 $-1 $216 $131 #
plane-surface $-1 -12.051121024321645 8.9306854014421226 113.32227066999023 0.80901700255871778 0 0.5877852410284794 0.5877852410284794 0 -0.80901700255871778 forward_v I I I I #
loop $-1 $-1 $336 $84 #
coedge $-1 $214 $214 $215 $337 reversed $132 $-1 #
coedge $-1 $215 $215 $214 $337 forward $134 $-1 #
coedge $-1 $216 $216 $135 $217 forward $211 $-1 #
edge $-1 $338 0 $338 6.2831853071796004 $216 $339 forward 7 unknown #
face $-1 $340 $341 $45 $-1 $342 forward single #
loop $-1 $-1 $343 $136 #
plane-surface $-1 -164.00220053841656 1.6210952703648172 102.92174202250605 0 -1 0 0.69465837861970381 0 -0.71933979245794832 forward_v I I I I #
coedge $-1 $344 $345 $346 $347 reversed $137 $-1 #
coedge $-1 $223 $139 $348 $349 reversed $88 $-1 #
coedge $-1 $139 $222 $344 $350 reversed $88 $-1 #
coedge $-1 $346 $351 $139 $225 forward $341 $-1 #
edge $-1 $352 13.361310236553479 $353 20.859755339585547 $224 $354 forward 7 unknown #
loop $-1 $-1 $231 $140 #
plane-surface $-1 -68.639790032654773 -3.8395328038072627 4.1710773896119377 -0.69465837861970381 0 0.71933979245794832 0.71933979245794832 0 0.69465837861970381 forward_v I I I I #
loop $-1 $-1 $355 $90 #
coedge $-1 $229 $229 $230 $356 reversed $141 $-1 #
coedge $-1 $230 $230 $229 $356 forward $143 $-1 #
coedge $-1 $231 $231 $144 $232 forward $226 $-1 #
edge $-1 $357 0 $357 6.2831853071796004 $231 $358 forward 7 unknown #
loop $-1 $-1 $238 $145 #
plane-surface $-1 -68.639790032654773 -3.8395328038072627 4.1710773896119377 -0.69465837861970381 0 0.71933979245794832 0.71933979245794832 0 0.69465837861970381 forward_v I I I I #
loop $-1 $-1 $359 $93 #
coedge $-1 $236 $236 $237 $360 reversed $146 $-1 #
coedge $-1 $237 $237 $236 $360 forward $148 $-1 #
coedge $-1 $238 $238 $149 $239 forward $233 $-1 #
edge $-1 $361 0 $361 6.2831853071796004 $238 $362 forward 7 unknown #
face $-1 $363 $364 $36 $-1 $365 reversed single #
loop $-1 $-1 $366 $150 #
plane-surface $-1 -68.639790032654801 0 0 1 0 0 0 0 -1 forward_v I I I I #
coedge $-1 $367 $251 $368 $369 forward $151 $-1 #
coedge $-1 $370 $153 $367 $371 forward $97 $-1 #
coedge $-1 $153 $370 $372 $373 forward $97 $-1 #
coedge $-1 $254 $253 $153 $247 reversed $255 $-1 #
edge $-1 $374 -29.623389103268163 $375 29.623389103268163 $246 $376 forward 7 unknown #
coedge $-1 $155 $154 $377 $378 forward $61 $-1 #
coedge $-1 $379 $380 $154 $250 reversed $364 $-1 #
edge $-1 $257 -68.639790032654801 $381 68.639790032654801 $249 $382 forward 7 unknown #
coedge $-1 $243 $383 $155 $252 reversed $151 $-1 #
edge $-1 $384 -68.639790032654801 $256 68.639790032654801 $251 $385 forward 7 unknown #
coedge $-1 $246 $156 $383 $386 forward $255 $-1 #
coedge $-1 $156 $246 $379 $387 reversed $255 $-1 #
loop $-1 $-1 $253 $363 #
vertex $-1 $157 $388 #
vertex $-1 $157 $389 #
straight-curve $-1 68.639790032654801 0 11.412241818515122 0 1 0 I I #
face $-1 $390 $391 $37 $-1 $392 reversed single #
loop $-1 $-1 $393 $158 #
plane-surface $-1 -68.639790032654801 0 0 1 0 0 0 0 -1 forward_v I I I I #
coedge $-1 $270 $394 $264 $395 forward $159 $-1 #
coedge $-1 $164 $161 $396 $397 reversed $101 $-1 #
coedge $-1 $161 $164 $262 $395 reversed $101 $-1 #
coedge $-1 $398 $399 $161 $266 forward $400 $-1 #
edge $-1 $401 -11.412241818515122 $402 11.412241818515122 $265 $403 forward 7 unknown #
coedge $-1 $163 $162 $393 $404 reversed $64 $-1 #
coedge $-1 $396 $405 $162 $269 forward $391 $-1 #
edge $-1 $406 -35.687974378954991 $273 -30.215656928444623 $268 $407 forward 7 unknown #
coedge $-1 $408 $262 $163 $271 forward $159 $-1 #
edge $-1 $272 30.215656928444623 $409 35.687974378954991 $270 $410 forward 7 unknown #
vertex $-1 $271 $411 #
vertex $-1 $269 $412 #
straight-curve $-1 -63.167472582144434 -21.462850821234117 0 0 0 -1 I I #
face $-1 $413 $414 $38 $-1 $415 forward single #
loop $-1 $-1 $172 $166 #
plane-surface $-1 -68.639790032654801 0 0 1 0 0 0 0 -1 forward_v I I I I #
coedge $-1 $283 $416 $279 $417 forward $167 $-1 #
coedge $-1 $418 $169 $278 $417 reversed $105 $-1 #
coedge $-1 $169 $418 $419 $420 reversed $105 $-1 #
coedge $-1 $171 $170 $169 $282 reversed $67 $-1 #
edge $-1 $421 -11.412241818515122 $422 11.412241818515122 $169 $423 forward 7 unknown #
coedge $-1 $424 $278 $170 $284 forward $167 $-1 #
edge $-1 $422 30.215656928444623 $289 35.687974378954991 $283 $425 forward 7 unknown #
coedge $-1 $419 $426 $171 $286 forward $414 $-1 #
edge $-1 $290 -35.687974378954991 $421 -30.215656928444623 $285 $427 forward 7 unknown #
coedge $-1 $428 $172 $426 $429 reversed $276 $-1 #
coedge $-1 $172 $428 $424 $430 reversed $276 $-1 #
vertex $-1 $430 $431 #
vertex $-1 $173 $432 #
straight-curve $-1 -68.639790032654801 21.46285082123412 0 0 0 1 I I #
face $-1 $-1 $304 $39 $-1 $433 forward single #
loop $-1 $-1 $434 $174 #
plane-surface $-1 68.639790032654801 0 0 -1 0 0 0 0 1 forward_v I I I I #
coedge $-1 $435 $436 $437 $438 reversed $175 $-1 #
coedge $-1 $439 $177 $179 $302 forward $109 $-1 #
coedge $-1 $177 $439 $435 $440 forward $109 $-1 #
coedge $-1 $437 $180 $177 $299 forward $304 $-1 #
edge $-1 $306 -0.74319490282481748 $441 9.6738803042669446 $298 $442 forward 7 unknown #
coedge $-1 $443 $444 $178 $301 forward $293 $-1 #
edge $-1 $445 -94.745834570449389 $305 -85.594349044968212 $300 $446 forward 7 unknown #
edge $-1 $306 125.96772197513681 $445 137.2795800653096 $179 $447 forward 7 unknown #
coedge $-1 $180 $437 $443 $448 forward $304 $-1 #
loop $-1 $-1 $437 $292 #
vertex $-1 $301 $449 #
vertex $-1 $181 $450 #
straight-curve $-1 49.505196676317318 -3.7221477978962456 11.412241818515128 -1 0 0 I I #
coedge $-1 $308 $308 $-1 $451 reversed $184 $-1 #
edge $-1 $452 0 $452 6.2831853071796004 $185 $453 forward 7 unknown #
vertex $-1 $188 $454 #
ellipse-curve $-1 65.315318415648733 -11.162915802961788 6.8364990557745129 0.80901700255871778 0 0.5877852410284794 0.5877852410284794 0 -0.80901700255871778 1 I I #
coedge $-1 $312 $312 $-1 $455 reversed $191 $-1 #
edge $-1 $456 0 $456 6.2831853071796004 $192 $457 forward 7 unknown #
vertex $-1 $195 $458 #
ellipse-curve $-1 65.315318415648733 -6.6984549999224612 6.8364990557745129 0.80901700255871778 0 0.5877852410284794 0.5877852410284794 0 -0.80901700255871778 1 I I #
face $-1 $-1 $328 $42 $-1 $459 forward single #
loop $-1 $-1 $460 $196 #
plane-surface $-1 68.639790032654801 0 0 -1 0 0 0 0 1 forward_v I I I I #
coedge $-1 $461 $462 $463 $464 reversed $197 $-1 #
coedge $-1 $465 $199 $201 $326 forward $123 $-1 #
coedge $-1 $199 $465 $461 $466 forward $123 $-1 #
coedge $-1 $463 $202 $199 $323 forward $328 $-1 #
edge $-1 $330 -9.6738803042669428 $467 0.74319490282481926 $322 $468 forward 7 unknown #
coedge $-1 $469 $470 $200 $325 forward $317 $-1 #
edge $-1 $471 -94.745834570449389 $329 -85.594349044968212 $324 $472 forward 7 unknown #
edge $-1 $330 125.96772197513681 $471 137.2795800653096 $201 $473 forward 7 unknown #
coedge $-1 $202 $463 $469 $474 forward $328 $-1 #
loop $-1 $-1 $463 $316 #
vertex $-1 $325 $475 #
vertex $-1 $203 $476 #
straight-curve $-1 49.505196676317318 14.139223004988004 11.412241818515128 -1 0 0 I I #
coedge $-1 $332 $332 $-1 $477 reversed $206 $-1 #
edge $-1 $478 0 $478 6.2831853071796004 $207 $479 forward 7 unknown #
vertex $-1 $210 $480 #
ellipse-curve $-1 65.315318415648733 6.6984549999224576 6.8364990557745129 0.80901700255871778 0 0.5877852410284794 0.5877852410284794 0 -0.80901700255871778 1 I I #
coedge $-1 $336 $336 $-1 $481 reversed $213 $-1 #
edge $-1 $482 0 $482 6.2831853071796004 $214 $483 forward 7 unknown #
vertex $-1 $217 $484 #
ellipse-curve $-1 65.315318415648733 11.162915802961781 6.8364990557745129 0.80901700255871778 0 0.5877852410284794 0.5877852410284794 0 -0.80901700255871778 1 I I #
face $-1 $-1 $485 $45 $-1 $486 reversed single #
loop $-1 $-1 $224 $218 #
plane-surface $-1 0 0 11.412241818515122 0 0 1 1 0 0 forward_v I I I I #
coedge $-1 $487 $488 $489 $490 reversed $219 $-1 #
coedge $-1 $491 $221 $223 $350 forward $137 $-1 #
coedge $-1 $221 $491 $487 $492 forward $137 $-1 #
coedge $-1 $489 $224 $221 $347 forward $341 $-1 #
edge $-1 $353 -7.3803944760757112 $493 3.5408616722684485 $346 $494 forward 7 unknown #
coedge $-1 $495 $496 $222 $349 forward $485 $-1 #
edge $-1 $497 -47.289793621641117 $352 -40.048629192737906 $348 $498 forward 7 unknown #
edge $-1 $353 -10.424065485672944 $497 3.9571264572537829e-014 $223 $499 forward 7 unknown #
coedge $-1 $224 $489 $495 $500 forward $341 $-1 #
vertex $-1 $225 $501 #
vertex $-1 $225 $502 #
straight-curve $-1 -82.00110026920828 -9.3001608779793425 11.41224181851512 1 0 0 I I #
coedge $-1 $355 $355 $-1 $503 reversed $228 $-1 #
edge $-1 $504 0 $504 6.2831853071796004 $229 $505 forward 7 unknown #
vertex $-1 $232 $506 #
ellipse-curve $-1 -64.890567481138774 -6.1798019784524385 7.7916596040635149 -0.69465837861970381 0 0.71933979245794832 0.71933979245794832 0 0.69465837861970381 1 I I #
coedge $-1 $359 $359 $-1 $507 reversed $235 $-1 #
edge $-1 $508 0 $508 6.2831853071796004 $236 $509 forward 7 unknown #
vertex $-1 $239 $510 #
ellipse-curve $-1 -64.890567481138774 -1.4992636291620833 7.7916596040635149 -0.69465837861970381 0 0.71933979245794832 0.71933979245794832 0 0.69465837861970381 1 I I #
face $-1 $-1 $255 $36 $-1 $511 reversed single #
loop $-1 $-1 $379 $240 #
plane-surface $-1 0 29.623389103268163 0 0 -1 0 0 0 -1 forward_v I I I I #
coedge $-1 $512 $377 $380 $513 forward $241 $-1 #
coedge $-1 $383 $243 $244 $371 reversed $151 $-1 #
coedge $-1 $377 $512 $243 $369 reversed $241 $-1 #
edge $-1 $384 -11.412241818515122 $514 11.412241818515122 $368 $515 forward 7 unknown #
coedge $-1 $245 $244 $512 $516 forward $97 $-1 #
edge $-1 $375 -68.639790032654801 $514 68.639790032654801 $367 $517 forward 7 unknown #
coedge $-1 $380 $379 $245 $373 reversed $364 $-1 #
edge $-1 $518 -68.639790032654801 $374 68.639790032654801 $372 $519 forward 7 unknown #
vertex $-1 $247 $520 #
vertex $-1 $386 $521 #
straight-curve $-1 68.639790032654801 0 -11.412241818515122 0 -1 0 I I #
coedge $-1 $366 $368 $248 $378 reversed $241 $-1 #
edge $-1 $381 -29.623389103268163 $384 29.623389103268163 $377 $522 forward 7 unknown #
coedge $-1 $372 $249 $254 $387 forward $364 $-1 #
coedge $-1 $249 $372 $366 $513 reversed $364 $-1 #
vertex $-1 $250 $523 #
straight-curve $-1 0 29.623389103268163 11.412241818515122 -1 0 0 I I #
coedge $-1 $251 $367 $253 $386 reversed $151 $-1 #
vertex $-1 $378 $524 #
straight-curve $-1 0 -29.623389103268163 11.412241818515122 1 0 0 I I #
edge $-1 $256 -11.412241818515122 $375 11.412241818515122 $253 $525 forward 7 unknown #
edge $-1 $257 -11.412241818515122 $374 11.412241818515122 $254 $526 forward 7 unknown #
point $-1 68.639790032654801 -29.623389103268163 11.412241818515122 #
point $-1 68.639790032654801 29.623389103268163 11.412241818515122 #
face $-1 $-1 $400 $37 $-1 $527 reversed single #
loop $-1 $-1 $396 $259 #
plane-surface $-1 0 0 -11.412241818515122 0 0 1 1 0 0 forward_v I I I I #
coedge $-1 $528 $529 $267 $404 forward $260 $-1 #
coedge $-1 $262 $408 $398 $530 forward $159 $-1 #
edge $-1 $402 -16.851829122142593 $272 -8.6912908401085467 $262 $531 forward 7 unknown #
coedge $-1 $532 $268 $263 $397 forward $391 $-1 #
edge $-1 $273 8.6912908401085467 $401 16.851829122142593 $396 $533 forward 7 unknown #
coedge $-1 $534 $265 $394 $530 reversed $400 $-1 #
coedge $-1 $265 $534 $532 $535 reversed $400 $-1 #
loop $-1 $-1 $265 $390 #
vertex $-1 $535 $536 #
vertex $-1 $266 $537 #
straight-curve $-1 -63.167472582144434 -29.623389103268163 0 0 0 1 I I #
edge $-1 $409 -11.412241818515122 $406 11.412241818515122 $393 $538 forward 7 unknown #
coedge $-1 $268 $532 $528 $539 forward $391 $-1 #
vertex $-1 $269 $540 #
straight-curve $-1 -32.951815653699811 -21.462850821234117 -11.412241818515122 1 0 0 I I #
coedge $-1 $394 $270 $529 $541 forward $159 $-1 #
vertex $-1 $541 $542 #
straight-curve $-1 -32.951815653699811 -21.462850821234117 11.412241818515122 -1 0 0 I I #
point $-1 -63.167472582144434 -21.462850821234117 11.412241818515122 #
point $-1 -63.167472582144434 -21.462850821234117 -11.412241818515122 #
face $-1 $-1 $543 $38 $-1 $544 reversed single #
loop $-1 $-1 $419 $275 #
plane-surface $-1 0 0 11.412241818515122 0 0 1 1 0 0 forward_v I I I I #
coedge $-1 $278 $424 $545 $546 forward $167 $-1 #
edge $-1 $547 -16.851829122142597 $422 -8.6912908401085485 $278 $548 forward 7 unknown #
coedge $-1 $280 $279 $549 $550 reversed $105 $-1 #
coedge $-1 $551 $285 $280 $420 forward $414 $-1 #
edge $-1 $421 8.6912908401085485 $552 16.851829122142597 $419 $553 forward 7 unknown #
vertex $-1 $286 $554 #
vertex $-1 $284 $555 #
straight-curve $-1 -63.167472582144434 21.46285082123412 0 0 0 -1 I I #
coedge $-1 $416 $283 $288 $430 forward $167 $-1 #
straight-curve $-1 -32.951815653699811 21.46285082123412 -11.412241818515122 -1 0 0 I I #
coedge $-1 $285 $551 $287 $429 forward $414 $-1 #
straight-curve $-1 -32.951815653699811 21.46285082123412 11.412241818515122 1 0 0 I I #
coedge $-1 $288 $287 $556 $557 forward $276 $-1 #
edge $-1 $558 -29.623389103268163 $290 -21.46285082123412 $287 $559 forward 7 unknown #
edge $-1 $289 21.46285082123412 $560 29.623389103268163 $288 $561 forward 7 unknown #
point $-1 -68.639790032654801 21.46285082123412 -11.412241818515122 #
point $-1 -68.639790032654801 21.46285082123412 11.412241818515122 #
plane-surface $-1 0 0 11.412241818515122 0 0 1 1 0 0 forward_v I I I I #
coedge $-1 $444 $443 $436 $562 forward $293 $-1 #
coedge $-1 $436 $295 $297 $440 reversed $175 $-1 #
coedge $-1 $295 $435 $434 $562 reversed $175 $-1 #
coedge $-1 $303 $298 $295 $438 forward $304 $-1 #
edge $-1 $441 12.485650122325303 $563 19.134593356337483 $437 $564 forward 7 unknown #
coedge $-1 $297 $296 $444 $565 reversed $109 $-1 #
edge $-1 $566 -137.2795800653096 $441 -125.96772197513681 $435 $567 forward 7 unknown #
vertex $-1 $299 $568 #
straight-curve $-1 61.990846798642615 -4.4653427007210631 11.412241818515128 0 -1 0 I I #
coedge $-1 $434 $300 $303 $448 reversed $293 $-1 #
coedge $-1 $300 $434 $439 $565 forward $293 $-1 #
vertex $-1 $301 $569 #
straight-curve $-1 68.639790032654801 -3.7221477978962456 97.006590863483339 0 0 1 I I #
straight-curve $-1 -12.051121024321645 -3.7221477978962456 113.32227066999023 0.5877852410284794 0 -0.80901700255871778 I I #
edge $-1 $563 -14.139223004988008 $305 -3.7221477978962456 $443 $570 forward 7 unknown #
point $-1 68.639790032654801 -3.7221477978962456 11.412241818515122 #
point $-1 61.990846798642622 -3.7221477978962456 11.412241818515128 #
edge $-1 $571 1 $571 0 $308 $-1 forward 7 unknown #
vertex $-1 $309 $572 #
ellipse-curve $-1 63.389029847191814 -11.162915802961788 5.4369685305570554 0.80901700255871778 0 0.5877852410284794 0.5877852410284794 0 -0.80901700255871778 1 I I #
point $-1 65.903103656677231 -11.162915802961788 6.0274820532158104 #
edge $-1 $573 1 $573 0 $312 $-1 forward 7 unknown #
vertex $-1 $313 $574 #
ellipse-curve $-1 63.389029847191814 -6.6984549999224612 5.4369685305570554 0.80901700255871778 0 0.5877852410284794 0.5877852410284794 0 -0.80901700255871778 1 I I #
point $-1 65.903103656677231 -6.6984549999224612 6.0274820532158104 #
plane-surface $-1 0 0 11.412241818515122 0 0 1 1 0 0 forward_v I I I I #
coedge $-1 $470 $469 $462 $575 forward $317 $-1 #
coedge $-1 $462 $319 $321 $466 reversed $197 $-1 #
coedge $-1 $319 $461 $460 $575 reversed $197 $-1 #
coedge $-1 $327 $322 $319 $464 forward $328 $-1 #
edge $-1 $467 12.485650122325303 $576 19.134593356337483 $463 $577 forward 7 unknown #
coedge $-1 $321 $320 $470 $578 reversed $123 $-1 #
edge $-1 $579 -137.2795800653096 $467 -125.96772197513681 $461 $580 forward 7 unknown #
vertex $-1 $323 $581 #
straight-curve $-1 61.990846798642615 4.4653427007210613 11.412241818515128 0 -1 0 I I #
coedge $-1 $460 $324 $327 $474 reversed $317 $-1 #
coedge $-1 $324 $460 $465 $578 forward $317 $-1 #
vertex $-1 $325 $582 #
straight-curve $-1 68.639790032654801 14.139223004988004 97.006590863483339 0 0 1 I I #
straight-curve $-1 -12.051121024321645 14.139223004988004 113.32227066999023 0.5877852410284794 0 -0.80901700255871778 I I #
edge $-1 $576 3.7221477978962421 $329 14.139223004988004 $469 $583 forward 7 unknown #
point $-1 68.639790032654801 14.139223004988004 11.412241818515122 #
point $-1 61.990846798642622 14.139223004988004 11.412241818515128 #
edge $-1 $584 1 $584 0 $332 $-1 forward 7 unknown #
vertex $-1 $333 $585 #
ellipse-curve $-1 63.389029847191814 6.6984549999224576 5.4369685305570554 0.80901700255871778 0 0.5877852410284794 0.5877852410284794 0 -0.80901700255871778 1 I I #
point $-1 65.903103656677231 6.6984549999224576 6.0274820532158104 #
edge $-1 $586 1 $586 0 $336 $-1 forward 7 unknown #
vertex $-1 $337 $587 #
ellipse-curve $-1 63.389029847191814 11.162915802961781 5.4369685305570554 0.80901700255871778 0 0.5877852410284794 0.5877852410284794 0 -0.80901700255871778 1 I I #
point $-1 65.903103656677231 11.162915802961781 6.0274820532158104 #
loop $-1 $-1 $348 $340 #
plane-surface $-1 -68.639790032654801 0 0 1 0 0 0 0 -1 forward_v I I I I #
coedge $-1 $488 $343 $345 $492 reversed $219 $-1 #
coedge $-1 $343 $487 $588 $589 reversed $219 $-1 #
coedge $-1 $351 $346 $343 $490 forward $341 $-1 #
edge $-1 $493 -20.859755339585547 $590 -13.361310236553479 $489 $591 forward 7 unknown #
coedge $-1 $345 $344 $496 $592 reversed $137 $-1 #
edge $-1 $593 -3.9571264572537829e-014 $493 10.424065485672944 $487 $594 forward 7 unknown #
vertex $-1 $347 $595 #
straight-curve $-1 -61.141344929622733 -1.9197664019036313 11.412241818515122 0 1 0 I I #
coedge $-1 $588 $348 $351 $500 reversed $485 $-1 #
coedge $-1 $348 $588 $491 $592 forward $485 $-1 #
vertex $-1 $349 $596 #
straight-curve $-1 -68.639790032654801 -9.3001608779793425 51.460871011253026 0 0 1 I I #
straight-curve $-1 -68.639790032654773 -9.3001608779793425 4.1710773896119377 -0.71933979245794832 0 -0.69465837861970381 I I #
edge $-1 $590 -1.6210952703648172 $352 9.3001608779793425 $495 $597 forward 7 unknown #
point $-1 -68.639790032654801 -9.3001608779793425 11.412241818515122 #
point $-1 -61.141344929622733 -9.3001608779793425 11.41224181851512 #
edge $-1 $598 1 $598 0 $355 $-1 forward 7 unknown #
vertex $-1 $356 $599 #
ellipse-curve $-1 -63.818126201826225 -6.1798019784524385 6.6811141747880427 -0.69465837861970381 0 0.71933979245794832 0.71933979245794832 0 0.69465837861970381 1 I I #
point $-1 -64.171227688680844 -6.1798019784524385 8.4863179826832464 #
edge $-1 $600 1 $600 0 $359 $-1 forward 7 unknown #
vertex $-1 $360 $601 #
ellipse-curve $-1 -63.818126201826225 -1.4992636291620833 6.6811141747880427 -0.69465837861970381 0 0.71933979245794832 0.71933979245794832 0 0.69465837861970381 1 I I #
point $-1 -64.171227688680844 -1.4992636291620833 8.4863179826832464 #
plane-surface $-1 68.639790032654801 0 0 -1 0 0 0 0 1 forward_v I I I I #
coedge $-1 $368 $366 $370 $516 reversed $241 $-1 #
edge $-1 $381 -11.412241818515122 $518 11.412241818515122 $380 $602 forward 7 unknown #
vertex $-1 $516 $603 #
straight-curve $-1 -68.639790032654801 -29.623389103268163 0 0 0 -1 I I #
edge $-1 $514 -29.623389103268163 $518 29.623389103268163 $512 $604 forward 7 unknown #
straight-curve $-1 0 -29.623389103268163 -11.412241818515122 -1 0 0 I I #
vertex $-1 $373 $605 #
straight-curve $-1 0 29.623389103268163 -11.412241818515122 1 0 0 I I #
point $-1 68.639790032654801 29.623389103268163 -11.412241818515122 #
point $-1 68.639790032654801 -29.623389103268163 -11.412241818515122 #
straight-curve $-1 -68.639790032654801 0 11.412241818515122 0 -1 0 I I #
point $-1 -68.639790032654801 29.623389103268163 11.412241818515122 #
point $-1 -68.639790032654801 -29.623389103268163 11.412241818515122 #
straight-curve $-1 68.639790032654801 -29.623389103268163 0 0 0 -1 I I #
straight-curve $-1 68.639790032654801 29.623389103268163 0 0 0 -1 I I #
plane-surface $-1 0 -29.623389103268163 0 0 1 0 0 0 1 forward_v I I I I #
coedge $-1 $606 $393 $405 $539 reversed $260 $-1 #
coedge $-1 $393 $606 $408 $541 reversed $260 $-1 #
edge $-1 $607 -68.639790032654801 $402 -63.167472582144434 $398 $608 forward 7 unknown #
straight-curve $-1 -63.167472582144434 -12.77155998112557 11.412241818515122 0 1 0 I I #
coedge $-1 $405 $396 $399 $535 forward $391 $-1 #
straight-curve $-1 -63.167472582144434 -12.77155998112557 -11.412241818515122 0 -1 0 I I #
coedge $-1 $399 $398 $606 $609 forward $400 $-1 #
edge $-1 $401 63.167472582144434 $610 68.639790032654801 $399 $611 forward 7 unknown #
point $-1 -63.167472582144434 -29.623389103268163 -11.412241818515122 #
point $-1 -63.167472582144434 -29.623389103268163 11.412241818515122 #
straight-curve $-1 -68.639790032654801 -21.462850821234117 0 0 0 -1 I I #
edge $-1 $610 -29.623389103268163 $406 -21.462850821234117 $528 $612 forward 7 unknown #
point $-1 -68.639790032654801 -21.462850821234117 -11.412241818515122 #
edge $-1 $409 21.462850821234117 $607 29.623389103268163 $529 $613 forward 7 unknown #
point $-1 -68.639790032654801 -21.462850821234117 11.412241818515122 #
loop $-1 $-1 $549 $413 #
plane-surface $-1 0 29.623389103268163 0 0 -1 0 0 0 -1 forward_v I I I I #
coedge $-1 $556 $549 $416 $546 reversed $543 $-1 #
edge $-1 $560 -68.639790032654801 $547 -63.167472582144434 $545 $614 forward 7 unknown #
vertex $-1 $417 $615 #
straight-curve $-1 -63.167472582144434 12.771559981125572 -11.412241818515122 0 -1 0 I I #
coedge $-1 $545 $616 $418 $550 forward $543 $-1 #
edge $-1 $552 -11.412241818515122 $547 11.412241818515122 $549 $617 forward 7 unknown #
coedge $-1 $426 $419 $616 $618 forward $414 $-1 #
vertex $-1 $618 $619 #
straight-curve $-1 -63.167472582144434 12.771559981125572 11.412241818515122 0 1 0 I I #
point $-1 -63.167472582144434 21.46285082123412 11.412241818515122 #
point $-1 -63.167472582144434 21.46285082123412 -11.412241818515122 #
coedge $-1 $616 $545 $428 $557 reversed $543 $-1 #
edge $-1 $558 -11.412241818515122 $560 11.412241818515122 $556 $620 forward 7 unknown #
vertex $-1 $618 $621 #
straight-curve $-1 -68.639790032654801 0 11.412241818515122 0 -1 0 I I #
vertex $-1 $546 $622 #
straight-curve $-1 -68.639790032654801 0 -11.412241818515122 0 1 0 I I #
edge $-1 $563 85.594349044968212 $566 94.745834570449389 $434 $623 forward 7 unknown #
vertex $-1 $448 $624 #
straight-curve $-1 49.505196676317318 -14.139223004988008 11.412241818515128 1 0 0 I I #
edge $-1 $566 -9.6738803042669446 $445 0.74319490282481748 $444 $625 forward 7 unknown #
vertex $-1 $565 $626 #
straight-curve $-1 -12.051121024321645 -14.139223004988008 113.32227066999023 -0.5877852410284794 0 0.80901700255871778 I I #
point $-1 61.990846798642622 -14.139223004988008 11.412241818515128 #
point $-1 68.639790032654801 -3.7221477978962456 2.2607562930339498 #
straight-curve $-1 68.639790032654801 0 11.412241818515122 0 1 0 I I #
vertex $-1 $451 $627 #
point $-1 63.976815088220292 -11.162915802961788 4.6279515279983379 #
vertex $-1 $455 $628 #
point $-1 63.976815088220292 -6.6984549999224612 4.6279515279983379 #
edge $-1 $576 85.594349044968212 $579 94.745834570449389 $460 $629 forward 7 unknown #
vertex $-1 $474 $630 #
straight-curve $-1 49.505196676317318 3.7221477978962421 11.412241818515128 1 0 0 I I #
edge $-1 $579 -0.74319490282481926 $471 9.6738803042669428 $470 $631 forward 7 unknown #
vertex $-1 $578 $632 #
straight-curve $-1 -12.051121024321645 3.7221477978962421 113.32227066999023 -0.5877852410284794 0 0.80901700255871778 I I #
point $-1 61.990846798642622 3.7221477978962421 11.412241818515128 #
point $-1 68.639790032654801 14.139223004988004 2.2607562930339498 #
straight-curve $-1 68.639790032654801 0 11.412241818515122 0 1 0 I I #
vertex $-1 $477 $633 #
point $-1 63.976815088220292 6.6984549999224576 4.6279515279983379 #
vertex $-1 $481 $634 #
point $-1 63.976815088220292 11.162915802961781 4.6279515279983379 #
coedge $-1 $496 $495 $488 $589 forward $485 $-1 #
edge $-1 $590 40.048629192737906 $593 47.289793621641117 $588 $635 forward 7 unknown #
vertex $-1 $500 $636 #
straight-curve $-1 -82.00110026920828 1.6210952703648172 11.41224181851512 -1 0 0 I I #
edge $-1 $593 -3.5408616722684485 $497 7.3803944760757112 $496 $637 forward 7 unknown #
vertex $-1 $592 $638 #
straight-curve $-1 -68.639790032654773 1.6210952703648172 4.1710773896119377 0.71933979245794832 0 0.69465837861970381 I I #
point $-1 -61.141344929622733 1.6210952703648172 11.41224181851512 #
point $-1 -68.639790032654801 -9.3001608779793425 4.1710773896119102 #
straight-curve $-1 -68.639790032654801 0 11.412241818515122 0 -1 0 I I #
vertex $-1 $503 $639 #
point $-1 -63.098786409368273 -6.1798019784524385 7.3757725534077467 #
vertex $-1 $507 $640 #
point $-1 -63.098786409368273 -1.4992636291620833 7.3757725534077467 #
straight-curve $-1 -68.639790032654801 29.623389103268163 0 0 0 -1 I I #
point $-1 -68.639790032654801 -29.623389103268163 -11.412241818515122 #
straight-curve $-1 -68.639790032654801 0 -11.412241818515122 0 1 0 I I #
point $-1 -68.639790032654801 29.623389103268163 -11.412241818515122 #
coedge $-1 $529 $528 $534 $609 reversed $260 $-1 #
vertex $-1 $541 $641 #
straight-curve $-1 0 -29.623389103268163 11.412241818515122 1 0 0 I I #
edge $-1 $607 -11.412241818515122 $610 11.412241818515122 $606 $642 forward 7 unknown #
vertex $-1 $539 $643 #
straight-curve $-1 0 -29.623389103268163 -11.412241818515122 -1 0 0 I I #
straight-curve $-1 -68.639790032654801 0 -11.412241818515122 0 1 0 I I #
straight-curve $-1 -68.639790032654801 0 11.412241818515122 0 -1 0 I I #
straight-curve $-1 0 29.623389103268163 -11.412241818515122 1 0 0 I I #
point $-1 -63.167472582144434 29.623389103268167 -11.412241818515122 #
coedge $-1 $549 $556 $551 $618 reversed $543 $-1 #
straight-curve $-1 -63.167472582144434 29.623389103268163 0 0 0 -1 I I #
edge $-1 $552 63.167472582144434 $558 68.639790032654801 $616 $644 forward 7 unknown #
point $-1 -63.167472582144434 29.623389103268167 11.412241818515122 #
straight-curve $-1 -68.639790032654801 29.623389103268163 0 0 0 -1 I I #
point $-1 -68.639790032654801 29.623389103268163 11.412241818515122 #
point $-1 -68.639790032654801 29.623389103268163 -11.412241818515122 #
straight-curve $-1 68.639790032654801 -14.139223004988008 97.006590863483339 0 0 -1 I I #
point $-1 68.639790032654801 -14.139223004988008 11.412241818515122 #
straight-curve $-1 68.639790032654801 -4.4653427007210631 2.2607562930339284 0 1 0 I I #
point $-1 68.639790032654801 -14.139223004988008 2.2607562930339498 #
point $-1 62.580012844633096 -11.162915802961788 4.8491832895285762 #
point $-1 62.580012844633096 -6.6984549999224612 4.8491832895285762 #
straight-curve $-1 68.639790032654801 3.7221477978962421 97.006590863483339 0 0 -1 I I #
point $-1 68.639790032654801 3.7221477978962421 11.412241818515122 #
straight-curve $-1 68.639790032654801 4.4653427007210613 2.2607562930339284 0 1 0 I I #
point $-1 68.639790032654801 3.7221477978962421 2.2607562930339498 #
point $-1 62.580012844633096 6.6984549999224576 4.8491832895285762 #
point $-1 62.580012844633096 11.162915802961781 4.8491832895285762 #
straight-curve $-1 -68.639790032654801 1.6210952703648172 51.460871011253026 0 0 -1 I I #
point $-1 -68.639790032654801 1.6210952703648172 11.412241818515122 #
straight-curve $-1 -68.639790032654801 -1.9197664019036313 4.171077389611904 0 -1 0 I I #
point $-1 -68.639790032654801 1.6210952703648172 4.1710773896119102 #
point $-1 -63.123467823206518 -6.1798019784524385 5.9617743823300948 #
point $-1 -63.123467823206518 -1.4992636291620833 5.9617743823300948 #
point $-1 -68.639790032654801 -29.623389103268163 11.412241818515122 #
straight-curve $-1 -68.639790032654801 -29.623389103268163 0 0 0 -1 I I #
point $-1 -68.639790032654801 -29.623389103268163 -11.412241818515122 #
straight-curve $-1 0 29.623389103268163 11.412241818515122 -1 0 0 I I #
End-of-ACIS-data 