500 0 6 0           
7 Unknown 11 ACIS 5.0 NT 24 Fri Mar 26 16:54:57 1999 
-1 9.9999999999999995e-007 1e-010 
body $-1 $6 $-1 $7 #
body $-1 $8 $-1 $9 #
body $-1 $10 $-1 $11 #
body $-1 $12 $-1 $13 #
body $-1 $14 $-1 $15 #
body $-1 $16 $-1 $17 #
lump $-1 $-1 $18 $0 #
transform $-1 1 0 0 0 1 0 0 0 1 62.556840723899043 33.181452645453732 11.660748477360279 1 rotate no_reflect no_shear #
lump $-1 $-1 $19 $1 #
transform $-1 1 0 0 0 1 0 0 0 1 62.556840723899043 33.181452645453732 11.660748477360279 1 rotate no_reflect no_shear #
lump $-1 $-1 $20 $2 #
transform $-1 1 0 0 0 1 0 0 0 1 62.556840723899043 33.181452645453732 11.660748477360279 1 rotate no_reflect no_shear #
lump $-1 $-1 $21 $3 #
transform $-1 1 0 0 0 1 0 0 0 1 62.556840723899043 33.181452645453732 11.660748477360279 1 rotate no_reflect no_shear #
lump $-1 $-1 $22 $4 #
transform $-1 1 0 0 0 1 0 0 0 1 62.556840723899043 33.181452645453732 11.660748477360279 1 rotate no_reflect no_shear #
lump $-1 $-1 $23 $5 #
transform $-1 1 0 0 0 1 0 0 0 1 62.556840723899043 33.181452645453732 11.660748477360279 1 rotate no_reflect no_shear #
shell $-1 $-1 $-1 $24 $-1 $6 #
shell $-1 $-1 $-1 $25 $-1 $8 #
shell $-1 $-1 $-1 $26 $-1 $10 #
shell $-1 $-1 $-1 $27 $-1 $12 #
shell $-1 $-1 $-1 $28 $-1 $14 #
shell $-1 $-1 $-1 $29 $-1 $16 #
face $-1 $30 $31 $18 $-1 $32 forward single #
face $-1 $33 $34 $19 $-1 $35 reversed single #
face $-1 $36 $37 $20 $-1 $38 reversed single #
face $-1 $39 $40 $21 $-1 $41 reversed single #
face $-1 $42 $43 $22 $-1 $44 forward single #
face $-1 $45 $46 $23 $-1 $47 forward single #
face $-1 $48 $49 $18 $-1 $50 reversed single #
loop $-1 $-1 $51 $24 #
plane-surface $-1 0 0 11.660748477360279 0 0 1 1 0 0 forward_v I I I I #
face $-1 $52 $53 $19 $-1 $54 reversed single #
loop $-1 $-1 $55 $25 #
plane-surface $-1 -53.905895688417999 -26.991366362310693 0 1 0 0 0 0 -1 forward_v I I I I #
face $-1 $56 $57 $20 $-1 $58 reversed single #
loop $-1 $-1 $59 $26 #
plane-surface $-1 -51.022256326044328 20.801280079167654 0 0 1 0 0 0 1 forward_v I I I I #
face $-1 $60 $61 $21 $-1 $62 reversed single #
loop $-1 $-1 $63 $27 #
plane-surface $-1 -132.51952442589004 2.3355545876399155 106.55050680766988 0 1 0 -0.55919291073839883 0 0.82903756765294845 forward_v I I I I #
face $-1 $64 $65 $22 $-1 $66 forward single #
loop $-1 $67 $68 $28 #
cone-surface $-1 -55.478094291292834 4.441733944130263 6.4576939380145442 0.55919291073839883 0 -0.82903756765294845 0.41451878382647422 0 0.27959645536919941 1 I I 0 1 0.5 forward I I I I #
face $-1 $69 $70 $23 $-1 $71 forward single #
loop $-1 $72 $73 $29 #
cone-surface $-1 -55.478094291292834 7.6010029788657789 6.4576939380145442 0.55919291073839883 0 -0.82903756765294845 0.41451878382647422 0 0.27959645536919941 1 I I 0 1 0.5 forward I I I I #
face $-1 $74 $75 $18 $-1 $76 reversed single #
loop $-1 $-1 $77 $30 #
plane-surface $-1 0 0 -11.660748477360279 0 0 1 1 0 0 forward_v I I I I #
coedge $-1 $78 $79 $80 $81 forward $31 $-1 #
face $-1 $82 $83 $19 $-1 $84 reversed single #
loop $-1 $-1 $85 $33 #
plane-surface $-1 -51.022256326044328 -20.801280079167654 0 0 -1 0 0 0 -1 forward_v I I I I #
coedge $-1 $86 $87 $88 $89 forward $34 $-1 #
face $-1 $90 $91 $20 $-1 $92 reversed single #
loop $-1 $-1 $93 $36 #
plane-surface $-1 -53.905895688417999 26.991366362310693 0 1 0 0 0 0 -1 forward_v I I I I #
coedge $-1 $94 $95 $96 $97 forward $37 $-1 #
face $-1 $98 $99 $21 $-1 $100 reversed single #
loop $-1 $-1 $101 $39 #
plane-surface $-1 -62.556840723899015 6.0213684614980139 2.8265646600815302 -0.55919291073839883 0 0.82903756765294845 0.82903756765294845 0 0.55919291073839883 forward_v I I I I #
coedge $-1 $102 $103 $104 $105 reversed $40 $-1 #
face $-1 $-1 $106 $22 $-1 $107 forward single #
loop $-1 $108 $109 $42 #
cone-surface $-1 -54.808157565252174 4.441733944130263 5.4644719153949559 0.55919291073839883 0 -0.82903756765294845 0.20725939191323711 0 0.13979822768459971 1 I I -0.70710678118654746 0.70710678118654746 0.25 forward I I I I #
loop $-1 $-1 $110 $28 #
coedge $-1 $68 $68 $111 $112 reversed $43 $-1 #
face $-1 $-1 $113 $23 $-1 $114 forward single #
loop $-1 $115 $116 $45 #
cone-surface $-1 -54.808157565252174 7.6010029788657789 5.4644719153949559 0.55919291073839883 0 -0.82903756765294845 0.20725939191323711 0 0.13979822768459971 1 I I -0.70710678118654746 0.70710678118654746 0.25 forward I I I I #
loop $-1 $-1 $117 $29 #
coedge $-1 $73 $73 $118 $119 reversed $46 $-1 #
face $-1 $120 $121 $18 $-1 $122 reversed single #
loop $-1 $-1 $123 $48 #
plane-surface $-1 0 -33.181452645453732 0 0 1 0 0 0 1 forward_v I I I I #
coedge $-1 $124 $125 $126 $127 forward $49 $-1 #
coedge $-1 $128 $51 $129 $130 forward $31 $-1 #
coedge $-1 $51 $128 $131 $132 forward $31 $-1 #
coedge $-1 $133 $134 $51 $81 reversed $135 $-1 #
edge $-1 $136 -33.181452645453732 $137 33.181452645453732 $80 $138 forward 7 unknown #
face $-1 $139 $140 $19 $-1 $141 forward single #
loop $-1 $-1 $142 $52 #
plane-surface $-1 -48.138616963670657 -26.991366362310693 0 -1 0 0 0 0 1 forward_v I I I I #
coedge $-1 $143 $144 $145 $146 forward $53 $-1 #
coedge $-1 $147 $55 $148 $149 reversed $34 $-1 #
coedge $-1 $55 $147 $150 $151 reversed $34 $-1 #
coedge $-1 $144 $143 $55 $89 reversed $53 $-1 #
edge $-1 $152 -11.660748477360279 $153 11.660748477360279 $88 $154 forward 7 unknown #
face $-1 $155 $156 $20 $-1 $157 reversed single #
loop $-1 $-1 $158 $56 #
plane-surface $-1 -48.138616963670657 26.991366362310693 0 -1 0 0 0 0 1 forward_v I I I I #
coedge $-1 $159 $160 $161 $162 reversed $57 $-1 #
coedge $-1 $163 $59 $164 $165 reversed $37 $-1 #
coedge $-1 $59 $163 $166 $167 reversed $37 $-1 #
coedge $-1 $160 $159 $59 $97 reversed $57 $-1 #
edge $-1 $168 -11.660748477360279 $169 11.660748477360279 $96 $170 forward 7 unknown #
face $-1 $171 $172 $21 $-1 $173 reversed single #
loop $-1 $-1 $174 $60 #
plane-surface $-1 -132.51952442589004 9.7071823353561122 106.55050680766988 0 -1 0 0.55919291073839883 0 -0.82903756765294845 forward_v I I I I #
coedge $-1 $175 $176 $177 $178 reversed $61 $-1 #
coedge $-1 $103 $63 $179 $180 reversed $40 $-1 #
coedge $-1 $63 $102 $175 $181 reversed $40 $-1 #
coedge $-1 $177 $182 $63 $105 forward $183 $-1 #
edge $-1 $184 3.702921489045977 $185 16.800137357546276 $104 $186 forward 7 unknown #
loop $-1 $-1 $111 $64 #
plane-surface $-1 -62.556840723899015 6.0213684614980139 2.8265646600815302 -0.55919291073839883 0 0.82903756765294845 0.82903756765294845 0 0.55919291073839883 forward_v I I I I #
loop $-1 $-1 $187 $42 #
coedge $-1 $109 $109 $110 $188 reversed $65 $-1 #
coedge $-1 $110 $110 $109 $188 forward $67 $-1 #
coedge $-1 $111 $111 $68 $112 forward $106 $-1 #
edge $-1 $189 0 $189 6.2831853071796004 $111 $190 forward 7 unknown #
loop $-1 $-1 $118 $69 #
plane-surface $-1 -62.556840723899015 6.0213684614980139 2.8265646600815302 -0.55919291073839883 0 0.82903756765294845 0.82903756765294845 0 0.55919291073839883 forward_v I I I I #
loop $-1 $-1 $191 $45 #
coedge $-1 $116 $116 $117 $192 reversed $70 $-1 #
coedge $-1 $117 $117 $116 $192 forward $72 $-1 #
coedge $-1 $118 $118 $73 $119 forward $113 $-1 #
edge $-1 $193 0 $193 6.2831853071796004 $118 $194 forward 7 unknown #
face $-1 $195 $196 $18 $-1 $197 reversed single #
loop $-1 $-1 $198 $74 #
plane-surface $-1 -62.556840723899043 0 0 1 0 0 0 0 -1 forward_v I I I I #
coedge $-1 $199 $131 $200 $201 forward $75 $-1 #
coedge $-1 $202 $77 $199 $203 forward $49 $-1 #
coedge $-1 $77 $202 $204 $205 forward $49 $-1 #
coedge $-1 $134 $133 $77 $127 reversed $135 $-1 #
edge $-1 $206 -33.181452645453732 $207 33.181452645453732 $126 $208 forward 7 unknown #
coedge $-1 $79 $78 $209 $210 forward $31 $-1 #
coedge $-1 $211 $212 $78 $130 reversed $196 $-1 #
edge $-1 $137 -62.556840723899043 $213 62.556840723899043 $129 $214 forward 7 unknown #
coedge $-1 $123 $215 $79 $132 reversed $75 $-1 #
edge $-1 $216 -62.556840723899043 $136 62.556840723899043 $131 $217 forward 7 unknown #
coedge $-1 $126 $80 $215 $218 forward $135 $-1 #
coedge $-1 $80 $126 $211 $219 reversed $135 $-1 #
loop $-1 $-1 $133 $195 #
vertex $-1 $81 $220 #
vertex $-1 $81 $221 #
straight-curve $-1 62.556840723899043 0 11.660748477360279 0 1 0 I I #
face $-1 $222 $223 $19 $-1 $224 reversed single #
loop $-1 $-1 $225 $82 #
plane-surface $-1 0 0 11.660748477360279 0 0 1 1 0 0 forward_v I I I I #
coedge $-1 $226 $227 $228 $229 reversed $83 $-1 #
coedge $-1 $88 $85 $230 $231 reversed $53 $-1 #
coedge $-1 $85 $88 $232 $233 reversed $53 $-1 #
coedge $-1 $227 $226 $85 $146 reversed $83 $-1 #
edge $-1 $234 -11.660748477360279 $235 11.660748477360279 $145 $236 forward 7 unknown #
coedge $-1 $87 $86 $237 $238 reversed $34 $-1 #
coedge $-1 $230 $239 $86 $149 forward $223 $-1 #
edge $-1 $240 -19.685769464298385 $153 -7.3055968980123076 $148 $241 forward 7 unknown #
coedge $-1 $242 $232 $87 $151 forward $140 $-1 #
edge $-1 $152 7.3055968980123076 $243 19.685769464298385 $150 $244 forward 7 unknown #
vertex $-1 $151 $245 #
vertex $-1 $149 $246 #
straight-curve $-1 -53.905895688417999 -20.801280079167654 0 0 0 -1 I I #
face $-1 $247 $248 $20 $-1 $249 forward single #
loop $-1 $-1 $250 $90 #
plane-surface $-1 0 0 -11.660748477360279 0 0 1 1 0 0 forward_v I I I I #
coedge $-1 $251 $252 $163 $253 forward $91 $-1 #
coedge $-1 $96 $93 $254 $255 reversed $57 $-1 #
coedge $-1 $93 $96 $256 $257 reversed $57 $-1 #
coedge $-1 $258 $259 $93 $162 forward $260 $-1 #
edge $-1 $261 -11.660748477360279 $262 11.660748477360279 $161 $263 forward 7 unknown #
coedge $-1 $95 $94 $158 $253 reversed $37 $-1 #
coedge $-1 $254 $250 $94 $165 forward $156 $-1 #
edge $-1 $264 22.627488800648493 $169 28.394767525395835 $164 $265 forward 7 unknown #
coedge $-1 $266 $256 $95 $167 forward $248 $-1 #
edge $-1 $168 -28.394767525395835 $267 -22.627488800648493 $166 $268 forward 7 unknown #
vertex $-1 $167 $269 #
vertex $-1 $165 $270 #
straight-curve $-1 -53.905895688417999 20.801280079167654 0 0 0 -1 I I #
face $-1 $-1 $183 $21 $-1 $271 forward single #
loop $-1 $-1 $272 $98 #
plane-surface $-1 -62.556840723899043 0 0 1 0 0 0 0 -1 forward_v I I I I #
coedge $-1 $273 $274 $275 $276 reversed $99 $-1 #
coedge $-1 $277 $101 $103 $181 forward $61 $-1 #
coedge $-1 $101 $277 $273 $278 forward $61 $-1 #
coedge $-1 $275 $104 $101 $178 forward $183 $-1 #
edge $-1 $185 -0.6751296431090914 $279 6.6964981046071053 $177 $280 forward 7 unknown #
coedge $-1 $281 $282 $102 $180 forward $172 $-1 #
edge $-1 $283 -50.448688743753429 $184 -41.614504926474659 $179 $284 forward 7 unknown #
edge $-1 $185 -15.798096949429226 $283 3.424092098371461e-014 $103 $285 forward 7 unknown #
coedge $-1 $104 $275 $281 $286 forward $183 $-1 #
loop $-1 $-1 $275 $171 #
vertex $-1 $180 $287 #
vertex $-1 $105 $288 #
straight-curve $-1 -66.25976221294502 2.3355545876399155 11.660748477360279 1 0 0 I I #
coedge $-1 $187 $187 $-1 $289 reversed $108 $-1 #
edge $-1 $290 0 $290 6.2831853071796004 $109 $291 forward 7 unknown #
vertex $-1 $112 $292 #
ellipse-curve $-1 -56.008232789648893 4.441733944130263 7.2436565687208949 -0.55919291073839883 0 0.82903756765294845 0.41451878382647422 0 0.27959645536919941 1 I I #
coedge $-1 $191 $191 $-1 $293 reversed $115 $-1 #
edge $-1 $294 0 $294 6.2831853071796004 $116 $295 forward 7 unknown #
vertex $-1 $119 $296 #
ellipse-curve $-1 -56.008232789648893 7.6010029788657789 7.2436565687208949 -0.55919291073839883 0 0.82903756765294845 0.41451878382647422 0 0.27959645536919941 1 I I #
face $-1 $-1 $135 $18 $-1 $297 reversed single #
loop $-1 $-1 $211 $120 #
plane-surface $-1 0 33.181452645453732 0 0 -1 0 0 0 -1 forward_v I I I I #
coedge $-1 $298 $209 $212 $299 forward $121 $-1 #
coedge $-1 $215 $123 $124 $203 reversed $75 $-1 #
coedge $-1 $209 $298 $123 $201 reversed $121 $-1 #
edge $-1 $216 -11.660748477360279 $300 11.660748477360279 $200 $301 forward 7 unknown #
coedge $-1 $125 $124 $298 $302 forward $49 $-1 #
edge $-1 $207 -62.556840723899043 $300 62.556840723899043 $199 $303 forward 7 unknown #
coedge $-1 $212 $211 $125 $205 reversed $196 $-1 #
edge $-1 $304 -62.556840723899043 $206 62.556840723899043 $204 $305 forward 7 unknown #
vertex $-1 $127 $306 #
vertex $-1 $218 $307 #
straight-curve $-1 62.556840723899043 0 -11.660748477360279 0 -1 0 I I #
coedge $-1 $198 $200 $128 $210 reversed $121 $-1 #
edge $-1 $213 -33.181452645453732 $216 33.181452645453732 $209 $308 forward 7 unknown #
coedge $-1 $204 $129 $134 $219 forward $196 $-1 #
coedge $-1 $129 $204 $198 $299 reversed $196 $-1 #
vertex $-1 $130 $309 #
straight-curve $-1 0 33.181452645453732 11.660748477360279 -1 0 0 I I #
coedge $-1 $131 $199 $133 $218 reversed $75 $-1 #
vertex $-1 $210 $310 #
straight-curve $-1 0 -33.181452645453732 11.660748477360279 1 0 0 I I #
edge $-1 $136 -11.660748477360279 $207 11.660748477360279 $133 $311 forward 7 unknown #
edge $-1 $137 -11.660748477360279 $206 11.660748477360279 $134 $312 forward 7 unknown #
point $-1 62.556840723899043 -33.181452645453732 11.660748477360279 #
point $-1 62.556840723899043 33.181452645453732 11.660748477360279 #
face $-1 $-1 $313 $19 $-1 $314 reversed single #
loop $-1 $-1 $315 $139 #
plane-surface $-1 0 0 -11.660748477360279 0 0 1 1 0 0 forward_v I I I I #
coedge $-1 $232 $242 $227 $316 forward $140 $-1 #
coedge $-1 $145 $142 $315 $317 reversed $83 $-1 #
coedge $-1 $142 $145 $225 $316 reversed $83 $-1 #
coedge $-1 $318 $319 $142 $229 forward $313 $-1 #
edge $-1 $320 -11.660748477360279 $321 11.660748477360279 $228 $322 forward 7 unknown #
coedge $-1 $315 $148 $143 $231 forward $223 $-1 #
edge $-1 $153 -28.394767525395835 $235 -22.627488800648493 $230 $323 forward 7 unknown #
coedge $-1 $150 $225 $144 $233 forward $140 $-1 #
edge $-1 $234 22.627488800648493 $152 28.394767525395835 $232 $324 forward 7 unknown #
vertex $-1 $233 $325 #
vertex $-1 $231 $326 #
straight-curve $-1 -48.138616963670657 -20.801280079167654 0 0 0 -1 I I #
coedge $-1 $319 $318 $147 $238 forward $313 $-1 #
edge $-1 $243 -11.660748477360279 $240 11.660748477360279 $237 $327 forward 7 unknown #
coedge $-1 $148 $315 $319 $328 forward $223 $-1 #
vertex $-1 $149 $329 #
straight-curve $-1 -53.905895688417999 -13.495683181155346 -11.660748477360279 0 1 0 I I #
coedge $-1 $225 $150 $318 $330 forward $140 $-1 #
vertex $-1 $330 $331 #
straight-curve $-1 -53.905895688417999 -13.495683181155346 11.660748477360279 0 -1 0 I I #
point $-1 -53.905895688417999 -20.801280079167654 11.660748477360279 #
point $-1 -53.905895688417999 -20.801280079167654 -11.660748477360279 #
face $-1 $-1 $260 $20 $-1 $332 reversed single #
loop $-1 $-1 $266 $155 #
plane-surface $-1 0 0 11.660748477360279 0 0 1 1 0 0 forward_v I I I I #
coedge $-1 $164 $333 $251 $334 forward $156 $-1 #
coedge $-1 $335 $158 $250 $334 reversed $91 $-1 #
coedge $-1 $158 $335 $266 $336 reversed $91 $-1 #
edge $-1 $267 -11.660748477360279 $264 11.660748477360279 $158 $337 forward 7 unknown #
coedge $-1 $333 $164 $159 $255 forward $156 $-1 #
edge $-1 $169 7.3055968980123076 $261 19.685769464298385 $254 $338 forward 7 unknown #
coedge $-1 $166 $339 $160 $257 forward $248 $-1 #
edge $-1 $262 -19.685769464298385 $168 -7.3055968980123076 $256 $340 forward 7 unknown #
coedge $-1 $341 $161 $339 $342 reversed $260 $-1 #
coedge $-1 $161 $341 $333 $343 reversed $260 $-1 #
loop $-1 $-1 $341 $247 #
vertex $-1 $343 $344 #
vertex $-1 $162 $345 #
straight-curve $-1 -53.905895688417999 33.181452645453732 0 0 0 1 I I #
vertex $-1 $165 $346 #
straight-curve $-1 -25.511128163022164 20.801280079167654 -11.660748477360279 -1 0 0 I I #
coedge $-1 $339 $166 $252 $336 forward $248 $-1 #
vertex $-1 $167 $347 #
straight-curve $-1 -25.511128163022164 20.801280079167654 11.660748477360279 1 0 0 I I #
point $-1 -53.905895688417999 20.801280079167654 11.660748477360279 #
point $-1 -53.905895688417999 20.801280079167654 -11.660748477360279 #
plane-surface $-1 0 0 11.660748477360279 0 0 1 1 0 0 forward_v I I I I #
coedge $-1 $282 $281 $274 $348 forward $172 $-1 #
coedge $-1 $274 $174 $176 $278 reversed $99 $-1 #
coedge $-1 $174 $273 $272 $348 reversed $99 $-1 #
coedge $-1 $182 $177 $174 $276 forward $183 $-1 #
edge $-1 $279 -16.800137357546276 $349 -3.702921489045977 $275 $350 forward 7 unknown #
coedge $-1 $176 $175 $282 $351 reversed $61 $-1 #
edge $-1 $352 -3.424092098371461e-014 $279 15.798096949429226 $273 $353 forward 7 unknown #
vertex $-1 $178 $354 #
straight-curve $-1 -49.459624855398744 3.0106842307490069 11.660748477360279 0 1 0 I I #
coedge $-1 $272 $179 $182 $286 reversed $172 $-1 #
coedge $-1 $179 $272 $277 $351 forward $172 $-1 #
vertex $-1 $180 $355 #
straight-curve $-1 -62.556840723899043 2.3355545876399155 53.275253403834938 0 0 1 I I #
straight-curve $-1 -62.556840723899015 2.3355545876399155 2.8265646600815302 -0.82903756765294845 0 -0.55919291073839883 I I #
edge $-1 $349 -9.7071823353561122 $184 -2.3355545876399155 $281 $356 forward 7 unknown #
point $-1 -62.556840723899043 2.3355545876399155 11.660748477360279 #
point $-1 -49.459624855398744 2.3355545876399155 11.660748477360279 #
edge $-1 $357 1 $357 0 $187 $-1 forward 7 unknown #
vertex $-1 $188 $358 #
ellipse-curve $-1 -54.947955792936774 4.441733944130263 5.6717313073081934 -0.55919291073839883 0 0.82903756765294845 0.41451878382647422 0 0.27959645536919941 1 I I #
point $-1 -55.59371400582242 4.441733944130263 7.5232530240900948 #
edge $-1 $359 1 $359 0 $191 $-1 forward 7 unknown #
vertex $-1 $192 $360 #
ellipse-curve $-1 -54.947955792936774 7.6010029788657789 5.6717313073081934 -0.55919291073839883 0 0.82903756765294845 0.41451878382647422 0 0.27959645536919941 1 I I #
point $-1 -55.59371400582242 7.6010029788657789 7.5232530240900948 #
plane-surface $-1 62.556840723899043 0 0 -1 0 0 0 0 1 forward_v I I I I #
coedge $-1 $200 $198 $202 $302 reversed $121 $-1 #
edge $-1 $213 -11.660748477360279 $304 11.660748477360279 $212 $361 forward 7 unknown #
vertex $-1 $302 $362 #
straight-curve $-1 -62.556840723899043 -33.181452645453732 0 0 0 -1 I I #
edge $-1 $300 -33.181452645453732 $304 33.181452645453732 $298 $363 forward 7 unknown #
straight-curve $-1 0 -33.181452645453732 -11.660748477360279 -1 0 0 I I #
vertex $-1 $205 $364 #
straight-curve $-1 0 33.181452645453732 -11.660748477360279 1 0 0 I I #
point $-1 62.556840723899043 33.181452645453732 -11.660748477360279 #
point $-1 62.556840723899043 -33.181452645453732 -11.660748477360279 #
straight-curve $-1 -62.556840723899043 0 11.660748477360279 0 -1 0 I I #
point $-1 -62.556840723899043 33.181452645453732 11.660748477360279 #
point $-1 -62.556840723899043 -33.181452645453732 11.660748477360279 #
straight-curve $-1 62.556840723899043 -33.181452645453732 0 0 0 -1 I I #
straight-curve $-1 62.556840723899043 33.181452645453732 0 0 0 -1 I I #
loop $-1 $-1 $228 $222 #
plane-surface $-1 0 -33.181452645453732 0 0 1 0 0 0 1 forward_v I I I I #
coedge $-1 $239 $230 $226 $317 forward $223 $-1 #
edge $-1 $321 -19.685769464298385 $234 -7.3055968980123076 $225 $365 forward 7 unknown #
edge $-1 $235 7.3055968980123076 $320 19.685769464298385 $315 $366 forward 7 unknown #
coedge $-1 $237 $228 $242 $330 reversed $313 $-1 #
coedge $-1 $228 $237 $239 $328 reversed $313 $-1 #
vertex $-1 $328 $367 #
vertex $-1 $229 $368 #
straight-curve $-1 -48.138616963670657 -33.181452645453732 0 0 0 1 I I #
straight-curve $-1 -25.511128163022164 -20.801280079167654 -11.660748477360279 1 0 0 I I #
straight-curve $-1 -25.511128163022164 -20.801280079167654 11.660748477360279 -1 0 0 I I #
point $-1 -48.138616963670657 -20.801280079167654 11.660748477360279 #
point $-1 -48.138616963670657 -20.801280079167654 -11.660748477360279 #
straight-curve $-1 -53.905895688417999 -33.181452645453732 0 0 0 -1 I I #
edge $-1 $320 48.138616963670657 $240 53.905895688417999 $319 $369 forward 7 unknown #
point $-1 -53.905895688417999 -33.181452645453732 -11.660748477360279 #
edge $-1 $243 -53.905895688417999 $321 -48.138616963670657 $318 $370 forward 7 unknown #
point $-1 -53.905895688417999 -33.181452645453732 11.660748477360279 #
plane-surface $-1 0 33.181452645453732 0 0 -1 0 0 0 -1 forward_v I I I I #
coedge $-1 $250 $254 $259 $343 forward $156 $-1 #
edge $-1 $371 -19.685769464298385 $264 -7.3055968980123076 $250 $372 forward 7 unknown #
coedge $-1 $252 $251 $341 $373 reversed $91 $-1 #
edge $-1 $267 7.3055968980123076 $374 19.685769464298385 $266 $375 forward 7 unknown #
straight-curve $-1 -48.138616963670657 20.801280079167654 0 0 0 -1 I I #
straight-curve $-1 -53.905895688417999 13.495683181155346 -11.660748477360279 0 1 0 I I #
coedge $-1 $256 $266 $258 $342 forward $248 $-1 #
straight-curve $-1 -53.905895688417999 13.495683181155346 11.660748477360279 0 -1 0 I I #
coedge $-1 $259 $258 $335 $373 forward $260 $-1 #
edge $-1 $374 48.138616963670657 $262 53.905895688417999 $258 $376 forward 7 unknown #
edge $-1 $261 -53.905895688417999 $371 -48.138616963670657 $259 $377 forward 7 unknown #
point $-1 -53.905895688417999 33.181452645453732 -11.660748477360279 #
point $-1 -53.905895688417999 33.181452645453732 11.660748477360279 #
point $-1 -48.138616963670657 20.801280079167654 -11.660748477360279 #
point $-1 -48.138616963670657 20.801280079167654 11.660748477360279 #
edge $-1 $349 41.614504926474659 $352 50.448688743753429 $272 $378 forward 7 unknown #
vertex $-1 $286 $379 #
straight-curve $-1 -66.25976221294502 9.7071823353561122 11.660748477360279 -1 0 0 I I #
edge $-1 $352 -6.6964981046071053 $283 0.6751296431090914 $282 $380 forward 7 unknown #
vertex $-1 $351 $381 #
straight-curve $-1 -62.556840723899015 9.7071823353561122 2.8265646600815302 0.82903756765294845 0 0.55919291073839883 I I #
point $-1 -49.459624855398744 9.7071823353561122 11.660748477360279 #
point $-1 -62.556840723899043 2.3355545876399155 2.8265646600815111 #
straight-curve $-1 -62.556840723899043 0 11.660748477360279 0 -1 0 I I #
vertex $-1 $289 $382 #
point $-1 -54.533437009110301 4.441733944130263 5.9513277626773924 #
vertex $-1 $293 $383 #
point $-1 -54.533437009110301 7.6010029788657789 5.9513277626773924 #
straight-curve $-1 -62.556840723899043 33.181452645453732 0 0 0 -1 I I #
point $-1 -62.556840723899043 -33.181452645453732 -11.660748477360279 #
straight-curve $-1 -62.556840723899043 0 -11.660748477360279 0 1 0 I I #
point $-1 -62.556840723899043 33.181452645453732 -11.660748477360279 #
straight-curve $-1 -48.138616963670657 -13.495683181155346 11.660748477360279 0 1 0 I I #
straight-curve $-1 -48.138616963670657 -13.495683181155346 -11.660748477360279 0 -1 0 I I #
point $-1 -48.138616963670657 -33.181452645453732 -11.660748477360279 #
point $-1 -48.138616963670657 -33.181452645453732 11.660748477360279 #
straight-curve $-1 0 -33.181452645453732 -11.660748477360279 -1 0 0 I I #
straight-curve $-1 0 -33.181452645453732 11.660748477360279 1 0 0 I I #
vertex $-1 $373 $384 #
straight-curve $-1 -48.138616963670657 13.495683181155346 -11.660748477360279 0 -1 0 I I #
edge $-1 $374 -11.660748477360279 $371 11.660748477360279 $341 $385 forward 7 unknown #
vertex $-1 $342 $386 #
straight-curve $-1 -48.138616963670657 13.495683181155346 11.660748477360279 0 1 0 I I #
straight-curve $-1 0 33.181452645453732 11.660748477360279 -1 0 0 I I #
straight-curve $-1 0 33.181452645453732 -11.660748477360279 1 0 0 I I #
straight-curve $-1 -62.556840723899043 9.7071823353561122 53.275253403834938 0 0 -1 I I #
point $-1 -62.556840723899043 9.7071823353561122 11.660748477360279 #
straight-curve $-1 -62.556840723899043 3.0106842307490069 2.8265646600815093 0 -1 0 I I #
point $-1 -62.556840723899043 9.7071823353561122 2.8265646600815111 #
point $-1 -54.668359337567573 4.441733944130263 5.2572125234817184 #
point $-1 -54.668359337567573 7.6010029788657789 5.2572125234817184 #
point $-1 -48.138616963670657 33.181452645453732 -11.660748477360279 #
straight-curve $-1 -48.138616963670657 33.181452645453732 0 0 0 -1 I I #
point $-1 -48.138616963670657 33.181452645453732 11.660748477360279 #
End-of-ACIS-data 