500 0 9 0           
7 Unknown 11 ACIS 5.0 NT 24 Fri Mar 26 15:52:56 1999 
-1 9.9999999999999995e-007 1e-010 
body $-1 $9 $-1 $10 #
body $-1 $11 $-1 $12 #
body $-1 $13 $-1 $14 #
body $-1 $15 $-1 $16 #
body $-1 $17 $-1 $18 #
body $-1 $19 $-1 $20 #
body $-1 $21 $-1 $22 #
body $-1 $23 $-1 $24 #
body $-1 $25 $-1 $26 #
lump $-1 $-1 $27 $0 #
transform $-1 1 0 0 0 1 0 0 0 1 60.916165654469438 27.156187572286047 11.568169591059307 1 rotate no_reflect no_shear #
lump $-1 $-1 $28 $1 #
transform $-1 1 0 0 0 1 0 0 0 1 60.916165654469438 27.156187572286047 11.568169591059307 1 rotate no_reflect no_shear #
lump $-1 $-1 $29 $2 #
transform $-1 1 0 0 0 1 0 0 0 1 60.916165654469438 27.156187572286047 11.568169591059307 1 rotate no_reflect no_shear #
lump $-1 $-1 $30 $3 #
transform $-1 1 0 0 0 1 0 0 0 1 60.916165654469438 27.156187572286047 11.568169591059307 1 rotate no_reflect no_shear #
lump $-1 $-1 $31 $4 #
transform $-1 1 0 0 0 1 0 0 0 1 60.916165654469438 27.156187572286047 11.568169591059307 1 rotate no_reflect no_shear #
lump $-1 $-1 $32 $5 #
transform $-1 1 0 0 0 1 0 0 0 1 60.916165654469438 27.156187572286047 11.568169591059307 1 rotate no_reflect no_shear #
lump $-1 $-1 $33 $6 #
transform $-1 1 0 0 0 1 0 0 0 1 60.916165654469438 27.156187572286047 11.568169591059307 1 rotate no_reflect no_shear #
lump $-1 $-1 $34 $7 #
transform $-1 1 0 0 0 1 0 0 0 1 60.916165654469438 27.156187572286047 11.568169591059307 1 rotate no_reflect no_shear #
lump $-1 $-1 $35 $8 #
transform $-1 1 0 0 0 1 0 0 0 1 60.916165654469438 27.156187572286047 11.568169591059307 1 rotate no_reflect no_shear #
shell $-1 $-1 $-1 $36 $-1 $9 #
shell $-1 $-1 $-1 $37 $-1 $11 #
shell $-1 $-1 $-1 $38 $-1 $13 #
shell $-1 $-1 $-1 $39 $-1 $15 #
shell $-1 $-1 $-1 $40 $-1 $17 #
shell $-1 $-1 $-1 $41 $-1 $19 #
shell $-1 $-1 $-1 $42 $-1 $21 #
shell $-1 $-1 $-1 $43 $-1 $23 #
shell $-1 $-1 $-1 $44 $-1 $25 #
face $-1 $45 $46 $27 $-1 $47 reversed single #
face $-1 $48 $49 $28 $-1 $50 forward single #
face $-1 $51 $52 $29 $-1 $53 forward single #
face $-1 $54 $55 $30 $-1 $56 reversed single #
face $-1 $57 $58 $31 $-1 $59 forward single #
face $-1 $60 $61 $32 $-1 $62 reversed single #
face $-1 $63 $64 $33 $-1 $65 forward single #
face $-1 $66 $67 $34 $-1 $68 forward single #
face $-1 $69 $70 $35 $-1 $71 forward single #
face $-1 $72 $73 $27 $-1 $74 reversed single #
loop $-1 $-1 $75 $36 #
plane-surface $-1 60.916165654469438 0 0 -1 0 0 0 0 1 forward_v I I I I #
face $-1 $76 $77 $28 $-1 $78 reversed single #
loop $-1 $-1 $79 $37 #
plane-surface $-1 -60.916165654469438 0 0 1 0 0 0 0 -1 forward_v I I I I #
face $-1 $80 $81 $29 $-1 $82 reversed single #
loop $-1 $-1 $83 $38 #
plane-surface $-1 60.916165654469438 0 0 -1 0 0 0 0 1 forward_v I I I I #
face $-1 $84 $85 $30 $-1 $86 reversed single #
loop $-1 $-1 $87 $39 #
plane-surface $-1 -20.797692614451378 -113.30465620814491 89.156883371451045 -1 0 0 0 -0.70710678939079041 0.70710677298230451 forward_v I I I I #
face $-1 $88 $89 $31 $-1 $90 forward single #
loop $-1 $91 $92 $40 #
cone-surface $-1 -36.283786365330158 -21.430979527773722 5.8429614807710806 0 0.70710678939079041 -0.70710677298230451 2 0 0 1 I I 0 1 2 forward I I I I #
face $-1 $93 $94 $32 $-1 $95 reversed single #
loop $-1 $-1 $96 $41 #
plane-surface $-1 -51.769880116208938 70.52408252039946 129.61289644268683 1 0 0 0 -0.68199836817093118 -0.7313536940579346 forward_v I I I I #
face $-1 $97 $98 $33 $-1 $99 forward single #
loop $-1 $100 $101 $42 #
cone-surface $-1 -49.403193827599168 22.47276547874063 7.1531177805599935 0 -0.68199836817093118 -0.7313536940579346 0.5 0 0 1 I I 0 1 0.5 forward I I I I #
face $-1 $102 $103 $34 $-1 $104 forward single #
loop $-1 $105 $106 $43 #
cone-surface $-1 -45.853164394684512 22.47276547874063 7.1531177805599935 0 -0.68199836817093118 -0.7313536940579346 0.5 0 0 1 I I 0 1 0.5 forward I I I I #
face $-1 $107 $108 $35 $-1 $109 forward single #
loop $-1 $110 $111 $44 #
cone-surface $-1 -42.303134961769857 22.47276547874063 7.1531177805599935 0 -0.68199836817093118 -0.7313536940579346 0.5 0 0 1 I I 0 1 0.5 forward I I I I #
face $-1 $112 $113 $27 $-1 $114 forward single #
loop $-1 $-1 $115 $45 #
plane-surface $-1 -60.916165654469438 0 0 1 0 0 0 0 -1 forward_v I I I I #
coedge $-1 $116 $117 $118 $119 reversed $46 $-1 #
face $-1 $120 $121 $28 $-1 $122 reversed single #
loop $-1 $-1 $123 $48 #
plane-surface $-1 0 0 -11.568169591059307 0 0 1 1 0 0 forward_v I I I I #
coedge $-1 $124 $125 $126 $127 forward $49 $-1 #
face $-1 $128 $129 $29 $-1 $130 reversed single #
loop $-1 $-1 $131 $51 #
plane-surface $-1 0 0 -11.568169591059307 0 0 1 1 0 0 forward_v I I I I #
coedge $-1 $132 $133 $134 $135 forward $52 $-1 #
face $-1 $136 $137 $30 $-1 $138 reversed single #
loop $-1 $-1 $139 $54 #
plane-surface $-1 -36.283786365330158 -27.156187572286058 3.0084167346762882 0 -0.70710678939079041 0.70710677298230451 1 0 0 forward_v I I I I #
coedge $-1 $140 $141 $142 $143 reversed $55 $-1 #
face $-1 $-1 $144 $31 $-1 $145 forward single #
loop $-1 $146 $147 $57 #
cone-surface $-1 -36.283786365330158 -19.278541022747152 3.6905230256920696 0 0.70710678939079041 -0.70710677298230451 1 0 0 1 I I -0.70710678118654746 0.70710678118654746 1 forward I I I I #
loop $-1 $-1 $148 $40 #
coedge $-1 $92 $92 $149 $150 reversed $58 $-1 #
face $-1 $151 $152 $32 $-1 $153 reversed single #
loop $-1 $-1 $154 $60 #
plane-surface $-1 -45.853164394684512 -12.565368622757106 40.510370884204221 0 0.68199836817093118 0.7313536940579346 1 0 0 forward_v I I I I #
coedge $-1 $155 $156 $157 $158 reversed $61 $-1 #
face $-1 $-1 $159 $33 $-1 $160 forward single #
loop $-1 $161 $162 $63 #
cone-surface $-1 -49.403193827599168 21.961266702612431 6.6046025100165426 0 -0.68199836817093118 -0.7313536940579346 0.25 0 0 1 I I -0.70710678118654746 0.70710678118654746 0.25 forward I I I I #
loop $-1 $-1 $163 $42 #
coedge $-1 $101 $101 $164 $165 reversed $64 $-1 #
face $-1 $-1 $166 $34 $-1 $167 forward single #
loop $-1 $168 $169 $66 #
cone-surface $-1 -45.853164394684512 21.961266702612431 6.6046025100165426 0 -0.68199836817093118 -0.7313536940579346 0.25 0 0 1 I I -0.70710678118654746 0.70710678118654746 0.25 forward I I I I #
loop $-1 $-1 $170 $43 #
coedge $-1 $106 $106 $171 $172 reversed $67 $-1 #
face $-1 $-1 $173 $35 $-1 $174 forward single #
loop $-1 $175 $176 $69 #
cone-surface $-1 -42.303134961769857 21.961266702612431 6.6046025100165426 0 -0.68199836817093118 -0.7313536940579346 0.25 0 0 1 I I -0.70710678118654746 0.70710678118654746 0.25 forward I I I I #
loop $-1 $-1 $177 $44 #
coedge $-1 $111 $111 $178 $179 reversed $70 $-1 #
face $-1 $180 $181 $27 $-1 $182 reversed single #
loop $-1 $-1 $183 $72 #
plane-surface $-1 0 0 11.568169591059307 0 0 1 1 0 0 forward_v I I I I #
coedge $-1 $184 $185 $186 $187 reversed $73 $-1 #
coedge $-1 $188 $75 $189 $190 reversed $46 $-1 #
coedge $-1 $75 $188 $191 $192 forward $46 $-1 #
coedge $-1 $193 $194 $75 $119 forward $181 $-1 #
edge $-1 $195 -27.156187572286047 $196 27.156187572286047 $75 $197 forward 7 unknown #
face $-1 $198 $199 $28 $-1 $200 reversed single #
loop $-1 $-1 $201 $76 #
plane-surface $-1 -65.489308423599681 -22.78772508493164 0 0 1 0 0 0 1 forward_v I I I I #
coedge $-1 $202 $203 $125 $204 forward $77 $-1 #
coedge $-1 $205 $79 $206 $207 reversed $49 $-1 #
coedge $-1 $79 $205 $123 $204 reversed $49 $-1 #
coedge $-1 $208 $209 $79 $127 reversed $210 $-1 #
edge $-1 $211 -11.568169591059307 $212 11.568169591059307 $126 $213 forward 7 unknown #
face $-1 $214 $215 $29 $-1 $216 reversed single #
loop $-1 $-1 $134 $80 #
plane-surface $-1 65.489308423599681 -22.78772508493164 0 0 1 0 0 0 1 forward_v I I I I #
coedge $-1 $217 $218 $133 $219 forward $81 $-1 #
coedge $-1 $220 $83 $221 $222 reversed $52 $-1 #
coedge $-1 $83 $220 $131 $219 reversed $52 $-1 #
coedge $-1 $223 $224 $83 $135 reversed $129 $-1 #
edge $-1 $225 -11.568169591059307 $226 11.568169591059307 $134 $227 forward 7 unknown #
face $-1 $228 $229 $30 $-1 $230 forward single #
loop $-1 $-1 $231 $84 #
plane-surface $-1 -51.769880116208938 -113.30465620814491 89.156883371451045 1 0 0 0 0.70710678939079041 -0.70710677298230451 forward_v I I I I #
coedge $-1 $232 $233 $234 $235 reversed $85 $-1 #
coedge $-1 $141 $87 $236 $237 reversed $55 $-1 #
coedge $-1 $87 $140 $232 $238 reversed $55 $-1 #
coedge $-1 $234 $239 $87 $143 forward $229 $-1 #
edge $-1 $240 29.496140531786406 $241 38.055893189539468 $142 $242 forward 7 unknown #
loop $-1 $-1 $149 $88 #
plane-surface $-1 -36.283786365330158 -27.156187572286058 3.0084167346762882 0 -0.70710678939079041 0.70710677298230451 1 0 0 forward_v I I I I #
loop $-1 $-1 $243 $57 #
coedge $-1 $147 $147 $148 $244 reversed $89 $-1 #
coedge $-1 $148 $148 $147 $244 forward $91 $-1 #
coedge $-1 $149 $149 $92 $150 forward $144 $-1 #
edge $-1 $245 9.4205534040388083e-016 $245 6.2831853071796013 $149 $246 forward 7 unknown #
face $-1 $247 $248 $32 $-1 $249 reversed single #
loop $-1 $-1 $250 $93 #
plane-surface $-1 -39.936448673160086 70.52408252039946 129.61289644268683 -1 0 0 0 0.68199836817093118 0.7313536940579346 forward_v I I I I #
coedge $-1 $251 $252 $253 $254 reversed $94 $-1 #
coedge $-1 $156 $96 $255 $256 reversed $61 $-1 #
coedge $-1 $96 $155 $251 $257 reversed $61 $-1 #
coedge $-1 $253 $258 $96 $158 forward $259 $-1 #
edge $-1 $260 8.1058536879136831 $261 16.79069950683359 $157 $262 forward 7 unknown #
loop $-1 $-1 $164 $97 #
plane-surface $-1 -45.853164394684512 -12.565368622757106 40.510370884204221 0 0.68199836817093118 0.7313536940579346 1 0 0 forward_v I I I I #
loop $-1 $-1 $263 $63 #
coedge $-1 $162 $162 $163 $264 reversed $98 $-1 #
coedge $-1 $163 $163 $162 $264 forward $100 $-1 #
coedge $-1 $164 $164 $101 $165 forward $159 $-1 #
edge $-1 $265 1.5621631485610709e-015 $265 6.2831853071796022 $164 $266 forward 7 unknown #
loop $-1 $-1 $171 $102 #
plane-surface $-1 -45.853164394684512 -12.565368622757106 40.510370884204221 0 0.68199836817093118 0.7313536940579346 1 0 0 forward_v I I I I #
loop $-1 $-1 $267 $66 #
coedge $-1 $169 $169 $170 $268 reversed $103 $-1 #
coedge $-1 $170 $170 $169 $268 forward $105 $-1 #
coedge $-1 $171 $171 $106 $172 forward $166 $-1 #
edge $-1 $269 1.5621631485610709e-015 $269 6.2831853071796022 $171 $270 forward 7 unknown #
loop $-1 $-1 $178 $107 #
plane-surface $-1 -45.853164394684512 -12.565368622757106 40.510370884204221 0 0.68199836817093118 0.7313536940579346 1 0 0 forward_v I I I I #
loop $-1 $-1 $271 $69 #
coedge $-1 $176 $176 $177 $272 reversed $108 $-1 #
coedge $-1 $177 $177 $176 $272 forward $110 $-1 #
coedge $-1 $178 $178 $111 $179 forward $173 $-1 #
edge $-1 $273 1.5621631485610709e-015 $273 6.2831853071796022 $178 $274 forward 7 unknown #
face $-1 $275 $276 $27 $-1 $277 reversed single #
loop $-1 $-1 $118 $112 #
plane-surface $-1 0 0 -11.568169591059307 0 0 1 1 0 0 forward_v I I I I #
coedge $-1 $278 $279 $188 $280 forward $113 $-1 #
coedge $-1 $281 $115 $282 $283 reversed $73 $-1 #
coedge $-1 $115 $281 $284 $285 forward $73 $-1 #
coedge $-1 $194 $193 $115 $187 forward $181 $-1 #
edge $-1 $286 -27.156187572286047 $287 27.156187572286047 $115 $288 forward 7 unknown #
coedge $-1 $117 $116 $183 $280 reversed $46 $-1 #
coedge $-1 $289 $290 $116 $190 forward $291 $-1 #
edge $-1 $292 -11.568169591059307 $195 11.568169591059307 $116 $293 forward 7 unknown #
coedge $-1 $294 $295 $117 $192 reversed $276 $-1 #
edge $-1 $296 -11.568169591059307 $196 11.568169591059307 $117 $297 forward 7 unknown #
coedge $-1 $186 $118 $295 $298 forward $181 $-1 #
coedge $-1 $118 $186 $289 $299 forward $181 $-1 #
vertex $-1 $119 $300 #
vertex $-1 $192 $301 #
straight-curve $-1 60.916165654469438 0 -11.568169591059307 0 -1 0 I I #
face $-1 $302 $210 $28 $-1 $303 reversed single #
loop $-1 $-1 $304 $120 #
plane-surface $-1 -70.062451192729924 -19.842532019362803 0 1 0 0 0 0 -1 forward_v I I I I #
coedge $-1 $305 $306 $307 $308 forward $121 $-1 #
coedge $-1 $309 $123 $305 $310 forward $77 $-1 #
coedge $-1 $123 $309 $208 $311 forward $77 $-1 #
edge $-1 $211 16.897338953793966 $312 22.78772508493164 $123 $313 forward 7 unknown #
coedge $-1 $125 $124 $314 $315 forward $49 $-1 #
coedge $-1 $316 $317 $124 $207 forward $318 $-1 #
edge $-1 $319 -22.78772508493164 $212 -16.897338953793966 $206 $320 forward 7 unknown #
coedge $-1 $321 $126 $203 $311 reversed $210 $-1 #
coedge $-1 $126 $321 $316 $322 reversed $210 $-1 #
loop $-1 $-1 $126 $198 #
vertex $-1 $204 $323 #
vertex $-1 $322 $324 #
straight-curve $-1 -60.916165654469438 -16.897338953793966 0 0 0 1 I I #
face $-1 $325 $326 $29 $-1 $327 reversed single #
loop $-1 $-1 $328 $128 #
plane-surface $-1 65.489308423599681 -16.897338953793966 0 0 -1 0 0 0 -1 forward_v I I I I #
coedge $-1 $329 $131 $330 $331 forward $81 $-1 #
coedge $-1 $131 $329 $223 $332 forward $81 $-1 #
edge $-1 $225 -22.78772508493164 $333 -16.897338953793966 $131 $334 forward 7 unknown #
coedge $-1 $133 $132 $335 $336 forward $52 $-1 #
coedge $-1 $337 $338 $132 $222 forward $339 $-1 #
edge $-1 $340 16.897338953793966 $226 22.78772508493164 $221 $341 forward 7 unknown #
coedge $-1 $342 $134 $218 $332 reversed $129 $-1 #
coedge $-1 $134 $342 $337 $343 reversed $129 $-1 #
vertex $-1 $219 $344 #
vertex $-1 $343 $345 #
straight-curve $-1 60.916165654469438 -22.78772508493164 0 0 0 1 I I #
face $-1 $-1 $346 $30 $-1 $347 reversed single #
loop $-1 $-1 $142 $136 #
plane-surface $-1 0 0 11.568169591059307 0 0 1 1 0 0 forward_v I I I I #
coedge $-1 $348 $349 $350 $351 reversed $137 $-1 #
coedge $-1 $352 $139 $141 $238 forward $85 $-1 #
coedge $-1 $139 $352 $348 $353 forward $85 $-1 #
coedge $-1 $350 $142 $139 $235 forward $229 $-1 #
edge $-1 $241 2.6557994317862992 $354 33.627986933543859 $234 $355 forward 7 unknown #
coedge $-1 $356 $357 $140 $237 forward $346 $-1 #
edge $-1 $358 -41.57002495104922 $240 -33.010272094666213 $236 $359 forward 7 unknown #
edge $-1 $241 -12.105318439606128 $358 -1.5072887603364246e-014 $141 $360 forward 7 unknown #
coedge $-1 $142 $350 $356 $361 forward $229 $-1 #
vertex $-1 $143 $362 #
vertex $-1 $143 $363 #
straight-curve $-1 -20.797692614451378 -56.652328104072453 11.568169591059309 0 1 0 I I #
coedge $-1 $243 $243 $-1 $364 reversed $146 $-1 #
edge $-1 $365 0 $365 6.2831853071796004 $147 $366 forward 7 unknown #
vertex $-1 $150 $367 #
ellipse-curve $-1 -36.283786365330158 -22.876311243409518 7.2882931628678032 0 -0.70710678939079041 0.70710677298230451 2 0 0 1 I I #
face $-1 $-1 $259 $32 $-1 $368 forward single #
loop $-1 $-1 $369 $151 #
plane-surface $-1 0 27.156187572286047 0 0 -1 0 0 0 -1 forward_v I I I I #
coedge $-1 $370 $371 $372 $373 reversed $152 $-1 #
coedge $-1 $374 $154 $156 $257 forward $94 $-1 #
coedge $-1 $154 $374 $370 $375 forward $94 $-1 #
coedge $-1 $372 $157 $154 $254 forward $259 $-1 #
edge $-1 $261 -28.843297918866682 $376 -17.00986647581783 $253 $377 forward 7 unknown #
coedge $-1 $378 $379 $155 $256 forward $248 $-1 #
edge $-1 $380 -61.337028557224805 $260 -53.238278630284107 $255 $381 forward 7 unknown #
edge $-1 $261 42.437346838183409 $380 54.312375144572087 $156 $382 forward 7 unknown #
coedge $-1 $157 $372 $378 $383 forward $259 $-1 #
loop $-1 $-1 $372 $247 #
vertex $-1 $256 $384 #
vertex $-1 $158 $385 #
straight-curve $-1 -51.769880116208938 35.26204126019973 11.568169591059309 0 -1 0 I I #
coedge $-1 $263 $263 $-1 $386 reversed $161 $-1 #
edge $-1 $387 0 $387 6.2831853071796004 $162 $388 forward 7 unknown #
vertex $-1 $165 $389 #
ellipse-curve $-1 -49.403193827599168 22.813764662826092 7.5187946275889583 0 0.68199836817093118 0.7313536940579346 0.5 0 0 1 I I #
coedge $-1 $267 $267 $-1 $390 reversed $168 $-1 #
edge $-1 $391 0 $391 6.2831853071796004 $169 $392 forward 7 unknown #
vertex $-1 $172 $393 #
ellipse-curve $-1 -45.853164394684512 22.813764662826092 7.5187946275889583 0 0.68199836817093118 0.7313536940579346 0.5 0 0 1 I I #
coedge $-1 $271 $271 $-1 $394 reversed $175 $-1 #
edge $-1 $395 0 $395 6.2831853071796004 $176 $396 forward 7 unknown #
vertex $-1 $179 $397 #
ellipse-curve $-1 -42.303134961769857 22.813764662826092 7.5187946275889583 0 0.68199836817093118 0.7313536940579346 0.5 0 0 1 I I #
face $-1 $-1 $291 $27 $-1 $398 reversed single #
loop $-1 $-1 $282 $180 #
plane-surface $-1 0 -27.156187572286047 0 0 1 0 0 0 1 forward_v I I I I #
coedge $-1 $399 $183 $290 $400 forward $113 $-1 #
coedge $-1 $183 $399 $294 $401 forward $113 $-1 #
edge $-1 $296 -27.156187572286047 $292 27.156187572286047 $188 $402 forward 7 unknown #
coedge $-1 $185 $184 $399 $403 reversed $73 $-1 #
coedge $-1 $295 $294 $184 $283 forward $276 $-1 #
edge $-1 $404 -11.568169591059307 $286 11.568169591059307 $184 $405 forward 7 unknown #
coedge $-1 $290 $289 $185 $285 reversed $291 $-1 #
edge $-1 $406 -11.568169591059307 $287 11.568169591059307 $284 $407 forward 7 unknown #
vertex $-1 $187 $408 #
vertex $-1 $299 $409 #
straight-curve $-1 -60.916165654469438 0 -11.568169591059307 0 1 0 I I #
coedge $-1 $284 $189 $194 $299 reversed $291 $-1 #
coedge $-1 $189 $284 $278 $400 reversed $291 $-1 #
loop $-1 $-1 $189 $275 #
vertex $-1 $280 $410 #
straight-curve $-1 60.916165654469438 27.156187572286047 0 0 0 -1 I I #
coedge $-1 $282 $191 $279 $401 reversed $276 $-1 #
coedge $-1 $191 $282 $193 $298 reversed $276 $-1 #
vertex $-1 $280 $411 #
straight-curve $-1 60.916165654469438 -27.156187572286047 0 0 0 -1 I I #
edge $-1 $196 -60.916165654469438 $286 60.916165654469438 $295 $412 forward 7 unknown #
edge $-1 $287 -60.916165654469438 $195 60.916165654469438 $289 $413 forward 7 unknown #
point $-1 60.916165654469438 27.156187572286047 -11.568169591059307 #
point $-1 60.916165654469438 -27.156187572286047 -11.568169591059307 #
face $-1 $-1 $318 $28 $-1 $414 forward single #
plane-surface $-1 -65.489308423599681 -16.897338953793966 0 0 -1 0 0 0 -1 forward_v I I I I #
coedge $-1 $415 $416 $321 $417 forward $199 $-1 #
coedge $-1 $314 $201 $202 $310 reversed $121 $-1 #
coedge $-1 $201 $314 $317 $418 reversed $121 $-1 #
coedge $-1 $416 $415 $201 $308 reversed $199 $-1 #
edge $-1 $419 -11.568169591059307 $420 11.568169591059307 $307 $421 forward 7 unknown #
coedge $-1 $203 $202 $415 $422 forward $77 $-1 #
edge $-1 $312 -4.57314276913025 $420 4.5731427691302429 $305 $423 forward 7 unknown #
edge $-1 $424 -4.5731427691302429 $211 4.57314276913025 $208 $425 forward 7 unknown #
vertex $-1 $310 $426 #
straight-curve $-1 -60.916165654469438 0 -11.568169591059307 0 -1 0 I I #
coedge $-1 $306 $305 $205 $315 reversed $121 $-1 #
edge $-1 $319 -11.568169591059307 $312 11.568169591059307 $314 $427 forward 7 unknown #
coedge $-1 $428 $206 $209 $322 forward $318 $-1 #
coedge $-1 $206 $428 $306 $418 forward $318 $-1 #
loop $-1 $-1 $206 $302 #
vertex $-1 $207 $429 #
straight-curve $-1 -60.916165654469438 0 11.568169591059307 0 1 0 I I #
coedge $-1 $209 $208 $304 $417 reversed $210 $-1 #
edge $-1 $212 -4.57314276913025 $430 4.5731427691302429 $209 $431 forward 7 unknown #
point $-1 -60.916165654469431 -16.897338953793966 -11.568169591059307 #
point $-1 -60.916165654469431 -16.897338953793966 11.568169591059307 #
face $-1 $-1 $339 $29 $-1 $432 forward single #
loop $-1 $-1 $433 $214 #
plane-surface $-1 70.062451192729924 -19.842532019362803 0 -1 0 0 0 0 1 forward_v I I I I #
coedge $-1 $330 $434 $435 $436 forward $215 $-1 #
coedge $-1 $218 $217 $437 $438 forward $81 $-1 #
coedge $-1 $335 $328 $217 $331 reversed $215 $-1 #
edge $-1 $333 -4.5731427691302429 $439 4.5731427691302429 $330 $440 forward 7 unknown #
edge $-1 $441 -4.5731427691302429 $225 4.5731427691302429 $223 $442 forward 7 unknown #
vertex $-1 $331 $443 #
straight-curve $-1 60.916165654469438 0 -11.568169591059307 0 1 0 I I #
coedge $-1 $434 $330 $220 $336 reversed $215 $-1 #
edge $-1 $340 -11.568169591059307 $333 11.568169591059307 $335 $444 forward 7 unknown #
coedge $-1 $445 $221 $224 $343 forward $339 $-1 #
coedge $-1 $221 $445 $434 $446 forward $339 $-1 #
loop $-1 $-1 $221 $325 #
vertex $-1 $222 $447 #
straight-curve $-1 60.916165654469438 0 11.568169591059307 0 -1 0 I I #
coedge $-1 $224 $223 $433 $448 reversed $129 $-1 #
edge $-1 $226 -4.5731427691302429 $449 4.5731427691302429 $224 $450 forward 7 unknown #
point $-1 60.916165654469438 -22.78772508493164 -11.568169591059307 #
point $-1 60.916165654469438 -22.78772508493164 11.568169591059307 #
loop $-1 $-1 $236 $228 #
plane-surface $-1 0 -27.156187572286047 0 0 1 0 0 0 1 forward_v I I I I #
coedge $-1 $349 $231 $233 $353 reversed $137 $-1 #
coedge $-1 $231 $348 $451 $452 reversed $137 $-1 #
coedge $-1 $239 $234 $231 $351 forward $229 $-1 #
edge $-1 $354 -38.055893189539468 $453 -29.496140531786406 $350 $454 forward 7 unknown #
coedge $-1 $233 $232 $357 $455 reversed $85 $-1 #
edge $-1 $456 1.5072887603364246e-014 $354 12.105318439606128 $348 $457 forward 7 unknown #
vertex $-1 $235 $458 #
straight-curve $-1 -18.141893182665079 -18.596434914532985 11.568169591059307 -1 0 0 I I #
coedge $-1 $451 $236 $239 $361 reversed $346 $-1 #
coedge $-1 $236 $451 $352 $455 forward $346 $-1 #
vertex $-1 $237 $459 #
straight-curve $-1 -20.797692614451378 -27.156187572286044 44.578441685725522 0 0 1 I I #
straight-curve $-1 -20.797692614451378 -27.156187572286058 3.0084167346762882 0 -0.70710677298230451 -0.70710678939079041 I I #
edge $-1 $453 -51.769880116208938 $240 -20.797692614451378 $356 $460 forward 7 unknown #
point $-1 -20.797692614451378 -27.156187572286047 11.568169591059307 #
point $-1 -20.797692614451378 -18.596434914532985 11.568169591059307 #
edge $-1 $461 1 $461 0 $243 $-1 forward 7 unknown #
vertex $-1 $244 $462 #
ellipse-curve $-1 -36.283786365330158 -19.985647812137941 4.397629798674374 0 -0.70710678939079041 0.70710677298230451 2 0 0 1 I I #
point $-1 -34.283786365330158 -22.8763112434095 7.2882931628677881 #
plane-surface $-1 0 0 11.568169591059307 0 0 1 1 0 0 forward_v I I I I #
coedge $-1 $379 $378 $371 $463 forward $248 $-1 #
coedge $-1 $371 $250 $252 $375 reversed $152 $-1 #
coedge $-1 $250 $370 $369 $463 reversed $152 $-1 #
coedge $-1 $258 $253 $250 $373 forward $259 $-1 #
edge $-1 $376 -16.79069950683359 $464 -8.1058536879136831 $372 $465 forward 7 unknown #
coedge $-1 $252 $251 $379 $466 reversed $94 $-1 #
edge $-1 $467 -54.312375144572087 $376 -42.437346838183409 $370 $468 forward 7 unknown #
vertex $-1 $254 $469 #
straight-curve $-1 -22.926582197342256 18.47134175336614 11.568169591059313 1 0 0 I I #
coedge $-1 $369 $255 $258 $383 reversed $248 $-1 #
coedge $-1 $255 $369 $374 $466 forward $248 $-1 #
vertex $-1 $256 $470 #
straight-curve $-1 -51.769880116208938 27.156187572286047 64.806448221343416 0 0 1 I I #
straight-curve $-1 -51.769880116208938 -12.565368622757106 40.510370884204221 0 0.7313536940579346 -0.68199836817093118 I I #
edge $-1 $464 39.936448673160086 $260 51.769880116208938 $378 $471 forward 7 unknown #
point $-1 -51.769880116208938 27.156187572286047 11.568169591059307 #
point $-1 -51.769880116208938 18.47134175336614 11.568169591059309 #
edge $-1 $472 1 $472 0 $263 $-1 forward 7 unknown #
vertex $-1 $264 $473 #
ellipse-curve $-1 -49.403193827599168 22.131766294655165 6.787440933531026 0 0.68199836817093118 0.7313536940579346 0.5 0 0 1 I I #
point $-1 -48.903193827599168 22.813764662826095 7.518794627588961 #
edge $-1 $474 1 $474 0 $267 $-1 forward 7 unknown #
vertex $-1 $268 $475 #
ellipse-curve $-1 -45.853164394684512 22.131766294655165 6.787440933531026 0 0.68199836817093118 0.7313536940579346 0.5 0 0 1 I I #
point $-1 -45.353164394684512 22.813764662826095 7.518794627588961 #
edge $-1 $476 1 $476 0 $271 $-1 forward 7 unknown #
vertex $-1 $272 $477 #
ellipse-curve $-1 -42.303134961769857 22.131766294655165 6.787440933531026 0 0.68199836817093118 0.7313536940579346 0.5 0 0 1 I I #
point $-1 -41.803134961769857 22.813764662826095 7.518794627588961 #
plane-surface $-1 0 27.156187572286047 0 0 -1 0 0 0 -1 forward_v I I I I #
coedge $-1 $279 $278 $281 $403 forward $113 $-1 #
edge $-1 $292 -60.916165654469438 $406 60.916165654469438 $290 $478 forward 7 unknown #
edge $-1 $404 -60.916165654469438 $296 60.916165654469438 $294 $479 forward 7 unknown #
straight-curve $-1 60.916165654469438 0 11.568169591059307 0 1 0 I I #
edge $-1 $406 -27.156187572286047 $404 27.156187572286047 $281 $480 forward 7 unknown #
vertex $-1 $403 $481 #
straight-curve $-1 -60.916165654469438 -27.156187572286047 0 0 0 -1 I I #
vertex $-1 $400 $482 #
straight-curve $-1 -60.916165654469438 27.156187572286047 0 0 0 -1 I I #
point $-1 -60.916165654469438 -27.156187572286047 -11.568169591059307 #
point $-1 -60.916165654469438 27.156187572286047 -11.568169591059307 #
point $-1 60.916165654469438 27.156187572286047 11.568169591059307 #
point $-1 60.916165654469438 -27.156187572286047 11.568169591059307 #
straight-curve $-1 0 -27.156187572286047 -11.568169591059307 -1 0 0 I I #
straight-curve $-1 0 27.156187572286047 -11.568169591059307 1 0 0 I I #
plane-surface $-1 0 0 11.568169591059307 0 0 1 1 0 0 forward_v I I I I #
coedge $-1 $307 $304 $309 $422 reversed $199 $-1 #
coedge $-1 $304 $307 $428 $483 reversed $199 $-1 #
edge $-1 $430 -11.568169591059307 $424 11.568169591059307 $321 $484 forward 7 unknown #
edge $-1 $419 -4.5731427691302429 $319 4.57314276913025 $306 $485 forward 7 unknown #
vertex $-1 $483 $486 #
vertex $-1 $422 $487 #
straight-curve $-1 -70.062451192729924 -22.78772508493164 0 0 0 -1 I I #
edge $-1 $420 -2.9451930655688372 $424 2.9451930655688372 $415 $488 forward 7 unknown #
straight-curve $-1 -65.489308423599681 -22.78772508493164 -11.568169591059307 -1 0 0 I I #
vertex $-1 $311 $489 #
straight-curve $-1 -65.489308423599681 -16.897338953793966 -11.568169591059307 1 0 0 I I #
point $-1 -60.916165654469431 -22.78772508493164 -11.568169591059307 #
straight-curve $-1 -60.916165654469438 -22.78772508493164 0 0 0 -1 I I #
coedge $-1 $317 $316 $416 $483 forward $318 $-1 #
point $-1 -60.916165654469431 -22.78772508493164 11.568169591059307 #
vertex $-1 $322 $490 #
straight-curve $-1 -65.489308423599681 -16.897338953793966 11.568169591059307 -1 0 0 I I #
plane-surface $-1 0 0 11.568169591059307 0 0 1 1 0 0 forward_v I I I I #
coedge $-1 $437 $491 $342 $448 forward $326 $-1 #
coedge $-1 $328 $335 $338 $446 reversed $215 $-1 #
coedge $-1 $491 $437 $328 $436 reversed $326 $-1 #
edge $-1 $492 -11.568169591059307 $439 11.568169591059307 $435 $493 forward 7 unknown #
coedge $-1 $435 $433 $329 $438 reversed $326 $-1 #
edge $-1 $439 -2.9451930655688372 $441 2.9451930655688372 $437 $494 forward 7 unknown #
vertex $-1 $438 $495 #
straight-curve $-1 65.489308423599681 -16.897338953793966 -11.568169591059307 1 0 0 I I #
vertex $-1 $448 $496 #
straight-curve $-1 65.489308423599681 -22.78772508493164 -11.568169591059307 -1 0 0 I I #
point $-1 60.916165654469438 -16.897338953793966 -11.568169591059307 #
straight-curve $-1 60.916165654469438 -16.897338953793966 0 0 0 -1 I I #
coedge $-1 $338 $337 $491 $497 forward $339 $-1 #
edge $-1 $492 -4.5731427691302429 $340 4.5731427691302429 $434 $498 forward 7 unknown #
point $-1 60.916165654469438 -16.897338953793966 11.568169591059307 #
edge $-1 $449 -11.568169591059307 $441 11.568169591059307 $433 $499 forward 7 unknown #
vertex $-1 $497 $500 #
straight-curve $-1 65.489308423599681 -22.78772508493164 11.568169591059307 1 0 0 I I #
coedge $-1 $357 $356 $349 $452 forward $346 $-1 #
edge $-1 $453 33.010272094666213 $456 41.57002495104922 $451 $501 forward 7 unknown #
vertex $-1 $361 $502 #
straight-curve $-1 -51.769880116208938 -56.652328104072453 11.568169591059309 0 -1 0 I I #
edge $-1 $456 -33.627986933543859 $358 -2.6557994317862992 $357 $503 forward 7 unknown #
vertex $-1 $455 $504 #
straight-curve $-1 -51.769880116208938 -27.156187572286058 3.0084167346762882 0 0.70710677298230451 0.70710678939079041 I I #
point $-1 -51.769880116208938 -18.596434914532985 11.568169591059307 #
point $-1 -20.797692614451378 -27.156187572286047 3.0084167346762989 #
straight-curve $-1 0 -27.156187572286047 11.568169591059307 1 0 0 I I #
vertex $-1 $364 $505 #
point $-1 -34.283786365330158 -19.985647812137941 4.397629798674374 #
edge $-1 $464 53.238278630284107 $467 61.337028557224805 $369 $506 forward 7 unknown #
vertex $-1 $383 $507 #
straight-curve $-1 -39.936448673160086 35.26204126019973 11.568169591059309 0 1 0 I I #
edge $-1 $467 17.00986647581783 $380 28.843297918866682 $379 $508 forward 7 unknown #
vertex $-1 $466 $509 #
straight-curve $-1 -39.936448673160086 -12.565368622757106 40.510370884204221 0 -0.7313536940579346 0.68199836817093118 I I #
point $-1 -39.936448673160086 18.47134175336614 11.568169591059309 #
point $-1 -51.769880116208938 27.156187572286044 3.469419664118611 #
straight-curve $-1 0 27.156187572286047 11.568169591059307 -1 0 0 I I #
vertex $-1 $386 $510 #
point $-1 -48.903193827599168 22.131766294655165 6.787440933531026 #
vertex $-1 $390 $511 #
point $-1 -45.353164394684512 22.131766294655165 6.787440933531026 #
vertex $-1 $394 $512 #
point $-1 -41.803134961769857 22.131766294655165 6.787440933531026 #
straight-curve $-1 0 27.156187572286047 11.568169591059307 -1 0 0 I I #
straight-curve $-1 0 -27.156187572286047 11.568169591059307 1 0 0 I I #
straight-curve $-1 -60.916165654469438 0 11.568169591059307 0 -1 0 I I #
point $-1 -60.916165654469438 -27.156187572286047 11.568169591059307 #
point $-1 -60.916165654469438 27.156187572286047 11.568169591059307 #
edge $-1 $430 -2.9451930655688372 $419 2.9451930655688372 $416 $513 forward 7 unknown #
straight-curve $-1 -70.062451192729924 -16.897338953793966 0 0 0 -1 I I #
straight-curve $-1 -65.489308423599681 -22.78772508493164 11.568169591059307 1 0 0 I I #
point $-1 -70.062451192729924 -22.78772508493164 11.568169591059307 #
point $-1 -70.062451192729924 -22.78772508493164 -11.568169591059307 #
straight-curve $-1 -70.062451192729924 -19.842532019362803 -11.568169591059307 0 1 0 I I #
point $-1 -70.062451192729924 -16.897338953793966 -11.568169591059307 #
point $-1 -70.062451192729924 -16.897338953793966 11.568169591059307 #
coedge $-1 $433 $435 $445 $497 reversed $326 $-1 #
vertex $-1 $497 $514 #
straight-curve $-1 70.062451192729924 -16.897338953793966 0 0 0 -1 I I #
straight-curve $-1 70.062451192729924 -19.842532019362803 -11.568169591059307 0 -1 0 I I #
point $-1 70.062451192729924 -16.897338953793966 -11.568169591059307 #
point $-1 70.062451192729924 -22.78772508493164 -11.568169591059307 #
edge $-1 $449 -2.9451930655688372 $492 2.9451930655688372 $491 $515 forward 7 unknown #
straight-curve $-1 65.489308423599681 -16.897338953793966 11.568169591059307 -1 0 0 I I #
straight-curve $-1 70.062451192729924 -22.78772508493164 0 0 0 -1 I I #
point $-1 70.062451192729924 -22.78772508493164 11.568169591059307 #
straight-curve $-1 -51.769880116208938 -27.156187572286044 44.578441685725522 0 0 -1 I I #
point $-1 -51.769880116208938 -27.156187572286047 11.568169591059307 #
straight-curve $-1 -18.141893182665079 -27.156187572286047 3.008416734676298 1 0 0 I I #
point $-1 -51.769880116208938 -27.156187572286047 3.0084167346762989 #
point $-1 -36.283786365330158 -18.571434233356364 2.9834162527097652 #
straight-curve $-1 -39.936448673160086 27.156187572286047 64.806448221343416 0 0 -1 I I #
point $-1 -39.936448673160086 27.156187572286047 11.568169591059307 #
straight-curve $-1 -22.926582197342256 27.156187572286047 3.4694196641186075 -1 0 0 I I #
point $-1 -39.936448673160086 27.156187572286044 3.469419664118611 #
point $-1 -49.403193827599168 21.790767110569696 6.4217640865020593 #
point $-1 -45.853164394684512 21.790767110569696 6.4217640865020593 #
point $-1 -42.303134961769857 21.790767110569696 6.4217640865020593 #
straight-curve $-1 -70.062451192729924 -19.842532019362803 11.568169591059307 0 -1 0 I I #
point $-1 70.062451192729924 -16.897338953793966 11.568169591059307 #
straight-curve $-1 70.062451192729924 -19.842532019362803 11.568169591059307 0 1 0 I I #
End-of-ACIS-data 