500 0 6 0           
7 Unknown 11 ACIS 5.0 NT 24 Fri Mar 26 20:46:12 1999 
-1 9.9999999999999995e-007 1e-010 
body $-1 $6 $-1 $7 #
body $-1 $8 $-1 $9 #
body $-1 $10 $-1 $11 #
body $-1 $12 $-1 $13 #
body $-1 $14 $-1 $15 #
body $-1 $16 $-1 $17 #
lump $-1 $-1 $18 $0 #
transform $-1 1 0 0 0 1 0 0 0 1 74.764244514297928 35.563156354661757 16.131435566727902 1 rotate no_reflect no_shear #
lump $-1 $-1 $19 $1 #
transform $-1 1 0 0 0 1 0 0 0 1 74.764244514297928 35.563156354661757 16.131435566727902 1 rotate no_reflect no_shear #
lump $-1 $-1 $20 $2 #
transform $-1 1 0 0 0 1 0 0 0 1 74.764244514297928 35.563156354661757 16.131435566727902 1 rotate no_reflect no_shear #
lump $-1 $-1 $21 $3 #
transform $-1 1 0 0 0 1 0 0 0 1 74.764244514297928 35.563156354661757 16.131435566727902 1 rotate no_reflect no_shear #
lump $-1 $-1 $22 $4 #
transform $-1 1 0 0 0 1 0 0 0 1 74.764244514297928 35.563156354661757 16.131435566727902 1 rotate no_reflect no_shear #
lump $-1 $-1 $23 $5 #
transform $-1 1 0 0 0 1 0 0 0 1 74.764244514297928 35.563156354661757 16.131435566727902 1 rotate no_reflect no_shear #
shell $-1 $-1 $-1 $24 $-1 $6 #
shell $-1 $-1 $-1 $25 $-1 $8 #
shell $-1 $-1 $-1 $26 $-1 $10 #
shell $-1 $-1 $-1 $27 $-1 $12 #
shell $-1 $-1 $-1 $28 $-1 $14 #
shell $-1 $-1 $-1 $29 $-1 $16 #
face $-1 $30 $31 $18 $-1 $32 forward single #
face $-1 $33 $34 $19 $-1 $35 reversed single #
face $-1 $36 $37 $20 $-1 $38 reversed single #
face $-1 $39 $40 $21 $-1 $41 forward single #
face $-1 $42 $43 $22 $-1 $44 reversed single #
face $-1 $45 $46 $23 $-1 $47 forward single #
face $-1 $48 $49 $18 $-1 $50 reversed single #
loop $-1 $-1 $51 $24 #
plane-surface $-1 0 0 16.131435566727902 0 0 1 1 0 0 forward_v I I I I #
face $-1 $52 $53 $19 $-1 $54 reversed single #
loop $-1 $-1 $55 $25 #
plane-surface $-1 0 -26.573353023932267 9.6521782806258489 0 0 1 1 0 0 forward_v I I I I #
face $-1 $56 $57 $20 $-1 $58 reversed single #
loop $-1 $-1 $59 $26 #
plane-surface $-1 -204.25971575917268 2.5643435018785574 81.670799734938555 0 1 0 -0.86602541151947299 0 0.49999998660252726 forward_v I I I I #
face $-1 $60 $61 $21 $-1 $62 forward single #
loop $-1 $63 $64 $27 #
cone-surface $-1 -71.346271025258659 7.0765664966889616 11.083108165797492 0.86602541151947299 0 -0.49999998660252726 0.24999999330126363 0 0.43301270575973649 1 I I 0 1 0.5 forward I I I I #
face $-1 $65 $66 $22 $-1 $67 reversed single #
loop $-1 $-1 $68 $28 #
plane-surface $-1 104.19451739121413 1.4583576495583372 222.1118866427183 0 -1 0 -0.79863551827123203 0 -0.60181501223851219 forward_v I I I I #
face $-1 $69 $70 $23 $-1 $71 forward single #
loop $-1 $72 $73 $29 #
cone-surface $-1 72.581107844663194 -1.9143113927108146 13.745867331928217 -0.79863551827123203 0 -0.60181501223851219 0.60181501223851219 0 -0.79863551827123203 1 I I 0 1 1 forward I I I I #
face $-1 $74 $75 $18 $-1 $76 reversed single #
loop $-1 $-1 $77 $30 #
plane-surface $-1 0 0 -16.131435566727902 0 0 1 1 0 0 forward_v I I I I #
coedge $-1 $78 $79 $80 $81 forward $31 $-1 #
face $-1 $82 $83 $19 $-1 $84 reversed single #
loop $-1 $-1 $85 $33 #
plane-surface $-1 0 -17.583549693202777 12.891806923676874 0 -1 0 0 0 -1 forward_v I I I I #
coedge $-1 $86 $87 $88 $89 reversed $34 $-1 #
face $-1 $90 $91 $20 $-1 $92 reversed single #
loop $-1 $-1 $93 $36 #
plane-surface $-1 -74.764244514297957 7.0765664966889688 6.906557223944489 -0.86602541151947299 0 0.49999998660252726 0.49999998660252726 0 0.86602541151947299 forward_v I I I I #
coedge $-1 $94 $95 $96 $97 reversed $37 $-1 #
face $-1 $-1 $98 $21 $-1 $99 forward single #
loop $-1 $100 $101 $39 #
cone-surface $-1 -70.374784085423641 7.0765664966889616 10.522219939608163 0.86602541151947299 0 -0.49999998660252726 0.12499999665063181 0 0.21650635287986825 1 I I -0.70710678118654746 0.70710678118654746 0.25 forward I I I I #
loop $-1 $-1 $102 $27 #
coedge $-1 $64 $64 $103 $104 reversed $40 $-1 #
face $-1 $105 $106 $22 $-1 $107 reversed single #
loop $-1 $-1 $108 $42 #
plane-surface $-1 -15.224244940452749 -1.9143113927108146 132.12339718796767 0.79863551827123203 0 0.60181501223851219 0.60181501223851219 0 -0.79863551827123203 forward_v I I I I #
coedge $-1 $109 $110 $111 $112 reversed $43 $-1 #
face $-1 $-1 $113 $23 $-1 $114 forward single #
loop $-1 $115 $116 $45 #
cone-surface $-1 71.289793156302096 -1.9143113927108146 12.772791946222824 -0.79863551827123203 0 -0.60181501223851219 0.3009075061192561 0 -0.39931775913561601 1 I I -0.70710678118654746 0.70710678118654746 0.5 forward I I I I #
loop $-1 $-1 $117 $29 #
coedge $-1 $73 $73 $118 $119 reversed $46 $-1 #
face $-1 $120 $121 $18 $-1 $122 reversed single #
loop $-1 $-1 $123 $48 #
plane-surface $-1 0 -35.563156354661757 0 0 1 0 0 0 1 forward_v I I I I #
coedge $-1 $124 $125 $126 $127 forward $49 $-1 #
coedge $-1 $128 $51 $129 $130 forward $31 $-1 #
coedge $-1 $51 $128 $131 $132 forward $31 $-1 #
coedge $-1 $133 $134 $51 $81 reversed $135 $-1 #
edge $-1 $136 -35.563156354661757 $137 35.563156354661757 $80 $138 forward 7 unknown #
face $-1 $139 $140 $19 $-1 $141 reversed single #
loop $-1 $-1 $142 $52 #
plane-surface $-1 -74.764244514297928 0 0 1 0 0 0 0 -1 forward_v I I I I #
coedge $-1 $143 $144 $145 $146 reversed $53 $-1 #
coedge $-1 $147 $55 $148 $149 reversed $34 $-1 #
coedge $-1 $55 $147 $143 $150 forward $34 $-1 #
coedge $-1 $145 $151 $55 $89 forward $152 $-1 #
edge $-1 $153 -22.276479842695622 $154 -4.2968731812366432 $88 $155 forward 7 unknown #
face $-1 $156 $157 $20 $-1 $158 forward single #
loop $-1 $-1 $159 $56 #
plane-surface $-1 -204.25971575917268 11.58878949149938 81.670799734938555 0 -1 0 0.86602541151947299 0 -0.49999998660252726 forward_v I I I I #
coedge $-1 $160 $161 $162 $163 reversed $57 $-1 #
coedge $-1 $95 $59 $164 $165 reversed $37 $-1 #
coedge $-1 $59 $94 $160 $166 reversed $37 $-1 #
coedge $-1 $162 $167 $59 $97 forward $157 $-1 #
edge $-1 $168 27.365613365288411 $169 32.691599169456595 $96 $170 forward 7 unknown #
loop $-1 $-1 $103 $60 #
plane-surface $-1 -74.764244514297957 7.0765664966889688 6.906557223944489 -0.86602541151947299 0 0.49999998660252726 0.49999998660252726 0 0.86602541151947299 forward_v I I I I #
loop $-1 $-1 $171 $39 #
coedge $-1 $101 $101 $102 $172 reversed $61 $-1 #
coedge $-1 $102 $102 $101 $172 forward $63 $-1 #
coedge $-1 $103 $103 $64 $104 forward $98 $-1 #
edge $-1 $173 0 $173 6.2831853071796004 $103 $174 forward 7 unknown #
face $-1 $175 $176 $22 $-1 $177 reversed single #
loop $-1 $-1 $178 $65 #
plane-surface $-1 104.19451739121413 -5.2869804349799665 222.1118866427183 0 1 0 0.79863551827123203 0 0.60181501223851219 forward_v I I I I #
coedge $-1 $179 $180 $181 $182 reversed $66 $-1 #
coedge $-1 $110 $68 $183 $184 reversed $43 $-1 #
coedge $-1 $68 $109 $179 $185 reversed $43 $-1 #
coedge $-1 $181 $186 $68 $112 forward $187 $-1 #
edge $-1 $188 -22.666985818690861 $189 -20.084706337872348 $111 $190 forward 7 unknown #
loop $-1 $-1 $118 $69 #
plane-surface $-1 -15.224244940452749 -1.9143113927108146 132.12339718796767 0.79863551827123203 0 0.60181501223851219 0.60181501223851219 0 -0.79863551827123203 forward_v I I I I #
loop $-1 $-1 $191 $45 #
coedge $-1 $116 $116 $117 $192 reversed $70 $-1 #
coedge $-1 $117 $117 $116 $192 forward $72 $-1 #
coedge $-1 $118 $118 $73 $119 forward $113 $-1 #
edge $-1 $193 0 $193 6.2831853071796004 $118 $194 forward 7 unknown #
face $-1 $195 $196 $18 $-1 $197 reversed single #
loop $-1 $-1 $198 $74 #
plane-surface $-1 -74.764244514297928 0 0 1 0 0 0 0 -1 forward_v I I I I #
coedge $-1 $199 $131 $200 $201 forward $75 $-1 #
coedge $-1 $202 $77 $199 $203 forward $49 $-1 #
coedge $-1 $77 $202 $204 $205 forward $49 $-1 #
coedge $-1 $134 $133 $77 $127 reversed $135 $-1 #
edge $-1 $206 -35.563156354661757 $207 35.563156354661757 $126 $208 forward 7 unknown #
coedge $-1 $79 $78 $209 $210 forward $31 $-1 #
coedge $-1 $211 $212 $78 $130 reversed $196 $-1 #
edge $-1 $137 -74.764244514297928 $213 74.764244514297928 $129 $214 forward 7 unknown #
coedge $-1 $123 $215 $79 $132 reversed $75 $-1 #
edge $-1 $216 -74.764244514297928 $136 74.764244514297928 $131 $217 forward 7 unknown #
coedge $-1 $126 $80 $215 $218 forward $135 $-1 #
coedge $-1 $80 $126 $211 $219 reversed $135 $-1 #
loop $-1 $-1 $133 $195 #
vertex $-1 $81 $220 #
vertex $-1 $81 $221 #
straight-curve $-1 74.764244514297928 0 16.131435566727902 0 1 0 I I #
face $-1 $222 $223 $19 $-1 $224 forward single #
loop $-1 $-1 $148 $82 #
plane-surface $-1 0 -35.563156354661757 0 0 1 0 0 0 1 forward_v I I I I #
coedge $-1 $225 $226 $227 $228 forward $83 $-1 #
coedge $-1 $227 $85 $87 $150 reversed $53 $-1 #
coedge $-1 $85 $227 $229 $230 reversed $53 $-1 #
coedge $-1 $231 $88 $85 $146 forward $152 $-1 #
edge $-1 $154 3.2062748187874117 $232 9.6855321048894645 $145 $233 forward 7 unknown #
coedge $-1 $87 $86 $225 $234 reversed $34 $-1 #
coedge $-1 $235 $236 $86 $149 forward $140 $-1 #
edge $-1 $237 -74.764244514297928 $153 74.764244514297928 $148 $238 forward 7 unknown #
edge $-1 $239 -74.764244514297928 $154 74.764244514297928 $143 $240 forward 7 unknown #
coedge $-1 $88 $231 $235 $241 forward $152 $-1 #
loop $-1 $-1 $145 $222 #
vertex $-1 $149 $242 #
vertex $-1 $89 $243 #
straight-curve $-1 74.764244514297928 -13.286676511966133 9.6521782806258489 0 1 0 I I #
face $-1 $-1 $244 $20 $-1 $245 reversed single #
loop $-1 $-1 $96 $90 #
plane-surface $-1 0 0 16.131435566727902 0 0 1 1 0 0 forward_v I I I I #
coedge $-1 $246 $247 $248 $249 reversed $91 $-1 #
coedge $-1 $250 $93 $95 $166 forward $57 $-1 #
coedge $-1 $93 $250 $246 $251 forward $57 $-1 #
coedge $-1 $248 $96 $93 $163 forward $157 $-1 #
edge $-1 $169 -0.97393974646592696 $252 8.0505062431548957 $162 $253 forward 7 unknown #
coedge $-1 $254 $255 $94 $165 forward $244 $-1 #
edge $-1 $256 -33.928842643524739 $168 -24.703964300741376 $164 $257 forward 7 unknown #
edge $-1 $169 -10.651971893755436 $256 -5.6516033812716314e-014 $95 $258 forward 7 unknown #
coedge $-1 $96 $248 $254 $259 forward $157 $-1 #
vertex $-1 $165 $260 #
vertex $-1 $97 $261 #
straight-curve $-1 -102.12985787958634 2.5643435018785574 16.131435566727902 1 0 0 I I #
coedge $-1 $171 $171 $-1 $262 reversed $100 $-1 #
edge $-1 $263 0 $263 6.2831853071796004 $101 $264 forward 7 unknown #
vertex $-1 $104 $265 #
ellipse-curve $-1 -72.101251612213844 7.0765664966889616 11.518996395336208 -0.86602541151947299 0 0.49999998660252726 0.24999999330126363 0 0.43301270575973649 1 I I #
face $-1 $-1 $187 $22 $-1 $266 forward single #
loop $-1 $-1 $267 $105 #
plane-surface $-1 74.764244514297928 0 0 -1 0 0 0 0 1 forward_v I I I I #
coedge $-1 $268 $269 $270 $271 reversed $106 $-1 #
coedge $-1 $272 $108 $110 $185 forward $66 $-1 #
coedge $-1 $108 $272 $268 $273 forward $66 $-1 #
coedge $-1 $270 $111 $108 $182 forward $187 $-1 #
edge $-1 $189 -2.4155133459137446 $274 4.3298247386245592 $181 $275 forward 7 unknown #
coedge $-1 $276 $277 $109 $184 forward $176 $-1 #
edge $-1 $278 -98.351308465058409 $188 -94.92450775463125 $183 $279 forward 7 unknown #
edge $-1 $189 145.23766970985963 $278 149.52848902859591 $110 $280 forward 7 unknown #
coedge $-1 $111 $270 $276 $281 forward $187 $-1 #
loop $-1 $-1 $270 $175 #
vertex $-1 $184 $282 #
vertex $-1 $112 $283 #
straight-curve $-1 52.097258695607067 1.4583576495583372 16.131435566727902 -1 0 0 I I #
coedge $-1 $191 $191 $-1 $284 reversed $115 $-1 #
edge $-1 $285 0 $285 6.2831853071796004 $116 $286 forward 7 unknown #
vertex $-1 $119 $287 #
ellipse-curve $-1 73.47310477388865 -1.9143113927108146 14.418035211514335 0.79863551827123203 0 0.60181501223851219 0.60181501223851219 0 -0.79863551827123203 1 I I #
face $-1 $-1 $135 $18 $-1 $288 reversed single #
loop $-1 $-1 $211 $120 #
plane-surface $-1 0 35.563156354661757 0 0 -1 0 0 0 -1 forward_v I I I I #
coedge $-1 $289 $209 $212 $290 forward $121 $-1 #
coedge $-1 $215 $123 $124 $203 reversed $75 $-1 #
coedge $-1 $209 $289 $123 $201 reversed $121 $-1 #
edge $-1 $216 -16.131435566727902 $291 16.131435566727902 $200 $292 forward 7 unknown #
coedge $-1 $125 $124 $289 $293 forward $49 $-1 #
edge $-1 $207 -74.764244514297928 $291 74.764244514297928 $199 $294 forward 7 unknown #
coedge $-1 $212 $211 $125 $205 reversed $196 $-1 #
edge $-1 $295 -74.764244514297928 $206 74.764244514297928 $204 $296 forward 7 unknown #
vertex $-1 $127 $297 #
vertex $-1 $218 $298 #
straight-curve $-1 74.764244514297928 0 -16.131435566727902 0 -1 0 I I #
coedge $-1 $198 $200 $128 $210 reversed $121 $-1 #
edge $-1 $213 -35.563156354661757 $216 35.563156354661757 $209 $299 forward 7 unknown #
coedge $-1 $204 $129 $134 $219 forward $196 $-1 #
coedge $-1 $129 $204 $198 $290 reversed $196 $-1 #
vertex $-1 $130 $300 #
straight-curve $-1 0 35.563156354661757 16.131435566727902 -1 0 0 I I #
coedge $-1 $131 $199 $133 $218 reversed $75 $-1 #
vertex $-1 $210 $301 #
straight-curve $-1 0 -35.563156354661757 16.131435566727902 1 0 0 I I #
edge $-1 $136 -16.131435566727902 $207 16.131435566727902 $133 $302 forward 7 unknown #
edge $-1 $137 -16.131435566727902 $206 16.131435566727902 $134 $303 forward 7 unknown #
point $-1 74.764244514297928 -35.563156354661757 16.131435566727902 #
point $-1 74.764244514297928 35.563156354661757 16.131435566727902 #
face $-1 $-1 $152 $19 $-1 $304 reversed single #
loop $-1 $-1 $229 $139 #
plane-surface $-1 0 0 16.131435566727902 0 0 1 1 0 0 forward_v I I I I #
coedge $-1 $305 $142 $147 $234 forward $83 $-1 #
coedge $-1 $142 $305 $306 $307 reversed $83 $-1 #
coedge $-1 $144 $143 $142 $228 reversed $53 $-1 #
edge $-1 $308 -9.6855321048894645 $239 -3.2062748187874117 $142 $309 forward 7 unknown #
coedge $-1 $306 $310 $144 $230 forward $223 $-1 #
edge $-1 $232 -74.764244514297928 $308 74.764244514297928 $229 $311 forward 7 unknown #
coedge $-1 $151 $145 $310 $312 reversed $152 $-1 #
vertex $-1 $146 $313 #
straight-curve $-1 74.764244514297928 -17.583549693202777 6.4459034618384372 0 0 1 I I #
edge $-1 $239 4.2968731812366432 $237 22.276479842695622 $225 $314 forward 7 unknown #
coedge $-1 $315 $148 $151 $241 reversed $140 $-1 #
coedge $-1 $148 $315 $305 $316 forward $140 $-1 #
vertex $-1 $149 $317 #
straight-curve $-1 0 -35.563156354661757 9.6521782806258489 1 0 0 I I #
vertex $-1 $234 $318 #
straight-curve $-1 0 -17.583549693202777 9.6521782806258489 1 0 0 I I #
edge $-1 $319 -16.131435566727902 $153 -9.6521782806258489 $151 $320 forward 7 unknown #
point $-1 74.764244514297928 -35.563156354661757 9.6521782806258489 #
point $-1 74.764244514297928 -17.583549693202777 9.6521782806258489 #
loop $-1 $-1 $164 $156 #
plane-surface $-1 -74.764244514297928 0 0 1 0 0 0 0 -1 forward_v I I I I #
coedge $-1 $247 $159 $161 $251 reversed $91 $-1 #
coedge $-1 $159 $246 $321 $322 reversed $91 $-1 #
coedge $-1 $167 $162 $159 $249 forward $157 $-1 #
edge $-1 $252 -32.691599169456595 $323 -27.365613365288411 $248 $324 forward 7 unknown #
coedge $-1 $161 $160 $255 $325 reversed $57 $-1 #
edge $-1 $326 5.6516033812716314e-014 $252 10.651971893755436 $246 $327 forward 7 unknown #
vertex $-1 $163 $328 #
straight-curve $-1 -69.438258710129745 3.5382832483444844 16.131435566727902 0 1 0 I I #
coedge $-1 $321 $164 $167 $259 reversed $244 $-1 #
coedge $-1 $164 $321 $250 $325 forward $244 $-1 #
vertex $-1 $165 $329 #
straight-curve $-1 -74.764244514297928 2.5643435018785574 40.835399867469278 0 0 1 I I #
straight-curve $-1 -74.764244514297957 2.5643435018785574 6.906557223944489 -0.49999998660252726 0 -0.86602541151947299 I I #
edge $-1 $323 -11.58878949149938 $168 -2.5643435018785574 $254 $330 forward 7 unknown #
point $-1 -74.764244514297928 2.5643435018785574 16.131435566727902 #
point $-1 -69.438258710129745 2.5643435018785574 16.131435566727902 #
edge $-1 $331 1 $331 0 $171 $-1 forward 7 unknown #
vertex $-1 $172 $332 #
ellipse-curve $-1 -70.591290438303503 7.0765664966889616 10.647219936258795 -0.86602541151947299 0 0.49999998660252726 0.24999999330126363 0 0.43301270575973649 1 I I #
point $-1 -71.851251618912556 7.0765664966889616 11.952009101095927 #
plane-surface $-1 0 0 16.131435566727902 0 0 1 1 0 0 forward_v I I I I #
coedge $-1 $277 $276 $269 $333 forward $176 $-1 #
coedge $-1 $269 $178 $180 $273 reversed $106 $-1 #
coedge $-1 $178 $268 $267 $333 reversed $106 $-1 #
coedge $-1 $186 $181 $178 $271 forward $187 $-1 #
edge $-1 $274 20.084706337872348 $334 22.666985818690861 $270 $335 forward 7 unknown #
coedge $-1 $180 $179 $277 $336 reversed $66 $-1 #
edge $-1 $337 -149.52848902859591 $274 -145.23766970985963 $268 $338 forward 7 unknown #
vertex $-1 $182 $339 #
straight-curve $-1 72.181965033479401 -0.95715569635540731 16.131435566727902 0 -1 0 I I #
coedge $-1 $267 $183 $186 $281 reversed $176 $-1 #
coedge $-1 $183 $267 $272 $336 forward $176 $-1 #
vertex $-1 $184 $340 #
straight-curve $-1 74.764244514297928 1.4583576495583372 111.05594332135915 0 0 1 I I #
straight-curve $-1 -15.224244940452749 1.4583576495583372 132.12339718796767 0.60181501223851219 0 -0.79863551827123203 I I #
edge $-1 $334 -5.2869804349799665 $188 1.4583576495583372 $276 $341 forward 7 unknown #
point $-1 74.764244514297928 1.4583576495583372 16.131435566727902 #
point $-1 72.181965033479415 1.4583576495583372 16.131435566727902 #
edge $-1 $342 1 $342 0 $191 $-1 forward 7 unknown #
vertex $-1 $192 $343 #
ellipse-curve $-1 71.689110915437709 -1.9143113927108146 13.07369945234208 0.79863551827123203 0 0.60181501223851219 0.60181501223851219 0 -0.79863551827123203 1 I I #
point $-1 74.074919786127197 -1.9143113927108146 13.619399693243123 #
plane-surface $-1 74.764244514297928 0 0 -1 0 0 0 0 1 forward_v I I I I #
coedge $-1 $200 $198 $202 $293 reversed $121 $-1 #
edge $-1 $213 -16.131435566727902 $295 16.131435566727902 $212 $344 forward 7 unknown #
vertex $-1 $293 $345 #
straight-curve $-1 -74.764244514297928 -35.563156354661757 0 0 0 -1 I I #
edge $-1 $291 -35.563156354661757 $295 35.563156354661757 $289 $346 forward 7 unknown #
straight-curve $-1 0 -35.563156354661757 -16.131435566727902 -1 0 0 I I #
vertex $-1 $205 $347 #
straight-curve $-1 0 35.563156354661757 -16.131435566727902 1 0 0 I I #
point $-1 74.764244514297928 35.563156354661757 -16.131435566727902 #
point $-1 74.764244514297928 -35.563156354661757 -16.131435566727902 #
straight-curve $-1 -74.764244514297928 0 16.131435566727902 0 -1 0 I I #
point $-1 -74.764244514297928 35.563156354661757 16.131435566727902 #
point $-1 -74.764244514297928 -35.563156354661757 16.131435566727902 #
straight-curve $-1 74.764244514297928 -35.563156354661757 0 0 0 -1 I I #
straight-curve $-1 74.764244514297928 35.563156354661757 0 0 0 -1 I I #
plane-surface $-1 74.764244514297928 0 0 -1 0 0 0 0 1 forward_v I I I I #
coedge $-1 $226 $225 $236 $316 reversed $83 $-1 #
coedge $-1 $348 $229 $226 $307 forward $223 $-1 #
edge $-1 $308 17.583549693202777 $349 35.563156354661757 $226 $350 forward 7 unknown #
vertex $-1 $307 $351 #
straight-curve $-1 -74.764244514297928 -17.583549693202777 6.4459034618384372 0 0 -1 I I #
coedge $-1 $229 $348 $231 $312 forward $223 $-1 #
straight-curve $-1 0 -17.583549693202777 16.131435566727902 -1 0 0 I I #
edge $-1 $319 -35.563156354661757 $232 -17.583549693202777 $231 $352 forward 7 unknown #
point $-1 74.764244514297928 -17.583549693202777 16.131435566727902 #
straight-curve $-1 -74.764244514297928 -13.286676511966133 9.6521782806258489 0 -1 0 I I #
coedge $-1 $236 $235 $348 $353 reversed $140 $-1 #
edge $-1 $349 -16.131435566727902 $237 -9.6521782806258489 $305 $354 forward 7 unknown #
point $-1 -74.764244514297928 -35.563156354661757 9.6521782806258489 #
point $-1 -74.764244514297928 -17.583549693202777 9.6521782806258489 #
vertex $-1 $312 $355 #
straight-curve $-1 74.764244514297928 -35.563156354661757 0 0 0 -1 I I #
coedge $-1 $255 $254 $247 $322 forward $244 $-1 #
edge $-1 $323 24.703964300741376 $326 33.928842643524739 $321 $356 forward 7 unknown #
vertex $-1 $259 $357 #
straight-curve $-1 -102.12985787958634 11.58878949149938 16.131435566727902 -1 0 0 I I #
edge $-1 $326 -8.0505062431548957 $256 0.97393974646592696 $255 $358 forward 7 unknown #
vertex $-1 $325 $359 #
straight-curve $-1 -74.764244514297957 11.58878949149938 6.906557223944489 0.49999998660252726 0 0.86602541151947299 I I #
point $-1 -69.438258710129745 11.58878949149938 16.131435566727902 #
point $-1 -74.764244514297928 2.5643435018785574 6.9065572239445379 #
straight-curve $-1 -74.764244514297928 0 16.131435566727902 0 -1 0 I I #
vertex $-1 $262 $360 #
point $-1 -70.341290445002244 7.0765664966889616 11.080232642018531 #
edge $-1 $334 94.92450775463125 $337 98.351308465058409 $267 $361 forward 7 unknown #
vertex $-1 $281 $362 #
straight-curve $-1 52.097258695607067 -5.2869804349799665 16.131435566727902 1 0 0 I I #
edge $-1 $337 -4.3298247386245592 $278 2.4155133459137446 $277 $363 forward 7 unknown #
vertex $-1 $336 $364 #
straight-curve $-1 -15.224244940452749 -5.2869804349799665 132.12339718796767 -0.60181501223851219 0 0.79863551827123203 I I #
point $-1 72.181965033479415 -5.2869804349799665 16.131435566727902 #
point $-1 74.764244514297943 1.4583576495583372 12.704634856300743 #
straight-curve $-1 74.764244514297928 0 16.131435566727902 0 1 0 I I #
vertex $-1 $284 $365 #
point $-1 72.290925927676227 -1.9143113927108146 12.275063934070849 #
straight-curve $-1 -74.764244514297928 35.563156354661757 0 0 0 -1 I I #
point $-1 -74.764244514297928 -35.563156354661757 -16.131435566727902 #
straight-curve $-1 -74.764244514297928 0 -16.131435566727902 0 1 0 I I #
point $-1 -74.764244514297928 35.563156354661757 -16.131435566727902 #
coedge $-1 $310 $306 $315 $353 forward $223 $-1 #
vertex $-1 $307 $366 #
straight-curve $-1 -74.764244514297928 0 16.131435566727902 0 -1 0 I I #
point $-1 -74.764244514297928 -17.583549693202777 16.131435566727902 #
straight-curve $-1 74.764244514297928 0 16.131435566727902 0 1 0 I I #
edge $-1 $349 -74.764244514297928 $319 74.764244514297928 $315 $367 forward 7 unknown #
straight-curve $-1 -74.764244514297928 -35.563156354661757 0 0 0 -1 I I #
point $-1 74.764244514297928 -35.563156354661757 16.131435566727902 #
straight-curve $-1 -74.764244514297928 11.58878949149938 40.835399867469278 0 0 -1 I I #
point $-1 -74.764244514297928 11.58878949149938 16.131435566727902 #
straight-curve $-1 -74.764244514297928 3.5382832483444844 6.906557223944545 0 -1 0 I I #
point $-1 -74.764244514297928 11.58878949149938 6.9065572239445379 #
point $-1 -70.15827773254378 7.0765664966889616 10.397219942957532 #
straight-curve $-1 74.764244514297928 -5.2869804349799665 111.05594332135915 0 0 -1 I I #
point $-1 74.764244514297928 -5.2869804349799665 16.131435566727902 #
straight-curve $-1 74.764244514297928 -0.95715569635540731 12.704634856300757 0 1 0 I I #
point $-1 74.764244514297943 -5.2869804349799665 12.704634856300743 #
point $-1 70.890475397166483 -1.9143113927108146 12.471884440103569 #
point $-1 -74.764244514297928 -35.563156354661757 16.131435566727902 #
straight-curve $-1 0 -35.563156354661757 16.131435566727902 1 0 0 I I #
End-of-ACIS-data 