500 0 5 0           
7 Unknown 11 ACIS 5.0 NT 24 Fri Mar 26 16:50:54 1999 
-1 9.9999999999999995e-007 1e-010 
body $-1 $5 $-1 $6 #
body $-1 $7 $-1 $8 #
body $-1 $9 $-1 $10 #
body $-1 $11 $-1 $12 #
body $-1 $13 $-1 $14 #
lump $-1 $-1 $15 $0 #
transform $-1 1 0 0 0 1 0 0 0 1 57.95098727378155 29.971202912538192 6.6489659783264452 1 rotate no_reflect no_shear #
lump $-1 $-1 $16 $1 #
transform $-1 1 0 0 0 1 0 0 0 1 57.95098727378155 29.971202912538192 6.6489659783264452 1 rotate no_reflect no_shear #
lump $-1 $-1 $17 $2 #
transform $-1 1 0 0 0 1 0 0 0 1 57.95098727378155 29.971202912538192 6.6489659783264452 1 rotate no_reflect no_shear #
lump $-1 $-1 $18 $3 #
transform $-1 1 0 0 0 1 0 0 0 1 57.95098727378155 29.971202912538192 6.6489659783264452 1 rotate no_reflect no_shear #
lump $-1 $-1 $19 $4 #
transform $-1 1 0 0 0 1 0 0 0 1 57.95098727378155 29.971202912538192 6.6489659783264452 1 rotate no_reflect no_shear #
shell $-1 $-1 $-1 $20 $-1 $5 #
shell $-1 $-1 $-1 $21 $-1 $7 #
shell $-1 $-1 $-1 $22 $-1 $9 #
shell $-1 $-1 $-1 $23 $-1 $11 #
shell $-1 $-1 $-1 $24 $-1 $13 #
face $-1 $25 $26 $15 $-1 $27 forward single #
face $-1 $28 $29 $16 $-1 $30 reversed single #
face $-1 $31 $32 $17 $-1 $33 reversed single #
face $-1 $34 $35 $18 $-1 $36 forward single #
face $-1 $37 $38 $19 $-1 $39 forward single #
face $-1 $40 $41 $15 $-1 $42 reversed single #
loop $-1 $-1 $43 $20 #
plane-surface $-1 0 0 6.6489659783264452 0 0 1 1 0 0 forward_v I I I I #
face $-1 $44 $45 $16 $-1 $46 reversed single #
loop $-1 $-1 $47 $21 #
plane-surface $-1 0 -27.675328170088253 3.0393649711528319 0 0 1 1 0 0 forward_v I I I I #
face $-1 $48 $49 $17 $-1 $50 reversed single #
loop $-1 $-1 $51 $22 #
plane-surface $-1 -57.95098727378155 -21.332430142682679 1.9576150679952633 -0.78801076186113728 0 0.61566146476048833 0.61566146476048833 0 0.78801076186113728 forward_v I I I I #
face $-1 $52 $53 $18 $-1 $54 forward single #
loop $-1 $55 $56 $23 #
cone-surface $-1 -54.718000599196884 -23.066868693377952 3.2092217517890891 0.78801076186113728 0 -0.61566146476048833 0.61566146476048833 0 0.78801076186113728 1 I I 0 1 1 forward I I I I #
face $-1 $57 $58 $19 $-1 $59 forward single #
loop $-1 $60 $61 $24 #
cone-surface $-1 -54.718000599196884 -19.597991591987409 3.2092217517890891 0.78801076186113728 0 -0.61566146476048833 0.61566146476048833 0 0.78801076186113728 1 I I 0 1 1 forward I I I I #
face $-1 $62 $63 $15 $-1 $64 reversed single #
loop $-1 $-1 $65 $25 #
plane-surface $-1 0 0 -6.6489659783264452 0 0 1 1 0 0 forward_v I I I I #
coedge $-1 $66 $67 $68 $69 forward $26 $-1 #
face $-1 $70 $71 $16 $-1 $72 reversed single #
loop $-1 $-1 $73 $28 #
plane-surface $-1 0 -25.379453427638314 4.844165474739639 0 -1 0 0 0 -1 forward_v I I I I #
coedge $-1 $74 $75 $76 $77 reversed $29 $-1 #
face $-1 $78 $79 $17 $-1 $80 forward single #
loop $-1 $-1 $81 $31 #
plane-surface $-1 -149.28299053821689 -17.285406857727043 73.313994486580796 0 -1 0 0.78801076186113728 0 -0.61566146476048833 forward_v I I I I #
coedge $-1 $82 $83 $84 $85 reversed $32 $-1 #
face $-1 $-1 $86 $18 $-1 $87 forward single #
loop $-1 $88 $89 $34 #
cone-surface $-1 -52.923651010605795 -23.066868693377952 1.8073222480370843 0.78801076186113728 0 -0.61566146476048833 0.30783073238024417 0 0.39400538093056864 1 I I -0.70710678118654746 0.70710678118654746 0.5 forward I I I I #
loop $-1 $-1 $90 $23 #
coedge $-1 $56 $56 $91 $92 reversed $35 $-1 #
face $-1 $-1 $93 $19 $-1 $94 forward single #
loop $-1 $95 $96 $37 #
cone-surface $-1 -52.923651010605795 -19.597991591987409 1.8073222480370843 0.78801076186113728 0 -0.61566146476048833 0.30783073238024417 0 0.39400538093056864 1 I I -0.70710678118654746 0.70710678118654746 0.5 forward I I I I #
loop $-1 $-1 $97 $24 #
coedge $-1 $61 $61 $98 $99 reversed $38 $-1 #
face $-1 $100 $101 $15 $-1 $102 reversed single #
loop $-1 $-1 $103 $40 #
plane-surface $-1 0 -29.971202912538192 0 0 1 0 0 0 1 forward_v I I I I #
coedge $-1 $104 $105 $106 $107 forward $41 $-1 #
coedge $-1 $108 $43 $109 $110 forward $26 $-1 #
coedge $-1 $43 $108 $111 $112 forward $26 $-1 #
coedge $-1 $113 $114 $43 $69 reversed $115 $-1 #
edge $-1 $116 -29.971202912538192 $117 29.971202912538192 $68 $118 forward 7 unknown #
face $-1 $119 $120 $16 $-1 $121 reversed single #
loop $-1 $-1 $122 $44 #
plane-surface $-1 -57.95098727378155 0 0 1 0 0 0 0 -1 forward_v I I I I #
coedge $-1 $123 $124 $125 $126 reversed $45 $-1 #
coedge $-1 $127 $47 $128 $129 reversed $29 $-1 #
coedge $-1 $47 $127 $130 $131 forward $29 $-1 #
coedge $-1 $132 $133 $47 $77 forward $134 $-1 #
edge $-1 $135 -16.133538827494064 $136 -11.541789342594187 $76 $137 forward 7 unknown #
face $-1 $138 $139 $17 $-1 $140 reversed single #
loop $-1 $-1 $84 $48 #
plane-surface $-1 0 0 6.6489659783264452 0 0 1 1 0 0 forward_v I I I I #
coedge $-1 $141 $142 $143 $144 reversed $49 $-1 #
coedge $-1 $145 $51 $146 $147 reversed $32 $-1 #
coedge $-1 $51 $145 $141 $148 forward $32 $-1 #
coedge $-1 $143 $149 $51 $85 forward $79 $-1 #
edge $-1 $150 -14.713238356296975 $151 -6.6191917863857039 $84 $152 forward 7 unknown #
loop $-1 $-1 $91 $52 #
plane-surface $-1 -57.95098727378155 -21.332430142682679 1.9576150679952633 -0.78801076186113728 0 0.61566146476048833 0.61566146476048833 0 0.78801076186113728 forward_v I I I I #
loop $-1 $-1 $153 $34 #
coedge $-1 $89 $89 $90 $154 reversed $53 $-1 #
coedge $-1 $90 $90 $89 $154 forward $55 $-1 #
coedge $-1 $91 $91 $56 $92 forward $86 $-1 #
edge $-1 $155 0 $155 6.2831853071796004 $91 $156 forward 7 unknown #
loop $-1 $-1 $98 $57 #
plane-surface $-1 -57.95098727378155 -21.332430142682679 1.9576150679952633 -0.78801076186113728 0 0.61566146476048833 0.61566146476048833 0 0.78801076186113728 forward_v I I I I #
loop $-1 $-1 $157 $37 #
coedge $-1 $96 $96 $97 $158 reversed $58 $-1 #
coedge $-1 $97 $97 $96 $158 forward $60 $-1 #
coedge $-1 $98 $98 $61 $99 forward $93 $-1 #
edge $-1 $159 0 $159 6.2831853071796004 $98 $160 forward 7 unknown #
face $-1 $161 $162 $15 $-1 $163 reversed single #
loop $-1 $-1 $164 $62 #
plane-surface $-1 -57.95098727378155 0 0 1 0 0 0 0 -1 forward_v I I I I #
coedge $-1 $165 $111 $166 $167 forward $63 $-1 #
coedge $-1 $168 $65 $165 $169 forward $41 $-1 #
coedge $-1 $65 $168 $170 $171 forward $41 $-1 #
coedge $-1 $114 $113 $65 $107 reversed $115 $-1 #
edge $-1 $172 -29.971202912538192 $173 29.971202912538192 $106 $174 forward 7 unknown #
coedge $-1 $67 $66 $175 $176 forward $26 $-1 #
coedge $-1 $177 $178 $66 $110 reversed $162 $-1 #
edge $-1 $117 -57.95098727378155 $179 57.95098727378155 $109 $180 forward 7 unknown #
coedge $-1 $103 $181 $67 $112 reversed $63 $-1 #
edge $-1 $182 -57.95098727378155 $116 57.95098727378155 $111 $183 forward 7 unknown #
coedge $-1 $106 $68 $181 $184 forward $115 $-1 #
coedge $-1 $68 $106 $177 $185 reversed $115 $-1 #
loop $-1 $-1 $113 $161 #
vertex $-1 $69 $186 #
vertex $-1 $69 $187 #
straight-curve $-1 57.95098727378155 0 6.6489659783264452 0 1 0 I I #
face $-1 $188 $189 $16 $-1 $190 forward single #
loop $-1 $-1 $128 $70 #
plane-surface $-1 0 -29.971202912538192 0 0 1 0 0 0 1 forward_v I I I I #
coedge $-1 $191 $192 $124 $193 forward $71 $-1 #
coedge $-1 $130 $73 $132 $194 reversed $45 $-1 #
coedge $-1 $73 $130 $122 $193 reversed $45 $-1 #
coedge $-1 $195 $196 $73 $126 forward $189 $-1 #
edge $-1 $197 -57.95098727378155 $198 57.95098727378155 $125 $199 forward 7 unknown #
coedge $-1 $75 $74 $191 $200 reversed $29 $-1 #
coedge $-1 $201 $202 $74 $129 forward $120 $-1 #
edge $-1 $203 -57.95098727378155 $135 57.95098727378155 $128 $204 forward 7 unknown #
coedge $-1 $124 $123 $75 $131 reversed $45 $-1 #
edge $-1 $205 -57.95098727378155 $136 57.95098727378155 $130 $206 forward 7 unknown #
coedge $-1 $207 $76 $123 $194 forward $134 $-1 #
coedge $-1 $76 $207 $201 $208 forward $134 $-1 #
loop $-1 $-1 $132 $188 #
vertex $-1 $129 $209 #
vertex $-1 $77 $210 #
straight-curve $-1 57.95098727378155 -13.837664085044127 3.0393649711528319 0 1 0 I I #
face $-1 $-1 $211 $17 $-1 $212 forward single #
loop $-1 $-1 $213 $78 #
plane-surface $-1 -57.95098727378155 0 0 1 0 0 0 0 -1 forward_v I I I I #
coedge $-1 $142 $81 $83 $148 reversed $49 $-1 #
coedge $-1 $81 $141 $213 $214 reversed $49 $-1 #
coedge $-1 $215 $84 $81 $144 forward $79 $-1 #
edge $-1 $151 -20.355792929175195 $216 -16.690507995326897 $143 $217 forward 7 unknown #
coedge $-1 $83 $82 $218 $219 reversed $32 $-1 #
coedge $-1 $220 $221 $82 $147 forward $211 $-1 #
edge $-1 $222 -18.976411247230992 $150 -13.023001551085388 $146 $223 forward 7 unknown #
edge $-1 $224 0 $151 5.9534096961456076 $141 $225 forward 7 unknown #
coedge $-1 $84 $215 $220 $226 forward $79 $-1 #
vertex $-1 $147 $227 #
vertex $-1 $85 $228 #
straight-curve $-1 -54.285702339933252 -10.666215071341339 6.6489659783264443 0 1 0 I I #
coedge $-1 $153 $153 $-1 $229 reversed $88 $-1 #
edge $-1 $230 0 $230 6.2831853071796004 $89 $231 forward 7 unknown #
vertex $-1 $92 $232 #
ellipse-curve $-1 -56.118344806857401 -23.066868693377952 4.3032905231608511 -0.78801076186113728 0 0.61566146476048833 0.61566146476048833 0 0.78801076186113728 1 I I #
coedge $-1 $157 $157 $-1 $233 reversed $95 $-1 #
edge $-1 $234 0 $234 6.2831853071796004 $96 $235 forward 7 unknown #
vertex $-1 $99 $236 #
ellipse-curve $-1 -56.118344806857401 -19.597991591987409 4.3032905231608511 -0.78801076186113728 0 0.61566146476048833 0.61566146476048833 0 0.78801076186113728 1 I I #
face $-1 $-1 $115 $15 $-1 $237 reversed single #
loop $-1 $-1 $177 $100 #
plane-surface $-1 0 29.971202912538192 0 0 -1 0 0 0 -1 forward_v I I I I #
coedge $-1 $238 $175 $178 $239 forward $101 $-1 #
coedge $-1 $181 $103 $104 $169 reversed $63 $-1 #
coedge $-1 $175 $238 $103 $167 reversed $101 $-1 #
edge $-1 $182 -6.6489659783264452 $240 6.6489659783264452 $166 $241 forward 7 unknown #
coedge $-1 $105 $104 $238 $242 forward $41 $-1 #
edge $-1 $173 -57.95098727378155 $240 57.95098727378155 $165 $243 forward 7 unknown #
coedge $-1 $178 $177 $105 $171 reversed $162 $-1 #
edge $-1 $244 -57.95098727378155 $172 57.95098727378155 $170 $245 forward 7 unknown #
vertex $-1 $107 $246 #
vertex $-1 $184 $247 #
straight-curve $-1 57.95098727378155 0 -6.6489659783264452 0 -1 0 I I #
coedge $-1 $164 $166 $108 $176 reversed $101 $-1 #
edge $-1 $179 -29.971202912538192 $182 29.971202912538192 $175 $248 forward 7 unknown #
coedge $-1 $170 $109 $114 $185 forward $162 $-1 #
coedge $-1 $109 $170 $164 $239 reversed $162 $-1 #
vertex $-1 $110 $249 #
straight-curve $-1 0 29.971202912538192 6.6489659783264452 -1 0 0 I I #
coedge $-1 $111 $165 $113 $184 reversed $63 $-1 #
vertex $-1 $176 $250 #
straight-curve $-1 0 -29.971202912538192 6.6489659783264452 1 0 0 I I #
edge $-1 $116 -6.6489659783264452 $173 6.6489659783264452 $113 $251 forward 7 unknown #
edge $-1 $117 -6.6489659783264452 $172 6.6489659783264452 $114 $252 forward 7 unknown #
point $-1 57.95098727378155 -29.971202912538192 6.6489659783264452 #
point $-1 57.95098727378155 29.971202912538192 6.6489659783264452 #
face $-1 $-1 $134 $16 $-1 $253 reversed single #
loop $-1 $-1 $125 $119 #
plane-surface $-1 0 0 6.6489659783264452 0 0 1 1 0 0 forward_v I I I I #
coedge $-1 $254 $122 $127 $200 forward $71 $-1 #
coedge $-1 $122 $254 $195 $255 reversed $71 $-1 #
edge $-1 $198 -4.2268832409566262 $205 -0.61728223378301239 $122 $256 forward 7 unknown #
edge $-1 $136 0.61728223378301239 $197 4.2268832409566262 $132 $257 forward 7 unknown #
coedge $-1 $258 $125 $192 $255 forward $189 $-1 #
coedge $-1 $125 $258 $207 $259 forward $189 $-1 #
vertex $-1 $194 $260 #
vertex $-1 $255 $261 #
straight-curve $-1 0 -25.379453427638314 6.6489659783264452 -1 0 0 I I #
edge $-1 $205 11.541789342594187 $203 16.133538827494064 $191 $262 forward 7 unknown #
coedge $-1 $263 $128 $133 $208 reversed $120 $-1 #
coedge $-1 $128 $263 $254 $264 forward $120 $-1 #
vertex $-1 $129 $265 #
straight-curve $-1 0 -29.971202912538192 3.0393649711528319 1 0 0 I I #
vertex $-1 $200 $266 #
straight-curve $-1 0 -25.379453427638314 3.0393649711528319 1 0 0 I I #
coedge $-1 $133 $132 $196 $259 reversed $134 $-1 #
edge $-1 $267 -6.6489659783264452 $135 -3.0393649711528319 $133 $268 forward 7 unknown #
point $-1 57.95098727378155 -29.971202912538192 3.0393649711528319 #
point $-1 57.95098727378155 -25.379453427638314 3.0393649711528319 #
loop $-1 $-1 $146 $138 #
plane-surface $-1 0 -25.379453427638314 4.844165474739639 0 -1 0 0 0 -1 forward_v I I I I #
coedge $-1 $218 $269 $142 $214 forward $139 $-1 #
edge $-1 $216 30.008031264963954 $224 34.699382175295135 $213 $270 forward 7 unknown #
coedge $-1 $149 $143 $269 $271 forward $79 $-1 #
vertex $-1 $271 $272 #
straight-curve $-1 -74.641495269108447 -17.285406857727043 6.6489659783264443 -1 0 0 I I #
coedge $-1 $273 $213 $145 $219 forward $139 $-1 #
edge $-1 $224 6.6191917863857039 $222 14.713238356296975 $218 $274 forward 7 unknown #
coedge $-1 $221 $146 $149 $226 reversed $211 $-1 #
coedge $-1 $146 $220 $273 $275 reversed $211 $-1 #
vertex $-1 $275 $276 #
straight-curve $-1 -46.26794212941391 -25.379453427638314 16.911231352316008 0.61566146476048833 0 0.78801076186113728 I I #
vertex $-1 $219 $277 #
straight-curve $-1 -57.95098727378155 -17.285406857727043 1.9576150679952633 0.61566146476048833 0 0.78801076186113728 I I #
edge $-1 $278 -57.95098727378155 $150 -54.285702339933259 $149 $279 forward 7 unknown #
point $-1 -54.285702339933259 -25.379453427638314 6.6489659783264452 #
point $-1 -54.285702339933252 -17.285406857727043 6.6489659783264452 #
edge $-1 $280 1 $280 0 $153 $-1 forward 7 unknown #
vertex $-1 $154 $281 #
ellipse-curve $-1 -53.31765639153636 -23.066868693377952 2.1151529804173284 -0.78801076186113728 0 0.61566146476048833 0.61566146476048833 0 0.78801076186113728 1 I I #
point $-1 -55.502683342096908 -23.066868693377952 5.0913012850219861 #
edge $-1 $282 1 $282 0 $157 $-1 forward 7 unknown #
vertex $-1 $158 $283 #
ellipse-curve $-1 -53.31765639153636 -19.597991591987409 2.1151529804173284 -0.78801076186113728 0 0.61566146476048833 0.61566146476048833 0 0.78801076186113728 1 I I #
point $-1 -55.502683342096908 -19.597991591987409 5.0913012850219861 #
plane-surface $-1 57.95098727378155 0 0 -1 0 0 0 0 1 forward_v I I I I #
coedge $-1 $166 $164 $168 $242 reversed $101 $-1 #
edge $-1 $179 -6.6489659783264452 $244 6.6489659783264452 $178 $284 forward 7 unknown #
vertex $-1 $242 $285 #
straight-curve $-1 -57.95098727378155 -29.971202912538192 0 0 0 -1 I I #
edge $-1 $240 -29.971202912538192 $244 29.971202912538192 $238 $286 forward 7 unknown #
straight-curve $-1 0 -29.971202912538192 -6.6489659783264452 -1 0 0 I I #
vertex $-1 $171 $287 #
straight-curve $-1 0 29.971202912538192 -6.6489659783264452 1 0 0 I I #
point $-1 57.95098727378155 29.971202912538192 -6.6489659783264452 #
point $-1 57.95098727378155 -29.971202912538192 -6.6489659783264452 #
straight-curve $-1 -57.95098727378155 0 6.6489659783264452 0 -1 0 I I #
point $-1 -57.95098727378155 29.971202912538192 6.6489659783264452 #
point $-1 -57.95098727378155 -29.971202912538192 6.6489659783264452 #
straight-curve $-1 57.95098727378155 -29.971202912538192 0 0 0 -1 I I #
straight-curve $-1 57.95098727378155 29.971202912538192 0 0 0 -1 I I #
plane-surface $-1 57.95098727378155 0 0 -1 0 0 0 0 1 forward_v I I I I #
coedge $-1 $192 $191 $202 $264 reversed $71 $-1 #
edge $-1 $198 25.379453427638314 $288 29.971202912538192 $192 $289 forward 7 unknown #
straight-curve $-1 -57.95098727378155 -25.379453427638314 2.4220827373698195 0 0 -1 I I #
straight-curve $-1 57.95098727378155 -25.379453427638314 2.4220827373698195 0 0 1 I I #
coedge $-1 $196 $195 $263 $290 forward $189 $-1 #
edge $-1 $267 -29.971202912538192 $197 -25.379453427638314 $207 $291 forward 7 unknown #
point $-1 57.95098727378155 -25.379453427638314 6.6489659783264461 #
point $-1 -57.95098727378155 -25.379453427638314 6.6489659783264461 #
straight-curve $-1 -57.95098727378155 -13.837664085044127 3.0393649711528319 0 -1 0 I I #
coedge $-1 $202 $201 $258 $290 reversed $120 $-1 #
edge $-1 $288 -6.6489659783264452 $203 -3.0393649711528319 $254 $292 forward 7 unknown #
point $-1 -57.95098727378155 -29.971202912538192 3.0393649711528319 #
point $-1 -57.95098727378155 -25.379453427638314 3.0393649711528319 #
vertex $-1 $259 $293 #
straight-curve $-1 57.95098727378155 -29.971202912538192 0 0 0 -1 I I #
coedge $-1 $213 $273 $215 $271 reversed $139 $-1 #
straight-curve $-1 -57.95098727378155 -17.285406857727043 36.656997243290398 0 0 -1 I I #
edge $-1 $216 17.285406857727043 $278 25.379453427638314 $269 $294 forward 7 unknown #
point $-1 -57.95098727378155 -17.285406857727043 6.6489659783264452 #
coedge $-1 $269 $218 $221 $275 forward $139 $-1 #
straight-curve $-1 -57.95098727378155 -10.666215071341339 1.9576150679952655 0 -1 0 I I #
edge $-1 $222 -34.699382175295135 $278 -30.008031264963954 $273 $295 forward 7 unknown #
point $-1 -57.95098727378155 -25.379453427638314 1.9576150679952633 #
point $-1 -57.95098727378155 -17.285406857727043 1.9576150679952633 #
vertex $-1 $275 $296 #
straight-curve $-1 0 -25.379453427638314 6.6489659783264452 1 0 0 I I #
vertex $-1 $229 $297 #
point $-1 -52.701994926775875 -23.066868693377952 2.9031637422784655 #
vertex $-1 $233 $298 #
point $-1 -52.701994926775875 -19.597991591987409 2.9031637422784655 #
straight-curve $-1 -57.95098727378155 29.971202912538192 0 0 0 -1 I I #
point $-1 -57.95098727378155 -29.971202912538192 -6.6489659783264452 #
straight-curve $-1 -57.95098727378155 0 -6.6489659783264452 0 1 0 I I #
point $-1 -57.95098727378155 29.971202912538192 -6.6489659783264452 #
vertex $-1 $255 $299 #
straight-curve $-1 -57.95098727378155 0 6.6489659783264452 0 -1 0 I I #
edge $-1 $288 -57.95098727378155 $267 57.95098727378155 $263 $300 forward 7 unknown #
straight-curve $-1 57.95098727378155 0 6.6489659783264452 0 1 0 I I #
straight-curve $-1 -57.95098727378155 -29.971202912538192 0 0 0 -1 I I #
point $-1 57.95098727378155 -29.971202912538192 6.6489659783264452 #
straight-curve $-1 -57.95098727378155 0 6.6489659783264452 0 -1 0 I I #
straight-curve $-1 -57.95098727378155 -25.379453427638314 36.656997243290398 0 0 1 I I #
point $-1 -57.95098727378155 -25.379453427638314 6.6489659783264461 #
point $-1 -52.52964562967523 -23.066868693377952 1.4994915156568402 #
point $-1 -52.52964562967523 -19.597991591987409 1.4994915156568402 #
point $-1 -57.95098727378155 -29.971202912538192 6.6489659783264452 #
straight-curve $-1 0 -29.971202912538192 6.6489659783264452 1 0 0 I I #
End-of-ACIS-data 