500 0 10 0           
7 Unknown 11 ACIS 5.0 NT 24 Fri Mar 26 16:43:09 1999 
-1 9.9999999999999995e-007 1e-010 
body $-1 $10 $-1 $11 #
body $-1 $12 $-1 $13 #
body $-1 $14 $-1 $15 #
body $-1 $16 $-1 $17 #
body $-1 $18 $-1 $19 #
body $-1 $20 $-1 $21 #
body $-1 $22 $-1 $23 #
body $-1 $24 $-1 $25 #
body $-1 $26 $-1 $27 #
body $-1 $28 $-1 $29 #
lump $-1 $-1 $30 $0 #
transform $-1 1 0 0 0 1 0 0 0 1 63.544419690542313 29.389609240034172 11.524795283274242 1 rotate no_reflect no_shear #
lump $-1 $-1 $31 $1 #
transform $-1 1 0 0 0 1 0 0 0 1 63.544419690542313 29.389609240034172 11.524795283274242 1 rotate no_reflect no_shear #
lump $-1 $-1 $32 $2 #
transform $-1 1 0 0 0 1 0 0 0 1 63.544419690542313 29.389609240034172 11.524795283274242 1 rotate no_reflect no_shear #
lump $-1 $-1 $33 $3 #
transform $-1 1 0 0 0 1 0 0 0 1 63.544419690542313 29.389609240034172 11.524795283274242 1 rotate no_reflect no_shear #
lump $-1 $-1 $34 $4 #
transform $-1 1 0 0 0 1 0 0 0 1 63.544419690542313 29.389609240034172 11.524795283274242 1 rotate no_reflect no_shear #
lump $-1 $-1 $35 $5 #
transform $-1 1 0 0 0 1 0 0 0 1 63.544419690542313 29.389609240034172 11.524795283274242 1 rotate no_reflect no_shear #
lump $-1 $-1 $36 $6 #
transform $-1 1 0 0 0 1 0 0 0 1 63.544419690542313 29.389609240034172 11.524795283274242 1 rotate no_reflect no_shear #
lump $-1 $-1 $37 $7 #
transform $-1 1 0 0 0 1 0 0 0 1 63.544419690542313 29.389609240034172 11.524795283274242 1 rotate no_reflect no_shear #
lump $-1 $-1 $38 $8 #
transform $-1 1 0 0 0 1 0 0 0 1 63.544419690542313 29.389609240034172 11.524795283274242 1 rotate no_reflect no_shear #
lump $-1 $-1 $39 $9 #
transform $-1 1 0 0 0 1 0 0 0 1 63.544419690542313 29.389609240034172 11.524795283274242 1 rotate no_reflect no_shear #
shell $-1 $-1 $-1 $40 $-1 $10 #
shell $-1 $-1 $-1 $41 $-1 $12 #
shell $-1 $-1 $-1 $42 $-1 $14 #
shell $-1 $-1 $-1 $43 $-1 $16 #
shell $-1 $-1 $-1 $44 $-1 $18 #
shell $-1 $-1 $-1 $45 $-1 $20 #
shell $-1 $-1 $-1 $46 $-1 $22 #
shell $-1 $-1 $-1 $47 $-1 $24 #
shell $-1 $-1 $-1 $48 $-1 $26 #
shell $-1 $-1 $-1 $49 $-1 $28 #
face $-1 $50 $51 $30 $-1 $52 forward single #
face $-1 $53 $54 $31 $-1 $55 forward single #
face $-1 $56 $57 $32 $-1 $58 forward single #
face $-1 $59 $60 $33 $-1 $61 reversed single #
face $-1 $62 $63 $34 $-1 $64 forward single #
face $-1 $65 $66 $35 $-1 $67 reversed single #
face $-1 $68 $69 $36 $-1 $70 forward single #
face $-1 $71 $72 $37 $-1 $73 reversed single #
face $-1 $74 $75 $38 $-1 $76 forward single #
face $-1 $77 $78 $39 $-1 $79 forward single #
face $-1 $80 $81 $30 $-1 $82 reversed single #
loop $-1 $-1 $83 $40 #
plane-surface $-1 0 0 11.524795283274242 0 0 1 1 0 0 forward_v I I I I #
face $-1 $84 $85 $31 $-1 $86 reversed single #
loop $-1 $-1 $87 $41 #
plane-surface $-1 -63.544419690542313 0 0 1 0 0 0 0 -1 forward_v I I I I #
face $-1 $88 $89 $32 $-1 $90 forward single #
loop $-1 $-1 $91 $42 #
plane-surface $-1 63.544419690542313 0 0 -1 0 0 0 0 1 forward_v I I I I #
face $-1 $92 $93 $33 $-1 $94 reversed single #
loop $-1 $-1 $95 $43 #
plane-surface $-1 -34.711495906416921 88.962756717929935 129.01014911707625 1 0 0 0 -0.7660444514056185 -0.64278759981090561 forward_v I I I I #
face $-1 $96 $97 $34 $-1 $98 forward single #
loop $-1 $99 $100 $44 #
cone-surface $-1 -21.409073053508578 24.26895675087318 5.8619407417263885 0 -0.7660444514056185 -0.64278759981090561 1.5 0 0 1 I I 0 1 1.5 forward I I I I #
face $-1 $101 $102 $35 $-1 $103 reversed single #
loop $-1 $-1 $104 $45 #
plane-surface $-1 8.1066502006002352 88.962756717929935 129.01014911707625 1 0 0 0 -0.7660444514056185 -0.64278759981090561 forward_v I I I I #
face $-1 $105 $106 $36 $-1 $107 forward single #
loop $-1 $108 $109 $46 #
cone-surface $-1 21.409073053508578 24.26895675087318 5.8619407417263885 0 -0.7660444514056185 -0.64278759981090561 1.5 0 0 1 I I 0 1 1.5 forward I I I I #
face $-1 $110 $111 $37 $-1 $112 reversed single #
loop $-1 $-1 $113 $47 #
plane-surface $-1 32.562016279598787 -94.845201288135414 112.33361898635341 -1 0 0 0 -0.51503808176128008 0.85716729658548041 forward_v I I I I #
face $-1 $114 $115 $38 $-1 $116 forward single #
loop $-1 $117 $118 $48 #
cone-surface $-1 19.387513437099273 -21.124734300337224 4.9619292937091783 0 0.51503808176128008 -0.85716729658548041 2.5 0 0 1 I I 0 1 2.5 forward I I I I #
face $-1 $119 $120 $39 $-1 $121 forward single #
loop $-1 $122 $123 $49 #
cone-surface $-1 27.292215142598977 -21.124734300337224 4.9619292937091783 0 0.51503808176128008 -0.85716729658548041 2.5 0 0 1 I I 0 1 2.5 forward I I I I #
face $-1 $124 $125 $30 $-1 $126 reversed single #
loop $-1 $-1 $127 $50 #
plane-surface $-1 0 0 -11.524795283274242 0 0 1 1 0 0 forward_v I I I I #
coedge $-1 $128 $129 $130 $131 forward $51 $-1 #
face $-1 $132 $133 $31 $-1 $134 reversed single #
loop $-1 $-1 $135 $53 #
plane-surface $-1 0 29.389609240034172 0 0 -1 0 0 0 -1 forward_v I I I I #
coedge $-1 $136 $137 $138 $139 forward $54 $-1 #
face $-1 $140 $141 $32 $-1 $142 reversed single #
loop $-1 $-1 $143 $56 #
plane-surface $-1 0 0 11.524795283274242 0 0 1 1 0 0 forward_v I I I I #
coedge $-1 $144 $145 $146 $147 forward $57 $-1 #
face $-1 $148 $149 $33 $-1 $150 reversed single #
loop $-1 $-1 $151 $59 #
plane-surface $-1 -21.409073053508578 -8.3929435255297875 47.31901908855518 0 0.7660444514056185 0.64278759981090561 1 0 0 forward_v I I I I #
coedge $-1 $152 $153 $154 $155 reversed $60 $-1 #
face $-1 $-1 $156 $34 $-1 $157 forward single #
loop $-1 $158 $159 $62 #
cone-surface $-1 -21.409073053508578 22.447587702470944 4.3336306849873498 0 -0.7660444514056185 -0.64278759981090561 0.75 0 0 1 I I -0.70710678118654757 0.70710678118654757 0.75 forward I I I I #
loop $-1 $-1 $160 $44 #
coedge $-1 $100 $100 $161 $162 reversed $63 $-1 #
face $-1 $163 $164 $35 $-1 $165 reversed single #
loop $-1 $-1 $166 $65 #
plane-surface $-1 21.409073053508578 -8.3929435255297875 47.31901908855518 0 0.7660444514056185 0.64278759981090561 1 0 0 forward_v I I I I #
coedge $-1 $167 $168 $169 $170 reversed $66 $-1 #
face $-1 $-1 $171 $36 $-1 $172 forward single #
loop $-1 $173 $174 $68 #
cone-surface $-1 21.409073053508578 22.447587702470944 4.3336306849873498 0 -0.7660444514056185 -0.64278759981090561 0.75 0 0 1 I I -0.70710678118654757 0.70710678118654757 0.75 forward I I I I #
loop $-1 $-1 $175 $46 #
coedge $-1 $109 $109 $176 $177 reversed $69 $-1 #
face $-1 $178 $179 $37 $-1 $180 reversed single #
loop $-1 $-1 $181 $71 #
plane-surface $-1 23.339864289849132 -29.389609240034162 3.3972221078827829 0 -0.51503808176128008 0.85716729658548041 1 0 0 forward_v I I I I #
coedge $-1 $182 $183 $184 $185 reversed $72 $-1 #
face $-1 $-1 $186 $38 $-1 $187 forward single #
loop $-1 $188 $189 $74 #
cone-surface $-1 19.387513437099273 -18.979338274543 1.3913907711079965 0 0.51503808176128008 -0.85716729658548041 1.25 0 0 1 I I -0.70710678118654746 0.70710678118654746 1.25 forward I I I I #
loop $-1 $-1 $190 $48 #
coedge $-1 $118 $118 $191 $192 reversed $75 $-1 #
face $-1 $-1 $193 $39 $-1 $194 forward single #
loop $-1 $195 $196 $77 #
cone-surface $-1 27.292215142598977 -18.979338274543 1.3913907711079965 0 0.51503808176128008 -0.85716729658548041 1.25 0 0 1 I I -0.70710678118654746 0.70710678118654746 1.25 forward I I I I #
loop $-1 $-1 $197 $49 #
coedge $-1 $123 $123 $198 $199 reversed $78 $-1 #
face $-1 $200 $201 $30 $-1 $202 reversed single #
loop $-1 $-1 $203 $80 #
plane-surface $-1 0 -29.389609240034172 0 0 1 0 0 0 1 forward_v I I I I #
coedge $-1 $204 $205 $206 $207 forward $81 $-1 #
coedge $-1 $208 $83 $209 $210 forward $51 $-1 #
coedge $-1 $83 $208 $211 $212 forward $51 $-1 #
coedge $-1 $213 $214 $83 $131 reversed $215 $-1 #
edge $-1 $216 -29.389609240034172 $217 29.389609240034172 $130 $218 forward 7 unknown #
face $-1 $219 $220 $31 $-1 $221 reversed single #
loop $-1 $-1 $138 $84 #
plane-surface $-1 -67.831023102591686 0 7.3014169818581713 0 0 1 1 0 0 forward_v I I I I #
coedge $-1 $222 $223 $136 $224 forward $85 $-1 #
coedge $-1 $225 $87 $135 $224 reversed $54 $-1 #
coedge $-1 $87 $225 $226 $227 reversed $54 $-1 #
coedge $-1 $228 $229 $87 $139 reversed $133 $-1 #
edge $-1 $230 -29.389609240034172 $231 29.389609240034172 $138 $232 forward 7 unknown #
face $-1 $233 $234 $32 $-1 $235 reversed single #
loop $-1 $-1 $236 $88 #
plane-surface $-1 0 -29.389609240034172 0 0 1 0 0 0 1 forward_v I I I I #
coedge $-1 $237 $238 $239 $240 forward $89 $-1 #
coedge $-1 $239 $91 $236 $241 reversed $57 $-1 #
coedge $-1 $91 $239 $242 $243 reversed $57 $-1 #
coedge $-1 $244 $245 $91 $147 reversed $234 $-1 #
edge $-1 $246 -29.389609240034172 $247 29.389609240034172 $146 $248 forward 7 unknown #
face $-1 $249 $250 $33 $-1 $251 reversed single #
loop $-1 $-1 $252 $92 #
plane-surface $-1 -8.1066502006002352 88.962756717929935 129.01014911707625 -1 0 0 0 0.7660444514056185 0.64278759981090561 forward_v I I I I #
coedge $-1 $253 $254 $255 $256 reversed $93 $-1 #
coedge $-1 $153 $95 $257 $258 reversed $60 $-1 #
coedge $-1 $95 $152 $253 $259 reversed $60 $-1 #
coedge $-1 $255 $260 $95 $155 forward $261 $-1 #
edge $-1 $262 15.091769118930795 $263 22.839402677556727 $154 $264 forward 7 unknown #
loop $-1 $-1 $161 $96 #
plane-surface $-1 -21.409073053508578 -8.3929435255297875 47.31901908855518 0 0.7660444514056185 0.64278759981090561 1 0 0 forward_v I I I I #
loop $-1 $-1 $265 $62 #
coedge $-1 $159 $159 $160 $266 reversed $97 $-1 #
coedge $-1 $160 $160 $159 $266 forward $99 $-1 #
coedge $-1 $161 $161 $100 $162 forward $156 $-1 #
edge $-1 $267 -9.0717886702598875e-016 $267 6.2831853071795996 $161 $268 forward 7 unknown #
face $-1 $269 $270 $35 $-1 $271 forward single #
loop $-1 $-1 $272 $101 #
plane-surface $-1 34.711495906416921 88.962756717929935 129.01014911707625 -1 0 0 0 0.7660444514056185 0.64278759981090561 forward_v I I I I #
coedge $-1 $273 $274 $275 $276 reversed $102 $-1 #
coedge $-1 $168 $104 $277 $278 reversed $66 $-1 #
coedge $-1 $104 $167 $273 $279 reversed $66 $-1 #
coedge $-1 $275 $280 $104 $170 forward $270 $-1 #
edge $-1 $281 15.091769118930795 $282 22.839402677556727 $169 $283 forward 7 unknown #
loop $-1 $-1 $176 $105 #
plane-surface $-1 21.409073053508578 -8.3929435255297875 47.31901908855518 0 0.7660444514056185 0.64278759981090561 1 0 0 forward_v I I I I #
loop $-1 $-1 $284 $68 #
coedge $-1 $174 $174 $175 $285 reversed $106 $-1 #
coedge $-1 $175 $175 $174 $285 forward $108 $-1 #
coedge $-1 $176 $176 $109 $177 forward $171 $-1 #
edge $-1 $286 -9.0717886702598875e-016 $286 6.2831853071795996 $176 $287 forward 7 unknown #
face $-1 $288 $289 $37 $-1 $290 reversed single #
loop $-1 $-1 $291 $110 #
plane-surface $-1 14.117712300099477 -94.845201288135414 112.33361898635341 1 0 0 0 0.51503808176128008 -0.85716729658548041 forward_v I I I I #
coedge $-1 $292 $293 $294 $295 reversed $111 $-1 #
coedge $-1 $183 $113 $296 $297 reversed $72 $-1 #
coedge $-1 $113 $182 $292 $298 reversed $72 $-1 #
coedge $-1 $294 $299 $113 $185 forward $300 $-1 #
edge $-1 $301 18.032991404033535 $302 31.559544436242188 $184 $303 forward 7 unknown #
loop $-1 $-1 $191 $114 #
plane-surface $-1 23.339864289849132 -29.389609240034162 3.3972221078827829 0 -0.51503808176128008 0.85716729658548041 1 0 0 forward_v I I I I #
loop $-1 $-1 $304 $74 #
coedge $-1 $189 $189 $190 $305 reversed $115 $-1 #
coedge $-1 $190 $190 $189 $305 forward $117 $-1 #
coedge $-1 $191 $191 $118 $192 forward $186 $-1 #
edge $-1 $306 3.6595656763529409e-016 $306 6.2831853071796004 $191 $307 forward 7 unknown #
loop $-1 $-1 $198 $119 #
plane-surface $-1 23.339864289849132 -29.389609240034162 3.3972221078827829 0 -0.51503808176128008 0.85716729658548041 1 0 0 forward_v I I I I #
loop $-1 $-1 $308 $77 #
coedge $-1 $196 $196 $197 $309 reversed $120 $-1 #
coedge $-1 $197 $197 $196 $309 forward $122 $-1 #
coedge $-1 $198 $198 $123 $199 forward $193 $-1 #
edge $-1 $310 3.6595656763529409e-016 $310 6.2831853071796004 $198 $311 forward 7 unknown #
face $-1 $312 $313 $30 $-1 $314 reversed single #
loop $-1 $-1 $315 $124 #
plane-surface $-1 -63.544419690542313 0 0 1 0 0 0 0 -1 forward_v I I I I #
coedge $-1 $316 $211 $317 $318 forward $125 $-1 #
coedge $-1 $319 $127 $316 $320 forward $81 $-1 #
coedge $-1 $127 $319 $321 $322 forward $81 $-1 #
coedge $-1 $214 $213 $127 $207 reversed $215 $-1 #
edge $-1 $323 -29.389609240034172 $324 29.389609240034172 $206 $325 forward 7 unknown #
coedge $-1 $129 $128 $326 $327 forward $51 $-1 #
coedge $-1 $328 $329 $128 $210 reversed $313 $-1 #
edge $-1 $217 -63.544419690542313 $330 63.544419690542313 $209 $331 forward 7 unknown #
coedge $-1 $203 $332 $129 $212 reversed $125 $-1 #
edge $-1 $333 -63.544419690542313 $216 63.544419690542313 $211 $334 forward 7 unknown #
coedge $-1 $206 $130 $332 $335 forward $215 $-1 #
coedge $-1 $130 $206 $328 $336 reversed $215 $-1 #
loop $-1 $-1 $213 $312 #
vertex $-1 $131 $337 #
vertex $-1 $131 $338 #
straight-curve $-1 63.544419690542313 0 11.524795283274242 0 1 0 I I #
face $-1 $339 $340 $31 $-1 $341 forward single #
loop $-1 $-1 $342 $132 #
plane-surface $-1 -72.11762651464106 0 9.4131061325662078 1 0 0 0 0 -1 forward_v I I I I #
coedge $-1 $343 $135 $229 $344 reversed $85 $-1 #
coedge $-1 $135 $343 $345 $346 reversed $85 $-1 #
edge $-1 $347 -11.524795283274242 $231 -7.3014169818581713 $135 $348 forward 7 unknown #
coedge $-1 $137 $136 $349 $350 reversed $54 $-1 #
coedge $-1 $351 $352 $137 $227 forward $353 $-1 #
edge $-1 $230 7.3014169818581713 $354 11.524795283274242 $226 $355 forward 7 unknown #
coedge $-1 $356 $138 $352 $357 forward $133 $-1 #
coedge $-1 $138 $356 $222 $344 forward $133 $-1 #
vertex $-1 $227 $358 #
vertex $-1 $224 $359 #
straight-curve $-1 -63.544419690542313 0 7.3014169818581713 0 1 0 I I #
face $-1 $360 $361 $32 $-1 $362 reversed single #
loop $-1 $-1 $363 $140 #
plane-surface $-1 67.831023102591686 0 7.3014169818581713 0 0 1 1 0 0 forward_v I I I I #
coedge $-1 $364 $365 $144 $241 forward $141 $-1 #
coedge $-1 $366 $143 $365 $367 forward $89 $-1 #
coedge $-1 $143 $366 $368 $369 forward $89 $-1 #
coedge $-1 $145 $144 $143 $240 reversed $57 $-1 #
edge $-1 $370 -29.389609240034172 $371 29.389609240034172 $143 $372 forward 7 unknown #
edge $-1 $371 -11.524795283274242 $247 -7.3014169818581713 $236 $373 forward 7 unknown #
coedge $-1 $368 $374 $145 $243 forward $375 $-1 #
edge $-1 $246 7.3014169818581713 $370 11.524795283274242 $242 $376 forward 7 unknown #
coedge $-1 $363 $146 $374 $377 forward $234 $-1 #
coedge $-1 $146 $363 $364 $378 forward $234 $-1 #
vertex $-1 $243 $379 #
vertex $-1 $241 $380 #
straight-curve $-1 63.544419690542313 0 7.3014169818581713 0 -1 0 I I #
face $-1 $-1 $261 $33 $-1 $381 forward single #
loop $-1 $-1 $382 $148 #
plane-surface $-1 0 29.389609240034172 0 0 -1 0 0 0 -1 forward_v I I I I #
coedge $-1 $383 $384 $385 $386 reversed $149 $-1 #
coedge $-1 $387 $151 $153 $259 forward $93 $-1 #
coedge $-1 $151 $387 $383 $388 forward $93 $-1 #
coedge $-1 $385 $154 $151 $256 forward $261 $-1 #
edge $-1 $263 -24.006959379662632 $389 2.5978863261540539 $255 $390 forward 7 unknown #
coedge $-1 $391 $392 $152 $258 forward $250 $-1 #
edge $-1 $393 -62.213549644597897 $262 -52.980279275263882 $257 $394 forward 7 unknown #
edge $-1 $263 46.72604016594854 $393 58.779218480068359 $153 $395 forward 7 unknown #
coedge $-1 $154 $385 $391 $396 forward $261 $-1 #
loop $-1 $-1 $385 $249 #
vertex $-1 $258 $397 #
vertex $-1 $155 $398 #
straight-curve $-1 -34.711495906416921 44.481378358964967 11.524795283274244 0 -1 0 I I #
coedge $-1 $265 $265 $-1 $399 reversed $158 $-1 #
edge $-1 $400 0 $400 6.2831853071796004 $159 $401 forward 7 unknown #
vertex $-1 $162 $402 #
ellipse-curve $-1 -21.409073053508578 25.515792460721201 6.9081600986072456 0 0.7660444514056185 0.64278759981090561 1.5 0 0 1 I I #
face $-1 $-1 $403 $35 $-1 $404 reversed single #
loop $-1 $-1 $169 $163 #
plane-surface $-1 0 0 11.524795283274242 0 0 1 1 0 0 forward_v I I I I #
coedge $-1 $405 $406 $407 $408 reversed $164 $-1 #
coedge $-1 $409 $166 $168 $279 forward $102 $-1 #
coedge $-1 $166 $409 $405 $410 forward $102 $-1 #
coedge $-1 $407 $169 $166 $276 forward $270 $-1 #
edge $-1 $282 -2.5978863261540539 $411 24.006959379662632 $275 $412 forward 7 unknown #
coedge $-1 $413 $414 $167 $278 forward $403 $-1 #
edge $-1 $415 -62.213549644597897 $281 -52.980279275263882 $277 $416 forward 7 unknown #
edge $-1 $282 46.72604016594854 $415 58.779218480068359 $168 $417 forward 7 unknown #
coedge $-1 $169 $407 $413 $418 forward $270 $-1 #
vertex $-1 $170 $419 #
vertex $-1 $170 $420 #
straight-curve $-1 8.1066502006002352 44.481378358964967 11.524795283274244 0 -1 0 I I #
coedge $-1 $284 $284 $-1 $421 reversed $173 $-1 #
edge $-1 $422 0 $422 6.2831853071796004 $174 $423 forward 7 unknown #
vertex $-1 $177 $424 #
ellipse-curve $-1 21.409073053508578 25.515792460721201 6.9081600986072456 0 0.7660444514056185 0.64278759981090561 1.5 0 0 1 I I #
face $-1 $-1 $300 $37 $-1 $425 forward single #
loop $-1 $-1 $426 $178 #
plane-surface $-1 0 -29.389609240034172 0 0 1 0 0 0 1 forward_v I I I I #
coedge $-1 $427 $428 $429 $430 reversed $179 $-1 #
coedge $-1 $431 $181 $183 $298 forward $111 $-1 #
coedge $-1 $181 $431 $427 $432 forward $111 $-1 #
coedge $-1 $429 $184 $181 $295 forward $300 $-1 #
edge $-1 $302 -20.892084134674221 $433 -2.447780155174911 $294 $434 forward 7 unknown #
coedge $-1 $435 $436 $182 $297 forward $289 $-1 #
edge $-1 $437 -52.769587385293931 $301 -44.642014209902463 $296 $438 forward 7 unknown #
edge $-1 $302 -15.780528592366469 $437 1.2337929905607871e-014 $183 $439 forward 7 unknown #
coedge $-1 $184 $429 $435 $440 forward $300 $-1 #
loop $-1 $-1 $429 $288 #
vertex $-1 $297 $441 #
vertex $-1 $185 $442 #
straight-curve $-1 32.562016279598787 -47.422600644067707 11.524795283274244 0 1 0 I I #
coedge $-1 $304 $304 $-1 $443 reversed $188 $-1 #
edge $-1 $444 0 $444 6.2831853071796004 $189 $445 forward 7 unknown #
vertex $-1 $192 $446 #
ellipse-curve $-1 19.387513437099273 -22.626332723929846 7.4610086955785082 0 -0.51503808176128008 0.85716729658548041 2.5 0 0 1 I I #
coedge $-1 $308 $308 $-1 $447 reversed $195 $-1 #
edge $-1 $448 0 $448 6.2831853071796004 $196 $449 forward 7 unknown #
vertex $-1 $199 $450 #
ellipse-curve $-1 27.292215142598977 -22.626332723929846 7.4610086955785082 0 -0.51503808176128008 0.85716729658548041 2.5 0 0 1 I I #
face $-1 $-1 $215 $30 $-1 $451 reversed single #
loop $-1 $-1 $328 $200 #
plane-surface $-1 0 29.389609240034172 0 0 -1 0 0 0 -1 forward_v I I I I #
coedge $-1 $452 $326 $329 $453 forward $201 $-1 #
coedge $-1 $332 $203 $204 $320 reversed $125 $-1 #
coedge $-1 $326 $452 $203 $318 reversed $201 $-1 #
edge $-1 $333 -11.524795283274242 $454 11.524795283274242 $317 $455 forward 7 unknown #
coedge $-1 $205 $204 $452 $456 forward $81 $-1 #
edge $-1 $324 -63.544419690542313 $454 63.544419690542313 $316 $457 forward 7 unknown #
coedge $-1 $329 $328 $205 $322 reversed $313 $-1 #
edge $-1 $458 -63.544419690542313 $323 63.544419690542313 $321 $459 forward 7 unknown #
vertex $-1 $207 $460 #
vertex $-1 $335 $461 #
straight-curve $-1 63.544419690542313 0 -11.524795283274242 0 -1 0 I I #
coedge $-1 $315 $317 $208 $327 reversed $201 $-1 #
edge $-1 $330 -29.389609240034172 $333 29.389609240034172 $326 $462 forward 7 unknown #
coedge $-1 $321 $209 $214 $336 forward $313 $-1 #
coedge $-1 $209 $321 $315 $453 reversed $313 $-1 #
vertex $-1 $210 $463 #
straight-curve $-1 0 29.389609240034172 11.524795283274242 -1 0 0 I I #
coedge $-1 $211 $316 $213 $335 reversed $125 $-1 #
vertex $-1 $327 $464 #
straight-curve $-1 0 -29.389609240034172 11.524795283274242 1 0 0 I I #
edge $-1 $216 -11.524795283274242 $324 11.524795283274242 $213 $465 forward 7 unknown #
edge $-1 $217 -11.524795283274242 $323 11.524795283274242 $214 $466 forward 7 unknown #
point $-1 63.544419690542313 -29.389609240034172 11.524795283274242 #
point $-1 63.544419690542313 29.389609240034172 11.524795283274242 #
face $-1 $-1 $353 $31 $-1 $467 reversed single #
loop $-1 $-1 $349 $219 #
plane-surface $-1 0 0 11.524795283274242 0 0 1 1 0 0 forward_v I I I I #
coedge $-1 $468 $469 $343 $470 forward $220 $-1 #
coedge $-1 $223 $222 $342 $470 reversed $85 $-1 #
edge $-1 $471 -4.2866034120493737 $231 4.2866034120493737 $222 $472 forward 7 unknown #
coedge $-1 $473 $349 $223 $346 forward $340 $-1 #
edge $-1 $347 63.544419690542313 $474 72.11762651464106 $223 $475 forward 7 unknown #
vertex $-1 $346 $476 #
straight-curve $-1 -63.544419690542313 29.389609240034172 0 0 0 -1 I I #
coedge $-1 $345 $477 $225 $350 forward $340 $-1 #
edge $-1 $354 -29.389609240034172 $347 29.389609240034172 $349 $478 forward 7 unknown #
coedge $-1 $479 $226 $477 $480 reversed $353 $-1 #
coedge $-1 $226 $479 $228 $357 reversed $353 $-1 #
loop $-1 $-1 $226 $339 #
vertex $-1 $227 $481 #
straight-curve $-1 -63.544419690542313 -29.389609240034172 0 0 0 1 I I #
coedge $-1 $229 $228 $468 $482 forward $133 $-1 #
edge $-1 $230 -4.2866034120493737 $483 4.2866034120493737 $352 $484 forward 7 unknown #
point $-1 -63.544419690542313 -29.389609240034172 7.3014169818581713 #
point $-1 -63.544419690542313 29.389609240034172 7.3014169818581713 #
face $-1 $-1 $375 $32 $-1 $485 reversed single #
loop $-1 $-1 $486 $233 #
plane-surface $-1 72.11762651464106 0 9.4131061325662078 -1 0 0 0 0 1 forward_v I I I I #
coedge $-1 $245 $244 $487 $488 forward $234 $-1 #
coedge $-1 $489 $236 $245 $378 reversed $141 $-1 #
coedge $-1 $236 $489 $237 $367 reversed $141 $-1 #
coedge $-1 $238 $237 $490 $491 forward $89 $-1 #
edge $-1 $371 -4.2866034120493737 $492 4.2866034120493737 $365 $493 forward 7 unknown #
coedge $-1 $494 $242 $238 $369 reversed $375 $-1 #
edge $-1 $495 -72.11762651464106 $370 -63.544419690542313 $368 $496 forward 7 unknown #
vertex $-1 $243 $497 #
vertex $-1 $367 $498 #
straight-curve $-1 63.544419690542313 0 11.524795283274242 0 -1 0 I I #
straight-curve $-1 63.544419690542313 -29.389609240034172 0 0 0 -1 I I #
coedge $-1 $242 $494 $244 $377 reversed $375 $-1 #
loop $-1 $-1 $242 $360 #
straight-curve $-1 63.544419690542313 29.389609240034172 0 0 0 1 I I #
edge $-1 $246 -4.2866034120493737 $499 4.2866034120493737 $374 $500 forward 7 unknown #
edge $-1 $501 -4.2866034120493737 $247 4.2866034120493737 $364 $502 forward 7 unknown #
point $-1 63.544419690542313 29.389609240034172 7.3014169818581713 #
point $-1 63.544419690542313 -29.389609240034172 7.3014169818581713 #
plane-surface $-1 0 0 11.524795283274242 0 0 1 1 0 0 forward_v I I I I #
coedge $-1 $392 $391 $384 $503 forward $250 $-1 #
coedge $-1 $384 $252 $254 $388 reversed $149 $-1 #
coedge $-1 $252 $383 $382 $503 reversed $149 $-1 #
coedge $-1 $260 $255 $252 $386 forward $261 $-1 #
edge $-1 $389 -22.839402677556727 $504 -15.091769118930795 $385 $505 forward 7 unknown #
coedge $-1 $254 $253 $392 $506 reversed $93 $-1 #
edge $-1 $507 -58.779218480068359 $389 -46.72604016594854 $383 $508 forward 7 unknown #
vertex $-1 $256 $509 #
straight-curve $-1 -10.704536526754289 21.64197568140824 11.524795283274244 1 0 0 I I #
coedge $-1 $382 $257 $260 $396 reversed $250 $-1 #
coedge $-1 $257 $382 $387 $506 forward $250 $-1 #
vertex $-1 $258 $510 #
straight-curve $-1 -34.711495906416921 29.389609240034172 64.505074558538126 0 0 1 I I #
straight-curve $-1 -34.711495906416921 -8.3929435255297875 47.31901908855518 0 0.64278759981090561 -0.7660444514056185 I I #
edge $-1 $504 8.1066502006002352 $262 34.711495906416921 $391 $511 forward 7 unknown #
point $-1 -34.711495906416921 29.389609240034172 11.524795283274242 #
point $-1 -34.711495906416921 21.64197568140824 11.524795283274244 #
edge $-1 $512 1 $512 0 $265 $-1 forward 7 unknown #
vertex $-1 $266 $513 #
ellipse-curve $-1 -21.409073053508578 23.022121041025159 4.8157213848455287 0 0.7660444514056185 0.64278759981090561 1.5 0 0 1 I I #
point $-1 -19.909073053508578 25.515792460721201 6.9081600986072473 #
loop $-1 $-1 $277 $269 #
plane-surface $-1 0 29.389609240034172 0 0 -1 0 0 0 -1 forward_v I I I I #
coedge $-1 $406 $272 $274 $410 reversed $164 $-1 #
coedge $-1 $272 $405 $514 $515 reversed $164 $-1 #
coedge $-1 $280 $275 $272 $408 forward $270 $-1 #
edge $-1 $411 -22.839402677556727 $516 -15.091769118930795 $407 $517 forward 7 unknown #
coedge $-1 $274 $273 $414 $518 reversed $102 $-1 #
edge $-1 $519 -58.779218480068359 $411 -46.72604016594854 $405 $520 forward 7 unknown #
vertex $-1 $276 $521 #
straight-curve $-1 10.704536526754289 21.64197568140824 11.524795283274244 1 0 0 I I #
coedge $-1 $514 $277 $280 $418 reversed $403 $-1 #
coedge $-1 $277 $514 $409 $518 forward $403 $-1 #
vertex $-1 $278 $522 #
straight-curve $-1 8.1066502006002352 29.389609240034172 64.505074558538126 0 0 1 I I #
straight-curve $-1 8.1066502006002352 -8.3929435255297875 47.31901908855518 0 0.64278759981090561 -0.7660444514056185 I I #
edge $-1 $516 -34.711495906416921 $281 -8.1066502006002352 $413 $523 forward 7 unknown #
point $-1 8.1066502006002352 29.389609240034172 11.524795283274242 #
point $-1 8.1066502006002352 21.64197568140824 11.524795283274244 #
edge $-1 $524 1 $524 0 $284 $-1 forward 7 unknown #
vertex $-1 $285 $525 #
ellipse-curve $-1 21.409073053508578 23.022121041025159 4.8157213848455287 0 0.7660444514056185 0.64278759981090561 1.5 0 0 1 I I #
point $-1 22.909073053508578 25.515792460721201 6.9081600986072473 #
plane-surface $-1 0 0 11.524795283274242 0 0 1 1 0 0 forward_v I I I I #
coedge $-1 $436 $435 $428 $526 forward $289 $-1 #
coedge $-1 $428 $291 $293 $432 reversed $179 $-1 #
coedge $-1 $291 $427 $426 $526 reversed $179 $-1 #
coedge $-1 $299 $294 $291 $430 forward $300 $-1 #
edge $-1 $433 -31.559544436242188 $527 -18.032991404033535 $429 $528 forward 7 unknown #
coedge $-1 $293 $292 $436 $529 reversed $111 $-1 #
edge $-1 $530 -1.2337929905607871e-014 $433 15.780528592366469 $427 $531 forward 7 unknown #
vertex $-1 $295 $532 #
straight-curve $-1 11.669932144924566 -15.863056207825519 11.524795283274242 -1 0 0 I I #
coedge $-1 $426 $296 $299 $440 reversed $289 $-1 #
coedge $-1 $296 $426 $431 $529 forward $289 $-1 #
vertex $-1 $297 $533 #
straight-curve $-1 32.562016279598787 -29.389609240034176 56.166809493176707 0 0 1 I I #
straight-curve $-1 32.562016279598787 -29.389609240034162 3.3972221078827829 0 -0.85716729658548041 -0.51503808176128008 I I #
edge $-1 $527 -53.713310802492209 $301 -35.2690068229929 $435 $534 forward 7 unknown #
point $-1 32.562016279598787 -29.389609240034172 11.524795283274244 #
point $-1 32.562016279598787 -15.863056207825519 11.524795283274242 #
edge $-1 $535 1 $535 0 $304 $-1 forward 7 unknown #
vertex $-1 $305 $536 #
ellipse-curve $-1 19.387513437099273 -19.623135876744602 2.4628498918398467 0 -0.51503808176128008 0.85716729658548041 2.5 0 0 1 I I #
point $-1 21.887513437099273 -22.626332723929846 7.46100869557851 #
edge $-1 $537 1 $537 0 $308 $-1 forward 7 unknown #
vertex $-1 $309 $538 #
ellipse-curve $-1 27.292215142598977 -19.623135876744602 2.4628498918398467 0 -0.51503808176128008 0.85716729658548041 2.5 0 0 1 I I #
point $-1 29.792215142598977 -22.626332723929846 7.46100869557851 #
plane-surface $-1 63.544419690542313 0 0 -1 0 0 0 0 1 forward_v I I I I #
coedge $-1 $317 $315 $319 $456 reversed $201 $-1 #
edge $-1 $330 -11.524795283274242 $458 11.524795283274242 $329 $539 forward 7 unknown #
vertex $-1 $456 $540 #
straight-curve $-1 -63.544419690542313 -29.389609240034172 0 0 0 -1 I I #
edge $-1 $454 -29.389609240034172 $458 29.389609240034172 $452 $541 forward 7 unknown #
straight-curve $-1 0 -29.389609240034172 -11.524795283274242 -1 0 0 I I #
vertex $-1 $322 $542 #
straight-curve $-1 0 29.389609240034172 -11.524795283274242 1 0 0 I I #
point $-1 63.544419690542313 29.389609240034172 -11.524795283274242 #
point $-1 63.544419690542313 -29.389609240034172 -11.524795283274242 #
straight-curve $-1 -63.544419690542313 0 11.524795283274242 0 -1 0 I I #
point $-1 -63.544419690542313 29.389609240034172 11.524795283274242 #
point $-1 -63.544419690542313 -29.389609240034172 11.524795283274242 #
straight-curve $-1 63.544419690542313 -29.389609240034172 0 0 0 -1 I I #
straight-curve $-1 63.544419690542313 29.389609240034172 0 0 0 -1 I I #
plane-surface $-1 0 -29.389609240034172 0 0 1 0 0 0 1 forward_v I I I I #
coedge $-1 $543 $342 $356 $482 reversed $220 $-1 #
coedge $-1 $342 $543 $473 $544 reversed $220 $-1 #
edge $-1 $474 -2.1116891507080364 $471 2.1116891507080364 $343 $545 forward 7 unknown #
vertex $-1 $344 $546 #
straight-curve $-1 -67.831023102591686 29.389609240034172 7.3014169818581713 1 0 0 I I #
coedge $-1 $477 $345 $469 $544 forward $340 $-1 #
vertex $-1 $346 $547 #
straight-curve $-1 0 29.389609240034172 11.524795283274242 -1 0 0 I I #
point $-1 -63.544419690542313 29.389609240034172 11.524795283274242 #
coedge $-1 $349 $473 $351 $480 forward $340 $-1 #
straight-curve $-1 -63.544419690542313 0 11.524795283274242 0 1 0 I I #
coedge $-1 $352 $351 $543 $548 forward $353 $-1 #
edge $-1 $549 -72.11762651464106 $354 -63.544419690542313 $351 $550 forward 7 unknown #
point $-1 -63.544419690542313 -29.389609240034172 11.524795283274242 #
edge $-1 $483 -29.389609240034172 $471 29.389609240034172 $468 $551 forward 7 unknown #
vertex $-1 $482 $552 #
straight-curve $-1 -67.831023102591686 -29.389609240034172 7.3014169818581713 -1 0 0 I I #
plane-surface $-1 0 29.389609240034172 0 0 -1 0 0 0 -1 forward_v I I I I #
coedge $-1 $487 $490 $489 $553 forward $361 $-1 #
coedge $-1 $554 $486 $363 $488 reversed $361 $-1 #
edge $-1 $499 -29.389609240034172 $501 29.389609240034172 $487 $555 forward 7 unknown #
coedge $-1 $365 $364 $486 $553 reversed $141 $-1 #
coedge $-1 $486 $554 $366 $491 reversed $361 $-1 #
edge $-1 $492 -29.389609240034172 $495 29.389609240034172 $490 $556 forward 7 unknown #
vertex $-1 $491 $557 #
straight-curve $-1 67.831023102591686 -29.389609240034172 11.524795283274244 1 0 0 I I #
coedge $-1 $374 $368 $554 $558 forward $375 $-1 #
vertex $-1 $491 $559 #
straight-curve $-1 0 29.389609240034172 11.524795283274242 -1 0 0 I I #
point $-1 63.544419690542313 29.389609240034172 11.524795283274242 #
point $-1 63.544419690542313 -29.389609240034172 11.524795283274242 #
vertex $-1 $488 $560 #
straight-curve $-1 67.831023102591686 29.389609240034172 7.3014169818581713 1 0 0 I I #
vertex $-1 $553 $561 #
straight-curve $-1 67.831023102591686 -29.389609240034172 7.3014169818581713 -1 0 0 I I #
edge $-1 $504 52.980279275263882 $507 62.213549644597897 $382 $562 forward 7 unknown #
vertex $-1 $396 $563 #
straight-curve $-1 -8.1066502006002352 44.481378358964967 11.524795283274244 0 1 0 I I #
edge $-1 $507 -2.5978863261540539 $393 24.006959379662632 $392 $564 forward 7 unknown #
vertex $-1 $506 $565 #
straight-curve $-1 -8.1066502006002352 -8.3929435255297875 47.31901908855518 0 -0.64278759981090561 0.7660444514056185 I I #
point $-1 -8.1066502006002352 21.64197568140824 11.524795283274244 #
point $-1 -34.711495906416921 29.389609240034176 2.2915249139402292 #
straight-curve $-1 0 29.389609240034172 11.524795283274242 -1 0 0 I I #
vertex $-1 $399 $566 #
point $-1 -19.909073053508578 23.022121041025159 4.8157213848455287 #
coedge $-1 $414 $413 $406 $515 forward $403 $-1 #
edge $-1 $516 52.980279275263882 $519 62.213549644597897 $514 $567 forward 7 unknown #
vertex $-1 $418 $568 #
straight-curve $-1 34.711495906416921 44.481378358964967 11.524795283274244 0 1 0 I I #
edge $-1 $519 -24.006959379662632 $415 2.5978863261540539 $414 $569 forward 7 unknown #
vertex $-1 $518 $570 #
straight-curve $-1 34.711495906416921 -8.3929435255297875 47.31901908855518 0 -0.64278759981090561 0.7660444514056185 I I #
point $-1 34.711495906416921 21.64197568140824 11.524795283274244 #
point $-1 8.1066502006002352 29.389609240034176 2.2915249139402292 #
straight-curve $-1 0 29.389609240034172 11.524795283274242 -1 0 0 I I #
vertex $-1 $421 $571 #
point $-1 22.909073053508578 23.022121041025159 4.8157213848455287 #
edge $-1 $527 44.642014209902463 $530 52.769587385293931 $426 $572 forward 7 unknown #
vertex $-1 $440 $573 #
straight-curve $-1 14.117712300099477 -47.422600644067707 11.524795283274244 0 -1 0 I I #
edge $-1 $530 2.447780155174911 $437 20.892084134674221 $436 $574 forward 7 unknown #
vertex $-1 $529 $575 #
straight-curve $-1 14.117712300099477 -29.389609240034162 3.3972221078827829 0 0.85716729658548041 0.51503808176128008 I I #
point $-1 14.117712300099477 -15.863056207825519 11.524795283274242 #
point $-1 32.562016279598787 -29.389609240034172 3.3972221078827767 #
straight-curve $-1 67.831023102591686 -29.389609240034172 11.524795283274244 1 0 0 I I #
vertex $-1 $443 $576 #
point $-1 21.887513437099273 -19.623135876744602 2.4628498918398467 #
vertex $-1 $447 $577 #
point $-1 29.792215142598977 -19.623135876744602 2.4628498918398467 #
straight-curve $-1 -63.544419690542313 29.389609240034172 0 0 0 -1 I I #
point $-1 -63.544419690542313 -29.389609240034172 -11.524795283274242 #
straight-curve $-1 -63.544419690542313 0 -11.524795283274242 0 1 0 I I #
point $-1 -63.544419690542313 29.389609240034172 -11.524795283274242 #
coedge $-1 $469 $468 $479 $548 reversed $220 $-1 #
edge $-1 $474 -29.389609240034172 $549 29.389609240034172 $469 $578 forward 7 unknown #
straight-curve $-1 -72.11762651464106 29.389609240034172 9.4131061325662078 0 0 -1 I I #
point $-1 -72.11762651464106 29.389609240034172 7.3014169818581713 #
point $-1 -72.11762651464106 29.389609240034172 11.524795283274244 #
edge $-1 $549 -2.1116891507080364 $483 2.1116891507080364 $543 $579 forward 7 unknown #
vertex $-1 $544 $580 #
straight-curve $-1 0 -29.389609240034172 11.524795283274242 1 0 0 I I #
straight-curve $-1 -72.11762651464106 0 7.3014169818581713 0 1 0 I I #
point $-1 -72.11762651464106 -29.389609240034172 7.3014169818581713 #
edge $-1 $492 -2.1116891507080364 $501 2.1116891507080364 $486 $581 forward 7 unknown #
coedge $-1 $490 $487 $494 $558 reversed $361 $-1 #
straight-curve $-1 72.11762651464106 0 7.3014169818581713 0 -1 0 I I #
straight-curve $-1 72.11762651464106 0 11.524795283274244 0 1 0 I I #
point $-1 72.11762651464106 -29.389609240034172 11.524795283274244 #
edge $-1 $495 -2.1116891507080364 $499 2.1116891507080364 $554 $582 forward 7 unknown #
point $-1 72.11762651464106 29.389609240034172 11.524795283274244 #
point $-1 72.11762651464106 29.389609240034172 7.3014169818581713 #
point $-1 72.11762651464106 -29.389609240034172 7.3014169818581713 #
straight-curve $-1 -8.1066502006002352 29.389609240034172 64.505074558538126 0 0 -1 I I #
point $-1 -8.1066502006002352 29.389609240034172 11.524795283274242 #
straight-curve $-1 -10.704536526754289 29.389609240034176 2.2915249139402327 -1 0 0 I I #
point $-1 -8.1066502006002352 29.389609240034176 2.2915249139402292 #
point $-1 -21.409073053508578 21.873054363916729 3.8515399851291705 #
straight-curve $-1 34.711495906416921 29.389609240034172 64.505074558538126 0 0 -1 I I #
point $-1 34.711495906416921 29.389609240034172 11.524795283274242 #
straight-curve $-1 10.704536526754289 29.389609240034176 2.2915249139402327 -1 0 0 I I #
point $-1 34.711495906416921 29.389609240034176 2.2915249139402292 #
point $-1 21.409073053508578 21.873054363916729 3.8515399851291705 #
straight-curve $-1 14.117712300099477 -29.389609240034176 56.166809493176707 0 0 -1 I I #
point $-1 14.117712300099477 -29.389609240034172 11.524795283274244 #
straight-curve $-1 11.669932144924566 -29.389609240034172 3.3972221078827776 1 0 0 I I #
point $-1 14.117712300099477 -29.389609240034172 3.3972221078827767 #
point $-1 19.387513437099273 -18.335540672341399 0.31993165037614602 #
point $-1 27.292215142598977 -18.335540672341399 0.31993165037614602 #
straight-curve $-1 -72.11762651464106 0 11.524795283274244 0 -1 0 I I #
straight-curve $-1 -72.11762651464106 -29.389609240034172 9.4131061325662078 0 0 -1 I I #
point $-1 -72.11762651464106 -29.389609240034172 11.524795283274244 #
straight-curve $-1 72.11762651464106 -29.389609240034172 9.4131061325662078 0 0 -1 I I #
straight-curve $-1 72.11762651464106 29.389609240034172 9.4131061325662078 0 0 -1 I I #
End-of-ACIS-data 