500 0 4 0           
7 Unknown 11 ACIS 5.0 NT 24 Fri Mar 26 18:53:29 1999 
-1 9.9999999999999995e-007 1e-010 
body $-1 $4 $-1 $5 #
body $-1 $6 $-1 $7 #
body $-1 $8 $-1 $9 #
body $-1 $10 $-1 $11 #
lump $-1 $-1 $12 $0 #
transform $-1 1 0 0 0 1 0 0 0 1 62.963347270119328 26.092693642413114 9.5601807548251259 1 rotate no_reflect no_shear #
lump $-1 $-1 $13 $1 #
transform $-1 1 0 0 0 1 0 0 0 1 62.963347270119328 26.092693642413114 9.5601807548251259 1 rotate no_reflect no_shear #
lump $-1 $-1 $14 $2 #
transform $-1 1 0 0 0 1 0 0 0 1 62.963347270119328 26.092693642413114 9.5601807548251259 1 rotate no_reflect no_shear #
lump $-1 $-1 $15 $3 #
transform $-1 1 0 0 0 1 0 0 0 1 62.963347270119328 26.092693642413114 9.5601807548251259 1 rotate no_reflect no_shear #
shell $-1 $-1 $-1 $16 $-1 $4 #
shell $-1 $-1 $-1 $17 $-1 $6 #
shell $-1 $-1 $-1 $18 $-1 $8 #
shell $-1 $-1 $-1 $19 $-1 $10 #
face $-1 $20 $21 $12 $-1 $22 forward single #
face $-1 $23 $24 $13 $-1 $25 forward single #
face $-1 $26 $27 $14 $-1 $28 reversed single #
face $-1 $29 $30 $15 $-1 $31 forward single #
face $-1 $32 $33 $12 $-1 $34 reversed single #
loop $-1 $-1 $35 $16 #
plane-surface $-1 0 0 9.5601807548251259 0 0 1 1 0 0 forward_v I I I I #
face $-1 $36 $37 $13 $-1 $38 reversed single #
loop $-1 $-1 $39 $17 #
plane-surface $-1 -62.963347270119328 0 0 1 0 0 0 0 -1 forward_v I I I I #
face $-1 $40 $41 $14 $-1 $42 reversed single #
loop $-1 $-1 $43 $18 #
plane-surface $-1 112.05084570344067 17.294165033959533 175.40720149541414 0 1 0 0.87461971476443456 0 0.48480960649040278 forward_v I I I I #
face $-1 $44 $45 $15 $-1 $46 forward single #
loop $-1 $47 $48 $19 #
cone-surface $-1 60.393137212957853 21.693429338186323 6.2853784113931255 -0.87461971476443456 0 -0.48480960649040278 0.48480960649040278 0 -0.87461971476443456 1 I I 0 1 1 forward I I I I #
face $-1 $49 $50 $12 $-1 $51 reversed single #
loop $-1 $-1 $52 $20 #
plane-surface $-1 0 0 -9.5601807548251259 0 0 1 1 0 0 forward_v I I I I #
coedge $-1 $53 $54 $55 $56 forward $21 $-1 #
face $-1 $57 $58 $13 $-1 $59 reversed single #
loop $-1 $-1 $60 $23 #
plane-surface $-1 0 26.092693642413114 0 0 -1 0 0 0 -1 forward_v I I I I #
coedge $-1 $61 $62 $63 $64 forward $24 $-1 #
face $-1 $65 $66 $14 $-1 $67 reversed single #
loop $-1 $-1 $68 $26 #
plane-surface $-1 1.9128760434290655 21.693429338186323 114.35673026872388 0.87461971476443456 0 0.48480960649040278 0.48480960649040278 0 -0.87461971476443456 forward_v I I I I #
coedge $-1 $69 $70 $71 $72 reversed $27 $-1 #
face $-1 $-1 $73 $15 $-1 $74 forward single #
loop $-1 $75 $76 $29 #
cone-surface $-1 58.866016010804458 21.693429338186323 5.4388813377723437 -0.87461971476443456 0 -0.48480960649040278 0.24240480324520139 0 -0.43730985738221728 1 I I -0.70710678118654746 0.70710678118654746 0.5 forward I I I I #
loop $-1 $-1 $77 $19 #
coedge $-1 $48 $48 $78 $79 reversed $30 $-1 #
face $-1 $80 $81 $12 $-1 $82 reversed single #
loop $-1 $-1 $83 $32 #
plane-surface $-1 0 -26.092693642413114 0 0 1 0 0 0 1 forward_v I I I I #
coedge $-1 $84 $85 $86 $87 forward $33 $-1 #
coedge $-1 $88 $35 $89 $90 forward $21 $-1 #
coedge $-1 $35 $88 $91 $92 forward $21 $-1 #
coedge $-1 $93 $94 $35 $56 reversed $95 $-1 #
edge $-1 $96 -26.092693642413114 $97 26.092693642413114 $55 $98 forward 7 unknown #
face $-1 $99 $100 $13 $-1 $101 reversed single #
loop $-1 $-1 $63 $36 #
plane-surface $-1 -68.137232366810281 0 4.9439733551030827 0 0 1 1 0 0 forward_v I I I I #
coedge $-1 $102 $103 $61 $104 forward $37 $-1 #
coedge $-1 $105 $39 $60 $104 reversed $24 $-1 #
coedge $-1 $39 $105 $106 $107 reversed $24 $-1 #
coedge $-1 $108 $109 $39 $64 reversed $58 $-1 #
edge $-1 $110 -26.092693642413114 $111 26.092693642413114 $63 $112 forward 7 unknown #
face $-1 $113 $114 $14 $-1 $115 forward single #
loop $-1 $-1 $116 $40 #
plane-surface $-1 0 26.092693642413114 0 0 -1 0 0 0 -1 forward_v I I I I #
coedge $-1 $117 $118 $119 $120 reversed $41 $-1 #
coedge $-1 $70 $43 $121 $122 reversed $27 $-1 #
coedge $-1 $43 $69 $117 $123 reversed $27 $-1 #
coedge $-1 $119 $124 $43 $72 forward $125 $-1 #
edge $-1 $126 78.143419992881945 $127 83.484840138994812 $71 $128 forward 7 unknown #
loop $-1 $-1 $78 $44 #
plane-surface $-1 1.9128760434290655 21.693429338186323 114.35673026872388 0.87461971476443456 0 0.48480960649040278 0.48480960649040278 0 -0.87461971476443456 forward_v I I I I #
loop $-1 $-1 $129 $29 #
coedge $-1 $76 $76 $77 $130 reversed $45 $-1 #
coedge $-1 $77 $77 $76 $130 forward $47 $-1 #
coedge $-1 $78 $78 $48 $79 forward $73 $-1 #
edge $-1 $131 0 $131 6.2831853071796004 $78 $132 forward 7 unknown #
face $-1 $133 $134 $12 $-1 $135 reversed single #
loop $-1 $-1 $136 $49 #
plane-surface $-1 -62.963347270119328 0 0 1 0 0 0 0 -1 forward_v I I I I #
coedge $-1 $137 $91 $138 $139 forward $50 $-1 #
coedge $-1 $140 $52 $137 $141 forward $33 $-1 #
coedge $-1 $52 $140 $142 $143 forward $33 $-1 #
coedge $-1 $94 $93 $52 $87 reversed $95 $-1 #
edge $-1 $144 -26.092693642413114 $145 26.092693642413114 $86 $146 forward 7 unknown #
coedge $-1 $54 $53 $147 $148 forward $21 $-1 #
coedge $-1 $149 $150 $53 $90 reversed $134 $-1 #
edge $-1 $97 -62.963347270119328 $151 62.963347270119328 $89 $152 forward 7 unknown #
coedge $-1 $83 $153 $54 $92 reversed $50 $-1 #
edge $-1 $154 -62.963347270119328 $96 62.963347270119328 $91 $155 forward 7 unknown #
coedge $-1 $86 $55 $153 $156 forward $95 $-1 #
coedge $-1 $55 $86 $149 $157 reversed $95 $-1 #
loop $-1 $-1 $93 $133 #
vertex $-1 $56 $158 #
vertex $-1 $56 $159 #
straight-curve $-1 62.963347270119328 0 9.5601807548251259 0 1 0 I I #
face $-1 $160 $161 $13 $-1 $162 forward single #
loop $-1 $-1 $163 $57 #
plane-surface $-1 -73.311117463501233 0 7.2520770549641043 1 0 0 0 0 -1 forward_v I I I I #
coedge $-1 $164 $60 $109 $165 reversed $37 $-1 #
coedge $-1 $60 $164 $166 $167 reversed $37 $-1 #
edge $-1 $168 -9.5601807548251259 $111 -4.9439733551030827 $60 $169 forward 7 unknown #
coedge $-1 $62 $61 $170 $171 reversed $24 $-1 #
coedge $-1 $172 $173 $62 $107 forward $174 $-1 #
edge $-1 $110 4.9439733551030827 $175 9.5601807548251259 $106 $176 forward 7 unknown #
coedge $-1 $177 $63 $173 $178 forward $58 $-1 #
coedge $-1 $63 $177 $102 $165 forward $58 $-1 #
vertex $-1 $107 $179 #
vertex $-1 $104 $180 #
straight-curve $-1 -62.963347270119328 0 4.9439733551030827 0 1 0 I I #
face $-1 $-1 $125 $14 $-1 $181 reversed single #
loop $-1 $-1 $121 $65 #
plane-surface $-1 0 0 9.5601807548251259 0 0 1 1 0 0 forward_v I I I I #
coedge $-1 $182 $183 $118 $184 forward $66 $-1 #
coedge $-1 $185 $68 $70 $123 forward $41 $-1 #
coedge $-1 $68 $185 $116 $184 reversed $41 $-1 #
coedge $-1 $186 $71 $68 $120 forward $125 $-1 #
edge $-1 $127 6.4474503648663717 $187 15.245978973319952 $119 $188 forward 7 unknown #
coedge $-1 $189 $190 $69 $122 forward $114 $-1 #
edge $-1 $191 3.9771269936183842 $126 6.9379244183989925 $121 $192 forward 7 unknown #
edge $-1 $127 -125.92669454023867 $191 -119.81956014120274 $70 $193 forward 7 unknown #
coedge $-1 $71 $186 $189 $194 reversed $125 $-1 #
loop $-1 $-1 $119 $113 #
vertex $-1 $194 $195 #
vertex $-1 $72 $196 #
straight-curve $-1 62.963347270119328 17.294165033959533 87.703600747707071 0 0 -1 I I #
coedge $-1 $129 $129 $-1 $197 reversed $75 $-1 #
edge $-1 $198 0 $198 6.2831853071796004 $76 $199 forward 7 unknown #
vertex $-1 $79 $200 #
ellipse-curve $-1 61.482948557729017 21.693429338186323 6.8894706817686995 0.87461971476443456 0 0.48480960649040278 0.48480960649040278 0 -0.87461971476443456 1 I I #
face $-1 $-1 $95 $12 $-1 $201 reversed single #
loop $-1 $-1 $149 $80 #
plane-surface $-1 0 26.092693642413114 0 0 -1 0 0 0 -1 forward_v I I I I #
coedge $-1 $202 $147 $150 $203 forward $81 $-1 #
coedge $-1 $153 $83 $84 $141 reversed $50 $-1 #
coedge $-1 $147 $202 $83 $139 reversed $81 $-1 #
edge $-1 $154 -9.5601807548251259 $204 9.5601807548251259 $138 $205 forward 7 unknown #
coedge $-1 $85 $84 $202 $206 forward $33 $-1 #
edge $-1 $145 -62.963347270119328 $204 62.963347270119328 $137 $207 forward 7 unknown #
coedge $-1 $150 $149 $85 $143 reversed $134 $-1 #
edge $-1 $208 -62.963347270119328 $144 62.963347270119328 $142 $209 forward 7 unknown #
vertex $-1 $87 $210 #
vertex $-1 $156 $211 #
straight-curve $-1 62.963347270119328 0 -9.5601807548251259 0 -1 0 I I #
coedge $-1 $136 $138 $88 $148 reversed $81 $-1 #
edge $-1 $151 -26.092693642413114 $154 26.092693642413114 $147 $212 forward 7 unknown #
coedge $-1 $142 $89 $94 $157 forward $134 $-1 #
coedge $-1 $89 $142 $136 $203 reversed $134 $-1 #
vertex $-1 $90 $213 #
straight-curve $-1 0 26.092693642413114 9.5601807548251259 -1 0 0 I I #
coedge $-1 $91 $137 $93 $156 reversed $50 $-1 #
vertex $-1 $148 $214 #
straight-curve $-1 0 -26.092693642413114 9.5601807548251259 1 0 0 I I #
edge $-1 $96 -9.5601807548251259 $145 9.5601807548251259 $93 $215 forward 7 unknown #
edge $-1 $97 -9.5601807548251259 $144 9.5601807548251259 $94 $216 forward 7 unknown #
point $-1 62.963347270119328 -26.092693642413114 9.5601807548251259 #
point $-1 62.963347270119328 26.092693642413114 9.5601807548251259 #
face $-1 $-1 $174 $13 $-1 $217 reversed single #
loop $-1 $-1 $170 $99 #
plane-surface $-1 0 0 9.5601807548251259 0 0 1 1 0 0 forward_v I I I I #
coedge $-1 $218 $219 $164 $220 forward $100 $-1 #
coedge $-1 $103 $102 $163 $220 reversed $37 $-1 #
edge $-1 $221 -5.1738850966909524 $111 5.1738850966909524 $102 $222 forward 7 unknown #
coedge $-1 $223 $170 $103 $167 forward $161 $-1 #
edge $-1 $168 62.963347270119328 $224 73.311117463501233 $103 $225 forward 7 unknown #
vertex $-1 $167 $226 #
straight-curve $-1 -62.963347270119328 26.092693642413114 0 0 0 -1 I I #
coedge $-1 $166 $227 $105 $171 forward $161 $-1 #
edge $-1 $175 -26.092693642413114 $168 26.092693642413114 $170 $228 forward 7 unknown #
coedge $-1 $229 $106 $227 $230 reversed $174 $-1 #
coedge $-1 $106 $229 $108 $178 reversed $174 $-1 #
loop $-1 $-1 $106 $160 #
vertex $-1 $107 $231 #
straight-curve $-1 -62.963347270119328 -26.092693642413114 0 0 0 1 I I #
coedge $-1 $109 $108 $218 $232 forward $58 $-1 #
edge $-1 $110 -5.1738850966909524 $233 5.1738850966909524 $173 $234 forward 7 unknown #
point $-1 -62.963347270119328 -26.092693642413114 4.9439733551030827 #
point $-1 -62.963347270119328 26.092693642413114 4.9439733551030827 #
plane-surface $-1 62.963347270119328 0 0 -1 0 0 0 0 1 forward_v I I I I #
coedge $-1 $183 $116 $235 $236 reversed $66 $-1 #
coedge $-1 $116 $182 $186 $237 forward $66 $-1 #
edge $-1 $187 -76.381059476666238 $238 -70.273925077630295 $116 $239 forward 7 unknown #
coedge $-1 $118 $117 $190 $240 reversed $41 $-1 #
coedge $-1 $124 $119 $183 $237 reversed $125 $-1 #
vertex $-1 $184 $241 #
straight-curve $-1 62.963347270119328 10.846714669093162 4.2187606087122447 0 1 0 I I #
coedge $-1 $235 $121 $124 $194 forward $114 $-1 #
coedge $-1 $121 $235 $185 $240 forward $114 $-1 #
vertex $-1 $122 $242 #
straight-curve $-1 56.025422851720336 17.294165033959533 9.5601807548251259 1 0 0 I I #
straight-curve $-1 1.9128760434290655 17.294165033959533 114.35673026872388 -0.48480960649040278 0 0.87461971476443456 I I #
edge $-1 $126 17.294165033959533 $243 26.092693642413114 $124 $244 forward 7 unknown #
point $-1 62.963347270119328 17.294165033959533 9.5601807548251259 #
point $-1 62.963347270119328 17.294165033959533 4.2187606087122589 #
edge $-1 $245 1 $245 0 $129 $-1 forward 7 unknown #
vertex $-1 $130 $246 #
ellipse-curve $-1 59.303325868186676 21.693429338186323 5.6812861410175453 0.87461971476443456 0 0.48480960649040278 0.48480960649040278 0 -0.87461971476443456 1 I I #
point $-1 61.967758164219426 21.693429338186323 6.0148509670042722 #
plane-surface $-1 62.963347270119328 0 0 -1 0 0 0 0 1 forward_v I I I I #
coedge $-1 $138 $136 $140 $206 reversed $81 $-1 #
edge $-1 $151 -9.5601807548251259 $208 9.5601807548251259 $150 $247 forward 7 unknown #
vertex $-1 $206 $248 #
straight-curve $-1 -62.963347270119328 -26.092693642413114 0 0 0 -1 I I #
edge $-1 $204 -26.092693642413114 $208 26.092693642413114 $202 $249 forward 7 unknown #
straight-curve $-1 0 -26.092693642413114 -9.5601807548251259 -1 0 0 I I #
vertex $-1 $143 $250 #
straight-curve $-1 0 26.092693642413114 -9.5601807548251259 1 0 0 I I #
point $-1 62.963347270119328 26.092693642413114 -9.5601807548251259 #
point $-1 62.963347270119328 -26.092693642413114 -9.5601807548251259 #
straight-curve $-1 -62.963347270119328 0 9.5601807548251259 0 -1 0 I I #
point $-1 -62.963347270119328 26.092693642413114 9.5601807548251259 #
point $-1 -62.963347270119328 -26.092693642413114 9.5601807548251259 #
straight-curve $-1 62.963347270119328 -26.092693642413114 0 0 0 -1 I I #
straight-curve $-1 62.963347270119328 26.092693642413114 0 0 0 -1 I I #
plane-surface $-1 0 -26.092693642413114 0 0 1 0 0 0 1 forward_v I I I I #
coedge $-1 $251 $163 $177 $232 reversed $100 $-1 #
coedge $-1 $163 $251 $223 $252 reversed $100 $-1 #
edge $-1 $224 -2.3081036998610216 $221 2.3081036998610216 $164 $253 forward 7 unknown #
vertex $-1 $165 $254 #
straight-curve $-1 -68.137232366810281 26.092693642413114 4.9439733551030827 1 0 0 I I #
coedge $-1 $227 $166 $219 $252 forward $161 $-1 #
vertex $-1 $167 $255 #
straight-curve $-1 0 26.092693642413114 9.5601807548251259 -1 0 0 I I #
point $-1 -62.963347270119328 26.092693642413114 9.5601807548251259 #
coedge $-1 $170 $223 $172 $230 forward $161 $-1 #
straight-curve $-1 -62.963347270119328 0 9.5601807548251259 0 1 0 I I #
coedge $-1 $173 $172 $251 $256 forward $174 $-1 #
edge $-1 $257 -73.311117463501233 $175 -62.963347270119328 $172 $258 forward 7 unknown #
point $-1 -62.963347270119328 -26.092693642413114 9.5601807548251259 #
edge $-1 $233 -26.092693642413114 $221 26.092693642413114 $218 $259 forward 7 unknown #
vertex $-1 $232 $260 #
straight-curve $-1 -68.137232366810281 -26.092693642413114 4.9439733551030827 -1 0 0 I I #
coedge $-1 $190 $189 $182 $236 forward $114 $-1 #
edge $-1 $243 -62.963347270119328 $238 -60.00254984533872 $182 $261 forward 7 unknown #
edge $-1 $243 -9.5601807548251259 $187 -4.2187606087122438 $186 $262 forward 7 unknown #
vertex $-1 $184 $263 #
straight-curve $-1 25.933075881916725 26.092693642413114 71.023141061599375 -0.48480960649040278 0 0.87461971476443456 I I #
edge $-1 $238 -15.245978973319952 $191 -6.4474503648663717 $190 $264 forward 7 unknown #
point $-1 62.963347270119328 26.092693642413114 4.2187606087122438 #
point $-1 60.00254984533872 17.294165033959533 9.5601807548251259 #
vertex $-1 $194 $265 #
straight-curve $-1 62.963347270119328 0 9.5601807548251259 0 1 0 I I #
vertex $-1 $197 $266 #
point $-1 59.788135474677077 21.693429338186323 4.8066664262531109 #
straight-curve $-1 -62.963347270119328 26.092693642413114 0 0 0 -1 I I #
point $-1 -62.963347270119328 -26.092693642413114 -9.5601807548251259 #
straight-curve $-1 -62.963347270119328 0 -9.5601807548251259 0 1 0 I I #
point $-1 -62.963347270119328 26.092693642413114 -9.5601807548251259 #
coedge $-1 $219 $218 $229 $256 reversed $100 $-1 #
edge $-1 $224 -26.092693642413114 $257 26.092693642413114 $219 $267 forward 7 unknown #
straight-curve $-1 -73.311117463501233 26.092693642413114 7.2520770549641043 0 0 -1 I I #
point $-1 -73.311117463501233 26.092693642413114 4.9439733551030827 #
point $-1 -73.311117463501233 26.092693642413114 9.5601807548251259 #
edge $-1 $257 -2.3081036998610216 $233 2.3081036998610216 $251 $268 forward 7 unknown #
vertex $-1 $252 $269 #
straight-curve $-1 0 -26.092693642413114 9.5601807548251259 1 0 0 I I #
straight-curve $-1 -73.311117463501233 0 4.9439733551030827 0 1 0 I I #
point $-1 -73.311117463501233 -26.092693642413114 4.9439733551030827 #
straight-curve $-1 0 26.092693642413114 9.5601807548251259 -1 0 0 I I #
straight-curve $-1 62.963347270119328 26.092693642413114 0 0 0 -1 I I #
point $-1 60.00254984533872 26.092693642413114 9.5601807548251259 #
straight-curve $-1 60.00254984533872 10.846714669093162 9.5601807548251401 0 -1 0 I I #
point $-1 62.963347270119328 26.092693642413114 9.5601807548251259 #
point $-1 58.42870615342224 21.693429338186323 5.1964765345271422 #
straight-curve $-1 -73.311117463501233 0 9.5601807548251259 0 -1 0 I I #
straight-curve $-1 -73.311117463501233 -26.092693642413114 7.2520770549641043 0 0 -1 I I #
point $-1 -73.311117463501233 -26.092693642413114 9.5601807548251259 #
End-of-ACIS-data 