500 0 9 0           
7 Unknown 11 ACIS 5.0 NT 24 Fri Mar 26 18:08:57 1999 
-1 9.9999999999999995e-007 1e-010 
body $-1 $9 $-1 $10 #
body $-1 $11 $-1 $12 #
body $-1 $13 $-1 $14 #
body $-1 $15 $-1 $16 #
body $-1 $17 $-1 $18 #
body $-1 $19 $-1 $20 #
body $-1 $21 $-1 $22 #
body $-1 $23 $-1 $24 #
body $-1 $25 $-1 $26 #
lump $-1 $-1 $27 $0 #
transform $-1 1 0 0 0 1 0 0 0 1 50.398266548661766 33.292817720034421 8.240548992479237 1 rotate no_reflect no_shear #
lump $-1 $-1 $28 $1 #
transform $-1 1 0 0 0 1 0 0 0 1 50.398266548661766 33.292817720034421 8.240548992479237 1 rotate no_reflect no_shear #
lump $-1 $-1 $29 $2 #
transform $-1 1 0 0 0 1 0 0 0 1 50.398266548661766 33.292817720034421 8.240548992479237 1 rotate no_reflect no_shear #
lump $-1 $-1 $30 $3 #
transform $-1 1 0 0 0 1 0 0 0 1 50.398266548661766 33.292817720034421 8.240548992479237 1 rotate no_reflect no_shear #
lump $-1 $-1 $31 $4 #
transform $-1 1 0 0 0 1 0 0 0 1 50.398266548661766 33.292817720034421 8.240548992479237 1 rotate no_reflect no_shear #
lump $-1 $-1 $32 $5 #
transform $-1 1 0 0 0 1 0 0 0 1 50.398266548661766 33.292817720034421 8.240548992479237 1 rotate no_reflect no_shear #
lump $-1 $-1 $33 $6 #
transform $-1 1 0 0 0 1 0 0 0 1 50.398266548661766 33.292817720034421 8.240548992479237 1 rotate no_reflect no_shear #
lump $-1 $-1 $34 $7 #
transform $-1 1 0 0 0 1 0 0 0 1 50.398266548661766 33.292817720034421 8.240548992479237 1 rotate no_reflect no_shear #
lump $-1 $-1 $35 $8 #
transform $-1 1 0 0 0 1 0 0 0 1 50.398266548661766 33.292817720034421 8.240548992479237 1 rotate no_reflect no_shear #
shell $-1 $-1 $-1 $36 $-1 $9 #
shell $-1 $-1 $-1 $37 $-1 $11 #
shell $-1 $-1 $-1 $38 $-1 $13 #
shell $-1 $-1 $-1 $39 $-1 $15 #
shell $-1 $-1 $-1 $40 $-1 $17 #
shell $-1 $-1 $-1 $41 $-1 $19 #
shell $-1 $-1 $-1 $42 $-1 $21 #
shell $-1 $-1 $-1 $43 $-1 $23 #
shell $-1 $-1 $-1 $44 $-1 $25 #
face $-1 $45 $46 $27 $-1 $47 forward single #
face $-1 $48 $49 $28 $-1 $50 forward single #
face $-1 $51 $52 $29 $-1 $53 forward single #
face $-1 $54 $55 $30 $-1 $56 reversed single #
face $-1 $57 $58 $31 $-1 $59 forward single #
face $-1 $60 $61 $32 $-1 $62 reversed single #
face $-1 $63 $64 $33 $-1 $65 forward single #
face $-1 $66 $67 $34 $-1 $68 forward single #
face $-1 $69 $70 $35 $-1 $71 forward single #
face $-1 $72 $73 $27 $-1 $74 reversed single #
loop $-1 $-1 $75 $36 #
plane-surface $-1 0 0 8.240548992479237 0 0 1 1 0 0 forward_v I I I I #
face $-1 $76 $77 $28 $-1 $78 forward single #
loop $-1 $-1 $79 $37 #
plane-surface $-1 0 -33.292817720034421 0 0 1 0 0 0 1 forward_v I I I I #
face $-1 $80 $81 $29 $-1 $82 forward single #
loop $-1 $-1 $83 $38 #
plane-surface $-1 0 33.292817720034421 0 0 -1 0 0 0 -1 forward_v I I I I #
face $-1 $84 $85 $30 $-1 $86 reversed single #
loop $-1 $-1 $87 $39 #
plane-surface $-1 84.883708483830716 23.746758640657145 140.70023529761781 0 -1 0 -0.85716730853699208 0 -0.51503806187062418 forward_v I I I I #
face $-1 $88 $89 $31 $-1 $90 forward single #
loop $-1 $91 $92 $40 #
cone-surface $-1 46.950918141395476 18.524695207816166 4.2989635522853158 -0.85716730853699208 0 -0.51503806187062418 0.51503806187062418 0 -0.85716730853699208 1 I I 0 1 1 forward I I I I #
face $-1 $93 $94 $32 $-1 $95 reversed single #
loop $-1 $-1 $96 $41 #
plane-surface $-1 -128.73188600823073 -10.814167266960981 66.634706350600595 0 1 0 -0.77714596973225614 0 0.62932038083071107 forward_v I I I I #
face $-1 $97 $98 $33 $-1 $99 forward single #
loop $-1 $100 $101 $42 #
cone-surface $-1 -47.898714088231515 -9.1308104183227741 5.3490871448557096 0.77714596973225614 0 -0.62932038083071107 0.31466019041535553 0 0.38857298486612807 1 I I 0 1 0.5 forward I I I I #
face $-1 $102 $103 $34 $-1 $104 forward single #
loop $-1 $105 $106 $43 #
cone-surface $-1 -47.898714088231515 -6.6057751453654667 5.3490871448557096 0.77714596973225614 0 -0.62932038083071107 0.31466019041535553 0 0.38857298486612807 1 I I 0 1 0.5 forward I I I I #
face $-1 $107 $108 $35 $-1 $109 forward single #
loop $-1 $110 $111 $44 #
cone-surface $-1 -47.898714088231515 -4.0807398724081594 5.3490871448557096 0.77714596973225614 0 -0.62932038083071107 0.31466019041535553 0 0.38857298486612807 1 I I 0 1 0.5 forward I I I I #
face $-1 $112 $113 $27 $-1 $114 reversed single #
loop $-1 $-1 $115 $45 #
plane-surface $-1 0 0 -8.240548992479237 0 0 1 1 0 0 forward_v I I I I #
coedge $-1 $116 $117 $118 $119 forward $46 $-1 #
face $-1 $120 $121 $28 $-1 $122 reversed single #
loop $-1 $-1 $123 $48 #
plane-surface $-1 0 0 8.240548992479237 0 0 1 1 0 0 forward_v I I I I #
coedge $-1 $124 $125 $126 $127 forward $49 $-1 #
face $-1 $128 $129 $29 $-1 $130 reversed single #
loop $-1 $-1 $131 $51 #
plane-surface $-1 0 0 8.240548992479237 0 0 1 1 0 0 forward_v I I I I #
coedge $-1 $132 $133 $134 $135 forward $52 $-1 #
face $-1 $136 $137 $30 $-1 $138 reversed single #
loop $-1 $-1 $139 $54 #
plane-surface $-1 -1.515784501061944 18.524695207816166 88.786184247894084 0.85716730853699208 0 0.51503806187062418 0.51503806187062418 0 -0.85716730853699208 forward_v I I I I #
coedge $-1 $140 $141 $142 $143 reversed $55 $-1 #
face $-1 $-1 $144 $31 $-1 $145 forward single #
loop $-1 $146 $147 $57 #
cone-surface $-1 44.833662308777164 18.524695207816166 3.0267879458949913 -0.85716730853699208 0 -0.51503806187062418 0.25751903093531209 0 -0.42858365426849604 1 I I -0.70710678118654746 0.70710678118654746 0.5 forward I I I I #
loop $-1 $-1 $148 $40 #
coedge $-1 $92 $92 $149 $150 reversed $58 $-1 #
face $-1 $151 $152 $32 $-1 $153 reversed single #
loop $-1 $-1 $154 $60 #
plane-surface $-1 -50.39826654866178 -6.6057751453654703 3.2013937553775804 -0.77714596973225614 0 0.62932038083071107 0.62932038083071107 0 0.77714596973225614 forward_v I I I I #
coedge $-1 $155 $156 $157 $158 reversed $61 $-1 #
face $-1 $-1 $159 $33 $-1 $160 forward single #
loop $-1 $161 $162 $63 #
cone-surface $-1 -47.245188806408954 -9.1308104183227741 4.8198728205753341 0.77714596973225614 0 -0.62932038083071107 0.15733009520767777 0 0.19428649243306403 1 I I -0.70710678118654746 0.70710678118654746 0.25 forward I I I I #
loop $-1 $-1 $163 $42 #
coedge $-1 $101 $101 $164 $165 reversed $64 $-1 #
face $-1 $-1 $166 $34 $-1 $167 forward single #
loop $-1 $168 $169 $66 #
cone-surface $-1 -47.245188806408954 -6.6057751453654667 4.8198728205753341 0.77714596973225614 0 -0.62932038083071107 0.15733009520767777 0 0.19428649243306403 1 I I -0.70710678118654746 0.70710678118654746 0.25 forward I I I I #
loop $-1 $-1 $170 $43 #
coedge $-1 $106 $106 $171 $172 reversed $67 $-1 #
face $-1 $-1 $173 $35 $-1 $174 forward single #
loop $-1 $175 $176 $69 #
cone-surface $-1 -47.245188806408954 -4.0807398724081594 4.8198728205753341 0.77714596973225614 0 -0.62932038083071107 0.15733009520767777 0 0.19428649243306403 1 I I -0.70710678118654746 0.70710678118654746 0.25 forward I I I I #
loop $-1 $-1 $177 $44 #
coedge $-1 $111 $111 $178 $179 reversed $70 $-1 #
face $-1 $180 $181 $27 $-1 $182 reversed single #
loop $-1 $-1 $183 $72 #
plane-surface $-1 0 -33.292817720034421 0 0 1 0 0 0 1 forward_v I I I I #
coedge $-1 $184 $185 $186 $187 forward $73 $-1 #
coedge $-1 $188 $75 $189 $190 forward $46 $-1 #
coedge $-1 $75 $188 $191 $192 forward $46 $-1 #
coedge $-1 $193 $194 $75 $119 reversed $195 $-1 #
edge $-1 $196 -33.292817720034421 $197 33.292817720034421 $118 $198 forward 7 unknown #
face $-1 $199 $200 $28 $-1 $201 reversed single #
loop $-1 $-1 $202 $76 #
plane-surface $-1 -50.398266548661766 0 0 1 0 0 0 0 -1 forward_v I I I I #
coedge $-1 $203 $204 $125 $205 forward $77 $-1 #
coedge $-1 $206 $79 $207 $208 reversed $49 $-1 #
coedge $-1 $79 $206 $123 $205 reversed $49 $-1 #
coedge $-1 $209 $210 $79 $127 reversed $211 $-1 #
edge $-1 $212 -8.240548992479237 $213 8.240548992479237 $126 $214 forward 7 unknown #
face $-1 $215 $216 $29 $-1 $217 reversed single #
loop $-1 $-1 $218 $80 #
plane-surface $-1 -48.081471923477388 40.548263112932958 0 0 -1 0 0 0 -1 forward_v I I I I #
coedge $-1 $219 $220 $132 $221 forward $81 $-1 #
coedge $-1 $222 $83 $131 $221 reversed $52 $-1 #
coedge $-1 $83 $222 $223 $224 reversed $52 $-1 #
coedge $-1 $225 $226 $83 $135 reversed $216 $-1 #
edge $-1 $227 -8.240548992479237 $228 8.240548992479237 $134 $229 forward 7 unknown #
face $-1 $230 $231 $30 $-1 $232 forward single #
loop $-1 $-1 $233 $84 #
plane-surface $-1 84.883708483830716 13.302631774975186 140.70023529761781 0 1 0 0.85716730853699208 0 0.51503806187062418 forward_v I I I I #
coedge $-1 $234 $235 $236 $237 reversed $85 $-1 #
coedge $-1 $141 $87 $238 $239 reversed $55 $-1 #
coedge $-1 $87 $140 $234 $240 reversed $55 $-1 #
coedge $-1 $236 $241 $87 $143 forward $231 $-1 #
edge $-1 $242 -7.9564123067464081 $243 -4.4390598489135087 $142 $244 forward 7 unknown #
loop $-1 $-1 $149 $88 #
plane-surface $-1 -1.515784501061944 18.524695207816166 88.786184247894084 0.85716730853699208 0 0.51503806187062418 0.51503806187062418 0 -0.85716730853699208 forward_v I I I I #
loop $-1 $-1 $245 $57 #
coedge $-1 $147 $147 $148 $246 reversed $89 $-1 #
coedge $-1 $148 $148 $147 $246 forward $91 $-1 #
coedge $-1 $149 $149 $92 $150 forward $144 $-1 #
edge $-1 $247 0 $247 6.2831853071796004 $149 $248 forward 7 unknown #
face $-1 $249 $250 $32 $-1 $251 reversed single #
loop $-1 $-1 $252 $93 #
plane-surface $-1 -128.73188600823073 -2.3973830237699598 66.634706350600595 0 -1 0 0.77714596973225614 0 -0.62932038083071107 forward_v I I I I #
coedge $-1 $253 $254 $255 $256 reversed $94 $-1 #
coedge $-1 $156 $96 $257 $258 reversed $61 $-1 #
coedge $-1 $96 $155 $253 $259 reversed $61 $-1 #
coedge $-1 $255 $260 $96 $158 forward $261 $-1 #
edge $-1 $262 13.967676455453599 $263 18.048303797535084 $157 $264 forward 7 unknown #
loop $-1 $-1 $164 $97 #
plane-surface $-1 -50.39826654866178 -6.6057751453654703 3.2013937553775804 -0.77714596973225614 0 0.62932038083071107 0.62932038083071107 0 0.77714596973225614 forward_v I I I I #
loop $-1 $-1 $265 $63 #
coedge $-1 $162 $162 $163 $266 reversed $98 $-1 #
coedge $-1 $163 $163 $162 $266 forward $100 $-1 #
coedge $-1 $164 $164 $101 $165 forward $159 $-1 #
edge $-1 $267 0 $267 6.2831853071796004 $164 $268 forward 7 unknown #
loop $-1 $-1 $171 $102 #
plane-surface $-1 -50.39826654866178 -6.6057751453654703 3.2013937553775804 -0.77714596973225614 0 0.62932038083071107 0.62932038083071107 0 0.77714596973225614 forward_v I I I I #
loop $-1 $-1 $269 $66 #
coedge $-1 $169 $169 $170 $270 reversed $103 $-1 #
coedge $-1 $170 $170 $169 $270 forward $105 $-1 #
coedge $-1 $171 $171 $106 $172 forward $166 $-1 #
edge $-1 $271 0 $271 6.2831853071796004 $171 $272 forward 7 unknown #
loop $-1 $-1 $178 $107 #
plane-surface $-1 -50.39826654866178 -6.6057751453654703 3.2013937553775804 -0.77714596973225614 0 0.62932038083071107 0.62932038083071107 0 0.77714596973225614 forward_v I I I I #
loop $-1 $-1 $273 $69 #
coedge $-1 $176 $176 $177 $274 reversed $108 $-1 #
coedge $-1 $177 $177 $176 $274 forward $110 $-1 #
coedge $-1 $178 $178 $111 $179 forward $173 $-1 #
edge $-1 $275 0 $275 6.2831853071796004 $178 $276 forward 7 unknown #
face $-1 $277 $278 $27 $-1 $279 reversed single #
loop $-1 $-1 $280 $112 #
plane-surface $-1 -50.398266548661766 0 0 1 0 0 0 0 -1 forward_v I I I I #
coedge $-1 $281 $191 $282 $283 forward $113 $-1 #
coedge $-1 $284 $115 $281 $285 forward $73 $-1 #
coedge $-1 $115 $284 $286 $287 forward $73 $-1 #
coedge $-1 $194 $193 $115 $187 reversed $195 $-1 #
edge $-1 $288 -33.292817720034421 $289 33.292817720034421 $186 $290 forward 7 unknown #
coedge $-1 $117 $116 $291 $292 forward $46 $-1 #
coedge $-1 $293 $294 $116 $190 reversed $278 $-1 #
edge $-1 $197 -50.398266548661766 $295 50.398266548661766 $189 $296 forward 7 unknown #
coedge $-1 $183 $297 $117 $192 reversed $113 $-1 #
edge $-1 $298 -50.398266548661766 $196 50.398266548661766 $191 $299 forward 7 unknown #
coedge $-1 $186 $118 $297 $300 forward $195 $-1 #
coedge $-1 $118 $186 $293 $301 reversed $195 $-1 #
loop $-1 $-1 $193 $277 #
vertex $-1 $119 $302 #
vertex $-1 $119 $303 #
straight-curve $-1 50.398266548661766 0 8.240548992479237 0 1 0 I I #
face $-1 $304 $211 $28 $-1 $305 reversed single #
loop $-1 $-1 $306 $120 #
plane-surface $-1 -48.546877971192529 -39.469374133846202 0 0 1 0 0 0 1 forward_v I I I I #
coedge $-1 $307 $308 $206 $309 forward $121 $-1 #
coedge $-1 $310 $123 $308 $311 forward $77 $-1 #
coedge $-1 $123 $310 $209 $312 forward $77 $-1 #
edge $-1 $212 46.695489393723292 $313 50.398266548661766 $123 $314 forward 7 unknown #
coedge $-1 $125 $124 $202 $309 reversed $49 $-1 #
coedge $-1 $315 $316 $124 $208 forward $317 $-1 #
edge $-1 $318 -50.398266548661766 $213 -46.695489393723292 $207 $319 forward 7 unknown #
coedge $-1 $320 $126 $204 $312 reversed $211 $-1 #
coedge $-1 $126 $320 $315 $321 reversed $211 $-1 #
loop $-1 $-1 $320 $199 #
vertex $-1 $205 $322 #
vertex $-1 $321 $323 #
straight-curve $-1 -46.695489393723292 -33.292817720034421 0 0 0 -1 I I #
face $-1 $324 $325 $29 $-1 $326 reversed single #
loop $-1 $-1 $134 $128 #
plane-surface $-1 -45.764677298293009 36.920540416483689 0 -1 0 0 0 0 1 forward_v I I I I #
coedge $-1 $327 $328 $329 $330 forward $129 $-1 #
coedge $-1 $331 $131 $226 $332 forward $81 $-1 #
coedge $-1 $131 $331 $333 $334 forward $81 $-1 #
edge $-1 $335 -50.398266548661766 $228 -45.764677298293009 $131 $336 forward 7 unknown #
coedge $-1 $133 $132 $337 $338 reversed $52 $-1 #
coedge $-1 $339 $340 $133 $224 forward $325 $-1 #
edge $-1 $227 45.764677298293009 $341 50.398266548661766 $223 $342 forward 7 unknown #
coedge $-1 $329 $134 $340 $343 reversed $216 $-1 #
coedge $-1 $134 $329 $219 $332 reversed $216 $-1 #
vertex $-1 $224 $344 #
vertex $-1 $332 $345 #
straight-curve $-1 -45.764677298293009 33.292817720034421 0 0 0 1 I I #
face $-1 $-1 $346 $30 $-1 $347 reversed single #
loop $-1 $-1 $142 $136 #
plane-surface $-1 0 0 8.240548992479237 0 0 1 1 0 0 forward_v I I I I #
coedge $-1 $348 $349 $350 $351 reversed $137 $-1 #
coedge $-1 $352 $139 $141 $240 forward $85 $-1 #
coedge $-1 $139 $352 $348 $353 forward $85 $-1 #
coedge $-1 $350 $142 $139 $237 forward $231 $-1 #
edge $-1 $243 -14.484411036749062 $354 -4.0402841710671034 $236 $355 forward 7 unknown #
coedge $-1 $356 $357 $140 $239 forward $346 $-1 #
edge $-1 $358 -67.963426385807423 $242 -62.109568656329671 $238 $359 forward 7 unknown #
edge $-1 $243 93.967227229990442 $358 100.79653309732349 $141 $360 forward 7 unknown #
coedge $-1 $142 $350 $356 $361 forward $231 $-1 #
vertex $-1 $143 $362 #
vertex $-1 $143 $363 #
straight-curve $-1 42.441854241915358 23.746758640657145 8.2405489924792334 -1 0 0 I I #
coedge $-1 $245 $245 $-1 $364 reversed $146 $-1 #
edge $-1 $365 0 $365 6.2831853071796004 $147 $366 forward 7 unknown #
vertex $-1 $150 $367 #
ellipse-curve $-1 48.639590319745317 18.524695207816166 5.3136201277403439 0.85716730853699208 0 0.51503806187062418 0.51503806187062418 0 -0.85716730853699208 1 I I #
face $-1 $-1 $261 $32 $-1 $368 forward single #
loop $-1 $-1 $369 $151 #
plane-surface $-1 -50.398266548661766 0 0 1 0 0 0 0 -1 forward_v I I I I #
coedge $-1 $370 $371 $372 $373 reversed $152 $-1 #
coedge $-1 $374 $154 $156 $259 forward $94 $-1 #
coedge $-1 $154 $374 $370 $375 forward $94 $-1 #
coedge $-1 $372 $157 $154 $256 forward $261 $-1 #
edge $-1 $263 -7.5112796942782456 $376 0.90550454891277532 $255 $377 forward 7 unknown #
coedge $-1 $378 $379 $155 $258 forward $250 $-1 #
edge $-1 $380 -30.115959419922699 $262 -25.076804182821061 $257 $381 forward 7 unknown #
edge $-1 $263 -6.4841811363156854 $380 -2.2748066086763162e-014 $156 $382 forward 7 unknown #
coedge $-1 $157 $372 $378 $383 forward $261 $-1 #
loop $-1 $-1 $372 $249 #
vertex $-1 $258 $384 #
vertex $-1 $158 $385 #
straight-curve $-1 -64.365943004115366 -10.814167266960981 8.240548992479237 1 0 0 I I #
coedge $-1 $265 $265 $-1 $386 reversed $161 $-1 #
edge $-1 $387 0 $387 6.2831853071796004 $162 $388 forward 7 unknown #
vertex $-1 $165 $389 #
ellipse-curve $-1 -48.357952877621024 -9.1308104183227741 5.7209713739284158 -0.77714596973225614 0 0.62932038083071107 0.31466019041535553 0 0.38857298486612807 1 I I #
coedge $-1 $269 $269 $-1 $390 reversed $168 $-1 #
edge $-1 $391 0 $391 6.2831853071796004 $169 $392 forward 7 unknown #
vertex $-1 $172 $393 #
ellipse-curve $-1 -48.357952877621024 -6.6057751453654667 5.7209713739284158 -0.77714596973225614 0 0.62932038083071107 0.31466019041535553 0 0.38857298486612807 1 I I #
coedge $-1 $273 $273 $-1 $394 reversed $175 $-1 #
edge $-1 $395 0 $395 6.2831853071796004 $176 $396 forward 7 unknown #
vertex $-1 $179 $397 #
ellipse-curve $-1 -48.357952877621024 -4.0807398724081594 5.7209713739284158 -0.77714596973225614 0 0.62932038083071107 0.31466019041535553 0 0.38857298486612807 1 I I #
face $-1 $-1 $195 $27 $-1 $398 reversed single #
loop $-1 $-1 $293 $180 #
plane-surface $-1 0 33.292817720034421 0 0 -1 0 0 0 -1 forward_v I I I I #
coedge $-1 $399 $291 $294 $400 forward $181 $-1 #
coedge $-1 $297 $183 $184 $285 reversed $113 $-1 #
coedge $-1 $291 $399 $183 $283 reversed $181 $-1 #
edge $-1 $298 -8.240548992479237 $401 8.240548992479237 $282 $402 forward 7 unknown #
coedge $-1 $185 $184 $399 $403 forward $73 $-1 #
edge $-1 $289 -50.398266548661766 $401 50.398266548661766 $281 $404 forward 7 unknown #
coedge $-1 $294 $293 $185 $287 reversed $278 $-1 #
edge $-1 $405 -50.398266548661766 $288 50.398266548661766 $286 $406 forward 7 unknown #
vertex $-1 $187 $407 #
vertex $-1 $300 $408 #
straight-curve $-1 50.398266548661766 0 -8.240548992479237 0 -1 0 I I #
coedge $-1 $280 $282 $188 $292 reversed $181 $-1 #
edge $-1 $295 -33.292817720034421 $298 33.292817720034421 $291 $409 forward 7 unknown #
coedge $-1 $286 $189 $194 $301 forward $278 $-1 #
coedge $-1 $189 $286 $280 $400 reversed $278 $-1 #
vertex $-1 $190 $410 #
straight-curve $-1 0 33.292817720034421 8.240548992479237 -1 0 0 I I #
coedge $-1 $191 $281 $193 $300 reversed $113 $-1 #
vertex $-1 $292 $411 #
straight-curve $-1 0 -33.292817720034421 8.240548992479237 1 0 0 I I #
edge $-1 $196 -8.240548992479237 $289 8.240548992479237 $193 $412 forward 7 unknown #
edge $-1 $197 -8.240548992479237 $288 8.240548992479237 $194 $413 forward 7 unknown #
point $-1 50.398266548661766 -33.292817720034421 8.240548992479237 #
point $-1 50.398266548661766 33.292817720034421 8.240548992479237 #
face $-1 $-1 $317 $28 $-1 $414 reversed single #
plane-surface $-1 -46.695489393723292 -36.381095926940311 0 -1 0 0 0 0 1 forward_v I I I I #
coedge $-1 $415 $416 $417 $418 forward $200 $-1 #
coedge $-1 $417 $202 $316 $419 reversed $121 $-1 #
coedge $-1 $202 $417 $203 $311 reversed $121 $-1 #
edge $-1 $313 -8.240548992479237 $318 8.240548992479237 $202 $420 forward 7 unknown #
coedge $-1 $204 $203 $416 $421 forward $77 $-1 #
edge $-1 $313 33.292817720034421 $422 39.469374133846202 $308 $423 forward 7 unknown #
edge $-1 $424 -3.0882782069058905 $212 3.0882782069058905 $209 $425 forward 7 unknown #
vertex $-1 $311 $426 #
straight-curve $-1 0 -33.292817720034421 8.240548992479237 -1 0 0 I I #
coedge $-1 $427 $207 $210 $321 forward $317 $-1 #
coedge $-1 $207 $427 $307 $419 forward $317 $-1 #
loop $-1 $-1 $207 $304 #
vertex $-1 $309 $428 #
straight-curve $-1 0 -33.292817720034421 -8.240548992479237 1 0 0 I I #
coedge $-1 $210 $209 $429 $430 forward $211 $-1 #
edge $-1 $213 -3.0882782069058905 $431 3.0882782069058905 $210 $432 forward 7 unknown #
point $-1 -46.695489393723292 -33.292817720034421 8.240548992479237 #
point $-1 -46.695489393723292 -33.292817720034421 -8.240548992479237 #
face $-1 $-1 $433 $29 $-1 $434 reversed single #
loop $-1 $-1 $223 $215 #
plane-surface $-1 0 0 -8.240548992479237 0 0 1 1 0 0 forward_v I I I I #
coedge $-1 $435 $218 $436 $437 reversed $129 $-1 #
coedge $-1 $218 $435 $331 $438 reversed $129 $-1 #
coedge $-1 $226 $225 $218 $330 reversed $216 $-1 #
edge $-1 $439 -8.240548992479237 $440 8.240548992479237 $329 $441 forward 7 unknown #
coedge $-1 $220 $219 $328 $438 forward $81 $-1 #
edge $-1 $228 -3.6277226964492684 $439 3.6277226964492684 $226 $442 forward 7 unknown #
coedge $-1 $443 $337 $220 $334 reversed $433 $-1 #
edge $-1 $444 -40.548263112932958 $335 -33.292817720034421 $333 $445 forward 7 unknown #
vertex $-1 $338 $446 #
straight-curve $-1 0 33.292817720034421 8.240548992479237 1 0 0 I I #
coedge $-1 $333 $447 $222 $338 forward $433 $-1 #
edge $-1 $341 -8.240548992479237 $335 8.240548992479237 $337 $448 forward 7 unknown #
coedge $-1 $436 $223 $447 $449 forward $325 $-1 #
coedge $-1 $223 $436 $225 $343 forward $325 $-1 #
vertex $-1 $449 $450 #
straight-curve $-1 0 33.292817720034421 -8.240548992479237 -1 0 0 I I #
edge $-1 $440 -3.6277226964492684 $227 3.6277226964492684 $225 $451 forward 7 unknown #
point $-1 -45.764677298293009 33.292817720034421 -8.240548992479237 #
point $-1 -45.764677298293009 33.292817720034421 8.240548992479237 #
loop $-1 $-1 $238 $230 #
plane-surface $-1 50.398266548661766 0 0 -1 0 0 0 0 1 forward_v I I I I #
coedge $-1 $349 $233 $235 $353 reversed $137 $-1 #
coedge $-1 $233 $348 $452 $453 reversed $137 $-1 #
coedge $-1 $241 $236 $233 $351 forward $231 $-1 #
edge $-1 $354 4.4390598489135087 $454 7.9564123067464081 $350 $455 forward 7 unknown #
coedge $-1 $235 $234 $357 $456 reversed $85 $-1 #
edge $-1 $457 -100.79653309732349 $354 -93.967227229990442 $348 $458 forward 7 unknown #
vertex $-1 $237 $459 #
straight-curve $-1 46.880914090828853 9.2623476039080828 8.2405489924792406 0 -1 0 I I #
coedge $-1 $452 $238 $241 $361 reversed $346 $-1 #
coedge $-1 $238 $452 $352 $456 forward $346 $-1 #
vertex $-1 $239 $460 #
straight-curve $-1 50.398266548661766 23.746758640657145 70.350117648808904 0 0 1 I I #
straight-curve $-1 -1.515784501061944 23.746758640657145 88.786184247894084 0.51503806187062418 0 -0.85716730853699208 I I #
edge $-1 $454 13.302631774975186 $242 23.746758640657145 $356 $461 forward 7 unknown #
point $-1 50.398266548661766 23.746758640657145 8.240548992479237 #
point $-1 46.880914090828867 23.746758640657145 8.2405489924792334 #
edge $-1 $462 1 $462 0 $245 $-1 forward 7 unknown #
vertex $-1 $246 $463 #
ellipse-curve $-1 45.262245963045658 18.524695207816166 3.2843069768303033 0.85716730853699208 0 0.51503806187062418 0.51503806187062418 0 -0.85716730853699208 1 I I #
point $-1 49.154628381615915 18.524695207816166 4.4564528192033368 #
plane-surface $-1 0 0 8.240548992479237 0 0 1 1 0 0 forward_v I I I I #
coedge $-1 $379 $378 $371 $464 forward $250 $-1 #
coedge $-1 $371 $252 $254 $375 reversed $152 $-1 #
coedge $-1 $252 $370 $369 $464 reversed $152 $-1 #
coedge $-1 $260 $255 $252 $373 forward $261 $-1 #
edge $-1 $376 -18.048303797535084 $465 -13.967676455453599 $372 $466 forward 7 unknown #
coedge $-1 $254 $253 $379 $467 reversed $94 $-1 #
edge $-1 $468 2.2748066086763162e-014 $376 6.4841811363156854 $370 $469 forward 7 unknown #
vertex $-1 $256 $470 #
straight-curve $-1 -46.317639206580274 -3.3028875726827351 8.240548992479237 0 1 0 I I #
coedge $-1 $369 $257 $260 $383 reversed $250 $-1 #
coedge $-1 $257 $369 $374 $467 forward $250 $-1 #
vertex $-1 $258 $471 #
straight-curve $-1 -50.398266548661766 -10.814167266960981 33.317353175300298 0 0 1 I I #
straight-curve $-1 -50.39826654866178 -10.814167266960981 3.2013937553775804 -0.62932038083071107 0 -0.77714596973225614 I I #
edge $-1 $465 2.3973830237699598 $262 10.814167266960981 $378 $472 forward 7 unknown #
point $-1 -50.398266548661766 -10.814167266960981 8.240548992479237 #
point $-1 -46.317639206580282 -10.814167266960981 8.240548992479237 #
edge $-1 $473 1 $473 0 $265 $-1 forward 7 unknown #
vertex $-1 $266 $474 #
ellipse-curve $-1 -47.439475298842019 -9.1308104183227741 4.9772029157830122 -0.77714596973225614 0 0.62932038083071107 0.31466019041535553 0 0.38857298486612807 1 I I #
point $-1 -48.043292687205657 -9.1308104183227741 6.1095443587945342 #
edge $-1 $475 1 $475 0 $269 $-1 forward 7 unknown #
vertex $-1 $270 $476 #
ellipse-curve $-1 -47.439475298842019 -6.6057751453654667 4.9772029157830122 -0.77714596973225614 0 0.62932038083071107 0.31466019041535553 0 0.38857298486612807 1 I I #
point $-1 -48.043292687205657 -6.6057751453654667 6.1095443587945342 #
edge $-1 $477 1 $477 0 $273 $-1 forward 7 unknown #
vertex $-1 $274 $478 #
ellipse-curve $-1 -47.439475298842019 -4.0807398724081594 4.9772029157830122 -0.77714596973225614 0 0.62932038083071107 0.31466019041535553 0 0.38857298486612807 1 I I #
point $-1 -48.043292687205657 -4.0807398724081594 6.1095443587945342 #
plane-surface $-1 50.398266548661766 0 0 -1 0 0 0 0 1 forward_v I I I I #
coedge $-1 $282 $280 $284 $403 reversed $181 $-1 #
edge $-1 $295 -8.240548992479237 $405 8.240548992479237 $294 $479 forward 7 unknown #
vertex $-1 $403 $480 #
straight-curve $-1 -50.398266548661766 -33.292817720034421 0 0 0 -1 I I #
edge $-1 $401 -33.292817720034421 $405 33.292817720034421 $399 $481 forward 7 unknown #
straight-curve $-1 0 -33.292817720034421 -8.240548992479237 -1 0 0 I I #
vertex $-1 $287 $482 #
straight-curve $-1 0 33.292817720034421 -8.240548992479237 1 0 0 I I #
point $-1 50.398266548661766 33.292817720034421 -8.240548992479237 #
point $-1 50.398266548661766 -33.292817720034421 -8.240548992479237 #
straight-curve $-1 -50.398266548661766 0 8.240548992479237 0 -1 0 I I #
point $-1 -50.398266548661766 33.292817720034421 8.240548992479237 #
point $-1 -50.398266548661766 -33.292817720034421 8.240548992479237 #
straight-curve $-1 50.398266548661766 -33.292817720034421 0 0 0 -1 I I #
straight-curve $-1 50.398266548661766 33.292817720034421 0 0 0 -1 I I #
plane-surface $-1 0 0 -8.240548992479237 0 0 1 1 0 0 forward_v I I I I #
coedge $-1 $429 $306 $427 $483 reversed $200 $-1 #
coedge $-1 $306 $429 $310 $421 reversed $200 $-1 #
coedge $-1 $308 $307 $306 $418 reversed $121 $-1 #
edge $-1 $422 -8.240548992479237 $484 8.240548992479237 $417 $485 forward 7 unknown #
edge $-1 $484 -39.469374133846202 $318 -33.292817720034421 $307 $486 forward 7 unknown #
straight-curve $-1 -50.398266548661766 -33.292817720034421 0 0 0 -1 I I #
edge $-1 $422 -1.8513885774692369 $424 1.8513885774692369 $416 $487 forward 7 unknown #
vertex $-1 $311 $488 #
straight-curve $-1 -50.398266548661766 0 8.240548992479237 0 -1 0 I I #
vertex $-1 $312 $489 #
straight-curve $-1 -46.695489393723292 -36.381095926940311 8.240548992479237 0 1 0 I I #
point $-1 -50.398266548661766 -33.292817720034421 8.240548992479237 #
coedge $-1 $316 $315 $415 $483 forward $317 $-1 #
point $-1 -50.398266548661766 -33.292817720034421 -8.240548992479237 #
coedge $-1 $416 $415 $320 $430 reversed $200 $-1 #
edge $-1 $424 -8.240548992479237 $431 8.240548992479237 $320 $490 forward 7 unknown #
vertex $-1 $430 $491 #
straight-curve $-1 -46.695489393723292 -36.381095926940311 -8.240548992479237 0 -1 0 I I #
loop $-1 $-1 $337 $324 #
plane-surface $-1 -50.398266548661766 0 0 1 0 0 0 0 -1 forward_v I I I I #
coedge $-1 $328 $327 $443 $492 reversed $129 $-1 #
coedge $-1 $340 $339 $327 $437 forward $325 $-1 #
edge $-1 $493 -2.3167946251843787 $440 2.3167946251843787 $327 $494 forward 7 unknown #
edge $-1 $439 -2.3167946251843787 $444 2.3167946251843787 $328 $495 forward 7 unknown #
vertex $-1 $332 $496 #
vertex $-1 $343 $497 #
straight-curve $-1 -45.764677298293009 40.548263112932958 0 0 0 -1 I I #
straight-curve $-1 -45.764677298293009 36.920540416483689 8.240548992479237 0 1 0 I I #
coedge $-1 $447 $333 $435 $492 forward $433 $-1 #
vertex $-1 $438 $498 #
straight-curve $-1 -50.398266548661766 0 8.240548992479237 0 -1 0 I I #
point $-1 -50.398266548661766 33.292817720034421 8.240548992479237 #
coedge $-1 $337 $443 $339 $449 reversed $433 $-1 #
straight-curve $-1 -50.398266548661766 33.292817720034421 0 0 0 1 I I #
edge $-1 $341 -3.6277226964492684 $493 3.6277226964492684 $447 $499 forward 7 unknown #
point $-1 -50.398266548661766 33.292817720034421 -8.240548992479237 #
straight-curve $-1 -45.764677298293009 36.920540416483689 -8.240548992479237 0 -1 0 I I #
coedge $-1 $357 $356 $349 $453 forward $346 $-1 #
edge $-1 $454 62.109568656329671 $457 67.963426385807423 $452 $500 forward 7 unknown #
vertex $-1 $361 $501 #
straight-curve $-1 42.441854241915358 13.302631774975186 8.2405489924792334 1 0 0 I I #
edge $-1 $457 4.0402841710671034 $358 14.484411036749062 $357 $502 forward 7 unknown #
vertex $-1 $456 $503 #
straight-curve $-1 -1.515784501061944 13.302631774975186 88.786184247894084 -0.51503806187062418 0 0.85716730853699208 I I #
point $-1 46.880914090828867 13.302631774975186 8.2405489924792334 #
point $-1 50.398266548661766 23.746758640657145 2.3866912630014809 #
straight-curve $-1 50.398266548661766 0 8.240548992479237 0 1 0 I I #
vertex $-1 $364 $504 #
point $-1 45.777284024916284 18.524695207816166 2.4271396682933113 #
edge $-1 $465 25.076804182821061 $468 30.115959419922699 $369 $505 forward 7 unknown #
vertex $-1 $383 $506 #
straight-curve $-1 -64.365943004115366 -2.3973830237699598 8.240548992479237 -1 0 0 I I #
edge $-1 $468 -0.90550454891277532 $380 7.5112796942782456 $379 $507 forward 7 unknown #
vertex $-1 $467 $508 #
straight-curve $-1 -50.39826654866178 -2.3973830237699598 3.2013937553775804 0.62932038083071107 0 0.77714596973225614 I I #
point $-1 -46.317639206580282 -2.3973830237699598 8.240548992479237 #
point $-1 -50.398266548661766 -10.814167266960981 3.2013937553775982 #
straight-curve $-1 -50.398266548661766 0 8.240548992479237 0 -1 0 I I #
vertex $-1 $386 $509 #
point $-1 -47.12481510842666 -9.1308104183227741 5.3657759006491403 #
vertex $-1 $390 $510 #
point $-1 -47.12481510842666 -6.6057751453654667 5.3657759006491403 #
vertex $-1 $394 $511 #
point $-1 -47.12481510842666 -4.0807398724081594 5.3657759006491403 #
straight-curve $-1 -50.398266548661766 33.292817720034421 0 0 0 -1 I I #
point $-1 -50.398266548661766 -33.292817720034421 -8.240548992479237 #
straight-curve $-1 -50.398266548661766 0 -8.240548992479237 0 1 0 I I #
point $-1 -50.398266548661766 33.292817720034421 -8.240548992479237 #
edge $-1 $431 -1.8513885774692369 $484 1.8513885774692369 $415 $512 forward 7 unknown #
vertex $-1 $419 $513 #
straight-curve $-1 -50.398266548661766 -39.469374133846202 0 0 0 -1 I I #
straight-curve $-1 -50.398266548661766 0 -8.240548992479237 0 1 0 I I #
straight-curve $-1 -48.546877971192529 -39.469374133846202 8.240548992479237 1 0 0 I I #
point $-1 -50.398266548661766 -39.469374133846202 8.240548992479237 #
point $-1 -46.695489393723292 -39.469374133846202 8.240548992479237 #
straight-curve $-1 -46.695489393723292 -39.469374133846202 0 0 0 -1 I I #
point $-1 -46.695489393723292 -39.469374133846202 -8.240548992479237 #
edge $-1 $444 -8.240548992479237 $493 8.240548992479237 $435 $514 forward 7 unknown #
vertex $-1 $437 $515 #
straight-curve $-1 -48.081471923477388 40.548263112932958 -8.240548992479237 1 0 0 I I #
straight-curve $-1 -48.081471923477388 40.548263112932958 8.240548992479237 -1 0 0 I I #
point $-1 -45.764677298293009 40.548263112932958 8.240548992479237 #
point $-1 -45.764677298293009 40.548263112932958 -8.240548992479237 #
point $-1 -50.398266548661766 40.548263112932958 8.240548992479237 #
straight-curve $-1 -50.398266548661766 36.920540416483689 -8.240548992479237 0 1 0 I I #
straight-curve $-1 50.398266548661766 13.302631774975186 70.350117648808904 0 0 -1 I I #
point $-1 50.398266548661766 13.302631774975186 8.240548992479237 #
straight-curve $-1 50.398266548661766 9.2623476039080828 2.3866912630014738 0 1 0 I I #
point $-1 50.398266548661766 13.302631774975186 2.3866912630014809 #
point $-1 44.405078654508671 18.524695207816166 2.7692689149596794 #
straight-curve $-1 -50.398266548661766 -2.3973830237699598 33.317353175300298 0 0 -1 I I #
point $-1 -50.398266548661766 -2.3973830237699598 8.240548992479237 #
straight-curve $-1 -50.398266548661766 -3.3028875726827351 3.2013937553775986 0 -1 0 I I #
point $-1 -50.398266548661766 -2.3973830237699598 3.2013937553775982 #
point $-1 -47.05090231397589 -9.1308104183227741 4.6625427253676559 #
point $-1 -47.05090231397589 -6.6057751453654667 4.6625427253676559 #
point $-1 -47.05090231397589 -4.0807398724081594 4.6625427253676559 #
straight-curve $-1 -48.546877971192529 -39.469374133846202 -8.240548992479237 -1 0 0 I I #
point $-1 -50.398266548661766 -39.469374133846202 -8.240548992479237 #
straight-curve $-1 -50.398266548661766 40.548263112932958 0 0 0 -1 I I #
point $-1 -50.398266548661766 40.548263112932958 -8.240548992479237 #
End-of-ACIS-data 