500 0 6 0           
7 Unknown 11 ACIS 5.0 NT 24 Fri Mar 26 18:15:35 1999 
-1 9.9999999999999995e-007 1e-010 
body $-1 $6 $-1 $7 #
body $-1 $8 $-1 $9 #
body $-1 $10 $-1 $11 #
body $-1 $12 $-1 $13 #
body $-1 $14 $-1 $15 #
body $-1 $16 $-1 $17 #
lump $-1 $-1 $18 $0 #
transform $-1 1 0 0 0 1 0 0 0 1 40.043946653645435 23.709360034121048 5.4703666411316858 1 rotate no_reflect no_shear #
lump $-1 $-1 $19 $1 #
transform $-1 1 0 0 0 1 0 0 0 1 40.043946653645435 23.709360034121048 5.4703666411316858 1 rotate no_reflect no_shear #
lump $-1 $-1 $20 $2 #
transform $-1 1 0 0 0 1 0 0 0 1 40.043946653645435 23.709360034121048 5.4703666411316858 1 rotate no_reflect no_shear #
lump $-1 $-1 $21 $3 #
transform $-1 1 0 0 0 1 0 0 0 1 40.043946653645435 23.709360034121048 5.4703666411316858 1 rotate no_reflect no_shear #
lump $-1 $-1 $22 $4 #
transform $-1 1 0 0 0 1 0 0 0 1 40.043946653645435 23.709360034121048 5.4703666411316858 1 rotate no_reflect no_shear #
lump $-1 $-1 $23 $5 #
transform $-1 1 0 0 0 1 0 0 0 1 40.043946653645435 23.709360034121048 5.4703666411316858 1 rotate no_reflect no_shear #
shell $-1 $-1 $-1 $24 $-1 $6 #
shell $-1 $-1 $-1 $25 $-1 $8 #
shell $-1 $-1 $-1 $26 $-1 $10 #
shell $-1 $-1 $-1 $27 $-1 $12 #
shell $-1 $-1 $-1 $28 $-1 $14 #
shell $-1 $-1 $-1 $29 $-1 $16 #
face $-1 $30 $31 $18 $-1 $32 forward single #
face $-1 $33 $34 $19 $-1 $35 forward single #
face $-1 $36 $37 $20 $-1 $38 reversed single #
face $-1 $39 $40 $21 $-1 $41 forward single #
face $-1 $42 $43 $22 $-1 $44 reversed single #
face $-1 $45 $46 $23 $-1 $47 forward single #
face $-1 $48 $49 $18 $-1 $50 reversed single #
loop $-1 $-1 $51 $24 #
plane-surface $-1 0 0 5.4703666411316858 0 0 1 1 0 0 forward_v I I I I #
face $-1 $52 $53 $19 $-1 $54 reversed single #
loop $-1 $-1 $55 $25 #
plane-surface $-1 0 -23.709360034121048 0 0 1 0 0 0 1 forward_v I I I I #
face $-1 $56 $57 $20 $-1 $58 reversed single #
loop $-1 $-1 $59 $26 #
plane-surface $-1 -98.616524540708724 -19.093477116612871 56.016597061457908 0 1 0 -0.73135370988377701 0 0.68199835119979291 forward_v I I I I #
face $-1 $60 $61 $21 $-1 $62 forward single #
loop $-1 $63 $64 $27 #
cone-surface $-1 -37.654320501581424 -12.855101234198163 2.9763749035149427 0.73135370988377701 0 -0.68199835119979291 0.68199835119979291 0 0.73135370988377701 1 I I 0 1 1 forward I I I I #
face $-1 $65 $66 $22 $-1 $67 reversed single #
loop $-1 $-1 $68 $28 #
plane-surface $-1 38.067264215495015 13.120538714746697 115.16398959273771 0 1 0 0.69465837861970381 0 0.71933979245794832 forward_v I I I I #
face $-1 $69 $70 $23 $-1 $71 forward single #
loop $-1 $72 $73 $29 #
cone-surface $-1 37.451311037549402 18.414949374433874 2.9140057264210992 -0.69465837861970381 0 -0.71933979245794832 0.71933979245794832 0 -0.69465837861970381 1 I I 0 1 1 forward I I I I #
face $-1 $74 $75 $18 $-1 $76 reversed single #
loop $-1 $-1 $77 $30 #
plane-surface $-1 0 0 -5.4703666411316858 0 0 1 1 0 0 forward_v I I I I #
coedge $-1 $78 $79 $80 $81 forward $31 $-1 #
face $-1 $82 $83 $19 $-1 $84 reversed single #
loop $-1 $-1 $85 $33 #
plane-surface $-1 0 0 -5.4703666411316858 0 0 1 1 0 0 forward_v I I I I #
coedge $-1 $86 $87 $88 $89 forward $34 $-1 #
face $-1 $90 $91 $20 $-1 $92 reversed single #
loop $-1 $-1 $93 $36 #
plane-surface $-1 -40.043946653645428 -12.855101234198163 1.3967858748206083 -0.73135370988377701 0 0.68199835119979291 0.68199835119979291 0 0.73135370988377701 forward_v I I I I #
coedge $-1 $94 $95 $96 $97 reversed $37 $-1 #
face $-1 $-1 $98 $21 $-1 $99 forward single #
loop $-1 $100 $101 $39 #
cone-surface $-1 -36.798355208022571 -12.855101234198163 2.1781743734538423 0.73135370988377701 0 -0.68199835119979291 0.34099917559989645 0 0.36567685494188851 1 I I -0.70710678118654746 0.70710678118654746 0.5 forward I I I I #
loop $-1 $-1 $102 $27 #
coedge $-1 $64 $64 $103 $104 reversed $40 $-1 #
face $-1 $105 $106 $22 $-1 $107 reversed single #
loop $-1 $-1 $108 $42 #
plane-surface $-1 -17.56646189641549 18.414949374433874 57.553581042676782 0.69465837861970381 0 0.71933979245794832 0.71933979245794832 0 -0.69465837861970381 forward_v I I I I #
coedge $-1 $109 $110 $111 $112 reversed $43 $-1 #
face $-1 $-1 $113 $23 $-1 $114 forward single #
loop $-1 $115 $116 $45 #
cone-surface $-1 36.349677443183296 18.414949374433874 1.7732307706642461 -0.69465837861970381 0 -0.71933979245794832 0.35966989622897416 0 -0.3473291893098519 1 I I -0.70710678118654746 0.70710678118654746 0.5 forward I I I I #
loop $-1 $-1 $117 $29 #
coedge $-1 $73 $73 $118 $119 reversed $46 $-1 #
face $-1 $120 $121 $18 $-1 $122 reversed single #
loop $-1 $-1 $123 $48 #
plane-surface $-1 0 -23.709360034121048 0 0 1 0 0 0 1 forward_v I I I I #
coedge $-1 $124 $125 $126 $127 forward $49 $-1 #
coedge $-1 $128 $51 $129 $130 forward $31 $-1 #
coedge $-1 $51 $128 $131 $132 forward $31 $-1 #
coedge $-1 $133 $134 $51 $81 reversed $135 $-1 #
edge $-1 $136 -23.709360034121048 $137 23.709360034121048 $80 $138 forward 7 unknown #
face $-1 $139 $140 $19 $-1 $141 reversed single #
loop $-1 $-1 $142 $52 #
plane-surface $-1 -36.615410154721154 -28.325242951629228 0 0 1 0 0 0 1 forward_v I I I I #
coedge $-1 $143 $144 $87 $145 forward $53 $-1 #
coedge $-1 $146 $55 $147 $148 reversed $34 $-1 #
coedge $-1 $55 $146 $85 $145 reversed $34 $-1 #
coedge $-1 $149 $150 $55 $89 reversed $140 $-1 #
edge $-1 $151 -5.4703666411316858 $152 5.4703666411316858 $88 $153 forward 7 unknown #
face $-1 $154 $155 $20 $-1 $156 reversed single #
loop $-1 $-1 $157 $56 #
plane-surface $-1 -98.616524540708724 -6.6167253517834546 56.016597061457908 0 -1 0 0.73135370988377701 0 -0.68199835119979291 forward_v I I I I #
coedge $-1 $158 $159 $160 $161 reversed $57 $-1 #
coedge $-1 $95 $59 $162 $163 reversed $37 $-1 #
coedge $-1 $59 $94 $158 $164 reversed $37 $-1 #
coedge $-1 $160 $165 $59 $97 forward $166 $-1 #
edge $-1 $167 9.2643156167089273 $168 13.062991043603041 $96 $169 forward 7 unknown #
loop $-1 $-1 $103 $60 #
plane-surface $-1 -40.043946653645428 -12.855101234198163 1.3967858748206083 -0.73135370988377701 0 0.68199835119979291 0.68199835119979291 0 0.73135370988377701 forward_v I I I I #
loop $-1 $-1 $170 $39 #
coedge $-1 $101 $101 $102 $171 reversed $61 $-1 #
coedge $-1 $102 $102 $101 $171 forward $63 $-1 #
coedge $-1 $103 $103 $64 $104 forward $98 $-1 #
edge $-1 $172 0 $172 6.2831853071796004 $103 $173 forward 7 unknown #
face $-1 $174 $175 $22 $-1 $176 forward single #
loop $-1 $-1 $177 $65 #
plane-surface $-1 0 23.709360034121048 0 0 -1 0 0 0 -1 forward_v I I I I #
coedge $-1 $178 $179 $180 $181 reversed $66 $-1 #
coedge $-1 $110 $68 $182 $183 reversed $43 $-1 #
coedge $-1 $68 $109 $178 $184 reversed $43 $-1 #
coedge $-1 $180 $185 $68 $112 forward $186 $-1 #
edge $-1 $187 52.11162815523717 $188 55.662139865602576 $111 $189 forward 7 unknown #
loop $-1 $-1 $118 $69 #
plane-surface $-1 -17.56646189641549 18.414949374433874 57.553581042676782 0.69465837861970381 0 0.71933979245794832 0.71933979245794832 0 -0.69465837861970381 forward_v I I I I #
loop $-1 $-1 $190 $45 #
coedge $-1 $116 $116 $117 $191 reversed $70 $-1 #
coedge $-1 $117 $117 $116 $191 forward $72 $-1 #
coedge $-1 $118 $118 $73 $119 forward $113 $-1 #
edge $-1 $192 0 $192 6.2831853071796004 $118 $193 forward 7 unknown #
face $-1 $194 $195 $18 $-1 $196 reversed single #
loop $-1 $-1 $197 $74 #
plane-surface $-1 -40.043946653645435 0 0 1 0 0 0 0 -1 forward_v I I I I #
coedge $-1 $198 $131 $199 $200 forward $75 $-1 #
coedge $-1 $201 $77 $198 $202 forward $49 $-1 #
coedge $-1 $77 $201 $203 $204 forward $49 $-1 #
coedge $-1 $134 $133 $77 $127 reversed $135 $-1 #
edge $-1 $205 -23.709360034121048 $206 23.709360034121048 $126 $207 forward 7 unknown #
coedge $-1 $79 $78 $208 $209 forward $31 $-1 #
coedge $-1 $210 $211 $78 $130 reversed $195 $-1 #
edge $-1 $137 -40.043946653645435 $212 40.043946653645435 $129 $213 forward 7 unknown #
coedge $-1 $123 $214 $79 $132 reversed $75 $-1 #
edge $-1 $215 -40.043946653645435 $136 40.043946653645435 $131 $216 forward 7 unknown #
coedge $-1 $126 $80 $214 $217 forward $135 $-1 #
coedge $-1 $80 $126 $210 $218 reversed $135 $-1 #
loop $-1 $-1 $133 $194 #
vertex $-1 $81 $219 #
vertex $-1 $81 $220 #
straight-curve $-1 40.043946653645435 0 5.4703666411316858 0 1 0 I I #
face $-1 $221 $222 $19 $-1 $223 reversed single #
loop $-1 $-1 $88 $82 #
plane-surface $-1 -38.115410154721154 -26.017301492875138 0 1 0 0 0 0 -1 forward_v I I I I #
coedge $-1 $224 $225 $226 $227 forward $83 $-1 #
coedge $-1 $228 $85 $229 $230 forward $53 $-1 #
coedge $-1 $85 $228 $149 $231 forward $53 $-1 #
edge $-1 $151 -38.115410154721154 $232 -35.115410154721154 $85 $233 forward 7 unknown #
coedge $-1 $87 $86 $234 $235 forward $34 $-1 #
coedge $-1 $236 $237 $86 $148 forward $238 $-1 #
edge $-1 $239 35.115410154721154 $152 38.115410154721154 $147 $240 forward 7 unknown #
coedge $-1 $226 $88 $144 $231 reversed $140 $-1 #
coedge $-1 $88 $226 $236 $241 reversed $140 $-1 #
vertex $-1 $145 $242 #
vertex $-1 $241 $243 #
straight-curve $-1 -38.115410154721154 -23.709360034121048 0 0 0 1 I I #
face $-1 $-1 $166 $20 $-1 $244 forward single #
loop $-1 $-1 $245 $90 #
plane-surface $-1 -40.043946653645435 0 0 1 0 0 0 0 -1 forward_v I I I I #
coedge $-1 $246 $247 $248 $249 reversed $91 $-1 #
coedge $-1 $250 $93 $95 $164 forward $57 $-1 #
coedge $-1 $93 $250 $246 $251 forward $57 $-1 #
coedge $-1 $248 $96 $93 $161 forward $166 $-1 #
edge $-1 $168 -12.665926499513789 $252 -0.18917473468437329 $160 $253 forward 7 unknown #
coedge $-1 $254 $255 $94 $163 forward $155 $-1 #
edge $-1 $256 -26.611512655908353 $167 -22.537931889597267 $162 $257 forward 7 unknown #
edge $-1 $168 -5.569918783837756 $256 1.0367256691888158e-014 $95 $258 forward 7 unknown #
coedge $-1 $96 $248 $254 $259 forward $166 $-1 #
loop $-1 $-1 $248 $154 #
vertex $-1 $163 $260 #
vertex $-1 $97 $261 #
straight-curve $-1 -49.308262270354362 -19.093477116612871 5.4703666411316867 1 0 0 I I #
coedge $-1 $170 $170 $-1 $262 reversed $100 $-1 #
edge $-1 $263 0 $263 6.2831853071796004 $101 $264 forward 7 unknown #
vertex $-1 $104 $265 #
ellipse-curve $-1 -38.144608940198381 -12.855101234198163 3.4335762579761413 -0.73135370988377701 0 0.68199835119979291 0.68199835119979291 0 0.73135370988377701 1 I I #
face $-1 $-1 $186 $22 $-1 $266 reversed single #
loop $-1 $-1 $267 $105 #
plane-surface $-1 0 0 5.4703666411316858 0 0 1 1 0 0 forward_v I I I I #
coedge $-1 $268 $269 $179 $270 forward $106 $-1 #
coedge $-1 $271 $108 $110 $184 forward $66 $-1 #
coedge $-1 $108 $271 $177 $270 reversed $66 $-1 #
coedge $-1 $272 $111 $108 $181 forward $186 $-1 #
edge $-1 $188 3.9130640275297601 $273 14.50188534690411 $180 $274 forward 7 unknown #
coedge $-1 $275 $267 $109 $183 forward $175 $-1 #
edge $-1 $276 17.333652123818382 $187 21.010314545897927 $182 $277 forward 7 unknown #
edge $-1 $188 -80.087893307290869 $276 -74.976731015661528 $110 $278 forward 7 unknown #
coedge $-1 $111 $272 $275 $279 reversed $186 $-1 #
loop $-1 $-1 $180 $174 #
vertex $-1 $279 $280 #
vertex $-1 $112 $281 #
straight-curve $-1 40.043946653645435 13.120538714746697 57.581994796368853 0 0 -1 I I #
coedge $-1 $190 $190 $-1 $282 reversed $115 $-1 #
edge $-1 $283 0 $283 6.2831853071796004 $116 $284 forward 7 unknown #
vertex $-1 $119 $285 #
ellipse-curve $-1 38.205615442605662 18.414949374433874 3.695110785948982 0.69465837861970381 0 0.71933979245794832 0.71933979245794832 0 -0.69465837861970381 1 I I #
face $-1 $-1 $135 $18 $-1 $286 reversed single #
loop $-1 $-1 $210 $120 #
plane-surface $-1 0 23.709360034121048 0 0 -1 0 0 0 -1 forward_v I I I I #
coedge $-1 $287 $208 $211 $288 forward $121 $-1 #
coedge $-1 $214 $123 $124 $202 reversed $75 $-1 #
coedge $-1 $208 $287 $123 $200 reversed $121 $-1 #
edge $-1 $215 -5.4703666411316858 $289 5.4703666411316858 $199 $290 forward 7 unknown #
coedge $-1 $125 $124 $287 $291 forward $49 $-1 #
edge $-1 $206 -40.043946653645435 $289 40.043946653645435 $198 $292 forward 7 unknown #
coedge $-1 $211 $210 $125 $204 reversed $195 $-1 #
edge $-1 $293 -40.043946653645435 $205 40.043946653645435 $203 $294 forward 7 unknown #
vertex $-1 $127 $295 #
vertex $-1 $217 $296 #
straight-curve $-1 40.043946653645435 0 -5.4703666411316858 0 -1 0 I I #
coedge $-1 $197 $199 $128 $209 reversed $121 $-1 #
edge $-1 $212 -23.709360034121048 $215 23.709360034121048 $208 $297 forward 7 unknown #
coedge $-1 $203 $129 $134 $218 forward $195 $-1 #
coedge $-1 $129 $203 $197 $288 reversed $195 $-1 #
vertex $-1 $130 $298 #
straight-curve $-1 0 23.709360034121048 5.4703666411316858 -1 0 0 I I #
coedge $-1 $131 $198 $133 $217 reversed $75 $-1 #
vertex $-1 $209 $299 #
straight-curve $-1 0 -23.709360034121048 5.4703666411316858 1 0 0 I I #
edge $-1 $136 -5.4703666411316858 $206 5.4703666411316858 $133 $300 forward 7 unknown #
edge $-1 $137 -5.4703666411316858 $205 5.4703666411316858 $134 $301 forward 7 unknown #
point $-1 40.043946653645435 -23.709360034121048 5.4703666411316858 #
point $-1 40.043946653645435 23.709360034121048 5.4703666411316858 #
face $-1 $-1 $238 $19 $-1 $302 forward single #
loop $-1 $-1 $303 $139 #
plane-surface $-1 -35.115410154721154 -26.017301492875138 0 -1 0 0 0 0 1 forward_v I I I I #
coedge $-1 $304 $142 $228 $305 reversed $83 $-1 #
coedge $-1 $142 $304 $306 $307 reversed $83 $-1 #
coedge $-1 $150 $149 $142 $227 reversed $140 $-1 #
edge $-1 $308 -5.4703666411316858 $309 5.4703666411316858 $226 $310 forward 7 unknown #
coedge $-1 $144 $143 $224 $305 forward $53 $-1 #
coedge $-1 $234 $303 $143 $230 reversed $222 $-1 #
edge $-1 $232 -2.3079414587540903 $311 2.3079414587540903 $229 $312 forward 7 unknown #
edge $-1 $309 -2.3079414587540903 $151 2.3079414587540903 $149 $313 forward 7 unknown #
vertex $-1 $230 $314 #
straight-curve $-1 0 -23.709360034121048 -5.4703666411316858 1 0 0 I I #
coedge $-1 $315 $229 $146 $235 reversed $222 $-1 #
edge $-1 $239 -5.4703666411316858 $232 5.4703666411316858 $234 $316 forward 7 unknown #
coedge $-1 $306 $147 $150 $241 forward $238 $-1 #
coedge $-1 $147 $306 $315 $317 forward $238 $-1 #
loop $-1 $-1 $147 $221 #
vertex $-1 $148 $318 #
straight-curve $-1 0 -23.709360034121048 5.4703666411316858 -1 0 0 I I #
edge $-1 $152 -2.3079414587540903 $308 2.3079414587540903 $150 $319 forward 7 unknown #
point $-1 -38.115410154721154 -23.709360034121048 -5.4703666411316858 #
point $-1 -38.115410154721154 -23.709360034121048 5.4703666411316858 #
plane-surface $-1 0 0 5.4703666411316858 0 0 1 1 0 0 forward_v I I I I #
coedge $-1 $255 $254 $247 $320 forward $155 $-1 #
coedge $-1 $247 $157 $159 $251 reversed $91 $-1 #
coedge $-1 $157 $246 $245 $320 reversed $91 $-1 #
coedge $-1 $165 $160 $157 $249 forward $166 $-1 #
edge $-1 $252 -13.062991043603041 $321 -9.2643156167089273 $248 $322 forward 7 unknown #
coedge $-1 $159 $158 $255 $323 reversed $57 $-1 #
edge $-1 $324 -1.0367256691888158e-014 $252 5.569918783837756 $246 $325 forward 7 unknown #
vertex $-1 $161 $326 #
straight-curve $-1 -36.245271226751328 -6.4275506170990813 5.4703666411316849 0 1 0 I I #
coedge $-1 $245 $162 $165 $259 reversed $155 $-1 #
coedge $-1 $162 $245 $250 $323 forward $155 $-1 #
vertex $-1 $163 $327 #
straight-curve $-1 -40.043946653645435 -19.093477116612871 28.008298530728954 0 0 1 I I #
straight-curve $-1 -40.043946653645428 -19.093477116612871 1.3967858748206083 -0.68199835119979291 0 -0.73135370988377701 I I #
edge $-1 $321 6.6167253517834546 $167 19.093477116612871 $254 $328 forward 7 unknown #
point $-1 -40.043946653645435 -19.093477116612871 5.4703666411316858 #
point $-1 -36.245271226751321 -19.093477116612871 5.4703666411316858 #
edge $-1 $329 1 $329 0 $170 $-1 forward 7 unknown #
vertex $-1 $171 $330 #
ellipse-curve $-1 -37.164032062964459 -12.855101234198163 2.5191735490537388 -0.73135370988377701 0 0.68199835119979291 0.68199835119979291 0 0.73135370988377701 1 I I #
point $-1 -37.462610588998594 -12.855101234198163 4.1649299678599228 #
plane-surface $-1 40.043946653645435 0 0 -1 0 0 0 0 1 forward_v I I I I #
coedge $-1 $182 $331 $271 $332 forward $175 $-1 #
coedge $-1 $269 $177 $331 $333 reversed $106 $-1 #
coedge $-1 $177 $268 $272 $334 forward $106 $-1 #
edge $-1 $273 -53.779727134465091 $335 -48.66856484283575 $177 $336 forward 7 unknown #
coedge $-1 $179 $178 $267 $332 reversed $66 $-1 #
coedge $-1 $185 $180 $269 $334 reversed $186 $-1 #
vertex $-1 $181 $337 #
straight-curve $-1 40.043946653645435 9.2074746872169371 1.9198549307662809 0 1 0 I I #
coedge $-1 $331 $182 $185 $279 forward $175 $-1 #
vertex $-1 $183 $338 #
straight-curve $-1 19.033632107747508 13.120538714746697 5.4703666411316831 1 0 0 I I #
straight-curve $-1 -17.56646189641549 13.120538714746697 57.553581042676782 -0.71933979245794832 0 0.69465837861970381 I I #
edge $-1 $187 13.120538714746697 $339 23.709360034121048 $185 $340 forward 7 unknown #
point $-1 40.043946653645435 13.120538714746697 5.4703666411316858 #
point $-1 40.043946653645435 13.120538714746697 1.9198549307662773 #
edge $-1 $341 1 $341 0 $190 $-1 forward 7 unknown #
vertex $-1 $191 $342 #
ellipse-curve $-1 36.697006632493149 18.414949374433874 2.13290066689322 0.69465837861970381 0 0.71933979245794832 0.71933979245794832 0 -0.69465837861970381 1 I I #
point $-1 38.924955235063607 18.414949374433874 3.0004524073292749 #
plane-surface $-1 40.043946653645435 0 0 -1 0 0 0 0 1 forward_v I I I I #
coedge $-1 $199 $197 $201 $291 reversed $121 $-1 #
edge $-1 $212 -5.4703666411316858 $293 5.4703666411316858 $211 $343 forward 7 unknown #
vertex $-1 $291 $344 #
straight-curve $-1 -40.043946653645435 -23.709360034121048 0 0 0 -1 I I #
edge $-1 $289 -23.709360034121048 $293 23.709360034121048 $287 $345 forward 7 unknown #
straight-curve $-1 0 -23.709360034121048 -5.4703666411316858 -1 0 0 I I #
vertex $-1 $204 $346 #
straight-curve $-1 0 23.709360034121048 -5.4703666411316858 1 0 0 I I #
point $-1 40.043946653645435 23.709360034121048 -5.4703666411316858 #
point $-1 40.043946653645435 -23.709360034121048 -5.4703666411316858 #
straight-curve $-1 -40.043946653645435 0 5.4703666411316858 0 -1 0 I I #
point $-1 -40.043946653645435 23.709360034121048 5.4703666411316858 #
point $-1 -40.043946653645435 -23.709360034121048 5.4703666411316858 #
straight-curve $-1 40.043946653645435 -23.709360034121048 0 0 0 -1 I I #
straight-curve $-1 40.043946653645435 23.709360034121048 0 0 0 -1 I I #
plane-surface $-1 0 0 5.4703666411316858 0 0 1 1 0 0 forward_v I I I I #
coedge $-1 $229 $315 $304 $347 forward $222 $-1 #
coedge $-1 $225 $224 $303 $347 reversed $83 $-1 #
edge $-1 $311 -1.5 $309 1.5 $224 $348 forward 7 unknown #
coedge $-1 $237 $236 $225 $307 forward $238 $-1 #
edge $-1 $308 -1.5 $349 1.5 $225 $350 forward 7 unknown #
vertex $-1 $241 $351 #
vertex $-1 $231 $352 #
straight-curve $-1 -38.115410154721154 -28.325242951629228 0 0 0 -1 I I #
vertex $-1 $347 $353 #
straight-curve $-1 -35.115410154721154 -26.017301492875138 -5.4703666411316858 0 -1 0 I I #
straight-curve $-1 -38.115410154721154 -26.017301492875138 -5.4703666411316858 0 1 0 I I #
point $-1 -35.115410154721154 -23.709360034121048 -5.4703666411316858 #
coedge $-1 $303 $234 $237 $317 reversed $222 $-1 #
straight-curve $-1 -35.115410154721154 -23.709360034121048 0 0 0 -1 I I #
edge $-1 $349 -2.3079414587540903 $239 2.3079414587540903 $315 $354 forward 7 unknown #
point $-1 -35.115410154721154 -23.709360034121048 5.4703666411316858 #
straight-curve $-1 -38.115410154721154 -26.017301492875138 5.4703666411316858 0 -1 0 I I #
edge $-1 $321 22.537931889597267 $324 26.611512655908353 $245 $355 forward 7 unknown #
vertex $-1 $259 $356 #
straight-curve $-1 -49.308262270354362 -6.6167253517834546 5.4703666411316867 -1 0 0 I I #
edge $-1 $324 0.18917473468437329 $256 12.665926499513789 $255 $357 forward 7 unknown #
vertex $-1 $323 $358 #
straight-curve $-1 -40.043946653645428 -6.6167253517834546 1.3967858748206083 0.68199835119979291 0 0.73135370988377701 I I #
point $-1 -36.245271226751321 -6.6167253517834546 5.4703666411316858 #
point $-1 -40.043946653645435 -19.093477116612871 1.3967858748206008 #
straight-curve $-1 -40.043946653645435 0 5.4703666411316858 0 -1 0 I I #
vertex $-1 $262 $359 #
point $-1 -36.482033711764664 -12.855101234198163 3.2505272589375158 #
coedge $-1 $267 $275 $268 $333 forward $175 $-1 #
edge $-1 $335 -14.501885346904114 $276 -3.9130640275297601 $267 $360 forward 7 unknown #
edge $-1 $339 -40.043946653645435 $335 -36.36728423156589 $268 $361 forward 7 unknown #
edge $-1 $339 -5.4703666411316858 $273 -1.919854930766278 $272 $362 forward 7 unknown #
vertex $-1 $332 $363 #
straight-curve $-1 1.3580488982942196 23.709360034121048 39.27839298460389 -0.71933979245794832 0 0.69465837861970381 I I #
point $-1 40.043946653645435 23.709360034121048 1.919854930766278 #
point $-1 36.36728423156589 13.120538714746697 5.4703666411316902 #
vertex $-1 $279 $364 #
straight-curve $-1 40.043946653645435 0 5.4703666411316858 0 1 0 I I #
vertex $-1 $282 $365 #
point $-1 37.416346424951094 18.414949374433874 1.4382422882735164 #
straight-curve $-1 -40.043946653645435 23.709360034121048 0 0 0 -1 I I #
point $-1 -40.043946653645435 -23.709360034121048 -5.4703666411316858 #
straight-curve $-1 -40.043946653645435 0 -5.4703666411316858 0 1 0 I I #
point $-1 -40.043946653645435 23.709360034121048 -5.4703666411316858 #
edge $-1 $349 -5.4703666411316858 $311 5.4703666411316858 $303 $366 forward 7 unknown #
straight-curve $-1 -36.615410154721154 -28.325242951629228 -5.4703666411316858 -1 0 0 I I #
vertex $-1 $317 $367 #
straight-curve $-1 -36.615410154721154 -28.325242951629228 5.4703666411316858 1 0 0 I I #
point $-1 -38.115410154721154 -28.325242951629228 5.4703666411316858 #
point $-1 -38.115410154721154 -28.325242951629228 -5.4703666411316858 #
point $-1 -35.115410154721154 -28.325242951629228 -5.4703666411316858 #
straight-curve $-1 -35.115410154721154 -26.017301492875138 5.4703666411316858 0 1 0 I I #
straight-curve $-1 -40.043946653645435 -6.6167253517834546 28.008298530728954 0 0 -1 I I #
point $-1 -40.043946653645435 -6.6167253517834546 5.4703666411316858 #
straight-curve $-1 -40.043946653645435 -6.4275506170990813 1.3967858748206052 0 -1 0 I I #
point $-1 -40.043946653645435 -6.6167253517834546 1.3967858748206008 #
point $-1 -36.432678353080682 -12.855101234198163 1.8371751978539459 #
straight-curve $-1 36.367284231565897 9.2074746872169371 5.4703666411316831 0 -1 0 I I #
straight-curve $-1 0 23.709360034121048 5.4703666411316858 -1 0 0 I I #
straight-curve $-1 40.043946653645435 23.709360034121048 0 0 0 -1 I I #
point $-1 36.36728423156589 23.709360034121051 5.4703666411316902 #
point $-1 40.043946653645435 23.709360034121048 5.4703666411316858 #
point $-1 36.002348253873443 18.414949374433874 1.4135608744352719 #
straight-curve $-1 -35.115410154721154 -28.325242951629228 0 0 0 -1 I I #
point $-1 -35.115410154721154 -28.325242951629228 5.4703666411316858 #
End-of-ACIS-data 