500 0 7 0           
7 Unknown 11 ACIS 5.0 NT 24 Fri Mar 26 15:48:15 1999 
-1 9.9999999999999995e-007 1e-010 
body $-1 $7 $-1 $8 #
body $-1 $9 $-1 $10 #
body $-1 $11 $-1 $12 #
body $-1 $13 $-1 $14 #
body $-1 $15 $-1 $16 #
body $-1 $17 $-1 $18 #
body $-1 $19 $-1 $20 #
lump $-1 $-1 $21 $0 #
transform $-1 1 0 0 0 1 0 0 0 1 46.502883999145482 21.023725790781619 8.3458423290557882 1 rotate no_reflect no_shear #
lump $-1 $-1 $22 $1 #
transform $-1 1 0 0 0 1 0 0 0 1 46.502883999145482 21.023725790781619 8.3458423290557882 1 rotate no_reflect no_shear #
lump $-1 $-1 $23 $2 #
transform $-1 1 0 0 0 1 0 0 0 1 46.502883999145482 21.023725790781619 8.3458423290557882 1 rotate no_reflect no_shear #
lump $-1 $-1 $24 $3 #
transform $-1 1 0 0 0 1 0 0 0 1 46.502883999145482 21.023725790781619 8.3458423290557882 1 rotate no_reflect no_shear #
lump $-1 $-1 $25 $4 #
transform $-1 1 0 0 0 1 0 0 0 1 46.502883999145482 21.023725790781619 8.3458423290557882 1 rotate no_reflect no_shear #
lump $-1 $-1 $26 $5 #
transform $-1 1 0 0 0 1 0 0 0 1 46.502883999145482 21.023725790781619 8.3458423290557882 1 rotate no_reflect no_shear #
lump $-1 $-1 $27 $6 #
transform $-1 1 0 0 0 1 0 0 0 1 46.502883999145482 21.023725790781619 8.3458423290557882 1 rotate no_reflect no_shear #
shell $-1 $-1 $-1 $28 $-1 $7 #
shell $-1 $-1 $-1 $29 $-1 $9 #
shell $-1 $-1 $-1 $30 $-1 $11 #
shell $-1 $-1 $-1 $31 $-1 $13 #
shell $-1 $-1 $-1 $32 $-1 $15 #
shell $-1 $-1 $-1 $33 $-1 $17 #
shell $-1 $-1 $-1 $34 $-1 $19 #
face $-1 $35 $36 $21 $-1 $37 reversed single #
face $-1 $38 $39 $22 $-1 $40 forward single #
face $-1 $41 $42 $23 $-1 $43 reversed single #
face $-1 $44 $45 $24 $-1 $46 forward single #
face $-1 $47 $48 $25 $-1 $49 reversed single #
face $-1 $50 $51 $26 $-1 $52 forward single #
face $-1 $53 $54 $27 $-1 $55 forward single #
face $-1 $56 $57 $21 $-1 $58 forward single #
loop $-1 $-1 $59 $28 #
plane-surface $-1 0 -21.023725790781619 0 0 1 0 0 0 1 forward_v I I I I #
face $-1 $60 $61 $22 $-1 $62 forward single #
loop $-1 $-1 $63 $29 #
plane-surface $-1 0 -21.023725790781619 0 0 1 0 0 0 1 forward_v I I I I #
face $-1 $64 $65 $23 $-1 $66 reversed single #
loop $-1 $-1 $67 $30 #
plane-surface $-1 -97.157456396242324 -8.4105680355512771 81.875781260882206 0 1 0 -0.54463904215088732 0 0.83867056331134215 forward_v I I I I #
face $-1 $68 $69 $24 $-1 $70 forward single #
loop $-1 $71 $72 $31 #
cone-surface $-1 -42.41201558178458 -4.8233446396398492 5.1119182475766642 0.54463904215088732 0 -0.83867056331134215 0.83867056331134215 0 0.54463904215088732 1 I I 0 1 1 forward I I I I #
face $-1 $73 $74 $25 $-1 $75 reversed single #
loop $-1 $-1 $76 $32 #
plane-surface $-1 30.473408287751269 12.960197553414314 134.69208285284557 0 1 0 0.61566148304635926 0 0.78801074757464917 forward_v I I I I #
face $-1 $77 $78 $26 $-1 $79 forward single #
loop $-1 $80 $81 $33 #
cone-surface $-1 43.272662024772586 15.264062764090689 5.5527494153826193 -0.61566148304635926 0 -0.78801074757464917 0.39400537378732459 0 -0.30783074152317963 1 I I 0 1 0.5 forward I I I I #
face $-1 $82 $83 $27 $-1 $84 forward single #
loop $-1 $85 $86 $34 #
cone-surface $-1 43.272662024772586 18.719860580105248 5.5527494153826193 -0.61566148304635926 0 -0.78801074757464917 0.39400537378732459 0 -0.30783074152317963 1 I I 0 1 0.5 forward I I I I #
face $-1 $87 $88 $21 $-1 $89 reversed single #
loop $-1 $-1 $90 $35 #
plane-surface $-1 0 0 8.3458423290557882 0 0 1 1 0 0 forward_v I I I I #
coedge $-1 $91 $92 $93 $94 reversed $36 $-1 #
face $-1 $95 $96 $22 $-1 $97 reversed single #
loop $-1 $-1 $98 $38 #
plane-surface $-1 0 0 8.3458423290557882 0 0 1 1 0 0 forward_v I I I I #
coedge $-1 $99 $100 $101 $102 forward $39 $-1 #
face $-1 $103 $104 $23 $-1 $105 reversed single #
loop $-1 $-1 $106 $41 #
plane-surface $-1 -46.502883999145482 -4.8233446396398492 3.8745814225515289 -0.54463904215088732 0 0.83867056331134215 0.83867056331134215 0 0.54463904215088732 forward_v I I I I #
coedge $-1 $107 $108 $109 $110 reversed $42 $-1 #
face $-1 $-1 $111 $24 $-1 $112 forward single #
loop $-1 $113 $114 $44 #
cone-surface $-1 -41.491396586221633 -4.8233446396398492 3.6942893376939985 0.54463904215088732 0 -0.83867056331134215 0.41933528165567108 0 0.27231952107544366 1 I I -0.70710678118654746 0.70710678118654746 0.5 forward I I I I #
loop $-1 $-1 $115 $31 #
coedge $-1 $72 $72 $116 $117 reversed $45 $-1 #
face $-1 $118 $119 $25 $-1 $120 forward single #
loop $-1 $-1 $121 $47 #
plane-surface $-1 -26.786660769942166 16.991961672097965 61.402538083757932 0.61566148304635926 0 0.78801074757464917 0.78801074757464917 0 -0.61566148304635926 forward_v I I I I #
coedge $-1 $122 $123 $124 $125 reversed $48 $-1 #
face $-1 $-1 $126 $26 $-1 $127 forward single #
loop $-1 $128 $129 $50 #
cone-surface $-1 42.578560868385736 15.264062764090689 4.6643404663114261 -0.61566148304635926 0 -0.78801074757464917 0.19700268689366229 0 -0.15391537076158981 1 I I -0.70710678118654746 0.70710678118654746 0.25 forward I I I I #
loop $-1 $-1 $130 $33 #
coedge $-1 $81 $81 $131 $132 reversed $51 $-1 #
face $-1 $-1 $133 $27 $-1 $134 forward single #
loop $-1 $135 $136 $53 #
cone-surface $-1 42.578560868385736 18.719860580105248 4.6643404663114261 -0.61566148304635926 0 -0.78801074757464917 0.19700268689366229 0 -0.15391537076158981 1 I I -0.70710678118654746 0.70710678118654746 0.25 forward I I I I #
loop $-1 $-1 $137 $34 #
coedge $-1 $86 $86 $138 $139 reversed $54 $-1 #
face $-1 $140 $141 $21 $-1 $142 reversed single #
loop $-1 $-1 $143 $56 #
plane-surface $-1 0 0 -8.3458423290557882 0 0 1 1 0 0 forward_v I I I I #
coedge $-1 $144 $145 $146 $147 forward $57 $-1 #
coedge $-1 $148 $59 $149 $150 reversed $36 $-1 #
coedge $-1 $59 $148 $151 $152 forward $36 $-1 #
coedge $-1 $153 $143 $59 $94 forward $88 $-1 #
edge $-1 $154 -46.502883999145482 $155 46.502883999145482 $59 $156 forward 7 unknown #
face $-1 $157 $158 $22 $-1 $159 reversed single #
loop $-1 $-1 $160 $60 #
plane-surface $-1 -46.502883999145482 0 0 1 0 0 0 0 -1 forward_v I I I I #
coedge $-1 $161 $162 $100 $163 forward $61 $-1 #
coedge $-1 $164 $63 $165 $166 reversed $39 $-1 #
coedge $-1 $63 $164 $98 $163 reversed $39 $-1 #
coedge $-1 $167 $168 $63 $102 reversed $169 $-1 #
edge $-1 $170 -8.3458423290557882 $171 8.3458423290557882 $101 $172 forward 7 unknown #
face $-1 $173 $174 $23 $-1 $175 reversed single #
loop $-1 $-1 $176 $64 #
plane-surface $-1 -97.157456396242324 -1.2361212437284212 81.875781260882206 0 -1 0 0.54463904215088732 0 -0.83867056331134215 forward_v I I I I #
coedge $-1 $177 $178 $179 $180 reversed $65 $-1 #
coedge $-1 $108 $67 $181 $182 reversed $42 $-1 #
coedge $-1 $67 $107 $177 $183 reversed $42 $-1 #
coedge $-1 $179 $184 $67 $110 forward $185 $-1 #
edge $-1 $186 2.0758441989756804 $187 8.9609820847224526 $109 $188 forward 7 unknown #
loop $-1 $-1 $116 $68 #
plane-surface $-1 -46.502883999145482 -4.8233446396398492 3.8745814225515289 -0.54463904215088732 0 0.83867056331134215 0.83867056331134215 0 0.54463904215088732 forward_v I I I I #
loop $-1 $-1 $189 $44 #
coedge $-1 $114 $114 $115 $190 reversed $69 $-1 #
coedge $-1 $115 $115 $114 $190 forward $71 $-1 #
coedge $-1 $116 $116 $72 $117 forward $111 $-1 #
edge $-1 $191 0 $191 6.2831853071796004 $116 $192 forward 7 unknown #
face $-1 $193 $194 $25 $-1 $195 reversed single #
loop $-1 $-1 $196 $73 #
plane-surface $-1 0 0 8.3458423290557882 0 0 1 1 0 0 forward_v I I I I #
coedge $-1 $197 $198 $199 $200 reversed $74 $-1 #
coedge $-1 $123 $76 $201 $202 reversed $48 $-1 #
coedge $-1 $76 $122 $197 $203 reversed $48 $-1 #
coedge $-1 $199 $204 $76 $125 forward $205 $-1 #
edge $-1 $206 59.000199097367002 $207 63.203572400358297 $124 $208 forward 7 unknown #
loop $-1 $-1 $131 $77 #
plane-surface $-1 -26.786660769942166 16.991961672097965 61.402538083757932 0.61566148304635926 0 0.78801074757464917 0.78801074757464917 0 -0.61566148304635926 forward_v I I I I #
loop $-1 $-1 $209 $50 #
coedge $-1 $129 $129 $130 $210 reversed $78 $-1 #
coedge $-1 $130 $130 $129 $210 forward $80 $-1 #
coedge $-1 $131 $131 $81 $132 forward $126 $-1 #
edge $-1 $211 0 $211 6.2831853071796004 $131 $212 forward 7 unknown #
loop $-1 $-1 $138 $82 #
plane-surface $-1 -26.786660769942166 16.991961672097965 61.402538083757932 0.61566148304635926 0 0.78801074757464917 0.78801074757464917 0 -0.61566148304635926 forward_v I I I I #
loop $-1 $-1 $213 $53 #
coedge $-1 $136 $136 $137 $214 reversed $83 $-1 #
coedge $-1 $137 $137 $136 $214 forward $85 $-1 #
coedge $-1 $138 $138 $86 $139 forward $133 $-1 #
edge $-1 $215 0 $215 6.2831853071796004 $138 $216 forward 7 unknown #
face $-1 $217 $218 $21 $-1 $219 reversed single #
loop $-1 $-1 $220 $87 #
plane-surface $-1 -46.502883999145482 0 0 1 0 0 0 0 -1 forward_v I I I I #
coedge $-1 $93 $221 $222 $223 forward $88 $-1 #
coedge $-1 $224 $90 $225 $226 forward $57 $-1 #
coedge $-1 $90 $224 $148 $227 forward $57 $-1 #
coedge $-1 $149 $228 $90 $147 reversed $229 $-1 #
edge $-1 $230 -21.023725790781619 $231 21.023725790781619 $146 $232 forward 7 unknown #
coedge $-1 $92 $91 $145 $227 reversed $36 $-1 #
coedge $-1 $222 $146 $91 $150 forward $229 $-1 #
edge $-1 $230 -8.3458423290557882 $154 8.3458423290557882 $149 $233 forward 7 unknown #
coedge $-1 $234 $235 $92 $152 reversed $141 $-1 #
edge $-1 $236 -8.3458423290557882 $155 8.3458423290557882 $151 $237 forward 7 unknown #
coedge $-1 $221 $93 $235 $238 forward $88 $-1 #
vertex $-1 $150 $239 #
vertex $-1 $238 $240 #
straight-curve $-1 0 -21.023725790781619 -8.3458423290557882 -1 0 0 I I #
face $-1 $241 $169 $22 $-1 $242 reversed single #
loop $-1 $-1 $243 $95 #
plane-surface $-1 -44.760997921561952 -27.933462783540065 0 0 1 0 0 0 1 forward_v I I I I #
coedge $-1 $244 $245 $164 $246 forward $96 $-1 #
coedge $-1 $247 $98 $245 $248 forward $61 $-1 #
coedge $-1 $98 $247 $167 $249 forward $61 $-1 #
edge $-1 $170 43.019111843978422 $250 46.502883999145482 $98 $251 forward 7 unknown #
coedge $-1 $100 $99 $160 $246 reversed $39 $-1 #
coedge $-1 $252 $253 $99 $166 forward $254 $-1 #
edge $-1 $255 -46.502883999145482 $171 -43.019111843978422 $165 $256 forward 7 unknown #
coedge $-1 $257 $101 $162 $249 reversed $169 $-1 #
coedge $-1 $101 $257 $252 $258 reversed $169 $-1 #
loop $-1 $-1 $257 $157 #
vertex $-1 $163 $259 #
vertex $-1 $258 $260 #
straight-curve $-1 -43.019111843978422 -21.023725790781619 0 0 0 -1 I I #
face $-1 $-1 $185 $23 $-1 $261 forward single #
loop $-1 $-1 $262 $103 #
plane-surface $-1 -46.502883999145482 0 0 1 0 0 0 0 -1 forward_v I I I I #
coedge $-1 $263 $264 $265 $266 reversed $104 $-1 #
coedge $-1 $267 $106 $108 $183 forward $65 $-1 #
coedge $-1 $106 $267 $263 $268 forward $65 $-1 #
coedge $-1 $265 $109 $106 $180 forward $185 $-1 #
edge $-1 $187 -5.9988957157313525 $269 1.1755510760915033 $179 $270 forward 7 unknown #
coedge $-1 $271 $272 $107 $182 forward $174 $-1 #
edge $-1 $273 -37.063309207889574 $186 -32.592048301385319 $181 $274 forward 7 unknown #
edge $-1 $187 -8.2095857264406966 $273 0 $108 $275 forward 7 unknown #
coedge $-1 $109 $265 $271 $276 forward $185 $-1 #
loop $-1 $-1 $265 $173 #
vertex $-1 $182 $277 #
vertex $-1 $110 $278 #
straight-curve $-1 -48.578728198121162 -8.4105680355512771 8.3458423290557846 1 0 0 I I #
coedge $-1 $189 $189 $-1 $279 reversed $113 $-1 #
edge $-1 $280 0 $280 6.2831853071796004 $114 $281 forward 7 unknown #
vertex $-1 $117 $282 #
ellipse-curve $-1 -43.060315056272088 -4.8233446396398492 6.1102118758036621 -0.54463904215088732 0 0.83867056331134215 0.83867056331134215 0 0.54463904215088732 1 I I #
face $-1 $-1 $205 $25 $-1 $283 reversed single #
loop $-1 $-1 $284 $118 #
plane-surface $-1 0 21.023725790781619 0 0 -1 0 0 0 -1 forward_v I I I I #
coedge $-1 $201 $285 $286 $287 forward $119 $-1 #
coedge $-1 $286 $121 $123 $203 forward $74 $-1 #
coedge $-1 $121 $286 $284 $288 reversed $74 $-1 #
coedge $-1 $289 $124 $121 $200 forward $205 $-1 #
edge $-1 $207 4.464216717365332 $290 12.527744954732636 $199 $291 forward 7 unknown #
coedge $-1 $292 $196 $122 $202 forward $119 $-1 #
edge $-1 $293 25.886107477774573 $206 31.266179855269847 $201 $294 forward 7 unknown #
edge $-1 $207 -93.005767998290963 $293 -86.178358100578095 $123 $295 forward 7 unknown #
coedge $-1 $124 $289 $292 $296 reversed $205 $-1 #
loop $-1 $-1 $199 $193 #
vertex $-1 $296 $297 #
vertex $-1 $125 $298 #
straight-curve $-1 46.502883999145482 12.960197553414314 67.346041426422786 0 0 -1 I I #
coedge $-1 $209 $209 $-1 $299 reversed $128 $-1 #
edge $-1 $300 0 $300 6.2831853071796004 $129 $301 forward 7 unknown #
vertex $-1 $132 $302 #
ellipse-curve $-1 43.812847810397841 15.264062764090689 6.2441556775601477 0.61566148304635926 0 0.78801074757464917 0.39400537378732459 0 -0.30783074152317963 1 I I #
coedge $-1 $213 $213 $-1 $303 reversed $135 $-1 #
edge $-1 $304 0 $304 6.2831853071796004 $136 $305 forward 7 unknown #
vertex $-1 $139 $306 #
ellipse-curve $-1 43.812847810397841 18.719860580105248 6.2441556775601477 0.61566148304635926 0 0.78801074757464917 0.39400537378732459 0 -0.30783074152317963 1 I I #
face $-1 $-1 $229 $21 $-1 $307 reversed single #
loop $-1 $-1 $308 $140 #
plane-surface $-1 0 21.023725790781619 0 0 -1 0 0 0 -1 forward_v I I I I #
coedge $-1 $235 $234 $309 $310 forward $141 $-1 #
coedge $-1 $143 $153 $311 $312 forward $88 $-1 #
coedge $-1 $228 $149 $143 $223 reversed $229 $-1 #
edge $-1 $313 -21.023725790781619 $154 21.023725790781619 $222 $314 forward 7 unknown #
coedge $-1 $145 $144 $234 $315 forward $57 $-1 #
coedge $-1 $308 $309 $144 $226 reversed $218 $-1 #
edge $-1 $231 -46.502883999145482 $316 46.502883999145482 $225 $317 forward 7 unknown #
edge $-1 $236 -46.502883999145482 $230 46.502883999145482 $148 $318 forward 7 unknown #
coedge $-1 $146 $222 $308 $319 reversed $229 $-1 #
loop $-1 $-1 $149 $217 #
vertex $-1 $147 $320 #
vertex $-1 $147 $321 #
straight-curve $-1 46.502883999145482 0 8.3458423290557882 0 1 0 I I #
straight-curve $-1 46.502883999145482 -21.023725790781619 0 0 0 -1 I I #
coedge $-1 $220 $151 $224 $315 reversed $141 $-1 #
coedge $-1 $151 $220 $153 $238 reversed $141 $-1 #
vertex $-1 $315 $322 #
straight-curve $-1 -46.502883999145482 -21.023725790781619 0 0 0 -1 I I #
edge $-1 $155 -21.023725790781619 $323 21.023725790781619 $235 $324 forward 7 unknown #
point $-1 46.502883999145482 -21.023725790781619 -8.3458423290557882 #
point $-1 -46.502883999145482 -21.023725790781619 -8.3458423290557882 #
face $-1 $-1 $254 $22 $-1 $325 reversed single #
plane-surface $-1 -43.019111843978422 -24.478594287160842 0 -1 0 0 0 0 1 forward_v I I I I #
coedge $-1 $326 $327 $328 $329 forward $158 $-1 #
coedge $-1 $328 $160 $253 $330 reversed $96 $-1 #
coedge $-1 $160 $328 $161 $248 reversed $96 $-1 #
edge $-1 $250 -8.3458423290557882 $255 8.3458423290557882 $160 $331 forward 7 unknown #
coedge $-1 $162 $161 $327 $332 forward $61 $-1 #
edge $-1 $250 21.023725790781619 $333 27.933462783540065 $245 $334 forward 7 unknown #
edge $-1 $335 -3.4548684963792233 $170 3.4548684963792233 $167 $336 forward 7 unknown #
vertex $-1 $248 $337 #
straight-curve $-1 0 -21.023725790781619 8.3458423290557882 -1 0 0 I I #
coedge $-1 $338 $165 $168 $258 forward $254 $-1 #
coedge $-1 $165 $338 $244 $330 forward $254 $-1 #
loop $-1 $-1 $165 $241 #
vertex $-1 $246 $339 #
straight-curve $-1 0 -21.023725790781619 -8.3458423290557882 1 0 0 I I #
coedge $-1 $168 $167 $340 $341 forward $169 $-1 #
edge $-1 $171 -3.4548684963792233 $342 3.4548684963792233 $168 $343 forward 7 unknown #
point $-1 -43.019111843978422 -21.023725790781619 8.3458423290557882 #
point $-1 -43.019111843978422 -21.023725790781619 -8.3458423290557882 #
plane-surface $-1 0 0 8.3458423290557882 0 0 1 1 0 0 forward_v I I I I #
coedge $-1 $272 $271 $264 $344 forward $174 $-1 #
coedge $-1 $264 $176 $178 $268 reversed $104 $-1 #
coedge $-1 $176 $263 $262 $344 reversed $104 $-1 #
coedge $-1 $184 $179 $176 $266 forward $185 $-1 #
edge $-1 $269 -8.9609820847224526 $345 -2.0758441989756804 $265 $346 forward 7 unknown #
coedge $-1 $178 $177 $272 $347 reversed $65 $-1 #
edge $-1 $348 0 $269 8.2095857264406966 $263 $349 forward 7 unknown #
vertex $-1 $180 $350 #
straight-curve $-1 -39.617746113398709 -2.4116723198199246 8.3458423290557882 0 1 0 I I #
coedge $-1 $262 $181 $184 $276 reversed $174 $-1 #
coedge $-1 $181 $262 $267 $347 forward $174 $-1 #
vertex $-1 $182 $351 #
straight-curve $-1 -46.502883999145482 -8.4105680355512771 40.937890630441103 0 0 1 I I #
straight-curve $-1 -46.502883999145482 -8.4105680355512771 3.8745814225515289 -0.83867056331134215 0 -0.54463904215088732 I I #
edge $-1 $345 1.2361212437284212 $186 8.4105680355512771 $271 $352 forward 7 unknown #
point $-1 -46.502883999145482 -8.4105680355512771 8.3458423290557882 #
point $-1 -39.617746113398709 -8.4105680355512771 8.3458423290557882 #
edge $-1 $353 1 $353 0 $189 $-1 forward 7 unknown #
vertex $-1 $190 $354 #
ellipse-curve $-1 -41.763716107297078 -4.8233446396398492 4.1136246193496699 -0.54463904215088732 0 0.83867056331134215 0.83867056331134215 0 0.54463904215088732 1 I I #
point $-1 -42.221644492960749 -4.8233446396398492 6.6548509179545459 #
plane-surface $-1 46.502883999145482 0 0 -1 0 0 0 0 1 forward_v I I I I #
coedge $-1 $355 $356 $198 $288 forward $194 $-1 #
coedge $-1 $196 $292 $355 $357 forward $119 $-1 #
coedge $-1 $198 $197 $196 $287 reversed $74 $-1 #
edge $-1 $358 -12.527744954732633 $293 -4.464216717365332 $196 $359 forward 7 unknown #
edge $-1 $290 -63.550090879387156 $358 -56.722680981674287 $284 $360 forward 7 unknown #
coedge $-1 $204 $199 $356 $361 reversed $205 $-1 #
vertex $-1 $200 $362 #
straight-curve $-1 46.502883999145482 8.4959808360489824 4.142469026064493 0 1 0 I I #
coedge $-1 $285 $201 $204 $296 forward $119 $-1 #
vertex $-1 $202 $363 #
straight-curve $-1 15.236704143875635 12.960197553414314 8.3458423290557846 1 0 0 I I #
straight-curve $-1 -26.786660769942166 12.960197553414314 61.402538083757932 -0.78801074757464917 0 0.61566148304635926 I I #
edge $-1 $206 12.960197553414314 $364 21.023725790781619 $204 $365 forward 7 unknown #
point $-1 46.502883999145482 12.960197553414314 8.3458423290557882 #
point $-1 46.502883999145489 12.960197553414314 4.1424690260644894 #
edge $-1 $366 1 $366 0 $209 $-1 forward 7 unknown #
vertex $-1 $210 $367 #
ellipse-curve $-1 42.732476239147324 15.264062764090689 4.8613431532050884 0.61566148304635926 0 0.78801074757464917 0.39400537378732459 0 -0.30783074152317963 1 I I #
point $-1 44.206853184185164 15.264062764090689 5.9363249360369714 #
edge $-1 $368 1 $368 0 $213 $-1 forward 7 unknown #
vertex $-1 $214 $369 #
ellipse-curve $-1 42.732476239147324 18.719860580105248 4.8613431532050884 0.61566148304635926 0 0.78801074757464917 0.39400537378732459 0 -0.30783074152317963 1 I I #
point $-1 44.206853184185164 18.719860580105248 5.9363249360369714 #
plane-surface $-1 46.502883999145482 0 0 -1 0 0 0 0 1 forward_v I I I I #
coedge $-1 $311 $225 $228 $319 forward $218 $-1 #
coedge $-1 $225 $311 $220 $310 reversed $218 $-1 #
edge $-1 $316 -8.3458423290557882 $323 8.3458423290557882 $309 $370 forward 7 unknown #
coedge $-1 $309 $308 $221 $312 reversed $218 $-1 #
edge $-1 $323 -46.502883999145482 $313 46.502883999145482 $311 $371 forward 7 unknown #
vertex $-1 $223 $372 #
straight-curve $-1 46.502883999145482 0 -8.3458423290557882 0 -1 0 I I #
edge $-1 $316 -21.023725790781619 $236 21.023725790781619 $234 $373 forward 7 unknown #
vertex $-1 $226 $374 #
straight-curve $-1 0 21.023725790781619 8.3458423290557882 -1 0 0 I I #
straight-curve $-1 0 -21.023725790781619 8.3458423290557882 1 0 0 I I #
edge $-1 $231 -8.3458423290557882 $313 8.3458423290557882 $228 $375 forward 7 unknown #
point $-1 46.502883999145482 -21.023725790781619 8.3458423290557882 #
point $-1 46.502883999145482 21.023725790781619 8.3458423290557882 #
point $-1 -46.502883999145482 -21.023725790781619 8.3458423290557882 #
vertex $-1 $312 $376 #
straight-curve $-1 -46.502883999145482 0 -8.3458423290557882 0 1 0 I I #
plane-surface $-1 0 0 -8.3458423290557882 0 0 1 1 0 0 forward_v I I I I #
coedge $-1 $340 $243 $338 $377 reversed $158 $-1 #
coedge $-1 $243 $340 $247 $332 reversed $158 $-1 #
coedge $-1 $245 $244 $243 $329 reversed $96 $-1 #
edge $-1 $333 -8.3458423290557882 $378 8.3458423290557882 $328 $379 forward 7 unknown #
edge $-1 $378 -27.933462783540065 $255 -21.023725790781619 $244 $380 forward 7 unknown #
straight-curve $-1 -46.502883999145482 -21.023725790781619 0 0 0 -1 I I #
edge $-1 $333 -1.7418860775835299 $335 1.7418860775835299 $327 $381 forward 7 unknown #
vertex $-1 $248 $382 #
straight-curve $-1 -46.502883999145482 0 8.3458423290557882 0 -1 0 I I #
vertex $-1 $249 $383 #
straight-curve $-1 -43.019111843978422 -24.478594287160842 8.3458423290557882 0 1 0 I I #
point $-1 -46.502883999145482 -21.023725790781619 8.3458423290557882 #
coedge $-1 $253 $252 $326 $377 forward $254 $-1 #
point $-1 -46.502883999145482 -21.023725790781619 -8.3458423290557882 #
coedge $-1 $327 $326 $257 $341 reversed $158 $-1 #
edge $-1 $335 -8.3458423290557882 $342 8.3458423290557882 $257 $384 forward 7 unknown #
vertex $-1 $341 $385 #
straight-curve $-1 -43.019111843978422 -24.478594287160842 -8.3458423290557882 0 -1 0 I I #
edge $-1 $345 32.592048301385319 $348 37.063309207889574 $262 $386 forward 7 unknown #
vertex $-1 $276 $387 #
straight-curve $-1 -48.578728198121162 -1.2361212437284212 8.3458423290557846 -1 0 0 I I #
edge $-1 $348 -1.1755510760915033 $273 5.9988957157313525 $272 $388 forward 7 unknown #
vertex $-1 $347 $389 #
straight-curve $-1 -46.502883999145482 -1.2361212437284212 3.8745814225515289 0.83867056331134215 0 0.54463904215088732 I I #
point $-1 -39.617746113398709 -1.2361212437284212 8.3458423290557882 #
point $-1 -46.502883999145482 -8.4105680355512771 3.8745814225515289 #
straight-curve $-1 -46.502883999145482 0 8.3458423290557882 0 -1 0 I I #
vertex $-1 $279 $390 #
point $-1 -40.925045543985732 -4.8233446396398492 4.6582636615005573 #
coedge $-1 $356 $284 $285 $357 reversed $194 $-1 #
coedge $-1 $284 $355 $289 $361 forward $194 $-1 #
edge $-1 $364 -46.502883999145482 $358 -41.122811621650207 $355 $391 forward 7 unknown #
vertex $-1 $287 $392 #
straight-curve $-1 41.122811621650222 8.4959808360489824 8.3458423290557775 0 -1 0 I I #
straight-curve $-1 -3.5752706231572873 21.023725790781619 43.267812224598899 -0.78801074757464917 0 0.61566148304635926 I I #
edge $-1 $364 -8.3458423290557882 $290 -4.1424690260644947 $289 $393 forward 7 unknown #
point $-1 46.502883999145482 21.023725790781619 4.1424690260644947 #
point $-1 41.122811621650207 12.960197553414314 8.3458423290557846 #
vertex $-1 $296 $394 #
straight-curve $-1 46.502883999145482 0 8.3458423290557882 0 1 0 I I #
vertex $-1 $299 $395 #
point $-1 43.126481612934647 15.264062764090689 4.5535124116819086 #
vertex $-1 $303 $396 #
point $-1 43.126481612934647 18.719860580105248 4.5535124116819086 #
straight-curve $-1 -46.502883999145482 21.023725790781619 0 0 0 -1 I I #
straight-curve $-1 0 21.023725790781619 -8.3458423290557882 1 0 0 I I #
point $-1 46.502883999145482 21.023725790781619 -8.3458423290557882 #
straight-curve $-1 -46.502883999145482 0 8.3458423290557882 0 -1 0 I I #
point $-1 -46.502883999145482 21.023725790781619 8.3458423290557882 #
straight-curve $-1 46.502883999145482 21.023725790781619 0 0 0 -1 I I #
point $-1 -46.502883999145482 21.023725790781619 -8.3458423290557882 #
edge $-1 $342 -1.7418860775835299 $378 1.7418860775835299 $326 $397 forward 7 unknown #
vertex $-1 $330 $398 #
straight-curve $-1 -46.502883999145482 -27.933462783540065 0 0 0 -1 I I #
straight-curve $-1 -46.502883999145482 0 -8.3458423290557882 0 1 0 I I #
straight-curve $-1 -44.760997921561952 -27.933462783540065 8.3458423290557882 1 0 0 I I #
point $-1 -46.502883999145482 -27.933462783540065 8.3458423290557882 #
point $-1 -43.019111843978422 -27.933462783540065 8.3458423290557882 #
straight-curve $-1 -43.019111843978422 -27.933462783540065 0 0 0 -1 I I #
point $-1 -43.019111843978422 -27.933462783540065 -8.3458423290557882 #
straight-curve $-1 -46.502883999145482 -1.2361212437284212 40.937890630441103 0 0 -1 I I #
point $-1 -46.502883999145482 -1.2361212437284212 8.3458423290557882 #
straight-curve $-1 -46.502883999145482 -2.4116723198199246 3.8745814225515267 0 -1 0 I I #
point $-1 -46.502883999145482 -1.2361212437284212 3.8745814225515289 #
point $-1 -41.219077065146188 -4.8233446396398492 3.2749540560383275 #
straight-curve $-1 0 21.023725790781619 8.3458423290557882 -1 0 0 I I #
point $-1 41.122811621650207 21.023725790781615 8.3458423290557846 #
straight-curve $-1 46.502883999145482 21.023725790781619 0 0 0 -1 I I #
point $-1 46.502883999145482 21.023725790781619 8.3458423290557882 #
point $-1 42.424645497624148 15.264062764090689 4.4673377794177638 #
point $-1 42.424645497624148 18.719860580105248 4.4673377794177638 #
straight-curve $-1 -44.760997921561952 -27.933462783540065 -8.3458423290557882 -1 0 0 I I #
point $-1 -46.502883999145482 -27.933462783540065 -8.3458423290557882 #
End-of-ACIS-data 