500 0 8 0           
7 Unknown 11 ACIS 5.0 NT 24 Fri Mar 26 14:38:58 1999 
-1 9.9999999999999995e-007 1e-010 
body $-1 $8 $-1 $9 #
body $-1 $10 $-1 $11 #
body $-1 $12 $-1 $13 #
body $-1 $14 $-1 $15 #
body $-1 $16 $-1 $17 #
body $-1 $18 $-1 $19 #
body $-1 $20 $-1 $21 #
body $-1 $22 $-1 $23 #
lump $-1 $-1 $24 $0 #
transform $-1 1 0 0 0 1 0 0 0 1 53.846858119449443 22.458184060726708 9.1745660578777937 1 rotate no_reflect no_shear #
lump $-1 $-1 $25 $1 #
transform $-1 1 0 0 0 1 0 0 0 1 53.846858119449443 22.458184060726708 9.1745660578777937 1 rotate no_reflect no_shear #
lump $-1 $-1 $26 $2 #
transform $-1 1 0 0 0 1 0 0 0 1 53.846858119449443 22.458184060726708 9.1745660578777937 1 rotate no_reflect no_shear #
lump $-1 $-1 $27 $3 #
transform $-1 1 0 0 0 1 0 0 0 1 53.846858119449443 22.458184060726708 9.1745660578777937 1 rotate no_reflect no_shear #
lump $-1 $-1 $28 $4 #
transform $-1 1 0 0 0 1 0 0 0 1 53.846858119449443 22.458184060726708 9.1745660578777937 1 rotate no_reflect no_shear #
lump $-1 $-1 $29 $5 #
transform $-1 1 0 0 0 1 0 0 0 1 53.846858119449443 22.458184060726708 9.1745660578777937 1 rotate no_reflect no_shear #
lump $-1 $-1 $30 $6 #
transform $-1 1 0 0 0 1 0 0 0 1 53.846858119449443 22.458184060726708 9.1745660578777937 1 rotate no_reflect no_shear #
lump $-1 $-1 $31 $7 #
transform $-1 1 0 0 0 1 0 0 0 1 53.846858119449443 22.458184060726708 9.1745660578777937 1 rotate no_reflect no_shear #
shell $-1 $-1 $-1 $32 $-1 $8 #
shell $-1 $-1 $-1 $33 $-1 $10 #
shell $-1 $-1 $-1 $34 $-1 $12 #
shell $-1 $-1 $-1 $35 $-1 $14 #
shell $-1 $-1 $-1 $36 $-1 $16 #
shell $-1 $-1 $-1 $37 $-1 $18 #
shell $-1 $-1 $-1 $38 $-1 $20 #
shell $-1 $-1 $-1 $39 $-1 $22 #
face $-1 $40 $41 $24 $-1 $42 forward single #
face $-1 $43 $44 $25 $-1 $45 reversed single #
face $-1 $46 $47 $26 $-1 $48 reversed single #
face $-1 $49 $50 $27 $-1 $51 forward single #
face $-1 $52 $53 $28 $-1 $54 forward single #
face $-1 $55 $56 $29 $-1 $57 reversed single #
face $-1 $58 $59 $30 $-1 $60 forward single #
face $-1 $61 $62 $31 $-1 $63 forward single #
face $-1 $64 $65 $24 $-1 $66 reversed single #
loop $-1 $-1 $67 $32 #
plane-surface $-1 0 0 9.1745660578777937 0 0 1 1 0 0 forward_v I I I I #
face $-1 $68 $69 $25 $-1 $70 reversed single #
loop $-1 $-1 $71 $33 #
plane-surface $-1 0 -16.769883106322183 5.8942114016418063 0 0 1 1 0 0 forward_v I I I I #
face $-1 $72 $73 $26 $-1 $74 reversed single #
loop $-1 $-1 $75 $34 #
plane-surface $-1 90.692028126965511 -4.3727557423845838 151.48617806168929 0 -1 0 -0.85716730853699208 0 -0.51503806187062418 forward_v I I I I #
face $-1 $76 $77 $27 $-1 $78 forward single #
loop $-1 $79 $80 $35 #
cone-surface $-1 51.433191198506307 -9.1647746063367777 5.9779024875696898 -0.85716730853699208 0 -0.51503806187062418 0.25751903093531209 0 -0.42858365426849604 1 I I 0 1 0.5 forward I I I I #
face $-1 $81 $82 $28 $-1 $83 forward single #
loop $-1 $84 $85 $36 #
cone-surface $-1 51.433191198506307 -6.2895632879654606 5.9779024875696898 -0.85716730853699208 0 -0.51503806187062418 0.25751903093531209 0 -0.42858365426849604 1 I I 0 1 0.5 forward I I I I #
face $-1 $86 $87 $29 $-1 $88 reversed single #
loop $-1 $-1 $89 $37 #
plane-surface $-1 -120.1497311738637 -0.47848948437437144 87.78139995469661 0 1 0 -0.61566148304635926 0 0.78801074757464917 forward_v I I I I #
face $-1 $90 $91 $30 $-1 $92 forward single #
loop $-1 $93 $94 $38 #
cone-surface $-1 -48.906309965225475 2.3902910905089527 4.8477107025142132 0.61566148304635926 0 -0.78801074757464917 0.78801074757464917 0 0.61566148304635926 1 I I 0 1 1 forward I I I I #
face $-1 $95 $96 $31 $-1 $97 forward single #
loop $-1 $98 $99 $39 #
cone-surface $-1 -48.906309965225475 6.6934619528339425 4.8477107025142132 0.61566148304635926 0 -0.78801074757464917 0.78801074757464917 0 0.61566148304635926 1 I I 0 1 1 forward I I I I #
face $-1 $100 $101 $24 $-1 $102 reversed single #
loop $-1 $-1 $103 $40 #
plane-surface $-1 0 0 -9.1745660578777937 0 0 1 1 0 0 forward_v I I I I #
coedge $-1 $104 $105 $106 $107 forward $41 $-1 #
face $-1 $108 $109 $25 $-1 $110 reversed single #
loop $-1 $-1 $111 $43 #
plane-surface $-1 0 -11.081582151917656 7.5343887297598009 0 -1 0 0 0 -1 forward_v I I I I #
coedge $-1 $112 $113 $114 $115 reversed $44 $-1 #
face $-1 $116 $117 $26 $-1 $118 forward single #
loop $-1 $-1 $119 $46 #
plane-surface $-1 -1.6195047678779986 -7.7271689471511191 96.019815174361838 0.85716730853699208 0 0.51503806187062418 0.51503806187062418 0 -0.85716730853699208 forward_v I I I I #
coedge $-1 $120 $121 $122 $123 reversed $47 $-1 #
face $-1 $-1 $124 $27 $-1 $125 forward single #
loop $-1 $126 $127 $49 #
cone-surface $-1 50.447469721263666 -9.1647746063367777 5.3856212909736492 -0.85716730853699208 0 -0.51503806187062418 0.12875951546765604 0 -0.21429182713424802 1 I I -0.70710678118654746 0.70710678118654746 0.25 forward I I I I #
loop $-1 $-1 $128 $35 #
coedge $-1 $80 $80 $129 $130 reversed $50 $-1 #
face $-1 $-1 $131 $28 $-1 $132 forward single #
loop $-1 $133 $134 $52 #
cone-surface $-1 50.447469721263666 -6.2895632879654606 5.3856212909736492 -0.85716730853699208 0 -0.51503806187062418 0.12875951546765604 0 -0.21429182713424802 1 I I -0.70710678118654746 0.70710678118654746 0.25 forward I I I I #
loop $-1 $-1 $135 $36 #
coedge $-1 $85 $85 $136 $137 reversed $53 $-1 #
face $-1 $138 $139 $29 $-1 $140 reversed single #
loop $-1 $-1 $141 $55 #
plane-surface $-1 -53.846858119449422 4.5418765216714476 2.9175941121897608 -0.61566148304635926 0 0.78801074757464917 0.78801074757464917 0 0.61566148304635926 forward_v I I I I #
coedge $-1 $142 $143 $144 $145 reversed $56 $-1 #
face $-1 $-1 $146 $30 $-1 $147 forward single #
loop $-1 $148 $149 $58 #
cone-surface $-1 -47.662210430985795 2.3902910905089527 3.2553359462073246 0.61566148304635926 0 -0.78801074757464917 0.39400537378732459 0 0.30783074152317963 1 I I -0.70710678118654746 0.70710678118654746 0.5 forward I I I I #
loop $-1 $-1 $150 $38 #
coedge $-1 $94 $94 $151 $152 reversed $59 $-1 #
face $-1 $-1 $153 $31 $-1 $154 forward single #
loop $-1 $155 $156 $61 #
cone-surface $-1 -47.662210430985795 6.6934619528339425 3.2553359462073246 0.61566148304635926 0 -0.78801074757464917 0.39400537378732459 0 0.30783074152317963 1 I I -0.70710678118654746 0.70710678118654746 0.5 forward I I I I #
loop $-1 $-1 $157 $39 #
coedge $-1 $99 $99 $158 $159 reversed $62 $-1 #
face $-1 $160 $161 $24 $-1 $162 reversed single #
loop $-1 $-1 $163 $64 #
plane-surface $-1 0 -22.458184060726708 0 0 1 0 0 0 1 forward_v I I I I #
coedge $-1 $164 $165 $166 $167 forward $65 $-1 #
coedge $-1 $168 $67 $169 $170 forward $41 $-1 #
coedge $-1 $67 $168 $171 $172 forward $41 $-1 #
coedge $-1 $173 $174 $67 $107 reversed $175 $-1 #
edge $-1 $176 -22.458184060726708 $177 22.458184060726708 $106 $178 forward 7 unknown #
face $-1 $179 $180 $25 $-1 $181 reversed single #
loop $-1 $-1 $182 $68 #
plane-surface $-1 -53.846858119449443 0 0 1 0 0 0 0 -1 forward_v I I I I #
coedge $-1 $183 $184 $113 $185 reversed $69 $-1 #
coedge $-1 $186 $71 $187 $188 reversed $44 $-1 #
coedge $-1 $71 $186 $111 $185 forward $44 $-1 #
coedge $-1 $189 $190 $71 $115 forward $191 $-1 #
edge $-1 $192 -14.073242507565617 $193 -2.6966405987565647 $114 $194 forward 7 unknown #
face $-1 $195 $196 $26 $-1 $197 forward single #
loop $-1 $-1 $198 $72 #
plane-surface $-1 0 -11.081582151917656 7.5343887297598009 0 -1 0 0 0 -1 forward_v I I I I #
coedge $-1 $199 $200 $201 $202 reversed $73 $-1 #
coedge $-1 $121 $75 $203 $204 reversed $47 $-1 #
coedge $-1 $75 $120 $199 $205 reversed $47 $-1 #
coedge $-1 $201 $206 $75 $123 forward $196 $-1 #
edge $-1 $207 -8.500844055966688 $208 -5.2163695142972273 $122 $209 forward 7 unknown #
loop $-1 $-1 $129 $76 #
plane-surface $-1 -1.6195047678779986 -7.7271689471511191 96.019815174361838 0.85716730853699208 0 0.51503806187062418 0.51503806187062418 0 -0.85716730853699208 forward_v I I I I #
loop $-1 $-1 $210 $49 #
coedge $-1 $127 $127 $128 $211 reversed $77 $-1 #
coedge $-1 $128 $128 $127 $211 forward $79 $-1 #
coedge $-1 $129 $129 $80 $130 forward $124 $-1 #
edge $-1 $212 0 $212 6.2831853071796004 $129 $213 forward 7 unknown #
loop $-1 $-1 $136 $81 #
plane-surface $-1 -1.6195047678779986 -7.7271689471511191 96.019815174361838 0.85716730853699208 0 0.51503806187062418 0.51503806187062418 0 -0.85716730853699208 forward_v I I I I #
loop $-1 $-1 $214 $52 #
coedge $-1 $134 $134 $135 $215 reversed $82 $-1 #
coedge $-1 $135 $135 $134 $215 forward $84 $-1 #
coedge $-1 $136 $136 $85 $137 forward $131 $-1 #
edge $-1 $216 0 $216 6.2831853071796004 $136 $217 forward 7 unknown #
face $-1 $218 $219 $29 $-1 $220 forward single #
loop $-1 $-1 $221 $86 #
plane-surface $-1 -120.1497311738637 9.5622425277172667 87.78139995469661 0 -1 0 0.61566148304635926 0 -0.78801074757464917 forward_v I I I I #
coedge $-1 $222 $223 $224 $225 reversed $87 $-1 #
coedge $-1 $143 $89 $226 $227 reversed $56 $-1 #
coedge $-1 $89 $142 $222 $228 reversed $56 $-1 #
coedge $-1 $224 $229 $89 $145 forward $219 $-1 #
edge $-1 $230 6.2280074674824064 $231 14.236566190497363 $144 $232 forward 7 unknown #
loop $-1 $-1 $151 $90 #
plane-surface $-1 -53.846858119449422 4.5418765216714476 2.9175941121897608 -0.61566148304635926 0 0.78801074757464917 0.78801074757464917 0 0.61566148304635926 forward_v I I I I #
loop $-1 $-1 $233 $58 #
coedge $-1 $149 $149 $150 $234 reversed $91 $-1 #
coedge $-1 $150 $150 $149 $234 forward $93 $-1 #
coedge $-1 $151 $151 $94 $152 forward $146 $-1 #
edge $-1 $235 0 $235 6.2831853071796004 $151 $236 forward 7 unknown #
loop $-1 $-1 $158 $95 #
plane-surface $-1 -53.846858119449422 4.5418765216714476 2.9175941121897608 -0.61566148304635926 0 0.78801074757464917 0.78801074757464917 0 0.61566148304635926 forward_v I I I I #
loop $-1 $-1 $237 $61 #
coedge $-1 $156 $156 $157 $238 reversed $96 $-1 #
coedge $-1 $157 $157 $156 $238 forward $98 $-1 #
coedge $-1 $158 $158 $99 $159 forward $153 $-1 #
edge $-1 $239 0 $239 6.2831853071796004 $158 $240 forward 7 unknown #
face $-1 $241 $242 $24 $-1 $243 reversed single #
loop $-1 $-1 $244 $100 #
plane-surface $-1 -53.846858119449443 0 0 1 0 0 0 0 -1 forward_v I I I I #
coedge $-1 $245 $171 $246 $247 forward $101 $-1 #
coedge $-1 $248 $103 $245 $249 forward $65 $-1 #
coedge $-1 $103 $248 $250 $251 forward $65 $-1 #
coedge $-1 $174 $173 $103 $167 reversed $175 $-1 #
edge $-1 $252 -22.458184060726708 $253 22.458184060726708 $166 $254 forward 7 unknown #
coedge $-1 $105 $104 $255 $256 forward $41 $-1 #
coedge $-1 $257 $258 $104 $170 reversed $242 $-1 #
edge $-1 $177 -53.846858119449443 $259 53.846858119449443 $169 $260 forward 7 unknown #
coedge $-1 $163 $261 $105 $172 reversed $101 $-1 #
edge $-1 $262 -53.846858119449443 $176 53.846858119449443 $171 $263 forward 7 unknown #
coedge $-1 $166 $106 $261 $264 forward $175 $-1 #
coedge $-1 $106 $166 $257 $265 reversed $175 $-1 #
loop $-1 $-1 $173 $241 #
vertex $-1 $107 $266 #
vertex $-1 $107 $267 #
straight-curve $-1 53.846858119449443 0 9.1745660578777937 0 1 0 I I #
face $-1 $268 $269 $25 $-1 $270 forward single #
loop $-1 $-1 $187 $108 #
plane-surface $-1 0 -22.458184060726708 0 0 1 0 0 0 1 forward_v I I I I #
coedge $-1 $271 $272 $183 $273 forward $109 $-1 #
coedge $-1 $274 $111 $182 $273 reversed $69 $-1 #
coedge $-1 $111 $274 $189 $275 reversed $69 $-1 #
edge $-1 $276 -53.846858119449443 $193 53.846858119449443 $111 $277 forward 7 unknown #
coedge $-1 $113 $112 $271 $278 reversed $44 $-1 #
coedge $-1 $279 $280 $112 $188 forward $180 $-1 #
edge $-1 $281 -53.846858119449443 $192 53.846858119449443 $187 $282 forward 7 unknown #
coedge $-1 $283 $114 $184 $275 forward $191 $-1 #
coedge $-1 $114 $283 $279 $284 forward $191 $-1 #
loop $-1 $-1 $189 $268 #
vertex $-1 $188 $285 #
vertex $-1 $115 $286 #
straight-curve $-1 53.846858119449443 -8.3849415531610916 5.8942114016418063 0 1 0 I I #
face $-1 $-1 $287 $26 $-1 $288 reversed single #
loop $-1 $-1 $201 $116 #
plane-surface $-1 0 0 9.1745660578777937 0 0 1 1 0 0 forward_v I I I I #
coedge $-1 $289 $290 $200 $291 reversed $117 $-1 #
coedge $-1 $292 $119 $121 $205 forward $73 $-1 #
coedge $-1 $119 $292 $198 $291 forward $73 $-1 #
coedge $-1 $293 $122 $119 $202 forward $196 $-1 #
edge $-1 $208 0.50917126880902419 $294 7.2179976783420967 $201 $295 forward 7 unknown #
coedge $-1 $296 $297 $120 $204 forward $287 $-1 #
edge $-1 $298 -72.0348067513263 $207 -66.568522972966846 $203 $299 forward 7 unknown #
edge $-1 $208 101.31656708269826 $298 107.69371623889889 $121 $300 forward 7 unknown #
coedge $-1 $122 $293 $296 $301 forward $196 $-1 #
vertex $-1 $204 $302 #
vertex $-1 $123 $303 #
straight-curve $-1 45.346014063482755 -4.3727557423845838 9.1745660578777972 -1 0 0 I I #
coedge $-1 $210 $210 $-1 $304 reversed $126 $-1 #
edge $-1 $305 0 $305 6.2831853071796004 $127 $306 forward 7 unknown #
vertex $-1 $130 $307 #
ellipse-curve $-1 52.204620848614702 -9.1647746063367777 6.4414241686980755 0.85716730853699208 0 0.51503806187062418 0.25751903093531209 0 -0.42858365426849604 1 I I #
coedge $-1 $214 $214 $-1 $308 reversed $133 $-1 #
edge $-1 $309 0 $309 6.2831853071796004 $134 $310 forward 7 unknown #
vertex $-1 $137 $311 #
ellipse-curve $-1 52.204620848614702 -6.2895632879654606 6.4414241686980755 0.85716730853699208 0 0.51503806187062418 0.25751903093531209 0 -0.42858365426849604 1 I I #
face $-1 $-1 $312 $29 $-1 $313 reversed single #
loop $-1 $-1 $144 $138 #
plane-surface $-1 0 0 9.1745660578777937 0 0 1 1 0 0 forward_v I I I I #
coedge $-1 $314 $315 $316 $317 reversed $139 $-1 #
coedge $-1 $318 $141 $143 $228 forward $87 $-1 #
coedge $-1 $141 $318 $314 $319 forward $87 $-1 #
coedge $-1 $316 $144 $141 $225 forward $219 $-1 #
edge $-1 $231 -2.7494277452100953 $320 7.2913042668815429 $224 $321 forward 7 unknown #
coedge $-1 $322 $323 $142 $227 forward $312 $-1 #
edge $-1 $324 -40.973105865158558 $230 -34.716133919470508 $226 $325 forward 7 unknown #
edge $-1 $231 -10.163006973780234 $324 2.7186986990266253e-014 $143 $326 forward 7 unknown #
coedge $-1 $144 $316 $322 $327 forward $219 $-1 #
vertex $-1 $227 $328 #
vertex $-1 $145 $329 #
straight-curve $-1 -60.07486558693185 -0.47848948437437144 9.1745660578777972 1 0 0 I I #
coedge $-1 $233 $233 $-1 $330 reversed $148 $-1 #
edge $-1 $331 0 $331 6.2831853071796004 $149 $332 forward 7 unknown #
vertex $-1 $152 $333 #
ellipse-curve $-1 -49.842578757941965 2.3902910905089527 6.0460800850337657 -0.61566148304635926 0 0.78801074757464917 0.78801074757464917 0 0.61566148304635926 1 I I #
coedge $-1 $237 $237 $-1 $334 reversed $155 $-1 #
edge $-1 $335 0 $335 6.2831853071796004 $156 $336 forward 7 unknown #
vertex $-1 $159 $337 #
ellipse-curve $-1 -49.842578757941965 6.6934619528339425 6.0460800850337657 -0.61566148304635926 0 0.78801074757464917 0.78801074757464917 0 0.61566148304635926 1 I I #
face $-1 $-1 $175 $24 $-1 $338 reversed single #
loop $-1 $-1 $257 $160 #
plane-surface $-1 0 22.458184060726708 0 0 -1 0 0 0 -1 forward_v I I I I #
coedge $-1 $339 $255 $258 $340 forward $161 $-1 #
coedge $-1 $261 $163 $164 $249 reversed $101 $-1 #
coedge $-1 $255 $339 $163 $247 reversed $161 $-1 #
edge $-1 $262 -9.1745660578777937 $341 9.1745660578777937 $246 $342 forward 7 unknown #
coedge $-1 $165 $164 $339 $343 forward $65 $-1 #
edge $-1 $253 -53.846858119449443 $341 53.846858119449443 $245 $344 forward 7 unknown #
coedge $-1 $258 $257 $165 $251 reversed $242 $-1 #
edge $-1 $345 -53.846858119449443 $252 53.846858119449443 $250 $346 forward 7 unknown #
vertex $-1 $167 $347 #
vertex $-1 $264 $348 #
straight-curve $-1 53.846858119449443 0 -9.1745660578777937 0 -1 0 I I #
coedge $-1 $244 $246 $168 $256 reversed $161 $-1 #
edge $-1 $259 -22.458184060726708 $262 22.458184060726708 $255 $349 forward 7 unknown #
coedge $-1 $250 $169 $174 $265 forward $242 $-1 #
coedge $-1 $169 $250 $244 $340 reversed $242 $-1 #
vertex $-1 $170 $350 #
straight-curve $-1 0 22.458184060726708 9.1745660578777937 -1 0 0 I I #
coedge $-1 $171 $245 $173 $264 reversed $101 $-1 #
vertex $-1 $256 $351 #
straight-curve $-1 0 -22.458184060726708 9.1745660578777937 1 0 0 I I #
edge $-1 $176 -9.1745660578777937 $253 9.1745660578777937 $173 $352 forward 7 unknown #
edge $-1 $177 -9.1745660578777937 $252 9.1745660578777937 $174 $353 forward 7 unknown #
point $-1 53.846858119449443 -22.458184060726708 9.1745660578777937 #
point $-1 53.846858119449443 22.458184060726708 9.1745660578777937 #
face $-1 $-1 $191 $25 $-1 $354 reversed single #
loop $-1 $-1 $355 $179 #
plane-surface $-1 0 0 9.1745660578777937 0 0 1 1 0 0 forward_v I I I I #
coedge $-1 $356 $182 $186 $278 forward $109 $-1 #
coedge $-1 $182 $356 $357 $358 reversed $109 $-1 #
edge $-1 $359 -5.407371692997895 $276 -2.1270170367619059 $182 $360 forward 7 unknown #
coedge $-1 $184 $183 $355 $361 reversed $69 $-1 #
edge $-1 $193 2.1270170367619059 $362 5.407371692997895 $189 $363 forward 7 unknown #
vertex $-1 $278 $364 #
straight-curve $-1 0 -11.081582151917656 5.8942114016418063 1 0 0 I I #
edge $-1 $276 2.6966405987565647 $281 14.073242507565617 $271 $365 forward 7 unknown #
coedge $-1 $366 $187 $190 $284 reversed $180 $-1 #
coedge $-1 $187 $366 $356 $367 forward $180 $-1 #
vertex $-1 $188 $368 #
straight-curve $-1 0 -22.458184060726708 5.8942114016418063 1 0 0 I I #
coedge $-1 $190 $189 $369 $370 reversed $191 $-1 #
edge $-1 $371 -9.1745660578777937 $192 -5.8942114016418063 $190 $372 forward 7 unknown #
point $-1 53.846858119449443 -22.458184060726708 5.8942114016418063 #
point $-1 53.846858119449443 -11.081582151917656 5.8942114016418063 #
loop $-1 $-1 $203 $195 #
plane-surface $-1 53.846858119449443 0 0 -1 0 0 0 0 1 forward_v I I I I #
coedge $-1 $290 $198 $373 $374 reversed $117 $-1 #
coedge $-1 $198 $289 $293 $375 reversed $117 $-1 #
edge $-1 $376 -107.69371623889889 $294 -101.31656708269824 $198 $377 forward 7 unknown #
coedge $-1 $200 $199 $297 $378 reversed $73 $-1 #
coedge $-1 $206 $201 $290 $375 forward $196 $-1 #
vertex $-1 $375 $379 #
straight-curve $-1 50.562383577779968 -3.8635844735755596 9.1745660578777901 0 -1 0 I I #
coedge $-1 $373 $203 $206 $301 reversed $287 $-1 #
coedge $-1 $203 $373 $292 $378 forward $287 $-1 #
vertex $-1 $204 $380 #
straight-curve $-1 53.846858119449443 -4.3727557423845838 75.743089030844644 0 0 1 I I #
straight-curve $-1 -1.6195047678779986 -4.3727557423845838 96.019815174361838 0.51503806187062418 0 -0.85716730853699208 I I #
edge $-1 $381 -11.081582151917656 $207 -4.3727557423845838 $296 $382 forward 7 unknown #
point $-1 53.846858119449443 -4.3727557423845838 9.1745660578777937 #
point $-1 50.562383577779983 -4.3727557423845838 9.1745660578777972 #
edge $-1 $383 1 $383 0 $210 $-1 forward 7 unknown #
vertex $-1 $211 $384 #
ellipse-curve $-1 50.661761548397912 -9.1647746063367777 5.5143808064413049 0.85716730853699208 0 0.51503806187062418 0.25751903093531209 0 -0.42858365426849604 1 I I #
point $-1 52.462139879550008 -9.1647746063367777 6.0128405144295787 #
edge $-1 $385 1 $385 0 $214 $-1 forward 7 unknown #
vertex $-1 $215 $386 #
ellipse-curve $-1 50.661761548397912 -6.2895632879654606 5.5143808064413049 0.85716730853699208 0 0.51503806187062418 0.25751903093531209 0 -0.42858365426849604 1 I I #
point $-1 52.462139879550008 -6.2895632879654606 6.0128405144295787 #
loop $-1 $-1 $226 $218 #
plane-surface $-1 -53.846858119449443 0 0 1 0 0 0 0 -1 forward_v I I I I #
coedge $-1 $315 $221 $223 $319 reversed $139 $-1 #
coedge $-1 $221 $314 $387 $388 reversed $139 $-1 #
coedge $-1 $229 $224 $221 $317 forward $219 $-1 #
edge $-1 $320 -14.236566190497363 $389 -6.2280074674824064 $316 $390 forward 7 unknown #
coedge $-1 $223 $222 $323 $391 reversed $87 $-1 #
edge $-1 $392 -2.7186986990266253e-014 $320 10.163006973780234 $314 $393 forward 7 unknown #
vertex $-1 $225 $394 #
straight-curve $-1 -45.838299396434486 2.2709382608357238 9.1745660578777937 0 1 0 I I #
coedge $-1 $387 $226 $229 $327 reversed $312 $-1 #
coedge $-1 $226 $387 $318 $391 forward $312 $-1 #
vertex $-1 $227 $395 #
straight-curve $-1 -53.846858119449443 -0.47848948437437144 43.890699977348305 0 0 1 I I #
straight-curve $-1 -53.846858119449422 -0.47848948437437144 2.9175941121897608 -0.78801074757464917 0 -0.61566148304635926 I I #
edge $-1 $389 -9.5622425277172667 $230 0.47848948437437144 $322 $396 forward 7 unknown #
point $-1 -53.846858119449443 -0.47848948437437144 9.1745660578777937 #
point $-1 -45.838299396434486 -0.47848948437437144 9.1745660578777937 #
edge $-1 $397 1 $397 0 $233 $-1 forward 7 unknown #
vertex $-1 $234 $398 #
ellipse-curve $-1 -47.970041172508971 2.3902910905089527 3.6493413199946492 -0.61566148304635926 0 0.78801074757464917 0.78801074757464917 0 0.61566148304635926 1 I I #
point $-1 -49.054568010367326 2.3902910905089527 6.6617415680801351 #
edge $-1 $399 1 $399 0 $237 $-1 forward 7 unknown #
vertex $-1 $238 $400 #
ellipse-curve $-1 -47.970041172508971 6.6934619528339425 3.6493413199946492 -0.61566148304635926 0 0.78801074757464917 0.78801074757464917 0 0.61566148304635926 1 I I #
point $-1 -49.054568010367326 6.6934619528339425 6.6617415680801351 #
plane-surface $-1 53.846858119449443 0 0 -1 0 0 0 0 1 forward_v I I I I #
coedge $-1 $246 $244 $248 $343 reversed $161 $-1 #
edge $-1 $259 -9.1745660578777937 $345 9.1745660578777937 $258 $401 forward 7 unknown #
vertex $-1 $343 $402 #
straight-curve $-1 -53.846858119449443 -22.458184060726708 0 0 0 -1 I I #
edge $-1 $341 -22.458184060726708 $345 22.458184060726708 $339 $403 forward 7 unknown #
straight-curve $-1 0 -22.458184060726708 -9.1745660578777937 -1 0 0 I I #
vertex $-1 $251 $404 #
straight-curve $-1 0 22.458184060726708 -9.1745660578777937 1 0 0 I I #
point $-1 53.846858119449443 22.458184060726708 -9.1745660578777937 #
point $-1 53.846858119449443 -22.458184060726708 -9.1745660578777937 #
straight-curve $-1 -53.846858119449443 0 9.1745660578777937 0 -1 0 I I #
point $-1 -53.846858119449443 22.458184060726708 9.1745660578777937 #
point $-1 -53.846858119449443 -22.458184060726708 9.1745660578777937 #
straight-curve $-1 53.846858119449443 -22.458184060726708 0 0 0 -1 I I #
straight-curve $-1 53.846858119449443 22.458184060726708 0 0 0 -1 I I #
plane-surface $-1 53.846858119449443 0 0 -1 0 0 0 0 1 forward_v I I I I #
coedge $-1 $357 $369 $274 $361 forward $269 $-1 #
coedge $-1 $272 $271 $280 $367 reversed $109 $-1 #
coedge $-1 $405 $355 $272 $358 forward $269 $-1 #
edge $-1 $359 11.081582151917656 $406 22.458184060726708 $272 $407 forward 7 unknown #
vertex $-1 $358 $408 #
straight-curve $-1 -53.846858119449443 -11.081582151917656 3.7671943648799004 0 0 -1 I I #
edge $-1 $362 -53.846858119449443 $359 53.846858119449443 $355 $409 forward 7 unknown #
vertex $-1 $275 $410 #
straight-curve $-1 53.846858119449443 -11.081582151917656 3.7671943648799004 0 0 1 I I #
point $-1 -53.846858119449443 -11.081582151917656 5.8942114016418063 #
straight-curve $-1 -53.846858119449443 -8.3849415531610916 5.8942114016418063 0 -1 0 I I #
coedge $-1 $280 $279 $405 $411 reversed $180 $-1 #
edge $-1 $406 -9.1745660578777937 $281 -5.8942114016418063 $356 $412 forward 7 unknown #
point $-1 -53.846858119449443 -22.458184060726708 5.8942114016418063 #
coedge $-1 $355 $405 $283 $370 forward $269 $-1 #
edge $-1 $371 -22.458184060726708 $362 -11.081582151917656 $283 $413 forward 7 unknown #
vertex $-1 $370 $414 #
straight-curve $-1 53.846858119449443 -22.458184060726708 0 0 0 -1 I I #
coedge $-1 $297 $296 $289 $374 forward $287 $-1 #
edge $-1 $381 66.568522972966846 $376 72.0348067513263 $373 $415 forward 7 unknown #
edge $-1 $294 50.562383577779968 $381 53.846858119449443 $293 $416 forward 7 unknown #
vertex $-1 $374 $417 #
straight-curve $-1 -1.6195047678779986 -11.081582151917654 96.019815174361838 -0.51503806187062418 0 0.85716730853699208 I I #
edge $-1 $376 -7.2179976783420949 $298 -0.50917126880902419 $297 $418 forward 7 unknown #
point $-1 50.562383577779968 -11.081582151917656 9.1745660578777937 #
point $-1 53.846858119449436 -4.3727557423845838 3.7082822795183432 #
vertex $-1 $301 $419 #
straight-curve $-1 53.846858119449443 0 9.1745660578777937 0 1 0 I I #
vertex $-1 $304 $420 #
point $-1 50.919280579333225 -9.1647746063367777 5.0857971521728089 #
vertex $-1 $308 $421 #
point $-1 50.919280579333225 -6.2895632879654606 5.0857971521728089 #
coedge $-1 $323 $322 $315 $388 forward $312 $-1 #
edge $-1 $389 34.716133919470508 $392 40.973105865158558 $387 $422 forward 7 unknown #
vertex $-1 $327 $423 #
straight-curve $-1 -60.07486558693185 9.5622425277172667 9.1745660578777972 -1 0 0 I I #
edge $-1 $392 -7.2913042668815429 $324 2.7494277452100953 $323 $424 forward 7 unknown #
vertex $-1 $391 $425 #
straight-curve $-1 -53.846858119449422 9.5622425277172667 2.9175941121897608 0.78801074757464917 0 0.61566148304635926 I I #
point $-1 -45.838299396434486 9.5622425277172667 9.1745660578777937 #
point $-1 -53.846858119449443 -0.47848948437437144 2.917594112189744 #
straight-curve $-1 -53.846858119449443 0 9.1745660578777937 0 -1 0 I I #
vertex $-1 $330 $426 #
point $-1 -47.182030424934325 2.3902910905089527 4.2650028030410088 #
vertex $-1 $334 $427 #
point $-1 -47.182030424934325 6.6934619528339425 4.2650028030410088 #
straight-curve $-1 -53.846858119449443 22.458184060726708 0 0 0 -1 I I #
point $-1 -53.846858119449443 -22.458184060726708 -9.1745660578777937 #
straight-curve $-1 -53.846858119449443 0 -9.1745660578777937 0 1 0 I I #
point $-1 -53.846858119449443 22.458184060726708 -9.1745660578777937 #
coedge $-1 $369 $357 $366 $411 forward $269 $-1 #
vertex $-1 $358 $428 #
straight-curve $-1 -53.846858119449443 0 9.1745660578777937 0 -1 0 I I #
point $-1 -53.846858119449443 -11.081582151917656 9.1745660578777954 #
straight-curve $-1 0 -11.081582151917656 9.1745660578777937 -1 0 0 I I #
point $-1 53.846858119449443 -11.081582151917656 9.1745660578777954 #
edge $-1 $406 -53.846858119449443 $371 53.846858119449443 $366 $429 forward 7 unknown #
straight-curve $-1 -53.846858119449443 -22.458184060726708 0 0 0 -1 I I #
straight-curve $-1 53.846858119449443 0 9.1745660578777937 0 1 0 I I #
point $-1 53.846858119449443 -22.458184060726708 9.1745660578777937 #
straight-curve $-1 53.846858119449443 -11.081582151917654 75.743089030844644 0 0 -1 I I #
straight-curve $-1 0 -11.081582151917656 9.1745660578777937 1 0 0 I I #
point $-1 53.846858119449436 -11.081582151917654 3.7082822795183432 #
straight-curve $-1 53.846858119449443 -3.8635844735755596 3.7082822795183361 0 1 0 I I #
point $-1 53.846858119449443 -11.081582151917656 9.1745660578777954 #
point $-1 50.233177894129419 -9.1647746063367777 5.2568617755059934 #
point $-1 50.233177894129419 -6.2895632879654606 5.2568617755059934 #
straight-curve $-1 -53.846858119449443 9.5622425277172667 43.890699977348305 0 0 -1 I I #
point $-1 -53.846858119449443 9.5622425277172667 9.1745660578777937 #
straight-curve $-1 -53.846858119449443 2.2709382608357238 2.9175941121897462 0 -1 0 I I #
point $-1 -53.846858119449443 9.5622425277172667 2.917594112189744 #
point $-1 -47.354379689462618 2.3902910905089527 2.86133057242 #
point $-1 -47.354379689462618 6.6934619528339425 2.86133057242 #
point $-1 -53.846858119449443 -22.458184060726708 9.1745660578777937 #
straight-curve $-1 0 -22.458184060726708 9.1745660578777937 1 0 0 I I #
End-of-ACIS-data 