500 0 7 0           
7 Unknown 11 ACIS 5.0 NT 24 Thu Mar 25 22:20:45 1999 
-1 9.9999999999999995e-007 1e-010 
body $-1 $7 $-1 $8 #
body $-1 $9 $-1 $10 #
body $-1 $11 $-1 $12 #
body $-1 $13 $-1 $14 #
body $-1 $15 $-1 $16 #
body $-1 $17 $-1 $18 #
body $-1 $19 $-1 $20 #
lump $-1 $-1 $21 $0 #
transform $-1 1 0 0 0 1 0 0 0 1 42.572099978637041 24.653152693399935 9.7089798766048201 1 rotate no_reflect no_shear #
lump $-1 $-1 $22 $1 #
transform $-1 1 0 0 0 1 0 0 0 1 42.572099978637041 24.653152693399935 9.7089798766048201 1 rotate no_reflect no_shear #
lump $-1 $-1 $23 $2 #
transform $-1 1 0 0 0 1 0 0 0 1 42.572099978637041 24.653152693399935 9.7089798766048201 1 rotate no_reflect no_shear #
lump $-1 $-1 $24 $3 #
transform $-1 1 0 0 0 1 0 0 0 1 42.572099978637041 24.653152693399935 9.7089798766048201 1 rotate no_reflect no_shear #
lump $-1 $-1 $25 $4 #
transform $-1 1 0 0 0 1 0 0 0 1 42.572099978637041 24.653152693399935 9.7089798766048201 1 rotate no_reflect no_shear #
lump $-1 $-1 $26 $5 #
transform $-1 1 0 0 0 1 0 0 0 1 42.572099978637041 24.653152693399935 9.7089798766048201 1 rotate no_reflect no_shear #
lump $-1 $-1 $27 $6 #
transform $-1 1 0 0 0 1 0 0 0 1 42.572099978637041 24.653152693399935 9.7089798766048201 1 rotate no_reflect no_shear #
shell $-1 $-1 $-1 $28 $-1 $7 #
shell $-1 $-1 $-1 $29 $-1 $9 #
shell $-1 $-1 $-1 $30 $-1 $11 #
shell $-1 $-1 $-1 $31 $-1 $13 #
shell $-1 $-1 $-1 $32 $-1 $15 #
shell $-1 $-1 $-1 $33 $-1 $17 #
shell $-1 $-1 $-1 $34 $-1 $19 #
face $-1 $35 $36 $21 $-1 $37 forward single #
face $-1 $38 $39 $22 $-1 $40 forward single #
face $-1 $41 $42 $23 $-1 $43 forward single #
face $-1 $44 $45 $24 $-1 $46 reversed single #
face $-1 $47 $48 $25 $-1 $49 forward single #
face $-1 $50 $51 $26 $-1 $52 reversed single #
face $-1 $53 $54 $27 $-1 $55 forward single #
face $-1 $56 $57 $21 $-1 $58 reversed single #
loop $-1 $-1 $59 $28 #
plane-surface $-1 0 0 9.7089798766048201 0 0 1 1 0 0 forward_v I I I I #
face $-1 $60 $61 $22 $-1 $62 reversed single #
loop $-1 $-1 $63 $29 #
plane-surface $-1 0 -18.353957541829459 -4.0665045967188327 0 0 1 1 0 0 forward_v I I I I #
face $-1 $64 $65 $23 $-1 $66 reversed single #
loop $-1 $-1 $67 $30 #
plane-surface $-1 0 24.653152693399935 0 0 -1 0 0 0 -1 forward_v I I I I #
face $-1 $68 $69 $24 $-1 $70 reversed single #
loop $-1 $-1 $71 $31 #
plane-surface $-1 -107.79634192527735 8.1340071293824643 60.629656196438056 0 1 0 -0.7660444514056185 0 0.64278759981090561 forward_v I I I I #
face $-1 $72 $73 $25 $-1 $74 forward single #
loop $-1 $75 $76 $32 #
cone-surface $-1 -39.469491041109322 11.366700541886399 6.542023795380925 0.7660444514056185 0 -0.64278759981090561 0.64278759981090561 0 0.7660444514056185 1 I I 0 1 1 forward I I I I #
face $-1 $77 $78 $26 $-1 $79 reversed single #
loop $-1 $-1 $80 $33 #
plane-surface $-1 57.246642993470346 2.0589564300965328 123.81937682429952 0 -1 0 -0.78801076186113728 0 -0.61566146476048833 forward_v I I I I #
face $-1 $81 $82 $27 $-1 $83 forward single #
loop $-1 $84 $85 $34 #
cone-surface $-1 39.923393508084828 -1.3451423799934261 6.5868743161242325 -0.78801076186113728 0 -0.61566146476048833 0.61566146476048833 0 -0.78801076186113728 1 I I 0 1 1 forward I I I I #
face $-1 $86 $87 $21 $-1 $88 reversed single #
loop $-1 $-1 $89 $35 #
plane-surface $-1 0 0 -9.7089798766048201 0 0 1 1 0 0 forward_v I I I I #
coedge $-1 $90 $91 $92 $93 forward $36 $-1 #
face $-1 $94 $95 $22 $-1 $96 reversed single #
loop $-1 $-1 $97 $38 #
plane-surface $-1 0 -18.353957541829459 -7.4336393823800719 0 0 1 1 0 0 forward_v I I I I #
coedge $-1 $98 $99 $100 $101 reversed $39 $-1 #
face $-1 $102 $103 $23 $-1 $104 forward single #
loop $-1 $-1 $105 $41 #
plane-surface $-1 -42.572099978637041 0 0 1 0 0 0 0 -1 forward_v I I I I #
coedge $-1 $106 $107 $108 $109 forward $42 $-1 #
face $-1 $110 $111 $24 $-1 $112 reversed single #
loop $-1 $-1 $113 $44 #
plane-surface $-1 -42.572099978637041 11.366700541886399 5.9000202680820379 -0.7660444514056185 0 0.64278759981090561 0.64278759981090561 0 0.7660444514056185 forward_v I I I I #
coedge $-1 $114 $115 $116 $117 reversed $45 $-1 #
face $-1 $-1 $118 $25 $-1 $119 forward single #
loop $-1 $120 $121 $47 #
cone-surface $-1 -37.581908137380275 11.366700541886399 4.9581537185129623 0.7660444514056185 0 -0.64278759981090561 0.3213937999054528 0 0.38302222570280925 1 I I -0.70710678118654746 0.70710678118654746 0.5 forward I I I I #
loop $-1 $-1 $122 $32 #
coedge $-1 $76 $76 $123 $124 reversed $48 $-1 #
face $-1 $125 $126 $26 $-1 $127 reversed single #
loop $-1 $-1 $128 $50 #
plane-surface $-1 -9.8479028829182198 -1.3451423799934261 71.399373962744249 0.78801076186113728 0 0.61566146476048833 0.61566146476048833 0 -0.78801076186113728 forward_v I I I I #
coedge $-1 $129 $130 $131 $132 reversed $51 $-1 #
face $-1 $-1 $133 $27 $-1 $134 forward single #
loop $-1 $135 $136 $53 #
cone-surface $-1 38.991774656851646 -1.3451423799934261 5.8590139183879675 -0.78801076186113728 0 -0.61566146476048833 0.30783073238024417 0 -0.39400538093056864 1 I I -0.70710678118654746 0.70710678118654746 0.5 forward I I I I #
loop $-1 $-1 $137 $34 #
coedge $-1 $85 $85 $138 $139 reversed $54 $-1 #
face $-1 $140 $141 $21 $-1 $142 reversed single #
loop $-1 $-1 $143 $56 #
plane-surface $-1 0 -24.653152693399935 0 0 1 0 0 0 1 forward_v I I I I #
coedge $-1 $144 $145 $146 $147 forward $57 $-1 #
coedge $-1 $148 $59 $149 $150 forward $36 $-1 #
coedge $-1 $59 $148 $151 $152 forward $36 $-1 #
coedge $-1 $153 $154 $59 $93 reversed $155 $-1 #
edge $-1 $156 -24.653152693399935 $157 24.653152693399935 $92 $158 forward 7 unknown #
face $-1 $159 $160 $22 $-1 $161 reversed single #
loop $-1 $-1 $162 $60 #
plane-surface $-1 0 -12.054762390258983 -5.7500719895494523 0 -1 0 0 0 -1 forward_v I I I I #
coedge $-1 $163 $164 $165 $166 reversed $61 $-1 #
coedge $-1 $167 $63 $168 $169 forward $39 $-1 #
coedge $-1 $63 $167 $170 $171 reversed $39 $-1 #
coedge $-1 $172 $173 $63 $101 forward $174 $-1 #
edge $-1 $175 2.8777836193442532 $176 15.476173922485206 $100 $177 forward 7 unknown #
face $-1 $178 $179 $23 $-1 $180 reversed single #
loop $-1 $-1 $181 $64 #
plane-surface $-1 0 0 9.7089798766048201 0 0 1 1 0 0 forward_v I I I I #
coedge $-1 $182 $183 $107 $184 forward $65 $-1 #
coedge $-1 $185 $67 $186 $187 reversed $42 $-1 #
coedge $-1 $67 $185 $105 $184 reversed $42 $-1 #
coedge $-1 $188 $189 $67 $109 reversed $179 $-1 #
edge $-1 $190 -42.572099978637041 $191 42.572099978637041 $108 $192 forward 7 unknown #
face $-1 $193 $194 $24 $-1 $195 reversed single #
loop $-1 $-1 $196 $68 #
plane-surface $-1 -107.79634192527735 14.599393954390333 60.629656196438056 0 -1 0 0.7660444514056185 0 -0.64278759981090561 forward_v I I I I #
coedge $-1 $197 $198 $199 $200 reversed $69 $-1 #
coedge $-1 $115 $71 $201 $202 reversed $45 $-1 #
coedge $-1 $71 $114 $197 $203 reversed $45 $-1 #
coedge $-1 $199 $204 $71 $117 forward $205 $-1 #
edge $-1 $206 11.326070984001632 $207 14.52216750300461 $116 $208 forward 7 unknown #
loop $-1 $-1 $123 $72 #
plane-surface $-1 -42.572099978637041 11.366700541886399 5.9000202680820379 -0.7660444514056185 0 0.64278759981090561 0.64278759981090561 0 0.7660444514056185 forward_v I I I I #
loop $-1 $-1 $209 $47 #
coedge $-1 $121 $121 $122 $210 reversed $73 $-1 #
coedge $-1 $122 $122 $121 $210 forward $75 $-1 #
coedge $-1 $123 $123 $76 $124 forward $118 $-1 #
edge $-1 $211 0 $211 6.2831853071796004 $123 $212 forward 7 unknown #
face $-1 $213 $214 $26 $-1 $215 forward single #
loop $-1 $-1 $216 $77 #
plane-surface $-1 57.246642993470346 -4.7492411900833851 123.81937682429952 0 1 0 0.78801076186113728 0 0.61566146476048833 forward_v I I I I #
coedge $-1 $217 $218 $219 $220 reversed $78 $-1 #
coedge $-1 $130 $80 $221 $222 reversed $51 $-1 #
coedge $-1 $80 $129 $217 $223 reversed $51 $-1 #
coedge $-1 $219 $224 $80 $132 forward $214 $-1 #
edge $-1 $225 -13.948778481901869 $226 -9.7265924814026832 $131 $227 forward 7 unknown #
loop $-1 $-1 $138 $81 #
plane-surface $-1 -9.8479028829182198 -1.3451423799934261 71.399373962744249 0.78801076186113728 0 0.61566146476048833 0.61566146476048833 0 -0.78801076186113728 forward_v I I I I #
loop $-1 $-1 $228 $53 #
coedge $-1 $136 $136 $137 $229 reversed $82 $-1 #
coedge $-1 $137 $137 $136 $229 forward $84 $-1 #
coedge $-1 $138 $138 $85 $139 forward $133 $-1 #
edge $-1 $230 0 $230 6.2831853071796004 $138 $231 forward 7 unknown #
face $-1 $232 $233 $21 $-1 $234 reversed single #
loop $-1 $-1 $235 $86 #
plane-surface $-1 -42.572099978637041 0 0 1 0 0 0 0 -1 forward_v I I I I #
coedge $-1 $236 $151 $237 $238 forward $87 $-1 #
coedge $-1 $239 $89 $236 $240 forward $57 $-1 #
coedge $-1 $89 $239 $241 $242 forward $57 $-1 #
coedge $-1 $154 $153 $89 $147 reversed $155 $-1 #
edge $-1 $243 -24.653152693399935 $244 24.653152693399935 $146 $245 forward 7 unknown #
coedge $-1 $91 $90 $246 $247 forward $36 $-1 #
coedge $-1 $248 $249 $90 $150 reversed $233 $-1 #
edge $-1 $157 -42.572099978637041 $250 42.572099978637041 $149 $251 forward 7 unknown #
coedge $-1 $143 $252 $91 $152 reversed $87 $-1 #
edge $-1 $253 -42.572099978637041 $156 42.572099978637041 $151 $254 forward 7 unknown #
coedge $-1 $146 $92 $252 $255 forward $155 $-1 #
coedge $-1 $92 $146 $248 $256 reversed $155 $-1 #
loop $-1 $-1 $153 $232 #
vertex $-1 $93 $257 #
vertex $-1 $93 $258 #
straight-curve $-1 42.572099978637041 0 9.7089798766048201 0 1 0 I I #
face $-1 $259 $260 $22 $-1 $261 reversed single #
loop $-1 $-1 $262 $94 #
plane-surface $-1 -42.572099978637041 0 0 1 0 0 0 0 -1 forward_v I I I I #
coedge $-1 $263 $168 $173 $264 reversed $95 $-1 #
coedge $-1 $265 $97 $266 $267 reversed $61 $-1 #
coedge $-1 $97 $265 $263 $268 forward $61 $-1 #
coedge $-1 $173 $172 $97 $166 forward $174 $-1 #
edge $-1 $269 -15.476173922485206 $270 -2.8777836193442532 $165 $271 forward 7 unknown #
coedge $-1 $99 $98 $262 $272 reversed $39 $-1 #
coedge $-1 $162 $273 $98 $169 reversed $95 $-1 #
edge $-1 $175 -42.572099978637041 $274 42.572099978637041 $168 $275 forward 7 unknown #
coedge $-1 $276 $277 $99 $171 forward $260 $-1 #
edge $-1 $176 -42.572099978637041 $278 42.572099978637041 $170 $279 forward 7 unknown #
coedge $-1 $165 $100 $277 $280 forward $174 $-1 #
coedge $-1 $100 $165 $162 $264 forward $174 $-1 #
loop $-1 $-1 $100 $259 #
vertex $-1 $101 $281 #
vertex $-1 $280 $282 #
straight-curve $-1 42.572099978637041 -9.1769787709147295 -4.0665045967188327 0 -1 0 I I #
face $-1 $283 $284 $23 $-1 $285 reversed single #
loop $-1 $-1 $189 $102 #
plane-surface $-1 0 29.68003206290474 4.1642507152258101 0 0 1 1 0 0 forward_v I I I I #
coedge $-1 $286 $287 $185 $288 forward $103 $-1 #
coedge $-1 $289 $105 $287 $290 reversed $65 $-1 #
coedge $-1 $105 $289 $188 $291 reversed $65 $-1 #
edge $-1 $190 4.1642507152258101 $292 9.7089798766048201 $105 $293 forward 7 unknown #
coedge $-1 $107 $106 $181 $288 reversed $42 $-1 #
coedge $-1 $294 $295 $106 $187 forward $296 $-1 #
edge $-1 $297 -9.7089798766048201 $191 -4.1642507152258101 $186 $298 forward 7 unknown #
coedge $-1 $299 $108 $183 $291 forward $179 $-1 #
coedge $-1 $108 $299 $294 $300 forward $179 $-1 #
vertex $-1 $184 $301 #
vertex $-1 $187 $302 #
straight-curve $-1 0 24.653152693399935 4.1642507152258101 1 0 0 I I #
face $-1 $-1 $205 $24 $-1 $303 forward single #
loop $-1 $-1 $304 $110 #
plane-surface $-1 -42.572099978637041 0 0 1 0 0 0 0 -1 forward_v I I I I #
coedge $-1 $305 $306 $307 $308 reversed $111 $-1 #
coedge $-1 $309 $113 $115 $203 forward $69 $-1 #
coedge $-1 $113 $309 $305 $310 forward $69 $-1 #
coedge $-1 $307 $116 $113 $200 forward $205 $-1 #
edge $-1 $207 2.450656858439265 $311 8.9160436834471337 $199 $312 forward 7 unknown #
coedge $-1 $313 $314 $114 $202 forward $194 $-1 #
edge $-1 $315 -24.41480783013699 $206 -20.60584822161421 $201 $316 forward 7 unknown #
edge $-1 $207 -4.9722435839509105 $315 0 $115 $317 forward 7 unknown #
coedge $-1 $116 $307 $313 $318 forward $205 $-1 #
loop $-1 $-1 $307 $193 #
vertex $-1 $202 $319 #
vertex $-1 $117 $320 #
straight-curve $-1 -53.898170962638673 8.1340071293824643 9.7089798766048219 1 0 0 I I #
coedge $-1 $209 $209 $-1 $321 reversed $120 $-1 #
edge $-1 $322 0 $322 6.2831853071796004 $121 $323 forward 7 unknown #
vertex $-1 $124 $324 #
ellipse-curve $-1 -40.974051719135552 11.366700541886399 7.8045000723434281 -0.7660444514056185 0 0.64278759981090561 0.64278759981090561 0 0.7660444514056185 1 I I #
face $-1 $-1 $325 $26 $-1 $326 reversed single #
loop $-1 $-1 $131 $125 #
plane-surface $-1 0 0 9.7089798766048201 0 0 1 1 0 0 forward_v I I I I #
coedge $-1 $327 $328 $329 $330 reversed $126 $-1 #
coedge $-1 $331 $128 $130 $223 forward $78 $-1 #
coedge $-1 $128 $331 $327 $332 forward $78 $-1 #
coedge $-1 $329 $131 $128 $220 forward $214 $-1 #
edge $-1 $226 -2.7315276200932459 $333 4.076670000086672 $219 $334 forward 7 unknown #
coedge $-1 $335 $336 $129 $222 forward $325 $-1 #
edge $-1 $337 -57.604860325794064 $225 -52.200708535544941 $221 $338 forward 7 unknown #
edge $-1 $226 78.286232970268074 $337 85.144199957274083 $130 $339 forward 7 unknown #
coedge $-1 $131 $329 $335 $340 forward $214 $-1 #
vertex $-1 $132 $341 #
vertex $-1 $132 $342 #
straight-curve $-1 28.623321496735173 2.0589564300965328 9.7089798766048219 -1 0 0 I I #
coedge $-1 $228 $228 $-1 $343 reversed $135 $-1 #
edge $-1 $344 0 $344 6.2831853071796004 $136 $345 forward 7 unknown #
vertex $-1 $139 $346 #
ellipse-curve $-1 40.461006978387445 -1.3451423799934261 7.0069039814802583 0.78801076186113728 0 0.61566146476048833 0.61566146476048833 0 -0.78801076186113728 1 I I #
face $-1 $-1 $155 $21 $-1 $347 reversed single #
loop $-1 $-1 $248 $140 #
plane-surface $-1 0 24.653152693399935 0 0 -1 0 0 0 -1 forward_v I I I I #
coedge $-1 $348 $246 $249 $349 forward $141 $-1 #
coedge $-1 $252 $143 $144 $240 reversed $87 $-1 #
coedge $-1 $246 $348 $143 $238 reversed $141 $-1 #
edge $-1 $253 -9.7089798766048201 $350 9.7089798766048201 $237 $351 forward 7 unknown #
coedge $-1 $145 $144 $348 $352 forward $57 $-1 #
edge $-1 $244 -42.572099978637041 $350 42.572099978637041 $236 $353 forward 7 unknown #
coedge $-1 $249 $248 $145 $242 reversed $233 $-1 #
edge $-1 $354 -42.572099978637041 $243 42.572099978637041 $241 $355 forward 7 unknown #
vertex $-1 $147 $356 #
vertex $-1 $255 $357 #
straight-curve $-1 42.572099978637041 0 -9.7089798766048201 0 -1 0 I I #
coedge $-1 $235 $237 $148 $247 reversed $141 $-1 #
edge $-1 $250 -24.653152693399935 $253 24.653152693399935 $246 $358 forward 7 unknown #
coedge $-1 $241 $149 $154 $256 forward $233 $-1 #
coedge $-1 $149 $241 $235 $349 reversed $233 $-1 #
vertex $-1 $150 $359 #
straight-curve $-1 0 24.653152693399935 9.7089798766048201 -1 0 0 I I #
coedge $-1 $151 $236 $153 $255 reversed $87 $-1 #
vertex $-1 $247 $360 #
straight-curve $-1 0 -24.653152693399935 9.7089798766048201 1 0 0 I I #
edge $-1 $156 -9.7089798766048201 $244 9.7089798766048201 $153 $361 forward 7 unknown #
edge $-1 $157 -9.7089798766048201 $243 9.7089798766048201 $154 $362 forward 7 unknown #
point $-1 42.572099978637041 -24.653152693399935 9.7089798766048201 #
point $-1 42.572099978637041 24.653152693399935 9.7089798766048201 #
face $-1 $-1 $174 $22 $-1 $363 reversed single #
loop $-1 $-1 $170 $159 #
plane-surface $-1 0 -24.653152693399935 0 0 1 0 0 0 1 forward_v I I I I #
coedge $-1 $364 $365 $167 $272 forward $160 $-1 #
coedge $-1 $273 $162 $164 $268 reversed $95 $-1 #
edge $-1 $270 -4.5586033876053458 $175 -1.1914686019441065 $173 $366 forward 7 unknown #
coedge $-1 $164 $163 $367 $368 reversed $61 $-1 #
coedge $-1 $277 $276 $163 $267 forward $260 $-1 #
edge $-1 $369 -42.572099978637041 $269 42.572099978637041 $266 $370 forward 7 unknown #
edge $-1 $371 -42.572099978637041 $270 42.572099978637041 $263 $372 forward 7 unknown #
vertex $-1 $267 $373 #
vertex $-1 $166 $374 #
straight-curve $-1 42.572099978637041 -9.1769787709147295 -7.4336393823800719 0 1 0 I I #
edge $-1 $278 -15.476173922485206 $274 -2.8777836193442532 $262 $375 forward 7 unknown #
coedge $-1 $168 $263 $364 $376 reversed $95 $-1 #
vertex $-1 $272 $377 #
straight-curve $-1 0 -12.054762390258983 -4.0665045967188327 -1 0 0 I I #
coedge $-1 $266 $170 $365 $378 forward $260 $-1 #
coedge $-1 $170 $266 $172 $280 reversed $260 $-1 #
vertex $-1 $378 $379 #
straight-curve $-1 0 -24.653152693399935 -4.0665045967188327 -1 0 0 I I #
edge $-1 $176 4.0665045967188327 $269 7.4336393823800719 $172 $380 forward 7 unknown #
point $-1 42.572099978637041 -12.054762390258983 -4.0665045967188327 #
point $-1 42.572099978637041 -24.653152693399935 -4.0665045967188327 #
face $-1 $-1 $296 $23 $-1 $381 reversed single #
loop $-1 $-1 $382 $178 #
plane-surface $-1 0 34.706911432409541 6.9366152959153151 0 -1 0 0 0 -1 forward_v I I I I #
coedge $-1 $383 $181 $295 $384 forward $103 $-1 #
coedge $-1 $181 $383 $182 $290 forward $103 $-1 #
edge $-1 $292 -42.572099978637041 $297 42.572099978637041 $181 $385 forward 7 unknown #
coedge $-1 $183 $182 $386 $387 forward $65 $-1 #
edge $-1 $388 -34.706911432409541 $292 -24.653152693399935 $182 $389 forward 7 unknown #
edge $-1 $190 -5.0268793695048011 $390 5.0268793695048011 $183 $391 forward 7 unknown #
vertex $-1 $288 $392 #
straight-curve $-1 -42.572099978637041 24.653152693399935 0 0 0 1 I I #
coedge $-1 $393 $186 $189 $300 reversed $296 $-1 #
coedge $-1 $186 $393 $286 $384 reversed $296 $-1 #
loop $-1 $-1 $186 $283 #
vertex $-1 $384 $394 #
straight-curve $-1 42.572099978637041 24.653152693399935 0 0 0 -1 I I #
coedge $-1 $189 $188 $395 $396 forward $179 $-1 #
edge $-1 $397 -5.0268793695048011 $191 5.0268793695048011 $294 $398 forward 7 unknown #
point $-1 -42.572099978637041 24.653152693399939 4.1642507152258101 #
point $-1 42.572099978637041 24.653152693399939 4.1642507152258101 #
plane-surface $-1 0 0 9.7089798766048201 0 0 1 1 0 0 forward_v I I I I #
coedge $-1 $314 $313 $306 $399 forward $194 $-1 #
coedge $-1 $306 $196 $198 $310 reversed $111 $-1 #
coedge $-1 $196 $305 $304 $399 reversed $111 $-1 #
coedge $-1 $204 $199 $196 $308 forward $205 $-1 #
edge $-1 $311 -14.52216750300461 $400 -11.326070984001632 $307 $401 forward 7 unknown #
coedge $-1 $198 $197 $314 $402 reversed $69 $-1 #
edge $-1 $403 0 $311 4.9722435839509105 $305 $404 forward 7 unknown #
vertex $-1 $200 $405 #
straight-curve $-1 -39.376003459634056 5.6833502709431993 9.7089798766048201 0 1 0 I I #
coedge $-1 $304 $201 $204 $318 reversed $194 $-1 #
coedge $-1 $201 $304 $309 $402 forward $194 $-1 #
vertex $-1 $202 $406 #
straight-curve $-1 -42.572099978637041 8.1340071293824643 30.314828098219028 0 0 1 I I #
straight-curve $-1 -42.572099978637041 8.1340071293824643 5.9000202680820379 -0.64278759981090561 0 -0.7660444514056185 I I #
edge $-1 $400 -14.599393954390333 $206 -8.1340071293824643 $313 $407 forward 7 unknown #
point $-1 -42.572099978637041 8.1340071293824643 9.7089798766048201 #
point $-1 -39.376003459634063 8.1340071293824643 9.7089798766048201 #
edge $-1 $408 1 $408 0 $209 $-1 forward 7 unknown #
vertex $-1 $210 $409 #
ellipse-curve $-1 -37.964930363083084 11.366700541886399 5.2795475184184149 -0.7660444514056185 0 0.64278759981090561 0.64278759981090561 0 0.7660444514056185 1 I I #
point $-1 -40.331264119324651 11.366700541886399 8.570544523749053 #
loop $-1 $-1 $221 $213 #
plane-surface $-1 42.572099978637041 0 0 -1 0 0 0 0 1 forward_v I I I I #
coedge $-1 $328 $216 $218 $332 reversed $126 $-1 #
coedge $-1 $216 $327 $410 $411 reversed $126 $-1 #
coedge $-1 $224 $219 $216 $330 forward $214 $-1 #
edge $-1 $333 9.7265924814026832 $412 13.948778481901869 $329 $413 forward 7 unknown #
coedge $-1 $218 $217 $336 $414 reversed $78 $-1 #
edge $-1 $415 -85.144199957274083 $333 -78.286232970268074 $327 $416 forward 7 unknown #
vertex $-1 $220 $417 #
straight-curve $-1 38.349913978137856 -0.67257118999671306 9.7089798766048219 0 -1 0 I I #
coedge $-1 $410 $221 $224 $340 reversed $325 $-1 #
coedge $-1 $221 $410 $331 $414 forward $325 $-1 #
vertex $-1 $222 $418 #
straight-curve $-1 42.572099978637041 2.0589564300965328 61.909688412149762 0 0 1 I I #
straight-curve $-1 -9.8479028829182198 2.0589564300965328 71.399373962744249 0.61566146476048833 0 -0.78801076186113728 I I #
edge $-1 $412 -4.7492411900833851 $225 2.0589564300965328 $335 $419 forward 7 unknown #
point $-1 42.572099978637041 2.0589564300965328 9.7089798766048201 #
point $-1 38.349913978137856 2.0589564300965328 9.7089798766048219 #
edge $-1 $420 1 $420 0 $228 $-1 forward 7 unknown #
vertex $-1 $229 $421 #
ellipse-curve $-1 39.385780037782212 -1.3451423799934261 6.166844650768212 0.78801076186113728 0 0.61566146476048833 0.61566146476048833 0 -0.78801076186113728 1 I I #
point $-1 41.076668443147931 -1.3451423799934261 6.2188932196191153 #
plane-surface $-1 42.572099978637041 0 0 -1 0 0 0 0 1 forward_v I I I I #
coedge $-1 $237 $235 $239 $352 reversed $141 $-1 #
edge $-1 $250 -9.7089798766048201 $354 9.7089798766048201 $249 $422 forward 7 unknown #
vertex $-1 $352 $423 #
straight-curve $-1 -42.572099978637041 -24.653152693399935 0 0 0 -1 I I #
edge $-1 $350 -24.653152693399935 $354 24.653152693399935 $348 $424 forward 7 unknown #
straight-curve $-1 0 -24.653152693399935 -9.7089798766048201 -1 0 0 I I #
vertex $-1 $242 $425 #
straight-curve $-1 0 24.653152693399935 -9.7089798766048201 1 0 0 I I #
point $-1 42.572099978637041 24.653152693399935 -9.7089798766048201 #
point $-1 42.572099978637041 -24.653152693399935 -9.7089798766048201 #
straight-curve $-1 -42.572099978637041 0 9.7089798766048201 0 -1 0 I I #
point $-1 -42.572099978637041 24.653152693399935 9.7089798766048201 #
point $-1 -42.572099978637041 -24.653152693399935 9.7089798766048201 #
straight-curve $-1 42.572099978637041 -24.653152693399935 0 0 0 -1 I I #
straight-curve $-1 42.572099978637041 24.653152693399935 0 0 0 -1 I I #
plane-surface $-1 42.572099978637041 0 0 -1 0 0 0 0 1 forward_v I I I I #
coedge $-1 $367 $262 $273 $376 forward $160 $-1 #
coedge $-1 $262 $367 $276 $378 reversed $160 $-1 #
straight-curve $-1 42.572099978637041 -12.054762390258983 -2.8750359947747262 0 0 1 I I #
coedge $-1 $365 $364 $265 $368 forward $160 $-1 #
edge $-1 $371 2.8777836193442532 $369 15.476173922485206 $367 $426 forward 7 unknown #
vertex $-1 $267 $427 #
straight-curve $-1 0 -24.653152693399935 -7.4336393823800719 1 0 0 I I #
vertex $-1 $368 $428 #
straight-curve $-1 0 -12.054762390258983 -7.4336393823800719 1 0 0 I I #
point $-1 42.572099978637041 -24.653152693399935 -7.4336393823800719 #
point $-1 42.572099978637041 -12.054762390258983 -7.4336393823800719 #
straight-curve $-1 -42.572099978637041 -9.1769787709147295 -4.0665045967188327 0 1 0 I I #
edge $-1 $274 1.1914686019441065 $371 4.5586033876053458 $364 $429 forward 7 unknown #
point $-1 -42.572099978637041 -12.054762390258983 -4.0665045967188327 #
edge $-1 $278 4.0665045967188327 $369 7.4336393823800719 $365 $430 forward 7 unknown #
point $-1 -42.572099978637041 -24.653152693399935 -4.0665045967188327 #
straight-curve $-1 42.572099978637041 -24.653152693399935 0 0 0 -1 I I #
plane-surface $-1 42.572099978637041 0 0 -1 0 0 0 0 1 forward_v I I I I #
coedge $-1 $395 $431 $393 $432 forward $284 $-1 #
coedge $-1 $287 $286 $431 $433 forward $103 $-1 #
edge $-1 $297 24.653152693399935 $434 34.706911432409541 $295 $435 forward 7 unknown #
straight-curve $-1 0 24.653152693399935 9.7089798766048201 1 0 0 I I #
coedge $-1 $431 $395 $289 $387 reversed $284 $-1 #
edge $-1 $388 -2.772364580689505 $390 2.772364580689505 $386 $436 forward 7 unknown #
vertex $-1 $433 $437 #
straight-curve $-1 -42.572099978637041 0 9.7089798766048201 0 -1 0 I I #
vertex $-1 $396 $438 #
straight-curve $-1 -42.572099978637041 29.68003206290474 4.1642507152258101 0 1 0 I I #
point $-1 -42.572099978637041 24.653152693399935 9.7089798766048201 #
coedge $-1 $295 $294 $382 $432 reversed $296 $-1 #
point $-1 42.572099978637041 24.653152693399935 9.7089798766048201 #
coedge $-1 $386 $382 $299 $396 reversed $284 $-1 #
edge $-1 $390 -42.572099978637041 $397 42.572099978637041 $395 $439 forward 7 unknown #
vertex $-1 $300 $440 #
straight-curve $-1 42.572099978637041 29.68003206290474 4.1642507152258101 0 -1 0 I I #
edge $-1 $400 20.60584822161421 $403 24.41480783013699 $304 $441 forward 7 unknown #
vertex $-1 $318 $442 #
straight-curve $-1 -53.898170962638673 14.599393954390333 9.7089798766048219 -1 0 0 I I #
edge $-1 $403 -8.9160436834471337 $315 -2.450656858439265 $314 $443 forward 7 unknown #
vertex $-1 $402 $444 #
straight-curve $-1 -42.572099978637041 14.599393954390333 5.9000202680820379 0.64278759981090561 0 0.7660444514056185 I I #
point $-1 -39.376003459634063 14.599393954390333 9.7089798766048201 #
point $-1 -42.572099978637041 8.1340071293824643 5.9000202680820379 #
straight-curve $-1 -42.572099978637041 0 9.7089798766048201 0 -1 0 I I #
vertex $-1 $321 $445 #
point $-1 -37.322142763272176 11.366700541886399 6.0455919698240335 #
coedge $-1 $336 $335 $328 $411 forward $325 $-1 #
edge $-1 $412 52.200708535544941 $415 57.604860325794064 $410 $446 forward 7 unknown #
vertex $-1 $340 $447 #
straight-curve $-1 28.623321496735173 -4.7492411900833851 9.7089798766048219 1 0 0 I I #
edge $-1 $415 -4.076670000086672 $337 2.7315276200932459 $336 $448 forward 7 unknown #
vertex $-1 $414 $449 #
straight-curve $-1 -9.8479028829182198 -4.7492411900833851 71.399373962744249 -0.61566146476048833 0 0.78801076186113728 I I #
point $-1 38.349913978137856 -4.7492411900833851 9.7089798766048219 #
point $-1 42.572099978637041 2.0589564300965328 4.3048280863556982 #
straight-curve $-1 42.572099978637041 0 9.7089798766048201 0 1 0 I I #
vertex $-1 $343 $450 #
point $-1 40.001441502542704 -1.3451423799934261 5.3788338889070744 #
straight-curve $-1 -42.572099978637041 24.653152693399935 0 0 0 -1 I I #
point $-1 -42.572099978637041 -24.653152693399935 -9.7089798766048201 #
straight-curve $-1 -42.572099978637041 0 -9.7089798766048201 0 1 0 I I #
point $-1 -42.572099978637041 24.653152693399935 -9.7089798766048201 #
straight-curve $-1 -42.572099978637041 -9.1769787709147295 -7.4336393823800719 0 -1 0 I I #
point $-1 -42.572099978637041 -24.653152693399935 -7.4336393823800719 #
point $-1 -42.572099978637041 -12.054762390258983 -7.4336393823800719 #
straight-curve $-1 -42.572099978637041 -12.054762390258983 -2.8750359947747262 0 0 -1 I I #
straight-curve $-1 -42.572099978637041 -24.653152693399935 0 0 0 -1 I I #
coedge $-1 $382 $386 $383 $433 reversed $284 $-1 #
edge $-1 $434 -2.772364580689505 $397 2.772364580689505 $393 $451 forward 7 unknown #
edge $-1 $434 -42.572099978637041 $388 42.572099978637041 $431 $452 forward 7 unknown #
vertex $-1 $384 $453 #
straight-curve $-1 42.572099978637041 0 9.7089798766048201 0 1 0 I I #
straight-curve $-1 -42.572099978637041 34.706911432409541 6.9366152959153151 0 0 -1 I I #
point $-1 -42.572099978637041 34.706911432409541 9.7089798766048201 #
point $-1 -42.572099978637041 34.706911432409541 4.1642507152258101 #
straight-curve $-1 0 34.706911432409541 4.1642507152258101 1 0 0 I I #
point $-1 42.572099978637041 34.706911432409541 4.1642507152258101 #
straight-curve $-1 -42.572099978637041 14.599393954390333 30.314828098219028 0 0 -1 I I #
point $-1 -42.572099978637041 14.599393954390333 9.7089798766048201 #
straight-curve $-1 -42.572099978637041 5.6833502709431993 5.9000202680820379 0 -1 0 I I #
point $-1 -42.572099978637041 14.599393954390333 5.9000202680820379 #
point $-1 -37.198885911677465 11.366700541886399 4.6367599186075097 #
straight-curve $-1 42.572099978637041 -4.7492411900833851 61.909688412149762 0 0 -1 I I #
point $-1 42.572099978637041 -4.7492411900833851 9.7089798766048201 #
straight-curve $-1 42.572099978637041 -0.67257118999671306 4.3048280863556911 0 1 0 I I #
point $-1 42.572099978637041 -4.7492411900833851 4.3048280863556982 #
point $-1 38.597769275921081 -1.3451423799934261 5.551183186007723 #
straight-curve $-1 42.572099978637041 34.706911432409541 6.9366152959153151 0 0 -1 I I #
straight-curve $-1 0 34.706911432409541 9.7089798766048201 -1 0 0 I I #
point $-1 42.572099978637041 34.706911432409541 9.7089798766048201 #
End-of-ACIS-data 