500 0 19 0           
7 Unknown 11 ACIS 5.0 NT 24 Thu Mar 25 21:47:09 1999 
-1 9.9999999999999995e-007 1e-010 
body $-1 $19 $-1 $20 #
body $-1 $21 $-1 $22 #
body $-1 $23 $-1 $24 #
body $-1 $25 $-1 $26 #
body $-1 $27 $-1 $28 #
body $-1 $29 $-1 $30 #
body $-1 $31 $-1 $32 #
body $-1 $33 $-1 $34 #
body $-1 $35 $-1 $36 #
body $-1 $37 $-1 $38 #
body $-1 $39 $-1 $40 #
body $-1 $41 $-1 $42 #
body $-1 $43 $-1 $44 #
body $-1 $45 $-1 $46 #
body $-1 $47 $-1 $48 #
body $-1 $49 $-1 $50 #
body $-1 $51 $-1 $52 #
body $-1 $53 $-1 $54 #
body $-1 $55 $-1 $56 #
lump $-1 $-1 $57 $0 #
transform $-1 1 0 0 0 1 0 0 0 1 68.223517563402197 33.886685926431966 14.7424199312438 1 rotate no_reflect no_shear #
lump $-1 $-1 $58 $1 #
transform $-1 1 0 0 0 0.77714595512881146 -0.62932039886446345 0 0.62932039886446345 0.77714595512881146 25.495330683417933 100.97247262184386 175.0243966616265 1 rotate no_reflect no_shear #
lump $-1 $-1 $59 $2 #
transform $-1 1 0 0 0 -0.77714595512881146 0.62932039886446345 0 -0.62932039886446345 -0.77714595512881146 21.802575784153717 65.041221164192507 26.937972395671629 1 rotate no_reflect no_shear #
lump $-1 $-1 $60 $3 #
transform $-1 1 0 0 0 -0.77714595512881146 0.62932039886446345 0 -0.62932039886446345 -0.77714595512881146 29.188085582682145 65.041221164192507 26.937972395671629 1 rotate no_reflect no_shear #
lump $-1 $-1 $61 $4 #
transform $-1 1 0 0 0 0.77714595512881146 -0.62932039886446345 0 0.62932039886446345 0.77714595512881146 59.607089465119032 100.97247262184386 175.0243966616265 1 rotate no_reflect no_shear #
lump $-1 $-1 $62 $5 #
transform $-1 1 0 0 0 -0.77714595512881146 0.62932039886446345 0 -0.62932039886446345 -0.77714595512881146 55.914334565854816 65.041221164192507 26.937972395671629 1 rotate no_reflect no_shear #
lump $-1 $-1 $63 $6 #
transform $-1 1 0 0 0 -0.77714595512881146 0.62932039886446345 0 -0.62932039886446345 -0.77714595512881146 63.299844364383247 65.041221164192507 26.937972395671629 1 rotate no_reflect no_shear #
lump $-1 $-1 $64 $7 #
transform $-1 1 0 0 0 0.77714595512881146 -0.62932039886446345 0 0.62932039886446345 0.77714595512881146 93.71884824682013 100.97247262184386 175.0243966616265 1 rotate no_reflect no_shear #
lump $-1 $-1 $65 $8 #
transform $-1 1 0 0 0 -0.77714595512881146 0.62932039886446345 0 -0.62932039886446345 -0.77714595512881146 90.026093347555914 65.041221164192507 26.937972395671629 1 rotate no_reflect no_shear #
lump $-1 $-1 $66 $9 #
transform $-1 1 0 0 0 -0.77714595512881146 0.62932039886446345 0 -0.62932039886446345 -0.77714595512881146 97.411603146084346 65.041221164192507 26.937972395671629 1 rotate no_reflect no_shear #
lump $-1 $-1 $67 $10 #
transform $-1 1 0 0 0 0.77714595512881146 -0.62932039886446345 0 0.62932039886446345 0.77714595512881146 127.83060702852123 100.97247262184386 175.0243966616265 1 rotate no_reflect no_shear #
lump $-1 $-1 $68 $11 #
transform $-1 1 0 0 0 -0.77714595512881146 0.62932039886446345 0 -0.62932039886446345 -0.77714595512881146 124.13785212925701 65.041221164192507 26.937972395671629 1 rotate no_reflect no_shear #
lump $-1 $-1 $69 $12 #
transform $-1 1 0 0 0 -0.77714595512881146 0.62932039886446345 0 -0.62932039886446345 -0.77714595512881146 131.52336192778546 65.041221164192507 26.937972395671629 1 rotate no_reflect no_shear #
lump $-1 $-1 $70 $13 #
transform $-1 1 0 0 0 0.79863550430605224 0.6018150307709319 0 -0.6018150307709319 0.79863550430605224 58.879246325612016 -82.115876643440203 127.99449062465162 1 rotate no_reflect no_shear #
lump $-1 $-1 $71 $14 #
transform $-1 1 0 0 0 -0.79863550430605224 -0.6018150307709319 0 0.6018150307709319 -0.79863550430605224 54.874558652273365 10.825764501835982 19.099529284182633 1 rotate no_reflect no_shear #
lump $-1 $-1 $72 $15 #
transform $-1 1 0 0 0 -0.79863550430605224 -0.6018150307709319 0 0.6018150307709319 -0.79863550430605224 62.883933998950667 10.825764501835982 19.099529284182633 1 rotate no_reflect no_shear #
lump $-1 $-1 $73 $16 #
transform $-1 1 0 0 0 0.79863550430605224 0.6018150307709319 0 -0.6018150307709319 0.79863550430605224 77.567788801192378 -82.115876643440203 127.99449062465162 1 rotate no_reflect no_shear #
lump $-1 $-1 $74 $17 #
transform $-1 1 0 0 0 -0.79863550430605224 -0.6018150307709319 0 0.6018150307709319 -0.79863550430605224 73.563101127853727 10.825764501835982 19.099529284182633 1 rotate no_reflect no_shear #
lump $-1 $-1 $75 $18 #
transform $-1 1 0 0 0 -0.79863550430605224 -0.6018150307709319 0 0.6018150307709319 -0.79863550430605224 81.57247647453103 10.825764501835982 19.099529284182633 1 rotate no_reflect no_shear #
shell $-1 $-1 $-1 $76 $-1 $19 #
shell $-1 $-1 $-1 $77 $-1 $21 #
shell $-1 $-1 $-1 $78 $-1 $23 #
shell $-1 $-1 $-1 $79 $-1 $25 #
shell $-1 $-1 $-1 $80 $-1 $27 #
shell $-1 $-1 $-1 $81 $-1 $29 #
shell $-1 $-1 $-1 $82 $-1 $31 #
shell $-1 $-1 $-1 $83 $-1 $33 #
shell $-1 $-1 $-1 $84 $-1 $35 #
shell $-1 $-1 $-1 $85 $-1 $37 #
shell $-1 $-1 $-1 $86 $-1 $39 #
shell $-1 $-1 $-1 $87 $-1 $41 #
shell $-1 $-1 $-1 $88 $-1 $43 #
shell $-1 $-1 $-1 $89 $-1 $45 #
shell $-1 $-1 $-1 $90 $-1 $47 #
shell $-1 $-1 $-1 $91 $-1 $49 #
shell $-1 $-1 $-1 $92 $-1 $51 #
shell $-1 $-1 $-1 $93 $-1 $53 #
shell $-1 $-1 $-1 $94 $-1 $55 #
face $-1 $95 $96 $57 $-1 $97 forward single #
face $-1 $98 $99 $58 $-1 $100 forward single #
face $-1 $101 $102 $59 $-1 $103 forward single #
face $-1 $104 $105 $60 $-1 $106 forward single #
face $-1 $107 $108 $61 $-1 $109 forward single #
face $-1 $110 $111 $62 $-1 $112 forward single #
face $-1 $113 $114 $63 $-1 $115 forward single #
face $-1 $116 $117 $64 $-1 $118 forward single #
face $-1 $119 $120 $65 $-1 $121 forward single #
face $-1 $122 $123 $66 $-1 $124 forward single #
face $-1 $125 $126 $67 $-1 $127 forward single #
face $-1 $128 $129 $68 $-1 $130 forward single #
face $-1 $131 $132 $69 $-1 $133 forward single #
face $-1 $134 $135 $70 $-1 $136 forward single #
face $-1 $137 $138 $71 $-1 $139 forward single #
face $-1 $140 $141 $72 $-1 $142 forward single #
face $-1 $143 $144 $73 $-1 $145 forward single #
face $-1 $146 $147 $74 $-1 $148 forward single #
face $-1 $149 $150 $75 $-1 $151 forward single #
face $-1 $152 $153 $57 $-1 $154 reversed single #
loop $-1 $-1 $155 $76 #
plane-surface $-1 0 0 14.7424199312438 0 0 1 1 0 0 forward_v I I I I #
face $-1 $156 $157 $58 $-1 $158 reversed single #
loop $-1 $-1 $159 $77 #
plane-surface $-1 0 0 136.44703512680439 0 0 1 1 0 0 forward_v I I I I #
face $-1 $160 $161 $59 $-1 $162 forward single #
loop $-1 $163 $164 $78 #
cone-surface $-1 0 0 -0.75 0 0 1 0.5 0 0 1 I I 0 1 0.5 forward I I I I #
face $-1 $165 $166 $60 $-1 $167 forward single #
loop $-1 $168 $169 $79 #
cone-surface $-1 0 0 -0.75 0 0 1 0.5 0 0 1 I I 0 1 0.5 forward I I I I #
face $-1 $170 $171 $61 $-1 $172 reversed single #
loop $-1 $-1 $173 $80 #
plane-surface $-1 0 0 136.44703512680439 0 0 1 1 0 0 forward_v I I I I #
face $-1 $174 $175 $62 $-1 $176 forward single #
loop $-1 $177 $178 $81 #
cone-surface $-1 0 0 -0.75 0 0 1 0.5 0 0 1 I I 0 1 0.5 forward I I I I #
face $-1 $179 $180 $63 $-1 $181 forward single #
loop $-1 $182 $183 $82 #
cone-surface $-1 0 0 -0.75 0 0 1 0.5 0 0 1 I I 0 1 0.5 forward I I I I #
face $-1 $184 $185 $64 $-1 $186 reversed single #
loop $-1 $-1 $187 $83 #
plane-surface $-1 0 0 136.44703512680439 0 0 1 1 0 0 forward_v I I I I #
face $-1 $188 $189 $65 $-1 $190 forward single #
loop $-1 $191 $192 $84 #
cone-surface $-1 0 0 -0.75 0 0 1 0.5 0 0 1 I I 0 1 0.5 forward I I I I #
face $-1 $193 $194 $66 $-1 $195 forward single #
loop $-1 $196 $197 $85 #
cone-surface $-1 0 0 -0.75 0 0 1 0.5 0 0 1 I I 0 1 0.5 forward I I I I #
face $-1 $198 $199 $67 $-1 $200 reversed single #
loop $-1 $-1 $201 $86 #
plane-surface $-1 0 0 136.44703512680439 0 0 1 1 0 0 forward_v I I I I #
face $-1 $202 $203 $68 $-1 $204 forward single #
loop $-1 $205 $206 $87 #
cone-surface $-1 0 0 -0.75 0 0 1 0.5 0 0 1 I I 0 1 0.5 forward I I I I #
face $-1 $207 $208 $69 $-1 $209 forward single #
loop $-1 $210 $211 $88 #
cone-surface $-1 0 0 -0.75 0 0 1 0.5 0 0 1 I I 0 1 0.5 forward I I I I #
face $-1 $212 $213 $70 $-1 $214 reversed single #
loop $-1 $-1 $215 $89 #
plane-surface $-1 0 0 136.44703512680439 0 0 1 1 0 0 forward_v I I I I #
face $-1 $216 $217 $71 $-1 $218 forward single #
loop $-1 $219 $220 $90 #
cone-surface $-1 0 0 -3.727011932737204 0 0 1 2 0 0 1 I I 0 1 2 forward I I I I #
face $-1 $221 $222 $72 $-1 $223 forward single #
loop $-1 $224 $225 $91 #
cone-surface $-1 0 0 -3.727011932737204 0 0 1 2 0 0 1 I I 0 1 2 forward I I I I #
face $-1 $226 $227 $73 $-1 $228 reversed single #
loop $-1 $-1 $229 $92 #
plane-surface $-1 0 0 136.44703512680439 0 0 1 1 0 0 forward_v I I I I #
face $-1 $230 $231 $74 $-1 $232 forward single #
loop $-1 $233 $234 $93 #
cone-surface $-1 0 0 -3.727011932737204 0 0 1 2 0 0 1 I I 0 1 2 forward I I I I #
face $-1 $235 $236 $75 $-1 $237 forward single #
loop $-1 $238 $239 $94 #
cone-surface $-1 0 0 -3.727011932737204 0 0 1 2 0 0 1 I I 0 1 2 forward I I I I #
face $-1 $240 $241 $57 $-1 $242 reversed single #
loop $-1 $-1 $243 $95 #
plane-surface $-1 0 0 -14.7424199312438 0 0 1 1 0 0 forward_v I I I I #
coedge $-1 $244 $245 $246 $247 forward $96 $-1 #
face $-1 $248 $249 $58 $-1 $250 reversed single #
loop $-1 $-1 $251 $98 #
plane-surface $-1 0 0 -136.44703512680439 0 0 1 1 0 0 forward_v I I I I #
coedge $-1 $252 $253 $254 $255 forward $99 $-1 #
face $-1 $-1 $256 $59 $-1 $257 forward single #
loop $-1 $-1 $258 $101 #
plane-surface $-1 0 0 -1.25 0 0 -1 -1 0 0 forward_v I I I I #
loop $-1 $-1 $259 $78 #
coedge $-1 $164 $164 $258 $260 reversed $102 $-1 #
face $-1 $-1 $261 $60 $-1 $262 forward single #
loop $-1 $-1 $263 $104 #
plane-surface $-1 0 0 -1.25 0 0 -1 -1 0 0 forward_v I I I I #
loop $-1 $-1 $264 $79 #
coedge $-1 $169 $169 $263 $265 reversed $105 $-1 #
face $-1 $266 $267 $61 $-1 $268 reversed single #
loop $-1 $-1 $269 $107 #
plane-surface $-1 0 0 -136.44703512680439 0 0 1 1 0 0 forward_v I I I I #
coedge $-1 $270 $271 $272 $273 forward $108 $-1 #
face $-1 $-1 $274 $62 $-1 $275 forward single #
loop $-1 $-1 $276 $110 #
plane-surface $-1 0 0 -1.25 0 0 -1 -1 0 0 forward_v I I I I #
loop $-1 $-1 $277 $81 #
coedge $-1 $178 $178 $276 $278 reversed $111 $-1 #
face $-1 $-1 $279 $63 $-1 $280 forward single #
loop $-1 $-1 $281 $113 #
plane-surface $-1 0 0 -1.25 0 0 -1 -1 0 0 forward_v I I I I #
loop $-1 $-1 $282 $82 #
coedge $-1 $183 $183 $281 $283 reversed $114 $-1 #
face $-1 $284 $285 $64 $-1 $286 reversed single #
loop $-1 $-1 $287 $116 #
plane-surface $-1 0 0 -136.44703512680439 0 0 1 1 0 0 forward_v I I I I #
coedge $-1 $288 $289 $290 $291 forward $117 $-1 #
face $-1 $-1 $292 $65 $-1 $293 forward single #
loop $-1 $-1 $294 $119 #
plane-surface $-1 0 0 -1.25 0 0 -1 -1 0 0 forward_v I I I I #
loop $-1 $-1 $295 $84 #
coedge $-1 $192 $192 $294 $296 reversed $120 $-1 #
face $-1 $-1 $297 $66 $-1 $298 forward single #
loop $-1 $-1 $299 $122 #
plane-surface $-1 0 0 -1.25 0 0 -1 -1 0 0 forward_v I I I I #
loop $-1 $-1 $300 $85 #
coedge $-1 $197 $197 $299 $301 reversed $123 $-1 #
face $-1 $302 $303 $67 $-1 $304 reversed single #
loop $-1 $-1 $305 $125 #
plane-surface $-1 0 0 -136.44703512680439 0 0 1 1 0 0 forward_v I I I I #
coedge $-1 $306 $307 $308 $309 forward $126 $-1 #
face $-1 $-1 $310 $68 $-1 $311 forward single #
loop $-1 $-1 $312 $128 #
plane-surface $-1 0 0 -1.25 0 0 -1 -1 0 0 forward_v I I I I #
loop $-1 $-1 $313 $87 #
coedge $-1 $206 $206 $312 $314 reversed $129 $-1 #
face $-1 $-1 $315 $69 $-1 $316 forward single #
loop $-1 $-1 $317 $131 #
plane-surface $-1 0 0 -1.25 0 0 -1 -1 0 0 forward_v I I I I #
loop $-1 $-1 $318 $88 #
coedge $-1 $211 $211 $317 $319 reversed $132 $-1 #
face $-1 $320 $321 $70 $-1 $322 reversed single #
loop $-1 $-1 $323 $134 #
plane-surface $-1 0 0 -136.44703512680439 0 0 1 1 0 0 forward_v I I I I #
coedge $-1 $324 $325 $326 $327 forward $135 $-1 #
face $-1 $-1 $328 $71 $-1 $329 forward single #
loop $-1 $-1 $330 $137 #
plane-surface $-1 0 0 -6.4540238654744089 0 0 -1 -1 0 0 forward_v I I I I #
loop $-1 $-1 $331 $90 #
coedge $-1 $220 $220 $330 $332 reversed $138 $-1 #
face $-1 $-1 $333 $72 $-1 $334 forward single #
loop $-1 $-1 $335 $140 #
plane-surface $-1 0 0 -6.4540238654744089 0 0 -1 -1 0 0 forward_v I I I I #
loop $-1 $-1 $336 $91 #
coedge $-1 $225 $225 $335 $337 reversed $141 $-1 #
face $-1 $338 $339 $73 $-1 $340 reversed single #
loop $-1 $-1 $341 $143 #
plane-surface $-1 0 0 -136.44703512680439 0 0 1 1 0 0 forward_v I I I I #
coedge $-1 $342 $343 $344 $345 forward $144 $-1 #
face $-1 $-1 $346 $74 $-1 $347 forward single #
loop $-1 $-1 $348 $146 #
plane-surface $-1 0 0 -6.4540238654744089 0 0 -1 -1 0 0 forward_v I I I I #
loop $-1 $-1 $349 $93 #
coedge $-1 $234 $234 $348 $350 reversed $147 $-1 #
face $-1 $-1 $351 $75 $-1 $352 forward single #
loop $-1 $-1 $353 $149 #
plane-surface $-1 0 0 -6.4540238654744089 0 0 -1 -1 0 0 forward_v I I I I #
loop $-1 $-1 $354 $94 #
coedge $-1 $239 $239 $353 $355 reversed $150 $-1 #
face $-1 $356 $357 $57 $-1 $358 reversed single #
loop $-1 $-1 $359 $152 #
plane-surface $-1 0 -33.886685926431966 0 0 1 0 0 0 1 forward_v I I I I #
coedge $-1 $360 $361 $362 $363 forward $153 $-1 #
coedge $-1 $364 $155 $365 $366 forward $96 $-1 #
coedge $-1 $155 $364 $367 $368 forward $96 $-1 #
coedge $-1 $369 $370 $155 $247 reversed $371 $-1 #
edge $-1 $372 -33.886685926431966 $373 33.886685926431966 $246 $374 forward 7 unknown #
face $-1 $375 $376 $58 $-1 $377 reversed single #
loop $-1 $-1 $378 $156 #
plane-surface $-1 0 -272.89407025360879 0 0 1 0 0 0 1 forward_v I I I I #
coedge $-1 $379 $380 $381 $382 forward $157 $-1 #
coedge $-1 $383 $159 $384 $385 forward $99 $-1 #
coedge $-1 $159 $383 $386 $387 forward $99 $-1 #
coedge $-1 $388 $389 $159 $255 reversed $390 $-1 #
edge $-1 $391 -272.89407025360879 $392 272.89407025360879 $254 $393 forward 7 unknown #
loop $-1 $394 $395 $160 #
cone-surface $-1 0 0 0 0 0 1 0.25 0 0 1 I I -0.70710678118654746 0.70710678118654746 0.25 forward I I I I #
coedge $-1 $258 $258 $164 $260 forward $161 $-1 #
coedge $-1 $259 $259 $395 $396 forward $163 $-1 #
edge $-1 $397 0 $397 6.2831853071796004 $258 $398 forward 7 unknown #
loop $-1 $399 $400 $165 #
cone-surface $-1 0 0 0 0 0 1 0.25 0 0 1 I I -0.70710678118654746 0.70710678118654746 0.25 forward I I I I #
coedge $-1 $263 $263 $169 $265 forward $166 $-1 #
coedge $-1 $264 $264 $400 $401 forward $168 $-1 #
edge $-1 $402 0 $402 6.2831853071796004 $263 $403 forward 7 unknown #
face $-1 $404 $405 $61 $-1 $406 reversed single #
loop $-1 $-1 $407 $170 #
plane-surface $-1 0 -272.89407025360879 0 0 1 0 0 0 1 forward_v I I I I #
coedge $-1 $408 $409 $410 $411 forward $171 $-1 #
coedge $-1 $412 $173 $413 $414 forward $108 $-1 #
coedge $-1 $173 $412 $415 $416 forward $108 $-1 #
coedge $-1 $417 $418 $173 $273 reversed $419 $-1 #
edge $-1 $420 -272.89407025360879 $421 272.89407025360879 $272 $422 forward 7 unknown #
loop $-1 $423 $424 $174 #
cone-surface $-1 0 0 0 0 0 1 0.25 0 0 1 I I -0.70710678118654746 0.70710678118654746 0.25 forward I I I I #
coedge $-1 $276 $276 $178 $278 forward $175 $-1 #
coedge $-1 $277 $277 $424 $425 forward $177 $-1 #
edge $-1 $426 0 $426 6.2831853071796004 $276 $427 forward 7 unknown #
loop $-1 $428 $429 $179 #
cone-surface $-1 0 0 0 0 0 1 0.25 0 0 1 I I -0.70710678118654746 0.70710678118654746 0.25 forward I I I I #
coedge $-1 $281 $281 $183 $283 forward $180 $-1 #
coedge $-1 $282 $282 $429 $430 forward $182 $-1 #
edge $-1 $431 0 $431 6.2831853071796004 $281 $432 forward 7 unknown #
face $-1 $433 $434 $64 $-1 $435 reversed single #
loop $-1 $-1 $436 $184 #
plane-surface $-1 0 -272.89407025360879 0 0 1 0 0 0 1 forward_v I I I I #
coedge $-1 $437 $438 $439 $440 forward $185 $-1 #
coedge $-1 $441 $187 $442 $443 forward $117 $-1 #
coedge $-1 $187 $441 $444 $445 forward $117 $-1 #
coedge $-1 $446 $447 $187 $291 reversed $448 $-1 #
edge $-1 $449 -272.89407025360879 $450 272.89407025360879 $290 $451 forward 7 unknown #
loop $-1 $452 $453 $188 #
cone-surface $-1 0 0 0 0 0 1 0.25 0 0 1 I I -0.70710678118654746 0.70710678118654746 0.25 forward I I I I #
coedge $-1 $294 $294 $192 $296 forward $189 $-1 #
coedge $-1 $295 $295 $453 $454 forward $191 $-1 #
edge $-1 $455 0 $455 6.2831853071796004 $294 $456 forward 7 unknown #
loop $-1 $457 $458 $193 #
cone-surface $-1 0 0 0 0 0 1 0.25 0 0 1 I I -0.70710678118654746 0.70710678118654746 0.25 forward I I I I #
coedge $-1 $299 $299 $197 $301 forward $194 $-1 #
coedge $-1 $300 $300 $458 $459 forward $196 $-1 #
edge $-1 $460 0 $460 6.2831853071796004 $299 $461 forward 7 unknown #
face $-1 $462 $463 $67 $-1 $464 reversed single #
loop $-1 $-1 $465 $198 #
plane-surface $-1 0 -272.89407025360879 0 0 1 0 0 0 1 forward_v I I I I #
coedge $-1 $466 $467 $468 $469 forward $199 $-1 #
coedge $-1 $470 $201 $471 $472 forward $126 $-1 #
coedge $-1 $201 $470 $473 $474 forward $126 $-1 #
coedge $-1 $475 $476 $201 $309 reversed $477 $-1 #
edge $-1 $478 -272.89407025360879 $479 272.89407025360879 $308 $480 forward 7 unknown #
loop $-1 $481 $482 $202 #
cone-surface $-1 0 0 0 0 0 1 0.25 0 0 1 I I -0.70710678118654746 0.70710678118654746 0.25 forward I I I I #
coedge $-1 $312 $312 $206 $314 forward $203 $-1 #
coedge $-1 $313 $313 $482 $483 forward $205 $-1 #
edge $-1 $484 0 $484 6.2831853071796004 $312 $485 forward 7 unknown #
loop $-1 $486 $487 $207 #
cone-surface $-1 0 0 0 0 0 1 0.25 0 0 1 I I -0.70710678118654746 0.70710678118654746 0.25 forward I I I I #
coedge $-1 $317 $317 $211 $319 forward $208 $-1 #
coedge $-1 $318 $318 $487 $488 forward $210 $-1 #
edge $-1 $489 0 $489 6.2831853071796004 $317 $490 forward 7 unknown #
face $-1 $491 $492 $70 $-1 $493 reversed single #
loop $-1 $-1 $494 $212 #
plane-surface $-1 0 -272.89407025360879 0 0 1 0 0 0 1 forward_v I I I I #
coedge $-1 $495 $496 $497 $498 forward $213 $-1 #
coedge $-1 $499 $215 $500 $501 forward $135 $-1 #
coedge $-1 $215 $499 $502 $503 forward $135 $-1 #
coedge $-1 $504 $505 $215 $327 reversed $506 $-1 #
edge $-1 $507 -272.89407025360879 $508 272.89407025360879 $326 $509 forward 7 unknown #
loop $-1 $510 $511 $216 #
cone-surface $-1 0 0 0 0 0 1 1 0 0 1 I I -0.70710678118654746 0.70710678118654746 1 forward I I I I #
coedge $-1 $330 $330 $220 $332 forward $217 $-1 #
coedge $-1 $331 $331 $511 $512 forward $219 $-1 #
edge $-1 $513 0 $513 6.2831853071796004 $330 $514 forward 7 unknown #
loop $-1 $515 $516 $221 #
cone-surface $-1 0 0 0 0 0 1 1 0 0 1 I I -0.70710678118654746 0.70710678118654746 1 forward I I I I #
coedge $-1 $335 $335 $225 $337 forward $222 $-1 #
coedge $-1 $336 $336 $516 $517 forward $224 $-1 #
edge $-1 $518 0 $518 6.2831853071796004 $335 $519 forward 7 unknown #
face $-1 $520 $521 $73 $-1 $522 reversed single #
loop $-1 $-1 $523 $226 #
plane-surface $-1 0 -272.89407025360879 0 0 1 0 0 0 1 forward_v I I I I #
coedge $-1 $524 $525 $526 $527 forward $227 $-1 #
coedge $-1 $528 $229 $529 $530 forward $144 $-1 #
coedge $-1 $229 $528 $531 $532 forward $144 $-1 #
coedge $-1 $533 $534 $229 $345 reversed $535 $-1 #
edge $-1 $536 -272.89407025360879 $537 272.89407025360879 $344 $538 forward 7 unknown #
loop $-1 $539 $540 $230 #
cone-surface $-1 0 0 0 0 0 1 1 0 0 1 I I -0.70710678118654746 0.70710678118654746 1 forward I I I I #
coedge $-1 $348 $348 $234 $350 forward $231 $-1 #
coedge $-1 $349 $349 $540 $541 forward $233 $-1 #
edge $-1 $542 0 $542 6.2831853071796004 $348 $543 forward 7 unknown #
loop $-1 $544 $545 $235 #
cone-surface $-1 0 0 0 0 0 1 1 0 0 1 I I -0.70710678118654746 0.70710678118654746 1 forward I I I I #
coedge $-1 $353 $353 $239 $355 forward $236 $-1 #
coedge $-1 $354 $354 $545 $546 forward $238 $-1 #
edge $-1 $547 0 $547 6.2831853071796004 $353 $548 forward 7 unknown #
face $-1 $549 $550 $57 $-1 $551 reversed single #
loop $-1 $-1 $552 $240 #
plane-surface $-1 -68.223517563402197 0 0 1 0 0 0 0 -1 forward_v I I I I #
coedge $-1 $553 $367 $554 $555 forward $241 $-1 #
coedge $-1 $556 $243 $553 $557 forward $153 $-1 #
coedge $-1 $243 $556 $558 $559 forward $153 $-1 #
coedge $-1 $370 $369 $243 $363 reversed $371 $-1 #
edge $-1 $560 -33.886685926431966 $561 33.886685926431966 $362 $562 forward 7 unknown #
coedge $-1 $245 $244 $563 $564 forward $96 $-1 #
coedge $-1 $565 $566 $244 $366 reversed $550 $-1 #
edge $-1 $373 -68.223517563402197 $567 68.223517563402197 $365 $568 forward 7 unknown #
coedge $-1 $359 $569 $245 $368 reversed $241 $-1 #
edge $-1 $570 -68.223517563402197 $372 68.223517563402197 $367 $571 forward 7 unknown #
coedge $-1 $362 $246 $569 $572 forward $371 $-1 #
coedge $-1 $246 $362 $565 $573 reversed $371 $-1 #
loop $-1 $-1 $369 $549 #
vertex $-1 $247 $574 #
vertex $-1 $247 $575 #
straight-curve $-1 68.223517563402197 0 14.7424199312438 0 1 0 I I #
face $-1 $576 $577 $58 $-1 $578 reversed single #
loop $-1 $-1 $579 $248 #
plane-surface $-1 -8.6164280982831674 0 0 1 0 0 0 0 -1 forward_v I I I I #
coedge $-1 $580 $386 $581 $582 forward $249 $-1 #
coedge $-1 $583 $251 $580 $584 forward $157 $-1 #
coedge $-1 $251 $583 $585 $586 forward $157 $-1 #
coedge $-1 $389 $388 $251 $382 reversed $390 $-1 #
edge $-1 $587 -272.89407025360879 $588 272.89407025360879 $381 $589 forward 7 unknown #
coedge $-1 $253 $252 $590 $591 forward $99 $-1 #
coedge $-1 $592 $593 $252 $385 reversed $577 $-1 #
edge $-1 $392 -8.6164280982831674 $594 8.6164280982831674 $384 $595 forward 7 unknown #
coedge $-1 $378 $596 $253 $387 reversed $249 $-1 #
edge $-1 $597 -8.6164280982831674 $391 8.6164280982831674 $386 $598 forward 7 unknown #
coedge $-1 $381 $254 $596 $599 forward $390 $-1 #
coedge $-1 $254 $381 $592 $600 reversed $390 $-1 #
loop $-1 $-1 $388 $576 #
vertex $-1 $255 $601 #
vertex $-1 $255 $602 #
straight-curve $-1 8.6164280982831674 0 136.44703512680439 0 1 0 I I #
loop $-1 $-1 $603 $160 #
coedge $-1 $395 $395 $259 $396 reversed $256 $-1 #
edge $-1 $604 0 $604 6.2831853071796004 $395 $605 forward 7 unknown #
vertex $-1 $260 $606 #
ellipse-curve $-1 0 0 -1.25 0 0 -1 0.5 0 0 1 I I #
loop $-1 $-1 $607 $165 #
coedge $-1 $400 $400 $264 $401 reversed $261 $-1 #
edge $-1 $608 0 $608 6.2831853071796004 $400 $609 forward 7 unknown #
vertex $-1 $265 $610 #
ellipse-curve $-1 0 0 -1.25 0 0 -1 0.5 0 0 1 I I #
face $-1 $611 $612 $61 $-1 $613 reversed single #
loop $-1 $-1 $614 $266 #
plane-surface $-1 -8.6164280982831674 0 0 1 0 0 0 0 -1 forward_v I I I I #
coedge $-1 $615 $415 $616 $617 forward $267 $-1 #
coedge $-1 $618 $269 $615 $619 forward $171 $-1 #
coedge $-1 $269 $618 $620 $621 forward $171 $-1 #
coedge $-1 $418 $417 $269 $411 reversed $419 $-1 #
edge $-1 $622 -272.89407025360879 $623 272.89407025360879 $410 $624 forward 7 unknown #
coedge $-1 $271 $270 $625 $626 forward $108 $-1 #
coedge $-1 $627 $628 $270 $414 reversed $612 $-1 #
edge $-1 $421 -8.6164280982831674 $629 8.6164280982831674 $413 $630 forward 7 unknown #
coedge $-1 $407 $631 $271 $416 reversed $267 $-1 #
edge $-1 $632 -8.6164280982831674 $420 8.6164280982831674 $415 $633 forward 7 unknown #
coedge $-1 $410 $272 $631 $634 forward $419 $-1 #
coedge $-1 $272 $410 $627 $635 reversed $419 $-1 #
loop $-1 $-1 $417 $611 #
vertex $-1 $273 $636 #
vertex $-1 $273 $637 #
straight-curve $-1 8.6164280982831674 0 136.44703512680439 0 1 0 I I #
loop $-1 $-1 $638 $174 #
coedge $-1 $424 $424 $277 $425 reversed $274 $-1 #
edge $-1 $639 0 $639 6.2831853071796004 $424 $640 forward 7 unknown #
vertex $-1 $278 $641 #
ellipse-curve $-1 0 0 -1.25 0 0 -1 0.5 0 0 1 I I #
loop $-1 $-1 $642 $179 #
coedge $-1 $429 $429 $282 $430 reversed $279 $-1 #
edge $-1 $643 0 $643 6.2831853071796004 $429 $644 forward 7 unknown #
vertex $-1 $283 $645 #
ellipse-curve $-1 0 0 -1.25 0 0 -1 0.5 0 0 1 I I #
face $-1 $646 $647 $64 $-1 $648 reversed single #
loop $-1 $-1 $649 $284 #
plane-surface $-1 -8.6164280982831674 0 0 1 0 0 0 0 -1 forward_v I I I I #
coedge $-1 $650 $444 $651 $652 forward $285 $-1 #
coedge $-1 $653 $287 $650 $654 forward $185 $-1 #
coedge $-1 $287 $653 $655 $656 forward $185 $-1 #
coedge $-1 $447 $446 $287 $440 reversed $448 $-1 #
edge $-1 $657 -272.89407025360879 $658 272.89407025360879 $439 $659 forward 7 unknown #
coedge $-1 $289 $288 $660 $661 forward $117 $-1 #
coedge $-1 $662 $663 $288 $443 reversed $647 $-1 #
edge $-1 $450 -8.6164280982831674 $664 8.6164280982831674 $442 $665 forward 7 unknown #
coedge $-1 $436 $666 $289 $445 reversed $285 $-1 #
edge $-1 $667 -8.6164280982831674 $449 8.6164280982831674 $444 $668 forward 7 unknown #
coedge $-1 $439 $290 $666 $669 forward $448 $-1 #
coedge $-1 $290 $439 $662 $670 reversed $448 $-1 #
loop $-1 $-1 $446 $646 #
vertex $-1 $291 $671 #
vertex $-1 $291 $672 #
straight-curve $-1 8.6164280982831674 0 136.44703512680439 0 1 0 I I #
loop $-1 $-1 $673 $188 #
coedge $-1 $453 $453 $295 $454 reversed $292 $-1 #
edge $-1 $674 0 $674 6.2831853071796004 $453 $675 forward 7 unknown #
vertex $-1 $296 $676 #
ellipse-curve $-1 0 0 -1.25 0 0 -1 0.5 0 0 1 I I #
loop $-1 $-1 $677 $193 #
coedge $-1 $458 $458 $300 $459 reversed $297 $-1 #
edge $-1 $678 0 $678 6.2831853071796004 $458 $679 forward 7 unknown #
vertex $-1 $301 $680 #
ellipse-curve $-1 0 0 -1.25 0 0 -1 0.5 0 0 1 I I #
face $-1 $681 $682 $67 $-1 $683 reversed single #
loop $-1 $-1 $684 $302 #
plane-surface $-1 -8.6164280982831674 0 0 1 0 0 0 0 -1 forward_v I I I I #
coedge $-1 $685 $473 $686 $687 forward $303 $-1 #
coedge $-1 $688 $305 $685 $689 forward $199 $-1 #
coedge $-1 $305 $688 $690 $691 forward $199 $-1 #
coedge $-1 $476 $475 $305 $469 reversed $477 $-1 #
edge $-1 $692 -272.89407025360879 $693 272.89407025360879 $468 $694 forward 7 unknown #
coedge $-1 $307 $306 $695 $696 forward $126 $-1 #
coedge $-1 $697 $698 $306 $472 reversed $682 $-1 #
edge $-1 $479 -8.6164280982831674 $699 8.6164280982831674 $471 $700 forward 7 unknown #
coedge $-1 $465 $701 $307 $474 reversed $303 $-1 #
edge $-1 $702 -8.6164280982831674 $478 8.6164280982831674 $473 $703 forward 7 unknown #
coedge $-1 $468 $308 $701 $704 forward $477 $-1 #
coedge $-1 $308 $468 $697 $705 reversed $477 $-1 #
loop $-1 $-1 $475 $681 #
vertex $-1 $309 $706 #
vertex $-1 $309 $707 #
straight-curve $-1 8.6164280982831674 0 136.44703512680439 0 1 0 I I #
loop $-1 $-1 $708 $202 #
coedge $-1 $482 $482 $313 $483 reversed $310 $-1 #
edge $-1 $709 0 $709 6.2831853071796004 $482 $710 forward 7 unknown #
vertex $-1 $314 $711 #
ellipse-curve $-1 0 0 -1.25 0 0 -1 0.5 0 0 1 I I #
loop $-1 $-1 $712 $207 #
coedge $-1 $487 $487 $318 $488 reversed $315 $-1 #
edge $-1 $713 0 $713 6.2831853071796004 $487 $714 forward 7 unknown #
vertex $-1 $319 $715 #
ellipse-curve $-1 0 0 -1.25 0 0 -1 0.5 0 0 1 I I #
face $-1 $716 $717 $70 $-1 $718 reversed single #
loop $-1 $-1 $719 $320 #
plane-surface $-1 -9.3442712377901813 0 0 1 0 0 0 0 -1 forward_v I I I I #
coedge $-1 $720 $502 $721 $722 forward $321 $-1 #
coedge $-1 $723 $323 $720 $724 forward $213 $-1 #
coedge $-1 $323 $723 $725 $726 forward $213 $-1 #
coedge $-1 $505 $504 $323 $498 reversed $506 $-1 #
edge $-1 $727 -272.89407025360879 $728 272.89407025360879 $497 $729 forward 7 unknown #
coedge $-1 $325 $324 $730 $731 forward $135 $-1 #
coedge $-1 $732 $733 $324 $501 reversed $717 $-1 #
edge $-1 $508 -9.3442712377901813 $734 9.3442712377901813 $500 $735 forward 7 unknown #
coedge $-1 $494 $736 $325 $503 reversed $321 $-1 #
edge $-1 $737 -9.3442712377901813 $507 9.3442712377901813 $502 $738 forward 7 unknown #
coedge $-1 $497 $326 $736 $739 forward $506 $-1 #
coedge $-1 $326 $497 $732 $740 reversed $506 $-1 #
loop $-1 $-1 $504 $716 #
vertex $-1 $327 $741 #
vertex $-1 $327 $742 #
straight-curve $-1 9.3442712377901813 0 136.44703512680439 0 1 0 I I #
loop $-1 $-1 $743 $216 #
coedge $-1 $511 $511 $331 $512 reversed $328 $-1 #
edge $-1 $744 0 $744 6.2831853071796004 $511 $745 forward 7 unknown #
vertex $-1 $332 $746 #
ellipse-curve $-1 0 0 -6.4540238654744089 0 0 -1 2 0 0 1 I I #
loop $-1 $-1 $747 $221 #
coedge $-1 $516 $516 $336 $517 reversed $333 $-1 #
edge $-1 $748 0 $748 6.2831853071796004 $516 $749 forward 7 unknown #
vertex $-1 $337 $750 #
ellipse-curve $-1 0 0 -6.4540238654744089 0 0 -1 2 0 0 1 I I #
face $-1 $751 $752 $73 $-1 $753 reversed single #
loop $-1 $-1 $754 $338 #
plane-surface $-1 -9.3442712377901813 0 0 1 0 0 0 0 -1 forward_v I I I I #
coedge $-1 $755 $531 $756 $757 forward $339 $-1 #
coedge $-1 $758 $341 $755 $759 forward $227 $-1 #
coedge $-1 $341 $758 $760 $761 forward $227 $-1 #
coedge $-1 $534 $533 $341 $527 reversed $535 $-1 #
edge $-1 $762 -272.89407025360879 $763 272.89407025360879 $526 $764 forward 7 unknown #
coedge $-1 $343 $342 $765 $766 forward $144 $-1 #
coedge $-1 $767 $768 $342 $530 reversed $752 $-1 #
edge $-1 $537 -9.3442712377901813 $769 9.3442712377901813 $529 $770 forward 7 unknown #
coedge $-1 $523 $771 $343 $532 reversed $339 $-1 #
edge $-1 $772 -9.3442712377901813 $536 9.3442712377901813 $531 $773 forward 7 unknown #
coedge $-1 $526 $344 $771 $774 forward $535 $-1 #
coedge $-1 $344 $526 $767 $775 reversed $535 $-1 #
loop $-1 $-1 $533 $751 #
vertex $-1 $345 $776 #
vertex $-1 $345 $777 #
straight-curve $-1 9.3442712377901813 0 136.44703512680439 0 1 0 I I #
loop $-1 $-1 $778 $230 #
coedge $-1 $540 $540 $349 $541 reversed $346 $-1 #
edge $-1 $779 0 $779 6.2831853071796004 $540 $780 forward 7 unknown #
vertex $-1 $350 $781 #
ellipse-curve $-1 0 0 -6.4540238654744089 0 0 -1 2 0 0 1 I I #
loop $-1 $-1 $782 $235 #
coedge $-1 $545 $545 $354 $546 reversed $351 $-1 #
edge $-1 $783 0 $783 6.2831853071796004 $545 $784 forward 7 unknown #
vertex $-1 $355 $785 #
ellipse-curve $-1 0 0 -6.4540238654744089 0 0 -1 2 0 0 1 I I #
face $-1 $-1 $371 $57 $-1 $786 reversed single #
loop $-1 $-1 $565 $356 #
plane-surface $-1 0 33.886685926431966 0 0 -1 0 0 0 -1 forward_v I I I I #
coedge $-1 $787 $563 $566 $788 forward $357 $-1 #
coedge $-1 $569 $359 $360 $557 reversed $241 $-1 #
coedge $-1 $563 $787 $359 $555 reversed $357 $-1 #
edge $-1 $570 -14.7424199312438 $789 14.7424199312438 $554 $790 forward 7 unknown #
coedge $-1 $361 $360 $787 $791 forward $153 $-1 #
edge $-1 $561 -68.223517563402197 $789 68.223517563402197 $553 $792 forward 7 unknown #
coedge $-1 $566 $565 $361 $559 reversed $550 $-1 #
edge $-1 $793 -68.223517563402197 $560 68.223517563402197 $558 $794 forward 7 unknown #
vertex $-1 $363 $795 #
vertex $-1 $572 $796 #
straight-curve $-1 68.223517563402197 0 -14.7424199312438 0 -1 0 I I #
coedge $-1 $552 $554 $364 $564 reversed $357 $-1 #
edge $-1 $567 -33.886685926431966 $570 33.886685926431966 $563 $797 forward 7 unknown #
coedge $-1 $558 $365 $370 $573 forward $550 $-1 #
coedge $-1 $365 $558 $552 $788 reversed $550 $-1 #
vertex $-1 $366 $798 #
straight-curve $-1 0 33.886685926431966 14.7424199312438 -1 0 0 I I #
coedge $-1 $367 $553 $369 $572 reversed $241 $-1 #
vertex $-1 $564 $799 #
straight-curve $-1 0 -33.886685926431966 14.7424199312438 1 0 0 I I #
edge $-1 $372 -14.7424199312438 $561 14.7424199312438 $369 $800 forward 7 unknown #
edge $-1 $373 -14.7424199312438 $560 14.7424199312438 $370 $801 forward 7 unknown #
point $-1 68.223517563402197 -33.886685926431966 14.7424199312438 #
point $-1 68.223517563402197 33.886685926431966 14.7424199312438 #
face $-1 $-1 $390 $58 $-1 $802 reversed single #
loop $-1 $-1 $592 $375 #
plane-surface $-1 0 272.89407025360879 0 0 -1 0 0 0 -1 forward_v I I I I #
coedge $-1 $803 $590 $593 $804 forward $376 $-1 #
coedge $-1 $596 $378 $379 $584 reversed $249 $-1 #
coedge $-1 $590 $803 $378 $582 reversed $376 $-1 #
edge $-1 $597 -136.44703512680439 $805 136.44703512680439 $581 $806 forward 7 unknown #
coedge $-1 $380 $379 $803 $807 forward $157 $-1 #
edge $-1 $588 -8.6164280982831674 $805 8.6164280982831674 $580 $808 forward 7 unknown #
coedge $-1 $593 $592 $380 $586 reversed $577 $-1 #
edge $-1 $809 -8.6164280982831674 $587 8.6164280982831674 $585 $810 forward 7 unknown #
vertex $-1 $382 $811 #
vertex $-1 $599 $812 #
straight-curve $-1 8.6164280982831674 0 -136.44703512680439 0 -1 0 I I #
coedge $-1 $579 $581 $383 $591 reversed $376 $-1 #
edge $-1 $594 -272.89407025360879 $597 272.89407025360879 $590 $813 forward 7 unknown #
coedge $-1 $585 $384 $389 $600 forward $577 $-1 #
coedge $-1 $384 $585 $579 $804 reversed $577 $-1 #
vertex $-1 $385 $814 #
straight-curve $-1 0 272.89407025360879 136.44703512680439 -1 0 0 I I #
coedge $-1 $386 $580 $388 $599 reversed $249 $-1 #
vertex $-1 $591 $815 #
straight-curve $-1 0 -272.89407025360879 136.44703512680439 1 0 0 I I #
edge $-1 $391 -136.44703512680439 $588 136.44703512680439 $388 $816 forward 7 unknown #
edge $-1 $392 -136.44703512680439 $587 136.44703512680439 $389 $817 forward 7 unknown #
point $-1 8.6164280982831674 -272.89407025360879 136.44703512680439 #
point $-1 8.6164280982831674 272.89407025360879 136.44703512680439 #
coedge $-1 $603 $603 $-1 $818 reversed $394 $-1 #
vertex $-1 $396 $819 #
ellipse-curve $-1 0 0 -0.25 0 0 -1 0.5 0 0 1 I I #
point $-1 0.5 0 -1.25 #
coedge $-1 $607 $607 $-1 $820 reversed $399 $-1 #
vertex $-1 $401 $821 #
ellipse-curve $-1 0 0 -0.25 0 0 -1 0.5 0 0 1 I I #
point $-1 0.5 0 -1.25 #
face $-1 $-1 $419 $61 $-1 $822 reversed single #
loop $-1 $-1 $627 $404 #
plane-surface $-1 0 272.89407025360879 0 0 -1 0 0 0 -1 forward_v I I I I #
coedge $-1 $823 $625 $628 $824 forward $405 $-1 #
coedge $-1 $631 $407 $408 $619 reversed $267 $-1 #
coedge $-1 $625 $823 $407 $617 reversed $405 $-1 #
edge $-1 $632 -136.44703512680439 $825 136.44703512680439 $616 $826 forward 7 unknown #
coedge $-1 $409 $408 $823 $827 forward $171 $-1 #
edge $-1 $623 -8.6164280982831674 $825 8.6164280982831674 $615 $828 forward 7 unknown #
coedge $-1 $628 $627 $409 $621 reversed $612 $-1 #
edge $-1 $829 -8.6164280982831674 $622 8.6164280982831674 $620 $830 forward 7 unknown #
vertex $-1 $411 $831 #
vertex $-1 $634 $832 #
straight-curve $-1 8.6164280982831674 0 -136.44703512680439 0 -1 0 I I #
coedge $-1 $614 $616 $412 $626 reversed $405 $-1 #
edge $-1 $629 -272.89407025360879 $632 272.89407025360879 $625 $833 forward 7 unknown #
coedge $-1 $620 $413 $418 $635 forward $612 $-1 #
coedge $-1 $413 $620 $614 $824 reversed $612 $-1 #
vertex $-1 $414 $834 #
straight-curve $-1 0 272.89407025360879 136.44703512680439 -1 0 0 I I #
coedge $-1 $415 $615 $417 $634 reversed $267 $-1 #
vertex $-1 $626 $835 #
straight-curve $-1 0 -272.89407025360879 136.44703512680439 1 0 0 I I #
edge $-1 $420 -136.44703512680439 $623 136.44703512680439 $417 $836 forward 7 unknown #
edge $-1 $421 -136.44703512680439 $622 136.44703512680439 $418 $837 forward 7 unknown #
point $-1 8.6164280982831674 -272.89407025360879 136.44703512680439 #
point $-1 8.6164280982831674 272.89407025360879 136.44703512680439 #
coedge $-1 $638 $638 $-1 $838 reversed $423 $-1 #
vertex $-1 $425 $839 #
ellipse-curve $-1 0 0 -0.25 0 0 -1 0.5 0 0 1 I I #
point $-1 0.5 0 -1.25 #
coedge $-1 $642 $642 $-1 $840 reversed $428 $-1 #
vertex $-1 $430 $841 #
ellipse-curve $-1 0 0 -0.25 0 0 -1 0.5 0 0 1 I I #
point $-1 0.5 0 -1.25 #
face $-1 $-1 $448 $64 $-1 $842 reversed single #
loop $-1 $-1 $662 $433 #
plane-surface $-1 0 272.89407025360879 0 0 -1 0 0 0 -1 forward_v I I I I #
coedge $-1 $843 $660 $663 $844 forward $434 $-1 #
coedge $-1 $666 $436 $437 $654 reversed $285 $-1 #
coedge $-1 $660 $843 $436 $652 reversed $434 $-1 #
edge $-1 $667 -136.44703512680439 $845 136.44703512680439 $651 $846 forward 7 unknown #
coedge $-1 $438 $437 $843 $847 forward $185 $-1 #
edge $-1 $658 -8.6164280982831674 $845 8.6164280982831674 $650 $848 forward 7 unknown #
coedge $-1 $663 $662 $438 $656 reversed $647 $-1 #
edge $-1 $849 -8.6164280982831674 $657 8.6164280982831674 $655 $850 forward 7 unknown #
vertex $-1 $440 $851 #
vertex $-1 $669 $852 #
straight-curve $-1 8.6164280982831674 0 -136.44703512680439 0 -1 0 I I #
coedge $-1 $649 $651 $441 $661 reversed $434 $-1 #
edge $-1 $664 -272.89407025360879 $667 272.89407025360879 $660 $853 forward 7 unknown #
coedge $-1 $655 $442 $447 $670 forward $647 $-1 #
coedge $-1 $442 $655 $649 $844 reversed $647 $-1 #
vertex $-1 $443 $854 #
straight-curve $-1 0 272.89407025360879 136.44703512680439 -1 0 0 I I #
coedge $-1 $444 $650 $446 $669 reversed $285 $-1 #
vertex $-1 $661 $855 #
straight-curve $-1 0 -272.89407025360879 136.44703512680439 1 0 0 I I #
edge $-1 $449 -136.44703512680439 $658 136.44703512680439 $446 $856 forward 7 unknown #
edge $-1 $450 -136.44703512680439 $657 136.44703512680439 $447 $857 forward 7 unknown #
point $-1 8.6164280982831674 -272.89407025360879 136.44703512680439 #
point $-1 8.6164280982831674 272.89407025360879 136.44703512680439 #
coedge $-1 $673 $673 $-1 $858 reversed $452 $-1 #
vertex $-1 $454 $859 #
ellipse-curve $-1 0 0 -0.25 0 0 -1 0.5 0 0 1 I I #
point $-1 0.5 0 -1.25 #
coedge $-1 $677 $677 $-1 $860 reversed $457 $-1 #
vertex $-1 $459 $861 #
ellipse-curve $-1 0 0 -0.25 0 0 -1 0.5 0 0 1 I I #
point $-1 0.5 0 -1.25 #
face $-1 $-1 $477 $67 $-1 $862 reversed single #
loop $-1 $-1 $697 $462 #
plane-surface $-1 0 272.89407025360879 0 0 -1 0 0 0 -1 forward_v I I I I #
coedge $-1 $863 $695 $698 $864 forward $463 $-1 #
coedge $-1 $701 $465 $466 $689 reversed $303 $-1 #
coedge $-1 $695 $863 $465 $687 reversed $463 $-1 #
edge $-1 $702 -136.44703512680439 $865 136.44703512680439 $686 $866 forward 7 unknown #
coedge $-1 $467 $466 $863 $867 forward $199 $-1 #
edge $-1 $693 -8.6164280982831674 $865 8.6164280982831674 $685 $868 forward 7 unknown #
coedge $-1 $698 $697 $467 $691 reversed $682 $-1 #
edge $-1 $869 -8.6164280982831674 $692 8.6164280982831674 $690 $870 forward 7 unknown #
vertex $-1 $469 $871 #
vertex $-1 $704 $872 #
straight-curve $-1 8.6164280982831674 0 -136.44703512680439 0 -1 0 I I #
coedge $-1 $684 $686 $470 $696 reversed $463 $-1 #
edge $-1 $699 -272.89407025360879 $702 272.89407025360879 $695 $873 forward 7 unknown #
coedge $-1 $690 $471 $476 $705 forward $682 $-1 #
coedge $-1 $471 $690 $684 $864 reversed $682 $-1 #
vertex $-1 $472 $874 #
straight-curve $-1 0 272.89407025360879 136.44703512680439 -1 0 0 I I #
coedge $-1 $473 $685 $475 $704 reversed $303 $-1 #
vertex $-1 $696 $875 #
straight-curve $-1 0 -272.89407025360879 136.44703512680439 1 0 0 I I #
edge $-1 $478 -136.44703512680439 $693 136.44703512680439 $475 $876 forward 7 unknown #
edge $-1 $479 -136.44703512680439 $692 136.44703512680439 $476 $877 forward 7 unknown #
point $-1 8.6164280982831674 -272.89407025360879 136.44703512680439 #
point $-1 8.6164280982831674 272.89407025360879 136.44703512680439 #
coedge $-1 $708 $708 $-1 $878 reversed $481 $-1 #
vertex $-1 $483 $879 #
ellipse-curve $-1 0 0 -0.25 0 0 -1 0.5 0 0 1 I I #
point $-1 0.5 0 -1.25 #
coedge $-1 $712 $712 $-1 $880 reversed $486 $-1 #
vertex $-1 $488 $881 #
ellipse-curve $-1 0 0 -0.25 0 0 -1 0.5 0 0 1 I I #
point $-1 0.5 0 -1.25 #
face $-1 $-1 $506 $70 $-1 $882 reversed single #
loop $-1 $-1 $732 $491 #
plane-surface $-1 0 272.89407025360879 0 0 -1 0 0 0 -1 forward_v I I I I #
coedge $-1 $883 $730 $733 $884 forward $492 $-1 #
coedge $-1 $736 $494 $495 $724 reversed $321 $-1 #
coedge $-1 $730 $883 $494 $722 reversed $492 $-1 #
edge $-1 $737 -136.44703512680439 $885 136.44703512680439 $721 $886 forward 7 unknown #
coedge $-1 $496 $495 $883 $887 forward $213 $-1 #
edge $-1 $728 -9.3442712377901813 $885 9.3442712377901813 $720 $888 forward 7 unknown #
coedge $-1 $733 $732 $496 $726 reversed $717 $-1 #
edge $-1 $889 -9.3442712377901813 $727 9.3442712377901813 $725 $890 forward 7 unknown #
vertex $-1 $498 $891 #
vertex $-1 $739 $892 #
straight-curve $-1 9.3442712377901813 0 -136.44703512680439 0 -1 0 I I #
coedge $-1 $719 $721 $499 $731 reversed $492 $-1 #
edge $-1 $734 -272.89407025360879 $737 272.89407025360879 $730 $893 forward 7 unknown #
coedge $-1 $725 $500 $505 $740 forward $717 $-1 #
coedge $-1 $500 $725 $719 $884 reversed $717 $-1 #
vertex $-1 $501 $894 #
straight-curve $-1 0 272.89407025360879 136.44703512680439 -1 0 0 I I #
coedge $-1 $502 $720 $504 $739 reversed $321 $-1 #
vertex $-1 $731 $895 #
straight-curve $-1 0 -272.89407025360879 136.44703512680439 1 0 0 I I #
edge $-1 $507 -136.44703512680439 $728 136.44703512680439 $504 $896 forward 7 unknown #
edge $-1 $508 -136.44703512680439 $727 136.44703512680439 $505 $897 forward 7 unknown #
point $-1 9.3442712377901813 -272.89407025360879 136.44703512680439 #
point $-1 9.3442712377901813 272.89407025360879 136.44703512680439 #
coedge $-1 $743 $743 $-1 $898 reversed $510 $-1 #
vertex $-1 $512 $899 #
ellipse-curve $-1 0 0 -1 0 0 -1 2 0 0 1 I I #
point $-1 2 0 -6.4540238654744089 #
coedge $-1 $747 $747 $-1 $900 reversed $515 $-1 #
vertex $-1 $517 $901 #
ellipse-curve $-1 0 0 -1 0 0 -1 2 0 0 1 I I #
point $-1 2 0 -6.4540238654744089 #
face $-1 $-1 $535 $73 $-1 $902 reversed single #
loop $-1 $-1 $767 $520 #
plane-surface $-1 0 272.89407025360879 0 0 -1 0 0 0 -1 forward_v I I I I #
coedge $-1 $903 $765 $768 $904 forward $521 $-1 #
coedge $-1 $771 $523 $524 $759 reversed $339 $-1 #
coedge $-1 $765 $903 $523 $757 reversed $521 $-1 #
edge $-1 $772 -136.44703512680439 $905 136.44703512680439 $756 $906 forward 7 unknown #
coedge $-1 $525 $524 $903 $907 forward $227 $-1 #
edge $-1 $763 -9.3442712377901813 $905 9.3442712377901813 $755 $908 forward 7 unknown #
coedge $-1 $768 $767 $525 $761 reversed $752 $-1 #
edge $-1 $909 -9.3442712377901813 $762 9.3442712377901813 $760 $910 forward 7 unknown #
vertex $-1 $527 $911 #
vertex $-1 $774 $912 #
straight-curve $-1 9.3442712377901813 0 -136.44703512680439 0 -1 0 I I #
coedge $-1 $754 $756 $528 $766 reversed $521 $-1 #
edge $-1 $769 -272.89407025360879 $772 272.89407025360879 $765 $913 forward 7 unknown #
coedge $-1 $760 $529 $534 $775 forward $752 $-1 #
coedge $-1 $529 $760 $754 $904 reversed $752 $-1 #
vertex $-1 $530 $914 #
straight-curve $-1 0 272.89407025360879 136.44703512680439 -1 0 0 I I #
coedge $-1 $531 $755 $533 $774 reversed $339 $-1 #
vertex $-1 $766 $915 #
straight-curve $-1 0 -272.89407025360879 136.44703512680439 1 0 0 I I #
edge $-1 $536 -136.44703512680439 $763 136.44703512680439 $533 $916 forward 7 unknown #
edge $-1 $537 -136.44703512680439 $762 136.44703512680439 $534 $917 forward 7 unknown #
point $-1 9.3442712377901813 -272.89407025360879 136.44703512680439 #
point $-1 9.3442712377901813 272.89407025360879 136.44703512680439 #
coedge $-1 $778 $778 $-1 $918 reversed $539 $-1 #
vertex $-1 $541 $919 #
ellipse-curve $-1 0 0 -1 0 0 -1 2 0 0 1 I I #
point $-1 2 0 -6.4540238654744089 #
coedge $-1 $782 $782 $-1 $920 reversed $544 $-1 #
vertex $-1 $546 $921 #
ellipse-curve $-1 0 0 -1 0 0 -1 2 0 0 1 I I #
point $-1 2 0 -6.4540238654744089 #
plane-surface $-1 68.223517563402197 0 0 -1 0 0 0 0 1 forward_v I I I I #
coedge $-1 $554 $552 $556 $791 reversed $357 $-1 #
edge $-1 $567 -14.7424199312438 $793 14.7424199312438 $566 $922 forward 7 unknown #
vertex $-1 $791 $923 #
straight-curve $-1 -68.223517563402197 -33.886685926431966 0 0 0 -1 I I #
edge $-1 $789 -33.886685926431966 $793 33.886685926431966 $787 $924 forward 7 unknown #
straight-curve $-1 0 -33.886685926431966 -14.7424199312438 -1 0 0 I I #
vertex $-1 $559 $925 #
straight-curve $-1 0 33.886685926431966 -14.7424199312438 1 0 0 I I #
point $-1 68.223517563402197 33.886685926431966 -14.7424199312438 #
point $-1 68.223517563402197 -33.886685926431966 -14.7424199312438 #
straight-curve $-1 -68.223517563402197 0 14.7424199312438 0 -1 0 I I #
point $-1 -68.223517563402197 33.886685926431966 14.7424199312438 #
point $-1 -68.223517563402197 -33.886685926431966 14.7424199312438 #
straight-curve $-1 68.223517563402197 -33.886685926431966 0 0 0 -1 I I #
straight-curve $-1 68.223517563402197 33.886685926431966 0 0 0 -1 I I #
plane-surface $-1 8.6164280982831674 0 0 -1 0 0 0 0 1 forward_v I I I I #
coedge $-1 $581 $579 $583 $807 reversed $376 $-1 #
edge $-1 $594 -136.44703512680439 $809 136.44703512680439 $593 $926 forward 7 unknown #
vertex $-1 $807 $927 #
straight-curve $-1 -8.6164280982831674 -272.89407025360879 0 0 0 -1 I I #
edge $-1 $805 -272.89407025360879 $809 272.89407025360879 $803 $928 forward 7 unknown #
straight-curve $-1 0 -272.89407025360879 -136.44703512680439 -1 0 0 I I #
vertex $-1 $586 $929 #
straight-curve $-1 0 272.89407025360879 -136.44703512680439 1 0 0 I I #
point $-1 8.6164280982831674 272.89407025360879 -136.44703512680439 #
point $-1 8.6164280982831674 -272.89407025360879 -136.44703512680439 #
straight-curve $-1 -8.6164280982831674 0 136.44703512680439 0 -1 0 I I #
point $-1 -8.6164280982831674 272.89407025360879 136.44703512680439 #
point $-1 -8.6164280982831674 -272.89407025360879 136.44703512680439 #
straight-curve $-1 8.6164280982831674 -272.89407025360879 0 0 0 -1 I I #
straight-curve $-1 8.6164280982831674 272.89407025360879 0 0 0 -1 I I #
edge $-1 $930 1 $930 0 $603 $-1 forward 7 unknown #
point $-1 0.5 0 -0.25 #
edge $-1 $931 1 $931 0 $607 $-1 forward 7 unknown #
point $-1 0.5 0 -0.25 #
plane-surface $-1 8.6164280982831674 0 0 -1 0 0 0 0 1 forward_v I I I I #
coedge $-1 $616 $614 $618 $827 reversed $405 $-1 #
edge $-1 $629 -136.44703512680439 $829 136.44703512680439 $628 $932 forward 7 unknown #
vertex $-1 $827 $933 #
straight-curve $-1 -8.6164280982831674 -272.89407025360879 0 0 0 -1 I I #
edge $-1 $825 -272.89407025360879 $829 272.89407025360879 $823 $934 forward 7 unknown #
straight-curve $-1 0 -272.89407025360879 -136.44703512680439 -1 0 0 I I #
vertex $-1 $621 $935 #
straight-curve $-1 0 272.89407025360879 -136.44703512680439 1 0 0 I I #
point $-1 8.6164280982831674 272.89407025360879 -136.44703512680439 #
point $-1 8.6164280982831674 -272.89407025360879 -136.44703512680439 #
straight-curve $-1 -8.6164280982831674 0 136.44703512680439 0 -1 0 I I #
point $-1 -8.6164280982831674 272.89407025360879 136.44703512680439 #
point $-1 -8.6164280982831674 -272.89407025360879 136.44703512680439 #
straight-curve $-1 8.6164280982831674 -272.89407025360879 0 0 0 -1 I I #
straight-curve $-1 8.6164280982831674 272.89407025360879 0 0 0 -1 I I #
edge $-1 $936 1 $936 0 $638 $-1 forward 7 unknown #
point $-1 0.5 0 -0.25 #
edge $-1 $937 1 $937 0 $642 $-1 forward 7 unknown #
point $-1 0.5 0 -0.25 #
plane-surface $-1 8.6164280982831674 0 0 -1 0 0 0 0 1 forward_v I I I I #
coedge $-1 $651 $649 $653 $847 reversed $434 $-1 #
edge $-1 $664 -136.44703512680439 $849 136.44703512680439 $663 $938 forward 7 unknown #
vertex $-1 $847 $939 #
straight-curve $-1 -8.6164280982831674 -272.89407025360879 0 0 0 -1 I I #
edge $-1 $845 -272.89407025360879 $849 272.89407025360879 $843 $940 forward 7 unknown #
straight-curve $-1 0 -272.89407025360879 -136.44703512680439 -1 0 0 I I #
vertex $-1 $656 $941 #
straight-curve $-1 0 272.89407025360879 -136.44703512680439 1 0 0 I I #
point $-1 8.6164280982831674 272.89407025360879 -136.44703512680439 #
point $-1 8.6164280982831674 -272.89407025360879 -136.44703512680439 #
straight-curve $-1 -8.6164280982831674 0 136.44703512680439 0 -1 0 I I #
point $-1 -8.6164280982831674 272.89407025360879 136.44703512680439 #
point $-1 -8.6164280982831674 -272.89407025360879 136.44703512680439 #
straight-curve $-1 8.6164280982831674 -272.89407025360879 0 0 0 -1 I I #
straight-curve $-1 8.6164280982831674 272.89407025360879 0 0 0 -1 I I #
edge $-1 $942 1 $942 0 $673 $-1 forward 7 unknown #
point $-1 0.5 0 -0.25 #
edge $-1 $943 1 $943 0 $677 $-1 forward 7 unknown #
point $-1 0.5 0 -0.25 #
plane-surface $-1 8.6164280982831674 0 0 -1 0 0 0 0 1 forward_v I I I I #
coedge $-1 $686 $684 $688 $867 reversed $463 $-1 #
edge $-1 $699 -136.44703512680439 $869 136.44703512680439 $698 $944 forward 7 unknown #
vertex $-1 $867 $945 #
straight-curve $-1 -8.6164280982831674 -272.89407025360879 0 0 0 -1 I I #
edge $-1 $865 -272.89407025360879 $869 272.89407025360879 $863 $946 forward 7 unknown #
straight-curve $-1 0 -272.89407025360879 -136.44703512680439 -1 0 0 I I #
vertex $-1 $691 $947 #
straight-curve $-1 0 272.89407025360879 -136.44703512680439 1 0 0 I I #
point $-1 8.6164280982831674 272.89407025360879 -136.44703512680439 #
point $-1 8.6164280982831674 -272.89407025360879 -136.44703512680439 #
straight-curve $-1 -8.6164280982831674 0 136.44703512680439 0 -1 0 I I #
point $-1 -8.6164280982831674 272.89407025360879 136.44703512680439 #
point $-1 -8.6164280982831674 -272.89407025360879 136.44703512680439 #
straight-curve $-1 8.6164280982831674 -272.89407025360879 0 0 0 -1 I I #
straight-curve $-1 8.6164280982831674 272.89407025360879 0 0 0 -1 I I #
edge $-1 $948 1 $948 0 $708 $-1 forward 7 unknown #
point $-1 0.5 0 -0.25 #
edge $-1 $949 1 $949 0 $712 $-1 forward 7 unknown #
point $-1 0.5 0 -0.25 #
plane-surface $-1 9.3442712377901813 0 0 -1 0 0 0 0 1 forward_v I I I I #
coedge $-1 $721 $719 $723 $887 reversed $492 $-1 #
edge $-1 $734 -136.44703512680439 $889 136.44703512680439 $733 $950 forward 7 unknown #
vertex $-1 $887 $951 #
straight-curve $-1 -9.3442712377901813 -272.89407025360879 0 0 0 -1 I I #
edge $-1 $885 -272.89407025360879 $889 272.89407025360879 $883 $952 forward 7 unknown #
straight-curve $-1 0 -272.89407025360879 -136.44703512680439 -1 0 0 I I #
vertex $-1 $726 $953 #
straight-curve $-1 0 272.89407025360879 -136.44703512680439 1 0 0 I I #
point $-1 9.3442712377901813 272.89407025360879 -136.44703512680439 #
point $-1 9.3442712377901813 -272.89407025360879 -136.44703512680439 #
straight-curve $-1 -9.3442712377901813 0 136.44703512680439 0 -1 0 I I #
point $-1 -9.3442712377901813 272.89407025360879 136.44703512680439 #
point $-1 -9.3442712377901813 -272.89407025360879 136.44703512680439 #
straight-curve $-1 9.3442712377901813 -272.89407025360879 0 0 0 -1 I I #
straight-curve $-1 9.3442712377901813 272.89407025360879 0 0 0 -1 I I #
edge $-1 $954 1 $954 0 $743 $-1 forward 7 unknown #
point $-1 2 0 -1 #
edge $-1 $955 1 $955 0 $747 $-1 forward 7 unknown #
point $-1 2 0 -1 #
plane-surface $-1 9.3442712377901813 0 0 -1 0 0 0 0 1 forward_v I I I I #
coedge $-1 $756 $754 $758 $907 reversed $521 $-1 #
edge $-1 $769 -136.44703512680439 $909 136.44703512680439 $768 $956 forward 7 unknown #
vertex $-1 $907 $957 #
straight-curve $-1 -9.3442712377901813 -272.89407025360879 0 0 0 -1 I I #
edge $-1 $905 -272.89407025360879 $909 272.89407025360879 $903 $958 forward 7 unknown #
straight-curve $-1 0 -272.89407025360879 -136.44703512680439 -1 0 0 I I #
vertex $-1 $761 $959 #
straight-curve $-1 0 272.89407025360879 -136.44703512680439 1 0 0 I I #
point $-1 9.3442712377901813 272.89407025360879 -136.44703512680439 #
point $-1 9.3442712377901813 -272.89407025360879 -136.44703512680439 #
straight-curve $-1 -9.3442712377901813 0 136.44703512680439 0 -1 0 I I #
point $-1 -9.3442712377901813 272.89407025360879 136.44703512680439 #
point $-1 -9.3442712377901813 -272.89407025360879 136.44703512680439 #
straight-curve $-1 9.3442712377901813 -272.89407025360879 0 0 0 -1 I I #
straight-curve $-1 9.3442712377901813 272.89407025360879 0 0 0 -1 I I #
edge $-1 $960 1 $960 0 $778 $-1 forward 7 unknown #
point $-1 2 0 -1 #
edge $-1 $961 1 $961 0 $782 $-1 forward 7 unknown #
point $-1 2 0 -1 #
straight-curve $-1 -68.223517563402197 33.886685926431966 0 0 0 -1 I I #
point $-1 -68.223517563402197 -33.886685926431966 -14.7424199312438 #
straight-curve $-1 -68.223517563402197 0 -14.7424199312438 0 1 0 I I #
point $-1 -68.223517563402197 33.886685926431966 -14.7424199312438 #
straight-curve $-1 -8.6164280982831674 272.89407025360879 0 0 0 -1 I I #
point $-1 -8.6164280982831674 -272.89407025360879 -136.44703512680439 #
straight-curve $-1 -8.6164280982831674 0 -136.44703512680439 0 1 0 I I #
point $-1 -8.6164280982831674 272.89407025360879 -136.44703512680439 #
vertex $-1 $818 $962 #
vertex $-1 $820 $963 #
straight-curve $-1 -8.6164280982831674 272.89407025360879 0 0 0 -1 I I #
point $-1 -8.6164280982831674 -272.89407025360879 -136.44703512680439 #
straight-curve $-1 -8.6164280982831674 0 -136.44703512680439 0 1 0 I I #
point $-1 -8.6164280982831674 272.89407025360879 -136.44703512680439 #
vertex $-1 $838 $964 #
vertex $-1 $840 $965 #
straight-curve $-1 -8.6164280982831674 272.89407025360879 0 0 0 -1 I I #
point $-1 -8.6164280982831674 -272.89407025360879 -136.44703512680439 #
straight-curve $-1 -8.6164280982831674 0 -136.44703512680439 0 1 0 I I #
point $-1 -8.6164280982831674 272.89407025360879 -136.44703512680439 #
vertex $-1 $858 $966 #
vertex $-1 $860 $967 #
straight-curve $-1 -8.6164280982831674 272.89407025360879 0 0 0 -1 I I #
point $-1 -8.6164280982831674 -272.89407025360879 -136.44703512680439 #
straight-curve $-1 -8.6164280982831674 0 -136.44703512680439 0 1 0 I I #
point $-1 -8.6164280982831674 272.89407025360879 -136.44703512680439 #
vertex $-1 $878 $968 #
vertex $-1 $880 $969 #
straight-curve $-1 -9.3442712377901813 272.89407025360879 0 0 0 -1 I I #
point $-1 -9.3442712377901813 -272.89407025360879 -136.44703512680439 #
straight-curve $-1 -9.3442712377901813 0 -136.44703512680439 0 1 0 I I #
point $-1 -9.3442712377901813 272.89407025360879 -136.44703512680439 #
vertex $-1 $898 $970 #
vertex $-1 $900 $971 #
straight-curve $-1 -9.3442712377901813 272.89407025360879 0 0 0 -1 I I #
point $-1 -9.3442712377901813 -272.89407025360879 -136.44703512680439 #
straight-curve $-1 -9.3442712377901813 0 -136.44703512680439 0 1 0 I I #
point $-1 -9.3442712377901813 272.89407025360879 -136.44703512680439 #
vertex $-1 $918 $972 #
vertex $-1 $920 $973 #
point $-1 0 0 0.25 #
point $-1 0 0 0.25 #
point $-1 0 0 0.25 #
point $-1 0 0 0.25 #
point $-1 0 0 0.25 #
point $-1 0 0 0.25 #
point $-1 0 0 0.25 #
point $-1 0 0 0.25 #
point $-1 0 0 1 #
point $-1 0 0 1 #
point $-1 0 0 1 #
point $-1 0 0 1 #
End-of-ACIS-data 