500 0 4 0           
7 Unknown 11 ACIS 5.0 NT 24 Fri Mar 26 00:27:28 1999 
-1 9.9999999999999995e-007 1e-010 
body $-1 $4 $-1 $5 #
body $-1 $6 $-1 $7 #
body $-1 $8 $-1 $9 #
body $-1 $10 $-1 $11 #
lump $-1 $-1 $12 $0 #
transform $-1 1 0 0 0 1 0 0 0 1 70.495315408795435 36.751924940758379 16.974169331216011 1 rotate no_reflect no_shear #
lump $-1 $-1 $13 $1 #
transform $-1 1 0 0 0 1 0 0 0 1 70.495315408795435 36.751924940758379 16.974169331216011 1 rotate no_reflect no_shear #
lump $-1 $-1 $14 $2 #
transform $-1 1 0 0 0 1 0 0 0 1 70.495315408795435 36.751924940758379 16.974169331216011 1 rotate no_reflect no_shear #
lump $-1 $-1 $15 $3 #
transform $-1 1 0 0 0 1 0 0 0 1 70.495315408795435 36.751924940758379 16.974169331216011 1 rotate no_reflect no_shear #
shell $-1 $-1 $-1 $16 $-1 $4 #
shell $-1 $-1 $-1 $17 $-1 $6 #
shell $-1 $-1 $-1 $18 $-1 $8 #
shell $-1 $-1 $-1 $19 $-1 $10 #
face $-1 $20 $21 $12 $-1 $22 forward single #
face $-1 $23 $24 $13 $-1 $25 forward single #
face $-1 $26 $27 $14 $-1 $28 reversed single #
face $-1 $29 $30 $15 $-1 $31 reversed single #
face $-1 $32 $33 $12 $-1 $34 reversed single #
loop $-1 $-1 $35 $16 #
plane-surface $-1 0 0 16.974169331216011 0 0 1 1 0 0 forward_v I I I I #
face $-1 $36 $37 $13 $-1 $38 forward single #
loop $-1 $-1 $39 $17 #
plane-surface $-1 108.54088835181078 10.890005339344139 200.23016889437753 0 -1 0 -0.82903758062907751 0 -0.55919289150049634 forward_v I I I I #
face $-1 $40 $41 $14 $-1 $42 reversed single #
loop $-1 $43 $44 $18 #
cone-surface $-1 63.584272708286768 0.55240984299149432 8.9138924137505917 -0.82903758062907751 0 -0.55919289150049634 1.1183857830009927 0 -1.658075161258155 1 I I 0 1 2 forward I I I I #
face $-1 $45 $46 $15 $-1 $47 reversed single #
loop $-1 $48 $49 $19 #
cone-surface $-1 63.584272708286768 6.7549671408030747 8.9138924137505917 -0.82903758062907751 0 -0.55919289150049634 1.1183857830009927 0 -1.658075161258155 1 I I 0 1 2 forward I I I I #
face $-1 $50 $51 $12 $-1 $52 reversed single #
loop $-1 $-1 $53 $20 #
plane-surface $-1 0 0 -16.974169331216011 0 0 1 1 0 0 forward_v I I I I #
coedge $-1 $54 $55 $56 $57 forward $21 $-1 #
face $-1 $58 $59 $13 $-1 $60 forward single #
loop $-1 $-1 $61 $23 #
plane-surface $-1 -8.3456431125722048 3.6536884918972916 121.3892103730099 0.82903758062907751 0 0.55919289150049634 0.55919289150049634 0 -0.82903758062907751 forward_v I I I I #
coedge $-1 $62 $63 $64 $65 reversed $24 $-1 #
face $-1 $66 $67 $14 $-1 $68 forward single #
loop $-1 $69 $70 $26 #
cone-surface $-1 60.050255550027273 0.55240984299149432 6.5301678160792207 -0.82903758062907751 0 -0.55919289150049634 0.55919289150049634 0 -0.82903758062907751 1 I I -0.70710678118654746 0.70710678118654746 1 forward I I I I #
loop $-1 $-1 $71 $18 #
coedge $-1 $44 $44 $72 $73 reversed $27 $-1 #
face $-1 $74 $75 $15 $-1 $76 reversed single #
loop $-1 $77 $78 $29 #
cone-surface $-1 60.050255550027273 6.7549671408030747 6.5301678160792207 -0.82903758062907751 0 -0.55919289150049634 0.55919289150049634 0 -0.82903758062907751 1 I I -0.70710678118654746 0.70710678118654746 1 forward I I I I #
loop $-1 $-1 $79 $19 #
coedge $-1 $49 $49 $80 $81 reversed $30 $-1 #
face $-1 $82 $83 $12 $-1 $84 reversed single #
loop $-1 $-1 $85 $32 #
plane-surface $-1 0 -36.751924940758379 0 0 1 0 0 0 1 forward_v I I I I #
coedge $-1 $86 $87 $88 $89 forward $33 $-1 #
coedge $-1 $90 $35 $91 $92 forward $21 $-1 #
coedge $-1 $35 $90 $93 $94 forward $21 $-1 #
coedge $-1 $95 $96 $35 $57 reversed $97 $-1 #
edge $-1 $98 -36.751924940758379 $99 36.751924940758379 $56 $100 forward 7 unknown #
face $-1 $101 $102 $13 $-1 $103 forward single #
loop $-1 $-1 $104 $36 #
plane-surface $-1 108.54088835181078 -3.5826283555495557 200.23016889437753 0 1 0 0.82903758062907751 0 0.55919289150049634 forward_v I I I I #
coedge $-1 $105 $106 $107 $108 reversed $37 $-1 #
coedge $-1 $63 $39 $106 $109 forward $24 $-1 #
coedge $-1 $39 $62 $110 $111 reversed $24 $-1 #
coedge $-1 $112 $107 $39 $65 forward $102 $-1 #
edge $-1 $113 7.8127449871335202 $114 16.224871232890045 $64 $115 forward 7 unknown #
face $-1 $116 $117 $14 $-1 $118 forward single #
loop $-1 $-1 $119 $40 #
plane-surface $-1 108.54088835181078 10.890005339344139 200.23016889437753 0 -1 0 -0.82903758062907751 0 -0.55919289150049634 forward_v I I I I #
loop $-1 $-1 $120 $26 #
coedge $-1 $70 $70 $71 $121 forward $41 $-1 #
coedge $-1 $71 $71 $70 $121 reversed $43 $-1 #
coedge $-1 $72 $72 $44 $73 forward $117 $-1 #
edge $-1 $122 0 $122 6.2831853071796004 $72 $123 forward 7 unknown #
face $-1 $124 $125 $15 $-1 $126 reversed single #
loop $-1 $127 $128 $45 #
cone-surface $-1 63.584272708286768 0.55240984299149432 8.9138924137505917 -0.82903758062907751 0 -0.55919289150049634 1.1183857830009927 0 -1.658075161258155 1 I I 0 1 2 forward I I I I #
loop $-1 $-1 $129 $29 #
coedge $-1 $78 $78 $79 $130 forward $46 $-1 #
coedge $-1 $79 $79 $78 $130 reversed $48 $-1 #
coedge $-1 $80 $80 $49 $81 forward $131 $-1 #
edge $-1 $132 0 $132 6.2831853071796004 $80 $133 forward 7 unknown #
face $-1 $134 $135 $12 $-1 $136 reversed single #
loop $-1 $-1 $137 $50 #
plane-surface $-1 -70.495315408795435 0 0 1 0 0 0 0 -1 forward_v I I I I #
coedge $-1 $138 $93 $139 $140 forward $51 $-1 #
coedge $-1 $141 $53 $138 $142 forward $33 $-1 #
coedge $-1 $53 $141 $143 $144 forward $33 $-1 #
coedge $-1 $96 $95 $53 $89 reversed $97 $-1 #
edge $-1 $145 -36.751924940758379 $146 36.751924940758379 $88 $147 forward 7 unknown #
coedge $-1 $55 $54 $148 $149 forward $21 $-1 #
coedge $-1 $150 $151 $54 $92 reversed $135 $-1 #
edge $-1 $99 -70.495315408795435 $152 70.495315408795435 $91 $153 forward 7 unknown #
coedge $-1 $85 $154 $55 $94 reversed $51 $-1 #
edge $-1 $155 -70.495315408795435 $98 70.495315408795435 $93 $156 forward 7 unknown #
coedge $-1 $88 $56 $154 $157 forward $97 $-1 #
coedge $-1 $56 $88 $150 $158 reversed $97 $-1 #
loop $-1 $-1 $95 $134 #
vertex $-1 $57 $159 #
vertex $-1 $57 $160 #
straight-curve $-1 70.495315408795435 0 16.974169331216011 0 1 0 I I #
face $-1 $161 $162 $13 $-1 $163 reversed single #
loop $-1 $-1 $164 $58 #
plane-surface $-1 0 0 16.974169331216011 0 0 1 1 0 0 forward_v I I I I #
coedge $-1 $165 $166 $164 $167 reversed $59 $-1 #
coedge $-1 $168 $61 $166 $169 reversed $37 $-1 #
coedge $-1 $61 $168 $62 $109 reversed $37 $-1 #
coedge $-1 $64 $164 $61 $108 forward $102 $-1 #
edge $-1 $170 -5.4094726014982015 $113 9.0631610933954931 $107 $171 forward 7 unknown #
edge $-1 $113 125.9472953717771 $172 140.9906308175909 $62 $173 forward 7 unknown #
coedge $-1 $174 $175 $63 $111 forward $176 $-1 #
edge $-1 $114 83.140915115972746 $172 95.612405538561873 $110 $177 forward 7 unknown #
coedge $-1 $178 $64 $175 $179 forward $102 $-1 #
vertex $-1 $108 $180 #
vertex $-1 $179 $181 #
straight-curve $-1 54.270444175905389 10.890005339344139 16.974169331216004 1 0 0 I I #
face $-1 $182 $183 $14 $-1 $184 forward single #
loop $-1 $185 $72 $66 #
plane-surface $-1 -8.3456431125722048 3.6536884918972916 121.3892103730099 0.82903758062907751 0 0.55919289150049634 0.55919289150049634 0 -0.82903758062907751 forward_v I I I I #
coedge $-1 $186 $187 $188 $189 reversed $67 $-1 #
coedge $-1 $120 $120 $-1 $190 forward $69 $-1 #
edge $-1 $191 0 $191 6.2831853071796004 $70 $192 forward 7 unknown #
vertex $-1 $73 $193 #
ellipse-curve $-1 66.289252285917172 0.55240984299149432 10.738424119921454 -0.82903758062907751 0 -0.55919289150049634 1.1183857830009927 0 -1.658075161258155 1 I I #
face $-1 $194 $195 $15 $-1 $196 forward single #
loop $-1 $197 $198 $74 #
cone-surface $-1 60.050255550027273 0.55240984299149432 6.5301678160792207 -0.82903758062907751 0 -0.55919289150049634 0.55919289150049634 0 -0.82903758062907751 1 I I -0.70710678118654746 0.70710678118654746 1 forward I I I I #
loop $-1 $-1 $199 $45 #
coedge $-1 $128 $128 $200 $201 reversed $75 $-1 #
coedge $-1 $129 $129 $-1 $202 forward $77 $-1 #
edge $-1 $203 0 $203 6.2831853071796004 $78 $204 forward 7 unknown #
loop $-1 $205 $80 $194 #
vertex $-1 $81 $206 #
ellipse-curve $-1 66.289252285917172 6.7549671408030747 10.738424119921454 -0.82903758062907751 0 -0.55919289150049634 1.1183857830009927 0 -1.658075161258155 1 I I #
face $-1 $-1 $97 $12 $-1 $207 reversed single #
loop $-1 $-1 $150 $82 #
plane-surface $-1 0 36.751924940758379 0 0 -1 0 0 0 -1 forward_v I I I I #
coedge $-1 $208 $148 $151 $209 forward $83 $-1 #
coedge $-1 $154 $85 $86 $142 reversed $51 $-1 #
coedge $-1 $148 $208 $85 $140 reversed $83 $-1 #
edge $-1 $155 -16.974169331216011 $210 16.974169331216011 $139 $211 forward 7 unknown #
coedge $-1 $87 $86 $208 $212 forward $33 $-1 #
edge $-1 $146 -70.495315408795435 $210 70.495315408795435 $138 $213 forward 7 unknown #
coedge $-1 $151 $150 $87 $144 reversed $135 $-1 #
edge $-1 $214 -70.495315408795435 $145 70.495315408795435 $143 $215 forward 7 unknown #
vertex $-1 $89 $216 #
vertex $-1 $157 $217 #
straight-curve $-1 70.495315408795435 0 -16.974169331216011 0 -1 0 I I #
coedge $-1 $137 $139 $90 $149 reversed $83 $-1 #
edge $-1 $152 -36.751924940758379 $155 36.751924940758379 $148 $218 forward 7 unknown #
coedge $-1 $143 $91 $96 $158 forward $135 $-1 #
coedge $-1 $91 $143 $137 $209 reversed $135 $-1 #
vertex $-1 $92 $219 #
straight-curve $-1 0 36.751924940758379 16.974169331216011 -1 0 0 I I #
coedge $-1 $93 $138 $95 $157 reversed $51 $-1 #
vertex $-1 $149 $220 #
straight-curve $-1 0 -36.751924940758379 16.974169331216011 1 0 0 I I #
edge $-1 $98 -16.974169331216011 $146 16.974169331216011 $95 $221 forward 7 unknown #
edge $-1 $99 -16.974169331216011 $145 16.974169331216011 $96 $222 forward 7 unknown #
point $-1 70.495315408795435 -36.751924940758379 16.974169331216011 #
point $-1 70.495315408795435 36.751924940758379 16.974169331216011 #
face $-1 $223 $224 $13 $-1 $225 reversed single #
loop $-1 $-1 $226 $101 #
plane-surface $-1 0 0 -16.974169331216011 0 0 1 1 0 0 forward_v I I I I #
coedge $-1 $107 $227 $104 $167 forward $102 $-1 #
coedge $-1 $166 $104 $228 $229 reversed $59 $-1 #
coedge $-1 $104 $165 $105 $169 forward $59 $-1 #
edge $-1 $230 -16.224871232890045 $170 -7.8127449871335202 $164 $231 forward 7 unknown #
coedge $-1 $106 $105 $174 $232 reversed $37 $-1 #
edge $-1 $233 -140.9906308175909 $170 -125.9472953717771 $166 $234 forward 7 unknown #
vertex $-1 $108 $235 #
straight-curve $-1 62.083189163038909 1.8268442459486458 16.974169331216004 0 1 0 I I #
vertex $-1 $232 $236 #
straight-curve $-1 -8.3456431125722048 10.890005339344139 121.3892103730099 0.55919289150049634 0 -0.82903758062907751 I I #
coedge $-1 $228 $110 $168 $232 forward $176 $-1 #
coedge $-1 $110 $237 $112 $179 reversed $176 $-1 #
loop $-1 $-1 $228 $238 #
straight-curve $-1 70.495315408795435 10.890005339344139 100.11508444718876 0 0 -1 I I #
coedge $-1 $239 $112 $240 $241 forward $102 $-1 #
edge $-1 $114 10.890005339344139 $242 36.751924940758379 $175 $243 forward 7 unknown #
point $-1 62.083189163038909 10.890005339344139 16.974169331216004 #
point $-1 70.495315408795435 10.890005339344139 16.974169331216011 #
face $-1 $244 $245 $14 $-1 $246 forward single #
loop $-1 $-1 $247 $116 #
plane-surface $-1 108.54088835181078 -3.5826283555495557 200.23016889437753 0 1 0 0.82903758062907751 0 0.55919289150049634 forward_v I I I I #
loop $-1 $-1 $248 $66 #
coedge $-1 $187 $119 $249 $250 forward $67 $-1 #
coedge $-1 $119 $186 $251 $252 reversed $67 $-1 #
coedge $-1 $253 $254 $119 $189 forward $245 $-1 #
edge $-1 $255 7.8127449871335202 $256 16.224871232890045 $188 $257 forward 7 unknown #
edge $-1 $258 1 $258 0 $120 $-1 forward 7 unknown #
vertex $-1 $121 $259 #
ellipse-curve $-1 60.87929313065635 0.55240984299149432 7.0893607075797167 0.82903758062907751 0 0.55919289150049634 1.1183857830009927 0 -1.658075161258155 1 I I #
point $-1 67.407638068918175 0.55240984299149432 9.0803489586633113 #
face $-1 $260 $131 $15 $-1 $261 forward single #
loop $-1 $-1 $262 $124 #
plane-surface $-1 108.54088835181078 10.890005339344139 200.23016889437753 0 -1 0 -0.82903758062907751 0 -0.55919289150049634 forward_v I I I I #
loop $-1 $-1 $263 $74 #
coedge $-1 $198 $198 $199 $264 forward $125 $-1 #
coedge $-1 $199 $199 $198 $264 reversed $127 $-1 #
coedge $-1 $200 $200 $128 $201 forward $205 $-1 #
edge $-1 $265 0 $265 6.2831853071796004 $200 $266 forward 7 unknown #
edge $-1 $267 1 $267 0 $129 $-1 forward 7 unknown #
vertex $-1 $130 $268 #
ellipse-curve $-1 60.87929313065635 6.7549671408030747 7.0893607075797167 0.82903758062907751 0 0.55919289150049634 1.1183857830009927 0 -1.658075161258155 1 I I #
loop $-1 $269 $200 $194 #
point $-1 67.407638068918175 6.7549671408030747 9.0803489586633113 #
plane-surface $-1 70.495315408795435 0 0 -1 0 0 0 0 1 forward_v I I I I #
coedge $-1 $139 $137 $141 $212 reversed $83 $-1 #
edge $-1 $152 -16.974169331216011 $214 16.974169331216011 $151 $270 forward 7 unknown #
vertex $-1 $212 $271 #
straight-curve $-1 -70.495315408795435 -36.751924940758379 0 0 0 -1 I I #
edge $-1 $210 -36.751924940758379 $214 36.751924940758379 $208 $272 forward 7 unknown #
straight-curve $-1 0 -36.751924940758379 -16.974169331216011 -1 0 0 I I #
vertex $-1 $144 $273 #
straight-curve $-1 0 36.751924940758379 -16.974169331216011 1 0 0 I I #
point $-1 70.495315408795435 36.751924940758379 -16.974169331216011 #
point $-1 70.495315408795435 -36.751924940758379 -16.974169331216011 #
straight-curve $-1 -70.495315408795435 0 16.974169331216011 0 -1 0 I I #
point $-1 -70.495315408795435 36.751924940758379 16.974169331216011 #
point $-1 -70.495315408795435 -36.751924940758379 16.974169331216011 #
straight-curve $-1 70.495315408795435 -36.751924940758379 0 0 0 -1 I I #
straight-curve $-1 70.495315408795435 36.751924940758379 0 0 0 -1 I I #
face $-1 $274 $275 $13 $-1 $276 reversed single #
loop $-1 $-1 $277 $161 #
plane-surface $-1 0 -36.751924940758379 0 0 1 0 0 0 1 forward_v I I I I #
coedge $-1 $278 $279 $280 $281 forward $162 $-1 #
coedge $-1 $164 $282 $283 $284 forward $102 $-1 #
coedge $-1 $283 $174 $165 $229 forward $176 $-1 #
edge $-1 $233 -95.612405538561873 $230 -83.140915115972746 $228 $285 forward 7 unknown #
vertex $-1 $229 $286 #
straight-curve $-1 54.270444175905389 -3.5826283555495557 16.974169331216004 -1 0 0 I I #
edge $-1 $172 -9.0631610933954931 $233 5.4094726014982015 $174 $287 forward 7 unknown #
vertex $-1 $232 $288 #
straight-curve $-1 -8.3456431125722048 -3.5826283555495557 121.3892103730099 -0.55919289150049634 0 0.82903758062907751 I I #
point $-1 62.083189163038909 -3.5826283555495557 16.974169331216004 #
point $-1 70.495315408795435 10.890005339344139 4.5026789086268906 #
coedge $-1 $175 $280 $289 $290 reversed $176 $-1 #
face $-1 $-1 $176 $13 $-1 $291 reversed single #
coedge $-1 $282 $178 $292 $293 forward $102 $-1 #
coedge $-1 $289 $294 $178 $241 reversed $295 $-1 #
edge $-1 $242 -70.495315408795435 $296 70.495315408795435 $240 $297 forward 7 unknown #
vertex $-1 $179 $298 #
straight-curve $-1 70.495315408795435 0 16.974169331216011 0 1 0 I I #
face $-1 $299 $300 $14 $-1 $301 reversed single #
loop $-1 $-1 $302 $182 #
plane-surface $-1 0 0 16.974169331216011 0 0 1 1 0 0 forward_v I I I I #
coedge $-1 $303 $304 $302 $305 reversed $183 $-1 #
coedge $-1 $306 $249 $254 $307 reversed $185 $-1 #
coedge $-1 $248 $308 $186 $250 reversed $185 $-1 #
edge $-1 $255 125.9472953717771 $309 140.9906308175909 $186 $310 forward 7 unknown #
coedge $-1 $311 $312 $187 $252 forward $313 $-1 #
edge $-1 $256 83.140915115972746 $309 95.612405538561873 $251 $314 forward 7 unknown #
coedge $-1 $315 $188 $312 $316 forward $245 $-1 #
coedge $-1 $188 $302 $248 $307 forward $245 $-1 #
vertex $-1 $307 $317 #
vertex $-1 $316 $318 #
straight-curve $-1 54.270444175905389 10.890005339344139 16.974169331216004 1 0 0 I I #
vertex $-1 $190 $319 #
point $-1 61.997678913657346 0.55240984299149432 5.4312855463215621 #
face $-1 $320 $321 $15 $-1 $322 forward single #
plane-surface $-1 -8.3456431125722048 3.6536884918972916 121.3892103730099 0.82903758062907751 0 0.55919289150049634 0.55919289150049634 0 -0.82903758062907751 forward_v I I I I #
coedge $-1 $323 $324 $325 $326 reversed $195 $-1 #
coedge $-1 $263 $263 $-1 $327 forward $197 $-1 #
edge $-1 $328 0 $328 6.2831853071796004 $198 $329 forward 7 unknown #
vertex $-1 $201 $330 #
ellipse-curve $-1 66.289252285917172 0.55240984299149432 10.738424119921454 -0.82903758062907751 0 -0.55919289150049634 1.1183857830009927 0 -1.658075161258155 1 I I #
vertex $-1 $202 $331 #
point $-1 61.997678913657346 6.7549671408030747 5.4312855463215621 #
loop $-1 $-1 $332 $194 #
straight-curve $-1 -70.495315408795435 36.751924940758379 0 0 0 -1 I I #
point $-1 -70.495315408795435 -36.751924940758379 -16.974169331216011 #
straight-curve $-1 -70.495315408795435 0 -16.974169331216011 0 1 0 I I #
point $-1 -70.495315408795435 36.751924940758379 -16.974169331216011 #
face $-1 $238 $295 $13 $-1 $333 reversed single #
loop $-1 $-1 $334 $223 #
plane-surface $-1 -70.495315408795435 0 0 1 0 0 0 0 -1 forward_v I I I I #
coedge $-1 $335 $336 $337 $338 forward $224 $-1 #
coedge $-1 $339 $226 $335 $340 forward $162 $-1 #
coedge $-1 $226 $339 $341 $342 forward $162 $-1 #
coedge $-1 $237 $343 $226 $281 reversed $176 $-1 #
edge $-1 $344 -36.751924940758379 $345 36.751924940758379 $280 $346 forward 7 unknown #
coedge $-1 $227 $239 $336 $347 forward $102 $-1 #
coedge $-1 $343 $228 $227 $284 reversed $176 $-1 #
edge $-1 $348 -36.751924940758379 $230 -3.5826283555495557 $283 $243 forward 7 unknown #
straight-curve $-1 70.495315408795435 -3.5826283555495557 100.11508444718876 0 0 1 I I #
point $-1 70.495315408795435 -3.5826283555495557 16.974169331216011 #
straight-curve $-1 70.495315408795435 1.8268442459486458 4.5026789086268906 0 -1 0 I I #
point $-1 70.495315408795435 -3.5826283555495557 4.5026789086268906 #
coedge $-1 $341 $240 $237 $290 forward $295 $-1 #
edge $-1 $242 -16.974169331216011 $344 16.974169331216011 $237 $349 forward 7 unknown #
plane-surface $-1 70.495315408795435 0 0 -1 0 0 0 0 1 forward_v I I I I #
coedge $-1 $334 $337 $239 $293 reversed $275 $-1 #
edge $-1 $296 -36.751924940758379 $350 36.751924940758379 $292 $351 forward 7 unknown #
coedge $-1 $240 $341 $334 $352 reversed $295 $-1 #
loop $-1 $-1 $289 $274 #
vertex $-1 $241 $353 #
straight-curve $-1 0 36.751924940758379 16.974169331216011 -1 0 0 I I #
point $-1 70.495315408795435 36.751924940758379 16.974169331216011 #
face $-1 $354 $355 $14 $-1 $356 reversed single #
loop $-1 $-1 $357 $244 #
plane-surface $-1 0 0 -16.974169331216011 0 0 1 1 0 0 forward_v I I I I #
coedge $-1 $254 $358 $247 $305 forward $245 $-1 #
coedge $-1 $304 $247 $359 $360 reversed $183 $-1 #
coedge $-1 $247 $303 $306 $361 forward $183 $-1 #
edge $-1 $362 -16.224871232890045 $363 -7.8127449871335202 $302 $364 forward 7 unknown #
coedge $-1 $308 $248 $304 $361 reversed $185 $-1 #
edge $-1 $363 -5.4094726014982015 $255 9.0631610933954931 $254 $365 forward 7 unknown #
coedge $-1 $249 $306 $311 $366 reversed $185 $-1 #
vertex $-1 $366 $367 #
straight-curve $-1 -8.3456431125722048 10.890005339344139 121.3892103730099 0.55919289150049634 0 -0.82903758062907751 I I #
coedge $-1 $359 $251 $308 $366 forward $313 $-1 #
coedge $-1 $251 $368 $253 $316 reversed $313 $-1 #
loop $-1 $-1 $359 $369 #
straight-curve $-1 70.495315408795435 10.890005339344139 100.11508444718876 0 0 -1 I I #
coedge $-1 $370 $253 $371 $372 forward $245 $-1 #
edge $-1 $256 10.890005339344139 $373 36.751924940758379 $312 $374 forward 7 unknown #
point $-1 62.083189163038909 10.890005339344139 16.974169331216004 #
point $-1 70.495315408795435 10.890005339344139 16.974169331216011 #
point $-1 59.221217969398197 0.55240984299149432 5.9709749245787247 #
face $-1 $375 $376 $15 $-1 $377 forward single #
loop $-1 $-1 $378 $260 #
plane-surface $-1 108.54088835181078 -3.5826283555495557 200.23016889437753 0 1 0 0.82903758062907751 0 0.55919289150049634 forward_v I I I I #
coedge $-1 $324 $262 $379 $380 forward $195 $-1 #
coedge $-1 $262 $323 $381 $382 reversed $195 $-1 #
coedge $-1 $383 $384 $262 $326 forward $376 $-1 #
edge $-1 $385 7.8127449871335202 $386 16.224871232890045 $325 $387 forward 7 unknown #
edge $-1 $388 1 $388 0 $263 $-1 forward 7 unknown #
vertex $-1 $264 $389 #
ellipse-curve $-1 60.87929313065635 0.55240984299149432 7.0893607075797167 0.82903758062907751 0 0.55919289150049634 1.1183857830009927 0 -1.658075161258155 1 I I #
point $-1 67.407638068918175 0.55240984299149432 9.0803489586633113 #
point $-1 59.221217969398197 6.7549671408030747 5.9709749245787247 #
coedge $-1 $390 $379 $384 $391 reversed $269 $-1 #
plane-surface $-1 0 36.751924940758379 0 0 -1 0 0 0 -1 forward_v I I I I #
coedge $-1 $392 $292 $294 $352 forward $275 $-1 #
coedge $-1 $393 $277 $278 $340 reversed $224 $-1 #
coedge $-1 $277 $393 $282 $347 reversed $224 $-1 #
coedge $-1 $292 $392 $277 $338 reversed $275 $-1 #
edge $-1 $350 -16.974169331216011 $394 16.974169331216011 $337 $395 forward 7 unknown #
coedge $-1 $279 $278 $392 $396 forward $162 $-1 #
edge $-1 $345 -70.495315408795435 $394 70.495315408795435 $335 $397 forward 7 unknown #
coedge $-1 $294 $289 $279 $342 reversed $295 $-1 #
edge $-1 $398 -70.495315408795435 $344 70.495315408795435 $341 $399 forward 7 unknown #
coedge $-1 $280 $283 $393 $400 forward $176 $-1 #
vertex $-1 $281 $401 #
vertex $-1 $400 $402 #
straight-curve $-1 70.495315408795435 0 -16.974169331216011 0 -1 0 I I #
edge $-1 $350 -70.495315408795435 $348 70.495315408795435 $336 $403 forward 7 unknown #
vertex $-1 $284 $404 #
straight-curve $-1 70.495315408795435 36.751924940758379 0 0 0 -1 I I #
vertex $-1 $293 $405 #
straight-curve $-1 -70.495315408795435 0 16.974169331216011 0 -1 0 I I #
edge $-1 $296 -16.974169331216011 $398 16.974169331216011 $294 $406 forward 7 unknown #
point $-1 -70.495315408795435 36.751924940758379 16.974169331216011 #
face $-1 $407 $408 $14 $-1 $409 reversed single #
loop $-1 $-1 $410 $299 #
plane-surface $-1 0 -36.751924940758379 0 0 1 0 0 0 1 forward_v I I I I #
coedge $-1 $411 $412 $413 $414 forward $300 $-1 #
coedge $-1 $302 $415 $416 $417 forward $245 $-1 #
coedge $-1 $416 $311 $303 $360 forward $313 $-1 #
edge $-1 $418 -95.612405538561873 $362 -83.140915115972746 $359 $419 forward 7 unknown #
edge $-1 $418 -140.9906308175909 $363 -125.9472953717771 $304 $420 forward 7 unknown #
vertex $-1 $360 $421 #
vertex $-1 $307 $422 #
straight-curve $-1 54.270444175905389 -3.5826283555495557 16.974169331216004 -1 0 0 I I #
straight-curve $-1 62.083189163038909 1.8268442459486458 16.974169331216004 0 1 0 I I #
edge $-1 $309 -9.0631610933954931 $418 5.4094726014982015 $311 $423 forward 7 unknown #
point $-1 70.495315408795435 10.890005339344139 4.5026789086268906 #
coedge $-1 $312 $413 $424 $425 reversed $313 $-1 #
face $-1 $-1 $313 $14 $-1 $426 reversed single #
coedge $-1 $415 $315 $427 $428 forward $245 $-1 #
coedge $-1 $424 $429 $315 $372 reversed $430 $-1 #
edge $-1 $373 -70.495315408795435 $431 70.495315408795435 $371 $432 forward 7 unknown #
vertex $-1 $316 $433 #
straight-curve $-1 70.495315408795435 0 16.974169331216011 0 1 0 I I #
face $-1 $434 $435 $15 $-1 $436 reversed single #
loop $-1 $-1 $437 $320 #
plane-surface $-1 0 0 16.974169331216011 0 0 1 1 0 0 forward_v I I I I #
coedge $-1 $438 $439 $437 $440 reversed $321 $-1 #
coedge $-1 $332 $441 $323 $380 reversed $269 $-1 #
edge $-1 $385 125.9472953717771 $442 140.9906308175909 $323 $443 forward 7 unknown #
coedge $-1 $444 $445 $324 $382 forward $446 $-1 #
edge $-1 $386 83.140915115972746 $442 95.612405538561873 $381 $447 forward 7 unknown #
coedge $-1 $448 $325 $445 $449 forward $376 $-1 #
coedge $-1 $325 $437 $332 $391 forward $376 $-1 #
vertex $-1 $391 $450 #
vertex $-1 $449 $451 #
straight-curve $-1 54.270444175905389 10.890005339344139 16.974169331216004 1 0 0 I I #
vertex $-1 $327 $452 #
point $-1 61.997678913657346 0.55240984299149432 5.4312855463215621 #
coedge $-1 $441 $332 $439 $453 reversed $269 $-1 #
edge $-1 $454 -5.4094726014982015 $385 9.0631610933954931 $384 $455 forward 7 unknown #
coedge $-1 $337 $334 $339 $396 reversed $275 $-1 #
coedge $-1 $336 $335 $343 $400 reversed $224 $-1 #
vertex $-1 $396 $456 #
straight-curve $-1 -70.495315408795435 -36.751924940758379 0 0 0 -1 I I #
edge $-1 $394 -36.751924940758379 $398 36.751924940758379 $392 $457 forward 7 unknown #
straight-curve $-1 0 -36.751924940758379 -16.974169331216011 -1 0 0 I I #
vertex $-1 $342 $458 #
straight-curve $-1 0 36.751924940758379 -16.974169331216011 1 0 0 I I #
edge $-1 $348 -16.974169331216011 $345 16.974169331216011 $343 $459 forward 7 unknown #
point $-1 70.495315408795435 36.751924940758379 -16.974169331216011 #
point $-1 70.495315408795435 -36.751924940758379 -16.974169331216011 #
straight-curve $-1 0 -36.751924940758379 16.974169331216011 1 0 0 I I #
point $-1 70.495315408795435 -36.751924940758379 16.974169331216011 #
point $-1 -70.495315408795435 -36.751924940758379 16.974169331216011 #
straight-curve $-1 -70.495315408795435 36.751924940758379 0 0 0 -1 I I #
face $-1 $369 $430 $14 $-1 $460 reversed single #
loop $-1 $-1 $461 $354 #
plane-surface $-1 -70.495315408795435 0 0 1 0 0 0 0 -1 forward_v I I I I #
coedge $-1 $462 $463 $464 $465 forward $355 $-1 #
coedge $-1 $466 $357 $462 $467 forward $300 $-1 #
coedge $-1 $357 $466 $468 $469 forward $300 $-1 #
coedge $-1 $368 $470 $357 $414 reversed $313 $-1 #
edge $-1 $471 -36.751924940758379 $472 36.751924940758379 $413 $473 forward 7 unknown #
coedge $-1 $358 $370 $463 $474 forward $245 $-1 #
coedge $-1 $470 $359 $358 $417 reversed $313 $-1 #
edge $-1 $475 -36.751924940758379 $362 -3.5826283555495557 $416 $374 forward 7 unknown #
vertex $-1 $366 $476 #
straight-curve $-1 70.495315408795435 -3.5826283555495557 100.11508444718876 0 0 1 I I #
straight-curve $-1 -8.3456431125722048 -3.5826283555495557 121.3892103730099 -0.55919289150049634 0 0.82903758062907751 I I #
point $-1 70.495315408795435 -3.5826283555495557 16.974169331216011 #
point $-1 62.083189163038909 -3.5826283555495557 16.974169331216004 #
straight-curve $-1 70.495315408795435 1.8268442459486458 4.5026789086268906 0 -1 0 I I #
coedge $-1 $468 $371 $368 $425 forward $430 $-1 #
edge $-1 $373 -16.974169331216011 $471 16.974169331216011 $368 $477 forward 7 unknown #
plane-surface $-1 70.495315408795435 0 0 -1 0 0 0 0 1 forward_v I I I I #
coedge $-1 $461 $464 $370 $428 reversed $408 $-1 #
edge $-1 $431 -36.751924940758379 $478 36.751924940758379 $427 $479 forward 7 unknown #
coedge $-1 $371 $468 $461 $480 reversed $430 $-1 #
loop $-1 $-1 $424 $407 #
vertex $-1 $372 $481 #
straight-curve $-1 0 36.751924940758379 16.974169331216011 -1 0 0 I I #
point $-1 70.495315408795435 36.751924940758379 16.974169331216011 #
face $-1 $482 $483 $15 $-1 $484 reversed single #
loop $-1 $-1 $485 $375 #
plane-surface $-1 0 0 -16.974169331216011 0 0 1 1 0 0 forward_v I I I I #
coedge $-1 $384 $486 $378 $440 forward $376 $-1 #
coedge $-1 $439 $378 $487 $488 reversed $321 $-1 #
coedge $-1 $378 $438 $390 $453 forward $321 $-1 #
edge $-1 $489 -16.224871232890045 $454 -7.8127449871335202 $437 $490 forward 7 unknown #
coedge $-1 $379 $390 $444 $491 reversed $269 $-1 #
vertex $-1 $491 $492 #
straight-curve $-1 -8.3456431125722048 10.890005339344139 121.3892103730099 0.55919289150049634 0 -0.82903758062907751 I I #
coedge $-1 $487 $381 $441 $491 forward $446 $-1 #
coedge $-1 $381 $493 $383 $449 reversed $446 $-1 #
loop $-1 $-1 $487 $494 #
straight-curve $-1 70.495315408795435 10.890005339344139 100.11508444718876 0 0 -1 I I #
coedge $-1 $495 $383 $496 $497 forward $376 $-1 #
edge $-1 $386 10.890005339344139 $498 36.751924940758379 $445 $499 forward 7 unknown #
point $-1 62.083189163038909 10.890005339344139 16.974169331216004 #
point $-1 70.495315408795435 10.890005339344139 16.974169331216011 #
point $-1 59.221217969398197 0.55240984299149432 5.9709749245787247 #
edge $-1 $500 -140.9906308175909 $454 -125.9472953717771 $439 $501 forward 7 unknown #
vertex $-1 $391 $502 #
straight-curve $-1 62.083189163038909 1.8268442459486458 16.974169331216004 0 1 0 I I #
point $-1 -70.495315408795435 -36.751924940758379 -16.974169331216011 #
straight-curve $-1 -70.495315408795435 0 -16.974169331216011 0 1 0 I I #
point $-1 -70.495315408795435 36.751924940758379 -16.974169331216011 #
straight-curve $-1 70.495315408795435 -36.751924940758379 0 0 0 -1 I I #
plane-surface $-1 0 36.751924940758379 0 0 -1 0 0 0 -1 forward_v I I I I #
coedge $-1 $503 $427 $429 $480 forward $408 $-1 #
coedge $-1 $504 $410 $411 $467 reversed $355 $-1 #
coedge $-1 $410 $504 $415 $474 reversed $355 $-1 #
coedge $-1 $427 $503 $410 $465 reversed $408 $-1 #
edge $-1 $478 -16.974169331216011 $505 16.974169331216011 $464 $506 forward 7 unknown #
coedge $-1 $412 $411 $503 $507 forward $300 $-1 #
edge $-1 $472 -70.495315408795435 $505 70.495315408795435 $462 $508 forward 7 unknown #
coedge $-1 $429 $424 $412 $469 reversed $430 $-1 #
edge $-1 $509 -70.495315408795435 $471 70.495315408795435 $468 $510 forward 7 unknown #
coedge $-1 $413 $416 $504 $511 forward $313 $-1 #
vertex $-1 $414 $512 #
vertex $-1 $511 $513 #
straight-curve $-1 70.495315408795435 0 -16.974169331216011 0 -1 0 I I #
edge $-1 $478 -70.495315408795435 $475 70.495315408795435 $463 $514 forward 7 unknown #
vertex $-1 $417 $515 #
point $-1 70.495315408795435 -3.5826283555495557 4.5026789086268906 #
straight-curve $-1 70.495315408795435 36.751924940758379 0 0 0 -1 I I #
vertex $-1 $428 $516 #
straight-curve $-1 -70.495315408795435 0 16.974169331216011 0 -1 0 I I #
edge $-1 $431 -16.974169331216011 $509 16.974169331216011 $429 $517 forward 7 unknown #
point $-1 -70.495315408795435 36.751924940758379 16.974169331216011 #
face $-1 $518 $519 $15 $-1 $520 reversed single #
loop $-1 $-1 $521 $434 #
plane-surface $-1 0 -36.751924940758379 0 0 1 0 0 0 1 forward_v I I I I #
coedge $-1 $522 $523 $524 $525 forward $435 $-1 #
coedge $-1 $437 $526 $527 $528 forward $376 $-1 #
coedge $-1 $527 $444 $438 $488 forward $446 $-1 #
edge $-1 $500 -95.612405538561873 $489 -83.140915115972746 $487 $529 forward 7 unknown #
vertex $-1 $488 $530 #
straight-curve $-1 54.270444175905389 -3.5826283555495557 16.974169331216004 -1 0 0 I I #
edge $-1 $442 -9.0631610933954931 $500 5.4094726014982015 $444 $531 forward 7 unknown #
point $-1 70.495315408795435 10.890005339344139 4.5026789086268906 #
coedge $-1 $445 $524 $532 $533 reversed $446 $-1 #
face $-1 $-1 $446 $15 $-1 $534 reversed single #
coedge $-1 $526 $448 $535 $536 forward $376 $-1 #
coedge $-1 $532 $537 $448 $497 reversed $538 $-1 #
edge $-1 $498 -70.495315408795435 $539 70.495315408795435 $496 $540 forward 7 unknown #
vertex $-1 $449 $541 #
straight-curve $-1 70.495315408795435 0 16.974169331216011 0 1 0 I I #
vertex $-1 $491 $542 #
straight-curve $-1 -8.3456431125722048 -3.5826283555495557 121.3892103730099 -0.55919289150049634 0 0.82903758062907751 I I #
point $-1 62.083189163038909 -3.5826283555495557 16.974169331216004 #
coedge $-1 $464 $461 $466 $507 reversed $408 $-1 #
coedge $-1 $463 $462 $470 $511 reversed $355 $-1 #
vertex $-1 $507 $543 #
straight-curve $-1 -70.495315408795435 -36.751924940758379 0 0 0 -1 I I #
edge $-1 $505 -36.751924940758379 $509 36.751924940758379 $503 $544 forward 7 unknown #
straight-curve $-1 0 -36.751924940758379 -16.974169331216011 -1 0 0 I I #
vertex $-1 $469 $545 #
straight-curve $-1 0 36.751924940758379 -16.974169331216011 1 0 0 I I #
edge $-1 $475 -16.974169331216011 $472 16.974169331216011 $470 $546 forward 7 unknown #
point $-1 70.495315408795435 36.751924940758379 -16.974169331216011 #
point $-1 70.495315408795435 -36.751924940758379 -16.974169331216011 #
straight-curve $-1 0 -36.751924940758379 16.974169331216011 1 0 0 I I #
point $-1 70.495315408795435 -36.751924940758379 16.974169331216011 #
point $-1 -70.495315408795435 -36.751924940758379 16.974169331216011 #
straight-curve $-1 -70.495315408795435 36.751924940758379 0 0 0 -1 I I #
face $-1 $494 $538 $15 $-1 $547 reversed single #
loop $-1 $-1 $548 $482 #
plane-surface $-1 -70.495315408795435 0 0 1 0 0 0 0 -1 forward_v I I I I #
coedge $-1 $549 $550 $551 $552 forward $483 $-1 #
coedge $-1 $553 $485 $549 $554 forward $435 $-1 #
coedge $-1 $485 $553 $555 $556 forward $435 $-1 #
coedge $-1 $493 $557 $485 $525 reversed $446 $-1 #
edge $-1 $558 -36.751924940758379 $559 36.751924940758379 $524 $560 forward 7 unknown #
coedge $-1 $486 $495 $550 $561 forward $376 $-1 #
coedge $-1 $557 $487 $486 $528 reversed $446 $-1 #
edge $-1 $562 -36.751924940758379 $489 -3.5826283555495557 $527 $499 forward 7 unknown #
straight-curve $-1 70.495315408795435 -3.5826283555495557 100.11508444718876 0 0 1 I I #
point $-1 70.495315408795435 -3.5826283555495557 16.974169331216011 #
straight-curve $-1 70.495315408795435 1.8268442459486458 4.5026789086268906 0 -1 0 I I #
coedge $-1 $555 $496 $493 $533 forward $538 $-1 #
edge $-1 $498 -16.974169331216011 $558 16.974169331216011 $493 $563 forward 7 unknown #
plane-surface $-1 70.495315408795435 0 0 -1 0 0 0 0 1 forward_v I I I I #
coedge $-1 $548 $551 $495 $536 reversed $519 $-1 #
edge $-1 $539 -36.751924940758379 $564 36.751924940758379 $535 $565 forward 7 unknown #
coedge $-1 $496 $555 $548 $566 reversed $538 $-1 #
loop $-1 $-1 $532 $518 #
vertex $-1 $497 $567 #
straight-curve $-1 0 36.751924940758379 16.974169331216011 -1 0 0 I I #
point $-1 70.495315408795435 36.751924940758379 16.974169331216011 #
point $-1 70.495315408795435 -3.5826283555495557 4.5026789086268906 #
point $-1 -70.495315408795435 -36.751924940758379 -16.974169331216011 #
straight-curve $-1 -70.495315408795435 0 -16.974169331216011 0 1 0 I I #
point $-1 -70.495315408795435 36.751924940758379 -16.974169331216011 #
straight-curve $-1 70.495315408795435 -36.751924940758379 0 0 0 -1 I I #
plane-surface $-1 0 36.751924940758379 0 0 -1 0 0 0 -1 forward_v I I I I #
coedge $-1 $568 $535 $537 $566 forward $519 $-1 #
coedge $-1 $569 $521 $522 $554 reversed $483 $-1 #
coedge $-1 $521 $569 $526 $561 reversed $483 $-1 #
coedge $-1 $535 $568 $521 $552 reversed $519 $-1 #
edge $-1 $564 -16.974169331216011 $570 16.974169331216011 $551 $571 forward 7 unknown #
coedge $-1 $523 $522 $568 $572 forward $435 $-1 #
edge $-1 $559 -70.495315408795435 $570 70.495315408795435 $549 $573 forward 7 unknown #
coedge $-1 $537 $532 $523 $556 reversed $538 $-1 #
edge $-1 $574 -70.495315408795435 $558 70.495315408795435 $555 $575 forward 7 unknown #
coedge $-1 $524 $527 $569 $576 forward $446 $-1 #
vertex $-1 $525 $577 #
vertex $-1 $576 $578 #
straight-curve $-1 70.495315408795435 0 -16.974169331216011 0 -1 0 I I #
edge $-1 $564 -70.495315408795435 $562 70.495315408795435 $550 $579 forward 7 unknown #
vertex $-1 $528 $580 #
straight-curve $-1 70.495315408795435 36.751924940758379 0 0 0 -1 I I #
vertex $-1 $536 $581 #
straight-curve $-1 -70.495315408795435 0 16.974169331216011 0 -1 0 I I #
edge $-1 $539 -16.974169331216011 $574 16.974169331216011 $537 $582 forward 7 unknown #
point $-1 -70.495315408795435 36.751924940758379 16.974169331216011 #
coedge $-1 $551 $548 $553 $572 reversed $519 $-1 #
coedge $-1 $550 $549 $557 $576 reversed $483 $-1 #
vertex $-1 $572 $583 #
straight-curve $-1 -70.495315408795435 -36.751924940758379 0 0 0 -1 I I #
edge $-1 $570 -36.751924940758379 $574 36.751924940758379 $568 $584 forward 7 unknown #
straight-curve $-1 0 -36.751924940758379 -16.974169331216011 -1 0 0 I I #
vertex $-1 $556 $585 #
straight-curve $-1 0 36.751924940758379 -16.974169331216011 1 0 0 I I #
edge $-1 $562 -16.974169331216011 $559 16.974169331216011 $557 $586 forward 7 unknown #
point $-1 70.495315408795435 36.751924940758379 -16.974169331216011 #
point $-1 70.495315408795435 -36.751924940758379 -16.974169331216011 #
straight-curve $-1 0 -36.751924940758379 16.974169331216011 1 0 0 I I #
point $-1 70.495315408795435 -36.751924940758379 16.974169331216011 #
point $-1 -70.495315408795435 -36.751924940758379 16.974169331216011 #
straight-curve $-1 -70.495315408795435 36.751924940758379 0 0 0 -1 I I #
point $-1 -70.495315408795435 -36.751924940758379 -16.974169331216011 #
straight-curve $-1 -70.495315408795435 0 -16.974169331216011 0 1 0 I I #
point $-1 -70.495315408795435 36.751924940758379 -16.974169331216011 #
straight-curve $-1 70.495315408795435 -36.751924940758379 0 0 0 -1 I I #
End-of-ACIS-data 