500 0 6 0           
7 Unknown 11 ACIS 5.0 NT 24 Thu Mar 25 15:42:26 1999 
-1 9.9999999999999995e-007 1e-010 
body $-1 $6 $-1 $7 #
body $-1 $8 $-1 $9 #
body $-1 $10 $-1 $11 #
body $-1 $12 $-1 $13 #
body $-1 $14 $-1 $15 #
body $-1 $16 $-1 $17 #
lump $-1 $-1 $18 $0 #
transform $-1 1 0 0 0 1 0 0 0 1 64.09863582262642 30.141832337698201 15.010755768602344 1 rotate no_reflect no_shear #
lump $-1 $-1 $19 $1 #
transform $-1 1 0 0 0 1 0 0 0 1 64.09863582262642 30.141832337698201 15.010755768602344 1 rotate no_reflect no_shear #
lump $-1 $-1 $20 $2 #
transform $-1 1 0 0 0 1 0 0 0 1 64.09863582262642 30.141832337698201 15.010755768602344 1 rotate no_reflect no_shear #
lump $-1 $-1 $21 $3 #
transform $-1 1 0 0 0 1 0 0 0 1 64.09863582262642 30.141832337698201 15.010755768602344 1 rotate no_reflect no_shear #
lump $-1 $-1 $22 $4 #
transform $-1 1 0 0 0 1 0 0 0 1 64.09863582262642 30.141832337698201 15.010755768602344 1 rotate no_reflect no_shear #
lump $-1 $-1 $23 $5 #
transform $-1 1 0 0 0 1 0 0 0 1 64.09863582262642 30.141832337698201 15.010755768602344 1 rotate no_reflect no_shear #
shell $-1 $-1 $-1 $24 $-1 $6 #
shell $-1 $-1 $-1 $25 $-1 $8 #
shell $-1 $-1 $-1 $26 $-1 $10 #
shell $-1 $-1 $-1 $27 $-1 $12 #
shell $-1 $-1 $-1 $28 $-1 $14 #
shell $-1 $-1 $-1 $29 $-1 $16 #
face $-1 $30 $31 $18 $-1 $32 forward single #
face $-1 $33 $34 $19 $-1 $35 forward single #
face $-1 $36 $37 $20 $-1 $38 reversed single #
face $-1 $39 $40 $21 $-1 $41 forward single #
face $-1 $42 $43 $22 $-1 $44 reversed single #
face $-1 $45 $46 $23 $-1 $47 forward single #
face $-1 $48 $49 $18 $-1 $50 reversed single #
loop $-1 $-1 $51 $24 #
plane-surface $-1 0 0 15.010755768602344 0 0 1 1 0 0 forward_v I I I I #
face $-1 $52 $53 $19 $-1 $54 reversed single #
loop $-1 $-1 $55 $25 #
plane-surface $-1 -64.09863582262642 0 0 1 0 0 0 0 -1 forward_v I I I I #
face $-1 $56 $57 $20 $-1 $58 reversed single #
loop $-1 $-1 $59 $26 #
plane-surface $-1 31.084389885940489 66.365485223913666 147.24456827433099 1 0 0 0 -0.64278761758704617 -0.76604443648966558 forward_v I I I I #
face $-1 $60 $61 $21 $-1 $62 forward single #
loop $-1 $63 $64 $27 #
cone-surface $-1 47.591512854283451 25.767589094918993 10.789711910784895 0 -0.64278761758704617 -0.76604443648966558 1.5 0 0 1 I I 0 1 1.5 forward I I I I #
face $-1 $65 $66 $22 $-1 $67 reversed single #
loop $-1 $-1 $68 $28 #
plane-surface $-1 37.39783530267615 -136.42218826572727 72.750365618987416 -1 0 0 0 -0.82903758062907751 0.55919289150049634 forward_v I I I I #
face $-1 $69 $70 $23 $-1 $71 forward single #
loop $-1 $72 $73 $29 #
cone-surface $-1 21.765761667398863 -20.845986036174111 4.9396968090298206 0 0.82903758062907751 -0.55919289150049634 4 0 0 1 I I 0 1 4 forward I I I I #
face $-1 $74 $75 $18 $-1 $76 reversed single #
loop $-1 $-1 $77 $30 #
plane-surface $-1 0 0 -15.010755768602344 0 0 1 1 0 0 forward_v I I I I #
coedge $-1 $78 $79 $80 $81 forward $31 $-1 #
face $-1 $82 $83 $19 $-1 $84 reversed single #
loop $-1 $-1 $85 $33 #
plane-surface $-1 0 30.141832337698201 0 0 -1 0 0 0 -1 forward_v I I I I #
coedge $-1 $86 $87 $88 $89 forward $34 $-1 #
face $-1 $90 $91 $20 $-1 $92 forward single #
loop $-1 $-1 $93 $36 #
plane-surface $-1 47.591512854283451 -16.038133598097787 49.039761557330692 0 0.64278761758704617 0.76604443648966558 1 0 0 forward_v I I I I #
coedge $-1 $94 $95 $96 $97 reversed $37 $-1 #
face $-1 $-1 $98 $21 $-1 $99 forward single #
loop $-1 $100 $101 $39 #
cone-surface $-1 47.591512854283451 23.724143580987334 8.354428429293236 0 -0.64278761758704617 -0.76604443648966558 0.75 0 0 1 I I -0.70710678118654757 0.70710678118654757 0.75 forward I I I I #
loop $-1 $-1 $102 $27 #
coedge $-1 $64 $64 $103 $104 reversed $40 $-1 #
face $-1 $105 $106 $22 $-1 $107 reversed single #
loop $-1 $-1 $108 $42 #
plane-surface $-1 21.765761667398863 -30.141832337698219 1.063362605203892 0 -0.82903758062907751 0.55919289150049634 1 0 0 forward_v I I I I #
coedge $-1 $109 $110 $111 $112 reversed $43 $-1 #
face $-1 $-1 $113 $23 $-1 $114 forward single #
loop $-1 $115 $116 $45 #
cone-surface $-1 21.765761667398863 -14.595882165120885 0.72394864815553817 0 0.82903758062907751 -0.55919289150049634 2 0 0 1 I I -0.70710678118654746 0.70710678118654746 2 forward I I I I #
loop $-1 $-1 $117 $29 #
coedge $-1 $73 $73 $118 $119 reversed $46 $-1 #
face $-1 $120 $121 $18 $-1 $122 reversed single #
loop $-1 $-1 $123 $48 #
plane-surface $-1 0 -30.141832337698201 0 0 1 0 0 0 1 forward_v I I I I #
coedge $-1 $124 $125 $126 $127 forward $49 $-1 #
coedge $-1 $128 $51 $129 $130 forward $31 $-1 #
coedge $-1 $51 $128 $131 $132 forward $31 $-1 #
coedge $-1 $133 $134 $51 $81 reversed $135 $-1 #
edge $-1 $136 -30.141832337698201 $137 30.141832337698201 $80 $138 forward 7 unknown #
face $-1 $139 $140 $19 $-1 $141 reversed single #
loop $-1 $-1 $88 $52 #
plane-surface $-1 -70.690770448776888 0 7.6620959100111516 0 0 1 1 0 0 forward_v I I I I #
coedge $-1 $142 $143 $86 $144 forward $53 $-1 #
coedge $-1 $145 $55 $85 $144 reversed $34 $-1 #
coedge $-1 $55 $145 $146 $147 reversed $34 $-1 #
coedge $-1 $148 $149 $55 $89 reversed $83 $-1 #
edge $-1 $150 -30.141832337698201 $151 30.141832337698201 $88 $152 forward 7 unknown #
face $-1 $153 $154 $20 $-1 $155 reversed single #
loop $-1 $-1 $96 $56 #
plane-surface $-1 0 0 15.010755768602344 0 0 1 1 0 0 forward_v I I I I #
coedge $-1 $156 $157 $158 $159 reversed $57 $-1 #
coedge $-1 $95 $59 $160 $161 reversed $37 $-1 #
coedge $-1 $59 $94 $156 $162 reversed $37 $-1 #
coedge $-1 $158 $163 $59 $97 forward $91 $-1 #
edge $-1 $164 3.040910274258632 $165 8.6666871583342981 $96 $166 forward 7 unknown #
loop $-1 $-1 $103 $60 #
plane-surface $-1 47.591512854283451 -16.038133598097787 49.039761557330692 0 0.64278761758704617 0.76604443648966558 1 0 0 forward_v I I I I #
loop $-1 $-1 $167 $39 #
coedge $-1 $101 $101 $102 $168 reversed $61 $-1 #
coedge $-1 $102 $102 $101 $168 forward $63 $-1 #
coedge $-1 $103 $103 $64 $104 forward $98 $-1 #
edge $-1 $169 4.6928266284118009e-016 $169 6.2831853071796013 $103 $170 forward 7 unknown #
face $-1 $171 $172 $22 $-1 $173 reversed single #
loop $-1 $-1 $174 $65 #
plane-surface $-1 6.1336880321215759 -136.42218826572727 72.750365618987416 1 0 0 0 0.82903758062907751 -0.55919289150049634 forward_v I I I I #
coedge $-1 $175 $176 $177 $178 reversed $66 $-1 #
coedge $-1 $110 $68 $179 $180 reversed $43 $-1 #
coedge $-1 $68 $109 $175 $181 reversed $43 $-1 #
coedge $-1 $177 $182 $68 $112 forward $183 $-1 #
edge $-1 $184 38.069261795165431 $185 47.476896978623451 $111 $186 forward 7 unknown #
loop $-1 $-1 $118 $69 #
plane-surface $-1 21.765761667398863 -30.141832337698219 1.063362605203892 0 -0.82903758062907751 0.55919289150049634 1 0 0 forward_v I I I I #
loop $-1 $-1 $187 $45 #
coedge $-1 $116 $116 $117 $188 reversed $70 $-1 #
coedge $-1 $117 $117 $116 $188 forward $72 $-1 #
coedge $-1 $118 $118 $73 $119 forward $113 $-1 #
edge $-1 $189 2.7431542869682434e-016 $189 6.2831853071796004 $118 $190 forward 7 unknown #
face $-1 $191 $192 $18 $-1 $193 reversed single #
loop $-1 $-1 $194 $74 #
plane-surface $-1 -64.09863582262642 0 0 1 0 0 0 0 -1 forward_v I I I I #
coedge $-1 $195 $131 $196 $197 forward $75 $-1 #
coedge $-1 $198 $77 $195 $199 forward $49 $-1 #
coedge $-1 $77 $198 $200 $201 forward $49 $-1 #
coedge $-1 $134 $133 $77 $127 reversed $135 $-1 #
edge $-1 $202 -30.141832337698201 $203 30.141832337698201 $126 $204 forward 7 unknown #
coedge $-1 $79 $78 $205 $206 forward $31 $-1 #
coedge $-1 $207 $208 $78 $130 reversed $192 $-1 #
edge $-1 $137 -64.09863582262642 $209 64.09863582262642 $129 $210 forward 7 unknown #
coedge $-1 $123 $211 $79 $132 reversed $75 $-1 #
edge $-1 $212 -64.09863582262642 $136 64.09863582262642 $131 $213 forward 7 unknown #
coedge $-1 $126 $80 $211 $214 forward $135 $-1 #
coedge $-1 $80 $126 $207 $215 reversed $135 $-1 #
loop $-1 $-1 $133 $191 #
vertex $-1 $81 $216 #
vertex $-1 $81 $217 #
straight-curve $-1 64.09863582262642 0 15.010755768602344 0 1 0 I I #
face $-1 $218 $219 $19 $-1 $220 forward single #
loop $-1 $-1 $221 $82 #
plane-surface $-1 -77.282905074927356 0 11.336425839306749 1 0 0 0 0 -1 forward_v I I I I #
coedge $-1 $222 $85 $149 $223 reversed $53 $-1 #
coedge $-1 $85 $222 $224 $225 reversed $53 $-1 #
edge $-1 $226 -15.010755768602344 $151 -7.6620959100111516 $85 $227 forward 7 unknown #
coedge $-1 $87 $86 $228 $229 reversed $34 $-1 #
coedge $-1 $230 $231 $87 $147 forward $232 $-1 #
edge $-1 $150 7.6620959100111516 $233 15.010755768602344 $146 $234 forward 7 unknown #
coedge $-1 $235 $88 $231 $236 forward $83 $-1 #
coedge $-1 $88 $235 $142 $223 forward $83 $-1 #
vertex $-1 $147 $237 #
vertex $-1 $144 $238 #
straight-curve $-1 -64.09863582262642 0 7.6620959100111516 0 1 0 I I #
face $-1 $-1 $239 $20 $-1 $240 reversed single #
loop $-1 $-1 $160 $90 #
plane-surface $-1 0 30.141832337698201 0 0 -1 0 0 0 -1 forward_v I I I I #
coedge $-1 $241 $93 $95 $162 forward $57 $-1 #
coedge $-1 $93 $241 $242 $243 reversed $57 $-1 #
coedge $-1 $244 $96 $93 $159 forward $91 $-1 #
edge $-1 $165 7.2886334587987633 $245 40.302879395484695 $158 $246 forward 7 unknown #
coedge $-1 $247 $248 $94 $161 forward $154 $-1 #
edge $-1 $249 -63.332115775949219 $164 -58.61152836856315 $160 $250 forward 7 unknown #
edge $-1 $165 52.939734459212957 $249 60.283664675396395 $95 $251 forward 7 unknown #
coedge $-1 $96 $244 $247 $252 forward $91 $-1 #
vertex $-1 $97 $253 #
vertex $-1 $97 $254 #
straight-curve $-1 31.084389885940489 33.182742611956833 15.010755768602351 0 -1 0 I I #
coedge $-1 $167 $167 $-1 $255 reversed $100 $-1 #
edge $-1 $256 0 $256 6.2831853071796004 $101 $257 forward 7 unknown #
vertex $-1 $104 $258 #
ellipse-curve $-1 47.591512854283451 27.32894389566037 12.650462064909311 0 0.64278761758704617 0.76604443648966558 1.5 0 0 1 I I #
face $-1 $-1 $183 $22 $-1 $259 forward single #
loop $-1 $-1 $260 $105 #
plane-surface $-1 0 -30.141832337698201 0 0 1 0 0 0 1 forward_v I I I I #
coedge $-1 $261 $262 $263 $264 reversed $106 $-1 #
coedge $-1 $265 $108 $110 $181 forward $66 $-1 #
coedge $-1 $108 $265 $261 $266 forward $66 $-1 #
coedge $-1 $263 $111 $108 $178 forward $183 $-1 #
edge $-1 $185 -26.514954468976718 $267 4.7491928015778555 $177 $268 forward 7 unknown #
coedge $-1 $269 $270 $109 $180 forward $172 $-1 #
edge $-1 $271 -35.311820204289788 $184 -21.364427040891364 $179 $272 forward 7 unknown #
edge $-1 $185 -16.823595804686086 $271 -3.1839176498604776e-014 $110 $273 forward 7 unknown #
coedge $-1 $111 $263 $269 $274 forward $183 $-1 #
loop $-1 $-1 $263 $171 #
vertex $-1 $180 $275 #
vertex $-1 $112 $276 #
straight-curve $-1 37.39783530267615 -68.211094132863636 15.010755768602344 0 1 0 I I #
coedge $-1 $187 $187 $-1 $277 reversed $115 $-1 #
edge $-1 $278 0 $278 6.2831853071796004 $116 $279 forward 7 unknown #
vertex $-1 $119 $280 #
ellipse-curve $-1 21.765761667398863 -25.438014745969198 8.0370591869031216 0 -0.82903758062907751 0.55919289150049634 4 0 0 1 I I #
face $-1 $-1 $135 $18 $-1 $281 reversed single #
loop $-1 $-1 $207 $120 #
plane-surface $-1 0 30.141832337698201 0 0 -1 0 0 0 -1 forward_v I I I I #
coedge $-1 $282 $205 $208 $283 forward $121 $-1 #
coedge $-1 $211 $123 $124 $199 reversed $75 $-1 #
coedge $-1 $205 $282 $123 $197 reversed $121 $-1 #
edge $-1 $212 -15.010755768602344 $284 15.010755768602344 $196 $285 forward 7 unknown #
coedge $-1 $125 $124 $282 $286 forward $49 $-1 #
edge $-1 $203 -64.09863582262642 $284 64.09863582262642 $195 $287 forward 7 unknown #
coedge $-1 $208 $207 $125 $201 reversed $192 $-1 #
edge $-1 $288 -64.09863582262642 $202 64.09863582262642 $200 $289 forward 7 unknown #
vertex $-1 $127 $290 #
vertex $-1 $214 $291 #
straight-curve $-1 64.09863582262642 0 -15.010755768602344 0 -1 0 I I #
coedge $-1 $194 $196 $128 $206 reversed $121 $-1 #
edge $-1 $209 -30.141832337698201 $212 30.141832337698201 $205 $292 forward 7 unknown #
coedge $-1 $200 $129 $134 $215 forward $192 $-1 #
coedge $-1 $129 $200 $194 $283 reversed $192 $-1 #
vertex $-1 $130 $293 #
straight-curve $-1 0 30.141832337698201 15.010755768602344 -1 0 0 I I #
coedge $-1 $131 $195 $133 $214 reversed $75 $-1 #
vertex $-1 $206 $294 #
straight-curve $-1 0 -30.141832337698201 15.010755768602344 1 0 0 I I #
edge $-1 $136 -15.010755768602344 $203 15.010755768602344 $133 $295 forward 7 unknown #
edge $-1 $137 -15.010755768602344 $202 15.010755768602344 $134 $296 forward 7 unknown #
point $-1 64.09863582262642 -30.141832337698201 15.010755768602344 #
point $-1 64.09863582262642 30.141832337698201 15.010755768602344 #
face $-1 $-1 $232 $19 $-1 $297 reversed single #
loop $-1 $-1 $228 $139 #
plane-surface $-1 0 0 15.010755768602344 0 0 1 1 0 0 forward_v I I I I #
coedge $-1 $298 $299 $222 $300 forward $140 $-1 #
coedge $-1 $143 $142 $221 $300 reversed $53 $-1 #
edge $-1 $301 -6.5921346261504681 $151 6.5921346261504681 $142 $302 forward 7 unknown #
coedge $-1 $303 $228 $143 $225 forward $219 $-1 #
edge $-1 $226 64.09863582262642 $304 77.282905074927356 $143 $305 forward 7 unknown #
vertex $-1 $225 $306 #
straight-curve $-1 -64.09863582262642 30.141832337698201 0 0 0 -1 I I #
coedge $-1 $224 $307 $145 $229 forward $219 $-1 #
edge $-1 $233 -30.141832337698201 $226 30.141832337698201 $228 $308 forward 7 unknown #
coedge $-1 $309 $146 $307 $310 reversed $232 $-1 #
coedge $-1 $146 $309 $148 $236 reversed $232 $-1 #
loop $-1 $-1 $146 $218 #
vertex $-1 $147 $311 #
straight-curve $-1 -64.09863582262642 -30.141832337698201 0 0 0 1 I I #
coedge $-1 $149 $148 $298 $312 forward $83 $-1 #
edge $-1 $150 -6.5921346261504681 $313 6.5921346261504681 $231 $314 forward 7 unknown #
point $-1 -64.09863582262642 -30.141832337698201 7.6620959100111516 #
point $-1 -64.09863582262642 30.141832337698201 7.6620959100111516 #
loop $-1 $-1 $242 $153 #
plane-surface $-1 64.09863582262642 0 0 -1 0 0 0 0 1 forward_v I I I I #
coedge $-1 $157 $156 $248 $315 reversed $57 $-1 #
coedge $-1 $316 $317 $157 $243 forward $239 $-1 #
edge $-1 $245 31.035697202725856 $318 38.379627418909294 $242 $319 forward 7 unknown #
coedge $-1 $163 $158 $317 $320 forward $91 $-1 #
vertex $-1 $320 $321 #
straight-curve $-1 23.795756427141725 24.516055453622535 15.010755768602344 1 0 0 I I #
coedge $-1 $322 $160 $163 $252 reversed $154 $-1 #
coedge $-1 $160 $322 $241 $315 forward $154 $-1 #
vertex $-1 $161 $323 #
straight-curve $-1 31.084389885940489 30.141832337698201 73.622284137165494 0 0 1 I I #
straight-curve $-1 31.084389885940489 -16.038133598097787 49.039761557330692 0 0.76604443648966558 -0.64278761758704617 I I #
edge $-1 $324 -64.09863582262642 $164 -31.084389885940489 $247 $325 forward 7 unknown #
point $-1 31.084389885940489 30.141832337698201 15.010755768602344 #
point $-1 31.084389885940489 24.516055453622535 15.010755768602344 #
edge $-1 $326 1 $326 0 $167 $-1 forward 7 unknown #
vertex $-1 $168 $327 #
ellipse-curve $-1 47.591512854283451 24.206234294177619 8.9289617566604846 0 0.64278761758704617 0.76604443648966558 1.5 0 0 1 I I #
point $-1 49.091512854283451 27.328943895660366 12.650462064909306 #
plane-surface $-1 0 0 15.010755768602344 0 0 1 1 0 0 forward_v I I I I #
coedge $-1 $270 $269 $262 $328 forward $172 $-1 #
coedge $-1 $262 $174 $176 $266 reversed $106 $-1 #
coedge $-1 $174 $261 $260 $328 reversed $106 $-1 #
coedge $-1 $182 $177 $174 $264 forward $183 $-1 #
edge $-1 $267 -47.476896978623451 $329 -38.069261795165431 $263 $330 forward 7 unknown #
coedge $-1 $176 $175 $270 $331 reversed $66 $-1 #
edge $-1 $332 3.1839176498604776e-014 $267 16.823595804686086 $261 $333 forward 7 unknown #
vertex $-1 $178 $334 #
straight-curve $-1 10.882880833699431 -20.734197154240189 15.010755768602344 -1 0 0 I I #
coedge $-1 $260 $179 $182 $274 reversed $172 $-1 #
coedge $-1 $179 $260 $265 $331 forward $172 $-1 #
vertex $-1 $180 $335 #
straight-curve $-1 37.39783530267615 -30.141832337698204 36.375182809493708 0 0 1 I I #
straight-curve $-1 37.39783530267615 -30.141832337698219 1.063362605203892 0 -0.55919289150049634 -0.82903758062907751 I I #
edge $-1 $329 6.1336880321215759 $184 37.39783530267615 $269 $336 forward 7 unknown #
point $-1 37.39783530267615 -30.141832337698201 15.010755768602344 #
point $-1 37.39783530267615 -20.734197154240185 15.010755768602342 #
edge $-1 $337 1 $337 0 $187 $-1 forward 7 unknown #
vertex $-1 $188 $338 #
ellipse-curve $-1 21.765761667398863 -16.253957326379041 1.8423344311565308 0 -0.82903758062907751 0.55919289150049634 4 0 0 1 I I #
point $-1 25.765761667398863 -25.438014745969181 8.0370591869031109 #
plane-surface $-1 64.09863582262642 0 0 -1 0 0 0 0 1 forward_v I I I I #
coedge $-1 $196 $194 $198 $286 reversed $121 $-1 #
edge $-1 $209 -15.010755768602344 $288 15.010755768602344 $208 $339 forward 7 unknown #
vertex $-1 $286 $340 #
straight-curve $-1 -64.09863582262642 -30.141832337698201 0 0 0 -1 I I #
edge $-1 $284 -30.141832337698201 $288 30.141832337698201 $282 $341 forward 7 unknown #
straight-curve $-1 0 -30.141832337698201 -15.010755768602344 -1 0 0 I I #
vertex $-1 $201 $342 #
straight-curve $-1 0 30.141832337698201 -15.010755768602344 1 0 0 I I #
point $-1 64.09863582262642 30.141832337698201 -15.010755768602344 #
point $-1 64.09863582262642 -30.141832337698201 -15.010755768602344 #
straight-curve $-1 -64.09863582262642 0 15.010755768602344 0 -1 0 I I #
point $-1 -64.09863582262642 30.141832337698201 15.010755768602344 #
point $-1 -64.09863582262642 -30.141832337698201 15.010755768602344 #
straight-curve $-1 64.09863582262642 -30.141832337698201 0 0 0 -1 I I #
straight-curve $-1 64.09863582262642 30.141832337698201 0 0 0 -1 I I #
plane-surface $-1 0 -30.141832337698201 0 0 1 0 0 0 1 forward_v I I I I #
coedge $-1 $343 $221 $235 $312 reversed $140 $-1 #
coedge $-1 $221 $343 $303 $344 reversed $140 $-1 #
edge $-1 $304 -3.6743299292955971 $301 3.6743299292955971 $222 $345 forward 7 unknown #
vertex $-1 $223 $346 #
straight-curve $-1 -70.690770448776888 30.141832337698201 7.6620959100111516 1 0 0 I I #
coedge $-1 $307 $224 $299 $344 forward $219 $-1 #
vertex $-1 $225 $347 #
straight-curve $-1 0 30.141832337698201 15.010755768602344 -1 0 0 I I #
point $-1 -64.09863582262642 30.141832337698201 15.010755768602344 #
coedge $-1 $228 $303 $230 $310 forward $219 $-1 #
straight-curve $-1 -64.09863582262642 0 15.010755768602344 0 1 0 I I #
coedge $-1 $231 $230 $343 $348 forward $232 $-1 #
edge $-1 $349 -77.282905074927356 $233 -64.09863582262642 $230 $350 forward 7 unknown #
point $-1 -64.09863582262642 -30.141832337698201 15.010755768602344 #
edge $-1 $313 -30.141832337698201 $301 30.141832337698201 $298 $351 forward 7 unknown #
vertex $-1 $312 $352 #
straight-curve $-1 -70.690770448776888 -30.141832337698201 7.6620959100111516 -1 0 0 I I #
edge $-1 $318 -40.302879395484695 $249 -7.2886334587987633 $248 $353 forward 7 unknown #
coedge $-1 $317 $242 $322 $354 reversed $239 $-1 #
coedge $-1 $242 $316 $244 $320 reversed $239 $-1 #
vertex $-1 $243 $355 #
straight-curve $-1 64.09863582262642 0.74133227889651465 34.960117633695447 0 0.76604443648966558 -0.64278761758704617 I I #
edge $-1 $245 24.516055453622535 $324 30.141832337698201 $317 $356 forward 7 unknown #
point $-1 64.09863582262642 24.516055453622535 15.010755768602344 #
coedge $-1 $248 $247 $316 $354 forward $154 $-1 #
point $-1 31.084389885940489 30.141832337698204 10.290168361216274 #
vertex $-1 $320 $357 #
straight-curve $-1 0 30.141832337698201 15.010755768602344 -1 0 0 I I #
vertex $-1 $255 $358 #
point $-1 49.091512854283451 24.206234294177619 8.9289617566604846 #
edge $-1 $329 21.364427040891364 $332 35.311820204289788 $260 $359 forward 7 unknown #
vertex $-1 $274 $360 #
straight-curve $-1 6.1336880321215759 -68.211094132863636 15.010755768602344 0 -1 0 I I #
edge $-1 $332 -4.7491928015778555 $271 26.514954468976718 $270 $361 forward 7 unknown #
vertex $-1 $331 $362 #
straight-curve $-1 6.1336880321215759 -30.141832337698219 1.063362605203892 0 0.55919289150049634 0.82903758062907751 I I #
point $-1 6.1336880321215759 -20.734197154240185 15.010755768602342 #
point $-1 37.39783530267615 -30.141832337698201 1.0633626052039185 #
straight-curve $-1 0 -30.141832337698201 15.010755768602344 1 0 0 I I #
vertex $-1 $277 $363 #
point $-1 25.765761667398863 -16.253957326379041 1.8423344311565308 #
straight-curve $-1 -64.09863582262642 30.141832337698201 0 0 0 -1 I I #
point $-1 -64.09863582262642 -30.141832337698201 -15.010755768602344 #
straight-curve $-1 -64.09863582262642 0 -15.010755768602344 0 1 0 I I #
point $-1 -64.09863582262642 30.141832337698201 -15.010755768602344 #
coedge $-1 $299 $298 $309 $348 reversed $140 $-1 #
edge $-1 $304 -30.141832337698201 $349 30.141832337698201 $299 $364 forward 7 unknown #
straight-curve $-1 -77.282905074927356 30.141832337698201 11.336425839306749 0 0 -1 I I #
point $-1 -77.282905074927356 30.141832337698201 7.6620959100111516 #
point $-1 -77.282905074927356 30.141832337698201 15.010755768602346 #
edge $-1 $349 -3.6743299292955971 $313 3.6743299292955971 $343 $365 forward 7 unknown #
vertex $-1 $344 $366 #
straight-curve $-1 0 -30.141832337698201 15.010755768602344 1 0 0 I I #
straight-curve $-1 -77.282905074927356 0 7.6620959100111516 0 1 0 I I #
point $-1 -77.282905074927356 -30.141832337698201 7.6620959100111516 #
straight-curve $-1 23.795756427141725 30.141832337698197 10.290168361216271 -1 0 0 I I #
edge $-1 $324 -15.010755768602344 $318 -10.290168361216274 $316 $367 forward 7 unknown #
point $-1 64.09863582262642 30.141832337698204 10.290168361216274 #
straight-curve $-1 64.09863582262642 0 15.010755768602344 0 1 0 I I #
point $-1 64.09863582262642 30.141832337698201 15.010755768602344 #
point $-1 47.591512854283451 23.242052867797049 7.7798951019259865 #
straight-curve $-1 6.1336880321215759 -30.141832337698204 36.375182809493708 0 0 -1 I I #
point $-1 6.1336880321215759 -30.141832337698201 15.010755768602344 #
straight-curve $-1 10.882880833699431 -30.141832337698201 1.0633626052039196 1 0 0 I I #
point $-1 6.1336880321215759 -30.141832337698201 1.0633626052039185 #
point $-1 21.765761667398863 -12.93780700386273 -0.39443713484545451 #
straight-curve $-1 -77.282905074927356 0 15.010755768602346 0 -1 0 I I #
straight-curve $-1 -77.282905074927356 -30.141832337698201 11.336425839306749 0 0 -1 I I #
point $-1 -77.282905074927356 -30.141832337698201 15.010755768602346 #
straight-curve $-1 64.09863582262642 30.141832337698201 0 0 0 -1 I I #
End-of-ACIS-data 