500 0 18 0           
7 Unknown 11 ACIS 5.0 NT 24 Fri Mar 26 02:21:46 1999 
-1 9.9999999999999995e-007 1e-010 
body $-1 $18 $-1 $19 #
body $-1 $20 $-1 $21 #
body $-1 $22 $-1 $23 #
body $-1 $24 $-1 $25 #
body $-1 $26 $-1 $27 #
body $-1 $28 $-1 $29 #
body $-1 $30 $-1 $31 #
body $-1 $32 $-1 $33 #
body $-1 $34 $-1 $35 #
body $-1 $36 $-1 $37 #
body $-1 $38 $-1 $39 #
body $-1 $40 $-1 $41 #
body $-1 $42 $-1 $43 #
body $-1 $44 $-1 $45 #
body $-1 $46 $-1 $47 #
body $-1 $48 $-1 $49 #
body $-1 $50 $-1 $51 #
body $-1 $52 $-1 $53 #
lump $-1 $-1 $54 $0 #
transform $-1 1 0 0 0 1 0 0 0 1 50.552079836420788 32.638620886970152 12.222126102703976 1 rotate no_reflect no_shear #
lump $-1 $-1 $55 $1 #
transform $-1 1 0 0 0 1 0 0 0 1 50.552079836420788 32.638620886970152 12.222126102703976 1 rotate no_reflect no_shear #
lump $-1 $-1 $56 $2 #
transform $-1 1 0 0 0 1 0 0 0 1 50.552079836420788 32.638620886970152 12.222126102703976 1 rotate no_reflect no_shear #
lump $-1 $-1 $57 $3 #
transform $-1 1 0 0 0 1 0 0 0 1 50.552079836420788 32.638620886970152 12.222126102703976 1 rotate no_reflect no_shear #
lump $-1 $-1 $58 $4 #
transform $-1 1 0 0 0 1 0 0 0 1 50.552079836420788 32.638620886970152 12.222126102703976 1 rotate no_reflect no_shear #
lump $-1 $-1 $59 $5 #
transform $-1 1 0 0 0 1 0 0 0 1 50.552079836420788 32.638620886970152 12.222126102703976 1 rotate no_reflect no_shear #
lump $-1 $-1 $60 $6 #
transform $-1 1 0 0 0 1 0 0 0 1 50.552079836420788 32.638620886970152 12.222126102703976 1 rotate no_reflect no_shear #
lump $-1 $-1 $61 $7 #
transform $-1 1 0 0 0 1 0 0 0 1 50.552079836420788 32.638620886970152 12.222126102703976 1 rotate no_reflect no_shear #
lump $-1 $-1 $62 $8 #
transform $-1 1 0 0 0 1 0 0 0 1 50.552079836420788 32.638620886970152 12.222126102703976 1 rotate no_reflect no_shear #
lump $-1 $-1 $63 $9 #
transform $-1 1 0 0 0 1 0 0 0 1 50.552079836420788 32.638620886970152 12.222126102703976 1 rotate no_reflect no_shear #
lump $-1 $-1 $64 $10 #
transform $-1 1 0 0 0 1 0 0 0 1 50.552079836420788 32.638620886970152 12.222126102703976 1 rotate no_reflect no_shear #
lump $-1 $-1 $65 $11 #
transform $-1 1 0 0 0 1 0 0 0 1 50.552079836420788 32.638620886970152 12.222126102703976 1 rotate no_reflect no_shear #
lump $-1 $-1 $66 $12 #
transform $-1 1 0 0 0 1 0 0 0 1 50.552079836420788 32.638620886970152 12.222126102703976 1 rotate no_reflect no_shear #
lump $-1 $-1 $67 $13 #
transform $-1 1 0 0 0 1 0 0 0 1 50.552079836420788 32.638620886970152 12.222126102703976 1 rotate no_reflect no_shear #
lump $-1 $-1 $68 $14 #
transform $-1 1 0 0 0 1 0 0 0 1 50.552079836420788 32.638620886970152 12.222126102703976 1 rotate no_reflect no_shear #
lump $-1 $-1 $69 $15 #
transform $-1 1 0 0 0 1 0 0 0 1 50.552079836420788 32.638620886970152 12.222126102703976 1 rotate no_reflect no_shear #
lump $-1 $-1 $70 $16 #
transform $-1 1 0 0 0 1 0 0 0 1 50.552079836420788 32.638620886970152 12.222126102703976 1 rotate no_reflect no_shear #
lump $-1 $-1 $71 $17 #
transform $-1 1 0 0 0 1 0 0 0 1 50.552079836420788 32.638620886970152 12.222126102703976 1 rotate no_reflect no_shear #
shell $-1 $-1 $-1 $72 $-1 $18 #
shell $-1 $-1 $-1 $73 $-1 $20 #
shell $-1 $-1 $-1 $74 $-1 $22 #
shell $-1 $-1 $-1 $75 $-1 $24 #
shell $-1 $-1 $-1 $76 $-1 $26 #
shell $-1 $-1 $-1 $77 $-1 $28 #
shell $-1 $-1 $-1 $78 $-1 $30 #
shell $-1 $-1 $-1 $79 $-1 $32 #
shell $-1 $-1 $-1 $80 $-1 $34 #
shell $-1 $-1 $-1 $81 $-1 $36 #
shell $-1 $-1 $-1 $82 $-1 $38 #
shell $-1 $-1 $-1 $83 $-1 $40 #
shell $-1 $-1 $-1 $84 $-1 $42 #
shell $-1 $-1 $-1 $85 $-1 $44 #
shell $-1 $-1 $-1 $86 $-1 $46 #
shell $-1 $-1 $-1 $87 $-1 $48 #
shell $-1 $-1 $-1 $88 $-1 $50 #
shell $-1 $-1 $-1 $89 $-1 $52 #
face $-1 $90 $91 $54 $-1 $92 forward single #
face $-1 $93 $94 $55 $-1 $95 reversed single #
face $-1 $96 $97 $56 $-1 $98 reversed single #
face $-1 $99 $100 $57 $-1 $101 forward single #
face $-1 $102 $103 $58 $-1 $104 forward single #
face $-1 $105 $106 $59 $-1 $107 reversed single #
face $-1 $108 $109 $60 $-1 $110 forward single #
face $-1 $111 $112 $61 $-1 $113 forward single #
face $-1 $114 $115 $62 $-1 $116 reversed single #
face $-1 $117 $118 $63 $-1 $119 forward single #
face $-1 $120 $121 $64 $-1 $122 forward single #
face $-1 $123 $124 $65 $-1 $125 reversed single #
face $-1 $126 $127 $66 $-1 $128 forward single #
face $-1 $129 $130 $67 $-1 $131 forward single #
face $-1 $132 $133 $68 $-1 $134 reversed single #
face $-1 $135 $136 $69 $-1 $137 forward single #
face $-1 $138 $139 $70 $-1 $140 forward single #
face $-1 $141 $142 $71 $-1 $143 forward single #
face $-1 $144 $145 $54 $-1 $146 reversed single #
loop $-1 $-1 $147 $72 #
plane-surface $-1 0 0 12.222126102703976 0 0 1 1 0 0 forward_v I I I I #
face $-1 $148 $149 $55 $-1 $150 reversed single #
loop $-1 $-1 $151 $73 #
plane-surface $-1 0 -24.797642277193418 8.4428046482584307 0 0 1 1 0 0 forward_v I I I I #
face $-1 $152 $153 $56 $-1 $154 reversed single #
loop $-1 $-1 $155 $74 #
plane-surface $-1 -136.29327076168187 -14.686698382803181 54.065067193849835 0 1 0 -0.84804810408105047 0 0.52991925155115449 forward_v I I I I #
face $-1 $156 $157 $57 $-1 $158 forward single #
loop $-1 $159 $160 $75 #
cone-surface $-1 -46.46191632166579 -12.766529602652355 6.0901167112310137 0.84804810408105047 0 -0.52991925155115449 0.26495962577557725 0 0.42402405204052523 1 I I 0 1 0.5 forward I I I I #
face $-1 $161 $162 $58 $-1 $163 forward single #
loop $-1 $164 $165 $76 #
cone-surface $-1 -46.46191632166579 -9.886276432426115 6.0901167112310137 0.84804810408105047 0 -0.52991925155115449 0.26495962577557725 0 0.42402405204052523 1 I I 0 1 0.5 forward I I I I #
face $-1 $166 $167 $59 $-1 $168 reversed single #
loop $-1 $-1 $169 $77 #
plane-surface $-1 -136.29327076168187 -1.9084439645925375 54.065067193849835 0 1 0 -0.84804810408105047 0 0.52991925155115449 forward_v I I I I #
face $-1 $170 $171 $60 $-1 $172 forward single #
loop $-1 $173 $174 $78 #
cone-surface $-1 -46.46191632166579 0.011724815558288526 6.0901167112310137 0.84804810408105047 0 -0.52991925155115449 0.26495962577557725 0 0.42402405204052523 1 I I 0 1 0.5 forward I I I I #
face $-1 $175 $176 $61 $-1 $177 forward single #
loop $-1 $178 $179 $79 #
cone-surface $-1 -46.46191632166579 2.8919779857845285 6.0901167112310137 0.84804810408105047 0 -0.52991925155115449 0.26495962577557725 0 0.42402405204052523 1 I I 0 1 0.5 forward I I I I #
face $-1 $180 $181 $62 $-1 $182 reversed single #
loop $-1 $-1 $183 $80 #
plane-surface $-1 -136.29327076168187 10.869810453618106 54.065067193849835 0 1 0 -0.84804810408105047 0 0.52991925155115449 forward_v I I I I #
face $-1 $184 $185 $63 $-1 $186 forward single #
loop $-1 $187 $188 $81 #
cone-surface $-1 -46.46191632166579 12.789979233768932 6.0901167112310137 0.84804810408105047 0 -0.52991925155115449 0.26495962577557725 0 0.42402405204052523 1 I I 0 1 0.5 forward I I I I #
face $-1 $189 $190 $64 $-1 $191 forward single #
loop $-1 $192 $193 $82 #
cone-surface $-1 -46.46191632166579 15.670232403995172 6.0901167112310137 0.84804810408105047 0 -0.52991925155115449 0.26495962577557725 0 0.42402405204052523 1 I I 0 1 0.5 forward I I I I #
face $-1 $194 $195 $65 $-1 $196 reversed single #
loop $-1 $-1 $197 $83 #
plane-surface $-1 -136.29327076168187 23.648064871828751 54.065067193849835 0 1 0 -0.84804810408105047 0 0.52991925155115449 forward_v I I I I #
face $-1 $198 $199 $66 $-1 $200 forward single #
loop $-1 $201 $202 $84 #
cone-surface $-1 -46.46191632166579 25.568233651979575 6.0901167112310137 0.84804810408105047 0 -0.52991925155115449 0.26495962577557725 0 0.42402405204052523 1 I I 0 1 0.5 forward I I I I #
face $-1 $203 $204 $67 $-1 $205 forward single #
loop $-1 $206 $207 $85 #
cone-surface $-1 -46.46191632166579 28.448486822205815 6.0901167112310137 0.84804810408105047 0 -0.52991925155115449 0.26495962577557725 0 0.42402405204052523 1 I I 0 1 0.5 forward I I I I #
face $-1 $208 $209 $68 $-1 $210 reversed single #
loop $-1 $-1 $211 $86 #
plane-surface $-1 -24.582952526086103 28.833459706025657 68.983970235261168 0.66913061440640931 0 0.74314481823134659 0.74314481823134659 0 -0.66913061440640931 forward_v I I I I #
face $-1 $212 $213 $69 $-1 $214 forward single #
loop $-1 $215 $216 $87 #
cone-surface $-1 44.170204890737153 26.550362997458969 6.4055315194008067 -0.66913061440640931 0 -0.74314481823134659 0.18578620455783665 0 -0.16728265360160233 1 I I 0 1 0.25 forward I I I I #
face $-1 $217 $218 $70 $-1 $219 forward single #
loop $-1 $220 $221 $88 #
cone-surface $-1 44.170204890737153 28.833459706025664 6.4055315194008067 -0.66913061440640931 0 -0.74314481823134659 0.18578620455783665 0 -0.16728265360160233 1 I I 0 1 0.25 forward I I I I #
face $-1 $222 $223 $71 $-1 $224 forward single #
loop $-1 $225 $226 $89 #
cone-surface $-1 44.170204890737153 31.11655641459236 6.4055315194008067 -0.66913061440640931 0 -0.74314481823134659 0.18578620455783665 0 -0.16728265360160233 1 I I 0 1 0.25 forward I I I I #
face $-1 $227 $228 $54 $-1 $229 reversed single #
loop $-1 $-1 $230 $90 #
plane-surface $-1 0 0 -12.222126102703976 0 0 1 1 0 0 forward_v I I I I #
coedge $-1 $231 $232 $233 $234 forward $91 $-1 #
face $-1 $235 $236 $55 $-1 $237 reversed single #
loop $-1 $-1 $238 $93 #
plane-surface $-1 0 -16.956663667416684 10.332465375481204 0 -1 0 0 0 -1 forward_v I I I I #
coedge $-1 $239 $240 $241 $242 reversed $94 $-1 #
face $-1 $243 $244 $56 $-1 $245 reversed single #
loop $-1 $-1 $246 $96 #
plane-surface $-1 -50.552079836420774 -11.326403017539235 0.4880265713092129 -0.84804810408105047 0 0.52991925155115449 0.52991925155115449 0 0.84804810408105047 forward_v I I I I #
coedge $-1 $247 $248 $249 $250 reversed $97 $-1 #
face $-1 $-1 $251 $57 $-1 $252 forward single #
loop $-1 $253 $254 $99 #
cone-surface $-1 -45.825880243604999 -12.766529602652355 5.6926772725676482 0.84804810408105047 0 -0.52991925155115449 0.13247981288778862 0 0.21201202602026262 1 I I -0.70710678118654746 0.70710678118654746 0.25 forward I I I I #
loop $-1 $-1 $255 $75 #
coedge $-1 $160 $160 $256 $257 reversed $100 $-1 #
face $-1 $-1 $258 $58 $-1 $259 forward single #
loop $-1 $260 $261 $102 #
cone-surface $-1 -45.825880243604999 -9.886276432426115 5.6926772725676482 0.84804810408105047 0 -0.52991925155115449 0.13247981288778862 0 0.21201202602026262 1 I I -0.70710678118654746 0.70710678118654746 0.25 forward I I I I #
loop $-1 $-1 $262 $76 #
coedge $-1 $165 $165 $263 $264 reversed $103 $-1 #
face $-1 $265 $266 $59 $-1 $267 reversed single #
loop $-1 $-1 $268 $105 #
plane-surface $-1 -50.552079836420774 1.4518514006714085 0.4880265713092129 -0.84804810408105047 0 0.52991925155115449 0.52991925155115449 0 0.84804810408105047 forward_v I I I I #
coedge $-1 $269 $270 $271 $272 reversed $106 $-1 #
face $-1 $-1 $273 $60 $-1 $274 forward single #
loop $-1 $275 $276 $108 #
cone-surface $-1 -45.825880243604999 0.011724815558288526 5.6926772725676482 0.84804810408105047 0 -0.52991925155115449 0.13247981288778862 0 0.21201202602026262 1 I I -0.70710678118654746 0.70710678118654746 0.25 forward I I I I #
loop $-1 $-1 $277 $78 #
coedge $-1 $174 $174 $278 $279 reversed $109 $-1 #
face $-1 $-1 $280 $61 $-1 $281 forward single #
loop $-1 $282 $283 $111 #
cone-surface $-1 -45.825880243604999 2.8919779857845285 5.6926772725676482 0.84804810408105047 0 -0.52991925155115449 0.13247981288778862 0 0.21201202602026262 1 I I -0.70710678118654746 0.70710678118654746 0.25 forward I I I I #
loop $-1 $-1 $284 $79 #
coedge $-1 $179 $179 $285 $286 reversed $112 $-1 #
face $-1 $287 $288 $62 $-1 $289 reversed single #
loop $-1 $-1 $290 $114 #
plane-surface $-1 -50.552079836420774 14.230105818882052 0.4880265713092129 -0.84804810408105047 0 0.52991925155115449 0.52991925155115449 0 0.84804810408105047 forward_v I I I I #
coedge $-1 $291 $292 $293 $294 reversed $115 $-1 #
face $-1 $-1 $295 $63 $-1 $296 forward single #
loop $-1 $297 $298 $117 #
cone-surface $-1 -45.825880243604999 12.789979233768932 5.6926772725676482 0.84804810408105047 0 -0.52991925155115449 0.13247981288778862 0 0.21201202602026262 1 I I -0.70710678118654746 0.70710678118654746 0.25 forward I I I I #
loop $-1 $-1 $299 $81 #
coedge $-1 $188 $188 $300 $301 reversed $118 $-1 #
face $-1 $-1 $302 $64 $-1 $303 forward single #
loop $-1 $304 $305 $120 #
cone-surface $-1 -45.825880243604999 15.670232403995172 5.6926772725676482 0.84804810408105047 0 -0.52991925155115449 0.13247981288778862 0 0.21201202602026262 1 I I -0.70710678118654746 0.70710678118654746 0.25 forward I I I I #
loop $-1 $-1 $306 $82 #
coedge $-1 $193 $193 $307 $308 reversed $121 $-1 #
face $-1 $309 $310 $65 $-1 $311 reversed single #
loop $-1 $-1 $312 $123 #
plane-surface $-1 -50.552079836420774 27.008360237092695 0.4880265713092129 -0.84804810408105047 0 0.52991925155115449 0.52991925155115449 0 0.84804810408105047 forward_v I I I I #
coedge $-1 $313 $314 $315 $316 reversed $124 $-1 #
face $-1 $-1 $317 $66 $-1 $318 forward single #
loop $-1 $319 $320 $126 #
cone-surface $-1 -45.825880243604999 25.568233651979575 5.6926772725676482 0.84804810408105047 0 -0.52991925155115449 0.13247981288778862 0 0.21201202602026262 1 I I -0.70710678118654746 0.70710678118654746 0.25 forward I I I I #
loop $-1 $-1 $321 $84 #
coedge $-1 $202 $202 $322 $323 reversed $127 $-1 #
face $-1 $-1 $324 $67 $-1 $325 forward single #
loop $-1 $326 $327 $129 #
cone-surface $-1 -45.825880243604999 28.448486822205815 5.6926772725676482 0.84804810408105047 0 -0.52991925155115449 0.13247981288778862 0 0.21201202602026262 1 I I -0.70710678118654746 0.70710678118654746 0.25 forward I I I I #
loop $-1 $-1 $328 $85 #
coedge $-1 $207 $207 $329 $330 reversed $130 $-1 #
face $-1 $331 $332 $68 $-1 $333 reversed single #
loop $-1 $-1 $334 $132 #
plane-surface $-1 43.068935954846097 25.028298525081166 144.11900259776806 0 1 0 0.66913061440640931 0 0.74314481823134659 forward_v I I I I #
coedge $-1 $335 $336 $337 $338 reversed $133 $-1 #
face $-1 $-1 $339 $69 $-1 $340 forward single #
loop $-1 $341 $342 $135 #
cone-surface $-1 43.751998256733145 26.550362997458969 5.9410660080062154 -0.66913061440640931 0 -0.74314481823134659 0.092893102278918324 0 -0.083641326800801163 1 I I -0.70710678118654746 0.70710678118654746 0.125 forward I I I I #
loop $-1 $-1 $343 $87 #
coedge $-1 $216 $216 $344 $345 reversed $136 $-1 #
face $-1 $-1 $346 $70 $-1 $347 forward single #
loop $-1 $348 $349 $138 #
cone-surface $-1 43.751998256733145 28.833459706025664 5.9410660080062154 -0.66913061440640931 0 -0.74314481823134659 0.092893102278918324 0 -0.083641326800801163 1 I I -0.70710678118654746 0.70710678118654746 0.125 forward I I I I #
loop $-1 $-1 $350 $88 #
coedge $-1 $221 $221 $351 $352 reversed $139 $-1 #
face $-1 $-1 $353 $71 $-1 $354 forward single #
loop $-1 $355 $356 $141 #
cone-surface $-1 43.751998256733145 31.11655641459236 5.9410660080062154 -0.66913061440640931 0 -0.74314481823134659 0.092893102278918324 0 -0.083641326800801163 1 I I -0.70710678118654746 0.70710678118654746 0.125 forward I I I I #
loop $-1 $-1 $357 $89 #
coedge $-1 $226 $226 $358 $359 reversed $142 $-1 #
face $-1 $360 $361 $54 $-1 $362 reversed single #
loop $-1 $-1 $363 $144 #
plane-surface $-1 0 -32.638620886970152 0 0 1 0 0 0 1 forward_v I I I I #
coedge $-1 $364 $365 $366 $367 forward $145 $-1 #
coedge $-1 $368 $147 $369 $370 forward $91 $-1 #
coedge $-1 $147 $368 $371 $372 forward $91 $-1 #
coedge $-1 $373 $374 $147 $234 reversed $375 $-1 #
edge $-1 $376 -32.638620886970152 $377 32.638620886970152 $233 $378 forward 7 unknown #
face $-1 $379 $380 $55 $-1 $381 reversed single #
loop $-1 $-1 $382 $148 #
plane-surface $-1 -50.552079836420788 0 0 1 0 0 0 0 -1 forward_v I I I I #
coedge $-1 $383 $384 $385 $386 reversed $149 $-1 #
coedge $-1 $387 $151 $388 $389 reversed $94 $-1 #
coedge $-1 $151 $387 $383 $390 forward $94 $-1 #
coedge $-1 $385 $391 $151 $242 forward $392 $-1 #
edge $-1 $393 -20.239799748373443 $394 -4.5578425288199753 $241 $395 forward 7 unknown #
face $-1 $396 $397 $56 $-1 $398 forward single #
loop $-1 $-1 $399 $152 #
plane-surface $-1 -136.29327076168187 -7.9661076522752889 54.065067193849835 0 -1 0 0.84804810408105047 0 -0.52991925155115449 forward_v I I I I #
coedge $-1 $400 $401 $402 $403 reversed $153 $-1 #
coedge $-1 $248 $155 $404 $405 reversed $97 $-1 #
coedge $-1 $155 $247 $400 $406 reversed $97 $-1 #
coedge $-1 $402 $407 $155 $250 forward $397 $-1 #
edge $-1 $408 17.594555544420146 $409 24.926834469849112 $249 $410 forward 7 unknown #
loop $-1 $-1 $256 $156 #
plane-surface $-1 -50.552079836420774 -11.326403017539235 0.4880265713092129 -0.84804810408105047 0 0.52991925155115449 0.52991925155115449 0 0.84804810408105047 forward_v I I I I #
loop $-1 $-1 $411 $99 #
coedge $-1 $254 $254 $255 $412 reversed $157 $-1 #
coedge $-1 $255 $255 $254 $412 forward $159 $-1 #
coedge $-1 $256 $256 $160 $257 forward $251 $-1 #
edge $-1 $413 0 $413 6.2831853071796004 $256 $414 forward 7 unknown #
loop $-1 $-1 $263 $161 #
plane-surface $-1 -50.552079836420774 -11.326403017539235 0.4880265713092129 -0.84804810408105047 0 0.52991925155115449 0.52991925155115449 0 0.84804810408105047 forward_v I I I I #
loop $-1 $-1 $415 $102 #
coedge $-1 $261 $261 $262 $416 reversed $162 $-1 #
coedge $-1 $262 $262 $261 $416 forward $164 $-1 #
coedge $-1 $263 $263 $165 $264 forward $258 $-1 #
edge $-1 $417 0 $417 6.2831853071796004 $263 $418 forward 7 unknown #
face $-1 $419 $420 $59 $-1 $421 forward single #
loop $-1 $-1 $422 $166 #
plane-surface $-1 -136.29327076168187 4.8121467659353545 54.065067193849835 0 -1 0 0.84804810408105047 0 -0.52991925155115449 forward_v I I I I #
coedge $-1 $423 $424 $425 $426 reversed $167 $-1 #
coedge $-1 $270 $169 $427 $428 reversed $106 $-1 #
coedge $-1 $169 $269 $423 $429 reversed $106 $-1 #
coedge $-1 $425 $430 $169 $272 forward $420 $-1 #
edge $-1 $431 17.594555544420146 $432 24.926834469849112 $271 $433 forward 7 unknown #
loop $-1 $-1 $278 $170 #
plane-surface $-1 -50.552079836420774 1.4518514006714085 0.4880265713092129 -0.84804810408105047 0 0.52991925155115449 0.52991925155115449 0 0.84804810408105047 forward_v I I I I #
loop $-1 $-1 $434 $108 #
coedge $-1 $276 $276 $277 $435 reversed $171 $-1 #
coedge $-1 $277 $277 $276 $435 forward $173 $-1 #
coedge $-1 $278 $278 $174 $279 forward $273 $-1 #
edge $-1 $436 0 $436 6.2831853071796004 $278 $437 forward 7 unknown #
loop $-1 $-1 $285 $175 #
plane-surface $-1 -50.552079836420774 1.4518514006714085 0.4880265713092129 -0.84804810408105047 0 0.52991925155115449 0.52991925155115449 0 0.84804810408105047 forward_v I I I I #
loop $-1 $-1 $438 $111 #
coedge $-1 $283 $283 $284 $439 reversed $176 $-1 #
coedge $-1 $284 $284 $283 $439 forward $178 $-1 #
coedge $-1 $285 $285 $179 $286 forward $280 $-1 #
edge $-1 $440 0 $440 6.2831853071796004 $285 $441 forward 7 unknown #
face $-1 $442 $443 $62 $-1 $444 forward single #
loop $-1 $-1 $445 $180 #
plane-surface $-1 -136.29327076168187 17.590401184145996 54.065067193849835 0 -1 0 0.84804810408105047 0 -0.52991925155115449 forward_v I I I I #
coedge $-1 $446 $447 $448 $449 reversed $181 $-1 #
coedge $-1 $292 $183 $450 $451 reversed $115 $-1 #
coedge $-1 $183 $291 $446 $452 reversed $115 $-1 #
coedge $-1 $448 $453 $183 $294 forward $443 $-1 #
edge $-1 $454 17.594555544420146 $455 24.926834469849112 $293 $456 forward 7 unknown #
loop $-1 $-1 $300 $184 #
plane-surface $-1 -50.552079836420774 14.230105818882052 0.4880265713092129 -0.84804810408105047 0 0.52991925155115449 0.52991925155115449 0 0.84804810408105047 forward_v I I I I #
loop $-1 $-1 $457 $117 #
coedge $-1 $298 $298 $299 $458 reversed $185 $-1 #
coedge $-1 $299 $299 $298 $458 forward $187 $-1 #
coedge $-1 $300 $300 $188 $301 forward $295 $-1 #
edge $-1 $459 0 $459 6.2831853071796004 $300 $460 forward 7 unknown #
loop $-1 $-1 $307 $189 #
plane-surface $-1 -50.552079836420774 14.230105818882052 0.4880265713092129 -0.84804810408105047 0 0.52991925155115449 0.52991925155115449 0 0.84804810408105047 forward_v I I I I #
loop $-1 $-1 $461 $120 #
coedge $-1 $305 $305 $306 $462 reversed $190 $-1 #
coedge $-1 $306 $306 $305 $462 forward $192 $-1 #
coedge $-1 $307 $307 $193 $308 forward $302 $-1 #
edge $-1 $463 0 $463 6.2831853071796004 $307 $464 forward 7 unknown #
face $-1 $465 $466 $65 $-1 $467 forward single #
loop $-1 $-1 $468 $194 #
plane-surface $-1 -136.29327076168187 30.36865560235664 54.065067193849835 0 -1 0 0.84804810408105047 0 -0.52991925155115449 forward_v I I I I #
coedge $-1 $469 $470 $471 $472 reversed $195 $-1 #
coedge $-1 $314 $197 $473 $474 reversed $124 $-1 #
coedge $-1 $197 $313 $469 $475 reversed $124 $-1 #
coedge $-1 $471 $476 $197 $316 forward $466 $-1 #
edge $-1 $477 17.594555544420146 $478 24.926834469849112 $315 $479 forward 7 unknown #
loop $-1 $-1 $322 $198 #
plane-surface $-1 -50.552079836420774 27.008360237092695 0.4880265713092129 -0.84804810408105047 0 0.52991925155115449 0.52991925155115449 0 0.84804810408105047 forward_v I I I I #
loop $-1 $-1 $480 $126 #
coedge $-1 $320 $320 $321 $481 reversed $199 $-1 #
coedge $-1 $321 $321 $320 $481 forward $201 $-1 #
coedge $-1 $322 $322 $202 $323 forward $317 $-1 #
edge $-1 $482 0 $482 6.2831853071796004 $322 $483 forward 7 unknown #
loop $-1 $-1 $329 $203 #
plane-surface $-1 -50.552079836420774 27.008360237092695 0.4880265713092129 -0.84804810408105047 0 0.52991925155115449 0.52991925155115449 0 0.84804810408105047 forward_v I I I I #
loop $-1 $-1 $484 $129 #
coedge $-1 $327 $327 $328 $485 reversed $204 $-1 #
coedge $-1 $328 $328 $327 $485 forward $206 $-1 #
coedge $-1 $329 $329 $207 $330 forward $324 $-1 #
edge $-1 $486 0 $486 6.2831853071796004 $329 $487 forward 7 unknown #
face $-1 $488 $489 $68 $-1 $490 forward single #
loop $-1 $-1 $491 $208 #
plane-surface $-1 0 32.638620886970152 0 0 -1 0 0 0 -1 forward_v I I I I #
coedge $-1 $492 $493 $494 $495 reversed $209 $-1 #
coedge $-1 $496 $211 $491 $497 reversed $133 $-1 #
coedge $-1 $211 $496 $492 $498 forward $133 $-1 #
coedge $-1 $494 $499 $211 $338 forward $489 $-1 #
edge $-1 $500 -18.221891033957316 $501 -10.611568672068337 $337 $502 forward 7 unknown #
loop $-1 $-1 $344 $212 #
plane-surface $-1 -24.582952526086103 28.833459706025657 68.983970235261168 0.66913061440640931 0 0.74314481823134659 0.74314481823134659 0 -0.66913061440640931 forward_v I I I I #
loop $-1 $-1 $503 $135 #
coedge $-1 $342 $342 $343 $504 reversed $213 $-1 #
coedge $-1 $343 $343 $342 $504 forward $215 $-1 #
coedge $-1 $344 $344 $216 $345 forward $339 $-1 #
edge $-1 $505 0 $505 6.2831853071796004 $344 $506 forward 7 unknown #
loop $-1 $-1 $351 $217 #
plane-surface $-1 -24.582952526086103 28.833459706025657 68.983970235261168 0.66913061440640931 0 0.74314481823134659 0.74314481823134659 0 -0.66913061440640931 forward_v I I I I #
loop $-1 $-1 $507 $138 #
coedge $-1 $349 $349 $350 $508 reversed $218 $-1 #
coedge $-1 $350 $350 $349 $508 forward $220 $-1 #
coedge $-1 $351 $351 $221 $352 forward $346 $-1 #
edge $-1 $509 0 $509 6.2831853071796004 $351 $510 forward 7 unknown #
loop $-1 $-1 $358 $222 #
plane-surface $-1 -24.582952526086103 28.833459706025657 68.983970235261168 0.66913061440640931 0 0.74314481823134659 0.74314481823134659 0 -0.66913061440640931 forward_v I I I I #
loop $-1 $-1 $511 $141 #
coedge $-1 $356 $356 $357 $512 reversed $223 $-1 #
coedge $-1 $357 $357 $356 $512 forward $225 $-1 #
coedge $-1 $358 $358 $226 $359 forward $353 $-1 #
edge $-1 $513 0 $513 6.2831853071796004 $358 $514 forward 7 unknown #
face $-1 $515 $516 $54 $-1 $517 reversed single #
loop $-1 $-1 $518 $227 #
plane-surface $-1 -50.552079836420788 0 0 1 0 0 0 0 -1 forward_v I I I I #
coedge $-1 $519 $371 $520 $521 forward $228 $-1 #
coedge $-1 $522 $230 $519 $523 forward $145 $-1 #
coedge $-1 $230 $522 $524 $525 forward $145 $-1 #
coedge $-1 $374 $373 $230 $367 reversed $375 $-1 #
edge $-1 $526 -32.638620886970152 $527 32.638620886970152 $366 $528 forward 7 unknown #
coedge $-1 $232 $231 $529 $530 forward $91 $-1 #
coedge $-1 $531 $532 $231 $370 reversed $516 $-1 #
edge $-1 $377 -50.552079836420788 $533 50.552079836420788 $369 $534 forward 7 unknown #
coedge $-1 $363 $535 $232 $372 reversed $228 $-1 #
edge $-1 $536 -50.552079836420788 $376 50.552079836420788 $371 $537 forward 7 unknown #
coedge $-1 $366 $233 $535 $538 forward $375 $-1 #
coedge $-1 $233 $366 $531 $539 reversed $375 $-1 #
loop $-1 $-1 $373 $515 #
vertex $-1 $234 $540 #
vertex $-1 $234 $541 #
straight-curve $-1 50.552079836420788 0 12.222126102703976 0 1 0 I I #
face $-1 $542 $543 $55 $-1 $544 forward single #
loop $-1 $-1 $388 $235 #
plane-surface $-1 0 -32.638620886970152 0 0 1 0 0 0 1 forward_v I I I I #
coedge $-1 $545 $546 $547 $548 forward $236 $-1 #
coedge $-1 $547 $238 $240 $390 reversed $149 $-1 #
coedge $-1 $238 $547 $549 $550 reversed $149 $-1 #
coedge $-1 $551 $241 $238 $386 forward $392 $-1 #
edge $-1 $394 3.2765719605178285 $552 7.0558934149633759 $385 $553 forward 7 unknown #
coedge $-1 $240 $239 $545 $554 reversed $94 $-1 #
coedge $-1 $555 $556 $239 $389 forward $380 $-1 #
edge $-1 $557 -50.552079836420788 $393 50.552079836420788 $388 $558 forward 7 unknown #
edge $-1 $559 -50.552079836420788 $394 50.552079836420788 $383 $560 forward 7 unknown #
coedge $-1 $241 $551 $555 $561 forward $392 $-1 #
loop $-1 $-1 $385 $542 #
vertex $-1 $389 $562 #
vertex $-1 $242 $563 #
straight-curve $-1 50.552079836420788 -12.398821138596709 8.4428046482584307 0 1 0 I I #
face $-1 $-1 $564 $56 $-1 $565 reversed single #
loop $-1 $-1 $249 $243 #
plane-surface $-1 0 0 12.222126102703976 0 0 1 1 0 0 forward_v I I I I #
coedge $-1 $566 $567 $568 $569 reversed $244 $-1 #
coedge $-1 $570 $246 $248 $406 forward $153 $-1 #
coedge $-1 $246 $570 $566 $571 forward $153 $-1 #
coedge $-1 $568 $249 $246 $403 forward $397 $-1 #
edge $-1 $409 -9.0234968740335635 $572 -2.3029061435056715 $402 $573 forward 7 unknown #
coedge $-1 $574 $575 $247 $405 forward $564 $-1 #
edge $-1 $576 -26.544507025615726 $408 -14.810407494220941 $404 $577 forward 7 unknown #
edge $-1 $409 -13.836596621025286 $576 2.6831817382962156e-014 $248 $578 forward 7 unknown #
coedge $-1 $249 $568 $574 $579 forward $397 $-1 #
vertex $-1 $405 $580 #
vertex $-1 $250 $581 #
straight-curve $-1 -68.146635380840934 -14.686698382803181 12.222126102703974 1 0 0 I I #
coedge $-1 $411 $411 $-1 $582 reversed $253 $-1 #
edge $-1 $583 0 $583 6.2831853071796004 $254 $584 forward 7 unknown #
vertex $-1 $257 $585 #
ellipse-curve $-1 -46.885940373706305 -12.766529602652355 6.3550763370065839 -0.84804810408105047 0 0.52991925155115449 0.26495962577557725 0 0.42402405204052523 1 I I #
coedge $-1 $415 $415 $-1 $586 reversed $260 $-1 #
edge $-1 $587 0 $587 6.2831853071796004 $261 $588 forward 7 unknown #
vertex $-1 $264 $589 #
ellipse-curve $-1 -46.885940373706305 -9.886276432426115 6.3550763370065839 -0.84804810408105047 0 0.52991925155115449 0.26495962577557725 0 0.42402405204052523 1 I I #
face $-1 $-1 $590 $59 $-1 $591 reversed single #
loop $-1 $-1 $271 $265 #
plane-surface $-1 0 0 12.222126102703976 0 0 1 1 0 0 forward_v I I I I #
coedge $-1 $592 $593 $594 $595 reversed $266 $-1 #
coedge $-1 $596 $268 $270 $429 forward $167 $-1 #
coedge $-1 $268 $596 $592 $597 forward $167 $-1 #
coedge $-1 $594 $271 $268 $426 forward $420 $-1 #
edge $-1 $432 -2.6343696649282418 $598 4.0862210655996503 $425 $599 forward 7 unknown #
coedge $-1 $600 $601 $269 $428 forward $590 $-1 #
edge $-1 $602 -26.544507025615726 $431 -14.810407494220941 $427 $603 forward 7 unknown #
edge $-1 $432 -13.836596621025286 $602 2.6831817382962156e-014 $270 $604 forward 7 unknown #
coedge $-1 $271 $594 $600 $605 forward $420 $-1 #
vertex $-1 $272 $606 #
vertex $-1 $272 $607 #
straight-curve $-1 -68.146635380840934 -1.9084439645925375 12.222126102703974 1 0 0 I I #
coedge $-1 $434 $434 $-1 $608 reversed $275 $-1 #
edge $-1 $609 0 $609 6.2831853071796004 $276 $610 forward 7 unknown #
vertex $-1 $279 $611 #
ellipse-curve $-1 -46.885940373706305 0.011724815558288526 6.3550763370065839 -0.84804810408105047 0 0.52991925155115449 0.26495962577557725 0 0.42402405204052523 1 I I #
coedge $-1 $438 $438 $-1 $612 reversed $282 $-1 #
edge $-1 $613 0 $613 6.2831853071796004 $283 $614 forward 7 unknown #
vertex $-1 $286 $615 #
ellipse-curve $-1 -46.885940373706305 2.8919779857845285 6.3550763370065839 -0.84804810408105047 0 0.52991925155115449 0.26495962577557725 0 0.42402405204052523 1 I I #
face $-1 $-1 $616 $62 $-1 $617 reversed single #
loop $-1 $-1 $293 $287 #
plane-surface $-1 0 0 12.222126102703976 0 0 1 1 0 0 forward_v I I I I #
coedge $-1 $618 $619 $620 $621 reversed $288 $-1 #
coedge $-1 $622 $290 $292 $452 forward $181 $-1 #
coedge $-1 $290 $622 $618 $623 forward $181 $-1 #
coedge $-1 $620 $293 $290 $449 forward $443 $-1 #
edge $-1 $455 3.75475754417708 $624 10.47534827470497 $448 $625 forward 7 unknown #
coedge $-1 $626 $627 $291 $451 forward $616 $-1 #
edge $-1 $628 -26.544507025615726 $454 -14.810407494220941 $450 $629 forward 7 unknown #
edge $-1 $455 -13.836596621025286 $628 2.6831817382962156e-014 $292 $630 forward 7 unknown #
coedge $-1 $293 $620 $626 $631 forward $443 $-1 #
vertex $-1 $294 $632 #
vertex $-1 $294 $633 #
straight-curve $-1 -68.146635380840934 10.869810453618106 12.222126102703974 1 0 0 I I #
coedge $-1 $457 $457 $-1 $634 reversed $297 $-1 #
edge $-1 $635 0 $635 6.2831853071796004 $298 $636 forward 7 unknown #
vertex $-1 $301 $637 #
ellipse-curve $-1 -46.885940373706305 12.789979233768932 6.3550763370065839 -0.84804810408105047 0 0.52991925155115449 0.26495962577557725 0 0.42402405204052523 1 I I #
coedge $-1 $461 $461 $-1 $638 reversed $304 $-1 #
edge $-1 $639 0 $639 6.2831853071796004 $305 $640 forward 7 unknown #
vertex $-1 $308 $641 #
ellipse-curve $-1 -46.885940373706305 15.670232403995172 6.3550763370065839 -0.84804810408105047 0 0.52991925155115449 0.26495962577557725 0 0.42402405204052523 1 I I #
face $-1 $-1 $642 $65 $-1 $643 reversed single #
loop $-1 $-1 $315 $309 #
plane-surface $-1 0 0 12.222126102703976 0 0 1 1 0 0 forward_v I I I I #
coedge $-1 $644 $645 $646 $647 reversed $310 $-1 #
coedge $-1 $648 $312 $314 $475 forward $195 $-1 #
coedge $-1 $312 $648 $644 $649 forward $195 $-1 #
coedge $-1 $646 $315 $312 $472 forward $466 $-1 #
edge $-1 $478 10.143884753282403 $650 16.864475483810292 $471 $651 forward 7 unknown #
coedge $-1 $652 $653 $313 $474 forward $642 $-1 #
edge $-1 $654 -26.544507025615726 $477 -14.810407494220941 $473 $655 forward 7 unknown #
edge $-1 $478 -13.836596621025286 $654 2.6831817382962156e-014 $314 $656 forward 7 unknown #
coedge $-1 $315 $646 $652 $657 forward $466 $-1 #
vertex $-1 $316 $658 #
vertex $-1 $316 $659 #
straight-curve $-1 -68.146635380840934 23.648064871828751 12.222126102703974 1 0 0 I I #
coedge $-1 $480 $480 $-1 $660 reversed $319 $-1 #
edge $-1 $661 0 $661 6.2831853071796004 $320 $662 forward 7 unknown #
vertex $-1 $323 $663 #
ellipse-curve $-1 -46.885940373706305 25.568233651979575 6.3550763370065839 -0.84804810408105047 0 0.52991925155115449 0.26495962577557725 0 0.42402405204052523 1 I I #
coedge $-1 $484 $484 $-1 $664 reversed $326 $-1 #
edge $-1 $665 0 $665 6.2831853071796004 $327 $666 forward 7 unknown #
vertex $-1 $330 $667 #
ellipse-curve $-1 -46.885940373706305 28.448486822205815 6.3550763370065839 -0.84804810408105047 0 0.52991925155115449 0.26495962577557725 0 0.42402405204052523 1 I I #
face $-1 $-1 $668 $68 $-1 $669 reversed single #
loop $-1 $-1 $337 $331 #
plane-surface $-1 0 0 12.222126102703976 0 0 1 1 0 0 forward_v I I I I #
coedge $-1 $670 $671 $335 $497 forward $332 $-1 #
coedge $-1 $493 $334 $336 $498 reversed $209 $-1 #
coedge $-1 $334 $492 $672 $673 reversed $209 $-1 #
coedge $-1 $674 $337 $334 $495 forward $489 $-1 #
edge $-1 $501 16.922992582036855 $675 29.017611858997739 $494 $676 forward 7 unknown #
coedge $-1 $336 $335 $677 $678 reversed $133 $-1 #
edge $-1 $679 -68.890169585690657 $500 -52.615253875795005 $491 $680 forward 7 unknown #
edge $-1 $681 -101.10415967284158 $501 -84.829243962945924 $492 $682 forward 7 unknown #
coedge $-1 $337 $674 $670 $683 forward $489 $-1 #
vertex $-1 $338 $684 #
vertex $-1 $338 $685 #
straight-curve $-1 38.457460559459903 14.416729853012828 12.222126102703974 0 -1 0 I I #
coedge $-1 $503 $503 $-1 $686 reversed $341 $-1 #
edge $-1 $687 0 $687 6.2831853071796004 $342 $688 forward 7 unknown #
vertex $-1 $345 $689 #
ellipse-curve $-1 44.504770197940346 26.550362997458969 6.7771039285164694 0.66913061440640931 0 0.74314481823134659 0.18578620455783665 0 -0.16728265360160233 1 I I #
coedge $-1 $507 $507 $-1 $690 reversed $348 $-1 #
edge $-1 $691 0 $691 6.2831853071796004 $349 $692 forward 7 unknown #
vertex $-1 $352 $693 #
ellipse-curve $-1 44.504770197940346 28.833459706025664 6.7771039285164694 0.66913061440640931 0 0.74314481823134659 0.18578620455783665 0 -0.16728265360160233 1 I I #
coedge $-1 $511 $511 $-1 $694 reversed $355 $-1 #
edge $-1 $695 0 $695 6.2831853071796004 $356 $696 forward 7 unknown #
vertex $-1 $359 $697 #
ellipse-curve $-1 44.504770197940346 31.11655641459236 6.7771039285164694 0.66913061440640931 0 0.74314481823134659 0.18578620455783665 0 -0.16728265360160233 1 I I #
face $-1 $-1 $375 $54 $-1 $698 reversed single #
loop $-1 $-1 $531 $360 #
plane-surface $-1 0 32.638620886970152 0 0 -1 0 0 0 -1 forward_v I I I I #
coedge $-1 $699 $529 $532 $700 forward $361 $-1 #
coedge $-1 $535 $363 $364 $523 reversed $228 $-1 #
coedge $-1 $529 $699 $363 $521 reversed $361 $-1 #
edge $-1 $536 -12.222126102703976 $701 12.222126102703976 $520 $702 forward 7 unknown #
coedge $-1 $365 $364 $699 $703 forward $145 $-1 #
edge $-1 $527 -50.552079836420788 $701 50.552079836420788 $519 $704 forward 7 unknown #
coedge $-1 $532 $531 $365 $525 reversed $516 $-1 #
edge $-1 $705 -50.552079836420788 $526 50.552079836420788 $524 $706 forward 7 unknown #
vertex $-1 $367 $707 #
vertex $-1 $538 $708 #
straight-curve $-1 50.552079836420788 0 -12.222126102703976 0 -1 0 I I #
coedge $-1 $518 $520 $368 $530 reversed $361 $-1 #
edge $-1 $533 -32.638620886970152 $536 32.638620886970152 $529 $709 forward 7 unknown #
coedge $-1 $524 $369 $374 $539 forward $516 $-1 #
coedge $-1 $369 $524 $518 $700 reversed $516 $-1 #
vertex $-1 $370 $710 #
straight-curve $-1 0 32.638620886970152 12.222126102703976 -1 0 0 I I #
coedge $-1 $371 $519 $373 $538 reversed $228 $-1 #
vertex $-1 $530 $711 #
straight-curve $-1 0 -32.638620886970152 12.222126102703976 1 0 0 I I #
edge $-1 $376 -12.222126102703976 $527 12.222126102703976 $373 $712 forward 7 unknown #
edge $-1 $377 -12.222126102703976 $526 12.222126102703976 $374 $713 forward 7 unknown #
point $-1 50.552079836420788 -32.638620886970152 12.222126102703976 #
point $-1 50.552079836420788 32.638620886970152 12.222126102703976 #
face $-1 $-1 $392 $55 $-1 $714 reversed single #
loop $-1 $-1 $549 $379 #
plane-surface $-1 0 0 12.222126102703976 0 0 1 1 0 0 forward_v I I I I #
coedge $-1 $715 $382 $387 $554 forward $236 $-1 #
coedge $-1 $382 $715 $716 $717 reversed $236 $-1 #
coedge $-1 $384 $383 $382 $548 reversed $149 $-1 #
edge $-1 $718 -7.0558934149633759 $559 -3.2765719605178285 $382 $719 forward 7 unknown #
coedge $-1 $716 $720 $384 $550 forward $543 $-1 #
edge $-1 $552 -50.552079836420788 $718 50.552079836420788 $549 $721 forward 7 unknown #
coedge $-1 $391 $385 $720 $722 reversed $392 $-1 #
vertex $-1 $386 $723 #
straight-curve $-1 50.552079836420788 -16.956663667416684 5.1662326877406022 0 0 1 I I #
edge $-1 $559 4.5578425288199753 $557 20.239799748373443 $545 $724 forward 7 unknown #
coedge $-1 $725 $388 $391 $561 reversed $380 $-1 #
coedge $-1 $388 $725 $715 $726 forward $380 $-1 #
vertex $-1 $389 $727 #
straight-curve $-1 0 -32.638620886970152 8.4428046482584307 1 0 0 I I #
vertex $-1 $554 $728 #
straight-curve $-1 0 -16.956663667416684 8.4428046482584307 1 0 0 I I #
edge $-1 $729 -12.222126102703976 $393 -8.4428046482584307 $391 $730 forward 7 unknown #
point $-1 50.552079836420788 -32.638620886970152 8.4428046482584307 #
point $-1 50.552079836420788 -16.956663667416684 8.4428046482584307 #
loop $-1 $-1 $404 $396 #
plane-surface $-1 -50.552079836420788 0 0 1 0 0 0 0 -1 forward_v I I I I #
coedge $-1 $567 $399 $401 $571 reversed $244 $-1 #
coedge $-1 $399 $566 $731 $732 reversed $244 $-1 #
coedge $-1 $407 $402 $399 $569 forward $397 $-1 #
edge $-1 $572 -24.926834469849112 $733 -17.594555544420146 $568 $734 forward 7 unknown #
coedge $-1 $401 $400 $575 $735 reversed $153 $-1 #
edge $-1 $736 -2.6831817382962156e-014 $572 13.836596621025286 $566 $737 forward 7 unknown #
vertex $-1 $403 $738 #
straight-curve $-1 -43.219800910991822 -5.6632015087696175 12.222126102703976 0 1 0 I I #
coedge $-1 $731 $404 $407 $579 reversed $564 $-1 #
coedge $-1 $404 $731 $570 $735 forward $564 $-1 #
vertex $-1 $405 $739 #
straight-curve $-1 -50.552079836420788 -14.686698382803181 27.032533596924917 0 0 1 I I #
straight-curve $-1 -50.552079836420774 -14.686698382803181 0.4880265713092129 -0.52991925155115449 0 -0.84804810408105047 I I #
edge $-1 $733 7.9661076522752889 $408 14.686698382803181 $574 $740 forward 7 unknown #
point $-1 -50.552079836420788 -14.686698382803181 12.222126102703976 #
point $-1 -43.219800910991822 -14.686698382803181 12.222126102703976 #
edge $-1 $741 1 $741 0 $411 $-1 forward 7 unknown #
vertex $-1 $412 $742 #
ellipse-curve $-1 -46.03789226962526 -12.766529602652355 5.8251570854554364 -0.84804810408105047 0 0.52991925155115449 0.26495962577557725 0 0.42402405204052523 1 I I #
point $-1 -46.620980747930737 -12.766529602652355 6.7791003890471169 #
edge $-1 $743 1 $743 0 $415 $-1 forward 7 unknown #
vertex $-1 $416 $744 #
ellipse-curve $-1 -46.03789226962526 -9.886276432426115 5.8251570854554364 -0.84804810408105047 0 0.52991925155115449 0.26495962577557725 0 0.42402405204052523 1 I I #
point $-1 -46.620980747930737 -9.886276432426115 6.7791003890471169 #
loop $-1 $-1 $427 $419 #
plane-surface $-1 -50.552079836420788 0 0 1 0 0 0 0 -1 forward_v I I I I #
coedge $-1 $593 $422 $424 $597 reversed $266 $-1 #
coedge $-1 $422 $592 $745 $746 reversed $266 $-1 #
coedge $-1 $430 $425 $422 $595 forward $420 $-1 #
edge $-1 $598 -24.926834469849112 $747 -17.594555544420146 $594 $748 forward 7 unknown #
coedge $-1 $424 $423 $601 $749 reversed $167 $-1 #
edge $-1 $750 -2.6831817382962156e-014 $598 13.836596621025286 $592 $751 forward 7 unknown #
vertex $-1 $426 $752 #
straight-curve $-1 -43.219800910991822 0.72592570033570425 12.222126102703976 0 1 0 I I #
coedge $-1 $745 $427 $430 $605 reversed $590 $-1 #
coedge $-1 $427 $745 $596 $749 forward $590 $-1 #
vertex $-1 $428 $753 #
straight-curve $-1 -50.552079836420788 -1.9084439645925375 27.032533596924917 0 0 1 I I #
straight-curve $-1 -50.552079836420774 -1.9084439645925375 0.4880265713092129 -0.52991925155115449 0 -0.84804810408105047 I I #
edge $-1 $747 -4.8121467659353545 $431 1.9084439645925375 $600 $754 forward 7 unknown #
point $-1 -50.552079836420788 -1.9084439645925375 12.222126102703976 #
point $-1 -43.219800910991822 -1.9084439645925375 12.222126102703976 #
edge $-1 $755 1 $755 0 $434 $-1 forward 7 unknown #
vertex $-1 $435 $756 #
ellipse-curve $-1 -46.03789226962526 0.011724815558288526 5.8251570854554364 -0.84804810408105047 0 0.52991925155115449 0.26495962577557725 0 0.42402405204052523 1 I I #
point $-1 -46.620980747930737 0.011724815558288526 6.7791003890471169 #
edge $-1 $757 1 $757 0 $438 $-1 forward 7 unknown #
vertex $-1 $439 $758 #
ellipse-curve $-1 -46.03789226962526 2.8919779857845285 5.8251570854554364 -0.84804810408105047 0 0.52991925155115449 0.26495962577557725 0 0.42402405204052523 1 I I #
point $-1 -46.620980747930737 2.8919779857845285 6.7791003890471169 #
loop $-1 $-1 $450 $442 #
plane-surface $-1 -50.552079836420788 0 0 1 0 0 0 0 -1 forward_v I I I I #
coedge $-1 $619 $445 $447 $623 reversed $288 $-1 #
coedge $-1 $445 $618 $759 $760 reversed $288 $-1 #
coedge $-1 $453 $448 $445 $621 forward $443 $-1 #
edge $-1 $624 -24.926834469849112 $761 -17.594555544420146 $620 $762 forward 7 unknown #
coedge $-1 $447 $446 $627 $763 reversed $181 $-1 #
edge $-1 $764 -2.6831817382962156e-014 $624 13.836596621025286 $618 $765 forward 7 unknown #
vertex $-1 $449 $766 #
straight-curve $-1 -43.219800910991822 7.115052909441026 12.222126102703976 0 1 0 I I #
coedge $-1 $759 $450 $453 $631 reversed $616 $-1 #
coedge $-1 $450 $759 $622 $763 forward $616 $-1 #
vertex $-1 $451 $767 #
straight-curve $-1 -50.552079836420788 10.869810453618106 27.032533596924917 0 0 1 I I #
straight-curve $-1 -50.552079836420774 10.869810453618106 0.4880265713092129 -0.52991925155115449 0 -0.84804810408105047 I I #
edge $-1 $761 -17.590401184145996 $454 -10.869810453618106 $626 $768 forward 7 unknown #
point $-1 -50.552079836420788 10.869810453618106 12.222126102703976 #
point $-1 -43.219800910991822 10.869810453618106 12.222126102703976 #
edge $-1 $769 1 $769 0 $457 $-1 forward 7 unknown #
vertex $-1 $458 $770 #
ellipse-curve $-1 -46.03789226962526 12.789979233768932 5.8251570854554364 -0.84804810408105047 0 0.52991925155115449 0.26495962577557725 0 0.42402405204052523 1 I I #
point $-1 -46.620980747930737 12.789979233768932 6.7791003890471169 #
edge $-1 $771 1 $771 0 $461 $-1 forward 7 unknown #
vertex $-1 $462 $772 #
ellipse-curve $-1 -46.03789226962526 15.670232403995172 5.8251570854554364 -0.84804810408105047 0 0.52991925155115449 0.26495962577557725 0 0.42402405204052523 1 I I #
point $-1 -46.620980747930737 15.670232403995172 6.7791003890471169 #
loop $-1 $-1 $473 $465 #
plane-surface $-1 -50.552079836420788 0 0 1 0 0 0 0 -1 forward_v I I I I #
coedge $-1 $645 $468 $470 $649 reversed $310 $-1 #
coedge $-1 $468 $644 $773 $774 reversed $310 $-1 #
coedge $-1 $476 $471 $468 $647 forward $466 $-1 #
edge $-1 $650 -24.926834469849112 $775 -17.594555544420146 $646 $776 forward 7 unknown #
coedge $-1 $470 $469 $653 $777 reversed $195 $-1 #
edge $-1 $778 -2.6831817382962156e-014 $650 13.836596621025286 $644 $779 forward 7 unknown #
vertex $-1 $472 $780 #
straight-curve $-1 -43.219800910991822 13.504180118546348 12.222126102703976 0 1 0 I I #
coedge $-1 $773 $473 $476 $657 reversed $642 $-1 #
coedge $-1 $473 $773 $648 $777 forward $642 $-1 #
vertex $-1 $474 $781 #
straight-curve $-1 -50.552079836420788 23.648064871828751 27.032533596924917 0 0 1 I I #
straight-curve $-1 -50.552079836420774 23.648064871828751 0.4880265713092129 -0.52991925155115449 0 -0.84804810408105047 I I #
edge $-1 $775 -30.36865560235664 $477 -23.648064871828751 $652 $782 forward 7 unknown #
point $-1 -50.552079836420788 23.648064871828751 12.222126102703976 #
point $-1 -43.219800910991822 23.648064871828751 12.222126102703976 #
edge $-1 $783 1 $783 0 $480 $-1 forward 7 unknown #
vertex $-1 $481 $784 #
ellipse-curve $-1 -46.03789226962526 25.568233651979575 5.8251570854554364 -0.84804810408105047 0 0.52991925155115449 0.26495962577557725 0 0.42402405204052523 1 I I #
point $-1 -46.620980747930737 25.568233651979575 6.7791003890471169 #
edge $-1 $785 1 $785 0 $484 $-1 forward 7 unknown #
vertex $-1 $485 $786 #
ellipse-curve $-1 -46.03789226962526 28.448486822205815 5.8251570854554364 -0.84804810408105047 0 0.52991925155115449 0.26495962577557725 0 0.42402405204052523 1 I I #
point $-1 -46.620980747930737 28.448486822205815 6.7791003890471169 #
loop $-1 $-1 $677 $488 #
plane-surface $-1 50.552079836420788 0 0 -1 0 0 0 0 1 forward_v I I I I #
coedge $-1 $671 $491 $499 $683 reversed $332 $-1 #
coedge $-1 $491 $670 $787 $788 forward $332 $-1 #
coedge $-1 $677 $789 $493 $673 forward $668 $-1 #
edge $-1 $675 59.837375196180055 $681 70.727419544555062 $672 $790 forward 7 unknown #
coedge $-1 $499 $494 $789 $791 forward $489 $-1 #
vertex $-1 $791 $792 #
straight-curve $-1 21.534467977423049 25.028298525081166 12.222126102703982 1 0 0 I I #
coedge $-1 $787 $672 $496 $678 forward $668 $-1 #
edge $-1 $681 10.611568672068337 $679 18.221891033957316 $677 $793 forward 7 unknown #
vertex $-1 $678 $794 #
straight-curve $-1 -0.64329271826393075 32.638620886970152 47.428603255763896 -0.74314481823134659 0 0.66913061440640931 I I #
vertex $-1 $678 $795 #
straight-curve $-1 -24.582952526086103 25.028298525081166 68.983970235261168 -0.74314481823134659 0 0.66913061440640931 I I #
edge $-1 $796 -50.552079836420788 $500 -38.457460559459903 $670 $797 forward 7 unknown #
point $-1 38.457460559459903 32.638620886970145 12.222126102703974 #
point $-1 38.457460559459903 25.028298525081166 12.222126102703974 #
edge $-1 $798 1 $798 0 $503 $-1 forward 7 unknown #
vertex $-1 $504 $799 #
ellipse-curve $-1 43.835639583533947 26.550362997458969 6.0339591102851333 0.66913061440640931 0 0.74314481823134659 0.18578620455783665 0 -0.16728265360160233 1 I I #
point $-1 44.690556402498196 26.550362997458969 6.6098212749148777 #
edge $-1 $800 1 $800 0 $507 $-1 forward 7 unknown #
vertex $-1 $508 $801 #
ellipse-curve $-1 43.835639583533947 28.833459706025664 6.0339591102851333 0.66913061440640931 0 0.74314481823134659 0.18578620455783665 0 -0.16728265360160233 1 I I #
point $-1 44.690556402498196 28.833459706025664 6.6098212749148777 #
edge $-1 $802 1 $802 0 $511 $-1 forward 7 unknown #
vertex $-1 $512 $803 #
ellipse-curve $-1 43.835639583533947 31.11655641459236 6.0339591102851333 0.66913061440640931 0 0.74314481823134659 0.18578620455783665 0 -0.16728265360160233 1 I I #
point $-1 44.690556402498196 31.11655641459236 6.6098212749148777 #
plane-surface $-1 50.552079836420788 0 0 -1 0 0 0 0 1 forward_v I I I I #
coedge $-1 $520 $518 $522 $703 reversed $361 $-1 #
edge $-1 $533 -12.222126102703976 $705 12.222126102703976 $532 $804 forward 7 unknown #
vertex $-1 $703 $805 #
straight-curve $-1 -50.552079836420788 -32.638620886970152 0 0 0 -1 I I #
edge $-1 $701 -32.638620886970152 $705 32.638620886970152 $699 $806 forward 7 unknown #
straight-curve $-1 0 -32.638620886970152 -12.222126102703976 -1 0 0 I I #
vertex $-1 $525 $807 #
straight-curve $-1 0 32.638620886970152 -12.222126102703976 1 0 0 I I #
point $-1 50.552079836420788 32.638620886970152 -12.222126102703976 #
point $-1 50.552079836420788 -32.638620886970152 -12.222126102703976 #
straight-curve $-1 -50.552079836420788 0 12.222126102703976 0 -1 0 I I #
point $-1 -50.552079836420788 32.638620886970152 12.222126102703976 #
point $-1 -50.552079836420788 -32.638620886970152 12.222126102703976 #
straight-curve $-1 50.552079836420788 -32.638620886970152 0 0 0 -1 I I #
straight-curve $-1 50.552079836420788 32.638620886970152 0 0 0 -1 I I #
plane-surface $-1 50.552079836420788 0 0 -1 0 0 0 0 1 forward_v I I I I #
coedge $-1 $546 $545 $556 $726 reversed $236 $-1 #
coedge $-1 $808 $549 $546 $717 forward $543 $-1 #
edge $-1 $718 16.956663667416684 $809 32.638620886970152 $546 $810 forward 7 unknown #
vertex $-1 $717 $811 #
straight-curve $-1 -50.552079836420788 -16.956663667416684 5.1662326877406022 0 0 -1 I I #
coedge $-1 $549 $808 $551 $722 forward $543 $-1 #
straight-curve $-1 0 -16.956663667416684 12.222126102703976 -1 0 0 I I #
edge $-1 $729 -32.638620886970152 $552 -16.956663667416684 $551 $812 forward 7 unknown #
point $-1 50.552079836420788 -16.956663667416684 12.222126102703978 #
straight-curve $-1 -50.552079836420788 -12.398821138596709 8.4428046482584307 0 -1 0 I I #
coedge $-1 $556 $555 $808 $813 reversed $380 $-1 #
edge $-1 $809 -12.222126102703976 $557 -8.4428046482584307 $715 $814 forward 7 unknown #
point $-1 -50.552079836420788 -32.638620886970152 8.4428046482584307 #
point $-1 -50.552079836420788 -16.956663667416684 8.4428046482584307 #
vertex $-1 $722 $815 #
straight-curve $-1 50.552079836420788 -32.638620886970152 0 0 0 -1 I I #
coedge $-1 $575 $574 $567 $732 forward $564 $-1 #
edge $-1 $733 14.810407494220941 $736 26.544507025615726 $731 $816 forward 7 unknown #
vertex $-1 $579 $817 #
straight-curve $-1 -68.146635380840934 -7.9661076522752889 12.222126102703974 -1 0 0 I I #
edge $-1 $736 2.3029061435056715 $576 9.0234968740335635 $575 $818 forward 7 unknown #
vertex $-1 $735 $819 #
straight-curve $-1 -50.552079836420774 -7.9661076522752889 0.4880265713092129 0.52991925155115449 0 0.84804810408105047 I I #
point $-1 -43.219800910991822 -7.9661076522752889 12.222126102703976 #
point $-1 -50.552079836420788 -14.686698382803181 0.48802657130919014 #
straight-curve $-1 -50.552079836420788 0 12.222126102703976 0 -1 0 I I #
vertex $-1 $582 $820 #
point $-1 -45.772932643849686 -12.766529602652355 6.2491811374959623 #
vertex $-1 $586 $821 #
point $-1 -45.772932643849686 -9.886276432426115 6.2491811374959623 #
coedge $-1 $601 $600 $593 $746 forward $590 $-1 #
edge $-1 $747 14.810407494220941 $750 26.544507025615726 $745 $822 forward 7 unknown #
vertex $-1 $605 $823 #
straight-curve $-1 -68.146635380840934 4.8121467659353545 12.222126102703974 -1 0 0 I I #
edge $-1 $750 -4.0862210655996503 $602 2.6343696649282418 $601 $824 forward 7 unknown #
vertex $-1 $749 $825 #
straight-curve $-1 -50.552079836420774 4.8121467659353545 0.4880265713092129 0.52991925155115449 0 0.84804810408105047 I I #
point $-1 -43.219800910991822 4.8121467659353545 12.222126102703976 #
point $-1 -50.552079836420788 -1.9084439645925375 0.48802657130919014 #
straight-curve $-1 -50.552079836420788 0 12.222126102703976 0 -1 0 I I #
vertex $-1 $608 $826 #
point $-1 -45.772932643849686 0.011724815558288526 6.2491811374959623 #
vertex $-1 $612 $827 #
point $-1 -45.772932643849686 2.8919779857845285 6.2491811374959623 #
coedge $-1 $627 $626 $619 $760 forward $616 $-1 #
edge $-1 $761 14.810407494220941 $764 26.544507025615726 $759 $828 forward 7 unknown #
vertex $-1 $631 $829 #
straight-curve $-1 -68.146635380840934 17.590401184145996 12.222126102703974 -1 0 0 I I #
edge $-1 $764 -10.47534827470497 $628 -3.75475754417708 $627 $830 forward 7 unknown #
vertex $-1 $763 $831 #
straight-curve $-1 -50.552079836420774 17.590401184145996 0.4880265713092129 0.52991925155115449 0 0.84804810408105047 I I #
point $-1 -43.219800910991822 17.590401184145996 12.222126102703976 #
point $-1 -50.552079836420788 10.869810453618106 0.48802657130919014 #
straight-curve $-1 -50.552079836420788 0 12.222126102703976 0 -1 0 I I #
vertex $-1 $634 $832 #
point $-1 -45.772932643849686 12.789979233768932 6.2491811374959623 #
vertex $-1 $638 $833 #
point $-1 -45.772932643849686 15.670232403995172 6.2491811374959623 #
coedge $-1 $653 $652 $645 $774 forward $642 $-1 #
edge $-1 $775 14.810407494220941 $778 26.544507025615726 $773 $834 forward 7 unknown #
vertex $-1 $657 $835 #
straight-curve $-1 -68.146635380840934 30.36865560235664 12.222126102703974 -1 0 0 I I #
edge $-1 $778 -16.864475483810292 $654 -10.143884753282403 $653 $836 forward 7 unknown #
vertex $-1 $777 $837 #
straight-curve $-1 -50.552079836420774 30.36865560235664 0.4880265713092129 0.52991925155115449 0 0.84804810408105047 I I #
point $-1 -43.219800910991822 30.36865560235664 12.222126102703976 #
point $-1 -50.552079836420788 23.648064871828751 0.48802657130919014 #
straight-curve $-1 -50.552079836420788 0 12.222126102703976 0 -1 0 I I #
vertex $-1 $660 $838 #
point $-1 -45.772932643849686 25.568233651979575 6.2491811374959623 #
vertex $-1 $664 $839 #
point $-1 -45.772932643849686 28.448486822205815 6.2491811374959623 #
coedge $-1 $789 $677 $671 $788 reversed $668 $-1 #
edge $-1 $796 -12.222126102703976 $679 -1.3320817543289678 $787 $840 forward 7 unknown #
coedge $-1 $672 $787 $674 $791 reversed $668 $-1 #
straight-curve $-1 50.552079836420788 25.028298525081166 72.05950129888403 0 0 -1 I I #
edge $-1 $675 25.028298525081166 $796 32.638620886970152 $789 $841 forward 7 unknown #
point $-1 50.552079836420788 25.028298525081166 12.222126102703976 #
straight-curve $-1 50.552079836420781 14.416729853012828 1.332081754328982 0 1 0 I I #
point $-1 50.552079836420788 32.638620886970145 1.3320817543289678 #
point $-1 50.552079836420788 25.028298525081166 1.3320817543289678 #
vertex $-1 $791 $842 #
straight-curve $-1 0 32.638620886970152 12.222126102703976 -1 0 0 I I #
vertex $-1 $686 $843 #
point $-1 44.021425788091783 26.550362997458969 5.866676456683531 #
vertex $-1 $690 $844 #
point $-1 44.021425788091783 28.833459706025664 5.866676456683531 #
vertex $-1 $694 $845 #
point $-1 44.021425788091783 31.11655641459236 5.866676456683531 #
straight-curve $-1 -50.552079836420788 32.638620886970152 0 0 0 -1 I I #
point $-1 -50.552079836420788 -32.638620886970152 -12.222126102703976 #
straight-curve $-1 -50.552079836420788 0 -12.222126102703976 0 1 0 I I #
point $-1 -50.552079836420788 32.638620886970152 -12.222126102703976 #
coedge $-1 $720 $716 $725 $813 forward $543 $-1 #
vertex $-1 $717 $846 #
straight-curve $-1 -50.552079836420788 0 12.222126102703976 0 -1 0 I I #
point $-1 -50.552079836420788 -16.956663667416684 12.222126102703978 #
straight-curve $-1 50.552079836420788 0 12.222126102703976 0 1 0 I I #
edge $-1 $809 -50.552079836420788 $729 50.552079836420788 $725 $847 forward 7 unknown #
straight-curve $-1 -50.552079836420788 -32.638620886970152 0 0 0 -1 I I #
point $-1 50.552079836420788 -32.638620886970152 12.222126102703976 #
straight-curve $-1 -50.552079836420788 -7.9661076522752889 27.032533596924917 0 0 -1 I I #
point $-1 -50.552079836420788 -7.9661076522752889 12.222126102703976 #
straight-curve $-1 -50.552079836420788 -5.6632015087696175 0.48802657130919064 0 -1 0 I I #
point $-1 -50.552079836420788 -7.9661076522752889 0.48802657130919014 #
point $-1 -45.613868217584738 -12.766529602652355 5.56019745967986 #
point $-1 -45.613868217584738 -9.886276432426115 5.56019745967986 #
straight-curve $-1 -50.552079836420788 4.8121467659353545 27.032533596924917 0 0 -1 I I #
point $-1 -50.552079836420788 4.8121467659353545 12.222126102703976 #
straight-curve $-1 -50.552079836420788 0.72592570033570425 0.48802657130919064 0 -1 0 I I #
point $-1 -50.552079836420788 4.8121467659353545 0.48802657130919014 #
point $-1 -45.613868217584738 0.011724815558288526 5.56019745967986 #
point $-1 -45.613868217584738 2.8919779857845285 5.56019745967986 #
straight-curve $-1 -50.552079836420788 17.590401184145996 27.032533596924917 0 0 -1 I I #
point $-1 -50.552079836420788 17.590401184145996 12.222126102703976 #
straight-curve $-1 -50.552079836420788 7.115052909441026 0.48802657130919064 0 -1 0 I I #
point $-1 -50.552079836420788 17.590401184145996 0.48802657130919014 #
point $-1 -45.613868217584738 12.789979233768932 5.56019745967986 #
point $-1 -45.613868217584738 15.670232403995172 5.56019745967986 #
straight-curve $-1 -50.552079836420788 30.36865560235664 27.032533596924917 0 0 -1 I I #
point $-1 -50.552079836420788 30.36865560235664 12.222126102703976 #
straight-curve $-1 -50.552079836420788 13.504180118546348 0.48802657130919064 0 -1 0 I I #
point $-1 -50.552079836420788 30.36865560235664 0.48802657130919014 #
point $-1 -45.613868217584738 25.568233651979575 5.56019745967986 #
point $-1 -45.613868217584738 28.448486822205815 5.56019745967986 #
straight-curve $-1 50.552079836420788 32.638620886970152 0 0 0 -1 I I #
straight-curve $-1 50.552079836420788 0 12.222126102703976 0 1 0 I I #
point $-1 50.552079836420788 32.638620886970152 12.222126102703976 #
point $-1 43.668356929932344 26.550362997458969 5.8481729057272975 #
point $-1 43.668356929932344 28.833459706025664 5.8481729057272975 #
point $-1 43.668356929932344 31.11655641459236 5.8481729057272975 #
point $-1 -50.552079836420788 -32.638620886970152 12.222126102703976 #
straight-curve $-1 0 -32.638620886970152 12.222126102703976 1 0 0 I I #
End-of-ACIS-data 