500 0 18 0           
7 Unknown 11 ACIS 5.0 NT 24 Fri Mar 26 20:35:12 1999 
-1 9.9999999999999995e-007 1e-010 
body $-1 $18 $-1 $19 #
body $-1 $20 $-1 $21 #
body $-1 $22 $-1 $23 #
body $-1 $24 $-1 $25 #
body $-1 $26 $-1 $27 #
body $-1 $28 $-1 $29 #
body $-1 $30 $-1 $31 #
body $-1 $32 $-1 $33 #
body $-1 $34 $-1 $35 #
body $-1 $36 $-1 $37 #
body $-1 $38 $-1 $39 #
body $-1 $40 $-1 $41 #
body $-1 $42 $-1 $43 #
body $-1 $44 $-1 $45 #
body $-1 $46 $-1 $47 #
body $-1 $48 $-1 $49 #
body $-1 $50 $-1 $51 #
body $-1 $52 $-1 $53 #
lump $-1 $-1 $54 $0 #
transform $-1 1 0 0 0 1 0 0 0 1 62.107608264412363 36.750713443388705 7.4288773938300565 1 rotate no_reflect no_shear #
lump $-1 $-1 $55 $1 #
transform $-1 1 0 0 0 1 0 0 0 1 62.107608264412363 36.750713443388705 7.4288773938300565 1 rotate no_reflect no_shear #
lump $-1 $-1 $56 $2 #
transform $-1 1 0 0 0 1 0 0 0 1 62.107608264412363 36.750713443388705 7.4288773938300565 1 rotate no_reflect no_shear #
lump $-1 $-1 $57 $3 #
transform $-1 1 0 0 0 1 0 0 0 1 62.107608264412363 36.750713443388705 7.4288773938300565 1 rotate no_reflect no_shear #
lump $-1 $-1 $58 $4 #
transform $-1 1 0 0 0 1 0 0 0 1 62.107608264412363 36.750713443388705 7.4288773938300565 1 rotate no_reflect no_shear #
lump $-1 $-1 $59 $5 #
transform $-1 1 0 0 0 1 0 0 0 1 62.107608264412363 36.750713443388705 7.4288773938300565 1 rotate no_reflect no_shear #
lump $-1 $-1 $60 $6 #
transform $-1 1 0 0 0 1 0 0 0 1 62.107608264412363 36.750713443388705 7.4288773938300565 1 rotate no_reflect no_shear #
lump $-1 $-1 $61 $7 #
transform $-1 1 0 0 0 1 0 0 0 1 62.107608264412363 36.750713443388705 7.4288773938300565 1 rotate no_reflect no_shear #
lump $-1 $-1 $62 $8 #
transform $-1 1 0 0 0 1 0 0 0 1 62.107608264412363 36.750713443388705 7.4288773938300565 1 rotate no_reflect no_shear #
lump $-1 $-1 $63 $9 #
transform $-1 1 0 0 0 1 0 0 0 1 62.107608264412363 36.750713443388705 7.4288773938300565 1 rotate no_reflect no_shear #
lump $-1 $-1 $64 $10 #
transform $-1 1 0 0 0 1 0 0 0 1 62.107608264412363 36.750713443388705 7.4288773938300565 1 rotate no_reflect no_shear #
lump $-1 $-1 $65 $11 #
transform $-1 1 0 0 0 1 0 0 0 1 62.107608264412363 36.750713443388705 7.4288773938300565 1 rotate no_reflect no_shear #
lump $-1 $-1 $66 $12 #
transform $-1 1 0 0 0 1 0 0 0 1 62.107608264412363 36.750713443388705 7.4288773938300565 1 rotate no_reflect no_shear #
lump $-1 $-1 $67 $13 #
transform $-1 1 0 0 0 1 0 0 0 1 62.107608264412363 36.750713443388705 7.4288773938300565 1 rotate no_reflect no_shear #
lump $-1 $-1 $68 $14 #
transform $-1 1 0 0 0 1 0 0 0 1 62.107608264412363 36.750713443388705 7.4288773938300565 1 rotate no_reflect no_shear #
lump $-1 $-1 $69 $15 #
transform $-1 1 0 0 0 1 0 0 0 1 62.107608264412363 36.750713443388705 7.4288773938300565 1 rotate no_reflect no_shear #
lump $-1 $-1 $70 $16 #
transform $-1 1 0 0 0 1 0 0 0 1 62.107608264412363 36.750713443388705 7.4288773938300565 1 rotate no_reflect no_shear #
lump $-1 $-1 $71 $17 #
transform $-1 1 0 0 0 1 0 0 0 1 62.107608264412363 36.750713443388705 7.4288773938300565 1 rotate no_reflect no_shear #
shell $-1 $-1 $-1 $72 $-1 $18 #
shell $-1 $-1 $-1 $73 $-1 $20 #
shell $-1 $-1 $-1 $74 $-1 $22 #
shell $-1 $-1 $-1 $75 $-1 $24 #
shell $-1 $-1 $-1 $76 $-1 $26 #
shell $-1 $-1 $-1 $77 $-1 $28 #
shell $-1 $-1 $-1 $78 $-1 $30 #
shell $-1 $-1 $-1 $79 $-1 $32 #
shell $-1 $-1 $-1 $80 $-1 $34 #
shell $-1 $-1 $-1 $81 $-1 $36 #
shell $-1 $-1 $-1 $82 $-1 $38 #
shell $-1 $-1 $-1 $83 $-1 $40 #
shell $-1 $-1 $-1 $84 $-1 $42 #
shell $-1 $-1 $-1 $85 $-1 $44 #
shell $-1 $-1 $-1 $86 $-1 $46 #
shell $-1 $-1 $-1 $87 $-1 $48 #
shell $-1 $-1 $-1 $88 $-1 $50 #
shell $-1 $-1 $-1 $89 $-1 $52 #
face $-1 $90 $91 $54 $-1 $92 reversed single #
face $-1 $93 $94 $55 $-1 $95 forward single #
face $-1 $96 $97 $56 $-1 $98 forward single #
face $-1 $99 $100 $57 $-1 $101 reversed single #
face $-1 $102 $103 $58 $-1 $104 forward single #
face $-1 $105 $106 $59 $-1 $107 forward single #
face $-1 $108 $109 $60 $-1 $110 reversed single #
face $-1 $111 $112 $61 $-1 $113 forward single #
face $-1 $114 $115 $62 $-1 $116 forward single #
face $-1 $117 $118 $63 $-1 $119 reversed single #
face $-1 $120 $121 $64 $-1 $122 forward single #
face $-1 $123 $124 $65 $-1 $125 forward single #
face $-1 $126 $127 $66 $-1 $128 reversed single #
face $-1 $129 $130 $67 $-1 $131 forward single #
face $-1 $132 $133 $68 $-1 $134 forward single #
face $-1 $135 $136 $69 $-1 $137 reversed single #
face $-1 $138 $139 $70 $-1 $140 forward single #
face $-1 $141 $142 $71 $-1 $143 forward single #
face $-1 $144 $145 $54 $-1 $146 forward single #
loop $-1 $-1 $147 $72 #
plane-surface $-1 62.107608264412363 0 0 -1 0 0 0 0 1 forward_v I I I I #
face $-1 $148 $149 $55 $-1 $150 reversed single #
loop $-1 $-1 $151 $73 #
plane-surface $-1 -62.107608264412363 0 0 1 0 0 0 0 -1 forward_v I I I I #
face $-1 $152 $153 $56 $-1 $154 reversed single #
loop $-1 $-1 $155 $74 #
plane-surface $-1 62.107608264412363 0 0 -1 0 0 0 0 1 forward_v I I I I #
face $-1 $156 $157 $57 $-1 $158 reversed single #
loop $-1 $-1 $159 $75 #
plane-surface $-1 -26.955177731916152 -143.22393627474108 64.833171940281119 -1 0 0 0 -0.85716730853699208 0.51503806187062418 forward_v I I I I #
face $-1 $160 $161 $58 $-1 $162 forward single #
loop $-1 $163 $164 $76 #
cone-surface $-1 -34.919135402515181 -33.124554058408926 3.1506503184654413 0 0.85716730853699208 -0.51503806187062418 1.5 0 0 1 I I 0 1 1.5 forward I I I I #
face $-1 $165 $166 $59 $-1 $167 forward single #
loop $-1 $168 $169 $77 #
cone-surface $-1 -30.140760800155761 -33.124554058408926 3.1506503184654413 0 0.85716730853699208 -0.51503806187062418 1.5 0 0 1 I I 0 1 1.5 forward I I I I #
face $-1 $170 $171 $60 $-1 $172 reversed single #
loop $-1 $-1 $173 $78 #
plane-surface $-1 -8.8817841970012523e-015 -143.22393627474108 64.833171940281119 -1 0 0 0 -0.85716730853699208 0.51503806187062418 forward_v I I I I #
face $-1 $174 $175 $61 $-1 $176 forward single #
loop $-1 $177 $178 $79 #
cone-surface $-1 -7.9639576705990294 -33.124554058408926 3.1506503184654413 0 0.85716730853699208 -0.51503806187062418 1.5 0 0 1 I I 0 1 1.5 forward I I I I #
face $-1 $179 $180 $62 $-1 $181 forward single #
loop $-1 $182 $183 $80 #
cone-surface $-1 -3.1855830682396089 -33.124554058408926 3.1506503184654413 0 0.85716730853699208 -0.51503806187062418 1.5 0 0 1 I I 0 1 1.5 forward I I I I #
face $-1 $184 $185 $63 $-1 $186 reversed single #
loop $-1 $-1 $187 $81 #
plane-surface $-1 26.955177731916145 -143.22393627474108 64.833171940281119 -1 0 0 0 -0.85716730853699208 0.51503806187062418 forward_v I I I I #
face $-1 $188 $189 $64 $-1 $190 forward single #
loop $-1 $191 $192 $82 #
cone-surface $-1 18.991220061317122 -33.124554058408926 3.1506503184654413 0 0.85716730853699208 -0.51503806187062418 1.5 0 0 1 I I 0 1 1.5 forward I I I I #
face $-1 $193 $194 $65 $-1 $195 forward single #
loop $-1 $196 $197 $83 #
cone-surface $-1 23.769594663676543 -33.124554058408926 3.1506503184654413 0 0.85716730853699208 -0.51503806187062418 1.5 0 0 1 I I 0 1 1.5 forward I I I I #
face $-1 $198 $199 $66 $-1 $200 reversed single #
loop $-1 $-1 $201 $84 #
plane-surface $-1 53.910355463832296 -143.22393627474108 64.833171940281119 -1 0 0 0 -0.85716730853699208 0.51503806187062418 forward_v I I I I #
face $-1 $202 $203 $67 $-1 $204 forward single #
loop $-1 $205 $206 $85 #
cone-surface $-1 45.946397793233274 -33.124554058408926 3.1506503184654413 0 0.85716730853699208 -0.51503806187062418 1.5 0 0 1 I I 0 1 1.5 forward I I I I #
face $-1 $207 $208 $68 $-1 $209 forward single #
loop $-1 $210 $211 $86 #
cone-surface $-1 50.724772395592694 -33.124554058408926 3.1506503184654413 0 0.85716730853699208 -0.51503806187062418 1.5 0 0 1 I I 0 1 1.5 forward I I I I #
face $-1 $212 $213 $69 $-1 $214 reversed single #
loop $-1 $-1 $215 $87 #
plane-surface $-1 26.813849580594905 57.800546453089268 143.41131929066654 1 0 0 0 -0.62932039886446345 -0.77714595512881146 forward_v I I I I #
face $-1 $216 $217 $70 $-1 $218 forward single #
loop $-1 $219 $220 $88 #
cone-surface $-1 34.555708404377015 32.037464710756922 3.3952014500226122 0 -0.62932039886446345 -0.77714595512881146 1.5 0 0 1 I I 0 1 1.5 forward I I I I #
face $-1 $221 $222 $71 $-1 $223 forward single #
loop $-1 $224 $225 $89 #
cone-surface $-1 46.168496640050179 32.037464710756922 3.3952014500226122 0 -0.62932039886446345 -0.77714595512881146 1.5 0 0 1 I I 0 1 1.5 forward I I I I #
face $-1 $226 $227 $54 $-1 $228 reversed single #
loop $-1 $-1 $229 $90 #
plane-surface $-1 0 0 7.4288773938300565 0 0 1 1 0 0 forward_v I I I I #
coedge $-1 $230 $231 $232 $233 reversed $91 $-1 #
face $-1 $234 $235 $55 $-1 $236 forward single #
loop $-1 $-1 $237 $93 #
plane-surface $-1 0 36.750713443388705 0 0 -1 0 0 0 -1 forward_v I I I I #
coedge $-1 $238 $239 $240 $241 forward $94 $-1 #
face $-1 $242 $243 $56 $-1 $244 forward single #
loop $-1 $-1 $245 $96 #
plane-surface $-1 0 -36.750713443388705 0 0 1 0 0 0 1 forward_v I I I I #
coedge $-1 $246 $247 $248 $249 forward $97 $-1 #
face $-1 $250 $251 $57 $-1 $252 reversed single #
loop $-1 $-1 $253 $99 #
plane-surface $-1 -32.529948101335471 -36.75071344338869 0.8576075644353125 0 -0.85716730853699208 0.51503806187062418 1 0 0 forward_v I I I I #
coedge $-1 $254 $255 $256 $257 reversed $100 $-1 #
face $-1 $-1 $258 $58 $-1 $259 forward single #
loop $-1 $260 $261 $102 #
cone-surface $-1 -34.919135402515181 -30.829727752743061 1.7717796113952318 0 0.85716730853699208 -0.51503806187062418 0.75 0 0 1 I I -0.70710678118654757 0.70710678118654757 0.75 forward I I I I #
loop $-1 $-1 $262 $76 #
coedge $-1 $164 $164 $263 $264 reversed $103 $-1 #
face $-1 $-1 $265 $59 $-1 $266 forward single #
loop $-1 $267 $268 $105 #
cone-surface $-1 -30.140760800155761 -30.829727752743061 1.7717796113952318 0 0.85716730853699208 -0.51503806187062418 0.75 0 0 1 I I -0.70710678118654757 0.70710678118654757 0.75 forward I I I I #
loop $-1 $-1 $269 $77 #
coedge $-1 $169 $169 $270 $271 reversed $106 $-1 #
face $-1 $272 $273 $60 $-1 $274 reversed single #
loop $-1 $-1 $275 $108 #
plane-surface $-1 -5.5747703694193262 -36.75071344338869 0.8576075644353125 0 -0.85716730853699208 0.51503806187062418 1 0 0 forward_v I I I I #
coedge $-1 $276 $277 $278 $279 reversed $109 $-1 #
face $-1 $-1 $280 $61 $-1 $281 forward single #
loop $-1 $282 $283 $111 #
cone-surface $-1 -7.9639576705990294 -30.829727752743061 1.7717796113952318 0 0.85716730853699208 -0.51503806187062418 0.75 0 0 1 I I -0.70710678118654757 0.70710678118654757 0.75 forward I I I I #
loop $-1 $-1 $284 $79 #
coedge $-1 $178 $178 $285 $286 reversed $112 $-1 #
face $-1 $-1 $287 $62 $-1 $288 forward single #
loop $-1 $289 $290 $114 #
cone-surface $-1 -3.1855830682396089 -30.829727752743061 1.7717796113952318 0 0.85716730853699208 -0.51503806187062418 0.75 0 0 1 I I -0.70710678118654757 0.70710678118654757 0.75 forward I I I I #
loop $-1 $-1 $291 $80 #
coedge $-1 $183 $183 $292 $293 reversed $115 $-1 #
face $-1 $294 $295 $63 $-1 $296 reversed single #
loop $-1 $-1 $297 $117 #
plane-surface $-1 21.380407362496825 -36.75071344338869 0.8576075644353125 0 -0.85716730853699208 0.51503806187062418 1 0 0 forward_v I I I I #
coedge $-1 $298 $299 $300 $301 reversed $118 $-1 #
face $-1 $-1 $302 $64 $-1 $303 forward single #
loop $-1 $304 $305 $120 #
cone-surface $-1 18.991220061317122 -30.829727752743061 1.7717796113952318 0 0.85716730853699208 -0.51503806187062418 0.75 0 0 1 I I -0.70710678118654757 0.70710678118654757 0.75 forward I I I I #
loop $-1 $-1 $306 $82 #
coedge $-1 $192 $192 $307 $308 reversed $121 $-1 #
face $-1 $-1 $309 $65 $-1 $310 forward single #
loop $-1 $311 $312 $123 #
cone-surface $-1 23.769594663676543 -30.829727752743061 1.7717796113952318 0 0.85716730853699208 -0.51503806187062418 0.75 0 0 1 I I -0.70710678118654757 0.70710678118654757 0.75 forward I I I I #
loop $-1 $-1 $313 $83 #
coedge $-1 $197 $197 $314 $315 reversed $124 $-1 #
face $-1 $316 $317 $66 $-1 $318 reversed single #
loop $-1 $-1 $319 $126 #
plane-surface $-1 48.335585094412977 -36.75071344338869 0.8576075644353125 0 -0.85716730853699208 0.51503806187062418 1 0 0 forward_v I I I I #
coedge $-1 $320 $321 $322 $323 reversed $127 $-1 #
face $-1 $-1 $324 $67 $-1 $325 forward single #
loop $-1 $326 $327 $129 #
cone-surface $-1 45.946397793233274 -30.829727752743061 1.7717796113952318 0 0.85716730853699208 -0.51503806187062418 0.75 0 0 1 I I -0.70710678118654757 0.70710678118654757 0.75 forward I I I I #
loop $-1 $-1 $328 $85 #
coedge $-1 $206 $206 $329 $330 reversed $130 $-1 #
face $-1 $-1 $331 $68 $-1 $332 forward single #
loop $-1 $333 $334 $132 #
cone-surface $-1 50.724772395592694 -30.829727752743061 1.7717796113952318 0 0.85716730853699208 -0.51503806187062418 0.75 0 0 1 I I -0.70710678118654757 0.70710678118654757 0.75 forward I I I I #
loop $-1 $-1 $335 $86 #
coedge $-1 $211 $211 $336 $337 reversed $133 $-1 #
face $-1 $338 $339 $69 $-1 $340 reversed single #
loop $-1 $-1 $341 $135 #
plane-surface $-1 40.362102522213604 -20.370623157866405 46.877966199840913 0 0.62932039886446345 0.77714595512881146 1 0 0 forward_v I I I I #
coedge $-1 $342 $343 $344 $345 reversed $136 $-1 #
face $-1 $-1 $346 $70 $-1 $347 forward single #
loop $-1 $348 $349 $138 #
cone-surface $-1 34.555708404377015 31.055110683188971 2.1820952796101238 0 -0.62932039886446345 -0.77714595512881146 0.75 0 0 1 I I -0.70710678118654757 0.70710678118654757 0.75 forward I I I I #
loop $-1 $-1 $350 $88 #
coedge $-1 $220 $220 $351 $352 reversed $139 $-1 #
face $-1 $-1 $353 $71 $-1 $354 forward single #
loop $-1 $355 $356 $141 #
cone-surface $-1 46.168496640050179 31.055110683188971 2.1820952796101238 0 -0.62932039886446345 -0.77714595512881146 0.75 0 0 1 I I -0.70710678118654757 0.70710678118654757 0.75 forward I I I I #
loop $-1 $-1 $357 $89 #
coedge $-1 $225 $225 $358 $359 reversed $142 $-1 #
face $-1 $360 $361 $54 $-1 $362 reversed single #
loop $-1 $-1 $363 $144 #
plane-surface $-1 0 0 -7.4288773938300565 0 0 1 1 0 0 forward_v I I I I #
coedge $-1 $364 $365 $230 $366 forward $145 $-1 #
coedge $-1 $367 $147 $229 $366 reversed $91 $-1 #
coedge $-1 $147 $367 $363 $368 reversed $91 $-1 #
coedge $-1 $369 $370 $147 $233 forward $371 $-1 #
edge $-1 $372 -7.4288773938300565 $373 7.4288773938300565 $147 $374 forward 7 unknown #
face $-1 $375 $376 $55 $-1 $377 reversed single #
loop $-1 $-1 $240 $148 #
plane-surface $-1 -66.206234664702393 0 -3.2303569139825861 0 0 1 1 0 0 forward_v I I I I #
coedge $-1 $378 $379 $239 $380 forward $149 $-1 #
coedge $-1 $381 $151 $382 $383 reversed $94 $-1 #
coedge $-1 $151 $381 $237 $380 reversed $94 $-1 #
coedge $-1 $384 $385 $151 $241 reversed $235 $-1 #
edge $-1 $386 -36.750713443388705 $387 36.750713443388705 $240 $388 forward 7 unknown #
face $-1 $389 $390 $56 $-1 $391 reversed single #
loop $-1 $-1 $392 $152 #
plane-surface $-1 66.206234664702379 0 -3.2303569139825861 0 0 1 1 0 0 forward_v I I I I #
coedge $-1 $393 $394 $247 $395 forward $153 $-1 #
coedge $-1 $396 $155 $397 $398 reversed $97 $-1 #
coedge $-1 $155 $396 $245 $395 reversed $97 $-1 #
coedge $-1 $399 $400 $155 $249 reversed $243 $-1 #
edge $-1 $401 -36.750713443388705 $402 36.750713443388705 $248 $403 forward 7 unknown #
face $-1 $404 $405 $57 $-1 $406 forward single #
loop $-1 $-1 $407 $156 #
plane-surface $-1 -38.10471847075479 -143.22393627474108 64.833171940281119 1 0 0 0 0.85716730853699208 -0.51503806187062418 forward_v I I I I #
coedge $-1 $408 $409 $410 $411 reversed $157 $-1 #
coedge $-1 $255 $159 $412 $413 reversed $100 $-1 #
coedge $-1 $159 $254 $408 $414 reversed $100 $-1 #
coedge $-1 $410 $415 $159 $257 forward $405 $-1 #
edge $-1 $416 34.861254693981834 $417 38.809671815415172 $256 $418 forward 7 unknown #
loop $-1 $-1 $263 $160 #
plane-surface $-1 -32.529948101335471 -36.75071344338869 0.8576075644353125 0 -0.85716730853699208 0.51503806187062418 1 0 0 forward_v I I I I #
loop $-1 $-1 $419 $102 #
coedge $-1 $261 $261 $262 $420 reversed $161 $-1 #
coedge $-1 $262 $262 $261 $420 forward $163 $-1 #
coedge $-1 $263 $263 $164 $264 forward $258 $-1 #
edge $-1 $421 1.1131046690557576e-015 $421 6.2831853071796013 $263 $422 forward 7 unknown #
loop $-1 $-1 $270 $165 #
plane-surface $-1 -32.529948101335471 -36.75071344338869 0.8576075644353125 0 -0.85716730853699208 0.51503806187062418 1 0 0 forward_v I I I I #
loop $-1 $-1 $423 $105 #
coedge $-1 $268 $268 $269 $424 reversed $166 $-1 #
coedge $-1 $269 $269 $268 $424 forward $168 $-1 #
coedge $-1 $270 $270 $169 $271 forward $265 $-1 #
edge $-1 $425 1.1131046690557576e-015 $425 6.2831853071796013 $270 $426 forward 7 unknown #
face $-1 $427 $428 $60 $-1 $429 reversed single #
loop $-1 $-1 $430 $170 #
plane-surface $-1 -11.149540738838644 -143.22393627474108 64.833171940281119 1 0 0 0 0.85716730853699208 -0.51503806187062418 forward_v I I I I #
coedge $-1 $431 $432 $433 $434 reversed $171 $-1 #
coedge $-1 $277 $173 $435 $436 reversed $109 $-1 #
coedge $-1 $173 $276 $431 $437 reversed $109 $-1 #
coedge $-1 $433 $438 $173 $279 forward $439 $-1 #
edge $-1 $440 34.861254693981834 $441 38.809671815415172 $278 $442 forward 7 unknown #
loop $-1 $-1 $285 $174 #
plane-surface $-1 -5.5747703694193262 -36.75071344338869 0.8576075644353125 0 -0.85716730853699208 0.51503806187062418 1 0 0 forward_v I I I I #
loop $-1 $-1 $443 $111 #
coedge $-1 $283 $283 $284 $444 reversed $175 $-1 #
coedge $-1 $284 $284 $283 $444 forward $177 $-1 #
coedge $-1 $285 $285 $178 $286 forward $280 $-1 #
edge $-1 $445 1.1131046690557576e-015 $445 6.2831853071796013 $285 $446 forward 7 unknown #
loop $-1 $-1 $292 $179 #
plane-surface $-1 -5.5747703694193262 -36.75071344338869 0.8576075644353125 0 -0.85716730853699208 0.51503806187062418 1 0 0 forward_v I I I I #
loop $-1 $-1 $447 $114 #
coedge $-1 $290 $290 $291 $448 reversed $180 $-1 #
coedge $-1 $291 $291 $290 $448 forward $182 $-1 #
coedge $-1 $292 $292 $183 $293 forward $287 $-1 #
edge $-1 $449 1.1131046690557576e-015 $449 6.2831853071796013 $292 $450 forward 7 unknown #
face $-1 $451 $452 $63 $-1 $453 reversed single #
loop $-1 $-1 $454 $184 #
plane-surface $-1 15.805636993077508 -143.22393627474108 64.833171940281119 1 0 0 0 0.85716730853699208 -0.51503806187062418 forward_v I I I I #
coedge $-1 $455 $456 $457 $458 reversed $185 $-1 #
coedge $-1 $299 $187 $459 $460 reversed $118 $-1 #
coedge $-1 $187 $298 $455 $461 reversed $118 $-1 #
coedge $-1 $457 $462 $187 $301 forward $463 $-1 #
edge $-1 $464 34.861254693981834 $465 38.809671815415172 $300 $466 forward 7 unknown #
loop $-1 $-1 $307 $188 #
plane-surface $-1 21.380407362496825 -36.75071344338869 0.8576075644353125 0 -0.85716730853699208 0.51503806187062418 1 0 0 forward_v I I I I #
loop $-1 $-1 $467 $120 #
coedge $-1 $305 $305 $306 $468 reversed $189 $-1 #
coedge $-1 $306 $306 $305 $468 forward $191 $-1 #
coedge $-1 $307 $307 $192 $308 forward $302 $-1 #
edge $-1 $469 1.1131046690557576e-015 $469 6.2831853071796013 $307 $470 forward 7 unknown #
loop $-1 $-1 $314 $193 #
plane-surface $-1 21.380407362496825 -36.75071344338869 0.8576075644353125 0 -0.85716730853699208 0.51503806187062418 1 0 0 forward_v I I I I #
loop $-1 $-1 $471 $123 #
coedge $-1 $312 $312 $313 $472 reversed $194 $-1 #
coedge $-1 $313 $313 $312 $472 forward $196 $-1 #
coedge $-1 $314 $314 $197 $315 forward $309 $-1 #
edge $-1 $473 1.1131046690557576e-015 $473 6.2831853071796013 $314 $474 forward 7 unknown #
face $-1 $475 $476 $66 $-1 $477 reversed single #
loop $-1 $-1 $478 $198 #
plane-surface $-1 42.760814724993658 -143.22393627474108 64.833171940281119 1 0 0 0 0.85716730853699208 -0.51503806187062418 forward_v I I I I #
coedge $-1 $479 $480 $481 $482 reversed $199 $-1 #
coedge $-1 $321 $201 $483 $484 reversed $127 $-1 #
coedge $-1 $201 $320 $479 $485 reversed $127 $-1 #
coedge $-1 $481 $486 $201 $323 forward $487 $-1 #
edge $-1 $488 34.861254693981834 $489 38.809671815415172 $322 $490 forward 7 unknown #
loop $-1 $-1 $329 $202 #
plane-surface $-1 48.335585094412977 -36.75071344338869 0.8576075644353125 0 -0.85716730853699208 0.51503806187062418 1 0 0 forward_v I I I I #
loop $-1 $-1 $491 $129 #
coedge $-1 $327 $327 $328 $492 reversed $203 $-1 #
coedge $-1 $328 $328 $327 $492 forward $205 $-1 #
coedge $-1 $329 $329 $206 $330 forward $324 $-1 #
edge $-1 $493 1.1131046690557576e-015 $493 6.2831853071796013 $329 $494 forward 7 unknown #
loop $-1 $-1 $336 $207 #
plane-surface $-1 48.335585094412977 -36.75071344338869 0.8576075644353125 0 -0.85716730853699208 0.51503806187062418 1 0 0 forward_v I I I I #
loop $-1 $-1 $495 $132 #
coedge $-1 $334 $334 $335 $496 reversed $208 $-1 #
coedge $-1 $335 $335 $334 $496 forward $210 $-1 #
coedge $-1 $336 $336 $211 $337 forward $331 $-1 #
edge $-1 $497 1.1131046690557576e-015 $497 6.2831853071796013 $336 $498 forward 7 unknown #
face $-1 $499 $500 $69 $-1 $501 reversed single #
loop $-1 $-1 $502 $212 #
plane-surface $-1 53.910355463832303 57.800546453089268 143.41131929066654 -1 0 0 0 0.62932039886446345 0.77714595512881146 forward_v I I I I #
coedge $-1 $503 $504 $505 $506 reversed $213 $-1 #
coedge $-1 $343 $215 $507 $508 reversed $136 $-1 #
coedge $-1 $215 $342 $503 $509 reversed $136 $-1 #
coedge $-1 $505 $510 $215 $345 forward $511 $-1 #
edge $-1 $512 -7.8504402168440706 $513 0.55532979158023466 $344 $514 forward 7 unknown #
loop $-1 $-1 $351 $216 #
plane-surface $-1 40.362102522213604 -20.370623157866405 46.877966199840913 0 0.62932039886446345 0.77714595512881146 1 0 0 forward_v I I I I #
loop $-1 $-1 $515 $138 #
coedge $-1 $349 $349 $350 $516 reversed $217 $-1 #
coedge $-1 $350 $350 $349 $516 forward $219 $-1 #
coedge $-1 $351 $351 $220 $352 forward $346 $-1 #
edge $-1 $517 -1.3104398780927815e-015 $517 6.2831853071795996 $351 $518 forward 7 unknown #
loop $-1 $-1 $358 $221 #
plane-surface $-1 40.362102522213604 -20.370623157866405 46.877966199840913 0 0.62932039886446345 0.77714595512881146 1 0 0 forward_v I I I I #
loop $-1 $-1 $519 $141 #
coedge $-1 $356 $356 $357 $520 reversed $222 $-1 #
coedge $-1 $357 $357 $356 $520 forward $224 $-1 #
coedge $-1 $358 $358 $225 $359 forward $353 $-1 #
edge $-1 $521 -1.3104398780927815e-015 $521 6.2831853071795996 $358 $522 forward 7 unknown #
face $-1 $523 $524 $54 $-1 $525 reversed single #
loop $-1 $-1 $526 $226 #
plane-surface $-1 0 -36.750713443388705 0 0 1 0 0 0 1 forward_v I I I I #
coedge $-1 $527 $528 $231 $368 forward $227 $-1 #
coedge $-1 $529 $229 $370 $530 forward $145 $-1 #
coedge $-1 $229 $529 $531 $532 forward $145 $-1 #
edge $-1 $533 -36.750713443388705 $372 36.750713443388705 $230 $534 forward 7 unknown #
coedge $-1 $231 $230 $535 $536 forward $91 $-1 #
edge $-1 $373 -36.750713443388705 $537 36.750713443388705 $231 $538 forward 7 unknown #
coedge $-1 $539 $232 $528 $540 reversed $371 $-1 #
coedge $-1 $232 $539 $364 $530 reversed $371 $-1 #
loop $-1 $-1 $232 $523 #
vertex $-1 $366 $541 #
vertex $-1 $368 $542 #
straight-curve $-1 62.107608264412363 36.750713443388705 0 0 0 -1 I I #
face $-1 $543 $544 $55 $-1 $545 reversed single #
loop $-1 $-1 $546 $234 #
plane-surface $-1 -66.206234664702393 0 -6.7093486925501153 0 0 1 1 0 0 forward_v I I I I #
coedge $-1 $547 $237 $548 $549 reversed $149 $-1 #
coedge $-1 $237 $547 $384 $550 reversed $149 $-1 #
edge $-1 $386 3.2303569139825861 $551 6.7093486925501153 $237 $552 forward 7 unknown #
coedge $-1 $239 $238 $546 $553 forward $94 $-1 #
coedge $-1 $554 $555 $238 $383 forward $556 $-1 #
edge $-1 $557 -6.7093486925501153 $387 -3.2303569139825861 $382 $558 forward 7 unknown #
coedge $-1 $559 $240 $379 $550 forward $235 $-1 #
coedge $-1 $240 $559 $554 $560 forward $235 $-1 #
vertex $-1 $380 $561 #
vertex $-1 $560 $562 #
straight-curve $-1 -62.107608264412363 0 -3.2303569139825861 0 -1 0 I I #
face $-1 $563 $564 $56 $-1 $565 reversed single #
loop $-1 $-1 $566 $242 #
plane-surface $-1 66.206234664702379 0 -6.7093486925501153 0 0 1 1 0 0 forward_v I I I I #
coedge $-1 $400 $399 $567 $568 forward $243 $-1 #
coedge $-1 $569 $245 $570 $571 reversed $153 $-1 #
coedge $-1 $245 $569 $399 $572 reversed $153 $-1 #
edge $-1 $401 3.2303569139825861 $573 6.7093486925501153 $245 $574 forward 7 unknown #
coedge $-1 $247 $246 $575 $576 forward $97 $-1 #
coedge $-1 $577 $578 $246 $398 forward $579 $-1 #
edge $-1 $580 -6.7093486925501153 $402 -3.2303569139825861 $397 $581 forward 7 unknown #
coedge $-1 $392 $248 $394 $572 forward $243 $-1 #
coedge $-1 $248 $392 $577 $582 forward $243 $-1 #
vertex $-1 $395 $583 #
vertex $-1 $582 $584 #
straight-curve $-1 62.107608264412363 0 -3.2303569139825861 0 1 0 I I #
face $-1 $-1 $585 $57 $-1 $586 reversed single #
loop $-1 $-1 $256 $250 #
plane-surface $-1 0 0 7.4288773938300565 0 0 1 1 0 0 forward_v I I I I #
coedge $-1 $587 $588 $589 $590 reversed $251 $-1 #
coedge $-1 $591 $253 $255 $414 forward $157 $-1 #
coedge $-1 $253 $591 $587 $592 forward $157 $-1 #
coedge $-1 $589 $256 $253 $411 forward $405 $-1 #
edge $-1 $417 10.690203681248416 $593 21.839744420087055 $410 $594 forward 7 unknown #
coedge $-1 $595 $596 $254 $413 forward $585 $-1 #
edge $-1 $597 -31.558978405705272 $416 -24.987708576310503 $412 $598 forward 7 unknown #
edge $-1 $417 -7.6662627750124415 $597 2.7589209654379419e-014 $255 $599 forward 7 unknown #
coedge $-1 $256 $589 $595 $600 forward $405 $-1 #
vertex $-1 $413 $601 #
vertex $-1 $257 $602 #
straight-curve $-1 -26.955177731916152 -71.611968137370539 7.4288773938300565 0 1 0 I I #
coedge $-1 $419 $419 $-1 $603 reversed $260 $-1 #
edge $-1 $604 0 $604 6.2831853071796004 $261 $605 forward 7 unknown #
vertex $-1 $264 $606 #
ellipse-curve $-1 -34.919135402515181 -34.776504882672036 4.1432424791326765 0 -0.85716730853699208 0.51503806187062418 1.5 0 0 1 I I #
coedge $-1 $423 $423 $-1 $607 reversed $267 $-1 #
edge $-1 $608 0 $608 6.2831853071796004 $268 $609 forward 7 unknown #
vertex $-1 $271 $610 #
ellipse-curve $-1 -30.140760800155761 -34.776504882672036 4.1432424791326765 0 -0.85716730853699208 0.51503806187062418 1.5 0 0 1 I I #
face $-1 $-1 $439 $60 $-1 $611 forward single #
loop $-1 $-1 $612 $272 #
plane-surface $-1 0 -36.750713443388705 0 0 1 0 0 0 1 forward_v I I I I #
coedge $-1 $613 $614 $615 $616 reversed $273 $-1 #
coedge $-1 $617 $275 $277 $437 forward $171 $-1 #
coedge $-1 $275 $617 $613 $618 forward $171 $-1 #
coedge $-1 $615 $278 $275 $434 forward $439 $-1 #
edge $-1 $441 -2.7873851847096542 $619 8.3621555541289805 $433 $620 forward 7 unknown #
coedge $-1 $621 $622 $276 $436 forward $428 $-1 #
edge $-1 $623 -31.558978405705272 $440 -24.987708576310503 $435 $624 forward 7 unknown #
edge $-1 $441 -7.6662627750124415 $623 2.7589209654379419e-014 $277 $625 forward 7 unknown #
coedge $-1 $278 $615 $621 $626 forward $439 $-1 #
loop $-1 $-1 $615 $427 #
vertex $-1 $436 $627 #
vertex $-1 $279 $628 #
straight-curve $-1 -8.8817841970012523e-015 -71.611968137370539 7.4288773938300565 0 1 0 I I #
coedge $-1 $443 $443 $-1 $629 reversed $282 $-1 #
edge $-1 $630 0 $630 6.2831853071796004 $283 $631 forward 7 unknown #
vertex $-1 $286 $632 #
ellipse-curve $-1 -7.9639576705990294 -34.776504882672036 4.1432424791326765 0 -0.85716730853699208 0.51503806187062418 1.5 0 0 1 I I #
coedge $-1 $447 $447 $-1 $633 reversed $289 $-1 #
edge $-1 $634 0 $634 6.2831853071796004 $290 $635 forward 7 unknown #
vertex $-1 $293 $636 #
ellipse-curve $-1 -3.1855830682396089 -34.776504882672036 4.1432424791326765 0 -0.85716730853699208 0.51503806187062418 1.5 0 0 1 I I #
face $-1 $-1 $463 $63 $-1 $637 forward single #
loop $-1 $-1 $638 $294 #
plane-surface $-1 0 -36.750713443388705 0 0 1 0 0 0 1 forward_v I I I I #
coedge $-1 $639 $640 $641 $642 reversed $295 $-1 #
coedge $-1 $643 $297 $299 $461 forward $185 $-1 #
coedge $-1 $297 $643 $639 $644 forward $185 $-1 #
coedge $-1 $641 $300 $297 $458 forward $463 $-1 #
edge $-1 $465 -16.264974050667732 $645 -5.1154333118290953 $457 $646 forward 7 unknown #
coedge $-1 $647 $648 $298 $460 forward $452 $-1 #
edge $-1 $649 -31.558978405705272 $464 -24.987708576310503 $459 $650 forward 7 unknown #
edge $-1 $465 -7.6662627750124415 $649 2.7589209654379419e-014 $299 $651 forward 7 unknown #
coedge $-1 $300 $641 $647 $652 forward $463 $-1 #
loop $-1 $-1 $641 $451 #
vertex $-1 $460 $653 #
vertex $-1 $301 $654 #
straight-curve $-1 26.955177731916145 -71.611968137370539 7.4288773938300565 0 1 0 I I #
coedge $-1 $467 $467 $-1 $655 reversed $304 $-1 #
edge $-1 $656 0 $656 6.2831853071796004 $305 $657 forward 7 unknown #
vertex $-1 $308 $658 #
ellipse-curve $-1 18.991220061317122 -34.776504882672036 4.1432424791326765 0 -0.85716730853699208 0.51503806187062418 1.5 0 0 1 I I #
coedge $-1 $471 $471 $-1 $659 reversed $311 $-1 #
edge $-1 $660 0 $660 6.2831853071796004 $312 $661 forward 7 unknown #
vertex $-1 $315 $662 #
ellipse-curve $-1 23.769594663676543 -34.776504882672036 4.1432424791326765 0 -0.85716730853699208 0.51503806187062418 1.5 0 0 1 I I #
face $-1 $-1 $487 $66 $-1 $663 forward single #
loop $-1 $-1 $664 $316 #
plane-surface $-1 0 -36.750713443388705 0 0 1 0 0 0 1 forward_v I I I I #
coedge $-1 $665 $666 $667 $668 reversed $317 $-1 #
coedge $-1 $669 $319 $321 $485 forward $199 $-1 #
coedge $-1 $319 $669 $665 $670 forward $199 $-1 #
coedge $-1 $667 $322 $319 $482 forward $487 $-1 #
edge $-1 $489 -29.742562916625808 $671 -18.593022177787169 $481 $672 forward 7 unknown #
coedge $-1 $673 $674 $320 $484 forward $476 $-1 #
edge $-1 $675 -31.558978405705272 $488 -24.987708576310503 $483 $676 forward 7 unknown #
edge $-1 $489 -7.6662627750124415 $675 2.7589209654379419e-014 $321 $677 forward 7 unknown #
coedge $-1 $322 $667 $673 $678 forward $487 $-1 #
loop $-1 $-1 $667 $475 #
vertex $-1 $484 $679 #
vertex $-1 $323 $680 #
straight-curve $-1 53.910355463832296 -71.611968137370539 7.4288773938300565 0 1 0 I I #
coedge $-1 $491 $491 $-1 $681 reversed $326 $-1 #
edge $-1 $682 0 $682 6.2831853071796004 $327 $683 forward 7 unknown #
vertex $-1 $330 $684 #
ellipse-curve $-1 45.946397793233274 -34.776504882672036 4.1432424791326765 0 -0.85716730853699208 0.51503806187062418 1.5 0 0 1 I I #
coedge $-1 $495 $495 $-1 $685 reversed $333 $-1 #
edge $-1 $686 0 $686 6.2831853071796004 $334 $687 forward 7 unknown #
vertex $-1 $337 $688 #
ellipse-curve $-1 50.724772395592694 -34.776504882672036 4.1432424791326765 0 -0.85716730853699208 0.51503806187062418 1.5 0 0 1 I I #
face $-1 $-1 $511 $69 $-1 $689 forward single #
loop $-1 $-1 $690 $338 #
plane-surface $-1 0 36.750713443388705 0 0 -1 0 0 0 -1 forward_v I I I I #
coedge $-1 $691 $692 $693 $694 reversed $339 $-1 #
coedge $-1 $695 $341 $343 $509 forward $213 $-1 #
coedge $-1 $341 $695 $691 $696 forward $213 $-1 #
coedge $-1 $693 $344 $341 $506 forward $511 $-1 #
edge $-1 $513 6.6327983194881028 $697 33.729304202725501 $505 $698 forward 7 unknown #
coedge $-1 $699 $700 $342 $508 forward $500 $-1 #
edge $-1 $701 -71.083640730986303 $512 -64.276782251503221 $507 $702 forward 7 unknown #
edge $-1 $513 62.685221831665103 $701 73.501426886777381 $343 $703 forward 7 unknown #
coedge $-1 $344 $693 $699 $704 forward $511 $-1 #
loop $-1 $-1 $693 $499 #
vertex $-1 $508 $705 #
vertex $-1 $345 $706 #
straight-curve $-1 26.813849580594905 28.900273226544634 7.4288773938300636 0 -1 0 I I #
coedge $-1 $515 $515 $-1 $707 reversed $348 $-1 #
edge $-1 $708 0 $708 6.2831853071796004 $349 $709 forward 7 unknown #
vertex $-1 $352 $710 #
ellipse-curve $-1 34.555708404377015 32.547828439176548 4.0254481540885241 0 0.62932039886446345 0.77714595512881146 1.5 0 0 1 I I #
coedge $-1 $519 $519 $-1 $711 reversed $355 $-1 #
edge $-1 $712 0 $712 6.2831853071796004 $356 $713 forward 7 unknown #
vertex $-1 $359 $714 #
ellipse-curve $-1 46.168496640050179 32.547828439176548 4.0254481540885241 0 0.62932039886446345 0.77714595512881146 1.5 0 0 1 I I #
face $-1 $-1 $371 $54 $-1 $715 reversed single #
loop $-1 $-1 $716 $360 #
plane-surface $-1 -62.107608264412363 0 0 1 0 0 0 0 -1 forward_v I I I I #
coedge $-1 $717 $531 $716 $718 forward $361 $-1 #
coedge $-1 $719 $363 $717 $720 forward $227 $-1 #
coedge $-1 $363 $719 $369 $540 forward $227 $-1 #
coedge $-1 $365 $364 $721 $722 forward $145 $-1 #
edge $-1 $372 -62.107608264412363 $723 62.107608264412363 $370 $724 forward 7 unknown #
coedge $-1 $526 $535 $365 $532 reversed $361 $-1 #
edge $-1 $725 -62.107608264412363 $533 62.107608264412363 $531 $726 forward 7 unknown #
vertex $-1 $366 $727 #
straight-curve $-1 62.107608264412363 0 7.4288773938300565 0 1 0 I I #
coedge $-1 $531 $717 $367 $536 reversed $361 $-1 #
edge $-1 $533 -7.4288773938300565 $537 7.4288773938300565 $367 $728 forward 7 unknown #
vertex $-1 $536 $729 #
straight-curve $-1 62.107608264412363 0 -7.4288773938300565 0 -1 0 I I #
coedge $-1 $370 $369 $730 $731 reversed $371 $-1 #
edge $-1 $732 -62.107608264412363 $373 62.107608264412363 $369 $733 forward 7 unknown #
point $-1 62.107608264412363 36.750713443388705 7.4288773938300565 #
point $-1 62.107608264412363 36.750713443388705 -7.4288773938300565 #
face $-1 $-1 $556 $55 $-1 $734 reversed single #
loop $-1 $-1 $735 $375 #
plane-surface $-1 -70.304861064992423 0 -4.9698528032663507 1 0 0 0 0 -1 forward_v I I I I #
coedge $-1 $736 $548 $381 $553 reversed $376 $-1 #
coedge $-1 $379 $378 $735 $737 reversed $149 $-1 #
coedge $-1 $546 $738 $378 $549 forward $376 $-1 #
edge $-1 $739 -4.0986264002900299 $551 4.0986264002900299 $378 $740 forward 7 unknown #
edge $-1 $386 -4.0986264002900299 $741 4.0986264002900299 $379 $742 forward 7 unknown #
vertex $-1 $380 $743 #
straight-curve $-1 -62.107608264412363 36.750713443388705 0 0 0 -1 I I #
edge $-1 $557 -36.750713443388705 $551 36.750713443388705 $546 $744 forward 7 unknown #
coedge $-1 $745 $382 $385 $560 reversed $556 $-1 #
coedge $-1 $382 $745 $736 $746 reversed $556 $-1 #
loop $-1 $-1 $382 $543 #
vertex $-1 $383 $747 #
straight-curve $-1 -62.107608264412363 -36.750713443388705 0 0 0 1 I I #
coedge $-1 $385 $384 $748 $749 forward $235 $-1 #
edge $-1 $750 -4.0986264002900299 $387 4.0986264002900299 $554 $751 forward 7 unknown #
point $-1 -62.107608264412363 36.750713443388705 -3.2303569139825861 #
point $-1 -62.107608264412363 -36.750713443388705 -3.2303569139825861 #
face $-1 $-1 $579 $56 $-1 $752 reversed single #
loop $-1 $-1 $753 $389 #
plane-surface $-1 70.304861064992409 0 -4.9698528032663507 -1 0 0 0 0 1 forward_v I I I I #
coedge $-1 $570 $754 $755 $756 forward $390 $-1 #
coedge $-1 $753 $757 $392 $568 reversed $564 $-1 #
edge $-1 $758 -36.750713443388705 $759 36.750713443388705 $567 $760 forward 7 unknown #
coedge $-1 $394 $393 $753 $761 reversed $153 $-1 #
coedge $-1 $575 $566 $393 $571 forward $390 $-1 #
edge $-1 $762 -4.0986264002900299 $573 4.0986264002900299 $393 $763 forward 7 unknown #
edge $-1 $401 -4.0986264002900299 $758 4.0986264002900299 $394 $764 forward 7 unknown #
vertex $-1 $395 $765 #
straight-curve $-1 62.107608264412363 -36.750713443388705 0 0 0 -1 I I #
coedge $-1 $754 $570 $396 $576 reversed $390 $-1 #
edge $-1 $580 -36.750713443388705 $573 36.750713443388705 $575 $766 forward 7 unknown #
coedge $-1 $767 $397 $400 $582 reversed $579 $-1 #
coedge $-1 $397 $767 $754 $768 reversed $579 $-1 #
loop $-1 $-1 $397 $563 #
vertex $-1 $398 $769 #
straight-curve $-1 62.107608264412363 36.750713443388705 0 0 0 1 I I #
edge $-1 $759 -4.0986264002900299 $402 4.0986264002900299 $577 $770 forward 7 unknown #
point $-1 62.107608264412349 -36.750713443388705 -3.2303569139825861 #
point $-1 62.107608264412349 36.750713443388705 -3.2303569139825861 #
loop $-1 $-1 $412 $404 #
plane-surface $-1 0 -36.750713443388705 0 0 1 0 0 0 1 forward_v I I I I #
coedge $-1 $588 $407 $409 $592 reversed $251 $-1 #
coedge $-1 $407 $587 $771 $772 reversed $251 $-1 #
coedge $-1 $415 $410 $407 $590 forward $405 $-1 #
edge $-1 $593 -38.809671815415172 $773 -34.861254693981834 $589 $774 forward 7 unknown #
coedge $-1 $409 $408 $596 $775 reversed $157 $-1 #
edge $-1 $776 -2.7589209654379419e-014 $593 7.6662627750124415 $587 $777 forward 7 unknown #
vertex $-1 $411 $778 #
straight-curve $-1 -16.264974050667735 -32.802296321955367 7.4288773938300565 -1 0 0 I I #
coedge $-1 $771 $412 $415 $600 reversed $585 $-1 #
coedge $-1 $412 $771 $591 $775 forward $585 $-1 #
vertex $-1 $413 $779 #
straight-curve $-1 -26.955177731916152 -36.750713443388705 32.416585970140559 0 0 1 I I #
straight-curve $-1 -26.955177731916152 -36.75071344338869 0.8576075644353125 0 -0.51503806187062418 -0.85716730853699208 I I #
edge $-1 $773 -38.10471847075479 $416 -26.955177731916152 $595 $780 forward 7 unknown #
point $-1 -26.955177731916152 -36.750713443388705 7.4288773938300565 #
point $-1 -26.955177731916152 -32.802296321955367 7.4288773938300565 #
edge $-1 $781 1 $781 0 $419 $-1 forward 7 unknown #
vertex $-1 $420 $782 #
ellipse-curve $-1 -34.919135402515181 -31.472603234145804 2.1580581577981999 0 -0.85716730853699208 0.51503806187062418 1.5 0 0 1 I I #
point $-1 -33.419135402515181 -34.776504882672043 4.1432424791326827 #
edge $-1 $783 1 $783 0 $423 $-1 forward 7 unknown #
vertex $-1 $424 $784 #
ellipse-curve $-1 -30.140760800155761 -31.472603234145804 2.1580581577981999 0 -0.85716730853699208 0.51503806187062418 1.5 0 0 1 I I #
point $-1 -28.640760800155761 -34.776504882672043 4.1432424791326827 #
plane-surface $-1 0 0 7.4288773938300565 0 0 1 1 0 0 forward_v I I I I #
coedge $-1 $622 $621 $614 $785 forward $428 $-1 #
coedge $-1 $614 $430 $432 $618 reversed $273 $-1 #
coedge $-1 $430 $613 $612 $785 reversed $273 $-1 #
coedge $-1 $438 $433 $430 $616 forward $439 $-1 #
edge $-1 $619 -38.809671815415172 $786 -34.861254693981834 $615 $787 forward 7 unknown #
coedge $-1 $432 $431 $622 $788 reversed $171 $-1 #
edge $-1 $789 -2.7589209654379419e-014 $619 7.6662627750124415 $613 $790 forward 7 unknown #
vertex $-1 $434 $791 #
straight-curve $-1 -2.7873851847096631 -32.802296321955367 7.4288773938300565 -1 0 0 I I #
coedge $-1 $612 $435 $438 $626 reversed $428 $-1 #
coedge $-1 $435 $612 $617 $788 forward $428 $-1 #
vertex $-1 $436 $792 #
straight-curve $-1 -8.8817841970012523e-015 -36.750713443388705 32.416585970140559 0 0 1 I I #
straight-curve $-1 -8.8817841970012523e-015 -36.75071344338869 0.8576075644353125 0 -0.51503806187062418 -0.85716730853699208 I I #
edge $-1 $786 -11.149540738838644 $440 -8.8817841970012523e-015 $621 $793 forward 7 unknown #
point $-1 -8.8817841970012523e-015 -36.750713443388705 7.4288773938300565 #
point $-1 -8.8817841970012523e-015 -32.802296321955367 7.4288773938300565 #
edge $-1 $794 1 $794 0 $443 $-1 forward 7 unknown #
vertex $-1 $444 $795 #
ellipse-curve $-1 -7.9639576705990294 -31.472603234145804 2.1580581577981999 0 -0.85716730853699208 0.51503806187062418 1.5 0 0 1 I I #
point $-1 -6.4639576705990294 -34.776504882672043 4.1432424791326827 #
edge $-1 $796 1 $796 0 $447 $-1 forward 7 unknown #
vertex $-1 $448 $797 #
ellipse-curve $-1 -3.1855830682396089 -31.472603234145804 2.1580581577981999 0 -0.85716730853699208 0.51503806187062418 1.5 0 0 1 I I #
point $-1 -1.6855830682396089 -34.776504882672043 4.1432424791326827 #
plane-surface $-1 0 0 7.4288773938300565 0 0 1 1 0 0 forward_v I I I I #
coedge $-1 $648 $647 $640 $798 forward $452 $-1 #
coedge $-1 $640 $454 $456 $644 reversed $295 $-1 #
coedge $-1 $454 $639 $638 $798 reversed $295 $-1 #
coedge $-1 $462 $457 $454 $642 forward $463 $-1 #
edge $-1 $645 -38.809671815415172 $799 -34.861254693981834 $641 $800 forward 7 unknown #
coedge $-1 $456 $455 $648 $801 reversed $185 $-1 #
edge $-1 $802 -2.7589209654379419e-014 $645 7.6662627750124415 $639 $803 forward 7 unknown #
vertex $-1 $458 $804 #
straight-curve $-1 10.690203681248413 -32.802296321955367 7.4288773938300565 -1 0 0 I I #
coedge $-1 $638 $459 $462 $652 reversed $452 $-1 #
coedge $-1 $459 $638 $643 $801 forward $452 $-1 #
vertex $-1 $460 $805 #
straight-curve $-1 26.955177731916145 -36.750713443388705 32.416585970140559 0 0 1 I I #
straight-curve $-1 26.955177731916145 -36.75071344338869 0.8576075644353125 0 -0.51503806187062418 -0.85716730853699208 I I #
edge $-1 $799 15.805636993077508 $464 26.955177731916145 $647 $806 forward 7 unknown #
point $-1 26.955177731916145 -36.750713443388705 7.4288773938300565 #
point $-1 26.955177731916145 -32.802296321955367 7.4288773938300565 #
edge $-1 $807 1 $807 0 $467 $-1 forward 7 unknown #
vertex $-1 $468 $808 #
ellipse-curve $-1 18.991220061317122 -31.472603234145804 2.1580581577981999 0 -0.85716730853699208 0.51503806187062418 1.5 0 0 1 I I #
point $-1 20.491220061317122 -34.776504882672043 4.1432424791326827 #
edge $-1 $809 1 $809 0 $471 $-1 forward 7 unknown #
vertex $-1 $472 $810 #
ellipse-curve $-1 23.769594663676543 -31.472603234145804 2.1580581577981999 0 -0.85716730853699208 0.51503806187062418 1.5 0 0 1 I I #
point $-1 25.269594663676543 -34.776504882672043 4.1432424791326827 #
plane-surface $-1 0 0 7.4288773938300565 0 0 1 1 0 0 forward_v I I I I #
coedge $-1 $674 $673 $666 $811 forward $476 $-1 #
coedge $-1 $666 $478 $480 $670 reversed $317 $-1 #
coedge $-1 $478 $665 $664 $811 reversed $317 $-1 #
coedge $-1 $486 $481 $478 $668 forward $487 $-1 #
edge $-1 $671 -38.809671815415172 $812 -34.861254693981834 $667 $813 forward 7 unknown #
coedge $-1 $480 $479 $674 $814 reversed $199 $-1 #
edge $-1 $815 -2.7589209654379419e-014 $671 7.6662627750124415 $665 $816 forward 7 unknown #
vertex $-1 $482 $817 #
straight-curve $-1 24.167792547206489 -32.802296321955367 7.4288773938300565 -1 0 0 I I #
coedge $-1 $664 $483 $486 $678 reversed $476 $-1 #
coedge $-1 $483 $664 $669 $814 forward $476 $-1 #
vertex $-1 $484 $818 #
straight-curve $-1 53.910355463832296 -36.750713443388705 32.416585970140559 0 0 1 I I #
straight-curve $-1 53.910355463832296 -36.75071344338869 0.8576075644353125 0 -0.51503806187062418 -0.85716730853699208 I I #
edge $-1 $812 42.760814724993658 $488 53.910355463832296 $673 $819 forward 7 unknown #
point $-1 53.910355463832296 -36.750713443388705 7.4288773938300565 #
point $-1 53.910355463832296 -32.802296321955367 7.4288773938300565 #
edge $-1 $820 1 $820 0 $491 $-1 forward 7 unknown #
vertex $-1 $492 $821 #
ellipse-curve $-1 45.946397793233274 -31.472603234145804 2.1580581577981999 0 -0.85716730853699208 0.51503806187062418 1.5 0 0 1 I I #
point $-1 47.446397793233274 -34.776504882672043 4.1432424791326827 #
edge $-1 $822 1 $822 0 $495 $-1 forward 7 unknown #
vertex $-1 $496 $823 #
ellipse-curve $-1 50.724772395592694 -31.472603234145804 2.1580581577981999 0 -0.85716730853699208 0.51503806187062418 1.5 0 0 1 I I #
point $-1 52.224772395592694 -34.776504882672043 4.1432424791326827 #
plane-surface $-1 0 0 7.4288773938300565 0 0 1 1 0 0 forward_v I I I I #
coedge $-1 $700 $699 $692 $824 forward $500 $-1 #
coedge $-1 $692 $502 $504 $696 reversed $339 $-1 #
coedge $-1 $502 $691 $690 $824 reversed $339 $-1 #
coedge $-1 $510 $505 $502 $694 forward $511 $-1 #
edge $-1 $697 -0.55532979158023466 $825 7.8504402168440706 $693 $826 forward 7 unknown #
coedge $-1 $504 $503 $700 $827 reversed $213 $-1 #
edge $-1 $828 -73.501426886777381 $697 -62.685221831665103 $691 $829 forward 7 unknown #
vertex $-1 $506 $830 #
straight-curve $-1 20.181051261106802 28.344943434964399 7.428877393830053 1 0 0 I I #
coedge $-1 $690 $507 $510 $704 reversed $500 $-1 #
coedge $-1 $507 $690 $695 $827 forward $500 $-1 #
vertex $-1 $508 $831 #
straight-curve $-1 26.813849580594905 36.750713443388705 71.70565964533327 0 0 1 I I #
straight-curve $-1 26.813849580594905 -20.370623157866405 46.877966199840913 0 0.77714595512881146 -0.62932039886446345 I I #
edge $-1 $825 -53.910355463832303 $512 -26.813849580594905 $699 $832 forward 7 unknown #
point $-1 26.813849580594905 36.750713443388705 7.4288773938300565 #
point $-1 26.813849580594905 28.344943434964399 7.4288773938300565 #
edge $-1 $833 1 $833 0 $515 $-1 forward 7 unknown #
vertex $-1 $516 $834 #
ellipse-curve $-1 34.555708404377015 31.52710098233732 2.7649547459567323 0 0.62932039886446345 0.77714595512881146 1.5 0 0 1 I I #
point $-1 36.055708404377015 32.54782843917652 4.0254481540884921 #
edge $-1 $835 1 $835 0 $519 $-1 forward 7 unknown #
vertex $-1 $520 $836 #
ellipse-curve $-1 46.168496640050179 31.52710098233732 2.7649547459567323 0 0.62932039886446345 0.77714595512881146 1.5 0 0 1 I I #
point $-1 47.668496640050179 32.54782843917652 4.0254481540884921 #
plane-surface $-1 0 36.750713443388705 0 0 -1 0 0 0 -1 forward_v I I I I #
coedge $-1 $721 $837 $526 $718 reversed $524 $-1 #
coedge $-1 $535 $526 $527 $720 reversed $361 $-1 #
edge $-1 $725 -7.4288773938300565 $838 7.4288773938300565 $716 $839 forward 7 unknown #
coedge $-1 $528 $527 $837 $840 forward $227 $-1 #
edge $-1 $537 -62.107608264412363 $838 62.107608264412363 $717 $841 forward 7 unknown #
coedge $-1 $730 $716 $529 $722 reversed $524 $-1 #
edge $-1 $723 -36.750713443388705 $725 36.750713443388705 $721 $842 forward 7 unknown #
vertex $-1 $530 $843 #
straight-curve $-1 0 36.750713443388705 7.4288773938300565 -1 0 0 I I #
vertex $-1 $722 $844 #
straight-curve $-1 0 -36.750713443388705 7.4288773938300565 1 0 0 I I #
point $-1 62.107608264412363 -36.750713443388705 7.4288773938300565 #
straight-curve $-1 62.107608264412363 -36.750713443388705 0 0 0 -1 I I #
point $-1 62.107608264412363 -36.750713443388705 -7.4288773938300565 #
coedge $-1 $837 $721 $539 $731 forward $524 $-1 #
edge $-1 $723 -7.4288773938300565 $732 7.4288773938300565 $539 $845 forward 7 unknown #
vertex $-1 $540 $846 #
straight-curve $-1 0 36.750713443388705 -7.4288773938300565 1 0 0 I I #
plane-surface $-1 0 -36.750713443388705 0 0 1 0 0 0 1 forward_v I I I I #
coedge $-1 $847 $748 $547 $737 forward $544 $-1 #
coedge $-1 $738 $546 $555 $746 forward $376 $-1 #
edge $-1 $741 -1.7394958892837646 $739 1.7394958892837646 $547 $848 forward 7 unknown #
coedge $-1 $548 $736 $847 $849 forward $376 $-1 #
vertex $-1 $549 $850 #
straight-curve $-1 -66.206234664702393 36.750713443388705 -6.7093486925501153 1 0 0 I I #
vertex $-1 $550 $851 #
straight-curve $-1 -66.206234664702393 36.750713443388705 -3.2303569139825861 -1 0 0 I I #
point $-1 -62.107608264412363 36.750713443388705 -6.7093486925501153 #
straight-curve $-1 -62.107608264412363 0 -6.7093486925501153 0 1 0 I I #
coedge $-1 $555 $554 $852 $853 forward $556 $-1 #
edge $-1 $557 -4.0986264002900299 $854 4.0986264002900299 $555 $855 forward 7 unknown #
point $-1 -62.107608264412363 -36.750713443388705 -6.7093486925501153 #
coedge $-1 $735 $852 $559 $749 reversed $544 $-1 #
edge $-1 $741 -36.750713443388705 $750 36.750713443388705 $748 $856 forward 7 unknown #
vertex $-1 $749 $857 #
straight-curve $-1 -66.206234664702393 -36.750713443388705 -3.2303569139825861 1 0 0 I I #
plane-surface $-1 0 36.750713443388705 0 0 -1 0 0 0 -1 forward_v I I I I #
coedge $-1 $755 $567 $569 $761 forward $564 $-1 #
coedge $-1 $566 $575 $578 $768 forward $390 $-1 #
coedge $-1 $757 $753 $566 $756 reversed $564 $-1 #
edge $-1 $858 -36.750713443388705 $762 36.750713443388705 $755 $859 forward 7 unknown #
coedge $-1 $567 $755 $767 $860 reversed $564 $-1 #
vertex $-1 $568 $861 #
vertex $-1 $568 $862 #
straight-curve $-1 70.304861064992409 0 -3.2303569139825861 0 1 0 I I #
edge $-1 $758 -1.7394958892837646 $762 1.7394958892837646 $753 $863 forward 7 unknown #
vertex $-1 $761 $864 #
straight-curve $-1 66.206234664702379 -36.750713443388705 -6.7093486925501153 -1 0 0 I I #
straight-curve $-1 66.206234664702379 -36.750713443388705 -3.2303569139825861 1 0 0 I I #
point $-1 62.107608264412349 -36.750713443388705 -6.7093486925501153 #
straight-curve $-1 62.107608264412363 0 -6.7093486925501153 0 -1 0 I I #
coedge $-1 $578 $577 $757 $860 forward $579 $-1 #
edge $-1 $580 -4.0986264002900299 $858 4.0986264002900299 $578 $865 forward 7 unknown #
point $-1 62.107608264412349 36.750713443388705 -6.7093486925501153 #
straight-curve $-1 66.206234664702379 36.750713443388705 -3.2303569139825861 -1 0 0 I I #
coedge $-1 $596 $595 $588 $772 forward $585 $-1 #
edge $-1 $773 24.987708576310503 $776 31.558978405705272 $771 $866 forward 7 unknown #
vertex $-1 $600 $867 #
straight-curve $-1 -38.10471847075479 -71.611968137370539 7.4288773938300565 0 -1 0 I I #
edge $-1 $776 -21.839744420087055 $597 -10.690203681248416 $596 $868 forward 7 unknown #
vertex $-1 $775 $869 #
straight-curve $-1 -38.10471847075479 -36.75071344338869 0.8576075644353125 0 0.51503806187062418 0.85716730853699208 I I #
point $-1 -38.10471847075479 -32.802296321955367 7.4288773938300565 #
point $-1 -26.955177731916152 -36.750713443388705 0.85760756443528885 #
straight-curve $-1 0 -36.750713443388705 7.4288773938300565 1 0 0 I I #
vertex $-1 $603 $870 #
point $-1 -33.419135402515181 -31.472603234145804 2.1580581577981999 #
vertex $-1 $607 $871 #
point $-1 -28.640760800155761 -31.472603234145804 2.1580581577981999 #
edge $-1 $786 24.987708576310503 $789 31.558978405705272 $612 $872 forward 7 unknown #
vertex $-1 $626 $873 #
straight-curve $-1 -11.149540738838644 -71.611968137370539 7.4288773938300565 0 -1 0 I I #
edge $-1 $789 -8.3621555541289805 $623 2.7873851847096542 $622 $874 forward 7 unknown #
vertex $-1 $788 $875 #
straight-curve $-1 -11.149540738838644 -36.75071344338869 0.8576075644353125 0 0.51503806187062418 0.85716730853699208 I I #
point $-1 -11.149540738838644 -32.802296321955367 7.4288773938300565 #
point $-1 -8.8817841970012523e-015 -36.750713443388705 0.85760756443528885 #
straight-curve $-1 0 -36.750713443388705 7.4288773938300565 1 0 0 I I #
vertex $-1 $629 $876 #
point $-1 -6.4639576705990294 -31.472603234145804 2.1580581577981999 #
vertex $-1 $633 $877 #
point $-1 -1.6855830682396089 -31.472603234145804 2.1580581577981999 #
edge $-1 $799 24.987708576310503 $802 31.558978405705272 $638 $878 forward 7 unknown #
vertex $-1 $652 $879 #
straight-curve $-1 15.805636993077508 -71.611968137370539 7.4288773938300565 0 -1 0 I I #
edge $-1 $802 5.1154333118290953 $649 16.264974050667732 $648 $880 forward 7 unknown #
vertex $-1 $801 $881 #
straight-curve $-1 15.805636993077508 -36.75071344338869 0.8576075644353125 0 0.51503806187062418 0.85716730853699208 I I #
point $-1 15.805636993077508 -32.802296321955367 7.4288773938300565 #
point $-1 26.955177731916145 -36.750713443388705 0.85760756443528885 #
straight-curve $-1 0 -36.750713443388705 7.4288773938300565 1 0 0 I I #
vertex $-1 $655 $882 #
point $-1 20.491220061317122 -31.472603234145804 2.1580581577981999 #
vertex $-1 $659 $883 #
point $-1 25.269594663676543 -31.472603234145804 2.1580581577981999 #
edge $-1 $812 24.987708576310503 $815 31.558978405705272 $664 $884 forward 7 unknown #
vertex $-1 $678 $885 #
straight-curve $-1 42.760814724993658 -71.611968137370539 7.4288773938300565 0 -1 0 I I #
edge $-1 $815 18.593022177787169 $675 29.742562916625808 $674 $886 forward 7 unknown #
vertex $-1 $814 $887 #
straight-curve $-1 42.760814724993658 -36.75071344338869 0.8576075644353125 0 0.51503806187062418 0.85716730853699208 I I #
point $-1 42.760814724993658 -32.802296321955367 7.4288773938300565 #
point $-1 53.910355463832296 -36.750713443388705 0.85760756443528885 #
straight-curve $-1 0 -36.750713443388705 7.4288773938300565 1 0 0 I I #
vertex $-1 $681 $888 #
point $-1 47.446397793233274 -31.472603234145804 2.1580581577981999 #
vertex $-1 $685 $889 #
point $-1 52.224772395592694 -31.472603234145804 2.1580581577981999 #
edge $-1 $825 64.276782251503221 $828 71.083640730986303 $690 $890 forward 7 unknown #
vertex $-1 $704 $891 #
straight-curve $-1 53.910355463832303 28.900273226544634 7.4288773938300636 0 1 0 I I #
edge $-1 $828 -33.729304202725501 $701 -6.6327983194881028 $700 $892 forward 7 unknown #
vertex $-1 $827 $893 #
straight-curve $-1 53.910355463832303 -20.370623157866405 46.877966199840913 0 -0.77714595512881146 0.62932039886446345 I I #
point $-1 53.910355463832303 28.344943434964399 7.4288773938300565 #
point $-1 26.813849580594905 36.750713443388705 0.62201891434697387 #
straight-curve $-1 0 36.750713443388705 7.4288773938300565 -1 0 0 I I #
vertex $-1 $707 $894 #
point $-1 36.055708404377015 31.52710098233732 2.7649547459567323 #
vertex $-1 $711 $895 #
point $-1 47.668496640050179 31.52710098233732 2.7649547459567323 #
coedge $-1 $716 $730 $719 $840 reversed $524 $-1 #
vertex $-1 $840 $896 #
straight-curve $-1 -62.107608264412363 -36.750713443388705 0 0 0 -1 I I #
edge $-1 $838 -36.750713443388705 $732 36.750713443388705 $837 $897 forward 7 unknown #
straight-curve $-1 0 -36.750713443388705 -7.4288773938300565 -1 0 0 I I #
straight-curve $-1 -62.107608264412363 0 7.4288773938300565 0 -1 0 I I #
point $-1 -62.107608264412363 36.750713443388705 7.4288773938300565 #
point $-1 -62.107608264412363 -36.750713443388705 7.4288773938300565 #
straight-curve $-1 -62.107608264412363 36.750713443388705 0 0 0 -1 I I #
point $-1 -62.107608264412363 36.750713443388705 -7.4288773938300565 #
coedge $-1 $852 $735 $738 $849 reversed $544 $-1 #
straight-curve $-1 -70.304861064992423 36.750713443388705 -4.9698528032663507 0 0 -1 I I #
edge $-1 $854 -36.750713443388705 $739 36.750713443388705 $847 $898 forward 7 unknown #
point $-1 -70.304861064992423 36.750713443388705 -6.7093486925501153 #
point $-1 -70.304861064992423 36.750713443388705 -3.2303569139825861 #
coedge $-1 $748 $847 $745 $853 reversed $544 $-1 #
edge $-1 $750 -1.7394958892837646 $854 1.7394958892837646 $852 $899 forward 7 unknown #
vertex $-1 $849 $900 #
straight-curve $-1 -66.206234664702393 -36.750713443388705 -6.7093486925501153 -1 0 0 I I #
straight-curve $-1 -70.304861064992423 0 -3.2303569139825861 0 -1 0 I I #
point $-1 -70.304861064992423 -36.750713443388705 -3.2303569139825861 #
vertex $-1 $756 $901 #
straight-curve $-1 70.304861064992409 0 -6.7093486925501153 0 -1 0 I I #
edge $-1 $759 -1.7394958892837646 $858 1.7394958892837646 $757 $902 forward 7 unknown #
point $-1 70.304861064992409 -36.750713443388705 -3.2303569139825861 #
point $-1 70.304861064992409 36.750713443388705 -3.2303569139825861 #
straight-curve $-1 70.304861064992409 -36.750713443388705 -4.9698528032663507 0 0 -1 I I #
point $-1 70.304861064992409 -36.750713443388705 -6.7093486925501153 #
straight-curve $-1 66.206234664702379 36.750713443388705 -6.7093486925501153 1 0 0 I I #
straight-curve $-1 -38.10471847075479 -36.750713443388705 32.416585970140559 0 0 -1 I I #
point $-1 -38.10471847075479 -36.750713443388705 7.4288773938300565 #
straight-curve $-1 -16.264974050667735 -36.750713443388705 0.85760756443528829 1 0 0 I I #
point $-1 -38.10471847075479 -36.750713443388705 0.85760756443528885 #
point $-1 -34.919135402515181 -30.186852271340317 1.3855010649922637 #
point $-1 -30.140760800155761 -30.186852271340317 1.3855010649922637 #
straight-curve $-1 -11.149540738838644 -36.750713443388705 32.416585970140559 0 0 -1 I I #
point $-1 -11.149540738838644 -36.750713443388705 7.4288773938300565 #
straight-curve $-1 -2.7873851847096631 -36.750713443388705 0.85760756443528829 1 0 0 I I #
point $-1 -11.149540738838644 -36.750713443388705 0.85760756443528885 #
point $-1 -7.9639576705990294 -30.186852271340317 1.3855010649922637 #
point $-1 -3.1855830682396089 -30.186852271340317 1.3855010649922637 #
straight-curve $-1 15.805636993077508 -36.750713443388705 32.416585970140559 0 0 -1 I I #
point $-1 15.805636993077508 -36.750713443388705 7.4288773938300565 #
straight-curve $-1 10.690203681248413 -36.750713443388705 0.85760756443528829 1 0 0 I I #
point $-1 15.805636993077508 -36.750713443388705 0.85760756443528885 #
point $-1 18.991220061317122 -30.186852271340317 1.3855010649922637 #
point $-1 23.769594663676543 -30.186852271340317 1.3855010649922637 #
straight-curve $-1 42.760814724993658 -36.750713443388705 32.416585970140559 0 0 -1 I I #
point $-1 42.760814724993658 -36.750713443388705 7.4288773938300565 #
straight-curve $-1 24.167792547206489 -36.750713443388705 0.85760756443528829 1 0 0 I I #
point $-1 42.760814724993658 -36.750713443388705 0.85760756443528885 #
point $-1 45.946397793233274 -30.186852271340317 1.3855010649922637 #
point $-1 50.724772395592694 -30.186852271340317 1.3855010649922637 #
straight-curve $-1 53.910355463832303 36.750713443388705 71.70565964533327 0 0 -1 I I #
point $-1 53.910355463832303 36.750713443388705 7.4288773938300565 #
straight-curve $-1 20.181051261106802 36.750713443388705 0.62201891434697387 -1 0 0 I I #
point $-1 53.910355463832303 36.750713443388705 0.62201891434697387 #
point $-1 34.555708404377015 30.583120384040622 1.5992358132635154 #
point $-1 46.168496640050179 30.583120384040622 1.5992358132635154 #
point $-1 -62.107608264412363 -36.750713443388705 -7.4288773938300565 #
straight-curve $-1 -62.107608264412363 0 -7.4288773938300565 0 1 0 I I #
straight-curve $-1 -70.304861064992423 0 -6.7093486925501153 0 1 0 I I #
straight-curve $-1 -70.304861064992423 -36.750713443388705 -4.9698528032663507 0 0 -1 I I #
point $-1 -70.304861064992423 -36.750713443388705 -6.7093486925501153 #
point $-1 70.304861064992409 36.750713443388705 -6.7093486925501153 #
straight-curve $-1 70.304861064992409 36.750713443388705 -4.9698528032663507 0 0 -1 I I #
End-of-ACIS-data 