500 0 7 0           
7 Unknown 11 ACIS 5.0 NT 24 Thu Mar 25 17:59:03 1999 
-1 9.9999999999999995e-007 1e-010 
body $-1 $7 $-1 $8 #
body $-1 $9 $-1 $10 #
body $-1 $11 $-1 $12 #
body $-1 $13 $-1 $14 #
body $-1 $15 $-1 $16 #
body $-1 $17 $-1 $18 #
body $-1 $19 $-1 $20 #
lump $-1 $-1 $21 $0 #
transform $-1 1 0 0 0 1 0 0 0 1 46.159855952635276 23.889102489065028 9.2899716042561788 1 rotate no_reflect no_shear #
lump $-1 $-1 $22 $1 #
transform $-1 1 0 0 0 1 0 0 0 1 46.159855952635276 23.889102489065028 9.2899716042561788 1 rotate no_reflect no_shear #
lump $-1 $-1 $23 $2 #
transform $-1 1 0 0 0 1 0 0 0 1 46.159855952635276 23.889102489065028 9.2899716042561788 1 rotate no_reflect no_shear #
lump $-1 $-1 $24 $3 #
transform $-1 1 0 0 0 1 0 0 0 1 46.159855952635276 23.889102489065028 9.2899716042561788 1 rotate no_reflect no_shear #
lump $-1 $-1 $25 $4 #
transform $-1 1 0 0 0 1 0 0 0 1 46.159855952635276 23.889102489065028 9.2899716042561788 1 rotate no_reflect no_shear #
lump $-1 $-1 $26 $5 #
transform $-1 1 0 0 0 1 0 0 0 1 46.159855952635276 23.889102489065028 9.2899716042561788 1 rotate no_reflect no_shear #
lump $-1 $-1 $27 $6 #
transform $-1 1 0 0 0 1 0 0 0 1 46.159855952635276 23.889102489065028 9.2899716042561788 1 rotate no_reflect no_shear #
shell $-1 $-1 $-1 $28 $-1 $7 #
shell $-1 $-1 $-1 $29 $-1 $9 #
shell $-1 $-1 $-1 $30 $-1 $11 #
shell $-1 $-1 $-1 $31 $-1 $13 #
shell $-1 $-1 $-1 $32 $-1 $15 #
shell $-1 $-1 $-1 $33 $-1 $17 #
shell $-1 $-1 $-1 $34 $-1 $19 #
face $-1 $35 $36 $21 $-1 $37 forward single #
face $-1 $38 $39 $22 $-1 $40 reversed single #
face $-1 $41 $42 $23 $-1 $43 reversed single #
face $-1 $44 $45 $24 $-1 $46 reversed single #
face $-1 $47 $48 $25 $-1 $49 forward single #
face $-1 $50 $51 $26 $-1 $52 forward single #
face $-1 $53 $54 $27 $-1 $55 forward single #
face $-1 $56 $57 $21 $-1 $58 reversed single #
loop $-1 $-1 $59 $28 #
plane-surface $-1 0 0 9.2899716042561788 0 0 1 1 0 0 forward_v I I I I #
face $-1 $60 $61 $22 $-1 $62 reversed single #
loop $-1 $-1 $63 $29 #
plane-surface $-1 0 -19.825591169252473 6.2899716042561788 0 0 1 1 0 0 forward_v I I I I #
face $-1 $64 $65 $23 $-1 $66 reversed single #
loop $-1 $-1 $67 $30 #
plane-surface $-1 0 19.825591169252473 6.2899716042561788 0 0 1 1 0 0 forward_v I I I I #
face $-1 $68 $69 $24 $-1 $70 reversed single #
loop $-1 $-1 $71 $31 #
plane-surface $-1 -46.159855952635283 -12.759389343086074 5.362418187960337 -0.80901700255871778 0 0.5877852410284794 0.5877852410284794 0 0.80901700255871778 forward_v I I I I #
face $-1 $72 $73 $25 $-1 $74 forward single #
loop $-1 $75 $76 $32 #
cone-surface $-1 -44.14150412174785 -14.561003646898381 6.8963835533651681 0.80901700255871778 0 -0.5877852410284794 0.2938926205142397 0 0.40450850127935889 1 I I 0 1 0.5 forward I I I I #
face $-1 $77 $78 $26 $-1 $79 forward single #
loop $-1 $80 $81 $33 #
cone-surface $-1 -44.14150412174785 -12.759389343086074 6.8963835533651681 0.80901700255871778 0 -0.5877852410284794 0.2938926205142397 0 0.40450850127935889 1 I I 0 1 0.5 forward I I I I #
face $-1 $82 $83 $27 $-1 $84 forward single #
loop $-1 $85 $86 $34 #
cone-surface $-1 -44.14150412174785 -10.957775039273766 6.8963835533651681 0.80901700255871778 0 -0.5877852410284794 0.2938926205142397 0 0.40450850127935889 1 I I 0 1 0.5 forward I I I I #
face $-1 $87 $88 $21 $-1 $89 reversed single #
loop $-1 $-1 $90 $35 #
plane-surface $-1 0 0 -9.2899716042561788 0 0 1 1 0 0 forward_v I I I I #
coedge $-1 $91 $92 $93 $94 forward $36 $-1 #
face $-1 $95 $96 $22 $-1 $97 reversed single #
loop $-1 $-1 $98 $38 #
plane-surface $-1 0 -15.762079849439917 7.7899716042561788 0 -1 0 0 0 -1 forward_v I I I I #
coedge $-1 $99 $100 $101 $102 reversed $39 $-1 #
face $-1 $103 $104 $23 $-1 $105 forward single #
loop $-1 $-1 $106 $41 #
plane-surface $-1 0 15.762079849439917 7.7899716042561788 0 1 0 0 0 1 forward_v I I I I #
coedge $-1 $107 $108 $109 $110 reversed $42 $-1 #
face $-1 $111 $112 $24 $-1 $113 reversed single #
loop $-1 $-1 $114 $44 #
plane-surface $-1 -120.84807255532164 -9.7566988367322303 59.626582301879566 0 -1 0 0.80901700255871778 0 -0.5877852410284794 forward_v I I I I #
coedge $-1 $115 $116 $117 $118 reversed $45 $-1 #
face $-1 $-1 $119 $25 $-1 $120 forward single #
loop $-1 $121 $122 $47 #
cone-surface $-1 -43.34766529242205 -14.561003646898381 6.3196259003649562 0.80901700255871778 0 -0.5877852410284794 0.14694631025711985 0 0.20225425063967944 1 I I -0.70710678118654746 0.70710678118654746 0.25 forward I I I I #
loop $-1 $-1 $123 $32 #
coedge $-1 $76 $76 $124 $125 reversed $48 $-1 #
face $-1 $-1 $126 $26 $-1 $127 forward single #
loop $-1 $128 $129 $50 #
cone-surface $-1 -43.34766529242205 -12.759389343086074 6.3196259003649562 0.80901700255871778 0 -0.5877852410284794 0.14694631025711985 0 0.20225425063967944 1 I I -0.70710678118654746 0.70710678118654746 0.25 forward I I I I #
loop $-1 $-1 $130 $33 #
coedge $-1 $81 $81 $131 $132 reversed $51 $-1 #
face $-1 $-1 $133 $27 $-1 $134 forward single #
loop $-1 $135 $136 $53 #
cone-surface $-1 -43.34766529242205 -10.957775039273766 6.3196259003649562 0.80901700255871778 0 -0.5877852410284794 0.14694631025711985 0 0.20225425063967944 1 I I -0.70710678118654746 0.70710678118654746 0.25 forward I I I I #
loop $-1 $-1 $137 $34 #
coedge $-1 $86 $86 $138 $139 reversed $54 $-1 #
face $-1 $140 $141 $21 $-1 $142 reversed single #
loop $-1 $-1 $143 $56 #
plane-surface $-1 0 -23.889102489065028 0 0 1 0 0 0 1 forward_v I I I I #
coedge $-1 $144 $145 $146 $147 forward $57 $-1 #
coedge $-1 $148 $59 $149 $150 forward $36 $-1 #
coedge $-1 $59 $148 $151 $152 forward $36 $-1 #
coedge $-1 $153 $154 $59 $94 reversed $155 $-1 #
edge $-1 $156 -23.889102489065028 $157 23.889102489065028 $93 $158 forward 7 unknown #
face $-1 $159 $160 $22 $-1 $161 reversed single #
loop $-1 $-1 $162 $60 #
plane-surface $-1 -46.159855952635276 0 0 1 0 0 0 0 -1 forward_v I I I I #
coedge $-1 $163 $164 $165 $166 reversed $61 $-1 #
coedge $-1 $167 $63 $168 $169 reversed $39 $-1 #
coedge $-1 $63 $167 $163 $170 forward $39 $-1 #
coedge $-1 $165 $171 $63 $102 forward $172 $-1 #
edge $-1 $173 -13.976306904438792 $174 -5.8492842648136811 $101 $175 forward 7 unknown #
face $-1 $176 $177 $23 $-1 $178 reversed single #
loop $-1 $-1 $179 $64 #
plane-surface $-1 0 0 9.2899716042561788 0 0 1 1 0 0 forward_v I I I I #
coedge $-1 $180 $181 $182 $183 reversed $65 $-1 #
coedge $-1 $184 $67 $180 $185 forward $42 $-1 #
coedge $-1 $67 $184 $186 $187 reversed $42 $-1 #
coedge $-1 $188 $189 $67 $110 forward $177 $-1 #
edge $-1 $190 5.8492842648136811 $191 13.976306904438792 $109 $192 forward 7 unknown #
face $-1 $193 $194 $24 $-1 $195 forward single #
loop $-1 $-1 $196 $68 #
plane-surface $-1 -46.159855952635276 0 0 1 0 0 0 0 -1 forward_v I I I I #
coedge $-1 $197 $198 $199 $200 reversed $69 $-1 #
coedge $-1 $201 $71 $202 $203 reversed $45 $-1 #
coedge $-1 $71 $201 $197 $204 forward $45 $-1 #
coedge $-1 $199 $205 $71 $118 forward $194 $-1 #
edge $-1 $206 -9.3823851778968805 $207 -3.3770041651891933 $117 $208 forward 7 unknown #
loop $-1 $-1 $124 $72 #
plane-surface $-1 -46.159855952635283 -12.759389343086074 5.362418187960337 -0.80901700255871778 0 0.5877852410284794 0.5877852410284794 0 0.80901700255871778 forward_v I I I I #
loop $-1 $-1 $209 $47 #
coedge $-1 $122 $122 $123 $210 reversed $73 $-1 #
coedge $-1 $123 $123 $122 $210 forward $75 $-1 #
coedge $-1 $124 $124 $76 $125 forward $119 $-1 #
edge $-1 $211 0 $211 6.2831853071796004 $124 $212 forward 7 unknown #
loop $-1 $-1 $131 $77 #
plane-surface $-1 -46.159855952635283 -12.759389343086074 5.362418187960337 -0.80901700255871778 0 0.5877852410284794 0.5877852410284794 0 0.80901700255871778 forward_v I I I I #
loop $-1 $-1 $213 $50 #
coedge $-1 $129 $129 $130 $214 reversed $78 $-1 #
coedge $-1 $130 $130 $129 $214 forward $80 $-1 #
coedge $-1 $131 $131 $81 $132 forward $126 $-1 #
edge $-1 $215 0 $215 6.2831853071796004 $131 $216 forward 7 unknown #
loop $-1 $-1 $138 $82 #
plane-surface $-1 -46.159855952635283 -12.759389343086074 5.362418187960337 -0.80901700255871778 0 0.5877852410284794 0.5877852410284794 0 0.80901700255871778 forward_v I I I I #
loop $-1 $-1 $217 $53 #
coedge $-1 $136 $136 $137 $218 reversed $83 $-1 #
coedge $-1 $137 $137 $136 $218 forward $85 $-1 #
coedge $-1 $138 $138 $86 $139 forward $133 $-1 #
edge $-1 $219 0 $219 6.2831853071796004 $138 $220 forward 7 unknown #
face $-1 $221 $222 $21 $-1 $223 reversed single #
loop $-1 $-1 $224 $87 #
plane-surface $-1 -46.159855952635276 0 0 1 0 0 0 0 -1 forward_v I I I I #
coedge $-1 $225 $151 $226 $227 forward $88 $-1 #
coedge $-1 $228 $90 $225 $229 forward $57 $-1 #
coedge $-1 $90 $228 $230 $231 forward $57 $-1 #
coedge $-1 $154 $153 $90 $147 reversed $155 $-1 #
edge $-1 $232 -23.889102489065028 $233 23.889102489065028 $146 $234 forward 7 unknown #
coedge $-1 $92 $91 $235 $236 forward $36 $-1 #
coedge $-1 $237 $238 $91 $150 reversed $222 $-1 #
edge $-1 $157 -46.159855952635276 $239 46.159855952635276 $149 $240 forward 7 unknown #
coedge $-1 $143 $241 $92 $152 reversed $88 $-1 #
edge $-1 $242 -46.159855952635276 $156 46.159855952635276 $151 $243 forward 7 unknown #
coedge $-1 $146 $93 $241 $244 forward $155 $-1 #
coedge $-1 $93 $146 $237 $245 reversed $155 $-1 #
loop $-1 $-1 $153 $221 #
vertex $-1 $94 $246 #
vertex $-1 $94 $247 #
straight-curve $-1 46.159855952635276 0 9.2899716042561788 0 1 0 I I #
face $-1 $248 $249 $22 $-1 $250 forward single #
loop $-1 $-1 $168 $95 #
plane-surface $-1 0 -23.889102489065028 0 0 1 0 0 0 1 forward_v I I I I #
coedge $-1 $251 $252 $253 $254 forward $96 $-1 #
coedge $-1 $253 $98 $100 $170 reversed $61 $-1 #
coedge $-1 $98 $253 $255 $256 reversed $61 $-1 #
coedge $-1 $257 $101 $98 $166 forward $172 $-1 #
edge $-1 $174 2.3949858021280894 $258 5.3949858021280894 $165 $259 forward 7 unknown #
coedge $-1 $100 $99 $251 $260 reversed $39 $-1 #
coedge $-1 $261 $262 $99 $169 forward $160 $-1 #
edge $-1 $263 -46.159855952635276 $173 46.159855952635276 $168 $264 forward 7 unknown #
edge $-1 $265 -46.159855952635276 $174 46.159855952635276 $163 $266 forward 7 unknown #
coedge $-1 $101 $257 $261 $267 forward $172 $-1 #
loop $-1 $-1 $165 $248 #
vertex $-1 $169 $268 #
vertex $-1 $102 $269 #
straight-curve $-1 46.159855952635276 -9.9127955846262363 6.2899716042561788 0 1 0 I I #
face $-1 $270 $271 $23 $-1 $272 reversed single #
loop $-1 $-1 $189 $103 #
plane-surface $-1 46.159855952635276 0 0 -1 0 0 0 0 1 forward_v I I I I #
coedge $-1 $273 $274 $181 $275 forward $104 $-1 #
coedge $-1 $276 $106 $107 $185 reversed $65 $-1 #
coedge $-1 $106 $276 $179 $275 reversed $65 $-1 #
coedge $-1 $277 $278 $106 $183 forward $271 $-1 #
edge $-1 $279 2.3949858021280894 $280 5.3949858021280894 $182 $281 forward 7 unknown #
coedge $-1 $108 $107 $278 $282 reversed $42 $-1 #
edge $-1 $190 -46.159855952635276 $279 46.159855952635276 $180 $283 forward 7 unknown #
coedge $-1 $284 $285 $108 $187 forward $286 $-1 #
edge $-1 $191 -46.159855952635276 $287 46.159855952635276 $186 $288 forward 7 unknown #
coedge $-1 $289 $109 $285 $290 reversed $177 $-1 #
coedge $-1 $109 $289 $276 $291 forward $177 $-1 #
vertex $-1 $110 $292 #
vertex $-1 $187 $293 #
straight-curve $-1 46.159855952635276 9.9127955846262363 6.2899716042561788 0 1 0 I I #
face $-1 $-1 $294 $24 $-1 $295 forward single #
loop $-1 $-1 $199 $111 #
plane-surface $-1 0 0 9.2899716042561788 0 0 1 1 0 0 forward_v I I I I #
coedge $-1 $296 $297 $198 $298 forward $112 $-1 #
coedge $-1 $198 $114 $116 $204 reversed $69 $-1 #
coedge $-1 $114 $197 $196 $298 reversed $69 $-1 #
coedge $-1 $299 $117 $114 $200 forward $194 $-1 #
edge $-1 $207 -17.117714829428152 $300 -14.264180325025542 $199 $301 forward 7 unknown #
coedge $-1 $116 $115 $296 $302 reversed $45 $-1 #
coedge $-1 $303 $304 $115 $203 forward $294 $-1 #
edge $-1 $305 -14.548007022681215 $206 -9.6932840639869386 $202 $306 forward 7 unknown #
edge $-1 $307 1.2080531203272332e-014 $207 4.854722958694289 $197 $308 forward 7 unknown #
coedge $-1 $117 $299 $303 $309 forward $194 $-1 #
vertex $-1 $203 $310 #
vertex $-1 $118 $311 #
straight-curve $-1 -43.306321448232666 -6.3796946715430369 9.2899716042561788 0 1 0 I I #
coedge $-1 $209 $209 $-1 $312 reversed $121 $-1 #
edge $-1 $313 0 $313 6.2831853071796004 $122 $314 forward 7 unknown #
vertex $-1 $125 $315 #
ellipse-curve $-1 -44.733088700433974 -14.561003646898381 7.3261948961082606 -0.80901700255871778 0 0.5877852410284794 0.2938926205142397 0 0.40450850127935889 1 I I #
coedge $-1 $213 $213 $-1 $316 reversed $128 $-1 #
edge $-1 $317 0 $317 6.2831853071796004 $129 $318 forward 7 unknown #
vertex $-1 $132 $319 #
ellipse-curve $-1 -44.733088700433974 -12.759389343086074 7.3261948961082606 -0.80901700255871778 0 0.5877852410284794 0.2938926205142397 0 0.40450850127935889 1 I I #
coedge $-1 $217 $217 $-1 $320 reversed $135 $-1 #
edge $-1 $321 0 $321 6.2831853071796004 $136 $322 forward 7 unknown #
vertex $-1 $139 $323 #
ellipse-curve $-1 -44.733088700433974 -10.957775039273766 7.3261948961082606 -0.80901700255871778 0 0.5877852410284794 0.2938926205142397 0 0.40450850127935889 1 I I #
face $-1 $-1 $155 $21 $-1 $324 reversed single #
loop $-1 $-1 $237 $140 #
plane-surface $-1 0 23.889102489065028 0 0 -1 0 0 0 -1 forward_v I I I I #
coedge $-1 $325 $235 $238 $326 forward $141 $-1 #
coedge $-1 $241 $143 $144 $229 reversed $88 $-1 #
coedge $-1 $235 $325 $143 $227 reversed $141 $-1 #
edge $-1 $242 -9.2899716042561788 $327 9.2899716042561788 $226 $328 forward 7 unknown #
coedge $-1 $145 $144 $325 $329 forward $57 $-1 #
edge $-1 $233 -46.159855952635276 $327 46.159855952635276 $225 $330 forward 7 unknown #
coedge $-1 $238 $237 $145 $231 reversed $222 $-1 #
edge $-1 $331 -46.159855952635276 $232 46.159855952635276 $230 $332 forward 7 unknown #
vertex $-1 $147 $333 #
vertex $-1 $244 $334 #
straight-curve $-1 46.159855952635276 0 -9.2899716042561788 0 -1 0 I I #
coedge $-1 $224 $226 $148 $236 reversed $141 $-1 #
edge $-1 $239 -23.889102489065028 $242 23.889102489065028 $235 $335 forward 7 unknown #
coedge $-1 $230 $149 $154 $245 forward $222 $-1 #
coedge $-1 $149 $230 $224 $326 reversed $222 $-1 #
vertex $-1 $150 $336 #
straight-curve $-1 0 23.889102489065028 9.2899716042561788 -1 0 0 I I #
coedge $-1 $151 $225 $153 $244 reversed $88 $-1 #
vertex $-1 $236 $337 #
straight-curve $-1 0 -23.889102489065028 9.2899716042561788 1 0 0 I I #
edge $-1 $156 -9.2899716042561788 $233 9.2899716042561788 $153 $338 forward 7 unknown #
edge $-1 $157 -9.2899716042561788 $232 9.2899716042561788 $154 $339 forward 7 unknown #
point $-1 46.159855952635276 -23.889102489065028 9.2899716042561788 #
point $-1 46.159855952635276 23.889102489065028 9.2899716042561788 #
face $-1 $-1 $172 $22 $-1 $340 reversed single #
loop $-1 $-1 $255 $159 #
plane-surface $-1 0 0 9.2899716042561788 0 0 1 1 0 0 forward_v I I I I #
coedge $-1 $341 $162 $167 $260 forward $96 $-1 #
coedge $-1 $162 $341 $342 $343 reversed $96 $-1 #
coedge $-1 $164 $163 $162 $254 reversed $61 $-1 #
edge $-1 $344 -5.3949858021280894 $265 -2.3949858021280894 $162 $345 forward 7 unknown #
coedge $-1 $342 $346 $164 $256 forward $249 $-1 #
edge $-1 $258 -46.159855952635276 $344 46.159855952635276 $255 $347 forward 7 unknown #
coedge $-1 $171 $165 $346 $348 reversed $172 $-1 #
vertex $-1 $166 $349 #
straight-curve $-1 46.159855952635276 -15.762079849439917 3.8949858021280894 0 0 1 I I #
edge $-1 $265 5.8492842648136811 $263 13.976306904438792 $251 $350 forward 7 unknown #
coedge $-1 $351 $168 $171 $267 reversed $160 $-1 #
coedge $-1 $168 $351 $341 $352 forward $160 $-1 #
vertex $-1 $169 $353 #
straight-curve $-1 0 -23.889102489065028 6.2899716042561788 1 0 0 I I #
vertex $-1 $260 $354 #
straight-curve $-1 0 -15.762079849439917 6.2899716042561788 1 0 0 I I #
edge $-1 $355 -9.2899716042561788 $173 -6.2899716042561788 $171 $356 forward 7 unknown #
point $-1 46.159855952635276 -23.889102489065028 6.2899716042561788 #
point $-1 46.159855952635276 -15.762079849439917 6.2899716042561788 #
face $-1 $-1 $286 $23 $-1 $357 reversed single #
loop $-1 $-1 $182 $176 #
plane-surface $-1 -46.159855952635276 0 0 1 0 0 0 0 -1 forward_v I I I I #
coedge $-1 $358 $179 $289 $359 forward $104 $-1 #
coedge $-1 $179 $358 $277 $360 forward $104 $-1 #
edge $-1 $280 -46.159855952635276 $361 46.159855952635276 $179 $362 forward 7 unknown #
coedge $-1 $181 $180 $189 $291 reversed $65 $-1 #
coedge $-1 $363 $182 $274 $360 reversed $271 $-1 #
coedge $-1 $182 $363 $184 $282 forward $271 $-1 #
vertex $-1 $282 $364 #
vertex $-1 $183 $365 #
straight-curve $-1 -46.159855952635276 15.762079849439917 3.8949858021280894 0 0 1 I I #
edge $-1 $287 -13.976306904438792 $279 -5.8492842648136811 $278 $366 forward 7 unknown #
straight-curve $-1 0 15.762079849439917 6.2899716042561788 -1 0 0 I I #
coedge $-1 $367 $186 $363 $368 reversed $286 $-1 #
coedge $-1 $186 $367 $188 $290 forward $286 $-1 #
loop $-1 $-1 $186 $270 #
vertex $-1 $187 $369 #
straight-curve $-1 0 23.889102489065028 6.2899716042561788 -1 0 0 I I #
coedge $-1 $189 $188 $273 $359 reversed $177 $-1 #
edge $-1 $370 -9.2899716042561788 $191 -6.2899716042561788 $188 $371 forward 7 unknown #
edge $-1 $361 -5.3949858021280894 $190 -2.3949858021280894 $189 $372 forward 7 unknown #
point $-1 46.159855952635276 15.762079849439917 6.2899716042561788 #
point $-1 46.159855952635276 23.889102489065028 6.2899716042561788 #
loop $-1 $-1 $202 $193 #
plane-surface $-1 0 -15.762079849439917 7.7899716042561788 0 -1 0 0 0 -1 forward_v I I I I #
coedge $-1 $373 $196 $201 $302 forward $112 $-1 #
coedge $-1 $196 $373 $299 $374 reversed $112 $-1 #
edge $-1 $300 20.523319546683602 $307 24.450872962979435 $196 $375 forward 7 unknown #
coedge $-1 $205 $199 $297 $374 forward $194 $-1 #
vertex $-1 $374 $376 #
straight-curve $-1 -60.424036277660818 -9.7566988367322303 9.2899716042561806 -1 0 0 I I #
edge $-1 $307 3.3770041651891933 $305 9.3823851778968805 $296 $377 forward 7 unknown #
coedge $-1 $304 $202 $205 $309 reversed $294 $-1 #
coedge $-1 $202 $303 $373 $378 reversed $294 $-1 #
vertex $-1 $378 $379 #
straight-curve $-1 -37.60875213832459 -15.762079849439917 17.132003222653083 0.5877852410284794 0 0.80901700255871778 I I #
vertex $-1 $302 $380 #
straight-curve $-1 -46.159855952635283 -9.7566988367322303 5.362418187960337 0.5877852410284794 0 0.80901700255871778 I I #
edge $-1 $381 -46.159855952635276 $206 -43.306321448232666 $205 $382 forward 7 unknown #
point $-1 -43.306321448232666 -15.762079849439917 9.2899716042561788 #
point $-1 -43.306321448232666 -9.7566988367322303 9.2899716042561788 #
edge $-1 $383 1 $383 0 $209 $-1 forward 7 unknown #
vertex $-1 $210 $384 #
ellipse-curve $-1 -43.549919543061726 -14.561003646898381 6.4665722106220764 -0.80901700255871778 0 0.5877852410284794 0.2938926205142397 0 0.40450850127935889 1 I I #
point $-1 -44.439196079919732 -14.561003646898381 7.730703397387618 #
edge $-1 $385 1 $385 0 $213 $-1 forward 7 unknown #
vertex $-1 $214 $386 #
ellipse-curve $-1 -43.549919543061726 -12.759389343086074 6.4665722106220764 -0.80901700255871778 0 0.5877852410284794 0.2938926205142397 0 0.40450850127935889 1 I I #
point $-1 -44.439196079919732 -12.759389343086074 7.730703397387618 #
edge $-1 $387 1 $387 0 $217 $-1 forward 7 unknown #
vertex $-1 $218 $388 #
ellipse-curve $-1 -43.549919543061726 -10.957775039273766 6.4665722106220764 -0.80901700255871778 0 0.5877852410284794 0.2938926205142397 0 0.40450850127935889 1 I I #
point $-1 -44.439196079919732 -10.957775039273766 7.730703397387618 #
plane-surface $-1 46.159855952635276 0 0 -1 0 0 0 0 1 forward_v I I I I #
coedge $-1 $226 $224 $228 $329 reversed $141 $-1 #
edge $-1 $239 -9.2899716042561788 $331 9.2899716042561788 $238 $389 forward 7 unknown #
vertex $-1 $329 $390 #
straight-curve $-1 -46.159855952635276 -23.889102489065028 0 0 0 -1 I I #
edge $-1 $327 -23.889102489065028 $331 23.889102489065028 $325 $391 forward 7 unknown #
straight-curve $-1 0 -23.889102489065028 -9.2899716042561788 -1 0 0 I I #
vertex $-1 $231 $392 #
straight-curve $-1 0 23.889102489065028 -9.2899716042561788 1 0 0 I I #
point $-1 46.159855952635276 23.889102489065028 -9.2899716042561788 #
point $-1 46.159855952635276 -23.889102489065028 -9.2899716042561788 #
straight-curve $-1 -46.159855952635276 0 9.2899716042561788 0 -1 0 I I #
point $-1 -46.159855952635276 23.889102489065028 9.2899716042561788 #
point $-1 -46.159855952635276 -23.889102489065028 9.2899716042561788 #
straight-curve $-1 46.159855952635276 -23.889102489065028 0 0 0 -1 I I #
straight-curve $-1 46.159855952635276 23.889102489065028 0 0 0 -1 I I #
plane-surface $-1 46.159855952635276 0 0 -1 0 0 0 0 1 forward_v I I I I #
coedge $-1 $252 $251 $262 $352 reversed $96 $-1 #
coedge $-1 $393 $255 $252 $343 forward $249 $-1 #
edge $-1 $344 15.762079849439917 $394 23.889102489065028 $252 $395 forward 7 unknown #
vertex $-1 $343 $396 #
straight-curve $-1 -46.159855952635276 -15.762079849439917 3.8949858021280894 0 0 -1 I I #
coedge $-1 $255 $393 $257 $348 forward $249 $-1 #
straight-curve $-1 0 -15.762079849439917 9.2899716042561788 -1 0 0 I I #
edge $-1 $355 -23.889102489065028 $258 -15.762079849439917 $257 $397 forward 7 unknown #
point $-1 46.159855952635276 -15.762079849439917 9.2899716042561788 #
straight-curve $-1 -46.159855952635276 -9.9127955846262363 6.2899716042561788 0 -1 0 I I #
coedge $-1 $262 $261 $393 $398 reversed $160 $-1 #
edge $-1 $394 -9.2899716042561788 $263 -6.2899716042561788 $341 $399 forward 7 unknown #
point $-1 -46.159855952635276 -23.889102489065028 6.2899716042561788 #
point $-1 -46.159855952635276 -15.762079849439917 6.2899716042561788 #
vertex $-1 $348 $400 #
straight-curve $-1 46.159855952635276 -23.889102489065028 0 0 0 -1 I I #
plane-surface $-1 0 23.889102489065028 0 0 -1 0 0 0 -1 forward_v I I I I #
coedge $-1 $274 $273 $367 $401 forward $104 $-1 #
edge $-1 $361 15.762079849439917 $370 23.889102489065028 $289 $402 forward 7 unknown #
edge $-1 $403 -23.889102489065028 $280 -15.762079849439917 $277 $404 forward 7 unknown #
vertex $-1 $359 $405 #
straight-curve $-1 0 15.762079849439917 9.2899716042561788 1 0 0 I I #
coedge $-1 $278 $277 $284 $368 forward $271 $-1 #
point $-1 -46.159855952635276 15.762079849439917 6.2899716042561788 #
point $-1 -46.159855952635276 15.762079849439917 9.2899716042561788 #
straight-curve $-1 -46.159855952635276 9.9127955846262363 6.2899716042561788 0 -1 0 I I #
coedge $-1 $285 $284 $358 $401 reversed $286 $-1 #
edge $-1 $403 -9.2899716042561788 $287 -6.2899716042561788 $284 $406 forward 7 unknown #
point $-1 -46.159855952635276 23.889102489065028 6.2899716042561788 #
vertex $-1 $359 $407 #
straight-curve $-1 46.159855952635276 23.889102489065028 0 0 0 -1 I I #
straight-curve $-1 46.159855952635276 15.762079849439917 3.8949858021280894 0 0 -1 I I #
coedge $-1 $297 $296 $304 $378 forward $112 $-1 #
edge $-1 $300 9.7566988367322303 $381 15.762079849439917 $297 $408 forward 7 unknown #
straight-curve $-1 -46.159855952635276 -9.7566988367322303 29.813291150939783 0 0 -1 I I #
point $-1 -46.159855952635276 -9.7566988367322303 9.2899716042561788 #
straight-curve $-1 -46.159855952635276 -6.3796946715430369 5.3624181879603565 0 -1 0 I I #
edge $-1 $305 -24.450872962979435 $381 -20.523319546683602 $373 $409 forward 7 unknown #
point $-1 -46.159855952635276 -15.762079849439917 5.3624181879603467 #
point $-1 -46.159855952635276 -9.7566988367322303 5.3624181879603467 #
vertex $-1 $378 $410 #
straight-curve $-1 0 -15.762079849439917 9.2899716042561788 1 0 0 I I #
vertex $-1 $312 $411 #
point $-1 -43.256026922547491 -14.561003646898381 6.8710807119014348 #
vertex $-1 $316 $412 #
point $-1 -43.256026922547491 -12.759389343086074 6.8710807119014348 #
vertex $-1 $320 $413 #
point $-1 -43.256026922547491 -10.957775039273766 6.8710807119014348 #
straight-curve $-1 -46.159855952635276 23.889102489065028 0 0 0 -1 I I #
point $-1 -46.159855952635276 -23.889102489065028 -9.2899716042561788 #
straight-curve $-1 -46.159855952635276 0 -9.2899716042561788 0 1 0 I I #
point $-1 -46.159855952635276 23.889102489065028 -9.2899716042561788 #
coedge $-1 $346 $342 $351 $398 forward $249 $-1 #
vertex $-1 $343 $414 #
straight-curve $-1 -46.159855952635276 0 9.2899716042561788 0 -1 0 I I #
point $-1 -46.159855952635276 -15.762079849439917 9.2899716042561788 #
straight-curve $-1 46.159855952635276 0 9.2899716042561788 0 1 0 I I #
edge $-1 $394 -46.159855952635276 $355 46.159855952635276 $351 $415 forward 7 unknown #
straight-curve $-1 -46.159855952635276 -23.889102489065028 0 0 0 -1 I I #
point $-1 46.159855952635276 -23.889102489065028 9.2899716042561788 #
edge $-1 $370 -46.159855952635276 $403 46.159855952635276 $367 $416 forward 7 unknown #
straight-curve $-1 46.159855952635276 0 9.2899716042561788 0 1 0 I I #
vertex $-1 $401 $417 #
straight-curve $-1 -46.159855952635276 0 9.2899716042561788 0 -1 0 I I #
point $-1 46.159855952635276 15.762079849439917 9.2899716042561788 #
straight-curve $-1 -46.159855952635276 23.889102489065028 0 0 0 -1 I I #
point $-1 46.159855952635276 23.889102489065028 9.2899716042561788 #
straight-curve $-1 -46.159855952635276 0 9.2899716042561788 0 -1 0 I I #
straight-curve $-1 -46.159855952635276 -15.762079849439917 29.813291150939783 0 0 1 I I #
point $-1 -46.159855952635276 -15.762079849439917 9.2899716042561788 #
point $-1 -43.145411041782374 -14.561003646898381 6.172679590107836 #
point $-1 -43.145411041782374 -12.759389343086074 6.172679590107836 #
point $-1 -43.145411041782374 -10.957775039273766 6.172679590107836 #
point $-1 -46.159855952635276 -23.889102489065028 9.2899716042561788 #
straight-curve $-1 0 -23.889102489065028 9.2899716042561788 1 0 0 I I #
straight-curve $-1 0 23.889102489065028 9.2899716042561788 -1 0 0 I I #
point $-1 -46.159855952635276 23.889102489065028 9.2899716042561788 #
End-of-ACIS-data 