500 0 17 0           
7 Unknown 11 ACIS 5.0 NT 24 Thu Mar 25 22:29:10 1999 
-1 9.9999999999999995e-007 1e-010 
body $-1 $17 $-1 $18 #
body $-1 $19 $-1 $20 #
body $-1 $21 $-1 $22 #
body $-1 $23 $-1 $24 #
body $-1 $25 $-1 $26 #
body $-1 $27 $-1 $28 #
body $-1 $29 $-1 $30 #
body $-1 $31 $-1 $32 #
body $-1 $33 $-1 $34 #
body $-1 $35 $-1 $36 #
body $-1 $37 $-1 $38 #
body $-1 $39 $-1 $40 #
body $-1 $41 $-1 $42 #
body $-1 $43 $-1 $44 #
body $-1 $45 $-1 $46 #
body $-1 $47 $-1 $48 #
body $-1 $49 $-1 $50 #
lump $-1 $-1 $51 $0 #
transform $-1 1 0 0 0 1 0 0 0 1 40.732444227423933 19.791415686185466 5.8860843227468491 1 rotate no_reflect no_shear #
lump $-1 $-1 $52 $1 #
transform $-1 1 0 0 0 1 0 0 0 1 40.732444227423933 19.791415686185466 5.8860843227468491 1 rotate no_reflect no_shear #
lump $-1 $-1 $53 $2 #
transform $-1 1 0 0 0 1 0 0 0 1 40.732444227423933 19.791415686185466 5.8860843227468491 1 rotate no_reflect no_shear #
lump $-1 $-1 $54 $3 #
transform $-1 1 0 0 0 1 0 0 0 1 40.732444227423933 19.791415686185466 5.8860843227468491 1 rotate no_reflect no_shear #
lump $-1 $-1 $55 $4 #
transform $-1 1 0 0 0 1 0 0 0 1 40.732444227423933 19.791415686185466 5.8860843227468491 1 rotate no_reflect no_shear #
lump $-1 $-1 $56 $5 #
transform $-1 1 0 0 0 1 0 0 0 1 40.732444227423933 19.791415686185466 5.8860843227468491 1 rotate no_reflect no_shear #
lump $-1 $-1 $57 $6 #
transform $-1 1 0 0 0 1 0 0 0 1 40.732444227423933 19.791415686185466 5.8860843227468491 1 rotate no_reflect no_shear #
lump $-1 $-1 $58 $7 #
transform $-1 1 0 0 0 1 0 0 0 1 40.732444227423933 19.791415686185466 5.8860843227468491 1 rotate no_reflect no_shear #
lump $-1 $-1 $59 $8 #
transform $-1 1 0 0 0 1 0 0 0 1 40.732444227423933 19.791415686185466 5.8860843227468491 1 rotate no_reflect no_shear #
lump $-1 $-1 $60 $9 #
transform $-1 1 0 0 0 1 0 0 0 1 40.732444227423933 19.791415686185466 5.8860843227468491 1 rotate no_reflect no_shear #
lump $-1 $-1 $61 $10 #
transform $-1 1 0 0 0 1 0 0 0 1 40.732444227423933 19.791415686185466 5.8860843227468491 1 rotate no_reflect no_shear #
lump $-1 $-1 $62 $11 #
transform $-1 1 0 0 0 1 0 0 0 1 40.732444227423933 19.791415686185466 5.8860843227468491 1 rotate no_reflect no_shear #
lump $-1 $-1 $63 $12 #
transform $-1 1 0 0 0 1 0 0 0 1 40.732444227423933 19.791415686185466 5.8860843227468491 1 rotate no_reflect no_shear #
lump $-1 $-1 $64 $13 #
transform $-1 1 0 0 0 1 0 0 0 1 40.732444227423933 19.791415686185466 5.8860843227468491 1 rotate no_reflect no_shear #
lump $-1 $-1 $65 $14 #
transform $-1 1 0 0 0 1 0 0 0 1 40.732444227423933 19.791415686185466 5.8860843227468491 1 rotate no_reflect no_shear #
lump $-1 $-1 $66 $15 #
transform $-1 1 0 0 0 1 0 0 0 1 40.732444227423933 19.791415686185466 5.8860843227468491 1 rotate no_reflect no_shear #
lump $-1 $-1 $67 $16 #
transform $-1 1 0 0 0 1 0 0 0 1 40.732444227423933 19.791415686185466 5.8860843227468491 1 rotate no_reflect no_shear #
shell $-1 $-1 $-1 $68 $-1 $17 #
shell $-1 $-1 $-1 $69 $-1 $19 #
shell $-1 $-1 $-1 $70 $-1 $21 #
shell $-1 $-1 $-1 $71 $-1 $23 #
shell $-1 $-1 $-1 $72 $-1 $25 #
shell $-1 $-1 $-1 $73 $-1 $27 #
shell $-1 $-1 $-1 $74 $-1 $29 #
shell $-1 $-1 $-1 $75 $-1 $31 #
shell $-1 $-1 $-1 $76 $-1 $33 #
shell $-1 $-1 $-1 $77 $-1 $35 #
shell $-1 $-1 $-1 $78 $-1 $37 #
shell $-1 $-1 $-1 $79 $-1 $39 #
shell $-1 $-1 $-1 $80 $-1 $41 #
shell $-1 $-1 $-1 $81 $-1 $43 #
shell $-1 $-1 $-1 $82 $-1 $45 #
shell $-1 $-1 $-1 $83 $-1 $47 #
shell $-1 $-1 $-1 $84 $-1 $49 #
face $-1 $85 $86 $51 $-1 $87 reversed single #
face $-1 $88 $89 $52 $-1 $90 forward single #
face $-1 $91 $92 $53 $-1 $93 forward single #
face $-1 $94 $95 $54 $-1 $96 reversed single #
face $-1 $97 $98 $55 $-1 $99 forward single #
face $-1 $100 $101 $56 $-1 $102 forward single #
face $-1 $103 $104 $57 $-1 $105 reversed single #
face $-1 $106 $107 $58 $-1 $108 forward single #
face $-1 $109 $110 $59 $-1 $111 forward single #
face $-1 $112 $113 $60 $-1 $114 reversed single #
face $-1 $115 $116 $61 $-1 $117 forward single #
face $-1 $118 $119 $62 $-1 $120 forward single #
face $-1 $121 $122 $63 $-1 $123 reversed single #
face $-1 $124 $125 $64 $-1 $126 forward single #
face $-1 $127 $128 $65 $-1 $129 forward single #
face $-1 $130 $131 $66 $-1 $132 reversed single #
face $-1 $133 $134 $67 $-1 $135 forward single #
face $-1 $136 $137 $51 $-1 $138 forward single #
loop $-1 $-1 $139 $68 #
plane-surface $-1 40.732444227423933 0 0 -1 0 0 0 0 1 forward_v I I I I #
face $-1 $140 $141 $52 $-1 $142 reversed single #
loop $-1 $-1 $143 $69 #
plane-surface $-1 -40.732444227423933 0 0 1 0 0 0 0 -1 forward_v I I I I #
face $-1 $144 $145 $53 $-1 $146 reversed single #
loop $-1 $-1 $147 $70 #
plane-surface $-1 40.732444227423933 0 0 -1 0 0 0 0 1 forward_v I I I I #
face $-1 $148 $149 $54 $-1 $150 reversed single #
loop $-1 $-1 $151 $71 #
plane-surface $-1 -36.146234812295944 44.886290525224773 87.649012470843303 1 0 0 0 -0.66913061440640931 -0.74314481823134659 forward_v I I I I #
face $-1 $152 $153 $55 $-1 $154 forward single #
loop $-1 $155 $156 $72 #
cone-surface $-1 -32.689421843999803 15.137706744152894 1.3320100143770914 0 -0.66913061440640931 -0.74314481823134659 1.5 0 0 1 I I 0 1 1.5 forward I I I I #
face $-1 $157 $158 $56 $-1 $159 forward single #
loop $-1 $160 $161 $73 #
cone-surface $-1 -27.504202391555591 15.137706744152894 1.3320100143770914 0 -0.66913061440640931 -0.74314481823134659 1.5 0 0 1 I I 0 1 1.5 forward I I I I #
face $-1 $162 $163 $57 $-1 $164 reversed single #
loop $-1 $-1 $165 $74 #
plane-surface $-1 -18.073117406147972 44.886290525224773 87.649012470843303 1 0 0 0 -0.66913061440640931 -0.74314481823134659 forward_v I I I I #
face $-1 $166 $167 $58 $-1 $168 forward single #
loop $-1 $169 $170 $75 #
cone-surface $-1 -14.616304437851831 15.137706744152894 1.3320100143770914 0 -0.66913061440640931 -0.74314481823134659 1.5 0 0 1 I I 0 1 1.5 forward I I I I #
face $-1 $171 $172 $59 $-1 $173 forward single #
loop $-1 $174 $175 $76 #
cone-surface $-1 -9.4310849854076189 15.137706744152894 1.3320100143770914 0 -0.66913061440640931 -0.74314481823134659 1.5 0 0 1 I I 0 1 1.5 forward I I I I #
face $-1 $176 $177 $60 $-1 $178 reversed single #
loop $-1 $-1 $179 $77 #
plane-surface $-1 1.7763568394002505e-015 44.886290525224773 87.649012470843303 1 0 0 0 -0.66913061440640931 -0.74314481823134659 forward_v I I I I #
face $-1 $180 $181 $61 $-1 $182 forward single #
loop $-1 $183 $184 $78 #
cone-surface $-1 3.4568129682961413 15.137706744152894 1.3320100143770914 0 -0.66913061440640931 -0.74314481823134659 1.5 0 0 1 I I 0 1 1.5 forward I I I I #
face $-1 $185 $186 $62 $-1 $187 forward single #
loop $-1 $188 $189 $79 #
cone-surface $-1 8.6420324207403567 15.137706744152894 1.3320100143770914 0 -0.66913061440640931 -0.74314481823134659 1.5 0 0 1 I I 0 1 1.5 forward I I I I #
face $-1 $190 $191 $63 $-1 $192 reversed single #
loop $-1 $-1 $193 $80 #
plane-surface $-1 18.073117406147972 44.886290525224773 87.649012470843303 1 0 0 0 -0.66913061440640931 -0.74314481823134659 forward_v I I I I #
face $-1 $194 $195 $64 $-1 $196 forward single #
loop $-1 $197 $198 $81 #
cone-surface $-1 21.529930374444113 15.137706744152894 1.3320100143770914 0 -0.66913061440640931 -0.74314481823134659 1.5 0 0 1 I I 0 1 1.5 forward I I I I #
face $-1 $199 $200 $65 $-1 $201 forward single #
loop $-1 $202 $203 $82 #
cone-surface $-1 26.715149826888329 15.137706744152894 1.3320100143770914 0 -0.66913061440640931 -0.74314481823134659 1.5 0 0 1 I I 0 1 1.5 forward I I I I #
face $-1 $204 $205 $66 $-1 $206 reversed single #
loop $-1 $-1 $207 $83 #
plane-surface $-1 36.146234812295944 -62.961230007027844 71.010228776376479 -1 0 0 0 -0.52991927123019833 0.84804809178421925 forward_v I I I I #
face $-1 $208 $209 $67 $-1 $210 forward single #
loop $-1 $211 $212 $84 #
cone-surface $-1 26.773276856742037 -15.848099718721588 2.6679394415585187 0 0.52991927123019833 -0.84804809178421925 1 0 0 1 I I 0 1 1 forward I I I I #
face $-1 $213 $214 $51 $-1 $215 reversed single #
loop $-1 $-1 $216 $85 #
plane-surface $-1 0 0 5.8860843227468491 0 0 1 1 0 0 forward_v I I I I #
coedge $-1 $217 $218 $219 $220 reversed $86 $-1 #
face $-1 $221 $222 $52 $-1 $223 forward single #
loop $-1 $-1 $224 $88 #
plane-surface $-1 0 19.791415686185466 0 0 -1 0 0 0 -1 forward_v I I I I #
coedge $-1 $225 $226 $227 $228 forward $89 $-1 #
face $-1 $229 $230 $53 $-1 $231 forward single #
loop $-1 $-1 $232 $91 #
plane-surface $-1 0 -19.791415686185466 0 0 1 0 0 0 1 forward_v I I I I #
coedge $-1 $233 $234 $235 $236 forward $92 $-1 #
face $-1 $237 $238 $54 $-1 $239 reversed single #
loop $-1 $-1 $240 $94 #
plane-surface $-1 -30.096812117777695 -9.6243603391171817 27.108802747828463 0 0.66913061440640931 0.74314481823134659 1 0 0 forward_v I I I I #
coedge $-1 $241 $242 $243 $244 reversed $95 $-1 #
face $-1 $-1 $245 $55 $-1 $246 forward single #
loop $-1 $247 $248 $97 #
cone-surface $-1 -32.689421843999803 12.904929769819937 -1.1477399821370531 0 -0.66913061440640931 -0.74314481823134659 0.75 0 0 1 I I -0.70710678118654757 0.70710678118654757 0.75 forward I I I I #
loop $-1 $-1 $249 $72 #
coedge $-1 $156 $156 $250 $251 reversed $98 $-1 #
face $-1 $-1 $252 $56 $-1 $253 forward single #
loop $-1 $254 $255 $100 #
cone-surface $-1 -27.504202391555591 12.904929769819937 -1.1477399821370531 0 -0.66913061440640931 -0.74314481823134659 0.75 0 0 1 I I -0.70710678118654757 0.70710678118654757 0.75 forward I I I I #
loop $-1 $-1 $256 $73 #
coedge $-1 $161 $161 $257 $258 reversed $101 $-1 #
face $-1 $259 $260 $57 $-1 $261 reversed single #
loop $-1 $-1 $262 $103 #
plane-surface $-1 -12.023694711629723 -9.6243603391171817 27.108802747828463 0 0.66913061440640931 0.74314481823134659 1 0 0 forward_v I I I I #
coedge $-1 $263 $264 $265 $266 reversed $104 $-1 #
face $-1 $-1 $267 $58 $-1 $268 forward single #
loop $-1 $269 $270 $106 #
cone-surface $-1 -14.616304437851831 12.904929769819937 -1.1477399821370531 0 -0.66913061440640931 -0.74314481823134659 0.75 0 0 1 I I -0.70710678118654757 0.70710678118654757 0.75 forward I I I I #
loop $-1 $-1 $271 $75 #
coedge $-1 $170 $170 $272 $273 reversed $107 $-1 #
face $-1 $-1 $274 $59 $-1 $275 forward single #
loop $-1 $276 $277 $109 #
cone-surface $-1 -9.4310849854076189 12.904929769819937 -1.1477399821370531 0 -0.66913061440640931 -0.74314481823134659 0.75 0 0 1 I I -0.70710678118654757 0.70710678118654757 0.75 forward I I I I #
loop $-1 $-1 $278 $76 #
coedge $-1 $175 $175 $279 $280 reversed $110 $-1 #
face $-1 $281 $282 $60 $-1 $283 reversed single #
loop $-1 $-1 $284 $112 #
plane-surface $-1 6.049422694518249 -9.6243603391171817 27.108802747828463 0 0.66913061440640931 0.74314481823134659 1 0 0 forward_v I I I I #
coedge $-1 $285 $286 $287 $288 reversed $113 $-1 #
face $-1 $-1 $289 $61 $-1 $290 forward single #
loop $-1 $291 $292 $115 #
cone-surface $-1 3.4568129682961413 12.904929769819937 -1.1477399821370531 0 -0.66913061440640931 -0.74314481823134659 0.75 0 0 1 I I -0.70710678118654757 0.70710678118654757 0.75 forward I I I I #
loop $-1 $-1 $293 $78 #
coedge $-1 $184 $184 $294 $295 reversed $116 $-1 #
face $-1 $-1 $296 $62 $-1 $297 forward single #
loop $-1 $298 $299 $118 #
cone-surface $-1 8.6420324207403567 12.904929769819937 -1.1477399821370531 0 -0.66913061440640931 -0.74314481823134659 0.75 0 0 1 I I -0.70710678118654757 0.70710678118654757 0.75 forward I I I I #
loop $-1 $-1 $300 $79 #
coedge $-1 $189 $189 $301 $302 reversed $119 $-1 #
face $-1 $303 $304 $63 $-1 $305 reversed single #
loop $-1 $-1 $306 $121 #
plane-surface $-1 24.122540100666221 -9.6243603391171817 27.108802747828463 0 0.66913061440640931 0.74314481823134659 1 0 0 forward_v I I I I #
coedge $-1 $307 $308 $309 $310 reversed $122 $-1 #
face $-1 $-1 $311 $64 $-1 $312 forward single #
loop $-1 $313 $314 $124 #
cone-surface $-1 21.529930374444113 12.904929769819937 -1.1477399821370531 0 -0.66913061440640931 -0.74314481823134659 0.75 0 0 1 I I -0.70710678118654757 0.70710678118654757 0.75 forward I I I I #
loop $-1 $-1 $315 $81 #
coedge $-1 $198 $198 $316 $317 reversed $125 $-1 #
face $-1 $-1 $318 $65 $-1 $319 forward single #
loop $-1 $320 $321 $127 #
cone-surface $-1 26.715149826888329 12.904929769819937 -1.1477399821370531 0 -0.66913061440640931 -0.74314481823134659 0.75 0 0 1 I I -0.70710678118654757 0.70710678118654757 0.75 forward I I I I #
loop $-1 $-1 $322 $82 #
coedge $-1 $203 $203 $323 $324 reversed $128 $-1 #
face $-1 $325 $326 $66 $-1 $327 reversed single #
loop $-1 $-1 $328 $130 #
plane-surface $-1 26.773276856742037 -19.791415686185466 1.9240855748284673 0 -0.52991927123019833 0.84804809178421925 1 0 0 forward_v I I I I #
coedge $-1 $329 $330 $331 $332 reversed $131 $-1 #
face $-1 $-1 $333 $67 $-1 $334 forward single #
loop $-1 $335 $336 $133 #
cone-surface $-1 26.773276856742037 -14.810085757593788 1.0067698884372618 0 0.52991927123019833 -0.84804809178421925 0.5 0 0 1 I I -0.70710678118654768 0.70710678118654735 0.5 forward I I I I #
loop $-1 $-1 $337 $84 #
coedge $-1 $212 $212 $338 $339 reversed $134 $-1 #
face $-1 $340 $341 $51 $-1 $342 reversed single #
loop $-1 $-1 $343 $136 #
plane-surface $-1 0 0 -5.8860843227468491 0 0 1 1 0 0 forward_v I I I I #
coedge $-1 $344 $345 $217 $346 forward $137 $-1 #
coedge $-1 $347 $139 $216 $346 reversed $86 $-1 #
coedge $-1 $139 $347 $343 $348 reversed $86 $-1 #
coedge $-1 $349 $350 $139 $220 forward $351 $-1 #
edge $-1 $352 -5.8860843227468491 $353 5.8860843227468491 $139 $354 forward 7 unknown #
face $-1 $355 $356 $52 $-1 $357 reversed single #
loop $-1 $-1 $227 $140 #
plane-surface $-1 -43.025548934987924 0 3.2462551524538208 0 0 1 1 0 0 forward_v I I I I #
coedge $-1 $358 $359 $226 $360 forward $141 $-1 #
coedge $-1 $361 $143 $362 $363 reversed $89 $-1 #
coedge $-1 $143 $361 $224 $360 reversed $89 $-1 #
coedge $-1 $364 $365 $143 $228 reversed $222 $-1 #
edge $-1 $366 -19.791415686185466 $367 19.791415686185466 $227 $368 forward 7 unknown #
face $-1 $369 $370 $53 $-1 $371 reversed single #
loop $-1 $-1 $372 $144 #
plane-surface $-1 43.025548934987917 0 3.2462551524538208 0 0 1 1 0 0 forward_v I I I I #
coedge $-1 $373 $374 $234 $375 forward $145 $-1 #
coedge $-1 $376 $147 $377 $378 reversed $92 $-1 #
coedge $-1 $147 $376 $232 $375 reversed $92 $-1 #
coedge $-1 $379 $380 $147 $236 reversed $230 $-1 #
edge $-1 $381 -19.791415686185466 $382 19.791415686185466 $235 $383 forward 7 unknown #
face $-1 $384 $385 $54 $-1 $386 reversed single #
loop $-1 $-1 $387 $148 #
plane-surface $-1 -24.047389423259446 44.886290525224773 87.649012470843303 -1 0 0 0 0.66913061440640931 0.74314481823134659 forward_v I I I I #
coedge $-1 $388 $389 $390 $391 reversed $149 $-1 #
coedge $-1 $242 $151 $392 $393 reversed $95 $-1 #
coedge $-1 $151 $241 $388 $394 reversed $95 $-1 #
coedge $-1 $390 $395 $151 $244 forward $396 $-1 #
edge $-1 $397 2.65172957642692 $398 8.4972894334357498 $243 $399 forward 7 unknown #
loop $-1 $-1 $250 $152 #
plane-surface $-1 -30.096812117777695 -9.6243603391171817 27.108802747828463 0 0.66913061440640931 0.74314481823134659 1 0 0 forward_v I I I I #
loop $-1 $-1 $400 $97 #
coedge $-1 $248 $248 $249 $401 reversed $153 $-1 #
coedge $-1 $249 $249 $248 $401 forward $155 $-1 #
coedge $-1 $250 $250 $156 $251 forward $245 $-1 #
edge $-1 $402 -1.9354213569430665e-015 $402 6.2831853071795987 $250 $403 forward 7 unknown #
loop $-1 $-1 $257 $157 #
plane-surface $-1 -30.096812117777695 -9.6243603391171817 27.108802747828463 0 0.66913061440640931 0.74314481823134659 1 0 0 forward_v I I I I #
loop $-1 $-1 $404 $100 #
coedge $-1 $255 $255 $256 $405 reversed $158 $-1 #
coedge $-1 $256 $256 $255 $405 forward $160 $-1 #
coedge $-1 $257 $257 $161 $258 forward $252 $-1 #
edge $-1 $406 -1.9354213569430665e-015 $406 6.2831853071795987 $257 $407 forward 7 unknown #
face $-1 $408 $409 $57 $-1 $410 forward single #
loop $-1 $-1 $411 $162 #
plane-surface $-1 -5.9742720171114758 44.886290525224773 87.649012470843303 -1 0 0 0 0.66913061440640931 0.74314481823134659 forward_v I I I I #
coedge $-1 $412 $413 $414 $415 reversed $163 $-1 #
coedge $-1 $264 $165 $416 $417 reversed $104 $-1 #
coedge $-1 $165 $263 $412 $418 reversed $104 $-1 #
coedge $-1 $414 $419 $165 $266 forward $409 $-1 #
edge $-1 $420 2.65172957642692 $421 8.4972894334357498 $265 $422 forward 7 unknown #
loop $-1 $-1 $272 $166 #
plane-surface $-1 -12.023694711629723 -9.6243603391171817 27.108802747828463 0 0.66913061440640931 0.74314481823134659 1 0 0 forward_v I I I I #
loop $-1 $-1 $423 $106 #
coedge $-1 $270 $270 $271 $424 reversed $167 $-1 #
coedge $-1 $271 $271 $270 $424 forward $169 $-1 #
coedge $-1 $272 $272 $170 $273 forward $267 $-1 #
edge $-1 $425 -1.9354213569430665e-015 $425 6.2831853071795987 $272 $426 forward 7 unknown #
loop $-1 $-1 $279 $171 #
plane-surface $-1 -12.023694711629723 -9.6243603391171817 27.108802747828463 0 0.66913061440640931 0.74314481823134659 1 0 0 forward_v I I I I #
loop $-1 $-1 $427 $109 #
coedge $-1 $277 $277 $278 $428 reversed $172 $-1 #
coedge $-1 $278 $278 $277 $428 forward $174 $-1 #
coedge $-1 $279 $279 $175 $280 forward $274 $-1 #
edge $-1 $429 -1.9354213569430665e-015 $429 6.2831853071795987 $279 $430 forward 7 unknown #
face $-1 $431 $432 $60 $-1 $433 forward single #
loop $-1 $-1 $434 $176 #
plane-surface $-1 12.098845389036496 44.886290525224773 87.649012470843303 -1 0 0 0 0.66913061440640931 0.74314481823134659 forward_v I I I I #
coedge $-1 $435 $436 $437 $438 reversed $177 $-1 #
coedge $-1 $286 $179 $439 $440 reversed $113 $-1 #
coedge $-1 $179 $285 $435 $441 reversed $113 $-1 #
coedge $-1 $437 $442 $179 $288 forward $432 $-1 #
edge $-1 $443 2.65172957642692 $444 8.4972894334357498 $287 $445 forward 7 unknown #
loop $-1 $-1 $294 $180 #
plane-surface $-1 6.049422694518249 -9.6243603391171817 27.108802747828463 0 0.66913061440640931 0.74314481823134659 1 0 0 forward_v I I I I #
loop $-1 $-1 $446 $115 #
coedge $-1 $292 $292 $293 $447 reversed $181 $-1 #
coedge $-1 $293 $293 $292 $447 forward $183 $-1 #
coedge $-1 $294 $294 $184 $295 forward $289 $-1 #
edge $-1 $448 -1.9354213569430665e-015 $448 6.2831853071795987 $294 $449 forward 7 unknown #
loop $-1 $-1 $301 $185 #
plane-surface $-1 6.049422694518249 -9.6243603391171817 27.108802747828463 0 0.66913061440640931 0.74314481823134659 1 0 0 forward_v I I I I #
loop $-1 $-1 $450 $118 #
coedge $-1 $299 $299 $300 $451 reversed $186 $-1 #
coedge $-1 $300 $300 $299 $451 forward $188 $-1 #
coedge $-1 $301 $301 $189 $302 forward $296 $-1 #
edge $-1 $452 -1.9354213569430665e-015 $452 6.2831853071795987 $301 $453 forward 7 unknown #
face $-1 $454 $455 $63 $-1 $456 forward single #
loop $-1 $-1 $457 $190 #
plane-surface $-1 30.17196279518447 44.886290525224773 87.649012470843303 -1 0 0 0 0.66913061440640931 0.74314481823134659 forward_v I I I I #
coedge $-1 $458 $459 $460 $461 reversed $191 $-1 #
coedge $-1 $308 $193 $462 $463 reversed $122 $-1 #
coedge $-1 $193 $307 $458 $464 reversed $122 $-1 #
coedge $-1 $460 $465 $193 $310 forward $455 $-1 #
edge $-1 $466 2.65172957642692 $467 8.4972894334357498 $309 $468 forward 7 unknown #
loop $-1 $-1 $316 $194 #
plane-surface $-1 24.122540100666221 -9.6243603391171817 27.108802747828463 0 0.66913061440640931 0.74314481823134659 1 0 0 forward_v I I I I #
loop $-1 $-1 $469 $124 #
coedge $-1 $314 $314 $315 $470 reversed $195 $-1 #
coedge $-1 $315 $315 $314 $470 forward $197 $-1 #
coedge $-1 $316 $316 $198 $317 forward $311 $-1 #
edge $-1 $471 -1.9354213569430665e-015 $471 6.2831853071795987 $316 $472 forward 7 unknown #
loop $-1 $-1 $323 $199 #
plane-surface $-1 24.122540100666221 -9.6243603391171817 27.108802747828463 0 0.66913061440640931 0.74314481823134659 1 0 0 forward_v I I I I #
loop $-1 $-1 $473 $127 #
coedge $-1 $321 $321 $322 $474 reversed $200 $-1 #
coedge $-1 $322 $322 $321 $474 forward $202 $-1 #
coedge $-1 $323 $323 $203 $324 forward $318 $-1 #
edge $-1 $475 -1.9354213569430665e-015 $475 6.2831853071795987 $323 $476 forward 7 unknown #
face $-1 $477 $478 $66 $-1 $479 forward single #
loop $-1 $-1 $480 $204 #
plane-surface $-1 17.400318901188125 -62.961230007027844 71.010228776376479 1 0 0 0 0.52991927123019833 -0.84804809178421925 forward_v I I I I #
coedge $-1 $481 $482 $483 $484 reversed $205 $-1 #
coedge $-1 $330 $207 $485 $486 reversed $131 $-1 #
coedge $-1 $207 $329 $481 $487 reversed $131 $-1 #
coedge $-1 $483 $488 $207 $332 forward $478 $-1 #
edge $-1 $489 11.689199317328455 $490 18.02972260123083 $331 $491 forward 7 unknown #
loop $-1 $-1 $338 $208 #
plane-surface $-1 26.773276856742037 -19.791415686185466 1.9240855748284673 0 -0.52991927123019833 0.84804809178421925 1 0 0 forward_v I I I I #
loop $-1 $-1 $492 $133 #
coedge $-1 $336 $336 $337 $493 reversed $209 $-1 #
coedge $-1 $337 $337 $336 $493 forward $211 $-1 #
coedge $-1 $338 $338 $212 $339 forward $333 $-1 #
edge $-1 $494 -3.7778978124636169e-016 $494 6.2831853071796004 $338 $495 forward 7 unknown #
face $-1 $496 $497 $51 $-1 $498 reversed single #
loop $-1 $-1 $499 $213 #
plane-surface $-1 0 -19.791415686185466 0 0 1 0 0 0 1 forward_v I I I I #
coedge $-1 $500 $501 $218 $348 forward $214 $-1 #
coedge $-1 $502 $216 $350 $503 forward $137 $-1 #
coedge $-1 $216 $502 $504 $505 forward $137 $-1 #
edge $-1 $506 -19.791415686185466 $352 19.791415686185466 $217 $507 forward 7 unknown #
coedge $-1 $218 $217 $508 $509 forward $86 $-1 #
edge $-1 $353 -19.791415686185466 $510 19.791415686185466 $218 $511 forward 7 unknown #
coedge $-1 $512 $219 $501 $513 reversed $351 $-1 #
coedge $-1 $219 $512 $344 $503 reversed $351 $-1 #
loop $-1 $-1 $219 $496 #
vertex $-1 $346 $514 #
vertex $-1 $348 $515 #
straight-curve $-1 40.732444227423933 19.791415686185466 0 0 0 -1 I I #
face $-1 $516 $517 $52 $-1 $518 reversed single #
loop $-1 $-1 $519 $221 #
plane-surface $-1 -43.025548934987924 0 -0.23021171659490935 0 0 1 1 0 0 forward_v I I I I #
coedge $-1 $520 $224 $521 $522 reversed $141 $-1 #
coedge $-1 $224 $520 $364 $523 reversed $141 $-1 #
edge $-1 $366 -3.2462551524538208 $524 0.23021171659490935 $224 $525 forward 7 unknown #
coedge $-1 $226 $225 $519 $526 forward $89 $-1 #
coedge $-1 $527 $528 $225 $363 forward $529 $-1 #
edge $-1 $530 -0.23021171659490935 $367 3.2462551524538208 $362 $531 forward 7 unknown #
coedge $-1 $532 $227 $359 $523 forward $222 $-1 #
coedge $-1 $227 $532 $527 $533 forward $222 $-1 #
vertex $-1 $360 $534 #
vertex $-1 $533 $535 #
straight-curve $-1 -40.732444227423933 0 3.2462551524538208 0 -1 0 I I #
face $-1 $536 $537 $53 $-1 $538 reversed single #
loop $-1 $-1 $539 $229 #
plane-surface $-1 43.025548934987917 0 -0.23021171659490935 0 0 1 1 0 0 forward_v I I I I #
coedge $-1 $380 $379 $540 $541 forward $230 $-1 #
coedge $-1 $542 $232 $543 $544 reversed $145 $-1 #
coedge $-1 $232 $542 $379 $545 reversed $145 $-1 #
edge $-1 $381 -3.2462551524538208 $546 0.23021171659490935 $232 $547 forward 7 unknown #
coedge $-1 $234 $233 $548 $549 forward $92 $-1 #
coedge $-1 $550 $551 $233 $378 forward $552 $-1 #
edge $-1 $553 -0.23021171659490935 $382 3.2462551524538208 $377 $554 forward 7 unknown #
coedge $-1 $372 $235 $374 $545 forward $230 $-1 #
coedge $-1 $235 $372 $550 $555 forward $230 $-1 #
vertex $-1 $375 $556 #
vertex $-1 $555 $557 #
straight-curve $-1 40.732444227423933 0 3.2462551524538208 0 1 0 I I #
face $-1 $-1 $396 $54 $-1 $558 forward single #
loop $-1 $-1 $559 $237 #
plane-surface $-1 0 19.791415686185466 0 0 -1 0 0 0 -1 forward_v I I I I #
coedge $-1 $560 $561 $562 $563 reversed $238 $-1 #
coedge $-1 $564 $240 $242 $394 forward $149 $-1 #
coedge $-1 $240 $564 $560 $565 forward $149 $-1 #
coedge $-1 $562 $243 $240 $391 forward $396 $-1 #
edge $-1 $398 -21.097828753407097 $566 -8.9989833643705985 $390 $567 forward 7 unknown #
coedge $-1 $568 $569 $241 $393 forward $385 $-1 #
edge $-1 $570 -43.201787763733051 $397 -37.938421912674805 $392 $571 forward 7 unknown #
edge $-1 $398 31.71685462920934 $570 39.58283137237094 $242 $572 forward 7 unknown #
coedge $-1 $243 $562 $568 $573 forward $396 $-1 #
loop $-1 $-1 $562 $384 #
vertex $-1 $393 $574 #
vertex $-1 $244 $575 #
straight-curve $-1 -36.146234812295944 22.443145262612386 5.8860843227468465 0 -1 0 I I #
coedge $-1 $400 $400 $-1 $576 reversed $247 $-1 #
edge $-1 $577 0 $577 6.2831853071796004 $248 $578 forward 7 unknown #
vertex $-1 $251 $579 #
ellipse-curve $-1 -32.689421843999803 16.868635757681048 3.2544013972177295 0 0.66913061440640931 0.74314481823134659 1.5 0 0 1 I I #
coedge $-1 $404 $404 $-1 $580 reversed $254 $-1 #
edge $-1 $581 0 $581 6.2831853071796004 $255 $582 forward 7 unknown #
vertex $-1 $258 $583 #
ellipse-curve $-1 -27.504202391555591 16.868635757681048 3.2544013972177295 0 0.66913061440640931 0.74314481823134659 1.5 0 0 1 I I #
face $-1 $-1 $584 $57 $-1 $585 reversed single #
loop $-1 $-1 $265 $259 #
plane-surface $-1 0 0 5.8860843227468491 0 0 1 1 0 0 forward_v I I I I #
coedge $-1 $586 $587 $588 $589 reversed $260 $-1 #
coedge $-1 $590 $262 $264 $418 forward $163 $-1 #
coedge $-1 $262 $590 $586 $591 forward $163 $-1 #
coedge $-1 $588 $265 $262 $415 forward $409 $-1 #
edge $-1 $421 -12.061270050333111 $592 0.037575338703385697 $414 $593 forward 7 unknown #
coedge $-1 $594 $595 $263 $417 forward $584 $-1 #
edge $-1 $596 -43.201787763733051 $420 -37.938421912674805 $416 $597 forward 7 unknown #
edge $-1 $421 31.71685462920934 $596 39.58283137237094 $264 $598 forward 7 unknown #
coedge $-1 $265 $588 $594 $599 forward $409 $-1 #
vertex $-1 $266 $600 #
vertex $-1 $266 $601 #
straight-curve $-1 -18.073117406147972 22.443145262612386 5.8860843227468465 0 -1 0 I I #
coedge $-1 $423 $423 $-1 $602 reversed $269 $-1 #
edge $-1 $603 0 $603 6.2831853071796004 $270 $604 forward 7 unknown #
vertex $-1 $273 $605 #
ellipse-curve $-1 -14.616304437851831 16.868635757681048 3.2544013972177295 0 0.66913061440640931 0.74314481823134659 1.5 0 0 1 I I #
coedge $-1 $427 $427 $-1 $606 reversed $276 $-1 #
edge $-1 $607 0 $607 6.2831853071796004 $277 $608 forward 7 unknown #
vertex $-1 $280 $609 #
ellipse-curve $-1 -9.4310849854076189 16.868635757681048 3.2544013972177295 0 0.66913061440640931 0.74314481823134659 1.5 0 0 1 I I #
face $-1 $-1 $610 $60 $-1 $611 reversed single #
loop $-1 $-1 $287 $281 #
plane-surface $-1 0 0 5.8860843227468491 0 0 1 1 0 0 forward_v I I I I #
coedge $-1 $612 $613 $614 $615 reversed $282 $-1 #
coedge $-1 $616 $284 $286 $441 forward $177 $-1 #
coedge $-1 $284 $616 $612 $617 forward $177 $-1 #
coedge $-1 $614 $287 $284 $438 forward $432 $-1 #
edge $-1 $444 -3.0247113472591227 $618 9.0741340417773717 $437 $619 forward 7 unknown #
coedge $-1 $620 $621 $285 $440 forward $610 $-1 #
edge $-1 $622 -43.201787763733051 $443 -37.938421912674805 $439 $623 forward 7 unknown #
edge $-1 $444 31.71685462920934 $622 39.58283137237094 $286 $624 forward 7 unknown #
coedge $-1 $287 $614 $620 $625 forward $432 $-1 #
vertex $-1 $288 $626 #
vertex $-1 $288 $627 #
straight-curve $-1 1.7763568394002505e-015 22.443145262612386 5.8860843227468465 0 -1 0 I I #
coedge $-1 $446 $446 $-1 $628 reversed $291 $-1 #
edge $-1 $629 0 $629 6.2831853071796004 $292 $630 forward 7 unknown #
vertex $-1 $295 $631 #
ellipse-curve $-1 3.4568129682961413 16.868635757681048 3.2544013972177295 0 0.66913061440640931 0.74314481823134659 1.5 0 0 1 I I #
coedge $-1 $450 $450 $-1 $632 reversed $298 $-1 #
edge $-1 $633 0 $633 6.2831853071796004 $299 $634 forward 7 unknown #
vertex $-1 $302 $635 #
ellipse-curve $-1 8.6420324207403567 16.868635757681048 3.2544013972177295 0 0.66913061440640931 0.74314481823134659 1.5 0 0 1 I I #
face $-1 $-1 $636 $63 $-1 $637 reversed single #
loop $-1 $-1 $309 $303 #
plane-surface $-1 0 0 5.8860843227468491 0 0 1 1 0 0 forward_v I I I I #
coedge $-1 $638 $639 $640 $641 reversed $304 $-1 #
coedge $-1 $642 $306 $308 $464 forward $191 $-1 #
coedge $-1 $306 $642 $638 $643 forward $191 $-1 #
coedge $-1 $640 $309 $306 $461 forward $455 $-1 #
edge $-1 $467 6.0118473558148615 $644 18.110692744851359 $460 $645 forward 7 unknown #
coedge $-1 $646 $647 $307 $463 forward $636 $-1 #
edge $-1 $648 -43.201787763733051 $466 -37.938421912674805 $462 $649 forward 7 unknown #
edge $-1 $467 31.71685462920934 $648 39.58283137237094 $308 $650 forward 7 unknown #
coedge $-1 $309 $640 $646 $651 forward $455 $-1 #
vertex $-1 $310 $652 #
vertex $-1 $310 $653 #
straight-curve $-1 18.073117406147972 22.443145262612386 5.8860843227468465 0 -1 0 I I #
coedge $-1 $469 $469 $-1 $654 reversed $313 $-1 #
edge $-1 $655 0 $655 6.2831853071796004 $314 $656 forward 7 unknown #
vertex $-1 $317 $657 #
ellipse-curve $-1 21.529930374444113 16.868635757681048 3.2544013972177295 0 0.66913061440640931 0.74314481823134659 1.5 0 0 1 I I #
coedge $-1 $473 $473 $-1 $658 reversed $320 $-1 #
edge $-1 $659 0 $659 6.2831853071796004 $321 $660 forward 7 unknown #
vertex $-1 $324 $661 #
ellipse-curve $-1 26.715149826888329 16.868635757681048 3.2544013972177295 0 0.66913061440640931 0.74314481823134659 1.5 0 0 1 I I #
face $-1 $-1 $662 $66 $-1 $663 reversed single #
loop $-1 $-1 $331 $325 #
plane-surface $-1 0 0 5.8860843227468491 0 0 1 1 0 0 forward_v I I I I #
coedge $-1 $664 $665 $666 $667 reversed $326 $-1 #
coedge $-1 $668 $328 $330 $487 forward $205 $-1 #
coedge $-1 $328 $668 $664 $669 forward $205 $-1 #
coedge $-1 $666 $331 $328 $484 forward $478 $-1 #
edge $-1 $490 -22.759596383924926 $670 -4.0136804728171072 $483 $671 forward 7 unknown #
coedge $-1 $672 $673 $329 $486 forward $662 $-1 #
edge $-1 $674 -33.581028813359772 $489 -29.61903006544139 $485 $675 forward 7 unknown #
edge $-1 $490 -7.476608160938687 $674 0 $330 $676 forward 7 unknown #
coedge $-1 $331 $666 $672 $677 forward $478 $-1 #
vertex $-1 $486 $678 #
vertex $-1 $332 $679 #
straight-curve $-1 36.146234812295944 -31.480615003513922 5.8860843227468465 0 1 0 I I #
coedge $-1 $492 $492 $-1 $680 reversed $335 $-1 #
edge $-1 $681 0 $681 6.2831853071796004 $336 $682 forward 7 unknown #
vertex $-1 $339 $683 #
ellipse-curve $-1 26.773276856742037 -16.621154044234284 3.9050849487876556 0 -0.52991927123019833 0.84804809178421925 1 0 0 1 I I #
face $-1 $-1 $351 $51 $-1 $684 reversed single #
loop $-1 $-1 $685 $340 #
plane-surface $-1 -40.732444227423933 0 0 1 0 0 0 0 -1 forward_v I I I I #
coedge $-1 $686 $504 $685 $687 forward $341 $-1 #
coedge $-1 $688 $343 $686 $689 forward $214 $-1 #
coedge $-1 $343 $688 $349 $513 forward $214 $-1 #
coedge $-1 $345 $344 $690 $691 forward $137 $-1 #
edge $-1 $352 -40.732444227423933 $692 40.732444227423933 $350 $693 forward 7 unknown #
coedge $-1 $499 $508 $345 $505 reversed $341 $-1 #
edge $-1 $694 -40.732444227423933 $506 40.732444227423933 $504 $695 forward 7 unknown #
vertex $-1 $346 $696 #
straight-curve $-1 40.732444227423933 0 5.8860843227468491 0 1 0 I I #
coedge $-1 $504 $686 $347 $509 reversed $341 $-1 #
edge $-1 $506 -5.8860843227468491 $510 5.8860843227468491 $347 $697 forward 7 unknown #
vertex $-1 $509 $698 #
straight-curve $-1 40.732444227423933 0 -5.8860843227468491 0 -1 0 I I #
coedge $-1 $350 $349 $699 $700 reversed $351 $-1 #
edge $-1 $701 -40.732444227423933 $353 40.732444227423933 $349 $702 forward 7 unknown #
point $-1 40.732444227423933 19.791415686185466 5.8860843227468491 #
point $-1 40.732444227423933 19.791415686185466 -5.8860843227468491 #
face $-1 $-1 $529 $52 $-1 $703 reversed single #
loop $-1 $-1 $704 $355 #
plane-surface $-1 -45.318653642551922 0 1.5080217179294557 1 0 0 0 0 -1 forward_v I I I I #
coedge $-1 $705 $521 $361 $526 reversed $356 $-1 #
coedge $-1 $359 $358 $704 $706 reversed $141 $-1 #
coedge $-1 $519 $707 $358 $522 forward $356 $-1 #
edge $-1 $708 -2.2931047075639981 $524 2.2931047075639981 $358 $709 forward 7 unknown #
edge $-1 $366 -2.2931047075639981 $710 2.2931047075639981 $359 $711 forward 7 unknown #
vertex $-1 $360 $712 #
straight-curve $-1 -40.732444227423933 19.791415686185466 0 0 0 -1 I I #
edge $-1 $530 -19.791415686185466 $524 19.791415686185466 $519 $713 forward 7 unknown #
coedge $-1 $714 $362 $365 $533 reversed $529 $-1 #
coedge $-1 $362 $714 $705 $715 reversed $529 $-1 #
loop $-1 $-1 $362 $516 #
vertex $-1 $363 $716 #
straight-curve $-1 -40.732444227423933 -19.791415686185466 0 0 0 1 I I #
coedge $-1 $365 $364 $717 $718 forward $222 $-1 #
edge $-1 $719 -2.2931047075639981 $367 2.2931047075639981 $527 $720 forward 7 unknown #
point $-1 -40.732444227423926 19.791415686185466 3.2462551524538208 #
point $-1 -40.732444227423926 -19.791415686185466 3.2462551524538208 #
face $-1 $-1 $552 $53 $-1 $721 reversed single #
loop $-1 $-1 $722 $369 #
plane-surface $-1 45.318653642551908 0 1.5080217179294557 -1 0 0 0 0 1 forward_v I I I I #
coedge $-1 $543 $723 $724 $725 forward $370 $-1 #
coedge $-1 $722 $726 $372 $541 reversed $537 $-1 #
edge $-1 $727 -19.791415686185466 $728 19.791415686185466 $540 $729 forward 7 unknown #
coedge $-1 $374 $373 $722 $730 reversed $145 $-1 #
coedge $-1 $548 $539 $373 $544 forward $370 $-1 #
edge $-1 $731 -2.293104707563991 $546 2.293104707563991 $373 $732 forward 7 unknown #
edge $-1 $381 -2.293104707563991 $727 2.293104707563991 $374 $733 forward 7 unknown #
vertex $-1 $375 $734 #
straight-curve $-1 40.732444227423933 -19.791415686185466 0 0 0 -1 I I #
coedge $-1 $723 $543 $376 $549 reversed $370 $-1 #
edge $-1 $553 -19.791415686185466 $546 19.791415686185466 $548 $735 forward 7 unknown #
coedge $-1 $736 $377 $380 $555 reversed $552 $-1 #
coedge $-1 $377 $736 $723 $737 reversed $552 $-1 #
loop $-1 $-1 $377 $536 #
vertex $-1 $378 $738 #
straight-curve $-1 40.732444227423933 19.791415686185466 0 0 0 1 I I #
edge $-1 $728 -2.293104707563991 $382 2.293104707563991 $550 $739 forward 7 unknown #
point $-1 40.732444227423926 -19.791415686185466 3.2462551524538208 #
point $-1 40.732444227423926 19.791415686185466 3.2462551524538208 #
plane-surface $-1 0 0 5.8860843227468491 0 0 1 1 0 0 forward_v I I I I #
coedge $-1 $569 $568 $561 $740 forward $385 $-1 #
coedge $-1 $561 $387 $389 $565 reversed $238 $-1 #
coedge $-1 $387 $560 $559 $740 reversed $238 $-1 #
coedge $-1 $395 $390 $387 $563 forward $396 $-1 #
edge $-1 $566 -8.4972894334357498 $741 -2.65172957642692 $562 $742 forward 7 unknown #
coedge $-1 $389 $388 $569 $743 reversed $149 $-1 #
edge $-1 $744 -39.58283137237094 $566 -31.71685462920934 $560 $745 forward 7 unknown #
vertex $-1 $391 $746 #
straight-curve $-1 -15.048406058888848 13.945855829176633 5.8860843227468482 1 0 0 I I #
coedge $-1 $559 $392 $395 $573 reversed $385 $-1 #
coedge $-1 $392 $559 $564 $743 forward $385 $-1 #
vertex $-1 $393 $747 #
straight-curve $-1 -36.146234812295944 19.791415686185466 43.824506235421651 0 0 1 I I #
straight-curve $-1 -36.146234812295944 -9.6243603391171817 27.108802747828463 0 0.74314481823134659 -0.66913061440640931 I I #
edge $-1 $741 24.047389423259446 $397 36.146234812295944 $568 $748 forward 7 unknown #
point $-1 -36.146234812295944 19.791415686185466 5.8860843227468491 #
point $-1 -36.146234812295944 13.945855829176637 5.88608432274685 #
edge $-1 $749 1 $749 0 $400 $-1 forward 7 unknown #
vertex $-1 $401 $750 #
ellipse-curve $-1 -32.689421843999803 13.406777730624743 -0.59038136846354317 0 0.66913061440640931 0.74314481823134659 1.5 0 0 1 I I #
point $-1 -31.189421843999803 16.868635757681041 3.2544013972177259 #
edge $-1 $751 1 $751 0 $404 $-1 forward 7 unknown #
vertex $-1 $405 $752 #
ellipse-curve $-1 -27.504202391555591 13.406777730624743 -0.59038136846354317 0 0.66913061440640931 0.74314481823134659 1.5 0 0 1 I I #
point $-1 -26.004202391555591 16.868635757681041 3.2544013972177259 #
loop $-1 $-1 $416 $408 #
plane-surface $-1 0 19.791415686185466 0 0 -1 0 0 0 -1 forward_v I I I I #
coedge $-1 $587 $411 $413 $591 reversed $260 $-1 #
coedge $-1 $411 $586 $753 $754 reversed $260 $-1 #
coedge $-1 $419 $414 $411 $589 forward $409 $-1 #
edge $-1 $592 -8.4972894334357498 $755 -2.65172957642692 $588 $756 forward 7 unknown #
coedge $-1 $413 $412 $595 $757 reversed $163 $-1 #
edge $-1 $758 -39.58283137237094 $592 -31.71685462920934 $586 $759 forward 7 unknown #
vertex $-1 $415 $760 #
straight-curve $-1 -6.0118473558148615 13.945855829176633 5.8860843227468482 1 0 0 I I #
coedge $-1 $753 $416 $419 $599 reversed $584 $-1 #
coedge $-1 $416 $753 $590 $757 forward $584 $-1 #
vertex $-1 $417 $761 #
straight-curve $-1 -18.073117406147972 19.791415686185466 43.824506235421651 0 0 1 I I #
straight-curve $-1 -18.073117406147972 -9.6243603391171817 27.108802747828463 0 0.74314481823134659 -0.66913061440640931 I I #
edge $-1 $755 5.9742720171114758 $420 18.073117406147972 $594 $762 forward 7 unknown #
point $-1 -18.073117406147972 19.791415686185466 5.8860843227468491 #
point $-1 -18.073117406147972 13.945855829176637 5.88608432274685 #
edge $-1 $763 1 $763 0 $423 $-1 forward 7 unknown #
vertex $-1 $424 $764 #
ellipse-curve $-1 -14.616304437851831 13.406777730624743 -0.59038136846354317 0 0.66913061440640931 0.74314481823134659 1.5 0 0 1 I I #
point $-1 -13.116304437851831 16.868635757681041 3.2544013972177259 #
edge $-1 $765 1 $765 0 $427 $-1 forward 7 unknown #
vertex $-1 $428 $766 #
ellipse-curve $-1 -9.4310849854076189 13.406777730624743 -0.59038136846354317 0 0.66913061440640931 0.74314481823134659 1.5 0 0 1 I I #
point $-1 -7.9310849854076189 16.868635757681041 3.2544013972177259 #
loop $-1 $-1 $439 $431 #
plane-surface $-1 0 19.791415686185466 0 0 -1 0 0 0 -1 forward_v I I I I #
coedge $-1 $613 $434 $436 $617 reversed $282 $-1 #
coedge $-1 $434 $612 $767 $768 reversed $282 $-1 #
coedge $-1 $442 $437 $434 $615 forward $432 $-1 #
edge $-1 $618 -8.4972894334357498 $769 -2.65172957642692 $614 $770 forward 7 unknown #
coedge $-1 $436 $435 $621 $771 reversed $177 $-1 #
edge $-1 $772 -39.58283137237094 $618 -31.71685462920934 $612 $773 forward 7 unknown #
vertex $-1 $438 $774 #
straight-curve $-1 3.0247113472591245 13.945855829176633 5.8860843227468482 1 0 0 I I #
coedge $-1 $767 $439 $442 $625 reversed $610 $-1 #
coedge $-1 $439 $767 $616 $771 forward $610 $-1 #
vertex $-1 $440 $775 #
straight-curve $-1 1.7763568394002505e-015 19.791415686185466 43.824506235421651 0 0 1 I I #
straight-curve $-1 1.7763568394002505e-015 -9.6243603391171817 27.108802747828463 0 0.74314481823134659 -0.66913061440640931 I I #
edge $-1 $769 -12.098845389036496 $443 -1.7763568394002505e-015 $620 $776 forward 7 unknown #
point $-1 1.7763568394002505e-015 19.791415686185466 5.8860843227468491 #
point $-1 1.7763568394002505e-015 13.945855829176637 5.88608432274685 #
edge $-1 $777 1 $777 0 $446 $-1 forward 7 unknown #
vertex $-1 $447 $778 #
ellipse-curve $-1 3.4568129682961413 13.406777730624743 -0.59038136846354317 0 0.66913061440640931 0.74314481823134659 1.5 0 0 1 I I #
point $-1 4.9568129682961413 16.868635757681041 3.2544013972177259 #
edge $-1 $779 1 $779 0 $450 $-1 forward 7 unknown #
vertex $-1 $451 $780 #
ellipse-curve $-1 8.6420324207403567 13.406777730624743 -0.59038136846354317 0 0.66913061440640931 0.74314481823134659 1.5 0 0 1 I I #
point $-1 10.142032420740357 16.868635757681041 3.2544013972177259 #
loop $-1 $-1 $462 $454 #
plane-surface $-1 0 19.791415686185466 0 0 -1 0 0 0 -1 forward_v I I I I #
coedge $-1 $639 $457 $459 $643 reversed $304 $-1 #
coedge $-1 $457 $638 $781 $782 reversed $304 $-1 #
coedge $-1 $465 $460 $457 $641 forward $455 $-1 #
edge $-1 $644 -8.4972894334357498 $783 -2.65172957642692 $640 $784 forward 7 unknown #
coedge $-1 $459 $458 $647 $785 reversed $191 $-1 #
edge $-1 $786 -39.58283137237094 $644 -31.71685462920934 $638 $787 forward 7 unknown #
vertex $-1 $461 $788 #
straight-curve $-1 12.061270050333111 13.945855829176633 5.8860843227468482 1 0 0 I I #
coedge $-1 $781 $462 $465 $651 reversed $636 $-1 #
coedge $-1 $462 $781 $642 $785 forward $636 $-1 #
vertex $-1 $463 $789 #
straight-curve $-1 18.073117406147972 19.791415686185466 43.824506235421651 0 0 1 I I #
straight-curve $-1 18.073117406147972 -9.6243603391171817 27.108802747828463 0 0.74314481823134659 -0.66913061440640931 I I #
edge $-1 $783 -30.17196279518447 $466 -18.073117406147972 $646 $790 forward 7 unknown #
point $-1 18.073117406147972 19.791415686185466 5.8860843227468491 #
point $-1 18.073117406147972 13.945855829176637 5.88608432274685 #
edge $-1 $791 1 $791 0 $469 $-1 forward 7 unknown #
vertex $-1 $470 $792 #
ellipse-curve $-1 21.529930374444113 13.406777730624743 -0.59038136846354317 0 0.66913061440640931 0.74314481823134659 1.5 0 0 1 I I #
point $-1 23.029930374444113 16.868635757681041 3.2544013972177259 #
edge $-1 $793 1 $793 0 $473 $-1 forward 7 unknown #
vertex $-1 $474 $794 #
ellipse-curve $-1 26.715149826888329 13.406777730624743 -0.59038136846354317 0 0.66913061440640931 0.74314481823134659 1.5 0 0 1 I I #
point $-1 28.215149826888329 16.868635757681041 3.2544013972177259 #
loop $-1 $-1 $485 $477 #
plane-surface $-1 0 -19.791415686185466 0 0 1 0 0 0 1 forward_v I I I I #
coedge $-1 $665 $480 $482 $669 reversed $326 $-1 #
coedge $-1 $480 $664 $795 $796 reversed $326 $-1 #
coedge $-1 $488 $483 $480 $667 forward $478 $-1 #
edge $-1 $670 -18.02972260123083 $797 -11.689199317328455 $666 $798 forward 7 unknown #
coedge $-1 $482 $481 $673 $799 reversed $205 $-1 #
edge $-1 $800 0 $670 7.476608160938687 $664 $801 forward 7 unknown #
vertex $-1 $484 $802 #
straight-curve $-1 13.386638428371018 -13.450892402283092 5.8860843227468491 -1 0 0 I I #
coedge $-1 $795 $485 $488 $677 reversed $662 $-1 #
coedge $-1 $485 $795 $668 $799 forward $662 $-1 #
vertex $-1 $486 $803 #
straight-curve $-1 36.146234812295944 -19.791415686185466 35.50511438818824 0 0 1 I I #
straight-curve $-1 36.146234812295944 -19.791415686185466 1.9240855748284673 0 -0.84804809178421925 -0.52991927123019833 I I #
edge $-1 $797 17.400318901188125 $489 36.146234812295944 $672 $804 forward 7 unknown #
point $-1 36.146234812295944 -19.791415686185466 5.8860843227468491 #
point $-1 36.146234812295944 -13.450892402283092 5.8860843227468491 #
edge $-1 $805 1 $805 0 $492 $-1 forward 7 unknown #
vertex $-1 $493 $806 #
ellipse-curve $-1 26.773276856742037 -15.075045393208887 1.4307939343293712 0 -0.52991927123019833 0.84804809178421925 1 0 0 1 I I #
point $-1 27.773276856742037 -16.621154044234292 3.9050849487876662 #
plane-surface $-1 0 19.791415686185466 0 0 -1 0 0 0 -1 forward_v I I I I #
coedge $-1 $690 $807 $499 $687 reversed $497 $-1 #
coedge $-1 $508 $499 $500 $689 reversed $341 $-1 #
edge $-1 $694 -5.8860843227468491 $808 5.8860843227468491 $685 $809 forward 7 unknown #
coedge $-1 $501 $500 $807 $810 forward $214 $-1 #
edge $-1 $510 -40.732444227423933 $808 40.732444227423933 $686 $811 forward 7 unknown #
coedge $-1 $699 $685 $502 $691 reversed $497 $-1 #
edge $-1 $692 -19.791415686185466 $694 19.791415686185466 $690 $812 forward 7 unknown #
vertex $-1 $503 $813 #
straight-curve $-1 0 19.791415686185466 5.8860843227468491 -1 0 0 I I #
vertex $-1 $691 $814 #
straight-curve $-1 0 -19.791415686185466 5.8860843227468491 1 0 0 I I #
point $-1 40.732444227423933 -19.791415686185466 5.8860843227468491 #
straight-curve $-1 40.732444227423933 -19.791415686185466 0 0 0 -1 I I #
point $-1 40.732444227423933 -19.791415686185466 -5.8860843227468491 #
coedge $-1 $807 $690 $512 $700 forward $497 $-1 #
edge $-1 $692 -5.8860843227468491 $701 5.8860843227468491 $512 $815 forward 7 unknown #
vertex $-1 $513 $816 #
straight-curve $-1 0 19.791415686185466 -5.8860843227468491 1 0 0 I I #
plane-surface $-1 0 -19.791415686185466 0 0 1 0 0 0 1 forward_v I I I I #
coedge $-1 $817 $717 $520 $706 forward $517 $-1 #
coedge $-1 $707 $519 $528 $715 forward $356 $-1 #
edge $-1 $710 -1.7382334345243651 $708 1.7382334345243651 $520 $818 forward 7 unknown #
coedge $-1 $521 $705 $817 $819 forward $356 $-1 #
vertex $-1 $522 $820 #
straight-curve $-1 -43.025548934987924 19.791415686185466 -0.23021171659490935 1 0 0 I I #
vertex $-1 $523 $821 #
straight-curve $-1 -43.025548934987924 19.791415686185466 3.2462551524538208 -1 0 0 I I #
point $-1 -40.732444227423926 19.791415686185466 -0.23021171659490935 #
straight-curve $-1 -40.732444227423933 0 -0.23021171659490935 0 1 0 I I #
coedge $-1 $528 $527 $822 $823 forward $529 $-1 #
edge $-1 $530 -2.2931047075639981 $824 2.2931047075639981 $528 $825 forward 7 unknown #
point $-1 -40.732444227423926 -19.791415686185466 -0.23021171659490935 #
coedge $-1 $704 $822 $532 $718 reversed $517 $-1 #
edge $-1 $710 -19.791415686185466 $719 19.791415686185466 $717 $826 forward 7 unknown #
vertex $-1 $718 $827 #
straight-curve $-1 -43.025548934987924 -19.791415686185466 3.2462551524538208 1 0 0 I I #
plane-surface $-1 0 19.791415686185466 0 0 -1 0 0 0 -1 forward_v I I I I #
coedge $-1 $724 $540 $542 $730 forward $537 $-1 #
coedge $-1 $539 $548 $551 $737 forward $370 $-1 #
coedge $-1 $726 $722 $539 $725 reversed $537 $-1 #
edge $-1 $828 -19.791415686185466 $731 19.791415686185466 $724 $829 forward 7 unknown #
coedge $-1 $540 $724 $736 $830 reversed $537 $-1 #
vertex $-1 $541 $831 #
vertex $-1 $541 $832 #
straight-curve $-1 45.318653642551908 0 3.2462551524538208 0 1 0 I I #
edge $-1 $727 -1.7382334345243651 $731 1.7382334345243651 $722 $833 forward 7 unknown #
vertex $-1 $730 $834 #
straight-curve $-1 43.025548934987917 -19.791415686185466 -0.23021171659490935 -1 0 0 I I #
straight-curve $-1 43.025548934987917 -19.791415686185466 3.2462551524538208 1 0 0 I I #
point $-1 40.732444227423926 -19.791415686185466 -0.23021171659490935 #
straight-curve $-1 40.732444227423933 0 -0.23021171659490935 0 -1 0 I I #
coedge $-1 $551 $550 $726 $830 forward $552 $-1 #
edge $-1 $553 -2.293104707563991 $828 2.293104707563991 $551 $835 forward 7 unknown #
point $-1 40.732444227423926 19.791415686185466 -0.23021171659490935 #
straight-curve $-1 43.025548934987917 19.791415686185466 3.2462551524538208 -1 0 0 I I #
edge $-1 $741 37.938421912674805 $744 43.201787763733051 $559 $836 forward 7 unknown #
vertex $-1 $573 $837 #
straight-curve $-1 -24.047389423259446 22.443145262612386 5.8860843227468465 0 1 0 I I #
edge $-1 $744 8.9989833643705985 $570 21.097828753407097 $569 $838 forward 7 unknown #
vertex $-1 $743 $839 #
straight-curve $-1 -24.047389423259446 -9.6243603391171817 27.108802747828463 0 -0.74314481823134659 0.66913061440640931 I I #
point $-1 -24.047389423259446 13.945855829176637 5.88608432274685 #
point $-1 -36.146234812295944 19.791415686185463 0.62271847168860361 #
straight-curve $-1 0 19.791415686185466 5.8860843227468491 -1 0 0 I I #
vertex $-1 $576 $840 #
point $-1 -31.189421843999803 13.406777730624743 -0.59038136846354317 #
vertex $-1 $580 $841 #
point $-1 -26.004202391555591 13.406777730624743 -0.59038136846354317 #
coedge $-1 $595 $594 $587 $754 forward $584 $-1 #
edge $-1 $755 37.938421912674805 $758 43.201787763733051 $753 $842 forward 7 unknown #
vertex $-1 $599 $843 #
straight-curve $-1 -5.9742720171114758 22.443145262612386 5.8860843227468465 0 1 0 I I #
edge $-1 $758 -0.037575338703385697 $596 12.061270050333111 $595 $844 forward 7 unknown #
vertex $-1 $757 $845 #
straight-curve $-1 -5.9742720171114758 -9.6243603391171817 27.108802747828463 0 -0.74314481823134659 0.66913061440640931 I I #
point $-1 -5.9742720171114758 13.945855829176637 5.88608432274685 #
point $-1 -18.073117406147972 19.791415686185463 0.62271847168860361 #
straight-curve $-1 0 19.791415686185466 5.8860843227468491 -1 0 0 I I #
vertex $-1 $602 $846 #
point $-1 -13.116304437851831 13.406777730624743 -0.59038136846354317 #
vertex $-1 $606 $847 #
point $-1 -7.9310849854076189 13.406777730624743 -0.59038136846354317 #
coedge $-1 $621 $620 $613 $768 forward $610 $-1 #
edge $-1 $769 37.938421912674805 $772 43.201787763733051 $767 $848 forward 7 unknown #
vertex $-1 $625 $849 #
straight-curve $-1 12.098845389036496 22.443145262612386 5.8860843227468465 0 1 0 I I #
edge $-1 $772 -9.0741340417773717 $622 3.0247113472591227 $621 $850 forward 7 unknown #
vertex $-1 $771 $851 #
straight-curve $-1 12.098845389036496 -9.6243603391171817 27.108802747828463 0 -0.74314481823134659 0.66913061440640931 I I #
point $-1 12.098845389036496 13.945855829176637 5.88608432274685 #
point $-1 1.7763568394002505e-015 19.791415686185463 0.62271847168860361 #
straight-curve $-1 0 19.791415686185466 5.8860843227468491 -1 0 0 I I #
vertex $-1 $628 $852 #
point $-1 4.9568129682961413 13.406777730624743 -0.59038136846354317 #
vertex $-1 $632 $853 #
point $-1 10.142032420740357 13.406777730624743 -0.59038136846354317 #
coedge $-1 $647 $646 $639 $782 forward $636 $-1 #
edge $-1 $783 37.938421912674805 $786 43.201787763733051 $781 $854 forward 7 unknown #
vertex $-1 $651 $855 #
straight-curve $-1 30.17196279518447 22.443145262612386 5.8860843227468465 0 1 0 I I #
edge $-1 $786 -18.110692744851359 $648 -6.0118473558148615 $647 $856 forward 7 unknown #
vertex $-1 $785 $857 #
straight-curve $-1 30.17196279518447 -9.6243603391171817 27.108802747828463 0 -0.74314481823134659 0.66913061440640931 I I #
point $-1 30.17196279518447 13.945855829176637 5.88608432274685 #
point $-1 18.073117406147972 19.791415686185463 0.62271847168860361 #
straight-curve $-1 0 19.791415686185466 5.8860843227468491 -1 0 0 I I #
vertex $-1 $654 $858 #
point $-1 23.029930374444113 13.406777730624743 -0.59038136846354317 #
vertex $-1 $658 $859 #
point $-1 28.215149826888329 13.406777730624743 -0.59038136846354317 #
coedge $-1 $673 $672 $665 $796 forward $662 $-1 #
edge $-1 $797 29.61903006544139 $800 33.581028813359772 $795 $860 forward 7 unknown #
vertex $-1 $677 $861 #
straight-curve $-1 17.400318901188125 -31.480615003513922 5.8860843227468465 0 -1 0 I I #
edge $-1 $800 4.0136804728171072 $674 22.759596383924926 $673 $862 forward 7 unknown #
vertex $-1 $799 $863 #
straight-curve $-1 17.400318901188125 -19.791415686185466 1.9240855748284673 0 0.84804809178421925 0.52991927123019833 I I #
point $-1 17.400318901188125 -13.450892402283092 5.8860843227468491 #
point $-1 36.146234812295944 -19.791415686185466 1.9240855748284673 #
straight-curve $-1 0 -19.791415686185466 5.8860843227468491 1 0 0 I I #
vertex $-1 $680 $864 #
point $-1 27.773276856742037 -15.075045393208887 1.4307939343293712 #
coedge $-1 $685 $699 $688 $810 reversed $497 $-1 #
vertex $-1 $810 $865 #
straight-curve $-1 -40.732444227423933 -19.791415686185466 0 0 0 -1 I I #
edge $-1 $808 -19.791415686185466 $701 19.791415686185466 $807 $866 forward 7 unknown #
straight-curve $-1 0 -19.791415686185466 -5.8860843227468491 -1 0 0 I I #
straight-curve $-1 -40.732444227423933 0 5.8860843227468491 0 -1 0 I I #
point $-1 -40.732444227423933 19.791415686185466 5.8860843227468491 #
point $-1 -40.732444227423933 -19.791415686185466 5.8860843227468491 #
straight-curve $-1 -40.732444227423933 19.791415686185466 0 0 0 -1 I I #
point $-1 -40.732444227423933 19.791415686185466 -5.8860843227468491 #
coedge $-1 $822 $704 $707 $819 reversed $517 $-1 #
straight-curve $-1 -45.318653642551922 19.791415686185466 1.5080217179294557 0 0 -1 I I #
edge $-1 $824 -19.791415686185466 $708 19.791415686185466 $817 $867 forward 7 unknown #
point $-1 -45.318653642551922 19.791415686185466 -0.23021171659490935 #
point $-1 -45.318653642551922 19.791415686185466 3.2462551524538208 #
coedge $-1 $717 $817 $714 $823 reversed $517 $-1 #
edge $-1 $719 -1.7382334345243651 $824 1.7382334345243651 $822 $868 forward 7 unknown #
vertex $-1 $819 $869 #
straight-curve $-1 -43.025548934987924 -19.791415686185466 -0.23021171659490935 -1 0 0 I I #
straight-curve $-1 -45.318653642551922 0 3.2462551524538208 0 -1 0 I I #
point $-1 -45.318653642551922 -19.791415686185466 3.2462551524538208 #
vertex $-1 $725 $870 #
straight-curve $-1 45.318653642551908 0 -0.23021171659490935 0 -1 0 I I #
edge $-1 $728 -1.7382334345243651 $828 1.7382334345243651 $726 $871 forward 7 unknown #
point $-1 45.318653642551908 -19.791415686185466 3.2462551524538208 #
point $-1 45.318653642551908 19.791415686185466 3.2462551524538208 #
straight-curve $-1 45.318653642551908 -19.791415686185466 1.5080217179294557 0 0 -1 I I #
point $-1 45.318653642551908 -19.791415686185466 -0.23021171659490935 #
straight-curve $-1 43.025548934987917 19.791415686185466 -0.23021171659490935 1 0 0 I I #
straight-curve $-1 -24.047389423259446 19.791415686185466 43.824506235421651 0 0 -1 I I #
point $-1 -24.047389423259446 19.791415686185466 5.8860843227468491 #
straight-curve $-1 -15.048406058888848 19.791415686185463 0.62271847168860361 -1 0 0 I I #
point $-1 -24.047389423259446 19.791415686185463 0.62271847168860361 #
point $-1 -32.689421843999803 12.403081809015131 -1.7050985958105631 #
point $-1 -27.504202391555591 12.403081809015131 -1.7050985958105631 #
straight-curve $-1 -5.9742720171114758 19.791415686185466 43.824506235421651 0 0 -1 I I #
point $-1 -5.9742720171114758 19.791415686185466 5.8860843227468491 #
straight-curve $-1 -6.0118473558148615 19.791415686185463 0.62271847168860361 -1 0 0 I I #
point $-1 -5.9742720171114758 19.791415686185463 0.62271847168860361 #
point $-1 -14.616304437851831 12.403081809015131 -1.7050985958105631 #
point $-1 -9.4310849854076189 12.403081809015131 -1.7050985958105631 #
straight-curve $-1 12.098845389036496 19.791415686185466 43.824506235421651 0 0 -1 I I #
point $-1 12.098845389036496 19.791415686185466 5.8860843227468491 #
straight-curve $-1 3.0247113472591245 19.791415686185463 0.62271847168860361 -1 0 0 I I #
point $-1 12.098845389036496 19.791415686185463 0.62271847168860361 #
point $-1 3.4568129682961413 12.403081809015131 -1.7050985958105631 #
point $-1 8.6420324207403567 12.403081809015131 -1.7050985958105631 #
straight-curve $-1 30.17196279518447 19.791415686185466 43.824506235421651 0 0 -1 I I #
point $-1 30.17196279518447 19.791415686185466 5.8860843227468491 #
straight-curve $-1 12.061270050333111 19.791415686185463 0.62271847168860361 -1 0 0 I I #
point $-1 30.17196279518447 19.791415686185463 0.62271847168860361 #
point $-1 21.529930374444113 12.403081809015131 -1.7050985958105631 #
point $-1 26.715149826888329 12.403081809015131 -1.7050985958105631 #
straight-curve $-1 17.400318901188125 -19.791415686185466 35.50511438818824 0 0 -1 I I #
point $-1 17.400318901188125 -19.791415686185466 5.8860843227468491 #
straight-curve $-1 13.386638428371018 -19.791415686185466 1.9240855748284664 1 0 0 I I #
point $-1 17.400318901188125 -19.791415686185466 1.9240855748284673 #
point $-1 26.773276856742037 -14.545126121978688 0.58274584254515238 #
point $-1 -40.732444227423933 -19.791415686185466 -5.8860843227468491 #
straight-curve $-1 -40.732444227423933 0 -5.8860843227468491 0 1 0 I I #
straight-curve $-1 -45.318653642551922 0 -0.23021171659490935 0 1 0 I I #
straight-curve $-1 -45.318653642551922 -19.791415686185466 1.5080217179294557 0 0 -1 I I #
point $-1 -45.318653642551922 -19.791415686185466 -0.23021171659490935 #
point $-1 45.318653642551908 19.791415686185466 -0.23021171659490935 #
straight-curve $-1 45.318653642551908 19.791415686185466 1.5080217179294557 0 0 -1 I I #
End-of-ACIS-data 