500 0 7 0           
7 Unknown 11 ACIS 5.0 NT 24 Fri Mar 26 17:40:07 1999 
-1 9.9999999999999995e-007 1e-010 
body $-1 $7 $-1 $8 #
body $-1 $9 $-1 $10 #
body $-1 $11 $-1 $12 #
body $-1 $13 $-1 $14 #
body $-1 $15 $-1 $16 #
body $-1 $17 $-1 $18 #
body $-1 $19 $-1 $20 #
lump $-1 $-1 $21 $0 #
transform $-1 1 0 0 0 1 0 0 0 1 62.33222449415571 41.633444174904383 11.005221006528958 1 rotate no_reflect no_shear #
lump $-1 $-1 $22 $1 #
transform $-1 1 0 0 0 1 0 0 0 1 62.33222449415571 41.633444174904383 11.005221006528958 1 rotate no_reflect no_shear #
lump $-1 $-1 $23 $2 #
transform $-1 1 0 0 0 1 0 0 0 1 62.33222449415571 41.633444174904383 11.005221006528958 1 rotate no_reflect no_shear #
lump $-1 $-1 $24 $3 #
transform $-1 1 0 0 0 1 0 0 0 1 62.33222449415571 41.633444174904383 11.005221006528958 1 rotate no_reflect no_shear #
lump $-1 $-1 $25 $4 #
transform $-1 1 0 0 0 1 0 0 0 1 62.33222449415571 41.633444174904383 11.005221006528958 1 rotate no_reflect no_shear #
lump $-1 $-1 $26 $5 #
transform $-1 1 0 0 0 1 0 0 0 1 62.33222449415571 41.633444174904383 11.005221006528958 1 rotate no_reflect no_shear #
lump $-1 $-1 $27 $6 #
transform $-1 1 0 0 0 1 0 0 0 1 62.33222449415571 41.633444174904383 11.005221006528958 1 rotate no_reflect no_shear #
shell $-1 $-1 $-1 $28 $-1 $7 #
shell $-1 $-1 $-1 $29 $-1 $9 #
shell $-1 $-1 $-1 $30 $-1 $11 #
shell $-1 $-1 $-1 $31 $-1 $13 #
shell $-1 $-1 $-1 $32 $-1 $15 #
shell $-1 $-1 $-1 $33 $-1 $17 #
shell $-1 $-1 $-1 $34 $-1 $19 #
face $-1 $35 $36 $21 $-1 $37 forward single #
face $-1 $38 $39 $22 $-1 $40 reversed single #
face $-1 $41 $42 $23 $-1 $43 reversed single #
face $-1 $44 $45 $24 $-1 $46 reversed single #
face $-1 $47 $48 $25 $-1 $49 forward single #
face $-1 $50 $51 $26 $-1 $52 reversed single #
face $-1 $53 $54 $27 $-1 $55 forward single #
face $-1 $56 $57 $21 $-1 $58 reversed single #
loop $-1 $-1 $59 $28 #
plane-surface $-1 0 0 11.005221006528958 0 0 1 1 0 0 forward_v I I I I #
face $-1 $60 $61 $22 $-1 $62 reversed single #
loop $-1 $-1 $63 $29 #
plane-surface $-1 0 -29.731341486457193 9.4016433919877276 0 -1 0 0 0 -1 forward_v I I I I #
face $-1 $64 $65 $23 $-1 $66 reversed single #
loop $-1 $-1 $67 $30 #
plane-surface $-1 0 35.682392830680783 7.7980657774464976 0 0 1 1 0 0 forward_v I I I I #
face $-1 $68 $69 $24 $-1 $70 reversed single #
loop $-1 $-1 $71 $31 #
plane-surface $-1 -62.332224494155724 -24.326510853188491 0.042753797300420615 -0.62932039886446345 0 0.77714595512881146 0.77714595512881146 0 0.62932039886446345 forward_v I I I I #
face $-1 $72 $73 $25 $-1 $74 forward single #
loop $-1 $75 $76 $32 #
cone-surface $-1 -54.789888772519504 -24.326510853188495 4.5687005346189835 0.62932039886446345 0 -0.77714595512881146 1.1657189326932171 0 0.94398059829669512 1 I I 0 1 1.5 forward I I I I #
face $-1 $77 $78 $26 $-1 $79 reversed single #
loop $-1 $-1 $80 $33 #
plane-surface $-1 43.903632976070156 -18.921680219919793 175.37910683847142 0 -1 0 -0.62932039886446345 0 -0.77714595512881146 forward_v I I I I #
face $-1 $81 $82 $27 $-1 $83 forward single #
loop $-1 $84 $85 $34 #
cone-surface $-1 54.789888772519504 -24.326510853188495 4.5687005346189906 -0.62932039886446345 0 -0.77714595512881146 1.1657189326932171 0 -0.94398059829669512 1 I I 0 1 1.5 forward I I I I #
face $-1 $86 $87 $21 $-1 $88 reversed single #
loop $-1 $-1 $89 $35 #
plane-surface $-1 0 0 -11.005221006528958 0 0 1 1 0 0 forward_v I I I I #
coedge $-1 $90 $91 $92 $93 forward $36 $-1 #
face $-1 $94 $95 $22 $-1 $96 reversed single #
loop $-1 $-1 $97 $38 #
plane-surface $-1 0 -35.68239283068079 7.7980657774464976 0 0 1 1 0 0 forward_v I I I I #
coedge $-1 $98 $99 $100 $101 reversed $39 $-1 #
face $-1 $102 $103 $23 $-1 $104 forward single #
loop $-1 $-1 $105 $41 #
plane-surface $-1 0 29.73134148645719 9.4016433919877276 0 1 0 0 0 1 forward_v I I I I #
coedge $-1 $106 $107 $108 $109 reversed $42 $-1 #
face $-1 $110 $111 $24 $-1 $112 reversed single #
loop $-1 $-1 $113 $44 #
plane-surface $-1 -140.78610525569843 -18.921680219919793 96.925226076928709 0 -1 0 0.62932039886446345 0 -0.77714595512881146 forward_v I I I I #
coedge $-1 $114 $115 $116 $117 reversed $45 $-1 #
face $-1 $-1 $118 $25 $-1 $119 forward single #
loop $-1 $120 $121 $47 #
cone-surface $-1 -53.544322405209201 -24.326510853188495 3.0305542009766722 0.62932039886446345 0 -0.77714595512881146 0.58285946634660857 0 0.47199029914834756 1 I I -0.70710678118654724 0.70710678118654768 0.75 forward I I I I #
loop $-1 $-1 $122 $32 #
coedge $-1 $76 $76 $123 $124 reversed $48 $-1 #
face $-1 $125 $126 $26 $-1 $127 forward single #
loop $-1 $-1 $128 $50 #
plane-surface $-1 -34.55024778547255 -24.326510853188491 78.496634558843127 0.62932039886446345 0 0.77714595512881146 0.77714595512881146 0 -0.62932039886446345 forward_v I I I I #
coedge $-1 $129 $130 $131 $132 reversed $51 $-1 #
face $-1 $-1 $133 $27 $-1 $134 forward single #
loop $-1 $135 $136 $53 #
cone-surface $-1 53.544322405209201 -24.326510853188495 3.0305542009766793 -0.62932039886446345 0 -0.77714595512881146 0.58285946634660857 0 -0.47199029914834756 1 I I -0.70710678118654724 0.70710678118654768 0.75 forward I I I I #
loop $-1 $-1 $137 $34 #
coedge $-1 $85 $85 $138 $139 reversed $54 $-1 #
face $-1 $140 $141 $21 $-1 $142 reversed single #
loop $-1 $-1 $143 $56 #
plane-surface $-1 0 -41.633444174904383 0 0 1 0 0 0 1 forward_v I I I I #
coedge $-1 $144 $145 $146 $147 forward $57 $-1 #
coedge $-1 $148 $59 $149 $150 forward $36 $-1 #
coedge $-1 $59 $148 $151 $152 forward $36 $-1 #
coedge $-1 $153 $154 $59 $93 reversed $155 $-1 #
edge $-1 $156 -41.633444174904383 $157 41.633444174904383 $92 $158 forward 7 unknown #
face $-1 $159 $160 $22 $-1 $161 reversed single #
loop $-1 $-1 $162 $60 #
plane-surface $-1 -62.33222449415571 0 0 1 0 0 0 0 -1 forward_v I I I I #
coedge $-1 $163 $100 $164 $165 reversed $61 $-1 #
coedge $-1 $166 $63 $162 $167 reversed $39 $-1 #
coedge $-1 $63 $166 $168 $169 reversed $39 $-1 #
coedge $-1 $97 $170 $63 $101 forward $61 $-1 #
edge $-1 $171 -62.33222449415571 $172 62.33222449415571 $63 $173 forward 7 unknown #
face $-1 $174 $175 $23 $-1 $176 reversed single #
loop $-1 $-1 $177 $64 #
plane-surface $-1 0 0 11.005221006528958 0 0 1 1 0 0 forward_v I I I I #
coedge $-1 $178 $179 $180 $181 reversed $65 $-1 #
coedge $-1 $182 $67 $178 $183 forward $42 $-1 #
coedge $-1 $67 $182 $184 $185 reversed $42 $-1 #
coedge $-1 $186 $187 $67 $109 forward $175 $-1 #
edge $-1 $188 11.890145071116798 $189 23.792247759563985 $108 $190 forward 7 unknown #
face $-1 $191 $192 $24 $-1 $193 forward single #
loop $-1 $-1 $194 $68 #
plane-surface $-1 -62.33222449415571 0 0 1 0 0 0 0 -1 forward_v I I I I #
coedge $-1 $195 $196 $197 $198 reversed $69 $-1 #
coedge $-1 $199 $71 $200 $201 reversed $45 $-1 #
coedge $-1 $71 $199 $195 $202 forward $45 $-1 #
coedge $-1 $197 $203 $71 $117 forward $192 $-1 #
edge $-1 $204 -17.568086059862942 $205 -6.7584247933255472 $116 $206 forward 7 unknown #
loop $-1 $-1 $123 $72 #
plane-surface $-1 -62.332224494155724 -24.326510853188491 0.042753797300420615 -0.62932039886446345 0 0.77714595512881146 0.77714595512881146 0 0.62932039886446345 forward_v I I I I #
loop $-1 $-1 $207 $47 #
coedge $-1 $121 $121 $122 $208 reversed $73 $-1 #
coedge $-1 $122 $122 $121 $208 forward $75 $-1 #
coedge $-1 $123 $123 $76 $124 forward $118 $-1 #
edge $-1 $209 0 $209 6.2831853071796004 $123 $210 forward 7 unknown #
face $-1 $211 $212 $26 $-1 $213 forward single #
loop $-1 $-1 $131 $77 #
plane-surface $-1 0 0 11.005221006528958 0 0 1 1 0 0 forward_v I I I I #
coedge $-1 $214 $215 $216 $217 reversed $78 $-1 #
coedge $-1 $130 $80 $218 $219 reversed $51 $-1 #
coedge $-1 $80 $129 $214 $220 reversed $51 $-1 #
coedge $-1 $216 $221 $80 $132 forward $126 $-1 #
edge $-1 $222 -40.380408006120632 $223 -26.842888699172192 $131 $224 forward 7 unknown #
loop $-1 $-1 $138 $81 #
plane-surface $-1 -34.55024778547255 -24.326510853188491 78.496634558843127 0.62932039886446345 0 0.77714595512881146 0.77714595512881146 0 -0.62932039886446345 forward_v I I I I #
loop $-1 $-1 $225 $53 #
coedge $-1 $136 $136 $137 $226 reversed $82 $-1 #
coedge $-1 $137 $137 $136 $226 forward $84 $-1 #
coedge $-1 $138 $138 $85 $139 forward $133 $-1 #
edge $-1 $227 0 $227 6.2831853071796004 $138 $228 forward 7 unknown #
face $-1 $229 $230 $21 $-1 $231 reversed single #
loop $-1 $-1 $232 $86 #
plane-surface $-1 -62.33222449415571 0 0 1 0 0 0 0 -1 forward_v I I I I #
coedge $-1 $233 $151 $234 $235 forward $87 $-1 #
coedge $-1 $236 $89 $233 $237 forward $57 $-1 #
coedge $-1 $89 $236 $238 $239 forward $57 $-1 #
coedge $-1 $154 $153 $89 $147 reversed $155 $-1 #
edge $-1 $240 -41.633444174904383 $241 41.633444174904383 $146 $242 forward 7 unknown #
coedge $-1 $91 $90 $243 $244 forward $36 $-1 #
coedge $-1 $245 $246 $90 $150 reversed $230 $-1 #
edge $-1 $157 -62.33222449415571 $247 62.33222449415571 $149 $248 forward 7 unknown #
coedge $-1 $143 $249 $91 $152 reversed $87 $-1 #
edge $-1 $250 -62.33222449415571 $156 62.33222449415571 $151 $251 forward 7 unknown #
coedge $-1 $146 $92 $249 $252 forward $155 $-1 #
coedge $-1 $92 $146 $245 $253 reversed $155 $-1 #
loop $-1 $-1 $153 $229 #
vertex $-1 $93 $254 #
vertex $-1 $93 $255 #
straight-curve $-1 62.33222449415571 0 11.005221006528958 0 1 0 I I #
face $-1 $256 $257 $22 $-1 $258 forward single #
loop $-1 $-1 $259 $94 #
plane-surface $-1 0 -41.633444174904383 0 0 1 0 0 0 1 forward_v I I I I #
coedge $-1 $260 $261 $98 $167 forward $95 $-1 #
coedge $-1 $170 $97 $259 $262 reversed $61 $-1 #
coedge $-1 $168 $263 $97 $165 forward $264 $-1 #
edge $-1 $265 -23.792247759563988 $172 -11.890145071116798 $164 $266 forward 7 unknown #
coedge $-1 $99 $98 $267 $268 reversed $39 $-1 #
edge $-1 $269 -6.3043993105350937 $171 -3.0972440814526339 $162 $270 forward 7 unknown #
coedge $-1 $271 $164 $99 $169 forward $264 $-1 #
edge $-1 $172 3.0972440814526339 $272 6.3043993105350937 $168 $273 forward 7 unknown #
coedge $-1 $100 $163 $260 $274 reversed $61 $-1 #
vertex $-1 $274 $275 #
vertex $-1 $165 $276 #
straight-curve $-1 0 -29.731341486457193 7.7980657774464976 1 0 0 I I #
face $-1 $277 $278 $23 $-1 $279 reversed single #
loop $-1 $-1 $187 $102 #
plane-surface $-1 62.33222449415571 0 0 -1 0 0 0 0 1 forward_v I I I I #
coedge $-1 $280 $281 $179 $282 forward $103 $-1 #
coedge $-1 $283 $105 $106 $183 reversed $65 $-1 #
coedge $-1 $105 $283 $177 $282 reversed $65 $-1 #
coedge $-1 $284 $285 $105 $181 forward $278 $-1 #
edge $-1 $286 3.0972440814526339 $287 6.3043993105350937 $180 $288 forward 7 unknown #
coedge $-1 $107 $106 $285 $289 reversed $42 $-1 #
edge $-1 $188 -62.33222449415571 $286 62.33222449415571 $178 $290 forward 7 unknown #
coedge $-1 $291 $292 $107 $185 forward $293 $-1 #
edge $-1 $189 -62.33222449415571 $294 62.33222449415571 $184 $295 forward 7 unknown #
coedge $-1 $296 $108 $292 $297 reversed $175 $-1 #
coedge $-1 $108 $296 $283 $298 forward $175 $-1 #
vertex $-1 $109 $299 #
vertex $-1 $185 $300 #
straight-curve $-1 62.33222449415571 17.841196415340391 7.7980657774464976 0 1 0 I I #
face $-1 $-1 $301 $24 $-1 $302 forward single #
loop $-1 $-1 $197 $110 #
plane-surface $-1 0 0 11.005221006528958 0 0 1 1 0 0 forward_v I I I I #
coedge $-1 $303 $304 $196 $305 forward $111 $-1 #
coedge $-1 $196 $113 $115 $202 reversed $69 $-1 #
coedge $-1 $113 $195 $194 $305 reversed $69 $-1 #
coedge $-1 $306 $116 $113 $198 forward $192 $-1 #
edge $-1 $205 -21.598347440641959 $307 -8.060828133693505 $197 $308 forward 7 unknown #
coedge $-1 $115 $114 $303 $309 reversed $45 $-1 #
coedge $-1 $310 $311 $114 $201 forward $301 $-1 #
edge $-1 $312 -27.165488136235602 $204 -9.7459555277121233 $200 $313 forward 7 unknown #
edge $-1 $314 1.8284041901497116e-014 $205 17.419532608523497 $195 $315 forward 7 unknown #
coedge $-1 $116 $306 $310 $316 forward $192 $-1 #
vertex $-1 $201 $317 #
vertex $-1 $117 $318 #
straight-curve $-1 -48.794705187207249 -12.163255426594246 11.005221006528956 0 1 0 I I #
coedge $-1 $207 $207 $-1 $319 reversed $120 $-1 #
edge $-1 $320 0 $320 6.2831853071796004 $121 $321 forward 7 unknown #
vertex $-1 $124 $322 #
ellipse-curve $-1 -55.563464840681476 -24.326510853188495 5.5239874019147006 -0.62932039886446345 0 0.77714595512881146 1.1657189326932171 0 0.94398059829669512 1 I I #
face $-1 $-1 $323 $26 $-1 $324 reversed single #
loop $-1 $-1 $325 $125 #
plane-surface $-1 0 -29.731341486457193 9.4016433919877276 0 -1 0 0 0 -1 forward_v I I I I #
coedge $-1 $326 $128 $130 $220 forward $78 $-1 #
coedge $-1 $128 $326 $325 $327 forward $78 $-1 #
coedge $-1 $328 $131 $128 $217 forward $126 $-1 #
edge $-1 $223 6.7584247933255472 $329 17.568086059862949 $216 $330 forward 7 unknown #
coedge $-1 $331 $332 $129 $219 forward $323 $-1 #
edge $-1 $333 -87.646799621935273 $222 -76.684332412706752 $218 $334 forward 7 unknown #
edge $-1 $223 107.24491637978794 $333 124.66444898831141 $130 $335 forward 7 unknown #
coedge $-1 $131 $328 $331 $336 forward $126 $-1 #
vertex $-1 $219 $337 #
vertex $-1 $132 $338 #
straight-curve $-1 21.951816488035078 -18.921680219919793 11.005221006528956 -1 0 0 I I #
coedge $-1 $225 $225 $-1 $339 reversed $135 $-1 #
edge $-1 $340 0 $340 6.2831853071796004 $136 $341 forward 7 unknown #
vertex $-1 $139 $342 #
ellipse-curve $-1 55.563464840681469 -24.326510853188495 5.5239874019147042 0.62932039886446345 0 0.77714595512881146 1.1657189326932171 0 -0.94398059829669512 1 I I #
face $-1 $-1 $155 $21 $-1 $343 reversed single #
loop $-1 $-1 $245 $140 #
plane-surface $-1 0 41.633444174904383 0 0 -1 0 0 0 -1 forward_v I I I I #
coedge $-1 $344 $243 $246 $345 forward $141 $-1 #
coedge $-1 $249 $143 $144 $237 reversed $87 $-1 #
coedge $-1 $243 $344 $143 $235 reversed $141 $-1 #
edge $-1 $250 -11.005221006528958 $346 11.005221006528958 $234 $347 forward 7 unknown #
coedge $-1 $145 $144 $344 $348 forward $57 $-1 #
edge $-1 $241 -62.33222449415571 $346 62.33222449415571 $233 $349 forward 7 unknown #
coedge $-1 $246 $245 $145 $239 reversed $230 $-1 #
edge $-1 $350 -62.33222449415571 $240 62.33222449415571 $238 $351 forward 7 unknown #
vertex $-1 $147 $352 #
vertex $-1 $252 $353 #
straight-curve $-1 62.33222449415571 0 -11.005221006528958 0 -1 0 I I #
coedge $-1 $232 $234 $148 $244 reversed $141 $-1 #
edge $-1 $247 -41.633444174904383 $250 41.633444174904383 $243 $354 forward 7 unknown #
coedge $-1 $238 $149 $154 $253 forward $230 $-1 #
coedge $-1 $149 $238 $232 $345 reversed $230 $-1 #
vertex $-1 $150 $355 #
straight-curve $-1 0 41.633444174904383 11.005221006528958 -1 0 0 I I #
coedge $-1 $151 $233 $153 $252 reversed $87 $-1 #
vertex $-1 $244 $356 #
straight-curve $-1 0 -41.633444174904383 11.005221006528958 1 0 0 I I #
edge $-1 $156 -11.005221006528958 $241 11.005221006528958 $153 $357 forward 7 unknown #
edge $-1 $157 -11.005221006528958 $240 11.005221006528958 $154 $358 forward 7 unknown #
point $-1 62.33222449415571 -41.633444174904383 11.005221006528958 #
point $-1 62.33222449415571 41.633444174904383 11.005221006528958 #
face $-1 $-1 $264 $22 $-1 $359 reversed single #
loop $-1 $-1 $267 $159 #
plane-surface $-1 0 0 11.005221006528958 0 0 1 1 0 0 forward_v I I I I #
coedge $-1 $360 $361 $163 $262 forward $160 $-1 #
coedge $-1 $362 $162 $170 $274 forward $95 $-1 #
coedge $-1 $162 $362 $363 $364 reversed $95 $-1 #
edge $-1 $365 -62.33222449415571 $265 62.33222449415571 $259 $366 forward 7 unknown #
coedge $-1 $164 $271 $360 $367 forward $264 $-1 #
loop $-1 $-1 $168 $256 #
vertex $-1 $262 $368 #
straight-curve $-1 62.33222449415571 -17.841196415340395 7.7980657774464976 0 1 0 I I #
coedge $-1 $363 $369 $166 $268 forward $257 $-1 #
edge $-1 $272 -62.33222449415571 $269 62.33222449415571 $267 $370 forward 7 unknown #
vertex $-1 $364 $371 #
straight-curve $-1 -62.33222449415571 -29.731341486457193 4.7008216959938638 0 0 -1 I I #
coedge $-1 $263 $168 $369 $372 reversed $264 $-1 #
vertex $-1 $169 $373 #
straight-curve $-1 62.33222449415571 -29.731341486457193 4.7008216959938638 0 0 1 I I #
edge $-1 $171 11.890145071116798 $365 23.792247759563988 $260 $374 forward 7 unknown #
point $-1 -62.33222449415571 -29.731341486457193 7.7980657774464976 #
point $-1 62.33222449415571 -29.731341486457193 7.7980657774464976 #
face $-1 $-1 $293 $23 $-1 $375 reversed single #
loop $-1 $-1 $180 $174 #
plane-surface $-1 -62.33222449415571 0 0 1 0 0 0 0 -1 forward_v I I I I #
coedge $-1 $376 $177 $296 $377 forward $103 $-1 #
coedge $-1 $177 $376 $284 $378 forward $103 $-1 #
edge $-1 $287 -62.33222449415571 $379 62.33222449415571 $177 $380 forward 7 unknown #
coedge $-1 $179 $178 $187 $298 reversed $65 $-1 #
coedge $-1 $381 $180 $281 $378 reversed $278 $-1 #
coedge $-1 $180 $381 $182 $289 forward $278 $-1 #
vertex $-1 $289 $382 #
vertex $-1 $181 $383 #
straight-curve $-1 -62.33222449415571 29.73134148645719 4.7008216959938638 0 0 1 I I #
edge $-1 $294 -23.792247759563985 $286 -11.890145071116798 $285 $384 forward 7 unknown #
straight-curve $-1 0 29.73134148645719 7.7980657774464976 -1 0 0 I I #
coedge $-1 $385 $184 $381 $386 reversed $293 $-1 #
coedge $-1 $184 $385 $186 $297 forward $293 $-1 #
loop $-1 $-1 $184 $277 #
vertex $-1 $185 $387 #
straight-curve $-1 0 41.633444174904383 7.7980657774464976 -1 0 0 I I #
coedge $-1 $187 $186 $280 $377 reversed $175 $-1 #
edge $-1 $388 -11.005221006528958 $189 -7.7980657774464976 $186 $389 forward 7 unknown #
edge $-1 $379 -6.3043993105350937 $188 -3.0972440814526339 $187 $390 forward 7 unknown #
point $-1 62.33222449415571 29.73134148645719 7.7980657774464976 #
point $-1 62.33222449415571 41.633444174904376 7.7980657774464976 #
loop $-1 $-1 $200 $191 #
plane-surface $-1 0 -29.731341486457193 9.4016433919877276 0 -1 0 0 0 -1 forward_v I I I I #
coedge $-1 $391 $194 $199 $309 forward $111 $-1 #
coedge $-1 $194 $391 $306 $392 reversed $111 $-1 #
edge $-1 $307 37.457392031935399 $314 48.41985924116392 $194 $393 forward 7 unknown #
coedge $-1 $203 $197 $304 $392 forward $192 $-1 #
vertex $-1 $392 $394 #
straight-curve $-1 -70.393052627849215 -18.921680219919793 11.005221006528956 -1 0 0 I I #
edge $-1 $314 6.7584247933255472 $312 17.568086059862942 $303 $395 forward 7 unknown #
coedge $-1 $311 $200 $203 $316 reversed $301 $-1 #
coedge $-1 $200 $310 $391 $396 reversed $301 $-1 #
vertex $-1 $396 $397 #
straight-curve $-1 -41.220675269980497 -29.731341486457193 17.138549626544069 0.77714595512881146 0 0.62932039886446345 I I #
vertex $-1 $309 $398 #
straight-curve $-1 -62.332224494155724 -18.921680219919793 0.042753797300420615 0.77714595512881146 0 0.62932039886446345 I I #
edge $-1 $399 -62.33222449415571 $204 -48.794705187207256 $203 $400 forward 7 unknown #
point $-1 -48.794705187207256 -29.73134148645719 11.005221006528958 #
point $-1 -48.794705187207256 -18.921680219919793 11.005221006528958 #
edge $-1 $401 1 $401 0 $207 $-1 forward 7 unknown #
vertex $-1 $208 $402 #
ellipse-curve $-1 -54.016312704357546 -24.326510853188495 3.6134136673232811 -0.62932039886446345 0 0.77714595512881146 1.1657189326932171 0 0.94398059829669512 1 I I #
point $-1 -54.397745907988245 -24.326510853188495 6.4679680002113802 #
loop $-1 $-1 $218 $211 #
plane-surface $-1 62.33222449415571 0 0 -1 0 0 0 0 1 forward_v I I I I #
coedge $-1 $403 $404 $215 $327 reversed $212 $-1 #
coedge $-1 $215 $214 $332 $405 reversed $78 $-1 #
edge $-1 $406 -124.66444898831141 $329 -107.24491637978792 $325 $407 forward 7 unknown #
coedge $-1 $221 $216 $404 $408 forward $126 $-1 #
vertex $-1 $408 $409 #
straight-curve $-1 48.794705187207271 -12.163255426594246 11.005221006528956 0 -1 0 I I #
coedge $-1 $410 $218 $221 $336 reversed $323 $-1 #
coedge $-1 $218 $410 $326 $405 forward $323 $-1 #
vertex $-1 $219 $411 #
straight-curve $-1 62.33222449415571 -18.921680219919793 87.689553419235708 0 0 1 I I #
straight-curve $-1 -34.55024778547255 -18.921680219919793 78.496634558843127 0.77714595512881146 0 -0.62932039886446345 I I #
edge $-1 $412 -29.731341486457193 $222 -18.921680219919793 $331 $413 forward 7 unknown #
point $-1 62.33222449415571 -18.921680219919793 11.005221006528958 #
point $-1 48.794705187207271 -18.921680219919793 11.005221006528956 #
edge $-1 $414 1 $414 0 $225 $-1 forward 7 unknown #
vertex $-1 $226 $415 #
ellipse-curve $-1 54.016312704357546 -24.326510853188495 3.6134136673232882 0.62932039886446345 0 0.77714595512881146 1.1657189326932171 0 -0.94398059829669512 1 I I #
point $-1 56.729183773374679 -24.326510853188495 4.5800068036179971 #
plane-surface $-1 62.33222449415571 0 0 -1 0 0 0 0 1 forward_v I I I I #
coedge $-1 $234 $232 $236 $348 reversed $141 $-1 #
edge $-1 $247 -11.005221006528958 $350 11.005221006528958 $246 $416 forward 7 unknown #
vertex $-1 $348 $417 #
straight-curve $-1 -62.33222449415571 -41.633444174904383 0 0 0 -1 I I #
edge $-1 $346 -41.633444174904383 $350 41.633444174904383 $344 $418 forward 7 unknown #
straight-curve $-1 0 -41.633444174904383 -11.005221006528958 -1 0 0 I I #
vertex $-1 $239 $419 #
straight-curve $-1 0 41.633444174904383 -11.005221006528958 1 0 0 I I #
point $-1 62.33222449415571 41.633444174904383 -11.005221006528958 #
point $-1 62.33222449415571 -41.633444174904383 -11.005221006528958 #
straight-curve $-1 -62.33222449415571 0 11.005221006528958 0 -1 0 I I #
point $-1 -62.33222449415571 41.633444174904383 11.005221006528958 #
point $-1 -62.33222449415571 -41.633444174904383 11.005221006528958 #
straight-curve $-1 62.33222449415571 -41.633444174904383 0 0 0 -1 I I #
straight-curve $-1 62.33222449415571 41.633444174904383 0 0 0 -1 I I #
plane-surface $-1 62.33222449415571 0 0 -1 0 0 0 0 1 forward_v I I I I #
coedge $-1 $420 $259 $263 $367 reversed $160 $-1 #
coedge $-1 $259 $420 $362 $421 forward $160 $-1 #
coedge $-1 $261 $260 $361 $421 reversed $95 $-1 #
coedge $-1 $422 $267 $261 $364 forward $257 $-1 #
edge $-1 $269 29.731341486457193 $423 41.633444174904383 $261 $424 forward 7 unknown #
vertex $-1 $262 $425 #
straight-curve $-1 0 -41.633444174904383 7.7980657774464976 1 0 0 I I #
edge $-1 $426 -11.005221006528958 $265 -7.7980657774464976 $263 $427 forward 7 unknown #
point $-1 62.33222449415571 -41.633444174904383 7.7980657774464976 #
coedge $-1 $267 $422 $271 $372 forward $257 $-1 #
straight-curve $-1 0 -29.731341486457193 11.005221006528958 -1 0 0 I I #
point $-1 -62.33222449415571 -29.731341486457193 11.005221006528958 #
edge $-1 $426 -41.633444174904383 $272 -29.731341486457193 $271 $428 forward 7 unknown #
point $-1 62.33222449415571 -29.731341486457193 11.005221006528958 #
straight-curve $-1 -62.33222449415571 -17.841196415340395 7.7980657774464976 0 -1 0 I I #
plane-surface $-1 0 41.633444174904383 0 0 -1 0 0 0 -1 forward_v I I I I #
coedge $-1 $281 $280 $385 $429 forward $103 $-1 #
edge $-1 $379 29.73134148645719 $388 41.633444174904383 $296 $430 forward 7 unknown #
edge $-1 $431 -41.633444174904383 $287 -29.73134148645719 $284 $432 forward 7 unknown #
vertex $-1 $377 $433 #
straight-curve $-1 0 29.73134148645719 11.005221006528958 1 0 0 I I #
coedge $-1 $285 $284 $291 $386 forward $278 $-1 #
point $-1 -62.33222449415571 29.73134148645719 7.7980657774464976 #
point $-1 -62.33222449415571 29.73134148645719 11.005221006528958 #
straight-curve $-1 -62.33222449415571 17.841196415340391 7.7980657774464976 0 -1 0 I I #
coedge $-1 $292 $291 $376 $429 reversed $293 $-1 #
edge $-1 $431 -11.005221006528958 $294 -7.7980657774464976 $291 $434 forward 7 unknown #
point $-1 -62.33222449415571 41.633444174904376 7.7980657774464976 #
vertex $-1 $377 $435 #
straight-curve $-1 62.33222449415571 41.633444174904383 0 0 0 -1 I I #
straight-curve $-1 62.33222449415571 29.73134148645719 4.7008216959938638 0 0 -1 I I #
coedge $-1 $304 $303 $311 $396 forward $111 $-1 #
edge $-1 $307 18.921680219919793 $399 29.731341486457193 $304 $436 forward 7 unknown #
straight-curve $-1 -62.33222449415571 -18.921680219919793 48.462613038464355 0 0 -1 I I #
point $-1 -62.33222449415571 -18.921680219919793 11.005221006528958 #
straight-curve $-1 -62.33222449415571 -12.163255426594246 0.042753797300433431 0 -1 0 I I #
edge $-1 $312 -48.41985924116392 $399 -37.457392031935399 $391 $437 forward 7 unknown #
point $-1 -62.33222449415571 -29.73134148645719 0.04275379730043212 #
point $-1 -62.33222449415571 -18.921680219919793 0.04275379730043212 #
vertex $-1 $396 $438 #
straight-curve $-1 0 -29.731341486457193 11.005221006528958 1 0 0 I I #
vertex $-1 $319 $439 #
point $-1 -52.850593771664329 -24.326510853188495 4.5573942656199762 #
coedge $-1 $404 $325 $410 $440 reversed $212 $-1 #
coedge $-1 $325 $403 $328 $408 reversed $212 $-1 #
edge $-1 $406 -17.568086059862942 $333 -6.7584247933255472 $332 $441 forward 7 unknown #
vertex $-1 $440 $442 #
straight-curve $-1 -34.55024778547255 -29.73134148645719 78.496634558843127 -0.77714595512881146 0 0.62932039886446345 I I #
edge $-1 $329 48.794705187207263 $412 62.33222449415571 $328 $443 forward 7 unknown #
point $-1 48.794705187207263 -29.731341486457193 11.005221006528958 #
coedge $-1 $332 $331 $403 $440 forward $323 $-1 #
point $-1 62.33222449415571 -18.921680219919793 0.042753797300434826 #
vertex $-1 $336 $444 #
straight-curve $-1 62.33222449415571 0 11.005221006528958 0 1 0 I I #
vertex $-1 $339 $445 #
point $-1 55.182031637050763 -24.326510853188495 2.6694330690265931 #
straight-curve $-1 -62.33222449415571 41.633444174904383 0 0 0 -1 I I #
point $-1 -62.33222449415571 -41.633444174904383 -11.005221006528958 #
straight-curve $-1 -62.33222449415571 0 -11.005221006528958 0 1 0 I I #
point $-1 -62.33222449415571 41.633444174904383 -11.005221006528958 #
coedge $-1 $361 $360 $422 $446 reversed $160 $-1 #
edge $-1 $423 -11.005221006528958 $365 -7.7980657774464976 $362 $447 forward 7 unknown #
coedge $-1 $369 $363 $420 $446 forward $257 $-1 #
vertex $-1 $364 $448 #
straight-curve $-1 -62.33222449415571 0 11.005221006528958 0 -1 0 I I #
point $-1 -62.33222449415571 -41.633444174904383 7.7980657774464976 #
vertex $-1 $372 $449 #
straight-curve $-1 62.33222449415571 -41.633444174904383 0 0 0 -1 I I #
straight-curve $-1 62.33222449415571 0 11.005221006528958 0 1 0 I I #
edge $-1 $388 -62.33222449415571 $431 62.33222449415571 $385 $450 forward 7 unknown #
straight-curve $-1 62.33222449415571 0 11.005221006528958 0 1 0 I I #
vertex $-1 $429 $451 #
straight-curve $-1 -62.33222449415571 0 11.005221006528958 0 -1 0 I I #
point $-1 62.33222449415571 29.73134148645719 11.005221006528958 #
straight-curve $-1 -62.33222449415571 41.633444174904383 0 0 0 -1 I I #
point $-1 62.33222449415571 41.633444174904383 11.005221006528958 #
straight-curve $-1 -62.33222449415571 0 11.005221006528958 0 -1 0 I I #
straight-curve $-1 -62.33222449415571 -29.73134148645719 48.462613038464355 0 0 1 I I #
point $-1 -62.33222449415571 -29.731341486457193 11.005221006528958 #
point $-1 -53.072332106060855 -24.326510853188495 2.4476947346300633 #
edge $-1 $412 76.684332412706752 $406 87.646799621935273 $410 $452 forward 7 unknown #
straight-curve $-1 62.33222449415571 -12.163255426594246 0.042753797300441931 0 1 0 I I #
point $-1 62.33222449415571 -29.73134148645719 0.042753797300434826 #
straight-curve $-1 0 -29.731341486457193 11.005221006528958 1 0 0 I I #
point $-1 62.33222449415571 -29.731341486457193 11.005221006528958 #
point $-1 53.072332106060855 -24.326510853188495 2.4476947346300704 #
edge $-1 $423 -62.33222449415571 $426 62.33222449415571 $420 $453 forward 7 unknown #
straight-curve $-1 -62.33222449415571 -41.633444174904383 0 0 0 -1 I I #
point $-1 -62.33222449415571 -41.633444174904383 11.005221006528958 #
point $-1 62.33222449415571 -41.633444174904383 11.005221006528958 #
straight-curve $-1 0 41.633444174904383 11.005221006528958 -1 0 0 I I #
point $-1 -62.33222449415571 41.633444174904383 11.005221006528958 #
straight-curve $-1 62.33222449415571 -29.73134148645719 87.689553419235708 0 0 -1 I I #
straight-curve $-1 0 -41.633444174904383 11.005221006528958 1 0 0 I I #
End-of-ACIS-data 