500 0 8 0           
7 Unknown 11 ACIS 5.0 NT 24 Thu Mar 25 23:54:46 1999 
-1 9.9999999999999995e-007 1e-010 
body $-1 $8 $-1 $9 #
body $-1 $10 $-1 $11 #
body $-1 $12 $-1 $13 #
body $-1 $14 $-1 $15 #
body $-1 $16 $-1 $17 #
body $-1 $18 $-1 $19 #
body $-1 $20 $-1 $21 #
body $-1 $22 $-1 $23 #
lump $-1 $-1 $24 $0 #
transform $-1 1 0 0 0 1 0 0 0 1 77.112949003570662 37.925064723116002 15.754868419981301 1 rotate no_reflect no_shear #
lump $-1 $-1 $25 $1 #
transform $-1 1 0 0 0 1 0 0 0 1 77.112949003570662 37.925064723116002 15.754868419981301 1 rotate no_reflect no_shear #
lump $-1 $-1 $26 $2 #
transform $-1 1 0 0 0 1 0 0 0 1 77.112949003570662 37.925064723116002 15.754868419981301 1 rotate no_reflect no_shear #
lump $-1 $-1 $27 $3 #
transform $-1 1 0 0 0 1 0 0 0 1 77.112949003570662 37.925064723116002 15.754868419981301 1 rotate no_reflect no_shear #
lump $-1 $-1 $28 $4 #
transform $-1 1 0 0 0 1 0 0 0 1 77.112949003570662 37.925064723116002 15.754868419981301 1 rotate no_reflect no_shear #
lump $-1 $-1 $29 $5 #
transform $-1 1 0 0 0 1 0 0 0 1 77.112949003570662 37.925064723116002 15.754868419981301 1 rotate no_reflect no_shear #
lump $-1 $-1 $30 $6 #
transform $-1 1 0 0 0 1 0 0 0 1 77.112949003570662 37.925064723116002 15.754868419981301 1 rotate no_reflect no_shear #
lump $-1 $-1 $31 $7 #
transform $-1 1 0 0 0 1 0 0 0 1 77.112949003570662 37.925064723116002 15.754868419981301 1 rotate no_reflect no_shear #
shell $-1 $-1 $-1 $32 $-1 $8 #
shell $-1 $-1 $-1 $33 $-1 $10 #
shell $-1 $-1 $-1 $34 $-1 $12 #
shell $-1 $-1 $-1 $35 $-1 $14 #
shell $-1 $-1 $-1 $36 $-1 $16 #
shell $-1 $-1 $-1 $37 $-1 $18 #
shell $-1 $-1 $-1 $38 $-1 $20 #
shell $-1 $-1 $-1 $39 $-1 $22 #
face $-1 $40 $41 $24 $-1 $42 forward single #
face $-1 $43 $44 $25 $-1 $45 reversed single #
face $-1 $46 $47 $26 $-1 $48 reversed single #
face $-1 $49 $50 $27 $-1 $51 reversed single #
face $-1 $52 $53 $28 $-1 $54 forward single #
face $-1 $55 $56 $29 $-1 $57 forward single #
face $-1 $58 $59 $30 $-1 $60 reversed single #
face $-1 $61 $62 $31 $-1 $63 forward single #
face $-1 $64 $65 $24 $-1 $66 reversed single #
loop $-1 $-1 $67 $32 #
plane-surface $-1 0 0 15.754868419981301 0 0 1 1 0 0 forward_v I I I I #
face $-1 $68 $69 $25 $-1 $70 reversed single #
loop $-1 $-1 $71 $33 #
plane-surface $-1 0 -26.520890211264053 14.049080685566564 0 -1 0 0 0 -1 forward_v I I I I #
face $-1 $72 $73 $26 $-1 $74 reversed single #
loop $-1 $-1 $75 $34 #
plane-surface $-1 -54.927183598944112 25.630757214471195 0 0 1 0 0 0 1 forward_v I I I I #
face $-1 $76 $77 $27 $-1 $78 reversed single #
loop $-1 $-1 $79 $35 #
plane-surface $-1 31.765673610193758 2.3430558844667217 219.78752612975055 0 -1 0 -0.54463904215088732 0 -0.83867056331134215 forward_v I I I I #
face $-1 $80 $81 $28 $-1 $82 forward single #
loop $-1 $83 $84 $36 #
cone-surface $-1 69.523575253146973 -5.3085245731659754 10.450782480906446 -0.54463904215088732 0 -0.83867056331134215 1.2580058449670133 0 -0.81695856322633098 1 I I 0 1 1.5 forward I I I I #
face $-1 $85 $86 $29 $-1 $87 forward single #
loop $-1 $88 $89 $37 #
cone-surface $-1 69.523575253146973 -0.71757629858635852 10.450782480906446 -0.54463904215088732 0 -0.83867056331134215 1.2580058449670133 0 -0.81695856322633098 1 I I 0 1 1.5 forward I I I I #
face $-1 $90 $91 $30 $-1 $92 reversed single #
loop $-1 $-1 $93 $38 #
plane-surface $-1 -77.112949003570648 -18.858278259605981 11.010207014959278 -0.81915205242281985 0 0.57357642473473569 0.57357642473473569 0 0.81915205242281985 forward_v I I I I #
face $-1 $94 $95 $31 $-1 $96 forward single #
loop $-1 $97 $98 $39 #
cone-surface $-1 -74.651922621008424 -18.858278259605978 12.82243990985174 0.81915205242281985 0 -0.57357642473473569 0.57357642473473569 0 0.81915205242281985 1 I I 0 1 1 forward I I I I #
face $-1 $99 $100 $24 $-1 $101 reversed single #
loop $-1 $-1 $102 $40 #
plane-surface $-1 0 0 -15.754868419981301 0 0 1 1 0 0 forward_v I I I I #
coedge $-1 $103 $104 $105 $106 forward $41 $-1 #
face $-1 $107 $108 $25 $-1 $109 reversed single #
loop $-1 $-1 $110 $43 #
plane-surface $-1 0 -32.222977467190027 12.343292951151827 0 0 1 1 0 0 forward_v I I I I #
coedge $-1 $111 $112 $113 $114 reversed $44 $-1 #
face $-1 $115 $116 $26 $-1 $117 reversed single #
loop $-1 $-1 $118 $46 #
plane-surface $-1 -57.266300984617715 31.777910968793599 0 1 0 0 0 0 -1 forward_v I I I I #
coedge $-1 $119 $120 $121 $122 forward $47 $-1 #
face $-1 $123 $124 $27 $-1 $125 reversed single #
loop $-1 $-1 $126 $49 #
plane-surface $-1 -52.231771755276128 -3.0130504358761669 90.442805370903727 0.54463904215088732 0 0.83867056331134215 0.83867056331134215 0 -0.54463904215088732 forward_v I I I I #
coedge $-1 $127 $128 $129 $130 reversed $50 $-1 #
face $-1 $-1 $131 $28 $-1 $132 forward single #
loop $-1 $133 $134 $52 #
cone-surface $-1 68.693415006543205 -5.3085245731659754 9.1724478266218252 -0.54463904215088732 0 -0.83867056331134215 0.62900292248350664 0 -0.40847928161316549 1 I I -0.70710678118654757 0.70710678118654757 0.75 forward I I I I #
loop $-1 $-1 $135 $36 #
coedge $-1 $84 $84 $136 $137 reversed $53 $-1 #
face $-1 $-1 $138 $29 $-1 $139 forward single #
loop $-1 $140 $141 $55 #
cone-surface $-1 68.693415006543205 -0.71757629858635852 9.1724478266218252 -0.54463904215088732 0 -0.83867056331134215 0.62900292248350664 0 -0.40847928161316549 1 I I -0.70710678118654757 0.70710678118654757 0.75 forward I I I I #
loop $-1 $-1 $142 $37 #
coedge $-1 $89 $89 $143 $144 reversed $56 $-1 #
face $-1 $145 $146 $30 $-1 $147 reversed single #
loop $-1 $-1 $148 $58 #
plane-surface $-1 -203.44740989287294 -11.195666307947912 99.470546195399393 0 -1 0 0.81915205242281985 0 -0.57357642473473569 forward_v I I I I #
coedge $-1 $149 $150 $151 $152 reversed $59 $-1 #
face $-1 $-1 $153 $31 $-1 $154 forward single #
loop $-1 $155 $156 $61 #
cone-surface $-1 -73.442444003123285 -18.858278259605978 11.975553889865813 0.81915205242281985 0 -0.57357642473473569 0.28678821236736785 0 0.40957602621140993 1 I I -0.70710678118654746 0.70710678118654746 0.5 forward I I I I #
loop $-1 $-1 $157 $39 #
coedge $-1 $98 $98 $158 $159 reversed $62 $-1 #
face $-1 $160 $161 $24 $-1 $162 reversed single #
loop $-1 $-1 $163 $64 #
plane-surface $-1 0 -37.925064723116002 0 0 1 0 0 0 1 forward_v I I I I #
coedge $-1 $164 $165 $166 $167 forward $65 $-1 #
coedge $-1 $168 $67 $169 $170 forward $41 $-1 #
coedge $-1 $67 $168 $171 $172 forward $41 $-1 #
coedge $-1 $173 $174 $67 $106 reversed $175 $-1 #
edge $-1 $176 -37.925064723116002 $177 37.925064723116002 $105 $178 forward 7 unknown #
face $-1 $179 $180 $25 $-1 $181 reversed single #
loop $-1 $-1 $182 $68 #
plane-surface $-1 -77.112949003570662 0 0 1 0 0 0 0 -1 forward_v I I I I #
coedge $-1 $183 $184 $185 $186 reversed $69 $-1 #
coedge $-1 $187 $71 $188 $189 reversed $44 $-1 #
coedge $-1 $71 $187 $182 $190 reversed $44 $-1 #
coedge $-1 $191 $192 $71 $114 forward $193 $-1 #
edge $-1 $194 -77.112949003570662 $195 77.112949003570662 $113 $196 forward 7 unknown #
face $-1 $197 $198 $26 $-1 $199 forward single #
loop $-1 $-1 $200 $72 #
plane-surface $-1 -52.588066213270508 31.777910968793599 0 -1 0 0 0 0 1 forward_v I I I I #
coedge $-1 $201 $202 $203 $204 reversed $73 $-1 #
coedge $-1 $205 $75 $206 $207 reversed $47 $-1 #
coedge $-1 $75 $205 $208 $209 reversed $47 $-1 #
coedge $-1 $202 $201 $75 $122 reversed $73 $-1 #
edge $-1 $210 -15.754868419981301 $211 15.754868419981301 $121 $212 forward 7 unknown #
face $-1 $213 $214 $27 $-1 $215 reversed single #
loop $-1 $-1 $216 $76 #
plane-surface $-1 31.765673610193758 -8.3691567562190556 219.78752612975055 0 1 0 0.54463904215088732 0 0.83867056331134215 forward_v I I I I #
coedge $-1 $217 $218 $219 $220 reversed $77 $-1 #
coedge $-1 $128 $79 $221 $222 reversed $50 $-1 #
coedge $-1 $79 $127 $217 $223 reversed $50 $-1 #
coedge $-1 $219 $224 $79 $130 forward $225 $-1 #
edge $-1 $226 -61.230112198473783 $227 -46.894726627607632 $129 $228 forward 7 unknown #
loop $-1 $-1 $136 $80 #
plane-surface $-1 -52.231771755276128 -3.0130504358761669 90.442805370903727 0.54463904215088732 0 0.83867056331134215 0.83867056331134215 0 -0.54463904215088732 forward_v I I I I #
loop $-1 $-1 $229 $52 #
coedge $-1 $134 $134 $135 $230 reversed $81 $-1 #
coedge $-1 $135 $135 $134 $230 forward $83 $-1 #
coedge $-1 $136 $136 $84 $137 forward $131 $-1 #
edge $-1 $231 0 $231 6.2831853071796004 $136 $232 forward 7 unknown #
loop $-1 $-1 $143 $85 #
plane-surface $-1 -52.231771755276128 -3.0130504358761669 90.442805370903727 0.54463904215088732 0 0.83867056331134215 0.83867056331134215 0 -0.54463904215088732 forward_v I I I I #
loop $-1 $-1 $233 $55 #
coedge $-1 $141 $141 $142 $234 reversed $86 $-1 #
coedge $-1 $142 $142 $141 $234 forward $88 $-1 #
coedge $-1 $143 $143 $89 $144 forward $138 $-1 #
edge $-1 $235 0 $235 6.2831853071796004 $143 $236 forward 7 unknown #
face $-1 $237 $238 $30 $-1 $239 forward single #
loop $-1 $-1 $240 $90 #
plane-surface $-1 -77.112949003570662 0 0 1 0 0 0 0 -1 forward_v I I I I #
coedge $-1 $241 $242 $243 $244 reversed $91 $-1 #
coedge $-1 $245 $93 $246 $247 reversed $59 $-1 #
coedge $-1 $93 $245 $241 $248 forward $59 $-1 #
coedge $-1 $243 $249 $93 $152 forward $238 $-1 #
edge $-1 $250 -17.091751081461062 $251 -1.766527178144921 $151 $252 forward 7 unknown #
loop $-1 $-1 $158 $94 #
plane-surface $-1 -77.112949003570648 -18.858278259605981 11.010207014959278 -0.81915205242281985 0 0.57357642473473569 0.57357642473473569 0 0.81915205242281985 forward_v I I I I #
loop $-1 $-1 $253 $61 #
coedge $-1 $156 $156 $157 $254 reversed $95 $-1 #
coedge $-1 $157 $157 $156 $254 forward $97 $-1 #
coedge $-1 $158 $158 $98 $159 forward $153 $-1 #
edge $-1 $255 0 $255 6.2831853071796004 $158 $256 forward 7 unknown #
face $-1 $257 $258 $24 $-1 $259 reversed single #
loop $-1 $-1 $260 $99 #
plane-surface $-1 -77.112949003570662 0 0 1 0 0 0 0 -1 forward_v I I I I #
coedge $-1 $261 $171 $262 $263 forward $100 $-1 #
coedge $-1 $264 $102 $261 $265 forward $65 $-1 #
coedge $-1 $102 $264 $266 $267 forward $65 $-1 #
coedge $-1 $174 $173 $102 $167 reversed $175 $-1 #
edge $-1 $268 -37.925064723116002 $269 37.925064723116002 $166 $270 forward 7 unknown #
coedge $-1 $104 $103 $271 $272 forward $41 $-1 #
coedge $-1 $273 $274 $103 $170 reversed $258 $-1 #
edge $-1 $177 -77.112949003570662 $275 77.112949003570662 $169 $276 forward 7 unknown #
coedge $-1 $163 $277 $104 $172 reversed $100 $-1 #
edge $-1 $278 -77.112949003570662 $176 77.112949003570662 $171 $279 forward 7 unknown #
coedge $-1 $166 $105 $277 $280 forward $175 $-1 #
coedge $-1 $105 $166 $273 $281 reversed $175 $-1 #
loop $-1 $-1 $173 $257 #
vertex $-1 $106 $282 #
vertex $-1 $106 $283 #
straight-curve $-1 77.112949003570662 0 15.754868419981301 0 1 0 I I #
face $-1 $284 $193 $25 $-1 $285 forward single #
loop $-1 $-1 $286 $107 #
plane-surface $-1 0 -37.925064723116002 0 0 1 0 0 0 1 forward_v I I I I #
coedge $-1 $287 $288 $112 $190 forward $108 $-1 #
coedge $-1 $289 $110 $286 $290 reversed $69 $-1 #
coedge $-1 $110 $289 $187 $291 forward $69 $-1 #
coedge $-1 $188 $292 $110 $186 forward $293 $-1 #
edge $-1 $294 -21.813575989520988 $295 -10.409401477669039 $185 $296 forward 7 unknown #
coedge $-1 $112 $111 $184 $291 reversed $44 $-1 #
coedge $-1 $297 $185 $111 $189 forward $293 $-1 #
edge $-1 $295 5.3187526083685457 $194 8.730328077198017 $188 $298 forward 7 unknown #
edge $-1 $195 -8.730328077198017 $299 -5.3187526083685457 $182 $300 forward 7 unknown #
coedge $-1 $301 $113 $288 $302 forward $193 $-1 #
coedge $-1 $113 $301 $297 $303 forward $193 $-1 #
loop $-1 $-1 $113 $179 #
vertex $-1 $189 $304 #
vertex $-1 $302 $305 #
straight-curve $-1 0 -26.520890211264053 15.754868419981301 -1 0 0 I I #
face $-1 $306 $307 $26 $-1 $308 reversed single #
loop $-1 $-1 $309 $115 #
plane-surface $-1 0 0 15.754868419981301 0 0 1 1 0 0 forward_v I I I I #
coedge $-1 $310 $311 $205 $312 forward $116 $-1 #
coedge $-1 $121 $118 $313 $314 reversed $73 $-1 #
coedge $-1 $118 $121 $309 $315 reversed $73 $-1 #
coedge $-1 $316 $317 $118 $204 forward $318 $-1 #
edge $-1 $319 -15.754868419981301 $320 15.754868419981301 $203 $321 forward 7 unknown #
coedge $-1 $120 $119 $200 $312 reversed $47 $-1 #
coedge $-1 $313 $322 $119 $207 forward $307 $-1 #
edge $-1 $323 25.124474413798453 $211 29.802709185145659 $206 $324 forward 7 unknown #
coedge $-1 $325 $309 $120 $209 forward $198 $-1 #
edge $-1 $210 -29.802709185145659 $326 -25.124474413798453 $208 $327 forward 7 unknown #
vertex $-1 $209 $328 #
vertex $-1 $207 $329 #
straight-curve $-1 -57.266300984617715 25.630757214471195 0 0 0 -1 I I #
face $-1 $-1 $225 $27 $-1 $330 forward single #
loop $-1 $-1 $331 $123 #
plane-surface $-1 77.112949003570662 0 0 -1 0 0 0 0 1 forward_v I I I I #
coedge $-1 $332 $333 $334 $335 reversed $124 $-1 #
coedge $-1 $336 $126 $128 $223 forward $77 $-1 #
coedge $-1 $126 $336 $332 $337 forward $77 $-1 #
coedge $-1 $334 $129 $126 $220 forward $225 $-1 #
edge $-1 $227 -3.8495811024048052 $338 6.8626315382809722 $219 $339 forward 7 unknown #
coedge $-1 $340 $341 $127 $222 forward $214 $-1 #
edge $-1 $342 -103.44840305944142 $226 -94.138894644893966 $221 $343 forward 7 unknown #
edge $-1 $227 137.13291036934294 $342 154.2258980071413 $128 $344 forward 7 unknown #
coedge $-1 $129 $334 $340 $345 forward $225 $-1 #
loop $-1 $-1 $334 $213 #
vertex $-1 $222 $346 #
vertex $-1 $130 $347 #
straight-curve $-1 15.882836805096879 2.3430558844667217 15.754868419981307 -1 0 0 I I #
coedge $-1 $229 $229 $-1 $348 reversed $133 $-1 #
edge $-1 $349 0 $349 6.2831853071796004 $134 $350 forward 7 unknown #
vertex $-1 $137 $351 #
ellipse-curve $-1 69.945256218137587 -5.3085245731659754 11.100114212707588 0.54463904215088732 0 0.83867056331134215 1.2580058449670133 0 -0.81695856322633098 1 I I #
coedge $-1 $233 $233 $-1 $352 reversed $140 $-1 #
edge $-1 $353 0 $353 6.2831853071796004 $141 $354 forward 7 unknown #
vertex $-1 $144 $355 #
ellipse-curve $-1 69.945256218137587 -0.71757629858635852 11.100114212707588 0.54463904215088732 0 0.83867056331134215 1.2580058449670133 0 -0.81695856322633098 1 I I #
face $-1 $-1 $356 $30 $-1 $357 forward single #
loop $-1 $-1 $243 $145 #
plane-surface $-1 0 0 15.754868419981301 0 0 1 1 0 0 forward_v I I I I #
coedge $-1 $358 $359 $242 $360 forward $146 $-1 #
coedge $-1 $242 $148 $150 $248 reversed $91 $-1 #
coedge $-1 $148 $241 $240 $360 reversed $91 $-1 #
coedge $-1 $361 $151 $148 $244 forward $238 $-1 #
edge $-1 $251 -27.933003524642871 $362 -24.610755942865808 $243 $363 forward 7 unknown #
coedge $-1 $150 $149 $358 $364 reversed $59 $-1 #
coedge $-1 $365 $366 $149 $247 forward $356 $-1 #
edge $-1 $367 -23.359734597275864 $250 -17.567572579261409 $246 $368 forward 7 unknown #
edge $-1 $369 -2.4157181099100639e-014 $251 5.792162018014432 $241 $370 forward 7 unknown #
coedge $-1 $151 $361 $365 $371 forward $238 $-1 #
vertex $-1 $247 $372 #
vertex $-1 $152 $373 #
straight-curve $-1 -73.790701421793614 -9.4291391298029907 15.754868419981301 0 1 0 I I #
coedge $-1 $253 $253 $-1 $374 reversed $155 $-1 #
edge $-1 $375 0 $375 6.2831853071796004 $156 $376 forward 7 unknown #
vertex $-1 $159 $377 #
ellipse-curve $-1 -75.451825212682124 -18.858278259605978 13.382537717470283 -0.81915205242281985 0 0.57357642473473569 0.57357642473473569 0 0.81915205242281985 1 I I #
face $-1 $-1 $175 $24 $-1 $378 reversed single #
loop $-1 $-1 $273 $160 #
plane-surface $-1 0 37.925064723116002 0 0 -1 0 0 0 -1 forward_v I I I I #
coedge $-1 $379 $271 $274 $380 forward $161 $-1 #
coedge $-1 $277 $163 $164 $265 reversed $100 $-1 #
coedge $-1 $271 $379 $163 $263 reversed $161 $-1 #
edge $-1 $278 -15.754868419981301 $381 15.754868419981301 $262 $382 forward 7 unknown #
coedge $-1 $165 $164 $379 $383 forward $65 $-1 #
edge $-1 $269 -77.112949003570662 $381 77.112949003570662 $261 $384 forward 7 unknown #
coedge $-1 $274 $273 $165 $267 reversed $258 $-1 #
edge $-1 $385 -77.112949003570662 $268 77.112949003570662 $266 $386 forward 7 unknown #
vertex $-1 $167 $387 #
vertex $-1 $280 $388 #
straight-curve $-1 77.112949003570662 0 -15.754868419981301 0 -1 0 I I #
coedge $-1 $260 $262 $168 $272 reversed $161 $-1 #
edge $-1 $275 -37.925064723116002 $278 37.925064723116002 $271 $389 forward 7 unknown #
coedge $-1 $266 $169 $174 $281 forward $258 $-1 #
coedge $-1 $169 $266 $260 $380 reversed $258 $-1 #
vertex $-1 $170 $390 #
straight-curve $-1 0 37.925064723116002 15.754868419981301 -1 0 0 I I #
coedge $-1 $171 $261 $173 $280 reversed $100 $-1 #
vertex $-1 $272 $391 #
straight-curve $-1 0 -37.925064723116002 15.754868419981301 1 0 0 I I #
edge $-1 $176 -15.754868419981301 $269 15.754868419981301 $173 $392 forward 7 unknown #
edge $-1 $177 -15.754868419981301 $268 15.754868419981301 $174 $393 forward 7 unknown #
point $-1 77.112949003570662 -37.925064723116002 15.754868419981301 #
point $-1 77.112949003570662 37.925064723116002 15.754868419981301 #
face $-1 $-1 $293 $25 $-1 $394 reversed single #
plane-surface $-1 0 0 15.754868419981301 0 0 1 1 0 0 forward_v I I I I #
coedge $-1 $395 $396 $183 $290 forward $180 $-1 #
coedge $-1 $397 $182 $289 $398 forward $108 $-1 #
coedge $-1 $182 $397 $191 $302 reversed $108 $-1 #
coedge $-1 $184 $183 $287 $398 reversed $69 $-1 #
edge $-1 $399 -77.112949003570662 $294 77.112949003570662 $286 $400 forward 7 unknown #
edge $-1 $299 -77.112949003570662 $295 77.112949003570662 $187 $401 forward 7 unknown #
coedge $-1 $185 $297 $395 $402 forward $293 $-1 #
loop $-1 $-1 $188 $284 #
vertex $-1 $290 $403 #
vertex $-1 $186 $404 #
straight-curve $-1 77.112949003570662 -16.111488733595014 12.343292951151827 0 1 0 I I #
coedge $-1 $292 $188 $192 $303 reversed $293 $-1 #
straight-curve $-1 77.112949003570662 -26.520890211264053 7.0245403427832818 0 0 1 I I #
vertex $-1 $398 $405 #
straight-curve $-1 -77.112949003570662 -26.520890211264053 7.0245403427832818 0 0 -1 I I #
coedge $-1 $192 $191 $406 $407 forward $193 $-1 #
edge $-1 $195 26.520890211264053 $408 37.925064723116002 $288 $409 forward 7 unknown #
edge $-1 $410 -37.925064723116002 $194 -26.520890211264053 $297 $411 forward 7 unknown #
point $-1 77.112949003570662 -26.520890211264053 15.7548684199813 #
point $-1 -77.112949003570662 -26.520890211264053 15.7548684199813 #
face $-1 $-1 $318 $26 $-1 $412 reversed single #
loop $-1 $-1 $313 $197 #
plane-surface $-1 0 0 -15.754868419981301 0 0 1 1 0 0 forward_v I I I I #
coedge $-1 $208 $413 $202 $315 forward $198 $-1 #
coedge $-1 $414 $200 $322 $415 reversed $116 $-1 #
coedge $-1 $200 $414 $325 $416 reversed $116 $-1 #
edge $-1 $326 -15.754868419981301 $323 15.754868419981301 $200 $417 forward 7 unknown #
coedge $-1 $418 $206 $201 $314 forward $307 $-1 #
edge $-1 $211 9.7418017300743962 $319 22.036109238719202 $313 $419 forward 7 unknown #
edge $-1 $320 -22.036109238719202 $210 -9.7418017300743962 $309 $420 forward 7 unknown #
coedge $-1 $421 $203 $413 $422 reversed $318 $-1 #
coedge $-1 $203 $421 $418 $423 reversed $318 $-1 #
loop $-1 $-1 $203 $306 #
vertex $-1 $423 $424 #
vertex $-1 $204 $425 #
straight-curve $-1 -57.266300984617715 37.925064723116002 0 0 0 1 I I #
coedge $-1 $206 $418 $310 $415 forward $307 $-1 #
vertex $-1 $207 $426 #
straight-curve $-1 -27.463591799472056 25.630757214471195 -15.754868419981301 -1 0 0 I I #
coedge $-1 $413 $208 $311 $416 forward $198 $-1 #
vertex $-1 $209 $427 #
straight-curve $-1 -27.463591799472056 25.630757214471195 15.754868419981301 1 0 0 I I #
point $-1 -57.266300984617715 25.630757214471195 15.754868419981301 #
point $-1 -57.266300984617715 25.630757214471195 -15.754868419981301 #
plane-surface $-1 0 0 15.754868419981301 0 0 1 1 0 0 forward_v I I I I #
coedge $-1 $341 $340 $333 $428 forward $214 $-1 #
coedge $-1 $333 $216 $218 $337 reversed $124 $-1 #
coedge $-1 $216 $332 $331 $428 reversed $124 $-1 #
coedge $-1 $224 $219 $216 $335 forward $225 $-1 #
edge $-1 $338 46.894726627607632 $429 61.230112198473783 $334 $430 forward 7 unknown #
coedge $-1 $218 $217 $341 $431 reversed $77 $-1 #
edge $-1 $432 -154.2258980071413 $338 -137.13291036934294 $332 $433 forward 7 unknown #
vertex $-1 $220 $434 #
straight-curve $-1 62.777563432704525 -1.5065252179380835 15.7548684199813 0 -1 0 I I #
coedge $-1 $331 $221 $224 $345 reversed $214 $-1 #
coedge $-1 $221 $331 $336 $431 forward $214 $-1 #
vertex $-1 $222 $435 #
straight-curve $-1 77.112949003570662 2.3430558844667217 109.89376306487527 0 0 1 I I #
straight-curve $-1 -52.231771755276128 2.3430558844667217 90.442805370903727 0.83867056331134215 0 -0.54463904215088732 I I #
edge $-1 $429 -8.3691567562190556 $226 2.3430558844667217 $340 $436 forward 7 unknown #
point $-1 77.112949003570662 2.3430558844667217 15.754868419981301 #
point $-1 62.777563432704511 2.3430558844667217 15.754868419981307 #
edge $-1 $437 1 $437 0 $229 $-1 forward 7 unknown #
vertex $-1 $230 $438 #
ellipse-curve $-1 69.101894288156373 -5.3085245731659754 9.8014507491053315 0.54463904215088732 0 0.83867056331134215 1.2580058449670133 0 -0.81695856322633098 1 I I #
point $-1 71.203262063104575 -5.3085245731659754 10.283155649481227 #
edge $-1 $439 1 $439 0 $233 $-1 forward 7 unknown #
vertex $-1 $234 $440 #
ellipse-curve $-1 69.101894288156373 -0.71757629858635852 9.8014507491053315 0.54463904215088732 0 0.83867056331134215 1.2580058449670133 0 -0.81695856322633098 1 I I #
point $-1 71.203262063104575 -0.71757629858635852 10.283155649481227 #
loop $-1 $-1 $246 $237 #
plane-surface $-1 0 -26.520890211264053 14.049080685566564 0 -1 0 0 0 -1 forward_v I I I I #
coedge $-1 $441 $240 $245 $364 forward $146 $-1 #
coedge $-1 $240 $441 $361 $442 reversed $146 $-1 #
edge $-1 $362 33.980404677718397 $369 38.72506608274044 $240 $443 forward 7 unknown #
coedge $-1 $249 $243 $359 $442 forward $238 $-1 #
vertex $-1 $442 $444 #
straight-curve $-1 -101.72370494643647 -11.195666307947912 15.7548684199813 -1 0 0 I I #
edge $-1 $369 1.766527178144921 $367 17.091751081461062 $358 $445 forward 7 unknown #
coedge $-1 $366 $246 $249 $371 reversed $356 $-1 #
coedge $-1 $246 $365 $441 $446 reversed $356 $-1 #
vertex $-1 $446 $447 #
straight-curve $-1 -63.714355950512868 -26.520890211264053 30.145381554370136 0.57357642473473569 0 0.81915205242281985 I I #
vertex $-1 $364 $448 #
straight-curve $-1 -77.112949003570648 -11.195666307947912 11.010207014959278 0.57357642473473569 0 0.81915205242281985 I I #
edge $-1 $449 -77.112949003570662 $250 -73.790701421793599 $249 $450 forward 7 unknown #
point $-1 -73.790701421793599 -26.520890211264053 15.754868419981301 #
point $-1 -73.790701421793599 -11.195666307947912 15.754868419981301 #
edge $-1 $451 1 $451 0 $253 $-1 forward 7 unknown #
vertex $-1 $254 $452 #
ellipse-curve $-1 -73.852020029334696 -18.858278259605978 12.26234210223318 -0.81915205242281985 0 0.57357642473473569 0.57357642473473569 0 0.81915205242281985 1 I I #
point $-1 -74.878248787947413 -18.858278259605978 14.20168976989312 #
plane-surface $-1 77.112949003570662 0 0 -1 0 0 0 0 1 forward_v I I I I #
coedge $-1 $262 $260 $264 $383 reversed $161 $-1 #
edge $-1 $275 -15.754868419981301 $385 15.754868419981301 $274 $453 forward 7 unknown #
vertex $-1 $383 $454 #
straight-curve $-1 -77.112949003570662 -37.925064723116002 0 0 0 -1 I I #
edge $-1 $381 -37.925064723116002 $385 37.925064723116002 $379 $455 forward 7 unknown #
straight-curve $-1 0 -37.925064723116002 -15.754868419981301 -1 0 0 I I #
vertex $-1 $267 $456 #
straight-curve $-1 0 37.925064723116002 -15.754868419981301 1 0 0 I I #
point $-1 77.112949003570662 37.925064723116002 -15.754868419981301 #
point $-1 77.112949003570662 -37.925064723116002 -15.754868419981301 #
straight-curve $-1 -77.112949003570662 0 15.754868419981301 0 -1 0 I I #
point $-1 -77.112949003570662 37.925064723116002 15.754868419981301 #
point $-1 -77.112949003570662 -37.925064723116002 15.754868419981301 #
straight-curve $-1 77.112949003570662 -37.925064723116002 0 0 0 -1 I I #
straight-curve $-1 77.112949003570662 37.925064723116002 0 0 0 -1 I I #
plane-surface $-1 77.112949003570662 0 0 -1 0 0 0 0 1 forward_v I I I I #
coedge $-1 $406 $286 $292 $402 reversed $180 $-1 #
coedge $-1 $286 $406 $397 $457 forward $180 $-1 #
coedge $-1 $288 $287 $396 $457 reversed $108 $-1 #
edge $-1 $299 10.409401477669039 $399 21.813575989520988 $287 $458 forward 7 unknown #
vertex $-1 $290 $459 #
straight-curve $-1 0 -37.925064723116002 12.343292951151827 1 0 0 I I #
straight-curve $-1 0 -26.520890211264053 12.343292951151827 1 0 0 I I #
edge $-1 $410 -15.754868419981301 $294 -12.343292951151827 $292 $460 forward 7 unknown #
point $-1 77.112949003570662 -37.925064723116002 12.343292951151827 #
point $-1 77.112949003570662 -26.520890211264053 12.343292951151827 #
point $-1 -77.112949003570662 -26.520890211264053 12.343292951151827 #
coedge $-1 $396 $395 $301 $407 reversed $180 $-1 #
edge $-1 $408 -77.112949003570662 $410 77.112949003570662 $406 $461 forward 7 unknown #
vertex $-1 $302 $462 #
straight-curve $-1 -77.112949003570662 0 15.754868419981301 0 -1 0 I I #
vertex $-1 $303 $463 #
straight-curve $-1 77.112949003570662 0 15.754868419981301 0 1 0 I I #
plane-surface $-1 0 37.925064723116002 0 0 -1 0 0 0 -1 forward_v I I I I #
coedge $-1 $309 $325 $316 $422 forward $198 $-1 #
coedge $-1 $311 $310 $421 $464 reversed $116 $-1 #
edge $-1 $465 -22.036109238719202 $323 -9.7418017300743962 $322 $466 forward 7 unknown #
edge $-1 $326 9.7418017300743962 $467 22.036109238719202 $325 $468 forward 7 unknown #
straight-curve $-1 -52.588066213270508 25.630757214471195 0 0 0 -1 I I #
coedge $-1 $322 $313 $317 $423 forward $307 $-1 #
straight-curve $-1 -57.266300984617715 15.888955484396799 -15.754868419981301 0 1 0 I I #
straight-curve $-1 -57.266300984617715 15.888955484396799 15.754868419981301 0 -1 0 I I #
coedge $-1 $317 $316 $414 $464 forward $318 $-1 #
edge $-1 $467 52.588066213270508 $320 57.266300984617715 $316 $469 forward 7 unknown #
edge $-1 $319 -57.266300984617715 $465 -52.588066213270508 $317 $470 forward 7 unknown #
point $-1 -57.266300984617715 37.925064723116002 -15.754868419981301 #
point $-1 -57.266300984617715 37.925064723116002 15.754868419981301 #
point $-1 -52.588066213270508 25.630757214471195 -15.754868419981301 #
point $-1 -52.588066213270508 25.630757214471195 15.754868419981301 #
edge $-1 $429 94.138894644893966 $432 103.44840305944142 $331 $471 forward 7 unknown #
vertex $-1 $345 $472 #
straight-curve $-1 15.882836805096879 -8.3691567562190556 15.754868419981307 1 0 0 I I #
edge $-1 $432 -6.8626315382809722 $342 3.8495811024048052 $341 $473 forward 7 unknown #
vertex $-1 $431 $474 #
straight-curve $-1 -52.231771755276128 -8.3691567562190556 90.442805370903727 -0.83867056331134215 0 0.54463904215088732 I I #
point $-1 62.777563432704511 -8.3691567562190556 15.754868419981307 #
point $-1 77.112949003570662 2.3430558844667217 6.4453600054338551 #
straight-curve $-1 77.112949003570662 0 15.754868419981301 0 1 0 I I #
vertex $-1 $348 $475 #
point $-1 70.359900133123389 -5.3085245731659754 8.9844921858790006 #
vertex $-1 $352 $476 #
point $-1 70.359900133123389 -0.71757629858635852 8.9844921858790006 #
coedge $-1 $359 $358 $366 $446 forward $146 $-1 #
edge $-1 $362 11.195666307947912 $449 26.520890211264053 $359 $477 forward 7 unknown #
straight-curve $-1 -77.112949003570662 -11.195666307947912 49.735273097699697 0 0 -1 I I #
point $-1 -77.112949003570662 -11.195666307947912 15.754868419981301 #
straight-curve $-1 -77.112949003570662 -9.4291391298029907 11.010207014959263 0 -1 0 I I #
edge $-1 $367 -38.72506608274044 $449 -33.980404677718397 $441 $478 forward 7 unknown #
point $-1 -77.112949003570662 -26.520890211264053 11.010207014959258 #
point $-1 -77.112949003570662 -11.195666307947912 11.010207014959258 #
vertex $-1 $446 $479 #
straight-curve $-1 0 -26.520890211264053 15.754868419981301 1 0 0 I I #
vertex $-1 $374 $480 #
point $-1 -73.278443604599957 -18.858278259605978 13.081494154656001 #
straight-curve $-1 -77.112949003570662 37.925064723116002 0 0 0 -1 I I #
point $-1 -77.112949003570662 -37.925064723116002 -15.754868419981301 #
straight-curve $-1 -77.112949003570662 0 -15.754868419981301 0 1 0 I I #
point $-1 -77.112949003570662 37.925064723116002 -15.754868419981301 #
edge $-1 $408 -15.754868419981301 $399 -12.343292951151827 $397 $481 forward 7 unknown #
straight-curve $-1 -77.112949003570662 -16.111488733595014 12.343292951151827 0 -1 0 I I #
point $-1 -77.112949003570662 -37.925064723116002 12.343292951151827 #
straight-curve $-1 77.112949003570662 -37.925064723116002 0 0 0 -1 I I #
straight-curve $-1 0 -37.925064723116002 15.754868419981301 1 0 0 I I #
point $-1 -77.112949003570662 -37.925064723116002 15.754868419981301 #
point $-1 77.112949003570662 -37.925064723116002 15.754868419981301 #
edge $-1 $467 -15.754868419981301 $465 15.754868419981301 $421 $482 forward 7 unknown #
vertex $-1 $464 $483 #
straight-curve $-1 -52.588066213270508 15.888955484396799 -15.754868419981301 0 -1 0 I I #
vertex $-1 $422 $484 #
straight-curve $-1 -52.588066213270508 15.888955484396799 15.754868419981301 0 1 0 I I #
straight-curve $-1 0 37.925064723116002 15.754868419981301 -1 0 0 I I #
straight-curve $-1 0 37.925064723116002 -15.754868419981301 1 0 0 I I #
straight-curve $-1 77.112949003570662 -8.3691567562190556 109.89376306487527 0 0 -1 I I #
point $-1 77.112949003570662 -8.3691567562190556 15.754868419981301 #
straight-curve $-1 77.112949003570662 -1.5065252179380835 6.445360005433848 0 1 0 I I #
point $-1 77.112949003570662 -8.3691567562190556 6.4453600054338551 #
point $-1 68.284935724930037 -5.3085245731659754 8.5434449041383189 #
point $-1 68.284935724930037 -0.71757629858635852 8.5434449041383189 #
straight-curve $-1 -77.112949003570662 0 15.754868419981301 0 -1 0 I I #
straight-curve $-1 -77.112949003570662 -26.520890211264053 49.735273097699697 0 0 1 I I #
point $-1 -77.112949003570662 -26.520890211264053 15.7548684199813 #
point $-1 -73.032867976911874 -18.858278259605978 11.688765677498445 #
straight-curve $-1 -77.112949003570662 -37.925064723116002 0 0 0 -1 I I #
straight-curve $-1 -52.588066213270508 37.925064723116002 0 0 0 -1 I I #
point $-1 -52.588066213270508 37.925064723116002 -15.754868419981301 #
point $-1 -52.588066213270508 37.925064723116002 15.754868419981301 #
End-of-ACIS-data 